<?xml version="1.0" encoding="utf-8"?>
<!-- Generator: Adobe Illustrator 23.0.4, SVG Export Plug-In . SVG Version: 6.00 Build 0)  -->
<svg version="1.1" id="Слой_1" xmlns="http://www.w3.org/2000/svg" xmlns:xlink="http://www.w3.org/1999/xlink" x="0px" y="0px"
	 viewBox="0 0 80 80" style="enable-background:new 0 0 80 80;" xml:space="preserve">
<style type="text/css">
	.st0{fill:#FFFF00;}
</style>
<circle class="st0" cx="40.1" cy="40" r="37.6"/>
<path d="M26.4,61.8V49.9H6.2V46l19.4-27.8H32v27.1h6.1v4.6H32v11.9L26.4,61.8 M26.4,45.3V30.8c0-2.3,0.1-4.6,0.2-6.8h-0.2
	c-1.3,2.5-2.4,4.4-3.6,6.4L12.2,45.2v0.1H26.4"/>
<path d="M44.9,57.6c1.3,0.1,2.7,0,4.8-0.2c3.4-0.5,6.6-1.9,9.1-4.2c2.9-2.6,5-6.4,5.8-11.6h-0.2c-2.4,2.9-5.9,4.7-10.2,4.7
	c-7.8,0-12.9-5.9-12.9-13.3c0-8.2,6-15.5,14.9-15.5s14.4,7.2,14.4,18.3c0,9.6-3.2,16.3-7.5,20.4c-3.3,3.3-8,5.3-12.7,5.8
	c-2.1,0.3-4,0.4-5.4,0.3v-4.7L44.9,57.6 M47.1,32.6c0,5.4,3.3,9.2,8.4,9.2c4,0,7-1.9,8.6-4.6c0.3-0.5,0.5-1.2,0.5-2.1
	c0-7.4-2.7-13.1-8.9-13.1C50.6,22,47.1,26.4,47.1,32.6"/>
</svg>
