<svg xmlns="http://www.w3.org/2000/svg" viewBox="0 0 60 56" enable-background="new 0 0 60 56">
 <g fill="none" stroke-miterlimit="10">
  <g stroke="#e0e1e0">
   <path stroke-linejoin="round" d="m3.4 2.8c6.5-4.2 13-1.3 13.1 2.3.1 5.1 0 11.2-.1 14.1"/>
   <g stroke-width=".25">
    <line x1="4.9" y1="1.9" x2="4.2" y2="22.7"/>
    <line x1="7.6" y1="1" x2="6.9" y2="21.9"/>
    <line x1="10.3" y1=".7" x2="9.6" y2="21.1"/>
    <line x1="12.9" y1="1.1" x2="12.3" y2="20.2"/>
    <line x1="15" y1="2.3" x2="14.4" y2="19.7"/>
    <line x1="15.8" y1="3.2" x2="1.8" y2="5.3"/>
    <line x1="16.5" y1="5.8" x2="1.7" y2="7.8"/>
    <line x1="16.7" y1="8.6" x2="1.6" y2="10.6"/>
    <line x1="16.6" y1="11.7" x2="1.4" y2="14.2"/>
    <line x1="16.5" y1="14.4" x2="1.3" y2="17.6"/>
    <line x1="16.4" y1="16.8" x2="1.2" y2="20.4"/>
    <line x1="44.1" y1="35.1" x2="16.4" y2="16.8"/>
    <line x1="18.7" y1="13.4" x2="18.7" y2="20.2"/>
   </g>
   <polyline stroke-linejoin="round" points="43.4,55.1 58.9,47.5 16.4,19.2 
	1.1,23.6 "/>
   <g stroke-width=".25">
    <line x1="21.3" y1="15.2" x2="21.3" y2="22.7"/>
    <line x1="23.7" y1="16.8" x2="23.7" y2="24"/>
    <line x1="26.2" y1="18.5" x2="26.2" y2="25.7"/>
    <line x1="28.9" y1="27.5" x2="28.9" y2="20.4"/>
    <line x1="31.5" y1="22.3" x2="31.5" y2="29.3"/>
    <line x1="34.6" y1="31.3" x2="34.8" y2="24.4"/>
    <line x1="37.2" y1="26" x2="37" y2="33.1"/>
    <line x1="39.5" y1="34.6" x2="39.5" y2="27.5"/>
   </g>
  </g>
  <g stroke="#fff">
   <g stroke-width=".25">
    <line x1="56.1" y1="29.3" x2="56.1" y2="48.9"/>
    <line x1="53.6" y1="27.9" x2="53.6" y2="50.1"/>
    <line x1="51.5" y1="27.5" x2="51.5" y2="51.5"/>
    <line x1="49" y1="27.5" x2="49" y2="52.6"/>
    <line x1="46.7" y1="27.8" x2="46.7" y2="53.6"/>
    <line x1="54.5" y1="28.2" x2="43.9" y2="31.3"/>
    <line x1="57.1" y1="30.4" x2="44.2" y2="33.4"/>
    <line x1="58.2" y1="32.5" x2="43.9" y2="36.4"/>
    <line x1="43.7" y1="48.3" x2="58.6" y2="42.9"/>
    <line x1="58.7" y1="39.9" x2="43.8" y2="45.4"/>
    <line x1="43.9" y1="42.2" x2="58.6" y2="37.6"/>
    <line x1="58.7" y1="45.4" x2="43.6" y2="51.1"/>
    <line x1="43.9" y1="39.1" x2="58.5" y2="34.6"/>
   </g>
   <g stroke-linejoin="round">
    <path stroke-width="2" d="m43.4 55.1l.8-22.6c0 0-.5-3-2.8-4-2.4-.8-38-25.7-38-25.7s-1.7-.1-1.8 3c-.1 2-.5 17.8-.5 17.8"/>
    <path d="m41.7 28.8c3.2-.9 6.9-1.4 9.1-1.4 4.7.1 7.4 3.1 7.7 6.7.4 5.1 0 10.2-.1 13.1"/>
    <g stroke-width=".25">
     <line x1="46.7" y1="27.8" x2="7.6" y2="1"/>
     <line x1="49" y1="27.5" x2="10.3" y2=".7"/>
     <line x1="51.5" y1="27.5" x2="12.9" y2=".8"/>
     <line x1="55.4" y1="28.7" x2="15" y2="1.7"/>
     <path d="m39.8 26.8c8-2.3 11.2-1.1 11.2-1.1"/>
     <path d="m35.8 25.2c8-2.3 12.1-1.3 12.1-1.3"/>
     <path d="m33.6 23.5c8-2.3 11.3-1.7 11.3-1.7"/>
     <path d="m30.5 21.2c8-2.3 11.8-1.4 11.8-1.4"/>
     <path d="m27.9 19.4c8-2.3 11.5-1.4 11.5-1.4"/>
     <path d="m25.2 17.6c8-2.3 11.6-1.4 11.6-1.4"/>
     <path d="m22.1 15.5c8-2.3 11.6-1.3 11.6-1.3"/>
     <path d="m19.3 13.7c8-2.3 11.7-1.2 11.7-1.2"/>
     <path d="m16.9 11.7c8-2.3 11-1.4 11-1.4"/>
     <path d="m12.8 9.3c8-2.3 11.8-1.1 11.8-1.1"/>
     <path d="m10.5 7.5c8-2.3 11.9-1.1 11.9-1.1"/>
     <path d="m8 5.7c8-2.3 11.7-1.1 11.7-1.1"/>
     <path d="m6.7 4.2c8-2.3 10.1-1.3 10.1-1.3"/>
     <path d="m4.5 3.2c8-2.3 11.3-1.2 11.3-1.2"/>
    </g>
   </g>
  </g>
 </g>
</svg>
