<svg xmlns="http://www.w3.org/2000/svg" viewBox="0 0 60 56" enable-background="new 0 0 60 56">
 <g fill="none" stroke-linejoin="round" stroke-miterlimit="10">
  <g stroke="#e0e1e0">
   <polyline points="0.7,47 17,55.5 59.6,27.6 
	44.7,23.7 "/>
   <path d="m.7 47l-.3-18.7c0 0 0-4.2 4.8-7 2.4-1.4 37.2-21 37-20.8 0 0 2.5.4 2.6 3.4.1 2 .1 19.5.1 19.5"/>
  </g>
  <path stroke="#fff" d="m2.1 23.6c3.6.6 2.8.5 5.5 1.5 6.8 2.5 9.7 10.5 9.7 16.5 0 6.7-.3 13.9-.3 13.9"/>
  <path stroke="#e0e1e0" d="m42.3.7c3.6.6 5.1 1.1 7.7 2.2 6.6 2.8 9.2 12 9.2 18 0 6.7-.3 6-.3 6"/>
  <g stroke="#fff" stroke-width=".25">
   <line x1="59.3" y1="25.1" x2="17" y2="53.1"/>
   <line x1="59.3" y1="22.7" x2="17.1" y2="50.5"/>
   <line x1="59.3" y1="20" x2="17.1" y2="47.9"/>
   <line x1="17.1" y1="44.8" x2="59" y2="17.6"/>
   <line x1="58.4" y1="14.5" x2="17.2" y2="41.6"/>
   <line x1="57.6" y1="11.7" x2="16.9" y2="37.9"/>
   <line x1="56.3" y1="8.8" x2="16" y2="34.4"/>
   <line x1="54.5" y1="6.3" x2="14.6" y2="31.4"/>
   <line x1="52.5" y1="4.3" x2="12.5" y2="28.5"/>
   <line x1="50" y1="2.9" x2="9.7" y2="26.1"/>
   <line x1="47" y1="1.7" x2="6.4" y2="24.7"/>
   <path d="m5.3 21.3c17.9 2.5 15.2 32.4 15.1 32.5"/>
   <path d="m7.4 20c17.5 2.6 15.9 32.1 15.9 32.1"/>
   <path d="M9.9,18.6
	C26.7,21.7,26,50,26,50"/>
   <path d="m12.5 17.2c15.9 2.7 16 31.2 16 31.2"/>
   <path d="m15 15.8c15.6 3.4 16.2 30.9 16.2 30.9"/>
   <path d="m17.1 14.6c14.5 1.9 16.4 30.6 16.4 30.6"/>
   <path d="m19.6 13.2c14.4 2.3 16.2 30.5 16.2 30.5"/>
   <path d="M21.6,12.1
	C35.9,13.8,38.2,42,38.2,42"/>
   <path d="m24.4 10.5c13.4 1.9 16.1 30.1 16.1 30.1"/>
   <path d="m26.4 9.5c15.2 1.5 16.3 29.6 16.3 29.6"/>
   <path d="m28.2 8.4c15.8 1.1 16.6 29.1 16.6 29.1"/>
   <path d="m30.1 7.3c18.1 2.2 16.6 29.1 16.6 29.1"/>
   <path d="m32.2 6.1c20 2.7 16.7 28.5 16.7 28.5"/>
   <path d="m34.5 4.9c19.3 2.3 16.6 28.2 16.6 28.2"/>
   <path d="m37 3.4c19.3 2.3 16.3 28.3 16.3 28.3"/>
   <path d="m38.9 2.3c18.8 1 16.4 28.1 16.4 28.1"/>
   <path d="m41.1 1.1c18.3.3 16.5 27.8 16.5 27.8"/>
   <line x1="43.8" y1=".9" x2="3.3" y2="23.8"/>
   <line x1="3.7" y1="23.6" x2="3.8" y2="48.6"/>
   <line x1="6.4" y1="24.7" x2="6.5" y2="50"/>
   <line x1="9.7" y1="26.1" x2="9.7" y2="51.7"/>
   <line x1="12.5" y1="28.5" x2="12.5" y2="53.1"/>
   <line x1="14.6" y1="31.4" x2="14.6" y2="54.3"/>
   <line x1="16" y1="34.4" x2=".5" y2="27.3"/>
   <line x1="17" y1="53.1" x2=".7" y2="44.5"/>
   <line x1="17.1" y1="50.5" x2=".7" y2="42"/>
   <line x1="17.1" y1="47.9" x2=".6" y2="39.6"/>
   <line x1="17.1" y1="44.8" x2=".4" y2="36.6"/>
   <line x1="17.2" y1="41.6" x2=".5" y2="34"/>
   <line x1="16.9" y1="37.9" x2=".5" y2="30.8"/>
   <line x1="14.6" y1="31.4" x2="1.4" y2="25.1"/>
  </g>
 </g>
</svg>
