<svg xmlns="http://www.w3.org/2000/svg" viewBox="0 0 15 37" enable-background="new 0 0 15 37">
 <path fill="#e8af7c" d="m3.7 5.7c-.7.1-1.5 1.1-1.8 1.7-.8 1.8-1.6 5.3-1.8 6.6-.4 2.5.5 2.7.6 3.9-.4 1.1-.8 2.4-.1 3 .2.3.1-.4.2-.5.1.3.2.8.2.9.2.3.4.5.7.6.2 0 .8-.6.6-1-.7-1.1.1-1.5-.5-3.1.4-2.1.5-2.1.2-3.8.9-2 1.2-2.8 1.7-4.3.2 1.2.9 3.9 1 5.1.1.8-1.2 4.9-1.4 5.7-.7 3.4-1 4.2-.6 5.7.2.8 1.1 6.9 1 7.7-.1.5 1.2.6 1.3 0 .4-1.7 1.2-6.8.3-8.1-.2 0 .4-1.1.7-1.6 1-1.2 1.1-2.1 1.7-3.6.1-.1 1 3.3 2.5 5.1 0 2.1-.3 5.9.9 8.6.5-3.6 2.4-4.4 1.9-8.6 0-.3 0-.7 0-.9-.5-2.7-1.8-6.6-2-9.9-.2-3.1 0-3.4.1-5 .4 1 1.7 2.9 1.9 3.9.2 1.4 0 2 0 4.3-.6 1.5.5 1-.3 3.1-.2.5.3 1 .5 1 .3-.1.6-.5.9-1.5.2-.5.2.6.4.5.5-.4.2-1.8-.2-3.1.3-2.2 1.2-2.8.7-4.8-.4-1.7-1.1-3.8-2-5.3-.4-.6-1.1-1.4-2.1-1.9-.5-.3-1.9-.8-2.3-.9.2-.8.7-1.4.6-2.9-.1-.3-.7-2.2-2.4-2.2-1 0-2.2 1.1-2.2 3.1 0 .9.4 1.6.6 2.1s-1.4.4-1.5.4"/>
 <g fill="#191919">
  <path d="m3.2 36.7c-.4.1-1.7.2-2-.1-.5-.4.9-1.7 1.1-1.9.4-.5 1.3-.9 1.3-1.2 0-1.1-.1-1.4-.2-2.6-.4-2.2-.4-2.8-.6-4.2.8.2 1.9-.1 2.7-.3.5 2.1.2 2.3 0 4.1-.1.9-.3 1.9-.2 2.8 0 .4.4.6.2 1.1 0 .7-1.8 2.2-2.3 2.3"/>
  <path d="m13.2 35.3c.1.3.1.8 0 1.1-.1.5-1 .6-1.5.4-.5-.2-.9-.9-1-1.5-.1-.5-.1-1.1-.1-1.6-.3-1.7-.5-3.8-.6-4.7 0-1.1.1-1.3.2-2.3.8.1 2.2.2 2.9-.3.3 2.4-.6 3.9-1.1 6.3 0 .2 0 .4 0 .5 0 .2.1.3.2.4.4.5.7 1.2 1 1.7"/>
  <path d="m9.7 25.7c-.7-.8-.9-2.5-2-2.4-1.4.3-1.8 2.4-1.9 2.5 0 0-.1-.5-.6-.9-.4-.4-1.8-1.3-2.9-.6.1-2.3 1.2-5.5 1.9-8.1 1.7.3 5.1.4 6.8 0 0 .5 1.3 4.9 1.7 7.6-.4-1-3.1 1-3 1.9"/>
 </g>
 <g fill="#131313">
  <path d="m3.7 19.7c.1-2.3 7.5-2.7 8-.1-.8 1.2-5.9 1.7-8 .1"/>
  <path d="m9.7 25.7c-.7-.8-.9-2.5-2-2.4-1.4.3-1.8 2.4-1.9 2.5 0 0-.1-.5-.6-.9-.3-.2.8-1.1.6-2.7 0-.2.5-.8.8-.4.4.4 1.3.3 1.5.2.4-.1.9-.3.9-.1 0 .2-.4.5-.4.6s.6-.2.6 0c0 1.2.5 2.8.5 3.2"/>
 </g>
 <path fill="#2d2e2d" d="m6.9 6.6c1-.2 1.5-1.1 1.6-1.4 1.3.4 1.7.5 2.7 1 1.2.7 2.1 2.4 2.3 2.9.8 1.4.9 2.4 1.1 3.1-.5.5-2 1.5-2.7 1.8-.6-.9-.4-1.5-1-2.4.3 3.6.5 5.2 1.1 8-1.2.8-2.8 1.1-4.2 1-1.5-.1-3.4-.6-4.8-1 .4-1.7 1-3.3.9-5-.1-1.2-.1-1.2-.1-2.4-.2 1-.5 1-.6 1.9-.7 0-2.2-.8-3-.5 0-1 .3-2.2.6-3.3.2-.8.8-2.6 1.6-3.6.7-1 1.5-1 2.8-1.5.4.9.8 1.3 1.7 1.4"/>
 <g fill="#1e1e1e">
  <path d="m4.7 13.8c.1.8.2 1.7.1 2.6-.1.8-.4 1.5-.6 2.3-.1.2-.3 1-.3 1s-.4 0-1-.3c.2-.6.3-.9.3-1.1.6-2.4.8-2.3.4-6.1-.1.7-.4 1.3-.5 1.8-.2.1-1-.2-1.2-.3.3-.5.9-1.3 1-2 .1-.6.3-1.3.9-1.5.5.4.6 1.1.7 1.7 0 .6.1 1.3.2 1.9"/>
  <path d="m11.1 13.9c0-.1-.2-1.6-.2-2 .1-.1.1-.1.2 0 .3.8.3 1.4.8 2 .3-.1 1.4-.7 1.5-.9-.8-.1-1.5-2.5-2.2-3.2-2.4-1-2-4-2.8-4.2-.1.5-1.7 1.8-3 .1 0 .8-1.7 3.6-1.6 4.5.2 1.3.4 2.6.7 3.9 0 .2 2.2.2 2.3.4 0 .2-1.7.6-1.6.8 0 .2 1.3.1 1.3.3s-1.1.2-1 .4c0 .1 4.4.1 4.5.2.3 1.4.5 3 .7 4 .4-.2.9-.3 1.3-.6-.6-2.6-.5-2.9-.9-5.7"/>
 </g>
 <g fill="#2d2e2d">
  <path d="m3.2 36.7c-.4.1-1.7.2-2-.1-.5-.4.9-1.7 1.1-1.9.4-.5 1.3-.9 1.3-1.2 0 .3.9.3 1.7-.2 0 .4.4.6.2 1.1 0 .7-1.8 2.2-2.3 2.3"/>
  <path d="m13.2 35.3c.1.3.1.8 0 1.1-.1.5-1 .6-1.5.4-.5-.2-.9-.9-1-1.5-.1-.5-.1-1.1-.1-1.6.9.4 1.4.1 1.5-.2.4.6.8 1.3 1.1 1.8"/>
 </g>
 <path fill="#856047" d="m5.4 5.5c0 0 1.4 2.4 3 0-.1 1.3-1 1.8-1.4 1.8-.3 0-1.3-.2-1.6-1.8"/>
 <path fill="#603a17" d="m8 6.2c-.4.5-1.4.7-1.9.2-.3-.2-.6-.4-.7-.7-.4-.9-.6-1.5-.7-2.4-.1-.6.1-1.4.3-2 .3-.6.8-1.1 1.4-1.2.6-.2 1.3 0 1.8.4s.8 1.3 1 1.9c-.5.1-.8-.8-1.3-.8 0 .2 0 .6 0 .7-.3 0-.7-.5-.9-.7 0 .1.1.7.1.8-.2 0-.5-.6-.6-.7s-.2.4-.1.6c-.2 0-.6-.7-.8-.6-.1 0-.1.1-.1.2-.1.3-.2.7-.2 1.1v.1h.1c.3 0 .7 0 1 0 .4.1.3.5 0 .6-.2.1-.5.1-.7.1-.3 0-.5-.2-.6.1.2.6.2 1.3.6 1.9.3.4.9.7 1.3.6s.9-.3 1.2-.7c.1-.4.5-1.2.4-1.7-.1-.4-.7-.4-1.2-.4-.2 0-.4 0-.5.1 0 .1 0 .2 0 .3 0 .4.1.8.1 1.1-.2.1-.4-.1-.5-.2.3 0 .5-.5.5-.8s0-.7.3-.9c.4-.2.7.1 1.2-.1.3-.2.6-.6.7-.6.1.2-.2 1.4-.2 1.7-.2.6-.4.8-.6 1.4-.2.2-.2.4-.4.6"/>
 <g fill="#191919">
  <path d="m.7 18c0 0 .7.2 1.1 0 .7 1.5-.2 1.8.5 3 .3.5-.6 1-.6 1-.1-.1-.8-.7-.9-1.5-.1.2 0 .8-.2.5-.8-.9-.2-2.1.1-3"/>
  <path d="m14.5 21.2c-.1.1-.3-.4-.4-.6s-.3 1.5-.9 1.6c-.2 0-.7-.5-.5-1 .7-1.8-.2-1.7.3-3 .4.2 1.3-.1 1.3-.1.3.9.7 2.5.2 3.1"/>
 </g>
 <g fill="#eae40f">
  <path d="m13.1 26.4c0 0-.8.7-2.9.3-.1.5-.2 1.8-.2 2 0 .2 2.1.5 3-.1.1-1.1.1-2 .1-2.2"/>
  <path d="m5.5 26.4c0 0-1.6.5-2.7.3.1.6.2 1.4.3 2.1 0 .2 1.7.5 2.7-.2.1-1.1-.2-2-.3-2.2"/>
  <path d="m3.6 33.6c0 0-1.9 1.5-1.5 1.8s2.4-1.4 2.5-1.6-1.1.4-1-.2"/>
  <path d="m10.9 33.8c0 0 .9.3 1.2-.2.3.2.9 1.8.2 1.8-.7 0-1.3-1.2-1.4-1.6"/>
 </g>
</svg>
