<svg xmlns="http://www.w3.org/2000/svg" viewBox="0 0 15 37" enable-background="new 0 0 15 37">
 <path fill="#e8af7c" d="m3.8 6.5c-1.2.4-.9 2.2-.9 3.3.4 2.5.8 3 .4 4-.8 2.3-.6 2.5-1 3.4-1.1.6-1.8 1.6-1.7 2.4 0 .2.7-.5.7-.4-.3 1.1-2.2 1.5-.1 1.9 1-.1 1.8-1.5 2.2-3.4 1-1.2 1.3-1.5 1.8-3.4.3-1.3-.4-1.1-.6-2.4.2 1.2 1.7 2 1.8 4.4.1.8-3.6 6.7-2.9 9 .2.8 3.4 7.3 3.3 8.1-3.9 2.6 2.3 2.1 1.6 0-.8-3.6.1-7-1.9-7.9 1.2-1.5 2.1-3.1 2.1-4.5.1-.1-.3 1.3-.3 4.4 0 2 2.8 4.2 3.6 7.7-1.1 2.8.3 4.4 1.5 1.2-.2-3.6 0-6.6-2.2-8.7.5-2.4 4.1-5.7 1.4-11.8-.2-1.7-1-2.8-1.4-3.7.4.4 1.6-1.8.8-3.2-.6-.5-1.6-.9-1.7-.9-.4-.1-2.3-.9-2.6-1-.2-.2-.9-.4-1-.7.4-.7.3-.5.2-2-.1-.4-.5-2.2-2.8-2.2-1.1 0-1.5 1.3-1.5 2.6 0 .2.2.5.1.7 0 .2-.2.5-.1.8.2.9.4 1 .6 1.6.3.9.9.6.6.7"/>
 <path fill="#8b5f3d" d="m4.2 6.5c-1.3 0-1.3 2.2-1.3 3.3.4 2.5 1.5 3.2 1.1 4.2-.8 2.3-.8 2.7-1.2 3.6-1.1.6.2 1.9.7.1 1-1.2 1.3-1.7 1.8-3.6.3-1.3-.4-.9-.6-2.2.2 1.2 1.7 2 1.8 4.4.1.8-.5 8.4-1.6 9.4.2.8 2.1 6.9 2 7.7-3.9 2.6 2.3 2.1 1.6 0-.8-3.6.1-7-1.9-7.9 1.1-1.5 2-3.1 2-4.5.1-.1-.6-6.4-3.4-12.6-.2-1.7 1.1-.6 1.9-3.8-.2-.2-.3 0-.4-.4.4-.7-.3 2.3-2.5 2.3"/>
 <path fill="#191919" d="m8.3 25.2c0-.9 0 0 0-.9-.3.9-.3 1.4-.4 1.5 0 0-.4-.1-1-.2s-2.2-2-3.4-2c.4-2.4 2.1-4.8 2.6-7.1 1.6.3 4.6-1.1 6.2-1.5 2.4 3.4.6 8.9 0 11.2-.7.2-1.7-2-3.2-1.7-.3 0-.5.1-.8.7"/>
 <g fill="#131313">
  <path d="m13.1 19.4c-.8 1.2-7 2.5-8 .4"/>
  <path d="m8.3 25.2c0-.4 0-.2 0-.9-.3 1-.3 1.4-.4 1.5 0 0-1.4 0-2.2-1-.3-.2 1.2-1.1 1-2.7 0-.2.5-.8.8-.4.4.4 1.3.3 1.5.2.4-.1.9-.3.9-.1 0 .2-1.2.6-1.2.7s.4 0 .3.1c-.5.6-.7 2.2-.7 2.6"/>
  <path d="m13.4 19.3c.1.8-.1 1.9-.2 2.8-.1.8-.4 1.5-.6 2.3-.1.2-.5 1.7-.5 1.7s-.4-.3-1-.8c.2-.6.5-1.1.5-1.3.6-2.4.8-2.3.4-6.1 0 .7.9-.9 1-.3 0 .6.3 1.1.4 1.7"/>
 </g>
 <path fill="#2d2e2d" d="m5.6 7.1c.8 0 2-1.4 2-2.2 1.4.4 2.1.8 3.1 1.2.9.4 1.3.5 1.9 1.8.8 1.5 1.8 4.1 1.9 4.8-.4.8-1.2 1.5-1.7.9 0-.3.9 2.8.8 5.6-1.2.8-4 1.6-5.3 1.5-1.4-.1-2.3 0-3.2-.9.4-1.7 1-2.3.8-4.1-.2-1.5-.4-1.4-.4-2.2 0 .4.2-.2.1.7-.7 0-2.4-.6-2.6-1.1 0-1.3 0-1.5-.1-2.7 0-1.1-.3-2 .2-3.2.5-1 1.3-.4 1.9-.8-.2.4.1.7.6.7"/>
 <path fill="#171616" d="m5.7 36.2c-.9.2-1.5-.2-1.8-.5 0-.2 0 .1 0-.2.1-.3.7-.7 1-.9.7-.4 2-.8 1.8-1.8-.4-1.1-1.6-3.9-2.6-5.9.6.1 2.3-.3 2.9-1 .6.5 1.4 1.5 1.4 3.3.1 1.1 0 2.5.1 3.4 0 .4.5.8.6 1.5 0 .3-.5.6-1.2.9-.7.5-1.9 1.2-2.2 1.2"/>
 <g fill="#a89f2a">
  <path d="m4.9 34.8c.5.2 1.1.3 1.6 0 .5-.2 1.3-1 1.4-1.3-.3 0-.8.2-1 .1-.2-.1-.2-.1-.2-.3-.6.9-2.3 1.4-1.8 1.5"/>
  <path d="m4.2 26.9c0 0 1.4.1 2.8-1 .4.3.8.7 1 1.4-.7.9-2.9 1.4-3.2 1.1 0-.3-.6-1.5-.6-1.5"/>
 </g>
 <path fill="#171616" d="m12.4 36.4c-.7.7-2.4.7-2.8.2-.6-.6.6-1.1 1.3-1.9.6-.7 1-1.3.9-1.6-.1-.7-.9-1.9-1.5-3-.6-1.4-.9-1.3-1.7-3.5.4.5 2.5-.2 3-.7.8.9 1.3 1.9 1.5 3.2.2.9.3 2.3.3 3.9 0 .4.3.3.4 1.2-.2.8-.8 1.2-1.4 2.2"/>
 <g fill="#eae40f">
  <path d="m10.9 35.6c1.3.1 2.1-1.6 2.1-1.9-.2.2-.7.2-.9.1s-.4-.1-.4-.3c-.1.7-1.5 2-.8 2.1"/>
  <path d="m8.6 26.6c0 0 .4.6 2.9-.7.3.3.7.9 1 1.5-.8.9-3 1.3-3.3.8 0-.3-.6-1.6-.6-1.6"/>
 </g>
 <path fill="#603a17" d="m2.6 4.2c0-.4 0-.4.1-.9 0-.3-.2-.2-.1-.4.1 0 .2-.1.6.1.3.2.1.6 0 .8-.1.7.2.9.5.9-.2.1-.4.1-.6 0 0-.3.1-.4.2-.8.1-.3.1-.3.1-.4 0-.1 0-.1-.2-.1-.5 0-.4.2-.5.6s.2 1.2.5 1.6 0 .7.5.8c.5.1 1.2-.1 1.5-.5.2-.2.5-.5.6-.8.2-.4-.4-.6.1-1.3-.1-.3-.3-.5-.6-.5-.2 0-.9.2-1 .1-.3 0-.7-.3-.3-.4.2-.1.6-.1.9-.1l.6.1c0 0 .1-.3.1-.4 0-.1.3-.5.2-.5-.2 0-.4.4-.4.3 0-.1.3-.6.2-.6-.2-.2-.6.5-.8.5.1-.2-.1-.7-.2-.6-.1.1-.3.7-.5.7 0-.1.1-.7.1-.8-.2.2-.7.7-1 .7 0-.1.2-.5.2-.7-.5 0-.5.8-1 .7.2-.6.2-1.5.7-1.9s1.1-.5 1.7-.3c.6 0 1.5.3 1.8.9.5 0 .6 1.5.5 2.3 0 .6-.4 1.2-.7 1.3-.2-.1.1-.6.2-.9.1-.6 0-1.2-.6-.5-.1.1 0 .6 0 .7-.2.1-.1 1.1-.2 1.2-.1.3-.2.8-.5 1-.5.5-1.5.8-1.9.3-.2-.2-.7-1.6-.8-2.2"/>
 <path fill="#1e1e1e" d="m12.9 13.6c.3-.1-1.8.8-2.1.5-.3-1.3-.4-2.7-.8-3.5-2.4-1-1.8-4.9-2.6-5.1-.2 1-2.4 2.5-2.5.8-.5.8-.3 3.2-.7 3.7.2 1.3 1 2.8 1.3 4.1 0 .2 1.9.6 2 .8 0 .2-1.6.4-1.5.6 0 .2 1 .2 1 .4 0 .2-.8.3-.7.5 0 .1 3.1.1 4.4.6.3 1.4-.1 2.2.1 3.2.4-.2 1.7-.4 2.1-.7.7-2.3.2-5 0-5.9"/>
 <path fill="#e8af7c" d="m12.8 13.6c.1.4 0 0 .1.4-.8 2.3-1.5 3.1-1.9 4-1.1.6-1.9 1.8-1.9 2.6 0 .2.7-.5.7-.4-.3 1.1-2.3 1.5-.2 1.9 1.1-.1 2-1.7 2.5-3.6 1-1.2 2.1-2.1 2.6-4 .3-1.3-.1-1.2-.3-2-.5.7-1.4 1.3-1.6 1.1"/>
 <g fill="#020202">
  <path d="m9.1 20.6c.2.1.8-.6.7-.4-.1.6-1.3 1.1-1.1 1.5.1.3.3.3 1 .4 1.3-.2 2.1-1.9 2.5-3.6-.4 0-1.2-.5-1.2-.5-.9.4-2 1.6-1.9 2.6"/>
  <path d="m.5 19.6c.2.1.7-.7.7-.4-.1.6-1.2 1.2-1.1 1.5.1.3.3.3 1 .4 1.3-.2 2-2 2.3-3.4-.4-.1-1.2-.5-1.2-.5-.8.3-1.8 1.4-1.7 2.4"/>
 </g>
</svg>
