<svg xmlns="http://www.w3.org/2000/svg" viewBox="0 0 15 37" enable-background="new 0 0 15 37">
 <path fill="#e8af7c" d="m3.8 7c-.9.9-.6 2.6-.5 3.6.2 2.2.7 2.4.9 3.3-1 1-1.4 2.2-2 3.7-.3.1-1.9.8-1.9 1.4 0 .2.5 0 .4.2-.5.6-.6 1.4 0 1.7.6-.3 1.1-1.3 2.4-2.4.6-.7 2.6-2.4 3.3-3.9.3-1.2-.1-2.7-.3-4 .2 1.2.7 4.7.8 5.8.1.9-3.9 8.5-3.2 10.9.3 1.1 2.8 5.1 2.7 5.9-.1.5 1.2.6 1.3 0 .4-1.7.5-4.4-.8-6.1 1.1-1.7 2.4-4.7 2.4-6.1-.1-.9-.6 2.1-.7 4.8 0 1.5 2.7 4.1 3.2 7.3.1-.4.4.2.5-.2.3-2.7.5-6.2-.8-7.5 1.1-1.9 3.2-4.8 2.2-8.9.5-1.5 1.5-3.6 1.4-4-.6-2-.8-2.5-1.5-4.2-.3-.6-.1-.8-.9-2-.4-.4-2.4-1.3-3-1.6-.8-.4-.9-.4-1-.8.4-.7.1-.9.1-1.4-.1-.4-.4-2.4-2.7-2.4-1.1 0-2.1 1.4-2.1 2.7 0 .2.4.6.3.8 0 .2-.2.5-.1.8.1.9.4 1.4.8 1.7.1.2 1.2-.9 1-1.3.2.3-2.1 2.1-2.2 2.2"/>
 <path fill="#8b5f3d" d="m8.6 3.7c-.5.4-1.9.2-2.1.4.8 3.2 4.6 3.5 4.4 5.2-2.8 6.2-3.5 12.5-3.4 12.6 0 1.4-.2 2.7 1 4.3 1.7 3.5 3.7 1 2.9 4.6-.7 2.1 1.3.4 1-.2-.1-.8-.2-3.6-.8-4.9-1.1-1-2.1-7.6-2-8.4.1-2.4 1.6-3.2 1.8-4.4-.2 1.3-.9.9-.6 2.2.5 1.9-.7.2.2 1.4.4 1.9 1.9 1.1.8.5-.4-.9 2.6 2 1.8-.3-.2-.6 1-2.4 1.3-4.2-.2-.7-2.2-5.5-3.3-6-2.3-1.2-3.2-2.7-3-2.8"/>
 <path fill="#191919" d="m8.4 25.9c0-.7.7-.3.7-.5-.3.9-.6 1.4-.6 1.4s-3.6.7-4.8-1c.8-4.1 2.4-6.8 3.2-9.3 1.6.3 4.9-.1 6.5-.5 1.6 3.8-.7 6.9-.7 9.6-.7.4-3.1.9-4.3.3"/>
 <g fill="#131313">
  <path d="m13.9 18.7c.3 1.4-5.4 2.6-7.9 1"/>
  <path d="m13.9 18.8c0 .7-.2 1.8-2 2.9-.6.3-1.3 2.6-1.5 3.4-.1.2-.2 1.1-.2 1.1s-.7 0-1.3-.1c.2-.6 1-3.3 1-3.5-.9 0-1.8-.2-1.8-1.1 0-.6 2.3.1 3.7-2 .2-.8 2.1-1.7 2.1-.7"/>
 </g>
 <path fill="#2d2e2d" d="m5.6 5.4c.6-.5 3.7-.8 3.4-1.1 1.4.7 2.4 1.1 3.3 1.7.9.5 1.1 1.9 1.3 2.4.4.9.7 1.8 1 2.6-.1.4-.8 1-1.3 1.1.6 2.6.9 5.1.9 6.6-.2.6-2.5 1.6-4.4 1.6-1.3-.1-2.9-.1-4-1 .1-1.1.1-2.1.2-3.7.1-.2.5-.7.5-1 0-.4.1-.9-.1-1.2 0 .1-2.4.3-3-.1.1-.9-.7-4.2 0-5.7.3-.8 1.5-1.4 2.2-2.2"/>
 <path fill="#1e1e1e" d="m9 4.3c3 2 2.7 2.9 2.6 3.6-.2.4-.6.8-1.3.3-.6-.6-1-.4-1.2 0-.6 4-2 2.5-2.7 2 .2 1.3.5 1.7.3 3 0 .2-.2 1.3-.1 1.5 0 .2-.7.6-.6.8 0 .2.9-.1.9.1s-.7.4-.6.6c0 0 .6.6 1.3-.5.4-.5.2-3.1.6-3.7.3-.4 1-2.3 1.5-2.3 1.5.1 2.2.9 2.7 1.1.4.5.4 1.9.8 2.4.2.3.2.5.5.6-.2-.7-.3-1.2-.4-1.7.5-.2 1.1-.5 1.3-1.1-.8-1.7-1.4-4.5-2.1-4.9-2.5-1.4-2.6-1.3-3.5-1.8"/>
 <g fill="#171616">
  <path d="m4.7 35.6c-1.5-.7-.7-1.7-.3-1.9.6-.2 1.3 0 1.8.1-.3-1.4-1.2-3.7-2.2-5.7.6.1 2.4 0 3-.7.5.6 1.1 1.8 1.1 3.6.1 1.1-.1 2.2.1 3.3 0 .4.5 1.1.6 1.8 0 .3-.2.9-1.2 1-.6-.2-1.3-1-2.9-1.5"/>
  <path d="m10.1 34.1c-1.4-.7-.9-1.5-.4-1.7.7-.1 1.1 0 1.6.1-.4-1.1-1.3-3.5-2.3-5.5.6.1 2.2-.3 2.8-1 .7.9 1.1 1.8 1.3 3.3.1 1.1 0 2.9.1 3.8 0 .4.4.6.5 1.3 0 .3.2.7-.8.8-.9 0-.9-.5-2.8-1.1"/>
 </g>
 <g fill="#a89f2a">
  <path d="m10 32.6c-.2.1-.2.6.4.8.6.2.8.3 1.1.2-.2-.2-.3-.9-.1-1-.9-.1-1.2-.1-1.4 0"/>
  <path d="m9 27c0 0 1.4.2 2.8-1 .4.4.5.8.9 1.5-.7.9-2.7 1.3-3 1-.2-.5-.7-1.5-.7-1.5"/>
 </g>
 <g fill="#eae40f">
  <path d="m4.7 33.8c-.6.9 1.1 1.2 1.4 1.2-.2-.2-.1-1.3.1-1.2-.7-.2-1.3-.3-1.5 0"/>
  <path d="m4 28.1c0 0 2 .2 3-.7.3.3.6.9.8 1.6-.4.8-2.7 1.2-3 .8-.2-.4-.8-1.7-.8-1.7"/>
 </g>
 <path fill="#020202" d="m.1 19.4c.2.1.4 0 .6-.4-.5.3-.9 1.1-.5 1.8.2.4.5.5 1.1.4.3-.2.2-.6.5-1.2.3-.5 1.1-.5 1.4-1.5-.4-.1-1-.9-1-.9-.7.3-2.2.8-2.1 1.8"/>
 <path fill="#603a17" d="m4.5 3.9c.1-.2.1-.6.1-.6s-.3-1-.8-1.1c.3-.6.5-1.3 1-1.7s1.6-.6 2.3-.5c.6.2 1 .1 1.6.8.4.3 1.2 2 .1 3.2-.4-.2-1-.3-2.5.8 0-.1-.5-.5-.3-1 .1-.6 0-1.2-.6-.5-.2.1-.2.4-.3.5-.1.2-.6.5-.6.1"/>
</svg>
