<svg xmlns="http://www.w3.org/2000/svg" viewBox="0 0 12 30" enable-background="new 0 0 12 30">
 <path fill="#ec2227" d="m10 0h2v30h-2z"/>
 <path fill="#f37c94" d="m11.6.3v13 5.1l-.6-18.1z"/>
 <path fill="#981c22" d="m10.4 0h-.4c0 0 0 26.8 0 27.9 0 1.1 1.5 1.9 2 1.7 0-.3 0-3.8 0-3.8-2.2-1-1.6-25.8-1.6-25.8"/>
 <path fill="#ec2227" d="m5 0h2v30h-2z"/>
 <path fill="#f37c94" d="m6.6.3v13 5.1l-.6-18.1z"/>
 <path fill="#981c22" d="M5.4,0L5,0c0,0,0,26.8,0,27.9c0,1.1,1.5,1.9,2,1.7c0-0.3,0-3.8,0-3.8C4.8,24.8,5.4,0,5.4,0z"/>
 <path fill="#ec2227" d="m0 0h2v30h-2z"/>
 <path fill="#f37c94" d="m1.6.3v13 5.1l-.6-18.1z"/>
 <path fill="#981c22" d="m.4 0h-.4c0 0 0 26.8 0 27.9 0 1.1 1.5 1.9 2 1.7 0-.3 0-3.8 0-3.8-2.2-1-1.6-25.8-1.6-25.8"/>
</svg>
