<?xml version="1.0" encoding="UTF-8" ?>
<!DOCTYPE svg PUBLIC "-//W3C//DTD SVG 1.1//EN" "http://www.w3.org/Graphics/SVG/1.1/DTD/svg11.dtd">
<svg width="1000pt" height="1000pt" viewBox="0 0 1000 1000" version="1.1" xmlns="http://www.w3.org/2000/svg">
	<g id="#020202ff">
		<path fill="#020202" opacity="1.00"
			d=" M 481.49 66.58 C 492.07 56.39 506.42 50.75 520.89 49.17 C 540.60 47.03 561.42 52.41 576.65 65.36 C 586.73 73.78 594.03 85.90 595.30 99.11 C 596.43 112.12 593.39 125.55 586.25 136.55 C 588.22 137.93 590.07 139.64 592.40 140.42 C 596.39 140.72 600.49 140.46 604.37 141.72 C 610.55 143.65 616.63 146.02 623.05 147.09 C 644.50 150.92 666.38 150.60 688.02 152.55 C 707.54 154.73 727.59 161.05 741.90 175.09 C 752.39 185.23 758.56 198.64 766.19 210.86 C 769.80 217.25 776.74 220.30 782.01 225.05 C 792.54 233.70 800.42 244.98 807.75 256.33 C 813.04 264.58 817.19 273.47 822.12 281.93 C 827.46 291.23 835.09 298.88 842.49 306.53 C 844.99 309.21 847.95 311.38 851.07 313.29 C 850.48 317.78 848.79 322.03 846.58 325.97 C 853.17 335.01 856.32 346.02 858.05 356.94 C 860.93 376.85 858.41 397.28 852.64 416.46 C 846.31 440.46 834.23 462.67 829.66 487.18 C 827.77 497.48 824.10 507.49 823.76 518.05 C 822.80 535.49 827.76 552.59 827.06 570.02 C 826.88 574.59 825.87 579.08 824.57 583.45 C 821.94 591.55 824.40 600.56 820.56 608.39 C 816.25 617.41 809.56 626.28 799.90 629.89 C 794.70 631.30 788.78 632.48 783.78 629.87 C 778.86 632.15 775.88 637.23 770.97 639.32 C 767.36 638.23 767.21 633.90 766.38 630.87 C 765.13 628.84 763.32 626.65 763.94 624.10 C 765.24 618.03 768.22 612.08 773.43 608.48 C 776.56 606.52 779.44 603.96 779.47 599.94 C 773.62 594.08 770.79 586.11 768.09 578.48 C 765.15 586.52 760.90 594.00 755.96 600.98 C 753.68 604.97 749.85 609.06 751.03 614.02 C 754.03 630.76 762.94 645.52 768.36 661.48 C 774.71 678.51 777.15 696.82 776.39 714.95 C 774.75 748.29 772.68 781.63 771.58 815.00 C 771.98 839.87 771.72 864.85 774.96 889.56 C 777.02 890.86 779.50 892.25 779.82 894.96 C 781.55 904.72 783.22 914.82 788.63 923.35 C 792.17 929.21 797.07 935.61 795.05 942.90 C 792.42 952.35 784.80 959.84 776.27 964.26 C 765.11 968.76 752.84 968.98 740.97 969.15 C 731.99 969.13 722.51 967.38 715.26 961.78 C 711.02 958.62 709.42 953.12 709.70 948.03 C 709.56 938.62 714.94 930.28 715.41 920.96 C 716.03 913.28 714.34 905.70 714.06 898.05 C 714.23 889.03 713.31 880.04 713.16 871.02 C 712.37 854.97 712.24 838.90 711.45 822.85 C 710.48 804.95 703.77 788.16 698.91 771.10 C 694.87 756.99 689.96 743.14 686.44 728.88 C 683.74 718.48 684.54 707.66 683.78 697.04 C 682.78 679.19 684.38 660.56 677.25 643.70 C 673.36 635.05 671.14 625.75 666.77 617.30 C 659.36 599.28 657.91 579.35 659.53 560.09 C 642.15 571.48 625.55 584.04 607.78 594.83 C 586.54 608.16 563.46 618.41 542.97 632.98 C 539.83 635.46 535.77 635.86 531.93 635.43 C 530.31 631.81 528.74 628.18 527.16 624.55 C 516.65 629.16 507.12 635.63 496.94 640.88 C 480.85 649.22 464.67 657.53 449.63 667.69 C 437.95 675.48 427.82 685.76 421.29 698.26 C 412.29 715.75 403.23 733.23 393.02 750.05 C 385.92 761.61 378.31 773.00 368.60 782.56 C 361.84 789.64 353.50 794.86 345.89 800.93 C 322.62 818.59 303.51 841.22 287.87 865.77 C 286.71 867.86 287.47 870.33 287.82 872.55 C 289.59 880.44 291.09 888.63 289.68 896.71 C 288.71 902.02 285.78 906.66 283.12 911.26 C 280.87 915.13 277.71 918.62 273.57 920.49 C 264.04 924.89 253.34 925.19 243.05 925.77 C 229.41 926.40 216.50 931.30 203.11 933.47 C 192.13 935.18 180.55 936.56 169.75 933.16 C 165.08 931.37 159.77 929.22 157.53 924.39 C 154.90 919.76 155.29 913.75 158.35 909.43 C 164.32 900.60 171.77 892.53 181.00 887.06 C 194.42 879.01 208.34 871.59 220.55 861.72 C 226.15 857.23 231.62 852.59 237.38 848.31 C 239.42 846.71 241.90 845.89 244.36 845.19 C 253.14 830.92 260.69 815.93 267.74 800.74 C 279.84 774.56 288.91 746.85 304.29 722.29 C 312.47 709.77 322.55 698.65 332.89 687.91 C 339.95 680.32 346.86 672.58 353.89 664.97 C 362.17 655.84 370.38 646.40 380.67 639.44 C 385.12 624.91 395.42 613.32 404.45 601.45 C 417.03 585.63 429.64 569.79 440.57 552.76 C 440.68 550.69 440.71 548.56 441.61 546.65 C 448.38 531.71 458.99 519.00 469.87 506.90 C 479.73 496.02 490.47 485.73 503.04 478.03 C 505.89 476.37 508.28 474.09 510.32 471.52 C 507.83 465.46 504.75 459.63 502.76 453.37 C 495.46 430.59 494.79 406.35 496.34 382.67 C 494.70 381.37 492.83 380.27 491.58 378.58 C 489.90 374.99 489.66 370.94 489.41 367.05 C 488.79 352.65 489.18 338.14 486.73 323.89 C 483.17 304.21 472.44 286.23 471.81 265.97 C 471.29 248.42 475.34 230.22 485.84 215.88 C 489.29 210.83 494.02 206.88 498.73 203.06 C 495.54 197.28 492.30 191.51 489.42 185.57 C 488.29 183.47 487.32 181.17 485.51 179.55 C 480.53 178.45 474.80 180.64 470.20 177.74 C 468.06 175.44 468.83 171.90 468.80 169.04 C 469.87 158.08 469.93 146.98 468.07 136.10 C 466.23 125.55 464.90 114.83 465.62 104.10 C 465.83 100.89 466.70 97.77 467.75 94.75 C 466.75 92.12 465.57 89.24 466.65 86.44 C 469.40 78.45 475.50 72.28 481.49 66.58 M 477.32 91.49 C 476.31 95.02 477.75 98.61 478.23 102.10 C 475.62 101.23 473.21 99.88 470.97 98.31 C 470.09 106.37 470.87 114.47 471.48 122.53 C 474.53 120.11 477.75 117.15 481.94 117.35 C 492.05 117.47 502.04 119.70 511.68 122.61 C 505.06 129.16 497.30 134.43 489.61 139.64 C 488.14 140.38 486.69 141.91 484.93 141.41 C 483.16 139.21 482.38 136.45 481.35 133.88 C 478.34 132.40 475.36 130.84 472.36 129.34 C 473.31 133.55 474.76 137.67 474.99 142.02 C 475.86 151.38 474.29 160.71 473.77 170.04 C 473.61 172.12 474.04 174.17 474.47 176.20 C 478.84 176.27 483.53 175.48 487.67 177.23 C 491.46 180.09 492.92 184.90 495.18 188.91 C 499.86 197.52 504.07 206.60 510.92 213.77 C 517.12 211.78 523.17 209.22 528.67 205.70 C 535.58 201.46 541.34 195.68 547.27 190.21 C 548.73 188.70 550.70 187.96 552.67 187.37 C 551.78 191.12 548.90 193.75 546.38 196.45 C 546.33 201.30 546.18 206.33 548.00 210.93 C 550.32 216.81 554.50 221.67 558.58 226.41 C 564.86 233.46 571.38 240.30 577.16 247.79 C 582.05 229.57 591.62 213.14 600.89 196.87 C 605.23 189.34 608.22 180.73 607.66 171.93 C 607.38 164.37 603.66 157.49 599.44 151.41 C 595.57 146.34 588.41 145.41 584.50 140.47 C 582.36 137.83 584.66 134.65 585.67 132.08 C 580.10 138.45 573.72 144.34 565.99 147.95 C 561.57 150.07 556.66 150.62 551.96 151.77 C 548.33 152.62 544.86 154.10 541.17 154.68 C 542.98 149.66 547.94 146.97 550.73 142.61 C 555.05 136.45 555.31 128.50 554.71 121.27 C 553.54 116.55 551.55 111.48 547.37 108.65 C 544.41 106.59 540.14 107.00 537.62 109.58 C 533.31 113.84 532.06 120.09 530.98 125.82 C 527.07 126.73 523.05 126.98 519.06 126.91 C 516.44 117.18 514.64 107.02 509.08 98.40 C 505.52 103.38 498.83 105.07 493.09 103.56 C 491.87 103.13 490.13 102.61 490.54 100.95 C 490.91 94.98 488.37 88.74 483.17 85.53 C 480.09 85.91 478.34 88.88 477.32 91.49 M 585.98 130.46 C 584.39 133.41 589.32 130.64 585.98 130.46 M 600.41 145.66 C 606.80 150.70 611.13 158.12 612.94 166.01 C 615.36 177.72 611.96 189.86 606.04 200.00 C 596.80 215.87 587.61 231.87 580.91 249.02 C 580.09 251.10 579.07 253.10 577.98 255.05 C 573.46 247.41 566.20 242.14 560.46 235.52 C 555.23 229.68 549.88 223.76 546.33 216.70 C 543.71 211.58 543.26 205.75 542.56 200.14 C 536.78 205.70 530.48 210.96 522.89 213.82 C 518.54 215.42 513.90 217.69 509.18 216.78 C 505.42 214.32 503.29 210.14 500.76 206.56 C 492.26 213.07 486.18 222.30 482.06 232.09 C 475.44 249.14 474.50 268.51 480.11 285.98 C 483.59 297.19 487.94 308.14 490.48 319.63 C 494.39 338.38 492.43 357.65 494.22 376.59 C 500.77 380.54 508.17 383.54 515.94 383.33 C 521.01 383.01 525.18 379.78 529.44 377.34 C 526.20 366.63 524.27 355.58 520.94 344.90 C 515.81 328.63 510.14 312.50 503.13 296.94 C 502.36 295.16 501.87 293.29 501.48 291.41 C 505.51 293.60 507.19 298.03 509.13 301.90 C 514.36 312.53 518.18 323.76 522.28 334.85 C 527.17 348.45 529.57 362.73 533.60 376.58 C 536.52 387.58 537.17 399.33 542.28 409.67 C 545.27 416.10 552.23 419.57 558.95 420.64 C 576.89 423.33 594.94 419.48 612.94 420.69 C 617.54 421.19 623.16 420.14 626.68 423.87 C 620.19 425.26 613.49 424.50 606.92 425.19 C 592.32 426.52 577.62 428.49 562.95 426.87 C 558.70 426.47 554.56 425.33 550.54 423.92 C 550.95 426.41 551.33 428.92 551.59 431.44 C 560.29 429.95 569.13 429.79 577.94 429.84 C 604.94 430.05 631.95 429.45 658.96 429.46 C 679.36 429.33 699.88 429.39 720.05 425.85 C 724.70 425.13 729.31 423.79 734.08 424.18 C 731.26 427.41 726.89 428.08 722.94 428.97 C 706.85 432.21 690.45 433.82 674.04 433.84 C 641.35 434.36 608.65 434.37 575.96 433.84 C 568.29 433.79 560.60 433.93 552.96 434.67 C 549.49 434.88 547.09 437.82 543.82 438.67 C 539.27 440.00 534.43 440.79 530.42 443.49 C 526.86 445.51 524.64 449.03 522.42 452.34 C 533.13 449.88 544.11 451.79 554.58 454.42 C 568.15 457.88 581.91 460.47 595.54 463.68 C 612.69 467.54 630.49 468.98 647.96 466.55 C 671.31 463.18 693.93 456.22 717.10 451.92 C 740.80 446.88 765.19 445.16 789.37 446.67 C 789.45 432.77 789.65 418.86 790.60 404.99 C 789.31 396.10 786.24 387.02 780.01 380.33 C 778.21 394.79 769.34 408.66 755.96 414.92 C 753.75 416.10 751.25 416.45 748.79 416.41 C 752.77 413.12 757.53 410.88 761.29 407.29 C 769.05 399.89 773.47 389.67 775.26 379.22 C 771.69 377.50 769.18 374.43 767.47 370.93 C 763.48 378.39 757.90 385.03 751.05 390.02 C 735.11 401.09 716.21 407.73 696.88 409.38 C 679.57 410.99 662.20 408.48 645.29 404.85 C 626.03 400.87 606.65 397.15 587.85 391.29 C 584.53 390.14 580.69 389.41 578.55 386.32 C 584.84 386.51 590.72 388.97 596.79 390.34 C 612.70 394.44 628.88 397.37 645.01 400.45 C 663.69 404.18 682.99 406.79 701.98 403.80 C 719.55 401.00 737.19 394.73 750.53 382.59 C 756.25 377.53 759.67 370.57 763.63 364.18 C 751.66 344.71 733.15 330.74 717.13 314.85 C 706.80 304.37 691.96 301.14 679.15 294.84 C 669.68 290.49 661.34 284.13 653.20 277.70 C 649.76 274.78 645.72 271.94 644.48 267.34 C 649.41 269.51 653.16 273.49 657.58 276.46 C 672.01 287.18 689.09 293.24 705.12 301.04 C 701.24 295.13 697.00 289.42 693.90 283.04 C 687.03 269.21 680.69 254.65 679.56 239.05 C 679.39 234.38 678.07 229.49 679.78 224.97 C 682.06 225.14 681.74 227.87 682.24 229.47 C 685.23 256.78 696.57 282.96 713.62 304.41 C 731.14 323.81 753.85 338.64 767.74 361.22 C 770.41 365.37 772.52 369.89 775.63 373.77 C 778.95 368.83 782.54 363.86 787.78 360.79 C 802.74 351.48 819.16 344.25 832.47 332.48 C 838.00 327.51 844.07 322.63 846.97 315.55 C 839.31 310.95 833.49 304.01 827.49 297.53 C 820.69 290.23 815.97 281.39 811.34 272.63 C 805.00 260.47 797.55 248.83 788.53 238.47 C 776.71 225.52 761.38 216.55 746.56 207.50 C 743.54 205.78 740.26 204.39 737.73 201.93 C 738.30 201.73 739.44 201.34 740.01 201.14 C 747.24 203.16 753.90 206.91 760.58 210.29 C 752.43 197.50 744.98 183.56 732.54 174.34 C 718.86 164.04 701.75 159.75 684.98 157.99 C 663.97 156.30 642.74 156.43 621.99 152.37 C 614.55 150.97 607.55 148.04 600.41 145.66 M 799.26 360.68 C 796.84 384.08 794.31 407.52 794.20 431.08 C 794.27 459.52 792.93 488.18 786.86 516.05 C 784.98 526.10 778.33 534.29 774.91 543.78 C 772.66 550.34 769.30 556.90 769.95 564.04 C 770.34 574.76 775.33 584.48 779.52 594.12 C 779.81 584.10 778.64 573.80 781.39 564.04 C 783.30 567.00 782.89 570.65 783.08 574.02 C 783.05 581.04 783.48 588.04 783.68 595.06 C 783.64 600.04 784.28 606.27 779.67 609.57 C 774.31 613.75 768.22 618.77 767.66 626.06 C 769.96 623.20 772.29 620.24 775.59 618.48 C 779.92 615.75 785.39 614.83 789.05 611.07 C 792.37 606.37 793.46 600.56 795.31 595.20 C 796.86 590.83 797.56 585.78 801.23 582.55 C 801.25 589.10 798.98 595.35 797.43 601.63 C 795.76 607.19 794.29 613.66 789.00 616.95 C 782.92 620.87 775.46 622.82 770.69 628.60 C 770.96 630.66 771.26 632.73 771.54 634.80 C 774.51 630.38 778.58 626.79 783.36 624.42 C 789.98 621.13 796.64 617.07 800.73 610.72 C 804.48 604.38 806.49 597.22 808.43 590.17 C 808.89 589.04 808.94 587.11 810.65 587.44 C 811.21 592.26 810.04 597.06 808.82 601.70 C 807.21 607.51 805.11 613.45 800.92 617.96 C 797.38 622.04 792.82 624.99 788.22 627.74 C 793.40 626.40 798.98 625.61 803.42 622.39 C 808.80 618.43 813.02 612.98 816.14 607.11 C 820.09 599.52 817.33 590.65 819.87 582.72 C 822.18 575.42 822.90 567.68 822.28 560.07 C 821.05 546.72 819.10 533.40 819.10 519.97 C 819.04 508.31 823.27 497.30 825.37 485.97 C 829.28 465.02 838.66 445.71 845.35 425.61 C 849.84 411.09 853.95 396.28 854.50 381.01 C 855.73 363.25 852.90 344.74 843.73 329.25 C 831.45 342.97 814.90 351.48 799.26 360.68 M 780.07 374.28 C 786.58 378.32 789.65 385.62 791.94 392.59 C 792.61 382.67 794.09 372.82 795.21 362.95 C 789.69 366.03 784.25 369.45 780.07 374.28 M 521.71 387.80 C 514.46 390.24 506.71 387.79 500.00 384.84 C 500.55 398.29 499.99 411.83 501.93 425.19 C 502.78 431.16 503.85 437.10 505.23 442.98 C 507.12 451.06 510.22 458.78 512.36 466.79 C 515.33 460.64 516.87 453.93 519.82 447.78 C 522.50 441.99 528.10 438.24 533.94 436.14 C 537.62 434.79 541.64 434.60 545.24 433.03 C 546.95 432.44 546.41 430.43 546.50 429.06 C 546.18 425.51 545.69 421.59 543.10 418.91 C 533.77 408.66 533.24 394.06 530.48 381.17 C 527.96 383.84 525.34 386.70 521.71 387.80 M 733.01 454.14 C 713.86 457.24 695.00 461.86 676.18 466.51 C 658.41 470.53 640.28 473.96 621.98 472.71 C 606.42 471.81 591.33 467.71 576.17 464.44 C 563.40 462.05 550.95 458.05 538.02 456.57 C 532.73 455.83 527.45 456.80 522.20 457.38 C 518.73 466.06 516.02 476.38 507.43 481.47 C 497.25 487.60 488.12 495.34 479.90 503.91 C 466.31 517.94 453.67 533.02 443.34 549.64 C 455.93 550.90 467.88 555.86 478.54 562.52 C 492.31 571.32 504.35 582.70 514.37 595.59 C 522.75 606.54 530.25 618.55 534.00 631.93 C 538.84 630.75 542.52 627.29 546.63 624.70 C 566.25 611.91 587.48 601.85 607.19 589.21 C 622.66 579.83 637.27 569.12 652.66 559.61 C 655.29 558.15 657.84 556.25 660.89 555.79 C 662.15 556.77 662.96 558.23 662.78 559.88 C 662.96 572.44 662.88 585.11 665.32 597.49 C 664.64 577.09 670.36 556.78 679.80 538.81 C 685.69 529.39 692.17 519.74 701.67 513.62 C 711.57 507.33 724.15 507.09 735.25 509.82 C 750.20 513.82 764.44 522.86 772.20 536.55 C 774.86 530.60 778.47 525.09 780.87 519.02 C 786.67 496.54 788.28 473.25 789.24 450.13 C 770.47 450.86 751.64 451.49 733.01 454.14 M 703.04 518.10 C 693.41 525.20 685.56 534.83 680.79 545.83 C 675.49 557.96 671.51 570.76 670.13 583.96 C 668.50 599.63 672.22 615.24 676.99 630.07 C 680.57 641.12 686.87 651.40 688.02 663.13 C 697.23 665.27 706.80 665.25 716.15 664.11 C 731.00 662.23 745.85 657.59 757.86 648.42 C 754.29 640.01 750.76 631.55 748.21 622.77 C 745.17 610.50 748.06 597.97 749.73 585.74 C 750.31 582.10 750.79 578.25 753.28 575.35 C 753.65 583.23 751.76 591.03 751.32 598.90 C 756.84 591.25 761.94 583.23 765.50 574.46 C 767.15 570.85 765.85 566.82 765.99 563.03 C 765.44 555.86 767.94 549.00 769.99 542.26 C 763.47 530.28 751.94 521.42 739.28 516.69 C 727.70 512.61 713.91 511.49 703.04 518.10 M 444.84 553.95 C 438.68 564.24 432.28 574.41 424.76 583.78 C 413.81 598.48 401.65 612.30 391.61 627.67 C 385.56 636.64 383.95 647.54 381.48 657.84 C 380.51 661.53 380.16 665.56 377.97 668.79 C 377.51 668.75 376.58 668.67 376.12 668.63 C 375.09 661.14 378.16 653.73 379.04 646.31 C 372.41 652.63 366.26 659.43 360.30 666.38 C 362.30 669.72 364.66 672.85 367.50 675.54 C 376.36 684.11 387.03 690.76 398.48 695.32 C 403.63 697.39 409.15 698.49 414.71 698.47 C 419.88 689.37 425.78 680.61 433.16 673.15 C 440.98 665.70 449.93 659.57 459.22 654.11 C 470.74 647.12 482.56 640.62 494.70 634.75 C 504.73 629.73 514.33 623.88 524.36 618.84 C 514.43 600.56 500.10 584.88 483.46 572.49 C 471.83 564.13 459.06 556.73 444.84 553.95 M 732.21 666.41 C 718.12 670.51 702.93 672.15 688.54 668.70 C 689.32 683.11 689.56 697.55 690.33 711.97 C 690.50 727.53 696.79 742.03 701.23 756.69 C 705.62 770.62 710.35 784.44 714.38 798.47 C 718.25 811.95 718.83 826.07 718.84 840.01 C 719.34 858.18 719.68 876.36 719.45 894.54 C 720.84 894.27 722.23 893.94 723.60 893.55 C 726.67 889.77 727.62 884.85 729.63 880.53 C 731.88 875.39 735.90 869.86 741.98 869.41 C 747.76 869.28 753.67 870.46 758.81 873.17 C 765.03 876.50 766.42 884.08 771.22 888.79 C 768.28 875.41 767.71 861.68 767.19 848.04 C 766.91 832.03 766.15 816.00 767.19 800.00 C 768.10 781.60 768.93 763.20 769.97 744.81 C 770.83 728.26 772.48 711.64 771.03 695.08 C 769.76 680.44 765.21 666.34 759.72 652.80 C 751.70 659.32 742.01 663.39 732.21 666.41 M 349.11 678.99 C 335.62 694.52 320.25 708.57 309.15 726.03 C 300.72 739.88 294.11 754.74 287.80 769.64 C 279.91 788.67 271.66 807.59 261.65 825.61 C 257.62 832.78 253.96 840.25 248.70 846.64 C 253.39 848.32 258.13 850.00 262.52 852.38 C 265.96 854.31 269.55 857.68 268.84 862.04 C 268.76 864.98 266.25 868.60 268.93 871.01 C 271.83 872.57 275.47 872.94 278.54 871.65 C 281.55 870.85 281.41 867.16 282.89 864.95 C 292.34 847.76 304.09 831.83 317.79 817.79 C 328.19 806.67 340.36 797.46 352.54 788.41 C 363.69 780.35 372.65 769.66 380.33 758.34 C 392.42 740.72 402.00 721.57 412.20 702.85 C 399.13 703.06 387.07 696.61 376.45 689.59 C 368.86 684.33 361.67 678.06 357.16 669.87 C 354.49 672.92 351.81 675.96 349.11 678.99 M 225.11 865.12 C 211.69 876.27 195.99 884.12 181.16 893.16 C 175.61 896.82 170.30 900.97 165.93 906.01 C 162.17 910.30 160.07 916.19 160.99 921.90 C 161.63 925.49 165.18 927.42 168.37 928.38 C 178.32 931.37 188.92 930.35 199.06 928.96 C 213.19 927.03 226.70 921.68 241.00 920.87 C 250.64 920.30 260.60 920.38 269.73 916.81 C 272.93 915.56 275.07 912.74 277.09 910.11 C 280.23 905.89 283.18 901.25 283.90 895.95 C 284.92 888.59 283.05 881.29 282.23 874.02 C 279.31 875.42 276.27 877.03 272.92 876.75 C 269.49 876.59 265.48 875.60 263.83 872.26 C 261.76 868.30 264.54 864.03 264.60 859.94 C 263.43 857.94 261.36 856.75 259.34 855.78 C 254.07 853.34 248.54 851.55 242.97 849.98 C 237.20 855.23 231.11 860.12 225.11 865.12 M 740.13 875.13 C 732.95 879.82 733.25 889.74 727.75 895.78 C 725.37 898.31 721.89 899.26 718.75 900.50 C 719.98 908.28 721.15 916.22 719.92 924.09 C 718.94 931.92 714.81 939.04 714.45 946.99 C 714.28 950.34 714.85 954.15 717.59 956.43 C 722.67 960.71 729.52 962.08 735.98 962.50 C 745.71 962.95 755.45 962.29 765.16 961.63 C 772.70 961.21 779.03 956.37 784.03 951.07 C 787.06 947.69 790.10 943.73 790.36 939.03 C 790.16 935.00 787.72 931.60 785.83 928.20 C 782.06 922.02 779.14 915.24 778.01 908.06 C 777.27 904.41 777.30 900.57 775.99 897.07 C 772.64 894.98 768.14 894.70 765.63 891.36 C 761.48 886.70 760.75 879.18 754.67 876.33 C 750.24 874.28 744.76 873.18 740.13 875.13 Z" />
		<path fill="#020202" opacity="1.00"
			d=" M 419.05 666.01 C 423.17 663.99 426.86 661.02 431.41 659.98 C 431.10 662.07 430.39 664.19 428.52 665.40 C 422.47 669.98 415.97 674.32 408.59 676.42 C 401.19 678.77 393.26 676.85 385.82 679.00 C 383.51 678.41 385.25 676.32 386.39 675.47 C 391.38 672.59 397.42 673.67 402.85 672.45 C 408.54 671.15 413.86 668.63 419.05 666.01 Z" />
	</g>
	<g id="#f0b58bff">
		<path fill="#f0b58b" opacity="1.00"
			d=" M 477.32 91.49 C 478.34 88.88 480.09 85.91 483.17 85.53 C 488.37 88.74 490.91 94.98 490.54 100.95 C 490.13 102.61 491.87 103.13 493.09 103.56 C 498.83 105.07 505.52 103.38 509.08 98.40 C 514.64 107.02 516.44 117.18 519.06 126.91 C 523.05 126.98 527.07 126.73 530.98 125.82 C 532.06 120.09 533.31 113.84 537.62 109.58 C 540.14 107.00 544.41 106.59 547.37 108.65 C 551.55 111.48 553.54 116.55 554.71 121.27 C 555.31 128.50 555.05 136.45 550.73 142.61 C 547.94 146.97 542.98 149.66 541.17 154.68 C 544.86 154.10 548.33 152.62 551.96 151.77 C 556.66 150.62 561.57 150.07 565.99 147.95 C 573.72 144.34 580.10 138.45 585.67 132.08 C 584.66 134.65 582.36 137.83 584.50 140.47 C 588.41 145.41 595.57 146.34 599.44 151.41 C 603.66 157.49 607.38 164.37 607.66 171.93 C 608.22 180.73 605.23 189.34 600.89 196.87 C 591.62 213.14 582.05 229.57 577.16 247.79 C 571.38 240.30 564.86 233.46 558.58 226.41 C 554.50 221.67 550.32 216.81 548.00 210.93 C 546.18 206.33 546.33 201.30 546.38 196.45 C 548.90 193.75 551.78 191.12 552.67 187.37 C 550.70 187.96 548.73 188.70 547.27 190.21 C 541.34 195.68 535.58 201.46 528.67 205.70 C 523.17 209.22 517.12 211.78 510.92 213.77 C 504.07 206.60 499.86 197.52 495.18 188.91 C 492.92 184.90 491.46 180.09 487.67 177.23 C 483.53 175.48 478.84 176.27 474.47 176.20 C 474.04 174.17 473.61 172.12 473.77 170.04 C 474.29 160.71 475.86 151.38 474.99 142.02 C 474.76 137.67 473.31 133.55 472.36 129.34 C 475.36 130.84 478.34 132.40 481.35 133.88 C 482.38 136.45 483.16 139.21 484.93 141.41 C 486.69 141.91 488.14 140.38 489.61 139.64 C 497.30 134.43 505.06 129.16 511.68 122.61 C 502.04 119.70 492.05 117.47 481.94 117.35 C 477.75 117.15 474.53 120.11 471.48 122.53 C 470.87 114.47 470.09 106.37 470.97 98.31 C 473.21 99.88 475.62 101.23 478.23 102.10 C 477.75 98.61 476.31 95.02 477.32 91.49 Z" />
		<path fill="#f0b58b" opacity="1.00"
			d=" M 799.26 360.68 C 814.90 351.48 831.45 342.97 843.73 329.25 C 852.90 344.74 855.73 363.25 854.50 381.01 C 853.95 396.28 849.84 411.09 845.35 425.61 C 838.66 445.71 829.28 465.02 825.37 485.97 C 823.27 497.30 819.04 508.31 819.10 519.97 C 819.10 533.40 821.05 546.72 822.28 560.07 C 822.90 567.68 822.18 575.42 819.87 582.72 C 817.33 590.65 820.09 599.52 816.14 607.11 C 813.02 612.98 808.80 618.43 803.42 622.39 C 798.98 625.61 793.40 626.40 788.22 627.74 C 792.82 624.99 797.38 622.04 800.92 617.96 C 805.11 613.45 807.21 607.51 808.82 601.70 C 810.04 597.06 811.21 592.26 810.65 587.44 C 808.94 587.11 808.89 589.04 808.43 590.17 C 806.49 597.22 804.48 604.38 800.73 610.72 C 796.64 617.07 789.98 621.13 783.36 624.42 C 778.58 626.79 774.51 630.38 771.54 634.80 C 771.26 632.73 770.96 630.66 770.69 628.60 C 775.46 622.82 782.92 620.87 789.00 616.95 C 794.29 613.66 795.76 607.19 797.43 601.63 C 798.98 595.35 801.25 589.10 801.23 582.55 C 797.56 585.78 796.86 590.83 795.31 595.20 C 793.46 600.56 792.37 606.37 789.05 611.07 C 785.39 614.83 779.92 615.75 775.59 618.48 C 772.29 620.24 769.96 623.20 767.66 626.06 C 768.22 618.77 774.31 613.75 779.67 609.57 C 784.28 606.27 783.64 600.04 783.68 595.06 C 783.48 588.04 783.05 581.04 783.08 574.02 C 782.89 570.65 783.30 567.00 781.39 564.04 C 778.64 573.80 779.81 584.10 779.52 594.12 C 775.33 584.48 770.34 574.76 769.95 564.04 C 769.30 556.90 772.66 550.34 774.91 543.78 C 778.33 534.29 784.98 526.10 786.86 516.05 C 792.93 488.18 794.27 459.52 794.20 431.08 C 794.31 407.52 796.84 384.08 799.26 360.68 Z" />
		<path fill="#f0b58b" opacity="1.00"
			d=" M 521.71 387.80 C 525.34 386.70 527.96 383.84 530.48 381.17 C 533.24 394.06 533.77 408.66 543.10 418.91 C 545.69 421.59 546.18 425.51 546.50 429.06 C 546.41 430.43 546.95 432.44 545.24 433.03 C 541.64 434.60 537.62 434.79 533.94 436.14 C 528.10 438.24 522.50 441.99 519.82 447.78 C 516.87 453.93 515.33 460.64 512.36 466.79 C 510.22 458.78 507.12 451.06 505.23 442.98 C 503.85 437.10 502.78 431.16 501.93 425.19 C 499.99 411.83 500.55 398.29 500.00 384.84 C 506.71 387.79 514.46 390.24 521.71 387.80 Z" />
		<path fill="#f0b58b" opacity="1.00"
			d=" M 703.04 518.10 C 713.91 511.49 727.70 512.61 739.28 516.69 C 751.94 521.42 763.47 530.28 769.99 542.26 C 767.94 549.00 765.44 555.86 765.99 563.03 C 765.85 566.82 767.15 570.85 765.50 574.46 C 761.94 583.23 756.84 591.25 751.32 598.90 C 751.76 591.03 753.65 583.23 753.28 575.35 C 750.79 578.25 750.31 582.10 749.73 585.74 C 748.06 597.97 745.17 610.50 748.21 622.77 C 750.76 631.55 754.29 640.01 757.86 648.42 C 745.85 657.59 731.00 662.23 716.15 664.11 C 706.80 665.25 697.23 665.27 688.02 663.13 C 686.87 651.40 680.57 641.12 676.99 630.07 C 672.22 615.24 668.50 599.63 670.13 583.96 C 671.51 570.76 675.49 557.96 680.79 545.83 C 685.56 534.83 693.41 525.20 703.04 518.10 Z" />
		<path fill="#f0b58b" opacity="1.00"
			d=" M 444.84 553.95 C 459.06 556.73 471.83 564.13 483.46 572.49 C 500.10 584.88 514.43 600.56 524.36 618.84 C 514.33 623.88 504.73 629.73 494.70 634.75 C 482.56 640.62 470.74 647.12 459.22 654.11 C 449.93 659.57 440.98 665.70 433.16 673.15 C 425.78 680.61 419.88 689.37 414.71 698.47 C 409.15 698.49 403.63 697.39 398.48 695.32 C 387.03 690.76 376.36 684.11 367.50 675.54 C 364.66 672.85 362.30 669.72 360.30 666.38 C 366.26 659.43 372.41 652.63 379.04 646.31 C 378.16 653.73 375.09 661.14 376.12 668.63 C 376.58 668.67 377.51 668.75 377.97 668.79 C 380.16 665.56 380.51 661.53 381.48 657.84 C 383.95 647.54 385.56 636.64 391.61 627.67 C 401.65 612.30 413.81 598.48 424.76 583.78 C 432.28 574.41 438.68 564.24 444.84 553.95 M 419.05 666.01 C 413.86 668.63 408.54 671.15 402.85 672.45 C 397.42 673.67 391.38 672.59 386.39 675.47 C 385.25 676.32 383.51 678.41 385.82 679.00 C 393.26 676.85 401.19 678.77 408.59 676.42 C 415.97 674.32 422.47 669.98 428.52 665.40 C 430.39 664.19 431.10 662.07 431.41 659.98 C 426.86 661.02 423.17 663.99 419.05 666.01 Z" />
	</g>
	<g id="#f11b27ff">
		<path fill="var(--shirt-color, grey)" opacity="1.00"
			d=" M 600.41 145.66 C 607.55 148.04 614.55 150.97 621.99 152.37 C 642.74 156.43 663.97 156.30 684.98 157.99 C 701.75 159.75 718.86 164.04 732.54 174.34 C 744.98 183.56 752.43 197.50 760.58 210.29 C 753.90 206.91 747.24 203.16 740.01 201.14 C 739.44 201.34 738.30 201.73 737.73 201.93 C 740.26 204.39 743.54 205.78 746.56 207.50 C 761.38 216.55 776.71 225.52 788.53 238.47 C 797.55 248.83 805.00 260.47 811.34 272.63 C 815.97 281.39 820.69 290.23 827.49 297.53 C 833.49 304.01 839.31 310.95 846.97 315.55 C 844.07 322.63 838.00 327.51 832.47 332.48 C 819.16 344.25 802.74 351.48 787.78 360.79 C 782.54 363.86 778.95 368.83 775.63 373.77 C 772.52 369.89 770.41 365.37 767.74 361.22 C 753.85 338.64 731.14 323.81 713.62 304.41 C 696.57 282.96 685.23 256.78 682.24 229.47 C 681.74 227.87 682.06 225.14 679.78 224.97 C 678.07 229.49 679.39 234.38 679.56 239.05 C 680.69 254.65 687.03 269.21 693.90 283.04 C 697.00 289.42 701.24 295.13 705.12 301.04 C 689.09 293.24 672.01 287.18 657.58 276.46 C 653.16 273.49 649.41 269.51 644.48 267.34 C 645.72 271.94 649.76 274.78 653.20 277.70 C 661.34 284.13 669.68 290.49 679.15 294.84 C 691.96 301.14 706.80 304.37 717.13 314.85 C 733.15 330.74 751.66 344.71 763.63 364.18 C 759.67 370.57 756.25 377.53 750.53 382.59 C 737.19 394.73 719.55 401.00 701.98 403.80 C 682.99 406.79 663.69 404.18 645.01 400.45 C 628.88 397.37 612.70 394.44 596.79 390.34 C 590.72 388.97 584.84 386.51 578.55 386.32 C 580.69 389.41 584.53 390.14 587.85 391.29 C 606.65 397.15 626.03 400.87 645.29 404.85 C 662.20 408.48 679.57 410.99 696.88 409.38 C 716.21 407.73 735.11 401.09 751.05 390.02 C 757.90 385.03 763.48 378.39 767.47 370.93 C 769.18 374.43 771.69 377.50 775.26 379.22 C 773.47 389.67 769.05 399.89 761.29 407.29 C 757.53 410.88 752.77 413.12 748.79 416.41 C 751.25 416.45 753.75 416.10 755.96 414.92 C 769.34 408.66 778.21 394.79 780.01 380.33 C 786.24 387.02 789.31 396.10 790.60 404.99 C 789.65 418.86 789.45 432.77 789.37 446.67 C 765.19 445.16 740.80 446.88 717.10 451.92 C 693.93 456.22 671.31 463.18 647.96 466.55 C 630.49 468.98 612.69 467.54 595.54 463.68 C 581.91 460.47 568.15 457.88 554.58 454.42 C 544.11 451.79 533.13 449.88 522.42 452.34 C 524.64 449.03 526.86 445.51 530.42 443.49 C 534.43 440.79 539.27 440.00 543.82 438.67 C 547.09 437.82 549.49 434.88 552.96 434.67 C 560.60 433.93 568.29 433.79 575.96 433.84 C 608.65 434.37 641.35 434.36 674.04 433.84 C 690.45 433.82 706.85 432.21 722.94 428.97 C 726.89 428.08 731.26 427.41 734.08 424.18 C 729.31 423.79 724.70 425.13 720.05 425.85 C 699.88 429.39 679.36 429.33 658.96 429.46 C 631.95 429.45 604.94 430.05 577.94 429.84 C 569.13 429.79 560.29 429.95 551.59 431.44 C 551.33 428.92 550.95 426.41 550.54 423.92 C 554.56 425.33 558.70 426.47 562.95 426.87 C 577.62 428.49 592.32 426.52 606.92 425.19 C 613.49 424.50 620.19 425.26 626.68 423.87 C 623.16 420.14 617.54 421.19 612.94 420.69 C 594.94 419.48 576.89 423.33 558.95 420.64 C 552.23 419.57 545.27 416.10 542.28 409.67 C 537.17 399.33 536.52 387.58 533.60 376.58 C 529.57 362.73 527.17 348.45 522.28 334.85 C 518.18 323.76 514.36 312.53 509.13 301.90 C 507.19 298.03 505.51 293.60 501.48 291.41 C 501.87 293.29 502.36 295.16 503.13 296.94 C 510.14 312.50 515.81 328.63 520.94 344.90 C 524.27 355.58 526.20 366.63 529.44 377.34 C 525.18 379.78 521.01 383.01 515.94 383.33 C 508.17 383.54 500.77 380.54 494.22 376.59 C 492.43 357.65 494.39 338.38 490.48 319.63 C 487.94 308.14 483.59 297.19 480.11 285.98 C 474.50 268.51 475.44 249.14 482.06 232.09 C 486.18 222.30 492.26 213.07 500.76 206.56 C 503.29 210.14 505.42 214.32 509.18 216.78 C 513.90 217.69 518.54 215.42 522.89 213.82 C 530.48 210.96 536.78 205.70 542.56 200.14 C 543.26 205.75 543.71 211.58 546.33 216.70 C 549.88 223.76 555.23 229.68 560.46 235.52 C 566.20 242.14 573.46 247.41 577.98 255.05 C 579.07 253.10 580.09 251.10 580.91 249.02 C 587.61 231.87 596.80 215.87 606.04 200.00 C 611.96 189.86 615.36 177.72 612.94 166.01 C 611.13 158.12 606.80 150.70 600.41 145.66 Z" />
	</g>
	<g id="#ffffffff">
		<path fill="var(--pants-color, grey)" opacity="1.00"
			d=" M 733.01 454.14 C 751.64 451.49 770.47 450.86 789.24 450.13 C 788.28 473.25 786.67 496.54 780.87 519.02 C 778.47 525.09 774.86 530.60 772.20 536.55 C 764.44 522.86 750.20 513.82 735.25 509.82 C 724.15 507.09 711.57 507.33 701.67 513.62 C 692.17 519.74 685.69 529.39 679.80 538.81 C 670.36 556.78 664.64 577.09 665.32 597.49 C 662.88 585.11 662.96 572.44 662.78 559.88 C 662.96 558.23 662.15 556.77 660.89 555.79 C 657.84 556.25 655.29 558.15 652.66 559.61 C 637.27 569.12 622.66 579.83 607.19 589.21 C 587.48 601.85 566.25 611.91 546.63 624.70 C 542.52 627.29 538.84 630.75 534.00 631.93 C 530.25 618.55 522.75 606.54 514.37 595.59 C 504.35 582.70 492.31 571.32 478.54 562.52 C 467.88 555.86 455.93 550.90 443.34 549.64 C 453.67 533.02 466.31 517.94 479.90 503.91 C 488.12 495.34 497.25 487.60 507.43 481.47 C 516.02 476.38 518.73 466.06 522.20 457.38 C 527.45 456.80 532.73 455.83 538.02 456.57 C 550.95 458.05 563.40 462.05 576.17 464.44 C 591.33 467.71 606.42 471.81 621.98 472.71 C 640.28 473.96 658.41 470.53 676.18 466.51 C 695.00 461.86 713.86 457.24 733.01 454.14 Z" />
		<path fill="var(--socks-color, grey)" opacity="1.00"
			d=" M 732.21 666.41 C 742.01 663.39 751.70 659.32 759.72 652.80 C 765.21 666.34 769.76 680.44 771.03 695.08 C 772.48 711.64 770.83 728.26 769.97 744.81 C 768.93 763.20 768.10 781.60 767.19 800.00 C 766.15 816.00 766.91 832.03 767.19 848.04 C 767.71 861.68 768.28 875.41 771.22 888.79 C 766.42 884.08 765.03 876.50 758.81 873.17 C 753.67 870.46 747.76 869.28 741.98 869.41 C 735.90 869.86 731.88 875.39 729.63 880.53 C 727.62 884.85 726.67 889.77 723.60 893.55 C 722.23 893.94 720.84 894.27 719.45 894.54 C 719.68 876.36 719.34 858.18 718.84 840.01 C 718.83 826.07 718.25 811.95 714.38 798.47 C 710.35 784.44 705.62 770.62 701.23 756.69 C 696.79 742.03 690.50 727.53 690.33 711.97 C 689.56 697.55 689.32 683.11 688.54 668.70 C 702.93 672.15 718.12 670.51 732.21 666.41 Z" />
		<path fill="var(--socks-color, grey)" opacity="1.00"
			d=" M 349.11 678.99 C 351.81 675.96 354.49 672.92 357.16 669.87 C 361.67 678.06 368.86 684.33 376.45 689.59 C 387.07 696.61 399.13 703.06 412.20 702.85 C 402.00 721.57 392.42 740.72 380.33 758.34 C 372.65 769.66 363.69 780.35 352.54 788.41 C 340.36 797.46 328.19 806.67 317.79 817.79 C 304.09 831.83 292.34 847.76 282.89 864.95 C 281.41 867.16 281.55 870.85 278.54 871.65 C 275.47 872.94 271.83 872.57 268.93 871.01 C 266.25 868.60 268.76 864.98 268.84 862.04 C 269.55 857.68 265.96 854.31 262.52 852.38 C 258.13 850.00 253.39 848.32 248.70 846.64 C 253.96 840.25 257.62 832.78 261.65 825.61 C 271.66 807.59 279.91 788.67 287.80 769.64 C 294.11 754.74 300.72 739.88 309.15 726.03 C 320.25 708.57 335.62 694.52 349.11 678.99 M 275.09 869.06 C 273.55 872.04 278.42 869.18 275.09 869.06 Z" />
	</g>
	<g id="#4d4d4dff">
		<path fill="#4d4d4d" opacity="1.00"
			d=" M 225.11 865.12 C 231.11 860.12 237.20 855.23 242.97 849.98 C 248.54 851.55 254.07 853.34 259.34 855.78 C 261.36 856.75 263.43 857.94 264.60 859.94 C 264.54 864.03 261.76 868.30 263.83 872.26 C 265.48 875.60 269.49 876.59 272.92 876.75 C 276.27 877.03 279.31 875.42 282.23 874.02 C 283.05 881.29 284.92 888.59 283.90 895.95 C 283.18 901.25 280.23 905.89 277.09 910.11 C 275.07 912.74 272.93 915.56 269.73 916.81 C 260.60 920.38 250.64 920.30 241.00 920.87 C 226.70 921.68 213.19 927.03 199.06 928.96 C 188.92 930.35 178.32 931.37 168.37 928.38 C 165.18 927.42 161.63 925.49 160.99 921.90 C 160.07 916.19 162.17 910.30 165.93 906.01 C 170.30 900.97 175.61 896.82 181.16 893.16 C 195.99 884.12 211.69 876.27 225.11 865.12 Z" />
		<path fill="#4d4d4d" opacity="1.00"
			d=" M 740.13 875.13 C 744.76 873.18 750.24 874.28 754.67 876.33 C 760.75 879.18 761.48 886.70 765.63 891.36 C 768.14 894.70 772.64 894.98 775.99 897.07 C 777.30 900.57 777.27 904.41 778.01 908.06 C 779.14 915.24 782.06 922.02 785.83 928.20 C 787.72 931.60 790.16 935.00 790.36 939.03 C 790.10 943.73 787.06 947.69 784.03 951.07 C 779.03 956.37 772.70 961.21 765.16 961.63 C 755.45 962.29 745.71 962.95 735.98 962.50 C 729.52 962.08 722.67 960.71 717.59 956.43 C 714.85 954.15 714.28 950.34 714.45 946.99 C 714.81 939.04 718.94 931.92 719.92 924.09 C 721.15 916.22 719.98 908.28 718.75 900.50 C 721.89 899.26 725.37 898.31 727.75 895.78 C 733.25 889.74 732.95 879.82 740.13 875.13 Z" />
	</g>
</svg>