<?xml version="1.0" encoding="UTF-8" ?>
<!DOCTYPE svg PUBLIC "-//W3C//DTD SVG 1.1//EN" "http://www.w3.org/Graphics/SVG/1.1/DTD/svg11.dtd">
<svg width="1000pt" height="1000pt" viewBox="0 0 1000 1000" version="1.1" xmlns="http://www.w3.org/2000/svg">
	<g id="#020202ff">
		<path fill="#020202" opacity="1.00"
			d=" M 313.24 35.33 C 329.28 31.49 347.07 31.29 362.11 38.82 C 378.49 47.40 389.17 64.05 394.39 81.39 C 397.30 91.34 400.34 101.57 399.59 112.06 C 399.34 120.86 395.46 128.94 392.35 137.01 C 395.12 139.63 398.21 141.89 401.47 143.87 C 410.50 138.09 421.75 139.07 431.87 140.47 C 438.71 141.63 445.19 138.46 451.96 138.28 C 466.26 137.51 480.04 141.99 494.02 144.16 C 503.25 145.80 512.58 143.15 521.83 144.50 C 526.83 145.24 531.34 147.78 535.36 150.75 C 548.23 160.44 558.83 172.75 568.57 185.49 C 571.78 190.23 575.25 194.88 577.45 200.21 C 574.88 200.52 572.29 200.64 569.72 200.74 C 576.94 209.76 583.88 220.92 581.83 233.00 C 581.17 240.95 574.40 246.14 568.57 250.65 C 559.42 256.91 549.37 262.20 538.48 264.62 C 531.60 266.34 524.47 266.48 517.43 266.81 C 516.72 274.24 514.35 281.54 515.01 289.06 C 515.42 294.02 516.42 298.92 516.78 303.89 C 517.08 306.52 516.96 309.34 518.34 311.71 C 523.12 320.87 528.28 329.97 531.07 339.99 C 534.17 350.47 534.57 361.57 537.90 371.99 C 541.82 382.53 551.41 389.20 558.19 397.74 C 563.54 404.65 568.23 412.99 567.63 422.02 C 566.80 428.49 563.00 434.06 559.16 439.15 C 571.33 452.55 581.51 467.56 591.18 482.82 C 595.50 490.06 599.27 497.78 600.98 506.09 C 602.64 514.12 602.16 522.37 602.80 530.50 C 603.45 538.52 607.21 545.77 609.35 553.43 C 613.23 566.86 614.82 580.95 620.05 593.99 C 624.44 605.02 634.46 613.61 635.52 625.94 C 636.48 630.10 635.15 634.22 632.83 637.68 C 635.78 652.88 638.13 668.62 645.59 682.42 C 647.62 686.51 651.43 689.23 654.06 692.90 C 658.04 698.00 660.29 704.48 665.49 708.59 C 669.60 711.83 674.18 714.47 678.04 718.03 C 687.26 726.49 694.15 737.16 699.69 748.30 C 707.67 764.32 716.29 780.16 721.52 797.36 C 727.50 816.87 735.77 835.54 743.31 854.47 C 746.95 864.95 753.76 873.89 760.70 882.39 C 770.33 895.00 784.37 903.36 793.91 916.06 C 801.02 925.60 807.57 935.68 812.35 946.61 C 815.50 954.33 818.49 963.17 815.47 971.41 C 812.53 976.81 807.05 980.28 801.61 982.81 C 795.45 985.67 788.43 985.28 781.90 984.17 C 773.74 983.06 765.87 979.67 759.62 974.28 C 750.96 967.08 745.37 957.13 738.89 948.10 C 734.54 941.89 728.93 936.75 723.67 931.34 C 716.89 924.43 710.03 917.57 702.33 911.67 C 697.61 907.63 691.86 902.86 692.09 896.03 C 692.35 887.39 695.53 879.20 697.86 870.97 C 691.82 860.64 688.48 848.64 680.25 839.68 C 671.19 828.78 659.88 820.13 649.65 810.41 C 641.43 802.57 633.38 794.43 627.05 784.96 C 617.54 770.97 609.33 756.14 602.05 740.89 C 600.20 736.42 595.19 735.07 591.60 732.40 C 579.67 724.14 572.18 711.34 564.82 699.18 C 556.98 685.81 547.96 673.05 537.18 661.88 C 534.67 658.79 530.40 658.66 527.11 656.83 C 516.55 651.55 509.64 641.60 501.73 633.23 C 488.64 619.24 475.99 604.84 462.54 591.20 C 456.81 599.19 452.96 608.86 444.99 615.01 C 437.01 620.00 427.46 615.55 419.19 613.61 C 413.30 620.69 407.04 627.46 401.19 634.56 C 403.21 643.56 404.84 652.71 405.06 661.96 C 405.55 676.63 405.67 691.32 405.25 705.99 C 405.57 722.84 404.96 739.68 403.73 756.48 C 401.48 777.66 396.73 798.66 397.06 820.04 C 397.32 834.11 403.56 846.95 408.05 860.00 C 413.14 871.15 419.57 881.63 426.06 892.01 C 431.97 901.60 437.06 911.66 442.43 921.56 C 447.05 930.10 450.54 939.32 452.08 948.94 C 453.30 959.33 449.75 969.72 444.47 978.57 C 441.75 982.94 437.65 987.50 432.02 987.27 C 421.33 987.24 409.27 987.71 400.51 980.49 C 391.25 972.90 384.72 962.60 378.76 952.36 C 369.73 936.25 362.03 919.37 356.02 901.91 C 351.29 888.74 347.23 875.09 346.85 861.01 C 348.22 826.25 340.68 791.93 331.53 758.60 C 324.75 734.67 319.10 710.06 319.49 685.05 C 319.51 668.54 323.48 652.40 324.84 636.02 C 325.54 625.70 320.80 616.13 319.97 605.99 C 319.28 598.45 319.09 590.84 319.96 583.31 C 317.29 580.90 314.58 578.52 311.99 576.03 C 310.47 574.47 308.68 572.48 309.33 570.11 C 310.31 565.11 312.18 560.34 313.29 555.37 C 314.65 550.11 314.85 544.47 317.55 539.64 C 321.41 532.35 324.38 524.60 326.38 516.61 C 328.29 508.93 330.38 501.19 334.15 494.17 C 338.02 486.99 343.81 481.14 348.67 474.66 C 351.08 471.58 351.01 467.50 351.54 463.82 C 344.54 458.92 336.68 454.11 332.97 446.05 C 329.63 438.81 331.14 430.65 331.31 422.98 C 332.04 409.58 332.46 396.02 329.98 382.77 C 328.73 377.02 326.76 371.39 323.42 366.51 C 317.76 357.77 317.47 347.07 316.34 337.05 C 315.62 331.21 316.16 324.96 313.66 319.50 C 305.90 310.53 300.98 299.64 296.20 288.90 C 294.42 284.77 292.18 280.86 289.77 277.07 C 280.37 276.69 270.80 277.22 261.68 279.72 C 256.11 281.19 251.21 284.29 246.47 287.47 C 251.33 292.28 256.64 296.74 260.77 302.23 C 263.24 305.89 265.50 310.40 264.30 314.93 C 263.76 317.72 261.23 319.30 259.19 320.96 C 258.76 322.55 258.64 324.28 257.78 325.72 C 256.47 327.50 254.15 327.89 252.21 328.64 C 252.07 331.78 249.86 333.81 247.12 334.91 C 245.51 340.26 239.57 341.34 234.76 341.80 C 229.54 342.17 224.29 343.13 219.05 342.64 C 212.38 341.00 207.29 336.03 201.86 332.12 C 198.47 329.60 193.95 332.74 190.33 330.73 C 183.77 327.69 178.60 322.26 174.54 316.38 C 171.29 310.92 169.23 303.93 171.77 297.79 C 173.37 293.34 174.36 288.66 176.52 284.42 C 182.28 273.02 191.11 263.59 197.78 252.77 C 204.18 242.86 207.30 230.70 205.92 218.94 C 204.93 214.70 209.27 212.35 211.89 209.90 C 225.89 198.64 241.47 189.55 257.34 181.20 C 263.50 178.04 270.01 174.96 277.07 174.77 C 283.89 174.40 290.53 176.23 297.18 177.45 C 299.94 178.12 302.25 176.08 304.58 174.96 C 297.20 159.52 292.88 142.90 288.40 126.45 C 286.49 118.51 284.24 110.63 283.00 102.54 C 282.04 103.99 281.07 105.44 280.10 106.89 C 274.89 91.39 276.70 74.23 281.95 58.98 C 286.81 45.85 300.39 38.62 313.24 35.33 M 326.58 76.63 C 326.25 84.27 323.74 91.94 318.59 97.70 C 317.29 91.78 316.47 85.72 314.21 80.05 C 310.20 87.10 306.12 94.11 302.25 101.24 C 301.38 102.87 300.09 104.20 298.66 105.35 C 296.56 98.33 296.75 90.90 295.00 83.80 C 291.81 88.33 288.69 92.91 285.81 97.64 C 287.11 103.75 288.39 109.88 290.00 115.92 C 294.66 115.85 300.06 114.87 304.01 118.01 C 307.80 121.60 308.83 127.05 309.57 132.00 C 309.94 136.75 310.83 141.72 309.06 146.30 C 306.48 141.38 306.26 135.65 304.43 130.44 C 301.12 131.53 297.92 132.91 294.82 134.49 C 298.11 146.33 301.67 158.12 306.54 169.42 C 307.41 171.42 308.61 173.29 310.17 174.82 C 316.39 180.87 324.20 185.14 332.50 187.59 C 338.51 189.58 344.39 186.10 349.79 183.82 C 356.09 181.08 360.45 175.53 366.25 172.04 C 361.54 180.68 353.25 187.37 343.89 190.41 C 350.50 199.82 356.96 209.35 363.89 218.54 C 371.52 212.24 376.81 203.75 383.64 196.67 C 391.33 188.64 399.31 180.74 405.30 171.29 C 409.03 166.05 410.46 158.90 408.15 152.80 C 406.11 147.72 400.14 146.74 395.97 144.10 C 390.79 140.35 385.72 135.47 384.27 129.00 C 383.38 122.31 385.42 115.72 385.92 109.09 C 385.99 104.99 385.84 100.15 382.51 97.23 C 381.15 95.90 378.82 96.17 377.45 97.33 C 374.33 99.71 371.76 103.11 371.00 107.02 C 369.74 117.38 372.38 127.63 375.33 137.47 C 370.36 136.92 369.10 131.44 367.47 127.59 C 365.80 122.11 363.24 116.97 360.48 111.97 C 347.12 115.38 333.88 119.32 320.31 121.81 C 319.10 119.38 318.14 116.79 317.92 114.06 C 317.85 112.75 317.50 110.73 319.00 110.06 C 323.42 107.87 328.30 106.83 332.92 105.15 C 340.21 102.73 348.14 99.49 355.75 102.71 C 354.17 95.98 354.96 89.02 356.86 82.44 C 354.86 84.99 352.84 87.55 350.44 89.75 C 349.21 85.50 349.50 81.08 349.94 76.74 C 345.26 80.61 341.30 85.30 338.37 90.62 C 337.11 87.12 335.95 83.41 333.40 80.59 C 331.61 78.57 328.99 77.67 326.58 76.63 M 436.99 145.15 C 431.28 145.15 425.71 143.52 420.01 143.42 C 415.81 143.25 411.66 143.99 407.55 144.70 C 415.33 150.71 415.11 162.14 411.21 170.30 C 404.82 182.30 395.14 192.03 385.77 201.72 C 379.15 208.48 374.22 216.87 366.65 222.69 C 364.90 224.22 362.13 224.32 360.50 222.57 C 355.41 217.75 352.23 211.39 348.46 205.57 C 345.49 201.09 342.89 196.39 339.94 191.90 C 337.10 192.03 334.20 192.18 331.43 191.40 C 322.54 188.78 314.26 184.17 307.37 177.96 C 304.32 179.99 300.91 182.04 297.08 181.55 C 290.71 180.81 284.47 178.83 278.00 179.10 C 270.96 179.07 264.56 182.40 258.44 185.50 C 241.50 194.41 224.88 204.17 210.03 216.30 C 213.83 228.23 216.97 240.41 222.19 251.84 C 227.64 263.78 232.32 277.28 243.58 285.08 C 254.60 274.10 271.14 270.69 286.18 272.23 C 283.37 267.76 279.94 263.53 278.46 258.38 C 280.66 259.45 282.57 261.02 284.13 262.89 C 290.12 269.72 296.05 276.81 299.83 285.14 C 304.31 294.73 308.46 304.60 314.90 313.09 C 319.52 319.19 326.84 322.37 331.88 328.07 C 336.32 332.73 339.35 338.53 341.34 344.62 C 342.35 347.97 344.26 351.43 343.25 355.02 C 342.78 354.80 341.85 354.35 341.38 354.13 C 338.68 349.98 337.57 345.04 335.24 340.69 C 331.79 333.95 326.06 328.77 319.97 324.44 C 320.80 334.14 320.67 343.97 322.73 353.54 C 324.33 360.27 328.32 366.08 332.26 371.66 C 338.40 379.73 343.37 388.60 349.02 397.02 C 354.21 404.57 358.63 412.62 363.76 420.21 C 364.85 422.40 367.82 424.90 366.18 427.46 L 365.00 427.41 C 360.12 423.39 357.09 417.65 353.47 412.56 C 347.26 403.01 340.66 393.72 334.72 384.00 C 335.44 389.98 336.36 395.95 336.47 401.98 C 336.81 413.66 335.39 425.29 335.30 436.95 C 335.13 443.42 338.90 449.19 343.85 453.05 C 351.52 459.17 359.92 464.31 367.63 470.38 C 372.97 474.48 380.13 472.80 386.14 471.42 C 396.08 469.23 406.19 467.58 415.72 463.89 C 437.79 456.20 459.81 447.82 482.96 443.97 C 486.82 443.33 490.76 442.51 494.68 443.11 C 494.90 444.35 494.44 445.08 493.31 445.32 C 488.29 446.86 483.08 447.67 478.00 448.99 C 456.31 454.24 435.50 462.36 414.40 469.48 C 404.44 472.84 394.04 474.66 383.68 476.21 C 397.03 478.49 410.54 479.68 423.99 481.18 C 445.57 483.50 467.33 484.97 489.03 483.47 C 494.31 483.04 499.71 482.10 504.34 479.37 C 510.52 475.72 516.19 471.28 521.54 466.52 C 532.43 457.87 543.29 449.07 552.86 438.94 C 556.28 434.98 560.02 431.10 562.22 426.29 C 563.82 421.09 562.68 415.41 560.34 410.62 C 554.87 398.73 543.66 391.20 536.45 380.58 C 530.23 371.61 529.86 360.33 528.01 349.94 C 526.44 338.85 521.91 328.50 517.01 318.53 C 516.35 328.16 515.56 337.84 513.04 347.19 C 511.75 351.72 511.06 356.56 508.55 360.61 C 507.88 361.81 506.46 362.10 505.22 361.76 C 505.17 357.39 506.88 353.26 507.63 349.00 C 510.20 338.50 510.84 327.68 511.56 316.93 C 512.18 307.91 510.58 298.95 509.87 289.99 C 509.21 282.14 511.37 274.46 512.83 266.82 C 499.25 266.09 485.64 266.34 472.06 265.60 C 463.34 265.66 454.56 264.48 445.89 265.79 C 439.95 266.53 435.30 270.65 429.97 272.98 C 425.54 275.36 420.61 276.65 415.59 276.79 C 410.66 281.81 405.92 287.16 399.94 290.96 C 397.88 292.18 395.16 293.60 392.88 292.11 C 391.56 290.78 391.55 288.77 392.16 287.12 C 395.99 276.06 404.73 267.92 411.37 258.61 C 407.97 259.32 404.23 260.04 401.85 262.83 C 395.78 269.74 393.33 279.23 386.66 285.68 C 383.80 287.16 379.69 288.09 377.28 285.28 C 375.70 285.18 373.71 285.81 372.65 284.25 C 371.44 282.59 371.09 280.51 370.73 278.55 C 369.45 270.80 369.47 262.86 370.60 255.09 C 371.47 249.75 375.63 245.89 379.26 242.23 C 385.24 236.66 391.71 231.15 399.69 228.77 C 407.12 226.55 415.22 223.68 422.93 226.15 C 427.68 228.77 430.60 233.63 434.45 237.32 C 451.92 234.38 468.34 227.55 484.87 221.47 C 478.75 215.50 474.23 208.16 470.14 200.73 C 468.24 197.00 465.71 192.80 467.62 188.54 C 471.05 193.25 473.24 198.71 476.46 203.56 C 479.94 209.43 484.48 214.54 488.84 219.75 C 494.98 217.15 501.02 214.27 507.33 212.08 C 511.49 210.74 514.39 207.20 518.35 205.45 C 534.77 197.48 553.51 195.63 571.53 196.87 C 561.33 181.64 549.30 167.48 535.15 155.76 C 531.04 152.42 526.48 149.11 521.08 148.40 C 512.69 147.31 504.30 149.82 495.90 148.75 C 481.54 147.24 467.59 142.07 453.00 142.90 C 447.56 142.93 442.40 144.94 436.99 145.15 M 521.14 208.90 C 527.76 208.83 534.38 208.74 541.00 209.00 C 544.36 209.19 547.98 208.96 550.93 210.91 C 540.40 212.67 529.63 212.65 518.99 213.49 C 509.23 214.83 500.45 219.53 491.48 223.30 C 482.89 227.12 473.92 229.96 465.15 233.32 C 456.19 236.21 447.09 239.18 437.66 239.90 C 439.98 242.13 442.23 244.51 443.59 247.48 C 439.32 247.44 436.36 244.08 433.11 241.80 C 428.74 238.54 425.73 233.81 421.44 230.49 C 416.25 228.50 410.56 229.99 405.34 231.10 C 396.37 232.62 389.47 239.06 382.80 244.74 C 379.55 247.73 375.21 250.39 374.50 255.14 C 373.39 263.30 373.91 271.62 375.42 279.70 C 376.19 273.80 375.75 267.83 376.54 261.93 C 377.03 258.30 379.51 255.37 381.63 252.52 C 385.05 248.27 388.57 243.98 393.16 240.93 C 390.13 248.19 384.64 254.02 380.88 260.86 C 379.76 264.09 380.04 267.62 379.92 271.00 C 380.08 275.11 379.36 279.23 379.92 283.33 C 382.99 274.59 382.99 264.45 389.14 257.02 C 392.82 252.64 396.31 248.04 400.70 244.33 C 398.50 249.92 395.86 255.40 392.23 260.21 C 386.97 266.92 386.50 275.78 384.23 283.70 C 388.03 277.81 391.13 271.54 394.45 265.39 C 397.02 260.48 401.23 255.86 406.93 254.89 C 409.71 254.27 413.55 253.88 415.20 256.82 C 416.85 259.92 414.49 263.17 412.56 265.50 C 406.45 272.52 400.25 279.68 396.39 288.24 C 405.38 282.47 411.77 273.71 419.56 266.57 C 420.76 265.40 422.28 264.54 424.02 264.71 C 424.30 268.22 421.17 270.46 419.33 273.03 C 424.82 271.38 429.70 268.36 434.67 265.59 C 444.27 260.48 455.45 260.73 466.02 260.34 C 477.36 260.45 488.69 261.23 500.04 261.24 C 516.48 261.53 533.82 263.15 549.26 256.24 C 557.57 252.36 565.86 247.97 572.42 241.44 C 574.67 239.15 576.73 236.38 577.01 233.07 C 578.22 225.61 575.86 218.13 572.40 211.60 C 570.24 207.59 567.00 204.33 564.44 200.59 C 549.67 200.77 534.87 203.34 521.14 208.90 M 210.24 231.91 C 208.96 238.74 207.05 245.55 203.48 251.56 C 196.47 264.14 186.08 274.54 179.72 287.51 C 176.64 294.37 174.16 302.53 177.44 309.79 C 180.12 317.09 185.77 323.38 193.04 326.29 C 196.08 326.50 199.29 325.17 202.20 326.59 C 208.77 329.72 213.43 336.72 220.93 337.84 C 228.00 337.52 235.24 337.30 242.05 335.18 C 236.50 330.77 230.15 327.54 224.09 323.92 C 221.23 322.14 217.70 320.90 216.22 317.61 C 220.38 317.50 224.00 319.70 227.69 321.30 C 233.27 323.77 238.48 326.98 243.59 330.28 C 244.93 331.62 246.73 330.85 248.29 330.48 C 242.48 322.47 233.35 318.06 225.42 312.55 C 223.32 311.24 222.25 309.02 222.38 306.56 C 233.05 311.02 243.23 317.32 250.96 326.03 C 252.66 325.19 255.93 324.00 254.45 321.53 C 250.77 314.18 243.74 309.31 236.93 305.11 C 235.37 303.89 232.57 302.71 233.37 300.27 C 237.50 299.95 241.01 302.55 244.40 304.52 C 250.05 307.93 254.59 312.87 258.02 318.47 C 259.71 316.55 261.47 314.16 260.47 311.46 C 258.44 305.47 253.47 301.18 249.35 296.60 C 245.91 293.42 242.88 289.01 237.85 288.41 C 228.08 285.43 217.93 288.60 208.63 291.76 C 203.66 293.41 200.18 298.03 194.93 298.95 C 199.65 292.12 207.18 287.40 215.18 285.36 C 221.37 283.48 227.87 282.13 234.37 283.09 C 227.52 275.54 222.99 266.25 219.17 256.89 C 215.74 248.73 212.71 240.41 210.24 231.91 M 525.49 469.53 C 515.51 477.92 504.71 487.39 491.02 488.08 C 467.99 489.93 444.86 488.01 421.94 485.64 C 409.24 484.00 396.45 482.95 383.85 480.58 C 379.60 479.75 375.19 479.35 371.19 477.60 C 365.49 474.64 360.92 470.02 355.62 466.48 C 354.99 469.96 354.97 473.80 352.77 476.76 C 348.63 482.58 343.53 487.66 339.60 493.62 C 334.95 500.67 332.70 508.91 330.66 517.00 C 328.48 525.67 325.31 534.12 321.04 541.99 C 319.16 545.19 318.90 548.97 318.27 552.55 C 317.26 558.89 315.13 564.97 313.54 571.18 C 315.55 573.56 317.77 575.76 319.81 578.12 C 322.38 571.25 324.08 564.11 325.64 556.96 C 326.63 553.02 327.33 548.42 331.02 546.01 C 338.61 540.65 348.75 539.64 357.65 541.66 C 373.41 545.80 387.59 554.16 401.35 562.64 C 411.79 569.00 421.42 576.55 431.25 583.76 C 433.96 585.95 437.71 589.05 436.22 592.99 C 432.84 600.01 426.85 605.17 421.32 610.47 C 425.53 611.53 429.80 612.33 434.06 613.15 C 437.65 614.13 441.75 613.17 444.24 610.35 C 451.28 602.82 455.09 592.97 461.71 585.12 C 465.88 588.31 469.56 592.07 473.10 595.93 C 487.48 611.22 501.73 626.65 515.73 642.30 C 521.06 648.02 527.19 653.93 535.21 655.33 C 548.37 657.35 561.73 657.17 575.01 657.33 C 579.70 657.45 584.32 656.57 588.95 656.02 C 596.55 655.23 603.33 651.43 610.08 648.15 C 617.63 644.45 624.89 639.81 630.44 633.40 C 632.76 630.95 631.44 627.43 631.17 624.49 C 629.30 614.33 621.21 607.03 617.02 597.88 C 610.91 584.24 609.35 569.18 605.18 554.93 C 603.04 547.30 599.27 540.08 598.53 532.11 C 597.70 523.49 598.37 514.70 596.42 506.21 C 594.51 497.64 590.27 489.80 585.61 482.44 C 580.04 474.03 574.65 465.51 568.66 457.40 C 564.82 452.20 560.43 447.43 556.65 442.18 C 547.26 452.37 536.50 461.17 525.49 469.53 M 331.87 550.02 C 329.83 554.07 329.18 558.66 328.57 563.11 C 327.55 572.11 324.37 580.78 324.23 589.90 C 324.11 598.83 324.52 607.87 326.74 616.57 C 328.61 623.90 330.44 631.46 329.56 639.08 C 328.93 644.78 328.17 650.46 327.34 656.13 C 340.64 668.42 360.87 673.71 378.02 666.92 C 387.45 663.46 394.75 655.92 399.36 647.16 C 398.95 644.23 398.55 641.29 398.15 638.36 C 396.41 640.49 394.57 642.54 392.47 644.32 C 392.33 642.81 391.87 641.17 392.80 639.82 C 398.63 629.08 407.93 620.90 415.55 611.51 C 421.65 604.70 429.33 599.19 433.65 590.92 C 429.98 586.31 424.80 583.37 420.23 579.80 C 410.46 572.32 400.05 565.74 389.46 559.52 C 378.07 552.98 366.04 546.83 352.93 544.78 C 345.72 544.40 337.63 545.28 331.87 550.02 M 599.57 657.52 C 592.43 660.48 584.56 660.32 577.00 661.02 C 565.15 661.63 553.23 661.95 541.43 660.54 C 546.57 665.78 550.86 671.77 555.32 677.58 C 565.06 690.22 571.78 704.90 581.62 717.48 C 586.12 723.34 592.37 727.47 598.34 731.69 C 603.13 735.24 609.22 735.88 614.91 736.92 C 618.54 737.66 622.66 737.41 625.64 739.99 C 619.15 742.12 612.21 740.55 605.70 739.35 C 606.93 741.86 608.18 744.38 609.48 746.87 C 621.19 751.20 634.02 747.65 645.08 743.05 C 656.03 738.04 667.38 730.97 672.10 719.32 C 667.50 715.83 662.34 712.84 658.87 708.11 C 654.89 702.72 651.17 697.13 646.89 691.98 C 640.79 684.90 637.35 675.99 634.67 667.17 C 632.33 658.61 630.30 649.95 628.86 641.20 C 620.26 648.48 609.95 653.34 599.57 657.52 M 371.11 672.91 C 355.42 675.93 338.69 671.02 326.66 660.62 C 323.70 679.92 324.14 699.67 327.64 718.87 C 330.82 739.15 337.59 758.58 342.29 778.51 C 348.23 802.22 352.48 826.49 352.64 851.00 C 352.50 858.87 356.45 866.01 360.70 872.36 C 362.75 875.26 366.61 878.70 370.25 876.25 C 373.86 874.64 374.16 870.31 374.26 866.90 C 374.48 861.73 376.41 855.69 381.74 853.75 C 385.96 852.29 390.99 850.74 395.25 852.78 C 399.55 856.74 399.82 863.82 405.13 867.00 C 403.80 859.95 400.87 853.35 398.22 846.72 C 395.07 838.49 392.96 829.84 392.24 821.05 C 391.79 807.01 393.84 793.05 395.73 779.17 C 396.92 768.80 399.12 758.54 399.26 748.07 C 400.19 734.39 400.46 720.68 400.22 706.98 C 400.47 688.95 401.12 670.90 400.18 652.89 C 394.24 663.60 383.07 670.83 371.11 672.91 M 652.75 744.74 C 640.34 750.91 626.03 755.36 612.13 752.30 C 617.56 762.22 623.41 771.90 629.67 781.32 C 638.45 794.58 650.32 805.35 662.07 815.91 C 671.38 823.88 680.44 832.30 687.76 842.18 C 692.85 849.83 696.03 858.53 700.38 866.59 C 705.77 875.03 711.22 883.55 718.18 890.80 C 721.11 893.48 725.12 896.75 729.32 895.36 C 734.21 889.73 726.00 883.39 728.54 877.25 C 730.86 870.98 737.34 867.91 743.23 865.81 C 735.03 843.74 724.99 822.38 717.83 799.93 C 712.83 783.55 704.66 768.45 697.07 753.18 C 691.68 741.93 684.93 731.22 675.87 722.56 C 671.98 733.03 662.16 739.64 652.75 744.74 M 380.91 859.94 C 377.98 864.57 379.72 870.53 377.48 875.43 C 375.10 880.78 367.82 883.30 362.71 880.27 C 357.03 876.99 353.86 870.95 350.80 865.41 C 354.42 889.94 363.83 913.16 374.61 935.33 C 381.12 948.31 388.29 961.17 398.08 972.00 C 401.65 975.94 405.88 979.76 411.29 980.80 C 416.81 981.88 422.46 982.28 428.08 982.56 C 432.10 982.57 437.12 982.43 439.39 978.49 C 444.36 970.22 448.43 960.81 448.13 950.98 C 446.68 935.56 437.79 922.47 430.95 909.03 C 423.95 895.55 415.17 883.06 408.72 869.30 C 406.62 870.16 404.13 871.75 401.99 870.10 C 397.36 866.81 395.39 861.16 392.88 856.30 C 388.79 856.76 383.85 856.54 380.91 859.94 M 732.84 877.91 C 730.83 881.57 733.74 885.37 734.32 889.02 C 735.48 893.10 733.67 898.80 728.97 899.50 C 723.46 900.25 718.47 896.88 714.75 893.18 C 709.57 887.87 705.19 881.85 701.08 875.70 C 698.82 883.11 695.49 890.74 696.59 898.63 C 699.61 905.77 707.02 909.46 712.37 914.65 C 720.56 922.46 728.33 930.71 736.10 938.94 C 746.77 950.36 752.23 966.66 766.36 974.67 C 775.24 980.87 786.76 981.56 797.05 979.21 C 803.15 977.01 809.91 973.42 811.96 966.79 C 813.04 963.98 812.38 960.95 811.72 958.15 C 809.21 948.13 804.12 939.01 798.60 930.38 C 794.06 923.42 789.29 916.52 783.28 910.74 C 776.58 904.07 769.03 898.31 762.53 891.43 C 756.42 884.57 751.14 876.98 746.60 869.01 C 741.66 871.25 735.36 872.52 732.84 877.91 Z" />
		<path fill="#020202" opacity="1.00"
			d=" M 334.64 167.80 C 338.78 166.72 342.85 165.13 347.14 164.79 C 349.95 165.18 347.34 167.94 346.19 168.62 C 346.08 169.20 345.85 170.35 345.74 170.93 C 340.66 174.00 334.81 175.52 328.97 176.26 C 326.56 176.59 324.13 176.17 321.93 175.16 C 320.67 174.54 319.41 173.92 318.16 173.31 C 323.37 170.71 329.14 169.60 334.64 167.80 Z" />
	</g>
	<g id="#f0b58bff">
		<path fill="#f0b58b" opacity="1.00"
			d=" M 326.58 76.63 C 328.99 77.67 331.61 78.57 333.40 80.59 C 335.95 83.41 337.11 87.12 338.37 90.62 C 341.30 85.30 345.26 80.61 349.94 76.74 C 349.50 81.08 349.21 85.50 350.44 89.75 C 352.84 87.55 354.86 84.99 356.86 82.44 C 354.96 89.02 354.17 95.98 355.75 102.71 C 348.14 99.49 340.21 102.73 332.92 105.15 C 328.30 106.83 323.42 107.87 319.00 110.06 C 317.50 110.73 317.85 112.75 317.92 114.06 C 318.14 116.79 319.10 119.38 320.31 121.81 C 333.88 119.32 347.12 115.38 360.48 111.97 C 363.24 116.97 365.80 122.11 367.47 127.59 C 369.10 131.44 370.36 136.92 375.33 137.47 C 372.38 127.63 369.74 117.38 371.00 107.02 C 371.76 103.11 374.33 99.71 377.45 97.33 C 378.82 96.17 381.15 95.90 382.51 97.23 C 385.84 100.15 385.99 104.99 385.92 109.09 C 385.42 115.72 383.38 122.31 384.27 129.00 C 385.72 135.47 390.79 140.35 395.97 144.10 C 400.14 146.74 406.11 147.72 408.15 152.80 C 410.46 158.90 409.03 166.05 405.30 171.29 C 399.31 180.74 391.33 188.64 383.64 196.67 C 376.81 203.75 371.52 212.24 363.89 218.54 C 356.96 209.35 350.50 199.82 343.89 190.41 C 353.25 187.37 361.54 180.68 366.25 172.04 C 360.45 175.53 356.09 181.08 349.79 183.82 C 344.39 186.10 338.51 189.58 332.50 187.59 C 324.20 185.14 316.39 180.87 310.17 174.82 C 308.61 173.29 307.41 171.42 306.54 169.42 C 301.67 158.12 298.11 146.33 294.82 134.49 C 297.92 132.91 301.12 131.53 304.43 130.44 C 306.26 135.65 306.48 141.38 309.06 146.30 C 310.83 141.72 309.94 136.75 309.57 132.00 C 308.83 127.05 307.80 121.60 304.01 118.01 C 300.06 114.87 294.66 115.85 290.00 115.92 C 288.39 109.88 287.11 103.75 285.81 97.64 C 288.69 92.91 291.81 88.33 295.00 83.80 C 296.75 90.90 296.56 98.33 298.66 105.35 C 300.09 104.20 301.38 102.87 302.25 101.24 C 306.12 94.11 310.20 87.10 314.21 80.05 C 316.47 85.72 317.29 91.78 318.59 97.70 C 323.74 91.94 326.25 84.27 326.58 76.63 M 309.90 148.24 C 309.71 150.30 308.49 152.61 309.48 154.60 C 311.88 156.47 315.11 156.84 318.06 156.99 C 321.17 157.57 321.62 153.54 322.48 151.47 C 320.59 152.13 318.76 152.90 316.95 153.72 C 314.61 151.88 312.32 149.98 309.90 148.24 M 334.64 167.80 C 329.14 169.60 323.37 170.71 318.16 173.31 C 319.41 173.92 320.67 174.54 321.93 175.16 C 324.13 176.17 326.56 176.59 328.97 176.26 C 334.81 175.52 340.66 174.00 345.74 170.93 C 345.85 170.35 346.08 169.20 346.19 168.62 C 347.34 167.94 349.95 165.18 347.14 164.79 C 342.85 165.13 338.78 166.72 334.64 167.80 Z" />
		<path fill="#f0b58b" opacity="1.00"
			d=" M 521.14 208.90 C 534.87 203.34 549.67 200.77 564.44 200.59 C 567.00 204.33 570.24 207.59 572.40 211.60 C 575.86 218.13 578.22 225.61 577.01 233.07 C 576.73 236.38 574.67 239.15 572.42 241.44 C 565.86 247.97 557.57 252.36 549.26 256.24 C 533.82 263.15 516.48 261.53 500.04 261.24 C 488.69 261.23 477.36 260.45 466.02 260.34 C 455.45 260.73 444.27 260.48 434.67 265.59 C 429.70 268.36 424.82 271.38 419.33 273.03 C 421.17 270.46 424.30 268.22 424.02 264.71 C 422.28 264.54 420.76 265.40 419.56 266.57 C 411.77 273.71 405.38 282.47 396.39 288.24 C 400.25 279.68 406.45 272.52 412.56 265.50 C 414.49 263.17 416.85 259.92 415.20 256.82 C 413.55 253.88 409.71 254.27 406.93 254.89 C 401.23 255.86 397.02 260.48 394.45 265.39 C 391.13 271.54 388.03 277.81 384.23 283.70 C 386.50 275.78 386.97 266.92 392.23 260.21 C 395.86 255.40 398.50 249.92 400.70 244.33 C 396.31 248.04 392.82 252.64 389.14 257.02 C 382.99 264.45 382.99 274.59 379.92 283.33 C 379.36 279.23 380.08 275.11 379.92 271.00 C 380.04 267.62 379.76 264.09 380.88 260.86 C 384.64 254.02 390.13 248.19 393.16 240.93 C 388.57 243.98 385.05 248.27 381.63 252.52 C 379.51 255.37 377.03 258.30 376.54 261.93 C 375.75 267.83 376.19 273.80 375.42 279.70 C 373.91 271.62 373.39 263.30 374.50 255.14 C 375.21 250.39 379.55 247.73 382.80 244.74 C 389.47 239.06 396.37 232.62 405.34 231.10 C 410.56 229.99 416.25 228.50 421.44 230.49 C 425.73 233.81 428.74 238.54 433.11 241.80 C 436.36 244.08 439.32 247.44 443.59 247.48 C 442.23 244.51 439.98 242.13 437.66 239.90 C 447.09 239.18 456.19 236.21 465.15 233.32 C 473.92 229.96 482.89 227.12 491.48 223.30 C 500.45 219.53 509.23 214.83 518.99 213.49 C 529.63 212.65 540.40 212.67 550.93 210.91 C 547.98 208.96 544.36 209.19 541.00 209.00 C 534.38 208.74 527.76 208.83 521.14 208.90 Z" />
		<path fill="#f0b58b" opacity="1.00"
			d=" M 210.24 231.91 C 212.71 240.41 215.74 248.73 219.17 256.89 C 222.99 266.25 227.52 275.54 234.37 283.09 C 227.87 282.13 221.37 283.48 215.18 285.36 C 207.18 287.40 199.65 292.12 194.93 298.95 C 200.18 298.03 203.66 293.41 208.63 291.76 C 217.93 288.60 228.08 285.43 237.85 288.41 C 242.88 289.01 245.91 293.42 249.35 296.60 C 253.47 301.18 258.44 305.47 260.47 311.46 C 261.47 314.16 259.71 316.55 258.02 318.47 C 254.59 312.87 250.05 307.93 244.40 304.52 C 241.01 302.55 237.50 299.95 233.37 300.27 C 232.57 302.71 235.37 303.89 236.93 305.11 C 243.74 309.31 250.77 314.18 254.45 321.53 C 255.93 324.00 252.66 325.19 250.96 326.03 C 243.23 317.32 233.05 311.02 222.38 306.56 C 222.25 309.02 223.32 311.24 225.42 312.55 C 233.35 318.06 242.48 322.47 248.29 330.48 C 246.73 330.85 244.93 331.62 243.59 330.28 C 238.48 326.98 233.27 323.77 227.69 321.30 C 224.00 319.70 220.38 317.50 216.22 317.61 C 217.70 320.90 221.23 322.14 224.09 323.92 C 230.15 327.54 236.50 330.77 242.05 335.18 C 235.24 337.30 228.00 337.52 220.93 337.84 C 213.43 336.72 208.77 329.72 202.20 326.59 C 199.29 325.17 196.08 326.50 193.04 326.29 C 185.77 323.38 180.12 317.09 177.44 309.79 C 174.16 302.53 176.64 294.37 179.72 287.51 C 186.08 274.54 196.47 264.14 203.48 251.56 C 207.05 245.55 208.96 238.74 210.24 231.91 Z" />
		<path fill="#f0b58b" opacity="1.00"
			d=" M 331.87 550.02 C 337.63 545.28 345.72 544.40 352.93 544.78 C 366.04 546.83 378.07 552.98 389.46 559.52 C 400.05 565.74 410.46 572.32 420.23 579.80 C 424.80 583.37 429.98 586.31 433.65 590.92 C 429.33 599.19 421.65 604.70 415.55 611.51 C 407.93 620.90 398.63 629.08 392.80 639.82 C 391.87 641.17 392.33 642.81 392.47 644.32 C 394.57 642.54 396.41 640.49 398.15 638.36 C 398.55 641.29 398.95 644.23 399.36 647.16 C 394.75 655.92 387.45 663.46 378.02 666.92 C 360.87 673.71 340.64 668.42 327.34 656.13 C 328.17 650.46 328.93 644.78 329.56 639.08 C 330.44 631.46 328.61 623.90 326.74 616.57 C 324.52 607.87 324.11 598.83 324.23 589.90 C 324.37 580.78 327.55 572.11 328.57 563.11 C 329.18 558.66 329.83 554.07 331.87 550.02 Z" />
		<path fill="#f0b58b" opacity="1.00"
			d=" M 599.57 657.52 C 609.95 653.34 620.26 648.48 628.86 641.20 C 630.30 649.95 632.33 658.61 634.67 667.17 C 637.35 675.99 640.79 684.90 646.89 691.98 C 651.17 697.13 654.89 702.72 658.87 708.11 C 662.34 712.84 667.50 715.83 672.10 719.32 C 667.38 730.97 656.03 738.04 645.08 743.05 C 634.02 747.65 621.19 751.20 609.48 746.87 C 608.18 744.38 606.93 741.86 605.70 739.35 C 612.21 740.55 619.15 742.12 625.64 739.99 C 622.66 737.41 618.54 737.66 614.91 736.92 C 609.22 735.88 603.13 735.24 598.34 731.69 C 592.37 727.47 586.12 723.34 581.62 717.48 C 571.78 704.90 565.06 690.22 555.32 677.58 C 550.86 671.77 546.57 665.78 541.43 660.54 C 553.23 661.95 565.15 661.63 577.00 661.02 C 584.56 660.32 592.43 660.48 599.57 657.52 Z" />
	</g>
	<g id="#f11b27ff">
		<path fill="var(--shirt-color, grey)" opacity="1.00"
			d=" M 436.99 145.15 C 442.40 144.94 447.56 142.93 453.00 142.90 C 467.59 142.07 481.54 147.24 495.90 148.75 C 504.30 149.82 512.69 147.31 521.08 148.40 C 526.48 149.11 531.04 152.42 535.15 155.76 C 549.30 167.48 561.33 181.64 571.53 196.87 C 553.51 195.63 534.77 197.48 518.35 205.45 C 514.39 207.20 511.49 210.74 507.33 212.08 C 501.02 214.27 494.98 217.15 488.84 219.75 C 484.48 214.54 479.94 209.43 476.46 203.56 C 473.24 198.71 471.05 193.25 467.62 188.54 C 465.71 192.80 468.24 197.00 470.14 200.73 C 474.23 208.16 478.75 215.50 484.87 221.47 C 468.34 227.55 451.92 234.38 434.45 237.32 C 430.60 233.63 427.68 228.77 422.93 226.15 C 415.22 223.68 407.12 226.55 399.69 228.77 C 391.71 231.15 385.24 236.66 379.26 242.23 C 375.63 245.89 371.47 249.75 370.60 255.09 C 369.47 262.86 369.45 270.80 370.73 278.55 C 371.09 280.51 371.44 282.59 372.65 284.25 C 373.71 285.81 375.70 285.18 377.28 285.28 C 379.69 288.09 383.80 287.16 386.66 285.68 C 393.33 279.23 395.78 269.74 401.85 262.83 C 404.23 260.04 407.97 259.32 411.37 258.61 C 404.73 267.92 395.99 276.06 392.16 287.12 C 391.55 288.77 391.56 290.78 392.88 292.11 C 395.16 293.60 397.88 292.18 399.94 290.96 C 405.92 287.16 410.66 281.81 415.59 276.79 C 420.61 276.65 425.54 275.36 429.97 272.98 C 435.30 270.65 439.95 266.53 445.89 265.79 C 454.56 264.48 463.34 265.66 472.06 265.60 C 485.64 266.34 499.25 266.09 512.83 266.82 C 511.37 274.46 509.21 282.14 509.87 289.99 C 510.58 298.95 512.18 307.91 511.56 316.93 C 510.84 327.68 510.20 338.50 507.63 349.00 C 506.88 353.26 505.17 357.39 505.22 361.76 C 506.46 362.10 507.88 361.81 508.55 360.61 C 511.06 356.56 511.75 351.72 513.04 347.19 C 515.56 337.84 516.35 328.16 517.01 318.53 C 521.91 328.50 526.44 338.85 528.01 349.94 C 529.86 360.33 530.23 371.61 536.45 380.58 C 543.66 391.20 554.87 398.73 560.34 410.62 C 562.68 415.41 563.82 421.09 562.22 426.29 C 560.02 431.10 556.28 434.98 552.86 438.94 C 543.29 449.07 532.43 457.87 521.54 466.52 C 516.19 471.28 510.52 475.72 504.34 479.37 C 499.71 482.10 494.31 483.04 489.03 483.47 C 467.33 484.97 445.57 483.50 423.99 481.18 C 410.54 479.68 397.03 478.49 383.68 476.21 C 394.04 474.66 404.44 472.84 414.40 469.48 C 435.50 462.36 456.31 454.24 478.00 448.99 C 483.08 447.67 488.29 446.86 493.31 445.32 C 494.44 445.08 494.90 444.35 494.68 443.11 C 490.76 442.51 486.82 443.33 482.96 443.97 C 459.81 447.82 437.79 456.20 415.72 463.89 C 406.19 467.58 396.08 469.23 386.14 471.42 C 380.13 472.80 372.97 474.48 367.63 470.38 C 359.92 464.31 351.52 459.17 343.85 453.05 C 338.90 449.19 335.13 443.42 335.30 436.95 C 335.39 425.29 336.81 413.66 336.47 401.98 C 336.36 395.95 335.44 389.98 334.72 384.00 C 340.66 393.72 347.26 403.01 353.47 412.56 C 357.09 417.65 360.12 423.39 365.00 427.41 L 366.18 427.46 C 367.82 424.90 364.85 422.40 363.76 420.21 C 358.63 412.62 354.21 404.57 349.02 397.02 C 343.37 388.60 338.40 379.73 332.26 371.66 C 328.32 366.08 324.33 360.27 322.73 353.54 C 320.67 343.97 320.80 334.14 319.97 324.44 C 326.06 328.77 331.79 333.95 335.24 340.69 C 337.57 345.04 338.68 349.98 341.38 354.13 C 341.85 354.35 342.78 354.80 343.25 355.02 C 344.26 351.43 342.35 347.97 341.34 344.62 C 339.35 338.53 336.32 332.73 331.88 328.07 C 326.84 322.37 319.52 319.19 314.90 313.09 C 308.46 304.60 304.31 294.73 299.83 285.14 C 296.05 276.81 290.12 269.72 284.13 262.89 C 282.57 261.02 280.66 259.45 278.46 258.38 C 279.94 263.53 283.37 267.76 286.18 272.23 C 271.14 270.69 254.60 274.10 243.58 285.08 C 232.32 277.28 227.64 263.78 222.19 251.84 C 216.97 240.41 213.83 228.23 210.03 216.30 C 224.88 204.17 241.50 194.41 258.44 185.50 C 264.56 182.40 270.96 179.07 278.00 179.10 C 284.47 178.83 290.71 180.81 297.08 181.55 C 300.91 182.04 304.32 179.99 307.37 177.96 C 314.26 184.17 322.54 188.78 331.43 191.40 C 334.20 192.18 337.10 192.03 339.94 191.90 C 342.89 196.39 345.49 201.09 348.46 205.57 C 352.23 211.39 355.41 217.75 360.50 222.57 C 362.13 224.32 364.90 224.22 366.65 222.69 C 374.22 216.87 379.15 208.48 385.77 201.72 C 395.14 192.03 404.82 182.30 411.21 170.30 C 415.11 162.14 415.33 150.71 407.55 144.70 C 411.66 143.99 415.81 143.25 420.01 143.42 C 425.71 143.52 431.28 145.15 436.99 145.15 Z" />
	</g>
	<g id="#010101fe">
		<path fill="#010101" opacity="1.00"
			d=" M 309.90 148.24 C 312.32 149.98 314.61 151.88 316.95 153.72 C 318.76 152.90 320.59 152.13 322.48 151.47 C 321.62 153.54 321.17 157.57 318.06 156.99 C 315.11 156.84 311.88 156.47 309.48 154.60 C 308.49 152.61 309.71 150.30 309.90 148.24 Z" />
	</g>
	<g id="#ffffffff">
		<path fill="var(--pants-color, grey)" opacity="1.00"
			d=" M 525.49 469.53 C 536.50 461.17 547.26 452.37 556.65 442.18 C 560.43 447.43 564.82 452.20 568.66 457.40 C 574.65 465.51 580.04 474.03 585.61 482.44 C 590.27 489.80 594.51 497.64 596.42 506.21 C 598.37 514.70 597.70 523.49 598.53 532.11 C 599.27 540.08 603.04 547.30 605.18 554.93 C 609.35 569.18 610.91 584.24 617.02 597.88 C 621.21 607.03 629.30 614.33 631.17 624.49 C 631.44 627.43 632.76 630.95 630.44 633.40 C 624.89 639.81 617.63 644.45 610.08 648.15 C 603.33 651.43 596.55 655.23 588.95 656.02 C 584.32 656.57 579.70 657.45 575.01 657.33 C 561.73 657.17 548.37 657.35 535.21 655.33 C 527.19 653.93 521.06 648.02 515.73 642.30 C 501.73 626.65 487.48 611.22 473.10 595.93 C 469.56 592.07 465.88 588.31 461.71 585.12 C 455.09 592.97 451.28 602.82 444.24 610.35 C 441.75 613.17 437.65 614.13 434.06 613.15 C 429.80 612.33 425.53 611.53 421.32 610.47 C 426.85 605.17 432.84 600.01 436.22 592.99 C 437.71 589.05 433.96 585.95 431.25 583.76 C 421.42 576.55 411.79 569.00 401.35 562.64 C 387.59 554.16 373.41 545.80 357.65 541.66 C 348.75 539.64 338.61 540.65 331.02 546.01 C 327.33 548.42 326.63 553.02 325.64 556.96 C 324.08 564.11 322.38 571.25 319.81 578.12 C 317.77 575.76 315.55 573.56 313.54 571.18 C 315.13 564.97 317.26 558.89 318.27 552.55 C 318.90 548.97 319.16 545.19 321.04 541.99 C 325.31 534.12 328.48 525.67 330.66 517.00 C 332.70 508.91 334.95 500.67 339.60 493.62 C 343.53 487.66 348.63 482.58 352.77 476.76 C 354.97 473.80 354.99 469.96 355.62 466.48 C 360.92 470.02 365.49 474.64 371.19 477.60 C 375.19 479.35 379.60 479.75 383.85 480.58 C 396.45 482.95 409.24 484.00 421.94 485.64 C 444.86 488.01 467.99 489.93 491.02 488.08 C 504.71 487.39 515.51 477.92 525.49 469.53 Z" />
		<path fill="var(--socks-color, grey)" opacity="1.00"
			d=" M 371.11 672.91 C 383.07 670.83 394.24 663.60 400.18 652.89 C 401.12 670.90 400.47 688.95 400.22 706.98 C 400.46 720.68 400.19 734.39 399.26 748.07 C 399.12 758.54 396.92 768.80 395.73 779.17 C 393.84 793.05 391.79 807.01 392.24 821.05 C 392.96 829.84 395.07 838.49 398.22 846.72 C 400.87 853.35 403.80 859.95 405.13 867.00 C 399.82 863.82 399.55 856.74 395.25 852.78 C 390.99 850.74 385.96 852.29 381.74 853.75 C 376.41 855.69 374.48 861.73 374.26 866.90 C 374.16 870.31 373.86 874.64 370.25 876.25 C 366.61 878.70 362.75 875.26 360.70 872.36 C 356.45 866.01 352.50 858.87 352.64 851.00 C 352.48 826.49 348.23 802.22 342.29 778.51 C 337.59 758.58 330.82 739.15 327.64 718.87 C 324.14 699.67 323.70 679.92 326.66 660.62 C 338.69 671.02 355.42 675.93 371.11 672.91 Z" />
		<path fill="var(--socks-color, grey)" opacity="1.00"
			d=" M 652.75 744.74 C 662.16 739.64 671.98 733.03 675.87 722.56 C 684.93 731.22 691.68 741.93 697.07 753.18 C 704.66 768.45 712.83 783.55 717.83 799.93 C 724.99 822.38 735.03 843.74 743.23 865.81 C 737.34 867.91 730.86 870.98 728.54 877.25 C 726.00 883.39 734.21 889.73 729.32 895.36 C 725.12 896.75 721.11 893.48 718.18 890.80 C 711.22 883.55 705.77 875.03 700.38 866.59 C 696.03 858.53 692.85 849.83 687.76 842.18 C 680.44 832.30 671.38 823.88 662.07 815.91 C 650.32 805.35 638.45 794.58 629.67 781.32 C 623.41 771.90 617.56 762.22 612.13 752.30 C 626.03 755.36 640.34 750.91 652.75 744.74 Z" />
	</g>
	<g id="#4d4d4dff">
		<path fill="#4d4d4d" opacity="1.00"
			d=" M 380.91 859.94 C 383.85 856.54 388.79 856.76 392.88 856.30 C 395.39 861.16 397.36 866.81 401.99 870.10 C 404.13 871.75 406.62 870.16 408.72 869.30 C 415.17 883.06 423.95 895.55 430.95 909.03 C 437.79 922.47 446.68 935.56 448.13 950.98 C 448.43 960.81 444.36 970.22 439.39 978.49 C 437.12 982.43 432.10 982.57 428.08 982.56 C 422.46 982.28 416.81 981.88 411.29 980.80 C 405.88 979.76 401.65 975.94 398.08 972.00 C 388.29 961.17 381.12 948.31 374.61 935.33 C 363.83 913.16 354.42 889.94 350.80 865.41 C 353.86 870.95 357.03 876.99 362.71 880.27 C 367.82 883.30 375.10 880.78 377.48 875.43 C 379.72 870.53 377.98 864.57 380.91 859.94 Z" />
		<path fill="#4d4d4d" opacity="1.00"
			d=" M 732.84 877.91 C 735.36 872.52 741.66 871.25 746.60 869.01 C 751.14 876.98 756.42 884.57 762.53 891.43 C 769.03 898.31 776.58 904.07 783.28 910.74 C 789.29 916.52 794.06 923.42 798.60 930.38 C 804.12 939.01 809.21 948.13 811.72 958.15 C 812.38 960.95 813.04 963.98 811.96 966.79 C 809.91 973.42 803.15 977.01 797.05 979.21 C 786.76 981.56 775.24 980.87 766.36 974.67 C 752.23 966.66 746.77 950.36 736.10 938.94 C 728.33 930.71 720.56 922.46 712.37 914.65 C 707.02 909.46 699.61 905.77 696.59 898.63 C 695.49 890.74 698.82 883.11 701.08 875.70 C 705.19 881.85 709.57 887.87 714.75 893.18 C 718.47 896.88 723.46 900.25 728.97 899.50 C 733.67 898.80 735.48 893.10 734.32 889.02 C 733.74 885.37 730.83 881.57 732.84 877.91 Z" />
	</g>
</svg>