<?xml version="1.0" encoding="UTF-8" ?>
<!DOCTYPE svg PUBLIC "-//W3C//DTD SVG 1.1//EN" "http://www.w3.org/Graphics/SVG/1.1/DTD/svg11.dtd">
<svg width="1000pt" height="1000pt" viewBox="0 0 1000 1000" version="1.1" xmlns="http://www.w3.org/2000/svg">
	<g id="#020202ff">
		<path fill="#020202" opacity="1.00"
			d=" M 437.75 74.71 C 445.37 64.77 457.92 59.93 470.05 58.66 C 479.66 57.54 489.12 61.62 496.33 67.77 C 510.61 79.92 518.08 99.67 515.16 118.22 C 513.31 129.94 510.01 141.41 505.68 152.44 C 503.12 160.71 502.02 169.36 501.39 177.97 C 500.98 182.65 501.91 187.28 502.85 191.83 C 505.33 190.83 508.08 190.08 510.58 191.52 C 524.08 197.51 534.86 208.00 547.50 215.46 C 560.36 224.70 576.17 229.96 586.93 241.98 C 595.66 251.84 594.88 265.72 598.18 277.72 C 601.40 288.72 605.41 299.48 609.98 309.99 C 612.70 317.39 617.41 323.97 619.24 331.71 C 620.45 337.07 621.44 342.52 621.83 348.01 C 622.08 349.76 621.30 351.37 620.60 352.91 C 618.14 352.53 615.68 352.16 613.22 351.84 C 618.07 359.66 623.42 367.52 625.15 376.73 C 628.73 394.12 624.66 411.84 621.09 428.89 C 618.35 442.90 624.18 456.99 621.38 470.99 C 620.50 475.18 619.08 479.79 615.31 482.28 C 611.20 485.25 605.86 485.20 601.02 485.15 C 597.66 485.14 594.32 484.53 591.33 482.98 C 586.23 482.61 579.58 482.08 577.07 476.84 C 575.87 474.57 577.85 472.68 579.25 471.15 C 577.52 469.95 576.09 468.27 576.47 466.01 C 576.85 457.06 578.96 448.09 583.11 440.12 C 585.00 436.42 587.21 432.44 586.48 428.12 C 585.49 421.32 581.80 415.33 580.22 408.69 C 577.06 396.35 575.64 383.62 574.91 370.92 C 574.81 369.27 574.19 367.74 573.63 366.21 C 570.53 368.27 567.68 370.66 564.75 372.94 C 562.68 368.10 562.36 362.78 561.18 357.70 C 559.67 350.91 558.46 344.04 556.35 337.41 C 556.10 345.95 556.14 354.50 555.66 363.04 C 555.66 371.68 554.09 380.53 549.60 388.03 C 551.10 391.39 551.95 395.38 549.61 398.59 C 546.02 403.91 548.80 410.31 550.40 415.80 C 553.36 424.95 552.79 434.67 553.98 444.10 C 554.24 447.94 557.98 450.26 558.82 453.92 C 560.90 460.55 556.16 466.47 555.41 472.88 C 553.14 481.89 555.60 491.04 557.11 499.95 C 561.65 530.91 557.96 562.34 552.88 592.99 C 550.86 605.23 549.54 617.59 549.47 630.00 C 549.39 641.83 548.19 653.65 546.07 665.28 C 545.18 668.33 545.30 672.31 542.28 674.20 C 538.64 676.16 534.36 675.16 530.44 674.97 C 531.22 690.82 525.45 705.99 519.64 720.44 C 516.01 729.13 515.94 738.75 516.80 747.99 C 517.50 759.99 518.76 771.99 518.31 784.02 C 518.19 795.42 517.69 806.95 514.79 818.04 C 507.80 844.29 495.68 868.87 489.20 895.28 C 487.69 901.41 488.47 907.75 488.50 913.99 C 488.99 919.90 488.55 926.16 491.29 931.61 C 496.35 941.43 504.36 949.22 511.77 957.26 C 514.06 960.01 517.01 963.14 516.53 967.01 C 515.40 970.64 511.69 972.71 508.16 973.37 C 501.85 974.60 495.37 975.09 488.95 974.59 C 484.52 973.90 480.34 976.07 475.94 976.12 C 466.94 976.49 457.85 976.35 448.98 974.70 C 442.30 973.65 437.12 967.85 435.74 961.40 C 432.98 949.33 434.51 936.78 436.83 924.78 C 437.65 919.80 440.01 915.12 439.99 910.01 C 440.37 899.65 440.34 889.18 438.40 878.97 C 434.29 861.06 426.22 844.24 423.06 826.09 C 419.23 806.28 421.01 786.01 422.07 766.03 C 423.02 745.86 422.42 725.64 420.75 705.53 C 418.85 692.72 416.66 679.85 417.41 666.85 C 415.72 667.18 414.06 667.68 412.34 667.68 C 409.56 663.22 409.48 657.74 408.21 652.77 C 407.08 646.38 403.83 640.71 401.06 634.94 C 392.81 619.04 390.55 600.96 388.36 583.43 C 387.37 577.64 386.71 571.81 386.12 565.97 C 385.52 560.01 382.54 554.68 381.39 548.86 C 377.11 529.73 379.49 509.80 384.03 490.95 C 379.26 487.93 378.49 481.68 379.31 476.55 C 380.50 469.43 382.21 462.27 381.55 454.99 C 381.35 448.04 377.21 441.34 379.45 434.35 C 380.92 428.01 385.84 423.37 388.24 417.48 C 390.24 408.81 387.34 400.09 385.19 391.74 C 382.63 381.67 378.19 372.23 375.13 362.31 C 375.13 369.24 374.98 376.16 374.75 383.08 C 374.53 386.36 374.46 389.85 372.76 392.77 C 368.67 394.17 364.27 393.41 360.06 393.13 C 359.62 399.36 357.61 405.34 354.98 410.97 C 347.15 427.54 337.48 443.18 330.00 459.92 C 325.59 469.09 322.39 478.77 319.45 488.49 C 317.89 494.55 315.94 501.00 317.86 507.21 C 319.83 513.62 322.56 520.17 321.50 527.02 C 320.49 533.23 317.66 538.93 315.18 544.64 C 315.94 549.36 316.10 554.87 312.73 558.68 C 307.04 564.97 296.49 564.73 289.77 560.35 C 284.04 552.36 280.01 543.20 276.83 533.92 C 272.97 522.81 276.94 511.08 280.68 500.52 C 285.35 488.07 288.87 475.13 290.53 461.92 C 293.91 442.71 296.29 423.18 302.86 404.70 C 306.55 392.91 312.34 381.98 318.39 371.26 C 315.94 369.42 313.44 367.65 311.02 365.78 C 313.15 362.06 316.61 359.30 318.51 355.43 C 322.69 348.32 322.40 339.80 324.04 331.95 C 325.66 323.31 330.34 315.73 333.36 307.58 C 335.37 302.25 335.23 296.49 335.57 290.89 C 336.84 277.12 337.56 263.08 342.00 249.86 C 343.61 244.74 347.82 241.09 352.03 238.04 C 359.85 232.54 368.47 228.34 376.88 223.84 C 382.07 221.07 387.05 217.93 392.24 215.17 C 400.37 211.01 407.07 204.70 414.39 199.35 C 421.67 194.32 428.15 188.14 436.00 183.97 C 435.68 175.70 435.36 167.23 432.54 159.36 C 427.65 145.11 425.08 130.08 424.79 115.03 C 424.71 100.71 428.89 86.09 437.75 74.71 M 445.64 89.31 C 441.75 97.89 440.16 107.22 438.48 116.42 C 446.11 116.89 453.73 117.56 461.28 118.74 C 461.70 121.97 462.77 125.40 461.57 128.58 C 452.23 128.47 442.91 126.94 433.59 126.16 C 432.62 129.39 431.04 132.55 430.83 135.94 C 432.60 145.29 434.32 154.81 438.50 163.43 C 442.25 173.92 449.44 183.39 459.26 188.82 C 466.29 191.00 474.48 188.91 479.99 184.08 C 487.62 177.57 493.85 169.49 498.76 160.77 C 501.67 155.95 500.84 149.92 499.26 144.81 C 496.53 140.18 493.03 135.96 491.31 130.78 C 483.89 129.88 476.19 130.49 468.99 128.25 C 471.42 123.71 475.13 117.83 481.07 118.56 C 488.47 118.55 495.87 118.52 503.27 118.64 C 505.69 116.12 508.13 113.61 510.49 111.02 C 505.49 103.34 499.62 95.94 491.90 90.83 C 491.77 96.44 491.15 102.03 489.77 107.48 C 486.13 101.55 481.78 95.88 475.46 92.61 C 475.19 97.41 474.74 102.22 473.57 106.89 C 470.84 100.70 468.39 93.94 462.67 89.82 C 461.34 94.43 460.29 99.11 458.52 103.58 C 454.80 98.34 450.55 93.46 445.64 89.31 M 476.96 189.92 C 470.99 192.80 463.64 194.87 457.33 191.84 C 449.93 188.52 443.77 182.74 439.54 175.85 C 440.64 186.63 441.15 197.50 440.24 208.32 C 450.68 224.01 462.11 239.06 475.11 252.74 C 479.14 246.27 483.03 239.73 487.80 233.76 C 495.07 222.56 505.41 211.50 504.83 197.24 C 502.99 196.20 500.50 195.69 499.56 193.58 C 496.11 185.43 496.79 176.30 498.32 167.80 C 492.65 176.35 485.99 184.74 476.96 189.92 M 428.98 192.74 C 431.37 196.20 433.84 199.61 436.39 202.96 C 436.48 198.19 436.52 193.42 436.35 188.65 C 433.88 190.00 431.42 191.35 428.98 192.74 M 386.98 223.89 C 375.13 231.24 362.04 236.51 350.70 244.70 C 348.07 246.50 346.00 249.10 345.11 252.19 C 341.29 264.41 340.68 277.29 339.51 289.95 C 339.09 296.14 339.58 302.51 337.65 308.50 C 335.05 316.54 330.29 323.79 328.56 332.12 C 327.37 338.11 326.91 344.23 325.39 350.16 C 323.89 355.75 320.63 360.79 316.40 364.71 C 322.82 369.37 329.29 374.00 336.37 377.61 C 347.16 383.12 358.09 389.71 370.57 389.92 C 370.46 377.61 370.72 365.29 370.10 352.99 C 369.67 344.62 370.84 336.29 370.94 327.93 C 370.97 325.51 371.30 323.09 371.84 320.73 C 373.81 331.03 374.31 341.55 374.46 352.02 C 377.82 345.74 382.15 339.86 383.98 332.88 C 386.88 321.89 388.26 310.58 389.05 299.27 C 389.87 300.37 390.99 301.45 390.98 302.95 C 391.83 312.92 390.64 322.99 388.60 332.75 C 395.69 328.97 403.28 326.22 410.27 322.23 C 412.94 320.69 415.62 319.14 418.53 318.09 C 415.75 322.13 411.25 324.41 407.42 327.30 C 401.36 331.77 393.82 333.52 387.56 337.61 C 384.29 343.43 380.79 349.16 377.21 354.81 C 378.87 358.25 380.36 361.78 381.52 365.42 C 384.07 373.46 387.64 381.17 389.42 389.44 C 391.28 397.61 393.71 405.72 394.54 414.06 C 395.06 423.90 384.62 429.51 383.73 438.94 C 383.58 443.78 385.93 448.22 386.31 453.00 C 387.43 461.02 385.65 469.01 383.85 476.79 C 382.97 480.04 383.46 483.41 384.03 486.67 C 391.18 486.67 398.17 485.02 405.13 483.53 C 413.47 481.64 421.76 479.47 429.92 476.87 C 437.29 474.79 444.47 471.93 452.09 470.80 C 459.99 469.24 468.10 469.51 476.09 470.24 C 489.09 471.55 502.04 473.39 515.09 474.33 C 527.03 475.16 538.81 477.68 550.81 477.70 C 551.06 475.64 551.31 473.59 551.57 471.55 C 543.31 468.44 537.44 461.45 529.82 457.22 C 523.61 453.38 516.28 452.25 509.72 449.23 C 503.74 446.53 497.41 444.62 491.72 441.29 C 475.69 433.07 462.00 421.17 448.27 409.68 C 442.41 404.73 434.64 403.06 428.46 398.62 C 422.39 394.37 418.28 388.08 413.20 382.81 C 410.07 379.44 406.53 376.50 403.31 373.22 C 405.39 374.18 407.47 375.23 409.23 376.72 C 415.20 381.73 420.80 387.16 426.45 392.52 C 430.97 396.87 436.89 399.19 442.62 401.46 C 449.15 404.02 454.23 409.00 459.52 413.41 C 474.21 425.31 489.49 437.29 507.68 443.32 C 516.27 447.48 526.12 448.52 534.20 453.81 C 540.83 457.87 546.04 463.77 552.46 468.11 C 554.37 463.91 556.71 458.94 554.50 454.40 C 552.01 450.05 547.86 447.00 543.83 444.20 C 535.07 438.32 526.66 431.93 517.86 426.12 C 510.15 420.99 501.90 416.77 494.02 411.94 C 481.67 404.61 470.54 395.48 459.01 386.97 C 455.67 384.47 452.09 382.11 449.72 378.58 C 454.26 380.14 458.04 383.16 461.96 385.83 C 474.13 394.24 486.92 401.68 499.36 409.67 C 516.45 420.38 533.26 431.53 550.04 442.71 C 549.12 434.78 549.34 426.66 547.15 418.91 C 545.84 413.67 543.48 408.44 544.30 402.92 C 544.59 399.34 546.45 396.21 547.59 392.89 C 546.29 389.60 543.48 387.31 541.34 384.61 C 535.37 377.30 530.43 369.19 526.33 360.70 C 524.89 357.56 522.57 354.39 523.47 350.75 C 527.20 355.11 529.59 360.38 532.89 365.04 C 537.59 371.74 541.74 378.83 547.00 385.13 C 549.06 379.27 551.22 373.32 551.43 367.05 C 551.73 358.04 552.61 349.02 551.99 340.01 C 551.36 331.31 551.46 322.55 552.48 313.89 C 553.26 307.64 553.02 300.98 556.29 295.37 C 557.53 298.12 556.57 301.10 556.39 303.95 C 555.89 309.45 555.81 314.98 555.13 320.46 C 557.23 312.90 559.94 305.36 564.15 298.72 C 563.92 305.83 560.13 312.09 558.80 318.97 C 558.13 322.31 557.49 325.71 557.59 329.14 C 558.86 333.50 561.52 337.36 562.41 341.87 C 564.26 350.29 565.96 358.78 566.71 367.39 C 573.24 361.19 581.39 357.03 589.65 353.64 C 598.41 350.26 607.63 347.56 617.11 347.79 C 616.12 339.59 615.26 331.12 611.26 323.73 C 607.40 316.65 604.68 309.05 601.38 301.71 C 597.21 290.79 592.88 279.78 591.30 268.13 C 590.09 259.52 588.65 250.18 582.25 243.73 C 573.14 234.55 560.84 229.74 550.16 222.76 C 545.75 219.84 541.28 217.02 536.89 214.09 C 527.45 207.52 518.54 200.06 508.23 194.85 C 509.78 203.44 507.04 212.16 502.48 219.40 C 497.83 226.70 492.84 233.77 487.86 240.84 C 483.85 246.82 480.27 253.08 476.36 259.12 C 470.00 254.67 465.52 248.22 460.49 242.44 C 452.97 233.81 446.52 224.33 440.28 214.74 C 435.81 207.87 430.82 201.30 427.04 193.99 C 414.05 204.43 401.47 215.51 386.98 223.89 M 576.42 364.50 C 579.03 368.21 578.86 372.86 579.37 377.17 C 580.53 390.22 582.39 403.39 587.18 415.67 C 589.05 420.62 591.21 425.70 590.88 431.11 C 590.67 436.36 587.29 440.65 585.66 445.48 C 582.84 452.31 581.58 459.68 581.33 467.04 C 586.94 463.67 586.20 456.01 590.43 451.49 C 591.61 449.98 594.37 447.80 595.86 450.08 C 599.34 455.04 600.02 462.79 595.20 467.16 C 591.25 471.69 585.12 472.76 580.11 475.63 C 583.27 478.20 587.27 479.19 591.22 479.81 C 595.32 474.13 601.68 470.71 606.17 465.36 L 607.35 465.89 C 607.19 473.07 599.52 476.42 595.00 480.87 C 600.69 481.49 606.78 482.36 612.25 480.23 C 615.47 477.80 616.72 473.65 617.50 469.86 C 619.53 459.93 616.22 449.99 616.82 440.03 C 617.47 431.23 618.06 422.39 619.87 413.73 C 621.59 401.87 623.49 389.71 621.02 377.81 C 619.48 368.46 613.99 360.56 609.72 352.31 C 597.99 354.30 586.87 358.90 576.42 364.50 M 321.49 373.63 C 319.09 379.02 315.87 383.99 313.41 389.35 C 307.98 401.08 304.04 413.45 300.94 425.99 C 298.32 436.47 297.21 447.24 295.35 457.87 C 294.25 467.46 292.99 477.07 290.20 486.35 C 287.22 499.03 280.86 510.88 279.81 524.00 C 280.18 534.21 285.64 543.26 289.67 552.39 C 291.59 557.77 298.10 558.71 303.07 558.73 C 306.99 558.85 309.88 555.86 311.67 552.69 C 308.38 553.01 304.86 553.74 301.75 552.20 C 297.95 550.80 295.27 546.16 297.00 542.27 C 298.54 538.70 300.18 534.88 303.16 532.27 C 304.90 531.49 305.66 533.68 305.78 535.01 C 306.19 539.62 306.59 544.28 308.19 548.67 C 310.40 545.00 312.73 541.34 314.11 537.25 C 316.05 531.72 318.27 525.86 316.96 519.92 C 315.48 511.98 311.23 504.24 313.34 495.96 C 318.72 469.69 331.82 445.93 344.72 422.71 C 350.00 413.06 355.29 403.07 356.72 392.00 C 344.00 388.08 332.27 381.34 321.49 373.63 M 585.41 469.02 C 588.52 467.04 592.20 465.31 593.90 461.82 C 594.99 459.57 593.89 457.05 593.64 454.75 C 590.85 459.49 589.56 465.16 585.41 469.02 M 430.67 480.79 C 416.91 485.15 402.86 488.81 388.53 490.70 C 383.96 510.78 381.07 532.17 386.89 552.30 C 389.30 558.21 391.07 564.38 391.35 570.80 C 393.63 585.92 394.76 601.29 399.08 616.04 C 401.11 625.26 406.17 633.36 409.91 641.94 C 412.89 648.79 413.14 656.36 414.33 663.64 C 435.56 657.25 455.34 647.10 475.96 639.09 C 477.89 638.54 480.45 637.24 482.20 638.85 C 483.81 645.21 483.89 651.84 484.88 658.31 C 494.65 658.62 503.31 663.62 512.48 666.39 C 521.54 669.04 530.88 671.11 540.37 671.11 C 541.59 665.13 543.02 659.18 543.34 653.07 C 545.44 639.80 544.78 626.32 545.79 612.97 C 546.53 601.72 548.41 590.58 550.15 579.45 C 552.77 560.09 554.94 540.55 553.85 520.98 C 554.30 507.70 550.26 494.74 550.81 481.48 C 544.83 481.88 538.84 481.37 532.89 480.80 C 519.58 479.09 506.16 478.40 492.86 476.58 C 483.27 475.58 473.72 473.97 464.06 473.88 C 452.56 473.91 441.61 477.71 430.67 480.79 M 301.86 540.30 C 301.48 541.97 300.64 543.64 300.76 545.41 C 301.37 546.72 302.52 547.68 303.48 548.75 C 303.00 545.92 302.45 543.10 301.86 540.30 M 421.72 665.57 C 421.75 668.35 421.76 671.13 421.81 673.92 C 421.71 689.24 426.27 704.12 426.30 719.45 C 432.06 716.41 438.47 714.80 444.94 714.36 C 455.82 713.53 467.25 715.04 476.72 720.75 C 477.55 713.44 479.80 706.40 480.60 699.10 C 481.77 689.43 482.26 679.66 481.62 669.94 C 481.12 660.71 479.73 651.57 479.18 642.36 C 460.06 650.18 441.61 659.76 421.72 665.57 M 485.23 662.73 C 486.60 678.74 486.18 695.09 482.45 710.78 C 480.68 717.01 480.18 723.48 480.56 729.94 C 489.37 735.68 500.74 738.21 511.00 735.33 C 512.06 727.97 513.68 720.67 516.60 713.82 C 521.91 701.29 525.44 687.96 526.40 674.37 C 522.10 673.56 517.82 672.66 513.60 671.54 C 503.99 669.09 495.11 664.22 485.23 662.73 M 426.68 723.00 C 427.39 734.99 427.25 747.01 427.19 759.02 C 426.73 780.68 423.64 802.56 427.53 824.08 C 429.24 835.63 433.23 846.65 436.38 857.85 C 438.58 866.21 440.90 874.53 442.97 882.92 C 444.70 890.92 444.71 899.19 444.37 907.34 C 448.22 903.11 452.46 898.74 457.96 896.80 C 465.75 895.63 472.64 900.89 477.73 906.21 C 475.88 896.94 474.23 887.53 474.40 878.05 C 474.30 872.01 473.82 865.97 474.18 859.94 C 475.19 847.88 477.48 835.98 479.06 823.99 C 480.86 807.05 481.03 789.93 479.56 772.96 C 478.69 757.54 474.66 742.26 476.22 726.74 C 461.64 717.48 442.63 717.40 426.68 723.00 M 480.49 734.72 C 481.24 741.10 481.60 747.52 482.63 753.86 C 486.22 777.55 486.37 801.68 483.87 825.48 C 482.44 837.66 479.86 849.69 478.91 861.93 C 478.57 867.97 479.08 874.01 478.86 880.06 C 478.55 889.74 480.36 899.29 482.55 908.68 C 483.13 908.44 484.29 907.95 484.87 907.71 C 485.12 902.09 484.59 896.39 485.95 890.88 C 492.46 863.51 505.21 838.03 511.19 810.52 C 514.52 787.36 512.23 763.89 511.28 740.64 C 500.83 743.64 489.27 740.87 480.49 734.72 M 450.93 905.91 C 448.05 908.53 445.11 911.45 444.13 915.36 C 441.24 924.74 440.23 934.54 439.05 944.25 C 442.67 937.19 447.03 930.19 453.57 925.47 C 458.23 922.07 464.30 920.22 470.02 921.60 C 476.97 923.17 482.50 928.17 486.72 933.69 C 484.54 926.61 482.90 919.19 479.29 912.68 C 474.29 907.47 468.33 902.29 461.00 900.99 C 456.87 900.02 453.79 903.56 450.93 905.91 M 483.94 911.43 C 484.76 913.47 485.59 915.52 486.42 917.57 C 486.29 915.46 486.16 913.37 486.03 911.27 C 485.50 911.31 484.46 911.39 483.94 911.43 M 460.31 926.32 C 452.36 929.47 447.23 936.88 443.11 944.01 C 441.31 947.43 438.63 950.88 439.22 954.99 C 439.64 959.15 440.06 963.80 442.94 967.07 C 447.79 971.51 454.83 971.43 460.99 971.96 C 468.51 972.08 476.36 973.02 483.62 970.58 C 490.02 967.87 491.60 960.27 491.54 954.02 C 491.41 944.57 485.15 936.64 478.39 930.65 C 473.57 926.39 466.57 923.84 460.31 926.32 M 492.98 939.15 C 494.72 944.81 496.46 950.72 495.65 956.71 C 494.96 961.88 492.28 966.45 489.78 970.93 C 495.70 970.85 501.66 970.71 507.49 969.61 C 509.76 969.17 512.36 968.34 513.24 965.95 C 512.08 961.62 508.49 958.63 505.57 955.46 C 500.70 950.58 496.43 945.12 492.98 939.15 Z" />
		<path fill="#020202" opacity="1.00"
			d=" M 464.39 145.40 C 466.16 141.55 466.57 137.15 468.85 133.52 C 468.84 142.09 468.85 150.72 467.79 159.23 C 465.14 156.37 462.13 153.89 458.84 151.80 C 460.84 149.81 463.17 148.02 464.39 145.40 Z" />
		<path fill="#020202" opacity="1.00"
			d=" M 466.50 330.48 C 476.88 342.40 487.87 353.81 499.73 364.27 C 510.31 374.04 521.11 383.57 531.55 393.48 C 534.48 396.58 537.86 399.39 540.05 403.11 C 541.28 406.17 537.76 408.69 534.98 408.41 C 530.15 408.08 524.76 406.87 521.57 402.91 C 526.74 403.85 531.91 406.33 537.22 404.60 C 530.63 396.59 522.60 389.98 514.97 383.02 C 500.65 369.72 485.57 357.10 473.10 341.96 C 470.41 338.49 466.07 335.39 466.50 330.48 Z" />
		<path fill="#020202" opacity="1.00"
			d=" M 428.27 685.81 C 429.40 686.79 430.23 687.98 430.75 689.39 C 433.59 696.66 436.27 704.44 442.11 709.93 C 443.10 710.72 443.49 711.75 443.28 713.04 C 438.48 712.80 435.81 708.02 433.72 704.30 C 431.11 698.43 428.97 692.21 428.27 685.81 Z" />
	</g>
	<g id="#f0b58bff">
		<path fill="#f0b58b" opacity="1.00"
			d=" M 445.64 89.31 C 450.55 93.46 454.80 98.34 458.52 103.58 C 460.29 99.11 461.34 94.43 462.67 89.82 C 468.39 93.94 470.84 100.70 473.57 106.89 C 474.74 102.22 475.19 97.41 475.46 92.61 C 481.78 95.88 486.13 101.55 489.77 107.48 C 491.15 102.03 491.77 96.44 491.90 90.83 C 499.62 95.94 505.49 103.34 510.49 111.02 C 508.13 113.61 505.69 116.12 503.27 118.64 C 495.87 118.52 488.47 118.55 481.07 118.56 C 475.13 117.83 471.42 123.71 468.99 128.25 C 476.19 130.49 483.89 129.88 491.31 130.78 C 493.03 135.96 496.53 140.18 499.26 144.81 C 500.84 149.92 501.67 155.95 498.76 160.77 C 493.85 169.49 487.62 177.57 479.99 184.08 C 474.48 188.91 466.29 191.00 459.26 188.82 C 449.44 183.39 442.25 173.92 438.50 163.43 C 434.32 154.81 432.60 145.29 430.83 135.94 C 431.04 132.55 432.62 129.39 433.59 126.16 C 442.91 126.94 452.23 128.47 461.57 128.58 C 462.77 125.40 461.70 121.97 461.28 118.74 C 453.73 117.56 446.11 116.89 438.48 116.42 C 440.16 107.22 441.75 97.89 445.64 89.31 M 464.39 145.40 C 463.17 148.02 460.84 149.81 458.84 151.80 C 462.13 153.89 465.14 156.37 467.79 159.23 C 468.85 150.72 468.84 142.09 468.85 133.52 C 466.57 137.15 466.16 141.55 464.39 145.40 Z" />
		<path fill="#f0b58b" opacity="1.00"
			d=" M 476.96 189.92 C 485.99 184.74 492.65 176.35 498.32 167.80 C 496.79 176.30 496.11 185.43 499.56 193.58 C 500.50 195.69 502.99 196.20 504.83 197.24 C 505.41 211.50 495.07 222.56 487.80 233.76 C 483.03 239.73 479.14 246.27 475.11 252.74 C 462.11 239.06 450.68 224.01 440.24 208.32 C 441.15 197.50 440.64 186.63 439.54 175.85 C 443.77 182.74 449.93 188.52 457.33 191.84 C 463.64 194.87 470.99 192.80 476.96 189.92 Z" />
		<path fill="#f0b58b" opacity="1.00"
			d=" M 576.42 364.50 C 586.87 358.90 597.99 354.30 609.72 352.31 C 613.99 360.56 619.48 368.46 621.02 377.81 C 623.49 389.71 621.59 401.87 619.87 413.73 C 618.06 422.39 617.47 431.23 616.82 440.03 C 616.22 449.99 619.53 459.93 617.50 469.86 C 616.72 473.65 615.47 477.80 612.25 480.23 C 606.78 482.36 600.69 481.49 595.00 480.87 C 599.52 476.42 607.19 473.07 607.35 465.89 L 606.17 465.36 C 601.68 470.71 595.32 474.13 591.22 479.81 C 587.27 479.19 583.27 478.20 580.11 475.63 C 585.12 472.76 591.25 471.69 595.20 467.16 C 600.02 462.79 599.34 455.04 595.86 450.08 C 594.37 447.80 591.61 449.98 590.43 451.49 C 586.20 456.01 586.94 463.67 581.33 467.04 C 581.58 459.68 582.84 452.31 585.66 445.48 C 587.29 440.65 590.67 436.36 590.88 431.11 C 591.21 425.70 589.05 420.62 587.18 415.67 C 582.39 403.39 580.53 390.22 579.37 377.17 C 578.86 372.86 579.03 368.21 576.42 364.50 Z" />
		<path fill="#f0b58b" opacity="1.00"
			d=" M 321.49 373.63 C 332.27 381.34 344.00 388.08 356.72 392.00 C 355.29 403.07 350.00 413.06 344.72 422.71 C 331.82 445.93 318.72 469.69 313.34 495.96 C 311.23 504.24 315.48 511.98 316.96 519.92 C 318.27 525.86 316.05 531.72 314.11 537.25 C 312.73 541.34 310.40 545.00 308.19 548.67 C 306.59 544.28 306.19 539.62 305.78 535.01 C 305.66 533.68 304.90 531.49 303.16 532.27 C 300.18 534.88 298.54 538.70 297.00 542.27 C 295.27 546.16 297.95 550.80 301.75 552.20 C 304.86 553.74 308.38 553.01 311.67 552.69 C 309.88 555.86 306.99 558.85 303.07 558.73 C 298.10 558.71 291.59 557.77 289.67 552.39 C 285.64 543.26 280.18 534.21 279.81 524.00 C 280.86 510.88 287.22 499.03 290.20 486.35 C 292.99 477.07 294.25 467.46 295.35 457.87 C 297.21 447.24 298.32 436.47 300.94 425.99 C 304.04 413.45 307.98 401.08 313.41 389.35 C 315.87 383.99 319.09 379.02 321.49 373.63 Z" />
		<path fill="#f0b58b" opacity="1.00"
			d=" M 421.72 665.57 C 441.61 659.76 460.06 650.18 479.18 642.36 C 479.73 651.57 481.12 660.71 481.62 669.94 C 482.26 679.66 481.77 689.43 480.60 699.10 C 479.80 706.40 477.55 713.44 476.72 720.75 C 467.25 715.04 455.82 713.53 444.94 714.36 C 438.47 714.80 432.06 716.41 426.30 719.45 C 426.27 704.12 421.71 689.24 421.81 673.92 C 421.76 671.13 421.75 668.35 421.72 665.57 M 428.27 685.81 C 428.97 692.21 431.11 698.43 433.72 704.30 C 435.81 708.02 438.48 712.80 443.28 713.04 C 443.49 711.75 443.10 710.72 442.11 709.93 C 436.27 704.44 433.59 696.66 430.75 689.39 C 430.23 687.98 429.40 686.79 428.27 685.81 Z" />
		<path fill="#f0b58b" opacity="1.00"
			d=" M 485.23 662.73 C 495.11 664.22 503.99 669.09 513.60 671.54 C 517.82 672.66 522.10 673.56 526.40 674.37 C 525.44 687.96 521.91 701.29 516.60 713.82 C 513.68 720.67 512.06 727.97 511.00 735.33 C 500.74 738.21 489.37 735.68 480.56 729.94 C 480.18 723.48 480.68 717.01 482.45 710.78 C 486.18 695.09 486.60 678.74 485.23 662.73 Z" />
	</g>
	<g id="#f11b27ff">
		<path fill="var(--shirt-color, grey)" opacity="1.00"
			d=" M 428.98 192.74 C 431.42 191.35 433.88 190.00 436.35 188.65 C 436.52 193.42 436.48 198.19 436.39 202.96 C 433.84 199.61 431.37 196.20 428.98 192.74 Z" />
		<path fill="var(--shirt-color, grey)" opacity="1.00"
			d=" M 386.98 223.89 C 401.47 215.51 414.05 204.43 427.04 193.99 C 430.82 201.30 435.81 207.87 440.28 214.74 C 446.52 224.33 452.97 233.81 460.49 242.44 C 465.52 248.22 470.00 254.67 476.36 259.12 C 480.27 253.08 483.85 246.82 487.86 240.84 C 492.84 233.77 497.83 226.70 502.48 219.40 C 507.04 212.16 509.78 203.44 508.23 194.85 C 518.54 200.06 527.45 207.52 536.89 214.09 C 541.28 217.02 545.75 219.84 550.16 222.76 C 560.84 229.74 573.14 234.55 582.25 243.73 C 588.65 250.18 590.09 259.52 591.30 268.13 C 592.88 279.78 597.21 290.79 601.38 301.71 C 604.68 309.05 607.40 316.65 611.26 323.73 C 615.26 331.12 616.12 339.59 617.11 347.79 C 607.63 347.56 598.41 350.26 589.65 353.64 C 581.39 357.03 573.24 361.19 566.71 367.39 C 565.96 358.78 564.26 350.29 562.41 341.87 C 561.52 337.36 558.86 333.50 557.59 329.14 C 557.49 325.71 558.13 322.31 558.80 318.97 C 560.13 312.09 563.92 305.83 564.15 298.72 C 559.94 305.36 557.23 312.90 555.13 320.46 C 555.81 314.98 555.89 309.45 556.39 303.95 C 556.57 301.10 557.53 298.12 556.29 295.37 C 553.02 300.98 553.26 307.64 552.48 313.89 C 551.46 322.55 551.36 331.31 551.99 340.01 C 552.61 349.02 551.73 358.04 551.43 367.05 C 551.22 373.32 549.06 379.27 547.00 385.13 C 541.74 378.83 537.59 371.74 532.89 365.04 C 529.59 360.38 527.20 355.11 523.47 350.75 C 522.57 354.39 524.89 357.56 526.33 360.70 C 530.43 369.19 535.37 377.30 541.34 384.61 C 543.48 387.31 546.29 389.60 547.59 392.89 C 546.45 396.21 544.59 399.34 544.30 402.92 C 543.48 408.44 545.84 413.67 547.15 418.91 C 549.34 426.66 549.12 434.78 550.04 442.71 C 533.26 431.53 516.45 420.38 499.36 409.67 C 486.92 401.68 474.13 394.24 461.96 385.83 C 458.04 383.16 454.26 380.14 449.72 378.58 C 452.09 382.11 455.67 384.47 459.01 386.97 C 470.54 395.48 481.67 404.61 494.02 411.94 C 501.90 416.77 510.15 420.99 517.86 426.12 C 526.66 431.93 535.07 438.32 543.83 444.20 C 547.86 447.00 552.01 450.05 554.50 454.40 C 556.71 458.94 554.37 463.91 552.46 468.11 C 546.04 463.77 540.83 457.87 534.20 453.81 C 526.12 448.52 516.27 447.48 507.68 443.32 C 489.49 437.29 474.21 425.31 459.52 413.41 C 454.23 409.00 449.15 404.02 442.62 401.46 C 436.89 399.19 430.97 396.87 426.45 392.52 C 420.80 387.16 415.20 381.73 409.23 376.72 C 407.47 375.23 405.39 374.18 403.31 373.22 C 406.53 376.50 410.07 379.44 413.20 382.81 C 418.28 388.08 422.39 394.37 428.46 398.62 C 434.64 403.06 442.41 404.73 448.27 409.68 C 462.00 421.17 475.69 433.07 491.72 441.29 C 497.41 444.62 503.74 446.53 509.72 449.23 C 516.28 452.25 523.61 453.38 529.82 457.22 C 537.44 461.45 543.31 468.44 551.57 471.55 C 551.31 473.59 551.06 475.64 550.81 477.70 C 538.81 477.68 527.03 475.16 515.09 474.33 C 502.04 473.39 489.09 471.55 476.09 470.24 C 468.10 469.51 459.99 469.24 452.09 470.80 C 444.47 471.93 437.29 474.79 429.92 476.87 C 421.76 479.47 413.47 481.64 405.13 483.53 C 398.17 485.02 391.18 486.67 384.03 486.67 C 383.46 483.41 382.97 480.04 383.85 476.79 C 385.65 469.01 387.43 461.02 386.31 453.00 C 385.93 448.22 383.58 443.78 383.73 438.94 C 384.62 429.51 395.06 423.90 394.54 414.06 C 393.71 405.72 391.28 397.61 389.42 389.44 C 387.64 381.17 384.07 373.46 381.52 365.42 C 380.36 361.78 378.87 358.25 377.21 354.81 C 380.79 349.16 384.29 343.43 387.56 337.61 C 393.82 333.52 401.36 331.77 407.42 327.30 C 411.25 324.41 415.75 322.13 418.53 318.09 C 415.62 319.14 412.94 320.69 410.27 322.23 C 403.28 326.22 395.69 328.97 388.60 332.75 C 390.64 322.99 391.83 312.92 390.98 302.95 C 390.99 301.45 389.87 300.37 389.05 299.27 C 388.26 310.58 386.88 321.89 383.98 332.88 C 382.15 339.86 377.82 345.74 374.46 352.02 C 374.31 341.55 373.81 331.03 371.84 320.73 C 371.30 323.09 370.97 325.51 370.94 327.93 C 370.84 336.29 369.67 344.62 370.10 352.99 C 370.72 365.29 370.46 377.61 370.57 389.92 C 358.09 389.71 347.16 383.12 336.37 377.61 C 329.29 374.00 322.82 369.37 316.40 364.71 C 320.63 360.79 323.89 355.75 325.39 350.16 C 326.91 344.23 327.37 338.11 328.56 332.12 C 330.29 323.79 335.05 316.54 337.65 308.50 C 339.58 302.51 339.09 296.14 339.51 289.95 C 340.68 277.29 341.29 264.41 345.11 252.19 C 346.00 249.10 348.07 246.50 350.70 244.70 C 362.04 236.51 375.13 231.24 386.98 223.89 M 466.50 330.48 C 466.07 335.39 470.41 338.49 473.10 341.96 C 485.57 357.10 500.65 369.72 514.97 383.02 C 522.60 389.98 530.63 396.59 537.22 404.60 C 531.91 406.33 526.74 403.85 521.57 402.91 C 524.76 406.87 530.15 408.08 534.98 408.41 C 537.76 408.69 541.28 406.17 540.05 403.11 C 537.86 399.39 534.48 396.58 531.55 393.48 C 521.11 383.57 510.31 374.04 499.73 364.27 C 487.87 353.81 476.88 342.40 466.50 330.48 Z" />
	</g>
	<g id="#ffffffff">
		<path fill="var(--pants-color, grey)" opacity="1.00"
			d=" M 430.67 480.79 C 441.61 477.71 452.56 473.91 464.06 473.88 C 473.72 473.97 483.27 475.58 492.86 476.58 C 506.16 478.40 519.58 479.09 532.89 480.80 C 538.84 481.37 544.83 481.88 550.81 481.48 C 550.26 494.74 554.30 507.70 553.85 520.98 C 554.94 540.55 552.77 560.09 550.15 579.45 C 548.41 590.58 546.53 601.72 545.79 612.97 C 544.78 626.32 545.44 639.80 543.34 653.07 C 543.02 659.18 541.59 665.13 540.37 671.11 C 530.88 671.11 521.54 669.04 512.48 666.39 C 503.31 663.62 494.65 658.62 484.88 658.31 C 483.89 651.84 483.81 645.21 482.20 638.85 C 480.45 637.24 477.89 638.54 475.96 639.09 C 455.34 647.10 435.56 657.25 414.33 663.64 C 413.14 656.36 412.89 648.79 409.91 641.94 C 406.17 633.36 401.11 625.26 399.08 616.04 C 394.76 601.29 393.63 585.92 391.35 570.80 C 391.07 564.38 389.30 558.21 386.89 552.30 C 381.07 532.17 383.96 510.78 388.53 490.70 C 402.86 488.81 416.91 485.15 430.67 480.79 Z" />
		<path fill="var(--socks-color, grey)" opacity="1.00"
			d=" M 426.68 723.00 C 442.63 717.40 461.64 717.48 476.22 726.74 C 474.66 742.26 478.69 757.54 479.56 772.96 C 481.03 789.93 480.86 807.05 479.06 823.99 C 477.48 835.98 475.19 847.88 474.18 859.94 C 473.82 865.97 474.30 872.01 474.40 878.05 C 474.23 887.53 475.88 896.94 477.73 906.21 C 472.64 900.89 465.75 895.63 457.96 896.80 C 452.46 898.74 448.22 903.11 444.37 907.34 C 444.71 899.19 444.70 890.92 442.97 882.92 C 440.90 874.53 438.58 866.21 436.38 857.85 C 433.23 846.65 429.24 835.63 427.53 824.08 C 423.64 802.56 426.73 780.68 427.19 759.02 C 427.25 747.01 427.39 734.99 426.68 723.00 Z" />
		<path fill="var(--socks-color, grey)" opacity="1.00"
			d=" M 480.49 734.72 C 489.27 740.87 500.83 743.64 511.28 740.64 C 512.23 763.89 514.52 787.36 511.19 810.52 C 505.21 838.03 492.46 863.51 485.95 890.88 C 484.59 896.39 485.12 902.09 484.87 907.71 C 484.29 907.95 483.13 908.44 482.55 908.68 C 480.36 899.29 478.55 889.74 478.86 880.06 C 479.08 874.01 478.57 867.97 478.91 861.93 C 479.86 849.69 482.44 837.66 483.87 825.48 C 486.37 801.68 486.22 777.55 482.63 753.86 C 481.60 747.52 481.24 741.10 480.49 734.72 Z" />
	</g>
	<g id="#4d4d4dff">
		<path fill="#4d4d4d" opacity="1.00"
			d=" M 450.93 905.91 C 453.79 903.56 456.87 900.02 461.00 900.99 C 468.33 902.29 474.29 907.47 479.29 912.68 C 482.90 919.19 484.54 926.61 486.72 933.69 C 482.50 928.17 476.97 923.17 470.02 921.60 C 464.30 920.22 458.23 922.07 453.57 925.47 C 447.03 930.19 442.67 937.19 439.05 944.25 C 440.23 934.54 441.24 924.74 444.13 915.36 C 445.11 911.45 448.05 908.53 450.93 905.91 Z" />
		<path fill="#4d4d4d" opacity="1.00"
			d=" M 483.94 911.43 C 484.46 911.39 485.50 911.31 486.03 911.27 C 486.16 913.37 486.29 915.46 486.42 917.57 C 485.59 915.52 484.76 913.47 483.94 911.43 Z" />
		<path fill="#4d4d4d" opacity="1.00"
			d=" M 460.31 926.32 C 466.57 923.84 473.57 926.39 478.39 930.65 C 485.15 936.64 491.41 944.57 491.54 954.02 C 491.60 960.27 490.02 967.87 483.62 970.58 C 476.36 973.02 468.51 972.08 460.99 971.96 C 454.83 971.43 447.79 971.51 442.94 967.07 C 440.06 963.80 439.64 959.15 439.22 954.99 C 438.63 950.88 441.31 947.43 443.11 944.01 C 447.23 936.88 452.36 929.47 460.31 926.32 Z" />
		<path fill="#4d4d4d" opacity="1.00"
			d=" M 492.98 939.15 C 496.43 945.12 500.70 950.58 505.57 955.46 C 508.49 958.63 512.08 961.62 513.24 965.95 C 512.36 968.34 509.76 969.17 507.49 969.61 C 501.66 970.71 495.70 970.85 489.78 970.93 C 492.28 966.45 494.96 961.88 495.65 956.71 C 496.46 950.72 494.72 944.81 492.98 939.15 Z" />
	</g>
</svg>