<?xml version="1.0" encoding="UTF-8" ?>
<!DOCTYPE svg PUBLIC "-//W3C//DTD SVG 1.1//EN" "http://www.w3.org/Graphics/SVG/1.1/DTD/svg11.dtd">
<svg width="1000pt" height="1000pt" viewBox="0 0 1000 1000" version="1.1" xmlns="http://www.w3.org/2000/svg">
	<g id="#020202ff">
		<path fill="#020202" opacity="1.00"
			d=" M 470.95 24.86 C 481.12 18.86 493.40 16.42 505.08 18.12 C 510.46 18.81 515.27 21.47 519.96 24.01 C 527.71 28.28 534.26 34.73 538.61 42.43 C 543.29 51.34 548.29 60.64 548.36 70.99 C 547.95 82.36 547.57 93.79 545.53 105.01 C 543.76 114.45 541.13 123.70 537.94 132.75 C 536.74 139.27 537.43 145.98 537.18 152.57 C 549.67 158.64 562.94 163.39 576.74 165.29 C 584.49 166.44 592.51 166.31 599.98 168.94 C 606.78 171.42 612.86 176.05 616.85 182.13 C 620.98 188.45 625.46 194.60 628.54 201.54 C 635.12 215.00 636.54 230.11 640.78 244.32 C 644.86 259.81 653.28 273.70 657.67 289.08 C 658.36 291.84 659.02 294.95 657.58 297.60 C 654.10 303.85 648.38 308.52 642.24 312.03 C 651.54 330.81 655.45 352.25 653.10 373.08 C 651.41 391.44 651.06 410.17 654.99 428.28 C 656.86 436.73 661.70 444.10 667.31 450.54 C 671.12 455.45 676.66 459.39 678.20 465.72 C 679.47 470.73 679.06 477.23 674.41 480.41 C 670.11 483.37 665.51 486.04 662.03 490.02 C 659.11 492.97 656.92 496.97 653.00 498.70 C 645.05 500.65 637.50 493.68 636.73 486.03 C 636.99 483.86 639.11 482.76 640.55 481.42 C 638.85 476.41 638.48 470.92 635.76 466.28 C 633.47 462.31 630.86 458.44 629.74 453.93 C 627.68 447.41 629.64 440.61 629.34 433.95 C 629.06 424.53 628.02 414.98 624.82 406.07 C 621.31 395.29 614.52 385.97 611.08 375.15 C 612.20 386.38 612.19 397.69 612.56 408.96 C 612.86 420.31 613.28 431.66 613.07 443.01 C 612.83 456.37 614.18 469.84 612.04 483.10 C 611.62 486.48 609.79 489.42 607.12 491.48 C 609.61 498.73 611.22 506.26 611.68 513.92 C 613.54 531.69 611.74 549.55 609.19 567.15 C 606.61 585.21 603.09 603.21 597.67 620.63 C 593.01 621.91 588.10 621.36 583.32 621.32 C 583.20 632.51 582.93 643.91 579.68 654.70 C 578.51 658.87 575.90 662.39 574.18 666.31 C 570.53 684.00 572.70 702.20 570.47 720.05 C 568.33 736.86 565.14 753.62 559.69 769.70 C 556.43 778.80 552.39 787.60 548.46 796.42 C 542.97 808.26 546.02 821.66 547.84 834.00 C 551.72 853.57 551.29 874.19 545.29 893.30 C 541.41 906.56 532.67 919.69 519.00 924.15 C 516.43 925.33 513.87 923.73 512.19 921.86 C 507.19 916.17 503.75 909.35 500.27 902.68 C 493.72 890.95 494.31 877.01 494.25 864.01 C 495.01 849.67 494.79 835.32 495.06 820.97 C 495.10 810.01 497.52 799.06 502.14 789.11 C 504.32 785.10 503.60 780.41 504.01 776.04 C 505.70 753.71 508.39 731.43 508.64 709.01 C 508.98 692.95 508.51 676.75 511.48 660.87 C 503.80 647.92 500.65 632.26 503.96 617.46 C 499.96 617.38 495.57 617.54 492.45 620.41 C 485.57 626.39 482.52 635.43 480.21 643.98 C 478.90 648.19 479.98 652.57 479.99 656.87 C 479.16 657.31 478.33 657.75 477.51 658.20 C 477.54 667.49 477.48 676.83 475.92 686.01 C 475.03 693.80 474.38 701.79 471.00 709.00 C 467.74 716.82 461.33 723.92 462.34 732.95 C 464.23 760.33 460.85 787.67 459.71 815.01 C 459.41 827.34 459.04 839.67 459.36 852.00 C 459.76 865.47 462.47 878.72 464.08 892.07 C 464.42 895.91 466.35 899.34 467.24 903.06 C 470.64 916.86 468.75 931.23 470.86 945.19 C 472.91 954.74 476.17 964.15 476.44 973.99 C 476.37 979.40 471.70 983.11 467.37 985.51 C 456.81 991.70 443.83 992.88 432.02 990.18 C 423.69 988.39 417.32 981.69 413.49 974.39 C 408.14 962.00 409.58 948.04 411.60 935.06 C 413.46 925.02 415.24 914.57 420.81 905.79 C 422.00 903.73 423.50 901.66 423.50 899.18 C 423.74 892.82 424.21 886.33 422.59 880.11 C 420.47 871.12 416.72 862.64 412.65 854.39 C 405.11 838.89 400.68 822.04 398.16 805.04 C 395.13 784.19 394.07 763.00 396.05 742.01 C 396.97 730.92 399.04 719.97 400.90 709.01 C 401.62 704.69 400.53 700.36 400.36 696.05 C 399.37 685.13 399.20 674.00 396.26 663.37 C 394.79 662.31 391.63 662.22 391.74 659.89 C 391.48 644.43 391.22 628.96 390.25 613.53 C 387.85 587.74 385.27 561.83 386.73 535.90 C 387.59 522.47 390.44 509.27 393.15 496.12 C 388.79 486.52 386.68 475.24 389.84 464.98 C 390.56 461.73 393.24 459.62 396.18 458.40 C 395.56 453.96 395.04 449.48 395.25 445.00 C 395.88 434.35 392.90 423.98 391.89 413.45 C 391.08 407.58 391.71 401.38 389.12 395.88 C 374.92 396.80 360.57 396.27 346.58 393.57 C 339.39 391.97 332.02 389.60 326.46 384.55 C 321.12 379.90 316.14 374.77 312.08 368.95 C 309.65 365.78 311.59 361.73 312.67 358.44 C 315.25 351.15 321.96 344.49 319.35 336.19 C 316.04 325.24 319.07 313.77 322.04 303.11 C 324.57 294.50 325.98 285.58 329.12 277.15 C 332.58 267.91 336.28 258.72 341.04 250.05 C 347.81 237.20 356.57 225.56 364.14 213.21 C 368.00 206.88 370.86 200.01 374.49 193.56 C 378.14 186.91 384.77 182.65 391.36 179.30 C 401.27 174.50 411.75 171.02 422.14 167.41 C 432.61 163.74 443.70 162.20 454.00 158.02 C 459.37 156.13 464.31 153.29 469.18 150.40 C 457.25 133.45 451.91 113.04 448.17 92.94 C 445.67 75.26 447.96 56.44 456.76 40.71 C 460.56 34.72 464.63 28.46 470.95 24.86 M 468.17 51.54 C 465.45 62.44 464.21 73.67 463.18 84.84 C 469.42 84.69 475.66 84.46 481.89 84.36 C 484.39 84.58 487.18 84.18 489.42 85.52 C 491.66 88.63 491.51 92.71 491.29 96.36 C 486.18 96.78 481.08 95.91 475.97 96.06 C 470.52 96.05 465.08 96.85 459.64 96.48 C 458.40 100.34 456.63 104.04 455.81 108.02 C 455.30 114.05 457.95 119.69 459.93 125.24 C 464.95 138.22 471.81 151.16 483.00 159.87 C 489.43 164.99 498.28 167.74 506.32 165.10 C 516.13 162.04 523.17 153.79 528.36 145.29 C 531.46 140.47 531.93 134.55 531.94 128.96 C 531.89 122.93 533.31 117.02 533.57 111.01 C 529.70 106.71 527.39 101.36 524.12 96.67 C 515.91 95.66 507.65 97.19 499.43 96.79 C 500.62 92.07 502.84 86.47 508.13 85.23 C 516.66 83.53 525.61 84.63 534.01 82.15 C 537.81 80.33 539.92 76.34 542.61 73.27 C 536.90 64.82 529.15 57.88 520.41 52.68 C 521.03 59.72 520.54 66.92 518.35 73.67 C 514.73 66.55 510.58 59.46 504.09 54.57 C 504.08 60.62 504.87 67.04 502.05 72.65 C 499.00 65.01 494.43 57.67 487.00 53.64 C 487.51 60.22 488.13 66.97 486.16 73.39 C 482.21 64.65 476.02 57.06 468.17 51.54 M 514.86 164.92 C 508.53 169.16 500.42 170.86 493.01 168.85 C 483.91 166.56 476.66 160.02 470.97 152.85 C 469.60 155.23 467.90 157.51 467.25 160.22 C 467.36 163.37 468.87 166.24 469.92 169.16 C 474.14 179.36 477.31 190.12 483.48 199.40 C 487.42 204.74 493.67 207.57 499.40 210.54 C 503.39 212.51 506.57 215.69 509.90 218.58 C 511.59 212.59 513.83 206.65 517.57 201.61 C 522.09 195.51 527.15 189.83 532.21 184.17 C 534.81 180.95 537.88 177.48 537.92 173.09 C 538.27 167.58 534.56 163.07 533.43 157.88 C 532.02 153.17 532.71 148.24 533.08 143.44 C 528.41 151.62 522.92 159.74 514.86 164.92 M 537.43 156.74 C 539.22 162.52 543.76 167.63 542.87 174.03 C 542.88 179.48 539.77 184.33 535.69 187.72 C 526.08 196.11 517.52 206.52 514.15 219.06 C 513.51 220.98 512.95 224.41 510.14 223.66 C 505.76 221.75 502.90 217.56 498.74 215.26 C 492.09 211.58 484.64 208.38 480.15 201.93 C 475.34 194.51 471.60 186.43 468.91 178.01 C 466.87 171.38 463.16 164.87 464.22 157.70 C 451.93 165.00 437.49 166.78 424.14 171.29 C 415.56 174.21 406.98 177.17 398.59 180.63 C 391.78 183.62 384.73 187.02 379.95 192.92 C 375.99 198.55 373.57 205.07 370.18 211.04 C 366.21 218.30 361.33 225.00 356.90 231.97 C 349.17 243.33 342.23 255.28 337.00 268.00 C 333.84 275.55 330.81 283.21 329.22 291.27 C 326.46 304.81 320.47 318.23 322.79 332.32 C 326.69 330.87 330.68 329.47 334.88 329.37 C 348.14 328.86 361.38 333.03 372.38 340.38 C 377.74 334.10 383.62 328.25 388.66 321.70 C 396.90 309.76 401.48 295.85 408.04 283.00 C 410.43 278.79 410.97 273.40 414.80 270.12 C 414.41 275.98 412.09 281.45 410.06 286.89 C 406.54 295.50 403.17 304.18 399.04 312.52 C 404.53 306.48 410.61 300.99 416.94 295.84 C 420.69 292.81 424.36 289.53 428.84 287.61 C 426.56 292.18 422.51 295.44 418.81 298.82 C 411.79 304.77 404.65 310.64 398.33 317.37 C 393.81 321.94 389.98 327.11 385.66 331.86 C 387.13 336.80 389.01 341.61 390.88 346.42 C 392.95 344.85 395.10 342.88 397.90 343.06 C 405.71 343.16 413.49 344.46 421.07 346.27 C 424.88 347.38 429.25 349.47 430.22 353.70 C 431.62 359.57 431.78 365.79 430.47 371.69 C 430.08 374.19 427.68 375.37 425.74 376.55 C 425.71 379.57 424.66 382.38 422.72 384.69 C 422.47 386.60 422.82 388.84 421.46 390.42 C 419.28 393.02 416.14 394.50 413.31 396.27 C 407.76 399.34 402.18 403.41 395.49 403.01 C 396.09 416.46 400.06 429.50 400.24 442.96 C 405.98 434.88 413.53 428.42 420.60 421.57 C 428.76 413.89 433.42 403.38 436.92 392.93 C 440.53 381.60 443.71 370.14 446.44 358.57 C 447.65 353.65 448.47 348.51 451.04 344.06 C 451.23 348.41 450.66 352.74 449.88 357.02 C 447.73 369.43 444.63 381.67 440.82 393.68 C 438.30 401.64 435.10 409.48 430.43 416.44 C 426.72 421.96 421.79 426.47 417.09 431.12 C 410.78 437.15 404.96 443.70 399.83 450.77 C 415.04 446.32 424.40 432.72 436.46 423.47 C 448.46 412.93 462.42 405.05 476.21 397.14 C 486.43 391.36 495.87 384.26 506.25 378.79 C 504.91 382.95 500.95 385.17 497.62 387.57 C 489.18 393.63 480.44 399.28 471.45 404.48 C 458.26 411.83 445.72 420.37 434.48 430.48 C 423.84 439.69 414.38 452.06 399.83 455.00 C 399.85 455.64 399.90 456.92 399.92 457.56 C 419.55 452.54 438.31 444.75 456.90 436.82 C 473.00 429.71 487.92 420.26 502.53 410.53 C 506.61 407.81 510.28 404.45 514.73 402.32 C 514.20 407.62 509.11 410.31 505.45 413.40 C 490.58 424.09 474.83 433.71 458.04 441.10 C 442.94 447.49 427.71 453.66 412.04 458.54 C 419.36 459.21 426.70 459.28 434.04 459.25 C 438.42 459.32 443.14 458.95 447.03 461.38 C 434.13 463.32 420.99 463.13 407.99 462.43 C 404.07 462.42 400.05 462.22 396.26 463.37 C 394.20 463.90 393.68 466.24 393.15 467.99 C 391.17 476.28 392.47 484.94 394.55 493.08 C 397.03 493.97 399.50 494.93 402.11 495.37 C 420.94 498.10 440.43 500.12 459.09 495.19 C 462.84 489.61 468.50 485.78 473.87 481.90 C 492.17 469.43 513.60 462.19 535.27 458.31 C 542.07 457.25 549.05 455.92 555.93 457.06 C 555.82 457.51 555.61 458.39 555.50 458.84 C 549.20 461.03 542.46 461.69 535.95 463.11 C 510.12 467.72 484.77 477.36 464.27 494.04 C 490.17 488.48 515.25 479.78 541.03 473.77 C 555.24 470.67 570.50 468.71 584.54 473.64 C 592.38 476.33 598.01 482.66 604.40 487.59 C 606.15 486.07 608.62 484.75 608.66 482.11 C 609.77 473.46 609.52 464.69 609.27 455.99 C 608.99 443.98 609.49 431.96 608.90 419.96 C 608.16 403.65 608.37 387.28 606.53 371.04 C 605.14 360.55 602.90 350.19 599.85 340.07 C 594.52 320.61 592.70 299.39 599.12 279.97 C 603.40 268.08 609.93 257.17 616.65 246.54 C 616.83 253.04 612.79 258.45 610.15 264.08 C 608.19 268.41 606.25 272.76 604.43 277.16 C 600.84 286.08 599.64 295.76 599.38 305.31 C 606.93 309.65 615.24 313.53 624.09 313.69 C 633.94 312.30 643.35 307.44 650.32 300.36 C 652.34 298.06 655.33 295.43 654.16 292.01 C 650.86 279.20 644.37 267.54 639.79 255.19 C 635.37 242.81 632.73 229.91 629.66 217.16 C 627.60 209.01 624.14 201.28 619.95 194.02 C 615.48 186.81 610.39 179.53 602.97 175.10 C 596.71 171.28 589.17 170.97 582.06 170.36 C 566.41 169.16 551.28 163.97 537.43 156.74 M 599.76 310.47 C 599.88 320.55 601.77 330.50 604.40 340.20 C 604.32 331.46 603.47 322.74 602.32 314.09 C 602.22 312.48 600.62 311.62 599.76 310.47 M 605.96 314.08 C 606.58 322.37 607.48 330.67 607.24 339.00 C 607.04 345.33 607.25 351.79 608.99 357.92 C 613.04 369.26 616.36 380.99 622.56 391.42 C 630.79 406.13 633.94 423.24 633.20 439.97 C 632.91 444.17 632.27 448.49 633.53 452.61 C 634.61 457.28 637.38 461.24 639.62 465.40 C 642.44 470.36 642.00 476.32 644.05 481.56 C 646.83 477.26 647.23 471.97 647.72 467.01 C 648.30 461.78 645.32 456.40 647.80 451.39 C 650.91 456.39 650.16 463.09 654.47 467.45 C 657.20 470.63 661.58 474.18 659.80 478.93 C 657.48 482.51 653.84 485.06 650.57 487.72 C 647.76 489.96 645.51 486.20 643.58 484.61 C 642.44 485.08 641.30 485.56 640.17 486.05 C 641.73 488.92 642.82 492.52 645.93 494.12 C 648.28 495.33 651.79 496.32 653.66 493.78 C 657.64 489.44 661.19 484.56 666.22 481.31 C 668.69 479.44 671.79 478.25 673.75 475.78 C 676.13 470.92 674.64 464.79 671.15 460.84 C 664.11 453.02 656.49 445.20 652.80 435.13 C 649.59 426.45 648.80 417.12 647.98 407.97 C 647.31 395.29 647.80 382.57 649.17 369.95 C 650.91 350.66 646.99 331.20 639.72 313.35 C 634.37 315.55 628.77 317.57 622.95 317.73 C 617.15 317.27 611.54 315.59 605.96 314.08 M 324.12 335.69 C 324.40 339.01 324.76 342.48 323.48 345.66 C 321.11 352.07 316.41 357.41 314.58 364.06 C 314.51 365.97 315.66 367.60 316.87 368.97 C 320.63 373.25 324.28 377.68 328.71 381.32 C 334.31 386.45 341.82 388.77 349.12 390.24 C 361.93 392.55 375.02 393.09 388.00 392.36 C 392.82 391.66 393.56 398.45 398.04 398.54 C 401.25 398.25 403.94 396.21 406.73 394.78 C 410.81 392.35 415.23 390.48 419.01 387.56 C 418.34 386.37 417.62 385.23 417.07 384.00 C 417.94 381.41 422.33 380.68 421.61 377.41 C 420.66 375.67 418.51 375.00 417.18 373.57 C 416.96 370.94 420.14 369.86 421.32 367.83 C 421.75 364.59 417.16 365.17 415.58 363.10 C 415.12 360.13 418.40 358.97 419.93 356.99 C 421.39 355.48 422.44 352.37 420.71 350.83 C 414.96 348.95 408.81 349.03 402.91 347.84 C 400.31 347.76 396.74 346.19 395.02 348.97 C 391.31 353.95 387.66 358.98 384.00 364.00 C 382.27 365.83 380.51 368.37 377.74 368.43 C 377.78 367.50 377.85 365.66 377.89 364.74 C 371.70 360.74 366.78 354.84 359.93 351.88 C 352.08 348.67 343.45 350.70 335.28 349.75 C 335.28 349.31 335.29 348.43 335.29 348.00 C 340.57 345.91 346.41 346.09 352.00 346.04 C 356.79 345.98 361.50 347.21 365.75 349.39 C 366.85 347.49 368.02 345.64 369.23 343.81 C 356.26 334.89 339.41 330.74 324.12 335.69 M 367.97 350.77 C 372.48 354.05 376.92 357.44 381.22 361.00 C 383.31 357.16 385.82 353.57 388.48 350.10 C 385.87 345.25 384.28 339.95 383.09 334.59 C 378.14 340.07 372.72 345.12 367.97 350.77 M 426.79 351.58 C 426.20 355.21 425.25 358.82 423.13 361.88 C 424.13 363.52 425.51 365.10 425.66 367.10 C 425.57 369.07 424.80 370.93 424.37 372.84 C 425.57 372.09 427.28 371.65 427.29 369.92 C 428.62 363.87 428.09 357.58 426.79 351.58 M 650.19 468.06 C 649.90 473.20 649.42 478.43 647.33 483.20 C 647.68 483.60 648.40 484.40 648.76 484.80 C 651.47 482.47 654.51 480.47 656.82 477.71 C 657.07 473.51 652.34 471.22 650.19 468.06 M 517.75 483.98 C 507.80 486.98 497.69 489.47 487.93 493.07 C 479.09 496.24 469.72 497.29 460.71 499.78 C 455.59 501.15 450.29 501.45 445.03 501.79 C 428.87 503.45 412.47 501.73 396.69 498.05 C 394.56 509.32 392.21 520.57 391.05 531.99 C 389.41 551.06 390.82 570.20 392.23 589.24 C 393.40 604.04 395.46 618.82 395.18 633.69 C 396.28 631.74 397.62 629.93 399.39 628.55 C 398.58 631.82 397.25 634.93 396.31 638.17 C 395.15 641.70 395.80 645.44 395.81 649.08 C 399.02 641.27 402.21 633.44 405.75 625.77 C 407.50 622.19 408.93 618.23 412.21 615.73 C 411.74 620.40 409.39 624.54 407.77 628.86 C 403.94 638.60 399.97 648.34 397.39 658.50 C 402.32 660.65 407.80 660.21 413.05 660.12 C 421.48 659.67 429.84 658.03 437.90 655.54 C 443.90 653.73 449.55 650.45 455.93 650.11 C 463.64 649.39 470.66 653.20 478.00 654.85 C 476.70 651.80 475.67 648.50 476.62 645.19 C 478.77 634.22 482.54 622.36 491.99 615.50 C 484.45 598.07 487.78 578.52 492.99 560.96 C 490.22 563.53 488.03 566.80 484.66 568.66 C 484.28 566.85 484.53 565.05 485.71 563.62 C 490.79 556.44 498.13 551.40 504.55 545.54 C 508.35 542.63 511.53 538.57 516.30 537.25 C 512.23 545.15 503.89 549.58 498.32 556.27 C 495.04 567.56 492.46 579.18 492.16 590.98 C 491.91 598.72 493.65 606.32 495.52 613.78 C 498.70 613.25 501.93 613.38 505.11 613.89 C 509.95 599.16 522.52 587.59 537.29 583.21 C 545.34 580.80 554.49 578.43 562.41 582.51 C 576.80 589.92 585.44 604.20 595.42 616.32 C 601.91 594.07 605.60 571.10 607.91 548.07 C 609.84 528.72 609.16 508.93 604.04 490.10 C 602.66 494.25 601.69 498.58 599.50 502.42 C 594.40 511.72 588.45 520.54 582.11 529.04 C 578.92 533.03 575.92 537.59 571.05 539.67 C 571.97 537.20 573.15 534.83 574.76 532.75 C 579.37 526.60 583.71 520.26 587.83 513.79 C 592.70 506.14 597.67 498.41 600.52 489.74 C 598.90 488.39 597.30 487.03 595.73 485.64 C 593.24 492.51 589.04 499.02 583.15 503.45 C 586.46 496.83 591.19 491.02 594.38 484.31 C 587.43 478.01 578.26 474.74 568.94 474.51 C 551.39 473.93 534.50 479.51 517.75 483.98 M 546.44 584.66 C 536.19 586.71 526.26 591.39 518.87 598.88 C 511.45 606.31 507.08 616.58 506.66 627.05 C 506.18 638.98 510.01 650.75 516.08 660.92 C 518.78 666.07 522.82 670.40 525.19 675.74 C 520.73 673.73 517.82 669.68 514.84 666.00 C 514.37 670.07 513.92 674.14 513.56 678.22 C 521.15 687.08 532.26 693.21 544.09 693.33 C 552.68 693.64 562.03 690.28 566.66 682.65 C 569.26 679.12 569.32 674.58 570.39 670.50 C 565.94 674.45 561.21 678.19 555.90 680.92 C 554.43 681.79 552.68 681.90 551.10 681.27 C 552.44 678.57 555.25 677.24 557.54 675.50 C 565.04 670.13 572.19 663.46 575.47 654.62 C 578.79 645.47 579.16 635.60 579.46 625.98 C 579.58 618.02 580.16 609.82 577.88 602.09 C 573.77 596.30 568.30 591.46 562.25 587.75 C 557.61 584.83 551.84 583.40 546.44 584.66 M 582.39 607.14 C 582.90 610.71 583.19 614.32 583.41 617.93 C 586.75 618.26 590.10 618.52 593.46 618.65 C 589.62 614.96 585.75 611.27 582.39 607.14 M 436.84 660.61 C 425.35 663.77 413.28 665.83 401.37 664.18 C 404.33 676.86 404.46 689.93 405.62 702.84 C 406.47 710.50 407.23 718.40 410.57 725.45 C 412.65 729.28 416.66 731.53 420.35 733.57 C 432.08 739.40 446.56 739.76 458.33 733.83 C 458.12 727.80 459.56 721.85 462.52 716.61 C 466.36 709.60 470.03 702.23 470.55 694.12 C 470.98 687.02 473.06 680.12 473.10 672.99 C 473.24 667.84 473.40 662.68 473.65 657.54 C 467.19 656.24 460.72 653.37 454.03 654.74 C 448.08 655.99 442.70 659.03 436.84 660.61 M 513.39 682.46 C 512.86 703.82 513.89 725.31 510.80 746.53 C 509.79 752.26 510.42 758.11 509.65 763.87 C 508.37 774.85 508.30 785.91 507.30 796.91 C 506.76 804.09 507.27 811.33 508.94 818.34 C 509.94 819.48 511.59 819.70 512.91 820.35 C 514.99 817.66 517.05 814.79 520.14 813.17 C 523.80 811.05 528.33 808.97 532.54 810.76 C 536.27 812.93 536.04 818.20 539.54 820.66 C 542.06 814.50 539.73 807.69 541.66 801.41 C 543.70 794.35 547.34 787.90 550.09 781.11 C 558.12 763.04 562.62 743.62 565.53 724.13 C 567.39 712.58 567.25 700.85 568.02 689.21 C 562.78 694.57 555.49 697.63 548.04 698.01 C 534.88 698.68 521.78 692.53 513.39 682.46 M 403.42 718.63 C 400.42 736.59 398.49 754.80 399.25 773.04 C 400.21 793.86 402.55 814.83 409.14 834.70 C 413.47 849.30 422.19 862.19 425.83 877.03 C 429.38 888.07 426.40 899.67 426.80 910.96 C 426.89 915.39 428.61 919.79 431.99 922.76 C 436.75 919.65 437.44 913.28 441.62 909.64 C 444.23 907.48 448.00 907.85 450.91 909.19 C 454.86 910.79 457.44 914.34 460.46 917.17 C 462.18 912.94 460.91 908.38 460.82 903.99 C 460.36 888.52 456.38 873.43 455.54 857.99 C 454.74 845.00 455.31 831.98 455.62 818.99 C 456.58 791.79 460.17 764.63 458.57 737.39 C 453.52 739.97 448.16 742.05 442.50 742.76 C 433.54 744.42 424.33 741.77 416.43 737.59 C 409.31 733.82 405.52 726.07 403.42 718.63 M 499.03 817.01 C 498.55 828.99 499.03 840.99 498.76 852.98 C 498.46 864.28 497.97 875.64 499.46 886.88 C 500.14 892.06 501.72 897.13 504.27 901.71 C 507.89 908.18 511.51 914.67 515.87 920.69 C 519.89 919.00 524.00 917.25 527.28 914.28 C 534.15 908.18 538.46 899.72 541.11 891.03 C 544.41 880.36 545.94 869.17 545.60 858.00 C 545.84 846.70 543.06 835.65 542.68 824.38 C 540.18 824.17 537.08 824.88 535.24 822.72 C 533.06 820.27 532.08 817.04 530.11 814.44 C 525.82 814.64 521.85 816.86 519.05 820.04 C 517.07 821.93 515.17 825.03 511.98 824.32 C 508.84 823.82 505.07 822.24 504.41 818.75 C 502.78 812.06 502.55 805.15 502.61 798.30 C 500.79 804.39 499.25 810.62 499.03 817.01 M 417.31 930.53 C 414.94 943.82 412.49 957.92 416.98 971.04 C 419.56 977.37 424.07 983.90 431.10 985.59 C 442.65 988.64 455.36 987.51 466.06 982.14 C 469.32 980.72 472.28 977.79 472.25 974.01 C 471.89 961.39 465.96 949.63 465.99 936.96 C 465.90 929.43 465.67 921.90 465.89 914.38 C 464.57 917.11 463.09 921.82 459.11 920.71 C 455.08 918.61 452.77 914.11 448.41 912.49 C 446.95 911.97 445.02 911.63 443.87 912.96 C 440.74 916.24 439.39 920.87 436.03 923.98 C 433.92 926.04 430.16 926.01 428.24 923.70 C 424.91 920.02 423.88 914.97 423.14 910.22 C 420.63 916.81 418.46 923.55 417.31 930.53 Z" />
		<path fill="#020202" opacity="1.00"
			d=" M 496.27 108.99 C 496.97 106.57 496.99 103.72 499.00 101.92 C 500.87 107.41 500.32 113.32 500.13 119.02 C 499.82 123.38 500.61 127.79 499.71 132.11 C 497.77 130.45 496.07 128.51 494.03 126.97 C 492.21 126.11 490.15 125.98 488.24 125.41 C 490.62 119.78 495.15 115.14 496.27 108.99 Z" />
	</g>
	<g id="#f0b58bff">
		<path fill="#f0b58b" opacity="1.00"
			d=" M 468.17 51.54 C 476.02 57.06 482.21 64.65 486.16 73.39 C 488.13 66.97 487.51 60.22 487.00 53.64 C 494.43 57.67 499.00 65.01 502.05 72.65 C 504.87 67.04 504.08 60.62 504.09 54.57 C 510.58 59.46 514.73 66.55 518.35 73.67 C 520.54 66.92 521.03 59.72 520.41 52.68 C 529.15 57.88 536.90 64.82 542.61 73.27 C 539.92 76.34 537.81 80.33 534.01 82.15 C 525.61 84.63 516.66 83.53 508.13 85.23 C 502.84 86.47 500.62 92.07 499.43 96.79 C 507.65 97.19 515.91 95.66 524.12 96.67 C 527.39 101.36 529.70 106.71 533.57 111.01 C 533.31 117.02 531.89 122.93 531.94 128.96 C 531.93 134.55 531.46 140.47 528.36 145.29 C 523.17 153.79 516.13 162.04 506.32 165.10 C 498.28 167.74 489.43 164.99 483.00 159.87 C 471.81 151.16 464.95 138.22 459.93 125.24 C 457.95 119.69 455.30 114.05 455.81 108.02 C 456.63 104.04 458.40 100.34 459.64 96.48 C 465.08 96.85 470.52 96.05 475.97 96.06 C 481.08 95.91 486.18 96.78 491.29 96.36 C 491.51 92.71 491.66 88.63 489.42 85.52 C 487.18 84.18 484.39 84.58 481.89 84.36 C 475.66 84.46 469.42 84.69 463.18 84.84 C 464.21 73.67 465.45 62.44 468.17 51.54 M 496.27 108.99 C 495.15 115.14 490.62 119.78 488.24 125.41 C 490.15 125.98 492.21 126.11 494.03 126.97 C 496.07 128.51 497.77 130.45 499.71 132.11 C 500.61 127.79 499.82 123.38 500.13 119.02 C 500.32 113.32 500.87 107.41 499.00 101.92 C 496.99 103.72 496.97 106.57 496.27 108.99 Z" />
		<path fill="#f0b58b" opacity="1.00"
			d=" M 514.86 164.92 C 522.92 159.74 528.41 151.62 533.08 143.44 C 532.71 148.24 532.02 153.17 533.43 157.88 C 534.56 163.07 538.27 167.58 537.92 173.09 C 537.88 177.48 534.81 180.95 532.21 184.17 C 527.15 189.83 522.09 195.51 517.57 201.61 C 513.83 206.65 511.59 212.59 509.90 218.58 C 506.57 215.69 503.39 212.51 499.40 210.54 C 493.67 207.57 487.42 204.74 483.48 199.40 C 477.31 190.12 474.14 179.36 469.92 169.16 C 468.87 166.24 467.36 163.37 467.25 160.22 C 467.90 157.51 469.60 155.23 470.97 152.85 C 476.66 160.02 483.91 166.56 493.01 168.85 C 500.42 170.86 508.53 169.16 514.86 164.92 Z" />
		<path fill="#f0b58b" opacity="1.00"
			d=" M 605.96 314.08 C 611.54 315.59 617.15 317.27 622.95 317.73 C 628.77 317.57 634.37 315.55 639.72 313.35 C 646.99 331.20 650.91 350.66 649.17 369.95 C 647.80 382.57 647.31 395.29 647.98 407.97 C 648.80 417.12 649.59 426.45 652.80 435.13 C 656.49 445.20 664.11 453.02 671.15 460.84 C 674.64 464.79 676.13 470.92 673.75 475.78 C 671.79 478.25 668.69 479.44 666.22 481.31 C 661.19 484.56 657.64 489.44 653.66 493.78 C 651.79 496.32 648.28 495.33 645.93 494.12 C 642.82 492.52 641.73 488.92 640.17 486.05 C 641.30 485.56 642.44 485.08 643.58 484.61 C 645.51 486.20 647.76 489.96 650.57 487.72 C 653.84 485.06 657.48 482.51 659.80 478.93 C 661.58 474.18 657.20 470.63 654.47 467.45 C 650.16 463.09 650.91 456.39 647.80 451.39 C 645.32 456.40 648.30 461.78 647.72 467.01 C 647.23 471.97 646.83 477.26 644.05 481.56 C 642.00 476.32 642.44 470.36 639.62 465.40 C 637.38 461.24 634.61 457.28 633.53 452.61 C 632.27 448.49 632.91 444.17 633.20 439.97 C 633.94 423.24 630.79 406.13 622.56 391.42 C 616.36 380.99 613.04 369.26 608.99 357.92 C 607.25 351.79 607.04 345.33 607.24 339.00 C 607.48 330.67 606.58 322.37 605.96 314.08 Z" />
		<path fill="#f0b58b" opacity="1.00"
			d=" M 324.12 335.69 C 339.41 330.74 356.26 334.89 369.23 343.81 C 368.02 345.64 366.85 347.49 365.75 349.39 C 361.50 347.21 356.79 345.98 352.00 346.04 C 346.41 346.09 340.57 345.91 335.29 348.00 C 335.29 348.43 335.28 349.31 335.28 349.75 C 343.45 350.70 352.08 348.67 359.93 351.88 C 366.78 354.84 371.70 360.74 377.89 364.74 C 377.85 365.66 377.78 367.50 377.74 368.43 C 380.51 368.37 382.27 365.83 384.00 364.00 C 387.66 358.98 391.31 353.95 395.02 348.97 C 396.74 346.19 400.31 347.76 402.91 347.84 C 408.81 349.03 414.96 348.95 420.71 350.83 C 422.44 352.37 421.39 355.48 419.93 356.99 C 418.40 358.97 415.12 360.13 415.58 363.10 C 417.16 365.17 421.75 364.59 421.32 367.83 C 420.14 369.86 416.96 370.94 417.18 373.57 C 418.51 375.00 420.66 375.67 421.61 377.41 C 422.33 380.68 417.94 381.41 417.07 384.00 C 417.62 385.23 418.34 386.37 419.01 387.56 C 415.23 390.48 410.81 392.35 406.73 394.78 C 403.94 396.21 401.25 398.25 398.04 398.54 C 393.56 398.45 392.82 391.66 388.00 392.36 C 375.02 393.09 361.93 392.55 349.12 390.24 C 341.82 388.77 334.31 386.45 328.71 381.32 C 324.28 377.68 320.63 373.25 316.87 368.97 C 315.66 367.60 314.51 365.97 314.58 364.06 C 316.41 357.41 321.11 352.07 323.48 345.66 C 324.76 342.48 324.40 339.01 324.12 335.69 Z" />
		<path fill="#f0b58b" opacity="1.00"
			d=" M 426.79 351.58 C 428.09 357.58 428.62 363.87 427.29 369.92 C 427.28 371.65 425.57 372.09 424.37 372.84 C 424.80 370.93 425.57 369.07 425.66 367.10 C 425.51 365.10 424.13 363.52 423.13 361.88 C 425.25 358.82 426.20 355.21 426.79 351.58 Z" />
		<path fill="#f0b58b" opacity="1.00"
			d=" M 546.44 584.66 C 551.84 583.40 557.61 584.83 562.25 587.75 C 568.30 591.46 573.77 596.30 577.88 602.09 C 580.16 609.82 579.58 618.02 579.46 625.98 C 579.16 635.60 578.79 645.47 575.47 654.62 C 572.19 663.46 565.04 670.13 557.54 675.50 C 555.25 677.24 552.44 678.57 551.10 681.27 C 552.68 681.90 554.43 681.79 555.90 680.92 C 561.21 678.19 565.94 674.45 570.39 670.50 C 569.32 674.58 569.26 679.12 566.66 682.65 C 562.03 690.28 552.68 693.64 544.09 693.33 C 532.26 693.21 521.15 687.08 513.56 678.22 C 513.92 674.14 514.37 670.07 514.84 666.00 C 517.82 669.68 520.73 673.73 525.19 675.74 C 522.82 670.40 518.78 666.07 516.08 660.92 C 510.01 650.75 506.18 638.98 506.66 627.05 C 507.08 616.58 511.45 606.31 518.87 598.88 C 526.26 591.39 536.19 586.71 546.44 584.66 Z" />
		<path fill="#f0b58b" opacity="1.00"
			d=" M 436.84 660.61 C 442.70 659.03 448.08 655.99 454.03 654.74 C 460.72 653.37 467.19 656.24 473.65 657.54 C 473.40 662.68 473.24 667.84 473.10 672.99 C 473.06 680.12 470.98 687.02 470.55 694.12 C 470.03 702.23 466.36 709.60 462.52 716.61 C 459.56 721.85 458.12 727.80 458.33 733.83 C 446.56 739.76 432.08 739.40 420.35 733.57 C 416.66 731.53 412.65 729.28 410.57 725.45 C 407.23 718.40 406.47 710.50 405.62 702.84 C 404.46 689.93 404.33 676.86 401.37 664.18 C 413.28 665.83 425.35 663.77 436.84 660.61 Z" />
	</g>
	<g id="#f11b27ff">
		<path fill="var(--shirt-color, grey)" opacity="1.00"
			d=" M 537.43 156.74 C 551.28 163.97 566.41 169.16 582.06 170.36 C 589.17 170.97 596.71 171.28 602.97 175.10 C 610.39 179.53 615.48 186.81 619.95 194.02 C 624.14 201.28 627.60 209.01 629.66 217.16 C 632.73 229.91 635.37 242.81 639.79 255.19 C 644.37 267.54 650.86 279.20 654.16 292.01 C 655.33 295.43 652.34 298.06 650.32 300.36 C 643.35 307.44 633.94 312.30 624.09 313.69 C 615.24 313.53 606.93 309.65 599.38 305.31 C 599.64 295.76 600.84 286.08 604.43 277.16 C 606.25 272.76 608.19 268.41 610.15 264.08 C 612.79 258.45 616.83 253.04 616.65 246.54 C 609.93 257.17 603.40 268.08 599.12 279.97 C 592.70 299.39 594.52 320.61 599.85 340.07 C 602.90 350.19 605.14 360.55 606.53 371.04 C 608.37 387.28 608.16 403.65 608.90 419.96 C 609.49 431.96 608.99 443.98 609.27 455.99 C 609.52 464.69 609.77 473.46 608.66 482.11 C 608.62 484.75 606.15 486.07 604.40 487.59 C 598.01 482.66 592.38 476.33 584.54 473.64 C 570.50 468.71 555.24 470.67 541.03 473.77 C 515.25 479.78 490.17 488.48 464.27 494.04 C 484.77 477.36 510.12 467.72 535.95 463.11 C 542.46 461.69 549.20 461.03 555.50 458.84 C 555.61 458.39 555.82 457.51 555.93 457.06 C 549.05 455.92 542.07 457.25 535.27 458.31 C 513.60 462.19 492.17 469.43 473.87 481.90 C 468.50 485.78 462.84 489.61 459.09 495.19 C 440.43 500.12 420.94 498.10 402.11 495.37 C 399.50 494.93 397.03 493.97 394.55 493.08 C 392.47 484.94 391.17 476.28 393.15 467.99 C 393.68 466.24 394.20 463.90 396.26 463.37 C 400.05 462.22 404.07 462.42 407.99 462.43 C 420.99 463.13 434.13 463.32 447.03 461.38 C 443.14 458.95 438.42 459.32 434.04 459.25 C 426.70 459.28 419.36 459.21 412.04 458.54 C 427.71 453.66 442.94 447.49 458.04 441.10 C 474.83 433.71 490.58 424.09 505.45 413.40 C 509.11 410.31 514.20 407.62 514.73 402.32 C 510.28 404.45 506.61 407.81 502.53 410.53 C 487.92 420.26 473.00 429.71 456.90 436.82 C 438.31 444.75 419.55 452.54 399.92 457.56 C 399.90 456.92 399.85 455.64 399.83 455.00 C 414.38 452.06 423.84 439.69 434.48 430.48 C 445.72 420.37 458.26 411.83 471.45 404.48 C 480.44 399.28 489.18 393.63 497.62 387.57 C 500.95 385.17 504.91 382.95 506.25 378.79 C 495.87 384.26 486.43 391.36 476.21 397.14 C 462.42 405.05 448.46 412.93 436.46 423.47 C 424.40 432.72 415.04 446.32 399.83 450.77 C 404.96 443.70 410.78 437.15 417.09 431.12 C 421.79 426.47 426.72 421.96 430.43 416.44 C 435.10 409.48 438.30 401.64 440.82 393.68 C 444.63 381.67 447.73 369.43 449.88 357.02 C 450.66 352.74 451.23 348.41 451.04 344.06 C 448.47 348.51 447.65 353.65 446.44 358.57 C 443.71 370.14 440.53 381.60 436.92 392.93 C 433.42 403.38 428.76 413.89 420.60 421.57 C 413.53 428.42 405.98 434.88 400.24 442.96 C 400.06 429.50 396.09 416.46 395.49 403.01 C 402.18 403.41 407.76 399.34 413.31 396.27 C 416.14 394.50 419.28 393.02 421.46 390.42 C 422.82 388.84 422.47 386.60 422.72 384.69 C 424.66 382.38 425.71 379.57 425.74 376.55 C 427.68 375.37 430.08 374.19 430.47 371.69 C 431.78 365.79 431.62 359.57 430.22 353.70 C 429.25 349.47 424.88 347.38 421.07 346.27 C 413.49 344.46 405.71 343.16 397.90 343.06 C 395.10 342.88 392.95 344.85 390.88 346.42 C 389.01 341.61 387.13 336.80 385.66 331.86 C 389.98 327.11 393.81 321.94 398.33 317.37 C 404.65 310.64 411.79 304.77 418.81 298.82 C 422.51 295.44 426.56 292.18 428.84 287.61 C 424.36 289.53 420.69 292.81 416.94 295.84 C 410.61 300.99 404.53 306.48 399.04 312.52 C 403.17 304.18 406.54 295.50 410.06 286.89 C 412.09 281.45 414.41 275.98 414.80 270.12 C 410.97 273.40 410.43 278.79 408.04 283.00 C 401.48 295.85 396.90 309.76 388.66 321.70 C 383.62 328.25 377.74 334.10 372.38 340.38 C 361.38 333.03 348.14 328.86 334.88 329.37 C 330.68 329.47 326.69 330.87 322.79 332.32 C 320.47 318.23 326.46 304.81 329.22 291.27 C 330.81 283.21 333.84 275.55 337.00 268.00 C 342.23 255.28 349.17 243.33 356.90 231.97 C 361.33 225.00 366.21 218.30 370.18 211.04 C 373.57 205.07 375.99 198.55 379.95 192.92 C 384.73 187.02 391.78 183.62 398.59 180.63 C 406.98 177.17 415.56 174.21 424.14 171.29 C 437.49 166.78 451.93 165.00 464.22 157.70 C 463.16 164.87 466.87 171.38 468.91 178.01 C 471.60 186.43 475.34 194.51 480.15 201.93 C 484.64 208.38 492.09 211.58 498.74 215.26 C 502.90 217.56 505.76 221.75 510.14 223.66 C 512.95 224.41 513.51 220.98 514.15 219.06 C 517.52 206.52 526.08 196.11 535.69 187.72 C 539.77 184.33 542.88 179.48 542.87 174.03 C 543.76 167.63 539.22 162.52 537.43 156.74 Z" />
	</g>
	<g id="#ffffffff">
		<path fill="var(--pants-color, grey)" opacity="1.00"
			d=" M 517.75 483.98 C 534.50 479.51 551.39 473.93 568.94 474.51 C 578.26 474.74 587.43 478.01 594.38 484.31 C 591.19 491.02 586.46 496.83 583.15 503.45 C 589.04 499.02 593.24 492.51 595.73 485.64 C 597.30 487.03 598.90 488.39 600.52 489.74 C 597.67 498.41 592.70 506.14 587.83 513.79 C 583.71 520.26 579.37 526.60 574.76 532.75 C 573.15 534.83 571.97 537.20 571.05 539.67 C 575.92 537.59 578.92 533.03 582.11 529.04 C 588.45 520.54 594.40 511.72 599.50 502.42 C 601.69 498.58 602.66 494.25 604.04 490.10 C 609.16 508.93 609.84 528.72 607.91 548.07 C 605.60 571.10 601.91 594.07 595.42 616.32 C 585.44 604.20 576.80 589.92 562.41 582.51 C 554.49 578.43 545.34 580.80 537.29 583.21 C 522.52 587.59 509.95 599.16 505.11 613.89 C 501.93 613.38 498.70 613.25 495.52 613.78 C 493.65 606.32 491.91 598.72 492.16 590.98 C 492.46 579.18 495.04 567.56 498.32 556.27 C 503.89 549.58 512.23 545.15 516.30 537.25 C 511.53 538.57 508.35 542.63 504.55 545.54 C 498.13 551.40 490.79 556.44 485.71 563.62 C 484.53 565.05 484.28 566.85 484.66 568.66 C 488.03 566.80 490.22 563.53 492.99 560.96 C 487.78 578.52 484.45 598.07 491.99 615.50 C 482.54 622.36 478.77 634.22 476.62 645.19 C 475.67 648.50 476.70 651.80 478.00 654.85 C 470.66 653.20 463.64 649.39 455.93 650.11 C 449.55 650.45 443.90 653.73 437.90 655.54 C 429.84 658.03 421.48 659.67 413.05 660.12 C 407.80 660.21 402.32 660.65 397.39 658.50 C 399.97 648.34 403.94 638.60 407.77 628.86 C 409.39 624.54 411.74 620.40 412.21 615.73 C 408.93 618.23 407.50 622.19 405.75 625.77 C 402.21 633.44 399.02 641.27 395.81 649.08 C 395.80 645.44 395.15 641.70 396.31 638.17 C 397.25 634.93 398.58 631.82 399.39 628.55 C 397.62 629.93 396.28 631.74 395.18 633.69 C 395.46 618.82 393.40 604.04 392.23 589.24 C 390.82 570.20 389.41 551.06 391.05 531.99 C 392.21 520.57 394.56 509.32 396.69 498.05 C 412.47 501.73 428.87 503.45 445.03 501.79 C 450.29 501.45 455.59 501.15 460.71 499.78 C 469.72 497.29 479.09 496.24 487.93 493.07 C 497.69 489.47 507.80 486.98 517.75 483.98 Z" />
		<path fill="var(--socks-color, grey)" opacity="1.00"
			d=" M 513.39 682.46 C 521.78 692.53 534.88 698.68 548.04 698.01 C 555.49 697.63 562.78 694.57 568.02 689.21 C 567.25 700.85 567.39 712.58 565.53 724.13 C 562.62 743.62 558.12 763.04 550.09 781.11 C 547.34 787.90 543.70 794.35 541.66 801.41 C 539.73 807.69 542.06 814.50 539.54 820.66 C 536.04 818.20 536.27 812.93 532.54 810.76 C 528.33 808.97 523.80 811.05 520.14 813.17 C 517.05 814.79 514.99 817.66 512.91 820.35 C 511.59 819.70 509.94 819.48 508.94 818.34 C 507.27 811.33 506.76 804.09 507.30 796.91 C 508.30 785.91 508.37 774.85 509.65 763.87 C 510.42 758.11 509.79 752.26 510.80 746.53 C 513.89 725.31 512.86 703.82 513.39 682.46 Z" />
		<path fill="var(--socks-color, grey)" opacity="1.00"
			d=" M 403.42 718.63 C 405.52 726.07 409.31 733.82 416.43 737.59 C 424.33 741.77 433.54 744.42 442.50 742.76 C 448.16 742.05 453.52 739.97 458.57 737.39 C 460.17 764.63 456.58 791.79 455.62 818.99 C 455.31 831.98 454.74 845.00 455.54 857.99 C 456.38 873.43 460.36 888.52 460.82 903.99 C 460.91 908.38 462.18 912.94 460.46 917.17 C 457.44 914.34 454.86 910.79 450.91 909.19 C 448.00 907.85 444.23 907.48 441.62 909.64 C 437.44 913.28 436.75 919.65 431.99 922.76 C 428.61 919.79 426.89 915.39 426.80 910.96 C 426.40 899.67 429.38 888.07 425.83 877.03 C 422.19 862.19 413.47 849.30 409.14 834.70 C 402.55 814.83 400.21 793.86 399.25 773.04 C 398.49 754.80 400.42 736.59 403.42 718.63 Z" />
	</g>
	<g id="#fdfefeff">
		<path fill="#fdfefe" opacity="1.00"
			d=" M 582.39 607.14 C 585.75 611.27 589.62 614.96 593.46 618.65 C 590.10 618.52 586.75 618.26 583.41 617.93 C 583.19 614.32 582.90 610.71 582.39 607.14 Z" />
	</g>
	<g id="#4d4d4dff">
		<path fill="#4d4d4d" opacity="1.00"
			d=" M 499.03 817.01 C 499.25 810.62 500.79 804.39 502.61 798.30 C 502.55 805.15 502.78 812.06 504.41 818.75 C 505.07 822.24 508.84 823.82 511.98 824.32 C 515.17 825.03 517.07 821.93 519.05 820.04 C 521.85 816.86 525.82 814.64 530.11 814.44 C 532.08 817.04 533.06 820.27 535.24 822.72 C 537.08 824.88 540.18 824.17 542.68 824.38 C 543.06 835.65 545.84 846.70 545.60 858.00 C 545.94 869.17 544.41 880.36 541.11 891.03 C 538.46 899.72 534.15 908.18 527.28 914.28 C 524.00 917.25 519.89 919.00 515.87 920.69 C 511.51 914.67 507.89 908.18 504.27 901.71 C 501.72 897.13 500.14 892.06 499.46 886.88 C 497.97 875.64 498.46 864.28 498.76 852.98 C 499.03 840.99 498.55 828.99 499.03 817.01 Z" />
		<path fill="#4d4d4d" opacity="1.00"
			d=" M 417.31 930.53 C 418.46 923.55 420.63 916.81 423.14 910.22 C 423.88 914.97 424.91 920.02 428.24 923.70 C 430.16 926.01 433.92 926.04 436.03 923.98 C 439.39 920.87 440.74 916.24 443.87 912.96 C 445.02 911.63 446.95 911.97 448.41 912.49 C 452.77 914.11 455.08 918.61 459.11 920.71 C 463.09 921.82 464.57 917.11 465.89 914.38 C 465.67 921.90 465.90 929.43 465.99 936.96 C 465.96 949.63 471.89 961.39 472.25 974.01 C 472.28 977.79 469.32 980.72 466.06 982.14 C 455.36 987.51 442.65 988.64 431.10 985.59 C 424.07 983.90 419.56 977.37 416.98 971.04 C 412.49 957.92 414.94 943.82 417.31 930.53 Z" />
	</g>
</svg>