<?xml version="1.0" encoding="UTF-8" ?>
<!DOCTYPE svg PUBLIC "-//W3C//DTD SVG 1.1//EN" "http://www.w3.org/Graphics/SVG/1.1/DTD/svg11.dtd">
<svg width="1000pt" height="1000pt" viewBox="0 0 1000 1000" version="1.1" xmlns="http://www.w3.org/2000/svg">
	<g id="#020202ff">
		<path fill="#020202" opacity="1.00"
			d=" M 620.58 44.57 C 632.09 28.00 651.53 16.67 671.91 16.81 C 678.47 17.35 685.18 16.82 691.60 18.55 C 709.85 23.07 725.74 36.14 733.87 53.07 C 739.96 65.52 741.60 80.29 737.45 93.59 C 736.80 95.45 736.21 97.45 734.78 98.87 C 731.47 100.04 727.51 99.28 725.32 96.42 C 721.28 113.06 716.73 129.62 710.69 145.66 C 706.41 156.22 701.03 166.74 692.51 174.53 C 688.32 178.32 683.77 181.72 678.89 184.58 C 686.20 189.65 693.25 195.12 699.92 201.01 C 710.56 210.82 715.35 225.11 717.73 239.02 C 719.97 251.22 720.82 263.61 721.49 275.97 C 722.29 291.68 720.76 307.36 719.78 323.01 C 718.91 336.29 717.32 349.76 719.82 362.96 C 720.30 366.14 721.05 369.60 719.67 372.68 C 718.80 374.76 716.44 375.43 714.66 376.49 C 714.67 392.95 722.88 407.59 728.49 422.61 C 733.44 436.01 734.91 450.34 738.81 464.03 C 743.29 480.01 748.21 495.90 754.58 511.24 C 759.47 524.49 765.68 537.18 772.46 549.57 C 774.52 553.18 776.08 557.13 778.74 560.36 C 781.94 562.32 785.86 562.83 789.02 564.95 C 795.71 568.67 799.20 575.74 803.15 581.94 C 808.03 588.68 812.69 596.38 812.58 604.98 C 812.61 609.54 809.68 613.59 805.64 615.50 C 800.36 618.04 794.90 620.95 788.95 621.19 C 784.33 620.27 780.30 617.62 776.42 615.08 C 770.87 616.02 765.13 615.99 759.65 614.60 C 765.99 621.00 770.79 628.67 775.91 636.03 C 784.75 648.91 791.98 662.91 797.16 677.67 C 800.04 686.05 799.52 695.65 795.47 703.57 C 794.76 705.26 793.59 706.88 793.69 708.80 C 793.91 722.64 790.73 736.32 786.20 749.33 C 783.27 757.87 778.67 765.68 775.26 774.01 C 778.82 774.79 782.35 775.74 785.94 776.42 C 795.63 778.32 805.81 777.13 815.20 780.60 C 825.72 784.43 835.64 790.45 843.20 798.77 C 849.25 805.32 852.31 814.20 852.61 823.02 C 852.45 830.88 846.83 837.45 840.42 841.39 C 831.40 846.88 820.49 849.27 810.00 848.17 C 791.58 845.52 775.57 835.47 758.62 828.53 C 744.06 822.39 727.53 822.28 713.61 814.44 C 704.05 808.97 695.88 800.60 691.50 790.43 C 689.10 784.56 687.95 777.31 691.70 771.73 C 694.71 767.40 698.46 762.99 703.75 761.55 C 706.90 760.54 710.24 760.93 713.47 761.26 C 712.87 754.93 710.51 749.01 709.05 742.87 C 705.79 730.90 705.06 718.28 707.11 706.03 C 707.59 703.32 708.70 700.80 709.87 698.34 C 694.08 688.44 679.73 676.55 665.15 665.02 C 657.26 666.40 649.45 668.14 641.77 670.36 C 638.93 671.45 635.97 670.15 634.24 667.83 C 626.10 658.24 616.06 650.58 606.37 642.66 C 599.89 637.11 593.15 631.86 586.78 626.20 C 578.12 618.33 568.33 611.44 561.77 601.57 C 562.68 622.70 562.35 643.94 564.94 664.97 C 566.45 681.65 568.96 699.23 562.51 715.23 C 568.32 724.62 570.56 735.57 574.00 745.93 C 582.28 771.80 586.49 798.77 589.14 825.74 C 589.61 833.10 589.98 840.48 590.94 847.80 C 592.04 858.43 591.73 869.28 594.50 879.68 C 596.24 886.50 600.04 892.51 603.29 898.69 C 606.26 904.01 608.32 909.77 610.60 915.41 C 612.22 919.42 611.67 923.84 612.62 928.00 C 613.72 933.18 614.97 938.35 616.56 943.41 C 619.50 952.54 627.32 959.92 627.31 969.99 C 627.68 975.69 623.04 979.84 618.63 982.60 C 608.25 989.78 595.24 990.85 583.03 991.91 C 572.84 992.52 561.54 991.44 553.58 984.37 C 548.65 980.47 546.92 973.97 546.71 967.95 C 545.90 951.62 552.69 936.17 553.32 919.97 C 553.48 906.87 547.95 894.72 543.13 882.83 C 538.21 870.86 532.11 859.44 526.16 847.96 C 516.22 828.68 509.08 808.06 503.99 787.00 C 499.43 767.31 497.29 747.13 496.52 726.96 C 494.60 702.61 490.88 678.27 483.83 654.85 C 478.02 654.52 472.32 653.34 466.56 652.61 C 460.48 651.70 453.76 650.45 449.53 645.54 C 447.31 643.24 446.99 639.93 446.80 636.91 C 446.37 629.02 444.31 621.25 440.87 614.14 C 436.62 605.35 433.11 595.89 433.02 586.01 C 432.77 578.67 431.50 571.37 429.38 564.34 C 427.99 560.37 426.19 556.53 425.40 552.38 C 423.92 546.31 424.96 539.89 423.13 533.88 C 421.59 527.79 417.35 522.64 416.81 516.25 C 415.52 508.51 416.93 500.72 416.77 492.96 C 416.08 485.47 417.01 477.97 417.68 470.51 C 419.42 456.08 420.53 441.57 422.57 427.17 C 424.23 407.82 426.43 388.44 425.79 368.97 C 425.66 350.63 423.68 332.35 423.62 314.00 C 423.30 302.17 427.34 290.87 430.40 279.61 C 433.74 269.62 435.97 259.30 439.52 249.37 C 443.60 235.96 448.53 222.81 451.86 209.18 C 443.50 206.12 434.95 203.21 426.01 202.58 C 418.04 201.86 410.03 202.37 402.06 202.02 C 396.98 200.30 394.15 195.30 390.17 192.06 C 382.46 191.03 374.65 191.90 366.91 192.22 C 357.79 192.53 349.04 195.28 340.11 196.89 C 326.29 199.81 312.12 201.91 297.96 200.80 C 279.57 199.64 261.41 196.30 243.09 194.40 C 235.31 193.67 227.21 195.03 220.55 199.25 C 217.70 207.31 209.61 211.66 201.71 213.38 C 204.04 215.52 207.20 217.49 207.72 220.87 C 207.41 223.24 204.48 223.83 202.64 224.71 C 193.68 227.04 184.13 228.56 175.01 226.24 C 169.80 224.82 164.64 223.19 159.54 221.42 C 155.28 219.77 150.13 217.14 149.68 212.01 C 149.38 201.70 152.18 191.31 157.46 182.47 C 163.02 174.10 172.58 170.06 180.63 164.61 C 186.98 160.38 194.34 157.60 201.98 157.06 C 213.63 156.15 225.64 156.61 236.81 152.61 C 263.74 143.71 291.74 135.67 320.41 137.34 C 335.13 138.42 349.83 139.71 364.54 140.79 C 364.39 138.93 363.99 137.06 364.20 135.20 C 366.52 132.82 370.16 133.15 373.20 132.79 C 391.87 131.94 410.71 131.89 429.05 127.85 C 439.28 125.64 449.26 122.41 459.40 119.81 C 481.11 115.02 504.90 117.22 524.40 128.32 C 528.57 124.55 533.33 121.07 538.99 120.10 C 545.94 118.65 552.20 123.18 559.05 123.29 C 568.39 123.62 577.83 124.32 587.09 122.70 C 590.39 122.09 593.66 123.04 596.93 123.32 C 602.65 121.53 606.39 116.52 609.86 111.95 C 604.93 102.67 606.87 92.03 607.64 82.07 C 608.31 68.69 612.79 55.48 620.58 44.57 M 655.91 55.49 C 654.93 62.49 655.19 69.60 654.21 76.61 C 652.36 74.93 651.08 72.79 649.87 70.64 C 650.52 75.09 651.00 79.56 650.99 84.06 C 663.46 88.38 675.77 93.14 688.21 97.54 C 689.66 98.12 691.45 98.43 692.17 100.03 C 691.61 102.80 689.10 104.48 687.15 106.27 C 685.27 107.70 683.56 109.68 681.14 110.10 C 678.47 110.29 675.84 109.66 673.33 108.88 C 666.02 106.40 659.02 103.14 651.98 100.00 C 649.76 99.17 646.84 97.88 644.85 99.87 C 641.52 103.42 639.23 107.83 637.32 112.28 C 634.05 120.55 631.18 129.00 629.41 137.72 C 628.83 137.95 627.67 138.42 627.10 138.65 C 626.19 129.26 629.46 120.23 630.51 111.00 C 631.42 103.37 633.55 95.69 632.09 87.98 C 631.75 85.52 630.44 82.73 627.81 82.13 C 623.62 82.05 620.69 85.81 619.23 89.33 C 616.76 95.29 619.03 101.76 618.61 107.94 C 618.27 112.03 618.29 116.22 617.22 120.19 C 614.02 122.21 612.90 116.89 611.43 114.96 C 608.58 120.23 604.81 125.35 598.90 127.38 C 600.79 141.01 598.89 155.48 604.73 168.33 C 610.00 179.28 618.61 188.25 623.69 199.30 C 625.97 204.14 627.04 209.43 627.89 214.69 C 638.69 207.95 647.78 198.75 655.13 188.41 C 646.52 185.80 639.57 179.82 633.06 173.86 C 630.20 170.96 626.59 168.05 626.39 163.64 C 630.30 165.04 632.95 168.34 636.04 170.93 C 641.55 175.65 647.44 180.19 654.39 182.57 C 659.37 184.25 665.02 185.28 670.00 183.02 C 679.48 178.93 688.46 173.02 694.78 164.75 C 704.10 151.88 708.89 136.53 713.70 121.57 C 707.99 120.03 702.14 118.83 696.20 119.04 C 694.66 121.16 693.55 124.00 690.69 124.59 C 691.24 116.72 696.52 110.27 702.00 105.05 C 706.62 100.65 713.46 102.97 718.80 104.52 C 720.08 100.23 721.47 95.96 722.83 91.69 C 723.33 89.94 724.07 88.10 723.51 86.27 C 722.48 80.24 719.45 74.81 715.60 70.13 C 714.10 72.35 714.01 75.09 713.33 77.60 C 712.56 80.52 711.04 83.19 710.47 86.16 C 709.92 88.72 711.07 91.21 711.59 93.68 C 706.37 91.72 703.67 86.68 700.55 82.45 C 698.19 79.22 696.02 75.85 694.38 72.20 C 692.56 76.97 691.97 82.04 691.59 87.09 C 687.95 77.64 681.81 69.54 675.51 61.72 C 674.52 65.47 673.56 69.23 672.97 73.07 C 668.30 66.37 662.73 60.05 655.91 55.49 M 441.40 130.50 C 417.67 137.56 392.67 138.29 368.09 137.69 C 373.52 151.04 378.87 164.51 386.18 176.97 C 390.99 185.03 396.74 192.65 404.00 198.67 C 414.35 197.77 424.86 196.76 435.17 198.50 C 446.65 200.59 457.62 204.80 468.11 209.83 C 478.68 214.88 488.02 222.08 498.28 227.71 C 501.58 229.77 505.42 231.18 508.07 234.15 C 507.52 236.93 503.90 235.62 502.07 234.95 C 485.79 228.00 471.57 216.97 455.05 210.52 C 453.64 224.68 451.99 238.95 453.32 253.19 C 455.49 280.50 464.64 306.66 475.35 331.68 C 483.16 349.73 493.92 366.38 506.40 381.54 C 508.71 384.37 511.74 386.74 512.99 390.29 C 507.88 390.16 504.70 385.84 501.54 382.45 C 493.77 373.39 486.74 363.70 480.47 353.55 C 471.25 338.23 465.09 321.33 459.37 304.47 C 451.88 281.03 447.09 256.25 449.55 231.58 C 446.72 240.97 443.67 250.29 440.70 259.64 C 436.93 274.23 431.68 288.42 428.70 303.22 C 427.28 311.41 428.08 319.76 428.36 328.01 C 429.28 343.29 430.42 358.57 430.51 373.89 C 435.25 377.33 439.89 380.91 444.75 384.17 C 461.64 394.74 480.26 402.24 497.03 413.00 C 516.25 425.98 533.26 442.18 553.79 453.21 C 566.40 460.46 580.48 464.47 593.85 469.97 C 593.87 472.61 590.83 471.54 589.18 471.40 C 582.24 469.83 575.56 467.29 568.84 465.00 C 551.80 458.84 536.41 448.88 522.20 437.78 C 509.96 428.60 498.28 418.49 484.70 411.28 C 466.51 401.16 446.93 393.16 430.65 379.94 C 430.24 395.73 429.23 411.49 428.05 427.24 C 425.87 445.17 424.63 463.22 421.98 481.10 C 440.38 467.92 463.75 463.37 486.03 465.17 C 501.41 466.33 516.60 469.74 531.10 474.97 C 544.57 479.72 558.80 481.86 573.01 482.80 C 590.95 484.53 609.03 483.48 626.92 481.59 C 634.00 481.39 641.08 480.41 647.75 477.94 C 646.81 468.12 641.35 459.72 636.60 451.37 C 633.29 446.21 632.79 439.94 630.80 434.26 C 629.24 427.51 627.40 419.80 621.03 415.95 C 615.05 413.24 608.36 412.86 601.97 411.79 C 592.26 410.40 582.46 408.15 573.93 403.12 C 566.67 398.80 559.45 394.37 552.70 389.28 C 550.89 388.03 549.54 386.22 549.19 384.01 C 551.36 384.60 553.50 385.38 555.40 386.62 C 565.72 393.05 576.13 399.76 587.97 403.02 C 598.70 406.43 610.20 406.84 620.64 411.20 C 622.12 405.77 625.06 400.69 625.24 394.97 C 625.43 391.04 623.44 387.50 622.02 383.97 C 614.79 367.14 603.03 352.70 590.05 339.96 C 581.71 331.84 572.27 325.01 563.02 318.00 C 568.30 318.07 572.44 321.64 576.60 324.42 C 586.32 331.53 595.70 339.22 603.87 348.09 C 613.78 358.66 621.34 371.25 626.43 384.79 C 628.52 380.85 629.50 376.43 629.42 371.98 C 629.62 367.32 628.60 361.84 632.02 358.05 C 636.43 354.13 642.59 353.27 648.27 353.07 C 647.56 342.87 647.04 331.22 654.50 323.16 C 636.02 326.54 617.50 321.10 600.35 314.58 C 595.56 312.49 590.10 310.99 586.74 306.69 C 590.67 305.68 594.23 307.97 597.80 309.21 C 616.29 316.17 636.11 322.20 656.08 319.06 C 660.04 318.94 662.85 315.93 666.02 313.98 C 672.79 309.44 680.60 306.88 688.24 304.22 C 692.74 302.68 697.23 301.02 701.94 300.20 C 701.69 300.81 701.20 302.02 700.95 302.63 C 696.92 305.42 692.08 306.66 687.65 308.66 C 678.55 312.28 670.07 317.38 662.41 323.47 C 658.35 326.67 654.77 330.87 653.74 336.07 C 652.46 342.30 652.82 348.72 652.33 355.04 C 651.75 358.64 655.10 361.38 657.81 363.12 C 664.06 364.22 670.55 363.15 676.83 364.45 C 686.33 366.25 695.63 369.03 704.95 371.58 C 708.42 372.11 712.59 372.74 715.67 370.67 C 717.56 362.90 714.32 354.88 714.62 346.98 C 714.35 322.29 718.60 297.66 716.49 272.97 C 715.48 259.72 714.24 246.45 711.39 233.45 C 709.50 225.30 706.78 217.13 701.71 210.36 C 697.00 203.75 690.23 199.11 684.22 193.80 C 681.19 191.12 678.10 188.50 674.69 186.32 C 669.71 188.45 664.32 189.49 658.90 189.20 C 656.97 191.87 655.21 194.66 653.41 197.42 C 647.79 205.97 640.18 213.18 631.44 218.49 C 629.72 219.37 627.57 220.65 625.67 219.52 C 623.81 214.89 622.20 210.15 620.48 205.46 C 614.96 190.11 601.92 178.56 597.62 162.66 C 594.98 151.59 594.90 140.06 595.63 128.75 C 592.80 128.26 589.91 127.84 587.08 128.48 C 577.66 130.54 567.95 129.92 558.40 129.56 C 569.57 138.80 577.45 151.22 584.20 163.88 C 585.61 166.25 586.18 168.97 586.08 171.72 C 584.06 170.93 582.43 169.49 581.45 167.56 C 573.81 154.64 565.48 141.92 554.46 131.59 C 549.76 126.37 541.52 123.92 535.07 127.24 C 531.49 128.69 528.62 131.64 524.91 132.72 C 521.64 132.11 518.64 130.58 515.55 129.41 C 501.51 123.62 486.01 121.19 470.91 123.14 C 460.74 124.10 451.24 128.06 441.40 130.50 M 287.87 144.34 C 271.25 146.80 255.37 152.46 239.44 157.58 C 231.33 160.68 222.60 161.60 213.99 161.92 C 206.76 162.34 199.32 162.03 192.39 164.47 C 184.25 167.28 177.28 172.50 170.15 177.18 C 166.58 179.84 162.14 181.99 160.35 186.34 C 156.67 194.35 153.99 203.14 154.45 212.03 C 155.73 214.93 159.24 215.90 161.98 217.00 C 169.26 219.08 176.38 222.29 184.07 222.41 C 190.46 222.69 196.65 220.83 202.94 220.06 C 199.16 216.52 193.31 213.90 192.84 208.07 C 192.35 201.05 196.83 194.99 200.29 189.27 C 200.96 187.76 203.89 185.49 204.60 188.07 C 202.97 195.67 194.59 202.40 198.09 210.73 C 203.62 209.00 209.62 207.07 213.37 202.36 C 215.34 200.00 215.95 196.92 216.68 194.02 C 218.26 186.52 223.00 179.57 229.57 175.59 C 231.30 174.05 234.13 176.30 232.26 178.07 C 227.86 182.64 223.36 187.44 221.64 193.74 C 228.30 189.68 236.24 188.19 243.96 188.80 C 264.00 190.59 283.85 194.25 303.98 195.04 C 321.77 195.55 339.17 191.26 356.47 187.70 C 366.38 186.25 376.46 186.17 386.46 186.48 C 377.54 173.97 370.87 159.93 365.85 145.45 C 355.16 145.32 344.56 143.85 333.89 143.33 C 318.59 141.66 303.04 141.46 287.87 144.34 M 635.57 363.38 C 635.52 363.43 635.42 363.54 635.37 363.60 L 635.17 363.80 C 635.48 372.38 636.25 381.76 630.83 389.09 C 630.90 392.80 631.15 396.60 630.15 400.23 C 628.97 404.57 626.83 408.56 625.38 412.80 C 629.21 416.24 632.32 420.57 633.64 425.61 C 635.35 432.11 637.01 438.64 638.69 445.15 C 642.01 451.76 646.74 457.64 649.45 464.59 C 651.12 468.53 651.62 472.83 651.82 477.08 C 662.55 480.86 668.69 490.99 675.79 499.16 C 686.91 512.03 698.17 524.83 710.52 536.54 C 716.34 542.19 721.44 548.50 726.47 554.85 C 723.91 542.43 715.69 532.47 709.05 522.03 C 693.47 498.44 676.90 475.14 666.22 448.79 C 659.63 433.22 655.70 416.69 652.37 400.17 C 650.06 388.12 650.03 375.84 649.86 363.62 C 648.64 361.81 647.48 359.99 646.33 358.15 C 642.39 358.90 638.04 359.88 635.57 363.38 M 654.49 367.94 C 654.49 374.34 654.58 380.74 655.27 387.11 C 656.20 398.31 659.17 409.17 661.84 420.04 C 667.04 440.88 676.00 460.62 686.92 479.06 C 695.99 493.53 705.34 507.82 715.07 521.86 C 720.06 529.61 725.85 537.02 729.11 545.74 C 731.14 550.94 731.56 556.58 733.44 561.83 C 735.47 567.69 737.92 573.46 741.23 578.72 C 744.31 583.92 750.40 586.31 753.64 591.38 C 756.44 596.33 755.09 602.78 758.63 607.40 C 762.48 611.36 768.55 610.26 773.54 610.44 C 774.34 608.38 775.13 604.24 778.28 605.64 C 779.97 607.39 779.87 610.06 780.51 612.29 C 784.16 613.64 787.72 616.92 791.84 615.68 C 795.33 614.78 798.68 613.39 802.04 612.05 C 803.99 611.21 806.26 610.30 807.05 608.12 C 809.03 603.57 806.95 598.74 805.86 594.26 C 803.76 599.92 798.92 603.71 795.34 608.37 C 793.68 610.42 791.84 612.82 789.00 613.12 C 785.88 613.44 783.07 610.92 782.51 607.95 C 781.99 604.50 783.19 600.96 782.31 597.56 C 781.50 596.03 779.43 596.38 778.05 595.93 C 767.63 594.52 757.18 589.82 751.05 580.99 C 750.01 579.87 749.86 578.45 750.56 577.13 C 754.58 579.88 757.97 583.53 762.37 585.72 C 768.17 588.60 774.59 589.90 780.98 590.69 C 783.53 590.92 786.21 592.12 787.29 594.61 C 789.44 598.91 787.02 603.64 787.66 608.12 L 788.71 608.29 C 791.42 605.14 793.71 601.62 796.64 598.64 C 798.42 596.49 801.19 594.13 800.20 591.01 C 798.74 584.10 795.25 577.68 790.47 572.51 C 787.40 569.21 783.13 567.48 778.94 566.11 C 776.77 565.50 774.96 564.06 773.75 562.19 C 764.77 548.48 758.53 533.27 751.46 518.56 C 742.98 499.71 736.31 480.10 731.11 460.11 C 728.91 451.71 727.45 443.13 725.29 434.72 C 722.48 423.04 717.03 412.26 712.99 401.00 C 710.01 393.27 708.58 385.06 707.66 376.86 C 695.97 374.71 684.62 370.72 672.72 369.74 C 666.65 369.01 660.42 369.64 654.49 367.94 M 422.45 485.48 C 422.42 495.35 420.97 505.23 421.95 515.09 C 422.37 521.46 426.96 526.41 428.38 532.50 C 430.51 538.66 429.22 545.29 430.66 551.56 C 431.37 555.42 433.19 558.92 434.60 562.54 C 437.14 570.41 438.53 578.65 438.76 586.92 C 438.88 595.97 442.48 604.48 446.37 612.50 C 450.40 620.73 452.32 629.89 452.53 639.03 C 452.83 644.20 458.83 646.00 463.06 646.97 C 469.56 648.20 476.15 649.10 482.51 651.04 C 479.54 643.86 476.10 636.88 473.21 629.67 C 472.62 628.13 472.53 626.47 472.30 624.87 C 481.80 616.33 493.92 611.40 505.89 607.38 C 522.03 602.70 539.27 599.78 555.95 603.25 C 554.90 590.82 554.55 578.30 552.39 565.99 C 550.44 554.89 547.99 543.88 545.30 532.95 C 544.41 529.58 543.79 526.08 544.35 522.61 C 547.72 525.92 548.59 530.74 549.94 535.07 C 554.68 553.47 559.74 572.10 559.95 591.22 C 565.29 597.21 569.37 604.29 575.47 609.60 C 588.07 620.70 600.96 631.46 613.90 642.16 C 622.21 648.63 630.43 655.40 637.11 663.59 C 639.49 651.25 650.57 643.48 661.05 638.14 C 670.63 633.15 680.43 628.55 690.33 624.23 C 706.69 617.40 722.96 610.26 739.91 604.97 C 743.59 604.15 747.41 604.40 751.16 604.22 C 749.88 599.87 750.74 594.35 746.91 591.19 C 742.01 587.01 737.61 582.15 734.62 576.40 C 732.40 571.56 729.20 567.29 726.02 563.05 C 718.13 553.96 710.49 544.58 701.46 536.56 C 690.05 525.60 679.64 513.64 669.52 501.49 C 663.70 494.34 658.62 486.15 650.48 481.36 C 645.47 484.10 639.74 484.79 634.17 485.52 C 619.16 487.12 604.09 488.56 588.98 488.50 C 569.44 488.03 549.64 486.36 531.02 480.00 C 511.54 472.96 490.71 469.04 469.96 470.02 C 453.09 470.67 436.59 476.38 422.45 485.48 M 476.60 626.83 C 479.03 631.40 480.99 636.19 483.15 640.89 C 491.03 656.85 493.68 674.65 496.81 691.99 C 498.71 701.78 499.52 711.72 500.66 721.61 C 514.40 726.21 529.25 724.52 543.00 720.89 C 548.74 719.10 554.64 717.15 559.35 713.27 C 559.74 705.48 561.55 697.80 561.33 689.98 C 561.08 677.92 559.42 665.95 558.18 653.96 C 556.85 638.87 556.69 623.70 556.90 608.57 C 529.00 604.19 500.42 612.37 476.60 626.83 M 739.70 609.72 C 728.57 613.37 718.25 619.01 707.55 623.69 C 690.06 631.26 672.59 639.00 656.03 648.47 C 662.33 654.32 668.43 660.44 675.26 665.69 C 685.76 673.57 695.90 681.96 707.05 688.93 C 717.38 696.21 728.46 702.41 738.58 709.98 C 739.02 713.04 735.10 712.37 733.27 711.70 C 726.90 709.13 721.12 705.32 715.27 701.78 C 724.07 715.89 740.06 723.75 755.93 726.92 C 766.92 729.21 778.64 728.21 788.62 722.87 C 789.19 719.56 789.73 716.25 790.14 712.92 C 787.95 715.45 786.08 718.29 783.54 720.50 C 782.50 722.06 779.45 720.75 780.41 718.96 C 782.35 714.02 785.79 709.82 788.15 705.06 C 792.46 698.06 794.75 689.46 792.46 681.36 C 788.29 668.18 782.23 655.64 775.10 643.82 C 767.33 631.51 759.39 619.17 749.26 608.63 C 746.05 608.72 742.77 608.64 739.70 609.72 M 641.17 665.69 C 647.65 663.95 654.22 662.49 660.89 661.69 C 657.18 658.79 653.69 655.65 650.28 652.42 C 646.30 656.11 642.94 660.50 641.17 665.69 M 713.18 706.93 C 712.50 712.60 712.13 718.33 712.22 724.05 C 712.70 733.43 715.05 742.59 717.64 751.59 C 719.40 757.89 720.15 764.62 718.53 771.04 C 717.45 777.06 716.28 783.94 719.49 789.52 C 733.59 803.78 753.41 811.10 773.05 813.31 C 774.83 813.70 776.50 812.93 778.16 812.38 C 777.18 809.14 774.42 807.11 771.17 806.61 C 767.66 806.01 763.05 803.41 764.31 799.18 C 766.41 793.24 770.43 788.24 773.60 782.85 C 771.85 780.54 769.38 778.10 770.13 774.90 C 771.07 769.88 773.85 765.48 775.92 760.88 C 780.85 751.00 784.48 740.54 787.17 729.84 C 774.97 735.71 760.69 734.57 747.99 731.00 C 734.32 726.95 720.86 719.32 713.18 706.93 M 541.69 725.85 C 528.47 729.18 514.24 730.46 501.06 726.27 C 502.04 746.49 504.15 766.75 508.73 786.50 C 513.54 806.23 520.01 825.64 529.20 843.78 C 535.19 855.61 541.64 867.22 546.63 879.53 C 551.02 890.26 555.41 901.24 556.64 912.87 C 557.32 916.93 557.05 921.46 559.84 924.83 C 562.90 921.37 565.49 917.46 566.95 913.06 C 568.68 908.07 571.40 902.84 576.48 900.61 C 581.35 899.02 586.03 902.42 588.93 906.08 C 594.97 912.38 597.84 921.91 606.42 925.51 C 607.17 922.68 606.45 919.79 605.84 917.02 C 603.04 906.54 596.51 897.70 591.98 887.98 C 587.17 876.96 586.93 864.76 585.98 852.97 C 583.56 817.99 579.73 782.78 569.40 749.13 C 566.12 738.78 563.51 728.20 559.35 718.15 C 554.05 721.88 547.87 724.09 541.69 725.85 M 702.02 769.07 C 697.98 772.03 694.25 776.69 695.35 782.04 C 697.13 793.20 704.99 802.68 714.32 808.65 C 727.99 817.17 744.76 816.69 759.43 822.56 C 770.89 827.11 781.67 833.17 793.01 838.01 C 802.63 842.18 813.40 843.99 823.83 842.53 C 832.04 841.00 840.23 837.15 845.45 830.44 C 849.14 825.54 847.80 818.80 845.32 813.68 C 840.14 801.22 828.52 792.86 816.57 787.51 C 804.28 781.70 789.97 784.84 777.55 779.39 C 777.83 781.37 778.56 783.55 777.40 785.42 C 774.68 790.67 771.08 795.44 768.63 800.85 C 772.61 802.39 777.45 803.19 780.00 806.98 C 782.77 810.97 780.72 817.64 775.61 818.39 C 768.69 819.27 761.73 817.63 755.04 815.98 C 740.25 811.62 725.07 805.13 715.57 792.43 C 710.24 784.64 712.10 774.63 713.57 765.93 C 709.65 766.51 705.34 766.62 702.02 769.07 M 573.45 910.41 C 570.60 916.58 568.27 923.32 563.13 928.05 C 561.53 929.58 559.18 928.56 557.25 928.54 C 556.09 942.68 550.99 956.51 552.56 970.82 C 553.11 976.48 557.03 981.39 562.03 983.87 C 569.22 987.18 577.33 986.59 585.01 986.13 C 595.28 985.64 605.91 984.13 614.86 978.72 C 617.55 976.73 620.51 974.38 621.43 971.03 C 621.95 964.13 617.43 958.44 614.44 952.64 C 610.70 945.75 609.54 937.92 607.95 930.36 C 603.01 930.05 598.51 927.44 595.41 923.66 C 590.68 917.98 587.60 910.82 581.59 906.29 C 578.23 903.73 574.91 907.62 573.45 910.41 Z" />
		<path fill="#020202" opacity="1.00"
			d=" M 686.74 140.76 C 689.44 137.98 689.81 133.83 691.94 130.67 C 692.43 135.68 692.32 140.91 690.70 145.72 C 689.71 148.85 685.84 148.89 683.31 147.77 C 681.55 146.96 678.92 146.34 678.91 143.96 C 681.42 142.68 684.44 142.47 686.74 140.76 Z" />
		<path fill="#020202" opacity="1.00"
			d=" M 655.78 155.22 C 659.61 155.80 663.44 156.47 667.17 157.56 C 675.05 159.71 683.16 161.09 690.86 163.87 C 688.87 165.69 687.02 168.43 684.00 168.31 C 675.68 168.67 667.22 166.27 660.27 161.69 C 657.88 160.28 657.53 157.20 655.78 155.22 Z" />
		<path fill="#020202" opacity="1.00"
			d=" M 628.51 241.06 C 629.89 240.30 631.26 239.18 632.96 239.40 C 638.70 239.72 643.96 242.38 649.02 244.90 C 662.56 252.03 675.47 260.76 685.78 272.17 C 692.90 280.08 699.82 288.17 706.45 296.49 C 708.97 299.93 712.42 303.28 712.19 307.91 C 711.27 307.16 710.40 306.37 709.58 305.54 C 699.01 293.12 688.61 280.50 676.83 269.19 C 669.49 262.31 661.25 256.46 652.69 251.22 C 645.18 246.70 637.38 242.11 628.51 241.06 Z" />
		<path fill="#020202" opacity="1.00"
			d=" M 556.86 282.82 C 560.99 283.47 564.13 286.35 567.42 288.68 C 572.19 292.17 576.99 295.62 581.62 299.30 C 583.05 300.29 583.83 301.84 584.40 303.46 C 582.58 303.25 580.70 302.98 579.26 301.77 C 575.44 298.94 571.76 295.93 567.98 293.06 C 564.06 289.89 559.67 287.11 556.86 282.82 Z" />
		<path fill="#020202" opacity="1.00"
			d=" M 494.59 652.78 C 498.25 653.46 500.09 657.01 502.37 659.57 C 509.95 669.54 518.94 678.31 527.40 687.53 C 528.70 688.78 529.36 690.45 529.42 692.26 C 527.89 691.64 526.36 690.97 525.15 689.85 C 513.98 679.64 503.27 668.61 495.70 655.40 C 495.42 654.75 494.87 653.44 494.59 652.78 Z" />
	</g>
	<g id="#f0b58bff">
		<path fill="#f0b58b" opacity="1.00"
			d=" M 655.91 55.49 C 662.73 60.05 668.30 66.37 672.97 73.07 C 673.56 69.23 674.52 65.47 675.51 61.72 C 681.81 69.54 687.95 77.64 691.59 87.09 C 691.97 82.04 692.56 76.97 694.38 72.20 C 696.02 75.85 698.19 79.22 700.55 82.45 C 703.67 86.68 706.37 91.72 711.59 93.68 C 711.07 91.21 709.92 88.72 710.47 86.16 C 711.04 83.19 712.56 80.52 713.33 77.60 C 714.01 75.09 714.10 72.35 715.60 70.13 C 719.45 74.81 722.48 80.24 723.51 86.27 C 724.07 88.10 723.33 89.94 722.83 91.69 C 721.47 95.96 720.08 100.23 718.80 104.52 C 713.46 102.97 706.62 100.65 702.00 105.05 C 696.52 110.27 691.24 116.72 690.69 124.59 C 693.55 124.00 694.66 121.16 696.20 119.04 C 702.14 118.83 707.99 120.03 713.70 121.57 C 708.89 136.53 704.10 151.88 694.78 164.75 C 688.46 173.02 679.48 178.93 670.00 183.02 C 665.02 185.28 659.37 184.25 654.39 182.57 C 647.44 180.19 641.55 175.65 636.04 170.93 C 632.95 168.34 630.30 165.04 626.39 163.64 C 626.59 168.05 630.20 170.96 633.06 173.86 C 639.57 179.82 646.52 185.80 655.13 188.41 C 647.78 198.75 638.69 207.95 627.89 214.69 C 627.04 209.43 625.97 204.14 623.69 199.30 C 618.61 188.25 610.00 179.28 604.73 168.33 C 598.89 155.48 600.79 141.01 598.90 127.38 C 604.81 125.35 608.58 120.23 611.43 114.96 C 612.90 116.89 614.02 122.21 617.22 120.19 C 618.29 116.22 618.27 112.03 618.61 107.94 C 619.03 101.76 616.76 95.29 619.23 89.33 C 620.69 85.81 623.62 82.05 627.81 82.13 C 630.44 82.73 631.75 85.52 632.09 87.98 C 633.55 95.69 631.42 103.37 630.51 111.00 C 629.46 120.23 626.19 129.26 627.10 138.65 C 627.67 138.42 628.83 137.95 629.41 137.72 C 631.18 129.00 634.05 120.55 637.32 112.28 C 639.23 107.83 641.52 103.42 644.85 99.87 C 646.84 97.88 649.76 99.17 651.98 100.00 C 659.02 103.14 666.02 106.40 673.33 108.88 C 675.84 109.66 678.47 110.29 681.14 110.10 C 683.56 109.68 685.27 107.70 687.15 106.27 C 689.10 104.48 691.61 102.80 692.17 100.03 C 691.45 98.43 689.66 98.12 688.21 97.54 C 675.77 93.14 663.46 88.38 650.99 84.06 C 651.00 79.56 650.52 75.09 649.87 70.64 C 651.08 72.79 652.36 74.93 654.21 76.61 C 655.19 69.60 654.93 62.49 655.91 55.49 M 686.74 140.76 C 684.44 142.47 681.42 142.68 678.91 143.96 C 678.92 146.34 681.55 146.96 683.31 147.77 C 685.84 148.89 689.71 148.85 690.70 145.72 C 692.32 140.91 692.43 135.68 691.94 130.67 C 689.81 133.83 689.44 137.98 686.74 140.76 M 655.78 155.22 C 657.53 157.20 657.88 160.28 660.27 161.69 C 667.22 166.27 675.68 168.67 684.00 168.31 C 687.02 168.43 688.87 165.69 690.86 163.87 C 683.16 161.09 675.05 159.71 667.17 157.56 C 663.44 156.47 659.61 155.80 655.78 155.22 Z" />
		<path fill="#f0b58b" opacity="1.00"
			d=" M 287.87 144.34 C 303.04 141.46 318.59 141.66 333.89 143.33 C 344.56 143.85 355.16 145.32 365.85 145.45 C 370.87 159.93 377.54 173.97 386.46 186.48 C 376.46 186.17 366.38 186.25 356.47 187.70 C 339.17 191.26 321.77 195.55 303.98 195.04 C 283.85 194.25 264.00 190.59 243.96 188.80 C 236.24 188.19 228.30 189.68 221.64 193.74 C 223.36 187.44 227.86 182.64 232.26 178.07 C 234.13 176.30 231.30 174.05 229.57 175.59 C 223.00 179.57 218.26 186.52 216.68 194.02 C 215.95 196.92 215.34 200.00 213.37 202.36 C 209.62 207.07 203.62 209.00 198.09 210.73 C 194.59 202.40 202.97 195.67 204.60 188.07 C 203.89 185.49 200.96 187.76 200.29 189.27 C 196.83 194.99 192.35 201.05 192.84 208.07 C 193.31 213.90 199.16 216.52 202.94 220.06 C 196.65 220.83 190.46 222.69 184.07 222.41 C 176.38 222.29 169.26 219.08 161.98 217.00 C 159.24 215.90 155.73 214.93 154.45 212.03 C 153.99 203.14 156.67 194.35 160.35 186.34 C 162.14 181.99 166.58 179.84 170.15 177.18 C 177.28 172.50 184.25 167.28 192.39 164.47 C 199.32 162.03 206.76 162.34 213.99 161.92 C 222.60 161.60 231.33 160.68 239.44 157.58 C 255.37 152.46 271.25 146.80 287.87 144.34 Z" />
		<path fill="#f0b58b" opacity="1.00"
			d=" M 654.49 367.94 C 660.42 369.64 666.65 369.01 672.72 369.74 C 684.62 370.72 695.97 374.71 707.66 376.86 C 708.58 385.06 710.01 393.27 712.99 401.00 C 717.03 412.26 722.48 423.04 725.29 434.72 C 727.45 443.13 728.91 451.71 731.11 460.11 C 736.31 480.10 742.98 499.71 751.46 518.56 C 758.53 533.27 764.77 548.48 773.75 562.19 C 774.96 564.06 776.77 565.50 778.94 566.11 C 783.13 567.48 787.40 569.21 790.47 572.51 C 795.25 577.68 798.74 584.10 800.20 591.01 C 801.19 594.13 798.42 596.49 796.64 598.64 C 793.71 601.62 791.42 605.14 788.71 608.29 L 787.66 608.12 C 787.02 603.64 789.44 598.91 787.29 594.61 C 786.21 592.12 783.53 590.92 780.98 590.69 C 774.59 589.90 768.17 588.60 762.37 585.72 C 757.97 583.53 754.58 579.88 750.56 577.13 C 749.86 578.45 750.01 579.87 751.05 580.99 C 757.18 589.82 767.63 594.52 778.05 595.93 C 779.43 596.38 781.50 596.03 782.31 597.56 C 783.19 600.96 781.99 604.50 782.51 607.95 C 783.07 610.92 785.88 613.44 789.00 613.12 C 791.84 612.82 793.68 610.42 795.34 608.37 C 798.92 603.71 803.76 599.92 805.86 594.26 C 806.95 598.74 809.03 603.57 807.05 608.12 C 806.26 610.30 803.99 611.21 802.04 612.05 C 798.68 613.39 795.33 614.78 791.84 615.68 C 787.72 616.92 784.16 613.64 780.51 612.29 C 779.87 610.06 779.97 607.39 778.28 605.64 C 775.13 604.24 774.34 608.38 773.54 610.44 C 768.55 610.26 762.48 611.36 758.63 607.40 C 755.09 602.78 756.44 596.33 753.64 591.38 C 750.40 586.31 744.31 583.92 741.23 578.72 C 737.92 573.46 735.47 567.69 733.44 561.83 C 731.56 556.58 731.14 550.94 729.11 545.74 C 725.85 537.02 720.06 529.61 715.07 521.86 C 705.34 507.82 695.99 493.53 686.92 479.06 C 676.00 460.62 667.04 440.88 661.84 420.04 C 659.17 409.17 656.20 398.31 655.27 387.11 C 654.58 380.74 654.49 374.34 654.49 367.94 Z" />
		<path fill="#f0b58b" opacity="1.00"
			d=" M 476.60 626.83 C 500.42 612.37 529.00 604.19 556.90 608.57 C 556.69 623.70 556.85 638.87 558.18 653.96 C 559.42 665.95 561.08 677.92 561.33 689.98 C 561.55 697.80 559.74 705.48 559.35 713.27 C 554.64 717.15 548.74 719.10 543.00 720.89 C 529.25 724.52 514.40 726.21 500.66 721.61 C 499.52 711.72 498.71 701.78 496.81 691.99 C 493.68 674.65 491.03 656.85 483.15 640.89 C 480.99 636.19 479.03 631.40 476.60 626.83 M 494.59 652.78 C 494.87 653.44 495.42 654.75 495.70 655.40 C 503.27 668.61 513.98 679.64 525.15 689.85 C 526.36 690.97 527.89 691.64 529.42 692.26 C 529.36 690.45 528.70 688.78 527.40 687.53 C 518.94 678.31 509.95 669.54 502.37 659.57 C 500.09 657.01 498.25 653.46 494.59 652.78 Z" />
		<path fill="#f0b58b" opacity="1.00"
			d=" M 739.70 609.72 C 742.77 608.64 746.05 608.72 749.26 608.63 C 759.39 619.17 767.33 631.51 775.10 643.82 C 782.23 655.64 788.29 668.18 792.46 681.36 C 794.75 689.46 792.46 698.06 788.15 705.06 C 785.79 709.82 782.35 714.02 780.41 718.96 C 779.45 720.75 782.50 722.06 783.54 720.50 C 786.08 718.29 787.95 715.45 790.14 712.92 C 789.73 716.25 789.19 719.56 788.62 722.87 C 778.64 728.21 766.92 729.21 755.93 726.92 C 740.06 723.75 724.07 715.89 715.27 701.78 C 721.12 705.32 726.90 709.13 733.27 711.70 C 735.10 712.37 739.02 713.04 738.58 709.98 C 728.46 702.41 717.38 696.21 707.05 688.93 C 695.90 681.96 685.76 673.57 675.26 665.69 C 668.43 660.44 662.33 654.32 656.03 648.47 C 672.59 639.00 690.06 631.26 707.55 623.69 C 718.25 619.01 728.57 613.37 739.70 609.72 Z" />
	</g>
	<g id="#f11b27ff">
		<path fill="var(--shirt-color, grey)" opacity="1.00"
			d=" M 441.40 130.50 C 451.24 128.06 460.74 124.10 470.91 123.14 C 486.01 121.19 501.51 123.62 515.55 129.41 C 518.64 130.58 521.64 132.11 524.91 132.72 C 528.62 131.64 531.49 128.69 535.07 127.24 C 541.52 123.92 549.76 126.37 554.46 131.59 C 565.48 141.92 573.81 154.64 581.45 167.56 C 582.43 169.49 584.06 170.93 586.08 171.72 C 586.18 168.97 585.61 166.25 584.20 163.88 C 577.45 151.22 569.57 138.80 558.40 129.56 C 567.95 129.92 577.66 130.54 587.08 128.48 C 589.91 127.84 592.80 128.26 595.63 128.75 C 594.90 140.06 594.98 151.59 597.62 162.66 C 601.92 178.56 614.96 190.11 620.48 205.46 C 622.20 210.15 623.81 214.89 625.67 219.52 C 627.57 220.65 629.72 219.37 631.44 218.49 C 640.18 213.18 647.79 205.97 653.41 197.42 C 655.21 194.66 656.97 191.87 658.90 189.20 C 664.32 189.49 669.71 188.45 674.69 186.32 C 678.10 188.50 681.19 191.12 684.22 193.80 C 690.23 199.11 697.00 203.75 701.71 210.36 C 706.78 217.13 709.50 225.30 711.39 233.45 C 714.24 246.45 715.48 259.72 716.49 272.97 C 718.60 297.66 714.35 322.29 714.62 346.98 C 714.32 354.88 717.56 362.90 715.67 370.67 C 712.59 372.74 708.42 372.11 704.95 371.58 C 695.63 369.03 686.33 366.25 676.83 364.45 C 670.55 363.15 664.06 364.22 657.81 363.12 C 655.10 361.38 651.75 358.64 652.33 355.04 C 652.82 348.72 652.46 342.30 653.74 336.07 C 654.77 330.87 658.35 326.67 662.41 323.47 C 670.07 317.38 678.55 312.28 687.65 308.66 C 692.08 306.66 696.92 305.42 700.95 302.63 C 701.20 302.02 701.69 300.81 701.94 300.20 C 697.23 301.02 692.74 302.68 688.24 304.22 C 680.60 306.88 672.79 309.44 666.02 313.98 C 662.85 315.93 660.04 318.94 656.08 319.06 C 636.11 322.20 616.29 316.17 597.80 309.21 C 594.23 307.97 590.67 305.68 586.74 306.69 C 590.10 310.99 595.56 312.49 600.35 314.58 C 617.50 321.10 636.02 326.54 654.50 323.16 C 647.04 331.22 647.56 342.87 648.27 353.07 C 642.59 353.27 636.43 354.13 632.02 358.05 C 628.60 361.84 629.62 367.32 629.42 371.98 C 629.50 376.43 628.52 380.85 626.43 384.79 C 621.34 371.25 613.78 358.66 603.87 348.09 C 595.70 339.22 586.32 331.53 576.60 324.42 C 572.44 321.64 568.30 318.07 563.02 318.00 C 572.27 325.01 581.71 331.84 590.05 339.96 C 603.03 352.70 614.79 367.14 622.02 383.97 C 623.44 387.50 625.43 391.04 625.24 394.97 C 625.06 400.69 622.12 405.77 620.64 411.20 C 610.20 406.84 598.70 406.43 587.97 403.02 C 576.13 399.76 565.72 393.05 555.40 386.62 C 553.50 385.38 551.36 384.60 549.19 384.01 C 549.54 386.22 550.89 388.03 552.70 389.28 C 559.45 394.37 566.67 398.80 573.93 403.12 C 582.46 408.15 592.26 410.40 601.97 411.79 C 608.36 412.86 615.05 413.24 621.03 415.95 C 627.40 419.80 629.24 427.51 630.80 434.26 C 632.79 439.94 633.29 446.21 636.60 451.37 C 641.35 459.72 646.81 468.12 647.75 477.94 C 641.08 480.41 634.00 481.39 626.92 481.59 C 609.03 483.48 590.95 484.53 573.01 482.80 C 558.80 481.86 544.57 479.72 531.10 474.97 C 516.60 469.74 501.41 466.33 486.03 465.17 C 463.75 463.37 440.38 467.92 421.98 481.10 C 424.63 463.22 425.87 445.17 428.05 427.24 C 429.23 411.49 430.24 395.73 430.65 379.94 C 446.93 393.16 466.51 401.16 484.70 411.28 C 498.28 418.49 509.96 428.60 522.20 437.78 C 536.41 448.88 551.80 458.84 568.84 465.00 C 575.56 467.29 582.24 469.83 589.18 471.40 C 590.83 471.54 593.87 472.61 593.85 469.97 C 580.48 464.47 566.40 460.46 553.79 453.21 C 533.26 442.18 516.25 425.98 497.03 413.00 C 480.26 402.24 461.64 394.74 444.75 384.17 C 439.89 380.91 435.25 377.33 430.51 373.89 C 430.42 358.57 429.28 343.29 428.36 328.01 C 428.08 319.76 427.28 311.41 428.70 303.22 C 431.68 288.42 436.93 274.23 440.70 259.64 C 443.67 250.29 446.72 240.97 449.55 231.58 C 447.09 256.25 451.88 281.03 459.37 304.47 C 465.09 321.33 471.25 338.23 480.47 353.55 C 486.74 363.70 493.77 373.39 501.54 382.45 C 504.70 385.84 507.88 390.16 512.99 390.29 C 511.74 386.74 508.71 384.37 506.40 381.54 C 493.92 366.38 483.16 349.73 475.35 331.68 C 464.64 306.66 455.49 280.50 453.32 253.19 C 451.99 238.95 453.64 224.68 455.05 210.52 C 471.57 216.97 485.79 228.00 502.07 234.95 C 503.90 235.62 507.52 236.93 508.07 234.15 C 505.42 231.18 501.58 229.77 498.28 227.71 C 488.02 222.08 478.68 214.88 468.11 209.83 C 457.62 204.80 446.65 200.59 435.17 198.50 C 424.86 196.76 414.35 197.77 404.00 198.67 C 396.74 192.65 390.99 185.03 386.18 176.97 C 378.87 164.51 373.52 151.04 368.09 137.69 C 392.67 138.29 417.67 137.56 441.40 130.50 M 628.51 241.06 C 637.38 242.11 645.18 246.70 652.69 251.22 C 661.25 256.46 669.49 262.31 676.83 269.19 C 688.61 280.50 699.01 293.12 709.58 305.54 C 710.40 306.37 711.27 307.16 712.19 307.91 C 712.42 303.28 708.97 299.93 706.45 296.49 C 699.82 288.17 692.90 280.08 685.78 272.17 C 675.47 260.76 662.56 252.03 649.02 244.90 C 643.96 242.38 638.70 239.72 632.96 239.40 C 631.26 239.18 629.89 240.30 628.51 241.06 M 556.86 282.82 C 559.67 287.11 564.06 289.89 567.98 293.06 C 571.76 295.93 575.44 298.94 579.26 301.77 C 580.70 302.98 582.58 303.25 584.40 303.46 C 583.83 301.84 583.05 300.29 581.62 299.30 C 576.99 295.62 572.19 292.17 567.42 288.68 C 564.13 286.35 560.99 283.47 556.86 282.82 Z" />
	</g>
	<g id="#ffffffff">
		<path fill="var(--pants-color, grey)" opacity="1.00"
			d=" M 422.45 485.48 C 436.59 476.38 453.09 470.67 469.96 470.02 C 490.71 469.04 511.54 472.96 531.02 480.00 C 549.64 486.36 569.44 488.03 588.98 488.50 C 604.09 488.56 619.16 487.12 634.17 485.52 C 639.74 484.79 645.47 484.10 650.48 481.36 C 658.62 486.15 663.70 494.34 669.52 501.49 C 679.64 513.64 690.05 525.60 701.46 536.56 C 710.49 544.58 718.13 553.96 726.02 563.05 C 729.20 567.29 732.40 571.56 734.62 576.40 C 737.61 582.15 742.01 587.01 746.91 591.19 C 750.74 594.35 749.88 599.87 751.16 604.22 C 747.41 604.40 743.59 604.15 739.91 604.97 C 722.96 610.26 706.69 617.40 690.33 624.23 C 680.43 628.55 670.63 633.15 661.05 638.14 C 650.57 643.48 639.49 651.25 637.11 663.59 C 630.43 655.40 622.21 648.63 613.90 642.16 C 600.96 631.46 588.07 620.70 575.47 609.60 C 569.37 604.29 565.29 597.21 559.95 591.22 C 559.74 572.10 554.68 553.47 549.94 535.07 C 548.59 530.74 547.72 525.92 544.35 522.61 C 543.79 526.08 544.41 529.58 545.30 532.95 C 547.99 543.88 550.44 554.89 552.39 565.99 C 554.55 578.30 554.90 590.82 555.95 603.25 C 539.27 599.78 522.03 602.70 505.89 607.38 C 493.92 611.40 481.80 616.33 472.30 624.87 C 472.53 626.47 472.62 628.13 473.21 629.67 C 476.10 636.88 479.54 643.86 482.51 651.04 C 476.15 649.10 469.56 648.20 463.06 646.97 C 458.83 646.00 452.83 644.20 452.53 639.03 C 452.32 629.89 450.40 620.73 446.37 612.50 C 442.48 604.48 438.88 595.97 438.76 586.92 C 438.53 578.65 437.14 570.41 434.60 562.54 C 433.19 558.92 431.37 555.42 430.66 551.56 C 429.22 545.29 430.51 538.66 428.38 532.50 C 426.96 526.41 422.37 521.46 421.95 515.09 C 420.97 505.23 422.42 495.35 422.45 485.48 Z" />
		<path fill="var(--socks-color, grey)" opacity="1.00"
			d=" M 641.17 665.69 C 642.94 660.50 646.30 656.11 650.28 652.42 C 653.69 655.65 657.18 658.79 660.89 661.69 C 654.22 662.49 647.65 663.95 641.17 665.69 Z" />
		<path fill="var(--socks-color, grey)" opacity="1.00"
			d=" M 713.18 706.93 C 720.86 719.32 734.32 726.95 747.99 731.00 C 760.69 734.57 774.97 735.71 787.17 729.84 C 784.48 740.54 780.85 751.00 775.92 760.88 C 773.85 765.48 771.07 769.88 770.13 774.90 C 769.38 778.10 771.85 780.54 773.60 782.85 C 770.43 788.24 766.41 793.24 764.31 799.18 C 763.05 803.41 767.66 806.01 771.17 806.61 C 774.42 807.11 777.18 809.14 778.16 812.38 C 776.50 812.93 774.83 813.70 773.05 813.31 C 753.41 811.10 733.59 803.78 719.49 789.52 C 716.28 783.94 717.45 777.06 718.53 771.04 C 720.15 764.62 719.40 757.89 717.64 751.59 C 715.05 742.59 712.70 733.43 712.22 724.05 C 712.13 718.33 712.50 712.60 713.18 706.93 Z" />
		<path fill="var(--socks-color, grey)" opacity="1.00"
			d=" M 541.69 725.85 C 547.87 724.09 554.05 721.88 559.35 718.15 C 563.51 728.20 566.12 738.78 569.40 749.13 C 579.73 782.78 583.56 817.99 585.98 852.97 C 586.93 864.76 587.17 876.96 591.98 887.98 C 596.51 897.70 603.04 906.54 605.84 917.02 C 606.45 919.79 607.17 922.68 606.42 925.51 C 597.84 921.91 594.97 912.38 588.93 906.08 C 586.03 902.42 581.35 899.02 576.48 900.61 C 571.40 902.84 568.68 908.07 566.95 913.06 C 565.49 917.46 562.90 921.37 559.84 924.83 C 557.05 921.46 557.32 916.93 556.64 912.87 C 555.41 901.24 551.02 890.26 546.63 879.53 C 541.64 867.22 535.19 855.61 529.20 843.78 C 520.01 825.64 513.54 806.23 508.73 786.50 C 504.15 766.75 502.04 746.49 501.06 726.27 C 514.24 730.46 528.47 729.18 541.69 725.85 Z" />
	</g>
	<g id="#4d4d4dff">
		<path fill="#4d4d4d" opacity="1.00"
			d=" M 702.02 769.07 C 705.34 766.62 709.65 766.51 713.57 765.93 C 712.10 774.63 710.24 784.64 715.57 792.43 C 725.07 805.13 740.25 811.62 755.04 815.98 C 761.73 817.63 768.69 819.27 775.61 818.39 C 780.72 817.64 782.77 810.97 780.00 806.98 C 777.45 803.19 772.61 802.39 768.63 800.85 C 771.08 795.44 774.68 790.67 777.40 785.42 C 778.56 783.55 777.83 781.37 777.55 779.39 C 789.97 784.84 804.28 781.70 816.57 787.51 C 828.52 792.86 840.14 801.22 845.32 813.68 C 847.80 818.80 849.14 825.54 845.45 830.44 C 840.23 837.15 832.04 841.00 823.83 842.53 C 813.40 843.99 802.63 842.18 793.01 838.01 C 781.67 833.17 770.89 827.11 759.43 822.56 C 744.76 816.69 727.99 817.17 714.32 808.65 C 704.99 802.68 697.13 793.20 695.35 782.04 C 694.25 776.69 697.98 772.03 702.02 769.07 Z" />
		<path fill="#4d4d4d" opacity="1.00"
			d=" M 573.45 910.41 C 574.91 907.62 578.23 903.73 581.59 906.29 C 587.60 910.82 590.68 917.98 595.41 923.66 C 598.51 927.44 603.01 930.05 607.95 930.36 C 609.54 937.92 610.70 945.75 614.44 952.64 C 617.43 958.44 621.95 964.13 621.43 971.03 C 620.51 974.38 617.55 976.73 614.86 978.72 C 605.91 984.13 595.28 985.64 585.01 986.13 C 577.33 986.59 569.22 987.18 562.03 983.87 C 557.03 981.39 553.11 976.48 552.56 970.82 C 550.99 956.51 556.09 942.68 557.25 928.54 C 559.18 928.56 561.53 929.58 563.13 928.05 C 568.27 923.32 570.60 916.58 573.45 910.41 Z" />
	</g>
</svg>