<?xml version="1.0" encoding="UTF-8" ?>
<!DOCTYPE svg PUBLIC "-//W3C//DTD SVG 1.1//EN" "http://www.w3.org/Graphics/SVG/1.1/DTD/svg11.dtd">
<svg width="1000pt" height="1000pt" viewBox="0 0 1000 1000" version="1.1" xmlns="http://www.w3.org/2000/svg">
	<g id="#020202ff">
		<path fill="#020202" opacity="1.00"
			d=" M 467.04 106.98 C 475.11 98.91 486.90 95.95 498.00 95.50 C 512.44 95.18 527.32 98.46 539.40 106.64 C 551.79 115.00 560.36 128.32 564.29 142.62 C 567.11 152.83 567.45 163.50 567.43 174.03 C 567.33 178.48 567.06 183.09 565.18 187.21 C 563.25 191.73 559.87 195.51 558.34 200.21 C 556.89 204.54 557.11 209.18 557.00 213.68 C 583.87 218.82 609.78 230.43 630.10 248.97 C 636.38 254.22 641.20 261.12 644.12 268.76 C 649.78 283.59 652.74 299.30 654.47 315.04 C 656.40 331.67 658.55 348.27 660.12 364.94 C 660.83 371.84 661.23 378.91 659.91 385.76 C 658.38 389.29 654.72 391.20 651.86 393.52 C 656.25 401.52 660.97 409.41 664.07 418.03 C 671.92 438.92 674.28 461.34 675.85 483.45 C 676.49 492.64 678.57 501.63 680.58 510.59 C 682.77 519.89 685.37 529.14 689.00 538.00 C 692.11 545.52 695.16 553.24 700.47 559.53 C 707.78 570.07 716.69 579.34 724.46 589.52 C 726.93 592.82 729.74 596.05 731.05 600.05 C 734.01 609.02 733.13 618.76 731.08 627.83 C 730.13 631.11 729.18 635.15 725.85 636.80 C 723.52 637.94 721.45 636.00 719.58 634.90 C 718.69 639.46 717.31 644.79 712.81 647.07 C 710.15 648.43 707.17 646.46 706.08 644.00 C 703.58 638.70 703.88 632.71 703.61 627.00 C 703.23 619.73 703.05 612.24 700.10 605.45 C 701.56 616.84 703.29 628.63 699.68 639.84 C 698.75 642.58 697.83 645.74 695.27 647.39 C 693.17 648.52 690.71 647.04 689.87 645.03 C 688.07 640.98 687.85 636.47 687.29 632.14 C 685.33 632.84 683.18 634.26 681.11 633.09 C 677.01 631.06 676.76 625.92 675.74 622.03 C 673.41 612.99 673.51 602.93 667.87 595.08 C 664.37 590.46 660.55 586.07 657.49 581.12 C 663.25 601.75 672.08 621.32 679.36 641.43 C 685.20 656.75 689.95 672.46 695.09 688.03 C 701.57 708.00 701.52 729.30 700.86 750.07 C 700.69 767.05 698.86 784.02 699.89 801.01 C 700.52 818.86 700.85 837.04 705.78 854.33 C 711.37 867.69 724.38 875.51 736.02 883.06 C 747.63 891.18 760.13 897.99 771.29 906.77 C 777.19 911.39 784.17 915.55 787.31 922.70 C 790.06 928.76 790.94 936.09 788.17 942.30 C 785.92 947.33 780.55 950.42 775.15 950.70 C 768.18 951.16 761.26 949.49 754.70 947.28 C 742.43 942.98 731.82 934.75 719.05 931.78 C 710.90 929.42 702.37 929.79 694.03 928.82 C 683.12 927.82 672.25 925.81 661.97 921.98 C 657.51 920.07 652.97 916.29 652.69 911.10 C 652.66 905.67 653.90 900.35 655.40 895.17 C 659.62 878.02 660.28 859.78 655.81 842.61 C 651.48 824.13 641.33 807.83 634.84 790.14 C 629.19 775.59 623.40 760.77 622.20 745.06 C 621.49 736.04 620.76 726.97 621.38 717.92 C 622.17 707.91 619.07 698.21 617.64 688.42 C 614.45 683.70 610.13 679.89 606.23 675.78 C 595.06 663.98 583.43 652.61 572.60 640.47 C 568.74 636.18 564.86 631.91 560.86 627.75 C 554.83 631.99 547.86 634.54 541.00 637.09 C 532.62 639.96 523.93 642.50 515.01 642.52 C 512.48 642.41 508.76 642.09 508.47 638.89 C 506.07 618.45 501.02 597.76 489.81 580.24 C 484.42 571.66 478.92 563.09 472.40 555.31 C 462.65 566.07 453.97 577.79 446.00 589.91 C 443.17 594.52 440.28 599.15 438.22 604.17 C 435.91 610.91 435.67 618.13 434.05 625.03 C 433.03 627.35 429.99 626.50 428.05 626.27 C 417.68 624.12 407.03 622.97 396.46 624.07 C 387.39 632.78 381.17 643.77 373.91 653.91 C 368.92 661.68 365.64 670.45 363.67 679.45 C 359.26 699.13 355.33 718.92 352.42 738.88 C 347.90 770.31 335.71 799.94 322.68 828.67 C 317.72 840.44 317.23 853.40 317.13 865.99 C 317.19 873.68 316.54 881.36 316.92 889.06 C 317.00 894.75 318.56 900.51 317.09 906.16 C 314.60 917.98 305.16 926.35 299.62 936.67 C 295.49 943.38 294.04 951.29 290.12 958.10 C 284.71 968.00 274.50 974.53 263.89 977.65 C 253.36 978.84 241.89 978.88 232.38 973.55 C 227.52 970.94 224.11 965.65 224.68 960.03 C 225.59 948.78 233.35 940.08 238.61 930.62 C 243.99 921.68 247.00 911.63 251.17 902.13 C 253.46 897.02 255.02 891.61 257.55 886.62 C 259.25 883.07 262.21 880.09 262.75 876.06 C 264.61 866.69 266.85 857.40 268.45 847.98 C 269.94 837.70 270.70 827.32 271.46 816.97 C 271.50 799.92 271.94 782.83 270.29 765.83 C 269.25 729.24 275.30 692.23 289.30 658.33 C 293.29 649.42 297.28 640.12 304.28 633.10 C 307.67 612.11 318.18 592.93 320.85 571.76 C 321.36 566.99 322.05 562.24 322.99 557.54 C 320.73 558.38 318.48 559.24 316.24 560.12 C 313.29 557.99 314.64 554.29 315.26 551.35 C 318.88 536.10 326.14 522.11 333.22 508.25 C 339.44 496.43 347.69 485.81 353.84 473.97 C 360.93 457.04 358.88 437.37 368.14 421.19 C 371.39 415.21 377.25 410.94 379.49 404.37 C 382.49 396.06 383.13 386.97 381.90 378.25 C 381.48 374.58 381.38 370.89 381.22 367.21 C 375.37 374.14 369.59 381.22 365.39 389.30 C 363.25 392.75 361.57 396.64 358.63 399.49 C 353.43 401.39 347.77 400.57 342.37 400.60 C 332.63 418.34 326.45 437.77 316.35 455.32 C 309.49 467.71 301.45 479.41 294.93 491.99 C 286.27 507.96 276.22 523.39 270.55 540.78 C 268.62 545.85 271.40 550.96 272.04 556.00 C 273.76 565.32 271.90 575.09 267.38 583.37 C 264.87 587.44 261.40 590.85 259.07 595.05 C 255.34 601.14 253.49 608.33 248.85 613.86 C 247.19 616.02 244.50 616.80 242.01 617.55 C 242.12 626.87 242.65 636.27 241.35 645.54 C 240.79 648.22 240.45 651.30 238.37 653.32 C 236.40 654.96 233.25 654.18 232.07 651.98 C 229.61 647.76 229.25 642.74 228.82 637.99 C 227.28 643.58 226.26 649.42 223.67 654.64 C 222.83 656.59 220.00 657.17 218.60 655.51 C 215.30 651.47 214.62 646.06 213.94 641.07 C 212.66 628.59 211.28 615.88 213.81 603.45 C 217.45 585.57 224.74 568.59 233.85 552.85 C 237.27 547.21 240.42 541.42 243.66 535.68 C 249.24 525.95 249.09 514.38 250.32 503.55 C 252.80 483.11 254.83 462.35 261.61 442.77 C 266.68 428.19 273.24 413.98 282.36 401.46 C 288.06 393.91 294.02 386.52 300.74 379.85 C 295.24 373.72 290.34 366.74 288.11 358.73 C 286.79 355.19 289.32 351.87 291.10 349.02 C 298.61 338.67 307.07 329.06 314.92 318.96 C 325.86 303.99 336.93 289.11 348.76 274.82 C 356.20 265.75 365.76 258.64 376.03 253.08 C 390.67 245.12 405.60 237.72 420.59 230.46 C 431.00 225.16 441.34 219.70 452.00 214.92 C 455.05 213.55 458.26 212.60 461.48 211.72 C 458.87 201.32 457.39 190.65 456.65 179.95 C 456.09 172.57 455.16 165.13 456.19 157.74 C 455.04 159.47 453.84 161.17 452.60 162.83 C 450.55 156.40 451.16 149.53 451.91 142.93 C 453.73 129.95 458.29 116.94 467.04 106.98 M 492.60 156.91 C 492.40 151.13 492.04 145.12 488.84 140.10 C 483.25 146.72 479.44 154.90 472.71 160.51 C 472.45 160.24 471.93 159.71 471.67 159.45 C 471.07 153.44 471.22 147.34 470.05 141.38 C 466.67 145.61 463.05 149.64 459.22 153.47 C 459.84 158.63 460.18 163.82 460.47 169.01 C 466.75 170.28 474.66 172.10 476.88 179.03 C 479.19 187.06 478.61 195.90 476.09 203.81 C 472.93 198.82 474.12 192.53 472.96 186.96 C 469.43 187.63 465.96 188.57 462.56 189.73 C 464.14 199.78 465.26 210.15 469.70 219.46 C 474.04 228.43 479.67 237.32 488.37 242.63 C 493.85 245.94 500.23 249.08 506.81 247.78 C 515.73 245.63 521.04 237.06 529.54 234.12 C 526.98 238.85 522.75 242.31 518.75 245.77 C 514.32 249.42 508.98 252.68 503.03 252.49 C 496.93 252.53 491.39 249.74 486.12 246.99 C 485.49 255.58 485.52 264.98 490.58 272.38 C 496.54 281.24 504.44 288.54 512.14 295.86 C 517.35 300.64 522.46 305.63 528.48 309.42 C 530.30 303.66 531.72 297.77 534.10 292.20 C 537.15 285.04 540.62 278.06 544.05 271.06 C 549.09 260.57 550.44 248.86 552.18 237.49 C 553.12 230.36 554.45 223.14 553.48 215.94 C 552.67 210.54 554.26 205.10 553.25 199.73 C 551.72 189.89 555.07 179.73 552.01 170.05 C 551.28 167.99 550.57 165.24 548.06 164.79 C 544.75 164.96 543.02 168.31 541.93 171.00 C 538.33 181.00 539.34 191.79 539.51 202.19 C 535.76 198.87 535.94 193.49 534.98 188.97 C 534.36 184.20 532.16 179.76 528.80 176.32 C 515.49 177.42 502.21 179.19 488.90 180.16 C 486.38 178.45 487.50 174.66 487.59 172.08 C 487.52 169.36 490.55 169.03 492.54 168.41 C 499.59 166.71 506.72 165.24 513.93 164.32 C 518.14 163.71 522.12 165.53 526.08 166.68 C 525.38 159.39 527.82 152.39 530.95 145.93 C 528.21 148.52 525.96 151.53 523.53 154.39 C 521.50 150.34 522.31 145.69 522.81 141.39 C 517.83 144.40 513.89 148.75 510.65 153.53 C 510.28 147.27 508.22 140.03 501.97 137.26 C 500.93 144.55 497.90 151.68 492.60 156.91 M 445.28 222.28 C 425.60 232.19 405.93 242.11 386.33 252.19 C 377.72 256.70 369.03 261.29 361.58 267.60 C 355.36 272.78 350.28 279.14 345.33 285.49 C 337.78 294.94 330.63 304.71 323.41 314.41 C 313.51 328.89 300.96 341.36 291.24 355.95 C 295.04 367.63 302.89 378.30 313.82 384.20 C 326.90 391.20 340.93 399.16 356.37 397.03 C 361.77 387.72 366.54 377.98 373.45 369.65 C 374.54 359.37 373.49 348.88 370.09 339.11 C 367.84 333.06 363.62 328.00 361.23 322.02 C 364.65 323.27 366.93 326.15 368.87 329.07 C 376.32 338.99 378.74 351.81 378.60 363.98 C 381.86 360.41 385.24 356.91 388.06 352.97 C 393.08 345.53 395.73 336.86 398.59 328.44 C 400.85 322.00 402.14 315.28 403.26 308.57 C 404.29 302.68 403.08 296.31 406.08 290.86 C 406.47 296.94 407.20 303.04 406.71 309.14 C 405.59 319.83 402.39 330.16 398.89 340.28 C 405.52 337.59 412.87 337.98 419.79 339.10 C 429.28 340.67 438.27 344.79 447.98 345.06 C 454.29 345.40 460.55 344.01 466.85 344.44 C 465.61 345.61 464.40 347.00 462.65 347.34 C 457.22 348.69 451.58 348.87 446.02 349.16 C 439.00 349.52 432.26 347.28 425.57 345.54 C 418.29 343.60 410.64 342.39 403.12 343.43 C 398.47 344.10 395.53 348.13 393.61 352.05 C 399.77 358.85 402.87 367.64 407.53 375.41 C 413.71 385.91 420.97 395.81 429.40 404.61 C 431.63 406.90 433.61 409.48 434.63 412.55 C 430.25 410.00 426.97 406.07 423.40 402.57 C 417.31 396.53 412.20 389.58 407.54 382.40 C 401.82 373.57 398.18 363.57 392.26 354.86 C 389.81 358.30 386.32 361.08 384.53 364.95 C 384.04 373.70 387.43 382.04 391.51 389.60 C 398.68 403.67 405.36 418.88 417.95 429.03 C 432.24 438.42 448.11 445.19 462.33 454.68 C 454.80 453.76 448.48 449.25 441.75 446.15 C 432.37 441.85 422.97 437.37 414.57 431.35 C 401.84 420.35 394.65 404.68 387.69 389.73 C 387.20 397.15 386.06 404.82 382.26 411.35 C 380.01 415.31 376.29 418.22 374.26 422.29 C 373.09 424.51 373.52 427.16 374.82 429.21 C 381.07 439.35 389.10 448.23 397.46 456.65 C 401.00 459.26 405.52 459.84 409.58 461.31 C 418.30 464.39 427.24 466.82 435.93 470.02 C 446.41 473.69 456.72 477.86 467.05 481.95 C 478.97 487.09 490.98 492.70 503.95 494.57 C 512.82 495.95 521.02 491.62 528.59 487.62 C 539.96 481.80 551.20 475.70 562.20 469.22 C 570.07 464.62 578.16 460.08 584.61 453.54 C 586.34 451.85 587.67 449.53 587.20 447.03 C 586.36 439.06 585.08 430.99 586.68 423.03 C 578.65 433.18 568.93 441.78 559.21 450.26 C 555.22 453.46 551.52 457.53 546.28 458.56 C 548.14 454.50 552.11 452.16 555.10 449.05 C 559.90 444.24 564.74 439.48 569.62 434.75 C 577.01 427.69 583.17 419.50 589.53 411.54 C 591.72 409.27 590.82 405.97 590.50 403.19 C 589.60 398.37 588.74 393.52 588.76 388.60 C 586.81 392.23 584.61 395.76 581.73 398.73 C 576.79 404.07 570.27 407.51 564.01 411.03 C 547.38 419.64 529.52 425.51 511.62 430.82 C 509.61 431.62 507.58 431.03 505.71 430.17 C 510.24 427.48 515.29 425.93 520.19 424.09 C 537.59 417.96 555.16 411.69 570.85 401.80 C 575.90 398.70 580.29 394.47 583.26 389.31 C 587.06 382.67 590.54 375.84 594.02 369.03 C 597.53 362.79 602.44 357.51 607.24 352.26 C 615.08 343.16 621.36 332.88 627.86 322.82 C 629.91 319.61 631.83 316.10 635.22 314.10 C 633.52 319.41 630.28 324.01 627.82 328.96 C 624.21 336.06 620.01 342.84 615.27 349.23 C 610.38 356.23 603.81 361.88 599.11 369.03 C 597.24 371.98 595.87 375.20 594.38 378.34 C 597.52 376.63 600.53 374.60 602.85 371.84 C 607.67 366.35 612.65 360.93 618.55 356.57 C 621.86 354.22 625.19 350.82 629.61 351.47 C 625.27 356.19 620.03 359.97 615.70 364.72 C 610.00 370.10 605.44 377.02 598.09 380.34 C 608.59 385.04 617.38 393.58 628.96 395.68 C 639.71 396.68 648.77 389.79 656.73 383.51 C 656.97 378.63 656.98 373.74 656.50 368.88 C 655.37 355.70 654.00 342.54 652.32 329.42 C 650.56 315.57 649.33 301.59 646.02 287.99 C 643.26 276.94 640.04 265.41 632.21 256.77 C 620.65 244.75 606.25 235.88 591.27 228.75 C 580.92 224.10 570.15 219.62 558.67 219.06 C 558.48 228.78 556.59 238.34 555.18 247.92 C 553.97 256.05 552.10 264.16 548.67 271.66 C 543.62 282.51 537.66 293.03 534.43 304.63 C 533.53 307.29 533.08 310.23 531.35 312.53 C 529.51 314.37 526.61 313.50 524.59 312.49 C 519.69 309.92 515.64 306.04 511.56 302.38 C 503.32 294.63 494.91 286.93 488.25 277.72 C 484.94 273.14 482.43 267.80 482.08 262.08 C 481.69 256.22 481.74 250.31 482.41 244.46 C 472.88 237.04 466.94 226.16 462.43 215.17 C 456.39 216.72 450.81 219.50 445.28 222.28 M 592.90 381.60 C 592.19 390.27 594.96 398.56 596.19 407.02 C 597.18 411.08 593.96 414.08 592.29 417.37 C 589.17 425.89 590.31 435.24 592.14 443.90 C 596.03 452.63 602.73 459.91 605.93 468.99 C 608.69 477.48 609.34 486.46 611.78 495.03 C 613.86 503.12 618.07 510.47 622.65 517.39 C 633.50 532.81 645.00 548.00 652.99 565.17 C 652.32 557.64 650.67 550.20 647.66 543.25 C 639.80 524.27 633.11 504.83 626.37 485.44 C 619.60 466.03 608.94 448.08 604.16 427.98 C 600.90 413.75 598.74 399.25 597.83 384.68 C 596.19 383.64 594.55 382.61 592.90 381.60 M 276.03 420.02 C 269.59 432.70 264.49 446.10 261.38 460.00 C 258.16 474.14 256.66 488.59 254.85 502.96 C 253.88 511.45 253.56 520.09 251.24 528.37 C 249.41 535.12 244.72 540.53 241.76 546.77 C 236.78 555.00 232.23 563.50 228.20 572.24 C 219.95 590.59 214.05 610.69 216.29 631.01 C 219.35 618.40 225.00 606.14 224.58 592.92 C 224.49 590.40 224.98 587.90 226.02 585.61 C 227.84 589.46 227.98 593.78 228.11 597.96 C 228.22 608.19 224.16 617.76 221.59 627.49 C 219.46 635.04 219.32 643.10 220.81 650.79 C 225.32 638.27 227.25 625.00 231.62 612.44 C 234.15 605.03 239.07 598.66 241.08 591.05 C 243.01 584.85 243.34 578.31 245.14 572.10 C 247.52 574.46 246.79 578.02 246.86 581.05 C 246.22 588.33 244.17 595.49 240.90 602.03 C 238.90 605.84 239.68 610.52 241.86 614.09 C 244.06 613.02 246.16 611.61 247.38 609.42 C 250.85 603.68 252.88 597.19 256.52 591.54 C 258.73 587.82 261.87 584.75 263.96 580.97 C 267.10 574.49 268.86 567.23 268.19 560.01 C 267.91 552.63 264.40 545.19 266.92 537.86 C 271.16 523.95 278.57 511.30 285.64 498.68 C 290.07 490.76 294.06 482.59 298.91 474.92 C 304.08 466.70 309.12 458.39 313.83 449.90 C 322.80 433.66 328.56 415.89 337.78 399.77 C 325.57 396.14 314.05 390.15 303.78 382.65 C 293.04 393.89 283.20 406.16 276.03 420.02 M 602.17 387.39 C 603.39 397.97 604.53 408.57 606.60 419.02 C 608.70 431.94 613.49 444.24 618.87 456.11 C 625.79 471.02 631.90 486.29 637.36 501.80 C 643.28 518.49 649.81 534.97 655.14 551.87 C 657.05 557.93 656.57 564.41 657.85 570.59 C 660.55 579.76 668.33 585.84 673.56 593.45 C 680.19 604.38 678.89 617.85 683.13 629.61 C 686.69 625.18 686.91 619.16 685.74 613.83 C 685.07 608.71 682.72 604.00 682.01 598.92 C 682.57 595.44 685.96 598.64 686.69 600.42 C 693.96 613.83 689.70 629.67 693.69 643.88 C 698.16 634.67 698.55 623.97 696.96 614.01 C 696.44 609.99 695.23 605.99 695.60 601.92 C 695.67 599.86 697.89 598.50 699.77 599.30 C 703.52 600.92 705.10 605.09 706.24 608.72 C 708.35 616.97 708.13 625.57 708.53 634.01 C 708.74 636.98 709.13 640.01 710.40 642.74 C 712.04 643.65 712.84 641.63 713.64 640.56 C 715.92 636.45 716.08 631.57 716.00 626.98 C 715.71 618.51 714.80 610.07 714.34 601.60 C 709.70 598.63 704.54 596.56 699.13 595.53 C 690.88 593.88 683.57 589.18 677.81 583.18 C 672.45 577.56 667.39 571.24 665.14 563.69 C 664.65 562.14 665.29 560.83 667.03 560.80 C 670.16 563.60 671.42 567.80 673.91 571.10 C 678.62 577.60 684.24 583.67 691.25 587.71 C 697.43 591.33 704.92 591.47 711.22 594.83 C 717.01 597.52 721.44 602.67 727.77 604.28 C 728.51 600.14 725.48 596.96 723.21 593.92 C 712.51 580.54 700.80 567.92 691.39 553.56 C 689.04 549.68 687.74 545.30 685.78 541.24 C 681.45 532.23 678.60 522.61 676.15 512.95 C 673.93 503.40 671.71 493.79 671.03 483.99 C 669.63 462.87 667.27 441.53 660.32 421.42 C 657.31 412.31 652.28 404.11 647.83 395.66 C 642.03 398.61 635.60 400.96 629.01 400.61 C 618.76 399.48 610.58 392.70 602.17 387.39 M 362.02 464.00 C 359.72 478.89 349.14 490.29 341.88 502.92 C 332.35 519.44 323.38 536.49 318.03 554.89 C 323.99 552.09 330.35 550.08 336.89 549.26 C 350.84 547.22 365.54 548.45 378.40 554.51 C 393.86 561.59 407.79 573.20 415.26 588.72 C 416.80 592.21 419.01 595.62 419.28 599.51 C 413.30 606.40 407.23 613.23 400.76 619.67 C 410.58 618.53 420.55 619.50 430.12 621.94 C 430.11 616.72 430.88 611.55 431.71 606.41 C 432.40 601.86 434.80 597.85 436.98 593.89 C 443.13 583.07 450.81 573.25 458.45 563.46 C 462.31 558.64 466.24 553.75 471.32 550.14 C 476.04 552.32 479.18 556.63 482.36 560.57 C 489.30 569.89 495.97 579.53 500.93 590.09 C 507.57 605.17 512.08 621.33 513.12 637.83 C 528.90 637.11 544.01 631.52 558.26 625.03 C 552.56 619.26 546.87 613.49 540.89 608.02 C 539.35 607.00 539.30 604.82 540.56 603.56 C 543.49 599.87 547.06 596.74 550.59 593.64 C 559.73 586.21 569.07 578.90 579.44 573.26 C 591.48 566.65 604.22 561.32 617.31 557.20 C 626.87 553.73 636.62 558.56 645.99 560.42 C 641.26 552.44 636.21 544.65 630.92 537.04 C 622.69 525.32 613.21 514.11 608.38 500.42 C 604.83 490.33 604.37 479.53 601.36 469.31 C 598.88 462.54 594.63 456.62 591.63 450.10 C 590.68 452.49 589.60 454.90 587.73 456.72 C 580.53 464.22 571.36 469.34 562.43 474.49 C 549.52 481.68 536.56 488.81 523.23 495.21 C 515.89 498.80 507.39 500.05 499.39 498.24 C 488.37 495.79 478.04 491.08 467.83 486.39 C 448.99 478.59 429.76 471.63 410.01 466.51 C 405.72 465.58 401.37 464.61 397.42 462.66 C 393.11 460.53 390.12 456.65 386.77 453.34 C 379.87 446.28 373.92 438.30 369.13 429.68 C 365.27 440.76 365.00 452.68 362.02 464.00 M 326.56 556.55 C 326.01 562.85 325.31 569.14 324.64 575.43 C 321.75 592.47 314.98 608.49 310.20 625.03 C 308.75 630.57 307.79 636.27 307.80 642.01 C 307.75 650.76 310.14 659.35 309.86 668.11 C 309.93 669.49 309.25 670.34 307.81 670.65 C 307.06 668.77 306.85 666.76 306.64 664.78 C 305.97 656.57 303.96 648.51 303.79 640.25 C 299.00 647.92 294.95 656.03 291.65 664.45 C 298.27 673.23 308.03 679.18 318.33 682.71 C 331.28 686.91 345.74 687.84 358.60 682.76 C 360.02 676.75 361.76 670.82 363.90 665.03 C 359.70 667.45 356.65 672.36 351.62 672.94 C 354.50 666.40 360.91 662.69 365.35 657.38 C 369.68 652.32 373.55 646.87 377.31 641.38 C 387.35 625.22 402.55 613.36 414.74 598.97 C 412.64 594.58 410.55 590.17 407.99 586.03 C 401.09 574.64 390.19 566.21 378.35 560.43 C 362.43 552.37 343.58 552.50 326.56 556.55 M 594.71 570.83 C 575.51 579.24 558.45 591.87 543.28 606.20 C 560.10 619.48 574.00 635.89 588.75 651.33 C 598.34 661.06 607.80 670.92 617.11 680.91 C 623.55 688.61 630.95 696.04 634.32 705.72 C 634.86 707.11 635.26 709.59 633.03 709.69 C 629.61 703.92 626.20 698.10 621.81 693.00 C 623.60 699.87 625.41 706.77 625.69 713.91 C 637.72 720.75 652.19 722.31 665.68 719.86 C 676.41 717.94 687.15 713.35 694.10 704.66 C 693.24 699.48 691.94 694.40 690.34 689.41 C 684.92 672.96 679.96 656.35 673.63 640.22 C 665.82 618.91 655.88 598.20 651.51 575.80 C 650.75 572.98 650.32 569.92 648.58 567.51 C 646.69 565.75 644.08 565.14 641.73 564.27 C 635.35 562.36 628.85 559.24 622.04 560.73 C 612.56 562.99 603.61 566.95 594.71 570.83 M 719.15 605.15 C 721.20 614.46 719.95 624.56 724.19 633.32 C 729.22 625.72 728.62 616.14 729.40 607.44 C 725.76 608.13 722.26 606.96 719.15 605.15 M 231.28 628.90 C 231.70 636.43 231.97 644.48 235.97 651.13 C 239.73 641.18 238.14 630.35 238.56 619.97 C 238.83 616.39 237.76 612.94 236.95 609.51 C 234.61 615.81 232.22 622.21 231.28 628.90 M 289.82 669.29 C 285.79 680.60 282.65 692.20 280.16 703.94 C 275.66 725.26 272.70 747.19 275.00 768.98 C 275.67 775.28 276.33 781.60 276.22 787.96 C 276.17 802.03 276.61 816.18 274.70 830.17 C 273.95 847.51 269.70 864.39 266.10 881.30 C 264.90 887.35 262.68 894.30 265.79 900.09 C 266.80 899.42 267.91 898.74 268.30 897.52 C 270.38 892.82 270.59 887.60 271.88 882.69 C 272.69 879.66 276.04 878.48 278.86 878.31 C 283.75 878.01 288.81 877.97 293.56 879.38 C 296.44 880.19 298.51 882.98 298.58 885.97 C 298.92 892.11 294.25 897.10 294.07 903.16 C 301.08 901.57 306.53 896.55 312.68 893.13 C 311.70 884.78 312.61 876.40 312.51 868.03 C 312.32 854.99 313.45 841.71 318.38 829.51 C 332.03 799.69 343.85 768.60 348.43 735.96 C 350.74 719.78 354.41 703.85 357.56 687.82 C 347.76 692.50 336.41 692.16 326.01 689.98 C 312.40 686.65 298.80 680.42 289.82 669.29 M 660.94 725.37 C 648.78 726.40 635.99 724.64 625.47 718.12 C 625.32 734.52 625.81 751.30 630.98 767.03 C 635.93 782.40 641.85 797.48 648.88 812.03 C 655.70 826.51 661.36 841.83 662.70 857.90 C 663.49 866.44 661.83 875.62 666.44 883.37 C 669.41 887.39 673.16 891.02 677.69 893.23 C 683.25 895.72 689.46 893.87 694.95 892.10 C 696.83 891.47 699.52 889.36 698.15 887.18 C 695.28 883.33 690.28 881.51 688.00 877.15 C 686.32 874.20 687.23 869.89 690.35 868.30 C 694.77 865.83 699.83 864.92 704.69 863.72 C 698.09 849.44 697.17 833.46 696.02 818.01 C 695.54 804.71 694.65 791.40 695.38 778.10 C 696.03 755.62 697.40 733.04 694.99 710.62 C 685.90 719.46 673.44 724.21 660.94 725.37 M 708.42 866.23 C 703.03 868.86 697.25 870.54 691.87 873.18 C 694.80 877.88 700.21 880.25 703.13 884.91 C 705.91 889.47 702.14 895.01 697.72 896.73 C 692.46 898.74 686.72 899.84 681.08 899.46 C 672.85 898.59 666.53 892.48 661.61 886.32 C 660.49 893.95 658.33 901.38 657.04 908.98 C 656.52 910.90 657.11 912.97 658.67 914.24 C 662.37 917.55 667.38 918.71 672.03 920.09 C 686.06 924.00 700.65 925.00 715.08 926.24 C 733.59 928.53 747.78 942.57 765.96 945.88 C 771.48 946.94 778.14 947.75 782.66 943.65 C 787.23 939.16 786.82 931.85 784.77 926.26 C 782.39 919.19 775.69 915.17 770.00 911.00 C 759.24 902.80 747.22 896.51 736.10 888.83 C 726.10 882.33 715.61 876.01 708.42 866.23 M 276.22 883.10 C 275.06 888.99 274.73 895.28 271.68 900.60 C 270.14 903.70 265.31 904.82 262.97 902.02 C 260.16 898.72 260.58 894.04 260.40 890.02 C 256.53 901.94 252.38 913.82 247.27 925.28 C 243.32 933.90 237.51 941.43 232.53 949.44 C 229.68 954.61 227.09 962.23 231.98 967.03 C 238.77 973.02 248.43 973.44 257.04 973.92 C 265.75 974.47 273.59 969.29 279.98 963.92 C 288.35 956.38 289.87 944.66 295.34 935.31 C 299.60 927.14 306.07 920.40 310.33 912.26 C 312.85 907.61 313.39 902.26 313.64 897.07 C 307.99 900.64 302.68 905.35 295.96 906.72 C 293.32 907.41 290.38 905.72 289.98 902.96 C 289.09 896.87 294.04 891.90 294.27 885.97 C 294.46 884.54 293.09 883.53 291.87 883.25 C 286.76 881.89 281.39 882.43 276.22 883.10 Z" />
		<path fill="#020202" opacity="1.00"
			d=" M 475.19 203.33 C 478.16 205.75 480.26 209.01 482.64 211.97 C 484.51 211.36 486.39 210.75 488.30 210.23 C 487.49 212.04 486.92 214.01 485.73 215.63 C 482.03 215.95 478.11 215.11 475.00 213.05 C 471.82 210.58 474.29 206.33 475.19 203.33 Z" />
		<path fill="#020202" opacity="1.00"
			d=" M 498.94 226.45 C 503.31 225.91 507.63 224.74 512.06 224.74 C 512.39 225.00 513.05 225.52 513.39 225.78 C 511.93 227.80 510.81 230.20 509.05 231.93 C 502.42 233.48 495.60 234.18 488.88 235.23 C 486.59 236.15 485.57 233.81 484.37 232.39 C 483.03 231.72 481.73 231.00 480.49 230.19 C 486.41 227.98 492.77 227.54 498.94 226.45 Z" />
		<path fill="#020202" opacity="1.00"
			d=" M 636.66 685.05 C 636.18 682.43 639.34 683.71 640.38 684.50 C 647.91 689.48 654.38 695.91 660.27 702.71 C 662.53 705.36 665.16 708.00 665.66 711.63 C 660.70 708.66 657.30 703.81 652.95 700.10 C 647.74 694.84 641.74 690.40 636.66 685.05 Z" />
	</g>
	<g id="#f0b58bff">
		<path fill="#f0b58b" opacity="1.00"
			d=" M 492.60 156.91 C 497.90 151.68 500.93 144.55 501.97 137.26 C 508.22 140.03 510.28 147.27 510.65 153.53 C 513.89 148.75 517.83 144.40 522.81 141.39 C 522.31 145.69 521.50 150.34 523.53 154.39 C 525.96 151.53 528.21 148.52 530.95 145.93 C 527.82 152.39 525.38 159.39 526.08 166.68 C 522.12 165.53 518.14 163.71 513.93 164.32 C 506.72 165.24 499.59 166.71 492.54 168.41 C 490.55 169.03 487.52 169.36 487.59 172.08 C 487.50 174.66 486.38 178.45 488.90 180.16 C 502.21 179.19 515.49 177.42 528.80 176.32 C 532.16 179.76 534.36 184.20 534.98 188.97 C 535.94 193.49 535.76 198.87 539.51 202.19 C 539.34 191.79 538.33 181.00 541.93 171.00 C 543.02 168.31 544.75 164.96 548.06 164.79 C 550.57 165.24 551.28 167.99 552.01 170.05 C 555.07 179.73 551.72 189.89 553.25 199.73 C 554.26 205.10 552.67 210.54 553.48 215.94 C 554.45 223.14 553.12 230.36 552.18 237.49 C 550.44 248.86 549.09 260.57 544.05 271.06 C 540.62 278.06 537.15 285.04 534.10 292.20 C 531.72 297.77 530.30 303.66 528.48 309.42 C 522.46 305.63 517.35 300.64 512.14 295.86 C 504.44 288.54 496.54 281.24 490.58 272.38 C 485.52 264.98 485.49 255.58 486.12 246.99 C 491.39 249.74 496.93 252.53 503.03 252.49 C 508.98 252.68 514.32 249.42 518.75 245.77 C 522.75 242.31 526.98 238.85 529.54 234.12 C 521.04 237.06 515.73 245.63 506.81 247.78 C 500.23 249.08 493.85 245.94 488.37 242.63 C 479.67 237.32 474.04 228.43 469.70 219.46 C 465.26 210.15 464.14 199.78 462.56 189.73 C 465.96 188.57 469.43 187.63 472.96 186.96 C 474.12 192.53 472.93 198.82 476.09 203.81 C 478.61 195.90 479.19 187.06 476.88 179.03 C 474.66 172.10 466.75 170.28 460.47 169.01 C 460.18 163.82 459.84 158.63 459.22 153.47 C 463.05 149.64 466.67 145.61 470.05 141.38 C 471.22 147.34 471.07 153.44 471.67 159.45 C 471.93 159.71 472.45 160.24 472.71 160.51 C 479.44 154.90 483.25 146.72 488.84 140.10 C 492.04 145.12 492.40 151.13 492.60 156.91 M 475.19 203.33 C 474.29 206.33 471.82 210.58 475.00 213.05 C 478.11 215.11 482.03 215.95 485.73 215.63 C 486.92 214.01 487.49 212.04 488.30 210.23 C 486.39 210.75 484.51 211.36 482.64 211.97 C 480.26 209.01 478.16 205.75 475.19 203.33 M 498.94 226.45 C 492.77 227.54 486.41 227.98 480.49 230.19 C 481.73 231.00 483.03 231.72 484.37 232.39 C 485.57 233.81 486.59 236.15 488.88 235.23 C 495.60 234.18 502.42 233.48 509.05 231.93 C 510.81 230.20 511.93 227.80 513.39 225.78 C 513.05 225.52 512.39 225.00 512.06 224.74 C 507.63 224.74 503.31 225.91 498.94 226.45 Z" />
		<path fill="#f0b58b" opacity="1.00"
			d=" M 276.03 420.02 C 283.20 406.16 293.04 393.89 303.78 382.65 C 314.05 390.15 325.57 396.14 337.78 399.77 C 328.56 415.89 322.80 433.66 313.83 449.90 C 309.12 458.39 304.08 466.70 298.91 474.92 C 294.06 482.59 290.07 490.76 285.64 498.68 C 278.57 511.30 271.16 523.95 266.92 537.86 C 264.40 545.19 267.91 552.63 268.19 560.01 C 268.86 567.23 267.10 574.49 263.96 580.97 C 261.87 584.75 258.73 587.82 256.52 591.54 C 252.88 597.19 250.85 603.68 247.38 609.42 C 246.16 611.61 244.06 613.02 241.86 614.09 C 239.68 610.52 238.90 605.84 240.90 602.03 C 244.17 595.49 246.22 588.33 246.86 581.05 C 246.79 578.02 247.52 574.46 245.14 572.10 C 243.34 578.31 243.01 584.85 241.08 591.05 C 239.07 598.66 234.15 605.03 231.62 612.44 C 227.25 625.00 225.32 638.27 220.81 650.79 C 219.32 643.10 219.46 635.04 221.59 627.49 C 224.16 617.76 228.22 608.19 228.11 597.96 C 227.98 593.78 227.84 589.46 226.02 585.61 C 224.98 587.90 224.49 590.40 224.58 592.92 C 225.00 606.14 219.35 618.40 216.29 631.01 C 214.05 610.69 219.95 590.59 228.20 572.24 C 232.23 563.50 236.78 555.00 241.76 546.77 C 244.72 540.53 249.41 535.12 251.24 528.37 C 253.56 520.09 253.88 511.45 254.85 502.96 C 256.66 488.59 258.16 474.14 261.38 460.00 C 264.49 446.10 269.59 432.70 276.03 420.02 Z" />
		<path fill="#f0b58b" opacity="1.00"
			d=" M 602.17 387.39 C 610.58 392.70 618.76 399.48 629.01 400.61 C 635.60 400.96 642.03 398.61 647.83 395.66 C 652.28 404.11 657.31 412.31 660.32 421.42 C 667.27 441.53 669.63 462.87 671.03 483.99 C 671.71 493.79 673.93 503.40 676.15 512.95 C 678.60 522.61 681.45 532.23 685.78 541.24 C 687.74 545.30 689.04 549.68 691.39 553.56 C 700.80 567.92 712.51 580.54 723.21 593.92 C 725.48 596.96 728.51 600.14 727.77 604.28 C 721.44 602.67 717.01 597.52 711.22 594.83 C 704.92 591.47 697.43 591.33 691.25 587.71 C 684.24 583.67 678.62 577.60 673.91 571.10 C 671.42 567.80 670.16 563.60 667.03 560.80 C 665.29 560.83 664.65 562.14 665.14 563.69 C 667.39 571.24 672.45 577.56 677.81 583.18 C 683.57 589.18 690.88 593.88 699.13 595.53 C 704.54 596.56 709.70 598.63 714.34 601.60 C 714.80 610.07 715.71 618.51 716.00 626.98 C 716.08 631.57 715.92 636.45 713.64 640.56 C 712.84 641.63 712.04 643.65 710.40 642.74 C 709.13 640.01 708.74 636.98 708.53 634.01 C 708.13 625.57 708.35 616.97 706.24 608.72 C 705.10 605.09 703.52 600.92 699.77 599.30 C 697.89 598.50 695.67 599.86 695.60 601.92 C 695.23 605.99 696.44 609.99 696.96 614.01 C 698.55 623.97 698.16 634.67 693.69 643.88 C 689.70 629.67 693.96 613.83 686.69 600.42 C 685.96 598.64 682.57 595.44 682.01 598.92 C 682.72 604.00 685.07 608.71 685.74 613.83 C 686.91 619.16 686.69 625.18 683.13 629.61 C 678.89 617.85 680.19 604.38 673.56 593.45 C 668.33 585.84 660.55 579.76 657.85 570.59 C 656.57 564.41 657.05 557.93 655.14 551.87 C 649.81 534.97 643.28 518.49 637.36 501.80 C 631.90 486.29 625.79 471.02 618.87 456.11 C 613.49 444.24 608.70 431.94 606.60 419.02 C 604.53 408.57 603.39 397.97 602.17 387.39 Z" />
		<path fill="#f0b58b" opacity="1.00"
			d=" M 326.56 556.55 C 343.58 552.50 362.43 552.37 378.35 560.43 C 390.19 566.21 401.09 574.64 407.99 586.03 C 410.55 590.17 412.64 594.58 414.74 598.97 C 402.55 613.36 387.35 625.22 377.31 641.38 C 373.55 646.87 369.68 652.32 365.35 657.38 C 360.91 662.69 354.50 666.40 351.62 672.94 C 356.65 672.36 359.70 667.45 363.90 665.03 C 361.76 670.82 360.02 676.75 358.60 682.76 C 345.74 687.84 331.28 686.91 318.33 682.71 C 308.03 679.18 298.27 673.23 291.65 664.45 C 294.95 656.03 299.00 647.92 303.79 640.25 C 303.96 648.51 305.97 656.57 306.64 664.78 C 306.85 666.76 307.06 668.77 307.81 670.65 C 309.25 670.34 309.93 669.49 309.86 668.11 C 310.14 659.35 307.75 650.76 307.80 642.01 C 307.79 636.27 308.75 630.57 310.20 625.03 C 314.98 608.49 321.75 592.47 324.64 575.43 C 325.31 569.14 326.01 562.85 326.56 556.55 Z" />
		<path fill="#f0b58b" opacity="1.00"
			d=" M 594.71 570.83 C 603.61 566.95 612.56 562.99 622.04 560.73 C 628.85 559.24 635.35 562.36 641.73 564.27 C 644.08 565.14 646.69 565.75 648.58 567.51 C 650.32 569.92 650.75 572.98 651.51 575.80 C 655.88 598.20 665.82 618.91 673.63 640.22 C 679.96 656.35 684.92 672.96 690.34 689.41 C 691.94 694.40 693.24 699.48 694.10 704.66 C 687.15 713.35 676.41 717.94 665.68 719.86 C 652.19 722.31 637.72 720.75 625.69 713.91 C 625.41 706.77 623.60 699.87 621.81 693.00 C 626.20 698.10 629.61 703.92 633.03 709.69 C 635.26 709.59 634.86 707.11 634.32 705.72 C 630.95 696.04 623.55 688.61 617.11 680.91 C 607.80 670.92 598.34 661.06 588.75 651.33 C 574.00 635.89 560.10 619.48 543.28 606.20 C 558.45 591.87 575.51 579.24 594.71 570.83 M 636.66 685.05 C 641.74 690.40 647.74 694.84 652.95 700.10 C 657.30 703.81 660.70 708.66 665.66 711.63 C 665.16 708.00 662.53 705.36 660.27 702.71 C 654.38 695.91 647.91 689.48 640.38 684.50 C 639.34 683.71 636.18 682.43 636.66 685.05 Z" />
		<path fill="#f0b58b" opacity="1.00"
			d=" M 719.15 605.15 C 722.26 606.96 725.76 608.13 729.40 607.44 C 728.62 616.14 729.22 625.72 724.19 633.32 C 719.95 624.56 721.20 614.46 719.15 605.15 Z" />
		<path fill="#f0b58b" opacity="1.00"
			d=" M 231.28 628.90 C 232.22 622.21 234.61 615.81 236.95 609.51 C 237.76 612.94 238.83 616.39 238.56 619.97 C 238.14 630.35 239.73 641.18 235.97 651.13 C 231.97 644.48 231.70 636.43 231.28 628.90 Z" />
	</g>
	<g id="#f11b27ff">
		<path fill="var(--shirt-color, grey)" opacity="1.00"
			d=" M 445.28 222.28 C 450.81 219.50 456.39 216.72 462.43 215.17 C 466.94 226.16 472.88 237.04 482.41 244.46 C 481.74 250.31 481.69 256.22 482.08 262.08 C 482.43 267.80 484.94 273.14 488.25 277.72 C 494.91 286.93 503.32 294.63 511.56 302.38 C 515.64 306.04 519.69 309.92 524.59 312.49 C 526.61 313.50 529.51 314.37 531.35 312.53 C 533.08 310.23 533.53 307.29 534.43 304.63 C 537.66 293.03 543.62 282.51 548.67 271.66 C 552.10 264.16 553.97 256.05 555.18 247.92 C 556.59 238.34 558.48 228.78 558.67 219.06 C 570.15 219.62 580.92 224.10 591.27 228.75 C 606.25 235.88 620.65 244.75 632.21 256.77 C 640.04 265.41 643.26 276.94 646.02 287.99 C 649.33 301.59 650.56 315.57 652.32 329.42 C 654.00 342.54 655.37 355.70 656.50 368.88 C 656.98 373.74 656.97 378.63 656.73 383.51 C 648.77 389.79 639.71 396.68 628.96 395.68 C 617.38 393.58 608.59 385.04 598.09 380.34 C 605.44 377.02 610.00 370.10 615.70 364.72 C 620.03 359.97 625.27 356.19 629.61 351.47 C 625.19 350.82 621.86 354.22 618.55 356.57 C 612.65 360.93 607.67 366.35 602.85 371.84 C 600.53 374.60 597.52 376.63 594.38 378.34 C 595.87 375.20 597.24 371.98 599.11 369.03 C 603.81 361.88 610.38 356.23 615.27 349.23 C 620.01 342.84 624.21 336.06 627.82 328.96 C 630.28 324.01 633.52 319.41 635.22 314.10 C 631.83 316.10 629.91 319.61 627.86 322.82 C 621.36 332.88 615.08 343.16 607.24 352.26 C 602.44 357.51 597.53 362.79 594.02 369.03 C 590.54 375.84 587.06 382.67 583.26 389.31 C 580.29 394.47 575.90 398.70 570.85 401.80 C 555.16 411.69 537.59 417.96 520.19 424.09 C 515.29 425.93 510.24 427.48 505.71 430.17 C 507.58 431.03 509.61 431.62 511.62 430.82 C 529.52 425.51 547.38 419.64 564.01 411.03 C 570.27 407.51 576.79 404.07 581.73 398.73 C 584.61 395.76 586.81 392.23 588.76 388.60 C 588.74 393.52 589.60 398.37 590.50 403.19 C 590.82 405.97 591.72 409.27 589.53 411.54 C 583.17 419.50 577.01 427.69 569.62 434.75 C 564.74 439.48 559.90 444.24 555.10 449.05 C 552.11 452.16 548.14 454.50 546.28 458.56 C 551.52 457.53 555.22 453.46 559.21 450.26 C 568.93 441.78 578.65 433.18 586.68 423.03 C 585.08 430.99 586.36 439.06 587.20 447.03 C 587.67 449.53 586.34 451.85 584.61 453.54 C 578.16 460.08 570.07 464.62 562.20 469.22 C 551.20 475.70 539.96 481.80 528.59 487.62 C 521.02 491.62 512.82 495.95 503.95 494.57 C 490.98 492.70 478.97 487.09 467.05 481.95 C 456.72 477.86 446.41 473.69 435.93 470.02 C 427.24 466.82 418.30 464.39 409.58 461.31 C 405.52 459.84 401.00 459.26 397.46 456.65 C 389.10 448.23 381.07 439.35 374.82 429.21 C 373.52 427.16 373.09 424.51 374.26 422.29 C 376.29 418.22 380.01 415.31 382.26 411.35 C 386.06 404.82 387.20 397.15 387.69 389.73 C 394.65 404.68 401.84 420.35 414.57 431.35 C 422.97 437.37 432.37 441.85 441.75 446.15 C 448.48 449.25 454.80 453.76 462.33 454.68 C 448.11 445.19 432.24 438.42 417.95 429.03 C 405.36 418.88 398.68 403.67 391.51 389.60 C 387.43 382.04 384.04 373.70 384.53 364.95 C 386.32 361.08 389.81 358.30 392.26 354.86 C 398.18 363.57 401.82 373.57 407.54 382.40 C 412.20 389.58 417.31 396.53 423.40 402.57 C 426.97 406.07 430.25 410.00 434.63 412.55 C 433.61 409.48 431.63 406.90 429.40 404.61 C 420.97 395.81 413.71 385.91 407.53 375.41 C 402.87 367.64 399.77 358.85 393.61 352.05 C 395.53 348.13 398.47 344.10 403.12 343.43 C 410.64 342.39 418.29 343.60 425.57 345.54 C 432.26 347.28 439.00 349.52 446.02 349.16 C 451.58 348.87 457.22 348.69 462.65 347.34 C 464.40 347.00 465.61 345.61 466.85 344.44 C 460.55 344.01 454.29 345.40 447.98 345.06 C 438.27 344.79 429.28 340.67 419.79 339.10 C 412.87 337.98 405.52 337.59 398.89 340.28 C 402.39 330.16 405.59 319.83 406.71 309.14 C 407.20 303.04 406.47 296.94 406.08 290.86 C 403.08 296.31 404.29 302.68 403.26 308.57 C 402.14 315.28 400.85 322.00 398.59 328.44 C 395.73 336.86 393.08 345.53 388.06 352.97 C 385.24 356.91 381.86 360.41 378.60 363.98 C 378.74 351.81 376.32 338.99 368.87 329.07 C 366.93 326.15 364.65 323.27 361.23 322.02 C 363.62 328.00 367.84 333.06 370.09 339.11 C 373.49 348.88 374.54 359.37 373.45 369.65 C 366.54 377.98 361.77 387.72 356.37 397.03 C 340.93 399.16 326.90 391.20 313.82 384.20 C 302.89 378.30 295.04 367.63 291.24 355.95 C 300.96 341.36 313.51 328.89 323.41 314.41 C 330.63 304.71 337.78 294.94 345.33 285.49 C 350.28 279.14 355.36 272.78 361.58 267.60 C 369.03 261.29 377.72 256.70 386.33 252.19 C 405.93 242.11 425.60 232.19 445.28 222.28 Z" />
	</g>
	<g id="#ffffffff">
		<path fill="var(--pants-color, grey)" opacity="1.00"
			d=" M 362.02 464.00 C 365.00 452.68 365.27 440.76 369.13 429.68 C 373.92 438.30 379.87 446.28 386.77 453.34 C 390.12 456.65 393.11 460.53 397.42 462.66 C 401.37 464.61 405.72 465.58 410.01 466.51 C 429.76 471.63 448.99 478.59 467.83 486.39 C 478.04 491.08 488.37 495.79 499.39 498.24 C 507.39 500.05 515.89 498.80 523.23 495.21 C 536.56 488.81 549.52 481.68 562.43 474.49 C 571.36 469.34 580.53 464.22 587.73 456.72 C 589.60 454.90 590.68 452.49 591.63 450.10 C 594.63 456.62 598.88 462.54 601.36 469.31 C 604.37 479.53 604.83 490.33 608.38 500.42 C 613.21 514.11 622.69 525.32 630.92 537.04 C 636.21 544.65 641.26 552.44 645.99 560.42 C 636.62 558.56 626.87 553.73 617.31 557.20 C 604.22 561.32 591.48 566.65 579.44 573.26 C 569.07 578.90 559.73 586.21 550.59 593.64 C 547.06 596.74 543.49 599.87 540.56 603.56 C 539.30 604.82 539.35 607.00 540.89 608.02 C 546.87 613.49 552.56 619.26 558.26 625.03 C 544.01 631.52 528.90 637.11 513.12 637.83 C 512.08 621.33 507.57 605.17 500.93 590.09 C 495.97 579.53 489.30 569.89 482.36 560.57 C 479.18 556.63 476.04 552.32 471.32 550.14 C 466.24 553.75 462.31 558.64 458.45 563.46 C 450.81 573.25 443.13 583.07 436.98 593.89 C 434.80 597.85 432.40 601.86 431.71 606.41 C 430.88 611.55 430.11 616.72 430.12 621.94 C 420.55 619.50 410.58 618.53 400.76 619.67 C 407.23 613.23 413.30 606.40 419.28 599.51 C 419.01 595.62 416.80 592.21 415.26 588.72 C 407.79 573.20 393.86 561.59 378.40 554.51 C 365.54 548.45 350.84 547.22 336.89 549.26 C 330.35 550.08 323.99 552.09 318.03 554.89 C 323.38 536.49 332.35 519.44 341.88 502.92 C 349.14 490.29 359.72 478.89 362.02 464.00 Z" />
		<path fill="var(--socks-color, grey)" opacity="1.00"
			d=" M 289.82 669.29 C 298.80 680.42 312.40 686.65 326.01 689.98 C 336.41 692.16 347.76 692.50 357.56 687.82 C 354.41 703.85 350.74 719.78 348.43 735.96 C 343.85 768.60 332.03 799.69 318.38 829.51 C 313.45 841.71 312.32 854.99 312.51 868.03 C 312.61 876.40 311.70 884.78 312.68 893.13 C 306.53 896.55 301.08 901.57 294.07 903.16 C 294.25 897.10 298.92 892.11 298.58 885.97 C 298.51 882.98 296.44 880.19 293.56 879.38 C 288.81 877.97 283.75 878.01 278.86 878.31 C 276.04 878.48 272.69 879.66 271.88 882.69 C 270.59 887.60 270.38 892.82 268.30 897.52 C 267.91 898.74 266.80 899.42 265.79 900.09 C 262.68 894.30 264.90 887.35 266.10 881.30 C 269.70 864.39 273.95 847.51 274.70 830.17 C 276.61 816.18 276.17 802.03 276.22 787.96 C 276.33 781.60 275.67 775.28 275.00 768.98 C 272.70 747.19 275.66 725.26 280.16 703.94 C 282.65 692.20 285.79 680.60 289.82 669.29 Z" />
		<path fill="var(--socks-color, grey)" opacity="1.00"
			d=" M 660.94 725.37 C 673.44 724.21 685.90 719.46 694.99 710.62 C 697.40 733.04 696.03 755.62 695.38 778.10 C 694.65 791.40 695.54 804.71 696.02 818.01 C 697.17 833.46 698.09 849.44 704.69 863.72 C 699.83 864.92 694.77 865.83 690.35 868.30 C 687.23 869.89 686.32 874.20 688.00 877.15 C 690.28 881.51 695.28 883.33 698.15 887.18 C 699.52 889.36 696.83 891.47 694.95 892.10 C 689.46 893.87 683.25 895.72 677.69 893.23 C 673.16 891.02 669.41 887.39 666.44 883.37 C 661.83 875.62 663.49 866.44 662.70 857.90 C 661.36 841.83 655.70 826.51 648.88 812.03 C 641.85 797.48 635.93 782.40 630.98 767.03 C 625.81 751.30 625.32 734.52 625.47 718.12 C 635.99 724.64 648.78 726.40 660.94 725.37 Z" />
	</g>
	<g id="#4d4d4dff">
		<path fill="#4d4d4d" opacity="1.00"
			d=" M 708.42 866.23 C 715.61 876.01 726.10 882.33 736.10 888.83 C 747.22 896.51 759.24 902.80 770.00 911.00 C 775.69 915.17 782.39 919.19 784.77 926.26 C 786.82 931.85 787.23 939.16 782.66 943.65 C 778.14 947.75 771.48 946.94 765.96 945.88 C 747.78 942.57 733.59 928.53 715.08 926.24 C 700.65 925.00 686.06 924.00 672.03 920.09 C 667.38 918.71 662.37 917.55 658.67 914.24 C 657.11 912.97 656.52 910.90 657.04 908.98 C 658.33 901.38 660.49 893.95 661.61 886.32 C 666.53 892.48 672.85 898.59 681.08 899.46 C 686.72 899.84 692.46 898.74 697.72 896.73 C 702.14 895.01 705.91 889.47 703.13 884.91 C 700.21 880.25 694.80 877.88 691.87 873.18 C 697.25 870.54 703.03 868.86 708.42 866.23 Z" />
		<path fill="#4d4d4d" opacity="1.00"
			d=" M 276.22 883.10 C 281.39 882.43 286.76 881.89 291.87 883.25 C 293.09 883.53 294.46 884.54 294.27 885.97 C 294.04 891.90 289.09 896.87 289.98 902.96 C 290.38 905.72 293.32 907.41 295.96 906.72 C 302.68 905.35 307.99 900.64 313.64 897.07 C 313.39 902.26 312.85 907.61 310.33 912.26 C 306.07 920.40 299.60 927.14 295.34 935.31 C 289.87 944.66 288.35 956.38 279.98 963.92 C 273.59 969.29 265.75 974.47 257.04 973.92 C 248.43 973.44 238.77 973.02 231.98 967.03 C 227.09 962.23 229.68 954.61 232.53 949.44 C 237.51 941.43 243.32 933.90 247.27 925.28 C 252.38 913.82 256.53 901.94 260.40 890.02 C 260.58 894.04 260.16 898.72 262.97 902.02 C 265.31 904.82 270.14 903.70 271.68 900.60 C 274.73 895.28 275.06 888.99 276.22 883.10 Z" />
	</g>
</svg>