<?xml version="1.0" encoding="UTF-8" ?>
<!DOCTYPE svg PUBLIC "-//W3C//DTD SVG 1.1//EN" "http://www.w3.org/Graphics/SVG/1.1/DTD/svg11.dtd">
<svg width="1000pt" height="1000pt" viewBox="0 0 1000 1000" version="1.1" xmlns="http://www.w3.org/2000/svg">
	<g id="#020202ff">
		<path fill="#020202" opacity="1.00"
			d=" M 436.67 40.70 C 449.12 31.94 465.16 28.29 480.13 31.29 C 493.41 33.70 505.42 41.33 513.92 51.72 C 515.45 51.37 516.94 51.73 517.90 53.05 C 525.25 61.07 532.66 69.13 538.79 78.15 C 541.85 82.48 542.23 87.90 542.92 92.98 C 543.37 97.90 543.95 103.55 548.22 106.76 C 556.71 112.74 566.60 116.21 575.55 121.40 C 588.17 128.24 598.73 138.13 609.16 147.86 C 615.58 154.10 621.95 160.44 627.45 167.53 C 629.98 170.78 632.58 174.13 633.79 178.13 C 635.09 182.31 634.63 186.76 634.06 191.02 C 632.59 200.70 629.96 210.15 627.36 219.57 C 623.44 235.14 617.62 250.20 610.73 264.68 C 605.16 275.85 599.18 287.08 590.45 296.15 C 591.13 302.61 591.08 309.16 590.28 315.61 C 590.10 318.54 587.07 319.71 585.00 321.16 C 580.69 323.64 576.67 326.67 573.52 330.55 C 561.72 344.85 553.69 362.52 552.04 381.09 C 550.98 392.75 551.00 404.48 550.50 416.18 C 549.82 433.94 551.29 451.71 550.24 469.46 C 550.02 474.02 548.60 478.76 544.73 481.56 C 549.69 488.75 553.06 496.88 555.77 505.15 C 561.52 522.27 565.02 540.08 567.13 558.00 C 570.66 589.65 565.12 621.32 565.38 653.00 C 565.15 659.56 565.97 666.25 564.54 672.72 C 562.43 673.77 560.05 674.00 557.79 674.51 C 559.44 703.51 547.00 731.07 547.90 760.01 C 548.58 772.80 552.49 785.19 552.82 798.02 C 554.45 818.31 551.24 838.50 548.30 858.51 C 545.20 875.85 541.45 893.07 536.99 910.10 C 534.37 919.99 532.65 930.10 529.72 939.91 C 532.78 946.83 535.84 953.78 539.80 960.25 C 543.63 967.34 548.02 974.69 548.10 983.01 C 548.17 986.08 547.10 989.68 544.11 991.10 C 533.92 996.36 522.35 998.20 510.98 998.33 C 504.54 998.36 497.47 998.80 491.79 995.26 C 486.72 992.04 486.06 985.44 485.90 980.00 C 486.23 971.06 488.10 962.06 491.93 953.96 C 493.09 951.16 495.41 949.14 497.84 947.46 C 496.01 936.75 495.51 925.87 493.84 915.13 C 491.63 900.51 489.83 885.82 489.24 871.04 C 488.52 849.02 490.81 827.07 492.79 805.17 C 494.01 790.76 497.39 776.47 496.66 761.93 C 495.37 747.49 490.72 733.64 487.73 719.52 C 485.93 710.39 485.34 701.04 485.93 691.75 C 482.47 690.81 478.01 690.52 475.88 687.23 C 474.29 682.31 473.11 677.27 471.72 672.30 C 471.36 676.20 470.82 680.09 470.17 683.96 C 467.22 684.09 464.26 684.10 461.31 684.05 C 461.94 695.21 460.34 706.34 459.19 717.42 C 458.27 726.60 456.42 735.65 454.92 744.75 C 453.86 751.18 451.94 757.46 451.25 763.95 C 450.50 770.28 453.49 776.15 455.14 782.09 C 459.53 796.37 464.80 810.83 464.31 825.99 C 463.90 847.64 460.45 869.07 457.70 890.50 C 456.69 901.22 455.47 912.16 457.63 922.82 C 459.03 929.14 460.92 935.39 463.75 941.23 C 465.89 947.92 466.54 955.12 465.83 962.10 C 465.28 966.40 463.49 971.41 459.01 972.95 C 455.50 974.29 452.32 976.27 449.06 978.10 C 435.69 984.57 420.75 987.22 405.97 987.27 C 400.35 987.13 394.31 985.89 390.10 981.93 C 387.69 979.47 388.35 975.63 390.04 972.97 C 393.04 968.06 398.25 965.20 402.33 961.31 C 411.37 953.04 417.25 942.16 423.23 931.65 C 419.67 916.36 416.59 900.94 411.92 885.95 C 405.08 862.20 398.71 837.88 398.81 813.00 C 398.88 800.64 400.24 788.35 401.74 776.10 C 402.41 770.25 403.34 764.31 402.26 758.45 C 400.43 747.89 397.15 737.61 396.04 726.91 C 394.26 711.24 392.85 695.51 392.35 679.75 C 387.03 678.46 381.59 677.90 376.23 676.86 C 375.09 669.62 375.35 662.27 375.28 654.97 C 375.27 639.61 375.85 624.20 378.01 608.98 C 378.68 603.17 381.03 597.79 383.02 592.36 C 383.95 589.56 384.53 586.67 384.91 583.76 C 387.75 562.92 388.47 541.79 392.63 521.14 C 394.15 513.19 396.62 505.44 400.06 498.12 C 392.63 490.54 393.21 479.20 394.72 469.50 C 395.42 462.18 398.35 455.36 399.67 448.18 C 400.94 441.45 396.09 435.68 396.10 429.06 C 395.86 419.31 399.14 409.96 400.57 400.41 C 402.01 390.95 401.92 381.11 399.16 371.90 C 396.89 363.78 396.83 355.31 396.74 346.95 C 397.01 343.78 394.48 341.53 392.68 339.27 C 385.91 331.71 378.51 324.74 371.60 317.32 C 369.07 314.34 365.91 311.64 364.49 307.91 C 363.28 299.92 364.22 291.81 364.15 283.76 C 360.00 281.32 355.68 279.12 351.90 276.11 C 340.60 266.78 328.19 258.56 318.72 247.22 C 313.95 241.02 310.54 233.93 306.90 227.04 C 304.18 221.58 297.56 219.47 295.25 213.74 C 292.58 207.69 293.87 200.64 297.10 195.07 C 310.21 172.02 330.57 154.40 350.85 137.83 C 360.35 129.66 370.98 122.89 380.05 114.23 C 386.12 109.60 390.99 103.69 396.73 98.69 C 404.88 91.56 412.47 82.79 414.96 71.99 C 418.28 59.46 425.97 48.07 436.67 40.70 M 446.88 38.87 C 443.33 44.89 436.94 48.26 431.82 52.76 C 432.27 56.01 432.85 59.24 433.48 62.46 C 439.49 60.43 445.85 59.97 452.14 59.68 C 457.16 54.93 461.97 49.94 467.35 45.58 C 466.39 41.75 465.42 37.92 464.54 34.07 C 458.45 34.76 452.42 36.23 446.88 38.87 M 492.45 54.37 C 495.48 61.12 497.39 68.31 498.48 75.63 C 503.70 78.16 508.54 81.39 513.02 85.07 C 516.35 83.85 519.57 82.36 522.59 80.50 C 520.64 67.56 514.22 55.14 504.19 46.63 C 500.31 49.25 496.41 51.85 492.45 54.37 M 454.95 61.86 C 457.72 68.21 460.21 74.78 460.88 81.73 C 467.84 82.87 474.45 85.46 480.83 88.41 C 485.16 83.36 489.86 78.51 495.57 75.02 C 494.37 67.77 492.10 60.76 489.19 54.03 C 482.87 51.86 476.58 49.57 470.22 47.50 C 464.90 52.03 459.96 56.99 454.95 61.86 M 427.36 54.20 C 425.04 57.35 422.89 60.63 421.03 64.07 C 424.96 63.46 425.89 67.99 425.46 70.91 C 424.72 76.59 423.55 82.21 422.91 87.91 C 423.82 87.32 424.74 86.74 425.66 86.15 C 425.46 78.05 426.88 69.38 431.65 62.64 C 430.68 59.79 430.02 56.84 429.53 53.87 C 428.99 53.95 427.91 54.12 427.36 54.20 M 518.61 58.20 C 521.91 65.18 525.53 72.16 526.72 79.88 C 528.73 89.27 527.99 99.25 524.12 108.08 C 522.40 111.06 519.02 112.40 516.50 114.57 C 511.33 118.63 509.16 125.11 504.91 129.96 C 502.33 133.08 498.92 135.43 496.63 138.80 C 504.75 133.96 510.83 125.91 520.03 122.85 C 525.46 121.25 531.36 123.98 534.83 128.19 C 544.11 138.59 553.14 149.23 561.71 160.24 C 572.03 173.48 583.24 186.00 595.27 197.71 C 596.41 198.85 597.79 200.01 597.79 201.82 C 593.85 200.94 590.92 198.09 588.00 195.52 C 581.11 205.11 573.59 214.72 570.14 226.19 C 568.37 231.61 570.70 237.18 571.72 242.52 C 574.43 253.60 577.72 264.56 581.80 275.22 C 583.93 280.90 586.94 286.17 589.30 291.75 C 601.04 277.58 608.64 260.56 615.32 243.55 C 620.95 229.50 624.26 214.69 627.88 200.04 C 629.23 193.46 631.05 186.76 630.41 180.00 C 625.37 170.99 618.02 163.48 610.85 156.13 C 599.97 145.58 588.64 135.36 576.00 126.94 C 564.79 120.68 552.56 115.75 542.95 107.01 C 540.63 105.05 539.50 102.05 539.20 99.09 C 538.72 94.39 538.51 89.66 537.96 84.97 C 537.57 81.13 534.93 78.12 532.79 75.12 C 528.16 69.40 523.80 63.43 518.61 58.20 M 413.93 84.96 C 410.60 90.44 406.65 95.61 401.78 99.82 C 392.55 107.91 383.89 116.65 374.52 124.59 C 360.84 135.13 347.33 145.91 334.46 157.44 C 321.72 168.76 310.40 181.71 301.16 196.04 C 298.59 200.34 295.87 205.45 297.67 210.58 C 299.94 216.55 306.78 218.79 309.65 224.38 C 313.47 231.40 316.96 238.69 321.95 244.99 C 329.42 253.55 338.17 260.87 347.12 267.81 C 352.43 272.45 357.96 276.82 363.91 280.62 C 364.01 271.40 364.52 262.18 365.19 252.98 C 365.76 244.10 368.16 235.40 372.02 227.39 C 362.90 220.74 354.30 213.34 344.58 207.55 C 341.38 209.92 338.14 212.79 333.95 212.94 C 334.43 211.57 335.26 210.38 336.50 209.59 C 344.54 203.64 350.94 195.85 357.19 188.12 C 363.09 181.32 368.73 174.31 374.16 167.13 C 379.93 159.31 385.63 151.35 392.61 144.53 C 396.86 140.19 401.14 135.32 407.11 133.43 C 413.81 131.62 420.39 134.48 426.73 136.28 C 436.16 138.46 445.88 139.00 455.50 139.65 C 453.79 137.09 452.09 134.25 449.23 132.83 C 446.63 131.58 443.81 130.91 441.13 129.88 C 432.75 127.32 429.77 117.60 422.02 114.04 C 418.34 112.37 414.23 112.48 410.31 112.02 C 411.87 109.64 414.77 109.65 417.29 109.43 C 417.19 105.61 417.37 101.79 418.00 98.02 C 419.26 90.45 419.52 82.73 421.18 75.22 C 421.66 73.11 421.90 70.96 421.89 68.79 C 418.64 73.88 417.05 79.80 413.93 84.96 M 514.41 87.89 C 514.94 95.99 512.79 104.26 508.36 111.06 C 508.79 112.61 509.22 114.16 509.64 115.72 C 512.11 112.73 515.20 110.35 518.59 108.51 C 522.04 100.69 523.35 92.08 522.91 83.57 C 520.14 85.14 517.29 86.55 514.41 87.89 M 460.22 84.23 C 455.96 90.57 449.91 95.58 443.33 99.37 C 444.39 106.29 446.81 112.92 450.06 119.10 C 457.00 119.47 463.55 122.21 469.70 125.27 C 474.69 121.10 480.12 117.42 484.58 112.64 C 482.30 105.91 480.74 98.93 480.35 91.83 C 474.16 88.08 467.22 85.90 460.22 84.23 M 422.56 91.18 C 421.67 97.10 420.79 103.04 420.42 109.03 C 421.44 110.71 423.71 110.78 425.27 111.79 C 431.23 115.18 434.30 121.73 439.57 125.91 C 442.14 123.85 444.80 121.91 447.60 120.17 C 443.70 113.48 440.94 106.10 440.02 98.39 C 434.89 95.90 430.12 92.64 426.20 88.47 C 424.98 89.37 423.77 90.27 422.56 91.18 M 486.76 114.05 C 481.87 118.90 476.72 123.54 471.03 127.44 C 473.21 131.50 475.06 135.80 475.83 140.38 C 482.27 139.36 488.74 137.68 494.43 134.40 C 499.93 130.10 504.32 124.53 507.77 118.49 C 507.32 116.54 506.83 114.60 506.34 112.66 C 499.87 113.69 493.31 114.03 486.76 114.05 M 507.38 135.33 C 504.10 137.83 501.02 140.89 497.00 142.15 C 495.16 141.95 494.25 140.20 493.12 138.99 C 482.15 143.87 469.75 145.35 457.97 142.99 C 445.18 142.49 431.98 142.65 419.79 138.12 C 415.87 136.61 411.40 136.04 407.41 137.64 C 402.75 139.56 399.42 143.51 395.97 147.01 C 384.86 157.80 377.14 171.38 367.05 183.03 C 360.48 190.43 354.50 198.40 347.25 205.17 C 357.17 210.33 365.68 217.72 374.66 224.30 C 377.80 226.34 381.22 227.89 384.58 229.53 C 394.75 234.52 406.67 234.76 416.53 240.51 C 419.65 242.27 421.06 246.64 425.00 246.88 C 432.79 247.93 440.17 251.27 446.05 256.50 C 450.13 253.65 455.18 254.55 459.76 255.30 C 458.58 252.37 457.57 249.38 456.56 246.40 C 454.92 241.54 451.98 237.20 450.82 232.18 C 449.34 225.89 449.84 219.39 449.77 212.99 C 449.80 206.33 446.95 199.96 447.77 193.27 C 446.81 193.66 445.86 194.05 444.91 194.44 C 445.76 191.74 446.99 188.97 446.29 186.09 C 444.88 176.60 446.74 166.33 452.69 158.64 C 458.18 151.46 467.11 147.66 475.97 146.97 C 483.59 146.48 491.55 146.29 498.76 149.22 C 513.84 155.01 525.37 168.56 529.79 183.96 C 532.29 196.84 530.57 210.67 524.31 222.27 C 523.31 224.18 522.13 226.02 521.44 228.07 C 519.00 236.86 516.87 245.79 516.71 254.96 C 520.20 255.10 523.68 255.54 527.18 255.51 C 530.35 253.36 531.95 249.38 535.53 247.75 C 543.67 244.94 549.39 238.13 555.14 232.07 C 558.48 228.05 563.09 225.38 566.86 221.88 C 570.90 211.10 577.31 201.22 585.08 192.75 C 567.36 176.01 553.69 155.67 537.64 137.43 C 533.45 133.03 529.90 126.40 522.97 126.51 C 517.10 128.04 511.95 131.45 507.38 135.33 M 475.15 177.46 C 470.18 182.43 463.88 185.73 457.81 189.15 C 458.75 185.88 460.68 182.42 459.25 178.99 C 455.79 182.28 454.36 187.02 451.17 190.53 C 450.80 194.11 450.92 197.72 451.54 201.26 C 455.06 201.23 459.54 200.80 461.78 204.19 C 462.81 205.97 464.71 208.63 463.08 210.53 C 459.94 211.31 456.75 211.81 453.59 212.51 C 453.59 218.32 453.24 224.22 454.41 229.96 C 455.17 233.66 456.94 237.04 458.57 240.41 C 460.97 245.32 461.75 250.87 464.53 255.61 C 466.51 259.27 469.47 263.07 473.92 263.55 C 481.84 264.48 489.00 260.23 495.64 256.52 C 495.23 259.66 492.20 261.18 489.90 262.84 C 484.80 266.18 478.60 269.36 472.36 267.48 C 467.94 266.55 464.69 263.20 462.10 259.71 C 462.19 263.94 461.45 268.46 463.48 272.37 C 465.89 278.63 470.56 283.58 473.63 289.47 C 482.32 286.44 490.49 282.14 498.35 277.38 C 504.41 273.99 509.92 269.68 514.94 264.88 C 510.80 257.24 511.79 248.12 513.26 239.89 C 514.49 232.77 517.81 226.14 518.30 218.87 C 518.83 212.78 520.67 206.59 519.33 200.50 C 518.66 197.31 514.14 195.21 511.87 198.12 C 509.28 203.87 512.19 210.15 510.93 216.09 C 510.05 221.48 507.55 226.47 507.15 231.97 C 505.98 228.44 505.24 224.72 505.96 221.00 C 506.75 216.56 505.77 210.68 501.07 208.82 C 497.66 206.95 493.71 208.08 490.08 208.43 C 484.75 208.95 479.39 210.74 474.03 209.71 C 470.83 209.22 468.94 205.17 470.50 202.39 C 473.27 200.57 476.78 200.41 479.98 199.92 C 486.62 199.35 493.28 198.83 499.96 198.86 C 500.16 194.40 502.51 190.58 505.20 187.18 C 502.31 188.10 499.64 189.54 497.02 191.02 C 498.77 186.89 500.33 182.64 500.99 178.18 C 495.02 181.05 490.83 186.36 486.43 191.12 C 486.38 187.10 486.39 182.78 483.85 179.41 C 479.03 182.53 477.61 188.42 474.92 193.14 C 474.37 187.89 476.99 182.59 475.15 177.46 M 369.45 253.88 C 368.21 270.58 368.18 287.35 368.31 304.08 C 368.47 307.59 371.11 310.26 373.19 312.85 C 380.95 321.61 389.64 329.57 396.74 338.91 C 396.39 322.91 392.01 307.37 389.88 291.62 C 393.99 294.29 394.20 299.63 395.43 303.92 C 397.73 315.53 400.96 327.10 400.99 339.02 C 401.24 349.68 400.67 360.58 403.48 370.97 C 407.22 383.22 406.59 396.41 403.93 408.82 C 402.75 415.18 400.90 421.48 400.82 427.99 C 400.75 433.61 404.47 438.36 404.83 443.92 C 405.61 451.41 401.86 458.25 400.53 465.44 C 399.26 472.47 397.74 479.62 398.58 486.79 C 399.09 489.89 400.00 493.53 403.04 495.10 C 407.54 494.62 411.46 491.85 415.98 491.42 C 422.21 491.02 427.99 493.84 434.03 494.89 C 440.97 496.04 447.96 493.99 454.32 491.34 C 468.45 485.38 480.05 474.70 494.58 469.57 C 500.31 467.60 505.88 464.80 512.01 464.37 C 510.60 466.77 507.83 467.46 505.46 468.51 C 497.71 471.62 490.02 474.99 482.92 479.43 C 489.89 477.99 496.96 476.89 504.08 476.57 C 514.72 475.95 525.32 477.47 535.92 478.08 C 539.22 478.30 542.68 477.40 545.23 475.24 C 546.94 473.67 546.86 471.14 547.07 469.01 C 547.32 460.33 547.04 451.65 546.83 442.97 C 546.07 422.55 546.84 402.11 547.97 381.73 C 544.84 388.59 541.73 395.47 537.95 402.00 C 534.38 408.22 529.72 413.71 525.27 419.30 C 522.52 422.50 520.07 426.22 516.15 428.12 C 517.79 424.08 520.75 420.82 523.33 417.37 C 529.52 409.54 534.94 401.09 539.18 392.04 C 543.45 382.87 548.49 373.97 551.28 364.19 C 555.21 350.41 562.38 337.60 571.66 326.72 C 575.90 321.72 581.74 318.58 587.24 315.18 C 586.99 306.30 587.88 296.77 583.28 288.73 C 578.24 279.68 575.00 269.80 571.95 259.94 C 568.86 249.50 565.96 238.93 564.79 228.07 C 556.33 234.73 550.30 244.05 541.06 249.81 C 541.63 257.71 539.30 265.39 537.18 272.90 C 536.28 275.34 535.88 278.65 532.86 279.32 C 533.50 269.58 537.43 260.34 537.62 250.52 C 531.99 254.76 528.27 260.87 524.96 266.96 C 521.58 273.32 517.04 278.98 512.19 284.27 C 509.50 287.00 506.55 290.32 502.33 290.01 C 511.65 280.89 519.90 270.44 525.14 258.41 C 521.93 258.17 518.71 257.98 515.50 257.86 C 517.03 258.88 519.07 259.39 520.11 261.03 C 520.82 264.32 518.03 266.86 515.94 268.96 C 505.90 278.23 493.57 284.55 481.30 290.34 C 478.38 291.58 475.36 292.96 472.13 292.94 C 470.90 292.17 470.05 290.97 469.24 289.81 C 465.30 283.83 461.01 277.86 459.19 270.82 C 458.20 266.93 459.06 262.92 459.61 259.04 C 455.97 258.90 451.74 256.96 448.51 259.47 C 442.67 263.65 437.35 268.60 431.05 272.13 C 429.60 273.04 427.88 273.29 426.20 273.30 C 427.14 271.93 428.19 270.58 429.57 269.61 C 434.24 266.17 438.84 262.62 443.16 258.74 C 437.94 255.31 432.43 251.72 426.06 251.08 C 417.52 251.00 410.53 257.13 402.24 258.01 C 407.22 253.92 413.28 251.46 419.02 248.65 C 416.90 246.52 414.86 244.15 412.07 242.90 C 405.04 239.73 397.40 238.34 390.14 235.86 C 385.27 234.20 380.88 231.46 376.63 228.62 C 371.80 236.10 370.19 245.15 369.45 253.88 M 477.95 484.35 C 473.32 485.28 469.67 488.47 465.55 490.57 C 456.61 495.82 446.61 500.48 435.98 499.87 C 429.09 499.70 422.84 496.07 415.97 495.84 C 411.91 496.33 408.11 498.01 404.07 498.56 C 401.06 503.56 402.90 509.49 403.61 514.87 C 407.91 536.75 410.27 559.30 418.93 580.06 C 420.50 583.95 423.10 587.31 424.90 591.09 C 424.21 590.84 422.83 590.34 422.15 590.08 C 417.19 586.19 415.21 579.84 412.89 574.23 C 405.53 553.39 401.99 531.40 399.38 509.54 C 393.24 530.32 392.58 552.09 390.22 573.48 C 389.43 581.81 388.77 590.35 385.39 598.12 C 381.75 606.21 381.42 615.23 380.56 623.93 C 379.02 640.51 379.13 657.17 378.37 673.79 C 387.55 674.09 396.58 676.40 405.01 679.98 C 412.47 683.00 419.93 686.55 428.03 687.38 C 435.36 688.03 441.74 683.83 448.39 681.51 C 454.64 679.21 461.45 680.02 467.89 680.94 C 468.26 674.30 468.60 667.66 469.15 661.05 C 465.58 641.58 463.07 621.84 463.14 602.00 C 463.27 593.56 462.91 585.04 464.39 576.69 C 460.27 582.63 456.22 588.79 454.60 595.95 C 453.35 597.58 451.71 595.51 451.91 594.12 C 452.03 589.45 454.19 585.14 456.40 581.14 C 462.62 570.72 470.61 561.55 478.16 552.10 C 480.60 549.26 482.83 545.88 486.53 544.57 C 485.64 548.48 482.75 551.40 480.56 554.61 C 476.13 560.82 471.49 566.90 467.23 573.21 C 465.03 585.33 466.35 597.78 467.03 609.99 C 468.71 635.46 472.33 660.91 479.20 685.53 C 485.31 686.99 491.64 687.80 497.93 687.26 C 512.67 685.80 526.38 679.69 539.91 674.05 C 546.80 671.14 554.31 670.32 561.69 669.68 C 562.16 663.15 560.02 656.90 558.64 650.62 C 555.55 637.87 552.98 625.01 550.35 612.17 C 547.81 599.99 544.24 588.06 541.62 575.90 C 541.07 573.31 540.74 570.69 540.83 568.05 C 543.26 571.94 544.07 576.51 545.38 580.84 C 548.05 590.12 550.73 599.40 553.24 608.73 C 556.61 621.48 558.56 634.54 561.63 647.36 L 560.97 648.83 C 562.66 647.91 561.66 645.52 561.84 644.01 C 561.83 628.32 563.33 612.67 563.87 596.99 C 564.84 578.12 563.90 559.11 560.24 540.54 C 556.24 520.39 551.25 500.02 540.94 482.05 C 532.47 482.50 524.00 481.91 515.57 481.13 C 502.97 480.37 490.24 481.47 477.95 484.35 M 541.51 678.69 C 525.38 685.71 508.44 692.64 490.53 692.19 C 490.43 695.78 490.38 699.38 490.58 702.97 C 491.25 723.16 500.29 741.92 501.64 762.02 C 502.13 770.35 500.81 778.62 500.22 786.90 C 504.94 791.97 512.49 792.38 518.98 792.77 C 528.64 792.71 539.23 791.46 546.83 784.92 C 546.05 780.65 545.22 776.40 544.52 772.12 C 540.94 753.61 544.53 734.72 548.30 716.54 C 551.40 702.91 553.14 689.02 554.16 675.10 C 549.84 675.89 545.54 676.91 541.51 678.69 M 396.35 680.91 C 396.54 688.66 397.50 696.35 398.10 704.07 C 399.23 717.64 400.27 731.31 403.72 744.53 C 405.44 752.22 407.86 759.98 407.08 767.96 C 406.24 777.38 404.99 786.75 404.21 796.18 C 409.25 798.11 414.77 798.28 420.07 797.44 C 431.48 795.58 442.06 790.14 451.00 782.93 C 449.25 776.74 446.34 770.59 447.03 764.00 C 447.65 757.18 449.67 750.60 450.81 743.87 C 452.34 734.77 454.26 725.73 455.24 716.55 C 456.41 705.70 458.13 694.81 457.46 683.87 C 447.73 684.49 439.86 691.91 429.97 691.71 C 417.93 691.43 407.48 684.65 396.35 680.91 M 432.84 799.91 C 423.65 803.18 413.15 804.74 403.91 800.79 C 403.55 806.84 403.33 812.90 403.61 818.96 C 404.03 837.75 408.99 856.01 413.57 874.11 C 418.69 891.99 423.43 910.03 425.78 928.51 C 431.03 924.15 438.97 922.35 445.20 925.64 C 450.12 928.14 453.32 932.85 457.88 935.85 C 455.42 929.49 453.00 923.00 452.37 916.16 C 450.93 901.71 453.32 887.25 455.19 872.96 C 457.17 856.37 459.65 839.78 459.81 823.05 C 459.87 811.09 455.98 799.67 452.76 788.31 C 446.89 793.34 440.09 797.24 432.84 799.91 M 499.33 791.48 C 498.01 801.29 497.44 811.17 496.65 821.02 C 495.17 840.33 493.73 859.74 495.32 879.09 C 497.06 901.46 501.44 923.61 501.29 946.11 C 504.59 943.53 507.43 940.43 510.52 937.62 C 514.89 933.68 521.82 932.00 527.03 935.29 C 533.52 904.57 542.50 874.31 546.00 843.02 C 548.85 825.75 549.48 808.13 547.66 790.72 C 540.22 795.99 530.90 797.59 521.97 797.82 C 514.10 797.73 505.60 796.67 499.33 791.48 M 434.34 928.53 C 429.72 929.66 426.68 933.63 424.78 937.74 C 420.25 947.03 414.45 955.78 407.14 963.13 C 403.67 966.71 399.34 969.31 395.78 972.78 C 394.29 974.34 392.61 976.35 393.15 978.68 C 397.21 982.15 402.85 982.75 407.98 982.62 C 423.00 982.02 438.38 979.20 451.44 971.43 C 454.22 969.51 458.52 969.38 460.10 966.05 C 462.66 959.36 461.48 951.91 460.37 945.03 C 460.16 939.36 453.20 939.38 450.29 935.66 C 446.37 931.20 440.69 926.59 434.34 928.53 M 520.29 938.32 C 514.74 939.27 511.42 944.13 508.12 948.17 C 505.19 951.92 499.03 951.34 496.94 955.96 C 493.42 962.43 491.86 969.79 491.16 977.07 C 491.01 981.21 490.77 985.66 492.70 989.46 C 494.61 992.55 498.58 993.18 501.92 993.49 C 515.30 994.37 528.87 992.18 541.41 987.49 C 544.83 986.66 543.95 982.46 543.68 979.86 C 541.36 968.78 533.47 960.07 529.29 949.74 C 527.56 946.08 526.67 942.03 524.47 938.61 C 523.17 937.95 521.66 938.07 520.29 938.32 Z" />
		<path fill="#020202" opacity="1.00"
			d=" M 461.31 246.92 C 468.92 243.91 477.36 243.48 485.45 243.06 C 485.67 243.51 486.10 244.40 486.32 244.84 C 485.74 245.08 484.57 245.56 483.99 245.80 C 483.10 246.93 482.53 248.62 480.90 248.83 C 477.34 249.77 473.66 250.35 469.97 250.44 C 466.68 250.71 464.18 248.06 461.31 246.92 Z" />
		<path fill="#020202" opacity="1.00"
			d=" M 527.42 294.40 C 528.81 291.60 529.21 288.00 532.21 286.35 C 533.67 290.36 531.62 294.37 529.95 297.96 C 524.44 308.87 515.38 317.60 505.46 324.52 C 491.46 333.94 475.01 340.35 458.02 340.74 C 448.95 340.81 439.20 339.02 432.24 332.81 C 430.20 331.14 428.89 328.80 428.25 326.27 C 431.91 327.49 434.16 330.93 437.62 332.54 C 446.58 337.15 457.13 337.08 466.85 335.49 C 483.02 332.67 498.32 325.32 510.94 314.86 C 517.65 309.18 523.69 302.43 527.42 294.40 Z" />
		<path fill="#020202" opacity="1.00"
			d=" M 562.67 308.45 C 564.20 304.72 565.19 300.65 567.87 297.52 C 567.89 302.10 566.26 306.42 564.87 310.71 C 560.45 323.61 554.99 336.13 549.76 348.72 C 546.98 355.11 544.42 361.66 540.68 367.57 C 538.79 370.35 536.89 373.53 533.45 374.54 C 535.28 370.18 538.16 366.36 539.96 361.97 C 547.86 344.28 555.62 326.50 562.67 308.45 Z" />
		<path fill="#020202" opacity="1.00"
			d=" M 505.08 395.10 C 506.04 394.39 507.68 392.60 508.73 394.23 C 508.91 397.27 505.85 399.06 504.10 401.14 C 493.21 411.24 482.50 421.56 471.29 431.32 C 458.41 442.19 444.44 451.91 429.18 459.13 C 425.18 460.61 420.76 462.49 416.46 461.36 C 411.63 459.14 411.90 452.88 412.96 448.51 C 416.40 450.53 413.96 456.48 418.07 457.81 C 421.78 457.55 425.28 456.05 428.59 454.46 C 445.05 445.66 460.10 434.45 474.05 422.09 C 484.26 412.94 494.82 404.19 505.08 395.10 Z" />
		<path fill="#020202" opacity="1.00"
			d=" M 441.95 423.87 C 446.29 421.32 449.99 417.80 454.44 415.44 C 455.19 418.59 452.25 420.44 450.28 422.29 C 442.92 428.62 434.04 434.21 424.06 434.56 C 421.38 434.67 417.50 434.20 417.33 430.77 C 426.16 432.60 434.68 428.44 441.95 423.87 Z" />
		<path fill="#020202" opacity="1.00"
			d=" M 470.71 549.60 C 472.82 547.17 474.90 544.65 477.65 542.91 C 477.61 545.47 475.76 547.36 474.35 549.30 C 469.15 555.85 464.16 562.58 459.71 569.67 C 458.60 571.35 457.62 573.19 456.01 574.45 C 453.53 573.71 454.95 571.12 455.73 569.68 C 459.85 562.39 465.26 555.93 470.71 549.60 Z" />
	</g>
	<g id="#ffffffff">
		<path fill="#ffffff" opacity="1.00"
			d=" M 446.88 38.87 C 452.42 36.23 458.45 34.76 464.54 34.07 C 465.42 37.92 466.39 41.75 467.35 45.58 C 461.97 49.94 457.16 54.93 452.14 59.68 C 445.85 59.97 439.49 60.43 433.48 62.46 C 432.85 59.24 432.27 56.01 431.82 52.76 C 436.94 48.26 443.33 44.89 446.88 38.87 Z" />
		<path fill="#ffffff" opacity="1.00"
			d=" M 492.45 54.37 C 496.41 51.85 500.31 49.25 504.19 46.63 C 514.22 55.14 520.64 67.56 522.59 80.50 C 519.57 82.36 516.35 83.85 513.02 85.07 C 508.54 81.39 503.70 78.16 498.48 75.63 C 497.39 68.31 495.48 61.12 492.45 54.37 Z" />
		<path fill="#ffffff" opacity="1.00"
			d=" M 454.95 61.86 C 459.96 56.99 464.90 52.03 470.22 47.50 C 476.58 49.57 482.87 51.86 489.19 54.03 C 492.10 60.76 494.37 67.77 495.57 75.02 C 489.86 78.51 485.16 83.36 480.83 88.41 C 474.45 85.46 467.84 82.87 460.88 81.73 C 460.21 74.78 457.72 68.21 454.95 61.86 Z" />
		<path fill="#ffffff" opacity="1.00"
			d=" M 427.36 54.20 C 427.91 54.12 428.99 53.95 429.53 53.87 C 430.02 56.84 430.68 59.79 431.65 62.64 C 426.88 69.38 425.46 78.05 425.66 86.15 C 424.74 86.74 423.82 87.32 422.91 87.91 C 423.55 82.21 424.72 76.59 425.46 70.91 C 425.89 67.99 424.96 63.46 421.03 64.07 C 422.89 60.63 425.04 57.35 427.36 54.20 Z" />
		<path fill="#ffffff" opacity="1.00"
			d=" M 514.41 87.89 C 517.29 86.55 520.14 85.14 522.91 83.57 C 523.35 92.08 522.04 100.69 518.59 108.51 C 515.20 110.35 512.11 112.73 509.64 115.72 C 509.22 114.16 508.79 112.61 508.36 111.06 C 512.79 104.26 514.94 95.99 514.41 87.89 Z" />
		<path fill="#ffffff" opacity="1.00"
			d=" M 460.22 84.23 C 467.22 85.90 474.16 88.08 480.35 91.83 C 480.74 98.93 482.30 105.91 484.58 112.64 C 480.12 117.42 474.69 121.10 469.70 125.27 C 463.55 122.21 457.00 119.47 450.06 119.10 C 446.81 112.92 444.39 106.29 443.33 99.37 C 449.91 95.58 455.96 90.57 460.22 84.23 Z" />
		<path fill="#ffffff" opacity="1.00"
			d=" M 422.56 91.18 C 423.77 90.27 424.98 89.37 426.20 88.47 C 430.12 92.64 434.89 95.90 440.02 98.39 C 440.94 106.10 443.70 113.48 447.60 120.17 C 444.80 121.91 442.14 123.85 439.57 125.91 C 434.30 121.73 431.23 115.18 425.27 111.79 C 423.71 110.78 421.44 110.71 420.42 109.03 C 420.79 103.04 421.67 97.10 422.56 91.18 Z" />
		<path fill="#ffffff" opacity="1.00"
			d=" M 486.76 114.05 C 493.31 114.03 499.87 113.69 506.34 112.66 C 506.83 114.60 507.32 116.54 507.77 118.49 C 504.32 124.53 499.93 130.10 494.43 134.40 C 488.74 137.68 482.27 139.36 475.83 140.38 C 475.06 135.80 473.21 131.50 471.03 127.44 C 476.72 123.54 481.87 118.90 486.76 114.05 Z" />
		<path fill="var(--pants-color, grey)" opacity="1.00"
			d=" M 477.95 484.35 C 490.24 481.47 502.97 480.37 515.57 481.13 C 524.00 481.91 532.47 482.50 540.94 482.05 C 551.25 500.02 556.24 520.39 560.24 540.54 C 563.90 559.11 564.84 578.12 563.87 596.99 C 563.33 612.67 561.83 628.32 561.84 644.01 C 561.66 645.52 562.66 647.91 560.97 648.83 L 561.63 647.36 C 558.56 634.54 556.61 621.48 553.24 608.73 C 550.73 599.40 548.05 590.12 545.38 580.84 C 544.07 576.51 543.26 571.94 540.83 568.05 C 540.74 570.69 541.07 573.31 541.62 575.90 C 544.24 588.06 547.81 599.99 550.35 612.17 C 552.98 625.01 555.55 637.87 558.64 650.62 C 560.02 656.90 562.16 663.15 561.69 669.68 C 554.31 670.32 546.80 671.14 539.91 674.05 C 526.38 679.69 512.67 685.80 497.93 687.26 C 491.64 687.80 485.31 686.99 479.20 685.53 C 472.33 660.91 468.71 635.46 467.03 609.99 C 466.35 597.78 465.03 585.33 467.23 573.21 C 471.49 566.90 476.13 560.82 480.56 554.61 C 482.75 551.40 485.64 548.48 486.53 544.57 C 482.83 545.88 480.60 549.26 478.16 552.10 C 470.61 561.55 462.62 570.72 456.40 581.14 C 454.19 585.14 452.03 589.45 451.91 594.12 C 451.71 595.51 453.35 597.58 454.60 595.95 C 456.22 588.79 460.27 582.63 464.39 576.69 C 462.91 585.04 463.27 593.56 463.14 602.00 C 463.07 621.84 465.58 641.58 469.15 661.05 C 468.60 667.66 468.26 674.30 467.89 680.94 C 461.45 680.02 454.64 679.21 448.39 681.51 C 441.74 683.83 435.36 688.03 428.03 687.38 C 419.93 686.55 412.47 683.00 405.01 679.98 C 396.58 676.40 387.55 674.09 378.37 673.79 C 379.13 657.17 379.02 640.51 380.56 623.93 C 381.42 615.23 381.75 606.21 385.39 598.12 C 388.77 590.35 389.43 581.81 390.22 573.48 C 392.58 552.09 393.24 530.32 399.38 509.54 C 401.99 531.40 405.53 553.39 412.89 574.23 C 415.21 579.84 417.19 586.19 422.15 590.08 C 422.83 590.34 424.21 590.84 424.90 591.09 C 423.10 587.31 420.50 583.95 418.93 580.06 C 410.27 559.30 407.91 536.75 403.61 514.87 C 402.90 509.49 401.06 503.56 404.07 498.56 C 408.11 498.01 411.91 496.33 415.97 495.84 C 422.84 496.07 429.09 499.70 435.98 499.87 C 446.61 500.48 456.61 495.82 465.55 490.57 C 469.67 488.47 473.32 485.28 477.95 484.35 M 470.71 549.60 C 465.26 555.93 459.85 562.39 455.73 569.68 C 454.95 571.12 453.53 573.71 456.01 574.45 C 457.62 573.19 458.60 571.35 459.71 569.67 C 464.16 562.58 469.15 555.85 474.35 549.30 C 475.76 547.36 477.61 545.47 477.65 542.91 C 474.90 544.65 472.82 547.17 470.71 549.60 Z" />
		<path fill="var(--socks-color, grey)" opacity="1.00"
			d=" M 432.84 799.91 C 440.09 797.24 446.89 793.34 452.76 788.31 C 455.98 799.67 459.87 811.09 459.81 823.05 C 459.65 839.78 457.17 856.37 455.19 872.96 C 453.32 887.25 450.93 901.71 452.37 916.16 C 453.00 923.00 455.42 929.49 457.88 935.85 C 453.32 932.85 450.12 928.14 445.20 925.64 C 438.97 922.35 431.03 924.15 425.78 928.51 C 423.43 910.03 418.69 891.99 413.57 874.11 C 408.99 856.01 404.03 837.75 403.61 818.96 C 403.33 812.90 403.55 806.84 403.91 800.79 C 413.15 804.74 423.65 803.18 432.84 799.91 Z" />
		<path fill="var(--socks-color, grey)" opacity="1.00"
			d=" M 499.33 791.48 C 505.60 796.67 514.10 797.73 521.97 797.82 C 530.90 797.59 540.22 795.99 547.66 790.72 C 549.48 808.13 548.85 825.75 546.00 843.02 C 542.50 874.31 533.52 904.57 527.03 935.29 C 521.82 932.00 514.89 933.68 510.52 937.62 C 507.43 940.43 504.59 943.53 501.29 946.11 C 501.44 923.61 497.06 901.46 495.32 879.09 C 493.73 859.74 495.17 840.33 496.65 821.02 C 497.44 811.17 498.01 801.29 499.33 791.48 Z" />
	</g>
	<g id="#f0b58bff">
		<path fill="#f0b58b" opacity="1.00"
			d=" M 518.61 58.20 C 523.80 63.43 528.16 69.40 532.79 75.12 C 534.93 78.12 537.57 81.13 537.96 84.97 C 538.51 89.66 538.72 94.39 539.20 99.09 C 539.50 102.05 540.63 105.05 542.95 107.01 C 552.56 115.75 564.79 120.68 576.00 126.94 C 588.64 135.36 599.97 145.58 610.85 156.13 C 618.02 163.48 625.37 170.99 630.41 180.00 C 631.05 186.76 629.23 193.46 627.88 200.04 C 624.26 214.69 620.95 229.50 615.32 243.55 C 608.64 260.56 601.04 277.58 589.30 291.75 C 586.94 286.17 583.93 280.90 581.80 275.22 C 577.72 264.56 574.43 253.60 571.72 242.52 C 570.70 237.18 568.37 231.61 570.14 226.19 C 573.59 214.72 581.11 205.11 588.00 195.52 C 590.92 198.09 593.85 200.94 597.79 201.82 C 597.79 200.01 596.41 198.85 595.27 197.71 C 583.24 186.00 572.03 173.48 561.71 160.24 C 553.14 149.23 544.11 138.59 534.83 128.19 C 531.36 123.98 525.46 121.25 520.03 122.85 C 510.83 125.91 504.75 133.96 496.63 138.80 C 498.92 135.43 502.33 133.08 504.91 129.96 C 509.16 125.11 511.33 118.63 516.50 114.57 C 519.02 112.40 522.40 111.06 524.12 108.08 C 527.99 99.25 528.73 89.27 526.72 79.88 C 525.53 72.16 521.91 65.18 518.61 58.20 Z" />
		<path fill="#f0b58b" opacity="1.00"
			d=" M 413.93 84.96 C 417.05 79.80 418.64 73.88 421.89 68.79 C 421.90 70.96 421.66 73.11 421.18 75.22 C 419.52 82.73 419.26 90.45 418.00 98.02 C 417.37 101.79 417.19 105.61 417.29 109.43 C 414.77 109.65 411.87 109.64 410.31 112.02 C 414.23 112.48 418.34 112.37 422.02 114.04 C 429.77 117.60 432.75 127.32 441.13 129.88 C 443.81 130.91 446.63 131.58 449.23 132.83 C 452.09 134.25 453.79 137.09 455.50 139.65 C 445.88 139.00 436.16 138.46 426.73 136.28 C 420.39 134.48 413.81 131.62 407.11 133.43 C 401.14 135.32 396.86 140.19 392.61 144.53 C 385.63 151.35 379.93 159.31 374.16 167.13 C 368.73 174.31 363.09 181.32 357.19 188.12 C 350.94 195.85 344.54 203.64 336.50 209.59 C 335.26 210.38 334.43 211.57 333.95 212.94 C 338.14 212.79 341.38 209.92 344.58 207.55 C 354.30 213.34 362.90 220.74 372.02 227.39 C 368.16 235.40 365.76 244.10 365.19 252.98 C 364.52 262.18 364.01 271.40 363.91 280.62 C 357.96 276.82 352.43 272.45 347.12 267.81 C 338.17 260.87 329.42 253.55 321.95 244.99 C 316.96 238.69 313.47 231.40 309.65 224.38 C 306.78 218.79 299.94 216.55 297.67 210.58 C 295.87 205.45 298.59 200.34 301.16 196.04 C 310.40 181.71 321.72 168.76 334.46 157.44 C 347.33 145.91 360.84 135.13 374.52 124.59 C 383.89 116.65 392.55 107.91 401.78 99.82 C 406.65 95.61 410.60 90.44 413.93 84.96 Z" />
		<path fill="#f0b58b" opacity="1.00"
			d=" M 475.15 177.46 C 476.99 182.59 474.37 187.89 474.92 193.14 C 477.61 188.42 479.03 182.53 483.85 179.41 C 486.39 182.78 486.38 187.10 486.43 191.12 C 490.83 186.36 495.02 181.05 500.99 178.18 C 500.33 182.64 498.77 186.89 497.02 191.02 C 499.64 189.54 502.31 188.10 505.20 187.18 C 502.51 190.58 500.16 194.40 499.96 198.86 C 493.28 198.83 486.62 199.35 479.98 199.92 C 476.78 200.41 473.27 200.57 470.50 202.39 C 468.94 205.17 470.83 209.22 474.03 209.71 C 479.39 210.74 484.75 208.95 490.08 208.43 C 493.71 208.08 497.66 206.95 501.07 208.82 C 505.77 210.68 506.75 216.56 505.96 221.00 C 505.24 224.72 505.98 228.44 507.15 231.97 C 507.55 226.47 510.05 221.48 510.93 216.09 C 512.19 210.15 509.28 203.87 511.87 198.12 C 514.14 195.21 518.66 197.31 519.33 200.50 C 520.67 206.59 518.83 212.78 518.30 218.87 C 517.81 226.14 514.49 232.77 513.26 239.89 C 511.79 248.12 510.80 257.24 514.94 264.88 C 509.92 269.68 504.41 273.99 498.35 277.38 C 490.49 282.14 482.32 286.44 473.63 289.47 C 470.56 283.58 465.89 278.63 463.48 272.37 C 461.45 268.46 462.19 263.94 462.10 259.71 C 464.69 263.20 467.94 266.55 472.36 267.48 C 478.60 269.36 484.80 266.18 489.90 262.84 C 492.20 261.18 495.23 259.66 495.64 256.52 C 489.00 260.23 481.84 264.48 473.92 263.55 C 469.47 263.07 466.51 259.27 464.53 255.61 C 461.75 250.87 460.97 245.32 458.57 240.41 C 456.94 237.04 455.17 233.66 454.41 229.96 C 453.24 224.22 453.59 218.32 453.59 212.51 C 456.75 211.81 459.94 211.31 463.08 210.53 C 464.71 208.63 462.81 205.97 461.78 204.19 C 459.54 200.80 455.06 201.23 451.54 201.26 C 450.92 197.72 450.80 194.11 451.17 190.53 C 454.36 187.02 455.79 182.28 459.25 178.99 C 460.68 182.42 458.75 185.88 457.81 189.15 C 463.88 185.73 470.18 182.43 475.15 177.46 M 460.31 225.36 C 463.18 221.35 464.08 215.99 463.85 211.13 C 460.34 214.88 459.82 220.47 460.31 225.36 M 460.81 226.82 C 460.19 229.31 458.84 232.68 461.53 234.47 C 463.93 235.78 467.43 236.48 469.68 234.52 C 466.03 232.82 462.86 230.33 460.81 226.82 M 461.31 246.92 C 464.18 248.06 466.68 250.71 469.97 250.44 C 473.66 250.35 477.34 249.77 480.90 248.83 C 482.53 248.62 483.10 246.93 483.99 245.80 C 484.57 245.56 485.74 245.08 486.32 244.84 C 486.10 244.40 485.67 243.51 485.45 243.06 C 477.36 243.48 468.92 243.91 461.31 246.92 Z" />
		<path fill="#f0b58b" opacity="1.00"
			d=" M 541.51 678.69 C 545.54 676.91 549.84 675.89 554.16 675.10 C 553.14 689.02 551.40 702.91 548.30 716.54 C 544.53 734.72 540.94 753.61 544.52 772.12 C 545.22 776.40 546.05 780.65 546.83 784.92 C 539.23 791.46 528.64 792.71 518.98 792.77 C 512.49 792.38 504.94 791.97 500.22 786.90 C 500.81 778.62 502.13 770.35 501.64 762.02 C 500.29 741.92 491.25 723.16 490.58 702.97 C 490.38 699.38 490.43 695.78 490.53 692.19 C 508.44 692.64 525.38 685.71 541.51 678.69 Z" />
		<path fill="#f0b58b" opacity="1.00"
			d=" M 396.35 680.91 C 407.48 684.65 417.93 691.43 429.97 691.71 C 439.86 691.91 447.73 684.49 457.46 683.87 C 458.13 694.81 456.41 705.70 455.24 716.55 C 454.26 725.73 452.34 734.77 450.81 743.87 C 449.67 750.60 447.65 757.18 447.03 764.00 C 446.34 770.59 449.25 776.74 451.00 782.93 C 442.06 790.14 431.48 795.58 420.07 797.44 C 414.77 798.28 409.25 798.11 404.21 796.18 C 404.99 786.75 406.24 777.38 407.08 767.96 C 407.86 759.98 405.44 752.22 403.72 744.53 C 400.27 731.31 399.23 717.64 398.10 704.07 C 397.50 696.35 396.54 688.66 396.35 680.91 Z" />
	</g>
	<g id="#010101fd">
		<path fill="#010101" opacity="1.00"
			d=" M 460.31 225.36 C 459.82 220.47 460.34 214.88 463.85 211.13 C 464.08 215.99 463.18 221.35 460.31 225.36 Z" />
		<path fill="#010101" opacity="1.00"
			d=" M 460.81 226.82 C 462.86 230.33 466.03 232.82 469.68 234.52 C 467.43 236.48 463.93 235.78 461.53 234.47 C 458.84 232.68 460.19 229.31 460.81 226.82 Z" />
	</g>
	<g id="#f11b27ff">
		<path fill="var(--shirt-color, grey)" opacity="1.00"
			d=" M 369.45 253.88 C 370.19 245.15 371.80 236.10 376.63 228.62 C 380.88 231.46 385.27 234.20 390.14 235.86 C 397.40 238.34 405.04 239.73 412.07 242.90 C 414.86 244.15 416.90 246.52 419.02 248.65 C 413.28 251.46 407.22 253.92 402.24 258.01 C 410.53 257.13 417.52 251.00 426.06 251.08 C 432.43 251.72 437.94 255.31 443.16 258.74 C 438.84 262.62 434.24 266.17 429.57 269.61 C 428.19 270.58 427.14 271.93 426.20 273.30 C 427.88 273.29 429.60 273.04 431.05 272.13 C 437.35 268.60 442.67 263.65 448.51 259.47 C 451.74 256.96 455.97 258.90 459.61 259.04 C 459.06 262.92 458.20 266.93 459.19 270.82 C 461.01 277.86 465.30 283.83 469.24 289.81 C 470.05 290.97 470.90 292.17 472.13 292.94 C 475.36 292.96 478.38 291.58 481.30 290.34 C 493.57 284.55 505.90 278.23 515.94 268.96 C 518.03 266.86 520.82 264.32 520.11 261.03 C 519.07 259.39 517.03 258.88 515.50 257.86 C 518.71 257.98 521.93 258.17 525.14 258.41 C 519.90 270.44 511.65 280.89 502.33 290.01 C 506.55 290.32 509.50 287.00 512.19 284.27 C 517.04 278.98 521.58 273.32 524.96 266.96 C 528.27 260.87 531.99 254.76 537.62 250.52 C 537.43 260.34 533.50 269.58 532.86 279.32 C 535.88 278.65 536.28 275.34 537.18 272.90 C 539.30 265.39 541.63 257.71 541.06 249.81 C 550.30 244.05 556.33 234.73 564.79 228.07 C 565.96 238.93 568.86 249.50 571.95 259.94 C 575.00 269.80 578.24 279.68 583.28 288.73 C 587.88 296.77 586.99 306.30 587.24 315.18 C 581.74 318.58 575.90 321.72 571.66 326.72 C 562.38 337.60 555.21 350.41 551.28 364.19 C 548.49 373.97 543.45 382.87 539.18 392.04 C 534.94 401.09 529.52 409.54 523.33 417.37 C 520.75 420.82 517.79 424.08 516.15 428.12 C 520.07 426.22 522.52 422.50 525.27 419.30 C 529.72 413.71 534.38 408.22 537.95 402.00 C 541.73 395.47 544.84 388.59 547.97 381.73 C 546.84 402.11 546.07 422.55 546.83 442.97 C 547.04 451.65 547.32 460.33 547.07 469.01 C 546.86 471.14 546.94 473.67 545.23 475.24 C 542.68 477.40 539.22 478.30 535.92 478.08 C 525.32 477.47 514.72 475.95 504.08 476.57 C 496.96 476.89 489.89 477.99 482.92 479.43 C 490.02 474.99 497.71 471.62 505.46 468.51 C 507.83 467.46 510.60 466.77 512.01 464.37 C 505.88 464.80 500.31 467.60 494.58 469.57 C 480.05 474.70 468.45 485.38 454.32 491.34 C 447.96 493.99 440.97 496.04 434.03 494.89 C 427.99 493.84 422.21 491.02 415.98 491.42 C 411.46 491.85 407.54 494.62 403.04 495.10 C 400.00 493.53 399.09 489.89 398.58 486.79 C 397.74 479.62 399.26 472.47 400.53 465.44 C 401.86 458.25 405.61 451.41 404.83 443.92 C 404.47 438.36 400.75 433.61 400.82 427.99 C 400.90 421.48 402.75 415.18 403.93 408.82 C 406.59 396.41 407.22 383.22 403.48 370.97 C 400.67 360.58 401.24 349.68 400.99 339.02 C 400.96 327.10 397.73 315.53 395.43 303.92 C 394.20 299.63 393.99 294.29 389.88 291.62 C 392.01 307.37 396.39 322.91 396.74 338.91 C 389.64 329.57 380.95 321.61 373.19 312.85 C 371.11 310.26 368.47 307.59 368.31 304.08 C 368.18 287.35 368.21 270.58 369.45 253.88 M 527.42 294.40 C 523.69 302.43 517.65 309.18 510.94 314.86 C 498.32 325.32 483.02 332.67 466.85 335.49 C 457.13 337.08 446.58 337.15 437.62 332.54 C 434.16 330.93 431.91 327.49 428.25 326.27 C 428.89 328.80 430.20 331.14 432.24 332.81 C 439.20 339.02 448.95 340.81 458.02 340.74 C 475.01 340.35 491.46 333.94 505.46 324.52 C 515.38 317.60 524.44 308.87 529.95 297.96 C 531.62 294.37 533.67 290.36 532.21 286.35 C 529.21 288.00 528.81 291.60 527.42 294.40 M 562.67 308.45 C 555.62 326.50 547.86 344.28 539.96 361.97 C 538.16 366.36 535.28 370.18 533.45 374.54 C 536.89 373.53 538.79 370.35 540.68 367.57 C 544.42 361.66 546.98 355.11 549.76 348.72 C 554.99 336.13 560.45 323.61 564.87 310.71 C 566.26 306.42 567.89 302.10 567.87 297.52 C 565.19 300.65 564.20 304.72 562.67 308.45 M 505.08 395.10 C 494.82 404.19 484.26 412.94 474.05 422.09 C 460.10 434.45 445.05 445.66 428.59 454.46 C 425.28 456.05 421.78 457.55 418.07 457.81 C 413.96 456.48 416.40 450.53 412.96 448.51 C 411.90 452.88 411.63 459.14 416.46 461.36 C 420.76 462.49 425.18 460.61 429.18 459.13 C 444.44 451.91 458.41 442.19 471.29 431.32 C 482.50 421.56 493.21 411.24 504.10 401.14 C 505.85 399.06 508.91 397.27 508.73 394.23 C 507.68 392.60 506.04 394.39 505.08 395.10 M 441.95 423.87 C 434.68 428.44 426.16 432.60 417.33 430.77 C 417.50 434.20 421.38 434.67 424.06 434.56 C 434.04 434.21 442.92 428.62 450.28 422.29 C 452.25 420.44 455.19 418.59 454.44 415.44 C 449.99 417.80 446.29 421.32 441.95 423.87 Z" />
	</g>
	<g id="#4d4d4dff">
		<path fill="#4d4d4d" opacity="1.00"
			d=" M 434.34 928.53 C 440.69 926.59 446.37 931.20 450.29 935.66 C 453.20 939.38 460.16 939.36 460.37 945.03 C 461.48 951.91 462.66 959.36 460.10 966.05 C 458.52 969.38 454.22 969.51 451.44 971.43 C 438.38 979.20 423.00 982.02 407.98 982.62 C 402.85 982.75 397.21 982.15 393.15 978.68 C 392.61 976.35 394.29 974.34 395.78 972.78 C 399.34 969.31 403.67 966.71 407.14 963.13 C 414.45 955.78 420.25 947.03 424.78 937.74 C 426.68 933.63 429.72 929.66 434.34 928.53 Z" />
		<path fill="#4d4d4d" opacity="1.00"
			d=" M 520.29 938.32 C 521.66 938.07 523.17 937.95 524.47 938.61 C 526.67 942.03 527.56 946.08 529.29 949.74 C 533.47 960.07 541.36 968.78 543.68 979.86 C 543.95 982.46 544.83 986.66 541.41 987.49 C 528.87 992.18 515.30 994.37 501.92 993.49 C 498.58 993.18 494.61 992.55 492.70 989.46 C 490.77 985.66 491.01 981.21 491.16 977.07 C 491.86 969.79 493.42 962.43 496.94 955.96 C 499.03 951.34 505.19 951.92 508.12 948.17 C 511.42 944.13 514.74 939.27 520.29 938.32 Z" />
	</g>
</svg>