<?xml version="1.0" encoding="UTF-8" ?>
<!DOCTYPE svg PUBLIC "-//W3C//DTD SVG 1.1//EN" "http://www.w3.org/Graphics/SVG/1.1/DTD/svg11.dtd">
<svg width="1000pt" height="1000pt" viewBox="0 0 1000 1000" version="1.1" xmlns="http://www.w3.org/2000/svg">
	<g id="#020202ff">
		<path fill="#020202" opacity="1.00"
			d=" M 408.55 25.49 C 419.73 13.26 436.75 7.89 453.00 8.18 C 483.02 7.74 511.73 28.59 521.11 57.03 C 526.56 72.88 524.47 90.54 517.85 105.71 C 515.36 111.42 517.49 117.62 519.82 122.98 C 523.01 121.63 526.50 120.46 530.01 121.30 C 537.80 123.18 545.16 126.54 553.01 128.25 C 561.22 130.04 569.63 130.61 578.01 130.96 C 598.73 132.05 619.49 131.75 640.20 132.85 C 646.28 133.23 652.98 133.92 657.54 138.44 C 664.70 145.41 668.45 155.21 676.12 161.76 C 681.94 166.57 688.73 169.99 695.20 173.82 C 705.27 179.56 715.02 185.83 724.54 192.43 C 730.31 196.57 736.32 200.59 740.99 206.01 C 742.89 208.19 741.99 211.28 742.08 213.90 C 749.26 218.23 755.79 223.52 762.43 228.62 C 770.17 235.12 778.81 240.98 784.16 249.80 C 789.34 257.01 788.85 266.47 787.45 274.80 C 781.11 309.98 765.04 342.97 743.23 371.13 C 737.56 378.17 732.70 385.81 727.64 393.29 C 731.06 402.56 734.01 412.14 735.02 422.00 C 734.92 432.23 729.14 441.30 723.50 449.44 C 728.09 462.73 732.12 476.29 734.32 490.20 C 734.90 493.45 735.03 496.80 734.32 500.05 C 730.29 497.72 727.26 494.06 723.23 491.75 C 720.44 490.14 717.38 489.12 714.38 488.03 C 715.46 498.68 714.89 509.42 713.47 520.01 C 711.94 531.07 710.81 542.21 708.09 553.06 C 703.39 572.31 697.39 591.41 688.14 609.00 C 681.62 621.72 673.24 633.35 665.14 645.08 C 660.20 652.27 654.85 659.28 651.29 667.30 C 648.52 673.94 649.61 681.26 650.82 688.12 C 646.04 687.12 641.15 686.39 636.60 684.53 C 630.59 682.08 625.07 678.58 619.82 674.80 C 611.39 688.51 602.46 701.92 594.34 715.83 C 604.03 722.83 614.54 729.85 620.37 740.62 C 627.40 755.24 625.34 772.12 622.71 787.57 C 626.31 787.24 630.24 787.38 633.16 789.81 C 637.91 793.38 638.21 799.77 639.49 805.09 C 643.01 820.78 643.34 837.10 641.06 853.00 C 639.78 865.92 637.58 878.74 634.24 891.30 C 631.08 903.13 627.43 914.92 621.99 925.93 C 617.66 934.18 612.71 942.40 605.42 948.39 C 601.85 951.66 597.87 954.75 593.05 955.84 C 581.84 958.91 569.50 954.61 561.43 946.56 C 556.30 940.71 555.92 932.38 556.07 924.98 C 557.02 904.62 562.60 884.90 567.42 865.22 C 569.60 856.82 571.51 848.33 574.25 840.09 C 569.34 824.36 567.67 807.09 557.64 793.43 C 551.94 786.22 545.84 779.23 538.84 773.24 C 531.17 767.04 525.71 758.66 520.53 750.39 C 518.01 746.21 515.47 742.02 513.43 737.58 C 511.64 733.65 511.39 729.27 511.04 725.04 C 510.56 717.65 508.50 710.34 509.46 702.91 C 511.04 686.84 516.53 671.45 522.81 656.67 C 523.27 655.50 523.64 654.29 523.84 653.05 C 525.48 640.45 530.40 628.44 536.87 617.58 C 530.53 622.04 524.10 626.37 517.64 630.67 C 504.36 642.45 488.83 651.27 474.22 661.27 C 470.12 664.20 465.59 666.48 461.49 669.40 C 458.03 674.49 455.41 680.13 452.76 685.69 C 449.32 692.95 448.22 701.07 448.04 709.04 C 448.17 724.77 452.64 740.33 450.47 756.11 C 449.63 774.15 442.43 790.97 435.31 807.28 C 423.98 832.97 411.09 858.31 404.99 885.90 C 403.11 895.42 401.89 905.06 399.99 914.58 C 405.38 917.29 408.03 923.04 409.38 928.63 C 411.85 936.25 411.88 944.72 409.26 952.30 C 407.76 956.63 403.54 959.54 399.06 960.02 C 392.36 960.72 385.66 959.53 378.99 959.05 C 369.08 958.10 359.11 959.01 349.25 960.18 C 341.87 961.27 334.22 961.80 326.92 959.94 C 321.82 958.66 317.43 955.64 313.02 952.92 C 305.49 948.39 299.32 942.01 293.48 935.55 C 289.61 930.67 285.50 925.30 284.88 918.90 C 285.33 915.23 288.11 912.26 291.03 910.22 C 301.64 903.77 314.14 901.86 326.13 899.53 C 333.56 898.09 341.68 896.81 347.28 891.23 C 350.88 887.50 354.83 884.17 359.24 881.45 C 358.24 868.01 358.53 854.49 358.46 841.01 C 357.77 818.70 357.90 796.28 360.52 774.08 C 362.55 761.00 364.54 747.85 368.30 735.13 C 375.89 710.34 385.57 686.17 391.92 661.02 C 392.33 651.97 390.45 642.58 393.58 633.82 C 398.08 620.97 403.69 608.49 407.25 595.33 C 410.50 583.57 408.68 570.85 413.46 559.45 C 409.47 555.48 406.37 550.77 403.77 545.81 C 400.17 549.55 396.30 553.01 392.46 556.51 C 389.85 558.59 389.69 562.20 387.83 564.80 C 385.88 567.00 382.76 567.38 380.08 568.16 C 377.73 568.66 375.43 569.74 372.98 569.42 C 370.46 569.06 368.28 567.69 366.08 566.52 C 364.21 567.45 362.40 569.22 360.14 568.80 C 356.81 568.15 354.49 565.44 352.39 563.01 C 348.13 563.95 343.42 564.84 339.40 562.63 C 335.18 560.77 332.64 555.77 334.17 551.31 C 336.87 542.56 344.00 536.24 348.65 528.59 C 350.36 524.80 352.02 520.93 354.75 517.74 C 358.96 512.73 362.22 506.22 368.67 503.74 C 374.60 501.14 381.59 502.63 387.27 499.29 C 394.96 494.99 401.17 488.61 408.01 483.16 C 416.70 474.88 427.62 469.49 436.45 461.39 C 442.69 455.68 449.23 450.26 454.85 443.91 C 459.52 438.57 464.75 433.73 469.08 428.09 C 472.48 423.71 476.39 419.45 477.97 413.99 C 482.21 402.05 478.64 389.11 473.96 377.87 C 468.14 378.09 461.84 379.26 456.40 376.59 C 452.77 373.97 451.86 369.21 450.61 365.19 C 445.63 346.43 439.04 328.06 430.24 310.75 C 423.97 298.59 411.90 289.80 408.54 276.13 C 405.87 265.74 405.98 254.87 406.78 244.25 C 407.25 239.37 407.41 234.40 408.82 229.67 C 410.06 225.46 413.23 222.29 415.78 218.86 C 419.07 214.46 422.06 209.85 425.33 205.43 C 431.24 197.57 435.91 188.87 440.32 180.11 C 432.03 168.82 426.36 155.94 420.84 143.15 C 417.97 136.42 415.85 129.35 414.95 122.07 C 414.20 116.21 413.64 110.20 411.20 104.73 C 408.17 97.79 403.83 91.19 403.32 83.42 C 401.96 83.32 400.60 83.23 399.25 83.13 C 400.16 76.87 399.38 70.59 397.68 64.54 C 394.55 50.80 398.60 35.55 408.55 25.49 M 465.39 60.36 C 463.08 64.49 462.10 69.38 458.92 72.99 C 458.51 72.89 457.70 72.69 457.29 72.58 C 454.86 67.17 455.10 61.00 452.77 55.55 C 450.10 58.11 447.98 61.20 446.54 64.60 C 444.71 68.67 444.79 73.28 443.15 77.41 C 438.03 71.14 440.75 62.35 438.25 55.10 C 431.23 63.12 424.61 72.10 414.87 76.99 C 416.16 72.04 417.42 67.06 417.89 61.95 C 413.40 68.32 411.06 76.00 405.78 81.83 C 406.63 86.01 408.11 90.02 410.03 93.83 C 413.94 92.73 417.93 91.65 422.02 91.58 C 427.10 91.54 430.54 98.14 428.40 102.43 C 424.95 105.04 420.38 105.41 416.39 106.82 C 418.68 114.26 418.58 122.15 420.63 129.64 C 422.63 137.31 426.03 144.50 429.19 151.74 C 432.84 160.12 436.93 168.36 442.19 175.86 C 443.69 178.16 446.16 179.76 448.93 180.00 C 454.32 180.57 459.82 179.55 464.94 177.89 C 474.32 174.16 479.72 165.13 485.26 157.28 C 485.66 161.65 483.39 165.56 480.83 168.89 C 476.57 174.34 471.80 179.82 465.18 182.39 C 472.02 188.37 478.12 195.12 484.77 201.32 C 491.80 207.31 499.01 213.16 505.47 219.78 C 507.20 205.89 514.96 193.91 522.39 182.41 C 526.12 176.14 530.64 169.65 530.71 162.08 C 530.83 153.00 529.21 143.57 523.92 136.00 C 521.97 132.40 518.06 130.42 516.21 126.76 C 514.64 123.80 513.85 120.51 512.37 117.52 C 511.05 115.25 509.11 113.25 508.65 110.57 C 506.47 101.38 509.99 92.19 509.61 82.96 C 509.53 79.95 508.48 76.82 506.11 74.84 C 504.84 73.76 502.75 72.76 501.47 74.39 C 498.34 77.78 496.69 82.47 496.57 87.05 C 497.46 92.03 500.20 96.77 499.44 101.99 C 498.60 109.97 499.72 117.93 500.36 125.88 C 498.27 125.01 496.23 123.89 495.00 121.92 C 490.66 116.12 490.93 108.56 489.56 101.76 C 488.79 96.44 483.38 92.12 478.00 92.92 C 467.20 94.33 456.79 97.91 445.96 99.09 C 441.00 100.20 439.57 94.11 437.64 90.84 C 440.03 88.72 442.70 86.93 445.62 85.62 C 455.86 80.94 467.00 78.14 478.28 77.85 C 477.79 72.69 479.05 67.62 480.90 62.84 C 478.38 65.84 476.01 69.03 472.88 71.43 C 474.39 64.03 477.03 56.76 476.62 49.08 C 471.40 50.98 467.95 55.66 465.39 60.36 M 521.86 126.63 C 532.44 137.96 536.80 154.57 533.42 169.64 C 528.38 183.90 517.59 195.23 512.30 209.39 C 510.12 214.14 509.88 219.45 508.30 224.36 C 507.96 224.59 507.30 225.05 506.97 225.28 C 503.39 224.86 501.26 221.49 498.69 219.33 C 489.44 210.23 479.40 201.97 470.46 192.56 C 467.23 189.40 463.69 186.59 460.43 183.49 C 454.64 184.65 448.51 184.94 443.01 182.44 C 436.31 199.05 425.04 213.19 414.39 227.38 C 412.52 230.07 412.15 233.40 411.77 236.56 C 410.65 247.83 409.97 259.28 411.79 270.51 C 412.67 275.81 414.36 281.05 417.46 285.48 C 421.19 290.75 425.38 295.67 429.03 301.00 C 435.63 310.42 439.84 321.20 444.27 331.73 C 449.39 344.07 452.63 357.05 456.43 369.82 C 457.33 374.11 462.10 375.37 465.93 375.27 C 475.55 375.06 485.08 372.19 493.39 367.37 C 496.67 365.54 499.00 362.51 501.98 360.30 C 503.56 359.96 505.18 360.68 506.14 361.97 C 506.82 367.89 505.80 373.97 507.30 379.82 C 508.35 384.78 511.54 389.02 512.46 394.01 C 512.64 398.45 508.81 401.74 508.31 406.03 C 508.32 409.03 509.25 411.92 509.87 414.83 C 522.24 414.00 534.64 414.19 547.02 414.40 C 569.59 414.29 592.18 415.71 614.54 418.77 C 616.81 419.00 618.94 419.90 620.64 421.44 C 612.71 422.83 604.72 421.03 596.77 420.76 C 582.16 419.52 567.49 419.86 552.85 419.58 C 537.83 419.53 522.83 418.69 507.81 418.65 C 504.27 421.45 500.38 424.12 498.13 428.15 C 495.21 433.28 495.83 439.64 492.68 444.68 C 489.77 449.33 486.29 453.61 483.71 458.47 C 492.49 457.73 501.21 456.45 510.01 455.99 C 532.08 454.70 554.36 455.80 576.02 460.39 C 598.74 464.59 620.68 472.07 643.30 476.78 C 659.13 479.84 674.81 484.78 691.08 484.59 C 698.10 484.84 705.09 483.79 712.11 484.21 C 718.90 484.62 725.07 488.02 730.39 492.06 C 728.36 478.82 724.32 466.03 721.22 453.03 C 718.88 454.15 716.37 454.42 714.37 452.53 C 710.85 456.89 704.31 458.59 699.37 455.65 C 696.41 457.45 693.20 458.81 689.84 459.62 C 687.93 465.53 685.42 471.47 680.93 475.89 C 679.69 477.06 678.02 478.25 676.23 477.72 C 673.85 477.01 673.16 474.26 673.11 472.08 C 672.43 455.67 677.77 439.67 676.79 423.24 C 671.93 427.31 666.55 430.68 661.72 434.78 C 659.73 436.25 657.34 438.37 654.69 437.41 C 652.18 436.01 651.96 432.54 652.98 430.13 C 654.80 425.32 658.10 421.27 661.21 417.24 C 667.03 410.08 673.19 403.20 679.62 396.59 C 683.19 392.84 687.47 389.74 690.46 385.45 C 697.01 375.76 700.94 364.68 705.79 354.12 C 703.54 349.68 701.52 345.12 699.21 340.71 C 693.31 330.42 694.72 317.90 689.79 307.24 C 681.41 290.58 682.28 271.34 677.77 253.59 C 673.34 251.50 668.86 249.54 664.42 247.48 C 663.80 251.65 662.62 255.78 660.29 259.34 C 657.38 263.84 654.48 268.75 649.66 271.44 C 650.45 266.74 654.08 263.39 656.41 259.43 C 659.05 255.48 660.65 250.95 661.70 246.34 C 659.25 245.23 656.81 244.13 654.38 242.99 C 653.79 246.49 652.89 249.97 651.13 253.08 C 646.25 261.92 639.56 269.56 633.36 277.48 C 630.54 280.82 628.01 284.87 623.62 286.27 C 630.95 274.88 639.41 264.24 646.94 252.97 C 649.13 249.58 650.66 245.84 652.00 242.05 C 644.77 238.90 636.63 238.44 629.62 234.78 C 634.98 233.18 640.39 235.35 645.64 236.35 C 657.97 238.74 669.26 244.43 680.76 249.25 C 689.15 252.84 697.65 257.25 706.98 257.36 C 711.59 257.32 714.25 253.03 716.92 249.90 C 726.28 237.32 735.29 223.68 738.20 208.00 C 728.53 199.32 717.23 192.77 706.44 185.60 C 692.70 176.53 676.64 170.18 666.04 157.05 C 661.78 151.90 658.90 145.64 653.89 141.13 C 650.42 137.99 645.49 137.75 641.08 137.41 C 621.04 136.43 600.97 136.47 580.93 135.64 C 569.35 134.99 557.59 134.74 546.38 131.49 C 540.48 129.82 534.79 127.47 528.89 125.79 C 526.52 125.08 524.10 125.90 521.86 126.63 M 741.13 216.70 C 736.24 231.67 727.72 245.38 717.26 257.09 C 721.14 260.35 725.20 263.39 729.42 266.20 C 731.08 263.35 732.13 258.03 736.46 258.69 C 731.64 270.94 727.08 283.48 725.34 296.60 C 721.25 317.40 718.46 338.80 709.21 358.13 C 704.81 367.88 700.58 377.76 694.91 386.85 C 691.69 392.18 686.56 395.85 682.35 400.32 C 675.96 406.97 669.70 413.75 663.81 420.85 C 660.62 424.97 657.02 429.10 655.98 434.37 C 662.53 429.87 668.53 424.61 674.90 419.86 C 676.46 418.61 678.44 418.24 680.39 418.07 C 681.60 427.78 681.29 437.69 679.20 447.26 C 678.04 456.24 676.59 465.27 676.96 474.35 C 681.29 470.18 684.14 464.68 685.62 458.87 C 687.59 450.84 690.18 442.97 693.05 435.22 C 694.14 432.49 694.95 429.55 696.97 427.32 C 697.29 427.69 697.94 428.43 698.27 428.81 C 697.20 437.82 693.10 446.18 690.91 454.97 C 693.86 453.89 696.76 452.62 699.43 450.93 C 700.92 447.01 702.52 443.12 704.02 439.21 C 704.97 437.01 705.81 434.38 708.21 433.34 C 708.73 434.81 709.25 436.39 708.77 437.96 C 707.44 443.25 704.82 448.11 703.23 453.32 C 705.88 452.94 709.05 453.27 711.08 451.16 C 716.85 446.71 715.73 438.30 720.11 432.84 C 720.41 433.58 721.01 435.07 721.31 435.82 C 720.78 440.88 718.69 445.58 717.64 450.53 C 723.79 442.47 729.52 433.34 730.82 423.10 C 730.49 414.11 727.61 405.43 725.42 396.76 C 724.13 397.87 723.28 400.15 721.26 399.69 C 720.48 394.32 723.99 389.98 726.78 385.84 C 736.57 370.41 748.75 356.61 757.63 340.60 C 768.40 321.67 776.52 301.14 780.87 279.77 C 782.06 274.26 783.02 268.65 782.88 262.99 C 783.09 255.14 777.77 248.65 772.96 242.99 C 762.63 233.90 751.80 225.38 741.13 216.70 M 681.85 255.50 C 686.79 271.56 686.23 289.09 693.48 304.47 C 696.60 311.98 697.84 320.06 699.06 328.05 C 700.08 335.89 704.92 342.41 707.80 349.62 C 715.14 332.06 717.47 313.08 721.24 294.58 C 722.32 286.03 724.84 277.78 728.10 269.83 C 723.73 266.36 719.17 263.12 715.07 259.33 C 704.33 265.35 692.03 260.12 681.85 255.50 M 477.84 377.22 C 484.47 390.51 487.12 407.14 479.75 420.68 C 474.41 429.10 467.72 436.57 460.85 443.76 C 453.89 451.83 445.73 458.69 437.82 465.78 C 431.38 471.48 423.87 475.74 417.04 480.92 C 407.53 488.07 399.47 497.12 389.15 503.17 C 382.13 507.60 372.76 504.93 366.10 510.16 C 361.98 513.73 358.88 518.29 355.42 522.46 C 352.39 526.06 351.65 531.10 353.47 535.44 C 355.31 540.23 355.38 546.32 359.84 549.62 C 363.44 544.18 359.27 537.50 361.84 531.80 C 363.88 528.38 367.18 525.59 371.02 524.41 C 369.37 527.89 366.54 530.61 364.79 534.00 C 364.14 537.38 364.90 540.83 365.01 544.23 C 367.81 541.50 370.22 537.95 374.04 536.59 C 376.43 535.72 377.55 538.22 378.63 539.83 C 381.27 539.86 382.42 541.89 382.99 544.22 C 384.84 544.03 386.95 543.03 388.65 544.30 C 391.23 546.23 390.74 549.87 391.27 552.69 C 394.47 549.14 397.84 545.75 401.23 542.39 C 398.10 534.48 393.60 527.11 391.20 518.92 C 390.59 516.61 393.16 516.01 394.88 516.09 C 401.46 516.04 407.70 513.49 413.44 510.50 C 419.02 507.53 422.14 501.83 426.34 497.37 C 430.52 492.54 434.58 487.46 440.00 483.94 C 447.75 478.78 455.57 473.69 462.73 467.71 C 468.10 463.81 473.57 458.86 480.58 458.72 C 482.08 453.37 485.21 448.76 488.20 444.16 C 491.78 438.95 490.79 432.15 493.81 426.70 C 496.20 421.57 500.92 418.22 505.32 414.94 C 504.55 411.66 503.42 408.33 503.81 404.92 C 504.26 401.28 506.78 398.41 507.87 394.99 C 507.71 391.86 505.84 389.15 504.81 386.27 C 501.82 379.52 502.36 371.96 502.22 364.77 C 495.70 371.46 486.81 375.14 477.84 377.22 M 478.47 462.66 C 469.86 465.90 463.50 472.88 456.01 477.94 C 448.92 483.21 440.63 487.04 434.77 493.81 C 431.11 498.13 427.21 502.24 423.82 506.77 C 417.29 515.42 406.06 519.11 395.63 519.81 C 397.80 525.37 400.47 530.71 402.99 536.12 C 406.09 543.20 409.98 550.03 415.23 555.75 C 419.34 548.53 423.21 540.96 429.01 534.92 C 430.80 532.90 433.02 535.28 434.66 536.28 C 442.47 542.71 451.19 547.87 459.85 553.04 C 467.09 557.34 473.99 562.17 480.99 566.84 C 489.13 572.58 497.56 578.55 502.88 587.17 C 510.25 599.60 511.69 614.28 516.59 627.68 C 524.92 621.60 533.72 616.17 541.57 609.45 C 544.08 607.44 545.10 604.25 546.67 601.56 C 552.07 591.96 557.38 582.29 562.60 572.58 C 566.67 565.10 571.87 558.31 575.82 550.77 C 576.56 549.54 577.14 548.11 578.36 547.28 C 579.71 546.79 580.60 547.76 581.11 548.91 C 578.28 555.40 574.11 561.19 570.36 567.16 C 565.39 575.03 561.35 583.43 556.74 591.50 C 549.32 604.78 542.02 618.14 535.32 631.79 C 538.57 628.11 542.59 624.96 547.35 623.54 C 554.37 621.30 561.95 622.58 568.71 625.12 C 581.48 629.90 593.28 637.38 602.87 647.09 C 608.72 653.01 613.30 659.98 618.31 666.58 C 622.63 672.53 629.37 675.91 635.59 679.50 C 638.73 681.39 642.34 682.13 645.86 683.04 C 644.60 676.18 645.31 668.78 648.70 662.61 C 652.99 654.25 658.82 646.84 663.97 639.03 C 675.52 622.46 686.53 605.24 693.39 586.13 C 700.19 567.18 705.50 547.58 707.82 527.55 C 709.74 514.41 711.20 501.16 710.91 487.86 C 697.25 488.71 683.39 489.40 669.92 486.49 C 652.87 482.83 635.80 479.19 618.87 475.01 C 596.43 468.80 573.71 463.08 550.48 460.92 C 526.48 459.13 502.41 461.11 478.47 462.66 M 338.65 548.64 C 337.43 551.16 336.12 554.47 337.89 557.05 C 340.39 560.46 345.18 561.01 349.02 560.01 C 352.90 559.00 357.70 558.08 359.50 553.99 C 355.01 553.22 350.40 553.66 345.91 552.80 C 344.85 552.52 341.65 551.17 343.97 549.96 C 347.39 549.00 351.28 550.49 354.88 550.42 C 352.05 544.89 350.70 538.81 349.03 532.87 C 345.75 538.25 341.62 543.08 338.65 548.64 M 424.64 548.63 C 420.58 555.46 416.32 562.51 415.21 570.53 C 413.99 579.40 413.90 588.48 411.44 597.15 C 409.00 606.13 405.61 614.82 402.32 623.52 C 399.73 630.46 396.27 637.38 396.42 644.97 C 396.05 652.56 397.97 660.43 394.95 667.71 C 404.66 668.51 414.02 671.51 423.12 674.84 C 431.65 678.10 440.18 681.66 447.65 687.00 C 451.08 678.96 455.27 671.26 459.88 663.84 C 466.93 653.65 474.63 643.93 481.98 633.96 C 484.19 631.10 486.25 627.12 490.34 626.94 C 483.40 638.68 474.79 649.30 467.12 660.56 C 482.66 650.27 498.65 640.65 513.76 629.72 C 510.10 621.51 508.00 612.76 505.71 604.10 C 502.96 595.77 499.29 587.39 492.82 581.25 C 485.56 574.28 476.89 569.05 468.59 563.45 C 456.29 555.00 442.48 548.48 431.99 537.64 C 429.32 541.15 426.86 544.82 424.64 548.63 M 362.17 552.25 C 362.19 554.03 362.71 556.04 361.58 557.62 C 360.18 559.65 357.79 560.62 355.79 561.92 C 357.53 563.18 359.30 564.39 361.12 565.55 C 366.02 561.03 368.91 554.89 372.38 549.31 C 374.27 546.38 374.96 542.92 375.08 539.49 C 369.92 542.80 366.20 547.74 362.17 552.25 M 368.36 563.25 C 370.66 564.32 373.06 565.14 375.52 565.77 C 377.61 558.46 379.38 550.90 379.19 543.25 C 376.30 550.29 372.44 556.85 368.36 563.25 M 382.34 551.07 C 381.54 555.35 380.96 559.68 380.13 563.97 C 381.83 563.32 383.54 562.69 385.24 562.04 C 387.00 557.12 387.44 551.71 386.38 546.59 C 384.91 547.90 382.71 548.92 382.34 551.07 M 537.83 636.73 C 533.74 643.64 530.60 651.06 527.37 658.40 C 521.35 672.68 516.27 687.58 514.68 703.07 C 513.70 710.75 516.22 718.28 515.85 725.96 C 515.28 733.12 518.69 739.73 522.39 745.61 C 527.30 753.40 532.11 761.60 539.07 767.75 C 559.27 770.97 580.94 759.20 589.50 740.64 C 593.06 733.12 592.96 724.11 588.81 716.86 C 591.97 708.27 597.37 700.81 602.12 693.08 C 606.78 685.79 611.41 678.46 616.67 671.60 C 612.62 666.85 609.11 661.69 605.19 656.85 C 598.16 648.13 589.35 640.91 579.66 635.36 C 571.48 630.81 562.47 626.35 552.85 627.17 C 546.59 627.54 541.35 631.83 537.83 636.73 M 393.73 672.14 C 387.24 695.25 378.33 717.60 371.81 740.71 C 367.84 757.21 365.20 774.06 364.03 791.00 C 361.65 820.76 363.66 850.63 362.40 880.43 C 367.26 882.24 370.84 886.15 373.66 890.37 C 378.82 897.82 383.43 905.79 389.88 912.23 C 391.51 914.03 393.94 914.50 396.21 914.92 C 398.12 904.31 399.17 893.56 401.40 883.01 C 405.75 865.11 412.40 847.86 420.03 831.12 C 427.31 813.98 436.08 797.44 441.88 779.70 C 447.17 762.55 447.93 744.17 445.18 726.49 C 443.19 714.57 443.09 702.27 446.22 690.54 C 430.14 681.19 412.30 674.20 393.73 672.14 M 594.60 720.56 C 598.41 732.51 593.43 745.43 585.31 754.38 C 574.87 765.94 559.12 773.38 543.37 771.62 C 549.56 777.12 554.99 783.43 560.15 789.90 C 570.66 803.96 573.34 821.73 577.39 838.35 C 582.37 841.91 586.36 847.95 592.99 848.29 C 600.84 848.25 608.70 848.21 616.56 848.19 C 618.40 840.80 620.13 833.38 622.13 826.04 C 622.69 823.73 623.83 821.33 623.05 818.94 C 621.34 812.68 618.02 806.74 618.30 800.07 C 618.27 783.32 623.36 766.36 619.06 749.75 C 616.30 736.63 605.16 727.66 594.60 720.56 M 624.51 791.52 C 621.37 794.40 622.23 799.21 622.36 803.03 C 622.85 810.37 628.80 816.87 626.64 824.42 C 624.61 831.85 622.73 839.33 621.05 846.85 C 620.46 848.68 620.10 851.31 617.87 851.83 C 613.65 852.69 609.32 852.27 605.05 852.30 C 600.07 852.08 595.03 852.55 590.10 851.66 C 585.07 850.48 581.41 846.54 577.90 843.03 C 574.93 855.03 571.82 866.99 568.86 878.99 C 564.96 895.10 561.01 911.38 560.66 928.03 C 560.77 933.14 560.96 938.66 563.78 943.11 C 567.49 947.97 573.54 950.31 579.32 951.67 C 589.16 954.03 599.87 949.98 606.43 942.44 C 617.95 929.62 624.09 913.12 628.79 896.81 C 633.13 881.42 636.38 865.67 637.76 849.72 C 639.95 832.19 638.11 814.34 633.64 797.31 C 632.75 793.35 628.49 790.49 624.51 791.52 M 343.63 899.66 C 339.35 901.72 334.67 902.77 330.03 903.71 C 319.91 905.70 309.64 907.31 299.96 910.99 C 295.87 912.69 291.68 914.72 288.75 918.16 C 290.69 927.90 298.34 935.16 305.19 941.84 C 314.15 950.06 325.25 957.82 337.99 957.23 C 349.03 956.79 359.94 954.45 371.02 954.35 C 379.73 954.30 388.38 955.91 397.10 955.71 C 399.76 955.61 403.09 954.99 404.11 952.13 C 406.11 947.39 406.28 942.12 406.17 937.05 C 405.80 931.25 404.45 924.98 400.39 920.61 C 396.71 918.96 392.03 920.07 388.68 917.39 C 383.92 913.75 380.62 908.64 377.09 903.90 C 372.29 897.48 368.64 890.04 362.22 884.99 C 354.95 888.54 351.03 896.34 343.63 899.66 Z" />
		<path fill="#020202" opacity="1.00"
			d=" M 429.77 125.90 C 431.93 128.48 433.99 131.39 437.09 132.93 C 439.61 134.28 442.41 134.94 445.08 135.96 C 441.20 139.55 434.95 138.99 430.80 136.22 C 429.10 133.14 429.88 129.28 429.77 125.90 Z" />
		<path fill="#020202" opacity="1.00"
			d=" M 436.42 153.50 C 446.51 148.65 457.43 145.57 468.34 143.20 C 469.90 144.93 467.75 146.43 466.93 147.89 C 465.53 150.53 462.33 150.80 459.78 151.65 C 453.52 153.21 447.38 155.40 440.99 156.34 C 439.42 155.46 437.95 154.42 436.42 153.50 Z" />
		<path fill="#020202" opacity="1.00"
			d=" M 613.76 186.39 C 616.23 187.29 617.18 189.71 618.13 191.92 C 620.65 197.95 624.70 203.15 628.76 208.20 C 633.83 214.42 640.85 218.69 648.15 221.79 C 650.88 223.05 653.83 223.95 656.25 225.80 L 656.11 227.23 C 651.53 227.58 647.24 225.53 643.13 223.82 C 632.82 219.29 623.76 211.65 618.42 201.64 C 615.92 196.92 613.60 191.86 613.76 186.39 Z" />
		<path fill="#020202" opacity="1.00"
			d=" M 426.39 259.42 C 430.60 261.91 432.91 266.37 435.87 270.08 C 442.62 279.29 449.98 288.01 457.17 296.87 C 462.76 303.60 467.07 311.44 473.69 317.28 C 483.95 326.50 489.50 339.45 497.72 350.29 C 500.14 353.32 502.79 356.16 505.09 359.29 C 501.73 358.82 498.22 358.55 495.24 356.77 C 489.35 353.50 484.78 348.32 478.81 345.16 C 470.70 340.70 461.63 337.65 454.50 331.61 C 459.18 331.47 463.35 333.76 467.57 335.43 C 473.89 338.21 480.42 340.81 485.91 345.10 C 489.68 348.01 493.23 351.20 496.97 354.15 C 490.05 345.83 484.73 336.34 478.29 327.66 C 467.87 315.04 453.88 306.12 442.11 294.90 C 439.28 291.77 435.53 289.12 434.11 285.00 C 438.58 287.23 442.21 290.70 445.98 293.91 C 450.75 298.03 455.81 301.78 460.65 305.82 C 448.84 290.68 435.17 276.67 426.39 259.42 Z" />
		<path fill="#020202" opacity="1.00"
			d=" M 609.71 348.77 C 610.77 348.50 611.85 348.50 612.94 348.77 C 611.22 351.96 607.27 352.36 604.18 353.39 C 580.30 359.42 555.72 363.00 531.06 363.05 C 526.39 362.91 521.66 362.84 517.10 361.74 C 515.72 361.57 515.12 360.22 514.35 359.29 C 546.42 360.01 578.60 356.62 609.71 348.77 Z" />
		<path fill="#020202" opacity="1.00"
			d=" M 624.71 381.83 C 630.12 380.89 635.46 379.10 641.02 379.44 C 636.07 383.04 629.76 383.49 624.02 385.02 C 591.57 392.54 558.26 396.05 524.97 396.22 C 529.20 397.84 533.39 399.89 538.01 400.10 C 548.61 400.70 559.25 399.78 569.75 398.35 C 575.09 397.68 580.33 396.12 585.75 396.26 C 582.75 398.99 578.65 399.73 574.84 400.62 C 563.06 403.07 550.98 404.11 538.96 403.77 C 532.21 403.77 526.00 400.80 519.98 398.09 C 518.19 397.12 514.91 396.03 516.39 393.40 C 518.55 392.81 520.81 392.79 523.05 392.71 C 544.83 392.51 566.58 390.66 588.15 387.68 C 600.37 385.99 612.62 384.39 624.71 381.83 Z" />
		<path fill="#020202" opacity="1.00"
			d=" M 647.73 395.85 C 656.78 393.58 665.47 389.91 674.63 388.17 C 670.07 392.40 663.82 393.85 658.19 396.11 C 641.91 402.14 624.79 405.60 607.53 407.26 C 582.46 409.54 557.11 411.50 532.04 408.15 C 528.77 407.58 524.85 407.99 522.42 405.27 C 539.85 405.71 557.31 406.87 574.75 405.80 C 599.25 404.23 624.02 402.68 647.73 395.85 Z" />
		<path fill="#020202" opacity="1.00"
			d=" M 294.35 918.10 C 302.09 916.19 309.93 919.70 316.69 923.20 C 329.02 929.91 339.42 939.58 351.66 946.42 C 355.60 948.71 360.09 950.10 363.56 953.16 C 360.91 953.38 358.19 953.35 355.69 952.32 C 340.15 946.83 328.50 934.55 314.29 926.65 C 308.11 922.77 301.00 920.94 294.35 918.10 Z" />
	</g>
	<g id="#f0b58bff">
		<path fill="#f0b58b" opacity="1.00"
			d=" M 465.39 60.36 C 467.95 55.66 471.40 50.98 476.62 49.08 C 477.03 56.76 474.39 64.03 472.88 71.43 C 476.01 69.03 478.38 65.84 480.90 62.84 C 479.05 67.62 477.79 72.69 478.28 77.85 C 467.00 78.14 455.86 80.94 445.62 85.62 C 442.70 86.93 440.03 88.72 437.64 90.84 C 439.57 94.11 441.00 100.20 445.96 99.09 C 456.79 97.91 467.20 94.33 478.00 92.92 C 483.38 92.12 488.79 96.44 489.56 101.76 C 490.93 108.56 490.66 116.12 495.00 121.92 C 496.23 123.89 498.27 125.01 500.36 125.88 C 499.72 117.93 498.60 109.97 499.44 101.99 C 500.20 96.77 497.46 92.03 496.57 87.05 C 496.69 82.47 498.34 77.78 501.47 74.39 C 502.75 72.76 504.84 73.76 506.11 74.84 C 508.48 76.82 509.53 79.95 509.61 82.96 C 509.99 92.19 506.47 101.38 508.65 110.57 C 509.11 113.25 511.05 115.25 512.37 117.52 C 513.85 120.51 514.64 123.80 516.21 126.76 C 518.06 130.42 521.97 132.40 523.92 136.00 C 529.21 143.57 530.83 153.00 530.71 162.08 C 530.64 169.65 526.12 176.14 522.39 182.41 C 514.96 193.91 507.20 205.89 505.47 219.78 C 499.01 213.16 491.80 207.31 484.77 201.32 C 478.12 195.12 472.02 188.37 465.18 182.39 C 471.80 179.82 476.57 174.34 480.83 168.89 C 483.39 165.56 485.66 161.65 485.26 157.28 C 479.72 165.13 474.32 174.16 464.94 177.89 C 459.82 179.55 454.32 180.57 448.93 180.00 C 446.16 179.76 443.69 178.16 442.19 175.86 C 436.93 168.36 432.84 160.12 429.19 151.74 C 426.03 144.50 422.63 137.31 420.63 129.64 C 418.58 122.15 418.68 114.26 416.39 106.82 C 420.38 105.41 424.95 105.04 428.40 102.43 C 430.54 98.14 427.10 91.54 422.02 91.58 C 417.93 91.65 413.94 92.73 410.03 93.83 C 408.11 90.02 406.63 86.01 405.78 81.83 C 411.06 76.00 413.40 68.32 417.89 61.95 C 417.42 67.06 416.16 72.04 414.87 76.99 C 424.61 72.10 431.23 63.12 438.25 55.10 C 440.75 62.35 438.03 71.14 443.15 77.41 C 444.79 73.28 444.71 68.67 446.54 64.60 C 447.98 61.20 450.10 58.11 452.77 55.55 C 455.10 61.00 454.86 67.17 457.29 72.58 C 457.70 72.69 458.51 72.89 458.92 72.99 C 462.10 69.38 463.08 64.49 465.39 60.36 M 429.91 123.71 C 430.64 116.87 432.43 109.58 430.19 102.88 C 428.70 109.62 426.69 117.16 429.91 123.71 M 429.77 125.90 C 429.88 129.28 429.10 133.14 430.80 136.22 C 434.95 138.99 441.20 139.55 445.08 135.96 C 442.41 134.94 439.61 134.28 437.09 132.93 C 433.99 131.39 431.93 128.48 429.77 125.90 M 436.42 153.50 C 437.95 154.42 439.42 155.46 440.99 156.34 C 447.38 155.40 453.52 153.21 459.78 151.65 C 462.33 150.80 465.53 150.53 466.93 147.89 C 467.75 146.43 469.90 144.93 468.34 143.20 C 457.43 145.57 446.51 148.65 436.42 153.50 Z" />
		<path fill="#f0b58b" opacity="1.00"
			d=" M 741.13 216.70 C 751.80 225.38 762.63 233.90 772.96 242.99 C 777.77 248.65 783.09 255.14 782.88 262.99 C 783.02 268.65 782.06 274.26 780.87 279.77 C 776.52 301.14 768.40 321.67 757.63 340.60 C 748.75 356.61 736.57 370.41 726.78 385.84 C 723.99 389.98 720.48 394.32 721.26 399.69 C 723.28 400.15 724.13 397.87 725.42 396.76 C 727.61 405.43 730.49 414.11 730.82 423.10 C 729.52 433.34 723.79 442.47 717.64 450.53 C 718.69 445.58 720.78 440.88 721.31 435.82 C 721.01 435.07 720.41 433.58 720.11 432.84 C 715.73 438.30 716.85 446.71 711.08 451.16 C 709.05 453.27 705.88 452.94 703.23 453.32 C 704.82 448.11 707.44 443.25 708.77 437.96 C 709.25 436.39 708.73 434.81 708.21 433.34 C 705.81 434.38 704.97 437.01 704.02 439.21 C 702.52 443.12 700.92 447.01 699.43 450.93 C 696.76 452.62 693.86 453.89 690.91 454.97 C 693.10 446.18 697.20 437.82 698.27 428.81 C 697.94 428.43 697.29 427.69 696.97 427.32 C 694.95 429.55 694.14 432.49 693.05 435.22 C 690.18 442.97 687.59 450.84 685.62 458.87 C 684.14 464.68 681.29 470.18 676.96 474.35 C 676.59 465.27 678.04 456.24 679.20 447.26 C 681.29 437.69 681.60 427.78 680.39 418.07 C 678.44 418.24 676.46 418.61 674.90 419.86 C 668.53 424.61 662.53 429.87 655.98 434.37 C 657.02 429.10 660.62 424.97 663.81 420.85 C 669.70 413.75 675.96 406.97 682.35 400.32 C 686.56 395.85 691.69 392.18 694.91 386.85 C 700.58 377.76 704.81 367.88 709.21 358.13 C 718.46 338.80 721.25 317.40 725.34 296.60 C 727.08 283.48 731.64 270.94 736.46 258.69 C 732.13 258.03 731.08 263.35 729.42 266.20 C 725.20 263.39 721.14 260.35 717.26 257.09 C 727.72 245.38 736.24 231.67 741.13 216.70 Z" />
		<path fill="#f0b58b" opacity="1.00"
			d=" M 477.84 377.22 C 486.81 375.14 495.70 371.46 502.22 364.77 C 502.36 371.96 501.82 379.52 504.81 386.27 C 505.84 389.15 507.71 391.86 507.87 394.99 C 506.78 398.41 504.26 401.28 503.81 404.92 C 503.42 408.33 504.55 411.66 505.32 414.94 C 500.92 418.22 496.20 421.57 493.81 426.70 C 490.79 432.15 491.78 438.95 488.20 444.16 C 485.21 448.76 482.08 453.37 480.58 458.72 C 473.57 458.86 468.10 463.81 462.73 467.71 C 455.57 473.69 447.75 478.78 440.00 483.94 C 434.58 487.46 430.52 492.54 426.34 497.37 C 422.14 501.83 419.02 507.53 413.44 510.50 C 407.70 513.49 401.46 516.04 394.88 516.09 C 393.16 516.01 390.59 516.61 391.20 518.92 C 393.60 527.11 398.10 534.48 401.23 542.39 C 397.84 545.75 394.47 549.14 391.27 552.69 C 390.74 549.87 391.23 546.23 388.65 544.30 C 386.95 543.03 384.84 544.03 382.99 544.22 C 382.42 541.89 381.27 539.86 378.63 539.83 C 377.55 538.22 376.43 535.72 374.04 536.59 C 370.22 537.95 367.81 541.50 365.01 544.23 C 364.90 540.83 364.14 537.38 364.79 534.00 C 366.54 530.61 369.37 527.89 371.02 524.41 C 367.18 525.59 363.88 528.38 361.84 531.80 C 359.27 537.50 363.44 544.18 359.84 549.62 C 355.38 546.32 355.31 540.23 353.47 535.44 C 351.65 531.10 352.39 526.06 355.42 522.46 C 358.88 518.29 361.98 513.73 366.10 510.16 C 372.76 504.93 382.13 507.60 389.15 503.17 C 399.47 497.12 407.53 488.07 417.04 480.92 C 423.87 475.74 431.38 471.48 437.82 465.78 C 445.73 458.69 453.89 451.83 460.85 443.76 C 467.72 436.57 474.41 429.10 479.75 420.68 C 487.12 407.14 484.47 390.51 477.84 377.22 Z" />
		<path fill="#f0b58b" opacity="1.00"
			d=" M 338.65 548.64 C 341.62 543.08 345.75 538.25 349.03 532.87 C 350.70 538.81 352.05 544.89 354.88 550.42 C 351.28 550.49 347.39 549.00 343.97 549.96 C 341.65 551.17 344.85 552.52 345.91 552.80 C 350.40 553.66 355.01 553.22 359.50 553.99 C 357.70 558.08 352.90 559.00 349.02 560.01 C 345.18 561.01 340.39 560.46 337.89 557.05 C 336.12 554.47 337.43 551.16 338.65 548.64 Z" />
		<path fill="#f0b58b" opacity="1.00"
			d=" M 424.64 548.63 C 426.86 544.82 429.32 541.15 431.99 537.64 C 442.48 548.48 456.29 555.00 468.59 563.45 C 476.89 569.05 485.56 574.28 492.82 581.25 C 499.29 587.39 502.96 595.77 505.71 604.10 C 508.00 612.76 510.10 621.51 513.76 629.72 C 498.65 640.65 482.66 650.27 467.12 660.56 C 474.79 649.30 483.40 638.68 490.34 626.94 C 486.25 627.12 484.19 631.10 481.98 633.96 C 474.63 643.93 466.93 653.65 459.88 663.84 C 455.27 671.26 451.08 678.96 447.65 687.00 C 440.18 681.66 431.65 678.10 423.12 674.84 C 414.02 671.51 404.66 668.51 394.95 667.71 C 397.97 660.43 396.05 652.56 396.42 644.97 C 396.27 637.38 399.73 630.46 402.32 623.52 C 405.61 614.82 409.00 606.13 411.44 597.15 C 413.90 588.48 413.99 579.40 415.21 570.53 C 416.32 562.51 420.58 555.46 424.64 548.63 Z" />
		<path fill="#f0b58b" opacity="1.00"
			d=" M 362.17 552.25 C 366.20 547.74 369.92 542.80 375.08 539.49 C 374.96 542.92 374.27 546.38 372.38 549.31 C 368.91 554.89 366.02 561.03 361.12 565.55 C 359.30 564.39 357.53 563.18 355.79 561.92 C 357.79 560.62 360.18 559.65 361.58 557.62 C 362.71 556.04 362.19 554.03 362.17 552.25 Z" />
		<path fill="#f0b58b" opacity="1.00"
			d=" M 368.36 563.25 C 372.44 556.85 376.30 550.29 379.19 543.25 C 379.38 550.90 377.61 558.46 375.52 565.77 C 373.06 565.14 370.66 564.32 368.36 563.25 Z" />
		<path fill="#f0b58b" opacity="1.00"
			d=" M 382.34 551.07 C 382.71 548.92 384.91 547.90 386.38 546.59 C 387.44 551.71 387.00 557.12 385.24 562.04 C 383.54 562.69 381.83 563.32 380.13 563.97 C 380.96 559.68 381.54 555.35 382.34 551.07 Z" />
		<path fill="#f0b58b" opacity="1.00"
			d=" M 537.83 636.73 C 541.35 631.83 546.59 627.54 552.85 627.17 C 562.47 626.35 571.48 630.81 579.66 635.36 C 589.35 640.91 598.16 648.13 605.19 656.85 C 609.11 661.69 612.62 666.85 616.67 671.60 C 611.41 678.46 606.78 685.79 602.12 693.08 C 597.37 700.81 591.97 708.27 588.81 716.86 C 592.96 724.11 593.06 733.12 589.50 740.64 C 580.94 759.20 559.27 770.97 539.07 767.75 C 532.11 761.60 527.30 753.40 522.39 745.61 C 518.69 739.73 515.28 733.12 515.85 725.96 C 516.22 718.28 513.70 710.75 514.68 703.07 C 516.27 687.58 521.35 672.68 527.37 658.40 C 530.60 651.06 533.74 643.64 537.83 636.73 Z" />
	</g>
	<g id="#010101fc">
		<path fill="#010101" opacity="1.00"
			d=" M 429.91 123.71 C 426.69 117.16 428.70 109.62 430.19 102.88 C 432.43 109.58 430.64 116.87 429.91 123.71 Z" />
	</g>
	<g id="#f11b27ff">
		<path fill="var(--shirt-color, grey)" opacity="1.00"
			d=" M 521.86 126.63 C 524.10 125.90 526.52 125.08 528.89 125.79 C 534.79 127.47 540.48 129.82 546.38 131.49 C 557.59 134.74 569.35 134.99 580.93 135.64 C 600.97 136.47 621.04 136.43 641.08 137.41 C 645.49 137.75 650.42 137.99 653.89 141.13 C 658.90 145.64 661.78 151.90 666.04 157.05 C 676.64 170.18 692.70 176.53 706.44 185.60 C 717.23 192.77 728.53 199.32 738.20 208.00 C 735.29 223.68 726.28 237.32 716.92 249.90 C 714.25 253.03 711.59 257.32 706.98 257.36 C 697.65 257.25 689.15 252.84 680.76 249.25 C 669.26 244.43 657.97 238.74 645.64 236.35 C 640.39 235.35 634.98 233.18 629.62 234.78 C 636.63 238.44 644.77 238.90 652.00 242.05 C 650.66 245.84 649.13 249.58 646.94 252.97 C 639.41 264.24 630.95 274.88 623.62 286.27 C 628.01 284.87 630.54 280.82 633.36 277.48 C 639.56 269.56 646.25 261.92 651.13 253.08 C 652.89 249.97 653.79 246.49 654.38 242.99 C 656.81 244.13 659.25 245.23 661.70 246.34 C 660.65 250.95 659.05 255.48 656.41 259.43 C 654.08 263.39 650.45 266.74 649.66 271.44 C 654.48 268.75 657.38 263.84 660.29 259.34 C 662.62 255.78 663.80 251.65 664.42 247.48 C 668.86 249.54 673.34 251.50 677.77 253.59 C 682.28 271.34 681.41 290.58 689.79 307.24 C 694.72 317.90 693.31 330.42 699.21 340.71 C 701.52 345.12 703.54 349.68 705.79 354.12 C 700.94 364.68 697.01 375.76 690.46 385.45 C 687.47 389.74 683.19 392.84 679.62 396.59 C 673.19 403.20 667.03 410.08 661.21 417.24 C 658.10 421.27 654.80 425.32 652.98 430.13 C 651.96 432.54 652.18 436.01 654.69 437.41 C 657.34 438.37 659.73 436.25 661.72 434.78 C 666.55 430.68 671.93 427.31 676.79 423.24 C 677.77 439.67 672.43 455.67 673.11 472.08 C 673.16 474.26 673.85 477.01 676.23 477.72 C 678.02 478.25 679.69 477.06 680.93 475.89 C 685.42 471.47 687.93 465.53 689.84 459.62 C 693.20 458.81 696.41 457.45 699.37 455.65 C 704.31 458.59 710.85 456.89 714.37 452.53 C 716.37 454.42 718.88 454.15 721.22 453.03 C 724.32 466.03 728.36 478.82 730.39 492.06 C 725.07 488.02 718.90 484.62 712.11 484.21 C 705.09 483.79 698.10 484.84 691.08 484.59 C 674.81 484.78 659.13 479.84 643.30 476.78 C 620.68 472.07 598.74 464.59 576.02 460.39 C 554.36 455.80 532.08 454.70 510.01 455.99 C 501.21 456.45 492.49 457.73 483.71 458.47 C 486.29 453.61 489.77 449.33 492.68 444.68 C 495.83 439.64 495.21 433.28 498.13 428.15 C 500.38 424.12 504.27 421.45 507.81 418.65 C 522.83 418.69 537.83 419.53 552.85 419.58 C 567.49 419.86 582.16 419.52 596.77 420.76 C 604.72 421.03 612.71 422.83 620.64 421.44 C 618.94 419.90 616.81 419.00 614.54 418.77 C 592.18 415.71 569.59 414.29 547.02 414.40 C 534.64 414.19 522.24 414.00 509.87 414.83 C 509.25 411.92 508.32 409.03 508.31 406.03 C 508.81 401.74 512.64 398.45 512.46 394.01 C 511.54 389.02 508.35 384.78 507.30 379.82 C 505.80 373.97 506.82 367.89 506.14 361.97 C 505.18 360.68 503.56 359.96 501.98 360.30 C 499.00 362.51 496.67 365.54 493.39 367.37 C 485.08 372.19 475.55 375.06 465.93 375.27 C 462.10 375.37 457.33 374.11 456.43 369.82 C 452.63 357.05 449.39 344.07 444.27 331.73 C 439.84 321.20 435.63 310.42 429.03 301.00 C 425.38 295.67 421.19 290.75 417.46 285.48 C 414.36 281.05 412.67 275.81 411.79 270.51 C 409.97 259.28 410.65 247.83 411.77 236.56 C 412.15 233.40 412.52 230.07 414.39 227.38 C 425.04 213.19 436.31 199.05 443.01 182.44 C 448.51 184.94 454.64 184.65 460.43 183.49 C 463.69 186.59 467.23 189.40 470.46 192.56 C 479.40 201.97 489.44 210.23 498.69 219.33 C 501.26 221.49 503.39 224.86 506.97 225.28 C 507.30 225.05 507.96 224.59 508.30 224.36 C 509.88 219.45 510.12 214.14 512.30 209.39 C 517.59 195.23 528.38 183.90 533.42 169.64 C 536.80 154.57 532.44 137.96 521.86 126.63 M 613.76 186.39 C 613.60 191.86 615.92 196.92 618.42 201.64 C 623.76 211.65 632.82 219.29 643.13 223.82 C 647.24 225.53 651.53 227.58 656.11 227.23 L 656.25 225.80 C 653.83 223.95 650.88 223.05 648.15 221.79 C 640.85 218.69 633.83 214.42 628.76 208.20 C 624.70 203.15 620.65 197.95 618.13 191.92 C 617.18 189.71 616.23 187.29 613.76 186.39 M 426.39 259.42 C 435.17 276.67 448.84 290.68 460.65 305.82 C 455.81 301.78 450.75 298.03 445.98 293.91 C 442.21 290.70 438.58 287.23 434.11 285.00 C 435.53 289.12 439.28 291.77 442.11 294.90 C 453.88 306.12 467.87 315.04 478.29 327.66 C 484.73 336.34 490.05 345.83 496.97 354.15 C 493.23 351.20 489.68 348.01 485.91 345.10 C 480.42 340.81 473.89 338.21 467.57 335.43 C 463.35 333.76 459.18 331.47 454.50 331.61 C 461.63 337.65 470.70 340.70 478.81 345.16 C 484.78 348.32 489.35 353.50 495.24 356.77 C 498.22 358.55 501.73 358.82 505.09 359.29 C 502.79 356.16 500.14 353.32 497.72 350.29 C 489.50 339.45 483.95 326.50 473.69 317.28 C 467.07 311.44 462.76 303.60 457.17 296.87 C 449.98 288.01 442.62 279.29 435.87 270.08 C 432.91 266.37 430.60 261.91 426.39 259.42 M 609.71 348.77 C 578.60 356.62 546.42 360.01 514.35 359.29 C 515.12 360.22 515.72 361.57 517.10 361.74 C 521.66 362.84 526.39 362.91 531.06 363.05 C 555.72 363.00 580.30 359.42 604.18 353.39 C 607.27 352.36 611.22 351.96 612.94 348.77 C 611.85 348.50 610.77 348.50 609.71 348.77 M 624.71 381.83 C 612.62 384.39 600.37 385.99 588.15 387.68 C 566.58 390.66 544.83 392.51 523.05 392.71 C 520.81 392.79 518.55 392.81 516.39 393.40 C 514.91 396.03 518.19 397.12 519.98 398.09 C 526.00 400.80 532.21 403.77 538.96 403.77 C 550.98 404.11 563.06 403.07 574.84 400.62 C 578.65 399.73 582.75 398.99 585.75 396.26 C 580.33 396.12 575.09 397.68 569.75 398.35 C 559.25 399.78 548.61 400.70 538.01 400.10 C 533.39 399.89 529.20 397.84 524.97 396.22 C 558.26 396.05 591.57 392.54 624.02 385.02 C 629.76 383.49 636.07 383.04 641.02 379.44 C 635.46 379.10 630.12 380.89 624.71 381.83 M 647.73 395.85 C 624.02 402.68 599.25 404.23 574.75 405.80 C 557.31 406.87 539.85 405.71 522.42 405.27 C 524.85 407.99 528.77 407.58 532.04 408.15 C 557.11 411.50 582.46 409.54 607.53 407.26 C 624.79 405.60 641.91 402.14 658.19 396.11 C 663.82 393.85 670.07 392.40 674.63 388.17 C 665.47 389.91 656.78 393.58 647.73 395.85 Z" />
	</g>
	<g id="#ffffffff">
		<path fill="var(--pants-color, grey)" opacity="1.00"
			d=" M 478.47 462.66 C 502.41 461.11 526.48 459.13 550.48 460.92 C 573.71 463.08 596.43 468.80 618.87 475.01 C 635.80 479.19 652.87 482.83 669.92 486.49 C 683.39 489.40 697.25 488.71 710.91 487.86 C 711.20 501.16 709.74 514.41 707.82 527.55 C 705.50 547.58 700.19 567.18 693.39 586.13 C 686.53 605.24 675.52 622.46 663.97 639.03 C 658.82 646.84 652.99 654.25 648.70 662.61 C 645.31 668.78 644.60 676.18 645.86 683.04 C 642.34 682.13 638.73 681.39 635.59 679.50 C 629.37 675.91 622.63 672.53 618.31 666.58 C 613.30 659.98 608.72 653.01 602.87 647.09 C 593.28 637.38 581.48 629.90 568.71 625.12 C 561.95 622.58 554.37 621.30 547.35 623.54 C 542.59 624.96 538.57 628.11 535.32 631.79 C 542.02 618.14 549.32 604.78 556.74 591.50 C 561.35 583.43 565.39 575.03 570.36 567.16 C 574.11 561.19 578.28 555.40 581.11 548.91 C 580.60 547.76 579.71 546.79 578.36 547.28 C 577.14 548.11 576.56 549.54 575.82 550.77 C 571.87 558.31 566.67 565.10 562.60 572.58 C 557.38 582.29 552.07 591.96 546.67 601.56 C 545.10 604.25 544.08 607.44 541.57 609.45 C 533.72 616.17 524.92 621.60 516.59 627.68 C 511.69 614.28 510.25 599.60 502.88 587.17 C 497.56 578.55 489.13 572.58 480.99 566.84 C 473.99 562.17 467.09 557.34 459.85 553.04 C 451.19 547.87 442.47 542.71 434.66 536.28 C 433.02 535.28 430.80 532.90 429.01 534.92 C 423.21 540.96 419.34 548.53 415.23 555.75 C 409.98 550.03 406.09 543.20 402.99 536.12 C 400.47 530.71 397.80 525.37 395.63 519.81 C 406.06 519.11 417.29 515.42 423.82 506.77 C 427.21 502.24 431.11 498.13 434.77 493.81 C 440.63 487.04 448.92 483.21 456.01 477.94 C 463.50 472.88 469.86 465.90 478.47 462.66 Z" />
		<path fill="var(--socks-color, grey)" opacity="1.00"
			d=" M 393.73 672.14 C 412.30 674.20 430.14 681.19 446.22 690.54 C 443.09 702.27 443.19 714.57 445.18 726.49 C 447.93 744.17 447.17 762.55 441.88 779.70 C 436.08 797.44 427.31 813.98 420.03 831.12 C 412.40 847.86 405.75 865.11 401.40 883.01 C 399.17 893.56 398.12 904.31 396.21 914.92 C 393.94 914.50 391.51 914.03 389.88 912.23 C 383.43 905.79 378.82 897.82 373.66 890.37 C 370.84 886.15 367.26 882.24 362.40 880.43 C 363.66 850.63 361.65 820.76 364.03 791.00 C 365.20 774.06 367.84 757.21 371.81 740.71 C 378.33 717.60 387.24 695.25 393.73 672.14 Z" />
		<path fill="var(--socks-color, grey)" opacity="1.00"
			d=" M 594.60 720.56 C 605.16 727.66 616.30 736.63 619.06 749.75 C 623.36 766.36 618.27 783.32 618.30 800.07 C 618.02 806.74 621.34 812.68 623.05 818.94 C 623.83 821.33 622.69 823.73 622.13 826.04 C 620.13 833.38 618.40 840.80 616.56 848.19 C 608.70 848.21 600.84 848.25 592.99 848.29 C 586.36 847.95 582.37 841.91 577.39 838.35 C 573.34 821.73 570.66 803.96 560.15 789.90 C 554.99 783.43 549.56 777.12 543.37 771.62 C 559.12 773.38 574.87 765.94 585.31 754.38 C 593.43 745.43 598.41 732.51 594.60 720.56 Z" />
	</g>
	<g id="#4d4d4dff">
		<path fill="#4d4d4d" opacity="1.00"
			d=" M 624.51 791.52 C 628.49 790.49 632.75 793.35 633.64 797.31 C 638.11 814.34 639.95 832.19 637.76 849.72 C 636.38 865.67 633.13 881.42 628.79 896.81 C 624.09 913.12 617.95 929.62 606.43 942.44 C 599.87 949.98 589.16 954.03 579.32 951.67 C 573.54 950.31 567.49 947.97 563.78 943.11 C 560.96 938.66 560.77 933.14 560.66 928.03 C 561.01 911.38 564.96 895.10 568.86 878.99 C 571.82 866.99 574.93 855.03 577.90 843.03 C 581.41 846.54 585.07 850.48 590.10 851.66 C 595.03 852.55 600.07 852.08 605.05 852.30 C 609.32 852.27 613.65 852.69 617.87 851.83 C 620.10 851.31 620.46 848.68 621.05 846.85 C 622.73 839.33 624.61 831.85 626.64 824.42 C 628.80 816.87 622.85 810.37 622.36 803.03 C 622.23 799.21 621.37 794.40 624.51 791.52 Z" />
		<path fill="#4d4d4d" opacity="1.00"
			d=" M 343.63 899.66 C 351.03 896.34 354.95 888.54 362.22 884.99 C 368.64 890.04 372.29 897.48 377.09 903.90 C 380.62 908.64 383.92 913.75 388.68 917.39 C 392.03 920.07 396.71 918.96 400.39 920.61 C 404.45 924.98 405.80 931.25 406.17 937.05 C 406.28 942.12 406.11 947.39 404.11 952.13 C 403.09 954.99 399.76 955.61 397.10 955.71 C 388.38 955.91 379.73 954.30 371.02 954.35 C 359.94 954.45 349.03 956.79 337.99 957.23 C 325.25 957.82 314.15 950.06 305.19 941.84 C 298.34 935.16 290.69 927.90 288.75 918.16 C 291.68 914.72 295.87 912.69 299.96 910.99 C 309.64 907.31 319.91 905.70 330.03 903.71 C 334.67 902.77 339.35 901.72 343.63 899.66 M 294.35 918.10 C 301.00 920.94 308.11 922.77 314.29 926.65 C 328.50 934.55 340.15 946.83 355.69 952.32 C 358.19 953.35 360.91 953.38 363.56 953.16 C 360.09 950.10 355.60 948.71 351.66 946.42 C 339.42 939.58 329.02 929.91 316.69 923.20 C 309.93 919.70 302.09 916.19 294.35 918.10 Z" />
	</g>
</svg>