<?xml version="1.0" encoding="UTF-8" ?>
<!DOCTYPE svg PUBLIC "-//W3C//DTD SVG 1.1//EN" "http://www.w3.org/Graphics/SVG/1.1/DTD/svg11.dtd">
<svg width="1000pt" height="1000pt" viewBox="0 0 1000 1000" version="1.1" xmlns="http://www.w3.org/2000/svg">
	<g id="#020202ff">
		<path fill="#020202" opacity="1.00"
			d=" M 477.81 56.93 C 483.84 43.92 497.21 35.49 511.09 33.20 C 538.01 28.51 566.85 43.75 578.50 68.39 C 585.42 83.99 585.48 102.37 579.22 118.20 C 577.34 123.84 573.91 129.03 573.49 135.08 C 573.01 142.53 574.15 149.95 574.19 157.39 C 582.84 157.30 588.82 164.20 595.63 168.42 C 604.90 174.16 614.07 180.06 623.42 185.66 C 631.14 190.44 639.75 193.59 647.25 198.72 C 660.02 207.20 670.82 219.22 676.23 233.70 C 678.88 240.67 681.05 247.80 683.02 254.99 C 686.79 268.58 691.51 281.87 695.39 295.43 C 698.02 304.47 702.03 313.03 704.93 321.99 C 707.63 330.09 711.67 339.17 708.12 347.62 C 714.25 358.71 717.76 371.07 720.79 383.32 C 726.76 408.21 726.32 434.31 721.16 459.30 C 720.18 466.01 717.25 472.91 719.25 479.69 C 721.33 485.57 725.33 490.51 727.68 496.27 C 731.20 503.83 733.60 512.54 730.91 520.75 C 727.44 530.93 721.51 540.36 713.61 547.69 C 710.70 550.61 706.29 550.45 702.48 550.36 C 696.50 556.16 686.91 558.25 679.24 554.76 C 677.09 553.99 676.12 551.28 677.30 549.32 C 679.15 545.95 682.57 543.90 685.26 541.27 C 690.73 536.40 694.95 530.07 696.94 523.00 C 697.31 518.86 695.09 515.08 693.39 511.46 C 690.00 518.68 691.11 527.22 687.22 534.22 C 685.52 536.59 683.35 540.06 679.98 539.39 C 676.58 535.83 678.21 530.38 677.58 525.96 C 676.42 515.35 676.22 504.04 681.22 494.29 C 683.54 489.38 687.63 484.85 687.42 479.12 C 686.83 467.34 683.68 455.91 680.59 444.58 C 676.73 430.91 671.34 417.40 671.07 403.00 C 670.11 391.83 672.72 380.48 670.36 369.44 C 663.03 370.80 655.61 371.95 648.13 371.42 C 650.33 397.35 645.00 423.24 647.29 449.17 C 648.51 460.85 648.97 472.59 650.20 484.27 C 650.94 493.79 651.28 503.48 649.62 512.92 C 649.19 516.12 646.62 518.14 643.73 519.11 C 646.19 526.57 644.47 534.41 643.96 542.02 C 643.16 554.72 640.98 567.31 640.84 580.05 C 640.16 600.38 641.22 620.71 641.41 641.03 C 641.75 655.71 643.13 670.35 643.44 685.03 C 643.33 689.74 642.67 694.55 640.49 698.78 C 640.72 706.26 642.43 713.56 643.74 720.89 C 645.82 735.09 651.30 748.54 653.15 762.79 C 654.77 777.11 655.10 791.55 655.17 805.96 C 654.69 824.14 654.50 842.36 652.65 860.46 C 650.92 876.67 649.59 892.91 647.64 909.09 C 653.08 911.72 655.67 917.41 657.18 922.94 C 660.80 933.87 662.22 945.35 665.37 956.42 C 667.38 963.76 669.14 971.42 668.11 979.07 C 667.46 984.63 662.72 988.72 657.98 991.07 C 649.13 994.45 639.44 994.98 630.06 994.51 C 623.89 994.24 617.45 992.50 612.82 988.24 C 607.47 982.57 606.68 974.39 605.99 967.00 C 605.47 960.86 603.53 954.98 602.23 949.00 C 600.45 939.70 601.71 929.29 607.82 921.75 C 606.72 912.49 605.87 903.19 605.50 893.86 C 604.07 878.55 599.39 863.83 595.74 848.97 C 589.56 823.38 587.76 797.05 585.49 770.91 C 584.56 761.59 585.42 751.86 581.88 742.99 C 577.50 731.68 571.02 721.14 568.33 709.21 C 558.07 705.52 547.07 701.74 539.74 693.22 C 535.80 688.98 534.85 683.02 533.70 677.57 C 530.90 663.53 531.43 649.15 529.74 634.98 C 528.92 628.48 528.76 621.93 528.55 615.39 C 522.80 623.13 516.49 630.58 512.20 639.28 C 505.70 652.42 500.38 666.31 498.32 680.90 C 497.58 683.92 497.99 688.15 494.46 689.49 C 486.18 693.18 477.90 698.15 468.53 697.97 C 466.40 703.39 465.37 709.21 465.54 715.03 C 465.47 724.08 467.97 732.92 467.79 741.97 C 467.75 751.81 465.01 761.34 462.60 770.80 C 457.71 789.21 450.76 806.98 445.42 825.25 C 440.79 843.05 434.06 860.47 432.41 878.91 C 432.04 889.64 431.12 900.35 430.84 911.08 C 429.97 918.79 428.27 927.74 421.19 932.22 C 413.65 938.08 403.62 936.70 394.73 937.72 C 379.13 939.44 366.64 950.61 351.27 953.12 C 339.91 954.81 328.29 952.46 317.74 948.21 C 312.52 945.91 306.95 943.03 304.29 937.70 C 302.92 935.38 304.89 933.06 306.22 931.27 C 312.70 923.37 321.18 917.49 329.12 911.18 C 340.25 902.94 351.00 894.19 362.55 886.54 C 368.39 882.87 374.01 878.72 380.52 876.29 C 384.12 864.58 384.42 852.21 385.40 840.08 C 386.31 821.02 386.67 801.92 388.43 782.90 C 390.41 761.42 392.63 739.74 399.10 719.07 C 401.79 710.57 404.24 701.95 405.70 693.15 C 407.03 685.38 406.41 677.48 406.45 669.65 C 404.94 667.80 403.23 666.07 402.23 663.89 C 401.49 659.92 402.58 655.90 403.34 652.01 C 405.55 642.43 407.57 632.79 410.18 623.30 C 414.12 608.08 418.93 592.86 419.47 577.03 C 419.44 570.29 419.37 563.53 420.40 556.86 C 422.46 542.99 425.53 529.09 431.46 516.32 C 429.34 513.84 427.16 511.18 426.60 507.87 C 424.96 499.47 428.18 491.17 431.70 483.69 C 435.60 474.64 440.26 465.90 443.49 456.58 C 447.05 446.25 443.20 435.17 445.81 424.68 C 448.40 413.61 454.46 403.12 453.03 391.38 C 448.14 410.96 438.99 429.18 428.06 446.05 C 423.09 454.11 417.67 461.93 413.34 470.37 C 409.92 477.28 406.40 485.18 408.91 492.98 C 411.64 501.14 408.11 509.45 404.81 516.84 C 402.12 523.40 400.43 530.30 397.88 536.92 C 396.22 540.96 397.74 545.71 395.52 549.57 C 394.17 551.79 391.31 551.76 389.03 551.94 C 383.58 552.22 377.66 553.07 372.69 550.22 C 369.55 548.63 368.11 545.22 366.85 542.14 C 362.97 532.20 359.45 521.67 360.39 510.85 C 361.15 502.86 365.07 495.71 368.75 488.74 C 373.18 480.23 377.66 471.52 379.38 461.99 C 380.42 456.33 380.34 450.54 380.93 444.83 C 382.84 426.67 386.26 408.45 393.64 391.66 C 397.95 381.86 404.62 373.43 410.50 364.58 C 414.44 358.75 416.57 351.98 417.71 345.08 C 414.51 341.90 411.05 338.52 409.97 333.98 C 409.27 331.31 410.10 328.60 410.84 326.05 C 414.90 313.28 418.29 300.24 419.50 286.86 C 421.03 269.63 421.89 252.34 423.61 235.13 C 423.97 228.19 428.57 222.62 430.17 216.04 C 431.86 210.02 432.57 202.98 437.71 198.74 C 448.59 189.70 462.03 184.71 474.62 178.61 C 481.78 175.09 488.93 171.52 496.07 167.95 C 493.91 163.10 492.38 157.95 489.62 153.38 C 483.00 142.90 482.03 130.07 481.56 118.00 C 482.11 109.20 477.39 101.15 478.22 92.31 C 477.69 92.63 476.63 93.26 476.09 93.57 C 476.35 89.91 476.36 86.17 475.22 82.63 C 472.53 74.16 474.22 64.87 477.81 56.93 M 490.05 88.89 C 491.36 84.21 492.39 79.41 492.22 74.52 C 488.19 79.42 485.37 85.18 481.11 89.92 C 482.48 94.08 482.78 98.47 483.50 102.77 C 488.51 102.83 494.31 103.02 497.73 107.31 C 499.34 109.06 500.97 113.21 497.91 114.29 C 493.96 115.29 489.85 115.40 485.82 115.94 C 485.98 124.65 486.83 133.45 489.41 141.81 C 490.99 147.05 494.54 151.36 496.52 156.43 C 499.07 162.91 501.38 169.72 505.77 175.23 C 509.32 178.71 514.42 182.08 519.60 180.43 C 526.62 178.36 533.19 175.00 539.66 171.60 C 544.14 169.31 548.05 165.93 552.88 164.31 C 549.95 169.88 543.80 172.38 538.98 175.99 C 532.52 180.70 525.21 184.56 517.12 185.29 C 523.49 201.03 529.02 217.10 534.83 233.06 C 545.39 220.47 556.22 208.08 565.70 194.65 C 568.75 189.94 572.05 185.24 573.79 179.86 C 574.82 176.98 573.27 174.11 572.52 171.37 C 569.94 164.09 572.21 156.29 570.79 148.83 C 570.18 143.43 567.28 138.55 567.12 133.08 C 566.77 126.30 568.32 119.65 569.31 112.99 C 570.10 107.48 569.57 101.09 564.95 97.33 C 559.77 99.17 557.44 104.90 557.35 110.02 C 557.16 114.13 559.50 117.98 558.77 122.11 C 557.76 128.58 557.87 135.19 556.55 141.61 C 549.17 136.09 550.68 125.69 552.60 117.86 C 549.63 114.71 546.52 110.81 542.02 110.10 C 535.53 110.64 529.11 111.84 522.81 113.45 C 520.00 113.96 517.20 115.08 514.32 114.75 C 510.81 112.07 508.70 107.94 507.01 103.96 C 519.01 100.56 531.53 99.48 543.81 97.47 C 543.76 92.78 545.34 88.36 547.27 84.16 C 544.70 86.69 542.26 89.37 539.39 91.58 C 540.05 84.98 544.71 79.57 545.18 72.91 C 536.99 76.05 532.01 83.95 527.70 91.15 C 527.74 85.41 526.75 79.69 524.24 74.49 C 518.72 79.36 514.25 85.27 510.82 91.78 C 510.34 85.12 511.64 78.50 511.26 71.85 C 504.57 77.98 497.89 84.22 490.05 88.89 M 574.61 160.32 C 574.98 166.14 577.84 171.35 578.80 177.02 C 578.94 183.56 574.77 189.09 571.53 194.43 C 561.49 208.89 549.87 222.17 538.41 235.50 C 536.95 236.81 535.40 239.23 533.15 238.17 C 530.60 234.21 529.56 229.54 527.85 225.20 C 523.18 211.77 518.04 198.49 513.93 184.88 C 507.04 182.99 501.07 178.45 497.95 171.94 C 486.53 176.89 475.85 183.31 464.60 188.61 C 458.18 191.79 451.61 194.74 445.52 198.55 C 441.61 201.14 437.61 204.38 436.18 209.04 C 435.15 212.79 434.80 216.71 433.49 220.39 C 432.09 224.82 429.30 228.78 428.71 233.46 C 427.68 240.90 427.57 248.44 426.82 255.91 C 425.56 269.26 425.41 282.71 423.52 296.01 C 421.95 307.63 418.44 318.86 415.10 330.07 C 414.00 332.80 416.04 335.33 417.65 337.35 C 423.09 343.23 429.67 348.86 437.88 350.05 C 443.65 351.16 449.32 349.20 454.94 348.18 C 456.57 340.40 458.37 332.67 460.21 324.94 C 460.87 322.18 461.56 318.87 459.35 316.59 C 454.16 310.46 448.30 304.87 443.75 298.21 C 441.06 294.36 438.04 290.25 438.25 285.30 C 443.22 291.32 447.32 298.04 453.01 303.47 C 449.76 298.72 446.50 293.85 444.85 288.27 C 442.84 281.38 442.08 274.20 441.38 267.08 C 440.93 260.90 440.22 254.44 442.43 248.49 C 443.60 261.13 443.56 274.15 447.77 286.29 C 451.01 295.59 458.39 302.48 463.10 310.95 C 464.82 314.22 466.68 317.91 465.58 321.70 C 462.37 334.65 459.04 347.65 457.83 360.97 C 457.13 372.28 456.94 383.64 457.84 394.95 C 458.60 408.27 449.87 419.83 449.88 433.05 C 449.69 441.18 451.12 449.53 448.66 457.46 C 445.96 466.24 441.57 474.36 437.68 482.64 C 433.62 490.87 429.20 499.85 431.33 509.30 C 434.07 511.39 436.73 513.68 439.91 515.10 C 449.39 519.29 459.08 523.11 469.09 525.86 C 484.38 529.86 500.17 531.53 515.90 532.59 C 529.12 533.19 542.56 533.43 555.52 530.29 C 565.29 528.33 574.30 523.97 583.72 520.88 C 594.11 517.13 605.15 515.79 616.08 514.61 C 625.84 513.56 635.67 513.15 645.48 513.70 C 647.86 498.15 645.20 482.53 644.17 466.99 C 643.71 456.32 641.48 445.74 642.25 435.02 C 643.25 420.69 643.37 406.31 643.98 391.96 C 644.54 379.09 643.67 365.94 639.10 353.79 C 635.83 345.41 632.83 336.88 631.03 328.04 C 628.29 317.70 625.14 307.46 621.57 297.38 C 619.65 291.66 616.50 286.40 615.06 280.52 C 617.22 281.77 619.11 283.50 620.19 285.79 C 623.59 292.29 626.16 299.19 628.77 306.03 C 628.70 295.36 627.80 284.68 628.37 274.01 C 628.71 272.31 629.12 267.98 631.54 270.44 C 632.43 275.60 632.32 280.89 632.87 286.11 C 634.01 297.96 633.44 309.94 635.32 321.73 C 636.60 331.21 639.36 340.40 642.74 349.33 C 644.94 355.06 646.40 361.05 647.55 367.08 C 652.32 367.18 657.12 367.25 661.86 366.55 C 674.96 365.12 686.95 358.89 697.84 351.79 C 700.86 349.31 705.33 347.33 705.81 342.98 C 706.30 338.36 705.14 333.76 703.53 329.47 C 701.24 323.37 699.32 317.13 696.84 311.10 C 692.00 299.60 689.20 287.40 685.08 275.65 C 679.89 260.46 677.07 244.45 670.09 229.91 C 664.80 219.16 656.40 210.10 646.54 203.38 C 638.93 197.94 630.06 194.74 622.08 189.95 C 612.91 184.52 603.85 178.88 594.80 173.25 C 587.93 169.15 582.36 162.90 574.61 160.32 M 411.69 370.65 C 405.23 379.57 398.96 388.84 395.24 399.29 C 388.54 417.80 385.59 437.49 384.75 457.10 C 384.30 463.90 382.62 470.59 379.97 476.87 C 376.32 486.26 370.63 494.72 367.20 504.21 C 363.36 514.46 366.22 525.57 369.12 535.68 C 370.51 539.41 371.29 543.77 374.34 546.58 C 379.78 549.95 386.39 547.47 392.34 547.52 C 392.63 546.05 392.90 544.57 393.19 543.10 C 387.70 543.78 383.55 539.20 381.04 534.91 C 378.39 529.91 381.19 524.39 382.54 519.45 C 384.45 514.56 384.79 509.27 386.42 504.30 C 387.44 505.63 388.52 507.07 388.33 508.87 C 388.15 514.56 387.18 520.27 388.00 525.96 C 388.69 529.96 391.71 532.91 394.11 535.98 C 397.06 528.17 398.95 519.99 402.40 512.37 C 404.69 506.87 407.24 500.69 405.19 494.71 C 402.92 487.90 404.32 480.51 407.19 474.11 C 414.27 457.98 425.64 444.26 433.74 428.68 C 442.49 413.29 448.74 396.46 451.46 378.94 C 453.38 370.45 452.85 361.68 454.09 353.10 C 451.27 353.94 448.47 354.88 445.57 355.37 C 436.84 356.65 427.79 353.71 421.03 348.17 C 420.05 356.38 416.62 364.06 411.69 370.65 M 674.14 368.09 C 675.20 370.95 675.80 373.95 675.77 377.01 C 675.90 387.02 674.95 397.06 676.03 407.05 C 677.19 421.83 683.70 435.40 687.22 449.66 C 689.99 460.00 692.98 470.74 691.32 481.53 C 690.27 488.20 686.04 493.69 683.88 499.96 C 679.96 511.26 682.10 523.36 681.85 535.04 C 688.42 527.34 684.77 515.75 690.87 507.85 C 692.61 505.61 695.67 506.99 696.95 508.97 C 701.54 515.30 702.15 524.02 698.93 531.10 C 695.41 539.49 687.73 544.82 681.39 550.92 C 686.99 552.11 693.27 551.50 698.00 548.07 C 701.47 544.83 704.15 540.85 706.92 537.02 C 708.08 535.50 709.10 533.46 711.33 533.49 C 711.21 538.26 707.95 542.06 705.70 546.02 C 709.58 543.99 714.02 542.41 716.70 538.73 C 721.26 532.92 724.91 526.34 727.20 519.32 C 729.75 511.06 726.18 502.69 722.74 495.28 C 719.52 488.50 714.00 482.05 714.78 474.08 C 715.80 464.63 718.30 455.41 719.45 445.97 C 724.40 413.43 718.78 379.87 705.75 349.81 C 696.58 357.94 685.56 363.80 674.14 368.09 M 435.25 517.94 C 429.74 530.82 426.64 544.62 424.84 558.47 C 423.48 567.95 424.98 577.58 423.38 587.04 C 421.94 599.28 418.35 611.11 415.30 623.01 C 411.73 635.67 409.01 648.55 405.18 661.13 C 414.21 672.95 427.84 680.06 441.38 685.51 C 451.46 689.55 462.07 693.53 473.11 693.09 C 480.21 691.66 486.61 687.96 493.53 685.85 C 494.06 682.93 494.59 680.02 495.04 677.10 C 496.76 663.81 501.62 651.16 507.37 639.13 C 511.71 629.78 518.17 621.62 524.81 613.81 C 526.56 612.18 528.69 609.11 531.43 610.47 C 533.20 612.49 533.18 615.38 533.45 617.91 C 533.79 627.64 535.43 637.27 535.79 647.00 C 536.23 660.07 536.65 673.29 539.98 686.01 C 540.66 689.49 543.57 691.80 545.98 694.15 C 552.95 699.90 561.66 702.92 570.15 705.67 C 580.20 708.62 590.55 711.27 601.12 710.89 C 606.49 710.76 611.30 708.11 616.17 706.15 C 623.83 702.67 631.58 699.22 638.66 694.63 C 639.15 691.11 639.67 687.58 639.50 684.03 C 638.72 673.04 638.18 662.04 637.32 651.07 C 636.64 637.39 636.53 623.69 636.45 610.00 C 635.93 590.67 636.43 571.25 638.96 552.05 C 639.51 544.70 640.22 537.36 640.82 530.01 C 641.17 526.18 640.47 522.38 639.22 518.77 C 624.92 519.06 610.61 520.23 596.53 522.81 C 584.95 524.90 574.29 530.13 563.03 533.33 C 546.59 538.10 529.26 538.50 512.30 537.15 C 497.27 535.91 482.19 534.20 467.63 530.13 C 456.59 526.78 445.82 522.54 435.25 517.94 M 383.80 527.17 C 383.28 532.68 387.27 536.64 391.43 539.49 C 388.52 535.61 385.79 531.60 383.80 527.17 M 410.36 673.11 C 411.89 685.77 409.69 698.43 406.25 710.60 C 413.53 715.93 422.59 717.69 431.22 719.61 C 440.95 721.41 450.99 723.04 460.87 721.44 C 460.51 713.28 460.73 704.81 464.53 697.38 C 454.77 695.99 445.57 692.31 436.60 688.39 C 427.35 684.23 418.35 679.40 410.36 673.11 M 615.95 710.90 C 611.19 712.91 606.32 715.09 601.05 715.12 C 591.34 715.24 581.77 713.12 572.49 710.45 C 574.69 716.16 576.87 721.88 579.51 727.41 C 583.30 735.58 587.45 743.81 588.45 752.90 C 599.12 756.97 610.91 756.14 622.00 754.57 C 629.98 753.18 638.40 751.52 644.80 746.20 C 640.79 731.25 637.58 716.00 636.45 700.54 C 629.91 704.54 622.96 707.82 615.95 710.90 M 404.71 715.51 C 396.95 738.52 394.65 762.85 392.58 786.91 C 390.48 811.42 391.29 836.10 388.19 860.53 C 387.27 866.17 386.55 871.96 384.07 877.19 C 388.76 881.05 392.03 886.82 398.08 888.85 C 407.07 892.15 417.35 892.40 426.45 889.31 C 427.87 889.04 427.14 887.07 427.47 886.09 C 427.35 868.13 433.06 850.89 438.09 833.86 C 445.20 806.33 456.63 780.03 462.06 752.05 C 463.69 743.26 462.86 734.27 461.43 725.52 C 452.25 727.68 442.72 726.77 433.52 725.30 C 423.51 723.55 413.45 720.83 404.71 715.51 M 635.80 755.83 C 625.54 759.02 614.70 760.10 603.99 759.88 C 598.75 759.78 593.49 759.06 588.61 757.09 C 590.90 790.55 593.30 824.27 601.90 856.81 C 604.25 864.52 605.85 872.41 607.52 880.29 C 610.78 892.33 610.46 904.91 611.90 917.22 C 620.30 908.94 632.78 907.00 644.07 908.60 C 644.27 888.68 647.39 868.94 648.69 849.08 C 649.52 832.74 650.20 816.38 650.16 800.02 C 649.57 783.62 649.79 767.00 645.98 750.93 C 642.86 753.09 639.42 754.72 635.80 755.83 M 339.07 909.09 C 328.19 917.49 316.61 925.21 307.47 935.60 C 316.44 946.00 330.95 948.61 343.98 949.39 C 355.34 950.01 365.30 943.87 375.14 939.14 C 381.38 936.20 387.98 933.79 394.90 933.18 C 401.30 932.46 407.90 933.13 414.14 931.23 C 418.66 929.60 423.24 926.43 424.47 921.52 C 427.03 912.49 426.38 903.01 426.99 893.74 C 416.97 896.06 405.98 896.74 396.29 892.77 C 390.00 890.35 386.10 884.64 381.33 880.23 C 366.15 888.14 352.87 899.08 339.07 909.09 M 629.45 912.66 C 623.82 913.55 618.08 915.87 614.58 920.58 C 610.83 925.44 606.52 930.59 606.28 937.04 C 605.36 946.06 609.79 954.32 611.13 963.05 C 612.34 969.68 611.56 976.90 615.11 982.93 C 617.06 986.49 620.82 988.78 624.85 989.14 C 634.90 990.40 645.27 989.71 655.01 986.86 C 658.73 985.66 663.02 983.30 663.70 979.08 C 664.77 971.70 662.85 964.34 660.73 957.33 C 656.67 944.58 655.50 931.03 650.50 918.57 C 649.40 915.96 647.61 913.27 644.69 912.59 C 639.70 911.35 634.47 911.94 629.45 912.66 Z" />
		<path fill="#020202" opacity="1.00"
			d=" M 495.25 133.96 C 497.65 138.18 501.26 141.29 505.48 143.60 C 506.89 145.86 503.47 145.44 502.14 145.58 C 499.71 145.29 496.46 145.26 495.22 142.72 C 494.02 139.94 495.04 136.83 495.25 133.96 Z" />
		<path fill="#020202" opacity="1.00"
			d=" M 515.97 155.10 C 520.19 154.59 524.42 152.92 528.70 153.72 C 528.68 155.85 526.54 156.26 525.06 157.10 C 522.86 161.70 517.36 161.15 513.14 162.06 C 509.70 162.47 505.74 164.00 503.01 161.04 C 501.73 160.42 500.46 159.77 499.23 159.08 C 504.54 156.78 510.35 156.21 515.97 155.10 Z" />
		<path fill="#020202" opacity="1.00"
			d=" M 646.20 269.95 C 646.42 265.99 646.10 261.81 647.80 258.12 C 650.99 258.20 649.84 261.91 650.25 264.04 C 651.39 285.74 649.17 307.38 648.64 329.05 C 648.53 332.30 648.13 335.57 647.02 338.65 C 644.20 333.24 644.28 326.95 644.21 321.01 C 644.41 303.97 646.06 286.99 646.20 269.95 Z" />
		<path fill="#020202" opacity="1.00"
			d=" M 547.09 305.85 C 548.71 308.65 548.98 311.89 549.45 315.02 C 551.85 330.45 558.28 344.80 563.76 359.30 C 573.60 384.29 582.96 409.60 595.82 433.23 C 600.96 442.51 607.31 451.02 612.89 460.03 C 619.25 470.27 628.43 478.76 632.79 490.20 C 634.68 494.98 635.83 500.57 633.47 505.41 C 632.48 501.40 632.05 497.25 630.57 493.38 C 627.94 486.30 623.38 480.19 618.67 474.37 C 614.43 469.16 610.57 463.65 606.89 458.03 C 602.30 450.98 597.19 444.27 593.03 436.95 C 582.78 418.99 575.15 399.72 567.39 380.60 C 561.05 363.57 553.42 346.95 548.75 329.35 C 547.13 321.71 544.31 313.55 547.09 305.85 Z" />
		<path fill="#020202" opacity="1.00"
			d=" M 565.73 320.65 C 568.94 321.04 569.94 324.27 571.23 326.73 C 578.35 341.79 586.01 356.59 593.64 371.41 C 601.74 386.27 611.68 399.99 620.70 414.28 C 623.70 419.62 627.45 424.79 628.51 430.95 C 623.68 427.77 621.60 422.14 618.32 417.63 C 608.56 403.30 598.29 389.27 589.87 374.08 C 581.24 357.93 573.13 341.46 566.75 324.27 C 566.37 323.07 566.03 321.86 565.73 320.65 Z" />
		<path fill="#020202" opacity="1.00"
			d=" M 451.83 445.29 C 462.43 454.70 472.98 464.42 485.39 471.44 C 498.54 478.98 513.29 482.85 527.66 487.29 C 532.02 488.91 537.21 490.58 539.34 495.12 C 540.45 497.06 538.82 499.05 536.83 499.29 C 530.62 500.45 524.25 500.08 517.97 500.21 C 497.47 500.45 477.09 497.12 457.33 491.84 C 452.16 490.40 446.78 488.91 442.64 485.30 C 450.32 486.18 457.56 489.14 465.16 490.46 C 487.99 495.76 511.59 496.56 534.92 495.65 C 527.98 491.51 519.93 490.07 512.38 487.47 C 498.35 483.02 484.49 477.31 472.77 468.23 C 466.57 463.47 460.73 458.23 455.38 452.53 C 453.40 450.58 452.36 447.97 451.83 445.29 Z" />
		<path fill="#020202" opacity="1.00"
			d=" M 568.30 510.24 C 573.65 509.05 578.82 506.97 584.35 506.71 C 579.48 510.61 573.15 511.63 567.42 513.66 C 548.27 519.91 527.95 521.05 507.95 520.88 C 491.36 520.96 474.77 519.10 458.58 515.51 C 456.30 515.10 454.17 514.11 452.45 512.56 C 460.01 511.93 467.44 513.85 474.94 514.45 C 495.54 517.17 516.42 517.36 537.12 515.71 C 547.66 514.92 558.00 512.55 568.30 510.24 Z" />
	</g>
	<g id="#f0b58bff">
		<path fill="#f0b58b" opacity="1.00"
			d=" M 490.05 88.89 C 497.89 84.22 504.57 77.98 511.26 71.85 C 511.64 78.50 510.34 85.12 510.82 91.78 C 514.25 85.27 518.72 79.36 524.24 74.49 C 526.75 79.69 527.74 85.41 527.70 91.15 C 532.01 83.95 536.99 76.05 545.18 72.91 C 544.71 79.57 540.05 84.98 539.39 91.58 C 542.26 89.37 544.70 86.69 547.27 84.16 C 545.34 88.36 543.76 92.78 543.81 97.47 C 531.53 99.48 519.01 100.56 507.01 103.96 C 508.70 107.94 510.81 112.07 514.32 114.75 C 517.20 115.08 520.00 113.96 522.81 113.45 C 529.11 111.84 535.53 110.64 542.02 110.10 C 546.52 110.81 549.63 114.71 552.60 117.86 C 550.68 125.69 549.17 136.09 556.55 141.61 C 557.87 135.19 557.76 128.58 558.77 122.11 C 559.50 117.98 557.16 114.13 557.35 110.02 C 557.44 104.90 559.77 99.17 564.95 97.33 C 569.57 101.09 570.10 107.48 569.31 112.99 C 568.32 119.65 566.77 126.30 567.12 133.08 C 567.28 138.55 570.18 143.43 570.79 148.83 C 572.21 156.29 569.94 164.09 572.52 171.37 C 573.27 174.11 574.82 176.98 573.79 179.86 C 572.05 185.24 568.75 189.94 565.70 194.65 C 556.22 208.08 545.39 220.47 534.83 233.06 C 529.02 217.10 523.49 201.03 517.12 185.29 C 525.21 184.56 532.52 180.70 538.98 175.99 C 543.80 172.38 549.95 169.88 552.88 164.31 C 548.05 165.93 544.14 169.31 539.66 171.60 C 533.19 175.00 526.62 178.36 519.60 180.43 C 514.42 182.08 509.32 178.71 505.77 175.23 C 501.38 169.72 499.07 162.91 496.52 156.43 C 494.54 151.36 490.99 147.05 489.41 141.81 C 486.83 133.45 485.98 124.65 485.82 115.94 C 489.85 115.40 493.96 115.29 497.91 114.29 C 500.97 113.21 499.34 109.06 497.73 107.31 C 494.31 103.02 488.51 102.83 483.50 102.77 C 482.78 98.47 482.48 94.08 481.11 89.92 C 485.37 85.18 488.19 79.42 492.22 74.52 C 492.39 79.41 491.36 84.21 490.05 88.89 M 495.94 133.21 C 496.84 126.90 500.41 120.62 498.34 114.18 C 495.44 119.79 491.92 127.31 495.94 133.21 M 495.25 133.96 C 495.04 136.83 494.02 139.94 495.22 142.72 C 496.46 145.26 499.71 145.29 502.14 145.58 C 503.47 145.44 506.89 145.86 505.48 143.60 C 501.26 141.29 497.65 138.18 495.25 133.96 M 515.97 155.10 C 510.35 156.21 504.54 156.78 499.23 159.08 C 500.46 159.77 501.73 160.42 503.01 161.04 C 505.74 164.00 509.70 162.47 513.14 162.06 C 517.36 161.15 522.86 161.70 525.06 157.10 C 526.54 156.26 528.68 155.85 528.70 153.72 C 524.42 152.92 520.19 154.59 515.97 155.10 Z" />
		<path fill="#f0b58b" opacity="1.00"
			d=" M 411.69 370.65 C 416.62 364.06 420.05 356.38 421.03 348.17 C 427.79 353.71 436.84 356.65 445.57 355.37 C 448.47 354.88 451.27 353.94 454.09 353.10 C 452.85 361.68 453.38 370.45 451.46 378.94 C 448.74 396.46 442.49 413.29 433.74 428.68 C 425.64 444.26 414.27 457.98 407.19 474.11 C 404.32 480.51 402.92 487.90 405.19 494.71 C 407.24 500.69 404.69 506.87 402.40 512.37 C 398.95 519.99 397.06 528.17 394.11 535.98 C 391.71 532.91 388.69 529.96 388.00 525.96 C 387.18 520.27 388.15 514.56 388.33 508.87 C 388.52 507.07 387.44 505.63 386.42 504.30 C 384.79 509.27 384.45 514.56 382.54 519.45 C 381.19 524.39 378.39 529.91 381.04 534.91 C 383.55 539.20 387.70 543.78 393.19 543.10 C 392.90 544.57 392.63 546.05 392.34 547.52 C 386.39 547.47 379.78 549.95 374.34 546.58 C 371.29 543.77 370.51 539.41 369.12 535.68 C 366.22 525.57 363.36 514.46 367.20 504.21 C 370.63 494.72 376.32 486.26 379.97 476.87 C 382.62 470.59 384.30 463.90 384.75 457.10 C 385.59 437.49 388.54 417.80 395.24 399.29 C 398.96 388.84 405.23 379.57 411.69 370.65 Z" />
		<path fill="#f0b58b" opacity="1.00"
			d=" M 674.14 368.09 C 685.56 363.80 696.58 357.94 705.75 349.81 C 718.78 379.87 724.40 413.43 719.45 445.97 C 718.30 455.41 715.80 464.63 714.78 474.08 C 714.00 482.05 719.52 488.50 722.74 495.28 C 726.18 502.69 729.75 511.06 727.20 519.32 C 724.91 526.34 721.26 532.92 716.70 538.73 C 714.02 542.41 709.58 543.99 705.70 546.02 C 707.95 542.06 711.21 538.26 711.33 533.49 C 709.10 533.46 708.08 535.50 706.92 537.02 C 704.15 540.85 701.47 544.83 698.00 548.07 C 693.27 551.50 686.99 552.11 681.39 550.92 C 687.73 544.82 695.41 539.49 698.93 531.10 C 702.15 524.02 701.54 515.30 696.95 508.97 C 695.67 506.99 692.61 505.61 690.87 507.85 C 684.77 515.75 688.42 527.34 681.85 535.04 C 682.10 523.36 679.96 511.26 683.88 499.96 C 686.04 493.69 690.27 488.20 691.32 481.53 C 692.98 470.74 689.99 460.00 687.22 449.66 C 683.70 435.40 677.19 421.83 676.03 407.05 C 674.95 397.06 675.90 387.02 675.77 377.01 C 675.80 373.95 675.20 370.95 674.14 368.09 Z" />
		<path fill="#f0b58b" opacity="1.00"
			d=" M 410.36 673.11 C 418.35 679.40 427.35 684.23 436.60 688.39 C 445.57 692.31 454.77 695.99 464.53 697.38 C 460.73 704.81 460.51 713.28 460.87 721.44 C 450.99 723.04 440.95 721.41 431.22 719.61 C 422.59 717.69 413.53 715.93 406.25 710.60 C 409.69 698.43 411.89 685.77 410.36 673.11 Z" />
		<path fill="#f0b58b" opacity="1.00"
			d=" M 615.95 710.90 C 622.96 707.82 629.91 704.54 636.45 700.54 C 637.58 716.00 640.79 731.25 644.80 746.20 C 638.40 751.52 629.98 753.18 622.00 754.57 C 610.91 756.14 599.12 756.97 588.45 752.90 C 587.45 743.81 583.30 735.58 579.51 727.41 C 576.87 721.88 574.69 716.16 572.49 710.45 C 581.77 713.12 591.34 715.24 601.05 715.12 C 606.32 715.09 611.19 712.91 615.95 710.90 Z" />
	</g>
	<g id="#010101fc">
		<path fill="#010101" opacity="1.00"
			d=" M 495.94 133.21 C 491.92 127.31 495.44 119.79 498.34 114.18 C 500.41 120.62 496.84 126.90 495.94 133.21 Z" />
	</g>
	<g id="#f11b27ff">
		<path fill="var(--shirt-color, grey)" opacity="1.00"
			d=" M 574.61 160.32 C 582.36 162.90 587.93 169.15 594.80 173.25 C 603.85 178.88 612.91 184.52 622.08 189.95 C 630.06 194.74 638.93 197.94 646.54 203.38 C 656.40 210.10 664.80 219.16 670.09 229.91 C 677.07 244.45 679.89 260.46 685.08 275.65 C 689.20 287.40 692.00 299.60 696.84 311.10 C 699.32 317.13 701.24 323.37 703.53 329.47 C 705.14 333.76 706.30 338.36 705.81 342.98 C 705.33 347.33 700.86 349.31 697.84 351.79 C 686.95 358.89 674.96 365.12 661.86 366.55 C 657.12 367.25 652.32 367.18 647.55 367.08 C 646.40 361.05 644.94 355.06 642.74 349.33 C 639.36 340.40 636.60 331.21 635.32 321.73 C 633.44 309.94 634.01 297.96 632.87 286.11 C 632.32 280.89 632.43 275.60 631.54 270.44 C 629.12 267.98 628.71 272.31 628.37 274.01 C 627.80 284.68 628.70 295.36 628.77 306.03 C 626.16 299.19 623.59 292.29 620.19 285.79 C 619.11 283.50 617.22 281.77 615.06 280.52 C 616.50 286.40 619.65 291.66 621.57 297.38 C 625.14 307.46 628.29 317.70 631.03 328.04 C 632.83 336.88 635.83 345.41 639.10 353.79 C 643.67 365.94 644.54 379.09 643.98 391.96 C 643.37 406.31 643.25 420.69 642.25 435.02 C 641.48 445.74 643.71 456.32 644.17 466.99 C 645.20 482.53 647.86 498.15 645.48 513.70 C 635.67 513.15 625.84 513.56 616.08 514.61 C 605.15 515.79 594.11 517.13 583.72 520.88 C 574.30 523.97 565.29 528.33 555.52 530.29 C 542.56 533.43 529.12 533.19 515.90 532.59 C 500.17 531.53 484.38 529.86 469.09 525.86 C 459.08 523.11 449.39 519.29 439.91 515.10 C 436.73 513.68 434.07 511.39 431.33 509.30 C 429.20 499.85 433.62 490.87 437.68 482.64 C 441.57 474.36 445.96 466.24 448.66 457.46 C 451.12 449.53 449.69 441.18 449.88 433.05 C 449.87 419.83 458.60 408.27 457.84 394.95 C 456.94 383.64 457.13 372.28 457.83 360.97 C 459.04 347.65 462.37 334.65 465.58 321.70 C 466.68 317.91 464.82 314.22 463.10 310.95 C 458.39 302.48 451.01 295.59 447.77 286.29 C 443.56 274.15 443.60 261.13 442.43 248.49 C 440.22 254.44 440.93 260.90 441.38 267.08 C 442.08 274.20 442.84 281.38 444.85 288.27 C 446.50 293.85 449.76 298.72 453.01 303.47 C 447.32 298.04 443.22 291.32 438.25 285.30 C 438.04 290.25 441.06 294.36 443.75 298.21 C 448.30 304.87 454.16 310.46 459.35 316.59 C 461.56 318.87 460.87 322.18 460.21 324.94 C 458.37 332.67 456.57 340.40 454.94 348.18 C 449.32 349.20 443.65 351.16 437.88 350.05 C 429.67 348.86 423.09 343.23 417.65 337.35 C 416.04 335.33 414.00 332.80 415.10 330.07 C 418.44 318.86 421.95 307.63 423.52 296.01 C 425.41 282.71 425.56 269.26 426.82 255.91 C 427.57 248.44 427.68 240.90 428.71 233.46 C 429.30 228.78 432.09 224.82 433.49 220.39 C 434.80 216.71 435.15 212.79 436.18 209.04 C 437.61 204.38 441.61 201.14 445.52 198.55 C 451.61 194.74 458.18 191.79 464.60 188.61 C 475.85 183.31 486.53 176.89 497.95 171.94 C 501.07 178.45 507.04 182.99 513.93 184.88 C 518.04 198.49 523.18 211.77 527.85 225.20 C 529.56 229.54 530.60 234.21 533.15 238.17 C 535.40 239.23 536.95 236.81 538.41 235.50 C 549.87 222.17 561.49 208.89 571.53 194.43 C 574.77 189.09 578.94 183.56 578.80 177.02 C 577.84 171.35 574.98 166.14 574.61 160.32 M 646.20 269.95 C 646.06 286.99 644.41 303.97 644.21 321.01 C 644.28 326.95 644.20 333.24 647.02 338.65 C 648.13 335.57 648.53 332.30 648.64 329.05 C 649.17 307.38 651.39 285.74 650.25 264.04 C 649.84 261.91 650.99 258.20 647.80 258.12 C 646.10 261.81 646.42 265.99 646.20 269.95 M 547.09 305.85 C 544.31 313.55 547.13 321.71 548.75 329.35 C 553.42 346.95 561.05 363.57 567.39 380.60 C 575.15 399.72 582.78 418.99 593.03 436.95 C 597.19 444.27 602.30 450.98 606.89 458.03 C 610.57 463.65 614.43 469.16 618.67 474.37 C 623.38 480.19 627.94 486.30 630.57 493.38 C 632.05 497.25 632.48 501.40 633.47 505.41 C 635.83 500.57 634.68 494.98 632.79 490.20 C 628.43 478.76 619.25 470.27 612.89 460.03 C 607.31 451.02 600.96 442.51 595.82 433.23 C 582.96 409.60 573.60 384.29 563.76 359.30 C 558.28 344.80 551.85 330.45 549.45 315.02 C 548.98 311.89 548.71 308.65 547.09 305.85 M 565.73 320.65 C 566.03 321.86 566.37 323.07 566.75 324.27 C 573.13 341.46 581.24 357.93 589.87 374.08 C 598.29 389.27 608.56 403.30 618.32 417.63 C 621.60 422.14 623.68 427.77 628.51 430.95 C 627.45 424.79 623.70 419.62 620.70 414.28 C 611.68 399.99 601.74 386.27 593.64 371.41 C 586.01 356.59 578.35 341.79 571.23 326.73 C 569.94 324.27 568.94 321.04 565.73 320.65 M 451.83 445.29 C 452.36 447.97 453.40 450.58 455.38 452.53 C 460.73 458.23 466.57 463.47 472.77 468.23 C 484.49 477.31 498.35 483.02 512.38 487.47 C 519.93 490.07 527.98 491.51 534.92 495.65 C 511.59 496.56 487.99 495.76 465.16 490.46 C 457.56 489.14 450.32 486.18 442.64 485.30 C 446.78 488.91 452.16 490.40 457.33 491.84 C 477.09 497.12 497.47 500.45 517.97 500.21 C 524.25 500.08 530.62 500.45 536.83 499.29 C 538.82 499.05 540.45 497.06 539.34 495.12 C 537.21 490.58 532.02 488.91 527.66 487.29 C 513.29 482.85 498.54 478.98 485.39 471.44 C 472.98 464.42 462.43 454.70 451.83 445.29 M 568.30 510.24 C 558.00 512.55 547.66 514.92 537.12 515.71 C 516.42 517.36 495.54 517.17 474.94 514.45 C 467.44 513.85 460.01 511.93 452.45 512.56 C 454.17 514.11 456.30 515.10 458.58 515.51 C 474.77 519.10 491.36 520.96 507.95 520.88 C 527.95 521.05 548.27 519.91 567.42 513.66 C 573.15 511.63 579.48 510.61 584.35 506.71 C 578.82 506.97 573.65 509.05 568.30 510.24 Z" />
	</g>
	<g id="#ffffffff">
		<path fill="var(--pants-color, grey)" opacity="1.00"
			d=" M 435.25 517.94 C 445.82 522.54 456.59 526.78 467.63 530.13 C 482.19 534.20 497.27 535.91 512.30 537.15 C 529.26 538.50 546.59 538.10 563.03 533.33 C 574.29 530.13 584.95 524.90 596.53 522.81 C 610.61 520.23 624.92 519.06 639.22 518.77 C 640.47 522.38 641.17 526.18 640.82 530.01 C 640.22 537.36 639.51 544.70 638.96 552.05 C 636.43 571.25 635.93 590.67 636.45 610.00 C 636.53 623.69 636.64 637.39 637.32 651.07 C 638.18 662.04 638.72 673.04 639.50 684.03 C 639.67 687.58 639.15 691.11 638.66 694.63 C 631.58 699.22 623.83 702.67 616.17 706.15 C 611.30 708.11 606.49 710.76 601.12 710.89 C 590.55 711.27 580.20 708.62 570.15 705.67 C 561.66 702.92 552.95 699.90 545.98 694.15 C 543.57 691.80 540.66 689.49 539.98 686.01 C 536.65 673.29 536.23 660.07 535.79 647.00 C 535.43 637.27 533.79 627.64 533.45 617.91 C 533.18 615.38 533.20 612.49 531.43 610.47 C 528.69 609.11 526.56 612.18 524.81 613.81 C 518.17 621.62 511.71 629.78 507.37 639.13 C 501.62 651.16 496.76 663.81 495.04 677.10 C 494.59 680.02 494.06 682.93 493.53 685.85 C 486.61 687.96 480.21 691.66 473.11 693.09 C 462.07 693.53 451.46 689.55 441.38 685.51 C 427.84 680.06 414.21 672.95 405.18 661.13 C 409.01 648.55 411.73 635.67 415.30 623.01 C 418.35 611.11 421.94 599.28 423.38 587.04 C 424.98 577.58 423.48 567.95 424.84 558.47 C 426.64 544.62 429.74 530.82 435.25 517.94 Z" />
		<path fill="var(--socks-color, grey)" opacity="1.00"
			d=" M 404.71 715.51 C 413.45 720.83 423.51 723.55 433.52 725.30 C 442.72 726.77 452.25 727.68 461.43 725.52 C 462.86 734.27 463.69 743.26 462.06 752.05 C 456.63 780.03 445.20 806.33 438.09 833.86 C 433.06 850.89 427.35 868.13 427.47 886.09 C 427.14 887.07 427.87 889.04 426.45 889.31 C 417.35 892.40 407.07 892.15 398.08 888.85 C 392.03 886.82 388.76 881.05 384.07 877.19 C 386.55 871.96 387.27 866.17 388.19 860.53 C 391.29 836.10 390.48 811.42 392.58 786.91 C 394.65 762.85 396.95 738.52 404.71 715.51 Z" />
		<path fill="var(--socks-color, grey)" opacity="1.00"
			d=" M 635.80 755.83 C 639.42 754.72 642.86 753.09 645.98 750.93 C 649.79 767.00 649.57 783.62 650.16 800.02 C 650.20 816.38 649.52 832.74 648.69 849.08 C 647.39 868.94 644.27 888.68 644.07 908.60 C 632.78 907.00 620.30 908.94 611.90 917.22 C 610.46 904.91 610.78 892.33 607.52 880.29 C 605.85 872.41 604.25 864.52 601.90 856.81 C 593.30 824.27 590.90 790.55 588.61 757.09 C 593.49 759.06 598.75 759.78 603.99 759.88 C 614.70 760.10 625.54 759.02 635.80 755.83 Z" />
	</g>
	<g id="#4d4d4dff">
		<path fill="#4d4d4d" opacity="1.00"
			d=" M 339.07 909.09 C 352.87 899.08 366.15 888.14 381.33 880.23 C 386.10 884.64 390.00 890.35 396.29 892.77 C 405.98 896.74 416.97 896.06 426.99 893.74 C 426.38 903.01 427.03 912.49 424.47 921.52 C 423.24 926.43 418.66 929.60 414.14 931.23 C 407.90 933.13 401.30 932.46 394.90 933.18 C 387.98 933.79 381.38 936.20 375.14 939.14 C 365.30 943.87 355.34 950.01 343.98 949.39 C 330.95 948.61 316.44 946.00 307.47 935.60 C 316.61 925.21 328.19 917.49 339.07 909.09 Z" />
		<path fill="#4d4d4d" opacity="1.00"
			d=" M 629.45 912.66 C 634.47 911.94 639.70 911.35 644.69 912.59 C 647.61 913.27 649.40 915.96 650.50 918.57 C 655.50 931.03 656.67 944.58 660.73 957.33 C 662.85 964.34 664.77 971.70 663.70 979.08 C 663.02 983.30 658.73 985.66 655.01 986.86 C 645.27 989.71 634.90 990.40 624.85 989.14 C 620.82 988.78 617.06 986.49 615.11 982.93 C 611.56 976.90 612.34 969.68 611.13 963.05 C 609.79 954.32 605.36 946.06 606.28 937.04 C 606.52 930.59 610.83 925.44 614.58 920.58 C 618.08 915.87 623.82 913.55 629.45 912.66 Z" />
	</g>
</svg>