<?xml version="1.0" encoding="UTF-8" ?>
<!DOCTYPE svg PUBLIC "-//W3C//DTD SVG 1.1//EN" "http://www.w3.org/Graphics/SVG/1.1/DTD/svg11.dtd">
<svg width="1000pt" height="1000pt" viewBox="0 0 1000 1000" version="1.1" xmlns="http://www.w3.org/2000/svg">
	<g id="#020202ff">
		<path fill="#020202" opacity="1.00"
			d=" M 406.28 57.16 C 420.01 35.38 449.49 26.41 473.53 34.47 C 482.11 37.28 488.55 44.19 493.56 51.42 C 498.06 58.49 500.78 66.72 501.38 75.08 C 501.33 76.47 501.92 78.67 499.88 78.77 C 498.13 78.57 496.47 77.94 494.81 77.40 C 496.30 84.77 497.09 92.25 497.72 99.72 C 498.67 110.30 499.78 121.11 497.32 131.58 C 495.36 139.50 493.37 147.48 490.09 154.99 C 498.78 156.63 506.42 161.37 513.61 166.28 C 520.73 171.11 526.82 177.23 533.83 182.20 C 539.44 186.25 544.85 190.70 550.92 194.04 C 560.22 196.95 568.38 203.71 572.19 212.77 C 576.59 224.92 582.87 236.29 589.50 247.36 C 596.26 258.49 602.08 270.34 610.76 280.18 C 613.70 283.33 616.06 286.98 617.39 291.10 C 613.45 295.05 607.65 295.53 602.58 297.07 C 604.00 311.99 609.62 326.00 612.62 340.60 C 615.60 352.58 619.36 365.36 615.50 377.59 C 614.42 380.92 612.32 385.38 608.04 384.54 C 593.04 381.86 577.79 380.88 562.60 379.89 C 564.11 396.32 563.64 412.86 564.73 429.33 C 565.11 433.30 564.48 437.44 565.76 441.29 C 573.35 456.68 574.10 474.23 575.09 491.05 C 575.49 502.39 575.75 513.77 574.64 525.08 C 574.00 530.83 576.56 536.27 576.72 541.98 C 577.25 555.62 577.52 569.28 577.49 582.94 C 577.65 609.47 583.11 635.57 588.68 661.39 C 589.55 663.73 588.20 665.93 586.36 667.32 C 580.09 672.60 572.45 675.83 565.08 679.27 C 565.96 692.15 564.41 705.06 565.02 717.96 C 565.41 723.32 564.67 728.97 566.99 734.01 C 572.83 747.94 579.49 761.62 583.56 776.22 C 589.50 798.10 587.95 820.94 588.52 843.35 C 588.88 855.92 588.40 868.57 590.39 881.03 C 592.10 894.39 596.25 907.28 598.65 920.50 C 599.19 925.86 599.95 931.19 601.35 936.40 C 603.89 946.39 603.70 956.76 603.71 966.99 C 603.50 973.60 602.14 981.27 596.16 985.16 C 585.39 991.78 572.64 994.97 560.04 995.04 C 552.19 994.83 543.80 992.55 538.33 986.60 C 535.26 983.21 535.89 978.28 536.51 974.15 C 539.40 958.27 543.98 942.73 549.81 927.69 C 552.97 920.48 550.68 912.59 550.17 905.10 C 548.55 884.92 544.92 864.91 539.47 845.41 C 537.75 838.60 535.18 832.05 532.23 825.69 C 529.08 818.98 527.53 811.71 525.21 804.71 C 521.79 793.46 519.52 781.86 518.47 770.15 C 517.74 763.47 517.06 756.65 514.68 750.32 C 511.73 743.82 507.19 738.18 504.24 731.68 C 501.52 725.15 500.96 718.02 500.15 711.07 C 498.97 697.67 492.75 685.49 489.90 672.46 C 487.94 670.73 485.06 669.54 484.21 666.90 C 479.42 645.62 472.62 624.58 461.81 605.55 C 458.30 610.17 456.25 615.65 453.82 620.88 C 449.96 629.38 448.59 638.84 444.01 647.04 C 443.20 648.41 441.60 648.95 440.18 649.42 C 433.58 651.26 426.72 652.04 419.88 651.73 C 415.85 659.61 411.91 667.56 409.08 675.96 C 407.55 679.91 408.20 684.75 411.07 687.95 C 416.89 694.94 421.51 702.80 426.84 710.15 C 434.87 721.51 441.57 733.98 445.43 747.39 C 449.31 763.50 452.72 779.75 457.66 795.59 C 460.65 805.72 465.81 815.18 472.95 822.99 C 482.17 835.09 495.79 842.89 504.79 855.21 C 508.34 859.52 511.44 865.28 509.10 870.94 C 502.27 887.74 484.43 896.09 475.34 911.28 C 470.02 923.87 463.06 935.82 454.69 946.64 C 448.18 955.33 437.76 960.45 427.11 961.68 C 422.82 962.34 418.05 962.13 414.41 959.51 C 411.94 957.37 410.37 954.20 409.96 950.98 C 409.73 946.05 412.25 941.61 414.34 937.32 C 420.40 923.96 428.37 911.31 431.65 896.83 C 434.83 881.54 438.10 865.92 436.31 850.23 C 435.96 847.70 435.18 845.23 433.91 843.02 C 429.04 834.54 422.04 827.62 415.76 820.22 C 409.08 812.23 402.22 804.38 396.27 795.82 C 387.00 784.25 378.55 771.85 373.07 757.99 C 367.89 746.32 364.90 733.68 358.47 722.57 C 351.89 712.22 341.64 703.85 338.50 691.57 C 334.93 676.23 336.83 660.33 339.52 645.03 C 336.53 643.96 334.48 641.30 334.78 638.03 C 335.05 628.04 337.00 618.19 338.26 608.29 C 340.27 595.05 341.96 581.75 343.74 568.48 C 344.69 560.88 346.84 553.48 349.28 546.24 C 351.95 538.62 357.65 532.72 362.11 526.15 C 365.19 521.82 367.92 517.26 370.76 512.78 C 372.97 509.64 372.44 505.61 373.01 502.01 C 374.19 493.41 373.13 484.68 374.61 476.12 C 375.77 468.77 376.83 461.40 377.24 453.96 C 377.90 442.85 380.88 432.07 382.58 421.10 C 384.18 405.97 385.94 390.65 384.17 375.45 C 379.20 383.24 372.25 389.43 366.32 396.44 C 361.06 402.58 355.81 408.87 352.15 416.12 C 351.12 418.39 349.72 420.80 350.24 423.40 C 350.96 427.48 351.33 431.66 352.66 435.61 C 354.02 439.01 357.31 442.08 356.19 446.06 C 354.94 449.51 350.79 452.24 347.13 450.82 C 345.13 450.08 343.45 448.74 341.69 447.59 C 337.04 453.21 332.86 459.21 328.16 464.80 C 329.73 466.98 331.70 469.10 332.06 471.90 C 332.54 474.57 331.40 477.14 330.58 479.63 C 334.13 482.77 337.22 487.04 336.98 492.00 C 337.10 494.54 336.23 498.45 332.94 498.20 C 329.67 497.45 327.22 494.96 324.58 493.07 C 320.81 493.14 316.54 494.04 313.23 491.76 C 309.31 489.01 308.91 483.86 307.61 479.64 C 305.36 472.70 306.99 465.32 305.98 458.23 C 304.27 454.83 302.02 451.15 303.43 447.19 C 307.86 431.19 319.84 418.99 327.66 404.70 C 331.75 397.41 332.94 389.01 333.86 380.83 C 336.12 365.63 338.43 350.04 345.20 336.08 C 349.33 328.97 353.26 321.71 356.30 314.05 C 353.68 310.46 350.99 306.83 349.32 302.68 C 348.53 301.07 349.40 299.38 349.75 297.80 C 354.43 281.26 353.75 263.79 351.11 246.97 C 349.67 239.76 349.29 232.39 349.37 225.06 C 349.44 219.13 352.12 213.72 354.48 208.43 C 358.94 198.99 367.60 192.17 376.96 187.96 C 384.82 184.40 392.98 181.54 400.74 177.75 C 407.84 174.36 415.75 171.24 420.34 164.48 C 418.23 152.60 418.24 140.39 415.22 128.68 C 414.54 124.96 411.07 122.90 409.05 119.98 C 400.83 108.92 398.71 94.52 399.67 81.08 C 400.48 72.84 401.63 64.23 406.28 57.16 M 480.78 64.67 C 483.67 69.36 482.09 75.25 485.08 79.90 C 476.48 79.94 471.34 71.78 464.07 68.45 C 464.19 73.65 465.62 78.65 466.55 83.73 C 459.07 79.66 454.58 71.86 447.08 67.81 C 447.80 71.96 448.53 76.13 448.52 80.36 C 442.93 75.76 437.01 71.24 429.89 69.33 C 431.98 73.90 434.62 78.29 435.54 83.31 C 432.76 81.52 430.10 79.56 427.29 77.82 C 429.99 82.31 432.12 87.14 433.26 92.27 C 444.97 90.19 456.95 89.20 468.81 90.48 C 470.02 90.53 471.80 91.40 471.39 92.90 C 470.77 96.77 469.49 100.84 466.72 103.73 C 455.90 104.79 444.13 102.12 433.85 106.87 C 432.34 117.24 432.88 127.70 432.80 138.14 C 431.62 137.76 430.32 137.43 429.82 136.15 C 426.25 129.86 426.88 122.33 424.62 115.61 C 422.53 108.77 423.67 100.26 418.09 94.94 C 415.86 96.76 413.63 98.97 413.19 101.96 C 412.23 108.89 414.67 115.87 418.39 121.65 C 420.76 125.29 421.06 129.73 421.64 133.92 C 422.59 143.21 423.99 152.45 424.74 161.76 C 425.32 169.86 425.98 178.05 428.05 185.93 C 431.11 194.63 434.16 203.33 436.72 212.20 C 455.53 200.64 474.71 188.46 488.19 170.57 C 486.47 168.13 485.40 165.34 484.98 162.40 C 477.33 170.41 464.75 170.40 455.30 165.84 C 449.54 162.99 443.33 160.42 439.10 155.37 C 439.49 155.31 440.27 155.17 440.66 155.11 C 449.66 160.92 460.02 166.04 471.04 165.16 C 477.37 164.66 483.17 160.48 485.77 154.71 C 490.55 144.52 492.13 133.24 493.57 122.19 C 495.25 114.96 493.94 107.56 493.33 100.29 C 488.48 101.17 483.71 102.46 478.99 103.87 C 478.58 106.53 478.12 109.18 477.53 111.80 C 475.47 108.71 474.71 104.72 475.20 101.09 C 477.18 97.24 479.27 93.34 481.97 89.95 C 485.00 88.38 488.47 88.04 491.74 87.22 C 491.02 81.84 489.85 76.52 489.64 71.08 C 487.26 68.23 484.14 66.17 480.78 64.67 M 488.30 158.40 C 488.07 161.64 488.23 164.95 489.77 167.89 C 491.28 166.60 491.96 163.09 494.44 163.84 C 494.12 168.55 490.68 172.30 488.08 176.01 C 474.24 193.67 454.67 205.29 435.95 217.03 C 430.93 207.75 427.68 197.66 424.33 187.69 C 422.38 181.97 421.23 176.02 420.35 170.05 C 411.80 177.68 401.22 182.30 390.87 186.91 C 382.50 190.57 373.47 193.44 366.56 199.68 C 359.89 205.39 355.82 213.59 353.70 221.98 C 352.71 231.43 354.05 240.97 355.84 250.25 C 357.14 257.18 356.86 264.30 357.87 271.24 C 363.73 284.66 374.99 294.87 380.67 308.42 C 379.95 303.90 378.95 299.38 376.86 295.28 C 370.98 283.52 364.39 271.95 360.91 259.18 C 359.76 254.52 358.99 249.78 358.34 245.03 C 358.27 243.43 357.59 240.92 360.02 240.99 C 362.78 245.66 363.13 251.23 364.69 256.34 C 368.61 269.70 375.49 281.90 381.50 294.38 C 385.01 301.72 385.54 309.96 385.73 317.95 C 386.86 331.27 386.82 344.65 387.05 358.00 C 386.29 369.08 393.18 378.50 398.51 387.58 C 403.97 397.12 411.11 405.50 417.98 414.02 C 427.65 426.28 438.27 437.76 449.58 448.51 C 457.11 455.73 466.04 461.26 473.67 468.35 C 474.87 469.22 475.17 470.67 475.45 472.04 C 470.46 470.33 466.76 466.39 462.39 463.61 C 438.14 447.20 419.50 424.13 402.22 400.83 C 397.23 393.82 393.02 386.31 388.76 378.84 C 389.70 385.21 388.85 391.61 388.94 397.99 C 391.08 408.65 397.67 417.61 403.48 426.55 C 417.23 446.36 429.89 466.88 442.75 487.26 C 445.01 491.01 448.03 494.34 449.55 498.51 C 446.21 497.00 444.01 494.00 441.87 491.16 C 431.57 476.96 422.19 462.13 412.63 447.42 C 404.39 434.40 394.81 422.15 388.08 408.22 C 387.48 422.67 383.17 436.55 381.37 450.82 C 380.45 462.22 378.92 473.58 378.19 484.99 C 378.57 493.19 377.64 501.36 376.20 509.42 C 393.65 509.69 409.35 518.07 424.75 525.31 C 439.69 531.60 455.62 536.48 471.97 536.45 C 486.37 536.50 500.74 535.23 515.07 533.91 C 528.42 533.12 541.61 530.59 555.00 530.33 C 560.00 530.29 564.99 529.89 569.99 529.59 C 571.63 504.27 571.51 478.40 565.23 453.66 C 561.46 438.72 549.76 428.04 540.96 416.02 C 534.48 407.48 527.73 399.13 521.78 390.21 C 521.06 388.98 519.82 387.74 520.51 386.22 C 523.28 386.02 525.07 388.41 526.66 390.31 C 538.00 404.51 549.60 418.51 560.58 433.00 C 558.58 415.27 559.18 397.41 558.88 379.61 C 553.81 379.29 548.73 379.02 543.72 378.11 C 526.74 375.09 511.23 367.13 494.90 361.90 C 489.36 360.56 483.68 362.09 478.13 362.61 C 461.96 364.21 445.73 365.55 429.76 368.67 C 425.11 369.18 419.68 370.26 415.56 367.46 C 412.93 365.47 414.07 361.83 416.46 360.20 C 414.19 359.95 411.00 360.70 409.68 358.28 C 408.43 355.96 410.19 353.66 411.32 351.73 C 409.50 350.94 407.33 350.14 406.86 347.95 C 405.83 345.19 407.97 342.67 409.97 341.06 C 416.76 335.65 425.21 333.07 433.22 330.08 C 428.23 329.38 423.06 328.97 418.12 330.21 C 411.81 332.31 407.46 338.27 400.93 339.83 C 396.72 340.67 394.19 335.67 395.44 332.14 C 396.94 327.27 401.34 324.08 405.34 321.28 C 411.68 316.92 419.80 317.21 427.15 317.63 C 422.81 314.87 417.20 311.74 416.76 306.02 C 416.65 302.89 417.03 298.75 420.30 297.29 C 421.81 296.78 422.95 298.07 424.03 298.89 C 427.68 302.06 431.62 304.94 435.99 307.04 C 440.81 309.44 446.22 310.41 450.91 313.09 C 458.26 317.22 464.35 323.21 471.61 327.47 C 477.78 330.95 485.07 331.32 491.99 331.62 C 500.67 331.87 509.34 332.48 517.99 333.25 C 529.58 334.34 541.23 333.69 552.84 333.94 C 550.78 330.77 549.01 327.42 547.52 323.95 C 544.30 323.13 541.11 321.70 539.03 319.01 C 534.30 312.97 532.24 305.38 528.16 298.95 C 524.63 293.12 519.01 288.50 517.14 281.72 C 515.67 275.43 515.39 268.61 517.16 262.35 C 518.81 265.67 518.52 269.47 519.04 273.05 C 519.41 276.97 520.46 280.79 522.00 284.41 C 524.72 273.74 533.15 266.14 540.85 258.87 C 543.66 256.39 546.41 253.23 550.42 252.94 C 542.85 260.56 535.23 268.23 529.18 277.15 C 527.06 280.42 525.43 284.12 525.11 288.04 C 527.81 292.22 531.36 295.84 533.55 300.37 C 537.36 307.34 539.34 315.98 546.36 320.60 C 552.29 315.32 558.51 310.28 565.61 306.64 C 580.70 298.65 597.12 293.37 613.79 289.82 C 610.31 285.43 606.39 281.42 602.97 276.99 C 597.01 269.33 592.44 260.74 587.47 252.43 C 582.73 244.38 577.78 236.41 574.19 227.76 C 569.97 219.10 566.51 209.39 558.56 203.35 C 550.78 197.29 540.50 196.72 531.05 196.12 C 518.92 194.99 506.79 196.75 494.67 196.86 C 496.04 194.09 499.42 194.22 502.02 193.61 C 514.90 191.59 528.02 191.14 541.00 192.35 C 535.38 188.97 530.27 184.82 525.06 180.84 C 514.12 171.56 502.41 162.17 488.30 158.40 M 357.54 278.76 C 356.78 286.59 354.59 294.18 353.03 301.88 C 359.72 313.72 369.46 324.47 381.98 330.18 C 381.14 323.55 382.17 316.33 378.57 310.37 C 372.91 298.96 363.73 289.84 357.54 278.76 M 549.86 321.84 C 552.26 325.92 554.63 330.02 557.29 333.94 C 568.00 333.92 579.00 333.30 589.31 336.76 C 590.93 337.18 592.26 338.17 593.38 339.41 C 588.28 338.60 583.23 337.32 578.03 337.32 C 555.01 336.70 531.90 339.22 508.94 336.75 C 495.87 335.51 482.17 336.51 469.89 331.09 C 462.54 327.01 456.59 320.89 449.41 316.55 C 444.82 313.73 439.41 312.80 434.64 310.36 C 429.57 307.96 425.17 304.43 420.87 300.88 C 420.68 303.57 419.83 306.79 421.94 308.99 C 425.22 312.65 429.48 315.60 434.29 316.81 C 436.20 317.49 438.97 317.50 439.26 320.08 C 430.37 321.77 421.13 320.15 412.36 322.51 C 407.83 324.12 404.03 327.39 400.87 330.93 C 399.41 332.37 399.35 334.44 399.51 336.36 C 406.05 334.03 410.59 328.11 417.28 326.13 C 424.15 324.49 431.33 325.47 438.11 327.06 C 439.42 327.41 441.46 327.85 440.72 329.68 C 438.89 331.42 436.46 332.28 434.19 333.28 C 426.94 336.38 419.38 339.12 413.00 343.86 C 411.65 344.74 410.78 346.11 410.35 347.65 C 414.68 347.78 419.08 347.00 422.89 344.88 C 429.72 341.76 436.47 337.88 444.07 337.08 C 443.95 337.50 443.69 338.35 443.57 338.78 C 439.85 341.12 435.62 342.57 431.84 344.84 C 425.59 348.40 418.66 351.09 413.42 356.16 C 422.06 356.02 430.14 352.62 438.44 350.66 C 440.57 350.12 442.78 350.33 444.93 350.62 C 443.54 352.08 441.97 353.45 439.98 353.99 C 432.20 356.47 424.21 359.15 417.77 364.37 C 423.43 365.97 429.22 364.42 434.81 363.37 C 449.01 360.84 463.43 359.93 477.79 358.81 C 483.48 358.26 489.22 357.50 494.94 358.08 C 513.82 363.10 531.35 373.25 551.09 374.86 C 559.65 375.40 568.19 376.18 576.75 376.69 C 587.23 377.52 597.60 379.35 608.01 380.76 C 610.86 381.45 611.18 377.91 611.88 376.03 C 615.08 363.69 610.88 351.11 607.97 339.14 C 605.11 325.46 599.66 312.25 599.17 298.15 C 581.61 303.38 564.80 311.19 549.86 321.84 M 358.86 316.96 C 356.03 327.82 348.39 336.51 345.20 347.20 C 341.22 360.56 338.92 374.35 336.91 388.12 C 335.85 394.64 333.68 400.96 330.99 406.97 C 323.35 421.24 310.88 432.97 306.63 448.97 C 306.12 451.25 307.56 453.30 308.77 455.10 C 314.37 463.05 320.14 470.92 326.69 478.13 C 327.51 475.54 328.63 472.48 326.95 469.98 C 323.78 465.29 320.05 460.68 318.74 455.05 C 318.69 449.69 320.19 444.26 322.75 439.57 C 323.24 437.83 326.27 437.67 325.74 439.88 C 325.09 444.67 322.70 449.11 322.49 453.99 C 322.95 456.71 324.53 459.07 325.76 461.50 C 329.89 455.82 334.59 450.59 339.14 445.24 C 337.65 442.87 334.82 440.15 336.53 437.15 C 339.50 441.50 343.12 445.80 348.20 447.69 C 349.99 448.42 351.62 446.84 352.66 445.56 C 353.35 443.26 351.36 441.40 350.37 439.55 C 346.44 433.56 347.86 425.73 344.39 419.57 C 342.09 416.94 338.53 415.55 336.96 412.24 C 340.57 413.55 344.38 414.57 347.60 416.77 C 355.21 398.20 372.29 386.13 382.98 369.58 C 382.35 357.94 382.57 346.27 382.10 334.62 C 373.20 330.43 365.29 324.40 358.86 316.96 M 309.58 463.28 C 310.01 467.03 309.46 471.19 311.47 474.56 C 317.51 481.75 325.27 487.15 332.63 492.88 C 332.26 488.92 330.58 485.25 327.86 482.37 C 326.26 482.10 324.38 482.19 323.26 480.83 C 318.10 475.48 313.88 469.31 309.58 463.28 M 310.87 480.69 C 311.83 483.13 312.22 485.95 313.94 488.01 C 315.80 489.08 317.99 489.28 320.04 489.78 C 316.87 486.87 313.83 483.81 310.87 480.69 M 375.23 513.28 C 370.49 521.33 365.58 529.31 359.64 536.54 C 350.86 546.56 348.92 560.38 347.38 573.13 C 344.93 594.26 341.01 615.20 338.67 636.35 C 347.77 631.60 357.86 628.99 368.02 627.82 C 379.03 626.45 390.28 625.75 401.26 627.78 C 415.10 630.57 428.61 635.18 440.91 642.17 C 445.57 632.29 447.18 621.25 452.73 611.76 C 454.95 608.10 456.62 603.61 460.52 601.42 C 463.34 600.26 465.27 603.45 466.61 605.42 C 476.59 622.36 482.49 641.30 487.51 660.20 C 488.51 662.88 487.89 666.66 490.85 668.19 C 505.40 677.39 522.91 681.26 540.01 680.76 C 556.37 679.64 571.51 672.35 585.23 663.81 C 583.05 658.74 581.95 653.30 580.82 647.93 C 575.81 627.34 572.99 606.24 572.50 585.04 C 572.44 574.03 572.67 563.01 572.37 551.99 C 572.17 546.07 572.57 540.10 571.53 534.24 C 556.26 534.41 541.07 536.28 525.94 538.24 C 508.66 539.76 491.35 541.34 473.99 541.21 C 455.90 541.53 438.15 536.45 421.71 529.25 C 406.97 522.13 391.93 514.12 375.23 513.28 M 369.00 631.86 C 360.79 632.78 352.72 634.79 345.00 637.76 C 342.21 654.79 338.94 672.29 342.37 689.48 C 345.27 701.81 355.96 709.84 362.21 720.34 C 369.09 720.23 376.06 719.73 382.58 717.38 C 394.34 713.21 405.35 704.89 409.82 692.90 C 408.15 690.85 406.60 688.70 405.49 686.30 C 404.88 689.00 404.28 691.74 403.00 694.23 C 400.27 691.76 401.58 688.05 402.25 684.99 C 406.72 668.37 413.69 652.28 423.55 638.14 C 416.20 635.84 408.83 633.56 401.28 632.03 C 390.64 629.96 379.69 630.46 369.00 631.86 M 339.22 639.59 C 338.64 641.14 339.18 641.67 340.84 641.19 C 341.40 639.57 340.86 639.03 339.22 639.59 M 427.52 639.51 C 425.37 642.24 423.54 645.19 421.81 648.20 C 427.87 648.58 433.72 646.85 439.66 646.03 C 435.74 643.62 431.71 641.39 427.52 639.51 M 494.37 674.99 C 497.34 685.98 502.28 696.46 503.73 707.83 C 504.85 715.51 504.95 723.53 508.21 730.72 C 511.41 736.92 515.53 742.61 518.72 748.82 C 524.14 749.63 529.68 749.30 535.01 748.01 C 545.05 745.53 555.19 741.12 561.86 732.92 C 558.47 715.67 560.84 698.08 561.31 680.71 C 539.45 688.24 514.86 685.14 494.37 674.99 M 412.34 696.29 C 410.27 702.28 406.51 707.57 401.79 711.77 C 391.66 720.67 377.97 725.29 364.53 724.90 C 371.52 738.08 375.56 752.57 382.34 765.85 C 389.90 781.17 401.44 793.92 411.24 807.77 C 419.21 819.00 430.23 827.83 437.19 839.80 C 440.40 845.09 440.63 851.51 440.10 857.51 C 445.30 857.67 451.46 855.62 455.98 859.04 C 460.14 863.70 457.91 870.51 458.51 876.14 C 468.86 870.88 477.98 861.06 478.98 849.06 C 479.48 844.27 479.01 839.27 477.27 834.77 C 473.21 828.88 468.28 823.62 464.35 817.63 C 458.37 809.40 454.59 799.81 451.89 790.06 C 447.94 777.80 445.19 765.20 442.15 752.69 C 440.64 745.58 437.87 738.82 434.75 732.28 C 428.68 719.45 419.71 708.35 412.34 696.29 M 551.20 747.19 C 541.82 752.25 530.90 755.31 520.22 753.60 C 521.78 760.55 522.52 767.64 523.16 774.74 C 524.48 787.29 527.31 799.66 531.14 811.68 C 533.75 821.53 539.73 830.05 542.44 839.87 C 546.88 855.20 551.11 870.69 553.14 886.56 C 554.80 897.29 554.28 908.24 555.77 918.97 C 557.95 916.15 559.85 912.52 563.68 911.79 C 569.53 910.50 575.80 910.00 581.66 911.48 C 588.03 914.55 586.69 924.82 594.49 926.28 C 594.23 919.03 591.71 912.19 589.92 905.25 C 587.73 896.65 585.69 887.95 585.48 879.04 C 584.76 860.02 583.81 841.01 583.73 821.97 C 583.67 810.20 583.23 798.37 581.11 786.78 C 578.40 769.19 569.59 753.47 563.31 737.04 C 560.20 741.39 555.83 744.62 551.20 747.19 M 482.41 838.56 C 483.14 843.04 483.60 847.64 482.78 852.16 C 481.18 863.47 472.93 872.78 463.39 878.46 C 461.03 879.86 457.32 881.31 455.30 878.64 C 452.60 873.61 456.27 867.01 452.95 862.25 C 448.82 861.64 444.64 861.98 440.49 861.98 C 440.81 873.06 438.90 884.05 436.55 894.83 C 433.76 907.88 427.87 919.97 421.53 931.61 C 419.04 936.75 415.83 941.61 414.14 947.10 C 413.63 950.71 414.91 954.97 417.92 957.20 C 423.42 959.66 429.68 958.06 435.16 956.30 C 442.89 953.88 448.88 947.90 453.40 941.41 C 457.95 934.89 461.86 927.96 466.26 921.35 C 470.41 915.14 472.21 907.68 476.59 901.61 C 483.49 891.96 493.60 885.20 500.71 875.73 C 503.37 871.99 507.30 867.16 504.62 862.43 C 499.58 852.52 490.06 846.24 482.41 838.56 M 565.65 915.79 C 561.56 915.86 560.21 920.22 557.79 922.73 C 554.34 926.33 553.71 931.45 551.93 935.91 C 547.10 948.94 543.55 962.40 540.89 976.03 C 540.54 978.91 539.66 982.62 542.19 984.80 C 546.48 988.66 552.41 989.91 557.99 990.53 C 569.74 991.28 581.48 988.14 592.00 983.02 C 594.06 981.86 596.79 980.80 597.31 978.19 C 599.85 969.66 598.38 960.73 598.21 952.01 C 598.03 944.56 596.24 937.32 595.05 930.01 C 592.43 929.63 589.54 929.43 587.52 927.50 C 583.72 924.52 583.21 919.32 580.34 915.68 C 575.50 914.94 570.51 915.37 565.65 915.79 Z" />
		<path fill="#020202" opacity="1.00"
			d=" M 479.33 115.73 C 480.92 119.49 483.29 123.62 482.05 127.82 C 480.82 131.35 476.14 130.95 473.47 129.46 C 475.16 128.27 477.55 127.51 478.19 125.30 C 479.11 122.20 478.87 118.91 479.33 115.73 Z" />
		<path fill="#020202" opacity="1.00"
			d=" M 466.89 142.24 C 474.34 141.66 481.79 140.27 489.29 140.85 C 488.77 142.71 487.06 143.03 485.43 143.31 C 484.58 144.44 484.18 146.21 482.62 146.54 C 477.48 147.71 472.18 148.19 466.92 148.23 C 464.82 148.41 463.55 146.69 462.52 145.17 C 461.82 144.99 460.41 144.63 459.71 144.45 C 461.35 142.18 464.47 142.74 466.89 142.24 Z" />
		<path fill="#020202" opacity="1.00"
			d=" M 442.68 383.96 C 442.93 383.41 443.43 382.30 443.68 381.75 C 452.99 392.59 461.48 404.12 468.41 416.64 C 471.18 421.92 475.17 426.40 478.85 431.06 C 483.80 437.47 490.53 442.13 496.11 447.93 C 505.25 456.10 513.72 464.97 522.68 473.34 C 526.18 476.45 530.38 479.66 535.37 478.98 C 532.58 467.36 523.25 458.96 514.70 451.28 C 513.33 449.75 510.90 448.52 511.17 446.16 C 513.05 445.33 514.68 446.81 516.17 447.78 C 525.08 454.47 533.51 462.45 538.30 472.69 C 539.37 475.41 540.77 478.93 538.69 481.54 C 536.27 484.15 532.16 484.00 529.02 482.97 C 521.45 480.21 516.38 473.61 510.60 468.36 C 502.48 460.12 493.93 452.34 485.55 444.37 C 478.08 438.14 472.11 430.36 466.60 422.41 C 461.14 412.45 454.98 402.90 448.48 393.59 C 446.44 390.45 443.89 387.55 442.68 383.96 Z" />
		<path fill="#020202" opacity="1.00"
			d=" M 362.90 699.86 C 366.25 698.54 369.62 700.28 372.86 701.08 C 376.87 702.44 381.19 702.99 384.98 704.95 C 384.91 705.49 384.75 706.55 384.68 707.08 C 380.77 707.38 377.00 706.00 373.31 704.89 C 369.69 703.59 365.71 702.67 362.90 699.86 Z" />
		<path fill="#020202" opacity="1.00"
			d=" M 547.44 724.42 C 548.63 723.11 550.41 725.32 549.59 726.68 C 547.62 731.73 544.89 736.76 540.97 740.56 C 540.64 740.22 539.98 739.52 539.65 739.17 C 541.32 733.87 543.78 728.63 547.44 724.42 Z" />
	</g>
	<g id="#f0b58bff">
		<path fill="#f0b58b" opacity="1.00"
			d=" M 480.78 64.67 C 484.14 66.17 487.26 68.23 489.64 71.08 C 489.85 76.52 491.02 81.84 491.74 87.22 C 488.47 88.04 485.00 88.38 481.97 89.95 C 479.27 93.34 477.18 97.24 475.20 101.09 C 474.71 104.72 475.47 108.71 477.53 111.80 C 478.12 109.18 478.58 106.53 478.99 103.87 C 483.71 102.46 488.48 101.17 493.33 100.29 C 493.94 107.56 495.25 114.96 493.57 122.19 C 492.13 133.24 490.55 144.52 485.77 154.71 C 483.17 160.48 477.37 164.66 471.04 165.16 C 460.02 166.04 449.66 160.92 440.66 155.11 C 440.27 155.17 439.49 155.31 439.10 155.37 C 443.33 160.42 449.54 162.99 455.30 165.84 C 464.75 170.40 477.33 170.41 484.98 162.40 C 485.40 165.34 486.47 168.13 488.19 170.57 C 474.71 188.46 455.53 200.64 436.72 212.20 C 434.16 203.33 431.11 194.63 428.05 185.93 C 425.98 178.05 425.32 169.86 424.74 161.76 C 423.99 152.45 422.59 143.21 421.64 133.92 C 421.06 129.73 420.76 125.29 418.39 121.65 C 414.67 115.87 412.23 108.89 413.19 101.96 C 413.63 98.97 415.86 96.76 418.09 94.94 C 423.67 100.26 422.53 108.77 424.62 115.61 C 426.88 122.33 426.25 129.86 429.82 136.15 C 430.32 137.43 431.62 137.76 432.80 138.14 C 432.88 127.70 432.34 117.24 433.85 106.87 C 444.13 102.12 455.90 104.79 466.72 103.73 C 469.49 100.84 470.77 96.77 471.39 92.90 C 471.80 91.40 470.02 90.53 468.81 90.48 C 456.95 89.20 444.97 90.19 433.26 92.27 C 432.12 87.14 429.99 82.31 427.29 77.82 C 430.10 79.56 432.76 81.52 435.54 83.31 C 434.62 78.29 431.98 73.90 429.89 69.33 C 437.01 71.24 442.93 75.76 448.52 80.36 C 448.53 76.13 447.80 71.96 447.08 67.81 C 454.58 71.86 459.07 79.66 466.55 83.73 C 465.62 78.65 464.19 73.65 464.07 68.45 C 471.34 71.78 476.48 79.94 485.08 79.90 C 482.09 75.25 483.67 69.36 480.78 64.67 M 479.33 115.73 C 478.87 118.91 479.11 122.20 478.19 125.30 C 477.55 127.51 475.16 128.27 473.47 129.46 C 476.14 130.95 480.82 131.35 482.05 127.82 C 483.29 123.62 480.92 119.49 479.33 115.73 M 466.89 142.24 C 464.47 142.74 461.35 142.18 459.71 144.45 C 460.41 144.63 461.82 144.99 462.52 145.17 C 463.55 146.69 464.82 148.41 466.92 148.23 C 472.18 148.19 477.48 147.71 482.62 146.54 C 484.18 146.21 484.58 144.44 485.43 143.31 C 487.06 143.03 488.77 142.71 489.29 140.85 C 481.79 140.27 474.34 141.66 466.89 142.24 Z" />
		<path fill="#f0b58b" opacity="1.00"
			d=" M 549.86 321.84 C 564.80 311.19 581.61 303.38 599.17 298.15 C 599.66 312.25 605.11 325.46 607.97 339.14 C 610.88 351.11 615.08 363.69 611.88 376.03 C 611.18 377.91 610.86 381.45 608.01 380.76 C 597.60 379.35 587.23 377.52 576.75 376.69 C 568.19 376.18 559.65 375.40 551.09 374.86 C 531.35 373.25 513.82 363.10 494.94 358.08 C 489.22 357.50 483.48 358.26 477.79 358.81 C 463.43 359.93 449.01 360.84 434.81 363.37 C 429.22 364.42 423.43 365.97 417.77 364.37 C 424.21 359.15 432.20 356.47 439.98 353.99 C 441.97 353.45 443.54 352.08 444.93 350.62 C 442.78 350.33 440.57 350.12 438.44 350.66 C 430.14 352.62 422.06 356.02 413.42 356.16 C 418.66 351.09 425.59 348.40 431.84 344.84 C 435.62 342.57 439.85 341.12 443.57 338.78 C 443.69 338.35 443.95 337.50 444.07 337.08 C 436.47 337.88 429.72 341.76 422.89 344.88 C 419.08 347.00 414.68 347.78 410.35 347.65 C 410.78 346.11 411.65 344.74 413.00 343.86 C 419.38 339.12 426.94 336.38 434.19 333.28 C 436.46 332.28 438.89 331.42 440.72 329.68 C 441.46 327.85 439.42 327.41 438.11 327.06 C 431.33 325.47 424.15 324.49 417.28 326.13 C 410.59 328.11 406.05 334.03 399.51 336.36 C 399.35 334.44 399.41 332.37 400.87 330.93 C 404.03 327.39 407.83 324.12 412.36 322.51 C 421.13 320.15 430.37 321.77 439.26 320.08 C 438.97 317.50 436.20 317.49 434.29 316.81 C 429.48 315.60 425.22 312.65 421.94 308.99 C 419.83 306.79 420.68 303.57 420.87 300.88 C 425.17 304.43 429.57 307.96 434.64 310.36 C 439.41 312.80 444.82 313.73 449.41 316.55 C 456.59 320.89 462.54 327.01 469.89 331.09 C 482.17 336.51 495.87 335.51 508.94 336.75 C 531.90 339.22 555.01 336.70 578.03 337.32 C 583.23 337.32 588.28 338.60 593.38 339.41 C 592.26 338.17 590.93 337.18 589.31 336.76 C 579.00 333.30 568.00 333.92 557.29 333.94 C 554.63 330.02 552.26 325.92 549.86 321.84 Z" />
		<path fill="#f0b58b" opacity="1.00"
			d=" M 358.86 316.96 C 365.29 324.40 373.20 330.43 382.10 334.62 C 382.57 346.27 382.35 357.94 382.98 369.58 C 372.29 386.13 355.21 398.20 347.60 416.77 C 344.38 414.57 340.57 413.55 336.96 412.24 C 338.53 415.55 342.09 416.94 344.39 419.57 C 347.86 425.73 346.44 433.56 350.37 439.55 C 351.36 441.40 353.35 443.26 352.66 445.56 C 351.62 446.84 349.99 448.42 348.20 447.69 C 343.12 445.80 339.50 441.50 336.53 437.15 C 334.82 440.15 337.65 442.87 339.14 445.24 C 334.59 450.59 329.89 455.82 325.76 461.50 C 324.53 459.07 322.95 456.71 322.49 453.99 C 322.70 449.11 325.09 444.67 325.74 439.88 C 326.27 437.67 323.24 437.83 322.75 439.57 C 320.19 444.26 318.69 449.69 318.74 455.05 C 320.05 460.68 323.78 465.29 326.95 469.98 C 328.63 472.48 327.51 475.54 326.69 478.13 C 320.14 470.92 314.37 463.05 308.77 455.10 C 307.56 453.30 306.12 451.25 306.63 448.97 C 310.88 432.97 323.35 421.24 330.99 406.97 C 333.68 400.96 335.85 394.64 336.91 388.12 C 338.92 374.35 341.22 360.56 345.20 347.20 C 348.39 336.51 356.03 327.82 358.86 316.96 Z" />
		<path fill="#f0b58b" opacity="1.00"
			d=" M 309.58 463.28 C 313.88 469.31 318.10 475.48 323.26 480.83 C 324.38 482.19 326.26 482.10 327.86 482.37 C 330.58 485.25 332.26 488.92 332.63 492.88 C 325.27 487.15 317.51 481.75 311.47 474.56 C 309.46 471.19 310.01 467.03 309.58 463.28 Z" />
		<path fill="#f0b58b" opacity="1.00"
			d=" M 310.87 480.69 C 313.83 483.81 316.87 486.87 320.04 489.78 C 317.99 489.28 315.80 489.08 313.94 488.01 C 312.22 485.95 311.83 483.13 310.87 480.69 Z" />
		<path fill="#f0b58b" opacity="1.00"
			d=" M 369.00 631.86 C 379.69 630.46 390.64 629.96 401.28 632.03 C 408.83 633.56 416.20 635.84 423.55 638.14 C 413.69 652.28 406.72 668.37 402.25 684.99 C 401.58 688.05 400.27 691.76 403.00 694.23 C 404.28 691.74 404.88 689.00 405.49 686.30 C 406.60 688.70 408.15 690.85 409.82 692.90 C 405.35 704.89 394.34 713.21 382.58 717.38 C 376.06 719.73 369.09 720.23 362.21 720.34 C 355.96 709.84 345.27 701.81 342.37 689.48 C 338.94 672.29 342.21 654.79 345.00 637.76 C 352.72 634.79 360.79 632.78 369.00 631.86 M 362.90 699.86 C 365.71 702.67 369.69 703.59 373.31 704.89 C 377.00 706.00 380.77 707.38 384.68 707.08 C 384.75 706.55 384.91 705.49 384.98 704.95 C 381.19 702.99 376.87 702.44 372.86 701.08 C 369.62 700.28 366.25 698.54 362.90 699.86 Z" />
		<path fill="#f0b58b" opacity="1.00"
			d=" M 494.37 674.99 C 514.86 685.14 539.45 688.24 561.31 680.71 C 560.84 698.08 558.47 715.67 561.86 732.92 C 555.19 741.12 545.05 745.53 535.01 748.01 C 529.68 749.30 524.14 749.63 518.72 748.82 C 515.53 742.61 511.41 736.92 508.21 730.72 C 504.95 723.53 504.85 715.51 503.73 707.83 C 502.28 696.46 497.34 685.98 494.37 674.99 M 547.44 724.42 C 543.78 728.63 541.32 733.87 539.65 739.17 C 539.98 739.52 540.64 740.22 540.97 740.56 C 544.89 736.76 547.62 731.73 549.59 726.68 C 550.41 725.32 548.63 723.11 547.44 724.42 Z" />
	</g>
	<g id="#f11b27ff">
		<path fill="var(--shirt-color, grey)" opacity="1.00"
			d=" M 488.30 158.40 C 502.41 162.17 514.12 171.56 525.06 180.84 C 530.27 184.82 535.38 188.97 541.00 192.35 C 528.02 191.14 514.90 191.59 502.02 193.61 C 499.42 194.22 496.04 194.09 494.67 196.86 C 506.79 196.75 518.92 194.99 531.05 196.12 C 540.50 196.72 550.78 197.29 558.56 203.35 C 566.51 209.39 569.97 219.10 574.19 227.76 C 577.78 236.41 582.73 244.38 587.47 252.43 C 592.44 260.74 597.01 269.33 602.97 276.99 C 606.39 281.42 610.31 285.43 613.79 289.82 C 597.12 293.37 580.70 298.65 565.61 306.64 C 558.51 310.28 552.29 315.32 546.36 320.60 C 539.34 315.98 537.36 307.34 533.55 300.37 C 531.36 295.84 527.81 292.22 525.11 288.04 C 525.43 284.12 527.06 280.42 529.18 277.15 C 535.23 268.23 542.85 260.56 550.42 252.94 C 546.41 253.23 543.66 256.39 540.85 258.87 C 533.15 266.14 524.72 273.74 522.00 284.41 C 520.46 280.79 519.41 276.97 519.04 273.05 C 518.52 269.47 518.81 265.67 517.16 262.35 C 515.39 268.61 515.67 275.43 517.14 281.72 C 519.01 288.50 524.63 293.12 528.16 298.95 C 532.24 305.38 534.30 312.97 539.03 319.01 C 541.11 321.70 544.30 323.13 547.52 323.95 C 549.01 327.42 550.78 330.77 552.84 333.94 C 541.23 333.69 529.58 334.34 517.99 333.25 C 509.34 332.48 500.67 331.87 491.99 331.62 C 485.07 331.32 477.78 330.95 471.61 327.47 C 464.35 323.21 458.26 317.22 450.91 313.09 C 446.22 310.41 440.81 309.44 435.99 307.04 C 431.62 304.94 427.68 302.06 424.03 298.89 C 422.95 298.07 421.81 296.78 420.30 297.29 C 417.03 298.75 416.65 302.89 416.76 306.02 C 417.20 311.74 422.81 314.87 427.15 317.63 C 419.80 317.21 411.68 316.92 405.34 321.28 C 401.34 324.08 396.94 327.27 395.44 332.14 C 394.19 335.67 396.72 340.67 400.93 339.83 C 407.46 338.27 411.81 332.31 418.12 330.21 C 423.06 328.97 428.23 329.38 433.22 330.08 C 425.21 333.07 416.76 335.65 409.97 341.06 C 407.97 342.67 405.83 345.19 406.86 347.95 C 407.33 350.14 409.50 350.94 411.32 351.73 C 410.19 353.66 408.43 355.96 409.68 358.28 C 411.00 360.70 414.19 359.95 416.46 360.20 C 414.07 361.83 412.93 365.47 415.56 367.46 C 419.68 370.26 425.11 369.18 429.76 368.67 C 445.73 365.55 461.96 364.21 478.13 362.61 C 483.68 362.09 489.36 360.56 494.90 361.90 C 511.23 367.13 526.74 375.09 543.72 378.11 C 548.73 379.02 553.81 379.29 558.88 379.61 C 559.18 397.41 558.58 415.27 560.58 433.00 C 549.60 418.51 538.00 404.51 526.66 390.31 C 525.07 388.41 523.28 386.02 520.51 386.22 C 519.82 387.74 521.06 388.98 521.78 390.21 C 527.73 399.13 534.48 407.48 540.96 416.02 C 549.76 428.04 561.46 438.72 565.23 453.66 C 571.51 478.40 571.63 504.27 569.99 529.59 C 564.99 529.89 560.00 530.29 555.00 530.33 C 541.61 530.59 528.42 533.12 515.07 533.91 C 500.74 535.23 486.37 536.50 471.97 536.45 C 455.62 536.48 439.69 531.60 424.75 525.31 C 409.35 518.07 393.65 509.69 376.20 509.42 C 377.64 501.36 378.57 493.19 378.19 484.99 C 378.92 473.58 380.45 462.22 381.37 450.82 C 383.17 436.55 387.48 422.67 388.08 408.22 C 394.81 422.15 404.39 434.40 412.63 447.42 C 422.19 462.13 431.57 476.96 441.87 491.16 C 444.01 494.00 446.21 497.00 449.55 498.51 C 448.03 494.34 445.01 491.01 442.75 487.26 C 429.89 466.88 417.23 446.36 403.48 426.55 C 397.67 417.61 391.08 408.65 388.94 397.99 C 388.85 391.61 389.70 385.21 388.76 378.84 C 393.02 386.31 397.23 393.82 402.22 400.83 C 419.50 424.13 438.14 447.20 462.39 463.61 C 466.76 466.39 470.46 470.33 475.45 472.04 C 475.17 470.67 474.87 469.22 473.67 468.35 C 466.04 461.26 457.11 455.73 449.58 448.51 C 438.27 437.76 427.65 426.28 417.98 414.02 C 411.11 405.50 403.97 397.12 398.51 387.58 C 393.18 378.50 386.29 369.08 387.05 358.00 C 386.82 344.65 386.86 331.27 385.73 317.95 C 385.54 309.96 385.01 301.72 381.50 294.38 C 375.49 281.90 368.61 269.70 364.69 256.34 C 363.13 251.23 362.78 245.66 360.02 240.99 C 357.59 240.92 358.27 243.43 358.34 245.03 C 358.99 249.78 359.76 254.52 360.91 259.18 C 364.39 271.95 370.98 283.52 376.86 295.28 C 378.95 299.38 379.95 303.90 380.67 308.42 C 374.99 294.87 363.73 284.66 357.87 271.24 C 356.86 264.30 357.14 257.18 355.84 250.25 C 354.05 240.97 352.71 231.43 353.70 221.98 C 355.82 213.59 359.89 205.39 366.56 199.68 C 373.47 193.44 382.50 190.57 390.87 186.91 C 401.22 182.30 411.80 177.68 420.35 170.05 C 421.23 176.02 422.38 181.97 424.33 187.69 C 427.68 197.66 430.93 207.75 435.95 217.03 C 454.67 205.29 474.24 193.67 488.08 176.01 C 490.68 172.30 494.12 168.55 494.44 163.84 C 491.96 163.09 491.28 166.60 489.77 167.89 C 488.23 164.95 488.07 161.64 488.30 158.40 M 442.68 383.96 C 443.89 387.55 446.44 390.45 448.48 393.59 C 454.98 402.90 461.14 412.45 466.60 422.41 C 472.11 430.36 478.08 438.14 485.55 444.37 C 493.93 452.34 502.48 460.12 510.60 468.36 C 516.38 473.61 521.45 480.21 529.02 482.97 C 532.16 484.00 536.27 484.15 538.69 481.54 C 540.77 478.93 539.37 475.41 538.30 472.69 C 533.51 462.45 525.08 454.47 516.17 447.78 C 514.68 446.81 513.05 445.33 511.17 446.16 C 510.90 448.52 513.33 449.75 514.70 451.28 C 523.25 458.96 532.58 467.36 535.37 478.98 C 530.38 479.66 526.18 476.45 522.68 473.34 C 513.72 464.97 505.25 456.10 496.11 447.93 C 490.53 442.13 483.80 437.47 478.85 431.06 C 475.17 426.40 471.18 421.92 468.41 416.64 C 461.48 404.12 452.99 392.59 443.68 381.75 C 443.43 382.30 442.93 383.41 442.68 383.96 Z" />
		<path fill="var(--shirt-color, grey)" opacity="1.00"
			d=" M 357.54 278.76 C 363.73 289.84 372.91 298.96 378.57 310.37 C 382.17 316.33 381.14 323.55 381.98 330.18 C 369.46 324.47 359.72 313.72 353.03 301.88 C 354.59 294.18 356.78 286.59 357.54 278.76 Z" />
	</g>
	<g id="#ffffffff">
		<path fill="var(--pants-color, grey)" opacity="1.00"
			d=" M 375.23 513.28 C 391.93 514.12 406.97 522.13 421.71 529.25 C 438.15 536.45 455.90 541.53 473.99 541.21 C 491.35 541.34 508.66 539.76 525.94 538.24 C 541.07 536.28 556.26 534.41 571.53 534.24 C 572.57 540.10 572.17 546.07 572.37 551.99 C 572.67 563.01 572.44 574.03 572.50 585.04 C 572.99 606.24 575.81 627.34 580.82 647.93 C 581.95 653.30 583.05 658.74 585.23 663.81 C 571.51 672.35 556.37 679.64 540.01 680.76 C 522.91 681.26 505.40 677.39 490.85 668.19 C 487.89 666.66 488.51 662.88 487.51 660.20 C 482.49 641.30 476.59 622.36 466.61 605.42 C 465.27 603.45 463.34 600.26 460.52 601.42 C 456.62 603.61 454.95 608.10 452.73 611.76 C 447.18 621.25 445.57 632.29 440.91 642.17 C 428.61 635.18 415.10 630.57 401.26 627.78 C 390.28 625.75 379.03 626.45 368.02 627.82 C 357.86 628.99 347.77 631.60 338.67 636.35 C 341.01 615.20 344.93 594.26 347.38 573.13 C 348.92 560.38 350.86 546.56 359.64 536.54 C 365.58 529.31 370.49 521.33 375.23 513.28 Z" />
		<path fill="var(--socks-color, grey)" opacity="1.00"
			d=" M 339.22 639.59 C 340.86 639.03 341.40 639.57 340.84 641.19 C 339.18 641.67 338.64 641.14 339.22 639.59 Z" />
		<path fill="var(--socks-color, grey)" opacity="1.00"
			d=" M 427.52 639.51 C 431.71 641.39 435.74 643.62 439.66 646.03 C 433.72 646.85 427.87 648.58 421.81 648.20 C 423.54 645.19 425.37 642.24 427.52 639.51 Z" />
		<path fill="var(--socks-color, grey)" opacity="1.00"
			d=" M 412.34 696.29 C 419.71 708.35 428.68 719.45 434.75 732.28 C 437.87 738.82 440.64 745.58 442.15 752.69 C 445.19 765.20 447.94 777.80 451.89 790.06 C 454.59 799.81 458.37 809.40 464.35 817.63 C 468.28 823.62 473.21 828.88 477.27 834.77 C 479.01 839.27 479.48 844.27 478.98 849.06 C 477.98 861.06 468.86 870.88 458.51 876.14 C 457.91 870.51 460.14 863.70 455.98 859.04 C 451.46 855.62 445.30 857.67 440.10 857.51 C 440.63 851.51 440.40 845.09 437.19 839.80 C 430.23 827.83 419.21 819.00 411.24 807.77 C 401.44 793.92 389.90 781.17 382.34 765.85 C 375.56 752.57 371.52 738.08 364.53 724.90 C 377.97 725.29 391.66 720.67 401.79 711.77 C 406.51 707.57 410.27 702.28 412.34 696.29 Z" />
		<path fill="var(--socks-color, grey)" opacity="1.00"
			d=" M 551.20 747.19 C 555.83 744.62 560.20 741.39 563.31 737.04 C 569.59 753.47 578.40 769.19 581.11 786.78 C 583.23 798.37 583.67 810.20 583.73 821.97 C 583.81 841.01 584.76 860.02 585.48 879.04 C 585.69 887.95 587.73 896.65 589.92 905.25 C 591.71 912.19 594.23 919.03 594.49 926.28 C 586.69 924.82 588.03 914.55 581.66 911.48 C 575.80 910.00 569.53 910.50 563.68 911.79 C 559.85 912.52 557.95 916.15 555.77 918.97 C 554.28 908.24 554.80 897.29 553.14 886.56 C 551.11 870.69 546.88 855.20 542.44 839.87 C 539.73 830.05 533.75 821.53 531.14 811.68 C 527.31 799.66 524.48 787.29 523.16 774.74 C 522.52 767.64 521.78 760.55 520.22 753.60 C 530.90 755.31 541.82 752.25 551.20 747.19 Z" />
	</g>
	<g id="#4d4d4dff">
		<path fill="#4d4d4d" opacity="1.00"
			d=" M 482.41 838.56 C 490.06 846.24 499.58 852.52 504.62 862.43 C 507.30 867.16 503.37 871.99 500.71 875.73 C 493.60 885.20 483.49 891.96 476.59 901.61 C 472.21 907.68 470.41 915.14 466.26 921.35 C 461.86 927.96 457.95 934.89 453.40 941.41 C 448.88 947.90 442.89 953.88 435.16 956.30 C 429.68 958.06 423.42 959.66 417.92 957.20 C 414.91 954.97 413.63 950.71 414.14 947.10 C 415.83 941.61 419.04 936.75 421.53 931.61 C 427.87 919.97 433.76 907.88 436.55 894.83 C 438.90 884.05 440.81 873.06 440.49 861.98 C 444.64 861.98 448.82 861.64 452.95 862.25 C 456.27 867.01 452.60 873.61 455.30 878.64 C 457.32 881.31 461.03 879.86 463.39 878.46 C 472.93 872.78 481.18 863.47 482.78 852.16 C 483.60 847.64 483.14 843.04 482.41 838.56 Z" />
		<path fill="#4d4d4d" opacity="1.00"
			d=" M 565.65 915.79 C 570.51 915.37 575.50 914.94 580.34 915.68 C 583.21 919.32 583.72 924.52 587.52 927.50 C 589.54 929.43 592.43 929.63 595.05 930.01 C 596.24 937.32 598.03 944.56 598.21 952.01 C 598.38 960.73 599.85 969.66 597.31 978.19 C 596.79 980.80 594.06 981.86 592.00 983.02 C 581.48 988.14 569.74 991.28 557.99 990.53 C 552.41 989.91 546.48 988.66 542.19 984.80 C 539.66 982.62 540.54 978.91 540.89 976.03 C 543.55 962.40 547.10 948.94 551.93 935.91 C 553.71 931.45 554.34 926.33 557.79 922.73 C 560.21 920.22 561.56 915.86 565.65 915.79 Z" />
	</g>
</svg>