<?xml version="1.0" encoding="UTF-8" ?>
<!DOCTYPE svg PUBLIC "-//W3C//DTD SVG 1.1//EN" "http://www.w3.org/Graphics/SVG/1.1/DTD/svg11.dtd">
<svg width="1000pt" height="1000pt" viewBox="0 0 1000 1000" version="1.1" xmlns="http://www.w3.org/2000/svg">
	<g id="#020202ff">
		<path fill="#020202" opacity="1.00"
			d=" M 523.94 22.88 C 535.99 15.80 550.82 14.57 564.28 17.65 C 574.33 20.09 584.29 24.86 590.97 32.98 C 597.54 39.86 601.07 49.00 603.39 58.08 C 605.35 65.54 605.40 73.31 606.67 80.88 C 604.07 80.28 601.94 78.69 599.86 77.12 C 599.14 85.75 599.11 94.42 598.02 103.02 C 597.25 119.25 593.58 135.28 587.92 150.49 C 597.27 154.31 604.92 161.03 612.71 167.27 C 617.48 171.13 621.81 175.49 626.56 179.37 C 630.73 182.87 636.15 184.36 640.41 187.73 C 644.60 190.92 647.74 195.26 650.27 199.83 C 658.78 214.83 664.78 231.08 670.67 247.23 C 676.52 266.71 681.24 286.71 682.36 307.06 C 681.18 308.43 679.45 309.11 677.94 310.01 C 679.86 320.61 678.88 331.43 679.68 342.13 C 680.47 351.90 680.65 361.89 683.84 371.26 C 686.65 378.73 691.87 384.96 697.24 390.74 C 703.08 397.08 708.05 404.19 712.38 411.64 C 717.71 420.99 720.69 431.40 724.83 441.28 C 725.94 443.94 727.59 446.40 729.88 448.20 C 737.47 454.47 747.33 456.97 755.21 462.80 C 758.17 465.22 759.90 468.73 762.25 471.69 C 764.91 475.33 768.42 478.20 771.60 481.36 C 775.60 485.04 775.32 491.05 775.02 496.02 C 773.95 506.02 773.75 516.14 771.82 526.03 C 771.35 528.44 770.13 531.99 766.98 531.38 C 762.53 530.07 761.56 524.86 760.72 520.96 C 758.13 526.74 755.79 532.83 751.72 537.77 C 750.23 539.80 746.96 539.20 746.45 536.70 C 745.50 530.68 747.29 524.67 747.97 518.72 C 746.01 523.31 744.10 528.04 740.97 531.99 C 739.64 533.54 737.64 535.42 735.43 534.52 C 733.39 533.55 733.14 531.00 733.12 529.02 C 733.11 521.78 735.36 514.79 735.87 507.60 C 731.54 507.46 729.24 503.31 725.89 501.20 C 717.21 495.28 707.13 491.65 698.68 485.35 C 687.58 476.56 687.26 461.17 680.18 449.79 C 675.01 441.52 667.83 434.81 661.43 427.53 C 649.60 413.30 644.73 395.03 638.83 377.87 C 633.74 363.77 629.10 349.51 623.44 335.62 C 621.15 334.62 618.72 333.81 616.73 332.28 C 614.39 326.86 613.93 320.84 613.06 315.05 C 607.76 322.65 601.41 329.42 594.95 336.03 C 599.83 341.58 602.25 348.75 604.26 355.74 C 606.18 362.33 604.34 369.35 601.15 375.22 C 599.56 378.35 597.14 380.96 595.44 384.03 C 598.79 395.79 611.41 401.99 615.57 413.42 C 616.44 415.23 614.83 416.86 614.19 418.45 C 624.87 426.88 634.21 437.01 641.32 448.65 C 653.39 467.51 657.70 489.87 666.90 510.06 C 670.96 518.74 674.59 527.66 676.81 537.01 C 677.85 540.91 678.43 545.04 680.53 548.57 C 685.45 556.23 690.74 563.66 695.54 571.41 C 700.95 579.92 704.15 589.89 704.58 599.96 C 704.94 601.96 703.30 603.08 701.92 604.13 C 709.14 616.28 714.31 629.47 719.51 642.58 C 725.73 658.90 731.57 675.43 735.28 692.53 C 737.43 702.17 737.34 712.11 737.72 721.93 C 738.16 738.90 733.38 755.43 727.94 771.33 C 741.89 776.58 755.39 783.03 769.64 787.48 C 779.63 790.85 789.28 795.76 796.93 803.12 C 805.82 811.52 811.99 822.39 816.57 833.63 C 817.50 836.32 819.29 840.30 816.29 842.33 C 810.87 846.28 804.66 849.05 798.41 851.42 C 786.80 855.95 773.81 855.35 762.00 851.93 C 751.97 849.37 742.82 844.38 734.16 838.85 C 721.65 830.70 706.49 828.50 693.42 821.51 C 684.40 816.79 675.50 809.82 672.52 799.65 C 669.63 791.39 670.30 782.50 671.37 773.98 C 671.98 770.42 669.77 767.35 668.61 764.18 C 663.49 750.98 658.87 737.30 658.23 723.04 C 657.76 712.05 659.10 701.10 659.55 690.14 C 647.39 675.49 634.32 661.61 620.38 648.65 C 610.70 640.07 601.19 630.97 589.85 624.61 C 585.36 624.49 580.66 625.46 576.38 623.66 C 570.14 621.03 565.55 615.84 561.31 610.75 C 555.71 603.99 550.72 596.75 545.52 589.68 C 545.50 589.64 545.45 589.57 545.43 589.54 C 537.35 577.95 529.31 566.23 519.69 555.86 C 519.58 566.52 517.47 577.28 513.03 586.99 C 512.52 588.92 510.54 588.65 509.06 588.31 C 506.10 603.45 501.23 618.17 497.09 633.02 C 493.91 644.82 489.65 656.57 489.73 668.95 C 489.79 682.41 490.02 696.02 492.79 709.24 C 497.22 720.88 501.98 732.41 507.43 743.62 C 515.17 761.01 523.45 778.75 524.98 797.99 C 527.10 822.93 531.22 847.64 535.80 872.23 C 537.87 881.41 540.06 890.59 541.68 899.87 C 541.92 901.24 542.17 902.73 543.24 903.77 C 547.72 909.01 552.46 914.17 555.63 920.36 C 561.08 930.51 563.75 941.82 566.40 952.95 C 567.11 956.96 568.53 961.91 565.36 965.26 C 561.27 969.19 555.49 970.65 550.05 971.51 C 542.34 972.68 534.69 970.52 526.99 970.68 C 522.01 970.71 517.75 973.58 513.11 974.94 C 505.63 977.43 497.67 977.32 489.92 978.30 C 480.50 979.39 470.69 977.35 462.54 972.49 C 459.11 970.48 456.07 966.54 457.47 962.38 C 459.67 956.44 465.16 952.51 470.47 949.49 C 479.87 943.91 488.88 936.54 493.27 926.25 C 495.50 920.98 496.65 915.36 498.69 910.03 C 492.34 896.72 485.96 883.38 478.04 870.92 C 468.79 855.59 457.37 841.58 449.48 825.44 C 440.11 807.40 435.92 787.30 432.43 767.44 C 429.27 750.45 428.32 733.16 426.98 715.97 C 426.55 709.93 424.91 704.07 424.35 698.06 C 424.18 694.83 421.62 692.54 420.38 689.71 C 416.03 680.40 415.06 669.98 411.55 660.37 C 409.71 654.76 406.45 649.77 404.61 644.17 C 401.63 636.08 400.66 627.45 399.94 618.92 C 398.98 607.65 398.77 596.34 398.08 585.06 C 397.45 575.88 398.26 566.69 398.12 557.51 L 398.11 556.85 C 396.76 556.80 395.66 557.71 394.79 558.64 C 392.46 560.72 390.15 562.87 387.58 564.66 C 385.73 565.14 385.28 562.72 384.50 561.57 C 382.06 555.41 380.40 548.71 380.64 542.06 C 381.15 539.11 380.75 536.14 380.31 533.22 C 380.64 516.38 385.37 500.04 389.57 483.85 C 389.33 474.76 380.48 467.46 382.09 458.01 C 383.74 449.62 387.91 442.06 391.12 434.22 C 392.43 431.43 391.00 428.42 390.64 425.58 C 388.80 414.49 388.60 403.10 390.10 391.96 C 391.52 381.07 396.99 371.39 401.53 361.59 C 404.13 356.12 405.11 350.02 404.78 344.00 C 404.72 334.40 400.22 325.57 399.53 316.07 C 398.35 304.55 401.69 293.31 403.80 282.11 C 405.22 274.79 407.21 267.43 406.80 259.91 C 406.66 258.05 406.46 255.21 403.94 255.31 C 391.45 254.62 379.52 259.83 368.95 266.00 C 365.95 267.57 363.38 270.22 360.01 270.94 C 354.33 270.30 349.44 266.99 344.29 264.78 C 330.84 273.69 315.01 278.92 303.09 290.10 C 301.00 292.27 299.99 295.18 298.85 297.90 C 295.71 305.88 292.40 313.81 288.48 321.43 C 277.78 342.10 261.26 359.02 250.48 379.63 C 245.38 387.93 242.30 397.33 241.05 406.97 C 240.22 416.18 237.86 425.16 236.07 434.21 C 232.21 448.18 227.87 462.40 219.49 474.42 C 215.18 480.65 210.87 487.03 204.97 491.90 C 203.04 493.50 200.73 495.60 198.00 494.79 C 196.40 494.38 195.79 492.56 195.83 491.09 C 195.88 486.58 197.46 482.30 198.89 478.08 C 194.84 482.63 190.83 487.37 185.75 490.80 C 183.27 492.54 178.84 492.25 177.95 488.88 C 176.88 482.69 179.59 476.64 181.71 470.96 C 177.43 475.25 172.98 480.15 166.88 481.67 C 162.56 482.61 159.26 477.97 160.88 474.03 C 164.13 461.74 172.82 451.94 180.12 441.84 C 173.33 447.50 166.81 453.54 159.39 458.39 C 157.41 459.63 154.07 461.28 152.42 458.70 C 150.91 454.75 153.62 450.74 155.27 447.25 C 163.36 433.23 174.73 421.51 185.84 409.87 C 192.19 403.51 197.49 396.22 203.65 389.68 C 207.47 385.77 209.24 380.50 211.83 375.81 C 216.15 367.83 219.57 359.41 222.95 351.00 C 231.22 331.13 238.14 310.68 243.64 289.87 C 245.91 280.54 248.42 271.26 250.96 262.00 C 253.25 253.65 257.33 245.66 263.59 239.60 C 269.37 233.96 275.79 229.00 282.38 224.35 C 289.43 219.65 295.95 214.20 303.15 209.71 C 304.71 206.23 308.11 204.23 310.92 201.87 C 323.82 191.34 338.44 183.26 352.65 174.68 C 358.09 171.34 363.83 168.53 369.41 165.43 C 378.06 160.60 385.93 154.52 394.41 149.40 C 400.76 145.59 407.86 143.20 415.10 141.71 C 432.57 138.15 450.28 135.91 467.91 133.33 C 479.08 131.82 489.98 128.78 500.51 124.81 C 496.17 115.04 491.21 105.37 489.33 94.75 C 486.82 79.33 488.59 62.88 496.17 49.05 C 502.38 37.66 512.50 28.80 523.94 22.88 M 546.66 76.53 C 544.81 75.64 543.98 73.71 542.84 72.14 C 541.00 69.39 538.18 67.54 535.65 65.49 C 535.99 69.27 536.86 73.26 535.25 76.88 C 532.50 74.78 529.91 72.46 526.95 70.65 C 529.84 75.98 531.83 81.88 531.51 88.02 C 537.09 85.88 542.86 83.32 548.99 83.97 C 556.18 84.71 563.82 85.76 569.83 90.10 C 572.11 91.64 571.77 94.69 571.22 97.01 C 570.77 98.97 570.24 101.60 567.96 102.17 C 555.22 102.69 542.60 98.66 529.85 100.07 C 527.34 108.64 527.96 118.70 521.58 125.69 C 520.97 126.95 518.17 127.02 518.72 125.11 C 519.10 117.76 519.13 110.32 517.30 103.14 C 516.15 98.50 514.84 92.76 510.03 90.63 C 506.77 89.25 504.82 93.33 505.65 96.00 C 507.28 103.23 508.24 110.69 507.39 118.10 C 506.99 125.48 504.09 132.56 504.77 140.01 C 504.31 153.16 505.98 166.61 511.55 178.65 C 515.25 187.56 521.58 194.94 527.44 202.48 C 529.28 204.90 531.55 206.94 533.87 208.89 C 539.33 205.37 544.76 201.80 549.93 197.86 C 554.22 194.53 559.02 191.64 562.20 187.12 C 567.56 180.33 570.19 171.98 573.06 163.94 C 568.62 165.94 563.94 167.54 559.05 167.78 C 555.02 168.00 550.42 168.28 547.19 165.40 C 552.08 165.77 557.15 166.36 561.90 164.70 C 568.17 162.57 574.00 159.24 579.30 155.28 C 583.33 152.28 585.38 147.45 586.85 142.80 C 590.06 132.15 592.53 121.25 593.71 110.18 C 591.21 109.38 588.66 108.76 586.10 108.26 C 585.59 112.14 585.45 116.08 584.61 119.91 C 584.40 121.29 582.16 122.24 581.80 120.32 C 578.63 112.64 577.44 103.30 581.81 95.83 C 584.86 91.50 590.54 90.52 595.36 89.40 C 595.84 84.53 596.81 79.73 597.38 74.87 C 593.98 71.57 591.00 67.89 588.27 64.04 C 588.90 70.86 589.36 77.71 590.79 84.43 C 591.27 85.77 589.57 86.14 588.81 85.38 C 585.95 83.12 583.87 80.08 581.76 77.16 C 577.77 71.44 573.34 66.00 570.04 59.84 C 569.71 65.52 568.91 71.26 569.86 76.92 C 570.00 78.52 570.85 80.45 569.08 81.47 C 566.26 80.82 564.73 78.05 563.16 75.87 C 560.19 70.80 557.26 65.66 555.14 60.16 C 549.76 63.83 546.83 70.10 546.66 76.53 M 462.22 138.31 C 447.07 140.35 431.92 142.42 416.91 145.36 C 409.37 146.83 401.93 149.26 395.41 153.39 C 389.33 157.24 383.47 161.44 377.41 165.32 C 369.94 170.03 361.82 173.61 354.31 178.27 C 345.00 183.95 335.47 189.29 326.33 195.24 C 319.51 199.53 313.10 204.40 306.44 208.92 C 308.51 219.25 313.03 229.05 319.77 237.17 C 324.92 243.64 330.16 250.25 337.04 254.98 C 344.01 259.86 351.98 262.92 359.54 266.70 C 367.87 259.83 377.60 254.70 388.07 252.00 C 394.12 250.11 400.59 250.42 406.77 251.41 C 409.70 252.49 411.65 255.19 413.23 257.76 C 418.93 267.81 421.13 279.35 426.27 289.66 C 430.88 299.09 436.69 307.87 442.11 316.85 C 444.57 321.08 447.72 325.03 448.87 329.89 C 444.93 327.11 442.49 322.90 439.84 319.00 C 434.35 310.81 429.02 302.51 424.14 293.94 C 418.31 283.65 415.69 272.01 411.00 261.23 C 410.43 276.79 405.00 291.66 403.56 307.12 C 402.85 314.68 404.34 322.22 406.53 329.43 C 409.48 339.11 408.69 350.28 415.30 358.57 C 420.21 364.64 425.49 370.45 431.24 375.74 C 440.77 384.50 453.48 388.25 465.54 392.05 C 463.80 393.86 461.18 393.17 459.01 392.86 C 451.34 391.28 444.00 388.37 437.05 384.81 C 428.37 380.30 421.81 372.81 415.62 365.44 C 412.51 361.80 409.91 357.67 408.59 353.04 C 407.25 361.42 402.68 368.72 399.38 376.41 C 391.31 393.69 392.40 413.55 395.40 431.90 C 406.49 434.38 417.81 435.49 429.04 437.11 C 464.93 441.82 501.24 444.42 537.42 442.13 C 555.94 440.63 574.91 438.24 591.70 429.75 C 598.95 425.93 606.61 422.03 611.57 415.25 C 606.24 404.78 595.82 397.70 591.66 386.55 C 590.21 383.16 592.84 380.20 594.64 377.61 C 598.83 371.67 602.08 364.12 600.10 356.77 C 598.30 350.40 596.04 343.93 591.74 338.77 C 584.74 344.78 577.21 350.76 568.08 353.03 C 559.18 355.47 549.79 354.62 540.92 352.52 C 532.05 350.56 523.22 348.38 514.55 345.68 C 512.38 344.95 509.95 344.35 508.62 342.31 C 515.24 342.36 521.51 344.78 527.95 346.04 C 539.43 348.49 551.13 351.92 562.97 350.20 C 572.14 349.11 580.38 344.17 586.98 337.90 C 596.15 329.41 604.87 320.29 612.18 310.14 C 619.10 301.70 617.24 290.04 618.57 279.95 C 619.66 280.58 620.75 281.42 620.68 282.85 C 621.73 291.83 621.00 301.07 618.01 309.64 C 623.69 304.44 629.44 299.00 632.86 291.97 C 635.52 287.18 636.52 281.76 637.96 276.54 C 639.41 281.10 637.58 285.76 636.33 290.14 C 633.26 300.49 625.40 308.69 616.62 314.59 C 617.46 319.87 618.28 325.16 619.28 330.42 C 623.69 331.64 628.34 332.42 632.87 331.31 C 641.13 329.46 648.44 324.91 655.67 320.69 C 663.54 316.09 670.34 309.77 678.59 305.82 C 675.88 281.51 670.72 257.30 661.46 234.60 C 657.55 224.72 653.73 214.76 648.60 205.44 C 645.96 200.62 643.25 195.65 638.97 192.08 C 634.89 188.48 629.42 187.17 625.12 183.91 C 619.77 179.98 615.21 175.10 610.06 170.93 C 602.43 164.73 595.10 158.00 586.31 153.45 C 584.11 156.50 581.23 158.92 578.14 161.02 C 576.53 174.22 570.71 187.72 559.74 195.78 C 553.11 201.31 545.86 206.05 538.44 210.45 C 536.06 211.70 532.90 213.71 530.45 211.53 C 525.15 207.51 521.14 202.13 517.19 196.86 C 507.87 184.90 502.41 170.09 501.10 155.04 C 500.26 146.01 502.23 137.01 501.69 128.00 C 489.31 133.87 475.69 136.37 462.22 138.31 M 267.77 241.71 C 261.88 247.08 257.73 254.16 255.63 261.83 C 253.02 271.53 250.37 281.23 248.02 291.00 C 240.71 318.70 230.59 345.61 218.55 371.59 C 213.95 379.76 210.26 388.71 203.52 395.43 C 199.65 399.61 196.31 404.24 192.48 408.45 C 181.87 419.57 171.39 430.90 162.44 443.42 C 159.41 447.66 156.50 452.08 154.90 457.09 C 164.00 451.42 171.79 443.92 180.11 437.20 C 185.01 433.33 189.18 428.32 194.94 425.67 L 195.80 426.09 C 186.61 439.40 175.87 451.73 168.17 466.04 C 166.27 469.83 164.22 473.86 164.59 478.23 C 166.59 477.93 168.67 477.57 170.34 476.33 C 177.03 471.81 182.16 465.43 187.27 459.27 C 191.01 454.68 193.95 449.40 198.35 445.37 C 198.54 451.11 193.47 455.17 191.05 460.02 C 186.42 468.81 181.51 478.19 181.68 488.39 C 183.79 487.38 185.74 486.05 187.38 484.39 C 195.37 476.61 202.39 467.85 208.42 458.47 C 210.15 455.92 211.67 453.12 214.18 451.22 C 213.92 459.08 208.02 465.11 204.79 471.90 C 202.33 478.20 199.86 484.64 199.30 491.45 C 205.00 487.13 209.88 481.79 213.78 475.80 C 227.06 457.36 231.97 434.66 236.48 412.81 C 237.59 405.61 238.13 398.29 240.17 391.26 C 241.66 385.87 244.25 380.87 246.89 375.97 C 257.26 355.69 273.64 339.24 284.08 319.00 C 287.93 311.57 291.11 303.81 294.22 296.05 C 295.60 292.69 296.98 289.19 299.62 286.61 C 310.98 275.70 325.96 270.18 339.34 262.34 C 330.50 257.16 323.28 249.74 317.26 241.54 C 310.69 233.51 305.66 224.14 303.60 213.91 C 291.59 223.09 278.90 231.44 267.77 241.71 M 649.52 328.50 C 642.70 332.24 635.47 335.83 627.52 336.04 C 631.86 345.58 634.76 355.69 638.56 365.44 C 644.83 381.58 648.91 398.61 657.08 413.97 C 664.55 428.27 679.37 437.11 686.16 451.86 C 691.10 461.89 692.17 474.30 700.89 482.13 C 708.75 488.25 718.18 491.94 726.30 497.68 C 729.09 499.61 731.27 502.23 733.85 504.40 C 733.93 494.21 726.27 486.37 723.67 476.95 C 723.05 475.16 725.18 473.77 726.76 474.37 C 730.86 475.54 734.59 477.72 738.38 479.67 C 740.34 480.85 742.98 482.26 742.93 484.92 C 742.85 490.66 741.52 496.29 741.00 501.99 C 740.05 511.83 736.60 521.38 736.82 531.33 C 740.85 527.44 742.74 522.03 745.01 517.04 C 746.64 513.04 748.58 509.14 749.83 505.00 C 751.05 496.30 746.28 488.05 746.72 479.45 C 749.99 482.39 750.71 487.02 752.16 490.97 C 756.50 504.99 751.09 519.33 749.73 533.37 L 748.67 534.58 C 750.39 534.77 750.88 532.77 751.68 531.65 C 755.04 525.13 758.46 518.46 759.77 511.18 C 760.95 502.39 760.44 493.51 760.38 484.68 C 762.59 485.39 762.51 488.01 762.92 489.89 C 763.72 496.42 763.88 503.05 763.34 509.62 C 766.08 503.79 769.34 498.10 770.74 491.75 C 771.35 488.64 770.00 485.43 767.51 483.54 C 763.20 479.81 759.22 475.68 756.17 470.85 C 754.48 468.17 752.24 465.84 749.38 464.42 C 741.67 459.82 732.85 457.02 726.04 450.98 C 723.09 448.38 721.31 444.78 719.90 441.18 C 715.95 431.31 712.60 421.08 706.96 411.99 C 702.87 405.29 698.17 398.96 692.77 393.26 C 687.23 387.28 682.07 380.71 679.11 373.03 C 675.84 364.05 675.51 354.41 674.83 344.97 C 674.02 334.03 674.90 323.06 674.37 312.11 C 666.20 317.73 658.33 323.86 649.52 328.50 M 579.06 439.92 C 555.12 447.15 529.83 447.60 505.02 447.56 C 478.53 446.94 452.10 444.52 425.88 440.77 C 415.60 439.22 405.20 438.23 395.12 435.63 C 392.55 443.86 387.81 451.42 386.52 460.03 C 386.93 467.60 392.76 473.58 394.15 480.92 C 394.49 486.34 391.85 491.32 390.71 496.51 C 385.35 517.16 381.90 539.31 387.66 560.25 C 396.34 551.02 408.78 546.17 421.18 544.77 C 437.57 543.00 454.27 546.22 469.31 552.77 C 484.91 559.60 499.14 569.80 510.02 582.95 C 513.45 573.71 515.92 563.94 515.62 554.02 C 515.66 552.46 515.25 550.54 517.04 549.82 C 520.79 550.93 523.60 554.01 526.35 556.66 C 541.79 574.17 553.34 594.69 568.69 612.27 C 572.77 616.79 578.33 621.66 584.91 620.40 C 596.55 618.55 608.35 619.38 620.06 618.77 C 629.46 618.30 638.23 614.69 647.07 611.83 C 658.62 608.13 670.06 603.79 682.09 601.90 C 688.46 600.87 694.88 599.27 701.39 599.90 C 700.48 592.33 698.39 584.87 694.93 578.08 C 689.52 568.39 682.71 559.59 676.85 550.19 C 674.62 546.20 673.94 541.62 672.76 537.27 C 670.57 528.46 667.13 520.03 663.17 511.88 C 654.22 492.85 650.12 471.75 639.40 453.52 C 632.46 441.11 622.84 430.48 612.21 421.14 C 603.03 430.13 591.07 435.75 579.06 439.92 M 728.56 478.74 C 731.35 484.65 734.72 490.31 736.64 496.59 C 736.99 492.37 738.75 487.93 737.29 483.78 C 735.15 481.11 731.45 480.36 728.56 478.74 M 764.01 514.92 C 764.95 519.16 765.33 523.60 767.38 527.51 C 770.26 518.77 769.69 509.39 771.77 500.48 C 769.32 505.37 766.82 510.23 764.01 514.92 M 402.29 554.32 C 401.95 562.21 402.03 570.11 401.93 578.01 C 402.65 591.02 403.19 604.04 404.19 617.04 C 404.95 625.51 405.79 634.11 408.73 642.16 C 410.78 648.20 414.36 653.58 416.27 659.68 C 419.94 669.63 420.70 680.62 425.96 689.97 C 428.87 695.26 433.93 698.66 438.66 702.16 C 435.81 705.82 431.42 701.99 428.54 700.37 C 429.78 706.53 430.30 712.80 431.25 719.00 C 441.82 721.34 452.77 719.51 463.17 717.18 C 472.02 714.91 481.21 712.28 488.31 706.24 C 487.55 701.53 486.59 696.84 486.41 692.07 C 485.79 678.78 484.69 665.26 487.56 652.14 C 491.31 635.92 496.35 620.03 500.80 604.00 C 502.61 597.39 505.00 590.91 506.00 584.11 C 491.24 567.70 471.46 555.85 449.95 550.86 C 434.24 547.08 417.12 547.51 402.29 554.32 M 645.18 617.34 C 639.15 619.24 633.18 621.47 626.92 622.48 C 616.22 624.45 605.31 622.75 594.55 624.00 C 614.31 636.48 631.18 652.98 646.93 670.12 C 656.20 680.69 665.56 691.33 673.05 703.27 C 673.13 703.86 673.28 705.06 673.35 705.66 C 669.66 702.63 667.04 698.57 663.71 695.19 C 663.53 700.40 665.66 705.36 668.11 709.84 C 677.91 726.42 700.78 732.87 718.16 725.15 C 724.61 722.30 729.91 716.92 732.70 710.46 C 733.16 705.35 732.19 700.18 731.35 695.14 C 728.88 683.34 725.34 671.78 721.33 660.41 C 714.69 641.13 707.02 622.19 697.94 603.92 C 679.85 606.11 662.46 611.81 645.18 617.34 M 665.04 737.95 C 668.95 754.21 674.98 770.05 683.66 784.38 C 686.89 789.30 689.88 794.73 695.00 797.97 C 700.87 802.34 709.53 800.38 714.41 795.42 C 716.94 792.16 717.97 788.06 719.26 784.22 C 723.15 771.52 727.94 759.08 730.86 746.10 C 733.41 736.29 733.67 726.08 733.32 716.00 C 728.43 723.72 720.32 729.16 711.48 731.26 C 691.94 736.07 669.35 724.35 663.27 704.89 C 662.55 715.93 662.46 727.12 665.04 737.95 M 457.17 722.61 C 448.63 723.91 439.68 724.74 431.31 722.10 C 432.60 736.04 433.52 750.06 436.12 763.84 C 439.45 783.02 443.26 802.43 451.79 820.08 C 459.44 836.42 470.62 850.69 480.22 865.87 C 488.06 878.76 495.14 892.17 500.62 906.24 C 503.71 900.13 506.51 892.95 512.88 889.57 C 522.62 886.89 531.95 893.07 538.82 899.39 C 537.25 892.72 534.92 886.25 533.75 879.49 C 532.45 871.77 530.93 864.10 529.32 856.45 C 527.02 846.09 525.96 835.50 524.07 825.07 C 521.63 811.61 521.37 797.84 518.34 784.48 C 514.55 770.01 508.11 756.43 501.97 742.85 C 496.91 732.41 493.05 721.46 489.17 710.55 C 479.96 717.58 468.39 720.60 457.17 722.61 M 727.03 773.96 C 725.07 779.73 722.90 785.45 721.39 791.37 C 720.22 796.15 717.15 800.68 712.42 802.50 C 706.18 805.13 698.00 806.23 692.47 801.49 C 684.95 795.41 679.93 786.93 675.25 778.62 C 675.31 788.75 675.38 800.30 683.10 807.97 C 692.99 818.24 707.06 822.41 720.19 826.84 C 728.00 829.42 735.17 833.51 742.18 837.76 C 754.45 845.10 768.60 849.95 783.02 849.58 C 794.18 849.35 804.42 844.39 814.41 839.91 C 811.27 830.43 806.61 821.42 800.64 813.42 C 793.08 803.55 782.41 796.31 770.64 792.45 C 755.53 787.79 740.98 781.38 727.03 773.96 M 514.40 893.50 C 511.13 895.63 509.79 899.56 507.82 902.76 C 503.09 910.86 501.74 920.33 497.74 928.74 C 492.16 940.33 481.60 948.68 470.39 954.50 C 466.58 956.41 462.83 959.15 461.21 963.24 C 460.33 965.93 462.92 968.02 464.98 969.21 C 472.52 973.35 481.33 975.28 489.92 974.42 C 499.32 973.48 509.03 972.83 517.65 968.57 C 523.29 965.67 529.78 965.59 535.95 966.29 C 544.03 967.27 552.64 966.93 559.93 962.95 C 564.25 961.03 562.50 955.48 562.17 951.82 C 559.36 941.46 556.69 930.92 551.61 921.41 C 548.72 915.86 543.84 911.82 539.66 907.31 C 534.19 901.96 528.42 896.43 521.06 893.86 C 518.95 893.22 516.50 892.53 514.40 893.50 Z" />
		<path fill="#020202" opacity="1.00"
			d=" M 577.13 130.44 C 579.53 127.67 581.67 124.63 584.62 122.39 C 585.13 125.85 585.87 129.45 585.18 132.93 C 582.35 134.43 579.26 135.63 576.05 135.97 C 573.62 134.77 570.58 133.11 570.06 130.19 C 572.42 130.22 574.77 130.31 577.13 130.44 Z" />
		<path fill="#020202" opacity="1.00"
			d=" M 551.93 146.37 C 557.93 145.31 564.05 146.45 570.10 146.38 C 572.85 146.78 576.24 145.97 578.50 147.90 C 578.16 150.96 575.06 153.32 572.04 153.21 C 568.32 153.14 564.62 152.77 560.90 152.62 C 558.08 152.37 554.32 152.39 553.47 148.99 C 552.77 148.31 550.75 147.59 551.93 146.37 Z" />
		<path fill="#020202" opacity="1.00"
			d=" M 426.64 220.76 C 429.38 219.02 432.31 217.54 435.48 216.74 C 435.53 219.76 432.42 220.88 430.47 222.53 C 421.30 229.62 410.95 235.18 399.98 238.91 C 395.36 240.41 390.66 241.66 386.02 243.08 C 383.64 243.72 381.21 244.60 378.72 244.21 C 378.42 242.20 380.61 241.65 382.00 241.00 C 397.36 235.43 412.78 229.54 426.64 220.76 Z" />
		<path fill="#020202" opacity="1.00"
			d=" M 411.59 243.57 C 419.18 240.19 426.88 236.79 435.07 235.17 C 434.66 237.31 432.45 237.99 430.76 238.87 C 425.89 241.12 420.97 243.23 416.06 245.39 C 422.55 246.68 429.70 246.53 435.61 249.70 L 435.04 250.76 C 429.96 251.07 424.94 249.86 419.88 249.52 C 415.90 248.90 411.75 249.25 407.89 248.04 C 406.66 245.40 409.84 244.57 411.59 243.57 Z" />
		<path fill="#020202" opacity="1.00"
			d=" M 549.83 389.09 C 565.56 387.34 579.68 379.13 592.11 369.79 C 591.52 371.78 590.39 373.58 588.70 374.82 C 579.95 381.81 569.99 387.45 559.19 390.55 C 567.82 392.20 576.59 392.86 585.36 393.26 C 584.63 394.50 583.48 395.30 582.00 395.25 C 572.21 396.04 562.41 394.42 552.86 392.40 C 551.12 392.00 548.17 391.44 549.83 389.09 Z" />
		<path fill="#020202" opacity="1.00"
			d=" M 408.50 387.65 C 412.39 389.62 415.85 392.37 419.90 394.06 C 426.34 396.82 433.19 398.42 440.01 399.96 C 463.84 405.44 488.47 408.11 512.91 406.13 C 519.41 405.57 526.10 405.00 532.04 402.05 C 531.91 403.37 531.98 404.98 530.59 405.68 C 525.63 408.60 519.70 409.11 514.11 409.82 C 486.22 412.62 458.00 409.03 430.96 402.03 C 422.82 399.89 414.21 396.76 408.84 389.93 C 408.76 389.36 408.58 388.22 408.50 387.65 Z" />
	</g>
	<g id="#f0b58bff">
		<path fill="#f0b58b" opacity="1.00"
			d=" M 546.66 76.53 C 546.83 70.10 549.76 63.83 555.14 60.16 C 557.26 65.66 560.19 70.80 563.16 75.87 C 564.73 78.05 566.26 80.82 569.08 81.47 C 570.85 80.45 570.00 78.52 569.86 76.92 C 568.91 71.26 569.71 65.52 570.04 59.84 C 573.34 66.00 577.77 71.44 581.76 77.16 C 583.87 80.08 585.95 83.12 588.81 85.38 C 589.57 86.14 591.27 85.77 590.79 84.43 C 589.36 77.71 588.90 70.86 588.27 64.04 C 591.00 67.89 593.98 71.57 597.38 74.87 C 596.81 79.73 595.84 84.53 595.36 89.40 C 590.54 90.52 584.86 91.50 581.81 95.83 C 577.44 103.30 578.63 112.64 581.80 120.32 C 582.16 122.24 584.40 121.29 584.61 119.91 C 585.45 116.08 585.59 112.14 586.10 108.26 C 588.66 108.76 591.21 109.38 593.71 110.18 C 592.53 121.25 590.06 132.15 586.85 142.80 C 585.38 147.45 583.33 152.28 579.30 155.28 C 574.00 159.24 568.17 162.57 561.90 164.70 C 557.15 166.36 552.08 165.77 547.19 165.40 C 550.42 168.28 555.02 168.00 559.05 167.78 C 563.94 167.54 568.62 165.94 573.06 163.94 C 570.19 171.98 567.56 180.33 562.20 187.12 C 559.02 191.64 554.22 194.53 549.93 197.86 C 544.76 201.80 539.33 205.37 533.87 208.89 C 531.55 206.94 529.28 204.90 527.44 202.48 C 521.58 194.94 515.25 187.56 511.55 178.65 C 505.98 166.61 504.31 153.16 504.77 140.01 C 504.09 132.56 506.99 125.48 507.39 118.10 C 508.24 110.69 507.28 103.23 505.65 96.00 C 504.82 93.33 506.77 89.25 510.03 90.63 C 514.84 92.76 516.15 98.50 517.30 103.14 C 519.13 110.32 519.10 117.76 518.72 125.11 C 518.17 127.02 520.97 126.95 521.58 125.69 C 527.96 118.70 527.34 108.64 529.85 100.07 C 542.60 98.66 555.22 102.69 567.96 102.17 C 570.24 101.60 570.77 98.97 571.22 97.01 C 571.77 94.69 572.11 91.64 569.83 90.10 C 563.82 85.76 556.18 84.71 548.99 83.97 C 542.86 83.32 537.09 85.88 531.51 88.02 C 531.83 81.88 529.84 75.98 526.95 70.65 C 529.91 72.46 532.50 74.78 535.25 76.88 C 536.86 73.26 535.99 69.27 535.65 65.49 C 538.18 67.54 541.00 69.39 542.84 72.14 C 543.98 73.71 544.81 75.64 546.66 76.53 M 577.13 130.44 C 574.77 130.31 572.42 130.22 570.06 130.19 C 570.58 133.11 573.62 134.77 576.05 135.97 C 579.26 135.63 582.35 134.43 585.18 132.93 C 585.87 129.45 585.13 125.85 584.62 122.39 C 581.67 124.63 579.53 127.67 577.13 130.44 M 551.93 146.37 C 550.75 147.59 552.77 148.31 553.47 148.99 C 554.32 152.39 558.08 152.37 560.90 152.62 C 564.62 152.77 568.32 153.14 572.04 153.21 C 575.06 153.32 578.16 150.96 578.50 147.90 C 576.24 145.97 572.85 146.78 570.10 146.38 C 564.05 146.45 557.93 145.31 551.93 146.37 Z" />
		<path fill="#f0b58b" opacity="1.00"
			d=" M 267.77 241.71 C 278.90 231.44 291.59 223.09 303.60 213.91 C 305.66 224.14 310.69 233.51 317.26 241.54 C 323.28 249.74 330.50 257.16 339.34 262.34 C 325.96 270.18 310.98 275.70 299.62 286.61 C 296.98 289.19 295.60 292.69 294.22 296.05 C 291.11 303.81 287.93 311.57 284.08 319.00 C 273.64 339.24 257.26 355.69 246.89 375.97 C 244.25 380.87 241.66 385.87 240.17 391.26 C 238.13 398.29 237.59 405.61 236.48 412.81 C 231.97 434.66 227.06 457.36 213.78 475.80 C 209.88 481.79 205.00 487.13 199.30 491.45 C 199.86 484.64 202.33 478.20 204.79 471.90 C 208.02 465.11 213.92 459.08 214.18 451.22 C 211.67 453.12 210.15 455.92 208.42 458.47 C 202.39 467.85 195.37 476.61 187.38 484.39 C 185.74 486.05 183.79 487.38 181.68 488.39 C 181.51 478.19 186.42 468.81 191.05 460.02 C 193.47 455.17 198.54 451.11 198.35 445.37 C 193.95 449.40 191.01 454.68 187.27 459.27 C 182.16 465.43 177.03 471.81 170.34 476.33 C 168.67 477.57 166.59 477.93 164.59 478.23 C 164.22 473.86 166.27 469.83 168.17 466.04 C 175.87 451.73 186.61 439.40 195.80 426.09 L 194.94 425.67 C 189.18 428.32 185.01 433.33 180.11 437.20 C 171.79 443.92 164.00 451.42 154.90 457.09 C 156.50 452.08 159.41 447.66 162.44 443.42 C 171.39 430.90 181.87 419.57 192.48 408.45 C 196.31 404.24 199.65 399.61 203.52 395.43 C 210.26 388.71 213.95 379.76 218.55 371.59 C 230.59 345.61 240.71 318.70 248.02 291.00 C 250.37 281.23 253.02 271.53 255.63 261.83 C 257.73 254.16 261.88 247.08 267.77 241.71 Z" />
		<path fill="#f0b58b" opacity="1.00"
			d=" M 649.52 328.50 C 658.33 323.86 666.20 317.73 674.37 312.11 C 674.90 323.06 674.02 334.03 674.83 344.97 C 675.51 354.41 675.84 364.05 679.11 373.03 C 682.07 380.71 687.23 387.28 692.77 393.26 C 698.17 398.96 702.87 405.29 706.96 411.99 C 712.60 421.08 715.95 431.31 719.90 441.18 C 721.31 444.78 723.09 448.38 726.04 450.98 C 732.85 457.02 741.67 459.82 749.38 464.42 C 752.24 465.84 754.48 468.17 756.17 470.85 C 759.22 475.68 763.20 479.81 767.51 483.54 C 770.00 485.43 771.35 488.64 770.74 491.75 C 769.34 498.10 766.08 503.79 763.34 509.62 C 763.88 503.05 763.72 496.42 762.92 489.89 C 762.51 488.01 762.59 485.39 760.38 484.68 C 760.44 493.51 760.95 502.39 759.77 511.18 C 758.46 518.46 755.04 525.13 751.68 531.65 C 750.88 532.77 750.39 534.77 748.67 534.58 L 749.73 533.37 C 751.09 519.33 756.50 504.99 752.16 490.97 C 750.71 487.02 749.99 482.39 746.72 479.45 C 746.28 488.05 751.05 496.30 749.83 505.00 C 748.58 509.14 746.64 513.04 745.01 517.04 C 742.74 522.03 740.85 527.44 736.82 531.33 C 736.60 521.38 740.05 511.83 741.00 501.99 C 741.52 496.29 742.85 490.66 742.93 484.92 C 742.98 482.26 740.34 480.85 738.38 479.67 C 734.59 477.72 730.86 475.54 726.76 474.37 C 725.18 473.77 723.05 475.16 723.67 476.95 C 726.27 486.37 733.93 494.21 733.85 504.40 C 731.27 502.23 729.09 499.61 726.30 497.68 C 718.18 491.94 708.75 488.25 700.89 482.13 C 692.17 474.30 691.10 461.89 686.16 451.86 C 679.37 437.11 664.55 428.27 657.08 413.97 C 648.91 398.61 644.83 381.58 638.56 365.44 C 634.76 355.69 631.86 345.58 627.52 336.04 C 635.47 335.83 642.70 332.24 649.52 328.50 Z" />
		<path fill="#f0b58b" opacity="1.00"
			d=" M 764.01 514.92 C 766.82 510.23 769.32 505.37 771.77 500.48 C 769.69 509.39 770.26 518.77 767.38 527.51 C 765.33 523.60 764.95 519.16 764.01 514.92 Z" />
		<path fill="#f0b58b" opacity="1.00"
			d=" M 402.29 554.32 C 417.12 547.51 434.24 547.08 449.95 550.86 C 471.46 555.85 491.24 567.70 506.00 584.11 C 505.00 590.91 502.61 597.39 500.80 604.00 C 496.35 620.03 491.31 635.92 487.56 652.14 C 484.69 665.26 485.79 678.78 486.41 692.07 C 486.59 696.84 487.55 701.53 488.31 706.24 C 481.21 712.28 472.02 714.91 463.17 717.18 C 452.77 719.51 441.82 721.34 431.25 719.00 C 430.30 712.80 429.78 706.53 428.54 700.37 C 431.42 701.99 435.81 705.82 438.66 702.16 C 433.93 698.66 428.87 695.26 425.96 689.97 C 420.70 680.62 419.94 669.63 416.27 659.68 C 414.36 653.58 410.78 648.20 408.73 642.16 C 405.79 634.11 404.95 625.51 404.19 617.04 C 403.19 604.04 402.65 591.02 401.93 578.01 C 402.03 570.11 401.95 562.21 402.29 554.32 Z" />
		<path fill="#f0b58b" opacity="1.00"
			d=" M 645.18 617.34 C 662.46 611.81 679.85 606.11 697.94 603.92 C 707.02 622.19 714.69 641.13 721.33 660.41 C 725.34 671.78 728.88 683.34 731.35 695.14 C 732.19 700.18 733.16 705.35 732.70 710.46 C 729.91 716.92 724.61 722.30 718.16 725.15 C 700.78 732.87 677.91 726.42 668.11 709.84 C 665.66 705.36 663.53 700.40 663.71 695.19 C 667.04 698.57 669.66 702.63 673.35 705.66 C 673.28 705.06 673.13 703.86 673.05 703.27 C 665.56 691.33 656.20 680.69 646.93 670.12 C 631.18 652.98 614.31 636.48 594.55 624.00 C 605.31 622.75 616.22 624.45 626.92 622.48 C 633.18 621.47 639.15 619.24 645.18 617.34 Z" />
	</g>
	<g id="#f11b27ff">
		<path fill="var(--shirt-color, grey)" opacity="1.00"
			d=" M 462.22 138.31 C 475.69 136.37 489.31 133.87 501.69 128.00 C 502.23 137.01 500.26 146.01 501.10 155.04 C 502.41 170.09 507.87 184.90 517.19 196.86 C 521.14 202.13 525.15 207.51 530.45 211.53 C 532.90 213.71 536.06 211.70 538.44 210.45 C 545.86 206.05 553.11 201.31 559.74 195.78 C 570.71 187.72 576.53 174.22 578.14 161.02 C 581.23 158.92 584.11 156.50 586.31 153.45 C 595.10 158.00 602.43 164.73 610.06 170.93 C 615.21 175.10 619.77 179.98 625.12 183.91 C 629.42 187.17 634.89 188.48 638.97 192.08 C 643.25 195.65 645.96 200.62 648.60 205.44 C 653.73 214.76 657.55 224.72 661.46 234.60 C 670.72 257.30 675.88 281.51 678.59 305.82 C 670.34 309.77 663.54 316.09 655.67 320.69 C 648.44 324.91 641.13 329.46 632.87 331.31 C 628.34 332.42 623.69 331.64 619.28 330.42 C 618.28 325.16 617.46 319.87 616.62 314.59 C 625.40 308.69 633.26 300.49 636.33 290.14 C 637.58 285.76 639.41 281.10 637.96 276.54 C 636.52 281.76 635.52 287.18 632.86 291.97 C 629.44 299.00 623.69 304.44 618.01 309.64 C 621.00 301.07 621.73 291.83 620.68 282.85 C 620.75 281.42 619.66 280.58 618.57 279.95 C 617.24 290.04 619.10 301.70 612.18 310.14 C 604.87 320.29 596.15 329.41 586.98 337.90 C 580.38 344.17 572.14 349.11 562.97 350.20 C 551.13 351.92 539.43 348.49 527.95 346.04 C 521.51 344.78 515.24 342.36 508.62 342.31 C 509.95 344.35 512.38 344.95 514.55 345.68 C 523.22 348.38 532.05 350.56 540.92 352.52 C 549.79 354.62 559.18 355.47 568.08 353.03 C 577.21 350.76 584.74 344.78 591.74 338.77 C 596.04 343.93 598.30 350.40 600.10 356.77 C 602.08 364.12 598.83 371.67 594.64 377.61 C 592.84 380.20 590.21 383.16 591.66 386.55 C 595.82 397.70 606.24 404.78 611.57 415.25 C 606.61 422.03 598.95 425.93 591.70 429.75 C 574.91 438.24 555.94 440.63 537.42 442.13 C 501.24 444.42 464.93 441.82 429.04 437.11 C 417.81 435.49 406.49 434.38 395.40 431.90 C 392.40 413.55 391.31 393.69 399.38 376.41 C 402.68 368.72 407.25 361.42 408.59 353.04 C 409.91 357.67 412.51 361.80 415.62 365.44 C 421.81 372.81 428.37 380.30 437.05 384.81 C 444.00 388.37 451.34 391.28 459.01 392.86 C 461.18 393.17 463.80 393.86 465.54 392.05 C 453.48 388.25 440.77 384.50 431.24 375.74 C 425.49 370.45 420.21 364.64 415.30 358.57 C 408.69 350.28 409.48 339.11 406.53 329.43 C 404.34 322.22 402.85 314.68 403.56 307.12 C 405.00 291.66 410.43 276.79 411.00 261.23 C 415.69 272.01 418.31 283.65 424.14 293.94 C 429.02 302.51 434.35 310.81 439.84 319.00 C 442.49 322.90 444.93 327.11 448.87 329.89 C 447.72 325.03 444.57 321.08 442.11 316.85 C 436.69 307.87 430.88 299.09 426.27 289.66 C 421.13 279.35 418.93 267.81 413.23 257.76 C 411.65 255.19 409.70 252.49 406.77 251.41 C 400.59 250.42 394.12 250.11 388.07 252.00 C 377.60 254.70 367.87 259.83 359.54 266.70 C 351.98 262.92 344.01 259.86 337.04 254.98 C 330.16 250.25 324.92 243.64 319.77 237.17 C 313.03 229.05 308.51 219.25 306.44 208.92 C 313.10 204.40 319.51 199.53 326.33 195.24 C 335.47 189.29 345.00 183.95 354.31 178.27 C 361.82 173.61 369.94 170.03 377.41 165.32 C 383.47 161.44 389.33 157.24 395.41 153.39 C 401.93 149.26 409.37 146.83 416.91 145.36 C 431.92 142.42 447.07 140.35 462.22 138.31 M 426.64 220.76 C 412.78 229.54 397.36 235.43 382.00 241.00 C 380.61 241.65 378.42 242.20 378.72 244.21 C 381.21 244.60 383.64 243.72 386.02 243.08 C 390.66 241.66 395.36 240.41 399.98 238.91 C 410.95 235.18 421.30 229.62 430.47 222.53 C 432.42 220.88 435.53 219.76 435.48 216.74 C 432.31 217.54 429.38 219.02 426.64 220.76 M 411.59 243.57 C 409.84 244.57 406.66 245.40 407.89 248.04 C 411.75 249.25 415.90 248.90 419.88 249.52 C 424.94 249.86 429.96 251.07 435.04 250.76 L 435.61 249.70 C 429.70 246.53 422.55 246.68 416.06 245.39 C 420.97 243.23 425.89 241.12 430.76 238.87 C 432.45 237.99 434.66 237.31 435.07 235.17 C 426.88 236.79 419.18 240.19 411.59 243.57 M 549.83 389.09 C 548.17 391.44 551.12 392.00 552.86 392.40 C 562.41 394.42 572.21 396.04 582.00 395.25 C 583.48 395.30 584.63 394.50 585.36 393.26 C 576.59 392.86 567.82 392.20 559.19 390.55 C 569.99 387.45 579.95 381.81 588.70 374.82 C 590.39 373.58 591.52 371.78 592.11 369.79 C 579.68 379.13 565.56 387.34 549.83 389.09 M 408.50 387.65 C 408.58 388.22 408.76 389.36 408.84 389.93 C 414.21 396.76 422.82 399.89 430.96 402.03 C 458.00 409.03 486.22 412.62 514.11 409.82 C 519.70 409.11 525.63 408.60 530.59 405.68 C 531.98 404.98 531.91 403.37 532.04 402.05 C 526.10 405.00 519.41 405.57 512.91 406.13 C 488.47 408.11 463.84 405.44 440.01 399.96 C 433.19 398.42 426.34 396.82 419.90 394.06 C 415.85 392.37 412.39 389.62 408.50 387.65 Z" />
	</g>
	<g id="#ffffffff">
		<path fill="var(--pants-color, grey)" opacity="1.00"
			d=" M 579.06 439.92 C 591.07 435.75 603.03 430.13 612.21 421.14 C 622.84 430.48 632.46 441.11 639.40 453.52 C 650.12 471.75 654.22 492.85 663.17 511.88 C 667.13 520.03 670.57 528.46 672.76 537.27 C 673.94 541.62 674.62 546.20 676.85 550.19 C 682.71 559.59 689.52 568.39 694.93 578.08 C 698.39 584.87 700.48 592.33 701.39 599.90 C 694.88 599.27 688.46 600.87 682.09 601.90 C 670.06 603.79 658.62 608.13 647.07 611.83 C 638.23 614.69 629.46 618.30 620.06 618.77 C 608.35 619.38 596.55 618.55 584.91 620.40 C 578.33 621.66 572.77 616.79 568.69 612.27 C 553.34 594.69 541.79 574.17 526.35 556.66 C 523.60 554.01 520.79 550.93 517.04 549.82 C 515.25 550.54 515.66 552.46 515.62 554.02 C 515.92 563.94 513.45 573.71 510.02 582.95 C 499.14 569.80 484.91 559.60 469.31 552.77 C 454.27 546.22 437.57 543.00 421.18 544.77 C 408.78 546.17 396.34 551.02 387.66 560.25 C 381.90 539.31 385.35 517.16 390.71 496.51 C 391.85 491.32 394.49 486.34 394.15 480.92 C 392.76 473.58 386.93 467.60 386.52 460.03 C 387.81 451.42 392.55 443.86 395.12 435.63 C 405.20 438.23 415.60 439.22 425.88 440.77 C 452.10 444.52 478.53 446.94 505.02 447.56 C 529.83 447.60 555.12 447.15 579.06 439.92 Z" />
		<path fill="var(--socks-color, grey)" opacity="1.00"
			d=" M 665.04 737.95 C 662.46 727.12 662.55 715.93 663.27 704.89 C 669.35 724.35 691.94 736.07 711.48 731.26 C 720.32 729.16 728.43 723.72 733.32 716.00 C 733.67 726.08 733.41 736.29 730.86 746.10 C 727.94 759.08 723.15 771.52 719.26 784.22 C 717.97 788.06 716.94 792.16 714.41 795.42 C 709.53 800.38 700.87 802.34 695.00 797.97 C 689.88 794.73 686.89 789.30 683.66 784.38 C 674.98 770.05 668.95 754.21 665.04 737.95 Z" />
		<path fill="var(--socks-color, grey)" opacity="1.00"
			d=" M 457.17 722.61 C 468.39 720.60 479.96 717.58 489.17 710.55 C 493.05 721.46 496.91 732.41 501.97 742.85 C 508.11 756.43 514.55 770.01 518.34 784.48 C 521.37 797.84 521.63 811.61 524.07 825.07 C 525.96 835.50 527.02 846.09 529.32 856.45 C 530.93 864.10 532.45 871.77 533.75 879.49 C 534.92 886.25 537.25 892.72 538.82 899.39 C 531.95 893.07 522.62 886.89 512.88 889.57 C 506.51 892.95 503.71 900.13 500.62 906.24 C 495.14 892.17 488.06 878.76 480.22 865.87 C 470.62 850.69 459.44 836.42 451.79 820.08 C 443.26 802.43 439.45 783.02 436.12 763.84 C 433.52 750.06 432.60 736.04 431.31 722.10 C 439.68 724.74 448.63 723.91 457.17 722.61 Z" />
	</g>
	<g id="#4d4d4dff">
		<path fill="#4d4d4d" opacity="1.00"
			d=" M 727.03 773.96 C 740.98 781.38 755.53 787.79 770.64 792.45 C 782.41 796.31 793.08 803.55 800.64 813.42 C 806.61 821.42 811.27 830.43 814.41 839.91 C 804.42 844.39 794.18 849.35 783.02 849.58 C 768.60 849.95 754.45 845.10 742.18 837.76 C 735.17 833.51 728.00 829.42 720.19 826.84 C 707.06 822.41 692.99 818.24 683.10 807.97 C 675.38 800.30 675.31 788.75 675.25 778.62 C 679.93 786.93 684.95 795.41 692.47 801.49 C 698.00 806.23 706.18 805.13 712.42 802.50 C 717.15 800.68 720.22 796.15 721.39 791.37 C 722.90 785.45 725.07 779.73 727.03 773.96 Z" />
		<path fill="#4d4d4d" opacity="1.00"
			d=" M 514.40 893.50 C 516.50 892.53 518.95 893.22 521.06 893.86 C 528.42 896.43 534.19 901.96 539.66 907.31 C 543.84 911.82 548.72 915.86 551.61 921.41 C 556.69 930.92 559.36 941.46 562.17 951.82 C 562.50 955.48 564.25 961.03 559.93 962.95 C 552.64 966.93 544.03 967.27 535.95 966.29 C 529.78 965.59 523.29 965.67 517.65 968.57 C 509.03 972.83 499.32 973.48 489.92 974.42 C 481.33 975.28 472.52 973.35 464.98 969.21 C 462.92 968.02 460.33 965.93 461.21 963.24 C 462.83 959.15 466.58 956.41 470.39 954.50 C 481.60 948.68 492.16 940.33 497.74 928.74 C 501.74 920.33 503.09 910.86 507.82 902.76 C 509.79 899.56 511.13 895.63 514.40 893.50 Z" />
	</g>
</svg>