<?xml version="1.0" encoding="utf-8" ?>
<svg xmlns="http://www.w3.org/2000/svg" xmlns:ev="http://www.w3.org/2001/xml-events" xmlns:xlink="http://www.w3.org/1999/xlink" baseProfile="full" height="25px" version="1.1" viewBox="0 0 25 25" width="25px">
  <defs/>
  <g id="x000000_r0_g0_b0_a1.0">
    <path d="M 19,13 25,13 25,14 18,14 18,13 17,13 17,12 18,12 18,5 16,5 16,4 14,4 5,4 5,5 4,5 4,3 17,3 17,4 18,4 18,3 25,3 25,4 19,4 z" fill="#000000" fill-opacity="1.0" id="x000000_r0_g0_b0_a1.0_shape1"/>
    <path d="M 12,20 12,17 13,17 13,15 14,15 14,14 15,14 15,13 16,13 17,13 17,14 16,14 16,15 15,15 15,16 14,16 14,18 13,18 13,20 13,22 12,22 10,22 10,21 12,21 z" fill="#000000" fill-opacity="1.0" id="x000000_r0_g0_b0_a1.0_shape2"/>
    <path d="M 8,16 2,16 2,14 3,14 3,15 10,15 10,18 9,18 9,17 8,17 z" fill="#000000" fill-opacity="1.0" id="x000000_r0_g0_b0_a1.0_shape3"/>
    <path d="M 3,10 3,11 2,11 2,7 3,7 3,9 7,9 7,10 z" fill="#000000" fill-opacity="1.0" id="x000000_r0_g0_b0_a1.0_shape4"/>
    <path d="M 2,13 2,12 7,12 8,12 8,13 7,13 z" fill="#000000" fill-opacity="1.0" id="x000000_r0_g0_b0_a1.0_shape5"/>
    <path d="M 7,6 7,7 3,7 3,5 4,5 4,6 z" fill="#000000" fill-opacity="1.0" id="x000000_r0_g0_b0_a1.0_shape6"/>
    <path d="M 10,20 10,21 9,21 9,20 9,19 10,19 z" fill="#000000" fill-opacity="1.0" id="x000000_r0_g0_b0_a1.0_shape7"/>
  </g>
</svg>
