<svg xmlns="http://www.w3.org/2000/svg" viewBox="0 0 80 80" enable-background="new 0 0 80 80">
 <rect x="2.5" y="2.6" fill="#ddd" width="75" height="75"/>
 <rect x="2.5" y="2.6" fill="none" stroke="#000" stroke-width="5" stroke-miterlimit="10" width="75" height="75"/>
 <path d="m58.9 65.5c-2.6 1.3-7.8 2.6-14.4 2.6-15.4 0-26.9-9.7-26.9-27.6 0-17 11.6-28.6 28.4-28.6 6.8 0 11.1 1.5 12.9 2.4l-1.7 5.7c-2.7-1.3-6.5-2.3-11-2.3-12.8 0-21.2 8.2-21.2 22.5 0 13.3 7.7 21.9 20.9 21.9 4.3 0 8.6-.9 11.5-2.3l1.5 5.7"/>
</svg>
