<svg xmlns="http://www.w3.org/2000/svg" viewBox="0 0 80 80" enable-background="new 0 0 80 80">
 <rect x="2.5" y="2.6" fill="#ddd" width="75" height="75"/>
 <rect x="2.5" y="2.6" fill="none" stroke="#000" stroke-width="5" stroke-miterlimit="10" width="75" height="75"/>
 <path d="m18.7 13.1c4.3-.7 9.5-1.1 15.2-1.1 10.2 0 17.5 2.4 22.4 6.9 4.9 4.5 7.8 10.9 7.8 19.8 0 9-2.8 16.4-7.9 21.5-5.2 5.2-13.7 7.9-24.4 7.9-5.1 0-9.3-.2-12.9-.7v-54.3zm7.1 48.8c1.8.3 4.4.4 7.2.4 15.2 0 23.5-8.5 23.5-23.4.1-13-7.3-21.3-22.4-21.3-3.7 0-6.5.3-8.4.7v43.6z"/>
</svg>
