<svg xmlns="http://www.w3.org/2000/svg" viewBox="0 0 80 80" enable-background="new 0 0 80 80">
 <circle fill="#ddd" cx="40.1" cy="40" r="37.6"/>
 <ellipse fill="none" stroke="#000" stroke-width="5" stroke-miterlimit="10" cx="40.1" cy="40" rx="37.4" ry="37.4"/>
 <path d="m25.1 13.1c3.1-.7 8-1.1 13-1.1 7.1 0 11.7 1.2 15.2 4 2.9 2.1 4.6 5.4 4.6 9.8 0 5.3-3.5 10-9.3 12.1v.1c5.2 1.3 11.4 5.6 11.4 13.8 0 4.8-1.9 8.4-4.7 11.1-3.9 3.5-10.1 5.2-19.1 5.2-4.9 0-8.7-.3-11.1-.7v-54.3m7.2 22.6h6.5c7.5 0 12-3.9 12-9.3 0-6.5-4.9-9-12.1-9-3.3 0-5.2.2-6.3.5v17.8zm0 26.5c1.4.2 3.4.3 6 .3 7.4 0 14.2-2.7 14.2-10.7 0-7.5-6.5-10.7-14.3-10.7h-5.9v21.1"/>
</svg>
