<?xml version="1.0" encoding="UTF-8" ?>
<!DOCTYPE svg PUBLIC "-//W3C//DTD SVG 1.1//EN" "http://www.w3.org/Graphics/SVG/1.1/DTD/svg11.dtd">
<svg width="1000pt" height="1000pt" viewBox="0 0 1000 1000" version="1.1" xmlns="http://www.w3.org/2000/svg">
	<g id="#020202ff">
		<path fill="#020202" opacity="1.00"
			d=" M 446.14 37.22 C 458.18 28.99 473.55 25.65 487.88 28.56 C 508.92 32.54 527.24 49.72 531.11 71.00 C 531.97 74.64 530.54 78.49 531.93 82.02 C 533.31 86.03 534.54 90.10 535.64 94.20 C 536.66 97.94 536.80 101.91 538.32 105.51 C 541.27 112.59 545.67 118.91 549.44 125.56 C 558.91 141.64 566.69 158.63 574.36 175.63 C 581.78 192.67 588.76 210.31 590.50 228.98 C 590.89 239.34 591.00 250.13 586.95 259.88 C 584.03 266.81 580.28 273.62 574.51 278.60 C 570.77 281.81 567.14 285.17 563.90 288.89 C 566.83 290.31 570.15 291.29 572.37 293.83 C 563.61 307.54 556.30 322.08 548.29 336.22 C 551.65 347.56 553.65 359.24 555.11 370.96 C 557.21 389.74 563.09 407.97 563.86 426.93 C 564.24 435.87 562.48 444.71 560.58 453.40 C 558.72 462.71 558.37 472.25 556.31 481.52 C 554.68 489.63 552.16 497.61 551.73 505.92 C 550.89 523.63 551.16 541.39 549.67 559.08 C 549.17 567.86 547.72 576.81 543.67 584.70 C 542.42 587.28 539.98 588.90 537.58 590.31 C 540.57 593.51 542.60 597.40 544.70 601.20 C 549.65 602.40 553.59 605.73 558.06 607.97 C 567.27 612.82 575.74 618.90 584.63 624.30 C 598.10 632.28 610.58 641.74 623.42 650.66 C 631.92 657.30 640.95 663.25 650.41 668.46 C 657.89 672.75 665.04 679.12 667.11 687.83 C 669.06 694.06 668.37 700.62 667.94 707.01 C 667.54 720.77 673.75 733.39 676.63 746.58 C 680.01 760.55 686.03 773.65 690.80 787.16 C 694.58 798.27 698.83 809.31 700.77 820.94 C 704.60 842.85 711.89 864.01 720.81 884.33 C 721.64 886.21 721.84 888.26 722.08 890.30 C 733.22 892.07 744.28 894.80 754.70 899.20 C 763.30 902.57 771.60 907.38 781.03 907.93 C 789.76 908.47 798.98 908.73 806.72 913.35 C 812.41 916.49 816.02 922.61 816.89 928.95 C 816.59 933.56 812.34 936.52 808.74 938.74 C 799.57 943.62 789.24 945.81 778.99 946.94 C 762.04 948.55 745.01 948.46 728.01 948.39 C 718.77 948.65 709.42 947.42 700.30 949.34 C 694.97 950.35 689.52 951.93 684.07 951.04 C 679.52 949.31 676.76 944.91 673.75 941.32 C 667.46 933.87 667.79 921.95 673.91 914.50 C 662.73 883.32 646.93 853.61 626.40 827.55 C 616.48 815.96 610.74 801.47 606.97 786.85 C 603.65 774.41 602.62 761.53 600.02 748.95 C 599.24 742.55 597.45 736.23 597.43 729.78 C 588.67 727.18 580.01 724.17 571.04 722.36 C 566.52 721.34 561.89 720.91 557.45 719.61 C 552.29 723.08 546.70 726.08 540.58 727.39 C 534.16 728.71 527.52 728.21 521.12 727.05 C 512.57 725.46 503.95 724.30 495.35 722.99 C 484.35 744.31 469.43 763.56 451.92 779.92 C 447.70 782.74 442.41 783.00 437.67 784.48 C 430.61 790.45 423.67 796.60 417.53 803.53 C 409.19 812.91 400.32 822.46 388.73 827.79 C 380.97 831.44 372.24 831.39 364.00 833.18 C 360.50 833.78 357.84 836.34 354.59 837.60 C 343.65 842.07 332.24 845.24 321.03 848.98 C 308.00 853.18 294.57 855.97 281.39 859.64 C 270.10 863.58 259.37 868.99 248.96 874.84 C 242.89 878.09 237.04 881.94 230.36 883.85 C 225.84 892.31 222.04 901.14 217.65 909.67 C 214.78 915.23 212.09 920.90 209.76 926.72 C 208.74 928.90 209.34 931.43 210.47 933.46 C 214.61 940.76 220.60 946.76 225.46 953.56 C 227.80 956.73 229.32 960.97 228.10 964.88 C 226.65 968.37 222.32 968.97 218.99 968.79 C 210.91 968.08 203.43 964.68 195.87 962.04 C 189.52 959.44 183.34 956.22 177.95 951.96 C 174.90 949.64 173.67 945.85 172.89 942.27 C 170.75 931.32 169.52 920.21 169.03 909.07 C 168.42 894.67 166.78 880.23 168.20 865.83 C 168.71 860.85 170.34 855.63 174.25 852.27 C 185.56 843.03 200.63 838.99 215.08 839.93 C 220.61 834.12 227.04 829.30 233.17 824.16 C 242.74 816.06 252.45 808.12 262.31 800.37 C 275.25 789.89 289.83 781.34 305.45 775.52 C 318.12 770.89 331.73 770.81 345.00 769.58 C 352.33 769.01 358.15 763.86 362.98 758.77 C 361.16 756.06 358.76 753.36 358.55 749.99 C 359.73 746.25 361.66 742.80 363.11 739.16 C 365.97 732.61 368.02 725.72 371.17 719.30 C 375.71 709.69 383.19 701.99 389.61 693.66 C 392.94 689.33 396.75 685.37 399.68 680.74 C 401.87 677.58 400.43 673.65 399.77 670.25 C 395.81 653.56 394.29 636.03 397.71 619.11 C 399.41 610.88 402.66 603.05 406.81 595.77 C 409.87 590.33 409.31 583.81 411.74 578.14 C 408.54 577.80 405.26 576.42 403.84 573.34 C 400.17 566.81 403.22 559.23 406.15 553.07 C 409.98 545.67 414.20 538.23 415.34 529.85 C 416.60 519.28 416.22 508.49 414.08 498.06 C 411.71 482.50 412.33 466.70 411.88 451.02 C 411.63 440.89 412.66 430.79 414.46 420.84 C 415.37 411.17 417.78 401.44 416.16 391.72 C 414.66 385.98 411.83 380.70 409.80 375.14 C 407.02 368.09 405.47 360.59 404.91 353.04 C 404.29 343.89 407.06 334.93 410.55 326.60 C 413.53 319.42 419.18 313.93 424.11 308.09 C 429.73 302.84 435.95 297.84 443.38 295.45 C 446.41 294.32 449.60 295.36 452.62 296.00 C 453.95 287.45 452.03 278.50 448.22 270.83 C 443.98 266.19 439.77 261.25 437.95 255.09 C 433.47 240.92 437.43 225.35 445.06 213.01 C 450.34 204.14 457.21 195.92 466.45 190.99 C 465.32 182.37 464.33 173.69 464.27 164.98 C 464.73 155.89 465.29 146.81 465.35 137.70 C 451.70 134.51 439.20 126.30 431.35 114.63 C 422.87 102.32 419.74 86.51 422.94 71.91 C 425.73 57.88 434.29 45.19 446.14 37.22 M 477.32 32.29 C 477.98 32.69 479.29 33.48 479.95 33.88 C 479.48 38.37 478.49 42.79 477.62 47.21 C 483.34 51.17 488.35 56.25 495.06 58.53 C 494.96 56.12 495.74 53.29 498.24 52.39 C 501.73 51.43 504.54 54.39 506.83 56.57 C 506.85 54.68 507.08 52.81 507.50 50.97 C 505.57 49.13 503.35 47.56 501.67 45.47 C 500.63 42.96 500.37 40.21 500.06 37.54 C 493.00 34.08 485.16 32.45 477.32 32.29 M 426.69 79.45 C 428.66 81.22 430.62 83.02 432.54 84.85 C 436.47 81.63 440.43 78.44 444.40 75.26 C 445.33 74.59 445.96 73.63 446.37 72.57 C 448.91 66.68 451.26 60.70 453.96 54.87 C 450.85 52.66 447.68 50.55 444.65 48.25 C 443.56 47.59 443.09 46.62 443.24 45.33 C 433.88 54.25 427.56 66.46 426.69 79.45 M 456.45 55.12 C 454.13 61.62 451.38 67.94 448.90 74.37 C 453.78 78.82 458.70 83.23 463.51 87.76 C 468.01 84.49 472.92 81.84 477.73 79.05 C 476.09 75.19 474.40 71.18 474.42 66.91 C 474.30 64.87 475.71 62.55 477.92 62.49 C 481.34 62.28 484.04 64.80 486.52 66.79 C 485.80 63.84 485.59 60.76 486.84 57.92 C 482.98 54.81 479.04 51.79 475.30 48.54 C 468.98 50.63 462.73 52.93 456.45 55.12 M 510.95 54.51 C 512.23 62.57 517.19 69.40 519.14 77.27 C 518.71 77.33 517.84 77.47 517.40 77.54 C 511.93 69.94 508.59 60.06 499.53 55.83 C 500.32 63.79 505.86 70.20 508.75 77.49 C 509.67 79.20 511.48 83.33 508.05 83.00 C 501.27 76.66 499.07 66.54 490.89 61.52 C 491.93 70.41 498.19 77.47 500.27 86.01 C 500.90 88.70 496.76 89.96 495.62 87.57 C 491.77 79.93 487.24 72.07 479.65 67.58 C 482.07 77.68 488.81 85.98 492.19 95.70 C 493.94 101.00 490.61 106.36 486.99 110.01 C 481.93 115.28 474.58 116.87 468.10 119.63 C 478.85 119.79 489.19 114.93 500.03 115.73 C 503.08 116.03 506.11 117.62 507.74 120.27 C 516.01 137.27 521.60 155.39 529.02 172.76 C 536.70 190.71 543.23 209.13 551.27 226.93 C 553.71 224.48 554.64 221.10 556.08 218.06 C 557.24 219.02 558.05 220.38 557.59 221.93 C 557.24 224.94 556.60 228.13 554.38 230.36 C 548.94 236.41 542.29 241.43 538.00 248.46 C 541.46 254.43 543.66 261.02 546.99 267.06 C 551.02 274.20 553.59 282.84 561.06 287.30 C 565.19 279.29 573.56 274.68 577.77 266.74 C 581.41 260.35 584.41 253.40 585.04 246.00 C 585.55 240.04 585.79 234.03 585.32 228.06 C 583.21 210.81 577.42 194.27 570.68 178.34 C 562.56 159.91 553.98 141.63 543.64 124.32 C 539.57 117.24 534.67 110.35 532.82 102.28 C 530.05 84.81 523.08 67.59 510.95 54.51 M 464.20 89.56 C 463.12 96.63 461.29 103.55 460.02 110.59 C 461.82 112.36 463.52 114.23 465.18 116.14 C 469.28 114.60 473.30 112.86 477.23 110.93 C 481.70 108.69 486.28 105.22 487.56 100.15 C 486.40 93.43 482.12 87.94 479.24 81.92 C 474.20 84.41 469.45 87.49 464.20 89.56 M 426.53 83.59 C 426.83 94.19 430.27 104.62 436.44 113.25 C 436.67 110.56 437.63 107.77 436.63 105.13 C 434.81 99.23 432.95 93.34 431.44 87.35 C 429.80 86.10 428.15 84.86 426.53 83.59 M 439.45 109.86 C 439.43 112.10 438.91 114.39 439.33 116.62 C 447.21 125.97 458.79 131.93 470.87 133.56 C 471.35 131.75 471.86 129.95 472.39 128.15 C 470.67 125.93 468.77 123.79 466.08 122.77 C 463.95 121.98 464.05 119.43 463.23 117.68 C 461.99 115.87 460.53 114.25 459.21 112.51 C 452.60 111.80 446.03 110.77 439.45 109.86 M 498.35 120.44 C 500.69 122.63 503.27 124.55 505.88 126.42 C 505.43 122.60 502.07 120.23 498.35 120.44 M 471.90 124.06 C 472.59 124.92 473.30 125.79 474.02 126.64 C 478.13 124.97 482.29 123.45 486.39 121.74 C 481.50 122.15 476.73 123.31 471.90 124.06 M 495.83 135.61 C 501.36 142.94 502.27 152.18 504.02 160.88 C 505.60 169.73 511.35 177.20 512.42 186.18 C 519.92 188.09 527.23 191.20 533.11 196.34 C 523.69 174.48 516.63 151.68 507.16 129.85 C 503.67 132.31 499.81 134.14 495.83 135.61 M 469.47 138.47 C 469.37 144.67 470.15 150.87 469.65 157.07 C 468.83 167.77 469.92 178.47 470.40 189.16 C 482.40 184.59 495.59 183.36 508.25 185.37 C 505.04 178.77 501.64 172.14 499.86 164.97 C 497.26 155.63 497.13 145.27 491.30 137.14 C 484.18 138.92 476.76 139.38 469.47 138.47 M 526.36 221.93 C 526.14 224.79 527.60 228.73 524.56 230.54 C 520.29 233.26 515.10 231.19 511.30 228.64 C 505.57 235.54 504.44 244.66 502.24 253.03 C 499.21 253.44 496.14 253.51 493.09 253.33 C 489.92 249.62 487.26 244.58 482.00 243.64 C 477.94 243.22 475.22 247.34 474.93 250.96 C 473.79 261.17 477.75 271.08 481.97 280.16 C 481.48 280.35 480.49 280.72 480.00 280.90 C 471.03 281.70 461.93 279.26 454.19 274.77 C 457.00 282.01 458.94 290.14 456.42 297.75 C 460.77 299.34 464.60 303.07 469.53 302.27 C 473.24 297.35 478.30 293.73 483.35 290.30 C 497.85 280.43 508.34 266.06 521.30 254.44 C 517.64 252.82 513.79 251.60 510.29 249.67 C 509.01 248.58 510.02 246.87 511.20 246.26 C 519.75 241.18 529.68 237.97 539.71 239.30 C 542.15 236.22 544.79 233.32 547.57 230.56 C 545.86 227.32 544.24 224.03 542.78 220.67 C 540.19 224.18 537.51 228.54 532.94 229.51 C 530.14 228.73 532.89 225.75 533.06 224.00 C 533.69 220.39 534.59 214.88 531.03 212.64 C 527.04 213.63 526.23 218.45 526.36 221.93 M 519.89 260.90 C 507.92 272.89 497.09 286.34 482.79 295.70 C 478.45 298.62 474.55 302.21 471.60 306.55 C 468.63 310.35 466.69 314.88 463.44 318.46 C 462.55 319.65 461.08 319.96 459.70 320.07 C 460.38 316.94 461.87 314.08 463.40 311.29 C 453.35 316.97 443.78 325.18 440.49 336.67 C 439.31 335.76 438.45 334.51 438.90 332.95 C 439.37 326.05 444.44 320.72 449.30 316.31 C 454.35 311.60 461.20 309.76 466.69 305.68 C 459.56 304.69 453.51 299.70 446.24 299.41 C 442.11 300.24 438.36 302.45 434.93 304.83 C 428.09 309.97 421.76 316.13 417.54 323.64 C 411.50 335.33 408.57 349.05 411.93 362.00 C 413.72 373.90 421.52 384.01 422.56 396.05 C 422.46 413.48 417.30 430.51 417.69 447.98 C 417.87 464.09 417.45 480.32 419.90 496.29 C 422.39 507.70 422.87 519.57 421.13 531.12 C 419.76 539.53 415.63 547.08 411.48 554.39 C 409.19 559.08 406.15 564.22 407.46 569.63 C 407.84 571.62 410.01 572.53 411.87 572.22 C 422.84 570.78 434.02 569.61 444.31 565.22 C 446.21 557.08 449.81 549.43 454.59 542.60 C 467.73 523.44 477.06 501.84 491.60 483.63 C 493.86 480.96 496.28 477.44 500.26 477.80 C 487.43 493.87 478.76 512.67 468.17 530.20 C 461.94 541.06 453.39 550.73 449.73 562.93 C 454.91 560.53 460.07 557.84 465.77 556.91 C 473.57 555.63 482.56 554.58 489.17 559.94 C 490.23 552.50 493.12 545.53 495.43 538.43 C 499.54 526.07 503.36 513.59 508.51 501.60 C 514.89 486.91 521.04 472.08 525.79 456.77 C 527.85 449.27 530.39 441.79 530.89 433.97 C 531.39 430.89 527.38 429.90 525.07 430.56 C 525.27 429.96 525.67 428.77 525.87 428.18 C 529.59 426.24 535.00 429.75 534.42 434.05 C 534.30 439.75 533.00 445.35 531.58 450.84 C 527.30 468.84 520.47 486.11 513.20 503.08 C 508.84 513.41 505.26 524.03 501.75 534.67 C 498.70 544.10 494.41 553.20 492.98 563.08 C 497.83 568.18 502.51 573.49 508.00 577.94 C 514.74 583.57 523.75 587.86 532.69 585.76 C 535.33 585.11 538.62 584.68 539.93 581.93 C 543.26 575.11 544.45 567.45 545.02 559.95 C 546.66 541.66 546.27 523.27 547.10 504.94 C 547.56 497.07 549.84 489.49 551.34 481.79 C 553.63 471.61 553.81 461.09 556.07 450.91 C 557.62 444.40 558.72 437.75 559.10 431.06 C 559.26 410.83 552.50 391.45 550.36 371.47 C 549.24 361.51 547.80 351.56 545.45 341.80 C 541.69 348.94 539.33 356.70 535.93 364.00 C 534.32 367.04 532.77 370.37 529.91 372.45 C 526.92 372.04 528.69 369.04 529.43 367.36 C 532.27 361.88 534.06 355.95 536.11 350.14 C 541.16 336.00 548.90 323.08 556.15 310.01 C 559.28 304.42 562.91 299.13 566.88 294.10 C 561.81 292.31 556.70 290.01 553.01 285.98 C 548.76 281.45 546.77 275.46 543.83 270.11 C 540.02 263.26 537.54 255.81 534.41 248.66 C 529.01 252.03 524.39 256.45 519.89 260.90 M 456.34 565.34 C 447.50 569.45 438.36 573.07 428.75 574.90 C 424.41 576.30 419.80 576.87 415.53 578.40 C 413.51 582.31 413.71 586.83 412.80 591.04 C 411.74 596.84 407.92 601.56 405.91 607.01 C 400.69 619.25 399.86 632.85 400.88 645.98 C 401.63 655.81 404.25 665.35 406.02 675.02 C 407.12 681.04 402.54 685.80 399.10 690.12 C 392.25 698.64 385.03 706.91 378.85 715.95 C 372.13 727.30 369.33 740.46 362.90 751.98 C 367.93 758.38 374.44 763.56 381.72 767.20 C 397.92 775.92 416.59 780.23 434.98 779.05 C 439.95 778.84 444.69 777.24 449.59 776.49 C 452.57 773.17 455.42 769.75 458.51 766.54 C 470.40 753.70 480.70 739.40 489.06 724.03 C 490.54 721.84 491.73 718.29 494.99 718.65 C 507.47 718.50 519.58 722.19 531.96 722.89 C 543.65 723.67 554.02 716.85 562.13 709.13 C 582.18 690.41 604.58 674.43 627.74 659.82 C 618.77 652.83 609.34 646.48 600.15 639.79 C 591.33 633.49 581.94 628.06 572.88 622.10 C 564.28 616.16 555.11 611.06 545.94 606.12 C 541.35 605.46 539.64 601.04 537.41 597.62 C 537.39 597.59 537.35 597.54 537.34 597.52 C 536.11 595.79 534.88 594.08 533.54 592.46 C 531.61 589.80 527.88 590.81 525.09 590.25 C 512.71 589.49 502.81 580.90 494.74 572.26 C 490.47 567.94 486.32 562.50 480.08 561.18 C 472.01 560.50 463.67 561.82 456.34 565.34 M 604.95 680.97 C 589.89 691.34 575.98 703.25 562.45 715.52 C 572.14 717.15 581.63 719.80 590.90 723.02 C 599.88 726.12 609.28 728.49 617.40 733.59 C 618.85 734.61 621.66 736.95 619.21 738.41 C 613.69 735.30 607.76 733.02 601.75 731.08 C 602.96 734.63 603.70 738.33 604.23 742.05 C 615.57 747.52 628.94 744.55 640.14 740.15 C 649.68 735.94 659.89 730.03 664.03 719.95 C 664.44 715.30 662.52 710.65 663.14 705.93 C 663.84 697.82 664.25 688.77 659.04 681.95 C 651.99 673.00 640.65 669.41 631.83 662.63 C 622.82 668.68 613.76 674.64 604.95 680.97 M 639.65 746.66 C 628.86 750.73 616.51 753.01 605.40 748.79 C 607.28 758.82 608.45 768.97 610.39 778.99 C 613.73 794.27 619.09 809.63 629.20 821.81 C 635.12 828.99 640.53 836.60 645.49 844.47 C 658.77 865.64 669.77 888.32 677.42 912.14 C 682.26 913.26 686.99 915.78 692.10 914.99 C 696.16 914.34 700.34 913.16 703.62 910.58 C 707.48 907.56 707.18 902.13 709.19 898.05 C 710.71 894.06 714.17 891.31 717.91 889.49 C 708.72 872.58 701.52 854.53 697.23 835.76 C 695.17 826.73 694.20 817.47 691.65 808.55 C 690.19 803.39 688.39 798.33 686.74 793.23 C 681.71 777.40 674.46 762.29 670.92 746.00 C 669.68 739.37 666.92 733.15 665.54 726.56 C 659.95 736.33 649.85 742.55 639.65 746.66 M 357.38 770.42 C 354.15 772.88 353.53 777.26 353.58 781.06 C 353.59 793.55 355.79 805.95 359.02 817.98 C 360.22 821.87 361.07 826.19 364.29 829.00 C 372.94 826.54 382.33 826.05 390.11 821.15 C 405.41 811.97 414.31 795.70 428.30 784.96 C 405.86 784.55 383.01 776.96 366.07 761.96 C 363.54 765.13 360.67 768.02 357.38 770.42 M 306.32 781.26 C 291.93 786.88 278.31 794.59 266.22 804.22 C 255.31 812.60 244.59 821.25 234.01 830.05 C 227.98 835.28 221.01 839.77 216.51 846.48 C 213.29 853.72 212.11 861.70 210.65 869.44 C 210.32 872.04 209.14 876.30 212.72 877.12 C 219.64 878.94 227.61 880.89 234.29 877.21 C 241.94 873.42 249.06 868.67 256.70 864.87 C 262.86 861.83 268.93 858.37 275.74 857.02 C 284.15 853.83 292.95 851.90 301.59 849.47 C 314.24 846.41 326.50 841.99 338.93 838.18 C 345.48 835.82 352.32 833.92 358.23 830.11 C 353.29 823.18 351.30 814.73 349.68 806.52 C 347.86 796.04 346.59 785.28 348.12 774.69 C 334.13 776.40 319.67 776.15 306.32 781.26 M 179.72 853.74 C 175.22 856.01 173.44 861.23 172.85 865.91 C 171.86 874.55 171.96 883.28 172.63 891.93 C 174.17 909.23 174.32 926.73 178.11 943.75 C 178.60 946.25 180.24 948.41 182.62 949.41 C 189.98 952.81 197.20 956.62 204.95 959.11 C 210.78 960.95 216.70 963.45 222.94 962.66 C 222.88 960.61 222.52 958.53 221.13 956.94 C 217.00 951.72 212.53 946.77 208.62 941.38 C 205.70 937.68 203.40 932.98 204.47 928.16 C 205.77 922.14 208.66 916.62 211.07 911.00 C 215.54 902.07 219.39 892.83 224.45 884.20 C 219.33 883.49 213.96 883.12 209.27 880.75 C 206.12 879.14 204.93 875.40 205.46 872.07 C 206.45 862.44 208.51 852.87 212.01 843.83 C 200.61 844.34 189.68 848.37 179.72 853.74 M 712.19 906.22 C 710.79 913.41 703.95 917.65 697.27 919.15 C 691.03 921.20 684.37 919.96 678.55 917.23 C 674.07 922.99 673.39 932.02 678.17 937.81 C 680.29 940.49 682.36 943.30 685.14 945.36 C 689.80 946.14 694.45 944.64 699.04 943.93 C 706.92 942.29 715.01 942.91 723.01 942.80 C 739.02 942.68 755.05 942.86 771.04 941.88 C 781.07 941.34 791.17 940.02 800.63 936.51 C 804.94 934.98 809.64 933.03 812.08 928.91 C 812.03 924.58 808.64 921.03 805.43 918.49 C 797.90 913.43 788.48 914.26 779.88 913.67 C 767.67 912.99 757.36 905.73 746.02 902.02 C 737.52 899.29 728.87 896.46 719.93 895.79 C 714.33 895.43 713.55 902.25 712.19 906.22 Z" />
		<path fill="#020202" opacity="1.00"
			d=" M 519.13 347.05 C 521.27 343.75 522.56 339.42 526.43 337.71 C 526.53 341.73 524.43 345.30 522.86 348.87 C 518.91 357.43 511.38 363.42 505.29 370.38 C 498.23 378.00 494.14 387.67 490.07 397.07 C 488.46 400.62 487.94 404.58 485.95 407.96 C 483.83 405.74 484.70 402.60 485.10 399.93 C 487.50 386.64 494.18 374.21 503.63 364.61 C 509.03 358.98 515.44 354.09 519.13 347.05 Z" />
	</g>
	<g id="#ffffffff">
		<path fill="#ffffff" opacity="1.00"
			d=" M 477.32 32.29 C 485.16 32.45 493.00 34.08 500.06 37.54 C 500.37 40.21 500.63 42.96 501.67 45.47 C 503.35 47.56 505.57 49.13 507.50 50.97 C 507.08 52.81 506.85 54.68 506.83 56.57 C 504.54 54.39 501.73 51.43 498.24 52.39 C 495.74 53.29 494.96 56.12 495.06 58.53 C 488.35 56.25 483.34 51.17 477.62 47.21 C 478.49 42.79 479.48 38.37 479.95 33.88 C 479.29 33.48 477.98 32.69 477.32 32.29 Z" />
		<path fill="#ffffff" opacity="1.00"
			d=" M 426.69 79.45 C 427.56 66.46 433.88 54.25 443.24 45.33 C 443.09 46.62 443.56 47.59 444.65 48.25 C 447.68 50.55 450.85 52.66 453.96 54.87 C 451.26 60.70 448.91 66.68 446.37 72.57 C 445.96 73.63 445.33 74.59 444.40 75.26 C 440.43 78.44 436.47 81.63 432.54 84.85 C 430.62 83.02 428.66 81.22 426.69 79.45 Z" />
		<path fill="#ffffff" opacity="1.00"
			d=" M 456.45 55.12 C 462.73 52.93 468.98 50.63 475.30 48.54 C 479.04 51.79 482.98 54.81 486.84 57.92 C 485.59 60.76 485.80 63.84 486.52 66.79 C 484.04 64.80 481.34 62.28 477.92 62.49 C 475.71 62.55 474.30 64.87 474.42 66.91 C 474.40 71.18 476.09 75.19 477.73 79.05 C 472.92 81.84 468.01 84.49 463.51 87.76 C 458.70 83.23 453.78 78.82 448.90 74.37 C 451.38 67.94 454.13 61.62 456.45 55.12 Z" />
		<path fill="#ffffff" opacity="1.00"
			d=" M 464.20 89.56 C 469.45 87.49 474.20 84.41 479.24 81.92 C 482.12 87.94 486.40 93.43 487.56 100.15 C 486.28 105.22 481.70 108.69 477.23 110.93 C 473.30 112.86 469.28 114.60 465.18 116.14 C 463.52 114.23 461.82 112.36 460.02 110.59 C 461.29 103.55 463.12 96.63 464.20 89.56 Z" />
		<path fill="#ffffff" opacity="1.00"
			d=" M 426.53 83.59 C 428.15 84.86 429.80 86.10 431.44 87.35 C 432.95 93.34 434.81 99.23 436.63 105.13 C 437.63 107.77 436.67 110.56 436.44 113.25 C 430.27 104.62 426.83 94.19 426.53 83.59 Z" />
		<path fill="#ffffff" opacity="1.00"
			d=" M 439.45 109.86 C 446.03 110.77 452.60 111.80 459.21 112.51 C 460.53 114.25 461.99 115.87 463.23 117.68 C 464.05 119.43 463.95 121.98 466.08 122.77 C 468.77 123.79 470.67 125.93 472.39 128.15 C 471.86 129.95 471.35 131.75 470.87 133.56 C 458.79 131.93 447.21 125.97 439.33 116.62 C 438.91 114.39 439.43 112.10 439.45 109.86 Z" />
		<path fill="#ffffff" opacity="1.00"
			d=" M 498.35 120.44 C 502.07 120.23 505.43 122.60 505.88 126.42 C 503.27 124.55 500.69 122.63 498.35 120.44 Z" />
		<path fill="#ffffff" opacity="1.00"
			d=" M 471.90 124.06 C 476.73 123.31 481.50 122.15 486.39 121.74 C 482.29 123.45 478.13 124.97 474.02 126.64 C 473.30 125.79 472.59 124.92 471.90 124.06 Z" />
	</g>
	<g id="#f0b58bff">
		<path fill="#f0b58b" opacity="1.00"
			d=" M 510.95 54.51 C 523.08 67.59 530.05 84.81 532.82 102.28 C 534.67 110.35 539.57 117.24 543.64 124.32 C 553.98 141.63 562.56 159.91 570.68 178.34 C 577.42 194.27 583.21 210.81 585.32 228.06 C 585.79 234.03 585.55 240.04 585.04 246.00 C 584.41 253.40 581.41 260.35 577.77 266.74 C 573.56 274.68 565.19 279.29 561.06 287.30 C 553.59 282.84 551.02 274.20 546.99 267.06 C 543.66 261.02 541.46 254.43 538.00 248.46 C 542.29 241.43 548.94 236.41 554.38 230.36 C 556.60 228.13 557.24 224.94 557.59 221.93 C 558.05 220.38 557.24 219.02 556.08 218.06 C 554.64 221.10 553.71 224.48 551.27 226.93 C 543.23 209.13 536.70 190.71 529.02 172.76 C 521.60 155.39 516.01 137.27 507.74 120.27 C 506.11 117.62 503.08 116.03 500.03 115.73 C 489.19 114.93 478.85 119.79 468.10 119.63 C 474.58 116.87 481.93 115.28 486.99 110.01 C 490.61 106.36 493.94 101.00 492.19 95.70 C 488.81 85.98 482.07 77.68 479.65 67.58 C 487.24 72.07 491.77 79.93 495.62 87.57 C 496.76 89.96 500.90 88.70 500.27 86.01 C 498.19 77.47 491.93 70.41 490.89 61.52 C 499.07 66.54 501.27 76.66 508.05 83.00 C 511.48 83.33 509.67 79.20 508.75 77.49 C 505.86 70.20 500.32 63.79 499.53 55.83 C 508.59 60.06 511.93 69.94 517.40 77.54 C 517.84 77.47 518.71 77.33 519.14 77.27 C 517.19 69.40 512.23 62.57 510.95 54.51 Z" />
		<path fill="#f0b58b" opacity="1.00"
			d=" M 469.47 138.47 C 476.76 139.38 484.18 138.92 491.30 137.14 C 497.13 145.27 497.26 155.63 499.86 164.97 C 501.64 172.14 505.04 178.77 508.25 185.37 C 495.59 183.36 482.40 184.59 470.40 189.16 C 469.92 178.47 468.83 167.77 469.65 157.07 C 470.15 150.87 469.37 144.67 469.47 138.47 Z" />
		<path fill="#f0b58b" opacity="1.00"
			d=" M 526.36 221.93 C 526.23 218.45 527.04 213.63 531.03 212.64 C 534.59 214.88 533.69 220.39 533.06 224.00 C 532.89 225.75 530.14 228.73 532.94 229.51 C 537.51 228.54 540.19 224.18 542.78 220.67 C 544.24 224.03 545.86 227.32 547.57 230.56 C 544.79 233.32 542.15 236.22 539.71 239.30 C 529.68 237.97 519.75 241.18 511.20 246.26 C 510.02 246.87 509.01 248.58 510.29 249.67 C 513.79 251.60 517.64 252.82 521.30 254.44 C 508.34 266.06 497.85 280.43 483.35 290.30 C 478.30 293.73 473.24 297.35 469.53 302.27 C 464.60 303.07 460.77 299.34 456.42 297.75 C 458.94 290.14 457.00 282.01 454.19 274.77 C 461.93 279.26 471.03 281.70 480.00 280.90 C 480.49 280.72 481.48 280.35 481.97 280.16 C 477.75 271.08 473.79 261.17 474.93 250.96 C 475.22 247.34 477.94 243.22 482.00 243.64 C 487.26 244.58 489.92 249.62 493.09 253.33 C 496.14 253.51 499.21 253.44 502.24 253.03 C 504.44 244.66 505.57 235.54 511.30 228.64 C 515.10 231.19 520.29 233.26 524.56 230.54 C 527.60 228.73 526.14 224.79 526.36 221.93 Z" />
		<path fill="#f0b58b" opacity="1.00"
			d=" M 604.95 680.97 C 613.76 674.64 622.82 668.68 631.83 662.63 C 640.65 669.41 651.99 673.00 659.04 681.95 C 664.25 688.77 663.84 697.82 663.14 705.93 C 662.52 710.65 664.44 715.30 664.03 719.95 C 659.89 730.03 649.68 735.94 640.14 740.15 C 628.94 744.55 615.57 747.52 604.23 742.05 C 603.70 738.33 602.96 734.63 601.75 731.08 C 607.76 733.02 613.69 735.30 619.21 738.41 C 621.66 736.95 618.85 734.61 617.40 733.59 C 609.28 728.49 599.88 726.12 590.90 723.02 C 581.63 719.80 572.14 717.15 562.45 715.52 C 575.98 703.25 589.89 691.34 604.95 680.97 Z" />
		<path fill="#f0b58b" opacity="1.00"
			d=" M 357.38 770.42 C 360.67 768.02 363.54 765.13 366.07 761.96 C 383.01 776.96 405.86 784.55 428.30 784.96 C 414.31 795.70 405.41 811.97 390.11 821.15 C 382.33 826.05 372.94 826.54 364.29 829.00 C 361.07 826.19 360.22 821.87 359.02 817.98 C 355.79 805.95 353.59 793.55 353.58 781.06 C 353.53 777.26 354.15 772.88 357.38 770.42 Z" />
	</g>
	<g id="#f11b27ff">
		<path fill="var(--shirt-color, grey)" opacity="1.00"
			d=" M 519.89 260.90 C 524.39 256.45 529.01 252.03 534.41 248.66 C 537.54 255.81 540.02 263.26 543.83 270.11 C 546.77 275.46 548.76 281.45 553.01 285.98 C 556.70 290.01 561.81 292.31 566.88 294.10 C 562.91 299.13 559.28 304.42 556.15 310.01 C 548.90 323.08 541.16 336.00 536.11 350.14 C 534.06 355.95 532.27 361.88 529.43 367.36 C 528.69 369.04 526.92 372.04 529.91 372.45 C 532.77 370.37 534.32 367.04 535.93 364.00 C 539.33 356.70 541.69 348.94 545.45 341.80 C 547.80 351.56 549.24 361.51 550.36 371.47 C 552.50 391.45 559.26 410.83 559.10 431.06 C 558.72 437.75 557.62 444.40 556.07 450.91 C 553.81 461.09 553.63 471.61 551.34 481.79 C 549.84 489.49 547.56 497.07 547.10 504.94 C 546.27 523.27 546.66 541.66 545.02 559.95 C 544.45 567.45 543.26 575.11 539.93 581.93 C 538.62 584.68 535.33 585.11 532.69 585.76 C 523.75 587.86 514.74 583.57 508.00 577.94 C 502.51 573.49 497.83 568.18 492.98 563.08 C 494.41 553.20 498.70 544.10 501.75 534.67 C 505.26 524.03 508.84 513.41 513.20 503.08 C 520.47 486.11 527.30 468.84 531.58 450.84 C 533.00 445.35 534.30 439.75 534.42 434.05 C 535.00 429.75 529.59 426.24 525.87 428.18 C 525.67 428.77 525.27 429.96 525.07 430.56 C 527.38 429.90 531.39 430.89 530.89 433.97 C 530.39 441.79 527.85 449.27 525.79 456.77 C 521.04 472.08 514.89 486.91 508.51 501.60 C 503.36 513.59 499.54 526.07 495.43 538.43 C 493.12 545.53 490.23 552.50 489.17 559.94 C 482.56 554.58 473.57 555.63 465.77 556.91 C 460.07 557.84 454.91 560.53 449.73 562.93 C 453.39 550.73 461.94 541.06 468.17 530.20 C 478.76 512.67 487.43 493.87 500.26 477.80 C 496.28 477.44 493.86 480.96 491.60 483.63 C 477.06 501.84 467.73 523.44 454.59 542.60 C 449.81 549.43 446.21 557.08 444.31 565.22 C 434.02 569.61 422.84 570.78 411.87 572.22 C 410.01 572.53 407.84 571.62 407.46 569.63 C 406.15 564.22 409.19 559.08 411.48 554.39 C 415.63 547.08 419.76 539.53 421.13 531.12 C 422.87 519.57 422.39 507.70 419.90 496.29 C 417.45 480.32 417.87 464.09 417.69 447.98 C 417.30 430.51 422.46 413.48 422.56 396.05 C 421.52 384.01 413.72 373.90 411.93 362.00 C 408.57 349.05 411.50 335.33 417.54 323.64 C 421.76 316.13 428.09 309.97 434.93 304.83 C 438.36 302.45 442.11 300.24 446.24 299.41 C 453.51 299.70 459.56 304.69 466.69 305.68 C 461.20 309.76 454.35 311.60 449.30 316.31 C 444.44 320.72 439.37 326.05 438.90 332.95 C 438.45 334.51 439.31 335.76 440.49 336.67 C 443.78 325.18 453.35 316.97 463.40 311.29 C 461.87 314.08 460.38 316.94 459.70 320.07 C 461.08 319.96 462.55 319.65 463.44 318.46 C 466.69 314.88 468.63 310.35 471.60 306.55 C 474.55 302.21 478.45 298.62 482.79 295.70 C 497.09 286.34 507.92 272.89 519.89 260.90 M 519.13 347.05 C 515.44 354.09 509.03 358.98 503.63 364.61 C 494.18 374.21 487.50 386.64 485.10 399.93 C 484.70 402.60 483.83 405.74 485.95 407.96 C 487.94 404.58 488.46 400.62 490.07 397.07 C 494.14 387.67 498.23 378.00 505.29 370.38 C 511.38 363.42 518.91 357.43 522.86 348.87 C 524.43 345.30 526.53 341.73 526.43 337.71 C 522.56 339.42 521.27 343.75 519.13 347.05 Z" />
	</g>
	<g id="#2b3dcdff">
		<path fill="var(--pants-color, grey)" opacity="1.00"
			d=" M 456.34 565.34 C 463.67 561.82 472.01 560.50 480.08 561.18 C 486.32 562.50 490.47 567.94 494.74 572.26 C 502.81 580.90 512.71 589.49 525.09 590.25 C 527.88 590.81 531.61 589.80 533.54 592.46 C 534.88 594.08 536.11 595.79 537.34 597.52 C 537.35 597.54 537.39 597.59 537.41 597.62 C 539.64 601.04 541.35 605.46 545.94 606.12 C 555.11 611.06 564.28 616.16 572.88 622.10 C 581.94 628.06 591.33 633.49 600.15 639.79 C 609.34 646.48 618.77 652.83 627.74 659.82 C 604.58 674.43 582.18 690.41 562.13 709.13 C 554.02 716.85 543.65 723.67 531.96 722.89 C 519.58 722.19 507.47 718.50 494.99 718.65 C 491.73 718.29 490.54 721.84 489.06 724.03 C 480.70 739.40 470.40 753.70 458.51 766.54 C 455.42 769.75 452.57 773.17 449.59 776.49 C 444.69 777.24 439.95 778.84 434.98 779.05 C 416.59 780.23 397.92 775.92 381.72 767.20 C 374.44 763.56 367.93 758.38 362.90 751.98 C 369.33 740.46 372.13 727.30 378.85 715.95 C 385.03 706.91 392.25 698.64 399.10 690.12 C 402.54 685.80 407.12 681.04 406.02 675.02 C 404.25 665.35 401.63 655.81 400.88 645.98 C 399.86 632.85 400.69 619.25 405.91 607.01 C 407.92 601.56 411.74 596.84 412.80 591.04 C 413.71 586.83 413.51 582.31 415.53 578.40 C 419.80 576.87 424.41 576.30 428.75 574.90 C 438.36 573.07 447.50 569.45 456.34 565.34 Z" />
		<path fill="var(--socks-color, grey)" opacity="1.00"
			d=" M 639.65 746.66 C 649.85 742.55 659.95 736.33 665.54 726.56 C 666.92 733.15 669.68 739.37 670.92 746.00 C 674.46 762.29 681.71 777.40 686.74 793.23 C 688.39 798.33 690.19 803.39 691.65 808.55 C 694.20 817.47 695.17 826.73 697.23 835.76 C 701.52 854.53 708.72 872.58 717.91 889.49 C 714.17 891.31 710.71 894.06 709.19 898.05 C 707.18 902.13 707.48 907.56 703.62 910.58 C 700.34 913.16 696.16 914.34 692.10 914.99 C 686.99 915.78 682.26 913.26 677.42 912.14 C 669.77 888.32 658.77 865.64 645.49 844.47 C 640.53 836.60 635.12 828.99 629.20 821.81 C 619.09 809.63 613.73 794.27 610.39 778.99 C 608.45 768.97 607.28 758.82 605.40 748.79 C 616.51 753.01 628.86 750.73 639.65 746.66 Z" />
		<path fill="var(--socks-color, grey)" opacity="1.00"
			d=" M 306.32 781.26 C 319.67 776.15 334.13 776.40 348.12 774.69 C 346.59 785.28 347.86 796.04 349.68 806.52 C 351.30 814.73 353.29 823.18 358.23 830.11 C 352.32 833.92 345.48 835.82 338.93 838.18 C 326.50 841.99 314.24 846.41 301.59 849.47 C 292.95 851.90 284.15 853.83 275.74 857.02 C 268.93 858.37 262.86 861.83 256.70 864.87 C 249.06 868.67 241.94 873.42 234.29 877.21 C 227.61 880.89 219.64 878.94 212.72 877.12 C 209.14 876.30 210.32 872.04 210.65 869.44 C 212.11 861.70 213.29 853.72 216.51 846.48 C 221.01 839.77 227.98 835.28 234.01 830.05 C 244.59 821.25 255.31 812.60 266.22 804.22 C 278.31 794.59 291.93 786.88 306.32 781.26 Z" />
	</g>
	<g id="#4d4d4dff">
		<path fill="#4d4d4d" opacity="1.00"
			d=" M 179.72 853.74 C 189.68 848.37 200.61 844.34 212.01 843.83 C 208.51 852.87 206.45 862.44 205.46 872.07 C 204.93 875.40 206.12 879.14 209.27 880.75 C 213.96 883.12 219.33 883.49 224.45 884.20 C 219.39 892.83 215.54 902.07 211.07 911.00 C 208.66 916.62 205.77 922.14 204.47 928.16 C 203.40 932.98 205.70 937.68 208.62 941.38 C 212.53 946.77 217.00 951.72 221.13 956.94 C 222.52 958.53 222.88 960.61 222.94 962.66 C 216.70 963.45 210.78 960.95 204.95 959.11 C 197.20 956.62 189.98 952.81 182.62 949.41 C 180.24 948.41 178.60 946.25 178.11 943.75 C 174.32 926.73 174.17 909.23 172.63 891.93 C 171.96 883.28 171.86 874.55 172.85 865.91 C 173.44 861.23 175.22 856.01 179.72 853.74 Z" />
		<path fill="#4d4d4d" opacity="1.00"
			d=" M 712.19 906.22 C 713.55 902.25 714.33 895.43 719.93 895.79 C 728.87 896.46 737.52 899.29 746.02 902.02 C 757.36 905.73 767.67 912.99 779.88 913.67 C 788.48 914.26 797.90 913.43 805.43 918.49 C 808.64 921.03 812.03 924.58 812.08 928.91 C 809.64 933.03 804.94 934.98 800.63 936.51 C 791.17 940.02 781.07 941.34 771.04 941.88 C 755.05 942.86 739.02 942.68 723.01 942.80 C 715.01 942.91 706.92 942.29 699.04 943.93 C 694.45 944.64 689.80 946.14 685.14 945.36 C 682.36 943.30 680.29 940.49 678.17 937.81 C 673.39 932.02 674.07 922.99 678.55 917.23 C 684.37 919.96 691.03 921.20 697.27 919.15 C 703.95 917.65 710.79 913.41 712.19 906.22 Z" />
	</g>
</svg>