<?xml version="1.0" encoding="UTF-8" ?>
<!DOCTYPE svg PUBLIC "-//W3C//DTD SVG 1.1//EN" "http://www.w3.org/Graphics/SVG/1.1/DTD/svg11.dtd">
<svg width="1000pt" height="1000pt" viewBox="0 0 1000 1000" version="1.1" xmlns="http://www.w3.org/2000/svg">
	<g id="#020202ff">
		<path fill="#020202" opacity="1.00"
			d=" M 498.13 33.14 C 511.58 21.92 529.69 17.43 546.96 18.53 C 563.22 19.58 579.90 25.70 590.69 38.35 C 594.49 42.44 596.27 47.90 599.96 52.07 C 604.24 56.95 603.64 64.55 600.12 69.69 C 601.00 73.40 601.69 77.19 601.52 81.02 C 601.35 89.79 596.40 97.46 595.08 106.02 C 593.20 113.89 594.86 121.96 594.45 129.92 C 594.14 134.24 592.52 139.44 587.97 140.95 C 582.95 142.80 576.32 139.81 572.36 144.29 C 566.26 151.78 562.48 160.88 556.32 168.32 C 553.13 172.09 547.52 174.90 542.79 172.19 C 535.59 168.26 530.83 161.25 525.69 155.09 C 517.81 163.25 511.31 173.03 508.55 184.15 C 515.55 201.32 520.93 219.33 521.93 237.95 C 522.70 256.32 522.55 274.96 518.36 292.96 C 517.84 295.63 516.75 298.41 517.61 301.14 C 519.26 307.71 520.97 314.28 523.31 320.65 C 527.66 331.81 532.42 343.04 534.05 354.99 C 534.65 357.12 532.55 358.22 531.26 359.42 C 531.53 372.53 531.10 385.73 533.30 398.71 C 543.51 405.31 554.68 410.21 565.69 415.29 C 580.59 422.50 596.35 427.63 611.95 433.03 C 622.80 436.60 634.00 438.88 645.02 441.79 C 649.98 442.83 654.84 444.55 659.93 444.86 C 665.88 445.27 670.79 441.34 675.93 438.99 C 690.50 431.23 707.74 432.04 723.55 434.64 C 727.23 435.39 730.85 434.23 734.34 433.16 C 736.14 435.94 737.12 439.46 735.53 442.58 C 733.26 448.36 726.37 449.51 720.94 450.19 C 731.89 451.88 742.57 454.90 753.51 456.73 C 758.11 457.84 763.23 457.99 767.25 460.73 C 769.88 462.70 768.79 466.16 767.38 468.53 C 769.72 469.49 772.60 471.01 772.15 474.06 C 771.66 478.62 766.41 479.33 762.81 480.15 C 765.48 481.41 769.72 482.40 769.87 486.04 C 769.70 489.87 765.21 490.98 762.15 491.56 C 747.14 493.68 732.18 489.65 717.15 490.05 C 727.82 495.18 739.77 497.70 749.73 504.31 C 752.24 505.72 752.79 509.61 750.35 511.35 C 747.32 513.39 743.43 513.12 739.97 512.96 C 730.59 512.09 721.44 509.78 712.35 507.41 C 698.86 503.71 685.34 499.95 672.42 494.53 C 667.46 492.50 662.85 489.67 657.72 488.07 C 645.28 483.72 631.91 484.72 618.98 483.68 C 599.76 482.34 579.88 482.50 561.70 475.26 C 550.03 470.36 538.39 465.38 526.53 460.96 C 528.98 465.16 533.14 467.58 537.41 469.56 C 542.87 472.63 545.57 478.84 550.95 482.02 C 554.67 484.26 558.77 485.94 562.05 488.85 C 569.26 495.16 573.29 504.19 580.20 510.79 C 587.02 517.33 593.79 523.94 600.10 530.97 C 605.16 536.57 611.11 541.33 615.88 547.19 C 617.23 548.53 616.66 550.54 616.72 552.24 C 626.59 565.32 638.82 576.56 647.35 590.64 C 654.67 602.04 661.09 615.12 660.27 629.02 C 660.02 644.41 650.90 657.90 641.11 669.07 C 625.29 685.15 608.28 700.38 588.83 711.95 C 594.87 729.62 601.60 747.05 606.91 764.95 C 616.70 795.70 623.26 827.35 632.73 858.19 C 635.34 866.19 638.18 874.12 640.64 882.18 C 641.06 884.51 643.22 885.72 645.07 886.88 C 650.49 890.13 656.45 892.33 662.43 894.35 C 674.56 898.47 686.40 903.69 699.03 906.19 C 712.51 909.01 725.70 913.22 738.38 918.57 C 743.38 920.85 748.88 923.44 751.52 928.57 C 753.37 931.84 752.48 936.23 749.65 938.66 C 742.80 944.39 735.27 949.27 727.29 953.28 C 719.64 957.06 712.63 962.41 704.22 964.43 C 686.09 968.88 667.09 965.66 648.98 970.15 C 639.65 971.85 632.64 978.94 624.00 982.32 C 619.25 982.64 615.20 979.05 612.80 975.26 C 607.67 967.03 606.57 957.18 604.59 947.89 C 602.48 938.20 601.67 928.17 598.14 918.83 C 596.49 914.51 595.64 909.82 592.93 905.98 C 585.14 894.53 581.86 880.87 576.84 868.15 C 568.78 853.57 558.10 840.64 549.85 826.17 C 535.40 802.86 523.46 777.91 515.58 751.60 C 509.90 754.70 504.22 758.02 499.68 762.70 C 494.17 768.40 490.06 775.24 485.90 781.93 C 483.78 785.52 480.06 788.47 479.98 792.96 C 479.23 802.28 479.90 811.64 479.84 820.98 C 479.72 840.35 481.19 859.70 483.67 878.90 C 484.48 885.40 484.95 892.55 481.37 898.38 C 478.47 903.85 472.23 907.55 465.98 906.68 C 457.68 905.29 450.62 899.72 446.32 892.61 C 434.81 876.76 434.39 856.45 428.34 838.44 C 422.60 819.71 411.52 803.34 403.30 785.70 C 399.50 778.00 396.64 769.65 396.40 761.00 C 396.21 755.13 398.49 748.95 403.44 745.50 C 410.44 740.36 419.50 739.23 427.96 739.58 C 434.70 740.00 441.16 737.75 447.45 735.63 C 450.82 734.65 452.99 731.73 455.51 729.50 C 468.81 717.39 479.92 703.18 491.32 689.34 C 495.41 684.53 498.88 679.24 502.96 674.43 C 496.65 665.77 489.66 657.44 481.01 651.02 C 473.69 645.88 466.24 640.22 457.28 638.42 C 452.73 642.15 448.01 645.72 443.89 649.94 C 441.57 652.19 440.65 655.38 438.86 658.00 C 436.43 659.41 434.24 656.95 432.39 655.63 C 426.69 650.32 421.56 644.42 415.51 639.49 C 407.40 632.76 401.75 623.38 398.92 613.29 C 397.58 608.46 397.49 603.25 395.20 598.72 C 392.80 594.04 389.06 590.22 385.11 586.84 C 378.35 580.87 369.35 578.40 362.42 572.66 C 349.21 562.49 341.91 547.07 334.36 532.66 C 329.19 523.06 325.14 512.92 321.31 502.72 C 318.76 495.84 315.66 489.14 313.86 482.00 C 312.69 476.73 309.04 472.32 308.60 466.84 C 307.33 454.63 311.75 442.81 315.44 431.38 C 323.60 402.23 330.51 372.39 330.86 341.97 C 331.03 333.63 329.62 325.35 329.77 317.01 C 329.57 305.59 331.67 294.31 332.20 282.93 C 332.73 271.00 333.48 258.97 336.43 247.35 C 332.22 251.84 326.93 255.86 324.96 261.93 C 321.77 270.93 319.06 280.16 314.64 288.67 C 309.15 299.06 302.06 308.50 294.34 317.33 C 285.45 327.49 279.04 339.43 271.48 350.54 C 260.92 366.15 252.86 383.36 241.52 398.45 C 235.93 407.18 236.90 418.79 229.63 426.64 C 224.49 433.51 215.56 435.05 208.99 439.97 C 204.72 442.97 203.67 449.88 198.01 450.86 C 192.77 450.91 190.89 444.83 191.57 440.50 C 188.30 439.17 185.94 436.42 186.23 432.72 C 183.34 432.66 179.85 432.72 178.01 430.04 C 175.40 426.75 177.07 422.42 178.70 419.11 C 176.11 418.54 173.08 417.87 171.82 415.23 C 170.31 412.55 171.65 409.54 172.78 407.01 C 170.64 405.87 168.29 403.87 169.49 401.15 C 171.97 393.97 179.06 390.16 184.48 385.45 C 190.68 380.55 194.39 373.37 199.87 367.81 C 204.47 363.43 211.57 365.02 216.67 361.74 C 219.83 358.48 221.12 353.94 222.82 349.83 C 230.76 329.17 237.36 307.98 242.62 286.48 C 244.48 280.16 246.50 273.88 248.74 267.68 C 253.24 256.50 259.25 245.97 265.93 235.97 C 279.10 217.40 296.25 202.06 309.37 183.44 C 311.80 179.94 314.27 176.46 316.98 173.17 C 316.05 173.10 314.20 172.94 313.27 172.86 C 313.90 168.91 316.48 165.79 318.66 162.59 C 326.22 151.04 336.93 142.00 347.93 133.85 C 351.75 131.02 354.43 127.03 357.58 123.54 C 362.46 118.01 368.17 113.23 374.59 109.60 C 384.21 103.75 395.24 101.01 405.94 97.90 C 415.45 95.05 425.50 94.63 435.35 95.39 C 442.11 96.23 449.36 97.70 454.52 102.49 C 458.87 106.72 462.63 111.56 465.66 116.81 C 473.77 112.48 480.48 104.44 481.17 95.02 C 482.33 85.30 479.07 75.72 480.01 66.01 C 480.87 53.06 488.26 41.25 498.13 33.14 M 581.04 68.88 C 580.26 71.44 580.54 75.60 577.07 76.02 C 571.20 76.52 565.39 73.86 561.14 69.93 C 556.80 76.22 553.43 83.09 549.45 89.57 C 546.19 90.08 542.81 88.10 539.63 87.23 C 534.03 85.00 535.52 77.27 531.30 73.72 C 526.97 71.62 521.40 74.38 519.95 78.87 C 516.79 89.44 518.71 100.53 518.48 111.34 C 515.09 111.01 511.90 109.74 509.02 107.96 C 499.77 102.41 491.85 94.57 486.46 85.19 C 486.80 95.65 494.61 104.90 492.61 115.63 C 490.39 109.83 488.98 103.74 486.38 98.07 C 484.64 108.46 476.96 117.26 467.15 120.92 C 469.59 126.16 470.80 132.00 474.27 136.72 C 478.36 142.77 481.71 149.27 485.56 155.47 C 495.05 171.47 499.29 189.95 500.93 208.32 C 503.16 202.46 503.85 196.26 503.89 190.04 C 504.17 175.22 512.74 162.00 523.28 152.17 C 520.39 148.20 516.68 144.47 515.81 139.43 C 519.47 141.68 521.76 145.40 524.57 148.54 C 528.77 153.61 533.62 158.07 538.20 162.78 C 540.56 165.04 542.97 167.52 546.17 168.55 C 548.77 169.72 550.98 167.26 552.60 165.54 C 556.83 160.23 559.74 154.03 563.47 148.37 C 566.04 144.47 568.34 139.86 572.79 137.79 C 577.38 135.68 582.64 137.87 587.31 136.30 C 590.39 133.15 589.69 128.16 589.47 124.12 C 588.38 115.55 588.54 106.75 591.03 98.42 C 588.37 99.48 585.66 100.40 582.91 101.19 C 582.05 103.99 580.89 106.69 579.25 109.12 C 571.44 105.68 565.62 99.14 559.84 93.07 C 558.86 91.57 556.59 89.81 557.64 87.88 C 561.77 85.83 566.46 85.32 570.95 84.55 C 579.06 83.29 587.33 85.64 594.22 89.92 C 596.62 84.32 597.11 78.21 597.01 72.19 C 593.09 73.71 588.93 75.54 584.66 74.41 C 587.71 71.01 590.14 66.73 589.79 62.01 C 589.54 60.31 589.08 58.05 587.08 57.68 C 582.91 59.66 582.20 64.89 581.04 68.88 M 395.97 106.92 C 388.61 108.97 381.44 111.83 374.99 115.97 C 368.05 120.18 362.44 126.17 357.37 132.43 C 353.22 137.70 347.08 140.72 342.00 144.95 C 333.22 151.83 325.64 160.08 319.18 169.16 C 328.41 168.41 337.60 170.98 345.67 175.36 C 361.82 184.08 374.81 198.25 382.73 214.76 C 389.67 210.51 395.08 204.00 402.69 200.82 C 410.01 197.65 418.04 196.60 425.34 193.37 C 434.27 189.46 442.41 184.01 450.21 178.21 C 452.36 176.55 454.79 175.22 457.52 174.80 C 456.12 176.62 454.60 178.32 452.89 179.84 C 444.18 187.61 434.52 194.53 423.63 198.90 C 430.91 198.59 438.04 200.15 445.18 201.30 C 452.88 202.56 460.68 201.60 468.43 201.68 C 464.80 204.98 459.55 204.53 455.01 205.06 C 443.98 206.05 433.23 201.75 422.21 203.12 C 415.35 203.92 408.43 204.50 401.80 206.55 C 404.34 208.10 406.88 209.90 408.24 212.65 C 411.53 218.84 414.98 225.06 419.75 230.26 C 424.14 235.07 430.04 238.03 435.45 241.52 C 441.29 245.31 447.87 248.09 452.91 253.02 C 456.52 256.66 459.71 260.89 461.32 265.82 C 456.95 261.80 453.08 257.21 448.17 253.80 C 440.48 248.35 432.34 243.59 424.28 238.72 C 414.82 232.78 409.06 222.79 403.54 213.42 C 402.09 210.77 398.07 209.16 395.72 211.61 C 388.57 218.00 379.73 221.94 371.29 226.28 C 360.50 230.96 350.05 236.57 340.75 243.81 C 337.26 264.38 338.40 285.33 335.82 305.99 C 341.93 297.80 348.70 290.12 354.95 282.03 C 359.18 276.56 362.13 270.14 366.88 265.07 C 366.68 267.55 366.38 270.07 365.35 272.37 C 361.92 280.40 357.33 287.93 351.64 294.57 C 346.17 301.65 339.40 308.21 336.87 317.04 C 334.71 322.85 336.65 329.03 336.63 335.01 C 337.03 350.65 335.38 366.30 332.72 381.70 C 330.23 398.69 325.42 415.21 320.85 431.73 C 317.31 441.83 313.97 452.14 313.12 462.88 C 318.34 456.42 325.16 451.45 332.30 447.30 C 349.17 438.04 367.30 430.83 386.24 427.18 C 405.27 423.55 424.84 422.31 444.13 424.37 C 459.56 425.87 475.40 427.19 489.84 433.29 C 491.38 428.77 494.46 424.78 495.17 420.00 C 495.04 415.10 491.67 410.97 491.56 406.01 C 487.93 402.72 483.36 400.72 478.60 399.72 C 472.59 398.47 466.72 396.54 461.25 393.75 C 445.34 385.65 431.22 374.62 417.02 363.94 C 412.92 360.67 408.23 357.83 405.64 353.09 C 412.16 355.90 417.52 360.70 423.45 364.52 C 431.86 370.66 440.87 375.88 449.78 381.24 C 458.11 386.26 466.55 391.38 476.01 393.95 C 481.51 395.39 487.01 397.25 491.57 400.78 C 491.67 396.57 492.78 392.49 494.86 388.83 C 487.56 385.86 481.42 380.41 473.63 378.57 C 464.68 376.26 456.01 372.76 448.15 367.87 C 441.17 363.67 435.50 357.04 433.26 349.13 C 436.93 353.31 439.56 358.52 444.37 361.60 C 453.67 367.49 464.37 370.57 475.01 373.01 C 483.15 374.75 489.50 380.40 496.95 383.71 C 499.27 378.08 501.30 372.06 500.73 365.89 C 500.21 361.17 498.52 356.37 494.97 353.07 C 491.66 349.81 489.87 345.46 487.50 341.54 C 483.88 335.38 478.99 330.12 474.15 324.91 C 467.98 318.40 462.29 311.43 455.99 305.03 C 454.23 303.27 452.56 301.41 451.09 299.41 C 457.30 300.11 461.43 305.29 465.82 309.17 C 476.97 320.43 489.48 330.94 496.83 345.28 C 498.12 336.52 501.98 328.43 505.41 320.35 C 517.73 289.34 520.70 254.95 515.25 222.12 C 513.73 212.62 510.85 203.43 508.08 194.25 C 507.18 202.03 504.82 209.99 499.63 216.02 C 498.71 214.16 498.01 212.20 497.61 210.17 C 495.92 201.91 493.88 193.74 492.19 185.48 C 487.84 166.68 476.16 150.89 466.42 134.61 C 461.10 124.79 458.63 112.76 449.27 105.69 C 442.11 101.13 433.19 100.98 424.98 101.08 C 415.00 101.01 405.46 104.25 395.97 106.92 M 322.12 172.78 C 311.82 190.60 297.56 205.64 284.13 221.09 C 269.19 237.46 257.45 256.99 251.22 278.33 C 249.21 284.21 247.73 290.24 246.21 296.26 C 240.61 316.45 234.92 336.78 225.78 355.72 C 223.60 359.63 221.41 364.20 216.94 365.91 C 212.20 368.26 205.89 366.92 202.07 371.08 C 197.31 376.96 193.63 383.84 187.68 388.68 C 182.66 393.09 176.12 396.17 173.12 402.50 C 181.00 401.79 186.53 394.98 194.26 393.90 C 195.36 397.12 191.38 398.60 189.44 400.38 C 185.04 404.08 178.34 405.03 175.52 410.46 C 174.38 412.19 175.74 414.76 177.88 414.46 C 187.99 412.85 195.11 404.55 204.10 400.49 C 204.47 400.86 205.22 401.60 205.60 401.97 C 202.63 407.10 197.09 410.03 192.32 413.27 C 188.63 415.93 182.97 416.55 181.41 421.44 C 180.32 423.65 179.40 428.19 182.93 428.50 C 190.85 428.04 197.74 423.43 204.23 419.27 C 207.48 417.31 210.31 414.19 214.28 413.86 C 214.33 414.39 214.41 415.45 214.45 415.99 C 207.99 423.15 199.06 427.68 190.37 431.63 C 188.61 433.44 189.94 436.35 192.40 436.44 C 199.62 437.39 205.70 432.42 212.15 430.06 C 216.31 428.06 221.34 428.01 225.00 425.02 C 227.73 422.28 229.67 418.80 231.13 415.25 C 232.38 410.59 232.85 405.74 234.42 401.16 C 236.14 395.26 240.75 390.95 243.87 385.83 C 252.63 371.95 260.62 357.59 269.84 344.00 C 273.90 337.99 277.73 331.83 281.79 325.82 C 288.61 315.77 297.59 307.41 304.25 297.24 C 308.67 290.93 312.51 284.17 315.10 276.89 C 320.01 262.70 324.50 248.32 330.61 234.59 C 332.04 231.82 333.37 227.82 337.20 228.10 C 334.72 234.20 332.08 240.24 330.21 246.58 C 339.11 237.26 350.16 230.17 361.89 224.93 C 367.57 222.77 373.11 220.29 378.28 217.08 C 373.93 208.12 368.12 199.89 361.08 192.84 C 350.64 182.36 337.14 173.99 322.12 172.78 M 503.30 337.53 C 501.96 341.32 500.59 345.12 498.62 348.64 C 503.43 347.54 508.04 345.36 513.05 345.30 C 518.71 345.17 523.88 347.97 528.19 351.39 C 524.77 336.56 516.85 323.15 514.52 308.03 C 512.01 318.32 506.56 327.51 503.30 337.53 M 502.95 353.13 C 508.45 363.36 507.50 376.00 502.11 386.05 C 501.22 387.57 499.73 388.57 498.36 389.62 C 495.80 395.78 496.30 402.57 497.19 409.01 C 498.38 413.28 501.15 417.34 500.28 421.98 C 499.13 427.67 495.67 432.54 494.15 438.13 C 497.70 438.92 501.39 438.66 504.96 439.33 C 509.46 440.55 511.84 445.08 512.96 449.28 C 516.44 450.30 519.67 452.01 522.40 454.41 C 525.20 454.86 527.99 455.45 530.65 456.47 C 541.40 460.42 552.02 464.71 562.51 469.32 C 577.47 475.66 593.95 476.10 609.92 477.23 C 620.93 477.99 631.98 478.14 642.98 479.09 C 652.74 479.96 661.77 484.13 670.11 489.04 C 686.54 495.68 703.83 499.88 720.95 504.33 C 729.52 506.28 738.25 508.54 747.11 507.81 C 738.18 502.39 728.04 499.55 718.37 495.81 C 715.58 494.63 711.85 492.57 712.47 488.98 C 713.39 486.32 716.39 485.30 718.98 485.40 C 734.16 485.39 749.52 489.23 764.59 485.88 C 752.31 481.02 738.91 480.91 725.94 480.01 C 724.29 480.04 719.85 478.14 722.33 476.43 C 732.54 475.57 742.85 476.65 753.00 477.91 C 758.39 478.04 763.80 476.46 768.51 473.85 C 754.41 469.59 739.49 470.54 724.96 469.96 C 723.69 469.89 722.49 469.59 721.35 469.06 C 720.96 465.87 724.95 466.56 726.99 465.99 C 737.67 465.40 748.42 465.87 759.03 467.23 C 761.51 467.88 763.47 465.88 765.44 464.75 C 757.91 461.07 749.27 460.94 741.24 458.87 C 729.03 455.75 716.50 453.91 704.42 450.30 C 701.92 449.69 702.57 446.07 705.10 446.16 C 712.96 446.18 721.48 447.69 728.75 443.73 C 731.04 442.65 731.55 439.97 732.40 437.85 C 728.75 439.19 724.83 439.61 720.99 439.03 C 707.73 437.57 693.61 436.32 681.09 441.93 C 673.91 444.86 667.21 450.40 659.00 449.36 C 648.78 447.85 638.92 444.63 628.85 442.41 C 616.36 439.51 604.29 435.16 592.19 430.95 C 572.49 423.84 553.10 415.68 534.77 405.52 C 536.07 409.57 537.37 413.70 539.77 417.27 C 541.26 419.67 543.33 421.67 544.64 424.19 C 545.11 425.86 543.75 427.09 542.18 426.15 C 536.76 422.77 532.99 417.20 530.71 411.32 C 525.74 398.18 525.15 383.94 525.08 370.05 C 524.81 365.28 524.99 360.51 525.62 355.78 C 522.99 353.77 520.26 351.70 516.97 350.97 C 512.19 349.62 507.42 351.63 502.95 353.13 M 348.58 444.49 C 336.38 450.11 323.38 455.99 315.08 467.01 C 317.15 476.35 319.95 485.53 323.61 494.37 C 328.09 506.04 332.28 517.87 338.19 528.92 C 345.38 542.47 351.90 557.09 363.93 567.15 C 371.24 573.59 381.10 576.07 388.41 582.52 C 395.07 588.15 401.51 595.15 402.88 604.11 C 404.41 615.89 409.55 627.50 418.59 635.43 C 425.54 641.51 431.00 648.99 437.30 655.69 C 437.78 652.27 438.84 648.86 441.22 646.27 C 448.98 637.27 458.59 630.09 468.24 623.23 C 484.12 612.17 501.58 603.53 519.59 596.51 C 528.51 593.22 537.48 589.70 547.02 588.72 C 544.08 582.58 541.48 576.29 539.40 569.80 C 536.84 561.96 531.70 555.40 527.59 548.35 C 523.51 541.53 519.59 534.58 514.82 528.21 C 509.33 521.36 502.91 515.12 495.25 510.76 C 481.47 502.85 467.77 494.65 455.36 484.68 C 450.90 481.05 446.19 477.43 443.39 472.29 C 449.02 475.21 453.70 479.55 458.88 483.16 C 465.58 487.89 472.43 492.45 479.57 496.51 C 485.19 499.73 491.36 501.85 496.95 505.13 C 505.43 509.86 512.81 516.44 518.89 523.98 C 524.02 530.77 528.13 538.26 532.48 545.57 C 536.74 553.15 541.86 560.38 544.42 568.78 C 546.26 575.00 548.84 580.95 551.09 587.01 C 555.46 578.77 562.40 572.28 569.74 566.69 C 581.67 557.74 595.14 550.69 609.55 546.72 C 598.39 536.47 588.69 524.77 577.49 514.55 C 570.54 508.34 566.52 499.65 559.88 493.18 C 555.33 488.69 548.65 487.34 544.13 482.83 C 541.74 480.55 539.82 477.84 537.41 475.59 C 534.37 472.74 529.97 472.01 526.93 469.17 C 523.33 465.87 521.59 461.16 518.47 457.49 C 516.16 454.67 512.15 454.68 509.26 452.79 C 507.47 449.88 507.51 445.47 504.02 443.89 C 499.50 442.94 494.51 443.24 490.64 440.27 C 483.24 434.38 473.49 433.55 464.55 431.70 C 448.07 429.91 431.52 427.33 414.90 428.56 C 392.10 430.00 369.43 435.06 348.58 444.49 M 195.09 440.80 C 195.67 442.76 196.34 444.69 197.11 446.59 C 199.84 444.26 201.72 441.17 203.91 438.36 C 201.04 439.42 198.08 440.18 195.09 440.80 M 565.54 576.61 C 561.03 580.51 556.23 584.72 554.62 590.70 C 561.27 609.13 570.57 626.48 577.29 644.89 C 578.12 647.43 580.60 648.83 582.62 650.35 C 591.45 656.12 601.49 659.70 611.55 662.64 C 618.64 664.50 625.91 666.37 633.30 666.07 C 635.41 665.03 636.63 662.82 638.18 661.12 C 645.48 651.69 653.20 641.39 654.09 629.06 C 655.40 619.76 651.83 610.63 647.52 602.57 C 641.79 593.45 635.73 584.46 628.49 576.46 C 621.94 569.14 616.04 561.28 610.08 553.49 C 593.92 558.17 578.55 565.91 565.54 576.61 M 515.85 604.57 C 497.23 612.31 479.37 622.00 463.17 634.05 C 467.71 635.35 471.86 637.64 475.80 640.21 C 486.61 646.68 495.93 655.43 503.64 665.37 C 511.27 674.54 516.04 686.23 516.28 698.22 C 527.79 704.03 541.37 703.23 553.58 700.32 C 561.81 698.12 570.25 695.09 576.37 688.90 C 575.46 679.64 576.17 670.27 574.86 661.05 C 570.21 637.67 557.19 617.19 550.05 594.63 C 538.00 595.06 526.90 600.27 515.85 604.57 M 580.74 656.55 C 583.53 668.63 581.45 681.16 583.67 693.31 C 584.44 697.46 585.63 701.51 586.72 705.58 C 590.12 703.01 593.60 700.55 597.09 698.12 C 608.90 690.15 619.55 680.64 629.71 670.69 C 612.63 669.68 595.76 664.73 580.74 656.55 M 487.20 704.21 C 477.77 715.99 467.68 727.31 456.24 737.19 C 451.87 741.48 445.80 744.89 444.18 751.22 C 442.99 756.04 442.23 761.06 442.66 766.04 C 444.07 774.38 449.27 781.49 455.58 786.90 C 457.74 784.06 460.00 780.36 463.96 780.09 C 468.32 779.72 471.62 783.02 474.90 785.36 C 480.74 778.82 484.46 770.75 489.93 763.92 C 496.19 755.77 504.63 749.46 513.90 745.10 C 509.82 728.78 511.06 711.86 510.34 695.21 C 510.16 689.66 508.07 684.46 505.79 679.48 C 500.37 688.28 493.78 696.26 487.20 704.21 M 548.09 707.68 C 537.44 708.95 526.23 708.32 516.44 703.62 C 516.92 717.78 516.37 732.20 520.24 745.98 C 527.62 773.33 540.25 798.97 554.84 823.15 C 560.96 833.86 568.46 843.69 574.70 854.32 C 577.38 858.69 580.79 862.66 582.51 867.56 C 587.31 880.80 591.23 894.76 599.80 906.18 C 604.05 912.34 610.32 916.65 616.63 920.47 C 619.49 922.05 622.61 923.74 626.00 923.44 C 630.97 922.50 632.75 916.23 631.06 911.98 C 628.97 906.60 627.26 900.68 628.99 894.94 C 629.80 890.87 633.39 888.43 636.40 886.00 C 632.66 874.15 627.99 862.60 624.67 850.62 C 620.61 837.30 617.47 823.73 613.73 810.32 C 608.06 788.28 601.60 766.44 594.03 744.99 C 588.47 728.54 581.35 712.56 577.44 695.59 C 569.30 702.74 558.70 706.36 548.09 707.68 M 401.44 756.33 C 400.06 763.37 402.44 770.47 404.99 776.97 C 411.46 791.45 419.52 805.15 426.59 819.35 C 431.48 829.82 435.07 840.88 437.55 852.16 C 441.26 867.62 444.41 884.33 455.64 896.38 C 460.03 901.34 468.23 902.68 473.59 898.51 C 478.25 894.44 478.60 887.65 477.68 881.95 C 475.15 864.08 473.19 846.09 473.21 828.02 C 473.30 816.01 472.93 803.94 474.54 792.01 C 470.60 790.46 467.72 787.23 463.98 785.38 C 460.95 786.23 459.30 789.17 456.88 790.95 C 447.97 788.18 441.29 779.98 439.00 771.06 C 436.89 762.35 437.47 753.00 440.58 744.60 C 438.74 744.92 436.92 745.32 435.08 745.53 C 428.34 746.50 421.62 743.50 414.92 745.27 C 409.11 746.52 402.64 749.96 401.44 756.33 M 640.04 889.13 C 637.29 891.28 633.86 893.49 633.55 897.33 C 631.83 904.92 638.53 911.58 636.39 919.15 C 635.39 925.26 629.18 930.04 622.98 928.83 C 615.62 927.46 609.63 922.53 603.63 918.37 C 609.34 934.69 609.27 952.38 614.42 968.85 C 615.57 972.01 616.90 976.36 620.96 976.55 C 627.13 974.76 632.15 970.41 638.13 968.13 C 651.14 963.20 665.19 962.05 678.99 961.87 C 690.49 961.21 702.78 961.09 712.95 954.95 C 722.06 949.59 731.95 945.63 740.82 939.84 C 743.24 938.08 746.32 936.23 746.73 932.97 C 746.16 929.50 742.82 927.52 739.99 925.99 C 733.04 922.53 725.59 920.25 718.24 917.83 C 704.73 913.36 690.39 911.96 677.15 906.58 C 664.52 901.43 650.60 898.26 640.04 889.13 Z" />
		<path fill="#020202" opacity="1.00"
			d=" M 348.65 316.42 C 347.48 311.27 352.34 307.20 356.97 306.46 C 362.33 305.51 367.77 310.67 366.92 316.10 C 366.06 321.54 362.18 325.80 359.29 330.27 C 351.30 341.23 345.27 353.57 341.39 366.56 C 340.81 368.54 339.76 372.07 337.06 370.15 C 337.05 365.28 338.63 360.59 340.06 355.99 C 343.35 345.80 348.22 336.16 354.30 327.36 C 356.67 323.64 359.68 320.20 361.09 315.97 C 362.24 313.04 358.72 310.30 356.00 311.10 C 353.01 311.96 351.06 314.61 348.65 316.42 Z" />
	</g>
	<g id="#f0b58bff">
		<path fill="#f0b58b" opacity="1.00"
			d=" M 581.04 68.88 C 582.20 64.89 582.91 59.66 587.08 57.68 C 589.08 58.05 589.54 60.31 589.79 62.01 C 590.14 66.73 587.71 71.01 584.66 74.41 C 588.93 75.54 593.09 73.71 597.01 72.19 C 597.11 78.21 596.62 84.32 594.22 89.92 C 587.33 85.64 579.06 83.29 570.95 84.55 C 566.46 85.32 561.77 85.83 557.64 87.88 C 556.59 89.81 558.86 91.57 559.84 93.07 C 565.62 99.14 571.44 105.68 579.25 109.12 C 580.89 106.69 582.05 103.99 582.91 101.19 C 585.66 100.40 588.37 99.48 591.03 98.42 C 588.54 106.75 588.38 115.55 589.47 124.12 C 589.69 128.16 590.39 133.15 587.31 136.30 C 582.64 137.87 577.38 135.68 572.79 137.79 C 568.34 139.86 566.04 144.47 563.47 148.37 C 559.74 154.03 556.83 160.23 552.60 165.54 C 550.98 167.26 548.77 169.72 546.17 168.55 C 542.97 167.52 540.56 165.04 538.20 162.78 C 533.62 158.07 528.77 153.61 524.57 148.54 C 521.76 145.40 519.47 141.68 515.81 139.43 C 516.68 144.47 520.39 148.20 523.28 152.17 C 512.74 162.00 504.17 175.22 503.89 190.04 C 503.85 196.26 503.16 202.46 500.93 208.32 C 499.29 189.95 495.05 171.47 485.56 155.47 C 481.71 149.27 478.36 142.77 474.27 136.72 C 470.80 132.00 469.59 126.16 467.15 120.92 C 476.96 117.26 484.64 108.46 486.38 98.07 C 488.98 103.74 490.39 109.83 492.61 115.63 C 494.61 104.90 486.80 95.65 486.46 85.19 C 491.85 94.57 499.77 102.41 509.02 107.96 C 511.90 109.74 515.09 111.01 518.48 111.34 C 518.71 100.53 516.79 89.44 519.95 78.87 C 521.40 74.38 526.97 71.62 531.30 73.72 C 535.52 77.27 534.03 85.00 539.63 87.23 C 542.81 88.10 546.19 90.08 549.45 89.57 C 553.43 83.09 556.80 76.22 561.14 69.93 C 565.39 73.86 571.20 76.52 577.07 76.02 C 580.54 75.60 580.26 71.44 581.04 68.88 Z" />
		<path fill="#f0b58b" opacity="1.00"
			d=" M 322.12 172.78 C 337.14 173.99 350.64 182.36 361.08 192.84 C 368.12 199.89 373.93 208.12 378.28 217.08 C 373.11 220.29 367.57 222.77 361.89 224.93 C 350.16 230.17 339.11 237.26 330.21 246.58 C 332.08 240.24 334.72 234.20 337.20 228.10 C 333.37 227.82 332.04 231.82 330.61 234.59 C 324.50 248.32 320.01 262.70 315.10 276.89 C 312.51 284.17 308.67 290.93 304.25 297.24 C 297.59 307.41 288.61 315.77 281.79 325.82 C 277.73 331.83 273.90 337.99 269.84 344.00 C 260.62 357.59 252.63 371.95 243.87 385.83 C 240.75 390.95 236.14 395.26 234.42 401.16 C 232.85 405.74 232.38 410.59 231.13 415.25 C 229.67 418.80 227.73 422.28 225.00 425.02 C 221.34 428.01 216.31 428.06 212.15 430.06 C 205.70 432.42 199.62 437.39 192.40 436.44 C 189.94 436.35 188.61 433.44 190.37 431.63 C 199.06 427.68 207.99 423.15 214.45 415.99 C 214.41 415.45 214.33 414.39 214.28 413.86 C 210.31 414.19 207.48 417.31 204.23 419.27 C 197.74 423.43 190.85 428.04 182.93 428.50 C 179.40 428.19 180.32 423.65 181.41 421.44 C 182.97 416.55 188.63 415.93 192.32 413.27 C 197.09 410.03 202.63 407.10 205.60 401.97 C 205.22 401.60 204.47 400.86 204.10 400.49 C 195.11 404.55 187.99 412.85 177.88 414.46 C 175.74 414.76 174.38 412.19 175.52 410.46 C 178.34 405.03 185.04 404.08 189.44 400.38 C 191.38 398.60 195.36 397.12 194.26 393.90 C 186.53 394.98 181.00 401.79 173.12 402.50 C 176.12 396.17 182.66 393.09 187.68 388.68 C 193.63 383.84 197.31 376.96 202.07 371.08 C 205.89 366.92 212.20 368.26 216.94 365.91 C 221.41 364.20 223.60 359.63 225.78 355.72 C 234.92 336.78 240.61 316.45 246.21 296.26 C 247.73 290.24 249.21 284.21 251.22 278.33 C 257.45 256.99 269.19 237.46 284.13 221.09 C 297.56 205.64 311.82 190.60 322.12 172.78 Z" />
		<path fill="#f0b58b" opacity="1.00"
			d=" M 502.95 353.13 C 507.42 351.63 512.19 349.62 516.97 350.97 C 520.26 351.70 522.99 353.77 525.62 355.78 C 524.99 360.51 524.81 365.28 525.08 370.05 C 525.15 383.94 525.74 398.18 530.71 411.32 C 532.99 417.20 536.76 422.77 542.18 426.15 C 543.75 427.09 545.11 425.86 544.64 424.19 C 543.33 421.67 541.26 419.67 539.77 417.27 C 537.37 413.70 536.07 409.57 534.77 405.52 C 553.10 415.68 572.49 423.84 592.19 430.95 C 604.29 435.16 616.36 439.51 628.85 442.41 C 638.92 444.63 648.78 447.85 659.00 449.36 C 667.21 450.40 673.91 444.86 681.09 441.93 C 693.61 436.32 707.73 437.57 720.99 439.03 C 724.83 439.61 728.75 439.19 732.40 437.85 C 731.55 439.97 731.04 442.65 728.75 443.73 C 721.48 447.69 712.96 446.18 705.10 446.16 C 702.57 446.07 701.92 449.69 704.42 450.30 C 716.50 453.91 729.03 455.75 741.24 458.87 C 749.27 460.94 757.91 461.07 765.44 464.75 C 763.47 465.88 761.51 467.88 759.03 467.23 C 748.42 465.87 737.67 465.40 726.99 465.99 C 724.95 466.56 720.96 465.87 721.35 469.06 C 722.49 469.59 723.69 469.89 724.96 469.96 C 739.49 470.54 754.41 469.59 768.51 473.85 C 763.80 476.46 758.39 478.04 753.00 477.91 C 742.85 476.65 732.54 475.57 722.33 476.43 C 719.85 478.14 724.29 480.04 725.94 480.01 C 738.91 480.91 752.31 481.02 764.59 485.88 C 749.52 489.23 734.16 485.39 718.98 485.40 C 716.39 485.30 713.39 486.32 712.47 488.98 C 711.85 492.57 715.58 494.63 718.37 495.81 C 728.04 499.55 738.18 502.39 747.11 507.81 C 738.25 508.54 729.52 506.28 720.95 504.33 C 703.83 499.88 686.54 495.68 670.11 489.04 C 661.77 484.13 652.74 479.96 642.98 479.09 C 631.98 478.14 620.93 477.99 609.92 477.23 C 593.95 476.10 577.47 475.66 562.51 469.32 C 552.02 464.71 541.40 460.42 530.65 456.47 C 527.99 455.45 525.20 454.86 522.40 454.41 C 519.67 452.01 516.44 450.30 512.96 449.28 C 511.84 445.08 509.46 440.55 504.96 439.33 C 501.39 438.66 497.70 438.92 494.15 438.13 C 495.67 432.54 499.13 427.67 500.28 421.98 C 501.15 417.34 498.38 413.28 497.19 409.01 C 496.30 402.57 495.80 395.78 498.36 389.62 C 499.73 388.57 501.22 387.57 502.11 386.05 C 507.50 376.00 508.45 363.36 502.95 353.13 Z" />
		<path fill="#f0b58b" opacity="1.00"
			d=" M 195.09 440.80 C 198.08 440.18 201.04 439.42 203.91 438.36 C 201.72 441.17 199.84 444.26 197.11 446.59 C 196.34 444.69 195.67 442.76 195.09 440.80 Z" />
		<path fill="#f0b58b" opacity="1.00"
			d=" M 565.54 576.61 C 578.55 565.91 593.92 558.17 610.08 553.49 C 616.04 561.28 621.94 569.14 628.49 576.46 C 635.73 584.46 641.79 593.45 647.52 602.57 C 651.83 610.63 655.40 619.76 654.09 629.06 C 653.20 641.39 645.48 651.69 638.18 661.12 C 636.63 662.82 635.41 665.03 633.30 666.07 C 625.91 666.37 618.64 664.50 611.55 662.64 C 601.49 659.70 591.45 656.12 582.62 650.35 C 580.60 648.83 578.12 647.43 577.29 644.89 C 570.57 626.48 561.27 609.13 554.62 590.70 C 556.23 584.72 561.03 580.51 565.54 576.61 Z" />
		<path fill="#f0b58b" opacity="1.00"
			d=" M 515.85 604.57 C 526.90 600.27 538.00 595.06 550.05 594.63 C 557.19 617.19 570.21 637.67 574.86 661.05 C 576.17 670.27 575.46 679.64 576.37 688.90 C 570.25 695.09 561.81 698.12 553.58 700.32 C 541.37 703.23 527.79 704.03 516.28 698.22 C 516.04 686.23 511.27 674.54 503.64 665.37 C 495.93 655.43 486.61 646.68 475.80 640.21 C 471.86 637.64 467.71 635.35 463.17 634.05 C 479.37 622.00 497.23 612.31 515.85 604.57 Z" />
	</g>
	<g id="#f11b27ff">
		<path fill="var(--shirt-color, grey)" opacity="1.00"
			d=" M 395.97 106.92 C 405.46 104.25 415.00 101.01 424.98 101.08 C 433.19 100.98 442.11 101.13 449.27 105.69 C 458.63 112.76 461.10 124.79 466.42 134.61 C 476.16 150.89 487.84 166.68 492.19 185.48 C 493.88 193.74 495.92 201.91 497.61 210.17 C 498.01 212.20 498.71 214.16 499.63 216.02 C 504.82 209.99 507.18 202.03 508.08 194.25 C 510.85 203.43 513.73 212.62 515.25 222.12 C 520.70 254.95 517.73 289.34 505.41 320.35 C 501.98 328.43 498.12 336.52 496.83 345.28 C 489.48 330.94 476.97 320.43 465.82 309.17 C 461.43 305.29 457.30 300.11 451.09 299.41 C 452.56 301.41 454.23 303.27 455.99 305.03 C 462.29 311.43 467.98 318.40 474.15 324.91 C 478.99 330.12 483.88 335.38 487.50 341.54 C 489.87 345.46 491.66 349.81 494.97 353.07 C 498.52 356.37 500.21 361.17 500.73 365.89 C 501.30 372.06 499.27 378.08 496.95 383.71 C 489.50 380.40 483.15 374.75 475.01 373.01 C 464.37 370.57 453.67 367.49 444.37 361.60 C 439.56 358.52 436.93 353.31 433.26 349.13 C 435.50 357.04 441.17 363.67 448.15 367.87 C 456.01 372.76 464.68 376.26 473.63 378.57 C 481.42 380.41 487.56 385.86 494.86 388.83 C 492.78 392.49 491.67 396.57 491.57 400.78 C 487.01 397.25 481.51 395.39 476.01 393.95 C 466.55 391.38 458.11 386.26 449.78 381.24 C 440.87 375.88 431.86 370.66 423.45 364.52 C 417.52 360.70 412.16 355.90 405.64 353.09 C 408.23 357.83 412.92 360.67 417.02 363.94 C 431.22 374.62 445.34 385.65 461.25 393.75 C 466.72 396.54 472.59 398.47 478.60 399.72 C 483.36 400.72 487.93 402.72 491.56 406.01 C 491.67 410.97 495.04 415.10 495.17 420.00 C 494.46 424.78 491.38 428.77 489.84 433.29 C 475.40 427.19 459.56 425.87 444.13 424.37 C 424.84 422.31 405.27 423.55 386.24 427.18 C 367.30 430.83 349.17 438.04 332.30 447.30 C 325.16 451.45 318.34 456.42 313.12 462.88 C 313.97 452.14 317.31 441.83 320.85 431.73 C 325.42 415.21 330.23 398.69 332.72 381.70 C 335.38 366.30 337.03 350.65 336.63 335.01 C 336.65 329.03 334.71 322.85 336.87 317.04 C 339.40 308.21 346.17 301.65 351.64 294.57 C 357.33 287.93 361.92 280.40 365.35 272.37 C 366.38 270.07 366.68 267.55 366.88 265.07 C 362.13 270.14 359.18 276.56 354.95 282.03 C 348.70 290.12 341.93 297.80 335.82 305.99 C 338.40 285.33 337.26 264.38 340.75 243.81 C 350.05 236.57 360.50 230.96 371.29 226.28 C 379.73 221.94 388.57 218.00 395.72 211.61 C 398.07 209.16 402.09 210.77 403.54 213.42 C 409.06 222.79 414.82 232.78 424.28 238.72 C 432.34 243.59 440.48 248.35 448.17 253.80 C 453.08 257.21 456.95 261.80 461.32 265.82 C 459.71 260.89 456.52 256.66 452.91 253.02 C 447.87 248.09 441.29 245.31 435.45 241.52 C 430.04 238.03 424.14 235.07 419.75 230.26 C 414.98 225.06 411.53 218.84 408.24 212.65 C 406.88 209.90 404.34 208.10 401.80 206.55 C 408.43 204.50 415.35 203.92 422.21 203.12 C 433.23 201.75 443.98 206.05 455.01 205.06 C 459.55 204.53 464.80 204.98 468.43 201.68 C 460.68 201.60 452.88 202.56 445.18 201.30 C 438.04 200.15 430.91 198.59 423.63 198.90 C 434.52 194.53 444.18 187.61 452.89 179.84 C 454.60 178.32 456.12 176.62 457.52 174.80 C 454.79 175.22 452.36 176.55 450.21 178.21 C 442.41 184.01 434.27 189.46 425.34 193.37 C 418.04 196.60 410.01 197.65 402.69 200.82 C 395.08 204.00 389.67 210.51 382.73 214.76 C 374.81 198.25 361.82 184.08 345.67 175.36 C 337.60 170.98 328.41 168.41 319.18 169.16 C 325.64 160.08 333.22 151.83 342.00 144.95 C 347.08 140.72 353.22 137.70 357.37 132.43 C 362.44 126.17 368.05 120.18 374.99 115.97 C 381.44 111.83 388.61 108.97 395.97 106.92 M 348.65 316.42 C 351.06 314.61 353.01 311.96 356.00 311.10 C 358.72 310.30 362.24 313.04 361.09 315.97 C 359.68 320.20 356.67 323.64 354.30 327.36 C 348.22 336.16 343.35 345.80 340.06 355.99 C 338.63 360.59 337.05 365.28 337.06 370.15 C 339.76 372.07 340.81 368.54 341.39 366.56 C 345.27 353.57 351.30 341.23 359.29 330.27 C 362.18 325.80 366.06 321.54 366.92 316.10 C 367.77 310.67 362.33 305.51 356.97 306.46 C 352.34 307.20 347.48 311.27 348.65 316.42 Z" />
		<path fill="var(--shirt-color, grey)" opacity="1.00"
			d=" M 503.30 337.53 C 506.56 327.51 512.01 318.32 514.52 308.03 C 516.85 323.15 524.77 336.56 528.19 351.39 C 523.88 347.97 518.71 345.17 513.05 345.30 C 508.04 345.36 503.43 347.54 498.62 348.64 C 500.59 345.12 501.96 341.32 503.30 337.53 Z" />
	</g>
	<g id="#2b3dcdff">
		<path fill="var(--pants-color, grey)" opacity="1.00"
			d=" M 348.58 444.49 C 369.43 435.06 392.10 430.00 414.90 428.56 C 431.52 427.33 448.07 429.91 464.55 431.70 C 473.49 433.55 483.24 434.38 490.64 440.27 C 494.51 443.24 499.50 442.94 504.02 443.89 C 507.51 445.47 507.47 449.88 509.26 452.79 C 512.15 454.68 516.16 454.67 518.47 457.49 C 521.59 461.16 523.33 465.87 526.93 469.17 C 529.97 472.01 534.37 472.74 537.41 475.59 C 539.82 477.84 541.74 480.55 544.13 482.83 C 548.65 487.34 555.33 488.69 559.88 493.18 C 566.52 499.65 570.54 508.34 577.49 514.55 C 588.69 524.77 598.39 536.47 609.55 546.72 C 595.14 550.69 581.67 557.74 569.74 566.69 C 562.40 572.28 555.46 578.77 551.09 587.01 C 548.84 580.95 546.26 575.00 544.42 568.78 C 541.86 560.38 536.74 553.15 532.48 545.57 C 528.13 538.26 524.02 530.77 518.89 523.98 C 512.81 516.44 505.43 509.86 496.95 505.13 C 491.36 501.85 485.19 499.73 479.57 496.51 C 472.43 492.45 465.58 487.89 458.88 483.16 C 453.70 479.55 449.02 475.21 443.39 472.29 C 446.19 477.43 450.90 481.05 455.36 484.68 C 467.77 494.65 481.47 502.85 495.25 510.76 C 502.91 515.12 509.33 521.36 514.82 528.21 C 519.59 534.58 523.51 541.53 527.59 548.35 C 531.70 555.40 536.84 561.96 539.40 569.80 C 541.48 576.29 544.08 582.58 547.02 588.72 C 537.48 589.70 528.51 593.22 519.59 596.51 C 501.58 603.53 484.12 612.17 468.24 623.23 C 458.59 630.09 448.98 637.27 441.22 646.27 C 438.84 648.86 437.78 652.27 437.30 655.69 C 431.00 648.99 425.54 641.51 418.59 635.43 C 409.55 627.50 404.41 615.89 402.88 604.11 C 401.51 595.15 395.07 588.15 388.41 582.52 C 381.10 576.07 371.24 573.59 363.93 567.15 C 351.90 557.09 345.38 542.47 338.19 528.92 C 332.28 517.87 328.09 506.04 323.61 494.37 C 319.95 485.53 317.15 476.35 315.08 467.01 C 323.38 455.99 336.38 450.11 348.58 444.49 Z" />
		<path fill="var(--socks-color, grey)" opacity="1.00"
			d=" M 580.74 656.55 C 595.76 664.73 612.63 669.68 629.71 670.69 C 619.55 680.64 608.90 690.15 597.09 698.12 C 593.60 700.55 590.12 703.01 586.72 705.58 C 585.63 701.51 584.44 697.46 583.67 693.31 C 581.45 681.16 583.53 668.63 580.74 656.55 Z" />
		<path fill="var(--socks-color, grey)" opacity="1.00"
			d=" M 487.20 704.21 C 493.78 696.26 500.37 688.28 505.79 679.48 C 508.07 684.46 510.16 689.66 510.34 695.21 C 511.06 711.86 509.82 728.78 513.90 745.10 C 504.63 749.46 496.19 755.77 489.93 763.92 C 484.46 770.75 480.74 778.82 474.90 785.36 C 471.62 783.02 468.32 779.72 463.96 780.09 C 460.00 780.36 457.74 784.06 455.58 786.90 C 449.27 781.49 444.07 774.38 442.66 766.04 C 442.23 761.06 442.99 756.04 444.18 751.22 C 445.80 744.89 451.87 741.48 456.24 737.19 C 467.68 727.31 477.77 715.99 487.20 704.21 Z" />
		<path fill="var(--socks-color, grey)" opacity="1.00"
			d=" M 548.09 707.68 C 558.70 706.36 569.30 702.74 577.44 695.59 C 581.35 712.56 588.47 728.54 594.03 744.99 C 601.60 766.44 608.06 788.28 613.73 810.32 C 617.47 823.73 620.61 837.30 624.67 850.62 C 627.99 862.60 632.66 874.15 636.40 886.00 C 633.39 888.43 629.80 890.87 628.99 894.94 C 627.26 900.68 628.97 906.60 631.06 911.98 C 632.75 916.23 630.97 922.50 626.00 923.44 C 622.61 923.74 619.49 922.05 616.63 920.47 C 610.32 916.65 604.05 912.34 599.80 906.18 C 591.23 894.76 587.31 880.80 582.51 867.56 C 580.79 862.66 577.38 858.69 574.70 854.32 C 568.46 843.69 560.96 833.86 554.84 823.15 C 540.25 798.97 527.62 773.33 520.24 745.98 C 516.37 732.20 516.92 717.78 516.44 703.62 C 526.23 708.32 537.44 708.95 548.09 707.68 Z" />
	</g>
	<g id="#4d4d4dff">
		<path fill="#4d4d4d" opacity="1.00"
			d=" M 401.44 756.33 C 402.64 749.96 409.11 746.52 414.92 745.27 C 421.62 743.50 428.34 746.50 435.08 745.53 C 436.92 745.32 438.74 744.92 440.58 744.60 C 437.47 753.00 436.89 762.35 439.00 771.06 C 441.29 779.98 447.97 788.18 456.88 790.95 C 459.30 789.17 460.95 786.23 463.98 785.38 C 467.72 787.23 470.60 790.46 474.54 792.01 C 472.93 803.94 473.30 816.01 473.21 828.02 C 473.19 846.09 475.15 864.08 477.68 881.95 C 478.60 887.65 478.25 894.44 473.59 898.51 C 468.23 902.68 460.03 901.34 455.64 896.38 C 444.41 884.33 441.26 867.62 437.55 852.16 C 435.07 840.88 431.48 829.82 426.59 819.35 C 419.52 805.15 411.46 791.45 404.99 776.97 C 402.44 770.47 400.06 763.37 401.44 756.33 Z" />
		<path fill="#4d4d4d" opacity="1.00"
			d=" M 640.04 889.13 C 650.60 898.26 664.52 901.43 677.15 906.58 C 690.39 911.96 704.73 913.36 718.24 917.83 C 725.59 920.25 733.04 922.53 739.99 925.99 C 742.82 927.52 746.16 929.50 746.73 932.97 C 746.32 936.23 743.24 938.08 740.82 939.84 C 731.95 945.63 722.06 949.59 712.95 954.95 C 702.78 961.09 690.49 961.21 678.99 961.87 C 665.19 962.05 651.14 963.20 638.13 968.13 C 632.15 970.41 627.13 974.76 620.96 976.55 C 616.90 976.36 615.57 972.01 614.42 968.85 C 609.27 952.38 609.34 934.69 603.63 918.37 C 609.63 922.53 615.62 927.46 622.98 928.83 C 629.18 930.04 635.39 925.26 636.39 919.15 C 638.53 911.58 631.83 904.92 633.55 897.33 C 633.86 893.49 637.29 891.28 640.04 889.13 Z" />
	</g>
</svg>