<?xml version="1.0" encoding="UTF-8" ?>
<!DOCTYPE svg PUBLIC "-//W3C//DTD SVG 1.1//EN" "http://www.w3.org/Graphics/SVG/1.1/DTD/svg11.dtd">
<svg width="1000pt" height="1000pt" viewBox="0 0 1000 1000" version="1.1" xmlns="http://www.w3.org/2000/svg">
	<g id="#020202ff">
		<path fill="#020202" opacity="1.00"
			d=" M 484.12 12.20 C 497.97 5.76 513.90 3.47 528.89 6.79 C 542.96 9.81 555.73 18.48 563.69 30.48 C 566.27 34.26 567.44 38.74 568.85 43.04 C 571.56 51.85 574.71 60.70 575.08 70.01 C 575.52 76.67 573.32 83.42 575.21 90.00 C 577.82 99.66 582.29 108.67 586.20 117.85 C 587.08 120.43 588.49 123.91 586.24 126.18 C 582.16 129.81 575.78 127.12 571.62 130.49 C 563.79 142.78 567.93 158.81 560.23 171.16 C 557.59 175.09 552.38 175.78 548.02 175.56 C 539.32 175.59 533.47 167.53 525.00 166.88 C 519.75 166.29 514.62 170.72 514.59 176.05 C 513.96 184.66 514.74 193.33 515.36 201.92 C 517.05 209.37 519.78 216.56 522.21 223.79 C 530.30 243.46 532.97 264.93 533.21 286.06 C 533.32 308.80 529.95 331.34 527.15 353.86 C 545.23 358.09 562.25 365.72 580.04 370.89 C 591.93 374.37 603.91 377.75 616.23 379.29 C 625.12 380.50 634.12 380.31 643.06 379.91 C 648.26 379.96 653.56 379.29 658.67 380.53 C 664.32 382.15 669.30 385.43 674.06 388.79 C 680.27 393.17 686.18 398.17 690.64 404.38 C 692.41 406.83 693.54 410.74 691.11 413.13 C 688.62 415.31 686.11 417.46 683.98 420.00 C 681.33 423.01 677.15 423.50 673.39 423.10 C 671.17 429.58 663.92 433.10 657.43 431.04 C 655.60 432.59 653.70 434.67 651.04 434.41 C 643.71 433.83 637.83 428.91 631.80 425.20 C 625.82 421.43 620.09 416.73 613.03 415.19 C 603.37 413.44 593.66 415.81 583.98 415.99 C 563.63 416.60 543.55 412.62 523.50 409.74 C 522.85 414.10 522.70 418.56 523.65 422.89 C 524.75 429.70 528.32 435.94 528.56 442.92 C 528.88 449.08 528.75 455.40 530.83 461.30 C 533.59 469.30 538.35 476.39 541.94 484.01 C 548.16 497.17 558.14 508.64 561.55 523.05 C 559.09 524.04 556.63 525.01 554.17 525.98 C 556.28 531.47 555.61 537.40 556.14 543.14 C 556.17 546.52 558.89 548.84 560.57 551.51 C 566.17 559.96 567.39 570.31 571.65 579.37 C 577.70 593.31 587.26 605.27 594.50 618.55 C 597.97 624.82 601.50 631.09 604.28 637.71 C 605.26 640.38 606.54 643.49 605.21 646.28 C 603.62 648.26 601.18 649.27 599.10 650.62 C 603.54 656.50 606.39 663.38 608.41 670.43 C 611.20 679.72 610.41 689.55 612.02 699.05 C 614.02 718.30 620.54 736.60 625.85 755.09 C 630.16 770.95 635.90 786.38 641.44 801.84 C 647.12 817.38 653.61 832.62 660.30 847.75 C 664.16 856.76 668.28 865.66 672.78 874.37 C 674.21 877.28 677.50 878.49 680.42 879.38 C 692.47 882.80 704.99 884.04 717.40 885.36 C 729.02 886.41 740.76 886.12 752.28 884.30 C 758.24 883.73 764.72 881.97 770.41 884.63 C 776.31 887.98 776.91 896.01 774.75 901.82 C 771.22 911.08 763.90 918.51 755.60 923.70 C 745.64 929.96 733.83 931.80 722.53 934.27 C 713.73 936.17 704.35 936.83 696.43 941.50 C 686.60 947.37 678.72 955.84 669.40 962.41 C 663.00 967.61 654.29 970.82 646.09 968.54 C 638.83 966.45 633.62 960.30 630.09 953.90 C 623.73 942.40 623.17 928.80 623.59 915.96 C 623.50 911.20 624.69 906.03 622.17 901.68 C 611.62 878.63 598.82 856.61 584.05 836.01 C 574.04 821.68 564.72 806.84 556.68 791.31 C 550.55 778.65 546.09 765.12 543.74 751.24 C 541.26 736.91 544.15 722.39 543.46 707.99 C 541.17 694.46 532.21 683.55 524.35 672.78 C 521.99 672.19 519.64 671.60 517.30 671.01 C 517.21 676.86 516.91 682.71 516.29 688.53 C 515.97 690.27 515.85 692.21 514.75 693.69 C 513.17 695.03 511.26 695.90 509.48 696.94 C 509.35 711.24 508.10 727.01 498.33 738.33 C 494.37 742.62 493.07 748.44 492.71 754.10 C 491.01 771.87 482.86 787.99 476.25 804.29 C 469.72 819.87 462.65 835.24 457.08 851.21 C 448.61 874.94 440.33 898.74 432.48 922.68 C 450.37 938.21 470.38 951.05 490.46 963.53 C 497.86 968.01 505.46 972.17 513.39 975.62 C 516.16 976.97 519.82 978.41 520.17 981.95 C 520.60 985.52 517.99 988.45 515.17 990.22 C 509.85 994.18 503.03 994.64 496.73 995.83 C 486.59 997.72 476.21 998.40 465.92 997.56 C 455.86 996.86 446.07 994.20 436.06 993.16 C 422.69 991.47 409.24 990.92 395.81 989.99 C 387.72 989.07 379.02 988.55 372.06 983.88 C 366.84 979.63 367.16 972.03 367.23 965.94 C 368.00 955.09 372.82 945.15 376.16 934.95 C 378.26 929.48 376.52 923.57 377.44 917.92 C 379.51 900.54 382.59 883.29 384.98 865.94 C 387.54 846.95 390.62 828.03 393.07 809.03 C 395.22 794.84 397.42 780.58 401.61 766.82 C 403.85 759.38 408.06 752.75 412.64 746.55 C 417.90 739.24 425.10 733.42 429.37 725.37 C 433.08 718.72 436.92 710.42 432.98 703.00 C 424.94 699.24 416.71 695.69 409.38 690.61 C 407.23 689.12 404.74 686.94 405.52 684.01 C 407.71 671.13 414.38 658.42 411.27 645.09 C 407.52 629.50 399.26 615.51 391.16 601.83 C 383.91 589.52 375.59 577.84 368.76 565.28 C 362.70 554.21 359.84 541.68 359.00 529.16 C 355.22 527.41 350.89 526.23 348.08 522.97 C 345.98 519.91 345.79 516.04 345.22 512.49 C 344.04 500.31 342.68 488.14 341.68 475.93 C 340.82 465.91 339.09 455.99 338.06 445.99 C 337.23 438.98 339.89 432.29 341.41 425.57 C 345.23 408.99 350.06 392.66 353.64 376.03 C 355.93 363.67 359.29 351.54 361.80 339.23 C 357.98 332.91 354.79 326.23 351.46 319.65 C 349.75 316.44 349.08 312.65 350.34 309.16 C 354.10 297.28 358.10 285.47 363.16 274.07 C 365.22 270.30 363.62 265.99 363.76 261.95 C 363.31 252.86 367.10 244.40 369.99 235.99 C 371.68 231.33 374.14 227.01 376.95 222.94 C 380.19 218.31 380.85 212.50 383.64 207.65 C 386.68 202.24 391.12 197.83 395.08 193.10 C 402.07 185.27 406.61 175.49 414.43 168.38 C 423.14 160.47 434.71 156.63 446.12 154.71 C 450.66 154.39 453.65 150.34 455.79 146.75 C 459.64 139.30 462.35 130.69 460.83 122.25 C 459.40 115.55 452.92 111.98 449.43 106.52 C 438.19 88.04 437.10 63.57 447.46 44.47 C 455.96 30.27 468.99 18.89 484.12 12.20 M 545.06 49.95 C 544.77 51.93 546.31 54.87 544.26 56.16 C 537.61 58.31 530.62 56.23 523.82 56.27 C 522.06 62.16 519.95 67.98 518.91 74.06 C 517.83 80.28 518.80 86.69 520.83 92.62 C 516.48 89.56 512.28 86.27 508.42 82.62 C 504.63 78.97 500.77 75.06 495.70 73.27 C 492.35 72.00 488.07 73.03 485.91 75.93 C 483.99 79.24 483.79 83.23 483.62 86.96 C 483.78 100.35 490.13 112.79 498.14 123.20 C 492.01 124.68 485.63 123.46 479.85 121.22 C 472.01 118.08 464.64 113.88 457.74 109.04 C 462.04 113.29 465.61 118.72 465.62 124.98 C 465.79 135.67 462.19 146.84 454.62 154.58 C 457.90 155.72 461.09 157.16 463.99 159.09 C 474.32 165.91 484.14 173.46 494.10 180.81 C 500.03 185.18 505.77 189.83 510.99 195.05 C 510.20 187.73 509.00 180.29 510.12 172.94 C 511.23 165.77 518.50 160.79 525.59 161.45 C 521.11 157.59 517.03 153.30 513.07 148.93 C 510.38 145.90 507.40 142.72 506.92 138.50 C 508.96 139.58 510.79 141.02 512.30 142.78 C 518.45 149.59 524.96 156.11 532.02 161.99 C 537.42 167.00 544.21 172.01 552.04 170.82 C 556.05 170.70 558.11 166.66 559.18 163.33 C 562.74 151.75 561.58 138.68 568.17 128.09 C 572.09 123.83 578.47 124.89 583.61 123.56 C 579.51 111.64 572.31 100.76 570.23 88.16 C 569.23 82.45 570.86 76.74 570.62 71.02 C 570.48 60.78 566.44 51.21 564.13 41.38 C 561.62 45.46 559.01 49.49 556.72 53.70 C 556.01 55.18 554.82 56.29 553.44 57.14 C 553.05 48.86 553.08 40.31 549.81 32.54 C 544.07 36.32 544.71 43.95 545.06 49.95 M 418.28 170.26 C 410.40 177.02 406.12 186.74 399.43 194.50 C 395.86 198.90 391.76 202.88 388.61 207.60 C 384.83 213.05 384.50 220.11 380.51 225.46 C 376.94 230.27 374.46 235.77 372.65 241.46 C 370.65 247.77 367.67 254.12 368.40 260.91 C 369.75 275.26 372.35 289.54 372.08 304.01 C 371.96 312.34 370.52 320.57 368.92 328.72 C 366.01 342.57 362.84 356.37 359.64 370.15 C 355.73 390.33 349.71 410.00 345.18 430.03 C 348.84 424.51 352.74 419.13 357.28 414.29 C 364.83 406.14 372.30 397.93 379.53 389.50 C 383.12 385.63 386.43 380.96 391.73 379.35 C 390.65 381.61 389.29 383.74 387.68 385.67 C 383.30 390.97 379.20 396.49 374.74 401.72 C 365.16 413.10 354.67 423.67 345.19 435.13 C 341.81 438.58 342.96 443.81 343.32 448.12 C 346.36 468.69 348.25 489.40 350.35 510.09 C 350.91 514.32 350.39 519.86 354.66 522.35 C 360.60 525.53 367.58 523.97 374.02 524.43 C 397.47 524.90 419.24 534.48 441.67 540.14 C 456.56 544.65 472.67 548.20 488.08 544.14 C 496.94 543.12 505.88 542.07 514.45 539.46 C 519.68 537.78 524.24 534.65 529.04 532.07 C 537.82 527.35 546.89 523.03 556.54 520.36 C 550.48 507.14 542.83 494.76 536.07 481.91 C 535.28 480.47 534.29 479.12 532.94 478.17 C 522.80 470.76 513.44 462.36 503.99 454.10 C 494.51 445.82 486.79 435.84 479.19 425.88 C 477.16 422.96 474.06 420.42 473.67 416.67 C 474.26 416.62 475.44 416.52 476.03 416.47 C 482.55 421.33 487.20 428.26 492.87 434.06 C 503.50 446.93 516.72 457.23 528.73 468.72 C 525.42 461.61 523.66 453.84 523.73 445.99 C 524.02 437.61 519.32 430.24 518.46 422.05 C 517.80 417.71 518.38 413.32 519.40 409.08 C 509.16 407.75 498.80 407.82 488.56 406.61 C 482.68 405.69 476.47 404.30 471.94 400.18 C 465.32 394.28 460.84 386.53 455.60 379.48 C 450.35 372.45 445.43 365.16 441.15 357.50 C 437.60 361.33 435.98 366.62 432.02 370.06 C 430.33 369.65 430.15 367.73 429.50 366.42 C 428.07 362.50 426.20 358.77 424.33 355.06 C 419.35 353.61 414.13 353.54 408.99 353.87 C 406.32 353.90 403.44 354.55 400.99 353.14 C 401.20 352.63 401.61 351.61 401.82 351.09 C 407.80 348.25 414.83 348.23 421.27 349.24 C 416.21 340.67 410.21 332.71 404.32 324.71 C 401.50 320.78 397.30 317.54 396.43 312.52 C 401.45 314.95 404.56 319.77 408.39 323.62 C 418.57 334.81 426.24 348.14 432.03 362.07 C 435.28 355.55 440.94 350.61 447.45 347.49 C 458.64 342.00 470.76 338.68 482.89 336.01 C 488.07 334.80 492.87 332.45 497.83 330.61 C 502.56 328.84 507.32 327.14 511.97 325.17 C 499.47 311.83 489.29 296.44 480.81 280.29 C 478.42 275.56 475.80 270.80 475.04 265.49 C 477.09 266.92 478.71 268.85 479.87 271.07 C 487.23 284.18 495.02 297.08 504.04 309.12 C 497.84 294.47 493.11 278.99 492.23 263.01 C 491.82 255.89 493.30 248.82 495.42 242.06 C 498.14 245.10 496.85 249.22 496.53 252.85 C 495.52 260.63 496.75 268.47 498.18 276.12 C 501.27 292.48 508.05 307.82 515.08 322.81 C 515.86 324.42 516.42 326.44 514.84 327.79 C 510.46 331.78 504.56 333.46 499.28 335.93 C 501.99 340.33 505.14 344.50 508.99 347.98 C 513.09 351.59 518.79 351.98 523.89 353.17 C 524.26 346.75 524.49 340.31 525.46 333.95 C 527.46 320.04 528.59 306.02 529.08 291.99 C 529.27 272.73 528.05 253.16 522.13 234.72 C 520.32 228.80 517.37 223.31 515.74 217.34 C 514.45 212.70 513.12 208.06 511.42 203.56 C 509.95 199.43 506.45 196.60 503.31 193.75 C 496.26 187.35 488.46 181.85 480.84 176.15 C 474.51 171.39 468.05 166.82 461.42 162.48 C 458.01 160.25 454.15 158.34 449.95 158.54 C 438.49 158.74 427.07 162.88 418.28 170.26 M 354.62 313.07 C 356.65 319.99 360.80 326.14 363.30 332.93 C 364.92 325.68 366.43 318.38 367.21 310.99 C 368.25 300.24 367.01 289.46 366.12 278.75 C 361.77 289.99 357.44 301.36 354.62 313.07 M 470.19 344.36 C 461.11 346.88 452.01 349.90 444.13 355.20 C 449.19 362.66 454.24 370.13 459.69 377.32 C 464.40 383.58 468.44 390.45 474.19 395.86 C 477.88 399.45 483.03 400.78 487.94 401.68 C 497.59 403.22 507.41 403.06 517.09 404.28 C 538.67 406.99 560.09 411.95 581.96 411.57 C 592.95 411.66 604.04 408.72 614.96 411.17 C 623.84 413.47 630.92 419.65 638.60 424.36 C 642.65 426.89 646.88 429.96 651.88 429.91 C 652.97 428.50 653.86 426.94 655.05 425.60 C 658.23 425.07 661.28 428.72 664.46 426.55 C 668.22 425.43 668.33 421.08 670.26 418.37 C 673.32 417.51 676.96 420.29 679.80 417.82 C 682.28 415.31 684.52 412.22 688.40 411.95 C 688.71 410.31 689.02 408.53 687.78 407.19 C 682.56 400.08 675.43 394.65 668.15 389.81 C 664.06 387.33 659.75 384.71 654.88 384.28 C 646.26 383.91 637.64 384.76 629.02 384.64 C 612.98 384.39 597.28 380.61 582.00 376.02 C 560.84 369.99 540.77 360.25 518.97 356.51 C 514.08 355.66 509.00 354.29 505.32 350.75 C 501.35 346.90 497.80 342.53 495.44 337.50 C 487.55 341.55 478.57 341.90 470.19 344.36 M 524.71 540.68 C 513.61 546.99 500.55 547.81 488.17 549.39 C 475.13 552.79 461.37 550.83 448.49 547.60 C 437.17 544.39 425.81 541.28 414.62 537.64 C 397.98 532.41 380.65 528.57 363.11 529.50 C 364.61 536.92 365.88 544.44 368.46 551.59 C 371.16 559.31 375.35 566.37 379.61 573.31 C 389.70 589.43 400.30 605.32 408.40 622.58 C 413.38 633.32 418.35 644.87 417.16 656.98 C 415.91 666.84 412.64 676.27 409.55 685.67 C 415.92 689.31 422.32 692.92 429.08 695.82 C 442.78 701.86 456.67 709.07 471.97 709.46 C 479.79 709.71 486.60 705.19 492.60 700.69 C 497.89 696.75 503.74 693.65 509.57 690.60 C 510.81 683.41 511.27 676.13 512.11 668.90 C 512.45 667.50 512.21 665.39 514.01 665.00 C 516.00 664.61 518.03 665.01 520.01 665.34 C 527.63 666.87 535.13 669.13 542.90 669.85 C 546.69 670.23 550.48 669.41 553.99 668.01 C 561.63 664.99 568.75 660.86 575.99 657.03 C 584.23 652.63 592.72 648.72 601.11 644.63 C 598.10 637.05 594.08 629.94 590.12 622.83 C 582.23 608.53 571.82 595.60 565.76 580.31 C 562.34 572.15 561.05 563.14 556.53 555.44 C 554.49 551.90 551.13 548.88 550.81 544.58 C 550.22 539.06 550.54 533.45 549.30 528.01 C 540.86 531.75 532.71 536.09 524.71 540.68 M 569.94 666.82 C 563.51 670.28 557.03 673.89 549.88 675.64 C 543.98 677.12 537.95 675.43 532.10 674.51 C 539.10 683.23 544.60 693.23 547.43 704.08 C 555.53 705.80 563.68 707.77 572.01 707.88 C 583.71 707.79 595.81 705.90 605.95 699.72 C 605.35 694.47 604.70 689.22 604.47 683.95 C 604.00 673.05 599.57 662.74 593.88 653.58 C 585.79 657.80 577.88 662.33 569.94 666.82 M 474.95 714.34 C 462.67 715.02 450.84 710.71 439.70 706.03 C 440.25 712.92 438.25 719.68 435.04 725.72 C 448.26 740.63 468.03 748.87 487.79 749.41 C 488.56 745.90 489.33 742.30 491.20 739.19 C 493.64 735.05 497.34 731.75 499.29 727.30 C 503.27 718.75 503.77 709.11 504.33 699.85 C 494.44 704.49 486.37 713.50 474.95 714.34 M 575.95 714.31 C 566.58 715.14 557.28 713.13 548.22 710.99 C 547.38 722.63 546.60 734.36 547.91 746.01 C 549.92 760.65 554.38 774.96 560.77 788.28 C 568.55 803.10 577.59 817.22 587.01 831.04 C 602.67 853.64 616.96 877.37 627.53 902.82 C 632.18 902.20 636.92 901.39 641.05 899.00 C 651.34 893.33 659.83 885.06 669.20 878.07 C 662.48 866.26 657.16 853.73 651.58 841.36 C 639.30 813.98 629.42 785.57 621.24 756.71 C 615.69 739.71 609.22 722.88 606.66 705.09 C 597.60 711.12 586.65 713.47 575.95 714.31 M 432.35 730.43 C 427.70 737.61 421.08 743.18 416.02 750.04 C 411.52 756.00 407.60 762.53 405.62 769.78 C 402.20 781.60 400.29 793.78 398.39 805.92 C 395.14 829.47 391.50 852.96 388.36 876.52 C 386.09 893.84 382.35 910.97 381.15 928.42 C 385.35 930.47 390.15 931.88 394.83 930.70 C 403.05 928.65 410.27 924.03 418.05 920.85 C 421.40 919.38 425.11 919.34 428.70 919.65 C 430.22 911.93 432.64 904.45 435.14 897.02 C 440.12 880.99 446.05 865.29 451.65 849.47 C 457.49 832.88 464.80 816.88 471.68 800.72 C 478.15 785.36 485.63 770.05 487.52 753.28 C 481.18 753.61 474.77 753.20 468.64 751.51 C 454.91 748.17 441.29 741.72 432.35 730.43 M 643.30 903.31 C 638.47 905.93 632.95 906.68 627.54 906.69 C 628.14 917.45 626.93 928.36 629.12 939.00 C 630.42 945.92 633.82 952.33 638.27 957.74 C 642.58 962.97 650.31 965.44 656.69 962.74 C 672.90 956.88 682.73 941.00 698.62 934.53 C 706.74 931.38 715.53 930.73 724.01 929.03 C 732.34 927.39 741.13 926.94 748.73 922.78 C 758.26 917.83 767.11 910.23 771.20 900.08 C 772.58 895.98 772.63 889.69 767.98 887.71 C 762.40 887.00 756.86 888.93 751.31 889.35 C 736.28 891.83 720.92 891.75 705.86 889.57 C 694.72 887.93 682.92 887.23 672.94 881.49 C 663.03 888.72 654.28 897.66 643.30 903.31 M 422.21 925.15 C 414.17 927.79 407.07 932.78 398.85 934.98 C 392.95 936.91 386.59 935.79 381.11 933.14 C 378.06 945.76 371.05 957.66 371.85 971.00 C 372.06 975.00 372.50 980.45 377.09 981.84 C 385.43 984.55 394.34 984.31 403.01 984.85 C 420.43 985.32 437.81 987.34 454.89 990.85 C 472.27 994.44 490.44 993.24 507.51 988.62 C 510.64 987.40 515.45 986.08 515.50 982.02 C 511.67 979.40 507.16 978.08 503.06 975.98 C 491.05 970.03 479.84 962.65 468.53 955.52 C 455.76 947.57 443.82 938.37 432.40 928.61 C 429.60 926.26 426.04 923.73 422.21 925.15 Z" />
		<path fill="#020202" opacity="1.00"
			d=" M 532.30 76.40 C 543.65 71.90 555.74 67.71 568.15 69.14 C 567.72 72.63 567.01 76.07 566.17 79.48 C 565.00 79.87 563.85 80.32 562.73 80.81 C 561.43 84.06 560.99 87.59 560.06 90.96 C 553.53 88.79 546.99 86.66 540.39 84.71 C 540.18 84.04 539.75 82.72 539.54 82.05 C 536.48 82.04 533.33 82.60 530.37 81.67 C 530.01 79.71 529.95 77.09 532.30 76.40 Z" />
		<path fill="#020202" opacity="1.00"
			d=" M 431.51 198.81 C 438.97 198.64 447.00 196.61 454.06 199.93 C 460.66 203.77 465.69 209.71 470.81 215.26 C 472.59 217.53 475.36 219.80 474.80 223.02 C 472.19 222.35 470.45 220.17 468.57 218.41 C 464.01 213.98 459.83 209.09 454.59 205.42 C 450.09 202.08 444.16 203.15 438.93 202.89 C 433.32 202.64 427.56 203.65 422.08 202.13 C 422.87 198.00 428.40 199.54 431.51 198.81 Z" />
		<path fill="#020202" opacity="1.00"
			d=" M 390.88 355.88 C 391.73 354.93 394.61 353.43 394.39 355.97 C 393.29 358.22 391.56 360.08 389.99 362.01 C 381.11 372.17 374.72 384.14 367.47 395.44 C 364.50 399.90 362.10 404.96 357.64 408.18 C 358.27 402.86 361.69 398.58 364.14 394.01 C 372.07 380.68 378.92 366.19 390.88 355.88 Z" />
		<path fill="#020202" opacity="1.00"
			d=" M 415.33 433.41 C 418.49 430.05 423.74 430.22 427.97 430.86 C 443.92 433.93 457.69 443.14 470.84 452.20 C 486.67 463.50 502.61 474.68 519.35 484.62 C 520.75 485.72 523.30 486.60 522.76 488.84 C 520.76 490.41 518.29 488.41 516.28 487.77 C 500.57 480.14 486.20 470.09 471.93 460.11 C 455.80 449.10 438.84 436.36 418.50 435.79 C 418.05 436.60 417.15 438.22 416.70 439.03 C 414.91 437.73 413.57 435.35 415.33 433.41 Z" />
	</g>
	<g id="#f0b58bff">
		<path fill="#f0b58b" opacity="1.00"
			d=" M 545.06 49.95 C 544.71 43.95 544.07 36.32 549.81 32.54 C 553.08 40.31 553.05 48.86 553.44 57.14 C 554.82 56.29 556.01 55.18 556.72 53.70 C 559.01 49.49 561.62 45.46 564.13 41.38 C 566.44 51.21 570.48 60.78 570.62 71.02 C 570.86 76.74 569.23 82.45 570.23 88.16 C 572.31 100.76 579.51 111.64 583.61 123.56 C 578.47 124.89 572.09 123.83 568.17 128.09 C 561.58 138.68 562.74 151.75 559.18 163.33 C 558.11 166.66 556.05 170.70 552.04 170.82 C 544.21 172.01 537.42 167.00 532.02 161.99 C 524.96 156.11 518.45 149.59 512.30 142.78 C 510.79 141.02 508.96 139.58 506.92 138.50 C 507.40 142.72 510.38 145.90 513.07 148.93 C 517.03 153.30 521.11 157.59 525.59 161.45 C 518.50 160.79 511.23 165.77 510.12 172.94 C 509.00 180.29 510.20 187.73 510.99 195.05 C 505.77 189.83 500.03 185.18 494.10 180.81 C 484.14 173.46 474.32 165.91 463.99 159.09 C 461.09 157.16 457.90 155.72 454.62 154.58 C 462.19 146.84 465.79 135.67 465.62 124.98 C 465.61 118.72 462.04 113.29 457.74 109.04 C 464.64 113.88 472.01 118.08 479.85 121.22 C 485.63 123.46 492.01 124.68 498.14 123.20 C 490.13 112.79 483.78 100.35 483.62 86.96 C 483.79 83.23 483.99 79.24 485.91 75.93 C 488.07 73.03 492.35 72.00 495.70 73.27 C 500.77 75.06 504.63 78.97 508.42 82.62 C 512.28 86.27 516.48 89.56 520.83 92.62 C 518.80 86.69 517.83 80.28 518.91 74.06 C 519.95 67.98 522.06 62.16 523.82 56.27 C 530.62 56.23 537.61 58.31 544.26 56.16 C 546.31 54.87 544.77 51.93 545.06 49.95 M 532.30 76.40 C 529.95 77.09 530.01 79.71 530.37 81.67 C 533.33 82.60 536.48 82.04 539.54 82.05 C 539.75 82.72 540.18 84.04 540.39 84.71 C 546.99 86.66 553.53 88.79 560.06 90.96 C 560.99 87.59 561.43 84.06 562.73 80.81 C 563.85 80.32 565.00 79.87 566.17 79.48 C 567.01 76.07 567.72 72.63 568.15 69.14 C 555.74 67.71 543.65 71.90 532.30 76.40 Z" />
		<path fill="#f0b58b" opacity="1.00"
			d=" M 354.62 313.07 C 357.44 301.36 361.77 289.99 366.12 278.75 C 367.01 289.46 368.25 300.24 367.21 310.99 C 366.43 318.38 364.92 325.68 363.30 332.93 C 360.80 326.14 356.65 319.99 354.62 313.07 Z" />
		<path fill="#f0b58b" opacity="1.00"
			d=" M 470.19 344.36 C 478.57 341.90 487.55 341.55 495.44 337.50 C 497.80 342.53 501.35 346.90 505.32 350.75 C 509.00 354.29 514.08 355.66 518.97 356.51 C 540.77 360.25 560.84 369.99 582.00 376.02 C 597.28 380.61 612.98 384.39 629.02 384.64 C 637.64 384.76 646.26 383.91 654.88 384.28 C 659.75 384.71 664.06 387.33 668.15 389.81 C 675.43 394.65 682.56 400.08 687.78 407.19 C 689.02 408.53 688.71 410.31 688.40 411.95 C 684.52 412.22 682.28 415.31 679.80 417.82 C 676.96 420.29 673.32 417.51 670.26 418.37 C 668.33 421.08 668.22 425.43 664.46 426.55 C 661.28 428.72 658.23 425.07 655.05 425.60 C 653.86 426.94 652.97 428.50 651.88 429.91 C 646.88 429.96 642.65 426.89 638.60 424.36 C 630.92 419.65 623.84 413.47 614.96 411.17 C 604.04 408.72 592.95 411.66 581.96 411.57 C 560.09 411.95 538.67 406.99 517.09 404.28 C 507.41 403.06 497.59 403.22 487.94 401.68 C 483.03 400.78 477.88 399.45 474.19 395.86 C 468.44 390.45 464.40 383.58 459.69 377.32 C 454.24 370.13 449.19 362.66 444.13 355.20 C 452.01 349.90 461.11 346.88 470.19 344.36 Z" />
		<path fill="#f0b58b" opacity="1.00"
			d=" M 569.94 666.82 C 577.88 662.33 585.79 657.80 593.88 653.58 C 599.57 662.74 604.00 673.05 604.47 683.95 C 604.70 689.22 605.35 694.47 605.95 699.72 C 595.81 705.90 583.71 707.79 572.01 707.88 C 563.68 707.77 555.53 705.80 547.43 704.08 C 544.60 693.23 539.10 683.23 532.10 674.51 C 537.95 675.43 543.98 677.12 549.88 675.64 C 557.03 673.89 563.51 670.28 569.94 666.82 Z" />
		<path fill="#f0b58b" opacity="1.00"
			d=" M 474.95 714.34 C 486.37 713.50 494.44 704.49 504.33 699.85 C 503.77 709.11 503.27 718.75 499.29 727.30 C 497.34 731.75 493.64 735.05 491.20 739.19 C 489.33 742.30 488.56 745.90 487.79 749.41 C 468.03 748.87 448.26 740.63 435.04 725.72 C 438.25 719.68 440.25 712.92 439.70 706.03 C 450.84 710.71 462.67 715.02 474.95 714.34 Z" />
	</g>
	<g id="#f11b27ff">
		<path fill="var(--shirt-color, grey)" opacity="1.00"
			d=" M 418.28 170.26 C 427.07 162.88 438.49 158.74 449.95 158.54 C 454.15 158.34 458.01 160.25 461.42 162.48 C 468.05 166.82 474.51 171.39 480.84 176.15 C 488.46 181.85 496.26 187.35 503.31 193.75 C 506.45 196.60 509.95 199.43 511.42 203.56 C 513.12 208.06 514.45 212.70 515.74 217.34 C 517.37 223.31 520.32 228.80 522.13 234.72 C 528.05 253.16 529.27 272.73 529.08 291.99 C 528.59 306.02 527.46 320.04 525.46 333.95 C 524.49 340.31 524.26 346.75 523.89 353.17 C 518.79 351.98 513.09 351.59 508.99 347.98 C 505.14 344.50 501.99 340.33 499.28 335.93 C 504.56 333.46 510.46 331.78 514.84 327.79 C 516.42 326.44 515.86 324.42 515.08 322.81 C 508.05 307.82 501.27 292.48 498.18 276.12 C 496.75 268.47 495.52 260.63 496.53 252.85 C 496.85 249.22 498.14 245.10 495.42 242.06 C 493.30 248.82 491.82 255.89 492.23 263.01 C 493.11 278.99 497.84 294.47 504.04 309.12 C 495.02 297.08 487.23 284.18 479.87 271.07 C 478.71 268.85 477.09 266.92 475.04 265.49 C 475.80 270.80 478.42 275.56 480.81 280.29 C 489.29 296.44 499.47 311.83 511.97 325.17 C 507.32 327.14 502.56 328.84 497.83 330.61 C 492.87 332.45 488.07 334.80 482.89 336.01 C 470.76 338.68 458.64 342.00 447.45 347.49 C 440.94 350.61 435.28 355.55 432.03 362.07 C 426.24 348.14 418.57 334.81 408.39 323.62 C 404.56 319.77 401.45 314.95 396.43 312.52 C 397.30 317.54 401.50 320.78 404.32 324.71 C 410.21 332.71 416.21 340.67 421.27 349.24 C 414.83 348.23 407.80 348.25 401.82 351.09 C 401.61 351.61 401.20 352.63 400.99 353.14 C 403.44 354.55 406.32 353.90 408.99 353.87 C 414.13 353.54 419.35 353.61 424.33 355.06 C 426.20 358.77 428.07 362.50 429.50 366.42 C 430.15 367.73 430.33 369.65 432.02 370.06 C 435.98 366.62 437.60 361.33 441.15 357.50 C 445.43 365.16 450.35 372.45 455.60 379.48 C 460.84 386.53 465.32 394.28 471.94 400.18 C 476.47 404.30 482.68 405.69 488.56 406.61 C 498.80 407.82 509.16 407.75 519.40 409.08 C 518.38 413.32 517.80 417.71 518.46 422.05 C 519.32 430.24 524.02 437.61 523.73 445.99 C 523.66 453.84 525.42 461.61 528.73 468.72 C 516.72 457.23 503.50 446.93 492.87 434.06 C 487.20 428.26 482.55 421.33 476.03 416.47 C 475.44 416.52 474.26 416.62 473.67 416.67 C 474.06 420.42 477.16 422.96 479.19 425.88 C 486.79 435.84 494.51 445.82 503.99 454.10 C 513.44 462.36 522.80 470.76 532.94 478.17 C 534.29 479.12 535.28 480.47 536.07 481.91 C 542.83 494.76 550.48 507.14 556.54 520.36 C 546.89 523.03 537.82 527.35 529.04 532.07 C 524.24 534.65 519.68 537.78 514.45 539.46 C 505.88 542.07 496.94 543.12 488.08 544.14 C 472.67 548.20 456.56 544.65 441.67 540.14 C 419.24 534.48 397.47 524.90 374.02 524.43 C 367.58 523.97 360.60 525.53 354.66 522.35 C 350.39 519.86 350.91 514.32 350.35 510.09 C 348.25 489.40 346.36 468.69 343.32 448.12 C 342.96 443.81 341.81 438.58 345.19 435.13 C 354.67 423.67 365.16 413.10 374.74 401.72 C 379.20 396.49 383.30 390.97 387.68 385.67 C 389.29 383.74 390.65 381.61 391.73 379.35 C 386.43 380.96 383.12 385.63 379.53 389.50 C 372.30 397.93 364.83 406.14 357.28 414.29 C 352.74 419.13 348.84 424.51 345.18 430.03 C 349.71 410.00 355.73 390.33 359.64 370.15 C 362.84 356.37 366.01 342.57 368.92 328.72 C 370.52 320.57 371.96 312.34 372.08 304.01 C 372.35 289.54 369.75 275.26 368.40 260.91 C 367.67 254.12 370.65 247.77 372.65 241.46 C 374.46 235.77 376.94 230.27 380.51 225.46 C 384.50 220.11 384.83 213.05 388.61 207.60 C 391.76 202.88 395.86 198.90 399.43 194.50 C 406.12 186.74 410.40 177.02 418.28 170.26 M 431.51 198.81 C 428.40 199.54 422.87 198.00 422.08 202.13 C 427.56 203.65 433.32 202.64 438.93 202.89 C 444.16 203.15 450.09 202.08 454.59 205.42 C 459.83 209.09 464.01 213.98 468.57 218.41 C 470.45 220.17 472.19 222.35 474.80 223.02 C 475.36 219.80 472.59 217.53 470.81 215.26 C 465.69 209.71 460.66 203.77 454.06 199.93 C 447.00 196.61 438.97 198.64 431.51 198.81 M 390.88 355.88 C 378.92 366.19 372.07 380.68 364.14 394.01 C 361.69 398.58 358.27 402.86 357.64 408.18 C 362.10 404.96 364.50 399.90 367.47 395.44 C 374.72 384.14 381.11 372.17 389.99 362.01 C 391.56 360.08 393.29 358.22 394.39 355.97 C 394.61 353.43 391.73 354.93 390.88 355.88 M 415.33 433.41 C 413.57 435.35 414.91 437.73 416.70 439.03 C 417.15 438.22 418.05 436.60 418.50 435.79 C 438.84 436.36 455.80 449.10 471.93 460.11 C 486.20 470.09 500.57 480.14 516.28 487.77 C 518.29 488.41 520.76 490.41 522.76 488.84 C 523.30 486.60 520.75 485.72 519.35 484.62 C 502.61 474.68 486.67 463.50 470.84 452.20 C 457.69 443.14 443.92 433.93 427.97 430.86 C 423.74 430.22 418.49 430.05 415.33 433.41 Z" />
	</g>
	<g id="#2b3dcdff">
		<path fill="var(--pants-color, grey)" opacity="1.00"
			d=" M 524.71 540.68 C 532.71 536.09 540.86 531.75 549.30 528.01 C 550.54 533.45 550.22 539.06 550.81 544.58 C 551.13 548.88 554.49 551.90 556.53 555.44 C 561.05 563.14 562.34 572.15 565.76 580.31 C 571.82 595.60 582.23 608.53 590.12 622.83 C 594.08 629.94 598.10 637.05 601.11 644.63 C 592.72 648.72 584.23 652.63 575.99 657.03 C 568.75 660.86 561.63 664.99 553.99 668.01 C 550.48 669.41 546.69 670.23 542.90 669.85 C 535.13 669.13 527.63 666.87 520.01 665.34 C 518.03 665.01 516.00 664.61 514.01 665.00 C 512.21 665.39 512.45 667.50 512.11 668.90 C 511.27 676.13 510.81 683.41 509.57 690.60 C 503.74 693.65 497.89 696.75 492.60 700.69 C 486.60 705.19 479.79 709.71 471.97 709.46 C 456.67 709.07 442.78 701.86 429.08 695.82 C 422.32 692.92 415.92 689.31 409.55 685.67 C 412.64 676.27 415.91 666.84 417.16 656.98 C 418.35 644.87 413.38 633.32 408.40 622.58 C 400.30 605.32 389.70 589.43 379.61 573.31 C 375.35 566.37 371.16 559.31 368.46 551.59 C 365.88 544.44 364.61 536.92 363.11 529.50 C 380.65 528.57 397.98 532.41 414.62 537.64 C 425.81 541.28 437.17 544.39 448.49 547.60 C 461.37 550.83 475.13 552.79 488.17 549.39 C 500.55 547.81 513.61 546.99 524.71 540.68 Z" />
		<path fill="var(--socks-color, grey)" opacity="1.00"
			d=" M 575.95 714.31 C 586.65 713.47 597.60 711.12 606.66 705.09 C 609.22 722.88 615.69 739.71 621.24 756.71 C 629.42 785.57 639.30 813.98 651.58 841.36 C 657.16 853.73 662.48 866.26 669.20 878.07 C 659.83 885.06 651.34 893.33 641.05 899.00 C 636.92 901.39 632.18 902.20 627.53 902.82 C 616.96 877.37 602.67 853.64 587.01 831.04 C 577.59 817.22 568.55 803.10 560.77 788.28 C 554.38 774.96 549.92 760.65 547.91 746.01 C 546.60 734.36 547.38 722.63 548.22 710.99 C 557.28 713.13 566.58 715.14 575.95 714.31 Z" />
		<path fill="var(--socks-color, grey)" opacity="1.00"
			d=" M 432.35 730.43 C 441.29 741.72 454.91 748.17 468.64 751.51 C 474.77 753.20 481.18 753.61 487.52 753.28 C 485.63 770.05 478.15 785.36 471.68 800.72 C 464.80 816.88 457.49 832.88 451.65 849.47 C 446.05 865.29 440.12 880.99 435.14 897.02 C 432.64 904.45 430.22 911.93 428.70 919.65 C 425.11 919.34 421.40 919.38 418.05 920.85 C 410.27 924.03 403.05 928.65 394.83 930.70 C 390.15 931.88 385.35 930.47 381.15 928.42 C 382.35 910.97 386.09 893.84 388.36 876.52 C 391.50 852.96 395.14 829.47 398.39 805.92 C 400.29 793.78 402.20 781.60 405.62 769.78 C 407.60 762.53 411.52 756.00 416.02 750.04 C 421.08 743.18 427.70 737.61 432.35 730.43 Z" />
	</g>
	<g id="#4d4d4dff">
		<path fill="#4d4d4d" opacity="1.00"
			d=" M 643.30 903.31 C 654.28 897.66 663.03 888.72 672.94 881.49 C 682.92 887.23 694.72 887.93 705.86 889.57 C 720.92 891.75 736.28 891.83 751.31 889.35 C 756.86 888.93 762.40 887.00 767.98 887.71 C 772.63 889.69 772.58 895.98 771.20 900.08 C 767.11 910.23 758.26 917.83 748.73 922.78 C 741.13 926.94 732.34 927.39 724.01 929.03 C 715.53 930.73 706.74 931.38 698.62 934.53 C 682.73 941.00 672.90 956.88 656.69 962.74 C 650.31 965.44 642.58 962.97 638.27 957.74 C 633.82 952.33 630.42 945.92 629.12 939.00 C 626.93 928.36 628.14 917.45 627.54 906.69 C 632.95 906.68 638.47 905.93 643.30 903.31 Z" />
		<path fill="#4d4d4d" opacity="1.00"
			d=" M 422.21 925.15 C 426.04 923.73 429.60 926.26 432.40 928.61 C 443.82 938.37 455.76 947.57 468.53 955.52 C 479.84 962.65 491.05 970.03 503.06 975.98 C 507.16 978.08 511.67 979.40 515.50 982.02 C 515.45 986.08 510.64 987.40 507.51 988.62 C 490.44 993.24 472.27 994.44 454.89 990.85 C 437.81 987.34 420.43 985.32 403.01 984.85 C 394.34 984.31 385.43 984.55 377.09 981.84 C 372.50 980.45 372.06 975.00 371.85 971.00 C 371.05 957.66 378.06 945.76 381.11 933.14 C 386.59 935.79 392.95 936.91 398.85 934.98 C 407.07 932.78 414.17 927.79 422.21 925.15 Z" />
	</g>
</svg>