<?xml version="1.0" encoding="UTF-8" ?>
<!DOCTYPE svg PUBLIC "-//W3C//DTD SVG 1.1//EN" "http://www.w3.org/Graphics/SVG/1.1/DTD/svg11.dtd">
<svg width="1000pt" height="1000pt" viewBox="0 0 1000 1000" version="1.1" xmlns="http://www.w3.org/2000/svg">
	<g id="#020202ff">
		<path fill="#020202" opacity="1.00"
			d=" M 582.10 5.44 C 594.76 2.46 608.43 3.30 620.29 8.81 C 629.93 13.18 639.12 18.84 646.81 26.17 C 652.11 31.39 654.47 38.77 655.06 46.04 C 655.77 56.36 656.68 66.75 655.88 77.08 C 655.72 80.76 652.69 83.08 649.82 84.82 C 647.83 87.79 647.38 91.51 645.78 94.69 C 640.62 105.48 637.33 117.08 631.60 127.61 C 623.31 143.15 614.08 159.24 598.84 168.95 C 596.96 185.89 595.67 202.90 595.42 219.95 C 595.58 227.33 595.99 234.75 594.83 242.08 C 592.10 260.21 587.20 277.94 581.59 295.37 C 576.66 310.79 571.45 326.26 563.26 340.30 C 568.62 344.67 572.40 350.54 575.42 356.69 C 580.16 365.95 585.25 375.16 592.19 382.99 C 605.02 397.81 617.94 413.68 636.04 422.25 C 644.28 421.76 651.90 425.93 658.59 430.31 C 667.21 436.02 672.16 445.47 676.24 454.67 C 677.73 458.55 679.23 462.67 678.74 466.91 C 678.05 470.44 675.00 472.73 673.36 475.75 C 675.15 480.61 678.29 485.59 677.29 490.94 C 676.55 494.52 672.31 496.29 669.22 494.40 C 669.66 496.81 669.36 499.71 667.13 501.18 C 664.58 502.63 661.51 501.53 659.08 500.36 C 659.42 502.65 658.98 505.52 656.60 506.58 C 654.26 507.99 651.57 506.58 649.12 506.87 C 646.85 511.41 640.41 512.19 636.35 509.70 C 630.78 506.39 626.92 501.03 623.12 495.94 C 612.77 480.94 606.43 463.55 602.47 445.87 C 602.40 442.67 599.24 441.45 597.01 439.89 C 586.12 434.16 576.40 426.56 566.23 419.71 C 557.12 413.51 548.47 406.68 539.91 399.75 C 539.66 409.76 534.33 419.72 537.53 429.67 C 540.59 435.29 546.71 438.88 548.78 445.14 C 550.86 451.92 549.70 459.12 550.99 466.04 C 551.59 472.71 554.92 478.66 556.88 484.95 C 557.03 487.32 553.99 486.41 552.60 486.79 C 556.68 491.14 560.14 496.26 561.67 502.09 C 562.95 505.94 562.83 510.09 564.18 513.92 C 565.91 517.67 570.15 519.46 571.88 523.24 C 574.96 529.60 575.73 536.74 577.64 543.47 C 580.24 550.01 583.35 556.32 586.20 562.75 C 593.10 577.97 599.12 593.58 604.75 609.31 C 609.48 621.13 614.28 633.14 615.60 645.91 C 618.56 657.14 623.35 667.78 627.12 678.75 C 632.80 695.48 636.50 713.44 633.43 731.10 C 632.24 741.67 625.36 751.12 616.05 756.09 C 607.93 760.94 599.04 764.27 590.64 768.59 C 578.53 775.52 568.98 786.03 556.85 792.96 C 552.26 824.79 550.33 856.93 548.75 889.03 C 548.08 900.72 548.01 912.42 548.07 924.13 C 552.35 919.84 557.51 915.28 564.04 915.87 C 576.28 917.14 584.31 931.66 579.93 942.92 C 576.73 949.64 572.73 956.24 566.72 960.81 C 564.12 962.89 561.14 964.45 558.66 966.68 C 555.89 969.61 554.07 973.28 551.54 976.42 C 545.77 984.48 537.19 990.30 527.90 993.57 C 520.32 996.41 511.05 995.63 504.68 990.40 C 499.02 985.20 497.63 977.23 496.18 970.05 C 494.88 958.66 495.71 946.94 499.11 935.97 C 502.58 924.43 504.93 912.09 502.30 900.12 C 499.68 888.73 496.60 877.45 494.13 866.03 C 491.71 853.94 488.30 842.00 487.27 829.67 C 473.32 835.73 459.65 842.36 445.90 848.84 C 429.03 857.15 412.93 866.91 396.99 876.85 C 391.29 880.10 384.94 882.44 380.35 887.33 C 379.55 904.27 381.68 921.18 383.24 938.03 C 384.02 948.64 386.39 959.27 385.23 969.94 C 384.45 976.50 379.61 982.27 373.25 984.09 C 364.90 986.38 356.05 983.41 348.80 979.23 C 341.10 975.18 335.98 967.85 331.28 960.79 C 325.21 950.68 319.85 940.01 316.60 928.64 C 314.60 922.18 312.68 915.63 309.56 909.61 C 307.51 905.52 303.79 902.69 301.22 898.99 C 295.23 890.62 292.89 880.15 292.53 870.02 C 292.11 862.98 294.68 855.63 299.94 850.84 C 305.03 846.56 310.77 842.84 317.29 841.17 C 328.20 837.97 339.90 838.92 350.93 840.06 C 352.95 839.08 354.97 838.10 356.82 836.83 C 371.96 826.31 388.19 817.30 402.20 805.22 C 416.49 793.50 430.95 781.96 444.53 769.42 C 459.02 756.06 475.50 745.11 490.86 732.87 C 489.55 723.88 490.27 714.65 492.04 705.77 C 485.97 706.84 479.95 708.17 473.93 709.53 C 471.86 710.00 470.28 708.34 468.99 706.99 C 464.09 700.41 460.93 692.75 457.94 685.16 C 454.04 676.28 450.15 667.34 447.60 657.96 C 443.60 659.67 439.56 662.00 435.07 661.84 C 433.54 661.68 432.49 660.39 431.76 659.18 C 428.61 653.27 427.80 646.54 425.83 640.23 C 422.98 630.49 420.41 620.66 416.99 611.11 C 414.40 603.94 411.04 596.82 405.51 591.45 C 401.02 587.27 396.41 583.21 392.12 578.83 C 387.64 573.73 384.74 567.51 381.41 561.66 C 377.88 555.65 372.42 551.17 367.86 546.00 C 356.95 533.04 349.46 517.51 344.33 501.44 C 339.89 487.09 338.90 471.86 340.24 456.96 C 338.38 452.43 339.28 447.31 339.81 442.60 C 342.32 429.24 349.17 417.27 355.21 405.25 C 365.48 384.04 373.23 361.67 378.74 338.76 C 381.11 329.66 381.66 320.25 383.14 310.99 C 383.23 305.00 386.20 299.66 387.98 294.08 C 391.13 286.30 393.83 278.35 396.10 270.27 C 399.24 258.60 399.06 246.41 400.65 234.50 C 402.97 219.99 411.67 207.77 420.26 196.27 C 428.68 185.35 434.93 172.99 442.55 161.54 C 449.73 150.55 460.35 142.45 470.84 134.84 C 475.75 130.57 480.97 126.27 487.37 124.50 C 500.09 120.42 513.59 121.69 526.71 121.91 C 528.59 116.87 533.08 112.07 531.50 106.35 C 528.80 102.00 525.55 97.74 524.63 92.58 C 522.37 82.00 525.17 71.27 528.24 61.16 C 532.28 48.18 539.23 36.23 547.62 25.59 C 556.16 14.90 569.03 8.62 582.10 5.44 M 642.22 84.58 C 635.23 95.63 629.33 107.81 628.31 121.03 C 628.22 122.37 627.45 123.15 626.02 123.34 C 623.55 122.45 622.58 119.81 621.15 117.84 C 615.47 109.67 615.08 99.39 612.94 90.01 C 612.47 87.01 608.92 86.06 606.53 87.49 C 599.21 90.72 597.26 99.67 597.80 106.92 C 598.15 112.16 599.08 118.70 594.51 122.47 C 586.96 127.08 577.53 126.98 569.02 126.06 C 557.18 124.02 544.76 120.47 535.94 111.88 C 535.15 115.72 532.81 118.94 531.01 122.34 C 539.81 122.67 548.72 124.92 556.03 130.01 C 564.98 136.04 575.76 138.37 584.94 143.96 C 592.46 147.82 598.10 155.36 599.37 163.75 C 602.94 160.52 606.55 157.31 609.64 153.61 C 614.96 147.71 618.81 140.70 622.87 133.92 C 628.33 124.62 632.97 114.84 636.76 104.74 C 639.26 97.99 642.62 91.58 645.04 84.79 C 644.33 84.74 642.92 84.63 642.22 84.58 M 489.48 128.34 C 484.10 130.62 478.66 133.24 474.54 137.49 C 464.88 145.01 454.38 151.96 447.07 161.98 C 439.19 173.33 433.29 185.94 425.03 197.04 C 418.33 206.50 410.69 215.62 406.88 226.74 C 403.30 236.11 404.00 246.30 402.77 256.09 C 401.73 269.35 397.37 282.07 392.24 294.25 C 390.64 300.19 387.14 305.68 387.13 311.99 C 386.70 317.46 387.87 322.84 388.83 328.19 C 393.72 349.88 400.74 371.18 410.86 391.02 C 412.04 393.39 413.69 395.61 414.26 398.25 L 412.95 398.66 C 408.60 395.28 406.47 389.80 403.90 385.06 C 395.12 367.63 389.75 348.73 384.85 329.93 C 380.61 354.11 372.77 377.55 363.05 400.06 C 356.22 416.03 345.28 430.78 343.41 448.46 C 356.24 444.34 369.51 441.40 382.96 440.27 C 404.46 438.74 426.03 441.66 447.01 446.25 C 467.64 450.72 487.34 458.46 506.99 465.98 C 521.45 471.65 535.75 477.98 550.92 481.55 C 548.34 476.51 546.24 471.18 545.69 465.51 C 544.47 459.09 546.01 452.41 544.17 446.10 C 541.75 440.17 535.94 436.52 533.31 430.71 C 526.42 426.87 520.65 421.41 514.81 416.19 C 505.63 407.95 497.91 398.27 490.69 388.32 C 486.57 382.63 482.20 377.07 478.85 370.89 C 478.41 369.80 477.52 368.06 478.84 367.22 C 480.75 368.27 481.94 370.11 483.20 371.82 C 488.48 379.12 494.12 386.15 500.16 392.84 C 509.87 404.54 520.35 415.66 532.18 425.25 C 531.64 415.36 535.44 405.90 535.55 396.03 C 515.03 378.42 495.82 359.31 477.91 339.05 C 472.79 333.02 470.89 324.78 471.72 317.01 C 472.67 304.12 475.29 291.41 477.73 278.73 C 472.93 273.33 470.99 266.19 468.29 259.66 C 462.85 242.98 457.73 225.66 458.68 207.92 C 458.49 206.13 461.34 205.23 461.76 207.18 C 463.09 215.00 463.39 223.03 465.29 230.78 C 468.69 245.12 472.62 259.41 478.30 273.04 L 478.94 272.79 C 480.52 265.93 481.74 258.97 483.76 252.22 C 481.29 252.48 478.73 253.16 476.26 252.67 C 475.43 251.34 476.27 249.94 476.68 248.65 C 480.50 238.04 483.89 227.12 484.79 215.83 C 486.03 208.72 484.67 201.40 482.35 194.66 C 481.27 191.26 477.76 188.75 478.05 184.97 C 478.91 183.52 480.74 184.36 481.40 185.52 C 484.88 189.08 487.61 193.42 488.53 198.38 C 490.00 186.93 487.40 175.50 487.32 164.06 C 487.62 162.12 490.18 162.84 490.39 164.38 C 492.37 170.74 492.66 177.46 493.33 184.05 C 494.46 196.85 491.69 209.51 488.98 221.93 C 486.76 231.13 484.65 240.46 480.43 248.98 C 492.29 246.30 504.98 247.16 516.36 251.47 C 532.58 257.32 546.59 268.42 557.01 282.05 C 561.45 273.75 566.92 265.59 568.00 256.02 C 568.81 248.02 567.49 240.01 567.59 232.01 C 567.79 225.19 567.37 218.32 568.70 211.59 C 569.29 209.05 569.31 206.15 571.02 204.04 C 573.05 204.11 572.96 206.48 572.87 207.96 C 571.89 221.00 573.47 234.02 573.75 247.05 C 579.56 232.20 586.58 217.79 591.35 202.54 C 591.96 190.64 593.30 178.81 594.36 166.95 C 594.93 160.49 590.35 155.24 586.17 150.91 C 576.97 143.00 564.55 140.97 554.45 134.57 C 550.84 132.24 547.09 130.06 542.97 128.78 C 536.54 126.64 529.69 126.92 523.01 126.58 C 511.84 126.62 500.44 125.59 489.48 128.34 M 590.31 219.95 C 587.52 228.57 583.09 236.51 579.78 244.92 C 576.78 252.21 573.27 259.30 570.83 266.81 C 568.29 272.97 565.08 278.87 561.32 284.37 C 560.10 285.98 558.88 287.74 557.01 288.63 C 556.38 288.26 555.13 287.54 554.50 287.17 C 549.38 295.04 543.36 303.24 542.82 312.99 C 547.16 321.85 552.41 330.51 559.82 337.17 C 564.26 329.44 567.99 321.33 570.93 312.92 C 575.96 298.55 580.55 284.01 584.22 269.23 C 588.09 252.84 592.42 236.14 591.00 219.15 L 590.31 219.95 M 487.45 252.00 C 484.24 270.28 479.42 288.30 477.40 306.80 C 476.18 316.35 475.06 327.03 480.41 335.57 C 502.32 359.61 525.32 382.83 550.97 402.90 C 562.92 412.52 575.86 420.77 588.45 429.50 C 593.74 433.17 599.99 435.58 604.38 440.44 C 608.39 445.61 608.30 452.51 610.41 458.49 C 615.78 475.10 623.29 491.70 635.98 504.04 C 638.29 506.67 642.70 508.23 645.54 505.62 C 646.83 501.44 651.87 504.14 654.87 502.92 C 655.15 499.47 652.57 496.72 651.49 493.62 C 650.74 492.47 651.18 489.94 653.01 490.45 C 654.61 490.31 654.88 492.31 655.80 493.22 C 657.86 496.08 661.41 498.34 665.04 497.88 C 665.60 493.49 662.17 489.86 660.74 485.93 C 660.72 483.63 663.93 483.36 664.76 485.28 C 666.43 488.00 668.66 490.70 671.98 491.31 C 674.19 490.18 673.41 487.34 672.65 485.55 C 670.78 479.68 667.70 474.34 664.93 468.89 C 662.35 463.36 659.34 457.33 660.76 451.06 C 661.47 449.40 664.19 449.85 664.18 451.75 C 664.89 458.55 667.65 464.87 670.90 470.82 L 671.46 470.96 C 675.01 467.36 674.18 462.00 672.24 457.82 C 668.62 449.95 664.80 441.67 657.93 436.07 C 652.65 431.97 646.65 428.55 640.03 427.25 C 634.64 426.74 629.39 428.43 624.17 429.48 C 624.93 426.48 628.25 424.96 630.87 423.77 C 620.38 418.70 611.54 410.85 603.79 402.25 C 594.18 391.41 583.95 380.83 577.02 367.98 C 572.25 360.65 569.90 351.67 563.24 345.65 C 557.06 340.19 551.11 334.35 546.63 327.37 C 539.18 315.97 532.99 303.41 530.69 289.88 C 529.86 288.19 532.67 287.58 533.22 288.91 C 535.67 293.56 536.83 298.73 538.66 303.63 C 538.82 303.72 539.12 303.91 539.27 304.00 C 541.73 296.24 545.58 288.66 551.33 282.82 C 536.22 263.73 512.37 249.86 487.45 252.00 M 345.45 451.35 C 343.43 466.86 343.66 482.82 347.94 497.95 C 352.58 514.01 360.06 529.35 370.48 542.47 C 375.18 548.09 381.13 552.66 384.95 559.00 C 388.30 564.62 391.03 570.70 395.33 575.70 C 399.79 580.21 404.61 584.35 409.23 588.70 C 415.75 595.21 419.35 603.88 422.33 612.44 C 425.36 621.32 427.76 630.40 430.38 639.40 C 432.25 645.49 432.99 651.96 435.99 657.67 C 439.79 657.46 443.18 655.54 446.72 654.32 C 444.18 642.22 442.33 629.94 438.62 618.11 C 436.72 611.25 434.70 604.32 430.85 598.25 C 424.44 587.27 421.60 574.74 419.79 562.29 C 407.33 554.78 396.60 544.54 388.36 532.58 C 387.35 530.82 385.85 529.08 386.06 526.93 L 387.06 526.51 C 393.15 532.54 398.32 539.52 404.55 545.46 C 416.09 555.67 429.87 562.90 443.87 569.13 C 445.02 569.76 446.99 570.30 446.80 571.99 C 447.07 573.84 444.65 574.36 443.36 573.69 C 436.55 570.94 429.90 567.83 423.44 564.34 C 425.77 576.11 430.30 587.36 436.31 597.74 C 440.70 605.04 442.29 613.51 444.58 621.61 C 447.45 631.98 448.42 642.74 450.84 653.21 C 453.43 661.62 457.15 669.63 460.05 677.93 C 463.79 687.18 466.87 696.81 472.21 705.31 C 480.00 703.30 487.90 701.72 495.84 700.38 C 496.33 700.70 497.31 701.34 497.80 701.66 C 495.87 702.21 493.24 701.91 492.15 703.95 C 492.20 705.49 493.78 706.46 494.41 707.81 C 493.58 710.95 492.64 714.07 492.35 717.33 C 491.38 722.83 492.81 728.33 493.23 733.82 C 495.09 734.15 496.49 731.95 498.29 731.50 C 498.84 731.59 499.94 731.77 500.49 731.86 C 489.69 739.13 479.63 747.43 469.12 755.10 C 456.18 764.66 444.52 775.77 432.48 786.39 C 419.87 796.80 407.32 807.29 394.44 817.36 C 381.32 826.83 367.62 835.46 354.07 844.28 C 354.81 852.27 350.71 859.47 348.79 866.99 C 347.29 872.89 350.27 879.43 355.65 882.25 C 361.58 885.32 368.46 886.11 375.06 885.90 C 377.54 883.71 379.97 881.39 382.92 879.84 C 391.05 875.52 398.73 870.43 406.52 865.52 C 421.81 856.64 436.80 847.15 453.02 839.99 C 470.84 830.98 489.25 823.22 507.03 814.13 C 532.07 801.17 556.97 787.41 579.44 770.37 C 577.96 760.22 574.79 750.26 569.50 741.44 C 561.70 728.10 549.26 717.83 535.22 711.59 C 535.89 709.20 538.67 709.25 540.61 709.93 C 550.40 714.22 559.45 720.43 566.51 728.50 C 575.95 739.46 582.32 753.21 584.06 767.60 C 594.75 760.60 607.43 757.22 617.90 749.81 C 622.53 745.94 626.53 741.02 628.01 735.05 C 632.43 717.48 629.38 699.05 623.67 682.14 C 620.40 672.31 615.96 662.88 613.38 652.83 C 598.96 671.14 579.03 684.64 557.17 692.47 C 554.44 689.82 550.75 690.88 547.40 690.31 C 563.03 685.37 578.02 678.11 590.93 667.94 C 598.42 662.27 604.65 655.17 611.54 648.83 C 611.01 638.02 607.30 627.64 603.51 617.58 C 599.27 607.29 595.94 596.66 591.69 586.37 C 585.82 571.34 578.93 556.74 573.07 541.70 C 571.29 536.68 570.64 531.31 568.57 526.38 C 567.00 522.54 562.87 520.77 560.74 517.34 C 558.30 513.47 558.50 508.71 557.42 504.41 C 555.81 497.19 551.46 490.93 546.61 485.49 C 531.79 481.40 517.63 475.34 503.38 469.65 C 493.62 466.06 483.96 462.17 474.07 458.97 C 450.91 450.75 426.51 446.11 401.99 444.83 C 382.91 443.61 364.00 447.32 345.45 451.35 M 491.36 827.86 C 493.36 844.63 497.86 860.97 501.43 877.44 C 503.16 885.64 505.62 893.70 506.94 901.99 C 508.21 910.64 507.60 919.49 505.75 928.01 C 513.75 932.90 523.58 931.77 532.45 930.61 C 536.83 929.75 541.80 929.30 545.30 926.28 C 543.88 917.92 544.37 909.42 544.33 901.00 C 545.67 865.91 547.29 830.75 552.15 795.94 C 532.37 807.46 512.10 818.17 491.36 827.86 M 303.78 853.83 C 298.70 857.46 296.77 864.06 297.22 870.06 C 297.77 880.74 300.25 892.12 307.96 900.01 C 318.01 910.01 319.20 924.92 324.56 937.40 C 329.78 949.20 335.96 960.76 344.44 970.56 C 349.42 974.47 354.79 978.22 361.07 979.66 C 365.44 980.71 370.67 981.55 374.47 978.48 C 378.97 975.65 380.67 970.08 380.71 965.02 C 380.73 958.28 379.91 951.57 378.77 944.94 C 376.47 926.57 374.21 908.04 375.49 889.51 C 368.04 890.37 360.29 889.58 353.41 886.52 C 347.09 883.65 342.69 876.98 342.74 870.03 C 342.87 861.42 348.40 853.77 348.18 845.15 C 333.16 843.81 315.91 843.35 303.78 853.83 M 552.48 926.47 C 548.22 931.30 542.09 933.97 535.80 934.83 C 525.54 936.33 514.21 937.50 504.86 932.03 C 501.14 942.16 499.87 953.20 500.12 964.01 C 500.07 971.37 502.25 978.66 505.97 984.98 C 509.16 989.79 515.70 990.45 520.97 990.12 C 531.98 988.26 542.13 981.49 548.10 972.05 C 550.16 969.10 551.75 965.79 554.29 963.20 C 556.64 960.80 559.75 959.39 562.52 957.57 C 568.64 953.72 573.29 947.84 576.49 941.43 C 579.45 933.29 574.12 923.43 565.98 920.85 C 560.74 919.46 555.76 922.64 552.48 926.47 Z" />
		<path fill="#020202" opacity="1.00"
			d=" M 417.57 289.44 C 419.86 288.09 420.59 291.31 421.17 292.85 C 425.90 306.75 431.50 320.34 436.99 333.96 C 444.15 351.31 451.22 368.73 459.48 385.60 C 467.48 402.74 476.79 419.44 488.93 434.04 C 490.57 436.08 492.53 437.90 493.91 440.15 C 493.99 441.47 492.58 442.24 491.48 441.54 C 488.91 439.84 486.84 437.49 484.73 435.28 C 472.30 421.20 463.17 404.60 455.17 387.71 C 444.13 365.13 435.07 341.66 425.81 318.32 C 422.69 310.19 419.36 302.08 417.64 293.51 C 417.41 292.17 416.86 290.73 417.57 289.44 Z" />
		<path fill="#020202" opacity="1.00"
			d=" M 381.92 358.93 C 384.07 359.94 384.77 362.38 385.58 364.42 C 389.65 375.51 393.50 386.71 398.68 397.35 C 402.11 404.32 404.95 411.56 408.53 418.46 C 409.43 420.04 407.91 422.17 406.05 421.54 C 404.00 420.09 402.82 417.76 401.09 415.98 C 394.85 409.01 387.66 402.40 378.71 399.19 C 374.92 397.52 370.73 396.83 367.14 394.73 C 367.17 394.38 367.24 393.66 367.27 393.31 C 378.64 393.05 389.80 398.08 398.03 405.80 C 391.68 392.22 386.15 378.23 382.22 363.75 C 381.76 362.17 381.69 360.53 381.92 358.93 Z" />
	</g>
	<g id="#f0b58bff">
		<path fill="#f0b58b" opacity="1.00"
			d=" M 642.22 84.58 C 642.92 84.63 644.33 84.74 645.04 84.79 C 642.62 91.58 639.26 97.99 636.76 104.74 C 632.97 114.84 628.33 124.62 622.87 133.92 C 618.81 140.70 614.96 147.71 609.64 153.61 C 606.55 157.31 602.94 160.52 599.37 163.75 C 598.10 155.36 592.46 147.82 584.94 143.96 C 575.76 138.37 564.98 136.04 556.03 130.01 C 548.72 124.92 539.81 122.67 531.01 122.34 C 532.81 118.94 535.15 115.72 535.94 111.88 C 544.76 120.47 557.18 124.02 569.02 126.06 C 577.53 126.98 586.96 127.08 594.51 122.47 C 599.08 118.70 598.15 112.16 597.80 106.92 C 597.26 99.67 599.21 90.72 606.53 87.49 C 608.92 86.06 612.47 87.01 612.94 90.01 C 615.08 99.39 615.47 109.67 621.15 117.84 C 622.58 119.81 623.55 122.45 626.02 123.34 C 627.45 123.15 628.22 122.37 628.31 121.03 C 629.33 107.81 635.23 95.63 642.22 84.58 Z" />
		<path fill="#f0b58b" opacity="1.00"
			d=" M 487.45 252.00 C 512.37 249.86 536.22 263.73 551.33 282.82 C 545.58 288.66 541.73 296.24 539.27 304.00 C 539.12 303.91 538.82 303.72 538.66 303.63 C 536.83 298.73 535.67 293.56 533.22 288.91 C 532.67 287.58 529.86 288.19 530.69 289.88 C 532.99 303.41 539.18 315.97 546.63 327.37 C 551.11 334.35 557.06 340.19 563.24 345.65 C 569.90 351.67 572.25 360.65 577.02 367.98 C 583.95 380.83 594.18 391.41 603.79 402.25 C 611.54 410.85 620.38 418.70 630.87 423.77 C 628.25 424.96 624.93 426.48 624.17 429.48 C 629.39 428.43 634.64 426.74 640.03 427.25 C 646.65 428.55 652.65 431.97 657.93 436.07 C 664.80 441.67 668.62 449.95 672.24 457.82 C 674.18 462.00 675.01 467.36 671.46 470.96 L 670.90 470.82 C 667.65 464.87 664.89 458.55 664.18 451.75 C 664.19 449.85 661.47 449.40 660.76 451.06 C 659.34 457.33 662.35 463.36 664.93 468.89 C 667.70 474.34 670.78 479.68 672.65 485.55 C 673.41 487.34 674.19 490.18 671.98 491.31 C 668.66 490.70 666.43 488.00 664.76 485.28 C 663.93 483.36 660.72 483.63 660.74 485.93 C 662.17 489.86 665.60 493.49 665.04 497.88 C 661.41 498.34 657.86 496.08 655.80 493.22 C 654.88 492.31 654.61 490.31 653.01 490.45 C 651.18 489.94 650.74 492.47 651.49 493.62 C 652.57 496.72 655.15 499.47 654.87 502.92 C 651.87 504.14 646.83 501.44 645.54 505.62 C 642.70 508.23 638.29 506.67 635.98 504.04 C 623.29 491.70 615.78 475.10 610.41 458.49 C 608.30 452.51 608.39 445.61 604.38 440.44 C 599.99 435.58 593.74 433.17 588.45 429.50 C 575.86 420.77 562.92 412.52 550.97 402.90 C 525.32 382.83 502.32 359.61 480.41 335.57 C 475.06 327.03 476.18 316.35 477.40 306.80 C 479.42 288.30 484.24 270.28 487.45 252.00 Z" />
		<path fill="#f0b58b" opacity="1.00"
			d=" M 613.38 652.83 C 615.96 662.88 620.40 672.31 623.67 682.14 C 629.38 699.05 632.43 717.48 628.01 735.05 C 626.53 741.02 622.53 745.94 617.90 749.81 C 607.43 757.22 594.75 760.60 584.06 767.60 C 582.32 753.21 575.95 739.46 566.51 728.50 C 559.45 720.43 550.40 714.22 540.61 709.93 C 545.36 708.50 550.27 707.70 555.20 707.20 C 557.32 710.27 558.01 714.10 560.18 717.11 C 561.84 717.03 562.16 715.32 562.08 713.97 C 561.52 706.45 557.21 699.87 552.54 694.20 C 554.05 693.56 555.63 693.05 557.17 692.47 C 579.03 684.64 598.96 671.14 613.38 652.83 Z" />
		<path fill="#f0b58b" opacity="1.00"
			d=" M 528.15 701.08 C 534.88 699.76 541.36 697.44 548.05 695.96 C 549.92 698.08 551.49 700.45 553.33 702.60 C 549.88 703.33 546.42 703.97 542.93 704.42 C 530.99 706.48 520.81 713.41 510.59 719.47 C 505.37 722.52 500.61 726.30 495.42 729.41 C 494.25 721.90 495.24 714.27 496.22 706.79 C 506.96 705.52 517.54 703.16 528.15 701.08 Z" />
	</g>
	<g id="#f11b27ff">
		<path fill="var(--shirt-color, grey)" opacity="1.00"
			d=" M 489.48 128.34 C 500.44 125.59 511.84 126.62 523.01 126.58 C 529.69 126.92 536.54 126.64 542.97 128.78 C 547.09 130.06 550.84 132.24 554.45 134.57 C 564.55 140.97 576.97 143.00 586.17 150.91 C 590.35 155.24 594.93 160.49 594.36 166.95 C 593.30 178.81 591.96 190.64 591.35 202.54 C 586.58 217.79 579.56 232.20 573.75 247.05 C 573.47 234.02 571.89 221.00 572.87 207.96 C 572.96 206.48 573.05 204.11 571.02 204.04 C 569.31 206.15 569.29 209.05 568.70 211.59 C 567.37 218.32 567.79 225.19 567.59 232.01 C 567.49 240.01 568.81 248.02 568.00 256.02 C 566.92 265.59 561.45 273.75 557.01 282.05 C 546.59 268.42 532.58 257.32 516.36 251.47 C 504.98 247.16 492.29 246.30 480.43 248.98 C 484.65 240.46 486.76 231.13 488.98 221.93 C 491.69 209.51 494.46 196.85 493.33 184.05 C 492.66 177.46 492.37 170.74 490.39 164.38 C 490.18 162.84 487.62 162.12 487.32 164.06 C 487.40 175.50 490.00 186.93 488.53 198.38 C 487.61 193.42 484.88 189.08 481.40 185.52 C 480.74 184.36 478.91 183.52 478.05 184.97 C 477.76 188.75 481.27 191.26 482.35 194.66 C 484.67 201.40 486.03 208.72 484.79 215.83 C 483.89 227.12 480.50 238.04 476.68 248.65 C 476.27 249.94 475.43 251.34 476.26 252.67 C 478.73 253.16 481.29 252.48 483.76 252.22 C 481.74 258.97 480.52 265.93 478.94 272.79 L 478.30 273.04 C 472.62 259.41 468.69 245.12 465.29 230.78 C 463.39 223.03 463.09 215.00 461.76 207.18 C 461.34 205.23 458.49 206.13 458.68 207.92 C 457.73 225.66 462.85 242.98 468.29 259.66 C 470.99 266.19 472.93 273.33 477.73 278.73 C 475.29 291.41 472.67 304.12 471.72 317.01 C 470.89 324.78 472.79 333.02 477.91 339.05 C 495.82 359.31 515.03 378.42 535.55 396.03 C 535.44 405.90 531.64 415.36 532.18 425.25 C 520.35 415.66 509.87 404.54 500.16 392.84 C 494.12 386.15 488.48 379.12 483.20 371.82 C 481.94 370.11 480.75 368.27 478.84 367.22 C 477.52 368.06 478.41 369.80 478.85 370.89 C 482.20 377.07 486.57 382.63 490.69 388.32 C 497.91 398.27 505.63 407.95 514.81 416.19 C 520.65 421.41 526.42 426.87 533.31 430.71 C 535.94 436.52 541.75 440.17 544.17 446.10 C 546.01 452.41 544.47 459.09 545.69 465.51 C 546.24 471.18 548.34 476.51 550.92 481.55 C 535.75 477.98 521.45 471.65 506.99 465.98 C 487.34 458.46 467.64 450.72 447.01 446.25 C 426.03 441.66 404.46 438.74 382.96 440.27 C 369.51 441.40 356.24 444.34 343.41 448.46 C 345.28 430.78 356.22 416.03 363.05 400.06 C 372.77 377.55 380.61 354.11 384.85 329.93 C 389.75 348.73 395.12 367.63 403.90 385.06 C 406.47 389.80 408.60 395.28 412.95 398.66 L 414.26 398.25 C 413.69 395.61 412.04 393.39 410.86 391.02 C 400.74 371.18 393.72 349.88 388.83 328.19 C 387.87 322.84 386.70 317.46 387.13 311.99 C 387.14 305.68 390.64 300.19 392.24 294.25 C 397.37 282.07 401.73 269.35 402.77 256.09 C 404.00 246.30 403.30 236.11 406.88 226.74 C 410.69 215.62 418.33 206.50 425.03 197.04 C 433.29 185.94 439.19 173.33 447.07 161.98 C 454.38 151.96 464.88 145.01 474.54 137.49 C 478.66 133.24 484.10 130.62 489.48 128.34 M 417.57 289.44 C 416.86 290.73 417.41 292.17 417.64 293.51 C 419.36 302.08 422.69 310.19 425.81 318.32 C 435.07 341.66 444.13 365.13 455.17 387.71 C 463.17 404.60 472.30 421.20 484.73 435.28 C 486.84 437.49 488.91 439.84 491.48 441.54 C 492.58 442.24 493.99 441.47 493.91 440.15 C 492.53 437.90 490.57 436.08 488.93 434.04 C 476.79 419.44 467.48 402.74 459.48 385.60 C 451.22 368.73 444.15 351.31 436.99 333.96 C 431.50 320.34 425.90 306.75 421.17 292.85 C 420.59 291.31 419.86 288.09 417.57 289.44 M 381.92 358.93 C 381.69 360.53 381.76 362.17 382.22 363.75 C 386.15 378.23 391.68 392.22 398.03 405.80 C 389.80 398.08 378.64 393.05 367.27 393.31 C 367.24 393.66 367.17 394.38 367.14 394.73 C 370.73 396.83 374.92 397.52 378.71 399.19 C 387.66 402.40 394.85 409.01 401.09 415.98 C 402.82 417.76 404.00 420.09 406.05 421.54 C 407.91 422.17 409.43 420.04 408.53 418.46 C 404.95 411.56 402.11 404.32 398.68 397.35 C 393.50 386.71 389.65 375.51 385.58 364.42 C 384.77 362.38 384.07 359.94 381.92 358.93 Z" />
		<path fill="var(--shirt-color, grey)" opacity="1.00"
			d=" M 590.31 219.95 L 591.00 219.15 C 592.42 236.14 588.09 252.84 584.22 269.23 C 580.55 284.01 575.96 298.55 570.93 312.92 C 567.99 321.33 564.26 329.44 559.82 337.17 C 552.41 330.51 547.16 321.85 542.82 312.99 C 543.36 303.24 549.38 295.04 554.50 287.17 C 555.13 287.54 556.38 288.26 557.01 288.63 C 558.88 287.74 560.10 285.98 561.32 284.37 C 565.08 278.87 568.29 272.97 570.83 266.81 C 573.27 259.30 576.78 252.21 579.78 244.92 C 583.09 236.51 587.52 228.57 590.31 219.95 Z" />
	</g>
	<g id="#2b3dcdff">
		<path fill="var(--pants-color, grey)" opacity="1.00"
			d=" M 345.45 451.35 C 364.00 447.32 382.91 443.61 401.99 444.83 C 426.51 446.11 450.91 450.75 474.07 458.97 C 483.96 462.17 493.62 466.06 503.38 469.65 C 517.63 475.34 531.79 481.40 546.61 485.49 C 551.46 490.93 555.81 497.19 557.42 504.41 C 558.50 508.71 558.30 513.47 560.74 517.34 C 562.87 520.77 567.00 522.54 568.57 526.38 C 570.64 531.31 571.29 536.68 573.07 541.70 C 578.93 556.74 585.82 571.34 591.69 586.37 C 595.94 596.66 599.27 607.29 603.51 617.58 C 607.30 627.64 611.01 638.02 611.54 648.83 C 604.65 655.17 598.42 662.27 590.93 667.94 C 578.02 678.11 563.03 685.37 547.40 690.31 C 530.70 695.82 513.14 697.69 495.84 700.38 C 487.90 701.72 480.00 703.30 472.21 705.31 C 466.87 696.81 463.79 687.18 460.05 677.93 C 457.15 669.63 453.43 661.62 450.84 653.21 C 448.42 642.74 447.45 631.98 444.58 621.61 C 442.29 613.51 440.70 605.04 436.31 597.74 C 430.30 587.36 425.77 576.11 423.44 564.34 C 429.90 567.83 436.55 570.94 443.36 573.69 C 444.65 574.36 447.07 573.84 446.80 571.99 C 446.99 570.30 445.02 569.76 443.87 569.13 C 429.87 562.90 416.09 555.67 404.55 545.46 C 398.32 539.52 393.15 532.54 387.06 526.51 L 386.06 526.93 C 385.85 529.08 387.35 530.82 388.36 532.58 C 396.60 544.54 407.33 554.78 419.79 562.29 C 421.60 574.74 424.44 587.27 430.85 598.25 C 434.70 604.32 436.72 611.25 438.62 618.11 C 442.33 629.94 444.18 642.22 446.72 654.32 C 443.18 655.54 439.79 657.46 435.99 657.67 C 432.99 651.96 432.25 645.49 430.38 639.40 C 427.76 630.40 425.36 621.32 422.33 612.44 C 419.35 603.88 415.75 595.21 409.23 588.70 C 404.61 584.35 399.79 580.21 395.33 575.70 C 391.03 570.70 388.30 564.62 384.95 559.00 C 381.13 552.66 375.18 548.09 370.48 542.47 C 360.06 529.35 352.58 514.01 347.94 497.95 C 343.66 482.82 343.43 466.86 345.45 451.35 Z" />
		<path fill="var(--socks-color, grey)" opacity="1.00"
			d=" M 500.49 731.86 C 511.40 724.06 522.48 716.12 535.22 711.59 C 549.26 717.83 561.70 728.10 569.50 741.44 C 574.79 750.26 577.96 760.22 579.44 770.37 C 556.97 787.41 532.07 801.17 507.03 814.13 C 489.25 823.22 470.84 830.98 453.02 839.99 C 436.80 847.15 421.81 856.64 406.52 865.52 C 398.73 870.43 391.05 875.52 382.92 879.84 C 379.97 881.39 377.54 883.71 375.06 885.90 C 368.46 886.11 361.58 885.32 355.65 882.25 C 350.27 879.43 347.29 872.89 348.79 866.99 C 350.71 859.47 354.81 852.27 354.07 844.28 C 367.62 835.46 381.32 826.83 394.44 817.36 C 407.32 807.29 419.87 796.80 432.48 786.39 C 444.52 775.77 456.18 764.66 469.12 755.10 C 479.63 747.43 489.69 739.13 500.49 731.86 Z" />
		<path fill="var(--socks-color, grey)" opacity="1.00"
			d=" M 491.36 827.86 C 512.10 818.17 532.37 807.46 552.15 795.94 C 547.29 830.75 545.67 865.91 544.33 901.00 C 544.37 909.42 543.88 917.92 545.30 926.28 C 541.80 929.30 536.83 929.75 532.45 930.61 C 523.58 931.77 513.75 932.90 505.75 928.01 C 507.60 919.49 508.21 910.64 506.94 901.99 C 505.62 893.70 503.16 885.64 501.43 877.44 C 497.86 860.97 493.36 844.63 491.36 827.86 Z" />
	</g>
	<g id="#0c0c0cff">
		<path fill="#0c0c0c" opacity="1.00"
			d=" M 547.40 690.31 C 550.75 690.88 554.44 689.82 557.17 692.47 C 555.63 693.05 554.05 693.56 552.54 694.20 C 557.21 699.87 561.52 706.45 562.08 713.97 C 562.16 715.32 561.84 717.03 560.18 717.11 C 558.01 714.10 557.32 710.27 555.20 707.20 C 550.27 707.70 545.36 708.50 540.61 709.93 C 538.67 709.25 535.89 709.20 535.22 711.59 C 522.48 716.12 511.40 724.06 500.49 731.86 C 499.94 731.77 498.84 731.59 498.29 731.50 C 496.49 731.95 495.09 734.15 493.23 733.82 C 492.81 728.33 491.38 722.83 492.35 717.33 C 492.64 714.07 493.58 710.95 494.41 707.81 C 493.78 706.46 492.20 705.49 492.15 703.95 C 493.24 701.91 495.87 702.21 497.80 701.66 C 497.31 701.34 496.33 700.70 495.84 700.38 C 513.14 697.69 530.70 695.82 547.40 690.31 M 528.15 701.08 C 517.54 703.16 506.96 705.52 496.22 706.79 C 495.24 714.27 494.25 721.90 495.42 729.41 C 500.61 726.30 505.37 722.52 510.59 719.47 C 520.81 713.41 530.99 706.48 542.93 704.42 C 546.42 703.97 549.88 703.33 553.33 702.60 C 551.49 700.45 549.92 698.08 548.05 695.96 C 541.36 697.44 534.88 699.76 528.15 701.08 Z" />
	</g>
	<g id="#4d4d4dff">
		<path fill="#4d4d4d" opacity="1.00"
			d=" M 303.78 853.83 C 315.91 843.35 333.16 843.81 348.18 845.15 C 348.40 853.77 342.87 861.42 342.74 870.03 C 342.69 876.98 347.09 883.65 353.41 886.52 C 360.29 889.58 368.04 890.37 375.49 889.51 C 374.21 908.04 376.47 926.57 378.77 944.94 C 379.91 951.57 380.73 958.28 380.71 965.02 C 380.67 970.08 378.97 975.65 374.47 978.48 C 370.67 981.55 365.44 980.71 361.07 979.66 C 354.79 978.22 349.42 974.47 344.44 970.56 C 335.96 960.76 329.78 949.20 324.56 937.40 C 319.20 924.92 318.01 910.01 307.96 900.01 C 300.25 892.12 297.77 880.74 297.22 870.06 C 296.77 864.06 298.70 857.46 303.78 853.83 Z" />
		<path fill="#4d4d4d" opacity="1.00"
			d=" M 552.48 926.47 C 555.76 922.64 560.74 919.46 565.98 920.85 C 574.12 923.43 579.45 933.29 576.49 941.43 C 573.29 947.84 568.64 953.72 562.52 957.57 C 559.75 959.39 556.64 960.80 554.29 963.20 C 551.75 965.79 550.16 969.10 548.10 972.05 C 542.13 981.49 531.98 988.26 520.97 990.12 C 515.70 990.45 509.16 989.79 505.97 984.98 C 502.25 978.66 500.07 971.37 500.12 964.01 C 499.87 953.20 501.14 942.16 504.86 932.03 C 514.21 937.50 525.54 936.33 535.80 934.83 C 542.09 933.97 548.22 931.30 552.48 926.47 Z" />
	</g>
</svg>