<?xml version="1.0" encoding="UTF-8" ?>
<!DOCTYPE svg PUBLIC "-//W3C//DTD SVG 1.1//EN" "http://www.w3.org/Graphics/SVG/1.1/DTD/svg11.dtd">
<svg width="1000pt" height="1000pt" viewBox="0 0 1000 1000" version="1.1" xmlns="http://www.w3.org/2000/svg">
	<g id="#020202ff">
		<path fill="#020202" opacity="1.00"
			d=" M 699.29 24.26 C 716.78 15.29 737.91 13.30 756.63 19.48 C 768.98 23.56 780.27 31.98 786.22 43.71 C 787.89 47.03 790.70 50.04 790.77 53.95 C 791.08 57.20 789.32 60.06 787.86 62.81 C 789.40 74.22 788.01 86.02 783.73 96.71 C 782.69 99.47 781.25 102.10 780.77 105.03 C 780.35 113.47 783.12 121.64 783.47 130.01 C 783.35 132.46 783.79 135.98 781.06 137.17 C 775.98 139.48 770.27 139.51 764.82 139.83 C 758.10 148.62 753.10 158.54 746.55 167.44 C 744.60 169.89 742.73 172.62 739.90 174.12 C 737.13 175.47 734.33 173.43 732.32 171.68 C 726.63 166.46 721.35 160.81 716.41 154.88 C 706.91 158.01 703.02 168.19 699.83 176.74 C 702.74 180.14 705.11 184.04 706.35 188.37 C 710.32 201.52 710.13 215.43 710.46 229.03 C 710.33 239.37 710.30 249.72 709.69 260.04 C 709.05 273.34 708.94 286.76 706.39 299.87 C 704.94 307.35 702.22 314.65 697.93 320.97 C 695.67 324.38 692.95 327.55 691.37 331.37 C 689.06 336.74 688.90 342.86 685.91 347.96 C 684.40 350.66 681.96 352.64 679.65 354.63 C 685.83 360.47 692.57 365.71 699.75 370.26 C 702.31 371.82 705.72 373.68 708.59 371.73 C 715.85 367.34 723.58 363.41 732.00 361.85 C 735.55 361.19 739.35 361.84 742.50 363.61 C 745.37 365.63 745.58 369.49 746.39 372.61 C 749.91 373.89 754.41 375.25 755.46 379.36 C 755.91 383.22 755.22 387.31 757.01 390.93 C 760.04 397.84 762.77 405.52 760.77 413.12 C 760.07 417.99 757.41 422.58 753.04 425.01 C 747.22 428.44 740.38 431.99 733.45 430.34 C 729.53 429.23 728.49 424.96 727.76 421.48 C 719.68 419.49 712.88 414.55 706.17 409.88 C 700.83 409.07 695.20 410.05 689.84 408.73 C 678.59 406.21 668.06 401.30 657.42 396.98 C 653.91 403.96 650.35 410.93 647.23 418.09 C 641.64 430.84 635.19 443.23 630.44 456.33 C 628.16 462.65 627.23 469.92 629.93 476.26 C 630.90 478.58 632.17 481.03 634.48 482.27 C 637.24 483.37 640.20 483.91 642.91 485.17 C 648.25 487.42 652.53 491.47 656.56 495.52 C 664.12 503.00 670.69 511.37 677.55 519.48 C 686.10 529.26 693.82 539.89 699.28 551.73 C 706.93 569.22 717.40 585.26 727.49 601.41 C 733.08 609.19 736.89 618.06 740.14 627.03 C 742.73 633.72 742.18 641.14 740.97 648.07 C 738.92 658.02 732.46 666.46 725.03 673.10 C 719.39 678.22 712.25 681.38 706.85 686.78 C 702.12 691.44 697.45 696.26 694.00 701.97 C 683.36 717.66 669.93 731.14 656.81 744.73 C 632.70 770.13 607.62 795.14 588.97 825.00 C 583.61 832.82 578.87 841.18 576.30 850.36 C 580.16 855.30 581.75 861.46 583.88 867.25 C 588.91 880.90 594.97 894.19 602.22 906.82 C 608.72 918.24 619.75 926.03 627.26 936.70 C 630.62 941.40 634.20 947.11 632.48 953.14 C 631.95 957.22 627.76 959.25 624.09 959.68 C 617.24 960.37 610.43 958.74 603.80 957.25 C 586.19 953.16 569.22 946.00 554.39 935.61 C 548.36 931.40 542.66 926.65 537.88 921.03 C 532.16 914.49 527.34 906.87 519.77 902.24 C 510.84 896.23 499.13 896.87 490.25 890.79 C 484.78 887.08 483.48 879.56 485.35 873.56 C 487.69 864.08 494.78 857.02 500.72 849.66 C 510.36 837.37 523.04 827.97 533.30 816.24 C 542.68 807.13 547.72 794.84 553.52 783.38 C 559.65 771.06 565.27 758.50 571.12 746.05 C 582.53 723.38 593.27 700.36 604.81 677.75 C 606.96 673.26 610.14 669.39 613.71 665.96 C 605.52 651.77 594.05 639.99 583.84 627.32 C 580.60 635.25 576.14 642.59 572.55 650.36 C 564.66 666.62 556.77 683.13 552.79 700.86 C 550.61 710.84 551.22 721.49 546.93 730.96 C 544.41 735.74 538.03 734.34 533.60 735.34 C 529.22 743.66 523.41 751.21 516.52 757.61 C 510.26 763.22 502.16 765.91 495.04 770.16 C 477.88 780.02 460.42 789.57 444.69 801.67 C 431.30 811.25 418.75 822.02 404.74 830.71 C 390.70 839.59 376.34 847.97 361.60 855.60 C 346.46 864.04 333.12 876.61 326.01 892.63 C 329.07 899.37 330.80 906.66 331.79 913.98 C 332.64 920.96 334.69 927.81 337.81 934.11 C 340.20 938.95 344.82 942.18 349.63 944.35 C 356.37 947.39 363.49 949.97 369.25 954.77 C 371.75 956.88 374.05 959.64 374.49 963.00 C 374.72 965.46 372.84 967.67 370.58 968.39 C 366.20 969.74 361.56 969.29 357.05 969.41 C 344.67 969.73 332.27 970.27 319.89 969.70 C 306.49 968.51 291.85 965.01 282.92 954.14 C 276.82 946.52 271.78 938.03 264.81 931.13 C 256.55 922.37 246.10 915.79 238.80 906.12 C 237.02 903.79 235.61 900.90 236.35 897.91 C 238.02 889.43 243.94 882.67 249.60 876.49 C 255.30 870.85 261.14 865.11 268.28 861.32 C 275.22 857.94 281.24 853.03 287.55 848.64 C 295.32 843.18 302.65 837.10 309.25 830.27 C 315.86 823.55 321.56 815.99 328.26 809.35 C 340.26 797.32 352.42 785.44 365.16 774.20 C 372.87 767.48 378.61 758.93 385.55 751.49 C 397.19 738.83 408.52 725.46 423.19 716.18 C 429.51 712.52 435.96 708.94 442.96 706.76 C 436.22 700.86 435.65 691.27 436.89 682.99 C 437.46 674.60 441.15 666.98 444.45 659.40 C 449.61 645.00 455.08 630.47 456.61 615.14 C 460.82 579.07 460.62 542.56 457.36 506.42 C 455.93 498.07 455.80 489.37 458.37 481.22 C 452.92 477.62 446.75 474.13 443.83 467.99 C 441.90 464.11 443.39 459.70 444.77 455.91 C 447.48 449.52 450.61 443.28 454.58 437.59 C 466.07 421.60 480.82 408.40 493.63 393.53 C 496.40 390.40 497.17 386.06 496.72 382.01 C 495.57 368.66 489.71 355.14 493.73 341.77 C 498.96 326.55 506.78 312.43 513.74 297.97 C 509.82 288.94 506.93 279.47 504.77 269.88 C 502.89 260.88 508.34 252.46 514.08 246.05 C 520.33 239.74 526.27 233.14 532.23 226.55 C 532.81 223.67 533.59 220.75 535.44 218.41 C 545.72 204.52 558.50 192.74 571.47 181.43 C 575.88 174.92 579.70 167.89 585.34 162.29 C 595.92 150.96 608.24 141.04 622.47 134.70 C 628.34 132.22 634.74 131.49 641.04 131.10 C 647.49 130.64 651.80 125.28 656.71 121.76 C 658.47 120.08 660.83 121.59 662.78 122.02 C 670.68 117.59 677.66 111.12 681.88 103.06 C 680.91 98.34 677.91 94.44 675.79 90.21 C 669.77 78.92 668.48 65.07 672.86 52.99 C 677.18 40.25 687.59 30.42 699.29 24.26 M 765.43 69.36 C 764.37 71.86 761.20 71.82 758.93 71.63 C 754.89 71.26 751.69 68.52 748.60 66.17 C 743.73 72.25 740.92 79.81 741.18 87.65 C 735.52 88.93 730.07 85.61 726.64 81.33 C 723.67 77.74 723.13 72.64 719.68 69.39 C 718.02 67.85 715.74 69.04 714.25 70.17 C 709.91 73.53 707.67 78.79 705.87 83.80 C 703.55 91.32 707.41 98.68 708.93 105.92 C 709.16 108.52 709.88 112.25 707.04 113.72 C 703.55 113.44 701.53 110.04 699.07 107.94 C 694.58 103.04 688.48 100.23 683.15 96.42 C 684.39 99.07 686.15 101.81 685.61 104.88 C 684.83 108.17 682.28 110.60 680.28 113.20 C 675.78 119.01 669.54 123.25 662.83 126.11 C 668.03 131.63 673.81 136.55 679.26 141.81 C 682.99 145.53 686.70 149.67 688.00 154.93 C 689.75 162.16 693.88 168.44 697.23 175.00 C 699.13 165.44 704.23 154.63 714.63 152.26 C 710.35 146.44 706.52 140.30 703.01 134.00 C 701.64 131.61 700.62 129.03 700.16 126.31 C 703.00 128.43 704.51 131.69 706.39 134.60 C 711.51 142.65 716.81 150.69 723.56 157.51 C 728.20 162.15 732.53 167.22 738.00 170.94 C 742.26 166.81 745.61 161.89 748.91 156.99 C 752.86 150.95 757.12 145.12 761.26 139.22 C 762.28 137.95 763.20 136.22 765.03 136.08 C 769.98 135.32 775.08 135.57 779.94 134.13 C 780.38 123.95 775.88 114.21 776.76 104.00 C 777.64 99.81 779.78 96.02 781.26 92.02 C 778.25 93.68 775.01 95.05 772.47 97.40 C 770.87 100.14 771.78 103.95 769.59 106.41 C 767.88 107.40 766.23 105.96 764.81 105.13 C 759.04 101.02 754.41 95.58 749.27 90.74 C 748.13 89.37 745.96 88.23 746.59 86.13 C 749.92 84.99 753.44 84.56 756.88 83.85 C 761.55 82.98 766.28 81.75 771.07 82.31 C 775.42 82.88 779.19 85.36 782.47 88.13 C 784.62 80.60 785.18 72.76 784.97 64.95 C 782.19 66.50 779.30 67.89 776.18 68.58 C 776.96 65.41 778.45 62.33 778.35 59.01 C 778.25 56.60 776.41 54.85 775.01 53.10 C 769.42 56.81 768.29 63.78 765.43 69.36 M 641.99 135.10 C 635.24 135.60 628.27 136.10 622.09 139.14 C 608.57 145.81 596.52 155.34 586.73 166.79 C 581.37 173.84 577.19 181.76 573.96 190.00 C 567.06 207.29 561.30 225.11 552.60 241.63 C 545.10 255.73 534.07 267.55 526.60 281.67 C 519.26 295.83 511.70 309.94 506.08 324.90 C 502.93 333.40 498.04 341.66 498.10 350.98 C 498.36 362.24 501.99 373.12 502.31 384.38 C 506.76 378.73 511.33 373.11 514.66 366.70 C 519.59 358.12 521.79 348.28 526.86 339.77 C 530.55 333.47 534.79 327.50 538.08 320.98 C 541.99 313.24 546.21 305.65 549.78 297.74 C 551.19 294.59 552.61 291.34 555.19 288.95 C 555.11 292.11 554.50 295.23 553.24 298.13 C 549.75 306.60 546.11 315.02 542.16 323.29 C 538.83 330.31 534.24 336.62 530.40 343.35 C 526.31 350.40 524.31 358.39 520.67 365.65 C 513.97 379.48 502.79 390.36 491.98 401.00 C 484.08 410.36 475.22 418.89 467.63 428.53 C 459.54 438.67 451.44 449.41 447.85 462.06 C 446.74 464.90 449.02 467.30 451.00 469.00 C 459.35 476.32 469.79 480.51 479.68 485.27 C 495.69 493.10 511.28 501.93 528.16 507.81 C 550.08 516.19 573.85 516.86 597.03 517.28 C 605.04 516.88 612.59 512.79 617.83 506.79 C 623.50 500.44 628.27 493.36 633.94 487.01 C 631.28 485.08 628.42 483.09 627.08 479.97 C 622.65 471.37 624.29 461.13 627.68 452.48 C 632.51 439.20 638.82 426.55 644.54 413.65 C 647.31 407.47 650.35 401.40 653.82 395.58 C 645.24 392.19 636.37 389.60 627.43 387.35 C 620.25 385.36 612.55 384.07 606.44 379.51 C 601.62 375.40 597.71 370.07 595.85 363.96 C 593.37 355.65 592.87 346.77 594.30 338.22 C 595.44 331.22 596.67 324.19 599.22 317.54 C 597.64 317.57 596.07 317.68 594.50 317.60 C 592.95 315.80 594.22 313.44 594.56 311.44 C 597.23 302.74 599.65 293.97 602.33 285.28 C 603.35 282.25 602.50 279.06 602.02 276.02 C 600.53 267.83 600.42 259.40 601.68 251.18 C 602.78 244.37 604.73 237.75 606.30 231.05 C 607.28 226.82 608.37 222.57 610.34 218.67 C 610.78 220.78 611.11 222.95 610.74 225.10 C 609.61 233.10 607.63 240.95 606.24 248.90 C 604.73 257.32 604.86 265.96 605.86 274.43 C 610.24 261.51 615.41 248.89 619.88 236.01 C 620.49 234.37 621.42 232.87 622.39 231.42 C 623.45 239.35 619.57 246.70 617.41 254.10 C 610.68 273.28 604.72 292.71 598.74 312.13 C 604.72 310.62 610.88 309.90 617.05 309.88 C 626.68 309.93 636.02 312.64 645.12 315.55 C 652.51 317.88 659.05 322.27 664.64 327.58 C 665.20 319.43 667.54 311.50 671.27 304.25 C 675.00 295.70 680.32 287.81 682.75 278.72 C 685.52 269.07 685.18 258.93 685.15 248.99 C 685.14 240.34 684.52 231.70 684.49 223.05 C 684.42 220.97 684.77 218.89 685.94 217.13 C 688.20 219.07 688.15 222.19 688.44 224.91 C 688.99 233.95 689.65 242.99 689.94 252.05 C 693.78 242.68 699.91 234.55 704.50 225.57 C 706.55 222.03 705.80 217.81 705.73 213.93 C 705.13 204.53 704.67 194.80 700.82 186.06 C 698.74 181.16 694.31 177.96 690.80 174.17 C 687.27 170.38 683.69 166.63 680.22 162.79 C 677.40 159.48 674.16 156.19 673.31 151.74 C 678.27 155.89 681.81 161.45 686.79 165.60 C 684.75 161.32 683.86 156.59 681.66 152.40 C 675.01 142.26 663.58 136.26 657.52 125.65 C 653.28 130.01 648.35 134.57 641.99 135.10 M 539.23 222.16 C 537.52 224.51 537.83 227.67 538.88 230.23 C 540.82 234.80 543.69 238.90 546.61 242.90 C 555.52 226.09 560.79 207.71 567.95 190.15 C 557.60 200.08 547.36 210.28 539.23 222.16 M 517.29 248.34 C 511.83 253.97 507.26 261.94 509.18 270.03 C 510.95 277.87 513.90 285.39 516.20 293.09 C 520.11 285.75 523.57 278.15 528.12 271.17 C 533.01 263.15 538.89 255.79 543.68 247.70 C 538.65 243.42 535.53 237.47 533.01 231.49 C 528.25 237.53 522.82 243.00 517.29 248.34 M 690.54 259.42 C 689.73 261.54 689.73 263.84 689.51 266.07 C 688.91 274.94 686.62 283.71 682.58 291.64 C 678.82 298.90 674.84 306.08 671.78 313.68 C 669.20 320.04 668.46 326.92 666.55 333.48 C 664.25 331.99 662.02 330.38 659.76 328.84 C 664.35 337.60 670.45 345.50 677.42 352.49 C 679.83 349.85 682.35 347.10 683.34 343.57 C 685.11 337.70 685.52 331.26 689.06 326.05 C 692.74 320.65 697.11 315.58 699.25 309.30 C 702.95 299.36 703.56 288.62 704.24 278.13 C 704.92 262.62 705.91 247.13 705.95 231.60 C 700.45 240.66 694.63 249.60 690.54 259.42 M 603.91 315.90 C 599.29 329.86 596.65 345.00 599.66 359.59 C 601.41 367.38 605.87 375.17 613.32 378.71 C 619.79 381.50 626.80 382.63 633.55 384.58 C 645.88 387.64 657.73 392.35 669.43 397.26 C 680.13 401.46 691.30 405.50 703.00 404.87 C 708.04 404.15 711.55 408.27 715.54 410.51 C 720.31 413.30 725.27 416.38 730.91 416.86 C 737.64 416.50 743.99 413.38 750.81 413.73 C 749.69 415.02 748.59 416.46 746.92 417.05 C 741.85 419.16 736.57 420.79 731.19 421.88 C 732.21 423.89 733.04 427.10 735.94 426.88 C 740.91 426.60 745.45 424.17 749.64 421.66 C 754.10 419.14 757.19 414.17 756.99 408.98 C 757.06 402.68 754.00 397.01 751.50 391.42 C 749.77 387.80 750.75 383.78 750.79 379.96 C 748.48 378.01 745.20 377.99 742.80 376.24 C 741.06 373.71 741.90 370.26 740.32 367.67 C 738.58 366.25 736.21 365.34 733.98 366.01 C 726.68 367.69 720.27 371.75 713.28 374.28 C 708.95 375.79 703.98 377.73 699.57 375.39 C 686.27 368.83 675.37 358.26 666.07 346.89 C 661.16 340.18 655.58 333.35 654.26 324.89 C 645.85 320.14 636.37 317.71 626.96 315.84 C 619.35 314.29 611.54 314.83 603.91 315.90 M 463.53 519.02 C 465.18 539.63 465.61 560.35 464.76 581.02 C 463.58 600.22 463.01 619.77 457.13 638.26 C 453.84 648.68 450.80 659.23 446.12 669.13 C 443.03 675.64 441.87 682.85 441.71 690.00 C 441.64 693.19 441.30 696.83 443.49 699.48 C 448.36 705.79 456.31 708.37 463.92 709.43 C 479.45 713.25 493.97 720.18 508.61 726.47 C 513.49 728.41 518.48 730.89 523.89 730.44 C 529.82 730.13 535.73 729.49 541.61 728.71 C 543.30 723.26 544.54 717.66 545.09 711.98 C 546.36 698.20 551.08 685.03 556.38 672.35 C 563.13 655.63 572.26 640.03 579.79 623.70 C 581.66 620.81 585.05 623.55 586.76 625.27 C 597.81 637.11 608.98 649.24 616.29 663.86 C 622.72 658.76 629.96 654.84 637.28 651.18 C 652.55 643.78 668.35 637.47 684.53 632.35 C 700.23 627.59 716.25 622.90 732.77 622.45 C 730.31 617.55 728.07 612.52 724.97 608.00 C 720.47 601.41 716.47 594.50 712.27 587.73 C 706.93 578.34 701.08 569.20 696.83 559.25 C 693.94 552.42 690.65 545.76 686.56 539.58 C 681.99 532.31 676.16 525.98 670.77 519.34 C 663.64 510.81 656.76 501.98 648.45 494.55 C 645.26 491.71 641.45 489.73 637.58 488.02 C 632.36 496.40 626.41 504.43 619.51 511.51 C 611.93 519.29 600.65 522.09 590.07 521.26 C 577.22 521.13 564.29 520.99 551.61 518.63 C 530.02 515.26 510.06 505.84 490.59 496.33 C 480.65 492.38 470.50 488.75 461.35 483.09 C 459.30 495.17 463.23 507.00 463.53 519.02 M 667.82 642.94 C 651.02 649.30 634.75 657.10 619.52 666.63 C 617.08 668.13 615.33 670.42 613.53 672.59 C 632.36 671.35 651.36 674.55 669.02 681.10 C 677.74 684.51 686.48 688.73 693.02 695.62 C 696.52 690.95 700.13 686.35 704.29 682.24 C 709.52 676.97 716.45 673.88 721.89 668.86 C 728.54 662.82 734.45 655.18 735.92 646.10 C 736.97 639.19 736.99 631.82 734.21 625.29 C 711.40 628.13 689.26 634.81 667.82 642.94 M 574.83 750.95 C 567.40 766.44 560.12 782.02 552.17 797.27 C 548.85 803.68 545.31 810.09 540.40 815.45 C 535.88 820.34 531.14 825.02 526.35 829.65 C 530.64 840.21 538.24 848.91 545.63 857.41 C 548.87 860.71 553.23 864.76 558.25 863.27 C 562.43 860.13 562.68 854.01 566.68 850.67 C 568.46 849.09 570.99 849.25 573.20 848.87 C 574.69 842.13 577.20 835.63 580.75 829.71 C 586.97 819.44 593.25 809.17 600.68 799.71 C 608.17 789.63 616.72 780.41 625.16 771.14 C 636.45 758.75 648.15 746.76 659.84 734.76 C 671.01 723.56 681.58 711.70 690.71 698.76 C 679.94 689.73 666.58 684.54 653.07 681.25 C 639.25 677.80 624.95 677.04 610.76 677.47 C 599.46 702.28 587.26 726.68 574.83 750.95 M 427.38 719.26 C 440.96 722.07 452.98 729.71 463.42 738.58 C 473.19 747.22 482.27 757.46 486.33 770.09 C 489.21 768.38 492.11 766.70 495.03 765.07 C 501.55 761.28 508.99 758.83 514.44 753.39 C 519.70 747.97 524.52 742.05 528.18 735.41 C 523.39 735.44 518.46 735.83 513.91 734.00 C 497.15 728.06 481.27 719.63 463.99 715.15 C 458.41 714.15 452.72 713.20 447.76 710.27 C 440.53 712.18 433.94 715.77 427.38 719.26 M 390.54 753.51 C 386.07 758.41 381.96 763.61 377.72 768.70 C 371.20 776.50 363.12 782.74 355.86 789.80 C 345.12 800.08 334.40 810.43 324.47 821.50 C 315.60 831.93 305.98 841.88 294.70 849.74 C 286.65 855.36 278.59 861.06 269.72 865.34 C 271.12 871.65 271.47 878.45 274.96 884.07 C 278.17 889.29 281.95 894.47 287.42 897.50 C 291.47 899.67 295.54 901.96 300.00 903.15 C 301.99 903.60 304.65 903.88 306.10 902.10 C 308.43 898.00 307.95 892.15 312.30 889.35 C 316.06 886.86 320.67 888.69 324.29 890.51 C 325.29 887.00 326.54 883.54 328.46 880.43 C 336.77 866.37 350.03 855.75 364.55 848.61 C 381.07 839.76 397.27 830.25 412.75 819.68 C 426.60 809.61 440.09 799.03 454.18 789.29 C 463.59 783.15 473.34 777.54 483.04 771.86 C 476.50 755.48 463.09 742.79 448.43 733.52 C 440.08 728.68 430.89 723.76 421.04 723.79 C 409.27 731.88 400.11 743.04 390.54 753.51 M 506.29 850.24 C 502.32 855.32 497.86 860.01 494.26 865.37 C 491.11 870.22 488.60 876.19 489.94 882.06 C 490.78 885.84 494.46 887.94 497.83 889.16 C 506.11 892.09 515.26 893.06 522.60 898.24 C 532.73 904.74 538.18 915.99 547.11 923.80 C 561.89 936.91 580.02 945.97 599.05 951.08 C 607.19 953.17 615.46 955.97 623.97 955.37 C 628.28 954.79 628.60 949.38 626.53 946.43 C 618.90 932.83 605.05 924.03 597.48 910.37 C 591.29 899.14 586.27 887.33 581.56 875.43 C 578.68 868.37 576.93 860.89 573.60 854.02 C 572.11 854.29 570.11 853.67 569.07 855.06 C 566.31 858.76 565.36 863.71 561.70 866.75 C 558.35 869.25 553.62 868.85 550.04 867.07 C 544.89 864.43 541.08 859.92 537.52 855.49 C 531.87 848.38 526.09 841.03 523.49 832.19 C 517.91 838.36 511.42 843.66 506.29 850.24 M 245.74 889.62 C 243.75 892.78 241.76 896.21 241.60 900.04 C 242.25 903.83 245.43 906.44 248.16 908.87 C 258.31 917.28 268.78 925.64 276.41 936.52 C 282.56 944.58 287.19 954.74 297.00 959.03 C 313.53 966.56 332.22 965.65 349.94 965.24 C 357.20 964.69 364.58 966.01 371.73 964.22 C 363.22 951.32 344.38 952.85 335.39 940.55 C 326.49 927.77 328.00 911.41 322.60 897.34 C 321.77 894.32 317.91 892.34 315.16 893.95 C 312.06 897.65 312.82 903.69 308.64 906.71 C 304.44 909.62 298.90 908.44 294.57 906.46 C 288.48 903.52 282.14 900.49 277.61 895.30 C 274.96 892.25 272.74 888.85 270.74 885.35 C 267.70 880.12 267.08 873.99 265.82 868.19 C 258.47 874.65 251.16 881.39 245.74 889.62 Z" />
		<path fill="#020202" opacity="1.00"
			d=" M 579.42 364.25 C 579.78 362.92 580.69 362.26 582.15 362.27 C 581.68 368.91 579.61 375.34 579.48 382.02 C 578.91 397.59 583.42 412.80 588.78 427.25 C 592.54 436.88 596.54 446.44 601.45 455.55 C 602.69 457.76 603.52 460.18 603.72 462.74 C 601.86 461.84 599.98 460.83 598.88 459.02 C 588.17 442.29 580.24 423.64 576.91 403.99 C 574.45 390.81 575.13 376.98 579.42 364.25 Z" />
		<path fill="#020202" opacity="1.00"
			d=" M 537.37 443.78 C 541.25 446.92 543.78 451.27 546.79 455.18 C 560.93 473.50 576.47 492.36 598.34 501.60 C 600.36 502.79 604.01 502.98 603.82 506.05 C 601.91 508.34 598.66 507.70 596.04 507.92 C 579.26 507.72 562.56 505.44 546.10 502.27 C 534.50 500.07 523.04 496.78 512.41 491.61 C 510.25 490.65 508.53 488.99 507.35 486.97 C 514.62 489.19 521.65 492.18 529.03 494.05 C 549.98 499.33 571.58 501.33 593.02 503.49 C 580.82 497.13 569.76 488.58 560.76 478.16 C 553.59 469.93 546.67 461.43 540.72 452.27 C 538.98 449.73 537.91 446.80 537.37 443.78 Z" />
	</g>
	<g id="#f0b58bff">
		<path fill="#f0b58b" opacity="1.00"
			d=" M 765.43 69.36 C 768.29 63.78 769.42 56.81 775.01 53.10 C 776.41 54.85 778.25 56.60 778.35 59.01 C 778.45 62.33 776.96 65.41 776.18 68.58 C 779.30 67.89 782.19 66.50 784.97 64.95 C 785.18 72.76 784.62 80.60 782.47 88.13 C 779.19 85.36 775.42 82.88 771.07 82.31 C 766.28 81.75 761.55 82.98 756.88 83.85 C 753.44 84.56 749.92 84.99 746.59 86.13 C 745.96 88.23 748.13 89.37 749.27 90.74 C 754.41 95.58 759.04 101.02 764.81 105.13 C 766.23 105.96 767.88 107.40 769.59 106.41 C 771.78 103.95 770.87 100.14 772.47 97.40 C 775.01 95.05 778.25 93.68 781.26 92.02 C 779.78 96.02 777.64 99.81 776.76 104.00 C 775.88 114.21 780.38 123.95 779.94 134.13 C 775.08 135.57 769.98 135.32 765.03 136.08 C 763.20 136.22 762.28 137.95 761.26 139.22 C 757.12 145.12 752.86 150.95 748.91 156.99 C 745.61 161.89 742.26 166.81 738.00 170.94 C 732.53 167.22 728.20 162.15 723.56 157.51 C 716.81 150.69 711.51 142.65 706.39 134.60 C 704.51 131.69 703.00 128.43 700.16 126.31 C 700.62 129.03 701.64 131.61 703.01 134.00 C 706.52 140.30 710.35 146.44 714.63 152.26 C 704.23 154.63 699.13 165.44 697.23 175.00 C 693.88 168.44 689.75 162.16 688.00 154.93 C 686.70 149.67 682.99 145.53 679.26 141.81 C 673.81 136.55 668.03 131.63 662.83 126.11 C 669.54 123.25 675.78 119.01 680.28 113.20 C 682.28 110.60 684.83 108.17 685.61 104.88 C 686.15 101.81 684.39 99.07 683.15 96.42 C 688.48 100.23 694.58 103.04 699.07 107.94 C 701.53 110.04 703.55 113.44 707.04 113.72 C 709.88 112.25 709.16 108.52 708.93 105.92 C 707.41 98.68 703.55 91.32 705.87 83.80 C 707.67 78.79 709.91 73.53 714.25 70.17 C 715.74 69.04 718.02 67.85 719.68 69.39 C 723.13 72.64 723.67 77.74 726.64 81.33 C 730.07 85.61 735.52 88.93 741.18 87.65 C 740.92 79.81 743.73 72.25 748.60 66.17 C 751.69 68.52 754.89 71.26 758.93 71.63 C 761.20 71.82 764.37 71.86 765.43 69.36 Z" />
		<path fill="#f0b58b" opacity="1.00"
			d=" M 517.29 248.34 C 522.82 243.00 528.25 237.53 533.01 231.49 C 535.53 237.47 538.65 243.42 543.68 247.70 C 538.89 255.79 533.01 263.15 528.12 271.17 C 523.57 278.15 520.11 285.75 516.20 293.09 C 513.90 285.39 510.95 277.87 509.18 270.03 C 507.26 261.94 511.83 253.97 517.29 248.34 Z" />
		<path fill="#f0b58b" opacity="1.00"
			d=" M 603.91 315.90 C 611.54 314.83 619.35 314.29 626.96 315.84 C 636.37 317.71 645.85 320.14 654.26 324.89 C 655.58 333.35 661.16 340.18 666.07 346.89 C 675.37 358.26 686.27 368.83 699.57 375.39 C 703.98 377.73 708.95 375.79 713.28 374.28 C 720.27 371.75 726.68 367.69 733.98 366.01 C 736.21 365.34 738.58 366.25 740.32 367.67 C 741.90 370.26 741.06 373.71 742.80 376.24 C 745.20 377.99 748.48 378.01 750.79 379.96 C 750.75 383.78 749.77 387.80 751.50 391.42 C 754.00 397.01 757.06 402.68 756.99 408.98 C 757.19 414.17 754.10 419.14 749.64 421.66 C 745.45 424.17 740.91 426.60 735.94 426.88 C 733.04 427.10 732.21 423.89 731.19 421.88 C 736.57 420.79 741.85 419.16 746.92 417.05 C 748.59 416.46 749.69 415.02 750.81 413.73 C 743.99 413.38 737.64 416.50 730.91 416.86 C 725.27 416.38 720.31 413.30 715.54 410.51 C 711.55 408.27 708.04 404.15 703.00 404.87 C 691.30 405.50 680.13 401.46 669.43 397.26 C 657.73 392.35 645.88 387.64 633.55 384.58 C 626.80 382.63 619.79 381.50 613.32 378.71 C 605.87 375.17 601.41 367.38 599.66 359.59 C 596.65 345.00 599.29 329.86 603.91 315.90 Z" />
		<path fill="#f0b58b" opacity="1.00"
			d=" M 667.82 642.94 C 689.26 634.81 711.40 628.13 734.21 625.29 C 736.99 631.82 736.97 639.19 735.92 646.10 C 734.45 655.18 728.54 662.82 721.89 668.86 C 716.45 673.88 709.52 676.97 704.29 682.24 C 700.13 686.35 696.52 690.95 693.02 695.62 C 686.48 688.73 677.74 684.51 669.02 681.10 C 651.36 674.55 632.36 671.35 613.53 672.59 C 615.33 670.42 617.08 668.13 619.52 666.63 C 634.75 657.10 651.02 649.30 667.82 642.94 Z" />
		<path fill="#f0b58b" opacity="1.00"
			d=" M 427.38 719.26 C 433.94 715.77 440.53 712.18 447.76 710.27 C 452.72 713.20 458.41 714.15 463.99 715.15 C 481.27 719.63 497.15 728.06 513.91 734.00 C 518.46 735.83 523.39 735.44 528.18 735.41 C 524.52 742.05 519.70 747.97 514.44 753.39 C 508.99 758.83 501.55 761.28 495.03 765.07 C 492.11 766.70 489.21 768.38 486.33 770.09 C 482.27 757.46 473.19 747.22 463.42 738.58 C 452.98 729.71 440.96 722.07 427.38 719.26 Z" />
	</g>
	<g id="#f11b27ff">
		<path fill="var(--shirt-color, grey)" opacity="1.00"
			d=" M 641.99 135.10 C 648.35 134.57 653.28 130.01 657.52 125.65 C 663.58 136.26 675.01 142.26 681.66 152.40 C 683.86 156.59 684.75 161.32 686.79 165.60 C 681.81 161.45 678.27 155.89 673.31 151.74 C 674.16 156.19 677.40 159.48 680.22 162.79 C 683.69 166.63 687.27 170.38 690.80 174.17 C 694.31 177.96 698.74 181.16 700.82 186.06 C 704.67 194.80 705.13 204.53 705.73 213.93 C 705.80 217.81 706.55 222.03 704.50 225.57 C 699.91 234.55 693.78 242.68 689.94 252.05 C 689.65 242.99 688.99 233.95 688.44 224.91 C 688.15 222.19 688.20 219.07 685.94 217.13 C 684.77 218.89 684.42 220.97 684.49 223.05 C 684.52 231.70 685.14 240.34 685.15 248.99 C 685.18 258.93 685.52 269.07 682.75 278.72 C 680.32 287.81 675.00 295.70 671.27 304.25 C 667.54 311.50 665.20 319.43 664.64 327.58 C 659.05 322.27 652.51 317.88 645.12 315.55 C 636.02 312.64 626.68 309.93 617.05 309.88 C 610.88 309.90 604.72 310.62 598.74 312.13 C 604.72 292.71 610.68 273.28 617.41 254.10 C 619.57 246.70 623.45 239.35 622.39 231.42 C 621.42 232.87 620.49 234.37 619.88 236.01 C 615.41 248.89 610.24 261.51 605.86 274.43 C 604.86 265.96 604.73 257.32 606.24 248.90 C 607.63 240.95 609.61 233.10 610.74 225.10 C 611.11 222.95 610.78 220.78 610.34 218.67 C 608.37 222.57 607.28 226.82 606.30 231.05 C 604.73 237.75 602.78 244.37 601.68 251.18 C 600.42 259.40 600.53 267.83 602.02 276.02 C 602.50 279.06 603.35 282.25 602.33 285.28 C 599.65 293.97 597.23 302.74 594.56 311.44 C 594.22 313.44 592.95 315.80 594.50 317.60 C 596.07 317.68 597.64 317.57 599.22 317.54 C 596.67 324.19 595.44 331.22 594.30 338.22 C 592.87 346.77 593.37 355.65 595.85 363.96 C 597.71 370.07 601.62 375.40 606.44 379.51 C 612.55 384.07 620.25 385.36 627.43 387.35 C 636.37 389.60 645.24 392.19 653.82 395.58 C 650.35 401.40 647.31 407.47 644.54 413.65 C 638.82 426.55 632.51 439.20 627.68 452.48 C 624.29 461.13 622.65 471.37 627.08 479.97 C 628.42 483.09 631.28 485.08 633.94 487.01 C 628.27 493.36 623.50 500.44 617.83 506.79 C 612.59 512.79 605.04 516.88 597.03 517.28 C 573.85 516.86 550.08 516.19 528.16 507.81 C 511.28 501.93 495.69 493.10 479.68 485.27 C 469.79 480.51 459.35 476.32 451.00 469.00 C 449.02 467.30 446.74 464.90 447.85 462.06 C 451.44 449.41 459.54 438.67 467.63 428.53 C 475.22 418.89 484.08 410.36 491.98 401.00 C 502.79 390.36 513.97 379.48 520.67 365.65 C 524.31 358.39 526.31 350.40 530.40 343.35 C 534.24 336.62 538.83 330.31 542.16 323.29 C 546.11 315.02 549.75 306.60 553.24 298.13 C 554.50 295.23 555.11 292.11 555.19 288.95 C 552.61 291.34 551.19 294.59 549.78 297.74 C 546.21 305.65 541.99 313.24 538.08 320.98 C 534.79 327.50 530.55 333.47 526.86 339.77 C 521.79 348.28 519.59 358.12 514.66 366.70 C 511.33 373.11 506.76 378.73 502.31 384.38 C 501.99 373.12 498.36 362.24 498.10 350.98 C 498.04 341.66 502.93 333.40 506.08 324.90 C 511.70 309.94 519.26 295.83 526.60 281.67 C 534.07 267.55 545.10 255.73 552.60 241.63 C 561.30 225.11 567.06 207.29 573.96 190.00 C 577.19 181.76 581.37 173.84 586.73 166.79 C 596.52 155.34 608.57 145.81 622.09 139.14 C 628.27 136.10 635.24 135.60 641.99 135.10 M 579.42 364.25 C 575.13 376.98 574.45 390.81 576.91 403.99 C 580.24 423.64 588.17 442.29 598.88 459.02 C 599.98 460.83 601.86 461.84 603.72 462.74 C 603.52 460.18 602.69 457.76 601.45 455.55 C 596.54 446.44 592.54 436.88 588.78 427.25 C 583.42 412.80 578.91 397.59 579.48 382.02 C 579.61 375.34 581.68 368.91 582.15 362.27 C 580.69 362.26 579.78 362.92 579.42 364.25 M 537.37 443.78 C 537.91 446.80 538.98 449.73 540.72 452.27 C 546.67 461.43 553.59 469.93 560.76 478.16 C 569.76 488.58 580.82 497.13 593.02 503.49 C 571.58 501.33 549.98 499.33 529.03 494.05 C 521.65 492.18 514.62 489.19 507.35 486.97 C 508.53 488.99 510.25 490.65 512.41 491.61 C 523.04 496.78 534.50 500.07 546.10 502.27 C 562.56 505.44 579.26 507.72 596.04 507.92 C 598.66 507.70 601.91 508.34 603.82 506.05 C 604.01 502.98 600.36 502.79 598.34 501.60 C 576.47 492.36 560.93 473.50 546.79 455.18 C 543.78 451.27 541.25 446.92 537.37 443.78 Z" />
		<path fill="var(--shirt-color, grey)" opacity="1.00"
			d=" M 539.23 222.16 C 547.36 210.28 557.60 200.08 567.95 190.15 C 560.79 207.71 555.52 226.09 546.61 242.90 C 543.69 238.90 540.82 234.80 538.88 230.23 C 537.83 227.67 537.52 224.51 539.23 222.16 Z" />
		<path fill="var(--shirt-color, grey)" opacity="1.00"
			d=" M 690.54 259.42 C 694.63 249.60 700.45 240.66 705.95 231.60 C 705.91 247.13 704.92 262.62 704.24 278.13 C 703.56 288.62 702.95 299.36 699.25 309.30 C 697.11 315.58 692.74 320.65 689.06 326.05 C 685.52 331.26 685.11 337.70 683.34 343.57 C 682.35 347.10 679.83 349.85 677.42 352.49 C 670.45 345.50 664.35 337.60 659.76 328.84 C 662.02 330.38 664.25 331.99 666.55 333.48 C 668.46 326.92 669.20 320.04 671.78 313.68 C 674.84 306.08 678.82 298.90 682.58 291.64 C 686.62 283.71 688.91 274.94 689.51 266.07 C 689.73 263.84 689.73 261.54 690.54 259.42 Z" />
	</g>
	<g id="#2b3dcdff">
		<path fill="var(--pants-color, grey)" opacity="1.00"
			d=" M 463.53 519.02 C 463.23 507.00 459.30 495.17 461.35 483.09 C 470.50 488.75 480.65 492.38 490.59 496.33 C 510.06 505.84 530.02 515.26 551.61 518.63 C 564.29 520.99 577.22 521.13 590.07 521.26 C 600.65 522.09 611.93 519.29 619.51 511.51 C 626.41 504.43 632.36 496.40 637.58 488.02 C 641.45 489.73 645.26 491.71 648.45 494.55 C 656.76 501.98 663.64 510.81 670.77 519.34 C 676.16 525.98 681.99 532.31 686.56 539.58 C 690.65 545.76 693.94 552.42 696.83 559.25 C 701.08 569.20 706.93 578.34 712.27 587.73 C 716.47 594.50 720.47 601.41 724.97 608.00 C 728.07 612.52 730.31 617.55 732.77 622.45 C 716.25 622.90 700.23 627.59 684.53 632.35 C 668.35 637.47 652.55 643.78 637.28 651.18 C 629.96 654.84 622.72 658.76 616.29 663.86 C 608.98 649.24 597.81 637.11 586.76 625.27 C 585.05 623.55 581.66 620.81 579.79 623.70 C 572.26 640.03 563.13 655.63 556.38 672.35 C 551.08 685.03 546.36 698.20 545.09 711.98 C 544.54 717.66 543.30 723.26 541.61 728.71 C 535.73 729.49 529.82 730.13 523.89 730.44 C 518.48 730.89 513.49 728.41 508.61 726.47 C 493.97 720.18 479.45 713.25 463.92 709.43 C 456.31 708.37 448.36 705.79 443.49 699.48 C 441.30 696.83 441.64 693.19 441.71 690.00 C 441.87 682.85 443.03 675.64 446.12 669.13 C 450.80 659.23 453.84 648.68 457.13 638.26 C 463.01 619.77 463.58 600.22 464.76 581.02 C 465.61 560.35 465.18 539.63 463.53 519.02 Z" />
		<path fill="var(--socks-color, grey)" opacity="1.00"
			d=" M 574.83 750.95 C 587.26 726.68 599.46 702.28 610.76 677.47 C 624.95 677.04 639.25 677.80 653.07 681.25 C 666.58 684.54 679.94 689.73 690.71 698.76 C 681.58 711.70 671.01 723.56 659.84 734.76 C 648.15 746.76 636.45 758.75 625.16 771.14 C 616.72 780.41 608.17 789.63 600.68 799.71 C 593.25 809.17 586.97 819.44 580.75 829.71 C 577.20 835.63 574.69 842.13 573.20 848.87 C 570.99 849.25 568.46 849.09 566.68 850.67 C 562.68 854.01 562.43 860.13 558.25 863.27 C 553.23 864.76 548.87 860.71 545.63 857.41 C 538.24 848.91 530.64 840.21 526.35 829.65 C 531.14 825.02 535.88 820.34 540.40 815.45 C 545.31 810.09 548.85 803.68 552.17 797.27 C 560.12 782.02 567.40 766.44 574.83 750.95 Z" />
		<path fill="var(--socks-color, grey)" opacity="1.00"
			d=" M 390.54 753.51 C 400.11 743.04 409.27 731.88 421.04 723.79 C 430.89 723.76 440.08 728.68 448.43 733.52 C 463.09 742.79 476.50 755.48 483.04 771.86 C 473.34 777.54 463.59 783.15 454.18 789.29 C 440.09 799.03 426.60 809.61 412.75 819.68 C 397.27 830.25 381.07 839.76 364.55 848.61 C 350.03 855.75 336.77 866.37 328.46 880.43 C 326.54 883.54 325.29 887.00 324.29 890.51 C 320.67 888.69 316.06 886.86 312.30 889.35 C 307.95 892.15 308.43 898.00 306.10 902.10 C 304.65 903.88 301.99 903.60 300.00 903.15 C 295.54 901.96 291.47 899.67 287.42 897.50 C 281.95 894.47 278.17 889.29 274.96 884.07 C 271.47 878.45 271.12 871.65 269.72 865.34 C 278.59 861.06 286.65 855.36 294.70 849.74 C 305.98 841.88 315.60 831.93 324.47 821.50 C 334.40 810.43 345.12 800.08 355.86 789.80 C 363.12 782.74 371.20 776.50 377.72 768.70 C 381.96 763.61 386.07 758.41 390.54 753.51 Z" />
	</g>
	<g id="#4d4d4dff">
		<path fill="#4d4d4d" opacity="1.00"
			d=" M 506.29 850.24 C 511.42 843.66 517.91 838.36 523.49 832.19 C 526.09 841.03 531.87 848.38 537.52 855.49 C 541.08 859.92 544.89 864.43 550.04 867.07 C 553.62 868.85 558.35 869.25 561.70 866.75 C 565.36 863.71 566.31 858.76 569.07 855.06 C 570.11 853.67 572.11 854.29 573.60 854.02 C 576.93 860.89 578.68 868.37 581.56 875.43 C 586.27 887.33 591.29 899.14 597.48 910.37 C 605.05 924.03 618.90 932.83 626.53 946.43 C 628.60 949.38 628.28 954.79 623.97 955.37 C 615.46 955.97 607.19 953.17 599.05 951.08 C 580.02 945.97 561.89 936.91 547.11 923.80 C 538.18 915.99 532.73 904.74 522.60 898.24 C 515.26 893.06 506.11 892.09 497.83 889.16 C 494.46 887.94 490.78 885.84 489.94 882.06 C 488.60 876.19 491.11 870.22 494.26 865.37 C 497.86 860.01 502.32 855.32 506.29 850.24 Z" />
		<path fill="#4d4d4d" opacity="1.00"
			d=" M 245.74 889.62 C 251.16 881.39 258.47 874.65 265.82 868.19 C 267.08 873.99 267.70 880.12 270.74 885.35 C 272.74 888.85 274.96 892.25 277.61 895.30 C 282.14 900.49 288.48 903.52 294.57 906.46 C 298.90 908.44 304.44 909.62 308.64 906.71 C 312.82 903.69 312.06 897.65 315.16 893.95 C 317.91 892.34 321.77 894.32 322.60 897.34 C 328.00 911.41 326.49 927.77 335.39 940.55 C 344.38 952.85 363.22 951.32 371.73 964.22 C 364.58 966.01 357.20 964.69 349.94 965.24 C 332.22 965.65 313.53 966.56 297.00 959.03 C 287.19 954.74 282.56 944.58 276.41 936.52 C 268.78 925.64 258.31 917.28 248.16 908.87 C 245.43 906.44 242.25 903.83 241.60 900.04 C 241.76 896.21 243.75 892.78 245.74 889.62 Z" />
	</g>
</svg>