<?xml version="1.0" encoding="UTF-8" ?>
<!DOCTYPE svg PUBLIC "-//W3C//DTD SVG 1.1//EN" "http://www.w3.org/Graphics/SVG/1.1/DTD/svg11.dtd">
<svg width="1000pt" height="1000pt" viewBox="0 0 1000 1000" version="1.1" xmlns="http://www.w3.org/2000/svg">
	<g id="#020202ff">
		<path fill="#020202" opacity="1.00"
			d=" M 722.88 42.89 C 736.42 29.45 755.12 21.85 773.98 20.15 C 792.26 18.56 811.79 22.84 825.89 35.10 C 830.53 39.03 833.49 44.42 836.51 49.59 C 838.91 53.68 843.62 56.75 843.79 61.89 C 844.31 65.15 842.39 67.92 840.48 70.32 C 844.08 79.79 845.19 90.34 842.42 100.17 C 841.35 104.70 838.86 108.66 836.65 112.69 C 834.64 116.25 834.66 120.53 835.44 124.44 C 837.44 133.50 838.24 142.78 838.70 152.03 C 839.03 155.49 836.63 159.08 833.04 159.42 C 828.45 159.62 823.95 158.35 819.44 157.70 C 816.96 166.07 812.59 173.72 808.41 181.34 C 805.19 186.56 801.91 192.62 795.87 194.94 C 791.48 196.59 787.22 193.61 783.96 190.97 C 780.16 188.13 777.60 183.69 773.10 181.82 C 770.60 180.67 767.86 180.23 765.19 179.73 C 768.03 185.73 770.99 192.24 769.89 199.05 C 768.71 205.57 766.05 212.17 767.65 218.85 C 773.21 236.62 773.95 255.51 773.29 273.99 C 773.01 288.49 769.51 302.65 768.09 317.03 C 765.51 335.95 770.05 354.80 774.83 372.99 C 775.77 376.07 777.23 379.30 780.22 380.90 C 790.67 387.59 801.79 393.27 813.44 397.57 C 823.81 401.06 834.68 402.85 845.50 404.34 C 855.20 405.11 865.92 406.15 874.49 400.55 C 879.98 396.05 884.37 390.40 888.80 384.90 C 891.21 382.09 894.06 378.94 897.98 378.58 C 905.36 379.34 912.62 381.29 920.07 381.48 C 927.46 381.73 934.26 384.94 941.33 386.71 C 944.11 387.66 947.54 388.00 949.35 390.61 C 951.72 393.91 954.29 397.71 953.59 401.99 C 953.34 406.40 948.87 408.59 947.37 412.39 C 947.17 414.74 948.48 416.89 949.01 419.14 C 950.42 422.77 948.43 426.53 946.40 429.49 C 943.25 434.05 938.95 437.63 935.25 441.71 C 935.04 444.06 935.75 446.96 933.83 448.78 C 931.02 451.36 927.22 452.36 923.78 453.79 C 917.47 456.40 910.42 456.23 903.80 455.13 C 900.08 454.54 896.71 452.71 893.06 451.94 C 889.41 451.67 885.70 452.51 882.10 451.61 C 876.73 450.31 872.20 446.98 867.30 444.58 C 863.83 442.81 859.80 443.03 856.02 442.92 C 829.67 443.07 803.39 440.50 777.04 440.86 C 762.92 440.52 748.03 443.25 734.64 437.43 C 726.03 433.73 721.34 424.89 718.51 416.43 C 716.46 410.61 715.94 404.42 715.17 398.34 C 712.62 404.30 708.86 409.70 704.00 414.01 C 695.85 421.35 688.15 429.71 683.98 440.01 C 682.20 445.62 682.67 451.71 680.62 457.28 C 682.80 467.11 678.91 476.98 673.83 485.25 C 675.32 492.86 674.72 501.07 671.01 507.99 C 668.46 512.67 665.36 517.03 662.22 521.34 C 666.44 525.79 666.71 532.17 667.77 537.87 C 668.74 542.79 668.74 547.82 669.46 552.77 C 673.13 555.97 677.87 557.55 682.01 560.03 C 696.61 567.87 707.38 581.04 716.10 594.83 C 721.73 602.73 726.71 611.40 734.48 617.46 C 739.64 621.74 745.52 625.65 748.54 631.87 C 747.74 632.68 746.94 633.50 746.14 634.33 C 750.19 642.08 752.87 650.46 756.63 658.35 C 758.45 662.38 762.38 664.70 765.52 667.60 C 770.60 672.27 775.12 677.68 778.11 683.95 C 781.72 691.62 788.35 697.32 792.03 704.96 C 796.18 713.60 799.20 723.46 796.96 733.08 C 795.40 741.14 790.94 748.45 784.60 753.66 C 776.02 762.41 762.80 766.62 757.50 778.39 C 752.79 789.00 744.67 797.52 736.44 805.49 C 723.97 817.08 710.74 827.83 697.31 838.28 C 687.42 845.59 678.39 853.97 669.49 862.44 C 661.05 870.48 653.80 879.67 647.47 889.45 C 645.67 892.38 643.29 895.27 643.20 898.89 C 642.81 904.24 642.22 909.74 639.54 914.51 C 646.40 923.04 650.12 933.54 656.74 942.23 C 659.58 945.85 662.23 950.58 667.14 951.51 C 676.69 952.85 686.81 953.49 695.20 958.78 C 701.81 962.36 706.41 969.46 706.84 976.99 C 707.09 980.18 704.36 982.52 701.66 983.62 C 695.18 986.40 687.95 986.34 681.03 986.20 C 668.65 985.87 656.34 984.39 644.14 982.33 C 633.76 980.56 623.50 977.22 614.75 971.24 C 599.41 960.41 583.94 949.03 565.89 943.15 C 560.84 941.53 555.62 938.79 553.43 933.66 C 549.55 924.41 550.14 913.90 552.65 904.37 C 557.06 890.20 568.57 878.68 582.38 873.49 C 585.02 872.44 587.87 871.84 590.28 870.28 C 596.40 866.21 602.53 861.91 607.07 856.03 C 614.36 847.66 617.04 836.66 620.67 826.45 C 624.77 813.64 630.28 801.32 636.19 789.26 C 643.39 774.63 653.18 761.19 665.41 750.35 C 674.90 741.85 685.16 733.92 696.97 728.91 C 680.68 715.41 662.09 705.05 643.53 695.04 C 640.03 696.92 636.86 699.55 632.93 700.48 C 629.29 698.46 626.39 695.40 623.15 692.84 C 613.44 684.68 601.82 679.38 590.92 673.08 C 587.50 670.99 584.15 668.62 581.61 665.49 C 578.92 661.88 577.38 657.59 575.17 653.70 C 570.90 645.69 565.36 638.49 559.83 631.33 C 547.91 646.77 534.24 660.75 520.10 674.13 C 518.42 675.70 516.73 677.29 514.81 678.56 C 507.31 675.79 500.72 671.03 493.67 667.31 C 483.70 674.76 473.54 681.98 464.12 690.14 C 448.54 702.80 435.16 717.83 420.44 731.43 C 412.87 738.45 403.32 743.53 392.92 744.42 C 378.95 745.68 364.92 744.32 350.93 744.10 C 340.89 743.94 331.02 746.04 321.06 746.96 C 282.10 751.25 244.49 762.81 207.21 774.41 C 188.74 780.15 170.58 786.93 152.98 794.95 C 136.33 802.32 120.96 812.14 105.37 821.44 C 100.64 824.17 96.07 827.28 92.33 831.29 C 84.01 840.32 76.20 850.16 71.73 861.73 C 69.33 866.91 67.52 873.13 62.30 876.22 C 57.98 879.09 51.77 877.07 49.27 872.72 C 45.08 865.99 44.34 857.71 45.12 849.98 C 46.11 837.04 50.69 824.74 56.05 813.03 C 61.28 801.65 63.90 789.25 64.79 776.80 C 66.35 756.76 69.81 736.02 80.89 718.83 C 84.64 713.45 91.82 712.21 97.95 712.31 C 109.55 712.74 121.01 715.65 131.58 720.43 C 141.43 725.19 152.84 723.35 163.02 720.77 C 175.15 717.92 185.94 711.49 196.91 705.84 C 212.25 697.84 227.05 688.86 241.59 679.51 C 255.97 670.46 271.32 662.93 287.42 657.46 C 295.02 654.96 302.94 653.12 310.99 653.30 C 321.84 653.49 332.59 655.37 343.11 657.94 C 346.72 659.25 349.97 656.75 352.61 654.60 C 364.35 644.38 374.12 632.18 385.18 621.27 C 382.98 620.35 380.15 620.14 378.71 618.02 C 377.63 614.33 381.50 611.99 383.63 609.64 C 393.99 600.53 403.06 589.99 410.55 578.41 C 414.28 572.61 416.01 565.71 420.31 560.24 C 428.24 549.94 439.37 542.49 446.61 531.61 C 448.27 528.36 447.37 524.55 447.23 521.07 C 445.76 507.61 445.72 493.34 451.81 480.92 C 454.20 475.87 457.64 471.43 461.37 467.31 C 460.23 465.11 458.07 462.77 459.25 460.14 C 460.90 454.90 463.42 449.94 466.29 445.26 C 472.20 436.66 478.04 427.87 485.74 420.73 C 491.15 415.75 496.92 411.15 503.07 407.11 C 516.56 398.69 529.06 387.71 536.50 373.44 C 545.74 357.07 551.80 339.21 558.81 321.84 C 565.04 306.22 571.10 290.36 580.34 276.21 C 572.70 269.15 563.36 264.37 553.91 260.22 C 544.18 256.02 535.73 249.08 529.28 240.70 C 522.95 232.77 516.66 224.49 513.22 214.83 C 510.10 206.25 510.51 196.89 507.74 188.22 C 505.41 180.24 500.83 172.63 501.42 164.05 C 501.42 158.99 503.75 153.86 508.16 151.19 C 519.00 143.78 532.69 144.58 544.84 140.92 C 549.71 139.46 554.39 137.45 559.03 135.40 C 558.07 133.33 555.54 130.78 557.57 128.59 C 561.09 125.97 565.79 126.04 569.98 125.69 C 576.89 125.17 583.89 125.70 590.56 127.64 C 601.74 130.86 613.52 130.37 625.01 129.69 C 646.06 128.03 667.19 129.61 688.22 131.02 C 691.03 125.96 694.31 120.66 699.89 118.31 C 704.33 123.22 709.34 127.62 715.23 130.74 C 718.14 127.45 720.95 124.05 723.35 120.36 C 720.05 116.01 716.50 111.74 714.46 106.60 C 710.83 97.76 706.54 88.77 706.62 78.99 C 706.48 65.30 713.18 52.28 722.88 42.89 M 822.28 63.30 C 819.86 67.48 819.32 72.39 819.07 77.13 C 815.73 77.86 812.27 78.45 808.88 77.77 C 804.61 77.17 800.93 74.81 797.13 72.96 C 789.40 79.77 788.13 90.42 785.58 99.77 C 782.15 99.95 778.83 98.49 775.76 97.13 C 770.71 94.40 770.19 88.10 767.42 83.66 C 762.74 79.95 755.93 82.17 752.06 86.00 C 748.90 90.66 747.62 96.51 747.83 102.09 C 748.55 107.00 751.73 111.10 752.75 115.94 C 753.82 120.02 753.95 125.07 750.46 128.05 C 743.82 123.48 736.06 121.19 728.60 118.39 C 723.27 116.50 720.53 111.31 716.80 107.48 C 718.93 112.14 723.04 115.48 725.39 119.99 C 724.91 124.89 721.37 128.76 718.53 132.55 C 724.82 135.79 731.44 138.54 737.13 142.80 C 742.25 146.63 744.75 152.66 747.86 158.03 C 751.62 164.72 757.70 169.60 762.44 175.53 C 765.52 175.36 768.58 175.68 771.57 176.47 C 768.06 170.78 765.42 164.62 762.26 158.74 C 759.32 152.57 755.41 146.83 753.30 140.30 C 757.67 143.61 759.90 148.77 762.70 153.33 C 770.06 166.13 777.13 179.77 788.72 189.30 C 792.29 192.55 796.72 189.05 799.02 186.04 C 804.87 178.40 809.32 169.79 813.39 161.12 C 814.77 158.51 814.90 154.61 817.98 153.36 C 823.13 153.13 828.22 154.60 833.39 154.53 C 833.18 147.96 832.41 141.43 831.75 134.90 C 831.13 128.57 828.86 122.29 830.09 115.88 C 830.70 111.80 833.24 108.42 835.17 104.90 C 831.42 106.43 827.87 108.37 824.40 110.43 C 824.33 113.51 824.91 116.75 823.73 119.69 C 821.92 120.66 820.21 119.22 818.64 118.47 C 811.36 114.25 804.50 109.34 797.88 104.15 C 796.35 102.61 793.74 100.92 794.40 98.42 C 796.87 96.51 800.03 95.89 802.97 95.02 C 810.60 92.92 818.80 91.48 826.58 93.68 C 830.89 94.89 834.12 98.19 836.96 101.48 C 840.20 92.06 840.30 81.91 837.85 72.30 C 835.30 73.98 832.65 75.53 829.73 76.48 C 830.42 72.67 831.38 68.82 830.99 64.92 C 830.77 62.97 829.85 60.60 827.71 60.15 C 825.45 59.81 823.38 61.48 822.28 63.30 M 693.02 132.07 C 703.61 135.06 713.66 140.58 720.86 149.03 C 728.51 157.59 735.95 166.54 741.17 176.82 C 742.07 178.18 741.21 179.61 740.56 180.84 C 732.29 169.77 723.86 158.73 713.90 149.09 C 708.28 143.91 701.35 140.30 694.11 137.99 C 686.58 135.52 678.56 135.98 670.77 135.27 C 657.50 134.69 644.19 133.75 630.91 134.66 C 620.37 135.32 609.72 136.05 599.24 134.36 C 592.06 133.44 585.29 130.35 578.00 130.20 C 572.74 130.05 567.47 130.35 562.26 131.07 C 566.07 136.85 570.11 142.51 573.19 148.72 C 580.78 164.01 584.86 181.04 584.84 198.12 C 589.85 197.61 594.98 197.62 599.87 198.92 C 604.94 200.18 609.42 202.95 614.28 204.77 C 626.30 209.71 639.39 211.02 651.67 215.17 C 666.18 219.28 680.49 225.87 690.74 237.26 C 694.06 240.86 697.31 244.99 697.64 250.10 C 694.23 247.94 692.33 244.29 689.59 241.44 C 683.48 234.95 676.05 229.73 667.94 226.04 C 660.51 222.61 652.58 220.46 644.73 218.23 C 634.51 215.35 623.82 214.17 613.93 210.17 C 610.94 224.37 604.88 237.95 596.60 249.84 C 604.62 247.57 613.03 247.22 621.00 244.79 C 625.21 243.81 630.24 242.15 634.10 244.96 C 639.33 249.35 644.32 254.04 648.90 259.11 C 651.23 261.82 654.22 265.06 653.23 268.95 C 651.66 276.15 649.89 283.35 647.10 290.19 C 645.15 295.26 639.55 297.30 636.73 301.74 C 634.75 304.72 631.83 306.83 628.85 308.72 C 627.97 310.64 626.82 313.49 624.15 312.75 C 620.50 311.70 616.88 310.23 613.78 308.02 C 612.98 305.91 613.95 303.73 614.28 301.64 C 607.91 299.35 600.64 299.12 595.10 294.89 C 589.69 290.87 587.52 284.19 583.29 279.16 C 575.60 293.46 569.64 308.58 563.52 323.60 C 557.07 339.05 551.62 354.96 543.84 369.83 C 540.00 377.09 536.03 384.42 530.40 390.47 C 523.63 397.73 516.17 404.41 507.74 409.69 C 494.96 417.88 483.32 428.14 474.90 440.87 C 469.71 447.46 465.60 454.83 462.77 462.74 C 472.07 472.99 483.90 480.46 495.90 487.12 C 503.54 491.28 512.44 492.13 520.99 491.80 C 534.16 491.28 547.49 490.28 560.55 492.63 C 566.86 493.72 572.91 495.92 578.77 498.46 C 569.84 490.25 559.88 482.98 548.62 478.33 C 538.03 473.97 526.85 471.35 515.84 468.31 C 507.65 466.02 499.29 464.48 490.96 462.76 C 487.90 462.21 484.73 461.37 482.73 458.78 C 484.99 458.42 487.31 458.31 489.59 458.70 C 507.04 461.42 524.32 465.37 541.19 470.62 C 554.71 474.75 567.17 481.96 577.83 491.19 C 584.23 496.82 590.42 502.83 597.84 507.15 C 607.26 512.34 617.49 516.00 628.02 518.19 C 637.70 520.68 647.74 520.52 657.62 521.30 C 660.87 515.94 664.45 510.75 667.00 505.01 C 670.11 497.55 669.57 488.97 666.28 481.67 C 659.43 465.25 649.36 449.87 646.48 432.02 C 646.02 430.11 647.15 428.42 647.86 426.76 C 650.04 430.72 651.06 435.16 652.78 439.32 C 658.87 453.36 666.73 466.59 672.39 480.83 C 675.65 473.38 678.79 464.29 674.53 456.61 C 666.66 442.28 657.28 428.66 651.63 413.21 C 648.96 406.02 647.85 398.39 645.81 391.02 C 644.72 386.87 643.21 382.67 643.78 378.32 C 645.23 380.21 646.40 382.32 647.11 384.61 C 649.70 392.70 652.07 400.87 654.89 408.89 C 660.90 424.42 670.35 438.26 678.36 452.78 C 678.63 447.20 677.95 441.37 680.16 436.09 C 683.14 428.97 687.79 422.66 693.06 417.06 C 698.38 411.41 705.17 406.87 708.67 399.72 C 715.99 383.96 722.45 367.78 730.23 352.24 C 733.64 345.61 737.30 339.08 740.09 332.15 C 748.02 313.15 750.94 292.43 751.37 271.95 C 751.58 268.23 751.05 264.12 753.47 260.96 C 755.88 267.37 754.89 274.36 755.02 281.06 C 755.13 295.93 752.46 310.76 747.75 324.84 C 742.90 339.98 734.13 353.38 728.09 368.02 C 724.55 376.50 720.48 384.75 717.20 393.34 C 726.09 393.34 734.97 391.08 742.73 386.75 C 748.29 383.75 753.77 380.30 760.00 378.87 C 764.28 377.79 768.68 378.65 772.97 379.26 C 769.54 372.76 768.32 365.43 766.37 358.41 C 763.48 347.88 762.39 336.94 762.38 326.05 C 763.01 311.25 766.32 296.75 767.91 282.05 C 769.30 265.03 769.00 247.80 766.13 230.94 C 765.17 224.63 761.67 218.68 762.58 212.14 C 762.98 206.97 765.33 202.21 765.92 197.08 C 766.23 191.64 763.81 186.51 761.16 181.91 C 757.27 175.00 750.23 170.71 745.91 164.13 C 741.58 158.08 739.70 150.04 733.16 145.79 C 721.66 138.53 707.40 134.84 698.73 123.69 C 696.65 126.36 694.75 129.16 693.02 132.07 M 532.27 149.16 C 523.98 150.61 514.75 151.26 508.24 157.25 C 505.95 160.65 506.23 165.13 506.89 168.99 C 508.47 175.33 511.76 181.09 513.42 187.41 C 516.22 196.47 515.22 206.31 518.85 215.15 C 522.78 224.82 529.60 232.90 536.16 240.88 C 543.98 250.03 555.07 255.17 565.72 260.24 C 572.15 263.54 578.17 267.67 583.71 272.30 C 589.61 277.18 590.98 285.31 596.26 290.69 C 602.34 297.32 613.63 293.72 619.33 300.91 C 618.82 302.59 618.02 304.16 617.32 305.77 C 619.48 306.65 621.62 307.54 623.77 308.45 C 622.88 301.28 620.68 294.35 619.88 287.18 C 621.17 288.08 622.75 288.92 623.32 290.51 C 625.30 294.96 626.36 299.75 627.57 304.45 C 630.09 302.19 632.90 300.02 634.37 296.87 C 633.86 288.94 629.72 281.80 628.22 274.06 C 627.71 272.17 628.31 270.27 628.80 268.45 C 633.23 276.37 636.05 285.10 638.76 293.73 C 641.12 291.53 643.23 289.05 644.57 286.09 C 641.09 277.47 635.84 269.56 633.51 260.50 C 635.20 261.75 636.91 263.09 637.96 264.97 C 641.01 270.21 643.69 275.66 646.51 281.04 C 647.37 276.33 648.77 271.74 649.52 267.02 C 647.64 263.26 644.18 260.65 641.38 257.61 C 638.27 254.71 635.63 251.31 632.26 248.71 C 629.68 247.49 626.76 248.87 624.14 249.37 C 615.67 251.96 606.84 253.01 598.05 253.79 C 593.71 254.02 588.45 254.31 585.44 250.53 C 579.77 243.92 578.85 234.84 576.30 226.81 C 571.89 213.62 570.05 199.64 564.40 186.85 C 562.57 182.29 559.74 178.24 557.56 173.86 C 558.39 170.73 561.20 172.94 562.42 174.53 C 567.73 181.21 571.02 189.23 573.42 197.35 C 575.69 195.45 578.16 193.79 580.81 192.46 C 578.82 173.37 572.40 154.71 561.45 138.89 C 552.47 144.15 542.54 147.57 532.27 149.16 M 574.90 202.50 C 576.67 210.36 578.84 218.12 581.33 225.79 C 583.94 233.87 584.91 243.16 591.43 249.28 C 596.12 243.34 599.48 236.50 602.53 229.60 C 605.47 222.70 608.28 215.62 609.14 208.11 C 605.02 205.95 600.83 203.62 596.12 203.12 C 591.59 202.37 587.01 203.03 582.53 203.80 C 581.92 201.47 581.42 199.12 580.95 196.77 C 578.91 198.66 576.90 200.58 574.90 202.50 M 896.55 383.38 C 892.08 387.04 889.40 392.33 885.48 396.50 C 879.08 404.40 869.23 409.76 858.97 409.84 C 849.41 410.32 839.86 409.17 830.51 407.23 C 811.70 403.71 793.95 395.61 778.31 384.69 C 777.00 383.83 775.64 382.87 774.03 382.84 C 769.14 382.51 764.05 381.83 759.32 383.47 C 751.13 386.11 744.34 391.80 736.15 394.41 C 730.62 396.37 724.74 397.22 718.89 397.28 C 720.61 406.11 722.06 415.23 727.07 422.94 C 730.20 429.02 736.37 432.96 743.02 434.10 C 753.86 436.39 765.01 435.29 775.99 435.55 C 804.39 435.90 832.72 438.17 861.11 438.60 C 869.04 438.62 874.96 444.61 882.15 446.97 C 886.02 448.25 890.07 446.70 894.02 447.19 C 896.51 447.64 898.76 448.88 901.19 449.59 C 910.72 452.26 921.32 451.20 929.80 445.95 C 929.58 444.23 929.36 442.52 929.18 440.81 C 922.35 437.90 915.13 435.85 907.81 434.61 C 910.72 439.65 916.38 441.67 920.28 445.62 C 914.70 446.13 909.62 442.89 905.68 439.28 C 903.35 437.27 901.86 433.05 904.75 430.87 C 908.44 428.57 912.89 430.72 916.70 431.64 C 914.64 429.59 912.81 427.32 911.43 424.77 C 909.37 424.40 906.89 424.31 905.69 422.30 C 903.11 418.50 902.97 413.71 902.39 409.31 C 900.92 412.93 898.64 416.14 895.83 418.83 C 892.15 422.44 887.93 426.46 882.41 426.38 C 883.97 423.06 887.29 421.27 889.81 418.80 C 895.97 412.98 902.07 406.13 903.15 397.38 C 906.08 398.86 905.80 402.36 906.28 405.11 C 907.01 410.42 907.09 416.08 910.07 420.75 C 912.09 416.08 911.89 410.92 912.32 405.96 C 912.62 399.06 915.10 392.26 913.81 385.32 C 909.78 384.62 905.68 384.32 901.76 383.15 C 900.04 382.69 897.99 381.84 896.55 383.38 M 918.02 384.58 C 918.46 387.64 918.68 390.72 918.69 393.81 C 926.26 393.85 934.25 395.10 940.83 399.01 C 940.79 399.50 940.72 400.48 940.68 400.97 C 933.15 400.49 925.87 398.09 918.36 397.28 C 918.07 399.91 917.81 402.55 917.58 405.19 C 926.36 404.80 934.92 407.01 943.36 409.16 C 945.18 406.18 949.46 404.10 948.66 400.09 C 948.43 397.05 946.49 394.55 945.07 391.98 C 935.82 390.44 927.07 386.93 918.02 384.58 M 917.55 408.97 C 917.34 411.46 917.14 413.95 916.92 416.44 C 925.72 418.90 933.99 422.98 942.18 426.97 C 943.00 425.34 943.93 423.74 944.45 421.98 C 943.93 418.80 942.71 415.78 942.23 412.60 C 934.02 411.28 925.83 409.76 917.55 408.97 M 916.29 420.96 C 916.14 421.78 915.85 423.43 915.71 424.25 C 919.56 429.90 924.70 434.63 930.62 438.05 C 933.74 435.17 937.00 432.44 940.02 429.46 C 931.91 427.21 923.99 424.35 916.29 420.96 M 464.07 470.03 C 460.64 475.46 457.07 480.93 455.23 487.15 C 452.22 496.12 452.48 505.76 453.25 515.08 C 453.66 520.55 454.95 526.20 453.40 531.61 C 451.69 536.13 447.88 539.34 444.84 542.96 C 438.52 550.28 430.41 555.83 424.40 563.43 C 421.63 566.92 420.00 571.09 418.04 575.04 C 414.30 582.59 408.81 589.07 403.64 595.66 C 397.97 602.81 391.10 608.86 384.55 615.18 C 431.19 626.41 474.79 647.99 514.45 674.68 C 529.69 658.53 546.26 643.33 558.59 624.72 C 562.45 627.75 565.27 631.81 568.50 635.45 C 574.51 642.45 579.41 650.33 583.47 658.59 C 585.72 663.49 590.42 666.49 594.96 669.03 C 602.67 673.24 610.50 677.29 617.76 682.28 C 623.37 686.06 628.19 690.85 633.53 695.00 C 640.97 688.67 650.89 687.34 660.01 684.95 C 674.58 680.24 688.61 673.77 701.63 665.69 C 708.82 661.38 714.05 654.72 719.79 648.76 C 726.76 641.33 735.13 635.37 743.92 630.29 C 737.50 624.58 729.70 620.49 724.08 613.91 C 713.25 600.94 705.97 585.10 693.17 573.77 C 687.10 568.13 679.78 564.17 672.42 560.51 C 669.04 558.60 664.41 556.59 664.42 552.03 C 663.83 543.08 662.85 534.12 660.45 525.45 C 655.97 525.47 651.49 525.54 647.02 525.54 C 629.22 525.70 611.67 520.41 596.20 511.80 C 583.38 504.04 569.24 497.66 554.15 496.31 C 543.45 495.31 532.69 496.01 521.98 496.40 C 512.67 496.72 503.03 495.65 494.63 491.36 C 483.73 485.38 472.98 478.80 464.07 470.03 M 368.24 646.18 C 362.63 651.60 357.35 657.66 350.42 661.46 C 347.22 663.40 343.45 662.63 340.06 661.76 C 346.86 669.93 350.97 679.97 353.63 690.17 C 357.54 706.26 358.85 723.84 352.80 739.57 C 360.20 739.55 367.60 739.77 375.01 739.63 C 387.74 739.89 401.50 739.07 411.97 730.95 C 426.86 719.31 438.98 704.61 453.28 692.29 C 464.72 682.48 476.34 672.71 489.28 664.91 C 475.28 657.30 461.23 649.78 446.72 643.19 C 428.70 634.74 409.84 628.22 390.82 622.46 C 383.43 630.49 375.74 638.25 368.24 646.18 M 725.32 651.34 C 718.64 658.30 712.49 666.07 703.96 670.91 C 687.28 680.84 669.24 688.89 650.21 692.98 C 669.66 702.92 689.23 713.62 704.68 729.34 C 706.37 731.27 708.82 733.33 708.21 736.21 C 705.00 737.71 703.04 733.79 700.73 732.23 C 698.51 733.51 696.29 734.78 694.08 736.08 C 696.69 739.11 699.84 741.61 703.22 743.75 C 714.16 750.75 726.01 756.24 738.14 760.83 C 745.45 763.44 752.90 766.17 760.75 766.42 C 769.34 759.03 780.18 754.32 787.46 745.41 C 790.45 740.85 792.38 735.52 792.83 730.06 C 793.49 722.71 790.99 715.55 788.12 708.91 C 784.49 700.67 777.00 694.90 773.53 686.57 C 770.05 678.29 763.01 672.36 756.48 666.51 C 752.48 662.91 751.21 657.51 749.31 652.70 C 747.17 647.31 745.24 641.83 742.87 636.53 C 736.80 641.20 730.58 645.74 725.32 651.34 M 274.65 667.58 C 259.87 673.74 245.94 681.75 232.55 690.50 C 215.88 700.88 198.63 710.34 180.98 718.96 C 169.35 724.54 156.58 727.10 143.82 728.42 C 139.28 734.10 132.16 736.50 125.21 737.48 C 121.04 738.07 116.59 739.59 114.57 743.62 C 111.01 749.99 109.90 757.33 108.26 764.35 C 106.50 773.13 104.78 781.99 104.45 790.97 C 104.48 794.97 104.40 799.22 106.24 802.90 C 111.26 802.81 114.74 797.54 119.96 798.15 C 123.16 798.19 125.00 801.10 126.72 803.37 C 153.15 787.81 182.21 777.34 211.34 768.09 C 248.13 756.53 285.35 744.88 324.01 741.82 C 332.09 740.99 340.15 739.98 348.28 739.74 C 351.94 728.73 352.62 716.94 351.31 705.47 C 349.59 691.52 345.63 677.32 337.02 665.98 C 334.56 663.19 332.18 659.44 328.11 659.11 C 321.81 658.14 315.42 657.52 309.04 657.77 C 296.99 658.34 285.65 662.99 274.65 667.58 M 82.86 723.91 C 75.55 737.62 72.67 753.13 70.67 768.38 C 69.47 779.20 68.76 790.18 65.34 800.60 C 62.49 810.67 57.00 819.71 53.70 829.63 C 50.69 837.71 49.21 846.33 49.09 854.95 C 49.10 860.65 50.28 866.64 53.72 871.31 C 55.57 873.89 59.49 873.73 61.56 871.51 C 64.95 867.89 66.42 863.00 68.47 858.59 C 72.15 849.51 77.10 840.92 83.59 833.55 C 94.23 820.62 109.91 813.75 123.73 804.93 C 122.28 803.86 121.07 801.84 119.04 802.03 C 114.75 802.84 111.46 806.57 106.98 806.70 C 104.41 806.69 102.49 804.51 101.76 802.22 C 99.97 796.74 100.13 790.86 100.54 785.19 C 101.59 774.39 103.60 763.68 106.30 753.17 C 107.84 747.67 109.69 741.91 113.85 737.79 C 117.60 734.11 123.13 733.76 127.97 732.60 C 131.98 731.86 135.64 729.99 139.15 727.99 C 131.46 726.20 124.48 722.36 116.89 720.26 C 110.07 718.39 103.06 716.81 95.96 716.90 C 90.86 716.99 85.23 719.08 82.86 723.91 M 647.93 780.01 C 636.45 799.75 628.33 821.21 620.76 842.68 C 616.84 852.83 610.16 861.89 601.49 868.47 C 597.29 871.58 592.89 874.40 588.54 877.29 C 589.05 882.57 588.65 887.88 587.73 893.09 C 586.92 897.95 586.03 903.50 589.20 907.75 C 594.19 914.58 601.69 919.76 610.00 921.54 C 614.20 922.58 618.18 919.64 620.48 916.39 C 623.11 911.73 622.38 905.43 626.66 901.66 C 629.38 898.81 633.48 898.65 637.16 898.62 C 645.18 883.83 655.21 870.06 667.48 858.50 C 676.38 850.02 685.38 841.61 695.25 834.25 C 705.24 826.31 715.09 818.17 724.54 809.59 C 732.64 802.35 740.57 794.85 747.27 786.27 C 751.09 781.50 753.39 775.77 756.68 770.65 C 743.57 769.27 731.15 764.36 719.31 758.80 C 708.72 753.45 697.57 747.97 689.99 738.54 C 673.92 749.98 658.23 762.91 647.93 780.01 M 555.82 914.96 C 555.38 920.90 555.49 927.31 558.29 932.72 C 561.76 937.60 568.18 938.50 573.38 940.65 C 588.95 946.48 602.78 955.97 616.01 965.87 C 625.30 972.84 636.52 976.73 647.93 978.46 C 661.50 980.67 675.28 981.94 689.04 981.67 C 693.68 981.22 699.33 981.06 702.53 977.15 C 702.13 972.42 699.12 968.35 695.58 965.40 C 688.94 960.13 680.44 958.31 672.29 956.90 C 667.33 956.14 661.87 955.59 658.15 951.84 C 648.50 942.19 643.43 929.25 635.79 918.16 C 635.05 916.87 634.14 915.57 634.08 914.05 C 634.93 910.60 636.55 907.40 637.61 904.02 C 635.05 904.35 631.71 903.60 629.94 905.99 C 628.15 908.61 627.87 911.89 626.89 914.85 C 625.55 920.12 621.20 924.16 616.32 926.24 C 611.46 928.15 606.18 926.35 601.63 924.44 C 593.86 920.88 586.56 915.16 582.91 907.27 C 579.31 897.66 584.46 887.72 583.95 877.89 C 569.65 885.14 558.05 898.77 555.82 914.96 Z" />
	</g>
	<g id="#f0b58bff">
		<path fill="#f0b58b" opacity="1.00"
			d=" M 822.28 63.30 C 823.38 61.48 825.45 59.81 827.71 60.15 C 829.85 60.60 830.77 62.97 830.99 64.92 C 831.38 68.82 830.42 72.67 829.73 76.48 C 832.65 75.53 835.30 73.98 837.85 72.30 C 840.30 81.91 840.20 92.06 836.96 101.48 C 834.12 98.19 830.89 94.89 826.58 93.68 C 818.80 91.48 810.60 92.92 802.97 95.02 C 800.03 95.89 796.87 96.51 794.40 98.42 C 793.74 100.92 796.35 102.61 797.88 104.15 C 804.50 109.34 811.36 114.25 818.64 118.47 C 820.21 119.22 821.92 120.66 823.73 119.69 C 824.91 116.75 824.33 113.51 824.40 110.43 C 827.87 108.37 831.42 106.43 835.17 104.90 C 833.24 108.42 830.70 111.80 830.09 115.88 C 828.86 122.29 831.13 128.57 831.75 134.90 C 832.41 141.43 833.18 147.96 833.39 154.53 C 828.22 154.60 823.13 153.13 817.98 153.36 C 814.90 154.61 814.77 158.51 813.39 161.12 C 809.32 169.79 804.87 178.40 799.02 186.04 C 796.72 189.05 792.29 192.55 788.72 189.30 C 777.13 179.77 770.06 166.13 762.70 153.33 C 759.90 148.77 757.67 143.61 753.30 140.30 C 755.41 146.83 759.32 152.57 762.26 158.74 C 765.42 164.62 768.06 170.78 771.57 176.47 C 768.58 175.68 765.52 175.36 762.44 175.53 C 757.70 169.60 751.62 164.72 747.86 158.03 C 744.75 152.66 742.25 146.63 737.13 142.80 C 731.44 138.54 724.82 135.79 718.53 132.55 C 721.37 128.76 724.91 124.89 725.39 119.99 C 723.04 115.48 718.93 112.14 716.80 107.48 C 720.53 111.31 723.27 116.50 728.60 118.39 C 736.06 121.19 743.82 123.48 750.46 128.05 C 753.95 125.07 753.82 120.02 752.75 115.94 C 751.73 111.10 748.55 107.00 747.83 102.09 C 747.62 96.51 748.90 90.66 752.06 86.00 C 755.93 82.17 762.74 79.95 767.42 83.66 C 770.19 88.10 770.71 94.40 775.76 97.13 C 778.83 98.49 782.15 99.95 785.58 99.77 C 788.13 90.42 789.40 79.77 797.13 72.96 C 800.93 74.81 804.61 77.17 808.88 77.77 C 812.27 78.45 815.73 77.86 819.07 77.13 C 819.32 72.39 819.86 67.48 822.28 63.30 Z" />
		<path fill="#f0b58b" opacity="1.00"
			d=" M 532.27 149.16 C 542.54 147.57 552.47 144.15 561.45 138.89 C 572.40 154.71 578.82 173.37 580.81 192.46 C 578.16 193.79 575.69 195.45 573.42 197.35 C 571.02 189.23 567.73 181.21 562.42 174.53 C 561.20 172.94 558.39 170.73 557.56 173.86 C 559.74 178.24 562.57 182.29 564.40 186.85 C 570.05 199.64 571.89 213.62 576.30 226.81 C 578.85 234.84 579.77 243.92 585.44 250.53 C 588.45 254.31 593.71 254.02 598.05 253.79 C 606.84 253.01 615.67 251.96 624.14 249.37 C 626.76 248.87 629.68 247.49 632.26 248.71 C 635.63 251.31 638.27 254.71 641.38 257.61 C 644.18 260.65 647.64 263.26 649.52 267.02 C 648.77 271.74 647.37 276.33 646.51 281.04 C 643.69 275.66 641.01 270.21 637.96 264.97 C 636.91 263.09 635.20 261.75 633.51 260.50 C 635.84 269.56 641.09 277.47 644.57 286.09 C 643.23 289.05 641.12 291.53 638.76 293.73 C 636.05 285.10 633.23 276.37 628.80 268.45 C 628.31 270.27 627.71 272.17 628.22 274.06 C 629.72 281.80 633.86 288.94 634.37 296.87 C 632.90 300.02 630.09 302.19 627.57 304.45 C 626.36 299.75 625.30 294.96 623.32 290.51 C 622.75 288.92 621.17 288.08 619.88 287.18 C 620.68 294.35 622.88 301.28 623.77 308.45 C 621.62 307.54 619.48 306.65 617.32 305.77 C 618.02 304.16 618.82 302.59 619.33 300.91 C 613.63 293.72 602.34 297.32 596.26 290.69 C 590.98 285.31 589.61 277.18 583.71 272.30 C 578.17 267.67 572.15 263.54 565.72 260.24 C 555.07 255.17 543.98 250.03 536.16 240.88 C 529.60 232.90 522.78 224.82 518.85 215.15 C 515.22 206.31 516.22 196.47 513.42 187.41 C 511.76 181.09 508.47 175.33 506.89 168.99 C 506.23 165.13 505.95 160.65 508.24 157.25 C 514.75 151.26 523.98 150.61 532.27 149.16 Z" />
		<path fill="#f0b58b" opacity="1.00"
			d=" M 896.55 383.38 C 897.99 381.84 900.04 382.69 901.76 383.15 C 905.68 384.32 909.78 384.62 913.81 385.32 C 915.10 392.26 912.62 399.06 912.32 405.96 C 911.89 410.92 912.09 416.08 910.07 420.75 C 907.09 416.08 907.01 410.42 906.28 405.11 C 905.80 402.36 906.08 398.86 903.15 397.38 C 902.07 406.13 895.97 412.98 889.81 418.80 C 887.29 421.27 883.97 423.06 882.41 426.38 C 887.93 426.46 892.15 422.44 895.83 418.83 C 898.64 416.14 900.92 412.93 902.39 409.31 C 902.97 413.71 903.11 418.50 905.69 422.30 C 906.89 424.31 909.37 424.40 911.43 424.77 C 912.81 427.32 914.64 429.59 916.70 431.64 C 912.89 430.72 908.44 428.57 904.75 430.87 C 901.86 433.05 903.35 437.27 905.68 439.28 C 909.62 442.89 914.70 446.13 920.28 445.62 C 916.38 441.67 910.72 439.65 907.81 434.61 C 915.13 435.85 922.35 437.90 929.18 440.81 C 929.36 442.52 929.58 444.23 929.80 445.95 C 921.32 451.20 910.72 452.26 901.19 449.59 C 898.76 448.88 896.51 447.64 894.02 447.19 C 890.07 446.70 886.02 448.25 882.15 446.97 C 874.96 444.61 869.04 438.62 861.11 438.60 C 832.72 438.17 804.39 435.90 775.99 435.55 C 765.01 435.29 753.86 436.39 743.02 434.10 C 736.37 432.96 730.20 429.02 727.07 422.94 C 722.06 415.23 720.61 406.11 718.89 397.28 C 724.74 397.22 730.62 396.37 736.15 394.41 C 744.34 391.80 751.13 386.11 759.32 383.47 C 764.05 381.83 769.14 382.51 774.03 382.84 C 775.64 382.87 777.00 383.83 778.31 384.69 C 793.95 395.61 811.70 403.71 830.51 407.23 C 839.86 409.17 849.41 410.32 858.97 409.84 C 869.23 409.76 879.08 404.40 885.48 396.50 C 889.40 392.33 892.08 387.04 896.55 383.38 Z" />
		<path fill="#f0b58b" opacity="1.00"
			d=" M 918.02 384.58 C 927.07 386.93 935.82 390.44 945.07 391.98 C 946.49 394.55 948.43 397.05 948.66 400.09 C 949.46 404.10 945.18 406.18 943.36 409.16 C 934.92 407.01 926.36 404.80 917.58 405.19 C 917.81 402.55 918.07 399.91 918.36 397.28 C 925.87 398.09 933.15 400.49 940.68 400.97 C 940.72 400.48 940.79 399.50 940.83 399.01 C 934.25 395.10 926.26 393.85 918.69 393.81 C 918.68 390.72 918.46 387.64 918.02 384.58 Z" />
		<path fill="#f0b58b" opacity="1.00"
			d=" M 917.55 408.97 C 925.83 409.76 934.02 411.28 942.23 412.60 C 942.71 415.78 943.93 418.80 944.45 421.98 C 943.93 423.74 943.00 425.34 942.18 426.97 C 933.99 422.98 925.72 418.90 916.92 416.44 C 917.14 413.95 917.34 411.46 917.55 408.97 Z" />
		<path fill="#f0b58b" opacity="1.00"
			d=" M 916.29 420.96 C 923.99 424.35 931.91 427.21 940.02 429.46 C 937.00 432.44 933.74 435.17 930.62 438.05 C 924.70 434.63 919.56 429.90 915.71 424.25 C 915.85 423.43 916.14 421.78 916.29 420.96 Z" />
		<path fill="#f0b58b" opacity="1.00"
			d=" M 368.24 646.18 C 375.74 638.25 383.43 630.49 390.82 622.46 C 409.84 628.22 428.70 634.74 446.72 643.19 C 461.23 649.78 475.28 657.30 489.28 664.91 C 476.34 672.71 464.72 682.48 453.28 692.29 C 438.98 704.61 426.86 719.31 411.97 730.95 C 401.50 739.07 387.74 739.89 375.01 739.63 C 367.60 739.77 360.20 739.55 352.80 739.57 C 358.85 723.84 357.54 706.26 353.63 690.17 C 350.97 679.97 346.86 669.93 340.06 661.76 C 343.45 662.63 347.22 663.40 350.42 661.46 C 357.35 657.66 362.63 651.60 368.24 646.18 Z" />
		<path fill="#f0b58b" opacity="1.00"
			d=" M 725.32 651.34 C 730.58 645.74 736.80 641.20 742.87 636.53 C 745.24 641.83 747.17 647.31 749.31 652.70 C 751.21 657.51 752.48 662.91 756.48 666.51 C 763.01 672.36 770.05 678.29 773.53 686.57 C 777.00 694.90 784.49 700.67 788.12 708.91 C 790.99 715.55 793.49 722.71 792.83 730.06 C 792.38 735.52 790.45 740.85 787.46 745.41 C 780.18 754.32 769.34 759.03 760.75 766.42 C 752.90 766.17 745.45 763.44 738.14 760.83 C 726.01 756.24 714.16 750.75 703.22 743.75 C 699.84 741.61 696.69 739.11 694.08 736.08 C 696.29 734.78 698.51 733.51 700.73 732.23 C 703.04 733.79 705.00 737.71 708.21 736.21 C 708.82 733.33 706.37 731.27 704.68 729.34 C 689.23 713.62 669.66 702.92 650.21 692.98 C 669.24 688.89 687.28 680.84 703.96 670.91 C 712.49 666.07 718.64 658.30 725.32 651.34 Z" />
	</g>
	<g id="#f11b27ff">
		<path fill="var(--shirt-color, grey)" opacity="1.00"
			d=" M 693.02 132.07 C 694.75 129.16 696.65 126.36 698.73 123.69 C 707.40 134.84 721.66 138.53 733.16 145.79 C 739.70 150.04 741.58 158.08 745.91 164.13 C 750.23 170.71 757.27 175.00 761.16 181.91 C 763.81 186.51 766.23 191.64 765.92 197.08 C 765.33 202.21 762.98 206.97 762.58 212.14 C 761.67 218.68 765.17 224.63 766.13 230.94 C 769.00 247.80 769.30 265.03 767.91 282.05 C 766.32 296.75 763.01 311.25 762.38 326.05 C 762.39 336.94 763.48 347.88 766.37 358.41 C 768.32 365.43 769.54 372.76 772.97 379.26 C 768.68 378.65 764.28 377.79 760.00 378.87 C 753.77 380.30 748.29 383.75 742.73 386.75 C 734.97 391.08 726.09 393.34 717.20 393.34 C 720.48 384.75 724.55 376.50 728.09 368.02 C 734.13 353.38 742.90 339.98 747.75 324.84 C 752.46 310.76 755.13 295.93 755.02 281.06 C 754.89 274.36 755.88 267.37 753.47 260.96 C 751.05 264.12 751.58 268.23 751.37 271.95 C 750.94 292.43 748.02 313.15 740.09 332.15 C 737.30 339.08 733.64 345.61 730.23 352.24 C 722.45 367.78 715.99 383.96 708.67 399.72 C 705.17 406.87 698.38 411.41 693.06 417.06 C 687.79 422.66 683.14 428.97 680.16 436.09 C 677.95 441.37 678.63 447.20 678.36 452.78 C 670.35 438.26 660.90 424.42 654.89 408.89 C 652.07 400.87 649.70 392.70 647.11 384.61 C 646.40 382.32 645.23 380.21 643.78 378.32 C 643.21 382.67 644.72 386.87 645.81 391.02 C 647.85 398.39 648.96 406.02 651.63 413.21 C 657.28 428.66 666.66 442.28 674.53 456.61 C 678.79 464.29 675.65 473.38 672.39 480.83 C 666.73 466.59 658.87 453.36 652.78 439.32 C 651.06 435.16 650.04 430.72 647.86 426.76 C 647.15 428.42 646.02 430.11 646.48 432.02 C 649.36 449.87 659.43 465.25 666.28 481.67 C 669.57 488.97 670.11 497.55 667.00 505.01 C 664.45 510.75 660.87 515.94 657.62 521.30 C 647.74 520.52 637.70 520.68 628.02 518.19 C 617.49 516.00 607.26 512.34 597.84 507.15 C 590.42 502.83 584.23 496.82 577.83 491.19 C 567.17 481.96 554.71 474.75 541.19 470.62 C 524.32 465.37 507.04 461.42 489.59 458.70 C 487.31 458.31 484.99 458.42 482.73 458.78 C 484.73 461.37 487.90 462.21 490.96 462.76 C 499.29 464.48 507.65 466.02 515.84 468.31 C 526.85 471.35 538.03 473.97 548.62 478.33 C 559.88 482.98 569.84 490.25 578.77 498.46 C 572.91 495.92 566.86 493.72 560.55 492.63 C 547.49 490.28 534.16 491.28 520.99 491.80 C 512.44 492.13 503.54 491.28 495.90 487.12 C 483.90 480.46 472.07 472.99 462.77 462.74 C 465.60 454.83 469.71 447.46 474.90 440.87 C 483.32 428.14 494.96 417.88 507.74 409.69 C 516.17 404.41 523.63 397.73 530.40 390.47 C 536.03 384.42 540.00 377.09 543.84 369.83 C 551.62 354.96 557.07 339.05 563.52 323.60 C 569.64 308.58 575.60 293.46 583.29 279.16 C 587.52 284.19 589.69 290.87 595.10 294.89 C 600.64 299.12 607.91 299.35 614.28 301.64 C 613.95 303.73 612.98 305.91 613.78 308.02 C 616.88 310.23 620.50 311.70 624.15 312.75 C 626.82 313.49 627.97 310.64 628.85 308.72 C 631.83 306.83 634.75 304.72 636.73 301.74 C 639.55 297.30 645.15 295.26 647.10 290.19 C 649.89 283.35 651.66 276.15 653.23 268.95 C 654.22 265.06 651.23 261.82 648.90 259.11 C 644.32 254.04 639.33 249.35 634.10 244.96 C 630.24 242.15 625.21 243.81 621.00 244.79 C 613.03 247.22 604.62 247.57 596.60 249.84 C 604.88 237.95 610.94 224.37 613.93 210.17 C 623.82 214.17 634.51 215.35 644.73 218.23 C 652.58 220.46 660.51 222.61 667.94 226.04 C 676.05 229.73 683.48 234.95 689.59 241.44 C 692.33 244.29 694.23 247.94 697.64 250.10 C 697.31 244.99 694.06 240.86 690.74 237.26 C 680.49 225.87 666.18 219.28 651.67 215.17 C 639.39 211.02 626.30 209.71 614.28 204.77 C 609.42 202.95 604.94 200.18 599.87 198.92 C 594.98 197.62 589.85 197.61 584.84 198.12 C 584.86 181.04 580.78 164.01 573.19 148.72 C 570.11 142.51 566.07 136.85 562.26 131.07 C 567.47 130.35 572.74 130.05 578.00 130.20 C 585.29 130.35 592.06 133.44 599.24 134.36 C 609.72 136.05 620.37 135.32 630.91 134.66 C 644.19 133.75 657.50 134.69 670.77 135.27 C 678.56 135.98 686.58 135.52 694.11 137.99 C 701.35 140.30 708.28 143.91 713.90 149.09 C 723.86 158.73 732.29 169.77 740.56 180.84 C 741.21 179.61 742.07 178.18 741.17 176.82 C 735.95 166.54 728.51 157.59 720.86 149.03 C 713.66 140.58 703.61 135.06 693.02 132.07 Z" />
	</g>
	<g id="#2b3dcdff">
		<path fill="var(--pants-color, grey)" opacity="1.00"
			d=" M 464.07 470.03 C 472.98 478.80 483.73 485.38 494.63 491.36 C 503.03 495.65 512.67 496.72 521.98 496.40 C 532.69 496.01 543.45 495.31 554.15 496.31 C 569.24 497.66 583.38 504.04 596.20 511.80 C 611.67 520.41 629.22 525.70 647.02 525.54 C 651.49 525.54 655.97 525.47 660.45 525.45 C 662.85 534.12 663.83 543.08 664.42 552.03 C 664.41 556.59 669.04 558.60 672.42 560.51 C 679.78 564.17 687.10 568.13 693.17 573.77 C 705.97 585.10 713.25 600.94 724.08 613.91 C 729.70 620.49 737.50 624.58 743.92 630.29 C 735.13 635.37 726.76 641.33 719.79 648.76 C 714.05 654.72 708.82 661.38 701.63 665.69 C 688.61 673.77 674.58 680.24 660.01 684.95 C 650.89 687.34 640.97 688.67 633.53 695.00 C 628.19 690.85 623.37 686.06 617.76 682.28 C 610.50 677.29 602.67 673.24 594.96 669.03 C 590.42 666.49 585.72 663.49 583.47 658.59 C 579.41 650.33 574.51 642.45 568.50 635.45 C 565.27 631.81 562.45 627.75 558.59 624.72 C 546.26 643.33 529.69 658.53 514.45 674.68 C 474.79 647.99 431.19 626.41 384.55 615.18 C 391.10 608.86 397.97 602.81 403.64 595.66 C 408.81 589.07 414.30 582.59 418.04 575.04 C 420.00 571.09 421.63 566.92 424.40 563.43 C 430.41 555.83 438.52 550.28 444.84 542.96 C 447.88 539.34 451.69 536.13 453.40 531.61 C 454.95 526.20 453.66 520.55 453.25 515.08 C 452.48 505.76 452.22 496.12 455.23 487.15 C 457.07 480.93 460.64 475.46 464.07 470.03 Z" />
		<path fill="var(--socks-color, grey)" opacity="1.00"
			d=" M 274.65 667.58 C 285.65 662.99 296.99 658.34 309.04 657.77 C 315.42 657.52 321.81 658.14 328.11 659.11 C 332.18 659.44 334.56 663.19 337.02 665.98 C 345.63 677.32 349.59 691.52 351.31 705.47 C 352.62 716.94 351.94 728.73 348.28 739.74 C 340.15 739.98 332.09 740.99 324.01 741.82 C 285.35 744.88 248.13 756.53 211.34 768.09 C 182.21 777.34 153.15 787.81 126.72 803.37 C 125.00 801.10 123.16 798.19 119.96 798.15 C 114.74 797.54 111.26 802.81 106.24 802.90 C 104.40 799.22 104.48 794.97 104.45 790.97 C 104.78 781.99 106.50 773.13 108.26 764.35 C 109.90 757.33 111.01 749.99 114.57 743.62 C 116.59 739.59 121.04 738.07 125.21 737.48 C 132.16 736.50 139.28 734.10 143.82 728.42 C 156.58 727.10 169.35 724.54 180.98 718.96 C 198.63 710.34 215.88 700.88 232.55 690.50 C 245.94 681.75 259.87 673.74 274.65 667.58 Z" />
		<path fill="var(--socks-color, grey)" opacity="1.00"
			d=" M 647.93 780.01 C 658.23 762.91 673.92 749.98 689.99 738.54 C 697.57 747.97 708.72 753.45 719.31 758.80 C 731.15 764.36 743.57 769.27 756.68 770.65 C 753.39 775.77 751.09 781.50 747.27 786.27 C 740.57 794.85 732.64 802.35 724.54 809.59 C 715.09 818.17 705.24 826.31 695.25 834.25 C 685.38 841.61 676.38 850.02 667.48 858.50 C 655.21 870.06 645.18 883.83 637.16 898.62 C 633.48 898.65 629.38 898.81 626.66 901.66 C 622.38 905.43 623.11 911.73 620.48 916.39 C 618.18 919.64 614.20 922.58 610.00 921.54 C 601.69 919.76 594.19 914.58 589.20 907.75 C 586.03 903.50 586.92 897.95 587.73 893.09 C 588.65 887.88 589.05 882.57 588.54 877.29 C 592.89 874.40 597.29 871.58 601.49 868.47 C 610.16 861.89 616.84 852.83 620.76 842.68 C 628.33 821.21 636.45 799.75 647.93 780.01 Z" />
	</g>
	<g id="#4d4d4dff">
		<path fill="#4d4d4d" opacity="1.00"
			d=" M 82.86 723.91 C 85.23 719.08 90.86 716.99 95.96 716.90 C 103.06 716.81 110.07 718.39 116.89 720.26 C 124.48 722.36 131.46 726.20 139.15 727.99 C 135.64 729.99 131.98 731.86 127.97 732.60 C 123.13 733.76 117.60 734.11 113.85 737.79 C 109.69 741.91 107.84 747.67 106.30 753.17 C 103.60 763.68 101.59 774.39 100.54 785.19 C 100.13 790.86 99.97 796.74 101.76 802.22 C 102.49 804.51 104.41 806.69 106.98 806.70 C 111.46 806.57 114.75 802.84 119.04 802.03 C 121.07 801.84 122.28 803.86 123.73 804.93 C 109.91 813.75 94.23 820.62 83.59 833.55 C 77.10 840.92 72.15 849.51 68.47 858.59 C 66.42 863.00 64.95 867.89 61.56 871.51 C 59.49 873.73 55.57 873.89 53.72 871.31 C 50.28 866.64 49.10 860.65 49.09 854.95 C 49.21 846.33 50.69 837.71 53.70 829.63 C 57.00 819.71 62.49 810.67 65.34 800.60 C 68.76 790.18 69.47 779.20 70.67 768.38 C 72.67 753.13 75.55 737.62 82.86 723.91 Z" />
		<path fill="#4d4d4d" opacity="1.00"
			d=" M 555.82 914.96 C 558.05 898.77 569.65 885.14 583.95 877.89 C 584.46 887.72 579.31 897.66 582.91 907.27 C 586.56 915.16 593.86 920.88 601.63 924.44 C 606.18 926.35 611.46 928.15 616.32 926.24 C 621.20 924.16 625.55 920.12 626.89 914.85 C 627.87 911.89 628.15 908.61 629.94 905.99 C 631.71 903.60 635.05 904.35 637.61 904.02 C 636.55 907.40 634.93 910.60 634.08 914.05 C 634.14 915.57 635.05 916.87 635.79 918.16 C 643.43 929.25 648.50 942.19 658.15 951.84 C 661.87 955.59 667.33 956.14 672.29 956.90 C 680.44 958.31 688.94 960.13 695.58 965.40 C 699.12 968.35 702.13 972.42 702.53 977.15 C 699.33 981.06 693.68 981.22 689.04 981.67 C 675.28 981.94 661.50 980.67 647.93 978.46 C 636.52 976.73 625.30 972.84 616.01 965.87 C 602.78 955.97 588.95 946.48 573.38 940.65 C 568.18 938.50 561.76 937.60 558.29 932.72 C 555.49 927.31 555.38 920.90 555.82 914.96 Z" />
	</g>
</svg>