<?xml version="1.0" encoding="UTF-8" ?>
<!DOCTYPE svg PUBLIC "-//W3C//DTD SVG 1.1//EN" "http://www.w3.org/Graphics/SVG/1.1/DTD/svg11.dtd">
<svg width="1000pt" height="1000pt" viewBox="0 0 1000 1000" version="1.1" xmlns="http://www.w3.org/2000/svg">
	<g id="#020202ff">
		<path fill="#020202" opacity="1.00"
			d=" M 620.12 12.20 C 635.80 6.48 653.79 6.97 668.90 14.20 C 675.70 17.56 682.33 22.30 685.62 29.37 C 689.97 38.95 692.02 49.77 690.17 60.22 C 689.30 64.09 689.99 68.00 691.22 71.70 C 689.98 71.82 688.74 71.94 687.52 72.06 C 687.42 76.57 687.16 81.16 685.60 85.43 C 684.22 89.54 681.70 93.48 682.16 98.00 C 682.60 104.96 683.12 112.05 681.42 118.91 C 679.75 127.61 674.70 135.04 670.70 142.79 C 675.17 143.99 679.72 144.78 684.27 145.65 C 691.92 147.06 698.35 151.89 703.89 157.10 C 709.41 162.41 715.48 167.36 722.61 170.32 C 727.75 172.69 733.59 174.09 737.72 178.20 C 742.01 182.34 743.94 188.28 744.58 194.08 C 745.65 202.90 749.29 211.08 751.57 219.60 C 754.89 231.16 755.73 243.21 757.22 255.10 C 758.77 265.34 760.69 275.53 761.71 285.85 C 762.67 293.86 762.70 302.01 764.68 309.88 C 765.59 313.70 767.65 317.12 768.72 320.90 C 766.70 321.65 764.70 322.41 762.70 323.18 C 762.79 329.63 766.10 335.28 767.88 341.32 C 773.52 359.60 775.96 378.92 774.45 398.02 C 773.83 408.40 772.59 418.74 770.50 428.94 C 768.66 437.79 767.24 446.78 764.31 455.37 C 762.80 459.50 765.23 463.52 766.84 467.20 C 769.21 472.65 772.38 477.93 773.03 483.95 C 774.19 493.63 775.02 503.35 776.19 513.03 C 776.48 516.44 777.08 520.25 775.15 523.32 C 772.09 528.11 767.21 531.52 764.64 536.66 C 763.31 539.15 762.52 541.88 761.20 544.37 C 758.38 546.29 756.58 542.51 755.58 540.45 C 750.48 540.69 749.80 534.94 749.39 531.11 C 748.52 518.93 751.41 506.65 749.25 494.53 C 748.67 490.26 745.27 486.21 740.93 485.59 C 739.42 485.14 738.69 486.96 738.33 488.07 C 736.38 496.59 739.30 506.01 734.98 514.02 C 733.13 517.65 727.61 517.87 725.19 514.72 C 718.91 507.76 719.47 497.73 719.86 489.00 C 720.48 482.42 718.02 475.73 720.10 469.28 C 722.19 462.63 725.58 456.38 730.16 451.11 C 731.45 449.33 733.60 447.42 732.67 444.99 C 731.38 440.03 729.46 435.26 727.46 430.56 C 723.31 421.57 720.85 411.88 719.45 402.10 C 717.88 391.11 719.17 380.02 719.62 369.01 C 720.87 355.56 716.50 341.59 707.77 331.29 C 706.13 329.20 705.86 326.47 705.11 324.02 C 701.68 311.67 697.33 299.51 691.07 288.29 C 681.73 304.42 673.65 321.39 668.21 339.24 C 666.41 345.07 664.33 350.81 662.47 356.63 C 660.53 362.46 658.34 368.43 654.10 373.04 C 648.56 379.27 642.98 385.61 639.08 393.05 C 633.85 403.05 629.46 413.77 628.42 425.10 C 627.55 433.90 633.77 441.29 633.92 449.98 C 634.65 457.26 629.93 463.33 628.01 470.01 C 626.62 474.32 629.51 478.25 630.50 482.30 C 631.81 488.04 631.98 494.14 630.47 499.87 C 628.19 508.92 624.95 517.79 623.86 527.10 C 624.32 532.69 629.16 536.54 631.74 541.23 C 639.83 554.87 650.82 566.48 659.11 579.98 C 664.67 588.61 669.34 597.84 672.67 607.56 C 674.99 614.42 675.29 622.01 672.96 628.91 C 666.37 648.35 653.96 664.94 642.79 681.92 C 634.07 694.75 625.14 707.45 616.03 720.02 C 605.68 733.91 596.97 748.90 587.48 763.38 C 580.19 775.34 571.97 786.91 567.09 800.14 C 560.25 818.29 552.13 835.93 544.81 853.89 C 542.98 858.57 540.22 862.89 538.85 867.75 C 537.85 873.39 538.12 879.18 538.63 884.86 C 540.20 899.05 542.09 913.40 547.13 926.84 C 550.41 934.53 554.95 941.58 559.21 948.74 C 561.19 952.22 563.23 955.84 563.75 959.89 C 565.86 971.13 556.95 982.65 545.87 984.47 C 537.01 986.74 527.96 983.37 520.62 978.51 C 520.44 980.97 520.77 983.88 518.89 985.83 C 516.31 988.42 512.56 989.26 509.09 989.89 C 499.13 991.44 489.00 990.71 478.98 990.18 C 469.95 989.62 460.71 988.02 452.92 983.14 C 441.04 976.00 434.13 963.47 426.78 952.19 C 421.25 943.31 412.60 937.14 405.62 929.53 C 400.19 923.42 396.70 915.31 397.42 907.03 C 397.47 895.42 405.45 886.31 410.66 876.60 C 413.08 871.88 416.87 868.08 419.39 863.44 C 426.33 850.56 431.12 836.68 435.96 822.92 C 441.30 806.68 447.38 790.70 452.51 774.40 C 455.69 764.29 459.13 754.22 463.77 744.68 C 466.40 739.67 469.46 734.58 474.24 731.33 C 476.23 729.78 478.88 728.52 479.58 725.88 C 481.12 720.39 481.12 714.65 481.56 709.01 C 482.65 693.28 482.98 677.33 487.00 661.98 C 483.86 661.37 480.46 661.05 477.80 659.12 C 475.70 656.98 475.23 653.80 474.81 650.97 C 473.51 628.05 480.01 605.70 481.20 582.93 C 481.74 577.65 479.25 572.82 476.48 568.54 C 469.94 558.44 463.20 548.46 456.77 538.27 C 447.36 522.53 440.76 505.20 436.38 487.42 C 433.65 476.83 432.74 465.81 433.27 454.91 C 433.88 448.29 434.07 441.53 436.19 435.17 C 437.76 431.01 436.97 426.27 439.27 422.33 C 443.89 414.23 442.38 404.17 447.08 396.08 C 449.58 392.21 449.09 387.29 451.33 383.31 C 454.63 376.86 460.99 372.98 465.85 367.89 C 470.97 360.28 470.65 350.64 472.11 341.91 C 475.77 318.63 476.36 294.91 474.26 271.45 C 473.17 263.93 472.51 256.36 472.12 248.78 C 460.96 249.34 450.43 253.40 439.89 256.74 C 435.10 258.23 430.10 259.80 425.02 259.14 C 418.71 258.25 412.36 257.41 405.98 257.63 C 399.60 257.78 393.23 256.63 386.86 257.18 C 383.08 257.43 380.65 260.69 378.73 263.59 C 373.91 270.97 370.84 279.29 367.46 287.37 C 360.75 304.95 354.37 322.66 347.05 340.00 C 343.22 349.29 338.97 358.45 335.87 368.03 C 332.02 380.19 328.82 392.65 323.01 404.08 C 319.95 409.96 317.81 416.23 315.49 422.42 C 313.47 427.84 310.02 433.26 304.36 435.39 C 295.36 438.93 285.87 441.16 276.30 442.45 C 271.47 444.23 266.30 446.69 261.10 444.68 C 256.57 446.73 251.64 449.98 246.48 448.35 C 243.85 447.18 244.74 444.00 244.84 441.75 C 242.94 441.29 240.34 441.36 239.58 439.12 C 238.98 436.49 240.80 434.21 242.11 432.13 C 247.20 424.99 253.14 418.33 260.37 413.31 C 264.92 409.90 270.37 407.43 273.72 402.65 C 281.02 392.74 285.73 380.37 296.22 373.20 C 298.97 371.04 302.50 370.53 305.90 370.73 C 310.28 357.63 310.97 343.73 312.54 330.11 C 315.05 307.37 317.11 284.51 321.81 262.10 C 323.81 252.67 326.63 243.19 332.08 235.13 C 336.28 229.10 340.34 222.74 346.28 218.23 C 351.10 214.09 357.36 212.43 363.19 210.23 C 368.92 208.23 374.27 205.33 379.70 202.64 C 389.63 197.83 398.45 190.59 409.18 187.54 C 416.43 186.96 423.88 187.45 430.93 185.25 C 444.84 181.06 458.01 174.71 470.77 167.82 C 477.27 164.41 483.81 160.73 491.11 159.34 C 501.31 157.37 511.75 157.90 522.06 157.97 C 525.07 157.63 527.31 155.37 529.74 153.78 C 541.91 145.36 556.32 141.26 569.35 134.46 C 575.13 132.08 580.14 128.07 584.17 123.34 C 586.38 118.67 588.72 112.99 587.16 107.88 C 576.15 90.32 574.41 67.50 582.40 48.41 C 589.10 31.73 603.21 18.26 620.12 12.20 M 617.45 48.63 C 617.95 55.29 621.20 61.26 622.68 67.68 C 618.26 65.62 615.43 61.60 612.23 58.14 C 615.55 63.67 619.32 69.45 618.73 76.24 C 630.10 75.14 641.37 77.77 652.26 80.76 C 654.12 81.38 656.51 81.91 657.25 84.01 C 657.46 87.47 653.72 89.24 650.95 90.19 C 643.56 92.83 635.86 90.14 628.66 88.20 C 624.00 86.85 618.43 86.21 614.32 89.30 C 611.07 91.66 607.11 95.05 608.65 99.59 C 610.62 106.14 609.97 113.40 606.03 119.11 C 605.71 119.85 603.89 121.79 603.59 119.99 C 603.35 115.30 604.24 110.58 603.65 105.89 C 603.60 101.24 600.90 96.72 602.44 92.08 C 603.43 88.63 604.63 84.96 603.46 81.38 C 602.50 78.48 601.05 75.11 597.96 73.99 C 593.51 73.44 590.66 78.11 590.44 82.03 C 589.98 90.55 594.29 98.47 594.24 106.98 C 594.15 109.50 594.20 112.60 591.73 114.06 C 591.09 118.85 589.94 123.68 587.18 127.72 C 588.78 133.33 589.51 139.11 590.13 144.89 C 591.48 152.24 593.81 159.42 597.07 166.14 C 601.49 175.31 606.27 184.38 612.47 192.50 C 616.95 198.42 621.56 204.33 624.78 211.07 C 638.74 196.95 648.88 179.71 658.71 162.61 C 653.95 166.36 647.64 167.28 641.86 165.73 C 629.36 163.51 619.60 154.53 611.86 145.03 C 609.42 141.81 605.95 138.50 606.49 134.09 C 610.38 137.74 613.35 142.23 617.13 145.98 C 624.16 153.20 632.39 160.13 642.53 162.21 C 646.81 163.20 651.80 163.41 655.35 160.36 C 660.44 155.73 663.25 149.21 665.60 142.87 C 668.95 134.35 675.18 127.07 677.02 117.94 C 679.01 110.64 678.27 103.05 678.11 95.59 C 674.27 94.94 669.88 92.24 666.25 94.71 C 668.89 100.30 670.91 106.84 668.07 112.79 C 667.05 107.06 665.67 101.38 665.03 95.59 L 665.14 94.88 C 665.49 94.25 665.91 93.66 666.38 93.10 C 664.79 90.51 666.63 87.39 668.26 85.29 C 671.98 81.42 677.92 82.16 682.79 82.39 C 683.58 78.16 683.99 73.87 683.95 69.56 C 680.35 65.15 678.76 59.63 676.26 54.63 C 675.42 53.21 673.54 50.73 671.76 52.26 C 671.37 57.63 673.66 62.68 674.57 67.88 C 665.76 63.94 659.38 56.45 653.40 49.16 C 653.16 49.20 652.68 49.29 652.43 49.34 C 651.74 56.08 655.45 64.07 650.57 69.85 C 648.67 63.21 646.68 56.09 641.69 51.07 C 640.51 49.47 639.15 51.34 638.73 52.46 C 637.04 56.10 636.83 60.17 636.69 64.11 C 636.81 65.68 636.16 67.10 635.14 68.26 C 632.11 59.71 626.15 51.90 617.45 48.63 M 570.96 138.99 C 557.68 146.72 542.56 151.01 530.05 160.11 C 526.90 162.49 522.95 163.47 519.04 163.20 C 510.38 162.65 501.65 162.87 493.06 164.12 C 485.38 165.27 478.67 169.37 471.91 172.90 C 458.95 179.87 445.55 186.26 431.32 190.19 C 425.05 191.92 418.50 191.96 412.06 191.90 C 407.90 202.05 407.99 213.36 409.56 224.06 C 411.41 235.32 415.03 247.14 423.83 254.97 C 436.86 254.17 448.56 247.69 461.26 245.25 C 468.61 243.55 476.64 243.01 483.64 246.34 C 489.25 248.64 493.87 252.74 497.81 257.27 C 503.16 263.25 509.06 268.68 514.62 274.46 C 515.79 275.53 516.20 277.07 516.59 278.55 C 514.17 277.77 511.91 276.57 509.97 274.94 C 504.29 270.29 498.93 265.25 493.85 259.96 C 497.49 266.62 500.27 273.71 503.52 280.57 C 511.06 296.52 518.55 312.50 527.07 327.96 C 528.19 329.72 529.88 334.57 526.06 333.14 C 523.73 331.34 522.34 328.67 520.78 326.25 C 510.56 308.91 501.23 291.00 493.82 272.26 C 490.76 264.57 487.06 256.80 480.69 251.27 C 479.19 249.89 477.14 249.49 475.30 248.84 C 478.61 266.02 480.90 283.48 480.57 301.02 C 480.77 321.55 477.39 341.88 474.38 362.12 C 478.21 376.27 488.19 387.58 494.52 400.54 C 492.28 400.81 490.33 399.74 489.09 397.94 C 481.94 388.82 475.08 379.05 472.24 367.64 C 468.71 374.46 461.11 377.59 456.83 383.82 C 454.38 387.04 453.97 391.17 453.11 394.99 C 460.81 397.69 467.75 402.02 474.68 406.25 C 489.93 415.55 507.24 420.50 524.18 425.73 C 532.89 428.38 541.60 431.63 549.04 437.00 C 552.18 439.16 553.83 442.82 556.95 445.00 C 566.82 452.02 575.18 460.87 583.14 469.93 C 588.95 476.10 595.27 481.78 601.54 487.48 C 608.40 494.04 618.54 493.31 627.23 495.08 C 627.13 489.91 627.13 484.58 625.17 479.71 C 623.98 476.84 623.31 473.81 623.07 470.72 C 610.41 464.09 597.94 457.02 586.46 448.48 C 581.28 444.51 575.54 441.05 571.29 436.03 C 571.89 433.20 574.60 435.10 576.02 435.99 C 584.74 441.98 593.33 448.17 602.33 453.73 C 609.51 458.26 617.21 461.85 624.51 466.15 C 626.24 462.15 628.31 458.25 629.26 453.97 C 630.01 450.62 629.02 447.25 628.35 443.99 C 607.26 434.98 589.05 420.11 574.21 402.78 C 571.89 399.71 568.57 396.86 568.50 392.72 C 573.34 395.70 576.67 400.41 580.72 404.28 C 593.85 417.66 608.68 429.75 625.81 437.63 C 624.02 432.38 623.26 426.74 624.30 421.25 C 626.91 406.67 632.83 392.62 641.70 380.75 C 640.65 376.23 639.83 371.64 639.77 366.99 C 639.19 345.84 640.09 324.47 644.88 303.79 C 645.67 300.66 646.34 297.43 647.92 294.58 C 648.38 294.66 649.32 294.80 649.79 294.88 C 649.86 297.98 649.17 301.03 648.61 304.06 C 645.72 319.53 644.60 335.30 644.77 351.02 C 644.91 359.35 644.54 367.71 645.59 375.99 C 649.46 371.65 653.80 367.44 655.89 361.87 C 661.73 346.98 665.19 331.24 671.60 316.56 C 677.95 301.85 685.40 287.58 694.30 274.24 C 698.47 267.88 703.82 262.42 708.70 256.62 C 714.37 250.05 719.22 242.66 722.50 234.61 C 723.45 232.92 722.96 229.94 725.04 229.23 C 727.78 230.10 726.69 233.49 726.20 235.52 C 723.45 243.31 719.21 250.56 714.04 256.98 C 707.01 265.54 699.37 273.68 693.94 283.41 C 702.72 296.75 707.50 312.37 710.19 327.99 C 719.46 330.06 729.31 331.53 738.54 328.44 C 747.36 326.03 754.10 319.09 763.05 317.01 C 760.00 310.78 758.64 303.91 758.03 297.05 C 757.02 286.05 755.69 275.09 753.76 264.21 C 751.41 251.48 751.01 238.45 748.20 225.79 C 746.37 217.37 742.97 209.39 741.11 200.99 C 739.74 195.21 740.27 188.64 736.29 183.80 C 732.61 178.91 726.45 177.34 721.16 174.88 C 713.99 171.92 707.70 167.20 702.12 161.88 C 698.14 158.11 694.02 154.33 689.04 151.94 C 683.35 149.28 676.82 149.62 671.07 147.13 C 666.43 157.80 660.92 168.08 655.17 178.18 C 648.55 188.99 641.94 199.98 633.18 209.23 C 630.36 212.00 627.38 215.17 623.25 215.68 C 618.42 204.88 609.18 196.94 603.14 186.87 C 595.37 174.07 588.17 160.46 585.69 145.53 C 585.03 140.13 584.50 134.71 583.13 129.43 C 579.98 133.65 575.72 136.82 570.96 138.99 M 394.70 199.71 C 387.67 204.26 380.10 207.89 372.61 211.60 C 366.59 214.60 359.98 216.14 353.90 218.99 C 347.45 222.21 342.85 228.02 339.10 234.01 C 334.49 240.61 330.72 247.86 328.76 255.70 C 321.34 284.58 319.47 314.44 315.86 343.93 C 314.65 353.08 313.54 362.32 310.47 371.07 C 309.21 374.18 309.98 378.50 306.99 380.65 C 305.05 378.96 305.51 376.18 305.11 373.92 C 300.74 374.38 297.03 376.94 294.02 380.00 C 287.17 387.11 283.04 396.23 277.26 404.14 C 278.06 404.31 279.65 404.67 280.45 404.84 C 279.35 406.83 277.65 408.36 275.98 409.85 C 275.53 409.41 274.64 408.52 274.19 408.08 C 268.31 412.97 261.37 416.48 255.89 421.87 C 250.99 426.74 246.31 431.95 242.90 438.00 C 247.60 437.01 251.54 434.17 255.21 431.23 C 261.97 425.86 269.19 421.11 276.46 416.46 C 278.25 415.22 280.37 414.66 282.53 414.52 C 282.01 415.87 281.42 417.29 280.14 418.11 C 270.15 425.84 259.79 433.12 249.55 440.48 C 248.43 441.91 248.16 443.77 247.60 445.46 C 249.91 445.06 252.27 444.64 254.38 443.56 C 263.20 439.31 270.58 432.70 279.27 428.22 C 284.29 425.76 288.61 421.78 294.15 420.48 C 293.39 421.59 292.53 422.60 291.55 423.52 C 282.96 430.28 273.56 435.93 264.81 442.48 C 275.69 439.58 284.28 431.80 294.54 427.49 C 295.83 427.09 298.97 425.11 298.80 427.97 C 295.80 431.11 291.87 433.09 288.41 435.66 C 294.07 433.48 300.05 432.11 305.53 429.51 C 310.42 427.29 311.11 421.44 312.90 417.01 C 315.72 407.91 320.57 399.65 323.80 390.71 C 328.24 379.18 330.73 366.99 335.52 355.59 C 341.69 340.33 348.34 325.25 353.93 309.76 C 359.53 295.13 363.99 280.01 370.96 265.93 C 373.59 261.21 376.32 255.98 381.25 253.31 C 386.13 250.90 391.74 251.89 396.96 252.23 C 402.90 253.04 408.91 252.66 414.86 253.34 C 409.27 245.56 406.24 236.24 404.67 226.86 C 402.83 215.46 403.06 203.33 407.69 192.58 C 403.31 194.86 398.85 197.02 394.70 199.71 M 749.60 330.61 C 739.66 336.11 727.60 337.85 716.59 334.86 C 721.76 344.31 725.25 355.04 724.48 365.92 C 723.87 374.59 723.37 383.27 723.25 391.96 C 723.61 402.21 725.64 412.37 728.74 422.13 C 731.70 430.64 736.02 438.93 736.57 448.08 C 736.96 452.82 732.25 455.41 729.83 458.83 C 725.93 464.42 722.45 471.07 723.43 478.11 C 724.14 483.37 724.08 488.68 723.87 493.98 C 723.90 500.71 724.49 508.53 730.10 513.15 C 734.03 507.56 732.95 500.39 733.21 493.96 C 733.40 489.73 733.61 484.16 737.92 481.95 C 743.77 479.51 749.89 484.53 752.14 489.73 C 756.98 504.42 750.47 520.00 754.00 534.84 C 757.65 525.93 758.82 516.28 761.51 507.08 C 763.16 501.73 763.46 496.01 765.77 490.88 C 768.18 497.47 765.77 504.48 764.73 511.10 C 762.80 519.62 761.84 528.47 758.21 536.49 C 758.69 537.60 759.18 538.72 759.67 539.85 C 760.78 536.19 762.04 532.49 764.43 529.46 C 766.67 526.26 769.72 523.60 771.40 520.03 C 771.71 512.63 769.87 505.30 769.49 497.91 C 768.43 490.43 769.49 482.37 765.53 475.59 C 762.84 468.91 757.39 461.85 760.47 454.39 C 762.59 448.06 763.22 441.37 764.47 434.85 C 767.70 418.09 770.03 401.09 769.83 383.99 C 769.45 371.73 767.40 359.56 764.22 347.73 C 762.48 340.26 759.27 333.21 757.99 325.62 C 755.20 327.30 752.45 329.05 749.60 330.61 M 450.64 398.94 C 447.31 406.92 447.96 416.06 443.74 423.70 C 442.49 426.07 441.96 428.72 441.39 431.32 C 449.36 433.78 457.67 434.68 465.92 435.70 C 491.36 438.73 517.18 433.01 542.48 437.92 C 537.53 435.45 532.47 433.17 527.17 431.57 C 509.95 426.12 492.26 421.43 476.41 412.52 C 467.98 407.71 459.99 401.89 450.64 398.94 M 437.96 456.03 C 437.39 477.18 443.79 497.75 451.88 517.05 C 458.14 532.24 467.86 545.56 476.61 559.35 C 479.60 564.16 482.88 568.87 484.86 574.21 C 486.86 579.57 485.82 585.38 485.30 590.91 C 483.09 612.12 477.61 633.29 479.85 654.72 C 489.43 657.81 499.87 657.79 509.62 655.50 C 519.97 653.23 529.37 647.42 540.08 646.65 C 548.31 646.09 556.87 647.11 564.24 651.01 C 570.13 645.36 576.20 639.90 582.56 634.79 C 572.58 623.68 560.08 615.29 547.17 608.00 C 550.01 603.33 554.62 600.24 558.68 596.75 C 566.75 589.84 575.03 583.12 582.23 575.27 C 595.66 561.12 615.26 554.52 634.41 553.66 C 630.72 548.30 627.46 542.67 623.68 537.39 C 621.15 533.83 618.71 529.62 619.63 525.08 C 621.13 516.50 623.67 508.15 626.28 499.86 C 617.61 498.60 607.83 499.19 600.56 493.51 C 595.51 489.60 591.15 484.89 586.52 480.51 C 578.40 472.93 571.62 464.04 563.28 456.69 C 556.13 450.03 547.76 444.08 537.92 442.41 C 526.73 440.63 515.32 441.08 504.03 441.19 C 482.48 442.04 460.33 442.15 439.60 435.46 C 438.55 442.27 438.28 449.16 437.96 456.03 M 603.73 565.78 C 597.64 569.06 591.92 573.12 587.04 578.04 C 576.93 588.83 565.58 598.50 553.18 606.57 C 566.05 612.30 577.75 620.80 586.90 631.54 C 591.45 628.49 595.78 624.77 601.13 623.22 C 604.19 624.60 600.87 626.41 599.50 627.49 C 585.98 637.05 573.79 648.39 562.56 660.54 C 565.86 664.81 569.82 668.51 574.02 671.89 C 586.67 681.98 600.72 690.61 616.04 695.98 C 619.31 696.87 622.90 698.37 626.27 697.38 C 631.26 690.35 636.86 683.71 641.25 676.26 C 651.38 660.41 662.53 644.86 668.57 626.86 C 671.37 618.75 668.87 610.10 665.47 602.59 C 658.57 585.88 647.58 571.38 636.78 557.05 C 625.52 558.79 614.00 560.56 603.73 565.78 M 533.44 653.58 C 526.16 655.55 519.51 659.36 512.10 660.93 C 504.96 662.81 497.52 662.86 490.21 662.29 C 486.80 680.38 486.98 698.83 485.62 717.13 C 485.18 722.83 484.31 729.11 479.60 732.99 C 481.87 735.84 484.45 738.44 487.44 740.55 C 496.46 747.02 506.74 752.30 517.90 753.63 C 524.07 736.48 525.80 718.12 531.99 700.97 C 537.85 683.26 548.61 667.54 561.32 654.04 C 552.25 651.77 542.51 650.77 533.44 653.58 M 541.76 690.73 C 534.30 706.01 531.03 722.80 527.22 739.24 C 524.30 751.13 519.92 762.62 514.72 773.68 C 508.12 787.19 500.31 800.06 493.17 813.28 C 490.28 818.94 487.92 824.91 484.00 829.98 C 482.67 838.53 483.62 847.29 484.64 855.85 C 486.08 863.99 488.56 873.17 496.01 877.87 C 499.34 879.87 502.89 882.59 507.01 882.12 C 513.61 880.59 514.45 871.58 521.01 869.99 C 525.19 869.15 529.33 870.75 533.34 871.74 C 533.72 864.43 537.98 858.26 540.47 851.58 C 547.68 833.18 555.76 815.15 562.71 796.64 C 566.99 785.06 574.09 774.87 580.39 764.35 C 587.59 752.95 594.87 741.59 602.30 730.34 C 608.44 721.10 615.51 712.53 621.97 703.51 C 610.72 702.07 600.54 696.67 590.83 691.15 C 579.03 683.99 567.19 676.03 559.00 664.70 C 552.36 672.74 546.25 681.29 541.76 690.73 M 466.23 749.27 C 459.07 765.27 454.75 782.32 448.75 798.75 C 441.96 817.28 436.22 836.21 428.37 854.34 C 425.57 860.37 423.02 866.64 418.79 871.85 C 417.47 873.74 415.36 875.46 415.54 878.00 C 415.53 885.85 418.95 893.87 425.19 898.77 C 429.06 901.84 433.76 903.56 438.05 905.93 C 443.08 908.68 448.12 911.43 453.09 914.29 C 452.98 907.37 453.65 898.17 461.29 895.38 C 456.53 891.26 451.94 886.95 447.14 882.89 C 441.45 877.95 438.85 869.55 441.59 862.41 C 446.41 850.03 456.65 840.92 466.99 833.09 C 472.03 829.50 477.05 825.78 482.76 823.34 C 493.37 801.56 507.44 781.51 516.08 758.78 C 511.48 758.30 506.94 757.23 502.70 755.38 C 492.36 750.87 482.09 744.60 476.09 734.74 C 471.63 738.67 468.61 743.89 466.23 749.27 M 447.54 861.57 C 444.36 866.83 445.23 874.03 449.67 878.30 C 458.29 886.31 468.14 893.16 475.41 902.53 C 480.47 908.97 483.14 916.84 485.42 924.60 C 487.18 930.60 488.44 936.88 491.75 942.29 C 496.03 949.72 502.45 955.52 508.26 961.72 C 513.76 967.29 519.62 972.70 526.51 976.52 C 532.30 979.87 539.30 981.90 545.90 979.79 C 556.00 977.54 562.25 965.00 557.40 955.72 C 552.27 945.59 545.14 936.47 541.35 925.68 C 535.87 909.89 533.63 893.15 532.72 876.52 C 529.18 875.94 525.63 874.67 522.02 875.03 C 518.91 876.83 517.53 880.51 514.92 882.90 C 511.61 886.52 506.21 888.19 501.53 886.40 C 494.43 883.63 487.60 878.86 484.48 871.65 C 478.56 858.71 478.36 843.87 480.14 829.99 C 467.93 838.89 454.88 847.97 447.54 861.57 M 401.99 907.98 C 401.66 914.60 404.79 920.97 409.27 925.69 C 415.82 932.13 423.19 937.84 428.80 945.18 C 436.13 955.44 441.35 967.58 451.46 975.59 C 459.21 981.79 469.21 984.10 478.94 984.62 C 488.58 985.19 498.31 985.69 507.94 984.55 C 510.37 984.09 513.10 983.82 514.99 982.05 C 515.28 979.47 514.98 976.88 514.81 974.32 C 511.18 971.23 507.63 968.04 504.31 964.62 C 496.75 956.97 488.66 949.19 484.88 938.85 C 481.78 930.05 480.15 920.68 475.63 912.43 C 473.24 907.76 469.71 903.85 466.18 900.03 C 464.03 900.72 460.96 900.46 459.99 902.99 C 457.57 907.86 458.82 913.51 457.47 918.64 C 456.92 920.62 454.48 921.22 452.85 920.17 C 443.76 915.67 434.74 911.01 425.82 906.18 C 418.09 901.81 412.96 893.77 411.38 885.12 C 407.52 892.36 401.98 899.40 401.99 907.98 Z" />
		<path fill="#020202" opacity="1.00"
			d=" M 656.22 124.42 C 660.68 121.73 665.62 119.41 668.33 114.68 C 668.57 117.61 669.73 120.80 668.56 123.64 C 665.07 126.50 660.16 125.93 656.22 124.42 Z" />
		<path fill="#020202" opacity="1.00"
			d=" M 635.66 137.75 C 634.30 137.11 632.06 134.59 634.97 134.41 C 639.67 134.56 644.25 135.83 648.86 136.67 C 654.69 138.02 660.68 138.90 666.26 141.16 C 665.05 141.71 663.83 142.25 662.63 142.78 C 661.23 143.75 659.88 145.26 658.01 144.86 C 651.83 144.08 645.75 142.56 639.67 141.25 C 637.63 141.07 636.60 139.32 635.66 137.75 Z" />
	</g>
	<g id="#f0b58bff">
		<path fill="#f0b58b" opacity="1.00"
			d=" M 617.45 48.63 C 626.15 51.90 632.11 59.71 635.14 68.26 C 636.16 67.10 636.81 65.68 636.69 64.11 C 636.83 60.17 637.04 56.10 638.73 52.46 C 639.15 51.34 640.51 49.47 641.69 51.07 C 646.68 56.09 648.67 63.21 650.57 69.85 C 655.45 64.07 651.74 56.08 652.43 49.34 C 652.68 49.29 653.16 49.20 653.40 49.16 C 659.38 56.45 665.76 63.94 674.57 67.88 C 673.66 62.68 671.37 57.63 671.76 52.26 C 673.54 50.73 675.42 53.21 676.26 54.63 C 678.76 59.63 680.35 65.15 683.95 69.56 C 683.99 73.87 683.58 78.16 682.79 82.39 C 677.92 82.16 671.98 81.42 668.26 85.29 C 666.63 87.39 664.79 90.51 666.38 93.10 C 665.91 93.66 665.49 94.25 665.14 94.88 L 665.03 95.59 C 665.67 101.38 667.05 107.06 668.07 112.79 C 670.91 106.84 668.89 100.30 666.25 94.71 C 669.88 92.24 674.27 94.94 678.11 95.59 C 678.27 103.05 679.01 110.64 677.02 117.94 C 675.18 127.07 668.95 134.35 665.60 142.87 C 663.25 149.21 660.44 155.73 655.35 160.36 C 651.80 163.41 646.81 163.20 642.53 162.21 C 632.39 160.13 624.16 153.20 617.13 145.98 C 613.35 142.23 610.38 137.74 606.49 134.09 C 605.95 138.50 609.42 141.81 611.86 145.03 C 619.60 154.53 629.36 163.51 641.86 165.73 C 647.64 167.28 653.95 166.36 658.71 162.61 C 648.88 179.71 638.74 196.95 624.78 211.07 C 621.56 204.33 616.95 198.42 612.47 192.50 C 606.27 184.38 601.49 175.31 597.07 166.14 C 593.81 159.42 591.48 152.24 590.13 144.89 C 589.51 139.11 588.78 133.33 587.18 127.72 C 589.94 123.68 591.09 118.85 591.73 114.06 C 594.20 112.60 594.15 109.50 594.24 106.98 C 594.29 98.47 589.98 90.55 590.44 82.03 C 590.66 78.11 593.51 73.44 597.96 73.99 C 601.05 75.11 602.50 78.48 603.46 81.38 C 604.63 84.96 603.43 88.63 602.44 92.08 C 600.90 96.72 603.60 101.24 603.65 105.89 C 604.24 110.58 603.35 115.30 603.59 119.99 C 603.89 121.79 605.71 119.85 606.03 119.11 C 609.97 113.40 610.62 106.14 608.65 99.59 C 607.11 95.05 611.07 91.66 614.32 89.30 C 618.43 86.21 624.00 86.85 628.66 88.20 C 635.86 90.14 643.56 92.83 650.95 90.19 C 653.72 89.24 657.46 87.47 657.25 84.01 C 656.51 81.91 654.12 81.38 652.26 80.76 C 641.37 77.77 630.10 75.14 618.73 76.24 C 619.32 69.45 615.55 63.67 612.23 58.14 C 615.43 61.60 618.26 65.62 622.68 67.68 C 621.20 61.26 617.95 55.29 617.45 48.63 M 656.22 124.42 C 660.16 125.93 665.07 126.50 668.56 123.64 C 669.73 120.80 668.57 117.61 668.33 114.68 C 665.62 119.41 660.68 121.73 656.22 124.42 M 635.66 137.75 C 636.60 139.32 637.63 141.07 639.67 141.25 C 645.75 142.56 651.83 144.08 658.01 144.86 C 659.88 145.26 661.23 143.75 662.63 142.78 C 663.83 142.25 665.05 141.71 666.26 141.16 C 660.68 138.90 654.69 138.02 648.86 136.67 C 644.25 135.83 639.67 134.56 634.97 134.41 C 632.06 134.59 634.30 137.11 635.66 137.75 Z" />
		<path fill="#f0b58b" opacity="1.00"
			d=" M 394.70 199.71 C 398.85 197.02 403.31 194.86 407.69 192.58 C 403.06 203.33 402.83 215.46 404.67 226.86 C 406.24 236.24 409.27 245.56 414.86 253.34 C 408.91 252.66 402.90 253.04 396.96 252.23 C 391.74 251.89 386.13 250.90 381.25 253.31 C 376.32 255.98 373.59 261.21 370.96 265.93 C 363.99 280.01 359.53 295.13 353.93 309.76 C 348.34 325.25 341.69 340.33 335.52 355.59 C 330.73 366.99 328.24 379.18 323.80 390.71 C 320.57 399.65 315.72 407.91 312.90 417.01 C 311.11 421.44 310.42 427.29 305.53 429.51 C 300.05 432.11 294.07 433.48 288.41 435.66 C 291.87 433.09 295.80 431.11 298.80 427.97 C 298.97 425.11 295.83 427.09 294.54 427.49 C 284.28 431.80 275.69 439.58 264.81 442.48 C 273.56 435.93 282.96 430.28 291.55 423.52 C 292.53 422.60 293.39 421.59 294.15 420.48 C 288.61 421.78 284.29 425.76 279.27 428.22 C 270.58 432.70 263.20 439.31 254.38 443.56 C 252.27 444.64 249.91 445.06 247.60 445.46 C 248.16 443.77 248.43 441.91 249.55 440.48 C 259.79 433.12 270.15 425.84 280.14 418.11 C 281.42 417.29 282.01 415.87 282.53 414.52 C 280.37 414.66 278.25 415.22 276.46 416.46 C 269.19 421.11 261.97 425.86 255.21 431.23 C 251.54 434.17 247.60 437.01 242.90 438.00 C 246.31 431.95 250.99 426.74 255.89 421.87 C 261.37 416.48 268.31 412.97 274.19 408.08 C 274.64 408.52 275.53 409.41 275.98 409.85 C 277.65 408.36 279.35 406.83 280.45 404.84 C 279.65 404.67 278.06 404.31 277.26 404.14 C 283.04 396.23 287.17 387.11 294.02 380.00 C 297.03 376.94 300.74 374.38 305.11 373.92 C 305.51 376.18 305.05 378.96 306.99 380.65 C 309.98 378.50 309.21 374.18 310.47 371.07 C 313.54 362.32 314.65 353.08 315.86 343.93 C 319.47 314.44 321.34 284.58 328.76 255.70 C 330.72 247.86 334.49 240.61 339.10 234.01 C 342.85 228.02 347.45 222.21 353.90 218.99 C 359.98 216.14 366.59 214.60 372.61 211.60 C 380.10 207.89 387.67 204.26 394.70 199.71 Z" />
		<path fill="#f0b58b" opacity="1.00"
			d=" M 749.60 330.61 C 752.45 329.05 755.20 327.30 757.99 325.62 C 759.27 333.21 762.48 340.26 764.22 347.73 C 767.40 359.56 769.45 371.73 769.83 383.99 C 770.03 401.09 767.70 418.09 764.47 434.85 C 763.22 441.37 762.59 448.06 760.47 454.39 C 757.39 461.85 762.84 468.91 765.53 475.59 C 769.49 482.37 768.43 490.43 769.49 497.91 C 769.87 505.30 771.71 512.63 771.40 520.03 C 769.72 523.60 766.67 526.26 764.43 529.46 C 762.04 532.49 760.78 536.19 759.67 539.85 C 759.18 538.72 758.69 537.60 758.21 536.49 C 761.84 528.47 762.80 519.62 764.73 511.10 C 765.77 504.48 768.18 497.47 765.77 490.88 C 763.46 496.01 763.16 501.73 761.51 507.08 C 758.82 516.28 757.65 525.93 754.00 534.84 C 750.47 520.00 756.98 504.42 752.14 489.73 C 749.89 484.53 743.77 479.51 737.92 481.95 C 733.61 484.16 733.40 489.73 733.21 493.96 C 732.95 500.39 734.03 507.56 730.10 513.15 C 724.49 508.53 723.90 500.71 723.87 493.98 C 724.08 488.68 724.14 483.37 723.43 478.11 C 722.45 471.07 725.93 464.42 729.83 458.83 C 732.25 455.41 736.96 452.82 736.57 448.08 C 736.02 438.93 731.70 430.64 728.74 422.13 C 725.64 412.37 723.61 402.21 723.25 391.96 C 723.37 383.27 723.87 374.59 724.48 365.92 C 725.25 355.04 721.76 344.31 716.59 334.86 C 727.60 337.85 739.66 336.11 749.60 330.61 Z" />
		<path fill="#f0b58b" opacity="1.00"
			d=" M 603.73 565.78 C 614.00 560.56 625.52 558.79 636.78 557.05 C 647.58 571.38 658.57 585.88 665.47 602.59 C 668.87 610.10 671.37 618.75 668.57 626.86 C 662.53 644.86 651.38 660.41 641.25 676.26 C 636.86 683.71 631.26 690.35 626.27 697.38 C 622.90 698.37 619.31 696.87 616.04 695.98 C 600.72 690.61 586.67 681.98 574.02 671.89 C 569.82 668.51 565.86 664.81 562.56 660.54 C 573.79 648.39 585.98 637.05 599.50 627.49 C 600.87 626.41 604.19 624.60 601.13 623.22 C 595.78 624.77 591.45 628.49 586.90 631.54 C 577.75 620.80 566.05 612.30 553.18 606.57 C 565.58 598.50 576.93 588.83 587.04 578.04 C 591.92 573.12 597.64 569.06 603.73 565.78 Z" />
		<path fill="#f0b58b" opacity="1.00"
			d=" M 533.44 653.58 C 542.51 650.77 552.25 651.77 561.32 654.04 C 548.61 667.54 537.85 683.26 531.99 700.97 C 525.80 718.12 524.07 736.48 517.90 753.63 C 506.74 752.30 496.46 747.02 487.44 740.55 C 484.45 738.44 481.87 735.84 479.60 732.99 C 484.31 729.11 485.18 722.83 485.62 717.13 C 486.98 698.83 486.80 680.38 490.21 662.29 C 497.52 662.86 504.96 662.81 512.10 660.93 C 519.51 659.36 526.16 655.55 533.44 653.58 Z" />
	</g>
	<g id="#f11b27ff">
		<path fill="var(--shirt-color, grey)" opacity="1.00"
			d=" M 570.96 138.99 C 575.72 136.82 579.98 133.65 583.13 129.43 C 584.50 134.71 585.03 140.13 585.69 145.53 C 588.17 160.46 595.37 174.07 603.14 186.87 C 609.18 196.94 618.42 204.88 623.25 215.68 C 627.38 215.17 630.36 212.00 633.18 209.23 C 641.94 199.98 648.55 188.99 655.17 178.18 C 660.92 168.08 666.43 157.80 671.07 147.13 C 676.82 149.62 683.35 149.28 689.04 151.94 C 694.02 154.33 698.14 158.11 702.12 161.88 C 707.70 167.20 713.99 171.92 721.16 174.88 C 726.45 177.34 732.61 178.91 736.29 183.80 C 740.27 188.64 739.74 195.21 741.11 200.99 C 742.97 209.39 746.37 217.37 748.20 225.79 C 751.01 238.45 751.41 251.48 753.76 264.21 C 755.69 275.09 757.02 286.05 758.03 297.05 C 758.64 303.91 760.00 310.78 763.05 317.01 C 754.10 319.09 747.36 326.03 738.54 328.44 C 729.31 331.53 719.46 330.06 710.19 327.99 C 707.50 312.37 702.72 296.75 693.94 283.41 C 699.37 273.68 707.01 265.54 714.04 256.98 C 719.21 250.56 723.45 243.31 726.20 235.52 C 726.69 233.49 727.78 230.10 725.04 229.23 C 722.96 229.94 723.45 232.92 722.50 234.61 C 719.22 242.66 714.37 250.05 708.70 256.62 C 703.82 262.42 698.47 267.88 694.30 274.24 C 685.40 287.58 677.95 301.85 671.60 316.56 C 665.19 331.24 661.73 346.98 655.89 361.87 C 653.80 367.44 649.46 371.65 645.59 375.99 C 644.54 367.71 644.91 359.35 644.77 351.02 C 644.60 335.30 645.72 319.53 648.61 304.06 C 649.17 301.03 649.86 297.98 649.79 294.88 C 649.32 294.80 648.38 294.66 647.92 294.58 C 646.34 297.43 645.67 300.66 644.88 303.79 C 640.09 324.47 639.19 345.84 639.77 366.99 C 639.83 371.64 640.65 376.23 641.70 380.75 C 632.83 392.62 626.91 406.67 624.30 421.25 C 623.26 426.74 624.02 432.38 625.81 437.63 C 608.68 429.75 593.85 417.66 580.72 404.28 C 576.67 400.41 573.34 395.70 568.50 392.72 C 568.57 396.86 571.89 399.71 574.21 402.78 C 589.05 420.11 607.26 434.98 628.35 443.99 C 629.02 447.25 630.01 450.62 629.26 453.97 C 628.31 458.25 626.24 462.15 624.51 466.15 C 617.21 461.85 609.51 458.26 602.33 453.73 C 593.33 448.17 584.74 441.98 576.02 435.99 C 574.60 435.10 571.89 433.20 571.29 436.03 C 575.54 441.05 581.28 444.51 586.46 448.48 C 597.94 457.02 610.41 464.09 623.07 470.72 C 623.31 473.81 623.98 476.84 625.17 479.71 C 627.13 484.58 627.13 489.91 627.23 495.08 C 618.54 493.31 608.40 494.04 601.54 487.48 C 595.27 481.78 588.95 476.10 583.14 469.93 C 575.18 460.87 566.82 452.02 556.95 445.00 C 553.83 442.82 552.18 439.16 549.04 437.00 C 541.60 431.63 532.89 428.38 524.18 425.73 C 507.24 420.50 489.93 415.55 474.68 406.25 C 467.75 402.02 460.81 397.69 453.11 394.99 C 453.97 391.17 454.38 387.04 456.83 383.82 C 461.11 377.59 468.71 374.46 472.24 367.64 C 475.08 379.05 481.94 388.82 489.09 397.94 C 490.33 399.74 492.28 400.81 494.52 400.54 C 488.19 387.58 478.21 376.27 474.38 362.12 C 477.39 341.88 480.77 321.55 480.57 301.02 C 480.90 283.48 478.61 266.02 475.30 248.84 C 477.14 249.49 479.19 249.89 480.69 251.27 C 487.06 256.80 490.76 264.57 493.82 272.26 C 501.23 291.00 510.56 308.91 520.78 326.25 C 522.34 328.67 523.73 331.34 526.06 333.14 C 529.88 334.57 528.19 329.72 527.07 327.96 C 518.55 312.50 511.06 296.52 503.52 280.57 C 500.27 273.71 497.49 266.62 493.85 259.96 C 498.93 265.25 504.29 270.29 509.97 274.94 C 511.91 276.57 514.17 277.77 516.59 278.55 C 516.20 277.07 515.79 275.53 514.62 274.46 C 509.06 268.68 503.16 263.25 497.81 257.27 C 493.87 252.74 489.25 248.64 483.64 246.34 C 476.64 243.01 468.61 243.55 461.26 245.25 C 448.56 247.69 436.86 254.17 423.83 254.97 C 415.03 247.14 411.41 235.32 409.56 224.06 C 407.99 213.36 407.90 202.05 412.06 191.90 C 418.50 191.96 425.05 191.92 431.32 190.19 C 445.55 186.26 458.95 179.87 471.91 172.90 C 478.67 169.37 485.38 165.27 493.06 164.12 C 501.65 162.87 510.38 162.65 519.04 163.20 C 522.95 163.47 526.90 162.49 530.05 160.11 C 542.56 151.01 557.68 146.72 570.96 138.99 Z" />
		<path fill="var(--shirt-color, grey)" opacity="1.00"
			d=" M 450.64 398.94 C 459.99 401.89 467.98 407.71 476.41 412.52 C 492.26 421.43 509.95 426.12 527.17 431.57 C 532.47 433.17 537.53 435.45 542.48 437.92 C 517.18 433.01 491.36 438.73 465.92 435.70 C 457.67 434.68 449.36 433.78 441.39 431.32 C 441.96 428.72 442.49 426.07 443.74 423.70 C 447.96 416.06 447.31 406.92 450.64 398.94 Z" />
	</g>
	<g id="#2b3dcdff">
		<path fill="var(--pants-color, grey)" opacity="1.00"
			d=" M 437.96 456.03 C 438.28 449.16 438.55 442.27 439.60 435.46 C 460.33 442.15 482.48 442.04 504.03 441.19 C 515.32 441.08 526.73 440.63 537.92 442.41 C 547.76 444.08 556.13 450.03 563.28 456.69 C 571.62 464.04 578.40 472.93 586.52 480.51 C 591.15 484.89 595.51 489.60 600.56 493.51 C 607.83 499.19 617.61 498.60 626.28 499.86 C 623.67 508.15 621.13 516.50 619.63 525.08 C 618.71 529.62 621.15 533.83 623.68 537.39 C 627.46 542.67 630.72 548.30 634.41 553.66 C 615.26 554.52 595.66 561.12 582.23 575.27 C 575.03 583.12 566.75 589.84 558.68 596.75 C 554.62 600.24 550.01 603.33 547.17 608.00 C 560.08 615.29 572.58 623.68 582.56 634.79 C 576.20 639.90 570.13 645.36 564.24 651.01 C 556.87 647.11 548.31 646.09 540.08 646.65 C 529.37 647.42 519.97 653.23 509.62 655.50 C 499.87 657.79 489.43 657.81 479.85 654.72 C 477.61 633.29 483.09 612.12 485.30 590.91 C 485.82 585.38 486.86 579.57 484.86 574.21 C 482.88 568.87 479.60 564.16 476.61 559.35 C 467.86 545.56 458.14 532.24 451.88 517.05 C 443.79 497.75 437.39 477.18 437.96 456.03 Z" />
		<path fill="var(--socks-color, grey)" opacity="1.00"
			d=" M 541.76 690.73 C 546.25 681.29 552.36 672.74 559.00 664.70 C 567.19 676.03 579.03 683.99 590.83 691.15 C 600.54 696.67 610.72 702.07 621.97 703.51 C 615.51 712.53 608.44 721.10 602.30 730.34 C 594.87 741.59 587.59 752.95 580.39 764.35 C 574.09 774.87 566.99 785.06 562.71 796.64 C 555.76 815.15 547.68 833.18 540.47 851.58 C 537.98 858.26 533.72 864.43 533.34 871.74 C 529.33 870.75 525.19 869.15 521.01 869.99 C 514.45 871.58 513.61 880.59 507.01 882.12 C 502.89 882.59 499.34 879.87 496.01 877.87 C 488.56 873.17 486.08 863.99 484.64 855.85 C 483.62 847.29 482.67 838.53 484.00 829.98 C 487.92 824.91 490.28 818.94 493.17 813.28 C 500.31 800.06 508.12 787.19 514.72 773.68 C 519.92 762.62 524.30 751.13 527.22 739.24 C 531.03 722.80 534.30 706.01 541.76 690.73 Z" />
		<path fill="var(--socks-color, grey)" opacity="1.00"
			d=" M 466.23 749.27 C 468.61 743.89 471.63 738.67 476.09 734.74 C 482.09 744.60 492.36 750.87 502.70 755.38 C 506.94 757.23 511.48 758.30 516.08 758.78 C 507.44 781.51 493.37 801.56 482.76 823.34 C 477.05 825.78 472.03 829.50 466.99 833.09 C 456.65 840.92 446.41 850.03 441.59 862.41 C 438.85 869.55 441.45 877.95 447.14 882.89 C 451.94 886.95 456.53 891.26 461.29 895.38 C 453.65 898.17 452.98 907.37 453.09 914.29 C 448.12 911.43 443.08 908.68 438.05 905.93 C 433.76 903.56 429.06 901.84 425.19 898.77 C 418.95 893.87 415.53 885.85 415.54 878.00 C 415.36 875.46 417.47 873.74 418.79 871.85 C 423.02 866.64 425.57 860.37 428.37 854.34 C 436.22 836.21 441.96 817.28 448.75 798.75 C 454.75 782.32 459.07 765.27 466.23 749.27 Z" />
	</g>
	<g id="#4d4d4dff">
		<path fill="#4d4d4d" opacity="1.00"
			d=" M 447.54 861.57 C 454.88 847.97 467.93 838.89 480.14 829.99 C 478.36 843.87 478.56 858.71 484.48 871.65 C 487.60 878.86 494.43 883.63 501.53 886.40 C 506.21 888.19 511.61 886.52 514.92 882.90 C 517.53 880.51 518.91 876.83 522.02 875.03 C 525.63 874.67 529.18 875.94 532.72 876.52 C 533.63 893.15 535.87 909.89 541.35 925.68 C 545.14 936.47 552.27 945.59 557.40 955.72 C 562.25 965.00 556.00 977.54 545.90 979.79 C 539.30 981.90 532.30 979.87 526.51 976.52 C 519.62 972.70 513.76 967.29 508.26 961.72 C 502.45 955.52 496.03 949.72 491.75 942.29 C 488.44 936.88 487.18 930.60 485.42 924.60 C 483.14 916.84 480.47 908.97 475.41 902.53 C 468.14 893.16 458.29 886.31 449.67 878.30 C 445.23 874.03 444.36 866.83 447.54 861.57 Z" />
		<path fill="#4d4d4d" opacity="1.00"
			d=" M 401.99 907.98 C 401.98 899.40 407.52 892.36 411.38 885.12 C 412.96 893.77 418.09 901.81 425.82 906.18 C 434.74 911.01 443.76 915.67 452.85 920.17 C 454.48 921.22 456.92 920.62 457.47 918.64 C 458.82 913.51 457.57 907.86 459.99 902.99 C 460.96 900.46 464.03 900.72 466.18 900.03 C 469.71 903.85 473.24 907.76 475.63 912.43 C 480.15 920.68 481.78 930.05 484.88 938.85 C 488.66 949.19 496.75 956.97 504.31 964.62 C 507.63 968.04 511.18 971.23 514.81 974.32 C 514.98 976.88 515.28 979.47 514.99 982.05 C 513.10 983.82 510.37 984.09 507.94 984.55 C 498.31 985.69 488.58 985.19 478.94 984.62 C 469.21 984.10 459.21 981.79 451.46 975.59 C 441.35 967.58 436.13 955.44 428.80 945.18 C 423.19 937.84 415.82 932.13 409.27 925.69 C 404.79 920.97 401.66 914.60 401.99 907.98 Z" />
	</g>
</svg>