<?xml version="1.0" encoding="UTF-8" ?>
<!DOCTYPE svg PUBLIC "-//W3C//DTD SVG 1.1//EN" "http://www.w3.org/Graphics/SVG/1.1/DTD/svg11.dtd">
<svg width="1000pt" height="1000pt" viewBox="0 0 1000 1000" version="1.1" xmlns="http://www.w3.org/2000/svg">
	<g id="#020202ff">
		<path fill="#020202" opacity="1.00"
			d=" M 739.01 4.92 C 752.72 1.76 767.17 5.08 779.34 11.73 C 792.95 19.92 803.40 32.83 809.82 47.26 C 812.79 54.42 815.09 62.23 814.19 70.04 C 811.91 73.14 807.67 74.66 806.62 78.63 C 803.78 86.33 800.81 94.01 798.85 102.00 C 797.10 109.18 795.02 116.28 792.40 123.20 C 789.09 131.80 785.70 140.53 780.15 147.98 C 772.50 158.35 763.35 168.22 751.46 173.71 C 764.04 178.42 777.07 182.40 788.59 189.48 C 795.19 193.46 801.08 199.39 803.10 207.03 C 807.50 219.22 806.37 232.34 807.93 245.01 C 808.20 252.05 810.92 258.88 810.23 265.97 C 807.33 267.94 803.58 266.47 800.36 266.44 C 800.21 289.00 803.39 311.44 802.93 334.00 C 802.96 354.78 801.84 375.66 797.62 396.05 C 795.01 408.48 792.31 420.93 788.17 432.95 C 786.57 437.71 784.65 442.36 783.36 447.22 C 780.49 457.54 779.84 468.28 777.90 478.78 C 776.82 484.48 776.07 490.37 773.57 495.67 C 770.42 502.19 764.40 506.59 758.52 510.48 C 754.00 513.33 749.55 516.39 744.62 518.51 C 740.23 520.83 735.91 517.13 732.02 515.42 C 728.95 518.20 725.88 521.29 721.92 522.75 C 717.57 524.20 713.35 521.71 709.60 519.80 C 705.83 529.15 705.86 539.49 705.04 549.40 C 710.37 552.81 717.19 553.63 721.64 558.38 C 727.93 564.80 734.40 571.21 742.20 575.80 C 751.87 582.08 763.23 584.73 773.72 589.26 C 780.70 592.23 786.89 596.68 792.93 601.21 C 796.01 603.69 799.70 605.87 801.35 609.65 C 804.51 616.47 804.20 624.25 803.44 631.55 C 812.52 643.06 823.08 653.23 832.81 664.16 C 843.70 676.09 850.34 691.33 854.15 706.89 C 857.90 721.95 857.02 739.47 847.16 752.11 C 839.91 760.15 830.40 765.63 821.19 771.10 C 808.08 778.66 794.51 785.47 781.99 794.00 C 771.46 800.44 761.20 807.31 750.60 813.62 C 729.41 826.55 706.42 836.08 684.35 847.33 C 671.93 853.90 659.58 860.59 647.30 867.41 C 639.80 871.54 633.00 876.75 626.37 882.12 C 626.46 896.63 626.18 911.66 631.50 925.41 C 634.85 934.62 638.69 944.15 645.80 951.15 C 652.44 957.13 660.27 962.28 664.64 970.33 C 666.53 974.64 668.88 979.79 666.29 984.33 C 663.91 989.87 657.58 991.61 652.19 992.65 C 640.00 994.75 627.33 996.34 615.11 993.69 C 605.48 991.47 598.58 983.74 592.69 976.32 C 588.29 970.99 584.78 964.95 579.89 960.04 C 575.98 956.12 571.07 953.47 566.34 950.71 C 557.95 945.97 550.28 940.11 542.40 934.60 C 534.19 928.62 525.38 922.17 521.32 912.52 C 517.71 904.36 520.69 895.34 523.22 887.33 C 527.23 875.54 538.23 868.27 548.69 862.66 C 561.74 855.87 574.54 848.36 585.52 838.49 C 599.33 827.38 612.84 815.88 625.71 803.69 C 635.92 794.56 645.16 784.45 655.17 775.12 C 669.73 760.98 685.10 747.71 700.06 734.00 C 710.30 724.29 722.49 716.44 735.91 711.94 C 734.47 711.17 733.03 710.41 731.61 709.65 C 716.37 716.44 699.80 721.15 682.99 720.50 C 678.94 720.28 674.69 720.05 671.15 717.88 C 654.16 709.27 642.34 693.58 626.07 683.88 C 611.90 674.28 594.68 669.32 582.30 657.14 C 579.94 659.82 577.38 662.37 574.39 664.35 C 570.37 667.18 565.61 668.75 561.64 671.68 C 556.16 675.50 552.69 681.35 548.20 686.17 C 542.39 692.42 535.76 697.85 529.01 703.04 C 523.02 707.79 517.01 712.60 510.29 716.29 C 500.93 720.98 490.26 722.38 479.90 722.08 C 474.10 735.54 464.27 746.88 452.89 755.96 C 436.73 769.11 419.35 780.65 401.77 791.80 C 370.80 811.99 337.33 827.87 305.29 846.24 C 288.69 855.86 271.52 864.44 254.75 873.75 C 247.45 877.91 239.46 881.45 233.90 887.98 C 226.28 895.53 217.02 901.11 208.47 907.50 C 200.84 912.71 193.79 919.02 185.04 922.35 C 180.82 935.20 173.41 946.72 165.73 957.74 C 159.22 966.78 151.69 975.03 143.83 982.89 C 140.80 985.99 137.10 988.50 132.90 989.69 C 120.46 993.01 107.25 992.84 94.72 990.11 C 89.08 988.62 82.91 986.51 79.62 981.34 C 74.77 974.12 75.28 964.68 77.82 956.72 C 80.86 948.49 85.96 941.21 88.98 932.96 C 91.71 926.18 91.61 918.51 95.19 912.03 C 98.70 905.83 102.24 899.45 107.48 894.51 C 113.98 888.26 121.54 882.94 130.08 879.88 C 138.18 876.59 147.13 875.86 154.97 871.89 C 161.69 868.25 166.95 862.59 172.57 857.53 C 184.19 847.19 195.48 836.46 206.25 825.23 C 218.73 811.67 229.83 796.90 242.41 783.43 C 252.94 771.86 265.09 761.91 277.42 752.34 C 289.58 742.99 302.76 734.89 316.94 728.96 C 325.22 725.44 333.68 722.36 342.16 719.37 C 346.41 717.90 350.85 716.94 355.36 717.07 C 362.86 703.04 370.38 688.87 380.27 676.34 C 385.55 669.65 392.53 664.41 397.41 657.42 C 400.52 643.43 406.95 630.47 410.88 616.72 C 413.11 608.88 415.47 601.06 417.10 593.07 C 419.14 583.09 422.09 573.32 424.25 563.37 C 425.80 556.90 427.64 550.44 430.46 544.40 C 434.43 536.02 442.91 531.42 449.91 525.90 C 458.20 519.45 467.88 514.56 474.78 506.49 C 477.91 497.36 481.03 487.85 480.54 478.05 C 480.29 465.83 480.77 453.33 484.76 441.67 C 486.60 435.92 489.62 430.66 492.47 425.36 C 489.34 420.41 486.16 415.35 484.66 409.62 C 480.68 394.74 482.09 378.69 487.68 364.40 C 491.19 355.75 495.77 347.60 500.73 339.71 C 504.93 333.08 508.31 325.99 511.75 318.96 C 510.15 317.36 508.02 316.05 507.18 313.87 C 508.32 306.25 512.43 299.55 515.65 292.67 C 520.91 280.56 519.45 266.76 524.46 254.57 C 531.99 234.26 546.12 217.39 560.34 201.42 C 562.69 198.45 564.77 195.22 567.66 192.73 C 570.86 189.82 575.05 188.10 577.66 184.55 C 581.91 178.89 586.01 173.02 591.43 168.38 C 595.84 164.35 602.05 163.73 607.29 161.24 C 615.20 158.07 621.12 151.74 628.02 146.98 C 639.50 138.63 654.06 135.15 668.13 136.20 C 672.14 136.22 676.63 137.73 680.22 135.21 C 686.52 131.17 690.11 124.10 692.34 117.17 C 693.97 111.29 695.20 104.53 692.09 98.92 C 682.43 78.71 685.87 54.12 697.36 35.39 C 706.49 20.34 721.48 8.28 739.01 4.92 M 763.44 84.41 C 759.88 89.54 758.22 95.80 757.86 101.98 C 757.47 108.02 759.53 114.01 758.45 120.04 C 757.68 126.86 753.60 132.66 752.14 139.30 C 750.67 144.35 750.61 149.64 749.54 154.76 C 745.74 151.61 747.23 146.22 747.48 141.97 C 748.09 133.90 752.73 126.96 754.21 119.10 C 745.16 125.82 733.07 127.62 722.26 124.81 C 712.72 122.67 704.63 116.61 698.40 109.27 C 697.70 119.99 693.33 130.73 685.02 137.78 C 691.92 138.66 698.85 139.63 705.57 141.50 C 718.40 145.17 731.60 150.76 740.16 161.43 C 741.03 155.05 737.90 148.29 740.96 142.26 C 744.02 149.24 744.95 157.54 742.54 164.87 C 744.04 166.60 745.55 168.34 747.07 170.06 C 754.47 168.11 760.39 162.94 765.76 157.72 C 772.91 150.33 779.67 142.22 783.57 132.60 C 787.28 123.78 791.01 114.91 793.40 105.62 C 795.32 97.64 797.78 89.79 801.01 82.23 C 794.31 91.10 788.35 101.09 787.62 112.46 C 785.62 111.99 783.48 111.53 782.04 109.95 C 777.96 105.90 774.44 101.05 772.63 95.56 C 771.30 91.55 772.61 86.15 768.55 83.48 C 766.99 81.87 764.45 82.62 763.44 84.41 M 636.91 146.84 C 627.12 151.68 619.86 160.52 609.62 164.59 C 605.56 166.44 601.02 166.98 597.05 169.00 C 587.81 174.73 583.37 185.36 574.92 191.96 C 567.28 198.39 562.38 207.34 558.34 216.32 C 552.43 229.85 548.28 244.30 547.62 259.11 C 545.58 284.42 549.85 309.66 549.15 334.97 C 548.68 345.97 548.31 357.15 544.75 367.68 C 558.19 353.93 569.84 338.57 580.76 322.77 C 584.13 318.17 586.96 313.09 591.15 309.15 C 589.07 318.16 582.59 325.19 577.94 332.95 C 569.95 345.93 560.30 357.78 549.81 368.82 C 541.55 377.56 533.73 386.76 524.75 394.79 C 518.53 400.21 512.97 406.32 507.33 412.33 C 500.36 420.84 494.81 430.51 490.49 440.61 C 486.01 452.16 485.35 464.74 485.49 477.00 C 485.57 483.70 484.67 490.39 482.62 496.77 C 480.75 502.69 478.25 508.72 478.92 515.06 C 479.87 520.80 484.66 524.62 488.86 528.14 C 497.64 535.66 505.85 543.86 515.13 550.78 C 527.66 560.56 540.32 570.42 554.75 577.28 C 571.45 585.67 588.96 594.08 607.97 594.82 C 617.12 594.79 626.28 593.59 635.17 591.43 C 645.15 588.97 654.46 584.38 663.22 579.10 C 676.86 570.50 690.51 561.57 701.66 549.78 C 701.14 541.62 701.88 533.44 703.16 525.37 C 696.85 523.58 690.29 524.56 683.88 523.63 C 674.58 522.61 665.23 522.11 655.93 521.13 C 653.20 520.77 649.76 520.43 648.48 517.57 C 646.93 514.32 649.47 510.67 652.55 509.54 C 658.12 507.47 664.18 507.68 669.97 506.65 C 666.06 503.50 661.05 500.83 659.33 495.82 C 658.39 492.48 661.91 489.97 664.93 490.05 C 672.15 489.82 677.90 494.87 683.97 498.01 C 680.15 493.83 675.40 490.61 671.77 486.28 C 670.22 484.66 671.22 482.04 673.40 481.76 C 682.07 479.97 690.37 484.11 698.04 487.60 C 702.42 485.65 706.58 483.23 710.55 480.53 C 714.33 465.80 719.61 451.53 723.64 436.88 C 725.46 428.31 727.53 419.66 731.91 411.98 C 725.18 418.06 717.14 422.54 708.72 425.83 C 696.33 430.97 684.18 437.26 674.14 446.29 C 673.00 447.31 671.58 448.12 670.10 447.17 C 672.21 440.83 678.16 436.98 683.37 433.32 C 691.93 427.25 701.67 423.22 711.37 419.38 C 721.28 415.23 729.87 408.51 736.76 400.33 C 733.97 386.43 732.72 372.23 732.83 358.07 C 734.00 335.70 738.28 313.63 739.30 291.25 C 736.18 290.46 732.83 289.78 730.42 287.48 C 727.07 284.69 725.63 280.40 724.64 276.31 C 721.92 266.10 722.11 255.44 722.27 244.96 C 722.57 238.80 722.56 232.30 725.60 226.74 C 726.22 231.84 725.68 236.95 725.54 242.06 C 725.27 249.69 725.72 257.32 726.18 264.93 C 730.33 258.01 736.37 252.11 743.80 248.81 C 753.32 244.78 764.10 246.37 773.74 249.11 C 784.68 252.08 794.05 258.91 805.01 261.86 C 803.64 254.32 803.23 246.67 802.43 239.06 C 801.67 231.19 802.29 223.16 800.35 215.43 C 798.92 209.80 797.77 203.75 793.83 199.24 C 790.42 195.02 785.41 192.65 780.69 190.23 C 772.54 186.06 763.85 183.16 755.34 179.86 C 742.28 175.99 737.33 161.50 726.01 155.04 C 709.85 144.96 690.52 142.44 671.94 140.72 C 659.99 139.49 647.70 141.55 636.91 146.84 M 530.78 252.69 C 524.33 266.09 526.56 281.82 520.16 295.24 C 517.19 301.22 513.88 307.05 511.57 313.33 C 521.60 318.13 532.51 321.96 543.82 320.82 C 543.21 295.26 539.47 269.50 543.77 244.05 C 545.43 235.30 548.45 226.87 551.61 218.56 C 543.84 229.40 535.71 240.19 530.78 252.69 M 735.40 259.32 C 740.67 266.87 742.22 276.07 743.43 285.00 C 744.71 294.01 743.24 303.06 742.62 312.07 C 740.89 331.69 736.51 351.23 737.94 371.02 C 738.34 387.09 741.97 402.79 744.70 418.56 C 747.13 431.51 750.12 444.34 754.07 456.91 C 755.12 459.71 754.87 462.75 754.35 465.64 C 752.78 463.81 751.47 461.78 750.22 459.74 C 733.08 467.53 719.59 481.22 703.08 490.04 C 710.98 490.62 718.55 493.19 725.89 496.01 C 728.79 497.03 732.40 498.34 734.98 495.90 C 737.95 493.94 739.55 489.14 743.65 489.61 C 742.80 492.73 740.90 495.44 738.99 498.01 C 736.24 501.45 731.30 502.27 727.28 500.84 C 719.59 498.45 712.10 495.14 704.04 494.21 C 702.29 493.83 700.67 494.60 699.20 495.39 C 701.30 496.87 703.59 498.06 706.00 498.99 C 718.26 503.76 730.07 509.62 741.85 515.47 C 746.12 512.48 750.62 509.82 755.01 507.00 C 761.71 502.56 769.38 497.57 771.34 489.22 C 774.33 477.15 775.19 464.67 777.74 452.51 C 779.90 441.72 784.43 431.62 787.22 421.01 C 789.96 410.07 792.59 399.10 794.38 387.95 C 797.93 368.18 798.02 348.05 798.10 328.03 C 797.84 307.21 795.44 286.41 796.49 265.59 C 784.91 260.92 774.08 253.87 761.42 252.36 C 752.17 250.39 742.64 253.51 735.40 259.32 M 730.49 279.66 C 731.80 283.56 735.54 285.71 739.02 287.39 C 738.47 278.83 735.57 270.65 732.20 262.84 C 729.44 267.94 728.16 274.14 730.49 279.66 M 515.34 320.79 C 513.63 326.23 511.12 331.37 508.22 336.26 C 500.68 348.91 492.43 361.51 488.78 375.95 C 484.92 391.20 486.11 408.22 494.52 421.80 C 503.12 407.73 515.54 396.68 527.55 385.60 C 534.67 379.53 538.98 370.76 541.32 361.83 C 543.51 350.25 543.98 338.42 543.84 326.66 C 533.96 327.68 524.11 325.32 515.34 320.79 M 729.40 429.59 C 728.10 436.14 726.34 442.59 724.14 448.90 C 720.76 458.32 717.99 467.95 714.80 477.44 C 725.59 469.32 736.28 460.54 748.96 455.56 C 747.84 450.30 746.26 445.15 744.80 439.97 C 742.49 429.60 740.36 419.19 738.32 408.76 C 734.66 415.37 730.94 422.10 729.40 429.59 M 677.26 485.57 C 688.74 494.78 698.72 505.76 710.79 514.25 C 713.57 516.12 716.54 518.19 720.02 518.33 C 723.13 517.43 725.57 515.11 728.29 513.44 C 720.00 509.40 711.79 505.18 703.24 501.71 C 701.05 500.70 698.61 499.87 697.06 497.95 C 695.63 496.26 696.62 494.01 696.87 492.10 C 690.51 489.44 684.20 486.36 677.26 485.57 M 663.91 494.31 C 664.28 497.08 666.98 498.56 668.93 500.20 C 675.30 504.83 681.58 509.58 688.21 513.84 C 692.75 516.77 697.41 520.18 702.97 520.70 C 704.84 521.00 705.54 518.84 706.54 517.72 C 700.46 512.90 694.54 507.89 688.95 502.52 C 679.21 505.11 673.41 493.37 663.91 494.31 M 652.07 515.67 C 664.10 518.15 676.50 517.98 688.66 519.66 C 683.58 516.42 678.60 513.03 673.76 509.44 C 667.40 514.21 658.58 511.28 652.07 515.67 M 449.80 531.76 C 444.27 536.17 437.64 539.94 434.56 546.63 C 429.37 557.90 427.94 570.36 424.46 582.17 C 420.71 598.89 416.94 615.68 410.76 631.70 C 408.01 639.44 404.53 646.95 402.75 655.00 C 402.19 657.46 401.16 659.77 400.05 662.02 C 407.36 672.79 415.31 683.25 425.13 691.88 C 438.03 703.21 453.39 712.18 470.30 715.78 C 481.76 718.12 493.94 717.80 505.04 713.95 C 511.94 711.07 517.96 706.49 523.68 701.75 C 529.95 696.70 536.45 691.88 542.06 686.07 C 548.03 680.36 552.33 672.99 559.13 668.15 C 563.68 664.78 569.27 663.22 573.82 659.86 C 577.07 657.67 579.58 654.56 582.90 652.50 C 586.14 653.88 588.53 656.59 591.38 658.59 C 601.79 666.46 614.11 671.08 625.19 677.83 C 638.52 685.36 649.51 696.12 661.32 705.70 C 666.69 709.82 672.34 714.24 679.18 715.43 C 686.11 716.26 693.14 715.68 700.02 714.67 C 721.94 710.90 742.35 700.45 759.66 686.68 C 773.66 675.25 786.26 661.47 793.80 644.87 C 798.12 635.25 800.69 624.40 798.65 613.89 C 798.23 610.41 795.16 608.28 792.61 606.30 C 788.18 603.04 783.70 599.83 779.06 596.88 C 770.81 591.66 761.15 589.58 752.28 585.76 C 740.03 580.58 729.16 572.55 719.93 563.03 C 715.85 558.17 709.07 557.79 704.24 554.01 C 699.79 558.99 694.78 563.44 689.42 567.41 C 679.90 574.36 670.17 581.07 659.90 586.88 C 643.64 596.08 624.68 600.50 606.03 598.98 C 586.84 598.51 569.16 590.09 552.27 581.77 C 536.38 574.17 522.50 563.14 508.75 552.28 C 500.89 546.20 494.24 538.77 486.47 532.58 C 483.63 530.08 480.42 527.92 478.12 524.87 C 476.05 521.52 475.27 517.58 474.16 513.86 C 466.43 520.35 457.68 525.47 449.80 531.76 M 802.35 636.18 C 798.19 651.46 789.03 664.84 778.40 676.37 C 766.62 688.82 752.55 698.99 737.36 706.88 C 739.70 707.95 742.10 708.99 744.70 709.28 C 751.78 710.20 758.34 713.17 764.88 715.88 C 775.23 720.17 784.91 726.22 792.96 734.05 C 803.10 743.51 814.56 752.86 819.07 766.51 C 822.07 764.63 825.22 763.00 828.33 761.31 C 832.54 759.03 836.03 755.69 839.77 752.75 C 844.17 749.27 847.11 744.25 848.98 739.03 C 852.14 728.94 852.02 717.97 849.36 707.79 C 845.74 692.16 838.56 677.19 827.72 665.28 C 819.38 655.48 809.70 646.80 802.35 636.18 M 385.17 677.21 C 374.29 690.14 367.41 705.79 357.70 719.54 C 366.53 723.26 373.60 730.17 378.90 738.02 C 389.51 753.64 394.23 773.26 391.52 791.98 C 406.73 782.14 422.16 772.59 436.66 761.70 C 445.18 755.31 453.93 749.07 461.21 741.23 C 466.88 735.35 471.48 728.56 475.79 721.64 C 459.24 719.67 443.58 712.63 430.34 702.66 C 416.96 692.33 405.23 679.66 396.89 664.90 C 393.09 669.10 388.95 672.98 385.17 677.21 M 718.97 724.88 C 708.71 731.01 700.69 740.01 691.75 747.80 C 677.89 760.58 663.79 773.11 650.36 786.37 C 629.60 807.37 607.57 827.10 584.48 845.50 C 593.30 853.54 598.11 865.29 599.12 877.05 C 599.94 881.25 600.48 887.12 605.30 888.62 C 608.97 889.42 613.95 889.97 616.49 886.53 C 624.12 877.74 632.86 869.87 643.03 864.13 C 656.79 856.04 670.83 848.42 684.98 841.03 C 706.29 830.52 728.11 820.90 748.45 808.51 C 758.63 802.38 768.47 795.69 778.70 789.63 C 790.60 781.63 803.39 775.10 815.97 768.25 C 809.02 754.72 796.93 745.12 785.96 735.03 C 777.97 727.78 768.34 722.62 758.37 718.67 C 753.12 716.64 747.81 714.07 742.08 714.02 C 733.94 716.53 726.14 720.28 718.97 724.88 M 344.91 723.81 C 327.21 729.74 309.62 736.67 294.00 747.04 C 281.91 755.05 270.54 764.12 259.70 773.73 C 244.54 787.32 232.16 803.58 218.98 819.01 C 207.28 832.89 193.87 845.18 180.61 857.54 C 174.33 863.15 168.41 869.19 161.60 874.19 C 164.63 876.22 167.80 878.07 170.53 880.53 C 180.41 890.05 185.66 903.63 186.01 917.26 C 195.05 911.72 203.34 905.06 211.98 898.94 C 218.84 893.85 226.15 889.20 231.82 882.73 C 237.00 876.96 244.01 873.37 250.70 869.66 C 268.18 860.62 285.77 851.74 302.72 841.73 C 329.07 826.08 356.82 812.95 383.11 797.19 C 384.40 796.28 386.25 795.52 386.29 793.68 C 388.93 777.19 385.56 759.94 377.71 745.27 C 372.39 735.32 364.00 726.51 353.08 722.91 C 350.38 721.69 347.54 723.08 344.91 723.81 M 564.30 861.26 C 554.48 867.46 543.30 871.69 534.68 879.66 C 527.88 885.77 525.01 895.11 524.52 903.99 C 524.69 912.95 531.59 919.71 538.13 924.93 C 549.70 933.54 561.55 941.81 574.18 948.81 C 582.65 953.45 588.66 961.19 594.11 968.95 C 600.37 976.90 606.96 986.12 617.35 988.66 C 629.11 991.19 641.28 989.70 653.07 988.13 C 658.82 987.79 664.63 981.92 662.10 976.01 C 657.58 963.60 643.76 958.79 636.75 948.24 C 631.72 940.67 628.26 932.19 625.45 923.58 C 622.00 913.43 621.55 902.58 621.70 891.95 C 614.88 893.88 606.93 895.39 600.51 891.52 C 594.79 887.67 594.40 880.19 593.39 874.03 C 592.08 864.47 587.61 855.44 580.97 848.47 C 575.83 853.24 570.43 857.79 564.30 861.26 M 125.43 888.56 C 117.15 893.15 109.62 899.28 104.07 907.00 C 118.32 913.75 128.77 926.58 135.51 940.55 C 141.18 952.43 144.40 966.18 140.95 979.20 C 155.09 965.15 167.11 948.95 176.03 931.12 C 178.40 926.05 180.88 920.73 180.75 915.01 C 180.43 903.62 175.46 892.58 167.58 884.42 C 164.62 881.48 161.11 879.20 157.80 876.69 C 147.35 881.58 135.59 882.96 125.43 888.56 M 96.36 925.98 C 94.60 938.15 87.19 948.30 82.52 959.40 C 80.43 965.17 78.97 972.10 82.34 977.69 C 85.51 982.90 91.67 985.24 97.39 986.39 C 108.20 988.22 119.42 988.69 130.19 986.30 C 134.23 985.59 135.70 981.13 136.87 977.75 C 139.70 966.66 136.51 955.06 132.01 944.87 C 125.50 930.76 115.16 917.70 100.80 911.06 C 98.35 915.70 97.05 920.80 96.36 925.98 Z" />
		<path fill="#020202" opacity="1.00"
			d=" M 721.87 307.96 C 724.34 304.71 725.44 300.26 729.20 298.15 C 728.99 302.66 726.83 306.68 724.29 310.29 C 715.75 322.69 706.03 334.28 697.89 346.96 C 692.67 355.59 690.04 365.42 687.12 374.99 C 686.45 377.28 685.19 379.32 683.86 381.28 C 683.38 374.77 685.35 368.47 687.20 362.32 C 689.47 355.32 691.92 348.23 696.14 342.13 C 704.28 330.42 713.68 319.64 721.87 307.96 Z" />
		<path fill="#020202" opacity="1.00"
			d=" M 753.23 312.25 C 755.68 306.15 761.31 301.03 768.02 300.46 C 769.66 300.14 770.73 301.48 771.79 302.48 C 767.37 304.59 762.65 306.64 759.80 310.85 C 755.67 315.66 754.57 322.17 750.91 327.24 C 748.27 322.26 751.31 316.89 753.23 312.25 Z" />
		<path fill="#020202" opacity="1.00"
			d=" M 594.87 367.89 C 598.76 362.40 601.56 355.74 607.43 351.99 C 606.38 358.12 602.28 362.99 599.27 368.25 C 593.26 377.58 587.79 387.29 581.03 396.12 C 564.88 416.82 547.30 436.34 530.29 456.33 C 523.76 465.00 516.60 473.20 510.54 482.22 C 512.93 482.71 515.33 483.21 517.65 484.03 C 516.88 486.93 513.29 486.43 510.97 486.35 C 508.70 486.37 505.74 484.95 506.39 482.24 C 507.48 477.98 510.60 474.66 513.21 471.26 C 519.31 463.98 524.76 456.17 530.99 449.00 C 544.17 434.12 556.90 418.85 569.47 403.46 C 578.80 392.24 587.16 380.27 594.87 367.89 Z" />
	</g>
	<g id="#f0b58bff">
		<path fill="#f0b58b" opacity="1.00"
			d=" M 763.44 84.41 C 764.45 82.62 766.99 81.87 768.55 83.48 C 772.61 86.15 771.30 91.55 772.63 95.56 C 774.44 101.05 777.96 105.90 782.04 109.95 C 783.48 111.53 785.62 111.99 787.62 112.46 C 788.35 101.09 794.31 91.10 801.01 82.23 C 797.78 89.79 795.32 97.64 793.40 105.62 C 791.01 114.91 787.28 123.78 783.57 132.60 C 779.67 142.22 772.91 150.33 765.76 157.72 C 760.39 162.94 754.47 168.11 747.07 170.06 C 745.55 168.34 744.04 166.60 742.54 164.87 C 744.95 157.54 744.02 149.24 740.96 142.26 C 737.90 148.29 741.03 155.05 740.16 161.43 C 731.60 150.76 718.40 145.17 705.57 141.50 C 698.85 139.63 691.92 138.66 685.02 137.78 C 693.33 130.73 697.70 119.99 698.40 109.27 C 704.63 116.61 712.72 122.67 722.26 124.81 C 733.07 127.62 745.16 125.82 754.21 119.10 C 752.73 126.96 748.09 133.90 747.48 141.97 C 747.23 146.22 745.74 151.61 749.54 154.76 C 750.61 149.64 750.67 144.35 752.14 139.30 C 753.60 132.66 757.68 126.86 758.45 120.04 C 759.53 114.01 757.47 108.02 757.86 101.98 C 758.22 95.80 759.88 89.54 763.44 84.41 Z" />
		<path fill="#f0b58b" opacity="1.00"
			d=" M 735.40 259.32 C 742.64 253.51 752.17 250.39 761.42 252.36 C 774.08 253.87 784.91 260.92 796.49 265.59 C 795.44 286.41 797.84 307.21 798.10 328.03 C 798.02 348.05 797.93 368.18 794.38 387.95 C 792.59 399.10 789.96 410.07 787.22 421.01 C 784.43 431.62 779.90 441.72 777.74 452.51 C 775.19 464.67 774.33 477.15 771.34 489.22 C 769.38 497.57 761.71 502.56 755.01 507.00 C 750.62 509.82 746.12 512.48 741.85 515.47 C 730.07 509.62 718.26 503.76 706.00 498.99 C 703.59 498.06 701.30 496.87 699.20 495.39 C 700.67 494.60 702.29 493.83 704.04 494.21 C 712.10 495.14 719.59 498.45 727.28 500.84 C 731.30 502.27 736.24 501.45 738.99 498.01 C 740.90 495.44 742.80 492.73 743.65 489.61 C 739.55 489.14 737.95 493.94 734.98 495.90 C 732.40 498.34 728.79 497.03 725.89 496.01 C 718.55 493.19 710.98 490.62 703.08 490.04 C 719.59 481.22 733.08 467.53 750.22 459.74 C 751.47 461.78 752.78 463.81 754.35 465.64 C 754.87 462.75 755.12 459.71 754.07 456.91 C 750.12 444.34 747.13 431.51 744.70 418.56 C 741.97 402.79 738.34 387.09 737.94 371.02 C 736.51 351.23 740.89 331.69 742.62 312.07 C 743.24 303.06 744.71 294.01 743.43 285.00 C 742.22 276.07 740.67 266.87 735.40 259.32 M 753.23 312.25 C 751.31 316.89 748.27 322.26 750.91 327.24 C 754.57 322.17 755.67 315.66 759.80 310.85 C 762.65 306.64 767.37 304.59 771.79 302.48 C 770.73 301.48 769.66 300.14 768.02 300.46 C 761.31 301.03 755.68 306.15 753.23 312.25 Z" />
		<path fill="#f0b58b" opacity="1.00"
			d=" M 515.34 320.79 C 524.11 325.32 533.96 327.68 543.84 326.66 C 543.98 338.42 543.51 350.25 541.32 361.83 C 538.98 370.76 534.67 379.53 527.55 385.60 C 515.54 396.68 503.12 407.73 494.52 421.80 C 486.11 408.22 484.92 391.20 488.78 375.95 C 492.43 361.51 500.68 348.91 508.22 336.26 C 511.12 331.37 513.63 326.23 515.34 320.79 Z" />
		<path fill="#f0b58b" opacity="1.00"
			d=" M 677.26 485.57 C 684.20 486.36 690.51 489.44 696.87 492.10 C 696.62 494.01 695.63 496.26 697.06 497.95 C 698.61 499.87 701.05 500.70 703.24 501.71 C 711.79 505.18 720.00 509.40 728.29 513.44 C 725.57 515.11 723.13 517.43 720.02 518.33 C 716.54 518.19 713.57 516.12 710.79 514.25 C 698.72 505.76 688.74 494.78 677.26 485.57 Z" />
		<path fill="#f0b58b" opacity="1.00"
			d=" M 663.91 494.31 C 673.41 493.37 679.21 505.11 688.95 502.52 C 694.54 507.89 700.46 512.90 706.54 517.72 C 705.54 518.84 704.84 521.00 702.97 520.70 C 697.41 520.18 692.75 516.77 688.21 513.84 C 681.58 509.58 675.30 504.83 668.93 500.20 C 666.98 498.56 664.28 497.08 663.91 494.31 Z" />
		<path fill="#f0b58b" opacity="1.00"
			d=" M 652.07 515.67 C 658.58 511.28 667.40 514.21 673.76 509.44 C 678.60 513.03 683.58 516.42 688.66 519.66 C 676.50 517.98 664.10 518.15 652.07 515.67 Z" />
		<path fill="#f0b58b" opacity="1.00"
			d=" M 802.35 636.18 C 809.70 646.80 819.38 655.48 827.72 665.28 C 838.56 677.19 845.74 692.16 849.36 707.79 C 852.02 717.97 852.14 728.94 848.98 739.03 C 847.11 744.25 844.17 749.27 839.77 752.75 C 836.03 755.69 832.54 759.03 828.33 761.31 C 825.22 763.00 822.07 764.63 819.07 766.51 C 814.56 752.86 803.10 743.51 792.96 734.05 C 784.91 726.22 775.23 720.17 764.88 715.88 C 758.34 713.17 751.78 710.20 744.70 709.28 C 742.10 708.99 739.70 707.95 737.36 706.88 C 752.55 698.99 766.62 688.82 778.40 676.37 C 789.03 664.84 798.19 651.46 802.35 636.18 Z" />
		<path fill="#f0b58b" opacity="1.00"
			d=" M 385.17 677.21 C 388.95 672.98 393.09 669.10 396.89 664.90 C 405.23 679.66 416.96 692.33 430.34 702.66 C 443.58 712.63 459.24 719.67 475.79 721.64 C 471.48 728.56 466.88 735.35 461.21 741.23 C 453.93 749.07 445.18 755.31 436.66 761.70 C 422.16 772.59 406.73 782.14 391.52 791.98 C 394.23 773.26 389.51 753.64 378.90 738.02 C 373.60 730.17 366.53 723.26 357.70 719.54 C 367.41 705.79 374.29 690.14 385.17 677.21 Z" />
	</g>
	<g id="#f11b27ff">
		<path fill="var(--shirt-color, grey)" opacity="1.00"
			d=" M 636.91 146.84 C 647.70 141.55 659.99 139.49 671.94 140.72 C 690.52 142.44 709.85 144.96 726.01 155.04 C 737.33 161.50 742.28 175.99 755.34 179.86 C 763.85 183.16 772.54 186.06 780.69 190.23 C 785.41 192.65 790.42 195.02 793.83 199.24 C 797.77 203.75 798.92 209.80 800.35 215.43 C 802.29 223.16 801.67 231.19 802.43 239.06 C 803.23 246.67 803.64 254.32 805.01 261.86 C 794.05 258.91 784.68 252.08 773.74 249.11 C 764.10 246.37 753.32 244.78 743.80 248.81 C 736.37 252.11 730.33 258.01 726.18 264.93 C 725.72 257.32 725.27 249.69 725.54 242.06 C 725.68 236.95 726.22 231.84 725.60 226.74 C 722.56 232.30 722.57 238.80 722.27 244.96 C 722.11 255.44 721.92 266.10 724.64 276.31 C 725.63 280.40 727.07 284.69 730.42 287.48 C 732.83 289.78 736.18 290.46 739.30 291.25 C 738.28 313.63 734.00 335.70 732.83 358.07 C 732.72 372.23 733.97 386.43 736.76 400.33 C 729.87 408.51 721.28 415.23 711.37 419.38 C 701.67 423.22 691.93 427.25 683.37 433.32 C 678.16 436.98 672.21 440.83 670.10 447.17 C 671.58 448.12 673.00 447.31 674.14 446.29 C 684.18 437.26 696.33 430.97 708.72 425.83 C 717.14 422.54 725.18 418.06 731.91 411.98 C 727.53 419.66 725.46 428.31 723.64 436.88 C 719.61 451.53 714.33 465.80 710.55 480.53 C 706.58 483.23 702.42 485.65 698.04 487.60 C 690.37 484.11 682.07 479.97 673.40 481.76 C 671.22 482.04 670.22 484.66 671.77 486.28 C 675.40 490.61 680.15 493.83 683.97 498.01 C 677.90 494.87 672.15 489.82 664.93 490.05 C 661.91 489.97 658.39 492.48 659.33 495.82 C 661.05 500.83 666.06 503.50 669.97 506.65 C 664.18 507.68 658.12 507.47 652.55 509.54 C 649.47 510.67 646.93 514.32 648.48 517.57 C 649.76 520.43 653.20 520.77 655.93 521.13 C 665.23 522.11 674.58 522.61 683.88 523.63 C 690.29 524.56 696.85 523.58 703.16 525.37 C 701.88 533.44 701.14 541.62 701.66 549.78 C 690.51 561.57 676.86 570.50 663.22 579.10 C 654.46 584.38 645.15 588.97 635.17 591.43 C 626.28 593.59 617.12 594.79 607.97 594.82 C 588.96 594.08 571.45 585.67 554.75 577.28 C 540.32 570.42 527.66 560.56 515.13 550.78 C 505.85 543.86 497.64 535.66 488.86 528.14 C 484.66 524.62 479.87 520.80 478.92 515.06 C 478.25 508.72 480.75 502.69 482.62 496.77 C 484.67 490.39 485.57 483.70 485.49 477.00 C 485.35 464.74 486.01 452.16 490.49 440.61 C 494.81 430.51 500.36 420.84 507.33 412.33 C 512.97 406.32 518.53 400.21 524.75 394.79 C 533.73 386.76 541.55 377.56 549.81 368.82 C 560.30 357.78 569.95 345.93 577.94 332.95 C 582.59 325.19 589.07 318.16 591.15 309.15 C 586.96 313.09 584.13 318.17 580.76 322.77 C 569.84 338.57 558.19 353.93 544.75 367.68 C 548.31 357.15 548.68 345.97 549.15 334.97 C 549.85 309.66 545.58 284.42 547.62 259.11 C 548.28 244.30 552.43 229.85 558.34 216.32 C 562.38 207.34 567.28 198.39 574.92 191.96 C 583.37 185.36 587.81 174.73 597.05 169.00 C 601.02 166.98 605.56 166.44 609.62 164.59 C 619.86 160.52 627.12 151.68 636.91 146.84 M 721.87 307.96 C 713.68 319.64 704.28 330.42 696.14 342.13 C 691.92 348.23 689.47 355.32 687.20 362.32 C 685.35 368.47 683.38 374.77 683.86 381.28 C 685.19 379.32 686.45 377.28 687.12 374.99 C 690.04 365.42 692.67 355.59 697.89 346.96 C 706.03 334.28 715.75 322.69 724.29 310.29 C 726.83 306.68 728.99 302.66 729.20 298.15 C 725.44 300.26 724.34 304.71 721.87 307.96 M 594.87 367.89 C 587.16 380.27 578.80 392.24 569.47 403.46 C 556.90 418.85 544.17 434.12 530.99 449.00 C 524.76 456.17 519.31 463.98 513.21 471.26 C 510.60 474.66 507.48 477.98 506.39 482.24 C 505.74 484.95 508.70 486.37 510.97 486.35 C 513.29 486.43 516.88 486.93 517.65 484.03 C 515.33 483.21 512.93 482.71 510.54 482.22 C 516.60 473.20 523.76 465.00 530.29 456.33 C 547.30 436.34 564.88 416.82 581.03 396.12 C 587.79 387.29 593.26 377.58 599.27 368.25 C 602.28 362.99 606.38 358.12 607.43 351.99 C 601.56 355.74 598.76 362.40 594.87 367.89 Z" />
		<path fill="var(--shirt-color, grey)" opacity="1.00"
			d=" M 530.78 252.69 C 535.71 240.19 543.84 229.40 551.61 218.56 C 548.45 226.87 545.43 235.30 543.77 244.05 C 539.47 269.50 543.21 295.26 543.82 320.82 C 532.51 321.96 521.60 318.13 511.57 313.33 C 513.88 307.05 517.19 301.22 520.16 295.24 C 526.56 281.82 524.33 266.09 530.78 252.69 Z" />
		<path fill="var(--shirt-color, grey)" opacity="1.00"
			d=" M 730.49 279.66 C 728.16 274.14 729.44 267.94 732.20 262.84 C 735.57 270.65 738.47 278.83 739.02 287.39 C 735.54 285.71 731.80 283.56 730.49 279.66 Z" />
	</g>
	<g id="#2b3dcdff">
		<path fill="var(--pants-color, grey)" opacity="1.00"
			d=" M 449.80 531.76 C 457.68 525.47 466.43 520.35 474.16 513.86 C 475.27 517.58 476.05 521.52 478.12 524.87 C 480.42 527.92 483.63 530.08 486.47 532.58 C 494.24 538.77 500.89 546.20 508.75 552.28 C 522.50 563.14 536.38 574.17 552.27 581.77 C 569.16 590.09 586.84 598.51 606.03 598.98 C 624.68 600.50 643.64 596.08 659.90 586.88 C 670.17 581.07 679.90 574.36 689.42 567.41 C 694.78 563.44 699.79 558.99 704.24 554.01 C 709.07 557.79 715.85 558.17 719.93 563.03 C 729.16 572.55 740.03 580.58 752.28 585.76 C 761.15 589.58 770.81 591.66 779.06 596.88 C 783.70 599.83 788.18 603.04 792.61 606.30 C 795.16 608.28 798.23 610.41 798.65 613.89 C 800.69 624.40 798.12 635.25 793.80 644.87 C 786.26 661.47 773.66 675.25 759.66 686.68 C 742.35 700.45 721.94 710.90 700.02 714.67 C 693.14 715.68 686.11 716.26 679.18 715.43 C 672.34 714.24 666.69 709.82 661.32 705.70 C 649.51 696.12 638.52 685.36 625.19 677.83 C 614.11 671.08 601.79 666.46 591.38 658.59 C 588.53 656.59 586.14 653.88 582.90 652.50 C 579.58 654.56 577.07 657.67 573.82 659.86 C 569.27 663.22 563.68 664.78 559.13 668.15 C 552.33 672.99 548.03 680.36 542.06 686.07 C 536.45 691.88 529.95 696.70 523.68 701.75 C 517.96 706.49 511.94 711.07 505.04 713.95 C 493.94 717.80 481.76 718.12 470.30 715.78 C 453.39 712.18 438.03 703.21 425.13 691.88 C 415.31 683.25 407.36 672.79 400.05 662.02 C 401.16 659.77 402.19 657.46 402.75 655.00 C 404.53 646.95 408.01 639.44 410.76 631.70 C 416.94 615.68 420.71 598.89 424.46 582.17 C 427.94 570.36 429.37 557.90 434.56 546.63 C 437.64 539.94 444.27 536.17 449.80 531.76 Z" />
		<path fill="var(--socks-color, grey)" opacity="1.00"
			d=" M 718.97 724.88 C 726.14 720.28 733.94 716.53 742.08 714.02 C 747.81 714.07 753.12 716.64 758.37 718.67 C 768.34 722.62 777.97 727.78 785.96 735.03 C 796.93 745.12 809.02 754.72 815.97 768.25 C 803.39 775.10 790.60 781.63 778.70 789.63 C 768.47 795.69 758.63 802.38 748.45 808.51 C 728.11 820.90 706.29 830.52 684.98 841.03 C 670.83 848.42 656.79 856.04 643.03 864.13 C 632.86 869.87 624.12 877.74 616.49 886.53 C 613.95 889.97 608.97 889.42 605.30 888.62 C 600.48 887.12 599.94 881.25 599.12 877.05 C 598.11 865.29 593.30 853.54 584.48 845.50 C 607.57 827.10 629.60 807.37 650.36 786.37 C 663.79 773.11 677.89 760.58 691.75 747.80 C 700.69 740.01 708.71 731.01 718.97 724.88 Z" />
		<path fill="var(--socks-color, grey)" opacity="1.00"
			d=" M 344.91 723.81 C 347.54 723.08 350.38 721.69 353.08 722.91 C 364.00 726.51 372.39 735.32 377.71 745.27 C 385.56 759.94 388.93 777.19 386.29 793.68 C 386.25 795.52 384.40 796.28 383.11 797.19 C 356.82 812.95 329.07 826.08 302.72 841.73 C 285.77 851.74 268.18 860.62 250.70 869.66 C 244.01 873.37 237.00 876.96 231.82 882.73 C 226.15 889.20 218.84 893.85 211.98 898.94 C 203.34 905.06 195.05 911.72 186.01 917.26 C 185.66 903.63 180.41 890.05 170.53 880.53 C 167.80 878.07 164.63 876.22 161.60 874.19 C 168.41 869.19 174.33 863.15 180.61 857.54 C 193.87 845.18 207.28 832.89 218.98 819.01 C 232.16 803.58 244.54 787.32 259.70 773.73 C 270.54 764.12 281.91 755.05 294.00 747.04 C 309.62 736.67 327.21 729.74 344.91 723.81 Z" />
	</g>
	<g id="#4d4d4dff">
		<path fill="#4d4d4d" opacity="1.00"
			d=" M 564.30 861.26 C 570.43 857.79 575.83 853.24 580.97 848.47 C 587.61 855.44 592.08 864.47 593.39 874.03 C 594.40 880.19 594.79 887.67 600.51 891.52 C 606.93 895.39 614.88 893.88 621.70 891.95 C 621.55 902.58 622.00 913.43 625.45 923.58 C 628.26 932.19 631.72 940.67 636.75 948.24 C 643.76 958.79 657.58 963.60 662.10 976.01 C 664.63 981.92 658.82 987.79 653.07 988.13 C 641.28 989.70 629.11 991.19 617.35 988.66 C 606.96 986.12 600.37 976.90 594.11 968.95 C 588.66 961.19 582.65 953.45 574.18 948.81 C 561.55 941.81 549.70 933.54 538.13 924.93 C 531.59 919.71 524.69 912.95 524.52 903.99 C 525.01 895.11 527.88 885.77 534.68 879.66 C 543.30 871.69 554.48 867.46 564.30 861.26 Z" />
		<path fill="#4d4d4d" opacity="1.00"
			d=" M 125.43 888.56 C 135.59 882.96 147.35 881.58 157.80 876.69 C 161.11 879.20 164.62 881.48 167.58 884.42 C 175.46 892.58 180.43 903.62 180.75 915.01 C 180.88 920.73 178.40 926.05 176.03 931.12 C 167.11 948.95 155.09 965.15 140.95 979.20 C 144.40 966.18 141.18 952.43 135.51 940.55 C 128.77 926.58 118.32 913.75 104.07 907.00 C 109.62 899.28 117.15 893.15 125.43 888.56 Z" />
		<path fill="#4d4d4d" opacity="1.00"
			d=" M 96.36 925.98 C 97.05 920.80 98.35 915.70 100.80 911.06 C 115.16 917.70 125.50 930.76 132.01 944.87 C 136.51 955.06 139.70 966.66 136.87 977.75 C 135.70 981.13 134.23 985.59 130.19 986.30 C 119.42 988.69 108.20 988.22 97.39 986.39 C 91.67 985.24 85.51 982.90 82.34 977.69 C 78.97 972.10 80.43 965.17 82.52 959.40 C 87.19 948.30 94.60 938.15 96.36 925.98 Z" />
	</g>
</svg>