<?xml version="1.0" encoding="UTF-8" ?>
<!DOCTYPE svg PUBLIC "-//W3C//DTD SVG 1.1//EN" "http://www.w3.org/Graphics/SVG/1.1/DTD/svg11.dtd">
<svg width="1000pt" height="1000pt" viewBox="0 0 1000 1000" version="1.1" xmlns="http://www.w3.org/2000/svg">
	<g id="#020202ff">
		<path fill="#020202" opacity="1.00"
			d=" M 634.17 12.29 C 650.84 7.34 669.78 8.95 684.56 18.49 C 700.94 28.80 710.56 47.93 711.36 67.00 C 710.71 77.44 707.97 87.62 705.07 97.62 C 703.73 95.91 702.41 94.19 701.08 92.48 C 698.58 100.78 697.83 109.45 696.07 117.92 C 694.41 127.17 691.62 136.24 687.27 144.59 C 697.17 150.68 706.91 157.03 716.69 163.32 C 723.49 167.59 729.75 173.05 733.85 180.04 C 739.81 190.27 740.75 202.46 745.96 213.01 C 750.86 223.02 755.69 233.09 761.47 242.62 C 763.92 247.01 767.68 250.93 768.36 256.09 C 766.03 257.78 763.32 258.78 760.72 259.96 C 763.03 263.42 765.24 266.95 767.32 270.56 C 771.80 266.62 776.20 262.57 780.82 258.79 C 785.70 254.65 792.69 255.38 798.47 256.80 C 803.82 258.42 809.41 260.46 813.30 264.65 C 817.54 269.49 818.09 276.15 820.03 282.03 C 821.20 285.78 824.31 288.42 826.10 291.83 C 827.67 295.04 826.00 298.65 824.48 301.54 C 820.82 307.66 815.65 312.65 811.07 318.05 C 809.09 320.55 806.90 323.49 807.63 326.88 C 808.69 334.23 810.22 341.76 808.45 349.14 C 806.94 356.60 802.06 362.64 797.62 368.57 C 793.71 373.69 789.23 378.93 782.91 380.99 C 778.20 382.83 773.12 381.12 768.68 379.34 C 759.54 375.42 751.03 369.97 743.75 363.21 C 737.19 357.37 733.46 349.20 731.01 340.94 C 725.79 326.80 722.29 311.79 714.20 298.90 C 708.15 290.31 702.00 281.78 696.38 272.90 C 694.97 280.43 693.96 288.11 691.08 295.26 C 687.65 305.21 681.59 313.93 677.70 323.67 C 673.75 332.81 670.55 342.37 669.20 352.26 C 668.17 357.25 667.78 362.42 668.66 367.48 C 669.51 372.53 670.00 377.75 668.75 382.79 C 667.54 388.50 663.88 393.30 662.40 398.91 C 661.17 403.41 664.50 407.50 664.17 411.99 C 663.50 419.19 660.94 426.10 657.45 432.40 C 654.87 437.62 651.63 442.93 651.73 448.96 C 651.72 455.84 651.91 462.72 652.41 469.59 C 650.58 471.68 648.43 473.45 646.21 475.11 C 646.54 487.70 643.05 499.88 640.22 512.02 C 637.11 527.35 634.38 542.83 628.99 557.58 C 635.06 565.14 641.79 572.44 645.50 581.54 C 651.25 595.59 650.21 611.74 644.63 625.67 C 640.31 635.73 634.06 645.66 624.40 651.32 C 620.70 653.67 618.35 657.48 615.99 661.06 C 605.71 677.67 600.56 696.73 592.30 714.31 C 584.54 730.67 576.29 746.91 565.45 761.48 C 557.65 772.23 547.36 780.88 539.72 791.75 C 528.34 806.28 522.06 824.06 518.03 841.88 C 522.77 851.20 523.23 861.81 524.83 871.95 C 525.46 876.89 528.04 881.23 530.72 885.33 C 536.56 894.22 541.05 904.33 541.86 915.03 C 542.11 919.56 540.28 925.76 535.02 926.40 C 528.69 926.92 522.76 924.20 516.82 922.45 C 508.27 919.63 499.15 919.32 490.55 916.66 C 480.31 913.53 470.15 907.97 464.23 898.75 C 462.13 895.84 460.32 892.68 457.80 890.11 C 455.57 888.38 452.56 888.41 449.94 887.73 C 443.82 886.40 437.34 883.49 434.37 877.64 C 431.53 871.67 432.04 864.65 433.70 858.43 C 436.74 848.42 444.96 841.07 453.44 835.49 C 460.12 831.37 465.56 825.53 470.38 819.42 C 474.09 811.27 478.31 803.36 482.39 795.39 C 469.96 806.34 456.35 815.92 441.81 823.87 C 425.92 832.94 408.59 839.69 394.21 851.23 C 384.74 858.34 377.53 867.82 369.07 876.00 C 361.59 891.76 356.50 908.63 352.41 925.59 C 349.39 939.32 347.47 953.38 342.54 966.61 C 339.91 973.60 335.12 980.30 328.11 983.38 C 322.83 985.41 317.19 982.43 314.23 978.00 C 310.29 972.18 302.59 969.97 299.73 963.31 C 296.90 956.98 296.49 949.88 296.58 943.05 C 297.03 928.27 300.64 913.88 303.77 899.50 C 305.15 893.26 305.53 886.83 304.90 880.47 C 303.75 865.44 301.33 849.78 306.35 835.17 C 309.06 826.91 316.55 821.40 324.33 818.29 C 328.73 816.61 333.82 816.02 338.27 817.84 C 341.53 819.23 343.59 822.25 345.72 824.94 C 351.80 816.40 359.28 809.04 365.93 800.98 C 372.16 793.58 375.43 784.36 379.84 775.88 C 390.61 754.23 408.34 736.32 429.18 724.21 C 433.93 721.25 439.71 719.80 443.51 715.47 C 450.49 708.36 454.40 698.97 457.76 689.76 C 460.16 682.56 462.59 675.35 464.20 667.93 C 466.01 659.93 465.84 651.64 467.82 643.67 C 464.05 641.76 460.31 639.81 456.48 638.04 C 455.56 632.82 458.43 628.15 460.71 623.71 C 466.32 613.93 471.78 603.83 474.44 592.80 C 475.46 586.81 476.61 579.12 471.31 574.73 C 464.32 568.80 456.20 563.35 452.41 554.65 C 448.42 546.04 450.56 535.97 446.75 527.36 C 443.09 521.73 437.81 517.19 435.16 510.89 C 431.44 503.72 431.64 495.27 433.41 487.58 C 437.38 471.17 442.05 454.88 444.58 438.17 C 445.56 430.96 445.90 423.55 444.36 416.40 C 442.70 412.28 437.17 410.02 437.76 405.00 C 438.49 397.62 443.86 391.90 448.81 386.84 C 452.87 382.70 456.02 377.73 458.61 372.57 C 460.75 368.61 458.44 364.19 458.69 360.00 C 459.06 351.36 462.78 343.39 465.61 335.35 C 460.82 324.02 461.19 311.50 462.12 299.48 C 463.27 285.34 464.08 271.17 463.84 256.99 C 464.03 247.51 462.99 238.01 463.81 228.54 C 451.00 233.28 437.84 236.93 424.93 241.33 C 422.11 242.37 419.56 240.29 417.12 239.20 C 411.95 241.73 406.43 243.41 400.93 245.08 C 393.48 247.34 386.18 250.09 378.95 252.96 C 371.46 255.91 366.89 262.89 361.61 268.54 C 353.77 276.76 346.44 285.54 337.53 292.66 C 324.67 303.03 309.95 310.71 295.40 318.41 C 287.74 322.49 278.93 325.31 273.12 332.08 C 267.44 338.41 267.96 347.96 262.21 354.24 C 258.06 358.64 252.13 360.55 246.70 362.84 C 237.59 366.77 227.98 369.32 218.60 372.50 C 214.83 373.90 210.76 373.58 206.91 372.72 C 200.46 378.36 194.83 385.39 186.84 388.92 C 183.93 390.43 181.08 388.51 179.07 386.49 C 177.40 386.47 175.20 387.60 174.06 385.85 C 172.40 382.88 173.25 379.18 174.35 376.15 C 179.78 362.88 188.11 351.08 196.50 339.54 C 200.10 334.56 205.63 331.57 211.14 329.14 C 227.75 321.12 243.71 310.82 255.52 296.45 C 262.75 287.07 270.22 277.88 277.34 268.42 C 286.22 256.74 296.79 246.32 308.69 237.73 C 318.32 230.40 329.07 224.76 339.31 218.34 C 352.32 210.23 366.54 204.08 378.87 194.89 C 383.68 191.49 388.80 188.53 393.26 184.66 C 393.50 180.03 393.70 175.18 395.90 170.99 C 397.81 167.39 401.85 165.90 405.36 164.33 C 411.92 161.58 418.13 158.07 423.98 154.03 C 429.70 150.16 435.77 146.01 442.92 145.72 C 450.99 137.98 459.52 129.68 470.72 126.95 C 482.75 123.90 494.99 127.39 507.06 128.21 C 520.98 129.51 535.04 127.94 548.56 124.49 C 559.49 121.78 570.77 120.89 582.01 121.23 C 574.97 108.77 573.60 93.75 575.85 79.80 C 581.00 49.00 603.86 21.08 634.17 12.29 M 634.21 61.21 C 633.13 66.65 632.51 72.17 632.04 77.69 C 630.42 75.26 628.81 72.83 627.16 70.43 C 627.82 75.99 627.79 81.63 626.75 87.15 C 631.76 86.44 636.97 85.66 641.95 87.02 C 649.39 89.02 656.59 91.92 663.36 95.60 C 664.99 96.61 667.21 97.74 667.21 99.96 C 667.22 103.09 666.73 106.21 666.09 109.27 C 665.66 110.60 665.54 112.52 663.83 112.77 C 659.70 112.17 655.90 110.29 651.86 109.32 C 641.51 106.56 631.20 103.32 620.53 102.08 C 616.88 107.14 614.10 112.74 611.32 118.30 C 609.08 122.44 607.06 127.28 602.43 129.27 C 603.99 116.14 609.22 103.40 608.46 90.02 C 608.36 85.49 604.05 80.60 599.25 82.30 C 594.74 84.18 593.09 89.51 592.54 93.97 C 592.00 104.16 593.12 114.65 590.39 124.59 C 587.17 129.19 581.11 131.53 578.96 137.02 C 575.48 147.06 578.21 157.86 581.43 167.58 C 586.33 179.96 599.51 185.64 606.75 196.28 C 610.38 201.07 612.14 206.94 613.08 212.81 C 621.46 204.12 629.47 195.00 638.92 187.43 C 631.15 187.41 623.36 184.64 617.55 179.44 C 611.93 174.19 609.02 166.71 607.66 159.30 C 611.38 162.54 612.86 167.41 615.73 171.29 C 621.44 179.54 632.16 183.77 642.00 182.14 C 647.93 181.60 653.28 178.56 657.71 174.72 C 671.93 161.90 683.84 145.93 689.38 127.41 C 686.13 126.46 682.99 125.17 680.02 123.55 C 677.97 128.37 676.46 133.47 673.60 137.90 C 670.94 134.16 671.65 129.34 671.99 125.05 C 672.57 118.77 673.83 112.03 678.51 107.42 C 682.31 102.83 688.89 105.02 694.02 104.76 C 694.91 99.21 696.15 93.69 698.51 88.57 C 696.06 84.76 693.75 80.86 691.69 76.82 C 690.31 82.26 689.56 87.82 688.35 93.29 C 684.41 90.34 680.87 86.82 678.39 82.54 C 675.09 77.34 674.22 71.15 672.52 65.35 C 668.91 72.18 665.62 79.32 665.21 87.16 C 661.11 79.92 657.59 72.12 656.66 63.77 C 649.15 65.40 646.58 73.55 644.95 80.08 C 642.20 73.34 638.39 67.14 634.21 61.21 M 557.61 127.18 C 549.11 128.68 540.82 131.23 532.24 132.25 C 518.91 134.16 505.40 133.15 492.11 131.45 C 482.45 130.25 472.00 130.27 463.43 135.52 C 453.34 141.77 444.96 150.34 436.56 158.63 C 435.54 159.73 434.19 160.42 432.66 160.40 C 432.41 156.23 436.13 153.53 438.36 150.50 C 430.31 154.88 423.64 161.38 415.39 165.42 C 411.17 167.73 406.51 169.07 402.30 171.37 C 399.28 173.02 399.33 176.97 398.96 179.95 C 398.67 190.27 397.70 200.73 399.78 210.94 C 400.55 214.73 401.41 218.85 404.38 221.60 C 410.15 227.15 415.84 232.96 422.96 236.81 C 428.99 234.36 435.09 232.09 441.33 230.22 C 452.53 226.77 463.28 221.65 474.97 220.00 C 470.82 213.51 465.07 208.37 460.05 202.62 C 464.83 202.85 468.56 206.05 471.67 209.36 C 480.54 218.08 484.91 230.00 488.65 241.59 C 490.08 246.48 492.36 251.47 491.22 256.68 C 489.71 254.33 488.52 251.81 487.63 249.18 C 484.70 240.83 481.37 232.63 477.56 224.65 C 474.44 225.60 471.30 226.50 468.15 227.37 C 467.90 239.57 469.04 251.76 468.88 263.97 C 469.19 277.33 468.01 290.65 467.22 303.98 C 467.13 312.41 466.50 321.03 468.83 329.25 C 471.37 338.73 474.63 348.36 480.88 356.10 C 494.96 373.36 513.04 387.78 522.64 408.35 C 525.28 414.78 529.86 420.65 530.30 427.79 C 526.60 424.49 524.85 419.74 522.30 415.61 C 516.39 405.80 510.33 395.97 502.57 387.48 C 493.69 377.34 483.84 367.99 476.02 356.96 C 472.28 351.90 470.75 345.71 467.91 340.18 C 466.30 348.09 462.67 355.86 463.60 364.08 C 466.20 372.36 473.44 377.83 478.65 384.42 C 485.39 392.07 489.56 401.50 493.02 410.98 C 494.09 413.74 494.70 416.77 493.28 419.55 C 489.18 411.67 486.37 403.10 481.13 395.84 C 476.05 387.72 468.63 381.47 463.19 373.64 C 461.29 380.19 458.18 386.49 453.43 391.45 C 448.88 396.26 444.07 401.30 442.33 407.90 C 446.26 411.54 450.03 415.37 454.17 418.78 C 464.65 427.79 477.21 433.81 489.88 439.09 C 498.38 442.64 506.80 446.67 515.90 448.49 C 527.81 450.95 540.05 449.95 552.09 451.19 C 560.35 452.02 568.16 455.09 575.71 458.39 C 592.25 465.95 609.31 472.72 627.16 476.45 C 634.86 478.46 641.21 472.61 647.87 469.81 C 647.97 461.89 646.89 453.96 647.47 446.05 C 649.63 433.40 660.27 423.26 659.38 409.89 C 659.47 408.35 657.57 408.10 656.65 407.34 C 634.84 396.39 614.22 383.31 593.31 370.78 C 583.14 365.20 573.46 358.81 563.70 352.57 C 564.51 352.37 566.13 351.97 566.94 351.77 C 572.47 353.51 577.17 357.11 582.23 359.86 C 607.44 373.90 631.35 390.23 657.19 403.15 C 657.00 396.55 660.44 390.81 662.88 384.93 C 665.14 379.56 664.66 373.62 664.00 367.99 C 663.25 361.60 663.50 355.14 664.50 348.79 C 654.84 355.50 644.60 362.24 632.86 364.49 C 625.89 365.95 618.95 363.35 612.94 360.02 C 604.16 355.09 595.93 349.24 587.92 343.17 C 563.40 324.54 543.28 301.05 522.10 278.90 C 520.76 277.44 519.50 275.75 519.52 273.67 C 522.20 273.32 523.99 275.64 525.84 277.16 C 532.62 283.70 539.82 289.80 546.34 296.60 C 566.83 318.31 588.61 339.29 614.42 354.61 C 619.89 357.73 626.11 360.66 632.58 359.41 C 644.55 357.47 654.63 350.24 665.42 345.21 C 668.31 334.11 671.48 323.02 676.71 312.75 C 681.95 302.77 687.14 292.50 689.12 281.29 C 690.43 274.13 691.29 266.62 695.28 260.34 C 699.33 253.94 703.75 247.45 710.10 243.12 C 713.68 240.88 717.75 238.14 722.18 239.52 C 717.91 243.53 712.51 246.20 708.68 250.71 C 704.62 255.42 701.28 260.71 698.36 266.20 C 704.66 274.74 710.46 283.72 715.46 293.09 C 718.22 285.11 724.88 279.46 730.76 273.75 C 740.63 265.45 751.57 257.75 764.22 254.49 C 754.90 241.75 747.02 227.99 740.45 213.65 C 735.84 203.63 734.88 192.28 729.52 182.57 C 725.27 174.97 718.08 169.68 710.82 165.19 C 702.43 159.38 693.94 153.69 685.80 147.53 C 679.15 159.45 670.25 170.04 660.10 179.11 C 655.83 183.17 649.83 184.62 645.57 188.68 C 642.37 191.47 638.98 194.04 635.69 196.73 C 628.34 202.64 622.20 209.84 615.43 216.36 C 613.82 217.72 612.38 220.46 609.92 219.24 C 608.10 213.37 607.87 206.91 604.46 201.61 C 598.63 191.30 587.29 185.97 580.68 176.31 C 576.40 170.59 574.96 163.45 573.35 156.65 C 571.67 149.49 572.26 141.85 575.05 135.05 C 576.92 130.68 581.03 127.99 584.72 125.29 C 575.67 125.41 566.52 125.37 557.61 127.18 M 375.17 203.15 C 361.17 211.60 346.49 218.89 332.69 227.69 C 313.62 238.38 295.99 252.06 282.58 269.46 C 275.62 278.53 268.35 287.36 261.28 296.35 C 258.46 299.82 255.70 303.38 252.37 306.39 C 245.61 312.40 238.82 318.47 231.00 323.08 C 224.66 326.78 218.35 330.58 211.63 333.58 C 207.06 335.68 202.41 338.20 199.44 342.40 C 191.75 352.99 184.13 363.77 178.68 375.72 C 177.67 377.90 177.14 380.24 176.63 382.58 C 185.56 373.65 192.28 362.89 200.06 353.00 C 204.86 346.94 209.02 339.95 215.85 335.93 C 212.10 342.62 207.28 348.65 202.98 354.99 C 196.71 363.38 191.10 372.28 184.21 380.20 C 182.87 381.52 181.68 384.34 183.99 385.33 C 189.84 383.31 193.93 378.40 198.50 374.48 C 200.83 372.22 203.78 370.43 205.32 367.49 C 208.67 360.73 215.15 356.42 221.12 352.17 C 225.73 348.78 230.76 345.85 236.29 344.27 C 238.01 343.57 239.78 344.36 241.47 344.74 C 236.91 348.00 231.42 349.57 226.87 352.84 C 220.46 357.43 213.72 362.01 209.43 368.79 C 215.06 369.37 220.26 366.94 225.52 365.39 C 235.63 362.37 245.42 358.35 254.98 353.91 C 263.16 349.86 262.13 339.36 266.61 332.58 C 271.50 323.93 280.71 319.31 289.38 315.29 C 303.49 308.10 317.93 301.26 330.59 291.62 C 340.73 284.20 348.84 274.53 357.46 265.50 C 362.90 259.63 367.90 253.01 375.05 249.11 C 386.85 243.25 399.73 240.20 412.13 235.97 C 406.01 230.05 397.45 225.31 395.43 216.40 C 393.10 208.10 392.64 199.41 392.91 190.83 C 387.12 195.11 381.17 199.18 375.17 203.15 M 778.50 266.49 C 773.20 271.72 767.10 276.07 761.90 281.41 C 766.78 280.43 770.54 276.94 774.94 274.84 C 781.38 271.57 787.26 267.35 793.58 263.89 C 793.53 265.40 793.19 266.95 791.74 267.72 C 788.20 270.59 784.04 272.57 780.47 275.39 C 775.55 280.13 770.78 285.16 767.40 291.15 C 769.40 291.16 771.42 291.15 773.44 291.11 C 777.16 285.43 781.65 280.21 787.07 276.09 C 792.29 272.06 797.96 268.10 804.62 267.05 C 803.13 270.98 798.83 272.32 795.85 274.84 C 789.04 279.67 783.96 286.38 779.12 293.07 C 786.06 291.22 792.92 288.99 800.01 287.80 C 805.39 287.28 810.72 286.34 816.11 285.77 C 813.16 279.21 813.33 270.60 807.05 266.01 C 801.08 262.23 794.13 259.54 787.02 259.37 C 783.57 260.90 781.26 264.05 778.50 266.49 M 718.52 296.83 C 725.75 307.64 729.02 320.39 733.57 332.42 C 736.85 340.79 738.67 350.23 745.26 356.82 C 753.35 364.94 763.39 371.09 774.09 375.17 C 778.60 377.03 784.53 376.76 787.84 372.79 C 792.19 367.74 796.09 362.30 799.67 356.68 C 803.73 350.26 804.33 342.28 803.03 334.95 C 802.47 330.23 801.00 324.98 803.52 320.58 C 807.32 314.23 812.62 309.00 817.45 303.45 C 819.59 300.96 821.68 298.24 822.36 294.95 C 821.72 292.20 819.25 290.36 817.63 288.18 C 808.49 290.47 799.16 292.62 790.83 297.18 C 798.25 299.59 806.18 298.92 813.70 300.75 C 812.26 301.51 810.71 302.12 809.06 302.04 C 804.35 302.12 799.64 302.15 794.94 302.05 C 792.04 301.87 788.56 301.57 786.77 298.94 C 786.62 297.64 786.57 296.34 786.60 295.04 C 782.77 296.80 778.84 298.62 774.57 298.91 C 776.39 307.56 778.73 316.18 779.19 325.05 C 779.38 327.63 778.96 330.20 778.10 332.63 C 776.80 330.67 775.89 328.49 775.41 326.18 C 773.99 320.05 772.13 314.03 770.38 307.98 C 766.23 313.27 761.99 318.48 757.37 323.36 C 753.46 327.40 750.86 332.57 746.55 336.23 C 746.47 332.56 748.63 329.51 750.57 326.60 C 756.17 318.38 762.16 310.36 769.13 303.23 C 768.92 300.74 768.84 298.24 768.89 295.75 C 766.78 295.35 763.93 295.25 763.18 292.80 C 762.04 289.40 764.92 286.49 766.77 283.98 C 764.05 284.97 760.17 285.53 758.38 282.67 C 756.87 278.70 761.33 276.16 763.67 273.73 C 761.06 269.83 758.86 265.67 756.44 261.65 C 740.60 269.10 726.70 281.24 718.52 296.83 M 449.04 420.51 C 450.33 429.65 449.14 438.89 447.34 447.87 C 444.79 460.46 441.65 472.92 438.57 485.39 C 436.71 493.62 435.91 502.89 440.47 510.43 C 443.15 515.85 447.95 519.80 450.94 525.01 C 455.29 533.98 452.72 544.73 457.38 553.60 C 461.34 561.11 468.80 565.61 474.92 571.14 C 479.13 574.81 480.51 580.61 480.47 585.99 C 480.62 595.21 476.92 603.86 473.14 612.07 C 469.41 620.40 463.95 627.82 460.42 636.25 C 464.84 637.72 469.35 639.14 473.30 641.69 C 479.58 646.31 487.09 649.37 494.92 649.77 C 507.58 650.12 520.17 648.26 532.82 648.28 C 538.73 640.40 545.67 633.31 551.10 625.06 C 552.77 622.40 555.21 620.12 556.17 617.08 C 556.37 612.33 553.08 608.25 549.63 605.36 C 541.84 599.36 531.99 597.32 522.90 594.14 C 517.95 592.02 512.51 589.46 510.08 584.32 C 514.02 581.21 518.04 578.15 521.44 574.43 C 530.71 564.63 537.56 552.65 547.91 543.85 C 557.53 535.74 570.57 534.30 581.29 528.22 C 587.83 524.47 595.45 522.35 603.00 523.01 C 606.27 523.24 607.74 526.47 609.20 528.93 C 613.57 536.88 618.61 544.44 624.03 551.72 C 628.94 535.88 631.61 519.47 636.33 503.59 C 638.72 495.14 640.56 486.54 642.02 477.89 C 638.05 479.95 633.77 482.29 629.13 481.38 C 614.60 479.32 600.75 474.11 587.14 468.81 C 575.26 464.22 563.75 457.80 550.86 456.62 C 538.62 455.60 526.18 456.28 514.12 453.58 C 504.73 451.63 496.01 447.54 487.24 443.79 C 473.44 438.01 459.91 430.99 449.04 420.51 M 583.68 532.64 C 572.81 539.37 558.92 540.32 549.39 549.32 C 537.50 560.58 529.35 575.64 515.38 584.70 C 525.52 591.28 538.15 592.08 548.34 598.58 C 554.80 602.17 560.18 608.60 560.40 616.27 C 565.61 615.31 570.95 615.80 576.08 616.96 C 587.11 619.41 597.63 623.91 607.31 629.69 C 613.83 633.67 620.31 638.34 624.11 645.16 C 638.26 630.84 646.09 609.39 641.24 589.47 C 637.69 575.86 627.01 565.99 618.85 555.07 C 612.73 546.63 607.23 537.57 603.93 527.63 C 596.89 527.60 589.67 528.73 583.68 532.64 M 559.16 621.29 C 555.82 626.30 553.15 631.75 549.37 636.46 C 543.81 643.55 537.57 650.15 532.85 657.87 C 522.35 674.46 515.28 692.97 509.75 711.73 C 501.80 737.80 497.72 764.85 490.09 790.99 C 486.65 801.29 480.49 810.36 476.20 820.29 C 473.85 825.48 473.55 831.52 475.27 836.95 C 475.92 839.90 479.67 839.74 482.03 839.75 C 490.42 838.98 498.46 835.19 507.01 835.96 C 510.02 836.18 512.65 837.76 515.22 839.21 C 516.22 828.12 519.80 817.46 524.35 807.35 C 531.05 792.68 541.75 780.35 552.66 768.66 C 560.32 760.44 566.96 751.31 572.64 741.63 C 581.17 726.57 588.88 711.02 594.93 694.78 C 601.51 678.70 607.42 661.72 619.27 648.61 C 614.11 640.38 605.48 635.28 597.11 630.85 C 585.36 625.14 572.50 619.99 559.16 621.29 M 470.78 645.69 C 470.64 649.78 470.33 653.87 470.08 657.96 C 469.41 670.01 465.67 681.61 461.92 692.99 C 458.04 704.84 451.89 716.61 441.29 723.74 C 441.34 729.67 440.55 735.66 441.72 741.53 C 444.13 754.11 451.98 765.40 462.44 772.67 C 469.66 777.70 478.24 780.29 486.82 781.83 C 493.73 754.21 499.37 726.23 508.24 699.14 C 513.70 683.49 520.04 668.03 528.95 654.00 C 521.95 654.39 514.96 654.92 507.96 655.27 C 500.23 655.53 492.25 656.08 484.84 653.46 C 479.61 651.98 474.91 649.18 470.78 645.69 M 390.21 768.16 C 383.40 778.51 379.76 790.59 372.75 800.80 C 363.32 813.63 350.81 824.26 343.61 838.68 C 339.97 845.92 341.14 854.35 342.97 861.93 C 343.48 863.55 343.81 865.60 345.52 866.43 C 349.40 868.58 353.95 866.95 358.13 867.36 C 361.45 867.46 364.36 869.26 367.07 871.01 C 373.23 864.52 378.81 857.47 385.50 851.49 C 402.16 836.12 423.83 828.39 443.17 817.19 C 458.04 808.64 472.52 798.90 484.35 786.39 C 470.23 785.98 456.95 778.69 447.70 768.24 C 437.76 756.97 432.94 741.41 434.87 726.50 C 416.88 736.44 401.39 750.92 390.21 768.16 M 317.92 828.97 C 311.69 833.98 310.46 842.50 309.85 849.98 C 308.42 866.37 313.77 882.76 310.63 899.07 C 308.29 911.72 304.82 924.19 303.57 937.03 C 302.94 944.34 302.61 951.92 304.81 959.01 C 306.32 964.29 311.13 967.42 314.50 971.43 C 316.91 973.97 318.90 977.26 322.30 978.58 C 325.39 979.62 328.20 977.32 330.32 975.37 C 335.95 970.05 338.23 962.38 340.21 955.14 C 342.69 945.72 344.64 936.18 346.67 926.65 C 350.83 909.03 355.98 891.59 363.31 875.00 C 358.32 870.84 351.53 874.65 346.06 871.94 C 342.15 870.15 339.66 866.25 338.59 862.20 C 337.08 856.30 335.95 850.13 336.67 844.03 C 337.30 838.62 340.05 833.83 342.68 829.18 C 340.09 826.27 337.49 822.20 333.08 822.37 C 327.40 822.49 322.27 825.56 317.92 828.97 M 468.67 828.98 C 462.83 837.48 452.73 841.32 446.03 848.98 C 439.37 855.73 436.13 866.12 438.87 875.32 C 441.35 882.10 449.38 883.03 455.47 884.43 C 462.01 885.74 465.12 892.22 468.98 896.94 C 474.42 904.67 483.14 909.46 492.16 911.73 C 499.27 913.61 506.70 913.59 513.87 915.20 C 521.61 916.81 528.73 920.90 536.76 921.24 C 538.10 911.95 534.48 902.89 530.08 894.92 C 526.60 888.55 521.21 883.10 519.46 875.89 C 517.54 867.69 517.68 859.18 515.89 850.97 C 515.39 847.76 513.33 845.04 510.72 843.22 C 507.07 840.42 502.18 841.31 497.96 841.85 C 490.72 842.80 483.12 846.14 475.95 843.07 C 470.48 840.74 469.57 834.14 468.67 828.98 Z" />
		<path fill="#020202" opacity="1.00"
			d=" M 664.59 143.52 C 668.08 142.28 671.09 140.02 674.51 138.60 C 674.63 141.72 674.67 144.90 674.01 147.97 C 673.71 149.93 671.47 149.86 669.97 150.15 C 666.93 150.49 663.87 150.47 660.84 150.70 C 658.98 148.56 657.24 146.26 656.42 143.51 C 659.14 143.35 661.87 143.80 664.59 143.52 Z" />
		<path fill="#020202" opacity="1.00"
			d=" M 631.24 156.12 C 631.45 153.88 634.12 154.03 635.75 154.44 C 643.06 156.05 650.22 158.33 657.40 160.46 C 659.78 161.08 661.92 162.33 663.73 164.01 C 662.71 166.14 660.79 167.11 658.50 167.16 C 657.12 168.17 655.93 170.21 653.95 169.66 C 648.24 168.55 642.48 167.26 637.11 165.03 C 634.91 164.22 635.26 161.60 634.89 159.76 C 633.57 158.69 631.14 158.19 631.24 156.12 Z" />
		<path fill="#020202" opacity="1.00"
			d=" M 523.42 184.30 C 524.51 183.02 526.50 183.74 527.96 183.70 C 549.00 186.78 569.26 194.53 587.34 205.67 C 591.58 208.42 596.47 210.37 600.06 214.00 C 600.17 214.53 600.39 215.59 600.50 216.12 C 595.25 216.02 591.00 212.56 586.42 210.47 C 571.18 203.10 555.85 195.60 539.38 191.37 C 533.95 189.47 527.95 188.91 523.00 185.88 C 523.11 185.48 523.32 184.69 523.42 184.30 Z" />
	</g>
	<g id="#f0b58bff">
		<path fill="#f0b58b" opacity="1.00"
			d=" M 634.21 61.21 C 638.39 67.14 642.20 73.34 644.95 80.08 C 646.58 73.55 649.15 65.40 656.66 63.77 C 657.59 72.12 661.11 79.92 665.21 87.16 C 665.62 79.32 668.91 72.18 672.52 65.35 C 674.22 71.15 675.09 77.34 678.39 82.54 C 680.87 86.82 684.41 90.34 688.35 93.29 C 689.56 87.82 690.31 82.26 691.69 76.82 C 693.75 80.86 696.06 84.76 698.51 88.57 C 696.15 93.69 694.91 99.21 694.02 104.76 C 688.89 105.02 682.31 102.83 678.51 107.42 C 673.83 112.03 672.57 118.77 671.99 125.05 C 671.65 129.34 670.94 134.16 673.60 137.90 C 676.46 133.47 677.97 128.37 680.02 123.55 C 682.99 125.17 686.13 126.46 689.38 127.41 C 683.84 145.93 671.93 161.90 657.71 174.72 C 653.28 178.56 647.93 181.60 642.00 182.14 C 632.16 183.77 621.44 179.54 615.73 171.29 C 612.86 167.41 611.38 162.54 607.66 159.30 C 609.02 166.71 611.93 174.19 617.55 179.44 C 623.36 184.64 631.15 187.41 638.92 187.43 C 629.47 195.00 621.46 204.12 613.08 212.81 C 612.14 206.94 610.38 201.07 606.75 196.28 C 599.51 185.64 586.33 179.96 581.43 167.58 C 578.21 157.86 575.48 147.06 578.96 137.02 C 581.11 131.53 587.17 129.19 590.39 124.59 C 593.12 114.65 592.00 104.16 592.54 93.97 C 593.09 89.51 594.74 84.18 599.25 82.30 C 604.05 80.60 608.36 85.49 608.46 90.02 C 609.22 103.40 603.99 116.14 602.43 129.27 C 607.06 127.28 609.08 122.44 611.32 118.30 C 614.10 112.74 616.88 107.14 620.53 102.08 C 631.20 103.32 641.51 106.56 651.86 109.32 C 655.90 110.29 659.70 112.17 663.83 112.77 C 665.54 112.52 665.66 110.60 666.09 109.27 C 666.73 106.21 667.22 103.09 667.21 99.96 C 667.21 97.74 664.99 96.61 663.36 95.60 C 656.59 91.92 649.39 89.02 641.95 87.02 C 636.97 85.66 631.76 86.44 626.75 87.15 C 627.79 81.63 627.82 75.99 627.16 70.43 C 628.81 72.83 630.42 75.26 632.04 77.69 C 632.51 72.17 633.13 66.65 634.21 61.21 M 664.59 143.52 C 661.87 143.80 659.14 143.35 656.42 143.51 C 657.24 146.26 658.98 148.56 660.84 150.70 C 663.87 150.47 666.93 150.49 669.97 150.15 C 671.47 149.86 673.71 149.93 674.01 147.97 C 674.67 144.90 674.63 141.72 674.51 138.60 C 671.09 140.02 668.08 142.28 664.59 143.52 M 631.24 156.12 C 631.14 158.19 633.57 158.69 634.89 159.76 C 635.26 161.60 634.91 164.22 637.11 165.03 C 642.48 167.26 648.24 168.55 653.95 169.66 C 655.93 170.21 657.12 168.17 658.50 167.16 C 660.79 167.11 662.71 166.14 663.73 164.01 C 661.92 162.33 659.78 161.08 657.40 160.46 C 650.22 158.33 643.06 156.05 635.75 154.44 C 634.12 154.03 631.45 153.88 631.24 156.12 Z" />
		<path fill="#f0b58b" opacity="1.00"
			d=" M 375.17 203.15 C 381.17 199.18 387.12 195.11 392.91 190.83 C 392.64 199.41 393.10 208.10 395.43 216.40 C 397.45 225.31 406.01 230.05 412.13 235.97 C 399.73 240.20 386.85 243.25 375.05 249.11 C 367.90 253.01 362.90 259.63 357.46 265.50 C 348.84 274.53 340.73 284.20 330.59 291.62 C 317.93 301.26 303.49 308.10 289.38 315.29 C 280.71 319.31 271.50 323.93 266.61 332.58 C 262.13 339.36 263.16 349.86 254.98 353.91 C 245.42 358.35 235.63 362.37 225.52 365.39 C 220.26 366.94 215.06 369.37 209.43 368.79 C 213.72 362.01 220.46 357.43 226.87 352.84 C 231.42 349.57 236.91 348.00 241.47 344.74 C 239.78 344.36 238.01 343.57 236.29 344.27 C 230.76 345.85 225.73 348.78 221.12 352.17 C 215.15 356.42 208.67 360.73 205.32 367.49 C 203.78 370.43 200.83 372.22 198.50 374.48 C 193.93 378.40 189.84 383.31 183.99 385.33 C 181.68 384.34 182.87 381.52 184.21 380.20 C 191.10 372.28 196.71 363.38 202.98 354.99 C 207.28 348.65 212.10 342.62 215.85 335.93 C 209.02 339.95 204.86 346.94 200.06 353.00 C 192.28 362.89 185.56 373.65 176.63 382.58 C 177.14 380.24 177.67 377.90 178.68 375.72 C 184.13 363.77 191.75 352.99 199.44 342.40 C 202.41 338.20 207.06 335.68 211.63 333.58 C 218.35 330.58 224.66 326.78 231.00 323.08 C 238.82 318.47 245.61 312.40 252.37 306.39 C 255.70 303.38 258.46 299.82 261.28 296.35 C 268.35 287.36 275.62 278.53 282.58 269.46 C 295.99 252.06 313.62 238.38 332.69 227.69 C 346.49 218.89 361.17 211.60 375.17 203.15 Z" />
		<path fill="#f0b58b" opacity="1.00"
			d=" M 778.50 266.49 C 781.26 264.05 783.57 260.90 787.02 259.37 C 794.13 259.54 801.08 262.23 807.05 266.01 C 813.33 270.60 813.16 279.21 816.11 285.77 C 810.72 286.34 805.39 287.28 800.01 287.80 C 792.92 288.99 786.06 291.22 779.12 293.07 C 783.96 286.38 789.04 279.67 795.85 274.84 C 798.83 272.32 803.13 270.98 804.62 267.05 C 797.96 268.10 792.29 272.06 787.07 276.09 C 781.65 280.21 777.16 285.43 773.44 291.11 C 771.42 291.15 769.40 291.16 767.40 291.15 C 770.78 285.16 775.55 280.13 780.47 275.39 C 784.04 272.57 788.20 270.59 791.74 267.72 C 793.19 266.95 793.53 265.40 793.58 263.89 C 787.26 267.35 781.38 271.57 774.94 274.84 C 770.54 276.94 766.78 280.43 761.90 281.41 C 767.10 276.07 773.20 271.72 778.50 266.49 Z" />
		<path fill="#f0b58b" opacity="1.00"
			d=" M 718.52 296.83 C 726.70 281.24 740.60 269.10 756.44 261.65 C 758.86 265.67 761.06 269.83 763.67 273.73 C 761.33 276.16 756.87 278.70 758.38 282.67 C 760.17 285.53 764.05 284.97 766.77 283.98 C 764.92 286.49 762.04 289.40 763.18 292.80 C 763.93 295.25 766.78 295.35 768.89 295.75 C 768.84 298.24 768.92 300.74 769.13 303.23 C 762.16 310.36 756.17 318.38 750.57 326.60 C 748.63 329.51 746.47 332.56 746.55 336.23 C 750.86 332.57 753.46 327.40 757.37 323.36 C 761.99 318.48 766.23 313.27 770.38 307.98 C 772.13 314.03 773.99 320.05 775.41 326.18 C 775.89 328.49 776.80 330.67 778.10 332.63 C 778.96 330.20 779.38 327.63 779.19 325.05 C 778.73 316.18 776.39 307.56 774.57 298.91 C 778.84 298.62 782.77 296.80 786.60 295.04 C 786.57 296.34 786.62 297.64 786.77 298.94 C 788.56 301.57 792.04 301.87 794.94 302.05 C 799.64 302.15 804.35 302.12 809.06 302.04 C 810.71 302.12 812.26 301.51 813.70 300.75 C 806.18 298.92 798.25 299.59 790.83 297.18 C 799.16 292.62 808.49 290.47 817.63 288.18 C 819.25 290.36 821.72 292.20 822.36 294.95 C 821.68 298.24 819.59 300.96 817.45 303.45 C 812.62 309.00 807.32 314.23 803.52 320.58 C 801.00 324.98 802.47 330.23 803.03 334.95 C 804.33 342.28 803.73 350.26 799.67 356.68 C 796.09 362.30 792.19 367.74 787.84 372.79 C 784.53 376.76 778.60 377.03 774.09 375.17 C 763.39 371.09 753.35 364.94 745.26 356.82 C 738.67 350.23 736.85 340.79 733.57 332.42 C 729.02 320.39 725.75 307.64 718.52 296.83 Z" />
		<path fill="#f0b58b" opacity="1.00"
			d=" M 583.68 532.64 C 589.67 528.73 596.89 527.60 603.93 527.63 C 607.23 537.57 612.73 546.63 618.85 555.07 C 627.01 565.99 637.69 575.86 641.24 589.47 C 646.09 609.39 638.26 630.84 624.11 645.16 C 620.31 638.34 613.83 633.67 607.31 629.69 C 597.63 623.91 587.11 619.41 576.08 616.96 C 570.95 615.80 565.61 615.31 560.40 616.27 C 560.18 608.60 554.80 602.17 548.34 598.58 C 538.15 592.08 525.52 591.28 515.38 584.70 C 529.35 575.64 537.50 560.58 549.39 549.32 C 558.92 540.32 572.81 539.37 583.68 532.64 Z" />
		<path fill="#f0b58b" opacity="1.00"
			d=" M 470.78 645.69 C 474.91 649.18 479.61 651.98 484.84 653.46 C 492.25 656.08 500.23 655.53 507.96 655.27 C 514.96 654.92 521.95 654.39 528.95 654.00 C 520.04 668.03 513.70 683.49 508.24 699.14 C 499.37 726.23 493.73 754.21 486.82 781.83 C 478.24 780.29 469.66 777.70 462.44 772.67 C 451.98 765.40 444.13 754.11 441.72 741.53 C 440.55 735.66 441.34 729.67 441.29 723.74 C 451.89 716.61 458.04 704.84 461.92 692.99 C 465.67 681.61 469.41 670.01 470.08 657.96 C 470.33 653.87 470.64 649.78 470.78 645.69 Z" />
	</g>
	<g id="#f11b27ff">
		<path fill="var(--shirt-color, grey)" opacity="1.00"
			d=" M 557.61 127.18 C 566.52 125.37 575.67 125.41 584.72 125.29 C 581.03 127.99 576.92 130.68 575.05 135.05 C 572.26 141.85 571.67 149.49 573.35 156.65 C 574.96 163.45 576.40 170.59 580.68 176.31 C 587.29 185.97 598.63 191.30 604.46 201.61 C 607.87 206.91 608.10 213.37 609.92 219.24 C 612.38 220.46 613.82 217.72 615.43 216.36 C 622.20 209.84 628.34 202.64 635.69 196.73 C 638.98 194.04 642.37 191.47 645.57 188.68 C 649.83 184.62 655.83 183.17 660.10 179.11 C 670.25 170.04 679.15 159.45 685.80 147.53 C 693.94 153.69 702.43 159.38 710.82 165.19 C 718.08 169.68 725.27 174.97 729.52 182.57 C 734.88 192.28 735.84 203.63 740.45 213.65 C 747.02 227.99 754.90 241.75 764.22 254.49 C 751.57 257.75 740.63 265.45 730.76 273.75 C 724.88 279.46 718.22 285.11 715.46 293.09 C 710.46 283.72 704.66 274.74 698.36 266.20 C 701.28 260.71 704.62 255.42 708.68 250.71 C 712.51 246.20 717.91 243.53 722.18 239.52 C 717.75 238.14 713.68 240.88 710.10 243.12 C 703.75 247.45 699.33 253.94 695.28 260.34 C 691.29 266.62 690.43 274.13 689.12 281.29 C 687.14 292.50 681.95 302.77 676.71 312.75 C 671.48 323.02 668.31 334.11 665.42 345.21 C 654.63 350.24 644.55 357.47 632.58 359.41 C 626.11 360.66 619.89 357.73 614.42 354.61 C 588.61 339.29 566.83 318.31 546.34 296.60 C 539.82 289.80 532.62 283.70 525.84 277.16 C 523.99 275.64 522.20 273.32 519.52 273.67 C 519.50 275.75 520.76 277.44 522.10 278.90 C 543.28 301.05 563.40 324.54 587.92 343.17 C 595.93 349.24 604.16 355.09 612.94 360.02 C 618.95 363.35 625.89 365.95 632.86 364.49 C 644.60 362.24 654.84 355.50 664.50 348.79 C 663.50 355.14 663.25 361.60 664.00 367.99 C 664.66 373.62 665.14 379.56 662.88 384.93 C 660.44 390.81 657.00 396.55 657.19 403.15 C 631.35 390.23 607.44 373.90 582.23 359.86 C 577.17 357.11 572.47 353.51 566.94 351.77 C 566.13 351.97 564.51 352.37 563.70 352.57 C 573.46 358.81 583.14 365.20 593.31 370.78 C 614.22 383.31 634.84 396.39 656.65 407.34 C 657.57 408.10 659.47 408.35 659.38 409.89 C 660.27 423.26 649.63 433.40 647.47 446.05 C 646.89 453.96 647.97 461.89 647.87 469.81 C 641.21 472.61 634.86 478.46 627.16 476.45 C 609.31 472.72 592.25 465.95 575.71 458.39 C 568.16 455.09 560.35 452.02 552.09 451.19 C 540.05 449.95 527.81 450.95 515.90 448.49 C 506.80 446.67 498.38 442.64 489.88 439.09 C 477.21 433.81 464.65 427.79 454.17 418.78 C 450.03 415.37 446.26 411.54 442.33 407.90 C 444.07 401.30 448.88 396.26 453.43 391.45 C 458.18 386.49 461.29 380.19 463.19 373.64 C 468.63 381.47 476.05 387.72 481.13 395.84 C 486.37 403.10 489.18 411.67 493.28 419.55 C 494.70 416.77 494.09 413.74 493.02 410.98 C 489.56 401.50 485.39 392.07 478.65 384.42 C 473.44 377.83 466.20 372.36 463.60 364.08 C 462.67 355.86 466.30 348.09 467.91 340.18 C 470.75 345.71 472.28 351.90 476.02 356.96 C 483.84 367.99 493.69 377.34 502.57 387.48 C 510.33 395.97 516.39 405.80 522.30 415.61 C 524.85 419.74 526.60 424.49 530.30 427.79 C 529.86 420.65 525.28 414.78 522.64 408.35 C 513.04 387.78 494.96 373.36 480.88 356.10 C 474.63 348.36 471.37 338.73 468.83 329.25 C 466.50 321.03 467.13 312.41 467.22 303.98 C 468.01 290.65 469.19 277.33 468.88 263.97 C 469.04 251.76 467.90 239.57 468.15 227.37 C 471.30 226.50 474.44 225.60 477.56 224.65 C 481.37 232.63 484.70 240.83 487.63 249.18 C 488.52 251.81 489.71 254.33 491.22 256.68 C 492.36 251.47 490.08 246.48 488.65 241.59 C 484.91 230.00 480.54 218.08 471.67 209.36 C 468.56 206.05 464.83 202.85 460.05 202.62 C 465.07 208.37 470.82 213.51 474.97 220.00 C 463.28 221.65 452.53 226.77 441.33 230.22 C 435.09 232.09 428.99 234.36 422.96 236.81 C 415.84 232.96 410.15 227.15 404.38 221.60 C 401.41 218.85 400.55 214.73 399.78 210.94 C 397.70 200.73 398.67 190.27 398.96 179.95 C 399.33 176.97 399.28 173.02 402.30 171.37 C 406.51 169.07 411.17 167.73 415.39 165.42 C 423.64 161.38 430.31 154.88 438.36 150.50 C 436.13 153.53 432.41 156.23 432.66 160.40 C 434.19 160.42 435.54 159.73 436.56 158.63 C 444.96 150.34 453.34 141.77 463.43 135.52 C 472.00 130.27 482.45 130.25 492.11 131.45 C 505.40 133.15 518.91 134.16 532.24 132.25 C 540.82 131.23 549.11 128.68 557.61 127.18 M 523.42 184.30 C 523.32 184.69 523.11 185.48 523.00 185.88 C 527.95 188.91 533.95 189.47 539.38 191.37 C 555.85 195.60 571.18 203.10 586.42 210.47 C 591.00 212.56 595.25 216.02 600.50 216.12 C 600.39 215.59 600.17 214.53 600.06 214.00 C 596.47 210.37 591.58 208.42 587.34 205.67 C 569.26 194.53 549.00 186.78 527.96 183.70 C 526.50 183.74 524.51 183.02 523.42 184.30 Z" />
	</g>
	<g id="#2b3dcdff">
		<path fill="var(--pants-color, grey)" opacity="1.00"
			d=" M 449.04 420.51 C 459.91 430.99 473.44 438.01 487.24 443.79 C 496.01 447.54 504.73 451.63 514.12 453.58 C 526.18 456.28 538.62 455.60 550.86 456.62 C 563.75 457.80 575.26 464.22 587.14 468.81 C 600.75 474.11 614.60 479.32 629.13 481.38 C 633.77 482.29 638.05 479.95 642.02 477.89 C 640.56 486.54 638.72 495.14 636.33 503.59 C 631.61 519.47 628.94 535.88 624.03 551.72 C 618.61 544.44 613.57 536.88 609.20 528.93 C 607.74 526.47 606.27 523.24 603.00 523.01 C 595.45 522.35 587.83 524.47 581.29 528.22 C 570.57 534.30 557.53 535.74 547.91 543.85 C 537.56 552.65 530.71 564.63 521.44 574.43 C 518.04 578.15 514.02 581.21 510.08 584.32 C 512.51 589.46 517.95 592.02 522.90 594.14 C 531.99 597.32 541.84 599.36 549.63 605.36 C 553.08 608.25 556.37 612.33 556.17 617.08 C 555.21 620.12 552.77 622.40 551.10 625.06 C 545.67 633.31 538.73 640.40 532.82 648.28 C 520.17 648.26 507.58 650.12 494.92 649.77 C 487.09 649.37 479.58 646.31 473.30 641.69 C 469.35 639.14 464.84 637.72 460.42 636.25 C 463.95 627.82 469.41 620.40 473.14 612.07 C 476.92 603.86 480.62 595.21 480.47 585.99 C 480.51 580.61 479.13 574.81 474.92 571.14 C 468.80 565.61 461.34 561.11 457.38 553.60 C 452.72 544.73 455.29 533.98 450.94 525.01 C 447.95 519.80 443.15 515.85 440.47 510.43 C 435.91 502.89 436.71 493.62 438.57 485.39 C 441.65 472.92 444.79 460.46 447.34 447.87 C 449.14 438.89 450.33 429.65 449.04 420.51 Z" />
		<path fill="var(--socks-color, grey)" opacity="1.00"
			d=" M 559.16 621.29 C 572.50 619.99 585.36 625.14 597.11 630.85 C 605.48 635.28 614.11 640.38 619.27 648.61 C 607.42 661.72 601.51 678.70 594.93 694.78 C 588.88 711.02 581.17 726.57 572.64 741.63 C 566.96 751.31 560.32 760.44 552.66 768.66 C 541.75 780.35 531.05 792.68 524.35 807.35 C 519.80 817.46 516.22 828.12 515.22 839.21 C 512.65 837.76 510.02 836.18 507.01 835.96 C 498.46 835.19 490.42 838.98 482.03 839.75 C 479.67 839.74 475.92 839.90 475.27 836.95 C 473.55 831.52 473.85 825.48 476.20 820.29 C 480.49 810.36 486.65 801.29 490.09 790.99 C 497.72 764.85 501.80 737.80 509.75 711.73 C 515.28 692.97 522.35 674.46 532.85 657.87 C 537.57 650.15 543.81 643.55 549.37 636.46 C 553.15 631.75 555.82 626.30 559.16 621.29 Z" />
		<path fill="var(--socks-color, grey)" opacity="1.00"
			d=" M 390.21 768.16 C 401.39 750.92 416.88 736.44 434.87 726.50 C 432.94 741.41 437.76 756.97 447.70 768.24 C 456.95 778.69 470.23 785.98 484.35 786.39 C 472.52 798.90 458.04 808.64 443.17 817.19 C 423.83 828.39 402.16 836.12 385.50 851.49 C 378.81 857.47 373.23 864.52 367.07 871.01 C 364.36 869.26 361.45 867.46 358.13 867.36 C 353.95 866.95 349.40 868.58 345.52 866.43 C 343.81 865.60 343.48 863.55 342.97 861.93 C 341.14 854.35 339.97 845.92 343.61 838.68 C 350.81 824.26 363.32 813.63 372.75 800.80 C 379.76 790.59 383.40 778.51 390.21 768.16 Z" />
	</g>
	<g id="#4d4d4dff">
		<path fill="#4d4d4d" opacity="1.00"
			d=" M 317.92 828.97 C 322.27 825.56 327.40 822.49 333.08 822.37 C 337.49 822.20 340.09 826.27 342.68 829.18 C 340.05 833.83 337.30 838.62 336.67 844.03 C 335.95 850.13 337.08 856.30 338.59 862.20 C 339.66 866.25 342.15 870.15 346.06 871.94 C 351.53 874.65 358.32 870.84 363.31 875.00 C 355.98 891.59 350.83 909.03 346.67 926.65 C 344.64 936.18 342.69 945.72 340.21 955.14 C 338.23 962.38 335.95 970.05 330.32 975.37 C 328.20 977.32 325.39 979.62 322.30 978.58 C 318.90 977.26 316.91 973.97 314.50 971.43 C 311.13 967.42 306.32 964.29 304.81 959.01 C 302.61 951.92 302.94 944.34 303.57 937.03 C 304.82 924.19 308.29 911.72 310.63 899.07 C 313.77 882.76 308.42 866.37 309.85 849.98 C 310.46 842.50 311.69 833.98 317.92 828.97 Z" />
		<path fill="#4d4d4d" opacity="1.00"
			d=" M 468.67 828.98 C 469.57 834.14 470.48 840.74 475.95 843.07 C 483.12 846.14 490.72 842.80 497.96 841.85 C 502.18 841.31 507.07 840.42 510.72 843.22 C 513.33 845.04 515.39 847.76 515.89 850.97 C 517.68 859.18 517.54 867.69 519.46 875.89 C 521.21 883.10 526.60 888.55 530.08 894.92 C 534.48 902.89 538.10 911.95 536.76 921.24 C 528.73 920.90 521.61 916.81 513.87 915.20 C 506.70 913.59 499.27 913.61 492.16 911.73 C 483.14 909.46 474.42 904.67 468.98 896.94 C 465.12 892.22 462.01 885.74 455.47 884.43 C 449.38 883.03 441.35 882.10 438.87 875.32 C 436.13 866.12 439.37 855.73 446.03 848.98 C 452.73 841.32 462.83 837.48 468.67 828.98 Z" />
	</g>
</svg>