<?xml version="1.0" encoding="utf-8"?>
<!-- Generator: Adobe Illustrator 23.0.4, SVG Export Plug-In . SVG Version: 6.00 Build 0)  -->
<svg version="1.1" id="Слой_1" xmlns="http://www.w3.org/2000/svg" xmlns:xlink="http://www.w3.org/1999/xlink" x="0px" y="0px"
	 viewBox="0 0 80 80" style="enable-background:new 0 0 80 80;" xml:space="preserve">
<style type="text/css">
	.st0{fill:#D24A45;}
	.st1{fill:#FCF5F5;}
</style>
<circle class="st0" cx="40.1" cy="40" r="37.6"/>
<path class="st1" d="M25.4,50.7c0-5.5,3.3-9.4,8.6-11.7v-0.1c-4.8-2.3-6.9-6-6.9-9.8c0-6.9,5.8-11.6,13.5-11.6
	c8.4,0,12.7,5.3,12.7,10.7c0,3.7-1.8,7.6-7.2,10.2v0.2c5.4,2.1,8.8,6,8.8,11.3c0,7.6-6.5,12.7-14.8,12.7
	C30.9,62.5,25.4,57.1,25.4,50.7 M48.8,50.4c0-5.3-3.7-7.8-9.6-9.5c-5.1,1.5-7.8,4.8-7.8,9c-0.2,4.4,3.1,8.3,8.7,8.3
	C45.4,58.2,48.8,54.9,48.8,50.4 M32.6,28.7c0,4.4,3.3,6.7,8.3,8c3.8-1.3,6.6-4,6.6-7.9c0-3.5-2.1-7.1-7.4-7.1
	C35.3,21.7,32.6,24.9,32.6,28.7"/>
</svg>
