<?xml version="1.0" encoding="utf-8"?>
<!-- Generator: Adobe Illustrator 23.0.4, SVG Export Plug-In . SVG Version: 6.00 Build 0)  -->
<svg version="1.1" id="Слой_1" xmlns="http://www.w3.org/2000/svg" xmlns:xlink="http://www.w3.org/1999/xlink" x="0px" y="0px"
	 viewBox="0 0 80 80" style="enable-background:new 0 0 80 80;" xml:space="preserve">
<style type="text/css">
	.st0{fill:#D24A45;}
	.st1{fill:#FFFFFF;}
</style>
<circle class="st0" cx="40.1" cy="40" r="37.6"/>
<path class="st1" d="M21.7,23.7h-0.1L14,27.8l-1.1-4.5l9.5-5.1h5v43.5h-5.7V23.7"/>
<path class="st1" d="M62.5,22.4c-1.2-0.1-2.7,0-4.4,0.3C48.8,24.2,44,30.9,43,38.1h0.2c2.1-2.7,5.7-5,10.5-5
	c7.7,0,13.1,5.6,13.1,14.1c0,8-5.4,15.3-14.5,15.3c-9.3,0-15.4-7.2-15.4-18.5c0-8.6,3.1-15.3,7.4-19.6c3.6-3.5,8.4-5.8,13.9-6.4
	c1.7-0.3,3.2-0.3,4.3-0.3L62.5,22.4 M60.8,47.5c0-6.2-3.5-10-9-10c-3.5,0-6.8,2.2-8.4,5.4c-0.4,0.7-0.7,1.5-0.7,2.6
	c0.1,7.2,3.4,12.5,9.6,12.5C57.4,57.9,60.8,53.7,60.8,47.5"/>
</svg>
