<?xml version="1.0" encoding="utf-8"?>
<!-- Generator: Adobe Illustrator 23.0.4, SVG Export Plug-In . SVG Version: 6.00 Build 0)  -->
<svg version="1.1" id="Слой_1" xmlns="http://www.w3.org/2000/svg" xmlns:xlink="http://www.w3.org/1999/xlink" x="0px" y="0px"
	 viewBox="0 0 80 80" style="enable-background:new 0 0 80 80;" xml:space="preserve">
<style type="text/css">
	.st0{fill:#D24A45;}
	.st1{fill:#FFFFFF;}
</style>
<circle class="st0" cx="40.1" cy="40" r="37.6"/>
<path class="st1" d="M37.1,23l-16.6-0.3l-1.9,11.2c1-0.1,1.9-0.3,3.5-0.2c3.3,0.1,6.7,0.8,9.4,2.5c3.4,2,6.1,5.8,6,11.3
	c-0.1,8.5-7,14.8-16.4,14.6c-4.8-0.1-8.8-1.4-10.8-2.9l1.6-4.5c1.8,1.1,5.4,2.5,9.3,2.6c5.6,0.1,10.4-3.4,10.5-9.2
	c0-5.6-3.6-9.7-12.3-9.8c-2.5,0-4.4,0.2-6,0.4l3.1-20.9l20.8,0.3L37.1,23"/>
<path class="st1" d="M57.4,23.7l-7.7,4.1l-1.1-4.5l9.5-5.1h5v43.5h-5.7V23.7"/>
</svg>
