<?xml version="1.0" encoding="utf-8"?>
<!-- Generator: Adobe Illustrator 23.0.4, SVG Export Plug-In . SVG Version: 6.00 Build 0)  -->
<svg version="1.1" id="Слой_1" xmlns="http://www.w3.org/2000/svg" xmlns:xlink="http://www.w3.org/1999/xlink" x="0px" y="0px"
	 viewBox="0 0 80 80" style="enable-background:new 0 0 80 80;" xml:space="preserve">
<style type="text/css">
	.st0{fill:#D24A45;}
	.st1{fill:#FFFFFF;}
</style>
<circle class="st0" cx="40.1" cy="40" r="37.6"/>
<path class="st1" d="M68.5,22.8H51.9L50.2,34c1-0.1,1.9-0.3,3.5-0.3c3.3,0,6.7,0.7,9.4,2.3c3.4,1.9,6.2,5.7,6.2,11.2
	c0,8.5-6.8,14.9-16.2,14.9c-4.8,0-8.8-1.3-10.8-2.7l1.5-4.5c1.8,1.1,5.4,2.4,9.3,2.4c5.6,0,10.3-3.6,10.3-9.4
	c-0.1-5.6-3.8-9.6-12.5-9.6c-2.5,0-4.4,0.3-6,0.5l2.8-20.9h20.8L68.5,22.8"/>
<path class="st1" d="M36.8,22.8H20.2L18.5,34c1-0.1,1.9-0.3,3.5-0.3c3.3,0,6.7,0.7,9.4,2.3c3.4,1.9,6.2,5.7,6.2,11.2
	c0,8.5-6.8,14.9-16.2,14.9c-4.8,0-8.8-1.3-10.8-2.7l1.5-4.5c1.8,1.1,5.4,2.4,9.3,2.4c5.6,0,10.3-3.6,10.3-9.4
	c-0.1-5.6-3.8-9.6-12.5-9.6c-2.5,0-4.4,0.3-6,0.5L16,17.9h20.8V22.8"/>
</svg>
