<?xml version="1.0" encoding="utf-8"?>
<!-- Generator: Adobe Illustrator 23.0.4, SVG Export Plug-In . SVG Version: 6.00 Build 0)  -->
<svg version="1.1" id="Слой_1" xmlns="http://www.w3.org/2000/svg" xmlns:xlink="http://www.w3.org/1999/xlink" x="0px" y="0px"
	 viewBox="0 0 80 80" style="enable-background:new 0 0 80 80;" xml:space="preserve">
<style type="text/css">
	.st0{fill:#D24A45;}
	.st1{fill:#FFFFFF;}
</style>
<circle class="st0" cx="40.1" cy="40" r="37.6"/>
<path class="st1" d="M36.8,22.8H20.2L18.5,34c1-0.1,1.9-0.3,3.5-0.3c3.3,0,6.7,0.7,9.4,2.3c3.4,1.9,6.2,5.7,6.2,11.2
	c0,8.5-6.8,14.9-16.2,14.9c-4.8,0-8.8-1.3-10.8-2.7l1.5-4.5c1.8,1.1,5.4,2.4,9.3,2.4c5.6,0,10.3-3.6,10.3-9.4
	c-0.1-5.6-3.8-9.6-12.5-9.6c-2.5,0-4.4,0.3-6,0.5L16,17.9h20.8V22.8"/>
<path class="st1" d="M41.2,50.7c0-5.5,3.3-9.4,8.6-11.7l-0.1-0.2c-4.8-2.3-6.9-6-6.9-9.8c0-6.9,5.8-11.6,13.5-11.6
	c8.4,0,12.7,5.3,12.7,10.7c0,3.7-1.8,7.6-7.2,10.2v0.2c5.4,2.1,8.8,6,8.8,11.3c0,7.6-6.5,12.7-14.8,12.7
	C46.7,62.5,41.2,57.1,41.2,50.7 M64.6,50.4c0-5.3-3.7-7.8-9.6-9.5c-5.1,1.5-7.8,4.8-7.8,9c-0.2,4.4,3.1,8.3,8.7,8.3
	C61.2,58.2,64.6,54.9,64.6,50.4 M48.4,28.7c0,4.4,3.3,6.7,8.3,8c3.8-1.3,6.6-4,6.6-7.9c0-3.5-2.1-7.1-7.4-7.1
	C51.1,21.7,48.4,24.9,48.4,28.7"/>
</svg>
