<?xml version="1.0" encoding="utf-8"?>
<!-- Generator: Adobe Illustrator 23.0.4, SVG Export Plug-In . SVG Version: 6.00 Build 0)  -->
<svg version="1.1" id="Слой_1" xmlns="http://www.w3.org/2000/svg" xmlns:xlink="http://www.w3.org/1999/xlink" x="0px" y="0px"
	 viewBox="0 0 80 80" style="enable-background:new 0 0 80 80;" xml:space="preserve">
<style type="text/css">
	.st0{fill:#D24A45;}
	.st1{fill:#FFFFFF;}
</style>
<circle class="st0" cx="40.1" cy="40" r="37.6"/>
<path class="st1" d="M34.8,22.4c-1.2-0.1-2.7,0-4.4,0.3c-9.2,1.5-14.1,8.3-15.1,15.5h0.2c2.1-2.7,5.7-5,10.5-5
	c7.7,0,13.1,5.6,13.1,14.1c0,8-5.4,15.3-14.5,15.3c-9.3,0-15.4-7.2-15.4-18.5c0-8.6,3.1-15.3,7.4-19.6c3.6-3.5,8.4-5.8,13.9-6.4
	c1.7-0.3,3.2-0.3,4.3-0.3V22.4 M33.1,47.5c0-6.2-3.5-10-9-10c-3.5,0-6.8,2.2-8.4,5.4c-0.4,0.7-0.7,1.5-0.7,2.6
	c0.1,7.2,3.4,12.5,9.6,12.5C29.7,57.9,33.1,53.7,33.1,47.5"/>
<path class="st1" d="M43.9,55c1.7,1.1,5.6,2.7,9.6,2.7c7.6,0,9.9-4.8,9.8-8.4c-0.1-6.1-5.6-8.7-11.3-8.7h-3.3v-4.4H52
	c4.3,0,9.7-2.2,9.7-7.4c0-3.5-2.2-6.6-7.6-6.6c-3.5,0-6.8,1.5-8.7,2.9l-1.5-4.3c2.3-1.7,6.7-3.3,11.4-3.3c8.6,0,12.5,5.1,12.5,10.4
	c0,4.5-2.7,8.3-8,10.2v0.1c5.4,1.1,9.7,5.1,9.7,11.2c0,7-5.4,13.1-15.9,13.1c-4.9,0-9.2-1.5-11.3-2.9L43.9,55"/>
</svg>
