<?xml version="1.0" encoding="UTF-8" ?>
<!DOCTYPE svg PUBLIC "-//W3C//DTD SVG 1.1//EN" "http://www.w3.org/Graphics/SVG/1.1/DTD/svg11.dtd">
<svg width="1000pt" height="1000pt" viewBox="0 0 1000 1000" version="1.1" xmlns="http://www.w3.org/2000/svg">
    <g id="#020202ff">
        <path fill="#020202" opacity="1.00"
            d=" M 380.39 19.34 C 383.76 16.11 388.48 14.97 392.98 14.42 C 405.55 12.81 418.41 14.57 430.42 18.47 C 433.53 19.25 436.74 19.56 439.85 20.38 C 447.60 22.24 454.61 26.31 461.10 30.82 C 468.50 36.29 475.65 42.42 480.73 50.18 C 484.20 55.37 483.77 61.88 485.53 67.66 C 486.43 72.07 489.25 75.71 490.67 79.93 C 488.55 79.88 486.44 79.84 484.34 79.82 C 486.29 86.02 490.30 91.29 492.41 97.42 C 494.55 103.75 492.72 110.43 492.37 116.90 C 491.88 121.40 492.52 126.20 490.49 130.40 C 487.39 137.61 483.53 144.57 478.37 150.51 C 475.34 153.51 475.88 158.10 475.83 161.99 C 475.78 169.64 479.02 176.69 482.23 183.44 C 496.76 184.73 509.17 193.93 518.23 204.85 C 529.68 218.47 543.65 229.64 558.02 240.03 C 571.57 249.94 583.66 261.71 594.53 274.47 C 606.50 287.90 616.75 302.80 625.47 318.53 C 629.28 325.48 634.00 331.90 639.18 337.89 C 644.46 344.03 648.92 351.10 650.95 359.01 C 651.33 361.19 652.30 364.09 650.10 365.65 C 643.25 365.63 636.43 364.52 629.57 364.86 C 635.13 382.59 640.25 401.35 636.86 420.04 C 634.50 434.36 625.35 446.34 615.34 456.34 C 611.27 460.53 607.19 464.69 603.24 468.99 C 605.95 475.59 604.64 482.85 604.27 489.75 C 602.41 508.38 597.28 526.51 591.41 544.22 C 588.66 552.66 585.12 560.83 580.81 568.58 C 581.62 575.33 581.71 582.21 580.52 588.92 C 579.28 596.20 578.99 603.65 579.81 610.99 C 581.11 621.19 590.49 628.04 592.37 638.02 C 593.11 641.67 590.08 644.29 587.64 646.43 C 587.59 659.55 588.75 672.65 589.83 685.73 C 590.49 692.69 591.25 699.74 593.52 706.41 C 594.88 710.62 597.87 713.98 600.93 717.07 C 607.79 715.28 614.88 714.26 621.98 714.54 C 632.04 714.93 642.18 715.59 651.97 718.11 C 668.36 722.17 684.18 728.33 699.28 735.87 C 708.95 740.48 718.48 745.43 728.37 749.59 C 737.21 753.27 746.75 754.62 756.11 756.27 C 764.37 757.53 772.66 759.13 781.06 758.72 C 791.11 758.15 801.37 757.55 811.26 759.82 C 818.66 761.50 825.64 766.06 829.07 773.00 C 832.16 778.45 833.11 784.83 832.57 791.03 C 831.35 807.30 830.62 823.66 831.65 839.97 C 832.30 852.34 835.83 864.66 833.80 877.09 C 832.02 888.97 824.79 899.19 816.62 907.65 C 810.82 913.55 803.65 919.04 795.13 919.78 C 789.71 920.44 783.46 918.05 781.17 912.81 C 778.96 907.81 779.26 902.22 778.65 896.91 C 777.86 884.80 770.24 874.68 767.85 862.96 C 763.93 849.18 767.14 834.61 763.74 820.78 C 755.69 819.62 748.06 816.73 740.17 814.90 C 726.10 811.01 711.53 809.29 696.97 808.62 C 677.68 807.84 658.52 804.45 640.05 798.85 C 622.90 793.94 606.28 787.30 588.99 782.85 C 576.80 785.90 563.57 787.66 551.39 783.68 C 538.59 778.02 529.68 766.22 523.21 754.19 C 529.08 770.94 532.76 788.37 534.89 805.97 C 536.79 827.61 539.94 849.15 544.31 870.43 C 546.93 883.76 551.77 896.61 558.55 908.38 C 559.41 909.82 560.44 911.17 561.53 912.46 C 566.59 918.20 569.81 925.26 572.81 932.22 C 576.56 940.96 577.57 951.18 573.87 960.12 C 571.90 967.29 565.76 972.60 558.82 974.80 C 547.50 978.79 535.58 974.62 523.98 975.26 C 508.33 975.85 494.17 983.39 479.02 986.50 C 461.34 990.23 442.59 990.47 425.26 984.91 C 419.10 982.86 412.44 979.61 409.85 973.23 C 407.62 968.25 409.52 962.65 412.31 958.33 C 416.52 951.33 424.18 947.65 431.28 944.26 C 441.82 939.67 453.01 935.55 461.39 927.37 C 469.38 919.62 475.87 910.51 482.88 901.90 C 484.78 899.61 487.35 898.06 489.89 896.59 C 485.26 864.69 469.87 835.92 457.28 806.66 C 448.38 787.90 439.44 769.07 432.87 749.34 C 429.87 740.95 428.82 731.74 423.83 724.17 C 419.19 716.66 412.12 711.13 406.88 704.10 C 398.49 693.30 392.50 679.92 393.08 666.02 C 392.83 648.84 400.79 632.93 409.66 618.70 C 414.69 610.07 420.90 601.79 423.23 591.91 C 414.53 592.50 406.45 595.96 398.16 598.31 C 395.35 598.92 391.70 599.85 389.47 597.47 C 387.37 594.85 388.73 591.28 389.48 588.41 C 393.15 577.86 398.79 567.71 407.30 560.30 C 410.13 557.75 413.30 555.63 416.22 553.18 C 419.19 550.77 419.75 546.67 419.83 543.08 C 419.70 533.74 417.52 524.55 414.37 515.79 C 412.79 511.47 411.46 507.05 410.76 502.49 C 399.43 500.03 389.11 493.07 382.74 483.37 C 377.42 474.80 377.39 463.94 380.39 454.56 C 382.10 448.48 385.79 442.59 384.76 436.04 C 383.65 430.47 380.52 425.47 376.64 421.40 C 372.95 417.41 368.32 414.16 365.77 409.24 C 361.25 400.74 361.32 390.85 359.64 381.58 C 357.31 368.36 354.64 354.83 347.85 343.07 C 342.80 334.42 337.45 325.80 330.21 318.79 C 318.43 327.35 306.62 335.99 296.17 346.18 C 293.55 348.57 291.08 351.27 287.88 352.90 C 286.51 353.68 284.93 352.89 283.62 352.40 C 277.84 349.65 273.50 344.52 270.80 338.80 C 261.06 344.21 250.30 348.02 239.13 348.74 C 238.40 353.00 236.87 357.56 232.84 359.79 C 230.41 361.66 227.30 361.21 224.54 360.48 C 222.10 362.83 218.92 364.08 215.57 362.97 C 213.33 364.67 211.05 366.89 208.03 366.86 C 205.89 367.04 204.09 365.67 202.26 364.80 C 200.08 366.34 197.86 368.32 195.02 368.30 C 192.66 368.55 190.68 367.09 188.71 366.07 C 184.05 369.97 176.55 369.13 173.21 363.95 C 168.41 356.67 164.58 348.74 161.26 340.70 C 159.26 336.38 160.60 331.22 164.03 328.06 C 166.05 326.09 169.04 326.29 171.64 325.98 C 173.19 323.85 174.68 321.30 177.37 320.49 C 180.78 319.25 184.39 320.35 187.79 321.06 C 189.72 318.85 191.95 316.89 194.58 315.55 C 202.97 310.95 211.10 305.90 219.04 300.56 C 216.79 293.10 217.80 284.96 220.80 277.86 C 224.94 268.06 235.71 262.52 245.96 261.92 C 251.61 261.33 257.22 262.99 262.86 262.54 C 267.71 261.21 269.58 255.86 272.04 252.00 C 276.79 244.28 278.52 235.10 283.66 227.60 C 293.92 212.34 308.28 199.71 325.07 192.09 C 335.05 187.63 346.01 185.63 356.91 185.46 C 352.64 173.50 346.43 162.40 341.76 150.62 C 332.94 145.23 335.06 133.50 330.57 125.45 C 323.26 113.09 320.83 97.09 326.75 83.71 C 328.07 80.33 331.01 77.93 332.49 74.68 C 333.16 70.02 332.74 65.11 334.69 60.71 C 338.53 51.82 345.79 44.61 354.37 40.24 C 352.27 38.53 350.62 36.37 349.91 33.74 C 353.95 31.48 358.40 29.89 363.07 29.71 C 366.17 29.43 369.34 29.82 372.41 29.18 C 375.67 26.44 377.18 22.16 380.39 19.34 M 386.46 98.37 C 382.22 101.35 377.41 104.21 375.27 109.18 C 375.67 109.97 376.48 111.54 376.88 112.33 C 375.14 114.16 372.50 115.03 370.06 114.16 C 366.78 112.08 365.54 108.08 365.03 104.44 C 362.01 107.44 358.83 110.50 354.80 112.08 C 353.41 112.85 352.28 111.52 351.23 110.84 C 347.75 115.24 342.66 117.91 338.94 122.06 C 340.30 131.38 343.82 140.19 347.34 148.87 C 350.86 147.84 354.36 146.58 358.02 146.17 C 361.02 146.88 362.12 150.38 363.43 152.84 C 367.32 162.62 364.99 173.51 362.58 183.37 C 365.50 188.54 369.04 193.32 372.29 198.28 C 380.47 194.41 388.72 190.65 397.18 187.41 C 398.75 186.47 400.94 187.11 401.29 189.04 C 400.93 190.72 399.26 191.46 398.08 192.47 C 398.05 194.76 397.21 196.99 395.00 198.01 C 389.39 201.00 383.37 203.25 377.26 204.99 C 381.84 210.59 387.05 216.29 394.18 218.48 C 400.28 219.47 406.25 217.18 411.88 215.12 C 422.36 210.51 430.73 202.47 439.91 195.86 C 441.31 194.81 442.97 194.23 444.62 193.70 C 442.54 197.75 438.82 200.50 435.56 203.52 C 429.71 208.55 424.84 214.74 418.16 218.75 C 420.49 222.14 422.93 225.46 425.08 228.97 C 429.65 236.87 432.63 245.53 436.12 253.93 C 437.10 255.78 437.90 258.26 440.11 258.95 C 443.32 258.51 445.36 255.58 447.12 253.14 C 452.62 244.78 454.95 234.78 460.42 226.41 C 464.11 220.78 470.80 217.98 474.15 212.05 C 479.21 205.66 480.63 197.26 480.19 189.30 C 473.08 180.76 468.58 169.65 469.74 158.40 C 467.49 158.93 462.88 161.61 462.40 157.96 C 465.09 154.79 468.20 151.96 470.51 148.47 C 474.66 142.42 478.84 135.57 478.26 127.93 C 478.00 124.77 475.26 122.08 472.05 122.10 C 468.50 121.58 465.55 123.94 463.04 126.09 C 456.72 131.91 449.12 136.62 440.72 138.63 C 438.87 139.17 437.47 137.65 437.19 135.95 C 435.86 130.58 434.72 125.16 433.68 119.73 C 430.08 118.90 426.81 117.06 424.84 113.84 C 424.26 116.35 424.14 119.01 423.06 121.38 C 421.14 122.15 419.77 120.67 418.60 119.39 C 410.34 110.06 403.75 99.23 399.51 87.49 C 395.96 91.99 391.22 95.27 386.46 98.37 M 353.59 162.22 C 355.73 166.66 357.68 171.19 359.41 175.80 C 360.19 170.57 360.85 165.30 360.85 160.00 C 358.42 160.72 356.00 161.47 353.59 162.22 M 485.35 189.22 C 485.33 193.13 485.40 197.07 484.87 200.96 C 483.83 207.70 480.32 213.78 476.08 219.01 C 472.77 223.08 467.84 225.51 464.87 229.88 C 458.65 239.42 456.58 251.26 449.00 259.97 C 446.25 263.04 441.95 265.73 437.71 264.27 C 433.35 262.62 431.53 257.90 429.91 253.91 C 425.50 242.50 421.81 230.43 413.62 221.03 C 406.85 223.32 399.69 226.00 392.45 224.44 C 385.25 222.22 379.15 217.30 374.43 211.53 C 368.70 204.56 363.84 196.93 358.99 189.34 C 354.02 189.66 349.04 189.98 344.15 190.96 C 327.12 194.03 311.78 203.51 299.58 215.53 C 292.74 222.67 286.12 230.52 282.85 240.00 C 279.66 248.51 275.98 257.07 270.17 264.14 C 265.85 269.15 258.76 267.87 252.95 267.35 C 244.15 266.33 234.42 268.52 228.29 275.26 C 223.12 281.64 221.87 290.35 222.42 298.32 C 225.17 296.90 228.22 295.77 230.28 293.34 C 235.90 286.40 247.11 285.59 254.17 290.80 C 259.61 294.78 263.51 300.57 266.42 306.58 C 271.00 316.03 272.23 326.58 275.54 336.46 C 277.19 341.85 281.41 345.87 285.88 349.04 C 292.77 343.21 298.63 336.27 305.81 330.76 C 323.87 316.46 342.51 302.65 363.05 292.10 C 364.31 291.46 365.64 290.94 367.02 290.60 C 369.01 292.59 366.05 294.45 364.59 295.55 C 354.24 302.08 343.94 308.69 334.11 315.98 C 342.06 323.49 348.45 332.59 353.85 342.07 C 360.73 354.50 363.39 368.68 365.56 382.56 C 366.87 390.32 366.86 398.51 370.30 405.75 C 372.68 410.78 377.50 413.87 381.04 417.99 C 383.12 420.14 384.77 423.06 387.87 423.87 C 395.31 426.25 403.14 426.96 410.88 427.67 C 421.60 428.37 432.27 429.61 442.98 430.43 C 458.01 431.10 473.01 432.21 488.00 433.42 C 492.97 434.10 498.17 434.24 502.89 436.10 C 504.84 437.01 504.33 439.73 502.46 440.40 C 491.33 445.20 479.82 449.21 467.95 451.76 C 461.76 452.96 455.33 455.30 449.04 453.43 C 454.40 450.93 460.40 450.53 466.02 448.82 C 475.97 446.51 485.47 442.74 494.93 438.94 C 481.99 437.44 468.97 436.98 456.00 435.99 C 441.78 435.65 427.67 433.81 413.50 432.72 C 404.99 431.89 396.39 431.01 388.21 428.36 C 389.39 431.75 390.72 435.24 390.53 438.92 C 390.28 446.81 386.05 453.80 384.81 461.50 C 383.27 469.68 384.85 478.98 390.95 485.02 C 396.01 490.19 402.16 494.92 409.57 495.83 C 418.35 497.91 427.00 494.56 435.32 492.13 C 457.93 485.60 481.19 481.75 504.03 476.17 C 520.69 472.39 532.97 459.79 546.83 450.74 C 548.07 450.01 548.85 448.79 549.53 447.57 C 555.98 436.03 561.13 423.83 567.07 412.04 C 570.92 404.57 573.07 396.33 573.71 387.97 C 569.34 390.71 565.51 394.30 560.86 396.55 C 556.80 397.67 557.11 392.02 553.85 391.40 C 551.47 390.60 548.80 389.95 547.27 387.77 C 543.64 383.17 541.71 377.54 539.42 372.22 C 530.28 385.38 515.03 391.87 500.71 397.70 C 497.46 398.80 493.54 400.91 490.49 398.20 C 507.28 389.98 525.63 382.52 537.43 367.28 C 535.16 361.53 532.78 355.82 530.26 350.18 C 525.07 359.01 517.82 366.54 509.69 372.72 C 493.76 384.18 474.18 389.07 454.98 391.48 C 451.53 391.59 447.52 392.70 444.59 390.28 C 450.65 388.97 456.86 388.49 462.88 386.96 C 473.68 384.70 484.06 380.75 494.04 376.08 C 508.14 369.61 520.05 358.71 528.44 345.73 C 523.92 341.26 517.61 339.34 512.97 335.01 C 503.99 328.17 498.23 317.80 496.04 306.82 C 495.41 305.28 496.87 304.40 497.85 303.56 C 500.61 309.31 502.50 315.52 506.21 320.79 C 510.81 327.66 517.69 332.54 524.70 336.71 C 521.71 327.76 517.25 318.74 517.81 309.09 C 519.49 310.07 521.09 311.34 521.62 313.30 C 525.51 324.21 528.98 335.32 534.15 345.73 C 539.34 356.25 543.17 367.36 547.80 378.12 C 549.34 381.00 550.40 384.97 553.91 386.00 C 557.13 386.78 559.89 388.57 561.18 391.74 C 568.91 385.45 577.20 379.89 585.78 374.84 C 597.20 368.21 609.47 362.50 622.60 360.40 C 630.43 359.09 638.38 359.98 646.14 361.35 C 644.13 354.56 640.93 348.08 636.27 342.71 C 631.13 336.85 626.46 330.59 622.34 323.97 C 614.95 323.25 608.08 320.05 602.01 315.91 C 593.66 310.23 585.27 304.61 576.69 299.29 C 574.75 298.22 573.34 296.49 572.27 294.59 C 574.35 294.55 576.54 294.48 578.42 295.57 C 592.44 302.50 604.70 312.68 619.29 318.51 C 612.66 306.88 604.98 295.85 596.38 285.58 C 587.06 274.63 577.57 263.72 566.40 254.60 C 552.77 242.81 537.26 233.29 524.45 220.53 C 517.59 214.04 512.10 206.18 504.60 200.37 C 498.86 195.59 492.28 191.96 485.35 189.22 M 238.87 293.06 C 242.09 293.16 245.31 293.16 248.53 293.09 C 245.34 292.48 242.07 292.48 238.87 293.06 M 236.86 299.21 C 232.63 299.33 228.66 301.04 225.02 303.10 C 216.86 307.70 209.00 312.84 200.56 316.94 C 201.87 317.63 203.18 318.33 204.50 319.03 C 207.18 316.32 210.23 313.71 214.06 312.87 C 220.56 311.12 227.28 314.76 231.26 319.77 C 236.82 326.93 238.33 336.22 239.05 345.01 C 249.85 344.11 260.05 340.03 269.51 334.94 C 266.96 326.87 265.64 318.44 262.68 310.50 C 260.86 305.58 257.55 301.45 254.23 297.46 C 248.52 298.74 242.69 298.98 236.86 299.21 M 213.43 317.34 C 210.06 318.40 208.42 321.81 205.65 323.70 C 202.17 323.79 199.55 320.32 195.96 320.60 C 192.63 320.29 191.86 324.05 189.85 325.86 C 186.22 326.27 182.70 324.00 179.06 324.82 C 176.31 325.68 176.45 329.65 173.91 330.71 C 170.65 330.94 165.75 329.60 164.87 334.06 C 166.52 341.75 170.82 348.57 174.51 355.43 C 176.45 358.79 178.49 363.43 183.04 363.47 C 185.83 362.64 185.95 358.21 189.06 358.19 C 191.73 358.85 192.14 362.65 194.92 363.28 C 197.72 362.93 199.88 360.55 200.31 357.83 C 200.88 355.86 201.20 352.44 204.02 352.77 C 209.18 353.03 203.37 361.83 208.97 361.35 C 212.79 360.11 211.46 354.85 214.99 353.20 C 216.87 354.46 218.16 356.30 219.32 358.20 C 220.26 357.43 221.20 356.65 222.14 355.88 C 222.71 351.96 222.05 347.34 225.13 344.30 C 226.54 348.54 225.65 353.12 226.95 357.39 C 232.58 356.27 234.42 350.01 233.82 344.98 C 233.01 336.63 231.53 327.67 225.90 321.09 C 222.98 317.51 217.87 315.56 213.43 317.34 M 579.33 384.23 C 581.92 395.02 577.69 405.66 573.40 415.38 C 568.13 426.12 563.38 437.12 557.61 447.61 C 553.65 454.64 549.86 461.77 545.66 468.67 C 536.19 484.32 528.67 501.12 518.24 516.20 C 514.85 521.13 509.76 524.43 505.32 528.32 C 500.33 532.62 494.55 536.34 491.12 542.13 C 487.51 548.26 485.67 555.25 484.51 562.22 C 482.93 571.49 479.99 580.67 480.60 590.17 C 483.38 580.14 486.27 570.13 489.23 560.15 C 490.18 557.38 491.24 554.20 493.95 552.68 C 496.04 551.68 496.49 554.77 495.83 556.08 C 493.44 566.20 490.00 576.04 487.18 586.04 C 485.31 592.71 483.03 599.40 483.11 606.41 C 489.69 599.70 494.47 591.48 500.09 584.00 C 504.19 578.68 507.24 572.60 511.71 567.57 C 512.47 566.48 513.61 566.03 514.90 566.54 C 513.95 572.14 510.78 577.09 507.76 581.80 C 501.71 590.16 495.88 598.66 489.55 606.81 C 495.46 605.54 501.37 603.04 505.20 598.18 C 511.86 589.76 517.14 580.33 521.82 570.69 C 522.60 568.91 523.88 567.33 525.89 566.95 C 525.26 572.50 523.13 577.72 520.77 582.72 C 516.73 591.04 512.08 599.23 505.53 605.85 C 508.42 604.94 511.43 603.90 513.49 601.54 C 520.95 594.37 522.14 583.21 528.53 575.38 C 529.14 582.96 525.11 589.77 522.87 596.76 C 531.36 586.30 535.01 572.81 536.77 559.68 C 538.31 549.94 537.17 539.79 540.54 530.38 C 542.88 522.94 547.73 516.66 552.94 510.99 C 559.27 504.31 565.55 497.58 572.17 491.18 C 584.60 479.62 595.68 466.75 607.44 454.54 C 617.27 444.56 627.22 433.41 630.10 419.26 C 633.91 401.10 628.33 382.98 624.81 365.27 C 608.35 367.66 593.22 375.39 579.33 384.23 M 519.21 477.19 C 511.59 481.45 503.00 483.32 494.58 485.28 C 476.29 489.20 457.94 492.95 439.84 497.70 C 431.30 499.89 422.85 503.04 413.91 502.92 C 416.32 510.03 419.72 516.77 421.83 523.99 C 424.19 531.99 425.51 540.42 424.54 548.76 C 437.01 537.51 443.70 519.55 460.31 513.26 C 463.33 512.40 467.68 509.32 470.04 512.83 C 462.90 516.44 455.31 519.79 449.83 525.83 C 443.66 532.65 438.73 540.46 432.81 547.48 C 444.40 542.37 456.41 537.80 466.51 529.96 C 466.59 531.49 466.62 533.17 465.37 534.29 C 461.23 538.92 456.42 543.13 450.70 545.68 C 443.74 548.81 436.50 551.28 429.08 553.06 C 424.65 554.06 421.18 557.13 417.36 559.38 C 411.33 562.80 406.67 568.15 402.77 573.79 C 398.89 580.08 395.34 586.72 393.69 593.98 C 401.48 592.37 408.77 588.97 416.58 587.41 C 425.43 585.53 434.70 586.11 443.35 588.66 C 456.48 592.12 468.27 599.27 478.72 607.79 C 478.32 603.67 478.71 599.56 479.38 595.50 C 477.31 593.48 475.59 590.97 475.59 587.97 C 475.16 579.23 477.61 570.70 479.03 562.15 C 480.76 552.27 483.18 541.81 490.31 534.31 C 498.58 525.95 508.95 519.39 515.14 509.13 C 525.65 493.06 533.20 475.30 543.30 458.99 C 535.70 465.58 528.04 472.28 519.21 477.19 M 570.85 501.81 C 563.80 509.44 555.73 516.26 549.95 524.97 C 544.40 533.61 544.17 544.16 543.51 554.08 C 542.41 565.22 540.54 576.50 535.79 586.74 C 532.74 593.51 528.71 600.21 522.50 604.52 C 520.75 605.87 518.49 606.00 516.39 606.33 C 511.12 610.55 503.82 612.59 497.26 610.47 C 494.16 611.24 491.09 612.23 487.89 612.45 C 485.60 612.14 483.66 610.66 481.69 609.57 C 486.23 613.64 490.94 617.60 496.09 620.88 C 506.86 625.09 518.65 622.71 529.74 621.28 C 539.86 608.78 543.91 592.90 547.75 577.63 C 551.10 564.73 556.21 552.32 562.83 540.76 C 563.67 539.38 564.64 538.04 565.95 537.07 C 568.06 536.80 568.16 539.12 567.62 540.59 C 565.78 546.16 563.02 551.38 560.94 556.87 C 554.58 572.09 552.40 588.61 546.74 604.06 C 556.80 590.68 567.84 577.98 576.65 563.70 C 583.19 552.24 587.09 539.55 590.83 526.97 C 595.75 509.33 600.01 491.25 599.76 472.82 C 590.42 482.78 580.65 492.31 570.85 501.81 M 564.96 589.98 C 556.42 600.05 548.59 610.79 538.95 619.87 C 536.49 622.17 534.42 625.25 530.99 626.18 C 524.60 627.95 517.91 628.47 511.30 628.59 C 503.97 637.56 496.17 646.12 488.33 654.64 C 502.98 657.34 516.88 664.24 532.01 663.91 C 540.67 663.84 548.86 660.54 556.36 656.46 C 565.76 651.20 575.77 647.20 585.37 642.35 C 581.72 640.97 578.09 639.38 575.02 636.95 C 567.77 631.41 564.54 622.60 559.94 615.05 C 559.35 613.61 557.35 610.86 559.90 610.18 C 568.52 619.26 574.65 631.19 586.28 637.01 C 583.39 630.99 579.43 625.55 576.54 619.54 C 573.65 613.45 573.39 606.58 573.34 599.97 C 573.14 591.81 575.65 583.92 575.97 575.80 C 572.54 580.71 568.89 585.46 564.96 589.98 M 428.18 591.73 C 425.78 605.38 416.72 616.38 410.30 628.30 C 404.09 639.92 398.42 652.52 398.55 665.97 C 398.14 677.93 403.13 689.42 410.10 698.92 C 415.50 706.54 423.07 712.36 428.10 720.28 C 432.43 714.22 438.18 709.25 444.71 705.68 C 457.52 698.64 472.52 695.71 487.05 697.22 C 478.26 686.01 467.28 676.73 455.46 668.87 C 456.20 667.88 456.56 666.12 458.14 666.40 C 461.51 666.78 464.25 669.08 467.13 670.69 C 479.32 656.04 492.01 641.81 505.04 627.90 C 500.75 627.18 496.28 626.76 492.44 624.56 C 485.54 620.71 479.75 615.25 473.40 610.61 C 460.35 600.55 444.86 592.74 428.18 591.73 M 561.26 660.21 C 553.81 664.28 546.06 668.18 537.54 669.32 C 524.55 671.21 511.86 666.83 499.58 663.22 C 505.45 678.34 507.37 694.55 511.85 710.07 C 514.80 720.43 518.32 730.66 522.72 740.50 C 528.64 753.52 535.91 766.64 547.63 775.31 C 556.31 781.75 567.84 780.91 578.04 780.17 C 581.29 779.64 585.28 780.47 587.77 777.79 C 593.50 772.63 597.27 765.66 599.63 758.39 C 603.36 746.77 605.07 734.01 601.63 722.11 C 592.91 723.47 585.25 727.92 577.26 731.32 C 578.02 729.80 578.90 728.29 580.38 727.38 C 585.02 724.06 589.91 721.01 595.27 718.98 C 592.05 715.99 589.10 712.56 587.69 708.33 C 583.89 697.66 583.49 686.21 582.55 675.03 C 582.16 666.67 581.34 658.31 581.59 649.93 C 574.95 653.62 567.90 656.50 561.26 660.21 M 484.39 659.00 C 479.96 663.84 475.54 668.69 470.90 673.33 C 487.27 685.71 499.67 702.66 509.30 720.62 C 502.46 701.30 501.37 680.40 493.38 661.46 C 490.38 660.64 487.38 659.81 484.39 659.00 M 430.82 724.83 C 434.50 733.17 436.02 742.24 439.25 750.75 C 445.88 769.03 454.25 786.64 463.00 804.00 C 472.69 826.31 484.35 847.96 490.60 871.60 C 493.03 879.27 494.60 887.25 494.09 895.34 C 500.44 895.01 506.98 894.79 513.08 896.92 C 519.57 898.61 525.67 901.39 531.79 904.10 C 537.72 906.87 544.29 904.34 550.51 905.48 C 549.23 902.75 548.02 899.99 546.74 897.27 C 541.53 886.47 539.21 874.59 536.81 862.93 C 533.13 844.09 530.56 825.05 528.90 805.94 C 525.99 784.47 520.45 763.39 512.63 743.20 C 507.24 729.53 500.82 716.12 492.14 704.21 C 486.11 703.82 480.05 703.18 474.01 703.80 C 457.70 705.10 441.48 712.18 430.82 724.83 M 607.79 721.03 C 610.99 728.87 610.93 737.61 609.50 745.84 C 607.15 757.98 602.04 769.77 593.81 779.09 C 620.04 785.66 644.97 797.19 671.92 800.84 C 691.24 804.17 711.07 802.67 730.31 806.71 C 744.42 809.14 757.75 815.01 772.05 816.47 C 776.82 816.88 782.45 816.64 785.86 812.78 C 788.82 808.82 790.04 803.78 790.39 798.92 C 790.89 787.36 785.28 776.00 776.46 768.67 C 773.37 766.18 770.11 763.39 766.00 762.96 C 752.93 761.06 739.60 759.54 727.18 754.78 C 714.34 749.69 702.12 743.23 689.62 737.40 C 677.15 731.42 663.99 726.94 650.62 723.47 C 636.68 719.83 622.06 719.39 607.79 721.03 M 779.28 764.63 C 789.63 772.74 796.87 785.62 795.98 799.02 C 795.44 806.80 792.32 815.22 785.23 819.28 C 780.59 822.15 774.93 821.92 769.69 821.79 C 772.58 834.29 770.40 847.37 773.41 859.85 C 775.27 867.94 778.80 875.47 782.11 883.04 C 785.52 890.98 785.04 899.74 785.86 908.16 C 786.08 913.60 792.77 916.49 797.39 914.54 C 807.04 911.09 814.60 903.58 820.45 895.39 C 825.06 888.46 828.93 880.53 828.90 872.03 C 829.06 860.22 825.57 848.77 824.91 837.02 C 823.61 821.34 824.89 805.61 826.24 789.98 C 827.15 780.65 822.17 770.34 813.04 767.03 C 802.25 763.02 790.51 764.83 779.28 764.63 M 494.43 900.62 C 487.53 901.78 484.25 908.48 480.46 913.53 C 472.85 923.42 464.78 933.46 453.81 939.78 C 443.83 945.93 432.08 948.66 422.51 955.54 C 418.48 958.49 415.15 962.92 414.53 967.98 C 414.45 973.83 420.27 977.10 425.06 978.88 C 440.44 984.17 457.16 984.24 473.09 981.81 C 489.83 979.37 505.06 970.60 522.07 969.57 C 533.28 968.59 544.56 972.38 555.67 969.71 C 563.75 967.49 568.71 959.56 570.43 951.79 C 571.66 943.02 567.84 934.64 564.06 926.97 C 560.97 920.84 557.23 914.24 550.58 911.48 C 545.36 909.10 539.53 911.34 534.12 910.05 C 529.04 908.83 524.46 906.18 519.56 904.45 C 511.54 901.67 503.01 898.47 494.43 900.62 Z" />
        <path fill="#020202" opacity="1.00"
            d=" M 400.31 127.22 C 402.61 125.94 405.76 126.73 406.53 129.42 C 407.59 132.72 409.80 137.59 405.98 139.90 C 399.09 143.87 391.43 146.28 384.15 149.43 C 381.84 150.20 378.47 152.09 376.65 149.51 C 374.93 146.68 372.11 143.14 373.76 139.72 C 376.16 137.62 379.21 136.48 382.06 135.12 C 388.13 132.47 394.17 129.73 400.31 127.22 Z" />
        <path fill="#020202" opacity="1.00"
            d=" M 374.03 183.10 C 376.72 181.03 378.83 176.12 382.75 177.19 C 383.34 179.30 381.68 180.97 380.61 182.58 C 378.23 185.62 376.13 188.89 373.47 191.69 C 372.23 192.44 371.06 191.54 370.04 190.89 C 367.94 189.49 365.85 187.98 364.29 185.97 C 363.46 183.81 365.51 182.11 367.17 181.13 C 369.57 181.01 371.77 182.42 374.03 183.10 Z" />
        <path fill="#020202" opacity="1.00"
            d=" M 346.40 314.59 C 349.26 314.52 352.11 315.05 354.75 316.18 C 369.33 322.00 382.98 330.04 395.48 339.50 C 397.87 341.60 401.34 343.57 400.98 347.26 C 394.34 344.62 388.75 340.08 382.80 336.24 C 372.21 329.05 360.87 323.02 349.26 317.65 C 347.82 317.17 347.16 315.76 346.40 314.59 Z" />
    </g>
    <g id="#f0b58bff">
        <path fill="#f0b58b" opacity="1.00"
            d=" M 386.46 98.37 C 391.22 95.27 395.96 91.99 399.51 87.49 C 403.75 99.23 410.34 110.06 418.60 119.39 C 419.77 120.67 421.14 122.15 423.06 121.38 C 424.14 119.01 424.26 116.35 424.84 113.84 C 426.81 117.06 430.08 118.90 433.68 119.73 C 434.72 125.16 435.86 130.58 437.19 135.95 C 437.47 137.65 438.87 139.17 440.72 138.63 C 449.12 136.62 456.72 131.91 463.04 126.09 C 465.55 123.94 468.50 121.58 472.05 122.10 C 475.26 122.08 478.00 124.77 478.26 127.93 C 478.84 135.57 474.66 142.42 470.51 148.47 C 468.20 151.96 465.09 154.79 462.40 157.96 C 462.88 161.61 467.49 158.93 469.74 158.40 C 468.58 169.65 473.08 180.76 480.19 189.30 C 480.63 197.26 479.21 205.66 474.15 212.05 C 470.80 217.98 464.11 220.78 460.42 226.41 C 454.95 234.78 452.62 244.78 447.12 253.14 C 445.36 255.58 443.32 258.51 440.11 258.95 C 437.90 258.26 437.10 255.78 436.12 253.93 C 432.63 245.53 429.65 236.87 425.08 228.97 C 422.93 225.46 420.49 222.14 418.16 218.75 C 424.84 214.74 429.71 208.55 435.56 203.52 C 438.82 200.50 442.54 197.75 444.62 193.70 C 442.97 194.23 441.31 194.81 439.91 195.86 C 430.73 202.47 422.36 210.51 411.88 215.12 C 406.25 217.18 400.28 219.47 394.18 218.48 C 387.05 216.29 381.84 210.59 377.26 204.99 C 383.37 203.25 389.39 201.00 395.00 198.01 C 397.21 196.99 398.05 194.76 398.08 192.47 C 399.26 191.46 400.93 190.72 401.29 189.04 C 400.94 187.11 398.75 186.47 397.18 187.41 C 388.72 190.65 380.47 194.41 372.29 198.28 C 369.04 193.32 365.50 188.54 362.58 183.37 C 364.99 173.51 367.32 162.62 363.43 152.84 C 362.12 150.38 361.02 146.88 358.02 146.17 C 354.36 146.58 350.86 147.84 347.34 148.87 C 343.82 140.19 340.30 131.38 338.94 122.06 C 342.66 117.91 347.75 115.24 351.23 110.84 C 352.28 111.52 353.41 112.85 354.80 112.08 C 358.83 110.50 362.01 107.44 365.03 104.44 C 365.54 108.08 366.78 112.08 370.06 114.16 C 372.50 115.03 375.14 114.16 376.88 112.33 C 376.48 111.54 375.67 109.97 375.27 109.18 C 377.41 104.21 382.22 101.35 386.46 98.37 M 400.31 127.22 C 394.17 129.73 388.13 132.47 382.06 135.12 C 379.21 136.48 376.16 137.62 373.76 139.72 C 372.11 143.14 374.93 146.68 376.65 149.51 C 378.47 152.09 381.84 150.20 384.15 149.43 C 391.43 146.28 399.09 143.87 405.98 139.90 C 409.80 137.59 407.59 132.72 406.53 129.42 C 405.76 126.73 402.61 125.94 400.31 127.22 M 374.03 183.10 C 371.77 182.42 369.57 181.01 367.17 181.13 C 365.51 182.11 363.46 183.81 364.29 185.97 C 365.85 187.98 367.94 189.49 370.04 190.89 C 371.06 191.54 372.23 192.44 373.47 191.69 C 376.13 188.89 378.23 185.62 380.61 182.58 C 381.68 180.97 383.34 179.30 382.75 177.19 C 378.83 176.12 376.72 181.03 374.03 183.10 Z" />
        <path fill="#f0b58b" opacity="1.00"
            d=" M 353.59 162.22 C 356.00 161.47 358.42 160.72 360.85 160.00 C 360.85 165.30 360.19 170.57 359.41 175.80 C 357.68 171.19 355.73 166.66 353.59 162.22 Z" />
        <path fill="#f0b58b" opacity="1.00"
            d=" M 236.86 299.21 C 242.69 298.98 248.52 298.74 254.23 297.46 C 257.55 301.45 260.86 305.58 262.68 310.50 C 265.64 318.44 266.96 326.87 269.51 334.94 C 260.05 340.03 249.85 344.11 239.05 345.01 C 238.33 336.22 236.82 326.93 231.26 319.77 C 227.28 314.76 220.56 311.12 214.06 312.87 C 210.23 313.71 207.18 316.32 204.50 319.03 C 203.18 318.33 201.87 317.63 200.56 316.94 C 209.00 312.84 216.86 307.70 225.02 303.10 C 228.66 301.04 232.63 299.33 236.86 299.21 Z" />
        <path fill="#f0b58b" opacity="1.00"
            d=" M 213.43 317.34 C 217.87 315.56 222.98 317.51 225.90 321.09 C 231.53 327.67 233.01 336.63 233.82 344.98 C 234.42 350.01 232.58 356.27 226.95 357.39 C 225.65 353.12 226.54 348.54 225.13 344.30 C 222.05 347.34 222.71 351.96 222.14 355.88 C 221.20 356.65 220.26 357.43 219.32 358.20 C 218.16 356.30 216.87 354.46 214.99 353.20 C 211.46 354.85 212.79 360.11 208.97 361.35 C 203.37 361.83 209.18 353.03 204.02 352.77 C 201.20 352.44 200.88 355.86 200.31 357.83 C 199.88 360.55 197.72 362.93 194.92 363.28 C 192.14 362.65 191.73 358.85 189.06 358.19 C 185.95 358.21 185.83 362.64 183.04 363.47 C 178.49 363.43 176.45 358.79 174.51 355.43 C 170.82 348.57 166.52 341.75 164.87 334.06 C 165.75 329.60 170.65 330.94 173.91 330.71 C 176.45 329.65 176.31 325.68 179.06 324.82 C 182.70 324.00 186.22 326.27 189.85 325.86 C 191.86 324.05 192.63 320.29 195.96 320.60 C 199.55 320.32 202.17 323.79 205.65 323.70 C 208.42 321.81 210.06 318.40 213.43 317.34 Z" />
        <path fill="#f0b58b" opacity="1.00"
            d=" M 579.33 384.23 C 593.22 375.39 608.35 367.66 624.81 365.27 C 628.33 382.98 633.91 401.10 630.10 419.26 C 627.22 433.41 617.27 444.56 607.44 454.54 C 595.68 466.75 584.60 479.62 572.17 491.18 C 565.55 497.58 559.27 504.31 552.94 510.99 C 547.73 516.66 542.88 522.94 540.54 530.38 C 537.17 539.79 538.31 549.94 536.77 559.68 C 535.01 572.81 531.36 586.30 522.87 596.76 C 525.11 589.77 529.14 582.96 528.53 575.38 C 522.14 583.21 520.95 594.37 513.49 601.54 C 511.43 603.90 508.42 604.94 505.53 605.85 C 512.08 599.23 516.73 591.04 520.77 582.72 C 523.13 577.72 525.26 572.50 525.89 566.95 C 523.88 567.33 522.60 568.91 521.82 570.69 C 517.14 580.33 511.86 589.76 505.20 598.18 C 501.37 603.04 495.46 605.54 489.55 606.81 C 495.88 598.66 501.71 590.16 507.76 581.80 C 510.78 577.09 513.95 572.14 514.90 566.54 C 513.61 566.03 512.47 566.48 511.71 567.57 C 507.24 572.60 504.19 578.68 500.09 584.00 C 494.47 591.48 489.69 599.70 483.11 606.41 C 483.03 599.40 485.31 592.71 487.18 586.04 C 490.00 576.04 493.44 566.20 495.83 556.08 C 496.49 554.77 496.04 551.68 493.95 552.68 C 491.24 554.20 490.18 557.38 489.23 560.15 C 486.27 570.13 483.38 580.14 480.60 590.17 C 479.99 580.67 482.93 571.49 484.51 562.22 C 485.67 555.25 487.51 548.26 491.12 542.13 C 494.55 536.34 500.33 532.62 505.32 528.32 C 509.76 524.43 514.85 521.13 518.24 516.20 C 528.67 501.12 536.19 484.32 545.66 468.67 C 549.86 461.77 553.65 454.64 557.61 447.61 C 563.38 437.12 568.13 426.12 573.40 415.38 C 577.69 405.66 581.92 395.02 579.33 384.23 Z" />
        <path fill="#f0b58b" opacity="1.00"
            d=" M 428.18 591.73 C 444.86 592.74 460.35 600.55 473.40 610.61 C 479.75 615.25 485.54 620.71 492.44 624.56 C 496.28 626.76 500.75 627.18 505.04 627.90 C 492.01 641.81 479.32 656.04 467.13 670.69 C 464.25 669.08 461.51 666.78 458.14 666.40 C 456.56 666.12 456.20 667.88 455.46 668.87 C 467.28 676.73 478.26 686.01 487.05 697.22 C 472.52 695.71 457.52 698.64 444.71 705.68 C 438.18 709.25 432.43 714.22 428.10 720.28 C 423.07 712.36 415.50 706.54 410.10 698.92 C 403.13 689.42 398.14 677.93 398.55 665.97 C 398.42 652.52 404.09 639.92 410.30 628.30 C 416.72 616.38 425.78 605.38 428.18 591.73 Z" />
        <path fill="#f0b58b" opacity="1.00"
            d=" M 561.26 660.21 C 567.90 656.50 574.95 653.62 581.59 649.93 C 581.34 658.31 582.16 666.67 582.55 675.03 C 583.49 686.21 583.89 697.66 587.69 708.33 C 589.10 712.56 592.05 715.99 595.27 718.98 C 589.91 721.01 585.02 724.06 580.38 727.38 C 578.90 728.29 578.02 729.80 577.26 731.32 C 585.25 727.92 592.91 723.47 601.63 722.11 C 605.07 734.01 603.36 746.77 599.63 758.39 C 597.27 765.66 593.50 772.63 587.77 777.79 C 585.28 780.47 581.29 779.64 578.04 780.17 C 567.84 780.91 556.31 781.75 547.63 775.31 C 535.91 766.64 528.64 753.52 522.72 740.50 C 518.32 730.66 514.80 720.43 511.85 710.07 C 507.37 694.55 505.45 678.34 499.58 663.22 C 511.86 666.83 524.55 671.21 537.54 669.32 C 546.06 668.18 553.81 664.28 561.26 660.21 Z" />
    </g>
    <g id="#f11b27ff">
        <path fill="var(--shirt-color, grey)" opacity="1.00"
            d=" M 485.35 189.22 C 492.28 191.96 498.86 195.59 504.60 200.37 C 512.10 206.18 517.59 214.04 524.45 220.53 C 537.26 233.29 552.77 242.81 566.40 254.60 C 577.57 263.72 587.06 274.63 596.38 285.58 C 604.98 295.85 612.66 306.88 619.29 318.51 C 604.70 312.68 592.44 302.50 578.42 295.57 C 576.54 294.48 574.35 294.55 572.27 294.59 C 573.34 296.49 574.75 298.22 576.69 299.29 C 585.27 304.61 593.66 310.23 602.01 315.91 C 608.08 320.05 614.95 323.25 622.34 323.97 C 626.46 330.59 631.13 336.85 636.27 342.71 C 640.93 348.08 644.13 354.56 646.14 361.35 C 638.38 359.98 630.43 359.09 622.60 360.40 C 609.47 362.50 597.20 368.21 585.78 374.84 C 577.20 379.89 568.91 385.45 561.18 391.74 C 559.89 388.57 557.13 386.78 553.91 386.00 C 550.40 384.97 549.34 381.00 547.80 378.12 C 543.17 367.36 539.34 356.25 534.15 345.73 C 528.98 335.32 525.51 324.21 521.62 313.30 C 521.09 311.34 519.49 310.07 517.81 309.09 C 517.25 318.74 521.71 327.76 524.70 336.71 C 517.69 332.54 510.81 327.66 506.21 320.79 C 502.50 315.52 500.61 309.31 497.85 303.56 C 496.87 304.40 495.41 305.28 496.04 306.82 C 498.23 317.80 503.99 328.17 512.97 335.01 C 517.61 339.34 523.92 341.26 528.44 345.73 C 520.05 358.71 508.14 369.61 494.04 376.08 C 484.06 380.75 473.68 384.70 462.88 386.96 C 456.86 388.49 450.65 388.97 444.59 390.28 C 447.52 392.70 451.53 391.59 454.98 391.48 C 474.18 389.07 493.76 384.18 509.69 372.72 C 517.82 366.54 525.07 359.01 530.26 350.18 C 532.78 355.82 535.16 361.53 537.43 367.28 C 525.63 382.52 507.28 389.98 490.49 398.20 C 493.54 400.91 497.46 398.80 500.71 397.70 C 515.03 391.87 530.28 385.38 539.42 372.22 C 541.71 377.54 543.64 383.17 547.27 387.77 C 548.80 389.95 551.47 390.60 553.85 391.40 C 557.11 392.02 556.80 397.67 560.86 396.55 C 565.51 394.30 569.34 390.71 573.71 387.97 C 573.07 396.33 570.92 404.57 567.07 412.04 C 561.13 423.83 555.98 436.03 549.53 447.57 C 548.85 448.79 548.07 450.01 546.83 450.74 C 532.97 459.79 520.69 472.39 504.03 476.17 C 481.19 481.75 457.93 485.60 435.32 492.13 C 427.00 494.56 418.35 497.91 409.57 495.83 C 402.16 494.92 396.01 490.19 390.95 485.02 C 384.85 478.98 383.27 469.68 384.81 461.50 C 386.05 453.80 390.28 446.81 390.53 438.92 C 390.72 435.24 389.39 431.75 388.21 428.36 C 396.39 431.01 404.99 431.89 413.50 432.72 C 427.67 433.81 441.78 435.65 456.00 435.99 C 468.97 436.98 481.99 437.44 494.93 438.94 C 485.47 442.74 475.97 446.51 466.02 448.82 C 460.40 450.53 454.40 450.93 449.04 453.43 C 455.33 455.30 461.76 452.96 467.95 451.76 C 479.82 449.21 491.33 445.20 502.46 440.40 C 504.33 439.73 504.84 437.01 502.89 436.10 C 498.17 434.24 492.97 434.10 488.00 433.42 C 473.01 432.21 458.01 431.10 442.98 430.43 C 432.27 429.61 421.60 428.37 410.88 427.67 C 403.14 426.96 395.31 426.25 387.87 423.87 C 384.77 423.06 383.12 420.14 381.04 417.99 C 377.50 413.87 372.68 410.78 370.30 405.75 C 366.86 398.51 366.87 390.32 365.56 382.56 C 363.39 368.68 360.73 354.50 353.85 342.07 C 348.45 332.59 342.06 323.49 334.11 315.98 C 343.94 308.69 354.24 302.08 364.59 295.55 C 366.05 294.45 369.01 292.59 367.02 290.60 C 365.64 290.94 364.31 291.46 363.05 292.10 C 342.51 302.65 323.87 316.46 305.81 330.76 C 298.63 336.27 292.77 343.21 285.88 349.04 C 281.41 345.87 277.19 341.85 275.54 336.46 C 272.23 326.58 271.00 316.03 266.42 306.58 C 263.51 300.57 259.61 294.78 254.17 290.80 C 247.11 285.59 235.90 286.40 230.28 293.34 C 228.22 295.77 225.17 296.90 222.42 298.32 C 221.87 290.35 223.12 281.64 228.29 275.26 C 234.42 268.52 244.15 266.33 252.95 267.35 C 258.76 267.87 265.85 269.15 270.17 264.14 C 275.98 257.07 279.66 248.51 282.85 240.00 C 286.12 230.52 292.74 222.67 299.58 215.53 C 311.78 203.51 327.12 194.03 344.15 190.96 C 349.04 189.98 354.02 189.66 358.99 189.34 C 363.84 196.93 368.70 204.56 374.43 211.53 C 379.15 217.30 385.25 222.22 392.45 224.44 C 399.69 226.00 406.85 223.32 413.62 221.03 C 421.81 230.43 425.50 242.50 429.91 253.91 C 431.53 257.90 433.35 262.62 437.71 264.27 C 441.95 265.73 446.25 263.04 449.00 259.97 C 456.58 251.26 458.65 239.42 464.87 229.88 C 467.84 225.51 472.77 223.08 476.08 219.01 C 480.32 213.78 483.83 207.70 484.87 200.96 C 485.40 197.07 485.33 193.13 485.35 189.22 M 346.40 314.59 C 347.16 315.76 347.82 317.17 349.26 317.65 C 360.87 323.02 372.21 329.05 382.80 336.24 C 388.75 340.08 394.34 344.62 400.98 347.26 C 401.34 343.57 397.87 341.60 395.48 339.50 C 382.98 330.04 369.33 322.00 354.75 316.18 C 352.11 315.05 349.26 314.52 346.40 314.59 Z" />
        <path fill="var(--shirt-color, grey)" opacity="1.00"
            d=" M 238.87 293.06 C 242.07 292.48 245.34 292.48 248.53 293.09 C 245.31 293.16 242.09 293.16 238.87 293.06 Z" />
    </g>
    <g id="#2b3dcdff">
        <path fill="var(--pants-color, grey)" opacity="1.00"
            d=" M 519.21 477.19 C 528.04 472.28 535.70 465.58 543.30 458.99 C 533.20 475.30 525.65 493.06 515.14 509.13 C 508.95 519.39 498.58 525.95 490.31 534.31 C 483.18 541.81 480.76 552.27 479.03 562.15 C 477.61 570.70 475.16 579.23 475.59 587.97 C 475.59 590.97 477.31 593.48 479.38 595.50 C 478.71 599.56 478.32 603.67 478.72 607.79 C 468.27 599.27 456.48 592.12 443.35 588.66 C 434.70 586.11 425.43 585.53 416.58 587.41 C 408.77 588.97 401.48 592.37 393.69 593.98 C 395.34 586.72 398.89 580.08 402.77 573.79 C 406.67 568.15 411.33 562.80 417.36 559.38 C 421.18 557.13 424.65 554.06 429.08 553.06 C 436.50 551.28 443.74 548.81 450.70 545.68 C 456.42 543.13 461.23 538.92 465.37 534.29 C 466.62 533.17 466.59 531.49 466.51 529.96 C 456.41 537.80 444.40 542.37 432.81 547.48 C 438.73 540.46 443.66 532.65 449.83 525.83 C 455.31 519.79 462.90 516.44 470.04 512.83 C 467.68 509.32 463.33 512.40 460.31 513.26 C 443.70 519.55 437.01 537.51 424.54 548.76 C 425.51 540.42 424.19 531.99 421.83 523.99 C 419.72 516.77 416.32 510.03 413.91 502.92 C 422.85 503.04 431.30 499.89 439.84 497.70 C 457.94 492.95 476.29 489.20 494.58 485.28 C 503.00 483.32 511.59 481.45 519.21 477.19 Z" />
        <path fill="var(--pants-color, grey)" opacity="1.00"
            d=" M 570.85 501.81 C 580.65 492.31 590.42 482.78 599.76 472.82 C 600.01 491.25 595.75 509.33 590.83 526.97 C 587.09 539.55 583.19 552.24 576.65 563.70 C 567.84 577.98 556.80 590.68 546.74 604.06 C 552.40 588.61 554.58 572.09 560.94 556.87 C 563.02 551.38 565.78 546.16 567.62 540.59 C 568.16 539.12 568.06 536.80 565.95 537.07 C 564.64 538.04 563.67 539.38 562.83 540.76 C 556.21 552.32 551.10 564.73 547.75 577.63 C 543.91 592.90 539.86 608.78 529.74 621.28 C 518.65 622.71 506.86 625.09 496.09 620.88 C 490.94 617.60 486.23 613.64 481.69 609.57 C 483.66 610.66 485.60 612.14 487.89 612.45 C 491.09 612.23 494.16 611.24 497.26 610.47 C 503.82 612.59 511.12 610.55 516.39 606.33 C 518.49 606.00 520.75 605.87 522.50 604.52 C 528.71 600.21 532.74 593.51 535.79 586.74 C 540.54 576.50 542.41 565.22 543.51 554.08 C 544.17 544.16 544.40 533.61 549.95 524.97 C 555.73 516.26 563.80 509.44 570.85 501.81 Z" />
        <path fill="var(--pants-color, grey)" opacity="1.00"
            d=" M 564.96 589.98 C 568.89 585.46 572.54 580.71 575.97 575.80 C 575.65 583.92 573.14 591.81 573.34 599.97 C 573.39 606.58 573.65 613.45 576.54 619.54 C 579.43 625.55 583.39 630.99 586.28 637.01 C 574.65 631.19 568.52 619.26 559.90 610.18 C 557.35 610.86 559.35 613.61 559.94 615.05 C 564.54 622.60 567.77 631.41 575.02 636.95 C 578.09 639.38 581.72 640.97 585.37 642.35 C 575.77 647.20 565.76 651.20 556.36 656.46 C 548.86 660.54 540.67 663.84 532.01 663.91 C 516.88 664.24 502.98 657.34 488.33 654.64 C 496.17 646.12 503.97 637.56 511.30 628.59 C 517.91 628.47 524.60 627.95 530.99 626.18 C 534.42 625.25 536.49 622.17 538.95 619.87 C 548.59 610.79 556.42 600.05 564.96 589.98 Z" />
        <path fill="var(--socks-color, grey)" opacity="1.00"
            d=" M 430.82 724.83 C 441.48 712.18 457.70 705.10 474.01 703.80 C 480.05 703.18 486.11 703.82 492.14 704.21 C 500.82 716.12 507.24 729.53 512.63 743.20 C 520.45 763.39 525.99 784.47 528.90 805.94 C 530.56 825.05 533.13 844.09 536.81 862.93 C 539.21 874.59 541.53 886.47 546.74 897.27 C 548.02 899.99 549.23 902.75 550.51 905.48 C 544.29 904.34 537.72 906.87 531.79 904.10 C 525.67 901.39 519.57 898.61 513.08 896.92 C 506.98 894.79 500.44 895.01 494.09 895.34 C 494.60 887.25 493.03 879.27 490.60 871.60 C 484.35 847.96 472.69 826.31 463.00 804.00 C 454.25 786.64 445.88 769.03 439.25 750.75 C 436.02 742.24 434.50 733.17 430.82 724.83 Z" />
        <path fill="var(--socks-color, grey)" opacity="1.00"
            d=" M 607.79 721.03 C 622.06 719.39 636.68 719.83 650.62 723.47 C 663.99 726.94 677.15 731.42 689.62 737.40 C 702.12 743.23 714.34 749.69 727.18 754.78 C 739.60 759.54 752.93 761.06 766.00 762.96 C 770.11 763.39 773.37 766.18 776.46 768.67 C 785.28 776.00 790.89 787.36 790.39 798.92 C 790.04 803.78 788.82 808.82 785.86 812.78 C 782.45 816.64 776.82 816.88 772.05 816.47 C 757.75 815.01 744.42 809.14 730.31 806.71 C 711.07 802.67 691.24 804.17 671.92 800.84 C 644.97 797.19 620.04 785.66 593.81 779.09 C 602.04 769.77 607.15 757.98 609.50 745.84 C 610.93 737.61 610.99 728.87 607.79 721.03 Z" />
    </g>
    <g id="#4d4d4dff">
        <path fill="#4d4d4d" opacity="1.00"
            d=" M 779.28 764.63 C 790.51 764.83 802.25 763.02 813.04 767.03 C 822.17 770.34 827.15 780.65 826.24 789.98 C 824.89 805.61 823.61 821.34 824.91 837.02 C 825.57 848.77 829.06 860.22 828.90 872.03 C 828.93 880.53 825.06 888.46 820.45 895.39 C 814.60 903.58 807.04 911.09 797.39 914.54 C 792.77 916.49 786.08 913.60 785.86 908.16 C 785.04 899.74 785.52 890.98 782.11 883.04 C 778.80 875.47 775.27 867.94 773.41 859.85 C 770.40 847.37 772.58 834.29 769.69 821.79 C 774.93 821.92 780.59 822.15 785.23 819.28 C 792.32 815.22 795.44 806.80 795.98 799.02 C 796.87 785.62 789.63 772.74 779.28 764.63 Z" />
        <path fill="#4d4d4d" opacity="1.00"
            d=" M 494.43 900.62 C 503.01 898.47 511.54 901.67 519.56 904.45 C 524.46 906.18 529.04 908.83 534.12 910.05 C 539.53 911.34 545.36 909.10 550.58 911.48 C 557.23 914.24 560.97 920.84 564.06 926.97 C 567.84 934.64 571.66 943.02 570.43 951.79 C 568.71 959.56 563.75 967.49 555.67 969.71 C 544.56 972.38 533.28 968.59 522.07 969.57 C 505.06 970.60 489.83 979.37 473.09 981.81 C 457.16 984.24 440.44 984.17 425.06 978.88 C 420.27 977.10 414.45 973.83 414.53 967.98 C 415.15 962.92 418.48 958.49 422.51 955.54 C 432.08 948.66 443.83 945.93 453.81 939.78 C 464.78 933.46 472.85 923.42 480.46 913.53 C 484.25 908.48 487.53 901.78 494.43 900.62 Z" />
    </g>
</svg>