<?xml version="1.0" encoding="UTF-8" ?>
<!DOCTYPE svg PUBLIC "-//W3C//DTD SVG 1.1//EN" "http://www.w3.org/Graphics/SVG/1.1/DTD/svg11.dtd">
<svg width="1000pt" height="1000pt" viewBox="0 0 1000 1000" version="1.1" xmlns="http://www.w3.org/2000/svg">
    <g id="#020202ff">
        <path fill="#020202" opacity="1.00"
            d=" M 465.22 27.82 C 470.42 26.49 475.75 24.28 481.21 25.81 C 486.49 26.79 489.72 31.39 492.85 35.32 C 501.55 36.18 510.06 38.87 517.59 43.32 C 524.11 47.74 527.28 55.48 528.59 62.99 C 530.66 74.55 530.79 86.43 529.71 98.10 C 529.49 102.57 527.11 106.55 526.60 110.93 C 527.14 114.65 528.53 118.23 528.57 122.02 C 528.68 130.09 527.33 138.15 524.96 145.84 C 524.27 148.30 522.97 150.51 521.49 152.56 C 520.91 161.99 521.45 171.64 518.73 180.80 C 522.72 180.92 526.93 181.44 530.67 179.65 C 536.93 177.02 543.69 174.42 550.60 175.69 C 557.63 177.30 563.11 182.30 569.25 185.74 C 574.03 187.11 579.20 186.46 583.95 188.12 C 598.97 192.66 611.12 203.21 622.66 213.40 C 640.09 228.92 653.94 247.85 667.07 267.02 C 670.36 272.03 674.45 276.50 677.24 281.84 C 680.24 287.90 686.41 291.25 690.74 296.21 C 695.49 301.55 700.66 307.06 702.91 313.98 C 703.94 325.14 701.02 336.58 694.96 346.00 C 686.02 359.67 671.33 368.07 656.87 374.80 C 658.48 381.37 658.50 388.24 657.33 394.89 C 654.02 412.76 659.67 431.20 654.93 448.93 C 653.97 453.02 651.04 456.20 648.38 459.30 C 650.96 472.73 650.20 486.53 648.50 500.02 C 646.94 513.70 643.43 527.21 637.78 539.79 C 628.78 559.15 616.33 576.64 606.64 595.63 C 599.68 610.00 593.18 624.61 587.51 639.55 C 583.79 648.10 580.76 657.38 574.20 664.27 C 570.88 668.01 565.43 667.57 560.95 666.95 C 550.71 665.30 540.85 661.79 530.53 660.47 C 529.61 663.27 528.69 666.07 527.72 668.87 C 532.26 669.35 536.61 670.93 540.29 673.66 C 563.09 687.50 579.05 710.14 590.03 734.02 C 594.14 742.11 596.92 751.07 603.03 757.98 C 608.01 763.71 615.09 766.86 621.73 770.21 C 626.45 772.87 632.09 772.78 636.93 775.13 C 648.07 780.13 655.97 790.51 660.24 801.71 C 663.91 811.54 660.02 821.98 657.40 831.57 C 653.12 843.42 649.82 855.59 645.51 867.42 C 642.55 875.24 638.26 882.51 632.84 888.87 C 627.39 895.40 621.42 901.90 613.57 905.53 C 607.44 908.34 600.83 910.73 594.00 910.57 C 588.53 910.56 585.03 904.98 584.87 900.00 C 584.50 891.56 586.44 883.26 587.39 874.92 C 588.87 864.97 588.95 854.89 588.59 844.87 C 588.27 833.14 588.66 820.68 582.98 810.02 C 580.18 804.33 574.48 801.10 569.73 797.26 C 559.97 789.63 549.85 782.47 540.07 774.88 C 526.74 763.98 513.17 753.27 501.24 740.81 C 495.04 734.34 488.78 727.90 483.09 720.97 C 478.64 715.67 475.81 709.08 470.52 704.47 C 464.71 699.35 457.45 696.20 451.81 690.85 C 455.53 700.79 458.44 711.01 462.00 721.01 C 466.04 732.23 468.73 743.99 469.46 755.91 C 470.15 767.49 471.22 779.07 473.27 790.50 C 476.44 806.11 480.17 821.61 483.90 837.10 C 486.08 847.54 487.47 858.16 490.38 868.44 C 492.36 876.05 500.31 879.48 503.93 886.08 C 507.39 892.22 508.27 899.38 509.18 906.26 C 509.86 914.78 510.50 923.52 508.52 931.93 C 507.37 936.85 503.80 940.97 499.38 943.33 C 490.64 948.22 480.33 948.16 470.90 950.91 C 455.26 954.71 441.04 963.30 424.89 965.23 C 407.38 967.41 389.26 964.32 373.27 956.92 C 368.46 955.01 364.15 950.54 364.67 945.03 C 365.37 937.65 370.83 931.90 376.09 927.17 C 386.35 918.91 398.51 913.26 408.15 904.18 C 415.03 897.70 423.04 891.66 426.77 882.68 C 428.28 879.17 429.51 875.21 428.45 871.40 C 425.31 857.12 420.12 843.42 415.24 829.67 C 406.87 807.59 396.41 786.12 391.58 762.88 C 388.58 748.79 386.11 734.49 386.18 720.04 C 386.59 705.56 381.91 691.65 378.43 677.78 C 373.88 662.76 373.23 645.64 380.45 631.34 C 384.99 623.68 390.98 617.00 396.32 609.90 C 393.90 609.63 391.42 609.61 389.07 608.92 C 386.70 608.44 387.95 605.57 387.93 603.95 C 389.63 594.97 394.03 586.69 399.28 579.29 C 402.57 574.53 407.36 570.56 408.77 564.73 C 412.36 550.89 420.73 538.72 431.13 529.07 C 436.94 523.27 439.99 515.44 445.11 509.10 C 449.62 503.55 454.34 498.00 460.28 493.91 C 461.17 490.32 462.39 486.75 462.53 483.02 C 462.44 478.29 460.09 473.81 460.57 469.04 C 461.37 462.81 466.28 458.09 467.38 451.97 C 467.70 447.90 466.68 443.80 464.82 440.20 C 462.53 435.63 460.96 430.76 459.63 425.84 C 453.60 430.82 446.43 434.18 439.35 437.40 C 423.56 443.28 407.63 449.24 393.34 458.32 C 387.62 461.95 381.68 465.22 375.99 468.89 C 369.88 472.62 370.74 481.14 365.89 485.91 C 364.66 486.88 363.03 487.06 361.61 487.60 C 361.78 489.61 362.55 492.20 360.65 493.67 C 358.05 495.65 354.51 494.66 351.51 494.82 C 352.33 497.41 354.56 500.77 352.24 503.22 C 349.87 505.06 346.65 504.02 343.97 503.67 C 339.53 502.68 334.36 501.22 332.03 496.93 C 330.71 494.57 331.72 491.92 332.47 489.58 C 329.74 487.68 326.72 485.39 326.40 481.80 C 325.84 478.32 328.31 475.48 330.78 473.42 C 329.54 469.17 329.27 464.46 332.08 460.75 C 331.70 453.91 336.07 448.09 340.92 443.77 C 348.77 436.81 358.90 433.22 368.89 430.57 C 375.29 428.97 379.90 424.01 385.03 420.22 C 393.53 413.88 401.73 406.95 411.28 402.21 C 415.52 400.01 419.96 398.24 424.28 396.22 C 429.54 394.31 427.85 387.59 428.82 383.23 C 415.96 382.74 402.96 378.50 393.38 369.70 C 390.75 367.47 390.56 363.65 391.36 360.54 C 392.99 354.24 397.63 349.16 398.79 342.69 C 400.65 332.62 400.24 322.30 401.64 312.18 C 403.94 295.24 410.08 279.05 417.82 263.89 C 421.43 257.79 419.84 250.57 421.12 243.91 C 422.19 234.09 427.46 225.18 434.49 218.41 C 439.50 213.26 444.67 208.25 450.12 203.57 C 438.19 194.00 430.10 180.77 422.11 167.96 C 418.31 162.20 415.38 155.94 412.35 149.75 C 407.09 146.98 401.12 144.50 397.87 139.22 C 391.15 129.08 388.50 116.89 387.13 104.97 C 386.79 101.48 384.39 98.59 384.12 95.09 C 383.78 90.93 385.29 86.97 386.17 82.97 C 387.75 75.96 387.13 68.53 389.69 61.73 C 391.26 57.56 394.32 54.20 397.54 51.23 C 395.13 50.18 392.80 48.75 391.99 46.08 C 395.56 45.22 399.28 44.51 402.39 42.43 C 407.67 39.44 411.77 34.59 417.55 32.46 C 421.02 30.95 424.85 30.84 428.57 30.79 C 439.76 24.50 453.07 26.48 465.22 27.82 M 439.86 121.24 C 437.12 119.87 439.42 116.47 439.37 114.21 C 435.44 115.07 431.36 117.87 427.32 116.51 C 426.66 114.45 427.86 112.50 428.73 110.71 C 431.10 106.23 433.78 101.91 436.17 97.43 C 432.37 98.70 428.59 100.09 425.04 101.99 C 425.88 109.85 425.56 118.73 420.05 124.97 C 416.74 128.54 413.74 132.79 409.07 134.66 C 410.29 137.59 411.54 140.51 412.93 143.36 C 423.63 140.57 434.27 137.53 445.07 135.10 C 446.90 134.82 449.01 134.03 450.66 135.33 C 456.47 138.52 458.16 145.47 459.25 151.50 C 460.08 156.84 461.86 162.10 461.70 167.55 C 461.27 167.72 460.41 168.07 459.98 168.24 C 455.40 163.55 454.91 156.46 453.86 150.31 C 442.96 153.11 432.02 155.78 421.09 158.48 C 432.01 175.11 441.91 193.99 459.78 204.20 C 466.77 208.53 474.61 212.41 483.07 211.83 C 488.70 211.69 494.00 208.84 497.57 204.54 C 504.04 197.15 510.32 189.27 513.95 180.05 C 516.69 173.35 516.26 165.98 516.65 158.90 C 517.08 150.69 516.59 142.48 516.35 134.27 C 504.88 136.39 493.45 138.73 481.95 140.68 C 478.72 141.44 477.73 137.59 476.55 135.43 C 475.69 132.88 473.49 130.21 474.53 127.43 C 475.74 126.30 477.47 126.11 479.01 125.68 C 491.26 122.98 503.45 119.90 515.85 117.94 C 513.10 112.31 509.16 107.40 504.78 102.94 C 503.71 103.77 502.81 105.84 501.15 105.01 C 496.79 103.35 492.78 100.86 488.40 99.25 C 490.67 102.60 493.56 106.33 492.82 110.65 C 491.24 111.53 489.78 110.47 488.50 109.63 C 482.79 105.69 476.81 101.87 472.64 96.19 C 466.83 109.44 453.20 117.33 439.86 121.24 M 529.87 184.96 C 526.73 185.97 523.44 185.22 520.31 184.67 C 519.48 192.80 517.86 200.82 516.42 208.85 C 515.08 215.99 512.86 223.00 509.34 229.37 C 503.70 239.66 497.59 249.92 488.98 258.03 C 486.31 260.51 482.23 263.39 478.56 261.35 C 475.25 258.70 474.89 254.06 473.76 250.26 C 469.99 234.96 467.08 217.56 453.96 207.18 C 449.54 211.36 444.41 214.73 440.28 219.24 C 433.71 225.39 427.41 232.68 425.89 241.86 C 424.73 250.20 424.91 258.71 426.05 267.04 C 427.16 281.41 426.32 295.89 427.78 310.24 C 428.98 321.59 432.23 332.59 436.31 343.20 C 435.97 337.92 436.46 332.61 437.81 327.49 C 440.73 316.02 445.16 304.89 446.73 293.10 C 447.48 288.19 447.21 283.14 448.45 278.30 C 450.91 282.80 450.75 288.10 450.65 293.08 C 450.05 308.46 442.99 322.68 441.81 337.95 C 441.78 345.74 441.37 353.93 444.61 361.21 C 446.86 366.89 448.27 372.85 450.28 378.61 C 453.11 386.95 456.65 395.03 459.35 403.42 C 461.98 411.55 463.85 419.91 465.96 428.19 C 467.36 433.77 470.16 438.84 472.74 443.95 C 474.48 438.14 476.10 432.30 477.62 426.43 C 478.48 423.50 479.00 419.97 482.08 418.50 C 482.48 426.24 479.74 433.64 478.55 441.20 C 476.80 450.61 470.84 458.28 466.61 466.63 C 464.38 470.60 466.58 475.00 467.22 479.09 C 468.59 485.30 465.54 491.24 464.33 497.21 C 470.62 499.89 477.62 498.40 484.14 497.55 C 499.36 494.73 514.62 492.12 529.95 489.95 C 548.63 487.34 567.69 488.92 586.25 485.21 C 606.18 481.59 625.35 473.04 640.56 459.53 C 644.07 456.24 648.34 453.12 649.49 448.17 C 654.28 431.88 649.16 414.72 652.24 398.21 C 653.67 390.96 654.27 383.58 653.84 376.20 C 637.38 382.44 620.22 387.17 604.76 395.77 C 601.88 397.26 600.41 400.25 598.94 402.97 C 595.49 409.58 589.37 414.35 586.14 421.10 C 582.29 429.28 578.29 437.51 572.69 444.66 C 570.98 446.55 568.89 449.15 566.03 448.50 C 563.31 447.40 563.57 444.06 563.17 441.68 C 560.51 446.96 557.99 452.61 553.58 456.69 C 551.77 458.60 548.68 457.19 548.23 454.81 C 547.21 449.98 549.81 445.37 551.29 440.91 C 548.42 446.01 545.43 451.15 541.36 455.40 C 539.98 456.87 537.81 458.43 535.75 457.28 C 533.17 455.80 533.68 452.37 534.25 449.95 C 536.55 440.50 541.56 432.06 546.11 423.57 C 541.84 428.86 538.47 434.85 533.92 439.92 C 532.44 441.44 530.33 443.58 528.06 442.24 C 525.72 440.21 526.87 436.85 527.27 434.25 C 529.73 424.29 535.22 415.37 541.17 407.13 C 552.54 391.95 566.51 378.71 582.38 368.31 C 596.77 358.50 612.16 350.33 627.02 341.29 C 619.84 341.30 612.27 339.25 607.55 333.50 C 596.72 320.75 591.68 304.45 584.36 289.67 C 582.31 285.35 579.23 281.35 578.81 276.44 C 583.91 279.38 586.01 285.20 588.99 289.96 C 594.94 299.78 598.72 310.69 604.32 320.70 C 608.02 327.50 612.80 334.56 620.69 336.77 C 621.53 333.09 622.54 329.44 624.08 325.99 C 630.30 311.62 639.99 298.91 651.49 288.35 C 656.30 283.92 662.02 280.31 668.51 279.01 C 653.52 269.12 636.54 262.60 622.00 251.99 C 619.05 249.86 616.08 247.62 614.07 244.52 C 617.91 244.51 620.80 247.26 623.88 249.16 C 636.91 257.96 651.52 263.97 665.09 271.84 C 654.29 256.81 643.88 241.37 631.00 227.99 C 620.46 217.12 609.30 206.66 596.48 198.50 C 588.37 193.26 578.79 189.75 569.02 190.43 C 563.04 190.72 557.57 193.58 551.62 194.06 C 553.81 190.02 558.82 189.37 562.64 187.61 C 558.37 185.14 554.45 181.85 549.65 180.47 C 542.65 179.08 536.35 183.13 529.87 184.96 M 515.30 188.21 C 510.25 196.84 504.27 205.09 496.83 211.82 C 487.65 218.75 474.88 217.64 465.03 212.75 C 475.14 225.67 476.43 242.58 481.21 257.72 C 486.94 254.87 490.67 249.38 494.56 244.50 C 501.31 234.44 508.00 223.89 510.60 211.89 C 512.33 204.03 513.44 196.04 515.30 188.21 M 421.13 268.56 C 415.05 280.67 410.65 293.62 408.12 306.93 C 405.70 319.59 406.98 332.68 404.11 345.26 C 402.45 352.82 396.52 358.59 395.23 366.27 C 402.55 371.49 410.99 375.41 419.96 376.61 C 427.59 377.57 435.31 377.70 442.97 377.15 C 440.66 369.15 438.14 361.17 434.29 353.75 C 427.61 340.85 423.59 326.68 421.75 312.30 C 420.18 297.77 421.03 283.13 421.13 268.56 M 651.48 295.42 C 644.07 302.92 637.52 311.29 632.47 320.57 C 637.10 321.74 641.27 324.23 644.33 327.92 C 648.07 324.40 651.28 320.38 654.87 316.72 C 656.02 315.46 658.04 314.49 659.54 315.87 C 658.84 319.73 655.56 322.32 653.47 325.44 C 650.04 330.34 645.27 334.00 640.67 337.72 C 625.05 350.88 605.99 358.81 589.12 370.12 C 574.73 378.94 561.77 390.01 550.84 402.88 C 542.62 412.85 534.44 423.52 531.01 436.20 C 536.67 429.11 541.33 421.21 547.75 414.74 C 548.99 413.51 550.38 412.32 552.12 411.88 C 553.80 411.86 555.13 413.25 555.09 414.93 C 554.66 417.77 553.06 420.23 551.71 422.71 C 546.37 431.96 541.04 441.44 538.47 451.90 C 547.25 442.16 550.67 429.00 558.81 418.82 C 560.12 417.22 562.41 414.78 564.53 416.58 C 566.15 418.24 564.99 420.63 564.41 422.50 C 560.39 432.31 554.61 441.47 552.22 451.91 C 559.08 442.34 563.06 431.09 569.44 421.24 C 570.44 419.25 573.81 420.95 573.01 423.00 C 571.59 430.31 567.42 436.92 567.05 444.48 C 574.16 437.29 578.20 427.79 582.58 418.84 C 585.45 412.90 590.47 408.45 594.05 402.98 C 596.42 399.18 598.20 394.62 602.37 392.38 C 613.81 385.71 626.39 381.33 638.77 376.76 C 653.38 370.38 668.46 364.16 680.71 353.69 C 690.23 345.51 697.07 333.71 697.86 321.06 C 698.43 312.06 692.39 304.54 686.50 298.44 C 681.03 293.12 675.85 287.14 668.90 283.71 C 661.76 284.95 656.39 290.48 651.48 295.42 M 625.19 337.37 C 627.33 337.53 629.48 337.71 631.63 337.90 C 634.52 335.70 637.40 333.48 640.24 331.20 C 637.80 327.98 634.56 325.52 630.78 324.10 C 628.82 328.48 627.18 333.00 625.19 337.37 M 432.90 383.43 C 432.03 388.62 433.45 395.93 427.97 398.93 C 420.21 402.81 411.95 405.81 404.81 410.84 C 396.07 417.00 387.72 423.69 379.25 430.21 C 373.18 434.89 365.28 435.50 358.39 438.40 C 350.95 441.24 343.66 445.37 338.93 451.96 C 337.36 454.23 335.64 456.87 336.14 459.78 C 338.20 462.28 341.59 463.00 344.25 464.69 C 349.05 467.56 354.34 470.33 360.13 469.73 C 359.38 464.96 353.63 464.32 351.36 460.80 C 351.16 456.62 354.90 453.44 357.44 450.52 C 358.80 453.74 356.19 456.45 354.92 459.19 C 357.66 460.66 360.71 461.86 362.86 464.21 C 364.98 466.57 365.58 470.72 363.17 473.10 C 361.47 474.89 358.79 474.56 356.57 474.92 C 357.93 478.24 359.40 481.81 362.81 483.52 C 367.12 476.59 368.12 467.96 373.81 461.81 C 378.01 457.21 374.70 450.67 376.93 445.45 C 377.40 445.51 378.34 445.63 378.81 445.70 C 380.72 450.63 382.45 456.10 380.23 461.27 C 386.26 457.26 392.35 453.34 398.49 449.51 C 406.52 444.47 415.25 440.71 423.94 437.01 C 433.57 432.96 443.82 430.19 452.84 424.79 C 455.95 423.20 457.95 419.45 456.84 416.02 C 453.59 404.24 448.37 393.14 444.46 381.58 C 440.74 382.88 436.83 383.44 432.90 383.43 M 619.01 480.02 C 604.55 487.40 588.59 491.59 572.48 493.22 C 562.68 494.25 552.82 494.22 543.00 495.00 C 529.56 495.80 516.34 498.57 503.06 500.66 C 490.95 502.62 478.73 506.04 466.38 504.36 C 463.66 504.33 462.01 502.23 460.80 500.08 C 457.15 503.68 453.47 507.27 450.28 511.29 C 444.32 518.50 441.06 527.68 433.98 534.01 C 425.72 541.46 418.94 550.69 415.16 561.21 C 413.78 565.04 413.21 569.26 410.75 572.63 C 408.14 576.32 404.92 579.52 402.21 583.13 C 397.01 589.88 393.16 597.58 390.25 605.57 C 395.34 605.41 400.45 605.55 405.48 606.39 C 423.16 609.30 441.02 615.92 453.50 629.27 C 455.84 625.34 458.88 621.79 460.57 617.50 C 460.72 615.48 459.83 613.56 459.32 611.65 C 455.84 601.42 452.01 590.74 444.05 583.06 C 442.72 581.40 440.34 579.96 440.71 577.54 C 442.54 578.08 444.28 578.93 445.74 580.20 C 455.82 587.42 460.70 599.40 463.83 610.97 C 468.27 601.80 475.80 594.71 481.15 586.12 C 485.82 578.63 490.79 571.34 495.69 563.99 C 490.85 561.15 486.24 557.48 480.55 556.60 C 474.09 555.50 467.56 554.95 461.05 554.30 C 456.85 553.80 452.38 554.20 448.57 552.05 C 452.73 549.90 457.49 550.12 462.03 549.87 C 469.35 549.69 476.79 549.45 484.00 550.99 C 489.67 552.15 494.37 555.90 498.25 560.02 C 499.48 557.98 500.93 556.04 501.73 553.78 C 501.48 550.31 500.15 547.01 499.47 543.62 C 496.54 541.50 493.70 539.27 490.65 537.34 C 484.97 533.63 478.00 533.20 471.74 530.94 C 472.36 529.64 473.22 528.19 474.93 528.53 C 482.65 528.83 490.65 530.45 497.04 535.05 C 509.05 543.37 520.26 552.97 529.82 564.05 C 531.32 565.46 531.59 567.44 531.58 569.42 C 522.12 564.16 514.58 556.24 506.65 549.02 C 507.20 551.96 507.67 555.19 505.84 557.82 C 499.87 568.04 493.05 577.72 486.75 587.74 C 480.18 598.42 470.39 606.83 465.01 618.29 C 474.89 625.53 482.49 635.29 491.68 643.29 C 501.22 651.43 514.27 651.93 526.06 653.86 C 535.83 655.27 545.49 657.37 554.97 660.14 C 559.86 661.26 564.88 663.08 569.95 662.33 C 577.53 653.08 580.90 641.29 585.45 630.41 C 588.39 620.69 590.91 610.83 592.98 600.89 C 596.02 587.32 600.73 574.22 605.00 561.01 C 608.08 551.67 609.96 542.00 611.61 532.33 C 611.99 532.27 612.75 532.14 613.13 532.07 C 614.60 535.83 613.75 539.95 613.40 543.84 C 610.64 563.19 602.88 581.33 598.41 600.29 C 607.33 580.90 619.49 563.26 629.32 544.36 C 636.99 530.04 641.24 514.13 643.77 498.16 C 645.97 486.21 646.71 474.00 645.79 461.88 C 636.87 467.94 628.68 475.13 619.01 480.02 M 334.00 463.95 C 333.41 467.68 334.16 471.54 336.38 474.64 C 340.00 479.89 344.91 484.09 349.52 488.45 C 351.50 482.21 348.74 475.81 345.39 470.62 C 342.03 467.73 337.85 466.07 334.00 463.95 M 352.41 473.54 C 351.69 474.81 352.38 476.70 353.47 477.57 C 354.97 476.99 354.14 473.20 352.41 473.54 M 330.92 483.05 C 334.01 486.82 339.08 487.93 343.48 489.44 C 339.34 485.21 335.15 480.96 331.97 475.93 C 330.75 478.04 329.04 480.75 330.92 483.05 M 354.12 479.51 C 353.36 480.72 354.04 483.61 355.74 483.41 C 356.40 482.19 355.62 479.52 354.12 479.51 M 354.48 486.47 C 354.02 487.92 353.57 489.39 353.12 490.85 C 354.95 490.81 356.77 490.75 358.59 490.66 C 357.42 489.07 356.02 487.69 354.48 486.47 M 334.74 490.83 C 334.87 492.80 334.48 495.30 336.42 496.55 C 340.10 499.29 344.85 499.65 349.23 500.34 C 348.78 498.38 348.36 496.42 347.97 494.45 C 343.43 493.75 339.05 492.35 334.74 490.83 M 402.41 610.55 C 398.02 617.91 392.15 624.21 387.17 631.14 C 382.33 638.07 380.87 646.72 380.48 654.99 C 379.81 667.83 385.08 679.83 387.77 692.15 C 394.84 696.06 403.06 697.11 411.03 696.90 C 421.20 696.61 431.77 695.02 440.61 689.68 C 443.34 688.21 444.95 685.51 446.08 682.73 C 444.56 677.91 442.91 673.04 442.75 667.94 C 442.22 656.00 446.14 644.38 451.13 633.70 C 438.73 619.83 420.39 613.23 402.41 610.55 M 463.42 623.64 C 457.37 631.16 453.05 639.95 450.39 649.21 C 447.27 659.58 445.65 671.35 450.53 681.45 C 455.58 690.42 465.66 694.12 473.35 700.27 C 484.32 700.55 495.41 698.80 505.57 694.60 C 515.04 690.66 524.45 684.48 528.43 674.61 C 526.22 673.83 522.24 674.28 522.16 671.05 C 522.96 667.08 525.06 663.53 526.69 659.87 C 517.44 658.24 507.89 657.55 499.07 654.08 C 492.06 651.34 486.36 646.21 481.24 640.84 C 475.57 634.83 469.71 629.00 463.42 623.64 M 531.72 675.02 C 530.35 682.83 524.79 689.03 518.45 693.39 C 506.72 701.39 492.45 705.23 478.34 705.59 C 481.14 709.51 483.50 713.74 486.49 717.52 C 504.77 739.58 526.44 758.56 549.30 775.73 C 561.14 784.52 573.16 793.21 583.70 803.58 C 588.16 801.46 592.99 799.89 598.00 800.16 C 605.03 800.12 612.93 801.20 619.07 797.00 C 624.85 792.15 624.30 783.84 624.00 777.03 C 615.63 773.12 606.64 769.70 600.08 762.92 C 592.67 755.24 589.34 744.87 584.47 735.60 C 577.52 720.98 568.86 707.07 557.87 695.12 C 550.22 687.19 542.02 679.39 531.72 675.02 M 427.96 700.68 C 415.12 703.13 401.33 703.08 389.13 697.92 C 392.86 710.73 390.96 724.16 392.78 737.22 C 395.05 754.80 398.51 772.36 405.04 788.90 C 411.38 805.53 418.79 821.75 424.51 838.62 C 428.00 848.64 431.58 858.69 433.54 869.15 C 436.61 869.73 439.93 870.43 441.95 873.07 C 446.51 878.46 450.48 884.83 457.13 887.92 C 462.60 890.74 469.08 889.67 474.60 887.57 C 480.43 885.54 484.75 880.76 490.55 878.67 C 488.38 875.81 486.52 872.67 485.57 869.19 C 482.83 859.62 481.19 849.79 479.35 840.02 C 475.62 823.62 471.57 807.28 468.17 790.81 C 466.09 779.32 465.06 767.68 464.40 756.04 C 463.81 745.15 461.30 734.45 457.79 724.16 C 454.01 713.61 451.19 702.76 447.81 692.08 C 442.13 696.74 435.08 699.26 427.96 700.68 M 628.10 776.96 C 629.00 782.92 629.64 789.28 627.09 794.95 C 625.25 799.83 620.94 803.58 615.86 804.75 C 606.26 807.78 595.81 803.83 586.49 808.15 C 591.19 816.50 592.16 826.20 592.67 835.59 C 593.28 849.03 593.94 862.57 592.05 875.95 C 591.24 883.63 589.40 891.26 589.72 899.03 C 589.82 901.67 590.99 905.22 594.06 905.56 C 599.57 905.84 604.92 903.95 610.00 902.00 C 619.50 898.33 626.15 890.19 632.32 882.47 C 639.87 873.03 643.42 861.27 646.90 849.89 C 649.84 839.96 654.10 830.43 656.38 820.30 C 657.60 815.01 658.80 809.36 657.07 804.05 C 652.65 791.04 641.93 779.65 628.10 776.96 M 434.35 874.47 C 433.74 878.56 433.23 882.75 431.49 886.56 C 429.03 892.59 424.43 897.36 419.83 901.82 C 413.98 907.37 407.96 912.78 401.27 917.29 C 392.98 922.98 383.79 927.51 376.56 934.61 C 373.31 938.01 369.84 942.09 369.92 947.07 C 370.91 950.53 374.70 951.92 377.67 953.29 C 390.71 958.46 404.88 960.91 418.89 960.36 C 428.70 959.84 438.16 956.86 447.18 953.12 C 458.08 948.57 469.36 944.73 481.06 942.92 C 488.20 941.74 495.79 940.27 501.44 935.43 C 504.88 932.71 504.76 927.92 505.11 923.95 C 505.44 913.43 504.83 902.67 501.53 892.60 C 500.26 888.51 497.35 885.28 494.42 882.29 C 486.75 887.69 478.89 894.05 469.10 894.57 C 458.30 895.87 448.13 889.61 441.61 881.43 C 439.58 878.73 437.17 876.34 434.35 874.47 Z" />
        <path fill="#020202" opacity="1.00"
            d=" M 478.42 165.96 C 478.89 166.16 479.81 166.57 480.28 166.78 C 478.29 170.51 476.21 174.20 474.10 177.87 C 469.70 177.13 465.28 176.46 460.88 175.75 C 460.93 173.54 461.04 171.34 461.19 169.15 C 465.76 168.82 470.28 169.59 474.82 169.94 C 476.02 168.61 477.21 167.27 478.42 165.96 Z" />
        <path fill="#020202" opacity="1.00"
            d=" M 486.86 178.93 C 488.49 178.47 490.52 177.60 491.91 179.08 C 492.02 180.42 491.12 181.48 490.51 182.58 C 490.16 186.36 486.20 187.13 483.31 188.34 C 479.25 189.76 475.26 191.63 470.96 192.12 C 469.41 192.37 468.42 190.87 467.18 190.25 C 465.79 190.03 464.47 189.63 463.21 189.06 C 464.54 186.97 466.99 186.25 469.15 185.37 C 475.03 183.17 480.92 180.99 486.86 178.93 Z" />
        <path fill="#020202" opacity="1.00"
            d=" M 545.23 224.46 C 547.23 223.25 547.92 225.81 548.86 227.06 C 554.61 237.32 560.83 247.50 569.09 255.95 C 571.95 259.11 575.71 261.39 578.29 264.80 L 578.20 266.13 C 574.15 265.39 571.04 262.47 567.99 259.93 C 559.26 252.36 553.13 242.39 547.71 232.31 C 546.44 229.87 545.17 227.28 545.23 224.46 Z" />
        <path fill="#020202" opacity="1.00"
            d=" M 517.15 286.07 C 518.63 272.59 521.28 259.13 526.39 246.52 C 527.91 250.61 526.90 254.89 525.83 258.93 C 520.82 278.21 521.59 298.42 516.78 317.74 C 513.35 334.55 504.57 349.47 498.22 365.23 C 496.82 368.33 495.87 371.96 492.75 373.84 C 492.78 371.41 493.06 368.96 493.88 366.66 C 497.56 356.28 501.77 346.10 506.14 336.00 C 512.97 320.23 515.39 303.03 517.15 286.07 Z" />
        <path fill="#020202" opacity="1.00"
            d=" M 579.98 328.96 C 581.24 326.89 583.10 325.31 585.19 324.11 C 584.27 328.88 581.39 332.88 579.06 337.04 C 572.04 349.12 565.81 361.64 558.59 373.61 C 553.51 381.70 547.88 389.45 541.89 396.89 C 534.40 405.41 525.85 413.02 519.31 422.36 C 513.61 429.79 509.23 438.13 503.77 445.69 C 500.58 446.76 502.25 442.47 502.92 440.94 C 509.47 427.54 517.78 414.89 528.12 404.09 C 541.43 390.66 552.16 374.87 561.44 358.45 C 567.01 348.24 573.64 338.69 579.98 328.96 Z" />
        <path fill="#020202" opacity="1.00"
            d=" M 564.96 468.43 C 579.96 468.28 594.42 463.87 608.99 460.87 C 610.47 460.72 612.47 459.91 613.63 461.31 C 614.68 463.36 612.27 464.13 610.87 464.87 C 599.67 469.33 588.13 473.27 576.12 474.76 C 544.80 478.72 513.31 467.28 482.19 474.25 C 482.77 472.91 483.00 471.16 484.54 470.55 C 488.33 468.43 492.69 467.67 496.94 467.05 C 519.62 464.25 542.26 469.41 564.96 468.43 Z" />
        <path fill="#020202" opacity="1.00"
            d=" M 601.96 495.95 C 603.42 495.04 605.14 494.76 606.82 494.49 C 603.77 499.58 598.19 502.09 593.59 505.50 C 581.82 513.93 568.06 519.66 553.72 521.76 C 539.76 523.22 525.84 520.28 511.94 519.45 C 511.86 519.05 511.70 518.25 511.62 517.85 C 515.39 515.82 519.86 516.46 523.98 516.15 C 535.01 515.53 546.12 518.17 557.06 515.91 C 566.78 514.01 576.27 510.68 584.95 505.88 C 590.62 502.58 596.25 499.20 601.96 495.95 Z" />
    </g>
    <g id="#f0b58bff">
        <path fill="#f0b58b" opacity="1.00"
            d=" M 439.86 121.24 C 453.20 117.33 466.83 109.44 472.64 96.19 C 476.81 101.87 482.79 105.69 488.50 109.63 C 489.78 110.47 491.24 111.53 492.82 110.65 C 493.56 106.33 490.67 102.60 488.40 99.25 C 492.78 100.86 496.79 103.35 501.15 105.01 C 502.81 105.84 503.71 103.77 504.78 102.94 C 509.16 107.40 513.10 112.31 515.85 117.94 C 503.45 119.90 491.26 122.98 479.01 125.68 C 477.47 126.11 475.74 126.30 474.53 127.43 C 473.49 130.21 475.69 132.88 476.55 135.43 C 477.73 137.59 478.72 141.44 481.95 140.68 C 493.45 138.73 504.88 136.39 516.35 134.27 C 516.59 142.48 517.08 150.69 516.65 158.90 C 516.26 165.98 516.69 173.35 513.95 180.05 C 510.32 189.27 504.04 197.15 497.57 204.54 C 494.00 208.84 488.70 211.69 483.07 211.83 C 474.61 212.41 466.77 208.53 459.78 204.20 C 441.91 193.99 432.01 175.11 421.09 158.48 C 432.02 155.78 442.96 153.11 453.86 150.31 C 454.91 156.46 455.40 163.55 459.98 168.24 C 460.41 168.07 461.27 167.72 461.70 167.55 C 461.86 162.10 460.08 156.84 459.25 151.50 C 458.16 145.47 456.47 138.52 450.66 135.33 C 449.01 134.03 446.90 134.82 445.07 135.10 C 434.27 137.53 423.63 140.57 412.93 143.36 C 411.54 140.51 410.29 137.59 409.07 134.66 C 413.74 132.79 416.74 128.54 420.05 124.97 C 425.56 118.73 425.88 109.85 425.04 101.99 C 428.59 100.09 432.37 98.70 436.17 97.43 C 433.78 101.91 431.10 106.23 428.73 110.71 C 427.86 112.50 426.66 114.45 427.32 116.51 C 431.36 117.87 435.44 115.07 439.37 114.21 C 439.42 116.47 437.12 119.87 439.86 121.24 M 478.42 165.96 C 477.21 167.27 476.02 168.61 474.82 169.94 C 470.28 169.59 465.76 168.82 461.19 169.15 C 461.04 171.34 460.93 173.54 460.88 175.75 C 465.28 176.46 469.70 177.13 474.10 177.87 C 476.21 174.20 478.29 170.51 480.28 166.78 C 479.81 166.57 478.89 166.16 478.42 165.96 M 486.86 178.93 C 480.92 180.99 475.03 183.17 469.15 185.37 C 466.99 186.25 464.54 186.97 463.21 189.06 C 464.47 189.63 465.79 190.03 467.18 190.25 C 468.42 190.87 469.41 192.37 470.96 192.12 C 475.26 191.63 479.25 189.76 483.31 188.34 C 486.20 187.13 490.16 186.36 490.51 182.58 C 491.12 181.48 492.02 180.42 491.91 179.08 C 490.52 177.60 488.49 178.47 486.86 178.93 Z" />
        <path fill="#f0b58b" opacity="1.00"
            d=" M 515.30 188.21 C 513.44 196.04 512.33 204.03 510.60 211.89 C 508.00 223.89 501.31 234.44 494.56 244.50 C 490.67 249.38 486.94 254.87 481.21 257.72 C 476.43 242.58 475.14 225.67 465.03 212.75 C 474.88 217.64 487.65 218.75 496.83 211.82 C 504.27 205.09 510.25 196.84 515.30 188.21 Z" />
        <path fill="#f0b58b" opacity="1.00"
            d=" M 651.48 295.42 C 656.39 290.48 661.76 284.95 668.90 283.71 C 675.85 287.14 681.03 293.12 686.50 298.44 C 692.39 304.54 698.43 312.06 697.86 321.06 C 697.07 333.71 690.23 345.51 680.71 353.69 C 668.46 364.16 653.38 370.38 638.77 376.76 C 626.39 381.33 613.81 385.71 602.37 392.38 C 598.20 394.62 596.42 399.18 594.05 402.98 C 590.47 408.45 585.45 412.90 582.58 418.84 C 578.20 427.79 574.16 437.29 567.05 444.48 C 567.42 436.92 571.59 430.31 573.01 423.00 C 573.81 420.95 570.44 419.25 569.44 421.24 C 563.06 431.09 559.08 442.34 552.22 451.91 C 554.61 441.47 560.39 432.31 564.41 422.50 C 564.99 420.63 566.15 418.24 564.53 416.58 C 562.41 414.78 560.12 417.22 558.81 418.82 C 550.67 429.00 547.25 442.16 538.47 451.90 C 541.04 441.44 546.37 431.96 551.71 422.71 C 553.06 420.23 554.66 417.77 555.09 414.93 C 555.13 413.25 553.80 411.86 552.12 411.88 C 550.38 412.32 548.99 413.51 547.75 414.74 C 541.33 421.21 536.67 429.11 531.01 436.20 C 534.44 423.52 542.62 412.85 550.84 402.88 C 561.77 390.01 574.73 378.94 589.12 370.12 C 605.99 358.81 625.05 350.88 640.67 337.72 C 645.27 334.00 650.04 330.34 653.47 325.44 C 655.56 322.32 658.84 319.73 659.54 315.87 C 658.04 314.49 656.02 315.46 654.87 316.72 C 651.28 320.38 648.07 324.40 644.33 327.92 C 641.27 324.23 637.10 321.74 632.47 320.57 C 637.52 311.29 644.07 302.92 651.48 295.42 Z" />
        <path fill="#f0b58b" opacity="1.00"
            d=" M 432.90 383.43 C 436.83 383.44 440.74 382.88 444.46 381.58 C 448.37 393.14 453.59 404.24 456.84 416.02 C 457.95 419.45 455.95 423.20 452.84 424.79 C 443.82 430.19 433.57 432.96 423.94 437.01 C 415.25 440.71 406.52 444.47 398.49 449.51 C 392.35 453.34 386.26 457.26 380.23 461.27 C 382.45 456.10 380.72 450.63 378.81 445.70 C 378.34 445.63 377.40 445.51 376.93 445.45 C 374.70 450.67 378.01 457.21 373.81 461.81 C 368.12 467.96 367.12 476.59 362.81 483.52 C 359.40 481.81 357.93 478.24 356.57 474.92 C 358.79 474.56 361.47 474.89 363.17 473.10 C 365.58 470.72 364.98 466.57 362.86 464.21 C 360.71 461.86 357.66 460.66 354.92 459.19 C 356.19 456.45 358.80 453.74 357.44 450.52 C 354.90 453.44 351.16 456.62 351.36 460.80 C 353.63 464.32 359.38 464.96 360.13 469.73 C 354.34 470.33 349.05 467.56 344.25 464.69 C 341.59 463.00 338.20 462.28 336.14 459.78 C 335.64 456.87 337.36 454.23 338.93 451.96 C 343.66 445.37 350.95 441.24 358.39 438.40 C 365.28 435.50 373.18 434.89 379.25 430.21 C 387.72 423.69 396.07 417.00 404.81 410.84 C 411.95 405.81 420.21 402.81 427.97 398.93 C 433.45 395.93 432.03 388.62 432.90 383.43 Z" />
        <path fill="#f0b58b" opacity="1.00"
            d=" M 334.00 463.95 C 337.85 466.07 342.03 467.73 345.39 470.62 C 348.74 475.81 351.50 482.21 349.52 488.45 C 344.91 484.09 340.00 479.89 336.38 474.64 C 334.16 471.54 333.41 467.68 334.00 463.95 Z" />
        <path fill="#f0b58b" opacity="1.00"
            d=" M 330.92 483.05 C 329.04 480.75 330.75 478.04 331.97 475.93 C 335.15 480.96 339.34 485.21 343.48 489.44 C 339.08 487.93 334.01 486.82 330.92 483.05 Z" />
        <path fill="#f0b58b" opacity="1.00"
            d=" M 354.48 486.47 C 356.02 487.69 357.42 489.07 358.59 490.66 C 356.77 490.75 354.95 490.81 353.12 490.85 C 353.57 489.39 354.02 487.92 354.48 486.47 Z" />
        <path fill="#f0b58b" opacity="1.00"
            d=" M 334.74 490.83 C 339.05 492.35 343.43 493.75 347.97 494.45 C 348.36 496.42 348.78 498.38 349.23 500.34 C 344.85 499.65 340.10 499.29 336.42 496.55 C 334.48 495.30 334.87 492.80 334.74 490.83 Z" />
        <path fill="#f0b58b" opacity="1.00"
            d=" M 402.41 610.55 C 420.39 613.23 438.73 619.83 451.13 633.70 C 446.14 644.38 442.22 656.00 442.75 667.94 C 442.91 673.04 444.56 677.91 446.08 682.73 C 444.95 685.51 443.34 688.21 440.61 689.68 C 431.77 695.02 421.20 696.61 411.03 696.90 C 403.06 697.11 394.84 696.06 387.77 692.15 C 385.08 679.83 379.81 667.83 380.48 654.99 C 380.87 646.72 382.33 638.07 387.17 631.14 C 392.15 624.21 398.02 617.91 402.41 610.55 Z" />
        <path fill="#f0b58b" opacity="1.00"
            d=" M 463.42 623.64 C 469.71 629.00 475.57 634.83 481.24 640.84 C 486.36 646.21 492.06 651.34 499.07 654.08 C 507.89 657.55 517.44 658.24 526.69 659.87 C 525.06 663.53 522.96 667.08 522.16 671.05 C 522.24 674.28 526.22 673.83 528.43 674.61 C 524.45 684.48 515.04 690.66 505.57 694.60 C 495.41 698.80 484.32 700.55 473.35 700.27 C 465.66 694.12 455.58 690.42 450.53 681.45 C 445.65 671.35 447.27 659.58 450.39 649.21 C 453.05 639.95 457.37 631.16 463.42 623.64 Z" />
    </g>
    <g id="#f11b27ff">
        <path fill="var(--shirt-color, grey)" opacity="1.00"
            d=" M 529.87 184.96 C 536.35 183.13 542.65 179.08 549.65 180.47 C 554.45 181.85 558.37 185.14 562.64 187.61 C 558.82 189.37 553.81 190.02 551.62 194.06 C 557.57 193.58 563.04 190.72 569.02 190.43 C 578.79 189.75 588.37 193.26 596.48 198.50 C 609.30 206.66 620.46 217.12 631.00 227.99 C 643.88 241.37 654.29 256.81 665.09 271.84 C 651.52 263.97 636.91 257.96 623.88 249.16 C 620.80 247.26 617.91 244.51 614.07 244.52 C 616.08 247.62 619.05 249.86 622.00 251.99 C 636.54 262.60 653.52 269.12 668.51 279.01 C 662.02 280.31 656.30 283.92 651.49 288.35 C 639.99 298.91 630.30 311.62 624.08 325.99 C 622.54 329.44 621.53 333.09 620.69 336.77 C 612.80 334.56 608.02 327.50 604.32 320.70 C 598.72 310.69 594.94 299.78 588.99 289.96 C 586.01 285.20 583.91 279.38 578.81 276.44 C 579.23 281.35 582.31 285.35 584.36 289.67 C 591.68 304.45 596.72 320.75 607.55 333.50 C 612.27 339.25 619.84 341.30 627.02 341.29 C 612.16 350.33 596.77 358.50 582.38 368.31 C 566.51 378.71 552.54 391.95 541.17 407.13 C 535.22 415.37 529.73 424.29 527.27 434.25 C 526.87 436.85 525.72 440.21 528.06 442.24 C 530.33 443.58 532.44 441.44 533.92 439.92 C 538.47 434.85 541.84 428.86 546.11 423.57 C 541.56 432.06 536.55 440.50 534.25 449.95 C 533.68 452.37 533.17 455.80 535.75 457.28 C 537.81 458.43 539.98 456.87 541.36 455.40 C 545.43 451.15 548.42 446.01 551.29 440.91 C 549.81 445.37 547.21 449.98 548.23 454.81 C 548.68 457.19 551.77 458.60 553.58 456.69 C 557.99 452.61 560.51 446.96 563.17 441.68 C 563.57 444.06 563.31 447.40 566.03 448.50 C 568.89 449.15 570.98 446.55 572.69 444.66 C 578.29 437.51 582.29 429.28 586.14 421.10 C 589.37 414.35 595.49 409.58 598.94 402.97 C 600.41 400.25 601.88 397.26 604.76 395.77 C 620.22 387.17 637.38 382.44 653.84 376.20 C 654.27 383.58 653.67 390.96 652.24 398.21 C 649.16 414.72 654.28 431.88 649.49 448.17 C 648.34 453.12 644.07 456.24 640.56 459.53 C 625.35 473.04 606.18 481.59 586.25 485.21 C 567.69 488.92 548.63 487.34 529.95 489.95 C 514.62 492.12 499.36 494.73 484.14 497.55 C 477.62 498.40 470.62 499.89 464.33 497.21 C 465.54 491.24 468.59 485.30 467.22 479.09 C 466.58 475.00 464.38 470.60 466.61 466.63 C 470.84 458.28 476.80 450.61 478.55 441.20 C 479.74 433.64 482.48 426.24 482.08 418.50 C 479.00 419.97 478.48 423.50 477.62 426.43 C 476.10 432.30 474.48 438.14 472.74 443.95 C 470.16 438.84 467.36 433.77 465.96 428.19 C 463.85 419.91 461.98 411.55 459.35 403.42 C 456.65 395.03 453.11 386.95 450.28 378.61 C 448.27 372.85 446.86 366.89 444.61 361.21 C 441.37 353.93 441.78 345.74 441.81 337.95 C 442.99 322.68 450.05 308.46 450.65 293.08 C 450.75 288.10 450.91 282.80 448.45 278.30 C 447.21 283.14 447.48 288.19 446.73 293.10 C 445.16 304.89 440.73 316.02 437.81 327.49 C 436.46 332.61 435.97 337.92 436.31 343.20 C 432.23 332.59 428.98 321.59 427.78 310.24 C 426.32 295.89 427.16 281.41 426.05 267.04 C 424.91 258.71 424.73 250.20 425.89 241.86 C 427.41 232.68 433.71 225.39 440.28 219.24 C 444.41 214.73 449.54 211.36 453.96 207.18 C 467.08 217.56 469.99 234.96 473.76 250.26 C 474.89 254.06 475.25 258.70 478.56 261.35 C 482.23 263.39 486.31 260.51 488.98 258.03 C 497.59 249.92 503.70 239.66 509.34 229.37 C 512.86 223.00 515.08 215.99 516.42 208.85 C 517.86 200.82 519.48 192.80 520.31 184.67 C 523.44 185.22 526.73 185.97 529.87 184.96 M 545.23 224.46 C 545.17 227.28 546.44 229.87 547.71 232.31 C 553.13 242.39 559.26 252.36 567.99 259.93 C 571.04 262.47 574.15 265.39 578.20 266.13 L 578.29 264.80 C 575.71 261.39 571.95 259.11 569.09 255.95 C 560.83 247.50 554.61 237.32 548.86 227.06 C 547.92 225.81 547.23 223.25 545.23 224.46 M 517.15 286.07 C 515.39 303.03 512.97 320.23 506.14 336.00 C 501.77 346.10 497.56 356.28 493.88 366.66 C 493.06 368.96 492.78 371.41 492.75 373.84 C 495.87 371.96 496.82 368.33 498.22 365.23 C 504.57 349.47 513.35 334.55 516.78 317.74 C 521.59 298.42 520.82 278.21 525.83 258.93 C 526.90 254.89 527.91 250.61 526.39 246.52 C 521.28 259.13 518.63 272.59 517.15 286.07 M 579.98 328.96 C 573.64 338.69 567.01 348.24 561.44 358.45 C 552.16 374.87 541.43 390.66 528.12 404.09 C 517.78 414.89 509.47 427.54 502.92 440.94 C 502.25 442.47 500.58 446.76 503.77 445.69 C 509.23 438.13 513.61 429.79 519.31 422.36 C 525.85 413.02 534.40 405.41 541.89 396.89 C 547.88 389.45 553.51 381.70 558.59 373.61 C 565.81 361.64 572.04 349.12 579.06 337.04 C 581.39 332.88 584.27 328.88 585.19 324.11 C 583.10 325.31 581.24 326.89 579.98 328.96 M 564.96 468.43 C 542.26 469.41 519.62 464.25 496.94 467.05 C 492.69 467.67 488.33 468.43 484.54 470.55 C 483.00 471.16 482.77 472.91 482.19 474.25 C 513.31 467.28 544.80 478.72 576.12 474.76 C 588.13 473.27 599.67 469.33 610.87 464.87 C 612.27 464.13 614.68 463.36 613.63 461.31 C 612.47 459.91 610.47 460.72 608.99 460.87 C 594.42 463.87 579.96 468.28 564.96 468.43 Z" />
        <path fill="var(--shirt-color, grey)" opacity="1.00"
            d=" M 421.13 268.56 C 421.03 283.13 420.18 297.77 421.75 312.30 C 423.59 326.68 427.61 340.85 434.29 353.75 C 438.14 361.17 440.66 369.15 442.97 377.15 C 435.31 377.70 427.59 377.57 419.96 376.61 C 410.99 375.41 402.55 371.49 395.23 366.27 C 396.52 358.59 402.45 352.82 404.11 345.26 C 406.98 332.68 405.70 319.59 408.12 306.93 C 410.65 293.62 415.05 280.67 421.13 268.56 Z" />
        <path fill="var(--shirt-color, grey)" opacity="1.00"
            d=" M 625.19 337.37 C 627.18 333.00 628.82 328.48 630.78 324.10 C 634.56 325.52 637.80 327.98 640.24 331.20 C 637.40 333.48 634.52 335.70 631.63 337.90 C 629.48 337.71 627.33 337.53 625.19 337.37 Z" />
    </g>
    <g id="#2b3dcdff">
        <path fill="var(--pants-color, grey)" opacity="1.00"
            d=" M 619.01 480.02 C 628.68 475.13 636.87 467.94 645.79 461.88 C 646.71 474.00 645.97 486.21 643.77 498.16 C 641.24 514.13 636.99 530.04 629.32 544.36 C 619.49 563.26 607.33 580.90 598.41 600.29 C 602.88 581.33 610.64 563.19 613.40 543.84 C 613.75 539.95 614.60 535.83 613.13 532.07 C 612.75 532.14 611.99 532.27 611.61 532.33 C 609.96 542.00 608.08 551.67 605.00 561.01 C 600.73 574.22 596.02 587.32 592.98 600.89 C 590.91 610.83 588.39 620.69 585.45 630.41 C 580.90 641.29 577.53 653.08 569.95 662.33 C 564.88 663.08 559.86 661.26 554.97 660.14 C 545.49 657.37 535.83 655.27 526.06 653.86 C 514.27 651.93 501.22 651.43 491.68 643.29 C 482.49 635.29 474.89 625.53 465.01 618.29 C 470.39 606.83 480.18 598.42 486.75 587.74 C 493.05 577.72 499.87 568.04 505.84 557.82 C 507.67 555.19 507.20 551.96 506.65 549.02 C 514.58 556.24 522.12 564.16 531.58 569.42 C 531.59 567.44 531.32 565.46 529.82 564.05 C 520.26 552.97 509.05 543.37 497.04 535.05 C 490.65 530.45 482.65 528.83 474.93 528.53 C 473.22 528.19 472.36 529.64 471.74 530.94 C 478.00 533.20 484.97 533.63 490.65 537.34 C 493.70 539.27 496.54 541.50 499.47 543.62 C 500.15 547.01 501.48 550.31 501.73 553.78 C 500.93 556.04 499.48 557.98 498.25 560.02 C 494.37 555.90 489.67 552.15 484.00 550.99 C 476.79 549.45 469.35 549.69 462.03 549.87 C 457.49 550.12 452.73 549.90 448.57 552.05 C 452.38 554.20 456.85 553.80 461.05 554.30 C 467.56 554.95 474.09 555.50 480.55 556.60 C 486.24 557.48 490.85 561.15 495.69 563.99 C 490.79 571.34 485.82 578.63 481.15 586.12 C 475.80 594.71 468.27 601.80 463.83 610.97 C 460.70 599.40 455.82 587.42 445.74 580.20 C 444.28 578.93 442.54 578.08 440.71 577.54 C 440.34 579.96 442.72 581.40 444.05 583.06 C 452.01 590.74 455.84 601.42 459.32 611.65 C 459.83 613.56 460.72 615.48 460.57 617.50 C 458.88 621.79 455.84 625.34 453.50 629.27 C 441.02 615.92 423.16 609.30 405.48 606.39 C 400.45 605.55 395.34 605.41 390.25 605.57 C 393.16 597.58 397.01 589.88 402.21 583.13 C 404.92 579.52 408.14 576.32 410.75 572.63 C 413.21 569.26 413.78 565.04 415.16 561.21 C 418.94 550.69 425.72 541.46 433.98 534.01 C 441.06 527.68 444.32 518.50 450.28 511.29 C 453.47 507.27 457.15 503.68 460.80 500.08 C 462.01 502.23 463.66 504.33 466.38 504.36 C 478.73 506.04 490.95 502.62 503.06 500.66 C 516.34 498.57 529.56 495.80 543.00 495.00 C 552.82 494.22 562.68 494.25 572.48 493.22 C 588.59 491.59 604.55 487.40 619.01 480.02 M 601.96 495.95 C 596.25 499.20 590.62 502.58 584.95 505.88 C 576.27 510.68 566.78 514.01 557.06 515.91 C 546.12 518.17 535.01 515.53 523.98 516.15 C 519.86 516.46 515.39 515.82 511.62 517.85 C 511.70 518.25 511.86 519.05 511.94 519.45 C 525.84 520.28 539.76 523.22 553.72 521.76 C 568.06 519.66 581.82 513.93 593.59 505.50 C 598.19 502.09 603.77 499.58 606.82 494.49 C 605.14 494.76 603.42 495.04 601.96 495.95 Z" />
        <path fill="var(--socks-color, grey)" opacity="1.00"
            d=" M 531.72 675.02 C 542.02 679.39 550.22 687.19 557.87 695.12 C 568.86 707.07 577.52 720.98 584.47 735.60 C 589.34 744.87 592.67 755.24 600.08 762.92 C 606.64 769.70 615.63 773.12 624.00 777.03 C 624.30 783.84 624.85 792.15 619.07 797.00 C 612.93 801.20 605.03 800.12 598.00 800.16 C 592.99 799.89 588.16 801.46 583.70 803.58 C 573.16 793.21 561.14 784.52 549.30 775.73 C 526.44 758.56 504.77 739.58 486.49 717.52 C 483.50 713.74 481.14 709.51 478.34 705.59 C 492.45 705.23 506.72 701.39 518.45 693.39 C 524.79 689.03 530.35 682.83 531.72 675.02 Z" />
        <path fill="var(--socks-color, grey)" opacity="1.00"
            d=" M 427.96 700.68 C 435.08 699.26 442.13 696.74 447.81 692.08 C 451.19 702.76 454.01 713.61 457.79 724.16 C 461.30 734.45 463.81 745.15 464.40 756.04 C 465.06 767.68 466.09 779.32 468.17 790.81 C 471.57 807.28 475.62 823.62 479.35 840.02 C 481.19 849.79 482.83 859.62 485.57 869.19 C 486.52 872.67 488.38 875.81 490.55 878.67 C 484.75 880.76 480.43 885.54 474.60 887.57 C 469.08 889.67 462.60 890.74 457.13 887.92 C 450.48 884.83 446.51 878.46 441.95 873.07 C 439.93 870.43 436.61 869.73 433.54 869.15 C 431.58 858.69 428.00 848.64 424.51 838.62 C 418.79 821.75 411.38 805.53 405.04 788.90 C 398.51 772.36 395.05 754.80 392.78 737.22 C 390.96 724.16 392.86 710.73 389.13 697.92 C 401.33 703.08 415.12 703.13 427.96 700.68 Z" />
    </g>
    <g id="#4d4d4dff">
        <path fill="#4d4d4d" opacity="1.00"
            d=" M 628.10 776.96 C 641.93 779.65 652.65 791.04 657.07 804.05 C 658.80 809.36 657.60 815.01 656.38 820.30 C 654.10 830.43 649.84 839.96 646.90 849.89 C 643.42 861.27 639.87 873.03 632.32 882.47 C 626.15 890.19 619.50 898.33 610.00 902.00 C 604.92 903.95 599.57 905.84 594.06 905.56 C 590.99 905.22 589.82 901.67 589.72 899.03 C 589.40 891.26 591.24 883.63 592.05 875.95 C 593.94 862.57 593.28 849.03 592.67 835.59 C 592.16 826.20 591.19 816.50 586.49 808.15 C 595.81 803.83 606.26 807.78 615.86 804.75 C 620.94 803.58 625.25 799.83 627.09 794.95 C 629.64 789.28 629.00 782.92 628.10 776.96 Z" />
        <path fill="#4d4d4d" opacity="1.00"
            d=" M 434.35 874.47 C 437.17 876.34 439.58 878.73 441.61 881.43 C 448.13 889.61 458.30 895.87 469.10 894.57 C 478.89 894.05 486.75 887.69 494.42 882.29 C 497.35 885.28 500.26 888.51 501.53 892.60 C 504.83 902.67 505.44 913.43 505.11 923.95 C 504.76 927.92 504.88 932.71 501.44 935.43 C 495.79 940.27 488.20 941.74 481.06 942.92 C 469.36 944.73 458.08 948.57 447.18 953.12 C 438.16 956.86 428.70 959.84 418.89 960.36 C 404.88 960.91 390.71 958.46 377.67 953.29 C 374.70 951.92 370.91 950.53 369.92 947.07 C 369.84 942.09 373.31 938.01 376.56 934.61 C 383.79 927.51 392.98 922.98 401.27 917.29 C 407.96 912.78 413.98 907.37 419.83 901.82 C 424.43 897.36 429.03 892.59 431.49 886.56 C 433.23 882.75 433.74 878.56 434.35 874.47 Z" />
    </g>
</svg>