<?xml version="1.0" encoding="UTF-8" ?>
<!DOCTYPE svg PUBLIC "-//W3C//DTD SVG 1.1//EN" "http://www.w3.org/Graphics/SVG/1.1/DTD/svg11.dtd">
<svg width="1000pt" height="1000pt" viewBox="0 0 1000 1000" version="1.1" xmlns="http://www.w3.org/2000/svg">
    <g id="#020202ff">
        <path fill="#020202" opacity="1.00"
            d=" M 419.86 29.63 C 427.91 27.06 436.67 26.38 444.96 28.07 C 449.57 28.90 453.00 33.40 457.95 32.60 C 466.44 31.80 475.14 33.99 482.20 38.80 C 487.48 42.41 492.65 46.71 495.40 52.63 C 497.43 56.33 498.82 61.05 503.02 62.87 C 505.31 64.30 509.11 64.86 509.43 68.10 C 507.72 70.31 504.62 69.20 502.22 69.48 C 503.95 72.38 505.69 75.35 508.22 77.64 C 510.00 79.52 512.63 81.18 512.82 84.03 C 513.10 86.81 510.96 88.97 509.61 91.16 C 511.17 94.94 513.04 98.76 513.06 102.95 C 513.29 114.11 509.71 124.86 506.27 135.33 C 502.69 145.09 498.06 154.54 496.31 164.88 C 493.53 176.95 482.35 184.66 471.26 188.49 C 471.09 189.22 470.75 190.68 470.58 191.42 C 473.68 195.72 476.84 199.98 480.15 204.13 C 487.09 204.86 494.27 206.67 499.52 211.57 C 504.86 216.15 507.25 223.03 511.65 228.39 C 522.10 241.38 532.48 254.51 541.41 268.62 C 553.81 289.23 564.09 311.33 569.99 334.71 C 573.46 348.29 573.11 362.43 575.42 376.19 C 575.98 380.91 579.18 384.51 582.09 388.01 C 589.82 397.43 593.93 409.32 595.71 421.24 C 597.01 429.49 596.05 437.92 597.44 446.15 C 599.16 454.13 603.29 461.28 606.05 468.90 C 612.21 485.32 616.74 502.44 618.74 519.88 C 619.39 526.80 620.44 533.95 618.38 540.74 C 617.23 539.99 616.08 539.24 614.94 538.50 C 614.63 547.21 610.68 555.12 608.58 563.44 C 605.23 576.21 604.00 589.41 601.15 602.29 C 597.79 615.38 593.36 628.23 587.34 640.35 C 581.15 653.10 573.70 665.28 568.87 678.66 C 567.14 683.16 567.17 688.06 565.94 692.69 C 564.71 694.16 562.69 694.57 560.96 695.18 C 553.00 697.29 544.74 698.08 536.52 698.17 C 536.59 704.41 536.32 710.90 539.10 716.67 C 547.80 719.30 556.47 722.04 565.19 724.64 C 575.01 727.59 585.16 729.16 595.25 730.88 C 602.45 732.10 609.70 733.17 617.01 733.35 C 621.00 733.63 624.47 731.41 628.00 729.91 C 637.46 725.79 647.64 723.01 658.01 722.94 C 668.26 722.12 679.61 723.37 687.77 730.20 C 692.00 733.53 692.64 739.20 693.36 744.16 C 694.51 752.48 693.29 760.86 691.60 769.01 C 688.03 787.81 689.36 807.00 689.32 826.00 C 689.42 841.09 688.08 856.17 685.53 871.04 C 683.99 878.60 682.09 886.77 676.13 892.16 C 672.07 896.35 665.44 898.89 659.89 896.20 C 654.83 894.00 651.98 888.96 649.86 884.15 C 645.18 873.33 640.82 862.37 636.76 851.30 C 632.07 837.87 628.03 823.96 620.13 811.98 C 616.37 806.45 612.39 801.00 607.66 796.26 C 606.71 795.10 605.24 794.72 603.87 794.37 C 593.74 791.81 583.63 789.15 573.51 786.51 C 575.90 795.17 576.37 804.19 577.99 812.99 C 580.72 829.59 587.02 845.29 593.15 860.87 C 598.58 874.69 605.08 888.09 609.86 902.17 C 614.26 914.14 622.54 924.05 629.23 934.75 C 632.81 940.88 636.60 947.72 635.61 955.08 C 634.21 962.34 630.00 969.89 622.58 972.31 C 609.53 977.45 595.37 975.16 581.88 973.58 C 561.65 970.79 541.25 974.01 520.95 972.62 C 514.58 972.12 506.78 974.33 501.74 969.24 C 498.38 965.43 502.33 960.83 505.39 958.36 C 521.22 945.55 538.35 934.48 554.73 922.40 C 548.64 908.22 544.40 893.13 536.05 880.00 C 526.63 865.57 515.34 852.46 506.04 837.94 C 499.52 827.75 493.02 817.54 486.80 807.16 C 481.83 798.70 477.25 789.91 474.48 780.45 C 463.39 778.61 452.75 774.62 442.94 769.17 C 436.23 765.78 429.83 761.02 422.09 760.39 C 412.43 759.14 401.33 759.43 393.76 752.29 C 386.21 744.52 380.03 734.87 378.15 724.07 C 376.54 714.47 380.88 705.38 385.11 697.07 C 388.41 690.73 390.98 684.04 393.24 677.27 C 394.69 673.88 392.35 670.54 392.22 667.14 C 391.71 659.23 393.48 651.42 395.55 643.84 C 397.75 635.75 400.73 627.87 404.31 620.29 C 408.09 612.58 408.82 603.88 409.76 595.48 C 410.66 586.63 409.08 576.94 413.89 568.96 C 416.04 565.14 420.11 563.06 422.81 559.77 C 424.21 554.34 423.11 548.52 425.06 543.19 C 426.10 539.66 428.23 536.61 430.74 533.97 C 426.70 520.49 430.41 506.53 431.35 492.91 C 431.51 485.55 431.73 477.36 426.71 471.38 C 421.69 473.46 416.23 474.63 411.65 477.68 C 406.96 480.85 402.07 484.09 398.95 488.95 C 392.85 497.91 386.35 507.06 376.74 512.56 C 379.60 513.59 383.14 514.51 384.38 517.67 C 385.62 520.03 384.11 522.72 382.05 524.01 C 377.50 527.03 371.65 527.46 366.40 526.49 C 362.84 525.87 359.95 523.59 356.88 521.86 C 353.75 522.38 350.49 521.98 347.78 520.24 C 341.23 516.25 334.74 512.06 328.98 506.98 C 327.54 505.63 325.76 504.12 325.83 501.96 C 326.17 499.13 327.87 496.73 329.16 494.27 C 333.22 487.16 336.41 479.18 342.91 473.87 C 352.65 466.10 365.45 463.77 375.41 456.36 C 381.24 452.27 386.29 447.19 392.17 443.18 C 397.26 439.70 403.30 437.93 409.34 437.00 C 406.13 427.35 406.56 417.12 405.33 407.16 C 403.60 395.49 396.65 385.61 391.98 375.01 C 382.50 353.72 378.86 330.17 379.16 306.98 C 378.68 290.96 380.99 275.03 380.69 259.02 C 380.55 253.61 378.47 248.32 379.49 242.88 C 380.56 232.46 388.17 224.40 395.88 218.04 C 394.78 216.75 393.69 215.47 392.59 214.19 C 389.51 213.64 386.21 213.37 383.59 211.48 C 377.76 207.47 375.04 200.67 370.67 195.35 C 362.83 185.50 355.22 174.59 353.61 161.77 C 351.74 146.87 352.20 131.80 351.86 116.83 C 350.81 113.66 347.94 111.44 346.73 108.31 C 345.54 105.96 346.23 103.32 346.69 100.89 C 345.08 100.04 343.01 99.65 341.98 98.00 C 340.64 95.99 340.89 93.24 342.28 91.32 C 344.90 87.32 348.23 83.80 350.50 79.56 C 355.23 71.17 357.30 61.23 364.14 54.11 C 368.72 49.03 375.28 46.51 381.81 45.07 C 380.88 43.78 378.64 42.04 380.66 40.65 C 384.03 40.21 387.47 40.60 390.86 40.13 C 388.68 37.95 383.99 35.95 385.33 32.19 C 388.33 31.86 390.91 34.09 393.91 34.04 C 402.71 33.88 411.49 32.34 419.86 29.63 M 358.67 160.90 C 360.38 173.09 368.18 183.09 375.44 192.57 C 379.05 197.04 381.18 202.64 385.59 206.46 C 388.21 208.93 392.18 208.25 395.20 209.86 C 397.11 211.36 398.27 213.57 399.59 215.57 C 409.57 210.10 421.10 209.04 432.08 206.84 C 445.93 204.60 459.93 200.05 474.06 202.62 C 471.64 199.70 469.37 196.68 467.11 193.64 C 453.92 197.67 441.01 190.47 429.11 185.60 C 430.64 186.87 432.30 187.99 433.73 189.38 C 434.51 192.19 430.79 192.03 429.05 191.56 C 415.06 188.35 404.50 176.90 398.39 164.40 C 397.14 171.84 390.96 178.65 383.10 178.74 C 381.43 179.07 380.57 176.91 381.73 175.85 C 385.47 169.87 390.68 163.54 389.25 155.99 C 388.19 151.41 386.68 145.79 381.95 143.75 C 375.73 145.01 376.60 152.78 375.60 157.56 C 373.56 158.63 372.30 156.20 371.16 154.93 C 366.92 149.23 366.43 141.94 365.93 135.13 C 362.42 131.07 358.59 127.25 355.74 122.64 C 357.05 135.37 356.71 148.24 358.67 160.90 M 426.56 213.33 C 419.63 214.64 412.51 215.41 405.91 218.02 C 399.17 220.64 393.74 225.78 389.37 231.41 C 385.36 236.64 383.66 243.47 384.62 249.97 C 386.01 256.50 391.69 260.68 394.84 266.25 C 395.98 267.89 394.76 269.66 394.30 271.30 C 391.77 267.04 388.21 263.59 384.64 260.22 C 385.05 267.84 384.81 275.47 384.39 283.09 C 383.37 296.72 383.73 310.42 384.46 324.07 C 386.06 343.51 390.67 362.94 399.70 380.33 C 402.94 386.96 406.56 393.48 408.60 400.61 C 411.64 411.51 409.72 423.14 413.13 433.98 C 417.14 449.15 426.59 461.91 433.76 475.63 C 442.40 471.56 450.46 465.82 456.10 458.02 C 459.65 453.01 463.73 447.68 470.01 446.12 C 471.51 445.83 474.58 445.10 473.69 447.68 C 471.36 449.37 468.64 450.52 466.60 452.60 C 462.42 456.80 459.34 461.96 455.08 466.09 C 449.14 471.74 442.21 476.64 434.18 478.73 C 438.14 496.19 430.95 513.84 434.51 531.34 C 442.61 529.95 450.86 530.92 459.00 529.97 C 476.35 527.99 493.52 524.59 510.95 523.24 C 526.25 521.64 541.66 522.43 557.02 522.21 C 577.06 522.81 597.95 524.95 615.81 534.80 C 613.41 508.70 606.74 482.95 596.02 459.04 C 593.97 454.25 592.03 449.32 591.51 444.10 C 590.65 435.76 591.34 427.29 589.77 419.02 C 588.06 409.72 584.72 400.58 579.02 392.96 C 576.18 388.85 572.19 385.31 570.92 380.31 C 569.37 374.36 569.00 368.19 568.59 362.08 C 567.97 351.59 566.62 341.11 563.80 330.98 C 558.89 313.81 551.89 297.29 543.32 281.64 C 536.55 268.86 528.03 257.13 519.37 245.59 C 513.49 237.78 506.69 230.61 501.92 222.02 C 499.48 217.63 495.74 214.03 491.28 211.73 C 483.75 208.11 475.30 206.46 466.97 207.01 C 453.35 208.11 440.01 211.11 426.56 213.33 M 392.52 448.46 C 385.84 453.84 379.56 459.85 371.99 464.03 C 363.93 468.47 354.91 471.07 347.26 476.26 C 342.24 479.70 339.23 485.17 336.30 490.34 C 334.14 494.30 331.78 498.14 329.58 502.08 C 333.10 505.38 336.84 508.46 340.92 511.04 C 345.37 513.80 349.52 517.38 354.81 518.41 C 353.82 512.16 346.80 509.75 345.01 503.90 C 343.78 500.51 345.85 497.24 347.15 494.23 C 349.52 489.50 351.71 484.14 356.60 481.46 C 354.31 488.45 349.12 494.54 348.65 502.07 C 350.05 506.62 354.90 508.75 357.15 512.77 C 358.21 515.07 358.76 517.57 359.53 519.98 C 364.25 513.65 360.88 504.37 366.65 498.67 C 371.14 494.92 376.20 491.48 381.94 490.03 C 381.60 493.42 378.16 494.84 375.84 496.76 C 372.66 499.36 367.96 501.31 367.42 505.90 C 366.74 511.32 366.25 516.93 363.21 521.66 C 369.06 523.38 375.68 523.28 380.79 519.60 C 378.53 517.27 375.22 517.36 372.32 516.51 C 370.60 515.39 370.83 512.64 372.16 511.27 C 375.06 508.10 378.94 506.04 382.00 503.04 C 390.67 495.24 394.91 483.37 404.98 477.01 C 410.67 472.43 417.48 469.59 424.56 467.97 C 419.02 459.14 413.83 450.01 410.39 440.14 C 404.07 442.00 397.65 444.14 392.52 448.46 M 457.03 534.98 C 450.25 535.62 443.38 534.81 436.64 535.81 C 433.32 536.31 431.63 539.60 430.50 542.40 C 427.53 549.41 430.12 557.47 426.72 564.39 C 431.98 565.96 437.57 566.01 442.96 565.06 C 456.66 562.63 469.61 557.21 481.98 550.99 C 486.15 548.94 489.97 546.24 494.29 544.49 C 493.82 549.53 488.70 551.61 484.97 553.98 C 473.40 560.24 461.39 566.20 448.37 568.73 C 440.29 570.21 431.07 571.01 423.98 566.03 C 421.14 568.54 418.02 571.17 417.04 575.00 C 415.20 581.50 416.09 588.33 415.43 594.97 C 414.61 603.20 413.46 611.48 410.61 619.29 C 423.16 606.89 438.88 598.44 454.29 590.17 C 458.78 587.92 463.33 585.34 468.51 585.28 C 464.35 588.79 459.32 590.95 454.68 593.70 C 439.93 602.21 425.31 611.20 412.56 622.57 C 409.43 625.41 405.93 628.25 404.62 632.46 C 400.47 643.81 396.46 655.72 397.14 667.98 C 397.19 672.54 401.94 674.56 404.91 677.20 C 413.70 684.37 424.28 688.85 435.05 692.14 C 452.49 697.16 470.82 700.66 488.98 698.03 C 499.65 696.90 509.77 692.54 518.49 686.39 C 521.02 684.70 521.88 681.60 522.63 678.82 C 525.37 668.53 524.91 657.42 529.75 647.71 C 536.33 632.52 550.19 622.26 557.88 607.77 C 559.89 604.32 561.09 600.29 564.05 597.49 C 564.47 597.75 565.31 598.27 565.73 598.54 C 565.13 603.80 562.42 608.52 560.25 613.27 C 552.87 627.07 539.61 636.96 533.72 651.68 C 528.22 663.85 531.53 678.90 523.19 689.92 C 536.01 694.22 549.68 692.95 562.79 690.95 C 562.49 677.53 569.17 665.48 574.83 653.76 C 584.30 636.36 592.54 618.08 596.75 598.64 C 598.90 587.78 600.40 576.80 602.77 565.99 C 604.72 556.00 610.11 546.75 609.98 536.38 C 584.93 526.30 557.45 527.28 530.95 527.16 C 506.11 527.41 481.70 532.71 457.03 534.98 M 397.77 677.87 C 395.43 685.71 392.29 693.31 388.55 700.58 C 385.25 707.23 382.04 714.34 382.53 721.96 C 382.65 728.23 386.23 733.61 389.14 738.92 C 392.28 744.17 395.95 749.90 402.09 751.88 C 411.87 754.93 422.51 753.36 432.17 756.93 C 430.75 743.97 433.37 730.68 438.83 718.89 C 440.86 715.16 442.50 710.60 446.61 708.68 C 452.46 705.72 459.11 705.18 465.49 704.20 C 449.69 702.51 434.01 698.82 419.39 692.56 C 411.26 689.19 404.22 683.76 397.77 677.87 M 518.51 692.97 C 508.48 699.74 496.64 703.28 484.63 704.09 C 501.48 706.34 518.21 709.72 534.33 715.19 C 532.77 709.53 532.76 703.62 532.93 697.81 C 527.85 697.15 522.84 695.78 518.51 692.97 M 456.02 711.48 C 452.48 712.34 448.25 712.77 445.98 716.00 C 442.85 720.35 441.12 725.52 439.67 730.63 C 437.67 738.26 436.30 746.19 436.96 754.09 C 437.21 756.81 437.80 760.08 440.58 761.35 C 447.84 765.50 455.33 769.39 463.34 771.89 C 478.70 776.78 495.03 776.84 510.99 776.27 C 533.41 775.62 556.01 777.34 577.89 782.42 C 588.16 785.28 598.68 787.36 608.68 791.12 C 614.33 785.32 619.13 778.55 621.98 770.93 C 625.97 760.21 625.55 748.22 622.20 737.39 C 614.62 736.80 606.99 737.25 599.45 736.26 C 586.94 734.69 574.36 733.16 562.21 729.67 C 551.46 726.59 540.72 723.45 530.04 720.11 C 514.13 714.92 497.63 711.65 481.01 709.83 C 472.67 709.27 464.24 710.02 456.02 711.48 M 626.91 735.39 C 634.65 755.75 627.89 779.91 612.05 794.51 C 618.19 800.29 623.40 807.01 627.78 814.20 C 635.44 827.07 639.02 841.76 644.33 855.64 C 648.15 865.73 651.80 875.93 656.32 885.73 C 658.28 890.36 663.72 893.98 668.71 891.65 C 676.04 889.11 677.54 880.56 679.14 873.96 C 682.47 855.54 683.40 836.74 683.14 818.03 C 682.99 801.67 683.04 785.20 686.08 769.06 C 688.01 758.78 690.43 747.63 686.52 737.55 C 681.96 731.12 673.37 729.56 666.07 728.38 C 652.61 726.19 639.18 730.15 626.91 735.39 M 478.65 781.06 C 482.63 790.45 487.64 799.34 493.05 807.97 C 500.08 819.17 507.15 830.36 514.72 841.21 C 523.01 853.23 532.39 864.45 540.52 876.59 C 549.63 890.61 554.46 906.75 560.93 922.03 C 562.41 926.46 566.44 929.78 571.06 930.48 C 574.07 930.97 575.55 927.78 576.45 925.48 C 578.75 919.41 581.81 913.08 587.47 909.49 C 593.69 905.94 601.34 906.48 607.99 908.45 C 598.68 883.35 586.20 859.50 578.12 833.94 C 573.22 818.26 571.70 801.82 569.26 785.65 C 551.38 782.50 533.19 781.30 515.05 781.53 C 502.92 781.92 490.74 782.40 478.65 781.06 M 590.33 914.30 C 584.93 918.07 583.08 924.70 580.22 930.28 C 578.13 934.41 573.15 936.79 568.66 935.35 C 563.40 934.37 559.41 930.50 556.85 926.00 C 552.18 929.68 547.32 933.10 542.42 936.46 C 534.29 941.88 526.68 948.02 518.70 953.66 C 513.58 957.50 508.05 961.03 504.13 966.22 C 506.60 967.41 509.25 968.33 512.05 968.25 C 526.37 968.32 540.71 968.21 555.01 967.09 C 569.04 966.00 582.99 968.15 596.89 969.73 C 604.87 970.74 613.12 970.31 620.79 967.79 C 628.51 965.20 633.13 955.72 630.00 948.08 C 626.17 938.51 620.03 930.09 614.52 921.45 C 612.13 918.00 609.95 913.47 605.37 912.70 C 600.39 911.88 594.82 911.69 590.33 914.30 Z" />
        <path fill="#020202" opacity="1.00"
            d=" M 481.43 255.99 C 480.80 254.24 481.43 250.95 483.83 252.76 C 488.36 260.35 490.95 268.95 495.50 276.55 C 498.43 281.46 502.69 285.34 506.83 289.21 C 519.66 300.79 525.68 319.58 521.97 336.44 C 517.85 337.29 513.82 338.55 509.94 340.19 C 511.03 347.97 510.81 355.93 512.56 363.60 C 517.66 376.98 525.07 389.57 534.86 400.07 C 543.16 409.24 552.76 417.16 563.00 424.08 C 565.46 425.69 567.80 427.51 569.72 429.77 C 562.87 428.62 557.44 423.91 551.85 420.16 C 535.27 408.51 521.39 392.75 513.29 374.06 C 514.78 383.08 516.02 392.72 521.72 400.21 C 526.87 407.37 535.44 411.43 539.69 419.32 C 542.26 423.81 542.48 429.09 543.07 434.10 C 543.24 437.16 545.80 439.20 547.71 441.31 C 559.16 452.40 572.05 461.87 585.03 471.06 C 587.07 472.41 588.69 474.27 589.93 476.38 C 585.32 476.37 581.69 473.36 578.03 470.99 C 567.38 463.72 556.73 456.34 547.45 447.34 C 550.71 452.05 554.98 456.89 554.80 462.98 C 554.83 468.68 551.41 473.65 547.49 477.49 C 547.66 481.88 547.73 486.99 544.16 490.17 C 541.74 492.94 538.02 493.63 534.56 494.08 C 533.24 498.16 528.91 499.55 525.00 499.56 C 520.48 499.68 515.87 498.99 511.69 497.24 C 507.07 495.09 504.86 490.08 503.52 485.46 C 501.92 479.64 499.92 473.91 498.85 467.96 C 497.73 462.32 499.83 456.69 499.16 451.04 C 498.23 442.41 497.52 433.72 498.07 425.05 C 498.24 418.08 498.96 410.70 495.80 404.23 C 489.44 390.59 477.35 380.96 468.95 368.69 C 465.93 371.71 464.03 375.93 460.06 377.86 C 457.65 374.45 455.84 370.69 454.17 366.89 C 451.06 359.78 446.08 353.68 440.78 348.10 C 436.00 344.20 430.32 341.56 424.68 339.18 C 420.82 337.44 416.27 337.02 413.10 333.99 C 420.97 332.06 428.87 335.23 436.05 338.21 C 435.26 333.45 434.37 328.50 431.37 324.57 C 424.61 315.45 415.70 308.26 408.07 299.92 C 406.73 298.61 406.45 296.72 406.08 294.99 C 409.36 295.41 411.84 297.65 414.13 299.85 C 419.65 304.98 425.25 310.06 430.44 315.54 C 434.07 319.44 437.43 323.83 438.90 329.04 C 440.37 333.61 440.18 338.81 443.14 342.82 C 446.46 347.47 450.53 351.56 453.60 356.41 C 456.63 360.97 458.70 366.07 460.71 371.14 C 469.50 359.98 481.15 351.48 493.17 344.10 C 500.47 339.78 508.15 335.77 516.55 334.11 C 519.95 328.47 519.10 321.64 517.17 315.66 C 514.98 308.24 511.84 300.45 505.58 295.56 C 493.55 288.43 478.22 290.17 465.86 295.52 C 463.45 294.78 465.04 292.24 466.38 291.34 C 475.45 285.04 487.26 284.36 497.69 287.17 C 485.37 279.36 470.34 276.65 455.95 278.19 C 453.31 278.55 450.79 279.47 448.27 280.28 C 448.34 278.43 449.09 276.65 451.01 276.06 C 463.85 270.52 478.68 273.32 490.92 279.14 C 486.98 271.80 483.34 264.14 481.43 255.99 M 471.48 366.26 C 476.46 371.69 481.37 377.18 486.40 382.58 C 493.05 389.87 499.78 397.74 502.49 407.45 C 504.34 415.84 502.81 424.48 502.91 432.98 C 502.86 439.33 503.63 445.64 504.18 451.95 C 504.67 456.98 502.65 461.94 503.63 466.94 C 504.67 472.70 506.68 478.21 508.26 483.83 C 509.31 487.05 510.45 490.70 513.48 492.60 C 518.27 495.04 523.87 495.27 529.11 494.46 C 523.38 490.68 516.32 488.57 512.09 482.85 C 510.71 481.43 510.25 479.49 510.13 477.59 C 516.57 483.20 524.73 486.11 531.82 490.75 C 534.99 489.94 538.81 489.76 540.96 486.92 C 543.19 484.64 542.76 481.29 542.71 478.40 C 538.13 479.05 533.55 480.50 528.88 479.96 C 525.29 479.60 522.06 477.85 519.14 475.83 C 516.59 473.99 513.16 472.17 513.40 468.50 C 518.15 470.05 522.13 473.50 527.15 474.33 C 532.22 475.42 537.36 474.18 542.40 473.49 C 541.94 469.40 541.32 465.32 540.00 461.41 C 535.69 462.45 531.48 464.42 526.95 464.09 C 521.66 463.71 516.23 461.76 512.49 457.90 C 512.74 457.48 513.25 456.65 513.50 456.24 C 517.97 457.10 522.31 458.67 526.90 458.88 C 530.57 459.27 534.12 458.06 537.59 457.05 C 536.85 454.19 535.98 451.38 535.08 448.58 C 532.37 450.51 529.56 453.02 526.01 452.87 C 523.41 452.94 521.02 450.72 521.09 448.08 C 521.07 444.86 521.29 441.43 522.95 438.58 C 523.48 438.61 524.54 438.68 525.08 438.71 C 526.27 441.54 526.30 444.68 526.72 447.69 C 530.04 446.37 533.72 441.84 537.38 444.71 C 540.35 447.85 540.33 452.52 540.81 456.56 C 546.49 460.15 546.00 467.57 546.32 473.43 C 548.22 469.09 550.94 464.09 548.53 459.38 C 545.53 453.63 540.59 448.95 538.66 442.62 C 536.12 435.56 538.39 427.34 534.17 420.81 C 529.76 414.32 522.50 410.50 517.87 404.18 C 509.96 393.90 508.93 380.40 507.68 367.97 C 506.90 359.29 506.01 350.59 506.42 341.86 C 493.74 348.37 481.96 356.60 471.48 366.26 Z" />
        <path fill="#020202" opacity="1.00"
            d=" M 548.29 588.82 C 551.04 588.06 549.71 592.10 549.35 593.59 C 543.09 609.91 534.29 625.49 522.19 638.21 C 512.74 648.29 501.56 656.54 489.97 663.96 C 482.51 668.69 475.00 673.46 466.87 676.97 C 464.68 678.06 462.21 678.03 459.90 677.35 C 463.83 673.85 468.79 671.92 473.20 669.15 C 490.24 658.74 507.10 647.49 520.65 632.66 C 529.23 623.50 535.98 612.81 541.60 601.63 C 543.89 597.39 545.74 592.91 548.29 588.82 Z" />
    </g>
    <g id="#f0b58bff">
        <path fill="#f0b58b" opacity="1.00"
            d=" M 358.67 160.90 C 356.71 148.24 357.05 135.37 355.74 122.64 C 358.59 127.25 362.42 131.07 365.93 135.13 C 366.43 141.94 366.92 149.23 371.16 154.93 C 372.30 156.20 373.56 158.63 375.60 157.56 C 376.60 152.78 375.73 145.01 381.95 143.75 C 386.68 145.79 388.19 151.41 389.25 155.99 C 390.68 163.54 385.47 169.87 381.73 175.85 C 380.57 176.91 381.43 179.07 383.10 178.74 C 390.96 178.65 397.14 171.84 398.39 164.40 C 404.50 176.90 415.06 188.35 429.05 191.56 C 430.79 192.03 434.51 192.19 433.73 189.38 C 432.30 187.99 430.64 186.87 429.11 185.60 C 441.01 190.47 453.92 197.67 467.11 193.64 C 469.37 196.68 471.64 199.70 474.06 202.62 C 459.93 200.05 445.93 204.60 432.08 206.84 C 421.10 209.04 409.57 210.10 399.59 215.57 C 398.27 213.57 397.11 211.36 395.20 209.86 C 392.18 208.25 388.21 208.93 385.59 206.46 C 381.18 202.64 379.05 197.04 375.44 192.57 C 368.18 183.09 360.38 173.09 358.67 160.90 Z" />
        <path fill="#f0b58b" opacity="1.00"
            d=" M 471.48 366.26 C 481.96 356.60 493.74 348.37 506.42 341.86 C 506.01 350.59 506.90 359.29 507.68 367.97 C 508.93 380.40 509.96 393.90 517.87 404.18 C 522.50 410.50 529.76 414.32 534.17 420.81 C 538.39 427.34 536.12 435.56 538.66 442.62 C 540.59 448.95 545.53 453.63 548.53 459.38 C 550.94 464.09 548.22 469.09 546.32 473.43 C 546.00 467.57 546.49 460.15 540.81 456.56 C 540.33 452.52 540.35 447.85 537.38 444.71 C 533.72 441.84 530.04 446.37 526.72 447.69 C 526.30 444.68 526.27 441.54 525.08 438.71 C 524.54 438.68 523.48 438.61 522.95 438.58 C 521.29 441.43 521.07 444.86 521.09 448.08 C 521.02 450.72 523.41 452.94 526.01 452.87 C 529.56 453.02 532.37 450.51 535.08 448.58 C 535.98 451.38 536.85 454.19 537.59 457.05 C 534.12 458.06 530.57 459.27 526.90 458.88 C 522.31 458.67 517.97 457.10 513.50 456.24 C 513.25 456.65 512.74 457.48 512.49 457.90 C 516.23 461.76 521.66 463.71 526.95 464.09 C 531.48 464.42 535.69 462.45 540.00 461.41 C 541.32 465.32 541.94 469.40 542.40 473.49 C 537.36 474.18 532.22 475.42 527.15 474.33 C 522.13 473.50 518.15 470.05 513.40 468.50 C 513.16 472.17 516.59 473.99 519.14 475.83 C 522.06 477.85 525.29 479.60 528.88 479.96 C 533.55 480.50 538.13 479.05 542.71 478.40 C 542.76 481.29 543.19 484.64 540.96 486.92 C 538.81 489.76 534.99 489.94 531.82 490.75 C 524.73 486.11 516.57 483.20 510.13 477.59 C 510.25 479.49 510.71 481.43 512.09 482.85 C 516.32 488.57 523.38 490.68 529.11 494.46 C 523.87 495.27 518.27 495.04 513.48 492.60 C 510.45 490.70 509.31 487.05 508.26 483.83 C 506.68 478.21 504.67 472.70 503.63 466.94 C 502.65 461.94 504.67 456.98 504.18 451.95 C 503.63 445.64 502.86 439.33 502.91 432.98 C 502.81 424.48 504.34 415.84 502.49 407.45 C 499.78 397.74 493.05 389.87 486.40 382.58 C 481.37 377.18 476.46 371.69 471.48 366.26 Z" />
        <path fill="#f0b58b" opacity="1.00"
            d=" M 392.52 448.46 C 397.65 444.14 404.07 442.00 410.39 440.14 C 413.83 450.01 419.02 459.14 424.56 467.97 C 417.48 469.59 410.67 472.43 404.98 477.01 C 394.91 483.37 390.67 495.24 382.00 503.04 C 378.94 506.04 375.06 508.10 372.16 511.27 C 370.83 512.64 370.60 515.39 372.32 516.51 C 375.22 517.36 378.53 517.27 380.79 519.60 C 375.68 523.28 369.06 523.38 363.21 521.66 C 366.25 516.93 366.74 511.32 367.42 505.90 C 367.96 501.31 372.66 499.36 375.84 496.76 C 378.16 494.84 381.60 493.42 381.94 490.03 C 376.20 491.48 371.14 494.92 366.65 498.67 C 360.88 504.37 364.25 513.65 359.53 519.98 C 358.76 517.57 358.21 515.07 357.15 512.77 C 354.90 508.75 350.05 506.62 348.65 502.07 C 349.12 494.54 354.31 488.45 356.60 481.46 C 351.71 484.14 349.52 489.50 347.15 494.23 C 345.85 497.24 343.78 500.51 345.01 503.90 C 346.80 509.75 353.82 512.16 354.81 518.41 C 349.52 517.38 345.37 513.80 340.92 511.04 C 336.84 508.46 333.10 505.38 329.58 502.08 C 331.78 498.14 334.14 494.30 336.30 490.34 C 339.23 485.17 342.24 479.70 347.26 476.26 C 354.91 471.07 363.93 468.47 371.99 464.03 C 379.56 459.85 385.84 453.84 392.52 448.46 Z" />
        <path fill="#f0b58b" opacity="1.00"
            d=" M 397.77 677.87 C 404.22 683.76 411.26 689.19 419.39 692.56 C 434.01 698.82 449.69 702.51 465.49 704.20 C 459.11 705.18 452.46 705.72 446.61 708.68 C 442.50 710.60 440.86 715.16 438.83 718.89 C 433.37 730.68 430.75 743.97 432.17 756.93 C 422.51 753.36 411.87 754.93 402.09 751.88 C 395.95 749.90 392.28 744.17 389.14 738.92 C 386.23 733.61 382.65 728.23 382.53 721.96 C 382.04 714.34 385.25 707.23 388.55 700.58 C 392.29 693.31 395.43 685.71 397.77 677.87 Z" />
        <path fill="#f0b58b" opacity="1.00"
            d=" M 518.51 692.97 C 522.84 695.78 527.85 697.15 532.93 697.81 C 532.76 703.62 532.77 709.53 534.33 715.19 C 518.21 709.72 501.48 706.34 484.63 704.09 C 496.64 703.28 508.48 699.74 518.51 692.97 Z" />
    </g>
    <g id="#f11b27ff">
        <path fill="var(--shirt-color, grey)" opacity="1.00"
            d=" M 426.56 213.33 C 440.01 211.11 453.35 208.11 466.97 207.01 C 475.30 206.46 483.75 208.11 491.28 211.73 C 495.74 214.03 499.48 217.63 501.92 222.02 C 506.69 230.61 513.49 237.78 519.37 245.59 C 528.03 257.13 536.55 268.86 543.32 281.64 C 551.89 297.29 558.89 313.81 563.80 330.98 C 566.62 341.11 567.97 351.59 568.59 362.08 C 569.00 368.19 569.37 374.36 570.92 380.31 C 572.19 385.31 576.18 388.85 579.02 392.96 C 584.72 400.58 588.06 409.72 589.77 419.02 C 591.34 427.29 590.65 435.76 591.51 444.10 C 592.03 449.32 593.97 454.25 596.02 459.04 C 606.74 482.95 613.41 508.70 615.81 534.80 C 597.95 524.95 577.06 522.81 557.02 522.21 C 541.66 522.43 526.25 521.64 510.95 523.24 C 493.52 524.59 476.35 527.99 459.00 529.97 C 450.86 530.92 442.61 529.95 434.51 531.34 C 430.95 513.84 438.14 496.19 434.18 478.73 C 442.21 476.64 449.14 471.74 455.08 466.09 C 459.34 461.96 462.42 456.80 466.60 452.60 C 468.64 450.52 471.36 449.37 473.69 447.68 C 474.58 445.10 471.51 445.83 470.01 446.12 C 463.73 447.68 459.65 453.01 456.10 458.02 C 450.46 465.82 442.40 471.56 433.76 475.63 C 426.59 461.91 417.14 449.15 413.13 433.98 C 409.72 423.14 411.64 411.51 408.60 400.61 C 406.56 393.48 402.94 386.96 399.70 380.33 C 390.67 362.94 386.06 343.51 384.46 324.07 C 383.73 310.42 383.37 296.72 384.39 283.09 C 384.81 275.47 385.05 267.84 384.64 260.22 C 388.21 263.59 391.77 267.04 394.30 271.30 C 394.76 269.66 395.98 267.89 394.84 266.25 C 391.69 260.68 386.01 256.50 384.62 249.97 C 383.66 243.47 385.36 236.64 389.37 231.41 C 393.74 225.78 399.17 220.64 405.91 218.02 C 412.51 215.41 419.63 214.64 426.56 213.33 M 481.43 255.99 C 483.34 264.14 486.98 271.80 490.92 279.14 C 478.68 273.32 463.85 270.52 451.01 276.06 C 449.09 276.65 448.34 278.43 448.27 280.28 C 450.79 279.47 453.31 278.55 455.95 278.19 C 470.34 276.65 485.37 279.36 497.69 287.17 C 487.26 284.36 475.45 285.04 466.38 291.34 C 465.04 292.24 463.45 294.78 465.86 295.52 C 478.22 290.17 493.55 288.43 505.58 295.56 C 511.84 300.45 514.98 308.24 517.17 315.66 C 519.10 321.64 519.95 328.47 516.55 334.11 C 508.15 335.77 500.47 339.78 493.17 344.10 C 481.15 351.48 469.50 359.98 460.71 371.14 C 458.70 366.07 456.63 360.97 453.60 356.41 C 450.53 351.56 446.46 347.47 443.14 342.82 C 440.18 338.81 440.37 333.61 438.90 329.04 C 437.43 323.83 434.07 319.44 430.44 315.54 C 425.25 310.06 419.65 304.98 414.13 299.85 C 411.84 297.65 409.36 295.41 406.08 294.99 C 406.45 296.72 406.73 298.61 408.07 299.92 C 415.70 308.26 424.61 315.45 431.37 324.57 C 434.37 328.50 435.26 333.45 436.05 338.21 C 428.87 335.23 420.97 332.06 413.10 333.99 C 416.27 337.02 420.82 337.44 424.68 339.18 C 430.32 341.56 436.00 344.20 440.78 348.10 C 446.08 353.68 451.06 359.78 454.17 366.89 C 455.84 370.69 457.65 374.45 460.06 377.86 C 464.03 375.93 465.93 371.71 468.95 368.69 C 477.35 380.96 489.44 390.59 495.80 404.23 C 498.96 410.70 498.24 418.08 498.07 425.05 C 497.52 433.72 498.23 442.41 499.16 451.04 C 499.83 456.69 497.73 462.32 498.85 467.96 C 499.92 473.91 501.92 479.64 503.52 485.46 C 504.86 490.08 507.07 495.09 511.69 497.24 C 515.87 498.99 520.48 499.68 525.00 499.56 C 528.91 499.55 533.24 498.16 534.56 494.08 C 538.02 493.63 541.74 492.94 544.16 490.17 C 547.73 486.99 547.66 481.88 547.49 477.49 C 551.41 473.65 554.83 468.68 554.80 462.98 C 554.98 456.89 550.71 452.05 547.45 447.34 C 556.73 456.34 567.38 463.72 578.03 470.99 C 581.69 473.36 585.32 476.37 589.93 476.38 C 588.69 474.27 587.07 472.41 585.03 471.06 C 572.05 461.87 559.16 452.40 547.71 441.31 C 545.80 439.20 543.24 437.16 543.07 434.10 C 542.48 429.09 542.26 423.81 539.69 419.32 C 535.44 411.43 526.87 407.37 521.72 400.21 C 516.02 392.72 514.78 383.08 513.29 374.06 C 521.39 392.75 535.27 408.51 551.85 420.16 C 557.44 423.91 562.87 428.62 569.72 429.77 C 567.80 427.51 565.46 425.69 563.00 424.08 C 552.76 417.16 543.16 409.24 534.86 400.07 C 525.07 389.57 517.66 376.98 512.56 363.60 C 510.81 355.93 511.03 347.97 509.94 340.19 C 513.82 338.55 517.85 337.29 521.97 336.44 C 525.68 319.58 519.66 300.79 506.83 289.21 C 502.69 285.34 498.43 281.46 495.50 276.55 C 490.95 268.95 488.36 260.35 483.83 252.76 C 481.43 250.95 480.80 254.24 481.43 255.99 Z" />
    </g>
    <g id="#2b3dcdff">
        <path fill="var(--pants-color, grey)" opacity="1.00"
            d=" M 457.03 534.98 C 481.70 532.71 506.11 527.41 530.95 527.16 C 557.45 527.28 584.93 526.30 609.98 536.38 C 610.11 546.75 604.72 556.00 602.77 565.99 C 600.40 576.80 598.90 587.78 596.75 598.64 C 592.54 618.08 584.30 636.36 574.83 653.76 C 569.17 665.48 562.49 677.53 562.79 690.95 C 549.68 692.95 536.01 694.22 523.19 689.92 C 531.53 678.90 528.22 663.85 533.72 651.68 C 539.61 636.96 552.87 627.07 560.25 613.27 C 562.42 608.52 565.13 603.80 565.73 598.54 C 565.31 598.27 564.47 597.75 564.05 597.49 C 561.09 600.29 559.89 604.32 557.88 607.77 C 550.19 622.26 536.33 632.52 529.75 647.71 C 524.91 657.42 525.37 668.53 522.63 678.82 C 521.88 681.60 521.02 684.70 518.49 686.39 C 509.77 692.54 499.65 696.90 488.98 698.03 C 470.82 700.66 452.49 697.16 435.05 692.14 C 424.28 688.85 413.70 684.37 404.91 677.20 C 401.94 674.56 397.19 672.54 397.14 667.98 C 396.46 655.72 400.47 643.81 404.62 632.46 C 405.93 628.25 409.43 625.41 412.56 622.57 C 425.31 611.20 439.93 602.21 454.68 593.70 C 459.32 590.95 464.35 588.79 468.51 585.28 C 463.33 585.34 458.78 587.92 454.29 590.17 C 438.88 598.44 423.16 606.89 410.61 619.29 C 413.46 611.48 414.61 603.20 415.43 594.97 C 416.09 588.33 415.20 581.50 417.04 575.00 C 418.02 571.17 421.14 568.54 423.98 566.03 C 431.07 571.01 440.29 570.21 448.37 568.73 C 461.39 566.20 473.40 560.24 484.97 553.98 C 488.70 551.61 493.82 549.53 494.29 544.49 C 489.97 546.24 486.15 548.94 481.98 550.99 C 469.61 557.21 456.66 562.63 442.96 565.06 C 437.57 566.01 431.98 565.96 426.72 564.39 C 430.12 557.47 427.53 549.41 430.50 542.40 C 431.63 539.60 433.32 536.31 436.64 535.81 C 443.38 534.81 450.25 535.62 457.03 534.98 M 548.29 588.82 C 545.74 592.91 543.89 597.39 541.60 601.63 C 535.98 612.81 529.23 623.50 520.65 632.66 C 507.10 647.49 490.24 658.74 473.20 669.15 C 468.79 671.92 463.83 673.85 459.90 677.35 C 462.21 678.03 464.68 678.06 466.87 676.97 C 475.00 673.46 482.51 668.69 489.97 663.96 C 501.56 656.54 512.74 648.29 522.19 638.21 C 534.29 625.49 543.09 609.91 549.35 593.59 C 549.71 592.10 551.04 588.06 548.29 588.82 Z" />
        <path fill="var(--socks-color, grey)" opacity="1.00"
            d=" M 456.02 711.48 C 464.24 710.02 472.67 709.27 481.01 709.83 C 497.63 711.65 514.13 714.92 530.04 720.11 C 540.72 723.45 551.46 726.59 562.21 729.67 C 574.36 733.16 586.94 734.69 599.45 736.26 C 606.99 737.25 614.62 736.80 622.20 737.39 C 625.55 748.22 625.97 760.21 621.98 770.93 C 619.13 778.55 614.33 785.32 608.68 791.12 C 598.68 787.36 588.16 785.28 577.89 782.42 C 556.01 777.34 533.41 775.62 510.99 776.27 C 495.03 776.84 478.70 776.78 463.34 771.89 C 455.33 769.39 447.84 765.50 440.58 761.35 C 437.80 760.08 437.21 756.81 436.96 754.09 C 436.30 746.19 437.67 738.26 439.67 730.63 C 441.12 725.52 442.85 720.35 445.98 716.00 C 448.25 712.77 452.48 712.34 456.02 711.48 Z" />
        <path fill="var(--socks-color, grey)" opacity="1.00"
            d=" M 478.65 781.06 C 490.74 782.40 502.92 781.92 515.05 781.53 C 533.19 781.30 551.38 782.50 569.26 785.65 C 571.70 801.82 573.22 818.26 578.12 833.94 C 586.20 859.50 598.68 883.35 607.99 908.45 C 601.34 906.48 593.69 905.94 587.47 909.49 C 581.81 913.08 578.75 919.41 576.45 925.48 C 575.55 927.78 574.07 930.97 571.06 930.48 C 566.44 929.78 562.41 926.46 560.93 922.03 C 554.46 906.75 549.63 890.61 540.52 876.59 C 532.39 864.45 523.01 853.23 514.72 841.21 C 507.15 830.36 500.08 819.17 493.05 807.97 C 487.64 799.34 482.63 790.45 478.65 781.06 Z" />
    </g>
    <g id="#4d4d4dff">
        <path fill="#4d4d4d" opacity="1.00"
            d=" M 626.91 735.39 C 639.18 730.15 652.61 726.19 666.07 728.38 C 673.37 729.56 681.96 731.12 686.52 737.55 C 690.43 747.63 688.01 758.78 686.08 769.06 C 683.04 785.20 682.99 801.67 683.14 818.03 C 683.40 836.74 682.47 855.54 679.14 873.96 C 677.54 880.56 676.04 889.11 668.71 891.65 C 663.72 893.98 658.28 890.36 656.32 885.73 C 651.80 875.93 648.15 865.73 644.33 855.64 C 639.02 841.76 635.44 827.07 627.78 814.20 C 623.40 807.01 618.19 800.29 612.05 794.51 C 627.89 779.91 634.65 755.75 626.91 735.39 Z" />
        <path fill="#4d4d4d" opacity="1.00"
            d=" M 590.33 914.30 C 594.82 911.69 600.39 911.88 605.37 912.70 C 609.95 913.47 612.13 918.00 614.52 921.45 C 620.03 930.09 626.17 938.51 630.00 948.08 C 633.13 955.72 628.51 965.20 620.79 967.79 C 613.12 970.31 604.87 970.74 596.89 969.73 C 582.99 968.15 569.04 966.00 555.01 967.09 C 540.71 968.21 526.37 968.32 512.05 968.25 C 509.25 968.33 506.60 967.41 504.13 966.22 C 508.05 961.03 513.58 957.50 518.70 953.66 C 526.68 948.02 534.29 941.88 542.42 936.46 C 547.32 933.10 552.18 929.68 556.85 926.00 C 559.41 930.50 563.40 934.37 568.66 935.35 C 573.15 936.79 578.13 934.41 580.22 930.28 C 583.08 924.70 584.93 918.07 590.33 914.30 Z" />
    </g>
</svg>