<?xml version="1.0" encoding="UTF-8" ?>
<!DOCTYPE svg PUBLIC "-//W3C//DTD SVG 1.1//EN" "http://www.w3.org/Graphics/SVG/1.1/DTD/svg11.dtd">
<svg width="1000pt" height="1000pt" viewBox="0 0 1000 1000" version="1.1" xmlns="http://www.w3.org/2000/svg">
    <g id="#020202ff">
        <path fill="#020202" opacity="1.00"
            d=" M 437.13 31.20 C 449.60 25.82 465.72 26.72 475.82 36.49 C 487.26 33.49 499.03 39.05 507.75 46.22 C 513.20 50.38 515.02 57.21 517.95 63.07 C 519.72 66.87 522.18 70.37 523.35 74.43 C 526.27 84.03 526.01 94.21 525.42 104.12 C 525.11 107.15 525.24 110.51 523.19 113.00 C 522.26 110.16 521.52 107.26 520.84 104.35 C 520.86 112.35 519.75 120.41 516.78 127.87 C 512.62 138.55 507.91 149.06 501.83 158.79 C 498.48 164.78 495.08 171.07 494.42 178.02 C 493.83 185.27 497.27 191.97 501.13 197.84 C 502.88 200.33 504.26 203.47 507.31 204.61 C 515.68 208.38 523.17 213.87 529.97 219.98 C 535.81 225.16 540.55 231.52 546.95 236.07 C 558.32 244.45 570.72 252.30 578.67 264.30 C 582.45 269.62 582.92 276.66 587.39 281.56 C 592.89 287.74 599.42 292.90 605.73 298.23 C 615.39 306.22 623.72 315.63 632.42 324.61 C 635.38 327.94 638.80 330.93 641.21 334.71 C 642.92 337.49 641.85 340.80 641.39 343.78 C 650.44 353.49 660.00 364.23 661.89 377.90 C 663.15 387.22 662.89 396.66 663.48 406.03 C 664.00 417.69 664.68 429.35 665.33 441.01 C 666.07 456.03 664.47 471.01 663.81 486.01 C 663.30 491.78 664.19 497.58 665.58 503.18 C 667.11 509.26 670.50 514.62 672.63 520.48 C 675.81 530.15 675.29 540.52 674.35 550.51 C 673.82 554.37 673.19 559.23 669.27 561.17 C 662.99 564.40 656.07 566.57 649.03 567.21 C 645.77 567.72 642.90 565.96 640.13 564.57 C 636.19 565.88 632.18 567.61 627.96 567.39 C 626.38 566.25 626.10 564.22 625.42 562.55 C 622.02 562.95 618.58 562.61 615.47 561.15 C 612.13 561.35 608.46 562.20 605.39 560.45 C 602.83 558.94 602.63 555.64 602.51 552.99 C 602.44 548.99 602.26 544.93 603.11 540.99 C 603.49 538.67 605.69 537.49 607.39 536.19 C 608.23 527.75 613.20 520.68 617.99 513.99 C 621.91 508.76 626.90 503.73 627.79 496.94 C 629.65 481.95 627.63 466.85 625.42 452.01 C 623.74 436.40 620.09 421.10 616.38 405.87 C 614.59 397.25 612.21 388.71 611.65 379.89 C 608.56 381.83 604.92 384.70 601.11 382.83 C 592.60 378.83 586.51 370.66 577.50 367.64 C 576.46 374.23 574.89 380.81 575.11 387.53 C 575.37 397.19 576.65 406.96 574.74 416.54 C 573.30 425.46 569.81 433.85 566.18 442.07 C 563.18 448.66 561.27 455.83 561.16 463.09 C 562.02 474.91 567.61 486.05 566.86 498.06 C 566.40 502.08 565.42 506.08 563.69 509.75 C 561.81 513.64 558.23 516.28 554.81 518.76 C 555.04 528.89 554.50 539.06 552.83 549.07 C 550.67 561.33 544.26 572.72 534.83 580.86 C 529.43 585.20 525.25 590.92 522.28 597.15 C 521.28 601.37 522.02 605.80 522.25 610.09 C 522.76 618.94 526.87 627.07 527.69 635.87 C 528.34 641.06 527.62 646.28 526.48 651.35 C 533.35 661.79 541.59 672.28 543.14 685.07 C 543.57 687.87 540.72 688.85 538.65 689.59 C 541.22 698.26 544.25 706.81 548.00 715.03 C 557.07 731.32 570.64 744.44 584.45 756.71 C 596.05 767.37 607.81 777.93 618.12 789.88 C 627.81 800.64 635.17 813.19 642.22 825.76 C 648.32 836.87 655.10 847.60 661.23 858.70 C 668.03 870.27 674.22 882.24 682.30 893.00 C 684.04 895.90 685.93 898.81 688.66 900.90 C 697.52 905.63 703.74 913.86 708.63 922.42 C 713.58 930.72 717.40 940.19 717.00 950.00 C 716.58 958.17 708.76 963.11 701.87 965.75 C 690.56 968.97 678.68 968.95 667.04 969.83 C 647.98 970.83 629.07 973.65 610.01 974.50 C 604.31 974.20 597.65 974.02 593.49 969.53 C 590.02 965.65 591.97 960.09 593.90 955.96 C 601.12 940.02 615.50 929.44 627.24 917.08 C 610.03 898.21 593.41 878.73 575.08 860.92 C 564.53 850.82 553.25 841.48 543.25 830.82 C 535.90 823.41 528.62 815.86 522.79 807.15 C 514.03 794.18 501.81 784.08 492.66 771.42 C 486.02 762.36 478.44 753.91 473.08 743.99 C 468.66 735.87 466.51 726.84 463.72 718.10 C 461.65 711.69 458.58 705.69 455.14 699.92 C 451.49 700.84 447.26 702.56 443.78 700.22 C 437.61 696.10 433.49 689.73 429.28 683.77 C 423.13 674.46 417.17 664.99 411.85 655.17 C 409.99 655.06 408.12 654.94 406.27 654.77 C 399.91 661.80 396.40 671.43 396.42 680.86 C 398.91 693.46 401.54 706.11 401.98 718.99 C 403.00 743.99 400.44 769.36 392.12 793.06 C 385.06 813.32 381.15 834.55 379.52 855.92 C 378.86 864.61 379.78 873.38 378.43 882.03 C 377.82 885.03 379.39 887.80 380.58 890.43 C 383.95 897.30 388.29 904.13 388.53 912.02 C 388.70 921.41 385.16 930.89 378.73 937.76 C 373.09 943.57 364.61 944.65 356.94 945.20 C 349.51 945.83 341.77 944.58 335.42 940.52 C 329.41 936.63 322.12 936.16 315.31 934.70 C 296.04 931.14 277.22 922.80 263.30 908.74 C 257.97 903.54 253.38 896.71 253.59 888.98 C 253.98 880.78 262.08 875.91 269.08 873.70 C 287.99 870.37 307.27 879.10 326.03 873.62 C 323.44 866.02 323.65 857.92 323.65 850.00 C 323.86 835.29 326.42 820.75 327.53 806.11 C 328.29 795.73 328.26 785.32 328.80 774.93 C 329.58 758.94 330.14 742.92 329.83 726.91 C 329.53 716.53 328.37 706.21 327.50 695.87 C 327.17 688.39 323.94 681.42 323.63 673.93 C 322.69 657.84 325.33 640.91 334.22 627.18 C 340.07 618.09 347.37 610.01 355.33 602.73 C 356.39 589.27 362.74 575.76 374.21 568.12 C 365.62 548.84 365.94 526.82 369.60 506.40 C 370.28 502.23 368.19 498.27 368.14 494.12 C 367.87 486.44 368.94 478.80 369.61 471.17 C 370.22 463.71 372.66 456.50 372.77 448.99 C 372.85 444.30 372.29 439.57 370.79 435.12 C 369.14 430.20 365.83 426.08 363.95 421.27 C 361.29 414.53 360.77 407.17 360.82 399.99 C 360.87 390.48 360.83 380.96 359.87 371.49 C 355.83 373.60 351.63 375.67 347.02 376.07 C 343.15 376.50 339.39 374.04 335.57 375.34 C 318.21 380.65 302.13 390.24 283.91 392.57 C 277.63 392.71 271.65 389.85 266.55 386.42 C 257.13 379.62 253.78 367.14 254.78 356.02 C 255.69 345.18 256.66 334.06 261.22 324.03 C 259.16 321.67 257.17 319.24 255.15 316.85 C 258.07 312.88 262.45 310.37 265.66 306.69 C 272.21 297.92 275.53 287.12 282.77 278.83 C 288.93 271.80 296.77 266.56 304.63 261.62 C 315.66 254.80 322.70 243.58 330.77 233.77 C 339.34 222.73 349.94 213.39 361.44 205.51 C 369.91 199.35 379.47 194.77 389.43 191.57 C 393.51 190.22 397.82 189.85 402.08 189.59 C 398.50 182.27 395.68 174.61 392.90 166.96 C 391.38 162.83 390.41 158.46 390.47 154.04 C 390.50 143.69 390.60 133.14 393.64 123.15 C 392.66 123.50 390.69 124.22 389.71 124.57 C 385.34 115.37 383.00 105.16 383.09 94.98 C 383.05 89.80 384.90 84.85 387.72 80.58 C 385.81 79.91 383.53 79.75 382.16 78.08 C 384.43 71.79 390.92 68.78 395.09 63.99 C 399.23 58.19 402.21 51.47 407.57 46.61 C 411.78 42.93 416.71 39.94 422.16 38.50 C 427.67 37.25 431.91 33.20 437.13 31.20 M 401.06 124.04 C 399.49 135.56 402.91 147.34 408.76 157.25 C 409.89 159.41 412.07 160.59 414.07 161.81 C 410.84 164.48 407.08 161.58 404.88 159.03 C 398.98 152.06 397.14 142.74 396.44 133.87 C 395.96 142.25 395.24 150.72 396.30 159.07 C 399.00 169.60 403.52 179.55 407.20 189.75 C 417.81 190.60 428.40 191.75 438.99 192.95 C 446.96 193.85 455.05 194.39 462.85 196.36 C 466.96 197.25 470.63 200.12 474.99 199.57 C 482.60 199.20 490.31 199.35 497.76 201.13 C 491.78 192.66 487.31 181.84 491.35 171.55 C 489.77 171.98 488.17 172.27 486.67 172.88 C 485.29 174.21 484.50 176.04 483.07 177.34 C 474.02 176.43 465.22 172.73 456.00 173.71 C 452.14 174.24 449.34 177.24 445.92 178.82 C 444.64 177.95 444.43 176.35 443.96 175.01 C 442.62 170.10 440.48 165.48 438.75 160.72 C 437.96 163.19 436.41 167.02 433.12 165.16 C 425.93 160.94 422.05 152.90 418.79 145.55 C 416.92 137.13 415.17 128.20 409.59 121.32 C 407.01 118.02 401.54 120.11 401.06 124.04 M 372.03 205.06 C 358.07 214.35 344.71 224.99 334.53 238.45 C 326.52 248.31 319.04 259.13 307.98 265.84 C 298.06 271.91 287.81 278.60 281.94 288.98 C 276.07 299.19 271.62 311.31 261.12 317.78 C 273.91 330.21 286.22 343.24 300.48 354.05 C 307.28 349.26 315.37 346.99 323.03 344.00 C 328.97 341.65 335.64 342.21 341.43 339.43 C 349.61 335.92 357.69 332.06 365.12 327.12 C 371.99 322.51 379.52 318.98 386.43 314.43 C 399.03 306.76 410.09 295.71 424.96 292.50 C 427.50 291.75 430.09 292.25 432.24 293.77 C 427.86 295.58 423.22 296.67 418.96 298.78 C 412.35 301.85 406.81 306.67 400.97 310.94 C 391.96 317.60 382.24 323.21 372.33 328.41 C 363.92 333.54 355.13 338.03 345.94 341.58 C 358.93 342.59 371.96 342.64 384.98 343.09 C 394.03 343.00 403.30 343.00 411.99 340.15 C 415.64 339.03 418.75 336.66 422.42 335.56 C 423.43 339.03 419.55 340.63 417.22 342.21 C 405.24 349.57 390.60 348.51 377.13 348.32 C 386.49 355.01 394.41 363.50 401.66 372.36 C 410.96 383.65 420.96 394.41 432.36 403.61 C 435.76 406.71 440.26 408.98 442.08 413.46 C 439.14 413.03 436.55 411.57 434.25 409.78 C 426.88 404.21 419.32 398.79 412.88 392.13 C 401.92 381.02 393.37 367.77 381.94 357.10 C 378.44 353.93 374.99 350.48 370.65 348.49 C 365.93 347.70 361.10 348.02 356.33 347.74 C 362.13 358.94 365.31 371.41 365.76 384.01 C 366.69 394.88 365.21 406.02 368.21 416.65 C 369.78 422.59 373.91 427.39 375.86 433.18 C 378.77 441.42 378.89 450.44 377.37 458.98 C 375.05 470.19 374.41 481.65 373.09 493.00 C 372.37 497.38 373.53 502.16 376.65 505.40 C 380.28 508.61 385.55 508.11 390.02 507.57 C 402.00 505.38 413.85 502.41 425.96 500.96 C 445.03 498.37 464.58 499.55 483.17 504.56 C 498.04 508.95 512.63 514.49 527.95 517.13 C 532.87 517.96 537.98 519.13 542.90 517.65 C 548.78 516.24 555.11 513.90 558.23 508.32 C 561.35 502.58 562.29 495.79 560.76 489.43 C 558.66 478.87 555.51 468.37 549.96 459.08 C 544.44 449.87 537.02 442.03 530.00 433.97 C 519.73 422.10 509.19 410.25 501.22 396.65 C 500.56 395.15 498.64 391.90 501.19 391.35 C 503.22 392.85 504.52 395.06 506.00 397.06 C 513.40 407.47 521.85 417.07 530.37 426.57 C 540.02 437.57 551.00 447.79 557.68 461.02 C 557.28 455.90 557.19 450.65 558.81 445.72 C 560.57 440.41 563.10 435.40 565.09 430.17 C 568.22 422.47 569.98 414.21 570.32 405.91 C 570.47 390.58 568.97 375.31 568.62 359.99 C 568.36 348.96 566.32 338.03 566.70 326.98 C 566.93 321.62 566.40 315.97 568.75 310.98 C 570.04 316.55 569.86 322.31 570.36 327.98 C 570.89 339.19 572.96 350.26 573.50 361.47 C 573.87 350.97 574.93 340.33 578.63 330.43 C 580.82 324.27 584.09 318.61 587.22 312.91 C 588.04 318.20 585.20 322.98 583.59 327.83 C 579.09 339.33 578.05 351.78 577.78 364.00 C 588.51 363.42 595.67 372.40 603.81 377.82 C 615.80 370.08 625.54 359.26 633.25 347.33 C 635.09 344.16 637.29 340.77 637.10 336.96 C 636.35 334.61 634.31 333.02 632.69 331.28 C 625.88 324.76 619.29 318.02 612.55 311.43 C 602.94 302.02 591.48 294.57 582.77 284.24 C 578.22 279.08 577.74 271.78 573.68 266.34 C 565.71 255.24 553.75 248.16 543.28 239.75 C 537.08 234.93 532.42 228.53 526.54 223.36 C 518.53 216.20 509.47 209.87 499.15 206.57 C 492.92 204.57 486.33 204.19 479.83 204.06 C 490.55 210.54 497.33 221.26 505.79 230.15 C 512.26 237.35 519.88 244.10 523.44 253.34 C 519.94 252.69 518.00 249.59 515.79 247.16 C 510.44 240.91 504.13 235.58 498.59 229.50 C 495.19 225.84 492.12 221.89 488.72 218.24 C 482.23 211.32 474.03 206.11 465.19 202.76 C 458.75 200.32 451.80 199.94 445.03 199.11 C 432.69 197.90 420.39 196.19 408.03 195.16 C 395.24 193.78 382.65 198.17 372.03 205.06 M 264.23 327.20 C 260.85 335.01 260.91 343.64 259.86 351.95 C 258.84 362.01 260.06 373.81 268.26 380.78 C 273.60 384.72 280.46 388.04 287.24 386.20 C 303.73 382.27 318.47 373.16 334.91 369.09 C 338.72 367.77 342.32 369.79 345.97 370.56 C 350.67 370.77 354.75 368.12 358.98 366.52 C 357.39 360.07 355.59 353.65 352.90 347.57 C 342.79 346.51 332.29 345.85 322.58 349.48 C 313.93 351.92 305.48 355.64 298.88 361.88 C 296.62 363.97 295.02 366.64 292.86 368.81 L 291.73 368.14 C 291.07 363.64 294.98 360.28 297.62 357.17 C 284.97 349.06 274.48 338.07 264.23 327.20 M 615.58 376.89 C 619.22 397.70 625.05 418.08 628.05 439.01 C 630.84 459.18 635.70 479.70 631.91 500.07 C 630.40 506.26 626.14 511.23 622.20 516.05 C 618.29 520.88 614.86 526.09 611.94 531.57 C 616.26 531.65 620.05 533.84 623.49 536.26 C 624.59 534.46 625.45 531.61 628.06 531.71 C 631.36 531.89 633.20 535.07 635.10 537.35 C 636.33 536.99 637.42 535.87 638.79 536.22 C 644.75 537.73 649.11 542.36 652.84 546.98 C 652.83 544.40 652.84 541.74 651.78 539.33 C 648.48 530.56 642.45 522.28 643.10 512.50 C 645.50 512.81 645.69 515.60 646.43 517.40 C 648.89 525.74 654.41 532.76 657.07 541.02 C 658.26 544.33 657.03 548.12 654.54 550.48 C 652.66 551.53 650.59 550.14 649.36 548.72 C 646.29 545.36 642.80 542.33 638.58 540.51 C 638.20 547.20 640.27 553.63 641.47 560.14 C 643.84 561.07 646.12 562.94 648.82 562.41 C 655.32 561.76 661.31 559.02 667.52 557.20 C 669.25 551.29 669.30 545.08 669.33 538.99 C 669.35 532.35 668.45 525.55 665.43 519.57 C 662.33 513.41 659.22 507.08 658.34 500.16 C 657.20 493.81 658.74 487.43 658.55 481.06 C 658.30 467.95 659.68 454.86 658.94 441.76 C 657.89 424.18 657.35 406.57 657.16 388.96 C 657.07 382.31 656.64 375.40 653.62 369.35 C 649.83 361.69 643.63 355.63 639.07 348.46 C 632.88 359.13 624.90 368.81 615.58 376.89 M 395.02 511.77 C 387.62 513.50 379.07 513.92 372.95 508.64 C 371.69 524.17 371.10 540.04 374.90 555.28 C 376.88 563.09 381.01 570.10 385.05 576.98 C 389.58 584.66 393.79 592.55 397.12 600.83 C 401.39 611.14 403.63 622.12 407.46 632.59 C 415.55 654.19 427.85 673.95 441.29 692.58 C 442.82 694.41 444.28 697.10 446.96 697.20 C 451.43 696.70 455.36 694.28 459.37 692.41 C 469.00 687.41 479.42 684.08 490.00 681.78 C 506.56 678.29 524.40 678.22 540.33 684.44 C 537.26 677.00 533.65 669.71 528.71 663.32 C 520.01 652.59 513.79 640.22 506.29 628.68 C 500.66 619.59 496.53 609.69 491.94 600.06 C 488.19 591.56 484.11 583.11 478.22 575.85 C 474.89 571.31 470.54 567.61 467.37 562.95 C 467.73 559.97 470.56 561.96 471.89 563.05 C 479.51 569.87 486.70 577.48 491.41 586.66 C 495.60 594.83 499.41 603.19 503.50 611.41 C 509.13 623.71 517.18 634.64 523.49 646.57 C 524.65 635.45 519.21 625.38 517.23 614.74 C 513.91 591.91 520.05 569.04 517.89 546.16 C 519.02 546.98 520.66 547.54 520.96 549.12 C 524.64 562.17 522.95 575.77 522.10 589.06 C 524.56 584.70 527.56 580.64 531.32 577.31 C 538.93 570.31 544.56 561.15 546.84 551.02 C 548.98 541.13 549.36 530.95 549.50 520.86 C 541.76 524.25 533.19 523.21 525.18 521.47 C 504.38 518.03 485.07 508.48 464.05 506.09 C 440.90 502.74 417.64 507.05 395.02 511.77 M 613.78 536.01 C 614.28 542.61 616.22 548.99 617.86 555.39 C 618.49 558.67 622.58 558.30 625.05 559.42 C 623.79 553.04 623.18 546.56 623.29 540.07 C 620.24 538.45 617.07 537.04 613.78 536.01 M 628.55 536.47 C 626.96 545.65 629.63 554.76 629.40 563.94 C 632.12 563.00 634.83 562.04 637.52 561.01 C 635.86 555.00 634.52 548.86 634.19 542.62 C 632.37 540.50 630.52 538.43 628.55 536.47 M 608.20 556.26 C 609.83 556.40 611.48 556.53 613.13 556.65 C 611.68 551.09 610.72 545.41 609.03 539.92 C 607.37 545.20 608.23 550.83 608.20 556.26 M 366.81 584.79 C 364.26 589.30 363.08 594.40 361.60 599.33 C 373.43 607.88 380.67 620.98 390.69 631.35 C 397.33 638.10 402.79 645.98 410.02 652.15 C 408.47 648.37 406.67 644.72 405.07 640.97 C 399.00 627.30 396.53 612.34 390.32 598.73 C 386.39 589.60 381.22 581.10 376.42 572.42 C 373.02 576.38 369.34 580.18 366.81 584.79 M 332.36 643.61 C 327.95 658.65 328.16 674.91 332.62 689.92 C 334.97 691.70 338.05 692.02 340.87 692.59 C 351.21 694.02 361.75 693.68 372.08 692.32 C 378.38 691.36 384.85 690.32 390.50 687.19 C 390.44 674.65 393.73 660.78 403.78 652.44 C 401.46 650.35 399.19 648.22 397.05 645.96 C 390.43 638.91 383.16 632.46 377.20 624.81 C 371.41 617.99 366.23 610.47 359.06 604.98 C 348.54 616.52 336.99 628.27 332.36 643.61 M 458.66 698.32 C 461.53 702.21 464.21 706.27 466.20 710.70 C 470.35 719.13 472.11 728.49 476.14 736.98 C 479.81 745.39 485.67 752.53 491.16 759.80 C 495.66 765.59 499.77 771.70 504.63 777.21 C 509.74 767.31 517.69 759.15 526.57 752.55 C 536.45 745.49 548.25 740.21 560.62 740.61 C 553.75 732.84 547.45 724.43 542.89 715.09 C 539.18 706.05 535.42 696.92 533.71 687.25 C 508.39 681.17 481.68 687.10 458.66 698.32 M 371.10 697.49 C 358.32 698.80 345.00 698.83 332.78 694.36 C 332.34 701.95 334.34 709.38 334.76 716.94 C 336.92 742.27 334.56 767.68 333.89 793.02 C 333.40 816.43 327.13 839.53 329.32 863.03 C 329.92 868.71 330.74 874.37 331.03 880.09 C 331.35 885.60 333.41 891.59 338.37 894.59 C 341.43 896.42 345.53 897.84 348.86 895.87 C 354.36 892.51 358.72 887.55 364.35 884.38 C 367.05 882.87 370.17 882.49 373.16 881.94 C 374.39 873.00 373.39 863.96 374.08 854.99 C 374.98 842.77 376.95 830.64 379.40 818.64 C 383.12 800.76 390.88 783.97 393.93 765.94 C 397.71 741.49 398.67 716.25 393.17 691.98 C 385.96 694.35 378.71 696.82 371.10 697.49 M 541.45 749.46 C 527.53 756.22 514.53 766.55 508.14 781.01 C 511.03 784.08 513.94 787.14 516.73 790.32 C 525.55 799.93 531.95 811.48 541.17 820.75 C 550.75 831.52 561.35 841.29 572.09 850.89 C 582.93 860.73 593.08 871.30 602.83 882.21 C 611.90 892.44 621.60 902.14 629.75 913.16 C 635.04 910.95 640.14 914.42 645.39 915.04 C 647.08 910.18 647.29 904.07 651.84 900.84 C 656.73 897.71 662.73 899.59 667.97 900.64 C 672.91 901.79 677.90 900.31 682.80 899.71 C 677.54 893.35 672.45 886.81 668.23 879.70 C 655.57 858.60 643.26 837.29 630.90 816.02 C 616.22 790.86 593.46 772.12 572.41 752.55 C 569.57 750.05 567.28 746.87 564.02 744.91 C 556.26 743.60 548.43 746.25 541.45 749.46 M 270.09 878.10 C 264.22 879.08 258.34 883.60 258.29 889.98 C 258.59 896.54 262.12 902.75 266.98 907.08 C 279.26 918.27 294.85 925.34 310.93 929.10 C 317.51 930.68 324.30 931.37 330.81 933.29 C 335.86 934.75 339.80 938.88 345.15 939.50 C 354.39 941.08 365.02 941.75 373.04 936.06 C 379.64 930.06 382.94 920.87 382.94 912.06 C 382.98 902.92 377.78 895.03 373.77 887.19 C 363.05 887.75 356.94 898.31 346.95 900.82 C 340.18 902.02 332.72 898.73 329.34 892.67 C 326.39 887.96 326.34 882.23 326.40 876.87 C 308.09 883.36 288.74 874.58 270.09 878.10 M 654.33 906.26 C 651.40 910.10 652.15 915.97 648.25 919.19 C 643.88 921.98 638.77 919.04 634.31 917.95 C 630.90 921.65 627.79 925.63 624.24 929.20 C 616.74 936.37 608.78 943.34 603.36 952.32 C 601.12 956.22 598.50 960.22 598.14 964.83 C 599.79 967.45 603.25 967.83 606.05 968.24 C 620.80 969.39 635.42 966.51 650.09 965.51 C 662.40 964.37 674.78 964.40 687.08 963.19 C 694.32 962.34 702.06 961.58 708.16 957.19 C 711.71 954.71 712.56 949.96 711.92 945.94 C 709.73 930.93 701.63 916.58 689.10 907.86 C 684.90 904.80 679.59 906.50 674.94 907.12 C 669.48 908.12 664.31 905.59 658.95 905.16 C 657.37 905.06 655.52 905.04 654.33 906.26 Z" />
        <path fill="#020202" opacity="1.00"
            d=" M 399.73 553.90 C 400.74 557.47 401.04 561.20 402.03 564.78 C 404.19 573.55 408.29 581.66 412.36 589.66 C 417.38 599.53 421.96 609.62 425.89 619.97 C 429.15 628.81 432.36 637.66 436.14 646.29 C 434.79 645.52 433.24 644.98 432.43 643.56 C 429.50 639.17 427.76 634.13 425.75 629.28 C 420.85 616.83 415.50 604.56 409.42 592.65 C 404.13 582.41 399.23 571.61 398.26 559.99 C 397.97 557.83 398.91 555.83 399.73 553.90 Z" />
    </g>
    <g id="#f0b58bff">
        <path fill="#f0b58b" opacity="1.00"
            d=" M 401.06 124.04 C 401.54 120.11 407.01 118.02 409.59 121.32 C 415.17 128.20 416.92 137.13 418.79 145.55 C 422.05 152.90 425.93 160.94 433.12 165.16 C 436.41 167.02 437.96 163.19 438.75 160.72 C 440.48 165.48 442.62 170.10 443.96 175.01 C 444.43 176.35 444.64 177.95 445.92 178.82 C 449.34 177.24 452.14 174.24 456.00 173.71 C 465.22 172.73 474.02 176.43 483.07 177.34 C 484.50 176.04 485.29 174.21 486.67 172.88 C 488.17 172.27 489.77 171.98 491.35 171.55 C 487.31 181.84 491.78 192.66 497.76 201.13 C 490.31 199.35 482.60 199.20 474.99 199.57 C 470.63 200.12 466.96 197.25 462.85 196.36 C 455.05 194.39 446.96 193.85 438.99 192.95 C 428.40 191.75 417.81 190.60 407.20 189.75 C 403.52 179.55 399.00 169.60 396.30 159.07 C 395.24 150.72 395.96 142.25 396.44 133.87 C 397.14 142.74 398.98 152.06 404.88 159.03 C 407.08 161.58 410.84 164.48 414.07 161.81 C 412.07 160.59 409.89 159.41 408.76 157.25 C 402.91 147.34 399.49 135.56 401.06 124.04 Z" />
        <path fill="#f0b58b" opacity="1.00"
            d=" M 264.23 327.20 C 274.48 338.07 284.97 349.06 297.62 357.17 C 294.98 360.28 291.07 363.64 291.73 368.14 L 292.86 368.81 C 295.02 366.64 296.62 363.97 298.88 361.88 C 305.48 355.64 313.93 351.92 322.58 349.48 C 332.29 345.85 342.79 346.51 352.90 347.57 C 355.59 353.65 357.39 360.07 358.98 366.52 C 354.75 368.12 350.67 370.77 345.97 370.56 C 342.32 369.79 338.72 367.77 334.91 369.09 C 318.47 373.16 303.73 382.27 287.24 386.20 C 280.46 388.04 273.60 384.72 268.26 380.78 C 260.06 373.81 258.84 362.01 259.86 351.95 C 260.91 343.64 260.85 335.01 264.23 327.20 Z" />
        <path fill="#f0b58b" opacity="1.00"
            d=" M 615.58 376.89 C 624.90 368.81 632.88 359.13 639.07 348.46 C 643.63 355.63 649.83 361.69 653.62 369.35 C 656.64 375.40 657.07 382.31 657.16 388.96 C 657.35 406.57 657.89 424.18 658.94 441.76 C 659.68 454.86 658.30 467.95 658.55 481.06 C 658.74 487.43 657.20 493.81 658.34 500.16 C 659.22 507.08 662.33 513.41 665.43 519.57 C 668.45 525.55 669.35 532.35 669.33 538.99 C 669.30 545.08 669.25 551.29 667.52 557.20 C 661.31 559.02 655.32 561.76 648.82 562.41 C 646.12 562.94 643.84 561.07 641.47 560.14 C 640.27 553.63 638.20 547.20 638.58 540.51 C 642.80 542.33 646.29 545.36 649.36 548.72 C 650.59 550.14 652.66 551.53 654.54 550.48 C 657.03 548.12 658.26 544.33 657.07 541.02 C 654.41 532.76 648.89 525.74 646.43 517.40 C 645.69 515.60 645.50 512.81 643.10 512.50 C 642.45 522.28 648.48 530.56 651.78 539.33 C 652.84 541.74 652.83 544.40 652.84 546.98 C 649.11 542.36 644.75 537.73 638.79 536.22 C 637.42 535.87 636.33 536.99 635.10 537.35 C 633.20 535.07 631.36 531.89 628.06 531.71 C 625.45 531.61 624.59 534.46 623.49 536.26 C 620.05 533.84 616.26 531.65 611.94 531.57 C 614.86 526.09 618.29 520.88 622.20 516.05 C 626.14 511.23 630.40 506.26 631.91 500.07 C 635.70 479.70 630.84 459.18 628.05 439.01 C 625.05 418.08 619.22 397.70 615.58 376.89 Z" />
        <path fill="#f0b58b" opacity="1.00"
            d=" M 613.78 536.01 C 617.07 537.04 620.24 538.45 623.29 540.07 C 623.18 546.56 623.79 553.04 625.05 559.42 C 622.58 558.30 618.49 558.67 617.86 555.39 C 616.22 548.99 614.28 542.61 613.78 536.01 Z" />
        <path fill="#f0b58b" opacity="1.00"
            d=" M 628.55 536.47 C 630.52 538.43 632.37 540.50 634.19 542.62 C 634.52 548.86 635.86 555.00 637.52 561.01 C 634.83 562.04 632.12 563.00 629.40 563.94 C 629.63 554.76 626.96 545.65 628.55 536.47 Z" />
        <path fill="#f0b58b" opacity="1.00"
            d=" M 608.20 556.26 C 608.23 550.83 607.37 545.20 609.03 539.92 C 610.72 545.41 611.68 551.09 613.13 556.65 C 611.48 556.53 609.83 556.40 608.20 556.26 Z" />
        <path fill="#f0b58b" opacity="1.00"
            d=" M 332.36 643.61 C 336.99 628.27 348.54 616.52 359.06 604.98 C 366.23 610.47 371.41 617.99 377.20 624.81 C 383.16 632.46 390.43 638.91 397.05 645.96 C 399.19 648.22 401.46 650.35 403.78 652.44 C 393.73 660.78 390.44 674.65 390.50 687.19 C 384.85 690.32 378.38 691.36 372.08 692.32 C 361.75 693.68 351.21 694.02 340.87 692.59 C 338.05 692.02 334.97 691.70 332.62 689.92 C 328.16 674.91 327.95 658.65 332.36 643.61 Z" />
        <path fill="#f0b58b" opacity="1.00"
            d=" M 458.66 698.32 C 481.68 687.10 508.39 681.17 533.71 687.25 C 535.42 696.92 539.18 706.05 542.89 715.09 C 547.45 724.43 553.75 732.84 560.62 740.61 C 548.25 740.21 536.45 745.49 526.57 752.55 C 517.69 759.15 509.74 767.31 504.63 777.21 C 499.77 771.70 495.66 765.59 491.16 759.80 C 485.67 752.53 479.81 745.39 476.14 736.98 C 472.11 728.49 470.35 719.13 466.20 710.70 C 464.21 706.27 461.53 702.21 458.66 698.32 Z" />
    </g>
    <g id="#f11b27ff">
        <path fill="var(--shirt-color, grey)" opacity="1.00"
            d=" M 372.03 205.06 C 382.65 198.17 395.24 193.78 408.03 195.16 C 420.39 196.19 432.69 197.90 445.03 199.11 C 451.80 199.94 458.75 200.32 465.19 202.76 C 474.03 206.11 482.23 211.32 488.72 218.24 C 492.12 221.89 495.19 225.84 498.59 229.50 C 504.13 235.58 510.44 240.91 515.79 247.16 C 518.00 249.59 519.94 252.69 523.44 253.34 C 519.88 244.10 512.26 237.35 505.79 230.15 C 497.33 221.26 490.55 210.54 479.83 204.06 C 486.33 204.19 492.92 204.57 499.15 206.57 C 509.47 209.87 518.53 216.20 526.54 223.36 C 532.42 228.53 537.08 234.93 543.28 239.75 C 553.75 248.16 565.71 255.24 573.68 266.34 C 577.74 271.78 578.22 279.08 582.77 284.24 C 591.48 294.57 602.94 302.02 612.55 311.43 C 619.29 318.02 625.88 324.76 632.69 331.28 C 634.31 333.02 636.35 334.61 637.10 336.96 C 637.29 340.77 635.09 344.16 633.25 347.33 C 625.54 359.26 615.80 370.08 603.81 377.82 C 595.67 372.40 588.51 363.42 577.78 364.00 C 578.05 351.78 579.09 339.33 583.59 327.83 C 585.20 322.98 588.04 318.20 587.22 312.91 C 584.09 318.61 580.82 324.27 578.63 330.43 C 574.93 340.33 573.87 350.97 573.50 361.47 C 572.96 350.26 570.89 339.19 570.36 327.98 C 569.86 322.31 570.04 316.55 568.75 310.98 C 566.40 315.97 566.93 321.62 566.70 326.98 C 566.32 338.03 568.36 348.96 568.62 359.99 C 568.97 375.31 570.47 390.58 570.32 405.91 C 569.98 414.21 568.22 422.47 565.09 430.17 C 563.10 435.40 560.57 440.41 558.81 445.72 C 557.19 450.65 557.28 455.90 557.68 461.02 C 551.00 447.79 540.02 437.57 530.37 426.57 C 521.85 417.07 513.40 407.47 506.00 397.06 C 504.52 395.06 503.22 392.85 501.19 391.35 C 498.64 391.90 500.56 395.15 501.22 396.65 C 509.19 410.25 519.73 422.10 530.00 433.97 C 537.02 442.03 544.44 449.87 549.96 459.08 C 555.51 468.37 558.66 478.87 560.76 489.43 C 562.29 495.79 561.35 502.58 558.23 508.32 C 555.11 513.90 548.78 516.24 542.90 517.65 C 537.98 519.13 532.87 517.96 527.95 517.13 C 512.63 514.49 498.04 508.95 483.17 504.56 C 464.58 499.55 445.03 498.37 425.96 500.96 C 413.85 502.41 402.00 505.38 390.02 507.57 C 385.55 508.11 380.28 508.61 376.65 505.40 C 373.53 502.16 372.37 497.38 373.09 493.00 C 374.41 481.65 375.05 470.19 377.37 458.98 C 378.89 450.44 378.77 441.42 375.86 433.18 C 373.91 427.39 369.78 422.59 368.21 416.65 C 365.21 406.02 366.69 394.88 365.76 384.01 C 365.31 371.41 362.13 358.94 356.33 347.74 C 361.10 348.02 365.93 347.70 370.65 348.49 C 374.99 350.48 378.44 353.93 381.94 357.10 C 393.37 367.77 401.92 381.02 412.88 392.13 C 419.32 398.79 426.88 404.21 434.25 409.78 C 436.55 411.57 439.14 413.03 442.08 413.46 C 440.26 408.98 435.76 406.71 432.36 403.61 C 420.96 394.41 410.96 383.65 401.66 372.36 C 394.41 363.50 386.49 355.01 377.13 348.32 C 390.60 348.51 405.24 349.57 417.22 342.21 C 419.55 340.63 423.43 339.03 422.42 335.56 C 418.75 336.66 415.64 339.03 411.99 340.15 C 403.30 343.00 394.03 343.00 384.98 343.09 C 371.96 342.64 358.93 342.59 345.94 341.58 C 355.13 338.03 363.92 333.54 372.33 328.41 C 382.24 323.21 391.96 317.60 400.97 310.94 C 406.81 306.67 412.35 301.85 418.96 298.78 C 423.22 296.67 427.86 295.58 432.24 293.77 C 430.09 292.25 427.50 291.75 424.96 292.50 C 410.09 295.71 399.03 306.76 386.43 314.43 C 379.52 318.98 371.99 322.51 365.12 327.12 C 357.69 332.06 349.61 335.92 341.43 339.43 C 335.64 342.21 328.97 341.65 323.03 344.00 C 315.37 346.99 307.28 349.26 300.48 354.05 C 286.22 343.24 273.91 330.21 261.12 317.78 C 271.62 311.31 276.07 299.19 281.94 288.98 C 287.81 278.60 298.06 271.91 307.98 265.84 C 319.04 259.13 326.52 248.31 334.53 238.45 C 344.71 224.99 358.07 214.35 372.03 205.06 Z" />
    </g>
    <g id="#2b3dcdff">
        <path fill="var(--pants-color, grey)" opacity="1.00"
            d=" M 395.02 511.77 C 417.64 507.05 440.90 502.74 464.05 506.09 C 485.07 508.48 504.38 518.03 525.18 521.47 C 533.19 523.21 541.76 524.25 549.50 520.86 C 549.36 530.95 548.98 541.13 546.84 551.02 C 544.56 561.15 538.93 570.31 531.32 577.31 C 527.56 580.64 524.56 584.70 522.10 589.06 C 522.95 575.77 524.64 562.17 520.96 549.12 C 520.66 547.54 519.02 546.98 517.89 546.16 C 520.05 569.04 513.91 591.91 517.23 614.74 C 519.21 625.38 524.65 635.45 523.49 646.57 C 517.18 634.64 509.13 623.71 503.50 611.41 C 499.41 603.19 495.60 594.83 491.41 586.66 C 486.70 577.48 479.51 569.87 471.89 563.05 C 470.56 561.96 467.73 559.97 467.37 562.95 C 470.54 567.61 474.89 571.31 478.22 575.85 C 484.11 583.11 488.19 591.56 491.94 600.06 C 496.53 609.69 500.66 619.59 506.29 628.68 C 513.79 640.22 520.01 652.59 528.71 663.32 C 533.65 669.71 537.26 677.00 540.33 684.44 C 524.40 678.22 506.56 678.29 490.00 681.78 C 479.42 684.08 469.00 687.41 459.37 692.41 C 455.36 694.28 451.43 696.70 446.96 697.20 C 444.28 697.10 442.82 694.41 441.29 692.58 C 427.85 673.95 415.55 654.19 407.46 632.59 C 403.63 622.12 401.39 611.14 397.12 600.83 C 393.79 592.55 389.58 584.66 385.05 576.98 C 381.01 570.10 376.88 563.09 374.90 555.28 C 371.10 540.04 371.69 524.17 372.95 508.64 C 379.07 513.92 387.62 513.50 395.02 511.77 M 399.73 553.90 C 398.91 555.83 397.97 557.83 398.26 559.99 C 399.23 571.61 404.13 582.41 409.42 592.65 C 415.50 604.56 420.85 616.83 425.75 629.28 C 427.76 634.13 429.50 639.17 432.43 643.56 C 433.24 644.98 434.79 645.52 436.14 646.29 C 432.36 637.66 429.15 628.81 425.89 619.97 C 421.96 609.62 417.38 599.53 412.36 589.66 C 408.29 581.66 404.19 573.55 402.03 564.78 C 401.04 561.20 400.74 557.47 399.73 553.90 Z" />
        <path fill="var(--pants-color, grey)" opacity="1.00"
            d=" M 366.81 584.79 C 369.34 580.18 373.02 576.38 376.42 572.42 C 381.22 581.10 386.39 589.60 390.32 598.73 C 396.53 612.34 399.00 627.30 405.07 640.97 C 406.67 644.72 408.47 648.37 410.02 652.15 C 402.79 645.98 397.33 638.10 390.69 631.35 C 380.67 620.98 373.43 607.88 361.60 599.33 C 363.08 594.40 364.26 589.30 366.81 584.79 Z" />
        <path fill="var(--socks-color, grey)" opacity="1.00"
            d=" M 371.10 697.49 C 378.71 696.82 385.96 694.35 393.17 691.98 C 398.67 716.25 397.71 741.49 393.93 765.94 C 390.88 783.97 383.12 800.76 379.40 818.64 C 376.95 830.64 374.98 842.77 374.08 854.99 C 373.39 863.96 374.39 873.00 373.16 881.94 C 370.17 882.49 367.05 882.87 364.35 884.38 C 358.72 887.55 354.36 892.51 348.86 895.87 C 345.53 897.84 341.43 896.42 338.37 894.59 C 333.41 891.59 331.35 885.60 331.03 880.09 C 330.74 874.37 329.92 868.71 329.32 863.03 C 327.13 839.53 333.40 816.43 333.89 793.02 C 334.56 767.68 336.92 742.27 334.76 716.94 C 334.34 709.38 332.34 701.95 332.78 694.36 C 345.00 698.83 358.32 698.80 371.10 697.49 Z" />
        <path fill="var(--socks-color, grey)" opacity="1.00"
            d=" M 541.45 749.46 C 548.43 746.25 556.26 743.60 564.02 744.91 C 567.28 746.87 569.57 750.05 572.41 752.55 C 593.46 772.12 616.22 790.86 630.90 816.02 C 643.26 837.29 655.57 858.60 668.23 879.70 C 672.45 886.81 677.54 893.35 682.80 899.71 C 677.90 900.31 672.91 901.79 667.97 900.64 C 662.73 899.59 656.73 897.71 651.84 900.84 C 647.29 904.07 647.08 910.18 645.39 915.04 C 640.14 914.42 635.04 910.95 629.75 913.16 C 621.60 902.14 611.90 892.44 602.83 882.21 C 593.08 871.30 582.93 860.73 572.09 850.89 C 561.35 841.29 550.75 831.52 541.17 820.75 C 531.95 811.48 525.55 799.93 516.73 790.32 C 513.94 787.14 511.03 784.08 508.14 781.01 C 514.53 766.55 527.53 756.22 541.45 749.46 Z" />
    </g>
    <g id="#4d4d4dff">
        <path fill="#4d4d4d" opacity="1.00"
            d=" M 270.09 878.10 C 288.74 874.58 308.09 883.36 326.40 876.87 C 326.34 882.23 326.39 887.96 329.34 892.67 C 332.72 898.73 340.18 902.02 346.95 900.82 C 356.94 898.31 363.05 887.75 373.77 887.19 C 377.78 895.03 382.98 902.92 382.94 912.06 C 382.94 920.87 379.64 930.06 373.04 936.06 C 365.02 941.75 354.39 941.08 345.15 939.50 C 339.80 938.88 335.86 934.75 330.81 933.29 C 324.30 931.37 317.51 930.68 310.93 929.10 C 294.85 925.34 279.26 918.27 266.98 907.08 C 262.12 902.75 258.59 896.54 258.29 889.98 C 258.34 883.60 264.22 879.08 270.09 878.10 Z" />
        <path fill="#4d4d4d" opacity="1.00"
            d=" M 654.33 906.26 C 655.52 905.04 657.37 905.06 658.95 905.16 C 664.31 905.59 669.48 908.12 674.94 907.12 C 679.59 906.50 684.90 904.80 689.10 907.86 C 701.63 916.58 709.73 930.93 711.92 945.94 C 712.56 949.96 711.71 954.71 708.16 957.19 C 702.06 961.58 694.32 962.34 687.08 963.19 C 674.78 964.40 662.40 964.37 650.09 965.51 C 635.42 966.51 620.80 969.39 606.05 968.24 C 603.25 967.83 599.79 967.45 598.14 964.83 C 598.50 960.22 601.12 956.22 603.36 952.32 C 608.78 943.34 616.74 936.37 624.24 929.20 C 627.79 925.63 630.90 921.65 634.31 917.95 C 638.77 919.04 643.88 921.98 648.25 919.19 C 652.15 915.97 651.40 910.10 654.33 906.26 Z" />
    </g>
</svg>