<?xml version="1.0" encoding="UTF-8" ?>
<!DOCTYPE svg PUBLIC "-//W3C//DTD SVG 1.1//EN" "http://www.w3.org/Graphics/SVG/1.1/DTD/svg11.dtd">
<svg width="1000pt" height="1000pt" viewBox="0 0 1000 1000" version="1.1" xmlns="http://www.w3.org/2000/svg">
    <g id="#020202ff">
        <path fill="#020202" opacity="1.00"
            d=" M 318.13 287.87 C 317.74 284.14 318.31 279.29 322.46 277.96 C 323.61 281.88 326.04 285.30 329.55 287.42 C 339.95 294.27 352.22 298.65 360.56 308.31 C 364.02 309.17 367.43 310.45 370.25 312.71 C 378.76 319.32 385.56 328.02 390.30 337.68 C 391.72 340.66 393.45 343.61 393.98 346.93 C 394.30 348.51 392.62 349.39 391.34 348.75 C 389.19 347.91 387.21 346.72 385.18 345.65 C 386.31 348.67 389.91 351.98 388.11 355.30 C 385.37 355.70 382.77 354.28 380.17 353.67 C 385.60 362.40 387.86 372.80 387.10 383.02 C 399.42 379.62 412.26 377.73 425.07 378.45 C 431.51 378.72 437.87 379.79 444.24 380.78 C 449.13 376.35 455.88 375.12 461.97 373.16 C 478.82 367.99 496.47 365.88 514.06 365.76 C 538.68 365.31 563.44 368.74 586.87 376.40 C 598.02 380.19 609.21 384.39 619.06 390.96 C 625.02 394.87 629.91 400.13 635.68 404.28 C 640.90 408.12 647.87 408.88 652.58 413.50 C 656.30 417.03 657.52 422.19 658.78 426.97 C 661.34 437.42 666.90 446.74 671.93 456.14 C 673.68 459.84 671.22 463.66 668.03 465.53 C 676.87 478.00 680.48 493.95 678.62 509.07 C 677.57 519.53 674.29 529.61 672.94 540.03 C 670.18 558.28 671.05 576.85 668.51 595.13 C 668.17 597.85 667.31 601.20 664.04 601.53 C 664.45 606.48 664.64 611.44 664.94 616.39 C 679.20 620.45 692.84 626.73 705.46 634.49 C 721.01 644.56 735.00 656.85 748.01 670.00 C 766.40 687.97 781.32 709.03 795.72 730.22 C 801.84 739.66 808.22 748.92 814.78 758.06 C 830.05 760.35 843.81 768.14 856.58 776.46 C 865.27 782.54 874.38 788.60 880.61 797.38 C 884.85 803.84 888.93 811.05 888.88 819.01 C 888.54 827.33 885.10 836.15 877.79 840.73 C 870.75 845.40 861.90 844.33 853.92 843.85 C 840.10 843.06 827.35 836.62 816.21 828.78 C 807.04 822.11 798.65 814.06 792.78 804.28 C 790.57 800.28 788.36 796.06 788.11 791.41 C 788.21 789.61 787.08 787.75 785.09 787.96 C 776.05 786.37 768.10 781.25 760.24 776.77 C 748.33 769.95 736.99 762.22 726.03 753.99 C 701.11 735.85 677.57 715.92 654.27 695.77 C 649.49 691.80 644.48 688.11 639.20 684.84 C 632.12 680.31 623.70 678.72 616.40 674.63 C 604.90 668.50 593.18 660.59 587.70 648.27 C 580.55 633.94 582.13 617.50 579.93 602.07 C 578.45 602.39 576.97 602.65 575.49 602.85 C 574.88 594.82 570.95 587.62 566.21 581.29 C 558.66 596.50 550.88 611.86 539.82 624.88 C 534.66 631.00 529.27 636.97 523.33 642.35 C 521.59 644.38 518.96 642.91 516.90 642.29 C 521.78 645.42 526.49 648.96 532.04 650.85 C 542.97 654.69 554.49 656.95 564.97 662.05 C 569.83 664.29 574.18 667.44 578.57 670.48 C 584.77 667.91 591.68 669.72 597.44 672.59 C 605.28 676.73 611.18 683.59 616.76 690.32 C 620.10 694.73 623.42 699.26 625.79 704.28 C 628.52 712.24 627.07 721.42 622.37 728.36 C 617.95 734.93 611.42 739.73 604.71 743.74 C 594.43 749.61 583.26 753.84 573.34 760.35 C 563.99 766.59 555.66 774.32 545.65 779.55 C 538.25 783.42 530.33 786.83 521.91 787.48 C 516.08 787.91 509.70 785.72 506.49 780.60 C 502.31 773.94 502.32 765.31 505.08 758.12 C 508.78 748.35 516.20 740.68 523.31 733.28 C 529.87 726.35 537.49 720.58 545.18 714.98 C 535.78 710.96 526.58 705.77 516.23 704.70 C 506.17 703.65 496.03 704.55 485.95 703.81 C 465.71 703.29 445.33 698.47 427.77 688.20 C 421.54 684.68 415.03 681.42 407.95 680.06 C 398.48 678.20 388.23 677.16 380.22 671.28 C 367.98 680.72 356.53 691.23 343.43 699.52 C 327.65 710.06 309.40 715.85 291.82 722.57 C 288.90 728.99 284.95 734.95 282.71 741.69 C 278.70 753.29 277.47 766.50 268.87 775.95 C 264.87 780.83 257.55 782.56 251.91 779.59 C 247.26 787.72 240.28 794.21 232.92 799.86 C 229.06 802.64 224.38 805.73 219.39 804.48 C 215.10 803.02 214.70 797.86 214.26 794.05 C 211.14 798.53 207.35 803.25 201.87 804.77 C 197.84 805.63 194.75 801.99 193.13 798.78 C 191.26 795.07 192.73 790.89 194.09 787.28 C 189.67 790.54 184.59 793.24 179.06 793.84 C 175.33 794.34 171.06 791.94 170.52 788.02 C 170.05 784.33 171.64 780.81 173.18 777.56 C 167.49 782.52 156.98 781.43 154.22 773.80 C 148.36 775.00 141.68 773.88 137.13 769.82 C 134.61 767.56 134.95 763.96 135.84 761.03 C 128.28 761.14 120.29 759.53 114.26 754.73 C 110.81 752.10 109.66 747.16 111.26 743.19 C 112.37 740.73 114.96 739.42 117.38 738.58 C 122.40 736.97 127.75 736.82 132.99 736.79 C 145.65 736.92 158.32 735.27 170.60 732.23 C 162.46 728.92 153.22 728.24 145.89 723.06 C 142.05 718.72 143.25 711.27 148.67 708.84 C 159.99 703.02 173.21 704.71 185.47 703.33 C 193.39 702.09 201.59 700.05 207.95 694.88 C 214.18 690.36 220.34 683.98 228.74 684.76 C 235.40 677.93 241.37 670.46 246.71 662.56 C 253.11 653.26 260.87 644.12 271.80 640.13 C 271.49 633.24 275.35 626.45 281.91 623.96 C 280.70 621.42 279.60 618.77 279.49 615.93 C 278.62 603.30 283.05 591.22 285.16 578.95 C 286.35 572.62 285.18 566.19 283.56 560.06 C 281.07 550.61 279.17 541.01 276.16 531.71 C 271.56 516.64 269.69 500.38 273.32 484.90 C 265.00 475.26 257.07 465.09 251.44 453.62 C 247.51 445.59 246.65 436.62 244.84 428.00 C 243.73 422.44 241.30 417.28 238.72 412.27 C 237.03 413.41 234.67 416.75 232.63 414.45 C 231.63 411.07 232.83 407.40 231.99 403.96 C 231.63 400.41 227.21 400.16 225.54 397.47 C 223.35 394.87 223.51 391.32 223.70 388.14 C 222.25 388.57 220.78 389.28 219.24 388.84 C 218.29 387.02 219.60 385.28 220.24 383.63 C 219.13 385.16 217.72 386.44 215.96 387.18 C 216.39 383.12 217.46 379.12 217.39 375.02 C 217.41 368.80 216.48 362.37 218.57 356.36 C 220.44 350.20 224.06 344.82 227.27 339.31 C 232.03 331.23 238.21 324.08 244.86 317.50 C 241.75 317.01 238.60 316.81 235.55 316.09 C 235.54 315.57 235.52 314.54 235.51 314.03 C 242.61 310.56 250.86 311.29 258.52 310.28 C 255.26 308.38 250.07 305.79 251.89 301.18 C 256.17 300.98 260.54 300.80 264.63 299.40 C 272.68 296.82 279.25 291.12 287.14 288.19 C 291.99 286.56 297.16 287.72 302.02 288.71 C 300.40 287.38 296.94 286.51 298.66 283.83 C 305.31 283.93 312.03 285.13 318.13 287.87 M 447.37 381.40 C 458.53 383.61 469.69 386.28 480.16 390.81 C 484.69 392.81 489.53 394.25 493.60 397.16 C 490.72 399.18 487.38 397.43 484.44 396.52 C 471.42 391.95 458.00 388.56 444.49 385.77 C 434.49 383.68 424.29 382.08 414.04 382.50 C 404.78 382.74 395.66 384.51 386.61 386.36 C 385.54 390.53 384.38 394.69 382.77 398.69 C 379.22 407.81 372.90 415.43 368.40 424.05 C 368.80 435.46 370.49 447.00 368.24 458.32 C 366.05 469.87 362.34 482.11 353.01 489.96 C 348.93 493.66 342.87 496.06 337.57 493.47 C 330.43 490.00 325.96 483.05 320.71 477.38 C 313.93 483.39 306.43 488.91 297.93 492.19 C 290.88 494.82 283.04 492.74 277.16 488.39 C 275.54 501.43 276.48 514.78 280.35 527.37 C 283.44 536.92 286.12 546.60 288.74 556.30 C 290.51 563.01 292.12 569.93 291.46 576.93 C 290.24 589.45 285.20 601.35 284.89 614.00 C 284.97 617.09 285.02 620.81 287.23 623.18 C 293.91 624.05 300.40 626.15 307.18 626.26 C 307.15 629.56 303.48 629.83 301.00 630.06 C 295.17 630.74 289.75 627.24 283.94 628.03 C 278.79 628.98 275.87 634.18 275.08 638.97 C 283.02 637.45 291.56 635.45 299.46 637.94 C 299.40 638.45 299.29 639.46 299.23 639.97 C 290.71 642.50 281.38 641.60 273.05 645.12 C 263.62 648.47 256.97 656.37 251.23 664.19 C 245.70 671.90 239.88 679.51 232.74 685.83 C 237.20 687.51 241.27 690.05 244.94 693.08 C 250.90 689.28 258.09 687.27 265.13 688.78 C 273.64 681.73 282.82 675.50 291.03 668.08 C 296.54 663.27 301.65 658.03 307.02 653.07 C 313.83 646.82 322.43 643.16 330.73 639.36 C 331.40 635.17 332.56 631.06 334.23 627.15 C 339.84 613.74 348.01 601.27 358.64 591.30 C 351.63 582.45 342.57 575.10 331.96 571.08 C 327.93 569.56 323.61 569.31 319.44 568.42 C 319.23 568.06 318.82 567.34 318.62 566.98 C 320.57 565.03 323.50 565.31 326.01 565.51 C 338.20 566.56 349.35 573.15 357.70 581.86 C 357.12 579.43 356.83 576.83 355.28 574.79 C 345.44 560.96 329.41 553.27 319.29 539.69 C 318.88 538.82 317.13 537.06 318.96 536.58 C 322.47 537.35 324.69 540.51 327.36 542.67 C 338.73 552.85 353.15 560.49 360.62 574.36 C 363.01 564.09 363.41 553.41 362.44 542.94 C 362.19 539.52 360.64 536.11 361.68 532.68 C 365.18 536.94 365.92 542.64 366.72 547.92 C 367.27 556.47 367.21 565.20 365.21 573.58 C 363.41 581.70 363.66 590.25 365.72 598.30 C 367.07 603.71 366.90 609.32 366.80 614.85 C 376.88 608.12 387.48 601.76 395.52 592.53 C 400.06 587.28 404.38 581.75 407.58 575.56 C 408.47 574.19 408.96 572.09 410.93 572.04 C 412.15 573.42 411.28 575.21 410.81 576.71 C 408.30 583.37 404.19 589.28 399.92 594.93 C 391.06 606.72 378.07 614.15 366.00 622.17 C 376.91 621.71 385.53 614.53 394.49 609.22 C 395.33 613.23 391.23 615.50 388.59 617.62 C 381.38 622.35 373.27 627.98 364.17 626.15 C 359.85 631.08 354.04 634.28 348.29 637.23 C 334.47 644.55 318.50 648.79 307.37 660.38 C 296.02 671.72 283.48 681.81 269.90 690.35 C 280.62 695.84 291.20 705.00 292.78 717.62 C 309.62 711.27 326.82 705.10 341.82 694.92 C 357.29 685.00 370.26 671.79 385.32 661.29 C 397.33 652.92 410.00 644.69 418.63 632.58 C 428.65 618.22 433.79 601.08 437.04 584.04 C 438.40 572.76 438.08 561.26 440.53 550.10 C 442.84 538.24 447.71 527.14 451.99 515.91 C 452.93 514.04 453.49 511.21 456.11 511.28 C 457.14 513.31 455.77 515.55 455.40 517.59 C 451.16 531.00 445.68 544.13 444.06 558.22 C 446.93 552.02 450.55 546.18 454.89 540.90 C 467.56 525.24 483.67 512.96 498.50 499.49 C 502.15 496.50 505.17 492.46 509.84 490.99 C 509.08 495.46 505.43 498.37 502.44 501.42 C 492.06 511.39 481.29 520.94 470.92 530.93 C 460.55 540.77 450.05 551.32 445.02 565.01 C 442.56 570.15 442.88 575.92 442.66 581.45 C 447.66 577.94 453.07 575.04 458.71 572.69 C 475.23 565.98 492.43 560.99 508.68 553.62 C 523.82 547.14 539.84 540.61 550.94 527.93 C 560.39 517.35 570.77 507.50 582.55 499.53 C 598.87 488.40 616.28 478.54 635.13 472.37 C 646.32 468.39 658.35 466.40 668.60 460.08 C 668.24 458.65 667.96 457.16 667.10 455.93 C 662.62 448.98 658.79 441.56 656.11 433.73 C 654.36 428.78 653.95 423.34 651.29 418.75 C 648.95 414.84 644.44 413.26 640.47 411.58 C 630.44 407.69 623.92 398.54 614.79 393.20 C 603.28 386.36 590.52 381.95 577.73 378.20 C 556.38 372.30 534.15 369.78 512.02 370.11 C 490.04 370.22 468.07 373.99 447.37 381.40 M 248.67 403.68 C 245.80 405.36 242.01 405.99 240.31 409.17 C 244.21 414.64 247.32 420.69 248.98 427.23 C 254.75 418.89 265.13 414.86 275.04 415.21 C 279.73 414.99 284.16 416.93 287.89 419.65 C 283.10 423.26 278.20 426.73 273.45 430.38 C 272.34 431.10 271.33 432.13 269.98 432.33 C 267.37 432.02 265.49 430.00 263.13 429.09 C 258.65 429.26 254.27 430.32 249.86 431.05 C 251.34 438.16 252.72 445.44 256.18 451.92 C 260.29 459.50 265.35 466.53 270.70 473.29 C 275.54 479.35 280.77 486.37 288.87 487.90 C 296.78 489.14 303.53 483.80 309.75 479.75 C 320.83 472.44 327.18 460.40 336.01 450.89 C 337.87 448.83 339.89 451.59 338.35 453.43 C 333.86 460.73 328.98 467.86 323.46 474.42 C 328.06 478.54 331.75 483.59 336.60 487.45 C 339.14 489.51 342.86 490.51 345.88 488.85 C 352.41 485.50 356.72 479.07 359.42 472.43 C 365.51 457.18 366.81 440.18 364.06 424.07 C 361.14 425.22 358.06 424.50 356.03 422.09 C 352.72 426.08 347.33 428.00 342.32 426.22 C 344.50 423.13 347.74 420.87 349.37 417.39 C 351.97 412.10 353.59 406.02 352.53 400.12 C 351.96 397.16 348.64 395.85 345.94 395.81 C 342.84 396.16 340.97 399.05 339.85 401.68 C 337.42 407.43 335.81 413.74 331.61 418.54 C 326.37 424.52 318.97 428.39 311.41 430.52 C 312.60 427.23 313.90 423.98 314.90 420.62 C 314.17 420.68 312.70 420.81 311.97 420.87 C 308.69 414.44 308.70 406.53 304.59 400.40 C 302.42 397.96 298.84 399.83 296.05 399.15 C 295.80 397.50 296.80 396.24 297.70 395.02 C 287.89 399.89 276.31 395.39 266.53 400.41 C 266.77 397.55 267.88 394.90 268.91 392.26 C 261.71 395.24 255.66 400.30 248.67 403.68 M 649.81 472.67 C 639.27 475.85 628.73 479.18 618.70 483.75 C 599.07 493.35 580.23 505.16 564.72 520.68 C 557.04 528.38 550.50 537.41 541.23 543.36 C 526.94 552.71 510.84 558.79 494.92 564.70 C 477.11 571.25 458.19 575.68 442.11 586.15 C 440.73 593.24 439.08 600.28 436.90 607.17 C 445.34 610.08 453.72 613.14 462.27 615.71 C 482.59 622.04 502.80 629.06 521.76 638.81 C 528.74 630.72 536.18 622.97 542.24 614.14 C 549.04 604.32 554.17 593.50 560.23 583.24 C 561.52 581.19 562.77 579.11 563.56 576.81 C 544.40 577.50 525.38 580.52 506.79 585.14 C 507.05 583.79 507.54 582.39 508.99 581.96 C 512.66 580.21 516.68 579.37 520.61 578.42 C 533.45 575.61 546.50 573.60 559.65 573.16 C 554.56 567.61 549.06 562.29 542.51 558.49 C 540.89 557.61 539.52 556.37 538.66 554.74 C 544.38 554.45 549.08 558.26 553.54 561.32 C 565.49 570.51 575.80 582.94 579.63 597.77 C 589.87 592.54 601.04 589.25 612.42 587.67 C 629.56 585.45 647.68 587.26 663.18 595.31 C 665.48 577.27 665.04 559.04 667.09 540.99 C 668.27 529.84 671.79 519.10 673.01 507.96 C 674.74 494.02 671.21 479.72 664.35 467.59 C 659.73 469.88 654.70 471.14 649.81 472.67 M 584.63 599.74 C 586.19 608.76 586.48 617.92 587.16 627.03 C 588.15 638.94 592.40 651.35 601.77 659.26 C 609.60 665.88 618.71 670.83 628.16 674.76 C 631.65 673.28 634.93 671.32 637.80 668.84 C 647.29 660.75 654.65 650.43 660.36 639.42 C 663.28 633.58 665.89 627.33 665.89 620.69 C 662.56 619.12 657.25 619.75 655.65 615.88 C 657.15 615.68 658.65 615.52 660.17 615.39 C 660.07 609.98 659.98 604.57 660.32 599.17 C 653.85 596.01 646.93 593.76 639.81 592.69 C 621.21 590.03 602.04 592.86 584.63 599.74 M 335.23 637.37 C 341.54 634.77 347.73 631.86 353.68 628.52 C 354.22 621.59 357.30 615.19 361.73 609.93 C 362.63 605.17 361.25 600.32 360.33 595.66 C 349.27 607.66 340.52 621.91 335.23 637.37 M 435.83 610.24 C 431.78 621.47 426.23 632.33 418.31 641.35 C 408.46 652.47 395.49 660.02 383.65 668.76 C 391.60 673.15 400.80 674.02 409.57 675.69 C 413.06 676.59 416.19 674.31 419.36 673.24 C 428.81 669.14 438.86 665.71 446.77 658.87 C 451.67 654.75 456.31 650.17 459.55 644.59 C 462.91 638.96 464.38 632.44 465.14 626.00 C 454.58 638.78 440.30 647.56 427.06 657.21 C 426.82 654.15 429.24 652.12 431.31 650.31 C 442.40 640.83 455.05 632.97 464.29 621.51 C 454.72 617.96 444.85 615.09 435.83 610.24 M 357.42 625.93 C 360.99 623.32 362.03 618.96 361.90 614.75 C 359.75 618.18 358.27 621.98 357.42 625.93 M 671.34 622.68 C 670.46 635.04 664.31 646.31 657.20 656.19 C 651.13 664.45 644.06 672.30 635.01 677.36 C 650.66 685.07 662.85 697.89 676.25 708.78 C 688.36 718.67 700.51 728.54 712.82 738.19 C 736.28 755.67 759.70 773.90 786.76 785.54 C 786.88 779.13 788.14 772.45 792.29 767.35 C 796.41 761.89 802.99 758.95 809.65 758.10 C 804.18 750.91 798.98 743.54 794.00 736.01 C 779.85 715.48 765.49 694.88 747.87 677.12 C 736.25 665.37 724.26 653.89 710.86 644.16 C 698.90 635.00 685.21 628.41 671.34 622.68 M 470.16 623.52 C 470.18 624.25 470.21 625.71 470.23 626.44 C 475.52 626.91 480.65 628.31 485.91 628.98 C 480.67 627.12 475.40 625.37 470.16 623.52 M 470.11 629.50 C 469.22 634.95 467.98 640.45 465.30 645.34 C 460.37 654.38 452.33 661.30 443.84 666.90 C 435.50 671.77 426.27 674.86 417.12 677.82 C 423.25 680.06 428.92 683.34 434.67 686.40 C 442.55 690.67 451.20 693.25 459.85 695.45 C 470.69 698.15 481.92 698.27 493.03 698.43 C 503.22 698.48 513.60 697.17 523.63 699.62 C 537.02 702.75 548.14 712.19 561.95 713.97 C 566.17 714.43 571.24 714.65 574.55 711.50 C 582.47 703.26 587.14 689.82 580.74 679.35 C 573.61 669.56 561.81 664.92 550.71 661.24 C 540.27 657.62 528.89 655.88 519.73 649.31 C 513.84 645.03 507.83 640.80 501.08 637.97 C 491.20 633.76 480.65 631.38 470.11 629.50 M 581.33 673.36 C 583.76 676.07 586.39 678.81 587.60 682.34 C 590.04 689.56 588.85 697.62 585.44 704.33 C 582.51 709.76 578.81 715.53 572.83 717.90 C 564.85 720.74 556.31 718.48 548.50 716.22 C 540.19 723.68 532.45 731.72 524.73 739.78 C 518.33 746.64 511.62 753.91 509.14 763.21 C 507.89 768.56 508.19 774.84 511.73 779.29 C 515.26 783.33 521.25 783.02 526.04 782.04 C 540.41 778.71 552.54 769.82 563.91 760.84 C 572.90 753.61 583.36 748.63 593.71 743.69 C 602.58 739.49 611.50 734.47 617.63 726.59 C 622.09 720.69 624.45 712.15 620.71 705.31 C 617.12 697.69 611.35 691.42 605.57 685.41 C 599.33 678.57 590.76 673.59 581.33 673.36 M 223.33 690.37 C 215.60 693.88 210.22 701.10 202.32 704.33 C 196.83 706.55 191.01 707.99 185.13 708.61 C 178.41 709.14 171.66 708.70 164.95 709.40 C 159.69 709.94 154.02 710.35 149.58 713.52 C 147.21 715.01 146.70 719.14 149.43 720.54 C 156.10 724.63 164.34 724.38 171.31 727.72 C 173.22 728.86 175.84 730.24 175.85 732.79 C 174.09 734.70 171.39 735.27 169.03 736.14 C 157.03 739.68 144.48 741.31 131.97 741.18 C 126.82 741.34 121.32 741.16 116.64 743.66 C 113.82 745.13 114.72 749.48 117.00 751.08 C 122.97 755.65 130.82 756.37 138.06 756.94 C 140.26 757.30 141.91 755.62 143.61 754.54 C 148.71 750.81 154.65 748.37 160.70 746.65 C 162.14 746.17 163.64 746.59 165.09 746.79 C 161.25 750.39 156.14 751.99 151.76 754.76 C 148.14 757.02 144.60 759.49 141.65 762.60 C 140.41 763.52 139.79 765.61 141.38 766.57 C 145.52 769.37 151.85 770.53 155.86 766.85 C 160.28 762.96 164.09 758.43 168.21 754.24 C 169.27 752.92 170.85 752.42 172.49 752.46 C 170.26 760.65 163.30 766.32 157.62 772.21 C 159.31 774.73 162.19 775.68 165.08 775.99 C 165.00 765.17 172.23 755.64 181.20 750.25 C 197.03 740.55 211.62 728.83 224.33 715.30 C 229.99 709.09 235.10 702.41 240.81 696.24 C 236.19 692.10 229.65 688.48 223.33 690.37 M 251.43 694.37 C 243.36 698.38 238.77 706.45 233.01 712.99 C 219.73 728.83 203.55 742.11 186.11 753.14 C 181.75 755.94 177.28 758.94 174.39 763.36 C 172.26 766.40 171.10 769.97 170.15 773.53 C 177.28 771.29 182.90 766.12 188.87 761.85 C 194.51 757.86 199.30 752.55 205.67 749.67 C 207.28 748.68 210.52 749.25 209.66 751.72 C 200.14 757.17 192.48 765.18 183.47 771.38 C 178.49 774.54 175.65 780.32 174.87 786.03 C 174.39 788.30 176.95 789.74 178.92 789.33 C 184.48 788.50 189.62 785.57 193.53 781.58 C 201.51 773.48 207.18 763.29 215.72 755.72 C 216.99 754.44 220.97 752.62 220.76 755.76 C 215.76 761.47 210.78 767.22 206.27 773.34 C 201.59 779.09 197.70 785.72 196.20 793.05 C 195.45 796.14 197.48 799.22 200.06 800.74 C 203.25 800.50 205.57 797.76 207.60 795.56 C 214.30 787.15 217.48 776.68 222.20 767.17 C 224.68 762.75 229.00 758.31 234.48 758.71 C 232.77 762.11 229.02 763.78 227.19 767.11 C 224.35 771.91 222.80 777.34 220.35 782.34 C 218.23 786.71 216.41 791.64 217.69 796.55 C 218.22 798.28 218.88 800.83 221.13 800.86 C 224.94 800.57 228.07 798.08 231.04 795.90 C 236.35 791.65 241.37 786.93 245.44 781.45 C 246.75 779.46 248.38 777.45 248.64 775.01 C 247.99 771.55 245.39 768.71 245.15 765.14 C 244.43 757.78 247.18 750.48 250.91 744.28 C 251.36 744.46 252.25 744.81 252.70 744.99 C 252.88 750.56 249.73 755.54 249.47 761.06 C 248.82 766.47 251.82 771.73 255.84 775.15 C 258.20 777.36 261.74 775.66 263.77 773.81 C 269.36 768.28 271.75 760.47 273.62 753.04 C 275.81 743.65 278.54 734.18 283.87 726.03 C 286.45 722.09 288.98 716.92 286.62 712.30 C 282.92 704.75 276.23 699.09 268.96 695.10 C 263.66 692.22 256.83 691.16 251.43 694.37 M 805.37 763.52 C 794.26 766.68 789.19 779.59 791.65 790.21 C 792.93 800.07 799.95 807.54 806.43 814.50 C 815.58 823.77 826.60 831.26 838.68 836.19 C 848.16 840.08 858.74 841.19 868.84 839.51 C 876.58 838.08 882.32 831.29 883.65 823.71 C 885.92 815.97 882.04 808.36 878.00 801.99 C 873.09 794.00 865.18 788.66 857.60 783.46 C 846.57 775.92 834.71 769.63 822.39 764.48 C 817.04 762.20 810.93 761.68 805.37 763.52 Z" />
        <path fill="#020202" opacity="1.00"
            d=" M 620.82 433.89 C 622.66 432.24 622.83 427.95 625.77 428.30 C 626.57 430.40 625.44 432.52 624.54 434.39 C 621.72 439.74 617.79 444.38 613.89 448.96 C 602.86 461.54 591.67 474.12 578.71 484.78 C 577.25 486.07 575.56 487.13 573.59 487.39 C 577.04 481.75 582.37 477.66 586.82 472.86 C 598.74 460.41 610.08 447.37 620.82 433.89 Z" />
        <path fill="#020202" opacity="1.00"
            d=" M 580.03 442.00 C 581.28 439.97 582.87 438.17 584.79 436.73 C 584.66 441.24 581.89 444.92 579.72 448.66 C 572.01 461.04 563.47 472.90 554.21 484.17 C 543.17 497.71 531.66 510.97 518.38 522.38 C 510.56 529.33 502.01 535.38 493.74 541.76 C 489.56 544.90 486.07 548.89 481.65 551.70 C 481.71 551.08 481.84 549.83 481.91 549.21 C 488.94 539.16 499.74 532.77 508.88 524.85 C 520.66 514.99 531.31 503.87 541.19 492.13 C 554.88 476.02 568.43 459.71 580.03 442.00 Z" />
    </g>
    <g id="#f11b27ff">
        <path fill="var(--shirt-color, grey)" opacity="1.00"
            d=" M 447.37 381.40 C 468.07 373.99 490.04 370.22 512.02 370.11 C 534.15 369.78 556.38 372.30 577.73 378.20 C 590.52 381.95 603.28 386.36 614.79 393.20 C 623.92 398.54 630.44 407.69 640.47 411.58 C 644.44 413.26 648.95 414.84 651.29 418.75 C 653.95 423.34 654.36 428.78 656.11 433.73 C 658.79 441.56 662.62 448.98 667.10 455.93 C 667.96 457.16 668.24 458.65 668.60 460.08 C 658.35 466.40 646.32 468.39 635.13 472.37 C 616.28 478.54 598.87 488.40 582.55 499.53 C 570.77 507.50 560.39 517.35 550.94 527.93 C 539.84 540.61 523.82 547.14 508.68 553.62 C 492.43 560.99 475.23 565.98 458.71 572.69 C 453.07 575.04 447.66 577.94 442.66 581.45 C 442.88 575.92 442.56 570.15 445.02 565.01 C 450.05 551.32 460.55 540.77 470.92 530.93 C 481.29 520.94 492.06 511.39 502.44 501.42 C 505.43 498.37 509.08 495.46 509.84 490.99 C 505.17 492.46 502.15 496.50 498.50 499.49 C 483.67 512.96 467.56 525.24 454.89 540.90 C 450.55 546.18 446.93 552.02 444.06 558.22 C 445.68 544.13 451.16 531.00 455.40 517.59 C 455.77 515.55 457.14 513.31 456.11 511.28 C 453.49 511.21 452.93 514.04 451.99 515.91 C 447.71 527.14 442.84 538.24 440.53 550.10 C 438.08 561.26 438.40 572.76 437.04 584.04 C 433.79 601.08 428.65 618.22 418.63 632.58 C 410.00 644.69 397.33 652.92 385.32 661.29 C 370.26 671.79 357.29 685.00 341.82 694.92 C 326.82 705.10 309.62 711.27 292.78 717.62 C 291.20 705.00 280.62 695.84 269.90 690.35 C 283.48 681.81 296.02 671.72 307.37 660.38 C 318.50 648.79 334.47 644.55 348.29 637.23 C 354.04 634.28 359.85 631.08 364.17 626.15 C 373.27 627.98 381.38 622.35 388.59 617.62 C 391.23 615.50 395.33 613.23 394.49 609.22 C 385.53 614.53 376.91 621.71 366.00 622.17 C 378.07 614.15 391.06 606.72 399.92 594.93 C 404.19 589.28 408.30 583.37 410.81 576.71 C 411.28 575.21 412.15 573.42 410.93 572.04 C 408.96 572.09 408.47 574.19 407.58 575.56 C 404.38 581.75 400.06 587.28 395.52 592.53 C 387.48 601.76 376.88 608.12 366.80 614.85 C 366.90 609.32 367.07 603.71 365.72 598.30 C 363.66 590.25 363.41 581.70 365.21 573.58 C 367.21 565.20 367.27 556.47 366.72 547.92 C 365.92 542.64 365.18 536.94 361.68 532.68 C 360.64 536.11 362.19 539.52 362.44 542.94 C 363.41 553.41 363.01 564.09 360.62 574.36 C 353.15 560.49 338.73 552.85 327.36 542.67 C 324.69 540.51 322.47 537.35 318.96 536.58 C 317.13 537.06 318.88 538.82 319.29 539.69 C 329.41 553.27 345.44 560.96 355.28 574.79 C 356.83 576.83 357.12 579.43 357.70 581.86 C 349.35 573.15 338.20 566.56 326.01 565.51 C 323.50 565.31 320.57 565.03 318.62 566.98 C 318.82 567.34 319.23 568.06 319.44 568.42 C 323.61 569.31 327.93 569.56 331.96 571.08 C 342.57 575.10 351.63 582.45 358.64 591.30 C 348.01 601.27 339.84 613.74 334.23 627.15 C 332.56 631.06 331.40 635.17 330.73 639.36 C 322.43 643.16 313.83 646.82 307.02 653.07 C 301.65 658.03 296.54 663.27 291.03 668.08 C 282.82 675.50 273.64 681.73 265.13 688.78 C 258.09 687.27 250.90 689.28 244.94 693.08 C 241.27 690.05 237.20 687.51 232.74 685.83 C 239.88 679.51 245.70 671.90 251.23 664.19 C 256.97 656.37 263.62 648.47 273.05 645.12 C 281.38 641.60 290.71 642.50 299.23 639.97 C 299.29 639.46 299.40 638.45 299.46 637.94 C 291.56 635.45 283.02 637.45 275.08 638.97 C 275.87 634.18 278.79 628.98 283.94 628.03 C 289.75 627.24 295.17 630.74 301.00 630.06 C 303.48 629.83 307.15 629.56 307.18 626.26 C 300.40 626.15 293.91 624.05 287.23 623.18 C 285.02 620.81 284.97 617.09 284.89 614.00 C 285.20 601.35 290.24 589.45 291.46 576.93 C 292.12 569.93 290.51 563.01 288.74 556.30 C 286.12 546.60 283.44 536.92 280.35 527.37 C 276.48 514.78 275.54 501.43 277.16 488.39 C 283.04 492.74 290.88 494.82 297.93 492.19 C 306.43 488.91 313.93 483.39 320.71 477.38 C 325.96 483.05 330.43 490.00 337.57 493.47 C 342.87 496.06 348.93 493.66 353.01 489.96 C 362.34 482.11 366.05 469.87 368.24 458.32 C 370.49 447.00 368.80 435.46 368.40 424.05 C 372.90 415.43 379.22 407.81 382.77 398.69 C 384.38 394.69 385.54 390.53 386.61 386.36 C 395.66 384.51 404.78 382.74 414.04 382.50 C 424.29 382.08 434.49 383.68 444.49 385.77 C 458.00 388.56 471.42 391.95 484.44 396.52 C 487.38 397.43 490.72 399.18 493.60 397.16 C 489.53 394.25 484.69 392.81 480.16 390.81 C 469.69 386.28 458.53 383.61 447.37 381.40 M 620.82 433.89 C 610.08 447.37 598.74 460.41 586.82 472.86 C 582.37 477.66 577.04 481.75 573.59 487.39 C 575.56 487.13 577.25 486.07 578.71 484.78 C 591.67 474.12 602.86 461.54 613.89 448.96 C 617.79 444.38 621.72 439.74 624.54 434.39 C 625.44 432.52 626.57 430.40 625.77 428.30 C 622.83 427.95 622.66 432.24 620.82 433.89 M 580.03 442.00 C 568.43 459.71 554.88 476.02 541.19 492.13 C 531.31 503.87 520.66 514.99 508.88 524.85 C 499.74 532.77 488.94 539.16 481.91 549.21 C 481.84 549.83 481.71 551.08 481.65 551.70 C 486.07 548.89 489.56 544.90 493.74 541.76 C 502.01 535.38 510.56 529.33 518.38 522.38 C 531.66 510.97 543.17 497.71 554.21 484.17 C 563.47 472.90 572.01 461.04 579.72 448.66 C 581.89 444.92 584.66 441.24 584.79 436.73 C 582.87 438.17 581.28 439.97 580.03 442.00 Z" />
    </g>
    <g id="#f0b58bff">
        <path fill="#f0b58b" opacity="1.00"
            d=" M 248.67 403.68 C 255.66 400.30 261.71 395.24 268.91 392.26 C 267.88 394.90 266.77 397.55 266.53 400.41 C 276.31 395.39 287.89 399.89 297.70 395.02 C 296.80 396.24 295.80 397.50 296.05 399.15 C 298.84 399.83 302.42 397.96 304.59 400.40 C 308.70 406.53 308.69 414.44 311.97 420.87 C 312.70 420.81 314.17 420.68 314.90 420.62 C 313.90 423.98 312.60 427.23 311.41 430.52 C 318.97 428.39 326.37 424.52 331.61 418.54 C 335.81 413.74 337.42 407.43 339.85 401.68 C 340.97 399.05 342.84 396.16 345.94 395.81 C 348.64 395.85 351.96 397.16 352.53 400.12 C 353.59 406.02 351.97 412.10 349.37 417.39 C 347.74 420.87 344.50 423.13 342.32 426.22 C 347.33 428.00 352.72 426.08 356.03 422.09 C 358.06 424.50 361.14 425.22 364.06 424.07 C 366.81 440.18 365.51 457.18 359.42 472.43 C 356.72 479.07 352.41 485.50 345.88 488.85 C 342.86 490.51 339.14 489.51 336.60 487.45 C 331.75 483.59 328.06 478.54 323.46 474.42 C 328.98 467.86 333.86 460.73 338.35 453.43 C 339.89 451.59 337.87 448.83 336.01 450.89 C 327.18 460.40 320.83 472.44 309.75 479.75 C 303.53 483.80 296.78 489.14 288.87 487.90 C 280.77 486.37 275.54 479.35 270.70 473.29 C 265.35 466.53 260.29 459.50 256.18 451.92 C 252.72 445.44 251.34 438.16 249.86 431.05 C 254.27 430.32 258.65 429.26 263.13 429.09 C 265.49 430.00 267.37 432.02 269.98 432.33 C 271.33 432.13 272.34 431.10 273.45 430.38 C 278.20 426.73 283.10 423.26 287.89 419.65 C 284.16 416.93 279.73 414.99 275.04 415.21 C 265.13 414.86 254.75 418.89 248.98 427.23 C 247.32 420.69 244.21 414.64 240.31 409.17 C 242.01 405.99 245.80 405.36 248.67 403.68 Z" />
        <path fill="#f0b58b" opacity="1.00"
            d=" M 584.63 599.74 C 602.04 592.86 621.21 590.03 639.81 592.69 C 646.93 593.76 653.85 596.01 660.32 599.17 C 659.98 604.57 660.07 609.98 660.17 615.39 C 658.65 615.52 657.15 615.68 655.65 615.88 C 657.25 619.75 662.56 619.12 665.89 620.69 C 665.89 627.33 663.28 633.58 660.36 639.42 C 654.65 650.43 647.29 660.75 637.80 668.84 C 634.93 671.32 631.65 673.28 628.16 674.76 C 618.71 670.83 609.60 665.88 601.77 659.26 C 592.40 651.35 588.15 638.94 587.16 627.03 C 586.48 617.92 586.19 608.76 584.63 599.74 Z" />
        <path fill="#f0b58b" opacity="1.00"
            d=" M 435.83 610.24 C 444.85 615.09 454.72 617.96 464.29 621.51 C 455.05 632.97 442.40 640.83 431.31 650.31 C 429.24 652.12 426.82 654.15 427.06 657.21 C 440.30 647.56 454.58 638.78 465.14 626.00 C 464.38 632.44 462.91 638.96 459.55 644.59 C 456.31 650.17 451.67 654.75 446.77 658.87 C 438.86 665.71 428.81 669.14 419.36 673.24 C 416.19 674.31 413.06 676.59 409.57 675.69 C 400.80 674.02 391.60 673.15 383.65 668.76 C 395.49 660.02 408.46 652.47 418.31 641.35 C 426.23 632.33 431.78 621.47 435.83 610.24 Z" />
        <path fill="#f0b58b" opacity="1.00"
            d=" M 357.42 625.93 C 358.27 621.98 359.75 618.18 361.90 614.75 C 362.03 618.96 360.99 623.32 357.42 625.93 Z" />
    </g>
    <g id="#2b3dcdff">
        <path fill="var(--pants-color, grey)" opacity="1.00"
            d=" M 649.81 472.67 C 654.70 471.14 659.73 469.88 664.35 467.59 C 671.21 479.72 674.74 494.02 673.01 507.96 C 671.79 519.10 668.27 529.84 667.09 540.99 C 665.04 559.04 665.48 577.27 663.18 595.31 C 647.68 587.26 629.56 585.45 612.42 587.67 C 601.04 589.25 589.87 592.54 579.63 597.77 C 575.80 582.94 565.49 570.51 553.54 561.32 C 549.08 558.26 544.38 554.45 538.66 554.74 C 539.52 556.37 540.89 557.61 542.51 558.49 C 549.06 562.29 554.56 567.61 559.65 573.16 C 546.50 573.60 533.45 575.61 520.61 578.42 C 516.68 579.37 512.66 580.21 508.99 581.96 C 507.54 582.39 507.05 583.79 506.79 585.14 C 525.38 580.52 544.40 577.50 563.56 576.81 C 562.77 579.11 561.52 581.19 560.23 583.24 C 554.17 593.50 549.04 604.32 542.24 614.14 C 536.18 622.97 528.74 630.72 521.76 638.81 C 502.80 629.06 482.59 622.04 462.27 615.71 C 453.72 613.14 445.34 610.08 436.90 607.17 C 439.08 600.28 440.73 593.24 442.11 586.15 C 458.19 575.68 477.11 571.25 494.92 564.70 C 510.84 558.79 526.94 552.71 541.23 543.36 C 550.50 537.41 557.04 528.38 564.72 520.68 C 580.23 505.16 599.07 493.35 618.70 483.75 C 628.73 479.18 639.27 475.85 649.81 472.67 Z" />
        <path fill="var(--socks-color, grey)" opacity="1.00"
            d=" M 671.34 622.68 C 685.21 628.41 698.90 635.00 710.86 644.16 C 724.26 653.89 736.25 665.37 747.87 677.12 C 765.49 694.88 779.85 715.48 794.00 736.01 C 798.98 743.54 804.18 750.91 809.65 758.10 C 802.99 758.95 796.41 761.89 792.29 767.35 C 788.14 772.45 786.88 779.13 786.76 785.54 C 759.70 773.90 736.28 755.67 712.82 738.19 C 700.51 728.54 688.36 718.67 676.25 708.78 C 662.85 697.89 650.66 685.07 635.01 677.36 C 644.06 672.30 651.13 664.45 657.20 656.19 C 664.31 646.31 670.46 635.04 671.34 622.68 Z" />
        <path fill="var(--socks-color, grey)" opacity="1.00"
            d=" M 470.11 629.50 C 480.65 631.38 491.20 633.76 501.08 637.97 C 507.83 640.80 513.84 645.03 519.73 649.31 C 528.89 655.88 540.27 657.62 550.71 661.24 C 561.81 664.92 573.61 669.56 580.74 679.35 C 587.14 689.82 582.47 703.26 574.55 711.50 C 571.24 714.65 566.17 714.43 561.95 713.97 C 548.14 712.19 537.02 702.75 523.63 699.62 C 513.60 697.17 503.22 698.48 493.03 698.43 C 481.92 698.27 470.69 698.15 459.85 695.45 C 451.20 693.25 442.55 690.67 434.67 686.40 C 428.92 683.34 423.25 680.06 417.12 677.82 C 426.27 674.86 435.50 671.77 443.84 666.90 C 452.33 661.30 460.37 654.38 465.30 645.34 C 467.98 640.45 469.22 634.95 470.11 629.50 Z" />
    </g>
    <g id="#4d4d4dff">
        <path fill="#4d4d4d" opacity="1.00"
            d=" M 581.33 673.36 C 590.76 673.59 599.33 678.57 605.57 685.41 C 611.35 691.42 617.12 697.69 620.71 705.31 C 624.45 712.15 622.09 720.69 617.63 726.59 C 611.50 734.47 602.58 739.49 593.71 743.69 C 583.36 748.63 572.90 753.61 563.91 760.84 C 552.54 769.82 540.41 778.71 526.04 782.04 C 521.25 783.02 515.26 783.33 511.73 779.29 C 508.19 774.84 507.89 768.56 509.14 763.21 C 511.62 753.91 518.33 746.64 524.73 739.78 C 532.45 731.72 540.19 723.68 548.50 716.22 C 556.31 718.48 564.85 720.74 572.83 717.90 C 578.81 715.53 582.51 709.76 585.44 704.33 C 588.85 697.62 590.04 689.56 587.60 682.34 C 586.39 678.81 583.76 676.07 581.33 673.36 Z" />
        <path fill="#4d4d4d" opacity="1.00"
            d=" M 223.33 690.37 C 229.65 688.48 236.19 692.10 240.81 696.24 C 235.10 702.41 229.99 709.09 224.33 715.30 C 211.62 728.83 197.03 740.55 181.20 750.25 C 172.23 755.64 165.00 765.17 165.08 775.99 C 162.19 775.68 159.31 774.73 157.62 772.21 C 163.30 766.32 170.26 760.65 172.49 752.46 C 170.85 752.42 169.27 752.92 168.21 754.24 C 164.09 758.43 160.28 762.96 155.86 766.85 C 151.85 770.53 145.52 769.37 141.38 766.57 C 139.79 765.61 140.41 763.52 141.65 762.60 C 144.60 759.49 148.14 757.02 151.76 754.76 C 156.14 751.99 161.25 750.39 165.09 746.79 C 163.64 746.59 162.14 746.17 160.70 746.65 C 154.65 748.37 148.71 750.81 143.61 754.54 C 141.91 755.62 140.26 757.30 138.06 756.94 C 130.82 756.37 122.97 755.65 117.00 751.08 C 114.72 749.48 113.82 745.13 116.64 743.66 C 121.32 741.16 126.82 741.34 131.97 741.18 C 144.48 741.31 157.03 739.68 169.03 736.14 C 171.39 735.27 174.09 734.70 175.85 732.79 C 175.84 730.24 173.22 728.86 171.31 727.72 C 164.34 724.38 156.10 724.63 149.43 720.54 C 146.70 719.14 147.21 715.01 149.58 713.52 C 154.02 710.35 159.69 709.94 164.95 709.40 C 171.66 708.70 178.41 709.14 185.13 708.61 C 191.01 707.99 196.83 706.55 202.32 704.33 C 210.22 701.10 215.60 693.88 223.33 690.37 Z" />
        <path fill="#4d4d4d" opacity="1.00"
            d=" M 251.43 694.37 C 256.83 691.16 263.66 692.22 268.96 695.10 C 276.23 699.09 282.92 704.75 286.62 712.30 C 288.98 716.92 286.45 722.09 283.87 726.03 C 278.54 734.18 275.81 743.65 273.62 753.04 C 271.75 760.47 269.36 768.28 263.77 773.81 C 261.74 775.66 258.20 777.36 255.84 775.15 C 251.82 771.73 248.82 766.47 249.47 761.06 C 249.73 755.54 252.88 750.56 252.70 744.99 C 252.25 744.81 251.36 744.46 250.91 744.28 C 247.18 750.48 244.43 757.78 245.15 765.14 C 245.39 768.71 247.99 771.55 248.64 775.01 C 248.38 777.45 246.75 779.46 245.44 781.45 C 241.37 786.93 236.35 791.65 231.04 795.90 C 228.07 798.08 224.94 800.57 221.13 800.86 C 218.88 800.83 218.22 798.28 217.69 796.55 C 216.41 791.64 218.23 786.71 220.35 782.34 C 222.80 777.34 224.35 771.91 227.19 767.11 C 229.02 763.78 232.77 762.11 234.48 758.71 C 229.00 758.31 224.68 762.75 222.20 767.17 C 217.48 776.68 214.30 787.15 207.60 795.56 C 205.57 797.76 203.25 800.50 200.06 800.74 C 197.48 799.22 195.45 796.14 196.20 793.05 C 197.70 785.72 201.59 779.09 206.27 773.34 C 210.78 767.22 215.76 761.47 220.76 755.76 C 220.97 752.62 216.99 754.44 215.72 755.72 C 207.18 763.29 201.51 773.48 193.53 781.58 C 189.62 785.57 184.48 788.50 178.92 789.33 C 176.95 789.74 174.39 788.30 174.87 786.03 C 175.65 780.32 178.49 774.54 183.47 771.38 C 192.48 765.18 200.14 757.17 209.66 751.72 C 210.52 749.25 207.28 748.68 205.67 749.67 C 199.30 752.55 194.51 757.86 188.87 761.85 C 182.90 766.12 177.28 771.29 170.15 773.53 C 171.10 769.97 172.26 766.40 174.39 763.36 C 177.28 758.94 181.75 755.94 186.11 753.14 C 203.55 742.11 219.73 728.83 233.01 712.99 C 238.77 706.45 243.36 698.38 251.43 694.37 Z" />
        <path fill="#4d4d4d" opacity="1.00"
            d=" M 805.37 763.52 C 810.93 761.68 817.04 762.20 822.39 764.48 C 834.71 769.63 846.57 775.92 857.60 783.46 C 865.18 788.66 873.09 794.00 878.00 801.99 C 882.04 808.36 885.92 815.97 883.65 823.71 C 882.32 831.29 876.58 838.08 868.84 839.51 C 858.74 841.19 848.16 840.08 838.68 836.19 C 826.60 831.26 815.58 823.77 806.43 814.50 C 799.95 807.54 792.93 800.07 791.65 790.21 C 789.19 779.59 794.26 766.68 805.37 763.52 Z" />
    </g>
</svg>