<?xml version="1.0" encoding="UTF-8" ?>
<!DOCTYPE svg PUBLIC "-//W3C//DTD SVG 1.1//EN" "http://www.w3.org/Graphics/SVG/1.1/DTD/svg11.dtd">
<svg width="1000pt" height="1000pt" viewBox="0 0 1000 1000" version="1.1" xmlns="http://www.w3.org/2000/svg">
    <g id="#020202ff">
        <path fill="#020202" opacity="1.00"
            d=" M 323.76 64.81 C 330.23 57.47 339.20 52.12 348.99 50.88 C 357.77 50.00 366.82 50.58 375.13 53.76 C 378.97 55.57 383.07 53.49 387.07 53.97 C 397.77 55.38 407.42 61.52 414.32 69.69 C 422.71 79.41 430.70 90.81 431.33 104.09 C 431.76 113.10 431.25 122.19 429.49 131.05 C 428.57 135.40 430.97 139.64 430.11 144.02 C 428.14 159.18 418.63 171.85 414.62 186.40 C 411.33 197.83 416.14 209.96 423.11 219.02 C 428.58 215.92 433.15 209.55 440.07 210.36 C 443.71 210.52 447.21 211.81 450.30 213.72 C 458.53 218.79 465.94 225.26 474.88 229.14 C 484.77 233.51 494.86 237.80 503.37 244.61 C 516.05 254.49 524.67 268.30 533.39 281.54 C 541.96 295.06 554.35 305.76 562.05 319.88 C 568.65 331.97 575.82 344.76 575.58 358.95 C 575.48 365.22 571.45 370.25 568.07 375.14 C 566.91 378.96 567.55 383.20 566.06 387.00 C 563.44 394.08 558.86 400.30 553.66 405.71 C 549.33 410.24 543.42 412.68 537.57 414.59 C 539.31 419.63 541.53 424.59 542.13 429.94 C 543.09 437.76 542.01 445.72 539.72 453.22 C 554.42 465.79 563.98 483.89 566.91 502.94 C 569.49 519.53 569.03 537.36 577.68 552.34 C 581.41 558.42 584.62 565.01 585.40 572.19 C 586.57 579.36 585.65 587.48 590.41 593.55 C 595.20 599.59 601.99 603.51 608.03 608.14 C 610.19 609.37 610.39 612.83 608.42 614.33 C 602.78 618.93 596.02 622.01 589.11 624.19 C 593.37 641.39 598.01 659.05 608.22 673.82 C 613.75 682.11 621.24 688.87 629.09 694.91 C 647.05 706.89 658.46 726.37 665.57 746.33 C 671.04 761.60 677.71 776.42 685.18 790.81 C 689.01 797.58 692.92 804.56 698.84 809.76 C 704.48 808.71 710.19 810.80 714.29 814.69 C 722.20 822.06 729.43 831.07 731.54 841.95 C 734.10 854.53 731.11 867.28 731.45 879.95 C 731.32 891.30 733.83 902.42 735.60 913.57 C 737.06 923.85 737.80 934.82 733.63 944.61 C 730.05 953.35 721.39 959.00 712.54 961.36 C 705.73 962.91 697.44 963.18 692.15 957.85 C 687.56 952.99 685.84 946.27 683.91 940.06 C 679.68 926.62 679.28 912.40 676.04 898.74 C 673.75 887.87 668.96 877.40 669.28 866.11 C 658.31 853.76 651.23 838.68 643.94 824.03 C 638.89 814.12 633.99 804.14 628.59 794.43 C 620.79 780.71 612.44 767.03 600.98 756.02 C 592.57 747.88 581.92 742.56 573.33 734.65 C 562.42 723.82 554.24 710.66 546.50 697.48 C 537.64 682.04 527.99 666.98 520.88 650.61 C 517.59 655.37 514.29 660.21 510.08 664.22 C 509.30 665.14 507.68 665.26 507.07 664.09 C 505.76 661.81 505.13 659.23 504.20 656.81 C 500.95 647.72 495.65 639.59 490.52 631.49 C 487.67 627.04 485.21 622.32 483.67 617.26 C 475.54 630.55 465.04 642.15 454.70 653.72 C 452.35 656.43 449.68 658.89 446.53 660.64 C 443.56 666.15 442.06 672.24 440.36 678.22 C 436.39 691.45 436.39 705.35 435.36 719.00 C 435.02 723.27 437.02 727.20 439.34 730.64 C 443.61 736.96 446.39 744.13 448.90 751.29 C 452.93 763.16 453.98 775.71 455.94 788.02 C 458.28 802.54 458.88 817.32 458.19 832.01 C 457.86 839.69 457.50 847.42 458.46 855.09 C 459.99 867.59 462.25 880.00 463.71 892.52 C 464.58 897.58 466.45 902.41 467.51 907.43 C 469.87 918.41 471.47 929.76 470.17 940.98 C 469.22 946.01 467.72 952.39 462.30 954.31 C 455.40 957.04 448.06 954.20 441.08 953.39 C 429.74 951.05 418.29 953.69 407.02 955.00 C 389.00 957.14 370.35 957.47 352.78 952.39 C 345.78 950.21 338.14 947.46 334.00 940.99 C 331.83 937.97 331.32 933.64 333.43 930.46 C 335.60 927.02 339.59 925.43 343.38 924.49 C 350.36 922.74 357.66 922.60 364.53 920.35 C 372.97 917.64 380.35 912.57 387.58 907.60 C 393.12 903.87 398.44 899.59 404.88 897.49 C 404.54 891.32 405.16 885.16 405.04 879.01 C 404.47 867.93 403.40 856.83 400.97 846.00 C 397.30 831.60 392.89 817.41 388.60 803.19 C 385.65 792.80 383.63 782.14 382.25 771.43 C 380.70 758.31 380.50 745.07 379.48 731.91 C 378.99 724.91 375.12 718.88 372.17 712.72 C 368.82 705.86 366.80 698.35 366.31 690.73 C 365.50 677.69 367.60 664.75 368.80 651.81 C 364.50 653.05 360.40 655.29 355.87 655.53 C 355.58 655.18 355.01 654.47 354.72 654.11 C 354.95 648.79 356.01 643.36 358.70 638.70 C 359.87 636.48 361.41 634.44 362.14 632.02 C 361.96 627.92 360.42 624.03 359.74 620.01 C 357.10 606.40 356.73 591.66 362.80 578.87 C 364.10 576.06 365.69 573.40 367.22 570.70 C 365.02 566.79 362.58 562.68 362.78 558.02 C 362.55 550.16 366.37 543.11 368.54 535.79 C 369.55 533.11 367.34 530.91 366.10 528.79 C 364.35 526.24 362.97 523.15 363.67 519.99 C 364.90 513.94 367.31 508.20 369.60 502.49 C 361.98 495.74 367.06 484.61 362.82 476.39 C 360.56 471.85 359.03 466.92 359.39 461.80 C 353.26 468.20 346.76 474.25 340.70 480.73 C 337.72 484.04 334.05 486.79 331.59 490.54 C 330.21 494.17 330.91 498.18 330.77 501.98 C 330.98 508.51 329.24 515.08 330.62 521.56 C 331.15 523.98 332.71 526.71 331.03 529.05 C 329.72 531.48 326.79 531.68 324.38 532.01 C 322.60 533.61 320.70 535.89 318.00 535.31 C 309.33 533.58 303.48 526.28 298.30 519.70 C 291.54 511.00 290.24 499.61 289.45 488.99 C 289.31 478.63 296.91 470.55 303.89 463.83 C 311.22 456.52 319.23 449.80 325.40 441.42 C 330.85 434.30 334.68 426.08 337.57 417.63 C 335.78 418.14 334.04 419.08 332.13 418.88 C 331.52 417.39 331.98 415.77 332.09 414.25 C 333.05 407.99 332.74 401.55 334.54 395.43 C 336.06 389.26 338.88 383.51 342.39 378.26 C 342.06 373.85 341.23 369.30 338.15 365.92 C 330.73 356.77 324.18 346.58 321.23 335.05 C 320.41 330.30 319.24 325.52 316.61 321.43 C 312.83 314.82 308.21 307.35 310.60 299.43 C 313.56 290.67 319.94 283.69 325.31 276.34 C 332.43 267.07 337.80 256.66 343.71 246.63 C 346.04 242.48 349.94 239.44 354.56 238.26 C 353.57 233.28 352.51 228.30 350.93 223.48 C 347.78 223.18 344.44 223.04 341.70 221.29 C 337.80 218.89 335.10 215.03 332.73 211.21 C 328.43 204.14 327.44 195.79 325.20 187.97 C 323.26 180.53 317.86 174.68 315.50 167.40 C 312.64 160.70 311.67 153.31 308.15 146.88 C 305.67 141.93 305.34 136.33 304.76 130.93 C 304.42 127.53 302.46 124.51 302.27 121.08 C 302.15 118.63 302.63 116.22 302.97 113.81 C 298.39 110.58 299.19 104.40 300.80 99.77 C 303.35 91.84 309.09 85.62 314.25 79.31 C 317.98 74.84 319.91 69.18 323.76 64.81 M 417.51 156.38 C 415.81 161.67 414.85 167.16 413.78 172.60 C 419.26 160.83 426.77 148.99 426.18 135.51 C 423.07 142.38 419.67 149.15 417.51 156.38 M 315.09 153.88 C 316.98 158.87 319.07 163.80 321.39 168.61 C 323.75 173.54 327.11 177.95 329.11 183.06 C 332.07 190.48 332.67 198.63 335.98 205.93 C 338.66 211.52 342.69 217.28 349.17 218.64 C 347.73 214.59 346.30 210.49 344.17 206.74 C 343.34 205.00 341.81 203.25 342.49 201.20 C 345.72 201.28 347.58 204.36 349.22 206.74 C 354.80 216.04 358.35 226.54 359.65 237.31 C 372.02 234.57 384.61 232.67 396.73 228.86 C 403.96 226.65 411.45 225.13 418.35 221.95 C 413.21 215.90 410.28 208.33 408.55 200.67 C 406.89 200.92 404.97 201.82 403.59 200.41 C 400.26 197.33 399.51 191.83 394.88 190.10 C 390.40 187.93 386.11 191.33 382.36 193.41 C 378.66 195.81 374.73 190.56 371.08 192.99 C 367.17 195.05 362.72 195.62 358.72 197.47 C 359.34 200.04 360.83 202.56 360.22 205.27 C 357.25 206.08 355.28 203.23 353.98 201.03 C 351.31 196.90 350.88 191.37 346.83 188.18 C 342.85 184.47 336.40 184.10 333.99 178.68 C 332.70 178.16 331.16 177.98 330.23 176.84 C 323.77 170.10 323.26 159.25 315.09 153.88 M 427.55 222.57 C 418.57 228.75 407.94 231.69 397.62 234.77 C 383.80 239.16 369.36 241.00 355.33 244.48 C 351.06 245.36 349.10 249.65 347.06 253.02 C 342.19 261.97 337.11 270.83 331.00 279.01 C 326.43 285.15 321.38 290.99 317.60 297.69 C 316.19 300.20 315.22 303.09 315.55 306.01 C 316.50 312.22 319.31 317.98 322.99 323.02 C 326.19 327.54 324.69 333.40 326.74 338.30 C 328.96 344.03 331.91 349.47 335.41 354.52 C 339.69 360.80 345.92 366.29 346.81 374.28 C 348.77 372.35 350.91 370.42 351.74 367.70 C 353.14 364.34 353.01 360.25 355.69 357.52 C 356.93 362.44 356.42 367.74 354.34 372.36 C 352.45 376.31 348.24 378.36 345.87 381.96 C 339.76 391.02 337.47 402.05 337.17 412.83 C 349.91 406.15 364.04 402.46 378.28 400.81 C 390.51 399.12 403.47 400.84 414.11 407.40 C 414.38 396.93 419.31 387.37 420.61 377.08 C 421.22 372.85 418.91 369.03 418.19 364.98 C 416.56 356.25 418.01 346.95 414.50 338.59 C 410.89 330.03 403.42 324.06 398.45 316.40 C 397.36 315.04 397.50 313.27 397.59 311.65 C 400.33 313.89 402.69 316.54 404.97 319.22 C 401.38 310.49 398.32 301.49 393.85 293.16 C 389.85 285.69 381.54 282.44 375.89 276.52 C 377.26 276.33 378.79 276.01 380.04 276.86 C 386.87 280.68 394.17 284.84 397.90 292.06 C 403.63 302.85 407.29 314.58 412.21 325.73 C 414.57 330.62 418.20 334.90 419.69 340.19 C 422.66 349.81 420.54 360.25 424.10 369.72 C 426.83 377.60 423.49 385.78 421.57 393.45 C 419.33 400.05 419.01 407.01 418.42 413.89 C 416.36 413.98 414.31 413.65 412.59 412.46 C 408.53 409.92 404.11 408.06 399.51 406.76 C 390.75 425.74 376.79 441.55 363.72 457.59 C 362.38 463.26 364.02 469.13 366.93 474.04 C 370.31 479.82 369.79 486.68 370.45 493.09 C 370.83 495.50 372.08 498.83 375.00 498.79 C 379.44 498.77 383.72 497.40 388.10 496.80 C 396.04 495.44 404.19 495.27 411.98 493.16 C 421.59 489.44 431.75 486.96 440.74 481.79 C 453.36 474.50 465.20 465.40 479.33 461.15 C 491.12 457.19 503.68 456.66 516.01 456.78 C 522.80 456.46 531.06 456.35 535.70 450.60 C 537.25 444.54 537.31 438.14 537.02 431.92 C 536.70 424.61 532.10 418.31 531.78 411.00 C 531.42 405.12 533.67 399.55 534.91 393.90 C 536.49 386.71 537.38 379.38 537.81 372.03 C 538.34 360.72 534.99 349.67 530.50 339.41 C 526.94 330.09 523.95 319.57 526.94 309.69 C 528.05 311.25 528.88 313.00 528.87 314.96 C 529.50 324.20 532.61 333.06 536.47 341.41 C 542.60 354.48 544.63 369.27 542.25 383.52 C 548.61 381.02 555.49 379.24 560.88 374.84 C 564.30 371.93 567.43 368.49 569.39 364.40 C 571.03 359.75 570.42 354.61 569.34 349.90 C 564.04 331.63 553.77 315.02 540.84 301.17 C 533.83 293.67 528.16 285.07 522.47 276.57 C 514.60 264.77 505.74 253.07 493.48 245.52 C 484.15 239.43 473.24 236.32 463.97 230.14 C 458.55 226.59 453.72 222.26 448.45 218.51 C 445.37 216.65 441.70 215.12 438.05 215.54 C 434.14 217.19 431.11 220.32 427.55 222.57 M 541.42 389.00 C 540.23 396.00 537.54 402.67 536.88 409.76 C 541.61 406.96 546.88 404.75 550.57 400.51 C 555.91 394.54 560.99 387.92 562.94 379.99 C 556.33 384.17 548.91 386.87 541.42 389.00 M 341.88 415.35 C 342.64 422.25 339.26 428.51 336.49 434.56 C 329.09 449.37 316.25 460.18 304.78 471.72 C 299.69 476.89 294.51 483.28 294.81 490.97 C 295.12 496.97 295.43 503.23 298.13 508.73 C 300.85 514.66 305.24 519.61 309.77 524.21 C 312.49 527.04 315.94 529.01 319.58 530.42 C 319.55 529.52 319.47 528.65 319.33 527.78 C 316.87 524.87 313.56 522.79 311.31 519.69 C 305.98 513.00 304.03 504.31 303.64 495.94 C 303.35 494.43 304.49 493.37 305.40 492.37 C 307.88 500.27 308.73 509.10 314.21 515.70 C 317.43 520.17 322.93 522.72 325.03 528.03 C 325.59 527.75 326.73 527.17 327.29 526.88 C 326.12 524.41 324.69 522.07 322.91 519.99 C 317.25 513.12 313.84 504.66 311.99 496.02 C 311.52 492.61 310.46 487.30 314.67 485.88 C 314.91 488.06 314.92 490.28 315.48 492.42 C 318.05 500.44 321.02 508.41 325.64 515.50 C 325.38 510.32 326.63 505.19 326.04 500.02 C 325.84 495.36 324.92 490.01 328.03 486.05 C 340.14 471.88 354.67 459.96 366.30 445.36 C 376.09 432.57 387.25 420.50 393.80 405.58 C 376.04 404.19 358.15 408.41 341.88 415.35 M 517.04 462.16 C 505.32 462.33 493.36 462.44 482.09 466.08 C 465.24 470.98 451.85 482.98 435.97 489.98 C 424.07 496.51 410.70 499.90 397.26 501.25 C 389.75 501.97 382.39 503.76 374.86 504.38 C 372.93 508.78 371.07 513.22 369.56 517.79 C 368.92 519.94 368.09 522.48 369.54 524.51 C 371.38 527.82 374.68 530.85 374.02 535.01 C 372.69 543.17 367.57 550.55 368.08 559.06 C 368.04 563.53 372.27 566.64 372.51 570.99 C 371.33 575.80 367.96 579.72 366.47 584.44 C 362.69 594.27 363.19 605.04 364.29 615.32 C 367.04 607.24 373.12 600.96 379.21 595.24 C 390.57 584.78 405.24 578.93 416.91 568.86 C 420.36 565.86 423.91 562.47 425.18 557.92 C 426.33 554.04 424.80 550.10 424.33 546.24 C 426.63 548.63 428.76 551.46 428.97 554.90 C 429.74 561.36 425.74 567.10 421.29 571.35 C 411.83 580.65 399.67 586.33 388.99 593.99 C 380.33 600.51 371.96 608.29 367.53 618.37 C 364.37 624.27 369.82 631.14 365.69 636.70 C 362.86 640.83 360.20 645.13 358.82 649.99 C 363.40 648.42 368.01 646.74 372.87 646.27 C 382.00 645.35 391.04 647.37 400.03 648.68 C 412.88 650.57 424.83 656.76 437.93 657.18 C 441.95 657.16 446.86 657.22 449.41 653.51 C 460.28 639.29 472.35 625.81 480.99 610.03 C 489.50 594.59 496.61 578.35 501.65 561.43 C 503.59 555.90 504.32 549.94 506.99 544.68 C 510.53 544.73 508.96 548.88 508.81 551.10 C 506.64 560.94 504.74 570.89 501.56 580.47 C 507.88 574.47 514.80 568.85 519.38 561.30 C 524.99 551.96 529.19 541.38 529.00 530.31 C 531.39 530.64 532.46 532.80 532.40 535.02 C 532.86 545.77 528.86 556.28 523.20 565.26 C 517.52 574.14 508.50 579.93 500.66 586.68 C 498.72 588.19 497.60 590.42 496.64 592.63 C 493.80 599.07 490.47 605.27 487.16 611.47 C 489.57 616.19 491.45 621.18 494.28 625.68 C 500.57 635.60 507.15 645.64 510.05 657.19 C 515.36 649.51 519.62 640.97 526.20 634.25 C 531.15 629.21 537.86 626.41 544.61 624.73 C 558.43 621.08 572.88 621.29 586.85 618.51 C 592.99 617.28 598.58 614.36 604.03 611.40 C 597.03 607.25 589.89 602.65 585.01 596.00 C 579.29 588.19 581.09 578.02 578.96 569.10 C 577.71 562.83 573.95 557.57 571.13 551.98 C 563.93 537.06 564.06 520.13 561.87 504.06 C 559.43 485.87 550.11 469.08 537.07 456.33 C 531.37 460.79 524.10 462.07 517.04 462.16 M 539.05 632.92 C 532.72 635.24 527.96 640.30 524.08 645.64 C 532.11 664.49 543.64 681.52 553.85 699.20 C 562.34 712.73 571.02 726.91 584.31 736.27 C 588.14 717.40 603.44 702.40 620.92 695.38 C 613.95 689.57 607.44 683.11 602.52 675.45 C 592.37 660.47 587.77 642.64 584.35 625.11 C 569.28 627.82 553.54 627.47 539.05 632.92 M 373.56 651.10 C 372.82 664.84 370.26 678.55 371.37 692.35 C 371.97 699.43 374.23 706.29 377.49 712.58 C 380.49 718.43 383.57 724.41 384.27 731.06 C 397.62 723.16 414.38 721.36 429.34 725.03 C 428.33 719.05 429.41 713.03 429.59 707.03 C 430.16 691.40 433.33 675.67 440.32 661.60 C 426.96 662.89 414.58 656.77 401.79 654.14 C 392.46 652.51 383.08 650.52 373.56 651.10 M 588.28 739.13 C 594.87 743.98 601.72 748.62 607.37 754.61 C 619.35 766.86 628.11 781.76 636.21 796.74 C 648.05 818.51 656.89 841.91 670.86 862.48 C 673.60 858.88 676.45 855.22 677.85 850.85 C 680.15 843.87 681.87 836.68 685.00 830.00 C 687.98 823.68 690.80 817.02 696.04 812.19 C 685.74 802.81 679.39 790.11 673.10 777.90 C 666.86 765.92 662.24 753.22 657.40 740.64 C 650.63 724.93 641.02 709.76 626.72 699.89 C 608.64 705.87 593.65 720.78 588.28 739.13 M 384.49 735.65 C 385.49 752.83 385.99 770.14 389.66 787.01 C 393.97 808.46 402.60 828.78 406.93 850.24 C 409.41 864.34 410.79 878.73 409.56 893.04 C 408.88 897.22 411.23 901.01 414.56 903.34 C 420.29 907.62 426.56 912.49 434.02 912.62 C 439.26 912.74 443.12 908.80 446.20 905.06 C 449.42 901.13 453.46 897.74 458.49 896.49 C 457.77 883.24 454.65 870.27 453.10 857.11 C 451.66 847.14 452.46 837.05 452.68 827.03 C 453.03 812.95 451.89 798.85 449.35 785.00 C 446.73 767.20 443.73 748.70 433.59 733.41 C 431.31 729.35 426.10 729.20 422.02 728.52 C 409.26 727.41 395.61 728.84 384.49 735.65 M 700.41 814.35 C 698.69 815.26 697.45 816.83 696.36 818.40 C 689.88 828.95 686.01 840.79 682.65 852.63 C 681.28 858.10 676.84 861.94 674.73 867.00 C 674.25 877.54 678.83 887.39 680.70 897.61 C 683.80 911.24 684.08 925.40 688.27 938.80 C 689.95 944.08 691.47 949.65 694.93 954.10 C 698.56 958.49 704.85 958.35 709.96 957.42 C 718.72 955.69 727.57 950.22 730.45 941.37 C 734.07 930.79 732.21 919.38 730.27 908.66 C 728.07 897.57 726.35 886.30 726.82 874.96 C 727.11 864.92 729.09 854.85 727.57 844.83 C 726.98 840.35 724.53 836.48 722.48 832.56 C 719.48 826.83 715.03 821.98 710.12 817.84 C 707.44 815.63 704.02 813.50 700.41 814.35 M 440.38 916.36 C 435.16 918.62 429.46 916.56 424.56 914.44 C 417.70 911.25 411.23 906.96 406.20 901.25 C 393.06 908.94 382.02 920.33 367.33 925.28 C 358.81 928.47 349.36 927.51 340.89 930.79 C 338.27 931.67 335.74 934.64 337.47 937.42 C 341.04 944.08 348.96 946.27 355.67 948.35 C 374.11 952.95 393.41 951.64 412.07 949.20 C 421.46 948.19 430.99 946.65 440.39 948.36 C 445.96 949.10 451.41 950.93 457.07 950.78 C 459.63 950.54 462.86 949.68 463.73 946.91 C 465.67 941.51 465.38 935.64 465.18 930.00 C 464.85 919.98 463.15 910.03 460.34 900.42 C 451.51 902.79 448.69 913.14 440.38 916.36 Z" />
        <path fill="#020202" opacity="1.00"
            d=" M 482.49 257.70 C 481.96 256.38 482.87 255.31 483.67 254.37 C 490.28 267.48 494.75 281.59 498.30 295.81 C 500.72 305.59 504.05 315.21 508.91 324.07 C 511.07 328.05 513.73 331.75 515.62 335.88 C 511.03 334.32 508.46 329.95 505.80 326.22 C 496.18 311.69 493.22 294.23 488.44 277.79 C 486.78 270.99 484.05 264.51 482.49 257.70 Z" />
        <path fill="#020202" opacity="1.00"
            d=" M 399.85 277.16 C 398.63 275.41 396.58 272.91 398.94 271.15 C 404.95 276.16 409.45 282.67 414.23 288.80 C 416.88 292.55 420.54 295.89 421.34 300.63 C 417.72 299.63 415.65 296.39 413.30 293.76 C 408.61 288.40 404.20 282.79 399.85 277.16 Z" />
        <path fill="#020202" opacity="1.00"
            d=" M 462.82 273.54 C 464.65 274.17 465.95 275.55 466.47 277.41 C 472.01 292.60 475.56 308.40 480.41 323.81 C 486.73 344.14 492.43 364.73 500.71 384.38 C 503.68 391.37 506.70 398.56 511.85 404.27 C 512.54 401.71 513.26 399.16 514.06 396.63 C 515.98 399.54 515.94 403.40 514.33 406.42 C 512.79 408.69 509.56 407.58 508.05 405.88 C 503.48 401.11 500.65 395.00 497.91 389.07 C 489.77 370.86 484.12 351.69 478.14 332.70 C 472.23 313.21 466.50 293.59 462.82 273.54 Z" />
        <path fill="#020202" opacity="1.00"
            d=" M 354.45 281.03 C 353.21 279.43 355.91 279.14 356.96 278.90 C 362.77 279.11 367.90 282.37 372.83 285.14 C 380.53 289.86 387.59 295.70 393.55 302.50 C 394.93 303.74 394.68 305.53 394.40 307.18 C 381.93 297.40 370.17 285.34 354.45 281.03 Z" />
        <path fill="#020202" opacity="1.00"
            d=" M 331.80 298.85 C 333.55 299.42 335.28 300.10 336.85 301.10 C 348.89 308.99 362.41 314.43 374.17 322.78 C 378.83 326.41 383.48 330.63 385.92 336.11 C 386.63 338.41 384.34 340.47 382.11 339.93 C 377.20 338.91 373.17 335.63 369.18 332.79 C 365.55 329.88 361.45 327.42 358.62 323.65 C 360.27 323.71 362.05 323.48 363.52 324.44 C 368.49 327.17 373.02 330.63 378.02 333.30 C 371.36 325.82 362.28 321.35 353.96 316.08 C 347.21 311.88 340.00 308.25 334.06 302.88 C 332.81 301.87 332.31 300.30 331.80 298.85 Z" />
        <path fill="#020202" opacity="1.00"
            d=" M 448.35 405.54 C 449.80 401.30 450.04 396.72 451.84 392.61 C 453.21 392.87 453.99 393.66 454.17 394.98 C 454.76 399.50 453.59 404.02 452.59 408.40 C 448.03 426.47 439.46 443.91 426.07 457.08 C 416.42 466.59 405.85 475.19 394.45 482.51 C 392.35 484.00 389.86 484.58 387.31 484.33 C 389.87 479.60 395.27 477.60 398.99 473.94 C 409.32 464.67 420.20 455.82 428.89 444.92 C 437.89 433.24 443.98 419.55 448.35 405.54 Z" />
        <path fill="#020202" opacity="1.00"
            d=" M 401.00 516.12 C 404.06 513.90 406.75 511.15 410.09 509.33 C 412.05 509.03 413.19 511.01 412.56 512.73 C 409.40 523.51 400.90 531.81 391.62 537.65 C 389.23 539.29 386.38 540.00 383.50 539.90 C 385.01 537.62 386.97 535.71 389.25 534.22 C 395.22 530.07 400.51 524.94 404.70 518.98 C 397.63 523.81 390.00 529.59 380.98 529.12 C 378.98 529.22 377.85 527.62 377.27 525.93 C 386.23 526.22 394.09 521.28 401.00 516.12 Z" />
        <path fill="#020202" opacity="1.00"
            d=" M 561.94 568.93 C 562.18 568.33 562.65 567.13 562.89 566.53 C 567.01 573.59 566.99 582.06 567.21 589.99 C 567.28 595.98 566.89 602.78 562.36 607.25 C 556.89 612.55 549.11 614.30 541.83 615.46 C 533.89 616.48 525.93 617.62 517.92 617.75 C 516.02 617.89 514.33 616.91 512.70 616.11 C 516.64 613.48 521.52 613.75 526.02 613.03 C 534.47 611.85 543.02 610.82 551.22 608.36 C 556.20 606.88 561.50 603.74 562.43 598.18 C 564.23 588.49 562.50 578.63 561.94 568.93 Z" />
        <path fill="#020202" opacity="1.00"
            d=" M 465.66 593.73 C 469.37 591.92 472.67 589.10 476.78 588.21 C 478.32 590.39 475.54 591.88 474.14 593.17 C 462.03 601.59 449.19 609.15 435.38 614.42 C 426.67 617.73 417.81 620.67 408.73 622.76 C 400.73 624.64 392.52 626.30 385.23 630.26 C 381.69 632.02 378.52 634.47 374.87 636.02 C 373.24 636.89 370.69 636.05 370.56 634.05 C 370.27 630.52 372.20 627.07 374.76 624.75 C 379.47 620.79 385.48 618.95 390.63 615.68 C 392.66 614.53 394.56 612.87 396.99 612.71 C 397.17 614.40 396.59 616.07 395.27 617.17 C 389.76 622.34 382.46 624.94 376.59 629.62 C 381.63 626.93 386.50 623.81 392.01 622.11 C 402.05 618.88 412.45 616.87 422.38 613.26 C 437.48 608.34 451.53 600.87 465.66 593.73 Z" />
        <path fill="#020202" opacity="1.00"
            d=" M 703.39 841.45 C 706.84 837.00 712.55 834.74 718.07 834.58 C 720.38 834.70 724.60 835.08 723.60 838.43 C 718.78 839.77 713.14 839.56 709.28 843.22 C 704.78 847.48 703.88 854.11 704.25 860.01 C 704.92 877.35 709.25 894.66 706.58 912.04 C 705.84 918.54 703.66 924.75 702.39 931.15 C 701.20 937.18 703.19 943.12 704.34 948.98 C 698.76 946.21 698.21 939.40 697.68 933.94 C 696.69 925.26 699.57 916.84 700.33 908.26 C 702.18 891.46 698.14 874.78 698.30 857.99 C 698.41 852.17 699.70 846.10 703.39 841.45 Z" />
    </g>
    <g id="#f0b58bff">
        <path fill="#f0b58b" opacity="1.00"
            d=" M 417.51 156.38 C 419.67 149.15 423.07 142.38 426.18 135.51 C 426.77 148.99 419.26 160.83 413.78 172.60 C 414.85 167.16 415.81 161.67 417.51 156.38 Z" />
        <path fill="#f0b58b" opacity="1.00"
            d=" M 315.09 153.88 C 323.26 159.25 323.77 170.10 330.23 176.84 C 331.16 177.98 332.70 178.16 333.99 178.68 C 336.40 184.10 342.85 184.47 346.83 188.18 C 350.88 191.37 351.31 196.90 353.98 201.03 C 355.28 203.23 357.25 206.08 360.22 205.27 C 360.83 202.56 359.34 200.04 358.72 197.47 C 362.72 195.62 367.17 195.05 371.08 192.99 C 374.73 190.56 378.66 195.81 382.36 193.41 C 386.11 191.33 390.40 187.93 394.88 190.10 C 399.51 191.83 400.26 197.33 403.59 200.41 C 404.97 201.82 406.89 200.92 408.55 200.67 C 410.28 208.33 413.21 215.90 418.35 221.95 C 411.45 225.13 403.96 226.65 396.73 228.86 C 384.61 232.67 372.02 234.57 359.65 237.31 C 358.35 226.54 354.80 216.04 349.22 206.74 C 347.58 204.36 345.72 201.28 342.49 201.20 C 341.81 203.25 343.34 205.00 344.17 206.74 C 346.30 210.49 347.73 214.59 349.17 218.64 C 342.69 217.28 338.66 211.52 335.98 205.93 C 332.67 198.63 332.07 190.48 329.11 183.06 C 327.11 177.95 323.75 173.54 321.39 168.61 C 319.07 163.80 316.98 158.87 315.09 153.88 Z" />
        <path fill="#f0b58b" opacity="1.00"
            d=" M 541.42 389.00 C 548.91 386.87 556.33 384.17 562.94 379.99 C 560.99 387.92 555.91 394.54 550.57 400.51 C 546.88 404.75 541.61 406.96 536.88 409.76 C 537.54 402.67 540.23 396.00 541.42 389.00 Z" />
        <path fill="#f0b58b" opacity="1.00"
            d=" M 341.88 415.35 C 358.15 408.41 376.04 404.19 393.80 405.58 C 387.25 420.50 376.09 432.57 366.30 445.36 C 354.67 459.96 340.14 471.88 328.03 486.05 C 324.92 490.01 325.84 495.36 326.04 500.02 C 326.63 505.19 325.38 510.32 325.64 515.50 C 321.02 508.41 318.05 500.44 315.48 492.42 C 314.92 490.28 314.91 488.06 314.67 485.88 C 310.46 487.30 311.52 492.61 311.99 496.02 C 313.84 504.66 317.25 513.12 322.91 519.99 C 324.69 522.07 326.12 524.41 327.29 526.88 C 326.73 527.17 325.59 527.75 325.03 528.03 C 322.93 522.72 317.43 520.17 314.21 515.70 C 308.73 509.10 307.88 500.27 305.40 492.37 C 304.49 493.37 303.35 494.43 303.64 495.94 C 304.03 504.31 305.98 513.00 311.31 519.69 C 313.56 522.79 316.87 524.87 319.33 527.78 C 319.47 528.65 319.55 529.52 319.58 530.42 C 315.94 529.01 312.49 527.04 309.77 524.21 C 305.24 519.61 300.85 514.66 298.13 508.73 C 295.43 503.23 295.12 496.97 294.81 490.97 C 294.51 483.28 299.69 476.89 304.78 471.72 C 316.25 460.18 329.09 449.37 336.49 434.56 C 339.26 428.51 342.64 422.25 341.88 415.35 Z" />
        <path fill="#f0b58b" opacity="1.00"
            d=" M 539.05 632.92 C 553.54 627.47 569.28 627.82 584.35 625.11 C 587.77 642.64 592.37 660.47 602.52 675.45 C 607.44 683.11 613.95 689.57 620.92 695.38 C 603.44 702.40 588.14 717.40 584.31 736.27 C 571.02 726.91 562.34 712.73 553.85 699.20 C 543.64 681.52 532.11 664.49 524.08 645.64 C 527.96 640.30 532.72 635.24 539.05 632.92 Z" />
        <path fill="#f0b58b" opacity="1.00"
            d=" M 373.56 651.10 C 383.08 650.52 392.46 652.51 401.79 654.14 C 414.58 656.77 426.96 662.89 440.32 661.60 C 433.33 675.67 430.16 691.40 429.59 707.03 C 429.41 713.03 428.33 719.05 429.34 725.03 C 414.38 721.36 397.62 723.16 384.27 731.06 C 383.57 724.41 380.49 718.43 377.49 712.58 C 374.23 706.29 371.97 699.43 371.37 692.35 C 370.26 678.55 372.82 664.84 373.56 651.10 Z" />
    </g>
    <g id="#f11b27ff">
        <path fill="var(--shirt-color, grey)" opacity="1.00"
            d=" M 427.55 222.57 C 431.11 220.32 434.14 217.19 438.05 215.54 C 441.70 215.12 445.37 216.65 448.45 218.51 C 453.72 222.26 458.55 226.59 463.97 230.14 C 473.24 236.32 484.15 239.43 493.48 245.52 C 505.74 253.07 514.60 264.77 522.47 276.57 C 528.16 285.07 533.83 293.67 540.84 301.17 C 553.77 315.02 564.04 331.63 569.34 349.90 C 570.42 354.61 571.03 359.75 569.39 364.40 C 567.43 368.49 564.30 371.93 560.88 374.84 C 555.49 379.24 548.61 381.02 542.25 383.52 C 544.63 369.27 542.60 354.48 536.47 341.41 C 532.61 333.06 529.50 324.20 528.87 314.96 C 528.88 313.00 528.05 311.25 526.94 309.69 C 523.95 319.57 526.94 330.09 530.50 339.41 C 534.99 349.67 538.34 360.72 537.81 372.03 C 537.38 379.38 536.49 386.71 534.91 393.90 C 533.67 399.55 531.42 405.12 531.78 411.00 C 532.10 418.31 536.70 424.61 537.02 431.92 C 537.31 438.14 537.25 444.54 535.70 450.60 C 531.06 456.35 522.80 456.46 516.01 456.78 C 503.68 456.66 491.12 457.19 479.33 461.15 C 465.20 465.40 453.36 474.50 440.74 481.79 C 431.75 486.96 421.59 489.44 411.98 493.16 C 404.19 495.27 396.04 495.44 388.10 496.80 C 383.72 497.40 379.44 498.77 375.00 498.79 C 372.08 498.83 370.83 495.50 370.45 493.09 C 369.79 486.68 370.31 479.82 366.93 474.04 C 364.02 469.13 362.38 463.26 363.72 457.59 C 376.79 441.55 390.75 425.74 399.51 406.76 C 404.11 408.06 408.53 409.92 412.59 412.46 C 414.31 413.65 416.36 413.98 418.42 413.89 C 419.01 407.01 419.33 400.05 421.57 393.45 C 423.49 385.78 426.83 377.60 424.10 369.72 C 420.54 360.25 422.66 349.81 419.69 340.19 C 418.20 334.90 414.57 330.62 412.21 325.73 C 407.29 314.58 403.63 302.85 397.90 292.06 C 394.17 284.84 386.87 280.68 380.04 276.86 C 378.79 276.01 377.26 276.33 375.89 276.52 C 381.54 282.44 389.85 285.69 393.85 293.16 C 398.32 301.49 401.38 310.49 404.97 319.22 C 402.69 316.54 400.33 313.89 397.59 311.65 C 397.50 313.27 397.36 315.04 398.45 316.40 C 403.42 324.06 410.89 330.03 414.50 338.59 C 418.01 346.95 416.56 356.25 418.19 364.98 C 418.91 369.03 421.22 372.85 420.61 377.08 C 419.31 387.37 414.38 396.93 414.11 407.40 C 403.47 400.84 390.51 399.12 378.28 400.81 C 364.04 402.46 349.91 406.15 337.17 412.83 C 337.47 402.05 339.76 391.02 345.87 381.96 C 348.24 378.36 352.45 376.31 354.34 372.36 C 356.42 367.74 356.93 362.44 355.69 357.52 C 353.01 360.25 353.14 364.34 351.74 367.70 C 350.91 370.42 348.77 372.35 346.81 374.28 C 345.92 366.29 339.69 360.80 335.41 354.52 C 331.91 349.47 328.96 344.03 326.74 338.30 C 324.69 333.40 326.19 327.54 322.99 323.02 C 319.31 317.98 316.50 312.22 315.55 306.01 C 315.22 303.09 316.19 300.20 317.60 297.69 C 321.38 290.99 326.43 285.15 331.00 279.01 C 337.11 270.83 342.19 261.97 347.06 253.02 C 349.10 249.65 351.06 245.36 355.33 244.48 C 369.36 241.00 383.80 239.16 397.62 234.77 C 407.94 231.69 418.57 228.75 427.55 222.57 M 482.49 257.70 C 484.05 264.51 486.78 270.99 488.44 277.79 C 493.22 294.23 496.18 311.69 505.80 326.22 C 508.46 329.95 511.03 334.32 515.62 335.88 C 513.73 331.75 511.07 328.05 508.91 324.07 C 504.05 315.21 500.72 305.59 498.30 295.81 C 494.75 281.59 490.28 267.48 483.67 254.37 C 482.87 255.31 481.96 256.38 482.49 257.70 M 399.85 277.16 C 404.20 282.79 408.61 288.40 413.30 293.76 C 415.65 296.39 417.72 299.63 421.34 300.63 C 420.54 295.89 416.88 292.55 414.23 288.80 C 409.45 282.67 404.95 276.16 398.94 271.15 C 396.58 272.91 398.63 275.41 399.85 277.16 M 462.82 273.54 C 466.50 293.59 472.23 313.21 478.14 332.70 C 484.12 351.69 489.77 370.86 497.91 389.07 C 500.65 395.00 503.48 401.11 508.05 405.88 C 509.56 407.58 512.79 408.69 514.33 406.42 C 515.94 403.40 515.98 399.54 514.06 396.63 C 513.26 399.16 512.54 401.71 511.85 404.27 C 506.70 398.56 503.68 391.37 500.71 384.38 C 492.43 364.73 486.73 344.14 480.41 323.81 C 475.56 308.40 472.01 292.60 466.47 277.41 C 465.95 275.55 464.65 274.17 462.82 273.54 M 354.45 281.03 C 370.17 285.34 381.93 297.40 394.40 307.18 C 394.68 305.53 394.93 303.74 393.55 302.50 C 387.59 295.70 380.53 289.86 372.83 285.14 C 367.90 282.37 362.77 279.11 356.96 278.90 C 355.91 279.14 353.21 279.43 354.45 281.03 M 331.80 298.85 C 332.31 300.30 332.81 301.87 334.06 302.88 C 340.00 308.25 347.21 311.88 353.96 316.08 C 362.28 321.35 371.36 325.82 378.02 333.30 C 373.02 330.63 368.49 327.17 363.52 324.44 C 362.05 323.48 360.27 323.71 358.62 323.65 C 361.45 327.42 365.55 329.88 369.18 332.79 C 373.17 335.63 377.20 338.91 382.11 339.93 C 384.34 340.47 386.63 338.41 385.92 336.11 C 383.48 330.63 378.83 326.41 374.17 322.78 C 362.41 314.43 348.89 308.99 336.85 301.10 C 335.28 300.10 333.55 299.42 331.80 298.85 M 448.35 405.54 C 443.98 419.55 437.89 433.24 428.89 444.92 C 420.20 455.82 409.32 464.67 398.99 473.94 C 395.27 477.60 389.87 479.60 387.31 484.33 C 389.86 484.58 392.35 484.00 394.45 482.51 C 405.85 475.19 416.42 466.59 426.07 457.08 C 439.46 443.91 448.03 426.47 452.59 408.40 C 453.59 404.02 454.76 399.50 454.17 394.98 C 453.99 393.66 453.21 392.87 451.84 392.61 C 450.04 396.72 449.80 401.30 448.35 405.54 Z" />
    </g>
    <g id="#2b3dcdff">
        <path fill="var(--pants-color, grey)" opacity="1.00"
            d=" M 517.04 462.16 C 524.10 462.07 531.37 460.79 537.07 456.33 C 550.11 469.08 559.43 485.87 561.87 504.06 C 564.06 520.13 563.93 537.06 571.13 551.98 C 573.95 557.57 577.71 562.83 578.96 569.10 C 581.09 578.02 579.29 588.19 585.01 596.00 C 589.89 602.65 597.03 607.25 604.03 611.40 C 598.58 614.36 592.99 617.28 586.85 618.51 C 572.88 621.29 558.43 621.08 544.61 624.73 C 537.86 626.41 531.15 629.21 526.20 634.25 C 519.62 640.97 515.36 649.51 510.05 657.19 C 507.15 645.64 500.57 635.60 494.28 625.68 C 491.45 621.18 489.57 616.19 487.16 611.47 C 490.47 605.27 493.80 599.07 496.64 592.63 C 497.60 590.42 498.72 588.19 500.66 586.68 C 508.50 579.93 517.52 574.14 523.20 565.26 C 528.86 556.28 532.86 545.77 532.40 535.02 C 532.46 532.80 531.39 530.64 529.00 530.31 C 529.19 541.38 524.99 551.96 519.38 561.30 C 514.80 568.85 507.88 574.47 501.56 580.47 C 504.74 570.89 506.64 560.94 508.81 551.10 C 508.96 548.88 510.53 544.73 506.99 544.68 C 504.32 549.94 503.59 555.90 501.65 561.43 C 496.61 578.35 489.50 594.59 480.99 610.03 C 472.35 625.81 460.28 639.29 449.41 653.51 C 446.86 657.22 441.95 657.16 437.93 657.18 C 424.83 656.76 412.88 650.57 400.03 648.68 C 391.04 647.37 382.00 645.35 372.87 646.27 C 368.01 646.74 363.40 648.42 358.82 649.99 C 360.20 645.13 362.86 640.83 365.69 636.70 C 369.82 631.14 364.37 624.27 367.53 618.37 C 371.96 608.29 380.33 600.51 388.99 593.99 C 399.67 586.33 411.83 580.65 421.29 571.35 C 425.74 567.10 429.74 561.36 428.97 554.90 C 428.76 551.46 426.63 548.63 424.33 546.24 C 424.80 550.10 426.33 554.04 425.18 557.92 C 423.91 562.47 420.36 565.86 416.91 568.86 C 405.24 578.93 390.57 584.78 379.21 595.24 C 373.12 600.96 367.04 607.24 364.29 615.32 C 363.19 605.04 362.69 594.27 366.47 584.44 C 367.96 579.72 371.33 575.80 372.51 570.99 C 372.27 566.64 368.04 563.53 368.08 559.06 C 367.57 550.55 372.69 543.17 374.02 535.01 C 374.68 530.85 371.38 527.82 369.54 524.51 C 368.09 522.48 368.92 519.94 369.56 517.79 C 371.07 513.22 372.93 508.78 374.86 504.38 C 382.39 503.76 389.75 501.97 397.26 501.25 C 410.70 499.90 424.07 496.51 435.97 489.98 C 451.85 482.98 465.24 470.98 482.09 466.08 C 493.36 462.44 505.32 462.33 517.04 462.16 M 401.00 516.12 C 394.09 521.28 386.23 526.22 377.27 525.93 C 377.85 527.62 378.98 529.22 380.98 529.12 C 390.00 529.59 397.63 523.81 404.70 518.98 C 400.51 524.94 395.22 530.07 389.25 534.22 C 386.97 535.71 385.01 537.62 383.50 539.90 C 386.38 540.00 389.23 539.29 391.62 537.65 C 400.90 531.81 409.40 523.51 412.56 512.73 C 413.19 511.01 412.05 509.03 410.09 509.33 C 406.75 511.15 404.06 513.90 401.00 516.12 M 561.94 568.93 C 562.50 578.63 564.23 588.49 562.43 598.18 C 561.50 603.74 556.20 606.88 551.22 608.36 C 543.02 610.82 534.47 611.85 526.02 613.03 C 521.52 613.75 516.64 613.48 512.70 616.11 C 514.33 616.91 516.02 617.89 517.92 617.75 C 525.93 617.62 533.89 616.48 541.83 615.46 C 549.11 614.30 556.89 612.55 562.36 607.25 C 566.89 602.78 567.28 595.98 567.21 589.99 C 566.99 582.06 567.01 573.59 562.89 566.53 C 562.65 567.13 562.18 568.33 561.94 568.93 M 465.66 593.73 C 451.53 600.87 437.48 608.34 422.38 613.26 C 412.45 616.87 402.05 618.88 392.01 622.11 C 386.50 623.81 381.63 626.93 376.59 629.62 C 382.46 624.94 389.76 622.34 395.27 617.17 C 396.59 616.07 397.17 614.40 396.99 612.71 C 394.56 612.87 392.66 614.53 390.63 615.68 C 385.48 618.95 379.47 620.79 374.76 624.75 C 372.20 627.07 370.27 630.52 370.56 634.05 C 370.69 636.05 373.24 636.89 374.87 636.02 C 378.52 634.47 381.69 632.02 385.23 630.26 C 392.52 626.30 400.73 624.64 408.73 622.76 C 417.81 620.67 426.67 617.73 435.38 614.42 C 449.19 609.15 462.03 601.59 474.14 593.17 C 475.54 591.88 478.32 590.39 476.78 588.21 C 472.67 589.10 469.37 591.92 465.66 593.73 Z" />
        <path fill="var(--socks-color, grey)" opacity="1.00"
            d=" M 588.28 739.13 C 593.65 720.78 608.64 705.87 626.72 699.89 C 641.02 709.76 650.63 724.93 657.40 740.64 C 662.24 753.22 666.86 765.92 673.10 777.90 C 679.39 790.11 685.74 802.81 696.04 812.19 C 690.80 817.02 687.98 823.68 685.00 830.00 C 681.87 836.68 680.15 843.87 677.85 850.85 C 676.45 855.22 673.60 858.88 670.86 862.48 C 656.89 841.91 648.05 818.51 636.21 796.74 C 628.11 781.76 619.35 766.86 607.37 754.61 C 601.72 748.62 594.87 743.98 588.28 739.13 Z" />
        <path fill="var(--socks-color, grey)" opacity="1.00"
            d=" M 384.49 735.65 C 395.61 728.84 409.26 727.41 422.02 728.52 C 426.10 729.20 431.31 729.35 433.59 733.41 C 443.73 748.70 446.73 767.20 449.35 785.00 C 451.89 798.85 453.03 812.95 452.68 827.03 C 452.46 837.05 451.66 847.14 453.10 857.11 C 454.65 870.27 457.77 883.24 458.49 896.49 C 453.46 897.74 449.42 901.13 446.20 905.06 C 443.12 908.80 439.26 912.74 434.02 912.62 C 426.56 912.49 420.29 907.62 414.56 903.34 C 411.23 901.01 408.88 897.22 409.56 893.04 C 410.79 878.73 409.41 864.34 406.93 850.24 C 402.60 828.78 393.97 808.46 389.66 787.01 C 385.99 770.14 385.49 752.83 384.49 735.65 Z" />
    </g>
    <g id="#4d4d4dff">
        <path fill="#4d4d4d" opacity="1.00"
            d=" M 700.41 814.35 C 704.02 813.50 707.44 815.63 710.12 817.84 C 715.03 821.98 719.48 826.83 722.48 832.56 C 724.53 836.48 726.98 840.35 727.57 844.83 C 729.09 854.85 727.11 864.92 726.82 874.96 C 726.35 886.30 728.07 897.57 730.27 908.66 C 732.21 919.38 734.07 930.79 730.45 941.37 C 727.57 950.22 718.72 955.69 709.96 957.42 C 704.85 958.35 698.56 958.49 694.93 954.10 C 691.47 949.65 689.95 944.08 688.27 938.80 C 684.08 925.40 683.80 911.24 680.70 897.61 C 678.83 887.39 674.25 877.54 674.73 867.00 C 676.84 861.94 681.28 858.10 682.65 852.63 C 686.01 840.79 689.88 828.95 696.36 818.40 C 697.45 816.83 698.69 815.26 700.41 814.35 M 703.39 841.45 C 699.70 846.10 698.41 852.17 698.30 857.99 C 698.14 874.78 702.18 891.46 700.33 908.26 C 699.57 916.84 696.69 925.26 697.68 933.94 C 698.21 939.40 698.76 946.21 704.34 948.98 C 703.19 943.12 701.20 937.18 702.39 931.15 C 703.66 924.75 705.84 918.54 706.58 912.04 C 709.25 894.66 704.92 877.35 704.25 860.01 C 703.88 854.11 704.78 847.48 709.28 843.22 C 713.14 839.56 718.78 839.77 723.60 838.43 C 724.60 835.08 720.38 834.70 718.07 834.58 C 712.55 834.74 706.84 837.00 703.39 841.45 Z" />
        <path fill="#4d4d4d" opacity="1.00"
            d=" M 440.38 916.36 C 448.69 913.14 451.51 902.79 460.34 900.42 C 463.15 910.03 464.85 919.98 465.18 930.00 C 465.38 935.64 465.67 941.51 463.73 946.91 C 462.86 949.68 459.63 950.54 457.07 950.78 C 451.41 950.93 445.96 949.10 440.39 948.36 C 430.99 946.65 421.46 948.19 412.07 949.20 C 393.41 951.64 374.11 952.95 355.67 948.35 C 348.96 946.27 341.04 944.08 337.47 937.42 C 335.74 934.64 338.27 931.67 340.89 930.79 C 349.36 927.51 358.81 928.47 367.33 925.28 C 382.02 920.33 393.06 908.94 406.20 901.25 C 411.23 906.96 417.70 911.25 424.56 914.44 C 429.46 916.56 435.16 918.62 440.38 916.36 Z" />
    </g>
</svg>