<?xml version="1.0" encoding="UTF-8" ?>
<!DOCTYPE svg PUBLIC "-//W3C//DTD SVG 1.1//EN" "http://www.w3.org/Graphics/SVG/1.1/DTD/svg11.dtd">
<svg width="1000pt" height="1000pt" viewBox="0 0 1000 1000" version="1.1" xmlns="http://www.w3.org/2000/svg">
    <g id="#020202ff">
        <path fill="#020202" opacity="1.00"
            d=" M 441.18 28.21 C 447.92 30.21 454.98 31.81 462.05 30.81 C 467.77 30.01 473.78 30.50 479.10 32.88 C 482.99 34.66 485.32 38.48 487.46 42.00 C 494.30 43.48 501.16 47.14 504.27 53.70 C 508.81 61.79 507.34 71.57 511.23 79.88 C 517.61 94.32 517.29 110.74 514.12 125.94 C 513.17 130.12 513.01 134.79 510.36 138.35 C 508.39 139.13 506.19 138.30 504.16 138.16 C 503.47 141.25 502.75 144.39 501.20 147.18 C 496.46 155.54 491.76 164.07 485.09 171.09 C 483.77 172.40 482.14 173.33 480.51 174.20 C 478.95 176.28 477.31 178.29 475.62 180.26 C 476.31 181.92 476.99 183.59 477.66 185.27 C 489.49 188.92 502.06 191.54 512.36 198.78 C 524.84 207.77 530.25 223.19 542.05 232.85 C 551.78 241.20 562.25 248.67 571.45 257.63 C 579.90 265.62 586.72 275.11 593.56 284.47 C 598.44 291.17 604.47 296.92 610.61 302.46 C 617.85 308.57 624.66 315.20 632.39 320.70 C 634.60 322.70 637.92 324.08 639.01 326.94 C 638.29 330.84 636.83 334.58 636.38 338.54 C 635.31 346.60 632.63 354.40 628.64 361.47 C 634.11 368.02 637.05 376.17 640.11 384.02 C 642.68 391.33 645.76 398.48 647.73 406.00 C 649.65 413.16 648.64 420.88 645.60 427.59 C 640.68 438.86 631.91 447.77 623.52 456.53 C 610.82 469.99 597.15 482.47 583.32 494.76 C 583.97 499.72 584.65 505.26 581.78 509.70 C 579.63 513.40 575.46 515.02 571.55 516.14 C 574.56 522.64 575.72 529.82 575.54 536.95 C 575.85 556.83 570.01 576.02 565.45 595.17 C 563.19 603.61 560.74 612.02 559.67 620.72 C 557.96 631.99 554.77 643.00 550.55 653.58 C 549.00 658.27 546.99 662.98 546.93 667.98 C 547.63 677.16 551.88 686.76 547.76 695.72 C 546.79 698.86 543.27 699.72 540.50 700.55 C 534.23 701.94 527.98 703.42 521.85 705.33 C 519.77 716.36 519.74 727.65 517.47 738.65 C 533.59 740.79 548.11 749.22 560.02 759.99 C 571.12 769.89 580.90 781.19 592.26 790.83 C 604.87 802.64 617.72 814.26 631.69 824.47 C 638.12 828.36 645.99 826.63 652.96 825.48 C 660.78 823.82 669.09 823.70 676.69 826.42 C 685.58 829.58 693.29 836.62 696.24 845.71 C 698.95 854.11 699.10 863.21 702.72 871.36 C 709.99 888.84 724.06 902.03 734.36 917.62 C 738.95 924.68 743.85 931.88 745.66 940.25 C 746.80 945.88 746.09 952.55 741.80 956.76 C 737.81 960.39 731.86 959.77 726.98 958.82 C 713.35 955.53 701.06 948.35 689.73 940.31 C 678.98 932.52 668.58 924.11 659.70 914.20 C 653.78 907.10 647.88 899.96 642.56 892.39 C 639.50 892.96 636.32 893.50 633.25 892.65 C 620.90 889.41 609.44 883.65 597.99 878.11 C 585.87 871.98 572.70 867.65 561.90 859.18 C 545.54 846.95 533.87 829.66 517.53 817.42 C 514.49 815.13 511.34 813.01 508.21 810.85 C 511.59 817.17 514.17 823.89 516.01 830.81 C 518.83 841.69 518.83 853.11 522.05 863.91 C 524.47 872.31 527.60 880.52 531.65 888.29 C 534.22 893.64 537.56 898.58 540.11 903.94 C 542.66 909.25 542.23 915.29 542.86 921.00 C 543.21 924.55 544.93 927.73 546.10 931.05 C 549.03 938.94 549.13 947.75 546.88 955.82 C 545.55 959.96 541.27 962.07 537.49 963.50 C 533.02 965.21 528.12 964.66 523.59 963.51 C 512.62 960.79 501.19 959.97 489.93 960.87 C 481.81 961.47 473.61 962.57 465.51 961.23 C 457.75 959.93 450.26 957.41 442.71 955.28 C 434.44 952.70 426.04 950.42 418.10 946.91 C 414.89 945.30 411.13 943.59 409.72 940.03 C 408.32 935.32 412.34 931.38 415.95 929.06 C 424.22 923.47 434.40 922.86 443.94 921.18 C 450.81 920.09 456.77 916.28 462.15 912.07 C 467.28 908.02 473.82 905.97 480.35 906.64 C 476.11 893.01 469.37 880.30 461.62 868.36 C 457.11 860.84 451.74 853.80 448.28 845.69 C 442.83 832.98 438.89 819.70 434.23 806.70 C 431.08 797.99 428.12 789.21 425.36 780.37 C 421.27 765.84 414.34 752.31 406.79 739.31 C 401.96 730.86 397.46 722.02 395.48 712.42 C 393.56 702.68 394.44 692.67 396.19 682.99 C 395.97 669.63 397.45 656.27 396.67 642.91 C 396.02 632.83 392.75 623.14 392.17 613.05 C 391.22 604.34 393.40 595.66 392.58 586.95 C 391.96 578.12 387.75 570.11 386.28 561.46 C 384.90 555.27 384.96 548.87 385.81 542.62 C 382.55 541.74 378.96 541.08 376.57 538.49 C 370.03 532.10 367.95 522.75 366.99 513.99 C 365.53 505.33 367.92 496.62 366.97 487.94 C 366.18 477.21 361.78 466.92 362.52 456.06 C 363.26 447.77 366.37 439.97 367.94 431.84 C 370.94 415.21 367.02 398.47 364.79 382.00 C 362.68 367.52 357.80 352.41 362.66 337.96 C 358.00 342.56 352.97 346.76 348.28 351.32 C 345.70 353.46 346.00 357.07 345.71 360.07 C 345.14 373.62 343.07 387.14 338.81 400.03 C 333.84 416.65 327.39 432.88 318.70 447.92 C 325.20 446.61 332.36 444.11 338.72 447.25 C 345.41 450.06 350.27 455.68 355.05 460.91 C 357.38 463.73 360.35 467.06 359.40 471.03 C 359.02 473.20 356.58 473.70 354.98 474.66 C 355.58 477.48 355.82 480.56 354.16 483.10 C 352.89 485.67 349.93 486.41 347.46 487.29 C 347.38 489.59 347.68 492.23 346.00 494.07 C 343.73 496.61 340.12 497.03 337.04 497.99 C 336.45 501.18 337.44 506.15 333.71 507.64 C 328.46 508.42 323.19 506.87 317.95 506.48 C 311.71 505.96 306.28 502.29 302.33 497.61 C 297.58 492.07 291.70 487.40 288.09 480.96 C 285.20 475.77 285.90 469.61 286.46 463.95 C 287.76 452.67 287.37 441.29 288.01 429.97 C 288.70 412.87 289.76 395.71 293.20 378.90 C 295.68 365.40 299.49 352.03 305.86 339.81 C 309.18 333.42 313.20 327.43 317.29 321.52 C 306.57 313.45 298.41 301.51 296.92 287.98 C 296.52 283.01 297.78 277.83 300.91 273.89 C 304.31 269.61 308.77 266.32 313.36 263.42 C 321.23 258.42 328.89 253.04 335.89 246.87 C 341.98 241.55 346.01 234.38 351.78 228.74 C 357.12 223.25 363.66 219.17 370.00 214.95 C 374.27 212.16 377.78 208.44 381.44 204.94 C 376.29 199.92 372.94 193.45 370.03 186.96 C 368.30 183.20 367.62 179.00 365.50 175.42 C 361.48 173.42 356.12 173.63 353.27 169.65 C 350.45 166.47 352.27 162.11 353.67 158.72 C 357.86 149.17 361.99 138.58 359.42 128.02 C 357.80 121.01 355.32 114.15 355.01 106.89 C 354.27 107.16 352.79 107.70 352.05 107.97 C 351.52 103.81 351.55 99.56 352.92 95.55 C 349.87 98.02 346.95 100.63 344.05 103.27 C 344.77 98.31 345.61 93.26 347.68 88.65 C 350.32 83.21 356.59 80.73 359.15 75.21 C 363.11 66.99 367.73 58.68 375.37 53.31 C 379.30 49.93 384.81 49.15 388.45 45.38 C 403.13 33.25 423.39 28.23 442.04 32.24 C 441.83 31.23 441.40 29.22 441.18 28.21 M 358.16 105.20 C 359.47 113.16 362.50 120.67 364.31 128.50 C 367.29 124.87 371.27 121.83 376.03 121.14 C 383.83 119.48 392.80 124.12 394.35 132.30 C 389.16 133.79 383.95 135.19 378.74 136.59 C 377.61 134.97 376.53 133.31 375.49 131.64 C 372.18 131.83 368.88 132.02 365.58 132.28 C 365.71 137.32 365.41 142.39 364.01 147.27 C 362.55 153.86 359.00 159.71 357.00 166.12 C 360.71 168.89 365.79 168.71 369.38 171.64 C 371.97 174.45 372.76 178.36 374.18 181.81 C 376.97 188.90 380.33 196.00 385.70 201.53 C 393.50 196.97 402.57 195.73 411.00 192.83 C 418.56 190.21 426.29 188.12 433.95 185.80 C 442.41 183.27 451.29 183.18 460.01 182.33 C 464.47 181.89 468.82 183.38 473.27 183.41 C 469.23 181.48 464.48 182.63 460.38 180.79 C 454.65 178.35 448.66 176.12 443.66 172.34 C 438.60 168.29 440.84 161.09 439.20 155.59 C 436.99 155.51 434.79 155.43 432.59 155.30 C 436.81 149.01 439.18 141.76 441.26 134.55 C 442.50 129.90 442.46 124.51 439.64 120.44 C 437.77 117.66 433.70 116.98 431.00 118.93 C 426.62 121.55 427.10 128.09 422.38 130.32 C 418.47 132.39 414.84 135.12 412.79 139.15 C 412.63 134.63 412.79 130.12 413.05 125.62 C 409.58 126.05 406.09 126.30 402.60 126.50 C 406.87 119.60 410.44 111.17 408.01 102.99 C 407.23 100.97 405.78 97.73 403.11 98.68 C 395.86 100.42 388.33 100.78 380.93 99.93 C 379.29 100.06 378.17 98.90 377.12 97.86 C 371.23 101.35 364.49 102.77 358.16 105.20 M 432.43 191.65 C 426.01 193.57 419.48 195.16 413.16 197.43 C 406.03 199.96 398.49 201.32 391.59 204.49 C 386.96 206.60 383.57 210.47 380.04 213.99 C 373.80 220.36 365.33 223.83 358.82 229.87 C 352.09 235.58 347.85 243.49 341.74 249.76 C 333.29 257.92 323.39 264.36 313.45 270.53 C 308.46 273.63 304.18 277.89 301.62 283.22 C 307.35 281.03 313.54 279.08 319.73 280.32 C 329.79 282.17 337.63 289.41 344.63 296.39 C 350.86 302.84 356.96 309.45 362.31 316.66 C 366.35 321.85 370.45 327.81 377.12 329.71 C 383.00 331.61 389.08 329.11 394.14 326.17 C 399.84 322.70 405.30 318.75 409.96 313.95 C 413.85 310.04 415.84 304.48 415.51 298.99 C 415.24 291.94 415.65 284.85 417.47 278.00 C 418.90 272.80 419.77 267.20 423.17 262.83 C 424.32 268.97 421.92 274.92 421.13 280.94 C 419.69 288.15 420.24 295.54 420.59 302.83 C 423.63 296.84 426.80 290.91 429.90 284.94 C 431.87 281.27 433.50 277.11 437.24 274.85 C 436.85 279.72 434.47 284.04 432.46 288.39 C 428.87 295.95 425.86 303.96 420.49 310.50 C 412.91 319.73 403.57 327.70 392.72 332.81 C 388.72 334.58 384.46 336.32 379.99 335.94 C 376.26 335.74 372.80 334.20 369.37 332.86 C 367.63 337.73 365.98 342.75 365.95 347.98 C 365.84 359.85 369.33 371.32 370.99 382.99 C 373.11 398.17 376.45 413.50 374.44 428.89 C 373.34 438.14 369.46 446.81 368.41 456.07 C 367.81 463.96 370.12 471.66 371.80 479.28 C 374.76 474.26 378.23 469.48 382.71 465.71 C 388.68 460.64 395.30 456.37 401.08 451.05 C 408.02 444.69 414.73 438.05 421.21 431.21 C 425.67 426.57 429.01 420.99 433.56 416.44 C 434.80 419.68 433.61 422.97 431.69 425.64 C 421.20 441.51 407.23 454.91 391.62 465.71 C 383.93 471.08 376.68 478.10 373.47 487.08 C 373.71 500.41 370.66 514.31 375.64 527.14 C 377.35 531.12 379.40 535.98 384.12 537.00 C 396.30 540.66 408.52 534.85 418.96 529.00 C 433.15 521.38 444.72 509.95 458.19 501.24 C 465.07 496.37 472.83 492.98 480.67 490.00 C 469.63 489.65 458.59 489.45 447.59 490.42 C 448.88 488.67 450.75 487.39 452.93 487.11 C 478.57 482.29 505.03 487.53 529.02 496.94 C 539.07 500.73 548.08 507.04 558.61 509.56 C 563.38 510.72 568.48 511.51 573.31 510.27 C 578.01 508.98 580.31 503.46 578.88 499.00 C 576.92 491.34 570.70 485.95 564.81 481.17 C 558.46 476.11 553.42 469.64 549.23 462.74 C 544.21 454.47 538.65 446.52 534.18 437.92 C 529.44 428.86 523.87 420.28 518.47 411.61 C 517.03 409.47 516.22 407.00 516.05 404.43 C 517.40 405.53 518.72 406.69 519.90 407.99 C 529.35 419.10 535.93 432.20 543.44 444.60 C 551.12 455.59 557.19 468.07 567.84 476.62 C 567.66 465.59 566.55 454.60 565.60 443.62 C 562.91 428.23 561.18 412.48 563.47 396.92 C 565.06 381.39 572.75 367.35 575.04 351.97 C 577.32 340.47 575.16 328.76 576.08 317.20 C 577.58 318.40 579.13 319.79 579.37 321.83 C 580.97 329.45 580.99 337.30 581.13 345.06 C 581.24 354.80 578.88 364.34 575.81 373.52 C 578.26 374.05 580.94 374.36 582.96 376.03 C 585.84 378.06 587.91 381.16 591.02 382.86 C 595.72 381.97 599.96 379.52 604.03 377.09 C 614.34 370.57 623.67 361.45 627.73 349.69 C 630.67 342.50 630.63 334.51 633.76 327.39 C 622.48 319.45 612.09 310.32 601.96 300.98 C 591.13 291.27 584.23 278.21 574.41 267.59 C 563.34 255.18 549.27 246.11 536.80 235.25 C 525.33 225.20 520.16 209.19 506.64 201.26 C 496.53 195.66 485.04 193.33 474.17 189.67 C 460.37 187.39 445.89 187.49 432.43 191.65 M 301.92 290.59 C 303.10 294.37 304.50 298.11 306.49 301.55 C 309.89 307.77 315.25 312.53 320.25 317.43 C 325.52 310.10 330.89 302.84 336.55 295.80 C 332.35 292.27 328.18 288.33 322.90 286.49 C 315.65 284.51 308.49 287.85 301.92 290.59 M 311.14 340.16 C 304.05 352.91 300.01 367.12 297.76 381.48 C 293.34 406.41 293.70 431.82 292.39 457.02 C 292.19 463.52 290.25 470.08 291.68 476.55 C 293.86 482.68 299.11 486.94 303.30 491.69 C 307.00 495.24 310.34 500.16 315.85 500.82 C 321.13 501.52 326.46 501.87 331.74 502.64 C 331.94 497.68 332.51 491.92 328.83 487.98 C 325.02 483.76 320.53 480.13 315.61 477.27 C 315.66 484.94 321.74 490.29 324.90 496.74 C 320.83 496.30 318.54 492.75 316.14 489.90 C 312.83 486.06 309.86 480.82 311.68 475.63 C 312.50 473.18 315.33 473.11 317.44 472.68 C 317.51 470.52 317.37 467.82 319.47 466.52 C 321.62 464.93 324.20 466.32 326.44 466.94 C 326.21 464.99 325.60 462.99 326.10 461.05 C 326.50 459.19 328.40 458.37 329.75 457.29 C 329.24 454.99 328.89 452.65 328.64 450.31 C 323.30 451.06 318.13 453.36 312.66 452.73 C 318.35 440.00 324.65 427.49 329.14 414.25 C 333.48 401.12 337.99 387.92 339.75 374.15 C 340.67 368.11 340.98 362.01 341.50 355.93 C 341.68 352.98 342.82 350.07 345.06 348.08 C 351.79 341.46 358.98 335.33 365.39 328.39 C 356.97 318.53 349.05 308.25 339.85 299.08 C 330.39 312.85 319.32 325.53 311.14 340.16 M 592.33 388.23 C 596.46 394.02 600.52 400.67 600.17 408.05 C 599.43 414.69 595.88 420.65 591.71 425.72 C 584.81 434.31 577.91 442.91 571.62 451.96 C 572.53 461.56 574.00 471.20 573.08 480.86 C 576.18 483.71 578.93 486.92 581.22 490.46 C 593.56 479.07 606.09 467.86 617.68 455.68 C 627.43 445.56 638.48 435.52 642.81 421.70 C 645.23 414.26 642.91 406.52 640.33 399.48 C 636.07 387.70 632.12 375.78 626.72 364.46 C 618.16 375.73 606.14 384.65 592.33 388.23 M 574.10 378.57 C 570.02 389.22 568.22 400.61 567.83 411.97 C 567.62 422.77 569.99 433.38 570.67 444.12 C 576.42 435.78 583.04 428.11 589.11 420.02 C 592.28 415.38 595.43 409.86 594.36 404.03 C 592.71 395.33 586.87 388.31 580.98 382.04 C 579.22 380.00 576.52 379.40 574.10 378.57 M 333.16 450.90 C 332.39 457.23 337.73 461.44 341.62 465.51 C 343.60 466.86 342.60 470.31 339.99 469.66 C 336.51 467.36 333.81 464.05 330.20 461.91 C 330.48 467.35 333.23 472.22 336.94 476.07 C 338.56 477.41 337.87 479.64 335.98 480.29 C 330.58 477.66 326.86 472.47 321.30 470.04 C 321.17 476.60 327.47 479.56 331.34 483.71 C 334.15 486.43 335.78 490.06 336.70 493.82 C 338.74 492.85 340.98 492.13 342.74 490.65 C 342.64 488.32 341.52 486.17 341.43 483.84 C 344.24 482.04 348.62 483.71 350.67 480.67 C 352.95 477.48 350.01 473.91 349.66 470.58 C 351.55 470.39 353.45 470.21 355.34 470.01 C 352.51 464.92 348.21 460.91 344.13 456.84 C 341.14 453.88 337.56 451.07 333.16 450.90 M 487.52 493.81 C 471.09 497.67 457.47 508.16 444.48 518.41 C 432.13 528.30 418.53 536.93 403.47 542.03 C 418.05 560.15 434.04 577.45 453.26 590.74 C 455.17 592.02 456.76 593.70 458.25 595.44 C 453.63 596.06 449.58 593.62 446.01 591.05 C 427.76 577.89 411.17 562.02 399.10 542.92 C 396.70 543.10 394.31 543.25 391.92 543.41 C 395.95 552.38 402.76 560.05 405.24 569.72 C 407.66 580.68 407.60 592.15 411.38 602.82 C 413.89 610.04 415.67 617.53 416.31 625.17 C 417.16 635.04 418.64 645.09 416.72 654.94 C 416.06 658.53 414.89 662.22 416.02 665.85 C 420.44 683.62 426.88 700.98 429.01 719.26 C 435.23 717.78 441.58 716.49 448.01 716.89 C 456.72 717.14 465.28 719.62 474.04 718.98 C 481.13 718.52 488.37 717.18 494.61 713.60 C 500.82 710.15 506.87 706.37 513.38 703.49 C 520.57 700.09 528.35 698.20 536.12 696.65 C 538.37 696.16 540.69 695.76 542.78 694.74 C 544.90 690.67 544.00 685.77 543.47 681.41 C 542.45 676.36 542.45 670.91 539.79 666.37 C 535.89 660.07 530.60 654.66 524.60 650.34 C 517.16 644.91 510.45 638.45 504.87 631.12 C 499.63 624.29 496.29 616.20 493.90 607.99 C 493.14 606.21 494.08 604.46 494.53 602.76 C 497.50 608.43 499.72 614.48 503.04 619.96 C 506.15 625.58 510.25 630.53 514.47 635.34 C 510.93 624.92 509.84 613.92 508.08 603.12 C 507.50 600.14 507.48 597.02 508.81 594.22 C 512.16 600.39 512.73 607.51 514.55 614.19 C 516.84 623.00 517.11 632.77 522.76 640.33 C 528.70 648.29 537.47 653.86 542.08 662.87 C 544.14 653.24 548.56 644.34 550.83 634.77 C 553.25 626.07 554.29 617.08 556.23 608.27 C 558.39 599.46 560.77 590.71 562.67 581.83 C 567.10 564.94 570.67 547.57 569.98 530.01 C 569.82 525.31 568.49 520.77 566.96 516.36 C 558.47 515.65 550.18 513.24 542.58 509.41 C 529.07 502.33 514.64 497.04 499.78 493.65 C 495.74 492.75 491.55 493.07 487.52 493.81 M 390.70 550.95 C 391.09 560.67 394.56 569.79 397.20 579.02 C 399.29 587.53 398.81 596.37 397.96 605.01 C 396.97 616.60 401.04 627.73 402.50 639.09 C 404.04 650.67 403.67 662.40 402.88 674.02 C 402.83 677.17 402.07 680.97 404.61 683.42 C 408.26 687.26 413.13 689.60 417.76 692.04 C 415.19 683.36 412.34 674.75 410.45 665.89 C 409.56 662.09 410.55 658.26 411.32 654.55 C 413.19 645.29 411.47 635.85 410.62 626.58 C 409.92 618.93 408.26 611.39 405.72 604.14 C 401.78 592.93 402.22 580.82 399.39 569.37 C 397.39 562.85 393.73 557.02 390.70 550.95 M 400.48 688.24 C 399.22 697.50 398.80 707.17 401.59 716.21 C 405.63 729.48 414.23 740.62 419.97 753.13 C 426.56 746.68 435.46 743.04 444.55 742.01 C 442.27 735.38 440.45 728.60 437.88 722.08 C 434.21 722.61 430.56 723.24 426.89 723.75 C 422.63 715.80 421.89 706.66 419.43 698.11 C 412.50 696.19 406.10 692.69 400.48 688.24 M 491.62 720.55 C 481.86 723.91 471.25 724.93 461.05 723.30 C 454.83 722.35 448.57 721.61 442.27 721.58 C 449.68 739.32 453.33 758.55 462.24 775.71 C 465.86 782.76 471.45 788.69 478.06 793.03 C 483.19 796.26 489.13 797.78 494.90 799.46 C 493.16 789.41 494.43 779.03 497.66 769.41 C 501.18 759.16 506.79 748.92 516.22 743.02 C 506.56 741.89 496.68 742.53 487.33 745.25 C 484.79 745.83 481.96 747.33 479.64 745.30 C 489.39 739.16 501.39 737.97 512.66 738.19 C 514.67 727.74 515.12 717.04 517.99 706.76 C 508.81 710.61 500.68 716.50 491.62 720.55 M 510.17 756.11 C 501.28 769.26 497.97 785.88 500.53 801.50 C 513.76 807.78 525.65 816.67 535.84 827.16 C 545.73 837.29 555.22 847.96 566.75 856.31 C 573.18 860.91 580.39 864.26 587.63 867.38 C 601.94 873.61 615.36 881.87 630.21 886.86 C 633.80 888.06 637.87 888.78 641.51 887.33 C 644.95 885.86 646.18 881.42 644.97 878.09 C 641.28 865.25 631.19 855.45 627.22 842.74 C 625.60 837.99 627.59 833.18 630.05 829.15 C 619.32 820.92 608.63 812.59 598.84 803.24 C 588.85 793.87 578.42 784.97 568.94 775.06 C 556.01 761.69 541.16 748.92 522.69 744.28 C 517.76 747.33 513.38 751.26 510.17 756.11 M 422.12 757.54 C 427.81 769.64 431.14 782.61 435.63 795.16 C 441.21 810.36 446.18 825.80 452.13 840.86 C 455.90 850.75 462.43 859.17 467.85 868.17 C 475.50 880.53 482.75 893.73 484.83 908.33 C 488.14 910.67 490.98 913.97 494.99 915.13 C 500.09 916.38 504.99 913.69 509.18 911.09 C 516.35 906.50 524.09 902.30 532.67 901.25 C 521.68 884.97 514.07 866.14 512.28 846.49 C 511.11 832.21 506.55 817.76 497.32 806.60 C 495.22 803.56 491.24 803.32 488.05 802.15 C 475.96 798.89 465.42 790.57 459.24 779.71 C 453.36 769.72 450.31 758.45 446.41 747.61 C 437.47 748.03 428.86 751.69 422.12 757.54 M 634.13 831.10 C 632.39 834.27 630.29 837.84 631.68 841.58 C 636.32 855.45 647.99 866.27 650.32 881.06 C 651.02 884.33 649.24 887.32 647.69 890.05 C 656.91 902.06 666.46 913.98 678.02 923.86 C 690.33 934.29 703.49 944.08 718.36 950.56 C 723.91 952.82 729.78 955.33 735.91 954.63 C 739.49 954.10 740.93 950.14 741.16 946.98 C 741.87 939.03 737.45 931.92 733.51 925.39 C 722.85 907.46 706.40 893.46 697.76 874.25 C 693.86 866.29 693.23 857.34 691.10 848.86 C 688.95 840.36 681.66 833.91 673.48 831.34 C 660.51 826.83 647.19 835.16 634.13 831.10 M 509.04 917.11 C 503.06 920.48 495.11 921.78 489.07 917.87 C 485.02 915.30 481.26 911.17 476.01 911.78 C 467.83 912.14 462.47 919.14 455.54 922.48 C 447.24 926.87 437.59 926.58 428.65 928.67 C 422.64 930.21 416.22 932.90 413.31 938.78 C 417.02 941.17 420.96 943.25 425.17 944.61 C 433.89 947.50 442.74 949.95 451.56 952.51 C 457.91 954.31 464.30 956.28 470.93 956.58 C 478.98 956.99 486.95 955.45 494.98 955.21 C 505.34 954.77 515.74 956.15 525.66 959.16 C 530.83 960.73 537.62 960.82 541.30 956.23 C 544.24 951.41 543.67 945.32 543.02 939.95 C 542.32 933.27 537.46 927.83 537.13 921.08 C 536.79 916.20 536.64 911.30 535.81 906.47 C 525.77 906.28 517.43 912.47 509.04 917.11 Z" />
        <path fill="#020202" opacity="1.00"
            d=" M 517.91 316.03 C 517.06 311.16 515.78 306.17 516.94 301.23 C 519.29 306.01 520.26 311.28 521.69 316.37 C 524.17 325.65 527.89 334.55 531.59 343.40 C 536.99 356.48 545.15 368.17 550.67 381.19 C 550.48 372.08 550.42 362.93 551.35 353.86 C 551.47 351.48 552.58 349.34 553.85 347.38 C 554.59 350.19 554.94 353.09 554.89 356.01 C 554.80 367.69 554.73 379.39 555.70 391.04 C 556.70 403.20 560.54 414.93 561.72 427.05 C 562.41 428.92 558.69 429.31 558.60 427.50 C 554.41 416.14 553.40 403.89 549.52 392.43 C 544.47 376.89 535.18 363.27 528.65 348.39 C 524.29 337.89 519.92 327.27 517.91 316.03 Z" />
        <path fill="#020202" opacity="1.00"
            d=" M 448.96 320.98 C 450.46 315.91 451.38 310.57 454.19 306.00 C 456.23 309.82 454.70 314.12 454.05 318.10 C 451.04 334.46 444.47 349.85 438.21 365.17 C 430.18 383.05 422.79 401.41 411.68 417.67 C 405.19 428.15 397.16 437.71 392.05 449.01 C 390.51 452.02 389.73 455.60 387.04 457.88 C 384.72 455.89 386.08 452.84 386.54 450.36 C 388.03 443.98 390.66 437.88 394.49 432.55 C 401.36 422.64 408.18 412.66 414.17 402.18 C 421.44 388.46 427.85 374.30 434.18 360.13 C 439.58 347.27 445.32 334.48 448.96 320.98 Z" />
        <path fill="#020202" opacity="1.00"
            d=" M 438.03 631.81 C 437.25 630.51 437.34 627.07 439.57 628.53 C 443.37 632.74 445.89 637.99 449.92 642.04 C 457.04 649.35 464.70 656.23 473.36 661.68 C 480.15 666.04 485.57 672.08 491.63 677.34 C 495.69 680.94 500.58 683.36 505.45 685.65 C 503.73 683.31 502.08 680.90 500.71 678.35 C 505.31 678.89 508.97 682.27 511.11 686.18 C 512.58 689.25 508.78 691.86 505.99 691.11 C 495.98 689.64 487.84 682.93 481.08 675.82 C 474.23 668.56 465.48 663.53 458.27 656.68 C 450.38 649.47 442.17 641.90 438.03 631.81 Z" />
        <path fill="#020202" opacity="1.00"
            d=" M 664.81 851.97 C 663.62 844.77 666.98 835.75 674.80 834.03 C 672.71 839.14 668.75 844.08 669.78 849.94 C 671.36 859.25 676.64 867.38 682.09 874.90 C 685.75 879.84 689.21 885.11 690.65 891.17 C 692.93 900.01 695.96 908.99 702.12 915.94 C 706.15 921.27 712.05 924.89 715.58 930.62 C 712.97 930.19 710.30 929.56 708.23 927.82 C 703.92 924.49 699.61 921.08 695.89 917.08 C 692.15 913.09 689.85 908.03 688.02 902.95 C 685.44 896.18 684.68 888.62 680.29 882.64 C 673.70 873.27 666.59 863.58 664.81 851.97 Z" />
    </g>
    <g id="#f0b58bff">
        <path fill="#f0b58b" opacity="1.00"
            d=" M 358.16 105.20 C 364.49 102.77 371.23 101.35 377.12 97.86 C 378.17 98.90 379.29 100.06 380.93 99.93 C 388.33 100.78 395.86 100.42 403.11 98.68 C 405.78 97.73 407.23 100.97 408.01 102.99 C 410.44 111.17 406.87 119.60 402.60 126.50 C 406.09 126.30 409.58 126.05 413.05 125.62 C 412.79 130.12 412.63 134.63 412.79 139.15 C 414.84 135.12 418.47 132.39 422.38 130.32 C 427.10 128.09 426.62 121.55 431.00 118.93 C 433.70 116.98 437.77 117.66 439.64 120.44 C 442.46 124.51 442.50 129.90 441.26 134.55 C 439.18 141.76 436.81 149.01 432.59 155.30 C 434.79 155.43 436.99 155.51 439.20 155.59 C 440.84 161.09 438.60 168.29 443.66 172.34 C 448.66 176.12 454.65 178.35 460.38 180.79 C 464.48 182.63 469.23 181.48 473.27 183.41 C 468.82 183.38 464.47 181.89 460.01 182.33 C 451.29 183.18 442.41 183.27 433.95 185.80 C 426.29 188.12 418.56 190.21 411.00 192.83 C 402.57 195.73 393.50 196.97 385.70 201.53 C 380.33 196.00 376.97 188.90 374.18 181.81 C 372.76 178.36 371.97 174.45 369.38 171.64 C 365.79 168.71 360.71 168.89 357.00 166.12 C 359.00 159.71 362.55 153.86 364.01 147.27 C 365.41 142.39 365.71 137.32 365.58 132.28 C 368.88 132.02 372.18 131.83 375.49 131.64 C 376.53 133.31 377.61 134.97 378.74 136.59 C 383.95 135.19 389.16 133.79 394.35 132.30 C 392.80 124.12 383.83 119.48 376.03 121.14 C 371.27 121.83 367.29 124.87 364.31 128.50 C 362.50 120.67 359.47 113.16 358.16 105.20 Z" />
        <path fill="#f0b58b" opacity="1.00"
            d=" M 311.14 340.16 C 319.32 325.53 330.39 312.85 339.85 299.08 C 349.05 308.25 356.97 318.53 365.39 328.39 C 358.98 335.33 351.79 341.46 345.06 348.08 C 342.82 350.07 341.68 352.98 341.50 355.93 C 340.98 362.01 340.67 368.11 339.75 374.15 C 337.99 387.92 333.48 401.12 329.14 414.25 C 324.65 427.49 318.35 440.00 312.66 452.73 C 318.13 453.36 323.30 451.06 328.64 450.31 C 328.89 452.65 329.24 454.99 329.75 457.29 C 328.40 458.37 326.50 459.19 326.10 461.05 C 325.60 462.99 326.21 464.99 326.44 466.94 C 324.20 466.32 321.62 464.93 319.47 466.52 C 317.37 467.82 317.51 470.52 317.44 472.68 C 315.33 473.11 312.50 473.18 311.68 475.63 C 309.86 480.82 312.83 486.06 316.14 489.90 C 318.54 492.75 320.83 496.30 324.90 496.74 C 321.74 490.29 315.66 484.94 315.61 477.27 C 320.53 480.13 325.02 483.76 328.83 487.98 C 332.51 491.92 331.94 497.68 331.74 502.64 C 326.46 501.87 321.13 501.52 315.85 500.82 C 310.34 500.16 307.00 495.24 303.30 491.69 C 299.11 486.94 293.86 482.68 291.68 476.55 C 290.25 470.08 292.19 463.52 292.39 457.02 C 293.70 431.82 293.34 406.41 297.76 381.48 C 300.01 367.12 304.05 352.91 311.14 340.16 Z" />
        <path fill="#f0b58b" opacity="1.00"
            d=" M 592.33 388.23 C 606.14 384.65 618.16 375.73 626.72 364.46 C 632.12 375.78 636.07 387.70 640.33 399.48 C 642.91 406.52 645.23 414.26 642.81 421.70 C 638.48 435.52 627.43 445.56 617.68 455.68 C 606.09 467.86 593.56 479.07 581.22 490.46 C 578.93 486.92 576.18 483.71 573.08 480.86 C 574.00 471.20 572.53 461.56 571.62 451.96 C 577.91 442.91 584.81 434.31 591.71 425.72 C 595.88 420.65 599.43 414.69 600.17 408.05 C 600.52 400.67 596.46 394.02 592.33 388.23 Z" />
        <path fill="#f0b58b" opacity="1.00"
            d=" M 333.16 450.90 C 337.56 451.07 341.14 453.88 344.13 456.84 C 348.21 460.91 352.51 464.92 355.34 470.01 C 353.45 470.21 351.55 470.39 349.66 470.58 C 350.01 473.91 352.95 477.48 350.67 480.67 C 348.62 483.71 344.24 482.04 341.43 483.84 C 341.52 486.17 342.64 488.32 342.74 490.65 C 340.98 492.13 338.74 492.85 336.70 493.82 C 335.78 490.06 334.15 486.43 331.34 483.71 C 327.47 479.56 321.17 476.60 321.30 470.04 C 326.86 472.47 330.58 477.66 335.98 480.29 C 337.87 479.64 338.56 477.41 336.94 476.07 C 333.23 472.22 330.48 467.35 330.20 461.91 C 333.81 464.05 336.51 467.36 339.99 469.66 C 342.60 470.31 343.60 466.86 341.62 465.51 C 337.73 461.44 332.39 457.23 333.16 450.90 Z" />
        <path fill="#f0b58b" opacity="1.00"
            d=" M 400.48 688.24 C 406.10 692.69 412.50 696.19 419.43 698.11 C 421.89 706.66 422.63 715.80 426.89 723.75 C 430.56 723.24 434.21 722.61 437.88 722.08 C 440.45 728.60 442.27 735.38 444.55 742.01 C 435.46 743.04 426.56 746.68 419.97 753.13 C 414.23 740.62 405.63 729.48 401.59 716.21 C 398.80 707.17 399.22 697.50 400.48 688.24 Z" />
        <path fill="#f0b58b" opacity="1.00"
            d=" M 491.62 720.55 C 500.68 716.50 508.81 710.61 517.99 706.76 C 515.12 717.04 514.67 727.74 512.66 738.19 C 501.39 737.97 489.39 739.16 479.64 745.30 C 481.96 747.33 484.79 745.83 487.33 745.25 C 496.68 742.53 506.56 741.89 516.22 743.02 C 506.79 748.92 501.18 759.16 497.66 769.41 C 494.43 779.03 493.16 789.41 494.90 799.46 C 489.13 797.78 483.19 796.26 478.06 793.03 C 471.45 788.69 465.86 782.76 462.24 775.71 C 453.33 758.55 449.68 739.32 442.27 721.58 C 448.57 721.61 454.83 722.35 461.05 723.30 C 471.25 724.93 481.86 723.91 491.62 720.55 Z" />
    </g>
    <g id="#f11b27ff">
        <path fill="var(--shirt-color, grey)" opacity="1.00"
            d=" M 432.43 191.65 C 445.89 187.49 460.37 187.39 474.17 189.67 C 485.04 193.33 496.53 195.66 506.64 201.26 C 520.16 209.19 525.33 225.20 536.80 235.25 C 549.27 246.11 563.34 255.18 574.41 267.59 C 584.23 278.21 591.13 291.27 601.96 300.98 C 612.09 310.32 622.48 319.45 633.76 327.39 C 630.63 334.51 630.67 342.50 627.73 349.69 C 623.67 361.45 614.34 370.57 604.03 377.09 C 599.96 379.52 595.72 381.97 591.02 382.86 C 587.91 381.16 585.84 378.06 582.96 376.03 C 580.94 374.36 578.26 374.05 575.81 373.52 C 578.88 364.34 581.24 354.80 581.13 345.06 C 580.99 337.30 580.97 329.45 579.37 321.83 C 579.13 319.79 577.58 318.40 576.08 317.20 C 575.16 328.76 577.32 340.47 575.04 351.97 C 572.75 367.35 565.06 381.39 563.47 396.92 C 561.18 412.48 562.91 428.23 565.60 443.62 C 566.55 454.60 567.66 465.59 567.84 476.62 C 557.19 468.07 551.12 455.59 543.44 444.60 C 535.93 432.20 529.35 419.10 519.90 407.99 C 518.72 406.69 517.40 405.53 516.05 404.43 C 516.22 407.00 517.03 409.47 518.47 411.61 C 523.87 420.28 529.44 428.86 534.18 437.92 C 538.65 446.52 544.21 454.47 549.23 462.74 C 553.42 469.64 558.46 476.11 564.81 481.17 C 570.70 485.95 576.92 491.34 578.88 499.00 C 580.31 503.46 578.01 508.98 573.31 510.27 C 568.48 511.51 563.38 510.72 558.61 509.56 C 548.08 507.04 539.07 500.73 529.02 496.94 C 505.03 487.53 478.57 482.29 452.93 487.11 C 450.75 487.39 448.88 488.67 447.59 490.42 C 458.59 489.45 469.63 489.65 480.67 490.00 C 472.83 492.98 465.07 496.37 458.19 501.24 C 444.72 509.95 433.15 521.38 418.96 529.00 C 408.52 534.85 396.30 540.66 384.12 537.00 C 379.40 535.98 377.35 531.12 375.64 527.14 C 370.66 514.31 373.71 500.41 373.47 487.08 C 376.68 478.10 383.93 471.08 391.62 465.71 C 407.23 454.91 421.20 441.51 431.69 425.64 C 433.61 422.97 434.80 419.68 433.56 416.44 C 429.01 420.99 425.67 426.57 421.21 431.21 C 414.73 438.05 408.02 444.69 401.08 451.05 C 395.30 456.37 388.68 460.64 382.71 465.71 C 378.23 469.48 374.76 474.26 371.80 479.28 C 370.12 471.66 367.81 463.96 368.41 456.07 C 369.46 446.81 373.34 438.14 374.44 428.89 C 376.45 413.50 373.11 398.17 370.99 382.99 C 369.33 371.32 365.84 359.85 365.95 347.98 C 365.98 342.75 367.63 337.73 369.37 332.86 C 372.80 334.20 376.26 335.74 379.99 335.94 C 384.46 336.32 388.72 334.58 392.72 332.81 C 403.57 327.70 412.91 319.73 420.49 310.50 C 425.86 303.96 428.87 295.95 432.46 288.39 C 434.47 284.04 436.85 279.72 437.24 274.85 C 433.50 277.11 431.87 281.27 429.90 284.94 C 426.80 290.91 423.63 296.84 420.59 302.83 C 420.24 295.54 419.69 288.15 421.13 280.94 C 421.92 274.92 424.32 268.97 423.17 262.83 C 419.77 267.20 418.90 272.80 417.47 278.00 C 415.65 284.85 415.24 291.94 415.51 298.99 C 415.84 304.48 413.85 310.04 409.96 313.95 C 405.30 318.75 399.84 322.70 394.14 326.17 C 389.08 329.11 383.00 331.61 377.12 329.71 C 370.45 327.81 366.35 321.85 362.31 316.66 C 356.96 309.45 350.86 302.84 344.63 296.39 C 337.63 289.41 329.79 282.17 319.73 280.32 C 313.54 279.08 307.35 281.03 301.62 283.22 C 304.18 277.89 308.46 273.63 313.45 270.53 C 323.39 264.36 333.29 257.92 341.74 249.76 C 347.85 243.49 352.09 235.58 358.82 229.87 C 365.33 223.83 373.80 220.36 380.04 213.99 C 383.57 210.47 386.96 206.60 391.59 204.49 C 398.49 201.32 406.03 199.96 413.16 197.43 C 419.48 195.16 426.01 193.57 432.43 191.65 M 517.91 316.03 C 519.92 327.27 524.29 337.89 528.65 348.39 C 535.18 363.27 544.47 376.89 549.52 392.43 C 553.40 403.89 554.41 416.14 558.60 427.50 C 558.69 429.31 562.41 428.92 561.72 427.05 C 560.54 414.93 556.70 403.20 555.70 391.04 C 554.73 379.39 554.80 367.69 554.89 356.01 C 554.94 353.09 554.59 350.19 553.85 347.38 C 552.58 349.34 551.47 351.48 551.35 353.86 C 550.42 362.93 550.48 372.08 550.67 381.19 C 545.15 368.17 536.99 356.48 531.59 343.40 C 527.89 334.55 524.17 325.65 521.69 316.37 C 520.26 311.28 519.29 306.01 516.94 301.23 C 515.78 306.17 517.06 311.16 517.91 316.03 M 448.96 320.98 C 445.32 334.48 439.58 347.27 434.18 360.13 C 427.85 374.30 421.44 388.46 414.17 402.18 C 408.18 412.66 401.36 422.64 394.49 432.55 C 390.66 437.88 388.03 443.98 386.54 450.36 C 386.08 452.84 384.72 455.89 387.04 457.88 C 389.73 455.60 390.51 452.02 392.05 449.01 C 397.16 437.71 405.19 428.15 411.68 417.67 C 422.79 401.41 430.18 383.05 438.21 365.17 C 444.47 349.85 451.04 334.46 454.05 318.10 C 454.70 314.12 456.23 309.82 454.19 306.00 C 451.38 310.57 450.46 315.91 448.96 320.98 Z" />
        <path fill="var(--shirt-color, grey)" opacity="1.00"
            d=" M 301.92 290.59 C 308.49 287.85 315.65 284.51 322.90 286.49 C 328.18 288.33 332.35 292.27 336.55 295.80 C 330.89 302.84 325.52 310.10 320.25 317.43 C 315.25 312.53 309.89 307.77 306.49 301.55 C 304.50 298.11 303.10 294.37 301.92 290.59 Z" />
    </g>
    <g id="#2b3dcdff">
        <path fill="var(--pants-color, grey)" opacity="1.00"
            d=" M 487.52 493.81 C 491.55 493.07 495.74 492.75 499.78 493.65 C 514.64 497.04 529.07 502.33 542.58 509.41 C 550.18 513.24 558.47 515.65 566.96 516.36 C 568.49 520.77 569.82 525.31 569.98 530.01 C 570.67 547.57 567.10 564.94 562.67 581.83 C 560.77 590.71 558.39 599.46 556.23 608.27 C 554.29 617.08 553.25 626.07 550.83 634.77 C 548.56 644.34 544.14 653.24 542.08 662.87 C 537.47 653.86 528.70 648.29 522.76 640.33 C 517.11 632.77 516.84 623.00 514.55 614.19 C 512.73 607.51 512.16 600.39 508.81 594.22 C 507.48 597.02 507.50 600.14 508.08 603.12 C 509.84 613.92 510.93 624.92 514.47 635.34 C 510.25 630.53 506.15 625.58 503.04 619.96 C 499.72 614.48 497.50 608.43 494.53 602.76 C 494.08 604.46 493.14 606.21 493.90 607.99 C 496.29 616.20 499.63 624.29 504.87 631.12 C 510.45 638.45 517.16 644.91 524.60 650.34 C 530.60 654.66 535.89 660.07 539.79 666.37 C 542.45 670.91 542.45 676.36 543.47 681.41 C 544.00 685.77 544.90 690.67 542.78 694.74 C 540.69 695.76 538.37 696.16 536.12 696.65 C 528.35 698.20 520.57 700.09 513.38 703.49 C 506.87 706.37 500.82 710.15 494.61 713.60 C 488.37 717.18 481.13 718.52 474.04 718.98 C 465.28 719.62 456.72 717.14 448.01 716.89 C 441.58 716.49 435.23 717.78 429.01 719.26 C 426.88 700.98 420.44 683.62 416.02 665.85 C 414.89 662.22 416.06 658.53 416.72 654.94 C 418.64 645.09 417.16 635.04 416.31 625.17 C 415.67 617.53 413.89 610.04 411.38 602.82 C 407.60 592.15 407.66 580.68 405.24 569.72 C 402.76 560.05 395.95 552.38 391.92 543.41 C 394.31 543.25 396.70 543.10 399.10 542.92 C 411.17 562.02 427.76 577.89 446.01 591.05 C 449.58 593.62 453.63 596.06 458.25 595.44 C 456.76 593.70 455.17 592.02 453.26 590.74 C 434.04 577.45 418.05 560.15 403.47 542.03 C 418.53 536.93 432.13 528.30 444.48 518.41 C 457.47 508.16 471.09 497.67 487.52 493.81 M 438.03 631.81 C 442.17 641.90 450.38 649.47 458.27 656.68 C 465.48 663.53 474.23 668.56 481.08 675.82 C 487.84 682.93 495.98 689.64 505.99 691.11 C 508.78 691.86 512.58 689.25 511.11 686.18 C 508.97 682.27 505.31 678.89 500.71 678.35 C 502.08 680.90 503.73 683.31 505.45 685.65 C 500.58 683.36 495.69 680.94 491.63 677.34 C 485.57 672.08 480.15 666.04 473.36 661.68 C 464.70 656.23 457.04 649.35 449.92 642.04 C 445.89 637.99 443.37 632.74 439.57 628.53 C 437.34 627.07 437.25 630.51 438.03 631.81 Z" />
        <path fill="var(--pants-color, grey)" opacity="1.00"
            d=" M 390.70 550.95 C 393.73 557.02 397.39 562.85 399.39 569.37 C 402.22 580.82 401.78 592.93 405.72 604.14 C 408.26 611.39 409.92 618.93 410.62 626.58 C 411.47 635.85 413.19 645.29 411.32 654.55 C 410.55 658.26 409.56 662.09 410.45 665.89 C 412.34 674.75 415.19 683.36 417.76 692.04 C 413.13 689.60 408.26 687.26 404.61 683.42 C 402.07 680.97 402.83 677.17 402.88 674.02 C 403.67 662.40 404.04 650.67 402.50 639.09 C 401.04 627.73 396.97 616.60 397.96 605.01 C 398.81 596.37 399.29 587.53 397.20 579.02 C 394.56 569.79 391.09 560.67 390.70 550.95 Z" />
        <path fill="var(--socks-color, grey)" opacity="1.00"
            d=" M 510.17 756.11 C 513.38 751.26 517.76 747.33 522.69 744.28 C 541.16 748.92 556.01 761.69 568.94 775.06 C 578.42 784.97 588.85 793.87 598.84 803.24 C 608.63 812.59 619.32 820.92 630.05 829.15 C 627.59 833.18 625.60 837.99 627.22 842.74 C 631.19 855.45 641.28 865.25 644.97 878.09 C 646.18 881.42 644.95 885.86 641.51 887.33 C 637.87 888.78 633.80 888.06 630.21 886.86 C 615.36 881.87 601.94 873.61 587.63 867.38 C 580.39 864.26 573.18 860.91 566.75 856.31 C 555.22 847.96 545.73 837.29 535.84 827.16 C 525.65 816.67 513.76 807.78 500.53 801.50 C 497.97 785.88 501.28 769.26 510.17 756.11 Z" />
        <path fill="var(--socks-color, grey)" opacity="1.00"
            d=" M 422.12 757.54 C 428.86 751.69 437.47 748.03 446.41 747.61 C 450.31 758.45 453.36 769.72 459.24 779.71 C 465.42 790.57 475.96 798.89 488.05 802.15 C 491.24 803.32 495.22 803.56 497.32 806.60 C 506.55 817.76 511.11 832.21 512.28 846.49 C 514.07 866.14 521.68 884.97 532.67 901.25 C 524.09 902.30 516.35 906.50 509.18 911.09 C 504.99 913.69 500.09 916.38 494.99 915.13 C 490.98 913.97 488.14 910.67 484.83 908.33 C 482.75 893.73 475.50 880.53 467.85 868.17 C 462.43 859.17 455.90 850.75 452.13 840.86 C 446.18 825.80 441.21 810.36 435.63 795.16 C 431.14 782.61 427.81 769.64 422.12 757.54 Z" />
    </g>
    <g id="#4d4d4dff">
        <path fill="#4d4d4d" opacity="1.00"
            d=" M 634.13 831.10 C 647.19 835.16 660.51 826.83 673.48 831.34 C 681.66 833.91 688.95 840.36 691.10 848.86 C 693.23 857.34 693.86 866.29 697.76 874.25 C 706.40 893.46 722.85 907.46 733.51 925.39 C 737.45 931.92 741.87 939.03 741.16 946.98 C 740.93 950.14 739.49 954.10 735.91 954.63 C 729.78 955.33 723.91 952.82 718.36 950.56 C 703.49 944.08 690.33 934.29 678.02 923.86 C 666.46 913.98 656.91 902.06 647.69 890.05 C 649.24 887.32 651.02 884.33 650.32 881.06 C 647.99 866.27 636.32 855.45 631.68 841.58 C 630.29 837.84 632.39 834.27 634.13 831.10 M 664.81 851.97 C 666.59 863.58 673.70 873.27 680.29 882.64 C 684.68 888.62 685.44 896.18 688.02 902.95 C 689.85 908.03 692.15 913.09 695.89 917.08 C 699.61 921.08 703.92 924.49 708.23 927.82 C 710.30 929.56 712.97 930.19 715.58 930.62 C 712.05 924.89 706.15 921.27 702.12 915.94 C 695.96 908.99 692.93 900.01 690.65 891.17 C 689.21 885.11 685.75 879.84 682.09 874.90 C 676.64 867.38 671.36 859.25 669.78 849.94 C 668.75 844.08 672.71 839.14 674.80 834.03 C 666.98 835.75 663.62 844.77 664.81 851.97 Z" />
        <path fill="#4d4d4d" opacity="1.00"
            d=" M 509.04 917.11 C 517.43 912.47 525.77 906.28 535.81 906.47 C 536.64 911.30 536.79 916.20 537.13 921.08 C 537.46 927.83 542.32 933.27 543.02 939.95 C 543.67 945.32 544.24 951.41 541.30 956.23 C 537.62 960.82 530.83 960.73 525.66 959.16 C 515.74 956.15 505.34 954.77 494.98 955.21 C 486.95 955.45 478.98 956.99 470.93 956.58 C 464.30 956.28 457.91 954.31 451.56 952.51 C 442.74 949.95 433.89 947.50 425.17 944.61 C 420.96 943.25 417.02 941.17 413.31 938.78 C 416.22 932.90 422.64 930.21 428.65 928.67 C 437.59 926.58 447.24 926.87 455.54 922.48 C 462.47 919.14 467.83 912.14 476.01 911.78 C 481.26 911.17 485.02 915.30 489.07 917.87 C 495.11 921.78 503.06 920.48 509.04 917.11 Z" />
    </g>
</svg>