<?xml version="1.0" encoding="UTF-8" ?>
<!DOCTYPE svg PUBLIC "-//W3C//DTD SVG 1.1//EN" "http://www.w3.org/Graphics/SVG/1.1/DTD/svg11.dtd">
<svg width="1000pt" height="1000pt" viewBox="0 0 1000 1000" version="1.1" xmlns="http://www.w3.org/2000/svg">
    <g id="#020202ff">
        <path fill="#020202" opacity="1.00"
            d=" M 441.65 22.70 C 454.34 15.52 469.61 12.30 484.03 15.06 C 489.22 15.92 493.95 18.28 498.78 20.25 C 501.52 20.75 504.34 20.57 507.11 21.01 C 516.18 22.16 524.37 26.94 531.22 32.81 C 536.54 37.53 540.72 43.35 545.13 48.89 C 548.43 53.40 552.44 57.89 553.16 63.66 C 553.71 67.67 553.98 71.77 555.44 75.59 C 556.91 79.73 560.02 82.96 562.27 86.67 C 565.38 91.55 566.66 97.33 567.23 103.02 C 568.12 110.44 564.92 117.58 565.43 125.01 C 565.77 132.00 564.52 138.99 565.04 145.96 C 566.51 149.26 571.06 150.39 571.97 154.14 C 569.72 155.72 566.82 155.45 564.24 155.92 C 568.05 160.11 571.92 164.25 576.01 168.16 C 585.73 166.15 596.25 169.85 602.71 177.35 C 609.32 185.04 615.93 192.76 623.16 199.88 C 631.30 207.76 641.44 213.49 648.50 222.49 C 656.33 232.72 661.07 244.88 665.12 257.00 C 667.92 265.22 670.35 273.67 674.70 281.24 C 679.74 288.79 686.01 295.47 690.80 303.19 C 696.79 312.32 699.85 322.92 702.87 333.30 C 703.58 336.28 704.84 339.60 703.36 342.55 C 702.63 344.69 700.07 342.83 698.70 342.59 C 702.84 350.84 706.56 359.65 706.92 369.00 C 707.24 375.96 703.60 382.25 699.66 387.69 C 697.31 390.57 697.65 394.48 697.34 397.95 C 696.77 410.67 693.94 423.21 694.07 435.98 C 693.94 447.57 696.42 459.19 701.45 469.64 C 703.00 472.59 705.30 475.07 707.11 477.86 C 712.93 486.57 717.43 496.42 718.65 506.91 C 719.35 512.37 717.81 517.80 715.96 522.88 C 714.29 527.53 710.74 531.08 708.35 535.33 C 705.91 539.13 704.40 544.15 699.74 545.83 C 692.61 548.68 684.73 545.20 679.07 540.75 C 676.46 551.23 673.06 561.48 669.81 571.77 C 664.50 587.44 653.63 600.59 641.12 611.12 C 628.15 622.54 617.09 635.96 606.95 649.90 C 604.64 652.89 602.02 656.29 598.04 656.93 C 592.56 657.62 587.45 654.38 581.96 655.03 C 571.36 655.44 561.41 651.44 551.85 647.35 C 547.55 653.18 542.47 658.37 537.76 663.87 C 532.87 669.42 528.48 675.39 523.59 680.94 C 529.67 682.06 535.89 682.85 541.61 685.34 C 553.02 690.03 561.92 699.04 569.64 708.40 C 580.18 721.49 589.02 735.83 598.01 750.00 C 606.56 763.09 616.60 775.45 629.04 785.03 C 636.71 791.32 645.27 796.54 652.10 803.80 C 665.35 808.83 678.91 813.18 691.80 819.15 C 699.87 823.26 707.58 828.63 713.08 835.92 C 717.72 842.30 720.06 851.39 715.69 858.51 C 710.84 867.54 700.69 871.03 693.11 877.16 C 684.13 883.97 679.94 894.77 674.12 904.04 C 666.94 916.12 656.85 927.09 643.74 932.72 C 634.76 936.63 623.81 936.89 615.26 931.75 C 608.26 927.52 604.61 919.04 605.37 911.03 C 605.63 898.80 612.07 888.10 615.84 876.79 C 617.13 872.69 619.69 868.39 618.11 864.01 C 615.71 856.51 613.41 848.80 608.61 842.43 C 601.63 832.84 593.01 824.60 584.50 816.40 C 565.58 799.38 545.42 783.65 523.58 770.54 C 505.51 758.98 487.60 747.19 469.73 735.31 C 458.36 727.47 447.01 719.50 436.95 709.99 C 437.94 714.29 439.05 718.58 439.46 722.98 C 441.00 743.30 441.57 763.75 439.78 784.07 C 438.66 803.41 433.95 822.56 435.38 842.02 C 435.89 854.36 435.51 866.72 435.70 879.07 C 434.13 888.01 438.05 896.57 441.25 904.69 C 446.59 916.80 451.94 929.47 451.63 942.97 C 451.94 949.51 450.82 957.04 445.23 961.24 C 440.59 963.91 435.00 963.71 429.84 964.39 C 416.91 965.40 406.47 974.37 393.92 976.80 C 386.34 978.00 378.65 977.86 371.00 977.92 C 357.66 978.15 344.34 977.40 331.01 977.00 C 323.23 976.29 315.22 976.60 307.68 974.29 C 304.00 973.11 302.01 968.48 304.17 965.13 C 307.46 959.77 313.38 956.88 318.47 953.52 C 331.53 946.35 345.76 941.39 358.37 933.34 C 370.44 925.25 380.32 913.31 384.42 899.22 C 385.74 894.67 385.42 889.86 386.33 885.24 C 384.11 871.74 382.86 858.11 381.26 844.53 C 378.35 823.09 378.37 801.40 376.51 779.86 C 375.14 761.39 372.71 743.03 370.05 724.71 C 367.52 709.31 361.42 693.72 365.13 678.00 C 369.20 660.93 381.14 647.40 392.88 634.98 C 398.83 628.53 404.83 622.07 409.76 614.79 C 412.73 610.49 415.53 606.06 418.98 602.12 C 416.89 600.37 414.83 598.58 412.79 596.77 C 414.83 594.48 416.95 592.27 419.17 590.16 C 428.50 581.43 436.63 571.53 444.68 561.63 C 449.35 555.98 451.54 548.06 458.36 544.40 C 465.69 540.30 472.04 534.78 477.91 528.83 C 486.76 521.02 495.08 512.63 503.95 504.85 C 508.53 500.81 512.43 495.85 518.01 493.10 C 513.31 493.17 510.53 489.02 509.81 484.82 C 507.47 484.31 504.64 483.96 503.48 481.53 C 501.07 476.66 502.23 470.89 504.03 466.01 C 506.50 459.68 509.43 453.50 513.14 447.80 C 510.18 442.35 509.16 436.15 508.46 430.06 C 507.34 417.20 506.95 404.26 505.40 391.44 C 503.42 379.36 502.05 367.18 501.45 354.96 C 500.84 334.76 505.28 314.91 507.98 294.99 C 509.88 282.46 511.38 269.87 513.57 257.39 C 514.51 252.04 516.50 246.96 519.11 242.21 C 521.34 238.48 520.28 233.90 518.92 230.06 C 516.40 223.56 513.67 216.90 508.68 211.86 C 499.70 218.65 487.93 222.34 476.73 220.20 C 471.29 219.25 467.48 214.89 463.93 211.04 C 458.77 205.27 453.20 199.83 448.80 193.43 C 445.70 194.82 442.55 197.02 438.99 196.48 C 435.99 196.07 433.82 193.40 433.39 190.51 C 432.04 183.49 431.65 176.26 429.47 169.41 C 424.72 154.03 411.84 142.65 407.96 126.89 C 403.08 130.84 398.75 136.19 392.42 137.73 C 393.33 132.19 395.72 126.75 394.59 121.04 C 392.95 111.69 396.05 101.94 402.46 95.00 C 403.15 86.97 404.44 78.90 407.36 71.35 C 409.42 66.06 412.82 61.47 415.84 56.72 C 414.05 55.63 411.53 55.12 410.65 52.99 C 409.34 49.93 413.25 48.68 415.06 47.03 C 425.20 40.33 431.04 28.78 441.65 22.70 M 512.34 116.31 C 507.44 119.55 505.45 125.35 503.54 130.60 C 501.07 137.77 497.73 144.96 491.98 150.08 C 490.55 151.54 488.48 151.85 486.64 152.46 C 486.74 150.90 486.86 149.34 487.00 147.79 C 484.49 146.80 481.82 146.03 479.65 144.40 C 478.73 141.01 479.03 137.40 477.99 134.03 C 476.96 129.96 474.68 126.41 472.34 122.99 C 471.00 128.43 470.44 134.02 469.45 139.53 C 467.25 141.68 465.90 137.74 464.70 136.33 C 460.91 129.43 453.58 125.96 447.39 121.66 C 444.91 125.91 442.77 130.38 439.91 134.39 C 437.66 134.69 437.43 132.00 436.45 130.59 C 434.60 126.52 431.68 123.05 428.16 120.32 C 423.37 124.17 417.32 127.41 411.04 125.15 C 413.47 129.32 415.67 133.63 418.31 137.68 C 422.22 143.85 426.85 149.56 430.35 156.00 C 433.04 151.59 436.68 147.52 441.60 145.60 C 447.78 143.20 454.54 142.32 461.14 142.52 C 462.91 144.58 460.91 147.04 460.01 149.00 C 457.07 153.89 454.54 159.00 452.15 164.18 C 449.11 163.92 447.24 161.57 445.55 159.30 C 441.54 160.36 437.52 161.34 433.48 162.27 C 437.56 171.31 438.04 181.30 439.84 190.90 C 442.96 189.81 445.90 188.22 449.09 187.34 C 451.63 187.36 453.00 189.79 454.49 191.48 C 458.85 197.37 464.13 202.48 468.91 208.03 C 472.28 211.85 476.43 215.85 481.92 215.70 C 494.28 215.91 506.14 209.17 513.65 199.56 C 516.62 196.14 518.94 191.99 522.95 189.65 C 522.72 191.61 522.50 193.65 521.38 195.34 C 518.58 200.07 515.18 204.44 511.60 208.60 C 519.53 214.43 523.20 224.40 524.52 233.82 C 528.39 227.73 533.39 222.47 537.50 216.56 C 542.25 209.86 545.51 202.15 551.00 195.97 C 556.70 189.70 562.67 183.66 568.67 177.67 C 570.63 175.71 571.73 173.12 572.91 170.65 C 568.33 166.53 564.32 161.81 560.98 156.64 C 558.26 157.19 555.19 159.65 552.62 157.48 C 546.96 153.24 541.36 148.91 535.66 144.72 C 532.84 149.30 528.93 154.24 523.02 154.24 C 519.86 154.50 513.85 155.29 513.42 151.04 C 516.39 148.46 520.00 146.63 522.51 143.54 C 526.21 138.90 528.52 132.98 528.22 127.00 C 528.11 123.28 527.29 119.20 524.37 116.63 C 520.98 113.96 515.84 113.71 512.34 116.31 M 577.54 172.41 C 576.28 175.62 574.96 178.93 572.46 181.39 C 563.72 190.33 553.40 198.14 547.51 209.44 C 540.59 222.77 529.57 233.36 522.54 246.61 C 518.61 253.96 517.87 262.38 516.64 270.48 C 514.87 283.67 513.07 296.86 511.12 310.03 C 509.32 321.29 507.64 332.59 506.96 343.99 C 505.85 365.84 511.35 387.26 512.24 409.01 C 513.69 421.05 512.77 433.38 515.99 445.17 C 522.23 441.60 529.18 439.57 536.11 437.85 C 543.24 436.11 550.64 435.72 557.69 433.65 C 565.28 431.48 571.19 425.99 577.89 422.10 C 567.17 417.26 558.00 409.45 550.40 400.58 C 541.44 388.89 534.35 375.63 530.36 361.42 C 528.56 354.83 526.27 348.07 527.35 341.15 C 528.79 342.64 530.05 344.34 530.60 346.37 C 534.18 357.37 537.63 368.54 543.30 378.70 C 546.72 384.76 550.39 390.72 554.75 396.16 C 562.44 405.48 572.51 412.36 582.64 418.74 C 589.00 414.19 595.02 409.18 601.35 404.57 C 589.95 397.88 581.62 387.26 575.10 375.97 C 572.37 371.11 568.44 366.10 569.01 360.23 C 569.48 360.24 570.43 360.26 570.90 360.27 C 574.55 366.46 578.25 372.64 582.46 378.48 C 588.52 387.55 596.51 395.18 605.67 401.08 C 612.04 395.70 618.06 389.82 622.89 382.99 C 625.93 378.62 629.68 374.82 633.57 371.20 C 630.82 366.68 629.00 361.70 627.11 356.79 C 621.99 360.36 617.50 364.68 612.97 368.94 C 611.26 370.80 608.46 369.48 606.88 368.12 C 602.38 364.10 600.24 358.22 598.58 352.58 C 596.26 344.35 592.24 336.65 587.18 329.78 C 584.75 326.41 580.97 324.52 577.46 322.52 C 572.37 319.67 569.13 314.59 566.38 309.63 C 563.64 304.30 561.26 298.09 562.98 292.08 C 563.40 292.11 564.23 292.18 564.65 292.21 C 567.91 302.90 573.16 314.37 583.83 319.40 C 582.73 311.96 581.00 304.48 581.61 296.92 C 581.51 295.30 582.86 294.31 583.86 293.28 C 585.83 304.79 586.27 317.13 592.76 327.27 C 597.35 334.26 601.96 341.42 604.12 349.60 C 605.49 355.16 607.72 360.48 610.80 365.32 C 622.55 351.13 639.50 342.22 656.79 336.64 C 670.21 332.80 685.48 330.09 698.56 336.47 C 695.78 328.36 693.59 320.01 689.80 312.29 C 686.91 306.45 682.84 301.29 678.44 296.53 C 668.42 285.61 658.50 274.52 647.41 264.66 C 639.16 257.48 629.25 252.23 618.63 249.59 C 612.24 248.00 605.59 248.42 599.15 247.22 C 600.12 246.30 600.86 244.78 602.39 244.68 C 612.13 243.21 622.16 245.03 631.16 248.89 C 645.34 254.72 656.53 265.65 666.97 276.54 C 659.06 261.13 655.45 243.74 645.92 229.14 C 641.44 222.04 634.49 217.17 628.11 211.95 C 619.62 205.50 612.48 197.52 605.39 189.62 C 601.26 185.10 597.96 179.67 592.78 176.24 C 588.27 173.39 582.99 170.57 577.54 172.41 M 630.70 354.32 C 633.36 358.72 635.80 363.29 637.33 368.23 C 639.79 366.26 642.38 364.30 645.54 363.66 C 645.05 365.07 644.90 366.72 643.77 367.82 C 638.00 374.04 631.35 379.50 626.56 386.57 C 616.60 400.62 602.13 410.36 588.53 420.54 C 579.39 426.88 570.31 433.51 560.14 438.11 C 552.21 441.25 543.49 441.29 535.33 443.59 C 530.15 445.07 524.76 446.32 520.13 449.19 C 516.04 451.70 514.57 456.55 512.57 460.62 C 510.42 465.91 507.47 471.19 507.50 477.04 C 507.23 478.86 508.61 481.38 510.71 480.24 C 513.33 475.39 515.67 470.33 519.06 465.96 C 519.91 464.45 521.94 465.67 521.87 467.14 C 521.63 473.45 517.23 478.46 515.39 484.27 C 514.54 486.91 516.73 488.80 518.90 489.75 C 521.05 485.61 523.57 481.65 525.24 477.29 C 525.99 475.48 526.50 473.50 527.95 472.10 C 530.28 473.63 529.87 476.65 529.65 479.05 C 528.79 484.63 524.87 489.02 522.86 494.18 C 524.59 494.54 526.29 495.02 527.98 495.57 C 529.46 488.98 532.92 482.81 537.97 478.32 C 541.05 477.57 540.47 480.70 539.43 482.43 C 536.48 488.07 533.41 493.78 532.38 500.16 C 534.82 500.77 537.38 501.97 539.91 501.02 C 544.33 499.43 547.49 495.49 549.05 491.17 C 549.83 488.80 551.56 486.84 553.95 486.02 C 561.67 483.10 569.90 480.71 576.39 475.37 C 580.20 472.13 580.94 466.95 581.13 462.25 C 592.54 448.89 608.16 440.23 622.68 430.73 C 640.76 419.47 660.05 410.29 678.23 399.20 C 688.12 392.55 697.95 383.89 701.25 372.01 C 702.58 360.64 696.48 350.36 693.64 339.71 C 686.59 337.70 679.15 337.60 671.93 338.65 C 657.26 340.81 643.21 346.42 630.70 354.32 M 661.92 415.86 C 644.66 425.15 627.19 434.11 610.60 444.57 C 601.64 450.18 593.48 456.94 585.26 463.55 C 585.54 466.75 585.68 470.16 584.07 473.07 C 580.76 479.75 573.66 483.11 567.37 486.38 C 562.76 488.90 556.96 489.12 553.15 493.02 C 557.49 493.33 561.97 493.16 566.15 494.61 C 577.05 498.26 587.38 503.37 597.70 508.41 C 606.75 512.80 615.74 518.18 625.99 519.07 C 634.44 519.85 642.23 515.81 650.32 514.15 C 643.42 509.25 636.91 503.81 629.83 499.17 C 621.90 493.93 612.28 492.48 603.91 488.14 C 600.87 486.47 596.75 485.43 595.68 481.68 C 599.32 482.20 602.79 483.43 606.19 484.79 C 615.41 488.63 625.71 489.99 633.97 495.95 C 649.47 506.92 665.20 517.85 678.36 531.66 C 683.34 536.75 689.18 542.84 696.98 542.03 C 701.38 541.89 701.70 536.70 703.80 533.85 C 708.49 526.94 712.47 519.30 713.59 510.93 C 713.84 504.81 712.23 498.75 709.94 493.12 C 705.26 481.43 696.95 471.72 688.10 462.96 C 682.83 457.50 677.18 452.40 671.13 447.81 C 668.33 445.50 664.89 443.33 664.15 439.49 C 668.56 440.72 672.10 443.70 675.79 446.26 C 682.38 450.89 688.29 456.40 693.89 462.16 C 691.21 455.05 689.48 447.58 689.05 439.98 C 687.97 425.15 691.40 410.53 692.35 395.80 C 683.56 404.37 672.55 409.99 661.92 415.86 M 473.52 540.51 C 467.69 546.13 458.68 548.31 454.91 555.95 C 450.65 563.99 444.41 570.67 438.66 577.64 C 432.71 584.75 426.03 591.18 419.29 597.54 C 427.41 603.29 436.85 606.69 445.43 611.66 C 446.44 607.61 447.48 603.45 449.87 599.97 C 462.81 583.03 476.87 566.97 491.51 551.49 C 498.22 543.96 504.98 536.44 512.69 529.91 C 512.49 525.59 512.29 521.23 513.00 516.95 C 513.07 515.64 513.75 514.78 515.04 514.36 C 518.10 517.54 516.72 522.52 517.14 526.52 C 526.94 519.03 538.32 512.43 550.99 512.16 C 557.03 512.15 563.85 511.81 568.91 515.69 C 561.95 516.45 554.91 515.03 547.99 516.46 C 538.39 517.82 530.18 523.36 522.46 528.85 C 541.44 524.39 560.85 529.10 579.30 533.76 C 584.31 535.01 589.67 535.37 594.21 538.07 C 592.10 539.62 589.54 540.20 586.97 539.72 C 569.27 537.67 551.98 532.04 534.03 532.41 C 527.20 532.49 520.27 533.82 514.32 537.29 C 507.26 540.98 502.76 547.78 497.42 553.44 C 485.33 566.40 473.35 579.50 462.35 593.42 C 458.58 598.29 453.59 602.58 451.85 608.71 C 450.36 613.83 449.34 619.08 448.15 624.28 C 478.97 627.26 509.62 632.32 539.77 639.36 C 547.40 641.21 554.83 643.80 562.03 646.92 C 568.27 649.68 575.11 650.50 581.82 651.35 C 586.50 628.46 596.21 607.11 604.29 585.31 C 606.56 580.07 608.19 574.15 612.88 570.46 C 611.77 577.43 608.84 583.92 606.79 590.63 C 603.63 600.59 599.82 610.31 596.25 620.12 C 592.99 630.06 589.95 640.08 587.26 650.19 C 591.30 650.55 596.56 653.60 599.84 649.96 C 602.62 646.97 604.78 643.50 607.26 640.27 C 613.51 631.63 620.66 623.70 627.86 615.85 C 634.08 609.06 641.53 603.54 647.60 596.61 C 654.02 589.63 659.44 581.68 663.10 572.90 C 667.61 561.37 671.25 549.50 676.05 538.07 C 669.84 532.58 664.35 526.28 657.72 521.29 C 653.02 517.61 646.99 520.85 642.01 522.21 C 642.03 536.40 645.09 551.24 639.85 564.89 C 638.24 568.97 636.15 573.83 631.21 574.55 C 632.33 569.36 635.57 564.90 636.32 559.61 C 638.29 547.63 637.37 535.42 638.53 523.36 C 633.61 524.42 628.51 525.20 623.50 524.30 C 611.53 522.38 601.14 515.77 590.38 510.64 C 581.20 505.82 571.61 501.88 562.05 497.90 C 558.85 496.56 555.29 497.16 551.92 497.11 C 548.21 501.53 543.20 506.22 536.94 505.38 C 533.13 505.05 530.17 502.47 528.16 499.40 C 524.52 499.82 521.17 498.52 518.57 496.02 C 504.85 512.11 489.02 526.20 473.52 540.51 M 422.21 604.62 C 419.57 609.11 416.56 613.37 413.62 617.68 C 404.87 630.67 392.93 641.02 383.24 653.25 C 376.42 662.29 370.30 672.48 368.95 683.95 C 367.72 693.97 370.77 703.77 372.68 713.50 C 382.36 708.81 393.31 707.50 403.97 707.84 C 413.78 708.22 423.70 709.90 432.61 714.19 C 430.59 705.62 429.75 696.84 429.17 688.08 C 429.28 667.09 437.35 647.03 448.08 629.30 C 442.64 627.39 443.63 620.96 444.34 616.47 C 436.90 612.64 429.50 608.73 422.21 604.62 M 444.22 649.13 C 437.89 663.85 432.96 679.95 435.15 696.12 C 435.93 701.77 440.48 705.82 444.65 709.25 C 454.13 717.33 464.53 724.21 474.63 731.49 C 475.44 723.95 478.55 716.91 482.43 710.48 C 489.81 698.79 499.97 688.38 512.76 682.72 C 506.55 679.45 499.57 676.10 496.29 669.51 C 499.41 669.01 501.85 671.17 504.34 672.65 C 508.79 675.51 513.65 677.66 518.58 679.53 C 528.05 667.97 537.98 656.80 548.54 646.22 C 537.38 642.78 525.90 640.51 514.45 638.25 C 494.34 634.22 474.02 631.38 453.64 629.18 C 451.00 636.06 446.87 642.25 444.22 649.13 M 498.11 699.12 C 488.72 708.64 480.14 720.06 477.93 733.57 C 489.15 741.20 500.46 748.69 511.84 756.09 C 523.38 763.98 535.65 770.79 546.91 779.12 C 560.88 789.32 574.30 800.31 587.09 811.96 C 596.51 821.03 606.02 830.21 613.49 841.01 C 614.98 838.14 616.37 835.01 619.07 833.05 C 624.50 829.13 631.52 828.21 638.04 829.08 C 643.35 829.39 650.05 830.32 653.95 825.82 C 655.43 821.05 653.23 816.05 651.19 811.77 C 647.57 804.35 640.37 799.87 633.89 795.22 C 622.82 787.45 612.80 778.26 604.26 767.76 C 592.79 753.58 583.67 737.70 572.92 722.98 C 564.91 711.93 556.38 700.71 544.65 693.37 C 537.24 688.83 528.49 687.09 519.99 685.98 C 511.33 687.33 504.34 693.36 498.11 699.12 M 373.73 717.83 C 375.63 726.81 376.71 735.94 378.05 745.01 C 381.77 770.18 382.79 795.63 384.13 821.01 C 384.69 832.92 386.57 844.70 387.77 856.55 C 388.57 864.74 389.36 872.94 390.27 881.13 C 390.56 882.81 390.67 884.74 391.91 886.06 C 395.18 887.28 398.79 887.46 401.97 889.00 C 406.83 891.18 410.49 895.16 414.30 898.75 C 416.19 900.41 418.28 902.41 421.00 902.29 C 424.17 902.22 426.56 899.91 428.83 898.00 C 428.93 894.22 429.21 890.46 429.73 886.72 C 431.01 878.54 429.75 870.27 430.11 862.05 C 430.51 850.35 429.24 838.68 429.61 827.00 C 431.13 808.93 434.31 791.04 435.29 772.93 C 435.95 755.39 435.44 737.82 433.96 720.34 C 415.57 710.60 393.04 711.27 373.73 717.83 M 655.49 809.55 C 658.05 814.83 660.14 820.83 658.69 826.74 C 657.55 829.98 654.40 832.02 651.35 833.25 C 643.02 836.51 633.85 832.21 625.52 835.52 C 621.28 836.69 617.38 840.29 617.50 844.96 C 617.97 852.99 624.00 859.86 622.95 868.13 C 621.92 875.44 618.64 882.21 616.07 889.07 C 611.79 898.87 607.99 909.87 611.18 920.58 C 612.50 910.68 619.49 902.94 627.28 897.30 C 640.77 887.46 656.76 881.83 672.80 877.71 C 680.70 875.33 689.06 873.66 695.99 868.94 C 700.93 865.68 706.65 863.18 710.25 858.29 C 712.66 855.23 714.28 851.11 712.89 847.26 C 709.95 837.23 700.86 830.84 692.36 825.70 C 680.55 819.26 667.53 815.49 655.49 809.55 M 648.29 893.32 C 637.63 898.17 626.94 904.16 619.66 913.59 C 616.50 917.54 615.96 922.76 617.15 927.56 C 622.54 930.08 628.62 931.64 634.55 930.32 C 645.35 927.89 654.49 920.77 661.55 912.49 C 669.45 903.33 674.09 892.01 680.83 882.07 C 669.92 885.60 658.74 888.47 648.29 893.32 M 390.31 891.14 C 390.23 910.17 377.89 927.22 362.54 937.51 C 350.30 945.22 336.69 950.36 323.80 956.84 C 318.18 960.01 312.17 963.21 308.52 968.76 C 321.80 971.66 335.51 971.09 349.01 971.92 C 362.00 972.83 375.02 972.37 388.02 972.06 C 398.55 971.80 407.53 965.67 417.10 962.07 C 422.50 959.90 428.33 959.15 434.10 958.76 C 437.39 958.39 441.35 958.38 443.52 955.42 C 446.53 951.30 445.98 945.83 446.02 941.01 C 445.73 926.14 438.07 912.98 433.85 899.06 C 430.96 904.43 425.23 908.87 418.85 907.98 C 412.72 906.82 408.71 901.53 403.99 897.93 C 400.11 894.48 395.14 892.80 390.31 891.14 Z" />
        <path fill="#020202" opacity="1.00"
            d=" M 609.83 275.19 C 611.42 274.11 612.94 272.58 615.02 272.59 C 630.68 271.58 645.94 278.35 657.83 288.17 C 661.63 291.94 666.32 295.87 666.95 301.53 C 660.19 299.01 656.12 292.59 649.98 289.09 C 641.25 284.02 632.11 279.10 622.02 277.46 C 617.95 276.72 613.64 277.05 609.83 275.19 Z" />
    </g>
    <g id="#f0b58bff">
        <path fill="#f0b58b" opacity="1.00"
            d=" M 512.34 116.31 C 515.84 113.71 520.98 113.96 524.37 116.63 C 527.29 119.20 528.11 123.28 528.22 127.00 C 528.52 132.98 526.21 138.90 522.51 143.54 C 520.00 146.63 516.39 148.46 513.42 151.04 C 513.85 155.29 519.86 154.50 523.02 154.24 C 528.93 154.24 532.84 149.30 535.66 144.72 C 541.36 148.91 546.96 153.24 552.62 157.48 C 555.19 159.65 558.26 157.19 560.98 156.64 C 564.32 161.81 568.33 166.53 572.91 170.65 C 571.73 173.12 570.63 175.71 568.67 177.67 C 562.67 183.66 556.70 189.70 551.00 195.97 C 545.51 202.15 542.25 209.86 537.50 216.56 C 533.39 222.47 528.39 227.73 524.52 233.82 C 523.20 224.40 519.53 214.43 511.60 208.60 C 515.18 204.44 518.58 200.07 521.38 195.34 C 522.50 193.65 522.72 191.61 522.95 189.65 C 518.94 191.99 516.62 196.14 513.65 199.56 C 506.14 209.17 494.28 215.91 481.92 215.70 C 476.43 215.85 472.28 211.85 468.91 208.03 C 464.13 202.48 458.85 197.37 454.49 191.48 C 453.00 189.79 451.63 187.36 449.09 187.34 C 445.90 188.22 442.96 189.81 439.84 190.90 C 438.04 181.30 437.56 171.31 433.48 162.27 C 437.52 161.34 441.54 160.36 445.55 159.30 C 447.24 161.57 449.11 163.92 452.15 164.18 C 454.54 159.00 457.07 153.89 460.01 149.00 C 460.91 147.04 462.91 144.58 461.14 142.52 C 454.54 142.32 447.78 143.20 441.60 145.60 C 436.68 147.52 433.04 151.59 430.35 156.00 C 426.85 149.56 422.22 143.85 418.31 137.68 C 415.67 133.63 413.47 129.32 411.04 125.15 C 417.32 127.41 423.37 124.17 428.16 120.32 C 431.68 123.05 434.60 126.52 436.45 130.59 C 437.43 132.00 437.66 134.69 439.91 134.39 C 442.77 130.38 444.91 125.91 447.39 121.66 C 453.58 125.96 460.91 129.43 464.70 136.33 C 465.90 137.74 467.25 141.68 469.45 139.53 C 470.44 134.02 471.00 128.43 472.34 122.99 C 474.68 126.41 476.96 129.96 477.99 134.03 C 479.03 137.40 478.73 141.01 479.65 144.40 C 481.82 146.03 484.49 146.80 487.00 147.79 C 486.86 149.34 486.74 150.90 486.64 152.46 C 488.48 151.85 490.55 151.54 491.98 150.08 C 497.73 144.96 501.07 137.77 503.54 130.60 C 505.45 125.35 507.44 119.55 512.34 116.31 Z" />
        <path fill="#f0b58b" opacity="1.00"
            d=" M 630.70 354.32 C 643.21 346.42 657.26 340.81 671.93 338.65 C 679.15 337.60 686.59 337.70 693.64 339.71 C 696.48 350.36 702.58 360.64 701.25 372.01 C 697.95 383.89 688.12 392.55 678.23 399.20 C 660.05 410.29 640.76 419.47 622.68 430.73 C 608.16 440.23 592.54 448.89 581.13 462.25 C 580.94 466.95 580.20 472.13 576.39 475.37 C 569.90 480.71 561.67 483.10 553.95 486.02 C 551.56 486.84 549.83 488.80 549.05 491.17 C 547.49 495.49 544.33 499.43 539.91 501.02 C 537.38 501.97 534.82 500.77 532.38 500.16 C 533.41 493.78 536.48 488.07 539.43 482.43 C 540.47 480.70 541.05 477.57 537.97 478.32 C 532.92 482.81 529.46 488.98 527.98 495.57 C 526.29 495.02 524.59 494.54 522.86 494.18 C 524.87 489.02 528.79 484.63 529.65 479.05 C 529.87 476.65 530.28 473.63 527.95 472.10 C 526.50 473.50 525.99 475.48 525.24 477.29 C 523.57 481.65 521.05 485.61 518.90 489.75 C 516.73 488.80 514.54 486.91 515.39 484.27 C 517.23 478.46 521.63 473.45 521.87 467.14 C 521.94 465.67 519.91 464.45 519.06 465.96 C 515.67 470.33 513.33 475.39 510.71 480.24 C 508.61 481.38 507.23 478.86 507.50 477.04 C 507.47 471.19 510.42 465.91 512.57 460.62 C 514.57 456.55 516.04 451.70 520.13 449.19 C 524.76 446.32 530.15 445.07 535.33 443.59 C 543.49 441.29 552.21 441.25 560.14 438.11 C 570.31 433.51 579.39 426.88 588.53 420.54 C 602.13 410.36 616.60 400.62 626.56 386.57 C 631.35 379.50 638.00 374.04 643.77 367.82 C 644.90 366.72 645.05 365.07 645.54 363.66 C 642.38 364.30 639.79 366.26 637.33 368.23 C 635.80 363.29 633.36 358.72 630.70 354.32 Z" />
        <path fill="#f0b58b" opacity="1.00"
            d=" M 422.21 604.62 C 429.50 608.73 436.90 612.64 444.34 616.47 C 443.63 620.96 442.64 627.39 448.08 629.30 C 437.35 647.03 429.28 667.09 429.17 688.08 C 429.75 696.84 430.59 705.62 432.61 714.19 C 423.70 709.90 413.78 708.22 403.97 707.84 C 393.31 707.50 382.36 708.81 372.68 713.50 C 370.77 703.77 367.72 693.97 368.95 683.95 C 370.30 672.48 376.42 662.29 383.24 653.25 C 392.93 641.02 404.87 630.67 413.62 617.68 C 416.56 613.37 419.57 609.11 422.21 604.62 Z" />
        <path fill="#f0b58b" opacity="1.00"
            d=" M 444.22 649.13 C 446.87 642.25 451.00 636.06 453.64 629.18 C 474.02 631.38 494.34 634.22 514.45 638.25 C 525.90 640.51 537.38 642.78 548.54 646.22 C 537.98 656.80 528.05 667.97 518.58 679.53 C 513.65 677.66 508.79 675.51 504.34 672.65 C 501.85 671.17 499.41 669.01 496.29 669.51 C 499.57 676.10 506.55 679.45 512.76 682.72 C 499.97 688.38 489.81 698.79 482.43 710.48 C 478.55 716.91 475.44 723.95 474.63 731.49 C 464.53 724.21 454.13 717.33 444.65 709.25 C 440.48 705.82 435.93 701.77 435.15 696.12 C 432.96 679.95 437.89 663.85 444.22 649.13 Z" />
    </g>
    <g id="#f11b27ff">
        <path fill="var(--shirt-color, grey)" opacity="1.00"
            d=" M 577.54 172.41 C 582.99 170.57 588.27 173.39 592.78 176.24 C 597.96 179.67 601.26 185.10 605.39 189.62 C 612.48 197.52 619.62 205.50 628.11 211.95 C 634.49 217.17 641.44 222.04 645.92 229.14 C 655.45 243.74 659.06 261.13 666.97 276.54 C 656.53 265.65 645.34 254.72 631.16 248.89 C 622.16 245.03 612.13 243.21 602.39 244.68 C 600.86 244.78 600.12 246.30 599.15 247.22 C 605.59 248.42 612.24 248.00 618.63 249.59 C 629.25 252.23 639.16 257.48 647.41 264.66 C 658.50 274.52 668.42 285.61 678.44 296.53 C 682.84 301.29 686.91 306.45 689.80 312.29 C 693.59 320.01 695.78 328.36 698.56 336.47 C 685.48 330.09 670.21 332.80 656.79 336.64 C 639.50 342.22 622.55 351.13 610.80 365.32 C 607.72 360.48 605.49 355.16 604.12 349.60 C 601.96 341.42 597.35 334.26 592.76 327.27 C 586.27 317.13 585.83 304.79 583.86 293.28 C 582.86 294.31 581.51 295.30 581.61 296.92 C 581.00 304.48 582.73 311.96 583.83 319.40 C 573.16 314.37 567.91 302.90 564.65 292.21 C 564.23 292.18 563.40 292.11 562.98 292.08 C 561.26 298.09 563.64 304.30 566.38 309.63 C 569.13 314.59 572.37 319.67 577.46 322.52 C 580.97 324.52 584.75 326.41 587.18 329.78 C 592.24 336.65 596.26 344.35 598.58 352.58 C 600.24 358.22 602.38 364.10 606.88 368.12 C 608.46 369.48 611.26 370.80 612.97 368.94 C 617.50 364.68 621.99 360.36 627.11 356.79 C 629.00 361.70 630.82 366.68 633.57 371.20 C 629.68 374.82 625.93 378.62 622.89 382.99 C 618.06 389.82 612.04 395.70 605.67 401.08 C 596.51 395.18 588.52 387.55 582.46 378.48 C 578.25 372.64 574.55 366.46 570.90 360.27 C 570.43 360.26 569.48 360.24 569.01 360.23 C 568.44 366.10 572.37 371.11 575.10 375.97 C 581.62 387.26 589.95 397.88 601.35 404.57 C 595.02 409.18 589.00 414.19 582.64 418.74 C 572.51 412.36 562.44 405.48 554.75 396.16 C 550.39 390.72 546.72 384.76 543.30 378.70 C 537.63 368.54 534.18 357.37 530.60 346.37 C 530.05 344.34 528.79 342.64 527.35 341.15 C 526.27 348.07 528.56 354.83 530.36 361.42 C 534.35 375.63 541.44 388.89 550.40 400.58 C 558.00 409.45 567.17 417.26 577.89 422.10 C 571.19 425.99 565.28 431.48 557.69 433.65 C 550.64 435.72 543.24 436.11 536.11 437.85 C 529.18 439.57 522.23 441.60 515.99 445.17 C 512.77 433.38 513.69 421.05 512.24 409.01 C 511.35 387.26 505.85 365.84 506.96 343.99 C 507.64 332.59 509.32 321.29 511.12 310.03 C 513.07 296.86 514.87 283.67 516.64 270.48 C 517.87 262.38 518.61 253.96 522.54 246.61 C 529.57 233.36 540.59 222.77 547.51 209.44 C 553.40 198.14 563.72 190.33 572.46 181.39 C 574.96 178.93 576.28 175.62 577.54 172.41 M 609.83 275.19 C 613.64 277.05 617.95 276.72 622.02 277.46 C 632.11 279.10 641.25 284.02 649.98 289.09 C 656.12 292.59 660.19 299.01 666.95 301.53 C 666.32 295.87 661.63 291.94 657.83 288.17 C 645.94 278.35 630.68 271.58 615.02 272.59 C 612.94 272.58 611.42 274.11 609.83 275.19 Z" />
        <path fill="var(--shirt-color, grey)" opacity="1.00"
            d=" M 661.92 415.86 C 672.55 409.99 683.56 404.37 692.35 395.80 C 691.40 410.53 687.97 425.15 689.05 439.98 C 689.48 447.58 691.21 455.05 693.89 462.16 C 688.29 456.40 682.38 450.89 675.79 446.26 C 672.10 443.70 668.56 440.72 664.15 439.49 C 664.89 443.33 668.33 445.50 671.13 447.81 C 677.18 452.40 682.83 457.50 688.10 462.96 C 696.95 471.72 705.26 481.43 709.94 493.12 C 712.23 498.75 713.84 504.81 713.59 510.93 C 712.47 519.30 708.49 526.94 703.80 533.85 C 701.70 536.70 701.38 541.89 696.98 542.03 C 689.18 542.84 683.34 536.75 678.36 531.66 C 665.20 517.85 649.47 506.92 633.97 495.95 C 625.71 489.99 615.41 488.63 606.19 484.79 C 602.79 483.43 599.32 482.20 595.68 481.68 C 596.75 485.43 600.87 486.47 603.91 488.14 C 612.28 492.48 621.90 493.93 629.83 499.17 C 636.91 503.81 643.42 509.25 650.32 514.15 C 642.23 515.81 634.44 519.85 625.99 519.07 C 615.74 518.18 606.75 512.80 597.70 508.41 C 587.38 503.37 577.05 498.26 566.15 494.61 C 561.97 493.16 557.49 493.33 553.15 493.02 C 556.96 489.12 562.76 488.90 567.37 486.38 C 573.66 483.11 580.76 479.75 584.07 473.07 C 585.68 470.16 585.54 466.75 585.26 463.55 C 593.48 456.94 601.64 450.18 610.60 444.57 C 627.19 434.11 644.66 425.15 661.92 415.86 Z" />
    </g>
    <g id="#2b3dcdff">
        <path fill="var(--pants-color, grey)" opacity="1.00"
            d=" M 473.52 540.51 C 489.02 526.20 504.85 512.11 518.57 496.02 C 521.17 498.52 524.52 499.82 528.16 499.40 C 530.17 502.47 533.13 505.05 536.94 505.38 C 543.20 506.22 548.21 501.53 551.92 497.11 C 555.29 497.16 558.85 496.56 562.05 497.90 C 571.61 501.88 581.20 505.82 590.38 510.64 C 601.14 515.77 611.53 522.38 623.50 524.30 C 628.51 525.20 633.61 524.42 638.53 523.36 C 637.37 535.42 638.29 547.63 636.32 559.61 C 635.57 564.90 632.33 569.36 631.21 574.55 C 636.15 573.83 638.24 568.97 639.85 564.89 C 645.09 551.24 642.03 536.40 642.01 522.21 C 646.99 520.85 653.02 517.61 657.72 521.29 C 664.35 526.28 669.84 532.58 676.05 538.07 C 671.25 549.50 667.61 561.37 663.10 572.90 C 659.44 581.68 654.02 589.63 647.60 596.61 C 641.53 603.54 634.08 609.06 627.86 615.85 C 620.66 623.70 613.51 631.63 607.26 640.27 C 604.78 643.50 602.62 646.97 599.84 649.96 C 596.56 653.60 591.30 650.55 587.26 650.19 C 589.95 640.08 592.99 630.06 596.25 620.12 C 599.82 610.31 603.63 600.59 606.79 590.63 C 608.84 583.92 611.77 577.43 612.88 570.46 C 608.19 574.15 606.56 580.07 604.29 585.31 C 596.21 607.11 586.50 628.46 581.82 651.35 C 575.11 650.50 568.27 649.68 562.03 646.92 C 554.83 643.80 547.40 641.21 539.77 639.36 C 509.62 632.32 478.97 627.26 448.15 624.28 C 449.34 619.08 450.36 613.83 451.85 608.71 C 453.59 602.58 458.58 598.29 462.35 593.42 C 473.35 579.50 485.33 566.40 497.42 553.44 C 502.76 547.78 507.26 540.98 514.32 537.29 C 520.27 533.82 527.20 532.49 534.03 532.41 C 551.98 532.04 569.27 537.67 586.97 539.72 C 589.54 540.20 592.10 539.62 594.21 538.07 C 589.67 535.37 584.31 535.01 579.30 533.76 C 560.85 529.10 541.44 524.39 522.46 528.85 C 530.18 523.36 538.39 517.82 547.99 516.46 C 554.91 515.03 561.95 516.45 568.91 515.69 C 563.85 511.81 557.03 512.15 550.99 512.16 C 538.32 512.43 526.94 519.03 517.14 526.52 C 516.72 522.52 518.10 517.54 515.04 514.36 C 513.75 514.78 513.07 515.64 513.00 516.95 C 512.29 521.23 512.49 525.59 512.69 529.91 C 504.98 536.44 498.22 543.96 491.51 551.49 C 476.87 566.97 462.81 583.03 449.87 599.97 C 447.48 603.45 446.44 607.61 445.43 611.66 C 436.85 606.69 427.41 603.29 419.29 597.54 C 426.03 591.18 432.71 584.75 438.66 577.64 C 444.41 570.67 450.65 563.99 454.91 555.95 C 458.68 548.31 467.69 546.13 473.52 540.51 Z" />
        <path fill="var(--socks-color, grey)" opacity="1.00"
            d=" M 498.11 699.12 C 504.34 693.36 511.33 687.33 519.99 685.98 C 528.49 687.09 537.24 688.83 544.65 693.37 C 556.38 700.71 564.91 711.93 572.92 722.98 C 583.67 737.70 592.79 753.58 604.26 767.76 C 612.80 778.26 622.82 787.45 633.89 795.22 C 640.37 799.87 647.57 804.35 651.19 811.77 C 653.23 816.05 655.43 821.05 653.95 825.82 C 650.05 830.32 643.35 829.39 638.04 829.08 C 631.52 828.21 624.50 829.13 619.07 833.05 C 616.37 835.01 614.98 838.14 613.49 841.01 C 606.02 830.21 596.51 821.03 587.09 811.96 C 574.30 800.31 560.88 789.32 546.91 779.12 C 535.65 770.79 523.38 763.98 511.84 756.09 C 500.46 748.69 489.15 741.20 477.93 733.57 C 480.14 720.06 488.72 708.64 498.11 699.12 Z" />
        <path fill="var(--socks-color, grey)" opacity="1.00"
            d=" M 373.73 717.83 C 393.04 711.27 415.57 710.60 433.96 720.34 C 435.44 737.82 435.95 755.39 435.29 772.93 C 434.31 791.04 431.13 808.93 429.61 827.00 C 429.24 838.68 430.51 850.35 430.11 862.05 C 429.75 870.27 431.01 878.54 429.73 886.72 C 429.21 890.46 428.93 894.22 428.83 898.00 C 426.56 899.91 424.17 902.22 421.00 902.29 C 418.28 902.41 416.19 900.41 414.30 898.75 C 410.49 895.16 406.83 891.18 401.97 889.00 C 398.79 887.46 395.18 887.28 391.91 886.06 C 390.67 884.74 390.56 882.81 390.27 881.13 C 389.36 872.94 388.57 864.74 387.77 856.55 C 386.57 844.70 384.69 832.92 384.13 821.01 C 382.79 795.63 381.77 770.18 378.05 745.01 C 376.71 735.94 375.63 726.81 373.73 717.83 Z" />
    </g>
    <g id="#4d4d4dff">
        <path fill="#4d4d4d" opacity="1.00"
            d=" M 655.49 809.55 C 667.53 815.49 680.55 819.26 692.36 825.70 C 700.86 830.84 709.95 837.23 712.89 847.26 C 714.28 851.11 712.66 855.23 710.25 858.29 C 706.65 863.18 700.93 865.68 695.99 868.94 C 689.06 873.66 680.70 875.33 672.80 877.71 C 656.76 881.83 640.77 887.46 627.28 897.30 C 619.49 902.94 612.50 910.68 611.18 920.58 C 607.99 909.87 611.79 898.87 616.07 889.07 C 618.64 882.21 621.92 875.44 622.95 868.13 C 624.00 859.86 617.97 852.99 617.50 844.96 C 617.38 840.29 621.28 836.69 625.52 835.52 C 633.85 832.21 643.02 836.51 651.35 833.25 C 654.40 832.02 657.55 829.98 658.69 826.74 C 660.14 820.83 658.05 814.83 655.49 809.55 Z" />
        <path fill="#4d4d4d" opacity="1.00"
            d=" M 648.29 893.32 C 658.74 888.47 669.92 885.60 680.83 882.07 C 674.09 892.01 669.45 903.33 661.55 912.49 C 654.49 920.77 645.35 927.89 634.55 930.32 C 628.62 931.64 622.54 930.08 617.15 927.56 C 615.96 922.76 616.50 917.54 619.66 913.59 C 626.94 904.16 637.63 898.17 648.29 893.32 Z" />
        <path fill="#4d4d4d" opacity="1.00"
            d=" M 390.31 891.14 C 395.14 892.80 400.11 894.48 403.99 897.93 C 408.71 901.53 412.72 906.82 418.85 907.98 C 425.23 908.87 430.96 904.43 433.85 899.06 C 438.07 912.98 445.73 926.14 446.02 941.01 C 445.98 945.83 446.53 951.30 443.52 955.42 C 441.35 958.38 437.39 958.39 434.10 958.76 C 428.33 959.15 422.50 959.90 417.10 962.07 C 407.53 965.67 398.55 971.80 388.02 972.06 C 375.02 972.37 362.00 972.83 349.01 971.92 C 335.51 971.09 321.80 971.66 308.52 968.76 C 312.17 963.21 318.18 960.01 323.80 956.84 C 336.69 950.36 350.30 945.22 362.54 937.51 C 377.89 927.22 390.23 910.17 390.31 891.14 Z" />
    </g>
</svg>