<?xml version="1.0" encoding="UTF-8" ?>
<!DOCTYPE svg PUBLIC "-//W3C//DTD SVG 1.1//EN" "http://www.w3.org/Graphics/SVG/1.1/DTD/svg11.dtd">
<svg width="1000pt" height="1000pt" viewBox="0 0 1000 1000" version="1.1" xmlns="http://www.w3.org/2000/svg">
    <g id="#020202ff">
        <path fill="#020202" opacity="1.00"
            d=" M 278.96 50.01 C 285.11 45.56 292.19 41.91 299.89 41.40 C 308.60 40.92 317.47 40.87 325.97 43.04 C 329.28 43.71 332.55 45.26 336.00 44.67 C 339.71 44.25 343.23 42.84 346.92 42.30 C 353.26 41.45 360.10 42.68 365.15 46.80 C 370.62 51.28 376.40 55.54 383.14 57.92 C 386.20 59.32 389.99 59.52 392.45 62.01 C 393.68 65.17 390.05 66.65 387.87 67.81 C 391.98 69.43 396.50 71.49 398.21 75.91 C 401.60 84.27 402.24 93.44 405.18 101.96 C 407.93 110.13 409.08 119.25 405.51 127.37 C 407.45 129.22 409.26 131.42 409.59 134.19 C 411.16 141.39 406.35 147.91 406.75 155.08 C 406.53 160.02 408.17 164.70 409.88 169.25 C 407.41 171.28 403.93 169.33 401.13 169.20 C 401.70 170.68 402.28 172.16 402.86 173.65 C 424.84 178.01 446.88 182.19 469.11 185.18 C 481.88 186.83 494.61 191.06 504.63 199.38 C 517.19 208.65 527.23 220.97 540.30 229.59 C 549.38 235.39 560.16 237.34 570.19 240.88 C 581.66 244.95 593.27 248.96 603.70 255.35 C 614.45 262.04 622.40 274.27 621.58 287.26 C 629.21 292.65 634.41 300.54 640.63 307.36 C 646.20 313.49 652.20 319.23 658.52 324.58 C 661.90 327.30 665.58 330.10 670.00 330.69 C 675.70 331.47 681.29 329.48 686.98 329.53 C 701.88 329.95 717.53 331.47 730.47 339.54 C 733.35 341.53 737.13 343.96 736.95 347.94 C 736.91 350.44 734.44 352.10 732.12 352.09 C 727.14 352.01 722.56 349.80 717.93 348.21 C 723.11 353.01 728.82 357.26 733.60 362.47 C 735.59 364.77 737.83 368.06 736.29 371.18 C 735.15 373.63 732.16 373.36 729.92 373.56 C 729.60 374.95 729.42 376.40 728.91 377.75 C 727.43 379.71 724.71 379.74 722.54 380.36 C 721.83 383.45 719.39 386.05 716.01 385.69 C 705.23 385.19 695.54 379.77 685.71 375.83 C 689.66 379.35 693.79 382.67 697.50 386.44 C 699.42 388.51 701.53 391.04 701.17 394.08 C 700.73 397.32 696.98 399.01 694.03 398.27 C 690.23 397.43 686.90 395.36 683.54 393.51 C 675.47 388.91 666.75 385.38 659.28 379.78 C 652.06 374.02 646.70 366.36 639.70 360.36 C 627.20 348.23 612.37 338.75 600.39 326.06 C 592.33 332.51 582.93 337.22 572.96 339.86 C 569.33 340.86 565.58 340.07 561.95 339.53 C 561.73 349.99 561.96 360.65 565.15 370.70 C 567.16 377.39 570.22 383.70 572.76 390.20 C 575.14 396.28 574.39 403.02 572.54 409.14 C 579.16 424.22 588.20 439.12 588.61 456.03 C 588.91 470.45 577.85 481.02 572.30 493.39 C 569.78 498.59 570.77 504.46 570.93 510.00 C 571.22 517.61 567.28 524.88 561.48 529.63 C 564.39 534.92 564.51 541.18 563.93 547.04 C 562.92 555.30 562.23 563.73 559.17 571.56 C 565.88 579.28 570.21 588.82 573.49 598.44 C 574.54 601.71 577.25 603.98 579.38 606.55 C 583.59 611.49 587.77 616.57 590.65 622.43 C 591.97 625.49 593.01 629.27 591.42 632.42 C 589.92 634.85 586.75 634.06 584.39 633.95 C 583.79 636.22 583.70 639.03 581.55 640.49 C 578.37 642.80 574.27 641.45 570.80 640.66 C 563.33 642.31 555.65 642.74 548.02 642.94 C 541.95 643.12 535.33 641.64 531.10 636.98 C 527.69 633.12 525.10 628.63 522.28 624.35 C 519.93 629.15 517.71 634.01 515.59 638.92 C 524.71 651.45 533.53 664.38 545.04 674.90 C 550.72 680.29 556.50 685.64 563.00 690.06 C 571.63 695.89 580.34 701.69 589.73 706.23 C 599.38 710.82 610.36 710.44 620.46 713.49 C 628.28 715.82 636.05 719.33 641.83 725.24 C 645.47 728.76 645.51 734.26 645.35 738.97 C 644.80 747.34 639.67 754.34 634.84 760.83 C 629.99 767.35 623.79 773.31 621.63 781.40 C 619.62 788.84 618.01 796.48 614.43 803.38 C 608.65 814.95 599.28 825.55 586.64 829.55 C 582.41 831.29 578.73 827.68 576.30 824.67 C 568.30 814.24 566.61 800.77 565.73 788.06 C 562.73 778.75 556.74 770.78 551.29 762.77 C 544.08 752.21 535.51 742.34 524.74 735.28 C 506.33 723.18 487.91 711.03 470.40 697.63 C 463.78 692.02 457.05 686.43 451.73 679.51 C 448.30 684.60 445.26 690.04 443.57 695.98 C 442.56 700.40 442.52 705.06 443.75 709.45 C 446.04 712.72 449.35 715.08 452.26 717.76 C 459.10 723.59 465.45 730.12 470.17 737.82 C 478.73 751.89 485.65 766.90 491.85 782.14 C 496.56 793.79 501.94 805.15 507.61 816.37 C 518.93 838.81 528.46 862.08 539.36 884.73 C 542.82 891.52 544.60 899.28 549.86 905.03 C 559.65 915.90 567.45 928.91 570.74 943.26 C 572.44 951.84 572.21 961.64 567.05 969.05 C 561.95 974.24 554.37 975.57 547.57 977.20 C 533.55 979.73 519.70 983.12 505.63 985.41 C 493.25 987.47 480.93 989.91 468.60 992.30 C 453.63 994.90 438.12 997.16 423.08 993.74 C 417.91 992.37 411.70 992.40 407.95 988.04 C 405.02 984.69 406.38 979.80 408.47 976.40 C 412.32 970.04 419.48 967.12 425.63 963.52 C 440.31 954.73 453.18 943.30 465.06 931.06 C 472.62 923.99 479.51 915.64 489.23 911.45 C 484.69 906.41 480.84 900.79 476.12 895.92 C 466.96 885.61 458.20 874.90 450.50 863.45 C 440.06 848.69 430.22 833.53 421.00 817.98 C 410.12 800.06 399.26 782.11 389.32 763.65 C 384.65 755.11 380.87 745.98 374.60 738.42 C 368.91 731.50 364.25 723.50 362.66 714.59 C 359.87 697.79 362.31 680.50 367.67 664.45 C 369.36 658.92 372.11 653.76 373.36 648.10 C 374.64 642.72 376.24 637.42 378.01 632.19 C 375.78 628.53 373.89 624.43 374.42 620.04 C 375.27 610.09 379.54 600.88 382.98 591.63 C 379.74 582.66 384.17 573.63 387.48 565.40 C 394.04 551.09 398.37 535.57 408.00 522.85 C 399.48 522.59 390.79 522.82 382.49 520.61 C 374.43 517.72 367.98 510.80 365.68 502.54 C 360.67 489.96 363.57 476.17 367.78 463.83 C 371.78 452.67 371.09 440.65 371.18 429.00 C 371.12 412.75 365.44 397.21 364.36 381.07 C 363.82 373.52 364.12 365.90 362.72 358.43 C 361.45 352.32 361.16 345.94 358.84 340.09 C 356.56 334.49 355.02 328.63 353.07 322.92 C 350.42 314.96 349.51 305.85 353.25 298.08 C 355.84 292.76 356.91 286.90 357.88 281.11 C 359.01 273.69 356.37 266.39 356.43 258.98 C 356.24 249.75 360.37 241.11 365.32 233.56 C 361.75 233.16 357.77 232.28 354.61 234.53 C 348.17 238.00 342.93 244.86 335.01 244.66 C 323.09 244.44 313.19 236.86 304.47 229.52 C 299.82 225.87 295.98 221.31 291.31 217.69 C 287.94 214.65 282.92 216.95 279.20 214.76 C 276.77 213.33 275.57 210.56 275.05 207.91 C 273.93 202.65 273.54 197.05 270.61 192.39 C 265.95 184.91 258.48 179.80 253.33 172.70 C 248.08 165.94 245.67 157.37 245.35 148.91 C 243.85 148.66 242.34 148.51 240.89 148.08 C 240.15 146.65 239.67 145.12 239.16 143.61 C 237.76 145.18 236.50 147.85 233.94 147.15 C 229.68 146.06 226.25 143.04 222.33 141.17 C 225.19 138.78 228.37 136.55 230.29 133.28 C 231.56 130.67 231.64 127.71 232.08 124.89 C 228.20 126.16 224.07 126.21 220.44 124.17 C 223.17 122.71 225.72 120.94 227.98 118.82 C 228.40 110.80 225.25 102.05 229.72 94.69 C 236.65 83.44 249.84 78.91 258.95 69.90 C 265.68 63.34 271.32 55.60 278.96 50.01 M 250.39 142.15 C 249.58 149.56 250.97 157.12 254.15 163.84 C 256.72 169.01 260.93 173.10 265.02 177.07 C 272.95 168.03 285.65 163.73 297.47 165.66 C 293.94 172.02 290.42 178.40 286.99 184.81 C 284.29 183.27 281.89 181.07 278.89 180.10 C 275.88 180.21 273.00 181.26 270.08 181.89 C 274.50 186.56 278.20 192.18 279.11 198.67 C 280.10 202.48 279.49 206.86 281.75 210.24 C 284.91 211.02 288.42 209.95 291.37 211.62 C 293.90 212.99 296.11 214.87 298.28 216.75 C 305.82 223.64 313.62 230.38 322.45 235.58 C 327.34 238.09 333.18 240.52 338.69 238.68 C 344.50 235.75 349.27 230.95 355.42 228.63 C 359.72 227.07 364.33 228.28 368.55 229.49 C 373.39 223.37 379.91 218.66 383.87 211.84 C 386.50 207.24 389.10 202.50 390.17 197.26 C 391.34 191.67 393.38 186.31 395.67 181.09 C 385.70 178.57 375.07 180.01 365.33 176.56 C 360.30 174.87 358.79 169.49 356.50 165.34 C 353.00 163.66 349.09 163.04 345.52 161.51 C 346.35 165.68 347.07 170.20 345.17 174.20 C 342.88 178.96 339.23 183.24 334.55 185.76 C 335.21 179.22 338.01 172.61 336.07 166.02 C 334.53 160.98 332.43 155.93 329.06 151.83 C 326.36 148.79 322.43 152.49 321.60 155.38 C 320.38 161.79 322.12 168.57 319.76 174.82 C 318.72 178.29 315.10 180.07 311.78 180.62 C 309.58 180.94 306.63 180.87 305.53 178.54 C 303.80 175.21 305.75 171.58 306.54 168.28 C 300.15 165.87 295.92 160.27 290.35 156.60 C 288.25 155.18 285.67 154.81 283.44 153.68 C 275.05 148.37 269.04 139.86 266.46 130.30 C 260.46 133.29 254.79 137.05 250.39 142.15 M 394.98 196.05 C 392.94 206.82 387.57 216.98 379.66 224.60 C 371.74 232.47 364.00 241.61 361.99 252.93 C 360.11 262.60 364.42 272.21 362.82 281.88 C 361.73 288.24 360.39 294.65 357.22 300.34 C 352.47 309.90 357.26 320.40 360.04 329.77 C 362.31 316.66 369.31 305.12 373.50 292.63 C 374.60 289.61 375.71 286.45 378.07 284.15 C 378.36 284.59 378.95 285.45 379.24 285.89 C 377.15 299.94 369.40 312.28 366.21 326.03 C 363.96 335.35 366.09 344.96 367.97 354.14 C 371.05 364.21 378.63 371.98 384.59 380.41 C 394.61 394.47 407.10 407.06 413.80 423.23 C 413.87 416.34 414.25 409.36 412.84 402.57 C 411.02 393.91 408.25 385.45 404.65 377.37 C 403.27 374.20 401.56 371.12 400.98 367.68 C 403.45 366.33 405.04 368.92 406.23 370.69 C 414.64 384.95 421.13 401.12 420.14 417.98 C 419.96 434.49 416.42 452.49 425.02 467.60 C 437.47 455.44 440.11 435.98 454.54 425.48 C 467.40 414.98 484.63 411.04 500.94 412.65 C 508.13 413.56 514.99 416.03 521.75 418.52 C 517.32 408.40 511.34 398.16 501.65 392.28 C 490.24 384.57 476.65 380.08 466.72 370.25 C 463.50 367.32 460.53 363.69 460.45 359.11 C 464.66 362.67 467.95 367.26 472.60 370.34 C 481.13 376.11 490.46 380.59 499.12 386.17 C 493.33 380.54 487.13 375.30 481.88 369.13 C 473.46 359.19 466.19 347.99 462.39 335.43 C 460.39 328.91 457.91 322.17 458.93 315.24 C 459.69 316.44 460.62 317.60 461.07 318.99 C 465.38 332.59 470.51 346.21 479.27 357.64 C 488.39 371.04 502.33 380.11 511.81 393.20 C 516.87 400.28 522.33 407.32 525.12 415.67 C 526.44 419.82 526.99 424.68 524.56 428.55 C 519.85 437.28 515.42 447.62 505.63 451.71 C 507.75 463.97 510.74 476.06 513.89 488.09 C 518.00 485.93 522.22 483.69 526.93 483.24 C 532.96 482.61 539.06 482.74 545.10 483.25 C 549.84 483.84 555.00 484.43 558.68 487.80 C 547.86 486.32 536.84 485.68 525.98 487.25 C 522.01 487.95 518.36 489.71 514.65 491.20 C 517.48 502.89 521.68 514.20 524.50 525.90 C 528.75 527.80 533.34 529.25 538.07 528.82 C 544.18 528.37 550.32 528.01 556.40 527.24 C 559.96 525.32 562.34 521.66 563.91 518.02 C 567.23 510.38 563.03 502.01 565.44 494.19 C 567.87 486.15 573.16 479.44 577.37 472.29 C 581.08 466.57 583.60 459.83 582.83 452.91 C 581.46 438.72 573.92 426.29 568.66 413.34 C 564.46 402.75 558.42 392.98 554.74 382.19 C 550.30 368.55 548.80 354.23 546.39 340.16 C 543.09 321.20 531.94 305.05 525.59 287.14 C 523.40 280.43 519.17 273.24 521.94 266.10 C 523.87 271.26 525.09 276.66 527.29 281.73 C 532.72 295.82 540.64 308.79 546.04 322.89 C 552.48 339.49 552.54 357.57 557.18 374.63 C 559.43 384.85 564.90 393.86 569.36 403.20 C 570.91 392.53 563.81 383.66 560.95 373.90 C 552.96 352.33 559.57 329.07 556.08 306.87 C 552.99 289.58 546.35 273.13 543.50 255.78 C 542.98 252.96 543.06 250.07 543.73 247.28 C 545.45 251.16 546.40 255.31 547.41 259.42 C 551.27 275.15 557.51 290.21 560.61 306.14 C 562.35 315.36 562.04 324.79 562.14 334.13 C 568.56 337.13 575.05 333.44 581.01 331.07 C 594.37 325.53 606.03 315.23 611.91 301.87 C 614.98 294.08 617.85 285.35 615.14 277.03 C 612.28 269.32 606.66 262.55 599.36 258.69 C 584.11 250.21 567.16 245.58 550.59 240.52 C 541.16 237.60 532.81 231.99 525.84 225.08 C 515.11 215.48 505.90 203.72 492.75 197.23 C 482.89 192.01 471.67 190.64 460.77 189.21 C 441.14 186.55 421.76 182.46 402.40 178.32 C 398.90 183.74 396.34 189.73 394.98 196.05 M 620.76 291.96 C 618.31 303.56 612.57 314.31 604.18 322.71 C 616.79 335.59 632.00 345.46 645.03 357.89 C 652.48 364.09 658.02 372.46 666.42 377.52 C 673.50 381.94 681.04 385.55 688.16 389.90 C 690.68 391.46 693.42 392.63 696.28 393.45 C 692.14 387.71 686.27 383.63 681.26 378.74 C 679.40 376.88 677.31 374.24 678.42 371.46 C 679.31 369.35 682.01 369.06 683.95 369.74 C 694.57 373.10 704.06 379.75 715.16 381.64 C 716.90 382.09 718.31 380.83 719.72 380.06 C 713.83 376.90 708.12 373.36 703.15 368.86 C 700.32 366.18 696.59 363.91 695.49 359.95 C 695.89 359.67 696.67 359.10 697.07 358.82 C 702.04 360.79 705.48 365.19 709.85 368.14 C 714.72 371.48 719.74 376.42 726.17 375.31 C 725.25 373.28 724.57 370.93 722.68 369.56 C 717.55 365.62 712.38 361.70 707.78 357.14 C 706.28 355.48 704.08 353.24 705.59 350.91 C 709.67 352.25 712.65 355.49 715.93 358.09 C 720.93 362.06 725.86 366.35 731.90 368.65 C 728.56 363.57 723.81 359.72 719.46 355.56 C 716.18 352.46 713.05 349.19 709.82 346.03 C 701.84 346.33 695.10 351.56 687.15 351.88 C 682.83 352.21 678.40 352.29 674.25 350.90 C 675.93 348.86 678.56 348.76 680.98 348.55 C 690.48 348.15 698.40 341.55 707.90 341.14 C 716.70 340.23 724.08 346.31 732.58 347.38 C 721.46 337.08 705.44 335.57 691.00 334.82 C 683.56 333.83 676.32 337.27 668.90 335.98 C 663.67 335.22 659.24 332.06 655.23 328.81 C 648.37 323.02 641.88 316.75 636.01 309.96 C 631.02 303.87 626.21 297.64 620.76 291.96 M 373.61 401.61 C 375.47 410.95 377.16 420.41 376.94 429.98 C 376.75 441.62 377.01 453.59 372.88 464.68 C 368.75 476.11 365.47 488.99 370.19 500.79 C 372.92 509.21 380.66 514.85 388.89 517.19 C 398.55 518.27 408.30 517.63 418.00 517.81 C 438.34 518.15 457.97 524.07 477.99 526.94 C 475.02 518.34 470.63 510.35 466.59 502.24 C 460.00 505.77 452.40 506.77 445.02 506.34 C 424.71 505.16 404.40 503.82 384.05 504.05 C 387.34 501.16 391.90 501.63 395.95 501.28 C 410.64 500.05 425.38 501.18 440.06 502.03 C 448.41 502.87 457.22 503.01 464.91 499.14 C 456.72 483.16 447.41 467.10 445.13 448.98 C 441.24 455.99 438.33 463.85 432.34 469.41 C 429.52 471.85 424.40 473.68 421.50 470.46 C 416.00 464.77 414.46 456.56 413.55 449.00 C 412.70 442.83 414.19 436.32 411.64 430.43 C 408.36 422.28 403.52 414.82 398.12 407.93 C 388.15 395.27 377.25 383.12 369.69 368.78 C 369.77 379.83 371.29 390.81 373.61 401.61 M 467.72 424.79 C 461.10 428.62 454.12 432.98 450.56 440.03 C 449.86 450.13 453.38 459.95 456.96 469.24 C 464.43 486.31 474.31 502.23 481.49 519.43 C 486.37 531.59 488.88 544.54 493.38 556.83 C 496.69 566.60 501.19 575.92 506.16 584.94 C 510.79 592.38 515.67 599.70 519.39 607.66 C 523.69 616.95 529.32 625.54 534.90 634.09 C 537.79 636.88 542.11 637.51 545.98 637.64 C 552.18 637.56 558.37 636.99 564.55 636.40 C 563.04 635.14 561.53 633.90 560.02 632.66 C 555.45 633.23 550.69 634.18 546.14 633.00 C 543.23 632.14 542.44 628.90 541.87 626.31 C 540.76 620.80 538.88 615.48 537.66 610.00 C 539.32 610.16 541.05 610.33 542.36 611.49 C 551.72 618.43 560.47 626.17 569.65 633.34 C 572.43 635.30 575.85 637.58 579.40 636.46 C 579.97 634.92 580.19 633.28 580.48 631.69 C 571.22 624.62 562.09 616.84 555.68 607.03 C 555.98 606.60 556.57 605.74 556.86 605.32 C 567.99 611.96 575.63 623.35 587.31 629.21 C 586.65 626.07 585.54 623.02 583.68 620.39 C 576.87 610.38 568.50 601.58 560.18 592.84 C 557.85 590.49 555.99 587.63 555.60 584.28 C 558.37 585.53 560.63 587.58 562.93 589.53 C 561.02 585.98 559.32 582.31 557.00 579.01 C 554.07 574.77 549.08 572.87 544.96 570.07 C 536.75 565.00 531.04 556.95 526.02 548.91 C 522.41 541.99 520.00 534.49 518.06 526.95 C 515.88 517.84 512.66 509.03 510.21 500.00 C 504.50 478.00 498.71 455.79 497.67 432.98 C 497.50 428.09 496.87 423.25 496.05 418.44 C 486.36 418.81 476.38 420.13 467.72 424.79 M 499.82 418.44 C 502.97 427.93 503.25 438.01 505.00 447.78 C 511.96 440.77 517.53 432.31 520.99 423.04 C 514.06 421.00 507.01 419.30 499.82 418.44 M 410.28 532.17 C 408.44 539.05 410.21 546.18 411.04 553.08 C 428.87 551.78 446.01 546.13 463.38 542.33 C 462.05 544.47 460.11 546.11 457.67 546.83 C 448.20 550.18 438.40 552.52 428.63 554.80 C 423.08 556.12 417.37 556.60 411.68 556.43 C 410.80 561.71 409.13 566.80 407.77 571.96 C 405.77 579.81 406.98 588.52 402.73 595.74 C 399.04 602.00 394.36 607.69 391.39 614.37 C 386.18 625.95 381.53 637.81 378.35 650.12 C 389.22 649.01 400.28 649.69 410.92 652.23 C 425.81 655.60 439.88 661.64 454.25 666.66 C 465.12 670.49 475.40 676.09 486.81 678.30 C 484.38 665.82 483.32 653.14 481.75 640.54 C 480.22 627.76 480.20 614.86 479.71 602.02 C 479.59 598.67 480.22 595.34 481.53 592.27 C 482.22 594.11 482.75 596.01 483.00 597.97 C 484.76 611.24 485.05 624.66 486.74 637.94 C 488.10 648.37 489.42 658.81 490.56 669.28 C 493.22 664.23 497.19 660.13 500.78 655.77 C 504.65 651.24 505.35 645.12 507.91 639.92 C 511.33 632.86 514.14 625.38 519.13 619.24 C 516.40 614.40 514.14 609.33 511.49 604.46 C 506.87 595.84 500.95 587.97 496.82 579.08 C 488.84 564.08 484.49 547.57 479.57 531.40 C 469.93 531.03 460.57 528.52 451.11 526.86 C 439.41 524.81 427.61 523.00 415.71 522.76 C 413.46 525.60 411.22 528.60 410.28 532.17 M 526.67 534.02 C 528.46 538.96 530.10 543.99 532.46 548.72 C 537.48 557.94 546.19 564.36 555.39 569.03 C 556.81 561.76 557.31 554.37 557.93 547.02 C 558.18 542.81 558.25 538.38 556.61 534.44 C 546.66 533.99 536.49 536.87 526.67 534.02 M 395.81 559.89 C 392.76 567.44 389.02 574.87 387.66 582.98 C 386.67 588.98 391.52 593.59 394.44 598.28 C 396.67 594.79 399.07 591.22 399.74 587.05 C 400.74 581.13 400.71 575.05 402.42 569.26 C 403.58 564.32 406.11 559.50 405.41 554.31 C 404.76 549.29 404.19 544.26 404.03 539.20 C 400.92 545.95 398.82 553.10 395.81 559.89 M 385.57 595.78 C 383.19 605.49 378.30 615.21 380.49 625.43 C 383.78 618.02 386.63 610.36 390.96 603.45 C 389.04 600.98 387.28 598.40 385.57 595.78 M 545.63 620.54 C 546.40 623.09 547.04 625.68 547.76 628.25 C 550.07 628.30 552.39 628.32 554.72 628.34 C 551.67 625.76 548.61 623.19 545.63 620.54 M 507.80 657.81 C 504.69 662.63 499.92 666.11 496.87 670.97 C 494.69 674.26 495.28 678.41 494.03 682.01 C 490.63 683.49 486.72 682.90 483.15 682.46 C 473.95 680.66 465.47 676.48 456.78 673.16 C 456.22 674.00 455.67 674.85 455.12 675.71 C 459.86 681.68 465.55 686.77 471.51 691.50 C 486.45 703.13 502.40 713.37 518.16 723.84 C 524.95 728.30 532.07 732.41 537.99 738.05 C 550.11 749.38 559.49 763.43 566.82 778.25 C 568.09 772.34 570.64 766.83 573.68 761.64 C 578.00 754.19 578.47 745.33 578.52 736.93 C 578.48 727.95 580.79 718.53 586.97 711.75 C 566.60 700.89 547.45 687.24 532.40 669.59 C 525.47 661.41 519.51 652.49 513.24 643.82 C 511.72 648.58 510.66 653.62 507.80 657.81 M 375.52 657.27 C 368.48 674.49 364.27 693.36 366.75 712.00 C 367.69 718.44 370.35 724.58 374.24 729.78 C 377.83 734.63 381.75 739.24 384.84 744.45 C 397.47 726.13 419.68 713.56 442.23 715.31 C 436.77 707.12 437.32 696.42 440.34 687.44 C 442.98 681.34 447.66 676.43 451.79 671.32 C 445.85 669.38 440.05 667.06 434.20 664.87 C 417.26 658.38 399.27 653.30 380.95 654.72 C 379.01 654.99 376.45 655.27 375.52 657.27 M 586.48 721.53 C 582.56 732.03 585.75 743.47 583.10 754.21 C 581.60 762.65 575.19 769.06 573.12 777.31 C 570.99 785.08 571.76 793.26 572.86 801.14 C 573.94 809.10 576.53 817.07 581.52 823.45 C 582.68 825.10 584.91 826.22 586.80 824.98 C 599.21 819.05 607.95 807.14 612.24 794.30 C 614.96 786.34 615.51 777.49 620.39 770.39 C 626.03 762.10 633.60 755.13 638.08 746.05 C 640.66 740.78 641.01 734.14 638.04 728.97 C 635.29 725.50 631.01 723.74 627.10 721.94 C 615.89 716.92 603.29 717.44 591.69 713.79 C 589.51 716.03 587.42 718.48 586.48 721.53 M 420.25 724.22 C 407.18 729.35 395.49 738.31 387.91 750.21 C 394.65 763.79 402.10 777.02 410.05 789.93 C 419.63 805.95 429.41 821.86 439.31 837.70 C 455.75 863.04 472.93 888.20 494.58 909.44 C 497.78 912.58 500.58 916.09 503.70 919.32 C 509.64 925.43 519.29 927.47 527.20 924.26 C 534.18 921.38 540.53 916.50 544.26 909.83 C 541.10 897.72 534.76 886.83 529.43 875.61 C 523.45 863.42 518.06 850.96 512.39 838.63 C 504.51 821.85 495.63 805.53 488.75 788.30 C 482.31 772.27 475.28 756.42 466.36 741.59 C 462.20 734.67 456.63 728.74 450.77 723.24 C 449.39 722.02 447.97 720.58 446.04 720.44 C 437.29 719.23 428.40 721.08 420.25 724.22 M 548.64 913.09 C 545.15 919.84 538.89 924.65 532.28 928.13 C 522.86 932.85 510.95 931.86 502.48 925.59 C 498.50 922.54 495.43 918.54 492.14 914.82 C 484.37 917.87 479.02 924.53 473.24 930.23 C 462.13 942.18 450.37 953.71 436.67 962.69 C 431.10 966.67 424.90 969.58 418.96 972.93 C 414.92 975.21 410.84 978.91 410.89 983.92 C 413.25 987.69 418.14 988.09 422.10 988.86 C 445.62 992.34 468.87 985.78 491.89 981.91 C 504.34 979.79 516.83 977.95 529.14 975.09 C 538.28 973.06 547.65 972.04 556.67 969.45 C 560.21 968.33 564.16 966.24 565.19 962.38 C 566.46 957.24 566.23 951.83 565.23 946.67 C 562.60 934.27 555.94 923.26 548.64 913.09 Z" />
        <path fill="#020202" opacity="1.00"
            d=" M 435.99 265.62 C 439.17 264.88 441.70 267.16 444.01 268.96 C 450.22 274.05 456.09 279.55 461.95 285.04 C 473.07 295.57 481.19 308.65 490.10 320.98 C 496.36 329.58 501.73 338.78 507.04 347.99 C 510.06 353.57 513.44 359.21 514.29 365.62 C 510.25 363.57 508.80 359.03 506.50 355.45 C 498.44 341.19 488.90 327.88 479.45 314.53 C 470.51 301.12 460.15 288.67 448.23 277.82 C 444.23 273.67 439.16 270.50 435.99 265.62 Z" />
        <path fill="#020202" opacity="1.00"
            d=" M 431.66 562.85 C 437.95 561.05 444.22 558.57 450.87 558.68 C 448.35 561.82 444.33 562.69 440.71 563.91 C 434.53 565.97 428.37 568.13 422.32 570.55 C 427.19 570.32 432.04 569.39 436.93 569.84 C 433.53 573.86 427.96 574.28 423.07 574.63 C 420.69 574.64 417.68 574.91 416.09 572.73 C 414.66 571.02 415.61 568.39 417.61 567.65 C 422.09 565.52 426.97 564.42 431.66 562.85 Z" />
    </g>
    <g id="#f0b58bff">
        <path fill="#f0b58b" opacity="1.00"
            d=" M 250.39 142.15 C 254.79 137.05 260.46 133.29 266.46 130.30 C 269.04 139.86 275.05 148.37 283.44 153.68 C 285.67 154.81 288.25 155.18 290.35 156.60 C 295.92 160.27 300.15 165.87 306.54 168.28 C 305.75 171.58 303.80 175.21 305.53 178.54 C 306.63 180.87 309.58 180.94 311.78 180.62 C 315.10 180.07 318.72 178.29 319.76 174.82 C 322.12 168.57 320.38 161.79 321.60 155.38 C 322.43 152.49 326.36 148.79 329.06 151.83 C 332.43 155.93 334.53 160.98 336.07 166.02 C 338.01 172.61 335.21 179.22 334.55 185.76 C 339.23 183.24 342.88 178.96 345.17 174.20 C 347.07 170.20 346.35 165.68 345.52 161.51 C 349.09 163.04 353.00 163.66 356.50 165.34 C 358.79 169.49 360.30 174.87 365.33 176.56 C 375.07 180.01 385.70 178.57 395.67 181.09 C 393.38 186.31 391.34 191.67 390.17 197.26 C 389.10 202.50 386.50 207.24 383.87 211.84 C 379.91 218.66 373.39 223.37 368.55 229.49 C 364.33 228.28 359.72 227.07 355.42 228.63 C 349.27 230.95 344.50 235.75 338.69 238.68 C 333.18 240.52 327.34 238.09 322.45 235.58 C 313.62 230.38 305.82 223.64 298.28 216.75 C 296.11 214.87 293.90 212.99 291.37 211.62 C 288.42 209.95 284.91 211.02 281.75 210.24 C 279.49 206.86 280.10 202.48 279.11 198.67 C 278.20 192.18 274.50 186.56 270.08 181.89 C 273.00 181.26 275.88 180.21 278.89 180.10 C 281.89 181.07 284.29 183.27 286.99 184.81 C 290.42 178.40 293.94 172.02 297.47 165.66 C 285.65 163.73 272.95 168.03 265.02 177.07 C 260.93 173.10 256.72 169.01 254.15 163.84 C 250.97 157.12 249.58 149.56 250.39 142.15 Z" />
        <path fill="#f0b58b" opacity="1.00"
            d=" M 620.76 291.96 C 626.21 297.64 631.02 303.87 636.01 309.96 C 641.88 316.75 648.37 323.02 655.23 328.81 C 659.24 332.06 663.67 335.22 668.90 335.98 C 676.32 337.27 683.56 333.83 691.00 334.82 C 705.44 335.57 721.46 337.08 732.58 347.38 C 724.08 346.31 716.70 340.23 707.90 341.14 C 698.40 341.55 690.48 348.15 680.98 348.55 C 678.56 348.76 675.93 348.86 674.25 350.90 C 678.40 352.29 682.83 352.21 687.15 351.88 C 695.10 351.56 701.84 346.33 709.82 346.03 C 713.05 349.19 716.18 352.46 719.46 355.56 C 723.81 359.72 728.56 363.57 731.90 368.65 C 725.86 366.35 720.93 362.06 715.93 358.09 C 712.65 355.49 709.67 352.25 705.59 350.91 C 704.08 353.24 706.28 355.48 707.78 357.14 C 712.38 361.70 717.55 365.62 722.68 369.56 C 724.57 370.93 725.25 373.28 726.17 375.31 C 719.74 376.42 714.72 371.48 709.85 368.14 C 705.48 365.19 702.04 360.79 697.07 358.82 C 696.67 359.10 695.89 359.67 695.49 359.95 C 696.59 363.91 700.32 366.18 703.15 368.86 C 708.12 373.36 713.83 376.90 719.72 380.06 C 718.31 380.83 716.90 382.09 715.16 381.64 C 704.06 379.75 694.57 373.10 683.95 369.74 C 682.01 369.06 679.31 369.35 678.42 371.46 C 677.31 374.24 679.40 376.88 681.26 378.74 C 686.27 383.63 692.14 387.71 696.28 393.45 C 693.42 392.63 690.68 391.46 688.16 389.90 C 681.04 385.55 673.50 381.94 666.42 377.52 C 658.02 372.46 652.48 364.09 645.03 357.89 C 632.00 345.46 616.79 335.59 604.18 322.71 C 612.57 314.31 618.31 303.56 620.76 291.96 Z" />
        <path fill="#f0b58b" opacity="1.00"
            d=" M 467.72 424.79 C 476.38 420.13 486.36 418.81 496.05 418.44 C 496.87 423.25 497.50 428.09 497.67 432.98 C 498.71 455.79 504.50 478.00 510.21 500.00 C 512.66 509.03 515.88 517.84 518.06 526.95 C 520.00 534.49 522.41 541.99 526.02 548.91 C 531.04 556.95 536.75 565.00 544.96 570.07 C 549.08 572.87 554.07 574.77 557.00 579.01 C 559.32 582.31 561.02 585.98 562.93 589.53 C 560.63 587.58 558.37 585.53 555.60 584.28 C 555.99 587.63 557.85 590.49 560.18 592.84 C 568.50 601.58 576.87 610.38 583.68 620.39 C 585.54 623.02 586.65 626.07 587.31 629.21 C 575.63 623.35 567.99 611.96 556.86 605.32 C 556.57 605.74 555.98 606.60 555.68 607.03 C 562.09 616.84 571.22 624.62 580.48 631.69 C 580.19 633.28 579.97 634.92 579.40 636.46 C 575.85 637.58 572.43 635.30 569.65 633.34 C 560.47 626.17 551.72 618.43 542.36 611.49 C 541.05 610.33 539.32 610.16 537.66 610.00 C 538.88 615.48 540.76 620.80 541.87 626.31 C 542.44 628.90 543.23 632.14 546.14 633.00 C 550.69 634.18 555.45 633.23 560.02 632.66 C 561.53 633.90 563.04 635.14 564.55 636.40 C 558.37 636.99 552.18 637.56 545.98 637.64 C 542.11 637.51 537.79 636.88 534.90 634.09 C 529.32 625.54 523.69 616.95 519.39 607.66 C 515.67 599.70 510.79 592.38 506.16 584.94 C 501.19 575.92 496.69 566.60 493.38 556.83 C 488.88 544.54 486.37 531.59 481.49 519.43 C 474.31 502.23 464.43 486.31 456.96 469.24 C 453.38 459.95 449.86 450.13 450.56 440.03 C 454.12 432.98 461.10 428.62 467.72 424.79 Z" />
        <path fill="#f0b58b" opacity="1.00"
            d=" M 385.57 595.78 C 387.28 598.40 389.04 600.98 390.96 603.45 C 386.63 610.36 383.78 618.02 380.49 625.43 C 378.30 615.21 383.19 605.49 385.57 595.78 Z" />
        <path fill="#f0b58b" opacity="1.00"
            d=" M 375.52 657.27 C 376.45 655.27 379.01 654.99 380.95 654.72 C 399.27 653.30 417.26 658.38 434.20 664.87 C 440.05 667.06 445.85 669.38 451.79 671.32 C 447.66 676.43 442.98 681.34 440.34 687.44 C 437.32 696.42 436.77 707.12 442.23 715.31 C 419.68 713.56 397.47 726.13 384.84 744.45 C 381.75 739.24 377.83 734.63 374.24 729.78 C 370.35 724.58 367.69 718.44 366.75 712.00 C 364.27 693.36 368.48 674.49 375.52 657.27 Z" />
    </g>
    <g id="#f11b27ff">
        <path fill="var(--shirt-color, grey)" opacity="1.00"
            d=" M 394.98 196.05 C 396.34 189.73 398.90 183.74 402.40 178.32 C 421.76 182.46 441.14 186.55 460.77 189.21 C 471.67 190.64 482.89 192.01 492.75 197.23 C 505.90 203.72 515.11 215.48 525.84 225.08 C 532.81 231.99 541.16 237.60 550.59 240.52 C 567.16 245.58 584.11 250.21 599.36 258.69 C 606.66 262.55 612.28 269.32 615.14 277.03 C 617.85 285.35 614.98 294.08 611.91 301.87 C 606.03 315.23 594.37 325.53 581.01 331.07 C 575.05 333.44 568.56 337.13 562.14 334.13 C 562.04 324.79 562.35 315.36 560.61 306.14 C 557.51 290.21 551.27 275.15 547.41 259.42 C 546.40 255.31 545.45 251.16 543.73 247.28 C 543.06 250.07 542.98 252.96 543.50 255.78 C 546.35 273.13 552.99 289.58 556.08 306.87 C 559.57 329.07 552.96 352.33 560.95 373.90 C 563.81 383.66 570.91 392.53 569.36 403.20 C 564.90 393.86 559.43 384.85 557.18 374.63 C 552.54 357.57 552.48 339.49 546.04 322.89 C 540.64 308.79 532.72 295.82 527.29 281.73 C 525.09 276.66 523.87 271.26 521.94 266.10 C 519.17 273.24 523.40 280.43 525.59 287.14 C 531.94 305.05 543.09 321.20 546.39 340.16 C 548.80 354.23 550.30 368.55 554.74 382.19 C 558.42 392.98 564.46 402.75 568.66 413.34 C 573.92 426.29 581.46 438.72 582.83 452.91 C 583.60 459.83 581.08 466.57 577.37 472.29 C 573.16 479.44 567.87 486.15 565.44 494.19 C 563.03 502.01 567.23 510.38 563.91 518.02 C 562.34 521.66 559.96 525.32 556.40 527.24 C 550.32 528.01 544.18 528.37 538.07 528.82 C 533.34 529.25 528.75 527.80 524.50 525.90 C 521.68 514.20 517.48 502.89 514.65 491.20 C 518.36 489.71 522.01 487.95 525.98 487.25 C 536.84 485.68 547.86 486.32 558.68 487.80 C 555.00 484.43 549.84 483.84 545.10 483.25 C 539.06 482.74 532.96 482.61 526.93 483.24 C 522.22 483.69 518.00 485.93 513.89 488.09 C 510.74 476.06 507.75 463.97 505.63 451.71 C 515.42 447.62 519.85 437.28 524.56 428.55 C 526.99 424.68 526.44 419.82 525.12 415.67 C 522.33 407.32 516.87 400.28 511.81 393.20 C 502.33 380.11 488.39 371.04 479.27 357.64 C 470.51 346.21 465.38 332.59 461.07 318.99 C 460.62 317.60 459.69 316.44 458.93 315.24 C 457.91 322.17 460.39 328.91 462.39 335.43 C 466.19 347.99 473.46 359.19 481.88 369.13 C 487.13 375.30 493.33 380.54 499.12 386.17 C 490.46 380.59 481.13 376.11 472.60 370.34 C 467.95 367.26 464.66 362.67 460.45 359.11 C 460.53 363.69 463.50 367.32 466.72 370.25 C 476.65 380.08 490.24 384.57 501.65 392.28 C 511.34 398.16 517.32 408.40 521.75 418.52 C 514.99 416.03 508.13 413.56 500.94 412.65 C 484.63 411.04 467.40 414.98 454.54 425.48 C 440.11 435.98 437.47 455.44 425.02 467.60 C 416.42 452.49 419.96 434.49 420.14 417.98 C 421.13 401.12 414.64 384.95 406.23 370.69 C 405.04 368.92 403.45 366.33 400.98 367.68 C 401.56 371.12 403.27 374.20 404.65 377.37 C 408.25 385.45 411.02 393.91 412.84 402.57 C 414.25 409.36 413.87 416.34 413.80 423.23 C 407.10 407.06 394.61 394.47 384.59 380.41 C 378.63 371.98 371.05 364.21 367.97 354.14 C 366.09 344.96 363.96 335.35 366.21 326.03 C 369.40 312.28 377.15 299.94 379.24 285.89 C 378.95 285.45 378.36 284.59 378.07 284.15 C 375.71 286.45 374.60 289.61 373.50 292.63 C 369.31 305.12 362.31 316.66 360.04 329.77 C 357.26 320.40 352.47 309.90 357.22 300.34 C 360.39 294.65 361.73 288.24 362.82 281.88 C 364.42 272.21 360.11 262.60 361.99 252.93 C 364.00 241.61 371.74 232.47 379.66 224.60 C 387.57 216.98 392.94 206.82 394.98 196.05 M 435.99 265.62 C 439.16 270.50 444.23 273.67 448.23 277.82 C 460.15 288.67 470.51 301.12 479.45 314.53 C 488.90 327.88 498.44 341.19 506.50 355.45 C 508.80 359.03 510.25 363.57 514.29 365.62 C 513.44 359.21 510.06 353.57 507.04 347.99 C 501.73 338.78 496.36 329.58 490.10 320.98 C 481.19 308.65 473.07 295.57 461.95 285.04 C 456.09 279.55 450.22 274.05 444.01 268.96 C 441.70 267.16 439.17 264.88 435.99 265.62 Z" />
        <path fill="var(--shirt-color, grey)" opacity="1.00"
            d=" M 373.61 401.61 C 371.29 390.81 369.77 379.83 369.69 368.78 C 377.25 383.12 388.15 395.27 398.12 407.93 C 403.52 414.82 408.36 422.28 411.64 430.43 C 414.19 436.32 412.70 442.83 413.55 449.00 C 414.46 456.56 416.00 464.77 421.50 470.46 C 424.40 473.68 429.52 471.85 432.34 469.41 C 438.33 463.85 441.24 455.99 445.13 448.98 C 447.41 467.10 456.72 483.16 464.91 499.14 C 457.22 503.01 448.41 502.87 440.06 502.03 C 425.38 501.18 410.64 500.05 395.95 501.28 C 391.90 501.63 387.34 501.16 384.05 504.05 C 404.40 503.82 424.71 505.16 445.02 506.34 C 452.40 506.77 460.00 505.77 466.59 502.24 C 470.63 510.35 475.02 518.34 477.99 526.94 C 457.97 524.07 438.34 518.15 418.00 517.81 C 408.30 517.63 398.55 518.27 388.89 517.19 C 380.66 514.85 372.92 509.21 370.19 500.79 C 365.47 488.99 368.75 476.11 372.88 464.68 C 377.01 453.59 376.75 441.62 376.94 429.98 C 377.16 420.41 375.47 410.95 373.61 401.61 Z" />
        <path fill="var(--shirt-color, grey)" opacity="1.00"
            d=" M 499.82 418.44 C 507.01 419.30 514.06 421.00 520.99 423.04 C 517.53 432.31 511.96 440.77 505.00 447.78 C 503.25 438.01 502.97 427.93 499.82 418.44 Z" />
    </g>
    <g id="#2b3dcdff">
        <path fill="var(--pants-color, grey)" opacity="1.00"
            d=" M 410.28 532.17 C 411.22 528.60 413.46 525.60 415.71 522.76 C 427.61 523.00 439.41 524.81 451.11 526.86 C 460.57 528.52 469.93 531.03 479.57 531.40 C 484.49 547.57 488.84 564.08 496.82 579.08 C 500.95 587.97 506.87 595.84 511.49 604.46 C 514.14 609.33 516.40 614.40 519.13 619.24 C 514.14 625.38 511.33 632.86 507.91 639.92 C 505.35 645.12 504.65 651.24 500.78 655.77 C 497.19 660.13 493.22 664.23 490.56 669.28 C 489.42 658.81 488.10 648.37 486.74 637.94 C 485.05 624.66 484.76 611.24 483.00 597.97 C 482.75 596.01 482.22 594.11 481.53 592.27 C 480.22 595.34 479.59 598.67 479.71 602.02 C 480.20 614.86 480.22 627.76 481.75 640.54 C 483.32 653.14 484.38 665.82 486.81 678.30 C 475.40 676.09 465.12 670.49 454.25 666.66 C 439.88 661.64 425.81 655.60 410.92 652.23 C 400.28 649.69 389.22 649.01 378.35 650.12 C 381.53 637.81 386.18 625.95 391.39 614.37 C 394.36 607.69 399.04 602.00 402.73 595.74 C 406.98 588.52 405.77 579.81 407.77 571.96 C 409.13 566.80 410.80 561.71 411.68 556.43 C 417.37 556.60 423.08 556.12 428.63 554.80 C 438.40 552.52 448.20 550.18 457.67 546.83 C 460.11 546.11 462.05 544.47 463.38 542.33 C 446.01 546.13 428.87 551.78 411.04 553.08 C 410.21 546.18 408.44 539.05 410.28 532.17 M 431.66 562.85 C 426.97 564.42 422.09 565.52 417.61 567.65 C 415.61 568.39 414.66 571.02 416.09 572.73 C 417.68 574.91 420.69 574.64 423.07 574.63 C 427.96 574.28 433.53 573.86 436.93 569.84 C 432.04 569.39 427.19 570.32 422.32 570.55 C 428.37 568.13 434.53 565.97 440.71 563.91 C 444.33 562.69 448.35 561.82 450.87 558.68 C 444.22 558.57 437.95 561.05 431.66 562.85 Z" />
        <path fill="var(--pants-color, grey)" opacity="1.00"
            d=" M 526.67 534.02 C 536.49 536.87 546.66 533.99 556.61 534.44 C 558.25 538.38 558.18 542.81 557.93 547.02 C 557.31 554.37 556.81 561.76 555.39 569.03 C 546.19 564.36 537.48 557.94 532.46 548.72 C 530.10 543.99 528.46 538.96 526.67 534.02 Z" />
        <path fill="var(--pants-color, grey)" opacity="1.00"
            d=" M 395.81 559.89 C 398.82 553.10 400.92 545.95 404.03 539.20 C 404.19 544.26 404.76 549.29 405.41 554.31 C 406.11 559.50 403.58 564.32 402.42 569.26 C 400.71 575.05 400.74 581.13 399.74 587.05 C 399.07 591.22 396.67 594.79 394.44 598.28 C 391.52 593.59 386.67 588.98 387.66 582.98 C 389.02 574.87 392.76 567.44 395.81 559.89 Z" />
        <path fill="var(--socks-color, grey)" opacity="1.00"
            d=" M 507.80 657.81 C 510.66 653.62 511.72 648.58 513.24 643.82 C 519.51 652.49 525.47 661.41 532.40 669.59 C 547.45 687.24 566.60 700.89 586.97 711.75 C 580.79 718.53 578.48 727.95 578.52 736.93 C 578.47 745.33 578.00 754.19 573.68 761.64 C 570.64 766.83 568.09 772.34 566.82 778.25 C 559.49 763.43 550.11 749.38 537.99 738.05 C 532.07 732.41 524.95 728.30 518.16 723.84 C 502.40 713.37 486.45 703.13 471.51 691.50 C 465.55 686.77 459.86 681.68 455.12 675.71 C 455.67 674.85 456.22 674.00 456.78 673.16 C 465.47 676.48 473.95 680.66 483.15 682.46 C 486.72 682.90 490.63 683.49 494.03 682.01 C 495.28 678.41 494.69 674.26 496.87 670.97 C 499.92 666.11 504.69 662.63 507.80 657.81 Z" />
        <path fill="var(--socks-color, grey)" opacity="1.00"
            d=" M 420.25 724.22 C 428.40 721.08 437.29 719.23 446.04 720.44 C 447.97 720.58 449.39 722.02 450.77 723.24 C 456.63 728.74 462.20 734.67 466.36 741.59 C 475.28 756.42 482.31 772.27 488.75 788.30 C 495.63 805.53 504.51 821.85 512.39 838.63 C 518.06 850.96 523.45 863.42 529.43 875.61 C 534.76 886.83 541.10 897.72 544.26 909.83 C 540.53 916.50 534.18 921.38 527.20 924.26 C 519.29 927.47 509.64 925.43 503.70 919.32 C 500.58 916.09 497.78 912.58 494.58 909.44 C 472.93 888.20 455.75 863.04 439.31 837.70 C 429.41 821.86 419.63 805.95 410.05 789.93 C 402.10 777.02 394.65 763.79 387.91 750.21 C 395.49 738.31 407.18 729.35 420.25 724.22 Z" />
    </g>
    <g id="#4d4d4dff">
        <path fill="#4d4d4d" opacity="1.00"
            d=" M 586.48 721.53 C 587.42 718.48 589.51 716.03 591.69 713.79 C 603.29 717.44 615.89 716.92 627.10 721.94 C 631.01 723.74 635.29 725.50 638.04 728.97 C 641.01 734.14 640.66 740.78 638.08 746.05 C 633.60 755.13 626.03 762.10 620.39 770.39 C 615.51 777.49 614.96 786.34 612.24 794.30 C 607.95 807.14 599.21 819.05 586.80 824.98 C 584.91 826.22 582.68 825.10 581.52 823.45 C 576.53 817.07 573.94 809.10 572.86 801.14 C 571.76 793.26 570.99 785.08 573.12 777.31 C 575.19 769.06 581.60 762.65 583.10 754.21 C 585.75 743.47 582.56 732.03 586.48 721.53 Z" />
        <path fill="#4d4d4d" opacity="1.00"
            d=" M 548.64 913.09 C 555.94 923.26 562.60 934.27 565.23 946.67 C 566.23 951.83 566.46 957.24 565.19 962.38 C 564.16 966.24 560.21 968.33 556.67 969.45 C 547.65 972.04 538.28 973.06 529.14 975.09 C 516.83 977.95 504.34 979.79 491.89 981.91 C 468.87 985.78 445.62 992.34 422.10 988.86 C 418.14 988.09 413.25 987.69 410.89 983.92 C 410.84 978.91 414.92 975.21 418.96 972.93 C 424.90 969.58 431.10 966.67 436.67 962.69 C 450.37 953.71 462.13 942.18 473.24 930.23 C 479.02 924.53 484.37 917.87 492.14 914.82 C 495.43 918.54 498.50 922.54 502.48 925.59 C 510.95 931.86 522.86 932.85 532.28 928.13 C 538.89 924.65 545.15 919.84 548.64 913.09 Z" />
    </g>
</svg>