<?xml version="1.0" encoding="UTF-8" ?>
<!DOCTYPE svg PUBLIC "-//W3C//DTD SVG 1.1//EN" "http://www.w3.org/Graphics/SVG/1.1/DTD/svg11.dtd">
<svg width="1000pt" height="1000pt" viewBox="0 0 1000 1000" version="1.1" xmlns="http://www.w3.org/2000/svg">
    <g id="#020202ff">
        <path fill="#020202" opacity="1.00"
            d=" M 511.45 58.46 C 522.53 54.87 534.85 54.27 545.98 57.97 C 549.55 59.07 552.00 62.60 555.87 62.79 C 565.86 64.01 574.41 70.01 582.02 76.21 C 588.83 81.66 592.94 89.80 600.16 94.79 C 603.01 97.01 606.47 98.38 609.09 100.89 C 610.69 104.63 609.00 108.79 607.91 112.46 C 612.43 116.18 616.94 120.79 617.28 127.00 C 618.86 143.53 614.02 160.98 602.69 173.35 C 603.34 181.08 604.97 190.05 599.66 196.59 C 594.64 203.29 586.44 205.93 579.86 210.65 C 587.05 211.10 594.26 211.92 601.20 213.97 C 605.66 215.37 610.89 215.07 614.60 218.32 C 620.29 223.24 623.50 230.21 627.78 236.25 C 632.70 243.52 639.39 249.27 645.34 255.64 C 650.97 261.68 654.98 269.19 656.78 277.26 C 659.48 289.29 659.13 301.75 658.43 313.98 C 657.36 332.76 652.68 351.06 647.18 368.97 C 642.54 383.54 641.93 398.92 641.11 414.06 C 641.08 419.87 642.92 425.46 643.92 431.14 C 648.16 453.06 653.54 474.81 656.06 497.03 C 658.35 515.74 658.46 535.71 650.06 553.04 C 647.41 558.17 645.24 563.88 640.54 567.55 C 635.29 571.71 628.73 574.30 622.06 574.83 C 614.79 575.38 608.77 570.68 603.01 566.98 C 601.77 574.85 599.52 582.55 598.83 590.51 C 598.26 597.14 597.83 603.81 598.35 610.46 C 598.56 615.02 601.98 618.48 603.18 622.75 C 606.78 634.86 602.75 648.02 607.00 660.00 C 611.71 670.33 617.52 680.11 622.63 690.24 C 636.46 695.80 645.75 707.98 654.49 719.46 C 656.11 721.78 658.44 724.02 658.48 727.04 C 657.39 728.49 655.76 729.35 654.21 730.20 C 644.49 735.14 633.97 738.34 623.24 740.19 C 633.89 750.09 643.37 761.83 656.75 768.24 C 666.70 774.26 677.90 777.60 688.24 782.83 C 699.41 788.26 710.54 793.92 720.57 801.31 C 741.00 815.38 760.82 830.31 780.11 845.90 C 786.97 852.06 793.89 858.15 800.74 864.32 C 807.63 870.41 813.01 877.93 819.37 884.54 C 823.67 889.27 828.46 893.78 831.18 899.69 C 843.93 905.83 855.39 915.46 861.51 928.45 C 866.01 937.73 868.73 948.53 865.72 958.70 C 864.37 963.47 860.52 967.08 856.12 969.13 C 844.03 975.08 830.20 976.16 816.92 975.70 C 808.62 975.37 800.32 974.96 792.01 975.37 C 778.69 975.25 765.32 975.21 752.06 976.76 C 736.47 978.38 720.61 981.10 705.02 978.02 C 699.91 977.10 694.45 974.89 691.92 970.04 C 689.86 966.73 689.73 962.28 692.11 959.10 C 696.03 953.59 702.25 950.44 707.73 946.73 C 723.92 936.86 740.41 927.33 757.86 919.82 C 760.14 918.81 762.20 917.39 764.25 915.98 C 760.58 910.05 753.97 907.27 748.34 903.64 C 739.79 898.66 732.07 892.42 723.54 887.42 C 702.08 874.57 680.60 861.74 659.37 848.51 C 636.26 834.61 613.07 820.75 591.31 804.78 C 581.38 797.75 571.77 790.30 562.24 782.74 C 552.41 774.82 544.09 765.25 535.70 755.87 C 533.29 755.69 530.71 755.80 528.59 754.48 C 517.51 748.45 510.41 737.51 504.02 727.03 C 493.01 708.81 481.75 690.75 470.07 672.95 C 465.51 665.91 460.51 659.17 455.35 652.57 C 446.51 653.36 437.51 651.80 428.80 653.91 C 421.33 655.78 414.52 659.71 408.47 664.39 C 402.97 668.68 397.71 673.73 390.97 675.98 C 388.17 677.06 385.68 674.96 383.42 673.62 C 376.70 669.44 371.00 663.87 365.76 657.99 C 347.98 657.86 333.61 669.80 317.92 676.42 C 329.14 683.51 337.51 694.28 344.49 705.39 C 360.62 731.34 367.81 761.45 381.17 788.73 C 384.58 795.87 387.86 803.12 392.22 809.75 C 400.31 821.51 412.33 829.97 420.06 842.01 C 421.72 844.28 423.03 847.09 425.71 848.35 C 432.07 851.70 437.35 856.67 442.92 861.15 C 449.18 866.53 456.03 871.31 461.56 877.49 C 465.47 881.80 466.80 887.95 465.42 893.56 C 463.69 903.04 455.15 909.24 446.92 913.00 C 431.86 919.61 415.41 922.14 399.21 924.19 C 394.66 924.78 390.02 925.13 385.68 926.70 C 380.62 928.41 376.30 931.73 372.49 935.40 C 369.07 938.69 366.21 942.68 362.02 945.07 C 355.85 948.68 348.81 950.34 341.91 951.96 C 330.84 954.62 319.40 955.47 308.04 955.16 C 302.07 954.73 295.67 953.90 290.76 950.19 C 284.77 945.15 284.44 935.64 288.19 929.17 C 295.22 917.28 307.81 910.76 317.79 901.77 C 326.36 894.70 333.49 886.11 341.66 878.62 C 347.30 873.46 350.30 866.23 352.59 859.11 C 346.26 851.59 341.97 842.69 336.54 834.56 C 331.29 826.25 325.05 818.63 319.22 810.73 C 311.30 800.08 302.51 790.14 293.79 780.15 C 286.36 771.07 279.53 761.45 273.85 751.17 C 269.94 744.20 266.01 737.22 261.15 730.85 C 252.60 719.80 243.22 709.43 234.25 698.73 C 226.17 689.04 220.19 676.85 220.45 664.00 C 221.26 652.33 226.20 640.84 234.47 632.51 C 242.35 624.48 251.77 618.21 261.17 612.13 C 272.88 605.24 284.59 598.12 297.39 593.42 C 295.42 592.30 293.64 590.88 292.15 589.18 C 298.26 583.16 305.11 577.95 312.20 573.15 C 320.98 567.09 330.28 561.13 340.95 559.18 C 345.93 558.00 351.29 558.21 355.96 555.90 C 364.52 550.92 367.41 539.74 376.60 535.59 C 383.44 532.54 390.89 535.44 397.98 535.17 C 402.05 529.86 401.76 522.38 406.28 517.31 C 408.94 513.91 413.05 512.25 417.11 511.22 C 415.06 509.30 413.29 507.01 412.66 504.22 C 410.87 497.64 409.61 490.79 409.83 483.95 C 410.12 476.88 415.79 471.86 421.02 467.90 C 428.84 462.12 434.83 453.83 437.52 444.46 C 439.34 438.06 440.58 431.52 442.42 425.13 C 444.73 417.36 448.97 410.30 454.18 404.14 C 448.61 394.60 442.10 385.61 434.78 377.34 C 423.19 388.58 412.31 400.53 400.68 411.73 C 388.32 423.45 373.82 432.55 359.42 441.51 C 340.63 453.18 320.29 461.93 300.43 471.53 C 292.00 475.82 283.15 479.21 274.11 481.95 C 271.67 488.76 267.98 495.83 261.31 499.32 C 255.23 502.57 248.04 502.26 241.54 500.61 C 241.48 500.90 241.36 501.49 241.31 501.78 C 244.57 501.96 249.29 501.33 250.65 505.22 C 252.03 509.54 247.67 512.23 244.56 514.09 C 242.91 518.61 238.16 520.10 234.50 522.54 C 230.72 526.08 226.65 530.29 221.15 530.64 C 215.74 531.02 209.74 531.17 205.09 527.92 C 199.59 524.63 197.18 518.27 195.43 512.44 C 193.56 504.78 193.58 496.31 196.96 489.07 C 200.80 481.44 208.78 477.26 216.45 474.40 C 234.39 466.28 252.10 456.96 266.98 443.89 C 281.38 431.29 295.60 418.48 310.47 406.44 C 325.56 394.21 339.58 380.62 355.72 369.72 C 372.79 358.37 389.68 346.74 406.19 334.59 C 402.77 333.63 399.31 332.90 395.86 332.08 C 396.61 320.82 404.01 311.32 412.34 304.31 C 425.71 294.32 440.50 285.54 450.62 271.94 C 443.69 272.85 437.64 268.88 431.01 267.94 C 426.38 268.44 423.09 272.20 419.00 274.05 C 416.21 275.36 412.59 277.32 409.73 275.19 C 406.90 272.56 408.29 268.27 409.67 265.27 C 406.76 265.67 403.57 266.63 400.78 265.23 C 398.63 264.09 398.08 261.26 398.94 259.13 C 400.59 254.14 404.97 250.81 409.24 248.11 C 404.00 248.64 398.37 249.73 393.37 247.52 C 390.05 246.14 388.92 241.20 391.77 238.81 C 394.99 236.23 399.21 235.50 403.13 234.58 C 401.44 233.16 399.09 231.56 399.81 228.98 C 400.85 225.72 404.52 224.65 407.46 223.81 C 419.08 221.17 431.07 220.60 442.95 220.82 C 449.28 221.10 455.78 221.65 461.67 224.18 C 469.20 227.51 475.81 232.68 481.24 238.84 C 483.29 237.81 485.35 236.79 487.43 235.79 C 484.79 232.63 482.45 229.24 480.16 225.82 C 476.78 220.05 468.43 219.55 465.98 212.98 C 461.62 201.95 462.91 189.61 459.00 178.43 C 448.78 170.71 443.27 158.83 437.19 147.93 C 432.48 149.57 426.73 149.81 422.89 146.13 C 421.35 144.83 422.89 142.97 423.75 141.78 C 429.95 134.26 432.94 124.85 437.28 116.27 C 442.94 104.08 450.44 92.59 460.20 83.29 C 465.22 78.42 471.61 75.32 478.18 73.11 C 489.70 69.22 499.85 62.16 511.45 58.46 M 454.41 139.34 C 453.29 151.24 457.47 162.71 462.14 173.43 C 469.27 168.18 478.91 167.41 487.05 170.67 C 482.84 163.72 481.20 155.69 479.96 147.76 C 474.99 150.62 468.82 155.41 462.99 152.01 C 458.88 147.63 460.57 140.80 458.61 135.45 C 457.19 136.72 455.79 138.02 454.41 139.34 M 506.54 167.53 C 502.42 173.43 502.06 180.85 500.23 187.59 C 498.26 187.23 497.20 185.38 495.98 184.02 C 492.95 180.06 489.60 176.20 487.87 171.45 C 485.16 176.37 480.25 179.38 476.60 183.51 C 474.62 182.11 472.75 180.56 471.06 178.81 C 468.88 179.03 466.71 179.26 464.54 179.48 C 467.41 189.29 467.48 199.69 470.53 209.44 C 472.34 215.17 479.41 215.78 482.75 220.25 C 486.03 224.68 488.90 229.41 491.99 233.98 C 501.45 230.69 511.20 228.21 521.12 226.80 C 534.23 223.84 545.83 216.59 558.84 213.25 C 554.89 211.16 551.43 208.27 548.38 205.04 C 547.27 206.35 546.10 208.72 543.97 207.74 C 535.95 204.88 528.47 200.12 523.39 193.17 C 522.81 195.45 522.95 198.27 520.91 199.87 C 518.68 201.60 515.10 202.08 512.84 200.17 C 511.54 198.64 512.25 196.61 512.62 194.89 C 514.31 187.71 515.52 180.38 515.47 172.99 C 515.35 169.77 515.18 166.22 513.01 163.64 C 510.18 163.11 508.06 165.51 506.54 167.53 M 567.96 204.69 C 566.94 206.84 565.94 209.38 563.26 209.76 C 563.42 210.38 563.74 211.61 563.90 212.23 C 566.60 211.79 569.31 211.40 572.03 211.05 C 570.64 208.95 569.25 206.85 567.96 204.69 M 563.90 218.09 C 554.58 219.90 546.04 224.33 536.77 226.30 C 544.39 226.58 552.13 227.13 559.51 229.18 C 559.57 229.62 559.70 230.49 559.77 230.93 C 556.28 232.09 552.58 231.60 549.00 231.40 C 534.05 230.44 518.83 231.24 504.44 235.65 C 495.75 238.42 486.29 240.18 479.11 246.19 C 474.35 250.07 469.90 254.42 466.46 259.52 C 460.27 268.95 453.31 277.91 445.66 286.20 C 464.79 279.58 484.90 276.02 505.08 274.70 C 517.62 273.88 529.81 270.66 542.17 268.61 C 540.32 270.83 537.83 272.35 535.04 273.03 C 520.01 277.33 504.47 279.36 488.98 281.17 C 475.47 282.92 462.07 285.55 448.95 289.22 C 443.84 290.72 438.21 291.43 434.12 295.16 C 425.82 301.88 415.62 306.29 408.69 314.63 C 405.11 318.69 402.88 323.69 400.38 328.44 C 418.70 331.38 436.56 341.59 446.13 357.84 C 453.78 370.48 458.13 385.20 458.39 399.98 C 465.51 393.14 474.16 388.16 483.02 383.95 C 486.80 382.29 490.81 380.41 495.04 380.94 C 496.17 381.35 498.72 381.58 497.27 383.25 C 493.61 384.55 489.79 385.46 486.38 387.39 C 473.61 394.24 460.90 402.66 453.36 415.41 C 447.42 424.63 445.96 435.68 443.07 446.04 C 440.34 455.40 434.95 464.09 427.43 470.34 C 423.35 473.93 418.19 476.87 415.95 482.04 C 414.75 486.92 416.06 491.98 416.54 496.89 C 417.22 500.08 417.22 503.96 419.77 506.33 C 428.83 509.04 438.49 506.82 447.74 508.28 C 458.47 510.15 469.29 512.35 479.29 516.80 C 487.56 520.83 496.27 524.67 505.67 524.48 C 510.13 521.23 514.86 518.36 519.68 515.68 C 527.06 511.55 534.03 506.74 540.99 501.96 C 555.11 492.32 567.90 480.95 581.09 470.12 C 584.27 467.68 587.43 464.59 591.70 464.44 C 587.79 469.59 582.64 473.57 578.08 478.09 C 565.99 489.07 553.73 499.95 540.29 509.25 C 532.34 514.83 524.34 520.51 515.36 524.34 C 522.82 524.51 530.41 524.58 537.66 526.58 C 544.21 528.22 550.33 531.31 556.98 532.61 C 571.21 534.63 584.53 528.25 598.06 525.04 C 606.31 523.29 615.97 523.52 622.72 529.23 C 626.62 532.30 628.46 537.05 630.21 541.53 C 628.77 541.20 626.94 541.41 626.22 539.83 C 623.27 535.19 619.29 530.67 613.58 529.73 C 600.94 527.32 589.27 534.16 577.26 536.82 C 584.36 540.31 590.10 545.90 595.02 552.00 C 600.07 558.37 606.44 563.68 613.71 567.35 C 620.24 570.85 628.43 569.21 634.49 565.47 C 641.78 559.87 645.76 551.16 648.89 542.75 C 654.81 526.10 652.76 508.08 650.54 490.94 C 647.45 468.74 642.03 446.96 637.89 424.95 C 633.68 402.11 628.75 379.25 627.82 355.97 C 627.83 343.63 627.48 331.26 628.36 318.94 C 628.95 314.79 628.79 310.14 631.62 306.75 C 631.35 322.51 632.33 338.26 632.46 354.02 C 632.90 368.46 635.11 382.76 637.43 396.99 C 637.96 385.05 640.61 373.36 644.18 361.99 C 650.57 340.96 654.02 318.99 653.70 296.99 C 653.39 287.17 652.67 276.90 647.93 268.08 C 643.15 259.18 634.64 253.29 628.21 245.72 C 622.77 239.91 619.41 232.61 614.89 226.14 C 612.92 223.15 609.47 221.74 606.22 220.63 C 592.64 216.26 577.90 215.07 563.90 218.09 M 428.62 227.80 C 432.61 232.03 438.62 232.60 443.88 234.27 C 449.76 235.84 455.35 238.93 459.36 243.55 C 460.76 244.80 459.97 247.25 458.00 247.14 C 453.38 245.81 449.45 242.82 444.92 241.21 C 439.22 238.80 432.65 238.22 427.62 234.37 C 425.12 232.60 424.15 229.62 423.98 226.69 C 418.03 227.21 412.06 227.94 406.35 229.76 C 411.07 230.54 415.91 230.39 420.60 231.40 C 422.55 231.68 423.96 233.99 422.72 235.74 C 420.92 238.05 417.60 237.77 414.98 238.05 C 407.96 238.08 400.46 238.63 394.49 242.73 C 402.19 245.11 410.16 241.99 417.96 243.00 C 420.40 243.33 421.06 246.74 419.02 248.07 C 413.77 252.12 406.82 254.45 403.78 260.87 C 411.79 260.99 415.82 252.77 422.96 250.85 C 425.70 249.96 427.65 253.67 425.40 255.46 C 420.82 260.37 415.10 264.62 412.65 271.13 C 418.02 269.50 422.13 265.37 427.38 263.52 C 432.83 261.60 438.30 264.32 443.54 265.64 C 447.53 266.81 451.70 266.00 455.75 265.63 C 459.64 260.57 462.81 254.92 467.40 250.43 C 470.74 247.11 474.31 244.03 477.86 240.95 C 472.56 236.91 467.13 232.95 461.13 230.00 C 454.28 226.78 446.53 226.47 439.09 226.23 C 435.55 226.23 431.73 225.69 428.62 227.80 M 411.22 336.30 C 405.35 342.15 398.57 346.96 391.89 351.82 C 380.28 360.32 368.27 368.25 356.37 376.32 C 340.90 387.37 326.95 400.35 312.08 412.15 C 295.34 425.29 280.09 440.17 263.66 453.68 C 259.44 457.24 254.62 459.99 249.91 462.85 C 238.84 469.27 227.63 475.67 215.42 479.69 C 208.64 481.94 201.87 486.54 199.73 493.69 C 197.33 502.50 198.83 512.10 202.89 520.19 C 206.03 525.50 212.61 526.91 218.34 526.57 C 214.44 523.13 209.75 519.96 207.74 514.96 C 206.96 513.10 208.40 511.17 210.12 512.76 C 214.71 517.41 219.22 522.28 225.15 525.27 C 226.42 524.29 227.69 523.29 228.94 522.29 C 225.43 521.07 221.66 519.73 219.49 516.51 C 215.56 511.74 216.09 505.24 215.69 499.46 C 219.78 500.27 220.95 504.51 221.18 508.11 C 221.59 513.47 225.77 518.23 231.13 519.09 C 233.65 518.78 235.60 516.84 237.75 515.63 C 233.22 514.24 228.33 512.55 225.56 508.44 C 223.00 504.96 223.89 500.43 223.84 496.41 C 226.98 497.40 227.42 500.80 228.61 503.39 C 230.37 508.06 235.54 510.16 240.11 510.91 C 242.81 510.69 244.69 508.54 246.64 506.92 C 244.10 506.78 241.55 507.03 239.04 506.66 C 236.58 506.07 236.10 503.10 236.40 500.97 C 236.39 498.74 237.36 495.91 239.97 495.72 C 245.47 496.04 251.08 498.45 256.53 496.29 C 262.73 494.45 265.64 488.30 268.83 483.26 C 266.89 483.05 264.73 483.40 263.07 482.15 C 263.27 480.76 264.04 479.93 265.39 479.66 C 275.92 476.20 286.35 472.31 296.23 467.25 C 304.28 463.15 312.56 459.50 320.79 455.76 C 338.23 447.88 354.85 438.30 370.83 427.80 C 383.27 419.92 394.81 410.63 404.86 399.84 C 417.25 387.58 428.43 373.76 443.11 364.10 C 440.17 359.11 436.97 354.22 432.89 350.10 C 426.79 343.97 419.24 339.42 411.22 336.30 M 438.68 373.89 C 443.98 379.84 448.45 386.46 452.64 393.22 C 451.13 384.76 448.83 376.45 445.32 368.60 C 443.10 370.35 440.88 372.11 438.68 373.89 M 409.25 522.30 C 406.52 528.12 405.80 534.91 401.29 539.83 C 410.97 542.49 420.93 544.45 431.01 544.08 C 435.90 544.06 440.82 543.09 445.69 543.85 C 448.04 545.41 444.64 545.90 443.68 546.45 C 437.21 547.80 430.58 548.26 423.99 548.72 C 413.07 549.31 402.55 545.65 392.55 541.66 C 387.40 539.44 380.77 538.22 376.12 542.17 C 370.26 547.65 366.69 555.39 359.82 559.85 C 354.19 563.54 347.19 563.11 340.87 564.62 C 333.56 566.10 327.04 569.88 320.80 573.81 C 313.52 578.43 306.30 583.17 299.24 588.14 C 309.35 593.46 317.56 601.54 326.02 609.07 C 336.87 618.83 347.09 629.25 356.97 639.98 C 366.84 649.84 374.36 662.00 385.50 670.58 C 386.66 671.75 388.39 671.75 389.70 670.81 C 396.96 667.00 402.60 660.87 409.45 656.44 C 416.79 651.64 425.05 647.76 433.93 647.21 C 441.27 646.37 448.66 647.95 455.98 646.89 C 465.04 645.38 472.46 639.57 480.33 635.26 C 490.77 628.99 502.30 624.50 514.26 622.18 C 512.98 624.78 510.17 625.68 507.70 626.71 C 499.80 629.70 492.48 633.97 485.16 638.13 C 476.65 642.98 468.59 648.87 459.13 651.77 C 474.20 668.67 485.14 688.64 497.44 707.53 C 503.92 717.41 509.50 727.90 516.69 737.31 C 520.79 742.80 526.09 747.19 531.15 751.75 C 553.60 747.23 575.20 738.59 598.16 736.65 C 604.45 736.21 610.77 736.31 617.04 735.59 C 629.82 734.28 642.27 730.39 653.70 724.55 C 649.50 718.43 644.31 713.11 639.35 707.61 C 635.25 703.02 630.35 699.21 624.99 696.20 C 626.71 705.02 629.59 714.33 627.02 723.25 C 625.95 721.71 625.10 720.00 625.02 718.10 C 623.85 708.37 621.95 698.50 617.17 689.83 C 613.82 683.79 610.48 677.75 607.35 671.60 C 604.67 666.31 601.50 661.02 600.85 655.01 C 599.84 646.37 600.67 637.64 599.98 628.99 C 599.31 620.99 593.88 614.75 589.38 608.53 C 583.45 600.65 578.78 591.87 575.32 582.64 C 573.65 578.10 571.45 572.92 574.08 568.28 C 577.46 582.63 585.44 595.34 593.99 607.15 C 593.61 592.95 596.67 578.99 601.14 565.59 C 595.79 561.36 591.57 556.00 587.08 550.92 C 580.59 543.53 571.03 538.25 560.99 538.75 C 553.83 538.95 547.32 535.59 540.63 533.56 C 528.53 529.46 515.56 530.63 503.01 530.25 C 494.74 530.08 487.00 526.81 479.70 523.23 C 471.34 518.94 462.14 516.65 452.97 514.89 C 444.47 512.94 435.62 512.73 426.97 513.42 C 420.57 514.82 412.65 515.89 409.25 522.30 M 287.43 603.49 C 273.78 611.26 259.96 618.90 247.56 628.61 C 240.29 634.44 233.42 641.35 230.00 650.21 C 226.49 659.10 224.60 669.48 228.67 678.53 C 234.40 692.22 246.26 701.81 255.17 713.31 C 260.09 705.61 267.33 699.76 275.00 694.96 C 287.38 687.34 301.47 681.79 316.16 681.42 C 314.84 680.43 313.54 679.41 312.25 678.40 C 307.04 679.34 301.77 678.16 297.06 675.92 C 292.08 673.49 286.67 672.25 281.38 670.72 C 283.74 667.82 287.73 669.08 290.87 669.60 C 298.43 671.05 306.27 674.97 313.95 671.98 C 329.94 665.94 344.17 654.00 361.94 653.67 C 343.11 633.26 323.61 613.30 301.69 596.18 C 296.83 598.39 292.11 600.92 287.43 603.49 M 286.43 695.45 C 275.91 700.91 265.22 707.59 259.05 718.04 C 266.49 726.59 272.64 736.16 277.86 746.20 C 284.89 759.84 293.94 772.38 304.16 783.81 C 315.61 796.87 325.74 811.00 335.94 825.04 C 342.78 834.68 348.06 845.28 354.04 855.45 C 357.00 853.34 360.23 851.39 363.94 851.11 C 378.73 849.42 393.30 854.32 408.08 853.74 C 412.58 853.64 416.04 850.45 419.46 847.93 C 412.30 838.06 402.90 830.25 394.54 821.48 C 385.03 811.82 379.79 799.09 374.00 787.07 C 364.38 766.64 358.18 744.81 348.55 724.39 C 342.80 712.44 335.97 700.87 326.88 691.13 C 324.72 688.95 322.63 685.73 319.11 686.18 C 307.61 686.22 296.65 690.57 286.43 695.45 M 591.51 742.85 C 581.88 744.40 572.40 746.68 562.98 749.17 C 554.95 751.23 547.09 753.95 538.88 755.25 C 546.09 761.64 552.46 768.92 559.74 775.25 C 580.71 792.16 602.81 807.68 625.55 822.13 C 626.90 814.83 629.62 807.82 633.46 801.47 C 639.96 790.59 649.07 780.67 660.94 775.69 C 656.10 773.00 651.03 770.69 646.49 767.50 C 635.87 759.84 627.35 749.82 617.83 740.93 C 609.08 741.88 600.21 741.44 591.51 742.85 M 649.67 788.74 C 639.85 798.58 632.65 811.24 630.21 825.00 C 651.90 838.22 673.55 851.49 695.13 864.88 C 711.13 874.87 727.69 884.02 742.99 895.08 C 749.85 899.93 757.55 903.60 763.98 909.05 C 767.52 911.84 768.19 916.45 769.70 920.41 C 771.49 922.34 774.46 922.28 776.91 922.65 C 784.16 923.14 792.10 923.37 798.53 919.44 C 804.22 915.19 809.20 910.09 814.46 905.35 C 817.95 902.16 822.52 900.69 826.93 899.29 C 821.05 891.52 813.88 884.88 807.64 877.42 C 802.96 871.77 797.44 866.93 791.87 862.19 C 784.05 855.67 776.84 848.43 768.57 842.46 C 748.98 826.82 728.76 811.95 707.84 798.13 C 694.39 790.43 680.48 783.37 665.87 778.13 C 659.73 780.38 654.27 784.15 649.67 788.74 M 421.58 854.51 C 418.83 856.11 416.40 858.36 413.30 859.28 C 409.96 860.25 406.44 860.23 403.01 860.07 C 391.92 859.42 381.02 856.98 369.93 856.42 C 366.96 856.33 363.62 856.15 361.23 858.22 C 356.78 861.46 356.42 867.41 353.90 871.93 C 350.28 879.85 342.99 884.98 337.17 891.15 C 331.82 896.84 326.12 902.20 320.11 907.18 C 311.42 914.78 300.77 920.39 294.20 930.18 C 291.06 934.40 290.16 941.00 293.77 945.21 C 297.07 948.26 301.85 948.82 306.13 949.37 C 318.00 950.16 329.98 949.03 341.56 946.28 C 349.77 944.29 358.92 942.49 364.69 935.75 C 369.30 930.61 374.50 925.81 380.77 922.80 C 385.19 920.66 390.06 919.74 394.90 919.14 C 408.38 917.41 421.94 915.44 434.90 911.19 C 442.23 908.77 449.78 905.86 455.28 900.22 C 458.98 896.69 460.56 891.21 459.68 886.24 C 458.62 882.44 455.42 879.82 452.55 877.36 C 445.94 872.02 439.30 866.71 432.87 861.16 C 429.66 858.56 426.63 855.58 422.82 853.86 C 422.51 854.03 421.89 854.35 421.58 854.51 M 815.65 909.65 C 810.50 914.50 805.52 919.64 799.62 923.59 C 791.16 927.99 781.05 927.58 771.91 925.96 C 768.81 925.58 766.73 923.20 764.93 920.89 C 760.25 924.14 755.09 926.55 750.01 929.06 C 735.69 936.48 721.57 944.30 707.95 952.92 C 704.04 955.58 699.72 957.92 696.76 961.70 C 693.91 964.89 696.98 969.42 700.23 970.87 C 705.17 972.94 710.64 973.14 715.93 973.51 C 732.69 974.23 749.28 971.07 765.98 970.30 C 777.97 969.83 789.97 969.77 801.96 969.85 C 816.11 969.59 830.49 970.76 844.40 967.50 C 849.27 966.16 854.39 964.62 858.19 961.13 C 862.12 956.85 861.82 950.42 861.27 945.03 C 859.25 934.15 854.08 923.66 846.10 915.92 C 840.71 910.53 833.93 907.00 827.47 903.12 C 823.11 904.42 818.85 906.32 815.65 909.65 Z" />
        <path fill="#020202" opacity="1.00"
            d=" M 589.92 410.87 C 591.80 409.03 594.01 407.56 596.38 406.42 C 594.62 410.94 590.88 414.16 587.72 417.68 C 576.51 429.52 563.87 439.88 551.70 450.70 C 538.66 462.02 524.80 472.78 509.00 479.97 C 501.73 482.88 493.91 485.64 485.98 484.96 C 480.20 484.62 477.55 475.24 483.15 472.74 C 484.87 473.41 484.36 475.59 484.85 477.03 C 484.80 479.24 487.51 478.73 488.96 478.82 C 505.02 477.63 518.97 468.69 531.89 459.81 C 544.43 450.88 555.90 440.56 567.76 430.77 C 575.35 424.36 582.70 417.68 589.92 410.87 Z" />
        <path fill="#020202" opacity="1.00"
            d=" M 472.76 618.81 C 477.93 617.58 483.02 615.38 488.46 615.90 C 484.91 618.53 480.72 619.99 476.61 621.48 C 465.95 625.06 455.15 628.52 443.99 630.08 C 432.34 631.97 420.61 630.02 408.98 629.08 C 399.74 628.13 390.42 628.46 381.20 627.29 C 376.56 626.66 371.76 626.83 367.26 625.41 C 366.95 625.03 366.35 624.25 366.04 623.87 C 368.22 622.96 370.59 622.83 372.92 622.90 C 383.63 623.31 394.36 622.31 405.06 623.19 C 417.02 623.87 428.93 626.43 440.94 625.27 C 451.75 624.30 462.27 621.47 472.76 618.81 Z" />
        <path fill="#020202" opacity="1.00"
            d=" M 378.95 644.57 C 392.60 643.41 406.27 641.60 420.00 642.33 C 421.91 642.43 423.64 643.34 425.41 644.01 C 422.05 646.37 417.83 646.07 413.95 646.43 C 401.32 647.36 388.67 648.04 376.02 648.44 C 374.06 648.26 370.57 649.07 371.69 645.91 C 374.03 645.12 376.50 644.81 378.95 644.57 Z" />
        <path fill="#020202" opacity="1.00"
            d=" M 396.21 894.23 C 408.04 886.85 421.89 881.61 436.02 882.44 C 440.51 882.94 446.07 883.35 448.39 887.90 C 433.21 884.53 417.54 888.90 404.18 896.17 C 395.24 901.04 387.55 907.93 378.36 912.38 C 369.84 916.68 360.44 918.88 351.03 920.10 C 341.32 921.45 331.12 920.86 321.97 924.91 C 316.37 927.04 311.63 930.81 306.33 933.52 C 306.79 932.00 306.82 930.22 308.12 929.14 C 311.41 925.98 315.28 923.47 319.21 921.17 C 325.57 917.52 332.96 916.47 340.14 915.74 C 352.16 914.55 364.34 912.60 375.35 907.40 C 382.84 903.91 389.22 898.56 396.21 894.23 Z" />
    </g>
    <g id="#f0b58bff">
        <path fill="#f0b58b" opacity="1.00"
            d=" M 454.41 139.34 C 455.79 138.02 457.19 136.72 458.61 135.45 C 460.57 140.80 458.88 147.63 462.99 152.01 C 468.82 155.41 474.99 150.62 479.96 147.76 C 481.20 155.69 482.84 163.72 487.05 170.67 C 478.91 167.41 469.27 168.18 462.14 173.43 C 457.47 162.71 453.29 151.24 454.41 139.34 Z" />
        <path fill="#f0b58b" opacity="1.00"
            d=" M 506.54 167.53 C 508.06 165.51 510.18 163.11 513.01 163.64 C 515.18 166.22 515.35 169.77 515.47 172.99 C 515.52 180.38 514.31 187.71 512.62 194.89 C 512.25 196.61 511.54 198.64 512.84 200.17 C 515.10 202.08 518.68 201.60 520.91 199.87 C 522.95 198.27 522.81 195.45 523.39 193.17 C 528.47 200.12 535.95 204.88 543.97 207.74 C 546.10 208.72 547.27 206.35 548.38 205.04 C 551.43 208.27 554.89 211.16 558.84 213.25 C 545.83 216.59 534.23 223.84 521.12 226.80 C 511.20 228.21 501.45 230.69 491.99 233.98 C 488.90 229.41 486.03 224.68 482.75 220.25 C 479.41 215.78 472.34 215.17 470.53 209.44 C 467.48 199.69 467.41 189.29 464.54 179.48 C 466.71 179.26 468.88 179.03 471.06 178.81 C 472.75 180.56 474.62 182.11 476.60 183.51 C 480.25 179.38 485.16 176.37 487.87 171.45 C 489.60 176.20 492.95 180.06 495.98 184.02 C 497.20 185.38 498.26 187.23 500.23 187.59 C 502.06 180.85 502.42 173.43 506.54 167.53 Z" />
        <path fill="#f0b58b" opacity="1.00"
            d=" M 567.96 204.69 C 569.25 206.85 570.64 208.95 572.03 211.05 C 569.31 211.40 566.60 211.79 563.90 212.23 C 563.74 211.61 563.42 210.38 563.26 209.76 C 565.94 209.38 566.94 206.84 567.96 204.69 Z" />
        <path fill="#f0b58b" opacity="1.00"
            d=" M 428.62 227.80 C 431.73 225.69 435.55 226.23 439.09 226.23 C 446.53 226.47 454.28 226.78 461.13 230.00 C 467.13 232.95 472.56 236.91 477.86 240.95 C 474.31 244.03 470.74 247.11 467.40 250.43 C 462.81 254.92 459.64 260.57 455.75 265.63 C 451.70 266.00 447.53 266.81 443.54 265.64 C 438.30 264.32 432.83 261.60 427.38 263.52 C 422.13 265.37 418.02 269.50 412.65 271.13 C 415.10 264.62 420.82 260.37 425.40 255.46 C 427.65 253.67 425.70 249.96 422.96 250.85 C 415.82 252.77 411.79 260.99 403.78 260.87 C 406.82 254.45 413.77 252.12 419.02 248.07 C 421.06 246.74 420.40 243.33 417.96 243.00 C 410.16 241.99 402.19 245.11 394.49 242.73 C 400.46 238.63 407.96 238.08 414.98 238.05 C 417.60 237.77 420.92 238.05 422.72 235.74 C 423.96 233.99 422.55 231.68 420.60 231.40 C 415.91 230.39 411.07 230.54 406.35 229.76 C 412.06 227.94 418.03 227.21 423.98 226.69 C 424.15 229.62 425.12 232.60 427.62 234.37 C 432.65 238.22 439.22 238.80 444.92 241.21 C 449.45 242.82 453.38 245.81 458.00 247.14 C 459.97 247.25 460.76 244.80 459.36 243.55 C 455.35 238.93 449.76 235.84 443.88 234.27 C 438.62 232.60 432.61 232.03 428.62 227.80 Z" />
        <path fill="#f0b58b" opacity="1.00"
            d=" M 411.22 336.30 C 419.24 339.42 426.79 343.97 432.89 350.10 C 436.97 354.22 440.17 359.11 443.11 364.10 C 428.43 373.76 417.25 387.58 404.86 399.84 C 394.81 410.63 383.27 419.92 370.83 427.80 C 354.85 438.30 338.23 447.88 320.79 455.76 C 312.56 459.50 304.28 463.15 296.23 467.25 C 286.35 472.31 275.92 476.20 265.39 479.66 C 264.04 479.93 263.27 480.76 263.07 482.15 C 264.73 483.40 266.89 483.05 268.83 483.26 C 265.64 488.30 262.73 494.45 256.53 496.29 C 251.08 498.45 245.47 496.04 239.97 495.72 C 237.36 495.91 236.39 498.74 236.40 500.97 C 236.10 503.10 236.58 506.07 239.04 506.66 C 241.55 507.03 244.10 506.78 246.64 506.92 C 244.69 508.54 242.81 510.69 240.11 510.91 C 235.54 510.16 230.37 508.06 228.61 503.39 C 227.42 500.80 226.98 497.40 223.84 496.41 C 223.89 500.43 223.00 504.96 225.56 508.44 C 228.33 512.55 233.22 514.24 237.75 515.63 C 235.60 516.84 233.65 518.78 231.13 519.09 C 225.77 518.23 221.59 513.47 221.18 508.11 C 220.95 504.51 219.78 500.27 215.69 499.46 C 216.09 505.24 215.56 511.74 219.49 516.51 C 221.66 519.73 225.43 521.07 228.94 522.29 C 227.69 523.29 226.42 524.29 225.15 525.27 C 219.22 522.28 214.71 517.41 210.12 512.76 C 208.40 511.17 206.96 513.10 207.74 514.96 C 209.75 519.96 214.44 523.13 218.34 526.57 C 212.61 526.91 206.03 525.50 202.89 520.19 C 198.83 512.10 197.33 502.50 199.73 493.69 C 201.87 486.54 208.64 481.94 215.42 479.69 C 227.63 475.67 238.84 469.27 249.91 462.85 C 254.62 459.99 259.44 457.24 263.66 453.68 C 280.09 440.17 295.34 425.29 312.08 412.15 C 326.95 400.35 340.90 387.37 356.37 376.32 C 368.27 368.25 380.28 360.32 391.89 351.82 C 398.57 346.96 405.35 342.15 411.22 336.30 Z" />
        <path fill="#f0b58b" opacity="1.00"
            d=" M 287.43 603.49 C 292.11 600.92 296.83 598.39 301.69 596.18 C 323.61 613.30 343.11 633.26 361.94 653.67 C 344.17 654.00 329.94 665.94 313.95 671.98 C 306.27 674.97 298.43 671.05 290.87 669.60 C 287.73 669.08 283.74 667.82 281.38 670.72 C 286.67 672.25 292.08 673.49 297.06 675.92 C 301.77 678.16 307.04 679.34 312.25 678.40 C 313.54 679.41 314.84 680.43 316.16 681.42 C 301.47 681.79 287.38 687.34 275.00 694.96 C 267.33 699.76 260.09 705.61 255.17 713.31 C 246.26 701.81 234.40 692.22 228.67 678.53 C 224.60 669.48 226.49 659.10 230.00 650.21 C 233.42 641.35 240.29 634.44 247.56 628.61 C 259.96 618.90 273.78 611.26 287.43 603.49 Z" />
        <path fill="#f0b58b" opacity="1.00"
            d=" M 591.51 742.85 C 600.21 741.44 609.08 741.88 617.83 740.93 C 627.35 749.82 635.87 759.84 646.49 767.50 C 651.03 770.69 656.10 773.00 660.94 775.69 C 649.07 780.67 639.96 790.59 633.46 801.47 C 629.62 807.82 626.90 814.83 625.55 822.13 C 602.81 807.68 580.71 792.16 559.74 775.25 C 552.46 768.92 546.09 761.64 538.88 755.25 C 547.09 753.95 554.95 751.23 562.98 749.17 C 572.40 746.68 581.88 744.40 591.51 742.85 Z" />
    </g>
    <g id="#f11b27ff">
        <path fill="var(--shirt-color, grey)" opacity="1.00"
            d=" M 563.90 218.09 C 577.90 215.07 592.64 216.26 606.22 220.63 C 609.47 221.74 612.92 223.15 614.89 226.14 C 619.41 232.61 622.77 239.91 628.21 245.72 C 634.64 253.29 643.15 259.18 647.93 268.08 C 652.67 276.90 653.39 287.17 653.70 296.99 C 654.02 318.99 650.57 340.96 644.18 361.99 C 640.61 373.36 637.96 385.05 637.43 396.99 C 635.11 382.76 632.90 368.46 632.46 354.02 C 632.33 338.26 631.35 322.51 631.62 306.75 C 628.79 310.14 628.95 314.79 628.36 318.94 C 627.48 331.26 627.83 343.63 627.82 355.97 C 628.75 379.25 633.68 402.11 637.89 424.95 C 642.03 446.96 647.45 468.74 650.54 490.94 C 652.76 508.08 654.81 526.10 648.89 542.75 C 645.76 551.16 641.78 559.87 634.49 565.47 C 628.43 569.21 620.24 570.85 613.71 567.35 C 606.44 563.68 600.07 558.37 595.02 552.00 C 590.10 545.90 584.36 540.31 577.26 536.82 C 589.27 534.16 600.94 527.32 613.58 529.73 C 619.29 530.67 623.27 535.19 626.22 539.83 C 626.94 541.41 628.77 541.20 630.21 541.53 C 628.46 537.05 626.62 532.30 622.72 529.23 C 615.97 523.52 606.31 523.29 598.06 525.04 C 584.53 528.25 571.21 534.63 556.98 532.61 C 550.33 531.31 544.21 528.22 537.66 526.58 C 530.41 524.58 522.82 524.51 515.36 524.34 C 524.34 520.51 532.34 514.83 540.29 509.25 C 553.73 499.95 565.99 489.07 578.08 478.09 C 582.64 473.57 587.79 469.59 591.70 464.44 C 587.43 464.59 584.27 467.68 581.09 470.12 C 567.90 480.95 555.11 492.32 540.99 501.96 C 534.03 506.74 527.06 511.55 519.68 515.68 C 514.86 518.36 510.13 521.23 505.67 524.48 C 496.27 524.67 487.56 520.83 479.29 516.80 C 469.29 512.35 458.47 510.15 447.74 508.28 C 438.49 506.82 428.83 509.04 419.77 506.33 C 417.22 503.96 417.22 500.08 416.54 496.89 C 416.06 491.98 414.75 486.92 415.95 482.04 C 418.19 476.87 423.35 473.93 427.43 470.34 C 434.95 464.09 440.34 455.40 443.07 446.04 C 445.96 435.68 447.42 424.63 453.36 415.41 C 460.90 402.66 473.61 394.24 486.38 387.39 C 489.79 385.46 493.61 384.55 497.27 383.25 C 498.72 381.58 496.17 381.35 495.04 380.94 C 490.81 380.41 486.80 382.29 483.02 383.95 C 474.16 388.16 465.51 393.14 458.39 399.98 C 458.13 385.20 453.78 370.48 446.13 357.84 C 436.56 341.59 418.70 331.38 400.38 328.44 C 402.88 323.69 405.11 318.69 408.69 314.63 C 415.62 306.29 425.82 301.88 434.12 295.16 C 438.21 291.43 443.84 290.72 448.95 289.22 C 462.07 285.55 475.47 282.92 488.98 281.17 C 504.47 279.36 520.01 277.33 535.04 273.03 C 537.83 272.35 540.32 270.83 542.17 268.61 C 529.81 270.66 517.62 273.88 505.08 274.70 C 484.90 276.02 464.79 279.58 445.66 286.20 C 453.31 277.91 460.27 268.95 466.46 259.52 C 469.90 254.42 474.35 250.07 479.11 246.19 C 486.29 240.18 495.75 238.42 504.44 235.65 C 518.83 231.24 534.05 230.44 549.00 231.40 C 552.58 231.60 556.28 232.09 559.77 230.93 C 559.70 230.49 559.57 229.62 559.51 229.18 C 552.13 227.13 544.39 226.58 536.77 226.30 C 546.04 224.33 554.58 219.90 563.90 218.09 M 589.92 410.87 C 582.70 417.68 575.35 424.36 567.76 430.77 C 555.90 440.56 544.43 450.88 531.89 459.81 C 518.97 468.69 505.02 477.63 488.96 478.82 C 487.51 478.73 484.80 479.24 484.85 477.03 C 484.36 475.59 484.87 473.41 483.15 472.74 C 477.55 475.24 480.20 484.62 485.98 484.96 C 493.91 485.64 501.73 482.88 509.00 479.97 C 524.80 472.78 538.66 462.02 551.70 450.70 C 563.87 439.88 576.51 429.52 587.72 417.68 C 590.88 414.16 594.62 410.94 596.38 406.42 C 594.01 407.56 591.80 409.03 589.92 410.87 Z" />
        <path fill="var(--shirt-color, grey)" opacity="1.00"
            d=" M 438.68 373.89 C 440.88 372.11 443.10 370.35 445.32 368.60 C 448.83 376.45 451.13 384.76 452.64 393.22 C 448.45 386.46 443.98 379.84 438.68 373.89 Z" />
    </g>
    <g id="#2b3dcdff">
        <path fill="var(--pants-color, grey)" opacity="1.00"
            d=" M 409.25 522.30 C 412.65 515.89 420.57 514.82 426.97 513.42 C 435.62 512.73 444.47 512.94 452.97 514.89 C 462.14 516.65 471.34 518.94 479.70 523.23 C 487.00 526.81 494.74 530.08 503.01 530.25 C 515.56 530.63 528.53 529.46 540.63 533.56 C 547.32 535.59 553.83 538.95 560.99 538.75 C 571.03 538.25 580.59 543.53 587.08 550.92 C 591.57 556.00 595.79 561.36 601.14 565.59 C 596.67 578.99 593.61 592.95 593.99 607.15 C 585.44 595.34 577.46 582.63 574.08 568.28 C 571.45 572.92 573.65 578.10 575.32 582.64 C 578.78 591.87 583.45 600.65 589.38 608.53 C 593.88 614.75 599.31 620.99 599.98 628.99 C 600.67 637.64 599.84 646.37 600.85 655.01 C 601.50 661.02 604.67 666.31 607.35 671.60 C 610.48 677.75 613.82 683.79 617.17 689.83 C 621.95 698.50 623.85 708.37 625.02 718.10 C 625.10 720.00 625.95 721.71 627.02 723.25 C 629.59 714.33 626.71 705.02 624.99 696.20 C 630.35 699.21 635.25 703.02 639.35 707.61 C 644.31 713.11 649.50 718.43 653.70 724.55 C 642.27 730.39 629.82 734.28 617.04 735.59 C 610.77 736.31 604.45 736.21 598.16 736.65 C 575.20 738.59 553.60 747.23 531.15 751.75 C 526.09 747.19 520.79 742.80 516.69 737.31 C 509.50 727.90 503.92 717.41 497.44 707.53 C 485.14 688.64 474.20 668.67 459.13 651.77 C 468.59 648.87 476.65 642.98 485.16 638.13 C 492.48 633.97 499.80 629.70 507.70 626.71 C 510.17 625.68 512.98 624.78 514.26 622.18 C 502.30 624.50 490.77 628.99 480.33 635.26 C 472.46 639.57 465.04 645.38 455.98 646.89 C 448.66 647.95 441.27 646.37 433.93 647.21 C 425.05 647.76 416.79 651.64 409.45 656.44 C 402.60 660.87 396.96 667.00 389.70 670.81 C 388.39 671.75 386.66 671.75 385.50 670.58 C 374.36 662.00 366.84 649.84 356.97 639.98 C 347.09 629.25 336.87 618.83 326.02 609.07 C 317.56 601.54 309.35 593.46 299.24 588.14 C 306.30 583.17 313.52 578.43 320.80 573.81 C 327.04 569.88 333.56 566.10 340.87 564.62 C 347.19 563.11 354.19 563.54 359.82 559.85 C 366.69 555.39 370.26 547.65 376.12 542.17 C 380.77 538.22 387.40 539.44 392.55 541.66 C 402.55 545.65 413.07 549.31 423.99 548.72 C 430.58 548.26 437.21 547.80 443.68 546.45 C 444.64 545.90 448.04 545.41 445.69 543.85 C 440.82 543.09 435.90 544.06 431.01 544.08 C 420.93 544.45 410.97 542.49 401.29 539.83 C 405.80 534.91 406.52 528.12 409.25 522.30 M 472.76 618.81 C 462.27 621.47 451.75 624.30 440.94 625.27 C 428.93 626.43 417.02 623.87 405.06 623.19 C 394.36 622.31 383.63 623.31 372.92 622.90 C 370.59 622.83 368.22 622.96 366.04 623.87 C 366.35 624.25 366.95 625.03 367.26 625.41 C 371.76 626.83 376.56 626.66 381.20 627.29 C 390.42 628.46 399.74 628.13 408.98 629.08 C 420.61 630.02 432.34 631.97 443.99 630.08 C 455.15 628.52 465.95 625.06 476.61 621.48 C 480.72 619.99 484.91 618.53 488.46 615.90 C 483.02 615.38 477.93 617.58 472.76 618.81 M 378.95 644.57 C 376.50 644.81 374.03 645.12 371.69 645.91 C 370.57 649.07 374.06 648.26 376.02 648.44 C 388.67 648.04 401.32 647.36 413.95 646.43 C 417.83 646.07 422.05 646.37 425.41 644.01 C 423.64 643.34 421.91 642.43 420.00 642.33 C 406.27 641.60 392.60 643.41 378.95 644.57 Z" />
        <path fill="var(--socks-color, grey)" opacity="1.00"
            d=" M 286.43 695.45 C 296.65 690.57 307.61 686.22 319.11 686.18 C 322.63 685.73 324.72 688.95 326.88 691.13 C 335.97 700.87 342.80 712.44 348.55 724.39 C 358.18 744.81 364.38 766.64 374.00 787.07 C 379.79 799.09 385.03 811.82 394.54 821.48 C 402.90 830.25 412.30 838.06 419.46 847.93 C 416.04 850.45 412.58 853.64 408.08 853.74 C 393.30 854.32 378.73 849.42 363.94 851.11 C 360.23 851.39 357.00 853.34 354.04 855.45 C 348.06 845.28 342.78 834.68 335.94 825.04 C 325.74 811.00 315.61 796.87 304.16 783.81 C 293.94 772.38 284.89 759.84 277.86 746.20 C 272.64 736.16 266.49 726.59 259.05 718.04 C 265.22 707.59 275.91 700.91 286.43 695.45 Z" />
        <path fill="var(--socks-color, grey)" opacity="1.00"
            d=" M 649.67 788.74 C 654.27 784.15 659.73 780.38 665.87 778.13 C 680.48 783.37 694.39 790.43 707.84 798.13 C 728.76 811.95 748.98 826.82 768.57 842.46 C 776.84 848.43 784.05 855.67 791.87 862.19 C 797.44 866.93 802.96 871.77 807.64 877.42 C 813.88 884.88 821.05 891.52 826.93 899.29 C 822.52 900.69 817.95 902.16 814.46 905.35 C 809.20 910.09 804.22 915.19 798.53 919.44 C 792.10 923.37 784.16 923.14 776.91 922.65 C 774.46 922.28 771.49 922.34 769.70 920.41 C 768.19 916.45 767.52 911.84 763.98 909.05 C 757.55 903.60 749.85 899.93 742.99 895.08 C 727.69 884.02 711.13 874.87 695.13 864.88 C 673.55 851.49 651.90 838.22 630.21 825.00 C 632.65 811.24 639.85 798.58 649.67 788.74 Z" />
    </g>
    <g id="#4d4d4dff">
        <path fill="#4d4d4d" opacity="1.00"
            d=" M 421.58 854.51 C 421.89 854.35 422.51 854.03 422.82 853.86 C 426.63 855.58 429.66 858.56 432.87 861.16 C 439.30 866.71 445.94 872.02 452.55 877.36 C 455.42 879.82 458.62 882.44 459.68 886.24 C 460.56 891.21 458.98 896.69 455.28 900.22 C 449.78 905.86 442.23 908.77 434.90 911.19 C 421.94 915.44 408.38 917.41 394.90 919.14 C 390.06 919.74 385.19 920.66 380.77 922.80 C 374.50 925.81 369.30 930.61 364.69 935.75 C 358.92 942.49 349.77 944.29 341.56 946.28 C 329.98 949.03 318.00 950.16 306.13 949.37 C 301.85 948.82 297.07 948.26 293.77 945.21 C 290.16 941.00 291.06 934.40 294.20 930.18 C 300.77 920.39 311.42 914.78 320.11 907.18 C 326.12 902.20 331.82 896.84 337.17 891.15 C 342.99 884.98 350.28 879.85 353.90 871.93 C 356.42 867.41 356.78 861.46 361.23 858.22 C 363.62 856.15 366.96 856.33 369.93 856.42 C 381.02 856.98 391.92 859.42 403.01 860.07 C 406.44 860.23 409.96 860.25 413.30 859.28 C 416.40 858.36 418.83 856.11 421.58 854.51 M 396.21 894.23 C 389.22 898.56 382.84 903.91 375.35 907.40 C 364.34 912.60 352.16 914.55 340.14 915.74 C 332.96 916.47 325.57 917.52 319.21 921.17 C 315.28 923.47 311.41 925.98 308.12 929.14 C 306.82 930.22 306.79 932.00 306.33 933.52 C 311.63 930.81 316.37 927.04 321.97 924.91 C 331.12 920.86 341.32 921.45 351.03 920.10 C 360.44 918.88 369.84 916.68 378.36 912.38 C 387.55 907.93 395.24 901.04 404.18 896.17 C 417.54 888.90 433.21 884.53 448.39 887.90 C 446.07 883.35 440.51 882.94 436.02 882.44 C 421.89 881.61 408.04 886.85 396.21 894.23 Z" />
        <path fill="#4d4d4d" opacity="1.00"
            d=" M 815.65 909.65 C 818.85 906.32 823.11 904.42 827.47 903.12 C 833.93 907.00 840.71 910.53 846.10 915.92 C 854.08 923.66 859.25 934.15 861.27 945.03 C 861.82 950.42 862.12 956.85 858.19 961.13 C 854.39 964.62 849.27 966.16 844.40 967.50 C 830.49 970.76 816.11 969.59 801.96 969.85 C 789.97 969.77 777.97 969.83 765.98 970.30 C 749.28 971.07 732.69 974.23 715.93 973.51 C 710.64 973.14 705.17 972.94 700.23 970.87 C 696.98 969.42 693.91 964.89 696.76 961.70 C 699.72 957.92 704.04 955.58 707.95 952.92 C 721.57 944.30 735.69 936.48 750.01 929.06 C 755.09 926.55 760.25 924.14 764.93 920.89 C 766.73 923.20 768.81 925.58 771.91 925.96 C 781.05 927.58 791.16 927.99 799.62 923.59 C 805.52 919.64 810.50 914.50 815.65 909.65 Z" />
    </g>
</svg>