<?xml version="1.0" encoding="UTF-8" ?>
<!DOCTYPE svg PUBLIC "-//W3C//DTD SVG 1.1//EN" "http://www.w3.org/Graphics/SVG/1.1/DTD/svg11.dtd">
<svg width="1000pt" height="1000pt" viewBox="0 0 1000 1000" version="1.1" xmlns="http://www.w3.org/2000/svg">
    <g id="#020202ff">
        <path fill="#020202" opacity="1.00"
            d=" M 388.47 46.61 C 395.65 43.90 403.41 43.55 410.99 43.18 C 420.05 42.97 429.19 43.25 438.12 44.94 C 455.83 49.38 472.59 60.46 480.93 77.07 C 484.06 83.59 490.84 87.86 492.77 95.02 C 493.06 99.05 487.89 98.50 485.27 98.94 C 489.31 104.94 492.83 111.27 496.55 117.48 C 501.40 126.06 503.44 136.34 501.30 146.05 C 498.73 161.17 489.50 173.80 481.30 186.34 C 479.06 190.10 475.30 194.16 476.95 198.87 C 478.64 205.88 482.01 212.38 485.92 218.41 C 491.49 216.38 497.73 216.40 503.17 218.83 C 512.87 222.91 521.26 229.42 530.40 234.53 C 537.78 238.51 545.66 241.47 553.47 244.50 C 560.28 247.08 566.09 251.70 571.29 256.71 C 575.90 261.11 578.68 266.95 581.45 272.59 C 586.32 283.02 590.22 293.95 596.26 303.80 C 602.88 314.66 610.77 324.67 617.61 335.39 C 623.98 345.27 630.08 355.38 635.01 366.07 C 637.96 374.22 630.18 381.77 632.63 389.90 C 635.09 404.12 634.61 418.59 635.14 432.95 C 635.23 445.32 635.76 457.68 635.18 470.04 C 635.25 476.32 634.34 482.67 635.44 488.90 C 635.99 491.78 638.66 493.43 640.54 495.42 C 643.95 498.90 647.45 502.29 651.08 505.55 C 653.09 502.00 656.14 497.83 660.78 498.39 C 665.62 499.33 667.75 504.30 669.87 508.18 C 672.24 512.83 675.90 517.45 675.14 523.01 C 674.88 526.93 672.42 530.12 670.13 533.13 C 667.42 536.64 667.07 541.60 663.54 544.55 C 661.23 546.92 657.96 548.08 655.64 550.41 C 653.05 554.21 650.58 559.72 645.16 559.59 C 639.40 560.77 633.85 558.06 629.62 554.36 C 620.35 545.87 612.98 535.30 608.50 523.53 C 603.61 511.58 600.58 498.92 599.33 486.07 C 597.42 470.57 599.04 454.52 593.97 439.51 C 584.92 438.71 575.88 437.72 566.78 438.10 C 569.82 453.10 573.01 468.10 577.32 482.79 C 580.35 494.64 580.73 506.97 583.45 518.88 C 586.22 529.15 589.66 539.97 587.42 550.67 C 586.18 557.25 581.21 562.17 576.53 566.58 C 580.28 569.21 582.21 573.49 582.69 577.94 C 584.51 586.25 582.24 594.78 584.02 603.08 C 588.33 622.58 600.08 639.13 607.49 657.43 C 609.28 662.53 611.94 668.07 610.35 673.56 C 607.82 678.68 603.34 682.49 599.45 686.56 C 604.28 693.56 604.06 702.21 604.35 710.34 C 613.61 710.42 622.76 706.43 631.99 708.70 C 641.03 710.72 647.79 717.44 655.00 722.77 C 655.64 717.53 656.80 711.68 661.48 708.50 C 668.06 704.24 677.30 705.89 682.85 711.17 C 692.94 720.28 700.33 731.81 708.50 742.56 C 717.10 754.09 722.88 767.44 728.10 780.76 C 733.48 794.26 734.98 809.86 729.58 823.59 C 727.03 830.18 721.31 835.90 714.01 836.57 C 707.78 837.97 701.82 834.63 697.48 830.45 C 687.58 820.93 683.04 807.32 673.40 797.58 C 668.94 793.06 664.11 788.92 658.93 785.25 C 651.44 786.82 643.68 787.30 636.13 785.84 C 628.47 784.68 621.44 781.26 614.04 779.15 C 606.91 776.97 599.37 777.96 592.05 778.02 C 583.13 778.27 573.05 781.57 565.14 775.78 C 556.93 769.55 552.04 760.10 546.81 751.44 C 540.40 752.38 533.59 752.93 527.43 750.51 C 518.32 746.67 511.52 739.10 505.59 731.44 C 499.52 723.22 494.51 714.29 489.55 705.38 C 487.10 700.39 486.39 694.78 484.56 689.56 C 483.04 700.38 475.27 709.07 473.47 719.82 C 472.93 722.44 472.88 725.74 470.30 727.30 C 468.21 728.95 465.75 727.27 463.80 726.28 C 459.79 723.89 455.84 721.40 451.80 719.06 C 449.25 723.55 447.03 728.21 444.93 732.93 C 441.98 739.49 438.71 746.04 437.42 753.18 C 436.50 757.71 439.54 761.69 441.13 765.71 C 445.30 775.23 451.00 784.12 453.73 794.22 C 458.14 810.09 460.52 826.55 460.61 843.02 C 460.70 851.37 461.23 859.72 460.57 868.06 C 460.15 882.93 467.32 896.41 471.31 910.38 C 472.85 916.89 476.56 922.65 477.68 929.28 C 479.10 937.17 481.01 945.78 477.50 953.40 C 474.10 959.87 467.60 965.09 460.16 965.72 C 454.65 966.27 448.46 966.19 444.01 970.01 C 442.11 972.81 441.44 976.44 438.80 978.75 C 433.84 983.16 427.23 984.91 420.89 986.27 C 406.93 989.24 392.43 990.28 378.30 987.93 C 374.29 987.19 370.19 986.36 366.62 984.30 C 363.38 982.46 360.97 978.84 361.34 975.03 C 361.79 970.25 363.49 965.39 367.10 962.09 C 376.73 953.35 388.53 947.05 397.09 937.12 C 404.43 928.93 403.94 916.15 412.92 909.14 C 406.53 900.78 401.82 891.31 396.89 882.06 C 390.58 870.41 386.72 857.71 382.61 845.19 C 378.79 832.50 375.66 819.56 373.89 806.41 C 372.06 790.07 372.66 773.59 371.43 757.21 C 370.03 746.97 368.11 736.76 364.95 726.90 C 363.61 722.67 362.64 718.33 361.73 713.99 C 360.14 707.49 358.76 700.72 359.89 694.03 C 361.28 683.55 365.97 673.67 365.97 662.98 C 366.36 654.89 363.81 647.05 363.88 638.98 C 364.26 629.16 366.17 619.04 371.41 610.57 C 367.45 606.48 364.19 601.55 363.03 595.90 C 360.06 582.06 362.95 567.95 363.68 554.03 C 363.93 548.76 364.06 543.48 364.09 538.21 C 364.38 527.43 364.21 516.63 363.01 505.92 C 362.00 496.47 358.52 487.45 358.05 477.92 C 352.60 488.09 346.03 497.63 340.89 507.98 C 339.03 512.04 335.94 516.94 338.74 521.30 C 342.75 528.28 347.54 534.85 350.78 542.27 C 353.15 547.78 356.47 553.04 357.43 559.04 C 356.97 566.29 350.49 573.01 343.10 573.13 C 333.70 573.71 324.19 573.63 314.92 571.84 C 311.73 571.36 309.34 569.00 307.25 566.73 C 300.66 559.54 295.95 550.86 291.97 542.02 C 288.81 535.86 287.58 528.59 289.98 521.95 C 294.85 508.04 302.21 495.17 307.49 481.42 C 312.13 469.30 316.71 457.14 320.65 444.77 C 322.48 439.01 325.09 433.55 327.19 427.90 C 326.49 424.99 325.79 422.05 325.86 419.05 C 326.25 405.91 329.19 393.05 330.89 380.06 C 332.93 365.45 333.03 350.68 333.37 335.97 C 333.49 329.75 334.68 323.58 336.86 317.76 C 339.43 310.23 343.84 303.25 344.60 295.18 C 345.67 285.37 345.57 275.08 350.11 266.05 C 356.70 252.18 369.88 243.35 381.77 234.38 C 377.25 229.10 372.71 223.79 368.98 217.91 C 365.08 211.63 364.13 204.17 363.09 197.00 C 361.32 184.52 356.83 172.67 354.46 160.32 C 351.49 156.39 348.70 152.23 344.64 149.32 C 337.66 144.03 333.99 135.83 331.23 127.77 C 327.68 119.05 329.04 109.13 332.50 100.62 C 334.00 96.72 336.86 93.61 339.72 90.65 C 343.25 87.07 343.64 81.67 346.70 77.78 C 350.03 73.39 354.90 70.62 359.07 67.13 C 363.45 63.49 368.12 60.23 372.47 56.55 C 377.28 52.49 382.56 48.85 388.47 46.61 M 422.45 127.48 C 416.44 131.34 409.24 134.60 401.94 133.28 C 399.53 133.01 399.25 130.24 398.38 128.51 C 390.79 132.28 384.39 138.09 376.59 141.46 C 372.94 142.89 368.33 143.66 365.00 141.10 C 362.08 138.94 359.63 135.95 355.93 135.09 C 358.96 145.58 358.24 156.71 361.64 167.12 C 369.42 165.74 377.20 164.29 385.06 163.48 C 387.10 163.44 389.69 163.00 391.11 164.88 C 394.98 169.27 395.33 175.58 394.65 181.13 C 394.02 185.03 393.78 189.40 390.81 192.36 C 391.01 186.12 392.27 179.92 391.53 173.66 C 383.03 176.74 374.19 178.91 365.28 180.40 C 367.74 189.05 368.52 198.04 370.33 206.82 C 371.66 213.69 376.21 219.21 380.45 224.53 C 384.09 228.88 387.79 233.31 392.54 236.49 C 397.83 240.19 404.46 242.10 410.90 241.52 C 416.37 240.36 421.32 237.58 426.44 235.41 C 431.57 233.22 435.44 229.14 439.81 225.83 C 440.09 230.70 436.12 233.96 432.58 236.53 C 425.95 241.26 418.65 245.28 410.72 247.30 C 409.57 253.18 407.17 259.04 408.29 265.13 C 408.96 270.67 412.33 276.34 417.99 277.89 C 425.99 280.02 434.30 277.05 441.33 273.28 C 460.99 262.34 475.90 243.79 483.80 222.86 C 475.82 214.58 471.22 203.37 470.55 191.94 C 470.63 189.44 471.92 187.19 472.86 184.92 C 476.25 177.79 479.22 170.46 481.96 163.05 C 483.80 157.91 485.29 152.43 484.63 146.94 C 484.42 144.65 482.36 142.51 479.99 142.70 C 478.02 142.67 476.69 144.32 475.89 145.91 C 472.99 151.38 470.03 156.84 467.83 162.64 C 465.25 168.68 463.50 175.14 460.12 180.80 C 457.83 179.79 458.83 176.94 458.56 175.02 C 458.99 166.25 458.79 157.13 454.85 149.08 C 452.40 142.97 445.21 139.48 438.86 141.26 C 438.24 135.96 438.10 130.36 435.37 125.61 C 433.35 122.22 431.70 118.65 430.38 114.94 C 428.17 119.34 426.86 124.67 422.45 127.48 M 489.90 220.84 C 484.30 240.88 471.24 258.19 455.30 271.26 C 446.55 278.09 436.25 283.85 424.96 284.58 C 417.53 285.15 409.55 281.62 406.20 274.73 C 401.80 266.17 403.81 256.15 406.22 247.31 C 398.31 246.55 391.03 242.97 385.07 237.81 C 380.66 243.23 374.57 246.79 369.46 251.44 C 363.24 256.98 357.04 263.08 354.16 271.09 C 349.34 282.76 352.66 296.01 347.66 307.63 C 344.19 315.81 340.27 324.04 339.51 333.03 C 338.43 349.00 338.48 365.09 336.14 380.96 C 334.23 395.37 330.59 409.62 330.57 424.21 C 338.70 431.90 348.92 436.71 359.02 441.24 C 358.47 429.98 354.88 419.18 353.87 407.98 C 352.07 393.75 353.48 379.43 354.67 365.21 C 355.15 360.70 355.35 355.80 358.47 352.19 C 359.32 355.39 359.51 358.72 359.23 362.01 C 358.02 382.29 357.14 402.90 361.67 422.86 C 363.70 431.45 364.10 440.26 363.93 449.05 C 365.41 458.98 363.82 468.98 364.59 478.95 C 364.90 486.78 367.78 494.18 369.00 501.87 C 371.46 517.12 370.86 532.63 370.84 548.01 C 370.90 562.66 367.26 577.16 368.55 591.82 C 369.00 597.74 371.85 603.09 375.16 607.89 C 385.37 606.08 395.78 608.02 406.05 606.85 C 421.48 605.16 436.67 601.72 451.68 597.86 C 462.53 594.66 473.72 592.49 485.05 592.13 C 477.21 590.23 469.02 589.59 461.54 586.40 C 447.36 580.63 435.27 571.06 422.95 562.20 C 420.03 560.16 417.25 557.85 415.28 554.85 C 419.24 555.04 422.76 556.91 425.95 559.12 C 437.92 567.11 450.07 574.98 463.30 580.74 C 470.75 584.06 479.04 584.43 486.70 587.08 C 493.46 589.38 500.02 592.31 506.95 594.12 C 516.53 596.55 526.12 599.32 536.00 600.20 C 538.79 600.22 542.46 601.01 544.26 598.24 C 547.73 592.96 548.00 586.11 552.25 581.24 C 559.56 570.85 571.61 565.34 579.44 555.47 C 582.79 551.53 583.28 545.98 582.50 541.05 C 581.51 535.69 580.77 530.26 579.11 525.06 C 575.47 513.68 575.11 501.62 572.68 489.99 C 571.35 482.88 568.58 476.15 567.18 469.05 C 565.16 459.03 562.54 449.12 561.01 438.99 C 559.67 431.27 557.98 423.61 555.90 416.06 C 554.43 411.08 552.39 406.06 548.53 402.44 C 544.59 398.65 541.06 394.43 538.23 389.74 C 532.79 380.83 527.04 371.93 523.80 361.92 C 520.72 352.91 519.61 343.36 519.30 333.89 C 519.22 332.29 519.42 329.26 521.78 330.47 C 523.16 334.14 523.33 338.13 523.98 341.97 C 525.41 352.49 528.78 362.74 533.85 372.07 C 539.64 382.41 545.43 393.07 554.45 401.02 C 552.86 390.04 552.44 378.58 547.51 368.43 C 545.38 363.44 541.63 359.35 539.65 354.29 C 546.98 358.51 550.61 366.62 553.81 374.06 C 558.55 385.44 557.30 398.06 559.87 409.91 C 562.04 417.37 564.07 424.87 565.71 432.47 C 572.88 431.74 580.12 432.41 587.23 433.45 C 593.86 434.40 600.90 433.92 606.97 430.93 C 611.92 427.73 614.60 422.15 617.00 416.98 C 621.26 407.63 620.96 397.08 624.44 387.51 C 626.25 381.60 629.07 376.01 630.36 369.94 C 631.03 367.84 629.66 365.99 628.76 364.22 C 623.77 355.33 618.62 346.52 613.01 338.00 C 606.37 327.71 598.77 318.07 592.31 307.66 C 586.01 297.66 581.97 286.50 577.22 275.74 C 574.62 270.28 572.14 264.56 567.77 260.24 C 562.95 255.46 557.45 251.14 550.98 248.87 C 539.98 244.83 528.94 240.53 519.28 233.76 C 510.17 228.21 501.19 220.59 489.90 220.84 M 623.18 419.19 C 620.67 424.89 617.68 430.73 612.71 434.67 C 609.16 437.55 604.47 437.99 600.16 438.82 C 602.15 445.00 603.13 451.45 603.42 457.93 C 604.45 477.44 604.84 497.51 611.99 515.97 C 615.37 524.45 619.07 532.99 624.81 540.18 C 629.31 546.00 634.12 551.78 640.38 555.80 C 642.48 555.35 644.62 555.13 646.71 554.60 C 649.89 552.69 650.36 548.46 653.00 546.05 C 655.75 544.09 659.08 542.87 661.33 540.25 C 662.69 538.41 663.08 536.07 663.99 534.01 C 665.51 529.95 669.79 527.39 670.41 522.91 C 671.09 518.17 667.74 514.27 665.81 510.26 C 664.20 507.43 663.17 503.86 660.04 502.33 C 656.88 502.68 655.21 505.70 653.16 507.73 C 655.34 511.30 660.37 515.29 657.85 519.85 C 655.91 517.53 654.30 514.96 652.19 512.80 C 648.09 508.55 642.93 505.49 638.83 501.23 C 635.56 497.84 631.04 494.92 630.42 489.84 C 629.27 481.96 629.98 473.94 630.17 466.00 C 630.61 456.01 630.48 446.01 630.31 436.01 C 630.00 421.89 630.54 407.74 629.26 393.65 C 627.53 402.23 626.70 411.09 623.18 419.19 M 321.16 462.25 C 317.28 472.87 313.63 483.59 308.85 493.86 C 304.63 502.93 300.06 511.85 296.15 521.07 C 294.32 525.72 292.71 531.18 295.06 535.95 C 299.28 545.27 303.66 554.71 310.36 562.56 C 312.33 564.77 314.78 567.00 317.95 566.99 C 326.39 567.70 334.92 567.96 343.37 567.30 C 346.44 567.13 348.52 564.68 350.64 562.77 C 342.32 557.06 334.47 550.71 326.46 544.60 C 324.75 542.98 321.86 541.54 322.56 538.74 C 324.22 538.28 325.78 539.13 327.21 539.84 C 335.60 544.32 343.32 549.89 351.14 555.28 C 346.64 546.69 342.20 538.07 337.16 529.78 C 334.77 525.50 331.56 521.13 332.07 515.96 C 332.75 509.12 335.85 502.84 338.71 496.70 C 342.51 489.36 346.40 482.01 351.29 475.33 C 354.33 471.05 357.66 466.51 357.99 461.08 C 358.22 456.07 357.99 451.06 358.14 446.05 C 348.47 443.46 339.22 439.23 331.08 433.38 C 327.15 442.78 324.70 452.70 321.16 462.25 M 554.86 586.87 C 551.80 591.34 551.56 597.08 548.57 601.57 C 545.95 604.55 541.60 604.77 537.92 604.99 C 523.66 605.26 510.32 599.08 496.16 598.40 C 483.24 595.76 470.05 598.06 457.51 601.45 C 466.87 605.38 476.73 607.95 486.04 612.01 C 496.50 616.18 506.00 622.35 515.22 628.74 C 517.52 630.23 519.29 632.34 520.62 634.72 C 516.52 632.84 512.85 630.21 508.99 627.92 C 497.31 620.82 484.56 615.75 471.76 611.07 C 465.23 608.84 458.84 606.19 452.72 602.99 C 441.45 605.92 430.17 608.90 418.65 610.73 C 407.60 613.15 396.19 613.63 384.93 612.67 C 381.57 612.59 377.74 611.79 374.80 613.86 C 371.19 620.66 369.55 628.42 368.90 636.05 C 368.08 645.12 371.23 653.96 370.82 663.03 C 370.69 676.00 364.46 687.94 364.03 700.89 C 371.35 695.85 380.41 694.84 389.01 693.89 C 401.12 692.54 413.11 695.84 424.50 699.64 C 440.36 704.83 454.50 713.93 468.48 722.83 C 469.79 713.42 473.99 704.80 478.61 696.62 C 480.81 692.99 480.97 688.67 480.89 684.56 C 462.98 676.23 448.27 661.97 429.40 655.56 C 421.91 653.05 414.31 650.68 406.46 649.67 C 401.42 648.99 396.37 649.85 391.33 650.09 C 393.78 646.12 398.84 645.83 403.01 645.63 C 412.82 645.54 422.35 648.42 431.58 651.49 C 448.39 657.17 461.38 669.76 476.30 678.84 C 470.96 672.39 464.55 666.56 461.31 658.66 C 458.24 651.55 453.88 643.09 458.24 635.55 C 459.21 640.24 459.44 645.15 461.48 649.57 C 463.79 654.67 466.06 659.89 469.65 664.25 C 475.88 671.69 483.58 678.06 488.31 686.65 C 491.55 692.31 491.84 699.14 495.33 704.67 C 500.40 713.15 505.36 721.74 511.46 729.55 C 517.12 736.54 523.33 744.04 532.24 746.82 C 536.90 747.86 542.55 748.91 546.55 745.56 C 554.19 739.21 558.20 729.86 564.16 722.12 C 574.35 708.97 582.94 694.53 594.51 682.48 C 598.09 678.94 601.77 675.50 605.25 671.87 C 601.49 654.03 589.92 639.35 583.48 622.56 C 579.82 613.50 576.11 603.99 576.90 594.03 C 577.43 585.82 578.66 576.41 573.41 569.39 C 566.59 574.47 559.70 579.77 554.86 586.87 M 568.26 727.31 C 562.74 734.98 558.25 743.54 551.09 749.90 C 555.25 755.72 558.94 761.93 563.81 767.22 C 566.58 770.42 570.52 772.84 574.85 772.85 C 581.94 772.82 588.98 771.22 596.09 771.93 C 602.12 772.58 608.20 772.56 614.22 773.38 C 624.51 760.53 626.69 741.90 620.22 726.85 C 617.37 720.42 612.19 713.89 604.65 713.31 C 605.23 720.24 606.79 727.13 610.33 733.18 C 608.70 732.91 606.68 732.94 605.77 731.28 C 602.80 726.66 601.72 721.12 600.68 715.81 C 599.01 707.01 600.23 697.77 597.00 689.28 C 586.29 701.08 577.85 714.64 568.26 727.31 M 364.82 705.41 C 366.52 711.65 367.73 718.03 369.68 724.21 C 373.25 734.65 375.17 745.57 376.97 756.44 C 380.76 758.21 384.76 759.60 388.95 759.98 C 399.73 761.10 410.70 759.88 421.09 756.86 C 424.81 755.66 428.66 754.33 431.65 751.72 C 432.70 747.16 433.46 742.50 435.40 738.20 C 438.66 730.54 441.88 722.79 446.50 715.83 C 438.34 711.17 429.80 707.16 420.82 704.36 C 410.53 701.18 399.89 697.95 388.99 698.94 C 380.70 699.76 371.75 700.21 364.82 705.41 M 665.09 712.13 C 660.67 714.81 660.64 720.56 659.59 725.05 C 667.84 726.99 676.91 729.70 681.77 737.25 C 688.49 747.47 689.29 762.03 682.31 772.34 C 678.95 777.89 673.02 781.04 667.08 783.11 C 673.42 787.60 679.12 793.05 683.75 799.30 C 691.17 809.27 695.43 821.81 705.40 829.73 C 709.77 833.55 716.79 832.86 720.76 828.79 C 726.45 823.10 727.83 814.65 728.39 806.96 C 729.18 794.26 724.15 782.27 719.09 770.92 C 715.21 762.72 711.44 754.38 706.06 747.03 C 697.89 735.96 690.04 724.51 680.01 715.01 C 676.20 711.25 669.98 709.57 665.09 712.13 M 616.16 713.61 C 625.38 720.78 629.77 732.59 629.91 744.01 C 630.32 755.07 626.92 766.24 620.00 774.92 C 626.92 777.10 633.81 779.61 641.08 780.31 C 648.95 781.37 656.85 779.67 664.40 777.55 C 668.72 776.32 673.04 774.45 676.11 771.05 C 680.63 766.25 681.54 759.31 681.99 753.02 C 681.88 747.75 681.71 741.42 677.18 737.87 C 669.82 731.75 659.25 732.83 651.60 727.28 C 645.75 723.18 640.64 717.86 633.94 715.10 C 628.30 712.82 622.10 713.04 616.16 713.61 M 397.02 766.66 C 390.33 766.70 383.65 765.61 377.39 763.22 C 378.04 772.45 378.12 781.72 378.58 790.97 C 379.24 813.45 384.65 835.55 392.15 856.67 C 394.63 864.54 397.60 872.27 401.37 879.64 C 406.21 889.09 410.35 899.07 417.28 907.25 C 424.88 905.66 432.72 907.71 439.15 911.87 C 444.02 914.58 448.26 918.89 453.96 919.74 C 459.12 920.26 464.33 919.77 469.45 919.08 C 463.62 902.42 454.49 886.13 454.88 868.02 C 455.63 859.34 454.51 850.67 454.49 841.99 C 454.35 829.83 452.93 817.72 450.65 805.79 C 449.16 798.32 447.37 790.80 443.86 783.99 C 439.64 775.66 435.64 767.22 432.30 758.49 C 421.70 764.75 409.16 766.63 397.02 766.66 M 409.68 924.47 C 407.42 931.56 404.17 938.52 398.80 943.81 C 390.41 951.90 380.56 958.24 371.36 965.32 C 368.12 967.59 366.27 971.78 367.45 975.65 C 368.40 978.38 371.57 979.09 374.03 979.86 C 389.61 983.88 405.96 982.33 421.58 979.39 C 425.87 978.50 430.38 977.56 433.93 974.83 C 437.02 971.82 437.50 966.71 441.47 964.47 C 447.52 960.64 454.86 960.82 461.66 959.65 C 467.92 957.68 473.70 952.00 473.85 945.13 C 474.20 938.02 472.72 930.99 471.03 924.13 C 462.33 925.30 452.62 927.25 444.66 922.39 C 436.83 917.88 428.81 910.93 419.07 913.11 C 413.50 913.96 411.32 919.83 409.68 924.47 Z" />
        <path fill="#020202" opacity="1.00"
            d=" M 416.57 157.83 C 422.65 157.14 428.83 156.26 434.95 156.93 C 437.79 159.27 438.79 163.49 438.18 167.03 C 435.07 168.69 431.46 168.80 428.06 169.43 C 420.65 170.46 413.30 172.01 405.85 172.67 C 403.11 173.15 403.10 169.91 402.98 168.08 C 403.03 165.45 402.00 161.65 404.96 160.20 C 408.62 158.64 412.69 158.49 416.57 157.83 Z" />
        <path fill="#020202" opacity="1.00"
            d=" M 395.15 195.50 C 399.16 193.79 403.25 192.27 407.45 191.07 C 405.31 195.27 402.63 199.15 400.00 203.05 C 395.92 202.58 391.49 202.88 387.90 200.54 C 389.12 198.29 390.44 196.09 391.88 193.98 C 392.70 194.36 394.33 195.12 395.15 195.50 Z" />
        <path fill="#020202" opacity="1.00"
            d=" M 391.42 212.57 C 400.92 209.64 410.46 206.76 420.16 204.59 C 422.62 203.61 422.59 206.09 422.71 207.79 C 421.97 208.07 420.49 208.63 419.75 208.91 C 419.74 211.06 420.18 213.32 419.39 215.40 C 413.50 218.01 407.00 218.75 400.85 220.52 C 398.27 220.97 395.48 222.30 392.91 221.20 C 392.40 220.23 391.95 219.23 391.56 218.21 C 389.80 218.16 387.64 218.84 386.50 217.05 C 385.83 214.05 389.35 213.39 391.42 212.57 Z" />
        <path fill="#020202" opacity="1.00"
            d=" M 540.05 279.94 L 540.67 279.28 L 541.86 279.69 C 541.32 290.78 538.90 302.00 541.20 313.06 C 541.99 318.16 543.83 323.54 542.18 328.65 C 541.64 328.55 540.54 328.34 539.99 328.24 C 538.18 324.22 537.63 319.80 536.63 315.54 C 534.51 306.48 535.60 297.07 537.29 288.04 C 537.94 285.28 538.36 282.29 540.05 279.94 Z" />
        <path fill="#020202" opacity="1.00"
            d=" M 498.71 305.37 C 498.75 303.69 500.35 302.95 501.52 302.09 C 502.07 308.08 502.21 314.13 503.41 320.05 C 504.99 328.31 505.27 336.89 508.40 344.78 C 510.46 350.45 513.57 355.68 515.68 361.32 C 516.56 363.07 515.50 364.83 514.86 366.45 C 508.42 356.66 502.30 346.13 500.76 334.30 C 499.47 324.74 497.51 315.04 498.71 305.37 Z" />
        <path fill="#020202" opacity="1.00"
            d=" M 390.55 345.51 C 391.13 345.58 392.28 345.73 392.86 345.80 C 400.15 356.35 402.49 369.36 408.24 380.72 C 413.52 391.31 418.95 402.14 427.53 410.49 C 438.11 421.22 445.40 434.79 449.92 449.08 C 450.85 451.52 450.25 454.08 449.44 456.46 C 446.09 450.91 444.14 444.66 440.84 439.08 C 434.92 427.87 426.68 418.17 418.10 408.94 C 407.31 394.70 400.78 377.73 395.43 360.82 C 393.82 355.71 391.39 350.84 390.55 345.51 Z" />
        <path fill="#020202" opacity="1.00"
            d=" M 396.44 434.44 C 397.81 434.20 398.83 435.40 399.79 436.19 C 413.36 450.71 424.53 467.26 434.84 484.21 C 444.50 499.42 455.44 514.03 468.94 526.06 C 482.44 538.28 496.24 550.18 510.68 561.29 C 512.17 562.47 513.65 563.71 514.82 565.23 C 514.47 567.11 512.45 566.33 511.17 566.05 C 507.04 564.39 503.62 561.44 500.02 558.91 C 484.37 547.10 468.53 535.31 455.10 520.93 C 444.35 508.69 435.16 495.16 426.88 481.16 C 420.20 469.74 412.91 458.66 404.80 448.20 C 401.70 443.70 397.76 439.75 395.33 434.83 L 396.44 434.44 Z" />
        <path fill="#020202" opacity="1.00"
            d=" M 403.68 628.93 C 408.55 628.18 413.35 629.64 417.93 631.11 C 424.34 633.30 430.54 636.13 436.31 639.70 C 440.24 642.18 444.50 644.45 447.25 648.36 C 437.80 645.25 429.54 639.41 420.31 635.73 C 414.87 633.21 408.78 632.22 403.68 628.93 Z" />
    </g>
    <g id="#f0b58bff">
        <path fill="#f0b58b" opacity="1.00"
            d=" M 422.45 127.48 C 426.86 124.67 428.17 119.34 430.38 114.94 C 431.70 118.65 433.35 122.22 435.37 125.61 C 438.10 130.36 438.24 135.96 438.86 141.26 C 445.21 139.48 452.40 142.97 454.85 149.08 C 458.79 157.13 458.99 166.25 458.56 175.02 C 458.83 176.94 457.83 179.79 460.12 180.80 C 463.50 175.14 465.25 168.68 467.83 162.64 C 470.03 156.84 472.99 151.38 475.89 145.91 C 476.69 144.32 478.02 142.67 479.99 142.70 C 482.36 142.51 484.42 144.65 484.63 146.94 C 485.29 152.43 483.80 157.91 481.96 163.05 C 479.22 170.46 476.25 177.79 472.86 184.92 C 471.92 187.19 470.63 189.44 470.55 191.94 C 471.22 203.37 475.82 214.58 483.80 222.86 C 475.90 243.79 460.99 262.34 441.33 273.28 C 434.30 277.05 425.99 280.02 417.99 277.89 C 412.33 276.34 408.96 270.67 408.29 265.13 C 407.17 259.04 409.57 253.18 410.72 247.30 C 418.65 245.28 425.95 241.26 432.58 236.53 C 436.12 233.96 440.09 230.70 439.81 225.83 C 435.44 229.14 431.57 233.22 426.44 235.41 C 421.32 237.58 416.37 240.36 410.90 241.52 C 404.46 242.10 397.83 240.19 392.54 236.49 C 387.79 233.31 384.09 228.88 380.45 224.53 C 376.21 219.21 371.66 213.69 370.33 206.82 C 368.52 198.04 367.74 189.05 365.28 180.40 C 374.19 178.91 383.03 176.74 391.53 173.66 C 392.27 179.92 391.01 186.12 390.81 192.36 C 393.78 189.40 394.02 185.03 394.65 181.13 C 395.33 175.58 394.98 169.27 391.11 164.88 C 389.69 163.00 387.10 163.44 385.06 163.48 C 377.20 164.29 369.42 165.74 361.64 167.12 C 358.24 156.71 358.96 145.58 355.93 135.09 C 359.63 135.95 362.08 138.94 365.00 141.10 C 368.33 143.66 372.94 142.89 376.59 141.46 C 384.39 138.09 390.79 132.28 398.38 128.51 C 399.25 130.24 399.53 133.01 401.94 133.28 C 409.24 134.60 416.44 131.34 422.45 127.48 M 416.57 157.83 C 412.69 158.49 408.62 158.64 404.96 160.20 C 402.00 161.65 403.03 165.45 402.98 168.08 C 403.10 169.91 403.11 173.15 405.85 172.67 C 413.30 172.01 420.65 170.46 428.06 169.43 C 431.46 168.80 435.07 168.69 438.18 167.03 C 438.79 163.49 437.79 159.27 434.95 156.93 C 428.83 156.26 422.65 157.14 416.57 157.83 M 395.15 195.50 C 394.33 195.12 392.70 194.36 391.88 193.98 C 390.44 196.09 389.12 198.29 387.90 200.54 C 391.49 202.88 395.92 202.58 400.00 203.05 C 402.63 199.15 405.31 195.27 407.45 191.07 C 403.25 192.27 399.16 193.79 395.15 195.50 M 391.42 212.57 C 389.35 213.39 385.83 214.05 386.50 217.05 C 387.64 218.84 389.80 218.16 391.56 218.21 C 391.95 219.23 392.40 220.23 392.91 221.20 C 395.48 222.30 398.27 220.97 400.85 220.52 C 407.00 218.75 413.50 218.01 419.39 215.40 C 420.18 213.32 419.74 211.06 419.75 208.91 C 420.49 208.63 421.97 208.07 422.71 207.79 C 422.59 206.09 422.62 203.61 420.16 204.59 C 410.46 206.76 400.92 209.64 391.42 212.57 Z" />
        <path fill="#f0b58b" opacity="1.00"
            d=" M 623.18 419.19 C 626.70 411.09 627.53 402.23 629.26 393.65 C 630.54 407.74 630.00 421.89 630.31 436.01 C 630.48 446.01 630.61 456.01 630.17 466.00 C 629.98 473.94 629.27 481.96 630.42 489.84 C 631.04 494.92 635.56 497.84 638.83 501.23 C 642.93 505.49 648.09 508.55 652.19 512.80 C 654.30 514.96 655.91 517.53 657.85 519.85 C 660.37 515.29 655.34 511.30 653.16 507.73 C 655.21 505.70 656.88 502.68 660.04 502.33 C 663.17 503.86 664.20 507.43 665.81 510.26 C 667.74 514.27 671.09 518.17 670.41 522.91 C 669.79 527.39 665.51 529.95 663.99 534.01 C 663.08 536.07 662.69 538.41 661.33 540.25 C 659.08 542.87 655.75 544.09 653.00 546.05 C 650.36 548.46 649.89 552.69 646.71 554.60 C 644.62 555.13 642.48 555.35 640.38 555.80 C 634.12 551.78 629.31 546.00 624.81 540.18 C 619.07 532.99 615.37 524.45 611.99 515.97 C 604.84 497.51 604.45 477.44 603.42 457.93 C 603.13 451.45 602.15 445.00 600.16 438.82 C 604.47 437.99 609.16 437.55 612.71 434.67 C 617.68 430.73 620.67 424.89 623.18 419.19 Z" />
        <path fill="#f0b58b" opacity="1.00"
            d=" M 321.16 462.25 C 324.70 452.70 327.15 442.78 331.08 433.38 C 339.22 439.23 348.47 443.46 358.14 446.05 C 357.99 451.06 358.22 456.07 357.99 461.08 C 357.66 466.51 354.33 471.05 351.29 475.33 C 346.40 482.01 342.51 489.36 338.71 496.70 C 335.85 502.84 332.75 509.12 332.07 515.96 C 331.56 521.13 334.77 525.50 337.16 529.78 C 342.20 538.07 346.64 546.69 351.14 555.28 C 343.32 549.89 335.60 544.32 327.21 539.84 C 325.78 539.13 324.22 538.28 322.56 538.74 C 321.86 541.54 324.75 542.98 326.46 544.60 C 334.47 550.71 342.32 557.06 350.64 562.77 C 348.52 564.68 346.44 567.13 343.37 567.30 C 334.92 567.96 326.39 567.70 317.95 566.99 C 314.78 567.00 312.33 564.77 310.36 562.56 C 303.66 554.71 299.28 545.27 295.06 535.95 C 292.71 531.18 294.32 525.72 296.15 521.07 C 300.06 511.85 304.63 502.93 308.85 493.86 C 313.63 483.59 317.28 472.87 321.16 462.25 Z" />
        <path fill="#f0b58b" opacity="1.00"
            d=" M 568.26 727.31 C 577.85 714.64 586.29 701.08 597.00 689.28 C 600.23 697.77 599.01 707.01 600.68 715.81 C 601.72 721.12 602.80 726.66 605.77 731.28 C 606.68 732.94 608.70 732.91 610.33 733.18 C 606.79 727.13 605.23 720.24 604.65 713.31 C 612.19 713.89 617.37 720.42 620.22 726.85 C 626.69 741.90 624.51 760.53 614.22 773.38 C 608.20 772.56 602.12 772.58 596.09 771.93 C 588.98 771.22 581.94 772.82 574.85 772.85 C 570.52 772.84 566.58 770.42 563.81 767.22 C 558.94 761.93 555.25 755.72 551.09 749.90 C 558.25 743.54 562.74 734.98 568.26 727.31 Z" />
        <path fill="#f0b58b" opacity="1.00"
            d=" M 364.82 705.41 C 371.75 700.21 380.70 699.76 388.99 698.94 C 399.89 697.95 410.53 701.18 420.82 704.36 C 429.80 707.16 438.34 711.17 446.50 715.83 C 441.88 722.79 438.66 730.54 435.40 738.20 C 433.46 742.50 432.70 747.16 431.65 751.72 C 428.66 754.33 424.81 755.66 421.09 756.86 C 410.70 759.88 399.73 761.10 388.95 759.98 C 384.76 759.60 380.76 758.21 376.97 756.44 C 375.17 745.57 373.25 734.65 369.68 724.21 C 367.73 718.03 366.52 711.65 364.82 705.41 Z" />
    </g>
    <g id="#f11b27ff">
        <path fill="var(--shirt-color, grey)" opacity="1.00"
            d=" M 489.90 220.84 C 501.19 220.59 510.17 228.21 519.28 233.76 C 528.94 240.53 539.98 244.83 550.98 248.87 C 557.45 251.14 562.95 255.46 567.77 260.24 C 572.14 264.56 574.62 270.28 577.22 275.74 C 581.97 286.50 586.01 297.66 592.31 307.66 C 598.77 318.07 606.37 327.71 613.01 338.00 C 618.62 346.52 623.77 355.33 628.76 364.22 C 629.66 365.99 631.03 367.84 630.36 369.94 C 629.07 376.01 626.25 381.60 624.44 387.51 C 620.96 397.08 621.26 407.63 617.00 416.98 C 614.60 422.15 611.92 427.73 606.97 430.93 C 600.90 433.92 593.86 434.40 587.23 433.45 C 580.12 432.41 572.88 431.74 565.71 432.47 C 564.07 424.87 562.04 417.37 559.87 409.91 C 557.30 398.06 558.55 385.44 553.81 374.06 C 550.61 366.62 546.98 358.51 539.65 354.29 C 541.63 359.35 545.38 363.44 547.51 368.43 C 552.44 378.58 552.86 390.04 554.45 401.02 C 545.43 393.07 539.64 382.41 533.85 372.07 C 528.78 362.74 525.41 352.49 523.98 341.97 C 523.33 338.13 523.16 334.14 521.78 330.47 C 519.42 329.26 519.22 332.29 519.30 333.89 C 519.61 343.36 520.72 352.91 523.80 361.92 C 527.04 371.93 532.79 380.83 538.23 389.74 C 541.06 394.43 544.59 398.65 548.53 402.44 C 552.39 406.06 554.43 411.08 555.90 416.06 C 557.98 423.61 559.67 431.27 561.01 438.99 C 562.54 449.12 565.16 459.03 567.18 469.05 C 568.58 476.15 571.35 482.88 572.68 489.99 C 575.11 501.62 575.47 513.68 579.11 525.06 C 580.77 530.26 581.51 535.69 582.50 541.05 C 583.28 545.98 582.79 551.53 579.44 555.47 C 571.61 565.34 559.56 570.85 552.25 581.24 C 548.00 586.11 547.73 592.96 544.26 598.24 C 542.46 601.01 538.79 600.22 536.00 600.20 C 526.12 599.32 516.53 596.55 506.95 594.12 C 500.02 592.31 493.46 589.38 486.70 587.08 C 479.04 584.43 470.75 584.06 463.30 580.74 C 450.07 574.98 437.92 567.11 425.95 559.12 C 422.76 556.91 419.24 555.04 415.28 554.85 C 417.25 557.85 420.03 560.16 422.95 562.20 C 435.27 571.06 447.36 580.63 461.54 586.40 C 469.02 589.59 477.21 590.23 485.05 592.13 C 473.72 592.49 462.53 594.66 451.68 597.86 C 436.67 601.72 421.48 605.16 406.05 606.85 C 395.78 608.02 385.37 606.08 375.16 607.89 C 371.85 603.09 369.00 597.74 368.55 591.82 C 367.26 577.16 370.90 562.66 370.84 548.01 C 370.86 532.63 371.46 517.12 369.00 501.87 C 367.78 494.18 364.90 486.78 364.59 478.95 C 363.82 468.98 365.41 458.98 363.93 449.05 C 364.10 440.26 363.70 431.45 361.67 422.86 C 357.14 402.90 358.02 382.29 359.23 362.01 C 359.51 358.72 359.32 355.39 358.47 352.19 C 355.35 355.80 355.15 360.70 354.67 365.21 C 353.48 379.43 352.07 393.75 353.87 407.98 C 354.88 419.18 358.47 429.98 359.02 441.24 C 348.92 436.71 338.70 431.90 330.57 424.21 C 330.59 409.62 334.23 395.37 336.14 380.96 C 338.48 365.09 338.43 349.00 339.51 333.03 C 340.27 324.04 344.19 315.81 347.66 307.63 C 352.66 296.01 349.34 282.76 354.16 271.09 C 357.04 263.08 363.24 256.98 369.46 251.44 C 374.57 246.79 380.66 243.23 385.07 237.81 C 391.03 242.97 398.31 246.55 406.22 247.31 C 403.81 256.15 401.80 266.17 406.20 274.73 C 409.55 281.62 417.53 285.15 424.96 284.58 C 436.25 283.85 446.55 278.09 455.30 271.26 C 471.24 258.19 484.30 240.88 489.90 220.84 M 540.05 279.94 C 538.36 282.29 537.94 285.28 537.29 288.04 C 535.60 297.07 534.51 306.48 536.63 315.54 C 537.63 319.80 538.18 324.22 539.99 328.24 C 540.54 328.34 541.64 328.55 542.18 328.65 C 543.83 323.54 541.99 318.16 541.20 313.06 C 538.90 302.00 541.32 290.78 541.86 279.69 L 540.67 279.28 L 540.05 279.94 M 498.71 305.37 C 497.51 315.04 499.47 324.74 500.76 334.30 C 502.30 346.13 508.42 356.66 514.86 366.45 C 515.50 364.83 516.56 363.07 515.68 361.32 C 513.57 355.68 510.46 350.45 508.40 344.78 C 505.27 336.89 504.99 328.31 503.41 320.05 C 502.21 314.13 502.07 308.08 501.52 302.09 C 500.35 302.95 498.75 303.69 498.71 305.37 M 390.55 345.51 C 391.39 350.84 393.82 355.71 395.43 360.82 C 400.78 377.73 407.31 394.70 418.10 408.94 C 426.68 418.17 434.92 427.87 440.84 439.08 C 444.14 444.66 446.09 450.91 449.44 456.46 C 450.25 454.08 450.85 451.52 449.92 449.08 C 445.40 434.79 438.11 421.22 427.53 410.49 C 418.95 402.14 413.52 391.31 408.24 380.72 C 402.49 369.36 400.15 356.35 392.86 345.80 C 392.28 345.73 391.13 345.58 390.55 345.51 M 396.44 434.44 L 395.33 434.83 C 397.76 439.75 401.70 443.70 404.80 448.20 C 412.91 458.66 420.20 469.74 426.88 481.16 C 435.16 495.16 444.35 508.69 455.10 520.93 C 468.53 535.31 484.37 547.10 500.02 558.91 C 503.62 561.44 507.04 564.39 511.17 566.05 C 512.45 566.33 514.47 567.11 514.82 565.23 C 513.65 563.71 512.17 562.47 510.68 561.29 C 496.24 550.18 482.44 538.28 468.94 526.06 C 455.44 514.03 444.50 499.42 434.84 484.21 C 424.53 467.26 413.36 450.71 399.79 436.19 C 398.83 435.40 397.81 434.20 396.44 434.44 Z" />
    </g>
    <g id="#2b3dcdff">
        <path fill="var(--pants-color, grey)" opacity="1.00"
            d=" M 554.86 586.87 C 559.70 579.77 566.59 574.47 573.41 569.39 C 578.66 576.41 577.43 585.82 576.90 594.03 C 576.11 603.99 579.82 613.50 583.48 622.56 C 589.92 639.35 601.49 654.03 605.25 671.87 C 601.77 675.50 598.09 678.94 594.51 682.48 C 582.94 694.53 574.35 708.97 564.16 722.12 C 558.20 729.86 554.19 739.21 546.55 745.56 C 542.55 748.91 536.90 747.86 532.24 746.82 C 523.33 744.04 517.12 736.54 511.46 729.55 C 505.36 721.74 500.40 713.15 495.33 704.67 C 491.84 699.14 491.55 692.31 488.31 686.65 C 483.58 678.06 475.88 671.69 469.65 664.25 C 466.06 659.89 463.79 654.67 461.48 649.57 C 459.44 645.15 459.21 640.24 458.24 635.55 C 453.88 643.09 458.24 651.55 461.31 658.66 C 464.55 666.56 470.96 672.39 476.30 678.84 C 461.38 669.76 448.39 657.17 431.58 651.49 C 422.35 648.42 412.82 645.54 403.01 645.63 C 398.84 645.83 393.78 646.12 391.33 650.09 C 396.37 649.85 401.42 648.99 406.46 649.67 C 414.31 650.68 421.91 653.05 429.40 655.56 C 448.27 661.97 462.98 676.23 480.89 684.56 C 480.97 688.67 480.81 692.99 478.61 696.62 C 473.99 704.80 469.79 713.42 468.48 722.83 C 454.50 713.93 440.36 704.83 424.50 699.64 C 413.11 695.84 401.12 692.54 389.01 693.89 C 380.41 694.84 371.35 695.85 364.03 700.89 C 364.46 687.94 370.69 676.00 370.82 663.03 C 371.23 653.96 368.08 645.12 368.90 636.05 C 369.55 628.42 371.19 620.66 374.80 613.86 C 377.74 611.79 381.57 612.59 384.93 612.67 C 396.19 613.63 407.60 613.15 418.65 610.73 C 430.17 608.90 441.45 605.92 452.72 602.99 C 458.84 606.19 465.23 608.84 471.76 611.07 C 484.56 615.75 497.31 620.82 508.99 627.92 C 512.85 630.21 516.52 632.84 520.62 634.72 C 519.29 632.34 517.52 630.23 515.22 628.74 C 506.00 622.35 496.50 616.18 486.04 612.01 C 476.73 607.95 466.87 605.38 457.51 601.45 C 470.05 598.06 483.24 595.76 496.16 598.40 C 510.32 599.08 523.66 605.26 537.92 604.99 C 541.60 604.77 545.95 604.55 548.57 601.57 C 551.56 597.08 551.80 591.34 554.86 586.87 M 403.68 628.93 C 408.78 632.22 414.87 633.21 420.31 635.73 C 429.54 639.41 437.80 645.25 447.25 648.36 C 444.50 644.45 440.24 642.18 436.31 639.70 C 430.54 636.13 424.34 633.30 417.93 631.11 C 413.35 629.64 408.55 628.18 403.68 628.93 Z" />
        <path fill="var(--socks-color, grey)" opacity="1.00"
            d=" M 616.16 713.61 C 622.10 713.04 628.30 712.82 633.94 715.10 C 640.64 717.86 645.75 723.18 651.60 727.28 C 659.25 732.83 669.82 731.75 677.18 737.87 C 681.71 741.42 681.88 747.75 681.99 753.02 C 681.54 759.31 680.63 766.25 676.11 771.05 C 673.04 774.45 668.72 776.32 664.40 777.55 C 656.85 779.67 648.95 781.37 641.08 780.31 C 633.81 779.61 626.92 777.10 620.00 774.92 C 626.92 766.24 630.32 755.07 629.91 744.01 C 629.77 732.59 625.38 720.78 616.16 713.61 Z" />
        <path fill="var(--socks-color, grey)" opacity="1.00"
            d=" M 397.02 766.66 C 409.16 766.63 421.70 764.75 432.30 758.49 C 435.64 767.22 439.64 775.66 443.86 783.99 C 447.37 790.80 449.16 798.32 450.65 805.79 C 452.93 817.72 454.35 829.83 454.49 841.99 C 454.51 850.67 455.63 859.34 454.88 868.02 C 454.49 886.13 463.62 902.42 469.45 919.08 C 464.33 919.77 459.12 920.26 453.96 919.74 C 448.26 918.89 444.02 914.58 439.15 911.87 C 432.72 907.71 424.88 905.66 417.28 907.25 C 410.35 899.07 406.21 889.09 401.37 879.64 C 397.60 872.27 394.63 864.54 392.15 856.67 C 384.65 835.55 379.24 813.45 378.58 790.97 C 378.12 781.72 378.04 772.45 377.39 763.22 C 383.65 765.61 390.33 766.70 397.02 766.66 Z" />
    </g>
    <g id="#4d4d4dff">
        <path fill="#4d4d4d" opacity="1.00"
            d=" M 665.09 712.13 C 669.98 709.57 676.20 711.25 680.01 715.01 C 690.04 724.51 697.89 735.96 706.06 747.03 C 711.44 754.38 715.21 762.72 719.09 770.92 C 724.15 782.27 729.18 794.26 728.39 806.96 C 727.83 814.65 726.45 823.10 720.76 828.79 C 716.79 832.86 709.77 833.55 705.40 829.73 C 695.43 821.81 691.17 809.27 683.75 799.30 C 679.12 793.05 673.42 787.60 667.08 783.11 C 673.02 781.04 678.95 777.89 682.31 772.34 C 689.29 762.03 688.49 747.47 681.77 737.25 C 676.91 729.70 667.84 726.99 659.59 725.05 C 660.64 720.56 660.67 714.81 665.09 712.13 Z" />
        <path fill="#4d4d4d" opacity="1.00"
            d=" M 409.68 924.47 C 411.32 919.83 413.50 913.96 419.07 913.11 C 428.81 910.93 436.83 917.88 444.66 922.39 C 452.62 927.25 462.33 925.30 471.03 924.13 C 472.72 930.99 474.20 938.02 473.85 945.13 C 473.70 952.00 467.92 957.68 461.66 959.65 C 454.86 960.82 447.52 960.64 441.47 964.47 C 437.50 966.71 437.02 971.82 433.93 974.83 C 430.38 977.56 425.87 978.50 421.58 979.39 C 405.96 982.33 389.61 983.88 374.03 979.86 C 371.57 979.09 368.40 978.38 367.45 975.65 C 366.27 971.78 368.12 967.59 371.36 965.32 C 380.56 958.24 390.41 951.90 398.80 943.81 C 404.17 938.52 407.42 931.56 409.68 924.47 Z" />
    </g>
</svg>