<?xml version="1.0" encoding="UTF-8" ?>
<!DOCTYPE svg PUBLIC "-//W3C//DTD SVG 1.1//EN" "http://www.w3.org/Graphics/SVG/1.1/DTD/svg11.dtd">
<svg width="1000pt" height="1000pt" viewBox="0 0 1000 1000" version="1.1" xmlns="http://www.w3.org/2000/svg">
    <g id="#020202ff">
        <path fill="#020202" opacity="1.00"
            d=" M 476.40 29.22 C 479.55 26.66 482.84 24.17 486.68 22.72 C 483.74 28.41 478.99 32.87 475.72 38.35 C 482.39 36.90 489.14 35.60 495.99 35.53 C 507.18 35.36 518.87 35.14 529.32 39.79 C 534.98 42.26 540.40 46.09 543.15 51.80 C 547.47 60.31 549.71 69.84 555.32 77.69 C 557.76 81.76 561.44 84.82 565.44 87.28 C 562.67 91.40 557.50 91.88 553.07 90.55 C 556.72 100.49 561.64 110.25 562.18 121.02 C 562.17 125.11 559.47 128.42 558.11 132.10 C 558.13 134.57 559.36 136.81 560.22 139.07 C 566.79 135.43 573.50 131.71 580.89 130.07 C 584.88 129.14 588.70 131.02 591.99 133.07 C 597.91 136.85 605.22 136.97 612.02 137.10 C 627.52 136.59 644.11 135.20 658.32 142.71 C 665.90 146.39 671.52 152.90 676.43 159.56 C 681.96 167.15 686.75 175.24 691.91 183.07 C 696.06 189.59 700.41 196.26 702.10 203.92 C 704.09 212.81 703.40 221.99 703.33 231.02 C 703.23 237.79 703.93 244.54 704.72 251.26 C 705.12 256.24 708.60 260.25 709.38 265.15 C 710.85 273.35 711.30 281.69 712.13 289.98 C 713.89 310.26 715.43 330.91 711.66 351.07 C 712.44 358.52 716.32 365.21 717.60 372.57 C 720.66 387.05 715.46 401.44 711.32 415.15 C 707.73 425.66 705.41 436.78 699.75 446.44 C 701.91 455.91 700.35 465.79 698.10 475.10 C 693.35 492.84 679.68 506.12 666.70 518.29 C 671.68 528.81 677.74 538.79 682.54 549.39 C 683.91 552.22 684.09 556.26 681.30 558.31 C 677.16 561.25 671.96 562.06 667.59 564.58 C 659.43 569.17 652.41 575.46 644.62 580.62 C 644.50 599.07 644.36 617.53 645.63 635.95 C 645.77 645.00 647.24 653.95 647.63 662.99 C 658.45 672.52 666.83 684.45 674.48 696.59 C 684.05 711.99 692.02 728.36 698.77 745.18 C 708.69 769.96 715.43 796.63 731.53 818.40 C 733.45 821.08 735.32 823.81 737.16 826.56 C 742.13 827.73 746.33 830.73 750.47 833.58 C 759.44 840.14 767.95 848.14 772.10 858.70 C 774.87 864.97 773.34 872.31 770.14 878.11 C 763.75 886.98 753.42 891.50 744.82 897.80 C 731.93 907.65 725.71 923.05 717.28 936.39 C 714.12 942.28 709.46 947.10 705.01 952.01 C 698.32 960.43 688.33 965.53 678.15 968.41 C 673.23 969.85 667.76 970.03 663.02 967.91 C 658.50 965.41 656.97 959.84 657.24 954.99 C 657.76 941.15 662.91 928.12 667.32 915.17 C 671.37 901.46 676.66 888.14 680.26 874.30 C 682.18 867.70 684.18 860.99 688.01 855.22 C 682.08 846.69 678.47 836.83 672.74 828.18 C 667.33 819.86 661.24 811.88 653.86 805.21 C 644.73 796.95 636.61 787.64 629.22 777.82 C 620.27 765.42 613.23 751.74 607.38 737.65 C 602.84 726.79 598.15 716.00 594.01 704.99 C 592.76 702.07 591.85 698.76 589.21 696.76 C 583.51 691.79 578.36 686.24 573.50 680.47 C 570.50 677.10 568.19 673.10 567.19 668.68 C 563.05 654.76 564.65 640.05 562.13 625.86 C 560.57 612.81 554.66 600.51 555.01 587.20 C 552.63 588.28 550.21 589.27 547.80 590.31 C 545.06 582.68 544.62 574.47 544.00 566.46 C 538.65 569.34 533.31 572.62 529.55 577.50 C 523.14 585.84 518.69 595.69 511.09 603.11 C 505.07 609.09 497.22 612.59 490.19 617.18 C 474.09 627.55 457.69 637.67 439.93 644.97 C 422.81 651.68 405.18 657.02 387.39 661.64 C 370.60 666.27 353.30 669.76 337.63 677.67 C 331.59 680.84 325.48 683.87 319.48 687.10 C 314.69 701.01 304.01 711.88 292.65 720.76 C 285.88 725.93 277.71 730.56 268.94 730.12 C 255.94 727.28 245.48 717.47 238.44 706.55 C 233.60 699.36 234.75 690.35 233.39 682.20 C 229.18 663.75 218.30 647.94 209.79 631.32 C 204.99 621.75 199.64 612.19 197.63 601.56 C 196.35 594.88 196.48 587.91 198.21 581.32 C 200.39 573.20 202.79 564.82 208.16 558.17 C 210.13 555.74 213.23 553.55 216.51 554.46 C 225.22 556.44 231.25 563.65 236.89 570.05 C 247.74 582.28 256.20 596.56 268.32 607.66 C 274.35 613.16 280.79 618.48 288.41 621.62 C 294.19 624.12 300.72 623.94 306.46 626.60 C 323.82 618.23 339.44 606.84 355.80 596.74 C 370.22 587.89 384.08 578.11 398.96 570.02 C 417.27 559.47 438.17 554.07 459.07 551.83 C 461.60 536.47 470.60 522.26 483.39 513.37 C 496.99 502.27 511.02 491.51 522.66 478.27 C 520.47 472.85 518.47 467.32 517.45 461.54 C 514.56 462.35 511.31 462.97 508.67 461.11 C 504.10 457.88 502.37 452.16 501.22 446.96 C 499.01 436.35 502.96 425.89 506.17 415.94 C 508.64 407.97 512.22 400.34 513.75 392.10 C 514.89 386.14 515.99 380.13 516.16 374.05 C 516.20 371.34 516.10 368.13 513.60 366.46 C 503.16 357.80 493.57 347.54 488.07 334.97 C 485.47 329.20 484.80 322.76 481.88 317.10 C 476.00 301.65 466.25 288.15 457.82 274.06 C 448.52 256.94 445.97 236.04 451.48 217.30 C 444.80 212.89 437.94 208.41 432.83 202.15 C 431.20 200.16 431.59 197.44 431.30 195.07 C 431.13 190.08 429.05 185.46 426.92 181.04 C 422.16 171.41 416.69 162.08 412.91 151.99 C 411.32 147.96 410.96 143.60 411.13 139.30 C 407.52 143.30 403.72 147.14 399.49 150.48 C 398.43 151.38 397.04 151.64 395.77 152.06 C 396.76 149.65 398.09 147.40 399.56 145.25 C 398.57 145.68 396.59 146.56 395.61 146.99 C 396.67 138.03 399.52 129.11 398.25 120.01 C 397.90 116.53 395.84 113.64 394.33 110.60 C 391.64 104.87 392.01 98.29 392.55 92.15 C 393.22 84.45 397.65 77.71 402.83 72.22 C 400.66 72.63 396.83 75.50 395.63 72.83 C 397.63 67.99 402.91 65.71 407.02 62.92 C 406.74 62.41 406.17 61.39 405.88 60.88 C 408.99 55.25 415.31 52.97 420.17 49.24 C 427.19 43.66 434.44 37.57 443.45 35.68 C 448.74 34.71 454.28 34.22 459.54 35.70 C 465.26 31.96 470.78 27.72 477.17 25.16 C 476.98 26.17 476.59 28.20 476.40 29.22 M 432.97 128.90 C 429.32 132.12 423.96 130.45 420.01 133.02 C 418.08 134.34 414.62 135.13 414.87 138.03 C 414.93 149.49 421.83 159.21 426.89 169.01 C 428.86 173.79 434.69 174.49 437.95 178.08 C 444.42 184.81 445.47 195.64 442.06 204.08 C 447.43 208.49 453.66 211.70 458.93 216.24 C 464.49 213.74 469.95 211.03 475.58 208.69 C 476.68 208.02 477.88 208.30 478.97 208.83 C 479.30 211.75 475.84 212.13 474.00 213.39 C 473.87 214.49 473.73 215.58 473.57 216.67 C 470.83 218.78 467.46 219.87 464.43 221.51 C 468.91 225.41 472.37 230.85 477.97 233.21 C 482.74 233.47 486.72 230.02 490.45 227.47 C 504.85 216.25 517.23 202.59 527.55 187.56 C 528.73 185.98 529.75 183.66 532.17 184.11 C 529.83 191.53 525.34 198.02 521.02 204.41 C 525.99 208.18 531.63 210.91 537.02 214.00 C 545.67 218.75 555.44 222.89 565.53 221.37 C 572.75 220.18 580.47 218.17 585.71 212.72 C 592.07 205.29 597.68 196.12 597.08 185.97 C 596.48 179.20 595.24 172.19 591.64 166.31 C 589.19 162.36 584.37 161.31 580.39 159.57 C 575.22 157.30 569.60 155.61 565.42 151.64 C 560.95 148.04 557.83 142.93 552.72 140.13 C 551.49 144.08 551.78 149.39 547.73 151.75 C 543.07 154.96 538.21 157.90 533.09 160.31 C 533.96 156.33 537.52 153.81 539.27 150.25 C 543.77 143.41 543.69 134.88 543.30 127.01 C 542.92 123.77 541.84 119.46 538.08 118.74 C 534.70 118.60 530.55 120.37 529.82 124.01 C 529.44 127.31 530.10 130.63 529.93 133.95 C 529.88 144.10 523.45 152.77 516.73 159.80 C 515.49 161.39 512.64 162.89 511.23 160.68 C 510.71 157.68 512.04 154.74 512.63 151.84 C 510.68 151.59 508.02 152.28 506.83 150.22 C 505.46 147.38 505.12 144.15 503.63 141.35 C 501.29 136.86 498.56 132.58 496.48 127.96 C 492.90 126.79 489.01 126.68 485.59 128.39 C 485.82 131.01 488.52 134.63 485.44 136.44 C 479.31 130.28 471.12 127.08 463.41 123.46 C 457.91 120.87 452.90 117.30 448.60 113.01 C 444.39 119.19 438.87 124.35 432.97 128.90 M 561.52 142.57 C 565.14 145.57 568.42 149.10 572.64 151.30 C 578.07 154.06 583.87 155.99 589.41 158.51 C 594.77 160.98 597.53 166.65 599.11 172.02 C 601.93 181.72 602.85 192.74 597.82 201.90 C 593.83 208.86 589.61 216.26 582.56 220.56 C 571.73 226.84 558.11 227.99 546.41 223.48 C 536.38 219.68 527.04 214.17 518.51 207.72 C 511.27 216.71 502.76 224.65 493.40 231.39 C 488.83 234.68 483.50 236.90 477.93 237.76 C 474.77 238.26 472.14 236.01 469.90 234.13 C 464.90 229.57 460.11 224.78 455.08 220.26 C 450.36 239.68 453.75 261.21 465.32 277.65 C 472.87 289.58 480.76 301.61 484.83 315.27 C 485.55 311.38 486.53 307.27 489.52 304.44 C 497.59 296.52 509.84 293.54 520.71 296.64 C 516.18 292.20 510.68 288.02 508.45 281.90 C 508.85 281.61 509.66 281.03 510.06 280.74 C 512.68 282.01 514.70 284.17 516.84 286.09 C 520.73 289.72 524.85 293.09 529.07 296.33 C 526.39 288.04 524.49 279.41 520.44 271.63 C 516.74 264.35 512.20 257.37 506.14 251.82 C 504.38 250.02 502.12 248.41 501.59 245.79 L 503.01 245.50 C 511.97 250.62 519.80 258.11 524.76 267.25 C 528.13 273.01 530.14 279.42 531.83 285.85 C 533.40 281.02 535.41 276.07 534.69 270.88 C 533.65 261.61 528.47 253.60 524.69 245.29 C 529.03 245.53 530.49 250.31 532.74 253.29 C 538.15 261.20 542.24 271.30 538.94 280.86 C 537.52 286.47 532.84 291.86 535.07 297.87 C 536.99 303.17 539.28 308.58 543.45 312.52 C 547.02 315.95 550.01 320.05 554.08 322.91 C 558.87 323.03 563.24 320.66 567.19 318.20 C 576.32 312.22 584.38 304.68 591.25 296.21 C 592.14 297.59 593.13 299.24 592.12 300.86 C 589.66 306.94 584.84 311.67 580.02 315.95 C 573.84 321.25 566.83 325.99 558.69 327.54 C 565.52 333.58 573.46 339.36 576.88 348.14 C 586.62 350.51 593.32 358.79 597.27 367.55 C 604.91 360.13 614.22 354.82 622.99 348.88 C 638.67 338.52 655.41 329.19 668.39 315.35 C 671.50 312.21 673.53 308.03 677.31 305.58 C 677.18 307.21 677.43 308.98 676.50 310.45 C 672.34 317.99 666.01 324.03 659.54 329.59 C 646.58 340.67 631.75 349.18 617.65 358.66 C 611.33 362.84 604.77 366.75 599.25 371.99 C 599.72 373.35 600.19 374.72 600.67 376.09 C 606.23 373.62 611.72 370.95 616.99 367.89 C 628.91 360.87 640.90 353.97 652.65 346.67 C 654.02 345.63 655.73 345.40 657.42 345.50 C 656.21 349.02 653.00 351.09 650.19 353.24 C 641.41 359.74 631.80 364.99 622.36 370.44 C 615.74 374.21 608.85 377.60 601.48 379.64 C 601.38 384.55 600.65 390.28 596.32 393.36 C 593.61 395.39 590.10 394.88 586.96 394.69 C 585.68 396.73 584.58 399.12 582.32 400.26 C 579.70 401.87 576.52 401.50 573.60 401.48 C 570.85 406.26 564.77 407.18 560.04 404.96 C 557.59 405.88 554.87 406.87 552.36 405.51 C 546.79 402.86 541.39 399.45 537.21 394.85 C 533.58 390.85 533.05 385.19 533.85 380.07 C 530.10 377.18 526.10 374.65 521.93 372.41 C 522.28 382.08 520.42 391.68 517.89 400.97 C 514.49 411.21 510.38 421.22 507.35 431.59 C 505.09 439.16 505.07 447.59 508.19 454.93 C 509.22 457.70 512.84 459.08 515.34 457.30 C 524.24 452.57 531.64 445.57 539.87 439.83 C 552.16 430.40 565.52 422.48 579.22 415.29 C 592.68 408.27 608.41 406.76 623.29 408.79 C 638.73 411.83 650.60 422.92 664.38 429.71 C 674.56 435.17 685.81 437.98 696.73 441.52 C 700.69 430.27 703.99 418.80 707.64 407.45 C 710.41 398.18 713.30 388.70 712.86 378.92 C 712.57 371.68 709.90 364.86 708.18 357.90 C 699.24 361.96 689.27 362.31 679.67 363.41 C 679.54 360.44 682.67 359.70 684.93 359.16 C 691.75 357.60 698.62 356.23 705.35 354.32 C 706.94 350.53 707.83 346.50 708.16 342.42 C 710.49 319.28 707.40 296.09 705.33 273.05 C 705.01 267.00 702.39 261.42 700.12 255.91 C 695.55 247.83 691.04 239.71 686.28 231.74 C 685.09 229.81 684.16 227.65 684.58 225.32 C 686.24 226.31 687.87 227.42 689.03 229.01 C 692.59 233.68 695.80 238.63 698.71 243.74 C 697.44 232.16 699.14 220.49 697.90 208.92 C 697.13 201.20 693.18 194.35 689.09 187.94 C 683.43 179.30 678.05 170.45 671.74 162.26 C 666.34 154.81 659.35 148.18 650.43 145.30 C 632.98 138.88 614.16 145.23 596.35 141.42 C 591.39 140.61 587.91 136.22 583.01 135.46 C 575.43 136.28 568.72 140.36 561.52 142.57 M 431.25 176.80 C 434.44 183.74 437.29 191.09 436.65 198.89 C 437.70 199.91 438.76 200.94 439.82 201.97 C 440.73 192.99 439.78 181.98 431.25 176.80 M 492.89 309.88 C 489.44 313.67 489.09 319.31 490.10 324.12 C 492.44 335.27 499.18 344.90 506.90 353.05 C 512.68 358.98 518.77 364.74 525.84 369.14 C 529.21 371.21 532.27 373.75 535.09 376.53 C 537.87 370.57 541.72 364.83 547.41 361.31 C 551.24 358.70 556.27 358.01 559.35 354.30 C 562.44 350.84 566.78 348.90 571.25 347.95 C 564.59 338.60 554.67 332.38 546.53 324.46 C 537.71 316.59 530.49 305.62 518.33 302.72 C 509.32 300.03 499.28 303.13 492.89 309.88 M 566.32 355.32 C 562.89 357.08 561.34 361.20 557.62 362.57 C 552.68 364.59 547.50 366.81 544.26 371.27 C 540.08 376.40 536.62 384.13 540.50 390.36 C 544.21 395.10 549.63 398.40 555.15 400.65 C 559.38 400.75 560.11 393.74 564.09 393.72 C 565.85 395.93 563.79 398.69 563.35 401.03 C 565.01 400.90 566.71 400.92 568.34 400.47 C 569.20 398.60 568.95 395.90 571.01 394.83 C 574.08 395.04 577.29 396.85 580.29 395.30 C 582.27 393.81 581.90 390.93 582.84 388.83 C 586.13 385.94 590.19 391.43 593.86 389.02 C 598.03 386.25 596.86 380.44 595.41 376.45 C 591.77 367.43 587.13 357.46 577.72 353.28 C 573.83 351.32 569.81 353.60 566.32 355.32 M 586.29 417.32 C 577.49 421.17 569.30 426.27 561.03 431.12 C 547.12 439.33 534.99 450.11 521.63 459.11 C 523.15 463.99 524.65 468.89 526.40 473.70 C 530.00 469.23 533.37 464.48 537.86 460.83 C 542.98 456.64 547.91 452.20 552.44 447.36 C 558.56 440.83 565.20 434.83 571.52 428.50 C 573.06 427.21 574.66 425.09 576.94 425.96 C 576.24 428.07 574.84 429.83 573.43 431.51 C 565.05 441.65 556.32 451.60 546.45 460.32 C 553.90 459.93 561.57 459.75 568.74 462.13 C 584.10 466.97 596.62 478.45 605.21 491.81 C 613.70 505.37 619.12 520.91 620.88 536.81 C 626.34 533.78 631.88 530.76 637.90 528.97 C 647.18 526.27 656.03 521.76 663.23 515.25 C 672.67 506.65 681.86 497.45 688.40 486.37 C 693.71 477.54 695.41 467.10 696.12 456.97 C 696.22 453.71 696.58 450.36 695.74 447.17 C 693.84 445.81 691.22 446.58 689.05 446.57 C 682.47 447.36 675.83 447.63 669.25 446.83 C 653.14 445.04 637.09 442.79 620.93 441.49 C 615.49 440.82 609.82 441.05 604.70 438.84 C 608.55 437.03 612.83 437.69 616.92 437.88 C 630.95 438.74 644.97 439.83 658.91 441.65 C 667.77 442.80 676.70 443.99 685.67 443.32 C 676.93 440.75 668.03 438.43 660.04 433.92 C 649.42 428.40 640.21 420.36 628.99 415.98 C 615.38 410.29 599.74 412.03 586.29 417.32 M 536.56 469.53 C 532.01 475.01 527.97 480.92 522.97 486.02 C 510.45 499.57 495.65 510.69 481.40 522.29 C 472.78 529.87 466.73 539.93 462.75 550.61 C 471.20 555.50 477.15 563.53 482.46 571.52 C 489.50 582.78 495.73 595.18 496.92 608.60 C 500.69 605.16 504.85 602.13 508.37 598.41 C 514.60 591.68 518.74 583.41 523.93 575.92 C 528.65 568.99 535.56 563.81 543.04 560.16 C 549.33 556.92 556.11 554.77 562.50 551.74 C 580.17 542.87 596.90 532.14 612.19 519.59 C 607.69 505.93 600.16 493.22 590.15 482.88 C 579.75 472.00 565.35 464.02 549.98 464.42 C 545.20 464.54 539.58 465.39 536.56 469.53 M 639.99 532.98 C 632.09 535.12 624.95 539.40 616.93 541.17 C 616.08 535.84 615.05 530.54 613.84 525.29 C 607.62 529.04 602.62 534.42 596.59 538.44 C 581.72 548.85 565.52 557.30 548.74 564.16 C 549.34 571.05 550.15 577.92 550.66 584.82 C 558.17 580.02 567.52 581.32 575.94 581.86 C 593.12 583.09 610.63 586.83 627.71 582.85 C 641.44 579.70 650.94 568.56 662.69 561.66 C 667.96 558.33 674.12 557.01 679.73 554.40 C 673.99 543.41 668.37 532.30 663.91 520.72 C 656.81 526.26 648.69 530.56 639.99 532.98 M 405.61 572.52 C 387.81 581.92 371.46 593.73 354.26 604.14 C 339.28 613.23 324.90 623.71 308.32 629.78 C 308.87 634.88 310.57 639.84 310.57 645.00 C 309.94 655.49 304.90 665.45 306.03 676.10 C 306.37 678.95 307.41 682.51 310.47 683.49 C 313.67 683.98 317.10 683.45 319.96 681.89 C 328.13 677.25 336.26 672.45 345.00 668.92 C 362.44 661.88 381.02 658.42 398.99 653.04 C 417.13 647.54 435.50 642.21 452.41 633.47 C 466.75 626.61 479.75 617.34 493.92 610.17 C 492.23 601.17 488.59 592.71 484.35 584.65 C 479.37 575.36 473.76 566.25 466.38 558.67 C 463.20 555.07 457.98 557.05 453.91 557.36 C 437.33 560.53 420.57 564.44 405.61 572.52 M 207.88 568.82 C 202.49 581.21 200.53 595.71 205.45 608.58 C 212.62 626.93 223.54 643.47 231.80 661.31 C 234.61 667.62 236.22 674.38 237.94 681.04 C 239.92 688.30 237.76 696.44 241.84 703.15 C 247.07 711.64 254.50 718.93 263.35 723.59 C 265.91 724.74 268.70 726.34 271.61 725.57 C 277.18 724.14 282.32 721.33 286.97 717.97 C 297.72 710.00 307.16 700.17 314.06 688.65 C 311.57 688.43 308.80 688.92 306.60 687.46 C 302.66 685.07 300.84 680.37 300.60 675.95 C 299.89 666.43 303.78 657.48 305.29 648.24 C 306.32 642.23 304.19 636.34 303.61 630.39 C 296.72 628.76 289.44 628.32 283.09 624.90 C 273.79 620.04 265.85 612.94 258.58 605.46 C 246.06 592.15 236.46 576.38 223.66 563.33 C 221.20 561.17 218.45 558.29 214.94 558.48 C 211.39 560.90 209.60 565.04 207.88 568.82 M 615.97 589.44 C 597.25 590.30 578.80 585.40 560.09 585.95 C 559.93 596.26 563.71 605.97 566.03 615.87 C 568.43 626.77 569.83 637.90 570.32 649.05 C 570.52 653.24 570.87 657.44 571.68 661.56 C 572.68 666.58 573.54 671.95 576.99 675.98 C 581.83 681.82 586.55 687.81 591.83 693.26 C 595.57 694.92 599.90 694.69 603.92 694.47 C 613.19 693.38 622.43 691.12 630.79 686.86 C 636.02 684.20 639.70 679.07 641.22 673.47 C 643.66 664.42 641.59 655.08 640.81 645.97 C 639.62 625.08 638.76 604.12 640.18 583.22 C 632.64 586.93 624.36 589.02 615.97 589.44 M 639.44 686.40 C 627.38 695.99 611.47 700.85 596.13 699.28 C 605.40 720.12 613.04 741.78 624.34 761.67 C 632.36 776.03 643.02 788.83 655.04 800.01 C 664.98 808.18 672.90 818.52 679.55 829.47 C 684.20 837.18 687.51 845.75 693.10 852.87 C 696.59 857.48 702.76 857.59 707.99 858.06 C 715.64 858.54 723.91 859.78 730.94 855.90 C 735.00 853.44 736.40 848.47 737.02 844.05 C 738.88 835.54 733.22 827.99 728.48 821.52 C 711.47 799.49 704.40 772.10 694.34 746.63 C 682.87 718.02 667.81 690.54 647.56 667.16 C 646.82 674.12 644.97 681.64 639.44 686.40 M 739.64 831.40 C 740.97 835.45 742.07 839.71 741.53 844.02 C 740.91 850.17 739.19 857.11 733.60 860.61 C 726.57 865.04 717.87 864.01 710.00 863.46 C 703.79 862.76 697.16 862.81 691.73 859.30 C 688.35 865.65 686.46 872.63 684.69 879.57 C 681.80 890.93 677.84 901.98 674.41 913.18 C 670.29 926.74 663.87 939.79 662.66 954.08 C 662.49 957.37 662.50 961.45 665.31 963.71 C 668.55 965.45 672.45 964.82 675.87 963.97 C 684.25 961.60 692.52 957.99 698.88 951.89 C 709.65 941.67 716.35 928.21 723.36 915.35 C 728.91 905.35 736.18 895.96 746.01 889.87 C 752.47 885.89 759.20 882.05 764.45 876.47 C 769.21 871.51 768.83 863.66 766.53 857.65 C 760.96 846.05 750.06 838.34 739.64 831.40 Z" />
        <path fill="#020202" opacity="1.00"
            d=" M 463.18 152.37 C 465.25 151.83 467.59 150.00 469.66 151.44 C 471.02 154.32 471.28 157.57 471.91 160.66 C 463.37 164.05 454.51 166.55 445.99 169.97 C 444.41 170.42 442.30 171.59 440.98 170.03 C 439.99 167.78 439.48 165.38 438.87 163.02 C 446.63 158.74 455.04 155.82 463.18 152.37 Z" />
        <path fill="#020202" opacity="1.00"
            d=" M 451.83 202.12 C 453.57 200.84 455.37 199.61 457.41 198.83 C 456.19 201.94 454.44 204.78 452.49 207.48 C 449.55 206.36 446.45 205.53 443.77 203.84 C 443.09 199.11 449.17 201.87 451.83 202.12 Z" />
        <path fill="#020202" opacity="1.00"
            d=" M 583.41 448.62 C 603.47 446.17 624.17 449.15 642.66 457.33 C 647.56 459.68 653.18 460.65 657.57 463.95 C 657.30 466.67 654.18 465.97 652.34 465.53 C 640.52 462.30 629.16 457.40 617.07 455.17 C 607.85 453.29 598.46 452.41 589.06 452.28 C 585.00 452.01 580.75 452.74 576.91 451.11 C 578.87 449.83 581.05 448.84 583.41 448.62 Z" />
    </g>
    <g id="#f0b58bff">
        <path fill="#f0b58b" opacity="1.00"
            d=" M 432.97 128.90 C 438.87 124.35 444.39 119.19 448.60 113.01 C 452.90 117.30 457.91 120.87 463.41 123.46 C 471.12 127.08 479.31 130.28 485.44 136.44 C 488.52 134.63 485.82 131.01 485.59 128.39 C 489.01 126.68 492.90 126.79 496.48 127.96 C 498.56 132.58 501.29 136.86 503.63 141.35 C 505.12 144.15 505.46 147.38 506.83 150.22 C 508.02 152.28 510.68 151.59 512.63 151.84 C 512.04 154.74 510.71 157.68 511.23 160.68 C 512.64 162.89 515.49 161.39 516.73 159.80 C 523.45 152.77 529.88 144.10 529.93 133.95 C 530.10 130.63 529.44 127.31 529.82 124.01 C 530.55 120.37 534.70 118.60 538.08 118.74 C 541.84 119.46 542.92 123.77 543.30 127.01 C 543.69 134.88 543.77 143.41 539.27 150.25 C 537.52 153.81 533.96 156.33 533.09 160.31 C 538.21 157.90 543.07 154.96 547.73 151.75 C 551.78 149.39 551.49 144.08 552.72 140.13 C 557.83 142.93 560.95 148.04 565.42 151.64 C 569.60 155.61 575.22 157.30 580.39 159.57 C 584.37 161.31 589.19 162.36 591.64 166.31 C 595.24 172.19 596.48 179.20 597.08 185.97 C 597.68 196.12 592.07 205.29 585.71 212.72 C 580.47 218.17 572.75 220.18 565.53 221.37 C 555.44 222.89 545.67 218.75 537.02 214.00 C 531.63 210.91 525.99 208.18 521.02 204.41 C 525.34 198.02 529.83 191.53 532.17 184.11 C 529.75 183.66 528.73 185.98 527.55 187.56 C 517.23 202.59 504.85 216.25 490.45 227.47 C 486.72 230.02 482.74 233.47 477.97 233.21 C 472.37 230.85 468.91 225.41 464.43 221.51 C 467.46 219.87 470.83 218.78 473.57 216.67 C 473.73 215.58 473.87 214.49 474.00 213.39 C 475.84 212.13 479.30 211.75 478.97 208.83 C 477.88 208.30 476.68 208.02 475.58 208.69 C 469.95 211.03 464.49 213.74 458.93 216.24 C 453.66 211.70 447.43 208.49 442.06 204.08 C 445.47 195.64 444.42 184.81 437.95 178.08 C 434.69 174.49 428.86 173.79 426.89 169.01 C 421.83 159.21 414.93 149.49 414.87 138.03 C 414.62 135.13 418.08 134.34 420.01 133.02 C 423.96 130.45 429.32 132.12 432.97 128.90 M 463.18 152.37 C 455.04 155.82 446.63 158.74 438.87 163.02 C 439.48 165.38 439.99 167.78 440.98 170.03 C 442.30 171.59 444.41 170.42 445.99 169.97 C 454.51 166.55 463.37 164.05 471.91 160.66 C 471.28 157.57 471.02 154.32 469.66 151.44 C 467.59 150.00 465.25 151.83 463.18 152.37 M 451.83 202.12 C 449.17 201.87 443.09 199.11 443.77 203.84 C 446.45 205.53 449.55 206.36 452.49 207.48 C 454.44 204.78 456.19 201.94 457.41 198.83 C 455.37 199.61 453.57 200.84 451.83 202.12 Z" />
        <path fill="#f0b58b" opacity="1.00"
            d=" M 431.25 176.80 C 439.78 181.98 440.73 192.99 439.82 201.97 C 438.76 200.94 437.70 199.91 436.65 198.89 C 437.29 191.09 434.44 183.74 431.25 176.80 Z" />
        <path fill="#f0b58b" opacity="1.00"
            d=" M 492.89 309.88 C 499.28 303.13 509.32 300.03 518.33 302.72 C 530.49 305.62 537.71 316.59 546.53 324.46 C 554.67 332.38 564.59 338.60 571.25 347.95 C 566.78 348.90 562.44 350.84 559.35 354.30 C 556.27 358.01 551.24 358.70 547.41 361.31 C 541.72 364.83 537.87 370.57 535.09 376.53 C 532.27 373.75 529.21 371.21 525.84 369.14 C 518.77 364.74 512.68 358.98 506.90 353.05 C 499.18 344.90 492.44 335.27 490.10 324.12 C 489.09 319.31 489.44 313.67 492.89 309.88 Z" />
        <path fill="#f0b58b" opacity="1.00"
            d=" M 566.32 355.32 C 569.81 353.60 573.83 351.32 577.72 353.28 C 587.13 357.46 591.77 367.43 595.41 376.45 C 596.86 380.44 598.03 386.25 593.86 389.02 C 590.19 391.43 586.13 385.94 582.84 388.83 C 581.90 390.93 582.27 393.81 580.29 395.30 C 577.29 396.85 574.08 395.04 571.01 394.83 C 568.95 395.90 569.20 398.60 568.34 400.47 C 566.71 400.92 565.01 400.90 563.35 401.03 C 563.79 398.69 565.85 395.93 564.09 393.72 C 560.11 393.74 559.38 400.75 555.15 400.65 C 549.63 398.40 544.21 395.10 540.50 390.36 C 536.62 384.13 540.08 376.40 544.26 371.27 C 547.50 366.81 552.68 364.59 557.62 362.57 C 561.34 361.20 562.89 357.08 566.32 355.32 Z" />
        <path fill="#f0b58b" opacity="1.00"
            d=" M 536.56 469.53 C 539.58 465.39 545.20 464.54 549.98 464.42 C 565.35 464.02 579.75 472.00 590.15 482.88 C 600.16 493.22 607.69 505.93 612.19 519.59 C 596.90 532.14 580.17 542.87 562.50 551.74 C 556.11 554.77 549.33 556.92 543.04 560.16 C 535.56 563.81 528.65 568.99 523.93 575.92 C 518.74 583.41 514.60 591.68 508.37 598.41 C 504.85 602.13 500.69 605.16 496.92 608.60 C 495.73 595.18 489.50 582.78 482.46 571.52 C 477.15 563.53 471.20 555.50 462.75 550.61 C 466.73 539.93 472.78 529.87 481.40 522.29 C 495.65 510.69 510.45 499.57 522.97 486.02 C 527.97 480.92 532.01 475.01 536.56 469.53 Z" />
        <path fill="#f0b58b" opacity="1.00"
            d=" M 615.97 589.44 C 624.36 589.02 632.64 586.93 640.18 583.22 C 638.76 604.12 639.62 625.08 640.81 645.97 C 641.59 655.08 643.66 664.42 641.22 673.47 C 639.70 679.07 636.02 684.20 630.79 686.86 C 622.43 691.12 613.19 693.38 603.92 694.47 C 599.90 694.69 595.57 694.92 591.83 693.26 C 586.55 687.81 581.83 681.82 576.99 675.98 C 573.54 671.95 572.68 666.58 571.68 661.56 C 570.87 657.44 570.52 653.24 570.32 649.05 C 569.83 637.90 568.43 626.77 566.03 615.87 C 563.71 605.97 559.93 596.26 560.09 585.95 C 578.80 585.40 597.25 590.30 615.97 589.44 Z" />
    </g>
    <g id="#f11b27ff">
        <path fill="var(--shirt-color, grey)" opacity="1.00"
            d=" M 561.52 142.57 C 568.72 140.36 575.43 136.28 583.01 135.46 C 587.91 136.22 591.39 140.61 596.35 141.42 C 614.16 145.23 632.98 138.88 650.43 145.30 C 659.35 148.18 666.34 154.81 671.74 162.26 C 678.05 170.45 683.43 179.30 689.09 187.94 C 693.18 194.35 697.13 201.20 697.90 208.92 C 699.14 220.49 697.44 232.16 698.71 243.74 C 695.80 238.63 692.59 233.68 689.03 229.01 C 687.87 227.42 686.24 226.31 684.58 225.32 C 684.16 227.65 685.09 229.81 686.28 231.74 C 691.04 239.71 695.55 247.83 700.12 255.91 C 702.39 261.42 705.01 267.00 705.33 273.05 C 707.40 296.09 710.49 319.28 708.16 342.42 C 707.83 346.50 706.94 350.53 705.35 354.32 C 698.62 356.23 691.75 357.60 684.93 359.16 C 682.67 359.70 679.54 360.44 679.67 363.41 C 689.27 362.31 699.24 361.96 708.18 357.90 C 709.90 364.86 712.57 371.68 712.86 378.92 C 713.30 388.70 710.41 398.18 707.64 407.45 C 703.99 418.80 700.69 430.27 696.73 441.52 C 685.81 437.98 674.56 435.17 664.38 429.71 C 650.60 422.92 638.73 411.83 623.29 408.79 C 608.41 406.76 592.68 408.27 579.22 415.29 C 565.52 422.48 552.16 430.40 539.87 439.83 C 531.64 445.57 524.24 452.57 515.34 457.30 C 512.84 459.08 509.22 457.70 508.19 454.93 C 505.07 447.59 505.09 439.16 507.35 431.59 C 510.38 421.22 514.49 411.21 517.89 400.97 C 520.42 391.68 522.28 382.08 521.93 372.41 C 526.10 374.65 530.10 377.18 533.85 380.07 C 533.05 385.19 533.58 390.85 537.21 394.85 C 541.39 399.45 546.79 402.86 552.36 405.51 C 554.87 406.87 557.59 405.88 560.04 404.96 C 564.77 407.18 570.85 406.26 573.60 401.48 C 576.52 401.50 579.70 401.87 582.32 400.26 C 584.58 399.12 585.68 396.73 586.96 394.69 C 590.10 394.88 593.61 395.39 596.32 393.36 C 600.65 390.28 601.38 384.55 601.48 379.64 C 608.85 377.60 615.74 374.21 622.36 370.44 C 631.80 364.99 641.41 359.74 650.19 353.24 C 653.00 351.09 656.21 349.02 657.42 345.50 C 655.73 345.40 654.02 345.63 652.65 346.67 C 640.90 353.97 628.91 360.87 616.99 367.89 C 611.72 370.95 606.23 373.62 600.67 376.09 C 600.19 374.72 599.72 373.35 599.25 371.99 C 604.77 366.75 611.33 362.84 617.65 358.66 C 631.75 349.18 646.58 340.67 659.54 329.59 C 666.01 324.03 672.34 317.99 676.50 310.45 C 677.43 308.98 677.18 307.21 677.31 305.58 C 673.53 308.03 671.50 312.21 668.39 315.35 C 655.41 329.19 638.67 338.52 622.99 348.88 C 614.22 354.82 604.91 360.13 597.27 367.55 C 593.32 358.79 586.62 350.51 576.88 348.14 C 573.46 339.36 565.52 333.58 558.69 327.54 C 566.83 325.99 573.84 321.25 580.02 315.95 C 584.84 311.67 589.66 306.94 592.12 300.86 C 593.13 299.24 592.14 297.59 591.25 296.21 C 584.38 304.68 576.32 312.22 567.19 318.20 C 563.24 320.66 558.87 323.03 554.08 322.91 C 550.01 320.05 547.02 315.95 543.45 312.52 C 539.28 308.58 536.99 303.17 535.07 297.87 C 532.84 291.86 537.52 286.47 538.94 280.86 C 542.24 271.30 538.15 261.20 532.74 253.29 C 530.49 250.31 529.03 245.53 524.69 245.29 C 528.47 253.60 533.65 261.61 534.69 270.88 C 535.41 276.07 533.40 281.02 531.83 285.85 C 530.14 279.42 528.13 273.01 524.76 267.25 C 519.80 258.11 511.97 250.62 503.01 245.50 L 501.59 245.79 C 502.12 248.41 504.38 250.02 506.14 251.82 C 512.20 257.37 516.74 264.35 520.44 271.63 C 524.49 279.41 526.39 288.04 529.07 296.33 C 524.85 293.09 520.73 289.72 516.84 286.09 C 514.70 284.17 512.68 282.01 510.06 280.74 C 509.66 281.03 508.85 281.61 508.45 281.90 C 510.68 288.02 516.18 292.20 520.71 296.64 C 509.84 293.54 497.59 296.52 489.52 304.44 C 486.53 307.27 485.55 311.38 484.83 315.27 C 480.76 301.61 472.87 289.58 465.32 277.65 C 453.75 261.21 450.36 239.68 455.08 220.26 C 460.11 224.78 464.90 229.57 469.90 234.13 C 472.14 236.01 474.77 238.26 477.93 237.76 C 483.50 236.90 488.83 234.68 493.40 231.39 C 502.76 224.65 511.27 216.71 518.51 207.72 C 527.04 214.17 536.38 219.68 546.41 223.48 C 558.11 227.99 571.73 226.84 582.56 220.56 C 589.61 216.26 593.83 208.86 597.82 201.90 C 602.85 192.74 601.93 181.72 599.11 172.02 C 597.53 166.65 594.77 160.98 589.41 158.51 C 583.87 155.99 578.07 154.06 572.64 151.30 C 568.42 149.10 565.14 145.57 561.52 142.57 Z" />
    </g>
    <g id="#2b3dcdff">
        <path fill="var(--pants-color, grey)" opacity="1.00"
            d=" M 586.29 417.32 C 599.74 412.03 615.38 410.29 628.99 415.98 C 640.21 420.36 649.42 428.40 660.04 433.92 C 668.03 438.43 676.93 440.75 685.67 443.32 C 676.70 443.99 667.77 442.80 658.91 441.65 C 644.97 439.83 630.95 438.74 616.92 437.88 C 612.83 437.69 608.55 437.03 604.70 438.84 C 609.82 441.05 615.49 440.82 620.93 441.49 C 637.09 442.79 653.14 445.04 669.25 446.83 C 675.83 447.63 682.47 447.36 689.05 446.57 C 691.22 446.58 693.84 445.81 695.74 447.17 C 696.58 450.36 696.22 453.71 696.12 456.97 C 695.41 467.10 693.71 477.54 688.40 486.37 C 681.86 497.45 672.67 506.65 663.23 515.25 C 656.03 521.76 647.18 526.27 637.90 528.97 C 631.88 530.76 626.34 533.78 620.88 536.81 C 619.12 520.91 613.70 505.37 605.21 491.81 C 596.62 478.45 584.10 466.97 568.74 462.13 C 561.57 459.75 553.90 459.93 546.45 460.32 C 556.32 451.60 565.05 441.65 573.43 431.51 C 574.84 429.83 576.24 428.07 576.94 425.96 C 574.66 425.09 573.06 427.21 571.52 428.50 C 565.20 434.83 558.56 440.83 552.44 447.36 C 547.91 452.20 542.98 456.64 537.86 460.83 C 533.37 464.48 530.00 469.23 526.40 473.70 C 524.65 468.89 523.15 463.99 521.63 459.11 C 534.99 450.11 547.12 439.33 561.03 431.12 C 569.30 426.27 577.49 421.17 586.29 417.32 M 583.41 448.62 C 581.05 448.84 578.87 449.83 576.91 451.11 C 580.75 452.74 585.00 452.01 589.06 452.28 C 598.46 452.41 607.85 453.29 617.07 455.17 C 629.16 457.40 640.52 462.30 652.34 465.53 C 654.18 465.97 657.30 466.67 657.57 463.95 C 653.18 460.65 647.56 459.68 642.66 457.33 C 624.17 449.15 603.47 446.17 583.41 448.62 Z" />
        <path fill="var(--pants-color, grey)" opacity="1.00"
            d=" M 639.99 532.98 C 648.69 530.56 656.81 526.26 663.91 520.72 C 668.37 532.30 673.99 543.41 679.73 554.40 C 674.12 557.01 667.96 558.33 662.69 561.66 C 650.94 568.56 641.44 579.70 627.71 582.85 C 610.63 586.83 593.12 583.09 575.94 581.86 C 567.52 581.32 558.17 580.02 550.66 584.82 C 550.15 577.92 549.34 571.05 548.74 564.16 C 565.52 557.30 581.72 548.85 596.59 538.44 C 602.62 534.42 607.62 529.04 613.84 525.29 C 615.05 530.54 616.08 535.84 616.93 541.17 C 624.95 539.40 632.09 535.12 639.99 532.98 Z" />
        <path fill="var(--socks-color, grey)" opacity="1.00"
            d=" M 405.61 572.52 C 420.57 564.44 437.33 560.53 453.91 557.36 C 457.98 557.05 463.20 555.07 466.38 558.67 C 473.76 566.25 479.37 575.36 484.35 584.65 C 488.59 592.71 492.23 601.17 493.92 610.17 C 479.75 617.34 466.75 626.61 452.41 633.47 C 435.50 642.21 417.13 647.54 398.99 653.04 C 381.02 658.42 362.44 661.88 345.00 668.92 C 336.26 672.45 328.13 677.25 319.96 681.89 C 317.10 683.45 313.67 683.98 310.47 683.49 C 307.41 682.51 306.37 678.95 306.03 676.10 C 304.90 665.45 309.94 655.49 310.57 645.00 C 310.57 639.84 308.87 634.88 308.32 629.78 C 324.90 623.71 339.28 613.23 354.26 604.14 C 371.46 593.73 387.81 581.92 405.61 572.52 Z" />
        <path fill="var(--socks-color, grey)" opacity="1.00"
            d=" M 639.44 686.40 C 644.97 681.64 646.82 674.12 647.56 667.16 C 667.81 690.54 682.87 718.02 694.34 746.63 C 704.40 772.10 711.47 799.49 728.48 821.52 C 733.22 827.99 738.88 835.54 737.02 844.05 C 736.40 848.47 735.00 853.44 730.94 855.90 C 723.91 859.78 715.64 858.54 707.99 858.06 C 702.76 857.59 696.59 857.48 693.10 852.87 C 687.51 845.75 684.20 837.18 679.55 829.47 C 672.90 818.52 664.98 808.18 655.04 800.01 C 643.02 788.83 632.36 776.03 624.34 761.67 C 613.04 741.78 605.40 720.12 596.13 699.28 C 611.47 700.85 627.38 695.99 639.44 686.40 Z" />
    </g>
    <g id="#4d4d4dff">
        <path fill="#4d4d4d" opacity="1.00"
            d=" M 207.88 568.82 C 209.60 565.04 211.39 560.90 214.94 558.48 C 218.45 558.29 221.20 561.17 223.66 563.33 C 236.46 576.38 246.06 592.15 258.58 605.46 C 265.85 612.94 273.79 620.04 283.09 624.90 C 289.44 628.32 296.72 628.76 303.61 630.39 C 304.19 636.34 306.32 642.23 305.29 648.24 C 303.78 657.48 299.89 666.43 300.60 675.95 C 300.84 680.37 302.66 685.07 306.60 687.46 C 308.80 688.92 311.57 688.43 314.06 688.65 C 307.16 700.17 297.72 710.00 286.97 717.97 C 282.32 721.33 277.18 724.14 271.61 725.57 C 268.70 726.34 265.91 724.74 263.35 723.59 C 254.50 718.93 247.07 711.64 241.84 703.15 C 237.76 696.44 239.92 688.30 237.94 681.04 C 236.22 674.38 234.61 667.62 231.80 661.31 C 223.54 643.47 212.62 626.93 205.45 608.58 C 200.53 595.71 202.49 581.21 207.88 568.82 Z" />
        <path fill="#4d4d4d" opacity="1.00"
            d=" M 739.64 831.40 C 750.06 838.34 760.96 846.05 766.53 857.65 C 768.83 863.66 769.21 871.51 764.45 876.47 C 759.20 882.05 752.47 885.89 746.01 889.87 C 736.18 895.96 728.91 905.35 723.36 915.35 C 716.35 928.21 709.65 941.67 698.88 951.89 C 692.52 957.99 684.25 961.60 675.87 963.97 C 672.45 964.82 668.55 965.45 665.31 963.71 C 662.50 961.45 662.49 957.37 662.66 954.08 C 663.87 939.79 670.29 926.74 674.41 913.18 C 677.84 901.98 681.80 890.93 684.69 879.57 C 686.46 872.63 688.35 865.65 691.73 859.30 C 697.16 862.81 703.79 862.76 710.00 863.46 C 717.87 864.01 726.57 865.04 733.60 860.61 C 739.19 857.11 740.91 850.17 741.53 844.02 C 742.07 839.71 740.97 835.45 739.64 831.40 Z" />
    </g>
</svg>