<svg xmlns="http://www.w3.org/2000/svg" viewBox="0 0 10 50" enable-background="new 0 0 10 50">
 <rect x="8.6" fill="#3a3a3a" width="1.4" height="50"/>
 <path fill="#dedddd" d="m10 .9v18.2h-1.4c0 0-6.2 6.8-3.3 8.6-12.2-1 1.9-12.2-4.3-11.9-.1-2.5 7.6-14.9 7.6-14.9h1.4"/>
 <path fill="#9d9d9d" d="m2.7 16.5c1.2-3.6 6-14.6 6-14.6v16.6c0 0-4.3 5.5-4.2 8.8-1.5-3.8 3.8-10.8 3.8-10.8v-11.1c0 0-4 16.4-7.4 16 1.4-1.9 2.2-5 1.8-4.9"/>
 <g fill="#f2f2f2">
  <polygon points="7.8,2.8 1.5,15.3 2.6,15.8 "/>
  <path d="m.7 23.6c-.4 2 2.4 4 2.9 1.9.6-3.5 2.4-7.2 3-8.4s-5.6 5-5.9 6.5"/>
 </g>
</svg>
