<?xml version="1.0" encoding="UTF-8" ?>
<!DOCTYPE svg PUBLIC "-//W3C//DTD SVG 1.1//EN" "http://www.w3.org/Graphics/SVG/1.1/DTD/svg11.dtd">
<svg width="1000pt" height="1000pt" viewBox="0 0 1000 1000" version="1.1" xmlns="http://www.w3.org/2000/svg">
	<g id="#020202ff">
		<path fill="#020202" opacity="1.00"
			d=" M 376.96 42.97 C 386.14 35.21 398.16 31.65 410.02 31.09 C 424.58 30.52 439.18 36.27 449.63 46.40 C 464.44 60.26 471.57 81.04 470.80 101.08 C 470.26 113.01 466.95 125.04 460.11 134.93 C 463.43 142.63 468.25 149.57 473.79 155.82 C 484.03 155.17 493.78 158.72 503.38 161.71 C 521.28 167.75 536.82 179.92 547.61 195.36 C 557.04 208.88 565.13 223.64 569.15 239.72 C 571.48 251.01 572.46 262.52 573.90 273.95 C 575.88 292.74 580.71 311.09 582.60 329.89 C 583.85 341.87 584.97 354.03 583.06 366.01 C 582.44 369.28 582.55 373.15 579.75 375.48 C 579.27 380.63 579.35 385.80 579.47 390.97 C 578.97 401.19 588.11 407.92 591.16 417.00 C 594.15 426.23 592.52 436.12 593.66 445.61 C 594.76 452.86 601.06 457.37 604.58 463.36 C 608.98 470.81 612.31 478.83 615.09 487.01 C 617.29 493.79 619.39 500.74 619.32 507.95 C 617.92 509.22 616.53 510.49 615.13 511.76 C 617.40 515.06 619.39 518.56 620.83 522.31 C 623.88 530.01 627.53 537.68 628.26 546.04 C 629.18 556.03 631.19 565.91 634.34 575.43 C 635.79 581.21 642.46 582.74 645.52 587.43 C 650.87 593.46 648.03 601.99 650.00 609.11 C 652.15 616.47 655.34 623.48 658.51 630.45 C 662.29 639.02 665.15 648.01 666.92 657.22 C 667.98 662.27 667.02 667.45 665.24 672.22 C 671.39 683.76 677.61 695.30 682.49 707.45 C 683.48 709.71 683.92 712.34 685.66 714.21 C 694.82 723.44 705.71 730.88 714.04 740.95 C 718.88 746.78 723.29 752.95 727.88 758.99 C 733.21 766.06 737.94 773.71 740.75 782.17 C 744.25 792.57 747.20 803.15 750.23 813.69 C 755.29 830.99 757.33 848.97 759.23 866.84 C 767.22 871.93 773.20 879.88 775.99 888.94 C 779.55 900.20 783.08 911.49 786.34 922.85 C 789.16 932.59 794.56 941.29 798.06 950.77 C 800.22 956.49 802.55 962.79 800.58 968.92 C 799.27 974.11 794.90 978.30 789.62 979.28 C 779.81 981.20 769.96 983.13 759.99 984.03 C 751.33 984.49 741.62 983.16 735.07 976.96 C 729.29 970.46 727.41 961.52 726.55 953.11 C 725.58 943.05 726.85 932.78 724.58 922.85 C 722.88 914.93 719.69 907.23 719.82 899.02 C 720.14 893.95 718.24 888.87 714.87 885.11 C 706.72 876.45 700.41 866.30 693.02 857.02 C 685.27 846.98 678.90 835.99 673.38 824.60 C 665.29 810.15 659.46 794.61 654.09 778.99 C 652.30 774.43 650.65 769.44 646.87 766.12 C 641.98 762.47 636.14 760.37 631.20 756.79 C 619.07 748.37 610.61 736.03 601.11 724.98 C 594.88 717.69 589.10 710.04 584.02 701.91 C 576.74 704.66 568.23 705.04 561.58 700.47 C 550.30 692.68 539.64 683.72 531.21 672.84 C 511.88 648.50 495.21 621.57 471.24 601.32 C 467.56 607.78 461.64 612.61 455.21 616.17 C 445.90 621.30 436.08 625.46 426.92 630.85 C 419.64 635.02 413.57 640.87 406.97 645.96 C 403.37 648.81 400.11 652.45 395.50 653.62 C 387.19 655.78 378.30 654.02 370.71 650.28 C 368.38 649.19 366.61 647.30 365.00 645.36 C 361.69 647.88 359.04 652.63 361.26 656.68 C 366.66 665.54 372.71 674.01 377.91 683.00 C 386.98 699.14 394.88 715.91 401.99 733.00 C 408.44 747.51 410.75 763.44 417.02 778.01 C 420.47 785.66 424.56 793.00 429.03 800.10 C 437.01 799.83 445.81 800.51 452.06 806.07 C 458.98 812.34 462.60 821.76 463.07 830.97 C 463.85 844.33 456.67 856.69 457.47 870.06 C 457.39 881.16 463.94 890.97 464.17 902.01 C 464.22 909.94 462.03 917.98 457.30 924.41 C 453.30 929.88 449.18 935.58 443.37 939.26 C 438.60 942.10 432.94 938.95 429.72 935.22 C 425.81 930.32 423.98 924.22 421.41 918.60 C 418.67 912.70 416.35 906.60 413.14 900.93 C 408.58 892.82 403.32 885.08 399.47 876.59 C 394.13 863.74 389.44 850.58 386.67 836.91 C 386.01 832.72 382.77 829.69 380.96 826.00 C 376.21 816.98 370.38 808.59 364.99 799.96 C 361.02 793.70 356.93 787.51 352.30 781.72 C 345.62 773.12 337.70 765.57 331.24 756.79 C 323.94 746.81 317.69 736.12 311.77 725.28 C 306.15 714.78 302.50 703.40 298.67 692.18 C 296.94 687.30 296.46 681.87 293.65 677.45 C 288.63 671.66 284.25 665.11 282.24 657.63 C 279.17 646.04 279.05 633.69 281.75 622.02 C 285.29 605.52 292.86 590.12 302.28 576.20 C 315.57 555.98 333.17 539.19 350.00 521.98 C 353.93 518.30 355.64 512.04 353.33 507.10 C 352.70 498.32 355.77 489.69 360.29 482.28 C 362.79 478.46 363.72 473.94 364.58 469.53 C 363.78 467.89 362.85 466.00 363.97 464.26 C 368.32 455.16 373.98 446.69 380.29 438.84 C 376.93 431.25 374.43 422.63 376.49 414.35 C 378.82 408.04 382.91 402.51 384.81 396.01 C 377.76 380.01 373.25 363.08 369.16 346.13 C 367.15 337.16 365.07 328.17 364.10 319.02 C 363.67 313.93 363.66 308.81 362.86 303.77 C 358.22 305.50 353.64 307.45 348.85 308.71 C 343.90 309.88 339.20 306.83 336.14 303.19 C 312.07 313.67 286.27 319.10 260.80 324.96 C 254.40 326.52 247.79 327.30 241.57 329.52 C 239.31 330.16 238.26 332.37 237.17 334.24 C 233.91 340.01 229.55 345.30 223.87 348.81 C 219.37 351.56 214.59 353.78 209.85 356.07 C 210.90 363.35 210.76 370.79 209.70 378.06 C 209.32 380.41 208.64 383.15 206.34 384.33 C 204.08 385.49 201.56 384.42 199.35 383.74 C 197.71 386.08 195.13 387.36 192.33 386.25 C 191.38 388.39 189.91 391.26 187.07 390.70 C 182.64 389.66 181.32 384.61 180.30 380.78 C 178.99 374.80 176.64 369.14 174.17 363.57 C 172.61 368.34 171.33 373.91 166.83 376.82 C 163.80 378.98 160.11 377.10 157.14 375.83 C 158.91 365.45 161.13 355.04 165.47 345.40 C 168.47 339.39 173.90 335.17 178.91 330.91 C 189.12 322.04 200.68 314.88 212.59 308.55 C 221.55 303.63 232.05 302.33 240.65 296.69 C 253.73 289.17 266.73 281.16 277.69 270.68 C 287.13 261.59 298.49 254.38 310.91 250.14 C 311.41 245.45 314.40 241.83 317.37 238.41 C 321.07 234.29 318.21 228.30 320.68 223.68 C 322.92 217.41 328.66 213.64 332.53 208.50 C 334.99 205.61 335.16 201.51 337.56 198.58 C 349.73 183.76 365.34 171.88 382.54 163.48 C 377.29 155.90 374.18 147.00 372.83 137.91 C 370.34 122.33 366.97 106.74 367.07 90.90 C 365.44 91.35 363.79 91.74 362.13 92.04 C 360.31 85.77 362.09 79.28 362.40 72.93 C 363.21 61.62 367.63 49.94 376.96 42.97 M 410.31 71.93 C 408.27 77.70 405.20 83.13 400.97 87.57 C 400.66 82.49 399.93 77.35 397.89 72.65 C 392.52 79.76 386.93 86.99 379.07 91.51 C 379.71 86.11 380.53 80.69 380.06 75.23 C 377.41 79.79 374.47 84.22 370.74 87.98 C 370.89 92.06 371.27 96.14 371.88 100.19 C 376.36 100.93 382.20 100.73 384.93 105.06 C 386.84 109.77 386.11 115.03 386.61 119.99 C 386.50 123.09 387.24 126.88 385.05 129.41 L 383.90 129.42 C 381.69 125.65 383.15 120.77 382.51 116.55 C 379.93 116.85 377.36 117.26 374.80 117.68 C 377.58 130.36 378.51 143.72 384.50 155.47 C 388.22 162.43 394.16 168.80 402.08 170.71 C 409.01 172.80 416.11 170.11 422.47 167.45 C 426.93 165.55 429.92 161.11 434.76 160.03 C 434.61 160.71 434.31 162.05 434.16 162.73 C 428.78 170.79 419.51 175.02 410.27 176.85 C 410.76 183.21 410.27 189.58 409.38 195.88 C 409.16 198.43 408.44 201.43 410.34 203.55 C 417.17 212.30 423.35 221.94 425.72 232.94 C 429.81 224.95 436.74 219.06 443.46 213.34 C 452.12 206.36 460.47 199.01 469.05 191.93 C 475.38 187.11 479.71 180.18 482.98 173.07 C 482.11 170.82 480.03 169.34 478.42 167.63 C 468.91 158.85 460.35 148.56 455.90 136.25 C 454.19 131.67 454.19 126.71 454.27 121.89 C 454.30 114.74 459.98 108.34 457.96 101.07 C 456.06 97.46 450.42 98.09 448.65 101.58 C 443.32 110.28 444.56 121.00 444.63 130.74 C 443.93 132.80 441.74 130.73 441.40 129.54 C 438.91 124.01 439.79 117.72 438.16 111.99 C 436.54 107.91 431.49 108.65 427.98 108.84 C 418.69 109.84 409.35 110.00 400.03 110.46 C 395.71 111.15 395.54 105.89 395.75 102.93 C 396.21 99.82 399.79 99.01 402.28 98.12 C 408.39 96.58 414.67 95.66 420.95 95.22 C 425.34 94.71 428.92 97.68 432.70 99.37 C 432.62 92.82 433.45 86.12 436.57 80.27 C 434.04 82.43 431.47 84.54 428.92 86.69 C 427.76 82.11 428.35 77.34 430.06 72.97 C 425.58 76.79 421.17 80.83 418.02 85.85 C 416.99 80.67 415.86 74.16 410.31 71.93 M 478.58 159.65 C 481.79 162.68 485.44 165.34 488.00 168.99 C 489.85 171.58 489.47 175.13 487.80 177.70 C 484.17 183.60 480.83 189.87 475.51 194.46 C 467.09 201.76 458.65 209.03 450.00 216.04 C 443.66 221.30 436.88 226.33 432.23 233.24 C 430.25 236.08 429.28 239.48 427.34 242.33 C 426.25 243.87 423.73 243.75 422.69 242.23 C 420.85 239.62 420.39 236.36 419.39 233.39 C 416.56 223.64 410.76 215.16 405.20 206.80 C 402.97 203.64 403.31 199.62 403.97 196.03 C 405.09 189.73 406.16 183.41 406.73 177.03 C 398.58 176.77 390.84 172.93 385.38 166.94 C 372.40 175.12 358.80 182.84 348.33 194.29 C 345.03 198.16 339.78 201.41 339.46 206.95 C 340.22 217.65 345.98 227.02 348.89 237.17 C 354.57 250.89 359.87 264.78 364.01 279.05 C 367.43 292.11 369.33 305.54 369.76 319.03 C 372.46 339.29 378.13 359.03 384.35 378.45 C 388.86 389.87 392.81 401.57 398.62 412.44 C 399.49 414.21 400.60 416.04 400.34 418.11 C 398.38 420.04 395.98 417.79 394.83 416.12 C 391.77 411.54 389.54 406.47 387.11 401.55 C 385.28 405.92 382.99 410.09 381.35 414.54 C 379.49 421.42 382.38 428.26 384.18 434.82 C 393.07 427.54 405.12 427.74 415.96 426.95 C 423.47 426.32 431.15 429.10 438.49 426.62 C 446.99 423.98 452.58 416.64 459.08 411.05 C 473.79 396.70 489.08 382.93 504.93 369.84 C 509.27 366.53 508.23 360.34 509.59 355.61 C 505.14 355.66 500.62 357.05 496.23 356.19 C 494.23 352.17 494.25 347.53 492.77 343.34 C 490.59 336.89 489.02 330.19 485.89 324.10 C 482.29 317.07 477.86 310.35 471.94 305.05 C 465.30 299.04 459.88 291.80 452.91 286.16 C 449.65 283.10 445.42 281.08 442.85 277.35 C 444.75 277.43 446.71 277.66 448.42 278.61 C 459.10 284.10 466.63 293.71 475.49 301.53 C 483.35 308.56 489.25 317.70 492.76 327.63 C 492.94 318.42 494.28 309.26 494.15 300.04 C 494.00 291.58 489.66 284.12 486.42 276.55 C 482.03 267.26 479.95 256.51 482.53 246.42 C 483.88 241.22 485.35 236.05 486.99 230.93 C 488.12 227.76 488.97 224.06 492.11 222.23 C 492.14 224.06 492.21 225.93 491.78 227.73 C 489.44 237.32 486.40 246.98 486.63 256.96 C 487.12 269.17 494.92 279.19 498.51 290.52 C 500.20 282.87 503.09 275.57 504.96 267.97 C 506.21 263.85 506.64 259.37 509.18 255.76 C 510.00 257.05 511.05 258.38 510.64 260.03 C 509.05 274.79 503.55 288.73 500.41 303.16 C 498.77 319.41 497.64 335.80 499.15 352.11 C 510.11 349.04 521.72 349.84 532.85 351.49 C 548.48 354.22 563.94 359.58 576.96 368.80 C 577.88 362.92 578.59 356.99 578.49 351.03 C 578.13 332.69 575.25 314.52 571.69 296.55 C 568.05 277.63 567.18 258.29 563.32 239.41 C 560.56 228.62 555.68 218.51 549.86 209.06 C 542.90 197.17 534.25 186.05 523.03 177.90 C 509.90 168.41 494.21 163.24 478.58 159.65 M 325.99 226.08 C 325.10 229.94 326.27 234.07 324.87 237.86 C 323.48 241.84 319.86 244.45 318.04 248.18 C 317.07 250.96 317.38 254.05 318.27 256.82 C 323.67 270.36 330.63 283.24 338.71 295.37 C 340.73 298.21 342.62 301.71 346.18 302.80 C 351.91 301.85 357.31 299.40 362.84 297.63 C 360.28 288.25 359.41 278.51 356.79 269.16 C 353.60 261.95 351.55 254.28 347.77 247.33 C 344.07 240.44 342.41 232.75 339.39 225.58 C 337.53 221.18 336.19 216.59 335.12 211.95 C 332.18 216.72 327.52 220.51 325.99 226.08 M 286.88 269.87 C 282.64 273.27 278.94 277.27 274.76 280.74 C 263.65 289.99 251.24 297.50 238.63 304.51 C 231.70 308.02 223.96 309.56 217.07 313.19 C 202.25 321.05 188.39 330.70 175.87 341.88 C 173.79 343.80 171.81 345.90 170.52 348.45 C 166.55 356.41 164.20 365.03 161.10 373.35 C 163.28 373.27 165.29 372.18 166.12 370.11 C 168.99 363.75 170.12 356.67 173.59 350.55 C 176.17 346.54 180.98 345.13 185.15 343.40 C 192.30 340.59 199.10 336.96 206.22 334.09 C 208.34 333.04 211.88 333.06 212.43 335.95 C 212.75 339.27 210.19 341.88 208.01 344.04 C 203.33 348.39 198.60 352.84 195.31 358.40 C 200.29 355.72 204.82 352.27 209.95 349.85 C 216.64 346.58 223.91 343.62 228.62 337.54 C 232.56 333.42 233.74 326.60 239.64 324.58 C 249.10 321.27 259.14 320.00 268.82 317.50 C 290.64 312.61 312.41 307.12 333.19 298.80 C 324.37 285.32 316.32 271.14 311.17 255.83 C 302.60 259.59 294.18 263.94 286.88 269.87 M 187.23 349.14 C 188.31 351.74 189.22 354.40 190.01 357.11 C 192.50 351.61 196.84 347.33 201.02 343.09 C 196.46 345.21 191.90 347.29 187.23 349.14 M 175.62 359.57 C 181.02 366.68 184.46 374.95 186.97 383.46 C 187.86 372.36 185.92 361.20 182.50 350.65 C 178.43 351.91 176.76 355.82 175.62 359.57 M 513.95 355.48 C 513.73 359.70 513.26 363.96 512.06 368.03 C 510.93 371.58 507.65 373.73 505.02 376.10 C 487.52 390.83 471.13 406.79 454.35 422.30 C 450.02 426.29 445.16 429.91 439.46 431.61 C 431.87 434.25 423.83 431.87 416.04 432.37 C 408.35 432.78 400.38 432.40 393.07 435.18 C 388.51 436.85 385.06 440.44 381.90 443.98 C 376.03 450.90 371.01 458.47 366.06 466.06 C 366.81 466.20 368.31 466.48 369.07 466.62 C 377.38 459.94 381.49 449.35 389.96 442.85 C 391.55 442.10 393.93 439.65 395.22 442.00 C 393.88 447.31 389.28 450.86 386.31 455.24 C 387.86 459.29 390.42 462.91 391.55 467.12 C 392.79 471.54 392.66 476.17 392.98 480.71 C 393.80 479.62 394.91 478.66 395.18 477.26 C 396.77 470.60 395.01 463.77 395.45 457.04 C 396.38 452.54 399.31 448.72 402.46 445.50 C 403.38 444.29 404.88 444.03 406.31 443.95 C 405.69 449.20 401.39 452.97 400.05 457.95 C 399.79 463.27 400.92 468.60 400.32 473.92 C 400.03 476.81 398.83 479.59 399.12 482.55 C 405.65 473.85 405.38 462.03 410.85 452.79 C 411.60 451.38 413.53 451.27 414.70 452.21 C 414.90 456.25 412.32 459.77 411.46 463.63 C 409.52 470.81 406.91 477.76 403.57 484.40 C 407.18 481.78 410.62 478.66 412.56 474.56 C 415.15 469.13 417.33 463.06 422.11 459.13 C 428.51 455.81 435.92 455.32 443.00 455.45 C 454.14 454.49 464.95 450.46 474.31 444.40 C 480.14 440.98 485.51 436.84 491.36 433.45 C 499.52 428.35 508.45 424.65 516.72 419.74 C 530.75 411.58 545.51 403.75 556.22 391.21 C 558.52 388.27 562.47 385.33 561.30 381.11 C 560.30 376.09 560.32 370.97 560.63 365.89 C 545.98 359.38 530.02 355.54 513.95 355.48 M 200.72 361.62 C 201.75 367.83 201.31 374.16 200.55 380.38 C 201.36 380.23 202.98 379.91 203.79 379.75 C 205.21 373.09 204.53 366.18 204.27 359.43 C 203.08 360.15 201.90 360.88 200.72 361.62 M 191.50 363.18 C 193.06 369.64 192.88 376.29 193.02 382.88 C 194.01 381.82 195.00 380.68 195.01 379.14 C 195.79 374.20 195.63 369.19 195.41 364.22 C 194.43 363.96 192.48 363.44 191.50 363.18 M 564.64 367.85 C 564.98 372.59 565.81 377.27 566.67 381.94 C 567.56 386.76 563.97 390.66 561.14 394.08 C 549.97 407.45 534.60 416.17 519.70 424.73 C 511.45 429.64 502.53 433.30 494.28 438.21 C 485.38 443.26 477.24 449.60 468.04 454.12 C 459.97 458.09 450.97 459.79 442.03 460.13 C 436.24 460.13 430.38 461.02 424.97 463.08 C 421.34 466.34 419.46 471.00 417.34 475.29 C 414.81 480.80 410.30 485.38 404.95 488.17 C 403.04 489.26 401.42 487.65 400.51 486.13 C 398.76 486.02 397.33 485.14 396.16 483.89 C 394.16 484.54 391.76 485.55 389.90 484.02 C 387.39 481.77 388.44 477.98 388.02 475.01 C 388.05 469.32 385.71 464.07 383.48 458.97 C 379.41 464.09 375.36 471.36 367.95 471.41 C 367.92 476.06 367.03 480.70 364.72 484.78 C 361.28 491.20 358.56 498.10 358.11 505.45 C 367.09 504.27 376.16 504.91 385.07 506.25 C 393.43 506.76 401.95 507.02 410.18 505.17 C 425.85 502.46 440.95 497.22 456.62 494.47 C 470.89 491.33 485.96 490.80 499.32 484.34 C 514.98 476.83 531.35 470.99 547.37 464.33 C 552.70 462.28 557.41 458.90 562.85 457.15 C 562.63 457.79 562.18 459.06 561.96 459.70 C 556.92 464.08 550.64 466.73 544.75 469.76 C 530.59 476.07 515.97 481.29 501.97 487.96 C 492.22 492.66 481.50 494.75 470.88 496.36 C 453.67 499.06 437.02 504.26 420.15 508.42 C 432.75 510.28 445.26 512.96 458.00 513.71 C 465.07 514.10 471.87 511.87 478.78 510.75 C 488.47 509.48 498.28 510.26 508.00 509.51 C 520.87 508.69 533.74 507.22 546.32 504.29 C 552.29 502.87 557.94 500.21 564.05 499.34 C 565.99 500.19 564.00 502.28 562.85 502.81 C 555.69 506.59 547.84 509.07 539.86 510.39 C 528.00 512.46 516.04 514.06 504.01 514.51 C 494.34 514.86 484.56 514.23 475.01 516.18 C 494.95 518.90 515.00 520.99 535.08 522.26 C 557.81 523.69 580.91 520.53 602.11 512.11 C 606.14 510.61 610.15 509.02 613.74 506.62 C 611.93 493.40 607.10 480.75 601.09 468.91 C 598.46 463.16 593.15 459.30 590.20 453.78 C 584.18 442.77 589.42 429.50 584.88 418.08 C 581.29 410.04 573.93 403.29 573.84 393.99 C 573.83 387.26 574.53 380.55 575.12 373.85 C 571.67 371.77 568.17 369.77 564.64 367.85 M 359.13 509.71 C 359.01 514.71 358.74 520.20 354.94 523.96 C 344.27 535.59 332.72 546.42 322.55 558.51 C 310.31 572.93 299.50 588.80 292.28 606.36 C 303.53 604.58 315.13 604.21 326.28 606.84 C 344.02 610.56 360.91 617.91 376.02 627.87 C 383.83 633.12 392.54 637.58 398.29 645.30 C 402.42 641.74 406.94 638.65 410.92 634.91 C 422.40 624.03 437.38 618.21 451.37 611.37 C 457.96 608.04 464.45 603.62 468.03 596.97 C 468.61 595.18 470.80 594.80 472.26 595.74 C 477.01 598.15 479.96 602.79 483.99 606.11 C 505.33 625.09 520.41 649.61 538.47 671.46 C 545.02 679.61 553.24 686.17 561.47 692.53 C 565.54 695.69 570.65 698.35 575.96 697.25 C 582.19 696.49 587.53 692.82 593.64 691.63 C 601.99 689.85 610.45 688.54 618.98 687.98 C 629.02 687.35 638.92 684.60 647.78 679.81 C 651.57 677.68 655.91 676.09 658.74 672.63 C 661.89 668.11 662.61 662.22 661.43 656.91 C 659.33 647.30 656.10 637.94 651.91 629.05 C 649.03 622.56 646.11 616.02 644.46 609.10 C 643.22 604.06 644.38 598.78 643.21 593.75 C 640.90 587.08 632.45 585.56 630.04 578.98 C 627.42 572.36 625.81 565.39 624.34 558.44 C 622.68 550.90 622.99 542.97 620.18 535.69 C 617.47 528.48 614.84 521.18 610.88 514.54 C 595.76 522.28 578.85 525.80 562.08 527.63 C 538.02 529.70 513.94 526.61 490.05 524.00 C 475.61 522.44 461.41 519.28 447.00 517.56 C 436.92 516.48 427.12 513.77 417.10 512.36 C 412.81 511.82 408.47 510.76 404.14 511.59 C 396.81 512.70 389.33 512.45 382.01 511.40 C 374.44 510.28 366.78 509.90 359.13 509.71 M 290.61 610.66 C 287.50 619.78 285.27 629.35 285.40 639.03 C 285.43 648.70 286.64 658.80 291.84 667.18 C 293.92 670.66 297.26 673.14 299.51 676.49 C 301.39 680.67 302.30 685.22 303.65 689.59 C 310.42 689.99 316.95 687.72 323.11 685.16 C 335.87 679.50 348.14 671.64 356.64 660.38 C 353.39 654.39 354.61 646.26 359.98 641.91 C 364.22 638.66 368.63 635.62 373.26 632.93 C 357.85 623.02 340.83 615.42 322.85 611.67 C 312.26 609.37 301.34 610.19 290.61 610.66 M 369.66 642.63 C 376.75 646.87 385.13 649.25 393.41 647.98 C 389.21 643.20 383.82 639.72 378.45 636.42 C 375.64 638.65 372.65 640.65 369.66 642.63 M 341.26 682.26 C 330.52 689.13 318.18 695.07 305.10 694.26 C 308.60 703.77 311.69 713.48 316.62 722.38 C 324.18 736.06 332.18 749.67 342.52 761.46 C 346.92 766.74 351.89 771.51 356.09 776.97 C 363.85 786.48 370.01 797.15 376.51 807.54 C 380.08 813.14 383.11 819.05 385.89 825.08 C 387.12 827.99 389.56 830.09 392.09 831.87 C 395.40 831.49 398.89 831.43 401.98 832.89 C 407.55 835.04 411.15 840.04 415.89 843.43 C 422.60 840.23 427.36 834.09 430.77 827.67 C 433.80 821.80 432.13 814.67 428.65 809.39 C 423.54 801.47 417.79 793.94 413.64 785.44 C 406.02 771.46 403.65 755.51 398.09 740.74 C 390.56 721.93 382.22 703.40 372.36 685.69 C 368.47 678.61 363.62 672.12 359.74 665.03 C 354.91 672.05 348.31 677.60 341.26 682.26 M 658.43 680.37 C 647.71 687.15 635.77 692.36 623.05 693.70 C 611.63 694.63 600.08 695.90 589.15 699.53 C 595.55 710.23 604.13 719.33 612.04 728.89 C 618.21 736.36 624.37 743.97 631.87 750.17 C 637.15 754.54 643.73 756.82 649.34 760.70 C 652.21 762.60 654.07 765.57 655.89 768.42 C 670.15 765.90 684.90 760.95 694.96 750.02 C 698.99 745.82 701.23 740.00 700.36 734.16 C 696.00 729.95 691.56 725.81 687.29 721.50 C 689.33 729.20 690.25 737.47 688.07 745.23 C 687.86 746.86 685.69 748.39 684.76 746.39 C 683.16 738.48 683.67 730.24 681.35 722.47 C 677.18 706.45 669.03 691.92 662.83 676.67 C 661.41 677.96 660.01 679.28 658.43 680.37 M 696.51 757.53 C 685.74 766.69 671.63 771.49 657.61 772.26 C 663.58 787.96 668.95 804.01 677.31 818.66 C 683.54 830.52 689.82 842.41 698.11 853.00 C 705.37 862.08 711.73 871.86 719.25 880.73 C 723.60 885.76 724.35 892.58 725.42 898.88 C 731.72 896.45 738.19 893.95 745.01 893.66 C 749.00 893.48 752.88 894.91 756.86 894.79 C 758.75 894.58 759.57 892.57 759.97 890.97 C 760.67 887.37 760.13 883.66 759.59 880.08 C 758.85 874.97 754.01 871.52 753.79 866.23 C 752.39 854.40 750.78 842.58 748.57 830.87 C 745.44 816.15 740.92 801.78 736.51 787.42 C 733.64 777.92 728.78 769.14 722.72 761.31 C 717.49 754.31 712.38 747.20 706.68 740.56 C 705.45 747.23 701.65 753.17 696.51 757.53 M 431.57 804.49 C 434.90 810.05 437.77 816.32 437.36 822.95 C 436.20 830.72 431.30 837.39 425.85 842.80 C 422.60 845.73 418.20 849.16 413.57 847.48 C 408.93 844.98 405.97 840.22 401.24 837.83 C 398.31 835.99 394.80 835.80 391.44 835.87 C 394.01 846.44 396.90 856.93 400.96 867.03 C 406.08 882.45 416.69 895.17 423.02 910.02 C 425.55 915.50 427.88 921.07 430.36 926.57 C 432.05 930.23 434.22 934.28 438.27 935.70 C 440.05 936.32 441.67 935.04 443.02 934.05 C 447.23 930.56 450.50 926.12 453.72 921.75 C 459.41 914.10 460.69 903.76 458.31 894.67 C 456.09 886.21 452.62 877.90 452.71 869.01 C 452.15 856.03 458.67 843.93 457.91 830.94 C 457.58 823.06 454.67 814.79 448.47 809.63 C 443.78 805.64 437.38 805.27 431.57 804.49 M 763.25 898.30 C 759.86 902.09 754.38 901.51 749.92 900.52 C 741.44 898.70 733.55 903.02 725.55 904.99 C 727.52 913.66 730.97 922.03 731.56 930.99 C 732.53 943.81 730.54 957.56 736.60 969.43 C 738.95 974.64 744.78 976.78 750.05 977.66 C 758.63 978.92 767.21 976.84 775.69 975.68 C 780.68 974.71 785.81 974.28 790.67 972.74 C 795.20 971.10 796.27 965.35 795.47 961.14 C 793.42 951.66 788.49 943.18 784.74 934.32 C 781.10 926.11 779.27 917.27 776.41 908.79 C 773.08 899.13 771.12 888.95 766.25 879.88 C 766.78 886.05 767.69 893.26 763.25 898.30 Z" />
		<path fill="#020202" opacity="1.00"
			d=" M 383.89 132.06 C 387.26 132.29 388.75 136.19 391.20 138.12 C 392.79 138.29 394.38 138.48 395.96 138.76 C 395.18 140.55 395.43 143.64 393.02 144.09 C 390.14 143.85 387.01 143.13 384.86 141.08 C 383.65 138.28 383.45 135.06 383.89 132.06 Z" />
		<path fill="#020202" opacity="1.00"
			d=" M 388.97 155.25 C 395.58 154.07 402.32 153.91 409.01 153.46 C 411.68 153.41 414.42 152.96 417.04 153.66 C 419.07 155.75 415.91 157.03 414.20 157.41 C 412.45 160.75 408.25 160.29 405.07 160.89 C 400.52 161.12 394.98 162.84 391.47 158.94 C 389.88 158.78 388.26 158.69 386.71 158.29 C 385.67 156.43 387.35 155.32 388.97 155.25 Z" />
	</g>
	<g id="#f0b58bff">
		<path fill="#f0b58b" opacity="1.00"
			d=" M 410.31 71.93 C 415.86 74.16 416.99 80.67 418.02 85.85 C 421.17 80.83 425.58 76.79 430.06 72.97 C 428.35 77.34 427.76 82.11 428.92 86.69 C 431.47 84.54 434.04 82.43 436.57 80.27 C 433.45 86.12 432.62 92.82 432.70 99.37 C 428.92 97.68 425.34 94.71 420.95 95.22 C 414.67 95.66 408.39 96.58 402.28 98.12 C 399.79 99.01 396.21 99.82 395.75 102.93 C 395.54 105.89 395.71 111.15 400.03 110.46 C 409.35 110.00 418.69 109.84 427.98 108.84 C 431.49 108.65 436.54 107.91 438.16 111.99 C 439.79 117.72 438.91 124.01 441.40 129.54 C 441.74 130.73 443.93 132.80 444.63 130.74 C 444.56 121.00 443.32 110.28 448.65 101.58 C 450.42 98.09 456.06 97.46 457.96 101.07 C 459.98 108.34 454.30 114.74 454.27 121.89 C 454.19 126.71 454.19 131.67 455.90 136.25 C 460.35 148.56 468.91 158.85 478.42 167.63 C 480.03 169.34 482.11 170.82 482.98 173.07 C 479.71 180.18 475.38 187.11 469.05 191.93 C 460.47 199.01 452.12 206.36 443.46 213.34 C 436.74 219.06 429.81 224.95 425.72 232.94 C 423.35 221.94 417.17 212.30 410.34 203.55 C 408.44 201.43 409.16 198.43 409.38 195.88 C 410.27 189.58 410.76 183.21 410.27 176.85 C 419.51 175.02 428.78 170.79 434.16 162.73 C 434.31 162.05 434.61 160.71 434.76 160.03 C 429.92 161.11 426.93 165.55 422.47 167.45 C 416.11 170.11 409.01 172.80 402.08 170.71 C 394.16 168.80 388.22 162.43 384.50 155.47 C 378.51 143.72 377.58 130.36 374.80 117.68 C 377.36 117.26 379.93 116.85 382.51 116.55 C 383.15 120.77 381.69 125.65 383.90 129.42 L 385.05 129.41 C 387.24 126.88 386.50 123.09 386.61 119.99 C 386.11 115.03 386.84 109.77 384.93 105.06 C 382.20 100.73 376.36 100.93 371.88 100.19 C 371.27 96.14 370.89 92.06 370.74 87.98 C 374.47 84.22 377.41 79.79 380.06 75.23 C 380.53 80.69 379.71 86.11 379.07 91.51 C 386.93 86.99 392.52 79.76 397.89 72.65 C 399.93 77.35 400.66 82.49 400.97 87.57 C 405.20 83.13 408.27 77.70 410.31 71.93 M 383.89 132.06 C 383.45 135.06 383.65 138.28 384.86 141.08 C 387.01 143.13 390.14 143.85 393.02 144.09 C 395.43 143.64 395.18 140.55 395.96 138.76 C 394.38 138.48 392.79 138.29 391.20 138.12 C 388.75 136.19 387.26 132.29 383.89 132.06 M 388.97 155.25 C 387.35 155.32 385.67 156.43 386.71 158.29 C 388.26 158.69 389.88 158.78 391.47 158.94 C 394.98 162.84 400.52 161.12 405.07 160.89 C 408.25 160.29 412.45 160.75 414.20 157.41 C 415.91 157.03 419.07 155.75 417.04 153.66 C 414.42 152.96 411.68 153.41 409.01 153.46 C 402.32 153.91 395.58 154.07 388.97 155.25 Z" />
		<path fill="#f0b58b" opacity="1.00"
			d=" M 286.88 269.87 C 294.18 263.94 302.60 259.59 311.17 255.83 C 316.32 271.14 324.37 285.32 333.19 298.80 C 312.41 307.12 290.64 312.61 268.82 317.50 C 259.14 320.00 249.10 321.27 239.64 324.58 C 233.74 326.60 232.56 333.42 228.62 337.54 C 223.91 343.62 216.64 346.58 209.95 349.85 C 204.82 352.27 200.29 355.72 195.31 358.40 C 198.60 352.84 203.33 348.39 208.01 344.04 C 210.19 341.88 212.75 339.27 212.43 335.95 C 211.88 333.06 208.34 333.04 206.22 334.09 C 199.10 336.96 192.30 340.59 185.15 343.40 C 180.98 345.13 176.17 346.54 173.59 350.55 C 170.12 356.67 168.99 363.75 166.12 370.11 C 165.29 372.18 163.28 373.27 161.10 373.35 C 164.20 365.03 166.55 356.41 170.52 348.45 C 171.81 345.90 173.79 343.80 175.87 341.88 C 188.39 330.70 202.25 321.05 217.07 313.19 C 223.96 309.56 231.70 308.02 238.63 304.51 C 251.24 297.50 263.65 289.99 274.76 280.74 C 278.94 277.27 282.64 273.27 286.88 269.87 Z" />
		<path fill="#f0b58b" opacity="1.00"
			d=" M 187.23 349.14 C 191.90 347.29 196.46 345.21 201.02 343.09 C 196.84 347.33 192.50 351.61 190.01 357.11 C 189.22 354.40 188.31 351.74 187.23 349.14 Z" />
		<path fill="#f0b58b" opacity="1.00"
			d=" M 175.62 359.57 C 176.76 355.82 178.43 351.91 182.50 350.65 C 185.92 361.20 187.86 372.36 186.97 383.46 C 184.46 374.95 181.02 366.68 175.62 359.57 Z" />
		<path fill="#f0b58b" opacity="1.00"
			d=" M 513.95 355.48 C 530.02 355.54 545.98 359.38 560.63 365.89 C 560.32 370.97 560.30 376.09 561.30 381.11 C 562.47 385.33 558.52 388.27 556.22 391.21 C 545.51 403.75 530.75 411.58 516.72 419.74 C 508.45 424.65 499.52 428.35 491.36 433.45 C 485.51 436.84 480.14 440.98 474.31 444.40 C 464.95 450.46 454.14 454.49 443.00 455.45 C 435.92 455.32 428.51 455.81 422.11 459.13 C 417.33 463.06 415.15 469.13 412.56 474.56 C 410.62 478.66 407.18 481.78 403.57 484.40 C 406.91 477.76 409.52 470.81 411.46 463.63 C 412.32 459.77 414.90 456.25 414.70 452.21 C 413.53 451.27 411.60 451.38 410.85 452.79 C 405.38 462.03 405.65 473.85 399.12 482.55 C 398.83 479.59 400.03 476.81 400.32 473.92 C 400.92 468.60 399.79 463.27 400.05 457.95 C 401.39 452.97 405.69 449.20 406.31 443.95 C 404.88 444.03 403.38 444.29 402.46 445.50 C 399.31 448.72 396.38 452.54 395.45 457.04 C 395.01 463.77 396.77 470.60 395.18 477.26 C 394.91 478.66 393.80 479.62 392.98 480.71 C 392.66 476.17 392.79 471.54 391.55 467.12 C 390.42 462.91 387.86 459.29 386.31 455.24 C 389.28 450.86 393.88 447.31 395.22 442.00 C 393.93 439.65 391.55 442.10 389.96 442.85 C 381.49 449.35 377.38 459.94 369.07 466.62 C 368.31 466.48 366.81 466.20 366.06 466.06 C 371.01 458.47 376.03 450.90 381.90 443.98 C 385.06 440.44 388.51 436.85 393.07 435.18 C 400.38 432.40 408.35 432.78 416.04 432.37 C 423.83 431.87 431.87 434.25 439.46 431.61 C 445.16 429.91 450.02 426.29 454.35 422.30 C 471.13 406.79 487.52 390.83 505.02 376.10 C 507.65 373.73 510.93 371.58 512.06 368.03 C 513.26 363.96 513.73 359.70 513.95 355.48 Z" />
		<path fill="#f0b58b" opacity="1.00"
			d=" M 200.72 361.62 C 201.90 360.88 203.08 360.15 204.27 359.43 C 204.53 366.18 205.21 373.09 203.79 379.75 C 202.98 379.91 201.36 380.23 200.55 380.38 C 201.31 374.16 201.75 367.83 200.72 361.62 Z" />
		<path fill="#f0b58b" opacity="1.00"
			d=" M 290.61 610.66 C 301.34 610.19 312.26 609.37 322.85 611.67 C 340.83 615.42 357.85 623.02 373.26 632.93 C 368.63 635.62 364.22 638.66 359.98 641.91 C 354.61 646.26 353.39 654.39 356.64 660.38 C 348.14 671.64 335.87 679.50 323.11 685.16 C 316.95 687.72 310.42 689.99 303.65 689.59 C 302.30 685.22 301.39 680.67 299.51 676.49 C 297.26 673.14 293.92 670.66 291.84 667.18 C 286.64 658.80 285.43 648.70 285.40 639.03 C 285.27 629.35 287.50 619.78 290.61 610.66 Z" />
		<path fill="#f0b58b" opacity="1.00"
			d=" M 658.43 680.37 C 660.01 679.28 661.41 677.96 662.83 676.67 C 669.03 691.92 677.18 706.45 681.35 722.47 C 683.67 730.24 683.16 738.48 684.76 746.39 C 685.69 748.39 687.86 746.86 688.07 745.23 C 690.25 737.47 689.33 729.20 687.29 721.50 C 691.56 725.81 696.00 729.95 700.36 734.16 C 701.23 740.00 698.99 745.82 694.96 750.02 C 684.90 760.95 670.15 765.90 655.89 768.42 C 654.07 765.57 652.21 762.60 649.34 760.70 C 643.73 756.82 637.15 754.54 631.87 750.17 C 624.37 743.97 618.21 736.36 612.04 728.89 C 604.13 719.33 595.55 710.23 589.15 699.53 C 600.08 695.90 611.63 694.63 623.05 693.70 C 635.77 692.36 647.71 687.15 658.43 680.37 Z" />
	</g>
	<g id="#f11b27ff">
		<path fill="var(--shirt-color, grey)" opacity="1.00"
			d=" M 478.58 159.65 C 494.21 163.24 509.90 168.41 523.03 177.90 C 534.25 186.05 542.90 197.17 549.86 209.06 C 555.68 218.51 560.56 228.62 563.32 239.41 C 567.18 258.29 568.05 277.63 571.69 296.55 C 575.25 314.52 578.13 332.69 578.49 351.03 C 578.59 356.99 577.88 362.92 576.96 368.80 C 563.94 359.58 548.48 354.22 532.85 351.49 C 521.72 349.84 510.11 349.04 499.15 352.11 C 497.64 335.80 498.77 319.41 500.41 303.16 C 503.55 288.73 509.05 274.79 510.64 260.03 C 511.05 258.38 510.00 257.05 509.18 255.76 C 506.64 259.37 506.21 263.85 504.96 267.97 C 503.09 275.57 500.20 282.87 498.51 290.52 C 494.92 279.19 487.12 269.17 486.63 256.96 C 486.40 246.98 489.44 237.32 491.78 227.73 C 492.21 225.93 492.14 224.06 492.11 222.23 C 488.97 224.06 488.12 227.76 486.99 230.93 C 485.35 236.05 483.88 241.22 482.53 246.42 C 479.95 256.51 482.03 267.26 486.42 276.55 C 489.66 284.12 494.00 291.58 494.15 300.04 C 494.28 309.26 492.94 318.42 492.76 327.63 C 489.25 317.70 483.35 308.56 475.49 301.53 C 466.63 293.71 459.10 284.10 448.42 278.61 C 446.71 277.66 444.75 277.43 442.85 277.35 C 445.42 281.08 449.65 283.10 452.91 286.16 C 459.88 291.80 465.30 299.04 471.94 305.05 C 477.86 310.35 482.29 317.07 485.89 324.10 C 489.02 330.19 490.59 336.89 492.77 343.34 C 494.25 347.53 494.23 352.17 496.23 356.19 C 500.62 357.05 505.14 355.66 509.59 355.61 C 508.23 360.34 509.27 366.53 504.93 369.84 C 489.08 382.93 473.79 396.70 459.08 411.05 C 452.58 416.64 446.99 423.98 438.49 426.62 C 431.15 429.10 423.47 426.32 415.96 426.95 C 405.12 427.74 393.07 427.54 384.18 434.82 C 382.38 428.26 379.49 421.42 381.35 414.54 C 382.99 410.09 385.28 405.92 387.11 401.55 C 389.54 406.47 391.77 411.54 394.83 416.12 C 395.98 417.79 398.38 420.04 400.34 418.11 C 400.60 416.04 399.49 414.21 398.62 412.44 C 392.81 401.57 388.86 389.87 384.35 378.45 C 378.13 359.03 372.46 339.29 369.76 319.03 C 369.33 305.54 367.43 292.11 364.01 279.05 C 359.87 264.78 354.57 250.89 348.89 237.17 C 345.98 227.02 340.22 217.65 339.46 206.95 C 339.78 201.41 345.03 198.16 348.33 194.29 C 358.80 182.84 372.40 175.12 385.38 166.94 C 390.84 172.93 398.58 176.77 406.73 177.03 C 406.16 183.41 405.09 189.73 403.97 196.03 C 403.31 199.62 402.97 203.64 405.20 206.80 C 410.76 215.16 416.56 223.64 419.39 233.39 C 420.39 236.36 420.85 239.62 422.69 242.23 C 423.73 243.75 426.25 243.87 427.34 242.33 C 429.28 239.48 430.25 236.08 432.23 233.24 C 436.88 226.33 443.66 221.30 450.00 216.04 C 458.65 209.03 467.09 201.76 475.51 194.46 C 480.83 189.87 484.17 183.60 487.80 177.70 C 489.47 175.13 489.85 171.58 488.00 168.99 C 485.44 165.34 481.79 162.68 478.58 159.65 Z" />
		<path fill="var(--shirt-color, grey)" opacity="1.00"
			d=" M 325.99 226.08 C 327.52 220.51 332.18 216.72 335.12 211.95 C 336.19 216.59 337.53 221.18 339.39 225.58 C 342.41 232.75 344.07 240.44 347.77 247.33 C 351.55 254.28 353.60 261.95 356.79 269.16 C 359.41 278.51 360.28 288.25 362.84 297.63 C 357.31 299.40 351.91 301.85 346.18 302.80 C 342.62 301.71 340.73 298.21 338.71 295.37 C 330.63 283.24 323.67 270.36 318.27 256.82 C 317.38 254.05 317.07 250.96 318.04 248.18 C 319.86 244.45 323.48 241.84 324.87 237.86 C 326.27 234.07 325.10 229.94 325.99 226.08 Z" />
		<path fill="var(--shirt-color, grey)" opacity="1.00"
			d=" M 564.64 367.85 C 568.17 369.77 571.67 371.77 575.12 373.85 C 574.53 380.55 573.83 387.26 573.84 393.99 C 573.93 403.29 581.29 410.04 584.88 418.08 C 589.42 429.50 584.18 442.77 590.20 453.78 C 593.15 459.30 598.46 463.16 601.09 468.91 C 607.10 480.75 611.93 493.40 613.74 506.62 C 610.15 509.02 606.14 510.61 602.11 512.11 C 580.91 520.53 557.81 523.69 535.08 522.26 C 515.00 520.99 494.95 518.90 475.01 516.18 C 484.56 514.23 494.34 514.86 504.01 514.51 C 516.04 514.06 528.00 512.46 539.86 510.39 C 547.84 509.07 555.69 506.59 562.85 502.81 C 564.00 502.28 565.99 500.19 564.05 499.34 C 557.94 500.21 552.29 502.87 546.32 504.29 C 533.74 507.22 520.87 508.69 508.00 509.51 C 498.28 510.26 488.47 509.48 478.78 510.75 C 471.87 511.87 465.07 514.10 458.00 513.71 C 445.26 512.96 432.75 510.28 420.15 508.42 C 437.02 504.26 453.67 499.06 470.88 496.36 C 481.50 494.75 492.22 492.66 501.97 487.96 C 515.97 481.29 530.59 476.07 544.75 469.76 C 550.64 466.73 556.92 464.08 561.96 459.70 C 562.18 459.06 562.63 457.79 562.85 457.15 C 557.41 458.90 552.70 462.28 547.37 464.33 C 531.35 470.99 514.98 476.83 499.32 484.34 C 485.96 490.80 470.89 491.33 456.62 494.47 C 440.95 497.22 425.85 502.46 410.18 505.17 C 401.95 507.02 393.43 506.76 385.07 506.25 C 376.16 504.91 367.09 504.27 358.11 505.45 C 358.56 498.10 361.28 491.20 364.72 484.78 C 367.03 480.70 367.92 476.06 367.95 471.41 C 375.36 471.36 379.41 464.09 383.48 458.97 C 385.71 464.07 388.05 469.32 388.02 475.01 C 388.44 477.98 387.39 481.77 389.90 484.02 C 391.76 485.55 394.16 484.54 396.16 483.89 C 397.33 485.14 398.76 486.02 400.51 486.13 C 401.42 487.65 403.04 489.26 404.95 488.17 C 410.30 485.38 414.81 480.80 417.34 475.29 C 419.46 471.00 421.34 466.34 424.97 463.08 C 430.38 461.02 436.24 460.13 442.03 460.13 C 450.97 459.79 459.97 458.09 468.04 454.12 C 477.24 449.60 485.38 443.26 494.28 438.21 C 502.53 433.30 511.45 429.64 519.70 424.73 C 534.60 416.17 549.97 407.45 561.14 394.08 C 563.97 390.66 567.56 386.76 566.67 381.94 C 565.81 377.27 564.98 372.59 564.64 367.85 Z" />
	</g>
	<g id="#e6ae85ff">
		<path fill="#e6ae85" opacity="1.00"
			d=" M 191.50 363.18 C 192.48 363.44 194.43 363.96 195.41 364.22 C 195.63 369.19 195.79 374.20 195.01 379.14 C 195.00 380.68 194.01 381.82 193.02 382.88 C 192.88 376.29 193.06 369.64 191.50 363.18 Z" />
	</g>
	<g id="#2b3dcdff">
		<path fill="var(--pants-color, grey)" opacity="1.00"
			d=" M 359.13 509.71 C 366.78 509.90 374.44 510.28 382.01 511.40 C 389.33 512.45 396.81 512.70 404.14 511.59 C 408.47 510.76 412.81 511.82 417.10 512.36 C 427.12 513.77 436.92 516.48 447.00 517.56 C 461.41 519.28 475.61 522.44 490.05 524.00 C 513.94 526.61 538.02 529.70 562.08 527.63 C 578.85 525.80 595.76 522.28 610.88 514.54 C 614.84 521.18 617.47 528.48 620.18 535.69 C 622.99 542.97 622.68 550.90 624.34 558.44 C 625.81 565.39 627.42 572.36 630.04 578.98 C 632.45 585.56 640.90 587.08 643.21 593.75 C 644.38 598.78 643.22 604.06 644.46 609.10 C 646.11 616.02 649.03 622.56 651.91 629.05 C 656.10 637.94 659.33 647.30 661.43 656.91 C 662.61 662.22 661.89 668.11 658.74 672.63 C 655.91 676.09 651.57 677.68 647.78 679.81 C 638.92 684.60 629.02 687.35 618.98 687.98 C 610.45 688.54 601.99 689.85 593.64 691.63 C 587.53 692.82 582.19 696.49 575.96 697.25 C 570.65 698.35 565.54 695.69 561.47 692.53 C 553.24 686.17 545.02 679.61 538.47 671.46 C 520.41 649.61 505.33 625.09 483.99 606.11 C 479.96 602.79 477.01 598.15 472.26 595.74 C 470.80 594.80 468.61 595.18 468.03 596.97 C 464.45 603.62 457.96 608.04 451.37 611.37 C 437.38 618.21 422.40 624.03 410.92 634.91 C 406.94 638.65 402.42 641.74 398.29 645.30 C 392.54 637.58 383.83 633.12 376.02 627.87 C 360.91 617.91 344.02 610.56 326.28 606.84 C 315.13 604.21 303.53 604.58 292.28 606.36 C 299.50 588.80 310.31 572.93 322.55 558.51 C 332.72 546.42 344.27 535.59 354.94 523.96 C 358.74 520.20 359.01 514.71 359.13 509.71 Z" />
		<path fill="var(--socks-color, grey)" opacity="1.00"
			d=" M 369.66 642.63 C 372.65 640.65 375.64 638.65 378.45 636.42 C 383.82 639.72 389.21 643.20 393.41 647.98 C 385.13 649.25 376.75 646.87 369.66 642.63 Z" />
		<path fill="var(--socks-color, grey)" opacity="1.00"
			d=" M 341.26 682.26 C 348.31 677.60 354.91 672.05 359.74 665.03 C 363.62 672.12 368.47 678.61 372.36 685.69 C 382.22 703.40 390.56 721.93 398.09 740.74 C 403.65 755.51 406.02 771.46 413.64 785.44 C 417.79 793.94 423.54 801.47 428.65 809.39 C 432.13 814.67 433.80 821.80 430.77 827.67 C 427.36 834.09 422.60 840.23 415.89 843.43 C 411.15 840.04 407.55 835.04 401.98 832.89 C 398.89 831.43 395.40 831.49 392.09 831.87 C 389.56 830.09 387.12 827.99 385.89 825.08 C 383.11 819.05 380.08 813.14 376.51 807.54 C 370.01 797.15 363.85 786.48 356.09 776.97 C 351.89 771.51 346.92 766.74 342.52 761.46 C 332.18 749.67 324.18 736.06 316.62 722.38 C 311.69 713.48 308.60 703.77 305.10 694.26 C 318.18 695.07 330.52 689.13 341.26 682.26 Z" />
		<path fill="var(--socks-color, grey)" opacity="1.00"
			d=" M 696.51 757.53 C 701.65 753.17 705.45 747.23 706.68 740.56 C 712.38 747.20 717.49 754.31 722.72 761.31 C 728.78 769.14 733.64 777.92 736.51 787.42 C 740.92 801.78 745.44 816.15 748.57 830.87 C 750.78 842.58 752.39 854.40 753.79 866.23 C 754.01 871.52 758.85 874.97 759.59 880.08 C 760.13 883.66 760.67 887.37 759.97 890.97 C 759.57 892.57 758.75 894.58 756.86 894.79 C 752.88 894.91 749.00 893.48 745.01 893.66 C 738.19 893.95 731.72 896.45 725.42 898.88 C 724.35 892.58 723.60 885.76 719.25 880.73 C 711.73 871.86 705.37 862.08 698.11 853.00 C 689.82 842.41 683.54 830.52 677.31 818.66 C 668.95 804.01 663.58 787.96 657.61 772.26 C 671.63 771.49 685.74 766.69 696.51 757.53 Z" />
	</g>
	<g id="#4d4d4dff">
		<path fill="#4d4d4d" opacity="1.00"
			d=" M 431.57 804.49 C 437.38 805.27 443.78 805.64 448.47 809.63 C 454.67 814.79 457.58 823.06 457.91 830.94 C 458.67 843.93 452.15 856.03 452.71 869.01 C 452.62 877.90 456.09 886.21 458.31 894.67 C 460.69 903.76 459.41 914.10 453.72 921.75 C 450.50 926.12 447.23 930.56 443.02 934.05 C 441.67 935.04 440.05 936.32 438.27 935.70 C 434.22 934.28 432.05 930.23 430.36 926.57 C 427.88 921.07 425.55 915.50 423.02 910.02 C 416.69 895.17 406.08 882.45 400.96 867.03 C 396.90 856.93 394.01 846.44 391.44 835.87 C 394.80 835.80 398.31 835.99 401.24 837.83 C 405.97 840.22 408.93 844.98 413.57 847.48 C 418.20 849.16 422.60 845.73 425.85 842.80 C 431.30 837.39 436.20 830.72 437.36 822.95 C 437.77 816.32 434.90 810.05 431.57 804.49 Z" />
		<path fill="#4d4d4d" opacity="1.00"
			d=" M 763.25 898.30 C 767.69 893.26 766.78 886.05 766.25 879.88 C 771.12 888.95 773.08 899.13 776.41 908.79 C 779.27 917.27 781.10 926.11 784.74 934.32 C 788.49 943.18 793.42 951.66 795.47 961.14 C 796.27 965.35 795.20 971.10 790.67 972.74 C 785.81 974.28 780.68 974.71 775.69 975.68 C 767.21 976.84 758.63 978.92 750.05 977.66 C 744.78 976.78 738.95 974.64 736.60 969.43 C 730.54 957.56 732.53 943.81 731.56 930.99 C 730.97 922.03 727.52 913.66 725.55 904.99 C 733.55 903.02 741.44 898.70 749.92 900.52 C 754.38 901.51 759.86 902.09 763.25 898.30 Z" />
	</g>
</svg>