<?xml version="1.0" encoding="UTF-8" ?>
<!DOCTYPE svg PUBLIC "-//W3C//DTD SVG 1.1//EN" "http://www.w3.org/Graphics/SVG/1.1/DTD/svg11.dtd">
<svg width="1000pt" height="1000pt" viewBox="0 0 1000 1000" version="1.1" xmlns="http://www.w3.org/2000/svg">
	<g id="#020202ff">
		<path fill="#020202" opacity="1.00"
			d=" M 585.27 23.24 C 589.35 19.90 593.53 15.98 598.98 15.25 C 603.71 14.80 608.39 16.03 612.96 17.14 C 618.78 18.67 624.98 19.45 630.15 22.77 C 635.45 26.08 642.02 26.49 647.39 29.63 C 649.86 31.84 647.04 34.82 644.81 35.79 C 638.26 39.77 630.93 34.66 624.02 35.68 C 620.15 36.59 619.18 40.91 618.33 44.23 C 616.41 51.33 615.99 59.29 611.32 65.30 C 607.27 70.05 600.44 69.40 594.85 70.25 C 590.81 70.53 587.19 72.56 583.99 74.90 C 575.64 80.92 567.67 87.46 559.06 93.10 C 545.68 101.12 531.19 107.10 516.54 112.37 C 505.45 116.00 493.93 118.69 482.25 119.38 C 476.68 131.95 464.21 138.93 452.65 145.10 C 450.96 152.36 453.03 160.10 456.16 166.75 C 459.96 176.27 466.43 184.76 468.19 195.04 C 469.53 201.24 469.26 207.66 470.51 213.86 C 472.14 218.09 475.41 221.39 478.07 224.99 C 487.36 237.55 494.96 251.44 499.46 266.45 C 502.84 278.90 506.85 291.44 506.34 304.51 C 519.08 313.95 529.92 325.66 540.24 337.64 C 544.78 343.46 549.78 348.98 553.81 355.19 C 556.00 358.38 555.59 362.36 556.10 366.01 C 562.07 384.13 574.47 399.75 578.23 418.70 C 581.25 432.45 579.08 446.76 575.05 460.06 C 572.56 468.69 569.84 477.25 566.78 485.69 C 562.04 503.10 564.46 521.30 565.35 539.03 C 565.60 545.98 567.01 552.99 565.72 559.91 C 564.80 564.50 561.05 567.67 557.55 570.43 C 556.61 574.73 555.57 579.02 554.12 583.18 C 552.05 589.39 548.74 595.14 547.19 601.53 C 559.59 597.36 572.49 594.94 585.51 593.89 C 601.73 592.76 618.17 591.63 633.78 586.73 C 642.59 584.09 650.71 579.71 659.16 576.18 C 662.32 574.65 665.76 572.89 667.59 569.76 C 670.81 562.16 671.14 552.72 677.96 547.13 C 684.74 542.05 693.52 539.74 701.94 540.54 C 716.13 541.18 728.64 548.57 741.69 553.33 C 760.79 561.12 781.58 563.92 800.32 572.71 C 809.29 577.08 817.58 583.50 822.86 592.07 C 825.23 596.63 827.18 601.80 826.53 607.02 C 826.01 610.29 823.53 613.53 820.06 613.89 C 810.75 615.10 801.91 611.21 793.00 609.21 C 783.48 607.46 773.72 606.97 764.08 607.77 C 755.00 608.52 746.71 612.57 738.12 615.23 C 729.36 618.22 720.30 620.59 711.01 620.87 C 705.96 621.24 700.83 620.21 695.86 621.46 C 685.65 623.93 675.05 624.54 665.04 627.84 C 650.77 632.37 638.23 640.81 625.55 648.55 C 609.65 658.54 593.09 667.58 575.68 674.68 C 586.35 685.05 594.71 697.57 600.83 711.10 C 609.94 731.21 616.60 752.39 621.25 773.95 C 623.85 784.25 625.19 794.84 628.20 805.04 C 631.17 815.22 634.43 825.33 638.33 835.20 C 644.08 838.79 649.46 842.96 654.38 847.63 C 657.89 851.14 662.43 853.67 665.04 858.04 C 670.09 865.99 671.80 875.77 671.04 885.07 C 670.03 894.23 667.21 903.04 665.22 912.00 C 662.19 925.16 665.42 938.79 662.86 952.01 C 660.69 965.89 651.92 978.87 639.30 985.26 C 630.97 989.30 619.64 990.37 612.41 983.61 C 606.79 978.31 607.44 970.00 606.95 962.95 C 606.28 953.97 608.70 945.01 607.23 936.06 C 605.58 923.62 601.83 911.53 600.55 899.03 C 599.74 890.33 598.99 881.53 600.39 872.85 C 600.90 870.35 600.70 867.80 599.86 865.40 C 597.38 857.58 597.11 849.08 593.20 841.74 C 587.67 831.08 579.82 821.89 572.37 812.56 C 561.17 799.81 551.93 785.52 542.74 771.30 C 532.88 756.21 526.56 739.24 519.13 722.92 C 516.01 715.70 512.86 708.39 508.07 702.09 C 492.14 708.39 472.42 707.29 458.92 696.08 C 452.96 691.04 447.61 685.18 443.51 678.53 C 435.41 664.73 430.35 649.46 425.31 634.35 C 424.23 631.10 422.89 627.91 420.89 625.11 C 416.02 618.28 413.11 610.31 410.50 602.40 C 404.33 583.18 400.33 563.17 399.84 542.96 C 399.77 530.24 401.00 517.35 405.26 505.29 C 406.56 501.75 408.62 498.56 410.06 495.09 C 411.33 492.60 409.94 489.89 409.43 487.41 C 407.50 481.10 407.38 474.44 408.08 467.93 C 408.48 464.84 406.59 462.16 405.53 459.41 C 401.92 451.53 401.84 442.42 404.00 434.13 C 398.07 429.90 391.70 426.35 385.63 422.35 C 382.75 420.29 379.44 417.79 379.04 414.00 C 378.72 408.84 380.12 403.77 381.53 398.86 C 378.88 398.00 375.39 397.99 373.88 395.24 C 371.57 391.52 369.39 387.68 366.39 384.47 C 362.88 380.33 357.52 377.99 354.84 373.12 C 352.59 369.31 352.00 364.84 351.76 360.51 C 344.24 357.44 336.73 354.27 329.63 350.31 C 324.95 347.75 321.07 343.69 319.16 338.67 C 316.92 333.69 316.37 328.23 315.19 322.96 C 314.02 318.07 308.52 316.71 304.54 314.86 C 301.10 323.16 297.89 331.86 298.08 340.98 C 297.84 345.48 298.91 349.95 298.55 354.44 C 296.14 356.43 293.05 357.29 290.15 358.31 C 288.43 366.89 285.11 375.14 284.38 383.92 C 283.48 390.97 285.79 397.97 284.87 405.03 C 282.93 425.56 274.65 444.90 264.82 462.82 C 258.47 474.11 250.01 484.00 242.81 494.74 C 236.32 504.08 228.01 512.76 225.32 524.13 C 227.29 528.80 231.80 532.27 232.56 537.55 C 234.37 549.17 228.76 560.35 222.15 569.53 C 224.65 569.24 230.01 566.81 230.35 570.94 C 229.41 578.43 229.93 586.35 226.78 593.37 C 231.22 595.26 237.02 597.50 237.65 603.02 C 237.88 606.56 233.94 607.91 231.07 608.05 C 221.93 608.78 212.88 606.30 204.23 603.60 C 205.26 605.89 206.01 608.37 207.55 610.40 C 210.45 613.79 214.94 615.95 216.58 620.32 C 217.31 622.34 217.02 626.17 214.07 625.83 C 206.64 624.24 199.72 619.91 194.93 614.01 C 191.21 608.63 189.16 602.33 186.77 596.30 C 180.80 580.66 178.52 563.38 181.99 546.89 C 185.03 532.27 188.82 517.76 193.75 503.66 C 196.83 494.25 203.05 485.99 204.53 476.05 C 208.60 451.01 210.29 425.26 219.23 401.30 C 221.56 395.17 223.64 388.83 227.38 383.38 C 229.12 380.75 231.19 378.23 232.02 375.13 C 233.42 370.20 232.62 365.02 232.64 359.98 C 232.65 354.53 232.40 349.08 232.34 343.64 C 228.15 339.63 227.04 333.61 227.08 328.04 C 227.25 314.93 228.77 301.73 226.27 288.74 C 225.34 277.42 219.00 267.41 218.22 256.08 C 217.72 249.89 217.76 243.33 220.58 237.64 C 224.68 229.01 230.39 220.92 238.15 215.22 C 242.06 212.02 246.47 209.51 250.47 206.43 C 252.36 205.09 253.11 202.82 254.05 200.81 C 237.53 200.39 221.29 196.08 206.07 189.80 C 191.45 183.82 178.23 174.51 167.63 162.80 C 164.47 162.62 160.92 162.84 158.31 160.74 C 153.51 156.78 150.03 151.55 146.40 146.57 C 139.61 137.27 136.92 125.36 138.04 113.99 C 139.21 101.40 145.61 89.55 155.02 81.18 C 168.47 69.10 187.23 63.72 205.09 65.44 C 227.25 67.28 247.77 81.47 257.76 101.25 C 259.84 105.10 260.62 109.45 262.29 113.46 C 267.65 121.08 276.64 124.69 284.87 128.33 C 289.19 122.80 294.35 117.67 300.96 115.00 C 306.75 112.31 313.84 115.26 319.24 111.36 C 326.46 106.24 333.13 100.36 340.68 95.70 C 349.33 90.39 358.33 85.53 367.92 82.10 C 381.38 77.34 395.87 77.36 409.97 77.51 C 415.07 77.50 420.47 78.41 425.29 76.23 C 429.45 74.29 433.03 71.36 436.80 68.79 C 444.95 63.12 454.52 59.24 464.51 58.76 C 465.85 62.83 467.04 66.96 468.39 71.03 C 472.36 70.69 476.48 70.18 479.81 67.78 C 488.22 62.26 498.09 59.59 507.89 57.84 C 517.19 56.17 526.65 58.15 535.99 56.95 C 545.07 56.34 553.90 53.72 562.25 50.17 C 565.95 48.40 569.96 46.83 572.79 43.74 C 575.19 40.65 575.60 36.60 576.98 33.04 C 578.40 28.84 582.14 26.13 585.27 23.24 M 596.42 20.54 C 591.57 23.11 587.37 26.76 583.48 30.60 C 579.47 34.41 580.50 40.76 577.14 44.99 C 572.01 51.62 563.84 54.71 556.20 57.43 C 547.50 60.60 538.22 61.66 529.02 62.05 C 522.39 62.05 515.70 61.34 509.13 62.50 C 503.30 63.48 497.54 64.98 492.00 67.05 C 484.54 69.71 477.81 75.71 469.34 73.95 C 474.18 87.72 479.97 101.27 482.89 115.63 C 495.74 113.48 508.60 110.88 520.71 105.96 C 536.40 99.64 552.47 93.35 565.94 82.89 C 572.73 77.96 579.46 72.92 586.64 68.56 C 592.31 65.09 599.31 66.57 605.40 64.47 C 607.53 63.80 609.00 61.94 609.90 59.97 C 613.14 52.84 613.30 44.73 616.55 37.61 C 618.33 33.69 622.89 31.75 627.02 32.19 C 632.96 32.28 639.33 35.54 644.75 31.64 C 637.73 29.24 630.42 27.28 623.00 26.78 C 614.80 28.34 608.67 35.32 600.31 36.33 C 602.18 32.24 606.44 30.36 610.03 28.10 C 613.42 25.98 616.95 24.10 620.62 22.52 C 617.21 22.07 613.55 21.54 610.49 23.52 C 604.20 26.94 596.76 26.88 590.44 30.15 C 591.37 28.10 592.25 25.53 594.77 25.01 C 599.78 23.56 604.89 22.32 609.67 20.15 C 605.30 19.67 600.54 18.31 596.42 20.54 M 445.17 69.11 C 439.27 72.44 434.40 77.33 428.34 80.40 C 424.84 82.19 420.84 82.61 416.96 82.53 C 402.63 82.05 387.97 81.17 373.97 84.96 C 364.46 87.59 355.63 92.21 347.16 97.19 C 338.46 102.23 330.89 108.91 322.70 114.68 C 330.70 114.36 338.33 111.85 345.99 109.77 C 344.43 114.40 339.42 115.68 335.35 117.22 C 328.25 119.92 320.49 119.42 313.14 118.26 C 309.18 117.77 304.72 116.78 301.17 119.20 C 293.58 123.91 288.54 131.61 284.33 139.29 C 278.74 149.84 273.49 160.57 268.46 171.40 C 263.94 180.69 260.13 190.47 258.86 200.79 C 257.87 208.59 256.15 216.39 252.40 223.37 C 249.45 228.64 247.69 234.83 242.94 238.87 C 243.60 233.80 245.99 229.23 247.60 224.44 C 249.16 219.78 250.50 215.04 251.97 210.35 C 244.98 215.80 237.02 220.35 231.64 227.57 C 228.84 231.32 226.44 235.39 224.55 239.67 C 222.12 245.09 222.38 251.24 223.12 257.00 C 224.20 265.89 228.75 273.86 230.22 282.67 C 231.90 293.01 233.32 303.50 232.27 313.99 C 232.55 321.59 230.60 329.49 233.22 336.86 C 236.79 340.45 241.60 342.62 246.03 345.02 C 255.26 349.15 264.77 353.47 275.03 354.05 C 281.39 354.52 287.59 352.70 293.84 351.86 C 291.69 344.08 291.26 335.59 293.99 327.89 C 295.61 323.04 298.54 318.80 300.98 314.35 C 293.16 313.35 285.23 313.67 277.46 312.31 C 285.76 310.04 294.47 310.00 303.01 309.81 C 308.62 309.46 314.03 312.11 317.87 316.08 C 321.22 319.91 321.13 325.30 322.15 330.02 C 323.38 336.25 326.32 342.72 332.23 345.77 C 349.37 355.09 367.94 361.31 385.72 369.25 C 389.35 370.97 393.12 372.52 396.33 374.99 C 396.13 375.48 395.71 376.46 395.51 376.96 C 391.45 376.42 387.79 374.42 383.99 373.04 C 374.35 369.40 364.76 365.61 355.11 362.01 C 356.10 365.40 356.95 369.01 359.20 371.85 C 361.16 374.26 363.90 375.84 366.27 377.81 C 371.39 381.92 374.65 387.79 377.58 393.54 C 383.37 394.66 389.17 395.81 394.88 397.29 C 396.80 397.94 399.74 398.28 399.49 400.99 C 394.71 401.16 390.02 400.08 385.35 399.17 C 384.57 404.07 383.17 409.00 383.72 413.99 C 384.77 416.28 387.02 417.66 389.01 419.05 C 396.09 423.59 403.37 427.86 409.85 433.25 C 415.29 438.40 423.37 436.13 430.05 435.83 C 457.18 434.10 482.73 423.32 506.11 410.07 C 515.45 404.93 524.96 399.96 533.35 393.33 C 542.04 386.84 550.70 378.38 551.98 367.03 C 553.44 360.15 548.05 354.80 544.17 349.89 C 533.25 335.82 520.76 323.03 507.34 311.35 C 505.60 319.15 507.18 327.57 503.84 335.00 C 501.48 324.50 503.17 313.66 502.24 303.02 C 502.04 290.97 498.20 279.48 495.16 267.95 C 490.63 252.65 482.66 238.62 473.18 225.87 C 470.22 221.80 466.44 217.83 465.77 212.62 C 464.96 205.96 465.02 199.14 463.19 192.64 C 460.68 184.17 455.43 176.89 452.19 168.72 C 448.08 160.30 446.11 150.28 449.33 141.23 C 451.43 135.22 453.74 129.00 458.27 124.34 C 457.29 129.42 455.12 134.13 453.63 139.05 C 461.60 134.54 469.37 129.21 475.13 121.98 C 476.76 119.70 478.87 117.06 478.10 114.07 C 474.15 96.40 464.03 80.54 461.71 62.44 C 455.99 64.12 450.32 66.08 445.17 69.11 M 262.62 120.67 C 262.39 123.46 262.23 126.33 261.11 128.94 C 257.06 139.36 249.74 148.04 242.13 156.04 C 239.11 159.18 235.15 161.32 230.97 162.47 C 228.19 162.98 225.90 160.83 224.09 159.03 C 218.30 153.15 214.03 145.19 206.00 141.99 C 202.85 140.76 198.37 139.95 196.01 143.04 C 194.18 145.76 196.48 148.74 198.00 150.99 C 202.05 156.40 203.95 163.37 203.32 170.08 C 203.40 172.20 201.25 174.53 199.23 172.87 C 190.89 168.35 182.35 163.47 172.70 162.60 C 179.54 168.85 186.92 174.56 195.17 178.84 C 207.59 185.70 221.40 189.49 235.19 192.49 C 241.57 193.90 248.06 194.76 254.59 194.94 C 253.22 185.42 247.02 177.78 243.40 169.15 C 250.09 173.02 252.98 180.67 256.23 187.27 C 258.12 181.66 260.20 176.10 262.79 170.77 C 268.96 157.35 275.08 143.83 282.98 131.32 C 275.47 129.48 268.10 126.28 262.62 120.67 M 236.73 346.55 C 237.92 352.60 237.94 358.79 238.60 364.91 C 239.04 369.22 239.05 373.66 237.72 377.83 C 236.44 382.38 232.94 385.77 230.94 389.96 C 227.90 396.16 225.70 402.73 223.35 409.21 C 215.63 431.77 214.38 455.81 209.69 479.05 C 208.47 485.37 205.32 491.05 202.60 496.81 C 196.72 509.28 193.45 522.73 189.86 535.97 C 186.20 549.28 184.14 563.25 186.01 577.02 C 186.79 579.29 188.86 580.80 190.58 582.37 C 197.50 587.90 206.22 591.18 215.02 591.93 C 218.32 591.74 223.55 591.32 223.83 587.06 C 224.61 581.94 225.06 576.75 226.51 571.75 C 221.65 573.84 220.29 578.99 218.27 583.32 C 216.04 585.70 210.12 585.69 209.14 582.05 C 217.14 569.58 228.45 557.70 229.11 542.06 C 229.85 535.09 223.98 530.19 222.03 524.03 C 222.74 516.60 226.81 509.93 230.82 503.80 C 237.48 494.42 243.53 484.62 250.49 475.45 C 258.50 464.92 264.76 453.18 270.19 441.14 C 276.80 425.38 282.81 408.13 279.32 390.85 C 279.23 380.04 280.85 369.03 285.43 359.15 C 276.39 360.69 267.05 359.70 258.45 356.55 C 250.96 353.82 243.44 350.92 236.73 346.55 M 530.25 401.26 C 502.43 421.06 470.49 436.24 436.30 440.25 C 429.77 440.87 423.18 442.50 416.62 441.39 C 412.86 440.84 409.79 438.49 406.71 436.48 C 406.46 442.97 406.41 449.73 408.92 455.84 C 410.05 458.89 411.84 461.74 412.38 464.99 C 412.50 469.00 411.51 472.97 411.82 476.98 C 411.98 481.52 413.53 485.81 414.69 490.14 C 416.44 495.91 411.80 500.83 410.15 506.05 C 402.71 527.14 403.69 550.15 407.56 571.87 C 411.01 590.07 416.31 608.01 424.55 624.65 C 440.42 623.90 456.34 624.12 472.15 622.56 C 486.90 620.63 501.67 618.72 516.27 615.88 C 515.08 611.02 514.25 606.05 514.45 601.04 C 514.71 589.55 512.99 577.93 515.10 566.55 C 526.13 568.98 537.77 570.20 548.89 567.66 C 553.32 566.50 557.87 564.35 560.46 560.41 C 562.06 557.20 561.49 553.46 561.40 550.02 C 560.20 533.37 558.35 516.71 558.64 500.00 C 558.74 491.95 560.45 484.04 563.47 476.60 C 568.70 459.52 576.00 442.01 573.18 423.78 C 570.89 406.22 559.86 391.73 554.13 375.34 C 549.82 386.69 540.37 395.06 530.25 401.26 M 690.38 546.57 C 685.96 547.81 680.62 550.74 680.68 555.99 C 681.26 560.05 684.23 563.23 686.97 566.07 C 694.58 573.20 704.78 577.30 715.08 578.36 C 722.16 578.56 729.19 576.47 736.28 577.68 C 750.17 579.30 761.31 588.39 773.36 594.61 C 785.42 601.27 798.41 606.26 811.90 609.11 C 814.89 609.51 818.15 610.22 821.05 609.06 C 823.45 607.44 822.31 604.26 821.85 601.97 C 819.35 592.43 811.34 585.67 803.40 580.51 C 788.90 571.90 772.22 568.30 756.17 563.76 C 743.76 560.15 731.94 554.89 720.00 550.01 C 710.74 546.18 700.26 544.25 690.38 546.57 M 676.63 560.43 C 675.27 564.96 673.62 569.38 671.91 573.79 C 670.45 577.98 668.83 582.50 670.00 586.98 C 670.78 590.61 673.10 594.13 676.75 595.36 C 686.43 598.49 696.65 594.43 706.44 596.54 C 710.17 597.52 714.62 599.70 715.25 603.94 C 715.11 609.57 710.35 613.43 706.61 617.01 C 711.91 616.34 717.25 615.89 722.46 614.63 C 732.87 612.11 742.79 608.00 753.03 604.91 C 761.00 602.46 769.43 602.58 777.69 602.56 C 763.51 596.52 751.67 584.91 735.97 582.78 C 727.63 581.32 719.30 584.78 710.98 583.04 C 697.19 580.49 683.38 573.24 676.63 560.43 M 519.51 574.02 C 519.57 579.00 519.53 583.99 519.52 588.99 C 519.58 597.26 518.49 605.56 519.69 613.80 C 527.52 609.59 535.67 605.96 543.97 602.77 C 543.95 599.37 544.38 595.95 545.78 592.83 C 548.52 586.33 550.98 579.69 552.65 572.83 C 541.87 576.05 530.52 575.56 519.51 574.02 M 215.16 578.70 C 213.76 578.61 213.40 581.06 214.95 581.08 C 216.35 581.17 216.68 578.72 215.16 578.70 M 646.69 587.60 C 631.32 594.25 614.57 596.77 597.99 598.12 C 587.30 598.78 576.57 599.53 566.06 601.70 C 556.86 603.64 547.90 606.58 539.24 610.21 C 531.29 613.64 523.31 617.16 516.17 622.14 C 512.57 624.71 508.30 626.61 505.47 630.08 C 500.26 651.27 510.82 675.32 529.82 686.03 C 545.07 680.73 560.39 675.56 575.27 669.30 C 591.25 662.70 606.48 654.41 621.02 645.08 C 636.00 635.72 651.17 625.67 668.67 621.80 C 678.37 619.33 688.53 619.15 698.12 616.23 C 704.08 614.38 708.88 609.80 710.96 603.92 C 708.21 602.34 705.27 600.86 702.03 600.83 C 694.00 600.52 685.93 602.36 677.96 600.81 C 672.91 599.91 668.27 596.45 666.45 591.59 C 664.54 587.22 664.78 582.35 665.55 577.76 C 659.41 581.30 653.21 584.80 646.69 587.60 M 189.70 587.77 C 193.27 591.43 196.86 595.38 201.81 597.16 C 211.94 601.13 222.92 604.59 233.92 603.14 C 230.98 598.58 225.44 595.35 219.94 596.23 C 209.19 597.38 198.44 593.95 189.70 587.77 M 189.73 594.34 C 192.38 599.98 194.35 606.00 197.83 611.21 C 201.86 616.34 207.79 619.59 213.77 621.92 C 210.58 616.56 203.74 614.16 201.89 607.91 C 200.69 605.61 200.92 602.20 198.37 600.87 C 195.22 599.07 192.31 596.88 189.73 594.34 M 480.53 626.34 C 463.80 628.81 446.85 628.26 429.99 628.41 C 431.56 633.55 433.68 638.49 435.65 643.49 C 440.41 656.13 445.04 669.04 452.73 680.26 C 458.12 687.11 463.93 694.17 471.90 698.10 C 478.60 700.64 485.99 701.66 493.12 700.72 C 504.13 699.06 514.08 693.66 523.85 688.62 C 506.44 677.62 496.58 655.67 499.70 635.36 C 497.29 637.83 495.59 643.42 491.17 641.89 C 494.88 634.03 500.49 627.10 507.47 621.93 C 498.58 623.90 489.54 625.06 480.53 626.34 M 544.40 686.63 C 537.41 689.09 530.19 691.11 523.70 694.79 C 519.70 697.04 515.53 698.98 511.31 700.78 C 517.58 707.07 520.94 715.42 524.78 723.26 C 531.97 738.49 538.10 754.32 547.46 768.41 C 557.18 782.91 566.63 797.68 578.23 810.79 C 586.39 821.12 595.35 831.27 600.14 843.71 C 603.43 853.07 603.23 863.46 608.07 872.31 C 609.50 870.64 611.11 868.99 611.69 866.81 C 614.76 857.25 616.56 846.42 624.17 839.21 C 626.77 836.43 630.66 835.98 634.24 835.63 C 627.72 822.86 623.24 809.09 620.15 795.11 C 613.80 763.15 606.02 730.83 589.80 702.25 C 584.45 692.96 577.36 684.76 569.82 677.17 C 561.33 680.27 552.94 683.66 544.40 686.63 M 624.59 846.58 C 620.37 853.51 618.89 861.62 616.13 869.16 C 615.07 872.12 613.08 875.14 609.89 876.07 C 607.96 876.11 606.06 875.75 604.17 875.49 C 603.63 894.31 607.64 912.76 610.98 931.16 C 614.41 922.47 620.75 915.12 623.00 905.94 C 625.47 896.47 626.01 886.65 627.76 877.06 C 629.08 868.90 631.45 860.41 637.38 854.35 C 640.15 851.32 644.17 850.08 647.93 848.78 C 643.12 845.92 638.78 841.55 632.98 840.91 C 629.20 840.50 626.45 843.72 624.59 846.58 M 646.29 855.22 C 641.02 856.93 637.94 862.10 636.08 867.00 C 630.80 881.79 632.31 898.09 626.79 912.82 C 623.96 920.59 618.30 927.02 616.03 935.03 C 612.57 947.02 611.89 959.80 613.95 972.10 C 614.64 976.24 617.29 980.28 621.51 981.46 C 629.55 983.69 638.52 981.19 644.82 975.86 C 652.17 969.23 656.62 959.78 657.88 950.04 C 659.78 938.10 656.98 925.93 659.31 914.03 C 661.49 901.72 666.88 889.74 665.78 877.02 C 665.08 870.15 662.98 863.04 658.15 857.92 C 655.21 854.68 650.33 853.83 646.29 855.22 Z" />
		<path fill="#020202" opacity="1.00"
			d=" M 331.87 133.25 C 339.89 131.96 349.61 128.42 356.64 134.36 C 362.96 140.14 366.61 148.24 369.63 156.12 C 374.92 170.82 378.12 186.33 378.58 201.97 C 379.08 212.99 379.76 224.01 379.66 235.05 C 379.58 239.08 379.57 243.22 378.16 247.05 C 377.72 246.82 376.83 246.36 376.39 246.13 C 375.41 239.48 375.80 232.72 375.21 226.03 C 374.34 215.67 374.04 205.27 372.98 194.93 C 371.65 182.05 368.40 169.41 363.76 157.33 C 361.29 151.15 358.59 144.85 354.17 139.80 C 349.43 134.83 341.95 136.71 335.87 135.81 C 334.08 135.88 333.03 134.32 331.87 133.25 Z" />
		<path fill="#020202" opacity="1.00"
			d=" M 409.61 129.54 C 412.00 133.78 413.38 138.46 415.00 143.03 C 418.65 153.71 422.44 164.35 425.86 175.11 C 427.56 180.16 428.74 185.37 429.32 190.67 C 430.46 199.83 434.31 208.29 437.01 217.04 C 443.19 235.77 450.75 254.86 449.11 274.98 C 448.67 278.03 448.64 282.44 444.79 283.14 C 445.65 272.27 444.80 261.27 442.25 250.67 C 437.85 234.82 432.19 219.37 427.23 203.70 C 425.79 198.96 424.93 194.07 424.43 189.14 C 423.69 182.08 421.03 175.44 419.22 168.62 C 417.30 161.55 415.56 154.42 413.46 147.39 C 411.84 141.52 409.51 135.72 409.61 129.54 Z" />
		<path fill="#020202" opacity="1.00"
			d=" M 524.32 341.81 C 526.15 346.38 525.32 351.40 526.24 356.15 C 526.78 360.91 529.14 365.26 529.47 370.05 C 529.55 373.59 526.84 376.25 524.24 378.24 C 510.03 389.00 494.34 397.60 478.38 405.43 C 464.74 412.32 449.86 416.24 435.11 419.97 C 431.42 420.65 426.80 421.89 423.72 419.03 C 425.42 416.64 428.71 417.20 431.23 416.45 C 441.63 413.96 451.79 410.50 461.85 406.87 C 469.69 404.11 476.97 400.05 484.44 396.43 C 495.68 390.60 506.79 384.43 517.24 377.26 C 519.81 375.43 522.63 373.72 524.39 371.02 C 524.62 366.88 522.50 363.07 522.10 358.99 C 521.51 353.23 521.56 347.06 524.32 341.81 Z" />
	</g>
	<g id="#f0b58bff">
		<path fill="#f0b58b" opacity="1.00"
			d=" M 596.42 20.54 C 600.54 18.31 605.30 19.67 609.67 20.15 C 604.89 22.32 599.78 23.56 594.77 25.01 C 592.25 25.53 591.37 28.10 590.44 30.15 C 596.76 26.88 604.20 26.94 610.49 23.52 C 613.55 21.54 617.21 22.07 620.62 22.52 C 616.95 24.10 613.42 25.98 610.03 28.10 C 606.44 30.36 602.18 32.24 600.31 36.33 C 608.67 35.32 614.80 28.34 623.00 26.78 C 630.42 27.28 637.73 29.24 644.75 31.64 C 639.33 35.54 632.96 32.28 627.02 32.19 C 622.89 31.75 618.33 33.69 616.55 37.61 C 613.30 44.73 613.14 52.84 609.90 59.97 C 609.00 61.94 607.53 63.80 605.40 64.47 C 599.31 66.57 592.31 65.09 586.64 68.56 C 579.46 72.92 572.73 77.96 565.94 82.89 C 552.47 93.35 536.40 99.64 520.71 105.96 C 508.60 110.88 495.74 113.48 482.89 115.63 C 479.97 101.27 474.18 87.72 469.34 73.95 C 477.81 75.71 484.54 69.71 492.00 67.05 C 497.54 64.98 503.30 63.48 509.13 62.50 C 515.70 61.34 522.39 62.05 529.02 62.05 C 538.22 61.66 547.50 60.60 556.20 57.43 C 563.84 54.71 572.01 51.62 577.14 44.99 C 580.50 40.76 579.47 34.41 583.48 30.60 C 587.37 26.76 591.57 23.11 596.42 20.54 Z" />
		<path fill="#f0b58b" opacity="1.00"
			d=" M 262.62 120.67 C 268.10 126.28 275.47 129.48 282.98 131.32 C 275.08 143.83 268.96 157.35 262.79 170.77 C 260.20 176.10 258.12 181.66 256.23 187.27 C 252.98 180.67 250.09 173.02 243.40 169.15 C 247.02 177.78 253.22 185.42 254.59 194.94 C 248.06 194.76 241.57 193.90 235.19 192.49 C 221.40 189.49 207.59 185.70 195.17 178.84 C 186.92 174.56 179.54 168.85 172.70 162.60 C 182.35 163.47 190.89 168.35 199.23 172.87 C 201.25 174.53 203.40 172.20 203.32 170.08 C 203.95 163.37 202.05 156.40 198.00 150.99 C 196.48 148.74 194.18 145.76 196.01 143.04 C 198.37 139.95 202.85 140.76 206.00 141.99 C 214.03 145.19 218.30 153.15 224.09 159.03 C 225.90 160.83 228.19 162.98 230.97 162.47 C 235.15 161.32 239.11 159.18 242.13 156.04 C 249.74 148.04 257.06 139.36 261.11 128.94 C 262.23 126.33 262.39 123.46 262.62 120.67 Z" />
		<path fill="#f0b58b" opacity="1.00"
			d=" M 236.73 346.55 C 243.44 350.92 250.96 353.82 258.45 356.55 C 267.05 359.70 276.39 360.69 285.43 359.15 C 280.85 369.03 279.23 380.04 279.32 390.85 C 282.81 408.13 276.80 425.38 270.19 441.14 C 264.76 453.18 258.50 464.92 250.49 475.45 C 243.53 484.62 237.48 494.42 230.82 503.80 C 226.81 509.93 222.74 516.60 222.03 524.03 C 223.98 530.19 229.85 535.09 229.11 542.06 C 228.45 557.70 217.14 569.58 209.14 582.05 C 210.12 585.69 216.04 585.70 218.27 583.32 C 220.29 578.99 221.65 573.84 226.51 571.75 C 225.06 576.75 224.61 581.94 223.83 587.06 C 223.55 591.32 218.32 591.74 215.02 591.93 C 206.22 591.18 197.50 587.90 190.58 582.37 C 188.86 580.80 186.79 579.29 186.01 577.02 C 184.14 563.25 186.20 549.28 189.86 535.97 C 193.45 522.73 196.72 509.28 202.60 496.81 C 205.32 491.05 208.47 485.37 209.69 479.05 C 214.38 455.81 215.63 431.77 223.35 409.21 C 225.70 402.73 227.90 396.16 230.94 389.96 C 232.94 385.77 236.44 382.38 237.72 377.83 C 239.05 373.66 239.04 369.22 238.60 364.91 C 237.94 358.79 237.92 352.60 236.73 346.55 Z" />
		<path fill="#f0b58b" opacity="1.00"
			d=" M 519.51 574.02 C 530.52 575.56 541.87 576.05 552.65 572.83 C 550.98 579.69 548.52 586.33 545.78 592.83 C 544.38 595.95 543.95 599.37 543.97 602.77 C 535.67 605.96 527.52 609.59 519.69 613.80 C 518.49 605.56 519.58 597.26 519.52 588.99 C 519.53 583.99 519.57 579.00 519.51 574.02 Z" />
		<path fill="#f0b58b" opacity="1.00"
			d=" M 189.70 587.77 C 198.44 593.95 209.19 597.38 219.94 596.23 C 225.44 595.35 230.98 598.58 233.92 603.14 C 222.92 604.59 211.94 601.13 201.81 597.16 C 196.86 595.38 193.27 591.43 189.70 587.77 Z" />
		<path fill="#f0b58b" opacity="1.00"
			d=" M 189.73 594.34 C 192.31 596.88 195.22 599.07 198.37 600.87 C 200.92 602.20 200.69 605.61 201.89 607.91 C 203.74 614.16 210.58 616.56 213.77 621.92 C 207.79 619.59 201.86 616.34 197.83 611.21 C 194.35 606.00 192.38 599.98 189.73 594.34 Z" />
		<path fill="#f0b58b" opacity="1.00"
			d=" M 480.53 626.34 C 489.54 625.06 498.58 623.90 507.47 621.93 C 500.49 627.10 494.88 634.03 491.17 641.89 C 495.59 643.42 497.29 637.83 499.70 635.36 C 496.58 655.67 506.44 677.62 523.85 688.62 C 514.08 693.66 504.13 699.06 493.12 700.72 C 485.99 701.66 478.60 700.64 471.90 698.10 C 463.93 694.17 458.12 687.11 452.73 680.26 C 445.04 669.04 440.41 656.13 435.65 643.49 C 433.68 638.49 431.56 633.55 429.99 628.41 C 446.85 628.26 463.80 628.81 480.53 626.34 Z" />
	</g>
	<g id="#f11b27ff">
		<path fill="var(--shirt-color, grey)" opacity="1.00"
			d=" M 445.17 69.11 C 450.32 66.08 455.99 64.12 461.71 62.44 C 464.03 80.54 474.15 96.40 478.10 114.07 C 478.87 117.06 476.76 119.70 475.13 121.98 C 469.37 129.21 461.60 134.54 453.63 139.05 C 455.12 134.13 457.29 129.42 458.27 124.34 C 453.74 129.00 451.43 135.22 449.33 141.23 C 446.11 150.28 448.08 160.30 452.19 168.72 C 455.43 176.89 460.68 184.17 463.19 192.64 C 465.02 199.14 464.96 205.96 465.77 212.62 C 466.44 217.83 470.22 221.80 473.18 225.87 C 482.66 238.62 490.63 252.65 495.16 267.95 C 498.20 279.48 502.04 290.97 502.24 303.02 C 503.17 313.66 501.48 324.50 503.84 335.00 C 507.18 327.57 505.60 319.15 507.34 311.35 C 520.76 323.03 533.25 335.82 544.17 349.89 C 548.05 354.80 553.44 360.15 551.98 367.03 C 550.70 378.38 542.04 386.84 533.35 393.33 C 524.96 399.96 515.45 404.93 506.11 410.07 C 482.73 423.32 457.18 434.10 430.05 435.83 C 423.37 436.13 415.29 438.40 409.85 433.25 C 403.37 427.86 396.09 423.59 389.01 419.05 C 387.02 417.66 384.77 416.28 383.72 413.99 C 383.17 409.00 384.57 404.07 385.35 399.17 C 390.02 400.08 394.71 401.16 399.49 400.99 C 399.74 398.28 396.80 397.94 394.88 397.29 C 389.17 395.81 383.37 394.66 377.58 393.54 C 374.65 387.79 371.39 381.92 366.27 377.81 C 363.90 375.84 361.16 374.26 359.20 371.85 C 356.95 369.01 356.10 365.40 355.11 362.01 C 364.76 365.61 374.35 369.40 383.99 373.04 C 387.79 374.42 391.45 376.42 395.51 376.96 C 395.71 376.46 396.13 375.48 396.33 374.99 C 393.12 372.52 389.35 370.97 385.72 369.25 C 367.94 361.31 349.37 355.09 332.23 345.77 C 326.32 342.72 323.38 336.25 322.15 330.02 C 321.13 325.30 321.22 319.91 317.87 316.08 C 314.03 312.11 308.62 309.46 303.01 309.81 C 294.47 310.00 285.76 310.04 277.46 312.31 C 285.23 313.67 293.16 313.35 300.98 314.35 C 298.54 318.80 295.61 323.04 293.99 327.89 C 291.26 335.59 291.69 344.08 293.84 351.86 C 287.59 352.70 281.39 354.52 275.03 354.05 C 264.77 353.47 255.26 349.15 246.03 345.02 C 241.60 342.62 236.79 340.45 233.22 336.86 C 230.60 329.49 232.55 321.59 232.27 313.99 C 233.32 303.50 231.90 293.01 230.22 282.67 C 228.75 273.86 224.20 265.89 223.12 257.00 C 222.38 251.24 222.12 245.09 224.55 239.67 C 226.44 235.39 228.84 231.32 231.64 227.57 C 237.02 220.35 244.98 215.80 251.97 210.35 C 250.50 215.04 249.16 219.78 247.60 224.44 C 245.99 229.23 243.60 233.80 242.94 238.87 C 247.69 234.83 249.45 228.64 252.40 223.37 C 256.15 216.39 257.87 208.59 258.86 200.79 C 260.13 190.47 263.94 180.69 268.46 171.40 C 273.49 160.57 278.74 149.84 284.33 139.29 C 288.54 131.61 293.58 123.91 301.17 119.20 C 304.72 116.78 309.18 117.77 313.14 118.26 C 320.49 119.42 328.25 119.92 335.35 117.22 C 339.42 115.68 344.43 114.40 345.99 109.77 C 338.33 111.85 330.70 114.36 322.70 114.68 C 330.89 108.91 338.46 102.23 347.16 97.19 C 355.63 92.21 364.46 87.59 373.97 84.96 C 387.97 81.17 402.63 82.05 416.96 82.53 C 420.84 82.61 424.84 82.19 428.34 80.40 C 434.40 77.33 439.27 72.44 445.17 69.11 M 331.87 133.25 C 333.03 134.32 334.08 135.88 335.87 135.81 C 341.95 136.71 349.43 134.83 354.17 139.80 C 358.59 144.85 361.29 151.15 363.76 157.33 C 368.40 169.41 371.65 182.05 372.98 194.93 C 374.04 205.27 374.34 215.67 375.21 226.03 C 375.80 232.72 375.41 239.48 376.39 246.13 C 376.83 246.36 377.72 246.82 378.16 247.05 C 379.57 243.22 379.58 239.08 379.66 235.05 C 379.76 224.01 379.08 212.99 378.58 201.97 C 378.12 186.33 374.92 170.82 369.63 156.12 C 366.61 148.24 362.96 140.14 356.64 134.36 C 349.61 128.42 339.89 131.96 331.87 133.25 M 409.61 129.54 C 409.51 135.72 411.84 141.52 413.46 147.39 C 415.56 154.42 417.30 161.55 419.22 168.62 C 421.03 175.44 423.69 182.08 424.43 189.14 C 424.93 194.07 425.79 198.96 427.23 203.70 C 432.19 219.37 437.85 234.82 442.25 250.67 C 444.80 261.27 445.65 272.27 444.79 283.14 C 448.64 282.44 448.67 278.03 449.11 274.98 C 450.75 254.86 443.19 235.77 437.01 217.04 C 434.31 208.29 430.46 199.83 429.32 190.67 C 428.74 185.37 427.56 180.16 425.86 175.11 C 422.44 164.35 418.65 153.71 415.00 143.03 C 413.38 138.46 412.00 133.78 409.61 129.54 M 524.32 341.81 C 521.56 347.06 521.51 353.23 522.10 358.99 C 522.50 363.07 524.62 366.88 524.39 371.02 C 522.63 373.72 519.81 375.43 517.24 377.26 C 506.79 384.43 495.68 390.60 484.44 396.43 C 476.97 400.05 469.69 404.11 461.85 406.87 C 451.79 410.50 441.63 413.96 431.23 416.45 C 428.71 417.20 425.42 416.64 423.72 419.03 C 426.80 421.89 431.42 420.65 435.11 419.97 C 449.86 416.24 464.74 412.32 478.38 405.43 C 494.34 397.60 510.03 389.00 524.24 378.24 C 526.84 376.25 529.55 373.59 529.47 370.05 C 529.14 365.26 526.78 360.91 526.24 356.15 C 525.32 351.40 526.15 346.38 524.32 341.81 Z" />
	</g>
	<g id="#2b3dcdff">
		<path fill="var(--pants-color, grey)" opacity="1.00"
			d=" M 530.25 401.26 C 540.37 395.06 549.82 386.69 554.13 375.34 C 559.86 391.73 570.89 406.22 573.18 423.78 C 576.00 442.01 568.70 459.52 563.47 476.60 C 560.45 484.04 558.74 491.95 558.64 500.00 C 558.35 516.71 560.20 533.37 561.40 550.02 C 561.49 553.46 562.06 557.20 560.46 560.41 C 557.87 564.35 553.32 566.50 548.89 567.66 C 537.77 570.20 526.13 568.98 515.10 566.55 C 512.99 577.93 514.71 589.55 514.45 601.04 C 514.25 606.05 515.08 611.02 516.27 615.88 C 501.67 618.72 486.90 620.63 472.15 622.56 C 456.34 624.12 440.42 623.90 424.55 624.65 C 416.31 608.01 411.01 590.07 407.56 571.87 C 403.69 550.15 402.71 527.14 410.15 506.05 C 411.80 500.83 416.44 495.91 414.69 490.14 C 413.53 485.81 411.98 481.52 411.82 476.98 C 411.51 472.97 412.50 469.00 412.38 464.99 C 411.84 461.74 410.05 458.89 408.92 455.84 C 406.41 449.73 406.46 442.97 406.71 436.48 C 409.79 438.49 412.86 440.84 416.62 441.39 C 423.18 442.50 429.77 440.87 436.30 440.25 C 470.49 436.24 502.43 421.06 530.25 401.26 Z" />
		<path fill="var(--socks-color, grey)" opacity="1.00"
			d=" M 646.69 587.60 C 653.21 584.80 659.41 581.30 665.55 577.76 C 664.78 582.35 664.54 587.22 666.45 591.59 C 668.27 596.45 672.91 599.91 677.96 600.81 C 685.93 602.36 694.00 600.52 702.03 600.83 C 705.27 600.86 708.21 602.34 710.96 603.92 C 708.88 609.80 704.08 614.38 698.12 616.23 C 688.53 619.15 678.37 619.33 668.67 621.80 C 651.17 625.67 636.00 635.72 621.02 645.08 C 606.48 654.41 591.25 662.70 575.27 669.30 C 560.39 675.56 545.07 680.73 529.82 686.03 C 510.82 675.32 500.26 651.27 505.47 630.08 C 508.30 626.61 512.57 624.71 516.17 622.14 C 523.31 617.16 531.29 613.64 539.24 610.21 C 547.90 606.58 556.86 603.64 566.06 601.70 C 576.57 599.53 587.30 598.78 597.99 598.12 C 614.57 596.77 631.32 594.25 646.69 587.60 Z" />
		<path fill="var(--socks-color, grey)" opacity="1.00"
			d=" M 544.40 686.63 C 552.94 683.66 561.33 680.27 569.82 677.17 C 577.36 684.76 584.45 692.96 589.80 702.25 C 606.02 730.83 613.80 763.15 620.15 795.11 C 623.24 809.09 627.72 822.86 634.24 835.63 C 630.66 835.98 626.77 836.43 624.17 839.21 C 616.56 846.42 614.76 857.25 611.69 866.81 C 611.11 868.99 609.50 870.64 608.07 872.31 C 603.23 863.46 603.43 853.07 600.14 843.71 C 595.35 831.27 586.39 821.12 578.23 810.79 C 566.63 797.68 557.18 782.91 547.46 768.41 C 538.10 754.32 531.97 738.49 524.78 723.26 C 520.94 715.42 517.58 707.07 511.31 700.78 C 515.53 698.98 519.70 697.04 523.70 694.79 C 530.19 691.11 537.41 689.09 544.40 686.63 Z" />
	</g>
	<g id="#4d4d4dff">
		<path fill="#4d4d4d" opacity="1.00"
			d=" M 690.38 546.57 C 700.26 544.25 710.74 546.18 720.00 550.01 C 731.94 554.89 743.76 560.15 756.17 563.76 C 772.22 568.30 788.90 571.90 803.40 580.51 C 811.34 585.67 819.35 592.43 821.85 601.97 C 822.31 604.26 823.45 607.44 821.05 609.06 C 818.15 610.22 814.89 609.51 811.90 609.11 C 798.41 606.26 785.42 601.27 773.36 594.61 C 761.31 588.39 750.17 579.30 736.28 577.68 C 729.19 576.47 722.16 578.56 715.08 578.36 C 704.78 577.30 694.58 573.20 686.97 566.07 C 684.23 563.23 681.26 560.05 680.68 555.99 C 680.62 550.74 685.96 547.81 690.38 546.57 Z" />
		<path fill="#4d4d4d" opacity="1.00"
			d=" M 676.63 560.43 C 683.38 573.24 697.19 580.49 710.98 583.04 C 719.30 584.78 727.63 581.32 735.97 582.78 C 751.67 584.91 763.51 596.52 777.69 602.56 C 769.43 602.58 761.00 602.46 753.03 604.91 C 742.79 608.00 732.87 612.11 722.46 614.63 C 717.25 615.89 711.91 616.34 706.61 617.01 C 710.35 613.43 715.11 609.57 715.25 603.94 C 714.62 599.70 710.17 597.52 706.44 596.54 C 696.65 594.43 686.43 598.49 676.75 595.36 C 673.10 594.13 670.78 590.61 670.00 586.98 C 668.83 582.50 670.45 577.98 671.91 573.79 C 673.62 569.38 675.27 564.96 676.63 560.43 Z" />
		<path fill="#4d4d4d" opacity="1.00"
			d=" M 624.59 846.58 C 626.45 843.72 629.20 840.50 632.98 840.91 C 638.78 841.55 643.12 845.92 647.93 848.78 C 644.17 850.08 640.15 851.32 637.38 854.35 C 631.45 860.41 629.08 868.90 627.76 877.06 C 626.01 886.65 625.47 896.47 623.00 905.94 C 620.75 915.12 614.41 922.47 610.98 931.16 C 607.64 912.76 603.63 894.31 604.17 875.49 C 606.06 875.75 607.96 876.11 609.89 876.07 C 613.08 875.14 615.07 872.12 616.13 869.16 C 618.89 861.62 620.37 853.51 624.59 846.58 Z" />
		<path fill="#4d4d4d" opacity="1.00"
			d=" M 646.29 855.22 C 650.33 853.83 655.21 854.68 658.15 857.92 C 662.98 863.04 665.08 870.15 665.78 877.02 C 666.88 889.74 661.49 901.72 659.31 914.03 C 656.98 925.93 659.78 938.10 657.88 950.04 C 656.62 959.78 652.17 969.23 644.82 975.86 C 638.52 981.19 629.55 983.69 621.51 981.46 C 617.29 980.28 614.64 976.24 613.95 972.10 C 611.89 959.80 612.57 947.02 616.03 935.03 C 618.30 927.02 623.96 920.59 626.79 912.82 C 632.31 898.09 630.80 881.79 636.08 867.00 C 637.94 862.10 641.02 856.93 646.29 855.22 Z" />
	</g>
</svg>