<?xml version="1.0" encoding="UTF-8" ?>
<!DOCTYPE svg PUBLIC "-//W3C//DTD SVG 1.1//EN" "http://www.w3.org/Graphics/SVG/1.1/DTD/svg11.dtd">
<svg width="1000pt" height="1000pt" viewBox="0 0 1000 1000" version="1.1" xmlns="http://www.w3.org/2000/svg">
	<g id="#000000ff">
		<path fill="#000000" opacity="1.00"
			d=" M 548.52 1.71 C 555.38 0.48 562.41 0.93 569.28 1.89 C 578.44 3.19 586.85 7.48 594.59 12.37 C 599.07 15.15 602.64 19.14 605.30 23.67 C 609.87 25.48 613.50 29.27 614.95 33.99 C 616.97 40.15 616.89 46.70 617.45 53.08 C 618.21 62.70 619.94 72.38 618.55 82.03 C 617.40 89.69 615.00 97.27 610.75 103.79 C 608.30 107.59 605.11 110.82 602.12 114.18 C 602.73 123.93 607.15 133.19 613.92 140.13 C 621.22 142.90 629.22 143.50 636.45 146.55 C 641.96 148.73 646.35 152.88 651.67 155.42 C 657.89 158.44 664.69 159.94 671.35 161.68 C 680.85 164.11 689.88 168.06 698.73 172.25 C 705.89 175.62 712.67 180.06 717.97 186.01 C 722.77 191.24 726.19 197.59 728.76 204.17 C 733.18 215.30 734.23 227.38 738.30 238.62 C 740.85 245.51 743.02 253.17 748.97 257.99 C 761.10 268.77 774.81 278.37 783.66 292.28 C 786.26 296.76 789.17 301.39 789.75 306.65 C 787.74 308.93 784.84 310.11 782.22 311.54 C 790.76 326.28 799.09 341.89 800.98 359.08 C 802.14 367.47 798.53 375.79 792.85 381.82 C 786.47 389.07 777.45 393.00 769.99 398.93 C 765.34 402.67 759.99 405.87 756.86 411.13 C 757.60 414.62 758.28 418.26 757.45 421.80 C 756.22 427.29 752.75 431.93 749.06 436.04 C 743.50 442.15 737.30 447.63 730.91 452.85 C 727.59 455.44 724.08 458.17 719.86 459.00 C 717.82 459.40 716.14 457.84 714.44 457.03 C 710.99 459.32 706.69 462.76 702.39 460.72 C 699.04 458.41 701.05 454.04 702.55 451.25 C 699.92 453.77 697.10 457.31 693.10 457.16 C 689.29 455.20 690.21 449.86 691.66 446.63 C 695.61 438.97 701.81 432.83 706.71 425.81 C 709.23 422.17 711.75 418.54 714.12 414.81 C 706.56 422.94 700.17 432.87 689.83 437.77 C 687.75 438.96 685.22 437.10 685.21 434.85 C 684.76 429.90 688.68 426.18 690.37 421.87 C 691.15 414.07 690.06 406.13 691.52 398.39 C 692.07 395.75 692.64 392.78 694.93 391.05 C 705.47 383.54 719.99 384.62 729.94 376.07 C 735.21 371.81 739.63 366.66 744.09 361.59 C 742.01 351.86 736.42 343.21 729.29 336.41 C 726.89 335.51 724.00 335.79 722.02 333.95 C 718.97 331.14 717.27 327.25 715.38 323.65 C 709.14 310.71 701.10 298.25 689.65 289.33 C 687.25 296.63 684.24 303.72 680.44 310.40 C 677.66 315.69 673.94 320.53 672.10 326.28 C 669.98 332.73 669.43 339.60 667.11 346.00 C 665.05 352.10 661.45 357.60 659.97 363.90 C 658.32 370.17 659.79 376.67 659.11 383.04 C 658.59 390.79 653.55 397.14 649.06 403.11 C 641.28 412.83 631.75 421.91 628.20 434.22 C 626.37 439.83 629.04 445.40 629.35 451.01 C 629.73 458.37 627.46 465.59 624.20 472.11 C 629.29 481.16 629.74 492.08 626.94 501.93 C 626.14 504.50 624.29 506.57 623.47 509.13 C 619.85 521.71 618.79 535.41 611.47 546.63 C 607.04 553.42 603.91 561.20 597.95 566.88 C 592.70 572.08 589.02 578.59 584.04 584.01 C 572.08 595.34 561.08 607.69 548.49 618.36 C 542.57 623.25 535.52 626.60 529.86 631.83 C 521.62 638.77 517.37 649.10 509.51 656.37 C 505.94 659.64 502.36 663.16 497.85 665.08 C 495.68 666.40 493.47 664.51 492.32 662.75 C 489.62 658.43 488.02 653.56 485.82 648.99 C 470.37 658.33 456.55 670.18 444.21 683.31 C 432.30 697.00 429.44 715.68 427.55 733.11 C 425.01 751.72 425.73 770.90 419.84 788.94 C 413.62 808.69 401.20 825.56 391.88 843.84 C 394.25 850.26 396.55 857.16 394.73 864.05 C 392.57 875.06 383.42 882.63 374.57 888.55 C 371.41 890.95 367.39 892.53 365.18 895.97 C 361.37 904.09 359.99 913.10 356.31 921.28 C 355.45 923.37 354.22 925.48 354.59 927.85 C 355.34 939.53 356.97 951.21 356.40 962.94 C 356.07 966.99 355.43 972.34 351.01 973.97 C 345.54 975.46 339.70 975.28 334.34 977.27 C 326.20 979.96 319.53 985.80 311.29 988.24 C 306.65 989.67 301.74 989.86 296.93 989.57 C 286.94 988.99 276.90 987.69 267.43 984.33 C 263.45 982.90 259.05 981.14 256.94 977.20 C 255.07 973.19 256.49 968.36 259.08 965.02 C 263.06 960.01 268.33 956.26 272.60 951.53 C 278.34 945.16 283.67 938.40 288.14 931.07 C 284.69 926.19 282.57 919.96 284.22 914.01 C 287.02 903.08 294.74 894.24 303.04 886.97 C 306.11 884.38 308.93 881.47 310.96 877.99 C 312.89 874.68 315.99 872.35 318.33 869.39 C 319.31 867.24 319.70 864.88 320.31 862.62 C 314.40 853.46 309.83 843.52 305.42 833.57 C 297.92 817.53 292.70 800.55 288.69 783.33 C 285.63 771.41 283.88 759.21 282.66 746.98 C 281.93 738.67 281.72 730.29 280.30 722.07 C 279.35 716.08 275.24 711.11 274.66 705.04 C 273.63 696.42 277.02 688.12 280.51 680.45 C 288.94 662.71 298.77 645.57 305.12 626.92 C 306.31 623.33 306.72 619.56 307.14 615.83 C 305.90 614.79 303.97 614.17 303.67 612.36 C 302.74 607.73 303.93 602.99 304.77 598.43 C 307.88 583.39 316.34 570.28 324.63 557.62 C 334.07 544.38 341.50 529.62 352.67 517.68 C 361.60 510.73 366.08 499.90 374.08 492.09 C 377.35 489.24 382.16 489.28 385.46 486.45 C 391.03 481.83 393.86 474.94 398.63 469.61 C 401.05 467.00 401.18 463.28 402.09 460.02 C 404.59 449.51 409.23 438.87 417.66 431.79 C 422.00 428.06 427.82 430.20 432.79 431.04 C 435.35 424.05 439.78 417.90 445.16 412.82 C 443.28 410.74 441.11 408.68 440.38 405.88 C 439.14 400.98 439.80 395.85 440.75 390.96 C 442.96 380.66 446.10 370.14 452.83 361.81 C 455.36 358.65 459.36 357.43 463.04 356.14 C 464.72 349.71 465.89 342.67 470.99 337.91 C 469.77 335.80 468.63 333.66 467.56 331.49 C 449.62 334.62 431.24 334.03 413.17 332.38 C 401.69 331.44 391.48 325.63 380.63 322.31 C 373.34 320.13 366.18 317.50 358.84 315.51 C 353.31 313.89 347.38 314.11 341.99 312.01 C 336.54 309.34 332.03 304.59 330.12 298.78 C 326.97 289.67 326.07 279.98 323.32 270.76 C 321.21 262.72 316.65 255.67 312.32 248.68 C 310.57 245.98 308.97 242.59 311.30 239.70 C 310.93 237.57 310.64 235.44 310.48 233.30 C 316.83 234.05 323.04 235.75 329.34 236.86 C 330.96 235.93 332.42 233.63 334.53 234.44 C 337.59 235.87 339.57 238.78 341.67 241.30 C 347.59 249.22 352.48 257.83 357.77 266.16 C 360.30 269.95 361.81 274.37 361.48 278.97 C 379.46 280.82 397.60 284.65 415.71 281.83 C 427.99 280.29 439.80 275.58 452.32 276.00 C 452.12 274.05 451.57 271.83 453.34 270.40 C 461.73 261.50 465.93 249.75 469.31 238.23 C 473.52 224.96 474.30 210.75 479.81 197.88 C 483.11 189.84 489.37 183.48 495.96 178.02 C 504.20 171.54 515.05 170.66 525.02 169.01 C 530.53 168.15 535.58 165.65 540.19 162.60 C 530.21 160.60 523.95 151.70 520.06 142.97 C 514.98 131.20 511.00 118.84 509.21 106.12 C 507.65 95.65 512.04 85.18 509.52 74.79 C 508.40 69.74 508.01 64.56 508.34 59.40 C 506.90 59.10 505.47 58.79 504.06 58.48 C 507.71 47.00 507.61 34.57 512.44 23.44 C 516.18 14.53 523.55 6.83 532.91 3.92 C 537.96 2.26 543.35 2.69 548.52 1.71 M 520.75 45.77 C 516.77 49.57 514.91 54.94 511.23 58.99 C 511.28 62.56 511.54 66.12 511.97 69.66 C 517.78 69.73 523.64 72.04 527.52 76.44 C 530.55 79.52 529.50 84.23 528.88 88.03 C 527.43 93.37 526.12 98.94 523.23 103.70 L 521.73 102.96 C 521.69 102.47 521.60 101.49 521.56 101.00 C 522.97 94.92 525.63 89.15 526.50 82.92 C 521.84 84.06 516.64 85.36 513.48 89.25 C 512.25 96.12 511.84 103.28 513.41 110.14 C 515.86 121.13 519.03 132.03 523.74 142.29 C 526.72 148.17 530.20 154.46 536.36 157.50 C 540.79 159.58 545.79 157.90 549.97 155.99 C 557.11 152.55 563.20 147.33 569.23 142.26 C 571.89 140.23 573.70 136.45 577.41 136.33 C 577.04 137.81 576.67 139.38 575.59 140.54 C 571.14 145.82 565.61 150.03 560.13 154.17 C 555.80 157.43 550.93 159.94 545.76 161.59 C 547.87 170.95 548.68 180.53 550.05 190.02 C 550.33 192.38 551.00 194.68 551.86 196.89 C 557.35 196.04 562.34 193.54 567.33 191.24 C 572.98 188.65 579.31 189.23 585.28 188.12 C 591.88 186.66 597.20 182.23 602.88 178.84 C 610.88 173.92 617.13 166.31 620.36 157.49 C 621.66 153.68 617.72 150.93 615.57 148.37 C 606.03 140.07 598.97 128.07 599.15 115.13 C 594.93 110.48 596.37 103.73 598.43 98.44 C 600.35 92.54 605.29 88.06 606.38 81.84 C 607.34 78.18 606.87 73.22 603.07 71.36 C 599.21 71.39 596.65 74.81 594.77 77.75 C 591.03 84.13 593.39 91.96 590.52 98.60 C 588.26 104.66 587.91 111.16 586.96 117.50 C 581.68 113.02 580.74 104.89 583.96 98.95 C 585.20 96.73 586.50 94.53 587.53 92.20 C 585.22 89.60 582.87 86.99 580.03 84.97 C 576.83 82.80 572.75 83.93 569.20 84.24 C 560.00 85.64 550.12 85.54 541.59 81.45 C 539.47 80.50 537.27 77.46 539.57 75.55 C 544.62 70.45 552.52 71.00 559.10 71.47 C 565.53 72.51 572.08 72.51 578.53 71.60 C 580.05 66.91 579.84 61.87 581.58 57.24 C 578.66 59.54 575.78 61.88 572.65 63.89 C 573.48 57.74 575.78 51.94 578.68 46.50 C 572.91 51.76 567.72 57.63 561.84 62.77 C 560.56 57.72 559.73 52.57 558.32 47.55 C 554.25 54.28 548.83 60.09 542.41 64.63 C 542.80 58.11 544.36 51.75 545.79 45.40 C 537.79 52.49 528.43 57.77 520.18 64.53 C 521.78 56.61 525.24 49.21 526.89 41.29 C 524.70 42.58 522.55 43.97 520.75 45.77 M 617.96 144.98 C 621.10 148.55 625.76 152.60 624.18 157.94 C 621.06 168.21 613.67 176.91 604.62 182.54 C 599.43 185.78 594.44 189.57 588.54 191.43 C 582.20 193.51 575.22 192.33 569.04 195.01 C 563.84 197.25 558.68 199.94 552.98 200.62 C 549.66 201.02 547.37 197.79 546.67 194.92 C 544.40 185.00 544.63 174.66 542.04 164.79 C 532.75 173.58 519.22 172.29 507.76 175.70 C 499.37 177.76 492.81 183.93 487.53 190.46 C 481.10 199.28 479.11 210.30 476.86 220.73 C 474.63 232.43 471.52 243.99 467.09 255.05 C 464.37 261.82 460.51 268.12 455.56 273.49 C 460.50 279.01 465.55 284.45 469.74 290.59 C 471.21 287.17 472.98 283.79 473.49 280.06 C 475.14 266.30 473.65 251.87 478.93 238.75 C 481.18 233.59 483.98 228.56 487.92 224.49 C 486.84 231.00 482.70 236.40 480.87 242.67 C 477.30 254.38 478.39 266.79 477.31 278.84 C 476.51 289.15 468.86 297.49 468.31 307.88 C 467.91 317.51 469.53 327.32 473.41 336.18 C 476.58 334.78 479.73 333.35 483.00 332.20 C 479.72 336.26 474.60 338.27 471.42 342.41 C 468.89 346.28 468.19 350.97 466.90 355.33 C 471.13 354.40 475.36 353.51 479.58 352.51 C 488.68 350.40 497.25 346.57 505.64 342.57 C 510.87 340.12 515.55 336.43 521.23 335.02 C 519.86 337.04 518.11 338.79 515.96 339.95 C 507.71 344.75 499.06 348.88 490.12 352.22 C 480.68 355.77 470.57 356.87 461.01 359.97 C 457.96 360.90 455.28 362.86 453.56 365.56 C 448.22 373.48 445.45 382.80 443.67 392.10 C 442.95 396.21 442.51 400.52 443.56 404.61 C 444.67 408.10 448.17 409.86 450.58 412.36 C 444.30 417.72 439.07 424.25 435.52 431.73 C 448.64 435.09 461.91 438.21 474.41 443.53 C 480.85 446.26 486.67 450.34 493.34 452.57 C 502.53 455.70 512.32 456.07 521.93 456.62 C 530.04 457.21 538.33 455.72 546.28 458.02 C 544.65 458.79 543.01 459.72 541.16 459.71 C 528.05 460.25 514.83 460.17 501.84 458.08 C 494.10 456.87 486.82 453.80 480.02 449.99 C 464.17 441.09 445.91 438.53 428.75 433.25 C 425.19 432.16 421.18 432.88 418.52 435.58 C 409.94 444.05 406.42 456.01 403.84 467.46 C 423.98 472.17 444.23 476.98 464.93 478.47 C 479.88 479.47 494.93 481.00 509.90 479.42 C 548.47 475.60 588.57 482.05 622.78 500.66 C 624.01 493.92 625.36 486.74 622.82 480.13 C 620.05 472.63 614.95 466.22 609.52 460.46 C 597.94 449.28 583.11 442.22 568.09 436.88 C 554.25 430.73 540.86 423.62 527.40 416.70 C 522.69 413.91 517.30 411.79 513.85 407.35 C 520.45 407.52 525.86 411.74 531.71 414.25 C 547.46 421.53 562.48 430.49 578.91 436.22 C 595.41 442.85 611.33 452.74 621.38 467.79 C 623.39 462.77 625.18 457.50 625.07 452.03 C 624.97 447.96 623.55 444.09 623.26 440.06 C 622.99 434.32 625.08 428.77 627.82 423.82 C 634.77 410.89 646.97 401.68 653.63 388.56 C 657.99 379.60 653.35 369.39 656.41 360.17 C 658.00 354.83 660.98 350.06 662.80 344.80 C 665.50 337.41 666.09 329.42 669.09 322.13 C 671.21 316.83 674.38 312.06 677.01 307.02 C 680.53 300.57 683.35 293.78 685.97 286.92 C 684.60 286.11 683.25 285.30 681.90 284.49 C 677.07 298.82 668.36 311.92 656.61 321.51 C 652.37 325.04 647.28 327.58 641.86 328.67 C 640.01 329.09 637.86 328.92 636.94 327.00 C 641.61 324.61 646.91 323.42 651.10 320.12 C 663.42 310.44 672.55 297.10 678.18 282.55 C 671.82 279.50 665.02 277.62 658.26 275.76 C 659.67 274.83 661.10 273.51 662.96 273.92 C 670.92 274.54 678.43 277.79 685.35 281.62 C 697.75 288.51 707.29 299.57 714.39 311.69 C 718.37 318.24 720.86 325.64 725.51 331.79 C 737.93 328.10 748.80 320.90 760.36 315.27 C 768.51 310.93 777.41 308.35 785.99 305.03 C 783.83 300.34 781.66 295.62 778.60 291.45 C 771.58 281.86 762.39 274.21 753.26 266.72 C 744.77 259.59 736.74 251.92 729.22 243.77 C 725.66 239.79 721.83 235.71 720.41 230.41 C 726.99 234.84 731.33 241.78 737.26 247.00 C 733.71 238.01 731.38 228.61 729.32 219.19 C 726.48 207.40 721.99 195.46 713.29 186.69 C 704.64 178.02 692.84 173.77 681.73 169.23 C 671.17 164.96 659.50 163.98 649.30 158.75 C 643.83 156.05 639.34 151.65 633.59 149.49 C 628.52 147.54 623.18 146.45 617.96 144.98 M 314.00 236.89 C 316.28 245.04 324.98 248.42 329.54 255.00 C 329.49 255.59 329.38 256.77 329.33 257.35 C 323.13 254.12 319.10 248.01 313.38 244.06 C 317.19 250.80 321.86 257.12 324.57 264.44 C 328.58 274.95 329.30 286.35 332.88 296.97 C 334.64 302.56 339.04 307.15 344.45 309.31 C 350.31 311.27 356.66 310.80 362.53 312.75 C 374.88 316.96 387.39 320.69 399.53 325.49 C 408.44 329.26 418.23 329.20 427.72 329.73 C 440.77 330.35 453.83 329.66 466.86 328.83 C 463.97 317.51 462.51 305.00 467.82 294.13 C 464.27 289.40 460.48 284.85 456.62 280.37 C 448.43 280.10 440.21 280.86 432.31 283.09 C 411.19 288.35 389.14 286.58 367.95 282.77 C 362.71 281.54 356.78 282.35 352.19 279.13 C 353.99 278.90 355.82 278.74 357.64 278.57 C 357.95 275.39 357.39 272.21 355.54 269.56 C 348.76 258.54 342.82 246.73 333.49 237.58 C 332.53 238.63 331.59 239.69 330.66 240.76 C 331.82 245.83 334.43 250.37 337.59 254.45 C 340.45 258.00 339.64 262.77 339.73 266.99 C 339.54 272.84 339.82 278.69 339.83 284.54 C 337.43 284.78 336.19 282.12 336.01 280.13 C 335.21 273.42 336.41 266.68 336.01 259.96 C 335.85 257.37 333.72 255.58 332.38 253.55 C 329.41 249.69 327.62 245.07 326.75 240.31 C 322.41 239.53 318.15 238.38 314.00 236.89 M 757.62 321.58 C 749.25 325.81 741.29 330.91 732.43 334.10 C 739.52 340.53 745.27 348.62 747.55 358.04 C 755.62 351.01 765.18 344.08 776.34 343.98 C 776.34 344.51 776.35 345.55 776.35 346.08 C 770.54 348.06 764.36 349.49 759.58 353.63 C 746.78 362.36 739.63 377.52 725.51 384.54 C 717.98 387.83 709.80 389.29 702.14 392.23 C 700.09 393.11 697.13 393.63 696.52 396.14 C 694.79 402.51 694.71 409.20 694.84 415.75 C 698.15 411.37 701.15 406.76 704.27 402.23 C 705.56 400.54 706.99 398.23 709.49 398.57 C 709.48 400.46 708.83 402.26 707.79 403.83 C 704.30 409.22 700.48 414.39 696.71 419.58 C 693.42 424.36 689.77 429.11 688.32 434.84 C 697.74 430.15 703.93 421.39 710.72 413.71 C 712.60 411.75 715.42 408.70 718.31 410.71 C 719.80 414.42 716.38 417.61 714.70 420.61 C 709.04 429.81 701.69 437.81 695.79 446.85 C 694.12 449.12 693.73 451.96 693.67 454.71 C 704.88 447.42 712.18 435.80 721.42 426.39 C 724.15 423.75 726.58 420.42 730.41 419.33 C 730.69 420.81 730.56 422.34 729.63 423.58 C 724.66 431.43 718.31 438.25 712.29 445.28 C 708.98 449.14 705.42 452.97 703.60 457.82 C 709.64 457.64 714.08 453.06 718.20 449.21 C 724.08 442.10 731.05 435.98 736.73 428.70 C 739.22 425.76 741.20 422.33 744.31 419.95 C 740.37 435.22 725.01 443.22 717.62 456.45 C 724.88 455.49 729.89 449.65 735.19 445.20 C 742.25 438.55 750.39 432.01 753.61 422.51 C 755.62 417.12 753.05 411.72 751.62 406.56 C 750.97 403.06 750.11 398.84 753.04 396.10 C 753.90 399.44 754.23 402.88 754.75 406.28 C 758.51 401.80 763.37 398.49 767.99 394.98 C 774.85 389.82 782.81 386.08 788.79 379.80 C 793.68 374.84 797.55 368.15 796.93 360.95 C 795.87 343.39 785.87 328.35 779.33 312.50 C 771.97 315.22 764.59 317.97 757.62 321.58 M 386.62 489.70 C 383.09 492.52 377.83 492.27 374.87 495.91 C 370.06 501.24 366.36 507.42 361.91 513.02 C 359.29 516.39 355.61 518.68 352.81 521.87 C 342.93 533.65 335.34 547.09 326.68 559.75 C 316.42 575.39 307.57 592.69 306.04 611.64 C 320.81 609.58 335.99 611.79 349.84 617.20 C 359.28 620.77 368.66 625.06 376.13 632.01 C 381.49 612.81 394.26 596.91 407.04 582.07 C 412.40 575.74 418.68 570.30 424.47 564.38 C 426.18 561.99 429.08 563.76 430.80 565.18 C 436.46 569.87 440.97 575.76 445.34 581.62 C 451.41 589.75 455.67 599.06 461.74 607.21 C 467.15 614.51 472.62 621.78 477.79 629.26 C 482.56 636.20 487.68 642.99 491.14 650.72 C 492.86 654.63 494.60 658.54 496.74 662.25 C 500.22 659.60 503.57 656.77 506.65 653.66 C 514.38 646.21 518.79 635.98 526.96 628.92 C 532.57 623.65 539.51 620.14 545.48 615.35 C 557.97 604.94 568.71 592.69 580.58 581.62 C 585.68 576.33 589.40 569.87 594.59 564.65 C 599.89 559.59 602.79 552.75 606.72 546.69 C 615.42 534.16 616.47 518.47 620.72 504.22 C 592.83 488.92 560.65 482.47 529.01 482.57 C 516.97 482.42 505.03 484.60 492.99 484.23 C 469.80 483.46 446.48 481.93 423.85 476.45 C 416.57 474.58 409.00 473.67 402.03 470.72 C 396.56 476.78 393.33 484.77 386.62 489.70 M 407.85 586.94 C 397.77 598.86 387.91 611.41 382.18 626.09 C 379.99 631.48 379.36 637.29 378.31 642.97 C 377.22 649.34 372.72 654.28 370.23 660.10 C 367.62 666.01 367.23 672.59 367.04 678.96 C 366.84 685.43 369.26 691.59 369.57 698.02 C 369.77 701.11 368.25 703.92 367.23 706.75 C 384.18 717.50 405.02 723.38 425.05 719.92 C 427.82 704.68 432.99 689.21 443.66 677.62 C 455.59 665.29 469.09 654.47 483.65 645.40 C 475.50 633.55 467.30 621.72 458.74 610.16 C 452.97 602.43 448.86 593.63 443.11 585.89 C 438.23 579.24 433.05 572.73 426.94 567.16 C 420.53 573.72 413.72 579.88 407.85 586.94 M 311.16 614.05 C 310.80 618.74 310.43 623.50 308.89 627.98 C 302.11 647.82 291.32 665.90 283.13 685.14 C 280.61 691.44 278.20 698.20 279.21 705.10 C 279.81 709.68 282.63 713.54 283.80 717.96 C 285.37 723.52 285.17 729.36 285.15 735.09 C 284.95 737.79 288.11 738.78 289.94 740.09 C 309.14 750.12 334.10 744.97 349.62 730.47 C 352.73 724.89 355.00 718.83 358.36 713.36 C 360.69 708.87 364.34 704.98 365.55 699.97 C 365.79 693.87 363.35 688.05 363.02 681.98 C 362.73 671.64 364.18 660.80 370.04 652.02 C 373.25 647.40 374.89 641.97 375.40 636.41 C 372.23 632.88 368.51 629.87 364.42 627.49 C 348.20 618.57 329.78 613.21 311.16 614.05 M 350.77 742.96 C 347.02 755.94 343.88 769.09 340.05 782.04 C 333.16 805.52 330.08 829.86 326.12 853.95 C 323.02 871.66 317.86 889.10 309.91 905.26 C 318.93 906.27 327.63 910.62 333.08 918.01 C 336.09 921.46 337.87 926.18 341.96 928.57 C 344.46 928.68 346.87 927.82 349.28 927.27 C 351.56 921.87 353.95 916.49 355.57 910.84 C 360.37 893.87 367.74 877.70 376.55 862.46 C 382.25 853.61 387.35 844.39 392.17 835.04 C 397.24 826.10 402.31 817.17 407.08 808.07 C 414.36 794.83 419.10 780.16 420.48 765.10 C 421.71 751.26 422.57 737.38 424.55 723.62 C 419.09 724.73 413.49 725.11 407.94 724.69 C 392.66 723.51 377.49 718.88 364.80 710.16 C 358.26 720.17 353.66 731.38 350.77 742.96 M 328.38 746.32 C 314.42 750.29 298.60 749.77 285.96 742.12 C 288.37 773.41 295.99 804.39 309.09 832.95 C 312.74 841.38 316.51 849.80 321.14 857.76 C 324.25 839.17 327.08 820.53 330.93 802.08 C 333.86 788.65 338.18 775.58 341.37 762.21 C 343.48 753.51 346.01 744.93 348.21 736.26 C 342.30 740.82 335.61 744.39 328.38 746.32 M 369.02 886.37 C 376.35 880.74 384.69 875.28 388.46 866.46 C 390.90 861.12 389.89 855.11 388.85 849.57 C 381.22 861.26 374.30 873.43 369.02 886.37 M 306.63 889.69 C 299.19 896.11 292.41 903.85 289.25 913.32 C 287.60 918.01 288.91 922.98 290.09 927.63 C 293.90 922.09 296.91 916.08 300.19 910.24 C 301.49 907.67 303.84 905.97 306.23 904.53 C 310.34 896.05 313.56 887.18 316.22 878.15 C 313.57 882.42 310.52 886.47 306.63 889.69 M 306.07 908.53 C 298.07 925.44 288.06 941.55 275.27 955.26 C 270.96 959.96 265.44 963.58 261.93 968.99 C 260.81 970.89 259.55 973.63 261.37 975.53 C 265.42 980.74 272.30 982.25 278.39 983.68 C 287.11 985.30 296.04 986.57 304.92 985.89 C 315.57 984.80 323.44 976.60 333.38 973.47 C 338.31 971.66 343.65 971.92 348.69 970.68 C 351.83 969.63 351.99 965.75 352.30 963.01 C 352.79 952.34 351.46 941.69 351.11 931.04 C 347.13 931.94 342.40 934.06 338.69 931.30 C 333.65 927.22 331.29 920.79 326.47 916.48 C 321.07 911.17 313.47 908.95 306.07 908.53 Z" />
		<path fill="#000000" opacity="1.00"
			d=" M 521.43 114.62 C 518.15 111.81 520.80 107.38 522.90 104.75 C 524.81 109.67 529.74 111.74 533.54 114.86 C 533.43 115.44 533.22 116.60 533.12 117.18 C 529.12 117.52 524.92 116.58 521.43 114.62 Z" />
		<path fill="#000000" opacity="1.00"
			d=" M 522.55 130.61 C 527.64 129.59 532.86 129.92 538.02 129.89 C 544.25 130.01 550.61 129.55 556.71 131.13 C 555.99 131.52 554.55 132.30 553.83 132.69 C 552.14 134.17 550.51 136.15 548.06 136.15 C 542.03 136.75 535.94 136.30 529.93 135.68 C 526.67 135.52 524.87 132.43 522.55 130.61 Z" />
		<path fill="#000000" opacity="1.00"
			d=" M 580.64 320.33 C 579.00 318.19 578.25 315.55 578.34 312.87 C 584.90 320.25 590.53 328.44 597.44 335.53 C 607.40 345.72 618.27 355.17 630.63 362.35 C 635.63 365.35 640.94 367.86 645.68 371.30 C 647.14 372.27 647.86 373.90 648.69 375.38 C 643.99 374.20 639.78 371.75 635.54 369.51 C 613.52 358.03 594.74 340.70 580.64 320.33 Z" />
		<path fill="#000000" opacity="1.00"
			d=" M 549.58 315.63 C 551.35 316.23 553.28 316.85 554.36 318.52 C 561.64 327.97 567.99 338.12 575.81 347.14 C 584.09 356.81 592.33 366.64 602.07 374.89 C 609.71 380.83 618.06 386.19 624.02 393.98 C 625.52 396.12 627.34 399.10 625.69 401.65 C 624.28 403.79 621.40 403.72 619.16 403.40 C 616.18 402.90 612.71 402.64 610.91 399.84 C 614.52 398.87 618.28 399.14 621.98 399.04 C 616.48 390.52 607.57 385.31 599.65 379.35 C 591.05 372.31 583.98 363.65 576.60 355.41 C 568.32 346.16 561.21 335.98 554.45 325.59 C 552.43 322.48 550.67 319.18 549.58 315.63 Z" />
	</g>
	<g id="#f0b58bff">
		<path fill="#f0b58b" opacity="1.00"
			d=" M 520.75 45.77 C 522.55 43.97 524.70 42.58 526.89 41.29 C 525.24 49.21 521.78 56.61 520.18 64.53 C 528.43 57.77 537.79 52.49 545.79 45.40 C 544.36 51.75 542.80 58.11 542.41 64.63 C 548.83 60.09 554.25 54.28 558.32 47.55 C 559.73 52.57 560.56 57.72 561.84 62.77 C 567.72 57.63 572.91 51.76 578.68 46.50 C 575.78 51.94 573.48 57.74 572.65 63.89 C 575.78 61.88 578.66 59.54 581.58 57.24 C 579.84 61.87 580.05 66.91 578.53 71.60 C 572.08 72.51 565.53 72.51 559.10 71.47 C 552.52 71.00 544.62 70.45 539.57 75.55 C 537.27 77.46 539.47 80.50 541.59 81.45 C 550.12 85.54 560.00 85.64 569.20 84.24 C 572.75 83.93 576.83 82.80 580.03 84.97 C 582.87 86.99 585.22 89.60 587.53 92.20 C 586.50 94.53 585.20 96.73 583.96 98.95 C 580.74 104.89 581.68 113.02 586.96 117.50 C 587.91 111.16 588.26 104.66 590.52 98.60 C 593.39 91.96 591.03 84.13 594.77 77.75 C 596.65 74.81 599.21 71.39 603.07 71.36 C 606.87 73.22 607.34 78.18 606.38 81.84 C 605.29 88.06 600.35 92.54 598.43 98.44 C 596.37 103.73 594.93 110.48 599.15 115.13 C 598.97 128.07 606.03 140.07 615.57 148.37 C 617.72 150.93 621.66 153.68 620.36 157.49 C 617.13 166.31 610.88 173.92 602.88 178.84 C 597.20 182.23 591.88 186.66 585.28 188.12 C 579.31 189.23 572.98 188.65 567.33 191.24 C 562.34 193.54 557.35 196.04 551.86 196.89 C 551.00 194.68 550.33 192.38 550.05 190.02 C 548.68 180.53 547.87 170.95 545.76 161.59 C 550.93 159.94 555.80 157.43 560.13 154.17 C 565.61 150.03 571.14 145.82 575.59 140.54 C 576.67 139.38 577.04 137.81 577.41 136.33 C 573.70 136.45 571.89 140.23 569.23 142.26 C 563.20 147.33 557.11 152.55 549.97 155.99 C 545.79 157.90 540.79 159.58 536.36 157.50 C 530.20 154.46 526.72 148.17 523.74 142.29 C 519.03 132.03 515.86 121.13 513.41 110.14 C 511.84 103.28 512.25 96.12 513.48 89.25 C 516.64 85.36 521.84 84.06 526.50 82.92 C 525.63 89.15 522.97 94.92 521.56 101.00 C 521.60 101.49 521.69 102.47 521.73 102.96 L 523.23 103.70 C 526.12 98.94 527.43 93.37 528.88 88.03 C 529.50 84.23 530.55 79.52 527.52 76.44 C 523.64 72.04 517.78 69.73 511.97 69.66 C 511.54 66.12 511.28 62.56 511.23 58.99 C 514.91 54.94 516.77 49.57 520.75 45.77 M 521.43 114.62 C 524.92 116.58 529.12 117.52 533.12 117.18 C 533.22 116.60 533.43 115.44 533.54 114.86 C 529.74 111.74 524.81 109.67 522.90 104.75 C 520.80 107.38 518.15 111.81 521.43 114.62 M 522.55 130.61 C 524.87 132.43 526.67 135.52 529.93 135.68 C 535.94 136.30 542.03 136.75 548.06 136.15 C 550.51 136.15 552.14 134.17 553.83 132.69 C 554.55 132.30 555.99 131.52 556.71 131.13 C 550.61 129.55 544.25 130.01 538.02 129.89 C 532.86 129.92 527.64 129.59 522.55 130.61 Z" />
		<path fill="#f0b58b" opacity="1.00"
			d=" M 314.00 236.89 C 318.15 238.38 322.41 239.53 326.75 240.31 C 327.62 245.07 329.41 249.69 332.38 253.55 C 333.72 255.58 335.85 257.37 336.01 259.96 C 336.41 266.68 335.21 273.42 336.01 280.13 C 336.19 282.12 337.43 284.78 339.83 284.54 C 339.82 278.69 339.54 272.84 339.73 266.99 C 339.64 262.77 340.45 258.00 337.59 254.45 C 334.43 250.37 331.82 245.83 330.66 240.76 C 331.59 239.69 332.53 238.63 333.49 237.58 C 342.82 246.73 348.76 258.54 355.54 269.56 C 357.39 272.21 357.95 275.39 357.64 278.57 C 355.82 278.74 353.99 278.90 352.19 279.13 C 356.78 282.35 362.71 281.54 367.95 282.77 C 389.14 286.58 411.19 288.35 432.31 283.09 C 440.21 280.86 448.43 280.10 456.62 280.37 C 460.48 284.85 464.27 289.40 467.82 294.13 C 462.51 305.00 463.97 317.51 466.86 328.83 C 453.83 329.66 440.77 330.35 427.72 329.73 C 418.23 329.20 408.44 329.26 399.53 325.49 C 387.39 320.69 374.88 316.96 362.53 312.75 C 356.66 310.80 350.31 311.27 344.45 309.31 C 339.04 307.15 334.64 302.56 332.88 296.97 C 329.30 286.35 328.58 274.95 324.57 264.44 C 321.86 257.12 317.19 250.80 313.38 244.06 C 319.10 248.01 323.13 254.12 329.33 257.35 C 329.38 256.77 329.49 255.59 329.54 255.00 C 324.98 248.42 316.28 245.04 314.00 236.89 Z" />
		<path fill="#f0b58b" opacity="1.00"
			d=" M 757.62 321.58 C 764.59 317.97 771.97 315.22 779.33 312.50 C 785.87 328.35 795.87 343.39 796.93 360.95 C 797.55 368.15 793.68 374.84 788.79 379.80 C 782.81 386.08 774.85 389.82 767.99 394.98 C 763.37 398.49 758.51 401.80 754.75 406.28 C 754.23 402.88 753.90 399.44 753.04 396.10 C 750.11 398.84 750.97 403.06 751.62 406.56 C 753.05 411.72 755.62 417.12 753.61 422.51 C 750.39 432.01 742.25 438.55 735.19 445.20 C 729.89 449.65 724.88 455.49 717.62 456.45 C 725.01 443.22 740.37 435.22 744.31 419.95 C 741.20 422.33 739.22 425.76 736.73 428.70 C 731.05 435.98 724.08 442.10 718.20 449.21 C 714.08 453.06 709.64 457.64 703.60 457.82 C 705.42 452.97 708.98 449.14 712.29 445.28 C 718.31 438.25 724.66 431.43 729.63 423.58 C 730.56 422.34 730.69 420.81 730.41 419.33 C 726.58 420.42 724.15 423.75 721.42 426.39 C 712.18 435.80 704.88 447.42 693.67 454.71 C 693.73 451.96 694.12 449.12 695.79 446.85 C 701.69 437.81 709.04 429.81 714.70 420.61 C 716.38 417.61 719.80 414.42 718.31 410.71 C 715.42 408.70 712.60 411.75 710.72 413.71 C 703.93 421.39 697.74 430.15 688.32 434.84 C 689.77 429.11 693.42 424.36 696.71 419.58 C 700.48 414.39 704.30 409.22 707.79 403.83 C 708.83 402.26 709.48 400.46 709.49 398.57 C 706.99 398.23 705.56 400.54 704.27 402.23 C 701.15 406.76 698.15 411.37 694.84 415.75 C 694.71 409.20 694.79 402.51 696.52 396.14 C 697.13 393.63 700.09 393.11 702.14 392.23 C 709.80 389.29 717.98 387.83 725.51 384.54 C 739.63 377.52 746.78 362.36 759.58 353.63 C 764.36 349.49 770.54 348.06 776.35 346.08 C 776.35 345.55 776.34 344.51 776.34 343.98 C 765.18 344.08 755.62 351.01 747.55 358.04 C 745.27 348.62 739.52 340.53 732.43 334.10 C 741.29 330.91 749.25 325.81 757.62 321.58 Z" />
		<path fill="#f0b58b" opacity="1.00"
			d=" M 407.85 586.94 C 413.72 579.88 420.53 573.72 426.94 567.16 C 433.05 572.73 438.23 579.24 443.11 585.89 C 448.86 593.63 452.97 602.43 458.74 610.16 C 467.30 621.72 475.50 633.55 483.65 645.40 C 469.09 654.47 455.59 665.29 443.66 677.62 C 432.99 689.21 427.82 704.68 425.05 719.92 C 405.02 723.38 384.18 717.50 367.23 706.75 C 368.25 703.92 369.77 701.11 369.57 698.02 C 369.26 691.59 366.84 685.43 367.04 678.96 C 367.23 672.59 367.62 666.01 370.23 660.10 C 372.72 654.28 377.22 649.34 378.31 642.97 C 379.36 637.29 379.99 631.48 382.18 626.09 C 387.91 611.41 397.77 598.86 407.85 586.94 Z" />
		<path fill="#f0b58b" opacity="1.00"
			d=" M 311.16 614.05 C 329.78 613.21 348.20 618.57 364.42 627.49 C 368.51 629.87 372.23 632.88 375.40 636.41 C 374.89 641.97 373.25 647.40 370.04 652.02 C 364.18 660.80 362.73 671.64 363.02 681.98 C 363.35 688.05 365.79 693.87 365.55 699.97 C 364.34 704.98 360.69 708.87 358.36 713.36 C 355.00 718.83 352.73 724.89 349.62 730.47 C 334.10 744.97 309.14 750.12 289.94 740.09 C 288.11 738.78 284.95 737.79 285.15 735.09 C 285.17 729.36 285.37 723.52 283.80 717.96 C 282.63 713.54 279.81 709.68 279.21 705.10 C 278.20 698.20 280.61 691.44 283.13 685.14 C 291.32 665.90 302.11 647.82 308.89 627.98 C 310.43 623.50 310.80 618.74 311.16 614.05 Z" />
	</g>
	<g id="#ef232eff">
		<path fill="var(--shirt-color, grey)" opacity="1.00"
			d=" M 617.96 144.98 C 623.18 146.45 628.52 147.54 633.59 149.49 C 639.34 151.65 643.83 156.05 649.30 158.75 C 659.50 163.98 671.17 164.96 681.73 169.23 C 692.84 173.77 704.64 178.02 713.29 186.69 C 721.99 195.46 726.48 207.40 729.32 219.19 C 731.38 228.61 733.71 238.01 737.26 247.00 C 731.33 241.78 726.99 234.84 720.41 230.41 C 721.83 235.71 725.66 239.79 729.22 243.77 C 736.74 251.92 744.77 259.59 753.26 266.72 C 762.39 274.21 771.58 281.86 778.60 291.45 C 781.66 295.62 783.83 300.34 785.99 305.03 C 777.41 308.35 768.51 310.93 760.36 315.27 C 748.80 320.90 737.93 328.10 725.51 331.79 C 720.86 325.64 718.37 318.24 714.39 311.69 C 707.29 299.57 697.75 288.51 685.35 281.62 C 678.43 277.79 670.92 274.54 662.96 273.92 C 661.10 273.51 659.67 274.83 658.26 275.76 C 665.02 277.62 671.82 279.50 678.18 282.55 C 672.55 297.10 663.42 310.44 651.10 320.12 C 646.91 323.42 641.61 324.61 636.94 327.00 C 637.86 328.92 640.01 329.09 641.86 328.67 C 647.28 327.58 652.37 325.04 656.61 321.51 C 668.36 311.92 677.07 298.82 681.90 284.49 C 683.25 285.30 684.60 286.11 685.97 286.92 C 683.35 293.78 680.53 300.57 677.01 307.02 C 674.38 312.06 671.21 316.83 669.09 322.13 C 666.09 329.42 665.50 337.41 662.80 344.80 C 660.98 350.06 658.00 354.83 656.41 360.17 C 653.35 369.39 657.99 379.60 653.63 388.56 C 646.97 401.68 634.77 410.89 627.82 423.82 C 625.08 428.77 622.99 434.32 623.26 440.06 C 623.55 444.09 624.97 447.96 625.07 452.03 C 625.18 457.50 623.39 462.77 621.38 467.79 C 611.33 452.74 595.41 442.85 578.91 436.22 C 562.48 430.49 547.46 421.53 531.71 414.25 C 525.86 411.74 520.45 407.52 513.85 407.35 C 517.30 411.79 522.69 413.91 527.40 416.70 C 540.86 423.62 554.25 430.73 568.09 436.88 C 583.11 442.22 597.94 449.28 609.52 460.46 C 614.95 466.22 620.05 472.63 622.82 480.13 C 625.36 486.74 624.01 493.92 622.78 500.66 C 588.57 482.05 548.47 475.60 509.90 479.42 C 494.93 481.00 479.88 479.47 464.93 478.47 C 444.23 476.98 423.98 472.17 403.84 467.46 C 406.42 456.01 409.94 444.05 418.52 435.58 C 421.18 432.88 425.19 432.16 428.75 433.25 C 445.91 438.53 464.17 441.09 480.02 449.99 C 486.82 453.80 494.10 456.87 501.84 458.08 C 514.83 460.17 528.05 460.25 541.16 459.71 C 543.01 459.72 544.65 458.79 546.28 458.02 C 538.33 455.72 530.04 457.21 521.93 456.62 C 512.32 456.07 502.53 455.70 493.34 452.57 C 486.67 450.34 480.85 446.26 474.41 443.53 C 461.91 438.21 448.64 435.09 435.52 431.73 C 439.07 424.25 444.30 417.72 450.58 412.36 C 448.17 409.86 444.67 408.10 443.56 404.61 C 442.51 400.52 442.95 396.21 443.67 392.10 C 445.45 382.80 448.22 373.48 453.56 365.56 C 455.28 362.86 457.96 360.90 461.01 359.97 C 470.57 356.87 480.68 355.77 490.12 352.22 C 499.06 348.88 507.71 344.75 515.96 339.95 C 518.11 338.79 519.86 337.04 521.23 335.02 C 515.55 336.43 510.87 340.12 505.64 342.57 C 497.25 346.57 488.68 350.40 479.58 352.51 C 475.36 353.51 471.13 354.40 466.90 355.33 C 468.19 350.97 468.89 346.28 471.42 342.41 C 474.60 338.27 479.72 336.26 483.00 332.20 C 479.73 333.35 476.58 334.78 473.41 336.18 C 469.53 327.32 467.91 317.51 468.31 307.88 C 468.86 297.49 476.51 289.15 477.31 278.84 C 478.39 266.79 477.30 254.38 480.87 242.67 C 482.70 236.40 486.84 231.00 487.92 224.49 C 483.98 228.56 481.18 233.59 478.93 238.75 C 473.65 251.87 475.14 266.30 473.49 280.06 C 472.98 283.79 471.21 287.17 469.74 290.59 C 465.55 284.45 460.50 279.01 455.56 273.49 C 460.51 268.12 464.37 261.82 467.09 255.05 C 471.52 243.99 474.63 232.43 476.86 220.73 C 479.11 210.30 481.10 199.28 487.53 190.46 C 492.81 183.93 499.37 177.76 507.76 175.70 C 519.22 172.29 532.75 173.58 542.04 164.79 C 544.63 174.66 544.40 185.00 546.67 194.92 C 547.37 197.79 549.66 201.02 552.98 200.62 C 558.68 199.94 563.84 197.25 569.04 195.01 C 575.22 192.33 582.20 193.51 588.54 191.43 C 594.44 189.57 599.43 185.78 604.62 182.54 C 613.67 176.91 621.06 168.21 624.18 157.94 C 625.76 152.60 621.10 148.55 617.96 144.98 M 580.64 320.33 C 594.74 340.70 613.52 358.03 635.54 369.51 C 639.78 371.75 643.99 374.20 648.69 375.38 C 647.86 373.90 647.14 372.27 645.68 371.30 C 640.94 367.86 635.63 365.35 630.63 362.35 C 618.27 355.17 607.40 345.72 597.44 335.53 C 590.53 328.44 584.90 320.25 578.34 312.87 C 578.25 315.55 579.00 318.19 580.64 320.33 M 549.58 315.63 C 550.67 319.18 552.43 322.48 554.45 325.59 C 561.21 335.98 568.32 346.16 576.60 355.41 C 583.98 363.65 591.05 372.31 599.65 379.35 C 607.57 385.31 616.48 390.52 621.98 399.04 C 618.28 399.14 614.52 398.87 610.91 399.84 C 612.71 402.64 616.18 402.90 619.16 403.40 C 621.40 403.72 624.28 403.79 625.69 401.65 C 627.34 399.10 625.52 396.12 624.02 393.98 C 618.06 386.19 609.71 380.83 602.07 374.89 C 592.33 366.64 584.09 356.81 575.81 347.14 C 567.99 338.12 561.64 327.97 554.36 318.52 C 553.28 316.85 551.35 316.23 549.58 315.63 Z" />
	</g>
	<g id="#2d3dd0ff">
		<path fill="var(--pants-color, grey)" opacity="1.00"
			d=" M 386.62 489.70 C 393.33 484.77 396.56 476.78 402.03 470.72 C 409.00 473.67 416.57 474.58 423.85 476.45 C 446.48 481.93 469.80 483.46 492.99 484.23 C 505.03 484.60 516.97 482.42 529.01 482.57 C 560.65 482.47 592.83 488.92 620.72 504.22 C 616.47 518.47 615.42 534.16 606.72 546.69 C 602.79 552.75 599.89 559.59 594.59 564.65 C 589.40 569.87 585.68 576.33 580.58 581.62 C 568.71 592.69 557.97 604.94 545.48 615.35 C 539.51 620.14 532.57 623.65 526.96 628.92 C 518.79 635.98 514.38 646.21 506.65 653.66 C 503.57 656.77 500.22 659.60 496.74 662.25 C 494.60 658.54 492.86 654.63 491.14 650.72 C 487.68 642.99 482.56 636.20 477.79 629.26 C 472.62 621.78 467.15 614.51 461.74 607.21 C 455.67 599.06 451.41 589.75 445.34 581.62 C 440.97 575.76 436.46 569.87 430.80 565.18 C 429.08 563.76 426.18 561.99 424.47 564.38 C 418.68 570.30 412.40 575.74 407.04 582.07 C 394.26 596.91 381.49 612.81 376.13 632.01 C 368.66 625.06 359.28 620.77 349.84 617.20 C 335.99 611.79 320.81 609.58 306.04 611.64 C 307.57 592.69 316.42 575.39 326.68 559.75 C 335.34 547.09 342.93 533.65 352.81 521.87 C 355.61 518.68 359.29 516.39 361.91 513.02 C 366.36 507.42 370.06 501.24 374.87 495.91 C 377.83 492.27 383.09 492.52 386.62 489.70 Z" />
		<path fill="var(--socks-color, grey)" opacity="1.00"
			d=" M 350.77 742.96 C 353.66 731.38 358.26 720.17 364.80 710.16 C 377.49 718.88 392.66 723.51 407.94 724.69 C 413.49 725.11 419.09 724.73 424.55 723.62 C 422.57 737.38 421.71 751.26 420.48 765.10 C 419.10 780.16 414.36 794.83 407.08 808.07 C 402.31 817.17 397.24 826.10 392.17 835.04 C 387.35 844.39 382.25 853.61 376.55 862.46 C 367.74 877.70 360.37 893.87 355.57 910.84 C 353.95 916.49 351.56 921.87 349.28 927.27 C 346.87 927.82 344.46 928.68 341.96 928.57 C 337.87 926.18 336.09 921.46 333.08 918.01 C 327.63 910.62 318.93 906.27 309.91 905.26 C 317.86 889.10 323.02 871.66 326.12 853.95 C 330.08 829.86 333.16 805.52 340.05 782.04 C 343.88 769.09 347.02 755.94 350.77 742.96 Z" />
		<path fill="var(--socks-color, grey)" opacity="1.00"
			d=" M 328.38 746.32 C 335.61 744.39 342.30 740.82 348.21 736.26 C 346.01 744.93 343.48 753.51 341.37 762.21 C 338.18 775.58 333.86 788.65 330.93 802.08 C 327.08 820.53 324.25 839.17 321.14 857.76 C 316.51 849.80 312.74 841.38 309.09 832.95 C 295.99 804.39 288.37 773.41 285.96 742.12 C 298.60 749.77 314.42 750.29 328.38 746.32 Z" />
	</g>
	<g id="#4d4d4dff">
		<path fill="#4d4d4d" opacity="1.00"
			d=" M 369.02 886.37 C 374.30 873.43 381.22 861.26 388.85 849.57 C 389.89 855.11 390.90 861.12 388.46 866.46 C 384.69 875.28 376.35 880.74 369.02 886.37 Z" />
		<path fill="#4d4d4d" opacity="1.00"
			d=" M 306.63 889.69 C 310.52 886.47 313.57 882.42 316.22 878.15 C 313.56 887.18 310.34 896.05 306.23 904.53 C 303.84 905.97 301.49 907.67 300.19 910.24 C 296.91 916.08 293.90 922.09 290.09 927.63 C 288.91 922.98 287.60 918.01 289.25 913.32 C 292.41 903.85 299.19 896.11 306.63 889.69 Z" />
		<path fill="#4d4d4d" opacity="1.00"
			d=" M 306.07 908.53 C 313.47 908.95 321.07 911.17 326.47 916.48 C 331.29 920.79 333.65 927.22 338.69 931.30 C 342.40 934.06 347.13 931.94 351.11 931.04 C 351.46 941.69 352.79 952.34 352.30 963.01 C 351.99 965.75 351.83 969.63 348.69 970.68 C 343.65 971.92 338.31 971.66 333.38 973.47 C 323.44 976.60 315.57 984.80 304.92 985.89 C 296.04 986.57 287.11 985.30 278.39 983.68 C 272.30 982.25 265.42 980.74 261.37 975.53 C 259.55 973.63 260.81 970.89 261.93 968.99 C 265.44 963.58 270.96 959.96 275.27 955.26 C 288.06 941.55 298.07 925.44 306.07 908.53 Z" />
	</g>
</svg>