<?xml version="1.0" encoding="UTF-8" ?>
<!DOCTYPE svg PUBLIC "-//W3C//DTD SVG 1.1//EN" "http://www.w3.org/Graphics/SVG/1.1/DTD/svg11.dtd">
<svg width="1000pt" height="1000pt" viewBox="0 0 1000 1000" version="1.1" xmlns="http://www.w3.org/2000/svg">
	<g id="#020202ff">
		<path fill="#020202" opacity="1.00"
			d=" M 328.16 32.16 C 336.37 22.78 348.88 18.50 360.95 17.06 C 382.55 14.59 404.67 22.01 421.38 35.68 C 431.03 44.43 439.79 56.26 439.31 69.92 C 439.36 77.20 436.40 83.93 433.32 90.35 C 432.87 95.99 434.95 101.62 437.46 106.61 C 439.96 110.70 443.12 115.27 448.09 116.42 C 451.89 116.66 455.75 115.54 459.52 116.59 C 466.05 118.23 472.61 120.77 477.61 125.42 C 481.61 128.77 484.22 133.54 488.59 136.46 C 494.87 140.15 502.15 141.40 508.84 144.11 C 518.72 147.85 527.38 154.02 536.00 160.00 C 545.44 166.59 556.97 168.64 567.59 172.53 C 581.75 177.58 595.22 185.35 605.46 196.49 C 610.68 202.10 610.25 210.39 608.89 217.39 C 616.67 223.56 622.89 231.47 628.38 239.68 C 633.25 246.83 635.96 255.25 637.09 263.78 C 639.70 283.34 635.39 302.94 630.66 321.84 C 626.97 337.71 621.65 353.13 616.87 368.70 C 614.98 374.62 613.72 380.85 614.53 387.09 C 615.68 396.72 616.72 406.59 614.64 416.18 C 612.81 424.94 614.42 434.34 618.96 442.04 C 621.77 447.21 625.25 452.20 626.48 458.04 C 626.89 460.23 626.46 463.39 623.93 464.05 C 621.64 464.52 619.75 462.74 617.86 461.78 C 618.84 466.10 621.07 471.20 618.31 475.29 C 614.72 477.81 611.47 473.78 609.09 471.50 C 610.42 476.55 612.25 482.13 610.16 487.23 C 609.39 489.42 606.92 488.78 605.14 488.83 C 607.03 502.24 607.99 516.64 602.33 529.33 C 599.75 534.82 596.57 540.13 595.31 546.14 C 593.68 554.00 594.26 562.07 594.22 570.04 C 594.47 584.67 593.62 599.32 594.81 613.93 C 595.91 627.09 596.09 640.39 598.74 653.38 C 597.22 653.74 595.71 654.10 594.20 654.46 C 595.96 665.22 599.87 675.80 606.40 684.59 C 615.65 696.17 628.51 703.96 640.09 712.94 C 653.57 723.55 663.72 737.68 672.87 752.02 C 679.64 762.46 685.55 773.42 691.78 784.18 C 699.02 796.39 707.01 808.14 715.27 819.69 C 723.23 830.34 732.00 840.39 739.88 851.10 C 743.54 857.76 747.77 864.09 750.99 870.99 C 755.67 880.91 762.27 890.01 765.14 900.72 C 766.56 905.81 766.12 911.59 762.98 915.97 C 758.25 923.57 749.71 927.15 741.96 930.81 C 727.17 937.74 717.24 952.00 702.15 958.38 C 686.92 962.83 670.50 964.04 655.00 960.20 C 650.95 959.12 646.55 957.42 644.31 953.63 C 642.46 950.42 643.94 946.55 645.70 943.65 C 652.74 932.93 663.39 925.22 670.64 914.65 C 675.82 907.78 679.59 900.04 683.54 892.44 C 685.50 888.71 688.19 884.69 686.68 880.29 C 684.60 874.11 682.00 868.03 678.55 862.48 C 670.57 850.94 659.67 841.89 648.99 832.96 C 631.57 818.48 614.95 803.01 599.52 786.42 C 592.31 778.63 585.17 770.79 578.16 762.82 C 572.03 756.29 565.98 749.33 557.94 745.08 C 548.17 739.70 537.21 735.94 529.06 728.04 C 522.04 720.36 517.84 710.67 513.70 701.25 C 509.32 690.69 504.31 680.38 500.44 669.61 C 499.12 665.88 497.44 662.30 495.79 658.73 C 493.59 657.59 489.72 657.35 490.12 654.03 C 489.44 645.21 489.86 636.35 489.16 627.53 C 478.17 638.32 464.82 646.33 451.07 653.09 C 448.30 654.25 445.33 655.97 442.25 655.34 C 436.76 652.10 432.76 646.56 426.59 644.42 C 421.76 642.47 416.42 643.59 411.45 642.40 C 407.90 641.42 404.87 639.25 401.79 637.33 C 396.02 639.35 390.37 641.69 384.99 644.61 C 399.57 649.19 410.72 660.40 420.07 672.01 C 432.55 687.93 444.36 704.36 456.06 720.86 C 465.95 734.48 474.53 749.43 487.50 760.46 C 493.85 765.98 501.33 769.92 508.12 774.85 C 514.80 779.62 522.31 783.14 528.76 788.22 C 534.71 793.82 540.09 801.35 539.43 809.93 C 538.64 817.74 533.92 824.36 529.53 830.60 C 525.02 837.25 520.08 843.66 514.17 849.14 C 509.15 853.81 503.72 858.09 499.33 863.40 C 492.00 871.70 487.62 882.12 480.32 890.44 C 473.45 899.08 464.25 905.64 454.35 910.36 C 447.77 912.93 440.50 914.51 433.45 913.38 C 429.12 912.74 425.69 909.16 424.70 904.99 C 424.35 902.36 425.29 899.78 426.31 897.41 C 433.97 881.85 446.18 868.37 450.10 851.11 C 453.73 838.90 454.80 826.18 456.31 813.59 C 452.25 806.29 445.92 800.79 440.24 794.81 C 433.38 788.47 425.47 783.41 417.67 778.33 C 409.69 773.23 401.72 768.10 393.44 763.49 C 379.57 755.65 367.09 745.37 356.84 733.17 C 347.13 721.29 337.10 709.55 325.50 699.46 C 317.80 693.88 310.83 687.34 302.95 682.01 C 295.86 677.72 288.87 671.18 288.42 662.35 C 287.78 650.20 289.61 638.09 290.84 626.03 C 291.48 619.60 292.95 613.10 296.58 607.65 C 304.26 595.02 317.21 587.19 329.20 579.20 C 332.73 576.92 336.26 574.66 339.83 572.46 C 342.01 568.21 346.23 565.77 349.74 562.78 C 357.16 556.94 364.02 550.44 371.02 544.12 C 388.08 529.28 405.70 514.98 424.75 502.77 C 427.70 500.93 430.98 499.70 433.89 497.79 C 436.13 496.36 436.76 493.52 436.86 491.05 C 436.94 487.03 436.74 482.82 434.92 479.16 C 432.90 475.42 433.67 471.06 433.56 467.00 C 433.85 456.30 432.25 445.67 431.90 434.99 C 431.69 426.85 430.33 418.77 428.20 410.92 C 426.92 405.88 423.17 401.86 422.20 396.71 C 420.22 386.90 419.66 376.82 416.99 367.14 C 414.90 359.81 412.79 352.41 409.33 345.58 C 406.29 339.52 403.39 333.39 400.83 327.12 C 398.16 320.55 394.72 314.19 393.57 307.12 C 392.69 301.95 388.71 298.23 386.26 293.81 C 378.54 278.38 370.47 263.10 363.32 247.38 C 353.87 247.90 344.42 248.65 335.12 250.50 C 330.44 251.29 325.76 252.76 320.97 252.40 C 316.93 251.25 313.56 248.59 310.02 246.43 C 301.61 250.96 292.31 253.51 283.03 255.55 C 273.15 257.71 262.91 257.53 252.96 255.98 C 237.60 253.55 223.04 247.92 208.56 242.47 C 193.53 236.53 177.10 234.00 161.00 235.50 C 151.95 236.75 143.15 239.65 133.98 240.05 C 125.02 240.31 116.53 237.05 107.94 234.98 C 104.55 233.91 100.04 232.87 98.97 228.94 C 98.04 225.89 100.91 223.58 103.45 222.69 C 112.54 219.62 122.91 221.92 131.44 216.89 C 124.97 211.52 116.29 208.08 107.83 209.77 C 100.33 210.64 94.18 215.57 86.98 217.41 C 84.00 218.12 80.95 215.01 81.69 212.04 C 82.97 206.06 88.32 202.24 93.15 199.11 C 100.52 194.58 109.18 190.33 118.07 192.24 C 125.79 193.76 133.36 196.00 141.09 197.51 C 151.71 199.91 162.83 200.08 173.10 203.99 C 179.70 206.69 186.95 206.51 193.95 206.74 C 216.33 206.98 238.87 206.57 260.94 202.42 C 267.54 201.14 274.24 199.56 281.01 200.49 C 281.11 198.20 280.54 195.70 281.53 193.56 C 284.31 189.64 288.47 187.02 292.37 184.35 C 309.20 172.92 330.78 170.43 346.38 156.93 C 343.35 150.96 339.88 144.55 333.71 141.35 C 329.72 139.05 323.57 142.94 320.85 138.22 C 318.07 132.52 320.01 126.04 320.09 120.01 C 320.46 110.99 318.61 102.10 316.37 93.42 C 314.26 83.69 313.71 73.36 316.59 63.72 C 313.26 57.51 315.56 50.00 319.92 44.94 C 323.41 41.17 324.66 35.93 328.16 32.16 M 327.57 56.57 C 325.59 61.82 328.15 67.28 329.43 72.39 C 325.99 70.75 322.72 68.81 319.50 66.79 C 318.63 74.67 318.41 82.64 319.56 90.51 C 322.81 87.64 326.54 85.11 330.91 84.40 C 340.39 82.62 350.12 85.34 358.83 89.03 C 353.89 96.05 346.46 100.69 339.67 105.72 C 338.34 106.36 337.08 108.14 335.47 107.50 C 333.02 105.37 332.23 102.09 331.47 99.09 C 327.62 98.51 324.07 96.87 320.76 94.86 C 322.70 102.09 324.10 109.49 324.08 117.00 C 324.32 123.58 322.12 130.27 324.17 136.73 C 328.85 136.25 333.96 135.96 337.94 138.96 C 347.97 145.74 350.98 158.12 357.15 167.85 C 358.51 169.66 360.27 172.59 362.95 171.47 C 367.47 169.94 371.39 167.05 375.02 164.00 C 381.48 158.47 387.38 152.33 393.20 146.14 C 396.14 143.13 398.27 139.14 402.22 137.27 C 399.94 144.34 394.37 149.64 390.05 155.49 C 404.14 166.52 406.53 185.67 407.78 202.31 C 410.79 191.16 414.30 180.02 419.95 169.89 C 425.87 159.05 433.80 149.41 439.19 138.27 C 441.89 132.69 443.87 126.80 446.07 121.01 C 435.74 116.60 431.33 104.99 430.11 94.57 C 422.15 104.33 411.14 112.18 398.64 114.62 C 400.15 107.80 402.55 101.08 402.28 94.00 C 402.49 85.97 399.08 77.14 391.58 73.36 C 388.53 71.42 385.06 73.86 382.92 76.04 C 380.06 78.85 380.07 83.10 378.55 86.59 C 375.22 88.14 371.58 88.88 368.05 89.79 C 364.90 81.63 362.23 73.06 356.20 66.45 C 351.43 71.14 344.32 73.81 337.70 71.98 C 336.95 66.68 337.64 60.50 333.77 56.24 C 332.28 54.24 328.51 53.87 327.57 56.57 M 451.29 119.77 C 448.68 124.70 447.27 130.12 445.22 135.29 C 440.74 147.24 432.76 157.37 426.18 168.19 C 418.65 180.36 414.02 194.09 410.96 208.01 C 410.09 211.44 410.01 215.18 408.15 218.29 C 407.59 218.30 406.48 218.34 405.92 218.36 C 403.61 215.90 403.91 212.21 403.53 209.09 C 403.07 198.81 402.58 188.46 400.43 178.37 C 398.60 170.45 393.89 163.45 387.66 158.31 C 382.18 164.05 376.16 169.35 369.15 173.14 C 365.87 175.07 361.64 177.42 357.94 175.16 C 353.19 171.96 351.02 166.36 348.51 161.45 C 330.07 176.94 304.06 179.12 286.20 195.45 C 285.70 198.31 286.42 201.22 287.14 203.98 C 289.09 211.12 291.80 218.08 295.58 224.45 C 299.24 230.84 304.76 235.90 310.42 240.50 C 314.07 243.12 317.75 245.93 322.02 247.46 C 327.10 247.61 332.04 246.05 337.06 245.44 C 345.22 244.00 353.50 243.67 361.77 243.65 C 358.59 236.07 355.25 228.39 349.83 222.10 C 346.49 217.79 341.90 214.31 340.00 209.03 C 346.05 211.49 350.18 216.81 354.64 221.34 C 360.16 227.00 363.65 234.19 366.57 241.43 C 372.86 255.59 379.31 269.68 386.54 283.39 C 388.81 288.56 391.50 293.52 394.91 298.03 C 398.56 302.75 398.24 309.04 400.67 314.30 C 404.86 323.51 408.46 332.99 413.15 341.97 C 417.32 349.74 419.83 358.24 422.19 366.70 C 424.70 375.95 425.37 385.55 427.18 394.94 C 427.97 399.54 431.18 403.17 432.66 407.51 C 436.15 418.31 437.20 429.72 437.25 441.02 C 437.96 452.40 438.65 463.82 437.35 475.19 C 442.26 474.68 447.26 474.75 452.07 475.99 C 467.82 479.81 482.69 486.63 498.51 490.18 C 507.71 492.25 516.75 488.70 525.00 484.97 C 542.74 477.20 559.72 467.65 575.32 456.14 C 572.65 451.30 569.43 446.76 567.13 441.72 C 564.52 436.23 564.85 429.95 564.81 424.03 C 565.42 414.27 567.30 404.64 569.33 395.10 C 566.80 392.44 564.25 389.71 562.65 386.38 C 559.94 381.05 559.40 375.02 557.74 369.36 C 556.00 363.38 554.55 357.28 554.09 351.05 C 553.73 345.99 554.82 341.00 555.60 336.03 C 558.10 320.16 558.99 304.07 559.02 288.01 C 559.12 281.21 558.75 274.24 561.06 267.72 C 552.33 259.95 542.82 253.07 532.65 247.31 C 525.90 243.89 518.33 242.63 511.02 241.00 C 505.62 239.69 499.85 240.21 494.69 237.99 C 502.11 236.68 509.58 238.39 516.88 239.70 C 510.27 237.01 503.59 234.50 496.82 232.23 C 491.89 230.47 486.75 229.17 482.14 226.63 C 484.27 226.18 486.47 225.88 488.61 226.49 C 515.67 233.46 542.22 245.07 562.80 264.39 C 569.24 260.50 575.40 256.10 580.73 250.76 C 590.14 241.46 599.29 231.02 602.96 218.01 C 604.30 212.91 605.93 207.21 603.97 202.10 C 596.14 192.29 585.25 185.29 573.90 180.16 C 560.56 173.98 545.28 172.43 532.94 164.06 C 524.22 158.22 515.54 151.98 505.55 148.48 C 498.12 145.74 489.89 144.47 483.50 139.50 C 478.75 135.28 475.47 129.51 469.98 126.10 C 464.31 122.68 457.90 120.37 451.29 119.77 M 95.44 202.49 C 91.05 205.19 86.40 208.47 85.12 213.80 C 93.37 212.17 100.52 206.92 108.98 205.93 C 117.73 204.45 126.67 208.22 133.39 213.65 C 135.90 215.47 135.12 219.17 132.63 220.60 C 123.57 227.05 110.95 221.56 101.93 227.92 C 105.81 230.83 110.69 231.56 115.25 232.82 C 122.03 234.62 128.96 236.79 136.06 235.98 C 143.79 235.08 151.28 232.82 158.93 231.50 C 176.38 229.19 194.26 232.05 210.59 238.41 C 229.07 245.37 247.94 252.94 267.97 253.31 C 281.65 253.44 294.88 249.20 307.68 244.80 C 301.48 239.60 295.23 234.12 291.18 226.99 C 286.81 219.77 283.92 211.78 281.69 203.67 C 276.83 203.81 271.95 204.11 267.18 205.10 C 253.26 207.89 239.14 209.74 224.95 210.27 C 210.64 210.72 196.31 211.22 182.01 210.29 C 176.04 210.08 170.72 207.14 164.97 205.92 C 156.93 204.00 148.64 203.51 140.58 201.69 C 132.71 200.17 125.00 197.90 117.13 196.35 C 109.37 194.79 101.90 198.62 95.44 202.49 M 607.78 221.46 C 602.56 237.85 590.49 251.17 577.08 261.49 C 584.39 266.44 587.73 275.33 587.57 283.92 C 588.06 317.41 579.69 350.11 575.59 383.17 C 573.20 399.74 567.31 416.06 568.80 433.00 C 568.98 439.12 572.74 444.22 575.55 449.41 C 578.34 454.74 582.03 459.54 585.91 464.12 C 586.92 465.37 588.39 466.08 589.78 466.84 C 584.97 457.24 579.26 447.85 576.74 437.32 C 580.59 440.32 582.55 444.93 585.07 448.97 C 590.32 458.59 596.13 467.88 601.63 477.35 C 603.24 480.08 605.13 482.64 607.22 485.03 C 607.66 474.71 604.00 464.42 597.71 456.29 C 593.53 449.41 588.45 442.85 585.85 435.16 C 588.65 437.04 590.41 439.96 592.41 442.60 C 595.68 446.98 599.19 451.18 602.34 455.66 C 606.69 461.64 610.59 468.11 616.27 472.98 C 616.75 462.72 611.51 453.31 605.74 445.21 C 602.63 439.89 598.30 435.15 596.52 429.16 C 597.97 429.64 599.68 429.96 600.58 431.38 C 605.53 437.53 609.84 444.16 614.50 450.53 C 617.10 454.04 619.39 457.87 622.86 460.63 C 621.89 454.92 618.54 450.13 615.77 445.18 C 610.40 436.30 608.46 425.35 610.62 415.18 C 612.53 405.88 611.12 396.38 610.26 387.06 C 609.34 377.30 612.96 367.99 615.62 358.79 C 621.54 340.80 626.54 322.51 630.43 303.97 C 633.37 287.57 635.42 270.24 630.19 254.06 C 627.99 246.65 622.92 240.69 618.66 234.41 C 615.45 229.76 611.62 225.59 607.78 221.46 M 563.96 269.58 C 562.33 277.94 563.04 286.49 562.88 294.95 C 563.10 310.83 561.15 326.66 558.17 342.23 C 555.55 354.27 561.27 365.77 563.70 377.31 C 564.69 382.28 567.11 386.81 570.30 390.70 C 572.11 382.55 572.66 374.20 574.09 365.98 C 577.99 339.77 583.28 313.61 583.37 287.01 C 583.21 281.78 583.03 276.31 580.51 271.59 C 578.96 268.50 576.43 266.09 573.99 263.71 C 570.73 265.81 567.41 267.83 563.96 269.58 M 577.58 459.21 C 564.63 470.40 549.57 478.79 534.31 486.38 C 528.04 489.28 521.76 492.26 515.16 494.36 C 507.66 496.77 499.50 496.16 492.04 493.89 C 482.42 491.02 472.99 487.55 463.47 484.37 C 455.95 481.91 448.28 479.43 440.28 479.56 C 441.52 484.53 442.98 489.76 441.65 494.88 C 440.68 499.23 436.94 502.03 434.77 505.73 C 427.14 518.65 422.40 533.15 420.04 547.94 C 418.45 558.32 417.32 569.09 420.06 579.39 C 415.79 577.29 415.59 572.23 415.33 568.10 C 414.73 546.28 419.80 524.18 431.01 505.35 C 427.87 507.29 424.04 508.70 422.08 512.05 C 416.64 520.92 412.94 530.80 411.06 541.04 C 409.59 546.94 409.45 553.17 407.15 558.85 C 405.95 552.17 407.46 545.42 408.46 538.82 C 409.99 529.43 414.14 520.74 419.28 512.83 C 406.55 521.35 394.53 530.89 382.82 540.76 C 370.11 551.03 358.85 563.12 345.01 571.94 C 350.55 584.54 359.94 594.86 369.86 604.18 C 379.53 613.20 389.48 621.94 399.89 630.10 C 404.79 633.58 409.75 637.93 416.04 638.28 C 420.21 638.63 424.55 638.74 428.38 640.63 C 434.29 643.52 438.96 648.30 443.65 652.81 C 457.63 644.76 472.34 637.44 484.07 626.13 C 497.68 613.49 508.16 597.74 515.63 580.80 C 513.15 583.42 510.65 586.18 507.20 587.53 C 509.49 579.90 515.92 574.78 521.48 569.52 C 531.29 560.36 543.33 554.15 553.79 545.84 C 558.37 542.30 562.01 537.68 566.77 534.35 C 566.04 536.81 564.99 539.23 563.21 541.13 C 558.03 546.96 552.40 552.45 546.00 556.93 C 538.76 562.05 531.25 566.83 524.51 572.62 C 522.45 574.50 519.75 576.14 519.07 579.05 C 516.02 589.67 510.44 599.31 504.53 608.56 C 501.23 613.75 497.40 618.58 493.30 623.16 C 493.69 633.21 494.01 643.27 494.43 653.32 C 512.55 657.25 530.63 661.55 549.03 664.00 C 554.61 664.72 560.30 665.29 565.90 664.48 C 569.38 664.08 571.11 660.63 573.61 658.61 C 579.19 653.38 586.86 651.48 594.27 650.80 C 593.49 647.55 592.84 644.26 592.59 640.93 C 591.02 623.98 589.20 607.00 589.56 589.95 C 589.72 577.98 589.17 566.00 589.57 554.04 C 589.78 546.23 592.13 538.65 595.86 531.83 C 599.77 524.85 602.15 517.02 602.35 509.00 C 602.52 500.76 602.67 492.34 600.84 484.27 C 597.92 478.88 594.25 473.90 591.14 468.62 C 589.15 468.67 586.75 469.53 585.16 467.91 C 582.25 465.37 580.03 462.17 577.58 459.21 M 323.23 589.20 C 313.55 595.58 304.15 603.26 298.74 613.73 C 295.69 619.50 295.48 626.17 294.76 632.51 C 293.86 639.31 293.72 646.18 293.52 653.03 C 293.53 658.01 293.25 663.20 295.07 667.94 C 297.16 671.89 300.01 675.64 303.96 677.89 C 307.71 680.11 311.08 682.87 314.47 685.59 C 317.57 688.33 322.01 687.16 325.63 686.39 C 337.77 683.00 348.74 676.31 358.57 668.56 C 364.53 663.62 370.59 658.22 373.64 650.92 C 369.91 653.12 366.58 655.97 362.66 657.83 C 361.29 658.62 359.84 657.41 359.78 655.99 C 361.61 653.39 364.47 651.83 366.99 650.01 C 376.47 643.46 386.81 638.09 397.69 634.29 C 388.36 627.00 379.50 619.13 370.73 611.19 C 359.73 601.01 348.69 590.23 342.26 576.45 C 335.76 580.47 329.41 584.72 323.23 589.20 M 378.56 648.11 C 378.18 657.52 370.75 664.38 364.21 670.25 C 351.88 680.34 337.47 688.94 321.47 691.24 C 331.37 697.91 339.58 706.66 347.64 715.37 C 355.06 723.35 361.02 732.62 369.01 740.07 C 378.92 749.91 390.84 757.34 403.06 763.94 C 419.16 773.75 436.12 782.94 449.05 796.95 C 453.13 800.92 457.13 805.18 459.40 810.49 C 460.58 812.65 460.92 815.96 463.86 816.42 C 470.63 818.15 478.02 815.75 482.95 810.92 C 489.77 804.37 496.27 796.57 498.02 787.01 C 499.16 782.16 497.55 777.33 496.53 772.62 C 487.80 767.23 479.71 760.73 473.17 752.79 C 464.18 741.94 456.72 729.93 448.30 718.64 C 437.23 703.12 426.28 687.49 414.56 672.45 C 405.80 661.32 394.85 651.38 381.29 646.58 C 380.38 647.08 379.47 647.59 378.56 648.11 M 575.82 662.75 C 573.67 665.24 571.81 668.51 568.28 669.13 C 559.20 671.16 549.87 669.34 540.83 668.03 C 527.70 665.66 514.62 662.98 501.62 659.96 C 505.41 667.57 507.85 675.75 511.58 683.40 C 517.90 696.89 522.38 711.53 531.60 723.45 C 539.59 732.22 551.44 735.61 561.41 741.51 C 564.16 742.92 566.56 745.62 569.93 745.26 C 582.86 744.84 595.13 738.17 603.80 728.76 C 610.98 721.07 615.20 710.61 614.65 700.03 C 612.20 697.93 609.76 695.79 607.51 693.48 C 597.09 683.45 590.84 669.19 590.33 654.77 C 584.97 656.24 579.55 658.48 575.82 662.75 M 618.56 703.06 C 618.66 709.39 617.50 715.78 614.51 721.41 C 606.51 737.30 589.86 748.40 572.10 749.60 C 580.38 757.44 587.62 766.27 595.39 774.60 C 611.96 793.03 629.98 810.12 648.99 826.02 C 660.32 835.63 672.19 844.92 681.16 856.90 C 686.03 863.16 688.82 870.69 691.58 878.05 C 696.39 878.05 701.22 878.31 706.03 878.06 C 717.81 876.98 728.82 870.04 735.10 860.05 C 736.16 858.28 736.47 856.22 736.93 854.26 C 729.39 844.72 721.89 835.16 714.29 825.67 C 706.97 815.87 700.03 805.78 693.56 795.39 C 685.04 782.09 677.89 767.96 669.23 754.76 C 659.60 739.59 648.67 724.68 633.81 714.25 C 628.63 710.65 623.47 707.01 618.56 703.06 M 501.91 775.92 C 503.25 782.78 502.73 790.08 499.43 796.34 C 495.71 803.57 490.41 809.96 484.30 815.28 C 477.64 820.95 468.17 822.13 459.96 819.64 C 458.45 838.69 455.08 858.33 444.86 874.82 C 441.19 881.14 437.59 887.50 433.62 893.64 C 431.68 896.89 429.39 900.15 428.82 903.98 C 429.03 907.60 432.81 909.34 436.02 909.36 C 443.33 909.61 450.74 907.76 457.01 903.97 C 464.37 899.63 471.26 894.33 476.64 887.64 C 484.18 879.23 488.73 868.66 496.18 860.19 C 501.03 854.37 507.18 849.88 512.66 844.70 C 518.75 838.98 523.47 832.04 528.26 825.25 C 532.14 819.62 536.35 813.16 535.29 806.00 C 534.00 798.59 528.65 792.38 522.33 788.60 C 515.49 784.42 508.36 780.70 501.91 775.92 M 717.86 879.94 C 710.02 883.30 701.36 882.84 693.03 883.21 C 691.97 886.65 690.76 890.05 689.20 893.31 C 684.84 902.31 680.62 911.49 674.61 919.55 C 668.72 927.93 660.66 934.36 653.81 941.89 C 651.68 944.28 649.55 946.87 648.77 950.05 C 650.47 953.95 655.41 954.43 659.04 955.41 C 672.98 957.91 687.83 957.49 701.11 952.23 C 707.76 949.74 712.95 944.75 718.30 940.27 C 725.59 934.05 733.16 927.89 742.11 924.22 C 749.24 921.10 757.41 917.01 759.68 908.90 C 760.89 901.26 756.56 894.28 753.42 887.65 C 748.61 878.96 744.75 869.80 740.19 861.00 C 734.80 869.30 727.30 876.52 717.86 879.94 Z" />
		<path fill="#020202" opacity="1.00"
			d=" M 455.69 228.98 C 461.04 230.32 465.04 234.31 469.19 237.69 C 482.73 249.54 493.74 263.88 505.72 277.23 C 517.01 289.76 526.40 303.91 534.05 318.91 C 534.97 320.85 535.12 323.02 535.34 325.12 C 531.93 321.52 529.68 317.06 526.87 313.01 C 518.83 301.24 510.52 289.61 501.09 278.91 C 489.38 265.64 478.61 251.47 465.55 239.45 C 462.16 236.06 457.84 233.42 455.69 228.98 Z" />
		<path fill="#020202" opacity="1.00"
			d=" M 423.20 592.22 C 424.55 593.78 425.76 595.46 426.74 597.29 C 431.45 606.15 436.76 614.68 441.15 623.71 C 443.73 629.25 447.43 634.65 447.22 641.02 C 443.38 636.77 441.48 631.26 438.55 626.42 C 434.78 619.21 431.16 611.93 427.23 604.81 C 425.16 600.89 423.27 596.73 423.20 592.22 Z" />
	</g>
	<g id="#f0b58bff">
		<path fill="#f0b58b" opacity="1.00"
			d=" M 327.57 56.57 C 328.51 53.87 332.28 54.24 333.77 56.24 C 337.64 60.50 336.95 66.68 337.70 71.98 C 344.32 73.81 351.43 71.14 356.20 66.45 C 362.23 73.06 364.90 81.63 368.05 89.79 C 371.58 88.88 375.22 88.14 378.55 86.59 C 380.07 83.10 380.06 78.85 382.92 76.04 C 385.06 73.86 388.53 71.42 391.58 73.36 C 399.08 77.14 402.49 85.97 402.28 94.00 C 402.55 101.08 400.15 107.80 398.64 114.62 C 411.14 112.18 422.15 104.33 430.11 94.57 C 431.33 104.99 435.74 116.60 446.07 121.01 C 443.87 126.80 441.89 132.69 439.19 138.27 C 433.80 149.41 425.87 159.05 419.95 169.89 C 414.30 180.02 410.79 191.16 407.78 202.31 C 406.53 185.67 404.14 166.52 390.05 155.49 C 394.37 149.64 399.94 144.34 402.22 137.27 C 398.27 139.14 396.14 143.13 393.20 146.14 C 387.38 152.33 381.48 158.47 375.02 164.00 C 371.39 167.05 367.47 169.94 362.95 171.47 C 360.27 172.59 358.51 169.66 357.15 167.85 C 350.98 158.12 347.97 145.74 337.94 138.96 C 333.96 135.96 328.85 136.25 324.17 136.73 C 322.12 130.27 324.32 123.58 324.08 117.00 C 324.10 109.49 322.70 102.09 320.76 94.86 C 324.07 96.87 327.62 98.51 331.47 99.09 C 332.23 102.09 333.02 105.37 335.47 107.50 C 337.08 108.14 338.34 106.36 339.67 105.72 C 346.46 100.69 353.89 96.05 358.83 89.03 C 350.12 85.34 340.39 82.62 330.91 84.40 C 326.54 85.11 322.81 87.64 319.56 90.51 C 318.41 82.64 318.63 74.67 319.50 66.79 C 322.72 68.81 325.99 70.75 329.43 72.39 C 328.15 67.28 325.59 61.82 327.57 56.57 Z" />
		<path fill="#f0b58b" opacity="1.00"
			d=" M 95.44 202.49 C 101.90 198.62 109.37 194.79 117.13 196.35 C 125.00 197.90 132.71 200.17 140.58 201.69 C 148.64 203.51 156.93 204.00 164.97 205.92 C 170.72 207.14 176.04 210.08 182.01 210.29 C 196.31 211.22 210.64 210.72 224.95 210.27 C 239.14 209.74 253.26 207.89 267.18 205.10 C 271.95 204.11 276.83 203.81 281.69 203.67 C 283.92 211.78 286.81 219.77 291.18 226.99 C 295.23 234.12 301.48 239.60 307.68 244.80 C 294.88 249.20 281.65 253.44 267.97 253.31 C 247.94 252.94 229.07 245.37 210.59 238.41 C 194.26 232.05 176.38 229.19 158.93 231.50 C 151.28 232.82 143.79 235.08 136.06 235.98 C 128.96 236.79 122.03 234.62 115.25 232.82 C 110.69 231.56 105.81 230.83 101.93 227.92 C 110.95 221.56 123.57 227.05 132.63 220.60 C 135.12 219.17 135.90 215.47 133.39 213.65 C 126.67 208.22 117.73 204.45 108.98 205.93 C 100.52 206.92 93.37 212.17 85.12 213.80 C 86.40 208.47 91.05 205.19 95.44 202.49 Z" />
		<path fill="#f0b58b" opacity="1.00"
			d=" M 607.78 221.46 C 611.62 225.59 615.45 229.76 618.66 234.41 C 622.92 240.69 627.99 246.65 630.19 254.06 C 635.42 270.24 633.37 287.57 630.43 303.97 C 626.54 322.51 621.54 340.80 615.62 358.79 C 612.96 367.99 609.34 377.30 610.26 387.06 C 611.12 396.38 612.53 405.88 610.62 415.18 C 608.46 425.35 610.40 436.30 615.77 445.18 C 618.54 450.13 621.89 454.92 622.86 460.63 C 619.39 457.87 617.10 454.04 614.50 450.53 C 609.84 444.16 605.53 437.53 600.58 431.38 C 599.68 429.96 597.97 429.64 596.52 429.16 C 598.30 435.15 602.63 439.89 605.74 445.21 C 611.51 453.31 616.75 462.72 616.27 472.98 C 610.59 468.11 606.69 461.64 602.34 455.66 C 599.19 451.18 595.68 446.98 592.41 442.60 C 590.41 439.96 588.65 437.04 585.85 435.16 C 588.45 442.85 593.53 449.41 597.71 456.29 C 604.00 464.42 607.66 474.71 607.22 485.03 C 605.13 482.64 603.24 480.08 601.63 477.35 C 596.13 467.88 590.32 458.59 585.07 448.97 C 582.55 444.93 580.59 440.32 576.74 437.32 C 579.26 447.85 584.97 457.24 589.78 466.84 C 588.39 466.08 586.92 465.37 585.91 464.12 C 582.03 459.54 578.34 454.74 575.55 449.41 C 572.74 444.22 568.98 439.12 568.80 433.00 C 567.31 416.06 573.20 399.74 575.59 383.17 C 579.69 350.11 588.06 317.41 587.57 283.92 C 587.73 275.33 584.39 266.44 577.08 261.49 C 590.49 251.17 602.56 237.85 607.78 221.46 Z" />
		<path fill="#f0b58b" opacity="1.00"
			d=" M 323.23 589.20 C 329.41 584.72 335.76 580.47 342.26 576.45 C 348.69 590.23 359.73 601.01 370.73 611.19 C 379.50 619.13 388.36 627.00 397.69 634.29 C 386.81 638.09 376.47 643.46 366.99 650.01 C 364.47 651.83 361.61 653.39 359.78 655.99 C 359.84 657.41 361.29 658.62 362.66 657.83 C 366.58 655.97 369.91 653.12 373.64 650.92 C 370.59 658.22 364.53 663.62 358.57 668.56 C 348.74 676.31 337.77 683.00 325.63 686.39 C 322.01 687.16 317.57 688.33 314.47 685.59 C 311.08 682.87 307.71 680.11 303.96 677.89 C 300.01 675.64 297.16 671.89 295.07 667.94 C 293.25 663.20 293.53 658.01 293.52 653.03 C 293.72 646.18 293.86 639.31 294.76 632.51 C 295.48 626.17 295.69 619.50 298.74 613.73 C 304.15 603.26 313.55 595.58 323.23 589.20 Z" />
		<path fill="#f0b58b" opacity="1.00"
			d=" M 575.82 662.75 C 579.55 658.48 584.97 656.24 590.33 654.77 C 590.84 669.19 597.09 683.45 607.51 693.48 C 609.76 695.79 612.20 697.93 614.65 700.03 C 615.20 710.61 610.98 721.07 603.80 728.76 C 595.13 738.17 582.86 744.84 569.93 745.26 C 566.56 745.62 564.16 742.92 561.41 741.51 C 551.44 735.61 539.59 732.22 531.60 723.45 C 522.38 711.53 517.90 696.89 511.58 683.40 C 507.85 675.75 505.41 667.57 501.62 659.96 C 514.62 662.98 527.70 665.66 540.83 668.03 C 549.87 669.34 559.20 671.16 568.28 669.13 C 571.81 668.51 573.67 665.24 575.82 662.75 Z" />
	</g>
	<g id="#f11b27ff">
		<path fill="var(--shirt-color, grey)" opacity="1.00"
			d=" M 451.29 119.77 C 457.90 120.37 464.31 122.68 469.98 126.10 C 475.47 129.51 478.75 135.28 483.50 139.50 C 489.89 144.47 498.12 145.74 505.55 148.48 C 515.54 151.98 524.22 158.22 532.94 164.06 C 545.28 172.43 560.56 173.98 573.90 180.16 C 585.25 185.29 596.14 192.29 603.97 202.10 C 605.93 207.21 604.30 212.91 602.96 218.01 C 599.29 231.02 590.14 241.46 580.73 250.76 C 575.40 256.10 569.24 260.50 562.80 264.39 C 542.22 245.07 515.67 233.46 488.61 226.49 C 486.47 225.88 484.27 226.18 482.14 226.63 C 486.75 229.17 491.89 230.47 496.82 232.23 C 503.59 234.50 510.27 237.01 516.88 239.70 C 509.58 238.39 502.11 236.68 494.69 237.99 C 499.85 240.21 505.62 239.69 511.02 241.00 C 518.33 242.63 525.90 243.89 532.65 247.31 C 542.82 253.07 552.33 259.95 561.06 267.72 C 558.75 274.24 559.12 281.21 559.02 288.01 C 558.99 304.07 558.10 320.16 555.60 336.03 C 554.82 341.00 553.73 345.99 554.09 351.05 C 554.55 357.28 556.00 363.38 557.74 369.36 C 559.40 375.02 559.94 381.05 562.65 386.38 C 564.25 389.71 566.80 392.44 569.33 395.10 C 567.30 404.64 565.42 414.27 564.81 424.03 C 564.85 429.95 564.52 436.23 567.13 441.72 C 569.43 446.76 572.65 451.30 575.32 456.14 C 559.72 467.65 542.74 477.20 525.00 484.97 C 516.75 488.70 507.71 492.25 498.51 490.18 C 482.69 486.63 467.82 479.81 452.07 475.99 C 447.26 474.75 442.26 474.68 437.35 475.19 C 438.65 463.82 437.96 452.40 437.25 441.02 C 437.20 429.72 436.15 418.31 432.66 407.51 C 431.18 403.17 427.97 399.54 427.18 394.94 C 425.37 385.55 424.70 375.95 422.19 366.70 C 419.83 358.24 417.32 349.74 413.15 341.97 C 408.46 332.99 404.86 323.51 400.67 314.30 C 398.24 309.04 398.56 302.75 394.91 298.03 C 391.50 293.52 388.81 288.56 386.54 283.39 C 379.31 269.68 372.86 255.59 366.57 241.43 C 363.65 234.19 360.16 227.00 354.64 221.34 C 350.18 216.81 346.05 211.49 340.00 209.03 C 341.90 214.31 346.49 217.79 349.83 222.10 C 355.25 228.39 358.59 236.07 361.77 243.65 C 353.50 243.67 345.22 244.00 337.06 245.44 C 332.04 246.05 327.10 247.61 322.02 247.46 C 317.75 245.93 314.07 243.12 310.42 240.50 C 304.76 235.90 299.24 230.84 295.58 224.45 C 291.80 218.08 289.09 211.12 287.14 203.98 C 286.42 201.22 285.70 198.31 286.20 195.45 C 304.06 179.12 330.07 176.94 348.51 161.45 C 351.02 166.36 353.19 171.96 357.94 175.16 C 361.64 177.42 365.87 175.07 369.15 173.14 C 376.16 169.35 382.18 164.05 387.66 158.31 C 393.89 163.45 398.60 170.45 400.43 178.37 C 402.58 188.46 403.07 198.81 403.53 209.09 C 403.91 212.21 403.61 215.90 405.92 218.36 C 406.48 218.34 407.59 218.30 408.15 218.29 C 410.01 215.18 410.09 211.44 410.96 208.01 C 414.02 194.09 418.65 180.36 426.18 168.19 C 432.76 157.37 440.74 147.24 445.22 135.29 C 447.27 130.12 448.68 124.70 451.29 119.77 M 455.69 228.98 C 457.84 233.42 462.16 236.06 465.55 239.45 C 478.61 251.47 489.38 265.64 501.09 278.91 C 510.52 289.61 518.83 301.24 526.87 313.01 C 529.68 317.06 531.93 321.52 535.34 325.12 C 535.12 323.02 534.97 320.85 534.05 318.91 C 526.40 303.91 517.01 289.76 505.72 277.23 C 493.74 263.88 482.73 249.54 469.19 237.69 C 465.04 234.31 461.04 230.32 455.69 228.98 Z" />
	</g>
	<g id="#2b3dcdff">
		<path fill="var(--pants-color, grey)" opacity="1.00"
			d=" M 577.58 459.21 C 580.03 462.17 582.25 465.37 585.16 467.91 C 586.75 469.53 589.15 468.67 591.14 468.62 C 594.25 473.90 597.92 478.88 600.84 484.27 C 602.67 492.34 602.52 500.76 602.35 509.00 C 602.15 517.02 599.77 524.85 595.86 531.83 C 592.13 538.65 589.78 546.23 589.57 554.04 C 589.17 566.00 589.72 577.98 589.56 589.95 C 589.20 607.00 591.02 623.98 592.59 640.93 C 592.84 644.26 593.49 647.55 594.27 650.80 C 586.86 651.48 579.19 653.38 573.61 658.61 C 571.11 660.63 569.38 664.08 565.90 664.48 C 560.30 665.29 554.61 664.72 549.03 664.00 C 530.63 661.55 512.55 657.25 494.43 653.32 C 494.01 643.27 493.69 633.21 493.30 623.16 C 497.40 618.58 501.23 613.75 504.53 608.56 C 510.44 599.31 516.02 589.67 519.07 579.05 C 519.75 576.14 522.45 574.50 524.51 572.62 C 531.25 566.83 538.76 562.05 546.00 556.93 C 552.40 552.45 558.03 546.96 563.21 541.13 C 564.99 539.23 566.04 536.81 566.77 534.35 C 562.01 537.68 558.37 542.30 553.79 545.84 C 543.33 554.15 531.29 560.36 521.48 569.52 C 515.92 574.78 509.49 579.90 507.20 587.53 C 510.65 586.18 513.15 583.42 515.63 580.80 C 508.16 597.74 497.68 613.49 484.07 626.13 C 472.34 637.44 457.63 644.76 443.65 652.81 C 438.96 648.30 434.29 643.52 428.38 640.63 C 424.55 638.74 420.21 638.63 416.04 638.28 C 409.75 637.93 404.79 633.58 399.89 630.10 C 389.48 621.94 379.53 613.20 369.86 604.18 C 359.94 594.86 350.55 584.54 345.01 571.94 C 358.85 563.12 370.11 551.03 382.82 540.76 C 394.53 530.89 406.55 521.35 419.28 512.83 C 414.14 520.74 409.99 529.43 408.46 538.82 C 407.46 545.42 405.95 552.17 407.15 558.85 C 409.45 553.17 409.59 546.94 411.06 541.04 C 412.94 530.80 416.64 520.92 422.08 512.05 C 424.04 508.70 427.87 507.29 431.01 505.35 C 419.80 524.18 414.73 546.28 415.33 568.10 C 415.59 572.23 415.79 577.29 420.06 579.39 C 417.32 569.09 418.45 558.32 420.04 547.94 C 422.40 533.15 427.14 518.65 434.77 505.73 C 436.94 502.03 440.68 499.23 441.65 494.88 C 442.98 489.76 441.52 484.53 440.28 479.56 C 448.28 479.43 455.95 481.91 463.47 484.37 C 472.99 487.55 482.42 491.02 492.04 493.89 C 499.50 496.16 507.66 496.77 515.16 494.36 C 521.76 492.26 528.04 489.28 534.31 486.38 C 549.57 478.79 564.63 470.40 577.58 459.21 M 423.20 592.22 C 423.27 596.73 425.16 600.89 427.23 604.81 C 431.16 611.93 434.78 619.21 438.55 626.42 C 441.48 631.26 443.38 636.77 447.22 641.02 C 447.43 634.65 443.73 629.25 441.15 623.71 C 436.76 614.68 431.45 606.15 426.74 597.29 C 425.76 595.46 424.55 593.78 423.20 592.22 Z" />
		<path fill="var(--socks-color, grey)" opacity="1.00"
			d=" M 378.56 648.11 C 379.47 647.59 380.38 647.08 381.29 646.58 C 394.85 651.38 405.80 661.32 414.56 672.45 C 426.28 687.49 437.23 703.12 448.30 718.64 C 456.72 729.93 464.18 741.94 473.17 752.79 C 479.71 760.73 487.80 767.23 496.53 772.62 C 497.55 777.33 499.16 782.16 498.02 787.01 C 496.27 796.57 489.77 804.37 482.95 810.92 C 478.02 815.75 470.63 818.15 463.86 816.42 C 460.92 815.96 460.58 812.65 459.40 810.49 C 457.13 805.18 453.13 800.92 449.05 796.95 C 436.12 782.94 419.16 773.75 403.06 763.94 C 390.84 757.34 378.92 749.91 369.01 740.07 C 361.02 732.62 355.06 723.35 347.64 715.37 C 339.58 706.66 331.37 697.91 321.47 691.24 C 337.47 688.94 351.88 680.34 364.21 670.25 C 370.75 664.38 378.18 657.52 378.56 648.11 Z" />
		<path fill="var(--socks-color, grey)" opacity="1.00"
			d=" M 618.56 703.06 C 623.47 707.01 628.63 710.65 633.81 714.25 C 648.67 724.68 659.60 739.59 669.23 754.76 C 677.89 767.96 685.04 782.09 693.56 795.39 C 700.03 805.78 706.97 815.87 714.29 825.67 C 721.89 835.16 729.39 844.72 736.93 854.26 C 736.47 856.22 736.16 858.28 735.10 860.05 C 728.82 870.04 717.81 876.98 706.03 878.06 C 701.22 878.31 696.39 878.05 691.58 878.05 C 688.82 870.69 686.03 863.16 681.16 856.90 C 672.19 844.92 660.32 835.63 648.99 826.02 C 629.98 810.12 611.96 793.03 595.39 774.60 C 587.62 766.27 580.38 757.44 572.10 749.60 C 589.86 748.40 606.51 737.30 614.51 721.41 C 617.50 715.78 618.66 709.39 618.56 703.06 Z" />
	</g>
	<g id="#4d4d4dff">
		<path fill="#4d4d4d" opacity="1.00"
			d=" M 501.91 775.92 C 508.36 780.70 515.49 784.42 522.33 788.60 C 528.65 792.38 534.00 798.59 535.29 806.00 C 536.35 813.16 532.14 819.62 528.26 825.25 C 523.47 832.04 518.75 838.98 512.66 844.70 C 507.18 849.88 501.03 854.37 496.18 860.19 C 488.73 868.66 484.18 879.23 476.64 887.64 C 471.26 894.33 464.37 899.63 457.01 903.97 C 450.74 907.76 443.33 909.61 436.02 909.36 C 432.81 909.34 429.03 907.60 428.82 903.98 C 429.39 900.15 431.68 896.89 433.62 893.64 C 437.59 887.50 441.19 881.14 444.86 874.82 C 455.08 858.33 458.45 838.69 459.96 819.64 C 468.17 822.13 477.64 820.95 484.30 815.28 C 490.41 809.96 495.71 803.57 499.43 796.34 C 502.73 790.08 503.25 782.78 501.91 775.92 Z" />
		<path fill="#4d4d4d" opacity="1.00"
			d=" M 717.86 879.94 C 727.30 876.52 734.80 869.30 740.19 861.00 C 744.75 869.80 748.61 878.96 753.42 887.65 C 756.56 894.28 760.89 901.26 759.68 908.90 C 757.41 917.01 749.24 921.10 742.11 924.22 C 733.16 927.89 725.59 934.05 718.30 940.27 C 712.95 944.75 707.76 949.74 701.11 952.23 C 687.83 957.49 672.98 957.91 659.04 955.41 C 655.41 954.43 650.47 953.95 648.77 950.05 C 649.55 946.87 651.68 944.28 653.81 941.89 C 660.66 934.36 668.72 927.93 674.61 919.55 C 680.62 911.49 684.84 902.31 689.20 893.31 C 690.76 890.05 691.97 886.65 693.03 883.21 C 701.36 882.84 710.02 883.30 717.86 879.94 Z" />
	</g>
</svg>