<?xml version="1.0" encoding="UTF-8" ?>
<!DOCTYPE svg PUBLIC "-//W3C//DTD SVG 1.1//EN" "http://www.w3.org/Graphics/SVG/1.1/DTD/svg11.dtd">
<svg width="1000pt" height="1000pt" viewBox="0 0 1000 1000" version="1.1" xmlns="http://www.w3.org/2000/svg">
	<g id="#020202ff">
		<path fill="#020202" opacity="1.00"
			d=" M 478.63 25.49 C 480.57 23.58 482.97 21.23 485.95 21.74 C 489.59 23.38 488.47 28.09 488.37 31.26 C 490.81 29.11 493.29 25.96 496.88 26.21 C 499.36 26.45 499.97 29.19 500.87 31.06 C 503.01 30.52 505.80 29.34 507.49 31.48 C 509.88 34.50 508.11 38.58 506.77 41.67 C 502.62 50.16 497.80 58.36 491.93 65.78 C 492.90 71.80 493.49 79.01 488.47 83.50 C 480.68 90.77 470.40 94.55 460.69 98.54 C 454.74 117.48 447.40 136.13 444.41 155.85 C 443.72 160.70 442.97 165.85 444.70 170.57 C 445.92 172.63 448.33 173.56 450.20 174.94 C 459.06 161.22 456.59 143.58 464.54 129.50 C 466.66 125.80 465.89 121.07 468.60 117.60 C 470.38 114.32 473.94 112.92 477.38 112.08 C 481.84 106.81 488.19 103.42 494.96 102.19 C 510.46 99.32 527.42 103.57 539.06 114.40 C 538.68 105.15 534.68 94.85 540.41 86.44 C 544.46 78.27 553.25 74.60 559.40 68.42 C 566.34 59.00 564.64 46.58 566.73 35.68 C 567.35 32.75 569.32 29.10 572.81 29.35 C 575.99 29.71 577.35 33.15 578.00 35.88 C 580.00 44.66 577.34 53.57 577.33 62.42 C 582.44 56.90 586.44 50.45 589.64 43.66 C 592.10 38.89 594.10 33.72 597.81 29.74 C 599.35 28.02 602.43 26.64 604.26 28.72 C 606.08 31.28 605.46 34.62 605.39 37.57 C 607.85 35.60 611.16 32.49 614.45 34.62 C 617.22 37.22 615.29 41.38 614.58 44.50 C 617.00 44.01 620.54 43.30 621.69 46.27 C 623.39 51.72 620.14 57.18 617.22 61.59 C 618.92 62.10 621.68 61.71 622.07 64.02 C 622.24 69.49 618.36 74.13 614.53 77.63 C 603.12 87.98 590.16 96.72 576.15 103.16 C 573.71 104.52 570.35 105.69 569.95 108.88 C 567.09 123.18 568.70 137.89 570.69 152.20 C 572.66 163.63 574.61 175.10 577.71 186.30 C 580.32 196.34 583.13 206.41 583.57 216.84 C 587.23 224.45 590.85 232.43 591.12 241.04 C 591.61 246.45 589.27 251.61 589.64 257.01 C 589.86 267.80 591.40 278.82 588.58 289.42 C 585.32 301.71 578.71 312.73 572.91 323.93 C 564.21 339.97 556.07 356.30 547.52 372.43 C 544.88 377.67 542.02 382.88 540.32 388.54 C 538.76 392.84 541.74 396.86 543.25 400.72 C 546.69 409.10 551.43 417.03 553.24 426.00 C 554.56 432.24 554.92 438.71 554.04 445.04 C 552.40 456.89 549.11 468.41 546.23 480.00 C 545.10 484.58 544.42 489.29 542.86 493.76 C 544.07 495.76 545.98 497.59 546.19 500.02 C 544.67 506.43 540.37 512.17 540.44 518.93 C 541.23 526.70 544.49 534.12 543.91 542.05 C 542.38 570.08 533.38 597.05 522.49 622.70 C 521.65 624.07 521.03 625.58 520.88 627.21 C 520.26 630.91 518.66 634.35 517.78 638.00 C 515.86 645.49 514.53 653.13 513.82 660.83 C 512.53 673.61 512.40 686.70 508.08 698.94 C 506.47 703.16 505.77 708.05 502.74 711.54 C 496.16 712.35 489.81 709.31 483.25 708.92 C 481.34 712.95 479.39 716.96 477.72 721.10 C 482.12 730.08 482.80 740.18 483.17 750.00 C 494.93 762.06 501.41 778.03 505.83 794.02 C 509.96 809.66 511.56 825.81 512.85 841.89 C 514.69 860.34 519.99 878.28 526.47 895.59 C 528.89 902.02 530.64 908.68 532.01 915.41 C 534.43 914.17 537.15 912.69 539.94 913.72 C 544.56 915.34 546.81 920.18 548.59 924.38 C 553.40 936.96 554.35 950.62 554.49 963.97 C 554.82 968.80 552.73 973.99 548.19 976.18 C 534.17 984.05 517.63 984.63 501.98 985.92 C 478.69 987.83 455.30 987.48 432.00 989.21 C 424.84 989.69 417.05 989.25 411.08 984.80 C 406.03 981.11 405.19 973.58 408.11 968.31 C 411.32 962.24 417.15 958.15 423.07 955.00 C 436.96 947.61 452.48 944.32 467.26 939.23 C 475.36 936.41 481.51 930.01 486.78 923.50 C 482.39 906.36 475.49 890.00 468.00 874.02 C 461.23 859.06 451.82 845.57 443.23 831.64 C 434.91 818.64 429.88 803.98 424.65 789.56 C 418.31 774.63 412.91 759.25 405.05 745.00 C 396.67 729.80 395.23 711.26 400.60 694.81 C 398.17 694.19 394.46 694.68 393.33 691.91 C 392.23 685.32 396.31 679.44 397.03 673.05 C 398.12 664.39 397.39 655.60 398.64 646.95 C 401.33 625.97 404.17 604.62 400.60 583.56 C 399.25 573.35 396.47 563.33 395.98 553.01 C 395.61 546.16 398.30 539.73 400.22 533.30 C 402.22 526.67 400.87 519.74 400.67 512.98 C 400.52 510.72 400.62 508.37 399.74 506.26 C 397.73 503.61 394.53 501.73 393.70 498.32 C 392.70 495.18 393.60 491.87 394.78 488.92 C 397.24 482.87 399.40 476.56 403.55 471.41 C 403.12 463.54 405.15 455.84 405.21 448.01 C 404.14 433.01 400.68 418.09 402.09 402.97 C 402.59 396.09 404.95 389.55 407.13 383.06 C 408.69 378.31 411.69 374.02 412.13 368.94 C 413.25 360.97 410.48 353.00 411.87 345.04 C 414.23 331.85 419.16 319.33 423.76 306.80 C 428.35 294.39 431.25 281.46 434.32 268.61 C 434.52 266.77 435.79 264.33 433.89 263.00 C 430.09 259.69 426.30 256.20 421.87 253.77 C 418.19 253.23 414.58 255.06 410.88 255.15 C 408.61 254.73 409.31 252.03 409.61 250.42 C 410.92 245.83 413.51 241.75 415.08 237.25 C 417.38 230.62 418.72 223.72 420.09 216.85 C 413.31 212.83 405.79 209.45 400.81 203.10 C 396.35 197.44 395.90 189.80 396.41 182.90 C 397.78 168.44 404.63 155.40 410.37 142.31 C 415.27 131.87 419.97 121.33 425.19 111.04 C 429.48 102.83 433.54 94.51 437.23 86.02 C 434.46 79.49 437.36 72.43 441.13 66.98 C 445.72 59.64 451.54 52.99 454.87 44.91 C 457.19 39.50 454.83 33.57 455.90 27.98 C 456.58 24.67 460.43 22.39 463.64 23.52 C 467.17 24.76 469.41 28.35 469.79 31.96 C 470.27 36.11 468.62 40.08 467.59 44.01 C 471.09 37.75 473.86 30.95 478.63 25.49 M 460.88 27.40 C 459.04 33.12 461.68 39.17 459.93 44.91 C 457.56 52.70 452.38 59.17 447.80 65.76 C 445.00 69.91 441.78 74.04 440.81 79.06 C 440.13 82.36 441.66 85.85 440.14 89.00 C 436.12 99.09 431.53 108.94 426.70 118.66 C 419.58 134.87 411.14 150.52 405.09 167.20 C 402.02 176.34 399.63 186.38 402.17 195.94 C 405.20 204.37 414.13 208.03 420.77 213.13 C 422.35 205.37 423.42 197.32 427.24 190.26 C 430.79 183.77 434.77 177.28 440.49 172.47 C 439.14 168.09 438.79 163.44 439.40 158.91 C 441.84 138.37 449.50 119.01 455.68 99.42 C 456.61 96.32 459.42 94.34 462.30 93.21 C 467.85 91.03 472.99 88.01 478.23 85.19 C 481.70 83.23 485.35 80.96 487.23 77.30 C 488.43 74.13 488.05 70.62 488.24 67.30 C 485.13 70.46 483.21 74.44 481.31 78.37 C 480.10 81.24 476.52 80.54 474.06 80.31 C 469.81 79.55 465.18 79.50 461.50 76.96 C 466.56 74.47 472.34 75.79 477.70 76.19 C 480.26 71.22 483.10 65.42 488.96 63.79 C 494.43 55.02 499.54 45.92 503.18 36.23 C 495.67 43.60 491.35 53.57 484.07 61.15 C 483.13 62.39 480.77 62.26 480.21 60.72 C 479.58 58.88 481.21 57.48 482.14 56.10 C 486.36 50.90 489.73 45.09 493.59 39.62 C 495.44 37.22 495.57 34.10 495.91 31.21 C 486.36 39.11 480.87 50.59 473.04 59.97 C 472.68 59.79 471.95 59.43 471.58 59.25 C 471.09 54.60 474.11 50.38 476.46 46.61 C 480.86 41.04 483.45 34.19 484.21 27.15 C 478.85 32.26 476.24 39.34 472.48 45.56 C 470.65 48.56 468.89 51.88 465.79 53.76 C 464.52 54.59 462.81 54.45 461.60 53.60 C 459.61 45.98 465.98 38.98 464.45 31.35 C 464.12 29.43 462.25 28.48 460.88 27.40 M 591.82 48.87 C 588.73 55.27 584.53 61.47 578.57 65.51 C 577.22 66.43 574.26 67.58 574.22 64.96 C 572.65 55.62 576.27 46.23 574.66 36.88 C 574.42 35.15 573.38 33.71 572.46 32.29 C 569.46 37.39 570.18 43.48 569.46 49.12 C 568.75 54.99 568.26 61.07 565.43 66.39 C 561.09 76.13 548.86 78.57 543.80 87.77 C 540.85 92.70 541.36 98.71 542.29 104.14 C 545.26 120.44 542.83 137.09 539.70 153.18 C 537.17 165.99 536.62 179.06 535.05 192.00 C 534.14 202.30 532.88 212.60 533.11 222.96 C 532.84 240.24 540.20 256.39 547.92 271.44 C 552.91 264.30 558.64 257.71 563.36 250.39 C 569.41 241.26 576.11 232.32 579.66 221.84 C 579.38 202.57 571.14 184.64 568.13 165.80 C 564.52 147.51 562.43 128.58 565.47 110.06 C 566.04 105.40 569.14 101.34 573.41 99.43 C 584.61 94.14 595.04 87.33 604.87 79.82 C 609.98 75.55 615.81 71.52 618.41 65.12 C 611.95 65.60 608.86 71.70 604.31 75.36 C 601.97 77.28 599.55 79.86 596.28 79.71 C 595.62 77.15 598.58 75.71 599.93 73.95 C 607.68 66.30 617.83 58.65 618.46 46.82 C 615.64 47.95 613.09 49.77 611.29 52.24 C 606.44 58.95 602.48 66.49 596.04 71.88 C 593.77 73.75 591.28 76.06 588.08 75.49 C 598.99 64.93 608.78 52.23 612.20 37.15 C 607.85 39.31 603.93 42.84 602.55 47.63 C 599.45 56.70 592.70 64.19 584.97 69.58 C 581.49 70.07 584.64 66.72 585.59 65.58 C 594.78 56.46 602.47 44.27 601.94 30.90 C 596.73 35.66 594.90 42.75 591.82 48.87 M 477.54 124.51 C 476.05 128.54 476.67 132.96 476.48 137.18 C 472.68 136.82 469.55 134.66 467.21 131.76 C 465.65 136.64 464.41 141.61 463.42 146.63 C 466.52 145.79 469.78 145.12 472.99 145.82 C 481.29 147.33 488.84 151.76 495.13 157.25 C 489.42 159.93 483.07 160.77 477.09 162.66 C 474.71 163.05 471.83 164.62 469.62 163.09 C 469.43 161.27 469.53 159.43 469.55 157.60 C 466.86 155.76 464.60 153.40 462.83 150.67 C 461.44 158.45 460.33 166.52 456.55 173.59 C 455.01 176.57 452.73 179.07 451.08 181.96 C 452.07 185.03 454.74 187.17 457.63 188.39 C 459.82 189.58 462.98 190.24 463.62 193.05 C 465.45 200.36 464.86 208.07 466.75 215.36 C 467.03 217.35 469.50 216.99 470.98 217.33 C 482.23 218.21 491.69 210.51 502.69 209.50 C 500.51 211.79 497.91 213.59 495.23 215.22 C 496.58 224.59 495.46 234.33 491.99 243.15 C 504.12 238.29 516.50 233.84 529.19 230.71 C 527.14 215.60 529.01 200.34 530.73 185.30 C 525.24 187.79 519.05 189.92 513.01 188.23 C 516.54 181.16 520.23 174.01 521.68 166.17 C 522.07 163.28 522.65 159.88 520.68 157.40 C 519.21 155.18 516.04 155.11 513.72 155.74 C 510.58 156.65 509.45 160.11 507.04 161.94 C 504.08 162.05 501.15 161.44 498.24 161.06 C 498.90 153.84 497.85 146.67 496.74 139.56 C 491.40 140.10 485.92 139.63 481.00 137.37 C 481.95 133.72 483.30 129.79 481.83 126.08 C 481.15 124.55 478.96 122.86 477.54 124.51 M 430.85 191.82 C 426.83 199.97 426.28 209.19 424.48 217.97 C 422.66 229.37 419.77 240.68 414.19 250.87 C 417.60 250.28 421.31 248.42 424.68 250.16 C 429.02 252.32 432.60 255.67 436.46 258.55 C 438.81 248.06 438.68 237.28 437.76 226.64 C 439.39 228.79 440.81 231.19 441.09 233.93 C 443.68 252.45 438.50 270.70 434.38 288.58 C 429.99 308.50 420.11 326.77 416.46 346.88 C 415.71 352.28 416.34 357.74 416.46 363.16 C 418.80 358.32 420.79 353.28 421.84 347.99 C 422.79 344.61 422.93 340.63 425.78 338.16 C 425.82 343.18 424.75 348.09 424.02 353.03 C 422.62 363.92 415.72 372.91 412.00 383.01 C 409.50 390.14 406.85 397.38 406.61 405.02 C 405.48 420.12 409.63 434.94 409.55 449.99 C 408.29 458.91 406.23 468.44 409.85 477.10 C 411.89 480.68 416.46 481.44 420.13 482.33 C 433.95 484.63 448.12 483.72 461.90 481.51 C 459.29 484.99 454.86 485.81 450.85 486.51 C 441.39 488.06 431.73 488.12 422.21 487.21 C 417.38 486.57 412.28 485.73 408.28 482.75 C 406.02 481.08 405.17 478.26 404.06 475.83 C 402.00 481.50 399.80 487.14 398.13 492.94 C 396.40 498.00 401.55 502.37 406.03 503.32 C 413.23 504.04 420.24 501.64 427.21 500.21 C 441.75 496.39 456.94 495.45 471.90 496.75 C 485.96 498.12 500.36 497.82 514.01 501.92 C 521.95 504.24 529.86 506.70 537.98 508.36 C 539.23 505.41 540.55 502.49 541.93 499.60 C 538.43 493.95 534.87 488.33 531.17 482.81 C 525.40 473.97 522.18 463.82 519.16 453.79 C 518.24 450.75 517.47 447.49 518.72 444.42 C 521.74 450.32 523.24 456.84 525.87 462.91 C 529.28 471.75 533.74 480.20 539.56 487.71 C 541.48 476.75 544.31 465.99 546.57 455.10 C 547.97 447.47 549.42 439.72 548.58 431.93 C 547.57 418.22 540.61 406.06 535.33 393.67 C 531.09 381.34 529.61 368.27 527.79 355.42 C 527.25 351.46 526.38 347.35 527.79 343.47 C 530.27 348.46 530.51 354.14 531.82 359.47 C 533.93 368.17 535.66 376.95 537.62 385.67 C 543.48 371.62 551.17 358.44 557.68 344.69 C 565.45 328.30 574.98 312.77 582.20 296.12 C 586.88 285.54 586.56 273.78 586.27 262.47 C 583.61 269.43 580.95 276.39 578.41 283.39 C 577.02 286.83 575.98 290.72 572.86 293.06 C 573.31 288.59 575.04 284.41 576.40 280.16 C 578.71 273.31 580.26 266.24 582.63 259.41 C 584.55 253.41 587.10 247.36 586.71 240.94 C 586.54 234.96 584.61 229.26 582.82 223.62 C 580.01 232.20 575.61 240.11 570.54 247.53 C 565.18 256.26 559.18 264.63 552.16 272.11 C 550.72 273.47 549.15 275.19 547.00 275.12 C 544.84 274.33 543.67 272.21 542.59 270.33 C 537.17 260.30 533.43 249.45 530.37 238.50 C 528.69 242.47 527.16 246.63 527.22 251.01 C 526.87 256.51 530.11 261.48 529.71 266.97 C 529.13 276.52 525.97 285.64 523.70 294.87 C 522.08 299.88 521.46 305.64 517.49 309.50 C 516.93 304.82 518.58 300.35 519.61 295.88 C 521.87 286.70 523.87 277.41 524.66 267.97 C 525.17 262.86 522.63 258.07 522.87 252.98 C 522.95 250.59 523.38 248.22 523.73 245.86 C 508.29 261.34 491.28 275.52 472.00 285.99 C 465.77 289.28 459.78 293.01 453.84 296.80 C 449.69 299.42 445.97 302.74 441.49 304.81 C 442.63 302.35 444.13 300.02 446.28 298.31 C 453.48 292.29 461.73 287.70 469.54 282.53 C 483.80 273.41 497.96 263.97 510.55 252.58 C 517.18 246.54 524.16 240.83 530.10 234.08 C 518.10 237.03 506.46 241.36 495.03 246.03 C 492.04 247.02 489.29 249.77 486.04 249.29 C 483.84 247.44 486.14 244.88 487.03 243.00 C 491.95 234.87 492.46 225.15 493.30 215.94 C 485.19 220.09 475.90 223.41 466.73 221.16 C 463.68 220.51 462.23 217.38 461.79 214.58 C 460.66 207.77 460.40 200.85 459.34 194.03 C 454.65 192.12 449.53 189.68 447.47 184.70 C 446.23 182.38 447.35 179.85 447.93 177.53 C 445.86 176.57 443.80 175.57 441.77 174.53 C 437.40 179.79 433.87 185.70 430.85 191.82 M 435.08 503.05 C 425.23 505.08 415.51 508.45 405.33 508.23 C 405.56 514.47 406.72 520.68 406.48 526.95 C 406.24 535.95 400.70 543.96 401.19 553.06 C 401.70 562.50 404.17 571.70 405.43 581.05 C 409.29 603.22 407.01 625.80 404.29 647.95 C 403.20 655.93 403.84 664.01 402.89 672.00 C 402.18 678.35 399.14 684.09 397.47 690.21 C 411.49 689.86 423.67 697.92 437.04 700.80 C 449.17 703.67 461.70 702.76 474.05 702.67 C 482.97 702.59 491.75 704.46 500.34 706.70 C 501.37 703.87 502.40 701.04 503.31 698.18 C 509.71 679.67 507.22 659.58 512.60 640.84 C 514.94 628.46 520.11 616.93 524.41 605.16 C 532.14 584.93 537.99 563.72 538.95 541.99 C 539.58 531.97 533.63 522.45 536.35 512.43 C 527.41 510.95 518.83 507.96 510.12 505.59 C 498.70 502.53 486.81 502.52 475.11 501.51 C 461.77 500.42 448.25 500.49 435.08 503.05 M 405.34 695.78 C 404.65 699.82 403.78 703.83 403.15 707.89 C 400.88 720.49 404.19 733.60 410.44 744.61 C 414.86 753.42 419.38 762.22 422.48 771.61 C 441.16 768.70 457.72 757.15 469.28 742.51 C 468.68 730.54 472.50 718.63 478.62 708.44 C 465.05 708.33 451.34 709.53 437.92 706.85 C 426.53 704.88 416.21 699.43 405.34 695.78 M 475.75 726.80 C 474.25 731.67 473.23 736.68 473.06 741.78 C 475.32 743.39 477.55 745.04 479.76 746.72 C 479.41 739.92 478.60 733.06 475.75 726.80 M 459.98 759.90 C 449.63 768.51 437.16 775.11 423.64 776.74 C 429.72 788.81 433.20 801.96 438.72 814.28 C 448.02 834.58 462.66 851.89 471.85 872.26 C 479.25 888.07 486.37 904.26 489.67 921.50 C 492.33 921.74 495.26 921.77 497.41 923.59 C 503.50 928.49 507.30 935.83 514.13 939.89 C 517.15 941.90 521.25 942.04 524.47 940.40 C 527.94 938.25 528.82 933.78 528.74 929.99 C 528.28 917.68 525.02 905.63 520.60 894.19 C 513.71 875.48 508.38 855.97 507.18 836.01 C 505.75 819.18 503.72 802.18 497.78 786.27 C 492.38 771.11 484.68 756.23 472.42 745.48 C 469.10 750.93 464.88 755.80 459.98 759.90 M 536.15 918.17 C 534.14 919.33 532.97 921.67 533.20 923.98 C 533.34 929.35 534.01 935.23 530.99 940.02 C 527.91 945.26 520.64 947.49 515.13 944.95 C 508.60 942.29 503.88 936.82 499.42 931.59 C 497.28 929.30 495.19 926.50 491.96 925.81 C 490.35 925.92 489.32 927.25 488.32 928.34 C 482.42 935.60 475.17 942.34 466.10 945.26 C 452.42 950.07 438.06 953.22 425.19 960.11 C 419.93 962.94 414.64 966.50 411.79 971.92 C 410.38 974.47 410.85 977.96 413.14 979.86 C 418.15 984.56 425.53 984.80 432.01 984.48 C 442.31 983.77 452.62 983.14 462.95 982.97 C 478.85 982.68 494.72 981.55 510.58 980.32 C 522.42 979.19 534.73 978.11 545.42 972.47 C 548.70 971.01 548.56 967.03 548.58 964.00 C 548.33 950.09 547.92 935.67 542.20 922.74 C 541.05 920.46 539.25 917.09 536.15 918.17 Z" />
		<path fill="#020202" opacity="1.00"
			d=" M 566.20 274.29 C 569.24 269.65 570.97 264.05 574.97 260.12 L 576.65 260.37 C 575.20 266.07 572.07 271.13 569.49 276.37 C 559.86 294.41 551.76 313.21 542.06 331.21 C 541.37 332.19 540.63 333.12 539.83 334.02 C 539.36 330.22 540.81 326.65 542.40 323.31 C 550.30 306.95 556.86 289.93 566.20 274.29 Z" />
	</g>
	<g id="#f0b58bff">
		<path fill="#f0b58b" opacity="1.00"
			d=" M 460.88 27.40 C 462.25 28.48 464.12 29.43 464.45 31.35 C 465.98 38.98 459.61 45.98 461.60 53.60 C 462.81 54.45 464.52 54.59 465.79 53.76 C 468.89 51.88 470.65 48.56 472.48 45.56 C 476.24 39.34 478.85 32.26 484.21 27.15 C 483.45 34.19 480.86 41.04 476.46 46.61 C 474.11 50.38 471.09 54.60 471.58 59.25 C 471.95 59.43 472.68 59.79 473.04 59.97 C 480.87 50.59 486.36 39.11 495.91 31.21 C 495.57 34.10 495.44 37.22 493.59 39.62 C 489.73 45.09 486.36 50.90 482.14 56.10 C 481.21 57.48 479.58 58.88 480.21 60.72 C 480.77 62.26 483.13 62.39 484.07 61.15 C 491.35 53.57 495.67 43.60 503.18 36.23 C 499.54 45.92 494.43 55.02 488.96 63.79 C 483.10 65.42 480.26 71.22 477.70 76.19 C 472.34 75.79 466.56 74.47 461.50 76.96 C 465.18 79.50 469.81 79.55 474.06 80.31 C 476.52 80.54 480.10 81.24 481.31 78.37 C 483.21 74.44 485.13 70.46 488.24 67.30 C 488.05 70.62 488.43 74.13 487.23 77.30 C 485.35 80.96 481.70 83.23 478.23 85.19 C 472.99 88.01 467.85 91.03 462.30 93.21 C 459.42 94.34 456.61 96.32 455.68 99.42 C 449.50 119.01 441.84 138.37 439.40 158.91 C 438.79 163.44 439.14 168.09 440.49 172.47 C 434.77 177.28 430.79 183.77 427.24 190.26 C 423.42 197.32 422.35 205.37 420.77 213.13 C 414.13 208.03 405.20 204.37 402.17 195.94 C 399.63 186.38 402.02 176.34 405.09 167.20 C 411.14 150.52 419.58 134.87 426.70 118.66 C 431.53 108.94 436.12 99.09 440.14 89.00 C 441.66 85.85 440.13 82.36 440.81 79.06 C 441.78 74.04 445.00 69.91 447.80 65.76 C 452.38 59.17 457.56 52.70 459.93 44.91 C 461.68 39.17 459.04 33.12 460.88 27.40 Z" />
		<path fill="#f0b58b" opacity="1.00"
			d=" M 591.82 48.87 C 594.90 42.75 596.73 35.66 601.94 30.90 C 602.47 44.27 594.78 56.46 585.59 65.58 C 584.64 66.72 581.49 70.07 584.97 69.58 C 592.70 64.19 599.45 56.70 602.55 47.63 C 603.93 42.84 607.85 39.31 612.20 37.15 C 608.78 52.23 598.99 64.93 588.08 75.49 C 591.28 76.06 593.77 73.75 596.04 71.88 C 602.48 66.49 606.44 58.95 611.29 52.24 C 613.09 49.77 615.64 47.95 618.46 46.82 C 617.83 58.65 607.68 66.30 599.93 73.95 C 598.58 75.71 595.62 77.15 596.28 79.71 C 599.55 79.86 601.97 77.28 604.31 75.36 C 608.86 71.70 611.95 65.60 618.41 65.12 C 615.81 71.52 609.98 75.55 604.87 79.82 C 595.04 87.33 584.61 94.14 573.41 99.43 C 569.14 101.34 566.04 105.40 565.47 110.06 C 562.43 128.58 564.52 147.51 568.13 165.80 C 571.14 184.64 579.38 202.57 579.66 221.84 C 576.11 232.32 569.41 241.26 563.36 250.39 C 558.64 257.71 552.91 264.30 547.92 271.44 C 540.20 256.39 532.84 240.24 533.11 222.96 C 532.88 212.60 534.14 202.30 535.05 192.00 C 536.62 179.06 537.17 165.99 539.70 153.18 C 542.83 137.09 545.26 120.44 542.29 104.14 C 541.36 98.71 540.85 92.70 543.80 87.77 C 548.86 78.57 561.09 76.13 565.43 66.39 C 568.26 61.07 568.75 54.99 569.46 49.12 C 570.18 43.48 569.46 37.39 572.46 32.29 C 573.38 33.71 574.42 35.15 574.66 36.88 C 576.27 46.23 572.65 55.62 574.22 64.96 C 574.26 67.58 577.22 66.43 578.57 65.51 C 584.53 61.47 588.73 55.27 591.82 48.87 Z" />
		<path fill="#f0b58b" opacity="1.00"
			d=" M 477.54 124.51 C 478.96 122.86 481.15 124.55 481.83 126.08 C 483.30 129.79 481.95 133.72 481.00 137.37 C 485.92 139.63 491.40 140.10 496.74 139.56 C 497.85 146.67 498.90 153.84 498.24 161.06 C 501.15 161.44 504.08 162.05 507.04 161.94 C 509.45 160.11 510.58 156.65 513.72 155.74 C 516.04 155.11 519.21 155.18 520.68 157.40 C 522.65 159.88 522.07 163.28 521.68 166.17 C 520.23 174.01 516.54 181.16 513.01 188.23 C 519.05 189.92 525.24 187.79 530.73 185.30 C 529.01 200.34 527.14 215.60 529.19 230.71 C 516.50 233.84 504.12 238.29 491.99 243.15 C 495.46 234.33 496.58 224.59 495.23 215.22 C 497.91 213.59 500.51 211.79 502.69 209.50 C 491.69 210.51 482.23 218.21 470.98 217.33 C 469.50 216.99 467.03 217.35 466.75 215.36 C 464.86 208.07 465.45 200.36 463.62 193.05 C 462.98 190.24 459.82 189.58 457.63 188.39 C 454.74 187.17 452.07 185.03 451.08 181.96 C 452.73 179.07 455.01 176.57 456.55 173.59 C 460.33 166.52 461.44 158.45 462.83 150.67 C 464.60 153.40 466.86 155.76 469.55 157.60 C 469.53 159.43 469.43 161.27 469.62 163.09 C 471.83 164.62 474.71 163.05 477.09 162.66 C 483.07 160.77 489.42 159.93 495.13 157.25 C 488.84 151.76 481.29 147.33 472.99 145.82 C 469.78 145.12 466.52 145.79 463.42 146.63 C 464.41 141.61 465.65 136.64 467.21 131.76 C 469.55 134.66 472.68 136.82 476.48 137.18 C 476.67 132.96 476.05 128.54 477.54 124.51 Z" />
		<path fill="#f0b58b" opacity="1.00"
			d=" M 405.34 695.78 C 416.21 699.43 426.53 704.88 437.92 706.85 C 451.34 709.53 465.05 708.33 478.62 708.44 C 472.50 718.63 468.68 730.54 469.28 742.51 C 457.72 757.15 441.16 768.70 422.48 771.61 C 419.38 762.22 414.86 753.42 410.44 744.61 C 404.19 733.60 400.88 720.49 403.15 707.89 C 403.78 703.83 404.65 699.82 405.34 695.78 Z" />
		<path fill="#f0b58b" opacity="1.00"
			d=" M 475.75 726.80 C 478.60 733.06 479.41 739.92 479.76 746.72 C 477.55 745.04 475.32 743.39 473.06 741.78 C 473.23 736.68 474.25 731.67 475.75 726.80 Z" />
	</g>
	<g id="#f11b27ff">
		<path fill="var(--shirt-color, grey)" opacity="1.00"
			d=" M 430.85 191.82 C 433.87 185.70 437.40 179.79 441.77 174.53 C 443.80 175.57 445.86 176.57 447.93 177.53 C 447.35 179.85 446.23 182.38 447.47 184.70 C 449.53 189.68 454.65 192.12 459.34 194.03 C 460.40 200.85 460.66 207.77 461.79 214.58 C 462.23 217.38 463.68 220.51 466.73 221.16 C 475.90 223.41 485.19 220.09 493.30 215.94 C 492.46 225.15 491.95 234.87 487.03 243.00 C 486.14 244.88 483.84 247.44 486.04 249.29 C 489.29 249.77 492.04 247.02 495.03 246.03 C 506.46 241.36 518.10 237.03 530.10 234.08 C 524.16 240.83 517.18 246.54 510.55 252.58 C 497.96 263.97 483.80 273.41 469.54 282.53 C 461.73 287.70 453.48 292.29 446.28 298.31 C 444.13 300.02 442.63 302.35 441.49 304.81 C 445.97 302.74 449.69 299.42 453.84 296.80 C 459.78 293.01 465.77 289.28 472.00 285.99 C 491.28 275.52 508.29 261.34 523.73 245.86 C 523.38 248.22 522.95 250.59 522.87 252.98 C 522.63 258.07 525.17 262.86 524.66 267.97 C 523.87 277.41 521.87 286.70 519.61 295.88 C 518.58 300.35 516.93 304.82 517.49 309.50 C 521.46 305.64 522.08 299.88 523.70 294.87 C 525.97 285.64 529.13 276.52 529.71 266.97 C 530.11 261.48 526.87 256.51 527.22 251.01 C 527.16 246.63 528.69 242.47 530.37 238.50 C 533.43 249.45 537.17 260.30 542.59 270.33 C 543.67 272.21 544.84 274.33 547.00 275.12 C 549.15 275.19 550.72 273.47 552.16 272.11 C 559.18 264.63 565.18 256.26 570.54 247.53 C 575.61 240.11 580.01 232.20 582.82 223.62 C 584.61 229.26 586.54 234.96 586.71 240.94 C 587.10 247.36 584.55 253.41 582.63 259.41 C 580.26 266.24 578.71 273.31 576.40 280.16 C 575.04 284.41 573.31 288.59 572.86 293.06 C 575.98 290.72 577.02 286.83 578.41 283.39 C 580.95 276.39 583.61 269.43 586.27 262.47 C 586.56 273.78 586.88 285.54 582.20 296.12 C 574.98 312.77 565.45 328.30 557.68 344.69 C 551.17 358.44 543.48 371.62 537.62 385.67 C 535.66 376.95 533.93 368.17 531.82 359.47 C 530.51 354.14 530.27 348.46 527.79 343.47 C 526.38 347.35 527.25 351.46 527.79 355.42 C 529.61 368.27 531.09 381.34 535.33 393.67 C 540.61 406.06 547.57 418.22 548.58 431.93 C 549.42 439.72 547.97 447.47 546.57 455.10 C 544.31 465.99 541.48 476.75 539.56 487.71 C 533.74 480.20 529.28 471.75 525.87 462.91 C 523.24 456.84 521.74 450.32 518.72 444.42 C 517.47 447.49 518.24 450.75 519.16 453.79 C 522.18 463.82 525.40 473.97 531.17 482.81 C 534.87 488.33 538.43 493.95 541.93 499.60 C 540.55 502.49 539.23 505.41 537.98 508.36 C 529.86 506.70 521.95 504.24 514.01 501.92 C 500.36 497.82 485.96 498.12 471.90 496.75 C 456.94 495.45 441.75 496.39 427.21 500.21 C 420.24 501.64 413.23 504.04 406.03 503.32 C 401.55 502.37 396.40 498.00 398.13 492.94 C 399.80 487.14 402.00 481.50 404.06 475.83 C 405.17 478.26 406.02 481.08 408.28 482.75 C 412.28 485.73 417.38 486.57 422.21 487.21 C 431.73 488.12 441.39 488.06 450.85 486.51 C 454.86 485.81 459.29 484.99 461.90 481.51 C 448.12 483.72 433.95 484.63 420.13 482.33 C 416.46 481.44 411.89 480.68 409.85 477.10 C 406.23 468.44 408.29 458.91 409.55 449.99 C 409.63 434.94 405.48 420.12 406.61 405.02 C 406.85 397.38 409.50 390.14 412.00 383.01 C 415.72 372.91 422.62 363.92 424.02 353.03 C 424.75 348.09 425.82 343.18 425.78 338.16 C 422.93 340.63 422.79 344.61 421.84 347.99 C 420.79 353.28 418.80 358.32 416.46 363.16 C 416.34 357.74 415.71 352.28 416.46 346.88 C 420.11 326.77 429.99 308.50 434.38 288.58 C 438.50 270.70 443.68 252.45 441.09 233.93 C 440.81 231.19 439.39 228.79 437.76 226.64 C 438.68 237.28 438.81 248.06 436.46 258.55 C 432.60 255.67 429.02 252.32 424.68 250.16 C 421.31 248.42 417.60 250.28 414.19 250.87 C 419.77 240.68 422.66 229.37 424.48 217.97 C 426.28 209.19 426.83 199.97 430.85 191.82 M 566.20 274.29 C 556.86 289.93 550.30 306.95 542.40 323.31 C 540.81 326.65 539.36 330.22 539.83 334.02 C 540.63 333.12 541.37 332.19 542.06 331.21 C 551.76 313.21 559.86 294.41 569.49 276.37 C 572.07 271.13 575.20 266.07 576.65 260.37 L 574.97 260.12 C 570.97 264.05 569.24 269.65 566.20 274.29 Z" />
	</g>
	<g id="#2b3dcdff">
		<path fill="var(--pants-color, grey)" opacity="1.00"
			d=" M 435.08 503.05 C 448.25 500.49 461.77 500.42 475.11 501.51 C 486.81 502.52 498.70 502.53 510.12 505.59 C 518.83 507.96 527.41 510.95 536.35 512.43 C 533.63 522.45 539.58 531.97 538.95 541.99 C 537.99 563.72 532.14 584.93 524.41 605.16 C 520.11 616.93 514.94 628.46 512.60 640.84 C 507.22 659.58 509.71 679.67 503.31 698.18 C 502.40 701.04 501.37 703.87 500.34 706.70 C 491.75 704.46 482.97 702.59 474.05 702.67 C 461.70 702.76 449.17 703.67 437.04 700.80 C 423.67 697.92 411.49 689.86 397.47 690.21 C 399.14 684.09 402.18 678.35 402.89 672.00 C 403.84 664.01 403.20 655.93 404.29 647.95 C 407.01 625.80 409.29 603.22 405.43 581.05 C 404.17 571.70 401.70 562.50 401.19 553.06 C 400.70 543.96 406.24 535.95 406.48 526.95 C 406.72 520.68 405.56 514.47 405.33 508.23 C 415.51 508.45 425.23 505.08 435.08 503.05 Z" />
		<path fill="var(--socks-color, grey)" opacity="1.00"
			d=" M 459.98 759.90 C 464.88 755.80 469.10 750.93 472.42 745.48 C 484.68 756.23 492.38 771.11 497.78 786.27 C 503.72 802.18 505.75 819.18 507.18 836.01 C 508.38 855.97 513.71 875.48 520.60 894.19 C 525.02 905.63 528.28 917.68 528.74 929.99 C 528.82 933.78 527.94 938.25 524.47 940.40 C 521.25 942.04 517.15 941.90 514.13 939.89 C 507.30 935.83 503.50 928.49 497.41 923.59 C 495.26 921.77 492.33 921.74 489.67 921.50 C 486.37 904.26 479.25 888.07 471.85 872.26 C 462.66 851.89 448.02 834.58 438.72 814.28 C 433.20 801.96 429.72 788.81 423.64 776.74 C 437.16 775.11 449.63 768.51 459.98 759.90 Z" />
	</g>
	<g id="#4d4d4dff">
		<path fill="#4d4d4d" opacity="1.00"
			d=" M 536.15 918.17 C 539.25 917.09 541.05 920.46 542.20 922.74 C 547.92 935.67 548.33 950.09 548.58 964.00 C 548.56 967.03 548.70 971.01 545.42 972.47 C 534.73 978.11 522.42 979.19 510.58 980.32 C 494.72 981.55 478.85 982.68 462.95 982.97 C 452.62 983.14 442.31 983.77 432.01 984.48 C 425.53 984.80 418.15 984.56 413.14 979.86 C 410.85 977.96 410.38 974.47 411.79 971.92 C 414.64 966.50 419.93 962.94 425.19 960.11 C 438.06 953.22 452.42 950.07 466.10 945.26 C 475.17 942.34 482.42 935.60 488.32 928.34 C 489.32 927.25 490.35 925.92 491.96 925.81 C 495.19 926.50 497.28 929.30 499.42 931.59 C 503.88 936.82 508.60 942.29 515.13 944.95 C 520.64 947.49 527.91 945.26 530.99 940.02 C 534.01 935.23 533.34 929.35 533.20 923.98 C 532.97 921.67 534.14 919.33 536.15 918.17 Z" />
	</g>
</svg>