<?xml version="1.0" encoding="UTF-8" ?>
<!DOCTYPE svg PUBLIC "-//W3C//DTD SVG 1.1//EN" "http://www.w3.org/Graphics/SVG/1.1/DTD/svg11.dtd">
<svg width="1000pt" height="1000pt" viewBox="0 0 1000 1000" version="1.1" xmlns="http://www.w3.org/2000/svg">
	<g id="#020202ff">
		<path fill="#020202" opacity="1.00"
			d=" M 410.16 67.14 C 424.30 58.20 441.59 55.14 458.11 56.41 C 475.45 57.95 493.03 64.02 505.75 76.27 C 512.85 82.99 517.79 91.99 519.20 101.71 C 520.73 108.71 519.69 115.84 519.38 122.89 C 521.33 130.92 525.17 138.87 531.46 144.40 C 537.43 149.57 545.51 150.39 552.83 152.42 C 560.56 154.28 568.45 155.38 576.28 156.74 C 586.96 158.36 598.20 158.87 607.93 164.08 C 615.90 167.99 622.12 174.48 628.50 180.49 C 634.86 186.45 640.54 193.08 646.79 199.15 C 651.75 204.21 657.32 208.92 660.69 215.28 C 666.22 225.01 666.87 236.45 670.09 246.97 C 673.80 257.72 680.43 267.06 686.11 276.81 C 690.81 284.73 694.69 293.08 698.62 301.40 C 706.32 316.89 712.29 333.59 713.41 350.97 C 713.62 363.31 713.61 375.75 716.09 387.90 C 719.60 405.99 727.88 422.77 730.94 440.96 C 733.42 454.86 735.28 468.91 735.36 483.04 C 735.36 490.88 739.53 498.82 736.44 506.52 C 734.32 511.50 733.37 516.93 730.61 521.64 C 723.15 535.03 716.31 548.75 709.38 562.41 C 701.68 577.61 697.07 594.19 694.48 610.98 C 690.35 634.79 680.94 657.91 665.73 676.82 C 660.03 684.36 653.08 690.91 647.87 698.82 C 644.17 705.35 640.62 712.42 640.47 720.08 C 640.31 721.66 640.50 723.90 638.60 724.51 C 634.92 726.15 630.85 726.55 626.91 727.18 C 618.91 728.25 610.87 729.13 602.79 729.19 C 598.16 735.39 593.11 741.27 588.61 747.57 C 584.99 752.59 582.74 759.16 584.88 765.26 C 590.88 782.99 592.94 802.50 587.77 820.70 C 582.87 837.56 572.88 852.22 564.23 867.30 C 559.09 875.16 554.26 883.62 552.86 893.05 C 554.24 903.01 554.21 913.58 549.89 922.88 C 546.63 930.38 541.59 937.05 535.47 942.44 C 528.70 948.25 520.10 951.37 511.50 953.30 C 495.61 956.90 479.13 957.41 462.96 955.81 C 454.03 954.97 445.07 952.44 437.62 947.34 C 433.82 944.75 431.47 939.89 432.47 935.33 C 433.95 930.93 437.86 927.96 441.60 925.51 C 455.17 917.00 470.51 911.23 482.84 900.78 C 489.34 895.70 495.06 889.72 501.60 884.70 C 505.47 863.36 505.37 841.64 505.76 820.04 C 505.98 807.68 505.20 795.23 507.16 782.97 C 510.23 763.52 515.53 744.50 521.57 725.79 C 525.85 711.70 531.68 698.17 536.82 684.39 C 532.84 673.92 530.58 662.92 527.86 652.09 C 524.14 640.46 519.30 629.22 514.46 618.03 C 507.47 626.79 500.25 635.40 492.45 643.46 C 489.31 646.53 485.67 649.95 481.02 650.09 C 468.70 650.69 456.45 646.77 446.16 640.13 C 436.51 646.57 427.11 653.42 417.17 659.40 C 426.91 680.54 425.44 704.59 423.03 727.14 C 421.43 745.87 416.66 764.09 413.22 782.52 C 409.37 801.73 405.52 820.96 401.11 840.06 C 400.10 845.06 396.81 849.66 397.80 854.95 C 399.13 866.90 401.08 878.87 400.54 890.94 C 400.19 896.12 398.27 901.84 393.44 904.49 C 388.51 907.58 382.47 907.16 376.94 906.61 C 356.36 904.52 335.65 905.60 315.01 905.47 C 298.35 905.20 280.83 905.17 265.71 897.24 C 262.52 895.52 260.90 891.51 261.87 888.05 C 262.82 884.09 266.34 881.60 269.44 879.34 C 277.01 873.92 286.12 871.50 294.84 868.62 C 306.43 865.06 317.32 859.64 327.93 853.85 C 332.99 850.85 337.98 847.72 343.27 845.14 C 343.15 839.81 343.52 834.50 344.16 829.22 C 345.80 815.84 343.84 802.41 342.52 789.09 C 339.96 767.50 338.11 745.80 338.15 724.03 C 338.20 709.98 338.09 695.78 341.04 681.97 C 342.45 672.80 345.81 663.59 343.98 654.23 C 342.92 641.65 341.57 628.07 347.52 616.42 C 354.01 603.26 365.78 593.78 373.32 581.32 C 378.62 571.36 383.52 561.15 389.72 551.71 C 398.93 538.50 408.87 525.71 420.64 514.67 C 438.78 497.97 458.01 482.43 478.18 468.25 C 481.95 465.53 486.10 463.39 490.43 461.71 C 494.35 457.59 499.66 455.33 504.68 452.89 C 505.17 448.50 505.51 443.85 508.11 440.10 C 512.93 432.75 519.46 426.74 524.76 419.74 C 528.99 414.83 530.32 408.18 530.74 401.90 C 529.78 397.94 528.01 394.16 527.99 390.01 C 527.42 378.35 521.78 367.92 517.63 357.27 C 496.13 359.12 474.54 358.10 453.03 356.98 C 445.67 356.62 438.31 355.78 430.94 356.21 C 427.29 356.22 424.73 359.09 421.84 360.87 C 417.75 363.70 413.00 365.62 408.03 366.06 C 400.29 367.07 392.68 364.71 384.98 364.43 C 377.54 364.01 370.39 366.87 362.96 366.68 C 356.50 366.89 349.85 364.39 345.63 359.41 C 344.01 357.52 344.55 354.92 344.55 352.65 C 343.03 350.35 341.17 347.95 341.33 345.03 C 341.21 342.02 343.05 339.50 344.63 337.11 C 343.03 333.62 343.21 329.84 344.72 326.35 C 341.17 321.26 344.11 314.94 347.80 310.86 C 354.01 303.22 364.61 300.96 373.99 301.87 C 382.91 303.29 390.99 307.74 398.61 312.40 C 404.84 316.12 411.53 319.87 418.98 320.05 C 426.37 320.09 433.59 318.31 440.90 317.49 C 452.92 316.18 464.98 314.88 476.83 312.35 C 483.76 310.82 490.39 308.21 497.19 306.19 C 492.15 296.84 489.32 286.40 487.51 275.99 C 484.74 254.74 486.81 233.20 489.99 212.12 C 487.39 209.19 484.84 206.23 482.23 203.31 C 476.81 210.76 470.47 217.85 462.36 222.43 C 457.07 225.34 450.53 223.41 445.88 220.13 C 440.49 215.81 436.71 209.88 432.65 204.37 C 430.94 202.20 429.11 199.16 425.95 199.33 C 420.43 199.48 414.43 200.60 409.45 197.51 C 405.44 195.22 404.86 190.21 404.48 186.07 C 404.03 176.52 403.91 166.86 401.64 157.52 C 399.13 147.45 393.50 138.52 390.51 128.62 C 389.32 124.85 389.85 120.86 389.41 117.00 C 388.67 114.02 387.26 111.12 387.47 107.97 C 387.28 102.98 390.69 98.87 391.08 93.98 C 392.72 82.61 400.70 73.14 410.16 67.14 M 400.10 110.99 C 400.42 115.98 403.95 119.84 405.90 124.24 C 401.42 124.19 397.02 123.09 393.16 120.82 C 393.17 128.70 397.61 135.46 400.38 142.56 C 404.40 138.09 410.13 135.63 415.92 134.40 C 424.02 132.80 432.45 133.15 440.48 134.98 C 438.42 138.91 435.13 141.94 432.35 145.34 C 427.79 150.20 424.16 156.02 418.88 160.15 C 415.10 159.41 414.87 154.39 412.83 151.67 C 409.42 150.98 406.07 150.03 402.93 148.54 C 407.55 160.38 408.11 173.26 408.71 185.81 C 409.13 189.11 409.25 193.71 413.06 194.95 C 418.44 196.19 424.11 193.64 429.42 195.48 C 434.36 197.68 437.03 202.69 440.27 206.74 C 443.23 210.38 445.69 214.66 449.72 217.26 C 452.79 219.02 456.97 220.46 460.16 218.16 C 469.59 211.72 477.12 202.93 483.66 193.66 C 484.97 192.23 486.18 189.68 488.55 190.34 C 488.27 193.77 486.22 196.66 484.69 199.63 C 490.69 205.99 496.07 212.93 500.55 220.43 C 504.89 226.73 508.90 233.31 511.55 240.52 C 513.69 227.70 518.76 215.64 523.69 203.70 C 530.51 187.19 535.56 170.03 542.01 153.39 C 538.94 152.43 535.78 151.63 532.94 150.07 C 525.60 146.26 521.07 138.94 517.71 131.67 C 516.07 139.51 515.18 147.61 512.32 155.12 C 511.54 153.52 511.12 151.76 511.49 149.99 C 512.39 142.86 513.87 135.81 514.95 128.70 C 507.49 140.09 496.99 149.61 484.42 155.04 C 484.69 147.68 485.24 140.21 483.40 132.99 C 482.09 125.06 477.67 117.52 470.76 113.25 C 467.24 111.59 462.85 114.02 461.35 117.39 C 459.86 121.35 459.69 125.65 458.85 129.77 C 455.26 131.60 451.76 133.62 447.95 134.94 C 445.17 126.23 439.60 118.31 431.96 113.22 C 428.22 118.21 422.51 122.25 416.04 121.94 C 414.75 122.04 414.06 121.45 413.95 120.16 C 413.16 117.14 413.23 113.89 411.89 111.02 C 410.40 107.60 406.57 105.56 402.93 105.65 C 400.57 106.17 399.90 108.91 400.10 110.99 M 546.05 155.12 C 541.16 167.99 537.26 181.21 532.41 194.09 C 526.43 211.02 517.82 227.22 515.27 245.19 C 514.70 247.83 515.04 251.24 512.20 252.66 C 509.82 247.31 508.12 241.68 505.51 236.43 C 502.17 229.45 497.37 223.34 493.46 216.69 C 491.68 231.05 490.16 245.52 490.78 260.00 C 490.81 275.57 494.73 290.96 500.80 305.23 C 508.51 302.61 516.39 300.51 524.08 297.84 C 535.83 293.95 547.16 288.50 559.54 286.86 C 559.44 282.19 560.22 277.23 558.20 272.85 C 555.58 267.06 550.81 262.53 548.44 256.61 C 545.80 250.06 545.02 242.97 544.18 236.02 C 544.06 233.41 543.01 230.08 545.64 228.31 C 547.61 236.99 548.54 245.97 551.81 254.31 C 554.21 260.49 559.17 265.25 561.62 271.40 C 563.28 275.56 562.74 280.14 562.50 284.51 C 571.98 278.94 582.89 275.55 593.95 275.94 C 603.33 276.33 612.93 278.76 620.53 284.49 C 627.63 289.66 632.69 296.98 639.22 302.76 C 642.40 305.64 646.17 307.75 649.86 309.90 C 648.95 304.30 647.89 298.72 647.36 293.07 C 646.05 280.74 647.72 268.34 646.64 256.00 C 646.05 242.13 642.75 227.95 634.39 216.62 C 640.02 217.27 642.48 222.89 644.53 227.42 C 652.22 244.52 650.84 263.74 650.61 282.00 C 650.39 290.72 651.92 299.32 653.06 307.93 C 653.02 309.96 653.95 313.71 650.96 313.93 C 642.36 314.30 633.62 314.26 625.19 312.26 C 621.19 323.60 616.94 335.47 607.93 343.89 C 600.49 350.89 589.92 352.87 580.06 353.38 C 564.42 354.41 548.79 355.66 533.13 356.42 C 540.81 369.60 548.60 382.83 558.76 394.30 C 569.41 406.89 582.19 418.18 597.73 424.24 C 600.20 425.20 602.97 425.85 604.74 428.01 C 601.70 428.27 598.60 428.16 595.71 427.13 C 588.90 424.78 582.57 421.25 576.37 417.63 C 565.74 411.27 557.07 402.16 549.54 392.43 C 541.39 381.38 533.69 369.68 529.17 356.63 C 526.75 356.77 524.35 356.92 521.95 357.09 C 525.82 364.97 529.31 373.12 531.28 381.70 C 532.51 386.80 531.87 392.29 533.92 397.20 C 536.27 401.21 540.94 402.85 544.56 405.47 C 553.47 411.80 561.36 419.41 569.86 426.25 C 580.77 434.92 592.22 443.03 604.70 449.32 C 620.29 457.22 636.54 463.91 653.36 468.73 C 658.43 470.30 663.73 471.42 668.35 474.15 C 664.20 475.41 660.03 473.86 655.99 473.00 C 645.64 470.59 635.42 467.58 625.61 463.50 C 607.05 456.19 589.13 446.96 573.44 434.55 C 560.35 425.04 549.27 412.82 535.10 404.80 C 534.24 410.13 533.35 415.69 530.25 420.26 C 525.95 426.51 520.76 432.08 515.86 437.86 C 513.21 441.07 510.41 444.51 509.89 448.79 C 509.26 451.13 509.59 454.01 507.85 455.88 C 503.59 459.01 497.79 459.64 494.16 463.74 C 497.06 467.52 500.27 471.06 503.19 474.84 C 510.48 484.17 518.97 492.57 525.39 502.58 C 537.03 519.89 553.37 534.47 573.01 541.95 C 588.72 548.41 605.92 552.36 622.93 549.88 C 639.62 547.27 654.70 539.25 670.41 533.50 C 681.01 529.18 692.33 527.17 703.57 525.38 C 714.18 522.04 725.02 517.08 731.78 507.87 C 735.18 499.72 730.69 491.33 730.52 483.06 C 730.17 468.31 728.32 453.60 725.35 439.15 C 722.00 422.38 714.69 406.71 711.23 389.96 C 708.23 376.52 708.32 362.68 708.14 348.99 C 706.81 333.43 701.54 318.43 694.52 304.56 C 690.69 296.50 686.99 288.36 682.44 280.68 C 677.01 271.34 670.85 262.38 666.58 252.42 C 662.21 242.21 661.86 230.79 657.47 220.61 C 654.29 213.27 647.99 208.11 642.46 202.61 C 635.02 195.34 628.04 187.61 620.31 180.65 C 613.49 174.08 605.51 168.25 596.19 165.92 C 587.59 163.74 578.69 163.08 570.06 161.03 C 561.94 159.53 554.08 156.97 546.05 155.12 M 566.91 286.05 C 573.06 286.21 579.22 286.79 585.27 287.91 C 587.06 288.18 588.58 289.20 590.05 290.20 C 580.70 290.93 571.30 288.88 561.97 290.11 C 547.95 291.56 535.21 297.86 521.91 301.99 C 508.32 306.19 494.94 311.05 481.30 315.09 C 467.45 318.52 453.22 319.92 439.09 321.66 C 430.49 322.79 421.76 325.32 413.08 323.52 C 401.81 320.89 392.88 312.99 382.27 308.79 C 376.21 306.18 369.45 305.23 362.90 305.86 C 355.98 307.54 348.93 311.83 346.65 318.96 C 345.76 322.01 348.60 323.91 350.47 325.74 C 349.14 327.88 347.00 330.04 347.37 332.78 C 347.92 334.54 349.18 335.96 350.16 337.50 C 348.67 339.58 346.72 341.37 345.68 343.74 C 344.55 346.73 347.06 349.30 348.62 351.57 C 348.85 353.47 348.10 355.82 349.60 357.35 C 352.37 360.09 356.08 361.90 359.98 362.25 C 368.11 363.10 375.89 359.53 384.00 359.80 C 392.39 359.99 400.65 362.83 409.07 361.57 C 414.34 361.02 419.05 358.27 423.13 355.04 C 425.04 353.44 427.38 352.34 429.90 352.25 C 440.59 351.63 451.26 352.85 461.92 353.31 C 470.94 353.69 479.97 354.13 489.00 354.15 C 502.84 354.47 516.63 352.94 530.43 352.14 C 546.64 351.38 562.81 349.83 579.00 348.72 C 587.97 348.24 597.60 346.70 604.60 340.60 C 610.26 334.86 614.11 327.58 616.91 320.08 C 620.11 311.81 623.96 303.37 623.88 294.34 C 617.27 285.85 606.69 281.33 596.16 280.36 C 586.09 279.17 575.91 281.54 566.91 286.05 M 627.71 298.20 C 627.56 301.81 627.00 305.39 626.21 308.91 C 631.16 309.77 636.13 310.53 641.16 310.72 C 636.16 307.14 631.58 302.98 627.71 298.20 M 470.09 479.10 C 463.00 484.29 456.22 489.87 449.40 495.40 C 436.37 506.25 423.31 517.19 412.08 529.95 C 406.17 536.20 401.41 543.39 396.18 550.18 C 390.82 557.50 386.51 565.52 382.27 573.51 C 400.03 574.52 416.80 581.01 432.87 588.17 C 448.84 595.94 464.57 605.08 476.94 618.01 C 482.51 624.34 488.11 631.35 489.36 639.96 C 506.76 620.23 521.78 598.56 537.53 577.53 C 537.95 578.72 539.13 579.94 538.27 581.24 C 535.38 587.74 531.56 593.78 527.79 599.79 C 524.81 604.57 520.84 608.69 518.18 613.65 C 519.75 618.85 522.59 623.55 524.49 628.62 C 527.96 637.66 532.04 646.55 533.94 656.10 C 535.42 663.28 537.56 670.31 539.87 677.27 C 541.81 682.85 543.91 688.62 548.10 692.95 C 553.44 698.62 559.61 703.41 565.59 708.37 C 571.90 713.17 578.15 718.41 585.73 721.09 C 592.53 723.56 599.86 723.87 607.02 723.79 C 616.64 723.48 626.23 722.50 635.76 721.15 C 635.69 711.67 640.01 702.84 644.91 694.97 C 651.64 685.75 659.84 677.67 666.29 668.22 C 676.55 653.43 683.89 636.61 687.75 619.02 C 690.04 609.40 691.05 599.51 693.81 589.99 C 696.96 576.40 702.68 563.59 709.14 551.28 C 714.49 541.18 719.59 530.93 725.76 521.29 C 720.24 524.43 714.62 527.45 708.69 529.75 C 703.06 531.95 696.91 531.81 691.05 533.02 C 668.38 536.85 648.66 550.20 626.04 554.20 C 607.86 557.28 589.18 553.68 572.35 546.58 C 550.31 538.52 532.04 522.16 519.25 502.73 C 510.02 490.04 499.86 478.07 490.09 465.80 C 482.85 469.33 476.56 474.39 470.09 479.10 M 380.11 577.74 C 377.39 583.81 373.76 589.40 369.46 594.47 C 361.32 604.78 350.98 614.52 348.38 627.95 C 346.93 639.61 347.97 651.44 349.36 663.07 C 349.50 667.08 353.92 668.54 356.98 669.96 C 368.79 674.25 381.77 674.42 394.07 672.49 C 401.44 671.18 409.07 668.98 414.56 663.59 C 411.65 656.85 407.63 650.64 403.22 644.80 C 400.16 640.66 395.81 637.74 392.74 633.63 C 396.51 634.62 399.42 637.30 402.37 639.69 C 407.86 644.19 412.13 649.98 415.70 656.07 C 433.53 642.93 451.94 630.61 470.21 618.10 C 452.65 602.43 431.19 591.75 409.17 583.86 C 399.84 580.38 389.96 578.83 380.11 577.74 M 448.77 638.39 C 458.87 642.81 469.71 647.14 480.96 645.85 C 484.09 645.55 485.16 641.84 484.49 639.20 C 483.10 632.13 477.90 626.70 473.50 621.29 C 465.34 627.11 457.00 632.67 448.77 638.39 M 381.95 679.02 C 370.14 679.05 357.52 677.32 347.90 669.90 C 346.38 678.92 344.40 687.88 343.54 697.00 C 342.20 717.00 343.11 737.06 344.28 757.04 C 345.59 773.78 347.91 790.42 349.59 807.13 C 350.64 817.13 349.77 827.18 348.48 837.12 C 348.14 841.88 347.02 847.49 350.61 851.35 C 353.49 855.19 358.36 856.71 362.96 857.06 C 370.66 857.73 378.72 857.94 386.01 855.00 C 388.65 853.87 391.88 852.94 393.18 850.11 C 395.97 844.84 397.22 838.95 398.46 833.18 C 404.83 803.22 411.04 773.21 416.52 743.07 C 419.69 718.47 422.92 692.97 416.19 668.66 C 406.68 676.52 393.95 678.69 381.95 679.02 M 515.46 770.09 C 513.67 776.59 517.99 783.20 523.19 786.78 C 532.57 793.03 544.86 791.88 554.89 787.90 C 565.12 783.72 574.52 776.17 579.17 765.97 C 579.23 761.43 578.49 756.69 580.40 752.40 C 584.06 743.39 591.10 736.38 597.11 728.92 C 589.15 728.10 581.20 725.95 574.43 721.58 C 569.22 718.19 564.29 714.39 559.48 710.46 C 552.41 704.48 545.01 698.61 539.79 690.85 C 529.79 716.63 521.21 743.02 515.46 770.09 M 531.93 795.72 C 523.97 794.34 516.97 789.20 513.17 782.09 C 510.99 797.30 512.03 812.69 511.47 827.99 C 510.68 847.59 510.92 867.55 505.58 886.59 C 509.34 892.24 516.38 894.93 522.97 895.04 C 531.73 895.00 540.57 893.98 548.93 891.26 C 550.24 882.64 553.47 874.40 558.13 867.05 C 565.60 853.51 574.18 840.52 580.30 826.27 C 587.57 809.11 586.38 789.69 581.77 771.99 C 571.75 788.64 551.37 799.41 531.93 795.72 M 299.92 871.99 C 290.64 875.17 280.88 877.33 272.35 882.35 C 269.98 883.84 267.37 885.47 266.22 888.15 C 265.71 890.54 266.82 893.04 269.23 893.84 C 281.58 899.75 295.53 900.48 309.00 900.59 C 330.02 901.06 351.06 898.60 372.05 900.49 C 378.25 900.84 384.60 904.01 390.72 901.62 C 394.87 899.91 396.17 894.99 396.54 890.94 C 397.07 879.12 395.17 867.37 394.76 855.58 C 388.33 859.73 380.70 861.94 373.03 861.80 C 366.37 861.75 359.52 861.35 353.29 858.79 C 349.19 857.20 346.86 853.25 344.39 849.87 C 330.18 858.38 315.75 866.85 299.92 871.99 M 485.93 904.85 C 474.19 914.60 459.98 920.49 446.64 927.61 C 442.79 929.70 438.74 932.08 436.57 936.05 C 435.90 939.10 437.72 942.09 440.20 943.76 C 446.81 948.51 454.83 951.03 462.89 951.77 C 477.55 953.16 492.46 952.83 506.94 950.01 C 516.24 948.26 525.74 945.33 532.92 938.88 C 539.59 932.75 544.91 924.97 547.42 916.22 C 549.29 909.67 549.09 902.77 548.93 896.04 C 540.15 898.44 531.05 899.61 521.96 899.45 C 514.45 899.32 507.20 895.75 502.29 890.13 C 496.81 895.01 491.67 900.27 485.93 904.85 Z" />
		<path fill="#020202" opacity="1.00"
			d=" M 580.19 187.10 C 582.39 185.72 584.91 184.92 587.53 185.22 C 584.24 188.07 580.50 190.34 577.24 193.22 C 567.71 201.39 560.28 212.50 557.97 224.97 C 556.99 229.86 556.91 234.87 555.95 239.76 C 553.78 238.16 553.58 235.43 553.60 232.97 C 553.41 214.42 564.26 196.37 580.19 187.10 Z" />
		<path fill="#020202" opacity="1.00"
			d=" M 586.95 216.82 C 589.18 215.52 591.71 214.93 594.25 214.58 C 584.04 222.12 573.51 230.50 568.53 242.58 C 565.79 248.01 565.13 254.09 564.12 260.00 C 561.44 256.32 562.20 251.45 563.19 247.31 C 566.61 234.53 575.23 223.09 586.95 216.82 Z" />
		<path fill="#020202" opacity="1.00"
			d=" M 521.67 445.41 C 526.93 450.58 530.75 456.97 535.22 462.79 C 541.16 471.08 548.55 478.17 555.18 485.88 C 556.98 488.27 559.45 490.76 559.32 493.97 C 558.52 496.90 554.97 496.24 552.93 495.14 C 544.09 490.77 537.37 483.27 530.93 475.99 C 524.72 468.45 517.88 461.14 513.55 452.29 C 518.69 454.24 521.08 459.57 524.65 463.36 C 533.71 473.86 542.52 485.27 554.94 492.00 C 550.30 485.43 544.40 479.93 539.22 473.82 C 533.56 467.27 528.81 460.00 524.32 452.63 C 522.92 450.44 522.12 447.95 521.67 445.41 Z" />
	</g>
	<g id="#f0b58bff">
		<path fill="#f0b58b" opacity="1.00"
			d=" M 400.10 110.99 C 399.90 108.91 400.57 106.17 402.93 105.65 C 406.57 105.56 410.40 107.60 411.89 111.02 C 413.23 113.89 413.16 117.14 413.95 120.16 C 414.06 121.45 414.75 122.04 416.04 121.94 C 422.51 122.25 428.22 118.21 431.96 113.22 C 439.60 118.31 445.17 126.23 447.95 134.94 C 451.76 133.62 455.26 131.60 458.85 129.77 C 459.69 125.65 459.86 121.35 461.35 117.39 C 462.85 114.02 467.24 111.59 470.76 113.25 C 477.67 117.52 482.09 125.06 483.40 132.99 C 485.24 140.21 484.69 147.68 484.42 155.04 C 496.99 149.61 507.49 140.09 514.95 128.70 C 513.87 135.81 512.39 142.86 511.49 149.99 C 511.12 151.76 511.54 153.52 512.32 155.12 C 515.18 147.61 516.07 139.51 517.71 131.67 C 521.07 138.94 525.60 146.26 532.94 150.07 C 535.78 151.63 538.94 152.43 542.01 153.39 C 535.56 170.03 530.51 187.19 523.69 203.70 C 518.76 215.64 513.69 227.70 511.55 240.52 C 508.90 233.31 504.89 226.73 500.55 220.43 C 496.07 212.93 490.69 205.99 484.69 199.63 C 486.22 196.66 488.27 193.77 488.55 190.34 C 486.18 189.68 484.97 192.23 483.66 193.66 C 477.12 202.93 469.59 211.72 460.16 218.16 C 456.97 220.46 452.79 219.02 449.72 217.26 C 445.69 214.66 443.23 210.38 440.27 206.74 C 437.03 202.69 434.36 197.68 429.42 195.48 C 424.11 193.64 418.44 196.19 413.06 194.95 C 409.25 193.71 409.13 189.11 408.71 185.81 C 408.11 173.26 407.55 160.38 402.93 148.54 C 406.07 150.03 409.42 150.98 412.83 151.67 C 414.87 154.39 415.10 159.41 418.88 160.15 C 424.16 156.02 427.79 150.20 432.35 145.34 C 435.13 141.94 438.42 138.91 440.48 134.98 C 432.45 133.15 424.02 132.80 415.92 134.40 C 410.13 135.63 404.40 138.09 400.38 142.56 C 397.61 135.46 393.17 128.70 393.16 120.82 C 397.02 123.09 401.42 124.19 405.90 124.24 C 403.95 119.84 400.42 115.98 400.10 110.99 Z" />
		<path fill="#f0b58b" opacity="1.00"
			d=" M 566.91 286.05 C 575.91 281.54 586.09 279.17 596.16 280.36 C 606.69 281.33 617.27 285.85 623.88 294.34 C 623.96 303.37 620.11 311.81 616.91 320.08 C 614.11 327.58 610.26 334.86 604.60 340.60 C 597.60 346.70 587.97 348.24 579.00 348.72 C 562.81 349.83 546.64 351.38 530.43 352.14 C 516.63 352.94 502.84 354.47 489.00 354.15 C 479.97 354.13 470.94 353.69 461.92 353.31 C 451.26 352.85 440.59 351.63 429.90 352.25 C 427.38 352.34 425.04 353.44 423.13 355.04 C 419.05 358.27 414.34 361.02 409.07 361.57 C 400.65 362.83 392.39 359.99 384.00 359.80 C 375.89 359.53 368.11 363.10 359.98 362.25 C 356.08 361.90 352.37 360.09 349.60 357.35 C 348.10 355.82 348.85 353.47 348.62 351.57 C 347.06 349.30 344.55 346.73 345.68 343.74 C 346.72 341.37 348.67 339.58 350.16 337.50 C 349.18 335.96 347.92 334.54 347.37 332.78 C 347.00 330.04 349.14 327.88 350.47 325.74 C 348.60 323.91 345.76 322.01 346.65 318.96 C 348.93 311.83 355.98 307.54 362.90 305.86 C 369.45 305.23 376.21 306.18 382.27 308.79 C 392.88 312.99 401.81 320.89 413.08 323.52 C 421.76 325.32 430.49 322.79 439.09 321.66 C 453.22 319.92 467.45 318.52 481.30 315.09 C 494.94 311.05 508.32 306.19 521.91 301.99 C 535.21 297.86 547.95 291.56 561.97 290.11 C 571.30 288.88 580.70 290.93 590.05 290.20 C 588.58 289.20 587.06 288.18 585.27 287.91 C 579.22 286.79 573.06 286.21 566.91 286.05 Z" />
		<path fill="#f0b58b" opacity="1.00"
			d=" M 380.11 577.74 C 389.96 578.83 399.84 580.38 409.17 583.86 C 431.19 591.75 452.65 602.43 470.21 618.10 C 451.94 630.61 433.53 642.93 415.70 656.07 C 412.13 649.98 407.86 644.19 402.37 639.69 C 399.42 637.30 396.51 634.62 392.74 633.63 C 395.81 637.74 400.16 640.66 403.22 644.80 C 407.63 650.64 411.65 656.85 414.56 663.59 C 409.07 668.98 401.44 671.18 394.07 672.49 C 381.77 674.42 368.79 674.25 356.98 669.96 C 353.92 668.54 349.50 667.08 349.36 663.07 C 347.97 651.44 346.93 639.61 348.38 627.95 C 350.98 614.52 361.32 604.78 369.46 594.47 C 373.76 589.40 377.39 583.81 380.11 577.74 Z" />
		<path fill="#f0b58b" opacity="1.00"
			d=" M 515.46 770.09 C 521.21 743.02 529.79 716.63 539.79 690.85 C 545.01 698.61 552.41 704.48 559.48 710.46 C 564.29 714.39 569.22 718.19 574.43 721.58 C 581.20 725.95 589.15 728.10 597.11 728.92 C 591.10 736.38 584.06 743.39 580.40 752.40 C 578.49 756.69 579.23 761.43 579.17 765.97 C 574.52 776.17 565.12 783.72 554.89 787.90 C 544.86 791.88 532.57 793.03 523.19 786.78 C 517.99 783.20 513.67 776.59 515.46 770.09 Z" />
	</g>
	<g id="#f11b27ff">
		<path fill="var(--shirt-color, grey)" opacity="1.00"
			d=" M 546.05 155.12 C 554.08 156.97 561.94 159.53 570.06 161.03 C 578.69 163.08 587.59 163.74 596.19 165.92 C 605.51 168.25 613.49 174.08 620.31 180.65 C 628.04 187.61 635.02 195.34 642.46 202.61 C 647.99 208.11 654.29 213.27 657.47 220.61 C 661.86 230.79 662.21 242.21 666.58 252.42 C 670.85 262.38 677.01 271.34 682.44 280.68 C 686.99 288.36 690.69 296.50 694.52 304.56 C 701.54 318.43 706.81 333.43 708.14 348.99 C 708.32 362.68 708.23 376.52 711.23 389.96 C 714.69 406.71 722.00 422.38 725.35 439.15 C 728.32 453.60 730.17 468.31 730.52 483.06 C 730.69 491.33 735.18 499.72 731.78 507.87 C 725.02 517.08 714.18 522.04 703.57 525.38 C 692.33 527.17 681.01 529.18 670.41 533.50 C 654.70 539.25 639.62 547.27 622.93 549.88 C 605.92 552.36 588.72 548.41 573.01 541.95 C 553.37 534.47 537.03 519.89 525.39 502.58 C 518.97 492.57 510.48 484.17 503.19 474.84 C 500.27 471.06 497.06 467.52 494.16 463.74 C 497.79 459.64 503.59 459.01 507.85 455.88 C 509.59 454.01 509.26 451.13 509.89 448.79 C 510.41 444.51 513.21 441.07 515.86 437.86 C 520.76 432.08 525.95 426.51 530.25 420.26 C 533.35 415.69 534.24 410.13 535.10 404.80 C 549.27 412.82 560.35 425.04 573.44 434.55 C 589.13 446.96 607.05 456.19 625.61 463.50 C 635.42 467.58 645.64 470.59 655.99 473.00 C 660.03 473.86 664.20 475.41 668.35 474.15 C 663.73 471.42 658.43 470.30 653.36 468.73 C 636.54 463.91 620.29 457.22 604.70 449.32 C 592.22 443.03 580.77 434.92 569.86 426.25 C 561.36 419.41 553.47 411.80 544.56 405.47 C 540.94 402.85 536.27 401.21 533.92 397.20 C 531.87 392.29 532.51 386.80 531.28 381.70 C 529.31 373.12 525.82 364.97 521.95 357.09 C 524.35 356.92 526.75 356.77 529.17 356.63 C 533.69 369.68 541.39 381.38 549.54 392.43 C 557.07 402.16 565.74 411.27 576.37 417.63 C 582.57 421.25 588.90 424.78 595.71 427.13 C 598.60 428.16 601.70 428.27 604.74 428.01 C 602.97 425.85 600.20 425.20 597.73 424.24 C 582.19 418.18 569.41 406.89 558.76 394.30 C 548.60 382.83 540.81 369.60 533.13 356.42 C 548.79 355.66 564.42 354.41 580.06 353.38 C 589.92 352.87 600.49 350.89 607.93 343.89 C 616.94 335.47 621.19 323.60 625.19 312.26 C 633.62 314.26 642.36 314.30 650.96 313.93 C 653.95 313.71 653.02 309.96 653.06 307.93 C 651.92 299.32 650.39 290.72 650.61 282.00 C 650.84 263.74 652.22 244.52 644.53 227.42 C 642.48 222.89 640.02 217.27 634.39 216.62 C 642.75 227.95 646.05 242.13 646.64 256.00 C 647.72 268.34 646.05 280.74 647.36 293.07 C 647.89 298.72 648.95 304.30 649.86 309.90 C 646.17 307.75 642.40 305.64 639.22 302.76 C 632.69 296.98 627.63 289.66 620.53 284.49 C 612.93 278.76 603.33 276.33 593.95 275.94 C 582.89 275.55 571.98 278.94 562.50 284.51 C 562.74 280.14 563.28 275.56 561.62 271.40 C 559.17 265.25 554.21 260.49 551.81 254.31 C 548.54 245.97 547.61 236.99 545.64 228.31 C 543.01 230.08 544.06 233.41 544.18 236.02 C 545.02 242.97 545.80 250.06 548.44 256.61 C 550.81 262.53 555.58 267.06 558.20 272.85 C 560.22 277.23 559.44 282.19 559.54 286.86 C 547.16 288.50 535.83 293.95 524.08 297.84 C 516.39 300.51 508.51 302.61 500.80 305.23 C 494.73 290.96 490.81 275.57 490.78 260.00 C 490.16 245.52 491.68 231.05 493.46 216.69 C 497.37 223.34 502.17 229.45 505.51 236.43 C 508.12 241.68 509.82 247.31 512.20 252.66 C 515.04 251.24 514.70 247.83 515.27 245.19 C 517.82 227.22 526.43 211.02 532.41 194.09 C 537.26 181.21 541.16 167.99 546.05 155.12 M 580.19 187.10 C 564.26 196.37 553.41 214.42 553.60 232.97 C 553.58 235.43 553.78 238.16 555.95 239.76 C 556.91 234.87 556.99 229.86 557.97 224.97 C 560.28 212.50 567.71 201.39 577.24 193.22 C 580.50 190.34 584.24 188.07 587.53 185.22 C 584.91 184.92 582.39 185.72 580.19 187.10 M 586.95 216.82 C 575.23 223.09 566.61 234.53 563.19 247.31 C 562.20 251.45 561.44 256.32 564.12 260.00 C 565.13 254.09 565.79 248.01 568.53 242.58 C 573.51 230.50 584.04 222.12 594.25 214.58 C 591.71 214.93 589.18 215.52 586.95 216.82 M 521.67 445.41 C 522.12 447.95 522.92 450.44 524.32 452.63 C 528.81 460.00 533.56 467.27 539.22 473.82 C 544.40 479.93 550.30 485.43 554.94 492.00 C 542.52 485.27 533.71 473.86 524.65 463.36 C 521.08 459.57 518.69 454.24 513.55 452.29 C 517.88 461.14 524.72 468.45 530.93 475.99 C 537.37 483.27 544.09 490.77 552.93 495.14 C 554.97 496.24 558.52 496.90 559.32 493.97 C 559.45 490.76 556.98 488.27 555.18 485.88 C 548.55 478.17 541.16 471.08 535.22 462.79 C 530.75 456.97 526.93 450.58 521.67 445.41 Z" />
		<path fill="var(--shirt-color, grey)" opacity="1.00"
			d=" M 627.71 298.20 C 631.58 302.98 636.16 307.14 641.16 310.72 C 636.13 310.53 631.16 309.77 626.21 308.91 C 627.00 305.39 627.56 301.81 627.71 298.20 Z" />
	</g>
	<g id="#2b3dcdff">
		<path fill="var(--pants-color, grey)" opacity="1.00"
			d=" M 470.09 479.10 C 476.56 474.39 482.85 469.33 490.09 465.80 C 499.86 478.07 510.02 490.04 519.25 502.73 C 532.04 522.16 550.31 538.52 572.35 546.58 C 589.18 553.68 607.86 557.28 626.04 554.20 C 648.66 550.20 668.38 536.85 691.05 533.02 C 696.91 531.81 703.06 531.95 708.69 529.75 C 714.62 527.45 720.24 524.43 725.76 521.29 C 719.59 530.93 714.49 541.18 709.14 551.28 C 702.68 563.59 696.96 576.40 693.81 589.99 C 691.05 599.51 690.04 609.40 687.75 619.02 C 683.89 636.61 676.55 653.43 666.29 668.22 C 659.84 677.67 651.64 685.75 644.91 694.97 C 640.01 702.84 635.69 711.67 635.76 721.15 C 626.23 722.50 616.64 723.48 607.02 723.79 C 599.86 723.87 592.53 723.56 585.73 721.09 C 578.15 718.41 571.90 713.17 565.59 708.37 C 559.61 703.41 553.44 698.62 548.10 692.95 C 543.91 688.62 541.81 682.85 539.87 677.27 C 537.56 670.31 535.42 663.28 533.94 656.10 C 532.04 646.55 527.96 637.66 524.49 628.62 C 522.59 623.55 519.75 618.85 518.18 613.65 C 520.84 608.69 524.81 604.57 527.79 599.79 C 531.56 593.78 535.38 587.74 538.27 581.24 C 539.13 579.94 537.95 578.72 537.53 577.53 C 521.78 598.56 506.76 620.23 489.36 639.96 C 488.11 631.35 482.51 624.34 476.94 618.01 C 464.57 605.08 448.84 595.94 432.87 588.17 C 416.80 581.01 400.03 574.52 382.27 573.51 C 386.51 565.52 390.82 557.50 396.18 550.18 C 401.41 543.39 406.17 536.20 412.08 529.95 C 423.31 517.19 436.37 506.25 449.40 495.40 C 456.22 489.87 463.00 484.29 470.09 479.10 Z" />
		<path fill="var(--socks-color, grey)" opacity="1.00"
			d=" M 448.77 638.39 C 457.00 632.67 465.34 627.11 473.50 621.29 C 477.90 626.70 483.10 632.13 484.49 639.20 C 485.16 641.84 484.09 645.55 480.96 645.85 C 469.71 647.14 458.87 642.81 448.77 638.39 Z" />
		<path fill="var(--socks-color, grey)" opacity="1.00"
			d=" M 381.95 679.02 C 393.95 678.69 406.68 676.52 416.19 668.66 C 422.92 692.97 419.69 718.47 416.52 743.07 C 411.04 773.21 404.83 803.22 398.46 833.18 C 397.22 838.95 395.97 844.84 393.18 850.11 C 391.88 852.94 388.65 853.87 386.01 855.00 C 378.72 857.94 370.66 857.73 362.96 857.06 C 358.36 856.71 353.49 855.19 350.61 851.35 C 347.02 847.49 348.14 841.88 348.48 837.12 C 349.77 827.18 350.64 817.13 349.59 807.13 C 347.91 790.42 345.59 773.78 344.28 757.04 C 343.11 737.06 342.20 717.00 343.54 697.00 C 344.40 687.88 346.38 678.92 347.90 669.90 C 357.52 677.32 370.14 679.05 381.95 679.02 Z" />
		<path fill="var(--socks-color, grey)" opacity="1.00"
			d=" M 531.93 795.72 C 551.37 799.41 571.75 788.64 581.77 771.99 C 586.38 789.69 587.57 809.11 580.30 826.27 C 574.18 840.52 565.60 853.51 558.13 867.05 C 553.47 874.40 550.24 882.64 548.93 891.26 C 540.57 893.98 531.73 895.00 522.97 895.04 C 516.38 894.93 509.34 892.24 505.58 886.59 C 510.92 867.55 510.68 847.59 511.47 827.99 C 512.03 812.69 510.99 797.30 513.17 782.09 C 516.97 789.20 523.97 794.34 531.93 795.72 Z" />
	</g>
	<g id="#4d4d4dff">
		<path fill="#4d4d4d" opacity="1.00"
			d=" M 299.92 871.99 C 315.75 866.85 330.18 858.38 344.39 849.87 C 346.86 853.25 349.19 857.20 353.29 858.79 C 359.52 861.35 366.37 861.75 373.03 861.80 C 380.70 861.94 388.33 859.73 394.76 855.58 C 395.17 867.37 397.07 879.12 396.54 890.94 C 396.17 894.99 394.87 899.91 390.72 901.62 C 384.60 904.01 378.25 900.84 372.05 900.49 C 351.06 898.60 330.02 901.06 309.00 900.59 C 295.53 900.48 281.58 899.75 269.23 893.84 C 266.82 893.04 265.71 890.54 266.22 888.15 C 267.37 885.47 269.98 883.84 272.35 882.35 C 280.88 877.33 290.64 875.17 299.92 871.99 Z" />
		<path fill="#4d4d4d" opacity="1.00"
			d=" M 485.93 904.85 C 491.67 900.27 496.81 895.01 502.29 890.13 C 507.20 895.75 514.45 899.32 521.96 899.45 C 531.05 899.61 540.15 898.44 548.93 896.04 C 549.09 902.77 549.29 909.67 547.42 916.22 C 544.91 924.97 539.59 932.75 532.92 938.88 C 525.74 945.33 516.24 948.26 506.94 950.01 C 492.46 952.83 477.55 953.16 462.89 951.77 C 454.83 951.03 446.81 948.51 440.20 943.76 C 437.72 942.09 435.90 939.10 436.57 936.05 C 438.74 932.08 442.79 929.70 446.64 927.61 C 459.98 920.49 474.19 914.60 485.93 904.85 Z" />
	</g>
</svg>