<?xml version="1.0" encoding="UTF-8" ?>
<!DOCTYPE svg PUBLIC "-//W3C//DTD SVG 1.1//EN" "http://www.w3.org/Graphics/SVG/1.1/DTD/svg11.dtd">
<svg width="1000pt" height="1000pt" viewBox="0 0 1000 1000" version="1.1" xmlns="http://www.w3.org/2000/svg">
	<g id="#020202ff">
		<path fill="#020202" opacity="1.00"
			d=" M 190.17 88.09 C 200.29 74.96 216.74 68.25 232.84 66.38 C 249.93 64.63 267.77 67.73 282.79 76.23 C 294.86 83.28 305.10 94.85 307.57 108.94 C 308.69 114.26 307.54 119.65 307.44 125.01 C 307.81 130.03 308.43 135.36 311.38 139.62 C 315.14 145.46 319.30 151.07 324.14 156.07 C 330.97 153.07 338.44 151.33 345.92 151.70 C 350.20 151.87 354.66 152.30 358.74 150.65 C 368.23 147.03 378.14 144.64 388.11 142.79 C 401.28 140.58 414.77 141.45 427.90 143.59 C 439.42 145.42 450.35 149.85 461.92 151.49 C 470.25 152.61 478.53 154.45 486.95 154.75 C 497.99 154.32 509.05 154.64 520.08 155.14 C 523.22 155.42 526.56 155.18 529.48 156.57 C 530.38 160.23 526.91 163.43 525.83 166.77 C 536.60 166.04 547.55 164.86 558.27 166.72 C 565.06 167.68 570.12 172.96 573.64 178.48 C 579.10 187.16 586.04 194.77 591.85 203.21 C 601.53 216.01 611.10 228.96 619.13 242.88 C 623.10 251.16 627.35 259.30 631.66 267.41 C 636.60 277.58 641.22 287.90 645.69 298.29 C 649.54 307.78 653.12 317.39 657.23 326.78 C 664.38 342.35 674.02 356.71 680.09 372.78 C 680.93 375.17 681.27 378.52 678.82 380.10 C 676.76 381.47 674.41 380.17 672.38 379.51 C 673.75 382.78 675.05 386.37 674.35 389.98 C 674.03 392.26 671.63 392.92 669.89 393.82 C 670.76 396.83 672.27 400.40 670.26 403.29 C 668.23 405.93 664.38 405.52 661.66 404.35 C 654.23 401.26 648.96 394.93 643.13 389.67 C 647.49 396.25 652.49 402.40 658.08 407.99 C 662.19 412.82 667.69 416.54 670.69 422.26 C 672.79 425.36 669.40 429.60 666.01 429.47 C 661.69 429.40 658.21 426.58 654.93 424.11 C 647.63 418.83 639.60 414.18 633.92 407.02 C 627.99 398.87 626.67 388.61 624.93 378.95 C 622.11 366.67 619.08 354.39 614.25 342.72 C 608.77 330.59 599.19 321.13 591.50 310.45 C 586.79 303.90 581.68 297.67 576.47 291.51 C 571.22 285.30 566.67 278.54 562.28 271.71 C 554.37 259.38 546.26 247.02 540.88 233.32 C 535.68 233.09 530.48 233.05 525.29 232.91 C 525.84 234.47 526.35 236.04 526.85 237.63 C 513.67 236.30 500.33 236.97 487.38 239.79 C 492.19 250.01 496.87 260.34 503.34 269.65 C 511.96 282.17 521.30 294.20 530.91 305.98 C 539.36 315.22 547.50 324.73 556.09 333.86 C 567.21 345.46 577.87 357.49 588.28 369.73 C 602.21 384.71 613.59 401.91 623.06 419.99 C 630.35 434.62 636.69 449.99 639.39 466.20 C 639.61 468.21 640.26 470.37 639.49 472.35 C 638.33 472.90 637.16 473.39 635.98 473.84 C 638.41 485.04 640.67 496.48 640.03 507.99 C 638.91 515.97 637.67 523.93 636.60 531.92 C 635.39 542.27 636.57 552.68 637.47 563.01 C 639.85 595.66 641.17 628.55 638.28 661.21 C 637.61 664.31 637.91 669.42 633.97 670.26 C 630.58 667.08 629.69 662.14 627.10 658.36 C 624.08 673.73 621.65 689.60 623.80 705.25 C 624.77 710.65 625.89 716.82 630.57 720.33 C 647.42 732.19 667.46 738.16 684.99 748.83 C 696.93 756.56 708.42 765.37 717.39 776.52 C 727.27 788.67 736.37 801.49 746.99 813.03 C 754.97 821.38 762.87 829.89 771.97 837.06 C 779.72 843.53 788.47 848.61 796.88 854.13 C 804.11 858.81 811.07 863.89 817.85 869.20 C 825.54 875.63 834.74 880.02 842.11 886.89 C 850.04 894.34 858.61 901.70 863.31 911.76 C 866.06 917.64 868.93 924.31 866.96 930.88 C 865.33 935.82 862.67 940.45 859.32 944.42 C 851.91 952.13 841.88 956.33 833.01 962.01 C 823.31 968.50 816.19 977.93 807.71 985.79 C 800.50 992.39 790.34 993.86 780.97 994.55 C 771.23 995.53 761.50 994.05 751.81 993.15 C 745.50 992.55 739.00 991.05 733.90 987.10 C 730.75 984.74 729.90 980.11 731.76 976.70 C 733.80 972.37 738.47 970.45 742.52 968.51 C 748.90 965.35 756.21 962.38 759.47 955.54 C 765.51 942.29 769.64 928.26 775.62 914.97 C 770.30 909.17 763.08 905.78 756.76 901.27 C 736.56 887.45 715.98 874.20 696.03 860.03 C 683.15 850.84 670.09 841.78 658.51 830.96 C 656.79 840.99 658.51 851.44 655.23 861.22 C 650.59 875.45 641.46 887.64 631.95 898.98 C 626.39 905.11 620.48 911.78 612.29 914.25 C 608.10 915.62 603.32 913.55 601.24 909.72 C 597.26 903.56 598.61 895.89 598.92 889.00 C 599.61 881.01 598.48 873.03 598.84 865.04 C 599.14 855.34 598.44 845.66 598.11 835.97 C 597.90 828.86 596.50 821.88 594.98 814.96 C 593.83 809.89 593.27 804.63 591.14 799.84 C 589.38 794.75 584.61 791.73 580.57 788.59 C 569.09 781.09 556.57 775.31 543.89 770.17 C 531.40 765.21 518.09 762.95 505.31 758.89 C 490.99 754.22 476.44 749.97 462.94 743.15 C 443.83 734.08 425.87 722.86 407.32 712.72 C 396.02 706.29 384.34 700.52 373.36 693.52 C 365.26 689.68 358.27 684.02 350.67 679.34 C 342.97 674.38 334.69 668.88 330.89 660.19 C 328.46 652.93 328.49 644.67 331.68 637.65 C 336.96 623.36 347.30 611.86 354.54 598.62 C 358.10 592.88 360.11 586.36 363.51 580.54 C 361.09 580.47 358.67 580.43 356.25 580.45 C 356.04 576.33 358.75 572.91 360.27 569.29 C 368.34 554.35 378.64 540.66 390.11 528.16 C 397.89 520.24 405.40 512.04 412.49 503.49 C 418.18 496.54 425.10 490.77 431.61 484.64 C 436.30 480.65 439.96 475.68 442.56 470.11 C 438.24 460.20 432.41 450.99 424.94 443.14 C 416.29 433.46 407.48 423.84 397.36 415.66 C 389.34 409.29 381.51 402.70 374.05 395.68 C 371.61 400.43 369.13 405.48 369.51 410.98 C 369.25 414.56 370.51 418.48 368.95 421.83 C 365.92 424.23 361.60 422.92 358.07 422.69 C 354.26 430.31 349.92 437.78 344.13 444.08 C 340.91 447.40 336.89 450.73 331.97 450.53 C 321.55 450.08 311.03 449.16 300.99 446.17 C 291.54 443.77 282.54 439.99 273.43 436.58 C 262.15 432.27 251.25 427.05 240.61 421.36 C 230.42 416.04 219.43 412.60 208.90 408.08 C 203.17 405.73 196.98 405.05 190.96 403.88 C 186.21 403.05 182.00 399.88 177.02 400.50 C 170.00 400.68 165.58 392.73 167.27 386.40 C 165.69 385.15 163.63 384.06 163.13 381.93 C 162.00 378.44 164.26 375.21 166.44 372.72 C 163.49 371.01 160.10 368.81 159.88 365.04 C 159.76 360.82 163.79 358.35 166.82 356.24 C 164.22 354.18 160.73 352.46 159.72 349.04 C 159.23 345.56 161.57 342.33 164.38 340.53 C 169.52 337.68 175.93 335.89 181.56 338.50 C 180.62 334.32 180.69 329.70 182.86 325.91 C 183.89 324.18 186.15 323.57 188.03 324.02 C 192.09 324.95 195.29 327.92 197.90 331.02 C 203.09 337.16 208.84 342.84 215.18 347.79 C 221.16 353.11 228.26 357.57 232.34 364.68 C 233.98 367.47 233.68 371.36 236.57 373.35 C 241.25 377.22 246.78 380.01 252.61 381.68 C 259.93 383.74 267.20 386.09 274.75 387.16 C 284.42 388.88 294.25 388.90 303.98 389.97 C 304.08 389.20 304.28 387.67 304.38 386.91 C 302.74 386.33 300.34 386.18 300.08 384.00 C 296.89 372.93 295.45 361.40 294.63 349.94 C 293.93 340.98 296.42 331.64 293.11 323.00 C 289.59 312.62 283.30 303.12 281.96 292.06 C 280.17 281.44 280.82 270.60 281.91 259.94 C 283.38 251.12 285.05 241.70 290.93 234.61 C 284.11 223.11 276.10 210.87 263.30 205.47 C 258.53 212.09 254.04 219.74 246.31 223.24 C 242.47 225.14 237.76 224.18 234.59 221.43 C 229.00 216.64 224.96 210.41 220.63 204.54 C 218.78 202.17 216.83 199.65 213.99 198.44 C 210.78 198.03 207.54 199.14 204.35 198.47 C 199.53 197.20 195.71 192.93 194.89 188.03 C 193.91 182.70 194.63 177.21 193.51 171.89 C 192.18 164.80 188.10 158.64 186.25 151.72 C 183.66 142.43 182.11 132.72 183.06 123.07 C 179.66 118.80 178.76 113.03 180.91 107.97 C 183.98 101.34 185.42 93.86 190.17 88.09 M 191.88 115.02 C 192.22 119.76 195.16 123.63 197.31 127.69 C 193.48 129.20 189.59 127.85 186.44 125.53 C 186.91 132.65 187.92 139.73 189.57 146.68 C 199.74 135.91 215.89 134.63 229.74 136.52 C 229.97 136.89 230.43 137.62 230.66 137.98 C 225.68 143.81 219.50 148.52 214.66 154.50 C 212.51 156.78 211.01 159.88 208.11 161.30 C 204.78 161.00 204.28 156.68 202.42 154.48 C 198.96 154.99 195.44 154.95 192.05 154.00 C 195.06 159.90 198.17 165.91 199.36 172.48 C 200.26 177.31 199.60 182.26 200.31 187.11 C 200.76 190.67 204.30 193.85 207.98 193.03 C 211.56 192.55 215.52 191.96 218.64 194.25 C 225.23 198.74 228.46 206.43 233.84 212.13 C 236.53 215.15 240.09 220.43 244.75 217.78 C 251.48 214.02 255.00 206.67 260.75 201.74 C 264.19 198.92 266.64 194.75 270.87 193.05 C 270.92 196.61 268.55 199.31 266.50 201.93 C 280.89 210.23 290.22 224.42 299.12 237.97 C 302.67 242.48 307.32 246.00 310.73 250.65 C 309.89 245.14 309.72 239.55 310.01 233.98 C 310.23 209.06 316.89 184.58 326.77 161.83 C 315.90 156.73 309.41 145.79 303.89 135.63 C 303.29 144.32 300.96 152.78 298.18 160.99 C 297.40 163.47 296.07 165.72 294.30 167.62 C 294.46 165.32 294.96 163.06 295.64 160.86 C 298.10 152.80 300.01 144.57 301.41 136.26 C 297.23 141.42 292.43 146.09 286.90 149.79 C 281.61 153.97 275.16 156.12 269.21 159.14 C 272.17 149.70 271.88 139.36 268.94 129.94 C 267.46 125.38 265.17 120.54 260.80 118.12 C 257.91 116.52 254.79 118.73 253.14 121.06 C 250.38 125.04 248.92 129.78 248.04 134.50 C 244.80 136.30 241.40 137.77 237.96 139.13 C 234.67 130.93 229.86 123.26 223.27 117.32 C 220.17 121.30 216.33 124.98 211.47 126.63 C 209.51 127.36 207.02 126.92 205.88 125.04 C 203.47 121.12 203.33 115.48 198.71 113.23 C 196.43 111.33 192.56 111.77 191.88 115.02 M 393.12 147.63 C 379.98 149.24 366.99 152.59 354.82 157.76 C 346.21 164.89 340.08 174.43 333.70 183.48 C 333.45 180.20 334.92 177.23 336.69 174.59 C 340.76 168.36 345.20 162.29 350.69 157.22 C 343.05 156.05 335.37 156.88 327.81 158.19 C 328.62 158.56 330.24 159.32 331.04 159.70 C 329.50 165.60 326.97 171.18 325.09 176.98 C 317.61 196.71 315.38 217.99 315.12 238.96 C 314.94 246.33 316.07 253.72 315.16 261.06 C 313.78 262.60 312.00 261.27 311.39 259.77 C 306.92 252.12 300.65 245.56 293.10 240.91 C 289.92 248.24 287.65 256.01 286.99 263.99 C 286.08 275.02 285.53 286.37 288.59 297.14 C 291.82 306.32 296.60 314.89 299.58 324.17 C 302.20 332.91 299.98 342.06 300.49 350.99 C 301.03 361.33 302.25 371.64 303.77 381.89 C 316.29 382.38 326.19 390.99 334.50 399.51 C 340.98 406.44 348.44 412.48 356.74 417.13 C 359.47 418.58 362.59 418.99 365.59 419.60 C 364.99 414.77 364.02 409.86 364.84 405.00 C 365.57 400.33 367.70 396.06 369.79 391.88 C 363.99 386.83 358.14 381.78 353.15 375.91 C 344.47 365.92 337.28 354.75 330.52 343.42 C 324.52 332.86 317.50 322.62 314.23 310.80 C 313.83 308.99 313.34 305.81 316.01 305.76 C 318.32 309.12 319.51 313.08 321.56 316.59 C 332.46 335.57 342.81 355.12 357.15 371.82 C 362.63 378.34 369.29 383.70 375.63 389.34 C 381.50 394.48 387.10 399.94 393.24 404.77 C 401.37 411.20 409.45 417.78 416.39 425.51 C 426.05 437.02 436.85 448.14 442.70 462.22 C 444.05 452.99 446.20 443.89 448.87 434.96 C 450.82 428.23 454.25 422.07 456.43 415.42 C 459.77 406.40 461.40 396.86 464.95 387.91 C 467.04 382.69 468.58 376.96 472.68 372.87 C 471.85 377.80 469.58 382.29 468.13 387.04 C 466.17 392.93 464.97 399.02 463.84 405.11 C 462.05 414.35 458.69 423.18 454.95 431.78 C 451.08 442.43 448.81 453.58 446.43 464.64 C 451.54 461.35 456.35 457.61 461.58 454.51 C 470.10 449.76 479.06 445.88 488.00 442.01 C 500.93 437.11 513.34 430.96 525.63 424.67 C 532.74 420.75 540.23 417.52 547.94 415.01 C 551.48 414.05 555.33 413.06 558.95 414.18 C 561.08 414.84 561.46 417.71 560.29 419.39 C 558.74 421.77 556.29 423.36 553.99 424.96 C 548.97 428.22 543.63 431.61 537.46 431.91 C 538.24 430.22 539.78 429.19 541.42 428.44 C 547.04 425.70 552.44 422.28 556.70 417.64 C 542.36 418.88 530.23 427.46 517.58 433.51 C 504.17 440.56 489.94 445.79 475.94 451.48 C 485.38 451.67 494.72 453.13 503.94 455.09 C 524.62 459.67 545.99 459.75 567.04 458.51 C 574.69 458.03 582.27 456.66 589.95 456.76 C 598.72 456.85 608.01 455.98 616.18 459.83 C 623.00 462.99 629.14 467.42 636.01 470.49 C 634.62 463.14 632.91 455.86 630.25 448.86 C 624.01 428.87 613.62 410.45 601.69 393.34 C 593.77 381.49 583.61 371.42 574.50 360.51 C 561.50 345.58 547.25 331.78 534.43 316.68 C 535.99 325.90 534.91 335.35 532.18 344.24 C 529.27 353.71 525.88 363.04 522.30 372.28 C 520.25 377.08 518.72 382.38 514.74 386.02 C 514.10 380.23 517.08 375.04 518.78 369.71 C 524.94 351.28 533.46 332.09 529.69 312.24 C 518.90 298.99 508.11 285.65 498.59 271.43 C 492.37 261.84 487.61 251.34 483.97 240.52 C 472.31 243.36 461.34 248.39 450.65 253.73 C 447.46 255.04 446.50 258.62 445.29 261.52 C 440.06 276.25 440.01 292.16 440.54 307.59 C 440.66 313.81 442.05 319.92 442.17 326.13 C 440.50 324.09 439.31 321.69 438.92 319.08 C 437.29 310.48 436.96 301.70 436.90 292.98 C 436.91 280.99 437.75 268.59 443.05 257.63 C 435.16 262.08 427.42 266.81 420.15 272.22 C 418.22 273.69 416.12 274.91 413.92 275.92 C 415.77 270.49 421.04 267.61 425.31 264.29 C 437.33 255.83 449.99 248.15 463.64 242.61 C 481.29 234.91 500.93 231.60 520.10 233.74 C 510.64 210.16 512.65 182.18 525.43 160.20 C 512.61 159.63 499.77 159.18 486.95 159.82 C 482.94 160.00 478.99 159.04 474.99 159.17 C 471.57 159.91 468.61 161.92 465.61 163.62 C 452.92 171.43 440.20 179.61 425.89 184.15 C 418.79 186.34 411.49 188.39 404.00 188.26 C 400.37 188.19 396.43 188.31 393.42 185.93 C 398.26 184.23 403.51 184.95 408.43 183.63 C 420.59 180.50 432.66 176.66 443.82 170.83 C 452.03 166.77 459.79 161.87 468.08 157.97 C 458.05 156.94 448.29 154.37 438.62 151.60 C 423.83 147.79 408.36 146.20 393.12 147.63 M 522.92 228.43 C 528.53 228.29 534.17 228.37 539.70 229.37 C 538.45 224.24 536.37 219.23 536.33 213.88 C 539.97 215.51 540.27 219.93 541.82 223.13 C 546.29 234.17 551.57 244.91 557.92 254.99 C 565.63 267.41 573.15 280.05 582.72 291.16 C 590.29 299.74 596.51 309.36 603.73 318.21 C 608.16 323.85 613.09 329.20 616.16 335.76 C 619.97 341.96 621.49 349.13 624.21 355.81 C 626.09 360.68 626.83 365.89 628.35 370.88 C 631.12 380.33 631.36 390.52 635.72 399.49 C 639.20 406.91 646.48 411.32 652.62 416.32 C 657.43 419.31 661.32 424.05 667.10 425.22 C 666.86 423.35 666.00 421.68 664.55 420.48 C 655.42 412.24 646.30 403.73 639.52 393.39 C 638.14 391.10 637.86 387.81 639.60 385.64 C 641.02 383.68 643.44 385.17 645.15 385.93 C 652.56 390.73 657.88 399.46 667.21 400.78 C 666.89 397.83 666.09 394.99 665.01 392.25 C 659.73 389.80 654.67 386.61 651.06 381.97 C 648.93 379.12 646.29 376.30 645.78 372.64 C 646.33 372.58 647.43 372.46 647.98 372.39 C 651.57 374.98 654.09 378.70 657.35 381.66 C 660.91 385.05 665.38 387.31 669.98 388.95 C 669.60 383.25 667.69 377.76 665.53 372.53 C 661.37 366.65 656.45 361.15 653.62 354.46 C 653.39 353.30 652.59 350.93 654.61 351.29 C 657.28 354.34 659.46 357.80 662.14 360.86 C 666.83 366.36 670.40 373.04 676.57 377.10 C 675.36 371.12 672.24 365.81 669.70 360.33 C 665.92 352.25 661.16 344.69 657.26 336.68 C 650.98 325.12 646.58 312.69 641.50 300.60 C 635.22 286.34 628.92 272.08 621.52 258.37 C 618.33 252.51 616.02 246.20 612.40 240.58 C 600.89 222.44 587.86 205.30 574.36 188.62 C 570.74 184.17 568.42 178.69 564.01 174.92 C 560.25 171.39 554.76 171.21 549.93 170.72 C 541.44 170.28 532.92 170.46 524.43 170.77 C 517.82 189.20 517.62 209.64 522.92 228.43 M 184.97 337.93 C 185.45 342.68 190.29 344.74 193.06 348.04 C 198.28 353.65 203.88 359.57 205.83 367.19 C 207.86 373.89 212.56 379.25 215.46 385.53 C 214.10 384.96 212.60 384.62 211.53 383.55 C 206.62 379.00 203.13 373.03 201.10 366.68 C 199.93 362.40 196.58 359.31 194.18 355.72 C 194.45 358.44 194.26 361.19 192.97 363.65 C 195.41 366.22 198.50 368.96 198.71 372.74 C 198.80 374.76 196.73 375.62 195.41 376.70 C 197.03 378.35 199.29 379.78 199.82 382.19 C 200.25 384.56 197.82 385.64 196.29 386.82 C 198.11 389.07 201.10 392.14 199.15 395.20 C 196.74 397.86 192.89 398.24 189.63 399.25 C 194.41 400.19 199.26 400.77 203.98 402.01 C 210.11 403.44 215.71 406.40 221.68 408.30 C 231.30 411.55 240.60 415.70 249.59 420.43 C 261.18 426.24 273.16 431.23 285.24 435.94 C 296.57 440.52 308.36 444.17 320.51 445.68 C 325.03 446.02 329.87 447.70 334.27 446.20 C 343.47 440.22 347.29 429.29 354.05 421.09 C 346.11 417.06 338.79 411.76 332.91 405.05 C 329.70 401.25 325.84 398.08 322.36 394.55 C 318.30 390.37 312.56 388.63 307.19 386.82 C 307.13 388.11 307.06 389.40 307.00 390.70 C 312.45 392.47 317.66 395.24 321.62 399.45 C 323.75 401.81 326.60 404.16 326.78 407.58 C 325.22 408.10 324.18 406.81 323.18 405.87 C 318.93 401.66 314.12 397.86 308.59 395.51 C 303.36 393.20 297.56 393.33 291.98 392.95 C 280.14 392.24 268.23 390.96 256.85 387.43 C 247.81 385.30 238.57 381.90 232.12 374.91 C 229.58 372.43 230.31 368.47 228.34 365.71 C 224.17 359.60 217.96 355.41 212.41 350.68 C 205.51 345.66 199.87 339.20 194.20 332.89 C 192.08 330.45 189.31 328.73 186.44 327.33 C 184.51 330.49 184.08 334.36 184.97 337.93 M 164.54 348.46 C 172.07 354.08 180.56 359.48 190.16 360.20 C 189.70 358.13 189.75 355.50 187.63 354.34 C 183.81 351.23 178.04 350.87 175.03 346.88 C 179.49 345.13 183.85 348.59 188.11 349.58 C 184.69 346.80 181.52 343.10 177.06 342.09 C 172.31 342.10 166.94 344.11 164.54 348.46 M 164.04 364.22 C 165.86 368.30 170.55 369.38 174.49 370.34 C 180.74 371.42 187.11 371.65 193.45 371.56 C 191.34 369.09 188.83 367.04 186.43 364.87 C 180.89 363.40 175.53 361.27 170.51 358.51 C 168.19 360.23 166.00 362.11 164.04 364.22 M 170.15 374.08 C 168.81 375.82 166.94 377.55 167.04 379.95 C 166.96 382.55 170.23 381.87 171.95 382.14 C 179.21 381.94 186.47 382.92 193.71 382.12 C 192.09 380.45 190.62 378.65 189.51 376.60 C 183.00 376.29 176.45 375.84 170.15 374.08 M 170.55 386.67 C 169.97 390.56 171.62 395.49 175.94 396.31 C 182.27 395.32 188.71 394.65 194.81 392.59 C 193.42 390.90 192.01 389.23 190.60 387.57 C 183.90 387.64 177.24 386.87 170.55 386.67 M 458.00 460.92 C 454.57 463.26 451.08 465.50 447.54 467.66 C 445.71 477.52 438.41 484.81 431.27 491.25 C 425.79 496.45 420.30 501.66 415.58 507.57 C 409.06 515.66 402.10 523.39 394.91 530.90 C 382.18 544.68 370.94 559.90 361.92 576.36 C 374.60 576.47 387.40 577.01 399.74 580.21 C 430.19 587.91 459.97 598.32 488.45 611.56 C 493.05 613.89 499.54 615.08 501.14 620.75 C 507.44 638.36 513.56 656.22 522.87 672.53 C 532.95 659.04 546.13 647.74 561.35 640.42 C 574.81 634.13 590.60 631.26 605.04 635.83 C 617.28 639.42 627.14 648.69 633.02 659.84 C 635.65 622.90 633.76 585.77 630.04 548.97 C 628.42 534.80 631.90 520.80 634.19 506.92 C 635.05 495.32 631.87 483.94 630.96 472.44 C 623.04 468.91 616.00 463.13 607.23 461.78 C 598.53 460.41 589.69 461.38 580.94 461.64 C 560.36 463.87 539.53 464.17 518.92 462.06 C 502.26 460.22 485.92 453.61 468.98 455.95 C 464.81 456.21 461.36 458.71 458.00 460.92 M 368.43 581.01 C 366.34 587.84 362.38 593.79 358.88 599.93 C 352.06 611.68 343.61 622.46 337.66 634.71 C 335.01 640.38 332.51 646.72 334.07 653.06 C 334.92 660.60 341.01 665.95 346.98 669.87 C 354.94 674.65 362.89 679.58 369.89 685.72 C 378.71 666.96 393.04 650.47 411.84 641.29 C 405.90 640.86 399.99 641.70 394.09 642.15 C 394.92 638.64 399.08 638.54 401.93 637.88 C 411.50 635.94 421.67 639.52 430.89 635.56 C 439.42 632.59 448.43 631.16 456.84 627.79 C 465.68 624.22 474.94 620.80 481.93 614.04 C 453.91 601.93 424.92 592.09 395.39 584.37 C 386.58 582.13 377.50 581.25 368.43 581.01 M 485.71 615.94 C 480.24 623.13 472.08 627.38 463.92 630.77 C 455.73 634.57 446.93 636.73 438.19 638.82 C 450.40 640.41 462.38 643.58 473.75 648.29 C 485.70 652.66 497.09 658.81 506.56 667.38 C 512.06 672.36 517.13 677.80 522.57 682.85 C 522.22 681.33 521.86 679.82 521.52 678.32 C 514.50 672.17 510.98 663.18 507.18 654.90 C 502.24 643.42 497.80 631.73 494.23 619.76 C 491.42 618.40 488.57 617.15 485.71 615.94 M 556.00 648.01 C 543.69 655.13 533.81 665.60 524.99 676.59 C 526.13 680.57 526.72 684.78 528.55 688.54 C 533.52 694.21 539.55 698.86 544.97 704.11 C 550.88 709.91 557.27 715.22 564.11 719.91 C 575.61 727.91 587.32 735.66 599.61 742.42 C 606.90 732.70 618.61 728.16 629.87 724.84 C 624.35 721.71 620.66 716.08 619.55 709.89 C 616.73 694.42 618.17 678.51 621.10 663.17 C 622.01 659.00 621.97 654.51 620.67 650.45 C 613.85 643.12 604.03 638.91 594.12 638.09 C 580.72 636.84 567.43 641.30 556.00 648.01 M 424.74 642.71 C 418.37 645.52 411.78 648.01 406.06 652.07 C 397.03 657.83 389.63 665.74 383.17 674.20 C 379.46 678.96 376.63 684.32 372.97 689.12 C 385.98 696.53 399.25 703.47 412.36 710.70 C 429.19 719.89 445.59 729.87 462.92 738.12 C 476.89 745.21 491.94 749.68 506.84 754.36 C 519.02 758.05 531.63 760.27 543.59 764.67 C 552.36 767.71 560.76 771.72 569.03 775.90 C 577.41 780.50 585.74 785.63 591.80 793.18 C 596.30 790.02 600.91 785.22 606.96 786.62 C 612.78 787.25 613.51 794.01 614.74 798.49 C 622.15 794.69 628.37 788.46 632.07 781.00 C 635.00 775.08 635.52 767.19 631.04 761.90 C 627.18 758.13 621.31 758.44 616.56 756.49 C 606.66 752.55 597.51 746.98 588.24 741.77 C 571.40 731.34 554.12 721.09 540.01 707.00 C 533.81 701.50 527.75 695.87 521.99 689.93 C 511.07 679.45 500.94 667.75 487.44 660.47 C 469.34 650.95 449.55 644.39 429.14 642.39 C 427.67 642.31 426.12 642.02 424.74 642.71 M 604.48 745.28 C 609.74 747.58 614.52 751.02 620.11 752.51 C 627.99 754.03 636.08 753.67 643.99 754.98 C 652.60 756.08 661.36 759.06 667.69 765.22 C 674.34 771.91 676.24 782.17 674.05 791.16 C 671.04 803.78 663.63 814.74 659.52 826.97 C 672.70 838.23 687.35 847.56 701.60 857.40 C 719.33 869.75 737.78 881.02 755.57 893.30 C 763.32 898.83 772.20 903.46 777.48 911.72 C 781.41 908.23 785.25 903.48 790.91 903.18 C 795.02 903.26 799.62 904.33 802.41 907.57 C 804.63 910.15 803.54 913.73 803.36 916.78 C 809.25 915.35 814.84 912.40 818.70 907.64 C 824.68 901.30 827.81 893.09 831.30 885.27 C 816.92 873.98 802.53 862.63 786.78 853.29 C 768.66 842.71 753.64 827.81 739.70 812.33 C 730.41 801.56 722.16 789.96 713.09 779.01 C 704.68 768.65 693.99 760.46 682.95 753.09 C 674.05 747.57 664.39 743.41 654.83 739.17 C 647.79 736.02 641.24 731.92 634.57 728.09 C 624.06 732.91 612.91 737.03 604.48 745.28 M 637.31 760.46 C 639.47 764.93 641.04 769.90 640.32 774.93 C 638.87 786.47 630.95 796.26 621.42 802.45 C 617.96 804.78 612.47 806.19 609.46 802.42 C 607.67 799.25 607.41 795.48 606.31 792.06 C 602.53 792.80 599.33 794.93 596.45 797.38 C 599.14 805.28 600.69 813.50 602.53 821.62 C 604.66 830.94 604.16 840.54 604.65 850.02 C 605.17 859.36 604.32 868.70 604.65 878.05 C 604.88 884.72 603.75 891.32 603.32 897.96 C 603.04 901.90 603.56 906.50 606.81 909.19 C 609.38 910.92 612.57 909.30 614.96 908.00 C 621.47 904.02 626.45 898.08 631.29 892.29 C 639.36 882.39 646.57 871.47 650.29 859.15 C 653.07 849.97 650.98 840.25 652.58 830.90 C 654.89 816.57 663.39 804.31 667.53 790.56 C 669.14 784.36 670.19 776.68 665.39 771.57 C 658.47 763.47 647.46 761.10 637.31 760.46 M 814.64 917.73 C 810.36 920.09 805.36 922.74 800.36 921.39 C 796.46 919.54 798.35 914.52 797.80 911.16 C 794.63 909.01 790.03 908.37 786.81 910.76 C 781.44 914.40 778.29 920.32 776.24 926.31 C 772.12 937.61 768.81 949.35 762.83 959.86 C 757.93 968.16 748.31 971.00 740.37 975.41 C 738.06 976.67 734.94 979.44 736.63 982.29 C 740.53 986.16 746.30 987.02 751.53 987.69 C 760.32 988.56 769.08 990.30 777.96 989.84 C 786.11 989.57 795.02 989.02 801.59 983.62 C 809.18 977.18 814.89 968.86 822.49 962.42 C 829.82 955.62 839.20 951.80 847.70 946.75 C 853.02 943.63 857.69 939.15 860.52 933.63 C 863.39 927.44 860.90 920.55 858.30 914.74 C 853.59 903.92 844.51 895.91 835.85 888.25 C 831.66 899.73 825.41 911.22 814.64 917.73 Z" />
	</g>
	<g id="#f0b58bff">
		<path fill="#f0b58b" opacity="1.00"
			d=" M 191.88 115.02 C 192.56 111.77 196.43 111.33 198.71 113.23 C 203.33 115.48 203.47 121.12 205.88 125.04 C 207.02 126.92 209.51 127.36 211.47 126.63 C 216.33 124.98 220.17 121.30 223.27 117.32 C 229.86 123.26 234.67 130.93 237.96 139.13 C 241.40 137.77 244.80 136.30 248.04 134.50 C 248.92 129.78 250.38 125.04 253.14 121.06 C 254.79 118.73 257.91 116.52 260.80 118.12 C 265.17 120.54 267.46 125.38 268.94 129.94 C 271.88 139.36 272.17 149.70 269.21 159.14 C 275.16 156.12 281.61 153.97 286.90 149.79 C 292.43 146.09 297.23 141.42 301.41 136.26 C 300.01 144.57 298.10 152.80 295.64 160.86 C 294.96 163.06 294.46 165.32 294.30 167.62 C 296.07 165.72 297.40 163.47 298.18 160.99 C 300.96 152.78 303.29 144.32 303.89 135.63 C 309.41 145.79 315.90 156.73 326.77 161.83 C 316.89 184.58 310.23 209.06 310.01 233.98 C 309.72 239.55 309.89 245.14 310.73 250.65 C 307.32 246.00 302.67 242.48 299.12 237.97 C 290.22 224.42 280.89 210.23 266.50 201.93 C 268.55 199.31 270.92 196.61 270.87 193.05 C 266.64 194.75 264.19 198.92 260.75 201.74 C 255.00 206.67 251.48 214.02 244.75 217.78 C 240.09 220.43 236.53 215.15 233.84 212.13 C 228.46 206.43 225.23 198.74 218.64 194.25 C 215.52 191.96 211.56 192.55 207.98 193.03 C 204.30 193.85 200.76 190.67 200.31 187.11 C 199.60 182.26 200.26 177.31 199.36 172.48 C 198.17 165.91 195.06 159.90 192.05 154.00 C 195.44 154.95 198.96 154.99 202.42 154.48 C 204.28 156.68 204.78 161.00 208.11 161.30 C 211.01 159.88 212.51 156.78 214.66 154.50 C 219.50 148.52 225.68 143.81 230.66 137.98 C 230.43 137.62 229.97 136.89 229.74 136.52 C 215.89 134.63 199.74 135.91 189.57 146.68 C 187.92 139.73 186.91 132.65 186.44 125.53 C 189.59 127.85 193.48 129.20 197.31 127.69 C 195.16 123.63 192.22 119.76 191.88 115.02 Z" />
		<path fill="#f0b58b" opacity="1.00"
			d=" M 522.92 228.43 C 517.62 209.64 517.82 189.20 524.43 170.77 C 532.92 170.46 541.44 170.28 549.93 170.72 C 554.76 171.21 560.25 171.39 564.01 174.92 C 568.42 178.69 570.74 184.17 574.36 188.62 C 587.86 205.30 600.89 222.44 612.40 240.58 C 616.02 246.20 618.33 252.51 621.52 258.37 C 628.92 272.08 635.22 286.34 641.50 300.60 C 646.58 312.69 650.98 325.12 657.26 336.68 C 661.16 344.69 665.92 352.25 669.70 360.33 C 672.24 365.81 675.36 371.12 676.57 377.10 C 670.40 373.04 666.83 366.36 662.14 360.86 C 659.46 357.80 657.28 354.34 654.61 351.29 C 652.59 350.93 653.39 353.30 653.62 354.46 C 656.45 361.15 661.37 366.65 665.53 372.53 C 667.69 377.76 669.60 383.25 669.98 388.95 C 665.38 387.31 660.91 385.05 657.35 381.66 C 654.09 378.70 651.57 374.98 647.98 372.39 C 647.43 372.46 646.33 372.58 645.78 372.64 C 646.29 376.30 648.93 379.12 651.06 381.97 C 654.67 386.61 659.73 389.80 665.01 392.25 C 666.09 394.99 666.89 397.83 667.21 400.78 C 657.88 399.46 652.56 390.73 645.15 385.93 C 643.44 385.17 641.02 383.68 639.60 385.64 C 637.86 387.81 638.14 391.10 639.52 393.39 C 646.30 403.73 655.42 412.24 664.55 420.48 C 666.00 421.68 666.86 423.35 667.10 425.22 C 661.32 424.05 657.43 419.31 652.62 416.32 C 646.48 411.32 639.20 406.91 635.72 399.49 C 631.36 390.52 631.12 380.33 628.35 370.88 C 626.83 365.89 626.09 360.68 624.21 355.81 C 621.49 349.13 619.97 341.96 616.16 335.76 C 613.09 329.20 608.16 323.85 603.73 318.21 C 596.51 309.36 590.29 299.74 582.72 291.16 C 573.15 280.05 565.63 267.41 557.92 254.99 C 551.57 244.91 546.29 234.17 541.82 223.13 C 540.27 219.93 539.97 215.51 536.33 213.88 C 536.37 219.23 538.45 224.24 539.70 229.37 C 534.17 228.37 528.53 228.29 522.92 228.43 Z" />
		<path fill="#f0b58b" opacity="1.00"
			d=" M 184.97 337.93 C 184.08 334.36 184.51 330.49 186.44 327.33 C 189.31 328.73 192.08 330.45 194.20 332.89 C 199.87 339.20 205.51 345.66 212.41 350.68 C 217.96 355.41 224.17 359.60 228.34 365.71 C 230.31 368.47 229.58 372.43 232.12 374.91 C 238.57 381.90 247.81 385.30 256.85 387.43 C 268.23 390.96 280.14 392.24 291.98 392.95 C 297.56 393.33 303.36 393.20 308.59 395.51 C 314.12 397.86 318.93 401.66 323.18 405.87 C 324.18 406.81 325.22 408.10 326.78 407.58 C 326.60 404.16 323.75 401.81 321.62 399.45 C 317.66 395.24 312.45 392.47 307.00 390.70 C 307.06 389.40 307.13 388.11 307.19 386.82 C 312.56 388.63 318.30 390.37 322.36 394.55 C 325.84 398.08 329.70 401.25 332.91 405.05 C 338.79 411.76 346.11 417.06 354.05 421.09 C 347.29 429.29 343.47 440.22 334.27 446.20 C 329.87 447.70 325.03 446.02 320.51 445.68 C 308.36 444.17 296.57 440.52 285.24 435.94 C 273.16 431.23 261.18 426.24 249.59 420.43 C 240.60 415.70 231.30 411.55 221.68 408.30 C 215.71 406.40 210.11 403.44 203.98 402.01 C 199.26 400.77 194.41 400.19 189.63 399.25 C 192.89 398.24 196.74 397.86 199.15 395.20 C 201.10 392.14 198.11 389.07 196.29 386.82 C 197.82 385.64 200.25 384.56 199.82 382.19 C 199.29 379.78 197.03 378.35 195.41 376.70 C 196.73 375.62 198.80 374.76 198.71 372.74 C 198.50 368.96 195.41 366.22 192.97 363.65 C 194.26 361.19 194.45 358.44 194.18 355.72 C 196.58 359.31 199.93 362.40 201.10 366.68 C 203.13 373.03 206.62 379.00 211.53 383.55 C 212.60 384.62 214.10 384.96 215.46 385.53 C 212.56 379.25 207.86 373.89 205.83 367.19 C 203.88 359.57 198.28 353.65 193.06 348.04 C 190.29 344.74 185.45 342.68 184.97 337.93 Z" />
		<path fill="#f0b58b" opacity="1.00"
			d=" M 164.54 348.46 C 166.94 344.11 172.31 342.10 177.06 342.09 C 181.52 343.10 184.69 346.80 188.11 349.58 C 183.85 348.59 179.49 345.13 175.03 346.88 C 178.04 350.87 183.81 351.23 187.63 354.34 C 189.75 355.50 189.70 358.13 190.16 360.20 C 180.56 359.48 172.07 354.08 164.54 348.46 Z" />
		<path fill="#f0b58b" opacity="1.00"
			d=" M 164.04 364.22 C 166.00 362.11 168.19 360.23 170.51 358.51 C 175.53 361.27 180.89 363.40 186.43 364.87 C 188.83 367.04 191.34 369.09 193.45 371.56 C 187.11 371.65 180.74 371.42 174.49 370.34 C 170.55 369.38 165.86 368.30 164.04 364.22 Z" />
		<path fill="#f0b58b" opacity="1.00"
			d=" M 170.15 374.08 C 176.45 375.84 183.00 376.29 189.51 376.60 C 190.62 378.65 192.09 380.45 193.71 382.12 C 186.47 382.92 179.21 381.94 171.95 382.14 C 170.23 381.87 166.96 382.55 167.04 379.95 C 166.94 377.55 168.81 375.82 170.15 374.08 Z" />
		<path fill="#f0b58b" opacity="1.00"
			d=" M 170.55 386.67 C 177.24 386.87 183.90 387.64 190.60 387.57 C 192.01 389.23 193.42 390.90 194.81 392.59 C 188.71 394.65 182.27 395.32 175.94 396.31 C 171.62 395.49 169.97 390.56 170.55 386.67 Z" />
		<path fill="#f0b58b" opacity="1.00"
			d=" M 368.43 581.01 C 377.50 581.25 386.58 582.13 395.39 584.37 C 424.92 592.09 453.91 601.93 481.93 614.04 C 474.94 620.80 465.68 624.22 456.84 627.79 C 448.43 631.16 439.42 632.59 430.89 635.56 C 421.67 639.52 411.50 635.94 401.93 637.88 C 399.08 638.54 394.92 638.64 394.09 642.15 C 399.99 641.70 405.90 640.86 411.84 641.29 C 393.04 650.47 378.71 666.96 369.89 685.72 C 362.89 679.58 354.94 674.65 346.98 669.87 C 341.01 665.95 334.92 660.60 334.07 653.06 C 332.51 646.72 335.01 640.38 337.66 634.71 C 343.61 622.46 352.06 611.68 358.88 599.93 C 362.38 593.79 366.34 587.84 368.43 581.01 Z" />
		<path fill="#f0b58b" opacity="1.00"
			d=" M 556.00 648.01 C 567.43 641.30 580.72 636.84 594.12 638.09 C 604.03 638.91 613.85 643.12 620.67 650.45 C 621.97 654.51 622.01 659.00 621.10 663.17 C 618.17 678.51 616.73 694.42 619.55 709.89 C 620.66 716.08 624.35 721.71 629.87 724.84 C 618.61 728.16 606.90 732.70 599.61 742.42 C 587.32 735.66 575.61 727.91 564.11 719.91 C 557.27 715.22 550.88 709.91 544.97 704.11 C 539.55 698.86 533.52 694.21 528.55 688.54 C 526.72 684.78 526.13 680.57 524.99 676.59 C 533.81 665.60 543.69 655.13 556.00 648.01 Z" />
	</g>
	<g id="#f11b27ff">
		<path fill="var(--shirt-color, grey)" opacity="1.00"
			d=" M 393.12 147.63 C 408.36 146.20 423.83 147.79 438.62 151.60 C 448.29 154.37 458.05 156.94 468.08 157.97 C 459.79 161.87 452.03 166.77 443.82 170.83 C 432.66 176.66 420.59 180.50 408.43 183.63 C 403.51 184.95 398.26 184.23 393.42 185.93 C 396.43 188.31 400.37 188.19 404.00 188.26 C 411.49 188.39 418.79 186.34 425.89 184.15 C 440.20 179.61 452.92 171.43 465.61 163.62 C 468.61 161.92 471.57 159.91 474.99 159.17 C 478.99 159.04 482.94 160.00 486.95 159.82 C 499.77 159.18 512.61 159.63 525.43 160.20 C 512.65 182.18 510.64 210.16 520.10 233.74 C 500.93 231.60 481.29 234.91 463.64 242.61 C 449.99 248.15 437.33 255.83 425.31 264.29 C 421.04 267.61 415.77 270.49 413.92 275.92 C 416.12 274.91 418.22 273.69 420.15 272.22 C 427.42 266.81 435.16 262.08 443.05 257.63 C 437.75 268.59 436.91 280.99 436.90 292.98 C 436.96 301.70 437.29 310.48 438.92 319.08 C 439.31 321.69 440.50 324.09 442.17 326.13 C 442.05 319.92 440.66 313.81 440.54 307.59 C 440.01 292.16 440.06 276.25 445.29 261.52 C 446.50 258.62 447.46 255.04 450.65 253.73 C 461.34 248.39 472.31 243.36 483.97 240.52 C 487.61 251.34 492.37 261.84 498.59 271.43 C 508.11 285.65 518.90 298.99 529.69 312.24 C 533.46 332.09 524.94 351.28 518.78 369.71 C 517.08 375.04 514.10 380.23 514.74 386.02 C 518.72 382.38 520.25 377.08 522.30 372.28 C 525.88 363.04 529.27 353.71 532.18 344.24 C 534.91 335.35 535.99 325.90 534.43 316.68 C 547.25 331.78 561.50 345.58 574.50 360.51 C 583.61 371.42 593.77 381.49 601.69 393.34 C 613.62 410.45 624.01 428.87 630.25 448.86 C 632.91 455.86 634.62 463.14 636.01 470.49 C 629.14 467.42 623.00 462.99 616.18 459.83 C 608.01 455.98 598.72 456.85 589.95 456.76 C 582.27 456.66 574.69 458.03 567.04 458.51 C 545.99 459.75 524.62 459.67 503.94 455.09 C 494.72 453.13 485.38 451.67 475.94 451.48 C 489.94 445.79 504.17 440.56 517.58 433.51 C 530.23 427.46 542.36 418.88 556.70 417.64 C 552.44 422.28 547.04 425.70 541.42 428.44 C 539.78 429.19 538.24 430.22 537.46 431.91 C 543.63 431.61 548.97 428.22 553.99 424.96 C 556.29 423.36 558.74 421.77 560.29 419.39 C 561.46 417.71 561.08 414.84 558.95 414.18 C 555.33 413.06 551.48 414.05 547.94 415.01 C 540.23 417.52 532.74 420.75 525.63 424.67 C 513.34 430.96 500.93 437.11 488.00 442.01 C 479.06 445.88 470.10 449.76 461.58 454.51 C 456.35 457.61 451.54 461.35 446.43 464.64 C 448.81 453.58 451.08 442.43 454.95 431.78 C 458.69 423.18 462.05 414.35 463.84 405.11 C 464.97 399.02 466.17 392.93 468.13 387.04 C 469.58 382.29 471.85 377.80 472.68 372.87 C 468.58 376.96 467.04 382.69 464.95 387.91 C 461.40 396.86 459.77 406.40 456.43 415.42 C 454.25 422.07 450.82 428.23 448.87 434.96 C 446.20 443.89 444.05 452.99 442.70 462.22 C 436.85 448.14 426.05 437.02 416.39 425.51 C 409.45 417.78 401.37 411.20 393.24 404.77 C 387.10 399.94 381.50 394.48 375.63 389.34 C 369.29 383.70 362.63 378.34 357.15 371.82 C 342.81 355.12 332.46 335.57 321.56 316.59 C 319.51 313.08 318.32 309.12 316.01 305.76 C 313.34 305.81 313.83 308.99 314.23 310.80 C 317.50 322.62 324.52 332.86 330.52 343.42 C 337.28 354.75 344.47 365.92 353.15 375.91 C 358.14 381.78 363.99 386.83 369.79 391.88 C 367.70 396.06 365.57 400.33 364.84 405.00 C 364.02 409.86 364.99 414.77 365.59 419.60 C 362.59 418.99 359.47 418.58 356.74 417.13 C 348.44 412.48 340.98 406.44 334.50 399.51 C 326.19 390.99 316.29 382.38 303.77 381.89 C 302.25 371.64 301.03 361.33 300.49 350.99 C 299.98 342.06 302.20 332.91 299.58 324.17 C 296.60 314.89 291.82 306.32 288.59 297.14 C 285.53 286.37 286.08 275.02 286.99 263.99 C 287.65 256.01 289.92 248.24 293.10 240.91 C 300.65 245.56 306.92 252.12 311.39 259.77 C 312.00 261.27 313.78 262.60 315.16 261.06 C 316.07 253.72 314.94 246.33 315.12 238.96 C 315.38 217.99 317.61 196.71 325.09 176.98 C 326.97 171.18 329.50 165.60 331.04 159.70 C 330.24 159.32 328.62 158.56 327.81 158.19 C 335.37 156.88 343.05 156.05 350.69 157.22 C 345.20 162.29 340.76 168.36 336.69 174.59 C 334.92 177.23 333.45 180.20 333.70 183.48 C 340.08 174.43 346.21 164.89 354.82 157.76 C 366.99 152.59 379.98 149.24 393.12 147.63 Z" />
	</g>
	<g id="#2b3dcdff">
		<path fill="var(--pants-color, grey)" opacity="1.00"
			d=" M 458.00 460.92 C 461.36 458.71 464.81 456.21 468.98 455.95 C 485.92 453.61 502.26 460.22 518.92 462.06 C 539.53 464.17 560.36 463.87 580.94 461.64 C 589.69 461.38 598.53 460.41 607.23 461.78 C 616.00 463.13 623.04 468.91 630.96 472.44 C 631.87 483.94 635.05 495.32 634.19 506.92 C 631.90 520.80 628.42 534.80 630.04 548.97 C 633.76 585.77 635.65 622.90 633.02 659.84 C 627.14 648.69 617.28 639.42 605.04 635.83 C 590.60 631.26 574.81 634.13 561.35 640.42 C 546.13 647.74 532.95 659.04 522.87 672.53 C 513.56 656.22 507.44 638.36 501.14 620.75 C 499.54 615.08 493.05 613.89 488.45 611.56 C 459.97 598.32 430.19 587.91 399.74 580.21 C 387.40 577.01 374.60 576.47 361.92 576.36 C 370.94 559.90 382.18 544.68 394.91 530.90 C 402.10 523.39 409.06 515.66 415.58 507.57 C 420.30 501.66 425.79 496.45 431.27 491.25 C 438.41 484.81 445.71 477.52 447.54 467.66 C 451.08 465.50 454.57 463.26 458.00 460.92 Z" />
		<path fill="var(--socks-color, grey)" opacity="1.00"
			d=" M 424.74 642.71 C 426.12 642.02 427.67 642.31 429.14 642.39 C 449.55 644.39 469.34 650.95 487.44 660.47 C 500.94 667.75 511.07 679.45 521.99 689.93 C 527.75 695.87 533.81 701.50 540.01 707.00 C 554.12 721.09 571.40 731.34 588.24 741.77 C 597.51 746.98 606.66 752.55 616.56 756.49 C 621.31 758.44 627.18 758.13 631.04 761.90 C 635.52 767.19 635.00 775.08 632.07 781.00 C 628.37 788.46 622.15 794.69 614.74 798.49 C 613.51 794.01 612.78 787.25 606.96 786.62 C 600.91 785.22 596.30 790.02 591.80 793.18 C 585.74 785.63 577.41 780.50 569.03 775.90 C 560.76 771.72 552.36 767.71 543.59 764.67 C 531.63 760.27 519.02 758.05 506.84 754.36 C 491.94 749.68 476.89 745.21 462.92 738.12 C 445.59 729.87 429.19 719.89 412.36 710.70 C 399.25 703.47 385.98 696.53 372.97 689.12 C 376.63 684.32 379.46 678.96 383.17 674.20 C 389.63 665.74 397.03 657.83 406.06 652.07 C 411.78 648.01 418.37 645.52 424.74 642.71 Z" />
		<path fill="var(--socks-color, grey)" opacity="1.00"
			d=" M 604.48 745.28 C 612.91 737.03 624.06 732.91 634.57 728.09 C 641.24 731.92 647.79 736.02 654.83 739.17 C 664.39 743.41 674.05 747.57 682.95 753.09 C 693.99 760.46 704.68 768.65 713.09 779.01 C 722.16 789.96 730.41 801.56 739.70 812.33 C 753.64 827.81 768.66 842.71 786.78 853.29 C 802.53 862.63 816.92 873.98 831.30 885.27 C 827.81 893.09 824.68 901.30 818.70 907.64 C 814.84 912.40 809.25 915.35 803.36 916.78 C 803.54 913.73 804.63 910.15 802.41 907.57 C 799.62 904.33 795.02 903.26 790.91 903.18 C 785.25 903.48 781.41 908.23 777.48 911.72 C 772.20 903.46 763.32 898.83 755.57 893.30 C 737.78 881.02 719.33 869.75 701.60 857.40 C 687.35 847.56 672.70 838.23 659.52 826.97 C 663.63 814.74 671.04 803.78 674.05 791.16 C 676.24 782.17 674.34 771.91 667.69 765.22 C 661.36 759.06 652.60 756.08 643.99 754.98 C 636.08 753.67 627.99 754.03 620.11 752.51 C 614.52 751.02 609.74 747.58 604.48 745.28 Z" />
	</g>
	<g id="#4d4d4dff">
		<path fill="#4d4d4d" opacity="1.00"
			d=" M 637.31 760.46 C 647.46 761.10 658.47 763.47 665.39 771.57 C 670.19 776.68 669.14 784.36 667.53 790.56 C 663.39 804.31 654.89 816.57 652.58 830.90 C 650.98 840.25 653.07 849.97 650.29 859.15 C 646.57 871.47 639.36 882.39 631.29 892.29 C 626.45 898.08 621.47 904.02 614.96 908.00 C 612.57 909.30 609.38 910.92 606.81 909.19 C 603.56 906.50 603.04 901.90 603.32 897.96 C 603.75 891.32 604.88 884.72 604.65 878.05 C 604.32 868.70 605.17 859.36 604.65 850.02 C 604.16 840.54 604.66 830.94 602.53 821.62 C 600.69 813.50 599.14 805.28 596.45 797.38 C 599.33 794.93 602.53 792.80 606.31 792.06 C 607.41 795.48 607.67 799.25 609.46 802.42 C 612.47 806.19 617.96 804.78 621.42 802.45 C 630.95 796.26 638.87 786.47 640.32 774.93 C 641.04 769.90 639.47 764.93 637.31 760.46 Z" />
		<path fill="#4d4d4d" opacity="1.00"
			d=" M 814.64 917.73 C 825.41 911.22 831.66 899.73 835.85 888.25 C 844.51 895.91 853.59 903.92 858.30 914.74 C 860.90 920.55 863.39 927.44 860.52 933.63 C 857.69 939.15 853.02 943.63 847.70 946.75 C 839.20 951.80 829.82 955.62 822.49 962.42 C 814.89 968.86 809.18 977.18 801.59 983.62 C 795.02 989.02 786.11 989.57 777.96 989.84 C 769.08 990.30 760.32 988.56 751.53 987.69 C 746.30 987.02 740.53 986.16 736.63 982.29 C 734.94 979.44 738.06 976.67 740.37 975.41 C 748.31 971.00 757.93 968.16 762.83 959.86 C 768.81 949.35 772.12 937.61 776.24 926.31 C 778.29 920.32 781.44 914.40 786.81 910.76 C 790.03 908.37 794.63 909.01 797.80 911.16 C 798.35 914.52 796.46 919.54 800.36 921.39 C 805.36 922.74 810.36 920.09 814.64 917.73 Z" />
	</g>
</svg>