<?xml version="1.0" encoding="UTF-8" ?>
<!DOCTYPE svg PUBLIC "-//W3C//DTD SVG 1.1//EN" "http://www.w3.org/Graphics/SVG/1.1/DTD/svg11.dtd">
<svg width="1000pt" height="1000pt" viewBox="0 0 1000 1000" version="1.1" xmlns="http://www.w3.org/2000/svg">
	<g id="#020202ff">
		<path fill="#020202" opacity="1.00"
			d=" M 455.94 11.98 C 473.92 4.19 495.01 4.35 513.04 11.90 C 520.59 15.26 527.76 19.58 534.02 24.99 C 538.96 29.16 542.62 34.58 546.06 39.99 C 552.86 50.85 555.73 64.50 552.28 76.99 C 550.50 85.56 546.16 93.27 541.87 100.79 C 539.71 104.70 536.62 108.03 534.65 112.04 C 533.50 115.41 536.21 118.37 537.85 121.04 C 541.72 126.78 545.69 133.81 553.09 135.24 C 557.49 133.84 562.25 131.98 566.82 134.06 C 578.44 138.85 587.33 148.57 594.04 158.95 C 605.17 176.35 613.84 195.34 619.55 215.20 C 623.27 228.11 625.80 241.49 625.58 254.97 C 625.52 267.49 625.44 280.08 627.32 292.50 C 628.12 302.01 630.51 311.44 629.52 321.04 C 627.57 343.71 626.62 366.48 623.13 388.98 C 622.28 396.31 620.47 403.57 620.59 410.98 C 621.12 417.83 626.70 422.58 629.54 428.48 C 633.67 435.63 633.23 444.66 630.19 452.13 C 626.44 460.66 624.00 469.76 622.78 478.99 C 621.94 489.00 623.68 499.04 622.81 509.07 C 622.01 517.87 621.61 527.20 616.89 534.96 C 614.35 539.13 609.52 541.12 604.90 541.90 C 601.94 554.43 593.05 564.32 584.50 573.49 C 570.14 588.82 554.97 603.38 540.95 619.04 C 536.59 624.03 529.10 626.02 526.55 632.59 C 524.47 638.49 523.51 644.73 522.38 650.87 C 520.90 663.92 522.41 677.04 522.91 690.10 C 523.50 692.52 521.01 693.59 519.12 694.07 C 510.78 696.44 502.03 696.67 493.43 697.23 C 508.44 706.24 524.38 714.57 536.46 727.53 C 545.02 738.33 550.61 751.09 556.78 763.32 C 564.31 778.69 571.32 794.32 579.81 809.19 C 587.50 823.58 596.33 837.31 604.53 851.39 C 616.63 857.68 626.67 867.30 635.17 877.87 C 640.45 884.36 642.81 892.85 642.78 901.12 C 642.42 905.73 640.78 911.02 636.39 913.30 C 628.96 917.59 620.29 918.87 612.64 922.67 C 599.92 928.78 588.85 938.12 580.03 949.08 C 573.35 957.25 565.09 964.77 554.74 967.75 C 544.96 969.79 534.78 970.63 524.88 968.98 C 518.89 967.85 512.49 965.23 509.29 959.74 C 507.09 955.43 509.09 950.41 512.00 946.99 C 522.54 934.24 535.39 923.44 544.68 909.65 C 551.02 899.79 555.66 888.75 557.05 877.05 C 553.02 871.50 550.39 865.12 546.63 859.41 C 540.38 849.77 534.01 840.17 526.75 831.26 C 517.57 820.79 508.08 810.58 498.25 800.71 C 485.66 787.89 473.80 774.33 463.13 759.87 C 458.44 753.09 453.53 746.46 448.67 739.80 C 450.67 750.42 452.08 761.16 452.75 771.95 C 453.09 790.24 448.57 808.14 444.44 825.83 C 438.94 847.84 433.49 869.86 428.89 892.07 C 426.59 905.53 424.06 918.96 421.14 932.30 C 423.91 935.01 425.72 938.48 426.77 942.19 C 432.12 957.34 429.94 975.30 419.87 988.02 C 418.41 989.91 416.33 991.43 413.89 991.68 C 397.62 993.10 382.19 986.07 365.99 986.14 C 348.87 985.38 332.05 989.61 314.98 989.72 C 301.91 989.36 288.91 986.80 276.59 982.49 C 272.86 980.96 268.39 979.46 266.48 975.61 C 264.41 968.53 270.46 962.20 276.28 959.20 C 286.45 954.36 297.78 952.62 308.10 948.15 C 313.91 945.52 319.20 941.91 324.65 938.63 C 334.19 932.98 342.66 925.57 352.77 920.89 C 355.35 919.61 358.27 919.71 361.08 919.72 C 363.15 902.19 365.32 884.64 366.08 866.98 C 367.19 839.66 370.75 812.40 369.53 785.03 C 369.63 770.03 370.21 755.05 371.07 740.08 C 371.82 729.76 371.65 719.38 370.31 709.13 C 369.29 701.20 371.29 693.35 373.65 685.85 C 376.46 675.72 382.15 666.74 385.49 656.82 C 383.09 655.43 380.57 654.23 378.37 652.54 C 376.70 651.54 377.85 649.41 378.09 648.00 C 383.26 629.93 393.22 613.78 402.84 597.81 C 408.90 587.81 414.45 577.52 420.70 567.64 C 424.11 562.03 427.95 556.67 430.77 550.72 C 431.93 548.14 433.77 545.97 435.76 543.99 C 434.36 541.51 433.14 538.94 431.99 536.35 C 427.74 533.64 426.60 528.47 425.43 523.93 C 421.72 508.30 424.99 492.17 428.54 476.83 C 430.26 468.73 433.87 461.10 434.82 452.83 C 435.70 446.24 433.94 439.66 434.66 433.07 C 434.89 428.67 436.45 424.43 436.35 420.02 C 435.64 415.29 433.27 410.90 433.27 406.05 C 432.92 395.11 436.41 384.56 439.31 374.16 C 426.79 371.24 413.38 372.87 401.43 367.53 C 395.59 364.83 392.88 357.31 386.05 356.48 C 377.61 355.65 369.38 358.23 361.08 359.19 C 358.59 359.36 355.08 359.75 353.82 357.00 C 353.11 354.18 355.69 352.07 357.93 350.96 C 363.37 348.34 369.40 347.29 375.27 346.10 C 368.52 345.92 361.78 346.40 355.03 346.21 C 352.93 346.01 350.18 346.04 349.04 343.89 C 347.87 342.08 348.94 339.65 350.63 338.59 C 360.75 332.39 372.96 332.01 384.47 331.43 C 377.64 331.05 370.81 331.01 363.99 331.41 C 360.56 331.41 356.86 331.81 353.70 330.25 C 350.86 328.38 352.11 324.17 354.63 322.61 C 361.37 317.56 370.19 317.53 378.22 316.68 C 372.17 315.75 366.03 315.62 359.96 314.81 C 357.89 314.67 355.91 313.20 355.78 311.01 C 355.89 308.51 358.23 307.08 360.37 306.42 C 369.94 303.30 380.15 303.87 390.07 304.04 C 395.50 304.23 401.68 305.14 405.28 309.68 C 408.93 314.41 411.72 319.82 416.03 324.04 C 419.91 327.83 423.57 331.95 428.16 334.91 C 432.09 337.46 436.72 338.50 441.26 339.32 C 439.85 325.33 439.58 311.00 442.65 297.20 C 444.74 286.60 452.33 277.84 453.33 266.93 C 453.51 260.88 451.86 254.67 453.68 248.73 C 455.13 244.46 457.36 240.52 459.50 236.57 C 467.06 223.76 473.14 210.06 482.12 198.13 C 484.65 194.34 488.01 190.99 489.85 186.82 C 490.51 176.81 490.09 166.61 488.15 156.78 C 484.78 152.83 478.59 154.78 473.99 153.93 C 468.18 159.04 461.28 164.67 452.97 163.45 C 449.69 163.52 448.13 160.41 447.25 157.76 C 442.71 145.61 439.40 133.02 434.14 121.14 C 430.36 121.24 426.07 122.42 422.66 120.26 C 420.12 117.91 420.85 113.97 421.22 110.89 C 422.27 102.56 427.71 95.49 428.36 87.07 C 429.42 74.64 428.25 61.99 430.93 49.72 C 432.66 43.98 432.77 37.81 435.19 32.26 C 439.11 23.11 446.84 15.88 455.94 11.98 M 445.69 38.85 C 446.15 44.97 447.79 50.90 448.86 56.92 C 443.08 54.35 439.05 49.01 435.44 43.99 C 431.65 58.02 433.55 72.72 432.58 87.04 C 432.24 97.57 424.52 106.34 425.16 117.04 C 428.41 117.34 431.67 117.03 434.93 117.15 C 437.09 117.72 438.11 119.98 439.15 121.74 C 445.28 133.49 448.34 146.48 452.62 158.94 C 456.11 159.13 459.72 158.68 462.70 156.69 C 469.25 152.45 474.74 146.82 480.41 141.52 C 481.05 141.52 482.34 141.51 482.99 141.51 C 482.15 144.34 480.66 146.89 478.90 149.24 C 484.24 148.66 491.41 149.48 493.53 155.33 C 495.60 162.99 495.93 171.04 495.90 178.94 C 501.08 172.79 507.63 168.01 512.95 161.99 C 517.99 156.25 524.71 152.29 531.87 149.79 C 537.85 147.82 542.47 143.41 547.35 139.64 C 539.49 135.54 535.10 127.57 530.84 120.19 C 528.60 116.30 529.09 111.30 531.65 107.69 C 534.98 102.97 538.02 98.06 541.04 93.13 C 538.07 96.16 534.90 98.99 531.56 101.59 C 522.72 108.49 511.12 110.66 500.14 110.39 C 504.82 98.69 509.58 86.74 510.38 74.03 C 510.49 70.13 508.24 64.37 503.40 65.41 C 499.43 67.54 496.64 71.33 492.98 73.93 C 487.07 78.23 481.37 83.35 474.08 85.09 C 477.33 73.99 477.29 62.12 473.93 51.05 C 467.77 55.04 460.62 58.11 453.12 57.30 C 455.27 49.60 457.72 39.29 450.70 33.35 C 447.76 33.02 445.26 36.02 445.69 38.85 M 537.72 151.88 C 533.15 153.95 528.25 155.32 524.02 158.08 C 519.10 161.01 515.55 165.58 511.55 169.56 C 507.25 173.91 502.26 177.60 498.59 182.53 C 493.97 188.61 489.71 194.94 485.09 201.02 C 479.07 209.31 474.04 218.26 469.38 227.38 C 465.69 234.66 461.07 241.46 457.94 249.02 C 455.55 255.45 458.28 262.31 457.34 268.91 C 456.04 277.08 452.08 284.43 448.93 291.96 C 443.90 307.36 444.85 323.78 444.71 339.75 C 459.71 342.36 474.88 340.23 489.98 340.46 C 502.68 340.41 515.06 337.40 527.50 335.26 C 527.99 333.87 528.49 332.48 528.99 331.09 C 523.15 327.83 518.11 322.96 511.43 321.37 C 501.98 318.60 492.18 320.74 482.63 321.46 C 485.12 318.92 488.44 317.44 491.95 317.00 C 500.82 315.60 510.39 315.37 518.71 319.27 C 523.51 321.36 527.23 325.26 532.04 327.34 C 530.07 324.34 527.21 321.66 526.61 317.98 C 527.01 315.62 529.01 313.95 530.28 312.01 C 527.22 308.94 524.40 305.62 521.01 302.90 C 516.18 298.84 510.46 296.10 504.68 293.69 C 505.34 292.42 506.60 291.75 508.04 292.14 C 515.07 293.20 521.06 297.47 526.49 301.80 C 523.94 297.46 521.48 293.07 519.50 288.45 C 516.93 282.43 513.64 276.39 513.82 269.66 C 515.09 270.14 516.21 270.97 516.58 272.35 C 520.44 282.12 524.81 291.72 530.30 300.69 C 531.75 303.15 533.71 305.38 534.56 308.15 C 535.16 310.13 534.24 312.09 533.81 314.00 C 541.83 314.24 549.04 318.10 556.66 320.13 C 559.84 321.04 563.35 321.65 565.63 324.30 C 556.03 323.60 546.39 321.98 537.27 318.80 C 535.12 318.01 532.84 318.31 530.65 318.67 C 532.20 321.66 535.92 323.55 536.41 326.95 C 534.88 329.63 533.17 332.21 531.99 335.08 C 540.95 336.37 549.50 339.54 557.71 343.27 C 569.68 348.68 581.95 353.72 592.77 361.28 C 596.00 363.47 598.51 366.65 602.08 368.33 C 604.79 369.28 607.14 366.96 607.32 364.34 C 609.79 352.82 612.11 340.99 611.59 329.17 C 608.09 314.42 599.93 301.15 596.96 286.23 C 595.50 277.37 595.27 268.24 596.62 259.36 C 597.09 258.25 597.27 255.58 599.18 256.59 C 599.90 257.93 599.69 259.52 599.77 260.99 C 599.58 271.18 599.53 281.59 602.43 291.46 C 605.81 302.87 611.39 313.45 615.17 324.72 C 616.49 328.63 616.72 332.82 616.38 336.92 C 615.59 347.01 614.07 357.05 611.72 366.89 C 611.16 370.56 607.36 372.55 604.04 373.13 C 600.68 373.84 597.91 371.51 595.36 369.73 C 594.36 372.96 593.56 376.56 590.88 378.87 C 588.04 381.25 584.51 382.79 580.86 383.37 C 572.02 384.60 563.07 384.71 554.16 384.47 C 558.07 388.69 562.09 392.82 566.15 396.89 C 575.58 406.61 586.42 414.82 597.58 422.42 C 600.66 424.54 604.05 426.28 606.73 428.94 C 606.37 431.64 603.39 429.51 601.99 429.02 C 581.36 417.56 563.82 401.43 547.79 384.29 C 533.51 383.38 519.09 384.09 504.95 381.52 C 492.57 379.62 480.63 375.09 468.01 374.81 C 459.86 374.41 451.73 375.59 443.58 375.13 C 441.15 384.32 438.01 393.46 437.35 403.01 C 436.87 407.79 438.64 412.31 440.12 416.76 C 441.74 421.77 439.78 426.90 439.23 431.92 C 438.30 438.66 440.28 445.37 439.71 452.11 C 439.07 461.43 434.93 470.00 433.14 479.09 C 428.93 496.40 426.24 515.08 432.49 532.27 C 443.26 528.01 454.78 526.24 466.17 524.57 C 475.09 523.47 484.10 522.42 493.09 523.19 C 505.50 524.01 517.61 527.16 530.01 528.00 C 541.09 528.84 552.16 529.74 563.22 530.73 C 574.91 531.22 586.80 531.94 597.93 535.86 C 601.36 536.98 605.19 538.44 608.67 536.63 C 613.24 534.70 614.83 529.58 616.21 525.25 C 618.69 513.70 618.80 501.78 618.13 490.03 C 617.88 486.42 617.92 482.80 618.12 479.19 C 615.04 477.27 611.89 474.73 608.01 475.46 C 597.81 476.72 587.15 473.40 579.64 466.35 C 578.45 465.48 578.15 464.01 577.78 462.69 C 583.10 464.09 587.52 467.67 592.86 469.08 C 598.38 471.13 604.30 470.36 610.04 470.42 C 613.47 470.38 616.23 472.61 618.76 474.65 C 620.32 466.78 622.35 458.96 625.65 451.63 C 627.88 446.75 628.91 441.24 628.05 435.91 C 626.26 428.00 619.45 422.53 616.98 414.93 C 615.36 407.31 617.01 399.53 618.02 391.94 C 621.08 372.40 622.55 352.67 624.22 332.98 C 625.00 323.27 626.51 313.37 624.32 303.73 C 622.92 297.88 622.30 291.89 621.51 285.94 C 619.37 268.68 622.32 251.15 619.08 233.98 C 615.40 213.62 608.03 194.01 598.22 175.83 C 591.67 163.93 584.65 151.71 573.67 143.33 C 569.75 140.30 565.31 136.66 560.01 137.50 C 551.08 139.72 545.86 148.17 537.72 151.88 M 362.07 310.53 C 371.63 311.91 381.51 312.32 390.64 315.76 C 390.72 316.75 390.78 317.74 390.81 318.74 C 390.11 320.66 387.69 320.42 386.06 320.48 C 378.80 320.29 371.45 320.68 364.39 322.52 C 361.36 323.27 358.61 324.85 356.29 326.93 C 367.69 327.79 379.48 324.67 390.64 328.26 C 392.78 328.93 393.42 332.15 391.31 333.26 C 387.62 334.89 383.48 334.89 379.53 335.30 C 370.51 335.93 361.28 337.26 353.30 341.80 C 364.21 342.42 375.16 341.20 386.07 341.82 C 387.44 341.91 388.95 342.43 389.31 343.93 C 389.39 346.08 387.11 346.92 385.46 347.50 C 376.38 350.21 366.52 350.71 358.12 355.41 C 368.29 354.74 378.34 350.70 388.62 352.61 C 396.16 354.05 398.92 362.88 406.16 364.85 C 414.77 367.81 423.99 367.40 432.88 368.84 C 438.91 369.53 444.82 371.56 450.96 371.06 C 460.98 370.36 471.14 370.11 481.06 372.04 C 489.68 373.76 498.14 376.25 506.83 377.60 C 526.40 380.99 546.31 379.25 566.05 379.49 C 572.81 379.05 580.17 379.76 586.22 376.17 C 590.01 374.14 590.27 369.37 591.50 365.74 C 586.53 362.93 581.77 359.73 576.56 357.35 C 564.53 351.87 552.70 345.82 540.06 341.83 C 536.47 340.73 532.76 339.46 528.96 339.96 C 523.86 340.62 518.89 341.97 513.84 342.93 C 494.19 347.09 473.99 345.50 454.07 345.29 C 443.21 344.38 431.28 343.82 422.52 336.50 C 416.64 331.40 410.79 326.09 406.44 319.58 C 404.47 316.88 403.00 313.78 400.58 311.44 C 397.85 309.19 394.22 308.60 390.82 308.18 C 381.19 307.34 371.44 308.13 362.07 310.53 M 436.71 534.62 C 438.01 537.76 439.28 540.91 440.47 544.10 C 438.44 546.82 436.14 549.39 434.70 552.49 C 431.79 559.01 427.62 564.85 423.98 570.96 C 417.82 580.94 412.30 591.29 406.24 601.32 C 396.98 616.78 387.72 632.39 381.43 649.36 C 388.98 653.31 396.10 658.06 402.90 663.18 C 413.65 671.78 423.92 681.19 436.01 687.93 C 444.41 692.07 453.53 695.46 463.02 695.30 C 469.78 695.57 476.41 694.05 483.12 693.56 C 495.00 692.53 507.01 692.44 518.74 690.05 C 517.58 681.41 516.54 672.72 516.79 663.99 C 516.55 652.72 518.92 641.56 521.93 630.77 C 524.79 622.37 534.39 620.03 539.30 613.30 C 549.09 602.16 559.49 591.57 569.83 580.94 C 581.16 568.82 593.57 557.04 600.51 541.67 C 594.79 539.85 589.04 538.01 583.07 537.21 C 574.47 535.63 565.69 535.90 557.02 535.00 C 546.99 534.07 536.93 533.48 526.88 532.70 C 511.24 531.34 495.81 526.81 480.00 528.02 C 465.43 529.06 450.89 531.10 436.71 534.62 M 383.12 675.03 C 379.92 682.22 377.49 689.76 375.80 697.45 C 374.42 703.55 375.44 709.80 375.98 715.94 C 387.08 712.82 398.77 713.78 410.03 715.40 C 420.63 717.16 431.23 719.75 440.89 724.57 C 440.35 715.09 443.00 705.73 446.91 697.18 C 439.46 694.87 432.26 691.66 425.90 687.10 C 413.13 678.82 402.63 667.54 389.66 659.55 C 388.08 664.95 385.31 669.87 383.12 675.03 M 451.44 698.44 C 447.37 708.59 442.54 720.93 448.27 731.34 C 450.12 727.66 452.27 724.11 455.09 721.09 C 464.14 711.27 475.87 704.02 488.59 700.02 C 486.20 698.89 483.77 697.30 481.00 697.87 C 471.21 698.98 461.23 700.43 451.44 698.44 M 474.58 711.49 C 464.95 717.26 455.16 724.59 451.05 735.46 C 456.13 742.53 461.53 749.38 466.44 756.58 C 476.82 770.65 488.43 783.80 500.69 796.26 C 511.51 807.13 522.13 818.26 531.98 830.03 C 542.32 843.80 552.30 858.07 559.09 873.98 C 564.79 876.39 570.56 879.39 576.93 879.21 C 583.18 879.14 589.82 877.77 594.78 873.76 C 599.45 868.89 600.30 861.82 602.62 855.74 C 595.79 844.80 588.18 834.36 582.08 822.98 C 572.98 807.05 564.59 790.73 556.95 774.05 C 549.55 759.38 543.35 743.85 533.15 730.82 C 522.15 719.27 507.84 711.70 494.48 703.27 C 487.51 705.11 480.79 707.84 474.58 711.49 M 376.18 720.58 C 376.66 730.38 375.73 740.17 375.37 749.97 C 374.55 765.94 374.12 781.96 374.69 797.95 C 374.48 821.35 371.66 844.63 370.41 867.98 C 369.29 885.64 367.38 903.27 364.13 920.68 C 373.52 927.24 376.70 941.29 388.95 943.88 C 400.12 944.13 407.35 933.68 417.56 930.94 C 419.07 918.36 421.78 905.97 423.66 893.44 C 426.23 879.18 429.79 865.12 433.14 851.02 C 438.20 830.16 444.27 809.48 447.22 788.17 C 449.85 768.93 445.90 749.63 441.99 730.85 C 430.51 724.82 417.69 721.85 404.92 720.14 C 395.39 719.00 385.62 718.50 376.18 720.58 M 607.24 857.66 C 604.66 864.55 603.46 872.56 597.88 877.82 C 587.51 885.78 572.08 887.11 560.86 880.10 C 558.68 894.41 552.33 907.94 543.18 919.09 C 535.77 928.32 527.18 936.48 519.02 945.02 C 516.46 947.80 513.25 950.38 512.25 954.19 C 511.55 956.78 513.51 959.10 515.46 960.56 C 520.73 964.54 527.61 965.08 533.99 965.16 C 542.36 965.05 551.14 964.84 558.68 960.73 C 568.65 956.22 575.03 947.01 581.93 938.97 C 590.68 929.77 600.78 921.47 612.66 916.68 C 618.85 914.05 625.54 913.02 631.93 911.00 C 636.39 910.02 637.64 904.87 638.26 900.99 C 638.66 892.91 635.77 884.68 630.30 878.68 C 623.52 870.77 615.89 863.50 607.24 857.66 M 352.98 925.97 C 338.20 936.03 323.76 946.98 307.23 954.05 C 298.46 957.38 289.21 959.27 280.48 962.71 C 275.89 964.50 271.45 968.00 270.38 973.04 C 271.94 976.34 276.26 977.25 279.42 978.62 C 294.85 983.59 311.29 986.97 327.52 984.68 C 342.61 982.92 357.80 980.34 373.02 982.03 C 385.20 983.08 396.86 987.35 409.08 988.05 C 411.40 988.02 414.03 987.44 415.47 985.46 C 419.33 980.31 422.33 974.40 423.64 968.06 C 426.20 956.91 423.83 945.03 418.74 934.95 C 412.64 936.91 408.07 941.63 402.35 944.34 C 396.95 947.09 390.59 950.22 384.55 947.46 C 374.82 944.04 370.77 933.82 364.04 926.92 C 361.31 923.77 356.29 923.81 352.98 925.97 Z" />
		<path fill="#020202" opacity="1.00"
			d=" M 434.63 67.14 C 443.66 64.42 453.77 64.39 462.32 68.71 C 465.91 70.73 471.01 72.87 470.11 77.93 C 465.07 78.88 459.58 79.13 455.28 82.24 C 451.33 85.17 446.30 87.23 441.33 86.56 C 440.10 85.37 441.41 83.40 441.24 81.91 C 441.85 79.47 440.05 77.47 438.97 75.47 C 437.78 75.23 436.59 74.98 435.41 74.74 C 434.97 72.23 434.70 69.69 434.63 67.14 Z" />
		<path fill="#020202" opacity="1.00"
			d=" M 549.31 194.15 C 549.77 193.98 550.70 193.65 551.16 193.49 C 552.65 195.25 550.19 197.00 549.24 198.34 C 541.69 206.12 535.73 215.31 531.12 225.09 C 527.50 232.55 524.97 240.63 524.42 248.94 C 524.21 251.49 524.24 254.07 523.75 256.59 C 520.98 257.64 520.82 253.77 520.67 251.97 C 520.09 236.50 526.49 221.65 534.96 209.01 C 539.11 203.53 543.71 198.17 549.31 194.15 Z" />
		<path fill="#020202" opacity="1.00"
			d=" M 545.01 331.93 C 541.67 330.04 537.43 326.14 539.81 322.01 C 542.52 324.37 544.92 327.34 548.44 328.55 C 555.39 331.09 562.83 331.87 569.85 334.20 C 580.49 337.26 590.13 343.24 597.97 351.01 C 599.15 352.22 600.36 353.80 599.77 355.61 C 597.47 357.29 595.40 354.52 593.53 353.42 C 585.76 347.02 577.02 341.68 567.35 338.71 C 560.03 336.04 552.01 335.46 545.01 331.93 Z" />
		<path fill="#020202" opacity="1.00"
			d=" M 479.77 431.78 C 483.68 429.33 487.06 425.93 491.56 424.53 C 492.07 427.92 488.83 429.74 486.65 431.64 C 481.42 435.92 476.01 440.18 469.60 442.53 C 463.49 444.89 457.21 446.78 451.02 448.91 C 448.73 449.62 445.54 450.56 443.88 448.20 C 442.32 445.93 444.15 443.33 445.39 441.40 C 448.65 436.26 454.16 433.31 459.35 430.48 C 461.25 429.32 463.47 429.02 465.67 428.94 C 464.23 432.00 461.07 433.51 458.53 435.49 C 454.93 437.94 451.64 440.86 449.09 444.40 C 459.54 440.85 470.63 438.28 479.77 431.78 Z" />
		<path fill="#020202" opacity="1.00"
			d=" M 499.02 443.96 C 508.00 438.40 516.23 431.59 525.69 426.84 C 526.63 429.22 524.23 430.46 522.72 431.74 C 507.83 443.09 492.47 454.36 474.79 460.97 C 468.99 463.16 463.11 465.28 457.04 466.62 C 453.50 467.27 449.12 467.72 446.44 464.78 C 449.79 463.38 453.53 464.00 456.98 463.02 C 471.79 458.67 486.19 452.62 499.02 443.96 Z" />
	</g>
	<g id="#f0b58bff">
		<path fill="#f0b58b" opacity="1.00"
			d=" M 445.69 38.85 C 445.26 36.02 447.76 33.02 450.70 33.35 C 457.72 39.29 455.27 49.60 453.12 57.30 C 460.62 58.11 467.77 55.04 473.93 51.05 C 477.29 62.12 477.33 73.99 474.08 85.09 C 481.37 83.35 487.07 78.23 492.98 73.93 C 496.64 71.33 499.43 67.54 503.40 65.41 C 508.24 64.37 510.49 70.13 510.38 74.03 C 509.58 86.74 504.82 98.69 500.14 110.39 C 511.12 110.66 522.72 108.49 531.56 101.59 C 534.90 98.99 538.07 96.16 541.04 93.13 C 538.02 98.06 534.98 102.97 531.65 107.69 C 529.09 111.30 528.60 116.30 530.84 120.19 C 535.10 127.57 539.49 135.54 547.35 139.64 C 542.47 143.41 537.85 147.82 531.87 149.79 C 524.71 152.29 517.99 156.25 512.95 161.99 C 507.63 168.01 501.08 172.79 495.90 178.94 C 495.93 171.04 495.60 162.99 493.53 155.33 C 491.41 149.48 484.24 148.66 478.90 149.24 C 480.66 146.89 482.15 144.34 482.99 141.51 C 482.34 141.51 481.05 141.52 480.41 141.52 C 474.74 146.82 469.25 152.45 462.70 156.69 C 459.72 158.68 456.11 159.13 452.62 158.94 C 448.34 146.48 445.28 133.49 439.15 121.74 C 438.11 119.98 437.09 117.72 434.93 117.15 C 431.67 117.03 428.41 117.34 425.16 117.04 C 424.52 106.34 432.24 97.57 432.58 87.04 C 433.55 72.72 431.65 58.02 435.44 43.99 C 439.05 49.01 443.08 54.35 448.86 56.92 C 447.79 50.90 446.15 44.97 445.69 38.85 M 434.63 67.14 C 434.70 69.69 434.97 72.23 435.41 74.74 C 436.59 74.98 437.78 75.23 438.97 75.47 C 440.05 77.47 441.85 79.47 441.24 81.91 C 441.41 83.40 440.10 85.37 441.33 86.56 C 446.30 87.23 451.33 85.17 455.28 82.24 C 459.58 79.13 465.07 78.88 470.11 77.93 C 471.01 72.87 465.91 70.73 462.32 68.71 C 453.77 64.39 443.66 64.42 434.63 67.14 Z" />
		<path fill="#f0b58b" opacity="1.00"
			d=" M 362.07 310.53 C 371.44 308.13 381.19 307.34 390.82 308.18 C 394.22 308.60 397.85 309.19 400.58 311.44 C 403.00 313.78 404.47 316.88 406.44 319.58 C 410.79 326.09 416.64 331.40 422.52 336.50 C 431.28 343.82 443.21 344.38 454.07 345.29 C 473.99 345.50 494.19 347.09 513.84 342.93 C 518.89 341.97 523.86 340.62 528.96 339.96 C 532.76 339.46 536.47 340.73 540.06 341.83 C 552.70 345.82 564.53 351.87 576.56 357.35 C 581.77 359.73 586.53 362.93 591.50 365.74 C 590.27 369.37 590.01 374.14 586.22 376.17 C 580.17 379.76 572.81 379.05 566.05 379.49 C 546.31 379.25 526.40 380.99 506.83 377.60 C 498.14 376.25 489.68 373.76 481.06 372.04 C 471.14 370.11 460.98 370.36 450.96 371.06 C 444.82 371.56 438.91 369.53 432.88 368.84 C 423.99 367.40 414.77 367.81 406.16 364.85 C 398.92 362.88 396.16 354.05 388.62 352.61 C 378.34 350.70 368.29 354.74 358.12 355.41 C 366.52 350.71 376.38 350.21 385.46 347.50 C 387.11 346.92 389.39 346.08 389.31 343.93 C 388.95 342.43 387.44 341.91 386.07 341.82 C 375.16 341.20 364.21 342.42 353.30 341.80 C 361.28 337.26 370.51 335.93 379.53 335.30 C 383.48 334.89 387.62 334.89 391.31 333.26 C 393.42 332.15 392.78 328.93 390.64 328.26 C 379.48 324.67 367.69 327.79 356.29 326.93 C 358.61 324.85 361.36 323.27 364.39 322.52 C 371.45 320.68 378.80 320.29 386.06 320.48 C 387.69 320.42 390.11 320.66 390.81 318.74 C 390.78 317.74 390.72 316.75 390.64 315.76 C 381.51 312.32 371.63 311.91 362.07 310.53 Z" />
		<path fill="#f0b58b" opacity="1.00"
			d=" M 383.12 675.03 C 385.31 669.87 388.08 664.95 389.66 659.55 C 402.63 667.54 413.13 678.82 425.90 687.10 C 432.26 691.66 439.46 694.87 446.91 697.18 C 443.00 705.73 440.35 715.09 440.89 724.57 C 431.23 719.75 420.63 717.16 410.03 715.40 C 398.77 713.78 387.08 712.82 375.98 715.94 C 375.44 709.80 374.42 703.55 375.80 697.45 C 377.49 689.76 379.92 682.22 383.12 675.03 Z" />
		<path fill="#f0b58b" opacity="1.00"
			d=" M 451.44 698.44 C 461.23 700.43 471.21 698.98 481.00 697.87 C 483.77 697.30 486.20 698.89 488.59 700.02 C 475.87 704.02 464.14 711.27 455.09 721.09 C 452.27 724.11 450.12 727.66 448.27 731.34 C 442.54 720.93 447.37 708.59 451.44 698.44 Z" />
	</g>
	<g id="#f11b27ff">
		<path fill="var(--shirt-color, grey)" opacity="1.00"
			d=" M 537.72 151.88 C 545.86 148.17 551.08 139.72 560.01 137.50 C 565.31 136.66 569.75 140.30 573.67 143.33 C 584.65 151.71 591.67 163.93 598.22 175.83 C 608.03 194.01 615.40 213.62 619.08 233.98 C 622.32 251.15 619.37 268.68 621.51 285.94 C 622.30 291.89 622.92 297.88 624.32 303.73 C 626.51 313.37 625.00 323.27 624.22 332.98 C 622.55 352.67 621.08 372.40 618.02 391.94 C 617.01 399.53 615.36 407.31 616.98 414.93 C 619.45 422.53 626.26 428.00 628.05 435.91 C 628.91 441.24 627.88 446.75 625.65 451.63 C 622.35 458.96 620.32 466.78 618.76 474.65 C 616.23 472.61 613.47 470.38 610.04 470.42 C 604.30 470.36 598.38 471.13 592.86 469.08 C 587.52 467.67 583.10 464.09 577.78 462.69 C 578.15 464.01 578.45 465.48 579.64 466.35 C 587.15 473.40 597.81 476.72 608.01 475.46 C 611.89 474.73 615.04 477.27 618.12 479.19 C 617.92 482.80 617.88 486.42 618.13 490.03 C 618.80 501.78 618.69 513.70 616.21 525.25 C 614.83 529.58 613.24 534.70 608.67 536.63 C 605.19 538.44 601.36 536.98 597.93 535.86 C 586.80 531.94 574.91 531.22 563.22 530.73 C 552.16 529.74 541.09 528.84 530.01 528.00 C 517.61 527.16 505.50 524.01 493.09 523.19 C 484.10 522.42 475.09 523.47 466.17 524.57 C 454.78 526.24 443.26 528.01 432.49 532.27 C 426.24 515.08 428.93 496.40 433.14 479.09 C 434.93 470.00 439.07 461.43 439.71 452.11 C 440.28 445.37 438.30 438.66 439.23 431.92 C 439.78 426.90 441.74 421.77 440.12 416.76 C 438.64 412.31 436.87 407.79 437.35 403.01 C 438.01 393.46 441.15 384.32 443.58 375.13 C 451.73 375.59 459.86 374.41 468.01 374.81 C 480.63 375.09 492.57 379.62 504.95 381.52 C 519.09 384.09 533.51 383.38 547.79 384.29 C 563.82 401.43 581.36 417.56 601.99 429.02 C 603.39 429.51 606.37 431.64 606.73 428.94 C 604.05 426.28 600.66 424.54 597.58 422.42 C 586.42 414.82 575.58 406.61 566.15 396.89 C 562.09 392.82 558.07 388.69 554.16 384.47 C 563.07 384.71 572.02 384.60 580.86 383.37 C 584.51 382.79 588.04 381.25 590.88 378.87 C 593.56 376.56 594.36 372.96 595.36 369.73 C 597.91 371.51 600.68 373.84 604.04 373.13 C 607.36 372.55 611.16 370.56 611.72 366.89 C 614.07 357.05 615.59 347.01 616.38 336.92 C 616.72 332.82 616.49 328.63 615.17 324.72 C 611.39 313.45 605.81 302.87 602.43 291.46 C 599.53 281.59 599.58 271.18 599.77 260.99 C 599.69 259.52 599.90 257.93 599.18 256.59 C 597.27 255.58 597.09 258.25 596.62 259.36 C 595.27 268.24 595.50 277.37 596.96 286.23 C 599.93 301.15 608.09 314.42 611.59 329.17 C 612.11 340.99 609.79 352.82 607.32 364.34 C 607.14 366.96 604.79 369.28 602.08 368.33 C 598.51 366.65 596.00 363.47 592.77 361.28 C 581.95 353.72 569.68 348.68 557.71 343.27 C 549.50 339.54 540.95 336.37 531.99 335.08 C 533.17 332.21 534.88 329.63 536.41 326.95 C 535.92 323.55 532.20 321.66 530.65 318.67 C 532.84 318.31 535.12 318.01 537.27 318.80 C 546.39 321.98 556.03 323.60 565.63 324.30 C 563.35 321.65 559.84 321.04 556.66 320.13 C 549.04 318.10 541.83 314.24 533.81 314.00 C 534.24 312.09 535.16 310.13 534.56 308.15 C 533.71 305.38 531.75 303.15 530.30 300.69 C 524.81 291.72 520.44 282.12 516.58 272.35 C 516.21 270.97 515.09 270.14 513.82 269.66 C 513.64 276.39 516.93 282.43 519.50 288.45 C 521.48 293.07 523.94 297.46 526.49 301.80 C 521.06 297.47 515.07 293.20 508.04 292.14 C 506.60 291.75 505.34 292.42 504.68 293.69 C 510.46 296.10 516.18 298.84 521.01 302.90 C 524.40 305.62 527.22 308.94 530.28 312.01 C 529.01 313.95 527.01 315.62 526.61 317.98 C 527.21 321.66 530.07 324.34 532.04 327.34 C 527.23 325.26 523.51 321.36 518.71 319.27 C 510.39 315.37 500.82 315.60 491.95 317.00 C 488.44 317.44 485.12 318.92 482.63 321.46 C 492.18 320.74 501.98 318.60 511.43 321.37 C 518.11 322.96 523.15 327.83 528.99 331.09 C 528.49 332.48 527.99 333.87 527.50 335.26 C 515.06 337.40 502.68 340.41 489.98 340.46 C 474.88 340.23 459.71 342.36 444.71 339.75 C 444.85 323.78 443.90 307.36 448.93 291.96 C 452.08 284.43 456.04 277.08 457.34 268.91 C 458.28 262.31 455.55 255.45 457.94 249.02 C 461.07 241.46 465.69 234.66 469.38 227.38 C 474.04 218.26 479.07 209.31 485.09 201.02 C 489.71 194.94 493.97 188.61 498.59 182.53 C 502.26 177.60 507.25 173.91 511.55 169.56 C 515.55 165.58 519.10 161.01 524.02 158.08 C 528.25 155.32 533.15 153.95 537.72 151.88 M 549.31 194.15 C 543.71 198.17 539.11 203.53 534.96 209.01 C 526.49 221.65 520.09 236.50 520.67 251.97 C 520.82 253.77 520.98 257.64 523.75 256.59 C 524.24 254.07 524.21 251.49 524.42 248.94 C 524.97 240.63 527.50 232.55 531.12 225.09 C 535.73 215.31 541.69 206.12 549.24 198.34 C 550.19 197.00 552.65 195.25 551.16 193.49 C 550.70 193.65 549.77 193.98 549.31 194.15 M 545.01 331.93 C 552.01 335.46 560.03 336.04 567.35 338.71 C 577.02 341.68 585.76 347.02 593.53 353.42 C 595.40 354.52 597.47 357.29 599.77 355.61 C 600.36 353.80 599.15 352.22 597.97 351.01 C 590.13 343.24 580.49 337.26 569.85 334.20 C 562.83 331.87 555.39 331.09 548.44 328.55 C 544.92 327.34 542.52 324.37 539.81 322.01 C 537.43 326.14 541.67 330.04 545.01 331.93 M 479.77 431.78 C 470.63 438.28 459.54 440.85 449.09 444.40 C 451.64 440.86 454.93 437.94 458.53 435.49 C 461.07 433.51 464.23 432.00 465.67 428.94 C 463.47 429.02 461.25 429.32 459.35 430.48 C 454.16 433.31 448.65 436.26 445.39 441.40 C 444.15 443.33 442.32 445.93 443.88 448.20 C 445.54 450.56 448.73 449.62 451.02 448.91 C 457.21 446.78 463.49 444.89 469.60 442.53 C 476.01 440.18 481.42 435.92 486.65 431.64 C 488.83 429.74 492.07 427.92 491.56 424.53 C 487.06 425.93 483.68 429.33 479.77 431.78 M 499.02 443.96 C 486.19 452.62 471.79 458.67 456.98 463.02 C 453.53 464.00 449.79 463.38 446.44 464.78 C 449.12 467.72 453.50 467.27 457.04 466.62 C 463.11 465.28 468.99 463.16 474.79 460.97 C 492.47 454.36 507.83 443.09 522.72 431.74 C 524.23 430.46 526.63 429.22 525.69 426.84 C 516.23 431.59 508.00 438.40 499.02 443.96 Z" />
	</g>
	<g id="#2b3dcdff">
		<path fill="var(--pants-color, grey)" opacity="1.00"
			d=" M 436.71 534.62 C 450.89 531.10 465.43 529.06 480.00 528.02 C 495.81 526.81 511.24 531.34 526.88 532.70 C 536.93 533.48 546.99 534.07 557.02 535.00 C 565.69 535.90 574.47 535.63 583.07 537.21 C 589.04 538.01 594.79 539.85 600.51 541.67 C 593.57 557.04 581.16 568.82 569.83 580.94 C 559.49 591.57 549.09 602.16 539.30 613.30 C 534.39 620.03 524.79 622.37 521.93 630.77 C 518.92 641.56 516.55 652.72 516.79 663.99 C 516.54 672.72 517.58 681.41 518.74 690.05 C 507.01 692.44 495.00 692.53 483.12 693.56 C 476.41 694.05 469.78 695.57 463.02 695.30 C 453.53 695.46 444.41 692.07 436.01 687.93 C 423.92 681.19 413.65 671.78 402.90 663.18 C 396.10 658.06 388.98 653.31 381.43 649.36 C 387.72 632.39 396.98 616.78 406.24 601.32 C 412.30 591.29 417.82 580.94 423.98 570.96 C 427.62 564.85 431.79 559.01 434.70 552.49 C 436.14 549.39 438.44 546.82 440.47 544.10 C 439.28 540.91 438.01 537.76 436.71 534.62 Z" />
		<path fill="var(--socks-color, grey)" opacity="1.00"
			d=" M 474.58 711.49 C 480.79 707.84 487.51 705.11 494.48 703.27 C 507.84 711.70 522.15 719.27 533.15 730.82 C 543.35 743.85 549.55 759.38 556.95 774.05 C 564.59 790.73 572.98 807.05 582.08 822.98 C 588.18 834.36 595.79 844.80 602.62 855.74 C 600.30 861.82 599.45 868.89 594.78 873.76 C 589.82 877.77 583.18 879.14 576.93 879.21 C 570.56 879.39 564.79 876.39 559.09 873.98 C 552.30 858.07 542.32 843.80 531.98 830.03 C 522.13 818.26 511.51 807.13 500.69 796.26 C 488.43 783.80 476.82 770.65 466.44 756.58 C 461.53 749.38 456.13 742.53 451.05 735.46 C 455.16 724.59 464.95 717.26 474.58 711.49 Z" />
		<path fill="var(--socks-color, grey)" opacity="1.00"
			d=" M 376.18 720.58 C 385.62 718.50 395.39 719.00 404.92 720.14 C 417.69 721.85 430.51 724.82 441.99 730.85 C 445.90 749.63 449.85 768.93 447.22 788.17 C 444.27 809.48 438.20 830.16 433.14 851.02 C 429.79 865.12 426.23 879.18 423.66 893.44 C 421.78 905.97 419.07 918.36 417.56 930.94 C 407.35 933.68 400.12 944.13 388.95 943.88 C 376.70 941.29 373.52 927.24 364.13 920.68 C 367.38 903.27 369.29 885.64 370.41 867.98 C 371.66 844.63 374.48 821.35 374.69 797.95 C 374.12 781.96 374.55 765.94 375.37 749.97 C 375.73 740.17 376.66 730.38 376.18 720.58 Z" />
	</g>
	<g id="#4d4d4dff">
		<path fill="#4d4d4d" opacity="1.00"
			d=" M 607.24 857.66 C 615.89 863.50 623.52 870.77 630.30 878.68 C 635.77 884.68 638.66 892.91 638.26 900.99 C 637.64 904.87 636.39 910.02 631.93 911.00 C 625.54 913.02 618.85 914.05 612.66 916.68 C 600.78 921.47 590.68 929.77 581.93 938.97 C 575.03 947.01 568.65 956.22 558.68 960.73 C 551.14 964.84 542.36 965.05 533.99 965.16 C 527.61 965.08 520.73 964.54 515.46 960.56 C 513.51 959.10 511.55 956.78 512.25 954.19 C 513.25 950.38 516.46 947.80 519.02 945.02 C 527.18 936.48 535.77 928.32 543.18 919.09 C 552.33 907.94 558.68 894.41 560.86 880.10 C 572.08 887.11 587.51 885.78 597.88 877.82 C 603.46 872.56 604.66 864.55 607.24 857.66 Z" />
		<path fill="#4d4d4d" opacity="1.00"
			d=" M 352.98 925.97 C 356.29 923.81 361.31 923.77 364.04 926.92 C 370.77 933.82 374.82 944.04 384.55 947.46 C 390.59 950.22 396.95 947.09 402.35 944.34 C 408.07 941.63 412.64 936.91 418.74 934.95 C 423.83 945.03 426.20 956.91 423.64 968.06 C 422.33 974.40 419.33 980.31 415.47 985.46 C 414.03 987.44 411.40 988.02 409.08 988.05 C 396.86 987.35 385.20 983.08 373.02 982.03 C 357.80 980.34 342.61 982.92 327.52 984.68 C 311.29 986.97 294.85 983.59 279.42 978.62 C 276.26 977.25 271.94 976.34 270.38 973.04 C 271.45 968.00 275.89 964.50 280.48 962.71 C 289.21 959.27 298.46 957.38 307.23 954.05 C 323.76 946.98 338.20 936.03 352.98 925.97 Z" />
	</g>
</svg>