<?xml version="1.0" encoding="UTF-8" ?>
<!DOCTYPE svg PUBLIC "-//W3C//DTD SVG 1.1//EN" "http://www.w3.org/Graphics/SVG/1.1/DTD/svg11.dtd">
<svg width="1000pt" height="1000pt" viewBox="0 0 1000 1000" version="1.1" xmlns="http://www.w3.org/2000/svg">
	<g id="#020202ff">
		<path fill="#020202" opacity="1.00"
			d=" M 358.01 10.27 C 377.38 5.19 398.97 10.04 414.46 22.69 C 424.98 31.14 432.66 42.97 436.20 55.99 C 441.04 73.31 438.39 92.55 428.87 107.83 C 427.26 112.94 429.59 118.63 431.81 123.29 C 435.81 128.06 440.85 132.04 446.63 134.46 C 460.71 141.75 476.41 146.08 489.14 155.83 C 491.88 158.20 495.62 158.30 499.04 158.00 C 507.04 157.53 515.09 157.90 523.02 159.00 C 531.77 160.25 539.48 164.83 547.18 168.85 C 555.76 173.53 564.62 177.70 573.70 181.31 C 580.85 184.11 588.23 186.75 595.99 187.03 C 600.77 187.53 605.87 186.58 610.38 188.67 C 616.52 191.25 622.33 194.52 627.95 198.08 C 633.67 201.51 639.71 204.36 645.69 207.28 C 651.93 210.35 658.78 211.92 664.99 215.04 C 673.72 219.79 679.33 228.30 684.71 236.35 C 691.99 247.92 694.26 261.68 696.63 274.91 C 700.31 297.80 702.42 320.91 704.93 343.95 C 705.99 352.98 707.12 362.07 710.09 370.71 C 714.81 370.17 719.24 372.21 722.66 375.35 C 731.22 382.86 735.68 393.63 742.30 402.67 C 745.50 407.24 750.64 409.69 755.04 412.89 C 762.53 417.99 768.69 424.81 773.92 432.16 C 775.21 434.22 776.99 436.49 776.43 439.09 C 775.67 441.32 773.06 441.29 771.17 441.78 C 771.24 444.02 772.13 447.21 769.50 448.36 C 764.35 449.97 759.44 446.73 754.91 444.70 C 749.68 446.65 744.50 444.21 739.64 442.45 C 729.85 441.08 720.09 438.86 710.93 435.07 C 705.09 432.59 701.96 426.60 699.93 420.93 C 697.95 415.43 695.96 409.93 693.30 404.71 C 688.59 395.41 685.35 385.46 682.45 375.47 C 677.55 358.08 669.29 341.93 662.88 325.10 C 657.59 311.64 652.69 298.04 647.42 284.58 C 643.78 276.21 640.66 267.36 634.75 260.25 C 632.93 257.90 629.93 256.93 627.05 257.04 C 620.00 257.03 612.98 257.88 605.93 257.63 C 597.79 257.46 589.64 260.76 581.61 258.33 C 569.10 254.94 557.00 249.43 543.89 248.77 C 543.49 256.59 542.74 264.39 541.67 272.15 C 539.77 294.60 540.15 317.29 543.57 339.57 C 544.61 346.26 544.97 353.06 546.59 359.64 C 547.53 363.42 548.97 367.33 552.08 369.88 C 556.71 373.89 561.73 377.79 564.67 383.30 C 566.85 387.30 566.46 392.19 568.92 396.09 C 573.60 404.17 572.12 414.20 576.72 422.30 C 578.97 426.26 578.29 430.98 579.81 435.17 C 581.90 441.54 582.13 448.29 582.73 454.92 C 584.15 477.60 577.21 499.77 568.47 520.41 C 562.78 533.99 554.20 546.00 546.26 558.29 C 542.80 563.55 539.04 568.65 536.31 574.34 C 534.36 578.30 534.71 582.83 535.05 587.08 C 536.80 608.41 542.38 629.47 541.19 650.99 C 540.75 653.82 540.28 657.01 538.17 659.14 C 535.51 661.05 532.12 661.37 529.00 661.99 C 533.87 680.77 533.42 700.32 535.23 719.51 C 535.52 721.88 535.81 724.30 536.67 726.56 C 537.61 728.78 539.94 729.88 541.74 731.32 C 546.93 734.87 550.14 740.50 552.88 746.01 C 560.63 762.62 564.99 780.50 571.30 797.66 C 579.25 819.21 585.31 841.58 595.88 862.08 C 598.58 867.51 602.97 871.86 605.72 877.27 C 610.87 886.72 618.54 895.69 618.58 907.01 C 619.31 915.50 615.64 923.81 609.98 929.98 C 604.49 935.81 598.18 940.84 593.00 946.98 C 587.09 954.55 582.81 963.25 576.67 970.67 C 570.57 978.90 561.86 985.26 551.92 987.96 C 543.49 990.16 534.71 990.34 526.06 990.71 C 519.05 990.91 511.96 990.94 505.06 989.54 C 502.22 988.87 499.21 988.00 497.13 985.85 C 495.24 983.90 495.57 980.99 495.35 978.53 C 488.21 983.20 479.52 986.59 470.89 984.62 C 462.38 983.45 455.09 976.82 452.71 968.64 C 450.95 962.83 452.38 956.52 455.33 951.36 C 459.52 943.87 464.34 936.74 467.96 928.95 C 474.02 914.43 475.85 898.60 477.53 883.09 C 477.82 876.53 478.58 869.49 475.56 863.41 C 469.83 851.53 465.26 839.14 459.87 827.10 C 455.82 817.72 452.01 808.23 448.34 798.69 C 443.94 787.15 436.83 776.97 430.48 766.46 C 422.23 753.71 414.30 740.75 405.81 728.16 C 394.90 713.02 384.01 697.87 373.55 682.42 C 362.28 665.29 349.72 648.58 343.06 628.96 C 340.61 621.78 341.05 613.88 343.58 606.80 C 349.39 590.31 359.03 575.48 369.81 561.84 C 377.20 552.67 383.19 542.52 389.98 532.93 C 391.33 530.89 392.55 528.49 392.04 525.96 C 390.74 517.33 387.94 509.02 385.71 500.61 C 383.54 492.71 384.20 484.10 387.50 476.61 C 390.19 470.47 385.48 464.73 383.60 459.13 C 380.23 451.29 383.02 442.68 386.06 435.23 C 389.38 426.90 386.71 417.89 384.22 409.73 C 380.67 399.72 376.07 389.93 369.31 381.66 C 364.94 375.99 359.15 371.23 356.45 364.42 C 353.34 356.91 351.13 349.07 348.47 341.40 C 342.95 322.77 334.66 305.06 324.93 288.28 C 318.15 300.47 313.58 313.73 310.04 327.19 C 309.13 331.57 305.27 334.37 303.22 338.18 C 300.24 343.67 298.10 349.64 296.88 355.77 C 295.63 361.78 296.38 367.94 296.65 374.01 C 297.07 383.05 297.88 392.16 296.67 401.18 C 295.53 409.77 293.53 418.28 290.34 426.34 C 287.74 432.46 284.98 438.56 283.32 445.02 C 282.40 447.43 284.55 449.32 285.83 451.10 C 290.39 456.35 293.79 462.57 295.88 469.20 C 297.92 475.34 295.69 481.72 296.10 487.99 C 296.35 495.99 297.23 504.78 292.87 511.92 C 291.39 514.40 289.17 517.11 285.98 516.95 C 283.36 517.04 281.22 515.03 280.34 512.70 C 277.03 504.86 279.50 496.15 277.66 488.05 C 277.29 486.95 276.52 485.08 275.02 485.59 C 270.42 486.29 267.08 490.69 266.63 495.19 C 264.72 507.11 267.45 519.14 266.61 531.10 C 266.20 534.95 265.51 540.62 260.43 540.48 C 259.40 542.49 257.59 546.31 254.81 544.36 C 253.46 541.87 252.68 539.13 251.35 536.64 C 248.76 531.49 243.87 528.08 240.82 523.27 C 238.92 520.20 239.52 516.41 239.81 513.01 C 241.05 502.99 241.82 492.92 243.14 482.91 C 244.38 474.01 251.07 466.83 252.17 457.96 C 244.93 430.76 239.48 402.46 241.67 374.17 C 242.62 363.01 244.83 351.98 248.13 341.28 C 249.93 335.26 253.18 329.62 253.31 323.19 C 251.29 322.40 249.27 321.63 247.25 320.86 C 249.45 315.08 252.09 309.39 252.61 303.14 C 253.87 290.41 254.91 277.64 257.20 265.04 C 260.08 249.94 260.16 234.37 264.45 219.54 C 266.03 213.64 268.25 207.93 269.84 202.03 C 271.81 195.00 271.37 187.09 275.91 180.98 C 281.13 173.24 291.18 172.32 298.63 167.72 C 307.71 162.74 313.84 153.88 322.91 148.90 C 329.74 144.91 337.90 145.04 345.30 142.79 C 341.29 135.05 336.27 127.63 334.58 118.93 C 332.87 112.06 333.40 104.94 333.84 97.96 C 334.27 93.45 331.77 89.51 330.39 85.40 C 328.82 81.10 328.57 76.47 328.47 71.94 C 327.57 71.90 325.75 71.82 324.84 71.78 C 325.96 68.03 326.69 64.11 325.83 60.22 C 323.94 49.28 326.15 37.87 331.09 28.02 C 336.67 18.30 347.56 13.06 358.01 10.27 M 362.62 49.15 C 356.61 56.43 350.24 63.97 341.41 67.89 C 342.36 62.90 344.36 58.07 344.32 52.92 C 343.53 50.28 340.96 52.68 340.13 53.99 C 337.29 59.11 335.85 64.98 332.05 69.57 C 332.00 73.87 332.42 78.15 333.22 82.38 C 337.70 82.18 342.78 81.58 346.68 84.30 C 349.05 86.35 351.05 89.85 349.74 92.99 C 350.16 93.63 350.54 94.30 350.89 95.00 L 350.96 95.71 C 350.31 101.46 348.93 107.10 347.94 112.80 C 345.10 106.92 347.09 100.45 349.64 94.88 C 348.97 94.38 348.30 93.87 347.63 93.37 C 344.35 93.95 341.10 94.69 337.89 95.57 C 337.74 103.01 336.98 110.59 338.96 117.88 C 340.84 127.25 347.33 134.68 350.65 143.49 C 352.71 149.25 355.40 154.92 359.62 159.43 C 362.55 162.53 367.08 163.45 371.17 162.61 C 382.30 161.18 391.39 153.72 398.93 145.91 C 402.72 142.16 405.64 137.63 409.64 134.09 C 409.81 139.24 405.66 142.95 402.73 146.69 C 395.11 155.86 385.22 164.10 373.07 165.93 C 367.58 167.28 361.78 166.04 357.29 162.63 C 367.13 179.72 377.26 196.95 391.22 211.07 C 394.45 204.31 399.07 198.39 403.57 192.45 C 409.18 185.10 413.63 176.95 417.70 168.67 C 422.25 159.69 425.60 149.95 426.47 139.88 C 426.86 135.76 427.79 131.73 428.82 127.74 C 426.10 123.73 424.94 118.95 424.26 114.22 C 423.44 113.28 422.29 112.44 422.17 111.10 C 420.39 101.85 425.24 93.12 425.62 84.01 C 425.88 79.74 423.77 74.31 418.91 73.89 C 415.24 74.29 413.57 78.31 412.54 81.38 C 410.94 85.99 413.60 90.43 414.06 94.96 C 413.93 99.03 412.24 102.88 412.28 106.98 C 411.66 111.64 413.03 116.35 412.15 120.97 C 409.43 119.63 408.56 116.42 407.39 113.85 C 405.36 109.01 406.43 103.71 407.48 98.78 C 408.52 94.77 405.00 91.89 402.23 89.70 C 398.30 86.38 392.67 86.69 388.01 88.02 C 380.58 89.98 372.65 92.92 365.01 90.18 C 362.25 89.23 358.49 87.44 358.77 83.98 C 359.51 81.90 361.88 81.38 363.73 80.77 C 374.62 77.78 385.89 75.14 397.25 76.24 C 396.70 69.45 400.46 63.66 403.77 58.11 C 400.57 61.61 397.72 65.66 393.26 67.69 C 394.88 61.28 397.99 55.26 398.57 48.60 C 393.47 50.72 388.90 54.21 385.70 58.73 C 383.72 61.48 382.63 64.71 381.06 67.69 L 379.79 67.41 C 378.88 61.56 379.44 55.22 375.98 50.03 C 369.43 54.44 367.63 62.80 365.40 69.88 C 360.60 64.03 364.23 56.09 363.56 49.32 C 363.33 49.28 362.86 49.20 362.62 49.15 M 432.86 129.44 C 431.51 134.73 430.96 140.16 430.30 145.57 C 427.83 160.47 420.64 174.05 412.89 186.82 C 406.82 196.93 397.58 204.91 392.70 215.74 C 385.82 214.10 381.61 207.79 377.21 202.77 C 364.23 185.65 353.73 166.71 344.94 147.15 C 338.72 149.78 331.57 149.25 325.63 152.61 C 317.83 156.88 312.45 164.24 305.12 169.15 C 299.30 173.53 292.30 175.75 285.80 178.86 C 280.38 181.44 276.69 186.95 276.19 192.92 C 275.14 205.02 269.64 216.07 267.35 227.91 C 265.64 236.72 264.77 245.66 263.74 254.56 C 262.37 264.32 260.40 274.00 259.36 283.80 C 257.90 294.96 258.10 306.69 252.97 317.00 C 261.87 319.11 268.61 325.99 277.39 328.42 C 286.64 331.52 296.52 330.07 305.81 327.99 C 308.50 312.36 313.30 296.74 322.07 283.39 C 316.07 272.60 307.25 263.88 299.78 254.16 C 295.52 248.25 291.83 241.79 289.61 234.83 C 288.96 232.86 288.65 228.46 291.92 229.51 C 295.88 245.03 307.46 256.68 317.51 268.51 C 329.16 284.08 338.01 301.58 345.60 319.42 C 351.27 333.28 354.65 347.94 360.11 361.87 C 362.20 367.45 366.55 371.65 370.42 376.02 C 371.44 367.68 371.09 359.28 371.23 350.91 C 371.39 335.22 370.28 319.49 367.39 304.06 C 366.82 301.03 366.15 297.98 366.20 294.88 C 366.67 294.80 367.60 294.64 368.07 294.56 C 369.53 297.19 370.20 300.16 370.95 303.06 C 374.90 319.73 376.26 336.90 376.38 354.00 C 376.35 362.94 376.62 372.03 374.30 380.75 C 380.17 388.40 384.42 397.15 387.77 406.15 C 391.09 416.20 394.23 427.29 390.20 437.63 C 407.76 429.54 422.89 417.05 436.28 403.26 C 439.93 399.63 443.10 395.41 447.54 392.69 C 447.35 396.82 444.15 399.73 441.78 402.79 C 426.94 420.12 408.72 434.98 387.63 443.99 C 386.97 447.26 385.99 450.63 386.75 453.98 C 387.69 458.26 389.76 462.16 391.49 466.16 C 398.37 462.08 405.63 458.68 412.44 454.48 C 421.66 448.84 430.47 442.58 439.33 436.41 C 440.96 435.49 443.75 432.95 444.73 436.02 C 440.46 441.03 434.73 444.51 429.54 448.48 C 418.06 457.01 405.60 464.08 392.95 470.71 C 392.67 473.77 392.02 476.79 390.86 479.64 C 388.89 484.54 388.86 489.89 388.76 495.09 C 394.38 494.28 400.02 493.47 405.59 492.34 C 412.34 490.80 416.82 485.10 421.80 480.76 C 434.38 469.67 444.08 455.56 457.91 445.86 C 461.80 443.46 463.77 439.06 467.56 436.56 C 474.90 431.45 483.35 428.29 491.85 425.72 C 508.78 420.49 526.09 415.54 541.34 406.24 C 548.26 402.01 555.20 397.69 562.89 394.99 C 562.00 390.97 561.52 386.61 558.80 383.31 C 554.47 377.41 547.22 374.27 543.75 367.66 C 540.81 379.28 533.83 389.27 526.44 398.48 C 525.31 400.15 523.33 400.52 521.45 400.63 C 527.74 387.61 537.81 376.30 541.60 362.12 C 538.62 341.88 535.23 321.55 535.43 301.01 C 535.09 283.46 537.41 266.00 540.70 248.80 C 538.36 249.56 535.90 250.33 534.24 252.25 C 526.17 259.88 523.00 270.81 518.69 280.69 C 511.63 297.04 503.28 312.81 494.11 328.06 C 492.45 330.26 491.00 333.89 487.63 333.29 C 487.19 330.05 489.37 327.37 490.69 324.62 C 498.25 310.93 504.78 296.71 511.53 282.61 C 515.16 275.09 518.17 267.27 522.17 259.93 C 517.39 264.94 512.33 269.67 507.03 274.13 C 504.77 276.10 502.20 277.78 499.23 278.43 C 499.88 276.81 500.57 275.15 501.86 273.93 C 507.13 268.53 512.66 263.39 517.71 257.79 C 524.34 249.70 534.14 243.35 544.94 243.90 C 561.35 244.47 575.89 253.74 592.16 254.98 C 600.41 247.67 604.09 236.76 606.08 226.23 C 608.01 214.87 608.36 202.76 603.95 191.90 C 586.69 193.17 570.51 185.91 555.31 178.68 C 546.29 174.54 537.98 168.88 528.61 165.51 C 517.72 162.32 506.18 162.89 494.97 163.19 C 489.30 163.42 485.08 159.26 480.55 156.54 C 471.29 150.97 461.09 147.24 451.44 142.44 C 444.83 138.76 437.37 135.88 432.86 129.44 M 608.31 192.58 C 611.77 200.53 612.73 209.34 612.30 217.93 C 611.53 230.36 608.43 243.04 601.15 253.34 C 607.34 252.67 613.60 253.00 619.79 252.16 C 625.78 251.69 632.86 250.76 637.63 255.31 C 643.75 261.47 646.99 269.75 650.22 277.66 C 654.44 287.76 657.64 298.24 661.59 308.45 C 667.31 324.41 674.14 339.93 680.50 355.64 C 685.18 366.80 687.67 378.71 691.94 390.02 C 695.32 399.48 700.45 408.21 703.39 417.84 C 705.01 422.05 705.86 427.48 710.48 429.51 C 715.98 432.12 721.96 433.51 727.64 435.67 C 724.15 433.13 720.22 431.12 717.22 427.98 L 717.62 426.49 L 718.85 426.60 C 730.35 430.37 739.41 439.39 751.20 442.49 C 744.61 437.45 737.49 433.16 730.82 428.22 C 727.66 425.84 723.99 423.89 721.83 420.44 C 724.26 420.98 726.52 422.11 728.62 423.44 C 735.16 427.56 742.16 430.95 748.44 435.48 C 754.64 439.58 760.82 444.51 768.42 445.48 C 767.70 443.44 767.45 440.88 765.45 439.63 C 763.27 438.12 760.99 436.78 758.90 435.16 C 750.81 428.88 742.06 423.44 734.34 416.71 C 732.08 414.05 736.18 414.36 737.56 415.37 C 743.65 418.81 749.35 422.90 755.08 426.90 C 760.87 430.91 765.96 436.45 773.11 438.03 C 769.69 431.95 764.99 426.71 760.07 421.83 C 754.59 416.47 747.68 412.95 741.81 408.08 C 741.36 408.52 740.47 409.41 740.02 409.85 C 738.64 408.19 735.75 406.97 736.11 404.47 C 736.77 404.39 738.10 404.25 738.76 404.18 C 733.00 396.25 728.84 387.15 722.00 380.02 C 719.00 376.94 715.26 374.42 710.91 373.90 C 710.50 376.18 710.89 378.92 709.03 380.68 C 706.04 378.52 706.77 374.22 705.54 371.10 C 701.30 358.55 700.40 345.22 698.76 332.16 C 695.99 306.78 693.69 281.22 687.43 256.40 C 685.48 248.32 681.67 240.82 676.92 234.04 C 673.17 228.05 668.58 222.24 662.14 219.01 C 656.06 216.15 649.44 214.61 643.42 211.61 C 635.92 207.90 628.36 204.28 621.33 199.73 C 617.16 197.04 612.70 194.87 608.31 192.58 M 251.60 348.43 C 247.30 364.56 245.15 381.37 246.58 398.05 C 247.40 414.96 251.06 431.53 253.87 448.18 C 254.43 452.18 256.63 455.87 256.52 459.97 C 255.15 469.49 247.48 477.08 247.41 486.91 C 246.86 494.95 246.07 502.98 245.10 510.98 C 244.78 513.98 244.20 517.00 244.60 520.02 C 246.28 523.62 249.36 526.29 251.61 529.51 C 254.06 532.69 255.40 536.54 256.45 540.38 C 256.77 539.41 257.42 537.48 257.74 536.52 C 254.42 528.99 253.38 520.76 251.61 512.80 C 250.43 505.58 247.85 498.06 250.13 490.79 C 251.01 492.69 251.75 494.68 252.13 496.76 C 253.63 504.68 256.02 512.40 257.75 520.27 C 258.83 525.24 260.04 530.20 262.01 534.90 C 264.69 524.38 261.70 513.60 262.07 502.95 C 262.22 496.99 262.20 490.14 266.60 485.53 C 269.40 482.49 273.96 480.03 278.06 481.94 C 281.75 483.70 282.40 488.26 282.70 491.89 C 283.26 498.99 281.59 506.94 285.92 513.17 C 288.75 510.69 290.63 507.25 291.30 503.56 C 293.02 495.48 291.23 487.21 292.48 479.10 C 293.77 471.74 290.30 464.67 286.17 458.84 C 283.74 455.41 279.03 452.80 279.43 448.04 C 280.08 437.23 286.00 427.78 288.66 417.46 C 291.49 406.93 293.35 395.99 292.55 385.06 C 292.42 378.35 291.86 371.65 291.48 364.95 C 290.94 354.39 294.40 344.05 299.39 334.87 C 292.07 336.79 284.29 336.81 276.98 334.83 C 270.06 333.17 264.00 329.30 258.02 325.63 C 256.66 333.45 253.35 340.72 251.60 348.43 M 543.97 409.95 C 532.31 417.24 519.30 421.98 506.26 426.16 C 495.22 429.71 483.80 432.44 473.49 437.93 C 498.45 433.06 523.93 438.58 549.04 435.81 C 557.64 434.77 566.31 433.87 574.62 431.32 C 573.97 425.50 570.02 420.81 569.19 415.06 C 568.27 409.58 567.25 404.10 565.29 398.89 C 557.67 401.50 550.77 405.71 543.97 409.95 M 551.05 440.56 C 530.41 443.03 509.63 440.17 488.93 441.31 C 480.49 441.53 471.86 443.04 464.58 447.53 C 452.64 454.97 443.56 465.93 434.00 476.06 C 428.06 481.79 422.37 487.82 416.00 493.08 C 408.68 499.16 398.62 498.61 389.73 499.87 C 392.32 508.15 394.88 516.50 396.36 525.07 C 397.29 529.63 394.84 533.84 392.31 537.41 C 388.54 542.69 385.27 548.31 381.59 553.66 C 400.72 554.52 420.30 561.10 433.73 575.22 C 440.76 582.91 448.84 589.50 456.73 596.26 C 460.99 599.92 465.79 603.16 468.85 607.98 C 455.93 615.28 443.43 623.68 433.44 634.78 C 439.79 639.90 445.86 645.35 451.75 651.00 C 459.14 647.13 467.69 646.08 475.93 646.65 C 484.43 647.29 492.21 651.05 500.18 653.77 C 511.71 657.61 524.50 658.47 536.16 654.72 C 538.62 630.61 531.51 606.96 530.00 583.03 C 529.57 578.21 531.00 573.46 533.36 569.31 C 542.81 552.61 555.10 537.53 562.86 519.88 C 569.12 505.77 574.10 491.02 576.74 475.79 C 578.75 462.42 578.19 448.81 576.41 435.46 C 568.25 438.43 559.61 439.47 551.05 440.56 M 379.22 557.05 C 368.42 571.38 357.43 585.88 350.53 602.59 C 347.12 610.10 344.63 618.75 347.43 626.87 C 352.60 642.05 361.26 655.70 370.09 668.99 C 374.48 675.51 378.22 682.49 383.27 688.55 C 385.76 691.43 387.37 695.08 390.18 697.64 C 398.96 697.72 407.01 693.23 414.79 689.62 C 428.97 681.95 443.05 673.08 453.44 660.55 C 447.78 654.22 441.57 648.40 435.37 642.61 C 428.54 636.15 420.71 630.88 413.46 624.95 C 413.84 624.53 414.60 623.69 414.98 623.27 C 420.29 624.80 424.58 628.52 429.10 631.54 C 438.25 620.80 449.95 612.31 462.82 606.57 C 450.42 598.50 439.07 588.84 428.97 578.05 C 424.08 573.13 418.37 569.07 412.28 565.78 C 402.01 560.56 390.48 558.79 379.22 557.05 M 454.68 654.04 C 467.75 667.90 478.71 684.13 484.49 702.40 C 490.35 719.13 492.07 736.97 498.11 753.64 C 506.39 752.70 514.20 749.40 521.36 745.26 C 526.95 741.98 532.40 738.21 536.39 733.02 C 530.85 728.35 530.67 720.69 530.13 714.04 C 529.09 696.76 528.97 679.37 525.79 662.29 C 515.57 663.31 505.13 662.12 495.55 658.36 C 488.32 655.42 480.95 652.28 473.05 651.93 C 466.85 651.55 460.68 652.60 454.68 654.04 M 431.95 686.95 C 420.26 694.26 407.91 701.55 394.04 703.52 C 400.92 713.11 408.45 722.23 414.90 732.13 C 425.58 748.54 436.27 764.96 446.21 781.83 C 449.54 787.47 452.15 793.49 454.45 799.61 C 461.06 817.11 468.74 834.18 475.54 851.61 C 478.05 858.27 482.23 864.44 482.68 871.73 C 486.66 870.74 490.75 869.18 494.90 869.97 C 501.82 871.54 502.58 881.69 510.01 882.22 C 514.62 881.80 518.57 878.90 522.19 876.23 C 528.67 870.45 530.59 861.33 531.72 853.10 C 532.42 845.42 533.32 837.56 531.94 829.93 C 527.32 823.83 524.80 816.54 521.05 809.93 C 511.26 792.34 500.59 775.05 493.89 755.96 C 487.41 739.00 485.70 720.70 479.52 703.65 C 474.83 689.26 466.70 676.24 457.01 664.70 C 450.45 673.90 441.27 680.77 431.95 686.95 M 523.94 749.91 C 516.61 754.36 508.56 758.04 499.91 758.78 C 508.57 781.50 522.62 801.56 533.23 823.33 C 544.36 828.65 554.09 836.55 562.93 845.07 C 568.00 850.55 572.66 856.79 574.89 864.00 C 576.98 871.30 573.63 879.20 567.85 883.82 C 563.31 887.52 559.15 891.63 554.67 895.39 C 562.34 898.14 563.02 907.35 562.91 914.29 C 570.69 909.83 578.55 905.51 586.59 901.53 C 593.37 898.08 598.24 891.44 599.79 884.02 C 600.49 880.54 601.35 876.30 598.52 873.53 C 592.71 866.70 589.39 858.28 585.86 850.16 C 578.88 833.27 573.50 815.80 567.22 798.66 C 561.05 781.77 556.67 764.22 549.12 747.86 C 546.89 742.95 543.90 738.36 539.93 734.68 C 536.12 741.13 530.26 746.04 523.94 749.91 M 535.86 829.99 C 537.66 844.11 537.46 859.25 531.20 872.32 C 527.97 879.22 521.27 883.75 514.36 886.43 C 509.71 888.17 504.36 886.49 501.08 882.89 C 498.49 880.49 497.07 876.84 493.97 875.04 C 490.31 874.66 486.74 875.93 483.20 876.65 C 482.34 894.24 479.88 912.03 473.54 928.56 C 469.94 937.17 464.58 944.86 460.01 952.96 C 457.91 956.61 456.22 960.81 457.16 965.10 C 457.96 972.69 464.38 979.12 471.89 980.21 C 480.27 982.06 488.37 977.70 495.00 973.02 C 504.42 965.89 512.47 957.10 520.20 948.21 C 529.42 937.61 529.54 922.81 535.62 910.65 C 540.82 899.44 550.90 891.82 559.94 883.87 C 563.88 880.51 568.72 877.30 569.96 871.93 C 571.20 867.68 569.67 863.26 567.40 859.67 C 559.82 847.09 547.52 838.47 535.86 829.99 M 604.62 885.11 C 603.03 893.76 597.92 901.82 590.17 906.18 C 581.26 911.01 572.25 915.68 563.16 920.15 C 561.50 921.21 559.04 920.63 558.53 918.61 C 557.19 913.49 558.42 907.85 556.01 902.99 C 555.03 900.50 551.97 900.72 549.85 900.00 C 543.84 906.01 539.08 913.24 536.52 921.38 C 533.70 929.06 532.56 937.38 528.46 944.56 C 524.14 952.52 517.40 958.71 511.16 965.15 C 508.02 968.37 504.64 971.36 501.22 974.30 C 501.05 976.97 500.88 979.64 500.72 982.33 C 508.31 985.78 516.85 985.14 524.97 985.18 C 537.41 984.71 550.84 984.76 561.64 977.64 C 573.38 970.11 579.05 956.83 586.76 945.78 C 592.38 938.15 599.98 932.34 606.68 925.73 C 611.19 921.02 614.34 914.63 613.99 908.00 C 614.04 899.39 608.46 892.37 604.62 885.11 Z" />
		<path fill="#020202" opacity="1.00"
			d=" M 347.67 114.66 C 350.39 119.34 355.21 121.83 359.82 124.30 C 355.92 125.98 350.99 126.49 347.49 123.68 C 346.21 120.86 347.45 117.60 347.67 114.66 Z" />
		<path fill="#020202" opacity="1.00"
			d=" M 367.96 136.50 C 372.31 135.70 376.64 134.52 381.08 134.40 C 383.91 134.70 381.63 137.06 380.36 137.76 C 378.82 141.65 374.31 141.62 370.85 142.46 C 366.58 143.25 362.37 144.45 358.04 144.85 C 356.16 145.22 354.72 143.83 353.40 142.75 C 352.12 142.30 350.89 141.76 349.70 141.11 C 355.60 138.89 361.84 137.87 367.96 136.50 Z" />
	</g>
	<g id="#f0b58bff">
		<path fill="#f0b58b" opacity="1.00"
			d=" M 362.62 49.15 C 362.86 49.20 363.33 49.28 363.56 49.32 C 364.23 56.09 360.60 64.03 365.40 69.88 C 367.63 62.80 369.43 54.44 375.98 50.03 C 379.44 55.22 378.88 61.56 379.79 67.41 L 381.06 67.69 C 382.63 64.71 383.72 61.48 385.70 58.73 C 388.90 54.21 393.47 50.72 398.57 48.60 C 397.99 55.26 394.88 61.28 393.26 67.69 C 397.72 65.66 400.57 61.61 403.77 58.11 C 400.46 63.66 396.70 69.45 397.25 76.24 C 385.89 75.14 374.62 77.78 363.73 80.77 C 361.88 81.38 359.51 81.90 358.77 83.98 C 358.49 87.44 362.25 89.23 365.01 90.18 C 372.65 92.92 380.58 89.98 388.01 88.02 C 392.67 86.69 398.30 86.38 402.23 89.70 C 405.00 91.89 408.52 94.77 407.48 98.78 C 406.43 103.71 405.36 109.01 407.39 113.85 C 408.56 116.42 409.43 119.63 412.15 120.97 C 413.03 116.35 411.66 111.64 412.28 106.98 C 412.24 102.88 413.93 99.03 414.06 94.96 C 413.60 90.43 410.94 85.99 412.54 81.38 C 413.57 78.31 415.24 74.29 418.91 73.89 C 423.77 74.31 425.88 79.74 425.62 84.01 C 425.24 93.12 420.39 101.85 422.17 111.10 C 422.29 112.44 423.44 113.28 424.26 114.22 C 424.94 118.95 426.10 123.73 428.82 127.74 C 427.79 131.73 426.86 135.76 426.47 139.88 C 425.60 149.95 422.25 159.69 417.70 168.67 C 413.63 176.95 409.18 185.10 403.57 192.45 C 399.07 198.39 394.45 204.31 391.22 211.07 C 377.26 196.95 367.13 179.72 357.29 162.63 C 361.78 166.04 367.58 167.28 373.07 165.93 C 385.22 164.10 395.11 155.86 402.73 146.69 C 405.66 142.95 409.81 139.24 409.64 134.09 C 405.64 137.63 402.72 142.16 398.93 145.91 C 391.39 153.72 382.30 161.18 371.17 162.61 C 367.08 163.45 362.55 162.53 359.62 159.43 C 355.40 154.92 352.71 149.25 350.65 143.49 C 347.33 134.68 340.84 127.25 338.96 117.88 C 336.98 110.59 337.74 103.01 337.89 95.57 C 341.10 94.69 344.35 93.95 347.63 93.37 C 348.30 93.87 348.97 94.38 349.64 94.88 C 347.09 100.45 345.10 106.92 347.94 112.80 C 348.93 107.10 350.31 101.46 350.96 95.71 L 350.89 95.00 C 350.54 94.30 350.16 93.63 349.74 92.99 C 351.05 89.85 349.05 86.35 346.68 84.30 C 342.78 81.58 337.70 82.18 333.22 82.38 C 332.42 78.15 332.00 73.87 332.05 69.57 C 335.85 64.98 337.29 59.11 340.13 53.99 C 340.96 52.68 343.53 50.28 344.32 52.92 C 344.36 58.07 342.36 62.90 341.41 67.89 C 350.24 63.97 356.61 56.43 362.62 49.15 M 347.67 114.66 C 347.45 117.60 346.21 120.86 347.49 123.68 C 350.99 126.49 355.92 125.98 359.82 124.30 C 355.21 121.83 350.39 119.34 347.67 114.66 M 367.96 136.50 C 361.84 137.87 355.60 138.89 349.70 141.11 C 350.89 141.76 352.12 142.30 353.40 142.75 C 354.72 143.83 356.16 145.22 358.04 144.85 C 362.37 144.45 366.58 143.25 370.85 142.46 C 374.31 141.62 378.82 141.65 380.36 137.76 C 381.63 137.06 383.91 134.70 381.08 134.40 C 376.64 134.52 372.31 135.70 367.96 136.50 Z" />
		<path fill="#f0b58b" opacity="1.00"
			d=" M 608.31 192.58 C 612.70 194.87 617.16 197.04 621.33 199.73 C 628.36 204.28 635.92 207.90 643.42 211.61 C 649.44 214.61 656.06 216.15 662.14 219.01 C 668.58 222.24 673.17 228.05 676.92 234.04 C 681.67 240.82 685.48 248.32 687.43 256.40 C 693.69 281.22 695.99 306.78 698.76 332.16 C 700.40 345.22 701.30 358.55 705.54 371.10 C 706.77 374.22 706.04 378.52 709.03 380.68 C 710.89 378.92 710.50 376.18 710.91 373.90 C 715.26 374.42 719.00 376.94 722.00 380.02 C 728.84 387.15 733.00 396.25 738.76 404.18 C 738.10 404.25 736.77 404.39 736.11 404.47 C 735.75 406.97 738.64 408.19 740.02 409.85 C 740.47 409.41 741.36 408.52 741.81 408.08 C 747.68 412.95 754.59 416.47 760.07 421.83 C 764.99 426.71 769.69 431.95 773.11 438.03 C 765.96 436.45 760.87 430.91 755.08 426.90 C 749.35 422.90 743.65 418.81 737.56 415.37 C 736.18 414.36 732.08 414.05 734.34 416.71 C 742.06 423.44 750.81 428.88 758.90 435.16 C 760.99 436.78 763.27 438.12 765.45 439.63 C 767.45 440.88 767.70 443.44 768.42 445.48 C 760.82 444.51 754.64 439.58 748.44 435.48 C 742.16 430.95 735.16 427.56 728.62 423.44 C 726.52 422.11 724.26 420.98 721.83 420.44 C 723.99 423.89 727.66 425.84 730.82 428.22 C 737.49 433.16 744.61 437.45 751.20 442.49 C 739.41 439.39 730.35 430.37 718.85 426.60 L 717.62 426.49 L 717.22 427.98 C 720.22 431.12 724.15 433.13 727.64 435.67 C 721.96 433.51 715.98 432.12 710.48 429.51 C 705.86 427.48 705.01 422.05 703.39 417.84 C 700.45 408.21 695.32 399.48 691.94 390.02 C 687.67 378.71 685.18 366.80 680.50 355.64 C 674.14 339.93 667.31 324.41 661.59 308.45 C 657.64 298.24 654.44 287.76 650.22 277.66 C 646.99 269.75 643.75 261.47 637.63 255.31 C 632.86 250.76 625.78 251.69 619.79 252.16 C 613.60 253.00 607.34 252.67 601.15 253.34 C 608.43 243.04 611.53 230.36 612.30 217.93 C 612.73 209.34 611.77 200.53 608.31 192.58 Z" />
		<path fill="#f0b58b" opacity="1.00"
			d=" M 251.60 348.43 C 253.35 340.72 256.66 333.45 258.02 325.63 C 264.00 329.30 270.06 333.17 276.98 334.83 C 284.29 336.81 292.07 336.79 299.39 334.87 C 294.40 344.05 290.94 354.39 291.48 364.95 C 291.86 371.65 292.42 378.35 292.55 385.06 C 293.35 395.99 291.49 406.93 288.66 417.46 C 286.00 427.78 280.08 437.23 279.43 448.04 C 279.03 452.80 283.74 455.41 286.17 458.84 C 290.30 464.67 293.77 471.74 292.48 479.10 C 291.23 487.21 293.02 495.48 291.30 503.56 C 290.63 507.25 288.75 510.69 285.92 513.17 C 281.59 506.94 283.26 498.99 282.70 491.89 C 282.40 488.26 281.75 483.70 278.06 481.94 C 273.96 480.03 269.40 482.49 266.60 485.53 C 262.20 490.14 262.22 496.99 262.07 502.95 C 261.70 513.60 264.69 524.38 262.01 534.90 C 260.04 530.20 258.83 525.24 257.75 520.27 C 256.02 512.40 253.63 504.68 252.13 496.76 C 251.75 494.68 251.01 492.69 250.13 490.79 C 247.85 498.06 250.43 505.58 251.61 512.80 C 253.38 520.76 254.42 528.99 257.74 536.52 C 257.42 537.48 256.77 539.41 256.45 540.38 C 255.40 536.54 254.06 532.69 251.61 529.51 C 249.36 526.29 246.28 523.62 244.60 520.02 C 244.20 517.00 244.78 513.98 245.10 510.98 C 246.07 502.98 246.86 494.95 247.41 486.91 C 247.48 477.08 255.15 469.49 256.52 459.97 C 256.63 455.87 254.43 452.18 253.87 448.18 C 251.06 431.53 247.40 414.96 246.58 398.05 C 245.15 381.37 247.30 364.56 251.60 348.43 Z" />
		<path fill="#f0b58b" opacity="1.00"
			d=" M 379.22 557.05 C 390.48 558.79 402.01 560.56 412.28 565.78 C 418.37 569.07 424.08 573.13 428.97 578.05 C 439.07 588.84 450.42 598.50 462.82 606.57 C 449.95 612.31 438.25 620.80 429.10 631.54 C 424.58 628.52 420.29 624.80 414.98 623.27 C 414.60 623.69 413.84 624.53 413.46 624.95 C 420.71 630.88 428.54 636.15 435.37 642.61 C 441.57 648.40 447.78 654.22 453.44 660.55 C 443.05 673.08 428.97 681.95 414.79 689.62 C 407.01 693.23 398.96 697.72 390.18 697.64 C 387.37 695.08 385.76 691.43 383.27 688.55 C 378.22 682.49 374.48 675.51 370.09 668.99 C 361.26 655.70 352.60 642.05 347.43 626.87 C 344.63 618.75 347.12 610.10 350.53 602.59 C 357.43 585.88 368.42 571.38 379.22 557.05 Z" />
		<path fill="#f0b58b" opacity="1.00"
			d=" M 454.68 654.04 C 460.68 652.60 466.85 651.55 473.05 651.93 C 480.95 652.28 488.32 655.42 495.55 658.36 C 505.13 662.12 515.57 663.31 525.79 662.29 C 528.97 679.37 529.09 696.76 530.13 714.04 C 530.67 720.69 530.85 728.35 536.39 733.02 C 532.40 738.21 526.95 741.98 521.36 745.26 C 514.20 749.40 506.39 752.70 498.11 753.64 C 492.07 736.97 490.35 719.13 484.49 702.40 C 478.71 684.13 467.75 667.90 454.68 654.04 Z" />
	</g>
	<g id="#f11b27ff">
		<path fill="var(--shirt-color, grey)" opacity="1.00"
			d=" M 432.86 129.44 C 437.37 135.88 444.83 138.76 451.44 142.44 C 461.09 147.24 471.29 150.97 480.55 156.54 C 485.08 159.26 489.30 163.42 494.97 163.19 C 506.18 162.89 517.72 162.32 528.61 165.51 C 537.98 168.88 546.29 174.54 555.31 178.68 C 570.51 185.91 586.69 193.17 603.95 191.90 C 608.36 202.76 608.01 214.87 606.08 226.23 C 604.09 236.76 600.41 247.67 592.16 254.98 C 575.89 253.74 561.35 244.47 544.94 243.90 C 534.14 243.35 524.34 249.70 517.71 257.79 C 512.66 263.39 507.13 268.53 501.86 273.93 C 500.57 275.15 499.88 276.81 499.23 278.43 C 502.20 277.78 504.77 276.10 507.03 274.13 C 512.33 269.67 517.39 264.94 522.17 259.93 C 518.17 267.27 515.16 275.09 511.53 282.61 C 504.78 296.71 498.25 310.93 490.69 324.62 C 489.37 327.37 487.19 330.05 487.63 333.29 C 491.00 333.89 492.45 330.26 494.11 328.06 C 503.28 312.81 511.63 297.04 518.69 280.69 C 523.00 270.81 526.17 259.88 534.24 252.25 C 535.90 250.33 538.36 249.56 540.70 248.80 C 537.41 266.00 535.09 283.46 535.43 301.01 C 535.23 321.55 538.62 341.88 541.60 362.12 C 537.81 376.30 527.74 387.61 521.45 400.63 C 523.33 400.52 525.31 400.15 526.44 398.48 C 533.83 389.27 540.81 379.28 543.75 367.66 C 547.22 374.27 554.47 377.41 558.80 383.31 C 561.52 386.61 562.00 390.97 562.89 394.99 C 555.20 397.69 548.26 402.01 541.34 406.24 C 526.09 415.54 508.78 420.49 491.85 425.72 C 483.35 428.29 474.90 431.45 467.56 436.56 C 463.77 439.06 461.80 443.46 457.91 445.86 C 444.08 455.56 434.38 469.67 421.80 480.76 C 416.82 485.10 412.34 490.80 405.59 492.34 C 400.02 493.47 394.38 494.28 388.76 495.09 C 388.86 489.89 388.89 484.54 390.86 479.64 C 392.02 476.79 392.67 473.77 392.95 470.71 C 405.60 464.08 418.06 457.01 429.54 448.48 C 434.73 444.51 440.46 441.03 444.73 436.02 C 443.75 432.95 440.96 435.49 439.33 436.41 C 430.47 442.58 421.66 448.84 412.44 454.48 C 405.63 458.68 398.37 462.08 391.49 466.16 C 389.76 462.16 387.69 458.26 386.75 453.98 C 385.99 450.63 386.97 447.26 387.63 443.99 C 408.72 434.98 426.94 420.12 441.78 402.79 C 444.15 399.73 447.35 396.82 447.54 392.69 C 443.10 395.41 439.93 399.63 436.28 403.26 C 422.89 417.05 407.76 429.54 390.20 437.63 C 394.23 427.29 391.09 416.20 387.77 406.15 C 384.42 397.15 380.17 388.40 374.30 380.75 C 376.62 372.03 376.35 362.94 376.38 354.00 C 376.26 336.90 374.90 319.73 370.95 303.06 C 370.20 300.16 369.53 297.19 368.07 294.56 C 367.60 294.64 366.67 294.80 366.20 294.88 C 366.15 297.98 366.82 301.03 367.39 304.06 C 370.28 319.49 371.39 335.22 371.23 350.91 C 371.09 359.28 371.44 367.68 370.42 376.02 C 366.55 371.65 362.20 367.45 360.11 361.87 C 354.65 347.94 351.27 333.28 345.60 319.42 C 338.01 301.58 329.16 284.08 317.51 268.51 C 307.46 256.68 295.88 245.03 291.92 229.51 C 288.65 228.46 288.96 232.86 289.61 234.83 C 291.83 241.79 295.52 248.25 299.78 254.16 C 307.25 263.88 316.07 272.60 322.07 283.39 C 313.30 296.74 308.50 312.36 305.81 327.99 C 296.52 330.07 286.64 331.52 277.39 328.42 C 268.61 325.99 261.87 319.11 252.97 317.00 C 258.10 306.69 257.90 294.96 259.36 283.80 C 260.40 274.00 262.37 264.32 263.74 254.56 C 264.77 245.66 265.64 236.72 267.35 227.91 C 269.64 216.07 275.14 205.02 276.19 192.92 C 276.69 186.95 280.38 181.44 285.80 178.86 C 292.30 175.75 299.30 173.53 305.12 169.15 C 312.45 164.24 317.83 156.88 325.63 152.61 C 331.57 149.25 338.72 149.78 344.94 147.15 C 353.73 166.71 364.23 185.65 377.21 202.77 C 381.61 207.79 385.82 214.10 392.70 215.74 C 397.58 204.91 406.82 196.93 412.89 186.82 C 420.64 174.05 427.83 160.47 430.30 145.57 C 430.96 140.16 431.51 134.73 432.86 129.44 Z" />
		<path fill="var(--shirt-color, grey)" opacity="1.00"
			d=" M 543.97 409.95 C 550.77 405.71 557.67 401.50 565.29 398.89 C 567.25 404.10 568.27 409.58 569.19 415.06 C 570.02 420.81 573.97 425.50 574.62 431.32 C 566.31 433.87 557.64 434.77 549.04 435.81 C 523.93 438.58 498.45 433.06 473.49 437.93 C 483.80 432.44 495.22 429.71 506.26 426.16 C 519.30 421.98 532.31 417.24 543.97 409.95 Z" />
	</g>
	<g id="#2b3dcdff">
		<path fill="var(--pants-color, grey)" opacity="1.00"
			d=" M 551.05 440.56 C 559.61 439.47 568.25 438.43 576.41 435.46 C 578.19 448.81 578.75 462.42 576.74 475.79 C 574.10 491.02 569.12 505.77 562.86 519.88 C 555.10 537.53 542.81 552.61 533.36 569.31 C 531.00 573.46 529.57 578.21 530.00 583.03 C 531.51 606.96 538.62 630.61 536.16 654.72 C 524.50 658.47 511.71 657.61 500.18 653.77 C 492.21 651.05 484.43 647.29 475.93 646.65 C 467.69 646.08 459.14 647.13 451.75 651.00 C 445.86 645.35 439.79 639.90 433.44 634.78 C 443.43 623.68 455.93 615.28 468.85 607.98 C 465.79 603.16 460.99 599.92 456.73 596.26 C 448.84 589.50 440.76 582.91 433.73 575.22 C 420.30 561.10 400.72 554.52 381.59 553.66 C 385.27 548.31 388.54 542.69 392.31 537.41 C 394.84 533.84 397.29 529.63 396.36 525.07 C 394.88 516.50 392.32 508.15 389.73 499.87 C 398.62 498.61 408.68 499.16 416.00 493.08 C 422.37 487.82 428.06 481.79 434.00 476.06 C 443.56 465.93 452.64 454.97 464.58 447.53 C 471.86 443.04 480.49 441.53 488.93 441.31 C 509.63 440.17 530.41 443.03 551.05 440.56 Z" />
		<path fill="var(--socks-color, grey)" opacity="1.00"
			d=" M 431.95 686.95 C 441.27 680.77 450.45 673.90 457.01 664.70 C 466.70 676.24 474.83 689.26 479.52 703.65 C 485.70 720.70 487.41 739.00 493.89 755.96 C 500.59 775.05 511.26 792.34 521.05 809.93 C 524.80 816.54 527.32 823.83 531.94 829.93 C 533.32 837.56 532.42 845.42 531.72 853.10 C 530.59 861.33 528.67 870.45 522.19 876.23 C 518.57 878.90 514.62 881.80 510.01 882.22 C 502.58 881.69 501.82 871.54 494.90 869.97 C 490.75 869.18 486.66 870.74 482.68 871.73 C 482.23 864.44 478.05 858.27 475.54 851.61 C 468.74 834.18 461.06 817.11 454.45 799.61 C 452.15 793.49 449.54 787.47 446.21 781.83 C 436.27 764.96 425.58 748.54 414.90 732.13 C 408.45 722.23 400.92 713.11 394.04 703.52 C 407.91 701.55 420.26 694.26 431.95 686.95 Z" />
		<path fill="var(--socks-color, grey)" opacity="1.00"
			d=" M 523.94 749.91 C 530.26 746.04 536.12 741.13 539.93 734.68 C 543.90 738.36 546.89 742.95 549.12 747.86 C 556.67 764.22 561.05 781.77 567.22 798.66 C 573.50 815.80 578.88 833.27 585.86 850.16 C 589.39 858.28 592.71 866.70 598.52 873.53 C 601.35 876.30 600.49 880.54 599.79 884.02 C 598.24 891.44 593.37 898.08 586.59 901.53 C 578.55 905.51 570.69 909.83 562.91 914.29 C 563.02 907.35 562.34 898.14 554.67 895.39 C 559.15 891.63 563.31 887.52 567.85 883.82 C 573.63 879.20 576.98 871.30 574.89 864.00 C 572.66 856.79 568.00 850.55 562.93 845.07 C 554.09 836.55 544.36 828.65 533.23 823.33 C 522.62 801.56 508.57 781.50 499.91 758.78 C 508.56 758.04 516.61 754.36 523.94 749.91 Z" />
	</g>
	<g id="#4d4d4dff">
		<path fill="#4d4d4d" opacity="1.00"
			d=" M 535.86 829.99 C 547.52 838.47 559.82 847.09 567.40 859.67 C 569.67 863.26 571.20 867.68 569.96 871.93 C 568.72 877.30 563.88 880.51 559.94 883.87 C 550.90 891.82 540.82 899.44 535.62 910.65 C 529.54 922.81 529.42 937.61 520.20 948.21 C 512.47 957.10 504.42 965.89 495.00 973.02 C 488.37 977.70 480.27 982.06 471.89 980.21 C 464.38 979.12 457.96 972.69 457.16 965.10 C 456.22 960.81 457.91 956.61 460.01 952.96 C 464.58 944.86 469.94 937.17 473.54 928.56 C 479.88 912.03 482.34 894.24 483.20 876.65 C 486.74 875.93 490.31 874.66 493.97 875.04 C 497.07 876.84 498.49 880.49 501.08 882.89 C 504.36 886.49 509.71 888.17 514.36 886.43 C 521.27 883.75 527.97 879.22 531.20 872.32 C 537.46 859.25 537.66 844.11 535.86 829.99 Z" />
		<path fill="#4d4d4d" opacity="1.00"
			d=" M 604.62 885.11 C 608.46 892.37 614.04 899.39 613.99 908.00 C 614.34 914.63 611.19 921.02 606.68 925.73 C 599.98 932.34 592.38 938.15 586.76 945.78 C 579.05 956.83 573.38 970.11 561.64 977.64 C 550.84 984.76 537.41 984.71 524.97 985.18 C 516.85 985.14 508.31 985.78 500.72 982.33 C 500.88 979.64 501.05 976.97 501.22 974.30 C 504.64 971.36 508.02 968.37 511.16 965.15 C 517.40 958.71 524.14 952.52 528.46 944.56 C 532.56 937.38 533.70 929.06 536.52 921.38 C 539.08 913.24 543.84 906.01 549.85 900.00 C 551.97 900.72 555.03 900.50 556.01 902.99 C 558.42 907.85 557.19 913.49 558.53 918.61 C 559.04 920.63 561.50 921.21 563.16 920.15 C 572.25 915.68 581.26 911.01 590.17 906.18 C 597.92 901.82 603.03 893.76 604.62 885.11 Z" />
	</g>
</svg>