<?xml version="1.0" encoding="UTF-8" ?>
<!DOCTYPE svg PUBLIC "-//W3C//DTD SVG 1.1//EN" "http://www.w3.org/Graphics/SVG/1.1/DTD/svg11.dtd">
<svg width="1000pt" height="1000pt" viewBox="0 0 1000 1000" version="1.1" xmlns="http://www.w3.org/2000/svg">
	<g id="#020202ff">
		<path fill="#020202" opacity="1.00"
			d=" M 264.12 46.19 C 276.52 19.80 307.37 4.12 336.01 9.01 C 354.64 11.90 372.05 22.90 381.98 39.02 C 389.75 51.44 392.64 66.75 390.10 81.17 C 388.01 92.45 384.60 103.49 379.79 113.90 C 378.82 116.27 377.36 118.47 376.80 120.98 C 376.96 128.49 379.38 136.67 386.14 140.81 C 392.16 139.30 398.17 142.48 402.26 146.74 C 405.81 150.48 407.72 155.96 412.73 158.16 C 424.55 163.88 436.31 170.10 446.36 178.67 C 456.45 186.88 464.92 196.83 473.08 206.90 C 485.10 222.63 493.97 240.81 498.83 260.00 C 502.96 277.71 503.99 296.04 503.49 314.17 C 502.63 322.16 503.32 330.18 503.72 338.17 C 504.04 344.76 503.64 351.37 504.20 357.95 C 504.91 366.32 504.66 374.73 505.15 383.11 C 504.92 386.65 508.70 388.04 510.65 390.35 C 517.10 397.33 519.61 406.83 522.11 415.76 C 523.00 418.65 522.80 422.00 524.47 424.59 C 527.20 426.61 531.34 425.53 533.78 428.18 C 537.44 431.85 539.35 436.79 541.53 441.40 C 542.95 444.93 545.06 448.26 545.61 452.09 C 545.71 453.74 544.11 454.77 543.33 456.04 C 548.69 460.21 553.00 465.48 557.56 470.47 C 570.71 485.36 583.54 500.95 591.85 519.17 C 596.96 529.10 598.76 540.23 600.98 551.05 C 602.07 556.46 601.40 562.53 604.81 567.23 C 610.49 575.04 615.74 583.18 620.30 591.70 C 623.66 597.91 626.75 604.32 630.97 610.01 C 635.06 615.20 639.76 619.88 644.58 624.39 C 650.65 630.02 656.04 636.38 660.69 643.23 C 665.56 650.75 670.61 658.51 672.34 667.46 C 672.54 669.04 672.89 670.75 672.27 672.29 C 671.83 674.44 669.17 673.66 667.63 674.19 C 679.72 683.13 687.55 696.46 693.45 710.02 C 703.29 699.86 717.13 693.90 731.12 692.58 C 743.93 691.36 756.48 695.59 767.85 701.14 C 774.91 704.59 781.92 708.17 788.83 711.94 C 788.90 702.90 789.39 692.83 795.64 685.67 C 802.92 677.40 812.89 670.64 824.08 669.62 C 833.74 668.80 842.42 674.56 848.58 681.49 C 855.59 689.15 859.23 699.15 865.86 707.10 C 878.62 724.03 898.30 733.96 911.44 750.52 C 915.61 756.46 919.89 762.71 921.49 769.90 C 922.92 775.13 918.89 780.45 913.91 781.74 C 901.37 784.55 888.42 782.36 875.89 780.53 C 855.49 777.09 835.16 772.24 816.20 763.81 C 814.12 762.91 812.30 761.55 810.62 760.07 C 799.14 762.49 787.17 762.85 776.12 767.06 C 767.85 770.18 760.30 774.91 752.06 778.09 C 740.05 783.04 726.84 783.39 714.04 783.83 C 708.30 784.48 702.40 784.12 696.84 785.90 C 688.82 787.97 682.10 793.56 673.78 794.71 C 664.53 795.89 655.18 793.32 646.99 789.10 C 633.86 783.48 624.31 772.43 614.83 762.17 C 606.46 753.13 599.09 743.24 590.87 734.09 C 582.69 725.69 574.53 717.01 564.51 710.77 C 563.18 713.78 561.82 716.78 560.25 719.67 C 551.21 716.93 542.10 713.37 534.98 706.98 C 529.88 702.06 525.42 696.53 520.68 691.27 C 508.62 678.09 497.35 663.65 481.78 654.36 C 472.94 659.61 463.46 663.63 454.41 668.49 C 436.02 677.66 417.59 686.79 398.58 694.62 C 389.78 698.19 381.49 703.02 374.30 709.26 C 368.29 714.30 362.20 720.56 353.96 721.34 C 347.74 720.87 341.78 718.71 336.03 716.40 C 328.05 724.56 315.73 725.12 306.77 731.69 C 303.15 734.20 301.84 738.75 301.75 742.96 C 301.86 753.70 304.04 764.29 304.17 775.03 C 304.30 787.69 304.58 800.41 302.82 812.98 C 301.01 825.74 299.11 838.53 295.85 851.02 C 292.93 863.56 287.40 875.36 284.99 888.03 C 281.86 904.99 285.16 922.20 284.73 939.28 C 291.07 944.03 290.66 952.92 288.77 959.79 C 285.48 970.94 278.34 981.20 268.36 987.33 C 262.98 990.82 256.26 990.95 250.09 990.32 C 242.57 989.20 235.34 986.28 229.01 982.09 C 224.71 979.31 220.59 976.22 215.91 974.10 C 199.81 966.42 181.52 965.69 165.05 959.03 C 146.43 951.92 128.23 940.03 119.15 921.70 C 116.13 915.16 112.12 908.49 112.69 901.01 C 113.05 896.84 116.58 893.79 120.38 892.63 C 131.19 889.19 142.78 889.79 153.85 891.51 C 164.34 892.99 174.31 897.23 184.96 897.71 C 193.92 898.12 202.99 896.62 211.32 893.28 C 214.76 891.94 218.41 891.25 222.08 890.97 C 222.10 878.65 221.78 866.33 222.02 854.02 C 222.33 838.71 221.92 823.36 223.45 808.11 C 224.70 795.78 225.25 783.40 226.00 771.03 C 226.51 762.71 225.78 754.24 227.81 746.08 C 228.27 739.44 223.60 733.81 222.39 727.43 C 220.86 719.71 218.50 711.32 221.76 703.72 C 225.09 695.65 230.60 688.75 236.08 682.05 C 240.23 676.55 244.38 671.03 248.26 665.32 C 253.99 657.15 255.81 647.09 260.34 638.32 C 264.36 629.86 271.09 623.14 277.89 616.89 C 283.94 611.62 289.85 606.16 296.28 601.33 C 311.70 590.44 327.76 580.38 342.27 568.23 C 345.10 565.73 348.50 563.88 351.02 561.04 C 354.36 557.18 353.58 551.76 354.63 547.09 C 355.65 538.83 358.92 530.89 364.26 524.48 C 359.17 515.88 354.90 506.24 355.50 496.03 C 353.87 491.82 350.75 488.24 349.12 483.97 C 345.81 476.95 344.74 469.01 340.59 462.38 C 338.20 458.25 334.22 454.87 333.55 449.92 C 331.75 439.01 332.93 427.87 331.36 416.93 C 331.00 412.49 328.91 407.97 330.63 403.58 C 326.70 391.37 324.05 378.81 321.73 366.21 C 321.03 362.27 319.39 358.40 316.12 355.93 C 294.59 357.77 272.81 356.03 251.42 359.56 C 242.82 361.38 235.00 366.00 226.13 366.84 C 218.46 367.89 210.26 367.38 203.40 363.48 C 197.05 359.69 189.67 356.81 182.17 357.43 C 174.87 359.81 169.01 366.10 161.00 366.41 C 158.21 366.19 157.25 363.24 157.26 360.86 C 154.25 363.08 150.85 365.25 146.96 365.23 C 144.85 365.23 143.35 363.01 143.80 361.03 C 144.54 357.14 147.35 354.12 149.81 351.19 C 143.08 354.66 135.72 357.61 128.02 357.41 C 125.70 357.60 123.24 355.40 124.00 353.00 C 125.07 349.67 128.50 348.04 131.06 346.02 C 129.48 341.91 133.63 339.41 136.43 337.38 C 146.08 331.08 156.47 326.05 166.64 320.68 C 174.96 316.81 182.63 311.68 191.03 308.00 C 196.11 305.75 201.34 308.63 205.68 311.18 C 214.41 316.43 223.97 320.39 234.04 322.06 C 237.68 322.57 241.37 322.65 245.01 323.16 C 255.15 324.48 265.44 322.95 275.23 320.24 C 286.16 317.19 296.97 313.66 307.61 309.69 C 306.46 299.82 305.68 289.91 305.46 279.97 C 305.14 269.25 308.70 258.97 312.08 248.95 C 316.32 236.67 319.13 223.92 320.79 211.05 C 322.12 203.98 320.62 196.17 324.88 189.90 C 324.25 184.81 321.44 180.32 318.12 176.52 C 314.60 179.38 310.29 183.13 305.40 181.43 C 297.94 178.31 293.81 170.86 289.77 164.30 C 282.61 151.89 273.67 139.79 271.76 125.20 C 269.83 116.00 269.77 106.47 267.39 97.39 C 264.27 92.88 260.68 88.45 259.54 82.94 C 257.03 70.63 258.76 57.53 264.12 46.19 M 269.52 83.51 C 274.20 97.07 275.52 111.38 277.81 125.45 C 279.16 134.81 284.11 143.06 288.85 151.06 C 292.55 157.07 295.80 163.36 299.76 169.20 C 301.85 172.17 304.42 175.19 307.99 176.34 C 310.22 175.72 312.07 174.24 313.59 172.54 C 317.76 167.72 320.83 162.01 325.40 157.51 C 329.24 153.71 332.99 149.81 336.73 145.90 C 332.10 154.80 327.28 163.60 321.68 171.93 C 325.58 175.77 328.38 180.60 329.48 186.00 C 335.37 179.25 340.48 171.88 346.12 164.94 C 355.71 154.53 368.97 148.71 381.66 143.04 C 375.48 139.18 372.43 131.98 372.81 124.84 C 370.47 126.67 367.88 128.26 364.94 128.90 C 357.78 130.61 350.39 130.83 343.08 131.39 C 334.33 131.69 325.37 132.54 316.79 130.28 C 312.73 129.02 307.97 127.01 306.78 122.49 C 304.63 113.10 309.98 104.24 310.25 94.96 C 310.29 93.23 309.06 90.98 307.02 91.53 C 302.93 92.93 300.77 96.98 298.28 100.20 C 293.94 106.07 290.75 112.72 286.11 118.37 C 285.50 112.43 284.64 106.43 282.22 100.92 C 279.38 94.30 275.71 87.55 269.52 83.51 M 387.10 145.20 C 375.08 151.05 362.52 156.50 352.38 165.39 C 344.35 173.76 338.51 184.05 330.10 192.11 C 329.00 193.34 327.48 194.42 327.07 196.11 C 324.33 208.93 323.95 222.15 320.65 234.87 C 317.75 248.40 311.24 261.07 310.20 275.00 C 309.77 283.99 310.39 292.98 310.66 301.96 C 310.63 304.21 311.12 306.69 309.81 308.70 C 322.33 304.02 334.86 299.27 347.00 293.65 C 341.66 291.44 336.04 287.77 334.35 281.94 C 334.02 274.47 337.96 267.69 340.86 261.04 C 337.31 255.65 335.51 249.35 331.88 244.02 C 328.89 239.46 325.87 234.56 325.67 228.95 C 325.25 218.12 329.48 207.47 336.06 199.00 C 342.47 190.91 351.27 185.16 360.25 180.28 C 365.23 177.77 370.45 174.83 376.24 175.36 C 375.61 176.29 375.04 177.38 373.93 177.83 C 361.97 183.05 350.40 189.75 341.20 199.12 C 333.91 206.82 329.37 217.31 329.50 227.98 C 329.56 233.41 332.52 238.14 335.47 242.50 C 338.59 247.09 340.42 252.37 342.66 257.42 C 345.68 251.58 348.59 245.66 352.20 240.15 C 353.06 238.56 354.79 237.94 356.36 237.29 C 356.06 239.46 355.74 241.68 354.70 243.65 C 349.91 253.33 344.76 262.86 340.92 272.98 C 339.98 275.56 339.08 278.21 338.97 280.98 C 341.05 286.45 346.95 288.80 352.07 290.61 C 353.84 289.51 355.71 288.52 357.31 287.15 C 359.11 284.65 360.12 281.61 362.34 279.40 C 368.07 273.44 372.92 265.94 381.00 262.94 C 390.83 259.48 401.91 259.54 411.67 263.25 C 421.12 266.78 430.47 272.85 434.38 282.57 C 433.59 271.35 433.47 260.05 431.83 248.90 C 431.31 243.83 427.64 240.05 424.83 236.08 C 417.71 226.03 409.40 216.92 401.25 207.72 C 399.74 206.10 398.59 204.16 397.98 202.03 C 399.59 202.65 401.28 203.28 402.60 204.46 C 411.09 211.97 419.22 220.02 425.70 229.37 C 428.27 233.11 430.99 236.76 433.44 240.59 C 436.04 244.63 436.74 249.50 437.24 254.19 C 438.03 262.41 438.45 270.67 438.59 278.93 C 438.86 289.67 437.13 300.32 436.76 311.04 C 436.43 316.57 433.42 321.68 428.97 324.91 C 420.26 331.29 410.17 335.43 400.06 339.03 C 387.98 343.30 375.71 347.17 363.13 349.64 C 349.37 352.36 335.54 355.02 321.51 355.66 C 323.36 358.76 324.89 362.09 325.51 365.69 C 327.74 377.62 330.31 389.50 333.85 401.12 C 336.80 399.47 339.85 397.72 341.88 394.92 C 345.83 389.52 348.08 383.15 351.31 377.34 C 354.00 372.54 357.36 368.13 361.21 364.20 C 364.40 360.99 367.56 357.42 371.97 355.92 C 371.50 357.86 370.47 359.58 369.02 360.93 C 362.04 367.92 355.78 375.83 351.84 384.94 C 349.47 389.75 347.62 394.97 344.00 399.02 C 341.13 402.37 336.51 403.44 333.69 406.86 C 336.61 417.64 336.50 428.89 336.77 439.96 C 337.17 444.90 336.77 450.55 340.33 454.51 C 344.92 459.84 347.93 466.30 349.96 473.00 C 351.80 479.23 354.65 485.10 357.96 490.68 C 359.22 486.07 361.15 481.69 363.57 477.58 C 368.93 468.30 372.94 458.33 377.83 448.81 C 384.83 436.20 392.78 424.09 398.84 410.97 C 403.99 399.72 409.48 388.62 414.13 377.15 C 414.94 375.16 416.08 373.33 417.27 371.56 C 417.61 377.63 414.84 383.18 412.69 388.68 C 409.45 396.16 406.32 403.69 403.10 411.18 C 398.09 422.41 391.74 432.96 385.75 443.68 C 380.85 451.49 377.44 460.09 373.29 468.29 C 368.97 477.83 361.83 486.27 360.36 496.92 C 359.37 505.76 363.31 514.13 366.70 522.05 C 373.28 513.73 381.65 507.04 390.91 501.93 C 403.89 494.75 413.88 483.61 425.20 474.25 C 438.41 463.17 450.19 450.51 463.59 439.66 C 466.90 437.08 470.15 434.00 474.50 433.43 C 471.61 437.85 467.06 440.71 463.27 444.27 C 450.73 455.00 439.61 467.25 426.99 477.88 C 419.21 484.34 412.06 491.50 404.49 498.20 C 410.98 496.70 417.58 495.64 424.15 494.53 C 440.97 492.82 458.02 492.39 474.52 488.32 C 484.27 485.84 494.71 484.09 502.88 477.78 C 509.07 473.00 515.11 467.98 521.81 463.89 C 528.64 459.84 534.86 454.52 542.61 452.27 C 538.84 446.23 536.28 439.53 532.35 433.59 C 530.12 429.81 524.95 430.73 521.95 427.97 C 519.06 425.56 519.10 421.51 518.23 418.15 C 516.22 409.86 513.94 401.25 508.58 394.43 C 505.95 391.08 500.81 389.07 501.08 384.10 C 499.98 361.42 499.17 338.73 499.15 316.02 C 499.62 296.91 498.68 277.54 493.87 258.96 C 488.16 237.94 477.31 218.40 462.95 202.05 C 452.34 189.23 439.68 177.95 425.03 169.94 C 419.93 166.87 414.44 164.53 409.25 161.65 C 403.18 158.35 401.51 150.91 396.39 146.60 C 393.99 144.19 390.08 143.50 387.10 145.20 M 382.56 267.51 C 376.19 269.78 371.92 275.31 367.63 280.22 C 373.75 275.83 380.71 272.08 388.38 271.66 C 385.79 276.61 379.35 276.93 375.36 280.38 C 364.51 288.51 353.27 296.33 340.67 301.52 C 322.17 308.98 303.75 316.78 284.54 322.24 C 275.19 324.71 265.77 327.62 256.01 327.56 C 248.64 327.45 241.26 327.40 233.92 326.75 C 222.90 325.21 212.38 320.98 202.97 315.13 C 199.02 312.90 194.15 309.81 189.69 312.63 C 173.90 321.28 157.52 328.85 141.96 337.92 C 139.41 339.50 136.57 340.92 134.81 343.45 C 134.74 343.54 134.59 343.73 134.52 343.83 C 143.50 339.50 152.14 334.49 161.12 330.15 C 165.35 328.12 169.33 325.32 174.08 324.67 C 170.79 328.04 166.62 330.30 162.62 332.70 C 153.46 337.78 144.47 343.20 135.35 348.36 C 132.69 349.83 130.19 351.58 127.91 353.59 C 136.34 354.07 144.08 350.12 151.41 346.48 C 156.65 343.50 161.99 340.54 166.46 336.45 C 169.06 334.15 171.75 331.93 174.71 330.11 C 176.72 330.44 175.05 332.39 174.33 333.22 C 166.71 343.58 154.60 349.91 148.03 361.09 C 153.09 359.65 157.93 357.32 162.23 354.29 C 168.86 348.05 175.97 342.14 184.14 338.01 C 184.68 338.27 185.77 338.79 186.32 339.05 C 178.27 347.09 167.71 352.65 161.38 362.37 C 168.63 360.87 174.90 356.73 181.29 353.22 C 188.11 349.34 194.78 343.47 203.16 344.14 C 203.35 344.62 203.73 345.59 203.92 346.07 C 198.08 348.57 191.78 350.06 186.59 353.96 C 189.76 354.09 193.01 354.10 196.04 355.15 C 202.33 356.93 207.41 361.64 213.94 362.75 C 223.27 364.28 232.79 362.03 241.39 358.43 C 250.05 354.74 259.60 354.41 268.85 353.74 C 296.09 352.38 323.60 353.03 350.49 347.72 C 371.09 344.29 391.22 338.34 410.60 330.59 C 417.56 327.84 424.50 324.10 429.12 318.02 C 432.36 313.77 432.05 308.12 432.04 303.07 C 431.60 296.33 432.09 289.23 428.99 283.00 C 425.99 275.99 419.12 271.75 412.48 268.67 C 403.15 264.39 392.19 264.03 382.56 267.51 M 521.83 468.82 C 515.46 473.00 509.91 478.31 503.55 482.50 C 494.73 488.41 484.09 490.31 474.00 492.96 C 457.63 497.13 440.65 497.29 423.95 499.11 C 415.94 500.57 407.74 501.16 399.92 503.53 C 393.71 504.98 388.72 509.13 383.55 512.62 C 377.62 516.56 372.84 521.88 367.78 526.82 C 361.05 534.49 359.23 545.00 358.29 554.84 C 357.79 557.54 358.10 560.83 355.86 562.83 C 348.70 569.78 340.53 575.53 332.72 581.70 C 318.53 591.73 303.35 600.54 290.50 612.35 C 284.23 617.81 277.91 623.25 272.40 629.48 C 270.93 631.24 269.11 632.87 268.33 635.08 C 268.41 640.13 270.41 644.93 272.51 649.45 C 278.51 661.48 287.28 671.87 296.60 681.46 C 309.35 694.06 323.73 705.37 340.13 712.82 C 344.51 714.58 349.04 716.72 353.86 716.61 C 362.08 714.27 367.54 707.16 374.15 702.20 C 382.84 695.04 393.43 690.92 403.76 686.74 C 429.13 676.57 453.44 664.04 477.86 651.81 C 479.81 650.93 482.04 649.60 484.18 650.80 C 491.81 654.33 498.52 659.59 504.60 665.35 C 515.65 676.34 525.80 688.18 536.15 699.82 C 542.06 706.55 550.28 710.50 558.49 713.68 C 561.52 705.17 566.97 697.68 573.34 691.36 C 582.54 682.81 594.84 678.58 606.92 675.99 C 627.32 671.74 648.17 669.80 668.98 669.21 C 665.63 657.24 658.79 646.57 650.97 637.05 C 644.84 629.53 637.06 623.59 630.79 616.20 C 624.02 608.85 620.03 599.57 615.17 590.96 C 611.37 584.24 607.31 577.64 602.70 571.43 C 600.83 568.86 599.09 566.10 598.41 562.96 C 595.80 548.46 593.71 533.49 586.83 520.26 C 578.97 502.87 566.46 488.25 554.33 473.74 C 549.41 468.14 544.79 462.24 539.17 457.31 C 533.33 461.06 527.63 465.01 521.83 468.82 M 251.60 669.62 C 246.27 677.24 240.89 684.83 235.05 692.06 C 231.49 696.99 227.82 702.01 225.78 707.80 C 224.17 712.33 225.07 717.21 225.65 721.84 C 226.52 728.74 229.54 735.08 231.19 741.80 C 232.18 744.80 232.65 748.63 235.77 750.25 C 241.14 753.34 247.35 754.49 253.42 755.31 C 264.34 756.60 275.60 756.23 286.22 753.19 C 289.64 752.03 293.34 750.80 295.85 748.07 C 296.47 742.82 295.63 737.14 298.39 732.36 C 301.90 726.35 308.61 723.26 314.95 721.14 C 320.83 719.26 326.57 716.99 332.25 714.59 C 313.92 704.93 297.83 691.32 284.30 675.69 C 275.74 665.25 267.38 653.76 264.90 640.20 C 259.92 649.77 257.95 660.75 251.60 669.62 M 618.10 679.60 C 607.92 681.53 597.63 683.65 588.26 688.24 C 579.12 692.20 571.69 699.31 566.36 707.63 C 572.35 710.70 577.44 715.18 582.43 719.63 C 588.49 725.56 594.71 731.38 600.12 737.93 C 611.15 751.17 622.38 764.31 634.95 776.12 C 640.43 781.42 647.47 784.56 654.38 787.51 C 659.91 789.76 666.00 790.64 671.95 790.20 C 681.46 789.54 688.91 782.29 698.39 781.44 C 692.97 775.43 690.08 767.67 688.04 759.97 C 684.37 744.90 684.44 728.57 690.20 714.03 C 686.55 707.84 683.75 701.18 679.89 695.11 C 675.18 687.70 669.45 680.84 662.49 675.46 C 661.28 674.29 659.56 674.58 658.06 674.61 C 644.64 675.37 631.34 677.37 618.10 679.60 M 809.59 680.37 C 806.55 685.74 806.94 692.27 809.13 697.86 C 812.05 707.45 818.86 715.47 827.44 720.54 C 839.63 727.98 847.20 740.39 855.23 751.78 C 860.33 759.16 868.15 764.33 872.94 771.87 C 872.48 772.02 871.55 772.31 871.08 772.46 C 861.75 768.32 854.93 760.03 848.93 752.01 C 842.30 742.24 835.39 732.23 825.46 725.51 C 818.90 721.22 812.66 716.03 808.84 709.05 C 804.52 701.19 801.22 691.82 803.88 682.86 C 801.35 685.68 798.59 688.39 796.83 691.79 C 793.81 698.38 793.67 705.90 793.88 713.02 C 794.36 722.88 802.18 729.86 808.39 736.65 C 812.28 741.09 817.75 744.88 819.13 750.94 C 819.98 753.93 817.96 756.50 816.49 758.88 C 835.72 767.58 856.42 772.45 877.20 775.75 C 888.36 777.37 899.69 778.98 910.97 777.79 C 914.57 777.54 917.29 773.47 915.92 770.07 C 913.89 763.74 910.30 757.98 906.24 752.76 C 892.71 736.90 873.64 726.75 860.97 710.06 C 854.71 702.72 851.02 693.60 844.67 686.33 C 841.41 682.52 837.53 679.13 832.96 677.00 C 825.34 673.67 816.16 675.63 809.59 680.37 M 698.54 710.49 C 696.31 712.28 694.49 714.61 693.62 717.36 C 690.09 727.50 690.24 738.50 691.24 749.07 C 692.59 760.11 695.15 771.80 702.94 780.23 C 715.53 778.35 728.41 779.31 740.88 776.43 C 754.80 773.37 766.38 764.25 780.06 760.46 C 791.41 757.05 803.51 757.10 814.78 753.38 C 813.67 748.18 809.44 744.72 806.01 741.01 C 798.94 733.81 791.11 726.30 789.11 715.95 C 782.29 713.99 776.29 710.07 769.92 707.06 C 759.34 701.73 747.99 696.96 735.95 696.89 C 722.35 696.63 709.01 701.97 698.54 710.49 M 231.80 752.79 C 232.09 776.95 228.58 800.91 227.08 824.98 C 226.76 844.65 226.87 864.33 226.78 884.01 C 226.94 896.64 226.30 909.31 227.52 921.91 C 228.24 926.12 228.75 930.87 231.94 934.05 C 236.54 938.75 242.71 941.60 249.01 943.22 C 259.75 945.91 271.93 944.92 281.06 938.21 C 279.67 920.15 276.53 901.68 280.81 883.78 C 282.52 876.48 285.22 869.48 287.46 862.34 C 291.75 848.91 294.69 835.07 296.76 821.13 C 299.77 804.93 299.43 788.39 299.11 771.99 C 298.96 765.56 297.92 759.20 297.67 752.78 C 289.92 758.26 280.28 760.06 271.00 760.77 C 257.63 761.47 243.23 760.47 231.80 752.79 M 121.02 896.25 C 118.48 896.86 116.51 899.34 116.65 901.99 C 116.63 907.76 119.58 912.92 122.13 917.91 C 130.46 933.15 144.26 945.17 160.28 951.81 C 177.61 960.01 197.16 961.21 214.90 968.19 C 225.63 972.15 233.82 980.98 244.90 984.22 C 252.43 986.66 261.90 988.01 268.39 982.39 C 276.33 975.62 282.20 966.29 284.61 956.12 C 285.78 951.60 285.35 946.72 282.81 942.75 C 270.03 952.53 251.71 952.45 237.68 945.43 C 231.88 942.29 225.93 937.79 224.18 931.11 C 220.71 919.37 222.73 907.01 222.10 894.98 C 216.97 895.74 212.28 898.00 207.37 899.50 C 199.43 901.56 191.15 902.66 182.96 901.84 C 172.45 900.98 162.47 897.17 152.03 895.85 C 141.77 894.30 131.18 893.83 121.02 896.25 Z" />
		<path fill="#020202" opacity="1.00"
			d=" M 490.66 344.14 C 491.11 341.74 490.69 338.76 493.03 337.22 C 494.21 341.40 493.67 345.77 493.03 350.00 C 490.62 368.27 484.44 385.87 476.51 402.43 C 473.55 407.97 470.87 414.10 465.59 417.85 C 466.00 416.56 466.47 415.29 467.02 414.06 C 479.14 392.52 487.96 368.80 490.66 344.14 Z" />
	</g>
	<g id="#f0b58bff">
		<path fill="#f0b58b" opacity="1.00"
			d=" M 269.52 83.51 C 275.71 87.55 279.38 94.30 282.22 100.92 C 284.64 106.43 285.50 112.43 286.11 118.37 C 290.75 112.72 293.94 106.07 298.28 100.20 C 300.77 96.98 302.93 92.93 307.02 91.53 C 309.06 90.98 310.29 93.23 310.25 94.96 C 309.98 104.24 304.63 113.10 306.78 122.49 C 307.97 127.01 312.73 129.02 316.79 130.28 C 325.37 132.54 334.33 131.69 343.08 131.39 C 350.39 130.83 357.78 130.61 364.94 128.90 C 367.88 128.26 370.47 126.67 372.81 124.84 C 372.43 131.98 375.48 139.18 381.66 143.04 C 368.97 148.71 355.71 154.53 346.12 164.94 C 340.48 171.88 335.37 179.25 329.48 186.00 C 328.38 180.60 325.58 175.77 321.68 171.93 C 327.28 163.60 332.10 154.80 336.73 145.90 C 332.99 149.81 329.24 153.71 325.40 157.51 C 320.83 162.01 317.76 167.72 313.59 172.54 C 312.07 174.24 310.22 175.72 307.99 176.34 C 304.42 175.19 301.85 172.17 299.76 169.20 C 295.80 163.36 292.55 157.07 288.85 151.06 C 284.11 143.06 279.16 134.81 277.81 125.45 C 275.52 111.38 274.20 97.07 269.52 83.51 Z" />
		<path fill="#f0b58b" opacity="1.00"
			d=" M 382.56 267.51 C 392.19 264.03 403.15 264.39 412.48 268.67 C 419.12 271.75 425.99 275.99 428.99 283.00 C 432.09 289.23 431.60 296.33 432.04 303.07 C 432.05 308.12 432.36 313.77 429.12 318.02 C 424.50 324.10 417.56 327.84 410.60 330.59 C 391.22 338.34 371.09 344.29 350.49 347.72 C 323.60 353.03 296.09 352.38 268.85 353.74 C 259.60 354.41 250.05 354.74 241.39 358.43 C 232.79 362.03 223.27 364.28 213.94 362.75 C 207.41 361.64 202.33 356.93 196.04 355.15 C 193.01 354.10 189.76 354.09 186.59 353.96 C 191.78 350.06 198.08 348.57 203.92 346.07 C 203.73 345.59 203.35 344.62 203.16 344.14 C 194.78 343.47 188.11 349.34 181.29 353.22 C 174.90 356.73 168.63 360.87 161.38 362.37 C 167.71 352.65 178.27 347.09 186.32 339.05 C 185.77 338.79 184.68 338.27 184.14 338.01 C 175.97 342.14 168.86 348.05 162.23 354.29 C 157.93 357.32 153.09 359.65 148.03 361.09 C 154.60 349.91 166.71 343.58 174.33 333.22 C 175.05 332.39 176.72 330.44 174.71 330.11 C 171.75 331.93 169.06 334.15 166.46 336.45 C 161.99 340.54 156.65 343.50 151.41 346.48 C 144.08 350.12 136.34 354.07 127.91 353.59 C 130.19 351.58 132.69 349.83 135.35 348.36 C 144.47 343.20 153.46 337.78 162.62 332.70 C 166.62 330.30 170.79 328.04 174.08 324.67 C 169.33 325.32 165.35 328.12 161.12 330.15 C 152.14 334.49 143.50 339.50 134.52 343.83 L 134.81 343.45 C 136.57 340.92 139.41 339.50 141.96 337.92 C 157.52 328.85 173.90 321.28 189.69 312.63 C 194.15 309.81 199.02 312.90 202.97 315.13 C 212.38 320.98 222.90 325.21 233.92 326.75 C 241.26 327.40 248.64 327.45 256.01 327.56 C 265.77 327.62 275.19 324.71 284.54 322.24 C 303.75 316.78 322.17 308.98 340.67 301.52 C 353.27 296.33 364.51 288.51 375.36 280.38 C 379.35 276.93 385.79 276.61 388.38 271.66 C 380.71 272.08 373.75 275.83 367.63 280.22 C 371.92 275.31 376.19 269.78 382.56 267.51 Z" />
		<path fill="#f0b58b" opacity="1.00"
			d=" M 251.60 669.62 C 257.95 660.75 259.92 649.77 264.90 640.20 C 267.38 653.76 275.74 665.25 284.30 675.69 C 297.83 691.32 313.92 704.93 332.25 714.59 C 326.57 716.99 320.83 719.26 314.95 721.14 C 308.61 723.26 301.90 726.35 298.39 732.36 C 295.63 737.14 296.47 742.82 295.85 748.07 C 293.34 750.80 289.64 752.03 286.22 753.19 C 275.60 756.23 264.34 756.60 253.42 755.31 C 247.35 754.49 241.14 753.34 235.77 750.25 C 232.65 748.63 232.18 744.80 231.19 741.80 C 229.54 735.08 226.52 728.74 225.65 721.84 C 225.07 717.21 224.17 712.33 225.78 707.80 C 227.82 702.01 231.49 696.99 235.05 692.06 C 240.89 684.83 246.27 677.24 251.60 669.62 Z" />
		<path fill="#f0b58b" opacity="1.00"
			d=" M 618.10 679.60 C 631.34 677.37 644.64 675.37 658.06 674.61 C 659.56 674.58 661.28 674.29 662.49 675.46 C 669.45 680.84 675.18 687.70 679.89 695.11 C 683.75 701.18 686.55 707.84 690.20 714.03 C 684.44 728.57 684.37 744.90 688.04 759.97 C 690.08 767.67 692.97 775.43 698.39 781.44 C 688.91 782.29 681.46 789.54 671.95 790.20 C 666.00 790.64 659.91 789.76 654.38 787.51 C 647.47 784.56 640.43 781.42 634.95 776.12 C 622.38 764.31 611.15 751.17 600.12 737.93 C 594.71 731.38 588.49 725.56 582.43 719.63 C 577.44 715.18 572.35 710.70 566.36 707.63 C 571.69 699.31 579.12 692.20 588.26 688.24 C 597.63 683.65 607.92 681.53 618.10 679.60 Z" />
	</g>
	<g id="#f11b27ff">
		<path fill="var(--shirt-color, grey)" opacity="1.00"
			d=" M 387.10 145.20 C 390.08 143.50 393.99 144.19 396.39 146.60 C 401.51 150.91 403.18 158.35 409.25 161.65 C 414.44 164.53 419.93 166.87 425.03 169.94 C 439.68 177.95 452.34 189.23 462.95 202.05 C 477.31 218.40 488.16 237.94 493.87 258.96 C 498.68 277.54 499.62 296.91 499.15 316.02 C 499.17 338.73 499.98 361.42 501.08 384.10 C 500.81 389.07 505.95 391.08 508.58 394.43 C 513.94 401.25 516.22 409.86 518.23 418.15 C 519.10 421.51 519.06 425.56 521.95 427.97 C 524.95 430.73 530.12 429.81 532.35 433.59 C 536.28 439.53 538.84 446.23 542.61 452.27 C 534.86 454.52 528.64 459.84 521.81 463.89 C 515.11 467.98 509.07 473.00 502.88 477.78 C 494.71 484.09 484.27 485.84 474.52 488.32 C 458.02 492.39 440.97 492.82 424.15 494.53 C 417.58 495.64 410.98 496.70 404.49 498.20 C 412.06 491.50 419.21 484.34 426.99 477.88 C 439.61 467.25 450.73 455.00 463.27 444.27 C 467.06 440.71 471.61 437.85 474.50 433.43 C 470.15 434.00 466.90 437.08 463.59 439.66 C 450.19 450.51 438.41 463.17 425.20 474.25 C 413.88 483.61 403.89 494.75 390.91 501.93 C 381.65 507.04 373.28 513.73 366.70 522.05 C 363.31 514.13 359.37 505.76 360.36 496.92 C 361.83 486.27 368.97 477.83 373.29 468.29 C 377.44 460.09 380.85 451.49 385.75 443.68 C 391.74 432.96 398.09 422.41 403.10 411.18 C 406.32 403.69 409.45 396.16 412.69 388.68 C 414.84 383.18 417.61 377.63 417.27 371.56 C 416.08 373.33 414.94 375.16 414.13 377.15 C 409.48 388.62 403.99 399.72 398.84 410.97 C 392.78 424.09 384.83 436.20 377.83 448.81 C 372.94 458.33 368.93 468.30 363.57 477.58 C 361.15 481.69 359.22 486.07 357.96 490.68 C 354.65 485.10 351.80 479.23 349.96 473.00 C 347.93 466.30 344.92 459.84 340.33 454.51 C 336.77 450.55 337.17 444.90 336.77 439.96 C 336.50 428.89 336.61 417.64 333.69 406.86 C 336.51 403.44 341.13 402.37 344.00 399.02 C 347.62 394.97 349.47 389.75 351.84 384.94 C 355.78 375.83 362.04 367.92 369.02 360.93 C 370.47 359.58 371.50 357.86 371.97 355.92 C 367.56 357.42 364.40 360.99 361.21 364.20 C 357.36 368.13 354.00 372.54 351.31 377.34 C 348.08 383.15 345.83 389.52 341.88 394.92 C 339.85 397.72 336.80 399.47 333.85 401.12 C 330.31 389.50 327.74 377.62 325.51 365.69 C 324.89 362.09 323.36 358.76 321.51 355.66 C 335.54 355.02 349.37 352.36 363.13 349.64 C 375.71 347.17 387.98 343.30 400.06 339.03 C 410.17 335.43 420.26 331.29 428.97 324.91 C 433.42 321.68 436.43 316.57 436.76 311.04 C 437.13 300.32 438.86 289.67 438.59 278.93 C 438.45 270.67 438.03 262.41 437.24 254.19 C 436.74 249.50 436.04 244.63 433.44 240.59 C 430.99 236.76 428.27 233.11 425.70 229.37 C 419.22 220.02 411.09 211.97 402.60 204.46 C 401.28 203.28 399.59 202.65 397.98 202.03 C 398.59 204.16 399.74 206.10 401.25 207.72 C 409.40 216.92 417.71 226.03 424.83 236.08 C 427.64 240.05 431.31 243.83 431.83 248.90 C 433.47 260.05 433.59 271.35 434.38 282.57 C 430.47 272.85 421.12 266.78 411.67 263.25 C 401.91 259.54 390.83 259.48 381.00 262.94 C 372.92 265.94 368.07 273.44 362.34 279.40 C 360.12 281.61 359.11 284.65 357.31 287.15 C 355.71 288.52 353.84 289.51 352.07 290.61 C 346.95 288.80 341.05 286.45 338.97 280.98 C 339.08 278.21 339.98 275.56 340.92 272.98 C 344.76 262.86 349.91 253.33 354.70 243.65 C 355.74 241.68 356.06 239.46 356.36 237.29 C 354.79 237.94 353.06 238.56 352.20 240.15 C 348.59 245.66 345.68 251.58 342.66 257.42 C 340.42 252.37 338.59 247.09 335.47 242.50 C 332.52 238.14 329.56 233.41 329.50 227.98 C 329.37 217.31 333.91 206.82 341.20 199.12 C 350.40 189.75 361.97 183.05 373.93 177.83 C 375.04 177.38 375.61 176.29 376.24 175.36 C 370.45 174.83 365.23 177.77 360.25 180.28 C 351.27 185.16 342.47 190.91 336.06 199.00 C 329.48 207.47 325.25 218.12 325.67 228.95 C 325.87 234.56 328.89 239.46 331.88 244.02 C 335.51 249.35 337.31 255.65 340.86 261.04 C 337.96 267.69 334.02 274.47 334.35 281.94 C 336.04 287.77 341.66 291.44 347.00 293.65 C 334.86 299.27 322.33 304.02 309.81 308.70 C 311.12 306.69 310.63 304.21 310.66 301.96 C 310.39 292.98 309.77 283.99 310.20 275.00 C 311.24 261.07 317.75 248.40 320.65 234.87 C 323.95 222.15 324.33 208.93 327.07 196.11 C 327.48 194.42 329.00 193.34 330.10 192.11 C 338.51 184.05 344.35 173.76 352.38 165.39 C 362.52 156.50 375.08 151.05 387.10 145.20 M 490.66 344.14 C 487.96 368.80 479.14 392.52 467.02 414.06 C 466.47 415.29 466.00 416.56 465.59 417.85 C 470.87 414.10 473.55 407.97 476.51 402.43 C 484.44 385.87 490.62 368.27 493.03 350.00 C 493.67 345.77 494.21 341.40 493.03 337.22 C 490.69 338.76 491.11 341.74 490.66 344.14 Z" />
	</g>
	<g id="#2b3dcdff">
		<path fill="var(--pants-color, grey)" opacity="1.00"
			d=" M 521.83 468.82 C 527.63 465.01 533.33 461.06 539.17 457.31 C 544.79 462.24 549.41 468.14 554.33 473.74 C 566.46 488.25 578.97 502.87 586.83 520.26 C 593.71 533.49 595.80 548.46 598.41 562.96 C 599.09 566.10 600.83 568.86 602.70 571.43 C 607.31 577.64 611.37 584.24 615.17 590.96 C 620.03 599.57 624.02 608.85 630.79 616.20 C 637.06 623.59 644.84 629.53 650.97 637.05 C 658.79 646.57 665.63 657.24 668.98 669.21 C 648.17 669.80 627.32 671.74 606.92 675.99 C 594.84 678.58 582.54 682.81 573.34 691.36 C 566.97 697.68 561.52 705.17 558.49 713.68 C 550.28 710.50 542.06 706.55 536.15 699.82 C 525.80 688.18 515.65 676.34 504.60 665.35 C 498.52 659.59 491.81 654.33 484.18 650.80 C 482.04 649.60 479.81 650.93 477.86 651.81 C 453.44 664.04 429.13 676.57 403.76 686.74 C 393.43 690.92 382.84 695.04 374.15 702.20 C 367.54 707.16 362.08 714.27 353.86 716.61 C 349.04 716.72 344.51 714.58 340.13 712.82 C 323.73 705.37 309.35 694.06 296.60 681.46 C 287.28 671.87 278.51 661.48 272.51 649.45 C 270.41 644.93 268.41 640.13 268.33 635.08 C 269.11 632.87 270.93 631.24 272.40 629.48 C 277.91 623.25 284.23 617.81 290.50 612.35 C 303.35 600.54 318.53 591.73 332.72 581.70 C 340.53 575.53 348.70 569.78 355.86 562.83 C 358.10 560.83 357.79 557.54 358.29 554.84 C 359.23 545.00 361.05 534.49 367.78 526.82 C 372.84 521.88 377.62 516.56 383.55 512.62 C 388.72 509.13 393.71 504.98 399.92 503.53 C 407.74 501.16 415.94 500.57 423.95 499.11 C 440.65 497.29 457.63 497.13 474.00 492.96 C 484.09 490.31 494.73 488.41 503.55 482.50 C 509.91 478.31 515.46 473.00 521.83 468.82 Z" />
		<path fill="var(--socks-color, grey)" opacity="1.00"
			d=" M 698.54 710.49 C 709.01 701.97 722.35 696.63 735.95 696.89 C 747.99 696.96 759.34 701.73 769.92 707.06 C 776.29 710.07 782.29 713.99 789.11 715.95 C 791.11 726.30 798.94 733.81 806.01 741.01 C 809.44 744.72 813.67 748.18 814.78 753.38 C 803.51 757.10 791.41 757.05 780.06 760.46 C 766.38 764.25 754.80 773.37 740.88 776.43 C 728.41 779.31 715.53 778.35 702.94 780.23 C 695.15 771.80 692.59 760.11 691.24 749.07 C 690.24 738.50 690.09 727.50 693.62 717.36 C 694.49 714.61 696.31 712.28 698.54 710.49 Z" />
		<path fill="var(--socks-color, grey)" opacity="1.00"
			d=" M 231.80 752.79 C 243.23 760.47 257.63 761.47 271.00 760.77 C 280.28 760.06 289.92 758.26 297.67 752.78 C 297.92 759.20 298.96 765.56 299.11 771.99 C 299.43 788.39 299.77 804.93 296.76 821.13 C 294.69 835.07 291.75 848.91 287.46 862.34 C 285.22 869.48 282.52 876.48 280.81 883.78 C 276.53 901.68 279.67 920.15 281.06 938.21 C 271.93 944.92 259.75 945.91 249.01 943.22 C 242.71 941.60 236.54 938.75 231.94 934.05 C 228.75 930.87 228.24 926.12 227.52 921.91 C 226.30 909.31 226.94 896.64 226.78 884.01 C 226.87 864.33 226.76 844.65 227.08 824.98 C 228.58 800.91 232.09 776.95 231.80 752.79 Z" />
	</g>
	<g id="#4d4d4dff">
		<path fill="#4d4d4d" opacity="1.00"
			d=" M 809.59 680.37 C 816.16 675.63 825.34 673.67 832.96 677.00 C 837.53 679.13 841.41 682.52 844.67 686.33 C 851.02 693.60 854.71 702.72 860.97 710.06 C 873.64 726.75 892.71 736.90 906.24 752.76 C 910.30 757.98 913.89 763.74 915.92 770.07 C 917.29 773.47 914.57 777.54 910.97 777.79 C 899.69 778.98 888.36 777.37 877.20 775.75 C 856.42 772.45 835.72 767.58 816.49 758.88 C 817.96 756.50 819.98 753.93 819.13 750.94 C 817.75 744.88 812.28 741.09 808.39 736.65 C 802.18 729.86 794.36 722.88 793.88 713.02 C 793.67 705.90 793.81 698.38 796.83 691.79 C 798.59 688.39 801.35 685.68 803.88 682.86 C 801.22 691.82 804.52 701.19 808.84 709.05 C 812.66 716.03 818.90 721.22 825.46 725.51 C 835.39 732.23 842.30 742.24 848.93 752.01 C 854.93 760.03 861.75 768.32 871.08 772.46 C 871.55 772.31 872.48 772.02 872.94 771.87 C 868.15 764.33 860.33 759.16 855.23 751.78 C 847.20 740.39 839.63 727.98 827.44 720.54 C 818.86 715.47 812.05 707.45 809.13 697.86 C 806.94 692.27 806.55 685.74 809.59 680.37 Z" />
		<path fill="#4d4d4d" opacity="1.00"
			d=" M 121.02 896.25 C 131.18 893.83 141.77 894.30 152.03 895.85 C 162.47 897.17 172.45 900.98 182.96 901.84 C 191.15 902.66 199.43 901.56 207.37 899.50 C 212.28 898.00 216.97 895.74 222.10 894.98 C 222.73 907.01 220.71 919.37 224.18 931.11 C 225.93 937.79 231.88 942.29 237.68 945.43 C 251.71 952.45 270.03 952.53 282.81 942.75 C 285.35 946.72 285.78 951.60 284.61 956.12 C 282.20 966.29 276.33 975.62 268.39 982.39 C 261.90 988.01 252.43 986.66 244.90 984.22 C 233.82 980.98 225.63 972.15 214.90 968.19 C 197.16 961.21 177.61 960.01 160.28 951.81 C 144.26 945.17 130.46 933.15 122.13 917.91 C 119.58 912.92 116.63 907.76 116.65 901.99 C 116.51 899.34 118.48 896.86 121.02 896.25 Z" />
	</g>
</svg>