<?xml version="1.0" encoding="UTF-8" ?>
<!DOCTYPE svg PUBLIC "-//W3C//DTD SVG 1.1//EN" "http://www.w3.org/Graphics/SVG/1.1/DTD/svg11.dtd">
<svg width="1000pt" height="1000pt" viewBox="0 0 1000 1000" version="1.1" xmlns="http://www.w3.org/2000/svg">
	<g id="#020202ff">
		<path fill="#020202" opacity="1.00"
			d=" M 651.14 31.19 C 658.50 25.90 667.08 22.20 675.98 20.53 C 689.40 18.37 703.06 23.99 712.62 33.30 C 726.49 46.51 733.94 65.13 737.10 83.73 C 741.23 109.93 736.96 138.39 721.31 160.29 C 728.29 169.14 737.09 176.53 746.80 182.22 C 760.01 189.57 773.76 196.67 784.23 207.84 C 794.81 219.21 803.07 232.44 811.80 245.23 C 816.62 252.34 820.70 259.98 826.35 266.51 C 834.17 275.42 841.95 284.36 849.45 293.55 C 851.53 296.20 853.66 298.92 854.69 302.18 C 852.64 303.52 850.21 304.03 847.94 304.79 C 855.05 309.87 859.24 317.71 864.34 324.58 C 874.73 340.54 886.32 355.74 898.97 369.98 C 917.57 390.47 935.31 412.57 945.34 438.66 C 950.01 451.38 956.03 463.55 962.70 475.34 C 968.85 485.86 978.02 494.14 985.12 503.97 C 987.52 507.53 989.36 511.48 990.68 515.58 C 992.54 521.61 991.88 528.04 991.28 534.22 C 990.30 542.15 988.20 550.59 982.23 556.30 C 976.26 562.07 967.96 564.11 960.69 567.67 C 952.00 571.92 942.56 574.69 934.55 580.24 C 933.75 577.62 932.24 574.85 933.22 572.08 C 934.06 569.34 935.88 567.08 937.51 564.78 C 937.37 560.28 938.11 555.60 940.97 551.97 C 946.33 544.82 952.39 538.23 958.63 531.84 C 954.98 528.62 951.01 525.79 947.44 522.49 C 935.76 510.98 931.71 494.22 921.01 481.96 C 916.96 476.96 911.58 473.34 906.65 469.30 C 894.62 459.60 881.34 451.47 869.94 440.99 C 860.19 431.96 851.58 421.64 844.76 410.22 C 838.99 401.06 834.24 391.19 827.18 382.90 C 822.69 377.69 818.25 372.43 813.36 367.60 C 808.51 362.71 803.13 358.34 798.81 352.96 C 794.26 357.09 789.25 361.19 783.09 362.51 C 774.80 364.15 766.24 363.37 757.99 361.85 C 753.87 361.06 750.70 358.06 747.79 355.25 C 743.10 350.52 738.50 345.61 732.90 341.94 C 731.49 341.14 729.09 340.24 728.06 341.99 C 715.94 357.13 704.77 373.26 690.09 386.13 C 680.77 395.46 667.96 399.78 657.39 407.38 C 650.73 412.37 643.54 416.70 637.69 422.68 C 624.91 435.56 613.66 450.03 599.45 461.44 C 593.44 466.41 586.72 470.59 579.34 473.18 C 582.20 491.07 584.17 509.25 589.71 526.57 C 593.08 535.39 596.38 544.39 601.69 552.27 C 605.28 557.75 611.55 560.40 616.04 564.98 C 621.74 570.41 625.61 577.41 631.14 582.99 C 636.66 588.77 642.08 595.72 642.50 604.02 C 642.43 610.15 637.64 614.60 634.07 619.06 C 629.17 624.78 625.10 631.14 620.56 637.14 C 621.74 647.37 624.14 657.41 625.59 667.61 C 628.07 684.96 632.52 702.38 630.54 720.02 C 629.67 728.48 625.19 735.89 621.53 743.37 C 619.59 747.27 618.04 751.54 618.44 755.98 C 619.94 775.97 622.56 795.96 621.78 816.05 C 621.62 826.14 619.20 835.98 618.20 846.00 C 615.35 868.99 612.64 892.29 615.15 915.45 C 626.10 924.69 637.20 933.78 648.73 942.30 C 656.91 948.26 664.75 955.04 674.38 958.62 C 682.38 961.93 691.74 961.85 698.86 967.21 C 703.36 970.35 706.52 976.32 704.79 981.79 C 702.78 985.32 698.41 986.39 694.85 987.71 C 671.81 994.30 647.19 996.82 623.52 992.26 C 615.64 991.07 607.87 989.15 599.90 988.62 C 590.32 987.75 580.71 989.41 571.14 988.39 C 562.53 987.66 553.37 986.24 546.47 980.61 C 538.39 974.29 535.55 962.83 538.35 953.17 C 540.55 945.30 543.86 937.09 550.58 932.02 C 549.07 916.30 550.99 900.48 549.15 884.78 C 547.24 868.77 541.35 853.63 538.09 837.90 C 534.70 821.45 529.66 804.94 530.95 787.97 C 531.45 779.66 536.22 772.28 536.42 763.93 C 536.82 751.96 535.68 740.01 535.27 728.05 C 534.20 717.18 530.91 706.55 526.25 696.70 C 517.94 680.67 501.72 671.13 491.03 656.97 C 486.82 650.29 480.62 644.98 477.34 637.69 C 473.96 630.18 471.96 622.13 470.24 614.10 C 468.74 604.83 465.67 595.56 459.84 588.08 C 455.46 582.23 450.74 576.59 445.15 571.85 C 435.07 562.97 423.66 554.91 417.06 542.88 C 414.19 538.04 413.78 532.34 412.83 526.94 C 412.04 522.26 408.57 518.77 406.12 514.91 C 403.77 511.70 402.39 507.94 400.38 504.53 C 399.16 502.16 396.08 502.35 393.87 501.74 C 386.64 500.68 380.07 496.45 375.94 490.45 C 344.53 495.53 312.95 501.20 281.01 500.72 C 265.28 500.86 249.67 502.90 233.97 503.47 C 218.79 504.58 203.91 508.09 189.39 512.52 C 183.81 514.28 177.69 514.51 172.57 517.57 C 160.42 524.24 146.86 528.12 133.10 529.63 C 115.21 531.67 98.56 538.85 81.69 544.68 C 66.72 549.95 50.38 552.50 34.68 549.16 C 27.45 547.84 19.95 544.36 16.85 537.24 C 10.62 523.79 16.24 507.98 25.12 497.12 C 35.69 484.91 51.29 478.89 66.29 474.10 C 81.12 468.80 96.99 467.55 112.60 466.87 C 132.75 464.98 153.27 465.91 173.07 461.14 C 184.10 458.09 195.08 454.82 205.85 450.93 C 219.88 445.40 233.15 438.17 246.85 431.89 C 267.65 422.80 288.71 413.97 310.84 408.64 C 335.94 403.12 361.58 400.73 387.08 397.82 C 385.46 381.04 391.35 364.60 398.70 349.79 C 397.39 350.01 396.09 350.23 394.80 350.46 C 393.02 352.38 391.01 354.04 388.81 355.45 C 386.36 360.38 380.46 363.87 375.13 361.15 C 373.05 361.37 370.95 361.37 368.88 361.18 C 364.17 363.39 358.90 361.05 356.24 356.85 C 351.46 349.44 346.62 341.75 344.85 332.98 C 344.00 329.06 344.89 324.70 347.63 321.70 C 350.83 317.94 355.80 315.66 357.76 310.90 C 359.10 308.17 359.71 305.02 361.68 302.64 C 365.26 299.81 370.65 302.35 374.16 299.22 C 376.54 297.22 379.60 296.75 382.62 296.69 C 384.94 289.62 385.88 282.18 388.37 275.15 C 392.38 263.12 398.91 251.87 407.60 242.60 C 417.35 231.69 426.40 219.60 439.29 212.16 C 443.01 208.50 443.64 202.70 447.32 198.87 C 447.53 194.76 448.74 190.65 451.41 187.45 C 458.58 178.61 467.36 171.27 475.91 163.82 C 483.81 156.94 492.25 150.71 501.04 145.03 C 507.31 140.96 514.37 138.29 521.55 136.34 C 536.31 132.07 552.34 131.08 567.18 135.59 C 571.36 136.70 575.50 138.59 579.92 138.38 C 590.95 137.51 602.02 137.19 613.08 136.68 C 619.24 136.16 625.26 134.66 631.43 134.19 C 624.43 117.17 621.03 98.41 623.78 80.08 C 626.19 61.13 635.38 42.47 651.14 31.19 M 642.72 68.72 C 637.95 72.57 634.95 77.99 631.99 83.24 C 635.88 86.21 638.87 90.34 643.08 92.85 C 652.19 94.92 661.73 93.86 670.93 95.43 C 672.56 95.71 673.74 96.99 674.62 98.30 C 676.72 101.48 678.39 104.97 679.30 108.69 C 670.06 109.09 660.81 110.08 651.55 109.78 C 649.29 115.63 645.39 120.52 641.47 125.30 C 640.87 128.15 641.46 131.09 641.49 133.96 C 641.99 139.31 641.19 144.84 642.86 150.03 C 644.31 155.36 647.20 160.14 650.27 164.68 C 655.61 172.40 662.92 179.16 671.98 182.12 C 680.76 185.09 690.80 183.63 698.55 178.62 C 704.07 174.86 708.27 169.58 712.48 164.48 C 723.72 151.66 729.98 135.09 732.65 118.41 C 730.08 115.91 727.56 113.37 725.26 110.62 C 716.47 110.16 707.68 109.68 698.90 109.08 C 695.10 108.80 691.24 108.71 687.56 107.67 C 687.89 103.86 687.48 99.74 689.06 96.18 C 699.38 95.62 709.75 96.44 720.09 96.53 C 717.92 85.27 714.94 74.19 712.68 62.94 C 705.46 69.21 697.53 75.31 693.84 84.48 C 689.98 77.70 688.32 69.54 691.16 62.06 C 687.88 64.41 684.44 66.70 681.98 69.96 C 678.72 74.12 676.97 79.19 673.96 83.50 C 671.57 76.32 674.18 68.87 675.51 61.76 C 672.96 63.77 670.22 65.62 668.23 68.22 C 664.63 72.70 663.04 78.34 659.83 83.06 C 654.93 76.45 656.47 67.62 656.32 59.93 C 651.84 62.95 646.69 64.97 642.72 68.72 M 499.85 151.80 C 493.74 155.96 487.77 160.34 482.17 165.18 C 472.21 173.71 462.17 182.28 453.78 192.41 C 465.11 194.89 475.79 200.00 484.87 207.23 C 500.35 219.59 512.31 236.61 517.63 255.78 C 523.67 249.45 528.62 241.92 536.05 237.06 C 541.89 233.30 548.19 229.93 555.06 228.57 C 558.85 227.86 563.15 227.40 566.38 229.99 C 561.49 231.83 556.20 232.34 551.41 234.45 C 545.07 237.36 539.01 240.98 533.80 245.65 C 538.18 245.17 542.57 244.62 546.99 244.84 C 558.83 245.28 570.18 250.36 579.30 257.77 C 581.45 259.28 582.07 261.85 582.29 264.33 C 577.86 262.03 574.10 258.63 569.62 256.42 C 557.35 249.97 543.01 248.57 529.45 250.68 C 525.76 254.90 521.95 259.25 516.65 261.46 C 513.14 253.94 510.46 246.02 506.16 238.88 C 494.28 241.80 484.10 248.82 474.45 256.05 C 472.98 262.31 470.45 268.39 466.39 273.44 C 454.20 288.94 438.71 301.45 422.72 312.82 C 423.23 314.25 423.75 315.68 424.26 317.12 C 428.76 313.32 433.14 309.38 437.77 305.73 C 445.00 300.06 453.57 296.51 462.01 293.05 C 471.83 289.01 481.91 285.47 492.31 283.23 C 507.81 280.13 523.94 278.03 539.64 280.86 C 535.94 283.45 531.27 282.57 527.04 282.88 C 507.55 283.85 488.10 287.65 470.00 295.04 C 462.78 298.02 455.45 300.83 448.54 304.50 C 442.59 307.62 437.47 312.00 432.04 315.90 C 441.71 312.70 451.76 309.84 462.06 310.44 C 482.22 311.29 500.99 319.63 518.96 328.11 C 534.23 335.23 548.49 344.35 564.03 350.90 C 567.54 352.62 571.79 353.73 573.82 357.41 C 567.97 357.63 562.84 354.42 557.54 352.45 C 540.88 345.14 525.41 335.39 508.61 328.38 C 491.39 320.82 472.98 313.93 453.85 315.38 C 443.78 315.94 434.22 319.35 424.56 321.92 C 424.82 327.43 425.29 332.95 425.17 338.48 C 430.66 335.64 436.96 335.42 443.00 336.00 C 451.87 336.69 459.82 341.20 467.22 345.80 C 485.93 357.76 502.55 372.60 520.83 385.15 C 528.23 390.57 535.87 396.33 540.57 404.39 C 545.86 414.40 548.79 425.68 548.88 437.02 C 549.14 439.61 548.71 443.05 551.38 444.57 C 561.65 451.18 571.55 458.93 578.07 469.45 C 586.67 464.97 594.73 459.47 601.78 452.80 C 614.09 441.74 624.34 428.65 636.34 417.28 C 641.72 412.17 648.18 408.47 654.14 404.12 C 663.99 397.06 675.59 392.76 685.05 385.16 C 699.43 371.65 710.90 355.51 723.15 340.13 C 728.65 333.01 737.71 330.48 745.83 327.62 C 752.52 325.53 759.08 322.83 766.01 321.64 C 768.04 321.08 769.86 322.19 771.46 323.31 C 766.46 324.91 761.42 326.41 756.53 328.32 C 748.85 331.28 740.86 333.56 733.58 337.47 C 740.73 337.35 747.94 337.32 754.98 335.86 C 763.29 334.30 772.05 335.00 779.92 338.17 C 784.52 340.08 789.34 342.26 792.38 346.41 C 785.17 345.83 779.02 341.25 771.80 340.54 C 761.62 338.53 751.71 342.86 741.54 342.22 C 746.37 346.11 750.35 350.90 754.78 355.22 C 757.87 358.58 762.75 358.64 766.98 359.07 C 773.81 359.37 781.15 359.81 787.38 356.49 C 793.32 353.31 797.76 348.10 802.28 343.24 C 808.72 336.06 815.26 328.97 821.87 321.96 C 829.73 313.26 837.58 303.12 849.52 300.10 C 840.58 290.80 831.89 281.26 823.36 271.59 C 817.77 265.33 813.57 258.03 809.14 250.95 C 800.61 238.21 792.60 225.05 782.50 213.46 C 775.22 205.24 766.19 198.80 756.65 193.47 C 742.33 185.93 727.93 177.21 718.44 163.73 C 716.45 166.09 713.96 168.19 712.85 171.13 C 712.44 178.33 715.13 185.21 716.55 192.17 C 717.68 198.18 715.27 204.16 712.12 209.16 C 706.70 217.50 699.54 224.78 690.96 229.87 C 685.03 233.35 678.97 237.16 672.02 238.10 C 662.23 239.61 652.21 235.56 645.19 228.81 C 639.23 222.07 636.28 213.42 632.81 205.28 C 630.29 199.43 628.48 193.28 627.47 187.00 C 626.83 183.33 627.97 179.69 629.35 176.34 C 631.92 170.14 633.79 163.65 634.91 157.03 C 635.64 150.62 636.09 143.80 632.99 137.89 C 625.31 139.24 617.86 142.04 610.00 142.21 C 599.98 142.67 589.95 143.06 579.94 143.51 C 575.36 143.67 571.12 141.70 566.84 140.38 C 558.54 137.47 549.59 136.78 540.87 137.44 C 526.34 138.85 511.82 143.26 499.85 151.80 M 638.80 152.43 C 638.37 158.63 637.96 164.90 635.96 170.83 C 634.63 176.20 630.92 181.22 631.79 186.95 C 633.86 198.07 638.68 208.46 643.53 218.60 C 647.60 227.64 657.36 233.07 667.03 233.51 C 672.12 233.80 676.93 231.74 681.34 229.43 C 688.67 225.81 695.57 221.17 701.18 215.19 C 705.78 210.33 710.31 205.00 712.34 198.51 C 713.62 194.71 712.26 190.78 711.40 187.05 C 710.30 182.82 709.88 178.47 709.44 174.13 C 704.10 179.94 697.56 184.90 689.85 187.00 C 681.08 189.85 671.31 188.26 663.46 183.58 C 651.73 176.70 643.52 164.99 638.80 152.43 M 446.54 207.52 C 445.03 210.49 443.85 213.94 440.97 215.88 C 428.18 224.25 419.38 237.04 409.19 248.16 C 399.48 260.37 391.95 274.60 388.96 290.01 C 388.42 293.02 387.38 295.90 386.29 298.75 C 389.17 299.46 392.08 300.42 395.08 300.25 C 398.20 299.47 401.32 297.03 404.63 298.48 C 408.18 299.49 410.50 302.42 413.24 304.67 C 415.83 306.35 418.60 307.76 420.92 309.84 C 433.49 299.48 446.29 289.28 457.28 277.19 C 461.26 272.72 465.27 268.07 467.51 262.44 C 470.89 254.04 470.93 244.85 472.33 236.04 C 472.04 233.53 475.83 234.04 475.67 236.23 C 476.42 240.86 475.54 245.57 475.26 250.21 C 483.23 242.66 493.14 236.87 504.22 235.66 C 492.68 217.25 474.66 202.15 453.09 197.46 C 450.64 200.63 448.17 203.84 446.54 207.52 M 373.11 304.84 C 370.26 305.34 367.34 305.03 364.46 305.26 C 362.63 309.39 361.67 314.10 358.41 317.43 C 355.08 321.14 349.42 323.47 348.63 328.92 C 348.80 336.71 352.91 343.69 356.70 350.27 C 358.77 354.26 361.81 358.66 366.89 358.45 C 364.40 353.08 361.67 347.77 360.43 341.94 C 359.20 335.96 356.97 330.08 356.99 323.93 C 356.91 322.12 358.65 319.19 360.54 321.16 C 362.51 329.64 364.06 338.25 366.69 346.58 C 368.21 350.78 369.79 355.17 372.94 358.48 C 371.89 355.03 370.22 351.74 369.93 348.10 C 369.03 335.82 370.91 323.58 372.61 311.45 C 373.12 309.88 373.07 306.14 375.51 308.07 C 376.66 318.02 374.64 328.01 374.20 337.96 C 373.87 345.04 374.10 352.88 379.15 358.43 C 380.88 357.65 382.60 356.83 384.31 355.98 C 382.02 354.57 379.56 352.76 379.35 349.83 C 378.42 340.07 381.49 330.36 385.60 321.60 C 387.35 318.21 388.82 314.33 392.20 312.20 C 389.89 325.21 381.49 337.52 384.34 351.19 C 385.90 350.85 387.55 350.72 389.00 349.99 C 390.48 348.59 390.99 346.51 391.77 344.70 C 395.28 334.61 401.81 325.53 410.35 319.11 C 410.75 319.19 411.54 319.34 411.94 319.42 C 411.55 322.85 408.70 325.17 406.73 327.76 C 402.04 333.10 398.62 339.42 396.08 346.04 C 403.23 345.24 410.48 345.55 417.57 344.23 C 419.50 343.88 421.83 342.41 421.42 340.14 C 421.02 333.37 420.12 326.63 419.75 319.86 C 419.56 315.54 416.61 311.96 412.89 310.03 C 408.80 307.83 406.75 302.90 402.20 301.48 C 400.11 302.28 398.22 303.60 396.03 304.14 C 390.35 304.86 385.29 301.68 379.91 300.62 C 377.45 301.72 375.65 303.91 373.11 304.84 M 823.54 326.58 C 815.72 334.20 808.56 342.45 801.09 350.40 C 812.65 359.25 822.44 370.14 831.74 381.28 C 838.55 389.77 843.55 399.50 849.35 408.67 C 858.49 423.69 870.74 436.73 884.85 447.18 C 896.77 455.88 908.84 464.41 920.03 474.05 C 925.73 479.48 930.16 486.09 933.82 493.02 C 939.29 502.44 943.21 513.11 951.52 520.54 C 956.91 525.02 962.48 529.34 967.21 534.55 C 968.03 529.04 967.40 523.24 964.65 518.34 C 960.07 509.96 953.41 502.67 950.39 493.48 C 953.87 495.66 956.50 498.86 958.70 502.29 C 963.98 509.85 970.86 517.23 971.61 526.88 C 971.85 531.01 972.07 535.99 968.99 539.21 C 965.62 540.43 963.67 536.54 961.49 534.68 C 955.73 540.89 950.11 547.24 944.81 553.85 C 942.85 556.25 941.71 559.16 940.74 562.08 C 954.69 555.25 965.83 544.30 977.88 534.75 C 972.43 544.08 964.18 551.22 955.71 557.71 C 951.15 561.26 945.64 563.43 941.31 567.29 C 938.86 569.43 937.39 572.38 936.22 575.36 C 947.57 568.82 959.78 564.00 971.72 558.67 C 977.24 556.22 981.80 551.73 984.35 546.27 C 986.71 539.80 986.83 532.79 986.87 525.99 C 987.14 518.30 983.67 510.94 978.87 505.11 C 973.70 499.28 968.66 493.34 963.68 487.36 C 957.66 479.89 953.72 471.08 949.41 462.59 C 942.99 450.16 939.31 436.53 932.92 424.09 C 929.18 416.74 924.52 409.93 919.88 403.15 C 911.76 391.15 901.87 380.51 892.42 369.56 C 881.37 356.45 870.83 342.88 861.68 328.36 C 856.27 320.87 851.61 312.69 844.76 306.37 C 836.53 311.80 830.39 319.63 823.54 326.58 M 427.26 342.22 C 424.00 343.76 421.96 347.33 418.27 348.04 C 413.65 348.95 408.92 349.10 404.23 349.50 C 396.55 364.34 390.68 380.64 390.87 397.56 C 393.23 397.42 395.59 397.27 397.96 397.12 C 407.28 383.80 422.10 375.33 437.35 370.53 C 453.88 365.72 472.77 367.07 487.39 376.65 C 498.20 383.63 505.71 395.28 507.90 407.93 C 510.90 423.94 505.93 440.59 496.91 453.87 C 490.82 462.55 484.55 471.67 475.23 477.19 C 464.15 483.85 450.64 484.77 438.08 483.36 C 426.04 481.60 413.04 478.54 401.42 483.69 C 394.33 486.49 386.92 488.33 379.47 489.87 C 383.28 492.72 387.21 495.76 391.98 496.76 C 395.40 497.67 399.29 497.59 402.25 499.77 C 404.63 501.98 405.52 505.25 406.99 508.06 C 409.58 513.82 414.74 518.15 416.49 524.34 C 417.89 529.68 417.74 535.50 420.50 540.43 C 426.70 551.83 437.50 559.47 447.03 567.87 C 453.39 573.22 458.87 579.53 463.72 586.27 C 469.53 594.07 472.94 603.48 474.35 613.06 C 476.62 624.29 479.20 635.95 486.44 645.17 C 487.20 640.17 488.54 634.95 492.26 631.28 C 500.17 623.00 511.60 619.28 522.62 617.42 C 543.27 613.68 564.33 613.33 585.03 609.99 C 595.09 608.82 604.82 604.83 615.05 605.31 C 617.61 605.18 618.83 607.80 619.07 609.97 C 620.08 617.01 618.98 624.16 619.72 631.23 C 623.04 625.80 626.40 620.37 630.56 615.54 C 633.58 611.67 638.47 607.62 636.95 602.12 C 635.08 595.50 630.35 590.23 625.78 585.29 C 621.04 580.25 617.68 574.08 612.77 569.19 C 608.52 564.72 602.55 562.24 598.73 557.31 C 593.20 550.19 590.00 541.66 586.63 533.39 C 581.55 521.11 579.83 507.84 577.49 494.86 C 575.69 484.34 576.12 472.60 569.19 463.78 C 563.09 457.39 555.51 452.68 548.27 447.73 C 544.39 445.17 544.83 440.04 544.62 436.00 C 544.59 426.12 541.86 416.40 537.39 407.65 C 532.98 399.67 525.56 393.98 518.33 388.69 C 500.89 376.58 484.87 362.56 467.21 350.76 C 459.62 345.76 451.41 340.71 442.09 340.19 C 437.11 339.89 431.74 339.60 427.26 342.22 M 428.17 379.11 C 418.98 382.94 411.39 389.69 404.68 396.90 C 413.66 396.63 422.58 394.92 431.59 395.25 C 428.82 399.28 423.46 399.45 419.08 400.14 C 409.47 401.59 399.74 401.60 390.10 402.65 C 379.49 403.38 368.97 404.91 358.40 406.02 C 367.13 416.51 372.49 429.52 374.80 442.90 C 377.34 457.75 376.34 473.63 369.60 487.30 C 382.11 485.14 394.89 482.62 405.88 475.93 C 418.22 473.70 430.74 477.26 443.07 478.37 C 450.83 478.81 458.81 478.06 466.16 475.44 C 472.07 473.51 476.10 468.58 480.55 464.55 C 487.74 457.87 494.01 450.05 497.91 440.98 C 503.82 428.15 505.21 412.74 499.50 399.58 C 494.65 388.11 484.42 379.25 472.57 375.59 C 458.03 370.80 442.00 373.14 428.17 379.11 M 327.03 410.12 C 312.21 412.14 297.81 416.48 283.87 421.81 C 268.56 428.00 253.16 434.01 238.28 441.20 C 226.24 446.44 214.95 453.44 202.39 457.45 C 187.91 462.13 173.18 466.21 158.10 468.39 C 155.27 468.93 152.26 469.21 149.74 470.73 C 139.69 477.34 135.70 492.23 142.42 502.53 C 147.57 510.56 157.98 512.86 166.91 512.26 C 179.23 510.98 190.89 506.47 202.95 503.94 C 216.68 500.27 230.87 498.64 245.06 498.41 C 259.34 497.17 273.66 496.16 288.01 496.33 C 297.75 496.53 307.46 495.53 317.14 494.63 C 333.47 492.81 349.78 490.66 365.97 487.83 C 377.41 461.34 372.92 428.19 353.61 406.49 C 344.72 407.48 335.86 408.70 327.03 410.12 M 126.70 470.72 C 107.87 472.37 88.53 471.53 70.33 477.46 C 58.55 481.35 46.08 484.44 35.97 491.98 C 27.06 498.92 21.01 509.41 19.33 520.57 C 18.54 526.76 19.30 533.64 23.45 538.57 C 27.29 543.14 33.37 544.90 39.10 545.51 C 49.67 546.52 60.38 545.24 70.62 542.54 C 86.75 538.19 102.08 531.27 118.37 527.45 C 127.07 525.10 136.17 524.95 144.89 522.72 C 150.96 521.30 156.79 519.08 162.61 516.89 C 156.91 516.06 151.27 514.52 146.22 511.68 C 137.75 507.33 133.31 497.20 134.39 487.94 C 134.97 480.87 138.77 474.55 143.63 469.55 C 138.00 470.18 132.35 470.43 126.70 470.72 M 582.10 614.68 C 566.77 617.32 551.18 617.71 535.79 619.85 C 521.50 621.85 505.37 623.80 495.08 635.06 C 491.36 639.26 490.44 645.53 492.24 650.75 C 496.20 656.67 501.68 661.37 506.69 666.37 C 515.41 674.29 524.07 682.68 529.90 693.03 C 534.24 701.45 536.95 710.63 538.81 719.88 C 540.48 727.92 539.91 736.17 540.48 744.32 C 554.27 738.74 569.68 739.08 584.15 741.32 C 594.35 743.03 604.75 746.01 612.89 752.66 C 614.89 741.01 624.05 731.95 625.53 720.13 C 627.30 705.36 624.27 690.61 622.11 676.04 C 620.23 662.80 618.00 649.60 615.21 636.51 C 613.62 626.98 615.03 617.29 614.95 607.69 C 603.94 609.76 593.23 613.26 582.10 614.68 M 541.08 748.81 C 541.49 757.33 542.55 766.23 539.44 774.41 C 537.22 780.38 535.28 786.59 535.47 793.04 C 535.57 809.22 540.08 824.91 543.52 840.60 C 545.85 851.33 549.63 861.71 551.60 872.53 C 555.96 891.48 553.75 911.02 554.11 930.26 C 560.97 929.81 567.05 934.13 573.92 933.54 C 580.82 933.24 586.77 929.11 591.95 924.90 C 595.54 921.88 598.43 918.11 602.12 915.21 C 604.66 913.17 608.07 913.58 611.11 913.53 C 608.71 895.39 610.48 877.03 612.26 858.91 C 613.95 842.27 618.41 825.85 617.58 809.02 C 617.14 794.97 615.22 781.02 614.09 767.02 C 613.45 763.79 614.40 759.73 611.80 757.25 C 605.46 751.64 597.10 749.09 589.07 747.01 C 573.36 743.48 556.26 742.64 541.08 748.81 M 605.46 919.26 C 601.58 922.06 598.68 925.98 594.94 928.95 C 587.94 934.55 579.29 939.32 570.02 938.18 C 564.93 937.95 560.33 934.78 555.21 935.22 C 551.61 937.35 549.79 941.37 547.96 944.96 C 544.48 952.20 541.89 960.67 544.45 968.61 C 546.87 974.07 551.30 979.07 557.17 980.82 C 572.80 985.34 589.19 980.98 605.02 983.86 C 618.30 986.07 631.43 989.72 644.98 989.90 C 658.65 990.14 672.37 988.70 685.71 985.64 C 690.94 984.28 696.68 983.43 700.98 979.89 C 700.96 976.55 699.28 973.34 696.58 971.39 C 691.23 967.31 684.30 966.72 678.01 964.98 C 668.34 962.50 659.76 957.08 651.93 951.05 C 639.49 941.56 626.58 932.62 615.16 921.88 C 612.68 919.50 608.80 917.17 605.46 919.26 Z" />
		<path fill="#020202" opacity="1.00"
			d=" M 678.94 131.95 C 679.40 125.81 678.93 119.60 680.01 113.52 C 683.75 118.93 681.66 126.70 686.00 131.92 C 687.73 133.81 690.53 135.13 690.95 137.91 C 688.07 141.15 684.36 143.58 680.95 146.22 C 680.52 146.14 679.67 145.98 679.24 145.89 C 678.27 141.31 678.91 136.59 678.94 131.95 Z" />
		<path fill="#020202" opacity="1.00"
			d=" M 746.86 262.96 C 747.36 261.28 748.34 259.81 749.41 258.44 C 750.91 265.96 747.02 273.02 743.16 279.16 C 737.80 287.58 730.65 294.62 724.17 302.14 C 716.63 310.92 707.56 318.26 700.35 327.34 C 697.16 331.15 694.46 335.44 690.51 338.55 C 690.56 333.01 694.85 329.08 697.85 324.90 C 704.89 315.35 714.05 307.71 721.74 298.73 C 731.35 287.83 742.50 277.26 746.86 262.96 Z" />
		<path fill="#020202" opacity="1.00"
			d=" M 457.86 334.96 C 458.38 334.55 459.43 333.74 459.95 333.34 C 468.78 334.16 477.15 337.52 485.30 340.82 C 497.86 345.82 509.49 352.80 520.63 360.38 C 534.33 369.74 548.65 378.27 563.72 385.22 C 573.10 388.72 582.74 393.24 593.01 392.10 C 601.29 391.18 609.74 389.97 617.30 386.26 C 623.73 383.13 630.15 379.93 636.29 376.24 C 641.58 373.12 645.78 368.28 651.64 366.14 C 647.36 373.83 639.73 378.97 632.32 383.35 C 623.95 387.96 615.62 393.16 606.10 394.95 C 597.88 396.51 589.35 398.27 581.03 396.39 C 568.65 393.44 556.85 388.42 545.79 382.17 C 528.36 373.56 513.56 360.65 496.43 351.53 C 488.17 347.26 479.62 343.56 471.00 340.10 C 466.67 338.24 461.78 337.67 457.86 334.96 Z" />
	</g>
	<g id="#f0b58bff">
		<path fill="#f0b58b" opacity="1.00"
			d=" M 642.72 68.72 C 646.69 64.97 651.84 62.95 656.32 59.93 C 656.47 67.62 654.93 76.45 659.83 83.06 C 663.04 78.34 664.63 72.70 668.23 68.22 C 670.22 65.62 672.96 63.77 675.51 61.76 C 674.18 68.87 671.57 76.32 673.96 83.50 C 676.97 79.19 678.72 74.12 681.98 69.96 C 684.44 66.70 687.88 64.41 691.16 62.06 C 688.32 69.54 689.98 77.70 693.84 84.48 C 697.53 75.31 705.46 69.21 712.68 62.94 C 714.94 74.19 717.92 85.27 720.09 96.53 C 709.75 96.44 699.38 95.62 689.06 96.18 C 687.48 99.74 687.89 103.86 687.56 107.67 C 691.24 108.71 695.10 108.80 698.90 109.08 C 707.68 109.68 716.47 110.16 725.26 110.62 C 727.56 113.37 730.08 115.91 732.65 118.41 C 729.98 135.09 723.72 151.66 712.48 164.48 C 708.27 169.58 704.07 174.86 698.55 178.62 C 690.80 183.63 680.76 185.09 671.98 182.12 C 662.92 179.16 655.61 172.40 650.27 164.68 C 647.20 160.14 644.31 155.36 642.86 150.03 C 641.19 144.84 641.99 139.31 641.49 133.96 C 641.46 131.09 640.87 128.15 641.47 125.30 C 645.39 120.52 649.29 115.63 651.55 109.78 C 660.81 110.08 670.06 109.09 679.30 108.69 C 678.39 104.97 676.72 101.48 674.62 98.30 C 673.74 96.99 672.56 95.71 670.93 95.43 C 661.73 93.86 652.19 94.92 643.08 92.85 C 638.87 90.34 635.88 86.21 631.99 83.24 C 634.95 77.99 637.95 72.57 642.72 68.72 M 678.94 131.95 C 678.91 136.59 678.27 141.31 679.24 145.89 C 679.67 145.98 680.52 146.14 680.95 146.22 C 684.36 143.58 688.07 141.15 690.95 137.91 C 690.53 135.13 687.73 133.81 686.00 131.92 C 681.66 126.70 683.75 118.93 680.01 113.52 C 678.93 119.60 679.40 125.81 678.94 131.95 Z" />
		<path fill="#f0b58b" opacity="1.00"
			d=" M 638.80 152.43 C 643.52 164.99 651.73 176.70 663.46 183.58 C 671.31 188.26 681.08 189.85 689.85 187.00 C 697.56 184.90 704.10 179.94 709.44 174.13 C 709.88 178.47 710.30 182.82 711.40 187.05 C 712.26 190.78 713.62 194.71 712.34 198.51 C 710.31 205.00 705.78 210.33 701.18 215.19 C 695.57 221.17 688.67 225.81 681.34 229.43 C 676.93 231.74 672.12 233.80 667.03 233.51 C 657.36 233.07 647.60 227.64 643.53 218.60 C 638.68 208.46 633.86 198.07 631.79 186.95 C 630.92 181.22 634.63 176.20 635.96 170.83 C 637.96 164.90 638.37 158.63 638.80 152.43 Z" />
		<path fill="#f0b58b" opacity="1.00"
			d=" M 446.54 207.52 C 448.17 203.84 450.64 200.63 453.09 197.46 C 474.66 202.15 492.68 217.25 504.22 235.66 C 493.14 236.87 483.23 242.66 475.26 250.21 C 475.54 245.57 476.42 240.86 475.67 236.23 C 475.83 234.04 472.04 233.53 472.33 236.04 C 470.93 244.85 470.89 254.04 467.51 262.44 C 465.27 268.07 461.26 272.72 457.28 277.19 C 446.29 289.28 433.49 299.48 420.92 309.84 C 418.60 307.76 415.83 306.35 413.24 304.67 C 410.50 302.42 408.18 299.49 404.63 298.48 C 401.32 297.03 398.20 299.47 395.08 300.25 C 392.08 300.42 389.17 299.46 386.29 298.75 C 387.38 295.90 388.42 293.02 388.96 290.01 C 391.95 274.60 399.48 260.37 409.19 248.16 C 419.38 237.04 428.18 224.25 440.97 215.88 C 443.85 213.94 445.03 210.49 446.54 207.52 Z" />
		<path fill="#f0b58b" opacity="1.00"
			d=" M 373.11 304.84 C 375.65 303.91 377.45 301.72 379.91 300.62 C 385.29 301.68 390.35 304.86 396.03 304.14 C 398.22 303.60 400.11 302.28 402.20 301.48 C 406.75 302.90 408.80 307.83 412.89 310.03 C 416.61 311.96 419.56 315.54 419.75 319.86 C 420.12 326.63 421.02 333.37 421.42 340.14 C 421.83 342.41 419.50 343.88 417.57 344.23 C 410.48 345.55 403.23 345.24 396.08 346.04 C 398.62 339.42 402.04 333.10 406.73 327.76 C 408.70 325.17 411.55 322.85 411.94 319.42 C 411.54 319.34 410.75 319.19 410.35 319.11 C 401.81 325.53 395.28 334.61 391.77 344.70 C 390.99 346.51 390.48 348.59 389.00 349.99 C 387.55 350.72 385.90 350.85 384.34 351.19 C 381.49 337.52 389.89 325.21 392.20 312.20 C 388.82 314.33 387.35 318.21 385.60 321.60 C 381.49 330.36 378.42 340.07 379.35 349.83 C 379.56 352.76 382.02 354.57 384.31 355.98 C 382.60 356.83 380.88 357.65 379.15 358.43 C 374.10 352.88 373.87 345.04 374.20 337.96 C 374.64 328.01 376.66 318.02 375.51 308.07 C 373.07 306.14 373.12 309.88 372.61 311.45 C 370.91 323.58 369.03 335.82 369.93 348.10 C 370.22 351.74 371.89 355.03 372.94 358.48 C 369.79 355.17 368.21 350.78 366.69 346.58 C 364.06 338.25 362.51 329.64 360.54 321.16 C 358.65 319.19 356.91 322.12 356.99 323.93 C 356.97 330.08 359.20 335.96 360.43 341.94 C 361.67 347.77 364.40 353.08 366.89 358.45 C 361.81 358.66 358.77 354.26 356.70 350.27 C 352.91 343.69 348.80 336.71 348.63 328.92 C 349.42 323.47 355.08 321.14 358.41 317.43 C 361.67 314.10 362.63 309.39 364.46 305.26 C 367.34 305.03 370.26 305.34 373.11 304.84 Z" />
		<path fill="#f0b58b" opacity="1.00"
			d=" M 823.54 326.58 C 830.39 319.63 836.53 311.80 844.76 306.37 C 851.61 312.69 856.27 320.87 861.68 328.36 C 870.83 342.88 881.37 356.45 892.42 369.56 C 901.87 380.51 911.76 391.15 919.88 403.15 C 924.52 409.93 929.18 416.74 932.92 424.09 C 939.31 436.53 942.99 450.16 949.41 462.59 C 953.72 471.08 957.66 479.89 963.68 487.36 C 968.66 493.34 973.70 499.28 978.87 505.11 C 983.67 510.94 987.14 518.30 986.87 525.99 C 986.83 532.79 986.71 539.80 984.35 546.27 C 981.80 551.73 977.24 556.22 971.72 558.67 C 959.78 564.00 947.57 568.82 936.22 575.36 C 937.39 572.38 938.86 569.43 941.31 567.29 C 945.64 563.43 951.15 561.26 955.71 557.71 C 964.18 551.22 972.43 544.08 977.88 534.75 C 965.83 544.30 954.69 555.25 940.74 562.08 C 941.71 559.16 942.85 556.25 944.81 553.85 C 950.11 547.24 955.73 540.89 961.49 534.68 C 963.67 536.54 965.62 540.43 968.99 539.21 C 972.07 535.99 971.85 531.01 971.61 526.88 C 970.86 517.23 963.98 509.85 958.70 502.29 C 956.50 498.86 953.87 495.66 950.39 493.48 C 953.41 502.67 960.07 509.96 964.65 518.34 C 967.40 523.24 968.03 529.04 967.21 534.55 C 962.48 529.34 956.91 525.02 951.52 520.54 C 943.21 513.11 939.29 502.44 933.82 493.02 C 930.16 486.09 925.73 479.48 920.03 474.05 C 908.84 464.41 896.77 455.88 884.85 447.18 C 870.74 436.73 858.49 423.69 849.35 408.67 C 843.55 399.50 838.55 389.77 831.74 381.28 C 822.44 370.14 812.65 359.25 801.09 350.40 C 808.56 342.45 815.72 334.20 823.54 326.58 Z" />
		<path fill="#f0b58b" opacity="1.00"
			d=" M 428.17 379.11 C 442.00 373.14 458.03 370.80 472.57 375.59 C 484.42 379.25 494.65 388.11 499.50 399.58 C 505.21 412.74 503.82 428.15 497.91 440.98 C 494.01 450.05 487.74 457.87 480.55 464.55 C 476.10 468.58 472.07 473.51 466.16 475.44 C 458.81 478.06 450.83 478.81 443.07 478.37 C 430.74 477.26 418.22 473.70 405.88 475.93 C 394.89 482.62 382.11 485.14 369.60 487.30 C 376.34 473.63 377.34 457.75 374.80 442.90 C 372.49 429.52 367.13 416.51 358.40 406.02 C 368.97 404.91 379.49 403.38 390.10 402.65 C 399.74 401.60 409.47 401.59 419.08 400.14 C 423.46 399.45 428.82 399.28 431.59 395.25 C 422.58 394.92 413.66 396.63 404.68 396.90 C 411.39 389.69 418.98 382.94 428.17 379.11 Z" />
		<path fill="#f0b58b" opacity="1.00"
			d=" M 582.10 614.68 C 593.23 613.26 603.94 609.76 614.95 607.69 C 615.03 617.29 613.62 626.98 615.21 636.51 C 618.00 649.60 620.23 662.80 622.11 676.04 C 624.27 690.61 627.30 705.36 625.53 720.13 C 624.05 731.95 614.89 741.01 612.89 752.66 C 604.75 746.01 594.35 743.03 584.15 741.32 C 569.68 739.08 554.27 738.74 540.48 744.32 C 539.91 736.17 540.48 727.92 538.81 719.88 C 536.95 710.63 534.24 701.45 529.90 693.03 C 524.07 682.68 515.41 674.29 506.69 666.37 C 501.68 661.37 496.20 656.67 492.24 650.75 C 490.44 645.53 491.36 639.26 495.08 635.06 C 505.37 623.80 521.50 621.85 535.79 619.85 C 551.18 617.71 566.77 617.32 582.10 614.68 Z" />
	</g>
	<g id="#f11b27ff">
		<path fill="var(--shirt-color, grey)" opacity="1.00"
			d=" M 499.85 151.80 C 511.82 143.26 526.34 138.85 540.87 137.44 C 549.59 136.78 558.54 137.47 566.84 140.38 C 571.12 141.70 575.36 143.67 579.94 143.51 C 589.95 143.06 599.98 142.67 610.00 142.21 C 617.86 142.04 625.31 139.24 632.99 137.89 C 636.09 143.80 635.64 150.62 634.91 157.03 C 633.79 163.65 631.92 170.14 629.35 176.34 C 627.97 179.69 626.83 183.33 627.47 187.00 C 628.48 193.28 630.29 199.43 632.81 205.28 C 636.28 213.42 639.23 222.07 645.19 228.81 C 652.21 235.56 662.23 239.61 672.02 238.10 C 678.97 237.16 685.03 233.35 690.96 229.87 C 699.54 224.78 706.70 217.50 712.12 209.16 C 715.27 204.16 717.68 198.18 716.55 192.17 C 715.13 185.21 712.44 178.33 712.85 171.13 C 713.96 168.19 716.45 166.09 718.44 163.73 C 727.93 177.21 742.33 185.93 756.65 193.47 C 766.19 198.80 775.22 205.24 782.50 213.46 C 792.60 225.05 800.61 238.21 809.14 250.95 C 813.57 258.03 817.77 265.33 823.36 271.59 C 831.89 281.26 840.58 290.80 849.52 300.10 C 837.58 303.12 829.73 313.26 821.87 321.96 C 815.26 328.97 808.72 336.06 802.28 343.24 C 797.76 348.10 793.32 353.31 787.38 356.49 C 781.15 359.81 773.81 359.37 766.98 359.07 C 762.75 358.64 757.87 358.58 754.78 355.22 C 750.35 350.90 746.37 346.11 741.54 342.22 C 751.71 342.86 761.62 338.53 771.80 340.54 C 779.02 341.25 785.17 345.83 792.38 346.41 C 789.34 342.26 784.52 340.08 779.92 338.17 C 772.05 335.00 763.29 334.30 754.98 335.86 C 747.94 337.32 740.73 337.35 733.58 337.47 C 740.86 333.56 748.85 331.28 756.53 328.32 C 761.42 326.41 766.46 324.91 771.46 323.31 C 769.86 322.19 768.04 321.08 766.01 321.64 C 759.08 322.83 752.52 325.53 745.83 327.62 C 737.71 330.48 728.65 333.01 723.15 340.13 C 710.90 355.51 699.43 371.65 685.05 385.16 C 675.59 392.76 663.99 397.06 654.14 404.12 C 648.18 408.47 641.72 412.17 636.34 417.28 C 624.34 428.65 614.09 441.74 601.78 452.80 C 594.73 459.47 586.67 464.97 578.07 469.45 C 571.55 458.93 561.65 451.18 551.38 444.57 C 548.71 443.05 549.14 439.61 548.88 437.02 C 548.79 425.68 545.86 414.40 540.57 404.39 C 535.87 396.33 528.23 390.57 520.83 385.15 C 502.55 372.60 485.93 357.76 467.22 345.80 C 459.82 341.20 451.87 336.69 443.00 336.00 C 436.96 335.42 430.66 335.64 425.17 338.48 C 425.29 332.95 424.82 327.43 424.56 321.92 C 434.22 319.35 443.78 315.94 453.85 315.38 C 472.98 313.93 491.39 320.82 508.61 328.38 C 525.41 335.39 540.88 345.14 557.54 352.45 C 562.84 354.42 567.97 357.63 573.82 357.41 C 571.79 353.73 567.54 352.62 564.03 350.90 C 548.49 344.35 534.23 335.23 518.96 328.11 C 500.99 319.63 482.22 311.29 462.06 310.44 C 451.76 309.84 441.71 312.70 432.04 315.90 C 437.47 312.00 442.59 307.62 448.54 304.50 C 455.45 300.83 462.78 298.02 470.00 295.04 C 488.10 287.65 507.55 283.85 527.04 282.88 C 531.27 282.57 535.94 283.45 539.64 280.86 C 523.94 278.03 507.81 280.13 492.31 283.23 C 481.91 285.47 471.83 289.01 462.01 293.05 C 453.57 296.51 445.00 300.06 437.77 305.73 C 433.14 309.38 428.76 313.32 424.26 317.12 C 423.75 315.68 423.23 314.25 422.72 312.82 C 438.71 301.45 454.20 288.94 466.39 273.44 C 470.45 268.39 472.98 262.31 474.45 256.05 C 484.10 248.82 494.28 241.80 506.16 238.88 C 510.46 246.02 513.14 253.94 516.65 261.46 C 521.95 259.25 525.76 254.90 529.45 250.68 C 543.01 248.57 557.35 249.97 569.62 256.42 C 574.10 258.63 577.86 262.03 582.29 264.33 C 582.07 261.85 581.45 259.28 579.30 257.77 C 570.18 250.36 558.83 245.28 546.99 244.84 C 542.57 244.62 538.18 245.17 533.80 245.65 C 539.01 240.98 545.07 237.36 551.41 234.45 C 556.20 232.34 561.49 231.83 566.38 229.99 C 563.15 227.40 558.85 227.86 555.06 228.57 C 548.19 229.93 541.89 233.30 536.05 237.06 C 528.62 241.92 523.67 249.45 517.63 255.78 C 512.31 236.61 500.35 219.59 484.87 207.23 C 475.79 200.00 465.11 194.89 453.78 192.41 C 462.17 182.28 472.21 173.71 482.17 165.18 C 487.77 160.34 493.74 155.96 499.85 151.80 M 746.86 262.96 C 742.50 277.26 731.35 287.83 721.74 298.73 C 714.05 307.71 704.89 315.35 697.85 324.90 C 694.85 329.08 690.56 333.01 690.51 338.55 C 694.46 335.44 697.16 331.15 700.35 327.34 C 707.56 318.26 716.63 310.92 724.17 302.14 C 730.65 294.62 737.80 287.58 743.16 279.16 C 747.02 273.02 750.91 265.96 749.41 258.44 C 748.34 259.81 747.36 261.28 746.86 262.96 M 457.86 334.96 C 461.78 337.67 466.67 338.24 471.00 340.10 C 479.62 343.56 488.17 347.26 496.43 351.53 C 513.56 360.65 528.36 373.56 545.79 382.17 C 556.85 388.42 568.65 393.44 581.03 396.39 C 589.35 398.27 597.88 396.51 606.10 394.95 C 615.62 393.16 623.95 387.96 632.32 383.35 C 639.73 378.97 647.36 373.83 651.64 366.14 C 645.78 368.28 641.58 373.12 636.29 376.24 C 630.15 379.93 623.73 383.13 617.30 386.26 C 609.74 389.97 601.29 391.18 593.01 392.10 C 582.74 393.24 573.10 388.72 563.72 385.22 C 548.65 378.27 534.33 369.74 520.63 360.38 C 509.49 352.80 497.86 345.82 485.30 340.82 C 477.15 337.52 468.78 334.16 459.95 333.34 C 459.43 333.74 458.38 334.55 457.86 334.96 Z" />
	</g>
	<g id="#2b3dcdff">
		<path fill="var(--pants-color, grey)" opacity="1.00"
			d=" M 427.26 342.22 C 431.74 339.60 437.11 339.89 442.09 340.19 C 451.41 340.71 459.62 345.76 467.21 350.76 C 484.87 362.56 500.89 376.58 518.33 388.69 C 525.56 393.98 532.98 399.67 537.39 407.65 C 541.86 416.40 544.59 426.12 544.62 436.00 C 544.83 440.04 544.39 445.17 548.27 447.73 C 555.51 452.68 563.09 457.39 569.19 463.78 C 576.12 472.60 575.69 484.34 577.49 494.86 C 579.83 507.84 581.55 521.11 586.63 533.39 C 590.00 541.66 593.20 550.19 598.73 557.31 C 602.55 562.24 608.52 564.72 612.77 569.19 C 617.68 574.08 621.04 580.25 625.78 585.29 C 630.35 590.23 635.08 595.50 636.95 602.12 C 638.47 607.62 633.58 611.67 630.56 615.54 C 626.40 620.37 623.04 625.80 619.72 631.23 C 618.98 624.16 620.08 617.01 619.07 609.97 C 618.83 607.80 617.61 605.18 615.05 605.31 C 604.82 604.83 595.09 608.82 585.03 609.99 C 564.33 613.33 543.27 613.68 522.62 617.42 C 511.60 619.28 500.17 623.00 492.26 631.28 C 488.54 634.95 487.20 640.17 486.44 645.17 C 479.20 635.95 476.62 624.29 474.35 613.06 C 472.94 603.48 469.53 594.07 463.72 586.27 C 458.87 579.53 453.39 573.22 447.03 567.87 C 437.50 559.47 426.70 551.83 420.50 540.43 C 417.74 535.50 417.89 529.68 416.49 524.34 C 414.74 518.15 409.58 513.82 406.99 508.06 C 405.52 505.25 404.63 501.98 402.25 499.77 C 399.29 497.59 395.40 497.67 391.98 496.76 C 387.21 495.76 383.28 492.72 379.47 489.87 C 386.92 488.33 394.33 486.49 401.42 483.69 C 413.04 478.54 426.04 481.60 438.08 483.36 C 450.64 484.77 464.15 483.85 475.23 477.19 C 484.55 471.67 490.82 462.55 496.91 453.87 C 505.93 440.59 510.90 423.94 507.90 407.93 C 505.71 395.28 498.20 383.63 487.39 376.65 C 472.77 367.07 453.88 365.72 437.35 370.53 C 422.10 375.33 407.28 383.80 397.96 397.12 C 395.59 397.27 393.23 397.42 390.87 397.56 C 390.68 380.64 396.55 364.34 404.23 349.50 C 408.92 349.10 413.65 348.95 418.27 348.04 C 421.96 347.33 424.00 343.76 427.26 342.22 Z" />
		<path fill="var(--socks-color, grey)" opacity="1.00"
			d=" M 327.03 410.12 C 335.86 408.70 344.72 407.48 353.61 406.49 C 372.92 428.19 377.41 461.34 365.97 487.83 C 349.78 490.66 333.47 492.81 317.14 494.63 C 307.46 495.53 297.75 496.53 288.01 496.33 C 273.66 496.16 259.34 497.17 245.06 498.41 C 230.87 498.64 216.68 500.27 202.95 503.94 C 190.89 506.47 179.23 510.98 166.91 512.26 C 157.98 512.86 147.57 510.56 142.42 502.53 C 135.70 492.23 139.69 477.34 149.74 470.73 C 152.26 469.21 155.27 468.93 158.10 468.39 C 173.18 466.21 187.91 462.13 202.39 457.45 C 214.95 453.44 226.24 446.44 238.28 441.20 C 253.16 434.01 268.56 428.00 283.87 421.81 C 297.81 416.48 312.21 412.14 327.03 410.12 Z" />
		<path fill="var(--socks-color, grey)" opacity="1.00"
			d=" M 541.08 748.81 C 556.26 742.64 573.36 743.48 589.07 747.01 C 597.10 749.09 605.46 751.64 611.80 757.25 C 614.40 759.73 613.45 763.79 614.09 767.02 C 615.22 781.02 617.14 794.97 617.58 809.02 C 618.41 825.85 613.95 842.27 612.26 858.91 C 610.48 877.03 608.71 895.39 611.11 913.53 C 608.07 913.58 604.66 913.17 602.12 915.21 C 598.43 918.11 595.54 921.88 591.95 924.90 C 586.77 929.11 580.82 933.24 573.92 933.54 C 567.05 934.13 560.97 929.81 554.11 930.26 C 553.75 911.02 555.96 891.48 551.60 872.53 C 549.63 861.71 545.85 851.33 543.52 840.60 C 540.08 824.91 535.57 809.22 535.47 793.04 C 535.28 786.59 537.22 780.38 539.44 774.41 C 542.55 766.23 541.49 757.33 541.08 748.81 Z" />
	</g>
	<g id="#4d4d4dff">
		<path fill="#4d4d4d" opacity="1.00"
			d=" M 126.70 470.72 C 132.35 470.43 138.00 470.18 143.63 469.55 C 138.77 474.55 134.97 480.87 134.39 487.94 C 133.31 497.20 137.75 507.33 146.22 511.68 C 151.27 514.52 156.91 516.06 162.61 516.89 C 156.79 519.08 150.96 521.30 144.89 522.72 C 136.17 524.95 127.07 525.10 118.37 527.45 C 102.08 531.27 86.75 538.19 70.62 542.54 C 60.38 545.24 49.67 546.52 39.10 545.51 C 33.37 544.90 27.29 543.14 23.45 538.57 C 19.30 533.64 18.54 526.76 19.33 520.57 C 21.01 509.41 27.06 498.92 35.97 491.98 C 46.08 484.44 58.55 481.35 70.33 477.46 C 88.53 471.53 107.87 472.37 126.70 470.72 Z" />
		<path fill="#4d4d4d" opacity="1.00"
			d=" M 605.46 919.26 C 608.80 917.17 612.68 919.50 615.16 921.88 C 626.58 932.62 639.49 941.56 651.93 951.05 C 659.76 957.08 668.34 962.50 678.01 964.98 C 684.30 966.72 691.23 967.31 696.58 971.39 C 699.28 973.34 700.96 976.55 700.98 979.89 C 696.68 983.43 690.94 984.28 685.71 985.64 C 672.37 988.70 658.65 990.14 644.98 989.90 C 631.43 989.72 618.30 986.07 605.02 983.86 C 589.19 980.98 572.80 985.34 557.17 980.82 C 551.30 979.07 546.87 974.07 544.45 968.61 C 541.89 960.67 544.48 952.20 547.96 944.96 C 549.79 941.37 551.61 937.35 555.21 935.22 C 560.33 934.78 564.93 937.95 570.02 938.18 C 579.29 939.32 587.94 934.55 594.94 928.95 C 598.68 925.98 601.58 922.06 605.46 919.26 Z" />
	</g>
</svg>