<?xml version="1.0" encoding="UTF-8" ?>
<!DOCTYPE svg PUBLIC "-//W3C//DTD SVG 1.1//EN" "http://www.w3.org/Graphics/SVG/1.1/DTD/svg11.dtd">
<svg width="1000pt" height="1000pt" viewBox="0 0 1000 1000" version="1.1" xmlns="http://www.w3.org/2000/svg">
	<g id="#020202ff">
		<path fill="#020202" opacity="1.00"
			d=" M 412.13 69.24 C 419.95 63.10 430.26 61.18 440.00 61.52 C 457.17 62.20 473.77 69.25 486.96 80.12 C 495.31 87.12 502.69 96.03 505.35 106.82 C 507.22 113.84 505.70 121.15 504.05 128.04 C 502.91 132.83 500.15 137.09 499.13 141.90 C 498.68 148.51 501.31 154.88 504.38 160.60 C 506.62 164.82 509.79 168.47 513.57 171.38 C 515.64 170.37 517.67 169.16 519.94 168.60 C 527.33 168.53 534.35 171.65 540.35 175.77 C 553.30 184.78 563.82 197.17 570.88 211.27 C 579.71 228.51 584.32 247.46 588.93 266.16 C 591.44 276.21 592.64 286.51 594.30 296.72 C 599.83 302.52 605.81 309.82 604.81 318.36 C 603.21 318.28 601.62 318.20 600.03 318.12 C 604.18 326.05 607.84 334.22 611.55 342.36 C 618.37 357.54 618.64 374.88 615.24 390.95 C 612.94 401.98 610.14 412.90 607.30 423.80 C 613.41 436.40 614.83 450.51 616.87 464.18 C 618.30 476.45 621.45 488.42 624.41 500.39 C 624.98 502.92 625.69 505.51 625.40 508.14 C 622.76 510.18 619.49 511.07 616.40 512.16 C 619.00 519.14 619.35 526.66 619.47 534.04 C 619.53 544.00 618.55 554.04 615.77 563.64 C 612.58 575.45 606.79 586.33 603.01 597.94 C 600.59 605.40 600.82 613.33 599.84 621.03 C 598.29 634.90 597.93 648.85 597.22 662.77 C 596.88 665.90 596.89 669.27 595.35 672.10 C 593.14 673.64 590.72 674.83 588.40 676.19 C 589.43 680.54 590.27 684.95 591.76 689.18 C 595.10 699.28 602.13 707.67 605.38 717.82 C 611.08 734.92 612.84 753.09 613.03 771.03 C 612.61 793.37 611.49 815.70 610.39 838.02 C 609.89 848.81 608.96 859.60 607.19 870.26 C 606.59 872.94 608.74 875.00 610.08 877.05 C 613.46 881.43 615.29 886.72 616.84 891.97 C 619.46 900.69 620.85 909.85 620.36 918.96 C 619.95 924.17 618.69 929.93 614.45 933.41 C 610.85 936.64 605.73 937.99 601.02 936.83 C 583.53 932.45 566.84 924.81 548.85 922.47 C 535.20 920.45 521.27 918.30 508.73 912.24 C 501.94 908.83 495.16 904.12 492.05 896.92 C 489.75 891.92 490.55 885.49 494.51 881.57 C 497.98 878.17 502.72 876.35 507.48 875.72 C 521.66 873.90 535.84 877.11 550.03 876.79 C 554.88 876.45 561.36 875.82 563.31 870.51 C 564.00 867.39 562.94 864.17 562.90 861.02 C 561.24 828.42 553.85 796.49 550.45 764.08 C 549.30 753.81 550.58 743.36 548.67 733.16 C 547.47 726.77 542.87 721.92 539.39 716.69 C 533.46 707.28 527.47 697.64 524.99 686.66 C 521.20 689.27 516.54 689.91 512.03 689.62 C 500.28 689.02 488.59 687.41 477.03 685.25 C 475.68 694.62 474.95 704.35 477.59 713.57 C 479.99 725.01 487.09 734.68 490.13 745.92 C 493.26 755.72 491.29 766.05 490.02 775.98 C 487.22 796.88 485.54 817.91 483.41 838.88 C 482.32 846.20 482.77 853.61 482.32 860.98 C 481.65 873.38 484.39 885.66 483.88 898.07 C 483.52 903.23 486.08 907.89 486.77 912.91 C 488.31 922.68 487.47 932.73 485.14 942.32 C 483.81 948.28 479.42 953.51 473.64 955.60 C 468.78 957.92 463.30 957.50 458.07 957.69 C 440.30 957.88 424.28 966.99 406.76 968.87 C 392.25 970.38 377.36 973.85 362.89 970.14 C 357.09 968.45 351.06 966.63 346.31 962.74 C 340.63 958.32 339.60 949.41 343.51 943.53 C 346.45 938.80 351.20 935.62 355.92 932.86 C 368.85 925.45 384.06 923.43 397.00 916.05 C 404.45 911.75 411.50 906.69 417.63 900.65 C 420.84 897.45 424.42 894.64 428.37 892.42 C 426.27 889.81 424.19 886.99 423.68 883.59 C 422.14 874.42 424.19 865.18 424.18 855.97 C 424.30 839.24 421.80 822.64 419.49 806.12 C 417.57 787.81 416.66 769.41 416.43 751.01 C 416.35 739.13 414.18 727.38 411.05 715.96 C 407.05 702.63 402.15 689.10 402.84 674.97 C 402.99 667.99 407.21 661.96 411.98 657.21 C 411.77 656.68 411.36 655.61 411.15 655.07 C 414.25 646.31 418.10 637.84 420.93 628.99 C 424.98 616.67 428.97 604.33 432.83 591.96 C 436.84 578.61 441.87 565.37 449.77 553.79 C 454.38 546.60 460.06 540.19 465.97 534.06 C 470.40 529.84 469.90 523.20 472.53 518.01 C 468.87 511.51 471.48 504.01 474.08 497.66 C 469.67 486.39 471.25 473.51 475.63 462.47 C 476.73 459.28 478.75 456.36 479.14 452.97 C 478.03 448.12 475.37 443.77 474.34 438.89 C 472.07 430.32 474.67 421.58 476.76 413.27 C 459.86 419.18 443.04 425.59 427.36 434.30 C 423.26 437.93 420.91 443.16 417.21 447.21 C 412.22 453.01 405.55 457.03 398.97 460.78 C 401.38 462.43 404.61 464.62 404.07 467.96 C 402.60 472.14 397.54 472.74 393.85 473.80 C 394.71 476.08 396.64 479.13 394.18 481.12 C 391.21 483.54 387.42 481.27 384.54 479.89 C 385.22 481.54 386.33 483.14 386.33 484.99 C 386.21 487.48 383.52 489.07 381.21 488.64 C 377.67 488.04 374.69 485.84 371.72 483.97 C 373.10 486.79 374.89 489.63 374.94 492.87 C 375.04 494.34 373.54 495.79 372.08 495.31 C 369.55 494.77 367.46 493.13 365.37 491.70 C 361.55 488.87 357.70 486.00 354.45 482.52 C 352.19 480.26 352.25 476.86 351.82 473.93 C 351.28 466.98 349.01 459.87 351.16 452.99 C 353.13 446.45 358.34 441.74 362.69 436.74 C 368.79 430.19 374.01 422.39 382.15 418.16 C 390.42 414.13 399.18 411.25 407.57 407.50 C 414.73 404.08 420.67 398.68 426.84 393.79 C 439.08 383.53 451.54 373.46 465.00 364.81 C 463.63 357.58 462.43 350.31 461.95 342.96 C 461.45 333.94 459.95 325.00 459.87 315.95 C 459.43 289.82 462.67 263.60 469.49 238.37 C 471.37 232.48 472.81 226.06 470.90 219.98 C 467.12 208.00 458.20 198.38 448.11 191.24 C 443.39 194.90 438.43 198.25 433.31 201.33 C 429.26 203.71 422.88 206.33 419.46 201.61 C 413.67 194.46 411.00 185.48 406.36 177.65 C 405.45 176.40 404.71 174.51 402.91 174.49 C 399.29 173.80 395.21 174.17 392.11 171.87 C 389.65 170.07 390.72 166.75 391.08 164.24 C 393.20 154.30 394.37 144.14 394.16 133.97 C 394.26 124.09 393.08 113.96 396.06 104.36 C 395.27 101.21 394.25 97.77 395.71 94.65 C 397.03 90.85 400.10 88.13 403.14 85.68 C 403.84 79.27 406.94 73.15 412.13 69.24 M 405.15 102.96 C 405.45 105.87 406.91 108.46 407.87 111.18 C 404.37 112.23 401.21 110.45 398.57 108.33 C 398.13 113.97 398.25 119.63 398.56 125.28 C 408.97 118.85 422.00 122.85 431.54 128.96 C 426.89 133.69 420.93 136.78 415.64 140.71 C 413.71 141.74 412.02 143.89 409.66 143.64 C 408.30 141.14 407.78 138.23 406.17 135.87 C 403.83 134.51 401.29 133.57 398.94 132.23 C 399.90 144.38 398.46 156.55 395.78 168.39 C 399.69 169.91 404.70 169.00 407.85 172.09 C 414.27 180.66 416.88 191.63 424.14 199.63 C 426.69 199.61 429.05 198.44 431.18 197.14 C 438.65 192.38 445.93 187.33 453.20 182.26 C 456.47 180.12 459.79 177.45 463.94 177.56 C 461.26 182.65 455.62 184.94 451.40 188.52 C 462.76 195.24 472.69 205.71 475.88 218.82 C 482.19 200.90 493.71 184.66 509.60 174.03 C 501.53 167.59 497.06 157.62 495.68 147.56 C 493.50 151.83 491.28 156.11 489.86 160.70 C 488.93 163.16 488.63 166.07 486.42 167.79 C 486.29 156.51 492.72 146.67 497.21 136.73 C 491.38 143.26 484.31 148.58 476.71 152.87 C 472.31 155.06 467.58 157.27 462.54 156.78 C 463.99 149.06 467.14 141.75 468.32 133.97 C 468.96 129.46 468.19 124.39 465.08 120.90 C 462.81 118.39 458.91 118.75 456.14 120.16 C 452.22 122.29 450.78 126.83 447.78 129.86 C 445.04 131.28 441.83 131.36 438.84 131.83 C 439.28 123.70 435.71 116.09 432.45 108.86 C 427.71 113.75 420.40 115.42 413.96 113.34 C 411.99 107.87 411.73 101.64 408.06 96.90 C 406.66 98.65 404.91 100.53 405.15 102.96 M 516.98 173.92 C 511.17 178.41 505.38 182.99 500.14 188.15 C 491.52 196.54 486.45 207.65 481.24 218.29 C 475.79 231.74 472.42 245.95 469.66 260.16 C 465.12 285.80 462.97 312.09 466.06 338.03 C 467.20 352.01 469.42 365.94 473.79 379.29 C 476.03 387.68 479.64 395.66 481.47 404.16 C 483.38 413.32 478.47 421.96 478.53 431.06 C 478.32 436.65 480.33 441.97 482.25 447.13 C 487.39 436.17 492.73 425.30 496.97 413.95 C 501.28 403.11 506.02 392.39 508.87 381.03 C 511.16 371.72 514.17 362.61 517.51 353.63 C 519.22 349.30 520.65 344.58 524.31 341.44 C 524.04 344.17 523.49 346.87 522.50 349.44 C 519.08 358.72 516.08 368.17 513.99 377.85 C 512.03 386.97 509.00 395.82 505.42 404.42 C 500.93 415.13 496.84 426.03 491.53 436.37 C 489.37 440.60 487.00 444.72 485.05 449.04 C 483.76 451.83 483.99 455.04 482.78 457.87 C 481.42 461.20 479.85 464.44 478.70 467.85 C 475.64 476.20 475.13 485.30 476.10 494.08 C 483.86 497.82 492.01 500.71 500.36 502.82 C 517.53 507.09 535.12 510.40 552.88 510.15 C 553.98 496.90 558.38 484.14 564.45 472.37 C 567.40 467.16 565.65 460.94 565.69 455.28 C 565.18 431.21 565.02 406.97 568.63 383.09 C 569.57 376.44 570.45 369.65 569.49 362.95 C 568.79 358.30 566.26 354.24 563.70 350.40 C 561.97 353.42 560.31 356.49 558.54 359.50 C 553.57 357.73 552.18 352.30 549.77 348.20 C 543.70 337.61 531.89 332.06 525.57 321.69 C 518.17 325.56 511.48 330.67 505.41 336.39 C 503.08 338.65 500.82 341.01 498.16 342.90 C 498.75 338.12 502.49 334.82 505.75 331.67 C 511.47 326.46 517.54 321.48 524.57 318.13 C 523.27 316.04 523.16 312.13 520.04 312.06 C 511.56 311.06 503.76 315.17 496.72 319.34 C 501.31 311.14 511.67 309.44 520.21 308.68 C 516.87 304.42 513.05 300.58 509.25 296.74 C 504.74 292.21 501.08 286.93 496.75 282.24 C 494.84 280.18 493.17 277.90 491.98 275.35 C 496.71 277.14 499.87 281.22 503.31 284.71 C 508.66 290.34 514.54 295.43 519.91 301.05 C 524.24 305.59 526.98 311.35 528.91 317.26 C 530.12 321.20 532.72 324.50 535.75 327.22 C 540.51 331.48 545.17 335.88 549.32 340.74 C 552.98 345.04 554.80 350.46 557.23 355.47 C 561.54 343.38 568.69 331.83 579.42 324.46 C 585.75 319.76 592.68 315.36 600.75 314.63 C 599.30 311.38 597.97 308.03 595.85 305.16 C 592.20 300.19 587.25 296.41 583.28 291.74 C 577.01 284.15 572.61 275.13 570.16 265.62 C 569.57 262.68 567.19 260.71 565.10 258.78 C 558.31 252.75 551.10 247.04 542.91 243.03 C 536.61 239.83 529.83 237.80 523.15 235.59 C 521.22 235.05 519.67 233.76 518.35 232.30 C 526.12 231.63 533.49 234.88 540.66 237.41 C 550.86 241.30 559.60 248.09 567.53 255.45 C 564.57 243.27 557.98 232.45 550.83 222.32 C 552.69 222.83 554.67 223.40 555.92 225.01 C 560.10 229.70 563.32 235.16 566.23 240.71 C 571.91 251.49 572.93 263.95 578.03 274.96 C 581.04 281.46 585.09 287.48 590.07 292.63 C 587.57 280.76 585.45 268.80 582.01 257.14 C 576.53 236.45 570.13 215.30 556.89 198.11 C 549.32 188.36 540.08 179.39 528.68 174.33 C 525.03 173.05 520.37 171.05 516.98 173.92 M 580.34 329.33 C 574.11 333.89 569.65 340.34 565.66 346.85 C 569.35 351.22 572.83 356.11 573.85 361.87 C 575.63 371.90 573.29 381.99 572.26 391.96 C 569.21 416.54 570.53 441.34 570.09 466.03 C 570.29 469.89 568.50 473.38 566.84 476.74 C 560.11 490.48 556.18 505.68 556.35 521.03 C 556.46 525.07 556.74 529.19 558.25 532.98 C 558.67 528.30 558.30 523.53 559.36 518.93 C 561.98 517.04 563.13 520.89 562.74 522.90 C 561.96 532.07 562.98 541.55 567.17 549.85 C 568.79 548.66 570.17 546.93 572.16 546.37 C 574.98 546.56 577.41 548.26 580.05 549.16 C 582.28 545.87 582.08 541.83 583.13 538.18 C 584.87 535.60 588.34 537.80 590.76 537.91 C 590.86 534.05 588.08 530.18 589.48 526.46 C 591.87 524.52 594.35 527.34 596.43 528.41 C 596.51 517.41 593.16 506.84 591.23 496.12 C 590.56 492.07 588.95 488.22 588.51 484.13 C 588.83 477.49 590.16 470.93 591.61 464.46 C 596.16 445.24 602.64 426.52 607.09 407.27 C 610.52 392.46 614.87 377.24 612.41 361.92 C 611.53 354.61 609.31 347.53 606.16 340.89 C 602.87 333.71 600.08 326.31 596.82 319.13 C 590.82 321.63 585.56 325.52 580.34 329.33 M 447.84 382.83 C 437.97 390.58 428.89 399.30 418.80 406.77 C 408.48 414.65 395.46 417.35 383.99 423.02 C 376.57 427.05 372.19 434.60 366.53 440.57 C 361.83 445.99 355.57 451.28 355.34 459.04 C 355.15 465.75 356.40 472.42 356.31 479.14 C 360.87 483.19 365.66 486.98 370.67 490.47 C 368.28 485.24 364.08 480.58 363.52 474.69 C 365.25 473.83 366.23 475.85 367.43 476.65 C 371.78 480.58 377.10 483.41 382.68 485.16 C 379.30 479.70 374.77 475.09 371.08 469.86 C 370.11 468.55 369.89 466.87 369.45 465.37 C 374.33 465.54 376.01 470.82 379.61 473.22 C 383.26 475.49 387.34 476.99 391.43 478.26 C 387.68 472.83 380.89 469.92 378.43 463.58 C 383.16 464.41 386.82 467.64 390.30 470.71 C 393.66 469.68 396.98 468.46 400.10 466.82 C 396.43 463.89 391.44 465.92 387.16 465.20 C 388.93 463.23 391.04 461.62 393.36 460.36 C 398.82 457.27 404.12 453.87 409.00 449.91 C 414.69 445.43 418.13 438.89 421.91 432.87 C 423.06 431.02 424.94 429.81 426.79 428.76 C 442.79 420.14 459.73 413.26 477.27 408.51 C 476.76 404.77 475.90 401.09 474.62 397.55 C 471.35 388.23 468.58 378.74 466.00 369.22 C 459.89 373.68 453.73 378.08 447.84 382.83 M 593.90 472.95 C 593.11 476.90 591.65 480.77 591.53 484.81 C 594.90 493.36 595.87 502.55 598.14 511.41 C 606.15 510.03 614.13 508.36 621.84 505.69 C 617.98 492.02 614.81 478.12 613.08 464.01 C 611.21 451.82 609.85 439.49 606.22 427.65 C 602.00 442.72 597.21 457.64 593.90 472.95 M 477.89 500.22 C 476.67 503.72 475.16 507.27 475.27 511.05 C 475.47 513.42 476.64 515.57 477.03 517.91 C 476.55 520.24 475.47 522.39 474.84 524.68 C 473.77 528.16 473.41 532.05 470.94 534.91 C 467.17 539.48 462.78 543.51 459.26 548.29 C 453.59 555.87 448.40 563.90 444.65 572.62 C 440.36 582.16 437.64 592.28 434.38 602.19 C 428.64 619.68 423.35 637.39 415.33 654.01 C 423.75 660.07 432.48 665.84 442.05 669.91 C 463.30 678.72 486.16 683.15 509.02 685.05 C 513.92 685.25 520.30 686.13 523.33 681.25 C 527.03 674.92 529.10 667.77 531.89 661.01 C 536.31 649.81 536.69 637.67 538.32 625.89 C 539.40 617.39 542.13 609.21 545.27 601.28 C 547.53 595.90 549.66 590.27 553.71 585.93 C 553.23 588.53 552.55 591.11 551.54 593.57 C 548.07 601.99 544.78 610.57 543.23 619.58 C 541.67 629.02 541.37 638.62 539.83 648.06 C 538.10 658.62 533.52 668.38 529.07 678.00 C 539.39 678.49 549.75 678.80 560.06 677.80 C 570.90 676.94 581.96 675.04 591.57 669.67 C 592.67 660.16 592.44 650.55 593.07 641.00 C 593.66 629.88 594.99 618.82 595.77 607.71 C 596.75 594.10 603.95 582.15 608.51 569.56 C 615.47 551.77 616.69 531.91 612.93 513.25 C 608.34 514.30 603.73 515.29 599.04 515.75 C 599.46 520.66 600.87 525.98 598.80 530.67 C 597.90 532.76 595.28 531.58 593.57 531.77 C 593.83 534.70 594.81 538.19 592.67 540.68 C 591.09 542.49 588.44 541.29 586.41 541.33 C 585.72 545.07 585.17 549.56 581.74 551.89 C 578.77 553.74 575.55 551.37 572.74 550.32 C 571.22 551.46 569.78 552.78 568.01 553.53 C 565.68 553.84 563.80 552.06 562.87 550.12 C 560.65 545.73 559.83 540.83 558.74 536.09 C 557.12 534.79 554.98 533.72 554.38 531.58 C 552.68 525.90 552.66 519.90 552.60 514.02 C 542.74 514.67 532.86 513.81 523.12 512.33 C 507.68 509.95 492.32 506.30 477.89 500.22 M 415.28 659.58 C 412.29 663.34 409.05 667.20 407.96 672.00 C 406.72 677.62 407.53 683.41 408.51 689.01 C 410.72 702.54 416.90 715.04 419.00 728.60 C 424.52 730.24 430.27 731.03 436.04 730.86 C 449.33 730.48 462.97 728.00 474.58 721.21 C 470.41 709.36 469.77 696.52 472.31 684.24 C 451.96 679.87 431.77 672.61 415.28 659.58 M 528.51 682.70 C 531.94 696.60 539.59 709.00 548.21 720.25 C 547.85 716.29 547.50 712.31 547.97 708.35 C 548.48 708.74 549.51 709.51 550.03 709.90 C 551.50 715.84 551.81 722.01 552.74 728.06 C 560.21 723.84 568.71 722.00 577.09 720.57 C 584.60 719.30 592.27 719.09 599.84 719.91 C 597.69 714.10 594.78 708.61 591.80 703.19 C 587.50 695.38 585.17 686.54 585.03 677.62 C 566.98 684.14 547.39 683.55 528.51 682.70 M 553.96 732.10 C 555.56 741.36 555.15 750.75 555.42 760.10 C 558.57 797.21 568.09 833.70 568.22 871.08 C 568.69 874.49 571.82 876.78 574.60 878.41 C 582.39 882.44 592.35 883.69 600.20 879.09 C 602.68 867.21 604.09 855.15 604.69 843.04 C 605.68 821.71 606.58 800.39 607.19 779.05 C 607.69 761.33 606.36 743.43 601.65 726.28 C 594.86 724.66 587.82 724.92 580.91 725.44 C 571.67 726.26 562.34 727.94 553.96 732.10 M 460.22 733.41 C 447.14 736.81 433.02 737.98 419.93 733.99 C 421.11 741.92 421.20 749.95 421.38 757.95 C 421.74 777.32 422.76 796.74 425.83 815.89 C 427.90 832.16 429.99 848.59 428.57 865.02 C 428.26 870.90 427.23 876.90 428.48 882.74 C 429.60 885.60 432.32 887.42 434.33 889.65 C 441.54 897.34 450.57 902.92 459.24 908.79 C 463.17 911.48 468.22 913.09 472.93 911.62 C 476.35 910.58 479.89 907.94 480.04 904.06 C 481.38 890.31 477.21 876.77 477.47 863.03 C 477.70 856.04 477.40 849.04 477.89 842.06 C 480.08 819.72 482.30 797.36 485.21 775.09 C 486.29 766.70 488.15 758.11 486.21 749.70 C 484.26 741.53 480.39 734.02 476.76 726.51 C 471.57 729.50 466.03 731.89 460.22 733.41 M 544.97 882.17 C 532.99 881.71 521.02 879.54 509.02 880.76 C 504.90 881.20 500.42 882.38 497.73 885.76 C 495.45 888.75 495.90 893.01 497.81 896.07 C 501.60 902.44 508.38 906.22 514.99 909.08 C 527.72 914.42 541.55 915.88 555.07 917.94 C 571.03 920.79 586.07 927.08 601.62 931.46 C 606.81 933.10 613.48 930.03 614.37 924.36 C 617.20 908.35 614.12 891.43 605.92 877.40 C 604.52 880.31 603.29 883.67 600.29 885.34 C 593.98 889.08 586.04 888.68 579.19 886.77 C 573.29 885.20 568.13 881.59 564.36 876.83 C 559.01 881.41 551.77 882.42 544.97 882.17 M 414.85 911.89 C 406.22 918.88 396.44 924.45 385.91 928.01 C 373.77 932.32 360.57 935.08 350.39 943.43 C 346.95 946.55 344.21 952.41 347.46 956.57 C 350.86 960.66 356.18 962.34 361.05 964.00 C 375.38 968.60 390.52 965.21 405.06 963.61 C 420.43 961.86 434.58 954.78 449.91 952.87 C 456.71 951.81 463.73 953.26 470.43 951.51 C 475.39 950.31 478.88 945.96 480.29 941.24 C 483.15 931.75 482.21 921.69 481.23 912.00 C 477.97 914.55 474.36 917.10 470.06 917.25 C 464.45 917.92 459.19 915.34 454.62 912.39 C 447.08 908.01 440.63 902.08 433.61 896.97 C 426.19 900.35 421.11 906.92 414.85 911.89 Z" />
		<path fill="#020202" opacity="1.00"
			d=" M 524.00 256.58 C 530.52 256.83 536.03 260.72 541.87 263.17 C 550.56 266.97 558.67 272.00 565.84 278.20 C 570.12 282.02 575.15 285.70 576.82 291.47 C 569.39 285.13 562.46 278.07 553.99 273.05 C 545.82 268.19 536.75 265.13 528.45 260.52 C 526.66 259.59 525.27 258.10 524.00 256.58 Z" />
		<path fill="#020202" opacity="1.00"
			d=" M 528.45 389.37 C 530.35 385.28 531.96 380.86 535.39 377.75 C 535.74 381.30 534.05 384.52 532.69 387.68 C 529.51 394.81 526.78 402.15 523.14 409.06 C 515.76 423.31 506.58 436.51 498.19 450.17 C 493.90 456.81 489.83 463.67 484.70 469.72 C 483.41 471.54 481.22 471.93 479.14 471.95 C 488.86 460.31 495.78 446.71 503.94 433.99 C 512.90 419.58 521.80 405.04 528.45 389.37 Z" />
		<path fill="#020202" opacity="1.00"
			d=" M 370.70 445.68 C 374.37 442.51 376.64 438.16 379.40 434.26 C 380.14 435.30 381.36 436.37 380.74 437.79 C 378.77 444.67 372.96 449.34 367.67 453.70 C 365.89 455.00 365.22 457.15 364.54 459.14 C 373.19 460.31 379.15 452.80 386.40 449.67 C 391.33 448.60 396.47 447.81 401.52 448.37 C 398.29 453.20 391.92 452.48 387.03 454.00 C 382.19 456.91 377.89 460.81 372.47 462.72 C 369.00 464.20 364.35 464.41 361.60 461.44 C 359.89 459.42 360.65 456.60 361.69 454.47 C 363.54 450.53 367.71 448.61 370.70 445.68 Z" />
		<path fill="#020202" opacity="1.00"
			d=" M 498.35 465.37 C 499.54 464.25 500.57 462.40 502.50 462.71 C 502.39 467.79 497.75 471.04 495.06 474.92 C 512.28 476.78 529.70 475.25 546.87 477.69 C 548.48 477.76 549.72 478.79 550.80 479.91 C 543.88 480.57 536.95 479.71 530.02 479.81 C 518.04 479.69 505.96 480.68 494.07 478.74 C 491.92 478.59 489.91 476.28 491.11 474.16 C 492.94 470.81 495.94 468.30 498.35 465.37 Z" />
	</g>
	<g id="#f0b58bff">
		<path fill="#f0b58b" opacity="1.00"
			d=" M 405.15 102.96 C 404.91 100.53 406.66 98.65 408.06 96.90 C 411.73 101.64 411.99 107.87 413.96 113.34 C 420.40 115.42 427.71 113.75 432.45 108.86 C 435.71 116.09 439.28 123.70 438.84 131.83 C 441.83 131.36 445.04 131.28 447.78 129.86 C 450.78 126.83 452.22 122.29 456.14 120.16 C 458.91 118.75 462.81 118.39 465.08 120.90 C 468.19 124.39 468.96 129.46 468.32 133.97 C 467.14 141.75 463.99 149.06 462.54 156.78 C 467.58 157.27 472.31 155.06 476.71 152.87 C 484.31 148.58 491.38 143.26 497.21 136.73 C 492.72 146.67 486.29 156.51 486.42 167.79 C 488.63 166.07 488.93 163.16 489.86 160.70 C 491.28 156.11 493.50 151.83 495.68 147.56 C 497.06 157.62 501.53 167.59 509.60 174.03 C 493.71 184.66 482.19 200.90 475.88 218.82 C 472.69 205.71 462.76 195.24 451.40 188.52 C 455.62 184.94 461.26 182.65 463.94 177.56 C 459.79 177.45 456.47 180.12 453.20 182.26 C 445.93 187.33 438.65 192.38 431.18 197.14 C 429.05 198.44 426.69 199.61 424.14 199.63 C 416.88 191.63 414.27 180.66 407.85 172.09 C 404.70 169.00 399.69 169.91 395.78 168.39 C 398.46 156.55 399.90 144.38 398.94 132.23 C 401.29 133.57 403.83 134.51 406.17 135.87 C 407.78 138.23 408.30 141.14 409.66 143.64 C 412.02 143.89 413.71 141.74 415.64 140.71 C 420.93 136.78 426.89 133.69 431.54 128.96 C 422.00 122.85 408.97 118.85 398.56 125.28 C 398.25 119.63 398.13 113.97 398.57 108.33 C 401.21 110.45 404.37 112.23 407.87 111.18 C 406.91 108.46 405.45 105.87 405.15 102.96 Z" />
		<path fill="#f0b58b" opacity="1.00"
			d=" M 580.34 329.33 C 585.56 325.52 590.82 321.63 596.82 319.13 C 600.08 326.31 602.87 333.71 606.16 340.89 C 609.31 347.53 611.53 354.61 612.41 361.92 C 614.87 377.24 610.52 392.46 607.09 407.27 C 602.64 426.52 596.16 445.24 591.61 464.46 C 590.16 470.93 588.83 477.49 588.51 484.13 C 588.95 488.22 590.56 492.07 591.23 496.12 C 593.16 506.84 596.51 517.41 596.43 528.41 C 594.35 527.34 591.87 524.52 589.48 526.46 C 588.08 530.18 590.86 534.05 590.76 537.91 C 588.34 537.80 584.87 535.60 583.13 538.18 C 582.08 541.83 582.28 545.87 580.05 549.16 C 577.41 548.26 574.98 546.56 572.16 546.37 C 570.17 546.93 568.79 548.66 567.17 549.85 C 562.98 541.55 561.96 532.07 562.74 522.90 C 563.13 520.89 561.98 517.04 559.36 518.93 C 558.30 523.53 558.67 528.30 558.25 532.98 C 556.74 529.19 556.46 525.07 556.35 521.03 C 556.18 505.68 560.11 490.48 566.84 476.74 C 568.50 473.38 570.29 469.89 570.09 466.03 C 570.53 441.34 569.21 416.54 572.26 391.96 C 573.29 381.99 575.63 371.90 573.85 361.87 C 572.83 356.11 569.35 351.22 565.66 346.85 C 569.65 340.34 574.11 333.89 580.34 329.33 Z" />
		<path fill="#f0b58b" opacity="1.00"
			d=" M 447.84 382.83 C 453.73 378.08 459.89 373.68 466.00 369.22 C 468.58 378.74 471.35 388.23 474.62 397.55 C 475.90 401.09 476.76 404.77 477.27 408.51 C 459.73 413.26 442.79 420.14 426.79 428.76 C 424.94 429.81 423.06 431.02 421.91 432.87 C 418.13 438.89 414.69 445.43 409.00 449.91 C 404.12 453.87 398.82 457.27 393.36 460.36 C 391.04 461.62 388.93 463.23 387.16 465.20 C 391.44 465.92 396.43 463.89 400.10 466.82 C 396.98 468.46 393.66 469.68 390.30 470.71 C 386.82 467.64 383.16 464.41 378.43 463.58 C 380.89 469.92 387.68 472.83 391.43 478.26 C 387.34 476.99 383.26 475.49 379.61 473.22 C 376.01 470.82 374.33 465.54 369.45 465.37 C 369.89 466.87 370.11 468.55 371.08 469.86 C 374.77 475.09 379.30 479.70 382.68 485.16 C 377.10 483.41 371.78 480.58 367.43 476.65 C 366.23 475.85 365.25 473.83 363.52 474.69 C 364.08 480.58 368.28 485.24 370.67 490.47 C 365.66 486.98 360.87 483.19 356.31 479.14 C 356.40 472.42 355.15 465.75 355.34 459.04 C 355.57 451.28 361.83 445.99 366.53 440.57 C 372.19 434.60 376.57 427.05 383.99 423.02 C 395.46 417.35 408.48 414.65 418.80 406.77 C 428.89 399.30 437.97 390.58 447.84 382.83 M 370.70 445.68 C 367.71 448.61 363.54 450.53 361.69 454.47 C 360.65 456.60 359.89 459.42 361.60 461.44 C 364.35 464.41 369.00 464.20 372.47 462.72 C 377.89 460.81 382.19 456.91 387.03 454.00 C 391.92 452.48 398.29 453.20 401.52 448.37 C 396.47 447.81 391.33 448.60 386.40 449.67 C 379.15 452.80 373.19 460.31 364.54 459.14 C 365.22 457.15 365.89 455.00 367.67 453.70 C 372.96 449.34 378.77 444.67 380.74 437.79 C 381.36 436.37 380.14 435.30 379.40 434.26 C 376.64 438.16 374.37 442.51 370.70 445.68 Z" />
		<path fill="#f0b58b" opacity="1.00"
			d=" M 415.28 659.58 C 431.77 672.61 451.96 679.87 472.31 684.24 C 469.77 696.52 470.41 709.36 474.58 721.21 C 462.97 728.00 449.33 730.48 436.04 730.86 C 430.27 731.03 424.52 730.24 419.00 728.60 C 416.90 715.04 410.72 702.54 408.51 689.01 C 407.53 683.41 406.72 677.62 407.96 672.00 C 409.05 667.20 412.29 663.34 415.28 659.58 Z" />
		<path fill="#f0b58b" opacity="1.00"
			d=" M 528.51 682.70 C 547.39 683.55 566.98 684.14 585.03 677.62 C 585.17 686.54 587.50 695.38 591.80 703.19 C 594.78 708.61 597.69 714.10 599.84 719.91 C 592.27 719.09 584.60 719.30 577.09 720.57 C 568.71 722.00 560.21 723.84 552.74 728.06 C 551.81 722.01 551.50 715.84 550.03 709.90 C 549.51 709.51 548.48 708.74 547.97 708.35 C 547.50 712.31 547.85 716.29 548.21 720.25 C 539.59 709.00 531.94 696.60 528.51 682.70 Z" />
	</g>
	<g id="#f11b27ff">
		<path fill="var(--shirt-color, grey)" opacity="1.00"
			d=" M 516.98 173.92 C 520.37 171.05 525.03 173.05 528.68 174.33 C 540.08 179.39 549.32 188.36 556.89 198.11 C 570.13 215.30 576.53 236.45 582.01 257.14 C 585.45 268.80 587.57 280.76 590.07 292.63 C 585.09 287.48 581.04 281.46 578.03 274.96 C 572.93 263.95 571.91 251.49 566.23 240.71 C 563.32 235.16 560.10 229.70 555.92 225.01 C 554.67 223.40 552.69 222.83 550.83 222.32 C 557.98 232.45 564.57 243.27 567.53 255.45 C 559.60 248.09 550.86 241.30 540.66 237.41 C 533.49 234.88 526.12 231.63 518.35 232.30 C 519.67 233.76 521.22 235.05 523.15 235.59 C 529.83 237.80 536.61 239.83 542.91 243.03 C 551.10 247.04 558.31 252.75 565.10 258.78 C 567.19 260.71 569.57 262.68 570.16 265.62 C 572.61 275.13 577.01 284.15 583.28 291.74 C 587.25 296.41 592.20 300.19 595.85 305.16 C 597.97 308.03 599.30 311.38 600.75 314.63 C 592.68 315.36 585.75 319.76 579.42 324.46 C 568.69 331.83 561.54 343.38 557.23 355.47 C 554.80 350.46 552.98 345.04 549.32 340.74 C 545.17 335.88 540.51 331.48 535.75 327.22 C 532.72 324.50 530.12 321.20 528.91 317.26 C 526.98 311.35 524.24 305.59 519.91 301.05 C 514.54 295.43 508.66 290.34 503.31 284.71 C 499.87 281.22 496.71 277.14 491.98 275.35 C 493.17 277.90 494.84 280.18 496.75 282.24 C 501.08 286.93 504.74 292.21 509.25 296.74 C 513.05 300.58 516.87 304.42 520.21 308.68 C 511.67 309.44 501.31 311.14 496.72 319.34 C 503.76 315.17 511.56 311.06 520.04 312.06 C 523.16 312.13 523.27 316.04 524.57 318.13 C 517.54 321.48 511.47 326.46 505.75 331.67 C 502.49 334.82 498.75 338.12 498.16 342.90 C 500.82 341.01 503.08 338.65 505.41 336.39 C 511.48 330.67 518.17 325.56 525.57 321.69 C 531.89 332.06 543.70 337.61 549.77 348.20 C 552.18 352.30 553.57 357.73 558.54 359.50 C 560.31 356.49 561.97 353.42 563.70 350.40 C 566.26 354.24 568.79 358.30 569.49 362.95 C 570.45 369.65 569.57 376.44 568.63 383.09 C 565.02 406.97 565.18 431.21 565.69 455.28 C 565.65 460.94 567.40 467.16 564.45 472.37 C 558.38 484.14 553.98 496.90 552.88 510.15 C 535.12 510.40 517.53 507.09 500.36 502.82 C 492.01 500.71 483.86 497.82 476.10 494.08 C 475.13 485.30 475.64 476.20 478.70 467.85 C 479.85 464.44 481.42 461.20 482.78 457.87 C 483.99 455.04 483.76 451.83 485.05 449.04 C 487.00 444.72 489.37 440.60 491.53 436.37 C 496.84 426.03 500.93 415.13 505.42 404.42 C 509.00 395.82 512.03 386.97 513.99 377.85 C 516.08 368.17 519.08 358.72 522.50 349.44 C 523.49 346.87 524.04 344.17 524.31 341.44 C 520.65 344.58 519.22 349.30 517.51 353.63 C 514.17 362.61 511.16 371.72 508.87 381.03 C 506.02 392.39 501.28 403.11 496.97 413.95 C 492.73 425.30 487.39 436.17 482.25 447.13 C 480.33 441.97 478.32 436.65 478.53 431.06 C 478.47 421.96 483.38 413.32 481.47 404.16 C 479.64 395.66 476.03 387.68 473.79 379.29 C 469.42 365.94 467.20 352.01 466.06 338.03 C 462.97 312.09 465.12 285.80 469.66 260.16 C 472.42 245.95 475.79 231.74 481.24 218.29 C 486.45 207.65 491.52 196.54 500.14 188.15 C 505.38 182.99 511.17 178.41 516.98 173.92 M 524.00 256.58 C 525.27 258.10 526.66 259.59 528.45 260.52 C 536.75 265.13 545.82 268.19 553.99 273.05 C 562.46 278.07 569.39 285.13 576.82 291.47 C 575.15 285.70 570.12 282.02 565.84 278.20 C 558.67 272.00 550.56 266.97 541.87 263.17 C 536.03 260.72 530.52 256.83 524.00 256.58 M 528.45 389.37 C 521.80 405.04 512.90 419.58 503.94 433.99 C 495.78 446.71 488.86 460.31 479.14 471.95 C 481.22 471.93 483.41 471.54 484.70 469.72 C 489.83 463.67 493.90 456.81 498.19 450.17 C 506.58 436.51 515.76 423.31 523.14 409.06 C 526.78 402.15 529.51 394.81 532.69 387.68 C 534.05 384.52 535.74 381.30 535.39 377.75 C 531.96 380.86 530.35 385.28 528.45 389.37 M 498.35 465.37 C 495.94 468.30 492.94 470.81 491.11 474.16 C 489.91 476.28 491.92 478.59 494.07 478.74 C 505.96 480.68 518.04 479.69 530.02 479.81 C 536.95 479.71 543.88 480.57 550.80 479.91 C 549.72 478.79 548.48 477.76 546.87 477.69 C 529.70 475.25 512.28 476.78 495.06 474.92 C 497.75 471.04 502.39 467.79 502.50 462.71 C 500.57 462.40 499.54 464.25 498.35 465.37 Z" />
		<path fill="var(--shirt-color, grey)" opacity="1.00"
			d=" M 593.90 472.95 C 597.21 457.64 602.00 442.72 606.22 427.65 C 609.85 439.49 611.21 451.82 613.08 464.01 C 614.81 478.12 617.98 492.02 621.84 505.69 C 614.13 508.36 606.15 510.03 598.14 511.41 C 595.87 502.55 594.90 493.36 591.53 484.81 C 591.65 480.77 593.11 476.90 593.90 472.95 Z" />
	</g>
	<g id="#2b3dcdff">
		<path fill="var(--pants-color, grey)" opacity="1.00"
			d=" M 477.89 500.22 C 492.32 506.30 507.68 509.95 523.12 512.33 C 532.86 513.81 542.74 514.67 552.60 514.02 C 552.66 519.90 552.68 525.90 554.38 531.58 C 554.98 533.72 557.12 534.79 558.74 536.09 C 559.83 540.83 560.65 545.73 562.87 550.12 C 563.80 552.06 565.68 553.84 568.01 553.53 C 569.78 552.78 571.22 551.46 572.74 550.32 C 575.55 551.37 578.77 553.74 581.74 551.89 C 585.17 549.56 585.72 545.07 586.41 541.33 C 588.44 541.29 591.09 542.49 592.67 540.68 C 594.81 538.19 593.83 534.70 593.57 531.77 C 595.28 531.58 597.90 532.76 598.80 530.67 C 600.87 525.98 599.46 520.66 599.04 515.75 C 603.73 515.29 608.34 514.30 612.93 513.25 C 616.69 531.91 615.47 551.77 608.51 569.56 C 603.95 582.15 596.75 594.10 595.77 607.71 C 594.99 618.82 593.66 629.88 593.07 641.00 C 592.44 650.55 592.67 660.16 591.57 669.67 C 581.96 675.04 570.90 676.94 560.06 677.80 C 549.75 678.80 539.39 678.49 529.07 678.00 C 533.52 668.38 538.10 658.62 539.83 648.06 C 541.37 638.62 541.67 629.02 543.23 619.58 C 544.78 610.57 548.07 601.99 551.54 593.57 C 552.55 591.11 553.23 588.53 553.71 585.93 C 549.66 590.27 547.53 595.90 545.27 601.28 C 542.13 609.21 539.40 617.39 538.32 625.89 C 536.69 637.67 536.31 649.81 531.89 661.01 C 529.10 667.77 527.03 674.92 523.33 681.25 C 520.30 686.13 513.92 685.25 509.02 685.05 C 486.16 683.15 463.30 678.72 442.05 669.91 C 432.48 665.84 423.75 660.07 415.33 654.01 C 423.35 637.39 428.64 619.68 434.38 602.19 C 437.64 592.28 440.36 582.16 444.65 572.62 C 448.40 563.90 453.59 555.87 459.26 548.29 C 462.78 543.51 467.17 539.48 470.94 534.91 C 473.41 532.05 473.77 528.16 474.84 524.68 C 475.47 522.39 476.55 520.24 477.03 517.91 C 476.64 515.57 475.47 513.42 475.27 511.05 C 475.16 507.27 476.67 503.72 477.89 500.22 Z" />
		<path fill="var(--socks-color, grey)" opacity="1.00"
			d=" M 553.96 732.10 C 562.34 727.94 571.67 726.26 580.91 725.44 C 587.82 724.92 594.86 724.66 601.65 726.28 C 606.36 743.43 607.69 761.33 607.19 779.05 C 606.58 800.39 605.68 821.71 604.69 843.04 C 604.09 855.15 602.68 867.21 600.20 879.09 C 592.35 883.69 582.39 882.44 574.60 878.41 C 571.82 876.78 568.69 874.49 568.22 871.08 C 568.09 833.70 558.57 797.21 555.42 760.10 C 555.15 750.75 555.56 741.36 553.96 732.10 Z" />
		<path fill="var(--socks-color, grey)" opacity="1.00"
			d=" M 460.22 733.41 C 466.03 731.89 471.57 729.50 476.76 726.51 C 480.39 734.02 484.26 741.53 486.21 749.70 C 488.15 758.11 486.29 766.70 485.21 775.09 C 482.30 797.36 480.08 819.72 477.89 842.06 C 477.40 849.04 477.70 856.04 477.47 863.03 C 477.21 876.77 481.38 890.31 480.04 904.06 C 479.89 907.94 476.35 910.58 472.93 911.62 C 468.22 913.09 463.17 911.48 459.24 908.79 C 450.57 902.92 441.54 897.34 434.33 889.65 C 432.32 887.42 429.60 885.60 428.48 882.74 C 427.23 876.90 428.26 870.90 428.57 865.02 C 429.99 848.59 427.90 832.16 425.83 815.89 C 422.76 796.74 421.74 777.32 421.38 757.95 C 421.20 749.95 421.11 741.92 419.93 733.99 C 433.02 737.98 447.14 736.81 460.22 733.41 Z" />
	</g>
	<g id="#4d4d4dff">
		<path fill="#4d4d4d" opacity="1.00"
			d=" M 544.97 882.17 C 551.77 882.42 559.01 881.41 564.36 876.83 C 568.13 881.59 573.29 885.20 579.19 886.77 C 586.04 888.68 593.98 889.08 600.29 885.34 C 603.29 883.67 604.52 880.31 605.92 877.40 C 614.12 891.43 617.20 908.35 614.37 924.36 C 613.48 930.03 606.81 933.10 601.62 931.46 C 586.07 927.08 571.03 920.79 555.07 917.94 C 541.55 915.88 527.72 914.42 514.99 909.08 C 508.38 906.22 501.60 902.44 497.81 896.07 C 495.90 893.01 495.45 888.75 497.73 885.76 C 500.42 882.38 504.90 881.20 509.02 880.76 C 521.02 879.54 532.99 881.71 544.97 882.17 Z" />
		<path fill="#4d4d4d" opacity="1.00"
			d=" M 414.85 911.89 C 421.11 906.92 426.19 900.35 433.61 896.97 C 440.63 902.08 447.08 908.01 454.62 912.39 C 459.19 915.34 464.45 917.92 470.06 917.25 C 474.36 917.10 477.97 914.55 481.23 912.00 C 482.21 921.69 483.15 931.75 480.29 941.24 C 478.88 945.96 475.39 950.31 470.43 951.51 C 463.73 953.26 456.71 951.81 449.91 952.87 C 434.58 954.78 420.43 961.86 405.06 963.61 C 390.52 965.21 375.38 968.60 361.05 964.00 C 356.18 962.34 350.86 960.66 347.46 956.57 C 344.21 952.41 346.95 946.55 350.39 943.43 C 360.57 935.08 373.77 932.32 385.91 928.01 C 396.44 924.45 406.22 918.88 414.85 911.89 Z" />
	</g>
</svg>