<?xml version="1.0" encoding="UTF-8" ?>
<!DOCTYPE svg PUBLIC "-//W3C//DTD SVG 1.1//EN" "http://www.w3.org/Graphics/SVG/1.1/DTD/svg11.dtd">
<svg width="1000pt" height="1000pt" viewBox="0 0 1000 1000" version="1.1" xmlns="http://www.w3.org/2000/svg">
	<g id="#020202ff">
		<path fill="#020202" opacity="1.00"
			d=" M 347.26 49.25 C 359.04 42.18 373.45 40.74 386.84 42.69 C 400.06 44.78 413.10 49.84 423.26 58.73 C 432.46 67.10 438.84 79.41 437.64 92.09 C 437.40 96.85 435.68 101.33 434.84 105.97 C 435.53 115.18 439.69 124.20 446.72 130.30 C 454.73 126.13 462.64 120.57 472.02 120.41 C 480.51 120.10 488.11 124.48 495.02 128.91 C 503.86 134.83 513.84 138.86 524.01 141.86 C 532.58 143.65 541.34 144.24 549.98 145.60 C 555.79 146.58 561.26 149.42 565.63 153.35 C 570.26 157.54 572.91 163.34 576.89 168.07 C 580.82 172.98 587.09 175.09 591.35 179.64 C 596.11 184.39 598.82 190.73 600.42 197.17 C 602.68 197.27 605.05 197.05 607.23 197.85 C 608.27 199.36 607.22 201.08 606.96 202.66 C 608.86 203.76 611.25 204.52 612.29 206.65 C 613.70 209.13 614.54 212.39 617.57 213.40 C 623.19 215.76 630.09 216.88 633.49 222.56 C 635.64 225.65 632.96 229.03 631.65 231.86 C 640.40 238.65 648.50 246.37 658.19 251.87 C 666.33 256.59 675.39 260.11 682.13 266.90 C 690.22 274.62 694.20 285.31 698.60 295.32 C 702.44 304.28 707.47 312.65 711.43 321.54 C 716.27 332.29 718.17 344.32 724.81 354.23 C 729.21 361.98 731.60 370.83 736.95 378.06 C 741.45 382.95 748.62 384.00 753.44 388.45 C 757.06 392.66 755.64 398.76 755.34 403.81 C 754.22 409.05 754.76 415.48 750.40 419.35 C 746.62 422.51 741.33 421.10 736.89 420.71 C 732.28 419.98 727.09 419.57 723.75 415.89 C 719.53 416.25 714.59 417.87 710.87 415.09 C 708.88 413.76 709.72 411.24 710.36 409.43 C 707.97 408.76 704.57 408.81 703.60 406.00 C 702.95 403.39 705.29 401.72 707.14 400.45 C 702.84 393.07 704.19 384.17 702.64 376.10 C 700.63 370.11 695.87 365.66 692.29 360.61 C 686.66 353.62 681.59 346.15 675.22 339.80 C 664.29 328.37 652.22 317.75 643.83 304.18 C 639.64 297.60 635.73 290.43 629.24 285.79 C 622.07 280.54 614.23 276.30 606.37 272.21 C 605.69 273.89 605.70 277.00 603.09 276.45 C 597.80 273.59 592.06 271.11 588.23 266.26 C 586.92 270.01 584.87 273.44 583.40 277.12 C 582.43 281.00 582.84 285.05 583.04 289.00 C 583.66 296.87 583.41 304.92 581.39 312.58 C 579.79 318.56 573.18 321.70 572.21 327.94 C 571.53 330.89 571.78 333.96 572.52 336.87 C 574.15 342.78 573.33 348.97 573.79 355.00 C 573.94 357.65 576.03 359.52 577.76 361.29 C 584.91 368.24 591.78 375.80 596.02 384.92 C 599.74 393.44 602.14 402.45 604.26 411.47 C 604.98 415.18 606.06 419.46 603.82 422.87 C 601.61 426.34 597.62 427.98 593.75 428.75 C 597.65 442.82 589.89 456.47 582.66 468.00 C 586.03 477.98 588.64 488.43 588.47 499.03 C 587.77 513.04 583.98 526.85 584.67 540.94 C 584.96 549.20 590.13 556.00 594.20 562.81 C 596.81 567.48 600.06 571.90 601.71 577.04 C 602.81 579.74 600.99 582.34 599.48 584.44 C 594.18 591.23 586.83 595.91 580.08 601.10 C 576.24 604.06 572.09 606.56 567.82 608.83 C 566.16 621.13 566.06 633.57 566.44 645.95 C 566.43 661.06 567.17 676.18 569.35 691.14 C 570.68 699.36 570.99 707.71 570.92 716.03 C 571.18 727.70 571.65 739.41 570.54 751.06 C 569.38 762.47 567.98 773.86 566.23 785.20 C 565.14 794.10 563.38 803.02 564.06 812.03 C 564.23 829.38 564.23 846.91 568.02 863.93 C 571.23 877.39 570.39 891.32 570.54 905.04 C 569.74 919.67 568.52 934.32 565.84 948.75 C 563.82 958.72 561.35 968.96 555.22 977.30 C 550.61 984.18 543.80 990.88 534.97 990.91 C 531.49 991.30 528.42 989.38 525.91 987.21 C 516.34 979.43 511.03 967.14 510.67 954.94 C 510.58 950.26 511.95 945.71 512.10 941.05 C 512.38 930.31 513.75 919.65 514.35 908.93 C 515.64 895.29 513.68 881.62 514.35 867.97 C 514.42 853.91 517.15 840.07 518.32 826.10 C 519.05 812.17 519.11 797.94 515.40 784.39 C 511.51 770.46 507.51 756.45 506.18 742.00 C 505.10 730.69 504.01 719.36 503.93 707.99 C 504.02 700.66 504.54 693.04 501.85 686.06 C 500.34 682.14 498.81 678.20 498.17 674.03 C 495.85 659.11 495.49 643.97 494.02 628.96 C 492.96 620.41 491.08 611.94 491.19 603.28 C 484.48 604.74 477.81 606.43 470.99 607.26 C 468.94 607.68 467.36 605.72 467.16 603.88 C 466.39 599.66 466.60 595.34 466.59 591.08 C 464.94 592.94 463.68 595.64 461.04 596.20 C 458.67 595.85 456.49 594.82 454.28 593.97 C 454.07 605.71 448.04 615.95 443.17 626.25 C 437.35 636.74 434.34 648.46 429.21 659.27 C 426.14 666.45 423.23 673.79 421.81 681.49 C 418.60 703.23 423.01 725.80 416.13 747.03 C 412.05 759.23 407.61 771.57 400.15 782.18 C 396.63 787.36 393.59 792.85 390.13 798.08 C 385.81 804.56 383.20 811.95 380.42 819.17 C 373.55 836.68 370.42 855.40 363.39 872.85 C 367.07 874.88 367.01 879.40 368.12 882.96 C 369.49 889.68 373.51 895.55 374.41 902.40 C 375.19 908.31 375.44 914.85 372.13 920.10 C 369.03 925.94 362.36 929.07 355.96 929.40 C 345.39 930.05 335.51 924.65 324.96 925.37 C 314.44 925.61 304.56 930.54 293.96 929.96 C 281.28 929.99 269.91 922.42 261.82 913.19 C 258.65 909.77 259.68 904.02 263.61 901.68 C 273.67 894.83 286.52 895.37 297.35 890.30 C 304.97 887.37 309.81 880.22 317.20 876.89 C 316.24 866.08 320.59 855.95 323.63 845.82 C 331.22 822.26 330.61 797.25 333.38 772.91 C 336.25 748.18 340.39 723.49 347.84 699.70 C 352.56 687.06 357.07 674.34 361.77 661.70 C 366.92 649.43 368.60 636.11 370.19 623.02 C 371.17 614.57 368.42 606.35 367.70 598.01 C 366.87 591.89 367.06 585.72 367.65 579.60 C 366.51 577.21 365.37 574.77 365.13 572.11 C 364.07 563.36 365.78 554.63 366.99 546.00 C 368.51 535.56 370.02 525.10 372.54 514.84 C 375.68 502.44 376.07 489.44 380.59 477.39 C 383.41 470.54 382.04 463.01 383.41 455.89 C 384.80 448.15 385.04 440.19 387.29 432.63 C 384.92 431.79 382.31 431.29 380.29 429.71 C 378.63 427.91 379.34 425.19 379.04 422.98 C 376.73 422.52 374.23 422.19 372.42 420.54 C 368.75 417.35 367.39 412.40 364.00 408.97 C 362.04 406.93 359.85 404.82 359.31 401.92 C 358.39 397.20 359.57 392.44 360.59 387.85 C 361.49 384.28 360.30 380.40 361.91 377.00 C 363.44 373.73 365.51 370.66 368.10 368.14 C 373.30 363.52 380.60 362.35 385.83 357.78 C 390.62 353.73 395.25 349.48 399.86 345.22 C 399.17 337.50 398.45 329.72 399.26 321.98 C 397.38 321.78 395.11 321.27 394.82 319.02 C 393.23 310.82 396.23 302.47 394.78 294.26 C 392.60 286.15 387.93 279.03 384.67 271.35 C 378.35 256.76 378.95 240.21 381.91 224.89 C 385.02 208.79 396.02 195.87 406.84 184.18 C 405.28 177.41 400.61 172.16 395.98 167.26 C 390.81 172.58 385.85 178.80 378.71 181.50 C 373.96 183.44 368.66 181.26 365.52 177.50 C 359.99 170.89 355.97 163.21 352.16 155.52 C 347.76 156.18 343.41 157.30 338.95 157.45 C 336.45 157.69 333.61 155.77 334.16 153.00 C 335.63 140.84 334.69 128.42 331.49 116.60 C 328.85 107.40 326.89 97.50 329.58 88.08 C 325.37 82.14 328.08 74.25 332.70 69.43 C 334.07 60.85 339.92 53.60 347.26 49.25 M 340.38 79.35 C 336.42 83.79 339.27 89.76 341.26 94.39 C 337.53 95.57 334.78 92.28 332.05 90.33 C 331.75 96.85 332.81 103.31 334.41 109.61 C 342.13 102.84 353.08 100.56 362.99 102.98 C 364.97 103.47 368.19 104.10 367.90 106.79 C 364.01 112.23 358.35 116.03 353.31 120.31 C 351.73 121.39 350.24 123.20 348.14 122.92 C 345.87 121.07 344.78 118.17 342.91 115.95 C 340.56 115.47 338.23 114.93 335.91 114.37 C 339.61 126.65 341.16 139.73 339.31 152.48 C 343.87 151.95 348.41 151.05 353.02 151.08 C 354.62 150.97 355.66 152.35 356.35 153.60 C 358.79 157.81 360.96 162.20 363.86 166.13 C 366.38 169.56 368.36 173.58 371.94 176.06 C 374.69 177.85 378.17 176.43 380.57 174.69 C 388.14 168.94 394.11 161.47 400.37 154.39 C 401.78 153.03 403.01 151.20 404.98 150.65 C 406.79 149.86 407.15 152.45 406.34 153.46 C 403.90 157.28 400.84 160.68 398.21 164.38 C 403.64 168.46 409.18 173.36 410.72 180.30 C 413.37 177.51 416.66 175.39 419.26 172.57 C 422.48 164.19 423.70 155.04 428.02 147.08 C 431.75 141.36 437.00 136.78 442.50 132.80 C 436.38 128.16 433.10 120.79 431.81 113.39 C 429.13 118.83 427.12 124.55 426.07 130.54 C 422.82 124.44 425.78 117.35 427.56 111.23 C 420.83 118.36 412.26 124.27 402.68 126.63 C 402.75 120.71 404.25 114.89 403.92 108.95 C 403.83 103.27 401.55 97.43 397.04 93.84 C 395.10 92.12 391.69 91.94 390.03 94.12 C 387.70 97.17 387.38 101.18 385.62 104.48 C 382.37 105.94 378.92 108.13 375.26 107.75 C 373.88 105.94 373.34 103.69 372.48 101.63 C 370.50 96.40 367.50 91.53 363.37 87.73 C 359.70 91.50 353.64 95.68 348.40 92.58 C 347.58 89.23 348.84 85.36 346.54 82.41 C 345.40 80.29 342.88 76.89 340.38 79.35 M 450.70 132.66 C 443.45 136.35 437.26 141.86 432.08 148.07 C 427.92 154.51 426.95 162.32 424.22 169.38 C 429.08 166.20 433.56 162.40 438.75 159.77 C 439.80 159.35 441.63 158.62 442.26 160.05 C 441.78 161.78 440.28 162.85 438.96 163.92 C 430.85 170.11 422.62 176.17 415.03 183.00 C 406.11 191.51 397.64 200.75 391.79 211.68 C 386.52 221.58 384.99 232.96 384.76 244.04 C 384.61 249.61 385.23 255.18 386.50 260.60 C 388.71 270.60 394.86 279.08 398.26 288.64 C 402.06 297.48 397.75 306.89 398.56 316.03 C 409.24 308.83 422.22 305.59 435.00 305.46 C 445.43 305.39 455.73 310.64 461.68 319.22 C 463.31 313.66 464.88 307.93 464.46 302.08 C 463.90 294.74 462.19 287.45 459.21 280.71 C 452.95 267.37 443.07 256.28 434.52 244.43 C 432.08 241.15 429.06 237.94 428.69 233.66 C 434.57 239.04 439.63 245.22 444.74 251.32 C 450.87 258.20 456.36 265.66 461.05 273.60 C 457.50 253.07 450.61 233.14 440.77 214.78 C 442.19 215.80 443.68 216.82 444.63 218.34 C 448.08 223.54 450.61 229.27 453.04 235.00 C 458.87 248.82 463.44 263.28 465.36 278.20 C 465.73 281.95 466.16 285.72 467.23 289.35 C 471.93 285.72 476.49 281.91 480.74 277.77 C 493.09 265.61 504.82 252.52 513.21 237.23 C 515.17 234.20 516.09 230.42 518.95 228.04 C 518.96 232.10 517.06 235.75 515.29 239.28 C 511.03 247.39 506.26 255.28 500.30 262.26 C 490.74 273.51 480.60 284.56 468.09 292.60 C 468.54 295.48 468.95 298.36 469.33 301.25 C 483.87 294.80 498.26 287.67 510.91 277.92 C 517.59 272.94 523.68 267.21 530.53 262.46 C 535.66 258.76 539.07 253.36 543.10 248.61 C 542.51 253.28 539.38 257.02 536.45 260.48 C 531.07 266.46 524.76 271.49 518.71 276.76 C 504.30 289.23 487.50 299.00 469.40 305.02 C 468.99 309.31 468.30 313.61 466.76 317.66 C 465.91 320.02 464.54 322.49 462.07 323.45 C 459.03 323.53 457.07 320.78 454.91 319.09 C 454.16 327.77 452.85 336.39 451.95 345.06 C 450.65 354.75 449.56 364.52 446.89 373.95 C 445.19 380.02 441.32 385.85 435.33 388.35 C 424.79 392.93 413.02 391.36 401.90 390.65 C 398.84 390.50 395.02 390.22 392.94 392.95 C 385.91 402.46 384.79 414.74 384.91 426.19 C 390.87 427.99 397.08 428.80 402.97 430.87 C 413.06 433.92 423.38 438.01 434.13 436.49 C 450.46 434.86 464.62 425.41 480.72 422.84 C 492.03 420.86 503.54 419.19 515.05 420.11 C 523.39 420.66 531.70 419.19 540.05 419.60 C 544.82 419.96 548.53 416.43 552.75 414.82 C 567.02 408.57 583.04 404.71 598.61 407.36 C 596.52 400.29 594.57 393.14 591.60 386.37 C 587.73 378.11 581.59 371.20 575.22 364.79 C 573.04 362.53 570.56 360.20 569.98 356.97 C 569.31 353.10 569.97 349.17 569.99 345.29 C 555.73 344.73 541.30 346.80 528.06 352.23 C 524.84 353.39 521.82 355.24 518.40 355.76 C 516.51 355.01 518.13 352.83 519.21 352.19 C 533.90 342.98 551.72 339.22 568.94 340.92 C 566.96 335.33 566.25 329.01 568.53 323.40 C 570.40 318.71 575.24 315.98 577.05 311.28 C 579.68 302.16 579.07 292.56 579.25 283.18 C 572.69 292.52 564.25 300.29 557.25 309.26 C 552.25 315.25 547.89 321.91 541.67 326.77 C 534.13 333.27 523.58 335.25 516.81 342.81 C 515.78 344.33 512.35 346.35 512.69 343.00 C 515.74 336.50 521.85 331.95 528.42 329.36 C 535.59 326.50 541.78 321.54 546.64 315.59 C 552.61 308.24 558.33 300.69 564.83 293.80 C 574.79 282.70 583.92 269.88 586.51 254.88 C 588.01 247.62 586.71 240.23 585.54 233.03 C 585.13 229.65 584.23 226.02 585.88 222.82 C 588.21 227.92 588.82 233.57 590.11 238.98 C 591.68 246.22 591.50 253.71 589.84 260.92 C 593.35 264.83 597.69 267.84 602.32 270.31 C 608.30 253.33 622.74 241.27 630.16 225.03 C 625.81 219.56 618.03 220.29 612.81 216.20 C 609.28 213.65 609.30 208.47 605.46 206.17 C 603.43 210.33 601.71 214.63 600.11 218.98 C 599.18 221.12 598.53 223.90 595.94 224.60 C 596.41 216.17 600.99 208.80 603.75 201.01 C 602.07 201.06 600.88 201.80 600.19 203.25 C 597.88 206.73 596.62 211.21 592.96 213.58 C 592.59 213.22 591.85 212.48 591.48 212.11 C 592.17 208.15 594.47 204.77 596.27 201.26 C 594.38 195.42 592.86 189.16 588.67 184.45 C 584.90 179.68 578.87 177.63 574.67 173.34 C 568.56 167.41 565.26 158.74 557.58 154.45 C 551.20 150.23 543.27 150.78 536.09 149.17 C 524.68 147.52 513.71 143.66 503.26 138.88 C 493.12 134.33 484.60 125.48 472.99 124.77 C 464.73 124.13 457.69 129.06 450.70 132.66 M 607.61 268.52 C 616.13 271.66 623.95 276.41 631.32 281.66 C 638.64 286.80 643.36 294.59 648.06 302.01 C 656.48 315.28 668.82 325.23 679.38 336.66 C 685.41 342.70 690.30 349.72 695.72 356.29 C 699.73 361.97 704.77 367.17 707.04 373.87 C 708.69 380.09 709.02 386.57 709.40 392.97 C 709.56 395.59 710.72 398.49 713.38 399.47 C 716.64 400.65 720.19 400.10 723.58 400.19 C 721.47 398.36 718.00 397.20 717.96 393.92 C 722.90 395.19 727.10 398.23 731.63 400.46 C 735.85 402.82 740.63 404.45 744.16 407.89 C 745.71 409.43 744.51 411.95 742.67 412.60 C 737.82 415.64 731.96 411.27 727.08 414.29 C 729.55 416.36 732.90 416.39 735.94 416.82 C 739.26 417.16 742.62 417.66 745.97 417.25 C 748.41 416.84 749.71 414.34 750.07 412.11 C 751.14 405.84 752.50 399.48 751.80 393.10 C 751.62 391.59 750.39 390.54 749.17 389.84 C 744.72 387.25 739.67 385.68 735.63 382.40 C 732.77 380.07 731.03 376.73 729.56 373.42 C 727.01 367.45 724.30 361.53 721.13 355.86 C 713.69 344.74 711.55 331.20 705.64 319.35 C 700.71 309.58 695.77 299.82 691.20 289.88 C 687.51 282.29 683.46 274.59 677.04 268.92 C 669.50 261.92 659.41 258.78 651.12 252.88 C 643.56 247.48 636.33 241.59 629.83 234.94 C 622.65 246.28 613.24 256.21 607.61 268.52 M 403.05 318.93 C 402.93 323.01 403.05 327.10 403.55 331.16 C 404.72 340.98 405.14 351.02 408.32 360.46 C 409.24 363.38 410.70 366.12 411.33 369.13 C 409.90 371.45 407.53 369.03 406.67 367.46 C 403.50 361.80 401.70 355.46 400.35 349.15 C 396.09 353.95 391.54 358.52 386.40 362.38 C 381.10 366.31 373.98 367.45 369.44 372.45 C 367.01 375.43 364.29 378.89 364.86 383.00 C 365.33 389.11 361.78 394.93 363.13 401.06 C 363.97 404.13 367.17 405.58 368.90 408.09 C 371.99 412.16 373.58 418.01 379.01 419.64 C 378.63 409.61 382.71 400.14 387.54 391.59 C 389.62 387.79 393.75 385.43 398.08 385.43 C 409.50 385.12 421.43 387.83 432.43 383.53 C 437.61 381.75 440.25 376.42 441.61 371.48 C 446.38 353.49 447.31 334.74 451.89 316.71 C 447.49 313.69 442.47 311.39 437.08 311.11 C 425.28 310.44 413.54 313.64 403.05 318.93 M 712.23 403.78 C 710.10 403.10 708.11 404.65 706.14 405.08 C 714.45 407.25 722.96 405.28 731.36 404.84 C 729.97 404.03 728.61 403.23 727.23 402.43 C 722.53 404.42 717.21 404.89 712.23 403.78 M 715.36 409.66 C 713.87 409.92 713.36 411.53 712.60 412.61 C 716.42 413.30 720.30 412.65 724.06 411.89 C 726.49 411.35 728.49 409.37 731.09 409.45 C 734.13 409.58 737.16 410.03 740.23 410.03 C 738.80 409.02 737.35 408.07 735.88 407.15 C 729.13 408.64 722.16 408.50 715.36 409.66 M 587.64 411.03 C 589.52 415.50 591.11 420.09 592.78 424.65 C 595.58 423.46 599.12 422.65 600.61 419.71 C 601.34 416.95 600.26 414.13 599.75 411.42 C 595.71 411.23 591.68 411.07 587.64 411.03 M 551.20 421.24 C 546.95 423.82 541.89 424.60 537.00 424.75 C 528.64 424.73 520.32 426.03 511.96 425.21 C 494.35 425.04 476.47 427.59 460.06 434.18 C 450.11 437.93 439.79 441.49 429.04 441.62 C 416.22 441.70 404.39 436.10 392.02 433.60 C 390.07 440.91 389.80 448.53 388.49 455.97 C 387.08 463.55 388.63 471.55 385.63 478.84 C 380.85 491.38 380.63 504.98 377.51 517.93 C 375.76 525.31 374.40 532.77 373.32 540.28 C 371.66 551.91 368.85 563.51 369.63 575.34 C 376.45 572.87 382.83 569.14 390.02 567.74 C 402.75 564.63 416.66 567.25 427.45 574.67 C 433.55 578.38 437.94 584.64 444.77 587.16 C 449.88 588.63 455.35 588.60 460.32 590.65 C 462.67 587.90 464.65 584.76 467.54 582.54 C 468.34 581.79 470.70 581.68 470.55 583.27 C 470.67 589.55 470.59 595.85 471.43 602.10 C 496.43 597.19 521.64 591.32 544.39 579.45 C 552.01 575.37 559.90 571.66 568.34 569.61 C 569.00 571.05 569.70 572.49 570.13 574.04 C 571.50 583.79 569.23 593.51 568.06 603.15 C 572.16 601.51 575.47 598.52 578.98 595.93 C 585.17 591.19 591.79 586.73 596.54 580.45 C 597.31 579.22 598.66 577.86 597.76 576.34 C 592.74 564.95 582.18 556.14 580.37 543.37 C 578.92 529.82 582.07 516.38 583.39 502.96 C 584.43 492.49 582.00 482.04 578.68 472.18 C 578.01 470.00 577.23 467.51 578.57 465.42 C 583.64 456.59 589.35 447.41 589.94 436.97 C 589.71 427.89 585.84 419.42 582.50 411.13 C 571.66 412.76 560.49 415.11 551.20 421.24 M 372.21 578.39 C 371.82 584.97 371.50 591.59 372.39 598.15 C 373.18 606.44 375.95 614.59 375.01 623.01 C 373.63 635.47 372.03 648.03 367.97 659.95 C 372.78 664.66 379.10 667.33 385.38 669.48 C 391.40 671.45 397.60 672.98 403.91 673.66 C 408.81 674.11 413.95 674.36 418.55 672.30 C 420.87 664.99 423.92 657.97 427.12 651.02 C 430.95 641.36 434.44 631.52 439.42 622.38 C 443.53 613.18 449.45 604.17 449.01 593.67 C 442.57 593.34 436.64 590.40 432.01 586.01 C 424.08 578.53 414.13 572.38 402.98 571.88 C 392.27 570.91 382.10 574.92 372.21 578.39 M 545.33 584.32 C 529.42 592.70 512.30 598.73 494.75 602.57 C 495.76 607.07 496.11 611.69 496.87 616.24 C 500.78 635.62 499.85 655.58 503.32 675.02 C 504.34 680.09 506.87 684.69 508.00 689.74 C 519.81 672.21 546.64 670.48 562.70 683.03 C 560.65 666.12 560.29 649.07 560.75 632.06 C 560.95 624.53 562.08 617.08 563.23 609.65 C 561.77 605.82 563.40 601.83 564.01 598.00 C 565.78 590.38 566.58 582.58 566.85 574.78 C 559.28 576.98 552.20 580.53 545.33 584.32 M 366.02 664.76 C 361.56 677.27 357.08 689.78 352.27 702.16 C 344.70 725.06 341.24 749.05 338.35 772.92 C 335.82 793.54 336.23 814.52 331.63 834.87 C 329.66 846.57 324.39 857.44 322.52 869.15 C 322.28 874.53 321.26 881.19 325.60 885.30 C 328.36 888.27 332.97 887.93 336.43 886.51 C 342.42 884.15 348.13 881.08 353.60 877.69 C 355.74 876.15 358.56 874.85 359.18 872.02 C 366.79 847.31 370.47 821.06 383.19 798.19 C 387.97 790.67 392.68 783.09 397.75 775.77 C 400.27 772.08 402.26 768.08 403.98 763.97 C 408.13 753.95 412.40 743.81 413.91 732.98 C 416.27 715.42 413.90 697.62 416.56 680.08 C 407.20 681.77 397.65 679.88 388.68 677.16 C 380.48 674.47 372.23 670.94 366.02 664.76 M 508.96 695.99 C 508.33 709.34 509.45 722.68 510.56 735.98 C 511.49 750.64 515.02 764.95 518.99 779.03 C 524.29 797.05 524.27 816.16 522.51 834.70 C 526.44 829.36 533.19 825.93 539.87 827.46 C 549.49 829.59 556.25 837.81 560.71 846.10 C 559.29 832.09 559.40 817.97 559.33 803.91 C 561.17 782.56 565.41 761.45 566.12 740.00 C 566.41 730.65 565.68 721.32 565.58 711.99 C 565.50 704.23 564.49 696.53 563.28 688.88 C 556.37 684.03 548.47 680.20 539.91 679.76 C 527.79 678.75 514.13 684.46 508.96 695.99 M 524.59 839.67 C 519.86 848.25 520.10 858.42 519.82 867.92 C 522.49 860.74 525.95 852.75 533.35 849.37 C 539.25 846.60 546.12 849.17 550.55 853.47 C 558.74 861.20 562.95 872.07 565.98 882.68 C 565.50 868.26 562.37 853.21 553.36 841.59 C 549.32 836.49 543.77 831.73 536.97 831.40 C 531.55 831.15 526.98 835.10 524.59 839.67 M 535.25 853.19 C 531.36 854.71 528.74 858.24 526.84 861.80 C 521.45 872.28 520.60 884.33 520.41 895.92 C 520.41 912.54 517.93 929.02 516.28 945.53 C 513.67 956.62 516.58 968.62 523.17 977.81 C 525.76 981.19 528.95 984.48 533.01 985.99 C 538.61 986.86 544.10 983.83 547.70 979.72 C 552.35 974.35 556.29 968.23 558.32 961.38 C 563.55 944.06 564.57 925.89 565.85 907.95 C 566.48 900.33 564.55 892.82 562.63 885.51 C 559.84 875.90 556.21 866.15 549.45 858.57 C 546.00 854.70 540.59 851.14 535.25 853.19 M 338.79 889.90 C 334.53 891.37 329.72 892.09 325.40 890.49 C 321.76 888.98 319.73 885.38 317.97 882.07 C 314.64 884.35 311.56 886.96 308.40 889.47 C 302.15 894.35 294.49 896.88 286.91 898.82 C 279.89 900.52 272.47 901.44 266.15 905.19 C 264.70 905.93 264.06 907.48 263.25 908.80 C 271.57 917.09 281.72 925.33 294.06 925.53 C 304.93 925.68 315.31 921.77 325.94 920.06 C 336.88 918.98 347.07 925.26 358.01 924.22 C 362.13 923.86 365.74 921.32 368.22 918.12 C 371.01 914.04 370.38 908.67 370.01 904.01 C 369.49 897.27 365.14 891.65 364.22 885.03 C 363.79 882.40 363.18 879.82 362.19 877.36 C 354.93 882.45 347.18 886.94 338.79 889.90 Z" />
	</g>
	<g id="#f0b58bff">
		<path fill="#f0b58b" opacity="1.00"
			d=" M 340.38 79.35 C 342.88 76.89 345.40 80.29 346.54 82.41 C 348.84 85.36 347.58 89.23 348.40 92.58 C 353.64 95.68 359.70 91.50 363.37 87.73 C 367.50 91.53 370.50 96.40 372.48 101.63 C 373.34 103.69 373.88 105.94 375.26 107.75 C 378.92 108.13 382.37 105.94 385.62 104.48 C 387.38 101.18 387.70 97.17 390.03 94.12 C 391.69 91.94 395.10 92.12 397.04 93.84 C 401.55 97.43 403.83 103.27 403.92 108.95 C 404.25 114.89 402.75 120.71 402.68 126.63 C 412.26 124.27 420.83 118.36 427.56 111.23 C 425.78 117.35 422.82 124.44 426.07 130.54 C 427.12 124.55 429.13 118.83 431.81 113.39 C 433.10 120.79 436.38 128.16 442.50 132.80 C 437.00 136.78 431.75 141.36 428.02 147.08 C 423.70 155.04 422.48 164.19 419.26 172.57 C 416.66 175.39 413.37 177.51 410.72 180.30 C 409.18 173.36 403.64 168.46 398.21 164.38 C 400.84 160.68 403.90 157.28 406.34 153.46 C 407.15 152.45 406.79 149.86 404.98 150.65 C 403.01 151.20 401.78 153.03 400.37 154.39 C 394.11 161.47 388.14 168.94 380.57 174.69 C 378.17 176.43 374.69 177.85 371.94 176.06 C 368.36 173.58 366.38 169.56 363.86 166.13 C 360.96 162.20 358.79 157.81 356.35 153.60 C 355.66 152.35 354.62 150.97 353.02 151.08 C 348.41 151.05 343.87 151.95 339.31 152.48 C 341.16 139.73 339.61 126.65 335.91 114.37 C 338.23 114.93 340.56 115.47 342.91 115.95 C 344.78 118.17 345.87 121.07 348.14 122.92 C 350.24 123.20 351.73 121.39 353.31 120.31 C 358.35 116.03 364.01 112.23 367.90 106.79 C 368.19 104.10 364.97 103.47 362.99 102.98 C 353.08 100.56 342.13 102.84 334.41 109.61 C 332.81 103.31 331.75 96.85 332.05 90.33 C 334.78 92.28 337.53 95.57 341.26 94.39 C 339.27 89.76 336.42 83.79 340.38 79.35 Z" />
		<path fill="#f0b58b" opacity="1.00"
			d=" M 607.61 268.52 C 613.24 256.21 622.65 246.28 629.83 234.94 C 636.33 241.59 643.56 247.48 651.12 252.88 C 659.41 258.78 669.50 261.92 677.04 268.92 C 683.46 274.59 687.51 282.29 691.20 289.88 C 695.77 299.82 700.71 309.58 705.64 319.35 C 711.55 331.20 713.69 344.74 721.13 355.86 C 724.30 361.53 727.01 367.45 729.56 373.42 C 731.03 376.73 732.77 380.07 735.63 382.40 C 739.67 385.68 744.72 387.25 749.17 389.84 C 750.39 390.54 751.62 391.59 751.80 393.10 C 752.50 399.48 751.14 405.84 750.07 412.11 C 749.71 414.34 748.41 416.84 745.97 417.25 C 742.62 417.66 739.26 417.16 735.94 416.82 C 732.90 416.39 729.55 416.36 727.08 414.29 C 731.96 411.27 737.82 415.64 742.67 412.60 C 744.51 411.95 745.71 409.43 744.16 407.89 C 740.63 404.45 735.85 402.82 731.63 400.46 C 727.10 398.23 722.90 395.19 717.96 393.92 C 718.00 397.20 721.47 398.36 723.58 400.19 C 720.19 400.10 716.64 400.65 713.38 399.47 C 710.72 398.49 709.56 395.59 709.40 392.97 C 709.02 386.57 708.69 380.09 707.04 373.87 C 704.77 367.17 699.73 361.97 695.72 356.29 C 690.30 349.72 685.41 342.70 679.38 336.66 C 668.82 325.23 656.48 315.28 648.06 302.01 C 643.36 294.59 638.64 286.80 631.32 281.66 C 623.95 276.41 616.13 271.66 607.61 268.52 Z" />
		<path fill="#f0b58b" opacity="1.00"
			d=" M 403.05 318.93 C 413.54 313.64 425.28 310.44 437.08 311.11 C 442.47 311.39 447.49 313.69 451.89 316.71 C 447.31 334.74 446.38 353.49 441.61 371.48 C 440.25 376.42 437.61 381.75 432.43 383.53 C 421.43 387.83 409.50 385.12 398.08 385.43 C 393.75 385.43 389.62 387.79 387.54 391.59 C 382.71 400.14 378.63 409.61 379.01 419.64 C 373.58 418.01 371.99 412.16 368.90 408.09 C 367.17 405.58 363.97 404.13 363.13 401.06 C 361.78 394.93 365.33 389.11 364.86 383.00 C 364.29 378.89 367.01 375.43 369.44 372.45 C 373.98 367.45 381.10 366.31 386.40 362.38 C 391.54 358.52 396.09 353.95 400.35 349.15 C 401.70 355.46 403.50 361.80 406.67 367.46 C 407.53 369.03 409.90 371.45 411.33 369.13 C 410.70 366.12 409.24 363.38 408.32 360.46 C 405.14 351.02 404.72 340.98 403.55 331.16 C 403.05 327.10 402.93 323.01 403.05 318.93 Z" />
		<path fill="#f0b58b" opacity="1.00"
			d=" M 712.23 403.78 C 717.21 404.89 722.53 404.42 727.23 402.43 C 728.61 403.23 729.97 404.03 731.36 404.84 C 722.96 405.28 714.45 407.25 706.14 405.08 C 708.11 404.65 710.10 403.10 712.23 403.78 Z" />
		<path fill="#f0b58b" opacity="1.00"
			d=" M 715.36 409.66 C 722.16 408.50 729.13 408.64 735.88 407.15 C 737.35 408.07 738.80 409.02 740.23 410.03 C 737.16 410.03 734.13 409.58 731.09 409.45 C 728.49 409.37 726.49 411.35 724.06 411.89 C 720.30 412.65 716.42 413.30 712.60 412.61 C 713.36 411.53 713.87 409.92 715.36 409.66 Z" />
		<path fill="#f0b58b" opacity="1.00"
			d=" M 372.21 578.39 C 382.10 574.92 392.27 570.91 402.98 571.88 C 414.13 572.38 424.08 578.53 432.01 586.01 C 436.64 590.40 442.57 593.34 449.01 593.67 C 449.45 604.17 443.53 613.18 439.42 622.38 C 434.44 631.52 430.95 641.36 427.12 651.02 C 423.92 657.97 420.87 664.99 418.55 672.30 C 413.95 674.36 408.81 674.11 403.91 673.66 C 397.60 672.98 391.40 671.45 385.38 669.48 C 379.10 667.33 372.78 664.66 367.97 659.95 C 372.03 648.03 373.63 635.47 375.01 623.01 C 375.95 614.59 373.18 606.44 372.39 598.15 C 371.50 591.59 371.82 584.97 372.21 578.39 Z" />
		<path fill="#f0b58b" opacity="1.00"
			d=" M 545.33 584.32 C 552.20 580.53 559.28 576.98 566.85 574.78 C 566.58 582.58 565.78 590.38 564.01 598.00 C 563.40 601.83 561.77 605.82 563.23 609.65 C 562.08 617.08 560.95 624.53 560.75 632.06 C 560.29 649.07 560.65 666.12 562.70 683.03 C 546.64 670.48 519.81 672.21 508.00 689.74 C 506.87 684.69 504.34 680.09 503.32 675.02 C 499.85 655.58 500.78 635.62 496.87 616.24 C 496.11 611.69 495.76 607.07 494.75 602.57 C 512.30 598.73 529.42 592.70 545.33 584.32 Z" />
	</g>
	<g id="#f11b27ff">
		<path fill="var(--shirt-color, grey)" opacity="1.00"
			d=" M 450.70 132.66 C 457.69 129.06 464.73 124.13 472.99 124.77 C 484.60 125.48 493.12 134.33 503.26 138.88 C 513.71 143.66 524.68 147.52 536.09 149.17 C 543.27 150.78 551.20 150.23 557.58 154.45 C 565.26 158.74 568.56 167.41 574.67 173.34 C 578.87 177.63 584.90 179.68 588.67 184.45 C 592.86 189.16 594.38 195.42 596.27 201.26 C 594.47 204.77 592.17 208.15 591.48 212.11 C 591.85 212.48 592.59 213.22 592.96 213.58 C 596.62 211.21 597.88 206.73 600.19 203.25 C 600.88 201.80 602.07 201.06 603.75 201.01 C 600.99 208.80 596.41 216.17 595.94 224.60 C 598.53 223.90 599.18 221.12 600.11 218.98 C 601.71 214.63 603.43 210.33 605.46 206.17 C 609.30 208.47 609.28 213.65 612.81 216.20 C 618.03 220.29 625.81 219.56 630.16 225.03 C 622.74 241.27 608.30 253.33 602.32 270.31 C 597.69 267.84 593.35 264.83 589.84 260.92 C 591.50 253.71 591.68 246.22 590.11 238.98 C 588.82 233.57 588.21 227.92 585.88 222.82 C 584.23 226.02 585.13 229.65 585.54 233.03 C 586.71 240.23 588.01 247.62 586.51 254.88 C 583.92 269.88 574.79 282.70 564.83 293.80 C 558.33 300.69 552.61 308.24 546.64 315.59 C 541.78 321.54 535.59 326.50 528.42 329.36 C 521.85 331.95 515.74 336.50 512.69 343.00 C 512.35 346.35 515.78 344.33 516.81 342.81 C 523.58 335.25 534.13 333.27 541.67 326.77 C 547.89 321.91 552.25 315.25 557.25 309.26 C 564.25 300.29 572.69 292.52 579.25 283.18 C 579.07 292.56 579.68 302.16 577.05 311.28 C 575.24 315.98 570.40 318.71 568.53 323.40 C 566.25 329.01 566.96 335.33 568.94 340.92 C 551.72 339.22 533.90 342.98 519.21 352.19 C 518.13 352.83 516.51 355.01 518.40 355.76 C 521.82 355.24 524.84 353.39 528.06 352.23 C 541.30 346.80 555.73 344.73 569.99 345.29 C 569.97 349.17 569.31 353.10 569.98 356.97 C 570.56 360.20 573.04 362.53 575.22 364.79 C 581.59 371.20 587.73 378.11 591.60 386.37 C 594.57 393.14 596.52 400.29 598.61 407.36 C 583.04 404.71 567.02 408.57 552.75 414.82 C 548.53 416.43 544.82 419.96 540.05 419.60 C 531.70 419.19 523.39 420.66 515.05 420.11 C 503.54 419.19 492.03 420.86 480.72 422.84 C 464.62 425.41 450.46 434.86 434.13 436.49 C 423.38 438.01 413.06 433.92 402.97 430.87 C 397.08 428.80 390.87 427.99 384.91 426.19 C 384.79 414.74 385.91 402.46 392.94 392.95 C 395.02 390.22 398.84 390.50 401.90 390.65 C 413.02 391.36 424.79 392.93 435.33 388.35 C 441.32 385.85 445.19 380.02 446.89 373.95 C 449.56 364.52 450.65 354.75 451.95 345.06 C 452.85 336.39 454.16 327.77 454.91 319.09 C 457.07 320.78 459.03 323.53 462.07 323.45 C 464.54 322.49 465.91 320.02 466.76 317.66 C 468.30 313.61 468.99 309.31 469.40 305.02 C 487.50 299.00 504.30 289.23 518.71 276.76 C 524.76 271.49 531.07 266.46 536.45 260.48 C 539.38 257.02 542.51 253.28 543.10 248.61 C 539.07 253.36 535.66 258.76 530.53 262.46 C 523.68 267.21 517.59 272.94 510.91 277.92 C 498.26 287.67 483.87 294.80 469.33 301.25 C 468.95 298.36 468.54 295.48 468.09 292.60 C 480.60 284.56 490.74 273.51 500.30 262.26 C 506.26 255.28 511.03 247.39 515.29 239.28 C 517.06 235.75 518.96 232.10 518.95 228.04 C 516.09 230.42 515.17 234.20 513.21 237.23 C 504.82 252.52 493.09 265.61 480.74 277.77 C 476.49 281.91 471.93 285.72 467.23 289.35 C 466.16 285.72 465.73 281.95 465.36 278.20 C 463.44 263.28 458.87 248.82 453.04 235.00 C 450.61 229.27 448.08 223.54 444.63 218.34 C 443.68 216.82 442.19 215.80 440.77 214.78 C 450.61 233.14 457.50 253.07 461.05 273.60 C 456.36 265.66 450.87 258.20 444.74 251.32 C 439.63 245.22 434.57 239.04 428.69 233.66 C 429.06 237.94 432.08 241.15 434.52 244.43 C 443.07 256.28 452.95 267.37 459.21 280.71 C 462.19 287.45 463.90 294.74 464.46 302.08 C 464.88 307.93 463.31 313.66 461.68 319.22 C 455.73 310.64 445.43 305.39 435.00 305.46 C 422.22 305.59 409.24 308.83 398.56 316.03 C 397.75 306.89 402.06 297.48 398.26 288.64 C 394.86 279.08 388.71 270.60 386.50 260.60 C 385.23 255.18 384.61 249.61 384.76 244.04 C 384.99 232.96 386.52 221.58 391.79 211.68 C 397.64 200.75 406.11 191.51 415.03 183.00 C 422.62 176.17 430.85 170.11 438.96 163.92 C 440.28 162.85 441.78 161.78 442.26 160.05 C 441.63 158.62 439.80 159.35 438.75 159.77 C 433.56 162.40 429.08 166.20 424.22 169.38 C 426.95 162.32 427.92 154.51 432.08 148.07 C 437.26 141.86 443.45 136.35 450.70 132.66 Z" />
		<path fill="var(--shirt-color, grey)" opacity="1.00"
			d=" M 587.64 411.03 C 591.68 411.07 595.71 411.23 599.75 411.42 C 600.26 414.13 601.34 416.95 600.61 419.71 C 599.12 422.65 595.58 423.46 592.78 424.65 C 591.11 420.09 589.52 415.50 587.64 411.03 Z" />
	</g>
	<g id="#2b3dcdff">
		<path fill="var(--pants-color, grey)" opacity="1.00"
			d=" M 551.20 421.24 C 560.49 415.11 571.66 412.76 582.50 411.13 C 585.84 419.42 589.71 427.89 589.94 436.97 C 589.35 447.41 583.64 456.59 578.57 465.42 C 577.23 467.51 578.01 470.00 578.68 472.18 C 582.00 482.04 584.43 492.49 583.39 502.96 C 582.07 516.38 578.92 529.82 580.37 543.37 C 582.18 556.14 592.74 564.95 597.76 576.34 C 598.66 577.86 597.31 579.22 596.54 580.45 C 591.79 586.73 585.17 591.19 578.98 595.93 C 575.47 598.52 572.16 601.51 568.06 603.15 C 569.23 593.51 571.50 583.79 570.13 574.04 C 569.70 572.49 569.00 571.05 568.34 569.61 C 559.90 571.66 552.01 575.37 544.39 579.45 C 521.64 591.32 496.43 597.19 471.43 602.10 C 470.59 595.85 470.67 589.55 470.55 583.27 C 470.70 581.68 468.34 581.79 467.54 582.54 C 464.65 584.76 462.67 587.90 460.32 590.65 C 455.35 588.60 449.88 588.63 444.77 587.16 C 437.94 584.64 433.55 578.38 427.45 574.67 C 416.66 567.25 402.75 564.63 390.02 567.74 C 382.83 569.14 376.45 572.87 369.63 575.34 C 368.85 563.51 371.66 551.91 373.32 540.28 C 374.40 532.77 375.76 525.31 377.51 517.93 C 380.63 504.98 380.85 491.38 385.63 478.84 C 388.63 471.55 387.08 463.55 388.49 455.97 C 389.80 448.53 390.07 440.91 392.02 433.60 C 404.39 436.10 416.22 441.70 429.04 441.62 C 439.79 441.49 450.11 437.93 460.06 434.18 C 476.47 427.59 494.35 425.04 511.96 425.21 C 520.32 426.03 528.64 424.73 537.00 424.75 C 541.89 424.60 546.95 423.82 551.20 421.24 Z" />
		<path fill="var(--socks-color, grey)" opacity="1.00"
			d=" M 366.02 664.76 C 372.23 670.94 380.48 674.47 388.68 677.16 C 397.65 679.88 407.20 681.77 416.56 680.08 C 413.90 697.62 416.27 715.42 413.91 732.98 C 412.40 743.81 408.13 753.95 403.98 763.97 C 402.26 768.08 400.27 772.08 397.75 775.77 C 392.68 783.09 387.97 790.67 383.19 798.19 C 370.47 821.06 366.79 847.31 359.18 872.02 C 358.56 874.85 355.74 876.15 353.60 877.69 C 348.13 881.08 342.42 884.15 336.43 886.51 C 332.97 887.93 328.36 888.27 325.60 885.30 C 321.26 881.19 322.28 874.53 322.52 869.15 C 324.39 857.44 329.66 846.57 331.63 834.87 C 336.23 814.52 335.82 793.54 338.35 772.92 C 341.24 749.05 344.70 725.06 352.27 702.16 C 357.08 689.78 361.56 677.27 366.02 664.76 Z" />
		<path fill="var(--socks-color, grey)" opacity="1.00"
			d=" M 508.96 695.99 C 514.13 684.46 527.79 678.75 539.91 679.76 C 548.47 680.20 556.37 684.03 563.28 688.88 C 564.49 696.53 565.50 704.23 565.58 711.99 C 565.68 721.32 566.41 730.65 566.12 740.00 C 565.41 761.45 561.17 782.56 559.33 803.91 C 559.40 817.97 559.29 832.09 560.71 846.10 C 556.25 837.81 549.49 829.59 539.87 827.46 C 533.19 825.93 526.44 829.36 522.51 834.70 C 524.27 816.16 524.29 797.05 518.99 779.03 C 515.02 764.95 511.49 750.64 510.56 735.98 C 509.45 722.68 508.33 709.34 508.96 695.99 Z" />
	</g>
	<g id="#4d4d4dff">
		<path fill="#4d4d4d" opacity="1.00"
			d=" M 524.59 839.67 C 526.98 835.10 531.55 831.15 536.97 831.40 C 543.77 831.73 549.32 836.49 553.36 841.59 C 562.37 853.21 565.50 868.26 565.98 882.68 C 562.95 872.07 558.74 861.20 550.55 853.47 C 546.12 849.17 539.25 846.60 533.35 849.37 C 525.95 852.75 522.49 860.74 519.82 867.92 C 520.10 858.42 519.86 848.25 524.59 839.67 Z" />
		<path fill="#4d4d4d" opacity="1.00"
			d=" M 535.25 853.19 C 540.59 851.14 546.00 854.70 549.45 858.57 C 556.21 866.15 559.84 875.90 562.63 885.51 C 564.55 892.82 566.48 900.33 565.85 907.95 C 564.57 925.89 563.55 944.06 558.32 961.38 C 556.29 968.23 552.35 974.35 547.70 979.72 C 544.10 983.83 538.61 986.86 533.01 985.99 C 528.95 984.48 525.76 981.19 523.17 977.81 C 516.58 968.62 513.67 956.62 516.28 945.53 C 517.93 929.02 520.41 912.54 520.41 895.92 C 520.60 884.33 521.45 872.28 526.84 861.80 C 528.74 858.24 531.36 854.71 535.25 853.19 Z" />
		<path fill="#4d4d4d" opacity="1.00"
			d=" M 338.79 889.90 C 347.18 886.94 354.93 882.45 362.19 877.36 C 363.18 879.82 363.79 882.40 364.22 885.03 C 365.14 891.65 369.49 897.27 370.01 904.01 C 370.38 908.67 371.01 914.04 368.22 918.12 C 365.74 921.32 362.13 923.86 358.01 924.22 C 347.07 925.26 336.88 918.98 325.94 920.06 C 315.31 921.77 304.93 925.68 294.06 925.53 C 281.72 925.33 271.57 917.09 263.25 908.80 C 264.06 907.48 264.70 905.93 266.15 905.19 C 272.47 901.44 279.89 900.52 286.91 898.82 C 294.49 896.88 302.15 894.35 308.40 889.47 C 311.56 886.96 314.64 884.35 317.97 882.07 C 319.73 885.38 321.76 888.98 325.40 890.49 C 329.72 892.09 334.53 891.37 338.79 889.90 Z" />
	</g>
</svg>