<?xml version="1.0" encoding="UTF-8" ?>
<!DOCTYPE svg PUBLIC "-//W3C//DTD SVG 1.1//EN" "http://www.w3.org/Graphics/SVG/1.1/DTD/svg11.dtd">
<svg width="1000pt" height="1000pt" viewBox="0 0 1000 1000" version="1.1" xmlns="http://www.w3.org/2000/svg">
	<g id="#020202ff">
		<path fill="#020202" opacity="1.00"
			d=" M 307.97 41.96 C 318.74 36.08 331.51 35.11 343.50 36.72 C 360.05 39.21 376.11 47.05 387.19 59.76 C 390.99 64.44 394.69 69.51 396.26 75.42 C 398.45 85.35 396.47 95.56 393.72 105.17 C 393.63 110.35 396.42 115.04 398.10 119.82 C 400.96 127.59 405.68 134.54 411.52 140.36 C 421.58 137.73 431.77 144.46 441.72 140.58 C 452.12 135.88 464.05 135.94 475.07 138.08 C 486.16 140.40 496.92 144.47 506.69 150.23 C 516.02 155.54 525.03 161.70 532.37 169.60 C 533.53 170.79 534.88 171.79 536.26 172.73 C 547.79 180.44 557.75 190.37 569.93 197.12 C 576.79 200.82 583.93 204.10 590.23 208.73 C 595.65 212.67 599.50 218.24 603.68 223.37 C 605.18 225.37 606.96 227.36 607.47 229.89 C 605.29 234.39 601.81 238.08 598.77 242.00 C 601.54 247.38 604.88 252.59 609.48 256.61 C 615.82 262.33 624.10 265.13 630.82 270.31 C 637.13 274.97 641.72 281.44 646.34 287.68 C 650.95 294.12 655.93 300.36 659.54 307.45 C 663.82 315.91 667.96 324.44 671.97 333.03 C 675.90 341.30 680.71 349.28 687.20 355.81 C 698.70 368.03 711.41 379.10 725.04 388.88 C 731.61 393.04 737.63 400.74 735.04 408.91 C 732.83 414.76 730.80 421.12 725.77 425.22 C 726.26 429.28 725.52 433.96 721.26 435.68 C 721.07 436.27 720.67 437.44 720.48 438.03 C 714.03 439.04 707.65 437.21 701.25 436.72 C 692.25 435.95 683.96 430.11 679.98 422.04 C 676.78 415.84 674.65 409.18 672.26 402.66 C 669.88 396.43 667.85 389.82 663.16 384.87 C 652.54 372.81 640.44 362.15 628.18 351.80 C 615.21 340.46 603.33 327.75 594.18 313.09 C 599.70 335.28 603.31 358.04 603.64 380.93 C 603.78 389.36 602.64 397.70 601.79 406.06 C 601.14 409.55 603.27 412.58 603.93 415.87 C 601.48 420.01 596.12 420.77 591.90 422.18 C 590.74 428.25 591.43 434.48 592.75 440.47 C 594.84 449.84 595.47 459.54 594.43 469.09 C 593.60 476.61 592.52 484.29 589.18 491.17 C 584.79 500.48 578.73 508.86 573.90 517.93 C 565.09 534.43 555.43 550.95 551.81 569.54 C 550.04 579.04 553.39 588.49 552.85 598.02 C 552.91 604.35 551.54 611.26 546.75 615.76 C 541.44 620.46 534.10 621.56 527.33 622.45 C 522.61 630.23 519.30 638.74 516.07 647.21 C 510.63 661.78 509.11 677.58 510.13 693.03 C 510.43 698.38 511.52 703.64 511.95 708.99 C 512.98 720.00 512.27 731.09 510.85 742.03 C 508.92 758.32 505.13 774.40 499.57 789.83 C 492.85 808.28 482.05 824.81 473.54 842.42 C 469.89 849.90 466.02 857.30 463.07 865.10 C 461.57 869.29 458.88 873.34 459.57 877.99 C 460.21 888.56 464.65 900.07 459.02 910.02 C 457.00 914.48 452.57 916.97 448.07 918.32 C 442.33 926.48 433.71 931.77 426.70 938.68 C 413.35 951.32 404.74 968.95 388.31 978.22 C 378.71 983.61 367.61 984.97 356.98 987.07 C 349.99 988.26 343.10 989.98 336.08 990.95 C 334.18 991.11 331.57 991.50 330.36 989.63 C 328.13 985.50 328.22 980.62 328.61 976.08 C 329.25 967.04 334.98 959.29 341.51 953.41 C 347.36 947.92 354.89 944.31 359.83 937.85 C 366.74 928.96 370.36 918.16 375.03 908.05 C 378.38 900.31 382.40 892.87 386.08 885.30 C 389.02 875.85 388.61 865.80 388.45 856.03 C 387.98 841.28 387.51 826.50 385.54 811.86 C 381.42 781.02 376.47 750.21 375.09 719.08 C 374.68 707.36 373.89 695.56 375.32 683.88 C 375.81 679.11 373.34 674.78 371.54 670.55 C 366.62 658.85 358.41 647.28 360.46 633.94 C 363.13 616.47 373.97 601.92 380.42 585.81 C 377.53 585.62 374.65 585.43 371.78 585.14 C 374.46 568.10 381.21 552.07 388.62 536.61 C 393.81 525.37 399.47 514.36 405.82 503.74 C 408.17 500.22 407.89 495.87 408.41 491.86 C 409.72 480.45 414.86 469.99 417.82 459.00 C 420.12 450.45 419.47 441.37 422.29 432.94 C 418.93 429.18 416.85 424.13 417.60 419.04 C 418.75 410.80 424.15 404.10 429.26 397.87 C 425.07 390.22 417.89 383.26 418.21 373.95 C 418.05 368.99 421.73 365.33 424.65 361.79 C 419.78 356.09 415.65 349.83 410.75 344.17 C 401.85 333.14 391.63 323.25 382.86 312.11 C 373.92 301.05 365.23 289.78 356.13 278.84 C 352.00 273.73 348.39 268.17 345.90 262.07 C 343.41 255.47 337.77 250.86 334.08 244.99 C 327.01 234.02 322.07 220.44 325.59 207.36 C 328.40 195.34 337.74 186.53 346.58 178.59 C 348.85 176.77 348.24 173.52 348.79 170.97 C 347.50 170.20 346.20 169.43 344.91 168.67 C 340.67 171.91 336.55 175.46 331.63 177.63 C 327.68 179.47 323.39 177.19 320.50 174.47 C 314.45 168.50 312.55 159.88 308.14 152.86 C 305.30 148.38 299.99 146.85 295.13 145.73 C 292.33 145.23 290.06 142.92 289.97 140.02 C 289.26 130.39 292.53 120.73 290.44 111.14 C 288.27 101.23 285.71 90.77 288.74 80.74 C 287.43 77.65 286.27 74.31 286.94 70.91 C 287.50 66.80 291.10 64.06 292.20 60.15 C 294.71 52.24 300.73 45.83 307.97 41.96 M 302.29 89.65 C 298.31 90.31 295.37 87.29 292.45 85.13 C 291.87 90.48 292.09 95.89 292.93 101.21 C 295.36 99.42 297.96 97.75 300.96 97.13 C 310.35 94.69 319.97 98.02 328.67 101.42 C 326.25 104.56 322.50 106.14 319.43 108.50 C 314.80 111.67 310.42 115.58 304.98 117.24 C 302.36 115.81 302.31 112.36 301.21 109.89 C 298.87 109.08 296.56 108.20 294.28 107.24 C 296.36 115.37 295.54 123.82 294.79 132.06 C 294.63 134.88 294.16 137.81 295.04 140.56 C 299.43 141.78 304.32 141.94 308.04 144.87 C 314.37 149.23 315.98 157.17 319.26 163.64 C 321.37 167.76 323.26 172.89 328.00 174.59 C 330.02 174.02 331.83 172.91 333.55 171.73 C 340.57 166.81 347.18 161.27 352.86 154.84 C 355.67 151.88 357.94 148.32 361.47 146.12 C 361.23 148.08 360.95 150.13 359.75 151.77 C 356.08 157.24 351.57 162.08 346.97 166.76 C 352.87 169.54 358.62 173.18 362.15 178.83 C 372.70 192.70 375.05 210.40 379.98 226.63 C 380.32 216.27 384.34 206.41 389.54 197.58 C 396.49 185.76 405.08 175.02 412.58 163.56 C 415.47 159.13 416.94 153.90 416.90 148.62 C 409.09 143.06 401.91 136.24 397.44 127.65 C 394.49 122.05 393.31 115.78 391.86 109.69 C 388.56 117.18 386.96 125.31 383.40 132.67 C 383.18 130.75 382.98 128.78 383.51 126.89 C 385.48 119.21 387.73 111.59 390.66 104.22 C 382.68 113.41 372.90 122.24 360.51 124.41 C 361.40 118.66 362.87 112.90 362.16 107.03 C 361.67 102.18 360.14 97.41 357.80 93.14 C 356.03 89.73 350.68 89.34 348.28 92.24 C 346.02 94.71 346.15 98.43 344.13 101.02 C 339.94 102.91 335.03 103.52 330.52 102.69 C 329.78 96.64 329.09 90.41 325.90 85.05 C 320.12 90.01 310.13 91.64 304.82 85.19 C 303.65 80.70 303.38 75.93 301.32 71.69 C 296.79 77.05 300.27 84.02 302.29 89.65 M 444.55 144.50 C 438.14 149.59 433.36 156.47 429.65 163.70 C 428.02 166.78 426.66 170.20 423.62 172.19 C 423.61 169.47 424.06 166.74 425.21 164.26 C 428.17 157.63 431.62 151.08 436.60 145.72 C 431.03 146.26 425.20 145.88 420.29 142.94 C 421.78 146.43 422.65 150.26 421.95 154.06 C 420.67 163.88 414.00 171.67 408.75 179.67 C 399.87 193.01 389.12 205.87 385.54 221.87 C 383.74 228.93 386.13 236.06 386.17 243.16 C 383.98 241.98 382.01 240.37 380.95 238.06 C 375.89 228.54 371.94 218.43 369.06 208.03 C 365.80 195.73 360.35 183.73 351.60 174.33 C 352.90 188.17 347.98 201.41 346.13 214.95 C 344.45 226.22 344.73 237.76 346.71 248.97 C 348.83 260.47 354.46 271.12 362.01 279.98 C 371.82 291.21 381.24 302.76 390.75 314.24 C 393.52 318.21 398.62 318.81 402.96 319.92 C 416.08 322.64 429.01 326.21 442.04 329.37 C 447.70 330.78 453.83 331.02 458.99 333.96 C 458.73 334.35 458.21 335.13 457.95 335.52 C 449.17 334.79 440.30 333.85 431.80 331.40 C 420.40 328.63 409.09 325.49 397.82 322.24 C 408.81 333.79 419.15 345.97 428.27 359.07 C 436.21 356.89 444.04 360.37 451.67 362.21 C 465.79 366.58 480.53 368.10 495.10 370.14 C 496.89 370.40 498.85 370.54 500.21 371.94 C 496.97 374.48 492.68 373.81 488.90 373.45 C 481.92 372.61 474.99 371.44 468.04 370.41 C 457.44 368.81 447.38 364.88 436.91 362.71 C 434.28 362.21 431.01 361.81 428.96 363.93 C 425.84 367.21 422.29 371.21 423.16 376.12 C 424.30 384.15 431.36 389.56 433.95 396.98 C 434.17 402.55 428.68 405.78 426.33 410.30 C 422.54 415.86 420.13 424.11 425.29 429.63 C 430.80 430.46 436.42 429.34 441.96 429.90 C 454.15 430.41 464.90 437.31 477.04 438.16 C 498.18 440.22 518.43 432.47 538.22 426.19 C 549.31 423.01 560.68 420.60 572.20 419.70 C 581.21 418.77 590.46 418.76 599.11 415.74 C 595.67 409.10 597.75 401.61 598.34 394.58 C 600.72 369.52 596.32 344.45 590.95 320.05 C 587.62 304.41 580.81 288.88 568.79 277.98 C 567.01 279.88 565.82 283.18 563.04 283.55 C 559.23 284.18 558.76 279.39 556.74 277.25 C 553.47 274.06 549.27 272.06 545.54 269.48 C 537.83 264.54 531.63 257.74 524.81 251.72 C 514.38 252.25 504.26 255.41 494.86 259.85 C 490.44 261.92 486.37 264.94 481.43 265.68 C 483.78 262.81 487.03 260.97 490.16 259.09 C 499.52 253.50 510.00 249.84 520.80 248.34 C 515.20 244.51 509.72 239.93 502.90 238.57 C 495.66 236.97 488.26 237.98 480.97 238.50 C 479.15 238.50 476.78 238.96 475.75 236.93 C 482.56 233.51 490.53 233.64 497.98 233.56 C 508.43 233.56 517.46 239.49 525.32 245.75 C 533.16 251.87 539.50 259.77 547.89 265.20 C 553.15 268.90 559.40 271.79 562.80 277.54 C 574.30 259.86 590.03 245.54 603.19 229.17 C 598.29 223.91 594.54 217.59 588.98 212.97 C 582.41 207.84 574.71 204.47 567.39 200.57 C 557.33 194.99 548.58 187.45 539.53 180.43 C 526.36 170.02 510.69 163.51 495.13 157.61 C 496.60 157.00 498.11 155.96 499.80 156.40 C 505.99 157.57 511.74 160.30 517.60 162.52 C 501.86 151.91 484.19 143.08 465.07 141.22 C 458.20 141.18 450.35 139.93 444.55 144.50 M 334.65 200.63 C 330.67 207.47 329.21 215.77 330.83 223.54 C 332.65 232.13 336.67 240.10 341.45 247.41 C 340.71 241.63 340.06 235.83 340.10 230.00 C 339.83 215.11 343.90 200.67 346.99 186.24 C 342.60 190.78 337.88 195.14 334.65 200.63 M 570.55 275.09 C 577.34 278.63 581.30 285.42 585.26 291.66 C 588.38 297.07 592.42 301.86 595.93 307.01 C 600.30 312.70 604.10 318.82 608.71 324.33 C 625.65 345.35 649.18 359.77 666.31 380.61 C 675.31 391.84 677.87 406.37 683.91 419.13 C 687.05 426.28 694.11 431.54 701.87 432.50 C 707.20 433.19 712.45 434.37 717.73 435.34 C 713.50 430.04 708.06 424.77 707.09 417.78 C 707.56 417.74 708.50 417.65 708.97 417.61 C 713.20 421.85 716.35 427.19 721.36 430.68 C 721.47 428.67 722.58 426.37 721.28 424.56 C 718.40 420.25 715.84 415.30 715.89 410.00 C 716.70 408.05 718.56 409.36 719.10 410.75 C 720.81 414.23 722.10 417.92 724.01 421.31 C 725.38 419.58 726.70 417.81 727.95 416.00 C 723.94 413.03 721.71 407.39 722.82 402.59 L 724.19 402.17 C 726.22 405.00 727.29 408.38 729.11 411.36 C 729.84 408.94 731.15 406.50 730.67 403.90 C 730.10 399.47 726.56 396.25 723.11 393.80 C 708.23 383.29 694.40 371.32 682.01 357.96 C 670.61 345.93 665.08 330.01 657.46 315.60 C 653.18 306.08 646.63 297.90 640.61 289.46 C 636.42 283.77 632.25 277.85 626.45 273.66 C 620.21 269.08 612.86 266.13 607.07 260.90 C 602.16 256.65 598.48 251.12 596.13 245.09 C 587.53 255.02 578.57 264.67 570.55 275.09 M 536.63 431.74 C 517.35 437.81 497.53 444.63 477.00 442.83 C 468.26 442.28 460.13 438.92 451.89 436.29 C 443.72 433.69 435.06 434.15 426.61 434.41 C 425.32 443.84 425.52 453.53 422.78 462.72 C 419.64 473.44 414.48 483.73 413.83 495.05 C 413.62 499.08 413.04 503.21 410.83 506.69 C 400.98 523.75 392.63 541.61 384.61 559.59 C 381.51 566.50 379.64 573.86 377.62 581.13 C 385.20 580.77 392.77 581.77 400.05 583.85 C 409.03 586.34 418.00 588.94 426.65 592.43 C 436.81 596.51 446.39 601.83 456.21 606.65 C 458.28 602.00 460.42 597.39 463.03 593.01 C 467.89 584.74 471.90 575.71 472.84 566.06 C 473.61 559.97 472.89 553.47 475.83 547.84 C 480.24 539.16 486.28 531.44 491.13 523.02 C 493.87 518.48 496.02 513.51 499.71 509.60 C 499.35 512.55 498.57 515.45 497.20 518.09 C 493.79 524.95 490.12 531.68 486.29 538.32 C 482.98 544.21 478.63 549.76 477.53 556.62 C 480.68 553.58 482.77 548.71 487.64 548.21 C 486.83 552.57 483.56 555.65 480.63 558.69 C 479.27 560.23 477.41 561.70 477.34 563.94 C 476.68 569.34 475.93 574.77 473.93 579.87 C 470.48 589.90 463.84 598.34 459.50 607.96 C 469.10 609.63 478.75 611.06 488.35 612.73 C 501.71 615.48 515.35 617.45 529.02 616.82 C 536.20 616.24 545.05 614.26 547.84 606.66 C 550.05 593.69 543.73 580.78 546.33 567.79 C 549.04 553.70 555.18 540.58 562.00 528.06 C 566.67 519.46 571.23 510.79 576.57 502.59 C 580.79 495.62 585.27 488.58 587.26 480.59 C 590.28 468.01 590.98 454.73 588.15 442.05 C 586.74 435.80 586.13 429.37 586.66 422.98 C 569.80 424.65 552.85 426.57 536.63 431.74 M 386.09 586.13 C 380.66 600.53 372.16 613.61 367.78 628.42 C 366.01 634.47 365.39 641.11 367.58 647.15 C 371.14 657.39 376.94 666.76 379.82 677.26 C 380.99 681.65 380.34 686.19 379.63 690.59 C 390.28 693.11 401.38 691.37 411.93 689.16 C 420.85 687.08 429.89 684.31 437.24 678.65 C 436.49 664.71 438.41 650.84 440.43 637.10 C 442.84 627.65 448.45 619.40 454.06 611.56 C 441.09 605.18 428.42 598.00 414.56 593.64 C 405.17 590.81 395.83 587.57 386.09 586.13 M 451.25 626.29 C 450.65 627.38 449.82 628.49 449.95 629.81 C 450.24 642.60 451.23 655.51 449.12 668.20 C 446.90 679.50 444.78 691.30 447.37 702.73 C 453.02 706.88 460.16 708.02 467.00 708.19 C 480.57 708.43 494.00 704.63 505.92 698.26 C 505.02 688.70 504.71 679.07 505.67 669.50 C 507.24 652.79 514.15 637.15 521.99 622.52 C 512.20 622.51 502.43 621.45 492.82 619.61 C 481.86 617.34 470.76 615.83 459.81 613.55 C 457.00 617.83 453.89 621.91 451.25 626.29 M 443.41 646.86 C 442.50 658.48 442.16 670.17 443.18 681.81 C 445.54 666.50 446.29 651.02 446.16 635.54 C 444.91 639.22 443.75 642.97 443.41 646.86 M 414.24 695.19 C 402.68 697.60 390.18 699.47 378.84 695.12 C 379.06 716.07 379.98 737.04 382.55 757.85 C 385.41 784.94 391.05 811.73 392.00 839.01 C 392.48 854.35 393.98 869.88 390.93 885.06 C 396.06 885.48 402.27 883.66 406.42 887.60 C 410.22 890.96 408.06 897.10 411.36 900.62 C 414.46 903.33 417.36 899.42 419.25 897.17 C 426.61 886.64 428.41 873.55 429.79 861.09 C 432.50 835.51 445.40 812.43 448.79 786.99 C 452.42 764.94 450.73 742.29 445.59 720.62 C 443.35 708.94 439.58 697.59 437.92 685.80 C 430.68 690.34 422.56 693.30 414.24 695.19 M 479.85 713.84 C 469.76 715.61 459.04 715.49 449.48 711.42 C 450.44 715.76 451.35 720.11 452.30 724.46 C 456.62 744.64 457.93 765.60 454.60 786.04 C 452.30 803.25 446.23 819.59 440.84 836.00 C 437.00 847.33 435.14 859.19 433.83 871.04 C 433.75 873.08 434.50 875.05 434.93 877.04 C 441.77 871.95 449.03 866.59 457.73 865.47 C 460.68 856.63 465.08 848.40 469.12 840.04 C 476.13 825.55 484.63 811.81 490.91 796.97 C 500.43 775.16 505.14 751.57 507.45 727.98 C 508.14 719.74 507.12 711.49 506.51 703.28 C 498.52 708.68 489.33 712.14 479.85 713.84 M 437.37 881.52 C 442.05 886.97 446.79 892.61 449.51 899.34 C 451.10 903.19 451.14 907.41 451.43 911.50 C 454.24 907.90 457.25 903.89 457.04 899.07 C 456.73 889.20 453.69 879.33 456.02 869.46 C 449.24 872.55 443.20 876.92 437.37 881.52 M 431.47 881.08 C 429.80 888.99 426.46 896.81 420.52 902.47 C 417.29 905.52 412.04 906.42 408.33 903.69 C 404.06 900.85 405.57 894.85 402.94 891.04 C 398.93 889.08 394.13 890.18 389.81 889.76 C 385.73 898.38 381.47 906.93 377.77 915.73 C 372.61 927.72 367.78 940.83 356.99 949.00 C 348.86 955.01 339.76 960.73 335.17 970.14 C 332.38 975.11 332.50 981.01 333.75 986.42 C 347.56 983.75 361.33 980.84 375.10 977.99 C 386.51 975.62 395.48 967.34 402.73 958.66 C 411.60 947.96 419.76 936.47 430.78 927.80 C 436.91 922.40 444.96 916.82 445.66 907.96 C 444.83 897.37 436.16 890.01 431.47 881.08 Z" />
		<path fill="#020202" opacity="1.00"
			d=" M 544.63 359.49 C 546.34 358.34 548.40 358.08 550.38 357.74 C 543.29 363.62 536.79 370.61 528.10 374.15 C 521.96 376.77 515.10 376.20 508.75 377.98 C 499.98 380.23 492.30 385.98 483.09 386.61 C 469.76 387.65 456.37 387.25 443.02 387.73 C 439.96 387.41 436.16 388.33 433.78 385.95 C 432.72 383.32 434.04 380.67 435.74 378.67 C 435.90 380.53 436.04 382.39 436.17 384.26 C 446.78 384.47 457.38 383.82 467.98 383.89 C 475.93 383.51 484.29 384.11 491.73 380.78 C 497.80 378.15 503.70 374.95 510.19 373.45 C 515.97 372.02 522.18 372.26 527.63 369.60 C 533.57 366.72 539.05 362.98 544.63 359.49 Z" />
	</g>
	<g id="#f0b58bff">
		<path fill="#f0b58b" opacity="1.00"
			d=" M 302.29 89.65 C 300.27 84.02 296.79 77.05 301.32 71.69 C 303.38 75.93 303.65 80.70 304.82 85.19 C 310.13 91.64 320.12 90.01 325.90 85.05 C 329.09 90.41 329.78 96.64 330.52 102.69 C 335.03 103.52 339.94 102.91 344.13 101.02 C 346.15 98.43 346.02 94.71 348.28 92.24 C 350.68 89.34 356.03 89.73 357.80 93.14 C 360.14 97.41 361.67 102.18 362.16 107.03 C 362.87 112.90 361.40 118.66 360.51 124.41 C 372.90 122.24 382.68 113.41 390.66 104.22 C 387.73 111.59 385.48 119.21 383.51 126.89 C 382.98 128.78 383.18 130.75 383.40 132.67 C 386.96 125.31 388.56 117.18 391.86 109.69 C 393.31 115.78 394.49 122.05 397.44 127.65 C 401.91 136.24 409.09 143.06 416.90 148.62 C 416.94 153.90 415.47 159.13 412.58 163.56 C 405.08 175.02 396.49 185.76 389.54 197.58 C 384.34 206.41 380.32 216.27 379.98 226.63 C 375.05 210.40 372.70 192.70 362.15 178.83 C 358.62 173.18 352.87 169.54 346.97 166.76 C 351.57 162.08 356.08 157.24 359.75 151.77 C 360.95 150.13 361.23 148.08 361.47 146.12 C 357.94 148.32 355.67 151.88 352.86 154.84 C 347.18 161.27 340.57 166.81 333.55 171.73 C 331.83 172.91 330.02 174.02 328.00 174.59 C 323.26 172.89 321.37 167.76 319.26 163.64 C 315.98 157.17 314.37 149.23 308.04 144.87 C 304.32 141.94 299.43 141.78 295.04 140.56 C 294.16 137.81 294.63 134.88 294.79 132.06 C 295.54 123.82 296.36 115.37 294.28 107.24 C 296.56 108.20 298.87 109.08 301.21 109.89 C 302.31 112.36 302.36 115.81 304.98 117.24 C 310.42 115.58 314.80 111.67 319.43 108.50 C 322.50 106.14 326.25 104.56 328.67 101.42 C 319.97 98.02 310.35 94.69 300.96 97.13 C 297.96 97.75 295.36 99.42 292.93 101.21 C 292.09 95.89 291.87 90.48 292.45 85.13 C 295.37 87.29 298.31 90.31 302.29 89.65 Z" />
		<path fill="#f0b58b" opacity="1.00"
			d=" M 570.55 275.09 C 578.57 264.67 587.53 255.02 596.13 245.09 C 598.48 251.12 602.16 256.65 607.07 260.90 C 612.86 266.13 620.21 269.08 626.45 273.66 C 632.25 277.85 636.42 283.77 640.61 289.46 C 646.63 297.90 653.18 306.08 657.46 315.60 C 665.08 330.01 670.61 345.93 682.01 357.96 C 694.40 371.32 708.23 383.29 723.11 393.80 C 726.56 396.25 730.10 399.47 730.67 403.90 C 731.15 406.50 729.84 408.94 729.11 411.36 C 727.29 408.38 726.22 405.00 724.19 402.17 L 722.82 402.59 C 721.71 407.39 723.94 413.03 727.95 416.00 C 726.70 417.81 725.38 419.58 724.01 421.31 C 722.10 417.92 720.81 414.23 719.10 410.75 C 718.56 409.36 716.70 408.05 715.89 410.00 C 715.84 415.30 718.40 420.25 721.28 424.56 C 722.58 426.37 721.47 428.67 721.36 430.68 C 716.35 427.19 713.20 421.85 708.97 417.61 C 708.50 417.65 707.56 417.74 707.09 417.78 C 708.06 424.77 713.50 430.04 717.73 435.34 C 712.45 434.37 707.20 433.19 701.87 432.50 C 694.11 431.54 687.05 426.28 683.91 419.13 C 677.87 406.37 675.31 391.84 666.31 380.61 C 649.18 359.77 625.65 345.35 608.71 324.33 C 604.10 318.82 600.30 312.70 595.93 307.01 C 592.42 301.86 588.38 297.07 585.26 291.66 C 581.30 285.42 577.34 278.63 570.55 275.09 Z" />
		<path fill="#f0b58b" opacity="1.00"
			d=" M 386.09 586.13 C 395.83 587.57 405.17 590.81 414.56 593.64 C 428.42 598.00 441.09 605.18 454.06 611.56 C 448.45 619.40 442.84 627.65 440.43 637.10 C 438.41 650.84 436.49 664.71 437.24 678.65 C 429.89 684.31 420.85 687.08 411.93 689.16 C 401.38 691.37 390.28 693.11 379.63 690.59 C 380.34 686.19 380.99 681.65 379.82 677.26 C 376.94 666.76 371.14 657.39 367.58 647.15 C 365.39 641.11 366.01 634.47 367.78 628.42 C 372.16 613.61 380.66 600.53 386.09 586.13 Z" />
		<path fill="#f0b58b" opacity="1.00"
			d=" M 451.25 626.29 C 453.89 621.91 457.00 617.83 459.81 613.55 C 470.76 615.83 481.86 617.34 492.82 619.61 C 502.43 621.45 512.20 622.51 521.99 622.52 C 514.15 637.15 507.24 652.79 505.67 669.50 C 504.71 679.07 505.02 688.70 505.92 698.26 C 494.00 704.63 480.57 708.43 467.00 708.19 C 460.16 708.02 453.02 706.88 447.37 702.73 C 444.78 691.30 446.90 679.50 449.12 668.20 C 451.23 655.51 450.24 642.60 449.95 629.81 C 449.82 628.49 450.65 627.38 451.25 626.29 Z" />
	</g>
	<g id="#f11b27ff">
		<path fill="var(--shirt-color, grey)" opacity="1.00"
			d=" M 444.55 144.50 C 450.35 139.93 458.20 141.18 465.07 141.22 C 484.19 143.08 501.86 151.91 517.60 162.52 C 511.74 160.30 505.99 157.57 499.80 156.40 C 498.11 155.96 496.60 157.00 495.13 157.61 C 510.69 163.51 526.36 170.02 539.53 180.43 C 548.58 187.45 557.33 194.99 567.39 200.57 C 574.71 204.47 582.41 207.84 588.98 212.97 C 594.54 217.59 598.29 223.91 603.19 229.17 C 590.03 245.54 574.30 259.86 562.80 277.54 C 559.40 271.79 553.15 268.90 547.89 265.20 C 539.50 259.77 533.16 251.87 525.32 245.75 C 517.46 239.49 508.43 233.56 497.98 233.56 C 490.53 233.64 482.56 233.51 475.75 236.93 C 476.78 238.96 479.15 238.50 480.97 238.50 C 488.26 237.98 495.66 236.97 502.90 238.57 C 509.72 239.93 515.20 244.51 520.80 248.34 C 510.00 249.84 499.52 253.50 490.16 259.09 C 487.03 260.97 483.78 262.81 481.43 265.68 C 486.37 264.94 490.44 261.92 494.86 259.85 C 504.26 255.41 514.38 252.25 524.81 251.72 C 531.63 257.74 537.83 264.54 545.54 269.48 C 549.27 272.06 553.47 274.06 556.74 277.25 C 558.76 279.39 559.23 284.18 563.04 283.55 C 565.82 283.18 567.01 279.88 568.79 277.98 C 580.81 288.88 587.62 304.41 590.95 320.05 C 596.32 344.45 600.72 369.52 598.34 394.58 C 597.75 401.61 595.67 409.10 599.11 415.74 C 590.46 418.76 581.21 418.77 572.20 419.70 C 560.68 420.60 549.31 423.01 538.22 426.19 C 518.43 432.47 498.18 440.22 477.04 438.16 C 464.90 437.31 454.15 430.41 441.96 429.90 C 436.42 429.34 430.80 430.46 425.29 429.63 C 420.13 424.11 422.54 415.86 426.33 410.30 C 428.68 405.78 434.17 402.55 433.95 396.98 C 431.36 389.56 424.30 384.15 423.16 376.12 C 422.29 371.21 425.84 367.21 428.96 363.93 C 431.01 361.81 434.28 362.21 436.91 362.71 C 447.38 364.88 457.44 368.81 468.04 370.41 C 474.99 371.44 481.92 372.61 488.90 373.45 C 492.68 373.81 496.97 374.48 500.21 371.94 C 498.85 370.54 496.89 370.40 495.10 370.14 C 480.53 368.10 465.79 366.58 451.67 362.21 C 444.04 360.37 436.21 356.89 428.27 359.07 C 419.15 345.97 408.81 333.79 397.82 322.24 C 409.09 325.49 420.40 328.63 431.80 331.40 C 440.30 333.85 449.17 334.79 457.95 335.52 C 458.21 335.13 458.73 334.35 458.99 333.96 C 453.83 331.02 447.70 330.78 442.04 329.37 C 429.01 326.21 416.08 322.64 402.96 319.92 C 398.62 318.81 393.52 318.21 390.75 314.24 C 381.24 302.76 371.82 291.21 362.01 279.98 C 354.46 271.12 348.83 260.47 346.71 248.97 C 344.73 237.76 344.45 226.22 346.13 214.95 C 347.98 201.41 352.90 188.17 351.60 174.33 C 360.35 183.73 365.80 195.73 369.06 208.03 C 371.94 218.43 375.89 228.54 380.95 238.06 C 382.01 240.37 383.98 241.98 386.17 243.16 C 386.13 236.06 383.74 228.93 385.54 221.87 C 389.12 205.87 399.87 193.01 408.75 179.67 C 414.00 171.67 420.67 163.88 421.95 154.06 C 422.65 150.26 421.78 146.43 420.29 142.94 C 425.20 145.88 431.03 146.26 436.60 145.72 C 431.62 151.08 428.17 157.63 425.21 164.26 C 424.06 166.74 423.61 169.47 423.62 172.19 C 426.66 170.20 428.02 166.78 429.65 163.70 C 433.36 156.47 438.14 149.59 444.55 144.50 M 544.63 359.49 C 539.05 362.98 533.57 366.72 527.63 369.60 C 522.18 372.26 515.97 372.02 510.19 373.45 C 503.70 374.95 497.80 378.15 491.73 380.78 C 484.29 384.11 475.93 383.51 467.98 383.89 C 457.38 383.82 446.78 384.47 436.17 384.26 C 436.04 382.39 435.90 380.53 435.74 378.67 C 434.04 380.67 432.72 383.32 433.78 385.95 C 436.16 388.33 439.96 387.41 443.02 387.73 C 456.37 387.25 469.76 387.65 483.09 386.61 C 492.30 385.98 499.98 380.23 508.75 377.98 C 515.10 376.20 521.96 376.77 528.10 374.15 C 536.79 370.61 543.29 363.62 550.38 357.74 C 548.40 358.08 546.34 358.34 544.63 359.49 Z" />
		<path fill="var(--shirt-color, grey)" opacity="1.00"
			d=" M 334.65 200.63 C 337.88 195.14 342.60 190.78 346.99 186.24 C 343.90 200.67 339.83 215.11 340.10 230.00 C 340.06 235.83 340.71 241.63 341.45 247.41 C 336.67 240.10 332.65 232.13 330.83 223.54 C 329.21 215.77 330.67 207.47 334.65 200.63 Z" />
	</g>
	<g id="#2b3dcdff">
		<path fill="var(--pants-color, grey)" opacity="1.00"
			d=" M 536.63 431.74 C 552.85 426.57 569.80 424.65 586.66 422.98 C 586.13 429.37 586.74 435.80 588.15 442.05 C 590.98 454.73 590.28 468.01 587.26 480.59 C 585.27 488.58 580.79 495.62 576.57 502.59 C 571.23 510.79 566.67 519.46 562.00 528.06 C 555.18 540.58 549.04 553.70 546.33 567.79 C 543.73 580.78 550.05 593.69 547.84 606.66 C 545.05 614.26 536.20 616.24 529.02 616.82 C 515.35 617.45 501.71 615.48 488.35 612.73 C 478.75 611.06 469.10 609.63 459.50 607.96 C 463.84 598.34 470.48 589.90 473.93 579.87 C 475.93 574.77 476.68 569.34 477.34 563.94 C 477.41 561.70 479.27 560.23 480.63 558.69 C 483.56 555.65 486.83 552.57 487.64 548.21 C 482.77 548.71 480.68 553.58 477.53 556.62 C 478.63 549.76 482.98 544.21 486.29 538.32 C 490.12 531.68 493.79 524.95 497.20 518.09 C 498.57 515.45 499.35 512.55 499.71 509.60 C 496.02 513.51 493.87 518.48 491.13 523.02 C 486.28 531.44 480.24 539.16 475.83 547.84 C 472.89 553.47 473.61 559.97 472.84 566.06 C 471.90 575.71 467.89 584.74 463.03 593.01 C 460.42 597.39 458.28 602.00 456.21 606.65 C 446.39 601.83 436.81 596.51 426.65 592.43 C 418.00 588.94 409.03 586.34 400.05 583.85 C 392.77 581.77 385.20 580.77 377.62 581.13 C 379.64 573.86 381.51 566.50 384.61 559.59 C 392.63 541.61 400.98 523.75 410.83 506.69 C 413.04 503.21 413.62 499.08 413.83 495.05 C 414.48 483.73 419.64 473.44 422.78 462.72 C 425.52 453.53 425.32 443.84 426.61 434.41 C 435.06 434.15 443.72 433.69 451.89 436.29 C 460.13 438.92 468.26 442.28 477.00 442.83 C 497.53 444.63 517.35 437.81 536.63 431.74 Z" />
		<path fill="var(--socks-color, grey)" opacity="1.00"
			d=" M 414.24 695.19 C 422.56 693.30 430.68 690.34 437.92 685.80 C 439.58 697.59 443.35 708.94 445.59 720.62 C 450.73 742.29 452.42 764.94 448.79 786.99 C 445.40 812.43 432.50 835.51 429.79 861.09 C 428.41 873.55 426.61 886.64 419.25 897.17 C 417.36 899.42 414.46 903.33 411.36 900.62 C 408.06 897.10 410.22 890.96 406.42 887.60 C 402.27 883.66 396.06 885.48 390.93 885.06 C 393.98 869.88 392.48 854.35 392.00 839.01 C 391.05 811.73 385.41 784.94 382.55 757.85 C 379.98 737.04 379.06 716.07 378.84 695.12 C 390.18 699.47 402.68 697.60 414.24 695.19 Z" />
		<path fill="var(--socks-color, grey)" opacity="1.00"
			d=" M 479.85 713.84 C 489.33 712.14 498.52 708.68 506.51 703.28 C 507.12 711.49 508.14 719.74 507.45 727.98 C 505.14 751.57 500.43 775.16 490.91 796.97 C 484.63 811.81 476.13 825.55 469.12 840.04 C 465.08 848.40 460.68 856.63 457.73 865.47 C 449.03 866.59 441.77 871.95 434.93 877.04 C 434.50 875.05 433.75 873.08 433.83 871.04 C 435.14 859.19 437.00 847.33 440.84 836.00 C 446.23 819.59 452.30 803.25 454.60 786.04 C 457.93 765.60 456.62 744.64 452.30 724.46 C 451.35 720.11 450.44 715.76 449.48 711.42 C 459.04 715.49 469.76 715.61 479.85 713.84 Z" />
	</g>
	<g id="#4d4d4dff">
		<path fill="#4d4d4d" opacity="1.00"
			d=" M 437.37 881.52 C 443.20 876.92 449.24 872.55 456.02 869.46 C 453.69 879.33 456.73 889.20 457.04 899.07 C 457.25 903.89 454.24 907.90 451.43 911.50 C 451.14 907.41 451.10 903.19 449.51 899.34 C 446.79 892.61 442.05 886.97 437.37 881.52 Z" />
		<path fill="#4d4d4d" opacity="1.00"
			d=" M 431.47 881.08 C 436.16 890.01 444.83 897.37 445.66 907.96 C 444.96 916.82 436.91 922.40 430.78 927.80 C 419.76 936.47 411.60 947.96 402.73 958.66 C 395.48 967.34 386.51 975.62 375.10 977.99 C 361.33 980.84 347.56 983.75 333.75 986.42 C 332.50 981.01 332.38 975.11 335.17 970.14 C 339.76 960.73 348.86 955.01 356.99 949.00 C 367.78 940.83 372.61 927.72 377.77 915.73 C 381.47 906.93 385.73 898.38 389.81 889.76 C 394.13 890.18 398.93 889.08 402.94 891.04 C 405.57 894.85 404.06 900.85 408.33 903.69 C 412.04 906.42 417.29 905.52 420.52 902.47 C 426.46 896.81 429.80 888.99 431.47 881.08 Z" />
	</g>
</svg>