<?xml version="1.0" encoding="UTF-8" ?>
<!DOCTYPE svg PUBLIC "-//W3C//DTD SVG 1.1//EN" "http://www.w3.org/Graphics/SVG/1.1/DTD/svg11.dtd">
<svg width="1000pt" height="1000pt" viewBox="0 0 1000 1000" version="1.1" xmlns="http://www.w3.org/2000/svg">
	<g id="#020202ff">
		<path fill="#020202" opacity="1.00"
			d=" M 432.57 21.52 C 440.67 18.17 449.02 14.52 457.95 14.53 C 463.19 14.56 467.78 17.37 472.75 18.54 C 481.58 17.47 490.72 15.94 499.46 18.40 C 505.94 19.94 510.90 24.95 517.41 26.41 C 533.43 31.83 551.10 31.01 566.36 38.87 C 567.66 39.40 568.13 40.81 568.86 41.90 C 579.22 45.90 590.33 47.24 601.01 50.17 C 613.40 53.62 626.92 56.30 636.55 65.51 C 641.68 70.19 643.29 77.29 644.08 83.91 C 644.58 88.63 643.38 93.69 639.70 96.91 C 645.83 101.88 651.51 107.46 656.03 113.95 C 659.83 119.44 665.41 123.23 670.07 127.90 C 674.43 132.23 678.82 136.55 682.84 141.20 C 687.97 147.18 691.73 154.18 696.80 160.20 C 708.22 172.83 721.45 184.30 729.40 199.62 C 734.94 209.50 737.91 220.71 738.32 232.01 C 741.40 235.45 745.28 238.13 748.76 241.18 C 760.49 250.44 770.64 262.30 775.65 276.54 C 778.08 283.10 777.43 290.38 780.08 296.88 C 782.19 302.37 785.32 307.39 788.81 312.11 C 796.05 322.15 802.04 333.57 803.21 346.07 C 805.22 360.66 803.51 375.42 805.10 390.03 C 806.02 399.77 813.56 407.35 814.53 417.10 C 812.35 420.63 807.42 420.83 803.91 422.51 C 803.31 441.48 805.76 460.50 811.16 478.70 C 814.27 490.25 818.61 501.53 820.34 513.43 C 821.57 521.80 820.86 530.34 822.26 538.70 C 824.00 551.79 829.30 563.97 833.75 576.28 C 837.12 585.44 840.74 594.50 844.94 603.31 C 846.47 605.90 848.97 607.71 850.92 609.97 C 857.93 617.64 862.06 627.34 866.45 636.62 C 873.63 652.57 878.21 669.59 881.13 686.81 C 883.40 701.76 883.55 716.92 884.74 731.98 C 886.41 752.57 888.87 773.11 892.26 793.50 C 894.01 804.47 895.13 815.59 894.82 826.72 C 900.01 833.01 904.44 839.93 910.37 845.59 C 915.60 851.37 922.18 856.10 926.05 863.00 C 929.57 869.31 928.13 876.99 925.50 883.36 C 922.66 890.71 918.47 897.47 913.43 903.52 C 905.98 912.50 900.05 922.67 895.51 933.40 C 890.49 945.44 881.81 955.65 871.58 963.62 C 859.01 973.51 845.01 982.45 829.12 985.68 C 823.77 986.85 817.47 986.57 813.31 982.59 C 810.54 978.73 810.11 973.63 810.84 969.05 C 812.27 958.25 817.34 948.49 821.55 938.60 C 826.52 927.56 832.55 916.71 834.36 904.58 C 835.61 895.79 835.97 886.89 837.62 878.17 C 839.47 868.43 842.14 858.87 845.44 849.54 C 846.58 840.25 844.55 830.94 842.50 821.90 C 840.27 811.41 837.14 801.09 832.75 791.29 C 823.90 769.75 815.31 748.10 806.46 726.56 C 803.59 719.90 800.69 713.22 798.97 706.15 C 796.40 695.75 793.25 685.52 790.55 675.16 C 788.78 668.38 785.75 661.96 781.73 656.23 C 777.74 650.55 773.61 644.74 771.80 637.94 C 771.05 635.35 770.91 632.62 769.99 630.09 C 767.41 628.23 764.34 627.16 761.85 625.17 C 757.56 622.02 754.51 617.58 751.85 613.06 C 747.85 606.27 741.03 601.96 735.95 596.10 C 731.42 590.81 726.94 585.38 723.87 579.08 C 714.36 560.29 711.13 539.25 704.49 519.43 C 699.72 502.71 693.21 486.52 688.97 469.64 C 684.10 469.31 678.70 470.25 674.30 467.68 C 671.73 457.69 668.44 447.68 662.91 438.88 C 661.90 441.40 661.17 444.22 659.12 446.13 C 656.66 447.80 653.32 447.87 651.26 450.19 C 645.84 456.04 638.16 459.89 634.25 467.05 C 633.69 473.10 637.95 478.18 638.95 483.99 C 641.09 494.96 640.46 506.39 638.06 517.28 C 635.79 528.00 629.06 536.93 624.92 546.92 C 622.03 553.19 620.49 559.96 619.53 566.77 C 630.57 576.32 640.19 588.90 641.69 603.87 C 642.41 613.10 641.26 623.59 634.56 630.59 C 630.53 634.81 624.19 633.89 618.93 633.73 C 604.59 633.42 592.33 624.09 583.44 613.55 C 577.37 606.01 570.55 599.10 563.09 592.94 C 555.96 586.79 548.01 581.38 542.26 573.80 C 536.42 566.39 532.11 557.52 531.25 548.04 C 530.43 538.38 532.66 528.75 535.83 519.68 C 537.22 515.86 539.02 511.67 542.91 509.81 C 545.46 508.39 548.44 509.32 551.13 509.72 C 547.66 495.37 543.98 480.84 544.07 465.98 C 543.86 458.01 544.98 450.05 544.40 442.08 C 544.08 437.83 543.45 433.61 543.39 429.34 C 538.27 425.26 533.54 420.71 528.82 416.18 C 523.79 411.44 520.06 405.35 518.48 398.60 C 516.53 392.14 519.08 385.56 518.87 379.03 C 519.10 375.63 517.50 372.52 517.24 369.20 C 518.63 365.62 521.52 362.78 522.49 359.02 C 522.00 353.60 517.49 348.68 519.24 343.09 C 521.17 338.88 525.91 337.19 529.71 335.11 C 528.20 329.73 525.29 324.91 523.27 319.73 C 519.98 310.89 529.41 302.88 526.22 293.99 C 525.12 288.83 520.82 285.10 519.70 280.01 C 520.57 275.98 524.78 274.23 528.00 272.36 C 523.93 272.49 519.53 273.90 515.63 272.29 C 514.30 268.91 518.17 266.36 519.41 263.49 C 511.21 261.38 502.12 265.00 494.49 260.53 C 487.37 256.60 481.77 250.33 477.05 243.82 C 464.57 240.66 451.64 244.97 439.14 241.91 C 430.14 240.24 422.46 234.87 415.86 228.78 C 401.91 236.33 386.27 241.41 374.51 252.48 C 368.91 256.57 364.10 261.75 357.98 265.10 C 354.97 266.88 351.42 265.94 348.20 265.48 C 342.47 269.58 337.63 274.76 331.91 278.86 C 322.43 285.77 312.72 292.33 303.17 299.13 C 289.46 308.58 276.17 318.77 261.35 326.44 C 245.47 334.94 226.51 336.93 209.01 333.17 C 195.80 330.21 184.71 321.97 174.58 313.40 C 166.65 306.74 158.66 300.06 151.78 292.29 C 148.05 287.67 143.83 282.84 137.89 281.22 C 134.24 280.63 130.67 282.03 127.03 282.13 C 115.94 282.47 105.46 278.33 95.10 274.94 C 89.04 272.46 82.39 270.07 78.26 264.70 C 76.52 262.63 77.92 259.95 78.52 257.74 C 77.74 253.94 78.35 250.09 80.40 246.79 C 79.99 243.57 79.47 240.26 80.27 237.06 C 80.93 234.13 82.82 231.70 83.77 228.89 C 83.63 224.48 81.98 219.63 84.50 215.56 C 87.09 210.75 92.75 208.91 97.88 208.48 C 105.66 207.84 113.49 208.11 121.29 208.47 C 122.17 205.01 123.12 200.65 127.23 199.81 C 133.14 206.89 143.94 206.96 149.36 214.65 C 156.26 223.40 154.10 235.16 152.98 245.38 C 159.23 249.61 166.61 251.77 173.98 253.04 C 187.93 255.41 202.12 255.83 216.05 258.30 C 221.97 259.61 227.39 262.48 233.14 264.32 C 241.38 257.64 249.77 251.06 259.24 246.19 C 266.20 242.55 273.17 238.85 279.40 234.01 C 278.96 231.41 277.96 228.66 278.98 226.07 C 280.05 223.33 281.93 221.02 283.69 218.70 C 288.80 212.24 296.65 209.03 302.84 203.81 C 306.75 200.80 309.76 196.84 312.59 192.85 C 306.18 194.11 299.67 194.69 293.15 194.74 C 290.40 196.48 287.41 198.21 284.02 197.94 C 267.52 197.68 251.06 191.43 238.78 180.34 C 227.84 170.53 220.32 157.04 217.60 142.60 C 214.30 125.75 217.62 107.89 226.04 93.00 C 239.45 68.70 266.30 52.51 294.08 52.20 C 307.89 51.92 321.55 55.87 333.72 62.24 C 340.71 66.41 348.77 69.24 357.00 68.70 C 363.84 68.49 370.39 65.80 376.03 62.05 C 377.80 60.98 378.13 58.77 378.92 57.03 C 380.81 51.37 384.05 46.27 387.74 41.62 C 391.81 37.03 397.93 35.27 403.54 33.34 C 413.49 30.13 423.05 25.83 432.57 21.52 M 435.29 26.30 C 425.51 30.73 415.64 35.07 405.32 38.11 C 400.34 39.73 394.67 40.93 391.23 45.24 C 384.48 53.13 382.09 63.46 379.24 73.18 C 376.12 84.88 370.45 95.82 368.46 107.83 C 367.00 116.35 366.27 125.24 361.81 132.87 C 380.24 122.76 394.96 107.35 408.86 91.86 C 411.37 89.46 413.18 84.58 417.37 85.51 C 416.61 88.91 414.71 91.88 412.66 94.64 C 405.67 103.87 397.54 112.17 389.12 120.10 C 381.44 127.33 372.69 133.40 363.29 138.20 C 353.24 143.48 346.53 152.95 339.55 161.56 C 330.73 172.44 324.08 184.81 316.62 196.60 C 311.73 204.33 304.24 209.90 296.46 214.48 C 291.55 217.29 287.48 221.25 283.44 225.15 C 283.55 230.38 285.99 235.12 288.41 239.63 C 289.75 242.11 291.58 244.48 294.30 245.52 C 310.73 252.84 329.02 253.68 346.00 259.23 C 349.58 260.04 353.57 262.45 357.09 260.20 C 364.72 255.76 371.02 249.45 377.66 243.70 C 385.77 237.24 395.48 233.33 404.63 228.63 C 413.73 224.23 422.53 219.27 431.40 214.43 C 437.19 211.02 444.84 211.46 450.41 215.10 C 446.07 216.07 441.35 215.16 437.28 217.24 C 431.25 220.15 425.52 223.63 419.68 226.90 C 425.74 231.50 432.44 235.65 440.07 236.94 C 451.53 239.37 463.29 235.65 474.74 238.13 C 481.18 239.30 487.74 242.20 494.32 240.24 C 502.52 238.12 508.20 231.38 515.31 227.23 C 521.14 223.80 527.41 220.79 534.10 219.56 C 536.04 219.02 537.29 220.74 538.63 221.78 C 527.50 226.22 517.03 232.26 507.63 239.69 C 500.53 245.30 491.00 247.34 482.22 245.18 C 487.76 249.82 492.66 255.90 499.94 257.79 C 507.05 259.01 514.77 256.18 521.52 259.52 C 525.03 261.56 523.28 265.83 521.88 268.64 C 524.91 268.39 527.95 268.15 530.99 268.23 C 553.73 269.32 576.15 274.01 598.94 274.44 C 603.31 274.42 607.95 274.15 611.76 271.76 C 615.37 269.45 618.33 266.29 621.24 263.18 C 632.95 250.12 640.54 234.05 651.62 220.52 C 652.98 218.62 655.17 217.69 657.41 217.27 C 655.34 221.74 652.16 225.53 649.53 229.65 C 641.22 241.94 634.95 255.71 624.46 266.42 C 620.05 270.94 615.25 275.70 608.92 277.25 C 602.72 278.74 596.28 278.15 589.99 277.78 C 572.26 276.83 554.72 273.65 536.97 272.94 C 531.84 273.93 526.99 276.44 523.10 279.94 C 533.32 282.78 544.43 282.12 554.09 286.92 C 559.81 289.65 564.44 294.13 569.99 297.16 C 577.60 301.47 586.43 302.97 595.06 303.35 C 602.81 303.61 610.68 303.99 618.28 302.17 C 626.75 300.42 634.48 296.30 641.78 291.80 C 658.82 280.68 674.35 267.38 691.63 256.61 C 705.95 248.11 720.73 240.35 734.36 230.74 C 732.96 222.81 730.88 214.95 727.36 207.68 C 720.07 191.94 707.23 179.94 695.64 167.40 C 688.54 160.24 684.32 150.86 677.59 143.41 C 671.75 136.90 665.69 130.58 659.11 124.82 C 655.69 121.86 652.89 118.29 650.39 114.55 C 642.22 103.14 630.01 95.57 617.70 89.32 C 609.63 85.51 601.56 81.67 593.17 78.60 C 584.36 75.52 575.14 72.97 567.37 67.62 C 557.28 61.28 546.06 56.78 534.40 54.38 C 523.34 52.12 512.46 48.31 501.06 48.26 C 491.04 48.14 481.03 47.45 471.00 47.50 C 462.73 47.39 454.34 48.49 446.18 46.71 C 444.67 46.55 443.49 45.33 443.43 43.79 C 461.77 41.09 480.35 42.19 498.81 42.53 C 494.26 39.71 489.71 36.84 485.70 33.26 C 477.60 26.94 468.55 20.81 458.03 19.87 C 450.02 19.89 442.58 23.35 435.29 26.30 M 478.44 22.14 C 489.25 28.70 497.74 39.04 510.10 42.97 C 526.07 47.30 542.74 49.80 557.78 57.02 C 557.80 51.34 558.44 45.44 562.14 40.86 C 553.98 38.27 545.62 36.22 537.07 35.43 C 529.72 34.82 522.62 32.76 515.52 30.89 C 518.67 34.61 521.66 38.56 525.60 41.50 C 528.07 43.36 530.64 45.13 532.80 47.38 C 521.55 46.89 514.94 36.36 508.17 28.78 C 500.85 20.30 488.53 21.05 478.44 22.14 M 561.19 58.90 C 565.48 61.26 569.74 63.68 574.00 66.09 C 580.71 69.53 588.03 71.51 595.18 73.81 C 609.36 79.12 623.10 85.71 635.83 93.93 C 640.49 89.34 638.66 82.26 637.28 76.66 C 635.26 68.42 627.17 63.82 619.87 60.86 C 606.27 55.83 592.05 52.81 577.93 49.68 C 573.40 48.67 569.12 46.77 565.31 44.15 C 563.26 48.86 562.27 53.91 561.19 58.90 M 346.02 72.82 C 356.50 86.14 361.70 103.16 361.43 120.03 C 362.01 115.15 362.84 110.30 363.67 105.46 C 366.00 93.01 371.78 81.58 374.91 69.34 C 365.89 73.41 355.72 74.02 346.02 72.82 M 304.95 148.09 C 303.63 151.60 305.97 155.19 308.53 157.46 C 314.41 162.54 322.21 164.82 329.87 165.18 C 333.72 159.75 337.92 154.57 342.14 149.41 C 334.30 143.24 323.81 140.16 313.93 142.17 C 310.40 142.93 306.51 144.58 304.95 148.09 M 306.03 185.85 C 301.83 187.14 297.61 188.43 293.66 190.37 C 301.48 190.23 309.11 188.25 316.54 185.95 C 318.13 183.35 319.72 180.75 321.33 178.17 C 316.57 181.33 311.52 184.16 306.03 185.85 M 127.27 219.05 C 125.78 223.09 120.45 222.84 116.98 222.16 C 110.68 220.52 104.28 219.18 98.15 216.99 C 99.30 216.27 100.34 214.99 101.84 215.11 C 109.01 214.38 115.67 217.72 122.73 218.09 C 122.36 215.99 121.97 213.89 121.59 211.80 C 113.34 212.81 104.96 212.37 96.76 213.85 C 93.62 214.45 89.93 215.67 88.85 219.05 C 87.93 222.34 89.17 225.72 89.08 229.06 C 88.51 232.60 85.62 235.32 85.26 238.93 C 84.89 241.64 85.61 244.33 85.74 247.04 C 85.33 249.80 82.83 252.08 83.42 255.03 C 83.91 257.58 83.31 260.04 82.12 262.30 C 90.31 268.39 100.29 271.19 109.92 274.07 C 118.66 276.79 127.97 277.86 137.07 276.64 C 143.67 276.52 148.75 281.54 153.04 285.94 C 159.09 292.87 166.02 298.93 172.99 304.90 C 183.59 313.65 194.19 323.34 207.76 327.11 C 218.21 329.85 229.34 330.28 239.95 328.22 C 254.29 325.70 266.72 317.57 278.62 309.65 C 293.83 299.21 308.82 288.46 324.01 277.98 C 330.40 273.79 336.23 268.83 341.97 263.80 C 324.65 259.22 306.16 258.22 290.02 249.85 C 285.94 247.73 283.96 243.35 281.88 239.51 C 270.59 248.83 256.59 253.98 245.24 263.22 C 239.68 267.48 234.13 272.51 226.99 273.76 C 224.95 274.22 221.70 273.76 222.20 270.95 C 223.72 269.71 225.49 268.84 227.20 267.89 C 222.51 266.41 218.02 264.17 213.11 263.53 C 199.08 261.76 184.90 261.12 171.00 258.47 C 164.73 257.28 158.45 255.49 153.00 252.10 C 150.22 250.38 147.86 247.52 148.25 244.06 C 147.49 236.34 150.38 228.27 147.22 220.88 C 145.64 216.46 141.95 213.11 137.74 211.22 C 133.62 209.31 129.85 206.77 126.23 204.06 C 124.97 209.11 126.82 214.06 127.27 219.05 M 690.42 263.52 C 679.28 270.87 668.79 279.17 657.79 286.74 C 645.96 295.23 633.54 303.88 619.00 306.79 C 611.14 308.60 603.02 308.35 595.02 308.06 C 585.40 307.64 575.61 305.74 567.21 300.85 C 561.50 297.65 556.68 293.02 550.65 290.38 C 543.17 286.93 534.77 286.83 526.89 284.80 C 529.06 288.91 531.44 293.17 531.75 297.91 C 532.03 303.41 529.10 308.27 527.68 313.42 C 526.41 317.64 529.35 321.43 530.86 325.16 C 532.48 328.98 534.84 333.24 533.42 337.47 C 530.71 340.77 524.91 340.89 523.16 345.15 C 523.41 350.29 527.40 354.72 526.75 359.99 C 525.88 363.67 523.40 366.68 521.52 369.90 C 524.08 377.07 522.42 384.68 521.70 392.02 C 521.09 400.56 526.84 407.77 532.75 413.26 C 540.89 420.92 549.52 428.19 559.21 433.82 C 574.08 441.87 591.32 443.38 607.91 444.27 C 622.84 445.36 637.84 444.88 652.75 443.72 C 658.49 443.72 658.85 436.62 661.93 433.16 C 666.32 434.82 668.74 439.33 670.73 443.31 C 673.44 450.14 675.97 457.20 676.38 464.61 C 691.60 464.05 706.93 462.36 721.43 457.48 C 728.55 455.04 735.65 452.51 742.58 449.56 C 760.62 441.24 775.88 427.91 794.27 420.26 C 799.52 418.28 804.92 416.76 810.20 414.85 C 807.38 407.01 801.82 400.22 800.61 391.81 C 797.75 371.77 802.44 350.56 794.49 331.36 C 789.46 317.98 777.73 308.06 774.48 293.89 C 773.19 286.98 772.92 279.72 769.54 273.37 C 762.41 257.48 748.10 246.87 735.39 235.69 C 721.13 246.11 705.30 254.05 690.42 263.52 M 746.34 454.28 C 729.36 461.51 711.79 468.22 693.21 469.63 C 701.37 492.85 709.51 516.10 715.99 539.85 C 719.62 553.73 723.49 567.79 730.75 580.29 C 735.94 588.52 742.68 595.64 749.97 602.04 C 755.98 607.30 758.06 615.66 764.45 620.54 C 767.04 622.77 770.30 623.99 772.97 626.13 C 775.38 628.01 775.26 631.35 775.91 634.08 C 776.88 639.96 780.06 645.13 783.32 650.01 C 792.13 636.56 805.66 627.01 819.80 619.83 C 827.81 615.98 836.02 611.11 845.24 611.71 C 839.61 606.67 834.15 601.43 828.21 596.75 C 826.79 595.45 824.17 593.67 825.84 591.53 C 829.89 592.10 832.98 595.05 836.33 597.13 C 833.00 590.11 830.51 582.75 827.68 575.54 C 823.65 564.21 818.92 553.01 817.25 541.02 C 815.41 531.13 816.44 520.97 814.41 511.11 C 812.18 499.54 807.91 488.51 804.97 477.12 C 800.08 459.80 797.81 441.56 799.95 423.63 C 780.42 430.79 764.99 445.43 746.34 454.28 M 547.45 432.31 C 552.43 448.54 548.10 465.67 551.05 482.14 C 553.97 487.81 559.22 491.93 564.40 495.47 C 576.93 503.41 592.22 507.15 606.99 505.44 C 615.62 504.35 624.52 501.06 630.16 494.15 C 632.60 491.00 634.97 486.88 633.44 482.81 C 631.80 476.65 627.21 470.26 629.81 463.76 C 633.79 457.65 639.62 452.98 645.45 448.71 C 628.94 450.11 612.41 448.81 595.95 447.59 C 578.89 446.73 561.17 443.07 547.45 432.31 M 552.31 490.72 C 556.14 512.06 562.48 533.28 574.23 551.68 C 578.38 558.61 583.46 565.10 586.20 572.78 C 587.53 576.34 585.65 580.08 586.32 583.72 C 587.88 590.78 592.26 597.02 598.09 601.24 C 604.94 596.34 609.55 588.87 617.10 584.86 C 614.93 578.47 613.42 571.73 614.48 564.96 C 615.62 550.57 623.62 538.21 629.55 525.44 C 634.30 515.41 634.95 504.10 635.00 493.19 C 629.17 503.45 617.46 508.60 606.12 509.69 C 586.60 511.68 566.14 504.76 552.31 490.72 M 543.92 516.80 C 541.78 519.87 540.94 523.60 539.94 527.16 C 538.44 533.00 536.36 538.88 536.96 545.01 C 537.77 554.30 542.23 562.90 548.07 570.03 C 552.66 575.75 558.65 580.07 564.17 584.83 C 571.78 591.20 579.18 597.94 585.24 605.85 C 592.86 616.04 602.93 625.38 615.61 628.46 C 620.19 629.03 625.29 629.66 629.59 627.61 C 634.53 623.26 635.59 616.15 636.06 609.92 C 636.59 596.34 628.85 584.03 619.49 574.83 C 620.17 578.74 621.99 582.61 621.62 586.64 C 618.78 589.53 614.95 591.16 611.98 593.91 C 608.31 596.93 605.52 600.83 601.97 603.96 C 599.26 606.25 595.23 605.43 592.64 603.38 C 587.36 599.36 584.07 593.26 581.90 587.11 C 580.28 582.92 581.68 578.41 581.07 574.12 C 579.30 568.37 575.36 563.67 572.26 558.62 C 563.77 545.64 557.16 531.44 552.99 516.49 C 550.09 516.36 546.03 513.74 543.92 516.80 M 835.63 619.47 C 828.43 622.37 821.50 625.93 814.80 629.82 C 803.88 636.19 794.72 645.22 787.20 655.32 C 790.09 660.23 792.74 665.33 794.36 670.83 C 797.81 682.23 800.38 693.88 803.80 705.29 C 814.98 734.01 825.81 762.87 837.63 791.34 C 842.91 803.80 846.24 816.99 848.74 830.26 C 849.91 837.47 849.98 844.81 850.27 852.10 C 850.52 857.54 851.16 863.13 853.78 868.00 C 863.87 862.79 864.80 849.97 872.43 842.48 C 875.70 838.65 880.35 836.63 884.92 834.82 C 889.06 833.09 889.83 828.00 889.91 824.04 C 890.14 804.22 885.50 784.82 883.38 765.21 C 880.43 743.24 879.11 721.11 877.76 699.01 C 874.84 670.31 865.84 642.06 850.32 617.66 C 845.39 617.82 840.27 617.53 835.63 619.47 M 893.79 832.51 C 892.13 834.84 890.76 837.62 888.19 839.10 C 884.75 841.03 880.81 842.16 877.82 844.84 C 870.11 851.32 868.56 862.41 860.80 868.87 C 858.46 870.89 854.96 872.72 851.98 870.94 C 848.29 868.57 848.00 863.73 846.84 859.90 C 845.22 867.61 843.18 875.24 842.14 883.06 C 840.62 893.77 840.61 904.79 837.03 915.12 C 831.30 932.11 821.41 947.44 816.50 964.75 C 819.69 960.88 822.80 956.88 826.74 953.74 C 835.98 946.28 845.07 938.62 854.58 931.50 C 864.72 924.19 874.96 916.58 882.63 906.59 C 890.03 895.35 892.28 881.35 900.72 870.70 C 904.92 865.26 911.01 861.35 917.84 860.22 C 908.89 851.85 900.60 842.71 893.79 832.51 M 913.76 865.83 C 908.86 868.35 904.95 872.48 902.11 877.15 C 895.64 888.04 892.68 900.82 884.98 911.01 C 879.11 918.10 872.23 924.36 864.89 929.89 C 852.71 938.59 841.03 947.97 829.37 957.34 C 822.84 963.05 815.99 970.62 816.95 979.96 C 820.59 980.70 824.36 981.25 828.03 980.40 C 837.87 978.31 847.13 973.96 855.54 968.51 C 866.75 961.04 877.66 952.48 884.99 940.99 C 889.28 934.54 891.57 927.07 895.22 920.29 C 898.99 913.00 903.75 906.26 909.04 900.00 C 915.13 892.75 920.59 884.47 922.23 874.99 C 922.68 871.75 923.12 867.81 920.59 865.28 C 918.48 863.65 915.84 864.83 913.76 865.83 Z" />
		<path fill="#020202" opacity="1.00"
			d=" M 579.31 83.12 C 586.42 85.51 591.47 91.32 597.23 95.82 C 609.78 106.66 622.96 116.74 635.79 127.25 C 647.74 137.31 658.78 148.72 666.87 162.17 C 672.00 170.58 675.38 180.21 675.80 190.09 C 676.01 192.57 674.86 194.86 672.50 195.80 C 671.91 179.30 663.65 164.24 653.07 152.00 C 642.37 138.97 628.69 128.95 616.10 117.90 C 605.54 108.78 594.93 99.72 584.76 90.16 C 582.56 88.13 580.76 85.73 579.31 83.12 Z" />
		<path fill="#020202" opacity="1.00"
			d=" M 399.51 198.99 C 404.76 198.29 409.96 199.40 415.07 200.50 C 426.28 202.67 437.51 205.08 448.96 205.57 C 458.04 205.96 467.15 206.84 475.98 209.06 C 478.11 209.66 480.95 210.34 481.32 212.96 C 479.91 216.37 476.01 217.51 472.82 218.59 C 463.63 221.07 453.97 221.42 444.51 220.92 C 445.22 219.98 445.63 218.48 447.07 218.48 C 456.86 217.18 467.13 217.58 476.29 213.32 C 465.36 210.68 454.11 210.12 442.93 209.58 C 427.97 208.56 413.33 204.70 399.51 198.99 Z" />
	</g>
	<g id="#f11b27ff">
		<path fill="var(--shirt-color, grey)" opacity="1.00"
			d=" M 435.29 26.30 C 442.58 23.35 450.02 19.89 458.03 19.87 C 468.55 20.81 477.60 26.94 485.70 33.26 C 489.71 36.84 494.26 39.71 498.81 42.53 C 480.35 42.19 461.77 41.09 443.43 43.79 C 443.49 45.33 444.67 46.55 446.18 46.71 C 454.34 48.49 462.73 47.39 471.00 47.50 C 481.03 47.45 491.04 48.14 501.06 48.26 C 512.46 48.31 523.34 52.12 534.40 54.38 C 546.06 56.78 557.28 61.28 567.37 67.62 C 575.14 72.97 584.36 75.52 593.17 78.60 C 601.56 81.67 609.63 85.51 617.70 89.32 C 630.01 95.57 642.22 103.14 650.39 114.55 C 652.89 118.29 655.69 121.86 659.11 124.82 C 665.69 130.58 671.75 136.90 677.59 143.41 C 684.32 150.86 688.54 160.24 695.64 167.40 C 707.23 179.94 720.07 191.94 727.36 207.68 C 730.88 214.95 732.96 222.81 734.36 230.74 C 720.73 240.35 705.95 248.11 691.63 256.61 C 674.35 267.38 658.82 280.68 641.78 291.80 C 634.48 296.30 626.75 300.42 618.28 302.17 C 610.68 303.99 602.81 303.61 595.06 303.35 C 586.43 302.97 577.60 301.47 569.99 297.16 C 564.44 294.13 559.81 289.65 554.09 286.92 C 544.43 282.12 533.32 282.78 523.10 279.94 C 526.99 276.44 531.84 273.93 536.97 272.94 C 554.72 273.65 572.26 276.83 589.99 277.78 C 596.28 278.15 602.72 278.74 608.92 277.25 C 615.25 275.70 620.05 270.94 624.46 266.42 C 634.95 255.71 641.22 241.94 649.53 229.65 C 652.16 225.53 655.34 221.74 657.41 217.27 C 655.17 217.69 652.98 218.62 651.62 220.52 C 640.54 234.05 632.95 250.12 621.24 263.18 C 618.33 266.29 615.37 269.45 611.76 271.76 C 607.95 274.15 603.31 274.42 598.94 274.44 C 576.15 274.01 553.73 269.32 530.99 268.23 C 527.95 268.15 524.91 268.39 521.88 268.64 C 523.28 265.83 525.03 261.56 521.52 259.52 C 514.77 256.18 507.05 259.01 499.94 257.79 C 492.66 255.90 487.76 249.82 482.22 245.18 C 491.00 247.34 500.53 245.30 507.63 239.69 C 517.03 232.26 527.50 226.22 538.63 221.78 C 537.29 220.74 536.04 219.02 534.10 219.56 C 527.41 220.79 521.14 223.80 515.31 227.23 C 508.20 231.38 502.52 238.12 494.32 240.24 C 487.74 242.20 481.18 239.30 474.74 238.13 C 463.29 235.65 451.53 239.37 440.07 236.94 C 432.44 235.65 425.74 231.50 419.68 226.90 C 425.52 223.63 431.25 220.15 437.28 217.24 C 441.35 215.16 446.07 216.07 450.41 215.10 C 444.84 211.46 437.19 211.02 431.40 214.43 C 422.53 219.27 413.73 224.23 404.63 228.63 C 395.48 233.33 385.77 237.24 377.66 243.70 C 371.02 249.45 364.72 255.76 357.09 260.20 C 353.57 262.45 349.58 260.04 346.00 259.23 C 329.02 253.68 310.73 252.84 294.30 245.52 C 291.58 244.48 289.75 242.11 288.41 239.63 C 285.99 235.12 283.55 230.38 283.44 225.15 C 287.48 221.25 291.55 217.29 296.46 214.48 C 304.24 209.90 311.73 204.33 316.62 196.60 C 324.08 184.81 330.73 172.44 339.55 161.56 C 346.53 152.95 353.24 143.48 363.29 138.20 C 372.69 133.40 381.44 127.33 389.12 120.10 C 397.54 112.17 405.67 103.87 412.66 94.64 C 414.71 91.88 416.61 88.91 417.37 85.51 C 413.18 84.58 411.37 89.46 408.86 91.86 C 394.96 107.35 380.24 122.76 361.81 132.87 C 366.27 125.24 367.00 116.35 368.46 107.83 C 370.45 95.82 376.12 84.88 379.24 73.18 C 382.09 63.46 384.48 53.13 391.23 45.24 C 394.67 40.93 400.34 39.73 405.32 38.11 C 415.64 35.07 425.51 30.73 435.29 26.30 M 579.31 83.12 C 580.76 85.73 582.56 88.13 584.76 90.16 C 594.93 99.72 605.54 108.78 616.10 117.90 C 628.69 128.95 642.37 138.97 653.07 152.00 C 663.65 164.24 671.91 179.30 672.50 195.80 C 674.86 194.86 676.01 192.57 675.80 190.09 C 675.38 180.21 672.00 170.58 666.87 162.17 C 658.78 148.72 647.74 137.31 635.79 127.25 C 622.96 116.74 609.78 106.66 597.23 95.82 C 591.47 91.32 586.42 85.51 579.31 83.12 M 399.51 198.99 C 413.33 204.70 427.97 208.56 442.93 209.58 C 454.11 210.12 465.36 210.68 476.29 213.32 C 467.13 217.58 456.86 217.18 447.07 218.48 C 445.63 218.48 445.22 219.98 444.51 220.92 C 453.97 221.42 463.63 221.07 472.82 218.59 C 476.01 217.51 479.91 216.37 481.32 212.96 C 480.95 210.34 478.11 209.66 475.98 209.06 C 467.15 206.84 458.04 205.96 448.96 205.57 C 437.51 205.08 426.28 202.67 415.07 200.50 C 409.96 199.40 404.76 198.29 399.51 198.99 Z" />
		<path fill="var(--shirt-color, grey)" opacity="1.00"
			d=" M 478.44 22.14 C 488.53 21.05 500.85 20.30 508.17 28.78 C 514.94 36.36 521.55 46.89 532.80 47.38 C 530.64 45.13 528.07 43.36 525.60 41.50 C 521.66 38.56 518.67 34.61 515.52 30.89 C 522.62 32.76 529.72 34.82 537.07 35.43 C 545.62 36.22 553.98 38.27 562.14 40.86 C 558.44 45.44 557.80 51.34 557.78 57.02 C 542.74 49.80 526.07 47.30 510.10 42.97 C 497.74 39.04 489.25 28.70 478.44 22.14 Z" />
	</g>
	<g id="#f0b58bff">
		<path fill="#f0b58b" opacity="1.00"
			d=" M 561.19 58.90 C 562.27 53.91 563.26 48.86 565.31 44.15 C 569.12 46.77 573.40 48.67 577.93 49.68 C 592.05 52.81 606.27 55.83 619.87 60.86 C 627.17 63.82 635.26 68.42 637.28 76.66 C 638.66 82.26 640.49 89.34 635.83 93.93 C 623.10 85.71 609.36 79.12 595.18 73.81 C 588.03 71.51 580.71 69.53 574.00 66.09 C 569.74 63.68 565.48 61.26 561.19 58.90 Z" />
		<path fill="#f0b58b" opacity="1.00"
			d=" M 346.02 72.82 C 355.72 74.02 365.89 73.41 374.91 69.34 C 371.78 81.58 366.00 93.01 363.67 105.46 C 362.84 110.30 362.01 115.15 361.43 120.03 C 361.70 103.16 356.50 86.14 346.02 72.82 Z" />
		<path fill="#f0b58b" opacity="1.00"
			d=" M 304.95 148.09 C 306.51 144.58 310.40 142.93 313.93 142.17 C 323.81 140.16 334.30 143.24 342.14 149.41 C 337.92 154.57 333.72 159.75 329.87 165.18 C 322.21 164.82 314.41 162.54 308.53 157.46 C 305.97 155.19 303.63 151.60 304.95 148.09 Z" />
		<path fill="#f0b58b" opacity="1.00"
			d=" M 306.03 185.85 C 311.52 184.16 316.57 181.33 321.33 178.17 C 319.72 180.75 318.13 183.35 316.54 185.95 C 309.11 188.25 301.48 190.23 293.66 190.37 C 297.61 188.43 301.83 187.14 306.03 185.85 Z" />
		<path fill="#f0b58b" opacity="1.00"
			d=" M 127.27 219.05 C 126.82 214.06 124.97 209.11 126.23 204.06 C 129.85 206.77 133.62 209.31 137.74 211.22 C 141.95 213.11 145.64 216.46 147.22 220.88 C 150.38 228.27 147.49 236.34 148.25 244.06 C 147.86 247.52 150.22 250.38 153.00 252.10 C 158.45 255.49 164.73 257.28 171.00 258.47 C 184.90 261.12 199.08 261.76 213.11 263.53 C 218.02 264.17 222.51 266.41 227.20 267.89 C 225.49 268.84 223.72 269.71 222.20 270.95 C 221.70 273.76 224.95 274.22 226.99 273.76 C 234.13 272.51 239.68 267.48 245.24 263.22 C 256.59 253.98 270.59 248.83 281.88 239.51 C 283.96 243.35 285.94 247.73 290.02 249.85 C 306.16 258.22 324.65 259.22 341.97 263.80 C 336.23 268.83 330.40 273.79 324.01 277.98 C 308.82 288.46 293.83 299.21 278.62 309.65 C 266.72 317.57 254.29 325.70 239.95 328.22 C 229.34 330.28 218.21 329.85 207.76 327.11 C 194.19 323.34 183.59 313.65 172.99 304.90 C 166.02 298.93 159.09 292.87 153.04 285.94 C 148.75 281.54 143.67 276.52 137.07 276.64 C 127.97 277.86 118.66 276.79 109.92 274.07 C 100.29 271.19 90.31 268.39 82.12 262.30 C 83.31 260.04 83.91 257.58 83.42 255.03 C 82.83 252.08 85.33 249.80 85.74 247.04 C 85.61 244.33 84.89 241.64 85.26 238.93 C 85.62 235.32 88.51 232.60 89.08 229.06 C 89.17 225.72 87.93 222.34 88.85 219.05 C 89.93 215.67 93.62 214.45 96.76 213.85 C 104.96 212.37 113.34 212.81 121.59 211.80 C 121.97 213.89 122.36 215.99 122.73 218.09 C 115.67 217.72 109.01 214.38 101.84 215.11 C 100.34 214.99 99.30 216.27 98.15 216.99 C 104.28 219.18 110.68 220.52 116.98 222.16 C 120.45 222.84 125.78 223.09 127.27 219.05 Z" />
		<path fill="#f0b58b" opacity="1.00"
			d=" M 746.34 454.28 C 764.99 445.43 780.42 430.79 799.95 423.63 C 797.81 441.56 800.08 459.80 804.97 477.12 C 807.91 488.51 812.18 499.54 814.41 511.11 C 816.44 520.97 815.41 531.13 817.25 541.02 C 818.92 553.01 823.65 564.21 827.68 575.54 C 830.51 582.75 833.00 590.11 836.33 597.13 C 832.98 595.05 829.89 592.10 825.84 591.53 C 824.17 593.67 826.79 595.45 828.21 596.75 C 834.15 601.43 839.61 606.67 845.24 611.71 C 836.02 611.11 827.81 615.98 819.80 619.83 C 805.66 627.01 792.13 636.56 783.32 650.01 C 780.06 645.13 776.88 639.96 775.91 634.08 C 775.26 631.35 775.38 628.01 772.97 626.13 C 770.30 623.99 767.04 622.77 764.45 620.54 C 758.06 615.66 755.98 607.30 749.97 602.04 C 742.68 595.64 735.94 588.52 730.75 580.29 C 723.49 567.79 719.62 553.73 715.99 539.85 C 709.51 516.10 701.37 492.85 693.21 469.63 C 711.79 468.22 729.36 461.51 746.34 454.28 Z" />
		<path fill="#f0b58b" opacity="1.00"
			d=" M 547.45 432.31 C 561.17 443.07 578.89 446.73 595.95 447.59 C 612.41 448.81 628.94 450.11 645.45 448.71 C 639.62 452.98 633.79 457.65 629.81 463.76 C 627.21 470.26 631.80 476.65 633.44 482.81 C 634.97 486.88 632.60 491.00 630.16 494.15 C 624.52 501.06 615.62 504.35 606.99 505.44 C 592.22 507.15 576.93 503.41 564.40 495.47 C 559.22 491.93 553.97 487.81 551.05 482.14 C 548.10 465.67 552.43 448.54 547.45 432.31 Z" />
	</g>
	<g id="#2b3dcdff">
		<path fill="var(--pants-color, grey)" opacity="1.00"
			d=" M 690.42 263.52 C 705.30 254.05 721.13 246.11 735.39 235.69 C 748.10 246.87 762.41 257.48 769.54 273.37 C 772.92 279.72 773.19 286.98 774.48 293.89 C 777.73 308.06 789.46 317.98 794.49 331.36 C 802.44 350.56 797.75 371.77 800.61 391.81 C 801.82 400.22 807.38 407.01 810.20 414.85 C 804.92 416.76 799.52 418.28 794.27 420.26 C 775.88 427.91 760.62 441.24 742.58 449.56 C 735.65 452.51 728.55 455.04 721.43 457.48 C 706.93 462.36 691.60 464.05 676.38 464.61 C 675.97 457.20 673.44 450.14 670.73 443.31 C 668.74 439.33 666.32 434.82 661.93 433.16 C 658.85 436.62 658.49 443.72 652.75 443.72 C 637.84 444.88 622.84 445.36 607.91 444.27 C 591.32 443.38 574.08 441.87 559.21 433.82 C 549.52 428.19 540.89 420.92 532.75 413.26 C 526.84 407.77 521.09 400.56 521.70 392.02 C 522.42 384.68 524.08 377.07 521.52 369.90 C 523.40 366.68 525.88 363.67 526.75 359.99 C 527.40 354.72 523.41 350.29 523.16 345.15 C 524.91 340.89 530.71 340.77 533.42 337.47 C 534.84 333.24 532.48 328.98 530.86 325.16 C 529.35 321.43 526.41 317.64 527.68 313.42 C 529.10 308.27 532.03 303.41 531.75 297.91 C 531.44 293.17 529.06 288.91 526.89 284.80 C 534.77 286.83 543.17 286.93 550.65 290.38 C 556.68 293.02 561.50 297.65 567.21 300.85 C 575.61 305.74 585.40 307.64 595.02 308.06 C 603.02 308.35 611.14 308.60 619.00 306.79 C 633.54 303.88 645.96 295.23 657.79 286.74 C 668.79 279.17 679.28 270.87 690.42 263.52 Z" />
		<path fill="var(--socks-color, grey)" opacity="1.00"
			d=" M 552.31 490.72 C 566.14 504.76 586.60 511.68 606.12 509.69 C 617.46 508.60 629.17 503.45 635.00 493.19 C 634.95 504.10 634.30 515.41 629.55 525.44 C 623.62 538.21 615.62 550.57 614.48 564.96 C 613.42 571.73 614.93 578.47 617.10 584.86 C 609.55 588.87 604.94 596.34 598.09 601.24 C 592.26 597.02 587.88 590.78 586.32 583.72 C 585.65 580.08 587.53 576.34 586.20 572.78 C 583.46 565.10 578.38 558.61 574.23 551.68 C 562.48 533.28 556.14 512.06 552.31 490.72 Z" />
		<path fill="var(--socks-color, grey)" opacity="1.00"
			d=" M 835.63 619.47 C 840.27 617.53 845.39 617.82 850.32 617.66 C 865.84 642.06 874.84 670.31 877.76 699.01 C 879.11 721.11 880.43 743.24 883.38 765.21 C 885.50 784.82 890.14 804.22 889.91 824.04 C 889.83 828.00 889.06 833.09 884.92 834.82 C 880.35 836.63 875.70 838.65 872.43 842.48 C 864.80 849.97 863.87 862.79 853.78 868.00 C 851.16 863.13 850.52 857.54 850.27 852.10 C 849.98 844.81 849.91 837.47 848.74 830.26 C 846.24 816.99 842.91 803.80 837.63 791.34 C 825.81 762.87 814.98 734.01 803.80 705.29 C 800.38 693.88 797.81 682.23 794.36 670.83 C 792.74 665.33 790.09 660.23 787.20 655.32 C 794.72 645.22 803.88 636.19 814.80 629.82 C 821.50 625.93 828.43 622.37 835.63 619.47 Z" />
	</g>
	<g id="#4d4d4dff">
		<path fill="#4d4d4d" opacity="1.00"
			d=" M 543.92 516.80 C 546.03 513.74 550.09 516.36 552.99 516.49 C 557.16 531.44 563.77 545.64 572.26 558.62 C 575.36 563.67 579.30 568.37 581.07 574.12 C 581.68 578.41 580.28 582.92 581.90 587.11 C 584.07 593.26 587.36 599.36 592.64 603.38 C 595.23 605.43 599.26 606.25 601.97 603.96 C 605.52 600.83 608.31 596.93 611.98 593.91 C 614.95 591.16 618.78 589.53 621.62 586.64 C 621.99 582.61 620.17 578.74 619.49 574.83 C 628.85 584.03 636.59 596.34 636.06 609.92 C 635.59 616.15 634.53 623.26 629.59 627.61 C 625.29 629.66 620.19 629.03 615.61 628.46 C 602.93 625.38 592.86 616.04 585.24 605.85 C 579.18 597.94 571.78 591.20 564.17 584.83 C 558.65 580.07 552.66 575.75 548.07 570.03 C 542.23 562.90 537.77 554.30 536.96 545.01 C 536.36 538.88 538.44 533.00 539.94 527.16 C 540.94 523.60 541.78 519.87 543.92 516.80 Z" />
		<path fill="#4d4d4d" opacity="1.00"
			d=" M 893.79 832.51 C 900.60 842.71 908.89 851.85 917.84 860.22 C 911.01 861.35 904.92 865.26 900.72 870.70 C 892.28 881.35 890.03 895.35 882.63 906.59 C 874.96 916.58 864.72 924.19 854.58 931.50 C 845.07 938.62 835.98 946.28 826.74 953.74 C 822.80 956.88 819.69 960.88 816.50 964.75 C 821.41 947.44 831.30 932.11 837.03 915.12 C 840.61 904.79 840.62 893.77 842.14 883.06 C 843.18 875.24 845.22 867.61 846.84 859.90 C 848.00 863.73 848.29 868.57 851.98 870.94 C 854.96 872.72 858.46 870.89 860.80 868.87 C 868.56 862.41 870.11 851.32 877.82 844.84 C 880.81 842.16 884.75 841.03 888.19 839.10 C 890.76 837.62 892.13 834.84 893.79 832.51 Z" />
		<path fill="#4d4d4d" opacity="1.00"
			d=" M 913.76 865.83 C 915.84 864.83 918.48 863.65 920.59 865.28 C 923.12 867.81 922.68 871.75 922.23 874.99 C 920.59 884.47 915.13 892.75 909.04 900.00 C 903.75 906.26 898.99 913.00 895.22 920.29 C 891.57 927.07 889.28 934.54 884.99 940.99 C 877.66 952.48 866.75 961.04 855.54 968.51 C 847.13 973.96 837.87 978.31 828.03 980.40 C 824.36 981.25 820.59 980.70 816.95 979.96 C 815.99 970.62 822.84 963.05 829.37 957.34 C 841.03 947.97 852.71 938.59 864.89 929.89 C 872.23 924.36 879.11 918.10 884.98 911.01 C 892.68 900.82 895.64 888.04 902.11 877.15 C 904.95 872.48 908.86 868.35 913.76 865.83 Z" />
	</g>
</svg>