<?xml version="1.0" encoding="UTF-8" ?>
<!DOCTYPE svg PUBLIC "-//W3C//DTD SVG 1.1//EN" "http://www.w3.org/Graphics/SVG/1.1/DTD/svg11.dtd">
<svg width="1000pt" height="1000pt" viewBox="0 0 1000 1000" version="1.1" xmlns="http://www.w3.org/2000/svg">
	<g id="#020202ff">
		<path fill="#020202" opacity="1.00"
			d=" M 221.92 69.85 C 236.67 58.12 256.71 54.58 275.04 57.40 C 289.44 59.68 304.06 66.03 312.86 78.11 C 318.45 85.46 320.33 95.00 319.72 104.07 C 319.58 106.70 319.09 109.33 319.22 111.97 C 321.61 119.07 326.55 125.00 332.35 129.63 C 334.37 125.04 336.28 120.33 339.27 116.27 C 340.41 114.86 341.90 112.99 343.98 113.58 C 348.28 114.40 352.39 115.99 356.47 117.53 C 360.56 111.64 366.02 106.73 372.26 103.20 C 376.81 100.82 382.06 100.80 387.06 100.68 C 397.59 100.17 407.54 104.58 416.71 109.27 C 430.13 117.50 439.77 130.27 450.65 141.37 C 458.45 148.56 465.49 156.64 474.10 162.91 C 484.40 170.07 496.09 174.84 506.97 181.02 C 509.18 182.34 512.04 183.81 512.03 186.80 C 510.18 188.78 507.81 190.17 505.68 191.82 C 520.50 204.69 538.59 212.94 553.96 225.06 C 572.54 239.70 588.73 257.02 605.95 273.17 C 613.69 279.40 621.31 285.78 629.13 291.90 C 643.35 302.98 661.27 307.71 675.83 318.23 C 685.32 325.23 690.71 336.00 697.81 345.13 C 703.13 351.51 709.17 357.26 714.24 363.86 C 715.45 365.62 716.83 367.68 716.36 369.93 C 715.57 372.28 712.87 372.38 710.86 372.84 C 711.98 375.49 713.90 379.06 711.48 381.60 C 709.16 383.79 705.95 381.91 703.42 381.26 C 704.75 383.71 706.50 386.15 706.70 389.03 C 706.85 391.37 704.42 393.37 702.15 392.75 C 699.07 391.96 696.70 389.67 694.20 387.85 C 692.59 388.66 690.98 389.91 689.07 389.40 C 677.55 387.79 667.37 381.71 657.39 376.12 C 658.06 379.15 659.55 382.72 657.65 385.62 C 656.59 387.19 654.32 387.17 652.95 386.06 C 644.70 380.04 638.29 371.90 630.10 365.81 C 626.46 363.07 623.13 359.65 621.77 355.19 C 618.27 344.35 614.12 333.58 607.86 324.01 C 604.15 318.15 598.37 314.12 592.79 310.21 C 577.80 300.29 562.40 291.03 547.05 281.69 C 549.55 300.04 547.87 318.61 548.80 337.06 C 554.49 365.00 562.60 393.27 559.72 422.10 C 559.36 424.72 556.78 427.17 554.05 426.67 C 550.67 426.21 547.49 424.98 544.24 424.05 C 544.17 436.26 545.27 448.55 543.72 460.73 C 541.89 472.42 536.95 483.49 530.05 493.05 C 527.07 497.05 524.84 501.52 523.26 506.24 C 517.06 523.43 505.94 538.30 499.50 555.39 C 494.66 567.81 492.49 581.04 488.98 593.85 C 486.80 601.60 485.42 609.55 483.17 617.28 C 482.82 618.75 481.84 620.60 479.98 620.10 C 470.93 618.66 462.32 615.34 453.45 613.14 C 449.73 620.77 447.85 629.10 445.36 637.17 C 441.85 652.16 441.84 667.67 441.48 682.97 C 441.04 695.65 443.41 708.25 442.71 720.93 C 442.04 733.44 441.17 746.34 435.79 757.86 C 433.16 763.09 430.30 768.21 427.24 773.21 C 421.46 782.34 417.28 792.36 411.82 801.68 C 402.83 818.70 392.87 835.37 386.66 853.68 C 384.09 861.91 385.52 870.64 387.04 878.92 C 388.25 884.80 391.91 889.77 393.54 895.51 C 396.28 904.51 396.61 914.76 392.28 923.32 C 388.81 930.01 382.20 934.16 375.97 937.98 C 363.23 945.66 348.57 949.36 335.66 956.69 C 324.22 963.21 316.11 973.92 305.58 981.63 C 298.24 987.16 289.09 989.80 280.03 990.62 C 275.00 991.35 270.38 988.42 266.81 985.21 C 262.06 980.20 261.71 972.52 263.00 966.09 C 264.84 959.06 268.24 952.57 270.67 945.75 C 264.50 945.69 258.01 945.56 252.45 942.53 C 248.62 940.51 243.73 938.64 242.67 933.92 C 241.50 927.98 243.92 921.44 248.75 917.77 C 254.58 913.08 262.04 911.44 268.97 909.09 C 280.68 905.20 292.28 899.88 301.34 891.31 C 308.21 884.59 313.89 876.57 317.53 867.66 C 319.72 860.91 320.37 853.80 321.52 846.83 C 326.36 820.11 323.84 792.85 322.92 765.91 C 322.07 738.27 322.95 710.60 324.91 683.02 C 325.10 676.99 325.96 670.91 324.87 664.92 C 323.31 654.70 321.75 644.35 322.82 634.01 C 324.99 613.73 330.33 593.92 337.08 574.73 C 333.70 573.53 329.77 572.64 327.51 569.63 C 326.67 566.72 327.95 563.69 328.54 560.84 C 334.32 540.41 342.49 520.73 351.49 501.53 C 358.63 485.01 366.43 468.62 377.03 453.99 C 380.56 448.89 385.04 444.54 388.50 439.40 C 390.28 436.95 390.23 433.81 390.50 430.94 C 390.97 424.81 391.58 418.67 393.00 412.68 C 387.19 412.47 382.01 409.75 377.01 407.08 C 374.50 405.71 372.56 402.97 372.99 400.01 C 373.93 393.66 376.83 387.83 378.45 381.65 C 379.64 377.15 378.81 372.39 379.99 367.89 C 380.77 364.90 383.57 363.17 385.31 360.80 C 386.01 356.25 383.36 352.05 382.29 347.76 C 381.35 344.56 382.73 341.36 382.99 338.18 C 379.32 332.87 374.30 328.52 369.01 324.87 C 361.94 319.92 353.08 318.18 346.48 312.48 C 339.56 307.21 335.02 299.66 330.76 292.25 C 327.29 286.11 325.55 279.23 323.48 272.55 C 321.00 265.04 319.42 257.28 317.20 249.70 C 315.56 244.27 315.34 238.06 311.25 233.71 C 307.25 229.30 302.53 225.24 300.54 219.43 C 297.11 209.98 295.45 199.13 299.27 189.53 C 295.26 185.08 291.18 180.70 286.97 176.43 C 284.20 181.06 281.32 185.68 277.79 189.78 C 274.27 194.07 267.42 193.94 263.17 190.84 C 257.60 186.79 253.47 181.19 249.03 176.02 C 245.83 172.31 240.91 170.39 236.06 170.49 C 232.96 170.31 229.13 170.83 226.86 168.21 C 224.72 164.53 224.61 160.12 224.05 156.01 C 223.14 148.68 221.77 141.26 218.34 134.65 C 214.04 126.48 210.98 117.45 210.78 108.15 C 209.09 105.71 207.11 103.18 207.05 100.07 C 206.80 96.85 208.16 93.84 209.29 90.91 C 209.68 82.33 215.59 75.14 221.92 69.85 M 225.72 114.35 C 221.51 113.55 217.52 111.94 213.60 110.25 C 215.03 116.11 216.72 121.93 219.04 127.51 C 228.28 120.50 240.66 117.75 251.90 120.86 C 247.73 128.77 241.86 135.88 235.01 141.61 C 232.95 139.43 231.08 137.09 229.31 134.68 C 226.91 134.22 224.53 133.69 222.16 133.11 C 226.50 141.77 227.55 151.51 228.49 161.01 C 228.97 162.92 228.78 166.10 231.35 166.38 C 235.55 166.81 240.00 166.23 243.94 168.10 C 251.30 171.34 255.58 178.47 261.19 183.86 C 263.81 186.47 267.00 189.35 270.99 188.94 C 273.63 188.96 275.33 186.69 276.81 184.83 C 282.11 178.33 285.71 170.15 292.97 165.48 C 291.92 168.50 290.27 171.25 288.66 174.00 C 295.32 179.47 301.11 185.95 306.02 193.01 C 309.30 197.56 313.20 201.61 316.87 205.85 C 319.68 191.65 320.49 177.14 323.04 162.90 C 324.70 152.84 327.37 142.97 330.99 133.44 C 325.40 129.45 320.14 124.58 317.81 117.93 C 316.90 123.53 316.62 129.30 314.99 134.76 C 314.47 134.77 313.44 134.79 312.93 134.80 C 311.96 128.79 313.54 122.76 314.14 116.79 C 310.59 122.24 305.61 126.50 300.68 130.64 C 297.47 133.03 293.87 135.63 289.68 135.50 C 288.58 131.28 289.26 126.83 288.70 122.53 C 287.94 116.31 286.44 109.70 282.10 104.94 C 279.96 102.37 275.65 101.66 273.26 104.26 C 269.52 107.60 271.17 113.16 269.40 117.40 C 266.61 119.01 263.51 120.20 260.34 120.79 C 258.20 119.12 256.95 116.63 255.64 114.32 C 253.30 110.07 250.63 106.00 247.56 102.24 C 244.30 105.53 240.40 108.42 235.81 109.46 C 233.84 109.96 231.40 109.67 230.20 107.83 C 227.31 104.04 226.31 98.01 220.71 97.24 C 218.16 103.65 223.52 108.83 225.72 114.35 M 373.70 108.63 C 368.00 112.05 362.48 116.23 359.02 122.02 C 356.91 125.23 355.24 129.08 351.65 130.93 C 351.01 127.39 353.47 124.37 354.77 121.28 C 350.99 120.15 347.22 118.96 343.42 117.89 C 338.83 125.40 335.91 133.74 333.05 142.01 C 327.25 159.12 325.70 177.23 323.50 195.05 C 322.07 204.65 320.35 214.57 315.08 222.93 C 306.92 218.24 303.31 209.18 300.50 200.72 C 301.51 207.67 302.37 214.91 305.93 221.11 C 308.99 226.55 314.95 229.82 317.34 235.71 C 318.70 239.31 319.13 243.17 320.39 246.81 C 324.87 260.12 327.41 274.09 333.05 286.99 C 337.54 295.11 342.26 303.55 349.87 309.16 C 355.32 313.57 362.30 315.22 368.21 318.84 C 375.44 322.93 381.42 328.85 386.63 335.26 C 398.16 328.37 411.94 327.23 425.02 326.00 C 431.92 325.41 438.58 323.34 445.02 320.90 C 451.71 318.32 458.93 317.50 466.05 317.22 C 467.98 316.97 469.64 318.04 471.24 318.95 C 462.84 321.32 453.97 321.72 445.76 324.79 C 439.41 327.07 432.88 329.03 426.13 329.63 C 417.24 330.43 408.31 331.38 399.68 333.74 C 395.18 335.01 390.22 335.93 386.92 339.55 C 398.83 337.04 411.09 339.33 423.02 337.01 C 435.36 334.86 447.78 332.87 459.89 329.60 C 458.90 330.99 458.04 332.64 456.40 333.37 C 449.57 336.86 441.95 338.29 434.50 339.77 C 426.08 341.23 417.56 342.57 408.99 342.33 C 401.36 342.32 393.50 341.12 386.10 343.57 C 387.42 349.61 390.21 355.30 390.26 361.60 C 407.67 362.15 425.15 360.78 442.20 357.15 C 447.17 355.99 451.84 353.82 456.21 351.20 C 465.96 345.47 475.90 340.08 485.94 334.86 C 490.91 332.35 495.83 329.36 501.48 328.70 C 497.88 332.93 492.79 335.36 488.05 338.04 C 477.54 343.75 467.44 350.18 457.09 356.15 C 451.27 359.61 444.70 361.59 438.04 362.59 C 423.47 364.82 408.71 366.35 393.96 365.39 C 391.23 365.53 387.83 364.49 385.74 366.78 C 383.25 369.13 383.88 372.93 383.52 376.02 C 383.54 384.46 378.88 391.87 377.36 400.00 C 376.75 402.70 379.95 403.99 381.74 405.30 C 387.44 409.22 394.60 408.01 401.07 407.63 C 413.00 406.50 424.99 406.39 436.97 406.59 C 455.68 406.94 474.54 406.07 493.07 409.24 C 501.33 410.35 509.68 410.82 517.83 412.65 C 524.19 414.08 530.46 415.90 536.82 417.37 C 543.28 418.80 549.35 421.51 555.77 423.10 C 556.06 399.82 551.48 376.92 547.11 354.18 C 545.26 361.80 543.41 369.66 539.30 376.44 C 538.77 377.74 537.39 377.73 536.21 377.80 C 535.88 375.31 536.89 372.95 537.66 370.65 C 540.83 361.39 543.39 351.78 543.52 341.94 C 543.71 330.63 543.15 319.32 543.18 308.02 C 543.25 298.18 542.65 288.35 541.79 278.55 C 532.87 273.59 523.55 269.38 514.70 264.28 C 501.66 256.50 487.47 250.40 475.98 240.25 C 474.96 243.61 474.85 247.63 472.19 250.21 C 469.82 251.59 467.37 249.87 465.48 248.49 C 448.87 235.76 429.77 226.54 409.93 220.05 C 404.68 218.19 399.13 217.10 394.24 214.36 C 400.83 213.14 407.23 215.61 413.46 217.41 C 433.17 223.63 453.05 231.56 468.43 245.81 C 472.45 222.13 485.77 199.80 505.92 186.42 C 490.82 178.46 474.43 172.02 462.09 159.83 C 454.92 152.70 447.12 146.18 440.50 138.52 C 432.53 129.51 424.36 120.31 414.06 113.92 C 405.65 109.73 396.55 105.70 386.94 106.23 C 382.46 106.41 377.70 106.31 373.70 108.63 M 301.55 192.27 C 304.14 201.27 306.88 210.86 313.69 217.66 C 314.45 215.08 315.18 212.50 315.88 209.92 C 310.07 204.91 306.33 198.15 301.55 192.27 M 477.18 235.87 C 483.88 240.58 490.36 245.66 497.71 249.36 C 509.95 255.73 521.78 262.90 534.30 268.73 C 541.81 272.37 548.95 276.68 556.06 281.02 C 569.35 288.89 582.49 297.03 595.29 305.67 C 601.37 310.14 607.78 314.65 611.77 321.22 C 616.83 329.33 620.62 338.18 623.75 347.19 C 625.20 351.19 625.90 355.78 629.15 358.82 C 632.60 362.06 636.68 364.58 640.04 367.94 C 644.64 372.56 649.25 377.18 654.30 381.31 C 653.45 378.45 652.53 375.57 650.93 373.03 C 649.11 369.92 645.70 368.30 643.27 365.75 C 640.63 363.06 637.97 360.38 635.35 357.68 C 634.76 356.66 631.26 353.75 634.89 354.38 C 637.53 355.47 639.63 357.49 641.88 359.21 C 648.29 364.55 654.94 369.70 662.32 373.66 C 671.77 378.66 681.17 384.28 691.82 386.26 C 688.93 381.58 684.60 378.04 680.63 374.33 C 673.29 368.14 664.06 364.46 657.20 357.67 C 658.99 357.74 660.84 357.82 662.51 358.61 C 669.70 361.61 676.77 365.17 682.75 370.25 C 689.59 375.83 694.73 383.29 702.13 388.21 C 697.91 378.91 691.74 370.61 684.82 363.15 C 680.63 358.28 676.59 353.07 674.15 347.09 C 675.52 347.88 676.99 348.67 678.08 349.89 C 684.74 357.22 691.27 364.67 698.17 371.79 C 701.01 374.78 704.46 377.17 708.40 378.49 C 706.27 373.62 702.31 370.00 698.95 366.01 C 694.50 360.65 690.52 354.91 687.21 348.79 C 684.89 344.50 681.16 341.11 679.34 336.53 C 687.79 340.19 691.27 349.43 696.87 356.08 C 701.30 360.56 705.89 365.07 711.51 368.06 C 704.82 358.70 696.29 350.83 689.70 341.40 C 684.35 333.89 679.26 325.75 671.27 320.76 C 655.91 311.12 637.97 305.86 624.03 293.93 C 611.15 282.48 596.70 272.78 585.03 259.99 C 571.12 246.17 557.29 231.97 540.82 221.15 C 527.98 212.51 513.88 205.43 502.68 194.58 C 490.99 205.96 481.63 220.07 477.18 235.87 M 397.31 412.58 C 396.13 420.39 396.53 428.34 395.64 436.18 C 395.08 441.09 391.51 444.87 388.50 448.51 C 382.59 455.08 377.39 462.28 372.92 469.90 C 363.64 484.76 357.68 501.30 350.07 517.00 C 343.04 533.69 336.13 550.56 332.04 568.26 C 352.03 574.47 373.52 573.57 393.22 580.89 C 405.50 584.70 416.23 591.92 426.76 599.09 C 434.77 589.04 446.30 582.25 453.23 571.31 C 463.96 553.18 471.55 533.46 480.36 514.37 C 482.58 509.27 486.10 504.91 489.72 500.74 C 492.94 497.05 495.41 492.65 499.42 489.71 C 497.23 499.13 489.34 505.52 484.65 513.59 C 476.76 531.04 470.12 549.07 461.01 565.95 C 456.87 574.34 451.05 581.82 444.50 588.45 C 439.54 592.50 434.21 596.16 430.11 601.15 C 440.88 606.80 453.22 607.55 464.58 611.46 C 469.29 612.95 474.11 614.06 478.92 615.25 C 480.75 608.20 482.01 601.02 483.80 593.96 C 487.78 578.79 490.19 563.10 496.60 548.67 C 503.36 533.09 512.95 518.85 518.82 502.86 C 520.51 497.93 523.12 493.39 526.15 489.16 C 531.86 481.03 535.95 471.75 537.93 462.00 C 540.25 449.03 538.36 435.67 540.86 422.74 C 533.48 420.86 526.09 419.06 518.72 417.19 C 508.82 414.73 498.59 414.39 488.56 412.71 C 479.45 411.20 470.19 411.18 460.99 410.92 C 439.76 411.28 418.49 410.81 397.31 412.58 M 340.70 575.49 C 336.21 592.80 330.88 609.98 328.88 627.81 C 326.75 640.17 328.34 652.76 330.77 664.95 C 331.03 666.79 332.77 667.81 334.18 668.76 C 339.86 672.10 346.47 673.35 352.94 674.11 C 364.82 675.23 377.07 674.42 388.40 670.46 C 392.54 669.07 396.33 666.78 399.55 663.82 C 398.85 656.25 400.12 648.58 403.60 641.80 C 408.08 632.57 411.97 623.04 416.80 613.98 C 419.04 610.14 420.84 606.07 422.65 602.01 C 412.81 595.02 402.33 588.63 390.65 585.25 C 374.48 579.71 357.15 579.79 340.70 575.49 M 427.47 604.85 C 424.58 611.65 420.76 618.00 417.71 624.72 C 414.94 630.60 412.40 636.59 409.43 642.38 C 407.50 646.46 405.40 650.62 404.89 655.17 C 406.02 657.70 408.86 658.74 411.27 659.68 C 419.53 662.46 428.63 662.67 437.03 660.37 C 437.58 654.53 438.10 648.68 439.01 642.90 C 440.24 635.05 443.14 627.63 445.20 619.99 C 445.97 617.23 447.26 614.66 448.53 612.11 C 441.26 610.51 434.12 608.23 427.47 604.85 M 404.56 662.29 C 405.70 671.46 408.04 680.41 409.74 689.49 C 412.40 706.84 413.27 724.68 409.90 742.01 C 407.94 752.16 405.70 762.31 401.93 771.96 C 397.31 783.33 393.41 794.97 389.33 806.54 C 382.59 824.67 378.77 843.90 377.81 863.21 C 379.12 862.37 380.12 861.19 380.40 859.67 C 386.62 831.53 403.00 807.33 415.82 781.96 C 419.89 773.82 425.35 766.48 429.51 758.39 C 433.15 751.78 435.23 744.41 436.18 736.96 C 437.62 725.04 438.07 712.99 437.09 701.01 C 436.04 688.56 436.42 676.04 436.92 663.57 C 426.50 667.25 414.60 667.05 404.56 662.29 M 374.14 678.54 C 359.71 680.62 344.12 680.36 330.96 673.38 C 329.80 689.90 328.24 706.40 328.13 722.97 C 327.25 745.63 327.39 768.33 328.80 790.97 C 329.51 803.31 329.07 815.67 328.48 828.00 C 328.00 837.43 325.99 846.68 324.68 856.01 C 323.59 863.77 320.79 871.23 320.59 879.13 C 322.24 880.13 323.81 881.93 325.97 881.34 C 331.63 880.46 336.42 877.06 341.38 874.41 C 351.52 868.81 361.53 860.72 373.84 861.80 C 373.04 842.83 376.98 823.93 383.24 806.11 C 387.31 794.07 391.27 781.98 396.35 770.33 C 400.22 761.27 402.24 751.58 404.34 742.00 C 407.34 727.86 407.36 713.24 405.80 698.92 C 405.05 688.30 401.95 678.08 400.17 667.63 C 393.04 674.16 383.48 677.02 374.14 678.54 M 362.33 868.38 C 352.16 872.78 343.22 879.58 333.05 883.99 C 328.95 885.72 323.87 886.68 319.92 884.05 C 317.64 882.88 317.13 880.15 316.14 878.04 C 312.67 885.45 307.64 892.13 301.51 897.55 C 291.04 906.57 278.01 911.88 264.97 916.00 C 259.66 917.81 253.81 919.51 250.10 924.00 C 247.86 927.09 246.45 932.26 249.70 935.18 C 253.56 939.36 259.54 940.30 264.97 940.21 C 278.48 940.08 291.68 936.86 305.00 934.99 C 320.87 932.50 336.96 932.28 352.90 930.51 C 360.99 929.40 369.44 928.67 376.75 924.73 C 380.36 922.91 381.08 918.53 381.77 914.96 C 382.97 905.84 381.73 896.62 380.57 887.56 C 379.51 880.78 379.42 873.91 378.67 867.10 C 373.22 866.44 367.47 866.10 362.33 868.38 M 388.81 900.09 C 388.77 907.56 388.18 915.03 386.17 922.25 C 389.87 915.45 390.09 907.55 388.81 900.09 M 328.07 938.64 C 310.27 939.83 292.82 943.77 275.09 945.56 C 273.73 949.66 272.43 953.79 270.78 957.80 C 268.32 963.52 265.76 969.66 266.96 976.03 C 267.47 981.27 271.89 985.65 276.94 986.69 C 282.94 986.92 288.61 984.31 294.02 982.00 C 306.66 975.59 314.41 962.94 326.01 955.09 C 340.69 944.92 358.49 940.90 373.88 932.03 C 359.11 936.84 343.40 937.03 328.07 938.64 Z" />
		<path fill="#020202" opacity="1.00"
			d=" M 347.21 146.15 C 347.91 144.43 349.89 141.01 351.58 143.82 C 349.71 154.13 347.42 164.39 345.80 174.76 C 343.50 188.54 339.62 201.98 335.68 215.36 C 334.45 219.56 333.22 223.87 330.54 227.42 C 329.78 224.78 329.84 222.02 330.60 219.40 C 334.18 205.05 338.04 190.74 340.62 176.17 C 342.48 166.11 343.71 155.82 347.21 146.15 Z" />
	</g>
	<g id="#f0b58bff">
		<path fill="#f0b58b" opacity="1.00"
			d=" M 225.72 114.35 C 223.52 108.83 218.16 103.65 220.71 97.24 C 226.31 98.01 227.31 104.04 230.20 107.83 C 231.40 109.67 233.84 109.96 235.81 109.46 C 240.40 108.42 244.30 105.53 247.56 102.24 C 250.63 106.00 253.30 110.07 255.64 114.32 C 256.95 116.63 258.20 119.12 260.34 120.79 C 263.51 120.20 266.61 119.01 269.40 117.40 C 271.17 113.16 269.52 107.60 273.26 104.26 C 275.65 101.66 279.96 102.37 282.10 104.94 C 286.44 109.70 287.94 116.31 288.70 122.53 C 289.26 126.83 288.58 131.28 289.68 135.50 C 293.87 135.63 297.47 133.03 300.68 130.64 C 305.61 126.50 310.59 122.24 314.14 116.79 C 313.54 122.76 311.96 128.79 312.93 134.80 C 313.44 134.79 314.47 134.77 314.99 134.76 C 316.62 129.30 316.90 123.53 317.81 117.93 C 320.14 124.58 325.40 129.45 330.99 133.44 C 327.37 142.97 324.70 152.84 323.04 162.90 C 320.49 177.14 319.68 191.65 316.87 205.85 C 313.20 201.61 309.30 197.56 306.02 193.01 C 301.11 185.95 295.32 179.47 288.66 174.00 C 290.27 171.25 291.92 168.50 292.97 165.48 C 285.71 170.15 282.11 178.33 276.81 184.83 C 275.33 186.69 273.63 188.96 270.99 188.94 C 267.00 189.35 263.81 186.47 261.19 183.86 C 255.58 178.47 251.30 171.34 243.94 168.10 C 240.00 166.23 235.55 166.81 231.35 166.38 C 228.78 166.10 228.97 162.92 228.49 161.01 C 227.55 151.51 226.50 141.77 222.16 133.11 C 224.53 133.69 226.91 134.22 229.31 134.68 C 231.08 137.09 232.95 139.43 235.01 141.61 C 241.86 135.88 247.73 128.77 251.90 120.86 C 240.66 117.75 228.28 120.50 219.04 127.51 C 216.72 121.93 215.03 116.11 213.60 110.25 C 217.52 111.94 221.51 113.55 225.72 114.35 Z" />
		<path fill="#f0b58b" opacity="1.00"
			d=" M 477.18 235.87 C 481.63 220.07 490.99 205.96 502.68 194.58 C 513.88 205.43 527.98 212.51 540.82 221.15 C 557.29 231.97 571.12 246.17 585.03 259.99 C 596.70 272.78 611.15 282.48 624.03 293.93 C 637.97 305.86 655.91 311.12 671.27 320.76 C 679.26 325.75 684.35 333.89 689.70 341.40 C 696.29 350.83 704.82 358.70 711.51 368.06 C 705.89 365.07 701.30 360.56 696.87 356.08 C 691.27 349.43 687.79 340.19 679.34 336.53 C 681.16 341.11 684.89 344.50 687.21 348.79 C 690.52 354.91 694.50 360.65 698.95 366.01 C 702.31 370.00 706.27 373.62 708.40 378.49 C 704.46 377.17 701.01 374.78 698.17 371.79 C 691.27 364.67 684.74 357.22 678.08 349.89 C 676.99 348.67 675.52 347.88 674.15 347.09 C 676.59 353.07 680.63 358.28 684.82 363.15 C 691.74 370.61 697.91 378.91 702.13 388.21 C 694.73 383.29 689.59 375.83 682.75 370.25 C 676.77 365.17 669.70 361.61 662.51 358.61 C 660.84 357.82 658.99 357.74 657.20 357.67 C 664.06 364.46 673.29 368.14 680.63 374.33 C 684.60 378.04 688.93 381.58 691.82 386.26 C 681.17 384.28 671.77 378.66 662.32 373.66 C 654.94 369.70 648.29 364.55 641.88 359.21 C 639.63 357.49 637.53 355.47 634.89 354.38 C 631.26 353.75 634.76 356.66 635.35 357.68 C 637.97 360.38 640.63 363.06 643.27 365.75 C 645.70 368.30 649.11 369.92 650.93 373.03 C 652.53 375.57 653.45 378.45 654.30 381.31 C 649.25 377.18 644.64 372.56 640.04 367.94 C 636.68 364.58 632.60 362.06 629.15 358.82 C 625.90 355.78 625.20 351.19 623.75 347.19 C 620.62 338.18 616.83 329.33 611.77 321.22 C 607.78 314.65 601.37 310.14 595.29 305.67 C 582.49 297.03 569.35 288.89 556.06 281.02 C 548.95 276.68 541.81 272.37 534.30 268.73 C 521.78 262.90 509.95 255.73 497.71 249.36 C 490.36 245.66 483.88 240.58 477.18 235.87 Z" />
		<path fill="#f0b58b" opacity="1.00"
			d=" M 340.70 575.49 C 357.15 579.79 374.48 579.71 390.65 585.25 C 402.33 588.63 412.81 595.02 422.65 602.01 C 420.84 606.07 419.04 610.14 416.80 613.98 C 411.97 623.04 408.08 632.57 403.60 641.80 C 400.12 648.58 398.85 656.25 399.55 663.82 C 396.33 666.78 392.54 669.07 388.40 670.46 C 377.07 674.42 364.82 675.23 352.94 674.11 C 346.47 673.35 339.86 672.10 334.18 668.76 C 332.77 667.81 331.03 666.79 330.77 664.95 C 328.34 652.76 326.75 640.17 328.88 627.81 C 330.88 609.98 336.21 592.80 340.70 575.49 Z" />
		<path fill="#f0b58b" opacity="1.00"
			d=" M 427.47 604.85 C 434.12 608.23 441.26 610.51 448.53 612.11 C 447.26 614.66 445.97 617.23 445.20 619.99 C 443.14 627.63 440.24 635.05 439.01 642.90 C 438.10 648.68 437.58 654.53 437.03 660.37 C 428.63 662.67 419.53 662.46 411.27 659.68 C 408.86 658.74 406.02 657.70 404.89 655.17 C 405.40 650.62 407.50 646.46 409.43 642.38 C 412.40 636.59 414.94 630.60 417.71 624.72 C 420.76 618.00 424.58 611.65 427.47 604.85 Z" />
	</g>
	<g id="#f11b27ff">
		<path fill="var(--shirt-color, grey)" opacity="1.00"
			d=" M 373.70 108.63 C 377.70 106.31 382.46 106.41 386.94 106.23 C 396.55 105.70 405.65 109.73 414.06 113.92 C 424.36 120.31 432.53 129.51 440.50 138.52 C 447.12 146.18 454.92 152.70 462.09 159.83 C 474.43 172.02 490.82 178.46 505.92 186.42 C 485.77 199.80 472.45 222.13 468.43 245.81 C 453.05 231.56 433.17 223.63 413.46 217.41 C 407.23 215.61 400.83 213.14 394.24 214.36 C 399.13 217.10 404.68 218.19 409.93 220.05 C 429.77 226.54 448.87 235.76 465.48 248.49 C 467.37 249.87 469.82 251.59 472.19 250.21 C 474.85 247.63 474.96 243.61 475.98 240.25 C 487.47 250.40 501.66 256.50 514.70 264.28 C 523.55 269.38 532.87 273.59 541.79 278.55 C 542.65 288.35 543.25 298.18 543.18 308.02 C 543.15 319.32 543.71 330.63 543.52 341.94 C 543.39 351.78 540.83 361.39 537.66 370.65 C 536.89 372.95 535.88 375.31 536.21 377.80 C 537.39 377.73 538.77 377.74 539.30 376.44 C 543.41 369.66 545.26 361.80 547.11 354.18 C 551.48 376.92 556.06 399.82 555.77 423.10 C 549.35 421.51 543.28 418.80 536.82 417.37 C 530.46 415.90 524.19 414.08 517.83 412.65 C 509.68 410.82 501.33 410.35 493.07 409.24 C 474.54 406.07 455.68 406.94 436.97 406.59 C 424.99 406.39 413.00 406.50 401.07 407.63 C 394.60 408.01 387.44 409.22 381.74 405.30 C 379.95 403.99 376.75 402.70 377.36 400.00 C 378.88 391.87 383.54 384.46 383.52 376.02 C 383.88 372.93 383.25 369.13 385.74 366.78 C 387.83 364.49 391.23 365.53 393.96 365.39 C 408.71 366.35 423.47 364.82 438.04 362.59 C 444.70 361.59 451.27 359.61 457.09 356.15 C 467.44 350.18 477.54 343.75 488.05 338.04 C 492.79 335.36 497.88 332.93 501.48 328.70 C 495.83 329.36 490.91 332.35 485.94 334.86 C 475.90 340.08 465.96 345.47 456.21 351.20 C 451.84 353.82 447.17 355.99 442.20 357.15 C 425.15 360.78 407.67 362.15 390.26 361.60 C 390.21 355.30 387.42 349.61 386.10 343.57 C 393.50 341.12 401.36 342.32 408.99 342.33 C 417.56 342.57 426.08 341.23 434.50 339.77 C 441.95 338.29 449.57 336.86 456.40 333.37 C 458.04 332.64 458.90 330.99 459.89 329.60 C 447.78 332.87 435.36 334.86 423.02 337.01 C 411.09 339.33 398.83 337.04 386.92 339.55 C 390.22 335.93 395.18 335.01 399.68 333.74 C 408.31 331.38 417.24 330.43 426.13 329.63 C 432.88 329.03 439.41 327.07 445.76 324.79 C 453.97 321.72 462.84 321.32 471.24 318.95 C 469.64 318.04 467.98 316.97 466.05 317.22 C 458.93 317.50 451.71 318.32 445.02 320.90 C 438.58 323.34 431.92 325.41 425.02 326.00 C 411.94 327.23 398.16 328.37 386.63 335.26 C 381.42 328.85 375.44 322.93 368.21 318.84 C 362.30 315.22 355.32 313.57 349.87 309.16 C 342.26 303.55 337.54 295.11 333.05 286.99 C 327.41 274.09 324.87 260.12 320.39 246.81 C 319.13 243.17 318.70 239.31 317.34 235.71 C 314.95 229.82 308.99 226.55 305.93 221.11 C 302.37 214.91 301.51 207.67 300.50 200.72 C 303.31 209.18 306.92 218.24 315.08 222.93 C 320.35 214.57 322.07 204.65 323.50 195.05 C 325.70 177.23 327.25 159.12 333.05 142.01 C 335.91 133.74 338.83 125.40 343.42 117.89 C 347.22 118.96 350.99 120.15 354.77 121.28 C 353.47 124.37 351.01 127.39 351.65 130.93 C 355.24 129.08 356.91 125.23 359.02 122.02 C 362.48 116.23 368.00 112.05 373.70 108.63 M 347.21 146.15 C 343.71 155.82 342.48 166.11 340.62 176.17 C 338.04 190.74 334.18 205.05 330.60 219.40 C 329.84 222.02 329.78 224.78 330.54 227.42 C 333.22 223.87 334.45 219.56 335.68 215.36 C 339.62 201.98 343.50 188.54 345.80 174.76 C 347.42 164.39 349.71 154.13 351.58 143.82 C 349.89 141.01 347.91 144.43 347.21 146.15 Z" />
		<path fill="var(--shirt-color, grey)" opacity="1.00"
			d=" M 301.55 192.27 C 306.33 198.15 310.07 204.91 315.88 209.92 C 315.18 212.50 314.45 215.08 313.69 217.66 C 306.88 210.86 304.14 201.27 301.55 192.27 Z" />
	</g>
	<g id="#2b3dcdff">
		<path fill="var(--pants-color, grey)" opacity="1.00"
			d=" M 397.31 412.58 C 418.49 410.81 439.76 411.28 460.99 410.92 C 470.19 411.18 479.45 411.20 488.56 412.71 C 498.59 414.39 508.82 414.73 518.72 417.19 C 526.09 419.06 533.48 420.86 540.86 422.74 C 538.36 435.67 540.25 449.03 537.93 462.00 C 535.95 471.75 531.86 481.03 526.15 489.16 C 523.12 493.39 520.51 497.93 518.82 502.86 C 512.95 518.85 503.36 533.09 496.60 548.67 C 490.19 563.10 487.78 578.79 483.80 593.96 C 482.01 601.02 480.75 608.20 478.92 615.25 C 474.11 614.06 469.29 612.95 464.58 611.46 C 453.22 607.55 440.88 606.80 430.11 601.15 C 434.21 596.16 439.54 592.50 444.50 588.45 C 451.05 581.82 456.87 574.34 461.01 565.95 C 470.12 549.07 476.76 531.04 484.65 513.59 C 489.34 505.52 497.23 499.13 499.42 489.71 C 495.41 492.65 492.94 497.05 489.72 500.74 C 486.10 504.91 482.58 509.27 480.36 514.37 C 471.55 533.46 463.96 553.18 453.23 571.31 C 446.30 582.25 434.77 589.04 426.76 599.09 C 416.23 591.92 405.50 584.70 393.22 580.89 C 373.52 573.57 352.03 574.47 332.04 568.26 C 336.13 550.56 343.04 533.69 350.07 517.00 C 357.68 501.30 363.64 484.76 372.92 469.90 C 377.39 462.28 382.59 455.08 388.50 448.51 C 391.51 444.87 395.08 441.09 395.64 436.18 C 396.53 428.34 396.13 420.39 397.31 412.58 Z" />
		<path fill="var(--socks-color, grey)" opacity="1.00"
			d=" M 404.56 662.29 C 414.60 667.05 426.50 667.25 436.92 663.57 C 436.42 676.04 436.04 688.56 437.09 701.01 C 438.07 712.99 437.62 725.04 436.18 736.96 C 435.23 744.41 433.15 751.78 429.51 758.39 C 425.35 766.48 419.89 773.82 415.82 781.96 C 403.00 807.33 386.62 831.53 380.40 859.67 C 380.12 861.19 379.12 862.37 377.81 863.21 C 378.77 843.90 382.59 824.67 389.33 806.54 C 393.41 794.97 397.31 783.33 401.93 771.96 C 405.70 762.31 407.94 752.16 409.90 742.01 C 413.27 724.68 412.40 706.84 409.74 689.49 C 408.04 680.41 405.70 671.46 404.56 662.29 Z" />
		<path fill="var(--socks-color, grey)" opacity="1.00"
			d=" M 374.14 678.54 C 383.48 677.02 393.04 674.16 400.17 667.63 C 401.95 678.08 405.05 688.30 405.80 698.92 C 407.36 713.24 407.34 727.86 404.34 742.00 C 402.24 751.58 400.22 761.27 396.35 770.33 C 391.27 781.98 387.31 794.07 383.24 806.11 C 376.98 823.93 373.04 842.83 373.84 861.80 C 361.53 860.72 351.52 868.81 341.38 874.41 C 336.42 877.06 331.63 880.46 325.97 881.34 C 323.81 881.93 322.24 880.13 320.59 879.13 C 320.79 871.23 323.59 863.77 324.68 856.01 C 325.99 846.68 328.00 837.43 328.48 828.00 C 329.07 815.67 329.51 803.31 328.80 790.97 C 327.39 768.33 327.25 745.63 328.13 722.97 C 328.24 706.40 329.80 689.90 330.96 673.38 C 344.12 680.36 359.71 680.62 374.14 678.54 Z" />
	</g>
	<g id="#4d4d4dff">
		<path fill="#4d4d4d" opacity="1.00"
			d=" M 362.33 868.38 C 367.47 866.10 373.22 866.44 378.67 867.10 C 379.42 873.91 379.51 880.78 380.57 887.56 C 381.73 896.62 382.97 905.84 381.77 914.96 C 381.08 918.53 380.36 922.91 376.75 924.73 C 369.44 928.67 360.99 929.40 352.90 930.51 C 336.96 932.28 320.87 932.50 305.00 934.99 C 291.68 936.86 278.48 940.08 264.97 940.21 C 259.54 940.30 253.56 939.36 249.70 935.18 C 246.45 932.26 247.86 927.09 250.10 924.00 C 253.81 919.51 259.66 917.81 264.97 916.00 C 278.01 911.88 291.04 906.57 301.51 897.55 C 307.64 892.13 312.67 885.45 316.14 878.04 C 317.13 880.15 317.64 882.88 319.92 884.05 C 323.87 886.68 328.95 885.72 333.05 883.99 C 343.22 879.58 352.16 872.78 362.33 868.38 Z" />
		<path fill="#4d4d4d" opacity="1.00"
			d=" M 388.81 900.09 C 390.09 907.55 389.87 915.45 386.17 922.25 C 388.18 915.03 388.77 907.56 388.81 900.09 Z" />
		<path fill="#4d4d4d" opacity="1.00"
			d=" M 328.07 938.64 C 343.40 937.03 359.11 936.84 373.88 932.03 C 358.49 940.90 340.69 944.92 326.01 955.09 C 314.41 962.94 306.66 975.59 294.02 982.00 C 288.61 984.31 282.94 986.92 276.94 986.69 C 271.89 985.65 267.47 981.27 266.96 976.03 C 265.76 969.66 268.32 963.52 270.78 957.80 C 272.43 953.79 273.73 949.66 275.09 945.56 C 292.82 943.77 310.27 939.83 328.07 938.64 Z" />
	</g>
</svg>