<?xml version="1.0" encoding="UTF-8" ?>
<!DOCTYPE svg PUBLIC "-//W3C//DTD SVG 1.1//EN" "http://www.w3.org/Graphics/SVG/1.1/DTD/svg11.dtd">
<svg width="1000pt" height="1000pt" viewBox="0 0 1000 1000" version="1.1" xmlns="http://www.w3.org/2000/svg">
	<g id="#020202ff">
		<path fill="#020202" opacity="1.00"
			d=" M 484.56 39.59 C 498.85 31.95 516.55 31.34 531.47 37.58 C 547.89 44.19 561.20 58.22 566.64 75.11 C 572.95 93.50 569.53 115.56 555.84 129.80 C 550.50 134.91 547.58 142.58 548.64 149.94 C 549.29 154.37 550.52 158.71 552.06 162.91 C 553.64 167.37 557.96 171.36 562.93 171.08 C 570.31 171.08 577.75 171.58 584.94 173.38 C 599.31 177.50 613.17 183.37 626.06 190.97 C 642.18 200.14 658.14 210.46 670.13 224.83 C 680.14 239.02 683.69 256.42 687.75 272.98 C 691.19 287.30 693.85 301.88 699.24 315.65 C 701.22 322.12 705.32 328.08 705.32 335.03 C 704.74 337.42 702.54 338.97 701.03 340.79 C 707.05 346.95 711.93 354.47 713.89 362.93 C 714.96 370.41 712.56 377.76 711.12 385.03 C 708.40 398.48 705.15 411.81 702.12 425.20 C 700.17 433.80 697.51 442.24 696.13 450.96 C 694.03 467.72 699.71 484.24 698.51 500.99 C 697.96 511.91 693.79 522.53 686.96 531.04 C 685.91 532.12 684.69 533.66 683.00 533.38 C 680.37 533.41 679.77 530.33 678.83 528.49 C 675.99 532.35 673.10 536.37 669.09 539.10 C 667.48 540.26 664.98 539.59 664.27 537.72 C 663.13 534.74 663.73 531.47 663.79 528.37 C 663.34 528.53 662.43 528.85 661.98 529.01 C 663.38 542.35 662.88 555.79 662.10 569.15 C 661.25 590.15 657.15 610.92 657.54 631.99 C 657.11 644.13 659.49 656.07 661.05 668.05 C 662.54 677.93 664.73 687.84 669.17 696.85 C 671.26 701.21 674.61 704.87 676.31 709.44 C 682.11 724.42 685.40 740.21 688.04 756.00 C 693.06 788.48 695.94 821.23 698.81 853.95 C 699.13 857.57 699.29 861.21 699.35 864.85 C 704.96 868.06 707.92 874.37 709.43 880.42 C 712.52 892.46 714.04 905.03 712.75 917.45 C 712.23 921.90 711.24 926.67 708.06 930.05 C 703.30 934.77 697.25 938.34 690.56 939.36 C 682.39 940.64 673.65 941.17 665.80 938.16 C 660.97 936.36 657.84 932.12 654.00 928.96 C 644.35 922.55 632.52 921.45 621.91 917.41 C 617.96 916.08 614.02 912.61 614.56 908.06 C 615.44 903.00 619.81 899.59 623.54 896.48 C 632.83 889.59 641.89 882.18 649.27 873.22 C 650.42 871.44 652.11 869.57 651.77 867.31 C 649.26 851.08 646.62 834.81 641.91 819.04 C 638.51 806.32 634.65 793.70 629.27 781.66 C 621.12 763.44 612.89 744.89 609.90 725.00 C 608.64 717.67 607.88 710.10 604.69 703.29 C 601.04 695.11 595.41 687.93 592.49 679.41 C 589.12 670.56 588.52 661.03 586.62 651.83 C 586.04 648.95 585.59 646.04 585.26 643.12 C 585.00 642.87 584.47 642.37 584.21 642.12 C 583.98 650.41 584.40 658.95 581.73 666.93 C 580.99 669.33 578.56 670.48 576.43 671.40 C 572.25 673.12 567.97 674.58 563.72 676.10 C 563.96 687.50 560.97 698.86 562.72 710.24 C 564.87 723.58 568.14 736.72 570.00 750.11 C 571.91 767.86 571.84 785.82 569.91 803.57 C 568.01 822.64 566.88 841.79 564.97 860.87 C 564.44 869.26 563.66 877.65 563.38 886.06 C 563.66 897.70 560.98 909.37 562.99 920.97 C 564.71 930.20 566.38 939.65 565.10 949.05 C 564.35 953.89 562.08 959.09 557.33 961.18 C 550.30 964.36 542.44 962.23 535.14 961.36 C 519.11 958.90 503.04 963.12 486.97 961.76 C 470.78 960.72 455.44 954.40 441.36 946.71 C 433.85 942.20 425.73 937.22 421.92 928.96 C 420.19 925.39 421.39 920.90 424.69 918.71 C 431.92 913.23 441.50 914.67 449.97 914.18 C 463.52 914.29 476.16 908.92 489.20 906.07 C 495.97 903.34 501.92 898.87 508.42 895.57 C 509.77 887.39 507.97 879.13 507.15 870.98 C 505.12 855.05 504.96 838.98 504.19 822.97 C 503.08 809.00 502.39 795.01 501.24 781.05 C 500.60 773.04 500.54 764.97 499.10 757.05 C 497.40 744.66 493.14 732.84 490.21 720.72 C 488.24 713.61 487.72 706.23 486.95 698.92 C 486.20 691.67 485.79 684.36 486.47 677.10 C 481.63 674.59 475.89 673.75 471.44 670.68 C 469.59 659.56 470.48 648.18 469.72 636.96 C 468.05 608.34 466.64 579.66 467.78 551.00 C 468.52 534.76 469.37 518.21 474.46 502.65 C 470.93 499.86 466.78 496.13 467.40 491.16 C 468.14 485.61 473.06 482.17 477.14 478.99 C 477.26 474.66 477.27 470.22 475.83 466.09 C 474.59 462.64 471.06 460.04 471.40 456.08 C 471.26 452.73 472.78 449.68 474.78 447.10 C 474.75 441.54 475.39 435.99 474.85 430.44 C 463.08 441.13 451.30 451.87 438.46 461.29 C 427.96 468.98 417.16 476.24 406.86 484.20 C 408.29 494.23 407.23 505.04 401.81 513.80 C 400.21 516.40 398.35 519.45 394.98 519.79 C 394.02 519.10 393.11 518.35 392.25 517.56 C 392.36 519.89 392.89 522.49 391.51 524.58 C 390.12 526.82 387.18 526.76 384.94 527.49 C 381.83 528.14 379.30 530.69 376.00 530.50 C 372.12 530.35 368.87 527.98 365.40 526.55 C 362.85 525.26 359.78 524.37 358.22 521.79 C 354.92 515.76 352.04 509.02 352.87 501.97 C 353.61 494.64 355.85 487.22 360.24 481.23 C 363.96 476.45 370.26 475.38 375.07 472.13 C 380.79 468.54 384.68 462.86 388.22 457.25 C 399.66 439.10 410.82 420.75 420.61 401.65 C 424.84 393.18 429.28 384.81 434.17 376.71 C 431.09 375.82 427.88 375.25 424.95 373.92 C 423.39 371.25 424.12 367.89 424.06 364.94 C 424.75 350.97 424.58 336.98 424.24 323.00 C 424.21 305.22 426.72 287.46 431.17 270.25 C 434.26 259.48 437.05 248.45 442.53 238.59 C 445.08 234.20 447.57 229.74 450.76 225.77 C 454.28 221.33 458.50 217.52 462.59 213.62 C 472.24 204.50 482.02 195.39 493.14 188.06 C 493.17 183.53 492.62 178.96 490.53 174.89 C 488.16 176.00 485.80 177.85 483.03 177.39 C 479.43 177.02 476.26 174.82 474.12 171.99 C 470.49 167.22 467.94 161.69 466.14 155.99 C 463.62 148.19 461.27 140.26 460.31 132.09 C 459.39 122.09 459.71 112.02 460.00 101.99 C 460.18 98.42 458.01 95.34 457.44 91.91 C 455.82 83.95 458.33 76.00 460.53 68.42 C 464.31 56.12 473.22 45.61 484.56 39.59 M 466.65 91.72 C 466.17 97.88 463.80 103.77 464.06 109.99 C 464.30 116.98 463.22 123.97 463.94 130.95 C 464.50 137.55 466.59 143.87 468.57 150.15 C 470.98 157.29 473.43 164.77 478.54 170.49 C 480.44 172.36 483.85 174.59 486.11 172.05 C 490.62 168.28 494.57 163.90 498.61 159.64 C 501.46 156.53 505.30 154.63 508.94 152.62 C 503.49 158.38 499.55 165.35 494.01 171.05 C 497.06 175.27 497.71 180.58 497.34 185.65 C 504.46 181.76 512.07 178.74 520.00 177.01 C 530.51 174.70 541.04 172.32 551.78 171.44 C 546.29 162.10 542.12 150.72 545.33 139.89 C 540.57 143.19 534.81 144.90 529.01 144.50 C 519.97 143.87 511.02 142.01 502.36 139.35 C 498.19 137.93 493.62 136.78 490.40 133.58 C 488.09 131.18 489.48 127.63 489.78 124.74 C 490.80 117.64 495.26 111.76 497.37 105.05 C 496.29 104.04 494.57 102.79 493.11 103.81 C 485.33 107.98 480.34 115.63 473.66 121.19 C 472.00 111.24 472.78 100.34 466.65 91.72 M 528.54 180.81 C 519.70 182.59 510.82 184.70 502.73 188.81 C 492.89 193.39 484.71 200.64 476.60 207.69 C 470.96 212.83 465.22 217.84 459.61 223.00 C 466.33 220.14 473.46 218.28 479.93 214.83 C 485.10 212.11 490.23 209.30 495.13 206.11 C 498.77 203.81 502.19 201.01 506.38 199.75 C 504.83 204.16 500.56 206.45 496.99 209.03 C 489.51 214.03 482.06 219.26 473.68 222.67 C 466.37 225.69 458.43 227.99 452.47 233.43 C 444.78 240.97 441.83 251.72 438.78 261.71 C 434.46 276.47 431.67 291.66 430.33 306.97 C 429.26 319.81 430.25 332.68 430.24 345.53 C 432.90 338.83 435.62 332.13 437.41 325.14 C 438.62 320.80 439.16 316.31 440.46 311.99 C 441.47 313.85 441.99 315.94 441.68 318.06 C 440.41 329.86 436.77 341.26 431.94 352.06 C 429.07 358.16 429.01 364.99 428.05 371.54 C 440.36 372.13 452.70 371.18 465.01 372.12 C 475.72 372.89 486.91 373.53 496.53 378.82 C 499.82 364.83 501.88 350.42 501.04 336.03 C 499.95 318.90 493.33 302.79 490.80 285.92 C 490.48 282.23 489.71 277.46 492.80 274.73 C 495.44 272.96 498.13 275.54 499.15 277.88 C 501.32 282.33 503.02 288.60 499.10 292.59 C 498.45 287.71 497.96 282.62 495.06 278.46 C 494.86 282.65 495.49 286.80 496.47 290.86 C 499.73 304.83 504.29 318.57 505.79 332.90 C 506.51 338.93 506.33 345.00 506.18 351.06 C 506.04 354.78 508.22 358.03 510.16 361.03 C 519.22 373.77 534.06 383.00 550.01 382.82 C 549.43 383.86 549.23 385.42 547.88 385.77 C 543.32 387.22 538.41 386.30 533.89 385.14 C 522.15 381.60 511.88 373.87 504.67 364.02 C 503.42 370.65 502.64 377.54 499.47 383.61 C 493.89 381.03 488.01 379.12 481.88 378.42 C 481.67 385.83 485.01 392.56 486.61 399.63 C 488.34 407.34 485.59 415.17 481.81 421.83 C 479.36 425.74 479.58 430.55 479.79 434.98 C 480.11 439.16 479.43 443.33 479.50 447.52 C 492.91 443.38 507.12 444.72 520.95 444.35 C 535.55 444.24 550.07 446.10 564.49 448.27 C 569.35 449.04 574.43 449.57 578.70 452.27 C 575.72 452.36 572.75 452.17 569.81 451.75 C 550.68 449.22 531.37 448.19 512.08 448.66 C 500.00 449.02 487.50 448.10 475.99 452.55 C 476.06 454.51 475.48 456.72 476.59 458.50 C 477.38 460.17 479.53 459.51 481.00 459.64 C 486.72 459.11 492.19 457.06 497.93 456.62 C 512.73 454.70 527.39 458.35 542.11 459.41 C 544.26 459.24 548.24 461.36 545.47 463.51 C 540.14 465.98 534.02 466.07 528.36 467.53 C 523.09 468.29 518.06 470.91 512.64 470.35 C 519.73 465.52 528.55 464.38 536.76 462.57 C 524.87 461.88 513.01 459.43 501.08 460.74 C 494.07 461.15 487.30 463.33 480.29 463.69 C 481.57 468.03 482.44 472.57 481.94 477.12 C 482.08 484.45 471.74 485.80 471.54 493.05 C 473.61 497.77 479.19 499.28 483.34 501.68 C 496.17 508.54 510.63 511.69 525.06 512.65 C 535.39 513.75 545.73 512.30 556.05 511.75 C 569.95 510.63 583.93 511.02 597.81 512.23 C 610.18 513.34 622.59 515.31 635.03 513.93 C 641.90 513.27 649.98 512.27 654.62 506.61 C 658.56 494.24 656.36 480.97 654.53 468.39 C 653.89 470.40 653.67 472.67 652.32 474.38 C 650.68 475.98 648.28 476.34 646.11 476.62 C 639.11 477.31 632.11 476.17 625.14 475.67 C 613.45 474.65 601.69 474.96 590.02 476.00 C 584.31 476.36 578.57 477.40 572.87 476.49 C 577.15 474.09 582.14 473.89 586.90 473.29 C 598.91 471.96 610.99 470.12 623.10 471.14 C 631.77 471.42 640.80 474.03 649.27 471.39 C 651.06 464.77 652.89 457.81 651.71 450.92 C 650.04 437.12 654.05 423.35 652.14 409.58 C 651.37 403.89 649.51 398.43 647.95 392.93 C 646.24 396.05 644.65 399.54 641.54 401.54 C 638.17 403.74 633.48 403.07 630.55 400.45 C 626.90 397.28 625.52 392.42 624.36 387.91 C 621.17 375.19 621.98 361.97 622.26 348.99 C 622.46 343.33 622.75 337.67 623.51 332.07 C 623.77 351.77 620.91 372.41 628.84 391.11 C 630.29 394.77 633.35 399.59 637.98 398.35 C 642.44 395.78 643.84 390.18 644.62 385.44 C 646.01 372.66 645.71 359.77 646.44 346.94 C 648.11 325.94 650.99 305.05 652.67 284.06 C 653.44 274.68 654.65 265.32 656.55 256.10 C 657.15 253.59 657.58 250.69 660.02 249.23 C 659.44 262.09 657.31 274.84 657.05 287.73 C 659.84 282.25 663.39 277.16 667.69 272.75 C 668.89 275.36 667.25 277.81 665.91 279.97 C 659.83 289.55 655.86 300.62 655.33 312.00 C 654.28 326.46 652.07 340.82 651.48 355.32 C 670.29 355.54 686.99 345.25 701.42 334.20 C 699.08 328.34 696.32 322.65 694.24 316.69 C 686.73 297.73 683.86 277.42 678.41 257.85 C 675.84 249.30 674.38 240.19 669.49 232.55 C 664.85 224.76 657.75 218.91 651.01 213.03 C 645.21 207.94 638.37 204.34 631.97 200.13 C 625.46 196.27 619.05 192.21 612.28 188.82 C 603.20 184.13 593.57 180.63 583.90 177.39 C 577.51 175.08 570.65 175.91 564.01 175.93 C 552.05 176.20 540.16 178.01 528.54 180.81 M 660.15 360.93 C 663.78 364.71 667.67 368.51 669.70 373.45 C 672.28 379.66 672.48 386.48 673.14 393.08 C 674.67 411.60 676.06 430.28 674.22 448.82 C 673.48 458.95 666.27 466.71 661.65 475.26 C 661.94 479.01 662.24 482.76 662.37 486.52 C 666.70 483.21 673.06 481.72 677.75 485.20 C 679.54 486.49 682.53 489.49 680.06 491.46 C 677.12 490.48 674.52 487.94 671.24 488.46 C 668.01 488.91 664.85 490.28 662.52 492.59 C 661.53 496.38 661.73 500.41 660.49 504.15 C 659.70 506.80 657.92 509.12 657.86 511.98 C 660.33 508.82 661.23 504.56 664.49 502.01 C 664.37 507.61 661.48 512.59 660.51 518.02 C 660.27 520.51 661.08 522.95 661.58 525.36 C 663.25 523.81 665.23 522.30 665.72 519.94 C 667.24 514.42 669.58 509.15 670.61 503.50 C 671.08 503.58 672.02 503.75 672.49 503.83 C 673.03 514.28 668.64 524.16 667.91 534.50 C 678.16 525.24 682.91 511.97 687.56 499.38 C 689.35 498.38 688.57 501.02 688.80 501.98 C 688.25 511.39 683.73 520.02 682.86 529.37 C 687.65 523.09 691.38 515.86 692.87 508.06 C 694.72 498.44 693.51 488.58 691.95 479.01 C 690.27 466.47 689.20 453.49 692.47 441.11 C 697.38 421.53 702.03 401.88 706.15 382.12 C 707.37 376.45 708.95 370.78 709.03 364.94 C 708.24 356.57 702.83 349.76 698.22 343.09 C 686.89 351.43 674.32 358.99 660.15 360.93 M 651.28 361.50 C 650.98 367.82 650.49 374.12 650.12 380.43 C 649.77 384.46 651.97 388.02 653.42 391.62 C 658.29 403.41 659.08 416.48 657.76 429.06 C 656.62 441.99 657.88 454.99 660.58 467.66 C 662.59 463.99 664.67 460.36 666.48 456.58 C 669.53 450.54 669.41 443.57 669.81 436.97 C 669.83 423.29 669.28 409.59 668.11 395.95 C 667.57 389.96 667.36 383.89 666.04 378.00 C 664.57 371.37 659.58 366.44 655.32 361.47 C 653.96 361.48 652.62 361.49 651.28 361.50 M 439.38 377.10 C 437.23 382.75 433.98 387.88 431.32 393.29 C 424.15 408.17 416.58 422.86 407.96 436.95 C 399.46 450.70 391.14 465.03 378.80 475.74 C 373.92 480.15 366.22 480.72 362.70 486.69 C 359.28 492.81 357.52 500.05 358.35 507.06 C 359.10 510.82 360.75 514.33 362.15 517.89 C 362.95 520.39 365.82 520.93 367.88 522.05 C 370.94 523.22 373.73 525.38 377.08 525.58 C 379.11 524.76 380.71 522.99 382.91 522.60 C 384.28 522.00 386.47 522.54 387.25 521.04 C 386.04 516.03 382.83 511.64 382.63 506.33 C 377.71 507.36 369.64 509.62 367.22 503.46 C 372.18 503.93 377.31 503.73 381.89 501.55 C 386.14 499.78 389.46 496.06 394.11 495.25 C 395.84 496.04 397.08 497.85 396.52 499.80 C 395.60 504.57 393.97 509.48 395.63 514.31 C 402.40 506.44 403.38 494.97 402.37 484.98 C 401.75 481.46 405.42 479.65 407.66 477.73 C 431.35 460.24 455.85 443.49 476.43 422.25 C 477.33 421.22 478.32 420.18 478.77 418.86 C 474.89 420.53 470.54 421.42 466.36 420.45 C 462.46 419.34 458.29 416.93 457.59 412.56 C 460.92 414.36 463.95 417.27 467.97 417.27 C 473.11 417.24 478.91 415.22 481.46 410.43 C 484.79 399.32 475.38 389.16 477.78 377.94 C 465.00 377.08 452.18 376.52 439.38 377.10 M 388.27 504.16 C 388.34 507.53 389.20 510.79 390.25 513.98 C 390.00 510.22 390.19 506.44 390.88 502.73 C 390.23 503.09 388.92 503.80 388.27 504.16 M 478.45 504.90 C 474.88 517.35 473.49 530.30 472.85 543.20 C 471.63 571.48 472.88 599.79 474.41 628.03 C 475.16 641.12 474.84 654.23 474.70 667.33 C 484.96 670.79 495.33 674.50 504.40 680.55 C 506.93 682.12 509.71 684.04 512.87 683.38 C 534.95 679.36 556.73 673.61 577.85 666.00 C 579.12 657.75 578.72 649.31 580.37 641.12 C 580.81 639.82 581.02 637.40 582.94 637.67 C 587.62 638.04 591.40 641.25 595.16 643.77 C 603.75 650.05 611.97 656.93 619.06 664.89 C 629.43 657.19 641.67 652.03 654.54 650.57 C 653.89 647.41 653.21 644.25 652.96 641.04 C 651.72 624.02 652.70 606.92 654.82 590.01 C 656.30 576.73 656.68 563.37 657.06 550.03 C 657.32 537.87 655.66 525.80 653.52 513.87 C 644.81 518.60 634.63 518.92 624.96 519.25 C 607.58 519.26 590.34 516.21 572.94 516.45 C 559.90 516.27 546.93 517.93 533.92 518.35 C 523.07 518.14 512.25 516.66 501.68 514.21 C 493.51 512.28 485.88 508.73 478.45 504.90 M 590.18 646.19 C 591.45 652.09 592.55 658.02 594.07 663.86 C 595.69 671.85 597.70 679.93 601.86 687.02 C 606.08 694.26 609.93 701.80 612.11 709.93 C 621.49 704.58 632.27 702.34 642.93 701.37 C 651.04 700.81 659.32 700.81 667.22 703.00 C 658.80 688.58 657.81 671.48 655.18 655.37 C 648.34 656.67 641.55 658.42 635.15 661.19 C 630.40 663.23 626.04 666.05 621.46 668.42 C 623.12 671.62 624.59 674.96 625.25 678.53 C 626.25 683.82 627.56 689.26 626.52 694.66 C 625.63 693.56 624.79 692.38 624.53 690.97 C 622.78 683.21 620.95 675.22 616.70 668.39 C 608.12 660.71 599.48 653.02 590.18 646.19 M 514.02 688.17 C 505.32 690.08 498.74 683.02 491.62 679.44 C 491.52 688.31 492.76 697.12 493.76 705.92 C 494.95 718.26 499.49 729.91 502.39 741.90 C 503.14 744.44 503.29 747.74 506.13 748.90 C 515.63 754.63 527.13 752.20 537.14 749.32 C 545.68 746.52 554.19 743.40 561.92 738.77 C 560.21 729.15 558.13 719.60 556.77 709.93 C 555.68 699.22 557.56 688.53 558.44 677.87 C 543.94 682.47 529.04 685.84 514.02 688.17 M 612.89 713.95 C 615.11 736.60 623.99 757.86 633.87 778.13 C 641.72 794.55 646.02 812.32 650.30 829.92 C 653.25 843.70 655.70 857.63 656.84 871.68 C 661.88 873.13 666.04 878.04 671.51 877.43 C 679.90 874.33 686.31 867.34 694.97 864.68 C 693.02 843.47 690.76 822.29 688.45 801.11 C 684.72 770.43 681.27 739.43 671.76 709.89 C 666.35 707.97 660.76 706.42 655.00 706.25 C 640.64 705.78 626.07 708.08 612.89 713.95 M 521.02 757.25 C 515.27 757.48 509.80 755.42 504.74 752.91 C 506.68 762.79 506.87 772.88 507.70 782.88 C 508.91 796.92 509.97 810.96 511.03 825.01 C 511.64 841.06 511.74 857.15 513.49 873.14 C 514.40 881.14 515.09 889.33 513.07 897.23 C 518.64 903.83 523.27 911.79 531.22 915.84 C 539.33 919.68 548.90 917.88 556.47 913.61 C 556.19 909.05 556.10 904.50 556.28 899.95 C 556.94 885.99 557.08 872.01 558.36 858.09 C 560.03 839.70 561.22 821.26 563.34 802.92 C 565.64 783.70 565.80 764.19 563.01 745.02 C 549.99 751.67 535.79 756.98 521.02 757.25 M 695.45 869.56 C 686.42 872.82 679.85 881.59 669.95 882.56 C 663.82 881.99 658.75 877.84 652.79 876.46 C 645.89 885.00 637.65 892.36 628.99 899.07 C 626.24 901.26 623.35 903.37 621.16 906.15 C 620.23 907.40 619.06 909.17 620.26 910.67 C 622.65 914.11 627.16 914.73 630.92 915.75 C 638.28 917.25 645.59 919.25 652.26 922.78 C 658.68 925.74 663.13 931.88 669.97 934.09 C 676.85 936.16 684.24 935.32 691.22 934.21 C 697.39 933.31 702.85 929.39 706.16 924.19 C 707.40 921.68 707.56 918.81 707.69 916.08 C 707.91 906.01 706.85 895.95 705.06 886.06 C 704.07 880.61 703.42 874.66 699.74 870.26 C 698.81 868.73 696.87 869.16 695.45 869.56 M 491.74 909.71 C 484.45 912.97 476.68 914.88 469.03 917.07 C 459.91 919.63 450.37 919.92 440.96 919.79 C 436.25 919.85 430.95 919.97 427.20 923.21 C 425.13 924.81 426.61 927.60 427.73 929.32 C 432.11 935.71 439.11 939.57 445.68 943.34 C 459.41 950.52 474.38 956.25 490.04 956.59 C 505.02 957.03 520.01 953.59 534.94 956.01 C 541.45 956.85 548.07 958.91 554.65 957.47 C 557.76 956.77 560.13 954.06 560.47 950.91 C 561.95 939.61 559.07 928.40 557.03 917.37 C 548.79 924.22 536.37 925.04 527.07 919.94 C 519.33 915.60 513.89 908.29 509.27 900.92 C 503.18 903.35 497.80 907.21 491.74 909.71 Z" />
	</g>
	<g id="#f0b58bff">
		<path fill="#f0b58b" opacity="1.00"
			d=" M 466.65 91.72 C 472.78 100.34 472.00 111.24 473.66 121.19 C 480.34 115.63 485.33 107.98 493.11 103.81 C 494.57 102.79 496.29 104.04 497.37 105.05 C 495.26 111.76 490.80 117.64 489.78 124.74 C 489.48 127.63 488.09 131.18 490.40 133.58 C 493.62 136.78 498.19 137.93 502.36 139.35 C 511.02 142.01 519.97 143.87 529.01 144.50 C 534.81 144.90 540.57 143.19 545.33 139.89 C 542.12 150.72 546.29 162.10 551.78 171.44 C 541.04 172.32 530.51 174.70 520.00 177.01 C 512.07 178.74 504.46 181.76 497.34 185.65 C 497.71 180.58 497.06 175.27 494.01 171.05 C 499.55 165.35 503.49 158.38 508.94 152.62 C 505.30 154.63 501.46 156.53 498.61 159.64 C 494.57 163.90 490.62 168.28 486.11 172.05 C 483.85 174.59 480.44 172.36 478.54 170.49 C 473.43 164.77 470.98 157.29 468.57 150.15 C 466.59 143.87 464.50 137.55 463.94 130.95 C 463.22 123.97 464.30 116.98 464.06 109.99 C 463.80 103.77 466.17 97.88 466.65 91.72 Z" />
		<path fill="#f0b58b" opacity="1.00"
			d=" M 660.15 360.93 C 674.32 358.99 686.89 351.43 698.22 343.09 C 702.83 349.76 708.24 356.57 709.03 364.94 C 708.95 370.78 707.37 376.45 706.15 382.12 C 702.03 401.88 697.38 421.53 692.47 441.11 C 689.20 453.49 690.27 466.47 691.95 479.01 C 693.51 488.58 694.72 498.44 692.87 508.06 C 691.38 515.86 687.65 523.09 682.86 529.37 C 683.73 520.02 688.25 511.39 688.80 501.98 C 688.57 501.02 689.35 498.38 687.56 499.38 C 682.91 511.97 678.16 525.24 667.91 534.50 C 668.64 524.16 673.03 514.28 672.49 503.83 C 672.02 503.75 671.08 503.58 670.61 503.50 C 669.58 509.15 667.24 514.42 665.72 519.94 C 665.23 522.30 663.25 523.81 661.58 525.36 C 661.08 522.95 660.27 520.51 660.51 518.02 C 661.48 512.59 664.37 507.61 664.49 502.01 C 661.23 504.56 660.33 508.82 657.86 511.98 C 657.92 509.12 659.70 506.80 660.49 504.15 C 661.73 500.41 661.53 496.38 662.52 492.59 C 664.85 490.28 668.01 488.91 671.24 488.46 C 674.52 487.94 677.12 490.48 680.06 491.46 C 682.53 489.49 679.54 486.49 677.75 485.20 C 673.06 481.72 666.70 483.21 662.37 486.52 C 662.24 482.76 661.94 479.01 661.65 475.26 C 666.27 466.71 673.48 458.95 674.22 448.82 C 676.06 430.28 674.67 411.60 673.14 393.08 C 672.48 386.48 672.28 379.66 669.70 373.45 C 667.67 368.51 663.78 364.71 660.15 360.93 Z" />
		<path fill="#f0b58b" opacity="1.00"
			d=" M 439.38 377.10 C 452.18 376.52 465.00 377.08 477.78 377.94 C 475.38 389.16 484.79 399.32 481.46 410.43 C 478.91 415.22 473.11 417.24 467.97 417.27 C 463.95 417.27 460.92 414.36 457.59 412.56 C 458.29 416.93 462.46 419.34 466.36 420.45 C 470.54 421.42 474.89 420.53 478.77 418.86 C 478.32 420.18 477.33 421.22 476.43 422.25 C 455.85 443.49 431.35 460.24 407.66 477.73 C 405.42 479.65 401.75 481.46 402.37 484.98 C 403.38 494.97 402.40 506.44 395.63 514.31 C 393.97 509.48 395.60 504.57 396.52 499.80 C 397.08 497.85 395.84 496.04 394.11 495.25 C 389.46 496.06 386.14 499.78 381.89 501.55 C 377.31 503.73 372.18 503.93 367.22 503.46 C 369.64 509.62 377.71 507.36 382.63 506.33 C 382.83 511.64 386.04 516.03 387.25 521.04 C 386.47 522.54 384.28 522.00 382.91 522.60 C 380.71 522.99 379.11 524.76 377.08 525.58 C 373.73 525.38 370.94 523.22 367.88 522.05 C 365.82 520.93 362.95 520.39 362.15 517.89 C 360.75 514.33 359.10 510.82 358.35 507.06 C 357.52 500.05 359.28 492.81 362.70 486.69 C 366.22 480.72 373.92 480.15 378.80 475.74 C 391.14 465.03 399.46 450.70 407.96 436.95 C 416.58 422.86 424.15 408.17 431.32 393.29 C 433.98 387.88 437.23 382.75 439.38 377.10 Z" />
		<path fill="#f0b58b" opacity="1.00"
			d=" M 590.18 646.19 C 599.48 653.02 608.12 660.71 616.70 668.39 C 620.95 675.22 622.78 683.21 624.53 690.97 C 624.79 692.38 625.63 693.56 626.52 694.66 C 627.56 689.26 626.25 683.82 625.25 678.53 C 624.59 674.96 623.12 671.62 621.46 668.42 C 626.04 666.05 630.40 663.23 635.15 661.19 C 641.55 658.42 648.34 656.67 655.18 655.37 C 657.81 671.48 658.80 688.58 667.22 703.00 C 659.32 700.81 651.04 700.81 642.93 701.37 C 632.27 702.34 621.49 704.58 612.11 709.93 C 609.93 701.80 606.08 694.26 601.86 687.02 C 597.70 679.93 595.69 671.85 594.07 663.86 C 592.55 658.02 591.45 652.09 590.18 646.19 Z" />
		<path fill="#f0b58b" opacity="1.00"
			d=" M 514.02 688.17 C 529.04 685.84 543.94 682.47 558.44 677.87 C 557.56 688.53 555.68 699.22 556.77 709.93 C 558.13 719.60 560.21 729.15 561.92 738.77 C 554.19 743.40 545.68 746.52 537.14 749.32 C 527.13 752.20 515.63 754.63 506.13 748.90 C 503.29 747.74 503.14 744.44 502.39 741.90 C 499.49 729.91 494.95 718.26 493.76 705.92 C 492.76 697.12 491.52 688.31 491.62 679.44 C 498.74 683.02 505.32 690.08 514.02 688.17 Z" />
	</g>
	<g id="#f11b27ff">
		<path fill="var(--shirt-color, grey)" opacity="1.00"
			d=" M 528.54 180.81 C 540.16 178.01 552.05 176.20 564.01 175.93 C 570.65 175.91 577.51 175.08 583.90 177.39 C 593.57 180.63 603.20 184.13 612.28 188.82 C 619.05 192.21 625.46 196.27 631.97 200.13 C 638.37 204.34 645.21 207.94 651.01 213.03 C 657.75 218.91 664.85 224.76 669.49 232.55 C 674.38 240.19 675.84 249.30 678.41 257.85 C 683.86 277.42 686.73 297.73 694.24 316.69 C 696.32 322.65 699.08 328.34 701.42 334.20 C 686.99 345.25 670.29 355.54 651.48 355.32 C 652.07 340.82 654.28 326.46 655.33 312.00 C 655.86 300.62 659.83 289.55 665.91 279.97 C 667.25 277.81 668.89 275.36 667.69 272.75 C 663.39 277.16 659.84 282.25 657.05 287.73 C 657.31 274.84 659.44 262.09 660.02 249.23 C 657.58 250.69 657.15 253.59 656.55 256.10 C 654.65 265.32 653.44 274.68 652.67 284.06 C 650.99 305.05 648.11 325.94 646.44 346.94 C 645.71 359.77 646.01 372.66 644.62 385.44 C 643.84 390.18 642.44 395.78 637.98 398.35 C 633.35 399.59 630.29 394.77 628.84 391.11 C 620.91 372.41 623.77 351.77 623.51 332.07 C 622.75 337.67 622.46 343.33 622.26 348.99 C 621.98 361.97 621.17 375.19 624.36 387.91 C 625.52 392.42 626.90 397.28 630.55 400.45 C 633.48 403.07 638.17 403.74 641.54 401.54 C 644.65 399.54 646.24 396.05 647.95 392.93 C 649.51 398.43 651.37 403.89 652.14 409.58 C 654.05 423.35 650.04 437.12 651.71 450.92 C 652.89 457.81 651.06 464.77 649.27 471.39 C 640.80 474.03 631.77 471.42 623.10 471.14 C 610.99 470.12 598.91 471.96 586.90 473.29 C 582.14 473.89 577.15 474.09 572.87 476.49 C 578.57 477.40 584.31 476.36 590.02 476.00 C 601.69 474.96 613.45 474.65 625.14 475.67 C 632.11 476.17 639.11 477.31 646.11 476.62 C 648.28 476.34 650.68 475.98 652.32 474.38 C 653.67 472.67 653.89 470.40 654.53 468.39 C 656.36 480.97 658.56 494.24 654.62 506.61 C 649.98 512.27 641.90 513.27 635.03 513.93 C 622.59 515.31 610.18 513.34 597.81 512.23 C 583.93 511.02 569.95 510.63 556.05 511.75 C 545.73 512.30 535.39 513.75 525.06 512.65 C 510.63 511.69 496.17 508.54 483.34 501.68 C 479.19 499.28 473.61 497.77 471.54 493.05 C 471.74 485.80 482.08 484.45 481.94 477.12 C 482.44 472.57 481.57 468.03 480.29 463.69 C 487.30 463.33 494.07 461.15 501.08 460.74 C 513.01 459.43 524.87 461.88 536.76 462.57 C 528.55 464.38 519.73 465.52 512.64 470.35 C 518.06 470.91 523.09 468.29 528.36 467.53 C 534.02 466.07 540.14 465.98 545.47 463.51 C 548.24 461.36 544.26 459.24 542.11 459.41 C 527.39 458.35 512.73 454.70 497.93 456.62 C 492.19 457.06 486.72 459.11 481.00 459.64 C 479.53 459.51 477.38 460.17 476.59 458.50 C 475.48 456.72 476.06 454.51 475.99 452.55 C 487.50 448.10 500.00 449.02 512.08 448.66 C 531.37 448.19 550.68 449.22 569.81 451.75 C 572.75 452.17 575.72 452.36 578.70 452.27 C 574.43 449.57 569.35 449.04 564.49 448.27 C 550.07 446.10 535.55 444.24 520.95 444.35 C 507.12 444.72 492.91 443.38 479.50 447.52 C 479.43 443.33 480.11 439.16 479.79 434.98 C 479.58 430.55 479.36 425.74 481.81 421.83 C 485.59 415.17 488.34 407.34 486.61 399.63 C 485.01 392.56 481.67 385.83 481.88 378.42 C 488.01 379.12 493.89 381.03 499.47 383.61 C 502.64 377.54 503.42 370.65 504.67 364.02 C 511.88 373.87 522.15 381.60 533.89 385.14 C 538.41 386.30 543.32 387.22 547.88 385.77 C 549.23 385.42 549.43 383.86 550.01 382.82 C 534.06 383.00 519.22 373.77 510.16 361.03 C 508.22 358.03 506.04 354.78 506.18 351.06 C 506.33 345.00 506.51 338.93 505.79 332.90 C 504.29 318.57 499.73 304.83 496.47 290.86 C 495.49 286.80 494.86 282.65 495.06 278.46 C 497.96 282.62 498.45 287.71 499.10 292.59 C 503.02 288.60 501.32 282.33 499.15 277.88 C 498.13 275.54 495.44 272.96 492.80 274.73 C 489.71 277.46 490.48 282.23 490.80 285.92 C 493.33 302.79 499.95 318.90 501.04 336.03 C 501.88 350.42 499.82 364.83 496.53 378.82 C 486.91 373.53 475.72 372.89 465.01 372.12 C 452.70 371.18 440.36 372.13 428.05 371.54 C 429.01 364.99 429.07 358.16 431.94 352.06 C 436.77 341.26 440.41 329.86 441.68 318.06 C 441.99 315.94 441.47 313.85 440.46 311.99 C 439.16 316.31 438.62 320.80 437.41 325.14 C 435.62 332.13 432.90 338.83 430.24 345.53 C 430.25 332.68 429.26 319.81 430.33 306.97 C 431.67 291.66 434.46 276.47 438.78 261.71 C 441.83 251.72 444.78 240.97 452.47 233.43 C 458.43 227.99 466.37 225.69 473.68 222.67 C 482.06 219.26 489.51 214.03 496.99 209.03 C 500.56 206.45 504.83 204.16 506.38 199.75 C 502.19 201.01 498.77 203.81 495.13 206.11 C 490.23 209.30 485.10 212.11 479.93 214.83 C 473.46 218.28 466.33 220.14 459.61 223.00 C 465.22 217.84 470.96 212.83 476.60 207.69 C 484.71 200.64 492.89 193.39 502.73 188.81 C 510.82 184.70 519.70 182.59 528.54 180.81 Z" />
	</g>
	<g id="#2b3dcdff">
		<path fill="var(--pants-color, grey)" opacity="1.00"
			d=" M 478.45 504.90 C 485.88 508.73 493.51 512.28 501.68 514.21 C 512.25 516.66 523.07 518.14 533.92 518.35 C 546.93 517.93 559.90 516.27 572.94 516.45 C 590.34 516.21 607.58 519.26 624.96 519.25 C 634.63 518.92 644.81 518.60 653.52 513.87 C 655.66 525.80 657.32 537.87 657.06 550.03 C 656.68 563.37 656.30 576.73 654.82 590.01 C 652.70 606.92 651.72 624.02 652.96 641.04 C 653.21 644.25 653.89 647.41 654.54 650.57 C 641.67 652.03 629.43 657.19 619.06 664.89 C 611.97 656.93 603.75 650.05 595.16 643.77 C 591.40 641.25 587.62 638.04 582.94 637.67 C 581.02 637.40 580.81 639.82 580.37 641.12 C 578.72 649.31 579.12 657.75 577.85 666.00 C 556.73 673.61 534.95 679.36 512.87 683.38 C 509.71 684.04 506.93 682.12 504.40 680.55 C 495.33 674.50 484.96 670.79 474.70 667.33 C 474.84 654.23 475.16 641.12 474.41 628.03 C 472.88 599.79 471.63 571.48 472.85 543.20 C 473.49 530.30 474.88 517.35 478.45 504.90 Z" />
		<path fill="var(--socks-color, grey)" opacity="1.00"
			d=" M 612.89 713.95 C 626.07 708.08 640.64 705.78 655.00 706.25 C 660.76 706.42 666.35 707.97 671.76 709.89 C 681.27 739.43 684.72 770.43 688.45 801.11 C 690.76 822.29 693.02 843.47 694.97 864.68 C 686.31 867.34 679.90 874.33 671.51 877.43 C 666.04 878.04 661.88 873.13 656.84 871.68 C 655.70 857.63 653.25 843.70 650.30 829.92 C 646.02 812.32 641.72 794.55 633.87 778.13 C 623.99 757.86 615.11 736.60 612.89 713.95 Z" />
		<path fill="var(--socks-color, grey)" opacity="1.00"
			d=" M 521.02 757.25 C 535.79 756.98 549.99 751.67 563.01 745.02 C 565.80 764.19 565.64 783.70 563.34 802.92 C 561.22 821.26 560.03 839.70 558.36 858.09 C 557.08 872.01 556.94 885.99 556.28 899.95 C 556.10 904.50 556.19 909.05 556.47 913.61 C 548.90 917.88 539.33 919.68 531.22 915.84 C 523.27 911.79 518.64 903.83 513.07 897.23 C 515.09 889.33 514.40 881.14 513.49 873.14 C 511.74 857.15 511.64 841.06 511.03 825.01 C 509.97 810.96 508.91 796.92 507.70 782.88 C 506.87 772.88 506.68 762.79 504.74 752.91 C 509.80 755.42 515.27 757.48 521.02 757.25 Z" />
	</g>
	<g id="#4d4d4dff">
		<path fill="#4d4d4d" opacity="1.00"
			d=" M 695.45 869.56 C 696.87 869.16 698.81 868.73 699.74 870.26 C 703.42 874.66 704.07 880.61 705.06 886.06 C 706.85 895.95 707.91 906.01 707.69 916.08 C 707.56 918.81 707.40 921.68 706.16 924.19 C 702.85 929.39 697.39 933.31 691.22 934.21 C 684.24 935.32 676.85 936.16 669.97 934.09 C 663.13 931.88 658.68 925.74 652.26 922.78 C 645.59 919.25 638.28 917.25 630.92 915.75 C 627.16 914.73 622.65 914.11 620.26 910.67 C 619.06 909.17 620.23 907.40 621.16 906.15 C 623.35 903.37 626.24 901.26 628.99 899.07 C 637.65 892.36 645.89 885.00 652.79 876.46 C 658.75 877.84 663.82 881.99 669.95 882.56 C 679.85 881.59 686.42 872.82 695.45 869.56 Z" />
		<path fill="#4d4d4d" opacity="1.00"
			d=" M 491.74 909.71 C 497.80 907.21 503.18 903.35 509.27 900.92 C 513.89 908.29 519.33 915.60 527.07 919.94 C 536.37 925.04 548.79 924.22 557.03 917.37 C 559.07 928.40 561.95 939.61 560.47 950.91 C 560.13 954.06 557.76 956.77 554.65 957.47 C 548.07 958.91 541.45 956.85 534.94 956.01 C 520.01 953.59 505.02 957.03 490.04 956.59 C 474.38 956.25 459.41 950.52 445.68 943.34 C 439.11 939.57 432.11 935.71 427.73 929.32 C 426.61 927.60 425.13 924.81 427.20 923.21 C 430.95 919.97 436.25 919.85 440.96 919.79 C 450.37 919.92 459.91 919.63 469.03 917.07 C 476.68 914.88 484.45 912.97 491.74 909.71 Z" />
	</g>
</svg>