<?xml version="1.0" encoding="UTF-8" ?>
<!DOCTYPE svg PUBLIC "-//W3C//DTD SVG 1.1//EN" "http://www.w3.org/Graphics/SVG/1.1/DTD/svg11.dtd">
<svg width="1000pt" height="1000pt" viewBox="0 0 1000 1000" version="1.1" xmlns="http://www.w3.org/2000/svg">
	<g id="#020202ff">
		<path fill="#020202" opacity="1.00"
			d=" M 421.78 40.85 C 430.17 37.84 439.11 37.13 447.92 36.30 C 460.50 35.36 473.18 39.26 483.46 46.47 C 496.14 54.66 504.90 67.77 510.30 81.66 C 515.49 95.81 518.56 111.38 514.78 126.28 C 521.43 131.64 528.16 136.93 535.23 141.71 C 543.84 147.16 554.38 144.89 563.93 144.73 C 572.57 144.52 579.19 150.60 586.07 154.88 C 594.53 160.07 603.41 164.58 612.56 168.42 C 619.25 171.20 625.00 175.81 629.97 181.02 C 635.99 187.49 640.07 195.54 646.47 201.68 C 652.66 207.80 660.89 211.08 668.00 215.91 C 674.46 219.96 679.83 225.45 684.99 231.00 C 686.26 232.48 687.71 233.98 688.17 235.95 C 687.92 237.38 687.43 238.77 687.01 240.16 C 692.56 246.52 694.90 255.01 700.84 261.07 C 709.54 270.59 721.96 277.62 726.34 290.39 C 730.72 305.56 733.79 321.20 734.13 337.04 C 734.20 346.74 734.59 356.48 733.51 366.14 C 732.70 376.92 730.15 387.44 727.97 397.99 C 727.10 402.56 726.37 407.33 727.41 411.93 C 728.04 414.48 730.29 416.13 732.08 417.89 C 736.57 421.88 740.68 426.58 742.65 432.36 C 746.46 443.09 752.05 453.13 758.69 462.36 C 760.74 465.33 763.95 467.24 766.05 470.15 C 767.53 474.27 762.21 476.53 758.90 475.80 C 751.45 474.57 746.97 467.72 742.11 462.63 C 744.79 471.68 747.90 480.65 749.56 489.97 C 749.75 492.45 750.52 495.58 748.57 497.57 C 746.96 499.25 744.46 498.30 742.85 497.16 C 739.68 494.90 737.32 491.73 735.10 488.58 C 735.13 493.68 735.59 499.27 732.82 503.81 C 731.70 505.73 729.03 506.17 727.29 504.85 C 724.22 502.84 723.15 499.08 722.16 495.77 C 720.77 490.51 719.34 485.25 718.24 479.92 C 718.21 485.36 718.23 490.89 717.03 496.23 C 716.41 498.65 714.91 501.58 712.05 501.67 C 708.17 501.65 705.55 498.04 704.62 494.62 C 702.96 488.38 702.39 481.92 701.63 475.53 C 697.75 476.05 694.24 474.10 691.93 471.10 C 687.59 466.08 685.62 459.58 683.86 453.32 C 681.57 444.88 677.84 436.77 676.96 427.99 C 676.88 422.76 678.52 417.72 679.45 412.62 C 682.03 399.85 685.88 387.14 685.53 373.99 C 685.22 359.96 683.82 345.97 683.36 331.95 C 683.38 329.99 682.17 328.37 681.16 326.81 C 670.64 311.77 656.43 299.65 640.91 290.02 C 639.81 290.17 638.72 290.33 637.63 290.48 C 638.68 298.84 637.81 307.30 635.79 315.45 C 632.56 328.75 634.18 342.49 633.34 356.00 C 633.13 359.27 631.89 362.33 630.54 365.28 C 633.47 367.33 636.77 369.31 638.45 372.62 C 639.84 375.55 639.95 378.86 640.19 382.05 C 640.44 387.71 641.19 393.40 640.48 399.07 C 640.32 401.37 639.49 403.93 640.99 406.00 C 646.21 414.50 651.84 422.79 656.26 431.75 C 659.30 437.69 658.66 444.54 658.95 450.99 C 659.36 461.05 660.35 471.16 663.05 480.88 C 664.17 488.47 668.03 495.19 670.52 502.35 C 674.74 513.53 675.11 526.62 669.40 537.36 C 665.41 546.55 657.09 553.16 653.87 562.75 C 648.00 578.71 647.22 596.61 652.00 612.96 C 653.57 618.64 657.02 623.56 658.74 629.19 C 661.21 637.28 661.90 645.76 663.56 654.03 C 665.22 662.35 666.83 670.69 668.58 679.00 C 669.35 683.54 670.51 688.39 668.69 692.84 C 672.91 698.59 676.51 704.77 680.37 710.76 C 687.06 712.64 693.21 715.96 699.67 718.46 C 719.00 727.05 734.28 742.36 747.76 758.28 C 754.21 765.58 758.34 774.76 765.76 781.24 C 781.73 795.81 799.94 807.57 817.20 820.50 C 824.97 819.55 832.71 821.67 840.06 823.98 C 844.70 825.41 848.98 828.11 851.95 831.99 C 857.15 838.07 857.58 846.96 855.20 854.32 C 852.17 863.62 845.51 871.01 839.54 878.53 C 829.56 890.92 824.74 906.32 818.92 920.88 C 815.37 929.54 812.06 938.38 807.52 946.58 C 801.93 953.17 793.22 955.95 785.13 958.11 C 777.86 959.78 770.48 961.24 763.00 961.52 C 754.79 961.91 746.78 956.49 743.79 948.91 C 741.90 942.84 747.43 938.17 750.84 933.93 C 758.60 925.96 765.37 916.92 769.50 906.52 C 775.54 893.40 776.32 878.61 775.29 864.41 C 774.19 861.01 770.94 858.91 768.69 856.29 C 764.22 851.34 759.10 847.00 753.38 843.57 C 730.73 828.23 704.45 819.37 681.65 804.29 C 674.86 799.54 668.05 794.76 661.92 789.16 C 657.76 785.26 653.63 781.05 648.25 778.89 C 641.33 776.09 633.21 778.35 626.70 774.32 C 615.27 767.30 607.55 756.04 599.18 745.86 C 587.42 730.85 575.86 715.63 565.82 699.40 C 563.44 700.59 561.03 701.76 558.66 702.98 C 565.01 712.16 570.92 722.01 573.28 733.06 C 574.83 740.38 575.87 747.80 577.33 755.14 C 581.17 774.09 583.58 793.35 588.95 811.97 C 592.66 824.67 596.04 837.55 601.45 849.66 C 606.94 860.66 613.67 871.03 621.53 880.49 C 626.46 886.25 630.07 893.01 632.99 899.97 C 636.17 907.89 637.17 916.51 637.44 924.98 C 637.63 930.04 635.90 935.58 631.44 938.42 C 623.97 943.24 614.79 943.53 606.40 945.69 C 591.46 948.84 578.20 956.76 564.96 964.01 C 554.57 970.55 543.86 977.42 531.49 979.33 C 519.37 981.08 506.92 980.90 494.93 978.38 C 490.06 977.34 485.15 975.80 481.10 972.82 C 478.06 970.63 477.62 966.30 479.05 963.05 C 482.14 954.85 489.78 949.83 496.01 944.17 C 503.38 938.46 509.50 931.34 514.59 923.55 C 520.66 914.13 527.59 905.31 534.46 896.47 C 539.53 890.05 544.45 882.93 552.27 879.66 C 552.73 876.94 552.68 874.15 551.69 871.57 C 545.49 853.79 538.31 836.29 529.19 819.79 C 516.55 797.28 505.66 773.87 494.25 750.73 C 489.77 741.98 487.46 732.17 481.86 723.99 C 472.88 710.03 460.74 698.54 449.33 686.61 C 443.13 679.35 442.11 669.19 442.93 660.02 C 444.68 643.32 453.08 628.44 458.11 612.66 C 457.15 610.27 455.86 607.66 457.26 605.16 C 462.45 592.98 469.70 581.82 476.28 570.36 C 482.89 559.54 489.59 548.77 496.14 537.90 C 492.25 537.50 488.09 536.63 485.40 533.55 C 481.16 528.85 478.97 522.63 477.68 516.53 C 476.06 507.02 474.56 497.47 473.75 487.85 C 473.55 483.77 470.05 481.01 468.58 477.41 C 462.87 466.23 466.44 453.03 462.30 441.49 C 455.29 429.25 452.40 415.24 449.26 401.63 C 444.26 381.64 440.08 361.45 434.58 341.59 C 431.82 329.17 427.62 316.95 421.00 306.04 C 415.90 297.21 410.56 287.63 401.47 282.36 C 391.59 283.57 384.85 291.92 376.53 296.54 C 374.21 298.11 372.02 295.40 370.01 294.46 C 354.11 309.91 336.17 323.27 316.47 333.49 C 301.65 341.18 286.46 348.84 269.90 351.93 C 255.37 355.20 240.23 353.46 225.72 356.80 C 217.06 358.76 210.43 365.36 201.86 367.55 C 192.18 370.40 182.16 367.38 172.43 366.49 C 170.74 370.16 170.55 375.00 167.04 377.51 C 164.83 377.79 163.37 375.94 161.79 374.75 C 161.63 378.55 159.97 382.64 156.21 384.15 C 153.81 385.38 151.16 384.42 148.79 383.66 C 146.40 384.38 143.70 386.66 141.27 384.88 C 137.30 382.55 136.79 377.47 135.92 373.40 C 133.68 372.87 130.54 373.20 129.36 370.75 C 128.49 365.18 130.45 359.69 132.46 354.58 C 134.41 349.62 136.80 344.52 141.16 341.21 C 145.45 337.70 151.16 337.15 156.23 335.35 C 160.27 334.12 163.15 330.76 167.01 329.16 C 180.20 323.50 195.78 328.08 208.35 320.41 C 222.66 311.52 237.31 302.40 254.00 298.82 C 261.35 296.70 269.98 298.45 276.26 293.28 C 288.97 283.81 299.49 271.81 311.29 261.29 C 317.63 255.81 323.37 249.70 329.41 243.89 C 329.22 240.55 328.78 236.87 330.85 233.97 C 334.92 227.77 341.44 223.82 346.30 218.31 C 351.94 211.93 357.67 205.64 363.18 199.15 C 368.34 192.73 373.70 186.38 380.09 181.14 C 382.89 178.75 386.58 178.10 390.10 177.58 C 392.67 171.65 394.69 165.11 399.49 160.54 C 404.39 156.49 410.57 154.52 416.31 151.98 C 410.11 140.94 404.96 129.33 400.88 117.35 C 399.77 118.68 398.68 120.03 397.45 121.24 C 396.37 120.70 396.24 119.35 395.81 118.35 C 392.82 108.73 388.95 99.17 388.63 88.97 C 388.39 81.45 388.32 73.60 391.52 66.61 C 397.04 53.99 408.99 45.19 421.78 40.85 M 451.92 93.80 C 449.76 92.17 449.52 89.24 447.81 87.27 C 445.40 84.41 441.90 82.87 438.55 81.42 C 440.75 87.90 439.39 95.11 435.88 100.86 C 435.01 102.08 434.29 104.11 432.42 103.55 C 431.85 98.18 430.11 92.95 426.37 88.94 C 425.74 96.46 423.24 103.84 419.13 110.16 C 418.05 111.29 415.78 114.02 414.76 111.43 C 412.58 106.16 411.22 100.52 407.98 95.73 C 406.89 101.72 405.30 107.63 402.84 113.21 C 405.02 117.94 407.07 122.72 409.19 127.48 C 413.71 125.96 418.85 122.74 423.54 125.47 C 427.82 128.29 429.88 133.29 431.88 137.81 C 433.72 142.82 436.01 147.88 436.14 153.31 C 435.61 153.31 434.54 153.32 434.00 153.33 C 431.67 148.90 429.54 144.33 426.52 140.30 C 423.87 141.86 421.26 143.45 418.66 145.07 C 425.24 155.92 432.42 166.60 441.67 175.37 C 447.79 180.99 454.80 186.21 463.09 187.97 C 469.64 189.43 476.94 187.54 481.73 182.77 C 486.54 177.89 490.99 172.66 495.22 167.28 C 496.59 165.43 498.40 164.00 500.39 162.86 C 499.91 167.09 497.06 170.36 494.74 173.73 C 491.12 178.67 487.79 183.96 483.08 187.96 C 479.42 191.03 474.86 192.76 470.21 193.64 C 470.38 208.60 472.93 223.40 474.27 238.28 C 484.26 218.60 495.55 199.04 511.72 183.73 C 515.57 179.84 520.07 175.90 521.10 170.23 C 522.96 160.36 523.50 149.87 520.58 140.16 C 519.69 136.49 516.10 134.68 513.46 132.39 C 506.73 127.17 502.46 118.98 501.73 110.52 C 501.11 105.53 501.22 100.31 499.20 95.62 C 497.75 92.34 492.35 90.62 490.29 94.26 C 485.44 100.75 489.15 109.01 490.85 115.96 C 491.91 121.33 494.87 126.07 495.90 131.44 C 494.83 130.77 493.67 130.22 492.78 129.32 C 487.51 123.40 484.77 115.46 478.81 110.15 C 475.49 110.29 472.60 112.20 469.85 113.89 C 462.62 118.80 455.23 123.56 447.27 127.21 C 445.13 127.88 442.37 129.49 440.42 127.64 C 438.26 125.29 436.94 122.12 436.63 118.95 C 438.90 115.72 442.60 113.95 445.79 111.77 C 450.83 108.74 455.57 105.09 461.03 102.83 C 464.31 102.30 467.67 102.95 470.99 102.90 C 467.74 96.69 466.80 89.62 467.76 82.71 C 466.03 84.81 465.23 88.72 462.17 89.00 C 459.97 86.17 459.48 82.52 458.66 79.15 C 456.10 83.90 454.03 88.86 451.92 93.80 M 526.75 140.89 C 529.29 151.32 529.28 162.38 526.96 172.86 C 525.29 180.18 519.34 185.22 514.19 190.22 C 498.95 204.84 488.63 223.58 479.20 242.25 C 477.63 244.92 475.82 249.19 471.99 248.32 C 469.45 247.27 469.07 244.24 468.64 241.87 C 467.42 232.37 466.77 222.81 466.23 213.25 C 465.54 206.73 464.57 200.23 464.44 193.67 C 457.80 192.54 451.44 189.98 445.93 186.09 C 434.93 178.44 426.40 167.79 419.13 156.66 C 413.56 159.52 407.13 161.07 402.43 165.37 C 396.03 173.34 394.35 184.04 388.07 192.12 C 387.32 193.20 386.02 193.61 384.86 194.07 C 384.74 190.20 386.72 186.76 387.89 183.19 C 381.48 185.90 377.07 191.49 372.53 196.52 C 365.92 204.83 358.66 212.59 351.57 220.49 C 347.10 225.44 341.67 229.34 336.79 233.83 C 334.43 236.03 332.13 239.30 333.42 242.66 C 335.01 246.73 337.77 250.19 340.09 253.86 C 346.52 263.36 352.14 273.60 360.38 281.70 C 362.61 284.12 365.72 285.28 368.70 286.46 C 371.54 287.52 373.52 289.93 375.57 292.05 C 381.81 287.38 387.82 282.26 394.94 278.96 C 385.31 275.47 375.12 273.55 364.85 274.03 C 367.32 270.41 372.07 270.57 375.96 270.64 C 388.82 271.46 402.09 275.19 411.80 284.04 C 408.86 279.38 406.12 274.58 402.81 270.16 C 396.67 262.30 388.90 255.89 380.77 250.19 C 376.50 247.13 371.81 244.46 368.51 240.27 C 371.81 241.05 374.94 242.39 377.86 244.11 C 385.91 248.79 393.76 254.01 400.32 260.67 C 408.92 268.91 414.49 279.61 420.07 289.97 C 425.90 302.76 432.34 315.36 436.15 328.95 C 445.04 357.11 450.12 386.27 458.31 414.61 C 460.78 421.71 462.37 429.26 466.32 435.73 C 467.89 438.49 472.02 438.31 474.00 436.11 C 478.69 431.75 483.21 427.20 487.63 422.56 C 493.67 416.24 498.07 408.25 505.55 403.41 C 502.46 411.15 496.70 417.39 492.77 424.68 C 489.53 430.85 485.03 436.24 480.41 441.41 C 477.57 444.78 473.40 446.62 469.00 446.55 C 471.07 457.96 470.20 470.49 477.24 480.40 C 479.92 478.37 482.43 476.10 484.60 473.53 C 489.83 467.38 494.96 461.12 499.35 454.34 C 500.86 451.97 502.48 449.66 504.40 447.60 C 503.93 454.32 499.25 459.53 496.34 465.31 C 491.89 472.98 488.36 482.50 479.51 486.10 C 480.49 495.78 482.21 505.37 484.05 514.91 C 484.97 519.66 486.75 524.38 490.16 527.92 C 491.59 529.35 493.71 530.42 495.77 529.73 C 502.29 528.01 506.13 522.03 511.03 517.88 C 520.45 508.37 529.26 498.08 540.29 490.34 C 551.35 482.59 563.13 474.43 576.95 473.03 C 585.37 472.58 593.67 474.57 601.95 475.86 C 620.72 478.88 639.34 485.94 658.61 483.06 C 655.38 469.57 654.57 455.66 653.71 441.87 C 653.36 435.97 649.78 431.06 647.10 426.02 C 643.52 420.36 640.45 414.41 636.86 408.76 C 633.25 410.77 629.44 412.52 626.31 415.27 C 621.84 419.14 618.23 423.94 613.52 427.53 C 608.60 431.33 602.72 433.49 597.24 436.30 C 588.05 441.05 579.66 447.18 571.62 453.65 C 559.63 463.58 547.92 473.84 536.66 484.59 C 533.30 487.68 530.16 491.13 526.00 493.17 C 526.93 488.40 531.09 485.50 534.02 481.97 C 538.64 476.62 543.69 471.66 549.00 466.99 C 562.58 455.07 576.08 442.75 591.92 433.85 C 597.24 430.75 603.05 428.59 608.23 425.25 C 615.87 420.38 620.32 411.74 628.46 407.52 C 630.90 406.05 634.28 405.04 634.91 401.84 C 636.51 395.68 635.29 389.28 635.27 383.02 C 635.07 379.91 635.39 376.64 634.20 373.69 C 632.81 371.30 630.48 369.69 628.46 367.88 C 620.17 376.37 608.43 379.47 598.53 385.49 C 588.99 391.01 579.32 396.57 571.27 404.21 C 565.55 408.82 560.64 414.77 553.69 417.59 C 554.87 414.68 556.94 412.32 559.27 410.27 C 565.61 404.65 570.72 397.70 577.67 392.76 C 584.78 387.65 592.37 383.27 599.99 378.99 C 608.05 374.41 617.46 371.83 624.09 365.04 C 626.76 362.44 628.34 358.83 628.45 355.10 C 629.24 341.57 627.68 327.76 631.46 314.55 C 633.93 306.23 635.06 297.57 634.82 288.89 C 626.32 284.12 618.12 278.83 609.62 274.06 C 604.11 277.61 598.03 280.12 592.30 283.27 C 578.05 290.76 565.19 300.58 552.97 310.99 C 551.25 312.47 549.26 313.57 547.24 314.57 C 548.04 311.89 549.37 309.37 551.48 307.49 C 567.44 292.72 585.42 279.57 605.95 271.96 C 602.17 269.93 598.39 267.90 594.65 265.80 C 588.62 268.37 582.47 270.66 576.55 273.48 C 565.51 278.52 555.56 285.57 545.93 292.87 C 542.10 295.75 538.75 299.31 534.44 301.50 C 535.48 296.82 539.16 293.61 542.68 290.71 C 557.03 279.04 572.74 268.41 590.75 263.40 C 587.61 261.81 584.54 260.06 581.21 258.90 C 576.62 257.38 571.72 257.29 567.06 256.06 C 568.40 254.61 569.81 252.92 571.96 252.81 C 577.52 251.56 583.12 253.37 587.97 256.04 C 604.45 265.09 621.70 272.97 636.79 284.32 C 640.72 277.34 646.29 271.55 651.33 265.39 C 657.34 258.06 664.29 251.54 671.77 245.72 C 675.63 242.80 678.83 239.14 682.74 236.28 C 677.43 230.91 672.59 224.96 666.27 220.72 C 659.93 216.21 652.63 213.23 646.46 208.49 C 635.83 200.38 630.62 187.28 620.00 179.14 C 614.28 179.49 608.43 179.85 603.07 182.05 C 591.65 186.69 582.39 195.22 574.33 204.35 C 570.83 208.16 568.12 212.67 564.23 216.13 C 564.38 213.47 565.02 210.83 566.58 208.63 C 571.39 201.28 577.47 194.87 583.79 188.81 C 591.84 181.00 602.27 174.95 613.76 174.83 C 602.66 170.11 591.55 165.25 581.46 158.57 C 578.03 156.35 574.76 153.84 571.11 151.98 C 567.40 150.12 563.14 149.98 559.09 150.38 C 552.67 150.98 546.02 151.38 539.79 149.39 C 534.73 147.85 530.62 144.35 526.75 140.89 M 655.45 269.44 C 651.11 274.66 646.42 279.59 642.53 285.17 C 658.27 294.85 673.06 306.98 682.91 322.83 C 682.77 314.70 683.71 306.56 685.82 298.70 C 686.11 297.23 687.15 296.11 688.18 295.08 C 689.17 297.24 688.80 299.63 688.68 301.92 C 687.46 323.98 689.47 346.02 690.49 368.04 C 690.71 375.41 690.81 382.86 689.49 390.15 C 687.21 401.86 684.38 413.47 682.12 425.19 C 681.53 431.10 683.82 436.84 685.39 442.45 C 688.13 450.09 689.53 458.29 693.69 465.36 C 695.35 468.16 697.59 470.81 700.79 471.87 C 700.01 460.85 690.22 452.82 689.83 441.68 C 690.38 441.57 691.47 441.34 692.02 441.22 C 696.01 447.01 699.12 453.37 702.45 459.56 C 706.41 466.87 706.57 475.37 707.81 483.40 C 708.63 488.25 708.82 493.50 711.88 497.61 C 714.71 488.69 713.79 479.15 714.73 469.95 C 715.04 459.51 706.62 452.20 702.76 443.26 C 702.03 441.87 701.24 438.15 703.97 439.39 C 707.48 442.12 709.50 446.33 712.33 449.71 C 718.20 456.85 720.07 466.11 722.42 474.80 C 724.69 483.41 725.70 492.43 729.33 500.63 C 731.05 494.90 731.11 488.85 731.33 482.92 C 731.47 481.03 731.06 479.18 730.46 477.42 C 727.55 468.77 725.72 459.83 723.58 450.98 C 723.03 448.37 722.19 445.68 722.81 443.01 C 724.93 440.74 726.84 444.59 727.35 446.42 C 730.44 458.22 732.41 470.44 737.30 481.69 C 738.99 485.93 741.59 489.72 744.88 492.88 C 742.18 478.85 737.49 465.30 733.22 451.70 C 732.09 447.41 731.10 442.99 731.30 438.53 C 731.74 438.26 732.60 437.72 733.04 437.46 C 735.55 442.47 736.44 448.11 738.66 453.26 C 744.25 457.31 748.48 462.82 753.33 467.65 C 755.31 469.74 757.96 470.92 760.68 471.76 C 757.30 468.61 754.19 465.18 751.77 461.24 C 745.69 452.47 740.91 442.86 737.37 432.81 C 734.88 425.72 727.85 422.00 723.84 416.03 C 720.99 409.49 722.20 402.02 723.49 395.23 C 726.39 381.98 728.94 368.58 729.18 354.97 C 729.17 338.76 728.50 322.41 724.65 306.59 C 722.87 299.63 722.14 292.08 717.92 286.04 C 710.40 275.99 698.92 269.48 692.40 258.61 C 689.36 253.23 687.40 247.27 683.76 242.23 C 674.16 251.12 663.67 259.17 655.45 269.44 M 318.94 261.90 C 308.98 270.60 299.49 279.83 289.76 288.77 C 284.89 292.72 279.86 296.54 274.36 299.55 C 268.72 302.65 262.05 301.82 255.97 303.29 C 248.40 305.05 240.85 307.33 234.01 311.09 C 222.71 316.50 212.52 324.04 200.89 328.78 C 191.91 332.19 182.11 329.43 172.97 332.08 C 167.92 332.89 164.26 336.62 160.24 339.43 C 160.09 346.98 160.06 354.53 160.09 362.08 C 159.92 366.07 163.65 368.48 165.76 371.40 C 167.21 367.42 168.99 363.58 170.27 359.54 C 168.30 358.18 164.88 357.05 165.53 354.01 C 166.68 351.28 169.66 350.19 171.98 348.69 C 172.22 344.74 172.26 340.65 174.06 337.02 C 175.05 340.45 175.18 344.03 175.48 347.56 C 182.54 345.77 189.46 341.63 196.93 342.92 C 195.82 343.82 194.76 344.85 193.42 345.42 C 185.89 348.87 177.60 350.45 170.36 354.56 C 172.91 354.73 175.47 354.83 178.03 354.67 C 186.03 354.18 194.08 355.14 202.06 354.17 C 206.67 353.62 209.08 349.05 212.52 346.49 C 212.41 351.69 209.32 357.40 203.90 358.56 C 194.26 360.43 184.43 358.79 174.71 359.44 C 174.63 359.92 174.45 360.88 174.37 361.36 C 181.27 362.06 188.09 363.82 195.05 363.78 C 206.07 363.18 213.99 354.24 224.41 351.69 C 239.32 347.85 254.98 349.71 269.98 346.39 C 283.20 343.94 295.54 338.35 307.61 332.62 C 323.65 325.01 339.09 316.01 353.00 304.94 C 357.95 300.84 361.87 295.63 366.99 291.72 C 357.00 288.79 350.98 279.64 345.52 271.44 C 340.90 263.94 336.39 256.36 332.02 248.71 C 327.73 253.17 323.59 257.80 318.94 261.90 M 149.63 342.31 C 150.24 351.54 150.09 360.79 150.13 370.04 C 150.20 372.94 150.22 375.97 151.44 378.67 C 152.41 381.09 155.72 379.39 156.35 377.52 C 157.20 374.14 158.04 370.44 156.62 367.10 C 155.21 362.81 156.10 358.26 156.43 353.88 C 156.77 349.16 157.39 344.44 158.66 339.87 C 155.66 340.72 152.65 341.52 149.63 342.31 M 139.30 349.69 C 140.95 360.07 137.98 371.32 142.98 381.05 C 144.12 380.60 145.26 380.16 146.40 379.72 C 145.86 376.20 145.58 372.65 145.79 369.10 C 146.27 360.26 146.62 351.42 147.40 342.61 C 144.27 344.43 141.54 346.84 139.30 349.69 M 131.78 369.34 C 133.09 369.25 134.40 369.17 135.71 369.11 C 135.80 364.35 136.21 359.60 136.67 354.86 C 134.51 359.49 132.64 364.28 131.78 369.34 M 546.04 493.03 C 532.00 502.41 521.44 515.77 509.36 527.35 C 506.88 529.96 505.13 533.14 503.25 536.19 C 489.77 559.30 474.53 581.40 462.56 605.37 C 467.60 603.95 472.89 603.76 478.06 604.50 C 488.61 605.96 498.80 609.34 508.58 613.49 C 522.62 619.59 535.99 627.40 547.69 637.33 C 551.23 640.39 555.43 643.08 557.66 647.34 C 559.33 650.88 555.19 653.23 553.21 655.53 C 553.41 669.72 555.64 683.77 558.26 697.68 C 566.76 691.91 577.17 691.10 586.92 688.91 C 596.52 687.14 606.45 686.59 616.14 687.99 C 621.88 688.69 625.20 694.65 630.97 695.25 C 636.69 696.04 642.46 695.05 648.12 694.19 C 653.93 693.12 660.10 692.53 665.10 689.08 C 664.16 679.94 661.73 671.05 660.07 662.03 C 657.88 652.48 656.95 642.69 654.60 633.19 C 653.09 627.04 649.15 621.87 647.42 615.81 C 642.10 597.24 642.49 576.83 649.81 558.84 C 653.07 550.67 659.91 544.71 664.00 537.02 C 667.10 531.54 669.14 525.34 668.86 518.99 C 669.09 507.88 663.72 497.87 660.28 487.60 C 652.00 489.43 643.41 489.23 635.09 487.85 C 617.00 485.04 599.28 479.82 580.98 478.45 C 567.82 478.15 556.48 485.95 546.04 493.03 M 464.18 610.86 C 463.28 617.31 460.41 623.20 458.06 629.20 C 453.63 640.41 448.72 651.76 447.87 663.92 C 447.64 670.38 447.82 677.60 451.86 682.98 C 461.49 692.52 471.12 702.13 479.55 712.78 C 484.01 702.46 493.05 695.10 502.42 689.39 C 511.53 684.05 521.34 679.66 531.82 677.89 C 529.52 673.22 526.43 668.34 527.21 662.90 C 527.31 661.43 528.49 660.40 529.29 659.30 C 530.59 663.40 531.63 667.62 533.80 671.39 C 536.85 665.24 540.75 659.40 545.96 654.88 C 548.50 652.67 551.05 650.46 553.56 648.22 C 546.94 642.04 539.58 636.70 531.77 632.15 C 518.88 624.65 505.18 618.49 490.92 614.11 C 482.30 611.54 473.21 609.40 464.18 610.86 M 536.20 675.17 C 541.32 683.12 547.19 690.54 553.96 697.15 C 551.55 684.26 549.08 671.25 549.18 658.08 C 543.83 662.91 539.38 668.70 536.20 675.17 M 512.27 690.18 C 500.35 696.18 488.42 704.18 482.31 716.47 C 487.70 723.74 491.46 731.96 494.69 740.38 C 501.86 757.64 510.95 773.99 519.22 790.73 C 524.70 801.76 531.19 812.25 536.84 823.19 C 544.13 836.98 549.89 851.53 554.94 866.28 C 556.37 870.25 557.12 874.43 557.45 878.65 C 561.64 878.86 567.04 878.42 569.55 882.58 C 572.78 887.92 569.90 894.24 568.73 899.77 C 578.49 899.24 587.52 895.14 596.27 891.15 C 600.30 889.31 604.59 886.58 605.45 881.87 C 606.59 876.08 607.83 869.18 603.79 864.21 C 598.30 856.74 594.49 848.25 591.45 839.54 C 586.10 823.70 581.31 807.64 577.94 791.25 C 574.50 773.03 570.82 754.85 567.66 736.58 C 566.02 727.17 561.61 718.55 556.45 710.62 C 550.08 700.60 540.73 692.89 534.78 682.57 C 526.99 684.12 519.35 686.53 512.27 690.18 M 570.50 697.70 C 582.09 715.72 594.74 733.08 608.65 749.39 C 614.47 756.81 620.64 764.19 628.53 769.51 C 633.38 772.82 639.52 771.50 644.96 772.76 C 651.35 773.76 656.72 777.69 661.55 781.76 C 670.51 779.72 678.63 774.48 684.02 767.01 C 693.58 754.32 695.77 737.76 694.83 722.29 C 691.02 720.70 687.26 719.02 683.52 717.29 C 686.13 723.98 688.85 731.20 687.43 738.49 C 684.49 735.89 683.89 731.88 682.51 728.41 C 677.90 716.27 669.98 705.83 662.91 695.06 C 651.85 697.84 640.51 701.80 628.97 700.13 C 623.83 699.59 620.63 694.94 615.92 693.46 C 600.66 690.99 585.37 694.52 570.50 697.70 M 700.81 724.86 C 702.05 740.42 698.76 756.76 689.48 769.54 C 683.73 777.71 674.87 783.60 665.00 785.34 C 673.74 792.61 682.84 799.53 692.71 805.21 C 716.50 818.99 742.87 828.32 764.89 845.10 C 769.39 848.88 773.30 853.30 777.33 857.57 C 779.71 859.95 780.56 863.27 781.14 866.49 C 783.59 867.21 786.45 867.72 788.00 870.00 C 790.81 873.44 792.85 878.73 797.93 879.15 C 802.90 876.21 806.39 871.21 809.35 866.35 C 815.29 854.24 816.39 840.27 815.24 827.00 C 815.24 822.05 809.98 820.66 806.61 818.38 C 795.48 811.25 784.09 804.46 773.63 796.33 C 765.61 790.14 757.28 783.85 751.93 775.07 C 746.42 766.16 739.71 758.08 732.55 750.48 C 723.35 740.39 712.90 731.32 700.81 724.86 M 820.74 824.79 C 821.90 831.14 822.50 837.64 821.90 844.09 C 820.76 858.05 815.71 872.47 804.45 881.44 C 799.87 884.87 792.97 883.95 789.12 879.83 C 786.39 876.86 784.24 873.23 780.55 871.30 C 780.40 876.58 780.31 881.88 779.69 887.14 C 778.64 898.87 773.97 909.96 768.06 920.03 C 763.47 927.84 756.97 934.21 751.10 941.02 C 749.73 942.82 747.92 944.64 747.76 947.03 C 748.15 950.22 751.35 951.90 753.90 953.29 C 759.36 956.16 765.75 955.38 771.60 954.47 C 780.33 953.01 789.11 950.99 797.09 947.05 C 803.39 943.93 806.35 937.10 808.81 930.92 C 815.06 915.86 819.88 900.13 827.75 885.79 C 832.57 876.88 840.08 869.89 845.53 861.42 C 848.97 855.96 851.54 849.52 850.68 842.96 C 850.01 837.07 845.41 832.22 840.01 830.19 C 833.75 827.83 827.23 826.30 820.74 824.79 M 611.95 875.28 C 611.21 880.59 610.72 886.62 606.56 890.53 C 602.14 894.55 596.42 896.65 591.03 899.03 C 583.97 901.84 576.66 904.91 568.91 904.73 C 566.63 904.76 563.68 903.67 563.51 901.03 C 563.37 896.01 566.38 891.30 565.55 886.28 C 564.60 883.63 561.12 884.23 558.92 884.16 C 552.73 884.21 547.74 888.47 544.11 893.07 C 535.15 904.21 526.27 915.46 518.44 927.44 C 513.34 935.15 507.23 942.23 499.81 947.80 C 493.17 953.49 484.59 958.60 482.61 967.79 C 492.72 973.51 504.60 974.80 516.01 974.74 C 524.93 974.66 534.04 973.80 542.31 970.23 C 550.34 967.11 557.18 961.78 564.67 957.66 C 572.01 953.55 579.49 949.73 586.95 945.85 C 597.30 940.56 608.85 938.55 620.16 936.44 C 624.67 935.29 631.17 933.96 631.57 928.23 C 632.98 916.63 629.99 904.82 624.48 894.62 C 621.11 887.66 615.79 881.94 611.95 875.28 Z" />
		<path fill="#020202" opacity="1.00"
			d=" M 434.45 154.39 C 437.78 154.24 440.52 156.71 443.83 156.64 C 446.29 156.74 448.76 156.76 451.22 156.87 C 450.40 158.91 450.21 161.88 447.81 162.73 C 444.56 163.47 441.17 163.65 437.86 163.31 C 435.84 160.79 434.89 157.54 434.45 154.39 Z" />
		<path fill="#020202" opacity="1.00"
			d=" M 473.37 164.40 C 474.95 163.72 476.86 162.61 478.45 163.93 C 479.65 166.39 476.82 167.43 475.36 168.78 C 474.88 170.58 474.66 172.77 472.63 173.48 C 467.08 175.99 461.99 179.58 456.11 181.30 C 455.72 180.78 454.95 179.75 454.57 179.24 C 452.92 179.45 451.26 179.54 449.61 179.51 C 448.87 176.71 451.65 175.69 453.54 174.51 C 460.02 170.90 466.68 167.61 473.37 164.40 Z" />
		<path fill="#020202" opacity="1.00"
			d=" M 609.10 396.08 C 612.37 394.74 616.66 393.96 619.60 396.46 C 622.12 399.05 620.86 403.27 618.50 405.53 C 612.44 411.72 604.21 414.97 596.43 418.38 C 587.02 422.42 578.39 428.06 570.43 434.46 C 566.70 437.42 563.83 441.40 559.64 443.79 C 561.39 437.86 565.84 433.29 570.42 429.38 C 577.10 423.80 584.41 418.94 592.34 415.33 C 601.01 411.05 611.59 408.29 616.92 399.50 C 610.55 399.50 605.19 403.30 599.41 405.43 C 590.44 409.61 580.76 412.19 572.21 417.25 C 562.70 422.95 557.34 433.05 549.42 440.49 C 543.95 445.69 539.87 453.11 532.38 455.62 C 535.50 449.34 540.97 444.67 545.01 439.02 C 551.86 431.83 557.41 423.44 564.92 416.89 C 571.31 411.33 579.38 408.36 587.18 405.39 C 594.57 402.49 601.79 399.18 609.10 396.08 Z" />
	</g>
	<g id="#f0b58bff">
		<path fill="#f0b58b" opacity="1.00"
			d=" M 451.92 93.80 C 454.03 88.86 456.10 83.90 458.66 79.15 C 459.48 82.52 459.97 86.17 462.17 89.00 C 465.23 88.72 466.03 84.81 467.76 82.71 C 466.80 89.62 467.74 96.69 470.99 102.90 C 467.67 102.95 464.31 102.30 461.03 102.83 C 455.57 105.09 450.83 108.74 445.79 111.77 C 442.60 113.95 438.90 115.72 436.63 118.95 C 436.94 122.12 438.26 125.29 440.42 127.64 C 442.37 129.49 445.13 127.88 447.27 127.21 C 455.23 123.56 462.62 118.80 469.85 113.89 C 472.60 112.20 475.49 110.29 478.81 110.15 C 484.77 115.46 487.51 123.40 492.78 129.32 C 493.67 130.22 494.83 130.77 495.90 131.44 C 494.87 126.07 491.91 121.33 490.85 115.96 C 489.15 109.01 485.44 100.75 490.29 94.26 C 492.35 90.62 497.75 92.34 499.20 95.62 C 501.22 100.31 501.11 105.53 501.73 110.52 C 502.46 118.98 506.73 127.17 513.46 132.39 C 516.10 134.68 519.69 136.49 520.58 140.16 C 523.50 149.87 522.96 160.36 521.10 170.23 C 520.07 175.90 515.57 179.84 511.72 183.73 C 495.55 199.04 484.26 218.60 474.27 238.28 C 472.93 223.40 470.38 208.60 470.21 193.64 C 474.86 192.76 479.42 191.03 483.08 187.96 C 487.79 183.96 491.12 178.67 494.74 173.73 C 497.06 170.36 499.91 167.09 500.39 162.86 C 498.40 164.00 496.59 165.43 495.22 167.28 C 490.99 172.66 486.54 177.89 481.73 182.77 C 476.94 187.54 469.64 189.43 463.09 187.97 C 454.80 186.21 447.79 180.99 441.67 175.37 C 432.42 166.60 425.24 155.92 418.66 145.07 C 421.26 143.45 423.87 141.86 426.52 140.30 C 429.54 144.33 431.67 148.90 434.00 153.33 C 434.54 153.32 435.61 153.31 436.14 153.31 C 436.01 147.88 433.72 142.82 431.88 137.81 C 429.88 133.29 427.82 128.29 423.54 125.47 C 418.85 122.74 413.71 125.96 409.19 127.48 C 407.07 122.72 405.02 117.94 402.84 113.21 C 405.30 107.63 406.89 101.72 407.98 95.73 C 411.22 100.52 412.58 106.16 414.76 111.43 C 415.78 114.02 418.05 111.29 419.13 110.16 C 423.24 103.84 425.74 96.46 426.37 88.94 C 430.11 92.95 431.85 98.18 432.42 103.55 C 434.29 104.11 435.01 102.08 435.88 100.86 C 439.39 95.11 440.75 87.90 438.55 81.42 C 441.90 82.87 445.40 84.41 447.81 87.27 C 449.52 89.24 449.76 92.17 451.92 93.80 M 434.45 154.39 C 434.89 157.54 435.84 160.79 437.86 163.31 C 441.17 163.65 444.56 163.47 447.81 162.73 C 450.21 161.88 450.40 158.91 451.22 156.87 C 448.76 156.76 446.29 156.74 443.83 156.64 C 440.52 156.71 437.78 154.24 434.45 154.39 M 473.37 164.40 C 466.68 167.61 460.02 170.90 453.54 174.51 C 451.65 175.69 448.87 176.71 449.61 179.51 C 451.26 179.54 452.92 179.45 454.57 179.24 C 454.95 179.75 455.72 180.78 456.11 181.30 C 461.99 179.58 467.08 175.99 472.63 173.48 C 474.66 172.77 474.88 170.58 475.36 168.78 C 476.82 167.43 479.65 166.39 478.45 163.93 C 476.86 162.61 474.95 163.72 473.37 164.40 Z" />
		<path fill="#f0b58b" opacity="1.00"
			d=" M 655.45 269.44 C 663.67 259.17 674.16 251.12 683.76 242.23 C 687.40 247.27 689.36 253.23 692.40 258.61 C 698.92 269.48 710.40 275.99 717.92 286.04 C 722.14 292.08 722.87 299.63 724.65 306.59 C 728.50 322.41 729.17 338.76 729.18 354.97 C 728.94 368.58 726.39 381.98 723.49 395.23 C 722.20 402.02 720.99 409.49 723.84 416.03 C 727.85 422.00 734.88 425.72 737.37 432.81 C 740.91 442.86 745.69 452.47 751.77 461.24 C 754.19 465.18 757.30 468.61 760.68 471.76 C 757.96 470.92 755.31 469.74 753.33 467.65 C 748.48 462.82 744.25 457.31 738.66 453.26 C 736.44 448.11 735.55 442.47 733.04 437.46 C 732.60 437.72 731.74 438.26 731.30 438.53 C 731.10 442.99 732.09 447.41 733.22 451.70 C 737.49 465.30 742.18 478.85 744.88 492.88 C 741.59 489.72 738.99 485.93 737.30 481.69 C 732.41 470.44 730.44 458.22 727.35 446.42 C 726.84 444.59 724.93 440.74 722.81 443.01 C 722.19 445.68 723.03 448.37 723.58 450.98 C 725.72 459.83 727.55 468.77 730.46 477.42 C 731.06 479.18 731.47 481.03 731.33 482.92 C 731.11 488.85 731.05 494.90 729.33 500.63 C 725.70 492.43 724.69 483.41 722.42 474.80 C 720.07 466.11 718.20 456.85 712.33 449.71 C 709.50 446.33 707.48 442.12 703.97 439.39 C 701.24 438.15 702.03 441.87 702.76 443.26 C 706.62 452.20 715.04 459.51 714.73 469.95 C 713.79 479.15 714.71 488.69 711.88 497.61 C 708.82 493.50 708.63 488.25 707.81 483.40 C 706.57 475.37 706.41 466.87 702.45 459.56 C 699.12 453.37 696.01 447.01 692.02 441.22 C 691.47 441.34 690.38 441.57 689.83 441.68 C 690.22 452.82 700.01 460.85 700.79 471.87 C 697.59 470.81 695.35 468.16 693.69 465.36 C 689.53 458.29 688.13 450.09 685.39 442.45 C 683.82 436.84 681.53 431.10 682.12 425.19 C 684.38 413.47 687.21 401.86 689.49 390.15 C 690.81 382.86 690.71 375.41 690.49 368.04 C 689.47 346.02 687.46 323.98 688.68 301.92 C 688.80 299.63 689.17 297.24 688.18 295.08 C 687.15 296.11 686.11 297.23 685.82 298.70 C 683.71 306.56 682.77 314.70 682.91 322.83 C 673.06 306.98 658.27 294.85 642.53 285.17 C 646.42 279.59 651.11 274.66 655.45 269.44 Z" />
		<path fill="#f0b58b" opacity="1.00"
			d=" M 318.94 261.90 C 323.59 257.80 327.73 253.17 332.02 248.71 C 336.39 256.36 340.90 263.94 345.52 271.44 C 350.98 279.64 357.00 288.79 366.99 291.72 C 361.87 295.63 357.95 300.84 353.00 304.94 C 339.09 316.01 323.65 325.01 307.61 332.62 C 295.54 338.35 283.20 343.94 269.98 346.39 C 254.98 349.71 239.32 347.85 224.41 351.69 C 213.99 354.24 206.07 363.18 195.05 363.78 C 188.09 363.82 181.27 362.06 174.37 361.36 C 174.45 360.88 174.63 359.92 174.71 359.44 C 184.43 358.79 194.26 360.43 203.90 358.56 C 209.32 357.40 212.41 351.69 212.52 346.49 C 209.08 349.05 206.67 353.62 202.06 354.17 C 194.08 355.14 186.03 354.18 178.03 354.67 C 175.47 354.83 172.91 354.73 170.36 354.56 C 177.60 350.45 185.89 348.87 193.42 345.42 C 194.76 344.85 195.82 343.82 196.93 342.92 C 189.46 341.63 182.54 345.77 175.48 347.56 C 175.18 344.03 175.05 340.45 174.06 337.02 C 172.26 340.65 172.22 344.74 171.98 348.69 C 169.66 350.19 166.68 351.28 165.53 354.01 C 164.88 357.05 168.30 358.18 170.27 359.54 C 168.99 363.58 167.21 367.42 165.76 371.40 C 163.65 368.48 159.92 366.07 160.09 362.08 C 160.06 354.53 160.09 346.98 160.24 339.43 C 164.26 336.62 167.92 332.89 172.97 332.08 C 182.11 329.43 191.91 332.19 200.89 328.78 C 212.52 324.04 222.71 316.50 234.01 311.09 C 240.85 307.33 248.40 305.05 255.97 303.29 C 262.05 301.82 268.72 302.65 274.36 299.55 C 279.86 296.54 284.89 292.72 289.76 288.77 C 299.49 279.83 308.98 270.60 318.94 261.90 Z" />
		<path fill="#f0b58b" opacity="1.00"
			d=" M 149.63 342.31 C 152.65 341.52 155.66 340.72 158.66 339.87 C 157.39 344.44 156.77 349.16 156.43 353.88 C 156.10 358.26 155.21 362.81 156.62 367.10 C 158.04 370.44 157.20 374.14 156.35 377.52 C 155.72 379.39 152.41 381.09 151.44 378.67 C 150.22 375.97 150.20 372.94 150.13 370.04 C 150.09 360.79 150.24 351.54 149.63 342.31 Z" />
		<path fill="#f0b58b" opacity="1.00"
			d=" M 139.30 349.69 C 141.54 346.84 144.27 344.43 147.40 342.61 C 146.62 351.42 146.27 360.26 145.79 369.10 C 145.58 372.65 145.86 376.20 146.40 379.72 C 145.26 380.16 144.12 380.60 142.98 381.05 C 137.98 371.32 140.95 360.07 139.30 349.69 Z" />
		<path fill="#f0b58b" opacity="1.00"
			d=" M 131.78 369.34 C 132.64 364.28 134.51 359.49 136.67 354.86 C 136.21 359.60 135.80 364.35 135.71 369.11 C 134.40 369.17 133.09 369.25 131.78 369.34 Z" />
		<path fill="#f0b58b" opacity="1.00"
			d=" M 464.18 610.86 C 473.21 609.40 482.30 611.54 490.92 614.11 C 505.18 618.49 518.88 624.65 531.77 632.15 C 539.58 636.70 546.94 642.04 553.56 648.22 C 551.05 650.46 548.50 652.67 545.96 654.88 C 540.75 659.40 536.85 665.24 533.80 671.39 C 531.63 667.62 530.59 663.40 529.29 659.30 C 528.49 660.40 527.31 661.43 527.21 662.90 C 526.43 668.34 529.52 673.22 531.82 677.89 C 521.34 679.66 511.53 684.05 502.42 689.39 C 493.05 695.10 484.01 702.46 479.55 712.78 C 471.12 702.13 461.49 692.52 451.86 682.98 C 447.82 677.60 447.64 670.38 447.87 663.92 C 448.72 651.76 453.63 640.41 458.06 629.20 C 460.41 623.20 463.28 617.31 464.18 610.86 Z" />
		<path fill="#f0b58b" opacity="1.00"
			d=" M 570.50 697.70 C 585.37 694.52 600.66 690.99 615.92 693.46 C 620.63 694.94 623.83 699.59 628.97 700.13 C 640.51 701.80 651.85 697.84 662.91 695.06 C 669.98 705.83 677.90 716.27 682.51 728.41 C 683.89 731.88 684.49 735.89 687.43 738.49 C 688.85 731.20 686.13 723.98 683.52 717.29 C 687.26 719.02 691.02 720.70 694.83 722.29 C 695.77 737.76 693.58 754.32 684.02 767.01 C 678.63 774.48 670.51 779.72 661.55 781.76 C 656.72 777.69 651.35 773.76 644.96 772.76 C 639.52 771.50 633.38 772.82 628.53 769.51 C 620.64 764.19 614.47 756.81 608.65 749.39 C 594.74 733.08 582.09 715.72 570.50 697.70 Z" />
	</g>
	<g id="#f11b27ff">
		<path fill="var(--shirt-color, grey)" opacity="1.00"
			d=" M 526.75 140.89 C 530.62 144.35 534.73 147.85 539.79 149.39 C 546.02 151.38 552.67 150.98 559.09 150.38 C 563.14 149.98 567.40 150.12 571.11 151.98 C 574.76 153.84 578.03 156.35 581.46 158.57 C 591.55 165.25 602.66 170.11 613.76 174.83 C 602.27 174.95 591.84 181.00 583.79 188.81 C 577.47 194.87 571.39 201.28 566.58 208.63 C 565.02 210.83 564.38 213.47 564.23 216.13 C 568.12 212.67 570.83 208.16 574.33 204.35 C 582.39 195.22 591.65 186.69 603.07 182.05 C 608.43 179.85 614.28 179.49 620.00 179.14 C 630.62 187.28 635.83 200.38 646.46 208.49 C 652.63 213.23 659.93 216.21 666.27 220.72 C 672.59 224.96 677.43 230.91 682.74 236.28 C 678.83 239.14 675.63 242.80 671.77 245.72 C 664.29 251.54 657.34 258.06 651.33 265.39 C 646.29 271.55 640.72 277.34 636.79 284.32 C 621.70 272.97 604.45 265.09 587.97 256.04 C 583.12 253.37 577.52 251.56 571.96 252.81 C 569.81 252.92 568.40 254.61 567.06 256.06 C 571.72 257.29 576.62 257.38 581.21 258.90 C 584.54 260.06 587.61 261.81 590.75 263.40 C 572.74 268.41 557.03 279.04 542.68 290.71 C 539.16 293.61 535.48 296.82 534.44 301.50 C 538.75 299.31 542.10 295.75 545.93 292.87 C 555.56 285.57 565.51 278.52 576.55 273.48 C 582.47 270.66 588.62 268.37 594.65 265.80 C 598.39 267.90 602.17 269.93 605.95 271.96 C 585.42 279.57 567.44 292.72 551.48 307.49 C 549.37 309.37 548.04 311.89 547.24 314.57 C 549.26 313.57 551.25 312.47 552.97 310.99 C 565.19 300.58 578.05 290.76 592.30 283.27 C 598.03 280.12 604.11 277.61 609.62 274.06 C 618.12 278.83 626.32 284.12 634.82 288.89 C 635.06 297.57 633.93 306.23 631.46 314.55 C 627.68 327.76 629.24 341.57 628.45 355.10 C 628.34 358.83 626.76 362.44 624.09 365.04 C 617.46 371.83 608.05 374.41 599.99 378.99 C 592.37 383.27 584.78 387.65 577.67 392.76 C 570.72 397.70 565.61 404.65 559.27 410.27 C 556.94 412.32 554.87 414.68 553.69 417.59 C 560.64 414.77 565.55 408.82 571.27 404.21 C 579.32 396.57 588.99 391.01 598.53 385.49 C 608.43 379.47 620.17 376.37 628.46 367.88 C 630.48 369.69 632.81 371.30 634.20 373.69 C 635.39 376.64 635.07 379.91 635.27 383.02 C 635.29 389.28 636.51 395.68 634.91 401.84 C 634.28 405.04 630.90 406.05 628.46 407.52 C 620.32 411.74 615.87 420.38 608.23 425.25 C 603.05 428.59 597.24 430.75 591.92 433.85 C 576.08 442.75 562.58 455.07 549.00 466.99 C 543.69 471.66 538.64 476.62 534.02 481.97 C 531.09 485.50 526.93 488.40 526.00 493.17 C 530.16 491.13 533.30 487.68 536.66 484.59 C 547.92 473.84 559.63 463.58 571.62 453.65 C 579.66 447.18 588.05 441.05 597.24 436.30 C 602.72 433.49 608.60 431.33 613.52 427.53 C 618.23 423.94 621.84 419.14 626.31 415.27 C 629.44 412.52 633.25 410.77 636.86 408.76 C 640.45 414.41 643.52 420.36 647.10 426.02 C 649.78 431.06 653.36 435.97 653.71 441.87 C 654.57 455.66 655.38 469.57 658.61 483.06 C 639.34 485.94 620.72 478.88 601.95 475.86 C 593.67 474.57 585.37 472.58 576.95 473.03 C 563.13 474.43 551.35 482.59 540.29 490.34 C 529.26 498.08 520.45 508.37 511.03 517.88 C 506.13 522.03 502.29 528.01 495.77 529.73 C 493.71 530.42 491.59 529.35 490.16 527.92 C 486.75 524.38 484.97 519.66 484.05 514.91 C 482.21 505.37 480.49 495.78 479.51 486.10 C 488.36 482.50 491.89 472.98 496.34 465.31 C 499.25 459.53 503.93 454.32 504.40 447.60 C 502.48 449.66 500.86 451.97 499.35 454.34 C 494.96 461.12 489.83 467.38 484.60 473.53 C 482.43 476.10 479.92 478.37 477.24 480.40 C 470.20 470.49 471.07 457.96 469.00 446.55 C 473.40 446.62 477.57 444.78 480.41 441.41 C 485.03 436.24 489.53 430.85 492.77 424.68 C 496.70 417.39 502.46 411.15 505.55 403.41 C 498.07 408.25 493.67 416.24 487.63 422.56 C 483.21 427.20 478.69 431.75 474.00 436.11 C 472.02 438.31 467.89 438.49 466.32 435.73 C 462.37 429.26 460.78 421.71 458.31 414.61 C 450.12 386.27 445.04 357.11 436.15 328.95 C 432.34 315.36 425.90 302.76 420.07 289.97 C 414.49 279.61 408.92 268.91 400.32 260.67 C 393.76 254.01 385.91 248.79 377.86 244.11 C 374.94 242.39 371.81 241.05 368.51 240.27 C 371.81 244.46 376.50 247.13 380.77 250.19 C 388.90 255.89 396.67 262.30 402.81 270.16 C 406.12 274.58 408.86 279.38 411.80 284.04 C 402.09 275.19 388.82 271.46 375.96 270.64 C 372.07 270.57 367.32 270.41 364.85 274.03 C 375.12 273.55 385.31 275.47 394.94 278.96 C 387.82 282.26 381.81 287.38 375.57 292.05 C 373.52 289.93 371.54 287.52 368.70 286.46 C 365.72 285.28 362.61 284.12 360.38 281.70 C 352.14 273.60 346.52 263.36 340.09 253.86 C 337.77 250.19 335.01 246.73 333.42 242.66 C 332.13 239.30 334.43 236.03 336.79 233.83 C 341.67 229.34 347.10 225.44 351.57 220.49 C 358.66 212.59 365.92 204.83 372.53 196.52 C 377.07 191.49 381.48 185.90 387.89 183.19 C 386.72 186.76 384.74 190.20 384.86 194.07 C 386.02 193.61 387.32 193.20 388.07 192.12 C 394.35 184.04 396.03 173.34 402.43 165.37 C 407.13 161.07 413.56 159.52 419.13 156.66 C 426.40 167.79 434.93 178.44 445.93 186.09 C 451.44 189.98 457.80 192.54 464.44 193.67 C 464.57 200.23 465.54 206.73 466.23 213.25 C 466.77 222.81 467.42 232.37 468.64 241.87 C 469.07 244.24 469.45 247.27 471.99 248.32 C 475.82 249.19 477.63 244.92 479.20 242.25 C 488.63 223.58 498.95 204.84 514.19 190.22 C 519.34 185.22 525.29 180.18 526.96 172.86 C 529.28 162.38 529.29 151.32 526.75 140.89 M 609.10 396.08 C 601.79 399.18 594.57 402.49 587.18 405.39 C 579.38 408.36 571.31 411.33 564.92 416.89 C 557.41 423.44 551.86 431.83 545.01 439.02 C 540.97 444.67 535.50 449.34 532.38 455.62 C 539.87 453.11 543.95 445.69 549.42 440.49 C 557.34 433.05 562.70 422.95 572.21 417.25 C 580.76 412.19 590.44 409.61 599.41 405.43 C 605.19 403.30 610.55 399.50 616.92 399.50 C 611.59 408.29 601.01 411.05 592.34 415.33 C 584.41 418.94 577.10 423.80 570.42 429.38 C 565.84 433.29 561.39 437.86 559.64 443.79 C 563.83 441.40 566.70 437.42 570.43 434.46 C 578.39 428.06 587.02 422.42 596.43 418.38 C 604.21 414.97 612.44 411.72 618.50 405.53 C 620.86 403.27 622.12 399.05 619.60 396.46 C 616.66 393.96 612.37 394.74 609.10 396.08 Z" />
	</g>
	<g id="#2b3dcdff">
		<path fill="var(--pants-color, grey)" opacity="1.00"
			d=" M 546.04 493.03 C 556.48 485.95 567.82 478.15 580.98 478.45 C 599.28 479.82 617.00 485.04 635.09 487.85 C 643.41 489.23 652.00 489.43 660.28 487.60 C 663.72 497.87 669.09 507.88 668.86 518.99 C 669.14 525.34 667.10 531.54 664.00 537.02 C 659.91 544.71 653.07 550.67 649.81 558.84 C 642.49 576.83 642.10 597.24 647.42 615.81 C 649.15 621.87 653.09 627.04 654.60 633.19 C 656.95 642.69 657.88 652.48 660.07 662.03 C 661.73 671.05 664.16 679.94 665.10 689.08 C 660.10 692.53 653.93 693.12 648.12 694.19 C 642.46 695.05 636.69 696.04 630.97 695.25 C 625.20 694.65 621.88 688.69 616.14 687.99 C 606.45 686.59 596.52 687.14 586.92 688.91 C 577.17 691.10 566.76 691.91 558.26 697.68 C 555.64 683.77 553.41 669.72 553.21 655.53 C 555.19 653.23 559.33 650.88 557.66 647.34 C 555.43 643.08 551.23 640.39 547.69 637.33 C 535.99 627.40 522.62 619.59 508.58 613.49 C 498.80 609.34 488.61 605.96 478.06 604.50 C 472.89 603.76 467.60 603.95 462.56 605.37 C 474.53 581.40 489.77 559.30 503.25 536.19 C 505.13 533.14 506.88 529.96 509.36 527.35 C 521.44 515.77 532.00 502.41 546.04 493.03 Z" />
		<path fill="var(--socks-color, grey)" opacity="1.00"
			d=" M 512.27 690.18 C 519.35 686.53 526.99 684.12 534.78 682.57 C 540.73 692.89 550.08 700.60 556.45 710.62 C 561.61 718.55 566.02 727.17 567.66 736.58 C 570.82 754.85 574.50 773.03 577.94 791.25 C 581.31 807.64 586.10 823.70 591.45 839.54 C 594.49 848.25 598.30 856.74 603.79 864.21 C 607.83 869.18 606.59 876.08 605.45 881.87 C 604.59 886.58 600.30 889.31 596.27 891.15 C 587.52 895.14 578.49 899.24 568.73 899.77 C 569.90 894.24 572.78 887.92 569.55 882.58 C 567.04 878.42 561.64 878.86 557.45 878.65 C 557.12 874.43 556.37 870.25 554.94 866.28 C 549.89 851.53 544.13 836.98 536.84 823.19 C 531.19 812.25 524.70 801.76 519.22 790.73 C 510.95 773.99 501.86 757.64 494.69 740.38 C 491.46 731.96 487.70 723.74 482.31 716.47 C 488.42 704.18 500.35 696.18 512.27 690.18 Z" />
		<path fill="var(--socks-color, grey)" opacity="1.00"
			d=" M 700.81 724.86 C 712.90 731.32 723.35 740.39 732.55 750.48 C 739.71 758.08 746.42 766.16 751.93 775.07 C 757.28 783.85 765.61 790.14 773.63 796.33 C 784.09 804.46 795.48 811.25 806.61 818.38 C 809.98 820.66 815.24 822.05 815.24 827.00 C 816.39 840.27 815.29 854.24 809.35 866.35 C 806.39 871.21 802.90 876.21 797.93 879.15 C 792.85 878.73 790.81 873.44 788.00 870.00 C 786.45 867.72 783.59 867.21 781.14 866.49 C 780.56 863.27 779.71 859.95 777.33 857.57 C 773.30 853.30 769.39 848.88 764.89 845.10 C 742.87 828.32 716.50 818.99 692.71 805.21 C 682.84 799.53 673.74 792.61 665.00 785.34 C 674.87 783.60 683.73 777.71 689.48 769.54 C 698.76 756.76 702.05 740.42 700.81 724.86 Z" />
	</g>
	<g id="#4d4d4dff">
		<path fill="#4d4d4d" opacity="1.00"
			d=" M 820.74 824.79 C 827.23 826.30 833.75 827.83 840.01 830.19 C 845.41 832.22 850.01 837.07 850.68 842.96 C 851.54 849.52 848.97 855.96 845.53 861.42 C 840.08 869.89 832.57 876.88 827.75 885.79 C 819.88 900.13 815.06 915.86 808.81 930.92 C 806.35 937.10 803.39 943.93 797.09 947.05 C 789.11 950.99 780.33 953.01 771.60 954.47 C 765.75 955.38 759.36 956.16 753.90 953.29 C 751.35 951.90 748.15 950.22 747.76 947.03 C 747.92 944.64 749.73 942.82 751.10 941.02 C 756.97 934.21 763.47 927.84 768.06 920.03 C 773.97 909.96 778.64 898.87 779.69 887.14 C 780.31 881.88 780.40 876.58 780.55 871.30 C 784.24 873.23 786.39 876.86 789.12 879.83 C 792.97 883.95 799.87 884.87 804.45 881.44 C 815.71 872.47 820.76 858.05 821.90 844.09 C 822.50 837.64 821.90 831.14 820.74 824.79 Z" />
		<path fill="#4d4d4d" opacity="1.00"
			d=" M 611.95 875.28 C 615.79 881.94 621.11 887.66 624.48 894.62 C 629.99 904.82 632.98 916.63 631.57 928.23 C 631.17 933.96 624.67 935.29 620.16 936.44 C 608.85 938.55 597.30 940.56 586.95 945.85 C 579.49 949.73 572.01 953.55 564.67 957.66 C 557.18 961.78 550.34 967.11 542.31 970.23 C 534.04 973.80 524.93 974.66 516.01 974.74 C 504.60 974.80 492.72 973.51 482.61 967.79 C 484.59 958.60 493.17 953.49 499.81 947.80 C 507.23 942.23 513.34 935.15 518.44 927.44 C 526.27 915.46 535.15 904.21 544.11 893.07 C 547.74 888.47 552.73 884.21 558.92 884.16 C 561.12 884.23 564.60 883.63 565.55 886.28 C 566.38 891.30 563.37 896.01 563.51 901.03 C 563.68 903.67 566.63 904.76 568.91 904.73 C 576.66 904.91 583.97 901.84 591.03 899.03 C 596.42 896.65 602.14 894.55 606.56 890.53 C 610.72 886.62 611.21 880.59 611.95 875.28 Z" />
	</g>
</svg>