<?xml version="1.0" encoding="UTF-8" ?>
<!DOCTYPE svg PUBLIC "-//W3C//DTD SVG 1.1//EN" "http://www.w3.org/Graphics/SVG/1.1/DTD/svg11.dtd">
<svg width="1000pt" height="1000pt" viewBox="0 0 1000 1000" version="1.1" xmlns="http://www.w3.org/2000/svg">
	<g id="#020202ff">
		<path fill="#020202" opacity="1.00"
			d=" M 208.05 53.59 C 227.31 50.88 247.15 55.48 264.04 64.87 C 273.74 69.55 283.00 75.99 288.74 85.30 C 293.44 93.35 296.73 102.51 296.20 111.97 C 296.34 118.47 294.12 124.65 293.19 130.99 C 294.14 140.90 299.21 150.03 305.70 157.41 C 308.13 155.78 310.70 153.26 313.91 154.10 C 323.12 156.02 332.33 159.38 341.89 158.13 C 354.62 157.38 367.11 153.84 379.92 154.48 C 389.65 154.98 397.84 160.96 405.45 166.47 C 418.17 175.93 431.32 184.81 444.74 193.23 C 456.70 200.94 468.36 209.69 476.66 221.42 C 480.86 227.52 485.88 233.25 488.58 240.23 C 487.22 242.19 484.49 241.33 482.49 241.76 C 488.48 250.94 495.23 259.60 501.28 268.75 C 504.98 274.25 508.50 280.24 509.00 287.02 C 509.82 292.61 508.80 298.70 505.11 303.14 C 501.96 307.17 496.82 308.80 491.98 309.70 C 478.24 312.09 464.25 310.14 450.57 308.26 C 456.47 322.36 462.38 336.53 470.47 349.54 C 476.88 360.13 484.80 369.70 493.18 378.78 C 497.53 383.53 502.41 388.00 508.36 390.64 C 514.08 393.18 519.95 395.43 525.43 398.49 C 530.89 401.55 536.85 404.13 541.18 408.81 C 546.08 414.09 549.01 420.81 551.52 427.47 C 554.98 437.10 558.67 447.01 557.82 457.43 C 561.51 462.87 565.48 469.01 564.50 475.92 C 564.21 481.10 559.44 484.72 559.41 489.94 C 558.77 499.70 558.33 509.91 553.81 518.80 C 551.48 523.57 547.85 527.50 545.09 532.00 C 547.00 538.54 545.58 545.25 545.29 551.87 C 549.02 559.36 551.96 567.30 556.54 574.37 C 561.65 583.31 569.19 590.45 575.49 598.51 C 580.31 604.40 584.99 610.40 589.59 616.47 C 596.59 625.04 603.44 634.74 604.41 646.11 C 605.67 656.23 602.47 666.59 597.02 675.07 C 601.82 689.14 607.48 703.02 615.29 715.72 C 620.76 724.47 631.21 728.24 640.97 729.70 C 664.37 733.46 688.11 736.57 710.57 744.48 C 721.69 748.30 731.79 754.63 740.62 762.34 C 748.92 769.32 755.92 777.83 764.98 783.91 C 774.15 789.86 784.50 793.61 794.74 797.26 C 806.57 801.69 818.51 805.85 830.69 809.23 C 847.03 813.63 862.52 820.77 877.17 829.15 C 891.98 826.15 907.32 832.86 917.30 843.71 C 925.19 852.11 925.91 865.70 920.72 875.68 C 916.37 884.12 911.62 892.43 908.48 901.43 C 905.10 910.73 904.77 920.85 900.96 930.03 C 898.02 936.82 895.59 944.01 890.81 949.81 C 880.50 962.70 864.61 971.52 847.97 972.05 C 841.66 972.04 834.54 970.82 830.19 965.83 C 827.67 963.03 828.01 958.83 829.78 955.75 C 832.20 951.31 835.39 947.35 838.08 943.07 C 840.77 938.76 844.54 934.47 844.23 929.05 C 844.38 920.19 840.80 911.96 838.27 903.64 C 835.38 894.52 831.86 885.15 833.13 875.41 C 827.03 871.22 821.10 866.63 814.25 863.71 C 801.89 858.65 788.28 859.12 775.24 857.41 C 748.74 853.77 723.47 844.67 697.92 837.15 C 683.96 832.97 669.62 829.78 656.34 823.65 C 642.93 817.71 631.58 808.21 618.81 801.14 C 611.27 797.09 604.19 791.48 595.47 790.33 C 585.09 787.91 573.66 789.55 564.21 783.80 C 549.95 775.44 539.56 762.01 530.42 748.53 C 525.26 740.79 518.30 734.56 511.27 728.57 C 515.33 745.73 519.13 762.96 523.82 779.96 C 527.80 794.50 531.17 809.20 534.44 823.92 C 534.68 825.59 535.98 826.74 537.09 827.90 C 545.12 835.55 550.34 845.66 554.01 856.01 C 556.18 862.55 557.77 870.12 554.61 876.61 C 551.80 881.04 547.57 884.36 543.41 887.46 C 529.05 897.09 512.29 902.13 497.02 910.02 C 486.48 915.33 477.10 923.06 465.62 926.38 C 455.36 929.41 444.27 928.91 434.02 926.15 C 428.69 924.36 422.65 921.57 420.53 915.97 C 420.06 909.24 424.04 903.12 428.27 898.22 C 433.85 892.16 439.61 886.25 444.87 879.91 C 454.65 867.92 465.53 856.54 472.56 842.61 C 474.99 837.90 476.11 832.56 479.01 828.10 C 481.18 826.72 483.90 826.91 486.35 826.51 C 477.24 812.96 468.27 799.32 459.34 785.66 C 439.49 754.18 428.01 718.50 416.32 683.44 C 410.94 667.62 405.09 651.84 396.66 637.35 C 391.00 627.29 384.42 617.78 377.51 608.55 C 367.52 597.17 361.15 582.88 358.46 568.05 C 356.96 555.88 362.27 544.19 368.86 534.30 C 363.45 528.38 355.16 526.19 350.22 519.81 C 343.42 511.39 337.39 502.36 331.96 493.00 C 329.24 488.21 325.91 483.54 325.17 477.94 C 323.73 467.88 319.27 458.59 314.08 449.97 C 308.67 441.11 303.62 432.01 297.23 423.81 C 288.29 411.30 279.48 398.69 271.28 385.68 C 268.11 380.69 265.59 375.33 263.27 369.91 C 261.69 370.99 260.10 372.06 258.51 373.13 C 258.30 383.20 254.85 392.79 251.04 401.99 C 246.43 412.89 240.63 423.26 234.18 433.18 C 228.59 441.84 225.09 452.23 216.66 458.74 C 215.84 462.12 215.25 465.61 213.77 468.80 C 211.72 472.85 208.19 475.99 204.30 478.24 C 196.29 482.85 187.59 486.09 179.52 490.58 C 176.72 492.01 175.84 495.25 174.89 497.99 C 172.70 504.71 171.35 512.10 166.55 517.57 C 164.43 519.71 161.63 522.09 158.40 521.61 C 155.53 520.90 154.57 517.58 154.57 514.97 C 154.62 508.34 157.05 502.05 159.18 495.87 C 155.76 499.58 152.56 503.55 148.60 506.72 C 146.77 508.11 144.53 509.63 142.11 509.03 C 140.52 508.42 139.75 506.68 139.76 505.08 C 139.69 500.77 141.85 496.90 143.92 493.28 C 140.29 495.65 136.65 499.10 132.03 498.90 C 128.80 498.70 127.72 494.70 129.02 492.17 C 133.21 483.43 140.47 476.71 146.11 468.98 C 148.12 460.43 152.99 452.20 160.87 447.87 C 170.72 442.48 181.36 438.67 191.15 433.15 C 193.37 431.69 196.44 430.11 196.29 427.00 C 196.50 420.02 194.38 413.25 193.40 406.39 C 190.38 389.32 193.05 372.00 194.01 354.88 C 192.41 353.15 190.17 351.63 189.96 349.08 C 188.04 338.45 189.26 327.57 188.43 316.84 C 187.39 303.60 184.12 290.64 179.98 278.06 C 178.11 272.35 176.45 266.26 177.63 260.23 C 178.76 254.42 181.12 248.90 181.78 242.99 C 182.36 237.92 183.06 232.54 186.35 228.42 C 191.52 221.89 197.98 216.48 202.89 209.72 C 198.95 203.48 196.19 196.32 190.83 191.11 C 186.70 188.42 181.46 190.19 176.90 190.38 C 173.39 190.79 169.51 188.16 169.45 184.43 C 168.45 171.20 171.16 157.61 167.28 144.66 C 165.64 137.90 161.44 131.96 160.69 124.97 C 159.95 118.76 161.20 112.57 162.08 106.45 C 160.37 102.93 158.83 98.93 160.16 95.01 C 160.92 91.15 164.24 88.70 166.31 85.58 C 168.03 81.89 169.27 77.94 171.68 74.61 C 179.85 62.55 193.90 55.62 208.05 53.59 M 172.17 98.10 C 170.54 104.21 174.60 109.58 177.07 114.80 C 172.80 114.60 168.73 113.12 165.32 110.56 C 165.17 118.57 164.83 126.98 168.92 134.20 C 172.83 130.67 177.50 127.83 182.71 126.80 C 192.04 125.28 201.48 127.51 210.23 130.68 C 204.87 138.10 197.52 143.73 190.44 149.40 C 188.74 150.63 187.13 152.28 184.94 152.50 C 182.64 150.05 181.89 146.67 180.97 143.55 C 177.50 142.80 174.31 141.21 171.17 139.60 C 176.28 154.26 174.13 169.91 173.70 185.08 C 174.23 185.43 175.28 186.15 175.81 186.51 C 181.49 185.69 188.22 183.97 193.24 187.74 C 198.50 192.46 201.29 199.14 204.92 205.06 C 208.42 210.72 211.53 216.68 215.84 221.80 C 218.57 221.11 221.33 220.25 223.47 218.32 C 229.48 213.40 235.27 208.22 241.04 203.03 C 245.51 199.07 248.82 193.89 253.81 190.52 C 254.45 195.17 250.25 198.23 247.84 201.63 C 250.30 204.04 252.72 206.52 254.66 209.38 C 257.85 214.27 261.51 218.92 263.78 224.35 C 267.07 231.98 269.58 239.93 271.86 247.92 C 277.70 235.49 283.56 223.06 289.84 210.84 C 297.55 196.24 304.86 181.39 310.45 165.83 C 307.23 164.04 303.95 162.26 301.17 159.81 C 295.05 154.17 292.13 146.01 290.34 138.09 C 288.81 142.55 286.98 146.90 285.63 151.42 C 284.48 154.89 283.89 158.58 282.08 161.80 C 281.69 159.54 281.48 157.22 282.03 154.96 C 284.34 144.06 288.27 133.59 291.37 122.91 C 292.52 122.30 292.71 121.55 291.94 120.64 C 290.53 120.04 289.55 122.47 290.83 123.15 C 289.98 124.52 289.32 126.01 288.61 127.45 C 282.07 141.49 268.61 151.45 254.09 156.05 C 253.91 149.98 255.94 144.12 255.89 138.05 C 256.04 130.39 256.29 121.43 250.43 115.60 C 247.28 112.54 242.29 109.15 237.92 111.83 C 232.96 115.28 231.90 121.74 230.68 127.24 C 226.90 128.55 223.30 130.31 219.59 131.80 C 217.35 126.49 216.05 120.78 213.12 115.77 C 211.03 112.26 208.36 109.15 205.79 105.98 C 202.79 110.13 198.36 113.30 193.16 113.78 C 190.91 113.96 186.81 115.09 186.30 111.89 C 185.05 106.47 184.23 100.13 179.50 96.50 C 177.35 94.90 172.62 94.80 172.17 98.10 M 311.06 158.30 C 310.42 158.70 309.14 159.50 308.50 159.90 C 309.45 160.55 310.41 161.21 311.37 161.87 C 311.26 160.68 311.16 159.49 311.06 158.30 M 315.57 158.71 C 315.91 166.46 312.18 173.39 309.35 180.35 C 302.12 197.91 292.46 214.31 284.52 231.53 C 280.68 239.44 276.82 247.35 273.35 255.43 C 272.62 257.67 269.26 257.43 268.97 255.05 C 263.96 237.26 259.73 217.47 245.09 204.81 C 239.22 211.37 232.60 217.28 225.44 222.41 C 222.13 224.57 217.79 226.97 213.85 225.03 C 209.94 222.02 207.86 217.35 205.12 213.36 C 200.82 219.24 195.71 224.44 190.69 229.69 C 187.46 232.96 186.38 237.56 186.12 242.00 C 185.77 248.24 183.47 254.10 181.99 260.11 C 180.50 265.77 182.20 271.56 183.90 276.96 C 187.84 289.01 190.89 301.38 192.34 313.99 C 193.51 325.70 192.20 337.53 193.78 349.21 C 208.81 356.90 223.12 366.47 239.46 371.23 C 248.25 373.99 257.29 369.62 263.95 364.05 C 260.55 357.66 255.38 352.50 251.31 346.57 C 247.59 342.37 241.93 340.69 237.30 337.72 C 226.89 332.38 217.22 325.60 206.14 321.66 C 210.11 320.25 214.35 321.15 218.02 322.96 C 227.70 327.59 236.64 333.59 245.85 339.07 C 232.64 323.98 220.92 307.56 206.50 293.56 C 204.63 291.80 203.00 289.75 202.19 287.28 C 207.25 289.34 210.87 293.57 214.75 297.23 C 222.41 304.61 229.29 312.75 235.99 321.01 C 241.94 328.39 248.52 335.30 253.82 343.19 C 257.09 348.18 260.96 352.75 264.27 357.71 C 266.45 360.86 266.62 364.78 267.78 368.33 C 270.89 376.61 275.60 384.16 280.55 391.44 C 289.11 404.74 298.71 417.33 307.75 430.29 C 315.64 443.38 324.96 456.08 328.88 471.08 C 330.01 475.27 330.11 479.82 332.36 483.65 C 336.91 491.63 341.66 499.51 346.83 507.12 C 350.99 512.95 354.86 519.17 360.62 523.60 C 362.21 519.15 364.21 514.83 366.89 510.93 C 375.97 497.30 387.49 485.56 398.61 473.62 C 403.27 468.62 408.48 464.17 413.58 459.64 C 417.59 456.19 419.96 451.36 423.49 447.50 C 430.86 438.99 440.80 432.95 451.47 429.54 C 462.94 425.85 474.95 423.30 487.05 423.69 C 497.00 423.75 507.13 424.72 516.37 428.69 C 529.95 434.43 542.27 442.78 553.94 451.72 C 552.22 442.40 548.61 433.57 545.19 424.78 C 542.54 418.37 539.05 411.76 532.86 408.13 C 525.14 403.62 517.18 399.50 508.87 396.18 C 502.79 393.73 497.30 389.97 492.74 385.27 C 486.31 378.66 480.29 371.63 474.75 364.26 C 465.61 352.08 458.51 338.51 452.37 324.60 C 449.92 318.93 448.00 313.03 445.09 307.56 C 430.07 305.65 415.04 303.47 399.91 302.64 C 393.93 302.22 387.94 302.98 381.98 302.59 C 377.99 302.33 374.82 299.66 371.92 297.18 C 366.28 300.82 360.19 305.44 353.11 304.79 C 349.28 304.10 349.22 299.22 350.41 296.34 C 352.98 289.76 358.36 284.88 363.08 279.83 C 355.39 283.42 346.79 286.02 338.24 284.87 C 335.62 284.67 334.43 282.20 333.37 280.16 C 329.35 281.54 325.21 283.12 320.89 282.81 C 318.61 282.76 316.56 280.46 317.33 278.18 C 318.35 274.65 320.93 271.87 323.47 269.33 C 320.93 269.20 318.01 269.80 315.86 268.10 C 315.05 266.88 315.05 265.24 316.01 264.10 C 318.34 261.08 321.63 259.01 324.56 256.64 C 331.34 251.28 338.47 246.38 345.82 241.85 C 350.72 239.32 355.42 243.02 359.43 245.49 C 364.07 248.58 370.26 247.01 374.85 250.21 C 381.85 255.02 384.24 263.79 389.96 269.72 C 396.04 269.53 402.03 268.28 408.06 267.57 C 400.86 264.44 394.15 259.85 389.35 253.58 C 378.79 239.90 374.63 222.67 371.42 206.02 C 370.78 201.73 369.21 196.60 372.61 193.04 C 373.92 197.06 374.45 201.27 375.39 205.39 C 378.56 219.26 382.71 233.02 389.27 245.69 C 390.67 248.42 392.46 250.92 394.29 253.38 C 391.50 242.24 393.98 230.57 398.16 220.12 C 399.16 217.38 401.03 215.09 403.37 213.39 C 403.52 218.46 401.03 223.01 399.87 227.84 C 397.63 235.93 396.75 244.44 398.03 252.78 C 399.58 246.11 402.05 239.60 406.10 234.03 C 410.16 228.51 414.39 223.10 419.02 218.05 C 420.60 216.22 422.72 215.01 424.98 214.20 C 423.16 218.11 420.22 221.29 417.64 224.70 C 409.73 234.81 403.06 246.46 401.48 259.41 C 405.68 262.18 410.08 264.81 414.95 266.20 C 421.33 265.50 427.69 264.26 433.94 262.80 C 441.07 260.68 443.09 252.75 448.31 248.31 C 457.53 240.10 470.12 236.87 482.26 237.13 C 476.76 230.15 472.22 222.40 465.99 216.01 C 457.86 207.52 447.87 201.16 437.94 195.01 C 424.51 186.69 411.47 177.74 399.03 168.02 C 393.35 163.81 387.34 159.05 379.98 158.67 C 367.46 158.14 355.24 161.43 342.81 162.33 C 333.57 163.58 324.34 161.46 315.57 158.71 M 449.00 254.64 C 455.51 252.40 462.18 250.30 469.07 249.67 C 470.82 248.90 472.98 252.11 470.81 252.61 C 462.38 255.48 453.50 257.25 445.59 261.53 C 441.33 263.56 437.91 267.41 433.06 268.07 C 420.11 270.47 407.10 272.56 394.01 273.98 C 391.48 274.14 388.89 274.70 386.39 274.10 C 381.97 267.71 379.01 260.18 373.30 254.72 C 369.60 251.15 363.98 252.62 359.63 250.51 C 355.60 248.77 352.41 245.06 347.80 244.80 C 339.28 252.50 329.39 258.47 320.51 265.73 C 324.90 265.19 329.48 264.73 333.39 262.47 C 338.36 259.65 343.06 256.24 348.46 254.23 C 349.94 253.63 351.61 254.21 351.37 256.07 C 342.82 264.96 329.44 268.03 322.22 278.35 C 329.50 277.39 336.57 274.79 342.67 270.68 C 347.87 267.74 353.20 264.80 359.02 263.29 C 360.35 262.84 362.95 262.87 362.27 265.05 C 355.48 271.30 346.13 273.90 339.25 280.09 C 352.55 280.93 364.96 274.91 376.11 268.36 C 377.46 269.31 377.64 270.40 376.66 271.63 C 370.20 281.58 359.75 288.67 354.93 299.72 C 363.55 297.31 370.74 291.69 378.00 286.71 C 378.43 286.86 379.30 287.16 379.73 287.31 C 380.66 290.37 377.42 292.39 375.78 294.47 C 378.33 295.99 380.79 298.18 383.95 298.08 C 413.53 296.64 442.69 303.03 472.06 305.39 C 479.80 305.81 487.70 305.93 495.28 304.07 C 498.91 303.16 503.07 301.03 503.72 296.95 C 504.27 290.08 504.06 282.67 500.23 276.68 C 493.09 264.88 483.64 254.48 478.01 241.79 C 467.20 242.53 456.90 247.27 449.00 254.64 M 197.55 356.78 C 197.20 368.52 196.30 380.24 196.26 391.98 C 196.22 402.14 198.78 412.03 200.11 422.04 C 200.54 425.96 201.00 430.76 197.71 433.65 C 190.23 440.46 180.39 443.72 171.16 447.40 C 166.12 449.67 160.72 451.79 156.96 456.02 C 151.96 461.52 148.46 469.29 150.83 476.76 C 157.21 471.96 161.68 464.25 169.62 461.84 C 165.78 466.85 161.17 471.23 156.89 475.86 C 154.85 477.62 153.01 480.44 150.01 480.32 C 147.65 478.74 147.24 475.72 146.33 473.26 C 141.94 479.26 137.12 484.97 133.29 491.36 C 132.38 492.74 132.18 494.39 131.88 495.98 C 139.78 493.39 145.87 487.33 152.55 482.62 C 155.84 480.40 158.92 477.04 163.10 476.81 C 160.01 482.31 154.06 485.18 149.67 489.46 C 146.14 494.55 143.00 500.29 142.70 506.62 C 145.49 505.27 148.02 503.44 150.12 501.17 C 155.45 495.47 160.64 489.64 165.77 483.76 C 167.06 482.19 168.76 481.07 170.69 480.43 C 169.22 485.91 163.36 488.89 162.38 494.55 C 160.92 500.65 158.74 506.61 158.11 512.88 C 157.81 514.87 158.39 516.82 159.08 518.67 C 166.88 515.25 168.55 506.13 171.00 498.89 C 172.41 494.78 173.47 489.86 177.56 487.55 C 185.70 482.70 194.65 479.45 202.90 474.82 C 206.87 472.54 210.39 469.00 211.58 464.47 C 213.15 459.91 212.92 454.32 216.86 450.94 C 220.54 447.31 222.77 442.59 225.03 438.02 C 228.79 430.33 233.85 423.39 237.84 415.83 C 245.07 403.01 250.94 389.39 254.47 375.08 C 245.16 378.99 235.02 375.75 226.34 371.78 C 216.36 367.54 206.93 362.18 197.55 356.78 M 472.03 428.85 C 460.29 430.90 448.31 433.67 438.06 440.00 C 431.77 443.89 426.34 449.17 422.30 455.37 C 417.88 462.49 410.50 466.87 404.86 472.90 C 394.90 483.30 384.89 493.70 375.88 504.95 C 371.16 510.98 366.52 517.27 364.07 524.60 C 366.55 526.63 368.95 528.76 371.19 531.06 C 378.21 522.16 383.77 512.28 389.55 502.58 C 392.73 497.85 395.69 492.81 400.06 489.06 C 405.42 484.92 412.37 483.86 418.93 483.17 C 431.56 481.83 444.83 483.66 455.92 490.14 C 466.86 496.35 476.75 504.56 484.39 514.59 C 491.79 525.14 498.22 536.33 504.24 547.72 C 506.54 552.37 510.10 556.27 514.54 558.98 C 514.53 559.40 514.52 560.25 514.52 560.68 C 507.50 561.83 500.31 561.79 493.42 563.72 C 484.59 565.61 476.52 569.77 468.37 573.52 C 459.90 577.50 451.95 582.47 443.70 586.87 C 443.98 588.31 444.28 589.78 444.57 591.24 C 461.00 599.38 471.10 615.65 479.90 631.05 C 490.22 650.10 495.37 671.31 501.34 691.98 C 507.44 683.97 514.27 676.56 521.31 669.37 C 531.84 658.82 542.68 648.35 555.30 640.31 C 561.67 636.41 568.88 632.78 576.54 633.33 C 579.63 635.72 581.48 639.28 583.33 642.64 C 587.83 651.34 591.21 660.54 594.98 669.57 C 597.63 663.03 600.74 656.28 600.08 649.05 C 599.87 637.50 592.87 627.68 585.85 619.10 C 578.04 608.67 569.80 598.57 561.23 588.76 C 554.45 580.78 549.22 571.56 545.11 561.96 C 543.68 558.61 541.29 555.63 540.63 552.00 C 540.46 547.96 541.67 544.00 541.50 539.96 C 541.45 536.97 540.48 534.06 540.63 531.07 C 542.37 525.82 546.76 522.04 549.12 517.11 C 553.67 508.15 554.02 497.83 554.71 488.00 C 554.81 484.17 557.35 481.16 558.79 477.79 C 560.24 474.55 559.75 470.78 558.37 467.61 C 555.29 460.86 550.65 454.75 544.46 450.58 C 534.78 443.59 524.62 437.08 513.56 432.50 C 500.50 426.99 485.85 427.00 472.03 428.85 M 401.16 495.14 C 393.40 505.03 387.91 516.44 380.70 526.71 C 373.95 536.43 366.58 546.26 363.87 557.99 C 362.36 563.65 362.86 569.62 364.64 575.15 C 369.13 588.81 376.46 602.02 387.99 610.96 C 391.38 613.53 395.40 616.38 399.90 615.46 C 414.94 613.45 429.27 606.56 440.63 596.56 C 437.35 586.79 437.53 576.20 439.36 566.16 C 436.03 570.09 433.33 574.48 430.78 578.94 C 429.57 578.01 428.67 576.59 429.15 575.03 C 429.82 571.85 431.79 569.17 433.57 566.52 C 437.85 560.57 442.60 554.56 449.23 551.11 C 451.47 550.01 454.43 548.93 456.59 550.82 C 453.47 554.30 448.58 555.80 445.80 559.68 C 442.94 566.48 442.99 574.02 443.17 581.27 C 454.46 573.16 466.99 566.95 479.85 561.77 C 487.79 558.69 496.33 557.45 504.81 557.18 C 498.28 550.54 495.20 541.53 490.14 533.87 C 485.13 526.24 480.89 517.99 474.44 511.44 C 467.43 503.92 459.02 497.72 449.84 493.12 C 439.49 487.92 427.49 487.02 416.17 488.69 C 410.77 489.44 404.74 490.62 401.16 495.14 M 422.70 613.68 C 412.73 618.08 401.56 621.27 390.65 618.92 C 399.30 629.95 406.41 642.18 411.91 655.07 C 419.16 671.77 424.41 689.23 430.33 706.43 C 436.69 725.72 444.02 744.73 453.05 762.95 C 459.07 775.15 466.48 786.59 474.15 797.81 C 480.01 807.21 487.05 816.14 490.44 826.84 C 504.95 828.45 517.47 837.41 531.99 838.96 C 530.86 826.47 527.24 814.40 524.56 802.19 C 519.97 783.37 514.61 764.75 510.41 745.83 C 506.04 725.69 500.29 705.88 494.85 686.01 C 489.41 667.10 484.39 647.78 474.50 630.59 C 467.08 617.87 458.80 605.03 446.59 596.39 C 440.10 603.91 431.71 609.60 422.70 613.68 M 545.41 653.33 C 529.99 666.46 515.96 681.13 502.55 696.28 C 504.90 704.56 507.15 712.88 509.36 721.21 C 515.98 725.16 521.90 730.20 527.34 735.65 C 532.93 741.25 536.97 748.12 541.64 754.46 C 545.93 760.37 550.88 765.77 556.20 770.78 C 561.13 775.39 566.62 779.62 573.02 781.97 C 578.01 783.82 583.43 783.52 588.57 784.71 C 593.41 785.86 598.39 786.31 603.22 787.59 C 606.15 788.67 608.98 786.89 611.41 785.44 C 619.72 780.01 625.56 771.54 629.64 762.64 C 633.73 753.39 636.17 742.40 631.69 732.83 C 623.44 730.32 615.88 725.19 611.00 718.03 C 601.55 703.17 595.93 686.39 589.95 669.95 C 585.56 659.16 582.06 647.98 576.67 637.63 C 564.51 638.29 554.51 646.00 545.41 653.33 M 638.37 734.59 C 641.51 744.43 639.43 755.08 635.45 764.36 C 630.56 775.53 622.59 786.04 611.23 791.16 C 622.61 796.57 633.36 803.19 643.78 810.26 C 656.06 818.46 669.99 823.76 684.16 827.67 C 711.78 835.33 738.69 845.69 766.96 850.88 C 781.03 853.74 795.61 853.04 809.56 856.62 C 820.00 859.46 830.27 864.97 836.72 873.88 C 845.50 869.83 853.26 863.85 860.00 856.95 C 866.70 850.04 872.55 842.17 876.29 833.25 C 866.68 828.95 857.05 824.71 847.32 820.70 C 837.27 816.53 826.60 814.28 816.29 810.89 C 805.77 807.55 795.45 803.59 785.03 799.94 C 772.57 795.45 760.30 789.59 750.73 780.23 C 739.63 769.47 728.30 758.20 713.74 752.26 C 689.75 742.25 663.62 739.74 638.37 734.59 M 482.42 830.90 C 479.45 839.03 476.40 847.23 471.34 854.34 C 462.87 866.95 452.64 878.26 442.70 889.71 C 436.72 896.76 428.61 902.39 425.03 911.19 C 423.29 914.28 426.34 916.82 428.68 918.35 C 437.16 924.21 448.09 923.38 457.85 922.47 C 471.56 920.75 482.34 911.46 494.09 905.10 C 510.48 896.16 528.81 890.96 544.27 880.32 C 548.45 877.61 552.38 873.41 551.80 868.03 C 550.94 854.62 544.10 842.34 536.17 831.79 C 536.07 834.98 536.66 838.38 535.41 841.42 C 533.52 844.43 529.41 844.25 526.33 843.74 C 517.75 842.07 509.70 838.54 501.56 835.46 C 495.40 833.13 488.86 832.15 482.42 830.90 M 879.91 832.58 C 877.42 842.24 871.68 850.66 865.09 857.99 C 857.54 866.30 848.65 873.74 838.04 877.76 C 838.20 888.44 842.41 898.37 845.56 908.41 C 848.54 916.98 851.59 926.31 849.44 935.43 C 846.07 944.33 839.08 951.17 834.00 959.07 C 832.57 960.87 833.04 963.70 835.17 964.73 C 840.53 967.51 846.86 967.64 852.72 966.82 C 862.54 965.15 871.78 960.64 879.57 954.49 C 885.88 949.47 889.61 942.13 893.02 935.01 C 896.80 927.11 898.51 918.46 899.89 909.87 C 901.61 899.04 906.39 889.04 911.52 879.46 C 914.56 873.65 918.67 867.86 918.48 861.01 C 918.26 855.89 917.00 850.45 913.33 846.68 C 904.81 837.55 892.39 832.34 879.91 832.58 Z" />
		<path fill="#020202" opacity="1.00"
			d=" M 240.18 314.58 C 243.40 315.83 246.20 317.89 248.67 320.30 C 269.34 339.67 289.15 360.17 312.22 376.77 C 323.23 384.77 335.07 391.53 346.94 398.16 C 350.73 400.31 354.99 401.99 357.71 405.57 C 353.35 405.35 349.58 402.98 345.74 401.14 C 334.89 395.58 324.07 389.88 313.94 383.05 C 291.54 367.95 272.58 348.52 253.42 329.64 C 248.90 324.73 243.35 320.57 240.18 314.58 Z" />
		<path fill="#020202" opacity="1.00"
			d=" M 399.17 319.20 C 400.91 321.40 401.97 324.05 402.11 326.87 C 403.03 336.86 402.92 346.92 403.11 356.94 C 403.03 375.62 403.61 394.32 402.71 412.99 C 402.45 416.68 402.38 420.50 401.00 423.99 C 399.22 428.08 394.94 430.35 390.85 431.56 C 382.78 433.83 374.31 433.94 365.99 434.32 C 359.58 433.94 353.01 435.03 346.74 433.29 C 361.03 430.10 376.01 431.19 390.20 427.42 C 394.57 426.43 398.25 422.80 397.94 418.08 C 399.07 392.41 398.25 366.70 398.45 341.01 C 398.74 333.74 397.46 326.35 399.17 319.20 Z" />
		<path fill="#020202" opacity="1.00"
			d=" M 440.77 345.02 C 441.31 342.79 442.64 340.89 444.23 339.28 C 443.83 345.25 442.04 351.03 441.66 357.02 C 440.72 366.68 441.85 376.37 441.81 386.04 C 441.83 393.82 439.23 401.29 435.69 408.12 C 441.84 403.08 448.85 398.40 456.91 397.35 C 462.03 396.97 467.74 397.62 471.84 401.00 C 471.67 401.38 471.33 402.15 471.16 402.53 C 466.20 401.84 461.18 400.11 456.14 401.37 C 446.60 403.61 438.48 409.84 431.95 416.94 C 430.47 418.42 429.13 420.40 426.86 420.63 C 425.99 419.43 426.13 418.08 426.88 416.90 C 430.49 410.05 434.48 403.30 436.70 395.83 C 438.48 389.73 438.41 383.30 438.09 377.02 C 437.58 366.31 437.75 355.39 440.77 345.02 Z" />
		<path fill="#020202" opacity="1.00"
			d=" M 448.80 414.91 C 452.96 413.06 457.63 413.19 462.08 413.39 C 472.67 414.02 483.21 415.45 493.62 417.52 C 496.91 418.12 500.04 419.41 502.82 421.28 C 496.12 422.30 489.53 420.21 482.90 419.61 C 473.63 418.59 464.29 417.12 454.95 417.89 C 448.01 418.48 443.47 424.33 438.29 428.27 C 434.40 431.08 430.90 434.73 426.25 436.27 C 425.84 434.97 426.09 433.88 427.00 432.98 C 430.22 429.54 434.06 426.76 437.51 423.57 C 441.06 420.43 444.44 416.93 448.80 414.91 Z" />
		<path fill="#020202" opacity="1.00"
			d=" M 187.17 444.14 C 191.47 440.56 195.69 436.17 201.26 434.77 C 201.36 435.31 201.56 436.40 201.66 436.94 C 196.64 442.76 189.38 446.51 185.38 453.29 C 183.47 456.82 180.43 459.46 177.58 462.22 C 182.37 463.85 186.79 460.92 191.17 459.45 C 195.65 457.92 200.71 457.05 205.21 458.97 C 201.81 461.21 197.68 461.63 193.91 462.96 C 189.29 464.37 184.90 467.06 179.92 466.84 C 177.18 466.74 174.28 464.88 173.81 462.04 C 173.57 459.82 175.50 458.31 176.87 456.89 C 181.16 453.34 182.81 447.65 187.17 444.14 Z" />
	</g>
	<g id="#f0b58bff">
		<path fill="#f0b58b" opacity="1.00"
			d=" M 172.17 98.10 C 172.62 94.80 177.35 94.90 179.50 96.50 C 184.23 100.13 185.05 106.47 186.30 111.89 C 186.81 115.09 190.91 113.96 193.16 113.78 C 198.36 113.30 202.79 110.13 205.79 105.98 C 208.36 109.15 211.03 112.26 213.12 115.77 C 216.05 120.78 217.35 126.49 219.59 131.80 C 223.30 130.31 226.90 128.55 230.68 127.24 C 231.90 121.74 232.96 115.28 237.92 111.83 C 242.29 109.15 247.28 112.54 250.43 115.60 C 256.29 121.43 256.04 130.39 255.89 138.05 C 255.94 144.12 253.91 149.98 254.09 156.05 C 268.61 151.45 282.07 141.49 288.61 127.45 C 289.32 126.01 289.98 124.52 290.83 123.15 L 291.37 122.91 C 288.27 133.59 284.34 144.06 282.03 154.96 C 281.48 157.22 281.69 159.54 282.08 161.80 C 283.89 158.58 284.48 154.89 285.63 151.42 C 286.98 146.90 288.81 142.55 290.34 138.09 C 292.13 146.01 295.05 154.17 301.17 159.81 C 303.95 162.26 307.23 164.04 310.45 165.83 C 304.86 181.39 297.55 196.24 289.84 210.84 C 283.56 223.06 277.70 235.49 271.86 247.92 C 269.58 239.93 267.07 231.98 263.78 224.35 C 261.51 218.92 257.85 214.27 254.66 209.38 C 252.72 206.52 250.30 204.04 247.84 201.63 C 250.25 198.23 254.45 195.17 253.81 190.52 C 248.82 193.89 245.51 199.07 241.04 203.03 C 235.27 208.22 229.48 213.40 223.47 218.32 C 221.33 220.25 218.57 221.11 215.84 221.80 C 211.53 216.68 208.42 210.72 204.92 205.06 C 201.29 199.14 198.50 192.46 193.24 187.74 C 188.22 183.97 181.49 185.69 175.81 186.51 C 175.28 186.15 174.23 185.43 173.70 185.08 C 174.13 169.91 176.28 154.26 171.17 139.60 C 174.31 141.21 177.50 142.80 180.97 143.55 C 181.89 146.67 182.64 150.05 184.94 152.50 C 187.13 152.28 188.74 150.63 190.44 149.40 C 197.52 143.73 204.87 138.10 210.23 130.68 C 201.48 127.51 192.04 125.28 182.71 126.80 C 177.50 127.83 172.83 130.67 168.92 134.20 C 164.83 126.98 165.17 118.57 165.32 110.56 C 168.73 113.12 172.80 114.60 177.07 114.80 C 174.60 109.58 170.54 104.21 172.17 98.10 Z" />
		<path fill="#f0b58b" opacity="1.00"
			d=" M 449.00 254.64 C 456.90 247.27 467.20 242.53 478.01 241.79 C 483.64 254.48 493.09 264.88 500.23 276.68 C 504.06 282.67 504.27 290.08 503.72 296.95 C 503.07 301.03 498.91 303.16 495.28 304.07 C 487.70 305.93 479.80 305.81 472.06 305.39 C 442.69 303.03 413.53 296.64 383.95 298.08 C 380.79 298.18 378.33 295.99 375.78 294.47 C 377.42 292.39 380.66 290.37 379.73 287.31 C 379.30 287.16 378.43 286.86 378.00 286.71 C 370.74 291.69 363.55 297.31 354.93 299.72 C 359.75 288.67 370.20 281.58 376.66 271.63 C 377.64 270.40 377.46 269.31 376.11 268.36 C 364.96 274.91 352.55 280.93 339.25 280.09 C 346.13 273.90 355.48 271.30 362.27 265.05 C 362.95 262.87 360.35 262.84 359.02 263.29 C 353.20 264.80 347.87 267.74 342.67 270.68 C 336.57 274.79 329.50 277.39 322.22 278.35 C 329.44 268.03 342.82 264.96 351.37 256.07 C 351.61 254.21 349.94 253.63 348.46 254.23 C 343.06 256.24 338.36 259.65 333.39 262.47 C 329.48 264.73 324.90 265.19 320.51 265.73 C 329.39 258.47 339.28 252.50 347.80 244.80 C 352.41 245.06 355.60 248.77 359.63 250.51 C 363.98 252.62 369.60 251.15 373.30 254.72 C 379.01 260.18 381.97 267.71 386.39 274.10 C 388.89 274.70 391.48 274.14 394.01 273.98 C 407.10 272.56 420.11 270.47 433.06 268.07 C 437.91 267.41 441.33 263.56 445.59 261.53 C 453.50 257.25 462.38 255.48 470.81 252.61 C 472.98 252.11 470.82 248.90 469.07 249.67 C 462.18 250.30 455.51 252.40 449.00 254.64 Z" />
		<path fill="#f0b58b" opacity="1.00"
			d=" M 197.55 356.78 C 206.93 362.18 216.36 367.54 226.34 371.78 C 235.02 375.75 245.16 378.99 254.47 375.08 C 250.94 389.39 245.07 403.01 237.84 415.83 C 233.85 423.39 228.79 430.33 225.03 438.02 C 222.77 442.59 220.54 447.31 216.86 450.94 C 212.92 454.32 213.15 459.91 211.58 464.47 C 210.39 469.00 206.87 472.54 202.90 474.82 C 194.65 479.45 185.70 482.70 177.56 487.55 C 173.47 489.86 172.41 494.78 171.00 498.89 C 168.55 506.13 166.88 515.25 159.08 518.67 C 158.39 516.82 157.81 514.87 158.11 512.88 C 158.74 506.61 160.92 500.65 162.38 494.55 C 163.36 488.89 169.22 485.91 170.69 480.43 C 168.76 481.07 167.06 482.19 165.77 483.76 C 160.64 489.64 155.45 495.47 150.12 501.17 C 148.02 503.44 145.49 505.27 142.70 506.62 C 143.00 500.29 146.14 494.55 149.67 489.46 C 154.06 485.18 160.01 482.31 163.10 476.81 C 158.92 477.04 155.84 480.40 152.55 482.62 C 145.87 487.33 139.78 493.39 131.88 495.98 C 132.18 494.39 132.38 492.74 133.29 491.36 C 137.12 484.97 141.94 479.26 146.33 473.26 C 147.24 475.72 147.65 478.74 150.01 480.32 C 153.01 480.44 154.85 477.62 156.89 475.86 C 161.17 471.23 165.78 466.85 169.62 461.84 C 161.68 464.25 157.21 471.96 150.83 476.76 C 148.46 469.29 151.96 461.52 156.96 456.02 C 160.72 451.79 166.12 449.67 171.16 447.40 C 180.39 443.72 190.23 440.46 197.71 433.65 C 201.00 430.76 200.54 425.96 200.11 422.04 C 198.78 412.03 196.22 402.14 196.26 391.98 C 196.30 380.24 197.20 368.52 197.55 356.78 M 187.17 444.14 C 182.81 447.65 181.16 453.34 176.87 456.89 C 175.50 458.31 173.57 459.82 173.81 462.04 C 174.28 464.88 177.18 466.74 179.92 466.84 C 184.90 467.06 189.29 464.37 193.91 462.96 C 197.68 461.63 201.81 461.21 205.21 458.97 C 200.71 457.05 195.65 457.92 191.17 459.45 C 186.79 460.92 182.37 463.85 177.58 462.22 C 180.43 459.46 183.47 456.82 185.38 453.29 C 189.38 446.51 196.64 442.76 201.66 436.94 C 201.56 436.40 201.36 435.31 201.26 434.77 C 195.69 436.17 191.47 440.56 187.17 444.14 Z" />
		<path fill="#f0b58b" opacity="1.00"
			d=" M 401.16 495.14 C 404.74 490.62 410.77 489.44 416.17 488.69 C 427.49 487.02 439.49 487.92 449.84 493.12 C 459.02 497.72 467.43 503.92 474.44 511.44 C 480.89 517.99 485.13 526.24 490.14 533.87 C 495.20 541.53 498.28 550.54 504.81 557.18 C 496.33 557.45 487.79 558.69 479.85 561.77 C 466.99 566.95 454.46 573.16 443.17 581.27 C 442.99 574.02 442.94 566.48 445.80 559.68 C 448.58 555.80 453.47 554.30 456.59 550.82 C 454.43 548.93 451.47 550.01 449.23 551.11 C 442.60 554.56 437.85 560.57 433.57 566.52 C 431.79 569.17 429.82 571.85 429.15 575.03 C 428.67 576.59 429.57 578.01 430.78 578.94 C 433.33 574.48 436.03 570.09 439.36 566.16 C 437.53 576.20 437.35 586.79 440.63 596.56 C 429.27 606.56 414.94 613.45 399.90 615.46 C 395.40 616.38 391.38 613.53 387.99 610.96 C 376.46 602.02 369.13 588.81 364.64 575.15 C 362.86 569.62 362.36 563.65 363.87 557.99 C 366.58 546.26 373.95 536.43 380.70 526.71 C 387.91 516.44 393.40 505.03 401.16 495.14 Z" />
		<path fill="#f0b58b" opacity="1.00"
			d=" M 545.41 653.33 C 554.51 646.00 564.51 638.29 576.67 637.63 C 582.06 647.98 585.56 659.16 589.95 669.95 C 595.93 686.39 601.55 703.17 611.00 718.03 C 615.88 725.19 623.44 730.32 631.69 732.83 C 636.17 742.40 633.73 753.39 629.64 762.64 C 625.56 771.54 619.72 780.01 611.41 785.44 C 608.98 786.89 606.15 788.67 603.22 787.59 C 598.39 786.31 593.41 785.86 588.57 784.71 C 583.43 783.52 578.01 783.82 573.02 781.97 C 566.62 779.62 561.13 775.39 556.20 770.78 C 550.88 765.77 545.93 760.37 541.64 754.46 C 536.97 748.12 532.93 741.25 527.34 735.65 C 521.90 730.20 515.98 725.16 509.36 721.21 C 507.15 712.88 504.90 704.56 502.55 696.28 C 515.96 681.13 529.99 666.46 545.41 653.33 Z" />
	</g>
	<g id="#f11b27ff">
		<path fill="var(--shirt-color, grey)" opacity="1.00"
			d=" M 311.06 158.30 C 311.16 159.49 311.26 160.68 311.37 161.87 C 310.41 161.21 309.45 160.55 308.50 159.90 C 309.14 159.50 310.42 158.70 311.06 158.30 Z" />
		<path fill="var(--shirt-color, grey)" opacity="1.00"
			d=" M 315.57 158.71 C 324.34 161.46 333.57 163.58 342.81 162.33 C 355.24 161.43 367.46 158.14 379.98 158.67 C 387.34 159.05 393.35 163.81 399.03 168.02 C 411.47 177.74 424.51 186.69 437.94 195.01 C 447.87 201.16 457.86 207.52 465.99 216.01 C 472.22 222.40 476.76 230.15 482.26 237.13 C 470.12 236.87 457.53 240.10 448.31 248.31 C 443.09 252.75 441.07 260.68 433.94 262.80 C 427.69 264.26 421.33 265.50 414.95 266.20 C 410.08 264.81 405.68 262.18 401.48 259.41 C 403.06 246.46 409.73 234.81 417.64 224.70 C 420.22 221.29 423.16 218.11 424.98 214.20 C 422.72 215.01 420.60 216.22 419.02 218.05 C 414.39 223.10 410.16 228.51 406.10 234.03 C 402.05 239.60 399.58 246.11 398.03 252.78 C 396.75 244.44 397.63 235.93 399.87 227.84 C 401.03 223.01 403.52 218.46 403.37 213.39 C 401.03 215.09 399.16 217.38 398.16 220.12 C 393.98 230.57 391.50 242.24 394.29 253.38 C 392.46 250.92 390.67 248.42 389.27 245.69 C 382.71 233.02 378.56 219.26 375.39 205.39 C 374.45 201.27 373.92 197.06 372.61 193.04 C 369.21 196.60 370.78 201.73 371.42 206.02 C 374.63 222.67 378.79 239.90 389.35 253.58 C 394.15 259.85 400.86 264.44 408.06 267.57 C 402.03 268.28 396.04 269.53 389.96 269.72 C 384.24 263.79 381.85 255.02 374.85 250.21 C 370.26 247.01 364.07 248.58 359.43 245.49 C 355.42 243.02 350.72 239.32 345.82 241.85 C 338.47 246.38 331.34 251.28 324.56 256.64 C 321.63 259.01 318.34 261.08 316.01 264.10 C 315.05 265.24 315.05 266.88 315.86 268.10 C 318.01 269.80 320.93 269.20 323.47 269.33 C 320.93 271.87 318.35 274.65 317.33 278.18 C 316.56 280.46 318.61 282.76 320.89 282.81 C 325.21 283.12 329.35 281.54 333.37 280.16 C 334.43 282.20 335.62 284.67 338.24 284.87 C 346.79 286.02 355.39 283.42 363.08 279.83 C 358.36 284.88 352.98 289.76 350.41 296.34 C 349.22 299.22 349.28 304.10 353.11 304.79 C 360.19 305.44 366.28 300.82 371.92 297.18 C 374.82 299.66 377.99 302.33 381.98 302.59 C 387.94 302.98 393.93 302.22 399.91 302.64 C 415.04 303.47 430.07 305.65 445.09 307.56 C 448.00 313.03 449.92 318.93 452.37 324.60 C 458.51 338.51 465.61 352.08 474.75 364.26 C 480.29 371.63 486.31 378.66 492.74 385.27 C 497.30 389.97 502.79 393.73 508.87 396.18 C 517.18 399.50 525.14 403.62 532.86 408.13 C 539.05 411.76 542.54 418.37 545.19 424.78 C 548.61 433.57 552.22 442.40 553.94 451.72 C 542.27 442.78 529.95 434.43 516.37 428.69 C 507.13 424.72 497.00 423.75 487.05 423.69 C 474.95 423.30 462.94 425.85 451.47 429.54 C 440.80 432.95 430.86 438.99 423.49 447.50 C 419.96 451.36 417.59 456.19 413.58 459.64 C 408.48 464.17 403.27 468.62 398.61 473.62 C 387.49 485.56 375.97 497.30 366.89 510.93 C 364.21 514.83 362.21 519.15 360.62 523.60 C 354.86 519.17 350.99 512.95 346.83 507.12 C 341.66 499.51 336.91 491.63 332.36 483.65 C 330.11 479.82 330.01 475.27 328.88 471.08 C 324.96 456.08 315.64 443.38 307.75 430.29 C 298.71 417.33 289.11 404.74 280.55 391.44 C 275.60 384.16 270.89 376.61 267.78 368.33 C 266.62 364.78 266.45 360.86 264.27 357.71 C 260.96 352.75 257.09 348.18 253.82 343.19 C 248.52 335.30 241.94 328.39 235.99 321.01 C 229.29 312.75 222.41 304.61 214.75 297.23 C 210.87 293.57 207.25 289.34 202.19 287.28 C 203.00 289.75 204.63 291.80 206.50 293.56 C 220.92 307.56 232.64 323.98 245.85 339.07 C 236.64 333.59 227.70 327.59 218.02 322.96 C 214.35 321.15 210.11 320.25 206.14 321.66 C 217.22 325.60 226.89 332.38 237.30 337.72 C 241.93 340.69 247.59 342.37 251.31 346.57 C 255.38 352.50 260.55 357.66 263.95 364.05 C 257.29 369.62 248.25 373.99 239.46 371.23 C 223.12 366.47 208.81 356.90 193.78 349.21 C 192.20 337.53 193.51 325.70 192.34 313.99 C 190.89 301.38 187.84 289.01 183.90 276.96 C 182.20 271.56 180.50 265.77 181.99 260.11 C 183.47 254.10 185.77 248.24 186.12 242.00 C 186.38 237.56 187.46 232.96 190.69 229.69 C 195.71 224.44 200.82 219.24 205.12 213.36 C 207.86 217.35 209.94 222.02 213.85 225.03 C 217.79 226.97 222.13 224.57 225.44 222.41 C 232.60 217.28 239.22 211.37 245.09 204.81 C 259.73 217.47 263.96 237.26 268.97 255.05 C 269.26 257.43 272.62 257.67 273.35 255.43 C 276.82 247.35 280.68 239.44 284.52 231.53 C 292.46 214.31 302.12 197.91 309.35 180.35 C 312.18 173.39 315.91 166.46 315.57 158.71 M 240.18 314.58 C 243.35 320.57 248.90 324.73 253.42 329.64 C 272.58 348.52 291.54 367.95 313.94 383.05 C 324.07 389.88 334.89 395.58 345.74 401.14 C 349.58 402.98 353.35 405.35 357.71 405.57 C 354.99 401.99 350.73 400.31 346.94 398.16 C 335.07 391.53 323.23 384.77 312.22 376.77 C 289.15 360.17 269.34 339.67 248.67 320.30 C 246.20 317.89 243.40 315.83 240.18 314.58 M 399.17 319.20 C 397.46 326.35 398.74 333.74 398.45 341.01 C 398.25 366.70 399.07 392.41 397.94 418.08 C 398.25 422.80 394.57 426.43 390.20 427.42 C 376.01 431.19 361.03 430.10 346.74 433.29 C 353.01 435.03 359.58 433.94 365.99 434.32 C 374.31 433.94 382.78 433.83 390.85 431.56 C 394.94 430.35 399.22 428.08 401.00 423.99 C 402.38 420.50 402.45 416.68 402.71 412.99 C 403.61 394.32 403.03 375.62 403.11 356.94 C 402.92 346.92 403.03 336.86 402.11 326.87 C 401.97 324.05 400.91 321.40 399.17 319.20 M 440.77 345.02 C 437.75 355.39 437.58 366.31 438.09 377.02 C 438.41 383.30 438.48 389.73 436.70 395.83 C 434.48 403.30 430.49 410.05 426.88 416.90 C 426.13 418.08 425.99 419.43 426.86 420.63 C 429.13 420.40 430.47 418.42 431.95 416.94 C 438.48 409.84 446.60 403.61 456.14 401.37 C 461.18 400.11 466.20 401.84 471.16 402.53 C 471.33 402.15 471.67 401.38 471.84 401.00 C 467.74 397.62 462.03 396.97 456.91 397.35 C 448.85 398.40 441.84 403.08 435.69 408.12 C 439.23 401.29 441.83 393.82 441.81 386.04 C 441.85 376.37 440.72 366.68 441.66 357.02 C 442.04 351.03 443.83 345.25 444.23 339.28 C 442.64 340.89 441.31 342.79 440.77 345.02 M 448.80 414.91 C 444.44 416.93 441.06 420.43 437.51 423.57 C 434.06 426.76 430.22 429.54 427.00 432.98 C 426.09 433.88 425.84 434.97 426.25 436.27 C 430.90 434.73 434.40 431.08 438.29 428.27 C 443.47 424.33 448.01 418.48 454.95 417.89 C 464.29 417.12 473.63 418.59 482.90 419.61 C 489.53 420.21 496.12 422.30 502.82 421.28 C 500.04 419.41 496.91 418.12 493.62 417.52 C 483.21 415.45 472.67 414.02 462.08 413.39 C 457.63 413.19 452.96 413.06 448.80 414.91 Z" />
	</g>
	<g id="#2b3dcdff">
		<path fill="var(--pants-color, grey)" opacity="1.00"
			d=" M 472.03 428.85 C 485.85 427.00 500.50 426.99 513.56 432.50 C 524.62 437.08 534.78 443.59 544.46 450.58 C 550.65 454.75 555.29 460.86 558.37 467.61 C 559.75 470.78 560.24 474.55 558.79 477.79 C 557.35 481.16 554.81 484.17 554.71 488.00 C 554.02 497.83 553.67 508.15 549.12 517.11 C 546.76 522.04 542.37 525.82 540.63 531.07 C 540.48 534.06 541.45 536.97 541.50 539.96 C 541.67 544.00 540.46 547.96 540.63 552.00 C 541.29 555.63 543.68 558.61 545.11 561.96 C 549.22 571.56 554.45 580.78 561.23 588.76 C 569.80 598.57 578.04 608.67 585.85 619.10 C 592.87 627.68 599.87 637.50 600.08 649.05 C 600.74 656.28 597.63 663.03 594.98 669.57 C 591.21 660.54 587.83 651.34 583.33 642.64 C 581.48 639.28 579.63 635.72 576.54 633.33 C 568.88 632.78 561.67 636.41 555.30 640.31 C 542.68 648.35 531.84 658.82 521.31 669.37 C 514.27 676.56 507.44 683.97 501.34 691.98 C 495.37 671.31 490.22 650.10 479.90 631.05 C 471.10 615.65 461.00 599.38 444.57 591.24 C 444.28 589.78 443.98 588.31 443.70 586.87 C 451.95 582.47 459.90 577.50 468.37 573.52 C 476.52 569.77 484.59 565.61 493.42 563.72 C 500.31 561.79 507.50 561.83 514.52 560.68 C 514.52 560.25 514.53 559.40 514.54 558.98 C 510.10 556.27 506.54 552.37 504.24 547.72 C 498.22 536.33 491.79 525.14 484.39 514.59 C 476.75 504.56 466.86 496.35 455.92 490.14 C 444.83 483.66 431.56 481.83 418.93 483.17 C 412.37 483.86 405.42 484.92 400.06 489.06 C 395.69 492.81 392.73 497.85 389.55 502.58 C 383.77 512.28 378.21 522.16 371.19 531.06 C 368.95 528.76 366.55 526.63 364.07 524.60 C 366.52 517.27 371.16 510.98 375.88 504.95 C 384.89 493.70 394.90 483.30 404.86 472.90 C 410.50 466.87 417.88 462.49 422.30 455.37 C 426.34 449.17 431.77 443.89 438.06 440.00 C 448.31 433.67 460.29 430.90 472.03 428.85 Z" />
		<path fill="var(--socks-color, grey)" opacity="1.00"
			d=" M 422.70 613.68 C 431.71 609.60 440.10 603.91 446.59 596.39 C 458.80 605.03 467.08 617.87 474.50 630.59 C 484.39 647.78 489.41 667.10 494.85 686.01 C 500.29 705.88 506.04 725.69 510.41 745.83 C 514.61 764.75 519.97 783.37 524.56 802.19 C 527.24 814.40 530.86 826.47 531.99 838.96 C 517.47 837.41 504.95 828.45 490.44 826.84 C 487.05 816.14 480.01 807.21 474.15 797.81 C 466.48 786.59 459.07 775.15 453.05 762.95 C 444.02 744.73 436.69 725.72 430.33 706.43 C 424.41 689.23 419.16 671.77 411.91 655.07 C 406.41 642.18 399.30 629.95 390.65 618.92 C 401.56 621.27 412.73 618.08 422.70 613.68 Z" />
		<path fill="var(--socks-color, grey)" opacity="1.00"
			d=" M 638.37 734.59 C 663.62 739.74 689.75 742.25 713.74 752.26 C 728.30 758.20 739.63 769.47 750.73 780.23 C 760.30 789.59 772.57 795.45 785.03 799.94 C 795.45 803.59 805.77 807.55 816.29 810.89 C 826.60 814.28 837.27 816.53 847.32 820.70 C 857.05 824.71 866.68 828.95 876.29 833.25 C 872.55 842.17 866.70 850.04 860.00 856.95 C 853.26 863.85 845.50 869.83 836.72 873.88 C 830.27 864.97 820.00 859.46 809.56 856.62 C 795.61 853.04 781.03 853.74 766.96 850.88 C 738.69 845.69 711.78 835.33 684.16 827.67 C 669.99 823.76 656.06 818.46 643.78 810.26 C 633.36 803.19 622.61 796.57 611.23 791.16 C 622.59 786.04 630.56 775.53 635.45 764.36 C 639.43 755.08 641.51 744.43 638.37 734.59 Z" />
	</g>
	<g id="#4d4d4dff">
		<path fill="#4d4d4d" opacity="1.00"
			d=" M 482.42 830.90 C 488.86 832.15 495.40 833.13 501.56 835.46 C 509.70 838.54 517.75 842.07 526.33 843.74 C 529.41 844.25 533.52 844.43 535.41 841.42 C 536.66 838.38 536.07 834.98 536.17 831.79 C 544.10 842.34 550.94 854.62 551.80 868.03 C 552.38 873.41 548.45 877.61 544.27 880.32 C 528.81 890.96 510.48 896.16 494.09 905.10 C 482.34 911.46 471.56 920.75 457.85 922.47 C 448.09 923.38 437.16 924.21 428.68 918.35 C 426.34 916.82 423.29 914.28 425.03 911.19 C 428.61 902.39 436.72 896.76 442.70 889.71 C 452.64 878.26 462.87 866.95 471.34 854.34 C 476.40 847.23 479.45 839.03 482.42 830.90 Z" />
		<path fill="#4d4d4d" opacity="1.00"
			d=" M 879.91 832.58 C 892.39 832.34 904.81 837.55 913.33 846.68 C 917.00 850.45 918.26 855.89 918.48 861.01 C 918.67 867.86 914.56 873.65 911.52 879.46 C 906.39 889.04 901.61 899.04 899.89 909.87 C 898.51 918.46 896.80 927.11 893.02 935.01 C 889.61 942.13 885.88 949.47 879.57 954.49 C 871.78 960.64 862.54 965.15 852.72 966.82 C 846.86 967.64 840.53 967.51 835.17 964.73 C 833.04 963.70 832.57 960.87 834.00 959.07 C 839.08 951.17 846.07 944.33 849.44 935.43 C 851.59 926.31 848.54 916.98 845.56 908.41 C 842.41 898.37 838.20 888.44 838.04 877.76 C 848.65 873.74 857.54 866.30 865.09 857.99 C 871.68 850.66 877.42 842.24 879.91 832.58 Z" />
	</g>
</svg>