<?xml version="1.0" encoding="UTF-8" ?>
<!DOCTYPE svg PUBLIC "-//W3C//DTD SVG 1.1//EN" "http://www.w3.org/Graphics/SVG/1.1/DTD/svg11.dtd">
<svg width="1000pt" height="1000pt" viewBox="0 0 1000 1000" version="1.1" xmlns="http://www.w3.org/2000/svg">
	<g id="#020202ff">
		<path fill="#020202" opacity="1.00"
			d=" M 606.14 13.36 C 615.51 9.70 625.96 10.07 635.57 12.59 C 644.44 15.37 654.07 14.53 662.69 18.27 C 675.00 22.34 684.31 32.39 690.60 43.38 C 696.98 54.46 697.43 67.57 697.76 80.02 C 697.98 91.57 697.79 103.77 692.28 114.25 C 690.66 117.57 688.08 120.41 686.80 123.88 C 686.96 127.37 687.90 130.75 688.64 134.15 C 695.42 137.60 701.85 141.68 708.30 145.70 C 711.47 147.82 714.93 149.71 717.39 152.70 C 720.28 156.44 719.84 161.66 722.36 165.55 C 725.98 168.67 730.37 170.76 734.05 173.84 C 747.55 183.54 758.42 196.31 769.03 208.99 C 778.47 221.41 788.63 234.20 792.15 249.75 C 794.82 262.01 796.40 274.50 797.14 287.02 C 798.27 299.36 799.44 311.70 801.01 323.99 C 802.09 331.63 803.17 339.32 802.91 347.05 C 802.86 349.64 801.72 352.00 800.76 354.34 C 802.69 364.11 803.15 374.07 804.47 383.92 C 805.30 391.98 806.67 399.99 807.05 408.09 C 807.28 412.14 805.56 416.06 802.85 419.00 C 796.88 425.48 789.42 430.28 782.15 435.14 C 771.62 442.29 760.83 449.07 750.55 456.57 C 746.52 459.72 741.46 463.33 741.63 469.06 C 741.52 480.81 743.31 493.01 739.20 504.34 C 738.14 507.13 735.18 508.39 732.57 509.33 C 724.99 511.82 717.01 512.70 709.11 513.54 C 706.38 513.70 703.15 514.12 700.98 512.06 C 697.91 509.12 695.25 505.80 692.34 502.71 C 690.41 503.72 688.28 505.39 686.01 504.27 C 682.62 502.64 681.29 498.54 680.91 495.06 C 680.74 488.92 683.52 483.25 685.81 477.71 C 689.05 470.54 691.42 463.01 695.05 456.03 C 697.54 451.14 699.86 445.80 704.45 442.48 C 709.55 438.78 716.31 437.51 720.44 432.45 C 725.99 425.84 730.15 418.19 735.17 411.18 C 740.96 401.82 746.79 391.36 745.92 379.96 C 745.76 373.78 744.06 367.77 741.82 362.05 C 740.22 356.48 734.50 353.96 731.20 349.59 C 733.91 362.16 733.66 375.65 728.51 387.58 C 723.70 399.10 716.42 409.33 709.96 419.94 C 701.34 434.64 692.69 449.31 683.99 463.96 C 679.97 471.10 675.82 478.22 670.67 484.62 C 666.32 490.29 661.16 495.45 657.92 501.89 C 656.12 505.38 656.78 509.43 658.04 512.98 C 659.77 517.74 659.73 523.43 656.71 527.68 C 652.67 533.37 645.88 536.14 641.46 541.48 C 635.80 547.33 634.44 555.67 630.70 562.62 C 627.03 567.58 620.11 565.92 614.89 565.40 C 608.97 570.32 602.34 574.36 596.83 579.78 C 590.12 586.38 581.75 591.70 577.36 600.30 C 574.76 605.37 571.96 610.89 566.71 613.67 C 559.12 617.57 550.19 618.91 543.46 624.42 C 536.70 630.55 532.54 638.84 527.10 646.04 C 521.40 653.94 514.42 660.78 507.74 667.84 C 506.86 668.97 504.81 669.47 504.38 667.68 C 501.91 661.87 500.74 655.59 498.67 649.63 C 491.92 655.17 484.92 660.55 479.37 667.36 C 473.28 673.93 468.37 681.75 460.87 686.89 C 454.69 691.46 447.42 694.12 440.45 697.22 C 437.20 709.63 440.26 723.06 447.35 733.55 C 455.42 740.60 463.47 748.13 468.18 757.94 C 474.39 771.29 479.93 784.96 485.40 798.63 C 491.11 814.36 497.25 829.96 501.91 846.04 C 506.24 862.73 511.14 879.27 516.29 895.73 C 518.58 902.95 521.90 909.79 525.53 916.42 C 529.26 923.47 535.43 928.80 539.22 935.82 C 544.97 946.14 550.01 957.05 552.58 968.63 C 553.29 973.71 554.24 979.23 552.16 984.12 C 551.12 986.59 548.24 987.11 545.88 987.50 C 532.27 989.39 518.50 989.43 504.85 990.84 C 489.27 992.46 473.58 991.64 457.96 992.66 C 445.31 993.38 432.62 992.35 419.98 993.29 C 410.97 993.69 401.97 992.62 392.96 992.80 C 388.89 992.77 383.85 992.37 381.54 988.47 C 379.16 984.82 380.84 980.33 382.82 976.94 C 385.76 971.71 391.28 968.73 396.63 966.50 C 410.68 961.01 425.66 958.32 439.64 952.61 C 452.11 947.94 462.77 939.43 471.98 929.99 C 466.07 915.86 458.59 902.43 450.83 889.25 C 441.35 872.86 428.07 859.18 417.74 843.38 C 407.14 827.30 396.15 811.32 388.29 793.66 C 383.45 782.25 378.13 770.87 376.01 758.56 C 360.55 769.32 344.00 778.37 327.69 787.76 C 319.59 792.37 311.98 797.81 304.95 803.93 C 310.70 812.22 309.10 823.18 304.58 831.63 C 300.06 839.75 293.70 846.86 286.02 852.11 C 279.51 856.48 271.58 857.59 264.04 859.00 C 254.73 860.71 245.83 864.15 237.37 868.34 C 228.11 872.09 217.57 873.99 207.79 871.13 C 199.11 868.22 190.57 861.69 189.27 852.05 C 188.92 844.70 190.08 836.74 194.77 830.80 C 197.78 826.85 201.57 823.59 204.92 819.94 C 212.14 812.08 218.69 803.64 225.62 795.52 C 232.22 787.23 241.45 781.74 250.33 776.23 C 254.28 773.57 259.19 773.52 263.73 774.24 C 283.05 757.01 297.24 735.18 312.75 714.69 C 319.32 706.10 326.16 697.49 335.03 691.15 C 344.16 684.07 355.13 680.12 365.30 674.86 C 365.22 671.66 365.05 668.46 364.79 665.28 C 359.33 665.31 353.82 666.18 348.39 665.50 C 345.76 664.78 347.64 661.63 347.97 659.89 C 355.23 640.38 361.54 620.54 367.41 600.58 C 370.80 590.62 372.48 580.18 376.26 570.35 C 380.08 558.77 386.64 548.40 393.36 538.32 C 398.40 531.24 404.12 524.44 407.11 516.16 C 410.25 507.39 414.43 498.96 416.51 489.84 C 417.55 485.56 416.44 481.15 417.16 476.84 C 417.92 471.75 419.31 466.60 422.40 462.40 C 425.56 458.13 427.96 453.23 429.12 448.04 C 429.37 430.27 431.07 411.99 438.57 395.63 C 442.23 387.40 447.14 379.76 453.12 373.04 C 456.25 369.76 457.48 365.31 458.14 360.94 C 460.64 345.63 462.65 330.02 468.56 315.55 C 472.52 305.69 476.92 295.86 483.49 287.43 C 486.62 283.63 487.28 278.64 488.14 273.96 C 490.05 261.83 492.71 249.84 495.31 237.84 C 492.28 238.76 489.27 239.85 486.68 241.69 C 485.00 242.67 483.26 244.37 481.16 243.64 C 474.57 241.82 468.38 238.82 462.10 236.17 C 453.52 239.56 444.72 242.40 436.36 246.32 C 422.79 252.52 408.48 258.92 399.08 271.04 C 401.18 279.52 401.92 288.27 401.80 296.99 C 401.70 310.66 402.21 324.33 402.98 337.99 C 403.75 350.02 404.97 362.11 408.16 373.77 C 410.69 382.56 418.09 388.52 424.65 394.35 C 426.99 396.12 426.64 399.34 426.85 401.94 C 426.96 412.96 427.35 424.30 423.91 434.93 C 422.37 439.50 419.36 444.61 414.05 445.13 C 410.14 445.74 407.37 442.52 405.24 439.77 C 402.83 440.26 400.24 441.11 397.83 440.16 C 395.97 439.47 395.04 437.59 393.85 436.15 C 391.48 437.13 388.93 438.51 386.31 437.64 C 383.47 437.02 381.79 434.53 380.26 432.30 C 377.00 433.71 372.69 433.88 370.68 430.41 C 366.90 424.04 368.75 416.13 369.16 409.13 C 365.30 404.23 361.92 398.78 360.75 392.56 C 359.49 386.35 359.42 378.68 364.66 374.19 C 360.51 366.32 356.54 358.37 352.63 350.39 C 346.92 338.69 343.15 325.99 342.03 313.01 C 340.83 301.31 341.82 289.54 343.34 277.92 C 345.39 262.89 348.12 247.83 353.63 233.64 C 355.63 228.98 359.57 225.57 363.30 222.29 C 377.55 210.24 393.08 199.83 408.67 189.62 C 413.75 186.29 418.59 182.51 424.22 180.10 C 423.89 178.77 423.53 177.46 423.35 176.12 C 424.80 174.53 426.75 173.52 428.60 172.45 C 435.88 168.51 443.02 164.32 450.17 160.15 C 461.01 153.82 472.48 148.64 483.22 142.14 C 490.00 138.01 495.73 132.24 503.01 128.92 C 514.12 124.45 526.15 122.90 538.06 122.80 C 553.04 121.84 568.46 122.19 582.83 117.21 C 583.20 104.79 581.57 92.45 580.45 80.11 C 580.20 75.59 577.44 71.74 576.86 67.28 C 574.69 53.95 578.58 40.05 586.03 28.94 C 590.92 21.83 597.83 15.99 606.14 13.36 M 611.47 67.54 C 607.50 71.61 602.54 75.40 596.59 75.49 C 598.24 68.85 599.53 62.05 599.53 55.19 C 595.38 59.15 590.41 62.22 586.62 66.54 C 581.77 72.51 584.43 80.60 585.18 87.45 C 589.34 86.79 594.12 86.51 597.53 89.45 C 602.31 93.28 602.22 99.96 602.84 105.51 C 603.57 111.57 602.31 117.59 601.23 123.53 C 600.38 122.41 598.98 121.62 599.11 120.03 C 598.53 113.78 599.33 107.48 598.63 101.23 C 594.69 100.89 590.74 100.72 586.80 100.55 C 587.24 106.70 587.51 112.86 587.49 119.04 C 587.25 128.25 590.26 137.11 593.26 145.69 C 596.24 153.74 599.08 161.94 603.72 169.21 C 607.57 175.49 611.83 181.75 617.82 186.17 C 619.81 187.58 622.45 188.98 624.89 187.82 C 632.36 184.51 638.49 178.91 644.46 173.46 C 650.83 167.42 657.16 161.13 661.54 153.44 C 663.72 149.57 666.53 145.71 666.68 141.10 C 666.89 136.57 665.36 132.23 664.77 127.78 C 664.22 124.87 664.20 121.80 662.98 119.07 C 659.27 111.83 658.19 103.68 656.09 95.91 C 643.85 94.82 631.48 95.79 619.48 98.38 C 614.74 99.90 613.67 93.02 614.71 89.85 C 618.22 88.14 622.16 87.68 625.97 86.98 C 635.60 85.60 645.25 84.26 654.97 83.67 C 655.38 78.40 656.79 73.29 658.85 68.43 C 656.32 70.51 654.08 72.89 651.88 75.31 C 652.76 68.77 655.29 62.63 656.54 56.18 C 648.46 59.93 645.34 69.25 637.74 73.62 C 637.76 70.38 638.15 67.14 637.98 63.90 C 637.71 59.90 634.92 56.47 631.58 54.47 C 630.07 56.91 629.54 59.80 628.17 62.32 C 626.19 66.47 623.09 69.97 619.50 72.81 C 618.49 66.45 621.31 60.10 619.93 53.70 C 616.99 58.25 615.29 63.59 611.47 67.54 M 670.64 93.58 C 664.69 103.27 667.22 115.24 668.75 125.80 C 669.47 132.98 672.51 140.54 669.45 147.57 C 665.10 156.63 659.28 165.00 652.12 172.07 C 644.65 179.58 636.77 186.95 627.27 191.83 C 632.03 201.69 635.11 212.31 637.27 223.01 C 652.79 212.69 666.89 200.26 679.25 186.31 C 683.99 180.62 689.08 174.90 691.72 167.87 C 693.21 164.40 692.27 160.62 690.71 157.36 C 686.43 148.14 684.17 138.16 682.65 128.16 C 681.88 128.36 680.35 128.74 679.58 128.94 C 676.54 123.51 675.67 116.83 676.84 110.75 C 678.90 104.32 683.87 97.38 680.51 90.53 C 677.60 86.74 672.48 90.50 670.64 93.58 M 567.96 124.97 C 555.68 126.55 543.28 126.81 530.93 127.41 C 521.73 127.84 512.44 129.37 503.92 132.98 C 499.02 135.46 494.51 138.71 490.34 142.26 C 482.37 150.52 476.88 160.74 469.66 169.59 C 466.36 173.64 463.10 177.74 459.37 181.40 C 457.94 182.96 455.92 183.66 453.95 184.22 C 454.82 180.25 457.92 177.48 460.34 174.42 C 467.44 165.88 473.44 156.48 480.65 148.03 C 472.47 152.86 464.01 157.16 455.72 161.80 C 446.65 167.02 437.50 172.14 427.98 176.52 C 430.42 182.72 432.63 189.01 434.48 195.42 C 437.03 203.56 439.30 212.27 445.32 218.65 C 449.02 222.39 452.94 226.14 457.87 228.21 C 465.83 231.72 473.72 235.41 481.90 238.39 C 486.08 235.12 491.24 233.49 496.54 233.47 C 488.13 223.40 485.12 209.89 485.78 197.02 C 486.32 190.12 487.48 182.79 491.88 177.20 C 491.56 179.86 491.03 182.49 490.50 185.11 C 487.41 199.38 490.91 214.24 497.08 227.21 C 498.23 220.84 500.02 214.62 501.59 208.35 C 503.66 200.18 507.24 192.53 510.78 184.92 C 511.93 182.41 513.47 180.10 515.29 178.01 C 515.69 186.72 510.44 194.20 508.09 202.29 C 504.93 212.97 501.49 223.69 500.46 234.83 C 498.28 247.11 495.28 259.24 493.39 271.58 C 492.75 275.41 492.19 279.26 491.22 283.03 C 489.81 288.65 485.47 292.80 482.75 297.77 C 474.83 311.94 469.22 327.40 466.56 343.43 C 464.78 351.59 464.29 360.00 462.06 368.06 C 460.50 373.83 455.77 377.83 452.38 382.51 C 445.78 391.32 441.33 401.55 438.17 412.05 C 435.18 421.92 434.24 432.25 432.88 442.43 C 441.07 431.83 451.30 423.03 462.08 415.17 C 467.03 411.69 472.23 408.22 478.29 407.06 C 476.20 409.10 473.91 410.91 471.49 412.53 C 464.60 417.17 458.52 422.87 452.18 428.22 C 443.99 435.82 435.22 443.84 431.79 454.84 C 430.64 458.64 428.49 461.99 426.13 465.14 C 422.26 470.36 421.54 477.06 421.18 483.34 C 435.40 476.85 451.60 475.58 466.86 478.52 C 478.12 480.23 488.57 485.40 499.97 486.39 C 515.75 487.78 531.61 488.14 547.44 488.86 C 561.84 489.67 576.84 490.49 589.92 497.18 C 599.24 502.02 606.73 509.63 613.55 517.48 C 621.61 526.62 628.01 537.35 631.57 549.03 C 634.24 541.89 639.21 535.78 645.38 531.35 C 649.17 528.41 654.05 525.32 654.38 520.02 C 654.94 513.79 650.45 508.68 645.81 505.17 C 637.31 499.11 626.81 497.10 617.63 492.41 C 615.65 491.57 614.58 489.71 613.86 487.81 C 618.58 489.07 623.11 490.96 627.80 492.33 C 636.81 495.02 646.27 498.13 652.90 505.16 C 654.72 496.29 661.62 489.92 666.91 483.01 C 674.43 474.05 679.39 463.38 685.51 453.50 C 694.80 438.07 703.27 422.16 713.04 407.03 C 719.87 395.89 727.13 384.27 728.33 370.94 C 729.78 358.81 725.60 347.05 725.07 335.02 C 724.67 328.15 723.86 321.15 725.61 314.39 C 727.53 306.82 730.65 299.64 733.25 292.29 C 735.26 287.21 736.78 281.84 739.99 277.33 C 740.01 282.52 737.78 287.27 736.27 292.13 C 732.49 303.72 728.06 315.54 728.75 327.95 C 729.09 332.08 728.17 336.73 730.63 340.36 C 735.08 347.73 741.65 353.51 748.65 358.38 C 752.51 361.13 757.39 361.61 762.00 361.49 C 771.93 361.15 782.32 361.02 791.42 356.50 C 794.85 354.48 798.30 351.27 798.49 347.03 C 798.71 341.40 798.03 335.79 797.38 330.21 C 795.32 315.84 793.93 301.39 792.63 286.94 C 791.93 275.13 790.48 263.36 788.06 251.79 C 784.85 236.38 774.83 223.69 765.40 211.55 C 754.84 199.51 744.42 187.04 731.27 177.70 C 727.50 174.68 723.10 172.58 719.43 169.46 C 714.59 165.03 716.72 156.78 711.13 152.90 C 704.21 147.51 696.56 143.18 689.30 138.27 C 690.53 145.37 693.99 151.73 696.77 158.29 C 699.73 165.46 695.72 172.96 691.78 178.85 C 682.64 191.51 671.04 202.15 659.10 212.12 C 652.59 216.98 646.44 222.37 639.41 226.49 C 637.93 227.26 636.20 228.52 634.53 227.50 C 632.80 224.39 632.82 220.68 631.80 217.33 C 629.42 209.16 627.50 200.77 623.60 193.14 C 619.62 192.51 615.81 190.91 612.87 188.10 C 602.83 179.12 596.17 166.94 591.61 154.40 C 587.56 143.73 583.31 132.85 582.74 121.32 C 577.97 123.10 573.01 124.35 567.96 124.97 M 366.42 225.38 C 362.17 229.15 357.75 233.19 355.79 238.69 C 351.64 250.25 349.71 262.43 347.83 274.52 C 346.20 286.54 344.92 298.73 346.16 310.85 C 347.42 324.86 351.67 338.49 357.91 351.06 C 361.70 359.24 366.21 367.17 368.69 375.89 C 366.99 377.11 365.09 378.44 364.86 380.71 C 362.92 389.40 366.65 398.31 372.07 405.00 C 374.97 408.06 373.30 412.30 373.21 415.97 C 373.11 419.48 372.78 423.10 373.63 426.55 C 374.12 427.50 374.68 429.12 376.03 428.93 C 377.80 428.43 379.39 427.48 381.14 426.92 C 384.32 427.45 384.14 432.10 387.16 433.09 C 390.34 434.38 392.36 430.58 395.05 429.56 C 397.67 430.57 397.54 433.90 399.07 435.91 C 400.55 436.46 402.09 435.57 403.57 435.30 C 403.69 434.39 403.93 432.56 404.05 431.64 C 408.26 433.06 408.23 439.39 412.95 440.26 C 417.04 439.66 418.44 435.17 419.59 431.80 C 422.52 420.74 422.73 409.16 422.29 397.79 C 415.19 391.47 407.16 385.13 404.09 375.75 C 400.22 363.20 399.04 350.03 398.37 336.97 C 397.74 324.01 397.39 311.03 397.63 298.05 C 397.81 289.22 397.46 280.26 395.13 271.69 C 393.38 265.34 391.30 259.09 389.01 252.93 C 388.09 250.48 387.39 247.90 387.64 245.25 C 393.36 251.12 395.35 259.49 397.95 267.03 C 404.45 258.22 414.15 252.68 423.72 247.80 C 434.63 242.43 445.93 237.87 457.46 234.04 C 450.28 230.95 443.83 226.05 438.91 220.00 C 431.42 208.93 430.37 195.14 425.53 182.92 C 405.69 196.87 384.78 209.43 366.42 225.38 M 770.99 365.94 C 762.82 366.32 754.01 367.16 746.59 363.00 C 750.00 370.62 751.07 379.07 750.65 387.37 C 758.39 384.36 766.42 380.21 774.99 381.77 C 778.32 382.33 782.77 382.71 783.89 386.62 C 779.96 385.87 775.96 384.76 771.94 385.42 C 766.51 386.25 761.54 388.69 756.40 390.46 C 753.97 391.46 751.05 392.05 749.48 394.36 C 747.61 397.07 746.58 400.22 745.15 403.16 C 741.22 411.77 735.06 419.05 730.02 427.00 C 726.58 432.09 723.25 437.74 717.67 440.76 C 712.98 443.66 706.99 444.96 703.75 449.79 C 696.99 460.73 692.94 473.01 687.57 484.64 C 685.40 489.58 683.27 495.96 687.30 500.57 C 689.15 501.53 690.50 499.17 689.68 497.59 C 688.23 492.54 688.59 487.18 689.84 482.15 C 692.07 479.64 695.80 480.23 698.81 480.30 C 699.35 477.29 700.07 472.70 703.80 472.21 C 706.93 472.84 707.42 476.79 708.52 479.30 C 709.46 481.67 710.34 486.03 706.82 486.60 C 702.19 486.44 697.96 483.91 693.27 484.03 C 692.84 487.90 691.88 491.92 693.19 495.74 C 694.15 499.87 697.61 502.61 700.14 505.78 C 701.79 507.48 703.21 510.30 706.01 509.94 C 714.91 509.41 723.99 508.41 732.44 505.42 C 736.58 504.22 736.59 499.33 737.38 495.89 C 739.08 486.65 737.20 477.30 737.47 468.01 C 737.49 462.10 742.22 457.86 746.46 454.42 C 755.31 447.49 764.93 441.63 774.11 435.15 C 781.36 430.04 789.21 425.71 795.88 419.81 C 798.87 416.80 802.48 413.55 802.63 408.99 C 802.70 401.98 801.60 395.02 800.98 388.04 C 799.77 377.81 799.05 367.54 798.09 357.29 C 790.71 363.77 780.47 365.40 770.99 365.94 M 702.34 481.61 C 703.12 481.84 704.68 482.30 705.46 482.53 C 704.83 480.60 704.22 478.68 703.59 476.77 C 703.16 478.38 702.75 479.99 702.34 481.61 M 420.64 487.41 C 419.53 494.08 417.31 500.50 414.71 506.73 C 411.96 513.29 410.04 520.26 406.35 526.40 C 399.63 537.29 391.38 547.20 385.47 558.58 C 377.92 572.59 375.51 588.48 370.54 603.43 C 364.70 623.04 358.56 642.62 350.64 661.51 C 360.52 660.01 370.60 659.06 380.53 660.67 C 383.13 660.73 386.09 661.98 388.46 660.46 C 391.18 655.91 391.07 650.39 392.62 645.43 C 395.00 636.88 400.56 629.78 406.05 623.00 C 412.35 615.04 419.67 607.94 427.40 601.38 C 434.40 595.20 442.57 589.54 446.05 580.47 C 448.90 580.98 450.79 583.30 452.68 585.28 C 458.50 591.81 465.40 597.25 472.03 602.93 C 483.28 612.48 494.02 623.60 499.20 637.70 C 502.28 646.04 504.67 654.63 507.02 663.20 C 511.84 657.31 516.93 651.62 521.32 645.39 C 527.35 637.10 532.14 627.73 539.89 620.84 C 546.71 614.92 555.95 613.53 563.96 609.89 C 569.24 607.51 571.44 601.80 574.14 597.10 C 578.29 589.52 585.48 584.46 591.66 578.69 C 596.02 574.65 600.47 570.70 605.36 567.31 C 613.74 561.51 620.45 553.50 625.53 544.73 C 619.48 530.45 609.48 518.23 598.10 507.85 C 592.25 502.86 585.74 497.96 577.97 496.67 C 559.80 492.33 541.00 493.09 522.49 492.12 C 508.99 491.39 495.19 491.37 482.29 486.84 C 470.33 483.00 457.70 480.65 445.11 481.62 C 436.70 482.18 428.49 484.42 420.64 487.41 M 617.74 562.30 C 620.49 561.92 623.41 562.06 626.02 561.00 C 629.70 558.37 627.70 553.29 627.37 549.62 C 624.63 554.18 621.21 558.28 617.74 562.30 M 447.85 585.71 C 444.38 593.46 437.07 598.33 431.01 603.90 C 423.07 610.65 415.61 618.02 409.23 626.28 C 403.76 633.04 398.36 640.35 396.65 649.07 C 395.82 653.58 395.05 658.15 393.12 662.37 C 411.58 664.46 428.47 677.10 435.79 694.16 C 442.54 689.86 450.41 687.66 456.97 683.03 C 464.62 678.14 469.79 670.51 475.79 663.89 C 481.89 656.49 489.71 650.84 497.44 645.28 C 494.78 636.30 490.59 627.71 484.23 620.76 C 473.48 607.64 457.99 599.39 447.85 585.71 M 369.97 665.14 C 370.34 667.38 370.65 669.63 370.94 671.89 C 374.17 670.06 377.27 668.02 380.32 665.90 C 376.87 665.61 373.42 665.39 369.97 665.14 M 383.00 669.03 C 367.20 681.38 346.49 685.80 331.74 699.70 C 320.35 710.55 311.87 723.96 302.33 736.37 C 292.33 750.88 280.80 764.47 267.14 775.66 C 270.93 778.36 275.36 779.75 279.65 781.40 C 285.76 784.50 284.97 793.13 290.36 796.89 C 294.43 798.15 298.74 798.85 302.41 801.19 C 315.78 786.76 334.20 778.96 350.64 768.77 C 366.73 759.51 382.19 749.18 396.95 737.92 C 403.57 732.59 409.55 726.54 415.56 720.55 C 421.88 713.94 428.09 707.09 432.69 699.14 C 425.19 682.05 408.99 668.11 389.99 666.47 C 387.31 665.95 385.00 667.46 383.00 669.03 M 421.48 720.52 C 414.50 727.88 407.31 735.09 399.48 741.56 C 393.16 746.41 386.72 751.13 380.15 755.66 C 381.23 758.36 382.03 761.17 382.65 764.02 C 396.20 763.16 409.34 759.04 421.70 753.56 C 430.38 749.58 438.94 744.86 445.70 737.99 C 436.36 728.86 432.91 714.64 435.46 702.02 C 431.99 708.99 426.59 714.72 421.48 720.52 M 429.41 755.51 C 415.24 762.82 399.69 767.84 383.72 768.83 C 385.89 775.84 389.02 782.49 391.80 789.27 C 398.59 805.26 408.20 819.82 418.06 834.04 C 426.11 846.41 435.22 858.04 444.44 869.55 C 453.07 880.99 460.34 893.40 466.74 906.21 C 470.05 913.15 473.62 920.07 475.29 927.63 C 487.45 928.41 496.55 937.38 507.67 941.17 C 512.56 942.75 518.97 942.82 522.54 938.55 C 524.49 934.55 525.69 930.22 527.39 926.10 C 523.75 921.39 520.46 916.41 517.85 911.05 C 512.49 900.91 509.94 889.66 506.44 878.83 C 500.95 861.63 497.49 843.80 490.87 826.97 C 484.32 808.01 477.11 789.29 469.14 770.89 C 466.92 765.85 465.03 760.63 462.06 755.96 C 458.58 750.03 453.48 745.34 448.74 740.44 C 443.66 747.00 436.67 751.69 429.41 755.51 M 252.15 780.16 C 244.71 784.41 237.33 789.12 231.60 795.59 C 223.97 804.31 217.06 813.62 209.22 822.16 C 205.76 826.03 201.76 829.39 198.49 833.44 C 194.30 838.57 193.27 845.61 193.97 852.03 C 194.44 856.86 198.20 860.41 202.03 862.94 C 206.48 865.75 211.54 868.29 216.97 867.84 C 224.64 867.31 232.40 865.75 239.26 862.16 C 247.33 858.02 256.16 855.56 265.07 854.06 C 272.03 852.90 279.27 851.45 285.02 847.09 C 292.04 841.71 298.10 834.81 301.77 826.71 C 304.09 820.60 305.69 813.07 301.72 807.28 C 299.25 803.19 294.20 802.23 289.85 801.57 C 280.56 800.35 270.68 800.05 261.96 804.00 C 250.63 809.06 242.12 818.60 231.07 824.14 C 224.61 827.50 217.28 828.61 210.13 829.37 C 210.88 828.09 211.60 826.53 213.14 826.08 C 217.86 824.43 222.91 823.74 227.41 821.46 C 237.56 816.81 245.03 808.16 254.60 802.59 C 263.30 797.15 273.83 795.63 283.93 796.48 C 282.04 792.89 281.24 788.57 278.46 785.54 C 274.78 783.79 270.67 783.04 267.20 780.82 C 262.75 777.95 256.78 777.40 252.15 780.16 M 523.51 943.43 C 518.92 947.02 512.56 947.24 507.13 945.73 C 496.23 942.66 487.60 934.30 476.31 932.26 C 471.54 938.19 465.51 942.87 459.52 947.49 C 445.04 958.73 426.58 961.87 409.62 967.55 C 403.38 969.71 396.92 971.62 391.37 975.29 C 387.93 977.53 385.02 981.36 385.25 985.64 C 386.64 987.91 389.62 987.90 391.97 988.09 C 398.30 988.19 404.63 988.48 410.95 988.80 C 417.96 989.17 424.96 988.27 431.98 988.59 C 441.97 989.01 451.98 988.70 461.96 988.18 C 471.32 987.67 480.69 988.08 490.06 987.74 C 500.38 987.37 510.62 985.85 520.95 985.50 C 528.36 985.14 535.79 985.05 543.17 984.23 C 545.30 983.87 548.48 983.69 548.71 980.92 C 549.84 974.48 548.29 967.92 546.27 961.82 C 542.29 950.36 536.84 939.39 529.95 929.40 C 528.24 934.18 527.98 940.21 523.51 943.43 Z" />
		<path fill="#020202" opacity="1.00"
			d=" M 598.82 124.42 C 602.70 128.30 607.98 130.38 611.72 134.34 C 608.13 134.65 604.31 134.46 601.00 132.93 C 598.10 131.16 598.38 127.33 598.82 124.42 Z" />
		<path fill="#020202" opacity="1.00"
			d=" M 606.90 149.27 C 616.26 148.60 625.65 147.73 635.03 147.78 C 637.52 150.18 633.89 151.44 631.83 151.69 C 630.59 153.15 629.19 154.81 627.07 154.65 C 621.39 154.79 615.73 155.80 610.06 155.47 C 608.13 155.57 606.86 154.14 605.65 152.88 C 604.45 152.39 603.00 152.30 602.13 151.24 C 602.75 149.19 605.27 149.69 606.90 149.27 Z" />
		<path fill="#020202" opacity="1.00"
			d=" M 709.55 315.60 C 712.48 312.98 715.41 310.19 719.24 308.95 C 710.07 321.49 697.40 330.91 684.82 339.79 C 666.78 352.85 648.99 366.33 629.93 377.91 C 615.38 386.73 599.65 393.48 583.46 398.63 C 574.34 401.58 564.97 403.69 555.84 406.63 C 548.73 409.02 541.72 411.71 534.90 414.81 C 530.41 416.80 526.27 419.54 521.55 420.99 C 525.20 415.87 531.19 413.42 536.63 410.70 C 550.54 404.43 564.90 399.19 579.35 394.30 C 597.00 388.24 614.43 381.15 630.33 371.29 C 645.38 361.87 660.02 351.81 674.47 341.49 C 686.37 333.15 698.84 325.51 709.55 315.60 Z" />
		<path fill="#020202" opacity="1.00"
			d=" M 490.19 431.41 C 498.51 428.52 506.15 423.90 514.59 421.36 C 513.51 423.57 512.01 425.62 509.78 426.77 C 500.10 432.24 489.85 436.69 479.29 440.16 C 472.52 442.44 465.50 444.06 458.99 447.06 C 454.45 449.11 450.86 452.63 447.45 456.16 C 472.17 451.84 497.20 456.14 521.99 457.39 C 546.33 458.34 570.71 458.14 595.03 459.43 C 601.78 459.94 608.59 458.44 615.29 459.76 C 610.64 461.11 605.77 461.22 601.04 462.09 C 588.15 464.49 575.01 463.14 562.01 462.96 C 544.64 462.71 527.23 462.97 509.91 461.43 C 491.65 459.78 473.26 457.82 454.92 459.43 C 450.53 459.65 446.44 461.64 442.06 461.80 C 439.75 461.35 439.73 458.39 440.80 456.78 C 445.15 449.14 452.72 443.65 460.98 440.88 C 470.65 437.53 480.65 435.17 490.19 431.41 Z" />
		<path fill="#020202" opacity="1.00"
			d=" M 644.90 431.47 C 648.42 430.67 651.89 429.62 655.48 429.12 C 652.33 431.88 648.37 433.39 644.32 434.26 C 623.26 439.06 601.46 439.48 579.99 438.04 C 566.03 437.14 552.00 436.11 538.07 437.86 C 538.00 437.39 537.86 436.45 537.80 435.98 C 540.56 434.42 543.78 434.14 546.88 433.79 C 558.57 432.65 570.32 433.73 582.02 434.26 C 602.99 435.35 624.24 435.78 644.90 431.47 Z" />
	</g>
	<g id="#f0b58bff">
		<path fill="#f0b58b" opacity="1.00"
			d=" M 611.47 67.54 C 615.29 63.59 616.99 58.25 619.93 53.70 C 621.31 60.10 618.49 66.45 619.50 72.81 C 623.09 69.97 626.19 66.47 628.17 62.32 C 629.54 59.80 630.07 56.91 631.58 54.47 C 634.92 56.47 637.71 59.90 637.98 63.90 C 638.15 67.14 637.76 70.38 637.74 73.62 C 645.34 69.25 648.46 59.93 656.54 56.18 C 655.29 62.63 652.76 68.77 651.88 75.31 C 654.08 72.89 656.32 70.51 658.85 68.43 C 656.79 73.29 655.38 78.40 654.97 83.67 C 645.25 84.26 635.60 85.60 625.97 86.98 C 622.16 87.68 618.22 88.14 614.71 89.85 C 613.67 93.02 614.74 99.90 619.48 98.38 C 631.48 95.79 643.85 94.82 656.09 95.91 C 658.19 103.68 659.27 111.83 662.98 119.07 C 664.20 121.80 664.22 124.87 664.77 127.78 C 665.36 132.23 666.89 136.57 666.68 141.10 C 666.53 145.71 663.72 149.57 661.54 153.44 C 657.16 161.13 650.83 167.42 644.46 173.46 C 638.49 178.91 632.36 184.51 624.89 187.82 C 622.45 188.98 619.81 187.58 617.82 186.17 C 611.83 181.75 607.57 175.49 603.72 169.21 C 599.08 161.94 596.24 153.74 593.26 145.69 C 590.26 137.11 587.25 128.25 587.49 119.04 C 587.51 112.86 587.24 106.70 586.80 100.55 C 590.74 100.72 594.69 100.89 598.63 101.23 C 599.33 107.48 598.53 113.78 599.11 120.03 C 598.98 121.62 600.38 122.41 601.23 123.53 C 602.31 117.59 603.57 111.57 602.84 105.51 C 602.22 99.96 602.31 93.28 597.53 89.45 C 594.12 86.51 589.34 86.79 585.18 87.45 C 584.43 80.60 581.77 72.51 586.62 66.54 C 590.41 62.22 595.38 59.15 599.53 55.19 C 599.53 62.05 598.24 68.85 596.59 75.49 C 602.54 75.40 607.50 71.61 611.47 67.54 M 598.82 124.42 C 598.38 127.33 598.10 131.16 601.00 132.93 C 604.31 134.46 608.13 134.65 611.72 134.34 C 607.98 130.38 602.70 128.30 598.82 124.42 M 606.90 149.27 C 605.27 149.69 602.75 149.19 602.13 151.24 C 603.00 152.30 604.45 152.39 605.65 152.88 C 606.86 154.14 608.13 155.57 610.06 155.47 C 615.73 155.80 621.39 154.79 627.07 154.65 C 629.19 154.81 630.59 153.15 631.83 151.69 C 633.89 151.44 637.52 150.18 635.03 147.78 C 625.65 147.73 616.26 148.60 606.90 149.27 Z" />
		<path fill="#f0b58b" opacity="1.00"
			d=" M 670.64 93.58 C 672.48 90.50 677.60 86.74 680.51 90.53 C 683.87 97.38 678.90 104.32 676.84 110.75 C 675.67 116.83 676.54 123.51 679.58 128.94 C 680.35 128.74 681.88 128.36 682.65 128.16 C 684.17 138.16 686.43 148.14 690.71 157.36 C 692.27 160.62 693.21 164.40 691.72 167.87 C 689.08 174.90 683.99 180.62 679.25 186.31 C 666.89 200.26 652.79 212.69 637.27 223.01 C 635.11 212.31 632.03 201.69 627.27 191.83 C 636.77 186.95 644.65 179.58 652.12 172.07 C 659.28 165.00 665.10 156.63 669.45 147.57 C 672.51 140.54 669.47 132.98 668.75 125.80 C 667.22 115.24 664.69 103.27 670.64 93.58 Z" />
		<path fill="#f0b58b" opacity="1.00"
			d=" M 366.42 225.38 C 384.78 209.43 405.69 196.87 425.53 182.92 C 430.37 195.14 431.42 208.93 438.91 220.00 C 443.83 226.05 450.28 230.95 457.46 234.04 C 445.93 237.87 434.63 242.43 423.72 247.80 C 414.15 252.68 404.45 258.22 397.95 267.03 C 395.35 259.49 393.36 251.12 387.64 245.25 C 387.39 247.90 388.09 250.48 389.01 252.93 C 391.30 259.09 393.38 265.34 395.13 271.69 C 397.46 280.26 397.81 289.22 397.63 298.05 C 397.39 311.03 397.74 324.01 398.37 336.97 C 399.04 350.03 400.22 363.20 404.09 375.75 C 407.16 385.13 415.19 391.47 422.29 397.79 C 422.73 409.16 422.52 420.74 419.59 431.80 C 418.44 435.17 417.04 439.66 412.95 440.26 C 408.23 439.39 408.26 433.06 404.05 431.64 C 403.93 432.56 403.69 434.39 403.57 435.30 C 402.09 435.57 400.55 436.46 399.07 435.91 C 397.54 433.90 397.67 430.57 395.05 429.56 C 392.36 430.58 390.34 434.38 387.16 433.09 C 384.14 432.10 384.32 427.45 381.14 426.92 C 379.39 427.48 377.80 428.43 376.03 428.93 C 374.68 429.12 374.12 427.50 373.63 426.55 C 372.78 423.10 373.11 419.48 373.21 415.97 C 373.30 412.30 374.97 408.06 372.07 405.00 C 366.65 398.31 362.92 389.40 364.86 380.71 C 365.09 378.44 366.99 377.11 368.69 375.89 C 366.21 367.17 361.70 359.24 357.91 351.06 C 351.67 338.49 347.42 324.86 346.16 310.85 C 344.92 298.73 346.20 286.54 347.83 274.52 C 349.71 262.43 351.64 250.25 355.79 238.69 C 357.75 233.19 362.17 229.15 366.42 225.38 Z" />
		<path fill="#f0b58b" opacity="1.00"
			d=" M 770.99 365.94 C 780.47 365.40 790.71 363.77 798.09 357.29 C 799.05 367.54 799.77 377.81 800.98 388.04 C 801.60 395.02 802.70 401.98 802.63 408.99 C 802.48 413.55 798.87 416.80 795.88 419.81 C 789.21 425.71 781.36 430.04 774.11 435.15 C 764.93 441.63 755.31 447.49 746.46 454.42 C 742.22 457.86 737.49 462.10 737.47 468.01 C 737.20 477.30 739.08 486.65 737.38 495.89 C 736.59 499.33 736.58 504.22 732.44 505.42 C 723.99 508.41 714.91 509.41 706.01 509.94 C 703.21 510.30 701.79 507.48 700.14 505.78 C 697.61 502.61 694.15 499.87 693.19 495.74 C 691.88 491.92 692.84 487.90 693.27 484.03 C 697.96 483.91 702.19 486.44 706.82 486.60 C 710.34 486.03 709.46 481.67 708.52 479.30 C 707.42 476.79 706.93 472.84 703.80 472.21 C 700.07 472.70 699.35 477.29 698.81 480.30 C 695.80 480.23 692.07 479.64 689.84 482.15 C 688.59 487.18 688.23 492.54 689.68 497.59 C 690.50 499.17 689.15 501.53 687.30 500.57 C 683.27 495.96 685.40 489.58 687.57 484.64 C 692.94 473.01 696.99 460.73 703.75 449.79 C 706.99 444.96 712.98 443.66 717.67 440.76 C 723.25 437.74 726.58 432.09 730.02 427.00 C 735.06 419.05 741.22 411.77 745.15 403.16 C 746.58 400.22 747.61 397.07 749.48 394.36 C 751.05 392.05 753.97 391.46 756.40 390.46 C 761.54 388.69 766.51 386.25 771.94 385.42 C 775.96 384.76 779.96 385.87 783.89 386.62 C 782.77 382.71 778.32 382.33 774.99 381.77 C 766.42 380.21 758.39 384.36 750.65 387.37 C 751.07 379.07 750.00 370.62 746.59 363.00 C 754.01 367.16 762.82 366.32 770.99 365.94 Z" />
		<path fill="#f0b58b" opacity="1.00"
			d=" M 447.85 585.71 C 457.99 599.39 473.48 607.64 484.23 620.76 C 490.59 627.71 494.78 636.30 497.44 645.28 C 489.71 650.84 481.89 656.49 475.79 663.89 C 469.79 670.51 464.62 678.14 456.97 683.03 C 450.41 687.66 442.54 689.86 435.79 694.16 C 428.47 677.10 411.58 664.46 393.12 662.37 C 395.05 658.15 395.82 653.58 396.65 649.07 C 398.36 640.35 403.76 633.04 409.23 626.28 C 415.61 618.02 423.07 610.65 431.01 603.90 C 437.07 598.33 444.38 593.46 447.85 585.71 Z" />
		<path fill="#f0b58b" opacity="1.00"
			d=" M 369.97 665.14 C 373.42 665.39 376.87 665.61 380.32 665.90 C 377.27 668.02 374.17 670.06 370.94 671.89 C 370.65 669.63 370.34 667.38 369.97 665.14 Z" />
		<path fill="#f0b58b" opacity="1.00"
			d=" M 421.48 720.52 C 426.59 714.72 431.99 708.99 435.46 702.02 C 432.91 714.64 436.36 728.86 445.70 737.99 C 438.94 744.86 430.38 749.58 421.70 753.56 C 409.34 759.04 396.20 763.16 382.65 764.02 C 382.03 761.17 381.23 758.36 380.15 755.66 C 386.72 751.13 393.16 746.41 399.48 741.56 C 407.31 735.09 414.50 727.88 421.48 720.52 Z" />
	</g>
	<g id="#f11b27ff">
		<path fill="var(--shirt-color, grey)" opacity="1.00"
			d=" M 567.96 124.97 C 573.01 124.35 577.97 123.10 582.74 121.32 C 583.31 132.85 587.56 143.73 591.61 154.40 C 596.17 166.94 602.83 179.12 612.87 188.10 C 615.81 190.91 619.62 192.51 623.60 193.14 C 627.50 200.77 629.42 209.16 631.80 217.33 C 632.82 220.68 632.80 224.39 634.53 227.50 C 636.20 228.52 637.93 227.26 639.41 226.49 C 646.44 222.37 652.59 216.98 659.10 212.12 C 671.04 202.15 682.64 191.51 691.78 178.85 C 695.72 172.96 699.73 165.46 696.77 158.29 C 693.99 151.73 690.53 145.37 689.30 138.27 C 696.56 143.18 704.21 147.51 711.13 152.90 C 716.72 156.78 714.59 165.03 719.43 169.46 C 723.10 172.58 727.50 174.68 731.27 177.70 C 744.42 187.04 754.84 199.51 765.40 211.55 C 774.83 223.69 784.85 236.38 788.06 251.79 C 790.48 263.36 791.93 275.13 792.63 286.94 C 793.93 301.39 795.32 315.84 797.38 330.21 C 798.03 335.79 798.71 341.40 798.49 347.03 C 798.30 351.27 794.85 354.48 791.42 356.50 C 782.32 361.02 771.93 361.15 762.00 361.49 C 757.39 361.61 752.51 361.13 748.65 358.38 C 741.65 353.51 735.08 347.73 730.63 340.36 C 728.17 336.73 729.09 332.08 728.75 327.95 C 728.06 315.54 732.49 303.72 736.27 292.13 C 737.78 287.27 740.01 282.52 739.99 277.33 C 736.78 281.84 735.26 287.21 733.25 292.29 C 730.65 299.64 727.53 306.82 725.61 314.39 C 723.86 321.15 724.67 328.15 725.07 335.02 C 725.60 347.05 729.78 358.81 728.33 370.94 C 727.13 384.27 719.87 395.89 713.04 407.03 C 703.27 422.16 694.80 438.07 685.51 453.50 C 679.39 463.38 674.43 474.05 666.91 483.01 C 661.62 489.92 654.72 496.29 652.90 505.16 C 646.27 498.13 636.81 495.02 627.80 492.33 C 623.11 490.96 618.58 489.07 613.86 487.81 C 614.58 489.71 615.65 491.57 617.63 492.41 C 626.81 497.10 637.31 499.11 645.81 505.17 C 650.45 508.68 654.94 513.79 654.38 520.02 C 654.05 525.32 649.17 528.41 645.38 531.35 C 639.21 535.78 634.24 541.89 631.57 549.03 C 628.01 537.35 621.61 526.62 613.55 517.48 C 606.73 509.63 599.24 502.02 589.92 497.18 C 576.84 490.49 561.84 489.67 547.44 488.86 C 531.61 488.14 515.75 487.78 499.97 486.39 C 488.57 485.40 478.12 480.23 466.86 478.52 C 451.60 475.58 435.40 476.85 421.18 483.34 C 421.54 477.06 422.26 470.36 426.13 465.14 C 428.49 461.99 430.64 458.64 431.79 454.84 C 435.22 443.84 443.99 435.82 452.18 428.22 C 458.52 422.87 464.60 417.17 471.49 412.53 C 473.91 410.91 476.20 409.10 478.29 407.06 C 472.23 408.22 467.03 411.69 462.08 415.17 C 451.30 423.03 441.07 431.83 432.88 442.43 C 434.24 432.25 435.18 421.92 438.17 412.05 C 441.33 401.55 445.78 391.32 452.38 382.51 C 455.77 377.83 460.50 373.83 462.06 368.06 C 464.29 360.00 464.78 351.59 466.56 343.43 C 469.22 327.40 474.83 311.94 482.75 297.77 C 485.47 292.80 489.81 288.65 491.22 283.03 C 492.19 279.26 492.75 275.41 493.39 271.58 C 495.28 259.24 498.28 247.11 500.46 234.83 C 501.49 223.69 504.93 212.97 508.09 202.29 C 510.44 194.20 515.69 186.72 515.29 178.01 C 513.47 180.10 511.93 182.41 510.78 184.92 C 507.24 192.53 503.66 200.18 501.59 208.35 C 500.02 214.62 498.23 220.84 497.08 227.21 C 490.91 214.24 487.41 199.38 490.50 185.11 C 491.03 182.49 491.56 179.86 491.88 177.20 C 487.48 182.79 486.32 190.12 485.78 197.02 C 485.12 209.89 488.13 223.40 496.54 233.47 C 491.24 233.49 486.08 235.12 481.90 238.39 C 473.72 235.41 465.83 231.72 457.87 228.21 C 452.94 226.14 449.02 222.39 445.32 218.65 C 439.30 212.27 437.03 203.56 434.48 195.42 C 432.63 189.01 430.42 182.72 427.98 176.52 C 437.50 172.14 446.65 167.02 455.72 161.80 C 464.01 157.16 472.47 152.86 480.65 148.03 C 473.44 156.48 467.44 165.88 460.34 174.42 C 457.92 177.48 454.82 180.25 453.95 184.22 C 455.92 183.66 457.94 182.96 459.37 181.40 C 463.10 177.74 466.36 173.64 469.66 169.59 C 476.88 160.74 482.37 150.52 490.34 142.26 C 494.51 138.71 499.02 135.46 503.92 132.98 C 512.44 129.37 521.73 127.84 530.93 127.41 C 543.28 126.81 555.68 126.55 567.96 124.97 M 709.55 315.60 C 698.84 325.51 686.37 333.15 674.47 341.49 C 660.02 351.81 645.38 361.87 630.33 371.29 C 614.43 381.15 597.00 388.24 579.35 394.30 C 564.90 399.19 550.54 404.43 536.63 410.70 C 531.19 413.42 525.20 415.87 521.55 420.99 C 526.27 419.54 530.41 416.80 534.90 414.81 C 541.72 411.71 548.73 409.02 555.84 406.63 C 564.97 403.69 574.34 401.58 583.46 398.63 C 599.65 393.48 615.38 386.73 629.93 377.91 C 648.99 366.33 666.78 352.85 684.82 339.79 C 697.40 330.91 710.07 321.49 719.24 308.95 C 715.41 310.19 712.48 312.98 709.55 315.60 M 490.19 431.41 C 480.65 435.17 470.65 437.53 460.98 440.88 C 452.72 443.65 445.15 449.14 440.80 456.78 C 439.73 458.39 439.75 461.35 442.06 461.80 C 446.44 461.64 450.53 459.65 454.92 459.43 C 473.26 457.82 491.65 459.78 509.91 461.43 C 527.23 462.97 544.64 462.71 562.01 462.96 C 575.01 463.14 588.15 464.49 601.04 462.09 C 605.77 461.22 610.64 461.11 615.29 459.76 C 608.59 458.44 601.78 459.94 595.03 459.43 C 570.71 458.14 546.33 458.34 521.99 457.39 C 497.20 456.14 472.17 451.84 447.45 456.16 C 450.86 452.63 454.45 449.11 458.99 447.06 C 465.50 444.06 472.52 442.44 479.29 440.16 C 489.85 436.69 500.10 432.24 509.78 426.77 C 512.01 425.62 513.51 423.57 514.59 421.36 C 506.15 423.90 498.51 428.52 490.19 431.41 M 644.90 431.47 C 624.24 435.78 602.99 435.35 582.02 434.26 C 570.32 433.73 558.57 432.65 546.88 433.79 C 543.78 434.14 540.56 434.42 537.80 435.98 C 537.86 436.45 538.00 437.39 538.07 437.86 C 552.00 436.11 566.03 437.14 579.99 438.04 C 601.46 439.48 623.26 439.06 644.32 434.26 C 648.37 433.39 652.33 431.88 655.48 429.12 C 651.89 429.62 648.42 430.67 644.90 431.47 Z" />
		<path fill="var(--shirt-color, grey)" opacity="1.00"
			d=" M 617.74 562.30 C 621.21 558.28 624.63 554.18 627.37 549.62 C 627.70 553.29 629.70 558.37 626.02 561.00 C 623.41 562.06 620.49 561.92 617.74 562.30 Z" />
	</g>
	<g id="#2b3dcdff">
		<path fill="var(--pants-color, grey)" opacity="1.00"
			d=" M 420.64 487.41 C 428.49 484.42 436.70 482.18 445.11 481.62 C 457.70 480.65 470.33 483.00 482.29 486.84 C 495.19 491.37 508.99 491.39 522.49 492.12 C 541.00 493.09 559.80 492.33 577.97 496.67 C 585.74 497.96 592.25 502.86 598.10 507.85 C 609.48 518.23 619.48 530.45 625.53 544.73 C 620.45 553.50 613.74 561.51 605.36 567.31 C 600.47 570.70 596.02 574.65 591.66 578.69 C 585.48 584.46 578.29 589.52 574.14 597.10 C 571.44 601.80 569.24 607.51 563.96 609.89 C 555.95 613.53 546.71 614.92 539.89 620.84 C 532.14 627.73 527.35 637.10 521.32 645.39 C 516.93 651.62 511.84 657.31 507.02 663.20 C 504.67 654.63 502.28 646.04 499.20 637.70 C 494.02 623.60 483.28 612.48 472.03 602.93 C 465.40 597.25 458.50 591.81 452.68 585.28 C 450.79 583.30 448.90 580.98 446.05 580.47 C 442.57 589.54 434.40 595.20 427.40 601.38 C 419.67 607.94 412.35 615.04 406.05 623.00 C 400.56 629.78 395.00 636.88 392.62 645.43 C 391.07 650.39 391.18 655.91 388.46 660.46 C 386.09 661.98 383.13 660.73 380.53 660.67 C 370.60 659.06 360.52 660.01 350.64 661.51 C 358.56 642.62 364.70 623.04 370.54 603.43 C 375.51 588.48 377.92 572.59 385.47 558.58 C 391.38 547.20 399.63 537.29 406.35 526.40 C 410.04 520.26 411.96 513.29 414.71 506.73 C 417.31 500.50 419.53 494.08 420.64 487.41 Z" />
		<path fill="var(--socks-color, grey)" opacity="1.00"
			d=" M 383.00 669.03 C 385.00 667.46 387.31 665.95 389.99 666.47 C 408.99 668.11 425.19 682.05 432.69 699.14 C 428.09 707.09 421.88 713.94 415.56 720.55 C 409.55 726.54 403.57 732.59 396.95 737.92 C 382.19 749.18 366.73 759.51 350.64 768.77 C 334.20 778.96 315.78 786.76 302.41 801.19 C 298.74 798.85 294.43 798.15 290.36 796.89 C 284.97 793.13 285.76 784.50 279.65 781.40 C 275.36 779.75 270.93 778.36 267.14 775.66 C 280.80 764.47 292.33 750.88 302.33 736.37 C 311.87 723.96 320.35 710.55 331.74 699.70 C 346.49 685.80 367.20 681.38 383.00 669.03 Z" />
		<path fill="var(--socks-color, grey)" opacity="1.00"
			d=" M 429.41 755.51 C 436.67 751.69 443.66 747.00 448.74 740.44 C 453.48 745.34 458.58 750.03 462.06 755.96 C 465.03 760.63 466.92 765.85 469.14 770.89 C 477.11 789.29 484.32 808.01 490.87 826.97 C 497.49 843.80 500.95 861.63 506.44 878.83 C 509.94 889.66 512.49 900.91 517.85 911.05 C 520.46 916.41 523.75 921.39 527.39 926.10 C 525.69 930.22 524.49 934.55 522.54 938.55 C 518.97 942.82 512.56 942.75 507.67 941.17 C 496.55 937.38 487.45 928.41 475.29 927.63 C 473.62 920.07 470.05 913.15 466.74 906.21 C 460.34 893.40 453.07 880.99 444.44 869.55 C 435.22 858.04 426.11 846.41 418.06 834.04 C 408.20 819.82 398.59 805.26 391.80 789.27 C 389.02 782.49 385.89 775.84 383.72 768.83 C 399.69 767.84 415.24 762.82 429.41 755.51 Z" />
	</g>
	<g id="#4d4d4dff">
		<path fill="#4d4d4d" opacity="1.00"
			d=" M 252.15 780.16 C 256.78 777.40 262.75 777.95 267.20 780.82 C 270.67 783.04 274.78 783.79 278.46 785.54 C 281.24 788.57 282.04 792.89 283.93 796.48 C 273.83 795.63 263.30 797.15 254.60 802.59 C 245.03 808.16 237.56 816.81 227.41 821.46 C 222.91 823.74 217.86 824.43 213.14 826.08 C 211.60 826.53 210.88 828.09 210.13 829.37 C 217.28 828.61 224.61 827.50 231.07 824.14 C 242.12 818.60 250.63 809.06 261.96 804.00 C 270.68 800.05 280.56 800.35 289.85 801.57 C 294.20 802.23 299.25 803.19 301.72 807.28 C 305.69 813.07 304.09 820.60 301.77 826.71 C 298.10 834.81 292.04 841.71 285.02 847.09 C 279.27 851.45 272.03 852.90 265.07 854.06 C 256.16 855.56 247.33 858.02 239.26 862.16 C 232.40 865.75 224.64 867.31 216.97 867.84 C 211.54 868.29 206.48 865.75 202.03 862.94 C 198.20 860.41 194.44 856.86 193.97 852.03 C 193.27 845.61 194.30 838.57 198.49 833.44 C 201.76 829.39 205.76 826.03 209.22 822.16 C 217.06 813.62 223.97 804.31 231.60 795.59 C 237.33 789.12 244.71 784.41 252.15 780.16 Z" />
		<path fill="#4d4d4d" opacity="1.00"
			d=" M 523.51 943.43 C 527.98 940.21 528.24 934.18 529.95 929.40 C 536.84 939.39 542.29 950.36 546.27 961.82 C 548.29 967.92 549.84 974.48 548.71 980.92 C 548.48 983.69 545.30 983.87 543.17 984.23 C 535.79 985.05 528.36 985.14 520.95 985.50 C 510.62 985.85 500.38 987.37 490.06 987.74 C 480.69 988.08 471.32 987.67 461.96 988.18 C 451.98 988.70 441.97 989.01 431.98 988.59 C 424.96 988.27 417.96 989.17 410.95 988.80 C 404.63 988.48 398.30 988.19 391.97 988.09 C 389.62 987.90 386.64 987.91 385.25 985.64 C 385.02 981.36 387.93 977.53 391.37 975.29 C 396.92 971.62 403.38 969.71 409.62 967.55 C 426.58 961.87 445.04 958.73 459.52 947.49 C 465.51 942.87 471.54 938.19 476.31 932.26 C 487.60 934.30 496.23 942.66 507.13 945.73 C 512.56 947.24 518.92 947.02 523.51 943.43 Z" />
	</g>
</svg>