<?xml version="1.0" encoding="UTF-8" ?>
<!DOCTYPE svg PUBLIC "-//W3C//DTD SVG 1.1//EN" "http://www.w3.org/Graphics/SVG/1.1/DTD/svg11.dtd">
<svg width="1000pt" height="1000pt" viewBox="0 0 1000 1000" version="1.1" xmlns="http://www.w3.org/2000/svg">
	<g id="#020202ff">
		<path fill="#020202" opacity="1.00"
			d=" M 464.76 18.89 C 481.47 16.52 498.99 20.60 513.02 29.96 C 532.32 42.60 545.17 64.90 545.77 88.02 C 545.02 97.67 542.71 107.41 537.81 115.85 C 536.58 117.93 535.61 120.59 537.14 122.81 C 541.83 130.18 549.31 135.07 556.24 140.12 C 562.31 138.20 568.66 137.04 575.05 137.26 C 578.11 137.59 580.27 135.03 582.73 133.65 C 589.22 129.22 597.28 128.12 604.98 128.12 C 619.94 127.95 635.01 129.52 649.46 133.48 C 667.69 138.86 685.01 146.82 702.22 154.80 C 718.08 161.70 733.25 170.09 749.20 176.80 C 753.85 178.94 758.71 180.61 763.28 182.91 C 766.49 184.42 763.49 188.08 763.01 190.50 C 772.34 194.09 781.06 199.05 790.36 202.70 C 798.95 205.40 807.85 207.64 815.55 212.51 C 827.25 219.78 837.68 228.90 847.97 238.01 C 863.71 252.58 879.07 267.58 894.03 282.95 C 898.54 287.43 902.78 292.18 907.54 296.40 C 916.39 304.82 928.75 307.49 940.04 311.05 C 945.19 312.78 950.63 313.05 956.03 312.76 C 961.44 312.30 965.17 317.04 967.95 321.02 C 971.73 326.98 974.48 333.88 974.53 341.01 C 974.56 346.42 972.35 351.73 968.58 355.60 C 964.65 359.95 958.99 361.98 954.30 365.32 C 949.72 368.78 943.50 368.87 938.12 367.66 C 932.87 365.81 928.23 362.37 924.65 358.12 C 920.26 359.02 915.45 359.20 911.63 356.47 C 898.02 347.76 890.66 332.73 879.74 321.29 C 869.25 310.22 856.92 300.95 843.85 293.14 C 834.35 287.48 824.02 283.46 814.02 278.81 C 805.53 274.85 798.07 269.06 790.96 263.03 C 785.54 258.41 780.58 253.05 774.11 249.86 C 769.77 247.67 764.82 247.24 760.04 247.17 C 751.77 247.12 743.49 247.13 735.25 247.98 C 734.47 249.09 733.77 250.26 732.91 251.31 C 729.19 251.52 725.58 250.43 721.97 249.74 C 710.78 247.26 699.44 245.54 688.02 244.61 C 688.38 257.60 692.67 270.44 690.66 283.47 C 689.71 290.55 684.81 296.24 683.41 303.17 C 682.46 307.54 682.77 312.06 683.41 316.46 C 687.07 336.31 687.51 357.23 681.42 376.66 C 678.00 387.74 673.56 398.48 669.06 409.16 C 664.31 420.05 663.26 431.99 660.76 443.49 C 658.10 455.87 656.97 468.80 651.53 480.40 C 647.56 489.82 641.65 498.26 635.11 506.06 C 633.16 508.53 630.35 510.54 629.61 513.77 C 627.40 521.28 624.67 528.72 620.51 535.39 C 613.04 548.17 602.26 558.66 590.61 567.63 C 573.96 581.22 556.33 593.53 538.44 605.41 C 519.31 619.28 499.13 631.78 481.08 647.10 C 479.31 648.29 477.35 650.24 475.05 649.29 C 474.38 648.04 473.88 646.72 473.35 645.43 C 461.08 657.07 445.44 664.44 433.53 676.49 C 428.53 681.33 424.20 686.93 421.31 693.29 C 418.96 698.62 415.84 703.95 415.98 709.97 C 415.26 724.38 418.24 738.62 418.40 753.02 C 418.49 767.30 419.01 781.64 417.52 795.89 C 415.37 814.67 410.60 833.03 405.39 851.17 C 399.57 871.44 395.81 892.21 390.40 912.59 C 388.44 919.45 387.82 926.57 387.41 933.67 C 394.74 944.95 396.38 958.83 396.59 971.98 C 396.93 977.85 393.70 984.13 387.76 985.78 C 374.26 989.93 359.92 989.05 345.98 989.16 C 324.01 989.65 302.00 989.94 280.13 992.21 C 263.32 993.09 246.16 994.30 229.65 990.26 C 225.22 989.12 220.74 985.84 220.16 981.02 C 219.65 975.99 222.96 971.70 226.31 968.36 C 231.64 963.01 238.67 959.74 245.93 957.96 C 258.27 954.50 271.27 952.15 282.30 945.26 C 293.82 937.99 301.77 926.70 311.14 917.08 C 314.31 913.75 318.05 911.02 322.09 908.85 C 326.61 891.58 330.21 873.89 330.04 855.97 C 329.78 843.60 327.50 831.39 327.27 819.03 C 327.03 805.98 325.36 793.02 325.08 779.97 C 324.46 767.98 325.37 755.98 326.01 744.01 C 326.75 726.27 331.80 708.71 329.60 690.88 C 328.66 680.80 327.77 670.30 330.63 660.45 C 334.68 648.37 344.71 639.86 351.11 629.15 C 361.62 611.88 369.26 593.07 378.68 575.22 C 373.16 575.39 367.61 576.55 362.11 575.70 C 359.94 575.46 357.44 573.67 358.22 571.20 C 360.15 565.84 363.78 561.29 367.02 556.66 C 357.91 558.35 348.54 561.53 339.26 559.14 C 334.74 565.82 329.92 572.42 326.94 579.98 C 324.60 585.91 322.02 591.74 319.70 597.69 C 317.61 602.94 315.26 608.24 311.40 612.46 C 307.10 617.04 301.63 620.30 296.05 623.08 C 283.20 629.55 269.91 635.08 256.65 640.62 C 251.80 642.54 247.90 646.10 243.34 648.53 C 241.87 649.09 240.66 650.14 239.86 651.50 C 238.41 653.57 236.70 655.45 235.08 657.39 C 240.00 662.44 245.51 668.36 245.13 675.95 C 244.59 686.24 240.13 696.43 232.54 703.48 C 225.88 709.78 217.70 714.48 208.89 716.99 C 199.09 719.53 188.84 719.56 179.01 721.96 C 172.10 723.83 165.16 725.76 158.56 728.57 C 148.18 732.93 138.29 738.35 128.09 743.09 C 116.61 748.57 103.12 749.39 90.91 746.07 C 82.02 743.75 77.97 733.46 78.72 725.03 C 79.03 717.28 84.53 711.02 90.60 706.80 C 99.99 700.62 106.95 691.63 115.50 684.44 C 129.07 671.81 144.21 661.08 159.13 650.14 C 164.03 646.85 169.14 642.96 175.34 643.01 C 183.96 636.67 188.12 626.48 193.78 617.77 C 199.97 607.04 206.35 596.42 213.07 586.01 C 221.83 572.15 234.45 561.44 245.74 549.75 C 254.78 541.13 261.72 530.56 271.03 522.20 C 272.70 520.60 274.66 518.99 275.21 516.63 C 276.05 513.38 276.24 509.90 277.94 506.93 C 279.87 503.32 283.33 500.92 286.63 498.66 C 294.39 493.44 302.30 488.40 309.53 482.43 C 314.46 478.42 318.55 473.52 323.29 469.30 C 329.74 463.56 335.50 457.03 342.68 452.16 C 339.92 451.45 336.95 451.07 334.54 449.44 C 332.96 448.25 333.96 446.24 335.23 445.28 C 338.16 443.00 341.60 441.51 344.97 439.99 C 364.23 431.78 384.20 425.23 403.00 415.94 C 417.65 408.69 432.10 400.82 447.68 395.69 C 459.88 391.61 472.65 389.57 485.41 388.22 C 485.59 375.90 487.79 363.65 491.43 351.90 C 488.92 351.01 485.91 349.87 485.43 346.87 C 483.52 335.50 493.52 324.47 488.02 313.34 C 479.70 312.80 471.33 313.82 463.34 316.16 C 449.21 320.49 435.50 326.03 421.85 331.65 C 418.65 329.71 415.68 327.44 412.59 325.34 C 390.29 333.42 366.67 337.97 342.98 339.21 C 325.33 339.05 307.67 338.20 290.01 338.35 C 280.65 338.76 271.19 338.90 261.98 336.96 C 245.14 333.61 228.54 328.87 212.60 322.45 C 205.48 319.80 198.55 316.59 191.17 314.67 C 187.47 313.49 183.72 315.32 179.97 315.19 C 170.86 315.11 162.11 311.95 153.03 311.58 C 140.56 311.39 128.54 316.53 116.02 315.38 C 112.73 315.13 108.90 313.38 108.29 309.79 C 107.99 306.20 111.01 303.57 113.78 301.87 C 118.65 298.91 123.69 296.15 127.93 292.30 C 111.91 295.06 95.95 298.37 79.80 300.41 C 75.26 300.84 70.54 301.19 66.11 299.85 C 63.74 299.18 61.69 296.78 62.33 294.21 C 63.28 290.46 66.90 288.39 69.77 286.20 C 65.96 285.37 61.21 284.61 59.37 280.66 C 57.98 278.07 59.37 275.15 61.16 273.17 C 63.82 269.61 68.59 269.19 72.60 268.27 C 87.52 265.17 102.76 264.35 117.92 263.35 C 126.90 262.82 136.08 263.25 144.67 266.09 C 150.10 267.87 155.46 269.94 161.09 271.07 C 166.95 272.35 173.13 272.71 178.58 275.44 C 183.63 278.08 189.45 277.80 194.96 278.39 C 211.30 279.56 227.68 279.52 244.05 279.77 C 254.38 279.74 264.73 279.73 275.04 279.01 C 288.03 278.10 300.98 276.33 314.03 276.52 C 322.83 276.70 331.36 279.05 339.97 280.59 C 348.18 282.32 355.98 278.42 363.78 276.52 C 363.88 275.92 364.08 274.72 364.18 274.12 C 381.02 262.67 400.36 253.31 421.09 252.95 C 422.82 252.64 425.22 253.14 426.23 251.31 C 431.07 244.28 435.51 236.70 442.33 231.34 C 449.06 226.02 456.47 221.45 464.55 218.51 C 471.16 216.10 477.99 214.38 484.82 212.72 C 487.90 211.84 491.34 211.15 493.57 208.64 C 497.54 204.33 500.46 199.17 504.51 194.91 C 502.84 190.53 501.99 185.72 499.34 181.79 C 494.67 178.18 488.51 177.45 482.78 177.35 C 479.86 183.98 475.25 190.81 467.85 192.77 C 462.36 193.44 457.93 189.19 454.38 185.58 C 447.07 177.34 442.29 167.19 435.28 158.73 C 432.69 157.81 429.86 158.03 427.19 157.51 C 422.66 156.89 417.87 153.88 417.09 149.08 C 415.56 137.03 419.92 124.82 416.93 112.86 C 414.44 102.78 413.11 92.44 412.82 82.05 C 412.85 77.25 410.29 72.80 410.87 67.94 C 411.77 54.49 420.09 42.61 430.26 34.25 C 440.31 26.51 452.09 20.61 464.76 18.89 M 423.88 64.08 C 422.43 68.82 425.15 73.33 426.59 77.70 C 423.31 76.73 420.22 75.24 417.43 73.26 C 416.30 81.28 417.74 89.31 418.87 97.24 C 420.11 105.87 423.54 114.17 423.42 122.98 C 423.15 131.36 421.82 139.71 422.14 148.10 C 422.07 149.90 423.60 151.17 425.08 151.88 C 429.02 153.66 433.66 152.56 437.55 154.45 C 441.05 156.74 442.55 160.87 445.05 164.06 C 450.72 171.64 454.68 180.80 462.45 186.59 C 464.82 188.59 468.46 189.10 470.98 187.09 C 475.39 183.39 477.48 177.85 479.77 172.74 C 482.97 165.28 487.33 158.41 491.18 151.29 C 493.52 147.20 495.49 142.84 498.70 139.34 C 498.78 143.76 496.31 147.54 494.48 151.39 C 490.68 158.61 487.21 166.00 484.06 173.54 C 490.21 172.92 496.74 173.53 502.04 176.98 C 505.05 178.85 505.96 182.52 507.10 185.65 C 508.80 191.35 510.83 196.99 511.74 202.89 C 512.45 207.94 514.39 212.70 515.34 217.70 C 517.93 207.30 522.00 197.35 524.93 187.05 C 527.53 177.87 530.37 168.62 535.36 160.42 C 539.30 153.95 544.87 148.68 550.50 143.70 C 543.94 139.77 538.15 134.45 534.01 127.99 C 531.56 124.14 530.62 119.00 533.01 114.89 C 535.85 109.82 538.42 104.58 539.98 98.95 C 534.49 106.42 527.66 112.79 520.02 118.00 C 514.81 121.91 508.44 123.73 502.16 125.05 C 504.57 119.29 506.90 113.38 507.50 107.11 C 508.19 100.31 509.32 93.02 506.49 86.54 C 505.51 84.62 503.66 82.00 501.17 82.90 C 494.87 84.49 489.45 88.38 484.43 92.36 C 479.44 96.89 473.72 100.52 467.77 103.65 C 467.37 98.48 467.26 93.24 466.00 88.19 C 464.79 82.92 462.48 78.00 460.50 72.99 C 453.93 77.87 445.45 79.77 437.39 78.75 C 436.94 74.16 437.53 69.37 435.99 64.95 C 434.57 62.04 431.57 58.94 428.02 59.77 C 426.16 60.57 424.32 62.00 423.88 64.08 M 585.38 138.31 C 582.51 140.03 579.80 142.87 576.16 142.43 C 568.85 142.15 560.51 141.42 554.45 146.36 C 547.34 151.96 540.83 158.68 536.90 166.93 C 532.14 176.03 530.22 186.20 527.12 195.90 C 524.72 204.12 521.38 212.04 519.30 220.34 C 518.18 224.29 517.80 228.53 515.84 232.18 C 514.46 233.15 512.57 232.52 512.24 230.84 C 511.27 227.02 511.16 223.03 510.37 219.17 C 509.07 212.55 507.05 206.11 505.47 199.56 C 501.36 206.01 497.63 214.27 489.55 216.35 C 483.48 218.17 477.23 219.37 471.23 221.41 C 461.77 224.24 453.01 229.13 445.36 235.32 C 440.09 239.50 436.60 245.35 432.90 250.85 C 431.37 253.01 430.27 255.68 427.91 257.08 C 425.15 258.31 422.05 258.23 419.10 258.49 C 400.86 259.23 384.12 267.42 368.10 275.45 C 380.14 289.17 391.47 303.85 406.31 314.73 C 411.90 319.08 418.07 322.56 424.17 326.14 C 433.55 320.44 444.05 317.05 454.35 313.46 C 464.01 310.10 474.20 308.03 484.47 308.30 C 482.58 305.95 480.69 303.60 478.77 301.29 C 469.81 300.20 462.16 295.01 454.99 289.90 C 449.41 285.89 444.40 280.75 441.74 274.32 C 441.09 272.90 441.32 271.32 441.41 269.83 C 445.14 273.37 447.85 277.87 451.82 281.18 C 457.69 286.18 464.49 289.93 471.22 293.64 C 464.54 283.64 462.85 269.69 469.37 259.21 C 470.32 263.08 469.68 267.06 469.54 270.98 C 469.20 279.29 472.47 287.73 478.39 293.59 C 484.91 299.51 490.74 306.62 493.89 314.93 C 497.33 325.83 489.27 336.00 490.20 346.91 C 492.38 346.39 494.50 344.95 496.80 345.32 C 498.43 346.80 497.04 348.89 496.60 350.57 C 492.12 362.60 490.56 375.49 490.14 388.26 C 495.03 387.52 498.96 384.36 503.35 382.35 C 517.61 375.47 532.20 369.13 547.42 364.65 C 569.32 357.98 591.87 352.00 614.96 352.58 C 620.40 352.89 626.16 353.09 631.00 355.92 C 634.34 357.85 637.59 359.97 640.60 362.39 C 641.86 363.29 642.62 364.65 642.82 366.19 C 641.41 366.95 640.14 365.85 638.93 365.28 C 632.65 361.93 626.35 357.80 618.97 357.75 C 595.84 356.52 573.10 362.41 551.09 368.87 C 534.41 373.49 518.53 380.47 502.64 387.22 C 512.39 387.38 522.30 386.57 531.90 388.78 C 545.72 391.84 558.57 398.15 570.72 405.25 C 576.23 408.42 581.16 412.63 587.22 414.78 C 601.02 420.35 613.34 428.88 624.86 438.18 C 635.58 447.61 644.72 459.35 649.00 473.13 C 650.94 467.19 652.35 461.08 653.61 454.96 C 655.91 442.90 658.93 430.98 661.01 418.87 C 665.42 403.06 673.26 388.43 677.49 372.55 C 681.19 359.75 681.57 346.24 680.63 333.02 C 679.84 322.45 675.79 311.93 678.16 301.30 C 679.52 294.19 684.45 288.27 685.15 280.98 C 686.71 268.70 682.88 256.55 683.57 244.25 C 663.42 242.85 643.15 242.08 623.01 244.06 C 612.49 245.18 601.63 245.86 591.92 250.47 C 589.97 251.44 590.30 248.13 591.29 247.43 C 594.79 243.64 600.20 242.69 605.00 241.52 C 627.73 237.32 651.02 237.47 674.00 239.05 C 693.01 240.06 711.92 242.65 730.46 247.00 C 731.83 242.57 732.80 238.00 734.68 233.74 C 737.20 227.92 741.07 222.85 744.77 217.75 C 748.23 213.06 749.85 207.39 752.20 202.13 C 754.44 196.60 757.20 191.30 759.80 185.94 C 734.33 176.33 710.38 163.29 685.43 152.48 C 668.53 145.29 651.42 137.77 633.07 135.25 C 621.78 133.71 610.32 132.77 598.94 133.78 C 594.15 134.21 589.38 135.58 585.38 138.31 M 761.01 194.69 C 758.34 200.80 755.87 206.99 753.39 213.18 C 751.07 219.16 746.76 224.02 743.36 229.39 C 740.47 233.74 738.22 238.48 736.38 243.36 C 747.10 242.01 758.05 241.29 768.81 242.56 C 782.47 244.70 790.93 256.75 801.55 264.33 C 813.38 274.39 828.60 278.60 841.99 286.00 C 855.40 293.38 867.67 302.77 878.84 313.21 C 887.45 321.38 893.84 331.46 901.45 340.51 C 905.94 345.95 911.10 351.55 918.04 353.68 C 923.19 353.75 928.35 352.63 933.52 353.35 C 932.09 350.79 929.75 348.40 929.86 345.28 C 930.40 345.18 931.46 344.98 931.99 344.88 C 936.17 349.10 939.64 354.46 940.59 360.43 C 937.41 358.77 934.13 357.22 930.49 357.04 C 933.07 358.94 935.64 360.98 938.66 362.14 C 942.97 363.38 947.87 363.13 951.69 360.60 C 945.11 353.16 942.30 343.43 938.66 334.40 C 940.10 334.75 941.97 334.65 942.84 336.15 C 945.76 339.84 947.18 344.41 949.27 348.58 C 950.83 351.88 952.95 354.87 954.95 357.91 C 957.37 356.55 959.79 355.19 962.22 353.82 C 958.72 349.03 955.84 343.83 953.27 338.51 C 951.86 335.31 950.36 331.88 950.87 328.30 C 951.34 328.35 952.29 328.45 952.76 328.50 C 956.34 336.31 960.43 343.91 965.23 351.06 C 966.17 349.57 967.12 348.08 968.06 346.58 C 965.41 342.57 963.37 338.21 961.40 333.84 C 959.70 329.97 957.27 326.41 956.24 322.28 C 957.57 322.97 959.18 323.48 960.17 324.73 C 964.27 329.55 966.30 335.67 969.63 340.99 C 969.81 335.10 966.86 329.75 964.32 324.63 C 962.54 321.84 960.93 317.71 957.02 317.71 C 952.31 317.62 947.53 318.04 942.93 316.84 C 932.82 314.29 922.80 311.16 913.37 306.67 C 904.33 301.71 897.69 293.61 890.42 286.50 C 876.76 272.52 862.59 259.05 848.27 245.74 C 836.58 235.36 824.86 224.75 811.34 216.76 C 802.01 211.14 790.87 209.93 781.32 204.81 C 774.66 201.22 767.85 197.92 761.01 194.69 M 105.06 268.80 C 92.65 269.42 80.25 270.63 68.06 273.02 C 65.28 273.40 63.84 276.02 62.41 278.10 C 64.33 279.54 66.47 280.76 68.91 280.96 C 89.88 283.78 111.05 281.52 132.09 281.32 C 133.41 283.33 135.51 285.37 134.79 288.03 C 133.88 296.59 125.51 301.02 118.79 304.79 C 116.74 306.15 112.92 306.93 113.83 310.18 C 125.69 311.69 137.22 307.12 148.99 306.49 C 160.84 305.64 172.13 311.20 183.98 310.21 C 193.96 309.24 203.41 313.31 212.56 316.70 C 229.52 323.42 247.10 328.64 265.02 332.09 C 276.29 334.38 287.81 332.95 299.20 333.46 C 313.80 333.41 328.38 334.32 342.98 334.27 C 364.84 333.20 386.37 328.55 407.26 322.19 C 390.97 311.24 377.85 296.18 366.54 280.28 C 357.74 283.13 348.53 287.12 339.10 285.04 C 330.46 283.38 321.82 281.27 312.98 281.11 C 296.58 280.81 280.36 283.83 263.98 284.22 C 239.00 284.22 213.96 284.84 189.07 282.34 C 185.04 282.06 180.93 281.63 177.26 279.79 C 170.94 276.74 163.75 276.77 157.06 274.97 C 149.80 273.20 143.01 269.78 135.58 268.64 C 125.46 267.03 115.21 268.34 105.06 268.80 M 74.95 286.74 C 71.68 289.11 68.59 291.78 66.28 295.13 C 71.73 296.24 77.30 295.72 82.75 294.90 C 98.55 292.42 114.27 289.46 130.12 287.30 C 130.12 286.90 130.13 286.11 130.13 285.71 C 111.81 287.34 93.31 288.44 74.95 286.74 M 462.97 396.40 C 443.82 400.31 426.31 409.37 409.00 418.07 C 396.37 424.66 383.04 429.72 369.73 434.75 C 359.54 438.97 348.92 442.25 339.16 447.46 C 345.29 448.95 351.67 448.88 357.79 450.40 C 363.76 451.81 369.50 453.99 375.34 455.84 C 389.70 460.28 403.97 465.45 417.04 472.95 C 427.57 479.37 437.67 487.75 442.63 499.35 C 445.78 506.67 448.40 515.04 445.88 522.95 C 443.46 531.67 437.01 539.75 427.99 542.13 C 416.96 545.09 405.42 545.49 394.32 548.21 C 388.78 549.56 383.36 551.38 377.90 553.05 C 376.35 553.64 374.49 553.97 373.50 555.44 C 369.85 560.26 367.07 565.66 364.20 570.96 C 371.43 570.79 378.67 569.83 385.91 570.54 C 397.38 571.53 408.86 573.80 419.42 578.50 C 432.55 583.79 444.80 591.21 455.60 600.35 C 467.79 611.64 476.72 627.25 477.92 644.02 C 495.93 629.02 515.80 616.52 534.65 602.65 C 556.19 588.17 577.59 573.34 597.12 556.18 C 611.37 543.30 622.26 526.45 626.47 507.58 C 632.64 487.06 627.57 463.62 613.65 447.38 C 603.45 435.16 591.04 424.97 577.87 416.12 C 564.35 407.16 549.82 399.59 534.41 394.47 C 524.90 391.64 514.86 391.48 505.02 391.60 C 490.90 391.99 476.79 393.48 462.97 396.40 M 596.73 423.77 C 607.28 432.75 616.80 443.00 624.60 454.46 C 633.34 468.31 634.71 485.54 632.47 501.43 C 637.10 494.51 641.34 487.35 645.50 480.13 C 643.77 472.01 640.63 464.13 635.67 457.43 C 625.82 443.06 611.23 432.97 596.73 423.77 M 334.20 465.15 C 328.76 470.71 322.98 475.92 317.61 481.55 C 307.99 491.27 295.80 497.77 285.15 506.19 C 280.06 509.93 281.47 516.88 278.51 521.85 C 288.06 520.08 297.93 520.66 307.35 522.84 C 319.00 525.58 330.77 531.20 337.71 541.32 C 340.50 545.15 341.11 549.92 341.73 554.49 C 357.41 555.67 372.17 549.30 386.94 545.06 C 398.73 541.44 411.07 540.34 423.22 538.49 C 433.92 537.19 441.48 526.22 441.19 515.89 C 439.68 502.63 432.41 490.27 421.85 482.17 C 408.83 472.44 393.33 466.86 378.01 461.93 C 369.66 459.42 361.59 456.02 353.07 454.12 C 351.46 453.82 349.71 453.25 348.18 454.12 C 342.78 456.73 338.38 460.94 334.20 465.15 M 277.89 526.45 C 275.52 526.92 272.69 526.89 271.00 528.89 C 267.04 533.00 263.55 537.52 259.92 541.92 C 247.97 556.55 233.12 568.57 221.60 583.56 C 211.86 597.74 203.70 612.93 194.27 627.33 C 190.01 634.41 184.95 641.23 177.99 645.88 C 180.94 648.68 184.01 651.79 188.18 652.58 C 197.53 654.78 206.69 650.36 216.06 650.73 C 221.53 650.60 226.85 652.32 231.57 655.03 C 237.11 645.12 246.73 638.34 257.05 634.10 C 268.25 629.46 279.27 624.38 290.26 619.25 C 296.75 616.10 303.60 612.96 308.39 607.37 C 312.60 602.06 314.66 595.48 317.39 589.37 C 320.29 582.95 322.52 576.21 326.09 570.10 C 329.52 564.48 333.21 558.99 337.18 553.74 C 336.15 547.06 332.37 541.05 326.89 537.13 C 312.97 526.90 294.72 524.09 277.89 526.45 M 365.52 613.61 C 360.62 623.91 355.22 634.13 347.87 642.92 C 342.40 649.47 336.66 656.41 334.65 664.91 C 332.31 676.58 335.02 688.38 335.30 700.10 C 349.67 694.09 365.49 692.18 380.97 692.76 C 391.73 693.34 402.84 695.12 412.17 700.84 C 414.70 693.15 418.09 685.60 423.29 679.32 C 432.04 668.56 443.50 660.46 455.24 653.27 C 461.30 649.58 466.93 645.25 472.99 641.56 C 469.32 624.59 459.86 608.55 445.49 598.54 C 436.48 591.16 425.78 586.31 415.03 582.08 C 405.04 578.10 394.30 576.48 383.65 575.42 C 377.92 588.29 371.72 600.95 365.52 613.61 M 146.17 666.21 C 131.53 677.01 117.17 688.38 104.88 701.86 C 99.54 708.00 91.56 711.20 86.68 717.77 C 82.95 722.69 83.43 729.19 84.08 734.97 C 86.82 730.85 89.98 726.85 94.39 724.43 C 108.68 716.08 124.85 711.94 140.41 706.68 C 157.70 701.03 174.15 693.22 190.72 685.81 C 198.74 682.22 207.19 679.26 216.02 678.71 C 223.95 678.28 232.81 678.74 238.82 684.63 C 239.69 679.87 241.28 674.64 238.95 670.04 C 235.53 663.33 229.42 657.65 221.90 656.12 C 210.39 653.49 199.06 660.41 187.57 657.47 C 181.67 656.40 177.24 652.12 173.34 647.88 C 163.29 652.40 155.09 659.91 146.17 666.21 M 192.60 690.51 C 180.20 696.32 167.79 702.15 155.01 707.10 C 140.79 712.60 125.97 716.31 111.72 721.70 C 105.06 724.41 98.18 727.03 92.49 731.53 C 89.69 733.67 88.29 736.98 86.97 740.14 C 94.54 743.12 102.81 742.95 110.79 742.37 C 116.59 741.84 122.10 739.76 127.30 737.22 C 136.71 732.61 146.01 727.75 155.70 723.75 C 168.91 718.29 182.90 714.81 197.14 713.55 C 211.61 712.44 225.93 705.37 234.42 693.42 C 235.13 691.92 237.21 690.06 235.66 688.47 C 232.66 684.65 227.46 684.01 222.94 683.76 C 212.42 683.09 202.04 686.06 192.60 690.51 M 335.26 703.86 C 334.81 714.66 332.96 725.32 331.88 736.06 C 330.79 751.65 329.91 767.30 330.72 782.93 C 331.14 793.30 332.42 803.62 332.70 814.01 C 332.98 822.66 333.49 831.30 334.47 839.90 C 337.21 863.15 333.65 886.84 326.03 908.87 C 334.71 914.34 342.19 921.71 347.59 930.45 C 349.71 933.62 351.37 937.20 354.20 939.84 C 357.95 942.82 363.27 942.23 367.44 940.47 C 372.69 938.21 377.61 935.17 383.16 933.62 C 383.08 917.83 388.40 902.83 391.47 887.53 C 395.07 869.81 399.85 852.36 404.85 835.00 C 409.55 817.04 413.43 798.69 413.53 780.05 C 413.54 764.38 413.87 748.65 411.97 733.06 C 410.86 724.14 411.23 715.13 412.05 706.21 C 406.27 702.87 399.97 700.43 393.38 699.32 C 374.02 695.84 353.94 697.98 335.26 703.86 M 323.30 914.30 C 318.43 916.41 315.06 920.74 311.49 924.49 C 302.36 934.65 293.61 945.81 281.19 952.15 C 269.48 958.09 256.42 960.41 243.86 963.89 C 238.39 965.41 233.19 968.10 229.06 972.05 C 226.88 974.21 224.70 976.84 224.58 980.06 C 224.63 983.15 227.69 984.99 230.36 985.70 C 246.70 989.82 263.66 988.09 280.27 987.23 C 298.80 985.34 317.40 984.26 336.03 984.04 C 351.63 983.20 367.37 985.08 382.86 982.55 C 386.23 982.09 390.10 980.58 390.96 976.90 C 392.09 971.96 391.30 966.84 390.86 961.86 C 389.92 953.80 388.95 945.34 384.65 938.27 C 382.67 937.79 380.83 939.42 379.07 940.15 C 372.18 944.08 364.21 948.48 356.05 946.01 C 351.37 944.92 348.31 940.95 345.91 937.09 C 340.74 928.87 334.62 920.99 326.53 915.45 C 325.52 915.01 324.46 913.75 323.30 914.30 Z" />
		<path fill="#020202" opacity="1.00"
			d=" M 421.67 99.80 C 427.34 96.90 433.54 94.87 439.94 94.60 C 446.38 94.33 453.04 93.79 459.24 95.95 C 461.47 96.29 461.16 99.52 459.64 100.56 C 457.87 101.78 455.85 102.53 453.93 103.45 C 452.21 107.68 447.55 108.76 443.97 110.85 C 440.42 112.56 437.26 115.28 433.24 115.75 C 432.40 112.99 431.66 110.21 430.94 107.43 C 429.03 107.22 427.10 107.14 425.23 106.69 C 423.56 104.69 422.77 102.13 421.67 99.80 Z" />
		<path fill="#020202" opacity="1.00"
			d=" M 636.26 265.24 C 641.17 261.96 645.57 257.28 651.68 256.39 C 649.47 261.08 644.92 263.82 641.03 266.95 C 634.72 271.65 628.52 276.50 622.30 281.32 C 616.54 285.89 609.75 288.83 603.43 292.50 C 591.30 299.54 578.98 306.26 566.30 312.26 C 557.08 316.91 547.74 321.37 539.04 326.97 C 533.79 330.38 528.07 333.74 525.04 339.48 C 532.13 340.85 537.14 334.76 543.64 333.47 C 541.74 337.21 538.14 339.57 534.61 341.60 C 531.24 343.50 526.94 344.41 523.27 342.87 C 521.06 341.74 520.76 338.81 521.67 336.73 C 523.68 331.75 528.23 328.47 532.43 325.43 C 548.02 314.54 565.79 307.47 582.45 298.48 C 591.18 293.95 599.69 289.00 608.41 284.45 C 618.63 279.50 626.98 271.64 636.26 265.24 Z" />
		<path fill="#020202" opacity="1.00"
			d=" M 619.82 331.80 C 629.41 328.48 638.26 322.79 648.43 321.31 C 649.41 323.23 647.31 324.11 646.01 324.96 C 633.40 331.95 620.01 337.59 606.02 341.14 C 585.12 346.99 563.55 350.54 543.18 358.20 C 530.41 363.01 517.53 367.56 505.15 373.30 C 505.98 371.54 506.66 369.54 508.41 368.45 C 513.94 364.53 520.40 362.25 526.60 359.63 C 536.46 355.73 546.23 351.54 556.41 348.55 C 577.35 342.21 599.13 338.99 619.82 331.80 Z" />
	</g>
	<g id="#f0b58bff">
		<path fill="#f0b58b" opacity="1.00"
			d=" M 423.88 64.08 C 424.32 62.00 426.16 60.57 428.02 59.77 C 431.57 58.94 434.57 62.04 435.99 64.95 C 437.53 69.37 436.94 74.16 437.39 78.75 C 445.45 79.77 453.93 77.87 460.50 72.99 C 462.48 78.00 464.79 82.92 466.00 88.19 C 467.26 93.24 467.37 98.48 467.77 103.65 C 473.72 100.52 479.44 96.89 484.43 92.36 C 489.45 88.38 494.87 84.49 501.17 82.90 C 503.66 82.00 505.51 84.62 506.49 86.54 C 509.32 93.02 508.19 100.31 507.50 107.11 C 506.90 113.38 504.57 119.29 502.16 125.05 C 508.44 123.73 514.81 121.91 520.02 118.00 C 527.66 112.79 534.49 106.42 539.98 98.95 C 538.42 104.58 535.85 109.82 533.01 114.89 C 530.62 119.00 531.56 124.14 534.01 127.99 C 538.15 134.45 543.94 139.77 550.50 143.70 C 544.87 148.68 539.30 153.95 535.36 160.42 C 530.37 168.62 527.53 177.87 524.93 187.05 C 522.00 197.35 517.93 207.30 515.34 217.70 C 514.39 212.70 512.45 207.94 511.74 202.89 C 510.83 196.99 508.80 191.35 507.10 185.65 C 505.96 182.52 505.05 178.85 502.04 176.98 C 496.74 173.53 490.21 172.92 484.06 173.54 C 487.21 166.00 490.68 158.61 494.48 151.39 C 496.31 147.54 498.78 143.76 498.70 139.34 C 495.49 142.84 493.52 147.20 491.18 151.29 C 487.33 158.41 482.97 165.28 479.77 172.74 C 477.48 177.85 475.39 183.39 470.98 187.09 C 468.46 189.10 464.82 188.59 462.45 186.59 C 454.68 180.80 450.72 171.64 445.05 164.06 C 442.55 160.87 441.05 156.74 437.55 154.45 C 433.66 152.56 429.02 153.66 425.08 151.88 C 423.60 151.17 422.07 149.90 422.14 148.10 C 421.82 139.71 423.15 131.36 423.42 122.98 C 423.54 114.17 420.11 105.87 418.87 97.24 C 417.74 89.31 416.30 81.28 417.43 73.26 C 420.22 75.24 423.31 76.73 426.59 77.70 C 425.15 73.33 422.43 68.82 423.88 64.08 M 421.67 99.80 C 422.77 102.13 423.56 104.69 425.23 106.69 C 427.10 107.14 429.03 107.22 430.94 107.43 C 431.66 110.21 432.40 112.99 433.24 115.75 C 437.26 115.28 440.42 112.56 443.97 110.85 C 447.55 108.76 452.21 107.68 453.93 103.45 C 455.85 102.53 457.87 101.78 459.64 100.56 C 461.16 99.52 461.47 96.29 459.24 95.95 C 453.04 93.79 446.38 94.33 439.94 94.60 C 433.54 94.87 427.34 96.90 421.67 99.80 Z" />
		<path fill="#f0b58b" opacity="1.00"
			d=" M 761.01 194.69 C 767.85 197.92 774.66 201.22 781.32 204.81 C 790.87 209.93 802.01 211.14 811.34 216.76 C 824.86 224.75 836.58 235.36 848.27 245.74 C 862.59 259.05 876.76 272.52 890.42 286.50 C 897.69 293.61 904.33 301.71 913.37 306.67 C 922.80 311.16 932.82 314.29 942.93 316.84 C 947.53 318.04 952.31 317.62 957.02 317.71 C 960.93 317.71 962.54 321.84 964.32 324.63 C 966.86 329.75 969.81 335.10 969.63 340.99 C 966.30 335.67 964.27 329.55 960.17 324.73 C 959.18 323.48 957.57 322.97 956.24 322.28 C 957.27 326.41 959.70 329.97 961.40 333.84 C 963.37 338.21 965.41 342.57 968.06 346.58 C 967.12 348.08 966.17 349.57 965.23 351.06 C 960.43 343.91 956.34 336.31 952.76 328.50 C 952.29 328.45 951.34 328.35 950.87 328.30 C 950.36 331.88 951.86 335.31 953.27 338.51 C 955.84 343.83 958.72 349.03 962.22 353.82 C 959.79 355.19 957.37 356.55 954.95 357.91 C 952.95 354.87 950.83 351.88 949.27 348.58 C 947.18 344.41 945.76 339.84 942.84 336.15 C 941.97 334.65 940.10 334.75 938.66 334.40 C 942.30 343.43 945.11 353.16 951.69 360.60 C 947.87 363.13 942.97 363.38 938.66 362.14 C 935.64 360.98 933.07 358.94 930.49 357.04 C 934.13 357.22 937.41 358.77 940.59 360.43 C 939.64 354.46 936.17 349.10 931.99 344.88 C 931.46 344.98 930.40 345.18 929.86 345.28 C 929.75 348.40 932.09 350.79 933.52 353.35 C 928.35 352.63 923.19 353.75 918.04 353.68 C 911.10 351.55 905.94 345.95 901.45 340.51 C 893.84 331.46 887.45 321.38 878.84 313.21 C 867.67 302.77 855.40 293.38 841.99 286.00 C 828.60 278.60 813.38 274.39 801.55 264.33 C 790.93 256.75 782.47 244.70 768.81 242.56 C 758.05 241.29 747.10 242.01 736.38 243.36 C 738.22 238.48 740.47 233.74 743.36 229.39 C 746.76 224.02 751.07 219.16 753.39 213.18 C 755.87 206.99 758.34 200.80 761.01 194.69 Z" />
		<path fill="#f0b58b" opacity="1.00"
			d=" M 105.06 268.80 C 115.21 268.34 125.46 267.03 135.58 268.64 C 143.01 269.78 149.80 273.20 157.06 274.97 C 163.75 276.77 170.94 276.74 177.26 279.79 C 180.93 281.63 185.04 282.06 189.07 282.34 C 213.96 284.84 239.00 284.22 263.98 284.22 C 280.36 283.83 296.58 280.81 312.98 281.11 C 321.82 281.27 330.46 283.38 339.10 285.04 C 348.53 287.12 357.74 283.13 366.54 280.28 C 377.85 296.18 390.97 311.24 407.26 322.19 C 386.37 328.55 364.84 333.20 342.98 334.27 C 328.38 334.32 313.80 333.41 299.20 333.46 C 287.81 332.95 276.29 334.38 265.02 332.09 C 247.10 328.64 229.52 323.42 212.56 316.70 C 203.41 313.31 193.96 309.24 183.98 310.21 C 172.13 311.20 160.84 305.64 148.99 306.49 C 137.22 307.12 125.69 311.69 113.83 310.18 C 112.92 306.93 116.74 306.15 118.79 304.79 C 125.51 301.02 133.88 296.59 134.79 288.03 C 135.51 285.37 133.41 283.33 132.09 281.32 C 111.05 281.52 89.88 283.78 68.91 280.96 C 66.47 280.76 64.33 279.54 62.41 278.10 C 63.84 276.02 65.28 273.40 68.06 273.02 C 80.25 270.63 92.65 269.42 105.06 268.80 Z" />
		<path fill="#f0b58b" opacity="1.00"
			d=" M 74.95 286.74 C 93.31 288.44 111.81 287.34 130.13 285.71 C 130.13 286.11 130.12 286.90 130.12 287.30 C 114.27 289.46 98.55 292.42 82.75 294.90 C 77.30 295.72 71.73 296.24 66.28 295.13 C 68.59 291.78 71.68 289.11 74.95 286.74 Z" />
		<path fill="#f0b58b" opacity="1.00"
			d=" M 334.20 465.15 C 338.38 460.94 342.78 456.73 348.18 454.12 C 349.71 453.25 351.46 453.82 353.07 454.12 C 361.59 456.02 369.66 459.42 378.01 461.93 C 393.33 466.86 408.83 472.44 421.85 482.17 C 432.41 490.27 439.68 502.63 441.19 515.89 C 441.48 526.22 433.92 537.19 423.22 538.49 C 411.07 540.34 398.73 541.44 386.94 545.06 C 372.17 549.30 357.41 555.67 341.73 554.49 C 341.11 549.92 340.50 545.15 337.71 541.32 C 330.77 531.20 319.00 525.58 307.35 522.84 C 297.93 520.66 288.06 520.08 278.51 521.85 C 281.47 516.88 280.06 509.93 285.15 506.19 C 295.80 497.77 307.99 491.27 317.61 481.55 C 322.98 475.92 328.76 470.71 334.20 465.15 Z" />
		<path fill="#f0b58b" opacity="1.00"
			d=" M 365.52 613.61 C 371.72 600.95 377.92 588.29 383.65 575.42 C 394.30 576.48 405.04 578.10 415.03 582.08 C 425.78 586.31 436.48 591.16 445.49 598.54 C 459.86 608.55 469.32 624.59 472.99 641.56 C 466.93 645.25 461.30 649.58 455.24 653.27 C 443.50 660.46 432.04 668.56 423.29 679.32 C 418.09 685.60 414.70 693.15 412.17 700.84 C 402.84 695.12 391.73 693.34 380.97 692.76 C 365.49 692.18 349.67 694.09 335.30 700.10 C 335.02 688.38 332.31 676.58 334.65 664.91 C 336.66 656.41 342.40 649.47 347.87 642.92 C 355.22 634.13 360.62 623.91 365.52 613.61 Z" />
	</g>
	<g id="#f11b27ff">
		<path fill="var(--shirt-color, grey)" opacity="1.00"
			d=" M 585.38 138.31 C 589.38 135.58 594.15 134.21 598.94 133.78 C 610.32 132.77 621.78 133.71 633.07 135.25 C 651.42 137.77 668.53 145.29 685.43 152.48 C 710.38 163.29 734.33 176.33 759.80 185.94 C 757.20 191.30 754.44 196.60 752.20 202.13 C 749.85 207.39 748.23 213.06 744.77 217.75 C 741.07 222.85 737.20 227.92 734.68 233.74 C 732.80 238.00 731.83 242.57 730.46 247.00 C 711.92 242.65 693.01 240.06 674.00 239.05 C 651.02 237.47 627.73 237.32 605.00 241.52 C 600.20 242.69 594.79 243.64 591.29 247.43 C 590.30 248.13 589.97 251.44 591.92 250.47 C 601.63 245.86 612.49 245.18 623.01 244.06 C 643.15 242.08 663.42 242.85 683.57 244.25 C 682.88 256.55 686.71 268.70 685.15 280.98 C 684.45 288.27 679.52 294.19 678.16 301.30 C 675.79 311.93 679.84 322.45 680.63 333.02 C 681.57 346.24 681.19 359.75 677.49 372.55 C 673.26 388.43 665.42 403.06 661.01 418.87 C 658.93 430.98 655.91 442.90 653.61 454.96 C 652.35 461.08 650.94 467.19 649.00 473.13 C 644.72 459.35 635.58 447.61 624.86 438.18 C 613.34 428.88 601.02 420.35 587.22 414.78 C 581.16 412.63 576.23 408.42 570.72 405.25 C 558.57 398.15 545.72 391.84 531.90 388.78 C 522.30 386.57 512.39 387.38 502.64 387.22 C 518.53 380.47 534.41 373.49 551.09 368.87 C 573.10 362.41 595.84 356.52 618.97 357.75 C 626.35 357.80 632.65 361.93 638.93 365.28 C 640.14 365.85 641.41 366.95 642.82 366.19 C 642.62 364.65 641.86 363.29 640.60 362.39 C 637.59 359.97 634.34 357.85 631.00 355.92 C 626.16 353.09 620.40 352.89 614.96 352.58 C 591.87 352.00 569.32 357.98 547.42 364.65 C 532.20 369.13 517.61 375.47 503.35 382.35 C 498.96 384.36 495.03 387.52 490.14 388.26 C 490.56 375.49 492.12 362.60 496.60 350.57 C 497.04 348.89 498.43 346.80 496.80 345.32 C 494.50 344.95 492.38 346.39 490.20 346.91 C 489.27 336.00 497.33 325.83 493.89 314.93 C 490.74 306.62 484.91 299.51 478.39 293.59 C 472.47 287.73 469.20 279.29 469.54 270.98 C 469.68 267.06 470.32 263.08 469.37 259.21 C 462.85 269.69 464.54 283.64 471.22 293.64 C 464.49 289.93 457.69 286.18 451.82 281.18 C 447.85 277.87 445.14 273.37 441.41 269.83 C 441.32 271.32 441.09 272.90 441.74 274.32 C 444.40 280.75 449.41 285.89 454.99 289.90 C 462.16 295.01 469.81 300.20 478.77 301.29 C 480.69 303.60 482.58 305.95 484.47 308.30 C 474.20 308.03 464.01 310.10 454.35 313.46 C 444.05 317.05 433.55 320.44 424.17 326.14 C 418.07 322.56 411.90 319.08 406.31 314.73 C 391.47 303.85 380.14 289.17 368.10 275.45 C 384.12 267.42 400.86 259.23 419.10 258.49 C 422.05 258.23 425.15 258.31 427.91 257.08 C 430.27 255.68 431.37 253.01 432.90 250.85 C 436.60 245.35 440.09 239.50 445.36 235.32 C 453.01 229.13 461.77 224.24 471.23 221.41 C 477.23 219.37 483.48 218.17 489.55 216.35 C 497.63 214.27 501.36 206.01 505.47 199.56 C 507.05 206.11 509.07 212.55 510.37 219.17 C 511.16 223.03 511.27 227.02 512.24 230.84 C 512.57 232.52 514.46 233.15 515.84 232.18 C 517.80 228.53 518.18 224.29 519.30 220.34 C 521.38 212.04 524.72 204.12 527.12 195.90 C 530.22 186.20 532.14 176.03 536.90 166.93 C 540.83 158.68 547.34 151.96 554.45 146.36 C 560.51 141.42 568.85 142.15 576.16 142.43 C 579.80 142.87 582.51 140.03 585.38 138.31 M 636.26 265.24 C 626.98 271.64 618.63 279.50 608.41 284.45 C 599.69 289.00 591.18 293.95 582.45 298.48 C 565.79 307.47 548.02 314.54 532.43 325.43 C 528.23 328.47 523.68 331.75 521.67 336.73 C 520.76 338.81 521.06 341.74 523.27 342.87 C 526.94 344.41 531.24 343.50 534.61 341.60 C 538.14 339.57 541.74 337.21 543.64 333.47 C 537.14 334.76 532.13 340.85 525.04 339.48 C 528.07 333.74 533.79 330.38 539.04 326.97 C 547.74 321.37 557.08 316.91 566.30 312.26 C 578.98 306.26 591.30 299.54 603.43 292.50 C 609.75 288.83 616.54 285.89 622.30 281.32 C 628.52 276.50 634.72 271.65 641.03 266.95 C 644.92 263.82 649.47 261.08 651.68 256.39 C 645.57 257.28 641.17 261.96 636.26 265.24 M 619.82 331.80 C 599.13 338.99 577.35 342.21 556.41 348.55 C 546.23 351.54 536.46 355.73 526.60 359.63 C 520.40 362.25 513.94 364.53 508.41 368.45 C 506.66 369.54 505.98 371.54 505.15 373.30 C 517.53 367.56 530.41 363.01 543.18 358.20 C 563.55 350.54 585.12 346.99 606.02 341.14 C 620.01 337.59 633.40 331.95 646.01 324.96 C 647.31 324.11 649.41 323.23 648.43 321.31 C 638.26 322.79 629.41 328.48 619.82 331.80 Z" />
		<path fill="var(--shirt-color, grey)" opacity="1.00"
			d=" M 596.73 423.77 C 611.23 432.97 625.82 443.06 635.67 457.43 C 640.63 464.13 643.77 472.01 645.50 480.13 C 641.34 487.35 637.10 494.51 632.47 501.43 C 634.71 485.54 633.34 468.31 624.60 454.46 C 616.80 443.00 607.28 432.75 596.73 423.77 Z" />
	</g>
	<g id="#2b3dcdff">
		<path fill="var(--pants-color, grey)" opacity="1.00"
			d=" M 462.97 396.40 C 476.79 393.48 490.90 391.99 505.02 391.60 C 514.86 391.48 524.90 391.64 534.41 394.47 C 549.82 399.59 564.35 407.16 577.87 416.12 C 591.04 424.97 603.45 435.16 613.65 447.38 C 627.57 463.62 632.64 487.06 626.47 507.58 C 622.26 526.45 611.37 543.30 597.12 556.18 C 577.59 573.34 556.19 588.17 534.65 602.65 C 515.80 616.52 495.93 629.02 477.92 644.02 C 476.72 627.25 467.79 611.64 455.60 600.35 C 444.80 591.21 432.55 583.79 419.42 578.50 C 408.86 573.80 397.38 571.53 385.91 570.54 C 378.67 569.83 371.43 570.79 364.20 570.96 C 367.07 565.66 369.85 560.26 373.50 555.44 C 374.49 553.97 376.35 553.64 377.90 553.05 C 383.36 551.38 388.78 549.56 394.32 548.21 C 405.42 545.49 416.96 545.09 427.99 542.13 C 437.01 539.75 443.46 531.67 445.88 522.95 C 448.40 515.04 445.78 506.67 442.63 499.35 C 437.67 487.75 427.57 479.37 417.04 472.95 C 403.97 465.45 389.70 460.28 375.34 455.84 C 369.50 453.99 363.76 451.81 357.79 450.40 C 351.67 448.88 345.29 448.95 339.16 447.46 C 348.92 442.25 359.54 438.97 369.73 434.75 C 383.04 429.72 396.37 424.66 409.00 418.07 C 426.31 409.37 443.82 400.31 462.97 396.40 Z" />
		<path fill="var(--socks-color, grey)" opacity="1.00"
			d=" M 277.89 526.45 C 294.72 524.09 312.97 526.90 326.89 537.13 C 332.37 541.05 336.15 547.06 337.18 553.74 C 333.21 558.99 329.52 564.48 326.09 570.10 C 322.52 576.21 320.29 582.95 317.39 589.37 C 314.66 595.48 312.60 602.06 308.39 607.37 C 303.60 612.96 296.75 616.10 290.26 619.25 C 279.27 624.38 268.25 629.46 257.05 634.10 C 246.73 638.34 237.11 645.12 231.57 655.03 C 226.85 652.32 221.53 650.60 216.06 650.73 C 206.69 650.36 197.53 654.78 188.18 652.58 C 184.01 651.79 180.94 648.68 177.99 645.88 C 184.95 641.23 190.01 634.41 194.27 627.33 C 203.70 612.93 211.86 597.74 221.60 583.56 C 233.12 568.57 247.97 556.55 259.92 541.92 C 263.55 537.52 267.04 533.00 271.00 528.89 C 272.69 526.89 275.52 526.92 277.89 526.45 Z" />
		<path fill="var(--socks-color, grey)" opacity="1.00"
			d=" M 335.26 703.86 C 353.94 697.98 374.02 695.84 393.38 699.32 C 399.97 700.43 406.27 702.87 412.05 706.21 C 411.23 715.13 410.86 724.14 411.97 733.06 C 413.87 748.65 413.54 764.38 413.53 780.05 C 413.43 798.69 409.55 817.04 404.85 835.00 C 399.85 852.36 395.07 869.81 391.47 887.53 C 388.40 902.83 383.08 917.83 383.16 933.62 C 377.61 935.17 372.69 938.21 367.44 940.47 C 363.27 942.23 357.95 942.82 354.20 939.84 C 351.37 937.20 349.71 933.62 347.59 930.45 C 342.19 921.71 334.71 914.34 326.03 908.87 C 333.65 886.84 337.21 863.15 334.47 839.90 C 333.49 831.30 332.98 822.66 332.70 814.01 C 332.42 803.62 331.14 793.30 330.72 782.93 C 329.91 767.30 330.79 751.65 331.88 736.06 C 332.96 725.32 334.81 714.66 335.26 703.86 Z" />
	</g>
	<g id="#4d4d4dff">
		<path fill="#4d4d4d" opacity="1.00"
			d=" M 146.17 666.21 C 155.09 659.91 163.29 652.40 173.34 647.88 C 177.24 652.12 181.67 656.40 187.57 657.47 C 199.06 660.41 210.39 653.49 221.90 656.12 C 229.42 657.65 235.53 663.33 238.95 670.04 C 241.28 674.64 239.69 679.87 238.82 684.63 C 232.81 678.74 223.95 678.28 216.02 678.71 C 207.19 679.26 198.74 682.22 190.72 685.81 C 174.15 693.22 157.70 701.03 140.41 706.68 C 124.85 711.94 108.68 716.08 94.39 724.43 C 89.98 726.85 86.82 730.85 84.08 734.97 C 83.43 729.19 82.95 722.69 86.68 717.77 C 91.56 711.20 99.54 708.00 104.88 701.86 C 117.17 688.38 131.53 677.01 146.17 666.21 Z" />
		<path fill="#4d4d4d" opacity="1.00"
			d=" M 192.60 690.51 C 202.04 686.06 212.42 683.09 222.94 683.76 C 227.46 684.01 232.66 684.65 235.66 688.47 C 237.21 690.06 235.13 691.92 234.42 693.42 C 225.93 705.37 211.61 712.44 197.14 713.55 C 182.90 714.81 168.91 718.29 155.70 723.75 C 146.01 727.75 136.71 732.61 127.30 737.22 C 122.10 739.76 116.59 741.84 110.79 742.37 C 102.81 742.95 94.54 743.12 86.97 740.14 C 88.29 736.98 89.69 733.67 92.49 731.53 C 98.18 727.03 105.06 724.41 111.72 721.70 C 125.97 716.31 140.79 712.60 155.01 707.10 C 167.79 702.15 180.20 696.32 192.60 690.51 Z" />
		<path fill="#4d4d4d" opacity="1.00"
			d=" M 323.30 914.30 C 324.46 913.75 325.52 915.01 326.53 915.45 C 334.62 920.99 340.74 928.87 345.91 937.09 C 348.31 940.95 351.37 944.92 356.05 946.01 C 364.21 948.48 372.18 944.08 379.07 940.15 C 380.83 939.42 382.67 937.79 384.65 938.27 C 388.95 945.34 389.92 953.80 390.86 961.86 C 391.30 966.84 392.09 971.96 390.96 976.90 C 390.10 980.58 386.23 982.09 382.86 982.55 C 367.37 985.08 351.63 983.20 336.03 984.04 C 317.40 984.26 298.80 985.34 280.27 987.23 C 263.66 988.09 246.70 989.82 230.36 985.70 C 227.69 984.99 224.63 983.15 224.58 980.06 C 224.70 976.84 226.88 974.21 229.06 972.05 C 233.19 968.10 238.39 965.41 243.86 963.89 C 256.42 960.41 269.48 958.09 281.19 952.15 C 293.61 945.81 302.36 934.65 311.49 924.49 C 315.06 920.74 318.43 916.41 323.30 914.30 Z" />
	</g>
</svg>