<?xml version="1.0" encoding="UTF-8" ?>
<!DOCTYPE svg PUBLIC "-//W3C//DTD SVG 1.1//EN" "http://www.w3.org/Graphics/SVG/1.1/DTD/svg11.dtd">
<svg width="1000pt" height="1000pt" viewBox="0 0 1000 1000" version="1.1" xmlns="http://www.w3.org/2000/svg">
	<g id="#020202ff">
		<path fill="#020202" opacity="1.00"
			d=" M 351.75 5.78 C 368.52 3.47 386.23 7.19 400.28 16.76 C 413.66 25.82 423.13 40.64 425.22 56.71 C 426.54 66.10 426.23 75.63 425.43 85.05 C 424.90 90.43 424.46 95.99 421.99 100.91 C 420.11 104.62 420.48 108.91 420.63 112.94 C 421.43 124.47 424.36 136.26 431.26 145.72 C 433.63 148.73 436.74 152.10 440.92 151.93 C 446.88 152.01 452.87 151.74 458.76 150.74 C 478.38 147.80 499.23 149.76 517.05 158.88 C 529.41 165.68 540.26 174.87 550.56 184.43 C 558.05 191.28 564.38 199.26 571.59 206.39 C 583.25 218.19 597.10 227.46 609.46 238.45 C 613.52 242.18 618.99 245.31 620.23 251.12 C 631.27 259.51 640.06 270.41 650.19 279.82 C 655.31 284.50 661.96 286.83 668.08 289.87 C 675.40 293.26 682.21 297.61 688.99 301.96 C 699.17 308.93 708.28 317.31 717.99 324.90 C 736.83 340.10 756.22 355.64 769.26 376.38 C 776.07 377.31 782.26 380.46 788.07 383.97 C 796.21 388.89 805.27 392.03 814.43 394.44 C 823.19 396.81 832.03 399.93 839.05 405.88 C 847.74 413.25 854.15 424.35 853.07 436.05 C 852.07 447.26 849.05 458.30 844.65 468.64 C 841.25 476.51 831.40 475.48 824.40 476.87 C 820.71 470.19 819.89 462.44 817.18 455.37 C 814.18 454.03 811.76 451.82 809.26 449.77 C 806.10 447.13 801.78 447.23 797.92 446.80 C 789.91 446.09 781.60 443.02 776.46 436.55 C 771.94 430.93 770.34 423.75 767.84 417.14 C 766.25 412.86 764.49 408.23 760.47 405.65 C 753.55 400.96 746.39 396.56 738.71 393.24 C 717.03 382.19 693.10 376.90 670.36 368.59 C 660.86 365.36 654.31 357.25 648.72 349.33 C 640.98 339.25 633.24 328.42 621.73 322.36 C 613.47 317.87 603.98 316.12 595.99 311.08 C 591.24 308.04 586.77 304.59 582.38 301.05 C 579.46 305.68 577.32 310.96 573.16 314.69 C 566.31 304.26 559.47 293.71 550.67 284.77 C 551.95 304.83 551.98 325.00 549.95 345.00 C 548.87 354.67 546.91 364.27 543.59 373.43 C 541.54 378.02 541.97 383.13 542.57 387.99 C 543.85 399.55 550.40 409.64 557.49 418.53 C 569.24 432.77 581.70 446.44 592.96 461.08 C 589.59 462.82 586.13 464.37 582.68 465.93 C 587.90 471.28 592.82 477.26 595.39 484.38 C 597.38 490.96 596.94 498.22 594.69 504.68 C 593.71 506.15 594.11 508.02 595.62 508.97 C 598.90 512.06 600.67 516.31 602.64 520.28 C 607.51 530.34 611.28 540.96 613.52 551.92 C 615.59 562.47 617.14 573.17 620.47 583.42 C 623.09 591.68 628.70 598.58 631.37 606.82 C 634.07 614.65 635.00 623.04 638.48 630.62 C 642.14 638.86 646.28 646.98 651.89 654.09 C 652.83 655.47 654.17 656.98 653.81 658.81 C 653.11 661.40 651.26 663.46 649.76 665.63 C 651.00 667.35 652.22 669.11 653.41 670.88 C 655.89 662.46 662.13 656.11 667.25 649.25 C 672.57 642.30 679.10 636.43 685.33 630.32 C 696.56 618.58 712.39 612.90 727.69 608.69 C 738.15 605.07 749.23 604.00 759.86 601.02 C 770.48 598.02 780.98 594.60 791.52 591.29 C 793.04 581.65 797.35 572.24 804.32 565.33 C 810.47 559.13 819.89 557.24 828.26 558.87 C 834.24 560.85 838.75 565.55 842.80 570.18 C 852.30 580.39 858.57 593.58 870.07 601.89 C 883.60 611.71 898.77 619.41 910.80 631.19 C 914.52 634.72 916.32 639.69 917.49 644.58 C 919.94 655.86 923.06 667.46 920.95 679.07 C 919.83 684.90 917.68 691.15 912.63 694.71 C 908.54 697.64 902.77 696.98 898.75 694.27 C 894.00 691.50 890.24 687.45 886.79 683.25 C 882.25 678.01 876.42 674.14 870.77 670.22 C 862.92 664.84 853.08 663.86 844.99 658.96 C 837.65 654.47 829.97 650.56 822.29 646.70 C 819.99 645.62 817.49 644.24 814.90 645.12 C 805.56 646.94 798.02 653.15 790.02 657.88 C 782.95 662.43 774.98 665.86 769.15 672.09 C 765.11 676.39 761.02 680.65 756.66 684.63 C 746.14 695.00 733.89 703.37 721.76 711.71 C 713.39 718.08 704.76 724.09 695.98 729.87 C 690.59 733.50 684.90 736.73 680.05 741.10 C 670.36 748.90 660.96 757.71 649.06 762.01 C 639.17 765.73 628.30 763.08 618.94 759.08 C 602.88 752.07 589.15 740.22 578.96 726.05 C 575.03 720.65 571.74 714.70 570.04 708.21 C 566.75 707.50 563.15 707.50 560.16 705.84 C 557.22 703.29 555.42 699.73 553.53 696.40 C 548.70 686.87 544.35 677.09 539.16 667.74 C 535.14 660.35 527.69 655.55 524.02 647.93 C 517.66 634.77 508.57 623.09 498.25 612.81 C 485.81 623.12 475.20 635.41 463.22 646.23 C 454.09 654.81 444.30 662.63 434.74 670.70 C 428.67 675.66 422.94 681.05 416.47 685.50 C 414.77 686.77 412.08 687.22 410.57 685.41 C 409.81 682.45 410.45 679.36 410.48 676.37 C 404.77 681.69 398.62 686.53 392.99 691.96 C 385.74 699.06 377.37 705.37 372.46 714.48 C 380.45 727.85 385.69 742.77 388.70 758.02 C 392.64 777.64 387.08 797.33 386.40 816.97 C 385.22 835.20 389.09 853.22 393.46 870.80 C 397.64 886.56 400.07 902.71 403.87 918.55 C 405.06 921.63 407.59 923.97 409.06 926.93 C 415.90 939.62 422.79 953.72 420.29 968.57 C 418.99 974.44 416.71 981.28 410.74 983.91 C 404.94 986.65 398.24 987.35 391.98 986.04 C 385.67 984.78 379.44 982.93 372.98 982.59 C 362.98 982.01 353.00 983.37 343.04 984.01 C 329.00 985.08 314.97 987.81 300.85 986.57 C 290.02 985.83 279.29 983.67 269.04 980.10 C 262.17 977.61 255.22 974.28 250.49 968.52 C 247.92 965.30 248.64 960.76 250.30 957.30 C 252.47 952.83 256.82 949.94 261.31 948.18 C 268.12 945.46 275.33 943.99 282.50 942.58 C 289.00 941.29 294.24 937.01 300.08 934.18 C 307.94 930.10 316.94 928.40 324.28 923.29 C 329.06 919.87 333.49 915.99 337.77 911.97 C 331.43 891.87 327.28 871.14 320.65 851.12 C 315.06 834.51 308.96 818.07 303.50 801.42 C 294.55 773.39 291.39 742.79 298.83 714.06 C 295.97 705.73 287.66 700.06 286.69 691.00 C 285.47 681.67 289.49 672.78 293.76 664.75 C 298.66 656.17 304.82 648.40 310.08 640.05 C 314.88 632.24 320.36 624.90 325.47 617.30 C 322.15 616.65 318.37 616.70 315.62 614.46 C 314.05 612.55 315.34 610.00 315.91 607.95 C 320.51 596.66 326.59 585.84 334.70 576.68 C 342.63 568.16 346.35 556.74 353.89 547.92 C 359.82 540.96 366.56 533.51 376.02 531.81 C 372.71 527.81 369.71 523.55 366.89 519.19 C 364.80 516.24 365.99 512.45 364.77 509.22 C 360.70 497.90 358.51 485.98 357.15 474.05 C 356.27 469.11 357.70 464.20 360.05 459.89 C 357.38 458.00 354.67 455.94 353.12 452.97 C 349.45 446.36 349.90 438.53 348.70 431.28 C 346.41 409.25 346.20 387.05 346.16 364.93 C 345.10 360.55 343.20 356.38 342.63 351.87 C 341.61 346.11 342.01 340.23 341.38 334.45 C 339.11 326.72 335.86 319.16 335.15 311.05 C 334.64 305.03 334.24 299.00 333.69 292.99 C 328.99 289.90 324.83 286.01 320.05 283.08 C 312.79 282.38 304.78 281.80 298.06 285.11 C 292.81 289.14 287.15 292.93 280.54 294.28 C 266.22 297.31 251.64 299.38 236.98 299.54 C 217.91 299.78 198.69 300.84 179.73 298.14 C 170.51 297.00 161.32 294.34 151.97 295.37 C 148.62 296.34 145.67 298.41 142.21 299.09 C 133.26 301.13 124.04 299.78 114.97 299.82 C 110.59 299.47 106.06 300.33 101.80 299.14 C 99.79 296.92 101.82 294.16 103.73 292.71 C 109.69 288.09 117.09 286.06 123.91 283.09 C 114.16 282.64 104.88 286.12 95.66 288.78 C 88.07 291.01 80.57 295.58 72.40 294.18 C 69.27 295.70 65.09 299.08 61.81 296.20 C 60.28 292.78 62.95 289.43 64.55 286.57 C 62.05 283.01 63.90 278.88 65.70 275.48 C 62.90 276.42 59.39 278.41 56.69 276.25 C 54.24 273.55 56.78 269.97 58.86 267.92 C 68.55 258.44 79.71 249.45 93.20 246.30 C 104.47 243.43 116.70 244.74 127.14 249.84 C 137.37 254.37 147.63 260.03 159.09 260.35 C 165.44 260.46 171.87 260.76 178.17 259.70 C 195.91 255.87 212.71 248.63 230.44 244.77 C 240.60 242.55 251.20 242.50 261.40 244.47 C 266.18 239.55 272.50 236.52 279.08 234.80 C 276.96 231.39 275.40 227.68 274.31 223.83 C 279.73 220.86 285.33 218.14 290.15 214.21 C 300.78 206.13 308.78 195.28 316.69 184.67 C 322.74 176.77 328.13 168.29 335.37 161.38 C 328.53 154.59 323.12 146.34 319.78 137.29 C 314.70 123.76 311.57 109.43 311.05 94.96 C 310.58 85.64 311.13 76.32 311.18 66.99 C 308.92 67.89 306.63 68.71 304.33 69.46 C 303.41 61.39 304.13 53.18 306.27 45.35 C 307.90 38.42 310.62 31.66 315.07 26.05 C 323.96 14.76 337.57 7.61 351.75 5.78 M 367.00 62.71 C 366.01 57.68 366.23 52.52 366.27 47.42 C 358.17 53.31 354.34 63.32 346.00 68.94 C 346.96 62.80 347.10 56.59 346.87 50.39 C 343.40 53.43 340.29 56.84 337.31 60.35 C 333.75 64.48 328.95 68.02 323.27 68.00 C 326.33 61.71 323.25 54.52 326.57 48.33 C 322.10 51.05 318.11 54.99 316.43 60.04 C 316.36 66.66 316.84 73.27 316.80 79.89 C 320.78 79.57 324.96 78.87 328.83 80.13 C 331.80 82.88 333.68 86.56 336.28 89.63 C 340.17 93.71 340.33 100.38 337.96 105.24 C 335.59 102.71 336.14 99.00 335.56 95.85 C 329.50 94.11 323.27 93.08 316.97 94.12 C 317.61 110.40 320.89 126.69 327.20 141.73 C 331.74 151.12 337.85 161.01 347.98 165.03 C 354.44 168.02 362.27 166.87 368.23 163.19 C 376.25 158.97 383.19 152.72 388.01 145.02 C 390.14 141.92 391.53 137.91 395.25 136.33 C 395.20 139.81 393.72 142.97 392.08 145.96 C 386.29 158.30 374.42 167.20 361.53 171.04 C 365.06 183.98 375.23 193.93 386.70 200.25 C 390.50 202.27 394.55 204.67 399.01 204.34 C 402.62 203.35 405.37 200.61 407.86 197.95 C 414.48 190.79 418.51 181.81 423.54 173.57 C 427.27 167.71 430.45 161.47 434.88 156.08 C 430.37 153.39 426.68 149.49 424.11 144.94 C 418.04 134.18 415.46 121.62 415.89 109.33 C 414.12 111.72 412.19 114.02 409.75 115.77 C 408.65 113.61 407.69 111.07 408.74 108.69 C 410.40 104.57 413.30 100.99 414.36 96.61 C 416.07 90.49 415.52 82.88 410.56 78.38 C 408.40 76.51 404.67 74.82 402.33 77.31 C 400.02 79.93 399.95 83.72 399.72 87.03 C 399.75 97.04 400.08 107.06 399.63 117.08 C 399.23 120.55 399.66 124.50 397.68 127.54 C 395.92 129.31 394.16 126.93 394.20 125.14 C 393.40 114.99 394.14 104.54 391.21 94.67 C 389.81 91.83 387.55 88.42 384.05 88.29 C 374.17 87.90 364.71 91.51 354.93 92.13 C 349.44 92.53 346.54 86.97 343.83 83.12 C 342.31 81.22 343.86 78.80 346.06 78.55 C 359.43 75.22 373.39 76.14 387.01 74.78 C 387.50 71.83 387.84 68.85 388.26 65.88 C 388.70 62.44 390.58 59.45 391.89 56.30 C 388.68 58.59 385.96 61.44 383.17 64.20 C 383.37 57.56 385.13 51.01 388.19 45.11 C 379.41 48.69 373.91 56.69 367.00 62.71 M 461.96 154.93 C 455.38 155.94 448.73 156.59 442.07 156.20 C 436.05 162.40 431.69 169.93 427.27 177.30 C 422.30 186.09 417.86 195.42 410.68 202.68 C 407.31 206.10 402.98 209.03 398.04 209.18 C 393.09 209.42 388.84 206.49 384.65 204.29 C 372.23 197.19 361.16 185.77 358.38 171.30 C 354.24 170.94 349.84 170.99 346.11 168.91 C 343.77 167.62 341.55 166.11 339.30 164.68 C 327.33 176.78 318.68 191.63 307.22 204.18 C 299.12 213.29 289.46 221.45 277.90 225.71 C 283.71 234.22 290.24 242.22 296.78 250.19 C 307.96 263.96 320.67 276.38 333.55 288.53 C 336.32 275.42 332.77 262.14 333.84 248.95 C 337.71 254.29 336.97 261.23 337.64 267.45 C 338.32 261.30 339.70 255.22 339.85 249.02 C 339.95 245.52 339.87 241.99 340.63 238.55 C 341.60 240.23 342.76 241.91 343.02 243.90 C 344.90 256.79 341.50 269.56 338.81 282.07 C 336.89 290.34 338.80 298.76 339.23 307.08 C 339.45 311.90 340.24 316.69 341.73 321.30 C 346.46 336.70 352.75 351.60 360.14 365.91 C 364.49 374.74 370.25 382.80 376.71 390.20 C 385.67 400.56 393.62 411.80 400.20 423.81 C 401.78 426.70 403.53 429.93 402.31 433.31 C 396.77 425.90 392.33 417.70 386.70 410.33 C 378.92 398.93 368.28 389.76 361.08 377.94 C 355.38 368.68 351.43 358.50 346.83 348.69 C 347.35 355.72 351.65 361.95 351.27 369.07 C 351.01 394.74 351.80 420.54 355.85 445.93 C 356.57 451.64 361.62 454.69 365.60 458.05 C 365.17 462.56 360.76 466.08 361.37 470.95 C 362.23 483.37 364.64 495.68 367.94 507.68 C 370.59 504.13 373.37 500.65 376.54 497.54 C 387.46 486.69 399.58 477.15 411.46 467.37 C 425.09 456.03 436.78 442.61 448.62 429.47 C 449.67 428.57 450.71 426.95 452.38 427.79 C 451.39 432.03 448.18 435.20 445.61 438.54 C 436.53 449.41 427.12 460.08 416.51 469.49 C 404.50 479.80 391.94 489.53 380.66 500.66 C 376.95 504.76 372.84 508.85 370.78 514.07 C 372.89 519.52 376.91 524.01 379.47 529.28 C 387.99 526.78 396.23 523.26 405.04 521.79 C 425.35 518.05 445.74 513.84 464.98 506.11 C 481.33 499.51 497.57 492.61 513.97 486.10 C 525.65 481.70 537.53 477.83 549.18 473.36 C 561.90 468.35 574.90 464.13 587.86 459.77 C 581.57 453.15 575.40 446.42 569.46 439.50 C 560.71 428.88 550.88 418.91 544.42 406.65 C 540.90 400.25 539.30 393.03 538.69 385.81 C 535.55 393.46 532.18 401.06 530.37 409.16 C 529.04 414.29 528.86 419.60 528.03 424.81 C 524.14 422.13 525.12 416.97 525.50 412.95 C 527.43 396.92 536.06 382.91 540.49 367.59 C 543.87 356.62 545.24 345.16 546.12 333.76 C 537.16 343.11 525.43 348.93 514.46 355.52 C 503.20 362.58 491.82 369.92 482.89 379.89 C 479.84 383.15 477.65 387.06 474.82 390.49 C 474.53 387.73 474.80 384.86 476.47 382.55 C 484.84 369.66 497.52 360.40 510.43 352.44 C 522.66 344.93 536.53 339.45 546.41 328.67 C 547.18 312.62 546.77 296.54 545.44 280.54 C 534.51 277.56 523.20 276.15 511.90 275.61 C 509.35 275.51 506.86 274.89 504.45 274.09 C 506.84 273.14 509.32 272.24 511.93 272.21 C 520.41 271.88 528.85 273.05 537.20 274.37 C 530.36 270.22 523.53 265.99 516.16 262.82 C 512.28 261.11 508.10 260.23 504.14 258.76 C 503.11 258.06 499.70 257.49 502.02 255.73 C 516.50 256.31 529.72 263.55 541.61 271.32 C 555.50 280.28 565.68 293.97 573.08 308.54 C 575.69 303.49 578.46 298.47 582.06 294.03 C 588.44 286.11 594.76 278.13 601.65 270.64 C 607.09 264.36 612.43 257.83 616.08 250.31 C 605.65 240.88 594.74 231.98 583.69 223.29 C 572.96 214.74 563.69 204.60 554.54 194.43 C 543.99 183.57 532.39 173.63 519.59 165.51 C 502.59 154.81 481.55 152.60 461.96 154.93 M 264.52 245.36 C 267.43 246.67 270.53 247.81 272.97 249.95 C 274.26 250.97 275.40 253.48 273.12 254.06 C 268.23 251.75 263.61 248.55 258.09 247.96 C 239.57 244.90 221.60 251.92 204.19 257.23 C 189.64 261.93 174.31 264.38 159.02 264.39 C 149.52 264.58 140.67 260.69 132.21 256.83 C 126.54 254.32 121.05 251.16 114.89 250.01 C 108.20 248.53 101.17 248.67 94.55 250.42 C 80.74 254.02 69.08 263.20 59.58 273.54 C 66.49 271.77 72.55 267.54 77.45 262.45 C 80.51 259.68 83.34 256.25 87.42 255.00 C 87.62 255.46 88.03 256.38 88.23 256.85 C 85.58 260.93 81.49 263.75 78.13 267.20 C 73.27 272.08 67.72 277.03 66.06 284.01 C 72.91 277.90 78.44 270.29 86.26 265.28 C 90.06 262.97 93.80 260.24 98.26 259.36 C 95.98 262.39 92.75 264.42 89.91 266.85 C 85.39 270.67 80.97 274.62 76.87 278.89 C 72.26 283.64 66.96 288.05 64.29 294.27 C 66.36 293.61 68.40 292.86 70.40 292.04 C 71.19 290.37 71.99 288.64 73.48 287.48 C 81.13 281.20 89.43 275.66 98.37 271.37 C 100.33 270.60 102.43 268.61 104.62 269.84 C 103.38 272.81 100.22 274.09 97.71 275.75 C 90.11 280.14 82.77 284.97 75.91 290.46 C 85.20 288.46 93.76 284.09 103.04 282.04 C 110.75 280.24 119.09 277.16 126.88 280.17 C 129.36 280.84 130.31 284.43 127.58 285.46 C 119.84 288.83 111.36 290.88 104.59 296.19 C 113.73 296.09 122.85 296.77 131.97 296.96 C 137.86 297.09 143.94 296.10 149.06 293.06 C 153.00 290.89 155.88 287.34 159.51 284.75 C 159.22 286.86 158.34 288.79 157.21 290.57 C 164.23 290.71 171.14 292.14 178.07 293.13 C 188.94 294.96 200.01 295.19 211.01 295.13 C 230.74 294.61 250.66 294.76 270.08 290.74 C 275.73 289.55 281.61 288.73 286.70 285.84 C 291.08 283.68 294.55 279.77 299.47 278.74 C 304.74 277.65 310.17 278.12 315.49 278.58 C 301.95 266.32 290.89 251.67 280.45 236.77 C 274.90 239.17 269.64 242.16 264.52 245.36 M 604.67 273.57 C 597.34 281.23 590.96 289.72 584.40 298.04 C 588.75 300.42 592.83 303.24 596.89 306.08 C 604.46 311.34 613.70 313.09 621.88 317.12 C 635.48 323.47 644.57 335.89 653.36 347.54 C 658.04 354.49 664.01 361.22 672.28 363.77 C 689.88 369.73 707.79 374.81 725.12 381.56 C 736.36 386.27 746.84 392.56 757.37 398.66 C 761.41 401.13 765.74 403.69 768.14 407.94 C 771.87 414.69 773.24 422.43 776.58 429.35 C 779.23 434.95 784.35 439.19 790.26 440.96 C 795.42 442.90 801.04 442.48 806.31 443.89 C 810.11 444.88 812.87 447.84 815.60 450.47 C 814.10 446.55 811.27 443.34 807.41 441.63 C 800.82 438.49 795.99 432.77 792.27 426.65 C 791.17 424.87 790.98 422.73 790.67 420.73 C 794.79 424.83 797.95 429.84 802.65 433.38 C 806.97 437.47 813.48 439.06 816.56 444.43 C 821.16 453.41 822.20 463.65 825.77 473.01 C 828.52 465.31 827.74 456.87 826.61 448.93 C 825.41 441.64 821.37 434.79 822.32 427.21 C 825.48 431.83 826.57 437.46 828.53 442.63 C 831.35 450.61 830.94 459.15 831.35 467.47 C 833.67 455.41 834.64 443.15 835.51 430.92 C 835.59 428.92 836.19 427.01 836.96 425.18 C 839.98 436.30 837.77 448.01 837.05 459.31 C 838.88 455.30 840.53 451.20 841.89 447.01 C 843.75 441.58 842.44 435.78 842.84 430.19 C 844.03 431.26 845.49 432.34 845.71 434.08 C 846.70 438.77 847.31 443.81 845.68 448.45 C 843.05 456.60 839.12 464.27 834.94 471.73 C 837.96 470.35 840.86 468.29 841.90 464.97 C 845.33 455.87 848.08 446.44 849.38 436.79 C 851.26 426.54 844.71 417.12 837.71 410.34 C 826.77 400.30 811.27 399.42 798.05 394.11 C 789.52 391.13 782.53 385.10 774.12 381.86 C 768.70 379.24 762.52 380.79 756.77 379.82 C 759.40 378.08 762.30 376.81 765.40 376.13 C 752.31 358.17 735.23 343.75 717.98 329.97 C 705.08 319.86 693.01 308.54 678.79 300.25 C 671.29 295.33 662.96 291.97 654.98 287.98 C 649.13 285.17 644.69 280.32 640.21 275.76 C 633.23 268.39 625.94 261.32 618.69 254.22 C 614.84 261.23 610.16 267.76 604.67 273.57 M 531.20 485.35 C 512.38 491.52 494.25 499.57 475.86 506.88 C 456.35 515.29 435.69 520.72 414.81 524.48 C 401.36 526.59 388.54 531.27 375.72 535.69 C 368.47 537.98 363.37 543.98 358.49 549.46 C 350.37 558.73 346.38 570.89 337.77 579.78 C 329.47 588.84 323.70 599.83 318.93 611.07 C 337.71 613.81 357.76 609.34 375.58 617.49 C 390.87 625.01 403.90 637.95 410.09 653.99 C 413.61 662.29 414.41 671.38 415.33 680.26 C 427.39 669.64 439.73 659.37 451.84 648.83 C 463.93 638.29 475.00 626.64 487.20 616.24 C 490.56 613.54 493.80 610.40 497.95 608.97 C 500.84 610.22 503.10 612.53 505.41 614.62 C 514.92 624.07 522.88 635.09 528.84 647.10 C 531.94 653.08 537.57 657.14 541.21 662.74 C 549.65 675.88 554.16 691.25 563.55 703.80 C 570.72 704.96 578.05 704.06 584.95 701.95 C 600.41 697.31 614.70 689.23 627.46 679.42 C 635.30 673.03 643.12 666.27 648.92 657.91 C 642.39 649.98 637.57 640.79 633.50 631.40 C 630.36 624.24 629.55 616.38 627.08 609.01 C 624.73 601.56 619.73 595.34 617.00 588.05 C 611.31 573.39 610.93 557.39 606.38 542.42 C 603.40 532.43 599.19 522.82 594.24 513.65 C 593.05 511.18 590.70 508.94 591.07 506.00 C 591.60 499.43 593.41 492.54 590.78 486.17 C 587.81 479.15 582.27 473.72 577.57 467.87 C 562.01 473.44 546.82 479.97 531.20 485.35 M 812.20 566.21 C 803.92 571.43 800.31 581.07 797.22 589.88 C 802.47 588.74 807.62 587.05 812.93 586.16 C 816.52 585.37 819.80 587.48 822.60 589.46 C 831.47 595.96 837.80 605.70 840.91 616.19 C 842.06 620.84 843.05 626.67 839.52 630.56 C 835.22 634.16 828.82 632.32 824.26 635.24 C 823.12 637.37 823.33 639.92 823.01 642.26 C 831.05 645.35 838.70 649.36 846.02 653.88 C 851.42 657.24 857.45 659.33 863.38 661.53 C 871.18 664.42 877.76 669.67 884.26 674.72 C 890.99 679.93 895.31 688.03 903.20 691.76 C 907.45 693.61 911.95 690.35 913.49 686.43 C 917.50 676.88 916.73 666.11 914.78 656.17 C 913.63 650.82 912.79 645.35 910.79 640.23 C 909.03 635.66 904.86 632.78 901.25 629.75 C 894.60 624.25 887.37 619.51 880.03 614.99 C 872.16 610.05 864.04 605.16 857.80 598.17 C 848.11 587.50 841.13 574.36 829.75 565.27 C 824.64 560.97 817.35 563.17 812.20 566.21 M 761.81 604.98 C 752.90 607.71 743.58 608.75 734.64 611.38 C 724.88 614.51 714.88 617.05 705.65 621.63 C 697.31 625.00 690.81 631.37 684.53 637.60 C 674.93 646.31 667.20 656.79 659.41 667.08 C 667.99 671.51 672.49 680.64 675.43 689.40 C 680.13 704.09 681.31 720.01 678.44 735.19 C 684.21 730.58 690.65 726.91 696.77 722.78 C 707.65 715.74 717.91 707.79 728.85 700.84 C 742.33 691.97 754.11 680.86 765.17 669.18 C 772.14 661.65 781.84 657.75 790.30 652.27 C 798.86 647.08 807.49 640.24 818.04 640.59 C 818.70 637.05 818.99 632.59 822.58 630.70 C 826.92 628.57 831.95 628.82 836.51 627.33 C 836.76 623.51 836.47 619.63 835.10 616.03 C 831.57 606.22 825.07 597.53 816.82 591.17 C 815.85 590.22 814.49 590.16 813.26 590.42 C 795.75 593.92 778.89 599.87 761.81 604.98 M 329.12 617.46 C 324.57 626.22 318.54 634.07 313.59 642.58 C 307.11 653.45 298.50 663.13 293.91 675.07 C 291.52 680.64 290.45 687.00 292.05 692.93 C 294.81 700.63 302.85 705.77 303.28 714.41 C 312.02 718.16 321.52 719.71 330.97 720.12 C 343.86 720.51 356.92 718.53 368.77 713.32 C 371.71 702.94 380.61 696.22 388.11 689.16 C 394.89 682.73 402.61 677.44 410.10 671.89 C 408.65 659.69 403.47 647.93 395.24 638.78 C 386.73 629.41 375.94 621.26 363.22 618.96 C 351.96 617.05 340.49 617.59 329.12 617.46 M 615.19 694.21 C 602.56 701.47 588.70 707.36 574.01 708.31 C 582.48 725.67 596.07 740.39 612.68 750.26 C 621.81 755.61 632.25 759.93 643.04 759.07 C 654.12 756.43 662.97 748.66 671.31 741.31 C 673.02 740.14 673.13 737.96 673.53 736.13 C 676.15 720.28 674.77 703.76 669.53 688.58 C 667.11 681.81 663.62 675.11 657.73 670.75 C 656.93 672.27 656.14 673.80 655.36 675.33 C 657.13 681.13 659.19 686.96 659.54 693.07 C 659.76 695.01 658.23 698.02 656.09 696.12 C 654.49 693.28 653.96 690.00 652.96 686.94 C 651.27 680.92 648.92 675.12 646.32 669.45 C 637.38 679.33 626.65 687.48 615.19 694.21 M 301.80 718.89 C 300.01 733.19 299.07 747.67 300.60 762.05 C 302.80 787.50 312.23 811.45 320.33 835.43 C 325.21 849.08 329.68 862.90 333.02 877.02 C 335.51 887.48 338.63 897.77 341.27 908.19 C 343.42 907.14 345.53 905.69 348.00 905.54 C 352.24 905.86 356.99 908.40 357.84 912.93 C 358.61 917.69 356.56 922.29 356.30 927.02 C 356.20 928.49 357.54 929.52 358.40 930.56 C 366.32 938.07 377.10 941.77 387.86 942.57 C 392.43 937.01 396.72 931.23 400.59 925.15 C 398.72 914.76 395.84 904.60 393.81 894.24 C 390.33 875.78 384.34 857.83 382.24 839.11 C 379.86 819.73 383.11 800.34 384.82 781.07 C 386.04 769.64 384.11 758.16 380.80 747.24 C 377.89 737.55 374.36 727.97 369.23 719.22 C 355.65 725.13 340.53 726.66 325.86 725.60 C 317.50 724.96 309.15 723.00 301.80 718.89 M 341.49 914.47 C 336.79 919.82 331.73 924.96 325.66 928.74 C 318.21 933.12 309.61 934.93 302.02 939.01 C 296.55 941.92 291.53 945.90 285.38 947.31 C 279.36 948.67 273.22 949.53 267.30 951.32 C 262.87 952.67 258.00 954.28 255.30 958.32 C 253.84 960.48 252.42 963.48 254.12 965.92 C 256.96 969.92 261.65 972.03 266.01 973.95 C 278.71 979.02 292.35 981.66 306.00 982.15 C 313.71 982.44 321.38 981.40 329.05 980.74 C 340.69 979.52 352.35 978.60 364.03 977.95 C 372.99 977.42 381.84 979.16 390.48 981.36 C 397.46 983.15 405.19 982.21 411.35 978.40 C 415.83 975.16 416.35 969.07 416.52 964.01 C 416.80 950.86 410.05 939.12 404.02 927.91 C 400.37 933.22 396.59 938.44 392.66 943.55 C 391.44 944.98 390.15 946.81 388.06 946.82 C 375.02 947.66 361.26 942.38 353.21 931.87 C 349.58 926.69 353.55 920.52 353.39 914.89 C 353.65 911.98 350.43 910.47 348.00 910.26 C 345.29 910.50 343.28 912.64 341.49 914.47 Z" />
		<path fill="#020202" opacity="1.00"
			d=" M 334.42 119.94 C 334.82 116.30 334.88 112.45 336.67 109.15 C 338.01 112.52 337.80 116.19 338.41 119.70 C 340.01 122.69 343.26 124.24 346.04 125.91 C 342.73 126.52 338.99 128.03 335.85 126.13 C 333.76 124.81 334.35 122.01 334.42 119.94 Z" />
		<path fill="#020202" opacity="1.00"
			d=" M 330.41 140.88 C 332.41 139.79 334.74 139.80 336.96 139.62 C 344.64 139.24 352.34 139.17 360.03 139.28 C 362.04 139.19 363.88 140.02 365.61 140.97 C 363.88 141.51 362.16 141.98 360.41 142.40 C 359.59 143.85 359.17 146.16 357.06 146.13 C 349.72 146.55 342.32 146.64 334.97 146.33 C 334.77 145.78 334.36 144.68 334.16 144.12 C 332.36 143.60 329.54 143.56 330.41 140.88 Z" />
	</g>
	<g id="#f0b58bff">
		<path fill="#f0b58b" opacity="1.00"
			d=" M 367.00 62.71 C 373.91 56.69 379.41 48.69 388.19 45.11 C 385.13 51.01 383.37 57.56 383.17 64.20 C 385.96 61.44 388.68 58.59 391.89 56.30 C 390.58 59.45 388.70 62.44 388.26 65.88 C 387.84 68.85 387.50 71.83 387.01 74.78 C 373.39 76.14 359.43 75.22 346.06 78.55 C 343.86 78.80 342.31 81.22 343.83 83.12 C 346.54 86.97 349.44 92.53 354.93 92.13 C 364.71 91.51 374.17 87.90 384.05 88.29 C 387.55 88.42 389.81 91.83 391.21 94.67 C 394.14 104.54 393.40 114.99 394.20 125.14 C 394.16 126.93 395.92 129.31 397.68 127.54 C 399.66 124.50 399.23 120.55 399.63 117.08 C 400.08 107.06 399.75 97.04 399.72 87.03 C 399.95 83.72 400.02 79.93 402.33 77.31 C 404.67 74.82 408.40 76.51 410.56 78.38 C 415.52 82.88 416.07 90.49 414.36 96.61 C 413.30 100.99 410.40 104.57 408.74 108.69 C 407.69 111.07 408.65 113.61 409.75 115.77 C 412.19 114.02 414.12 111.72 415.89 109.33 C 415.46 121.62 418.04 134.18 424.11 144.94 C 426.68 149.49 430.37 153.39 434.88 156.08 C 430.45 161.47 427.27 167.71 423.54 173.57 C 418.51 181.81 414.48 190.79 407.86 197.95 C 405.37 200.61 402.62 203.35 399.01 204.34 C 394.55 204.67 390.50 202.27 386.70 200.25 C 375.23 193.93 365.06 183.98 361.53 171.04 C 374.42 167.20 386.29 158.30 392.08 145.96 C 393.72 142.97 395.20 139.81 395.25 136.33 C 391.53 137.91 390.14 141.92 388.01 145.02 C 383.19 152.72 376.25 158.97 368.23 163.19 C 362.27 166.87 354.44 168.02 347.98 165.03 C 337.85 161.01 331.74 151.12 327.20 141.73 C 320.89 126.69 317.61 110.40 316.97 94.12 C 323.27 93.08 329.50 94.11 335.56 95.85 C 336.14 99.00 335.59 102.71 337.96 105.24 C 340.33 100.38 340.17 93.71 336.28 89.63 C 333.68 86.56 331.80 82.88 328.83 80.13 C 324.96 78.87 320.78 79.57 316.80 79.89 C 316.84 73.27 316.36 66.66 316.43 60.04 C 318.11 54.99 322.10 51.05 326.57 48.33 C 323.25 54.52 326.33 61.71 323.27 68.00 C 328.95 68.02 333.75 64.48 337.31 60.35 C 340.29 56.84 343.40 53.43 346.87 50.39 C 347.10 56.59 346.96 62.80 346.00 68.94 C 354.34 63.32 358.17 53.31 366.27 47.42 C 366.23 52.52 366.01 57.68 367.00 62.71 M 334.42 119.94 C 334.35 122.01 333.76 124.81 335.85 126.13 C 338.99 128.03 342.73 126.52 346.04 125.91 C 343.26 124.24 340.01 122.69 338.41 119.70 C 337.80 116.19 338.01 112.52 336.67 109.15 C 334.88 112.45 334.82 116.30 334.42 119.94 M 330.41 140.88 C 329.54 143.56 332.36 143.60 334.16 144.12 C 334.36 144.68 334.77 145.78 334.97 146.33 C 342.32 146.64 349.72 146.55 357.06 146.13 C 359.17 146.16 359.59 143.85 360.41 142.40 C 362.16 141.98 363.88 141.51 365.61 140.97 C 363.88 140.02 362.04 139.19 360.03 139.28 C 352.34 139.17 344.64 139.24 336.96 139.62 C 334.74 139.80 332.41 139.79 330.41 140.88 Z" />
		<path fill="#f0b58b" opacity="1.00"
			d=" M 264.52 245.36 C 269.64 242.16 274.90 239.17 280.45 236.77 C 290.89 251.67 301.95 266.32 315.49 278.58 C 310.17 278.12 304.74 277.65 299.47 278.74 C 294.55 279.77 291.08 283.68 286.70 285.84 C 281.61 288.73 275.73 289.55 270.08 290.74 C 250.66 294.76 230.74 294.61 211.01 295.13 C 200.01 295.19 188.94 294.96 178.07 293.13 C 171.14 292.14 164.23 290.71 157.21 290.57 C 158.34 288.79 159.22 286.86 159.51 284.75 C 155.88 287.34 153.00 290.89 149.06 293.06 C 143.94 296.10 137.86 297.09 131.97 296.96 C 122.85 296.77 113.73 296.09 104.59 296.19 C 111.36 290.88 119.84 288.83 127.58 285.46 C 130.31 284.43 129.36 280.84 126.88 280.17 C 119.09 277.16 110.75 280.24 103.04 282.04 C 93.76 284.09 85.20 288.46 75.91 290.46 C 82.77 284.97 90.11 280.14 97.71 275.75 C 100.22 274.09 103.38 272.81 104.62 269.84 C 102.43 268.61 100.33 270.60 98.37 271.37 C 89.43 275.66 81.13 281.20 73.48 287.48 C 71.99 288.64 71.19 290.37 70.40 292.04 C 68.40 292.86 66.36 293.61 64.29 294.27 C 66.96 288.05 72.26 283.64 76.87 278.89 C 80.97 274.62 85.39 270.67 89.91 266.85 C 92.75 264.42 95.98 262.39 98.26 259.36 C 93.80 260.24 90.06 262.97 86.26 265.28 C 78.44 270.29 72.91 277.90 66.06 284.01 C 67.72 277.03 73.27 272.08 78.13 267.20 C 81.49 263.75 85.58 260.93 88.23 256.85 C 88.03 256.38 87.62 255.46 87.42 255.00 C 83.34 256.25 80.51 259.68 77.45 262.45 C 72.55 267.54 66.49 271.77 59.58 273.54 C 69.08 263.20 80.74 254.02 94.55 250.42 C 101.17 248.67 108.20 248.53 114.89 250.01 C 121.05 251.16 126.54 254.32 132.21 256.83 C 140.67 260.69 149.52 264.58 159.02 264.39 C 174.31 264.38 189.64 261.93 204.19 257.23 C 221.60 251.92 239.57 244.90 258.09 247.96 C 263.61 248.55 268.23 251.75 273.12 254.06 C 275.40 253.48 274.26 250.97 272.97 249.95 C 270.53 247.81 267.43 246.67 264.52 245.36 Z" />
		<path fill="#f0b58b" opacity="1.00"
			d=" M 604.67 273.57 C 610.16 267.76 614.84 261.23 618.69 254.22 C 625.94 261.32 633.23 268.39 640.21 275.76 C 644.69 280.32 649.13 285.17 654.98 287.98 C 662.96 291.97 671.29 295.33 678.79 300.25 C 693.01 308.54 705.08 319.86 717.98 329.97 C 735.23 343.75 752.31 358.17 765.40 376.13 C 762.30 376.81 759.40 378.08 756.77 379.82 C 762.52 380.79 768.70 379.24 774.12 381.86 C 782.53 385.10 789.52 391.13 798.05 394.11 C 811.27 399.42 826.77 400.30 837.71 410.34 C 844.71 417.12 851.26 426.54 849.38 436.79 C 848.08 446.44 845.33 455.87 841.90 464.97 C 840.86 468.29 837.96 470.35 834.94 471.73 C 839.12 464.27 843.05 456.60 845.68 448.45 C 847.31 443.81 846.70 438.77 845.71 434.08 C 845.49 432.34 844.03 431.26 842.84 430.19 C 842.44 435.78 843.75 441.58 841.89 447.01 C 840.53 451.20 838.88 455.30 837.05 459.31 C 837.77 448.01 839.98 436.30 836.96 425.18 C 836.19 427.01 835.59 428.92 835.51 430.92 C 834.64 443.15 833.67 455.41 831.35 467.47 C 830.94 459.15 831.35 450.61 828.53 442.63 C 826.57 437.46 825.48 431.83 822.32 427.21 C 821.37 434.79 825.41 441.64 826.61 448.93 C 827.74 456.87 828.52 465.31 825.77 473.01 C 822.20 463.65 821.16 453.41 816.56 444.43 C 813.48 439.06 806.97 437.47 802.65 433.38 C 797.95 429.84 794.79 424.83 790.67 420.73 C 790.98 422.73 791.17 424.87 792.27 426.65 C 795.99 432.77 800.82 438.49 807.41 441.63 C 811.27 443.34 814.10 446.55 815.60 450.47 C 812.87 447.84 810.11 444.88 806.31 443.89 C 801.04 442.48 795.42 442.90 790.26 440.96 C 784.35 439.19 779.23 434.95 776.58 429.35 C 773.24 422.43 771.87 414.69 768.14 407.94 C 765.74 403.69 761.41 401.13 757.37 398.66 C 746.84 392.56 736.36 386.27 725.12 381.56 C 707.79 374.81 689.88 369.73 672.28 363.77 C 664.01 361.22 658.04 354.49 653.36 347.54 C 644.57 335.89 635.48 323.47 621.88 317.12 C 613.70 313.09 604.46 311.34 596.89 306.08 C 592.83 303.24 588.75 300.42 584.40 298.04 C 590.96 289.72 597.34 281.23 604.67 273.57 Z" />
		<path fill="#f0b58b" opacity="1.00"
			d=" M 329.12 617.46 C 340.49 617.59 351.96 617.05 363.22 618.96 C 375.94 621.26 386.73 629.41 395.24 638.78 C 403.47 647.93 408.65 659.69 410.10 671.89 C 402.61 677.44 394.89 682.73 388.11 689.16 C 380.61 696.22 371.71 702.94 368.77 713.32 C 356.92 718.53 343.86 720.51 330.97 720.12 C 321.52 719.71 312.02 718.16 303.28 714.41 C 302.85 705.77 294.81 700.63 292.05 692.93 C 290.45 687.00 291.52 680.64 293.91 675.07 C 298.50 663.13 307.11 653.45 313.59 642.58 C 318.54 634.07 324.57 626.22 329.12 617.46 Z" />
		<path fill="#f0b58b" opacity="1.00"
			d=" M 615.19 694.21 C 626.65 687.48 637.38 679.33 646.32 669.45 C 648.92 675.12 651.27 680.92 652.96 686.94 C 653.96 690.00 654.49 693.28 656.09 696.12 C 658.23 698.02 659.76 695.01 659.54 693.07 C 659.19 686.96 657.13 681.13 655.36 675.33 C 656.14 673.80 656.93 672.27 657.73 670.75 C 663.62 675.11 667.11 681.81 669.53 688.58 C 674.77 703.76 676.15 720.28 673.53 736.13 C 673.13 737.96 673.02 740.14 671.31 741.31 C 662.97 748.66 654.12 756.43 643.04 759.07 C 632.25 759.93 621.81 755.61 612.68 750.26 C 596.07 740.39 582.48 725.67 574.01 708.31 C 588.70 707.36 602.56 701.47 615.19 694.21 Z" />
	</g>
	<g id="#f11b27ff">
		<path fill="var(--shirt-color, grey)" opacity="1.00"
			d=" M 461.96 154.93 C 481.55 152.60 502.59 154.81 519.59 165.51 C 532.39 173.63 543.99 183.57 554.54 194.43 C 563.69 204.60 572.96 214.74 583.69 223.29 C 594.74 231.98 605.65 240.88 616.08 250.31 C 612.43 257.83 607.09 264.36 601.65 270.64 C 594.76 278.13 588.44 286.11 582.06 294.03 C 578.46 298.47 575.69 303.49 573.08 308.54 C 565.68 293.97 555.50 280.28 541.61 271.32 C 529.72 263.55 516.50 256.31 502.02 255.73 C 499.70 257.49 503.11 258.06 504.14 258.76 C 508.10 260.23 512.28 261.11 516.16 262.82 C 523.53 265.99 530.36 270.22 537.20 274.37 C 528.85 273.05 520.41 271.88 511.93 272.21 C 509.32 272.24 506.84 273.14 504.45 274.09 C 506.86 274.89 509.35 275.51 511.90 275.61 C 523.20 276.15 534.51 277.56 545.44 280.54 C 546.77 296.54 547.18 312.62 546.41 328.67 C 536.53 339.45 522.66 344.93 510.43 352.44 C 497.52 360.40 484.84 369.66 476.47 382.55 C 474.80 384.86 474.53 387.73 474.82 390.49 C 477.65 387.06 479.84 383.15 482.89 379.89 C 491.82 369.92 503.20 362.58 514.46 355.52 C 525.43 348.93 537.16 343.11 546.12 333.76 C 545.24 345.16 543.87 356.62 540.49 367.59 C 536.06 382.91 527.43 396.92 525.50 412.95 C 525.12 416.97 524.14 422.13 528.03 424.81 C 528.86 419.60 529.04 414.29 530.37 409.16 C 532.18 401.06 535.55 393.46 538.69 385.81 C 539.30 393.03 540.90 400.25 544.42 406.65 C 550.88 418.91 560.71 428.88 569.46 439.50 C 575.40 446.42 581.57 453.15 587.86 459.77 C 574.90 464.13 561.90 468.35 549.18 473.36 C 537.53 477.83 525.65 481.70 513.97 486.10 C 497.57 492.61 481.33 499.51 464.98 506.11 C 445.74 513.84 425.35 518.05 405.04 521.79 C 396.23 523.26 387.99 526.78 379.47 529.28 C 376.91 524.01 372.89 519.52 370.78 514.07 C 372.84 508.85 376.95 504.76 380.66 500.66 C 391.94 489.53 404.50 479.80 416.51 469.49 C 427.12 460.08 436.53 449.41 445.61 438.54 C 448.18 435.20 451.39 432.03 452.38 427.79 C 450.71 426.95 449.67 428.57 448.62 429.47 C 436.78 442.61 425.09 456.03 411.46 467.37 C 399.58 477.15 387.46 486.69 376.54 497.54 C 373.37 500.65 370.59 504.13 367.94 507.68 C 364.64 495.68 362.23 483.37 361.37 470.95 C 360.76 466.08 365.17 462.56 365.60 458.05 C 361.62 454.69 356.57 451.64 355.85 445.93 C 351.80 420.54 351.01 394.74 351.27 369.07 C 351.65 361.95 347.35 355.72 346.83 348.69 C 351.43 358.50 355.38 368.68 361.08 377.94 C 368.28 389.76 378.92 398.93 386.70 410.33 C 392.33 417.70 396.77 425.90 402.31 433.31 C 403.53 429.93 401.78 426.70 400.20 423.81 C 393.62 411.80 385.67 400.56 376.71 390.20 C 370.25 382.80 364.49 374.74 360.14 365.91 C 352.75 351.60 346.46 336.70 341.73 321.30 C 340.24 316.69 339.45 311.90 339.23 307.08 C 338.80 298.76 336.89 290.34 338.81 282.07 C 341.50 269.56 344.90 256.79 343.02 243.90 C 342.76 241.91 341.60 240.23 340.63 238.55 C 339.87 241.99 339.95 245.52 339.85 249.02 C 339.70 255.22 338.32 261.30 337.64 267.45 C 336.97 261.23 337.71 254.29 333.84 248.95 C 332.77 262.14 336.32 275.42 333.55 288.53 C 320.67 276.38 307.96 263.96 296.78 250.19 C 290.24 242.22 283.71 234.22 277.90 225.71 C 289.46 221.45 299.12 213.29 307.22 204.18 C 318.68 191.63 327.33 176.78 339.30 164.68 C 341.55 166.11 343.77 167.62 346.11 168.91 C 349.84 170.99 354.24 170.94 358.38 171.30 C 361.16 185.77 372.23 197.19 384.65 204.29 C 388.84 206.49 393.09 209.42 398.04 209.18 C 402.98 209.03 407.31 206.10 410.68 202.68 C 417.86 195.42 422.30 186.09 427.27 177.30 C 431.69 169.93 436.05 162.40 442.07 156.20 C 448.73 156.59 455.38 155.94 461.96 154.93 Z" />
	</g>
	<g id="#2b3dcdff">
		<path fill="var(--pants-color, grey)" opacity="1.00"
			d=" M 531.20 485.35 C 546.82 479.97 562.01 473.44 577.57 467.87 C 582.27 473.72 587.81 479.15 590.78 486.17 C 593.41 492.54 591.60 499.43 591.07 506.00 C 590.70 508.94 593.05 511.18 594.24 513.65 C 599.19 522.82 603.40 532.43 606.38 542.42 C 610.93 557.39 611.31 573.39 617.00 588.05 C 619.73 595.34 624.73 601.56 627.08 609.01 C 629.55 616.38 630.36 624.24 633.50 631.40 C 637.57 640.79 642.39 649.98 648.92 657.91 C 643.12 666.27 635.30 673.03 627.46 679.42 C 614.70 689.23 600.41 697.31 584.95 701.95 C 578.05 704.06 570.72 704.96 563.55 703.80 C 554.16 691.25 549.65 675.88 541.21 662.74 C 537.57 657.14 531.94 653.08 528.84 647.10 C 522.88 635.09 514.92 624.07 505.41 614.62 C 503.10 612.53 500.84 610.22 497.95 608.97 C 493.80 610.40 490.56 613.54 487.20 616.24 C 475.00 626.64 463.93 638.29 451.84 648.83 C 439.73 659.37 427.39 669.64 415.33 680.26 C 414.41 671.38 413.61 662.29 410.09 653.99 C 403.90 637.95 390.87 625.01 375.58 617.49 C 357.76 609.34 337.71 613.81 318.93 611.07 C 323.70 599.83 329.47 588.84 337.77 579.78 C 346.38 570.89 350.37 558.73 358.49 549.46 C 363.37 543.98 368.47 537.98 375.72 535.69 C 388.54 531.27 401.36 526.59 414.81 524.48 C 435.69 520.72 456.35 515.29 475.86 506.88 C 494.25 499.57 512.38 491.52 531.20 485.35 Z" />
		<path fill="var(--socks-color, grey)" opacity="1.00"
			d=" M 761.81 604.98 C 778.89 599.87 795.75 593.92 813.26 590.42 C 814.49 590.16 815.85 590.22 816.82 591.17 C 825.07 597.53 831.57 606.22 835.10 616.03 C 836.47 619.63 836.76 623.51 836.51 627.33 C 831.95 628.82 826.92 628.57 822.58 630.70 C 818.99 632.59 818.70 637.05 818.04 640.59 C 807.49 640.24 798.86 647.08 790.30 652.27 C 781.84 657.75 772.14 661.65 765.17 669.18 C 754.11 680.86 742.33 691.97 728.85 700.84 C 717.91 707.79 707.65 715.74 696.77 722.78 C 690.65 726.91 684.21 730.58 678.44 735.19 C 681.31 720.01 680.13 704.09 675.43 689.40 C 672.49 680.64 667.99 671.51 659.41 667.08 C 667.20 656.79 674.93 646.31 684.53 637.60 C 690.81 631.37 697.31 625.00 705.65 621.63 C 714.88 617.05 724.88 614.51 734.64 611.38 C 743.58 608.75 752.90 607.71 761.81 604.98 Z" />
		<path fill="var(--socks-color, grey)" opacity="1.00"
			d=" M 301.80 718.89 C 309.15 723.00 317.50 724.96 325.86 725.60 C 340.53 726.66 355.65 725.13 369.23 719.22 C 374.36 727.97 377.89 737.55 380.80 747.24 C 384.11 758.16 386.04 769.64 384.82 781.07 C 383.11 800.34 379.86 819.73 382.24 839.11 C 384.34 857.83 390.33 875.78 393.81 894.24 C 395.84 904.60 398.72 914.76 400.59 925.15 C 396.72 931.23 392.43 937.01 387.86 942.57 C 377.10 941.77 366.32 938.07 358.40 930.56 C 357.54 929.52 356.20 928.49 356.30 927.02 C 356.56 922.29 358.61 917.69 357.84 912.93 C 356.99 908.40 352.24 905.86 348.00 905.54 C 345.53 905.69 343.42 907.14 341.27 908.19 C 338.63 897.77 335.51 887.48 333.02 877.02 C 329.68 862.90 325.21 849.08 320.33 835.43 C 312.23 811.45 302.80 787.50 300.60 762.05 C 299.07 747.67 300.01 733.19 301.80 718.89 Z" />
	</g>
	<g id="#4d4d4dff">
		<path fill="#4d4d4d" opacity="1.00"
			d=" M 812.20 566.21 C 817.35 563.17 824.64 560.97 829.75 565.27 C 841.13 574.36 848.11 587.50 857.80 598.17 C 864.04 605.16 872.16 610.05 880.03 614.99 C 887.37 619.51 894.60 624.25 901.25 629.75 C 904.86 632.78 909.03 635.66 910.79 640.23 C 912.79 645.35 913.63 650.82 914.78 656.17 C 916.73 666.11 917.50 676.88 913.49 686.43 C 911.95 690.35 907.45 693.61 903.20 691.76 C 895.31 688.03 890.99 679.93 884.26 674.72 C 877.76 669.67 871.18 664.42 863.38 661.53 C 857.45 659.33 851.42 657.24 846.02 653.88 C 838.70 649.36 831.05 645.35 823.01 642.26 C 823.33 639.92 823.12 637.37 824.26 635.24 C 828.82 632.32 835.22 634.16 839.52 630.56 C 843.05 626.67 842.06 620.84 840.91 616.19 C 837.80 605.70 831.47 595.96 822.60 589.46 C 819.80 587.48 816.52 585.37 812.93 586.16 C 807.62 587.05 802.47 588.74 797.22 589.88 C 800.31 581.07 803.92 571.43 812.20 566.21 Z" />
		<path fill="#4d4d4d" opacity="1.00"
			d=" M 341.49 914.47 C 343.28 912.64 345.29 910.50 348.00 910.26 C 350.43 910.47 353.65 911.98 353.39 914.89 C 353.55 920.52 349.58 926.69 353.21 931.87 C 361.26 942.38 375.02 947.66 388.06 946.82 C 390.15 946.81 391.44 944.98 392.66 943.55 C 396.59 938.44 400.37 933.22 404.02 927.91 C 410.05 939.12 416.80 950.86 416.52 964.01 C 416.35 969.07 415.83 975.16 411.35 978.40 C 405.19 982.21 397.46 983.15 390.48 981.36 C 381.84 979.16 372.99 977.42 364.03 977.95 C 352.35 978.60 340.69 979.52 329.05 980.74 C 321.38 981.40 313.71 982.44 306.00 982.15 C 292.35 981.66 278.71 979.02 266.01 973.95 C 261.65 972.03 256.96 969.92 254.12 965.92 C 252.42 963.48 253.84 960.48 255.30 958.32 C 258.00 954.28 262.87 952.67 267.30 951.32 C 273.22 949.53 279.36 948.67 285.38 947.31 C 291.53 945.90 296.55 941.92 302.02 939.01 C 309.61 934.93 318.21 933.12 325.66 928.74 C 331.73 924.96 336.79 919.82 341.49 914.47 Z" />
	</g>
</svg>