<?xml version="1.0" encoding="UTF-8" ?>
<!DOCTYPE svg PUBLIC "-//W3C//DTD SVG 1.1//EN" "http://www.w3.org/Graphics/SVG/1.1/DTD/svg11.dtd">
<svg width="1000pt" height="1000pt" viewBox="0 0 1000 1000" version="1.1" xmlns="http://www.w3.org/2000/svg">
	<g id="#020202ff">
		<path fill="#020202" opacity="1.00"
			d=" M 249.20 32.27 C 260.40 21.11 276.45 16.09 292.00 15.91 C 309.08 15.79 326.57 21.12 339.66 32.34 C 346.70 38.37 352.37 46.23 354.86 55.23 C 357.69 64.28 357.18 74.20 354.27 83.16 C 352.02 90.29 347.04 96.16 344.86 103.32 C 349.81 110.90 356.12 117.71 364.18 122.02 C 365.72 121.58 367.25 120.92 368.89 120.97 C 372.95 123.18 375.91 126.95 379.97 129.17 C 383.99 131.75 388.97 131.06 393.49 131.79 C 405.36 133.28 415.55 140.21 425.05 147.02 C 435.51 155.46 445.55 164.91 452.38 176.63 C 453.71 178.84 454.94 181.22 457.01 182.86 C 467.31 191.56 477.12 200.90 485.85 211.20 C 489.60 215.79 494.08 220.36 494.78 226.56 C 500.73 233.14 506.67 239.73 512.91 246.04 C 518.67 252.46 524.13 260.91 522.22 269.93 C 520.05 279.50 517.17 288.96 513.26 297.97 C 517.43 307.26 522.72 316.01 526.60 325.44 C 530.16 333.93 535.01 342.41 534.72 351.92 C 534.33 360.80 532.21 369.48 530.69 378.21 C 529.87 383.40 529.61 389.39 533.39 393.56 C 546.20 408.40 560.92 421.60 572.40 437.57 C 576.37 443.25 579.50 449.48 582.21 455.86 C 583.61 459.69 585.11 464.16 583.14 468.07 C 580.19 474.17 574.04 477.63 568.62 481.24 C 571.43 489.89 570.91 499.11 569.45 507.96 C 567.44 533.25 566.42 558.68 567.84 584.04 C 569.05 602.05 569.59 620.40 575.15 637.75 C 578.34 647.67 581.50 657.64 585.89 667.11 C 589.55 675.17 590.80 684.15 590.52 692.95 C 590.24 698.24 587.86 703.14 584.04 706.76 C 595.66 710.75 606.57 716.99 615.75 725.18 C 622.92 731.02 628.99 738.02 635.29 744.76 C 640.77 750.65 646.18 756.62 651.19 762.93 C 658.80 772.57 668.78 779.89 677.46 788.51 C 689.14 799.81 701.09 810.91 711.46 823.47 C 723.65 837.86 739.09 848.96 754.77 859.21 C 764.15 863.55 771.85 870.65 778.89 878.08 C 783.98 883.86 789.20 890.19 790.66 897.97 C 791.63 902.28 788.48 905.87 785.96 908.96 C 778.57 917.25 769.29 923.57 761.69 931.65 C 755.65 937.81 750.94 945.07 745.82 951.98 C 736.66 964.91 719.99 968.93 705.03 969.83 C 693.69 970.11 682.34 969.81 671.00 969.42 C 666.13 969.24 661.12 969.84 656.40 968.37 C 653.41 967.53 651.55 963.98 652.95 961.11 C 655.40 955.11 661.50 951.85 666.95 949.00 C 674.26 945.29 683.22 943.27 688.04 936.04 C 692.28 928.93 694.42 920.71 695.42 912.54 C 696.43 905.70 698.14 898.92 700.99 892.62 C 695.84 881.06 687.46 871.21 677.45 863.57 C 669.71 857.13 660.36 853.21 651.69 848.25 C 641.73 842.64 631.86 836.83 622.22 830.68 C 607.63 821.59 594.57 810.35 580.59 800.40 C 569.47 791.86 557.32 784.84 545.26 777.74 C 537.31 773.33 529.59 768.48 521.34 764.64 C 508.74 758.75 499.96 747.18 493.36 735.31 C 488.94 734.36 482.58 735.72 480.08 730.97 C 475.94 721.88 476.34 711.67 474.45 702.06 C 470.61 683.91 462.53 667.04 454.49 650.45 C 450.89 642.64 446.41 635.27 443.16 627.31 C 432.95 639.99 421.48 651.77 413.29 665.96 C 416.65 669.23 419.74 672.84 421.83 677.07 C 433.33 699.45 443.90 722.28 455.25 744.74 C 464.27 763.93 472.92 783.32 482.97 802.00 C 494.05 821.05 513.40 833.08 526.78 850.27 C 532.59 857.39 539.37 864.34 541.65 873.55 C 543.50 879.54 542.23 887.03 536.80 890.75 C 528.11 896.75 516.70 896.23 507.83 901.86 C 497.27 908.18 491.82 919.82 482.65 927.69 C 463.14 944.84 438.25 955.11 412.78 959.33 C 407.26 959.99 400.68 960.81 396.22 956.73 C 392.70 952.10 393.98 945.57 396.94 940.97 C 404.48 927.91 417.80 919.40 425.14 906.21 C 432.22 893.76 438.17 880.70 443.12 867.27 C 445.24 861.47 446.84 855.31 450.70 850.36 C 448.02 840.68 442.84 831.99 437.22 823.76 C 420.16 796.59 397.56 773.60 375.65 750.38 C 363.23 737.43 350.37 724.83 339.31 710.66 C 333.90 704.00 329.94 696.23 323.64 690.29 C 315.86 681.13 303.93 676.92 296.39 667.51 C 285.67 656.17 281.69 638.45 287.97 623.97 C 291.03 616.09 294.52 608.32 299.48 601.44 C 309.73 585.09 320.31 568.81 328.04 551.06 C 335.64 534.35 348.37 520.90 359.97 506.94 C 365.16 500.85 370.59 494.91 376.70 489.73 C 380.78 486.23 385.83 484.20 390.97 482.84 C 395.56 481.60 397.23 476.41 398.30 472.31 C 400.24 461.90 394.92 452.21 391.11 442.90 C 383.96 427.58 377.36 411.99 369.58 396.97 C 355.25 402.57 340.90 410.40 325.05 409.55 C 323.19 409.55 321.12 409.23 319.62 410.61 C 313.44 415.25 306.78 419.51 299.22 421.50 C 298.55 425.21 297.17 429.72 292.90 430.53 C 285.64 431.70 278.67 428.00 272.75 424.19 C 267.32 420.72 265.96 413.87 265.55 407.91 C 265.36 401.45 268.17 395.51 270.46 389.64 C 271.93 386.13 270.81 382.25 271.74 378.66 C 273.19 375.01 277.27 373.85 280.61 372.61 C 281.44 369.07 281.88 364.28 285.90 362.89 C 292.23 360.06 299.12 362.59 305.17 364.90 C 309.84 366.65 314.10 369.26 318.41 371.73 C 321.02 373.53 324.21 372.07 326.61 370.64 C 334.07 366.07 340.92 360.57 347.38 354.69 C 345.05 352.67 342.60 350.66 341.07 347.93 C 338.10 342.84 337.93 336.74 335.64 331.38 C 334.04 327.54 331.31 324.36 329.04 320.93 C 324.76 314.62 322.05 307.33 320.61 299.87 C 318.06 286.76 317.94 273.35 317.32 260.05 C 316.70 249.70 316.67 239.33 316.54 228.97 C 316.87 215.40 316.69 201.54 320.64 188.42 C 321.88 184.07 324.25 180.15 327.17 176.73 C 323.98 168.18 320.08 158.04 310.61 154.87 C 305.81 160.63 300.66 166.11 295.19 171.24 C 293.22 172.94 290.85 175.01 288.04 174.46 C 285.11 173.53 283.23 170.88 281.35 168.61 C 274.32 159.45 269.21 149.01 262.19 139.83 C 256.32 139.37 249.81 139.69 244.69 136.33 C 242.32 131.41 243.98 125.63 244.71 120.47 C 245.60 113.61 247.87 106.14 244.46 99.61 C 239.34 88.13 237.42 75.26 239.14 62.80 C 236.81 59.09 235.03 54.36 237.14 50.13 C 240.70 43.90 243.84 37.21 249.20 32.27 M 248.65 58.94 C 248.52 62.29 250.03 65.39 250.82 68.58 C 247.69 67.89 244.80 66.51 242.03 64.96 C 241.82 72.76 242.37 80.60 244.53 88.13 C 247.81 85.36 251.57 82.88 255.92 82.31 C 260.74 81.75 265.50 82.99 270.20 83.86 C 273.63 84.57 277.15 85.00 280.47 86.17 C 280.95 88.23 278.87 89.37 277.74 90.73 C 273.14 95.11 268.88 99.86 263.92 103.85 C 262.16 105.11 260.36 106.75 258.08 106.78 C 254.96 104.80 256.28 100.26 254.56 97.42 C 252.00 95.07 248.75 93.68 245.74 92.02 C 247.21 96.01 249.35 99.79 250.24 103.98 C 251.12 114.21 246.62 123.95 247.06 134.14 C 252.39 135.85 258.15 134.95 263.46 136.57 C 272.76 147.40 279.02 160.65 289.00 170.94 C 300.94 161.61 311.03 149.92 319.05 137.07 C 321.57 133.41 323.37 129.15 326.80 126.20 C 326.41 128.95 325.39 131.55 324.01 133.95 C 320.50 140.27 316.66 146.42 312.38 152.25 C 322.76 154.64 327.88 165.43 329.77 174.99 C 333.12 168.45 337.23 162.18 339.00 154.95 C 340.29 149.67 344.02 145.51 347.78 141.78 C 353.21 136.53 358.97 131.62 364.17 126.12 C 354.90 122.40 347.25 115.38 342.10 106.90 C 340.12 103.41 342.23 99.58 343.84 96.43 C 339.13 99.87 333.71 102.31 329.51 106.42 C 326.70 108.91 324.39 112.11 320.94 113.78 C 317.11 113.54 317.75 108.69 318.06 106.02 C 319.72 98.25 323.96 90.08 320.56 82.15 C 318.27 76.74 315.38 69.96 309.02 68.60 C 305.67 69.62 304.61 73.44 303.21 76.25 C 300.62 83.10 293.51 89.20 285.83 87.66 C 286.08 79.82 283.27 72.26 278.41 66.17 C 275.30 68.53 272.09 71.27 268.04 71.63 C 265.80 71.81 262.70 71.87 261.62 69.44 C 258.72 63.85 257.61 56.83 251.99 53.10 C 250.60 54.84 248.78 56.56 248.65 58.94 M 369.53 125.65 C 363.51 135.99 352.53 142.03 345.75 151.75 C 343.14 156.08 342.38 161.23 340.11 165.73 C 345.07 161.47 348.77 156.01 353.63 151.66 C 351.76 159.33 344.93 164.24 340.07 170.03 C 335.30 175.95 328.21 180.20 325.52 187.59 C 322.30 195.97 321.82 205.06 321.27 213.93 C 321.20 217.81 320.44 222.01 322.49 225.55 C 327.08 234.59 333.32 242.74 337.09 252.22 C 337.28 243.44 337.99 234.68 338.49 225.91 C 338.81 222.88 338.58 219.35 341.07 217.11 C 342.99 220.05 342.46 223.67 342.47 226.99 C 342.06 238.33 341.66 249.67 341.88 261.01 C 342.01 270.12 343.60 279.31 347.50 287.59 C 353.63 300.40 361.70 312.97 362.36 327.58 C 369.72 320.20 379.32 315.65 389.38 313.28 C 401.93 309.31 415.51 308.79 428.26 312.13 C 426.00 305.11 423.79 298.08 421.81 290.97 C 417.23 276.65 412.43 262.40 407.60 248.16 C 405.86 242.76 403.63 237.17 404.68 231.39 C 406.47 234.15 407.66 237.22 408.64 240.34 C 412.74 251.89 417.50 263.20 421.16 274.91 C 421.68 269.29 422.11 263.64 421.79 257.99 C 421.40 249.46 419.11 241.19 417.58 232.83 C 416.78 228.15 415.42 223.36 416.61 218.62 C 419.42 224.07 420.39 230.17 421.92 236.05 C 424.96 247.09 427.17 258.57 425.82 270.07 C 425.61 275.39 423.05 280.76 424.88 286.02 C 427.50 294.46 429.83 302.97 432.43 311.42 C 432.76 313.42 434.03 315.78 432.51 317.58 C 430.93 317.72 429.35 317.58 427.78 317.54 C 432.32 331.36 435.38 346.44 431.99 360.87 C 430.72 366.75 427.81 372.24 423.64 376.57 C 419.36 381.66 412.81 383.84 406.60 385.51 C 395.34 388.44 384.00 391.23 373.18 395.58 C 376.26 400.77 379.03 406.13 381.54 411.62 C 387.97 426.17 395.19 440.41 400.38 455.47 C 402.75 462.62 403.74 470.70 400.85 477.85 C 399.61 481.86 396.48 484.78 393.06 487.01 C 398.73 493.36 403.50 500.44 409.17 506.79 C 414.40 512.77 421.93 516.86 429.93 517.28 C 453.09 516.86 476.85 516.20 498.76 507.84 C 515.66 501.96 531.26 493.12 547.27 485.29 C 557.39 480.41 568.12 476.15 576.55 468.51 C 577.99 467.08 579.84 465.32 579.33 463.08 C 578.18 456.93 574.97 451.42 571.95 446.03 C 563.48 432.26 552.60 420.19 541.57 408.46 C 538.34 405.02 535.53 401.19 532.04 397.99 C 526.13 392.55 520.82 386.52 515.69 380.36 C 509.22 372.50 504.76 363.23 501.35 353.70 C 498.86 346.64 494.90 340.26 490.88 334.00 C 484.92 324.81 480.86 314.61 476.47 304.63 C 474.38 299.58 471.75 294.54 471.80 288.93 C 475.66 292.66 477.06 298.00 479.52 302.62 C 485.37 314.18 491.04 325.86 498.26 336.65 C 504.79 346.31 507.12 358.00 513.05 367.98 C 516.25 373.91 520.57 379.09 524.69 384.39 C 525.00 373.13 528.63 362.26 528.90 351.01 C 528.99 342.49 524.83 334.81 521.78 327.10 C 517.82 316.72 513.32 306.55 508.16 296.71 C 503.83 288.49 499.96 279.99 494.78 272.25 C 490.42 265.35 485.16 259.07 480.81 252.16 C 469.41 235.35 463.09 215.85 455.80 197.07 C 451.70 185.98 446.90 174.91 439.35 165.69 C 432.38 157.93 424.55 150.87 415.71 145.29 C 409.61 141.49 403.30 137.52 396.09 136.33 C 391.47 135.28 386.66 135.66 382.06 134.55 C 377.01 133.08 373.08 129.34 369.53 125.65 M 459.04 190.14 C 466.24 207.70 471.44 226.12 480.43 242.91 C 483.29 238.88 486.18 234.81 488.12 230.23 C 489.16 227.69 489.48 224.55 487.79 222.20 C 479.67 210.30 469.40 200.08 459.04 190.14 M 321.03 231.53 C 321.08 246.38 322.01 261.21 322.64 276.05 C 323.39 287.95 323.86 300.26 328.60 311.38 C 330.88 317.05 335.08 321.57 338.31 326.66 C 341.55 331.75 341.93 337.90 343.64 343.54 C 344.64 347.07 347.16 349.83 349.55 352.50 C 356.57 345.52 362.65 337.55 367.29 328.79 C 365.01 330.35 362.77 331.97 360.46 333.49 C 359.44 330.00 358.72 326.43 357.95 322.87 C 355.50 311.16 349.00 300.93 343.78 290.32 C 340.13 282.76 338.07 274.47 337.49 266.10 C 337.26 263.89 337.27 261.61 336.49 259.51 C 332.41 249.62 326.51 240.67 321.03 231.53 M 483.32 247.70 C 488.11 255.80 494.00 263.16 498.90 271.20 C 503.43 278.17 506.90 285.76 510.80 293.10 C 513.18 285.06 516.35 277.24 518.01 269.00 C 519.44 260.47 514.16 252.49 508.24 246.86 C 503.14 242.07 498.35 236.95 493.99 231.48 C 491.47 237.47 488.35 243.42 483.32 247.70 M 399.78 315.88 C 390.47 317.76 381.09 320.18 372.75 324.88 C 371.95 330.19 369.34 334.98 366.35 339.36 C 357.61 352.33 346.44 363.85 333.20 372.25 C 329.51 374.35 325.55 377.20 321.07 376.35 C 311.07 374.66 302.71 368.26 292.91 365.98 C 290.68 365.35 288.38 366.30 286.66 367.68 C 285.13 370.29 285.90 373.68 284.21 376.22 C 281.82 378.00 278.50 377.99 276.21 379.98 C 276.24 383.80 277.22 387.82 275.49 391.44 C 272.98 397.02 269.96 402.69 269.98 408.98 C 269.86 413.89 272.56 418.69 276.73 421.26 C 281.07 423.96 285.81 426.54 291.01 426.87 C 293.94 427.14 294.77 423.91 295.82 421.89 C 290.41 420.78 285.10 419.15 280.01 417.03 C 278.37 416.42 277.28 414.99 276.18 413.72 C 283.33 413.30 289.98 416.95 297.08 416.78 C 304.94 415.35 311.52 410.42 318.06 406.14 C 320.08 404.69 322.65 404.87 325.00 404.87 C 330.37 404.91 335.77 404.42 340.95 402.97 C 356.57 398.67 370.94 390.85 386.54 386.48 C 394.87 383.95 403.47 382.36 411.70 379.53 C 420.24 376.58 425.48 368.05 427.34 359.58 C 430.35 344.99 427.70 329.86 423.09 315.90 C 415.37 314.81 407.47 314.29 399.78 315.88 M 536.32 496.37 C 516.50 506.08 496.11 515.62 474.06 518.85 C 460.19 521.35 446.05 521.05 432.02 521.35 C 427.11 521.17 422.16 520.32 417.62 518.41 C 410.76 515.42 405.39 509.92 400.87 504.09 C 396.91 498.83 392.67 493.75 389.40 488.01 C 385.54 489.75 381.72 491.72 378.54 494.56 C 370.60 501.65 363.98 510.04 357.18 518.19 C 350.71 526.13 343.72 533.72 338.54 542.60 C 333.30 550.80 330.22 560.10 325.64 568.65 C 317.76 582.88 309.44 596.87 300.47 610.44 C 298.11 614.29 296.27 618.42 294.23 622.44 C 303.75 622.59 313.12 624.46 322.34 626.69 C 339.24 630.85 355.78 636.42 371.84 643.12 C 385.31 648.93 399.03 654.80 410.68 663.87 C 418.04 649.24 429.21 637.07 440.29 625.22 C 441.98 623.53 445.35 620.82 447.19 623.68 C 453.97 638.40 462.11 652.49 468.51 667.39 C 474.82 681.95 480.67 697.04 482.03 712.98 C 482.58 718.33 483.81 723.58 485.38 728.71 C 494.66 729.41 504.53 732.38 513.46 728.45 C 531.70 721.18 549.36 711.66 568.90 708.27 C 575.10 706.80 581.41 703.38 584.60 697.66 C 586.10 692.69 585.06 687.35 584.68 682.27 C 583.81 673.24 578.66 665.55 575.95 657.07 C 572.15 645.55 568.02 634.06 565.94 622.07 C 564.66 613.70 563.59 605.28 563.24 596.82 C 560.88 567.22 561.55 537.40 564.43 507.87 C 565.97 499.70 566.79 491.37 565.65 483.09 C 556.47 488.77 546.29 492.40 536.32 496.37 M 291.78 649.25 C 295.29 660.99 304.85 669.76 314.94 676.11 C 322.78 680.97 328.49 688.37 333.98 695.62 C 340.73 688.52 349.79 684.24 358.80 680.79 C 376.23 674.47 394.94 671.36 413.47 672.59 C 409.61 666.84 403.09 664.13 397.40 660.65 C 381.02 651.40 363.58 644.19 345.81 638.11 C 328.58 632.24 310.89 627.52 292.79 625.29 C 289.68 632.83 289.90 641.42 291.78 649.25 M 387.72 678.68 C 369.42 681.32 350.77 686.79 336.29 698.75 C 349.37 717.65 366.08 733.53 381.98 750.00 C 402.90 772.22 424.72 794.11 440.55 820.44 C 446.26 829.23 451.76 838.44 453.81 848.87 C 456.23 849.24 459.08 849.17 460.87 851.17 C 463.95 854.35 464.75 859.02 467.62 862.37 C 468.98 864.02 471.42 863.72 473.27 863.25 C 477.39 861.80 480.46 858.48 483.28 855.29 C 489.93 847.38 496.79 839.35 500.65 829.63 C 492.54 821.60 483.72 813.90 478.29 803.69 C 468.75 786.24 460.48 768.15 451.83 750.26 C 439.50 726.23 427.44 702.05 416.24 677.47 C 406.72 677.39 397.16 677.19 387.72 678.68 M 563.11 715.13 C 545.80 719.60 529.89 728.04 513.10 734.00 C 508.54 735.82 503.60 735.44 498.81 735.41 C 504.85 745.47 512.32 755.60 523.30 760.61 C 529.29 763.38 534.98 766.75 540.67 770.09 C 544.57 757.92 553.18 747.97 562.51 739.53 C 573.19 730.22 585.57 722.17 599.63 719.26 C 593.06 715.78 586.48 712.18 579.25 710.27 C 574.31 713.17 568.67 714.15 563.11 715.13 M 571.99 737.93 C 560.16 746.78 549.38 757.92 543.97 771.90 C 553.67 777.51 563.37 783.15 572.78 789.26 C 586.69 798.89 600.04 809.31 613.70 819.30 C 626.66 828.27 640.24 836.30 653.97 844.01 C 662.42 848.86 671.52 852.69 679.11 858.92 C 689.45 867.15 699.13 877.45 702.71 890.50 C 706.30 888.71 710.86 886.89 714.62 889.29 C 719.06 892.09 718.55 898.02 720.93 902.15 C 722.39 903.85 724.96 903.60 726.94 903.17 C 731.41 901.98 735.49 899.70 739.54 897.52 C 745.03 894.48 748.84 889.29 752.05 884.04 C 755.53 878.43 755.87 871.66 757.29 865.37 C 748.65 861.16 740.75 855.65 732.89 850.16 C 722.94 843.28 714.18 834.82 706.22 825.74 C 696.13 813.89 684.90 803.08 673.73 792.26 C 665.01 783.62 655.08 776.17 647.44 766.49 C 640.25 757.43 632.36 748.98 624.59 740.43 C 619.71 734.97 614.16 730.18 608.54 725.51 C 607.02 724.15 605.08 723.14 603.00 723.75 C 591.63 725.60 581.26 731.29 571.99 737.93 M 503.52 832.19 C 500.34 842.61 493.11 851.04 486.30 859.30 C 481.80 864.45 475.39 870.06 468.01 868.10 C 462.66 866.54 461.35 860.44 458.74 856.25 C 457.85 854.16 455.42 853.61 453.39 854.08 C 450.37 860.24 448.68 866.92 446.26 873.32 C 441.31 885.97 436.04 898.54 429.48 910.44 C 421.90 924.08 408.06 932.87 400.45 946.47 C 398.40 949.41 398.72 954.77 402.99 955.36 C 410.99 955.99 418.78 953.45 426.44 951.50 C 446.20 946.36 465.11 937.10 480.34 923.38 C 488.84 915.80 494.16 905.11 503.75 898.68 C 509.39 894.55 516.26 892.80 522.91 891.07 C 527.07 889.87 531.59 888.88 534.88 885.87 C 537.97 882.85 537.83 877.99 536.78 874.12 C 534.35 865.05 527.16 858.55 521.62 851.35 C 516.29 844.32 509.43 838.69 503.52 832.19 M 761.18 868.17 C 759.92 873.97 759.30 880.10 756.27 885.33 C 754.13 889.06 751.76 892.69 748.86 895.89 C 744.54 900.58 738.70 903.40 733.07 906.17 C 728.56 908.32 722.75 909.77 718.33 906.69 C 714.50 903.77 714.71 898.40 712.40 894.53 C 710.26 892.09 705.79 893.78 704.74 896.60 C 702.60 901.55 701.53 906.90 700.57 912.18 C 699.21 922.03 697.17 932.20 691.57 940.60 C 682.56 952.87 663.69 951.32 655.24 964.29 C 662.08 965.86 669.09 964.81 676.02 965.21 C 685.01 965.45 694.03 965.74 703.01 965.21 C 713.38 964.22 724.18 962.79 733.22 957.24 C 740.91 952.52 744.81 944.05 750.14 937.13 C 756.36 928.16 764.48 920.78 772.83 913.85 C 776.87 910.26 781.70 907.30 784.54 902.59 C 786.43 899.47 784.61 895.84 783.21 892.92 C 777.84 883.13 769.43 875.51 761.18 868.17 Z" />
		<path fill="#020202" opacity="1.00"
			d=" M 444.99 362.97 L 446.13 361.90 C 448.82 365.79 449.35 370.63 450.32 375.15 C 453.36 391.26 450.19 407.77 445.32 423.18 C 441.58 435.22 435.71 446.46 429.30 457.27 C 427.95 459.71 425.91 461.68 423.33 462.79 C 423.50 457.87 426.70 453.90 428.61 449.57 C 435.04 436.05 440.81 422.11 444.47 407.56 C 447.04 397.30 448.49 386.58 446.97 376.04 C 446.46 371.65 445.09 367.39 444.99 362.97 Z" />
		<path fill="#020202" opacity="1.00"
			d=" M 479.33 456.34 C 482.71 452.10 485.40 447.24 489.65 443.76 C 488.65 450.26 484.17 455.31 480.55 460.52 C 473.53 469.74 466.30 478.90 457.81 486.83 C 450.69 493.47 442.55 498.94 433.96 503.49 C 453.60 501.58 473.29 499.55 492.61 495.39 C 501.88 493.42 510.67 489.86 519.65 486.95 C 518.44 488.92 516.81 490.64 514.66 491.58 C 498.19 499.68 479.90 502.81 461.90 505.46 C 451.32 506.85 440.67 507.94 430.00 507.90 C 427.66 507.76 424.91 508.05 423.19 506.13 C 422.92 503.03 426.58 502.79 428.62 501.61 C 450.05 492.59 465.42 474.26 479.33 456.34 Z" />
	</g>
	<g id="#f0b58bff">
		<path fill="#f0b58b" opacity="1.00"
			d=" M 248.65 58.94 C 248.78 56.56 250.60 54.84 251.99 53.10 C 257.61 56.83 258.72 63.85 261.62 69.44 C 262.70 71.87 265.80 71.81 268.04 71.63 C 272.09 71.27 275.30 68.53 278.41 66.17 C 283.27 72.26 286.08 79.82 285.83 87.66 C 293.51 89.20 300.62 83.10 303.21 76.25 C 304.61 73.44 305.67 69.62 309.02 68.60 C 315.38 69.96 318.27 76.74 320.56 82.15 C 323.96 90.08 319.72 98.25 318.06 106.02 C 317.75 108.69 317.11 113.54 320.94 113.78 C 324.39 112.11 326.70 108.91 329.51 106.42 C 333.71 102.31 339.13 99.87 343.84 96.43 C 342.23 99.58 340.12 103.41 342.10 106.90 C 347.25 115.38 354.90 122.40 364.17 126.12 C 358.97 131.62 353.21 136.53 347.78 141.78 C 344.02 145.51 340.29 149.67 339.00 154.95 C 337.23 162.18 333.12 168.45 329.77 174.99 C 327.88 165.43 322.76 154.64 312.38 152.25 C 316.66 146.42 320.50 140.27 324.01 133.95 C 325.39 131.55 326.41 128.95 326.80 126.20 C 323.37 129.15 321.57 133.41 319.05 137.07 C 311.03 149.92 300.94 161.61 289.00 170.94 C 279.02 160.65 272.76 147.40 263.46 136.57 C 258.15 134.95 252.39 135.85 247.06 134.14 C 246.62 123.95 251.12 114.21 250.24 103.98 C 249.35 99.79 247.21 96.01 245.74 92.02 C 248.75 93.68 252.00 95.07 254.56 97.42 C 256.28 100.26 254.96 104.80 258.08 106.78 C 260.36 106.75 262.16 105.11 263.92 103.85 C 268.88 99.86 273.14 95.11 277.74 90.73 C 278.87 89.37 280.95 88.23 280.47 86.17 C 277.15 85.00 273.63 84.57 270.20 83.86 C 265.50 82.99 260.74 81.75 255.92 82.31 C 251.57 82.88 247.81 85.36 244.53 88.13 C 242.37 80.60 241.82 72.76 242.03 64.96 C 244.80 66.51 247.69 67.89 250.82 68.58 C 250.03 65.39 248.52 62.29 248.65 58.94 Z" />
		<path fill="#f0b58b" opacity="1.00"
			d=" M 483.32 247.70 C 488.35 243.42 491.47 237.47 493.99 231.48 C 498.35 236.95 503.14 242.07 508.24 246.86 C 514.16 252.49 519.44 260.47 518.01 269.00 C 516.35 277.24 513.18 285.06 510.80 293.10 C 506.90 285.76 503.43 278.17 498.90 271.20 C 494.00 263.16 488.11 255.80 483.32 247.70 Z" />
		<path fill="#f0b58b" opacity="1.00"
			d=" M 399.78 315.88 C 407.47 314.29 415.37 314.81 423.09 315.90 C 427.70 329.86 430.35 344.99 427.34 359.58 C 425.48 368.05 420.24 376.58 411.70 379.53 C 403.47 382.36 394.87 383.95 386.54 386.48 C 370.94 390.85 356.57 398.67 340.95 402.97 C 335.77 404.42 330.37 404.91 325.00 404.87 C 322.65 404.87 320.08 404.69 318.06 406.14 C 311.52 410.42 304.94 415.35 297.08 416.78 C 289.98 416.95 283.33 413.30 276.18 413.72 C 277.28 414.99 278.37 416.42 280.01 417.03 C 285.10 419.15 290.41 420.78 295.82 421.89 C 294.77 423.91 293.94 427.14 291.01 426.87 C 285.81 426.54 281.07 423.96 276.73 421.26 C 272.56 418.69 269.86 413.89 269.98 408.98 C 269.96 402.69 272.98 397.02 275.49 391.44 C 277.22 387.82 276.24 383.80 276.21 379.98 C 278.50 377.99 281.82 378.00 284.21 376.22 C 285.90 373.68 285.13 370.29 286.66 367.68 C 288.38 366.30 290.68 365.35 292.91 365.98 C 302.71 368.26 311.07 374.66 321.07 376.35 C 325.55 377.20 329.51 374.35 333.20 372.25 C 346.44 363.85 357.61 352.33 366.35 339.36 C 369.34 334.98 371.95 330.19 372.75 324.88 C 381.09 320.18 390.47 317.76 399.78 315.88 Z" />
		<path fill="#f0b58b" opacity="1.00"
			d=" M 291.78 649.25 C 289.90 641.42 289.68 632.83 292.79 625.29 C 310.89 627.52 328.58 632.24 345.81 638.11 C 363.58 644.19 381.02 651.40 397.40 660.65 C 403.09 664.13 409.61 666.84 413.47 672.59 C 394.94 671.36 376.23 674.47 358.80 680.79 C 349.79 684.24 340.73 688.52 333.98 695.62 C 328.49 688.37 322.78 680.97 314.94 676.11 C 304.85 669.76 295.29 660.99 291.78 649.25 Z" />
		<path fill="#f0b58b" opacity="1.00"
			d=" M 563.11 715.13 C 568.67 714.15 574.31 713.17 579.25 710.27 C 586.48 712.18 593.06 715.78 599.63 719.26 C 585.57 722.17 573.19 730.22 562.51 739.53 C 553.18 747.97 544.57 757.92 540.67 770.09 C 534.98 766.75 529.29 763.38 523.30 760.61 C 512.32 755.60 504.85 745.47 498.81 735.41 C 503.60 735.44 508.54 735.82 513.10 734.00 C 529.89 728.04 545.80 719.60 563.11 715.13 Z" />
	</g>
	<g id="#f11b27ff">
		<path fill="var(--shirt-color, grey)" opacity="1.00"
			d=" M 369.53 125.65 C 373.08 129.34 377.01 133.08 382.06 134.55 C 386.66 135.66 391.47 135.28 396.09 136.33 C 403.30 137.52 409.61 141.49 415.71 145.29 C 424.55 150.87 432.38 157.93 439.35 165.69 C 446.90 174.91 451.70 185.98 455.80 197.07 C 463.09 215.85 469.41 235.35 480.81 252.16 C 485.16 259.07 490.42 265.35 494.78 272.25 C 499.96 279.99 503.83 288.49 508.16 296.71 C 513.32 306.55 517.82 316.72 521.78 327.10 C 524.83 334.81 528.99 342.49 528.90 351.01 C 528.63 362.26 525.00 373.13 524.69 384.39 C 520.57 379.09 516.25 373.91 513.05 367.98 C 507.12 358.00 504.79 346.31 498.26 336.65 C 491.04 325.86 485.37 314.18 479.52 302.62 C 477.06 298.00 475.66 292.66 471.80 288.93 C 471.75 294.54 474.38 299.58 476.47 304.63 C 480.86 314.61 484.92 324.81 490.88 334.00 C 494.90 340.26 498.86 346.64 501.35 353.70 C 504.76 363.23 509.22 372.50 515.69 380.36 C 520.82 386.52 526.13 392.55 532.04 397.99 C 535.53 401.19 538.34 405.02 541.57 408.46 C 552.60 420.19 563.48 432.26 571.95 446.03 C 574.97 451.42 578.18 456.93 579.33 463.08 C 579.84 465.32 577.99 467.08 576.55 468.51 C 568.12 476.15 557.39 480.41 547.27 485.29 C 531.26 493.12 515.66 501.96 498.76 507.84 C 476.85 516.20 453.09 516.86 429.93 517.28 C 421.93 516.86 414.40 512.77 409.17 506.79 C 403.50 500.44 398.73 493.36 393.06 487.01 C 396.48 484.78 399.61 481.86 400.85 477.85 C 403.74 470.70 402.75 462.62 400.38 455.47 C 395.19 440.41 387.97 426.17 381.54 411.62 C 379.03 406.13 376.26 400.77 373.18 395.58 C 384.00 391.23 395.34 388.44 406.60 385.51 C 412.81 383.84 419.36 381.66 423.64 376.57 C 427.81 372.24 430.72 366.75 431.99 360.87 C 435.38 346.44 432.32 331.36 427.78 317.54 C 429.35 317.58 430.93 317.72 432.51 317.58 C 434.03 315.78 432.76 313.42 432.43 311.42 C 429.83 302.97 427.50 294.46 424.88 286.02 C 423.05 280.76 425.61 275.39 425.82 270.07 C 427.17 258.57 424.96 247.09 421.92 236.05 C 420.39 230.17 419.42 224.07 416.61 218.62 C 415.42 223.36 416.78 228.15 417.58 232.83 C 419.11 241.19 421.40 249.46 421.79 257.99 C 422.11 263.64 421.68 269.29 421.16 274.91 C 417.50 263.20 412.74 251.89 408.64 240.34 C 407.66 237.22 406.47 234.15 404.68 231.39 C 403.63 237.17 405.86 242.76 407.60 248.16 C 412.43 262.40 417.23 276.65 421.81 290.97 C 423.79 298.08 426.00 305.11 428.26 312.13 C 415.51 308.79 401.93 309.31 389.38 313.28 C 379.32 315.65 369.72 320.20 362.36 327.58 C 361.70 312.97 353.63 300.40 347.50 287.59 C 343.60 279.31 342.01 270.12 341.88 261.01 C 341.66 249.67 342.06 238.33 342.47 226.99 C 342.46 223.67 342.99 220.05 341.07 217.11 C 338.58 219.35 338.81 222.88 338.49 225.91 C 337.99 234.68 337.28 243.44 337.09 252.22 C 333.32 242.74 327.08 234.59 322.49 225.55 C 320.44 222.01 321.20 217.81 321.27 213.93 C 321.82 205.06 322.30 195.97 325.52 187.59 C 328.21 180.20 335.30 175.95 340.07 170.03 C 344.93 164.24 351.76 159.33 353.63 151.66 C 348.77 156.01 345.07 161.47 340.11 165.73 C 342.38 161.23 343.14 156.08 345.75 151.75 C 352.53 142.03 363.51 135.99 369.53 125.65 M 444.99 362.97 C 445.09 367.39 446.46 371.65 446.97 376.04 C 448.49 386.58 447.04 397.30 444.47 407.56 C 440.81 422.11 435.04 436.05 428.61 449.57 C 426.70 453.90 423.50 457.87 423.33 462.79 C 425.91 461.68 427.95 459.71 429.30 457.27 C 435.71 446.46 441.58 435.22 445.32 423.18 C 450.19 407.77 453.36 391.26 450.32 375.15 C 449.35 370.63 448.82 365.79 446.13 361.90 L 444.99 362.97 M 479.33 456.34 C 465.42 474.26 450.05 492.59 428.62 501.61 C 426.58 502.79 422.92 503.03 423.19 506.13 C 424.91 508.05 427.66 507.76 430.00 507.90 C 440.67 507.94 451.32 506.85 461.90 505.46 C 479.90 502.81 498.19 499.68 514.66 491.58 C 516.81 490.64 518.44 488.92 519.65 486.95 C 510.67 489.86 501.88 493.42 492.61 495.39 C 473.29 499.55 453.60 501.58 433.96 503.49 C 442.55 498.94 450.69 493.47 457.81 486.83 C 466.30 478.90 473.53 469.74 480.55 460.52 C 484.17 455.31 488.65 450.26 489.65 443.76 C 485.40 447.24 482.71 452.10 479.33 456.34 Z" />
		<path fill="var(--shirt-color, grey)" opacity="1.00"
			d=" M 459.04 190.14 C 469.40 200.08 479.67 210.30 487.79 222.20 C 489.48 224.55 489.16 227.69 488.12 230.23 C 486.18 234.81 483.29 238.88 480.43 242.91 C 471.44 226.12 466.24 207.70 459.04 190.14 Z" />
		<path fill="var(--shirt-color, grey)" opacity="1.00"
			d=" M 321.03 231.53 C 326.51 240.67 332.41 249.62 336.49 259.51 C 337.27 261.61 337.26 263.89 337.49 266.10 C 338.07 274.47 340.13 282.76 343.78 290.32 C 349.00 300.93 355.50 311.16 357.95 322.87 C 358.72 326.43 359.44 330.00 360.46 333.49 C 362.77 331.97 365.01 330.35 367.29 328.79 C 362.65 337.55 356.57 345.52 349.55 352.50 C 347.16 349.83 344.64 347.07 343.64 343.54 C 341.93 337.90 341.55 331.75 338.31 326.66 C 335.08 321.57 330.88 317.05 328.60 311.38 C 323.86 300.26 323.39 287.95 322.64 276.05 C 322.01 261.21 321.08 246.38 321.03 231.53 Z" />
	</g>
	<g id="#2b3dcdff">
		<path fill="var(--pants-color, grey)" opacity="1.00"
			d=" M 536.32 496.37 C 546.29 492.40 556.47 488.77 565.65 483.09 C 566.79 491.37 565.97 499.70 564.43 507.87 C 561.55 537.40 560.88 567.22 563.24 596.82 C 563.59 605.28 564.66 613.70 565.94 622.07 C 568.02 634.06 572.15 645.55 575.95 657.07 C 578.66 665.55 583.81 673.24 584.68 682.27 C 585.06 687.35 586.10 692.69 584.60 697.66 C 581.41 703.38 575.10 706.80 568.90 708.27 C 549.36 711.66 531.70 721.18 513.46 728.45 C 504.53 732.38 494.66 729.41 485.38 728.71 C 483.81 723.58 482.58 718.33 482.03 712.98 C 480.67 697.04 474.82 681.95 468.51 667.39 C 462.11 652.49 453.97 638.40 447.19 623.68 C 445.35 620.82 441.98 623.53 440.29 625.22 C 429.21 637.07 418.04 649.24 410.68 663.87 C 399.03 654.80 385.31 648.93 371.84 643.12 C 355.78 636.42 339.24 630.85 322.34 626.69 C 313.12 624.46 303.75 622.59 294.23 622.44 C 296.27 618.42 298.11 614.29 300.47 610.44 C 309.44 596.87 317.76 582.88 325.64 568.65 C 330.22 560.10 333.30 550.80 338.54 542.60 C 343.72 533.72 350.71 526.13 357.18 518.19 C 363.98 510.04 370.60 501.65 378.54 494.56 C 381.72 491.72 385.54 489.75 389.40 488.01 C 392.67 493.75 396.91 498.83 400.87 504.09 C 405.39 509.92 410.76 515.42 417.62 518.41 C 422.16 520.32 427.11 521.17 432.02 521.35 C 446.05 521.05 460.19 521.35 474.06 518.85 C 496.11 515.62 516.50 506.08 536.32 496.37 Z" />
		<path fill="var(--socks-color, grey)" opacity="1.00"
			d=" M 387.72 678.68 C 397.16 677.19 406.72 677.39 416.24 677.47 C 427.44 702.05 439.50 726.23 451.83 750.26 C 460.48 768.15 468.75 786.24 478.29 803.69 C 483.72 813.90 492.54 821.60 500.65 829.63 C 496.79 839.35 489.93 847.38 483.28 855.29 C 480.46 858.48 477.39 861.80 473.27 863.25 C 471.42 863.72 468.98 864.02 467.62 862.37 C 464.75 859.02 463.95 854.35 460.87 851.17 C 459.08 849.17 456.23 849.24 453.81 848.87 C 451.76 838.44 446.26 829.23 440.55 820.44 C 424.72 794.11 402.90 772.22 381.98 750.00 C 366.08 733.53 349.37 717.65 336.29 698.75 C 350.77 686.79 369.42 681.32 387.72 678.68 Z" />
		<path fill="var(--socks-color, grey)" opacity="1.00"
			d=" M 571.99 737.93 C 581.26 731.29 591.63 725.60 603.00 723.75 C 605.08 723.14 607.02 724.15 608.54 725.51 C 614.16 730.18 619.71 734.97 624.59 740.43 C 632.36 748.98 640.25 757.43 647.44 766.49 C 655.08 776.17 665.01 783.62 673.73 792.26 C 684.90 803.08 696.13 813.89 706.22 825.74 C 714.18 834.82 722.94 843.28 732.89 850.16 C 740.75 855.65 748.65 861.16 757.29 865.37 C 755.87 871.66 755.53 878.43 752.05 884.04 C 748.84 889.29 745.03 894.48 739.54 897.52 C 735.49 899.70 731.41 901.98 726.94 903.17 C 724.96 903.60 722.39 903.85 720.93 902.15 C 718.55 898.02 719.06 892.09 714.62 889.29 C 710.86 886.89 706.30 888.71 702.71 890.50 C 699.13 877.45 689.45 867.15 679.11 858.92 C 671.52 852.69 662.42 848.86 653.97 844.01 C 640.24 836.30 626.66 828.27 613.70 819.30 C 600.04 809.31 586.69 798.89 572.78 789.26 C 563.37 783.15 553.67 777.51 543.97 771.90 C 549.38 757.92 560.16 746.78 571.99 737.93 Z" />
	</g>
	<g id="#4d4d4dff">
		<path fill="#4d4d4d" opacity="1.00"
			d=" M 503.52 832.19 C 509.43 838.69 516.29 844.32 521.62 851.35 C 527.16 858.55 534.35 865.05 536.78 874.12 C 537.83 877.99 537.97 882.85 534.88 885.87 C 531.59 888.88 527.07 889.87 522.91 891.07 C 516.26 892.80 509.39 894.55 503.75 898.68 C 494.16 905.11 488.84 915.80 480.34 923.38 C 465.11 937.10 446.20 946.36 426.44 951.50 C 418.78 953.45 410.99 955.99 402.99 955.36 C 398.72 954.77 398.40 949.41 400.45 946.47 C 408.06 932.87 421.90 924.08 429.48 910.44 C 436.04 898.54 441.31 885.97 446.26 873.32 C 448.68 866.92 450.37 860.24 453.39 854.08 C 455.42 853.61 457.85 854.16 458.74 856.25 C 461.35 860.44 462.66 866.54 468.01 868.10 C 475.39 870.06 481.80 864.45 486.30 859.30 C 493.11 851.04 500.34 842.61 503.52 832.19 Z" />
		<path fill="#4d4d4d" opacity="1.00"
			d=" M 761.18 868.17 C 769.43 875.51 777.84 883.13 783.21 892.92 C 784.61 895.84 786.43 899.47 784.54 902.59 C 781.70 907.30 776.87 910.26 772.83 913.85 C 764.48 920.78 756.36 928.16 750.14 937.13 C 744.81 944.05 740.91 952.52 733.22 957.24 C 724.18 962.79 713.38 964.22 703.01 965.21 C 694.03 965.74 685.01 965.45 676.02 965.21 C 669.09 964.81 662.08 965.86 655.24 964.29 C 663.69 951.32 682.56 952.87 691.57 940.60 C 697.17 932.20 699.21 922.03 700.57 912.18 C 701.53 906.90 702.60 901.55 704.74 896.60 C 705.79 893.78 710.26 892.09 712.40 894.53 C 714.71 898.40 714.50 903.77 718.33 906.69 C 722.75 909.77 728.56 908.32 733.07 906.17 C 738.70 903.40 744.54 900.58 748.86 895.89 C 751.76 892.69 754.13 889.06 756.27 885.33 C 759.30 880.10 759.92 873.97 761.18 868.17 Z" />
	</g>
</svg>