<?xml version="1.0" encoding="UTF-8" ?>
<!DOCTYPE svg PUBLIC "-//W3C//DTD SVG 1.1//EN" "http://www.w3.org/Graphics/SVG/1.1/DTD/svg11.dtd">
<svg width="1000pt" height="1000pt" viewBox="0 0 1000 1000" version="1.1" xmlns="http://www.w3.org/2000/svg">
	<g id="#020202ff">
		<path fill="#020202" opacity="1.00"
			d=" M 308.01 10.91 C 305.39 8.87 305.85 4.01 309.12 2.93 C 317.58 1.39 325.48 5.53 333.74 6.35 C 344.97 8.90 352.41 19.24 356.50 29.38 C 357.89 32.30 356.30 35.37 355.07 38.03 C 349.99 47.81 345.96 58.10 342.41 68.52 C 340.58 72.96 342.39 77.60 344.35 81.64 C 349.78 92.78 357.13 102.94 365.73 111.86 C 370.94 97.01 381.99 83.18 397.63 78.81 C 406.07 76.82 415.19 75.52 423.57 78.49 C 436.63 82.96 447.12 93.16 453.83 105.03 C 457.43 111.55 460.61 118.54 461.16 126.06 C 462.65 141.64 459.52 157.23 455.33 172.17 C 453.46 179.14 450.47 185.74 448.33 192.62 C 455.07 188.98 462.08 184.33 469.95 184.21 C 473.03 186.63 475.52 190.11 479.41 191.28 C 482.63 191.79 485.98 191.74 489.07 192.92 C 503.76 198.25 515.03 209.40 526.61 219.40 C 532.79 225.02 540.68 227.96 547.94 231.80 C 556.27 232.58 565.23 234.36 571.21 240.74 C 575.36 244.48 576.85 249.96 579.21 254.80 C 585.80 263.45 594.26 270.44 601.65 278.38 C 607.74 284.92 614.39 290.98 619.84 298.09 C 623.81 303.20 626.32 309.48 631.46 313.62 C 634.16 316.21 637.92 318.21 639.09 322.01 C 634.34 325.15 628.77 326.87 624.18 330.33 C 631.33 337.06 637.31 344.88 643.62 352.38 C 648.36 358.38 653.13 364.37 657.25 370.82 C 663.27 380.11 667.28 390.50 672.94 400.00 C 676.58 406.45 681.72 412.39 688.69 415.31 C 695.92 418.83 704.09 418.98 711.93 419.75 C 719.25 420.35 727.27 420.06 733.57 424.47 C 736.22 426.21 736.88 429.49 737.93 432.26 C 740.14 438.75 743.43 445.06 743.87 452.01 C 744.28 455.80 741.54 458.71 739.38 461.45 C 736.58 464.88 734.42 469.24 730.09 471.00 C 725.61 472.71 720.24 475.10 715.66 472.39 C 712.37 470.27 708.67 468.05 707.37 464.12 C 701.01 464.09 694.65 463.24 688.51 461.61 C 685.14 460.75 682.12 458.62 680.32 455.63 C 676.24 449.53 678.10 441.31 673.62 435.40 C 669.14 429.09 661.35 426.82 654.90 423.14 C 635.40 414.08 617.39 400.19 606.92 381.08 C 602.28 373.00 600.02 363.91 596.87 355.21 C 593.43 360.29 589.68 365.14 585.65 369.76 C 577.94 357.20 569.73 344.01 556.79 336.22 C 548.47 331.08 540.08 326.01 531.25 321.78 C 531.23 330.08 528.58 338.24 524.30 345.30 C 522.15 348.46 519.60 351.94 520.08 355.98 C 521.33 364.25 526.32 371.42 527.34 379.74 C 528.58 388.58 528.94 397.61 527.41 406.44 C 535.49 413.85 541.74 422.91 548.69 431.31 C 555.98 440.59 563.61 449.68 572.38 457.61 C 577.75 462.66 581.76 469.62 582.28 477.06 C 582.81 484.05 578.61 490.20 573.96 494.97 C 568.84 499.93 562.79 503.84 556.49 507.13 C 558.91 511.30 562.07 515.06 565.98 517.91 C 572.71 522.75 579.83 527.30 585.36 533.57 C 591.41 540.60 592.20 550.22 595.49 558.58 C 602.23 576.44 615.97 590.22 625.58 606.44 C 629.96 613.95 634.65 622.08 633.97 631.11 C 634.17 634.80 631.89 637.84 629.83 640.64 C 631.79 644.07 633.45 647.68 634.78 651.42 C 636.45 643.13 642.86 636.75 650.32 633.28 C 659.47 628.33 670.06 627.41 679.60 623.49 C 684.84 621.38 687.03 615.67 688.64 610.69 C 689.79 604.76 687.63 598.90 686.95 593.05 C 685.98 585.34 684.25 577.27 686.87 569.70 C 688.88 563.92 695.20 560.76 701.03 560.63 C 709.53 560.43 717.45 564.83 723.45 570.57 C 727.21 574.09 730.28 578.62 735.13 580.78 C 746.30 585.55 758.92 586.94 769.17 593.80 C 774.79 597.41 778.97 602.73 783.22 607.78 C 789.74 615.74 791.43 626.81 789.73 636.73 C 788.10 642.26 785.08 647.95 779.98 650.97 C 775.96 653.18 771.80 650.52 768.14 648.90 C 758.23 644.56 747.15 646.75 736.76 645.03 C 728.06 654.59 718.51 663.39 710.71 673.74 C 695.61 693.06 682.17 714.32 662.36 729.31 C 654.07 735.27 647.74 743.54 639.40 749.43 C 634.07 752.22 627.74 752.00 621.91 751.66 C 604.59 749.24 589.83 738.35 578.26 725.79 C 569.25 715.94 563.90 703.56 558.44 691.56 C 553.70 678.96 546.19 667.64 538.11 656.96 C 532.60 657.19 527.77 659.85 522.86 662.03 C 519.70 663.25 517.84 659.72 516.37 657.60 C 509.01 644.98 495.86 637.61 483.83 630.13 C 475.55 624.81 466.30 620.29 460.21 612.28 C 456.55 617.79 451.66 622.34 446.39 626.29 C 442.68 629.19 438.46 631.92 436.40 636.33 C 433.23 642.89 430.21 649.76 425.05 655.05 C 420.59 659.84 414.92 663.25 409.34 666.55 C 407.36 667.58 404.65 669.01 402.79 666.99 C 402.38 664.47 402.58 661.91 402.67 659.39 C 400.98 664.92 397.59 669.65 394.46 674.43 C 388.38 683.80 380.05 691.37 372.42 699.43 C 369.59 702.46 366.87 705.78 365.62 709.80 C 364.25 713.74 364.38 717.96 364.30 722.08 C 369.05 727.69 369.90 735.25 370.88 742.26 C 373.66 764.37 374.46 786.73 373.34 808.99 C 372.45 827.60 368.84 845.98 363.97 863.93 C 361.12 874.54 358.59 885.23 355.66 895.82 C 353.42 903.40 351.52 911.13 351.02 919.05 C 350.63 923.42 352.64 927.45 353.55 931.63 C 356.83 944.81 361.19 958.40 358.75 972.11 C 357.74 979.45 353.61 986.28 347.65 990.66 C 343.19 993.87 337.19 993.84 332.22 991.93 C 323.88 988.98 317.48 982.67 310.38 977.68 C 296.95 968.66 280.31 965.65 267.47 955.63 C 259.17 949.59 253.09 941.21 247.12 933.01 C 241.92 925.65 238.32 917.04 237.88 907.96 C 237.12 901.78 238.55 894.60 243.96 890.86 C 252.54 885.87 263.26 886.34 272.30 889.83 C 281.58 893.39 292.68 895.33 301.79 890.27 C 300.12 883.92 299.72 877.34 298.75 870.87 C 295.07 846.68 292.38 822.34 290.74 797.93 C 288.66 778.67 288.12 759.04 291.95 739.96 C 293.20 734.15 293.45 727.73 297.27 722.87 C 296.98 712.93 296.06 702.97 294.43 693.16 C 293.48 687.07 291.33 681.15 291.28 674.94 C 291.17 671.26 293.07 667.75 292.44 664.07 C 290.46 652.72 292.99 641.26 295.45 630.21 C 297.35 621.93 299.97 613.83 303.27 606.00 C 299.41 602.04 295.55 597.45 295.67 591.58 C 295.22 590.10 293.34 588.34 294.92 586.95 C 298.18 583.73 301.12 580.19 302.99 575.96 C 305.18 571.41 308.60 567.67 311.84 563.87 C 315.26 559.57 316.28 553.93 319.44 549.47 C 322.66 544.33 328.11 541.38 332.82 537.82 C 337.46 534.47 343.16 533.03 347.89 529.87 C 352.89 525.10 355.71 518.53 360.60 513.65 C 364.05 510.28 367.80 507.23 371.68 504.37 C 367.65 499.26 364.53 493.44 362.63 487.21 C 358.51 474.19 357.73 460.47 356.81 446.94 C 356.66 440.22 355.46 433.45 356.61 426.76 C 346.22 401.62 343.32 374.00 343.75 346.99 C 343.93 335.34 343.28 323.68 344.10 312.04 C 344.57 297.21 347.30 282.58 349.47 267.94 C 350.86 258.30 352.51 248.67 355.20 239.29 C 357.12 232.59 360.72 226.21 360.59 219.05 C 360.59 206.03 360.91 192.89 358.68 180.01 C 357.46 171.98 351.60 165.97 347.57 159.27 C 343.21 152.54 340.51 144.96 337.41 137.61 C 331.13 123.11 328.59 107.12 320.68 93.29 C 316.20 85.13 309.53 77.91 307.58 68.57 C 305.35 57.48 307.95 46.21 310.55 35.42 C 311.56 31.92 312.49 27.89 315.64 25.66 C 317.69 24.16 320.93 24.60 322.18 26.92 C 323.99 30.22 323.73 34.13 323.86 37.76 C 325.24 32.75 328.03 26.84 324.90 21.96 C 320.37 16.78 313.14 15.31 308.01 10.91 M 309.76 6.28 C 312.38 9.30 316.31 10.45 319.69 12.35 C 324.66 15.10 330.35 18.78 330.89 25.02 C 331.36 32.77 328.32 40.63 323.49 46.62 C 323.40 49.36 323.45 52.12 323.00 54.84 C 322.49 54.86 321.48 54.90 320.97 54.92 C 316.90 46.59 321.77 36.89 318.45 28.30 C 315.10 31.70 314.73 36.69 313.73 41.11 C 311.78 50.89 309.75 61.26 312.84 71.02 C 315.41 78.26 320.43 84.22 324.15 90.86 C 331.31 102.71 334.37 116.37 338.73 129.37 C 341.90 137.80 345.04 146.27 349.11 154.32 C 352.80 149.75 357.00 145.61 361.70 142.08 C 361.41 133.69 362.13 125.25 364.12 117.08 C 359.74 112.33 356.16 106.92 352.01 101.98 C 347.03 95.68 342.51 88.91 339.53 81.42 C 338.28 78.15 337.03 74.62 337.82 71.08 C 340.26 58.49 345.19 46.50 351.34 35.29 C 352.08 33.55 353.69 31.54 352.45 29.65 C 348.28 21.30 342.61 12.90 333.65 9.21 C 337.84 13.29 341.14 18.19 343.58 23.48 C 344.31 24.82 343.92 27.09 342.00 26.81 C 337.50 23.63 335.62 18.04 331.60 14.36 C 326.02 8.47 317.54 6.74 309.76 6.28 M 433.27 110.27 C 433.34 117.43 433.24 124.67 431.67 131.69 C 427.75 124.12 423.57 115.61 415.07 112.37 C 416.10 118.20 417.23 124.25 415.54 130.08 C 413.26 125.85 411.69 121.18 408.59 117.43 C 406.40 114.76 403.40 112.96 400.56 111.07 C 401.20 117.27 401.80 123.64 399.78 129.67 C 394.93 122.92 389.10 116.80 382.02 112.35 C 378.66 122.47 377.29 133.06 376.50 143.66 C 383.99 143.39 391.50 143.29 398.99 143.70 C 400.72 143.89 403.34 143.85 403.81 146.02 C 404.27 148.71 405.23 152.05 403.54 154.46 C 393.36 154.97 383.11 154.77 372.90 154.85 C 371.79 158.46 370.43 162.13 370.47 165.95 C 372.61 174.90 376.14 183.48 380.14 191.76 C 384.44 200.41 389.41 208.90 396.19 215.85 C 403.06 223.10 414.74 222.29 423.03 218.08 C 432.97 213.47 438.45 203.39 443.20 194.07 C 445.33 190.38 444.66 186.02 445.13 181.97 C 445.41 177.92 446.80 174.03 446.96 169.98 C 447.19 167.80 445.34 166.30 444.22 164.69 C 441.62 161.61 440.08 157.85 438.11 154.38 C 430.38 154.67 422.65 155.39 414.91 155.31 C 413.15 155.52 412.89 152.85 413.71 151.76 C 415.52 148.46 417.59 144.19 421.89 143.96 C 431.05 143.18 440.50 143.31 449.24 140.09 C 452.05 137.28 453.91 133.66 456.55 130.67 C 450.37 122.28 442.81 114.75 433.27 110.27 M 351.18 158.42 C 354.91 162.53 358.73 166.69 361.22 171.72 C 364.09 177.36 364.49 183.82 364.78 190.03 C 365.07 199.69 364.90 209.36 364.90 219.02 C 365.01 227.74 360.47 235.48 358.68 243.83 C 354.29 258.25 352.81 273.31 351.18 288.23 C 349.74 302.11 347.94 316.02 348.69 330.00 C 348.81 358.42 349.61 387.39 358.29 414.71 C 363.17 430.74 373.44 444.30 383.47 457.45 C 393.71 470.11 404.30 482.73 417.26 492.71 C 425.48 498.05 433.90 503.27 443.10 506.75 C 453.79 511.21 465.35 514.58 477.04 513.54 C 489.68 512.74 502.30 511.48 514.97 511.04 C 528.57 510.21 542.77 509.61 555.10 503.15 C 562.89 499.08 570.54 493.92 575.47 486.48 C 578.65 481.89 579.49 475.51 576.59 470.58 C 574.34 465.42 570.29 461.42 566.03 457.89 C 550.96 444.11 539.95 426.66 525.92 411.92 C 520.80 406.21 512.80 405.18 506.29 401.76 C 500.62 398.71 494.58 396.04 489.85 391.58 C 495.06 391.78 499.49 394.70 504.07 396.84 C 510.24 399.93 516.96 401.66 523.45 403.95 C 524.17 393.04 523.73 381.76 520.07 371.36 C 515.20 369.63 510.19 368.08 504.96 368.14 C 493.65 368.04 482.33 368.61 471.03 367.94 C 461.35 367.38 451.92 364.90 442.65 362.19 C 434.47 359.81 426.43 356.28 419.89 350.73 C 426.00 350.55 430.93 354.83 436.58 356.49 C 450.30 360.84 464.52 364.30 479.00 364.13 C 492.03 364.66 505.36 362.68 518.10 366.31 C 516.63 361.57 514.92 356.68 515.93 351.66 C 499.23 355.77 482.43 349.16 465.61 350.24 C 463.07 348.60 466.86 347.59 468.00 347.05 C 480.27 344.44 492.62 349.18 504.98 348.39 C 510.28 348.13 516.61 347.83 520.22 343.35 C 524.41 336.27 527.48 328.13 526.96 319.78 C 511.56 313.00 495.25 307.55 481.77 297.18 C 479.67 295.66 478.41 293.37 477.70 290.94 C 481.38 292.94 484.61 295.63 488.22 297.75 C 499.20 304.39 511.38 308.63 523.12 313.69 C 520.58 310.18 518.22 306.52 516.44 302.57 C 514.26 297.74 511.65 292.76 512.07 287.28 C 513.81 288.45 515.27 290.01 516.02 291.99 C 519.49 299.86 523.15 307.80 528.62 314.51 C 530.56 317.04 533.42 318.54 536.24 319.87 C 542.38 322.78 548.14 326.39 553.98 329.84 C 559.34 333.09 564.74 336.42 569.24 340.83 C 575.91 347.42 581.31 355.18 585.94 363.31 C 590.16 356.57 594.33 349.67 600.17 344.18 C 610.05 334.41 621.13 325.08 634.42 320.46 C 630.48 317.88 626.47 315.15 623.77 311.21 C 620.49 306.50 617.80 301.36 613.94 297.07 C 603.10 285.04 591.42 273.80 580.42 261.92 C 581.52 265.77 583.10 269.52 583.52 273.54 C 582.93 273.40 581.77 273.14 581.19 273.00 C 576.79 268.05 575.71 261.14 573.80 254.99 C 571.93 247.68 566.41 241.40 559.35 238.72 C 551.85 235.70 543.48 236.38 535.74 238.01 C 532.37 238.62 528.83 240.11 525.53 238.38 C 530.15 234.41 536.34 233.58 542.12 232.53 C 531.30 229.35 523.01 221.50 514.87 214.12 C 507.59 207.42 499.51 201.47 490.39 197.52 C 487.42 196.32 484.25 195.28 481.01 195.45 C 476.41 195.87 472.37 198.33 467.98 199.56 C 468.58 196.11 471.76 194.63 474.52 193.16 C 472.62 191.51 470.79 189.79 469.05 187.99 C 462.45 198.27 455.89 208.63 450.73 219.72 C 446.58 228.18 443.23 237.51 436.00 243.92 C 431.84 247.48 426.56 250.31 420.96 250.19 C 414.17 249.37 409.03 244.05 405.35 238.68 C 402.22 233.80 398.97 228.73 398.02 222.91 C 387.71 216.06 381.16 205.16 375.77 194.30 C 368.73 179.39 363.79 163.40 362.09 146.96 C 358.17 150.50 354.44 154.26 351.18 158.42 M 448.35 197.98 C 448.64 202.71 449.38 207.39 450.45 212.00 C 455.02 203.86 459.94 195.90 465.40 188.32 C 459.43 191.00 453.57 194.00 448.35 197.98 M 425.24 222.21 C 417.80 226.01 408.61 228.05 400.67 224.58 C 405.59 231.98 409.57 240.92 417.89 245.15 C 422.17 247.57 427.09 245.15 430.82 242.79 C 439.37 236.94 443.01 226.81 447.48 217.94 C 444.85 212.67 443.90 206.80 443.67 200.97 C 439.13 209.18 433.84 217.75 425.24 222.21 M 599.72 351.58 C 603.47 361.59 606.00 372.16 611.62 381.36 C 620.61 396.35 634.36 408.15 649.77 416.20 C 655.99 419.29 662.20 422.43 668.39 425.61 C 672.61 427.83 676.11 431.34 678.50 435.46 C 680.95 439.76 681.25 444.81 682.48 449.51 C 683.39 452.97 685.54 456.48 689.16 457.56 C 697.09 459.81 705.38 461.38 713.67 460.58 C 708.44 456.50 700.09 457.55 696.27 451.73 C 693.61 445.49 702.26 442.39 707.04 443.44 C 715.12 444.21 719.18 453.64 716.91 460.77 C 715.64 462.76 713.57 464.02 711.83 465.55 C 714.41 467.02 716.97 468.53 719.57 469.99 C 720.91 469.24 722.86 469.13 723.71 467.75 C 725.50 460.47 723.28 452.33 727.05 445.56 C 729.93 452.50 728.61 460.25 728.79 467.56 C 733.69 461.60 728.22 452.73 733.05 446.58 C 735.36 451.01 734.69 456.15 735.25 460.95 C 736.80 457.81 739.66 454.84 739.18 451.09 C 738.46 445.40 736.02 440.14 734.59 434.63 C 733.76 432.27 733.57 429.25 731.18 427.88 C 726.41 424.71 720.53 424.27 714.98 423.95 C 704.73 423.33 694.11 422.74 684.72 418.16 C 677.16 414.32 671.72 407.41 667.84 400.04 C 662.16 390.00 658.08 379.08 651.38 369.63 C 642.23 356.53 632.16 344.02 620.92 332.66 C 613.21 338.20 606.17 344.63 599.72 351.58 M 360.93 434.82 C 362.86 449.05 363.08 463.49 365.81 477.59 C 367.72 486.82 370.92 496.40 378.08 502.92 C 383.76 508.03 390.67 511.83 398.06 513.80 C 408.81 516.44 419.97 516.17 430.95 516.76 C 439.10 517.36 447.00 514.70 455.13 514.72 C 444.26 512.59 433.75 508.63 424.41 502.64 C 412.87 496.36 402.87 487.64 393.96 478.07 C 381.63 464.72 370.43 450.31 360.93 434.82 M 699.93 450.83 C 704.20 453.74 709.61 454.19 714.20 456.53 C 713.23 451.44 709.64 446.31 703.94 446.44 C 702.10 447.08 697.95 448.32 699.93 450.83 M 359.13 521.09 C 356.08 525.06 353.64 529.60 349.81 532.91 C 344.94 536.25 339.00 537.68 334.23 541.22 C 330.06 544.34 325.42 547.09 322.40 551.45 C 318.88 556.19 318.00 562.44 313.88 566.79 C 310.81 570.15 307.95 573.74 305.88 577.81 C 303.97 581.64 301.52 585.19 298.31 588.05 C 299.03 590.61 299.37 593.29 300.24 595.83 C 301.29 598.35 303.14 600.41 304.75 602.59 C 307.81 596.57 311.47 590.86 315.71 585.62 C 318.63 582.15 323.25 580.94 327.54 580.24 C 336.69 578.97 346.01 581.02 354.43 584.59 C 368.09 590.54 379.72 600.52 388.81 612.21 C 400.00 626.79 407.31 644.79 407.14 663.34 C 414.71 658.44 422.48 653.10 426.94 645.01 C 430.67 639.54 431.75 632.43 436.83 627.90 C 441.87 623.16 447.95 619.66 452.81 614.72 C 455.47 612.19 457.46 608.98 460.49 606.85 C 462.99 610.22 465.36 613.80 468.97 616.10 C 482.41 625.43 497.33 632.58 510.06 642.95 C 515.03 646.99 518.71 652.31 521.74 657.90 C 527.19 654.35 533.50 652.35 540.02 652.40 C 563.14 651.79 586.81 652.15 609.09 645.02 C 616.59 642.23 624.49 639.58 630.46 634.01 C 630.54 622.90 624.89 613.03 619.05 603.99 C 610.56 590.83 599.72 579.10 593.44 564.59 C 589.78 557.02 588.81 548.47 585.13 540.93 C 577.39 527.45 559.10 523.60 553.46 508.48 C 535.26 516.06 515.18 514.53 495.96 516.32 C 480.99 517.78 465.96 518.17 450.96 519.04 C 444.57 519.34 438.38 521.31 431.96 521.21 C 421.59 521.22 411.14 521.27 400.87 519.68 C 390.89 518.11 381.61 513.37 374.04 506.74 C 368.90 511.33 363.05 515.31 359.13 521.09 M 693.52 567.52 C 690.15 571.10 689.96 576.37 690.17 581.01 C 690.66 588.98 692.20 596.85 692.84 604.82 C 701.21 604.04 709.72 602.26 718.09 604.05 C 724.56 605.23 730.33 608.62 735.67 612.31 C 740.47 615.75 745.29 619.38 748.87 624.14 C 751.20 627.23 752.25 632.22 749.28 635.26 C 745.77 638.40 740.94 639.36 736.74 641.22 C 746.51 642.22 756.63 640.80 766.11 644.00 C 769.87 645.20 773.12 647.64 776.97 648.62 C 779.87 648.02 781.88 645.61 783.19 643.10 C 787.69 634.99 787.25 624.97 784.26 616.44 C 781.42 610.18 776.61 604.99 771.54 600.45 C 760.62 591.24 745.69 590.46 733.05 584.84 C 726.36 581.86 723.15 574.72 717.22 570.75 C 712.96 567.84 708.14 565.55 703.00 564.83 C 699.66 564.34 695.88 564.92 693.52 567.52 M 323.59 585.35 C 321.85 585.85 319.78 586.03 318.51 587.45 C 312.51 595.99 307.25 605.13 303.98 615.10 C 299.09 629.96 295.58 645.48 295.27 661.18 C 297.23 658.94 298.72 654.67 302.41 655.66 C 301.88 658.93 299.90 661.66 298.52 664.60 C 296.17 668.95 294.83 673.97 295.75 678.92 C 298.73 694.08 301.18 709.55 300.49 725.04 C 311.66 729.82 324.04 732.24 336.17 730.71 C 344.78 729.73 353.05 727.00 361.46 724.98 C 360.74 719.49 360.11 713.79 361.65 708.38 C 363.10 702.96 366.91 698.63 370.67 694.64 C 378.32 686.59 386.62 678.97 392.38 669.36 C 396.43 662.91 401.71 656.03 401.06 648.03 C 395.92 626.34 382.06 606.85 363.55 594.51 C 351.94 586.92 337.45 582.12 323.59 585.35 M 692.79 607.80 C 691.99 613.24 691.24 619.17 687.44 623.45 C 683.49 627.89 677.46 629.34 671.99 630.97 C 662.79 633.36 653.24 635.77 645.52 641.60 C 641.96 644.24 639.77 648.20 637.90 652.12 C 647.35 651.84 656.61 655.32 663.96 661.17 C 676.07 670.49 683.61 684.91 685.66 699.94 C 693.04 690.54 700.18 680.95 707.42 671.44 C 715.02 661.16 724.37 652.41 733.27 643.31 C 733.39 641.44 732.38 638.64 734.60 637.66 C 738.28 635.81 742.55 635.28 746.00 632.96 C 748.24 631.69 747.24 628.55 746.18 626.79 C 743.39 622.65 739.32 619.61 735.41 616.62 C 729.81 612.59 723.84 608.63 716.93 607.39 C 708.93 605.63 700.84 607.71 692.79 607.80 M 609.30 650.16 C 587.67 656.74 564.86 656.57 542.48 656.82 C 548.86 663.60 553.56 671.69 558.10 679.76 C 565.19 693.32 569.75 708.41 579.71 720.30 C 586.16 727.89 593.78 734.51 602.19 739.86 C 611.14 745.13 621.53 749.07 632.08 747.86 C 634.36 747.68 636.83 747.32 638.45 745.53 C 642.70 741.40 647.06 737.40 651.24 733.20 C 655.73 728.62 661.31 725.34 666.04 721.03 C 671.93 715.74 677.44 710.02 682.45 703.89 C 680.93 690.19 674.27 677.19 664.38 667.65 C 656.95 660.42 646.96 655.93 636.56 655.61 C 640.18 662.93 644.18 670.15 649.46 676.44 C 650.73 678.15 652.53 679.80 652.34 682.15 C 649.56 682.08 647.78 679.80 646.03 677.99 C 636.79 667.99 630.64 655.53 626.78 642.56 C 621.17 645.55 615.36 648.20 609.30 650.16 M 298.06 728.66 C 295.62 741.65 293.08 754.73 293.13 768.01 C 292.73 781.06 294.47 794.02 295.37 807.01 C 297.19 829.77 300.16 852.41 303.46 875.00 C 304.37 880.02 303.79 885.69 306.97 890.02 C 309.15 893.18 311.90 896.23 312.46 900.20 C 313.06 904.43 313.39 908.79 315.31 912.71 C 318.69 920.24 323.72 927.76 331.35 931.47 C 337.33 934.43 342.56 929.01 346.94 925.66 C 345.86 913.05 349.67 900.84 353.00 888.86 C 357.49 870.58 362.90 852.51 366.41 834.00 C 370.62 810.22 370.40 785.88 368.36 761.90 C 367.45 750.83 366.55 739.68 363.86 728.88 C 357.34 730.66 350.89 732.66 344.32 734.24 C 328.92 737.80 312.05 736.22 298.06 728.66 M 252.39 891.64 C 247.58 892.47 242.32 895.61 241.85 900.94 C 240.78 911.69 244.85 922.40 250.96 931.10 C 259.62 942.01 269.19 952.99 282.24 958.70 C 291.38 962.47 300.72 965.90 309.34 970.81 C 317.65 975.60 324.05 983.24 332.93 987.13 C 336.40 988.63 341.03 990.19 344.19 987.23 C 350.83 981.52 354.62 972.79 354.77 964.08 C 355.04 952.38 351.50 941.09 349.03 929.78 C 344.92 932.97 340.51 936.78 334.96 936.56 C 328.68 936.14 323.72 931.67 319.69 927.24 C 313.77 920.46 309.15 912.10 308.56 902.97 C 308.32 898.93 305.92 895.58 303.66 892.42 C 296.43 897.84 287.01 897.33 278.64 895.50 C 282.92 899.82 288.45 902.35 293.61 905.39 C 297.40 907.55 299.82 911.27 302.17 914.81 C 305.38 919.74 310.16 923.41 313.24 928.44 C 305.17 926.35 299.75 919.27 294.98 912.91 C 291.63 908.56 286.03 907.19 281.57 904.34 C 276.79 901.58 274.26 896.11 269.19 893.77 C 263.98 891.38 258.02 890.82 252.39 891.64 Z" />
		<path fill="#020202" opacity="1.00"
			d=" M 408.08 174.06 C 409.94 169.30 410.19 164.09 412.01 159.31 C 414.78 168.36 413.88 178.02 413.16 187.32 C 409.53 185.43 406.06 183.25 402.52 181.21 C 404.17 178.67 406.68 176.76 408.08 174.06 Z" />
	</g>
	<g id="#f0b58bff">
		<path fill="#f0b58b" opacity="1.00"
			d=" M 309.76 6.28 C 317.54 6.74 326.02 8.47 331.60 14.36 C 335.62 18.04 337.50 23.63 342.00 26.81 C 343.92 27.09 344.31 24.82 343.58 23.48 C 341.14 18.19 337.84 13.29 333.65 9.21 C 342.61 12.90 348.28 21.30 352.45 29.65 C 353.69 31.54 352.08 33.55 351.34 35.29 C 345.19 46.50 340.26 58.49 337.82 71.08 C 337.03 74.62 338.28 78.15 339.53 81.42 C 342.51 88.91 347.03 95.68 352.01 101.98 C 356.16 106.92 359.74 112.33 364.12 117.08 C 362.13 125.25 361.41 133.69 361.70 142.08 C 357.00 145.61 352.80 149.75 349.11 154.32 C 345.04 146.27 341.90 137.80 338.73 129.37 C 334.37 116.37 331.31 102.71 324.15 90.86 C 320.43 84.22 315.41 78.26 312.84 71.02 C 309.75 61.26 311.78 50.89 313.73 41.11 C 314.73 36.69 315.10 31.70 318.45 28.30 C 321.77 36.89 316.90 46.59 320.97 54.92 C 321.48 54.90 322.49 54.86 323.00 54.84 C 323.45 52.12 323.40 49.36 323.49 46.62 C 328.32 40.63 331.36 32.77 330.89 25.02 C 330.35 18.78 324.66 15.10 319.69 12.35 C 316.31 10.45 312.38 9.30 309.76 6.28 Z" />
		<path fill="#f0b58b" opacity="1.00"
			d=" M 433.27 110.27 C 442.81 114.75 450.37 122.28 456.55 130.67 C 453.91 133.66 452.05 137.28 449.24 140.09 C 440.50 143.31 431.05 143.18 421.89 143.96 C 417.59 144.19 415.52 148.46 413.71 151.76 C 412.89 152.85 413.15 155.52 414.91 155.31 C 422.65 155.39 430.38 154.67 438.11 154.38 C 440.08 157.85 441.62 161.61 444.22 164.69 C 445.34 166.30 447.19 167.80 446.96 169.98 C 446.80 174.03 445.41 177.92 445.13 181.97 C 444.66 186.02 445.33 190.38 443.20 194.07 C 438.45 203.39 432.97 213.47 423.03 218.08 C 414.74 222.29 403.06 223.10 396.19 215.85 C 389.41 208.90 384.44 200.41 380.14 191.76 C 376.14 183.48 372.61 174.90 370.47 165.95 C 370.43 162.13 371.79 158.46 372.90 154.85 C 383.11 154.77 393.36 154.97 403.54 154.46 C 405.23 152.05 404.27 148.71 403.81 146.02 C 403.34 143.85 400.72 143.89 398.99 143.70 C 391.50 143.29 383.99 143.39 376.50 143.66 C 377.29 133.06 378.66 122.47 382.02 112.35 C 389.10 116.80 394.93 122.92 399.78 129.67 C 401.80 123.64 401.20 117.27 400.56 111.07 C 403.40 112.96 406.40 114.76 408.59 117.43 C 411.69 121.18 413.26 125.85 415.54 130.08 C 417.23 124.25 416.10 118.20 415.07 112.37 C 423.57 115.61 427.75 124.12 431.67 131.69 C 433.24 124.67 433.34 117.43 433.27 110.27 M 408.08 174.06 C 406.68 176.76 404.17 178.67 402.52 181.21 C 406.06 183.25 409.53 185.43 413.16 187.32 C 413.88 178.02 414.78 168.36 412.01 159.31 C 410.19 164.09 409.94 169.30 408.08 174.06 Z" />
		<path fill="#f0b58b" opacity="1.00"
			d=" M 425.24 222.21 C 433.84 217.75 439.13 209.18 443.67 200.97 C 443.90 206.80 444.85 212.67 447.48 217.94 C 443.01 226.81 439.37 236.94 430.82 242.79 C 427.09 245.15 422.17 247.57 417.89 245.15 C 409.57 240.92 405.59 231.98 400.67 224.58 C 408.61 228.05 417.80 226.01 425.24 222.21 Z" />
		<path fill="#f0b58b" opacity="1.00"
			d=" M 599.72 351.58 C 606.17 344.63 613.21 338.20 620.92 332.66 C 632.16 344.02 642.23 356.53 651.38 369.63 C 658.08 379.08 662.16 390.00 667.84 400.04 C 671.72 407.41 677.16 414.32 684.72 418.16 C 694.11 422.74 704.73 423.33 714.98 423.95 C 720.53 424.27 726.41 424.71 731.18 427.88 C 733.57 429.25 733.76 432.27 734.59 434.63 C 736.02 440.14 738.46 445.40 739.18 451.09 C 739.66 454.84 736.80 457.81 735.25 460.95 C 734.69 456.15 735.36 451.01 733.05 446.58 C 728.22 452.73 733.69 461.60 728.79 467.56 C 728.61 460.25 729.93 452.50 727.05 445.56 C 723.28 452.33 725.50 460.47 723.71 467.75 C 722.86 469.13 720.91 469.24 719.57 469.99 C 716.97 468.53 714.41 467.02 711.83 465.55 C 713.57 464.02 715.64 462.76 716.91 460.77 C 719.18 453.64 715.12 444.21 707.04 443.44 C 702.26 442.39 693.61 445.49 696.27 451.73 C 700.09 457.55 708.44 456.50 713.67 460.58 C 705.38 461.38 697.09 459.81 689.16 457.56 C 685.54 456.48 683.39 452.97 682.48 449.51 C 681.25 444.81 680.95 439.76 678.50 435.46 C 676.11 431.34 672.61 427.83 668.39 425.61 C 662.20 422.43 655.99 419.29 649.77 416.20 C 634.36 408.15 620.61 396.35 611.62 381.36 C 606.00 372.16 603.47 361.59 599.72 351.58 Z" />
		<path fill="#f0b58b" opacity="1.00"
			d=" M 323.59 585.35 C 337.45 582.12 351.94 586.92 363.55 594.51 C 382.06 606.85 395.92 626.34 401.06 648.03 C 401.71 656.03 396.43 662.91 392.38 669.36 C 386.62 678.97 378.32 686.59 370.67 694.64 C 366.91 698.63 363.10 702.96 361.65 708.38 C 360.11 713.79 360.74 719.49 361.46 724.98 C 353.05 727.00 344.78 729.73 336.17 730.71 C 324.04 732.24 311.66 729.82 300.49 725.04 C 301.18 709.55 298.73 694.08 295.75 678.92 C 294.83 673.97 296.17 668.95 298.52 664.60 C 299.90 661.66 301.88 658.93 302.41 655.66 C 298.72 654.67 297.23 658.94 295.27 661.18 C 295.58 645.48 299.09 629.96 303.98 615.10 C 307.25 605.13 312.51 595.99 318.51 587.45 C 319.78 586.03 321.85 585.85 323.59 585.35 Z" />
		<path fill="#f0b58b" opacity="1.00"
			d=" M 609.30 650.16 C 615.36 648.20 621.17 645.55 626.78 642.56 C 630.64 655.53 636.79 667.99 646.03 677.99 C 647.78 679.80 649.56 682.08 652.34 682.15 C 652.53 679.80 650.73 678.15 649.46 676.44 C 644.18 670.15 640.18 662.93 636.56 655.61 C 646.96 655.93 656.95 660.42 664.38 667.65 C 674.27 677.19 680.93 690.19 682.45 703.89 C 677.44 710.02 671.93 715.74 666.04 721.03 C 661.31 725.34 655.73 728.62 651.24 733.20 C 647.06 737.40 642.70 741.40 638.45 745.53 C 636.83 747.32 634.36 747.68 632.08 747.86 C 621.53 749.07 611.14 745.13 602.19 739.86 C 593.78 734.51 586.16 727.89 579.71 720.30 C 569.75 708.41 565.19 693.32 558.10 679.76 C 553.56 671.69 548.86 663.60 542.48 656.82 C 564.86 656.57 587.67 656.74 609.30 650.16 Z" />
	</g>
	<g id="#f11b27ff">
		<path fill="var(--shirt-color, grey)" opacity="1.00"
			d=" M 351.18 158.42 C 354.44 154.26 358.17 150.50 362.09 146.96 C 363.79 163.40 368.73 179.39 375.77 194.30 C 381.16 205.16 387.71 216.06 398.02 222.91 C 398.97 228.73 402.22 233.80 405.35 238.68 C 409.03 244.05 414.17 249.37 420.96 250.19 C 426.56 250.31 431.84 247.48 436.00 243.92 C 443.23 237.51 446.58 228.18 450.73 219.72 C 455.89 208.63 462.45 198.27 469.05 187.99 C 470.79 189.79 472.62 191.51 474.52 193.16 C 471.76 194.63 468.58 196.11 467.98 199.56 C 472.37 198.33 476.41 195.87 481.01 195.45 C 484.25 195.28 487.42 196.32 490.39 197.52 C 499.51 201.47 507.59 207.42 514.87 214.12 C 523.01 221.50 531.30 229.35 542.12 232.53 C 536.34 233.58 530.15 234.41 525.53 238.38 C 528.83 240.11 532.37 238.62 535.74 238.01 C 543.48 236.38 551.85 235.70 559.35 238.72 C 566.41 241.40 571.93 247.68 573.80 254.99 C 575.71 261.14 576.79 268.05 581.19 273.00 C 581.77 273.14 582.93 273.40 583.52 273.54 C 583.10 269.52 581.52 265.77 580.42 261.92 C 591.42 273.80 603.10 285.04 613.94 297.07 C 617.80 301.36 620.49 306.50 623.77 311.21 C 626.47 315.15 630.48 317.88 634.42 320.46 C 621.13 325.08 610.05 334.41 600.17 344.18 C 594.33 349.67 590.16 356.57 585.94 363.31 C 581.31 355.18 575.91 347.42 569.24 340.83 C 564.74 336.42 559.34 333.09 553.98 329.84 C 548.14 326.39 542.38 322.78 536.24 319.87 C 533.42 318.54 530.56 317.04 528.62 314.51 C 523.15 307.80 519.49 299.86 516.02 291.99 C 515.27 290.01 513.81 288.45 512.07 287.28 C 511.65 292.76 514.26 297.74 516.44 302.57 C 518.22 306.52 520.58 310.18 523.12 313.69 C 511.38 308.63 499.20 304.39 488.22 297.75 C 484.61 295.63 481.38 292.94 477.70 290.94 C 478.41 293.37 479.67 295.66 481.77 297.18 C 495.25 307.55 511.56 313.00 526.96 319.78 C 527.48 328.13 524.41 336.27 520.22 343.35 C 516.61 347.83 510.28 348.13 504.98 348.39 C 492.62 349.18 480.27 344.44 468.00 347.05 C 466.86 347.59 463.07 348.60 465.61 350.24 C 482.43 349.16 499.23 355.77 515.93 351.66 C 514.92 356.68 516.63 361.57 518.10 366.31 C 505.36 362.68 492.03 364.66 479.00 364.13 C 464.52 364.30 450.30 360.84 436.58 356.49 C 430.93 354.83 426.00 350.55 419.89 350.73 C 426.43 356.28 434.47 359.81 442.65 362.19 C 451.92 364.90 461.35 367.38 471.03 367.94 C 482.33 368.61 493.65 368.04 504.96 368.14 C 510.19 368.08 515.20 369.63 520.07 371.36 C 523.73 381.76 524.17 393.04 523.45 403.95 C 516.96 401.66 510.24 399.93 504.07 396.84 C 499.49 394.70 495.06 391.78 489.85 391.58 C 494.58 396.04 500.62 398.71 506.29 401.76 C 512.80 405.18 520.80 406.21 525.92 411.92 C 539.95 426.66 550.96 444.11 566.03 457.89 C 570.29 461.42 574.34 465.42 576.59 470.58 C 579.49 475.51 578.65 481.89 575.47 486.48 C 570.54 493.92 562.89 499.08 555.10 503.15 C 542.77 509.61 528.57 510.21 514.97 511.04 C 502.30 511.48 489.68 512.74 477.04 513.54 C 465.35 514.58 453.79 511.21 443.10 506.75 C 433.90 503.27 425.48 498.05 417.26 492.71 C 404.30 482.73 393.71 470.11 383.47 457.45 C 373.44 444.30 363.17 430.74 358.29 414.71 C 349.61 387.39 348.81 358.42 348.69 330.00 C 347.94 316.02 349.74 302.11 351.18 288.23 C 352.81 273.31 354.29 258.25 358.68 243.83 C 360.47 235.48 365.01 227.74 364.90 219.02 C 364.90 209.36 365.07 199.69 364.78 190.03 C 364.49 183.82 364.09 177.36 361.22 171.72 C 358.73 166.69 354.91 162.53 351.18 158.42 Z" />
		<path fill="var(--shirt-color, grey)" opacity="1.00"
			d=" M 448.35 197.98 C 453.57 194.00 459.43 191.00 465.40 188.32 C 459.94 195.90 455.02 203.86 450.45 212.00 C 449.38 207.39 448.64 202.71 448.35 197.98 Z" />
		<path fill="var(--shirt-color, grey)" opacity="1.00"
			d=" M 360.93 434.82 C 370.43 450.31 381.63 464.72 393.96 478.07 C 402.87 487.64 412.87 496.36 424.41 502.64 C 433.75 508.63 444.26 512.59 455.13 514.72 C 447.00 514.70 439.10 517.36 430.95 516.76 C 419.97 516.17 408.81 516.44 398.06 513.80 C 390.67 511.83 383.76 508.03 378.08 502.92 C 370.92 496.40 367.72 486.82 365.81 477.59 C 363.08 463.49 362.86 449.05 360.93 434.82 Z" />
	</g>
	<g id="#2b3dcdff">
		<path fill="var(--pants-color, grey)" opacity="1.00"
			d=" M 359.13 521.09 C 363.05 515.31 368.90 511.33 374.04 506.74 C 381.61 513.37 390.89 518.11 400.87 519.68 C 411.14 521.27 421.59 521.22 431.96 521.21 C 438.38 521.31 444.57 519.34 450.96 519.04 C 465.96 518.17 480.99 517.78 495.96 516.32 C 515.18 514.53 535.26 516.06 553.46 508.48 C 559.10 523.60 577.39 527.45 585.13 540.93 C 588.81 548.47 589.78 557.02 593.44 564.59 C 599.72 579.10 610.56 590.83 619.05 603.99 C 624.89 613.03 630.54 622.90 630.46 634.01 C 624.49 639.58 616.59 642.23 609.09 645.02 C 586.81 652.15 563.14 651.79 540.02 652.40 C 533.50 652.35 527.19 654.35 521.74 657.90 C 518.71 652.31 515.03 646.99 510.06 642.95 C 497.33 632.58 482.41 625.43 468.97 616.10 C 465.36 613.80 462.99 610.22 460.49 606.85 C 457.46 608.98 455.47 612.19 452.81 614.72 C 447.95 619.66 441.87 623.16 436.83 627.90 C 431.75 632.43 430.67 639.54 426.94 645.01 C 422.48 653.10 414.71 658.44 407.14 663.34 C 407.31 644.79 400.00 626.79 388.81 612.21 C 379.72 600.52 368.09 590.54 354.43 584.59 C 346.01 581.02 336.69 578.97 327.54 580.24 C 323.25 580.94 318.63 582.15 315.71 585.62 C 311.47 590.86 307.81 596.57 304.75 602.59 C 303.14 600.41 301.29 598.35 300.24 595.83 C 299.37 593.29 299.03 590.61 298.31 588.05 C 301.52 585.19 303.97 581.64 305.88 577.81 C 307.95 573.74 310.81 570.15 313.88 566.79 C 318.00 562.44 318.88 556.19 322.40 551.45 C 325.42 547.09 330.06 544.34 334.23 541.22 C 339.00 537.68 344.94 536.25 349.81 532.91 C 353.64 529.60 356.08 525.06 359.13 521.09 Z" />
		<path fill="var(--socks-color, grey)" opacity="1.00"
			d=" M 692.79 607.80 C 700.84 607.71 708.93 605.63 716.93 607.39 C 723.84 608.63 729.81 612.59 735.41 616.62 C 739.32 619.61 743.39 622.65 746.18 626.79 C 747.24 628.55 748.24 631.69 746.00 632.96 C 742.55 635.28 738.28 635.81 734.60 637.66 C 732.38 638.64 733.39 641.44 733.27 643.31 C 724.37 652.41 715.02 661.16 707.42 671.44 C 700.18 680.95 693.04 690.54 685.66 699.94 C 683.61 684.91 676.07 670.49 663.96 661.17 C 656.61 655.32 647.35 651.84 637.90 652.12 C 639.77 648.20 641.96 644.24 645.52 641.60 C 653.24 635.77 662.79 633.36 671.99 630.97 C 677.46 629.34 683.49 627.89 687.44 623.45 C 691.24 619.17 691.99 613.24 692.79 607.80 Z" />
		<path fill="var(--socks-color, grey)" opacity="1.00"
			d=" M 298.06 728.66 C 312.05 736.22 328.92 737.80 344.32 734.24 C 350.89 732.66 357.34 730.66 363.86 728.88 C 366.55 739.68 367.45 750.83 368.36 761.90 C 370.40 785.88 370.62 810.22 366.41 834.00 C 362.90 852.51 357.49 870.58 353.00 888.86 C 349.67 900.84 345.86 913.05 346.94 925.66 C 342.56 929.01 337.33 934.43 331.35 931.47 C 323.72 927.76 318.69 920.24 315.31 912.71 C 313.39 908.79 313.06 904.43 312.46 900.20 C 311.90 896.23 309.15 893.18 306.97 890.02 C 303.79 885.69 304.37 880.02 303.46 875.00 C 300.16 852.41 297.19 829.77 295.37 807.01 C 294.47 794.02 292.73 781.06 293.13 768.01 C 293.08 754.73 295.62 741.65 298.06 728.66 Z" />
	</g>
	<g id="#4d4d4dff">
		<path fill="#4d4d4d" opacity="1.00"
			d=" M 693.52 567.52 C 695.88 564.92 699.66 564.34 703.00 564.83 C 708.14 565.55 712.96 567.84 717.22 570.75 C 723.15 574.72 726.36 581.86 733.05 584.84 C 745.69 590.46 760.62 591.24 771.54 600.45 C 776.61 604.99 781.42 610.18 784.26 616.44 C 787.25 624.97 787.69 634.99 783.19 643.10 C 781.88 645.61 779.87 648.02 776.97 648.62 C 773.12 647.64 769.87 645.20 766.11 644.00 C 756.63 640.80 746.51 642.22 736.74 641.22 C 740.94 639.36 745.77 638.40 749.28 635.26 C 752.25 632.22 751.20 627.23 748.87 624.14 C 745.29 619.38 740.47 615.75 735.67 612.31 C 730.33 608.62 724.56 605.23 718.09 604.05 C 709.72 602.26 701.21 604.04 692.84 604.82 C 692.20 596.85 690.66 588.98 690.17 581.01 C 689.96 576.37 690.15 571.10 693.52 567.52 Z" />
		<path fill="#4d4d4d" opacity="1.00"
			d=" M 252.39 891.64 C 258.02 890.82 263.98 891.38 269.19 893.77 C 274.26 896.11 276.79 901.58 281.57 904.34 C 286.03 907.19 291.63 908.56 294.98 912.91 C 299.75 919.27 305.17 926.35 313.24 928.44 C 310.16 923.41 305.38 919.74 302.17 914.81 C 299.82 911.27 297.40 907.55 293.61 905.39 C 288.45 902.35 282.92 899.82 278.64 895.50 C 287.01 897.33 296.43 897.84 303.66 892.42 C 305.92 895.58 308.32 898.93 308.56 902.97 C 309.15 912.10 313.77 920.46 319.69 927.24 C 323.72 931.67 328.68 936.14 334.96 936.56 C 340.51 936.78 344.92 932.97 349.03 929.78 C 351.50 941.09 355.04 952.38 354.77 964.08 C 354.62 972.79 350.83 981.52 344.19 987.23 C 341.03 990.19 336.40 988.63 332.93 987.13 C 324.05 983.24 317.65 975.60 309.34 970.81 C 300.72 965.90 291.38 962.47 282.24 958.70 C 269.19 952.99 259.62 942.01 250.96 931.10 C 244.85 922.40 240.78 911.69 241.85 900.94 C 242.32 895.61 247.58 892.47 252.39 891.64 Z" />
	</g>
</svg>