<?xml version="1.0" encoding="UTF-8" ?>
<!DOCTYPE svg PUBLIC "-//W3C//DTD SVG 1.1//EN" "http://www.w3.org/Graphics/SVG/1.1/DTD/svg11.dtd">
<svg width="1000pt" height="1000pt" viewBox="0 0 1000 1000" version="1.1" xmlns="http://www.w3.org/2000/svg">
	<g id="#020202ff">
		<path fill="#020202" opacity="1.00"
			d=" M 470.45 21.23 C 485.55 19.61 500.79 24.44 513.36 32.67 C 526.93 41.64 538.05 55.01 542.44 70.84 C 544.59 78.94 544.82 87.81 541.54 95.64 C 538.19 105.47 530.24 112.97 521.25 117.77 C 521.27 125.13 522.11 132.71 525.83 139.22 C 528.19 144.00 531.94 147.88 535.96 151.30 C 538.23 149.27 539.87 146.73 541.33 144.10 C 541.99 142.71 543.86 143.49 544.89 143.98 C 549.16 146.25 552.68 149.64 556.50 152.56 C 569.71 162.87 582.51 173.73 594.20 185.76 C 601.01 192.95 609.02 198.94 615.33 206.61 C 623.01 216.04 625.96 228.30 627.32 240.14 C 628.85 253.31 623.94 265.97 623.06 278.98 C 622.02 291.03 625.09 303.02 624.08 315.07 C 624.11 317.56 622.33 319.36 620.73 321.02 C 623.06 334.25 625.71 347.49 626.05 360.97 C 626.91 394.14 616.52 426.71 600.70 455.57 C 602.19 472.11 604.86 488.51 606.43 505.04 C 607.74 518.43 604.44 531.60 602.79 544.81 C 601.49 555.20 600.80 565.78 602.39 576.18 C 605.69 602.00 608.98 627.92 608.97 653.99 C 608.81 656.57 608.82 659.30 607.67 661.68 C 606.83 663.46 604.53 662.55 603.00 662.90 C 603.19 675.01 605.75 686.91 608.19 698.71 C 613.21 717.51 619.43 735.95 625.74 754.35 C 630.20 769.25 634.23 784.45 635.21 800.04 C 636.60 818.70 634.90 837.40 635.38 856.08 C 635.87 879.41 635.69 902.82 638.46 926.03 C 639.11 935.73 645.90 943.29 650.66 951.29 C 653.92 956.18 655.82 962.08 655.14 968.01 C 654.82 973.01 651.36 977.73 646.57 979.33 C 641.24 981.03 635.57 980.91 630.04 980.88 C 619.19 980.50 608.64 983.55 598.02 985.31 C 579.81 988.29 561.25 991.16 542.78 989.02 C 535.84 988.36 532.85 979.04 536.87 973.87 C 538.93 971.52 541.66 969.92 544.27 968.29 C 555.49 961.77 566.24 954.45 576.41 946.39 C 581.74 942.13 587.18 937.95 591.88 932.98 C 593.06 916.79 589.94 900.69 586.16 885.02 C 580.80 864.47 573.72 844.43 567.95 824.00 C 563.90 810.34 562.84 796.06 560.26 782.10 C 557.87 767.56 555.24 752.95 550.18 739.06 C 548.20 733.36 546.13 727.68 543.99 722.04 C 535.91 701.84 524.43 682.90 519.14 661.66 C 517.89 674.15 513.32 686.31 514.25 699.03 C 515.83 718.85 525.62 736.82 528.24 756.45 C 531.36 778.45 529.40 800.87 525.25 822.60 C 521.96 838.53 514.00 853.03 510.57 868.91 C 507.34 886.90 512.47 904.96 511.94 923.03 C 515.23 927.46 516.51 932.94 517.76 938.23 C 519.32 945.74 520.26 953.42 520.17 961.11 C 520.18 965.71 516.12 968.99 512.02 970.18 C 497.01 974.86 481.10 970.40 465.86 973.32 C 455.74 974.96 446.34 979.67 436.06 980.52 C 425.03 981.76 414.04 979.77 403.15 978.26 C 396.66 977.31 390.20 976.03 383.93 974.12 C 380.33 972.90 376.37 971.11 374.63 967.51 C 373.50 962.29 375.98 956.24 380.89 953.82 C 385.10 951.75 389.89 951.50 394.44 950.66 C 410.15 948.09 425.18 941.52 437.77 931.78 C 443.29 927.68 448.27 922.90 453.83 918.85 C 457.65 909.30 459.79 899.16 461.97 889.14 C 464.32 869.70 461.58 850.01 457.44 830.99 C 454.39 816.12 451.17 801.21 450.43 786.00 C 449.03 769.35 450.04 752.59 448.45 735.96 C 447.16 721.72 438.94 709.47 435.34 695.85 C 432.36 684.50 430.91 672.41 433.32 660.82 C 429.07 661.31 424.91 662.28 420.69 662.93 C 426.11 640.68 423.15 617.65 422.46 595.06 C 421.15 573.53 422.92 551.83 427.85 530.82 C 429.46 521.94 432.59 513.40 433.67 504.43 C 434.96 496.08 440.15 488.41 438.75 479.70 C 432.37 489.29 426.07 499.13 421.98 509.94 C 420.61 518.47 420.94 527.43 417.52 535.55 C 419.07 536.50 421.55 536.90 421.86 539.05 C 422.35 542.01 420.67 544.71 419.50 547.30 C 422.58 553.86 416.30 559.68 411.17 562.76 C 413.35 565.23 416.07 567.67 416.61 571.10 C 417.03 573.45 414.86 575.15 412.86 575.78 C 407.85 577.48 402.46 577.56 397.24 577.15 C 396.83 579.63 397.19 582.51 395.57 584.62 C 394.07 586.39 391.30 585.90 389.91 584.25 C 382.87 577.12 375.63 569.80 371.28 560.63 C 367.89 553.14 369.89 544.80 370.25 536.94 C 370.69 531.75 370.20 525.99 373.37 521.52 C 379.79 512.29 388.10 504.38 393.38 494.38 C 397.66 486.35 398.19 477.10 400.54 468.46 C 403.70 456.48 405.01 444.11 408.03 432.11 C 412.43 413.89 417.38 395.81 422.57 377.80 C 424.35 371.35 423.85 364.60 423.88 357.99 C 423.71 349.66 424.13 341.31 423.29 333.00 C 422.04 318.38 422.35 303.69 422.21 289.03 C 421.68 275.92 421.95 262.61 418.66 249.80 C 416.53 238.73 414.59 227.10 417.76 216.02 C 419.31 210.03 421.83 203.82 427.01 200.07 C 433.19 195.15 441.72 194.81 447.89 189.88 C 452.13 186.43 452.96 180.55 456.60 176.62 C 459.70 173.15 464.22 171.55 468.50 170.11 C 466.29 167.22 463.16 164.42 459.22 165.24 C 454.77 167.27 451.05 171.18 445.98 171.70 C 443.35 171.96 440.07 170.77 439.45 167.93 C 436.68 158.12 434.68 147.97 430.17 138.77 C 428.47 134.79 423.40 135.08 420.32 132.69 C 416.64 130.33 411.46 126.48 413.64 121.46 C 417.56 112.33 423.39 103.35 422.91 93.01 C 422.39 79.34 425.38 65.32 432.51 53.56 C 432.51 44.28 440.19 38.06 446.36 32.26 C 452.84 25.97 461.49 22.17 470.45 21.23 M 440.65 63.98 C 438.15 62.26 436.15 59.98 434.25 57.64 C 431.63 65.37 429.30 73.24 428.29 81.36 C 432.33 78.80 437.04 76.39 441.96 77.79 C 450.27 79.91 457.53 84.77 464.66 89.35 C 456.04 93.97 446.86 97.53 437.69 100.85 C 437.14 97.99 437.23 94.88 435.79 92.27 C 433.71 89.71 430.64 88.24 428.06 86.25 C 428.11 91.86 428.65 97.62 426.98 103.07 C 424.73 110.44 421.13 117.28 417.77 124.19 C 420.55 126.89 423.73 129.19 427.31 130.72 C 429.95 131.83 432.67 133.22 434.14 135.81 C 439.77 145.26 440.87 156.40 442.81 166.99 C 447.67 167.13 451.75 164.20 455.63 161.66 C 464.66 155.41 473.42 148.78 482.21 142.20 C 484.19 140.67 486.39 139.41 488.85 138.83 C 486.77 142.65 483.11 145.11 479.90 147.89 C 474.80 152.01 469.94 156.44 464.71 160.40 C 468.50 161.99 471.79 164.76 473.49 168.56 C 479.33 179.89 479.77 192.97 479.79 205.44 C 487.39 196.71 497.10 190.29 505.56 182.48 C 511.21 177.23 514.19 169.93 519.07 164.07 C 522.13 160.20 526.16 157.31 530.16 154.49 C 519.55 146.47 517.68 132.50 515.62 120.30 C 507.96 122.76 500.09 124.55 492.24 126.24 C 493.34 122.68 495.08 119.35 497.41 116.45 C 502.02 110.36 506.46 103.08 505.38 95.10 C 504.65 88.88 501.61 81.87 495.08 79.96 C 491.86 82.50 489.44 85.82 486.93 89.02 C 483.51 93.39 477.57 94.68 472.28 94.27 C 472.49 90.19 473.10 86.11 472.94 82.01 C 472.73 77.32 470.90 72.95 469.62 68.50 C 463.36 69.98 456.50 71.18 450.35 68.62 C 451.28 63.35 452.43 57.75 450.49 52.57 C 449.79 50.74 448.22 48.56 445.99 49.53 C 441.31 52.75 440.73 58.79 440.65 63.98 M 527.63 162.74 C 519.76 168.76 516.60 178.70 509.64 185.56 C 504.22 190.87 498.11 195.41 492.32 200.31 C 487.26 204.63 482.90 209.67 478.58 214.69 C 477.10 216.46 474.47 214.94 474.40 212.87 C 473.00 199.86 474.85 186.20 469.90 173.75 C 465.69 175.49 461.06 177.45 458.78 181.67 C 456.35 186.11 454.76 191.39 450.29 194.30 C 443.77 199.42 434.52 199.62 428.60 205.58 C 423.54 211.79 422.37 220.23 422.11 227.99 C 422.33 241.83 425.66 255.36 428.08 268.92 C 430.84 285.27 434.54 301.44 437.06 317.83 C 438.58 327.89 441.24 337.79 441.71 347.99 C 441.99 357.06 439.88 365.96 438.39 374.85 C 436.91 383.83 437.47 392.97 437.49 402.03 C 437.68 414.40 437.86 426.79 438.92 439.13 C 439.91 453.52 440.82 468.05 444.47 482.06 C 444.70 491.67 438.22 499.76 437.21 509.20 C 448.90 512.17 460.92 513.98 472.98 514.22 C 484.08 513.85 494.94 510.98 505.48 507.66 C 515.46 504.40 526.13 503.05 536.59 504.26 C 538.14 500.42 539.71 496.53 542.17 493.17 C 544.94 489.32 548.28 485.86 550.48 481.62 C 554.37 474.27 557.11 466.36 559.21 458.33 C 562.44 445.42 565.06 432.36 567.35 419.25 C 568.98 410.83 570.60 402.36 573.36 394.21 C 574.03 392.13 574.84 390.07 575.21 387.91 C 576.37 377.78 576.55 367.45 574.26 357.46 C 572.94 348.34 570.05 339.56 566.39 331.14 C 565.03 332.30 563.67 333.46 562.29 334.60 C 560.75 332.38 559.48 329.91 559.29 327.17 C 558.72 321.79 557.65 316.47 555.80 311.38 C 552.78 323.69 552.44 336.52 548.81 348.70 C 546.43 357.48 542.71 365.80 539.16 374.14 C 533.44 387.42 526.09 400.15 522.96 414.40 C 521.57 407.07 524.76 400.02 527.31 393.33 C 534.33 376.15 543.25 359.54 547.16 341.25 C 549.37 330.45 549.91 319.35 552.83 308.69 C 553.99 305.44 551.41 302.56 550.34 299.66 C 547.53 309.16 538.52 314.28 532.10 321.09 C 527.40 325.74 524.17 331.56 520.03 336.67 C 521.89 330.09 526.30 324.70 530.43 319.41 C 534.65 313.99 540.35 309.92 544.36 304.32 C 546.78 300.97 548.23 296.43 546.59 292.44 C 544.10 285.94 541.93 279.27 541.20 272.32 C 537.55 269.62 533.40 267.76 529.44 265.60 C 523.95 262.57 519.68 257.79 516.26 252.62 C 512.87 247.47 509.65 242.00 508.59 235.84 C 513.62 242.11 516.78 249.71 522.27 255.66 C 527.28 261.88 534.93 264.74 541.36 269.13 C 538.28 261.22 532.69 254.72 528.63 247.36 C 526.86 244.29 526.12 240.78 525.99 237.28 C 529.98 245.18 535.40 252.19 539.89 259.78 C 539.75 253.63 538.63 246.91 541.71 241.26 C 543.16 246.69 542.78 252.37 543.58 257.91 C 544.84 267.31 545.78 276.90 549.19 285.84 C 551.60 293.27 556.13 299.74 559.00 306.98 C 561.89 313.11 563.18 319.82 563.76 326.53 C 571.02 321.84 579.42 319.38 587.85 317.79 C 598.34 315.88 608.99 314.92 619.65 314.69 C 620.22 304.12 618.20 293.64 618.33 283.08 C 618.36 268.23 624.72 253.91 622.61 238.98 C 621.46 230.86 619.69 222.63 615.77 215.35 C 612.03 208.37 606.07 202.99 600.31 197.72 C 593.62 191.73 587.53 185.12 580.82 179.16 C 569.36 168.30 556.52 159.05 544.87 148.41 C 541.15 155.34 533.32 157.88 527.63 162.74 M 427.60 332.10 C 429.80 332.07 432.01 332.05 434.22 332.05 C 431.89 318.65 429.58 305.24 427.24 291.83 C 427.03 305.25 427.16 318.68 427.60 332.10 M 570.55 328.85 C 573.84 335.16 576.34 341.90 577.80 348.88 C 579.46 358.00 581.26 367.23 580.53 376.56 C 583.04 370.68 586.26 365.09 588.10 358.93 C 588.85 356.31 589.68 353.70 591.02 351.32 C 591.68 353.52 592.49 355.84 591.91 358.17 C 589.49 371.81 581.35 383.45 577.34 396.56 C 572.98 410.41 571.43 424.91 568.55 439.09 C 565.27 455.65 561.71 472.55 553.28 487.38 C 549.32 493.43 543.87 498.65 541.86 505.82 C 539.17 515.61 538.31 525.80 537.38 535.88 C 537.00 542.73 536.43 549.95 539.18 556.42 C 540.01 552.32 540.23 548.13 540.16 543.96 C 540.05 537.26 541.19 530.63 542.56 524.09 C 542.88 522.17 544.05 520.57 545.25 519.10 C 545.75 523.75 544.72 528.38 544.69 533.04 C 544.35 539.73 545.08 546.41 544.68 553.10 C 544.41 555.49 546.09 557.43 547.10 559.45 C 550.12 552.30 547.68 544.46 548.26 536.99 C 548.72 531.62 548.85 525.72 552.18 521.22 C 553.08 523.74 553.01 526.42 552.72 529.05 C 551.94 536.73 552.96 544.42 553.31 552.10 C 553.34 554.63 554.17 557.03 555.05 559.38 C 558.74 553.26 557.54 545.84 557.77 539.04 C 557.99 533.41 557.19 527.32 559.92 522.17 C 560.48 522.20 561.59 522.24 562.15 522.27 C 563.16 534.30 561.11 546.72 564.61 558.50 C 568.21 547.29 565.88 535.42 566.29 523.91 C 566.28 521.97 567.21 520.22 568.01 518.52 C 568.81 520.23 569.65 521.99 569.77 523.92 C 570.61 531.31 570.82 538.77 570.75 546.21 C 572.77 539.85 573.89 533.26 575.42 526.78 C 577.19 518.05 573.17 509.62 572.89 500.98 C 573.64 492.94 577.81 485.75 581.91 478.96 C 585.17 472.91 588.53 466.92 592.09 461.04 C 601.80 445.07 609.48 427.86 614.98 409.99 C 620.05 391.15 622.83 371.42 620.76 351.91 C 619.94 341.40 617.53 331.10 616.54 320.62 C 601.00 321.57 585.07 322.80 570.55 328.85 M 428.41 336.42 C 428.64 347.60 429.14 358.78 428.79 369.96 C 428.62 375.92 426.68 381.58 425.19 387.29 C 419.57 409.39 413.35 431.37 409.31 453.83 C 407.17 464.59 404.01 475.11 401.47 485.79 C 398.02 498.88 388.67 509.11 380.29 519.31 C 378.28 521.93 375.65 524.47 375.28 527.94 C 374.68 532.63 374.89 537.39 374.39 542.10 C 373.92 547.61 373.00 553.44 375.26 558.69 C 379.43 567.94 386.61 575.30 393.08 582.95 C 394.44 572.79 383.70 567.07 381.61 557.87 C 379.97 549.34 380.72 540.59 381.09 531.98 C 381.41 528.28 381.19 524.35 383.01 520.98 C 384.76 522.89 384.58 525.57 384.72 527.97 C 384.85 537.48 384.36 547.03 385.51 556.50 C 387.58 555.05 390.26 553.99 391.40 551.59 C 393.19 544.88 392.90 537.84 394.09 531.04 C 394.44 527.28 398.87 527.66 401.46 526.43 C 406.97 523.91 406.05 516.05 411.20 513.19 C 411.90 518.39 410.38 523.93 406.96 527.94 C 404.75 530.50 401.33 531.30 398.17 532.02 C 397.31 540.00 397.35 548.35 394.01 555.80 C 394.34 556.92 394.69 558.03 395.07 559.14 C 399.24 551.63 407.36 546.67 415.84 545.76 C 416.61 543.71 417.37 541.67 418.06 539.60 C 413.80 540.57 410.59 543.58 406.98 545.78 C 406.63 545.60 405.93 545.23 405.58 545.05 C 406.10 541.38 409.50 539.32 411.55 536.54 C 413.87 533.90 414.62 530.35 415.11 526.97 C 415.90 521.29 416.48 515.58 417.23 509.90 C 417.70 505.55 420.22 501.88 422.12 498.07 C 426.54 489.47 431.75 481.31 436.71 473.02 C 432.66 446.23 431.93 419.06 431.83 392.00 C 431.75 385.18 432.12 378.32 433.40 371.61 C 434.73 364.46 436.32 357.30 436.43 350.00 C 436.45 345.31 435.59 340.69 435.02 336.06 C 432.82 336.19 430.61 336.29 428.41 336.42 M 579.38 495.16 C 577.49 499.38 577.85 504.06 578.73 508.47 C 587.54 509.94 595.00 515.24 601.38 521.22 C 603.60 501.02 597.85 481.12 597.53 460.97 C 590.83 471.99 584.27 483.19 579.38 495.16 M 518.05 510.14 C 510.47 511.30 503.41 514.47 495.98 516.24 C 487.81 518.22 479.50 520.23 471.03 519.91 C 459.14 519.60 447.27 517.67 435.94 514.06 C 432.80 530.28 429.00 546.46 428.05 563.01 C 426.08 588.00 429.80 612.96 429.33 637.96 C 429.29 644.85 427.65 651.60 425.29 658.05 C 440.96 653.59 457.11 657.74 473.00 657.72 C 481.25 657.88 489.65 657.63 497.53 654.89 C 491.36 636.57 494.66 616.96 491.44 598.17 C 490.15 591.20 490.16 584.09 489.53 577.06 C 489.24 575.31 489.46 573.23 488.02 571.94 C 485.14 569.01 481.95 566.23 480.31 562.35 C 482.11 562.86 484.04 563.21 485.61 564.31 C 492.04 568.82 497.50 574.71 501.36 581.56 C 504.00 586.38 508.22 591.07 507.36 596.97 C 504.81 595.04 502.97 592.41 501.29 589.73 C 498.54 585.34 495.51 581.14 492.47 576.95 C 493.52 584.32 495.04 591.61 496.08 598.98 C 497.72 609.58 497.71 620.33 498.07 631.03 C 498.35 640.85 500.18 650.69 504.00 659.76 C 517.69 658.37 530.44 652.66 544.04 650.82 C 556.80 649.06 569.94 648.71 582.57 651.59 C 589.83 653.27 596.96 655.47 604.05 657.78 C 604.50 636.37 601.85 615.08 599.60 593.84 C 598.46 583.24 596.11 572.72 596.51 562.02 C 596.74 550.14 598.67 538.40 600.53 526.70 C 594.38 521.46 587.51 517.05 579.96 514.12 C 581.02 520.65 580.35 527.26 578.41 533.56 C 576.60 539.52 576.43 547.14 570.45 550.67 C 569.49 554.39 569.66 558.97 566.71 561.81 C 564.20 563.62 562.15 560.72 560.65 559.05 C 559.19 560.37 558.01 562.45 555.86 562.68 C 554.36 562.54 553.03 561.78 551.66 561.23 C 550.46 561.98 549.31 562.82 548.00 563.38 C 546.23 563.51 544.81 562.15 543.29 561.47 C 541.47 562.43 538.89 563.79 537.41 561.55 C 533.16 556.05 532.59 548.73 532.28 542.03 C 532.33 531.00 533.48 519.99 535.43 509.14 C 529.62 509.12 523.79 509.19 518.05 510.14 M 398.64 558.93 C 401.81 559.09 404.99 559.49 408.02 560.51 C 410.80 557.37 414.15 554.57 415.85 550.65 C 409.09 550.65 403.82 555.24 398.64 558.93 M 386.64 560.66 C 389.35 564.46 392.28 568.10 394.77 572.06 C 400.62 572.55 406.54 572.56 412.27 571.10 C 409.70 567.85 406.63 564.11 402.11 564.01 C 397.55 563.71 391.72 563.87 389.60 558.87 C 388.61 559.46 387.62 560.06 386.64 560.66 M 523.87 660.49 C 530.55 678.27 538.85 695.36 546.71 712.64 C 555.73 706.56 566.27 703.15 576.89 701.22 C 585.47 699.75 594.45 699.01 602.89 701.64 C 600.96 694.14 599.90 686.46 598.67 678.83 C 597.74 672.97 597.57 666.99 598.53 661.12 C 591.66 659.36 584.92 657.05 577.93 655.82 C 559.87 652.87 541.29 655.25 523.87 660.49 M 487.14 662.59 C 475.78 663.76 464.30 663.14 453.00 661.65 C 448.21 661.03 443.40 660.78 438.58 660.70 C 437.31 671.42 437.71 682.40 440.43 692.88 C 442.68 701.93 446.79 710.34 450.04 719.04 C 450.58 720.29 451.03 721.92 452.60 722.23 C 459.12 724.46 466.20 723.54 472.85 722.47 C 485.93 719.91 498.81 715.02 509.39 706.76 C 506.70 692.05 510.73 677.43 513.68 663.12 C 510.10 663.54 506.56 664.56 502.94 664.40 C 500.73 663.71 499.78 661.27 498.39 659.64 C 494.78 661.07 491.03 662.27 487.14 662.59 M 548.83 717.49 C 551.04 723.58 553.28 729.66 555.36 735.81 C 561.59 753.99 564.58 773.05 567.60 791.97 C 569.08 802.00 570.17 812.14 573.02 821.91 C 582.16 855.77 596.62 888.84 597.34 924.40 C 602.26 922.86 608.15 922.10 612.47 925.56 C 621.01 932.41 625.28 943.01 633.19 950.48 C 635.70 939.06 633.24 927.44 632.13 916.02 C 630.23 895.43 630.39 874.73 629.90 854.08 C 629.59 832.74 631.34 811.29 628.41 790.06 C 626.70 777.90 623.41 766.03 619.73 754.34 C 614.35 739.41 609.59 724.26 604.95 709.09 C 586.02 705.06 566.01 709.05 548.83 717.49 M 490.41 723.51 C 478.46 727.70 465.32 730.67 452.78 727.39 C 454.40 736.15 454.85 745.07 454.93 753.96 C 455.29 770.35 455.33 786.83 457.83 803.07 C 460.71 823.48 466.79 843.39 467.96 864.04 C 468.45 874.74 468.77 885.66 466.05 896.12 C 464.14 903.63 462.52 911.23 459.73 918.49 C 458.59 921.03 460.29 923.59 460.82 926.07 C 462.11 929.98 461.41 934.13 461.09 938.13 C 466.93 943.65 474.99 946.70 483.03 946.09 C 489.40 945.43 495.68 942.79 500.26 938.26 C 503.91 934.66 505.13 929.54 507.16 925.00 C 505.93 907.39 501.93 889.86 503.55 872.15 C 505.10 858.68 511.50 846.53 515.76 833.84 C 519.80 822.99 521.29 811.44 522.86 800.04 C 524.88 779.34 524.67 757.98 518.12 738.04 C 515.28 729.70 512.78 721.24 510.67 712.69 C 504.49 717.26 497.64 720.89 490.41 723.51 M 428.95 944.88 C 420.83 949.41 412.10 952.81 403.18 955.39 C 397.19 957.13 390.89 957.35 384.89 959.01 C 381.44 959.72 380.13 963.30 378.54 965.99 C 386.28 969.89 394.98 970.99 403.43 972.38 C 415.13 974.04 427.00 976.41 438.83 974.49 C 449.02 972.84 458.61 968.53 468.91 967.36 C 479.94 965.93 491.10 967.54 502.16 966.54 C 505.22 966.14 508.45 965.81 511.18 964.24 C 514.16 962.23 514.69 958.31 514.66 955.00 C 514.47 946.69 512.72 938.52 510.51 930.55 C 507.09 942.69 495.75 952.29 482.97 952.53 C 473.97 953.25 465.70 948.60 458.95 943.10 C 457.46 941.76 455.67 940.23 455.78 938.04 C 455.67 933.77 455.95 929.49 455.38 925.25 C 446.97 932.29 438.56 939.49 428.95 944.88 M 596.41 934.43 C 593.68 938.60 590.36 942.37 586.55 945.59 C 575.63 954.90 564.00 963.41 551.66 970.74 C 548.13 972.89 544.17 974.39 540.97 977.04 C 539.93 979.95 541.33 984.02 544.93 983.86 C 569.55 985.92 593.84 980.11 617.91 975.83 C 626.87 974.07 636.23 976.78 645.03 974.03 C 649.77 972.40 650.32 966.59 649.45 962.38 C 647.97 955.50 642.89 950.24 639.67 944.17 C 638.94 947.83 639.06 952.31 636.01 954.97 C 633.33 956.97 629.97 955.04 627.92 953.06 C 621.90 947.28 618.01 939.74 612.40 933.60 C 610.07 930.88 606.82 928.37 603.01 929.08 C 599.74 929.03 598.08 932.14 596.41 934.43 Z" />
		<path fill="#020202" opacity="1.00"
			d=" M 544.84 416.95 C 547.51 412.54 549.47 407.74 552.37 403.47 C 552.33 407.43 552.11 411.55 550.09 415.08 C 542.07 430.81 530.50 444.65 516.92 455.87 C 510.00 461.29 503.59 467.72 500.18 475.97 C 510.91 472.38 521.95 469.86 533.05 467.69 C 537.66 466.89 542.32 465.88 547.03 466.24 C 548.41 466.30 549.00 467.82 549.97 468.61 C 533.09 471.58 516.18 474.85 499.84 480.11 C 497.48 481.31 494.79 478.49 496.05 476.18 C 498.78 467.27 505.52 460.37 512.47 454.48 C 525.36 444.01 536.34 431.21 544.84 416.95 Z" />
	</g>
	<g id="#f0b58bff">
		<path fill="#f0b58b" opacity="1.00"
			d=" M 440.65 63.98 C 440.73 58.79 441.31 52.75 445.99 49.53 C 448.22 48.56 449.79 50.74 450.49 52.57 C 452.43 57.75 451.28 63.35 450.35 68.62 C 456.50 71.18 463.36 69.98 469.62 68.50 C 470.90 72.95 472.73 77.32 472.94 82.01 C 473.10 86.11 472.49 90.19 472.28 94.27 C 477.57 94.68 483.51 93.39 486.93 89.02 C 489.44 85.82 491.86 82.50 495.08 79.96 C 501.61 81.87 504.65 88.88 505.38 95.10 C 506.46 103.08 502.02 110.36 497.41 116.45 C 495.08 119.35 493.34 122.68 492.24 126.24 C 500.09 124.55 507.96 122.76 515.62 120.30 C 517.68 132.50 519.55 146.47 530.16 154.49 C 526.16 157.31 522.13 160.20 519.07 164.07 C 514.19 169.93 511.21 177.23 505.56 182.48 C 497.10 190.29 487.39 196.71 479.79 205.44 C 479.77 192.97 479.33 179.89 473.49 168.56 C 471.79 164.76 468.50 161.99 464.71 160.40 C 469.94 156.44 474.80 152.01 479.90 147.89 C 483.11 145.11 486.77 142.65 488.85 138.83 C 486.39 139.41 484.19 140.67 482.21 142.20 C 473.42 148.78 464.66 155.41 455.63 161.66 C 451.75 164.20 447.67 167.13 442.81 166.99 C 440.87 156.40 439.77 145.26 434.14 135.81 C 432.67 133.22 429.95 131.83 427.31 130.72 C 423.73 129.19 420.55 126.89 417.77 124.19 C 421.13 117.28 424.73 110.44 426.98 103.07 C 428.65 97.62 428.11 91.86 428.06 86.25 C 430.64 88.24 433.71 89.71 435.79 92.27 C 437.23 94.88 437.14 97.99 437.69 100.85 C 446.86 97.53 456.04 93.97 464.66 89.35 C 457.53 84.77 450.27 79.91 441.96 77.79 C 437.04 76.39 432.33 78.80 428.29 81.36 C 429.30 73.24 431.63 65.37 434.25 57.64 C 436.15 59.98 438.15 62.26 440.65 63.98 Z" />
		<path fill="#f0b58b" opacity="1.00"
			d=" M 570.55 328.85 C 585.07 322.80 601.00 321.57 616.54 320.62 C 617.53 331.10 619.94 341.40 620.76 351.91 C 622.83 371.42 620.05 391.15 614.98 409.99 C 609.48 427.86 601.80 445.07 592.09 461.04 C 588.53 466.92 585.17 472.91 581.91 478.96 C 577.81 485.75 573.64 492.94 572.89 500.98 C 573.17 509.62 577.19 518.05 575.42 526.78 C 573.89 533.26 572.77 539.85 570.75 546.21 C 570.82 538.77 570.61 531.31 569.77 523.92 C 569.65 521.99 568.81 520.23 568.01 518.52 C 567.21 520.22 566.28 521.97 566.29 523.91 C 565.88 535.42 568.21 547.29 564.61 558.50 C 561.11 546.72 563.16 534.30 562.15 522.27 C 561.59 522.24 560.48 522.20 559.92 522.17 C 557.19 527.32 557.99 533.41 557.77 539.04 C 557.54 545.84 558.74 553.26 555.05 559.38 C 554.17 557.03 553.34 554.63 553.31 552.10 C 552.96 544.42 551.94 536.73 552.72 529.05 C 553.01 526.42 553.08 523.74 552.18 521.22 C 548.85 525.72 548.72 531.62 548.26 536.99 C 547.68 544.46 550.12 552.30 547.10 559.45 C 546.09 557.43 544.41 555.49 544.68 553.10 C 545.08 546.41 544.35 539.73 544.69 533.04 C 544.72 528.38 545.75 523.75 545.25 519.10 C 544.05 520.57 542.88 522.17 542.56 524.09 C 541.19 530.63 540.05 537.26 540.16 543.96 C 540.23 548.13 540.01 552.32 539.18 556.42 C 536.43 549.95 537.00 542.73 537.38 535.88 C 538.31 525.80 539.17 515.61 541.86 505.82 C 543.87 498.65 549.32 493.43 553.28 487.38 C 561.71 472.55 565.27 455.65 568.55 439.09 C 571.43 424.91 572.98 410.41 577.34 396.56 C 581.35 383.45 589.49 371.81 591.91 358.17 C 592.49 355.84 591.68 353.52 591.02 351.32 C 589.68 353.70 588.85 356.31 588.10 358.93 C 586.26 365.09 583.04 370.68 580.53 376.56 C 581.26 367.23 579.46 358.00 577.80 348.88 C 576.34 341.90 573.84 335.16 570.55 328.85 Z" />
		<path fill="#f0b58b" opacity="1.00"
			d=" M 428.41 336.42 C 430.61 336.29 432.82 336.19 435.02 336.06 C 435.59 340.69 436.45 345.31 436.43 350.00 C 436.32 357.30 434.73 364.46 433.40 371.61 C 432.12 378.32 431.75 385.18 431.83 392.00 C 431.93 419.06 432.66 446.23 436.71 473.02 C 431.75 481.31 426.54 489.47 422.12 498.07 C 420.22 501.88 417.70 505.55 417.23 509.90 C 416.48 515.58 415.90 521.29 415.11 526.97 C 414.62 530.35 413.87 533.90 411.55 536.54 C 409.50 539.32 406.10 541.38 405.58 545.05 C 405.93 545.23 406.63 545.60 406.98 545.78 C 410.59 543.58 413.80 540.57 418.06 539.60 C 417.37 541.67 416.61 543.71 415.84 545.76 C 407.36 546.67 399.24 551.63 395.07 559.14 C 394.69 558.03 394.34 556.92 394.01 555.80 C 397.35 548.35 397.31 540.00 398.17 532.02 C 401.33 531.30 404.75 530.50 406.96 527.94 C 410.38 523.93 411.90 518.39 411.20 513.19 C 406.05 516.05 406.97 523.91 401.46 526.43 C 398.87 527.66 394.44 527.28 394.09 531.04 C 392.90 537.84 393.19 544.88 391.40 551.59 C 390.26 553.99 387.58 555.05 385.51 556.50 C 384.36 547.03 384.85 537.48 384.72 527.97 C 384.58 525.57 384.76 522.89 383.01 520.98 C 381.19 524.35 381.41 528.28 381.09 531.98 C 380.72 540.59 379.97 549.34 381.61 557.87 C 383.70 567.07 394.44 572.79 393.08 582.95 C 386.61 575.30 379.43 567.94 375.26 558.69 C 373.00 553.44 373.92 547.61 374.39 542.10 C 374.89 537.39 374.68 532.63 375.28 527.94 C 375.65 524.47 378.28 521.93 380.29 519.31 C 388.67 509.11 398.02 498.88 401.47 485.79 C 404.01 475.11 407.17 464.59 409.31 453.83 C 413.35 431.37 419.57 409.39 425.19 387.29 C 426.68 381.58 428.62 375.92 428.79 369.96 C 429.14 358.78 428.64 347.60 428.41 336.42 Z" />
		<path fill="#f0b58b" opacity="1.00"
			d=" M 398.64 558.93 C 403.82 555.24 409.09 550.65 415.85 550.65 C 414.15 554.57 410.80 557.37 408.02 560.51 C 404.99 559.49 401.81 559.09 398.64 558.93 Z" />
		<path fill="#f0b58b" opacity="1.00"
			d=" M 386.64 560.66 C 387.62 560.06 388.61 559.46 389.60 558.87 C 391.72 563.87 397.55 563.71 402.11 564.01 C 406.63 564.11 409.70 567.85 412.27 571.10 C 406.54 572.56 400.62 572.55 394.77 572.06 C 392.28 568.10 389.35 564.46 386.64 560.66 Z" />
		<path fill="#f0b58b" opacity="1.00"
			d=" M 523.87 660.49 C 541.29 655.25 559.87 652.87 577.93 655.82 C 584.92 657.05 591.66 659.36 598.53 661.12 C 597.57 666.99 597.74 672.97 598.67 678.83 C 599.90 686.46 600.96 694.14 602.89 701.64 C 594.45 699.01 585.47 699.75 576.89 701.22 C 566.27 703.15 555.73 706.56 546.71 712.64 C 538.85 695.36 530.55 678.27 523.87 660.49 Z" />
		<path fill="#f0b58b" opacity="1.00"
			d=" M 487.14 662.59 C 491.03 662.27 494.78 661.07 498.39 659.64 C 499.78 661.27 500.73 663.71 502.94 664.40 C 506.56 664.56 510.10 663.54 513.68 663.12 C 510.73 677.43 506.70 692.05 509.39 706.76 C 498.81 715.02 485.93 719.91 472.85 722.47 C 466.20 723.54 459.12 724.46 452.60 722.23 C 451.03 721.92 450.58 720.29 450.04 719.04 C 446.79 710.34 442.68 701.93 440.43 692.88 C 437.71 682.40 437.31 671.42 438.58 660.70 C 443.40 660.78 448.21 661.03 453.00 661.65 C 464.30 663.14 475.78 663.76 487.14 662.59 Z" />
	</g>
	<g id="#f11b27ff">
		<path fill="var(--shirt-color, grey)" opacity="1.00"
			d=" M 527.63 162.74 C 533.32 157.88 541.15 155.34 544.87 148.41 C 556.52 159.05 569.36 168.30 580.82 179.16 C 587.53 185.12 593.62 191.73 600.31 197.72 C 606.07 202.99 612.03 208.37 615.77 215.35 C 619.69 222.63 621.46 230.86 622.61 238.98 C 624.72 253.91 618.36 268.23 618.33 283.08 C 618.20 293.64 620.22 304.12 619.65 314.69 C 608.99 314.92 598.34 315.88 587.85 317.79 C 579.42 319.38 571.02 321.84 563.76 326.53 C 563.18 319.82 561.89 313.11 559.00 306.98 C 556.13 299.74 551.60 293.27 549.19 285.84 C 545.78 276.90 544.84 267.31 543.58 257.91 C 542.78 252.37 543.16 246.69 541.71 241.26 C 538.63 246.91 539.75 253.63 539.89 259.78 C 535.40 252.19 529.98 245.18 525.99 237.28 C 526.12 240.78 526.86 244.29 528.63 247.36 C 532.69 254.72 538.28 261.22 541.36 269.13 C 534.93 264.74 527.28 261.88 522.27 255.66 C 516.78 249.71 513.62 242.11 508.59 235.84 C 509.65 242.00 512.87 247.47 516.26 252.62 C 519.68 257.79 523.95 262.57 529.44 265.60 C 533.40 267.76 537.55 269.62 541.20 272.32 C 541.93 279.27 544.10 285.94 546.59 292.44 C 548.23 296.43 546.78 300.97 544.36 304.32 C 540.35 309.92 534.65 313.99 530.43 319.41 C 526.30 324.70 521.89 330.09 520.03 336.67 C 524.17 331.56 527.40 325.74 532.10 321.09 C 538.52 314.28 547.53 309.16 550.34 299.66 C 551.41 302.56 553.99 305.44 552.83 308.69 C 549.91 319.35 549.37 330.45 547.16 341.25 C 543.25 359.54 534.33 376.15 527.31 393.33 C 524.76 400.02 521.57 407.07 522.96 414.40 C 526.09 400.15 533.44 387.42 539.16 374.14 C 542.71 365.80 546.43 357.48 548.81 348.70 C 552.44 336.52 552.78 323.69 555.80 311.38 C 557.65 316.47 558.72 321.79 559.29 327.17 C 559.48 329.91 560.75 332.38 562.29 334.60 C 563.67 333.46 565.03 332.30 566.39 331.14 C 570.05 339.56 572.94 348.34 574.26 357.46 C 576.55 367.45 576.37 377.78 575.21 387.91 C 574.84 390.07 574.03 392.13 573.36 394.21 C 570.60 402.36 568.98 410.83 567.35 419.25 C 565.06 432.36 562.44 445.42 559.21 458.33 C 557.11 466.36 554.37 474.27 550.48 481.62 C 548.28 485.86 544.94 489.32 542.17 493.17 C 539.71 496.53 538.14 500.42 536.59 504.26 C 526.13 503.05 515.46 504.40 505.48 507.66 C 494.94 510.98 484.08 513.85 472.98 514.22 C 460.92 513.98 448.90 512.17 437.21 509.20 C 438.22 499.76 444.70 491.67 444.47 482.06 C 440.82 468.05 439.91 453.52 438.92 439.13 C 437.86 426.79 437.68 414.40 437.49 402.03 C 437.47 392.97 436.91 383.83 438.39 374.85 C 439.88 365.96 441.99 357.06 441.71 347.99 C 441.24 337.79 438.58 327.89 437.06 317.83 C 434.54 301.44 430.84 285.27 428.08 268.92 C 425.66 255.36 422.33 241.83 422.11 227.99 C 422.37 220.23 423.54 211.79 428.60 205.58 C 434.52 199.62 443.77 199.42 450.29 194.30 C 454.76 191.39 456.35 186.11 458.78 181.67 C 461.06 177.45 465.69 175.49 469.90 173.75 C 474.85 186.20 473.00 199.86 474.40 212.87 C 474.47 214.94 477.10 216.46 478.58 214.69 C 482.90 209.67 487.26 204.63 492.32 200.31 C 498.11 195.41 504.22 190.87 509.64 185.56 C 516.60 178.70 519.76 168.76 527.63 162.74 M 544.84 416.95 C 536.34 431.21 525.36 444.01 512.47 454.48 C 505.52 460.37 498.78 467.27 496.05 476.18 C 494.79 478.49 497.48 481.31 499.84 480.11 C 516.18 474.85 533.09 471.58 549.97 468.61 C 549.00 467.82 548.41 466.30 547.03 466.24 C 542.32 465.88 537.66 466.89 533.05 467.69 C 521.95 469.86 510.91 472.38 500.18 475.97 C 503.59 467.72 510.00 461.29 516.92 455.87 C 530.50 444.65 542.07 430.81 550.09 415.08 C 552.11 411.55 552.33 407.43 552.37 403.47 C 549.47 407.74 547.51 412.54 544.84 416.95 Z" />
		<path fill="var(--shirt-color, grey)" opacity="1.00"
			d=" M 427.60 332.10 C 427.16 318.68 427.03 305.25 427.24 291.83 C 429.58 305.24 431.89 318.65 434.22 332.05 C 432.01 332.05 429.80 332.07 427.60 332.10 Z" />
		<path fill="var(--shirt-color, grey)" opacity="1.00"
			d=" M 579.38 495.16 C 584.27 483.19 590.83 471.99 597.53 460.97 C 597.85 481.12 603.60 501.02 601.38 521.22 C 595.00 515.24 587.54 509.94 578.73 508.47 C 577.85 504.06 577.49 499.38 579.38 495.16 Z" />
	</g>
	<g id="#2b3dcdff">
		<path fill="var(--pants-color, grey)" opacity="1.00"
			d=" M 518.05 510.14 C 523.79 509.19 529.62 509.12 535.43 509.14 C 533.48 519.99 532.33 531.00 532.28 542.03 C 532.59 548.73 533.16 556.05 537.41 561.55 C 538.89 563.79 541.47 562.43 543.29 561.47 C 544.81 562.15 546.23 563.51 548.00 563.38 C 549.31 562.82 550.46 561.98 551.66 561.23 C 553.03 561.78 554.36 562.54 555.86 562.68 C 558.01 562.45 559.19 560.37 560.65 559.05 C 562.15 560.72 564.20 563.62 566.71 561.81 C 569.66 558.97 569.49 554.39 570.45 550.67 C 576.43 547.14 576.60 539.52 578.41 533.56 C 580.35 527.26 581.02 520.65 579.96 514.12 C 587.51 517.05 594.38 521.46 600.53 526.70 C 598.67 538.40 596.74 550.14 596.51 562.02 C 596.11 572.72 598.46 583.24 599.60 593.84 C 601.85 615.08 604.50 636.37 604.05 657.78 C 596.96 655.47 589.83 653.27 582.57 651.59 C 569.94 648.71 556.80 649.06 544.04 650.82 C 530.44 652.66 517.69 658.37 504.00 659.76 C 500.18 650.69 498.35 640.85 498.07 631.03 C 497.71 620.33 497.72 609.58 496.08 598.98 C 495.04 591.61 493.52 584.32 492.47 576.95 C 495.51 581.14 498.54 585.34 501.29 589.73 C 502.97 592.41 504.81 595.04 507.36 596.97 C 508.22 591.07 504.00 586.38 501.36 581.56 C 497.50 574.71 492.04 568.82 485.61 564.31 C 484.04 563.21 482.11 562.86 480.31 562.35 C 481.95 566.23 485.14 569.01 488.02 571.94 C 489.46 573.23 489.24 575.31 489.53 577.06 C 490.16 584.09 490.15 591.20 491.44 598.17 C 494.66 616.96 491.36 636.57 497.53 654.89 C 489.65 657.63 481.25 657.88 473.00 657.72 C 457.11 657.74 440.96 653.59 425.29 658.05 C 427.65 651.60 429.29 644.85 429.33 637.96 C 429.80 612.96 426.08 588.00 428.05 563.01 C 429.00 546.46 432.80 530.28 435.94 514.06 C 447.27 517.67 459.14 519.60 471.03 519.91 C 479.50 520.23 487.81 518.22 495.98 516.24 C 503.41 514.47 510.47 511.30 518.05 510.14 Z" />
		<path fill="var(--socks-color, grey)" opacity="1.00"
			d=" M 548.83 717.49 C 566.01 709.05 586.02 705.06 604.95 709.09 C 609.59 724.26 614.35 739.41 619.73 754.34 C 623.41 766.03 626.70 777.90 628.41 790.06 C 631.34 811.29 629.59 832.74 629.90 854.08 C 630.39 874.73 630.23 895.43 632.13 916.02 C 633.24 927.44 635.70 939.06 633.19 950.48 C 625.28 943.01 621.01 932.41 612.47 925.56 C 608.15 922.10 602.26 922.86 597.34 924.40 C 596.62 888.84 582.16 855.77 573.02 821.91 C 570.17 812.14 569.08 802.00 567.60 791.97 C 564.58 773.05 561.59 753.99 555.36 735.81 C 553.28 729.66 551.04 723.58 548.83 717.49 Z" />
		<path fill="var(--socks-color, grey)" opacity="1.00"
			d=" M 490.41 723.51 C 497.64 720.89 504.49 717.26 510.67 712.69 C 512.78 721.24 515.28 729.70 518.12 738.04 C 524.67 757.98 524.88 779.34 522.86 800.04 C 521.29 811.44 519.80 822.99 515.76 833.84 C 511.50 846.53 505.10 858.68 503.55 872.15 C 501.93 889.86 505.93 907.39 507.16 925.00 C 505.13 929.54 503.91 934.66 500.26 938.26 C 495.68 942.79 489.40 945.43 483.03 946.09 C 474.99 946.70 466.93 943.65 461.09 938.13 C 461.41 934.13 462.11 929.98 460.82 926.07 C 460.29 923.59 458.59 921.03 459.73 918.49 C 462.52 911.23 464.14 903.63 466.05 896.12 C 468.77 885.66 468.45 874.74 467.96 864.04 C 466.79 843.39 460.71 823.48 457.83 803.07 C 455.33 786.83 455.29 770.35 454.93 753.96 C 454.85 745.07 454.40 736.15 452.78 727.39 C 465.32 730.67 478.46 727.70 490.41 723.51 Z" />
	</g>
	<g id="#4d4d4dff">
		<path fill="#4d4d4d" opacity="1.00"
			d=" M 428.95 944.88 C 438.56 939.49 446.97 932.29 455.38 925.25 C 455.95 929.49 455.67 933.77 455.78 938.04 C 455.67 940.23 457.46 941.76 458.95 943.10 C 465.70 948.60 473.97 953.25 482.97 952.53 C 495.75 952.29 507.09 942.69 510.51 930.55 C 512.72 938.52 514.47 946.69 514.66 955.00 C 514.69 958.31 514.16 962.23 511.18 964.24 C 508.45 965.81 505.22 966.14 502.16 966.54 C 491.10 967.54 479.94 965.93 468.91 967.36 C 458.61 968.53 449.02 972.84 438.83 974.49 C 427.00 976.41 415.13 974.04 403.43 972.38 C 394.98 970.99 386.28 969.89 378.54 965.99 C 380.13 963.30 381.44 959.72 384.89 959.01 C 390.89 957.35 397.19 957.13 403.18 955.39 C 412.10 952.81 420.83 949.41 428.95 944.88 Z" />
		<path fill="#4d4d4d" opacity="1.00"
			d=" M 596.41 934.43 C 598.08 932.14 599.74 929.03 603.01 929.08 C 606.82 928.37 610.07 930.88 612.40 933.60 C 618.01 939.74 621.90 947.28 627.92 953.06 C 629.97 955.04 633.33 956.97 636.01 954.97 C 639.06 952.31 638.94 947.83 639.67 944.17 C 642.89 950.24 647.97 955.50 649.45 962.38 C 650.32 966.59 649.77 972.40 645.03 974.03 C 636.23 976.78 626.87 974.07 617.91 975.83 C 593.84 980.11 569.55 985.92 544.93 983.86 C 541.33 984.02 539.93 979.95 540.97 977.04 C 544.17 974.39 548.13 972.89 551.66 970.74 C 564.00 963.41 575.63 954.90 586.55 945.59 C 590.36 942.37 593.68 938.60 596.41 934.43 Z" />
	</g>
</svg>