<?xml version="1.0" encoding="UTF-8" ?>
<!DOCTYPE svg PUBLIC "-//W3C//DTD SVG 1.1//EN" "http://www.w3.org/Graphics/SVG/1.1/DTD/svg11.dtd">
<svg width="1000pt" height="1000pt" viewBox="0 0 1000 1000" version="1.1" xmlns="http://www.w3.org/2000/svg">
	<g id="#020202ff">
		<path fill="#020202" opacity="1.00"
			d=" M 223.97 28.02 C 240.38 18.91 260.47 17.13 278.42 22.38 C 293.20 26.78 306.97 35.28 316.59 47.44 C 326.35 59.20 331.83 74.02 333.98 89.03 C 334.84 97.06 333.72 105.13 332.61 113.08 C 332.23 117.66 332.28 122.87 335.32 126.62 C 340.52 133.30 346.39 139.54 353.34 144.42 C 356.40 142.67 359.63 141.03 363.18 140.60 C 373.98 139.07 385.13 140.84 395.75 137.79 C 406.79 135.26 417.53 130.99 428.94 130.35 C 439.94 129.88 451.27 129.54 461.83 133.20 C 467.84 135.09 473.29 138.31 478.92 141.05 C 488.58 144.96 498.47 148.66 508.90 149.84 C 519.44 152.10 530.13 149.06 540.74 150.25 C 547.16 151.06 553.42 154.63 556.68 160.34 C 558.42 163.20 559.43 166.76 562.58 168.46 C 569.68 173.07 577.10 177.18 584.25 181.73 C 590.19 185.58 596.95 188.09 602.46 192.60 C 614.63 202.30 618.92 219.00 618.15 233.97 C 616.76 246.64 617.95 259.37 617.91 272.07 C 618.51 296.33 618.50 320.73 622.19 344.78 C 624.34 354.90 626.80 364.99 630.19 374.77 C 633.13 383.86 634.41 393.43 634.41 402.97 C 634.12 406.73 634.19 411.24 631.05 413.91 C 628.94 416.08 626.20 417.53 623.20 417.94 C 617.82 423.83 611.74 431.56 602.77 430.41 C 598.76 433.90 594.80 437.79 589.85 439.89 C 586.06 440.67 584.21 436.11 584.57 433.04 C 585.55 421.64 590.70 410.69 589.38 399.09 C 588.70 393.52 585.76 388.24 581.04 385.12 C 577.27 394.69 575.52 404.94 571.45 414.40 C 570.03 417.48 568.12 420.69 564.90 422.15 C 562.26 423.34 559.02 421.72 557.88 419.19 C 556.39 415.93 557.09 412.24 557.90 408.91 C 559.47 402.71 558.40 396.20 559.92 390.00 C 562.67 378.55 569.27 368.61 573.86 357.91 C 577.69 349.46 576.36 339.98 576.06 331.02 C 574.52 310.81 571.59 290.73 568.12 270.78 C 566.41 261.55 564.43 252.33 561.33 243.46 C 559.32 237.49 554.80 232.91 550.75 228.25 C 542.49 228.67 534.27 229.95 525.98 229.74 C 512.99 229.59 499.92 228.74 487.05 231.01 C 495.87 238.14 498.51 249.84 505.89 258.13 C 509.54 262.48 514.14 266.04 517.13 270.93 C 520.82 276.96 523.51 283.55 525.45 290.33 C 529.10 302.92 531.30 315.90 532.39 328.95 C 533.23 338.71 534.65 348.55 538.26 357.71 C 540.68 363.68 542.55 369.89 545.50 375.63 C 547.13 378.95 549.23 382.23 549.44 386.02 C 549.33 388.32 548.50 390.50 547.68 392.62 C 545.45 397.94 543.45 403.37 540.63 408.42 C 545.63 411.23 549.73 415.41 552.59 420.39 C 556.80 426.93 558.77 434.98 564.66 440.37 C 568.73 444.38 574.48 446.40 577.98 451.03 C 580.97 455.03 581.06 460.24 581.36 465.02 C 581.65 474.02 582.60 482.98 582.94 491.99 C 583.58 502.49 583.65 513.05 585.38 523.46 C 586.61 531.45 588.16 540.01 584.80 547.71 C 578.70 562.23 567.16 573.84 561.82 588.74 C 560.22 594.59 558.41 600.77 559.68 606.87 C 560.87 614.34 562.96 621.63 564.73 628.98 C 566.21 634.71 564.06 640.85 566.51 646.40 C 570.53 656.00 568.28 666.54 567.17 676.48 C 576.82 680.01 586.68 683.09 596.87 684.60 C 602.99 685.28 609.17 684.48 615.29 685.28 C 622.94 679.50 633.22 676.67 642.56 679.62 C 648.69 681.77 654.56 685.24 658.54 690.48 C 662.44 695.62 664.89 701.76 666.27 708.03 C 667.88 715.24 667.59 722.69 668.90 729.95 C 670.75 740.90 676.04 750.93 677.59 761.96 C 679.86 773.11 679.24 784.54 678.56 795.82 C 687.03 802.86 695.79 809.61 703.41 817.61 C 710.75 825.26 719.08 831.87 726.46 839.48 C 732.19 845.64 739.14 850.57 746.69 854.23 C 753.19 857.36 760.74 855.97 767.42 858.49 C 775.13 861.42 782.00 867.19 785.19 874.93 C 790.36 885.37 789.30 897.70 785.61 908.43 C 780.24 923.68 770.12 936.69 764.59 951.87 C 761.62 960.09 759.24 968.52 756.71 976.88 C 755.55 980.89 752.01 983.54 748.62 985.63 C 743.05 988.99 736.41 989.72 730.05 989.85 C 718.50 990.25 706.76 989.05 695.81 985.24 C 691.99 984.01 688.05 980.46 688.98 976.07 C 690.36 969.63 695.41 965.00 698.52 959.42 C 702.03 953.57 703.57 946.77 704.03 940.02 C 704.61 930.31 705.71 920.65 706.55 910.97 C 707.15 904.54 709.17 898.29 712.54 892.79 C 702.31 885.83 690.29 882.47 678.89 878.00 C 666.19 873.88 653.45 869.64 641.70 863.17 C 627.74 856.31 615.05 847.04 604.06 836.06 C 591.82 824.43 580.01 811.34 563.88 805.12 C 549.96 800.07 538.77 789.65 529.71 778.22 C 517.44 762.47 506.49 745.68 496.86 728.19 C 486.93 727.27 477.02 725.71 467.02 726.25 C 457.24 726.97 447.45 725.25 438.02 722.84 C 424.74 718.22 412.30 710.69 402.68 700.37 C 394.24 691.57 389.58 679.22 390.39 667.02 C 391.43 647.38 397.95 628.58 404.96 610.38 C 398.30 593.95 390.13 578.10 384.76 561.16 C 380.48 546.70 375.84 532.34 372.20 517.70 C 370.81 512.55 369.90 506.73 373.32 502.14 C 365.20 496.66 360.51 487.62 357.27 478.64 C 356.08 475.45 355.52 472.00 353.88 468.99 C 345.92 459.75 337.93 450.16 333.31 438.73 C 329.62 430.00 326.79 420.92 324.65 411.69 C 313.03 407.28 307.49 395.13 303.01 384.43 C 300.14 389.05 297.14 393.59 294.05 398.06 C 292.79 399.72 291.59 401.62 289.63 402.51 C 287.88 403.08 286.00 402.50 284.23 402.47 C 289.93 410.01 290.74 420.00 289.91 429.11 C 289.47 434.40 285.62 438.74 280.93 440.89 C 268.52 447.07 254.24 450.67 240.38 448.35 C 233.09 447.19 226.44 442.59 223.02 436.03 C 216.72 424.81 216.19 411.47 217.33 398.95 C 218.16 387.35 218.55 375.72 218.97 364.09 C 215.54 363.33 212.12 362.53 208.65 361.95 C 206.66 355.03 208.84 347.96 209.84 341.08 C 211.10 332.47 213.09 323.77 211.81 315.04 C 210.70 307.37 208.94 299.77 208.75 291.98 C 208.14 275.94 208.02 259.49 212.90 244.02 C 215.73 235.80 219.58 227.80 225.15 221.07 C 234.66 209.53 245.20 198.88 254.38 187.08 C 244.40 180.74 236.92 171.39 229.96 162.02 C 224.74 154.86 222.55 146.16 218.71 138.29 C 214.28 128.88 210.60 119.13 205.94 109.83 C 204.47 111.74 204.41 116.33 201.31 115.92 C 199.55 111.33 198.89 106.39 197.02 101.83 C 192.45 90.13 191.63 76.99 194.96 64.86 C 199.05 49.29 210.00 35.87 223.97 28.02 M 263.43 85.69 C 261.80 82.12 260.60 78.14 257.68 75.35 C 255.00 72.79 250.99 73.21 247.60 72.76 C 247.17 81.30 245.86 89.87 242.98 97.96 C 240.06 95.14 240.17 90.84 238.87 87.25 C 237.73 82.98 235.08 79.38 232.27 76.07 C 231.32 82.78 229.68 89.36 227.66 95.83 C 226.03 100.97 224.88 106.43 221.70 110.91 C 220.53 109.08 219.97 106.98 219.62 104.86 C 218.60 98.94 216.26 93.36 214.05 87.81 C 212.17 93.88 210.07 99.88 207.66 105.76 C 211.46 110.48 213.56 116.22 216.09 121.65 C 220.36 120.58 224.63 118.94 229.10 119.18 C 232.37 119.52 234.04 122.75 235.85 125.09 C 241.39 132.70 245.36 142.57 243.26 152.05 C 237.49 147.93 237.61 140.30 234.56 134.50 C 231.45 137.03 228.22 139.42 224.78 141.48 C 227.13 146.94 229.05 152.63 232.34 157.63 C 234.98 161.61 238.03 165.31 241.06 169.00 C 249.57 179.52 261.57 187.78 275.01 190.27 C 284.54 191.21 295.47 188.44 301.32 180.29 C 306.43 174.16 309.10 166.30 314.56 160.48 C 314.53 162.64 314.35 164.83 313.59 166.88 C 309.95 177.38 303.53 187.69 293.14 192.57 C 298.51 196.22 304.41 199.27 308.75 204.24 C 312.10 207.54 314.30 211.75 315.78 216.17 C 317.71 222.04 322.94 225.70 327.06 229.95 C 333.74 213.46 349.56 203.34 357.90 187.91 C 360.74 182.72 364.35 177.73 365.58 171.84 C 366.74 166.63 364.34 161.57 361.86 157.15 C 359.13 152.26 354.25 149.24 349.79 146.13 C 341.84 141.33 335.77 134.13 330.11 126.90 C 324.43 119.57 320.19 111.08 318.30 101.97 C 316.95 96.80 317.04 91.20 314.59 86.36 C 313.39 84.33 310.86 81.78 308.38 83.45 C 304.07 86.39 303.24 92.14 303.61 96.97 C 304.38 106.38 307.53 115.56 312.29 123.69 C 313.32 125.49 313.91 127.48 314.45 129.46 C 311.91 129.06 309.21 128.57 307.26 126.75 C 300.15 120.32 298.43 109.97 291.24 103.61 C 278.41 108.36 266.24 114.66 254.22 121.16 C 252.52 121.79 250.57 123.48 248.75 122.34 C 245.86 119.36 244.39 115.05 244.65 110.93 C 246.33 108.21 249.44 106.84 251.96 105.00 C 257.73 101.28 263.75 97.91 269.98 95.01 C 274.55 92.55 279.84 94.20 284.75 94.03 C 281.21 86.61 280.59 78.13 282.00 70.10 C 279.23 73.75 277.39 77.95 275.64 82.15 C 272.80 77.72 271.74 72.51 271.06 67.37 C 266.89 72.69 264.94 79.22 263.43 85.69 M 415.03 138.09 C 407.42 140.44 399.77 142.68 391.96 144.24 C 380.65 146.04 369.07 143.60 357.81 145.96 C 367.60 153.02 373.90 166.83 368.46 178.42 C 363.92 187.77 359.06 197.20 351.86 204.82 C 344.57 212.97 336.69 220.84 331.58 230.63 C 330.45 232.37 329.61 235.04 327.15 235.15 C 322.50 233.10 318.60 229.61 315.10 225.98 C 310.16 220.89 309.90 213.09 305.01 207.97 C 300.66 202.29 294.11 199.03 289.35 193.79 C 278.56 197.46 266.86 194.50 257.33 188.89 C 253.20 196.86 247.06 203.45 241.12 210.07 C 233.92 218.59 225.41 226.33 220.84 236.70 C 212.58 253.16 213.20 272.09 213.65 290.00 C 213.76 297.79 215.46 305.41 216.30 313.13 C 216.61 319.98 221.08 325.64 222.61 332.20 C 223.88 337.94 225.62 344.24 223.05 349.87 C 221.04 342.66 220.21 335.11 216.90 328.31 C 215.97 338.75 212.98 348.85 211.81 359.25 C 221.79 360.93 231.70 358.80 241.57 357.47 C 242.09 352.87 243.46 348.18 246.73 344.76 C 249.55 341.19 254.15 339.00 255.68 334.49 C 258.93 326.41 263.24 318.56 269.41 312.34 C 272.10 309.36 277.16 309.10 279.83 312.24 C 283.77 316.89 283.93 323.62 282.11 329.21 C 285.46 332.01 287.66 335.84 288.78 340.03 C 290.36 341.22 292.36 342.16 293.19 344.08 C 294.19 346.32 293.82 348.86 293.99 351.25 C 295.86 352.24 297.92 353.02 299.44 354.54 C 301.06 356.46 300.22 359.14 300.25 361.43 C 302.69 363.28 305.83 364.91 306.70 368.09 C 307.79 372.14 306.28 376.24 305.13 380.10 C 310.15 389.70 314.73 400.14 323.58 406.92 C 320.68 394.93 318.47 382.79 316.22 370.67 C 313.81 360.00 310.95 349.44 308.09 338.88 C 306.45 332.70 303.68 326.91 301.77 320.82 C 306.72 323.79 308.22 329.65 310.25 334.66 C 315.12 347.13 318.56 360.11 321.37 373.18 C 324.07 387.90 327.32 402.51 331.03 417.01 C 335.01 430.96 340.19 445.01 349.74 456.19 C 352.88 461.39 358.87 464.64 360.34 470.80 C 363.73 481.54 368.23 492.94 377.84 499.60 C 382.02 497.13 386.12 494.43 390.77 492.91 C 400.30 489.67 410.17 487.46 419.52 483.68 C 431.16 479.01 442.01 472.65 453.31 467.28 C 460.74 463.67 469.26 463.36 476.71 459.80 C 482.07 457.49 486.37 453.44 490.80 449.76 C 503.80 437.73 518.20 427.25 530.59 414.54 C 537.15 407.01 540.70 397.50 544.34 388.35 C 545.80 384.99 543.38 381.82 541.89 378.98 C 538.00 372.40 536.05 364.96 533.44 357.84 C 530.54 349.86 529.01 341.45 528.10 333.04 C 526.60 314.27 523.61 295.30 516.11 277.92 C 513.63 271.54 508.58 266.81 503.92 262.02 C 495.25 253.19 492.70 240.22 483.75 231.60 C 474.13 233.57 464.88 237.35 456.59 242.59 C 451.28 245.85 447.34 250.73 443.33 255.38 C 441.87 251.18 445.27 247.75 447.81 244.88 C 455.98 236.63 467.02 232.07 477.86 228.50 C 468.70 228.64 459.62 229.84 450.61 231.42 C 450.52 228.79 453.43 228.15 455.37 227.47 C 469.57 223.76 484.45 223.79 498.98 225.14 C 513.03 224.79 527.09 225.57 541.14 225.01 C 544.88 225.16 546.90 221.43 548.80 218.79 C 556.94 205.44 559.55 188.86 556.60 173.56 C 554.60 166.87 552.14 158.55 544.69 156.19 C 534.70 153.14 524.22 156.54 514.05 155.22 C 507.17 154.27 500.28 153.08 493.65 150.96 C 497.92 153.78 502.04 156.81 506.23 159.73 C 510.40 162.70 515.06 165.25 518.02 169.58 C 515.21 169.28 512.39 168.66 509.99 167.13 C 500.84 161.69 492.32 155.27 483.20 149.77 C 472.68 143.29 461.54 136.96 449.04 135.54 C 437.70 134.34 426.00 134.77 415.03 138.09 M 561.69 173.73 C 564.55 190.70 561.84 209.18 552.09 223.60 C 555.35 226.41 558.17 229.68 561.11 232.82 C 564.73 227.90 568.58 223.16 572.37 218.38 C 573.39 216.99 574.83 216.03 576.31 215.19 C 574.04 223.00 568.29 229.07 563.96 235.78 C 567.97 242.98 569.64 251.14 571.37 259.11 C 575.09 278.22 576.62 297.67 579.47 316.91 C 580.81 327.55 581.67 338.30 581.05 349.04 C 580.28 357.40 575.92 364.79 572.11 372.08 C 569.39 377.83 566.58 383.59 564.79 389.72 C 562.85 396.16 564.01 403.02 562.42 409.52 C 561.85 412.44 560.53 415.97 562.82 418.50 C 566.36 417.00 567.53 413.07 568.83 409.80 C 571.91 401.10 574.31 392.15 577.66 383.55 C 579.96 379.95 585.19 381.84 587.68 384.30 C 592.77 389.82 594.96 397.63 594.55 405.04 C 594.34 415.57 589.81 425.40 589.18 435.86 C 594.69 432.64 599.06 427.80 602.76 422.69 C 607.09 414.08 604.91 403.94 607.79 394.97 C 608.29 395.17 609.28 395.56 609.78 395.75 C 610.76 406.42 610.78 417.94 605.70 427.67 C 608.14 425.63 611.49 423.98 612.33 420.65 C 614.33 413.24 614.87 405.55 615.43 397.93 C 615.53 395.76 616.16 393.66 616.98 391.67 C 617.58 393.07 618.40 394.45 618.60 396.01 C 619.39 403.31 618.75 410.67 617.64 417.91 C 619.18 416.09 621.07 414.49 622.19 412.34 C 622.80 407.24 622.20 402.05 623.01 396.96 C 623.60 393.90 623.24 390.16 626.05 388.07 C 627.44 396.46 626.68 405.04 626.67 413.51 C 627.70 411.77 629.39 410.21 629.50 408.07 C 630.47 396.74 629.17 385.18 625.41 374.43 C 623.79 369.99 622.60 365.41 621.40 360.85 C 613.88 335.30 614.34 308.39 613.23 282.03 C 613.18 265.67 611.50 249.30 612.67 232.96 C 612.96 222.56 610.64 211.81 604.95 203.01 C 599.14 194.63 589.08 191.46 580.95 186.01 C 574.54 181.90 568.00 177.99 561.69 173.73 M 263.15 330.61 C 265.99 329.12 268.81 327.43 271.99 326.79 C 274.47 326.36 276.89 327.34 279.29 327.86 C 279.79 323.02 279.22 317.47 275.12 314.24 C 269.65 318.43 266.39 324.69 263.15 330.61 M 257.55 340.55 C 253.23 344.13 248.26 347.79 246.61 353.43 C 244.33 361.19 250.53 368.78 247.65 376.48 C 244.57 383.73 239.76 390.08 236.02 396.99 C 234.28 400.01 233.04 403.51 230.05 405.58 C 230.26 403.98 230.40 402.37 230.94 400.85 C 234.05 392.63 237.82 384.68 242.19 377.07 C 244.99 372.68 243.34 367.42 242.15 362.81 C 235.96 363.86 229.69 364.46 223.41 364.59 C 224.50 379.07 223.09 393.57 222.44 408.03 C 222.07 415.54 223.06 423.16 225.77 430.20 C 227.88 436.72 233.37 442.03 240.14 443.45 C 253.01 446.06 266.46 443.47 278.45 438.49 C 282.22 437.22 284.43 433.47 285.48 429.84 C 286.51 424.27 286.05 418.50 284.85 413.00 C 283.64 407.43 279.82 403.00 276.16 398.84 C 273.88 396.46 271.44 393.82 268.02 393.28 C 261.71 392.24 256.20 388.73 251.42 384.64 C 249.94 383.58 249.29 381.87 248.96 380.14 C 253.58 381.33 257.31 384.45 261.55 386.50 C 265.77 388.84 270.77 388.87 275.14 390.81 C 279.44 392.50 283.14 395.32 287.02 397.76 C 292.30 389.51 298.87 381.68 301.33 372.01 C 302.58 368.84 299.75 366.66 297.91 364.58 C 294.30 369.09 290.36 373.33 287.02 378.05 C 285.71 379.52 284.59 382.03 282.22 381.59 C 282.07 377.76 284.68 374.69 286.51 371.58 C 289.38 366.76 293.27 362.63 295.95 357.69 C 294.36 356.61 292.73 355.60 291.08 354.64 C 284.65 361.04 278.00 367.22 271.44 373.48 C 270.37 375.29 266.53 374.86 268.36 372.33 C 273.28 363.62 281.52 357.48 288.09 350.11 C 289.58 348.73 288.53 346.67 288.46 344.96 C 286.95 344.88 285.44 344.81 283.94 344.74 C 277.46 349.39 271.93 355.15 266.94 361.33 C 266.61 360.79 265.93 359.72 265.59 359.18 C 269.34 350.66 277.31 345.03 284.28 339.25 C 282.53 334.55 278.21 330.75 273.03 330.82 C 266.92 332.21 262.35 336.84 257.55 340.55 M 519.06 432.09 C 512.06 438.45 504.30 443.91 497.30 450.28 C 488.46 457.75 478.83 465.24 467.17 467.40 C 457.59 469.15 449.27 474.39 440.79 478.87 C 432.00 483.60 423.11 488.30 413.56 491.34 C 405.79 493.98 397.75 495.68 389.92 498.13 C 384.82 499.68 380.17 502.66 376.72 506.74 C 374.95 508.39 375.91 510.98 376.13 513.05 C 378.72 525.54 383.13 537.55 386.44 549.85 C 389.36 559.85 392.56 569.78 396.76 579.32 C 400.18 588.12 404.64 596.53 407.20 605.65 C 410.23 600.99 413.51 596.30 418.13 593.09 C 423.92 589.11 430.99 587.27 437.97 587.16 C 455.48 586.79 472.67 591.54 488.70 598.27 C 496.80 602.16 505.51 607.28 508.83 616.14 C 510.75 620.80 508.13 625.68 505.33 629.35 C 499.61 636.50 491.88 641.61 484.77 647.24 C 496.87 648.54 508.79 651.52 520.16 655.86 C 534.74 661.23 548.04 669.45 562.58 674.90 C 563.05 666.05 565.44 656.73 561.82 648.23 C 558.81 641.84 561.16 634.65 559.23 628.03 C 556.99 619.81 555.43 611.42 554.42 602.96 C 553.95 587.84 562.24 574.51 570.28 562.37 C 574.55 555.55 579.78 548.94 581.47 540.90 C 582.60 532.48 579.76 524.24 579.03 515.91 C 577.61 502.29 577.49 488.58 576.28 474.94 C 575.70 469.00 576.15 462.93 574.71 457.11 C 573.85 453.70 570.60 451.85 567.81 450.18 C 563.88 447.95 560.00 445.43 557.14 441.87 C 552.95 436.71 550.75 430.34 547.46 424.63 C 545.01 420.11 541.72 416.13 538.35 412.28 C 533.17 420.01 525.88 425.89 519.06 432.09 M 417.20 601.18 C 409.22 609.25 406.26 620.48 403.00 631.00 C 399.34 644.41 395.41 658.01 395.44 672.03 C 395.34 682.31 400.24 692.42 408.27 698.82 C 415.93 705.56 424.78 710.82 434.10 714.90 C 440.39 717.82 447.11 719.98 454.02 720.69 C 461.36 717.18 466.83 710.54 470.41 703.35 C 477.25 689.26 477.52 672.62 472.97 657.78 C 468.47 662.43 463.92 667.19 460.90 672.97 C 458.95 676.56 457.92 680.54 456.46 684.35 C 455.07 683.76 453.58 682.89 453.77 681.13 C 453.75 676.17 455.72 671.44 458.15 667.21 C 467.89 651.77 483.81 642.03 497.35 630.33 C 500.12 627.67 503.04 624.78 504.08 620.97 C 504.85 617.96 503.52 614.80 501.32 612.74 C 495.46 607.10 488.26 602.76 480.36 600.72 C 468.12 597.29 455.80 593.44 443.02 592.85 C 433.83 592.23 423.71 594.18 417.20 601.18 M 475.38 655.42 C 484.50 677.37 480.54 705.73 462.01 721.65 C 467.69 721.44 473.37 721.20 479.05 721.49 C 496.05 722.88 513.02 724.76 530.03 726.06 C 551.37 726.66 573.10 724.89 594.02 730.14 C 599.45 731.46 604.65 733.83 608.74 737.72 C 613.96 736.72 619.33 737.31 624.54 736.39 C 627.46 735.77 628.16 732.56 628.42 730.03 C 629.26 721.47 628.70 712.69 626.36 704.40 C 624.97 699.49 622.14 694.83 617.56 692.33 C 612.39 688.74 605.87 691.03 600.06 690.43 C 586.72 689.33 573.98 684.79 561.45 680.33 C 550.35 676.39 539.99 670.73 529.39 665.65 C 514.01 658.33 497.57 653.29 480.73 650.72 C 478.94 652.28 477.16 653.85 475.38 655.42 M 619.65 687.08 C 626.57 692.84 631.40 701.00 632.81 709.92 C 634.10 717.14 634.32 724.56 633.52 731.85 C 633.10 735.93 630.80 740.56 626.33 741.23 C 621.01 741.89 615.61 741.51 610.27 742.10 C 610.80 755.40 617.74 767.03 623.20 778.78 C 630.42 795.51 634.01 813.48 639.25 830.87 C 640.93 835.51 642.42 840.55 646.04 844.10 C 647.97 844.40 649.69 843.26 651.24 842.27 C 657.84 837.82 662.43 831.03 665.89 823.99 C 670.12 815.25 671.43 805.52 673.22 796.09 C 676.14 780.32 675.04 763.72 669.29 748.71 C 665.96 739.84 663.47 730.58 663.17 721.06 C 662.92 712.42 661.48 703.56 657.01 696.02 C 653.41 689.54 646.71 685.30 639.70 683.36 C 632.80 681.69 625.78 684.00 619.65 687.08 M 503.51 728.75 C 510.07 739.68 516.81 750.51 524.08 760.98 C 532.47 772.84 540.94 785.07 552.85 793.71 C 563.60 791.80 573.46 786.52 582.00 779.85 C 590.54 772.94 599.15 764.50 601.38 753.31 C 596.73 751.76 591.93 750.10 588.27 746.70 C 584.40 743.15 582.46 738.09 580.96 733.18 C 567.37 731.44 553.66 731.44 539.99 731.49 C 527.77 731.61 515.65 729.94 503.51 728.75 M 586.29 733.80 C 588.10 737.12 589.84 740.64 592.81 743.10 C 596.68 746.35 601.48 748.18 606.24 749.70 C 605.91 746.44 605.76 743.17 605.86 739.91 C 599.91 736.33 593.03 735.00 586.29 733.80 M 606.59 753.16 C 605.47 759.14 603.58 765.05 599.90 769.98 C 590.23 783.33 576.04 793.40 560.24 798.13 C 567.32 800.99 574.47 803.89 580.79 808.26 C 599.34 821.07 612.78 840.05 632.22 851.71 C 646.51 860.50 661.86 867.56 678.01 872.17 C 690.98 877.04 704.65 881.20 715.65 889.98 C 719.65 889.23 723.73 889.51 727.65 890.60 C 731.56 891.64 736.47 891.70 739.29 888.31 C 741.67 884.31 742.29 879.55 742.91 875.01 C 743.84 868.71 741.50 862.65 740.45 856.53 C 734.02 853.32 728.01 849.24 722.91 844.15 C 714.23 835.80 704.96 828.06 696.72 819.24 C 690.73 813.00 683.94 807.58 677.92 801.37 C 676.25 815.36 671.29 829.22 662.01 839.98 C 658.49 843.72 654.25 847.42 649.01 848.25 C 645.45 848.87 642.15 846.62 640.39 843.69 C 635.40 835.92 633.50 826.75 630.99 818.00 C 627.80 807.20 625.04 796.27 621.21 785.67 C 617.89 776.64 612.49 768.52 609.43 759.39 C 608.65 757.23 607.56 755.22 606.59 753.16 M 746.15 859.39 C 748.14 865.87 749.01 872.75 747.66 879.46 C 746.62 885.10 745.37 891.91 739.76 894.82 C 735.35 897.62 729.91 896.89 725.12 895.69 C 722.38 895.22 718.62 893.90 716.79 896.80 C 711.32 904.77 712.00 914.85 710.93 924.03 C 709.43 935.85 710.30 948.50 704.29 959.25 C 701.50 965.20 696.17 969.46 693.32 975.34 C 691.55 978.06 695.16 980.05 697.33 980.81 C 711.02 985.32 725.88 986.63 740.09 984.14 C 746.70 983.13 751.55 977.37 753.31 971.20 C 756.34 960.88 759.22 950.46 763.83 940.71 C 770.07 926.97 779.48 914.40 782.36 899.34 C 784.71 888.18 781.19 875.84 773.10 867.79 C 765.77 860.92 755.05 862.44 746.15 859.39 Z" />
		<path fill="#020202" opacity="1.00"
			d=" M 244.81 162.28 C 242.09 159.64 241.81 155.43 241.89 151.85 C 245.91 153.47 249.71 155.71 253.92 156.81 C 256.07 156.39 258.12 155.56 260.23 154.98 C 259.19 157.44 259.14 161.40 255.81 161.86 C 252.25 162.59 248.34 163.58 244.81 162.28 Z" />
		<path fill="#020202" opacity="1.00"
			d=" M 274.31 169.24 C 278.54 167.37 282.54 164.81 287.08 163.74 C 290.87 164.47 287.66 168.13 285.61 168.95 C 285.50 170.35 285.50 171.77 285.21 173.15 C 282.84 175.06 279.85 175.93 277.13 177.21 C 273.43 178.70 269.93 180.84 265.97 181.60 C 264.55 181.01 263.32 180.07 262.06 179.23 C 260.68 178.94 259.31 178.62 257.95 178.26 C 262.82 174.29 268.79 172.11 274.31 169.24 Z" />
		<path fill="#020202" opacity="1.00"
			d=" M 462.52 259.59 C 464.95 256.19 466.61 251.03 471.48 250.68 C 470.01 255.49 467.19 259.70 465.21 264.29 C 461.25 273.31 459.23 282.99 456.10 292.29 C 453.55 299.91 452.03 307.82 449.62 315.49 C 446.20 326.30 439.85 335.94 432.52 344.49 C 428.10 349.62 422.73 354.52 415.94 356.03 C 414.55 356.04 411.33 356.78 412.37 354.37 C 416.26 351.94 420.62 350.15 423.91 346.85 C 430.19 340.64 435.19 333.24 439.59 325.62 C 445.73 314.83 446.97 302.26 450.87 290.65 C 454.45 280.20 456.31 268.95 462.52 259.59 Z" />
		<path fill="#020202" opacity="1.00"
			d=" M 486.53 359.62 C 488.78 353.80 489.78 347.38 493.58 342.28 C 493.94 345.21 493.66 348.18 492.80 351.00 C 490.33 359.93 487.66 368.80 485.64 377.84 C 483.24 388.63 477.78 398.34 473.45 408.40 C 468.74 419.29 461.15 428.54 453.48 437.46 C 444.09 448.51 432.50 457.43 420.47 465.41 C 414.14 469.52 408.77 474.82 402.95 479.56 C 403.36 477.40 403.90 475.16 405.49 473.55 C 412.46 465.71 421.43 460.10 429.58 453.61 C 441.88 443.95 452.29 432.12 461.36 419.43 C 467.70 410.57 471.91 400.46 476.64 390.70 C 481.47 380.86 482.72 369.82 486.53 359.62 Z" />
		<path fill="#020202" opacity="1.00"
			d=" M 419.60 438.63 C 420.97 437.05 422.90 436.16 424.78 435.35 C 422.88 441.07 418.39 445.30 415.36 450.39 C 409.60 459.62 402.85 468.74 393.29 474.32 C 389.08 476.71 383.69 478.38 379.08 476.13 C 375.98 474.80 373.77 471.46 374.37 468.04 C 375.29 462.66 378.49 457.23 383.85 455.29 C 382.04 460.01 378.02 464.23 378.43 469.55 C 379.53 472.75 383.71 473.21 386.53 472.29 C 393.24 470.24 398.45 465.16 403.04 460.07 C 408.97 453.24 413.53 445.34 419.60 438.63 Z" />
	</g>
	<g id="#f0b58bff">
		<path fill="#f0b58b" opacity="1.00"
			d=" M 263.43 85.69 C 264.94 79.22 266.89 72.69 271.06 67.37 C 271.74 72.51 272.80 77.72 275.64 82.15 C 277.39 77.95 279.23 73.75 282.00 70.10 C 280.59 78.13 281.21 86.61 284.75 94.03 C 279.84 94.20 274.55 92.55 269.98 95.01 C 263.75 97.91 257.73 101.28 251.96 105.00 C 249.44 106.84 246.33 108.21 244.65 110.93 C 244.39 115.05 245.86 119.36 248.75 122.34 C 250.57 123.48 252.52 121.79 254.22 121.16 C 266.24 114.66 278.41 108.36 291.24 103.61 C 298.43 109.97 300.15 120.32 307.26 126.75 C 309.21 128.57 311.91 129.06 314.45 129.46 C 313.91 127.48 313.32 125.49 312.29 123.69 C 307.53 115.56 304.38 106.38 303.61 96.97 C 303.24 92.14 304.07 86.39 308.38 83.45 C 310.86 81.78 313.39 84.33 314.59 86.36 C 317.04 91.20 316.95 96.80 318.30 101.97 C 320.19 111.08 324.43 119.57 330.11 126.90 C 335.77 134.13 341.84 141.33 349.79 146.13 C 354.25 149.24 359.13 152.26 361.86 157.15 C 364.34 161.57 366.74 166.63 365.58 171.84 C 364.35 177.73 360.74 182.72 357.90 187.91 C 349.56 203.34 333.74 213.46 327.06 229.95 C 322.94 225.70 317.71 222.04 315.78 216.17 C 314.30 211.75 312.10 207.54 308.75 204.24 C 304.41 199.27 298.51 196.22 293.14 192.57 C 303.53 187.69 309.95 177.38 313.59 166.88 C 314.35 164.83 314.53 162.64 314.56 160.48 C 309.10 166.30 306.43 174.16 301.32 180.29 C 295.47 188.44 284.54 191.21 275.01 190.27 C 261.57 187.78 249.57 179.52 241.06 169.00 C 238.03 165.31 234.98 161.61 232.34 157.63 C 229.05 152.63 227.13 146.94 224.78 141.48 C 228.22 139.42 231.45 137.03 234.56 134.50 C 237.61 140.30 237.49 147.93 243.26 152.05 C 245.36 142.57 241.39 132.70 235.85 125.09 C 234.04 122.75 232.37 119.52 229.10 119.18 C 224.63 118.94 220.36 120.58 216.09 121.65 C 213.56 116.22 211.46 110.48 207.66 105.76 C 210.07 99.88 212.17 93.88 214.05 87.81 C 216.26 93.36 218.60 98.94 219.62 104.86 C 219.97 106.98 220.53 109.08 221.70 110.91 C 224.88 106.43 226.03 100.97 227.66 95.83 C 229.68 89.36 231.32 82.78 232.27 76.07 C 235.08 79.38 237.73 82.98 238.87 87.25 C 240.17 90.84 240.06 95.14 242.98 97.96 C 245.86 89.87 247.17 81.30 247.60 72.76 C 250.99 73.21 255.00 72.79 257.68 75.35 C 260.60 78.14 261.80 82.12 263.43 85.69 M 244.81 162.28 C 248.34 163.58 252.25 162.59 255.81 161.86 C 259.14 161.40 259.19 157.44 260.23 154.98 C 258.12 155.56 256.07 156.39 253.92 156.81 C 249.71 155.71 245.91 153.47 241.89 151.85 C 241.81 155.43 242.09 159.64 244.81 162.28 M 274.31 169.24 C 268.79 172.11 262.82 174.29 257.95 178.26 C 259.31 178.62 260.68 178.94 262.06 179.23 C 263.32 180.07 264.55 181.01 265.97 181.60 C 269.93 180.84 273.43 178.70 277.13 177.21 C 279.85 175.93 282.84 175.06 285.21 173.15 C 285.50 171.77 285.50 170.35 285.61 168.95 C 287.66 168.13 290.87 164.47 287.08 163.74 C 282.54 164.81 278.54 167.37 274.31 169.24 Z" />
		<path fill="#f0b58b" opacity="1.00"
			d=" M 561.69 173.73 C 568.00 177.99 574.54 181.90 580.95 186.01 C 589.08 191.46 599.14 194.63 604.95 203.01 C 610.64 211.81 612.96 222.56 612.67 232.96 C 611.50 249.30 613.18 265.67 613.23 282.03 C 614.34 308.39 613.88 335.30 621.40 360.85 C 622.60 365.41 623.79 369.99 625.41 374.43 C 629.17 385.18 630.47 396.74 629.50 408.07 C 629.39 410.21 627.70 411.77 626.67 413.51 C 626.68 405.04 627.44 396.46 626.05 388.07 C 623.24 390.16 623.60 393.90 623.01 396.96 C 622.20 402.05 622.80 407.24 622.19 412.34 C 621.07 414.49 619.18 416.09 617.64 417.91 C 618.75 410.67 619.39 403.31 618.60 396.01 C 618.40 394.45 617.58 393.07 616.98 391.67 C 616.16 393.66 615.53 395.76 615.43 397.93 C 614.87 405.55 614.33 413.24 612.33 420.65 C 611.49 423.98 608.14 425.63 605.70 427.67 C 610.78 417.94 610.76 406.42 609.78 395.75 C 609.28 395.56 608.29 395.17 607.79 394.97 C 604.91 403.94 607.09 414.08 602.76 422.69 C 599.06 427.80 594.69 432.64 589.18 435.86 C 589.81 425.40 594.34 415.57 594.55 405.04 C 594.96 397.63 592.77 389.82 587.68 384.30 C 585.19 381.84 579.96 379.95 577.66 383.55 C 574.31 392.15 571.91 401.10 568.83 409.80 C 567.53 413.07 566.36 417.00 562.82 418.50 C 560.53 415.97 561.85 412.44 562.42 409.52 C 564.01 403.02 562.85 396.16 564.79 389.72 C 566.58 383.59 569.39 377.83 572.11 372.08 C 575.92 364.79 580.28 357.40 581.05 349.04 C 581.67 338.30 580.81 327.55 579.47 316.91 C 576.62 297.67 575.09 278.22 571.37 259.11 C 569.64 251.14 567.97 242.98 563.96 235.78 C 568.29 229.07 574.04 223.00 576.31 215.19 C 574.83 216.03 573.39 216.99 572.37 218.38 C 568.58 223.16 564.73 227.90 561.11 232.82 C 558.17 229.68 555.35 226.41 552.09 223.60 C 561.84 209.18 564.55 190.70 561.69 173.73 Z" />
		<path fill="#f0b58b" opacity="1.00"
			d=" M 263.15 330.61 C 266.39 324.69 269.65 318.43 275.12 314.24 C 279.22 317.47 279.79 323.02 279.29 327.86 C 276.89 327.34 274.47 326.36 271.99 326.79 C 268.81 327.43 265.99 329.12 263.15 330.61 Z" />
		<path fill="#f0b58b" opacity="1.00"
			d=" M 257.55 340.55 C 262.35 336.84 266.92 332.21 273.03 330.82 C 278.21 330.75 282.53 334.55 284.28 339.25 C 277.31 345.03 269.34 350.66 265.59 359.18 C 265.93 359.72 266.61 360.79 266.94 361.33 C 271.93 355.15 277.46 349.39 283.94 344.74 C 285.44 344.81 286.95 344.88 288.46 344.96 C 288.53 346.67 289.58 348.73 288.09 350.11 C 281.52 357.48 273.28 363.62 268.36 372.33 C 266.53 374.86 270.37 375.29 271.44 373.48 C 278.00 367.22 284.65 361.04 291.08 354.64 C 292.73 355.60 294.36 356.61 295.95 357.69 C 293.27 362.63 289.38 366.76 286.51 371.58 C 284.68 374.69 282.07 377.76 282.22 381.59 C 284.59 382.03 285.71 379.52 287.02 378.05 C 290.36 373.33 294.30 369.09 297.91 364.58 C 299.75 366.66 302.58 368.84 301.33 372.01 C 298.87 381.68 292.30 389.51 287.02 397.76 C 283.14 395.32 279.44 392.50 275.14 390.81 C 270.77 388.87 265.77 388.84 261.55 386.50 C 257.31 384.45 253.58 381.33 248.96 380.14 C 249.29 381.87 249.94 383.58 251.42 384.64 C 256.20 388.73 261.71 392.24 268.02 393.28 C 271.44 393.82 273.88 396.46 276.16 398.84 C 279.82 403.00 283.64 407.43 284.85 413.00 C 286.05 418.50 286.51 424.27 285.48 429.84 C 284.43 433.47 282.22 437.22 278.45 438.49 C 266.46 443.47 253.01 446.06 240.14 443.45 C 233.37 442.03 227.88 436.72 225.77 430.20 C 223.06 423.16 222.07 415.54 222.44 408.03 C 223.09 393.57 224.50 379.07 223.41 364.59 C 229.69 364.46 235.96 363.86 242.15 362.81 C 243.34 367.42 244.99 372.68 242.19 377.07 C 237.82 384.68 234.05 392.63 230.94 400.85 C 230.40 402.37 230.26 403.98 230.05 405.58 C 233.04 403.51 234.28 400.01 236.02 396.99 C 239.76 390.08 244.57 383.73 247.65 376.48 C 250.53 368.78 244.33 361.19 246.61 353.43 C 248.26 347.79 253.23 344.13 257.55 340.55 Z" />
		<path fill="#f0b58b" opacity="1.00"
			d=" M 417.20 601.18 C 423.71 594.18 433.83 592.23 443.02 592.85 C 455.80 593.44 468.12 597.29 480.36 600.72 C 488.26 602.76 495.46 607.10 501.32 612.74 C 503.52 614.80 504.85 617.96 504.08 620.97 C 503.04 624.78 500.12 627.67 497.35 630.33 C 483.81 642.03 467.89 651.77 458.15 667.21 C 455.72 671.44 453.75 676.17 453.77 681.13 C 453.58 682.89 455.07 683.76 456.46 684.35 C 457.92 680.54 458.95 676.56 460.90 672.97 C 463.92 667.19 468.47 662.43 472.97 657.78 C 477.52 672.62 477.25 689.26 470.41 703.35 C 466.83 710.54 461.36 717.18 454.02 720.69 C 447.11 719.98 440.39 717.82 434.10 714.90 C 424.78 710.82 415.93 705.56 408.27 698.82 C 400.24 692.42 395.34 682.31 395.44 672.03 C 395.41 658.01 399.34 644.41 403.00 631.00 C 406.26 620.48 409.22 609.25 417.20 601.18 Z" />
		<path fill="#f0b58b" opacity="1.00"
			d=" M 503.51 728.75 C 515.65 729.94 527.77 731.61 539.99 731.49 C 553.66 731.44 567.37 731.44 580.96 733.18 C 582.46 738.09 584.40 743.15 588.27 746.70 C 591.93 750.10 596.73 751.76 601.38 753.31 C 599.15 764.50 590.54 772.94 582.00 779.85 C 573.46 786.52 563.60 791.80 552.85 793.71 C 540.94 785.07 532.47 772.84 524.08 760.98 C 516.81 750.51 510.07 739.68 503.51 728.75 Z" />
	</g>
	<g id="#f11b27ff">
		<path fill="var(--shirt-color, grey)" opacity="1.00"
			d=" M 415.03 138.09 C 426.00 134.77 437.70 134.34 449.04 135.54 C 461.54 136.96 472.68 143.29 483.20 149.77 C 492.32 155.27 500.84 161.69 509.99 167.13 C 512.39 168.66 515.21 169.28 518.02 169.58 C 515.06 165.25 510.40 162.70 506.23 159.73 C 502.04 156.81 497.92 153.78 493.65 150.96 C 500.28 153.08 507.17 154.27 514.05 155.22 C 524.22 156.54 534.70 153.14 544.69 156.19 C 552.14 158.55 554.60 166.87 556.60 173.56 C 559.55 188.86 556.94 205.44 548.80 218.79 C 546.90 221.43 544.88 225.16 541.14 225.01 C 527.09 225.57 513.03 224.79 498.98 225.14 C 484.45 223.79 469.57 223.76 455.37 227.47 C 453.43 228.15 450.52 228.79 450.61 231.42 C 459.62 229.84 468.70 228.64 477.86 228.50 C 467.02 232.07 455.98 236.63 447.81 244.88 C 445.27 247.75 441.87 251.18 443.33 255.38 C 447.34 250.73 451.28 245.85 456.59 242.59 C 464.88 237.35 474.13 233.57 483.75 231.60 C 492.70 240.22 495.25 253.19 503.92 262.02 C 508.58 266.81 513.63 271.54 516.11 277.92 C 523.61 295.30 526.60 314.27 528.10 333.04 C 529.01 341.45 530.54 349.86 533.44 357.84 C 536.05 364.96 538.00 372.40 541.89 378.98 C 543.38 381.82 545.80 384.99 544.34 388.35 C 540.70 397.50 537.15 407.01 530.59 414.54 C 518.20 427.25 503.80 437.73 490.80 449.76 C 486.37 453.44 482.07 457.49 476.71 459.80 C 469.26 463.36 460.74 463.67 453.31 467.28 C 442.01 472.65 431.16 479.01 419.52 483.68 C 410.17 487.46 400.30 489.67 390.77 492.91 C 386.12 494.43 382.02 497.13 377.84 499.60 C 368.23 492.94 363.73 481.54 360.34 470.80 C 358.87 464.64 352.88 461.39 349.74 456.19 C 340.19 445.01 335.01 430.96 331.03 417.01 C 327.32 402.51 324.07 387.90 321.37 373.18 C 318.56 360.11 315.12 347.13 310.25 334.66 C 308.22 329.65 306.72 323.79 301.77 320.82 C 303.68 326.91 306.45 332.70 308.09 338.88 C 310.95 349.44 313.81 360.00 316.22 370.67 C 318.47 382.79 320.68 394.93 323.58 406.92 C 314.73 400.14 310.15 389.70 305.13 380.10 C 306.28 376.24 307.79 372.14 306.70 368.09 C 305.83 364.91 302.69 363.28 300.25 361.43 C 300.22 359.14 301.06 356.46 299.44 354.54 C 297.92 353.02 295.86 352.24 293.99 351.25 C 293.82 348.86 294.19 346.32 293.19 344.08 C 292.36 342.16 290.36 341.22 288.78 340.03 C 287.66 335.84 285.46 332.01 282.11 329.21 C 283.93 323.62 283.77 316.89 279.83 312.24 C 277.16 309.10 272.10 309.36 269.41 312.34 C 263.24 318.56 258.93 326.41 255.68 334.49 C 254.15 339.00 249.55 341.19 246.73 344.76 C 243.46 348.18 242.09 352.87 241.57 357.47 C 231.70 358.80 221.79 360.93 211.81 359.25 C 212.98 348.85 215.97 338.75 216.90 328.31 C 220.21 335.11 221.04 342.66 223.05 349.87 C 225.62 344.24 223.88 337.94 222.61 332.20 C 221.08 325.64 216.61 319.98 216.30 313.13 C 215.46 305.41 213.76 297.79 213.65 290.00 C 213.20 272.09 212.58 253.16 220.84 236.70 C 225.41 226.33 233.92 218.59 241.12 210.07 C 247.06 203.45 253.20 196.86 257.33 188.89 C 266.86 194.50 278.56 197.46 289.35 193.79 C 294.11 199.03 300.66 202.29 305.01 207.97 C 309.90 213.09 310.16 220.89 315.10 225.98 C 318.60 229.61 322.50 233.10 327.15 235.15 C 329.61 235.04 330.45 232.37 331.58 230.63 C 336.69 220.84 344.57 212.97 351.86 204.82 C 359.06 197.20 363.92 187.77 368.46 178.42 C 373.90 166.83 367.60 153.02 357.81 145.96 C 369.07 143.60 380.65 146.04 391.96 144.24 C 399.77 142.68 407.42 140.44 415.03 138.09 M 462.52 259.59 C 456.31 268.95 454.45 280.20 450.87 290.65 C 446.97 302.26 445.73 314.83 439.59 325.62 C 435.19 333.24 430.19 340.64 423.91 346.85 C 420.62 350.15 416.26 351.94 412.37 354.37 C 411.33 356.78 414.55 356.04 415.94 356.03 C 422.73 354.52 428.10 349.62 432.52 344.49 C 439.85 335.94 446.20 326.30 449.62 315.49 C 452.03 307.82 453.55 299.91 456.10 292.29 C 459.23 282.99 461.25 273.31 465.21 264.29 C 467.19 259.70 470.01 255.49 471.48 250.68 C 466.61 251.03 464.95 256.19 462.52 259.59 M 486.53 359.62 C 482.72 369.82 481.47 380.86 476.64 390.70 C 471.91 400.46 467.70 410.57 461.36 419.43 C 452.29 432.12 441.88 443.95 429.58 453.61 C 421.43 460.10 412.46 465.71 405.49 473.55 C 403.90 475.16 403.36 477.40 402.95 479.56 C 408.77 474.82 414.14 469.52 420.47 465.41 C 432.50 457.43 444.09 448.51 453.48 437.46 C 461.15 428.54 468.74 419.29 473.45 408.40 C 477.78 398.34 483.24 388.63 485.64 377.84 C 487.66 368.80 490.33 359.93 492.80 351.00 C 493.66 348.18 493.94 345.21 493.58 342.28 C 489.78 347.38 488.78 353.80 486.53 359.62 M 419.60 438.63 C 413.53 445.34 408.97 453.24 403.04 460.07 C 398.45 465.16 393.24 470.24 386.53 472.29 C 383.71 473.21 379.53 472.75 378.43 469.55 C 378.02 464.23 382.04 460.01 383.85 455.29 C 378.49 457.23 375.29 462.66 374.37 468.04 C 373.77 471.46 375.98 474.80 379.08 476.13 C 383.69 478.38 389.08 476.71 393.29 474.32 C 402.85 468.74 409.60 459.62 415.36 450.39 C 418.39 445.30 422.88 441.07 424.78 435.35 C 422.90 436.16 420.97 437.05 419.60 438.63 Z" />
	</g>
	<g id="#2b3dcdff">
		<path fill="var(--pants-color, grey)" opacity="1.00"
			d=" M 519.06 432.09 C 525.88 425.89 533.17 420.01 538.35 412.28 C 541.72 416.13 545.01 420.11 547.46 424.63 C 550.75 430.34 552.95 436.71 557.14 441.87 C 560.00 445.43 563.88 447.95 567.81 450.18 C 570.60 451.85 573.85 453.70 574.71 457.11 C 576.15 462.93 575.70 469.00 576.28 474.94 C 577.49 488.58 577.61 502.29 579.03 515.91 C 579.76 524.24 582.60 532.48 581.47 540.90 C 579.78 548.94 574.55 555.55 570.28 562.37 C 562.24 574.51 553.95 587.84 554.42 602.96 C 555.43 611.42 556.99 619.81 559.23 628.03 C 561.16 634.65 558.81 641.84 561.82 648.23 C 565.44 656.73 563.05 666.05 562.58 674.90 C 548.04 669.45 534.74 661.23 520.16 655.86 C 508.79 651.52 496.87 648.54 484.77 647.24 C 491.88 641.61 499.61 636.50 505.33 629.35 C 508.13 625.68 510.75 620.80 508.83 616.14 C 505.51 607.28 496.80 602.16 488.70 598.27 C 472.67 591.54 455.48 586.79 437.97 587.16 C 430.99 587.27 423.92 589.11 418.13 593.09 C 413.51 596.30 410.23 600.99 407.20 605.65 C 404.64 596.53 400.18 588.12 396.76 579.32 C 392.56 569.78 389.36 559.85 386.44 549.85 C 383.13 537.55 378.72 525.54 376.13 513.05 C 375.91 510.98 374.95 508.39 376.72 506.74 C 380.17 502.66 384.82 499.68 389.92 498.13 C 397.75 495.68 405.79 493.98 413.56 491.34 C 423.11 488.30 432.00 483.60 440.79 478.87 C 449.27 474.39 457.59 469.15 467.17 467.40 C 478.83 465.24 488.46 457.75 497.30 450.28 C 504.30 443.91 512.06 438.45 519.06 432.09 Z" />
		<path fill="var(--socks-color, grey)" opacity="1.00"
			d=" M 475.38 655.42 C 477.16 653.85 478.94 652.28 480.73 650.72 C 497.57 653.29 514.01 658.33 529.39 665.65 C 539.99 670.73 550.35 676.39 561.45 680.33 C 573.98 684.79 586.72 689.33 600.06 690.43 C 605.87 691.03 612.39 688.74 617.56 692.33 C 622.14 694.83 624.97 699.49 626.36 704.40 C 628.70 712.69 629.26 721.47 628.42 730.03 C 628.16 732.56 627.46 735.77 624.54 736.39 C 619.33 737.31 613.96 736.72 608.74 737.72 C 604.65 733.83 599.45 731.46 594.02 730.14 C 573.10 724.89 551.37 726.66 530.03 726.06 C 513.02 724.76 496.05 722.88 479.05 721.49 C 473.37 721.20 467.69 721.44 462.01 721.65 C 480.54 705.73 484.50 677.37 475.38 655.42 Z" />
		<path fill="var(--socks-color, grey)" opacity="1.00"
			d=" M 606.59 753.16 C 607.56 755.22 608.65 757.23 609.43 759.39 C 612.49 768.52 617.89 776.64 621.21 785.67 C 625.04 796.27 627.80 807.20 630.99 818.00 C 633.50 826.75 635.40 835.92 640.39 843.69 C 642.15 846.62 645.45 848.87 649.01 848.25 C 654.25 847.42 658.49 843.72 662.01 839.98 C 671.29 829.22 676.25 815.36 677.92 801.37 C 683.94 807.58 690.73 813.00 696.72 819.24 C 704.96 828.06 714.23 835.80 722.91 844.15 C 728.01 849.24 734.02 853.32 740.45 856.53 C 741.50 862.65 743.84 868.71 742.91 875.01 C 742.29 879.55 741.67 884.31 739.29 888.31 C 736.47 891.70 731.56 891.64 727.65 890.60 C 723.73 889.51 719.65 889.23 715.65 889.98 C 704.65 881.20 690.98 877.04 678.01 872.17 C 661.86 867.56 646.51 860.50 632.22 851.71 C 612.78 840.05 599.34 821.07 580.79 808.26 C 574.47 803.89 567.32 800.99 560.24 798.13 C 576.04 793.40 590.23 783.33 599.90 769.98 C 603.58 765.05 605.47 759.14 606.59 753.16 Z" />
	</g>
	<g id="#4d4d4dff">
		<path fill="#4d4d4d" opacity="1.00"
			d=" M 619.65 687.08 C 625.78 684.00 632.80 681.69 639.70 683.36 C 646.71 685.30 653.41 689.54 657.01 696.02 C 661.48 703.56 662.92 712.42 663.17 721.06 C 663.47 730.58 665.96 739.84 669.29 748.71 C 675.04 763.72 676.14 780.32 673.22 796.09 C 671.43 805.52 670.12 815.25 665.89 823.99 C 662.43 831.03 657.84 837.82 651.24 842.27 C 649.69 843.26 647.97 844.40 646.04 844.10 C 642.42 840.55 640.93 835.51 639.25 830.87 C 634.01 813.48 630.42 795.51 623.20 778.78 C 617.74 767.03 610.80 755.40 610.27 742.10 C 615.61 741.51 621.01 741.89 626.33 741.23 C 630.80 740.56 633.10 735.93 633.52 731.85 C 634.32 724.56 634.10 717.14 632.81 709.92 C 631.40 701.00 626.57 692.84 619.65 687.08 Z" />
		<path fill="#4d4d4d" opacity="1.00"
			d=" M 746.15 859.39 C 755.05 862.44 765.77 860.92 773.10 867.79 C 781.19 875.84 784.71 888.18 782.36 899.34 C 779.48 914.40 770.07 926.97 763.83 940.71 C 759.22 950.46 756.34 960.88 753.31 971.20 C 751.55 977.37 746.70 983.13 740.09 984.14 C 725.88 986.63 711.02 985.32 697.33 980.81 C 695.16 980.05 691.55 978.06 693.32 975.34 C 696.17 969.46 701.50 965.20 704.29 959.25 C 710.30 948.50 709.43 935.85 710.93 924.03 C 712.00 914.85 711.32 904.77 716.79 896.80 C 718.62 893.90 722.38 895.22 725.12 895.69 C 729.91 896.89 735.35 897.62 739.76 894.82 C 745.37 891.91 746.62 885.10 747.66 879.46 C 749.01 872.75 748.14 865.87 746.15 859.39 Z" />
	</g>
</svg>