<?xml version="1.0" encoding="UTF-8" ?>
<!DOCTYPE svg PUBLIC "-//W3C//DTD SVG 1.1//EN" "http://www.w3.org/Graphics/SVG/1.1/DTD/svg11.dtd">
<svg width="1000pt" height="1000pt" viewBox="0 0 1000 1000" version="1.1" xmlns="http://www.w3.org/2000/svg">
	<g id="#020202ff">
		<path fill="#020202" opacity="1.00"
			d=" M 461.08 20.11 C 472.34 12.34 486.53 9.83 500.00 10.89 C 517.84 12.41 535.09 19.78 548.79 31.27 C 559.50 40.41 568.38 52.51 571.28 66.49 C 573.49 77.16 571.06 87.99 568.13 98.26 C 565.92 104.97 561.77 110.84 557.28 116.23 C 559.93 121.69 564.20 126.03 568.27 130.44 C 572.48 129.88 576.71 129.51 580.95 129.36 C 589.42 129.02 597.64 126.62 606.09 126.19 C 613.07 126.70 619.46 130.12 625.36 133.66 C 636.69 141.41 646.53 151.27 654.65 162.33 C 660.49 169.73 664.95 178.07 670.11 185.93 C 677.89 198.01 684.81 210.81 694.74 221.34 C 700.51 226.91 707.54 231.23 715.17 233.76 C 719.36 235.17 723.74 235.92 727.90 237.43 C 731.47 238.36 732.23 243.16 736.09 243.59 C 746.98 246.33 757.79 249.74 767.59 255.34 C 783.67 266.19 802.56 272.23 818.01 284.10 C 824.11 288.71 829.16 294.90 831.75 302.15 C 834.95 312.38 835.00 323.30 833.41 333.82 C 830.43 355.76 827.87 377.78 827.23 399.93 C 826.46 415.92 826.65 431.99 824.53 447.89 C 824.06 451.63 822.76 455.26 822.71 459.04 C 824.72 462.90 828.53 465.45 830.53 469.35 C 833.22 473.71 833.96 478.98 836.64 483.34 C 841.96 489.69 848.56 494.81 854.15 500.91 C 859.11 506.57 862.69 514.27 860.80 521.91 C 860.66 523.60 858.84 523.96 857.66 524.73 C 856.87 528.45 853.85 530.71 850.42 531.87 C 851.42 537.27 846.22 540.86 841.28 540.12 C 840.22 543.03 837.92 544.92 834.84 545.34 C 838.92 549.66 842.42 554.61 844.64 560.15 C 845.68 562.85 846.23 566.69 843.54 568.64 C 840.70 570.85 836.87 569.61 834.00 568.13 C 827.08 565.00 822.34 558.85 816.54 554.18 C 814.85 557.18 812.56 560.30 808.88 560.80 C 804.54 561.44 801.51 557.15 800.37 553.50 C 798.89 548.08 799.02 542.38 798.02 536.87 C 796.73 526.34 790.00 517.60 787.46 507.43 C 785.78 501.27 785.83 494.85 785.18 488.54 C 783.43 475.08 785.80 461.53 784.93 448.03 C 785.03 435.33 783.47 422.71 783.20 410.03 C 783.07 399.76 780.88 389.68 779.70 379.51 C 778.31 366.33 775.46 353.30 775.32 340.01 C 775.36 334.97 774.67 329.00 769.99 326.06 C 764.20 322.56 757.07 322.87 750.61 321.56 C 744.24 329.20 732.81 332.10 723.78 327.64 C 723.90 337.80 723.75 348.00 722.15 358.06 C 719.73 373.16 715.53 387.90 712.95 402.97 C 710.95 416.52 710.01 430.26 710.53 443.96 C 711.03 459.89 706.03 475.27 704.73 491.05 C 702.22 502.62 704.95 514.42 703.54 526.08 C 702.92 531.47 701.88 537.12 698.59 541.58 C 696.32 542.69 693.72 541.91 691.33 541.82 C 685.34 557.80 675.67 572.54 662.98 584.01 C 655.12 591.31 646.47 597.71 637.46 603.50 C 632.97 606.39 627.95 608.30 622.79 609.59 C 618.81 610.81 614.52 611.55 611.11 614.08 C 587.13 633.27 564.84 654.44 542.28 675.25 C 534.53 682.19 526.83 689.22 518.65 695.66 C 514.31 698.75 509.63 702.32 504.00 701.93 C 488.88 702.34 476.07 693.30 462.03 689.22 C 458.25 694.04 453.78 698.30 450.32 703.38 C 445.02 711.35 439.47 719.16 433.94 726.99 C 432.92 728.46 431.79 730.06 432.12 731.97 C 432.35 737.31 432.86 742.64 433.11 747.99 C 433.57 758.37 436.47 768.53 436.12 778.97 C 436.10 792.74 430.93 805.81 425.08 818.05 C 420.48 826.86 416.54 836.15 414.94 846.01 C 413.69 853.77 412.57 861.54 411.18 869.28 C 407.83 886.50 406.13 904.13 400.26 920.77 C 403.43 924.03 404.46 928.58 404.95 932.96 C 406.35 944.84 406.31 956.88 405.27 968.79 C 404.94 974.71 402.61 981.10 397.25 984.24 C 390.55 988.10 382.54 988.23 375.03 987.88 C 357.00 987.12 338.81 984.80 320.86 987.85 C 309.27 989.73 297.80 992.67 286.01 992.93 C 271.31 993.20 256.80 990.04 242.71 986.14 C 237.01 984.05 230.90 981.83 226.72 977.26 C 223.54 973.49 226.16 968.19 229.96 966.07 C 243.33 957.49 259.92 957.39 274.24 951.18 C 289.56 944.14 301.38 931.78 313.91 920.88 C 320.12 915.46 328.13 912.64 336.33 912.38 C 337.21 903.21 338.43 894.07 340.00 885.00 C 343.84 861.11 344.49 836.87 343.71 812.74 C 332.52 824.84 317.63 832.42 303.66 840.78 C 285.25 851.42 266.48 861.62 249.47 874.46 C 241.73 880.19 235.10 887.42 226.54 892.02 C 223.41 908.53 216.56 924.61 205.10 937.08 C 199.30 943.32 190.53 946.92 182.00 945.75 C 176.13 944.91 171.18 941.00 167.56 936.51 C 162.94 929.99 160.31 922.31 158.16 914.69 C 156.24 907.00 154.82 899.05 151.01 892.01 C 146.77 884.17 140.87 877.42 136.06 869.96 C 129.03 858.72 127.48 844.98 127.95 832.00 C 128.63 824.61 129.38 816.32 134.56 810.56 C 139.86 806.42 147.47 806.25 153.63 808.47 C 163.91 811.94 171.55 820.01 180.91 825.15 C 186.83 828.95 193.26 831.92 200.12 833.53 C 208.65 827.07 218.64 823.07 227.92 817.88 C 236.74 812.69 243.90 805.26 251.49 798.52 C 262.25 788.97 272.24 778.62 282.52 768.57 C 294.61 756.59 306.94 744.87 319.43 733.31 C 328.93 724.14 338.12 714.60 348.50 706.41 C 347.32 698.05 346.01 688.90 350.04 681.07 C 354.13 673.19 361.40 667.72 367.77 661.78 C 374.17 655.59 377.61 647.18 381.12 639.18 C 384.22 632.42 386.78 625.39 388.58 618.18 C 389.47 610.75 389.58 603.12 391.95 595.95 C 394.29 590.68 398.94 586.96 403.04 583.09 C 399.66 579.49 395.51 576.27 393.62 571.57 C 391.34 565.12 393.48 558.30 395.15 551.98 C 396.32 548.09 395.71 544.01 396.02 540.04 C 396.79 538.08 399.28 538.47 400.96 538.09 C 424.75 536.26 447.44 527.12 467.62 514.70 C 470.81 512.59 474.52 511.12 477.25 508.38 C 479.09 504.79 479.83 500.62 482.44 497.43 C 486.05 492.75 491.94 490.96 496.58 487.56 C 501.98 484.08 503.82 477.55 507.28 472.47 C 507.08 471.93 506.69 470.87 506.49 470.34 C 510.00 464.42 514.95 459.60 519.43 454.45 C 528.24 444.45 536.32 433.83 543.82 422.82 C 545.81 419.84 547.95 416.70 548.15 413.00 C 548.51 409.36 547.11 405.82 547.39 402.19 C 547.98 399.28 550.10 397.03 551.45 394.47 C 555.01 388.22 554.57 380.50 552.45 373.85 C 539.28 379.49 525.78 384.30 512.38 389.35 C 494.38 397.24 475.61 403.13 457.32 410.27 C 447.26 413.82 437.46 418.14 427.20 421.12 C 427.57 423.43 428.20 425.74 428.13 428.11 C 427.65 429.77 426.17 430.82 424.83 431.76 C 415.22 437.74 404.67 442.01 394.97 447.81 C 395.10 453.69 394.09 460.37 389.16 464.24 C 385.61 467.32 380.57 466.21 376.45 465.12 C 373.27 467.17 369.87 469.31 365.97 469.48 C 363.31 469.50 360.81 468.42 358.17 468.23 C 355.23 467.94 352.06 468.26 349.37 466.79 C 345.79 465.05 343.78 460.96 343.99 457.07 C 344.42 449.07 347.44 441.53 348.83 433.70 C 349.83 427.87 350.84 422.02 352.53 416.35 C 353.22 413.84 354.83 411.64 357.02 410.22 C 363.13 406.04 370.27 403.81 377.19 401.36 C 392.88 396.20 409.04 391.79 423.31 383.20 C 438.44 375.11 452.53 365.29 466.58 355.50 C 487.17 340.60 508.03 326.10 528.80 311.46 C 531.49 300.76 530.33 289.63 530.97 278.72 C 527.91 280.31 524.85 281.92 521.59 283.07 C 519.81 276.86 519.67 270.34 519.36 263.94 C 518.97 247.93 519.45 231.91 518.52 215.92 C 518.01 206.74 514.09 198.15 513.56 188.98 C 513.18 184.05 513.42 179.08 514.42 174.24 C 508.84 178.90 502.71 182.89 496.35 186.40 C 491.44 189.19 485.46 190.82 479.93 189.04 C 477.12 187.50 475.90 184.28 474.22 181.72 C 468.57 171.62 463.35 161.28 457.30 151.40 C 451.76 152.52 445.99 153.49 440.37 152.43 C 436.07 151.56 437.01 146.15 437.16 142.91 C 438.69 132.77 440.96 122.36 438.38 112.16 C 435.32 100.05 433.76 87.45 434.99 74.97 C 435.51 68.94 438.34 63.10 437.09 56.98 C 436.02 52.83 438.60 49.15 441.33 46.33 C 445.06 42.65 446.14 37.32 449.11 33.12 C 452.48 28.29 456.13 23.46 461.08 20.11 M 447.75 59.94 C 447.31 64.84 449.93 69.24 451.27 73.79 C 446.77 72.15 443.17 68.94 439.71 65.75 C 437.66 76.13 438.39 86.80 439.87 97.21 C 441.37 105.81 444.48 114.19 444.39 123.02 C 444.27 131.98 442.03 140.71 440.60 149.50 C 446.47 149.58 452.23 148.18 458.10 148.11 C 462.12 151.99 464.32 157.18 467.25 161.83 C 471.51 168.97 474.83 176.66 479.42 183.60 C 481.05 186.69 485.15 185.87 488.01 185.65 C 494.42 183.97 499.83 179.91 505.42 176.52 C 509.74 173.63 514.75 171.10 517.36 166.37 C 518.80 163.81 520.26 161.25 522.20 159.03 C 529.37 151.20 537.13 143.77 546.19 138.13 C 551.56 134.79 557.65 132.88 563.73 131.31 C 559.53 127.63 555.92 123.12 553.93 117.86 C 552.74 115.31 555.17 113.32 556.52 111.48 C 560.14 107.32 562.75 102.43 565.01 97.44 C 560.73 103.25 555.93 108.76 550.13 113.10 C 543.23 118.23 534.91 123.01 526.00 121.87 C 525.81 116.85 528.35 112.38 529.43 107.60 C 530.76 101.81 531.50 95.69 530.03 89.86 C 528.13 82.59 522.79 76.11 515.57 73.67 C 513.18 78.03 512.48 83.32 509.20 87.15 C 504.80 90.60 499.10 91.71 494.07 93.97 C 493.45 90.05 492.76 86.13 491.33 82.41 C 489.43 76.80 485.34 72.38 482.42 67.31 C 476.37 71.63 468.87 72.81 461.60 72.58 C 461.27 68.04 461.08 63.45 459.95 59.03 C 459.16 56.16 457.25 52.94 453.98 52.67 C 450.68 53.48 448.00 56.53 447.75 59.94 M 580.98 134.17 C 568.18 135.00 555.08 137.99 544.41 145.42 C 537.93 149.79 531.49 154.40 526.19 160.19 C 520.55 167.47 517.25 176.75 517.81 186.02 C 517.80 195.98 522.33 205.19 523.02 215.06 C 524.41 236.14 523.01 257.29 524.18 278.38 C 533.72 271.86 545.59 269.71 556.97 270.24 C 574.59 271.08 591.56 277.94 605.97 287.91 C 605.23 281.64 604.45 275.37 604.36 269.06 C 604.22 264.91 604.64 260.66 603.34 256.66 C 600.07 246.02 595.68 235.69 589.83 226.21 C 587.69 222.44 584.63 218.97 584.19 214.48 C 588.31 216.32 590.67 220.27 593.08 223.86 C 598.03 231.37 602.32 239.37 605.09 247.96 C 605.30 240.42 605.76 232.65 603.43 225.36 C 601.28 218.82 597.58 212.94 593.72 207.30 C 592.26 205.11 590.63 202.94 589.98 200.35 C 592.16 199.63 593.73 201.46 595.11 202.83 C 600.61 208.59 605.24 215.29 608.21 222.71 C 611.62 231.73 611.00 241.57 610.15 250.99 C 622.72 248.03 634.61 254.68 645.00 260.93 C 650.13 264.33 656.29 266.87 659.65 272.30 C 652.86 269.47 646.92 264.96 640.25 261.83 C 630.89 257.30 620.68 252.03 609.95 254.31 C 609.06 263.88 608.85 273.54 610.17 283.08 C 610.41 286.85 611.49 291.15 609.09 294.47 C 606.17 294.31 604.04 292.03 601.71 290.55 C 602.13 306.58 602.78 322.86 599.40 338.65 C 597.82 346.37 592.77 353.04 586.23 357.32 C 576.72 363.41 566.29 367.89 555.96 372.39 C 558.65 379.02 558.86 386.65 556.55 393.41 C 555.43 396.89 552.70 399.55 551.50 402.96 C 551.84 406.32 553.12 409.58 552.79 413.01 C 552.78 416.17 551.39 419.05 550.08 421.85 C 564.92 430.91 579.72 440.59 591.01 454.04 C 599.96 463.94 605.05 476.86 606.83 489.97 C 606.83 491.28 606.95 494.45 604.77 493.73 C 601.74 488.33 601.29 481.88 598.73 476.24 C 593.37 461.13 581.49 449.61 569.36 439.70 C 562.14 434.83 555.47 429.18 548.00 424.71 C 542.66 432.42 537.34 440.16 531.37 447.41 C 525.29 455.03 518.37 461.92 511.82 469.12 C 521.75 470.75 531.06 474.97 539.24 480.77 C 554.37 491.01 567.89 504.10 585.17 510.78 C 596.00 514.57 607.59 515.72 619.02 515.58 C 630.59 515.45 642.19 516.73 653.44 519.46 C 663.59 522.49 673.21 527.21 682.18 532.82 C 686.43 535.58 691.16 537.57 696.13 538.61 C 701.49 527.17 699.97 514.23 699.83 502.01 C 700.51 490.11 701.82 478.22 704.30 466.56 C 705.05 460.02 707.68 452.91 704.43 446.64 C 698.45 433.92 690.23 422.42 681.60 411.39 C 679.16 408.22 676.19 405.32 675.01 401.39 C 677.92 402.35 680.37 404.27 682.34 406.60 C 691.59 417.29 700.59 428.47 706.30 441.52 C 706.02 427.67 706.66 413.73 708.92 400.05 C 712.53 382.13 717.82 364.42 718.80 346.08 C 719.22 333.88 719.41 321.53 717.21 309.48 C 714.45 299.65 711.27 289.90 709.58 279.81 C 708.44 272.98 706.79 265.98 707.85 259.05 C 708.15 258.74 708.74 258.12 709.03 257.81 C 711.37 259.85 711.38 263.16 711.89 265.98 C 712.71 272.46 714.15 278.84 715.22 285.28 C 715.93 281.98 716.45 278.60 717.68 275.44 C 718.40 273.83 720.01 271.66 721.85 273.30 C 721.66 277.57 720.08 281.65 719.84 285.92 C 718.86 298.65 723.13 310.95 723.65 323.60 C 730.63 325.94 739.25 326.20 745.13 321.14 C 752.50 314.52 757.33 305.46 759.91 295.97 C 763.11 284.01 765.14 271.80 767.31 259.62 C 757.07 253.87 745.88 250.22 734.52 247.48 C 731.13 247.00 729.20 244.19 727.07 241.88 C 723.67 240.30 719.87 239.88 716.29 238.83 C 706.70 236.36 697.82 231.23 690.90 224.15 C 679.89 212.05 672.02 197.61 662.90 184.13 C 654.49 170.59 645.25 157.36 633.61 146.38 C 628.91 141.99 624.11 137.57 618.39 134.52 C 614.29 132.32 609.86 130.15 605.08 130.42 C 596.94 130.96 589.12 133.67 580.98 134.17 M 770.49 261.98 C 768.68 274.77 765.99 287.41 762.61 299.88 C 760.82 306.30 757.64 312.28 753.63 317.59 C 761.32 318.75 770.37 318.75 775.97 325.04 C 781.23 331.15 779.61 339.71 780.55 347.10 C 782.69 365.45 785.78 383.68 788.33 401.98 C 789.23 423.30 791.69 444.63 790.17 465.98 C 789.68 472.64 789.63 479.32 789.80 485.99 C 789.98 493.28 790.00 500.73 792.30 507.73 C 794.73 514.98 798.69 521.61 801.03 528.90 C 802.90 535.42 803.29 542.24 803.83 548.98 C 804.16 551.87 804.97 555.51 808.00 556.71 C 811.10 555.47 812.23 551.98 812.86 548.98 C 814.65 538.12 814.68 527.06 814.76 516.11 C 816.74 509.10 816.33 501.83 816.44 494.65 C 816.86 494.40 817.70 493.89 818.12 493.64 C 820.34 496.98 820.05 501.21 820.43 505.05 C 821.04 511.65 817.83 518.27 820.08 524.78 C 822.10 530.04 825.44 534.75 829.11 538.99 C 830.87 541.29 834.02 540.86 836.58 540.93 C 837.00 538.45 838.37 535.66 836.86 533.31 C 834.93 529.73 833.31 525.94 830.80 522.72 C 828.71 522.57 827.38 524.50 825.68 525.36 C 824.07 523.64 825.41 521.19 826.80 519.81 C 829.08 517.35 833.37 518.22 835.01 520.99 C 838.20 525.96 840.13 531.64 843.27 536.66 C 844.64 535.70 847.18 535.27 846.68 533.05 C 846.85 525.35 842.46 518.79 838.21 512.77 C 836.34 513.84 834.47 514.92 832.54 515.90 C 832.93 514.22 833.04 512.41 833.96 510.92 C 835.57 508.41 839.74 507.84 841.66 510.32 C 845.80 515.49 848.51 521.62 851.07 527.69 C 855.01 525.30 854.23 520.10 852.43 516.58 C 850.57 512.84 849.06 508.81 846.33 505.59 C 844.12 503.49 840.78 506.12 838.39 504.78 C 837.60 503.15 839.14 502.08 840.38 501.38 C 843.62 499.75 848.05 500.82 850.05 503.93 C 853.22 508.55 855.02 513.94 857.55 518.92 C 857.56 511.75 853.41 505.38 848.30 500.69 C 843.60 496.38 838.95 492.02 834.44 487.51 C 830.47 483.46 830.25 477.38 827.53 472.60 C 825.71 468.58 821.92 466.04 819.50 462.45 C 817.58 459.69 818.51 456.21 819.07 453.18 C 821.19 443.28 821.34 433.10 821.77 423.03 C 822.05 397.61 823.27 372.17 826.63 346.96 C 828.08 334.74 830.47 322.32 828.13 310.04 C 827.30 301.93 822.76 294.58 816.55 289.45 C 802.62 278.01 784.95 272.61 770.49 261.98 M 534.26 277.59 C 534.76 287.67 535.49 297.83 534.09 307.87 C 537.94 305.45 541.45 301.75 546.27 301.59 C 543.90 305.41 539.91 307.67 536.44 310.35 C 521.51 321.55 506.39 332.48 491.15 343.26 C 476.44 353.84 461.76 364.44 446.82 374.70 C 437.96 380.37 428.82 385.61 419.59 390.66 C 402.68 399.51 383.58 402.66 366.08 410.04 C 362.85 411.66 359.11 412.96 356.86 415.93 C 352.32 425.07 353.84 435.57 351.16 445.19 C 350.27 449.71 348.92 454.27 349.25 458.92 C 349.63 462.62 353.71 463.60 356.60 464.65 C 354.78 457.91 353.98 450.94 353.47 443.99 C 353.19 440.04 353.29 435.94 355.02 432.29 C 357.29 441.89 357.76 451.90 360.85 461.33 C 361.25 462.36 361.71 463.69 363.01 463.85 C 366.47 464.83 369.80 462.86 372.99 461.76 C 367.13 454.24 363.25 445.45 359.07 436.95 C 360.68 437.48 362.34 438.16 363.37 439.60 C 368.33 445.77 371.39 453.34 377.02 459.00 C 379.59 461.76 384.61 462.11 387.21 459.22 C 389.60 456.72 389.83 453.03 390.86 449.88 C 386.47 449.37 381.76 449.34 377.78 447.19 C 376.52 446.80 377.56 444.11 378.88 444.67 C 382.58 444.42 386.30 445.25 389.99 444.78 C 400.80 437.99 412.56 432.86 423.72 426.67 C 423.64 423.74 421.49 419.57 424.44 417.54 C 435.77 413.76 446.88 409.32 458.10 405.21 C 475.94 398.19 494.25 392.40 511.87 384.80 C 530.22 378.21 548.40 371.13 566.35 363.50 C 573.13 360.19 579.65 356.27 585.64 351.68 C 591.54 347.15 595.00 340.02 595.76 332.69 C 597.84 317.90 596.82 302.89 597.96 288.03 C 590.60 283.53 582.67 279.91 574.32 277.72 C 561.31 274.25 547.19 273.26 534.26 277.59 M 499.63 491.67 C 495.97 494.48 491.59 496.14 487.93 498.94 C 484.51 501.71 483.77 506.29 482.04 510.10 C 479.87 515.24 474.94 518.27 471.35 522.30 C 461.71 533.04 453.81 545.30 443.42 555.37 C 436.14 562.45 429.10 569.85 420.91 575.91 C 414.73 581.08 408.01 585.58 402.06 591.03 C 399.10 593.78 395.99 596.82 395.21 600.97 C 393.36 608.80 392.39 616.93 392.82 624.99 C 394.45 631.78 398.44 637.81 403.19 642.86 C 415.61 656.57 429.46 669.28 445.63 678.45 C 452.46 682.42 460.38 683.65 467.78 686.15 C 477.91 689.08 487.14 694.63 497.58 696.59 C 501.42 697.20 505.78 698.90 509.38 696.59 C 517.26 692.06 523.72 685.55 530.57 679.67 C 542.42 669.53 553.31 658.35 565.01 648.04 C 579.12 635.43 593.15 622.72 607.85 610.79 C 612.20 607.36 617.81 606.42 622.98 604.82 C 628.31 603.45 633.30 600.98 637.77 597.79 C 646.09 591.92 653.97 585.42 661.45 578.51 C 672.94 567.97 681.58 554.62 687.98 540.48 C 675.57 534.24 663.83 526.16 650.12 522.95 C 639.56 520.72 628.76 519.64 617.97 519.80 C 607.55 519.92 597.08 518.74 587.05 515.87 C 574.35 511.86 563.20 504.27 552.73 496.24 C 540.09 486.89 527.42 476.67 511.81 472.88 C 508.36 479.45 506.05 487.29 499.63 491.67 M 436.00 534.89 C 424.59 538.57 412.96 541.91 400.91 542.55 C 401.90 550.32 398.37 557.49 397.66 565.07 C 396.84 571.60 402.40 576.06 405.82 580.85 C 414.71 573.73 424.53 567.71 432.54 559.54 C 438.45 553.76 444.41 548.00 449.62 541.58 C 455.25 534.71 460.54 527.59 466.21 520.76 C 456.70 526.61 446.35 530.82 436.00 534.89 M 818.37 531.90 C 818.49 538.04 818.03 544.17 817.43 550.28 C 825.88 554.69 831.46 564.12 841.39 565.58 C 838.47 551.61 824.97 543.88 818.37 531.90 M 389.76 629.30 C 388.64 633.42 386.98 637.37 385.30 641.29 C 382.01 649.21 378.72 657.39 372.80 663.77 C 365.77 671.03 356.77 677.22 353.04 686.99 C 350.56 697.10 353.10 707.75 356.90 717.19 C 363.95 726.84 374.65 733.41 385.94 736.97 C 398.20 740.69 412.19 740.86 423.65 734.56 C 427.20 732.01 428.70 727.62 431.18 724.17 C 439.61 711.79 447.38 698.85 457.76 687.96 C 452.18 686.36 446.61 684.53 441.67 681.43 C 424.97 671.74 410.92 658.17 397.90 644.06 C 393.86 639.99 391.45 634.70 389.76 629.30 M 331.03 729.05 C 320.64 739.66 309.55 749.55 299.02 760.01 C 283.95 774.30 269.98 789.72 254.47 803.55 C 248.51 808.89 242.86 814.63 236.30 819.27 C 226.36 826.56 214.56 830.63 204.17 837.16 C 198.32 840.71 192.20 843.79 186.43 847.46 C 182.36 849.98 182.51 855.53 183.26 859.69 C 185.87 870.69 193.98 879.80 203.56 885.47 C 208.27 888.04 213.55 890.37 219.02 890.02 C 225.68 887.68 231.28 883.11 236.54 878.54 C 256.49 860.49 280.45 847.88 303.59 834.53 C 317.42 826.51 332.21 819.25 343.24 807.39 C 342.25 786.93 344.81 766.34 350.82 746.76 C 353.20 739.31 351.03 731.57 350.78 724.01 C 350.63 719.82 350.24 715.65 349.56 711.52 C 343.06 717.02 337.10 723.10 331.03 729.05 M 354.84 722.91 C 355.31 727.94 356.22 732.94 356.57 737.99 C 356.98 743.95 354.79 749.62 353.26 755.28 C 349.26 771.16 347.32 787.58 347.87 803.96 C 349.14 825.63 349.44 847.44 346.90 869.03 C 345.85 881.89 342.78 894.45 341.18 907.24 C 340.74 910.72 340.04 914.17 339.12 917.57 C 346.12 925.18 353.83 932.97 364.06 935.92 C 373.44 938.81 383.80 936.18 391.50 930.37 C 396.04 920.37 399.01 909.66 401.23 898.91 C 402.92 887.95 404.78 877.01 406.77 866.10 C 409.27 852.61 410.03 838.57 415.97 825.97 C 422.06 813.07 428.51 800.03 430.77 785.80 C 431.98 777.22 431.29 768.51 430.09 759.97 C 428.91 751.71 428.90 743.34 428.86 735.02 C 422.40 741.59 413.05 744.42 404.04 744.85 C 385.38 745.74 366.95 736.95 354.84 722.91 M 136.39 817.13 C 133.88 823.76 133.51 830.96 133.43 837.99 C 133.53 845.47 134.25 853.08 136.81 860.16 C 139.81 868.45 146.28 874.69 151.14 881.85 C 156.00 888.43 159.31 896.06 161.11 904.03 C 163.22 913.82 165.19 923.92 170.42 932.61 C 174.55 939.75 184.10 942.59 191.69 939.74 C 200.98 936.82 206.21 927.91 211.13 920.18 C 216.34 912.36 218.48 903.12 221.64 894.39 C 206.19 894.51 191.89 885.03 183.64 872.36 C 179.17 865.27 176.33 855.98 179.86 847.93 C 182.35 842.04 188.80 839.84 193.96 836.92 C 185.61 834.50 178.18 829.82 171.01 825.04 C 163.95 819.96 157.25 813.81 148.66 811.47 C 143.99 810.09 137.94 812.20 136.39 817.13 M 313.87 926.82 C 303.17 936.92 292.11 946.96 279.07 953.99 C 266.65 960.64 252.16 961.11 239.15 966.10 C 235.50 967.64 231.54 969.39 229.41 972.94 C 229.91 974.47 231.09 975.63 232.43 976.49 C 238.65 980.52 245.84 982.70 253.02 984.27 C 263.51 986.75 274.22 988.53 285.02 988.64 C 297.40 988.59 309.40 985.22 321.56 983.36 C 340.63 980.27 359.90 983.19 379.05 983.63 C 384.83 983.73 391.05 983.32 396.02 980.05 C 400.15 977.11 400.62 971.63 400.98 967.01 C 401.84 954.56 401.77 942.01 400.28 929.61 C 396.75 932.33 393.28 935.18 389.37 937.36 C 380.36 942.70 368.86 943.92 359.10 939.93 C 347.52 935.37 338.78 925.86 331.35 916.20 C 324.75 918.26 318.88 922.10 313.87 926.82 Z" />
		<path fill="#020202" opacity="1.00"
			d=" M 441.59 96.03 C 446.61 90.98 453.77 87.22 461.01 87.64 C 469.23 89.43 477.22 92.31 485.57 93.56 C 482.45 95.51 479.15 97.16 476.04 99.12 C 472.34 101.34 471.03 106.13 467.00 107.94 C 463.54 109.65 460.17 111.52 456.81 113.43 C 454.38 110.92 453.53 107.50 453.19 104.13 C 449.69 100.94 445.68 98.40 441.59 96.03 Z" />
		<path fill="#020202" opacity="1.00"
			d=" M 624.79 358.38 C 635.39 356.50 646.22 356.68 656.95 357.07 C 661.92 357.39 667.30 357.24 671.57 360.24 C 667.89 361.84 663.88 361.27 660.01 361.16 C 647.94 360.90 635.78 361.11 623.91 363.51 C 612.41 365.81 600.82 368.28 590.08 373.09 C 584.51 375.58 578.89 377.92 573.39 380.55 C 570.24 382.02 567.27 383.93 563.91 384.88 C 563.58 384.40 562.93 383.46 562.60 382.98 C 563.90 380.46 566.61 379.26 568.94 377.91 C 575.99 374.14 583.30 370.90 590.63 367.73 C 601.53 363.07 613.15 360.42 624.79 358.38 Z" />
		<path fill="#020202" opacity="1.00"
			d=" M 554.39 408.65 C 560.12 405.75 564.68 400.87 570.77 398.66 C 569.14 401.87 566.48 404.33 563.79 406.63 C 575.00 404.35 586.48 403.52 597.91 403.78 C 600.69 403.76 603.52 404.24 605.81 405.94 C 600.36 407.70 594.57 406.93 588.96 407.45 C 577.80 407.91 566.91 410.56 555.92 412.24 C 553.57 412.89 552.09 409.75 554.39 408.65 Z" />
		<path fill="#020202" opacity="1.00"
			d=" M 556.63 415.08 C 558.10 413.72 559.88 412.59 561.98 412.90 C 582.82 414.23 602.76 422.36 619.86 434.12 C 621.53 435.11 622.15 436.99 622.81 438.71 C 616.88 437.10 612.11 432.98 606.60 430.41 C 591.20 421.89 573.96 417.45 556.63 415.08 Z" />
	</g>
	<g id="#f0b58bff">
		<path fill="#f0b58b" opacity="1.00"
			d=" M 447.75 59.94 C 448.00 56.53 450.68 53.48 453.98 52.67 C 457.25 52.94 459.16 56.16 459.95 59.03 C 461.08 63.45 461.27 68.04 461.60 72.58 C 468.87 72.81 476.37 71.63 482.42 67.31 C 485.34 72.38 489.43 76.80 491.33 82.41 C 492.76 86.13 493.45 90.05 494.07 93.97 C 499.10 91.71 504.80 90.60 509.20 87.15 C 512.48 83.32 513.18 78.03 515.57 73.67 C 522.79 76.11 528.13 82.59 530.03 89.86 C 531.50 95.69 530.76 101.81 529.43 107.60 C 528.35 112.38 525.81 116.85 526.00 121.87 C 534.91 123.01 543.23 118.23 550.13 113.10 C 555.93 108.76 560.73 103.25 565.01 97.44 C 562.75 102.43 560.14 107.32 556.52 111.48 C 555.17 113.32 552.74 115.31 553.93 117.86 C 555.92 123.12 559.53 127.63 563.73 131.31 C 557.65 132.88 551.56 134.79 546.19 138.13 C 537.13 143.77 529.37 151.20 522.20 159.03 C 520.26 161.25 518.80 163.81 517.36 166.37 C 514.75 171.10 509.74 173.63 505.42 176.52 C 499.83 179.91 494.42 183.97 488.01 185.65 C 485.15 185.87 481.05 186.69 479.42 183.60 C 474.83 176.66 471.51 168.97 467.25 161.83 C 464.32 157.18 462.12 151.99 458.10 148.11 C 452.23 148.18 446.47 149.58 440.60 149.50 C 442.03 140.71 444.27 131.98 444.39 123.02 C 444.48 114.19 441.37 105.81 439.87 97.21 C 438.39 86.80 437.66 76.13 439.71 65.75 C 443.17 68.94 446.77 72.15 451.27 73.79 C 449.93 69.24 447.31 64.84 447.75 59.94 M 441.59 96.03 C 445.68 98.40 449.69 100.94 453.19 104.13 C 453.53 107.50 454.38 110.92 456.81 113.43 C 460.17 111.52 463.54 109.65 467.00 107.94 C 471.03 106.13 472.34 101.34 476.04 99.12 C 479.15 97.16 482.45 95.51 485.57 93.56 C 477.22 92.31 469.23 89.43 461.01 87.64 C 453.77 87.22 446.61 90.98 441.59 96.03 Z" />
		<path fill="#f0b58b" opacity="1.00"
			d=" M 770.49 261.98 C 784.95 272.61 802.62 278.01 816.55 289.45 C 822.76 294.58 827.30 301.93 828.13 310.04 C 830.47 322.32 828.08 334.74 826.63 346.96 C 823.27 372.17 822.05 397.61 821.77 423.03 C 821.34 433.10 821.19 443.28 819.07 453.18 C 818.51 456.21 817.58 459.69 819.50 462.45 C 821.92 466.04 825.71 468.58 827.53 472.60 C 830.25 477.38 830.47 483.46 834.44 487.51 C 838.95 492.02 843.60 496.38 848.30 500.69 C 853.41 505.38 857.56 511.75 857.55 518.92 C 855.02 513.94 853.22 508.55 850.05 503.93 C 848.05 500.82 843.62 499.75 840.38 501.38 C 839.14 502.08 837.60 503.15 838.39 504.78 C 840.78 506.12 844.12 503.49 846.33 505.59 C 849.06 508.81 850.57 512.84 852.43 516.58 C 854.23 520.10 855.01 525.30 851.07 527.69 C 848.51 521.62 845.80 515.49 841.66 510.32 C 839.74 507.84 835.57 508.41 833.96 510.92 C 833.04 512.41 832.93 514.22 832.54 515.90 C 834.47 514.92 836.34 513.84 838.21 512.77 C 842.46 518.79 846.85 525.35 846.68 533.05 C 847.18 535.27 844.64 535.70 843.27 536.66 C 840.13 531.64 838.20 525.96 835.01 520.99 C 833.37 518.22 829.08 517.35 826.80 519.81 C 825.41 521.19 824.07 523.64 825.68 525.36 C 827.38 524.50 828.71 522.57 830.80 522.72 C 833.31 525.94 834.93 529.73 836.86 533.31 C 838.37 535.66 837.00 538.45 836.58 540.93 C 834.02 540.86 830.87 541.29 829.11 538.99 C 825.44 534.75 822.10 530.04 820.08 524.78 C 817.83 518.27 821.04 511.65 820.43 505.05 C 820.05 501.21 820.34 496.98 818.12 493.64 C 817.70 493.89 816.86 494.40 816.44 494.65 C 816.33 501.83 816.74 509.10 814.76 516.11 C 814.68 527.06 814.65 538.12 812.86 548.98 C 812.23 551.98 811.10 555.47 808.00 556.71 C 804.97 555.51 804.16 551.87 803.83 548.98 C 803.29 542.24 802.90 535.42 801.03 528.90 C 798.69 521.61 794.73 514.98 792.30 507.73 C 790.00 500.73 789.98 493.28 789.80 485.99 C 789.63 479.32 789.68 472.64 790.17 465.98 C 791.69 444.63 789.23 423.30 788.33 401.98 C 785.78 383.68 782.69 365.45 780.55 347.10 C 779.61 339.71 781.23 331.15 775.97 325.04 C 770.37 318.75 761.32 318.75 753.63 317.59 C 757.64 312.28 760.82 306.30 762.61 299.88 C 765.99 287.41 768.68 274.77 770.49 261.98 Z" />
		<path fill="#f0b58b" opacity="1.00"
			d=" M 534.26 277.59 C 547.19 273.26 561.31 274.25 574.32 277.72 C 582.67 279.91 590.60 283.53 597.96 288.03 C 596.82 302.89 597.84 317.90 595.76 332.69 C 595.00 340.02 591.54 347.15 585.64 351.68 C 579.65 356.27 573.13 360.19 566.35 363.50 C 548.40 371.13 530.22 378.21 511.87 384.80 C 494.25 392.40 475.94 398.19 458.10 405.21 C 446.88 409.32 435.77 413.76 424.44 417.54 C 421.49 419.57 423.64 423.74 423.72 426.67 C 412.56 432.86 400.80 437.99 389.99 444.78 C 386.30 445.25 382.58 444.42 378.88 444.67 C 377.56 444.11 376.52 446.80 377.78 447.19 C 381.76 449.34 386.47 449.37 390.86 449.88 C 389.83 453.03 389.60 456.72 387.21 459.22 C 384.61 462.11 379.59 461.76 377.02 459.00 C 371.39 453.34 368.33 445.77 363.37 439.60 C 362.34 438.16 360.68 437.48 359.07 436.95 C 363.25 445.45 367.13 454.24 372.99 461.76 C 369.80 462.86 366.47 464.83 363.01 463.85 C 361.71 463.69 361.25 462.36 360.85 461.33 C 357.76 451.90 357.29 441.89 355.02 432.29 C 353.29 435.94 353.19 440.04 353.47 443.99 C 353.98 450.94 354.78 457.91 356.60 464.65 C 353.71 463.60 349.63 462.62 349.25 458.92 C 348.92 454.27 350.27 449.71 351.16 445.19 C 353.84 435.57 352.32 425.07 356.86 415.93 C 359.11 412.96 362.85 411.66 366.08 410.04 C 383.58 402.66 402.68 399.51 419.59 390.66 C 428.82 385.61 437.96 380.37 446.82 374.70 C 461.76 364.44 476.44 353.84 491.15 343.26 C 506.39 332.48 521.51 321.55 536.44 310.35 C 539.91 307.67 543.90 305.41 546.27 301.59 C 541.45 301.75 537.94 305.45 534.09 307.87 C 535.49 297.83 534.76 287.67 534.26 277.59 Z" />
		<path fill="#f0b58b" opacity="1.00"
			d=" M 818.37 531.90 C 824.97 543.88 838.47 551.61 841.39 565.58 C 831.46 564.12 825.88 554.69 817.43 550.28 C 818.03 544.17 818.49 538.04 818.37 531.90 Z" />
		<path fill="#f0b58b" opacity="1.00"
			d=" M 389.76 629.30 C 391.45 634.70 393.86 639.99 397.90 644.06 C 410.92 658.17 424.97 671.74 441.67 681.43 C 446.61 684.53 452.18 686.36 457.76 687.96 C 447.38 698.85 439.61 711.79 431.18 724.17 C 428.70 727.62 427.20 732.01 423.65 734.56 C 412.19 740.86 398.20 740.69 385.94 736.97 C 374.65 733.41 363.95 726.84 356.90 717.19 C 353.10 707.75 350.56 697.10 353.04 686.99 C 356.77 677.22 365.77 671.03 372.80 663.77 C 378.72 657.39 382.01 649.21 385.30 641.29 C 386.98 637.37 388.64 633.42 389.76 629.30 Z" />
	</g>
	<g id="#f11b27ff">
		<path fill="var(--shirt-color, grey)" opacity="1.00"
			d=" M 580.98 134.17 C 589.12 133.67 596.94 130.96 605.08 130.42 C 609.86 130.15 614.29 132.32 618.39 134.52 C 624.11 137.57 628.91 141.99 633.61 146.38 C 645.25 157.36 654.49 170.59 662.90 184.13 C 672.02 197.61 679.89 212.05 690.90 224.15 C 697.82 231.23 706.70 236.36 716.29 238.83 C 719.87 239.88 723.67 240.30 727.07 241.88 C 729.20 244.19 731.13 247.00 734.52 247.48 C 745.88 250.22 757.07 253.87 767.31 259.62 C 765.14 271.80 763.11 284.01 759.91 295.97 C 757.33 305.46 752.50 314.52 745.13 321.14 C 739.25 326.20 730.63 325.94 723.65 323.60 C 723.13 310.95 718.86 298.65 719.84 285.92 C 720.08 281.65 721.66 277.57 721.85 273.30 C 720.01 271.66 718.40 273.83 717.68 275.44 C 716.45 278.60 715.93 281.98 715.22 285.28 C 714.15 278.84 712.71 272.46 711.89 265.98 C 711.38 263.16 711.37 259.85 709.03 257.81 C 708.74 258.12 708.15 258.74 707.85 259.05 C 706.79 265.98 708.44 272.98 709.58 279.81 C 711.27 289.90 714.45 299.65 717.21 309.48 C 719.41 321.53 719.22 333.88 718.80 346.08 C 717.82 364.42 712.53 382.13 708.92 400.05 C 706.66 413.73 706.02 427.67 706.30 441.52 C 700.59 428.47 691.59 417.29 682.34 406.60 C 680.37 404.27 677.92 402.35 675.01 401.39 C 676.19 405.32 679.16 408.22 681.60 411.39 C 690.23 422.42 698.45 433.92 704.43 446.64 C 707.68 452.91 705.05 460.02 704.30 466.56 C 701.82 478.22 700.51 490.11 699.83 502.01 C 699.97 514.23 701.49 527.17 696.13 538.61 C 691.16 537.57 686.43 535.58 682.18 532.82 C 673.21 527.21 663.59 522.49 653.44 519.46 C 642.19 516.73 630.59 515.45 619.02 515.58 C 607.59 515.72 596.00 514.57 585.17 510.78 C 567.89 504.10 554.37 491.01 539.24 480.77 C 531.06 474.97 521.75 470.75 511.82 469.12 C 518.37 461.92 525.29 455.03 531.37 447.41 C 537.34 440.16 542.66 432.42 548.00 424.71 C 555.47 429.18 562.14 434.83 569.36 439.70 C 581.49 449.61 593.37 461.13 598.73 476.24 C 601.29 481.88 601.74 488.33 604.77 493.73 C 606.95 494.45 606.83 491.28 606.83 489.97 C 605.05 476.86 599.96 463.94 591.01 454.04 C 579.72 440.59 564.92 430.91 550.08 421.85 C 551.39 419.05 552.78 416.17 552.79 413.01 C 553.12 409.58 551.84 406.32 551.50 402.96 C 552.70 399.55 555.43 396.89 556.55 393.41 C 558.86 386.65 558.65 379.02 555.96 372.39 C 566.29 367.89 576.72 363.41 586.23 357.32 C 592.77 353.04 597.82 346.37 599.40 338.65 C 602.78 322.86 602.13 306.58 601.71 290.55 C 604.04 292.03 606.17 294.31 609.09 294.47 C 611.49 291.15 610.41 286.85 610.17 283.08 C 608.85 273.54 609.06 263.88 609.95 254.31 C 620.68 252.03 630.89 257.30 640.25 261.83 C 646.92 264.96 652.86 269.47 659.65 272.30 C 656.29 266.87 650.13 264.33 645.00 260.93 C 634.61 254.68 622.72 248.03 610.15 250.99 C 611.00 241.57 611.62 231.73 608.21 222.71 C 605.24 215.29 600.61 208.59 595.11 202.83 C 593.73 201.46 592.16 199.63 589.98 200.35 C 590.63 202.94 592.26 205.11 593.72 207.30 C 597.58 212.94 601.28 218.82 603.43 225.36 C 605.76 232.65 605.30 240.42 605.09 247.96 C 602.32 239.37 598.03 231.37 593.08 223.86 C 590.67 220.27 588.31 216.32 584.19 214.48 C 584.63 218.97 587.69 222.44 589.83 226.21 C 595.68 235.69 600.07 246.02 603.34 256.66 C 604.64 260.66 604.22 264.91 604.36 269.06 C 604.45 275.37 605.23 281.64 605.97 287.91 C 591.56 277.94 574.59 271.08 556.97 270.24 C 545.59 269.71 533.72 271.86 524.18 278.38 C 523.01 257.29 524.41 236.14 523.02 215.06 C 522.33 205.19 517.80 195.98 517.81 186.02 C 517.25 176.75 520.55 167.47 526.19 160.19 C 531.49 154.40 537.93 149.79 544.41 145.42 C 555.08 137.99 568.18 135.00 580.98 134.17 M 624.79 358.38 C 613.15 360.42 601.53 363.07 590.63 367.73 C 583.30 370.90 575.99 374.14 568.94 377.91 C 566.61 379.26 563.90 380.46 562.60 382.98 C 562.93 383.46 563.58 384.40 563.91 384.88 C 567.27 383.93 570.24 382.02 573.39 380.55 C 578.89 377.92 584.51 375.58 590.08 373.09 C 600.82 368.28 612.41 365.81 623.91 363.51 C 635.78 361.11 647.94 360.90 660.01 361.16 C 663.88 361.27 667.89 361.84 671.57 360.24 C 667.30 357.24 661.92 357.39 656.95 357.07 C 646.22 356.68 635.39 356.50 624.79 358.38 M 554.39 408.65 C 552.09 409.75 553.57 412.89 555.92 412.24 C 566.91 410.56 577.80 407.91 588.96 407.45 C 594.57 406.93 600.36 407.70 605.81 405.94 C 603.52 404.24 600.69 403.76 597.91 403.78 C 586.48 403.52 575.00 404.35 563.79 406.63 C 566.48 404.33 569.14 401.87 570.77 398.66 C 564.68 400.87 560.12 405.75 554.39 408.65 M 556.63 415.08 C 573.96 417.45 591.20 421.89 606.60 430.41 C 612.11 432.98 616.88 437.10 622.81 438.71 C 622.15 436.99 621.53 435.11 619.86 434.12 C 602.76 422.36 582.82 414.23 561.98 412.90 C 559.88 412.59 558.10 413.72 556.63 415.08 Z" />
	</g>
	<g id="#2b3dcdff">
		<path fill="var(--pants-color, grey)" opacity="1.00"
			d=" M 499.63 491.67 C 506.05 487.29 508.36 479.45 511.81 472.88 C 527.42 476.67 540.09 486.89 552.73 496.24 C 563.20 504.27 574.35 511.86 587.05 515.87 C 597.08 518.74 607.55 519.92 617.97 519.80 C 628.76 519.64 639.56 520.72 650.12 522.95 C 663.83 526.16 675.57 534.24 687.98 540.48 C 681.58 554.62 672.94 567.97 661.45 578.51 C 653.97 585.42 646.09 591.92 637.77 597.79 C 633.30 600.98 628.31 603.45 622.98 604.82 C 617.81 606.42 612.20 607.36 607.85 610.79 C 593.15 622.72 579.12 635.43 565.01 648.04 C 553.31 658.35 542.42 669.53 530.57 679.67 C 523.72 685.55 517.26 692.06 509.38 696.59 C 505.78 698.90 501.42 697.20 497.58 696.59 C 487.14 694.63 477.91 689.08 467.78 686.15 C 460.38 683.65 452.46 682.42 445.63 678.45 C 429.46 669.28 415.61 656.57 403.19 642.86 C 398.44 637.81 394.45 631.78 392.82 624.99 C 392.39 616.93 393.36 608.80 395.21 600.97 C 395.99 596.82 399.10 593.78 402.06 591.03 C 408.01 585.58 414.73 581.08 420.91 575.91 C 429.10 569.85 436.14 562.45 443.42 555.37 C 453.81 545.30 461.71 533.04 471.35 522.30 C 474.94 518.27 479.87 515.24 482.04 510.10 C 483.77 506.29 484.51 501.71 487.93 498.94 C 491.59 496.14 495.97 494.48 499.63 491.67 Z" />
		<path fill="var(--socks-color, grey)" opacity="1.00"
			d=" M 436.00 534.89 C 446.35 530.82 456.70 526.61 466.21 520.76 C 460.54 527.59 455.25 534.71 449.62 541.58 C 444.41 548.00 438.45 553.76 432.54 559.54 C 424.53 567.71 414.71 573.73 405.82 580.85 C 402.40 576.06 396.84 571.60 397.66 565.07 C 398.37 557.49 401.90 550.32 400.91 542.55 C 412.96 541.91 424.59 538.57 436.00 534.89 Z" />
		<path fill="var(--socks-color, grey)" opacity="1.00"
			d=" M 331.03 729.05 C 337.10 723.10 343.06 717.02 349.56 711.52 C 350.24 715.65 350.63 719.82 350.78 724.01 C 351.03 731.57 353.20 739.31 350.82 746.76 C 344.81 766.34 342.25 786.93 343.24 807.39 C 332.21 819.25 317.42 826.51 303.59 834.53 C 280.45 847.88 256.49 860.49 236.54 878.54 C 231.28 883.11 225.68 887.68 219.02 890.02 C 213.55 890.37 208.27 888.04 203.56 885.47 C 193.98 879.80 185.87 870.69 183.26 859.69 C 182.51 855.53 182.36 849.98 186.43 847.46 C 192.20 843.79 198.32 840.71 204.17 837.16 C 214.56 830.63 226.36 826.56 236.30 819.27 C 242.86 814.63 248.51 808.89 254.47 803.55 C 269.98 789.72 283.95 774.30 299.02 760.01 C 309.55 749.55 320.64 739.66 331.03 729.05 Z" />
		<path fill="var(--socks-color, grey)" opacity="1.00"
			d=" M 354.84 722.91 C 366.95 736.95 385.38 745.74 404.04 744.85 C 413.05 744.42 422.40 741.59 428.86 735.02 C 428.90 743.34 428.91 751.71 430.09 759.97 C 431.29 768.51 431.98 777.22 430.77 785.80 C 428.51 800.03 422.06 813.07 415.97 825.97 C 410.03 838.57 409.27 852.61 406.77 866.10 C 404.78 877.01 402.92 887.95 401.23 898.91 C 399.01 909.66 396.04 920.37 391.50 930.37 C 383.80 936.18 373.44 938.81 364.06 935.92 C 353.83 932.97 346.12 925.18 339.12 917.57 C 340.04 914.17 340.74 910.72 341.18 907.24 C 342.78 894.45 345.85 881.89 346.90 869.03 C 349.44 847.44 349.14 825.63 347.87 803.96 C 347.32 787.58 349.26 771.16 353.26 755.28 C 354.79 749.62 356.98 743.95 356.57 737.99 C 356.22 732.94 355.31 727.94 354.84 722.91 Z" />
	</g>
	<g id="#4d4d4dff">
		<path fill="#4d4d4d" opacity="1.00"
			d=" M 136.39 817.13 C 137.94 812.20 143.99 810.09 148.66 811.47 C 157.25 813.81 163.95 819.96 171.01 825.04 C 178.18 829.82 185.61 834.50 193.96 836.92 C 188.80 839.84 182.35 842.04 179.86 847.93 C 176.33 855.98 179.17 865.27 183.64 872.36 C 191.89 885.03 206.19 894.51 221.64 894.39 C 218.48 903.12 216.34 912.36 211.13 920.18 C 206.21 927.91 200.98 936.82 191.69 939.74 C 184.10 942.59 174.55 939.75 170.42 932.61 C 165.19 923.92 163.22 913.82 161.11 904.03 C 159.31 896.06 156.00 888.43 151.14 881.85 C 146.28 874.69 139.81 868.45 136.81 860.16 C 134.25 853.08 133.53 845.47 133.43 837.99 C 133.51 830.96 133.88 823.76 136.39 817.13 Z" />
		<path fill="#4d4d4d" opacity="1.00"
			d=" M 313.87 926.82 C 318.88 922.10 324.75 918.26 331.35 916.20 C 338.78 925.86 347.52 935.37 359.10 939.93 C 368.86 943.92 380.36 942.70 389.37 937.36 C 393.28 935.18 396.75 932.33 400.28 929.61 C 401.77 942.01 401.84 954.56 400.98 967.01 C 400.62 971.63 400.15 977.11 396.02 980.05 C 391.05 983.32 384.83 983.73 379.05 983.63 C 359.90 983.19 340.63 980.27 321.56 983.36 C 309.40 985.22 297.40 988.59 285.02 988.64 C 274.22 988.53 263.51 986.75 253.02 984.27 C 245.84 982.70 238.65 980.52 232.43 976.49 C 231.09 975.63 229.91 974.47 229.41 972.94 C 231.54 969.39 235.50 967.64 239.15 966.10 C 252.16 961.11 266.65 960.64 279.07 953.99 C 292.11 946.96 303.17 936.92 313.87 926.82 Z" />
	</g>
</svg>