<?xml version="1.0" encoding="UTF-8" ?>
<!DOCTYPE svg PUBLIC "-//W3C//DTD SVG 1.1//EN" "http://www.w3.org/Graphics/SVG/1.1/DTD/svg11.dtd">
<svg width="1000pt" height="1000pt" viewBox="0 0 1000 1000" version="1.1" xmlns="http://www.w3.org/2000/svg">
	<g id="#020202ff">
		<path fill="#020202" opacity="1.00"
			d=" M 211.78 24.77 C 216.18 23.26 220.72 25.47 224.88 26.82 C 226.93 26.76 228.98 26.88 231.01 27.13 C 237.70 25.02 244.54 28.36 249.83 32.29 C 254.54 36.16 258.87 40.62 262.14 45.79 C 265.67 51.29 266.23 58.17 265.29 64.50 C 264.04 71.68 260.55 78.18 257.78 84.85 C 254.06 93.26 252.16 102.52 252.64 111.72 C 264.16 122.50 275.66 133.36 285.98 145.32 C 293.04 131.16 307.21 120.77 322.91 118.61 C 336.12 116.64 349.92 120.59 360.40 128.77 C 370.73 136.72 377.68 148.50 380.99 161.00 C 385.16 176.85 382.51 194.59 373.16 208.14 C 369.55 212.98 370.39 219.38 370.15 225.05 C 373.32 224.55 376.82 223.47 379.79 225.25 C 384.41 227.79 388.33 231.38 392.46 234.62 C 395.97 237.61 400.91 237.23 405.00 238.98 C 413.96 241.83 421.47 248.13 426.53 255.99 C 427.57 257.60 429.31 258.55 431.10 259.14 C 438.42 262.22 446.41 263.19 453.71 266.34 C 463.64 270.18 472.63 276.36 479.62 284.40 C 486.99 292.96 494.43 301.47 502.24 309.63 C 512.35 321.25 524.21 331.15 536.02 340.97 C 540.10 344.50 544.35 348.03 547.13 352.75 C 540.82 356.36 535.68 361.53 531.14 367.14 C 535.93 371.92 541.18 376.23 545.56 381.41 C 553.80 391.04 560.50 401.97 565.44 413.64 C 568.42 420.66 570.04 428.31 574.16 434.81 C 578.99 441.53 587.34 444.27 595.04 446.15 C 603.98 448.00 613.03 449.37 622.11 450.41 C 626.90 451.00 632.80 452.02 635.06 456.91 C 638.26 463.64 640.81 470.73 642.15 478.07 C 643.59 484.07 638.54 488.80 635.09 493.02 C 631.65 496.23 628.34 501.02 623.10 500.83 C 611.56 500.84 601.11 495.51 590.11 492.86 C 585.77 491.81 581.00 490.43 578.29 486.59 C 574.96 481.59 576.30 474.98 573.07 469.92 C 567.77 460.56 557.02 456.82 548.10 451.87 C 539.56 446.96 529.83 443.34 523.38 435.54 C 518.20 429.73 514.75 422.70 510.98 415.97 C 507.36 409.35 504.47 402.36 502.35 395.12 C 494.12 396.64 485.18 393.65 479.60 387.39 C 475.12 382.48 471.78 376.57 466.76 372.15 C 461.22 366.98 453.97 364.37 447.75 360.20 C 444.40 358.02 441.41 355.35 438.47 352.66 C 434.39 361.17 430.65 369.94 428.51 379.17 C 426.83 386.01 427.44 393.10 427.63 400.07 C 427.77 403.89 429.68 407.29 431.05 410.77 C 434.84 420.46 436.61 431.05 435.06 441.42 C 440.26 445.01 444.78 449.67 447.84 455.23 C 450.41 459.95 452.87 464.75 455.79 469.28 C 458.49 473.46 462.26 476.80 466.01 480.01 C 473.37 486.37 482.64 490.49 488.72 498.31 C 492.06 501.99 493.96 507.03 493.25 512.02 C 492.28 517.44 488.30 522.23 483.11 524.11 C 477.96 526.01 472.85 528.26 468.74 532.01 C 476.21 539.63 484.94 546.19 490.74 555.29 C 499.75 568.15 504.46 583.26 510.35 597.65 C 514.27 609.02 519.69 619.85 526.15 629.98 C 530.81 635.96 535.53 642.38 536.48 650.15 C 537.64 656.77 533.25 663.56 526.91 665.57 C 528.08 667.54 529.23 669.52 530.38 671.52 C 535.62 659.68 544.22 648.80 556.11 643.16 C 566.41 638.19 579.18 639.74 588.45 632.40 C 592.33 629.78 593.41 625.00 595.40 621.05 C 591.82 613.86 590.39 605.89 589.05 598.05 C 587.60 589.86 589.89 581.54 593.08 574.05 C 596.35 567.60 604.31 565.48 611.03 566.24 C 622.83 566.77 632.15 574.97 640.50 582.45 C 645.75 586.69 650.51 592.19 657.31 593.85 C 666.20 596.50 675.04 599.56 683.40 603.63 C 696.27 610.47 708.58 621.10 712.06 635.85 C 713.90 644.45 716.05 653.46 714.08 662.22 C 712.65 669.10 706.49 674.43 699.72 675.71 C 694.57 676.20 688.61 676.16 684.63 672.34 C 677.77 665.89 668.48 663.12 659.64 660.58 C 655.06 659.38 650.38 658.63 645.68 658.24 C 640.25 662.96 634.53 667.40 629.85 672.90 C 625.07 678.46 620.28 684.03 616.13 690.08 C 611.77 696.71 607.71 703.56 602.74 709.77 C 597.74 715.70 592.49 721.41 586.94 726.83 C 579.11 734.68 570.16 741.34 562.56 749.44 C 556.96 755.33 552.42 762.10 547.22 768.32 C 542.07 774.38 534.35 779.06 526.12 777.82 C 518.84 776.32 512.04 773.02 505.72 769.18 C 496.33 763.52 485.84 759.74 477.21 752.84 C 464.85 743.81 458.93 729.14 452.10 715.99 C 446.20 704.98 440.66 693.78 435.64 682.34 C 432.49 683.44 429.42 685.24 426.04 685.38 C 421.94 683.09 419.23 679.11 416.35 675.54 C 411.30 669.16 404.60 664.24 397.24 660.84 C 387.45 656.33 379.12 648.97 373.14 640.05 C 366.53 645.41 359.92 650.91 354.46 657.46 C 348.85 665.21 344.65 674.03 337.78 680.83 C 332.19 686.20 325.57 691.89 317.38 691.94 C 316.28 690.72 315.19 689.49 314.10 688.28 C 310.30 697.12 305.50 705.84 298.09 712.18 C 294.10 715.71 289.09 717.73 284.85 720.90 C 280.82 723.79 280.09 729.08 277.80 733.19 C 279.42 741.60 282.84 749.51 284.57 757.90 C 289.26 778.32 286.55 799.39 284.97 820.01 C 284.08 836.46 278.32 852.05 273.73 867.71 C 268.45 885.38 262.56 903.30 262.53 921.94 C 262.32 928.29 265.06 934.13 266.58 940.16 C 270.03 952.50 270.65 965.67 268.26 978.26 C 266.85 984.96 263.34 992.67 256.01 994.34 C 249.18 994.68 243.17 990.74 237.46 987.51 C 223.81 978.61 210.49 968.92 195.33 962.71 C 181.94 956.81 169.99 946.90 163.44 933.63 C 160.21 926.78 157.62 918.93 159.47 911.33 C 160.67 906.12 165.93 902.94 170.96 902.41 C 177.89 901.43 184.09 905.75 190.96 905.68 C 199.66 905.67 208.47 905.90 216.85 908.55 C 217.35 901.34 215.25 894.33 213.53 887.42 C 207.58 863.28 199.46 839.19 199.84 814.04 C 201.04 790.25 206.83 766.90 207.30 743.06 C 204.89 729.14 202.72 715.11 202.33 700.97 C 202.01 694.16 204.46 687.68 205.17 680.98 C 206.36 670.63 206.68 660.14 209.19 649.99 C 210.95 643.32 212.26 636.31 216.19 630.49 C 213.39 626.12 209.87 622.02 208.41 616.96 C 211.73 611.38 216.94 607.04 220.42 601.48 C 229.81 590.14 233.84 575.04 244.93 565.01 C 250.15 559.90 257.52 557.88 262.79 552.82 C 268.26 547.78 273.01 540.92 281.02 540.03 C 276.65 527.93 273.29 515.47 271.33 502.75 C 269.99 494.57 269.81 486.26 268.52 478.07 C 267.45 468.93 264.99 459.73 266.66 450.49 C 267.26 447.54 266.20 444.67 265.53 441.84 C 260.93 417.47 258.67 392.75 256.37 368.07 C 254.95 341.71 253.54 314.66 260.91 288.98 C 263.12 280.60 267.48 272.75 268.13 264.00 C 268.07 256.54 266.99 248.96 263.84 242.14 C 261.73 237.06 258.60 232.33 257.48 226.89 C 256.57 221.93 259.90 217.71 262.21 213.67 C 258.16 208.98 254.13 204.10 251.78 198.30 C 248.82 191.82 248.45 184.60 246.40 177.85 C 242.92 164.65 238.47 151.69 232.52 139.39 C 228.66 131.37 224.74 123.07 218.15 116.88 C 213.98 112.37 208.66 107.63 208.69 100.98 C 208.13 93.80 212.40 87.59 213.73 80.75 C 215.54 73.96 215.16 66.90 214.87 59.96 C 214.83 55.98 214.83 51.11 218.40 48.52 C 220.54 46.88 223.36 48.41 224.69 50.35 C 227.36 54.11 227.46 58.92 227.98 63.32 C 230.41 59.06 232.93 53.66 230.08 48.95 C 225.46 41.98 218.06 37.62 212.36 31.69 C 210.62 29.96 209.07 26.37 211.78 24.77 M 215.16 28.23 C 221.09 33.79 227.89 38.52 232.94 44.98 C 235.55 48.16 235.92 52.41 236.78 56.28 C 236.53 53.57 236.74 50.76 235.83 48.16 C 233.25 41.26 224.95 38.26 223.51 30.72 C 220.80 29.67 218.01 28.82 215.16 28.23 M 233.50 29.70 C 238.60 37.71 248.34 41.41 253.23 49.63 C 255.93 54.58 255.30 60.81 252.79 65.70 C 248.13 74.64 240.19 81.40 235.87 90.54 C 236.97 86.46 237.57 82.21 239.35 78.35 C 243.37 71.64 250.17 66.15 251.23 58.00 C 251.85 54.18 249.74 50.80 247.68 47.81 C 248.38 51.63 249.21 55.75 247.39 59.40 C 245.82 62.58 244.27 66.32 240.65 67.61 C 241.00 62.95 243.08 58.64 243.52 54.01 C 243.44 50.26 242.13 46.65 240.71 43.22 C 239.61 40.53 236.94 39.08 234.99 37.10 C 232.51 34.96 231.11 31.61 227.90 30.37 C 230.36 36.44 236.92 39.46 239.53 45.46 C 243.14 52.32 240.87 60.25 238.11 66.97 C 237.61 67.95 236.17 71.27 235.04 68.82 C 233.85 65.49 235.50 61.86 235.96 58.50 C 233.21 67.43 226.98 74.59 222.50 82.64 C 223.13 77.80 224.19 73.04 225.37 68.31 C 223.56 63.01 223.82 57.06 220.66 52.24 C 219.32 57.07 219.87 62.10 220.05 67.03 C 220.55 75.95 218.60 84.89 215.22 93.12 C 214.07 96.24 212.67 99.58 213.25 102.96 C 216.38 110.26 223.52 114.67 227.70 121.27 C 240.57 141.21 248.02 164.05 253.33 187.02 C 253.94 189.79 254.68 192.55 255.83 195.16 C 260.72 207.34 274.04 214.64 276.45 228.05 C 282.38 227.31 288.56 226.11 293.42 222.41 C 296.57 219.91 299.11 216.74 301.58 213.58 C 305.46 208.55 306.70 202.08 307.39 195.90 C 307.56 193.38 308.05 190.59 306.45 188.39 C 303.55 183.54 301.55 178.24 298.83 173.30 C 293.32 163.40 287.42 153.60 279.83 145.13 C 272.14 136.50 263.80 128.46 255.47 120.46 C 252.78 117.71 248.58 115.40 248.68 111.03 C 248.16 101.25 250.45 91.45 254.49 82.57 C 257.98 74.42 262.66 66.19 261.91 57.00 C 261.91 50.48 257.67 45.09 253.39 40.61 C 248.18 35.02 241.52 29.70 233.50 29.70 M 308.10 182.55 C 311.30 189.33 314.85 195.93 319.01 202.17 C 320.63 196.95 321.49 191.46 321.22 185.99 C 321.17 182.66 318.38 179.55 314.97 179.54 C 312.25 179.13 310.07 180.99 308.10 182.55 M 310.97 197.04 C 310.96 208.71 304.58 219.46 295.54 226.50 C 286.40 232.90 274.47 233.60 263.81 231.51 C 267.32 238.62 270.97 245.92 271.79 253.93 C 272.83 264.25 272.52 274.65 272.37 285.01 C 272.28 292.04 274.57 298.97 273.59 306.02 C 273.05 305.07 272.60 304.08 272.26 303.05 C 270.18 294.16 268.07 285.17 268.53 275.96 C 261.76 293.83 258.73 312.92 258.72 331.99 C 258.52 350.70 259.64 369.41 261.82 387.99 C 263.22 406.40 266.05 424.64 268.83 442.88 C 269.85 437.69 269.65 432.34 270.80 427.18 C 273.76 433.99 272.45 441.57 270.69 448.50 C 268.41 457.64 271.07 466.91 272.01 476.03 C 273.45 485.61 273.67 495.32 275.44 504.85 C 277.36 516.27 280.86 527.31 284.34 538.32 C 287.95 538.27 291.59 537.90 295.06 536.82 C 305.73 533.59 317.05 534.33 328.01 535.20 C 337.39 536.08 346.78 534.89 356.08 533.80 C 368.11 532.40 379.30 527.53 390.73 523.85 C 401.06 520.80 410.33 515.15 420.37 511.34 C 435.15 505.47 451.06 501.01 467.10 502.35 C 475.23 503.39 484.67 507.27 487.03 515.93 C 488.24 513.63 490.24 511.24 489.43 508.45 C 487.85 502.02 482.56 497.35 477.58 493.38 C 470.05 488.03 462.30 482.85 455.80 476.23 C 447.99 467.92 445.57 455.76 436.71 448.29 C 429.27 441.30 418.71 440.20 409.12 438.50 C 399.86 436.69 391.50 431.64 384.61 425.31 C 380.34 421.28 376.17 416.78 374.32 411.07 C 378.18 412.56 380.17 416.34 383.04 419.05 C 390.26 426.22 399.12 432.18 409.16 434.42 C 416.57 435.68 424.16 436.40 431.20 439.23 C 432.28 429.87 430.52 420.41 427.27 411.64 C 423.42 401.94 419.21 392.38 414.93 382.87 C 413.68 381.39 414.63 378.06 416.85 379.84 C 419.44 383.43 421.06 387.61 423.13 391.50 C 422.70 376.03 429.69 361.79 436.09 348.14 C 438.92 333.92 438.79 319.18 436.71 304.85 C 434.98 288.79 430.24 272.88 421.90 259.00 C 417.73 251.84 410.80 246.62 403.03 243.94 C 395.74 240.79 387.72 240.85 379.95 240.39 C 372.40 239.37 365.00 237.47 357.52 236.05 C 368.90 243.22 379.85 251.15 389.75 260.28 C 392.99 263.30 396.85 266.20 397.78 270.81 C 395.63 269.51 393.64 267.96 391.76 266.30 C 382.79 258.48 373.31 251.25 363.40 244.67 C 355.37 239.03 346.43 234.85 338.27 229.41 C 338.94 237.91 338.46 246.44 338.38 254.95 C 338.30 259.69 338.33 264.52 336.99 269.12 C 335.93 267.56 334.71 265.95 334.77 263.96 C 334.03 251.29 334.70 238.58 334.30 225.89 C 328.73 221.81 323.83 216.85 319.79 211.25 C 316.62 206.66 313.94 201.76 310.97 197.04 M 261.49 226.54 C 265.08 227.27 268.70 227.83 272.36 228.05 C 270.11 223.84 267.29 219.98 264.33 216.25 C 262.86 219.51 261.64 222.93 261.49 226.54 M 335.83 222.69 C 344.31 229.75 356.62 229.95 366.83 227.20 C 366.46 223.82 366.43 220.43 366.71 217.05 C 357.48 222.53 346.34 223.65 335.83 222.69 M 363.32 232.26 C 371.63 233.90 379.90 236.18 388.46 235.92 C 385.25 233.69 382.22 231.20 378.90 229.13 C 377.51 228.21 375.78 227.67 374.16 228.30 C 370.50 229.48 367.04 231.23 363.32 232.26 M 430.50 263.07 C 434.94 271.89 437.70 281.44 439.91 291.03 C 442.56 306.18 444.27 321.68 442.41 337.03 C 446.51 329.51 451.35 322.38 456.98 315.94 C 458.35 314.22 460.31 313.23 462.39 312.67 C 460.57 315.98 458.14 318.88 456.03 321.99 C 450.07 330.67 445.03 339.93 440.21 349.28 C 445.50 353.35 451.05 357.12 457.13 359.92 C 463.67 362.93 469.89 366.96 474.29 372.76 C 478.68 378.00 481.92 384.41 487.73 388.30 C 492.52 391.14 499.07 392.09 503.89 388.81 C 512.27 383.08 519.32 375.59 525.48 367.57 C 530.41 361.42 535.73 355.30 542.73 351.43 C 531.66 342.45 520.25 333.86 509.99 323.93 C 504.97 319.26 500.75 313.82 495.97 308.92 C 489.11 301.82 482.64 294.36 476.19 286.89 C 470.00 279.76 462.12 274.18 453.36 270.64 C 446.00 267.35 437.95 266.09 430.50 263.07 M 505.55 393.14 C 509.43 406.44 516.21 418.65 523.83 430.14 C 529.85 439.30 540.49 443.20 549.62 448.39 C 559.24 453.56 570.26 458.04 576.27 467.70 C 579.33 472.09 578.68 477.68 580.34 482.55 C 581.53 486.19 585.46 487.82 588.90 488.63 C 593.97 489.66 598.77 491.60 603.65 493.24 C 605.05 491.78 606.57 490.44 608.22 489.27 C 602.85 486.22 595.68 482.99 595.51 475.81 C 591.31 475.72 586.38 476.07 583.34 472.54 C 581.23 470.15 578.12 466.75 579.79 463.39 C 583.67 465.31 585.32 470.58 590.00 471.12 C 598.58 472.12 607.90 472.57 615.17 477.78 C 618.60 481.17 619.36 486.77 618.44 491.33 C 614.92 493.08 610.87 493.02 607.15 494.09 C 612.37 495.18 617.68 496.04 623.02 496.30 C 627.35 496.29 630.23 492.68 632.76 489.66 C 635.25 486.51 638.22 483.21 638.56 479.04 C 637.85 472.03 634.34 465.74 631.71 459.32 C 630.23 455.43 625.47 455.24 621.98 454.92 C 613.87 454.52 605.89 452.98 597.88 451.74 C 588.23 449.69 577.94 446.47 571.47 438.54 C 566.73 432.08 565.06 424.06 562.24 416.69 C 558.11 405.70 551.92 395.58 544.68 386.37 C 540.06 380.31 534.24 375.27 529.73 369.11 C 523.16 378.48 514.80 386.44 505.55 393.14 M 598.52 476.30 C 601.81 481.92 608.54 484.04 611.91 489.61 C 612.92 489.57 614.95 489.49 615.97 489.45 C 615.10 486.56 614.76 483.37 613.01 480.86 C 608.95 477.60 603.52 476.89 598.52 476.30 M 455.08 506.79 C 457.45 514.72 460.59 522.53 465.88 529.00 C 469.94 522.76 477.24 520.44 483.90 518.13 C 482.89 515.63 481.97 512.85 479.59 511.31 C 472.61 506.09 463.40 505.85 455.08 506.79 M 414.95 518.90 C 396.32 526.10 378.15 535.42 358.16 538.27 C 348.80 539.36 339.37 540.80 329.93 539.95 C 321.27 539.27 312.53 538.35 303.87 539.42 C 299.79 539.90 295.93 541.38 291.91 542.10 C 286.83 542.91 281.63 543.78 277.01 546.14 C 272.38 549.39 269.20 554.29 264.60 557.60 C 259.13 562.02 251.91 563.85 247.06 569.10 C 238.24 577.91 234.34 590.13 227.13 600.10 C 222.56 606.33 218.02 612.66 212.35 617.96 C 220.13 627.66 226.85 638.40 236.52 646.42 C 242.11 650.97 247.84 655.49 254.29 658.79 C 262.05 662.69 270.87 663.25 279.12 665.62 C 289.72 668.58 300.07 672.71 309.40 678.60 C 313.46 681.07 316.85 684.49 319.52 688.42 C 328.16 684.82 335.29 678.27 340.49 670.58 C 345.48 663.52 349.01 655.34 355.40 649.35 C 361.04 643.96 366.81 638.66 373.12 634.06 C 379.28 643.05 387.43 650.89 397.42 655.47 C 403.19 658.09 408.94 661.02 413.62 665.40 C 419.00 669.82 422.31 676.09 427.28 680.90 C 433.61 677.97 441.49 676.74 445.69 670.60 C 448.46 666.78 451.02 662.71 454.73 659.70 C 462.23 653.08 472.05 650.19 481.50 647.64 C 488.85 645.90 496.37 644.38 503.96 644.64 C 513.36 645.02 522.71 646.55 531.69 649.34 C 530.03 643.87 527.01 638.98 523.26 634.71 C 519.59 630.21 517.04 624.96 514.19 619.95 C 508.28 609.47 504.92 597.87 500.19 586.87 C 495.35 574.19 489.75 561.53 480.86 551.12 C 472.94 542.40 462.88 535.33 457.32 524.68 C 454.26 519.31 452.88 513.23 451.56 507.25 C 438.80 509.09 426.68 513.70 414.95 518.90 M 602.24 572.26 C 600.08 573.14 597.88 574.83 597.39 577.24 C 597.14 580.81 599.28 583.95 601.19 586.79 C 605.77 593.49 612.39 598.34 618.70 603.29 C 626.92 609.85 636.15 615.02 644.26 621.75 C 655.49 630.41 665.99 640.15 674.63 651.44 C 678.97 657.10 682.40 663.48 687.51 668.53 C 689.06 670.03 690.83 671.52 693.04 671.91 C 702.08 673.77 711.69 665.34 710.62 656.07 C 709.47 645.07 707.86 633.22 700.64 624.36 C 691.70 613.74 678.98 607.23 665.99 602.94 C 655.87 599.81 646.42 594.60 638.43 587.64 C 631.64 581.93 624.98 575.45 616.34 572.71 C 611.79 571.48 606.81 570.77 602.24 572.26 M 593.32 584.19 C 592.30 590.09 592.42 596.12 593.85 601.94 C 595.25 607.67 595.79 613.93 599.18 618.93 C 603.06 620.49 604.18 614.24 607.98 615.18 C 613.36 616.08 617.91 619.60 621.74 623.33 C 626.37 627.89 626.81 634.75 629.73 640.29 C 632.68 646.34 637.96 650.80 643.48 654.46 C 654.32 652.74 664.82 656.78 674.83 660.37 C 664.44 644.95 650.29 632.47 635.40 621.52 C 624.17 613.94 612.84 606.37 602.93 597.08 C 599.02 593.35 596.17 588.73 593.32 584.19 M 607.62 618.82 C 606.59 620.02 605.66 621.34 604.46 622.38 C 602.54 623.18 600.37 622.90 598.34 623.08 C 597.44 627.31 596.20 631.75 592.88 634.76 C 585.78 641.78 575.31 642.59 566.09 644.81 C 553.10 647.40 542.90 657.67 537.39 669.32 C 535.51 673.75 532.67 678.06 532.84 683.07 C 532.93 689.28 533.97 695.47 535.44 701.51 C 538.47 711.78 544.05 721.08 550.24 729.74 C 553.87 734.74 559.00 738.43 564.69 740.76 C 577.84 729.28 590.94 717.55 601.59 703.63 C 606.00 697.61 609.73 691.13 614.09 685.07 C 621.83 674.93 630.12 665.08 640.21 657.19 C 634.76 653.27 629.61 648.66 626.47 642.62 C 623.85 638.18 623.01 632.97 620.64 628.43 C 617.69 623.73 612.66 620.81 607.62 618.82 M 218.50 633.81 C 216.05 641.66 214.19 649.70 212.91 657.83 C 211.32 667.79 211.69 677.98 209.47 687.85 C 208.50 692.17 207.18 696.49 207.40 700.98 C 207.63 713.40 209.64 725.71 211.41 737.99 C 216.56 736.62 221.82 735.72 227.11 735.10 C 243.99 732.90 261.89 736.24 276.38 745.32 C 273.98 737.04 271.69 728.55 271.35 719.89 C 271.65 718.56 271.41 715.03 273.61 716.46 C 275.27 719.90 275.57 723.81 276.24 727.54 C 277.31 724.45 278.00 720.96 280.53 718.67 C 285.13 714.33 291.41 712.38 296.05 708.10 C 302.88 701.98 306.84 693.53 310.75 685.42 C 300.72 678.53 289.33 673.75 277.59 670.63 C 270.39 668.60 262.78 668.03 255.83 665.10 C 248.38 662.17 242.12 657.05 235.90 652.14 C 229.27 646.88 223.73 640.42 218.50 633.81 M 484.15 651.47 C 475.15 653.83 465.62 656.01 458.46 662.35 C 454.06 665.74 451.25 670.59 447.88 674.88 C 445.56 677.92 442.03 679.60 438.64 681.16 C 444.93 691.48 449.90 702.55 456.09 712.94 C 463.35 725.58 468.73 740.24 480.88 749.18 C 489.09 755.79 498.93 759.76 507.95 765.07 C 514.15 768.80 520.85 771.90 527.90 773.60 C 534.69 775.28 540.13 769.78 544.22 765.18 C 549.94 757.95 555.14 750.27 561.68 743.71 C 555.84 741.66 550.67 737.99 546.88 733.09 C 540.07 723.99 534.34 713.93 531.01 703.02 C 529.35 696.16 528.25 689.10 528.48 682.03 C 528.48 679.82 528.73 677.45 527.52 675.49 C 522.69 666.82 517.14 658.53 512.93 649.52 C 503.30 648.05 493.55 649.15 484.15 651.47 M 518.00 649.98 C 520.20 653.78 522.40 657.60 524.62 661.40 C 528.21 659.59 531.43 656.97 532.51 652.93 C 527.70 651.77 522.86 650.82 518.00 649.98 M 212.12 742.36 C 211.59 754.79 211.05 767.25 208.81 779.52 C 206.83 796.30 203.05 813.26 205.82 830.18 C 207.30 845.98 212.33 861.11 215.69 876.55 C 217.61 885.37 220.47 894.03 221.41 903.05 C 221.84 906.81 221.16 911.44 217.54 913.47 C 214.46 914.98 211.11 915.86 208.00 917.32 C 210.98 925.35 216.57 932.17 223.80 936.75 C 228.25 933.81 232.54 930.45 237.64 928.69 C 244.22 926.39 251.34 926.22 258.22 926.81 C 257.58 922.56 257.38 918.24 257.94 913.98 C 259.21 903.90 261.61 894.01 264.03 884.15 C 269.25 864.33 276.76 845.08 280.28 824.83 C 281.87 811.27 282.94 797.63 282.95 783.98 C 283.09 772.77 281.73 761.41 278.02 750.81 C 274.91 747.27 270.13 745.82 265.84 744.18 C 255.24 740.81 244.09 737.96 232.87 739.12 C 225.90 739.76 218.95 740.77 212.12 742.36 M 164.92 909.89 C 163.09 913.22 163.45 917.28 164.11 920.90 C 166.38 931.78 173.10 941.39 181.70 948.27 C 187.98 953.39 195.24 957.12 202.59 960.46 C 212.45 965.24 221.81 970.98 230.83 977.19 C 237.29 981.58 243.76 986.28 251.28 988.69 C 254.00 989.37 257.57 990.15 259.70 987.77 C 262.32 984.81 263.38 980.84 264.19 977.07 C 266.84 962.01 264.34 946.58 259.67 932.18 C 251.84 930.93 243.34 931.34 236.34 935.40 C 232.59 937.42 229.26 940.46 224.97 941.28 C 221.01 941.41 217.77 938.58 214.96 936.13 C 209.67 931.04 205.21 924.47 204.24 917.07 C 203.69 913.45 208.08 912.53 210.36 910.88 C 199.91 909.48 189.01 911.63 178.94 907.84 C 174.35 906.16 168.59 906.37 164.92 909.89 Z" />
	</g>
	<g id="#f0b58bff">
		<path fill="#f0b58b" opacity="1.00"
			d=" M 215.16 28.23 C 218.01 28.82 220.80 29.67 223.51 30.72 C 224.95 38.26 233.25 41.26 235.83 48.16 C 236.74 50.76 236.53 53.57 236.78 56.28 C 235.92 52.41 235.55 48.16 232.94 44.98 C 227.89 38.52 221.09 33.79 215.16 28.23 Z" />
		<path fill="#f0b58b" opacity="1.00"
			d=" M 233.50 29.70 C 241.52 29.70 248.18 35.02 253.39 40.61 C 257.67 45.09 261.91 50.48 261.91 57.00 C 262.66 66.19 257.98 74.42 254.49 82.57 C 250.45 91.45 248.16 101.25 248.68 111.03 C 248.58 115.40 252.78 117.71 255.47 120.46 C 263.80 128.46 272.14 136.50 279.83 145.13 C 287.42 153.60 293.32 163.40 298.83 173.30 C 301.55 178.24 303.55 183.54 306.45 188.39 C 308.05 190.59 307.56 193.38 307.39 195.90 C 306.70 202.08 305.46 208.55 301.58 213.58 C 299.11 216.74 296.57 219.91 293.42 222.41 C 288.56 226.11 282.38 227.31 276.45 228.05 C 274.04 214.64 260.72 207.34 255.83 195.16 C 254.68 192.55 253.94 189.79 253.33 187.02 C 248.02 164.05 240.57 141.21 227.70 121.27 C 223.52 114.67 216.38 110.26 213.25 102.96 C 212.67 99.58 214.07 96.24 215.22 93.12 C 218.60 84.89 220.55 75.95 220.05 67.03 C 219.87 62.10 219.32 57.07 220.66 52.24 C 223.82 57.06 223.56 63.01 225.37 68.31 C 224.19 73.04 223.13 77.80 222.50 82.64 C 226.98 74.59 233.21 67.43 235.96 58.50 C 235.50 61.86 233.85 65.49 235.04 68.82 C 236.17 71.27 237.61 67.95 238.11 66.97 C 240.87 60.25 243.14 52.32 239.53 45.46 C 236.92 39.46 230.36 36.44 227.90 30.37 C 231.11 31.61 232.51 34.96 234.99 37.10 C 236.94 39.08 239.61 40.53 240.71 43.22 C 242.13 46.65 243.44 50.26 243.52 54.01 C 243.08 58.64 241.00 62.95 240.65 67.61 C 244.27 66.32 245.82 62.58 247.39 59.40 C 249.21 55.75 248.38 51.63 247.68 47.81 C 249.74 50.80 251.85 54.18 251.23 58.00 C 250.17 66.15 243.37 71.64 239.35 78.35 C 237.57 82.21 236.97 86.46 235.87 90.54 C 240.19 81.40 248.13 74.64 252.79 65.70 C 255.30 60.81 255.93 54.58 253.23 49.63 C 248.34 41.41 238.60 37.71 233.50 29.70 Z" />
		<path fill="#f0b58b" opacity="1.00"
			d=" M 308.10 182.55 C 310.07 180.99 312.25 179.13 314.97 179.54 C 318.38 179.55 321.17 182.66 321.22 185.99 C 321.49 191.46 320.63 196.95 319.01 202.17 C 314.85 195.93 311.30 189.33 308.10 182.55 Z" />
		<path fill="#f0b58b" opacity="1.00"
			d=" M 335.83 222.69 C 346.34 223.65 357.48 222.53 366.71 217.05 C 366.43 220.43 366.46 223.82 366.83 227.20 C 356.62 229.95 344.31 229.75 335.83 222.69 Z" />
		<path fill="#f0b58b" opacity="1.00"
			d=" M 505.55 393.14 C 514.80 386.44 523.16 378.48 529.73 369.11 C 534.24 375.27 540.06 380.31 544.68 386.37 C 551.92 395.58 558.11 405.70 562.24 416.69 C 565.06 424.06 566.73 432.08 571.47 438.54 C 577.94 446.47 588.23 449.69 597.88 451.74 C 605.89 452.98 613.87 454.52 621.98 454.92 C 625.47 455.24 630.23 455.43 631.71 459.32 C 634.34 465.74 637.85 472.03 638.56 479.04 C 638.22 483.21 635.25 486.51 632.76 489.66 C 630.23 492.68 627.35 496.29 623.02 496.30 C 617.68 496.04 612.37 495.18 607.15 494.09 C 610.87 493.02 614.92 493.08 618.44 491.33 C 619.36 486.77 618.60 481.17 615.17 477.78 C 607.90 472.57 598.58 472.12 590.00 471.12 C 585.32 470.58 583.67 465.31 579.79 463.39 C 578.12 466.75 581.23 470.15 583.34 472.54 C 586.38 476.07 591.31 475.72 595.51 475.81 C 595.68 482.99 602.85 486.22 608.22 489.27 C 606.57 490.44 605.05 491.78 603.65 493.24 C 598.77 491.60 593.97 489.66 588.90 488.63 C 585.46 487.82 581.53 486.19 580.34 482.55 C 578.68 477.68 579.33 472.09 576.27 467.70 C 570.26 458.04 559.24 453.56 549.62 448.39 C 540.49 443.20 529.85 439.30 523.83 430.14 C 516.21 418.65 509.43 406.44 505.55 393.14 Z" />
		<path fill="#f0b58b" opacity="1.00"
			d=" M 218.50 633.81 C 223.73 640.42 229.27 646.88 235.90 652.14 C 242.12 657.05 248.38 662.17 255.83 665.10 C 262.78 668.03 270.39 668.60 277.59 670.63 C 289.33 673.75 300.72 678.53 310.75 685.42 C 306.84 693.53 302.88 701.98 296.05 708.10 C 291.41 712.38 285.13 714.33 280.53 718.67 C 278.00 720.96 277.31 724.45 276.24 727.54 C 275.57 723.81 275.27 719.90 273.61 716.46 C 271.41 715.03 271.65 718.56 271.35 719.89 C 271.69 728.55 273.98 737.04 276.38 745.32 C 261.89 736.24 243.99 732.90 227.11 735.10 C 221.82 735.72 216.56 736.62 211.41 737.99 C 209.64 725.71 207.63 713.40 207.40 700.98 C 207.18 696.49 208.50 692.17 209.47 687.85 C 211.69 677.98 211.32 667.79 212.91 657.83 C 214.19 649.70 216.05 641.66 218.50 633.81 Z" />
		<path fill="#f0b58b" opacity="1.00"
			d=" M 484.15 651.47 C 493.55 649.15 503.30 648.05 512.93 649.52 C 517.14 658.53 522.69 666.82 527.52 675.49 C 528.73 677.45 528.48 679.82 528.48 682.03 C 528.25 689.10 529.35 696.16 531.01 703.02 C 534.34 713.93 540.07 723.99 546.88 733.09 C 550.67 737.99 555.84 741.66 561.68 743.71 C 555.14 750.27 549.94 757.95 544.22 765.18 C 540.13 769.78 534.69 775.28 527.90 773.60 C 520.85 771.90 514.15 768.80 507.95 765.07 C 498.93 759.76 489.09 755.79 480.88 749.18 C 468.73 740.24 463.35 725.58 456.09 712.94 C 449.90 702.55 444.93 691.48 438.64 681.16 C 442.03 679.60 445.56 677.92 447.88 674.88 C 451.25 670.59 454.06 665.74 458.46 662.35 C 465.62 656.01 475.15 653.83 484.15 651.47 Z" />
	</g>
	<g id="#f11b27ff">
		<path fill="var(--shirt-color, grey)" opacity="1.00"
			d=" M 310.97 197.04 C 313.94 201.76 316.62 206.66 319.79 211.25 C 323.83 216.85 328.73 221.81 334.30 225.89 C 334.70 238.58 334.03 251.29 334.77 263.96 C 334.71 265.95 335.93 267.56 336.99 269.12 C 338.33 264.52 338.30 259.69 338.38 254.95 C 338.46 246.44 338.94 237.91 338.27 229.41 C 346.43 234.85 355.37 239.03 363.40 244.67 C 373.31 251.25 382.79 258.48 391.76 266.30 C 393.64 267.96 395.63 269.51 397.78 270.81 C 396.85 266.20 392.99 263.30 389.75 260.28 C 379.85 251.15 368.90 243.22 357.52 236.05 C 365.00 237.47 372.40 239.37 379.95 240.39 C 387.72 240.85 395.74 240.79 403.03 243.94 C 410.80 246.62 417.73 251.84 421.90 259.00 C 430.24 272.88 434.98 288.79 436.71 304.85 C 438.79 319.18 438.92 333.92 436.09 348.14 C 429.69 361.79 422.70 376.03 423.13 391.50 C 421.06 387.61 419.44 383.43 416.85 379.84 C 414.63 378.06 413.68 381.39 414.93 382.87 C 419.21 392.38 423.42 401.94 427.27 411.64 C 430.52 420.41 432.28 429.87 431.20 439.23 C 424.16 436.40 416.57 435.68 409.16 434.42 C 399.12 432.18 390.26 426.22 383.04 419.05 C 380.17 416.34 378.18 412.56 374.32 411.07 C 376.17 416.78 380.34 421.28 384.61 425.31 C 391.50 431.64 399.86 436.69 409.12 438.50 C 418.71 440.20 429.27 441.30 436.71 448.29 C 445.57 455.76 447.99 467.92 455.80 476.23 C 462.30 482.85 470.05 488.03 477.58 493.38 C 482.56 497.35 487.85 502.02 489.43 508.45 C 490.24 511.24 488.24 513.63 487.03 515.93 C 484.67 507.27 475.23 503.39 467.10 502.35 C 451.06 501.01 435.15 505.47 420.37 511.34 C 410.33 515.15 401.06 520.80 390.73 523.85 C 379.30 527.53 368.11 532.40 356.08 533.80 C 346.78 534.89 337.39 536.08 328.01 535.20 C 317.05 534.33 305.73 533.59 295.06 536.82 C 291.59 537.90 287.95 538.27 284.34 538.32 C 280.86 527.31 277.36 516.27 275.44 504.85 C 273.67 495.32 273.45 485.61 272.01 476.03 C 271.07 466.91 268.41 457.64 270.69 448.50 C 272.45 441.57 273.76 433.99 270.80 427.18 C 269.65 432.34 269.85 437.69 268.83 442.88 C 266.05 424.64 263.22 406.40 261.82 387.99 C 259.64 369.41 258.52 350.70 258.72 331.99 C 258.73 312.92 261.76 293.83 268.53 275.96 C 268.07 285.17 270.18 294.16 272.26 303.05 C 272.60 304.08 273.05 305.07 273.59 306.02 C 274.57 298.97 272.28 292.04 272.37 285.01 C 272.52 274.65 272.83 264.25 271.79 253.93 C 270.97 245.92 267.32 238.62 263.81 231.51 C 274.47 233.60 286.40 232.90 295.54 226.50 C 304.58 219.46 310.96 208.71 310.97 197.04 Z" />
		<path fill="var(--shirt-color, grey)" opacity="1.00"
			d=" M 261.49 226.54 C 261.64 222.93 262.86 219.51 264.33 216.25 C 267.29 219.98 270.11 223.84 272.36 228.05 C 268.70 227.83 265.08 227.27 261.49 226.54 Z" />
		<path fill="var(--shirt-color, grey)" opacity="1.00"
			d=" M 363.32 232.26 C 367.04 231.23 370.50 229.48 374.16 228.30 C 375.78 227.67 377.51 228.21 378.90 229.13 C 382.22 231.20 385.25 233.69 388.46 235.92 C 379.90 236.18 371.63 233.90 363.32 232.26 Z" />
		<path fill="var(--shirt-color, grey)" opacity="1.00"
			d=" M 430.50 263.07 C 437.95 266.09 446.00 267.35 453.36 270.64 C 462.12 274.18 470.00 279.76 476.19 286.89 C 482.64 294.36 489.11 301.82 495.97 308.92 C 500.75 313.82 504.97 319.26 509.99 323.93 C 520.25 333.86 531.66 342.45 542.73 351.43 C 535.73 355.30 530.41 361.42 525.48 367.57 C 519.32 375.59 512.27 383.08 503.89 388.81 C 499.07 392.09 492.52 391.14 487.73 388.30 C 481.92 384.41 478.68 378.00 474.29 372.76 C 469.89 366.96 463.67 362.93 457.13 359.92 C 451.05 357.12 445.50 353.35 440.21 349.28 C 445.03 339.93 450.07 330.67 456.03 321.99 C 458.14 318.88 460.57 315.98 462.39 312.67 C 460.31 313.23 458.35 314.22 456.98 315.94 C 451.35 322.38 446.51 329.51 442.41 337.03 C 444.27 321.68 442.56 306.18 439.91 291.03 C 437.70 281.44 434.94 271.89 430.50 263.07 Z" />
		<path fill="var(--shirt-color, grey)" opacity="1.00"
			d=" M 455.08 506.79 C 463.40 505.85 472.61 506.09 479.59 511.31 C 481.97 512.85 482.89 515.63 483.90 518.13 C 477.24 520.44 469.94 522.76 465.88 529.00 C 460.59 522.53 457.45 514.72 455.08 506.79 Z" />
	</g>
	<g id="#2b3dcdff">
		<path fill="var(--pants-color, grey)" opacity="1.00"
			d=" M 414.95 518.90 C 426.68 513.70 438.80 509.09 451.56 507.25 C 452.88 513.23 454.26 519.31 457.32 524.68 C 462.88 535.33 472.94 542.40 480.86 551.12 C 489.75 561.53 495.35 574.19 500.19 586.87 C 504.92 597.87 508.28 609.47 514.19 619.95 C 517.04 624.96 519.59 630.21 523.26 634.71 C 527.01 638.98 530.03 643.87 531.69 649.34 C 522.71 646.55 513.36 645.02 503.96 644.64 C 496.37 644.38 488.85 645.90 481.50 647.64 C 472.05 650.19 462.23 653.08 454.73 659.70 C 451.02 662.71 448.46 666.78 445.69 670.60 C 441.49 676.74 433.61 677.97 427.28 680.90 C 422.31 676.09 419.00 669.82 413.62 665.40 C 408.94 661.02 403.19 658.09 397.42 655.47 C 387.43 650.89 379.28 643.05 373.12 634.06 C 366.81 638.66 361.04 643.96 355.40 649.35 C 349.01 655.34 345.48 663.52 340.49 670.58 C 335.29 678.27 328.16 684.82 319.52 688.42 C 316.85 684.49 313.46 681.07 309.40 678.60 C 300.07 672.71 289.72 668.58 279.12 665.62 C 270.87 663.25 262.05 662.69 254.29 658.79 C 247.84 655.49 242.11 650.97 236.52 646.42 C 226.85 638.40 220.13 627.66 212.35 617.96 C 218.02 612.66 222.56 606.33 227.13 600.10 C 234.34 590.13 238.24 577.91 247.06 569.10 C 251.91 563.85 259.13 562.02 264.60 557.60 C 269.20 554.29 272.38 549.39 277.01 546.14 C 281.63 543.78 286.83 542.91 291.91 542.10 C 295.93 541.38 299.79 539.90 303.87 539.42 C 312.53 538.35 321.27 539.27 329.93 539.95 C 339.37 540.80 348.80 539.36 358.16 538.27 C 378.15 535.42 396.32 526.10 414.95 518.90 Z" />
		<path fill="var(--socks-color, grey)" opacity="1.00"
			d=" M 607.62 618.82 C 612.66 620.81 617.69 623.73 620.64 628.43 C 623.01 632.97 623.85 638.18 626.47 642.62 C 629.61 648.66 634.76 653.27 640.21 657.19 C 630.12 665.08 621.83 674.93 614.09 685.07 C 609.73 691.13 606.00 697.61 601.59 703.63 C 590.94 717.55 577.84 729.28 564.69 740.76 C 559.00 738.43 553.87 734.74 550.24 729.74 C 544.05 721.08 538.47 711.78 535.44 701.51 C 533.97 695.47 532.93 689.28 532.84 683.07 C 532.67 678.06 535.51 673.75 537.39 669.32 C 542.90 657.67 553.10 647.40 566.09 644.81 C 575.31 642.59 585.78 641.78 592.88 634.76 C 596.20 631.75 597.44 627.31 598.34 623.08 C 600.37 622.90 602.54 623.18 604.46 622.38 C 605.66 621.34 606.59 620.02 607.62 618.82 Z" />
		<path fill="var(--socks-color, grey)" opacity="1.00"
			d=" M 518.00 649.98 C 522.86 650.82 527.70 651.77 532.51 652.93 C 531.43 656.97 528.21 659.59 524.62 661.40 C 522.40 657.60 520.20 653.78 518.00 649.98 Z" />
		<path fill="var(--socks-color, grey)" opacity="1.00"
			d=" M 212.12 742.36 C 218.95 740.77 225.90 739.76 232.87 739.12 C 244.09 737.96 255.24 740.81 265.84 744.18 C 270.13 745.82 274.91 747.27 278.02 750.81 C 281.73 761.41 283.09 772.77 282.95 783.98 C 282.94 797.63 281.87 811.27 280.28 824.83 C 276.76 845.08 269.25 864.33 264.03 884.15 C 261.61 894.01 259.21 903.90 257.94 913.98 C 257.38 918.24 257.58 922.56 258.22 926.81 C 251.34 926.22 244.22 926.39 237.64 928.69 C 232.54 930.45 228.25 933.81 223.80 936.75 C 216.57 932.17 210.98 925.35 208.00 917.32 C 211.11 915.86 214.46 914.98 217.54 913.47 C 221.16 911.44 221.84 906.81 221.41 903.05 C 220.47 894.03 217.61 885.37 215.69 876.55 C 212.33 861.11 207.30 845.98 205.82 830.18 C 203.05 813.26 206.83 796.30 208.81 779.52 C 211.05 767.25 211.59 754.79 212.12 742.36 Z" />
	</g>
	<g id="#4d4d4dff">
		<path fill="#4d4d4d" opacity="1.00"
			d=" M 602.24 572.26 C 606.81 570.77 611.79 571.48 616.34 572.71 C 624.98 575.45 631.64 581.93 638.43 587.64 C 646.42 594.60 655.87 599.81 665.99 602.94 C 678.98 607.23 691.70 613.74 700.64 624.36 C 707.86 633.22 709.47 645.07 710.62 656.07 C 711.69 665.34 702.08 673.77 693.04 671.91 C 690.83 671.52 689.06 670.03 687.51 668.53 C 682.40 663.48 678.97 657.10 674.63 651.44 C 665.99 640.15 655.49 630.41 644.26 621.75 C 636.15 615.02 626.92 609.85 618.70 603.29 C 612.39 598.34 605.77 593.49 601.19 586.79 C 599.28 583.95 597.14 580.81 597.39 577.24 C 597.88 574.83 600.08 573.14 602.24 572.26 Z" />
		<path fill="#4d4d4d" opacity="1.00"
			d=" M 593.32 584.19 C 596.17 588.73 599.02 593.35 602.93 597.08 C 612.84 606.37 624.17 613.94 635.40 621.52 C 650.29 632.47 664.44 644.95 674.83 660.37 C 664.82 656.78 654.32 652.74 643.48 654.46 C 637.96 650.80 632.68 646.34 629.73 640.29 C 626.81 634.75 626.37 627.89 621.74 623.33 C 617.91 619.60 613.36 616.08 607.98 615.18 C 604.18 614.24 603.06 620.49 599.18 618.93 C 595.79 613.93 595.25 607.67 593.85 601.94 C 592.42 596.12 592.30 590.09 593.32 584.19 Z" />
		<path fill="#4d4d4d" opacity="1.00"
			d=" M 164.92 909.89 C 168.59 906.37 174.35 906.16 178.94 907.84 C 189.01 911.63 199.91 909.48 210.36 910.88 C 208.08 912.53 203.69 913.45 204.24 917.07 C 205.21 924.47 209.67 931.04 214.96 936.13 C 217.77 938.58 221.01 941.41 224.97 941.28 C 229.26 940.46 232.59 937.42 236.34 935.40 C 243.34 931.34 251.84 930.93 259.67 932.18 C 264.34 946.58 266.84 962.01 264.19 977.07 C 263.38 980.84 262.32 984.81 259.70 987.77 C 257.57 990.15 254.00 989.37 251.28 988.69 C 243.76 986.28 237.29 981.58 230.83 977.19 C 221.81 970.98 212.45 965.24 202.59 960.46 C 195.24 957.12 187.98 953.39 181.70 948.27 C 173.10 941.39 166.38 931.78 164.11 920.90 C 163.45 917.28 163.09 913.22 164.92 909.89 Z" />
	</g>
</svg>