<?xml version="1.0" encoding="UTF-8" ?>
<!DOCTYPE svg PUBLIC "-//W3C//DTD SVG 1.1//EN" "http://www.w3.org/Graphics/SVG/1.1/DTD/svg11.dtd">
<svg width="1000pt" height="1000pt" viewBox="0 0 1000 1000" version="1.1" xmlns="http://www.w3.org/2000/svg">
	<g id="#020202ff">
		<path fill="#020202" opacity="1.00"
			d=" M 334.71 17.73 C 346.61 9.72 360.35 3.23 375.02 3.75 C 391.91 4.26 409.25 10.56 421.06 22.93 C 434.77 38.66 444.04 58.32 446.90 79.03 C 447.62 86.46 447.15 94.52 442.92 100.93 C 441.37 103.81 438.42 106.45 439.21 110.04 C 440.03 114.33 442.64 117.98 444.33 121.94 C 458.16 121.61 472.52 120.34 485.78 125.23 C 491.79 127.34 496.42 131.84 501.33 135.71 C 507.54 140.05 513.41 144.88 518.93 150.08 C 525.93 156.71 530.89 165.08 535.78 173.30 C 541.01 182.19 546.53 190.91 552.80 199.09 C 560.85 209.84 568.44 221.59 570.45 235.14 C 571.99 247.40 571.82 259.97 575.37 271.91 C 578.29 282.43 582.48 292.52 586.21 302.76 C 588.17 308.31 588.03 314.29 589.14 320.03 C 590.24 333.21 594.00 345.93 597.63 358.59 C 603.38 377.62 610.84 396.16 620.14 413.75 C 625.72 425.15 631.77 437.03 631.83 450.03 C 632.11 453.73 630.34 457.27 630.97 460.99 C 633.42 489.02 623.88 517.15 607.85 539.92 C 603.18 547.10 596.24 552.35 591.19 559.20 C 586.65 566.03 583.71 574.00 577.85 579.91 C 573.99 583.70 569.96 587.31 565.99 590.98 C 560.98 595.66 557.60 601.80 555.15 608.14 C 551.07 618.59 548.35 629.49 545.16 640.23 C 543.20 646.57 542.40 653.35 539.18 659.25 C 538.37 660.74 536.85 662.11 535.03 661.87 C 530.89 661.57 527.08 659.74 523.47 657.84 C 520.92 666.95 517.24 675.71 513.41 684.35 C 510.31 692.01 507.25 699.83 502.34 706.55 C 501.04 708.08 499.33 710.03 497.08 709.47 C 491.04 708.27 485.05 706.81 478.98 705.76 C 480.73 714.71 481.40 723.96 480.17 733.02 C 495.86 745.21 512.35 756.42 527.01 769.90 C 540.07 781.95 553.95 793.07 567.70 804.31 C 581.99 816.77 598.58 826.07 614.14 836.77 C 616.71 838.25 619.40 840.72 622.59 839.88 C 637.89 838.00 655.13 838.23 667.79 848.27 C 674.70 852.64 678.75 860.82 678.49 868.94 C 678.29 881.23 675.01 894.22 666.22 903.26 C 659.80 909.66 657.61 918.78 654.87 927.12 C 651.49 939.25 645.91 950.65 639.36 961.36 C 634.97 967.82 630.31 974.54 623.40 978.54 C 617.29 982.32 610.25 984.95 603.00 984.91 C 596.41 984.91 589.75 981.00 587.17 974.82 C 585.02 969.87 585.35 964.34 585.63 959.08 C 587.71 935.19 591.45 911.33 590.71 887.29 C 587.84 884.73 584.82 882.29 581.29 880.70 C 573.37 876.92 566.21 871.80 558.66 867.37 C 547.58 860.97 536.61 854.33 525.04 848.82 C 511.32 842.34 497.66 835.73 483.75 829.68 C 482.84 839.93 480.37 849.96 478.15 859.99 C 475.42 873.78 471.58 887.32 468.52 901.03 C 465.70 914.53 469.55 928.10 473.25 941.02 C 476.41 955.35 476.69 971.00 470.62 984.62 C 466.84 993.11 456.50 996.39 447.88 994.85 C 440.31 993.32 433.31 989.54 427.30 984.76 C 422.02 980.60 418.29 974.92 414.57 969.41 C 412.09 965.50 407.73 963.57 404.23 960.77 C 398.46 956.36 394.50 950.06 391.40 943.60 C 386.33 932.33 394.45 917.16 406.92 915.90 C 413.47 915.21 418.61 919.86 422.93 924.11 C 423.28 900.71 421.68 877.36 420.27 854.02 C 419.01 833.60 416.93 813.25 414.22 792.97 C 402.24 786.22 392.85 775.88 381.00 768.98 C 370.04 762.94 357.48 759.38 347.92 751.02 C 341.58 745.49 338.05 737.39 337.28 729.11 C 334.79 712.56 338.26 695.87 343.40 680.17 C 347.20 668.67 352.40 657.63 355.34 645.86 C 356.81 633.12 361.50 621.10 366.25 609.29 C 372.13 592.87 378.45 576.60 385.70 560.73 C 388.26 555.02 391.07 549.40 393.29 543.55 C 395.33 536.81 395.99 529.61 399.12 523.23 C 400.83 519.77 404.44 517.86 406.46 514.65 C 408.12 510.97 407.97 506.81 409.08 502.98 C 410.55 496.82 414.06 491.35 418.40 486.82 C 417.12 486.72 415.85 486.57 414.60 486.37 C 413.48 484.74 414.89 482.93 415.35 481.33 C 417.88 475.50 419.95 469.41 420.39 463.02 C 421.36 455.32 419.70 446.46 425.08 440.03 C 428.22 435.38 434.05 432.08 434.37 425.95 C 435.19 417.04 431.46 408.57 431.07 399.72 C 416.39 412.08 400.43 422.77 384.63 433.61 C 379.72 437.11 373.87 439.25 369.37 443.30 C 367.30 449.27 366.41 455.58 364.37 461.57 C 359.14 477.19 352.03 492.58 340.73 504.77 C 337.37 508.16 333.06 511.94 327.90 510.95 C 325.23 510.69 323.10 508.96 321.68 506.79 C 318.87 506.97 315.52 507.98 313.23 505.76 C 311.69 504.44 312.00 502.25 311.83 500.46 C 309.20 501.51 305.73 502.87 303.30 500.73 C 301.48 499.17 301.62 496.67 301.71 494.51 C 298.59 496.05 294.51 494.63 293.76 491.05 C 292.62 485.64 295.87 480.57 297.68 475.67 C 295.79 472.84 293.07 470.35 292.28 466.93 C 291.74 462.46 293.38 458.09 295.05 454.02 C 298.61 446.17 302.69 438.17 309.44 432.57 C 315.05 428.06 321.54 424.54 328.53 422.71 C 331.35 421.97 334.50 422.77 337.10 421.20 C 354.37 412.24 366.81 396.84 379.31 382.41 C 387.05 373.60 392.26 363.00 397.71 352.72 C 400.19 347.95 403.67 343.80 407.73 340.30 C 402.47 331.07 398.19 321.32 394.73 311.29 C 388.91 294.39 383.43 277.33 379.53 259.87 C 377.41 250.03 375.22 240.07 375.36 229.95 C 376.07 209.57 374.28 189.21 372.17 168.97 C 364.04 163.59 357.11 156.47 351.66 148.40 C 343.64 136.21 336.51 123.37 331.44 109.66 C 328.88 102.03 324.92 94.98 322.47 87.32 C 321.83 84.59 319.00 83.58 317.18 81.80 C 315.20 79.74 314.95 76.72 314.86 74.02 C 314.79 67.66 314.80 61.29 315.34 54.94 C 315.85 47.88 315.83 40.48 318.88 33.93 C 322.01 26.81 328.52 22.04 334.71 17.73 M 325.92 84.74 C 328.58 92.02 332.16 98.91 334.80 106.19 C 339.37 118.30 345.42 129.79 352.22 140.78 C 357.19 149.56 363.98 157.15 371.58 163.74 C 372.93 155.65 378.13 148.32 385.31 144.36 C 394.72 138.54 405.82 136.16 415.02 129.96 C 422.36 124.89 431.27 122.69 440.09 122.30 C 438.01 119.07 436.07 115.70 435.02 111.97 C 427.31 119.44 416.77 122.94 406.52 125.27 C 397.53 127.06 387.78 127.41 379.15 123.94 C 375.41 122.68 373.12 118.87 372.97 115.04 C 372.65 109.41 374.04 103.68 372.51 98.12 C 371.44 92.87 367.59 87.67 362.03 86.83 C 358.20 86.58 357.71 91.06 357.22 93.85 C 355.59 104.46 353.52 116.30 344.96 123.65 C 344.44 123.25 343.42 122.44 342.91 122.04 C 342.20 115.65 340.84 109.32 338.52 103.32 C 336.14 96.61 332.25 90.61 328.77 84.44 C 328.06 84.52 326.64 84.67 325.92 84.74 M 428.08 128.78 C 420.79 130.99 415.00 136.22 407.98 139.03 C 400.00 142.34 391.58 145.21 384.88 150.87 C 380.65 155.18 376.10 160.47 376.65 166.95 C 377.45 177.67 378.99 188.34 379.36 199.10 C 379.38 203.97 381.83 208.32 383.26 212.86 C 387.37 224.53 393.02 235.58 397.23 247.21 C 397.65 237.79 398.03 228.37 398.51 218.96 C 398.85 213.90 397.19 208.64 398.94 203.74 C 400.15 204.32 401.09 205.32 401.28 206.70 C 403.75 215.94 403.33 225.57 403.36 235.03 C 403.28 243.64 401.63 252.44 403.95 260.90 C 405.94 268.51 410.33 275.15 413.98 282.03 C 424.10 268.88 437.48 258.02 453.06 252.06 C 464.86 247.26 478.12 246.19 490.54 248.95 C 486.37 240.43 484.23 231.15 482.03 221.99 C 479.41 209.87 476.66 197.56 477.60 185.07 C 478.21 178.40 478.55 171.62 480.37 165.14 C 480.55 163.62 481.85 162.94 483.19 162.58 C 484.25 166.68 483.22 170.89 483.03 175.03 C 482.22 182.86 481.75 190.74 482.27 198.61 C 483.65 193.05 486.62 187.81 491.13 184.21 C 492.65 183.74 493.53 185.62 492.86 186.83 C 491.43 190.34 488.72 193.24 487.85 197.00 C 483.38 211.08 487.24 225.96 491.23 239.66 C 492.31 244.11 494.93 248.19 494.99 252.85 C 492.40 252.81 489.81 252.60 487.25 252.27 C 489.35 259.37 490.66 266.67 492.28 273.89 C 498.28 260.04 502.20 245.40 505.72 230.76 C 507.63 223.02 507.86 214.99 509.26 207.18 C 509.66 205.22 512.50 206.09 512.26 207.91 C 512.94 217.38 511.61 226.88 509.44 236.09 C 506.51 248.76 502.74 261.31 497.15 273.07 C 496.13 275.13 494.71 276.95 493.30 278.75 C 495.75 291.77 498.49 304.81 499.35 318.05 C 499.98 325.51 497.94 333.30 493.08 339.07 C 475.15 359.30 455.99 378.45 435.44 396.01 C 435.62 405.90 439.28 415.37 438.86 425.27 C 448.89 416.87 458.32 407.72 466.70 397.66 C 472.85 390.46 479.27 383.49 484.84 375.81 C 487.23 372.75 489.19 369.26 492.39 366.92 C 493.52 369.87 491.23 372.44 489.86 374.84 C 483.88 383.76 477.45 392.39 470.76 400.79 C 461.22 412.24 450.21 422.60 437.80 430.87 C 434.87 436.13 429.92 439.92 427.19 445.29 C 424.85 451.27 426.48 457.86 425.49 464.07 C 424.99 470.23 422.92 476.10 420.09 481.56 C 428.74 479.58 437.07 476.51 445.36 473.40 C 465.15 465.53 484.92 457.54 505.26 451.14 C 525.02 445.30 545.41 441.43 565.99 440.15 C 586.86 438.61 607.79 442.11 627.65 448.42 C 625.55 430.24 614.20 415.16 607.34 398.65 C 597.86 376.44 590.18 353.33 586.09 329.49 C 580.79 351.35 574.20 373.25 562.90 392.84 C 561.20 394.97 559.94 399.07 556.54 398.37 C 557.09 397.00 557.67 395.66 558.34 394.35 C 568.42 375.66 575.48 355.46 580.59 334.88 C 582.77 325.48 585.44 315.56 582.92 305.96 C 577.58 290.20 569.90 274.95 568.44 258.13 C 566.97 247.44 567.91 236.27 563.87 226.07 C 559.55 214.10 551.01 204.45 543.88 194.13 C 536.40 183.42 530.78 171.53 523.15 160.92 C 515.99 151.66 506.18 144.99 497.01 137.92 C 492.44 133.47 486.76 130.26 480.78 128.14 C 470.38 125.74 459.62 126.56 449.04 126.57 C 442.03 126.88 434.82 126.56 428.08 128.78 M 379.95 218.40 C 378.53 236.80 383.33 254.82 387.60 272.55 C 391.39 286.93 395.83 301.14 400.88 315.13 C 403.64 322.79 407.18 330.15 411.21 337.22 C 418.46 330.44 423.96 321.95 428.10 312.98 C 427.78 303.19 421.48 295.13 416.57 287.12 C 415.89 287.53 414.54 288.36 413.87 288.77 C 412.09 287.31 410.47 285.67 409.24 283.73 C 404.98 277.32 401.31 270.47 398.88 263.15 C 393.02 248.04 385.77 233.52 379.95 218.40 M 464.12 253.40 C 446.50 257.70 430.98 268.68 419.70 282.73 C 425.49 288.89 429.49 296.61 431.96 304.66 C 433.87 299.62 435.11 294.32 437.49 289.47 C 437.74 288.18 439.77 287.57 440.35 288.96 C 439.35 297.52 436.11 305.64 432.41 313.37 C 427.70 322.84 422.06 332.04 414.41 339.44 C 410.98 343.02 406.81 345.91 403.93 350.00 C 399.76 355.81 397.50 362.69 393.61 368.66 C 386.69 381.18 376.70 391.56 367.27 402.18 C 359.54 410.80 350.69 418.61 340.23 423.73 C 342.95 425.02 345.66 426.62 347.11 429.39 C 341.27 428.55 335.39 426.22 329.45 427.56 C 322.34 429.50 315.76 433.35 310.46 438.45 C 304.73 444.56 301.04 452.30 297.95 460.00 C 296.27 463.87 296.97 468.29 299.83 471.40 C 303.59 464.81 306.16 457.64 307.27 450.13 C 308.53 450.06 310.61 450.12 310.43 451.97 C 310.87 455.03 310.40 458.18 309.39 461.09 C 306.32 470.07 300.45 477.84 297.87 487.02 C 297.17 488.63 297.82 490.31 298.90 491.57 C 302.46 490.53 304.67 487.62 306.75 484.78 C 307.72 483.02 310.29 484.09 310.20 485.93 C 308.67 489.96 305.66 493.55 305.75 498.07 C 310.04 498.19 313.90 495.62 316.04 492.00 C 316.64 490.13 319.84 489.62 319.89 492.12 C 319.03 495.95 316.12 499.07 315.93 503.11 C 318.48 503.24 321.05 503.06 323.59 503.43 C 325.16 504.36 325.71 506.79 327.89 506.79 C 331.97 507.80 334.96 504.08 337.55 501.55 C 351.32 486.16 359.22 466.36 363.65 446.40 C 365.10 440.00 370.97 436.27 376.34 433.33 C 384.24 428.71 391.54 423.18 399.18 418.16 C 431.37 396.39 459.51 369.28 485.79 340.81 C 488.33 337.98 491.51 335.43 492.56 331.61 C 494.54 326.67 494.79 321.30 494.50 316.05 C 493.03 294.33 487.41 273.22 483.48 251.89 C 477.00 251.69 470.46 251.90 464.12 253.40 M 517.85 452.57 C 499.95 457.23 482.69 463.98 465.42 470.51 C 451.96 476.05 438.40 481.45 424.44 485.58 C 418.82 491.45 414.27 498.82 413.09 506.99 C 412.48 510.23 412.26 513.67 410.68 516.64 C 408.84 520.01 405.22 521.87 403.13 525.04 C 401.25 528.37 400.60 532.20 399.61 535.85 C 398.14 542.40 395.05 548.41 392.67 554.65 C 386.06 569.93 379.42 585.20 373.79 600.87 C 368.39 616.64 360.53 631.91 359.35 648.80 C 366.18 654.92 372.22 661.93 379.53 667.52 C 392.55 677.89 407.73 685.29 423.56 690.31 C 420.14 690.15 416.64 690.57 413.68 692.40 C 391.87 684.60 372.03 671.08 357.62 652.84 C 355.15 662.41 351.01 671.42 347.80 680.75 C 341.81 698.04 338.45 716.95 342.98 735.00 C 345.09 743.08 351.36 749.56 358.68 753.28 C 367.82 758.58 378.09 761.73 386.91 767.58 C 388.22 756.71 392.27 746.31 398.08 737.07 C 405.66 724.77 417.50 715.62 430.56 709.74 C 432.58 709.68 434.62 709.77 436.02 711.43 C 426.06 716.00 416.77 722.26 409.49 730.52 C 399.48 741.55 393.64 755.85 391.49 770.49 C 425.78 795.67 463.95 814.96 502.60 832.48 C 516.31 839.39 530.50 845.39 543.69 853.30 C 554.31 859.64 565.13 865.65 575.46 872.49 C 582.25 877.06 590.19 880.00 595.99 885.96 C 602.99 885.96 610.47 885.36 616.52 881.50 C 621.56 878.31 623.77 871.61 621.94 865.98 C 619.91 858.84 616.27 851.90 616.91 844.27 C 606.53 837.60 596.21 830.85 585.96 823.98 C 572.85 815.39 561.26 804.78 548.98 795.08 C 533.03 782.40 518.84 767.64 502.43 755.52 C 491.68 747.63 481.34 739.21 470.33 731.69 C 473.04 731.44 475.40 732.93 477.75 734.05 C 478.55 728.02 479.48 721.88 478.45 715.82 C 478.05 713.12 477.13 710.51 476.89 707.80 C 477.33 706.29 478.35 705.03 479.12 703.69 C 477.29 702.63 475.30 701.93 473.26 701.40 C 473.73 701.14 474.66 700.63 475.12 700.38 C 483.08 701.71 491.00 703.30 498.82 705.32 C 504.34 696.30 507.63 686.18 511.51 676.40 C 515.13 666.05 520.38 656.14 521.78 645.13 C 523.82 631.88 526.69 618.76 530.86 606.01 C 533.06 599.58 537.15 594.05 539.82 587.84 C 543.41 580.37 545.83 572.43 547.57 564.35 C 540.84 567.83 534.05 571.33 526.90 573.85 C 524.13 574.91 523.07 570.56 525.74 569.86 C 538.19 564.08 550.71 558.08 561.54 549.52 C 568.40 544.46 573.67 537.67 579.35 531.39 C 581.11 529.63 582.37 526.75 585.17 526.57 C 584.80 529.02 583.65 531.23 582.22 533.23 C 573.97 544.89 563.44 554.96 551.16 562.31 C 549.63 572.30 547.83 582.43 543.46 591.63 C 541.43 596.36 538.53 600.64 536.49 605.37 C 530.51 621.15 527.53 637.81 524.27 654.30 C 527.76 655.74 531.29 657.15 535.04 657.81 C 537.85 651.99 538.82 645.58 540.61 639.42 C 544.72 625.66 547.91 611.46 554.49 598.60 C 558.76 590.19 566.52 584.59 573.16 578.20 C 579.03 573.00 582.07 565.58 586.05 559.01 C 590.49 551.63 597.80 546.64 602.70 539.63 C 615.93 521.52 624.90 499.89 626.58 477.41 C 627.22 468.70 626.48 459.97 625.56 451.31 C 609.26 447.92 592.81 444.44 576.07 444.62 C 556.43 444.91 536.89 447.83 517.85 452.57 M 418.84 795.90 C 423.42 828.08 424.95 860.58 426.42 893.02 C 426.65 904.18 427.34 915.43 425.67 926.51 C 429.33 928.90 433.66 929.85 437.92 930.51 C 447.03 931.86 456.87 932.76 465.28 928.20 C 462.97 917.71 462.64 906.71 465.12 896.22 C 468.23 883.23 471.36 870.25 474.13 857.19 C 476.31 847.48 478.62 837.76 479.68 827.85 C 458.91 818.19 438.61 807.47 418.84 795.90 M 622.61 845.15 C 622.92 853.10 627.12 860.20 628.15 868.02 C 629.07 875.37 624.83 882.92 618.23 886.20 C 611.23 889.60 603.21 890.30 595.55 889.56 C 596.50 905.16 595.22 920.80 593.29 936.28 C 592.29 946.80 589.56 957.27 590.51 967.90 C 591.02 973.71 595.12 979.31 601.02 980.47 C 609.01 981.18 616.82 977.85 623.14 973.16 C 628.48 969.78 631.54 964.04 635.11 959.04 C 641.38 948.76 647.05 937.96 650.28 926.32 C 653.21 917.04 655.84 907.03 663.02 900.01 C 668.47 894.48 671.40 887.01 672.71 879.47 C 673.97 872.15 675.06 863.88 670.71 857.34 C 667.29 853.27 662.79 850.11 657.89 848.09 C 646.73 843.56 634.37 844.19 622.61 845.15 M 394.27 940.76 C 397.83 948.94 404.33 955.70 412.21 959.85 C 417.50 962.50 420.16 967.93 423.29 972.63 C 428.16 980.21 435.86 985.74 444.29 988.73 C 450.52 990.93 458.39 991.07 463.68 986.64 C 467.29 982.31 469.02 976.69 470.23 971.27 C 472.03 958.10 470.25 944.65 466.38 932.00 C 460.77 935.07 454.35 936.37 447.98 936.04 C 440.32 935.67 432.32 935.20 425.32 931.80 C 418.98 928.83 415.70 920.72 408.01 920.55 C 398.47 920.71 391.58 931.94 394.27 940.76 Z" />
		<path fill="#020202" opacity="1.00"
			d=" M 551.48 289.42 C 552.55 288.51 554.13 289.56 553.73 290.95 C 552.58 299.64 549.15 307.82 546.11 315.98 C 533.35 348.12 521.00 380.62 503.79 410.70 C 497.30 421.54 490.15 432.29 480.66 440.73 C 479.55 442.46 476.04 441.80 477.48 439.54 C 485.12 430.61 492.29 421.20 498.19 411.01 C 506.09 397.81 512.45 383.78 518.89 369.84 C 528.27 348.23 537.27 326.45 545.68 304.44 C 547.73 299.49 548.84 294.10 551.48 289.42 Z" />
		<path fill="#020202" opacity="1.00"
			d=" M 583.02 371.00 C 584.86 366.84 585.36 361.69 589.13 358.71 C 589.49 363.44 587.55 367.87 586.25 372.32 C 582.62 383.79 578.08 394.94 572.92 405.80 C 581.27 398.02 592.48 393.08 603.98 393.22 C 604.13 395.41 601.71 395.73 600.18 396.41 C 594.91 398.21 589.51 399.87 584.76 402.85 C 577.56 407.44 571.62 413.70 566.29 420.31 C 565.31 422.49 561.68 421.64 562.27 419.13 C 569.48 403.22 577.42 387.59 583.02 371.00 Z" />
	</g>
	<g id="#f0b58bff">
		<path fill="#f0b58b" opacity="1.00"
			d=" M 325.92 84.74 C 326.64 84.67 328.06 84.52 328.77 84.44 C 332.25 90.61 336.14 96.61 338.52 103.32 C 340.84 109.32 342.20 115.65 342.91 122.04 C 343.42 122.44 344.44 123.25 344.96 123.65 C 353.52 116.30 355.59 104.46 357.22 93.85 C 357.71 91.06 358.20 86.58 362.03 86.83 C 367.59 87.67 371.44 92.87 372.51 98.12 C 374.04 103.68 372.65 109.41 372.97 115.04 C 373.12 118.87 375.41 122.68 379.15 123.94 C 387.78 127.41 397.53 127.06 406.52 125.27 C 416.77 122.94 427.31 119.44 435.02 111.97 C 436.07 115.70 438.01 119.07 440.09 122.30 C 431.27 122.69 422.36 124.89 415.02 129.96 C 405.82 136.16 394.72 138.54 385.31 144.36 C 378.13 148.32 372.93 155.65 371.58 163.74 C 363.98 157.15 357.19 149.56 352.22 140.78 C 345.42 129.79 339.37 118.30 334.80 106.19 C 332.16 98.91 328.58 92.02 325.92 84.74 Z" />
		<path fill="#f0b58b" opacity="1.00"
			d=" M 464.12 253.40 C 470.46 251.90 477.00 251.69 483.48 251.89 C 487.41 273.22 493.03 294.33 494.50 316.05 C 494.79 321.30 494.54 326.67 492.56 331.61 C 491.51 335.43 488.33 337.98 485.79 340.81 C 459.51 369.28 431.37 396.39 399.18 418.16 C 391.54 423.18 384.24 428.71 376.34 433.33 C 370.97 436.27 365.10 440.00 363.65 446.40 C 359.22 466.36 351.32 486.16 337.55 501.55 C 334.96 504.08 331.97 507.80 327.89 506.79 C 325.71 506.79 325.16 504.36 323.59 503.43 C 321.05 503.06 318.48 503.24 315.93 503.11 C 316.12 499.07 319.03 495.95 319.89 492.12 C 319.84 489.62 316.64 490.13 316.04 492.00 C 313.90 495.62 310.04 498.19 305.75 498.07 C 305.66 493.55 308.67 489.96 310.20 485.93 C 310.29 484.09 307.72 483.02 306.75 484.78 C 304.67 487.62 302.46 490.53 298.90 491.57 C 297.82 490.31 297.17 488.63 297.87 487.02 C 300.45 477.84 306.32 470.07 309.39 461.09 C 310.40 458.18 310.87 455.03 310.43 451.97 C 310.61 450.12 308.53 450.06 307.27 450.13 C 306.16 457.64 303.59 464.81 299.83 471.40 C 296.97 468.29 296.27 463.87 297.95 460.00 C 301.04 452.30 304.73 444.56 310.46 438.45 C 315.76 433.35 322.34 429.50 329.45 427.56 C 335.39 426.22 341.27 428.55 347.11 429.39 C 345.66 426.62 342.95 425.02 340.23 423.73 C 350.69 418.61 359.54 410.80 367.27 402.18 C 376.70 391.56 386.69 381.18 393.61 368.66 C 397.50 362.69 399.76 355.81 403.93 350.00 C 406.81 345.91 410.98 343.02 414.41 339.44 C 422.06 332.04 427.70 322.84 432.41 313.37 C 436.11 305.64 439.35 297.52 440.35 288.96 C 439.77 287.57 437.74 288.18 437.49 289.47 C 435.11 294.32 433.87 299.62 431.96 304.66 C 429.49 296.61 425.49 288.89 419.70 282.73 C 430.98 268.68 446.50 257.70 464.12 253.40 Z" />
		<path fill="#f0b58b" opacity="1.00"
			d=" M 347.80 680.75 C 351.01 671.42 355.15 662.41 357.62 652.84 C 372.03 671.08 391.87 684.60 413.68 692.40 C 415.27 692.99 416.86 693.58 418.46 694.19 C 413.84 699.89 409.39 706.45 408.96 714.01 C 408.63 715.57 409.78 716.57 410.80 717.54 C 412.48 714.09 414.01 710.57 415.73 707.13 C 420.73 707.63 425.63 708.79 430.56 709.74 C 417.50 715.62 405.66 724.77 398.08 737.07 C 392.27 746.31 388.22 756.71 386.91 767.58 C 378.09 761.73 367.82 758.58 358.68 753.28 C 351.36 749.56 345.09 743.08 342.98 735.00 C 338.45 716.95 341.81 698.04 347.80 680.75 Z" />
		<path fill="#f0b58b" opacity="1.00"
			d=" M 417.69 702.61 C 419.44 700.37 421.19 698.14 422.92 695.90 C 439.93 700.77 457.28 704.43 474.81 706.81 C 475.75 714.32 476.72 721.96 475.58 729.51 C 469.53 725.54 463.68 721.25 457.39 717.64 C 449.88 713.25 442.47 708.39 434.05 705.91 C 428.73 704.18 423.11 703.88 417.69 702.61 Z" />
	</g>
	<g id="#f11b27ff">
		<path fill="var(--shirt-color, grey)" opacity="1.00"
			d=" M 428.08 128.78 C 434.82 126.56 442.03 126.88 449.04 126.57 C 459.62 126.56 470.38 125.74 480.78 128.14 C 486.76 130.26 492.44 133.47 497.01 137.92 C 506.18 144.99 515.99 151.66 523.15 160.92 C 530.78 171.53 536.40 183.42 543.88 194.13 C 551.01 204.45 559.55 214.10 563.87 226.07 C 567.91 236.27 566.97 247.44 568.44 258.13 C 569.90 274.95 577.58 290.20 582.92 305.96 C 585.44 315.56 582.77 325.48 580.59 334.88 C 575.48 355.46 568.42 375.66 558.34 394.35 C 557.67 395.66 557.09 397.00 556.54 398.37 C 559.94 399.07 561.20 394.97 562.90 392.84 C 574.20 373.25 580.79 351.35 586.09 329.49 C 590.18 353.33 597.86 376.44 607.34 398.65 C 614.20 415.16 625.55 430.24 627.65 448.42 C 607.79 442.11 586.86 438.61 565.99 440.15 C 545.41 441.43 525.02 445.30 505.26 451.14 C 484.92 457.54 465.15 465.53 445.36 473.40 C 437.07 476.51 428.74 479.58 420.09 481.56 C 422.92 476.10 424.99 470.23 425.49 464.07 C 426.48 457.86 424.85 451.27 427.19 445.29 C 429.92 439.92 434.87 436.13 437.80 430.87 C 450.21 422.60 461.22 412.24 470.76 400.79 C 477.45 392.39 483.88 383.76 489.86 374.84 C 491.23 372.44 493.52 369.87 492.39 366.92 C 489.19 369.26 487.23 372.75 484.84 375.81 C 479.27 383.49 472.85 390.46 466.70 397.66 C 458.32 407.72 448.89 416.87 438.86 425.27 C 439.28 415.37 435.62 405.90 435.44 396.01 C 455.99 378.45 475.15 359.30 493.08 339.07 C 497.94 333.30 499.98 325.51 499.35 318.05 C 498.49 304.81 495.75 291.77 493.30 278.75 C 494.71 276.95 496.13 275.13 497.15 273.07 C 502.74 261.31 506.51 248.76 509.44 236.09 C 511.61 226.88 512.94 217.38 512.26 207.91 C 512.50 206.09 509.66 205.22 509.26 207.18 C 507.86 214.99 507.63 223.02 505.72 230.76 C 502.20 245.40 498.28 260.04 492.28 273.89 C 490.66 266.67 489.35 259.37 487.25 252.27 C 489.81 252.60 492.40 252.81 494.99 252.85 C 494.93 248.19 492.31 244.11 491.23 239.66 C 487.24 225.96 483.38 211.08 487.85 197.00 C 488.72 193.24 491.43 190.34 492.86 186.83 C 493.53 185.62 492.65 183.74 491.13 184.21 C 486.62 187.81 483.65 193.05 482.27 198.61 C 481.75 190.74 482.22 182.86 483.03 175.03 C 483.22 170.89 484.25 166.68 483.19 162.58 C 481.85 162.94 480.55 163.62 480.37 165.14 C 478.55 171.62 478.21 178.40 477.60 185.07 C 476.66 197.56 479.41 209.87 482.03 221.99 C 484.23 231.15 486.37 240.43 490.54 248.95 C 478.12 246.19 464.86 247.26 453.06 252.06 C 437.48 258.02 424.10 268.88 413.98 282.03 C 410.33 275.15 405.94 268.51 403.95 260.90 C 401.63 252.44 403.28 243.64 403.36 235.03 C 403.33 225.57 403.75 215.94 401.28 206.70 C 401.09 205.32 400.15 204.32 398.94 203.74 C 397.19 208.64 398.85 213.90 398.51 218.96 C 398.03 228.37 397.65 237.79 397.23 247.21 C 393.02 235.58 387.37 224.53 383.26 212.86 C 381.83 208.32 379.38 203.97 379.36 199.10 C 378.99 188.34 377.45 177.67 376.65 166.95 C 376.10 160.47 380.65 155.18 384.88 150.87 C 391.58 145.21 400.00 142.34 407.98 139.03 C 415.00 136.22 420.79 130.99 428.08 128.78 M 551.48 289.42 C 548.84 294.10 547.73 299.49 545.68 304.44 C 537.27 326.45 528.27 348.23 518.89 369.84 C 512.45 383.78 506.09 397.81 498.19 411.01 C 492.29 421.20 485.12 430.61 477.48 439.54 C 476.04 441.80 479.55 442.46 480.66 440.73 C 490.15 432.29 497.30 421.54 503.79 410.70 C 521.00 380.62 533.35 348.12 546.11 315.98 C 549.15 307.82 552.58 299.64 553.73 290.95 C 554.13 289.56 552.55 288.51 551.48 289.42 M 583.02 371.00 C 577.42 387.59 569.48 403.22 562.27 419.13 C 561.68 421.64 565.31 422.49 566.29 420.31 C 571.62 413.70 577.56 407.44 584.76 402.85 C 589.51 399.87 594.91 398.21 600.18 396.41 C 601.71 395.73 604.13 395.41 603.98 393.22 C 592.48 393.08 581.27 398.02 572.92 405.80 C 578.08 394.94 582.62 383.79 586.25 372.32 C 587.55 367.87 589.49 363.44 589.13 358.71 C 585.36 361.69 584.86 366.84 583.02 371.00 Z" />
		<path fill="var(--shirt-color, grey)" opacity="1.00"
			d=" M 379.95 218.40 C 385.77 233.52 393.02 248.04 398.88 263.15 C 401.31 270.47 404.98 277.32 409.24 283.73 C 410.47 285.67 412.09 287.31 413.87 288.77 C 414.54 288.36 415.89 287.53 416.57 287.12 C 421.48 295.13 427.78 303.19 428.10 312.98 C 423.96 321.95 418.46 330.44 411.21 337.22 C 407.18 330.15 403.64 322.79 400.88 315.13 C 395.83 301.14 391.39 286.93 387.60 272.55 C 383.33 254.82 378.53 236.80 379.95 218.40 Z" />
	</g>
	<g id="#2b3dcdff">
		<path fill="var(--pants-color, grey)" opacity="1.00"
			d=" M 517.85 452.57 C 536.89 447.83 556.43 444.91 576.07 444.62 C 592.81 444.44 609.26 447.92 625.56 451.31 C 626.48 459.97 627.22 468.70 626.58 477.41 C 624.90 499.89 615.93 521.52 602.70 539.63 C 597.80 546.64 590.49 551.63 586.05 559.01 C 582.07 565.58 579.03 573.00 573.16 578.20 C 566.52 584.59 558.76 590.19 554.49 598.60 C 547.91 611.46 544.72 625.66 540.61 639.42 C 538.82 645.58 537.85 651.99 535.04 657.81 C 531.29 657.15 527.76 655.74 524.27 654.30 C 527.53 637.81 530.51 621.15 536.49 605.37 C 538.53 600.64 541.43 596.36 543.46 591.63 C 547.83 582.43 549.63 572.30 551.16 562.31 C 563.44 554.96 573.97 544.89 582.22 533.23 C 583.65 531.23 584.80 529.02 585.17 526.57 C 582.37 526.75 581.11 529.63 579.35 531.39 C 573.67 537.67 568.40 544.46 561.54 549.52 C 550.71 558.08 538.19 564.08 525.74 569.86 C 523.07 570.56 524.13 574.91 526.90 573.85 C 534.05 571.33 540.84 567.83 547.57 564.35 C 545.83 572.43 543.41 580.37 539.82 587.84 C 537.15 594.05 533.06 599.58 530.86 606.01 C 526.69 618.76 523.82 631.88 521.78 645.13 C 520.38 656.14 515.13 666.05 511.51 676.40 C 507.63 686.18 504.34 696.30 498.82 705.32 C 491.00 703.30 483.08 701.71 475.12 700.38 C 457.82 697.70 440.27 695.79 423.56 690.31 C 407.73 685.29 392.55 677.89 379.53 667.52 C 372.22 661.93 366.18 654.92 359.35 648.80 C 360.53 631.91 368.39 616.64 373.79 600.87 C 379.42 585.20 386.06 569.93 392.67 554.65 C 395.05 548.41 398.14 542.40 399.61 535.85 C 400.60 532.20 401.25 528.37 403.13 525.04 C 405.22 521.87 408.84 520.01 410.68 516.64 C 412.26 513.67 412.48 510.23 413.09 506.99 C 414.27 498.82 418.82 491.45 424.44 485.58 C 438.40 481.45 451.96 476.05 465.42 470.51 C 482.69 463.98 499.95 457.23 517.85 452.57 Z" />
		<path fill="var(--socks-color, grey)" opacity="1.00"
			d=" M 409.49 730.52 C 416.77 722.26 426.06 716.00 436.02 711.43 C 439.24 713.16 442.75 714.30 445.97 716.05 C 454.62 720.39 462.40 726.19 470.33 731.69 C 481.34 739.21 491.68 747.63 502.43 755.52 C 518.84 767.64 533.03 782.40 548.98 795.08 C 561.26 804.78 572.85 815.39 585.96 823.98 C 596.21 830.85 606.53 837.60 616.91 844.27 C 616.27 851.90 619.91 858.84 621.94 865.98 C 623.77 871.61 621.56 878.31 616.52 881.50 C 610.47 885.36 602.99 885.96 595.99 885.96 C 590.19 880.00 582.25 877.06 575.46 872.49 C 565.13 865.65 554.31 859.64 543.69 853.30 C 530.50 845.39 516.31 839.39 502.60 832.48 C 463.95 814.96 425.78 795.67 391.49 770.49 C 393.64 755.85 399.48 741.55 409.49 730.52 Z" />
		<path fill="var(--socks-color, grey)" opacity="1.00"
			d=" M 418.84 795.90 C 438.61 807.47 458.91 818.19 479.68 827.85 C 478.62 837.76 476.31 847.48 474.13 857.19 C 471.36 870.25 468.23 883.23 465.12 896.22 C 462.64 906.71 462.97 917.71 465.28 928.20 C 456.87 932.76 447.03 931.86 437.92 930.51 C 433.66 929.85 429.33 928.90 425.67 926.51 C 427.34 915.43 426.65 904.18 426.42 893.02 C 424.95 860.58 423.42 828.08 418.84 795.90 Z" />
	</g>
	<g id="#0c0c0cff">
		<path fill="#0c0c0c" opacity="1.00"
			d=" M 413.68 692.40 C 416.64 690.57 420.14 690.15 423.56 690.31 C 440.27 695.79 457.82 697.70 475.12 700.38 C 474.66 700.63 473.73 701.14 473.26 701.40 C 475.30 701.93 477.29 702.63 479.12 703.69 C 478.35 705.03 477.33 706.29 476.89 707.80 C 477.13 710.51 478.05 713.12 478.45 715.82 C 479.48 721.88 478.55 728.02 477.75 734.05 C 475.40 732.93 473.04 731.44 470.33 731.69 C 462.40 726.19 454.62 720.39 445.97 716.05 C 442.75 714.30 439.24 713.16 436.02 711.43 C 434.62 709.77 432.58 709.68 430.56 709.74 C 425.63 708.79 420.73 707.63 415.73 707.13 C 414.01 710.57 412.48 714.09 410.80 717.54 C 409.78 716.57 408.63 715.57 408.96 714.01 C 409.39 706.45 413.84 699.89 418.46 694.19 C 416.86 693.58 415.27 692.99 413.68 692.40 M 417.69 702.61 C 423.11 703.88 428.73 704.18 434.05 705.91 C 442.47 708.39 449.88 713.25 457.39 717.64 C 463.68 721.25 469.53 725.54 475.58 729.51 C 476.72 721.96 475.75 714.32 474.81 706.81 C 457.28 704.43 439.93 700.77 422.92 695.90 C 421.19 698.14 419.44 700.37 417.69 702.61 Z" />
	</g>
	<g id="#4d4d4dff">
		<path fill="#4d4d4d" opacity="1.00"
			d=" M 622.61 845.15 C 634.37 844.19 646.73 843.56 657.89 848.09 C 662.79 850.11 667.29 853.27 670.71 857.34 C 675.06 863.88 673.97 872.15 672.71 879.47 C 671.40 887.01 668.47 894.48 663.02 900.01 C 655.84 907.03 653.21 917.04 650.28 926.32 C 647.05 937.96 641.38 948.76 635.11 959.04 C 631.54 964.04 628.48 969.78 623.14 973.16 C 616.82 977.85 609.01 981.18 601.02 980.47 C 595.12 979.31 591.02 973.71 590.51 967.90 C 589.56 957.27 592.29 946.80 593.29 936.28 C 595.22 920.80 596.50 905.16 595.55 889.56 C 603.21 890.30 611.23 889.60 618.23 886.20 C 624.83 882.92 629.07 875.37 628.15 868.02 C 627.12 860.20 622.92 853.10 622.61 845.15 Z" />
		<path fill="#4d4d4d" opacity="1.00"
			d=" M 394.27 940.76 C 391.58 931.94 398.47 920.71 408.01 920.55 C 415.70 920.72 418.98 928.83 425.32 931.80 C 432.32 935.20 440.32 935.67 447.98 936.04 C 454.35 936.37 460.77 935.07 466.38 932.00 C 470.25 944.65 472.03 958.10 470.23 971.27 C 469.02 976.69 467.29 982.31 463.68 986.64 C 458.39 991.07 450.52 990.93 444.29 988.73 C 435.86 985.74 428.16 980.21 423.29 972.63 C 420.16 967.93 417.50 962.50 412.21 959.85 C 404.33 955.70 397.83 948.94 394.27 940.76 Z" />
	</g>
</svg>