<?xml version="1.0" encoding="UTF-8" ?>
<!DOCTYPE svg PUBLIC "-//W3C//DTD SVG 1.1//EN" "http://www.w3.org/Graphics/SVG/1.1/DTD/svg11.dtd">
<svg width="1000pt" height="1000pt" viewBox="0 0 1000 1000" version="1.1" xmlns="http://www.w3.org/2000/svg">
	<g id="#020202ff">
		<path fill="#020202" opacity="1.00"
			d=" M 361.94 19.98 C 369.74 10.61 382.18 6.42 394.05 5.84 C 422.87 4.70 451.26 23.31 461.99 50.04 C 464.89 58.28 466.22 67.35 464.15 75.94 C 461.18 89.65 452.64 101.48 442.48 110.85 C 442.82 123.00 450.86 133.90 460.99 140.06 C 468.06 139.09 476.23 137.22 482.58 141.49 C 488.86 146.48 494.03 152.81 500.75 157.27 C 507.23 161.71 515.20 162.78 522.35 165.69 C 531.60 169.31 541.31 173.39 547.77 181.27 C 552.38 186.72 554.64 193.64 556.53 200.41 C 560.85 216.54 557.90 233.78 563.27 249.70 C 565.49 253.04 569.12 255.27 571.37 258.64 C 575.45 263.87 575.87 270.72 577.05 277.00 C 578.58 285.53 579.90 294.31 583.83 302.13 C 584.80 304.14 585.74 306.15 586.61 308.21 C 584.33 309.70 581.91 310.97 579.32 311.83 C 581.16 318.73 582.66 325.80 582.74 332.96 C 582.81 339.41 580.16 345.41 577.81 351.27 C 578.91 356.10 579.56 361.02 580.16 365.93 C 581.19 374.03 580.43 382.36 582.77 390.28 C 585.66 400.18 590.30 409.59 591.86 419.87 C 595.44 438.45 593.07 457.40 590.96 476.00 C 590.15 482.89 589.76 490.35 593.26 496.63 C 595.84 501.33 595.17 506.91 597.04 511.83 C 600.80 522.14 603.25 532.98 603.78 543.96 C 604.59 556.63 603.49 569.31 602.85 581.96 C 602.73 584.36 602.98 586.80 603.93 589.03 C 610.19 604.06 610.51 620.63 614.68 636.22 C 617.55 644.37 620.04 652.64 622.07 661.04 C 624.07 667.17 617.58 671.08 614.33 675.26 C 613.17 688.80 611.74 702.37 612.35 715.98 C 617.31 721.35 620.94 727.74 625.29 733.59 C 633.76 746.39 643.33 758.78 648.52 773.39 C 654.86 790.58 656.21 809.02 658.92 827.00 C 662.09 848.92 663.01 871.06 665.43 893.05 C 666.08 900.85 666.87 908.78 669.89 916.09 C 674.10 925.81 675.42 936.52 675.47 947.05 C 675.50 954.58 676.01 962.37 673.40 969.60 C 671.45 974.88 670.37 980.95 665.75 984.70 C 656.90 992.56 644.21 993.22 632.95 992.76 C 620.23 991.90 607.27 991.63 594.99 987.89 C 592.02 986.98 588.73 985.70 587.27 982.74 C 585.27 979.18 586.87 974.96 588.76 971.73 C 591.50 967.27 594.98 963.33 597.89 958.99 C 605.80 947.82 610.45 934.84 617.17 923.00 C 619.35 918.91 620.03 914.04 618.58 909.59 C 614.78 894.36 609.64 879.51 605.40 864.41 C 596.87 836.73 587.63 809.22 576.53 782.45 C 572.23 772.33 567.45 762.40 562.28 752.70 C 558.53 746.72 554.49 740.86 551.83 734.29 C 548.32 725.75 545.50 716.86 540.51 709.02 C 534.69 707.84 528.75 706.47 523.59 703.42 C 520.88 702.01 519.84 698.97 518.62 696.39 C 515.22 687.91 511.89 679.37 507.84 671.18 C 503.45 662.16 496.01 654.92 492.66 645.36 C 490.62 656.23 487.37 666.88 486.13 677.90 C 485.42 683.50 485.05 689.20 483.39 694.62 C 482.61 697.04 479.88 697.94 477.77 698.88 C 467.43 702.31 456.29 701.37 445.67 700.00 C 445.17 706.05 442.92 711.73 440.10 717.05 C 447.59 724.60 454.87 732.50 460.42 741.63 C 468.17 754.67 473.77 768.85 478.59 783.21 C 485.61 800.87 496.80 816.43 505.78 833.09 C 508.89 839.35 514.39 843.88 518.83 849.14 C 526.95 858.54 531.56 870.75 532.47 883.08 C 532.79 891.27 527.29 898.46 520.61 902.63 C 512.47 908.22 503.47 912.32 494.67 916.72 C 488.17 919.85 483.25 925.24 477.74 929.75 C 468.41 937.51 458.82 944.96 448.80 951.81 C 440.67 956.84 431.75 961.88 421.90 961.78 C 416.50 961.75 411.66 957.67 410.40 952.47 C 406.43 937.96 412.33 922.15 422.43 911.53 C 430.22 903.37 435.49 893.27 442.65 884.61 C 449.07 876.25 457.53 869.78 466.11 863.79 C 456.64 855.28 447.14 846.77 437.01 839.04 C 428.87 832.92 421.80 825.45 415.60 817.41 C 408.53 808.10 404.09 797.18 397.45 787.60 C 389.13 774.25 377.73 763.29 367.76 751.24 C 362.40 744.26 357.22 736.21 357.81 727.02 C 358.47 716.07 360.76 705.29 361.68 694.36 C 360.94 694.31 359.46 694.20 358.73 694.15 C 357.49 691.25 356.59 688.16 356.80 684.99 C 357.46 671.21 362.15 658.11 365.35 644.81 C 367.67 635.60 367.28 626.03 368.90 616.72 C 370.79 604.88 371.37 592.88 371.67 580.92 C 372.15 568.94 371.27 556.94 372.23 544.98 C 372.85 531.83 374.21 518.70 376.47 505.73 C 371.79 501.67 374.09 495.25 374.90 490.05 C 376.78 480.90 376.37 471.30 373.49 462.40 C 370.71 453.61 367.30 444.98 365.64 435.88 C 363.21 424.42 363.49 412.66 363.52 401.02 C 363.55 388.41 364.84 375.53 361.56 363.18 C 358.78 352.58 357.51 341.66 354.77 331.04 C 351.70 318.57 350.73 305.72 349.62 292.96 C 346.30 279.69 344.20 266.11 339.77 253.13 C 334.01 235.81 328.27 217.26 332.46 198.92 C 334.50 187.84 341.30 177.79 351.06 172.09 C 358.17 167.98 366.43 166.46 373.61 162.47 C 378.11 159.82 383.55 160.50 388.54 159.83 C 386.34 157.56 384.25 155.19 382.10 152.87 C 377.32 156.94 372.31 161.35 366.00 162.70 C 362.19 163.43 359.65 159.82 358.05 156.94 C 353.01 147.09 352.35 135.80 348.64 125.48 C 348.20 124.41 347.95 122.99 346.60 122.75 C 342.00 121.09 336.91 120.17 333.09 116.90 C 331.43 115.48 329.96 113.27 330.72 111.01 C 332.15 105.72 334.97 100.95 336.81 95.81 C 340.77 86.39 340.94 76.03 341.97 66.02 C 342.80 58.28 344.84 50.70 347.45 43.38 C 349.33 39.13 347.29 34.03 350.06 30.04 C 352.54 25.06 358.80 24.30 361.94 19.98 M 359.58 37.79 C 357.73 41.78 358.35 46.25 359.28 50.39 C 356.06 49.34 353.12 47.63 350.62 45.37 C 349.32 52.33 347.36 59.16 346.58 66.22 C 349.93 64.00 354.00 62.78 358.00 63.82 C 366.52 65.67 374.27 69.95 381.81 74.18 C 382.88 75.09 384.87 75.54 384.95 77.18 C 375.77 81.04 366.53 84.77 357.43 88.81 C 355.88 84.98 354.83 80.92 352.80 77.31 C 351.00 75.17 348.60 73.67 346.45 71.93 C 346.06 78.38 345.89 84.95 344.08 91.20 C 341.72 98.51 337.78 105.15 334.87 112.23 C 337.96 114.37 341.44 115.85 345.06 116.86 C 347.80 117.76 351.32 118.44 352.43 121.53 C 356.58 132.08 357.77 143.54 362.06 154.04 C 362.71 155.49 363.73 156.72 364.66 157.99 C 374.09 154.50 381.02 146.88 387.98 139.96 C 391.61 136.50 394.52 131.89 399.52 130.25 C 398.97 132.28 398.51 134.43 397.13 136.08 C 393.47 140.83 389.39 145.24 385.25 149.57 C 389.66 153.57 393.41 158.23 397.01 162.96 C 401.64 170.77 403.45 180.01 403.49 189.02 C 403.59 192.05 403.36 195.37 405.04 198.05 C 406.54 199.52 408.54 200.35 410.32 201.45 C 411.90 198.17 413.59 194.82 416.39 192.39 C 423.72 185.58 433.28 182.11 442.40 178.45 C 448.55 176.11 453.28 171.30 457.69 166.59 C 461.57 162.12 465.66 157.12 466.15 150.97 C 466.31 147.44 462.90 145.25 460.14 143.84 C 451.89 139.91 445.31 132.87 441.32 124.70 C 439.38 120.43 437.82 115.63 438.73 110.91 C 441.33 106.99 444.96 103.86 447.83 100.13 C 436.96 107.75 423.74 111.57 410.54 111.98 C 415.43 101.21 424.66 91.55 423.92 78.95 C 424.06 72.62 420.40 66.94 415.21 63.55 C 412.37 67.83 410.78 72.76 408.23 77.17 C 405.43 80.17 400.86 80.41 397.03 81.00 C 394.77 81.27 391.01 81.15 391.14 78.01 C 391.38 69.11 391.74 59.70 387.51 51.54 C 381.97 52.69 376.13 54.15 370.58 52.21 C 371.16 48.46 372.20 44.77 372.37 40.96 C 372.58 37.56 370.33 33.85 366.85 33.19 C 363.72 32.86 360.68 34.89 359.58 37.79 M 468.56 143.42 C 471.89 149.12 471.04 156.18 467.57 161.60 C 462.83 168.96 456.58 175.46 449.21 180.22 C 442.35 183.95 434.77 186.15 427.94 189.95 C 422.81 192.82 417.33 196.10 414.83 201.70 C 413.74 203.20 413.39 205.94 411.12 206.03 C 407.75 205.62 404.28 204.59 401.60 202.42 C 398.26 199.24 397.96 194.30 397.89 189.97 C 397.91 181.24 396.63 172.26 392.54 164.45 C 388.07 164.88 383.55 164.65 379.11 165.28 C 377.03 165.99 375.22 167.28 373.30 168.30 C 366.95 172.06 359.41 173.14 353.16 177.09 C 347.71 180.55 342.96 185.37 340.35 191.34 C 336.18 200.76 335.29 211.39 336.71 221.53 C 339.28 240.28 347.97 257.56 350.37 276.36 C 351.79 264.53 354.79 252.94 355.73 241.05 C 356.09 237.16 355.91 233.10 357.70 229.51 C 358.53 231.21 359.67 232.87 359.76 234.83 C 360.18 240.91 359.51 246.99 359.00 253.04 C 357.95 265.38 354.38 277.48 354.90 289.96 C 355.55 304.08 356.89 318.25 360.36 331.99 C 362.70 341.40 363.83 351.08 366.45 360.44 C 371.32 376.88 368.62 394.17 369.16 411.02 C 368.76 424.07 371.21 437.06 375.39 449.40 C 378.41 458.32 381.82 467.35 381.88 476.91 C 382.38 485.09 379.90 493.00 379.22 501.08 C 382.36 502.53 385.78 503.04 389.22 502.79 C 390.03 499.44 391.00 496.02 393.19 493.27 C 399.64 484.71 408.11 477.97 416.46 471.36 C 423.00 466.63 429.17 461.40 435.84 456.84 C 446.40 449.32 457.41 442.47 467.91 434.86 C 472.52 431.59 477.11 428.08 480.42 423.43 C 484.84 417.25 486.77 409.79 489.97 402.99 C 496.53 388.35 507.88 376.73 518.00 364.54 C 505.43 362.33 492.57 362.46 479.92 363.86 C 465.45 365.46 452.14 371.74 438.62 376.71 C 437.48 377.23 436.36 377.22 435.25 376.69 C 434.92 374.27 437.38 373.15 439.11 372.13 C 446.10 368.41 453.47 365.48 460.83 362.58 C 473.28 357.80 486.79 357.03 499.99 357.09 C 507.34 357.27 514.88 357.60 521.81 360.31 C 523.78 358.01 525.81 355.77 527.73 353.43 C 507.86 350.54 487.73 346.11 470.21 335.90 C 464.97 332.74 459.22 329.93 455.26 325.12 C 455.69 324.82 456.53 324.21 456.96 323.90 C 462.37 325.82 466.99 329.44 472.20 331.85 C 488.85 340.94 507.44 345.72 526.10 348.46 C 524.47 343.13 522.83 337.80 521.13 332.49 C 518.26 333.71 515.62 335.38 512.82 336.73 C 510.79 336.90 509.62 334.86 508.43 333.57 C 502.02 324.99 498.37 314.80 493.61 305.30 C 490.78 300.35 486.72 296.12 481.95 293.02 C 476.53 289.51 471.20 285.86 466.03 282.01 C 464.80 280.90 462.68 279.45 463.76 277.53 C 466.84 277.68 469.46 279.45 472.05 280.94 C 477.15 284.04 482.45 286.79 487.47 290.03 C 484.01 279.39 478.97 269.23 476.63 258.26 C 478.31 259.60 480.01 261.06 480.94 263.06 C 483.34 267.75 485.49 272.58 487.62 277.40 C 495.21 295.88 503.52 314.10 512.94 331.72 C 518.53 327.11 526.34 327.43 532.12 323.21 C 539.31 318.13 545.15 311.25 552.81 306.80 C 557.13 304.24 562.31 305.18 567.00 305.92 C 571.15 306.66 575.39 306.55 579.60 306.42 C 574.14 296.13 572.49 284.46 570.46 273.14 C 569.78 269.58 569.30 265.84 567.31 262.72 C 564.10 257.67 559.07 254.27 554.79 250.22 C 550.92 246.64 549.06 241.56 547.24 236.75 C 545.96 233.18 544.41 229.68 543.68 225.95 C 543.19 224.41 543.63 223.19 545.00 222.28 C 546.89 223.80 547.78 226.12 548.80 228.25 C 551.20 233.58 553.57 238.93 556.42 244.05 C 552.99 225.76 555.93 206.02 546.99 189.01 C 541.38 178.54 529.74 173.79 519.20 169.83 C 512.43 167.30 505.07 166.09 498.96 162.04 C 492.05 157.75 486.68 151.58 480.67 146.21 C 477.41 143.18 472.63 143.87 468.56 143.42 M 525.99 331.86 C 528.45 337.58 530.41 343.55 531.25 349.74 C 532.78 348.66 534.35 347.64 536.01 346.76 C 535.71 350.69 532.71 353.52 530.52 356.54 C 521.11 367.79 511.22 378.67 502.48 390.46 C 497.00 397.89 493.25 406.37 490.11 414.99 C 487.42 422.28 483.15 429.09 476.97 433.91 C 461.52 446.06 444.22 455.60 428.77 467.74 C 417.55 476.37 405.60 484.53 396.85 495.84 C 394.38 498.65 393.88 502.41 393.81 506.02 C 400.56 496.09 409.20 487.05 420.07 481.68 C 421.99 480.56 424.03 482.80 422.50 484.49 C 416.06 491.05 408.57 496.63 402.83 503.87 C 401.18 505.84 400.44 508.45 401.03 510.98 C 402.07 517.72 402.56 524.52 403.00 531.32 C 407.28 523.52 407.46 514.39 410.22 506.09 C 412.30 500.35 417.72 496.99 422.08 493.11 C 425.71 490.21 428.97 486.38 433.75 485.41 C 432.02 491.17 426.49 494.35 422.76 498.70 C 419.78 502.34 415.23 505.13 414.18 509.99 C 412.21 517.96 411.16 526.16 408.31 533.89 C 412.41 529.03 413.19 522.61 414.88 516.73 C 418.33 509.65 425.15 505.07 430.05 499.06 C 433.41 495.90 436.29 490.94 441.30 490.61 C 441.17 492.36 440.50 494.02 439.44 495.42 C 434.83 501.75 429.74 507.72 424.44 513.49 C 419.61 518.30 419.37 525.55 418.25 531.88 C 422.66 526.14 425.13 519.21 429.36 513.35 C 433.39 507.79 437.33 502.05 442.63 497.60 C 444.63 495.97 446.41 493.35 449.32 493.67 C 449.55 495.05 449.27 496.31 448.48 497.45 C 441.32 508.61 431.47 518.00 426.20 530.34 C 435.08 523.97 443.45 516.18 448.25 506.20 C 451.69 500.47 455.64 495.07 459.86 489.90 C 464.17 484.55 468.32 479.00 473.46 474.41 C 480.61 468.60 487.00 461.96 493.79 455.75 C 504.45 445.41 515.35 435.32 525.64 424.61 C 538.03 411.36 548.63 396.54 558.26 381.20 C 563.96 372.20 567.27 362.02 570.86 352.07 C 573.04 345.81 576.44 339.78 576.69 333.02 C 576.94 326.06 575.75 319.17 574.88 312.30 C 568.59 312.72 562.37 309.34 556.21 310.90 C 545.35 316.72 538.31 328.49 525.99 331.86 M 564.38 382.37 C 551.75 401.94 537.87 420.91 520.93 437.01 C 505.88 451.61 490.95 466.40 474.86 479.85 C 466.76 488.10 460.22 497.72 453.57 507.14 C 461.81 507.64 469.95 506.10 478.15 505.55 C 489.30 504.57 500.39 503.02 511.51 501.76 C 525.65 500.39 539.86 499.83 554.06 499.69 C 565.98 499.72 578.05 499.79 589.68 502.76 C 588.94 500.02 588.12 497.10 585.65 495.41 C 579.69 490.70 573.92 485.75 567.93 481.09 C 562.87 477.11 556.37 475.98 550.14 475.35 C 536.28 473.83 522.64 470.96 508.93 468.55 C 507.41 466.44 510.42 465.79 511.98 465.62 C 517.63 465.26 523.21 466.49 528.80 467.12 C 537.25 468.10 545.69 469.22 554.14 470.24 C 560.04 470.99 566.07 472.45 570.92 476.08 C 575.97 479.80 580.48 484.18 585.21 488.29 C 584.74 478.83 586.14 469.44 587.00 460.05 C 588.89 442.67 588.78 424.65 583.00 407.97 C 579.97 399.53 576.36 391.09 575.85 382.02 C 575.41 374.51 575.82 366.96 574.75 359.48 C 571.88 367.35 568.90 375.27 564.38 382.37 M 469.86 511.36 C 463.64 512.17 457.27 512.48 451.16 510.78 C 446.99 516.94 442.63 523.13 436.65 527.69 C 433.12 530.46 429.22 535.42 424.23 532.89 C 421.83 535.25 418.46 538.80 415.14 535.68 C 412.64 538.07 409.01 539.19 406.13 536.75 C 403.46 538.81 399.03 539.11 397.86 535.28 C 396.04 528.14 396.55 520.63 396.07 513.33 C 394.34 513.64 392.18 514.79 390.74 513.20 C 389.61 511.45 389.53 509.28 389.06 507.31 C 386.83 507.40 384.59 507.48 382.37 507.55 C 379.04 527.86 377.66 548.47 377.94 569.04 C 377.93 580.39 377.43 591.73 376.47 603.04 C 375.62 613.73 372.87 624.21 372.79 634.98 C 372.84 640.07 372.08 645.13 370.84 650.06 C 367.64 662.79 363.13 675.33 362.21 688.53 C 370.80 687.92 379.41 687.60 388.02 687.73 C 411.22 687.65 433.94 693.09 456.98 694.93 C 464.12 695.53 471.28 694.71 478.32 693.48 C 480.28 686.53 480.77 679.31 482.11 672.24 C 483.83 663.42 485.62 654.60 488.14 645.96 C 489.54 641.46 489.13 636.44 491.55 632.28 C 494.26 636.51 496.32 641.09 498.23 645.73 C 501.08 652.72 506.41 658.24 510.11 664.76 C 516.34 675.58 520.06 687.57 524.88 699.03 C 531.48 700.75 537.98 703.07 544.83 703.64 C 558.30 705.61 572.87 703.19 583.94 694.93 C 596.76 686.16 606.41 673.81 617.94 663.57 C 615.84 655.08 613.39 646.68 610.39 638.46 C 605.64 622.53 605.50 605.43 599.08 589.95 C 597.33 585.52 598.07 580.69 598.27 576.07 C 598.93 562.38 599.88 548.58 597.92 534.95 C 596.53 525.92 594.33 517.02 591.43 508.36 C 575.86 503.20 559.15 504.54 543.01 504.69 C 518.47 505.06 494.26 509.30 469.86 511.36 M 586.15 701.10 C 575.08 708.69 561.14 711.37 547.92 710.00 C 553.68 719.28 556.06 730.14 561.36 739.65 C 564.79 745.90 568.38 752.34 573.95 756.97 C 575.19 758.11 576.83 759.17 576.84 761.08 C 574.96 762.60 572.75 761.14 570.78 760.66 C 572.56 763.70 574.13 766.86 575.69 770.03 C 582.13 771.43 588.71 769.52 594.31 766.32 C 606.56 759.40 616.20 747.84 620.51 734.41 C 617.77 730.40 615.09 726.35 612.60 722.18 C 612.24 725.62 612.92 729.75 609.92 732.24 C 607.72 726.76 607.25 720.74 606.60 714.92 C 606.37 703.61 607.04 692.25 608.91 681.08 C 602.08 688.54 594.60 695.51 586.15 701.10 M 367.36 693.58 C 366.80 704.48 364.30 715.17 363.38 726.02 C 362.52 734.79 367.59 742.55 372.90 749.01 C 379.22 756.25 385.48 763.53 391.85 770.72 C 403.55 768.86 414.41 763.13 423.12 755.18 C 431.97 747.28 438.98 736.79 440.82 724.90 C 439.83 723.66 438.85 722.43 437.87 721.21 C 435.02 726.97 435.31 733.55 433.17 739.50 C 430.94 735.65 431.43 731.10 432.07 726.91 C 433.21 717.17 438.86 708.82 441.25 699.42 C 428.52 697.99 415.87 695.85 403.12 694.60 C 391.22 693.76 379.29 693.29 367.36 693.58 M 445.28 730.19 C 443.94 735.97 441.91 741.63 438.61 746.59 C 429.08 761.46 413.80 773.08 396.29 776.48 C 401.96 784.05 406.99 792.08 411.54 800.37 C 418.77 813.81 428.68 825.91 440.88 835.13 C 451.42 843.13 461.14 852.15 470.68 861.29 C 473.78 864.19 477.43 867.56 482.05 866.89 C 495.17 865.11 505.55 851.19 502.56 838.09 C 500.01 832.10 495.93 826.91 492.71 821.28 C 484.66 807.27 475.81 793.50 470.91 777.98 C 464.41 761.09 457.09 744.13 445.28 730.19 M 623.97 739.32 C 620.56 750.15 613.26 759.44 604.37 766.36 C 596.98 772.13 587.81 776.29 578.24 775.49 C 593.19 808.70 604.01 843.59 614.53 878.41 C 618.15 890.11 621.83 901.83 624.23 913.86 C 629.45 908.74 635.33 903.16 642.92 902.27 C 651.47 901.68 658.88 907.12 664.24 913.24 C 663.11 909.05 662.24 904.79 661.80 900.47 C 660.74 889.91 659.54 879.36 658.67 868.79 C 657.20 846.26 653.99 823.89 650.57 801.60 C 648.58 788.28 645.40 774.93 638.98 763.00 C 634.63 754.70 628.95 747.22 623.97 739.32 M 508.39 844.88 C 507.33 857.68 497.66 869.40 484.89 871.84 C 479.39 873.30 474.29 870.09 469.96 867.13 C 462.16 873.55 453.47 879.14 447.30 887.31 C 439.93 896.12 434.87 906.64 426.91 914.97 C 423.29 918.82 420.03 923.07 417.95 927.96 C 415.14 934.47 412.80 941.75 414.42 948.88 C 415.21 952.40 418.04 955.96 421.98 955.79 C 430.17 955.73 437.53 951.45 444.41 947.44 C 453.64 941.48 462.29 934.67 470.92 927.88 C 477.90 922.49 484.08 915.96 491.97 911.85 C 500.90 907.16 510.17 903.07 518.61 897.49 C 523.27 894.53 527.69 889.85 527.53 883.96 C 527.16 874.50 523.86 865.26 518.69 857.38 C 515.79 852.79 511.85 849.02 508.39 844.88 M 635.60 911.59 C 627.78 916.86 622.16 924.82 618.24 933.29 C 611.63 946.59 606.24 960.92 595.81 971.84 C 594.02 974.02 590.00 977.91 593.75 980.21 C 602.85 984.12 613.01 984.40 622.74 985.30 C 634.63 986.07 647.65 987.79 658.41 981.39 C 665.34 977.76 667.80 969.66 669.37 962.56 C 670.98 948.88 669.89 934.96 666.91 921.54 C 659.52 918.87 655.60 910.88 647.85 908.95 C 643.60 907.46 639.12 909.16 635.60 911.59 Z" />
	</g>
	<g id="#f0b58bff">
		<path fill="#f0b58b" opacity="1.00"
			d=" M 359.58 37.79 C 360.68 34.89 363.72 32.86 366.85 33.19 C 370.33 33.85 372.58 37.56 372.37 40.96 C 372.20 44.77 371.16 48.46 370.58 52.21 C 376.13 54.15 381.97 52.69 387.51 51.54 C 391.74 59.70 391.38 69.11 391.14 78.01 C 391.01 81.15 394.77 81.27 397.03 81.00 C 400.86 80.41 405.43 80.17 408.23 77.17 C 410.78 72.76 412.37 67.83 415.21 63.55 C 420.40 66.94 424.06 72.62 423.92 78.95 C 424.66 91.55 415.43 101.21 410.54 111.98 C 423.74 111.57 436.96 107.75 447.83 100.13 C 444.96 103.86 441.33 106.99 438.73 110.91 C 437.82 115.63 439.38 120.43 441.32 124.70 C 445.31 132.87 451.89 139.91 460.14 143.84 C 462.90 145.25 466.31 147.44 466.15 150.97 C 465.66 157.12 461.57 162.12 457.69 166.59 C 453.28 171.30 448.55 176.11 442.40 178.45 C 433.28 182.11 423.72 185.58 416.39 192.39 C 413.59 194.82 411.90 198.17 410.32 201.45 C 408.54 200.35 406.54 199.52 405.04 198.05 C 403.36 195.37 403.59 192.05 403.49 189.02 C 403.45 180.01 401.64 170.77 397.01 162.96 C 393.41 158.23 389.66 153.57 385.25 149.57 C 389.39 145.24 393.47 140.83 397.13 136.08 C 398.51 134.43 398.97 132.28 399.52 130.25 C 394.52 131.89 391.61 136.50 387.98 139.96 C 381.02 146.88 374.09 154.50 364.66 157.99 C 363.73 156.72 362.71 155.49 362.06 154.04 C 357.77 143.54 356.58 132.08 352.43 121.53 C 351.32 118.44 347.80 117.76 345.06 116.86 C 341.44 115.85 337.96 114.37 334.87 112.23 C 337.78 105.15 341.72 98.51 344.08 91.20 C 345.89 84.95 346.06 78.38 346.45 71.93 C 348.60 73.67 351.00 75.17 352.80 77.31 C 354.83 80.92 355.88 84.98 357.43 88.81 C 366.53 84.77 375.77 81.04 384.95 77.18 C 384.87 75.54 382.88 75.09 381.81 74.18 C 374.27 69.95 366.52 65.67 358.00 63.82 C 354.00 62.78 349.93 64.00 346.58 66.22 C 347.36 59.16 349.32 52.33 350.62 45.37 C 353.12 47.63 356.06 49.34 359.28 50.39 C 358.35 46.25 357.73 41.78 359.58 37.79 Z" />
		<path fill="#f0b58b" opacity="1.00"
			d=" M 525.99 331.86 C 538.31 328.49 545.35 316.72 556.21 310.90 C 562.37 309.34 568.59 312.72 574.88 312.30 C 575.75 319.17 576.94 326.06 576.69 333.02 C 576.44 339.78 573.04 345.81 570.86 352.07 C 567.27 362.02 563.96 372.20 558.26 381.20 C 548.63 396.54 538.03 411.36 525.64 424.61 C 515.35 435.32 504.45 445.41 493.79 455.75 C 487.00 461.96 480.61 468.60 473.46 474.41 C 468.32 479.00 464.17 484.55 459.86 489.90 C 455.64 495.07 451.69 500.47 448.25 506.20 C 443.45 516.18 435.08 523.97 426.20 530.34 C 431.47 518.00 441.32 508.61 448.48 497.45 C 449.27 496.31 449.55 495.05 449.32 493.67 C 446.41 493.35 444.63 495.97 442.63 497.60 C 437.33 502.05 433.39 507.79 429.36 513.35 C 425.13 519.21 422.66 526.14 418.25 531.88 C 419.37 525.55 419.61 518.30 424.44 513.49 C 429.74 507.72 434.83 501.75 439.44 495.42 C 440.50 494.02 441.17 492.36 441.30 490.61 C 436.29 490.94 433.41 495.90 430.05 499.06 C 425.15 505.07 418.33 509.65 414.88 516.73 C 413.19 522.61 412.41 529.03 408.31 533.89 C 411.16 526.16 412.21 517.96 414.18 509.99 C 415.23 505.13 419.78 502.34 422.76 498.70 C 426.49 494.35 432.02 491.17 433.75 485.41 C 428.97 486.38 425.71 490.21 422.08 493.11 C 417.72 496.99 412.30 500.35 410.22 506.09 C 407.46 514.39 407.28 523.52 403.00 531.32 C 402.56 524.52 402.07 517.72 401.03 510.98 C 400.44 508.45 401.18 505.84 402.83 503.87 C 408.57 496.63 416.06 491.05 422.50 484.49 C 424.03 482.80 421.99 480.56 420.07 481.68 C 409.20 487.05 400.56 496.09 393.81 506.02 C 393.88 502.41 394.38 498.65 396.85 495.84 C 405.60 484.53 417.55 476.37 428.77 467.74 C 444.22 455.60 461.52 446.06 476.97 433.91 C 483.15 429.09 487.42 422.28 490.11 414.99 C 493.25 406.37 497.00 397.89 502.48 390.46 C 511.22 378.67 521.11 367.79 530.52 356.54 C 532.71 353.52 535.71 350.69 536.01 346.76 C 534.35 347.64 532.78 348.66 531.25 349.74 C 530.41 343.55 528.45 337.58 525.99 331.86 Z" />
		<path fill="#f0b58b" opacity="1.00"
			d=" M 586.15 701.10 C 594.60 695.51 602.08 688.54 608.91 681.08 C 607.04 692.25 606.37 703.61 606.60 714.92 C 607.25 720.74 607.72 726.76 609.92 732.24 C 612.92 729.75 612.24 725.62 612.60 722.18 C 615.09 726.35 617.77 730.40 620.51 734.41 C 616.20 747.84 606.56 759.40 594.31 766.32 C 588.71 769.52 582.13 771.43 575.69 770.03 C 574.13 766.86 572.56 763.70 570.78 760.66 C 572.75 761.14 574.96 762.60 576.84 761.08 C 576.83 759.17 575.19 758.11 573.95 756.97 C 568.38 752.34 564.79 745.90 561.36 739.65 C 556.06 730.14 553.68 719.28 547.92 710.00 C 561.14 711.37 575.08 708.69 586.15 701.10 Z" />
		<path fill="#f0b58b" opacity="1.00"
			d=" M 367.36 693.58 C 379.29 693.29 391.22 693.76 403.12 694.60 C 415.87 695.85 428.52 697.99 441.25 699.42 C 438.86 708.82 433.21 717.17 432.07 726.91 C 431.43 731.10 430.94 735.65 433.17 739.50 C 435.31 733.55 435.02 726.97 437.87 721.21 C 438.85 722.43 439.83 723.66 440.82 724.90 C 438.98 736.79 431.97 747.28 423.12 755.18 C 414.41 763.13 403.55 768.86 391.85 770.72 C 385.48 763.53 379.22 756.25 372.90 749.01 C 367.59 742.55 362.52 734.79 363.38 726.02 C 364.30 715.17 366.80 704.48 367.36 693.58 Z" />
	</g>
	<g id="#f11b27ff">
		<path fill="var(--shirt-color, grey)" opacity="1.00"
			d=" M 468.56 143.42 C 472.63 143.87 477.41 143.18 480.67 146.21 C 486.68 151.58 492.05 157.75 498.96 162.04 C 505.07 166.09 512.43 167.30 519.20 169.83 C 529.74 173.79 541.38 178.54 546.99 189.01 C 555.93 206.02 552.99 225.76 556.42 244.05 C 553.57 238.93 551.20 233.58 548.80 228.25 C 547.78 226.12 546.89 223.80 545.00 222.28 C 543.63 223.19 543.19 224.41 543.68 225.95 C 544.41 229.68 545.96 233.18 547.24 236.75 C 549.06 241.56 550.92 246.64 554.79 250.22 C 559.07 254.27 564.10 257.67 567.31 262.72 C 569.30 265.84 569.78 269.58 570.46 273.14 C 572.49 284.46 574.14 296.13 579.60 306.42 C 575.39 306.55 571.15 306.66 567.00 305.92 C 562.31 305.18 557.13 304.24 552.81 306.80 C 545.15 311.25 539.31 318.13 532.12 323.21 C 526.34 327.43 518.53 327.11 512.94 331.72 C 503.52 314.10 495.21 295.88 487.62 277.40 C 485.49 272.58 483.34 267.75 480.94 263.06 C 480.01 261.06 478.31 259.60 476.63 258.26 C 478.97 269.23 484.01 279.39 487.47 290.03 C 482.45 286.79 477.15 284.04 472.05 280.94 C 469.46 279.45 466.84 277.68 463.76 277.53 C 462.68 279.45 464.80 280.90 466.03 282.01 C 471.20 285.86 476.53 289.51 481.95 293.02 C 486.72 296.12 490.78 300.35 493.61 305.30 C 498.37 314.80 502.02 324.99 508.43 333.57 C 509.62 334.86 510.79 336.90 512.82 336.73 C 515.62 335.38 518.26 333.71 521.13 332.49 C 522.83 337.80 524.47 343.13 526.10 348.46 C 507.44 345.72 488.85 340.94 472.20 331.85 C 466.99 329.44 462.37 325.82 456.96 323.90 C 456.53 324.21 455.69 324.82 455.26 325.12 C 459.22 329.93 464.97 332.74 470.21 335.90 C 487.73 346.11 507.86 350.54 527.73 353.43 C 525.81 355.77 523.78 358.01 521.81 360.31 C 514.88 357.60 507.34 357.27 499.99 357.09 C 486.79 357.03 473.28 357.80 460.83 362.58 C 453.47 365.48 446.10 368.41 439.11 372.13 C 437.38 373.15 434.92 374.27 435.25 376.69 C 436.36 377.22 437.48 377.23 438.62 376.71 C 452.14 371.74 465.45 365.46 479.92 363.86 C 492.57 362.46 505.43 362.33 518.00 364.54 C 507.88 376.73 496.53 388.35 489.97 402.99 C 486.77 409.79 484.84 417.25 480.42 423.43 C 477.11 428.08 472.52 431.59 467.91 434.86 C 457.41 442.47 446.40 449.32 435.84 456.84 C 429.17 461.40 423.00 466.63 416.46 471.36 C 408.11 477.97 399.64 484.71 393.19 493.27 C 391.00 496.02 390.03 499.44 389.22 502.79 C 385.78 503.04 382.36 502.53 379.22 501.08 C 379.90 493.00 382.38 485.09 381.88 476.91 C 381.82 467.35 378.41 458.32 375.39 449.40 C 371.21 437.06 368.76 424.07 369.16 411.02 C 368.62 394.17 371.32 376.88 366.45 360.44 C 363.83 351.08 362.70 341.40 360.36 331.99 C 356.89 318.25 355.55 304.08 354.90 289.96 C 354.38 277.48 357.95 265.38 359.00 253.04 C 359.51 246.99 360.18 240.91 359.76 234.83 C 359.67 232.87 358.53 231.21 357.70 229.51 C 355.91 233.10 356.09 237.16 355.73 241.05 C 354.79 252.94 351.79 264.53 350.37 276.36 C 347.97 257.56 339.28 240.28 336.71 221.53 C 335.29 211.39 336.18 200.76 340.35 191.34 C 342.96 185.37 347.71 180.55 353.16 177.09 C 359.41 173.14 366.95 172.06 373.30 168.30 C 375.22 167.28 377.03 165.99 379.11 165.28 C 383.55 164.65 388.07 164.88 392.54 164.45 C 396.63 172.26 397.91 181.24 397.89 189.97 C 397.96 194.30 398.26 199.24 401.60 202.42 C 404.28 204.59 407.75 205.62 411.12 206.03 C 413.39 205.94 413.74 203.20 414.83 201.70 C 417.33 196.10 422.81 192.82 427.94 189.95 C 434.77 186.15 442.35 183.95 449.21 180.22 C 456.58 175.46 462.83 168.96 467.57 161.60 C 471.04 156.18 471.89 149.12 468.56 143.42 Z" />
		<path fill="var(--shirt-color, grey)" opacity="1.00"
			d=" M 564.38 382.37 C 568.90 375.27 571.88 367.35 574.75 359.48 C 575.82 366.96 575.41 374.51 575.85 382.02 C 576.36 391.09 579.97 399.53 583.00 407.97 C 588.78 424.65 588.89 442.67 587.00 460.05 C 586.14 469.44 584.74 478.83 585.21 488.29 C 580.48 484.18 575.97 479.80 570.92 476.08 C 566.07 472.45 560.04 470.99 554.14 470.24 C 545.69 469.22 537.25 468.10 528.80 467.12 C 523.21 466.49 517.63 465.26 511.98 465.62 C 510.42 465.79 507.41 466.44 508.93 468.55 C 522.64 470.96 536.28 473.83 550.14 475.35 C 556.37 475.98 562.87 477.11 567.93 481.09 C 573.92 485.75 579.69 490.70 585.65 495.41 C 588.12 497.10 588.94 500.02 589.68 502.76 C 578.05 499.79 565.98 499.72 554.06 499.69 C 539.86 499.83 525.65 500.39 511.51 501.76 C 500.39 503.02 489.30 504.57 478.15 505.55 C 469.95 506.10 461.81 507.64 453.57 507.14 C 460.22 497.72 466.76 488.10 474.86 479.85 C 490.95 466.40 505.88 451.61 520.93 437.01 C 537.87 420.91 551.75 401.94 564.38 382.37 Z" />
	</g>
	<g id="#2b3dcdff">
		<path fill="var(--pants-color, grey)" opacity="1.00"
			d=" M 469.86 511.36 C 494.26 509.30 518.47 505.06 543.01 504.69 C 559.15 504.54 575.86 503.20 591.43 508.36 C 594.33 517.02 596.53 525.92 597.92 534.95 C 599.88 548.58 598.93 562.38 598.27 576.07 C 598.07 580.69 597.33 585.52 599.08 589.95 C 605.50 605.43 605.64 622.53 610.39 638.46 C 613.39 646.68 615.84 655.08 617.94 663.57 C 606.41 673.81 596.76 686.16 583.94 694.93 C 572.87 703.19 558.30 705.61 544.83 703.64 C 537.98 703.07 531.48 700.75 524.88 699.03 C 520.06 687.57 516.34 675.58 510.11 664.76 C 506.41 658.24 501.08 652.72 498.23 645.73 C 496.32 641.09 494.26 636.51 491.55 632.28 C 489.13 636.44 489.54 641.46 488.14 645.96 C 485.62 654.60 483.83 663.42 482.11 672.24 C 480.77 679.31 480.28 686.53 478.32 693.48 C 471.28 694.71 464.12 695.53 456.98 694.93 C 433.94 693.09 411.22 687.65 388.02 687.73 C 379.41 687.60 370.80 687.92 362.21 688.53 C 363.13 675.33 367.64 662.79 370.84 650.06 C 372.08 645.13 372.84 640.07 372.79 634.98 C 372.87 624.21 375.62 613.73 376.47 603.04 C 377.43 591.73 377.93 580.39 377.94 569.04 C 377.66 548.47 379.04 527.86 382.37 507.55 C 384.59 507.48 386.83 507.40 389.06 507.31 C 389.53 509.28 389.61 511.45 390.74 513.20 C 392.18 514.79 394.34 513.64 396.07 513.33 C 396.55 520.63 396.04 528.14 397.86 535.28 C 399.03 539.11 403.46 538.81 406.13 536.75 C 409.01 539.19 412.64 538.07 415.14 535.68 C 418.46 538.80 421.83 535.25 424.23 532.89 C 429.22 535.42 433.12 530.46 436.65 527.69 C 442.63 523.13 446.99 516.94 451.16 510.78 C 457.27 512.48 463.64 512.17 469.86 511.36 Z" />
		<path fill="var(--socks-color, grey)" opacity="1.00"
			d=" M 445.28 730.19 C 457.09 744.13 464.41 761.09 470.91 777.98 C 475.81 793.50 484.66 807.27 492.71 821.28 C 495.93 826.91 500.01 832.10 502.56 838.09 C 505.55 851.19 495.17 865.11 482.05 866.89 C 477.43 867.56 473.78 864.19 470.68 861.29 C 461.14 852.15 451.42 843.13 440.88 835.13 C 428.68 825.91 418.77 813.81 411.54 800.37 C 406.99 792.08 401.96 784.05 396.29 776.48 C 413.80 773.08 429.08 761.46 438.61 746.59 C 441.91 741.63 443.94 735.97 445.28 730.19 Z" />
		<path fill="var(--socks-color, grey)" opacity="1.00"
			d=" M 623.97 739.32 C 628.95 747.22 634.63 754.70 638.98 763.00 C 645.40 774.93 648.58 788.28 650.57 801.60 C 653.99 823.89 657.20 846.26 658.67 868.79 C 659.54 879.36 660.74 889.91 661.80 900.47 C 662.24 904.79 663.11 909.05 664.24 913.24 C 658.88 907.12 651.47 901.68 642.92 902.27 C 635.33 903.16 629.45 908.74 624.23 913.86 C 621.83 901.83 618.15 890.11 614.53 878.41 C 604.01 843.59 593.19 808.70 578.24 775.49 C 587.81 776.29 596.98 772.13 604.37 766.36 C 613.26 759.44 620.56 750.15 623.97 739.32 Z" />
	</g>
	<g id="#4d4d4dff">
		<path fill="#4d4d4d" opacity="1.00"
			d=" M 508.39 844.88 C 511.85 849.02 515.79 852.79 518.69 857.38 C 523.86 865.26 527.16 874.50 527.53 883.96 C 527.69 889.85 523.27 894.53 518.61 897.49 C 510.17 903.07 500.90 907.16 491.97 911.85 C 484.08 915.96 477.90 922.49 470.92 927.88 C 462.29 934.67 453.64 941.48 444.41 947.44 C 437.53 951.45 430.17 955.73 421.98 955.79 C 418.04 955.96 415.21 952.40 414.42 948.88 C 412.80 941.75 415.14 934.47 417.95 927.96 C 420.03 923.07 423.29 918.82 426.91 914.97 C 434.87 906.64 439.93 896.12 447.30 887.31 C 453.47 879.14 462.16 873.55 469.96 867.13 C 474.29 870.09 479.39 873.30 484.89 871.84 C 497.66 869.40 507.33 857.68 508.39 844.88 Z" />
		<path fill="#4d4d4d" opacity="1.00"
			d=" M 635.60 911.59 C 639.12 909.16 643.60 907.46 647.85 908.95 C 655.60 910.88 659.52 918.87 666.91 921.54 C 669.89 934.96 670.98 948.88 669.37 962.56 C 667.80 969.66 665.34 977.76 658.41 981.39 C 647.65 987.79 634.63 986.07 622.74 985.30 C 613.01 984.40 602.85 984.12 593.75 980.21 C 590.00 977.91 594.02 974.02 595.81 971.84 C 606.24 960.92 611.63 946.59 618.24 933.29 C 622.16 924.82 627.78 916.86 635.60 911.59 Z" />
	</g>
</svg>