<?xml version="1.0" encoding="UTF-8" ?>
<!DOCTYPE svg PUBLIC "-//W3C//DTD SVG 1.1//EN" "http://www.w3.org/Graphics/SVG/1.1/DTD/svg11.dtd">
<svg width="1000pt" height="1000pt" viewBox="0 0 1000 1000" version="1.1" xmlns="http://www.w3.org/2000/svg">
	<g id="#020202ff">
		<path fill="#020202" opacity="1.00"
			d=" M 520.97 10.98 C 534.94 4.57 551.15 3.53 566.02 7.21 C 584.04 11.82 600.39 22.38 612.28 36.65 C 619.64 45.78 626.62 56.68 625.52 68.95 C 624.59 80.63 621.91 93.59 612.50 101.51 C 611.17 102.78 609.56 103.84 608.59 105.43 C 607.44 108.71 608.35 112.28 609.80 115.31 C 613.33 122.47 618.25 128.99 624.65 133.82 C 630.36 131.24 635.88 135.56 640.55 138.43 C 646.06 142.16 652.97 142.40 658.95 145.05 C 672.31 151.09 684.47 159.33 696.82 167.17 C 704.20 172.27 712.29 177.07 717.07 184.95 C 727.18 201.20 732.28 219.83 739.81 237.28 C 743.69 246.94 747.80 256.50 751.90 266.07 C 753.97 271.54 757.09 276.55 759.01 282.09 C 758.60 282.43 757.78 283.11 757.37 283.45 C 763.56 289.30 768.10 296.67 771.81 304.27 C 777.30 316.08 775.64 329.54 773.33 341.92 C 770.83 357.00 767.64 372.11 762.04 386.36 C 763.85 388.10 765.93 389.80 766.77 392.27 C 768.08 395.93 767.36 399.86 767.05 403.63 C 771.34 408.75 774.88 414.79 775.61 421.56 C 776.39 428.61 776.68 435.84 775.43 442.86 C 774.84 445.25 773.96 448.57 771.05 448.91 C 767.67 449.11 766.29 445.49 765.14 442.96 C 763.84 446.11 762.36 449.79 758.93 451.12 C 756.37 451.93 754.15 449.48 754.06 447.08 C 753.67 442.66 754.48 438.25 754.92 433.86 C 752.71 437.23 750.37 441.60 745.97 442.22 C 743.18 442.53 741.47 439.52 742.14 437.07 C 743.39 430.03 746.31 423.42 747.92 416.47 C 745.82 420.59 744.02 425.54 739.71 427.84 C 736.81 428.74 734.87 425.60 734.89 423.09 C 734.60 417.89 735.55 412.67 734.76 407.49 C 727.89 411.55 729.13 420.32 727.89 427.07 C 727.57 430.86 725.20 435.48 720.86 435.38 C 718.37 434.28 717.76 431.37 717.07 429.02 C 715.60 422.75 713.50 416.51 713.52 410.01 C 713.87 402.88 715.62 395.87 718.19 389.24 C 721.30 381.33 728.14 375.30 730.24 366.94 C 730.89 360.54 728.45 354.34 727.43 348.09 C 725.33 339.32 726.60 330.13 724.37 321.38 C 722.85 314.51 719.80 308.05 715.77 302.31 C 714.01 303.59 712.26 304.87 710.53 306.17 C 712.68 327.07 708.33 347.89 705.36 368.50 C 701.69 390.32 702.85 412.56 700.27 434.50 C 698.54 457.07 693.85 479.36 693.53 502.05 C 693.42 505.51 693.62 509.16 692.29 512.43 C 689.86 514.64 686.26 513.41 683.35 513.43 C 688.02 529.69 685.04 547.29 678.70 562.68 C 673.11 573.03 667.30 583.51 659.07 592.04 C 649.65 601.22 636.93 605.69 624.69 609.69 C 621.99 610.71 618.58 611.32 617.33 614.29 C 613.20 622.80 610.37 631.90 608.09 641.07 C 603.61 660.96 599.19 680.91 596.67 701.16 C 587.86 701.97 579.29 699.21 570.58 698.40 C 568.90 707.41 567.07 716.74 569.02 725.87 C 570.37 733.48 573.64 740.53 576.15 747.79 C 582.70 765.49 584.99 784.38 586.76 803.06 C 588.60 821.75 590.14 840.55 594.41 858.89 C 597.26 870.77 599.46 882.79 602.63 894.60 C 604.90 905.47 607.86 916.20 609.58 927.18 C 611.87 928.57 614.10 930.20 615.47 932.58 C 620.22 940.18 621.98 949.17 623.51 957.88 C 624.46 964.71 625.95 972.12 622.72 978.60 C 620.99 983.24 616.67 986.50 611.94 987.62 C 605.38 989.15 598.58 988.58 591.94 988.02 C 580.72 987.19 569.42 986.25 558.20 987.64 C 535.29 990.37 512.24 994.96 489.08 992.41 C 480.05 991.84 470.90 989.07 463.92 983.15 C 461.27 980.56 458.59 976.83 459.77 972.95 C 461.09 968.98 465.32 967.24 468.97 966.03 C 481.83 962.35 494.75 958.61 506.87 952.88 C 520.18 946.72 533.92 939.80 543.12 927.98 C 545.67 924.90 544.70 920.67 544.80 917.02 C 544.85 908.17 543.59 899.38 541.45 890.82 C 538.89 881.10 537.14 871.13 533.24 861.82 C 527.98 846.01 519.83 831.38 514.23 815.70 C 510.64 805.20 507.77 794.46 505.67 783.57 C 504.07 775.10 503.30 766.30 499.61 758.40 C 495.17 750.09 487.59 743.79 484.10 734.91 C 478.19 721.21 480.24 705.80 483.30 691.68 C 481.30 691.44 479.27 691.34 477.34 690.78 C 476.28 687.61 478.76 684.64 479.42 681.61 C 481.28 674.59 483.59 667.32 482.64 659.98 C 477.52 653.83 470.15 649.97 463.22 646.16 C 457.61 650.12 451.90 654.14 447.66 659.63 C 443.88 664.65 439.87 669.65 437.57 675.57 C 430.40 691.45 425.38 708.33 416.29 723.31 C 407.85 738.87 394.97 751.24 382.57 763.61 C 370.44 775.86 357.24 786.98 344.13 798.16 C 335.51 805.55 326.27 812.22 318.09 820.12 C 315.62 822.19 315.29 825.55 314.75 828.51 C 313.43 835.95 315.70 843.72 313.02 850.97 C 309.75 860.05 303.40 867.98 295.54 873.53 C 289.95 876.74 283.31 880.44 276.71 878.25 C 271.74 875.84 268.26 871.34 264.39 867.57 C 257.36 859.62 247.56 854.93 237.87 851.06 C 230.58 848.16 222.74 847.30 215.06 845.99 C 202.37 844.13 191.48 836.22 182.79 827.19 C 176.73 821.09 173.54 812.51 173.49 803.99 C 173.61 801.24 173.94 798.08 176.19 796.20 C 178.36 794.34 181.30 793.90 184.05 793.65 C 191.40 792.85 198.68 794.48 205.99 795.03 C 219.62 796.46 233.31 797.20 247.01 797.12 C 257.91 797.05 269.37 796.36 279.17 791.13 C 286.85 784.68 292.42 776.22 298.22 768.14 C 309.22 752.98 316.93 735.81 326.90 720.00 C 335.88 704.03 348.06 690.22 357.88 674.82 C 362.90 666.28 366.75 657.12 371.43 648.40 C 374.14 643.52 373.88 637.81 374.74 632.46 C 376.01 623.99 377.39 615.28 381.73 607.75 C 385.49 600.78 391.53 595.38 397.98 590.95 C 400.36 589.39 402.33 587.33 404.19 585.19 C 413.22 575.08 425.26 568.43 437.05 562.07 C 453.80 553.30 472.69 548.50 487.87 536.86 C 497.00 529.46 506.34 520.80 509.19 508.92 C 506.31 508.96 503.03 510.89 500.40 509.15 C 501.93 505.92 504.35 503.25 506.22 500.22 C 508.99 495.76 511.17 490.95 512.84 485.98 C 514.47 481.21 514.83 475.98 517.51 471.61 C 519.39 468.48 522.36 466.27 525.24 464.13 C 523.85 460.49 521.60 456.44 523.56 452.56 C 527.34 444.57 533.47 437.83 536.64 429.52 C 538.69 423.75 536.41 417.76 535.67 411.97 C 534.02 402.59 540.69 393.96 538.66 384.53 C 536.46 373.85 536.56 362.81 538.51 352.10 C 538.03 352.15 537.09 352.25 536.62 352.29 C 533.37 357.98 529.03 362.92 525.47 368.40 C 521.50 374.49 517.60 380.63 513.94 386.91 C 508.10 396.60 503.06 406.96 495.25 415.29 C 475.59 436.19 448.54 447.25 425.13 463.06 C 421.08 466.36 416.96 469.62 413.26 473.31 C 410.05 476.44 410.29 481.34 407.94 484.96 C 405.77 488.36 402.68 491.01 399.80 493.79 C 392.37 500.61 385.25 507.82 377.09 513.79 C 379.56 514.78 382.82 517.56 380.32 520.30 C 375.41 524.85 368.03 524.15 361.93 525.79 C 363.30 531.94 366.12 539.40 361.93 545.03 C 359.81 547.92 356.09 547.10 353.81 544.90 C 351.35 547.59 346.92 547.05 345.02 543.99 C 343.19 540.64 343.53 536.66 343.02 532.99 C 342.51 526.17 339.20 519.86 339.13 512.99 C 339.05 508.62 340.70 504.47 342.69 500.67 C 346.90 492.80 351.05 484.76 357.13 478.14 C 367.34 466.94 379.36 457.61 391.00 447.98 C 398.01 442.29 405.37 437.05 412.60 431.66 C 417.05 428.12 420.91 423.91 425.50 420.54 C 434.34 412.93 442.14 403.88 447.21 393.31 C 449.57 388.45 450.96 383.20 453.17 378.28 C 456.84 370.00 461.63 362.26 467.15 355.09 C 473.60 346.72 479.15 337.28 488.11 331.27 C 486.20 329.32 483.92 327.57 482.78 325.03 C 483.84 321.08 486.69 317.90 488.21 314.13 C 492.49 304.23 496.84 294.34 499.97 284.01 C 505.70 269.73 510.75 255.19 515.86 240.67 C 518.66 233.02 520.56 224.92 524.90 217.93 C 529.38 210.63 535.34 204.38 541.64 198.64 C 551.07 190.42 559.58 181.18 567.38 171.41 C 566.39 167.36 562.69 163.12 558.13 164.83 C 553.69 168.47 550.59 173.68 545.38 176.39 C 540.02 179.37 532.72 180.14 527.47 176.57 C 523.29 173.56 520.75 168.92 518.67 164.34 C 514.90 155.75 511.04 147.20 507.01 138.73 C 502.70 139.28 497.91 140.51 493.93 138.08 C 491.00 136.58 489.49 133.22 489.66 130.03 C 490.17 120.94 493.98 112.21 493.08 103.01 C 492.83 93.24 488.95 83.88 489.70 74.04 C 489.62 68.69 492.16 63.42 490.62 58.12 C 488.59 49.25 491.21 39.75 496.64 32.58 C 503.29 23.97 510.91 15.60 520.97 10.98 M 504.89 45.77 C 503.11 51.81 505.00 58.12 506.43 64.02 C 502.93 62.32 499.48 60.49 496.14 58.49 C 493.88 67.63 492.71 77.26 494.64 86.57 C 496.94 96.83 498.05 107.64 495.50 117.96 C 494.86 122.91 492.84 127.93 493.89 132.93 C 497.73 136.60 503.30 133.66 507.90 134.26 C 510.03 134.44 510.92 136.66 511.82 138.28 C 516.01 147.12 519.81 156.15 524.00 164.99 C 526.20 169.20 529.52 174.42 534.98 173.98 C 541.49 174.79 546.59 170.11 550.61 165.66 C 556.19 160.69 560.28 154.36 563.87 147.88 C 565.83 144.35 567.37 140.48 570.42 137.69 C 570.07 146.06 564.92 153.22 560.72 160.16 C 565.18 160.88 569.66 163.55 570.88 168.17 C 574.42 179.81 575.30 192.11 575.60 204.22 C 581.97 194.02 589.25 184.35 597.71 175.78 C 606.17 166.89 614.16 157.56 622.70 148.74 C 624.82 146.62 626.58 144.19 628.08 141.60 C 622.88 138.40 617.94 134.69 613.88 130.10 C 608.48 123.79 603.58 116.01 604.21 107.36 C 598.86 110.01 592.85 110.06 587.16 111.41 C 583.46 112.18 580.63 114.79 577.73 117.01 C 575.17 113.95 574.90 109.68 576.07 105.99 C 577.85 99.97 580.89 94.32 581.88 88.07 C 582.91 82.05 582.97 75.06 578.81 70.14 C 576.88 67.36 573.84 63.76 570.12 66.02 C 565.37 69.44 563.63 75.52 559.42 79.49 C 555.80 83.15 550.57 84.24 545.74 85.34 C 544.71 75.54 544.59 63.75 536.11 57.08 C 530.40 59.10 524.70 61.46 518.60 61.95 C 517.68 55.86 517.62 49.22 513.94 44.00 C 512.75 42.08 510.50 40.57 508.17 41.22 C 506.43 42.13 505.48 43.99 504.89 45.77 M 633.48 138.50 C 632.64 142.73 630.83 146.76 627.84 149.90 C 617.23 161.27 606.89 172.89 596.19 184.17 C 588.66 192.55 582.16 201.83 576.57 211.60 C 575.66 213.05 574.80 214.76 573.04 215.31 C 569.90 214.94 570.14 211.31 569.95 208.98 C 569.75 198.37 569.32 187.75 567.72 177.25 C 563.10 183.38 557.68 188.84 552.41 194.40 C 542.13 204.14 530.39 213.45 525.06 227.04 C 518.34 246.50 511.89 266.08 504.21 285.19 C 502.51 290.14 501.02 295.16 498.91 299.96 C 495.29 308.22 492.20 316.89 486.45 323.98 C 500.98 337.09 519.13 347.68 539.11 348.52 C 540.88 336.55 542.96 324.59 543.86 312.52 C 537.79 308.88 531.22 306.15 524.35 304.47 C 522.44 304.53 522.42 301.31 524.36 301.39 C 530.73 300.41 537.05 303.18 542.42 306.41 C 538.41 301.48 531.83 296.77 532.43 289.73 C 535.70 292.76 538.24 296.47 541.47 299.54 C 544.58 302.60 547.57 306.34 547.64 310.92 C 547.88 319.31 546.20 327.60 545.37 335.92 C 543.76 350.94 539.32 366.12 542.89 381.20 C 544.69 388.41 543.07 395.80 540.83 402.70 C 537.76 411.71 544.31 420.76 541.59 429.83 C 538.82 438.50 532.70 445.51 528.39 453.40 C 526.17 456.64 529.16 460.02 530.17 463.14 C 542.41 461.38 554.70 463.61 566.98 463.35 C 576.79 463.07 586.71 462.70 596.27 460.23 C 605.99 457.75 616.13 456.00 624.94 450.95 C 629.36 448.65 633.29 444.84 638.53 444.63 C 635.78 449.21 630.68 451.42 626.59 454.57 C 619.04 460.14 609.73 462.20 600.85 464.58 C 583.73 469.52 565.64 469.56 548.01 468.25 C 541.61 468.20 535.14 467.68 528.78 468.56 C 523.75 470.27 520.25 475.16 519.24 480.27 C 517.38 488.95 513.67 497.16 508.57 504.41 C 524.89 501.07 541.55 503.14 558.03 502.94 C 582.70 502.84 607.35 503.73 632.00 504.19 C 650.84 505.44 669.90 505.26 688.41 509.54 C 688.38 505.24 688.60 500.94 688.86 496.65 C 684.44 493.06 679.19 490.73 673.75 489.15 C 654.05 483.40 633.34 483.11 613.02 481.65 C 613.03 481.08 613.04 479.95 613.04 479.39 C 619.59 478.01 626.32 478.41 632.96 478.54 C 644.43 479.07 655.89 480.20 667.16 482.47 C 675.16 484.24 683.25 486.69 689.83 491.79 C 690.46 483.85 690.83 475.89 692.03 468.01 C 694.07 453.74 695.41 439.39 696.64 425.04 C 698.10 409.09 697.56 393.02 699.52 377.12 C 702.05 357.57 706.34 338.22 707.06 318.47 C 704.91 326.64 702.90 334.84 700.86 343.03 C 698.35 353.40 694.71 363.45 691.78 373.70 C 690.25 378.99 690.42 384.54 689.94 389.97 C 688.71 403.65 688.34 417.46 685.24 430.89 C 683.93 435.66 684.49 441.47 680.85 445.23 C 682.42 428.84 684.25 412.47 685.30 396.03 C 686.29 387.43 685.71 378.57 688.37 370.24 C 691.09 360.76 694.28 351.42 696.66 341.85 C 699.33 331.20 702.12 320.58 705.58 310.16 C 703.20 311.84 700.71 313.36 698.09 314.64 C 694.64 310.47 691.49 306.06 687.95 301.96 C 681.09 293.91 673.35 286.67 665.40 279.72 C 645.44 287.57 629.32 302.55 615.90 318.90 C 609.50 326.61 604.97 335.58 600.88 344.65 C 598.44 339.83 601.31 334.80 603.34 330.42 C 608.62 320.18 615.19 310.52 623.49 302.48 C 634.67 291.73 647.57 282.40 662.27 277.12 C 659.01 274.88 655.79 272.54 652.25 270.75 C 650.14 269.63 647.72 268.77 646.42 266.61 C 653.15 266.02 658.96 270.14 664.41 273.50 C 678.13 283.27 689.36 296.08 699.42 309.48 C 704.20 303.79 710.36 299.56 716.37 295.29 C 727.47 287.36 740.17 280.91 753.92 279.62 C 750.14 272.90 747.48 265.65 744.40 258.61 C 739.26 246.35 733.92 234.16 729.22 221.73 C 724.94 209.91 719.95 198.29 713.48 187.49 C 708.44 178.90 699.28 174.22 691.47 168.56 C 677.50 159.38 663.56 148.97 646.88 145.42 C 641.86 144.36 637.60 141.41 633.48 138.50 M 719.67 299.45 C 724.66 306.76 728.16 315.13 729.53 323.89 C 730.98 331.52 730.40 339.36 731.99 346.97 C 733.03 353.96 735.66 360.91 734.61 368.05 C 732.81 376.37 726.84 382.82 722.93 390.15 C 719.90 396.67 718.22 403.86 718.17 411.06 C 718.66 417.69 720.36 424.18 722.05 430.60 C 725.66 423.73 723.12 415.09 727.65 408.56 C 729.15 406.05 731.88 404.81 734.48 403.77 C 733.80 400.47 732.47 397.34 730.24 394.80 C 729.66 393.73 727.95 392.36 729.20 391.14 C 732.80 390.64 735.74 393.90 736.93 396.99 C 739.98 405.20 739.18 414.11 739.28 422.70 C 743.15 417.70 745.85 411.89 747.94 405.95 C 748.83 403.72 748.55 401.03 750.02 399.09 C 752.94 399.34 753.16 402.75 753.34 405.00 C 753.85 416.67 748.36 427.32 746.01 438.49 C 754.58 430.97 756.32 419.04 758.44 408.48 C 758.83 408.26 759.61 407.82 760.00 407.60 C 762.94 408.69 762.20 412.52 762.22 415.01 C 760.88 425.75 757.67 436.30 758.07 447.22 C 764.28 439.41 763.86 428.84 764.72 419.42 C 764.81 417.52 766.48 416.75 768.04 417.89 C 770.26 426.95 766.79 436.72 770.38 445.49 C 772.77 441.05 772.54 435.86 772.52 430.98 C 772.29 424.95 772.01 418.59 768.84 413.27 C 767.29 410.25 764.80 407.86 763.19 404.90 C 762.73 401.28 764.22 397.57 763.10 394.00 C 762.17 391.35 759.26 390.26 757.77 388.02 C 757.83 384.39 759.97 381.21 760.87 377.76 C 763.94 365.99 767.01 354.18 768.74 342.12 C 770.74 330.51 772.83 317.98 768.06 306.76 C 764.24 298.35 759.11 290.51 752.78 283.78 C 740.80 286.66 729.66 292.31 719.67 299.45 M 468.66 360.66 C 464.33 366.56 460.45 372.83 457.52 379.55 C 455.34 384.49 453.94 389.73 451.57 394.59 C 448.09 401.73 443.71 408.47 438.24 414.25 C 427.55 426.44 413.55 434.94 400.89 444.86 C 388.26 454.82 375.75 465.00 364.32 476.34 C 355.29 485.24 348.36 496.20 344.25 508.19 C 342.44 514.20 345.18 520.19 346.38 526.04 C 347.67 530.82 347.40 535.84 348.51 540.64 C 348.80 542.34 351.01 541.98 352.23 542.48 C 349.60 534.24 346.33 525.87 346.93 517.07 C 352.18 525.00 352.46 535.41 358.17 543.17 C 359.18 541.26 360.12 539.20 359.66 536.99 C 358.59 527.64 353.90 519.29 350.65 510.60 C 349.68 507.47 348.06 504.01 349.57 500.79 C 351.28 497.07 354.21 493.47 358.38 492.51 C 357.36 496.33 353.89 499.05 353.32 503.01 C 354.00 507.18 356.02 510.97 357.37 514.95 C 359.16 508.09 363.59 502.40 367.84 496.89 C 370.41 494.03 373.04 489.69 377.53 490.53 C 372.79 498.58 366.78 505.95 363.19 514.65 C 372.76 512.53 379.40 504.65 386.69 498.69 C 391.84 493.86 397.35 489.41 402.37 484.44 C 406.18 480.92 405.77 475.04 409.35 471.34 C 413.64 466.57 419.04 462.97 423.87 458.78 C 439.24 447.40 456.85 439.50 472.35 428.32 C 482.66 420.82 492.77 412.52 499.63 401.60 C 510.08 384.90 519.02 367.01 532.33 352.29 C 516.84 350.65 502.81 342.79 490.74 333.34 C 482.16 341.42 475.71 351.31 468.66 360.66 M 512.91 508.59 C 512.09 514.30 510.00 519.82 506.49 524.43 C 496.37 537.78 482.11 547.47 466.68 553.72 C 449.11 560.96 431.41 568.50 416.04 579.88 C 411.43 583.42 406.63 586.91 403.24 591.72 C 405.32 596.35 408.14 600.64 411.64 604.32 C 420.78 614.31 431.01 623.45 442.73 630.30 C 453.65 637.04 465.92 641.27 476.61 648.42 C 481.50 651.71 487.23 655.59 488.00 661.96 C 489.11 671.13 484.86 679.73 480.65 687.58 C 501.07 684.25 521.84 686.57 542.25 688.81 C 559.43 691.06 576.62 693.38 593.61 696.82 C 594.37 682.75 596.52 668.80 599.64 655.07 C 602.45 640.71 605.95 626.37 612.07 613.03 C 613.53 609.70 616.29 606.98 619.84 606.00 C 632.61 601.73 646.38 598.00 656.23 588.25 C 663.68 580.82 668.15 571.21 673.00 562.03 C 679.96 546.60 682.74 529.01 678.88 512.37 C 662.38 509.83 645.64 509.46 629.00 508.61 C 604.67 508.85 580.34 507.42 556.01 508.09 C 541.64 508.35 527.24 507.07 512.91 508.59 M 370.68 517.81 C 367.14 519.66 362.90 520.77 359.18 518.70 C 359.59 519.73 360.00 520.75 360.46 521.78 C 366.06 520.57 371.97 520.52 377.24 518.11 C 375.11 517.60 372.75 516.49 370.68 517.81 M 386.37 609.42 C 379.99 619.80 379.82 632.37 377.91 644.06 C 377.31 646.35 378.30 648.60 379.19 650.68 C 382.32 657.52 388.27 662.73 394.91 666.09 C 407.64 672.64 423.32 673.17 436.42 667.31 C 439.36 662.16 442.37 656.94 446.63 652.74 C 450.13 649.06 454.66 646.66 458.94 644.04 C 453.24 641.53 447.58 638.92 442.19 635.80 C 428.61 628.32 416.88 617.86 406.81 606.16 C 404.05 602.89 402.05 599.10 400.19 595.28 C 394.98 599.33 389.69 603.59 386.37 609.42 M 359.38 681.38 C 354.26 688.87 348.96 696.23 343.46 703.44 C 333.06 718.17 324.11 733.89 315.92 749.94 C 310.19 761.13 302.99 771.48 295.38 781.46 C 292.34 785.48 288.93 789.24 284.84 792.22 C 290.58 799.33 292.37 808.52 294.44 817.19 C 295.37 821.29 295.77 826.51 299.96 828.74 C 304.55 828.54 307.61 824.58 310.50 821.50 C 315.40 815.70 321.02 810.57 326.91 805.79 C 351.49 785.59 375.70 764.74 396.93 740.96 C 407.98 728.73 415.51 713.82 421.72 698.67 C 424.96 690.10 428.92 681.82 433.04 673.64 C 421.52 678.08 408.42 677.61 397.05 672.97 C 387.37 669.09 378.84 661.78 374.79 652.02 C 369.58 661.77 365.64 672.22 359.38 681.38 M 488.38 691.52 C 485.84 704.43 483.20 718.31 487.75 731.10 C 491.22 741.28 500.28 748.05 504.89 757.60 C 507.53 755.24 510.42 753.14 513.68 751.71 C 525.02 746.56 537.68 744.80 550.06 745.44 C 557.83 745.73 565.60 747.27 572.76 750.37 C 569.82 741.99 566.01 733.87 564.41 725.08 C 562.54 716.03 564.10 706.75 565.79 697.80 C 554.51 696.36 543.27 694.53 531.91 693.78 C 517.51 691.66 502.92 691.15 488.38 691.52 M 506.61 762.61 C 508.87 770.23 509.85 778.13 511.55 785.88 C 515.01 802.33 520.36 818.35 527.38 833.63 C 533.16 845.69 537.76 858.29 541.81 871.04 C 544.10 880.90 547.09 890.63 548.63 900.66 C 550.02 909.35 549.27 918.17 549.25 926.93 C 553.54 929.05 557.41 931.90 560.95 935.11 C 566.31 939.98 572.58 943.78 579.13 946.84 C 583.81 949.03 589.25 949.79 594.24 948.18 C 598.11 946.88 602.58 945.07 603.98 940.84 C 608.12 931.20 603.91 920.87 601.78 911.29 C 598.67 896.32 594.63 881.57 591.60 866.58 C 587.30 849.35 584.85 831.73 583.30 814.06 C 581.59 794.82 580.19 775.38 574.79 756.74 C 562.81 750.82 549.03 749.77 535.92 751.22 C 525.46 752.43 514.31 754.89 506.61 762.61 M 237.04 802.13 C 220.89 801.93 204.94 799.25 188.92 797.67 C 185.50 797.71 180.69 797.22 178.68 800.59 C 176.36 808.98 180.00 818.06 185.96 824.09 C 193.81 832.20 203.55 839.46 215.01 841.07 C 223.26 842.32 231.65 843.38 239.46 846.50 C 246.79 849.46 254.14 852.73 260.39 857.66 C 266.32 862.37 270.84 868.68 277.08 873.03 C 279.91 875.04 283.53 873.82 286.47 872.72 C 296.13 869.11 303.51 860.91 307.76 851.70 C 311.25 844.32 308.93 835.98 310.47 828.21 C 307.26 830.91 303.50 834.16 298.97 833.33 C 294.53 832.29 291.71 828.01 290.46 823.89 C 287.76 814.22 286.26 803.88 280.46 795.43 C 267.26 802.85 251.67 802.23 237.04 802.13 M 530.24 946.19 C 520.63 951.39 511.04 956.69 500.95 960.91 C 490.68 965.33 479.69 967.69 469.09 971.12 C 466.95 972.00 463.08 973.40 464.45 976.40 C 467.42 982.31 474.37 984.75 480.29 986.65 C 502.05 990.82 524.33 988.02 546.04 984.93 C 558.58 982.88 571.31 982.24 584.00 982.98 C 593.42 982.99 603.17 985.34 612.35 982.30 C 617.85 980.50 620.57 974.51 619.95 969.02 C 619.11 956.57 616.48 943.91 610.29 932.95 C 609.58 937.22 609.19 941.89 606.43 945.44 C 602.63 950.15 597.10 953.72 590.96 954.22 C 582.39 955.28 574.41 951.06 567.34 946.74 C 559.99 942.45 554.54 935.61 547.02 931.57 C 542.41 937.46 536.82 942.58 530.24 946.19 Z" />
		<path fill="#020202" opacity="1.00"
			d=" M 495.40 80.03 C 503.55 75.84 513.12 75.94 522.01 77.00 C 526.82 77.83 532.18 78.68 535.78 82.28 C 536.23 83.99 536.07 85.87 535.34 87.48 C 531.97 89.33 527.94 89.19 524.29 90.15 C 523.28 91.45 522.70 93.41 520.92 93.82 C 516.31 95.02 512.91 98.52 508.88 100.82 C 508.17 97.47 508.31 93.94 507.20 90.69 C 505.23 87.65 500.15 89.01 498.43 85.63 C 497.29 83.83 496.32 81.94 495.40 80.03 Z" />
		<path fill="#020202" opacity="1.00"
			d=" M 635.14 376.08 C 638.97 369.54 637.37 361.56 640.14 354.68 C 641.88 357.86 641.38 361.55 641.33 365.03 C 641.19 369.35 640.90 373.85 638.80 377.73 C 632.32 390.32 621.77 400.09 611.27 409.29 C 602.72 416.78 593.99 424.12 584.58 430.51 C 574.45 437.58 564.22 445.37 551.99 448.27 C 546.89 449.75 542.17 445.42 541.57 440.51 C 544.94 440.29 546.48 445.07 550.00 444.44 C 557.10 443.11 563.39 439.19 569.45 435.43 C 579.93 428.34 590.43 421.20 600.02 412.91 C 612.89 401.88 626.61 391.05 635.14 376.08 Z" />
		<path fill="#020202" opacity="1.00"
			d=" M 565.20 368.20 C 568.03 365.20 571.17 362.00 575.48 361.44 C 573.60 365.36 570.17 368.13 567.33 371.31 C 560.41 378.88 554.28 387.17 548.95 395.94 C 547.83 397.74 546.60 399.46 545.18 401.03 C 545.69 396.16 548.60 392.08 551.05 388.00 C 555.42 381.17 559.75 374.24 565.20 368.20 Z" />
		<path fill="#020202" opacity="1.00"
			d=" M 549.68 399.76 C 554.22 395.39 558.20 390.36 563.38 386.70 C 563.54 390.85 560.51 394.00 557.88 396.83 C 552.64 401.73 546.93 406.16 540.98 410.16 C 542.50 405.70 546.62 403.08 549.68 399.76 Z" />
	</g>
	<g id="#f0b58bff">
		<path fill="#f0b58b" opacity="1.00"
			d=" M 504.89 45.77 C 505.48 43.99 506.43 42.13 508.17 41.22 C 510.50 40.57 512.75 42.08 513.94 44.00 C 517.62 49.22 517.68 55.86 518.60 61.95 C 524.70 61.46 530.40 59.10 536.11 57.08 C 544.59 63.75 544.71 75.54 545.74 85.34 C 550.57 84.24 555.80 83.15 559.42 79.49 C 563.63 75.52 565.37 69.44 570.12 66.02 C 573.84 63.76 576.88 67.36 578.81 70.14 C 582.97 75.06 582.91 82.05 581.88 88.07 C 580.89 94.32 577.85 99.97 576.07 105.99 C 574.90 109.68 575.17 113.95 577.73 117.01 C 580.63 114.79 583.46 112.18 587.16 111.41 C 592.85 110.06 598.86 110.01 604.21 107.36 C 603.58 116.01 608.48 123.79 613.88 130.10 C 617.94 134.69 622.88 138.40 628.08 141.60 C 626.58 144.19 624.82 146.62 622.70 148.74 C 614.16 157.56 606.17 166.89 597.71 175.78 C 589.25 184.35 581.97 194.02 575.60 204.22 C 575.30 192.11 574.42 179.81 570.88 168.17 C 569.66 163.55 565.18 160.88 560.72 160.16 C 564.92 153.22 570.07 146.06 570.42 137.69 C 567.37 140.48 565.83 144.35 563.87 147.88 C 560.28 154.36 556.19 160.69 550.61 165.66 C 546.59 170.11 541.49 174.79 534.98 173.98 C 529.52 174.42 526.20 169.20 524.00 164.99 C 519.81 156.15 516.01 147.12 511.82 138.28 C 510.92 136.66 510.03 134.44 507.90 134.26 C 503.30 133.66 497.73 136.60 493.89 132.93 C 492.84 127.93 494.86 122.91 495.50 117.96 C 498.05 107.64 496.94 96.83 494.64 86.57 C 492.71 77.26 493.88 67.63 496.14 58.49 C 499.48 60.49 502.93 62.32 506.43 64.02 C 505.00 58.12 503.11 51.81 504.89 45.77 M 495.40 80.03 C 496.32 81.94 497.29 83.83 498.43 85.63 C 500.15 89.01 505.23 87.65 507.20 90.69 C 508.31 93.94 508.17 97.47 508.88 100.82 C 512.91 98.52 516.31 95.02 520.92 93.82 C 522.70 93.41 523.28 91.45 524.29 90.15 C 527.94 89.19 531.97 89.33 535.34 87.48 C 536.07 85.87 536.23 83.99 535.78 82.28 C 532.18 78.68 526.82 77.83 522.01 77.00 C 513.12 75.94 503.55 75.84 495.40 80.03 Z" />
		<path fill="#f0b58b" opacity="1.00"
			d=" M 719.67 299.45 C 729.66 292.31 740.80 286.66 752.78 283.78 C 759.11 290.51 764.24 298.35 768.06 306.76 C 772.83 317.98 770.74 330.51 768.74 342.12 C 767.01 354.18 763.94 365.99 760.87 377.76 C 759.97 381.21 757.83 384.39 757.77 388.02 C 759.26 390.26 762.17 391.35 763.10 394.00 C 764.22 397.57 762.73 401.28 763.19 404.90 C 764.80 407.86 767.29 410.25 768.84 413.27 C 772.01 418.59 772.29 424.95 772.52 430.98 C 772.54 435.86 772.77 441.05 770.38 445.49 C 766.79 436.72 770.26 426.95 768.04 417.89 C 766.48 416.75 764.81 417.52 764.72 419.42 C 763.86 428.84 764.28 439.41 758.07 447.22 C 757.67 436.30 760.88 425.75 762.22 415.01 C 762.20 412.52 762.94 408.69 760.00 407.60 C 759.61 407.82 758.83 408.26 758.44 408.48 C 756.32 419.04 754.58 430.97 746.01 438.49 C 748.36 427.32 753.85 416.67 753.34 405.00 C 753.16 402.75 752.94 399.34 750.02 399.09 C 748.55 401.03 748.83 403.72 747.94 405.95 C 745.85 411.89 743.15 417.70 739.28 422.70 C 739.18 414.11 739.98 405.20 736.93 396.99 C 735.74 393.90 732.80 390.64 729.20 391.14 C 727.95 392.36 729.66 393.73 730.24 394.80 C 732.47 397.34 733.80 400.47 734.48 403.77 C 731.88 404.81 729.15 406.05 727.65 408.56 C 723.12 415.09 725.66 423.73 722.05 430.60 C 720.36 424.18 718.66 417.69 718.17 411.06 C 718.22 403.86 719.90 396.67 722.93 390.15 C 726.84 382.82 732.81 376.37 734.61 368.05 C 735.66 360.91 733.03 353.96 731.99 346.97 C 730.40 339.36 730.98 331.52 729.53 323.89 C 728.16 315.13 724.66 306.76 719.67 299.45 Z" />
		<path fill="#f0b58b" opacity="1.00"
			d=" M 468.66 360.66 C 475.71 351.31 482.16 341.42 490.74 333.34 C 502.81 342.79 516.84 350.65 532.33 352.29 C 519.02 367.01 510.08 384.90 499.63 401.60 C 492.77 412.52 482.66 420.82 472.35 428.32 C 456.85 439.50 439.24 447.40 423.87 458.78 C 419.04 462.97 413.64 466.57 409.35 471.34 C 405.77 475.04 406.18 480.92 402.37 484.44 C 397.35 489.41 391.84 493.86 386.69 498.69 C 379.40 504.65 372.76 512.53 363.19 514.65 C 366.78 505.95 372.79 498.58 377.53 490.53 C 373.04 489.69 370.41 494.03 367.84 496.89 C 363.59 502.40 359.16 508.09 357.37 514.95 C 356.02 510.97 354.00 507.18 353.32 503.01 C 353.89 499.05 357.36 496.33 358.38 492.51 C 354.21 493.47 351.28 497.07 349.57 500.79 C 348.06 504.01 349.68 507.47 350.65 510.60 C 353.90 519.29 358.59 527.64 359.66 536.99 C 360.12 539.20 359.18 541.26 358.17 543.17 C 352.46 535.41 352.18 525.00 346.93 517.07 C 346.33 525.87 349.60 534.24 352.23 542.48 C 351.01 541.98 348.80 542.34 348.51 540.64 C 347.40 535.84 347.67 530.82 346.38 526.04 C 345.18 520.19 342.44 514.20 344.25 508.19 C 348.36 496.20 355.29 485.24 364.32 476.34 C 375.75 465.00 388.26 454.82 400.89 444.86 C 413.55 434.94 427.55 426.44 438.24 414.25 C 443.71 408.47 448.09 401.73 451.57 394.59 C 453.94 389.73 455.34 384.49 457.52 379.55 C 460.45 372.83 464.33 366.56 468.66 360.66 Z" />
		<path fill="#f0b58b" opacity="1.00"
			d=" M 370.68 517.81 C 372.75 516.49 375.11 517.60 377.24 518.11 C 371.97 520.52 366.06 520.57 360.46 521.78 C 360.00 520.75 359.59 519.73 359.18 518.70 C 362.90 520.77 367.14 519.66 370.68 517.81 Z" />
		<path fill="#f0b58b" opacity="1.00"
			d=" M 386.37 609.42 C 389.69 603.59 394.98 599.33 400.19 595.28 C 402.05 599.10 404.05 602.89 406.81 606.16 C 416.88 617.86 428.61 628.32 442.19 635.80 C 447.58 638.92 453.24 641.53 458.94 644.04 C 454.66 646.66 450.13 649.06 446.63 652.74 C 442.37 656.94 439.36 662.16 436.42 667.31 C 423.32 673.17 407.64 672.64 394.91 666.09 C 388.27 662.73 382.32 657.52 379.19 650.68 C 378.30 648.60 377.31 646.35 377.91 644.06 C 379.82 632.37 379.99 619.80 386.37 609.42 Z" />
		<path fill="#f0b58b" opacity="1.00"
			d=" M 488.38 691.52 C 502.92 691.15 517.51 691.66 531.91 693.78 C 543.27 694.53 554.51 696.36 565.79 697.80 C 564.10 706.75 562.54 716.03 564.41 725.08 C 566.01 733.87 569.82 741.99 572.76 750.37 C 565.60 747.27 557.83 745.73 550.06 745.44 C 537.68 744.80 525.02 746.56 513.68 751.71 C 510.42 753.14 507.53 755.24 504.89 757.60 C 500.28 748.05 491.22 741.28 487.75 731.10 C 483.20 718.31 485.84 704.43 488.38 691.52 Z" />
	</g>
	<g id="#f11b27ff">
		<path fill="var(--shirt-color, grey)" opacity="1.00"
			d=" M 633.48 138.50 C 637.60 141.41 641.86 144.36 646.88 145.42 C 663.56 148.97 677.50 159.38 691.47 168.56 C 699.28 174.22 708.44 178.90 713.48 187.49 C 719.95 198.29 724.94 209.91 729.22 221.73 C 733.92 234.16 739.26 246.35 744.40 258.61 C 747.48 265.65 750.14 272.90 753.92 279.62 C 740.17 280.91 727.47 287.36 716.37 295.29 C 710.36 299.56 704.20 303.79 699.42 309.48 C 689.36 296.08 678.13 283.27 664.41 273.50 C 658.96 270.14 653.15 266.02 646.42 266.61 C 647.72 268.77 650.14 269.63 652.25 270.75 C 655.79 272.54 659.01 274.88 662.27 277.12 C 647.57 282.40 634.67 291.73 623.49 302.48 C 615.19 310.52 608.62 320.18 603.34 330.42 C 601.31 334.80 598.44 339.83 600.88 344.65 C 604.97 335.58 609.50 326.61 615.90 318.90 C 629.32 302.55 645.44 287.57 665.40 279.72 C 673.35 286.67 681.09 293.91 687.95 301.96 C 691.49 306.06 694.64 310.47 698.09 314.64 C 700.71 313.36 703.20 311.84 705.58 310.16 C 702.12 320.58 699.33 331.20 696.66 341.85 C 694.28 351.42 691.09 360.76 688.37 370.24 C 685.71 378.57 686.29 387.43 685.30 396.03 C 684.25 412.47 682.42 428.84 680.85 445.23 C 684.49 441.47 683.93 435.66 685.24 430.89 C 688.34 417.46 688.71 403.65 689.94 389.97 C 690.42 384.54 690.25 378.99 691.78 373.70 C 694.71 363.45 698.35 353.40 700.86 343.03 C 702.90 334.84 704.91 326.64 707.06 318.47 C 706.34 338.22 702.05 357.57 699.52 377.12 C 697.56 393.02 698.10 409.09 696.64 425.04 C 695.41 439.39 694.07 453.74 692.03 468.01 C 690.83 475.89 690.46 483.85 689.83 491.79 C 683.25 486.69 675.16 484.24 667.16 482.47 C 655.89 480.20 644.43 479.07 632.96 478.54 C 626.32 478.41 619.59 478.01 613.04 479.39 C 613.04 479.95 613.03 481.08 613.02 481.65 C 633.34 483.11 654.05 483.40 673.75 489.15 C 679.19 490.73 684.44 493.06 688.86 496.65 C 688.60 500.94 688.38 505.24 688.41 509.54 C 669.90 505.26 650.84 505.44 632.00 504.19 C 607.35 503.73 582.70 502.84 558.03 502.94 C 541.55 503.14 524.89 501.07 508.57 504.41 C 513.67 497.16 517.38 488.95 519.24 480.27 C 520.25 475.16 523.75 470.27 528.78 468.56 C 535.14 467.68 541.61 468.20 548.01 468.25 C 565.64 469.56 583.73 469.52 600.85 464.58 C 609.73 462.20 619.04 460.14 626.59 454.57 C 630.68 451.42 635.78 449.21 638.53 444.63 C 633.29 444.84 629.36 448.65 624.94 450.95 C 616.13 456.00 605.99 457.75 596.27 460.23 C 586.71 462.70 576.79 463.07 566.98 463.35 C 554.70 463.61 542.41 461.38 530.17 463.14 C 529.16 460.02 526.17 456.64 528.39 453.40 C 532.70 445.51 538.82 438.50 541.59 429.83 C 544.31 420.76 537.76 411.71 540.83 402.70 C 543.07 395.80 544.69 388.41 542.89 381.20 C 539.32 366.12 543.76 350.94 545.37 335.92 C 546.20 327.60 547.88 319.31 547.64 310.92 C 547.57 306.34 544.58 302.60 541.47 299.54 C 538.24 296.47 535.70 292.76 532.43 289.73 C 531.83 296.77 538.41 301.48 542.42 306.41 C 537.05 303.18 530.73 300.41 524.36 301.39 C 522.42 301.31 522.44 304.53 524.35 304.47 C 531.22 306.15 537.79 308.88 543.86 312.52 C 542.96 324.59 540.88 336.55 539.11 348.52 C 519.13 347.68 500.98 337.09 486.45 323.98 C 492.20 316.89 495.29 308.22 498.91 299.96 C 501.02 295.16 502.51 290.14 504.21 285.19 C 511.89 266.08 518.34 246.50 525.06 227.04 C 530.39 213.45 542.13 204.14 552.41 194.40 C 557.68 188.84 563.10 183.38 567.72 177.25 C 569.32 187.75 569.75 198.37 569.95 208.98 C 570.14 211.31 569.90 214.94 573.04 215.31 C 574.80 214.76 575.66 213.05 576.57 211.60 C 582.16 201.83 588.66 192.55 596.19 184.17 C 606.89 172.89 617.23 161.27 627.84 149.90 C 630.83 146.76 632.64 142.73 633.48 138.50 M 635.14 376.08 C 626.61 391.05 612.89 401.88 600.02 412.91 C 590.43 421.20 579.93 428.34 569.45 435.43 C 563.39 439.19 557.10 443.11 550.00 444.44 C 546.48 445.07 544.94 440.29 541.57 440.51 C 542.17 445.42 546.89 449.75 551.99 448.27 C 564.22 445.37 574.45 437.58 584.58 430.51 C 593.99 424.12 602.72 416.78 611.27 409.29 C 621.77 400.09 632.32 390.32 638.80 377.73 C 640.90 373.85 641.19 369.35 641.33 365.03 C 641.38 361.55 641.88 357.86 640.14 354.68 C 637.37 361.56 638.97 369.54 635.14 376.08 M 565.20 368.20 C 559.75 374.24 555.42 381.17 551.05 388.00 C 548.60 392.08 545.69 396.16 545.18 401.03 C 546.60 399.46 547.83 397.74 548.95 395.94 C 554.28 387.17 560.41 378.88 567.33 371.31 C 570.17 368.13 573.60 365.36 575.48 361.44 C 571.17 362.00 568.03 365.20 565.20 368.20 M 549.68 399.76 C 546.62 403.08 542.50 405.70 540.98 410.16 C 546.93 406.16 552.64 401.73 557.88 396.83 C 560.51 394.00 563.54 390.85 563.38 386.70 C 558.20 390.36 554.22 395.39 549.68 399.76 Z" />
	</g>
	<g id="#2b3dcdff">
		<path fill="var(--pants-color, grey)" opacity="1.00"
			d=" M 512.91 508.59 C 527.24 507.07 541.64 508.35 556.01 508.09 C 580.34 507.42 604.67 508.85 629.00 508.61 C 645.64 509.46 662.38 509.83 678.88 512.37 C 682.74 529.01 679.96 546.60 673.00 562.03 C 668.15 571.21 663.68 580.82 656.23 588.25 C 646.38 598.00 632.61 601.73 619.84 606.00 C 616.29 606.98 613.53 609.70 612.07 613.03 C 605.95 626.37 602.45 640.71 599.64 655.07 C 596.52 668.80 594.37 682.75 593.61 696.82 C 576.62 693.38 559.43 691.06 542.25 688.81 C 521.84 686.57 501.07 684.25 480.65 687.58 C 484.86 679.73 489.11 671.13 488.00 661.96 C 487.23 655.59 481.50 651.71 476.61 648.42 C 465.92 641.27 453.65 637.04 442.73 630.30 C 431.01 623.45 420.78 614.31 411.64 604.32 C 408.14 600.64 405.32 596.35 403.24 591.72 C 406.63 586.91 411.43 583.42 416.04 579.88 C 431.41 568.50 449.11 560.96 466.68 553.72 C 482.11 547.47 496.37 537.78 506.49 524.43 C 510.00 519.82 512.09 514.30 512.91 508.59 Z" />
		<path fill="var(--socks-color, grey)" opacity="1.00"
			d=" M 359.38 681.38 C 365.64 672.22 369.58 661.77 374.79 652.02 C 378.84 661.78 387.37 669.09 397.05 672.97 C 408.42 677.61 421.52 678.08 433.04 673.64 C 428.92 681.82 424.96 690.10 421.72 698.67 C 415.51 713.82 407.98 728.73 396.93 740.96 C 375.70 764.74 351.49 785.59 326.91 805.79 C 321.02 810.57 315.40 815.70 310.50 821.50 C 307.61 824.58 304.55 828.54 299.96 828.74 C 295.77 826.51 295.37 821.29 294.44 817.19 C 292.37 808.52 290.58 799.33 284.84 792.22 C 288.93 789.24 292.34 785.48 295.38 781.46 C 302.99 771.48 310.19 761.13 315.92 749.94 C 324.11 733.89 333.06 718.17 343.46 703.44 C 348.96 696.23 354.26 688.87 359.38 681.38 Z" />
		<path fill="var(--socks-color, grey)" opacity="1.00"
			d=" M 506.61 762.61 C 514.31 754.89 525.46 752.43 535.92 751.22 C 549.03 749.77 562.81 750.82 574.79 756.74 C 580.19 775.38 581.59 794.82 583.30 814.06 C 584.85 831.73 587.30 849.35 591.60 866.58 C 594.63 881.57 598.67 896.32 601.78 911.29 C 603.91 920.87 608.12 931.20 603.98 940.84 C 602.58 945.07 598.11 946.88 594.24 948.18 C 589.25 949.79 583.81 949.03 579.13 946.84 C 572.58 943.78 566.31 939.98 560.95 935.11 C 557.41 931.90 553.54 929.05 549.25 926.93 C 549.27 918.17 550.02 909.35 548.63 900.66 C 547.09 890.63 544.10 880.90 541.81 871.04 C 537.76 858.29 533.16 845.69 527.38 833.63 C 520.36 818.35 515.01 802.33 511.55 785.88 C 509.85 778.13 508.87 770.23 506.61 762.61 Z" />
	</g>
	<g id="#4d4d4dff">
		<path fill="#4d4d4d" opacity="1.00"
			d=" M 237.04 802.13 C 251.67 802.23 267.26 802.85 280.46 795.43 C 286.26 803.88 287.76 814.22 290.46 823.89 C 291.71 828.01 294.53 832.29 298.97 833.33 C 303.50 834.16 307.26 830.91 310.47 828.21 C 308.93 835.98 311.25 844.32 307.76 851.70 C 303.51 860.91 296.13 869.11 286.47 872.72 C 283.53 873.82 279.91 875.04 277.08 873.03 C 270.84 868.68 266.32 862.37 260.39 857.66 C 254.14 852.73 246.79 849.46 239.46 846.50 C 231.65 843.38 223.26 842.32 215.01 841.07 C 203.55 839.46 193.81 832.20 185.96 824.09 C 180.00 818.06 176.36 808.98 178.68 800.59 C 180.69 797.22 185.50 797.71 188.92 797.67 C 204.94 799.25 220.89 801.93 237.04 802.13 Z" />
		<path fill="#4d4d4d" opacity="1.00"
			d=" M 530.24 946.19 C 536.82 942.58 542.41 937.46 547.02 931.57 C 554.54 935.61 559.99 942.45 567.34 946.74 C 574.41 951.06 582.39 955.28 590.96 954.22 C 597.10 953.72 602.63 950.15 606.43 945.44 C 609.19 941.89 609.58 937.22 610.29 932.95 C 616.48 943.91 619.11 956.57 619.95 969.02 C 620.57 974.51 617.85 980.50 612.35 982.30 C 603.17 985.34 593.42 982.99 584.00 982.98 C 571.31 982.24 558.58 982.88 546.04 984.93 C 524.33 988.02 502.05 990.82 480.29 986.65 C 474.37 984.75 467.42 982.31 464.45 976.40 C 463.08 973.40 466.95 972.00 469.09 971.12 C 479.69 967.69 490.68 965.33 500.95 960.91 C 511.04 956.69 520.63 951.39 530.24 946.19 Z" />
	</g>
</svg>