<svg xmlns="http://www.w3.org/2000/svg" viewBox="0 0 28 38" enable-background="new 0 0 28 38" width="28" height="38">
 <g fill="#fbb044">
  <path d="m15 16.2c-.7-.8.5-2.2 1.7-1.8 6.4 6.5 4.8 4.8 7.6 7.6 2.2-.2 3.1-.7 3.4-.9-1.9-2.7-2.5-3-5.5-6.2-1.4-1.5-1.1-2.4-1.2-3.3-.1-.9 0-8.1 0-10.7.1-.5-.4-1-1-1h-.3c-.5 0-1 .4-1 1v10.6c0 0-.4 3.1 1.8 5.2 2.3 2.7 3.5 3.5 4.2 5 .1.7-1 1.7-1.9 2.2-6.2-6.1-7.9-7.6-7.8-7.7"/>
  <path d="m22.8 24c5.1 2.5 5.8-1.7 4.9-2.8-.7-.9-3.4-.6-3.2.2.1.7-.5.3-.5.3s-2.2 1.3-1.2 2.3"/>
  <path d="m.2 29.5c-.7-.8.5-2.2 1.7-1.8 6.4 6.5 4.8 4.8 7.6 7.6 2.2-.2 3.1-.7 3.4-.9-1.9-2.7-2.5-3-5.5-6.2-1.4-1.4-1.1-2.3-1.2-3.2-.1-.9 0-8.1 0-10.7.1-.5-.4-1-1-1h-.4c-.5 0-1 .4-1 1v10.6c0 0-.4 3.1 1.8 5.2 2.3 2.7 3.5 3.5 4.2 5 .1.7-1 1.7-1.9 2.2-6.1-6.2-7.8-7.7-7.7-7.8"/>
  <path d="m8 37.3c5.1 2.5 5.8-1.7 4.9-2.8-.7-.9-3.4-.6-3.2.2.1.7-.6.3-.6.3s-2.1 1.3-1.1 2.3"/>
 </g>
 <path fill="#c4802a" d="m4.6 26.4c.1.9.4 1.9.9 2.5.3.3 7.5 7.1 3.8 6.9-.8.2-6.9-6-6.6-5.8 2.5 2.2 1.7-.1.9-.5 2.3 2.3 4.8 4.9 5.5 5.6 2 .6-2.1-3.4-3.9-5.4-1.6-1.7-1.4-4.8-1.4-4.8v-8.9l.1 1.4c0 0 .4 6.9.7 9"/>
 <path fill="#fbb042" d="m19.4 2.4c-.1 0-12.3 11.7-12.6 12-.5.5-.7 1.3-.7 1.3s-2.3-1-2.3-1.2-.1-.8.4-1.2c.4-.2 13.2-12.8 14.7-13.2s2 .8 2 .8-1.4 1.5-1.5 1.5"/>
 <g fill="#ffe8cf">
  <path d="m8.8 9.6l-4.3 4.1c0 0-.3.6.1.7 1 .2 8.5-8.8 8.4-8.7l-4.2 3.9"/>
  <path d="m7 28.7l4.7 5.9c0 0 .3.3.4-.1.1-.4-5-5.9-5-5.9l-.1.1"/>
  <path d="m21.9 15.8l4.7 5.9c0 0 .3.3.4-.1.1-.4-5-5.9-5-5.9l-.1.1"/>
 </g>
 <path fill="#c4802a" d="m19.4 13.1c.1.9.4 1.9.9 2.5.3.3 7.5 7.1 3.8 6.9-.8.2-6.9-6-6.6-5.8 2.5 2.2 1.7-.1.9-.5 2.3 2.3 4.8 4.9 5.5 5.6 1.9.6-2.2-3.3-4.1-5.5-1.6-1.7-1.3-4.6-1.3-4.6v-8.6l-11.6 11.3 11.8-11.8.2 4.1c-.1 0 .3 4.3.5 6.4"/>
</svg>
