<svg xmlns="http://www.w3.org/2000/svg" viewBox="0 0 16 32" enable-background="new 0 0 16 32" width="16" height="32">
 <g fill="#d0975b">
  <path d="m2.7 24.4c-3.6-4.5 6.5-6.9 7.9-7.8 2.1-1.4 1.9-4.8 1.9-4.8v-10.7c0-.6-.5-1-1-1h-.3c-.6 0-1.1.5-1 1 0 2.7.1 9.9 0 10.8-.1.9.1 1.8-1.6 3.1-1.6.8-9.8 4.2-7.9 5.5.3.2 1.6 1.5 3.8 1.7 10.9 0 .3 0 11.2 0 .8.4.6 2.2 0 2.2"/>
  <path d="m2.8 24.4c1.2-.1 1.5-2.2 1.5-2.2s-1.9-.3-1.6-1.4c.2-.8-2.5-.9-2.5-.9s-1.2 3.5 2.6 4.5"/>
 </g>
 <path fill="#fbb043" d="m2.7 32c-3.6-4.5 6.5-6.9 7.9-7.8 2.1-1.4 1.9-4.8 1.9-4.8v-18.3c0-.5-.4-1-1-1h-.4c-.5 0-1 .4-1 1 0 2.7.1 17.5 0 18.4-.1.9.1 1.8-1.6 3.1-1.6.8-9.8 4.2-7.9 5.5.3.2 1.6 1.5 3.8 1.7 10.9 0 .3 0 11.2 0 .8.4.6 2.2 0 2.2"/>
 <path fill="#fbaf43" d="m2.8 32c1.2-.1 1.5-2.2 1.5-2.2s-1.9-.3-1.6-1.4c.2-.8-2.5-.9-2.5-.9s-1.2 3.6 2.6 4.5"/>
 <path fill="#c4802a" d="m12.3 12.7l.1-1.4v8.9c0 0-.3 3.1-1.9 4-2.4 1-11.1 4.1-6.5 5.6.9 0 0 0 8.6 0-.9-.1-7.1.4-.3 1.3.3-.2-8.1.3-9.2-.4-5-2.8 6.9-7 7.2-7.3.5-.6 1-1.1 1.1-2 .7-1.3.9-8.7.9-8.7"/>
 <path fill="#f8ba67" d="m11.4 8.2h-.3c-.6 0-1-.5-1-1.1v-2.9c0-.6.1 1.8 1 1.9h.3c1-.1 1-2.5 1-1.9v2.8c.1.7-.4 1.2-1 1.2"/>
 <path fill="#ffe8cf" d="m12 1.9c0-.1-1.4 5.7-.6 6.3.3.2.6-.4.6-.4v-5.9"/>
</svg>
