<svg xmlns="http://www.w3.org/2000/svg" viewBox="0 0 30 10" enable-background="new 0 0 30 10">
 <g fill="#4378bc">
  <polygon points="12,0.8 0.4,6.9 29.6,6.9 18,0.8 "/>
  <ellipse cx="15" cy="7.5" rx="15" ry="2.5"/>
 </g>
 <ellipse fill="#104b86" cx="15" cy=".8" rx="3" ry=".8"/>
 <path fill="#276eb6" d="m29.6 7.3c-3.8 4.1-32.8 2.9-29.2-.4.8-.5 5.3-2.8 7.4-3.9-.4 1.4 16.9 4.5 21.8 4.3"/>
 <path fill="#104b86" d="m6.9 4.5c-1.7.8-2.9 1.4-4.7 2.4-1.9 1 19.2 3 22 1.3-5.2 0-16.4-2.5-17.3-3.7"/>
 <polygon fill="#99cbee" points="18.3,1.2 27.7,6.4 16.5,1.7 "/>
</svg>
