<svg xmlns="http://www.w3.org/2000/svg" viewBox="0 0 30 30" enable-background="new 0 0 30 30">
 <ellipse fill="#ababab" cx="15" cy="26.2" rx="15" ry="3.8"/>
 <ellipse fill="#ededed" cx="15" cy="25.2" rx="15" ry="3.8"/>
 <g fill="#f6ec13">
  <ellipse cx="15" cy="23.4" rx="13.2" ry="3.4"/>
  <path d="m28.2 23.4c0-2.7-10.8-23.4-13.2-23.4-2.6 0-12.8 20.4-13.2 23.4.3 2.2 26.3 1 26.4 0"/>
 </g>
 <path fill="#919191" d="m19.3 26.6l-11.8 1.8c0 0-7.5-1-7.5-3.3 0-1.7 4.6-2.4 4-2.8-.7-.3 15.3 4.3 15.3 4.3"/>
 <path fill="#cdc02c" d="m1.8 23.4c-.2-1 9.8-22.9 13.2-23.4 1.2-.2 4 26.6 4.3 26.6s-12.2.6-16.3-1.7c-.7-.4-1.2-.9-1.2-1.5"/>
 <path fill="#a89b33" d="m14.4.5c1-.5-1.7 25.2-3.1 26.1-.6.4-8.3-1-8.3-1.7 0-2.9 9.7-23.5 11.4-24.4"/>
 <path fill="#fff5ac" d="m22.5 25.2c-.2-.2-6.2-22.5-5.7-22.4.5.1 9.9 19.5 10.2 20 .3.4-3.9 3-4.5 2.4"/>
 <g fill="#edecec">
  <path d="m9.2 7.5c1.3 1.8 11.2 2 11.5.1.8 1.6 1.4 2.5 2 3.5-2.7 3.8-14.9 1.7-15.2-.3 1.1-1.8 1.1-2 1.7-3.3"/>
  <path d="m5.9 13.8c1 3.3 16.3 4.7 18.4.2.8 1.6 1 2.2 1.6 3.2-2.4 5.8-20.3 4.5-21.7.2.7-1.4.8-1.9 1.7-3.6"/>
 </g>
 <g fill="#fff">
  <polygon points="21.1,20.4 20.1,16.5 23.3,15.2 24.9,18.5 	"/>
  <polygon points="19.2,13 18.1,8.7 19.9,8.3 21.7,12.1 	"/>
 </g>
 <g fill="#bcbcbc">
  <path d="m9.2 7.5l-1.8 3.4c0 0 .7 2.7 10 2.3-.6-4.2-.6-4.3-.6-4.3.1 0-6.3.1-7.6-1.4"/>
  <path d="m17.9 16.8l.5 4.2c0 0-12.5 1.1-14.3-3.6 1.1-2.4 1.7-3.5 1.7-3.5s2.1 3.3 12.1 2.9"/>
 </g>
 <g fill="#898989">
  <path d="m10 8c-.6.4-1.8 3.7-1.8 3.7s2.3 1.7 5.5 1.5c0-.8.4-4.4.4-4.4s-3.7-.4-4.1-.8"/>
  <path d="m6.8 14.7c0 0-1.9 3.2-1.7 3.9 2.3 2.6 7.1 2.6 7.6 2.3.5-.2.3-3.5.5-4.3-4 0-6.4-1.9-6.4-1.9"/>
 </g>
</svg>
