<svg xmlns="http://www.w3.org/2000/svg" viewBox="0 0 80 80" enable-background="new 0 0 80 80">
 <rect x="2.5" y="2.6" fill="#ddd" width="75" height="75"/>
 <rect x="2.5" y="2.6" fill="none" stroke="#000" stroke-width="5" stroke-miterlimit="10" width="75" height="75"/>
 <path fill="#010101" d="m55.8 16.9h-22l-2.3 15.1c1.3-.2 2.6-.4 4.7-.4 4.4 0 8.9 1 12.4 3.2 4.5 2.6 8.3 7.7 8.3 15.1.1 11.5-8.9 20.1-21.4 20.1-6.3 0-11.6-1.8-14.4-3.6l2-6.1c2.4 1.4 7.1 3.3 12.3 3.3 7.4 0 13.7-4.9 13.7-12.8-.1-7.6-5.1-13-16.6-13-3.3 0-5.9.4-8 .6l3.7-28.2h27.6c0 0 0 6.7 0 6.7"/>
</svg>
