<svg xmlns="http://www.w3.org/2000/svg" viewBox="0 0 80 80" enable-background="new 0 0 80 80">
 <rect x="2.5" y="2.6" fill="#ddd" stroke="#000" stroke-miterlimit="10" width="75" height="75"/>
 <g fill="#010101">
  <path d="m22.5 20.2h-.2l-9.1 4.9-1.4-5.4 11.5-6.1h6v52.6h-6.8v-46"/>
  <path d="m68.2 39.3c0 17.3-6.5 26.8-17.8 26.8-10 0-16.8-9.3-16.9-26.1 0-17.1 7.4-26.5 17.8-26.5 10.7.1 16.9 9.6 16.9 25.8m-27.8.8c0 13.2 4.1 20.8 10.4 20.8 7.1 0 10.5-8.2 10.5-21.2 0-12.5-3.2-20.8-10.4-20.8-6.1 0-10.5 7.4-10.5 21.2"/>
 </g>
 <rect x="2.5" y="2.6" fill="none" stroke="#000" stroke-width="5" stroke-miterlimit="10" width="75" height="75"/>
</svg>
