<?xml version="1.0" encoding="utf-8"?>
<!-- Generator: Adobe Illustrator 23.0.4, SVG Export Plug-In . SVG Version: 6.00 Build 0)  -->
<svg version="1.1" id="Слой_1" xmlns="http://www.w3.org/2000/svg" xmlns:xlink="http://www.w3.org/1999/xlink" x="0px" y="0px"
	 viewBox="0 0 80 80" style="enable-background:new 0 0 80 80;" xml:space="preserve">
<style type="text/css">
	.st0{fill:#201600;}
	.st1{fill:#FCF5F5;}
	.st2{fill:#FFFFFF;}
</style>
<circle class="st0" cx="40.1" cy="40" r="37.6"/>
<path class="st1" d="M11.2,62.1v-3.6l4.6-4.5C27,43.4,32,37.8,32.1,31.3c0-4.4-2.1-8.5-8.6-8.5c-4,0-7.2,2-9.2,3.7l-1.9-4.2
	c3-2.5,7.3-4.4,12.3-4.4C34,17.9,38,24.3,38,30.5c0,8-5.8,14.5-15,23.4l-3.5,3.2v0.1H39v4.9L11.2,62.1"/>
<path class="st2" d="M60.1,61.8V49.9H39.9V46l19.4-27.8h6.4v27.1h6.1v4.6h-6.1v11.9L60.1,61.8 M60.1,45.3V30.8
	c0-2.3,0.1-4.6,0.2-6.8h-0.2c-1.3,2.5-2.4,4.4-3.6,6.4L45.9,45.2v0.1H60.1"/>
</svg>
