<?xml version="1.0" encoding="UTF-8" ?>
<!DOCTYPE svg PUBLIC "-//W3C//DTD SVG 1.1//EN" "http://www.w3.org/Graphics/SVG/1.1/DTD/svg11.dtd">
<svg width="1000pt" height="1000pt" viewBox="0 0 1000 1000" version="1.1" xmlns="http://www.w3.org/2000/svg">
    <g id="#020202ff">
        <path fill="#020202" opacity="1.00"
            d=" M 616.00 68.93 C 624.18 69.16 631.74 64.94 639.95 65.63 C 649.22 65.83 656.55 72.22 665.13 74.82 C 668.88 76.31 672.91 76.61 676.90 76.96 C 677.75 79.67 675.88 82.04 674.73 84.31 C 678.89 88.21 682.93 92.43 685.38 97.65 C 686.60 100.07 687.22 102.75 688.44 105.17 C 691.03 108.05 694.20 110.47 696.06 113.95 C 701.32 123.11 704.12 134.09 702.49 144.62 C 699.58 152.40 695.71 159.97 694.91 168.38 C 691.59 166.04 688.30 163.66 685.14 161.13 C 686.39 176.36 677.84 189.73 674.66 204.16 C 672.98 213.27 670.98 222.47 666.71 230.76 C 663.82 236.36 659.65 241.14 655.46 245.79 C 669.44 255.60 684.75 263.25 699.83 271.20 C 712.74 278.67 725.34 287.64 733.79 300.16 C 738.50 307.30 740.39 315.74 742.22 323.97 C 743.71 331.21 748.69 337.05 750.55 344.15 C 752.78 351.56 752.65 359.39 752.04 367.02 C 751.27 377.07 751.06 387.23 752.88 397.18 C 754.27 404.56 751.55 411.77 750.21 418.93 C 749.34 422.89 748.92 427.17 746.50 430.57 C 745.12 432.53 742.69 433.20 740.64 434.20 C 739.74 441.44 739.03 448.70 738.36 455.96 C 737.34 468.07 744.82 478.90 744.52 490.93 C 744.49 496.29 741.70 501.24 737.91 504.87 C 735.21 507.29 731.58 508.40 729.05 511.04 C 726.41 513.57 723.89 516.78 720.03 517.30 C 713.65 518.11 706.34 517.15 701.68 512.30 C 699.65 510.19 699.94 507.03 699.56 504.36 C 697.07 503.83 694.35 503.41 692.52 501.47 C 687.62 496.75 686.48 489.28 687.84 482.85 C 689.08 476.49 693.74 471.62 698.01 467.05 C 704.70 460.16 708.50 450.57 708.37 440.97 C 708.28 434.54 707.59 428.14 707.18 421.73 C 701.91 418.82 696.36 416.24 691.73 412.34 C 687.35 408.61 686.25 402.65 685.74 397.23 C 685.18 390.76 684.61 384.27 683.01 377.96 C 678.93 381.72 675.57 386.23 673.16 391.23 C 668.26 401.05 664.21 411.29 660.72 421.69 C 658.88 427.46 655.41 432.52 653.39 438.22 C 650.36 446.33 649.46 455.01 648.82 463.58 C 647.72 473.66 647.58 483.83 648.08 493.96 C 648.21 499.17 647.49 504.86 643.96 508.95 C 641.91 511.38 638.87 512.57 636.02 513.76 C 638.67 519.55 640.97 525.57 641.83 531.92 C 642.56 535.57 642.36 539.95 645.43 542.60 C 649.19 546.18 653.17 549.74 655.55 554.46 C 660.25 564.74 659.03 576.33 659.89 587.30 C 660.17 593.66 664.41 598.84 665.56 604.98 C 666.54 609.40 666.31 613.97 665.58 618.41 C 663.81 629.33 662.46 640.42 659.06 650.99 C 658.50 653.99 655.16 652.52 653.12 652.43 C 653.11 672.60 645.98 693.15 631.55 707.55 C 627.42 711.27 624.48 715.98 621.87 720.84 C 613.38 733.69 603.27 745.54 591.56 755.59 C 584.87 761.54 578.02 767.35 571.79 773.80 C 556.84 789.67 542.35 806.07 525.95 820.49 C 527.65 823.59 529.10 826.86 529.82 830.35 C 532.10 840.91 533.70 851.80 538.47 861.62 C 542.93 870.65 550.47 877.56 556.53 885.48 C 559.45 889.29 561.60 894.14 560.64 899.04 C 559.57 904.65 554.72 908.65 549.57 910.53 C 541.20 914.28 531.76 914.21 522.85 913.04 C 512.27 911.30 504.30 903.21 497.76 895.31 C 492.34 888.31 486.44 881.57 482.43 873.62 C 479.91 868.96 478.22 863.51 473.73 860.27 C 464.58 853.23 455.19 844.57 452.73 832.80 C 451.61 823.86 452.51 814.10 457.27 806.26 C 461.88 799.36 470.75 798.36 478.34 797.87 C 483.06 791.49 488.89 786.07 494.18 780.20 C 508.48 765.01 518.72 746.64 528.35 728.29 C 535.40 714.20 542.87 700.16 552.88 687.91 C 558.82 680.46 566.45 674.50 574.78 669.95 C 575.06 662.75 572.83 655.75 569.69 649.34 C 566.07 651.02 562.58 653.97 558.40 653.75 C 553.00 650.44 552.82 643.38 551.41 637.85 C 548.16 624.44 545.29 609.90 535.33 599.64 C 532.83 596.72 529.16 594.93 525.28 595.46 C 516.12 606.89 510.71 620.71 506.40 634.57 C 503.44 645.13 500.39 655.67 496.86 666.05 C 494.47 674.06 491.20 681.82 486.95 689.02 C 485.70 690.74 484.52 693.24 482.06 693.25 C 477.60 693.09 473.16 692.30 468.68 692.58 C 462.79 707.13 455.90 721.32 447.66 734.69 C 442.29 743.04 436.01 750.99 428.01 756.97 C 423.17 760.84 417.77 763.97 413.14 768.11 C 405.50 774.87 399.22 782.96 393.10 791.08 C 386.18 800.18 379.01 809.12 372.67 818.64 C 364.40 831.52 355.39 843.90 346.04 856.02 C 341.16 862.43 335.50 868.20 330.29 874.35 C 334.44 885.39 329.06 896.67 326.15 907.29 C 324.36 912.09 323.19 917.54 325.51 922.40 C 327.41 926.99 331.91 930.09 333.14 935.03 C 334.57 940.67 333.12 947.65 327.99 950.99 C 320.38 956.10 310.79 955.85 302.01 955.92 C 294.56 955.75 286.18 955.91 280.15 950.83 C 270.34 942.65 266.37 929.43 266.86 917.00 C 267.38 902.47 265.95 886.69 273.61 873.64 C 276.81 867.60 283.82 865.79 289.92 864.21 C 295.22 849.34 302.65 835.38 308.92 820.93 C 316.83 803.67 324.51 786.27 333.64 769.61 C 340.97 756.10 348.13 742.08 359.27 731.24 C 366.37 724.68 374.49 719.17 380.67 711.65 C 386.50 704.80 389.69 696.28 393.48 688.25 C 391.10 686.40 387.93 684.96 386.82 681.95 C 386.21 673.28 390.59 665.40 392.16 657.06 C 397.50 640.99 395.45 623.46 401.50 607.58 C 406.35 595.21 414.54 584.42 418.81 571.80 C 422.66 561.07 423.05 549.47 426.78 538.71 C 430.98 526.14 437.04 514.25 443.93 502.96 C 448.53 494.96 452.12 486.44 456.23 478.19 C 449.03 465.39 447.96 450.35 447.85 435.97 C 448.14 427.33 448.99 418.72 448.79 410.06 C 438.18 406.34 427.53 400.33 422.02 390.11 C 415.68 377.42 410.53 364.00 408.06 350.00 C 406.53 341.97 408.31 333.54 412.64 326.65 C 418.09 316.46 427.71 309.60 436.57 302.59 C 450.57 291.70 466.16 282.46 477.71 268.76 C 487.22 257.92 497.30 247.29 509.66 239.67 C 517.46 234.82 525.99 231.04 534.92 228.82 C 545.82 226.66 557.18 226.45 568.00 229.20 C 571.52 224.25 575.48 219.51 577.90 213.89 C 579.65 210.08 580.70 206.02 581.75 201.98 C 579.47 199.33 577.08 196.78 574.89 194.06 C 571.34 189.65 569.49 184.22 567.46 179.02 C 560.82 175.83 558.39 167.94 558.30 161.08 C 558.52 152.11 558.39 143.09 559.70 134.19 C 557.96 134.42 555.93 135.83 554.53 134.12 C 555.80 129.80 558.05 125.87 559.87 121.78 C 561.73 118.13 560.51 113.54 563.17 110.22 C 569.48 101.99 571.03 90.95 578.42 83.43 C 588.10 73.34 602.37 69.35 616.00 68.93 M 616.80 151.99 C 616.50 150.35 616.27 148.70 616.10 147.04 C 614.39 150.80 612.39 154.49 609.53 157.51 C 603.99 163.18 602.99 171.64 603.09 179.21 C 602.04 178.57 601.00 177.92 599.96 177.28 C 599.85 178.86 599.70 180.45 599.51 182.03 C 595.91 180.29 592.42 178.24 589.61 175.37 C 586.16 172.16 583.46 168.06 579.40 165.57 C 577.05 164.00 573.63 166.00 574.00 168.84 C 574.75 177.30 578.69 185.00 582.52 192.43 C 583.96 195.80 586.11 199.18 585.75 203.00 C 585.51 209.55 583.94 216.09 580.96 221.94 C 578.11 227.01 574.48 231.60 570.93 236.19 C 574.88 244.13 580.29 251.25 586.12 257.89 C 591.62 263.72 596.82 270.10 603.71 274.37 C 608.18 276.67 613.85 278.28 618.60 275.85 C 627.41 272.35 631.77 263.23 635.85 255.31 C 624.21 255.53 613.30 249.77 605.00 241.98 C 603.33 240.56 602.68 238.41 602.10 236.40 C 604.77 236.79 607.08 238.17 609.15 239.83 C 615.53 244.69 623.09 247.91 630.97 249.32 C 635.89 250.13 640.75 248.29 644.98 245.92 C 650.92 242.89 654.60 237.08 658.63 232.01 C 649.77 230.29 640.86 228.80 632.10 226.70 C 629.66 226.43 630.25 223.41 629.76 221.72 C 628.93 220.80 627.61 220.14 627.53 218.77 C 628.69 216.74 631.05 217.83 632.88 217.97 C 642.91 219.90 652.99 221.67 662.92 224.11 C 667.88 212.95 668.00 200.36 673.31 189.32 C 669.62 188.78 665.93 188.29 662.25 187.75 C 661.83 191.39 661.50 195.11 659.92 198.48 C 658.71 196.92 657.78 195.10 658.10 193.08 C 658.46 187.17 659.09 180.90 662.30 175.79 C 667.59 175.02 672.89 176.46 678.15 176.95 C 680.19 170.84 681.08 164.43 680.67 158.01 C 674.30 157.34 668.96 153.46 663.28 150.84 C 657.40 147.58 650.59 144.80 646.99 138.79 C 643.23 139.06 640.63 136.22 638.08 133.93 C 630.20 138.94 623.14 145.15 616.80 151.99 M 538.41 233.71 C 521.34 237.70 506.37 247.85 493.94 259.95 C 483.86 269.19 475.40 280.13 464.47 288.44 C 450.42 299.34 435.19 308.81 422.54 321.42 C 431.87 325.84 440.14 332.35 446.72 340.30 C 452.41 347.23 457.98 354.65 460.48 363.39 C 461.86 368.03 464.57 372.09 467.04 376.19 C 471.30 373.16 475.73 370.11 478.69 365.71 C 484.77 357.22 484.16 346.08 489.01 337.05 C 492.49 330.11 498.92 325.39 505.15 321.09 C 506.69 319.87 508.69 320.17 510.52 320.29 C 507.26 324.40 502.87 327.43 499.63 331.56 C 494.07 337.86 491.34 345.93 489.58 354.01 C 500.11 347.39 508.93 338.48 517.47 329.54 C 518.57 328.24 520.15 327.56 521.74 327.06 C 520.77 332.18 516.88 335.83 513.60 339.57 C 506.50 347.62 498.25 355.14 488.11 359.07 C 486.35 363.11 484.42 367.16 481.43 370.46 C 478.13 374.37 473.73 377.08 469.41 379.70 C 475.59 386.24 482.39 392.35 490.29 396.77 C 496.44 400.29 502.80 404.51 505.69 411.29 C 508.57 418.49 509.55 426.31 510.11 434.01 C 510.18 437.79 510.53 442.04 508.28 445.32 C 506.94 447.38 504.36 446.76 502.35 446.47 C 501.66 450.14 498.11 453.14 494.32 451.61 C 489.69 449.11 488.10 443.56 485.86 439.16 C 486.55 443.72 487.54 448.48 486.34 453.04 C 485.51 456.14 481.37 456.87 479.13 454.84 C 475.11 451.40 473.58 446.06 471.86 441.26 C 470.87 444.87 467.34 448.83 463.29 446.72 C 458.29 443.11 456.29 436.83 454.16 431.30 C 453.77 440.16 454.06 449.05 455.06 457.86 C 456.08 467.27 459.93 476.57 466.51 483.45 C 474.36 490.94 485.79 491.36 495.80 493.65 C 506.24 495.89 516.22 499.82 526.01 504.01 C 539.68 510.26 552.96 518.07 567.93 520.82 C 578.91 522.67 590.18 521.54 601.00 519.24 C 611.96 516.90 622.16 512.11 632.93 509.13 C 635.30 508.28 638.17 507.95 639.79 505.80 C 642.39 502.50 642.57 498.05 642.56 494.04 C 642.25 483.35 642.66 472.63 643.94 462.01 C 644.73 453.19 645.83 444.28 649.02 435.96 C 650.97 430.52 654.28 425.67 656.03 420.13 C 659.54 409.12 663.81 398.32 669.08 388.03 C 672.07 381.94 676.99 377.08 680.02 371.01 C 684.00 363.33 689.24 356.39 695.05 350.01 C 698.51 346.31 701.74 341.93 706.77 340.28 C 705.91 344.62 702.27 347.43 699.71 350.77 C 694.72 356.47 690.81 362.98 686.53 369.20 C 690.18 367.62 694.01 366.45 697.93 365.72 C 699.86 365.42 702.05 364.51 703.81 365.89 C 699.30 370.58 692.21 371.17 686.97 374.88 C 689.70 381.61 690.54 388.87 691.12 396.06 C 691.60 400.39 691.93 405.50 695.74 408.34 C 700.87 412.08 706.66 414.79 712.27 417.73 C 719.84 421.68 727.29 426.15 735.64 428.28 C 737.99 428.74 741.20 429.15 742.77 426.87 C 744.44 424.23 744.97 421.07 745.65 418.06 C 746.69 412.72 748.05 407.39 748.28 401.94 C 748.55 397.53 745.57 393.99 743.60 390.34 C 741.02 386.07 739.60 381.24 738.39 376.44 C 736.65 369.47 733.79 362.66 733.88 355.35 C 737.11 356.66 737.59 360.33 738.66 363.21 C 740.68 369.95 743.16 376.53 745.47 383.17 C 744.95 371.25 747.94 359.12 744.85 347.36 C 743.12 340.07 737.96 334.16 736.36 326.82 C 734.49 318.58 733.09 309.92 728.23 302.78 C 720.89 292.14 710.49 284.01 699.40 277.59 C 692.77 273.85 686.33 269.81 679.58 266.31 C 670.02 261.10 660.29 255.96 651.92 248.91 C 648.22 251.07 644.34 252.91 640.32 254.39 C 636.99 266.21 629.52 278.16 617.30 282.17 C 609.27 284.01 600.85 280.56 594.95 275.12 C 586.74 267.63 578.73 259.77 572.44 250.56 C 568.97 245.48 565.17 240.26 564.32 233.99 C 555.87 231.71 546.97 232.53 538.41 233.71 M 418.17 326.63 C 413.29 333.48 410.98 342.20 412.83 350.51 C 415.58 363.68 419.90 376.67 426.74 388.31 C 431.88 395.73 439.92 400.71 448.33 403.69 C 450.92 404.72 453.75 405.35 456.02 407.06 C 457.97 408.75 457.51 411.59 457.75 413.89 C 458.11 423.68 459.20 434.24 465.56 442.16 C 467.41 435.02 465.11 427.92 464.03 420.90 C 463.85 418.03 468.04 417.54 469.00 420.00 C 474.51 429.30 475.98 440.37 481.31 449.77 C 481.26 439.00 477.15 428.80 476.29 418.15 C 476.22 415.19 479.86 416.65 480.79 418.25 C 487.12 425.70 489.77 435.37 493.80 444.11 C 494.60 445.55 495.33 447.38 497.13 447.83 C 500.25 443.81 498.46 438.38 496.65 434.19 C 494.32 427.15 491.38 420.27 489.46 413.13 C 488.93 410.65 492.30 412.05 492.81 413.21 C 498.33 421.40 499.95 431.42 504.40 440.15 C 504.53 431.73 504.49 423.09 502.02 414.98 C 500.11 408.76 494.43 404.86 488.91 402.07 C 481.57 398.47 475.29 393.15 469.28 387.69 C 462.08 381.03 458.42 371.72 453.62 363.38 C 450.75 358.46 447.72 353.31 442.89 350.07 C 439.64 347.84 435.52 348.20 431.88 347.14 C 434.80 343.94 439.32 344.08 443.21 344.96 C 436.30 337.13 427.88 330.61 418.17 326.63 M 712.06 424.16 C 712.46 429.45 713.07 434.73 713.18 440.04 C 713.53 451.43 709.04 462.88 701.08 471.02 C 697.17 475.25 692.68 479.82 692.28 485.90 C 691.71 491.58 693.84 498.72 699.89 500.56 C 700.73 497.70 700.33 494.02 703.05 492.09 C 706.15 497.06 702.40 503.20 704.60 508.42 C 708.40 512.46 714.65 513.13 719.83 512.05 C 723.90 509.94 726.07 505.35 730.36 503.50 C 735.62 501.26 739.81 495.90 739.43 490.00 C 738.74 479.07 732.63 469.10 733.08 458.01 C 733.51 449.97 734.89 442.01 735.50 433.98 C 727.17 432.08 719.52 428.17 712.06 424.16 M 448.30 506.43 C 441.59 518.10 435.83 530.41 432.14 543.38 C 429.76 551.44 428.78 559.82 426.69 567.95 C 424.84 575.09 421.98 581.97 418.33 588.39 C 414.04 595.80 409.28 603.06 406.41 611.18 C 402.70 623.05 402.50 635.61 400.46 647.80 C 399.54 652.60 398.09 657.27 396.84 661.99 C 395.31 668.64 392.29 674.91 391.94 681.81 C 408.63 690.09 427.86 689.93 446.01 688.72 C 457.82 688.00 469.91 683.65 481.59 687.50 C 484.15 682.68 486.44 677.70 488.44 672.63 C 491.31 662.81 494.63 653.12 497.34 643.24 C 502.14 625.52 507.65 607.10 520.01 593.03 C 523.19 588.89 526.98 585.10 531.64 582.66 C 532.88 581.89 534.79 582.27 534.74 584.02 C 533.34 586.57 531.04 588.47 529.03 590.52 C 538.60 592.88 545.03 601.14 549.53 609.38 C 555.36 621.40 557.67 634.66 560.60 647.57 C 566.80 644.09 572.92 640.47 579.07 636.92 C 592.37 629.24 608.39 625.98 623.58 628.64 C 636.26 631.39 647.59 638.94 656.20 648.51 C 657.70 640.87 659.18 633.22 660.11 625.48 C 660.76 619.33 662.52 613.10 661.13 606.92 C 660.33 602.25 657.72 598.22 656.13 593.83 C 653.95 588.02 650.39 582.08 644.30 579.79 C 634.62 575.87 624.19 574.31 613.98 572.47 C 610.23 571.69 605.86 572.04 603.04 568.98 C 608.23 565.95 614.46 567.89 620.08 568.17 C 632.22 569.55 646.24 570.68 654.70 580.69 C 654.49 573.01 654.70 565.08 652.13 557.73 C 649.99 552.89 645.85 549.37 642.18 545.71 C 639.40 542.59 634.92 542.53 631.09 542.02 C 621.21 541.49 610.90 543.22 602.39 548.53 C 589.46 556.55 576.79 565.40 562.24 570.30 C 555.39 572.61 548.72 576.20 541.34 576.26 C 541.71 574.85 542.63 573.67 543.98 573.13 C 550.66 569.97 557.48 567.13 564.28 564.25 C 577.72 558.38 589.48 549.50 602.09 542.14 C 613.02 536.35 626.25 534.32 638.27 537.54 C 637.56 529.72 635.74 521.95 632.00 515.00 C 627.42 516.37 622.96 518.10 618.44 519.65 C 606.11 524.16 593.14 527.17 579.96 527.17 C 568.30 527.34 556.85 524.18 546.26 519.48 C 539.17 530.81 528.04 538.71 517.25 546.22 C 506.15 553.84 493.39 558.58 480.70 562.83 C 475.84 564.40 470.99 566.23 465.88 566.70 C 464.18 566.79 462.61 566.00 463.39 564.09 C 481.77 556.38 501.39 550.67 517.58 538.60 C 526.30 532.55 534.73 525.83 541.13 517.29 C 524.05 508.56 506.27 500.56 487.20 497.45 C 476.56 495.77 465.16 492.10 459.00 482.59 C 455.82 490.70 452.60 498.83 448.30 506.43 M 595.65 636.82 C 588.21 638.77 581.51 642.64 574.88 646.42 C 578.34 652.87 580.40 660.10 580.18 667.46 C 582.94 666.46 585.84 665.02 588.85 665.85 C 588.80 666.34 588.72 667.31 588.68 667.79 C 584.13 670.61 579.15 672.69 574.63 675.59 C 577.01 684.35 582.02 692.23 588.57 698.48 C 596.97 706.51 607.75 712.74 619.57 713.40 C 621.83 709.51 624.95 706.26 628.16 703.14 C 635.69 695.72 641.12 686.28 643.94 676.10 C 646.96 666.97 647.21 657.28 647.91 647.78 C 641.34 642.65 634.04 638.21 625.97 635.92 C 616.03 633.39 605.48 634.22 595.65 636.82 M 553.57 695.56 C 547.25 703.57 541.98 712.36 537.35 721.44 C 527.27 741.54 516.60 761.68 501.70 778.70 C 494.27 787.31 485.52 794.86 479.54 804.65 C 481.57 806.65 484.05 808.43 487.02 808.57 C 493.29 809.03 499.58 807.57 505.84 808.56 C 512.23 809.59 517.95 812.99 522.85 817.11 C 534.48 805.65 545.62 793.72 556.78 781.82 C 565.51 771.88 574.90 762.56 584.95 753.96 C 597.42 743.46 608.14 731.04 617.37 717.64 C 607.86 717.26 598.81 713.38 591.23 707.79 C 581.46 700.55 573.38 690.50 570.08 678.66 C 563.67 683.32 558.16 689.12 553.57 695.56 M 397.32 690.07 C 394.92 697.31 392.20 704.55 387.90 710.90 C 383.93 716.92 378.50 721.76 373.15 726.52 C 377.45 739.51 386.43 750.51 397.03 758.97 C 400.29 761.65 404.11 763.63 408.27 764.48 C 416.99 756.71 427.98 751.57 435.20 742.14 C 446.96 727.48 454.65 710.10 462.77 693.29 C 441.13 696.57 418.15 698.01 397.32 690.07 M 355.89 742.97 C 346.65 755.26 339.73 769.05 332.55 782.59 C 322.26 802.65 313.39 823.40 303.67 843.73 C 300.30 851.26 296.54 858.62 293.71 866.38 C 299.00 863.49 303.58 858.09 310.11 858.51 C 317.47 860.25 321.33 867.41 326.83 871.91 C 330.48 866.28 335.15 861.44 339.17 856.09 C 348.92 842.79 358.50 829.35 367.54 815.56 C 373.18 807.01 379.66 799.07 385.83 790.91 C 391.59 783.68 397.07 776.18 403.44 769.46 C 394.52 766.89 387.19 760.66 381.50 753.52 C 375.93 746.47 371.36 738.44 369.26 729.65 C 364.28 733.53 359.64 737.87 355.89 742.97 M 462.98 811.80 C 460.73 817.24 460.02 823.26 460.25 829.12 C 460.51 835.99 464.94 841.72 469.42 846.56 C 474.44 852.19 481.75 855.76 485.14 862.78 C 488.80 870.21 492.64 877.61 497.88 884.07 C 504.19 891.97 510.57 900.62 520.08 904.84 C 526.85 907.30 534.35 907.35 541.42 906.36 C 546.29 905.20 552.28 903.65 554.39 898.55 C 555.83 894.16 552.72 890.07 550.13 886.84 C 543.76 879.15 536.33 872.04 532.27 862.75 C 527.47 852.18 526.41 840.51 523.72 829.35 C 522.07 822.40 515.58 818.12 509.35 815.60 C 501.88 812.55 493.75 815.22 486.00 814.38 C 480.24 813.76 474.71 810.01 472.99 804.32 C 469.12 805.86 464.71 807.66 462.98 811.80 M 295.81 869.75 C 293.51 871.10 291.12 869.60 288.98 868.75 C 285.29 870.11 281.02 871.15 278.64 874.57 C 275.76 878.64 274.48 883.59 273.60 888.44 C 271.92 899.22 272.19 910.19 272.22 921.07 C 272.26 931.31 276.33 942.01 284.86 948.12 C 290.27 951.41 296.91 950.99 303.00 951.35 C 310.79 951.27 319.46 951.85 326.13 947.09 C 330.76 943.36 329.98 935.90 326.06 931.92 C 321.06 926.50 317.84 918.86 319.69 911.46 C 321.68 903.91 324.59 896.61 326.34 888.99 C 327.15 885.15 327.44 880.54 324.42 877.54 C 319.54 872.54 314.84 867.35 309.79 862.52 C 304.59 863.85 300.53 867.45 295.81 869.75 Z" />
        <path fill="#020202" opacity="1.00"
            d=" M 619.18 168.12 C 620.38 166.83 622.42 167.96 623.95 167.88 C 631.02 168.91 638.08 170.02 645.13 171.23 C 646.76 171.57 648.66 171.77 649.81 173.16 C 649.79 176.83 649.34 180.62 648.01 184.05 C 645.60 185.75 642.44 184.17 639.77 184.05 C 632.08 182.46 623.94 182.27 616.67 179.17 C 616.47 175.44 617.30 171.34 619.18 168.12 Z" />
        <path fill="#020202" opacity="1.00"
            d=" M 641.83 196.87 C 645.22 199.62 648.67 202.31 652.14 204.96 C 654.51 204.42 657.09 202.09 659.45 203.43 C 659.87 205.83 659.95 208.32 659.53 210.73 C 657.28 211.99 654.66 212.30 652.19 212.91 C 649.13 207.32 645.60 202.01 641.83 196.87 Z" />
        <path fill="#020202" opacity="1.00"
            d=" M 550.32 264.46 C 552.63 263.34 553.04 266.54 553.94 267.97 C 558.59 279.74 563.46 291.43 567.52 303.43 C 570.83 313.53 575.25 323.22 578.81 333.22 C 578.36 333.59 577.46 334.32 577.01 334.68 C 574.74 332.55 573.38 329.71 572.02 326.97 C 563.85 310.49 558.20 292.94 552.10 275.63 C 551.23 272.05 548.63 268.08 550.32 264.46 Z" />
        <path fill="#020202" opacity="1.00"
            d=" M 674.59 346.23 C 675.71 344.11 677.95 345.96 677.11 347.79 C 674.76 354.04 670.55 359.39 667.11 365.06 C 657.63 380.18 646.36 394.21 633.20 406.27 C 624.48 414.45 614.85 421.70 604.25 427.27 C 593.21 433.25 581.37 437.57 569.49 441.54 C 567.40 442.16 565.17 443.04 563.01 442.27 C 563.22 439.53 566.31 439.21 568.30 438.23 C 584.83 432.04 601.51 425.40 615.71 414.68 C 636.86 398.79 652.94 377.41 667.77 355.77 C 670.04 352.59 671.89 349.08 674.59 346.23 Z" />
        <path fill="#020202" opacity="1.00"
            d=" M 630.35 443.28 C 634.40 440.79 637.98 437.57 642.31 435.55 C 641.42 437.75 640.18 439.82 638.33 441.34 C 629.92 448.70 619.86 453.80 609.96 458.83 C 601.88 462.73 593.73 466.72 584.96 468.81 C 569.01 472.46 552.27 471.88 536.28 468.82 C 534.72 468.61 531.18 467.20 533.08 465.35 C 548.99 466.01 565.13 467.78 580.92 464.75 C 589.69 463.21 597.83 459.47 605.89 455.84 C 614.19 451.95 622.57 448.16 630.35 443.28 Z" />
    </g>
    <g id="#f0b58bff">
        <path fill="#f0b58b" opacity="1.00"
            d=" M 616.80 151.99 C 623.14 145.15 630.20 138.94 638.08 133.93 C 640.63 136.22 643.23 139.06 646.99 138.79 C 650.59 144.80 657.40 147.58 663.28 150.84 C 668.96 153.46 674.30 157.34 680.67 158.01 C 681.08 164.43 680.19 170.84 678.15 176.95 C 672.89 176.46 667.59 175.02 662.30 175.79 C 659.09 180.90 658.46 187.17 658.10 193.08 C 657.78 195.10 658.71 196.92 659.92 198.48 C 661.50 195.11 661.83 191.39 662.25 187.75 C 665.93 188.29 669.62 188.78 673.31 189.32 C 668.00 200.36 667.88 212.95 662.92 224.11 C 652.99 221.67 642.91 219.90 632.88 217.97 C 631.05 217.83 628.69 216.74 627.53 218.77 C 627.61 220.14 628.93 220.80 629.76 221.72 C 630.25 223.41 629.66 226.43 632.10 226.70 C 640.86 228.80 649.77 230.29 658.63 232.01 C 654.60 237.08 650.92 242.89 644.98 245.92 C 640.75 248.29 635.89 250.13 630.97 249.32 C 623.09 247.91 615.53 244.69 609.15 239.83 C 607.08 238.17 604.77 236.79 602.10 236.40 C 602.68 238.41 603.33 240.56 605.00 241.98 C 613.30 249.77 624.21 255.53 635.85 255.31 C 631.77 263.23 627.41 272.35 618.60 275.85 C 613.85 278.28 608.18 276.67 603.71 274.37 C 596.82 270.10 591.62 263.72 586.12 257.89 C 580.29 251.25 574.88 244.13 570.93 236.19 C 574.48 231.60 578.11 227.01 580.96 221.94 C 583.94 216.09 585.51 209.55 585.75 203.00 C 586.11 199.18 583.96 195.80 582.52 192.43 C 578.69 185.00 574.75 177.30 574.00 168.84 C 573.63 166.00 577.05 164.00 579.40 165.57 C 583.46 168.06 586.16 172.16 589.61 175.37 C 592.42 178.24 595.91 180.29 599.51 182.03 C 599.70 180.45 599.85 178.86 599.96 177.28 C 601.00 177.92 602.04 178.57 603.09 179.21 C 602.99 171.64 603.99 163.18 609.53 157.51 C 612.39 154.49 614.39 150.80 616.10 147.04 C 616.27 148.70 616.50 150.35 616.80 151.99 M 619.18 168.12 C 617.30 171.34 616.47 175.44 616.67 179.17 C 623.94 182.27 632.08 182.46 639.77 184.05 C 642.44 184.17 645.60 185.75 648.01 184.05 C 649.34 180.62 649.79 176.83 649.81 173.16 C 648.66 171.77 646.76 171.57 645.13 171.23 C 638.08 170.02 631.02 168.91 623.95 167.88 C 622.42 167.96 620.38 166.83 619.18 168.12 M 641.83 196.87 C 645.60 202.01 649.13 207.32 652.19 212.91 C 654.66 212.30 657.28 211.99 659.53 210.73 C 659.95 208.32 659.87 205.83 659.45 203.43 C 657.09 202.09 654.51 204.42 652.14 204.96 C 648.67 202.31 645.22 199.62 641.83 196.87 Z" />
        <path fill="#f0b58b" opacity="1.00"
            d=" M 418.17 326.63 C 427.88 330.61 436.30 337.13 443.21 344.96 C 439.32 344.08 434.80 343.94 431.88 347.14 C 435.52 348.20 439.64 347.84 442.89 350.07 C 447.72 353.31 450.75 358.46 453.62 363.38 C 458.42 371.72 462.08 381.03 469.28 387.69 C 475.29 393.15 481.57 398.47 488.91 402.07 C 494.43 404.86 500.11 408.76 502.02 414.98 C 504.49 423.09 504.53 431.73 504.40 440.15 C 499.95 431.42 498.33 421.40 492.81 413.21 C 492.30 412.05 488.93 410.65 489.46 413.13 C 491.38 420.27 494.32 427.15 496.65 434.19 C 498.46 438.38 500.25 443.81 497.13 447.83 C 495.33 447.38 494.60 445.55 493.80 444.11 C 489.77 435.37 487.12 425.70 480.79 418.25 C 479.86 416.65 476.22 415.19 476.29 418.15 C 477.15 428.80 481.26 439.00 481.31 449.77 C 475.98 440.37 474.51 429.30 469.00 420.00 C 468.04 417.54 463.85 418.03 464.03 420.90 C 465.11 427.92 467.41 435.02 465.56 442.16 C 459.20 434.24 458.11 423.68 457.75 413.89 C 457.51 411.59 457.97 408.75 456.02 407.06 C 453.75 405.35 450.92 404.72 448.33 403.69 C 439.92 400.71 431.88 395.73 426.74 388.31 C 419.90 376.67 415.58 363.68 412.83 350.51 C 410.98 342.20 413.29 333.48 418.17 326.63 Z" />
        <path fill="#f0b58b" opacity="1.00"
            d=" M 712.06 424.16 C 719.52 428.17 727.17 432.08 735.50 433.98 C 734.89 442.01 733.51 449.97 733.08 458.01 C 732.63 469.10 738.74 479.07 739.43 490.00 C 739.81 495.90 735.62 501.26 730.36 503.50 C 726.07 505.35 723.90 509.94 719.83 512.05 C 714.65 513.13 708.40 512.46 704.60 508.42 C 702.40 503.20 706.15 497.06 703.05 492.09 C 700.33 494.02 700.73 497.70 699.89 500.56 C 693.84 498.72 691.71 491.58 692.28 485.90 C 692.68 479.82 697.17 475.25 701.08 471.02 C 709.04 462.88 713.53 451.43 713.18 440.04 C 713.07 434.73 712.46 429.45 712.06 424.16 Z" />
        <path fill="#f0b58b" opacity="1.00"
            d=" M 595.65 636.82 C 605.48 634.22 616.03 633.39 625.97 635.92 C 634.04 638.21 641.34 642.65 647.91 647.78 C 647.21 657.28 646.96 666.97 643.94 676.10 C 641.12 686.28 635.69 695.72 628.16 703.14 C 624.95 706.26 621.83 709.51 619.57 713.40 C 607.75 712.74 596.97 706.51 588.57 698.48 C 582.02 692.23 577.01 684.35 574.63 675.59 C 579.15 672.69 584.13 670.61 588.68 667.79 C 588.72 667.31 588.80 666.34 588.85 665.85 C 585.84 665.02 582.94 666.46 580.18 667.46 C 580.40 660.10 578.34 652.87 574.88 646.42 C 581.51 642.64 588.21 638.77 595.65 636.82 Z" />
        <path fill="#f0b58b" opacity="1.00"
            d=" M 397.32 690.07 C 418.15 698.01 441.13 696.57 462.77 693.29 C 454.65 710.10 446.96 727.48 435.20 742.14 C 427.98 751.57 416.99 756.71 408.27 764.48 C 404.11 763.63 400.29 761.65 397.03 758.97 C 386.43 750.51 377.45 739.51 373.15 726.52 C 378.50 721.76 383.93 716.92 387.90 710.90 C 392.20 704.55 394.92 697.31 397.32 690.07 Z" />
    </g>
    <g id="#f11b27ff">
        <path fill="var(--shirt-color, grey)" opacity="1.00"
            d=" M 538.41 233.71 C 546.97 232.53 555.87 231.71 564.32 233.99 C 565.17 240.26 568.97 245.48 572.44 250.56 C 578.73 259.77 586.74 267.63 594.95 275.12 C 600.85 280.56 609.27 284.01 617.30 282.17 C 629.52 278.16 636.99 266.21 640.32 254.39 C 644.34 252.91 648.22 251.07 651.92 248.91 C 660.29 255.96 670.02 261.10 679.58 266.31 C 686.33 269.81 692.77 273.85 699.40 277.59 C 710.49 284.01 720.89 292.14 728.23 302.78 C 733.09 309.92 734.49 318.58 736.36 326.82 C 737.96 334.16 743.12 340.07 744.85 347.36 C 747.94 359.12 744.95 371.25 745.47 383.17 C 743.16 376.53 740.68 369.95 738.66 363.21 C 737.59 360.33 737.11 356.66 733.88 355.35 C 733.79 362.66 736.65 369.47 738.39 376.44 C 739.60 381.24 741.02 386.07 743.60 390.34 C 745.57 393.99 748.55 397.53 748.28 401.94 C 748.05 407.39 746.69 412.72 745.65 418.06 C 744.97 421.07 744.44 424.23 742.77 426.87 C 741.20 429.15 737.99 428.74 735.64 428.28 C 727.29 426.15 719.84 421.68 712.27 417.73 C 706.66 414.79 700.87 412.08 695.74 408.34 C 691.93 405.50 691.60 400.39 691.12 396.06 C 690.54 388.87 689.70 381.61 686.97 374.88 C 692.21 371.17 699.30 370.58 703.81 365.89 C 702.05 364.51 699.86 365.42 697.93 365.72 C 694.01 366.45 690.18 367.62 686.53 369.20 C 690.81 362.98 694.72 356.47 699.71 350.77 C 702.27 347.43 705.91 344.62 706.77 340.28 C 701.74 341.93 698.51 346.31 695.05 350.01 C 689.24 356.39 684.00 363.33 680.02 371.01 C 676.99 377.08 672.07 381.94 669.08 388.03 C 663.81 398.32 659.54 409.12 656.03 420.13 C 654.28 425.67 650.97 430.52 649.02 435.96 C 645.83 444.28 644.73 453.19 643.94 462.01 C 642.66 472.63 642.25 483.35 642.56 494.04 C 642.57 498.05 642.39 502.50 639.79 505.80 C 638.17 507.95 635.30 508.28 632.93 509.13 C 622.16 512.11 611.96 516.90 601.00 519.24 C 590.18 521.54 578.91 522.67 567.93 520.82 C 552.96 518.07 539.68 510.26 526.01 504.01 C 516.22 499.82 506.24 495.89 495.80 493.65 C 485.79 491.36 474.36 490.94 466.51 483.45 C 459.93 476.57 456.08 467.27 455.06 457.86 C 454.06 449.05 453.77 440.16 454.16 431.30 C 456.29 436.83 458.29 443.11 463.29 446.72 C 467.34 448.83 470.87 444.87 471.86 441.26 C 473.58 446.06 475.11 451.40 479.13 454.84 C 481.37 456.87 485.51 456.14 486.34 453.04 C 487.54 448.48 486.55 443.72 485.86 439.16 C 488.10 443.56 489.69 449.11 494.32 451.61 C 498.11 453.14 501.66 450.14 502.35 446.47 C 504.36 446.76 506.94 447.38 508.28 445.32 C 510.53 442.04 510.18 437.79 510.11 434.01 C 509.55 426.31 508.57 418.49 505.69 411.29 C 502.80 404.51 496.44 400.29 490.29 396.77 C 482.39 392.35 475.59 386.24 469.41 379.70 C 473.73 377.08 478.13 374.37 481.43 370.46 C 484.42 367.16 486.35 363.11 488.11 359.07 C 498.25 355.14 506.50 347.62 513.60 339.57 C 516.88 335.83 520.77 332.18 521.74 327.06 C 520.15 327.56 518.57 328.24 517.47 329.54 C 508.93 338.48 500.11 347.39 489.58 354.01 C 491.34 345.93 494.07 337.86 499.63 331.56 C 502.87 327.43 507.26 324.40 510.52 320.29 C 508.69 320.17 506.69 319.87 505.15 321.09 C 498.92 325.39 492.49 330.11 489.01 337.05 C 484.16 346.08 484.77 357.22 478.69 365.71 C 475.73 370.11 471.30 373.16 467.04 376.19 C 464.57 372.09 461.86 368.03 460.48 363.39 C 457.98 354.65 452.41 347.23 446.72 340.30 C 440.14 332.35 431.87 325.84 422.54 321.42 C 435.19 308.81 450.42 299.34 464.47 288.44 C 475.40 280.13 483.86 269.19 493.94 259.95 C 506.37 247.85 521.34 237.70 538.41 233.71 M 550.32 264.46 C 548.63 268.08 551.23 272.05 552.10 275.63 C 558.20 292.94 563.85 310.49 572.02 326.97 C 573.38 329.71 574.74 332.55 577.01 334.68 C 577.46 334.32 578.36 333.59 578.81 333.22 C 575.25 323.22 570.83 313.53 567.52 303.43 C 563.46 291.43 558.59 279.74 553.94 267.97 C 553.04 266.54 552.63 263.34 550.32 264.46 M 674.59 346.23 C 671.89 349.08 670.04 352.59 667.77 355.77 C 652.94 377.41 636.86 398.79 615.71 414.68 C 601.51 425.40 584.83 432.04 568.30 438.23 C 566.31 439.21 563.22 439.53 563.01 442.27 C 565.17 443.04 567.40 442.16 569.49 441.54 C 581.37 437.57 593.21 433.25 604.25 427.27 C 614.85 421.70 624.48 414.45 633.20 406.27 C 646.36 394.21 657.63 380.18 667.11 365.06 C 670.55 359.39 674.76 354.04 677.11 347.79 C 677.95 345.96 675.71 344.11 674.59 346.23 M 630.35 443.28 C 622.57 448.16 614.19 451.95 605.89 455.84 C 597.83 459.47 589.69 463.21 580.92 464.75 C 565.13 467.78 548.99 466.01 533.08 465.35 C 531.18 467.20 534.72 468.61 536.28 468.82 C 552.27 471.88 569.01 472.46 584.96 468.81 C 593.73 466.72 601.88 462.73 609.96 458.83 C 619.86 453.80 629.92 448.70 638.33 441.34 C 640.18 439.82 641.42 437.75 642.31 435.55 C 637.98 437.57 634.40 440.79 630.35 443.28 Z" />
    </g>
    <g id="#ffffffff">
        <path fill="var(--pants-color, grey)" opacity="1.00"
            d=" M 448.30 506.43 C 452.60 498.83 455.82 490.70 459.00 482.59 C 465.16 492.10 476.56 495.77 487.20 497.45 C 506.27 500.56 524.05 508.56 541.13 517.29 C 534.73 525.83 526.30 532.55 517.58 538.60 C 501.39 550.67 481.77 556.38 463.39 564.09 C 462.61 566.00 464.18 566.79 465.88 566.70 C 470.99 566.23 475.84 564.40 480.70 562.83 C 493.39 558.58 506.15 553.84 517.25 546.22 C 528.04 538.71 539.17 530.81 546.26 519.48 C 556.85 524.18 568.30 527.34 579.96 527.17 C 593.14 527.17 606.11 524.16 618.44 519.65 C 622.96 518.10 627.42 516.37 632.00 515.00 C 635.74 521.95 637.56 529.72 638.27 537.54 C 626.25 534.32 613.02 536.35 602.09 542.14 C 589.48 549.50 577.72 558.38 564.28 564.25 C 557.48 567.13 550.66 569.97 543.98 573.13 C 542.63 573.67 541.71 574.85 541.34 576.26 C 548.72 576.20 555.39 572.61 562.24 570.30 C 576.79 565.40 589.46 556.55 602.39 548.53 C 610.90 543.22 621.21 541.49 631.09 542.02 C 634.92 542.53 639.40 542.59 642.18 545.71 C 645.85 549.37 649.99 552.89 652.13 557.73 C 654.70 565.08 654.49 573.01 654.70 580.69 C 646.24 570.68 632.22 569.55 620.08 568.17 C 614.46 567.89 608.23 565.95 603.04 568.98 C 605.86 572.04 610.23 571.69 613.98 572.47 C 624.19 574.31 634.62 575.87 644.30 579.79 C 650.39 582.08 653.95 588.02 656.13 593.83 C 657.72 598.22 660.33 602.25 661.13 606.92 C 662.52 613.10 660.76 619.33 660.11 625.48 C 659.18 633.22 657.70 640.87 656.20 648.51 C 647.59 638.94 636.26 631.39 623.58 628.64 C 608.39 625.98 592.37 629.24 579.07 636.92 C 572.92 640.47 566.80 644.09 560.60 647.57 C 557.67 634.66 555.36 621.40 549.53 609.38 C 545.03 601.14 538.60 592.88 529.03 590.52 C 531.04 588.47 533.34 586.57 534.74 584.02 C 534.79 582.27 532.88 581.89 531.64 582.66 C 526.98 585.10 523.19 588.89 520.01 593.03 C 507.65 607.10 502.14 625.52 497.34 643.24 C 494.63 653.12 491.31 662.81 488.44 672.63 C 486.44 677.70 484.15 682.68 481.59 687.50 C 469.91 683.65 457.82 688.00 446.01 688.72 C 427.86 689.93 408.63 690.09 391.94 681.81 C 392.29 674.91 395.31 668.64 396.84 661.99 C 398.09 657.27 399.54 652.60 400.46 647.80 C 402.50 635.61 402.70 623.05 406.41 611.18 C 409.28 603.06 414.04 595.80 418.33 588.39 C 421.98 581.97 424.84 575.09 426.69 567.95 C 428.78 559.82 429.76 551.44 432.14 543.38 C 435.83 530.41 441.59 518.10 448.30 506.43 Z" />
        <path fill="var(--socks-color, grey)" opacity="1.00"
            d=" M 553.57 695.56 C 558.16 689.12 563.67 683.32 570.08 678.66 C 573.38 690.50 581.46 700.55 591.23 707.79 C 598.81 713.38 607.86 717.26 617.37 717.64 C 608.14 731.04 597.42 743.46 584.95 753.96 C 574.90 762.56 565.51 771.88 556.78 781.82 C 545.62 793.72 534.48 805.65 522.85 817.11 C 517.95 812.99 512.23 809.59 505.84 808.56 C 499.58 807.57 493.29 809.03 487.02 808.57 C 484.05 808.43 481.57 806.65 479.54 804.65 C 485.52 794.86 494.27 787.31 501.70 778.70 C 516.60 761.68 527.27 741.54 537.35 721.44 C 541.98 712.36 547.25 703.57 553.57 695.56 Z" />
        <path fill="var(--socks-color, grey)" opacity="1.00"
            d=" M 355.89 742.97 C 359.64 737.87 364.28 733.53 369.26 729.65 C 371.36 738.44 375.93 746.47 381.50 753.52 C 387.19 760.66 394.52 766.89 403.44 769.46 C 397.07 776.18 391.59 783.68 385.83 790.91 C 379.66 799.07 373.18 807.01 367.54 815.56 C 358.50 829.35 348.92 842.79 339.17 856.09 C 335.15 861.44 330.48 866.28 326.83 871.91 C 321.33 867.41 317.47 860.25 310.11 858.51 C 303.58 858.09 299.00 863.49 293.71 866.38 C 296.54 858.62 300.30 851.26 303.67 843.73 C 313.39 823.40 322.26 802.65 332.55 782.59 C 339.73 769.05 346.65 755.26 355.89 742.97 Z" />
    </g>
    <g id="#4d4d4dff">
        <path fill="#4d4d4d" opacity="1.00"
            d=" M 462.98 811.80 C 464.71 807.66 469.12 805.86 472.99 804.32 C 474.71 810.01 480.24 813.76 486.00 814.38 C 493.75 815.22 501.88 812.55 509.35 815.60 C 515.58 818.12 522.07 822.40 523.72 829.35 C 526.41 840.51 527.47 852.18 532.27 862.75 C 536.33 872.04 543.76 879.15 550.13 886.84 C 552.72 890.07 555.83 894.16 554.39 898.55 C 552.28 903.65 546.29 905.20 541.42 906.36 C 534.35 907.35 526.85 907.30 520.08 904.84 C 510.57 900.62 504.19 891.97 497.88 884.07 C 492.64 877.61 488.80 870.21 485.14 862.78 C 481.75 855.76 474.44 852.19 469.42 846.56 C 464.94 841.72 460.51 835.99 460.25 829.12 C 460.02 823.26 460.73 817.24 462.98 811.80 Z" />
        <path fill="#4d4d4d" opacity="1.00"
            d=" M 295.81 869.75 C 300.53 867.45 304.59 863.85 309.79 862.52 C 314.84 867.35 319.54 872.54 324.42 877.54 C 327.44 880.54 327.15 885.15 326.34 888.99 C 324.59 896.61 321.68 903.91 319.69 911.46 C 317.84 918.86 321.06 926.50 326.06 931.92 C 329.98 935.90 330.76 943.36 326.13 947.09 C 319.46 951.85 310.79 951.27 303.00 951.35 C 296.91 950.99 290.27 951.41 284.86 948.12 C 276.33 942.01 272.26 931.31 272.22 921.07 C 272.19 910.19 271.92 899.22 273.60 888.44 C 274.48 883.59 275.76 878.64 278.64 874.57 C 281.02 871.15 285.29 870.11 288.98 868.75 C 291.12 869.60 293.51 871.10 295.81 869.75 Z" />
    </g>
</svg>