<?xml version="1.0" encoding="UTF-8" ?>
<!DOCTYPE svg PUBLIC "-//W3C//DTD SVG 1.1//EN" "http://www.w3.org/Graphics/SVG/1.1/DTD/svg11.dtd">
<svg width="1000pt" height="1000pt" viewBox="0 0 1000 1000" version="1.1" xmlns="http://www.w3.org/2000/svg">
    <g id="#020202ff">
        <path fill="#020202" opacity="1.00"
            d=" M 518.70 38.61 C 526.69 34.01 535.77 31.06 545.04 30.93 C 549.92 30.98 554.71 32.00 559.53 32.65 C 568.93 34.04 577.59 38.38 585.46 43.53 C 594.16 49.11 602.60 56.19 613.25 57.42 C 612.09 62.34 606.08 63.16 601.91 63.95 C 607.07 68.15 613.32 70.38 619.32 72.98 C 620.09 76.31 615.68 76.09 613.62 77.12 C 620.88 85.54 625.33 96.77 624.21 107.97 C 623.37 115.70 620.63 123.54 615.10 129.18 C 613.30 131.11 610.72 132.02 608.81 133.78 C 603.51 142.25 597.55 150.45 594.09 159.92 C 591.00 167.65 593.25 176.07 593.09 184.11 C 592.92 186.65 590.84 188.60 588.62 189.58 C 585.72 190.97 582.44 190.05 579.38 190.43 C 572.11 197.38 567.79 206.73 561.71 214.64 C 557.09 220.63 549.29 222.93 542.01 223.18 C 534.64 223.43 526.79 222.44 520.75 217.85 C 516.04 222.57 511.20 227.28 505.43 230.70 C 505.89 241.20 504.49 251.69 502.19 261.92 C 501.01 267.36 498.60 272.41 495.92 277.25 C 517.68 272.74 540.30 273.90 561.82 267.99 C 570.61 266.02 575.92 257.22 584.98 255.81 C 590.33 254.29 595.17 257.41 599.84 259.46 C 602.60 258.57 605.01 256.69 607.93 256.26 C 613.76 255.83 619.51 258.39 623.84 262.16 C 627.44 265.19 629.45 270.28 628.19 274.90 C 627.44 277.08 625.04 277.80 623.26 278.87 C 627.16 283.36 626.77 291.40 621.02 294.16 C 621.65 297.02 622.36 300.21 620.77 302.90 C 619.03 306.27 615.15 307.37 611.78 308.34 C 611.43 311.13 611.44 314.20 609.66 316.54 C 606.36 320.81 599.94 322.20 595.12 319.83 C 592.50 318.73 590.05 316.82 587.08 316.89 C 579.67 317.13 572.42 319.87 564.96 318.93 C 560.01 318.29 555.08 317.24 550.07 317.60 C 538.56 317.82 527.73 322.10 516.59 324.43 C 505.15 326.89 493.50 330.57 481.69 328.80 C 478.62 340.56 477.07 352.71 473.16 364.27 C 469.32 375.44 464.64 386.38 462.14 397.97 C 461.52 400.94 461.13 404.34 463.02 406.96 C 465.85 411.07 469.76 414.25 473.09 417.93 C 482.92 427.56 491.02 438.73 499.36 449.63 C 509.78 463.93 518.89 479.57 522.97 496.94 C 523.37 498.82 523.43 500.75 523.51 502.68 C 516.48 507.94 512.03 515.73 506.09 522.08 C 510.29 526.06 510.60 532.02 510.31 537.44 C 514.97 541.05 517.58 546.41 520.75 551.23 C 526.01 559.80 533.30 566.91 538.43 575.57 C 542.85 583.11 547.36 591.05 548.03 599.96 C 548.40 602.17 547.37 604.24 546.69 606.28 C 554.84 615.49 563.90 623.92 573.50 631.61 C 578.41 635.68 583.67 639.77 586.51 645.65 C 590.08 653.22 591.28 661.60 593.59 669.58 C 595.89 675.58 599.50 681.59 605.33 684.74 C 617.92 693.20 628.73 703.95 640.56 713.39 C 651.96 723.06 663.75 732.26 675.46 741.55 C 696.56 758.80 717.75 775.93 738.66 793.41 C 742.63 796.47 746.45 800.02 751.35 801.53 C 756.03 802.96 760.72 804.53 764.81 807.29 C 773.75 812.85 779.93 821.59 785.99 829.98 C 793.22 839.98 802.72 847.98 811.06 857.01 C 818.15 864.58 823.76 874.37 823.73 885.01 C 823.91 888.53 822.20 891.69 820.68 894.74 C 816.03 904.21 806.68 910.95 796.50 913.29 C 784.40 915.42 772.42 910.86 761.97 905.14 C 752.61 899.34 745.82 890.45 738.35 882.56 C 731.36 874.41 724.19 866.25 719.37 856.57 C 715.76 850.10 714.17 842.71 714.17 835.34 C 704.66 831.04 695.96 825.20 686.65 820.49 C 673.25 813.28 659.37 807.01 645.66 800.41 C 632.58 793.97 619.66 787.20 607.12 779.78 C 592.60 771.12 579.14 760.71 567.03 748.92 C 562.14 744.09 557.49 738.92 553.99 732.98 C 550.94 727.44 547.81 721.94 544.49 716.56 C 535.78 704.73 525.68 694.02 515.94 683.06 C 508.55 674.79 500.99 666.51 491.83 660.16 C 488.61 658.01 485.45 655.61 481.68 654.52 C 482.76 662.99 483.46 671.55 482.79 680.09 C 482.24 688.46 481.55 697.11 477.70 704.72 C 473.37 714.01 464.01 720.31 461.38 730.49 C 458.93 740.87 459.17 751.62 458.24 762.19 C 455.07 786.00 446.00 808.49 441.74 832.07 C 438.10 852.05 433.75 871.92 431.45 892.11 C 430.24 901.01 429.77 910.01 428.03 918.84 C 437.33 931.85 451.84 940.10 466.70 945.26 C 479.56 950.49 493.32 952.94 506.31 957.78 C 510.39 959.42 515.28 961.45 516.58 966.11 C 517.78 972.09 513.85 977.82 509.30 981.31 C 501.80 986.41 492.47 987.16 483.81 988.89 C 467.85 992.07 451.14 994.75 435.06 990.85 C 422.61 987.82 409.72 987.66 396.99 987.10 C 385.64 986.58 374.38 989.30 363.05 988.29 C 356.89 987.81 351.41 983.26 349.48 977.46 C 346.66 969.30 347.24 960.20 350.22 952.17 C 354.21 941.61 360.36 932.03 366.73 922.78 C 367.94 921.00 369.08 919.09 369.32 916.92 C 370.48 908.95 372.22 901.07 373.02 893.05 C 373.90 880.05 374.52 867.02 374.51 853.99 C 374.25 836.94 374.04 819.79 376.47 802.86 C 379.85 783.30 381.90 762.99 391.09 745.05 C 396.84 731.59 405.39 718.94 407.10 704.08 C 409.04 686.10 403.93 668.33 398.47 651.39 C 393.58 650.07 388.46 649.38 383.88 647.15 C 381.35 646.00 380.03 643.39 379.22 640.88 C 376.36 632.20 375.07 623.04 371.43 614.61 C 366.56 602.77 361.21 590.91 353.25 580.79 C 351.46 578.61 350.19 575.87 347.73 574.36 C 338.90 569.21 329.54 564.82 321.55 558.37 C 305.41 545.22 290.64 527.58 288.55 506.09 C 284.52 507.15 280.39 508.15 276.19 507.72 C 275.73 503.83 276.34 499.93 276.21 496.03 C 275.88 485.00 274.78 473.96 275.46 462.92 C 276.52 437.66 286.54 413.97 289.91 389.06 C 291.85 379.56 292.99 369.91 294.98 360.42 C 286.75 362.37 278.49 364.21 270.12 365.47 C 256.31 367.69 247.65 380.40 234.77 384.86 C 232.44 385.73 229.80 386.22 227.99 388.05 C 225.11 391.89 224.61 397.54 220.29 400.24 C 215.45 402.67 209.27 399.21 207.61 394.30 C 205.08 395.67 201.92 396.40 199.35 394.71 C 193.46 390.08 188.62 384.17 185.14 377.54 C 182.80 376.62 179.77 375.15 180.50 372.06 C 182.33 361.70 185.10 351.09 191.52 342.54 C 195.49 337.52 202.47 336.79 208.41 337.20 C 204.53 333.37 200.48 328.60 200.45 322.90 C 201.25 319.90 205.00 321.58 207.01 322.15 C 214.51 324.88 222.97 324.77 229.88 329.11 C 234.23 331.73 236.41 336.60 240.21 339.84 C 241.50 341.17 243.56 340.90 245.07 340.10 C 251.65 336.75 258.41 333.67 264.45 329.39 C 275.73 321.50 286.47 312.84 296.74 303.67 C 298.87 301.81 301.17 300.17 303.49 298.56 C 305.37 292.01 307.53 285.54 310.22 279.27 C 313.93 270.67 317.09 261.82 321.56 253.58 C 329.35 238.48 340.32 225.27 352.53 213.54 C 362.41 204.38 371.71 194.62 380.79 184.67 C 386.01 179.27 390.99 173.34 397.76 169.82 C 402.68 167.12 408.30 166.07 413.85 165.64 C 424.54 164.75 435.31 164.04 446.02 164.90 C 447.85 159.38 449.75 153.88 451.41 148.31 C 451.76 146.58 453.42 145.89 454.82 145.17 C 453.38 140.22 451.46 135.33 451.32 130.11 C 450.77 118.76 450.92 107.31 452.64 96.05 C 454.76 84.71 459.66 73.87 466.80 64.81 C 471.87 58.29 477.04 51.38 484.59 47.58 C 492.73 43.54 501.86 41.49 510.95 41.55 C 513.84 41.68 516.27 39.91 518.70 38.61 M 544.05 140.84 C 540.40 148.01 544.68 155.74 547.38 162.45 C 540.05 157.93 537.17 149.09 536.10 141.00 C 531.38 143.52 526.43 145.79 522.37 149.35 C 517.83 153.19 514.44 158.12 510.42 162.45 C 509.37 163.28 508.48 164.86 506.95 164.61 C 503.94 163.51 502.39 160.45 501.45 157.60 C 500.20 159.32 498.72 162.14 496.13 160.89 C 489.89 158.48 483.13 158.10 476.81 155.96 C 476.74 157.34 476.66 158.72 476.60 160.09 C 482.17 166.46 485.24 174.43 489.53 181.61 C 492.83 186.99 495.74 192.60 499.08 197.97 C 503.04 206.36 503.33 215.84 504.81 224.86 C 510.62 218.63 517.47 213.43 522.75 206.70 C 524.91 204.21 526.52 201.22 528.98 199.00 C 530.88 197.59 531.46 200.61 530.98 201.88 C 529.68 206.45 526.68 210.26 524.01 214.10 C 532.13 217.78 541.61 218.67 550.17 216.05 C 554.16 214.88 557.28 211.90 559.46 208.44 C 564.21 201.02 568.97 193.50 575.00 187.02 C 578.36 183.10 584.22 186.79 587.97 183.89 C 587.89 175.68 585.22 167.16 588.24 159.18 C 590.95 151.54 595.31 144.57 600.27 138.20 C 601.56 136.50 601.62 134.26 602.13 132.27 C 598.79 133.94 595.74 136.26 592.07 137.19 C 586.98 138.80 581.56 139.41 576.73 141.77 C 571.10 144.54 567.82 150.15 564.01 154.87 C 561.62 149.91 559.19 144.96 557.21 139.82 C 555.41 135.26 555.10 130.31 554.37 125.51 C 551.11 130.73 546.71 135.26 544.05 140.84 M 455.19 150.06 C 454.14 155.84 452.70 161.69 449.86 166.87 C 448.78 169.10 446.05 168.85 443.99 169.05 C 432.65 169.33 421.30 169.94 410.07 171.62 C 402.73 172.68 396.30 176.99 391.39 182.39 C 382.85 190.83 375.01 199.96 366.33 208.26 C 361.90 212.54 357.28 216.60 352.92 220.95 C 339.08 234.40 327.57 250.41 320.25 268.31 C 316.69 277.31 312.53 286.06 309.39 295.21 C 316.20 291.96 323.58 290.26 330.66 287.70 C 336.89 285.78 342.94 283.32 349.04 281.02 C 348.89 280.24 348.60 278.70 348.46 277.92 C 356.02 267.21 369.17 263.09 380.82 258.50 C 380.85 254.58 381.19 250.56 383.01 247.01 C 388.78 235.19 397.46 224.85 407.95 216.92 C 415.32 211.32 421.86 204.50 429.99 199.97 C 429.46 201.62 428.48 203.06 427.18 204.19 C 415.24 215.18 402.00 225.12 392.67 238.60 C 388.75 244.37 384.51 250.47 384.04 257.66 C 386.88 254.91 388.61 251.23 391.48 248.49 C 396.27 242.96 402.63 239.10 409.33 236.32 C 418.32 232.59 427.48 229.33 436.48 225.63 C 440.83 224.04 445.16 221.86 449.93 222.05 C 448.18 224.51 445.20 225.37 442.61 226.60 C 436.20 229.41 429.89 232.42 423.63 235.53 C 416.57 239.05 408.82 241.05 402.04 245.14 C 397.62 247.74 394.07 251.49 390.38 254.99 C 402.60 251.01 415.83 249.07 426.59 241.56 C 428.32 240.45 429.65 238.57 431.73 238.10 C 432.88 240.24 431.39 242.40 429.76 243.75 C 419.23 252.79 405.40 255.78 392.44 259.61 C 379.74 264.09 366.51 267.95 355.31 275.66 C 366.97 280.87 373.04 293.00 378.02 304.04 C 382.79 315.98 390.34 326.64 399.37 335.74 C 403.33 339.37 408.21 341.90 411.79 345.96 C 420.37 331.62 432.47 319.67 446.21 310.26 C 450.92 307.21 455.65 303.89 461.10 302.31 C 463.17 301.52 465.22 302.53 467.11 303.32 C 460.77 304.01 455.82 308.27 450.80 311.77 C 443.81 316.74 437.51 322.58 431.43 328.60 C 437.00 326.27 442.99 325.19 449.01 325.00 C 453.20 324.93 457.64 324.12 461.57 326.02 C 457.88 327.47 453.87 327.28 450.00 327.69 C 442.07 328.39 433.89 329.83 427.00 334.04 C 421.98 339.14 419.03 345.94 413.95 351.01 C 413.07 351.84 412.06 352.62 410.85 352.85 C 407.91 351.63 405.17 349.90 402.05 349.14 C 389.95 345.32 376.92 347.61 364.74 344.20 C 361.20 343.24 357.92 341.47 355.22 339.00 C 343.18 344.94 330.43 349.20 317.83 353.75 C 311.56 356.02 305.17 357.94 298.70 359.54 C 297.57 369.06 297.03 378.65 295.11 388.06 C 292.37 410.70 284.41 432.29 281.35 454.86 C 279.14 471.25 281.29 487.77 281.24 504.21 C 291.83 499.56 303.75 500.40 315.01 501.02 C 331.07 502.52 347.12 504.48 362.93 507.70 C 381.68 511.71 400.82 514.48 418.91 521.05 C 425.48 523.51 432.11 525.81 438.67 528.29 C 446.54 531.09 454.59 533.92 463.02 534.21 C 474.95 534.51 487.47 531.70 496.71 523.75 C 505.56 517.25 510.01 506.06 520.05 501.02 C 516.26 486.09 509.14 472.16 500.32 459.59 C 490.10 444.73 479.27 430.19 466.43 417.48 C 461.48 412.68 456.71 406.40 457.51 399.10 C 459.58 382.45 467.69 367.39 471.21 351.09 C 473.34 342.74 473.86 333.99 477.07 325.94 C 479.29 319.78 482.80 314.15 484.72 307.88 C 487.27 300.49 488.09 292.68 490.18 285.17 C 488.08 287.52 486.00 290.23 482.88 291.21 C 481.56 291.95 480.59 290.82 480.04 289.80 C 484.20 286.68 487.03 282.27 489.85 278.00 C 493.17 272.87 495.84 267.24 497.18 261.25 C 499.78 249.37 501.29 237.11 499.91 224.96 C 499.02 217.42 498.44 209.66 495.45 202.58 C 491.52 192.75 484.32 184.69 480.00 175.04 C 474.88 164.11 465.54 155.91 455.19 150.06 M 607.40 260.03 C 605.41 261.56 603.34 262.99 601.17 264.25 C 599.62 272.60 597.60 281.38 591.90 287.96 C 589.65 290.49 586.19 288.69 583.57 287.92 C 582.51 290.18 581.96 292.65 580.77 294.85 C 579.49 296.41 577.38 295.29 575.79 295.08 C 574.07 297.09 572.01 299.15 571.74 301.92 C 572.06 306.10 574.20 309.87 576.39 313.35 C 580.56 312.63 584.78 311.76 589.03 312.18 C 592.73 312.57 595.49 315.43 598.99 316.42 C 601.32 316.86 603.85 316.05 605.58 314.45 C 608.09 311.79 605.95 307.25 608.65 304.72 C 611.30 303.26 615.31 303.83 616.92 300.78 C 618.59 297.79 615.59 294.64 616.58 291.64 C 618.65 290.50 622.12 290.13 621.83 287.00 C 622.86 283.12 618.51 280.69 618.49 277.11 C 620.58 276.10 623.44 275.87 624.65 273.61 C 624.87 270.63 623.48 267.68 621.25 265.74 C 617.45 262.32 612.42 260.54 607.40 260.03 M 572.96 268.04 C 566.27 273.07 557.70 274.11 549.77 275.90 C 531.39 278.73 512.74 279.27 494.42 282.55 C 493.68 291.70 492.06 300.82 489.39 309.62 C 487.78 315.23 484.93 320.36 482.71 325.73 C 500.54 323.82 517.87 319.06 535.16 314.50 C 540.94 312.92 546.95 312.27 552.94 312.40 C 559.56 312.29 565.94 314.74 572.59 314.11 C 569.09 309.67 565.48 303.64 567.94 297.89 C 569.76 294.17 572.47 289.60 577.28 289.98 C 578.47 287.16 579.96 284.28 582.96 283.05 C 581.44 279.40 580.60 275.30 581.45 271.39 C 581.81 270.19 582.64 269.78 583.95 270.17 C 585.50 274.95 585.83 280.16 588.53 284.54 C 592.55 278.87 595.20 272.44 597.56 265.95 C 595.77 262.41 591.62 260.92 587.93 260.48 C 582.14 260.86 577.47 264.78 572.96 268.04 M 346.89 285.92 C 337.76 290.33 328.05 293.37 318.48 296.64 C 311.57 299.06 305.16 302.87 299.67 307.70 C 293.09 313.46 286.30 318.99 279.32 324.27 C 271.04 330.57 262.57 336.77 252.99 340.96 C 248.78 342.66 244.79 346.15 239.97 345.24 C 233.94 343.30 231.66 336.53 226.42 333.49 C 220.46 330.28 213.48 330.19 207.19 327.89 C 210.88 332.80 215.82 336.51 220.07 340.89 C 221.18 342.67 223.68 345.25 222.11 347.32 C 218.30 346.73 216.36 341.65 212.07 341.91 C 206.86 341.68 200.55 341.57 196.66 345.63 C 192.39 351.68 189.97 358.84 188.20 365.97 C 191.14 362.86 193.62 359.24 197.09 356.70 C 197.54 356.87 198.43 357.23 198.88 357.41 C 197.93 363.94 190.53 367.46 189.72 374.02 C 190.31 377.62 193.45 380.20 195.31 383.22 C 196.74 376.95 197.67 369.64 202.99 365.34 C 203.31 365.72 203.96 366.46 204.29 366.84 C 203.04 373.64 200.32 380.20 199.50 387.12 C 199.27 389.82 202.97 392.44 204.97 389.99 C 208.61 385.71 209.45 379.90 212.04 375.04 C 212.64 373.59 214.99 372.55 215.03 374.96 C 214.83 380.67 213.22 386.32 210.07 391.11 C 210.88 394.38 213.64 396.73 217.11 396.61 C 221.03 393.68 220.90 387.79 224.38 384.38 C 228.25 380.88 233.33 379.29 237.94 377.04 C 244.26 373.92 250.20 370.09 255.79 365.80 C 261.38 361.65 268.22 359.80 275.03 358.87 C 286.63 356.47 298.34 354.34 309.68 350.88 C 323.38 346.10 337.25 341.61 350.35 335.31 C 360.10 330.71 368.68 323.91 378.75 319.96 C 371.23 307.35 368.21 291.31 355.72 282.23 C 352.72 283.32 349.78 284.57 346.89 285.92 M 360.33 336.26 C 372.78 342.18 387.11 340.11 400.12 343.99 C 392.37 339.10 386.83 331.53 381.41 324.31 C 374.15 327.87 367.29 332.16 360.33 336.26 M 291.43 505.67 C 294.78 512.94 297.15 520.72 301.66 527.41 C 311.32 542.15 324.73 554.44 340.20 562.88 C 357.16 572.61 374.00 582.52 390.86 592.41 C 400.81 598.00 410.94 603.29 420.54 609.46 C 432.98 617.77 445.50 626.21 455.97 636.99 C 459.95 641.12 462.78 646.15 465.74 651.02 C 474.27 650.84 482.70 649.55 491.17 648.62 C 497.45 647.59 503.80 646.37 509.57 643.56 C 516.65 640.49 522.15 634.82 526.84 628.83 C 532.73 621.12 537.70 612.74 542.10 604.10 C 543.68 601.29 542.51 597.96 541.73 595.09 C 537.17 582.16 528.22 571.54 520.11 560.72 C 509.04 562.27 497.99 563.89 486.95 565.65 C 482.61 566.26 478.25 567.12 473.85 566.83 C 472.24 566.96 472.10 565.13 471.87 564.03 C 486.68 559.47 502.29 558.42 517.62 556.73 C 514.63 552.09 512.27 547.05 508.83 542.72 C 504.79 546.51 500.56 550.41 495.09 551.95 C 485.66 555.77 475.60 552.19 465.92 551.69 C 463.73 551.08 459.60 551.89 459.26 548.84 C 459.67 548.64 460.50 548.24 460.92 548.03 C 468.62 547.84 476.34 548.09 484.04 548.57 C 492.09 548.89 499.75 545.23 505.58 539.87 C 505.47 534.83 506.39 529.38 503.17 525.03 C 492.05 535.75 476.10 539.98 460.96 538.97 C 450.11 538.08 439.92 533.91 429.79 530.23 C 422.05 527.49 414.36 524.55 406.43 522.39 C 394.44 519.08 382.17 516.92 369.97 514.60 C 360.01 512.59 350.03 510.65 339.96 509.29 C 323.87 507.18 307.70 504.57 291.43 505.67 M 358.59 580.55 C 368.01 592.08 374.54 605.80 379.32 619.82 C 381.42 626.80 382.53 634.07 384.91 640.96 C 385.43 642.79 387.53 643.10 389.09 643.63 C 398.51 645.81 407.94 648.05 417.56 649.17 C 422.96 649.91 428.59 650.32 433.85 648.57 C 439.97 646.83 445.22 643.12 450.76 640.15 C 442.68 631.41 432.76 624.68 423.01 617.98 C 415.59 612.80 407.74 608.30 399.82 603.96 C 385.87 596.54 372.25 588.49 358.59 580.55 M 531.33 631.34 C 526.38 637.70 520.55 643.62 513.29 647.30 C 506.41 650.93 498.78 652.80 491.13 653.97 C 500.67 659.76 508.90 667.41 516.38 675.64 C 524.59 684.76 532.91 693.79 540.73 703.25 C 545.33 708.96 549.96 714.80 552.70 721.69 C 557.68 718.40 562.41 714.75 566.91 710.84 C 577.32 701.67 587.29 691.86 595.40 680.55 C 586.30 670.70 588.03 655.93 580.94 645.04 C 576.28 638.97 569.70 634.82 563.98 629.85 C 556.90 623.83 550.22 617.21 544.86 609.58 C 541.14 617.30 536.44 624.49 531.33 631.34 M 430.98 655.17 C 422.02 656.33 413.08 654.06 404.28 652.61 C 408.69 667.00 412.44 681.86 412.35 697.00 C 412.37 706.80 409.76 716.43 405.72 725.30 C 420.64 733.11 437.41 738.30 454.36 738.08 C 455.03 733.98 455.61 729.83 457.09 725.94 C 461.18 715.17 472.01 708.42 474.96 697.08 C 478.26 683.49 478.34 669.26 476.58 655.44 C 472.01 655.50 467.32 656.20 462.83 655.05 C 457.73 653.84 457.10 647.69 454.13 644.15 C 446.86 648.62 439.62 653.84 430.98 655.17 M 576.41 708.38 C 569.56 714.41 562.59 720.55 554.31 724.57 C 557.04 729.39 560.22 733.95 564.09 737.93 C 583.67 758.59 608.19 773.75 633.43 786.52 C 660.69 800.45 688.84 812.91 714.31 830.06 C 714.88 820.42 721.65 812.35 729.77 807.76 C 734.27 805.14 739.62 805.02 744.68 804.84 C 741.67 803.10 738.96 800.93 736.27 798.75 C 715.06 780.94 693.71 763.29 672.31 745.71 C 657.26 733.80 642.32 721.74 627.82 709.16 C 618.23 700.69 608.55 692.31 598.09 684.92 C 591.89 693.61 584.19 701.11 576.41 708.38 M 394.22 749.25 C 386.79 765.02 384.44 782.46 381.77 799.51 C 379.88 811.23 379.70 823.13 379.51 834.97 C 380.29 854.80 379.94 874.68 378.12 894.44 C 376.88 903.10 374.74 911.60 372.48 920.05 C 374.82 925.18 378.44 929.68 382.93 933.11 C 386.14 935.37 389.82 938.30 394.01 937.20 C 402.05 935.67 408.82 930.69 415.86 926.81 C 421.21 923.88 422.59 917.36 423.20 911.80 C 424.42 898.46 425.90 885.13 428.19 871.93 C 431.22 855.93 434.19 839.91 437.37 823.93 C 441.75 803.99 448.90 784.73 452.18 764.55 C 453.30 757.30 453.04 749.93 453.95 742.66 C 444.98 743.70 436.03 741.69 427.42 739.36 C 419.22 736.94 410.98 734.00 404.04 728.88 C 400.64 735.61 397.28 742.36 394.22 749.25 M 741.49 809.62 C 737.77 810.15 733.87 810.63 730.64 812.72 C 727.27 814.87 724.46 817.84 722.18 821.10 C 718.88 826.08 719.37 832.33 719.43 838.03 C 719.45 845.98 722.98 853.35 727.02 860.01 C 732.81 869.85 740.83 878.08 748.34 886.59 C 753.62 892.33 759.07 898.10 765.62 902.40 C 775.49 907.33 787.24 910.75 798.11 907.08 C 806.81 904.39 813.51 897.51 817.88 889.74 C 819.85 886.21 818.43 882.00 817.49 878.39 C 814.31 868.09 806.27 860.50 798.84 853.14 C 792.12 846.50 785.39 839.77 780.05 831.93 C 774.00 823.23 767.22 814.18 757.16 809.92 C 752.07 808.45 746.66 808.86 741.49 809.62 M 407.32 937.29 C 401.49 939.45 395.33 943.13 388.94 941.06 C 380.61 938.48 374.13 931.85 369.78 924.50 C 363.97 934.88 357.33 944.99 353.65 956.38 C 351.87 963.52 351.27 971.67 354.56 978.45 C 359.43 985.37 368.72 983.44 375.95 983.17 C 396.68 983.44 417.79 982.26 438.09 987.35 C 452.67 990.44 467.66 987.74 482.09 985.03 C 489.35 983.61 496.95 983.04 503.69 979.73 C 507.90 977.71 511.42 973.70 512.09 968.99 C 512.54 965.77 509.11 964.27 506.74 963.14 C 494.55 958.03 481.44 955.69 469.10 950.99 C 452.89 945.64 436.44 937.40 426.64 922.87 C 423.12 930.79 414.45 933.62 407.32 937.29 Z" />
        <path fill="#020202" opacity="1.00"
            d=" M 435.24 376.73 C 435.74 377.44 436.13 378.21 436.39 379.04 C 438.24 395.79 444.50 412.01 454.17 425.81 C 462.54 438.88 471.57 451.54 481.45 463.52 C 487.24 470.61 492.85 477.96 496.66 486.34 C 498.48 490.53 500.95 494.59 501.34 499.25 C 497.56 498.30 496.75 493.95 494.86 491.09 C 488.45 477.86 478.41 467.01 469.58 455.42 C 464.59 448.99 459.85 442.38 455.36 435.59 C 449.15 426.19 442.26 416.98 438.75 406.13 C 436.36 398.60 434.27 390.87 433.74 382.96 C 433.44 380.75 434.20 378.65 435.24 376.73 Z" />
        <path fill="#020202" opacity="1.00"
            d=" M 379.14 409.84 C 378.48 407.20 381.46 408.31 382.30 409.63 C 394.74 422.38 409.20 432.88 423.11 443.92 C 434.32 452.58 444.32 462.74 453.37 473.63 C 456.68 477.92 460.29 482.47 461.11 488.00 C 461.61 490.82 458.82 493.36 456.06 492.47 C 450.00 490.99 444.47 487.91 438.44 486.33 C 433.53 484.54 427.94 484.10 423.81 480.64 C 427.84 480.25 431.71 481.62 435.58 482.49 C 442.80 484.20 449.83 486.58 457.01 488.45 C 454.85 482.11 450.33 477.04 446.04 472.05 C 439.56 464.86 432.79 457.89 425.34 451.70 C 412.52 441.23 399.11 431.39 387.34 419.70 C 384.47 416.54 381.23 413.59 379.14 409.84 Z" />
        <path fill="#020202" opacity="1.00"
            d=" M 372.80 575.95 C 375.02 576.10 377.17 576.71 379.18 577.66 C 408.76 590.96 437.61 606.38 468.98 615.20 C 471.66 615.96 474.49 616.43 476.90 617.93 C 474.84 620.37 471.56 619.38 468.89 618.95 C 453.04 615.43 437.46 610.48 422.83 603.39 C 408.03 596.25 393.28 588.98 378.81 581.19 C 376.56 579.77 373.53 578.82 372.80 575.95 Z" />
    </g>
    <g id="#f0b58bff">
        <path fill="#f0b58b" opacity="1.00"
            d=" M 544.05 140.84 C 546.71 135.26 551.11 130.73 554.37 125.51 C 555.10 130.31 555.41 135.26 557.21 139.82 C 559.19 144.96 561.62 149.91 564.01 154.87 C 567.82 150.15 571.10 144.54 576.73 141.77 C 581.56 139.41 586.98 138.80 592.07 137.19 C 595.74 136.26 598.79 133.94 602.13 132.27 C 601.62 134.26 601.56 136.50 600.27 138.20 C 595.31 144.57 590.95 151.54 588.24 159.18 C 585.22 167.16 587.89 175.68 587.97 183.89 C 584.22 186.79 578.36 183.10 575.00 187.02 C 568.97 193.50 564.21 201.02 559.46 208.44 C 557.28 211.90 554.16 214.88 550.17 216.05 C 541.61 218.67 532.13 217.78 524.01 214.10 C 526.68 210.26 529.68 206.45 530.98 201.88 C 531.46 200.61 530.88 197.59 528.98 199.00 C 526.52 201.22 524.91 204.21 522.75 206.70 C 517.47 213.43 510.62 218.63 504.81 224.86 C 503.33 215.84 503.04 206.36 499.08 197.97 C 495.74 192.60 492.83 186.99 489.53 181.61 C 485.24 174.43 482.17 166.46 476.60 160.09 C 476.66 158.72 476.74 157.34 476.81 155.96 C 483.13 158.10 489.89 158.48 496.13 160.89 C 498.72 162.14 500.20 159.32 501.45 157.60 C 502.39 160.45 503.94 163.51 506.95 164.61 C 508.48 164.86 509.37 163.28 510.42 162.45 C 514.44 158.12 517.83 153.19 522.37 149.35 C 526.43 145.79 531.38 143.52 536.10 141.00 C 537.17 149.09 540.05 157.93 547.38 162.45 C 544.68 155.74 540.40 148.01 544.05 140.84 Z" />
        <path fill="#f0b58b" opacity="1.00"
            d=" M 607.40 260.03 C 612.42 260.54 617.45 262.32 621.25 265.74 C 623.48 267.68 624.87 270.63 624.65 273.61 C 623.44 275.87 620.58 276.10 618.49 277.11 C 618.51 280.69 622.86 283.12 621.83 287.00 C 622.12 290.13 618.65 290.50 616.58 291.64 C 615.59 294.64 618.59 297.79 616.92 300.78 C 615.31 303.83 611.30 303.26 608.65 304.72 C 605.95 307.25 608.09 311.79 605.58 314.45 C 603.85 316.05 601.32 316.86 598.99 316.42 C 595.49 315.43 592.73 312.57 589.03 312.18 C 584.78 311.76 580.56 312.63 576.39 313.35 C 574.20 309.87 572.06 306.10 571.74 301.92 C 572.01 299.15 574.07 297.09 575.79 295.08 C 577.38 295.29 579.49 296.41 580.77 294.85 C 581.96 292.65 582.51 290.18 583.57 287.92 C 586.19 288.69 589.65 290.49 591.90 287.96 C 597.60 281.38 599.62 272.60 601.17 264.25 C 603.34 262.99 605.41 261.56 607.40 260.03 Z" />
        <path fill="#f0b58b" opacity="1.00"
            d=" M 572.96 268.04 C 577.47 264.78 582.14 260.86 587.93 260.48 C 591.62 260.92 595.77 262.41 597.56 265.95 C 595.20 272.44 592.55 278.87 588.53 284.54 C 585.83 280.16 585.50 274.95 583.95 270.17 C 582.64 269.78 581.81 270.19 581.45 271.39 C 580.60 275.30 581.44 279.40 582.96 283.05 C 579.96 284.28 578.47 287.16 577.28 289.98 C 572.47 289.60 569.76 294.17 567.94 297.89 C 565.48 303.64 569.09 309.67 572.59 314.11 C 565.94 314.74 559.56 312.29 552.94 312.40 C 546.95 312.27 540.94 312.92 535.16 314.50 C 517.87 319.06 500.54 323.82 482.71 325.73 C 484.93 320.36 487.78 315.23 489.39 309.62 C 492.06 300.82 493.68 291.70 494.42 282.55 C 512.74 279.27 531.39 278.73 549.77 275.90 C 557.70 274.11 566.27 273.07 572.96 268.04 Z" />
        <path fill="#f0b58b" opacity="1.00"
            d=" M 346.89 285.92 C 349.78 284.57 352.72 283.32 355.72 282.23 C 368.21 291.31 371.23 307.35 378.75 319.96 C 368.68 323.91 360.10 330.71 350.35 335.31 C 337.25 341.61 323.38 346.10 309.68 350.88 C 298.34 354.34 286.63 356.47 275.03 358.87 C 268.22 359.80 261.38 361.65 255.79 365.80 C 250.20 370.09 244.26 373.92 237.94 377.04 C 233.33 379.29 228.25 380.88 224.38 384.38 C 220.90 387.79 221.03 393.68 217.11 396.61 C 213.64 396.73 210.88 394.38 210.07 391.11 C 213.22 386.32 214.83 380.67 215.03 374.96 C 214.99 372.55 212.64 373.59 212.04 375.04 C 209.45 379.90 208.61 385.71 204.97 389.99 C 202.97 392.44 199.27 389.82 199.50 387.12 C 200.32 380.20 203.04 373.64 204.29 366.84 C 203.96 366.46 203.31 365.72 202.99 365.34 C 197.67 369.64 196.74 376.95 195.31 383.22 C 193.45 380.20 190.31 377.62 189.72 374.02 C 190.53 367.46 197.93 363.94 198.88 357.41 C 198.43 357.23 197.54 356.87 197.09 356.70 C 193.62 359.24 191.14 362.86 188.20 365.97 C 189.97 358.84 192.39 351.68 196.66 345.63 C 200.55 341.57 206.86 341.68 212.07 341.91 C 216.36 341.65 218.30 346.73 222.11 347.32 C 223.68 345.25 221.18 342.67 220.07 340.89 C 215.82 336.51 210.88 332.80 207.19 327.89 C 213.48 330.19 220.46 330.28 226.42 333.49 C 231.66 336.53 233.94 343.30 239.97 345.24 C 244.79 346.15 248.78 342.66 252.99 340.96 C 262.57 336.77 271.04 330.57 279.32 324.27 C 286.30 318.99 293.09 313.46 299.67 307.70 C 305.16 302.87 311.57 299.06 318.48 296.64 C 328.05 293.37 337.76 290.33 346.89 285.92 Z" />
        <path fill="#f0b58b" opacity="1.00"
            d=" M 531.33 631.34 C 536.44 624.49 541.14 617.30 544.86 609.58 C 550.22 617.21 556.90 623.83 563.98 629.85 C 569.70 634.82 576.28 638.97 580.94 645.04 C 588.03 655.93 586.30 670.70 595.40 680.55 C 587.29 691.86 577.32 701.67 566.91 710.84 C 562.41 714.75 557.68 718.40 552.70 721.69 C 549.96 714.80 545.33 708.96 540.73 703.25 C 532.91 693.79 524.59 684.76 516.38 675.64 C 508.90 667.41 500.67 659.76 491.13 653.97 C 498.78 652.80 506.41 650.93 513.29 647.30 C 520.55 643.62 526.38 637.70 531.33 631.34 Z" />
        <path fill="#f0b58b" opacity="1.00"
            d=" M 430.98 655.17 C 439.62 653.84 446.86 648.62 454.13 644.15 C 457.10 647.69 457.73 653.84 462.83 655.05 C 467.32 656.20 472.01 655.50 476.58 655.44 C 478.34 669.26 478.26 683.49 474.96 697.08 C 472.01 708.42 461.18 715.17 457.09 725.94 C 455.61 729.83 455.03 733.98 454.36 738.08 C 437.41 738.30 420.64 733.11 405.72 725.30 C 409.76 716.43 412.37 706.80 412.35 697.00 C 412.44 681.86 408.69 667.00 404.28 652.61 C 413.08 654.06 422.02 656.33 430.98 655.17 Z" />
    </g>
    <g id="#f11b27ff">
        <path fill="var(--shirt-color, grey)" opacity="1.00"
            d=" M 455.19 150.06 C 465.54 155.91 474.88 164.11 480.00 175.04 C 484.32 184.69 491.52 192.75 495.45 202.58 C 498.44 209.66 499.02 217.42 499.91 224.96 C 501.29 237.11 499.78 249.37 497.18 261.25 C 495.84 267.24 493.17 272.87 489.85 278.00 C 487.03 282.27 484.20 286.68 480.04 289.80 C 480.59 290.82 481.56 291.95 482.88 291.21 C 486.00 290.23 488.08 287.52 490.18 285.17 C 488.09 292.68 487.27 300.49 484.72 307.88 C 482.80 314.15 479.29 319.78 477.07 325.94 C 473.86 333.99 473.34 342.74 471.21 351.09 C 467.69 367.39 459.58 382.45 457.51 399.10 C 456.71 406.40 461.48 412.68 466.43 417.48 C 479.27 430.19 490.10 444.73 500.32 459.59 C 509.14 472.16 516.26 486.09 520.05 501.02 C 510.01 506.06 505.56 517.25 496.71 523.75 C 487.47 531.70 474.95 534.51 463.02 534.21 C 454.59 533.92 446.54 531.09 438.67 528.29 C 432.11 525.81 425.48 523.51 418.91 521.05 C 400.82 514.48 381.68 511.71 362.93 507.70 C 347.12 504.48 331.07 502.52 315.01 501.02 C 303.75 500.40 291.83 499.56 281.24 504.21 C 281.29 487.77 279.14 471.25 281.35 454.86 C 284.41 432.29 292.37 410.70 295.11 388.06 C 297.03 378.65 297.57 369.06 298.70 359.54 C 305.17 357.94 311.56 356.02 317.83 353.75 C 330.43 349.20 343.18 344.94 355.22 339.00 C 357.92 341.47 361.20 343.24 364.74 344.20 C 376.92 347.61 389.95 345.32 402.05 349.14 C 405.17 349.90 407.91 351.63 410.85 352.85 C 412.06 352.62 413.07 351.84 413.95 351.01 C 419.03 345.94 421.98 339.14 427.00 334.04 C 433.89 329.83 442.07 328.39 450.00 327.69 C 453.87 327.28 457.88 327.47 461.57 326.02 C 457.64 324.12 453.20 324.93 449.01 325.00 C 442.99 325.19 437.00 326.27 431.43 328.60 C 437.51 322.58 443.81 316.74 450.80 311.77 C 455.82 308.27 460.77 304.01 467.11 303.32 C 465.22 302.53 463.17 301.52 461.10 302.31 C 455.65 303.89 450.92 307.21 446.21 310.26 C 432.47 319.67 420.37 331.62 411.79 345.96 C 408.21 341.90 403.33 339.37 399.37 335.74 C 390.34 326.64 382.79 315.98 378.02 304.04 C 373.04 293.00 366.97 280.87 355.31 275.66 C 366.51 267.95 379.74 264.09 392.44 259.61 C 405.40 255.78 419.23 252.79 429.76 243.75 C 431.39 242.40 432.88 240.24 431.73 238.10 C 429.65 238.57 428.32 240.45 426.59 241.56 C 415.83 249.07 402.60 251.01 390.38 254.99 C 394.07 251.49 397.62 247.74 402.04 245.14 C 408.82 241.05 416.57 239.05 423.63 235.53 C 429.89 232.42 436.20 229.41 442.61 226.60 C 445.20 225.37 448.18 224.51 449.93 222.05 C 445.16 221.86 440.83 224.04 436.48 225.63 C 427.48 229.33 418.32 232.59 409.33 236.32 C 402.63 239.10 396.27 242.96 391.48 248.49 C 388.61 251.23 386.88 254.91 384.04 257.66 C 384.51 250.47 388.75 244.37 392.67 238.60 C 402.00 225.12 415.24 215.18 427.18 204.19 C 428.48 203.06 429.46 201.62 429.99 199.97 C 421.86 204.50 415.32 211.32 407.95 216.92 C 397.46 224.85 388.78 235.19 383.01 247.01 C 381.19 250.56 380.85 254.58 380.82 258.50 C 369.17 263.09 356.02 267.21 348.46 277.92 C 348.60 278.70 348.89 280.24 349.04 281.02 C 342.94 283.32 336.89 285.78 330.66 287.70 C 323.58 290.26 316.20 291.96 309.39 295.21 C 312.53 286.06 316.69 277.31 320.25 268.31 C 327.57 250.41 339.08 234.40 352.92 220.95 C 357.28 216.60 361.90 212.54 366.33 208.26 C 375.01 199.96 382.85 190.83 391.39 182.39 C 396.30 176.99 402.73 172.68 410.07 171.62 C 421.30 169.94 432.65 169.33 443.99 169.05 C 446.05 168.85 448.78 169.10 449.86 166.87 C 452.70 161.69 454.14 155.84 455.19 150.06 M 435.24 376.73 C 434.20 378.65 433.44 380.75 433.74 382.96 C 434.27 390.87 436.36 398.60 438.75 406.13 C 442.26 416.98 449.15 426.19 455.36 435.59 C 459.85 442.38 464.59 448.99 469.58 455.42 C 478.41 467.01 488.45 477.86 494.86 491.09 C 496.75 493.95 497.56 498.30 501.34 499.25 C 500.95 494.59 498.48 490.53 496.66 486.34 C 492.85 477.96 487.24 470.61 481.45 463.52 C 471.57 451.54 462.54 438.88 454.17 425.81 C 444.50 412.01 438.24 395.79 436.39 379.04 C 436.13 378.21 435.74 377.44 435.24 376.73 M 379.14 409.84 C 381.23 413.59 384.47 416.54 387.34 419.70 C 399.11 431.39 412.52 441.23 425.34 451.70 C 432.79 457.89 439.56 464.86 446.04 472.05 C 450.33 477.04 454.85 482.11 457.01 488.45 C 449.83 486.58 442.80 484.20 435.58 482.49 C 431.71 481.62 427.84 480.25 423.81 480.64 C 427.94 484.10 433.53 484.54 438.44 486.33 C 444.47 487.91 450.00 490.99 456.06 492.47 C 458.82 493.36 461.61 490.82 461.11 488.00 C 460.29 482.47 456.68 477.92 453.37 473.63 C 444.32 462.74 434.32 452.58 423.11 443.92 C 409.20 432.88 394.74 422.38 382.30 409.63 C 381.46 408.31 378.48 407.20 379.14 409.84 Z" />
        <path fill="var(--shirt-color, grey)" opacity="1.00"
            d=" M 360.33 336.26 C 367.29 332.16 374.15 327.87 381.41 324.31 C 386.83 331.53 392.37 339.10 400.12 343.99 C 387.11 340.11 372.78 342.18 360.33 336.26 Z" />
    </g>
    <g id="#ffffffff">
        <path fill="var(--pants-color, grey)" opacity="1.00"
            d=" M 291.43 505.67 C 307.70 504.57 323.87 507.18 339.96 509.29 C 350.03 510.65 360.01 512.59 369.97 514.60 C 382.17 516.92 394.44 519.08 406.43 522.39 C 414.36 524.55 422.05 527.49 429.79 530.23 C 439.92 533.91 450.11 538.08 460.96 538.97 C 476.10 539.98 492.05 535.75 503.17 525.03 C 506.39 529.38 505.47 534.83 505.58 539.87 C 499.75 545.23 492.09 548.89 484.04 548.57 C 476.34 548.09 468.62 547.84 460.92 548.03 C 460.50 548.24 459.67 548.64 459.26 548.84 C 459.60 551.89 463.73 551.08 465.92 551.69 C 475.60 552.19 485.66 555.77 495.09 551.95 C 500.56 550.41 504.79 546.51 508.83 542.72 C 512.27 547.05 514.63 552.09 517.62 556.73 C 502.29 558.42 486.68 559.47 471.87 564.03 C 472.10 565.13 472.24 566.96 473.85 566.83 C 478.25 567.12 482.61 566.26 486.95 565.65 C 497.99 563.89 509.04 562.27 520.11 560.72 C 528.22 571.54 537.17 582.16 541.73 595.09 C 542.51 597.96 543.68 601.29 542.10 604.10 C 537.70 612.74 532.73 621.12 526.84 628.83 C 522.15 634.82 516.65 640.49 509.57 643.56 C 503.80 646.37 497.45 647.59 491.17 648.62 C 482.70 649.55 474.27 650.84 465.74 651.02 C 462.78 646.15 459.95 641.12 455.97 636.99 C 445.50 626.21 432.98 617.77 420.54 609.46 C 410.94 603.29 400.81 598.00 390.86 592.41 C 374.00 582.52 357.16 572.61 340.20 562.88 C 324.73 554.44 311.32 542.15 301.66 527.41 C 297.15 520.72 294.78 512.94 291.43 505.67 M 372.80 575.95 C 373.53 578.82 376.56 579.77 378.81 581.19 C 393.28 588.98 408.03 596.25 422.83 603.39 C 437.46 610.48 453.04 615.43 468.89 618.95 C 471.56 619.38 474.84 620.37 476.90 617.93 C 474.49 616.43 471.66 615.96 468.98 615.20 C 437.61 606.38 408.76 590.96 379.18 577.66 C 377.17 576.71 375.02 576.10 372.80 575.95 Z" />
        <path fill="var(--pants-color, grey)" opacity="1.00"
            d=" M 358.59 580.55 C 372.25 588.49 385.87 596.54 399.82 603.96 C 407.74 608.30 415.59 612.80 423.01 617.98 C 432.76 624.68 442.68 631.41 450.76 640.15 C 445.22 643.12 439.97 646.83 433.85 648.57 C 428.59 650.32 422.96 649.91 417.56 649.17 C 407.94 648.05 398.51 645.81 389.09 643.63 C 387.53 643.10 385.43 642.79 384.91 640.96 C 382.53 634.07 381.42 626.80 379.32 619.82 C 374.54 605.80 368.01 592.08 358.59 580.55 Z" />
        <path fill="var(--socks-color, grey)" opacity="1.00"
            d=" M 576.41 708.38 C 584.19 701.11 591.89 693.61 598.09 684.92 C 608.55 692.31 618.23 700.69 627.82 709.16 C 642.32 721.74 657.26 733.80 672.31 745.71 C 693.71 763.29 715.06 780.94 736.27 798.75 C 738.96 800.93 741.67 803.10 744.68 804.84 C 739.62 805.02 734.27 805.14 729.77 807.76 C 721.65 812.35 714.88 820.42 714.31 830.06 C 688.84 812.91 660.69 800.45 633.43 786.52 C 608.19 773.75 583.67 758.59 564.09 737.93 C 560.22 733.95 557.04 729.39 554.31 724.57 C 562.59 720.55 569.56 714.41 576.41 708.38 Z" />
        <path fill="var(--socks-color, grey)" opacity="1.00"
            d=" M 394.22 749.25 C 397.28 742.36 400.64 735.61 404.04 728.88 C 410.98 734.00 419.22 736.94 427.42 739.36 C 436.03 741.69 444.98 743.70 453.95 742.66 C 453.04 749.93 453.30 757.30 452.18 764.55 C 448.90 784.73 441.75 803.99 437.37 823.93 C 434.19 839.91 431.22 855.93 428.19 871.93 C 425.90 885.13 424.42 898.46 423.20 911.80 C 422.59 917.36 421.21 923.88 415.86 926.81 C 408.82 930.69 402.05 935.67 394.01 937.20 C 389.82 938.30 386.14 935.37 382.93 933.11 C 378.44 929.68 374.82 925.18 372.48 920.05 C 374.74 911.60 376.88 903.10 378.12 894.44 C 379.94 874.68 380.29 854.80 379.51 834.97 C 379.70 823.13 379.88 811.23 381.77 799.51 C 384.44 782.46 386.79 765.02 394.22 749.25 Z" />
    </g>
    <g id="#4d4d4dff">
        <path fill="#4d4d4d" opacity="1.00"
            d=" M 741.49 809.62 C 746.66 808.86 752.07 808.45 757.16 809.92 C 767.22 814.18 774.00 823.23 780.05 831.93 C 785.39 839.77 792.12 846.50 798.84 853.14 C 806.27 860.50 814.31 868.09 817.49 878.39 C 818.43 882.00 819.85 886.21 817.88 889.74 C 813.51 897.51 806.81 904.39 798.11 907.08 C 787.24 910.75 775.49 907.33 765.62 902.40 C 759.07 898.10 753.62 892.33 748.34 886.59 C 740.83 878.08 732.81 869.85 727.02 860.01 C 722.98 853.35 719.45 845.98 719.43 838.03 C 719.37 832.33 718.88 826.08 722.18 821.10 C 724.46 817.84 727.27 814.87 730.64 812.72 C 733.87 810.63 737.77 810.15 741.49 809.62 Z" />
        <path fill="#4d4d4d" opacity="1.00"
            d=" M 407.32 937.29 C 414.45 933.62 423.12 930.79 426.64 922.87 C 436.44 937.40 452.89 945.64 469.10 950.99 C 481.44 955.69 494.55 958.03 506.74 963.14 C 509.11 964.27 512.54 965.77 512.09 968.99 C 511.42 973.70 507.90 977.71 503.69 979.73 C 496.95 983.04 489.35 983.61 482.09 985.03 C 467.66 987.74 452.67 990.44 438.09 987.35 C 417.79 982.26 396.68 983.44 375.95 983.17 C 368.72 983.44 359.43 985.37 354.56 978.45 C 351.27 971.67 351.87 963.52 353.65 956.38 C 357.33 944.99 363.97 934.88 369.78 924.50 C 374.13 931.85 380.61 938.48 388.94 941.06 C 395.33 943.13 401.49 939.45 407.32 937.29 Z" />
    </g>
</svg>