<?xml version="1.0" encoding="UTF-8" ?>
<!DOCTYPE svg PUBLIC "-//W3C//DTD SVG 1.1//EN" "http://www.w3.org/Graphics/SVG/1.1/DTD/svg11.dtd">
<svg width="1000pt" height="1000pt" viewBox="0 0 1000 1000" version="1.1" xmlns="http://www.w3.org/2000/svg">
    <g id="#020202ff">
        <path fill="#020202" opacity="1.00"
            d=" M 597.56 55.59 C 603.31 52.84 609.63 51.39 615.98 50.92 C 619.60 50.62 622.83 52.53 626.19 53.54 C 632.08 55.50 638.32 56.51 643.96 59.16 C 647.27 60.56 647.93 64.49 650.32 66.77 C 656.82 68.69 663.86 67.66 670.34 69.78 C 673.67 71.04 676.50 73.48 678.48 76.42 C 681.98 81.89 685.55 87.32 689.40 92.55 C 693.59 98.32 699.39 102.89 702.49 109.43 C 709.08 122.14 713.73 136.07 714.88 150.39 C 710.57 148.64 706.27 146.74 701.67 145.89 C 700.90 153.82 699.84 161.77 697.60 169.44 C 695.26 177.46 690.14 184.24 686.86 191.86 C 681.70 204.96 677.33 218.41 670.94 231.01 C 666.13 240.78 659.86 249.72 653.43 258.47 C 649.26 263.93 644.73 269.82 637.92 272.01 C 630.20 274.52 621.59 273.11 614.38 269.66 C 608.98 267.27 603.66 264.58 599.14 260.74 C 601.95 273.57 608.27 285.23 612.52 297.59 C 615.57 303.83 617.95 310.53 617.70 317.60 C 627.12 319.27 636.62 320.41 646.03 322.15 C 655.94 323.78 666.12 325.21 676.12 323.52 C 682.31 322.02 688.39 319.93 694.05 316.99 C 708.70 310.15 725.06 307.85 741.10 308.27 C 747.54 308.78 753.56 312.46 757.53 317.47 C 759.02 319.24 758.87 321.62 758.17 323.69 C 762.58 325.70 766.35 329.91 766.53 334.93 C 766.45 337.70 765.17 341.49 761.93 341.76 C 757.70 341.71 753.57 340.67 749.41 340.01 C 753.86 344.45 758.46 348.86 761.88 354.18 C 762.97 355.76 763.69 357.89 762.60 359.69 C 760.57 363.29 756.85 365.52 753.11 367.00 C 752.32 368.46 751.86 370.55 749.95 370.89 C 746.31 371.65 742.61 370.80 738.95 370.77 C 726.96 370.61 715.00 369.63 703.01 369.35 C 672.84 367.71 642.94 373.15 612.85 373.87 C 627.89 381.47 642.88 389.22 658.57 395.45 C 670.24 400.79 682.37 405.13 693.66 411.28 C 702.48 415.97 711.99 420.84 717.41 429.62 C 723.56 440.64 723.52 453.89 721.39 466.02 C 720.78 468.66 719.58 471.78 716.77 472.72 C 714.62 473.69 712.41 472.56 710.39 471.85 C 706.37 475.50 699.92 475.13 695.95 471.59 C 692.69 473.80 688.67 472.85 685.01 472.91 C 679.83 473.16 675.99 468.19 675.44 463.42 C 674.93 459.60 674.15 455.48 671.04 452.87 C 664.97 447.68 657.69 444.23 650.97 440.02 C 648.38 438.37 645.83 436.50 644.10 433.92 C 642.50 431.71 642.68 428.86 642.39 426.28 C 633.05 423.52 623.46 421.71 613.94 419.71 C 605.72 417.87 597.30 417.20 589.09 415.31 C 587.38 422.13 584.08 428.80 584.87 436.02 C 585.73 443.14 589.86 449.67 589.37 457.00 C 588.80 462.83 582.65 465.75 581.01 471.15 C 579.80 474.69 580.11 480.20 584.34 481.50 C 593.39 485.46 604.46 488.25 609.54 497.60 C 612.87 505.57 611.97 514.61 610.52 522.93 C 609.23 530.23 606.32 537.28 601.80 543.19 C 600.43 543.28 599.07 543.38 597.72 543.49 C 599.28 551.45 601.93 559.15 605.66 566.36 C 612.37 582.10 619.17 597.92 628.69 612.22 C 634.11 620.62 639.27 629.20 643.94 638.05 C 646.00 642.33 648.46 647.11 647.08 651.98 C 646.47 654.91 644.02 656.97 641.57 658.44 C 641.54 658.46 641.48 658.50 641.44 658.53 L 641.48 658.60 C 651.23 673.82 653.80 693.67 646.69 710.48 C 652.36 721.41 655.73 733.39 658.77 745.29 C 662.58 761.93 664.91 778.88 666.53 795.87 C 668.75 813.81 669.24 831.88 670.25 849.92 C 670.48 856.65 671.46 863.47 670.08 870.15 C 679.12 871.46 686.23 877.82 694.21 881.76 C 704.87 887.37 717.28 888.48 729.12 887.59 C 736.50 887.03 744.10 885.10 751.39 887.42 C 756.52 888.87 762.66 891.66 763.70 897.53 C 764.52 902.60 762.51 907.68 760.17 912.09 C 754.72 921.63 747.13 929.71 739.28 937.31 C 732.46 943.57 725.50 950.01 717.08 954.07 C 706.18 959.45 692.97 957.85 682.68 964.74 C 674.40 970.32 667.08 977.21 658.70 982.65 C 654.04 985.62 649.42 989.00 643.96 990.30 C 639.13 991.15 634.06 989.68 630.15 986.80 C 625.97 983.68 620.82 981.75 617.67 977.38 C 606.45 962.91 603.75 943.85 603.87 926.02 C 604.36 919.44 604.07 912.05 608.56 906.68 C 607.13 900.15 606.59 893.46 604.88 887.00 C 600.79 872.39 595.03 858.29 588.27 844.72 C 583.84 835.78 579.40 826.73 577.03 816.99 C 570.83 789.72 572.09 761.53 573.95 733.85 C 574.32 726.09 574.62 718.19 577.25 710.81 C 575.63 707.85 573.57 705.18 571.45 702.59 C 565.97 695.51 560.95 688.09 555.80 680.77 C 550.43 682.61 544.65 682.41 539.07 682.04 C 530.02 681.12 520.88 679.41 512.68 675.33 C 510.81 674.35 508.80 673.38 507.60 671.58 C 501.93 662.94 497.61 653.51 492.37 644.62 C 488.66 638.25 484.70 632.02 481.43 625.41 C 471.34 633.55 460.92 641.84 454.03 653.02 C 448.59 661.21 447.30 671.17 445.25 680.57 C 444.09 685.07 442.53 689.84 438.83 692.93 C 436.89 694.24 434.48 694.54 432.29 695.22 C 426.23 707.28 419.63 719.08 412.55 730.58 C 407.85 738.26 402.49 745.61 396.02 751.91 C 390.90 756.89 386.09 762.17 381.37 767.53 C 374.61 775.55 369.51 784.79 363.07 793.05 C 353.56 806.33 342.48 818.37 330.91 829.86 C 322.35 838.23 312.84 845.55 303.04 852.38 C 301.55 861.46 301.34 870.76 302.64 879.88 C 303.78 887.98 305.29 896.28 309.49 903.43 C 314.49 912.18 320.86 920.04 326.94 928.04 C 331.41 933.73 336.32 940.25 335.37 947.94 C 334.76 953.52 332.98 960.86 326.83 962.62 C 318.39 965.12 309.47 964.54 300.83 963.72 C 290.45 962.78 280.41 959.46 271.07 954.93 C 264.62 951.28 257.68 948.04 252.63 942.45 C 244.51 934.59 238.50 924.27 236.90 912.98 C 235.09 903.72 235.90 894.17 233.95 884.95 C 231.83 874.48 223.64 866.43 221.57 855.96 C 220.18 846.74 226.04 838.40 232.76 832.75 C 241.65 825.62 252.12 820.91 261.40 814.36 C 266.86 789.65 276.48 764.83 294.54 746.53 C 300.97 739.56 308.97 734.36 316.03 728.08 C 319.35 725.18 321.70 721.38 323.50 717.40 C 328.68 706.80 327.88 694.31 333.46 683.85 C 332.16 681.63 330.14 679.61 329.78 676.98 C 330.33 674.96 331.31 673.11 332.25 671.26 C 341.10 654.84 346.22 636.53 348.14 618.02 C 349.65 606.76 343.59 595.49 347.46 584.40 C 349.09 577.38 355.03 572.24 355.94 565.00 C 358.71 548.92 360.31 532.05 368.60 517.63 C 370.78 513.85 373.47 510.30 377.06 507.74 C 376.36 503.55 376.68 499.28 376.54 495.05 C 377.51 485.69 381.16 476.82 385.73 468.67 C 388.56 463.33 392.98 458.99 395.45 453.44 C 399.05 445.61 402.69 437.76 405.17 429.49 C 407.65 421.05 405.89 412.05 408.35 403.62 C 409.86 397.25 413.50 391.68 415.18 385.36 C 418.65 375.29 420.29 364.71 420.69 354.08 C 421.01 339.20 422.48 324.17 427.14 309.96 C 430.01 301.70 434.67 294.04 440.87 287.87 C 454.24 274.50 468.85 261.72 478.13 244.99 C 484.69 231.45 489.70 216.54 500.75 205.81 C 508.26 198.18 518.12 192.49 528.89 191.37 C 534.18 190.77 539.50 191.31 544.73 192.16 C 538.15 184.63 531.92 175.47 532.57 164.99 C 532.63 155.58 537.05 147.05 538.94 138.02 C 539.91 134.39 535.70 133.93 533.51 132.46 C 531.97 130.87 533.56 128.98 534.51 127.58 C 545.15 113.43 555.33 98.93 565.51 84.45 C 574.04 72.80 584.20 61.69 597.56 55.59 M 637.99 136.64 C 636.10 140.63 633.63 144.44 629.90 146.94 C 625.51 149.97 621.83 154.99 622.91 160.61 C 618.14 161.03 615.25 156.14 615.75 151.86 C 613.42 154.87 611.34 158.05 609.15 161.15 C 606.55 164.90 602.12 167.08 600.17 171.31 C 598.06 175.53 599.12 180.35 598.56 184.85 C 598.51 185.91 597.35 187.43 596.16 186.78 C 591.00 185.27 586.90 181.21 584.41 176.55 C 582.95 173.98 582.07 171.09 580.32 168.69 C 577.39 167.40 574.17 166.96 571.19 165.80 C 566.43 164.24 562.31 161.35 557.90 159.07 C 553.23 163.58 554.65 170.55 555.90 176.19 C 557.43 182.92 557.21 189.89 558.63 196.65 C 570.89 201.63 580.71 211.49 586.88 223.07 C 591.85 231.42 593.79 241.06 596.67 250.23 C 597.71 252.90 599.41 255.59 602.12 256.82 C 608.37 260.07 614.67 263.28 621.30 265.69 C 626.89 267.30 633.38 267.72 638.55 264.60 C 643.61 261.28 646.86 256.00 650.51 251.31 C 647.26 249.96 643.82 248.85 640.99 246.72 C 639.97 245.54 640.94 243.90 640.90 242.53 C 638.73 241.58 636.44 240.82 634.50 239.45 C 633.50 238.46 633.50 237.47 634.51 236.47 C 636.20 235.97 637.88 236.81 639.47 237.33 C 644.91 239.42 650.28 241.68 655.55 244.17 C 659.76 238.14 663.59 231.80 666.61 225.08 C 664.12 218.02 662.14 210.58 662.52 203.03 C 662.77 197.73 665.07 192.84 667.60 188.27 C 669.04 187.76 669.98 189.49 669.54 190.73 C 668.91 193.48 667.71 196.08 667.34 198.89 C 666.27 205.83 668.14 212.71 669.10 219.54 C 673.00 210.41 676.18 201.01 679.67 191.73 C 683.03 182.71 689.24 175.01 691.84 165.69 C 693.65 159.31 695.04 152.81 696.25 146.29 C 690.64 147.08 685.41 144.80 680.03 143.84 C 677.93 145.47 676.13 148.36 673.06 147.73 C 668.39 146.81 664.04 144.60 660.24 141.77 C 658.37 142.98 656.44 144.71 654.02 144.18 C 648.07 143.34 642.70 140.24 637.99 136.64 M 523.41 197.52 C 514.08 199.74 506.65 206.48 500.75 213.73 C 490.54 226.62 487.37 243.45 477.63 256.62 C 468.26 269.38 456.85 280.44 445.45 291.37 C 436.16 300.15 431.15 312.48 429.21 324.93 C 426.23 339.78 427.25 355.00 425.17 369.96 C 434.44 354.71 444.22 339.64 451.13 323.13 C 452.69 319.70 453.68 315.94 456.13 312.98 C 457.59 315.52 456.83 318.38 455.97 320.98 C 451.35 334.50 445.39 347.59 437.64 359.63 C 432.12 368.73 425.55 377.22 420.86 386.80 C 418.79 392.37 416.65 397.90 414.26 403.34 C 411.41 409.69 412.59 416.79 411.73 423.50 C 411.04 431.31 407.73 438.51 404.70 445.64 C 401.97 451.50 399.70 457.67 395.85 462.93 C 387.37 473.80 381.43 487.10 380.83 501.00 C 380.45 505.01 382.50 508.92 385.69 511.27 C 392.34 516.24 400.00 519.59 407.07 523.88 C 421.47 531.60 435.02 540.76 449.29 548.68 C 464.67 557.87 481.55 566.67 499.93 566.44 C 513.28 565.54 526.02 560.80 538.04 555.15 C 550.78 549.59 563.56 543.75 577.15 540.56 C 585.15 539.96 592.90 537.60 600.94 537.22 C 604.54 528.99 606.16 519.97 606.16 511.02 C 605.86 506.20 605.75 500.67 601.98 497.10 C 596.15 491.45 588.01 489.54 580.87 486.16 C 575.23 483.78 573.89 476.50 575.30 471.14 C 576.65 465.82 581.18 462.35 584.00 457.91 C 584.95 452.39 581.97 447.24 580.77 441.99 C 578.57 434.67 580.42 426.98 582.84 419.98 C 587.04 404.69 591.71 389.53 595.73 374.19 C 584.54 374.13 573.28 373.20 562.39 370.50 C 552.11 368.11 543.60 360.74 537.94 352.07 C 534.71 345.71 533.35 338.59 532.33 331.59 C 526.15 335.23 520.22 339.26 514.22 343.19 C 510.36 345.42 506.41 348.07 501.85 348.44 C 499.83 348.12 500.20 345.54 499.89 344.07 C 499.42 333.33 504.65 323.53 507.52 313.43 C 511.84 300.10 512.40 285.83 510.68 271.99 C 510.55 268.73 509.45 265.15 511.13 262.13 C 513.58 262.07 513.61 264.99 514.12 266.72 C 515.71 276.06 518.05 285.45 517.30 295.00 C 516.81 302.61 514.82 310.04 512.21 317.18 C 509.11 325.87 504.71 334.19 503.39 343.43 C 511.75 338.59 519.61 332.97 527.80 327.86 C 538.39 320.89 549.41 313.77 562.08 311.41 C 570.29 309.91 578.79 310.08 586.94 311.89 C 595.08 313.66 603.36 314.67 611.52 316.37 C 611.05 311.72 610.27 307.02 608.16 302.80 C 604.74 295.09 598.47 289.24 592.62 283.37 C 587.69 278.36 581.88 274.08 578.16 268.00 C 574.58 262.81 572.61 256.68 571.70 250.49 C 575.77 251.33 576.26 255.92 578.00 258.97 C 583.17 269.51 593.41 275.87 601.45 283.97 C 598.82 278.33 596.30 272.60 594.62 266.60 C 592.02 255.50 589.09 244.44 585.28 233.69 C 581.03 223.50 574.71 213.93 565.83 207.20 C 559.28 202.18 551.31 199.53 543.44 197.40 C 536.86 196.14 529.90 195.47 523.41 197.52 M 693.40 323.45 C 685.99 326.72 678.21 329.75 670.02 329.94 C 655.45 330.59 641.28 326.67 626.98 324.58 C 609.91 321.73 593.08 317.58 575.96 315.10 C 561.55 313.49 548.38 321.15 536.75 328.68 C 539.03 335.54 538.85 343.13 542.47 349.54 C 548.00 358.06 556.76 364.90 567.00 366.39 C 589.43 370.56 612.41 368.70 635.01 367.24 C 658.58 364.74 682.31 362.43 706.03 363.86 C 716.40 363.94 726.64 365.92 737.01 365.76 C 741.10 365.97 745.17 366.58 749.29 366.60 C 749.13 365.07 748.78 363.53 747.56 362.50 C 743.02 358.04 738.62 353.42 733.99 349.06 C 732.96 348.21 732.80 347.17 733.51 345.94 C 741.51 349.52 747.07 356.57 753.76 361.97 C 755.58 360.63 757.30 359.13 758.76 357.39 C 756.71 354.42 754.52 351.56 752.04 348.95 C 748.97 345.46 746.08 341.37 741.56 339.68 C 739.35 338.81 736.43 339.08 735.03 336.83 C 734.59 334.43 737.38 334.59 739.00 334.52 C 746.57 334.80 753.96 336.64 761.47 337.49 C 763.53 332.05 758.29 326.73 753.03 326.35 C 747.17 324.57 740.86 326.37 735.15 324.05 C 735.28 321.43 738.05 320.82 740.18 320.68 C 744.77 320.44 749.36 320.34 753.96 320.05 C 750.50 316.51 745.85 314.33 741.07 313.27 C 724.71 313.00 707.99 315.73 693.40 323.45 M 600.69 374.18 C 597.91 386.27 594.39 398.20 590.63 410.02 C 607.92 412.70 625.17 415.89 641.98 420.81 C 643.82 421.47 646.15 421.95 647.07 423.92 C 647.79 426.05 647.71 428.37 648.50 430.49 C 650.04 432.94 652.64 434.43 655.02 435.97 C 661.21 439.72 667.66 443.10 673.33 447.64 C 676.82 450.42 679.46 454.45 679.95 458.94 C 680.29 461.67 680.59 464.43 681.46 467.06 C 681.87 463.83 681.72 460.53 682.47 457.37 C 682.94 455.71 685.41 455.56 686.29 456.98 C 687.46 460.74 684.56 465.25 687.45 468.55 C 689.63 469.44 692.19 469.54 694.37 468.54 C 693.96 464.81 694.11 460.96 695.37 457.41 C 695.46 455.96 697.66 454.25 698.66 455.96 C 700.08 459.92 697.83 464.41 699.71 468.28 C 702.00 470.89 706.02 469.88 708.79 468.63 C 708.10 464.57 707.95 460.46 708.24 456.37 C 702.64 454.73 697.44 452.03 691.84 450.42 C 681.95 446.64 671.43 443.53 663.20 436.59 C 663.20 436.21 663.20 435.45 663.19 435.07 C 665.46 434.29 667.76 435.30 669.87 436.11 C 678.46 439.65 686.87 443.70 695.83 446.27 C 700.47 447.53 704.76 449.77 709.39 451.09 C 706.82 446.32 702.29 443.18 698.55 439.43 C 696.03 436.90 692.96 434.33 692.73 430.49 C 696.08 430.46 698.04 433.54 700.55 435.28 C 706.36 439.79 713.04 444.51 714.90 452.07 C 715.76 454.13 713.93 455.73 712.41 456.74 C 712.61 460.77 712.97 464.79 713.57 468.79 C 716.85 469.30 717.57 465.59 717.70 463.10 C 718.16 452.96 717.87 442.23 712.89 433.11 C 709.37 427.37 703.71 423.36 697.97 420.07 C 689.89 415.69 681.57 411.77 673.14 408.13 C 663.91 404.35 655.01 399.82 645.72 396.17 C 636.31 392.15 627.25 387.34 618.01 382.95 C 613.19 380.35 607.80 378.35 604.06 374.19 C 602.93 374.18 601.80 374.17 600.69 374.18 M 378.33 511.77 C 366.66 527.81 364.89 548.10 361.93 567.08 C 361.11 574.58 354.87 579.78 353.13 586.97 C 350.69 595.96 354.92 604.91 354.55 613.97 C 354.18 624.73 351.84 635.35 348.84 645.67 C 345.66 656.83 341.24 667.70 335.20 677.63 C 342.76 686.98 351.95 695.65 363.52 699.63 C 374.29 703.51 386.02 702.82 397.13 701.00 C 410.14 698.17 422.29 692.41 435.24 689.37 C 438.35 685.92 439.52 681.33 440.37 676.89 C 441.88 667.56 443.63 657.89 448.89 649.85 C 455.61 638.89 465.47 630.39 475.48 622.54 C 490.25 611.70 506.69 602.42 524.87 599.00 C 538.32 595.95 552.18 594.76 565.95 595.68 C 569.86 596.15 573.89 596.58 577.52 598.24 C 578.46 600.13 576.65 600.64 575.10 600.55 C 544.35 598.45 511.76 603.89 486.23 622.09 C 489.36 628.34 493.41 634.06 496.80 640.17 C 501.91 649.13 505.89 658.68 510.73 667.78 C 520.46 664.53 528.78 658.15 535.90 650.91 C 538.13 648.85 540.28 646.38 543.38 645.71 C 548.82 644.29 554.36 643.16 559.97 642.72 C 569.63 641.84 579.29 640.77 589.00 640.74 C 601.52 640.72 614.23 640.62 626.45 643.70 C 631.81 645.65 635.46 650.25 638.71 654.70 C 641.90 652.89 642.74 649.07 641.06 645.91 C 633.48 629.47 622.06 615.18 613.91 599.04 C 607.97 587.72 603.59 575.68 598.14 564.14 C 583.87 564.20 570.27 569.10 556.54 572.40 C 551.16 573.58 545.80 575.62 540.21 575.04 C 541.99 572.37 545.27 571.79 548.10 570.86 C 557.53 568.07 566.98 565.36 576.42 562.60 C 582.79 560.70 589.38 559.39 596.04 559.34 C 594.39 554.38 592.61 549.46 591.16 544.43 C 587.20 545.05 583.19 545.32 579.28 546.18 C 564.28 550.25 549.99 556.49 535.86 562.89 C 521.73 569.06 506.21 574.10 490.62 571.49 C 489.29 572.84 487.87 574.11 486.21 575.03 C 478.83 579.30 471.01 582.73 463.25 586.24 C 456.43 589.14 449.33 591.73 441.92 592.52 C 439.41 592.69 434.86 592.46 435.55 588.84 C 438.38 588.64 441.27 588.63 444.03 587.86 C 459.09 583.72 473.26 577.03 487.59 570.92 C 472.71 568.26 458.91 561.61 446.06 553.87 C 436.03 548.38 426.31 542.36 416.60 536.33 C 407.45 531.02 398.00 526.26 388.82 521.02 C 384.77 518.65 381.01 515.66 378.33 511.77 M 546.46 650.28 C 542.87 650.61 540.53 653.53 538.28 656.00 C 542.32 658.77 546.62 661.32 549.82 665.11 C 561.14 678.28 570.03 693.26 579.92 707.47 C 591.20 702.37 603.87 701.55 616.06 702.57 C 625.32 703.43 634.66 705.40 642.87 709.96 C 644.27 702.36 645.37 694.62 644.67 686.88 C 644.05 677.82 640.45 669.17 635.20 661.83 C 631.47 656.69 627.57 651.30 621.90 648.16 C 617.48 646.92 612.80 646.99 608.25 646.64 C 587.62 645.95 566.80 646.51 546.46 650.28 M 516.43 671.86 C 528.22 675.63 540.64 676.94 552.97 676.80 C 550.53 673.70 548.25 670.47 545.67 667.49 C 542.84 664.14 539.15 661.71 535.82 658.92 C 530.08 664.23 523.88 669.18 516.43 671.86 M 336.40 687.25 C 333.66 696.44 333.35 706.19 330.11 715.24 C 327.87 720.89 325.29 726.62 320.92 730.97 C 318.28 733.71 315.09 735.82 312.18 738.26 C 310.33 739.51 310.29 741.97 310.15 743.98 C 310.29 756.33 317.11 767.78 326.53 775.44 C 335.92 783.47 348.54 787.18 360.79 786.27 C 366.39 778.70 371.28 770.61 377.44 763.48 C 382.68 757.70 388.05 752.04 393.51 746.47 C 401.05 738.69 406.55 729.27 412.04 720.00 C 416.54 713.11 420.08 705.66 424.33 698.61 C 415.25 701.80 406.29 705.56 396.76 707.22 C 386.72 708.61 376.30 709.24 366.44 706.39 C 354.70 703.45 344.39 696.19 336.40 687.25 M 581.64 713.44 C 581.10 717.92 580.50 722.42 580.43 726.95 C 579.78 749.62 577.55 772.37 579.93 795.02 C 581.00 804.88 582.25 814.85 585.76 824.19 C 590.22 836.29 597.24 847.24 601.82 859.29 C 607.63 874.05 613.21 889.56 612.42 905.67 C 616.06 905.96 619.80 905.68 623.19 904.21 C 628.80 901.51 633.05 896.66 636.74 891.76 C 643.56 881.36 654.57 874.06 666.39 870.55 C 666.18 863.77 665.17 857.06 664.62 850.31 C 663.11 834.06 662.69 817.73 660.80 801.51 C 657.55 772.19 653.68 742.50 642.88 714.85 C 632.10 710.76 620.58 708.82 609.06 708.75 C 599.75 708.66 590.23 709.65 581.64 713.44 M 284.60 768.66 C 274.58 785.36 269.60 804.49 266.31 823.52 C 264.62 834.68 262.60 846.13 264.78 857.37 C 266.02 859.57 268.21 861.70 270.93 861.59 C 288.64 856.43 303.51 845.01 317.74 833.70 C 332.67 820.87 346.00 806.21 357.75 790.43 C 331.32 794.47 304.32 771.82 303.74 745.07 C 296.28 751.97 289.71 759.86 284.60 768.66 M 232.31 840.39 C 228.56 844.56 225.53 850.27 226.96 856.02 C 229.60 864.77 236.13 871.76 238.64 880.58 C 242.23 892.97 239.47 906.26 243.44 918.60 C 245.52 924.64 249.04 930.07 252.77 935.22 C 256.67 940.52 262.60 943.67 268.19 946.88 C 283.05 955.85 300.67 960.08 317.99 958.98 C 321.08 958.64 324.26 958.32 327.14 957.07 C 330.17 955.67 330.28 951.84 330.43 948.97 C 330.43 940.98 324.46 935.02 319.93 929.09 C 314.35 921.62 308.34 914.43 303.66 906.34 C 298.87 898.21 297.33 888.69 296.35 879.44 C 295.49 871.68 295.98 863.84 297.31 856.16 C 288.91 861.14 279.67 865.04 269.95 866.34 C 265.80 867.05 261.48 864.85 260.15 860.77 C 255.11 847.80 258.02 833.60 260.21 820.35 C 251.49 827.84 240.03 831.68 232.31 840.39 M 644.84 889.83 C 640.19 895.46 636.12 901.75 630.03 906.00 C 625.01 909.91 618.38 910.47 612.25 910.17 C 609.24 918.36 610.13 927.28 610.60 935.81 C 611.46 949.69 615.27 963.63 623.58 974.96 C 627.47 968.21 633.95 963.58 640.17 959.16 C 649.96 952.88 660.57 947.87 671.80 944.79 C 685.79 940.72 694.59 928.35 704.63 918.71 C 711.85 911.61 719.63 904.36 729.66 901.64 C 734.91 900.18 740.48 899.79 745.90 900.46 C 747.41 900.57 749.27 901.99 747.90 903.52 C 742.24 904.80 736.28 904.64 730.83 906.81 C 720.26 910.56 712.61 919.16 705.01 926.98 C 698.19 933.85 691.84 941.49 683.34 946.36 C 678.27 949.34 672.57 950.93 667.06 952.85 C 659.40 955.47 652.22 959.27 645.17 963.19 C 638.46 967.44 631.43 971.86 626.78 978.47 C 631.23 981.98 636.61 985.73 642.60 984.50 C 647.53 982.98 651.67 979.73 655.94 976.95 C 664.46 971.21 671.79 963.83 680.63 958.57 C 692.60 951.46 707.89 954.29 719.60 946.56 C 732.55 937.47 744.14 926.22 753.14 913.18 C 756.22 908.44 758.95 902.95 758.60 897.17 C 758.20 894.12 754.85 893.42 752.45 892.56 C 747.71 890.92 742.60 890.91 737.71 891.75 C 727.27 893.53 716.48 894.10 706.06 891.90 C 697.26 890.43 689.36 886.00 682.03 881.13 C 677.16 878.59 672.06 874.05 666.19 876.22 C 658.16 878.98 650.71 883.69 644.84 889.83 Z" />
        <path fill="#020202" opacity="1.00"
            d=" M 627.17 181.82 C 622.99 180.79 624.66 173.02 628.95 173.94 C 636.91 174.91 644.49 177.70 652.09 180.16 C 654.95 181.18 657.97 182.00 660.47 183.80 C 661.18 186.36 659.68 188.99 659.14 191.49 C 654.74 191.74 650.77 189.51 646.68 188.27 C 640.29 185.77 633.65 184.05 627.17 181.82 Z" />
        <path fill="#020202" opacity="1.00"
            d=" M 653.78 229.72 C 653.80 226.37 653.86 223.02 654.02 219.67 C 654.64 220.98 655.26 222.29 655.88 223.62 C 658.44 224.47 661.20 224.54 663.74 225.44 C 665.30 227.05 664.61 230.76 662.13 231.07 C 659.28 231.31 656.53 230.29 653.78 229.72 Z" />
        <path fill="#020202" opacity="1.00"
            d=" M 584.25 377.27 C 584.76 376.03 585.68 375.35 587.02 375.22 C 589.03 378.49 586.64 382.22 585.30 385.28 C 577.94 398.98 566.41 409.77 555.00 420.08 C 545.21 428.76 535.11 437.26 523.73 443.79 C 519.85 445.87 515.58 448.08 511.04 447.39 C 515.53 443.57 521.02 441.23 525.77 437.76 C 537.95 429.15 549.16 419.23 559.79 408.79 C 569.15 399.32 577.84 389.00 584.25 377.27 Z" />
        <path fill="#020202" opacity="1.00"
            d=" M 466.26 447.30 C 493.12 440.54 518.34 428.18 541.12 412.55 C 541.42 412.90 542.01 413.60 542.31 413.95 C 541.13 416.97 538.33 418.85 535.88 420.78 C 522.29 430.50 507.04 437.66 491.35 443.27 C 483.44 446.14 475.41 448.78 467.15 450.43 C 463.65 451.09 459.86 451.68 456.58 449.86 C 459.64 448.43 463.00 448.04 466.26 447.30 Z" />
        <path fill="#020202" opacity="1.00"
            d=" M 516.40 487.48 C 520.39 486.04 524.20 483.22 528.67 484.09 C 527.72 486.60 525.24 487.82 523.06 489.06 C 508.13 497.08 491.31 501.46 474.35 501.64 C 493.02 506.75 512.70 510.48 531.99 506.75 C 543.65 504.61 553.80 497.94 565.28 495.21 C 571.04 493.83 577.05 492.91 582.97 493.68 C 583.55 494.02 584.69 494.71 585.27 495.06 C 581.06 496.95 576.32 496.66 571.92 497.85 C 562.65 499.65 554.24 504.03 545.58 507.56 C 529.08 514.42 510.53 514.58 493.17 511.40 C 481.41 508.95 469.74 505.84 458.58 501.37 C 457.25 500.91 455.30 499.71 456.13 498.07 C 456.39 496.31 458.58 496.46 459.89 496.60 C 479.10 498.09 498.63 494.94 516.40 487.48 Z" />
        <path fill="#020202" opacity="1.00"
            d=" M 511.79 574.75 C 513.32 573.68 514.99 571.35 517.08 572.71 C 517.70 575.03 515.51 576.64 514.21 578.21 C 501.99 590.25 488.13 600.56 473.41 609.34 C 453.94 620.97 433.90 633.37 410.96 636.36 C 409.08 636.54 405.98 637.02 406.26 634.18 C 416.91 630.89 427.71 627.84 437.71 622.82 C 451.05 616.15 463.70 608.20 476.38 600.38 C 488.80 592.73 500.80 584.36 511.79 574.75 Z" />
    </g>
    <g id="#f0b58bff">
        <path fill="#f0b58b" opacity="1.00"
            d=" M 637.99 136.64 C 642.70 140.24 648.07 143.34 654.02 144.18 C 656.44 144.71 658.37 142.98 660.24 141.77 C 664.04 144.60 668.39 146.81 673.06 147.73 C 676.13 148.36 677.93 145.47 680.03 143.84 C 685.41 144.80 690.64 147.08 696.25 146.29 C 695.04 152.81 693.65 159.31 691.84 165.69 C 689.24 175.01 683.03 182.71 679.67 191.73 C 676.18 201.01 673.00 210.41 669.10 219.54 C 668.14 212.71 666.27 205.83 667.34 198.89 C 667.71 196.08 668.91 193.48 669.54 190.73 C 669.98 189.49 669.04 187.76 667.60 188.27 C 665.07 192.84 662.77 197.73 662.52 203.03 C 662.14 210.58 664.12 218.02 666.61 225.08 C 663.59 231.80 659.76 238.14 655.55 244.17 C 650.28 241.68 644.91 239.42 639.47 237.33 C 637.88 236.81 636.20 235.97 634.51 236.47 C 633.50 237.47 633.50 238.46 634.50 239.45 C 636.44 240.82 638.73 241.58 640.90 242.53 C 640.94 243.90 639.97 245.54 640.99 246.72 C 643.82 248.85 647.26 249.96 650.51 251.31 C 646.86 256.00 643.61 261.28 638.55 264.60 C 633.38 267.72 626.89 267.30 621.30 265.69 C 614.67 263.28 608.37 260.07 602.12 256.82 C 599.41 255.59 597.71 252.90 596.67 250.23 C 593.79 241.06 591.85 231.42 586.88 223.07 C 580.71 211.49 570.89 201.63 558.63 196.65 C 557.21 189.89 557.43 182.92 555.90 176.19 C 554.65 170.55 553.23 163.58 557.90 159.07 C 562.31 161.35 566.43 164.24 571.19 165.80 C 574.17 166.96 577.39 167.40 580.32 168.69 C 582.07 171.09 582.95 173.98 584.41 176.55 C 586.90 181.21 591.00 185.27 596.16 186.78 C 597.35 187.43 598.51 185.91 598.56 184.85 C 599.12 180.35 598.06 175.53 600.17 171.31 C 602.12 167.08 606.55 164.90 609.15 161.15 C 611.34 158.05 613.42 154.87 615.75 151.86 C 615.25 156.14 618.14 161.03 622.91 160.61 C 621.83 154.99 625.51 149.97 629.90 146.94 C 633.63 144.44 636.10 140.63 637.99 136.64 M 627.17 181.82 C 633.65 184.05 640.29 185.77 646.68 188.27 C 650.77 189.51 654.74 191.74 659.14 191.49 C 659.68 188.99 661.18 186.36 660.47 183.80 C 657.97 182.00 654.95 181.18 652.09 180.16 C 644.49 177.70 636.91 174.91 628.95 173.94 C 624.66 173.02 622.99 180.79 627.17 181.82 M 653.78 229.72 C 656.53 230.29 659.28 231.31 662.13 231.07 C 664.61 230.76 665.30 227.05 663.74 225.44 C 661.20 224.54 658.44 224.47 655.88 223.62 C 655.26 222.29 654.64 220.98 654.02 219.67 C 653.86 223.02 653.80 226.37 653.78 229.72 Z" />
        <path fill="#f0b58b" opacity="1.00"
            d=" M 693.40 323.45 C 707.99 315.73 724.71 313.00 741.07 313.27 C 745.85 314.33 750.50 316.51 753.96 320.05 C 749.36 320.34 744.77 320.44 740.18 320.68 C 738.05 320.82 735.28 321.43 735.15 324.05 C 740.86 326.37 747.17 324.57 753.03 326.35 C 758.29 326.73 763.53 332.05 761.47 337.49 C 753.96 336.64 746.57 334.80 739.00 334.52 C 737.38 334.59 734.59 334.43 735.03 336.83 C 736.43 339.08 739.35 338.81 741.56 339.68 C 746.08 341.37 748.97 345.46 752.04 348.95 C 754.52 351.56 756.71 354.42 758.76 357.39 C 757.30 359.13 755.58 360.63 753.76 361.97 C 747.07 356.57 741.51 349.52 733.51 345.94 C 732.80 347.17 732.96 348.21 733.99 349.06 C 738.62 353.42 743.02 358.04 747.56 362.50 C 748.78 363.53 749.13 365.07 749.29 366.60 C 745.17 366.58 741.10 365.97 737.01 365.76 C 726.64 365.92 716.40 363.94 706.03 363.86 C 682.31 362.43 658.58 364.74 635.01 367.24 C 612.41 368.70 589.43 370.56 567.00 366.39 C 556.76 364.90 548.00 358.06 542.47 349.54 C 538.85 343.13 539.03 335.54 536.75 328.68 C 548.38 321.15 561.55 313.49 575.96 315.10 C 593.08 317.58 609.91 321.73 626.98 324.58 C 641.28 326.67 655.45 330.59 670.02 329.94 C 678.21 329.75 685.99 326.72 693.40 323.45 Z" />
        <path fill="#f0b58b" opacity="1.00"
            d=" M 600.69 374.18 C 601.80 374.17 602.93 374.18 604.06 374.19 C 607.80 378.35 613.19 380.35 618.01 382.95 C 627.25 387.34 636.31 392.15 645.72 396.17 C 655.01 399.82 663.91 404.35 673.14 408.13 C 681.57 411.77 689.89 415.69 697.97 420.07 C 703.71 423.36 709.37 427.37 712.89 433.11 C 717.87 442.23 718.16 452.96 717.70 463.10 C 717.57 465.59 716.85 469.30 713.57 468.79 C 712.97 464.79 712.61 460.77 712.41 456.74 C 713.93 455.73 715.76 454.13 714.90 452.07 C 713.04 444.51 706.36 439.79 700.55 435.28 C 698.04 433.54 696.08 430.46 692.73 430.49 C 692.96 434.33 696.03 436.90 698.55 439.43 C 702.29 443.18 706.82 446.32 709.39 451.09 C 704.76 449.77 700.47 447.53 695.83 446.27 C 686.87 443.70 678.46 439.65 669.87 436.11 C 667.76 435.30 665.46 434.29 663.19 435.07 C 663.20 435.45 663.20 436.21 663.20 436.59 C 671.43 443.53 681.95 446.64 691.84 450.42 C 697.44 452.03 702.64 454.73 708.24 456.37 C 707.95 460.46 708.10 464.57 708.79 468.63 C 706.02 469.88 702.00 470.89 699.71 468.28 C 697.83 464.41 700.08 459.92 698.66 455.96 C 697.66 454.25 695.46 455.96 695.37 457.41 C 694.11 460.96 693.96 464.81 694.37 468.54 C 692.19 469.54 689.63 469.44 687.45 468.55 C 684.56 465.25 687.46 460.74 686.29 456.98 C 685.41 455.56 682.94 455.71 682.47 457.37 C 681.72 460.53 681.87 463.83 681.46 467.06 C 680.59 464.43 680.29 461.67 679.95 458.94 C 679.46 454.45 676.82 450.42 673.33 447.64 C 667.66 443.10 661.21 439.72 655.02 435.97 C 652.64 434.43 650.04 432.94 648.50 430.49 C 647.71 428.37 647.79 426.05 647.07 423.92 C 646.15 421.95 643.82 421.47 641.98 420.81 C 625.17 415.89 607.92 412.70 590.63 410.02 C 594.39 398.20 597.91 386.27 600.69 374.18 Z" />
        <path fill="#f0b58b" opacity="1.00"
            d=" M 546.46 650.28 C 566.80 646.51 587.62 645.95 608.25 646.64 C 612.80 646.99 617.48 646.92 621.90 648.16 C 627.57 651.30 631.47 656.69 635.20 661.83 C 640.45 669.17 644.05 677.82 644.67 686.88 C 645.37 694.62 644.27 702.36 642.87 709.96 C 634.66 705.40 625.32 703.43 616.06 702.57 C 603.87 701.55 591.20 702.37 579.92 707.47 C 570.03 693.26 561.14 678.28 549.82 665.11 C 546.62 661.32 542.32 658.77 538.28 656.00 C 540.53 653.53 542.87 650.61 546.46 650.28 Z" />
        <path fill="#f0b58b" opacity="1.00"
            d=" M 336.40 687.25 C 344.39 696.19 354.70 703.45 366.44 706.39 C 376.30 709.24 386.72 708.61 396.76 707.22 C 406.29 705.56 415.25 701.80 424.33 698.61 C 420.08 705.66 416.54 713.11 412.04 720.00 C 406.55 729.27 401.05 738.69 393.51 746.47 C 388.05 752.04 382.68 757.70 377.44 763.48 C 371.28 770.61 366.39 778.70 360.79 786.27 C 348.54 787.18 335.92 783.47 326.53 775.44 C 317.11 767.78 310.29 756.33 310.15 743.98 C 310.29 741.97 310.33 739.51 312.18 738.26 C 315.09 735.82 318.28 733.71 320.92 730.97 C 325.29 726.62 327.87 720.89 330.11 715.24 C 333.35 706.19 333.66 696.44 336.40 687.25 Z" />
    </g>
    <g id="#f11b27ff">
        <path fill="var(--shirt-color, grey)" opacity="1.00"
            d=" M 523.41 197.52 C 529.90 195.47 536.86 196.14 543.44 197.40 C 551.31 199.53 559.28 202.18 565.83 207.20 C 574.71 213.93 581.03 223.50 585.28 233.69 C 589.09 244.44 592.02 255.50 594.62 266.60 C 596.30 272.60 598.82 278.33 601.45 283.97 C 593.41 275.87 583.17 269.51 578.00 258.97 C 576.26 255.92 575.77 251.33 571.70 250.49 C 572.61 256.68 574.58 262.81 578.16 268.00 C 581.88 274.08 587.69 278.36 592.62 283.37 C 598.47 289.24 604.74 295.09 608.16 302.80 C 610.27 307.02 611.05 311.72 611.52 316.37 C 603.36 314.67 595.08 313.66 586.94 311.89 C 578.79 310.08 570.29 309.91 562.08 311.41 C 549.41 313.77 538.39 320.89 527.80 327.86 C 519.61 332.97 511.75 338.59 503.39 343.43 C 504.71 334.19 509.11 325.87 512.21 317.18 C 514.82 310.04 516.81 302.61 517.30 295.00 C 518.05 285.45 515.71 276.06 514.12 266.72 C 513.61 264.99 513.58 262.07 511.13 262.13 C 509.45 265.15 510.55 268.73 510.68 271.99 C 512.40 285.83 511.84 300.10 507.52 313.43 C 504.65 323.53 499.42 333.33 499.89 344.07 C 500.20 345.54 499.83 348.12 501.85 348.44 C 506.41 348.07 510.36 345.42 514.22 343.19 C 520.22 339.26 526.15 335.23 532.33 331.59 C 533.35 338.59 534.71 345.71 537.94 352.07 C 543.60 360.74 552.11 368.11 562.39 370.50 C 573.28 373.20 584.54 374.13 595.73 374.19 C 591.71 389.53 587.04 404.69 582.84 419.98 C 580.42 426.98 578.57 434.67 580.77 441.99 C 581.97 447.24 584.95 452.39 584.00 457.91 C 581.18 462.35 576.65 465.82 575.30 471.14 C 573.89 476.50 575.23 483.78 580.87 486.16 C 588.01 489.54 596.15 491.45 601.98 497.10 C 605.75 500.67 605.86 506.20 606.16 511.02 C 606.16 519.97 604.54 528.99 600.94 537.22 C 592.90 537.60 585.15 539.96 577.15 540.56 C 563.56 543.75 550.78 549.59 538.04 555.15 C 526.02 560.80 513.28 565.54 499.93 566.44 C 481.55 566.67 464.67 557.87 449.29 548.68 C 435.02 540.76 421.47 531.60 407.07 523.88 C 400.00 519.59 392.34 516.24 385.69 511.27 C 382.50 508.92 380.45 505.01 380.83 501.00 C 381.43 487.10 387.37 473.80 395.85 462.93 C 399.70 457.67 401.97 451.50 404.70 445.64 C 407.73 438.51 411.04 431.31 411.73 423.50 C 412.59 416.79 411.41 409.69 414.26 403.34 C 416.65 397.90 418.79 392.37 420.86 386.80 C 425.55 377.22 432.12 368.73 437.64 359.63 C 445.39 347.59 451.35 334.50 455.97 320.98 C 456.83 318.38 457.59 315.52 456.13 312.98 C 453.68 315.94 452.69 319.70 451.13 323.13 C 444.22 339.64 434.44 354.71 425.17 369.96 C 427.25 355.00 426.23 339.78 429.21 324.93 C 431.15 312.48 436.16 300.15 445.45 291.37 C 456.85 280.44 468.26 269.38 477.63 256.62 C 487.37 243.45 490.54 226.62 500.75 213.73 C 506.65 206.48 514.08 199.74 523.41 197.52 M 584.25 377.27 C 577.84 389.00 569.15 399.32 559.79 408.79 C 549.16 419.23 537.95 429.15 525.77 437.76 C 521.02 441.23 515.53 443.57 511.04 447.39 C 515.58 448.08 519.85 445.87 523.73 443.79 C 535.11 437.26 545.21 428.76 555.00 420.08 C 566.41 409.77 577.94 398.98 585.30 385.28 C 586.64 382.22 589.03 378.49 587.02 375.22 C 585.68 375.35 584.76 376.03 584.25 377.27 M 466.26 447.30 C 463.00 448.04 459.64 448.43 456.58 449.86 C 459.86 451.68 463.65 451.09 467.15 450.43 C 475.41 448.78 483.44 446.14 491.35 443.27 C 507.04 437.66 522.29 430.50 535.88 420.78 C 538.33 418.85 541.13 416.97 542.31 413.95 C 542.01 413.60 541.42 412.90 541.12 412.55 C 518.34 428.18 493.12 440.54 466.26 447.30 M 516.40 487.48 C 498.63 494.94 479.10 498.09 459.89 496.60 C 458.58 496.46 456.39 496.31 456.13 498.07 C 455.30 499.71 457.25 500.91 458.58 501.37 C 469.74 505.84 481.41 508.95 493.17 511.40 C 510.53 514.58 529.08 514.42 545.58 507.56 C 554.24 504.03 562.65 499.65 571.92 497.85 C 576.32 496.66 581.06 496.95 585.27 495.06 C 584.69 494.71 583.55 494.02 582.97 493.68 C 577.05 492.91 571.04 493.83 565.28 495.21 C 553.80 497.94 543.65 504.61 531.99 506.75 C 512.70 510.48 493.02 506.75 474.35 501.64 C 491.31 501.46 508.13 497.08 523.06 489.06 C 525.24 487.82 527.72 486.60 528.67 484.09 C 524.20 483.22 520.39 486.04 516.40 487.48 Z" />
    </g>
    <g id="#ffffffff">
        <path fill="var(--pants-color, grey)" opacity="1.00"
            d=" M 378.33 511.77 C 381.01 515.66 384.77 518.65 388.82 521.02 C 398.00 526.26 407.45 531.02 416.60 536.33 C 426.31 542.36 436.03 548.38 446.06 553.87 C 458.91 561.61 472.71 568.26 487.59 570.92 C 473.26 577.03 459.09 583.72 444.03 587.86 C 441.27 588.63 438.38 588.64 435.55 588.84 C 434.86 592.46 439.41 592.69 441.92 592.52 C 449.33 591.73 456.43 589.14 463.25 586.24 C 471.01 582.73 478.83 579.30 486.21 575.03 C 487.87 574.11 489.29 572.84 490.62 571.49 C 506.21 574.10 521.73 569.06 535.86 562.89 C 549.99 556.49 564.28 550.25 579.28 546.18 C 583.19 545.32 587.20 545.05 591.16 544.43 C 592.61 549.46 594.39 554.38 596.04 559.34 C 589.38 559.39 582.79 560.70 576.42 562.60 C 566.98 565.36 557.53 568.07 548.10 570.86 C 545.27 571.79 541.99 572.37 540.21 575.04 C 545.80 575.62 551.16 573.58 556.54 572.40 C 570.27 569.10 583.87 564.20 598.14 564.14 C 603.59 575.68 607.97 587.72 613.91 599.04 C 622.06 615.18 633.48 629.47 641.06 645.91 C 642.74 649.07 641.90 652.89 638.71 654.70 C 635.46 650.25 631.81 645.65 626.45 643.70 C 614.23 640.62 601.52 640.72 589.00 640.74 C 579.29 640.77 569.63 641.84 559.97 642.72 C 554.36 643.16 548.82 644.29 543.38 645.71 C 540.28 646.38 538.13 648.85 535.90 650.91 C 528.78 658.15 520.46 664.53 510.73 667.78 C 505.89 658.68 501.91 649.13 496.80 640.17 C 493.41 634.06 489.36 628.34 486.23 622.09 C 511.76 603.89 544.35 598.45 575.10 600.55 C 576.65 600.64 578.46 600.13 577.52 598.24 C 573.89 596.58 569.86 596.15 565.95 595.68 C 552.18 594.76 538.32 595.95 524.87 599.00 C 506.69 602.42 490.25 611.70 475.48 622.54 C 465.47 630.39 455.61 638.89 448.89 649.85 C 443.63 657.89 441.88 667.56 440.37 676.89 C 439.52 681.33 438.35 685.92 435.24 689.37 C 422.29 692.41 410.14 698.17 397.13 701.00 C 386.02 702.82 374.29 703.51 363.52 699.63 C 351.95 695.65 342.76 686.98 335.20 677.63 C 341.24 667.70 345.66 656.83 348.84 645.67 C 351.84 635.35 354.18 624.73 354.55 613.97 C 354.92 604.91 350.69 595.96 353.13 586.97 C 354.87 579.78 361.11 574.58 361.93 567.08 C 364.89 548.10 366.66 527.81 378.33 511.77 M 511.79 574.75 C 500.80 584.36 488.80 592.73 476.38 600.38 C 463.70 608.20 451.05 616.15 437.71 622.82 C 427.71 627.84 416.91 630.89 406.26 634.18 C 405.98 637.02 409.08 636.54 410.96 636.36 C 433.90 633.37 453.94 620.97 473.41 609.34 C 488.13 600.56 501.99 590.25 514.21 578.21 C 515.51 576.64 517.70 575.03 517.08 572.71 C 514.99 571.35 513.32 573.68 511.79 574.75 Z" />
        <path fill="var(--pants-color, grey)" opacity="1.00"
            d=" M 516.43 671.86 C 523.88 669.18 530.08 664.23 535.82 658.92 C 539.15 661.71 542.84 664.14 545.67 667.49 C 548.25 670.47 550.53 673.70 552.97 676.80 C 540.64 676.94 528.22 675.63 516.43 671.86 Z" />
        <path fill="var(--socks-color, grey)" opacity="1.00"
            d=" M 581.64 713.44 C 590.23 709.65 599.75 708.66 609.06 708.75 C 620.58 708.82 632.10 710.76 642.88 714.85 C 653.68 742.50 657.55 772.19 660.80 801.51 C 662.69 817.73 663.11 834.06 664.62 850.31 C 665.17 857.06 666.18 863.77 666.39 870.55 C 654.57 874.06 643.56 881.36 636.74 891.76 C 633.05 896.66 628.80 901.51 623.19 904.21 C 619.80 905.68 616.06 905.96 612.42 905.67 C 613.21 889.56 607.63 874.05 601.82 859.29 C 597.24 847.24 590.22 836.29 585.76 824.19 C 582.25 814.85 581.00 804.88 579.93 795.02 C 577.55 772.37 579.78 749.62 580.43 726.95 C 580.50 722.42 581.10 717.92 581.64 713.44 Z" />
        <path fill="var(--socks-color, grey)" opacity="1.00"
            d=" M 284.60 768.66 C 289.71 759.86 296.28 751.97 303.74 745.07 C 304.32 771.82 331.32 794.47 357.75 790.43 C 346.00 806.21 332.67 820.87 317.74 833.70 C 303.51 845.01 288.64 856.43 270.93 861.59 C 268.21 861.70 266.02 859.57 264.78 857.37 C 262.60 846.13 264.62 834.68 266.31 823.52 C 269.60 804.49 274.58 785.36 284.60 768.66 Z" />
    </g>
    <g id="#4d4d4dff">
        <path fill="#4d4d4d" opacity="1.00"
            d=" M 232.31 840.39 C 240.03 831.68 251.49 827.84 260.21 820.35 C 258.02 833.60 255.11 847.80 260.15 860.77 C 261.48 864.85 265.80 867.05 269.95 866.34 C 279.67 865.04 288.91 861.14 297.31 856.16 C 295.98 863.84 295.49 871.68 296.35 879.44 C 297.33 888.69 298.87 898.21 303.66 906.34 C 308.34 914.43 314.35 921.62 319.93 929.09 C 324.46 935.02 330.43 940.98 330.43 948.97 C 330.28 951.84 330.17 955.67 327.14 957.07 C 324.26 958.32 321.08 958.64 317.99 958.98 C 300.67 960.08 283.05 955.85 268.19 946.88 C 262.60 943.67 256.67 940.52 252.77 935.22 C 249.04 930.07 245.52 924.64 243.44 918.60 C 239.47 906.26 242.23 892.97 238.64 880.58 C 236.13 871.76 229.60 864.77 226.96 856.02 C 225.53 850.27 228.56 844.56 232.31 840.39 Z" />
        <path fill="#4d4d4d" opacity="1.00"
            d=" M 644.84 889.83 C 650.71 883.69 658.16 878.98 666.19 876.22 C 672.06 874.05 677.16 878.59 682.03 881.13 C 689.36 886.00 697.26 890.43 706.06 891.90 C 716.48 894.10 727.27 893.53 737.71 891.75 C 742.60 890.91 747.71 890.92 752.45 892.56 C 754.85 893.42 758.20 894.12 758.60 897.17 C 758.95 902.95 756.22 908.44 753.14 913.18 C 744.14 926.22 732.55 937.47 719.60 946.56 C 707.89 954.29 692.60 951.46 680.63 958.57 C 671.79 963.83 664.46 971.21 655.94 976.95 C 651.67 979.73 647.53 982.98 642.60 984.50 C 636.61 985.73 631.23 981.98 626.78 978.47 C 631.43 971.86 638.46 967.44 645.17 963.19 C 652.22 959.27 659.40 955.47 667.06 952.85 C 672.57 950.93 678.27 949.34 683.34 946.36 C 691.84 941.49 698.19 933.85 705.01 926.98 C 712.61 919.16 720.26 910.56 730.83 906.81 C 736.28 904.64 742.24 904.80 747.90 903.52 C 749.27 901.99 747.41 900.57 745.90 900.46 C 740.48 899.79 734.91 900.18 729.66 901.64 C 719.63 904.36 711.85 911.61 704.63 918.71 C 694.59 928.35 685.79 940.72 671.80 944.79 C 660.57 947.87 649.96 952.88 640.17 959.16 C 633.95 963.58 627.47 968.21 623.58 974.96 C 615.27 963.63 611.46 949.69 610.60 935.81 C 610.13 927.28 609.24 918.36 612.25 910.17 C 618.38 910.47 625.01 909.91 630.03 906.00 C 636.12 901.75 640.19 895.46 644.84 889.83 Z" />
    </g>
</svg>