<?xml version="1.0" encoding="UTF-8" ?>
<!DOCTYPE svg PUBLIC "-//W3C//DTD SVG 1.1//EN" "http://www.w3.org/Graphics/SVG/1.1/DTD/svg11.dtd">
<svg width="1000pt" height="1000pt" viewBox="0 0 1000 1000" version="1.1" xmlns="http://www.w3.org/2000/svg">
    <g id="#020202ff">
        <path fill="#020202" opacity="1.00"
            d=" M 398.03 14.02 C 410.75 5.98 426.23 3.68 441.04 4.39 C 449.93 5.18 459.08 6.50 466.98 10.95 C 478.99 17.70 488.01 28.95 493.54 41.44 C 499.06 54.12 501.53 68.14 500.40 81.94 C 499.66 89.57 499.07 97.23 497.58 104.75 C 495.46 113.01 497.46 121.56 497.08 129.96 C 496.62 140.22 496.08 150.48 495.03 160.70 C 509.83 163.48 524.46 159.01 538.95 156.52 C 547.25 155.01 555.56 153.17 564.04 153.20 C 572.11 153.08 580.16 155.07 587.35 158.71 C 595.35 162.70 602.24 168.50 609.99 172.92 C 625.92 182.80 645.09 185.82 660.79 196.14 C 666.50 199.61 671.40 204.20 676.14 208.85 C 677.95 210.48 678.86 212.77 679.80 214.96 C 677.65 216.43 675.47 217.85 673.32 219.31 C 684.14 223.97 695.57 227.29 705.85 233.15 C 709.77 235.53 714.13 239.00 714.13 244.03 C 713.65 249.26 709.05 252.55 705.06 255.25 C 714.71 254.63 724.37 254.26 734.04 254.49 C 745.73 254.71 757.47 254.14 769.12 255.41 C 772.68 256.01 777.35 257.03 778.52 261.00 C 779.27 263.94 776.49 265.78 774.71 267.58 C 771.07 275.94 760.68 276.79 752.78 275.96 C 751.18 278.63 748.83 280.92 745.63 281.37 C 736.42 282.90 727.02 282.61 717.78 283.92 C 714.09 284.49 710.19 285.76 707.84 288.84 C 705.20 292.24 703.24 296.15 700.17 299.22 C 695.22 304.47 688.32 307.19 681.60 309.39 C 677.21 310.67 672.56 311.71 667.99 311.01 C 664.82 310.55 661.80 307.32 663.07 304.01 C 665.17 299.34 670.88 297.59 673.01 292.97 C 673.34 288.54 671.67 283.72 668.37 280.67 C 660.92 275.45 652.07 272.81 644.08 268.58 C 641.46 274.81 640.72 281.73 637.38 287.66 C 625.16 281.11 616.25 270.00 604.41 262.88 C 605.68 281.53 602.09 300.46 606.53 318.87 C 608.68 331.95 615.40 343.61 618.46 356.43 C 621.16 367.42 622.09 378.88 620.61 390.13 C 617.55 413.00 623.69 435.74 630.45 457.39 C 631.93 461.89 631.82 466.69 630.98 471.30 C 634.35 473.38 637.75 475.77 639.60 479.41 C 645.53 490.31 645.34 503.80 653.05 513.86 C 657.65 519.57 663.45 524.18 668.25 529.73 C 673.05 534.75 676.33 540.97 681.07 546.03 C 691.32 556.52 701.38 567.39 709.14 579.90 C 710.08 581.40 711.65 584.25 709.00 584.96 C 705.35 585.83 701.53 585.70 697.83 586.19 C 703.52 593.63 708.64 601.87 710.62 611.15 C 714.15 626.99 718.67 642.69 725.57 657.42 C 729.89 666.56 733.11 676.87 730.95 687.04 C 727.98 700.30 720.59 711.97 713.09 723.09 C 710.07 727.50 707.97 732.54 704.33 736.51 C 698.44 743.03 694.34 750.89 690.80 758.86 C 684.62 771.52 680.07 784.92 673.30 797.30 C 666.34 811.21 657.56 824.08 648.77 836.88 C 639.88 849.23 632.30 862.59 622.00 873.85 C 625.03 887.39 627.40 901.09 628.55 914.92 C 630.10 929.61 630.10 944.57 633.96 958.93 C 635.33 965.64 638.33 972.05 638.55 978.96 C 638.12 986.02 631.74 991.21 625.14 992.45 C 614.61 994.44 603.37 993.76 593.41 989.67 C 584.00 985.89 577.52 977.05 574.26 967.72 C 569.91 954.99 573.83 941.07 569.36 928.38 C 565.57 917.78 559.70 908.08 555.68 897.59 C 550.66 884.17 555.16 868.78 564.17 858.16 C 574.51 847.90 582.63 835.74 590.73 823.71 C 596.18 815.52 600.18 806.50 604.89 797.89 C 612.76 782.06 618.95 765.25 621.93 747.78 C 623.91 738.29 626.05 728.56 631.27 720.23 C 634.98 714.49 639.20 708.78 645.24 705.30 C 644.54 686.32 642.44 666.65 633.34 649.63 C 629.23 641.51 623.93 634.10 618.78 626.63 C 614.24 631.11 609.02 635.59 607.23 641.97 C 606.66 643.37 606.58 645.23 605.05 646.00 C 602.49 644.60 600.73 642.22 598.92 640.03 C 589.87 629.47 580.40 619.28 570.84 609.19 C 564.34 603.00 558.35 596.32 552.46 589.57 C 553.87 597.65 555.44 606.40 551.98 614.19 C 549.88 615.05 548.46 613.08 547.16 611.80 C 544.79 609.07 542.67 606.13 540.36 603.36 C 539.04 611.50 538.91 619.87 540.71 627.95 C 544.28 645.40 546.87 663.26 545.45 681.11 C 544.27 693.37 536.60 703.53 533.09 715.08 C 530.16 724.89 532.36 735.17 533.38 745.10 C 535.87 775.54 537.81 806.27 533.79 836.68 C 542.00 841.02 549.15 847.99 551.99 857.01 C 553.91 863.94 553.59 871.45 551.23 878.24 C 548.91 884.94 545.32 891.11 542.89 897.77 C 537.53 910.89 538.37 925.39 535.02 939.00 C 533.21 946.04 531.41 953.30 527.41 959.47 C 523.03 965.53 516.75 970.90 509.10 971.89 C 500.71 973.40 491.37 972.04 484.92 966.11 C 472.33 955.64 468.88 938.48 467.82 922.95 C 466.10 899.21 470.07 874.19 483.34 854.04 C 482.37 846.83 480.08 839.91 478.69 832.80 C 476.35 821.26 474.01 809.73 471.84 798.17 C 469.90 787.64 466.61 777.43 464.69 766.91 C 461.30 749.20 459.65 730.86 463.03 713.01 C 464.62 703.68 467.54 694.52 467.60 684.98 C 467.69 676.99 467.72 668.99 467.14 661.02 C 465.11 644.13 461.58 627.21 454.05 611.83 C 452.91 612.33 451.81 612.88 450.73 613.49 C 446.22 608.53 443.48 602.32 440.72 596.29 C 435.57 582.82 432.32 568.47 432.49 553.99 C 432.58 549.96 433.98 546.01 433.59 541.96 C 430.76 531.37 427.86 520.79 425.36 510.11 C 422.66 499.21 423.28 487.37 428.17 477.16 C 425.10 475.68 421.59 474.34 419.83 471.21 C 417.01 466.30 417.12 460.39 417.44 454.92 C 418.02 447.48 420.95 440.44 421.41 432.98 C 421.99 423.38 419.83 413.76 416.02 404.97 C 411.85 395.10 407.89 385.09 405.23 374.69 C 403.73 368.54 401.86 362.50 399.97 356.47 C 398.11 357.01 396.26 357.55 394.40 358.07 C 394.32 367.28 388.07 374.73 381.89 380.89 C 365.64 396.00 345.90 406.37 327.35 418.25 C 314.12 427.14 300.43 435.73 289.49 447.47 C 285.01 452.15 282.01 457.99 277.78 462.88 C 271.39 470.07 263.36 475.61 254.78 479.87 C 257.52 485.99 261.52 492.69 259.48 499.61 C 258.35 502.63 254.88 502.19 252.33 501.77 C 251.57 505.26 249.69 508.92 245.97 509.91 C 242.46 510.99 239.70 508.09 237.67 505.68 C 235.86 506.43 234.09 508.02 232.00 507.36 C 228.33 506.47 226.66 502.77 224.95 499.81 C 222.98 500.34 220.65 501.79 218.80 500.19 C 214.31 496.37 212.19 490.56 210.80 485.00 C 209.53 479.38 206.79 473.83 207.92 467.94 C 209.31 458.49 212.44 448.39 220.45 442.46 C 228.98 435.58 240.81 436.56 250.06 431.18 C 260.21 425.69 270.45 419.88 278.60 411.58 C 290.07 400.31 299.50 387.22 310.19 375.25 C 316.76 366.79 325.67 360.70 333.38 353.39 C 337.60 349.50 340.29 344.37 342.99 339.40 C 338.93 334.20 337.91 327.43 337.87 321.01 C 338.31 308.66 340.55 296.41 340.58 284.04 C 340.13 272.00 338.17 260.06 337.62 248.02 C 337.30 234.55 339.62 220.53 347.18 209.12 C 350.64 203.80 355.84 199.45 362.08 197.87 C 369.48 195.93 377.16 194.61 384.00 191.03 C 389.13 188.36 393.25 184.11 398.44 181.53 C 401.21 180.14 404.33 179.90 407.35 179.44 C 408.18 177.42 409.03 175.40 409.89 173.40 C 402.86 162.92 397.17 151.02 396.82 138.18 C 394.68 137.07 392.33 136.14 390.71 134.29 C 386.67 129.81 386.02 123.36 382.19 118.75 C 380.11 116.20 377.66 113.75 376.73 110.49 C 375.79 107.08 376.41 103.50 375.94 100.03 C 375.29 95.76 372.03 92.33 371.73 87.97 C 371.77 84.24 373.42 80.76 373.78 77.07 C 374.48 68.58 371.11 60.41 371.14 51.97 C 371.08 48.42 374.33 46.42 376.88 44.62 C 374.83 43.18 371.62 41.47 372.43 38.44 C 376.58 31.95 383.87 28.50 388.66 22.58 C 391.39 19.33 394.39 16.26 398.03 14.02 M 433.97 104.02 C 427.17 106.41 420.12 108.15 412.92 108.60 C 412.55 108.22 411.81 107.44 411.44 107.06 C 408.44 110.22 405.03 113.02 402.33 116.45 C 398.62 122.37 401.20 129.38 401.68 135.78 C 412.08 134.48 422.50 133.35 432.93 132.32 C 435.71 132.20 438.61 131.68 441.34 132.48 C 446.99 138.31 444.38 147.02 443.66 154.16 C 442.96 157.06 443.56 161.23 440.16 162.52 C 439.63 155.24 441.01 148.02 441.00 140.74 C 428.37 143.07 415.69 145.12 403.22 148.20 C 406.96 160.07 414.06 170.61 422.17 179.95 C 428.84 187.81 435.31 196.27 444.30 201.65 C 446.88 203.43 450.12 202.68 453.05 202.83 C 458.33 203.01 463.76 201.32 467.74 197.79 C 474.99 190.24 480.54 181.25 485.09 171.87 C 487.11 167.46 489.14 162.94 489.74 158.08 C 490.77 149.57 490.86 140.99 491.69 132.47 C 482.84 134.25 473.99 136.03 465.08 137.47 C 463.67 137.57 462.10 138.10 460.82 137.26 C 459.59 134.59 459.15 131.65 458.57 128.80 C 469.26 124.91 480.62 123.14 491.79 121.19 C 491.84 117.52 492.02 113.85 492.21 110.18 C 487.33 104.06 483.22 97.06 476.28 92.99 C 476.90 96.90 478.00 100.95 477.02 104.88 C 476.64 106.84 474.28 107.02 472.81 106.26 C 464.72 101.97 457.73 95.14 454.79 86.29 C 449.93 94.13 442.84 101.02 433.97 104.02 M 534.15 163.55 C 520.92 166.20 506.94 169.63 493.68 165.23 C 492.14 168.83 490.49 172.37 488.86 175.92 C 495.51 187.44 493.45 202.89 484.88 212.87 C 478.91 220.01 470.03 224.10 461.04 225.85 C 444.68 229.04 427.19 224.10 414.45 213.48 C 408.01 208.07 402.09 201.23 399.93 192.95 C 400.88 189.78 402.93 187.10 404.49 184.22 C 396.93 185.71 392.00 192.07 385.37 195.39 C 378.07 199.27 369.82 200.54 362.02 202.99 C 353.07 206.35 348.05 215.49 345.25 224.12 C 339.81 241.62 343.50 259.99 345.07 277.77 C 347.36 293.53 343.79 309.26 343.22 324.99 C 342.72 332.66 349.27 338.16 354.92 342.20 C 367.68 350.39 383.46 355.01 398.60 352.20 C 397.11 347.39 396.64 342.35 395.42 337.48 C 393.27 331.84 390.79 325.93 386.06 321.95 C 381.50 318.19 376.65 314.70 372.86 310.11 C 368.90 305.15 364.81 299.62 364.05 293.14 C 364.51 293.18 365.42 293.24 365.88 293.28 C 369.81 296.36 371.68 301.33 375.14 304.91 C 380.63 311.96 388.99 315.96 394.59 322.90 C 393.19 313.29 389.51 304.21 388.06 294.64 C 390.81 296.84 392.78 299.78 393.85 303.12 C 396.91 311.86 400.21 320.68 400.95 329.98 C 401.50 335.29 401.13 340.70 402.42 345.92 C 404.49 354.76 408.19 363.11 410.46 371.89 C 413.32 382.33 417.03 392.52 421.49 402.38 C 425.28 410.75 427.58 419.79 427.84 428.99 C 428.59 441.89 421.47 454.11 423.95 467.06 C 424.56 470.64 428.41 471.91 431.13 473.56 C 435.09 470.68 439.60 468.58 444.45 467.79 C 454.47 465.91 464.50 464.06 474.38 461.53 C 497.75 455.63 522.10 453.28 546.13 455.49 C 564.41 457.18 582.66 459.61 600.55 463.83 C 608.86 465.70 617.30 466.94 625.51 469.30 C 626.76 461.95 623.57 455.05 621.60 448.16 C 618.59 438.00 616.91 427.52 615.26 417.07 C 614.37 411.43 613.69 405.71 613.90 399.99 C 614.13 392.65 615.55 385.38 615.49 378.02 C 615.29 365.24 612.19 352.63 607.23 340.89 C 603.04 331.07 600.54 320.61 599.03 310.06 C 597.22 293.47 599.73 276.83 600.23 260.23 C 595.72 257.74 591.00 255.70 586.26 253.69 C 584.82 252.87 582.23 252.27 583.29 250.09 C 587.01 248.76 590.81 250.58 594.31 251.76 C 600.94 254.47 607.84 256.94 613.51 261.46 C 621.29 267.68 628.41 274.66 635.73 281.41 C 636.85 276.71 637.87 271.97 639.44 267.39 C 642.57 258.36 647.92 250.30 653.93 242.93 C 658.28 237.69 660.43 231.16 662.95 224.94 C 664.95 219.94 668.59 215.81 672.82 212.54 C 668.41 208.79 664.30 204.65 659.42 201.50 C 648.66 194.26 636.02 190.77 624.11 185.96 C 614.18 182.17 605.06 176.62 596.22 170.80 C 588.83 166.00 581.02 161.36 572.22 159.79 C 559.40 157.49 546.68 161.33 534.15 163.55 M 412.67 177.03 C 411.37 183.34 407.69 188.65 404.65 194.19 C 415.02 213.16 437.70 224.22 459.02 221.09 C 471.12 219.36 482.69 211.06 486.40 199.13 C 488.43 193.03 487.74 186.50 486.48 180.33 C 482.73 186.75 478.47 192.86 473.68 198.54 C 470.70 201.99 466.97 204.93 462.60 206.36 C 456.16 208.34 448.82 209.94 442.60 206.43 C 429.99 199.74 421.80 187.57 412.67 177.03 M 670.29 222.63 C 666.34 229.50 664.56 237.43 659.85 243.89 C 654.94 250.67 649.41 257.09 645.82 264.73 C 653.50 268.60 661.68 271.46 669.03 275.98 C 667.00 269.53 665.61 262.78 665.98 255.99 C 666.01 252.40 667.35 249.01 669.62 246.28 C 668.80 256.39 669.98 266.64 673.59 276.15 C 675.12 281.86 678.11 287.53 677.48 293.58 C 675.86 299.33 669.33 301.37 666.17 306.10 C 671.00 307.93 676.17 306.40 680.84 304.82 C 686.20 302.92 691.71 300.82 695.91 296.85 C 699.41 293.62 701.59 289.32 704.64 285.72 C 708.45 281.38 714.29 279.53 719.87 278.94 C 726.91 278.25 733.98 277.89 741.05 277.48 C 743.54 277.39 745.93 276.60 748.26 275.74 C 741.80 271.05 733.53 270.51 725.86 269.67 C 721.26 269.07 716.32 269.41 712.15 267.06 C 717.22 264.74 722.83 265.95 728.19 265.66 C 728.34 265.32 728.64 264.63 728.79 264.29 C 726.68 263.88 724.57 263.37 722.90 261.95 C 730.06 259.93 737.58 261.02 744.92 260.79 C 754.36 261.14 764.39 259.79 773.24 263.89 C 773.59 263.31 774.28 262.13 774.63 261.54 C 772.21 260.56 769.73 259.60 767.10 259.46 C 759.42 258.86 751.71 259.12 744.02 259.11 C 735.02 259.26 726.03 258.57 717.03 259.01 C 711.72 259.04 706.31 259.74 701.07 258.60 C 699.23 258.27 697.47 256.28 698.47 254.40 C 700.68 250.01 706.47 248.76 708.30 244.07 C 707.93 240.95 704.76 239.29 702.39 237.73 C 692.08 231.89 680.48 228.69 670.29 222.63 M 731.22 265.70 C 738.01 266.67 745.36 267.45 751.05 271.82 C 757.64 271.66 765.60 272.80 770.38 267.15 C 759.86 264.06 748.76 265.49 737.98 264.48 C 735.82 264.55 732.45 263.57 731.22 265.70 M 339.08 355.08 C 332.72 361.76 324.76 366.68 318.49 373.46 C 304.27 389.51 291.90 407.37 275.45 421.32 C 267.64 427.40 259.56 433.26 250.73 437.77 C 241.34 442.76 229.09 441.18 221.16 449.10 C 214.66 454.47 213.62 463.25 212.69 471.07 C 212.80 473.66 213.83 476.09 214.52 478.57 C 216.46 484.91 217.79 491.72 222.12 497.00 C 223.92 492.98 221.08 488.80 222.35 484.73 C 220.80 483.57 218.98 482.75 217.69 481.29 C 216.24 479.11 216.87 476.28 217.94 474.08 C 221.04 467.56 229.45 466.13 232.57 459.57 C 235.19 455.38 236.46 448.70 242.19 447.86 C 239.04 453.75 238.94 461.11 234.07 466.04 C 230.15 470.69 222.72 472.20 221.37 478.85 C 224.00 478.71 226.74 478.59 229.15 477.40 C 238.14 473.35 245.57 466.53 254.72 462.78 C 260.93 460.31 265.69 455.50 271.48 452.32 C 271.65 455.35 269.92 457.89 267.72 459.76 C 261.82 465.65 253.65 468.16 246.94 472.89 C 242.43 476.01 237.75 478.89 232.83 481.33 C 235.39 486.21 237.61 491.26 239.58 496.40 C 240.92 499.77 242.05 503.43 244.91 505.89 C 247.20 503.93 248.25 500.96 246.97 498.10 C 244.53 493.75 241.58 489.64 239.63 485.03 C 239.08 482.92 242.14 482.45 243.25 483.69 C 245.95 486.17 247.05 489.83 249.34 492.63 C 250.91 494.57 252.99 496.00 255.00 497.46 C 254.70 492.16 252.14 487.49 250.05 482.75 C 248.48 479.56 250.29 475.82 253.43 474.50 C 263.16 469.49 272.32 462.62 278.15 453.20 C 287.63 437.57 303.35 427.43 317.98 417.14 C 335.10 405.02 354.12 395.77 370.54 382.65 C 378.88 376.41 387.44 369.01 390.40 358.62 C 374.58 358.70 358.82 353.06 346.61 343.01 C 344.68 347.36 342.40 351.62 339.08 355.08 M 509.51 461.89 C 487.60 463.98 466.58 470.91 444.91 474.47 C 439.36 475.18 433.78 478.00 431.25 483.22 C 427.01 495.29 430.36 508.11 433.33 520.05 C 436.13 514.97 439.14 508.50 445.53 507.46 C 442.17 513.43 436.98 518.76 436.20 525.88 C 435.06 530.55 437.03 535.13 438.47 539.50 C 439.75 542.99 438.92 546.74 438.13 550.24 C 437.04 554.07 437.51 558.09 437.79 562.00 C 439.01 577.60 444.19 592.66 451.59 606.37 C 464.71 590.21 484.76 578.63 505.98 579.46 C 522.71 580.01 537.67 590.04 547.83 602.83 C 547.10 596.49 546.39 590.07 544.14 584.06 C 541.52 576.93 537.97 570.19 534.48 563.46 C 532.21 558.94 527.77 556.28 524.50 552.61 C 523.05 551.19 523.78 548.15 526.03 548.22 C 531.37 551.20 536.47 555.04 539.65 560.37 C 543.22 566.39 546.13 572.78 548.98 579.17 C 549.68 580.96 551.30 582.09 552.65 583.37 C 557.78 587.88 562.57 592.76 567.44 597.54 C 580.55 609.69 592.53 623.05 603.57 637.11 C 605.99 632.26 609.32 627.91 613.16 624.09 C 626.50 610.90 642.65 600.90 659.45 592.74 C 673.26 586.32 687.78 580.46 703.15 579.55 C 698.64 573.53 693.70 567.85 688.72 562.22 C 683.21 555.42 676.09 550.03 671.32 542.62 C 665.76 534.04 658.05 527.22 650.88 520.04 C 644.02 513.04 641.42 503.31 639.24 494.04 C 637.65 487.95 636.41 480.89 631.05 476.88 C 625.63 473.49 619.09 472.81 612.96 471.56 C 603.16 470.32 593.61 467.70 583.88 466.08 C 571.39 463.87 558.77 462.44 546.12 461.65 C 533.95 460.57 521.66 460.36 509.51 461.89 M 223.39 484.53 C 229.88 489.23 227.07 499.72 234.15 504.03 C 234.60 502.16 235.73 500.18 234.68 498.31 C 232.68 493.25 230.65 488.20 229.30 482.92 C 227.33 483.45 225.34 483.91 223.39 484.53 M 457.23 608.22 C 462.97 616.31 465.98 625.89 468.35 635.41 C 470.69 646.81 473.25 658.29 473.21 670.00 C 473.87 681.13 473.37 692.37 470.94 703.27 C 480.03 698.24 490.74 697.14 500.95 697.99 C 510.74 699.03 521.11 700.74 528.97 707.15 C 532.40 698.57 537.48 690.45 538.67 681.13 C 540.02 662.62 537.20 644.16 534.02 625.98 C 533.10 617.30 532.74 607.78 537.03 599.88 C 525.33 588.59 508.15 583.05 492.13 586.56 C 478.50 589.72 466.81 598.30 457.23 608.22 M 664.60 597.65 C 649.99 604.51 636.01 612.79 623.34 622.80 C 631.57 633.53 638.84 645.20 643.16 658.09 C 647.72 670.85 649.06 684.50 649.79 697.96 C 648.76 706.57 652.18 715.55 658.60 721.39 C 667.28 729.35 679.37 733.51 691.11 732.59 C 695.20 731.89 700.61 732.06 703.05 728.09 C 710.03 716.91 718.03 706.17 722.84 693.81 C 726.85 683.76 725.79 672.38 721.18 662.73 C 713.72 646.91 708.59 630.13 704.91 613.07 C 703.09 603.68 698.35 595.26 693.50 587.15 C 683.54 589.65 673.89 593.28 664.60 597.65 M 469.09 713.18 C 464.07 738.13 469.51 763.69 475.86 787.89 C 480.13 808.26 483.85 828.75 487.34 849.27 C 493.96 843.14 501.79 838.23 510.31 835.25 C 516.08 833.20 522.34 833.66 528.24 834.87 C 530.84 816.03 530.54 796.92 529.72 777.97 C 528.78 764.66 528.46 751.29 526.43 738.09 C 525.20 729.50 524.74 720.63 527.06 712.17 C 518.43 706.69 508.23 703.66 497.98 704.04 C 487.82 704.02 476.60 705.74 469.09 713.18 M 632.37 731.15 C 628.99 740.12 627.83 749.72 625.69 759.02 C 620.00 781.70 609.44 802.76 597.94 822.99 C 590.96 833.55 583.97 844.22 575.47 853.64 C 574.41 863.63 576.85 874.11 582.68 882.34 C 585.50 885.98 589.84 889.77 594.82 888.42 C 604.30 886.28 609.65 877.53 617.08 872.13 C 625.13 862.93 631.31 852.30 638.24 842.27 C 643.20 834.59 648.91 827.42 653.64 819.60 C 664.53 803.95 672.72 786.60 680.06 769.06 C 685.05 758.09 689.70 746.79 697.12 737.17 C 685.35 740.09 672.59 737.90 662.16 731.85 C 654.37 727.39 647.93 720.27 645.40 711.54 C 640.24 717.46 635.13 723.69 632.37 731.15 M 514.56 841.34 C 508.92 850.04 504.69 859.84 497.30 867.30 C 494.27 870.40 491.49 873.86 489.95 877.96 C 486.73 885.89 487.35 894.65 487.94 903.00 C 488.87 913.77 489.35 924.69 487.68 935.41 C 486.77 941.47 483.54 947.76 486.07 953.86 C 488.11 958.91 490.87 965.18 496.93 966.15 C 504.03 967.55 512.22 966.91 517.80 961.83 C 522.95 957.90 525.99 951.96 527.77 945.86 C 532.79 931.48 530.77 915.80 535.32 901.31 C 537.83 892.47 542.46 884.46 545.55 875.85 C 548.47 867.91 547.64 858.45 542.33 851.69 C 536.31 843.06 524.81 838.13 514.56 841.34 M 495.89 849.85 C 487.52 856.76 483.15 867.02 479.82 877.07 C 475.69 888.57 473.89 900.81 473.76 913.00 C 473.65 925.69 474.59 938.70 479.57 950.53 C 479.43 946.80 479.56 943.04 480.45 939.40 C 483.34 927.48 482.51 915.08 481.71 902.96 C 481.14 893.06 480.72 882.54 485.46 873.49 C 488.69 866.43 495.62 862.21 499.78 855.81 C 502.84 851.12 506.04 846.53 509.44 842.09 C 504.66 844.16 499.81 846.33 495.89 849.85 M 561.16 894.87 C 565.71 906.42 572.27 917.17 575.75 929.15 C 578.42 938.90 576.83 949.10 577.80 959.05 C 578.67 967.09 581.80 975.45 588.56 980.36 C 598.02 987.60 610.64 988.52 622.08 987.19 C 625.71 986.53 630.16 985.68 632.23 982.29 C 634.23 975.91 630.57 969.64 629.38 963.46 C 625.25 949.31 624.56 934.53 623.56 919.92 C 622.67 905.81 620.30 891.87 617.76 877.99 C 611.19 884.52 604.70 892.37 595.06 894.07 C 588.79 895.43 582.91 891.61 579.04 887.02 C 572.82 879.68 570.43 869.96 569.91 860.54 C 561.95 869.76 556.75 882.87 561.16 894.87 Z" />
        <path fill="#020202" opacity="1.00"
            d=" M 451.96 166.64 C 453.39 165.47 455.16 161.64 456.61 164.87 C 455.33 167.24 453.65 169.35 452.01 171.47 C 449.60 171.11 447.11 171.02 444.80 170.19 C 442.74 169.15 442.92 166.48 442.41 164.58 C 445.61 165.17 448.77 165.98 451.96 166.64 Z" />
        <path fill="#020202" opacity="1.00"
            d=" M 437.69 178.83 C 445.15 176.35 453.16 176.24 460.91 175.18 C 463.05 175.18 466.72 173.96 467.27 177.00 C 465.24 179.07 463.10 181.47 460.07 181.90 C 454.21 183.09 448.13 183.94 442.20 182.77 C 441.95 182.43 441.44 181.75 441.19 181.41 C 439.80 180.86 437.32 181.02 437.69 178.83 Z" />
        <path fill="#020202" opacity="1.00"
            d=" M 407.56 272.80 C 410.21 275.81 412.20 279.31 414.28 282.72 C 419.36 291.05 426.01 298.24 432.53 305.44 C 446.93 321.04 461.53 336.45 475.87 352.09 C 497.09 375.39 522.60 395.59 552.33 406.74 C 556.55 408.43 561.33 408.51 565.26 410.91 C 560.14 413.41 554.25 410.86 549.10 409.56 C 531.42 403.09 514.67 393.86 500.17 381.80 C 486.62 371.47 475.10 358.86 463.66 346.31 C 451.34 332.67 438.49 319.50 426.51 305.55 C 421.62 299.96 417.13 294.01 413.44 287.55 C 410.87 282.93 407.39 278.36 407.56 272.80 Z" />
        <path fill="#020202" opacity="1.00"
            d=" M 584.52 303.25 C 585.67 304.04 587.56 304.40 587.79 306.08 C 589.77 312.92 590.37 320.06 591.35 327.09 C 592.54 338.74 593.59 350.77 590.44 362.21 C 589.35 366.26 586.86 370.50 582.49 371.54 C 575.67 373.11 568.99 370.02 562.95 367.19 C 557.80 364.45 552.07 361.81 549.01 356.56 C 554.47 357.37 558.70 361.18 563.66 363.26 C 568.74 365.50 574.26 368.04 579.94 366.82 C 583.77 366.07 584.74 361.67 585.60 358.47 C 589.54 340.20 585.44 321.59 584.52 303.25 Z" />
        <path fill="#020202" opacity="1.00"
            d=" M 413.55 362.40 C 411.90 360.99 411.29 358.93 411.40 356.82 C 421.83 365.57 433.13 373.19 444.68 380.36 C 453.51 385.63 464.00 387.52 472.50 393.33 C 469.03 393.93 465.50 393.62 462.15 392.61 C 453.39 390.20 444.58 387.19 437.20 381.75 C 428.97 375.75 420.76 369.61 413.55 362.40 Z" />
        <path fill="#020202" opacity="1.00"
            d=" M 461.26 418.30 C 471.31 417.25 481.41 418.49 491.43 419.39 C 502.23 420.66 513.13 421.26 523.85 423.13 C 524.54 425.95 520.81 425.86 518.97 426.19 C 501.27 426.72 483.66 423.86 465.96 424.22 C 456.99 424.35 448.35 427.36 440.46 431.44 C 438.54 432.35 436.66 433.63 434.47 433.62 C 434.22 432.44 433.99 431.05 435.11 430.21 C 442.19 423.49 451.50 419.14 461.26 418.30 Z" />
        <path fill="#020202" opacity="1.00"
            d=" M 568.97 510.01 C 582.90 504.34 594.82 493.31 610.20 491.59 C 610.38 492.13 610.76 493.20 610.94 493.74 C 607.07 496.61 602.40 498.10 598.17 500.34 C 589.13 504.73 580.88 510.65 571.50 514.33 C 565.04 517.40 557.91 518.47 550.89 519.38 C 547.16 519.71 543.20 519.83 539.74 518.19 C 532.80 514.82 528.08 508.35 521.42 504.57 C 517.18 502.15 512.67 500.23 508.00 498.82 C 503.85 497.51 499.37 497.07 495.60 494.73 C 497.91 493.20 500.63 493.98 503.15 494.25 C 510.67 495.13 518.04 497.48 524.58 501.32 C 530.38 504.71 534.63 510.17 540.43 513.57 C 543.34 515.35 546.92 515.02 550.17 514.70 C 556.56 513.76 563.08 512.80 568.97 510.01 Z" />
        <path fill="#020202" opacity="1.00"
            d=" M 453.55 500.23 C 456.40 496.76 461.05 496.26 465.18 495.60 C 470.10 495.04 475.15 494.13 480.06 495.29 C 484.96 496.41 489.60 498.46 494.04 500.79 C 510.53 509.70 524.66 522.14 539.46 533.47 C 544.43 538.19 549.86 542.32 555.65 545.96 L 555.20 547.40 C 549.69 546.83 545.18 543.21 540.98 539.91 C 534.57 534.58 527.62 529.95 521.13 524.73 C 508.77 515.12 496.09 505.27 481.18 499.97 C 472.17 496.77 462.70 499.53 453.55 500.23 Z" />
        <path fill="#020202" opacity="1.00"
            d=" M 604.56 515.73 C 605.61 514.90 608.32 515.10 607.28 517.09 C 606.25 519.31 604.20 520.83 602.61 522.63 C 595.77 529.52 590.04 537.39 584.07 545.03 C 575.56 555.72 569.66 568.42 566.45 581.68 C 566.04 583.42 564.49 584.09 562.92 583.19 C 561.37 580.01 562.31 576.31 563.01 573.03 C 566.21 561.46 571.70 550.49 579.17 541.08 C 586.45 531.58 594.76 522.66 604.56 515.73 Z" />
    </g>
    <g id="#f0b58bff">
        <path fill="#f0b58b" opacity="1.00"
            d=" M 433.97 104.02 C 442.84 101.02 449.93 94.13 454.79 86.29 C 457.73 95.14 464.72 101.97 472.81 106.26 C 474.28 107.02 476.64 106.84 477.02 104.88 C 478.00 100.95 476.90 96.90 476.28 92.99 C 483.22 97.06 487.33 104.06 492.21 110.18 C 492.02 113.85 491.84 117.52 491.79 121.19 C 480.62 123.14 469.26 124.91 458.57 128.80 C 459.15 131.65 459.59 134.59 460.82 137.26 C 462.10 138.10 463.67 137.57 465.08 137.47 C 473.99 136.03 482.84 134.25 491.69 132.47 C 490.86 140.99 490.77 149.57 489.74 158.08 C 489.14 162.94 487.11 167.46 485.09 171.87 C 480.54 181.25 474.99 190.24 467.74 197.79 C 463.76 201.32 458.33 203.01 453.05 202.83 C 450.12 202.68 446.88 203.43 444.30 201.65 C 435.31 196.27 428.84 187.81 422.17 179.95 C 414.06 170.61 406.96 160.07 403.22 148.20 C 415.69 145.12 428.37 143.07 441.00 140.74 C 441.01 148.02 439.63 155.24 440.16 162.52 C 443.56 161.23 442.96 157.06 443.66 154.16 C 444.38 147.02 446.99 138.31 441.34 132.48 C 438.61 131.68 435.71 132.20 432.93 132.32 C 422.50 133.35 412.08 134.48 401.68 135.78 C 401.20 129.38 398.62 122.37 402.33 116.45 C 405.03 113.02 408.44 110.22 411.44 107.06 C 411.81 107.44 412.55 108.22 412.92 108.60 C 420.12 108.15 427.17 106.41 433.97 104.02 M 451.96 166.64 C 448.77 165.98 445.61 165.17 442.41 164.58 C 442.92 166.48 442.74 169.15 444.80 170.19 C 447.11 171.02 449.60 171.11 452.01 171.47 C 453.65 169.35 455.33 167.24 456.61 164.87 C 455.16 161.64 453.39 165.47 451.96 166.64 M 437.69 178.83 C 437.32 181.02 439.80 180.86 441.19 181.41 C 441.44 181.75 441.95 182.43 442.20 182.77 C 448.13 183.94 454.21 183.09 460.07 181.90 C 463.10 181.47 465.24 179.07 467.27 177.00 C 466.72 173.96 463.05 175.18 460.91 175.18 C 453.16 176.24 445.15 176.35 437.69 178.83 Z" />
        <path fill="#f0b58b" opacity="1.00"
            d=" M 412.67 177.03 C 421.80 187.57 429.99 199.74 442.60 206.43 C 448.82 209.94 456.16 208.34 462.60 206.36 C 466.97 204.93 470.70 201.99 473.68 198.54 C 478.47 192.86 482.73 186.75 486.48 180.33 C 487.74 186.50 488.43 193.03 486.40 199.13 C 482.69 211.06 471.12 219.36 459.02 221.09 C 437.70 224.22 415.02 213.16 404.65 194.19 C 407.69 188.65 411.37 183.34 412.67 177.03 Z" />
        <path fill="#f0b58b" opacity="1.00"
            d=" M 670.29 222.63 C 680.48 228.69 692.08 231.89 702.39 237.73 C 704.76 239.29 707.93 240.95 708.30 244.07 C 706.47 248.76 700.68 250.01 698.47 254.40 C 697.47 256.28 699.23 258.27 701.07 258.60 C 706.31 259.74 711.72 259.04 717.03 259.01 C 726.03 258.57 735.02 259.26 744.02 259.11 C 751.71 259.12 759.42 258.86 767.10 259.46 C 769.73 259.60 772.21 260.56 774.63 261.54 C 774.28 262.13 773.59 263.31 773.24 263.89 C 764.39 259.79 754.36 261.14 744.92 260.79 C 737.58 261.02 730.06 259.93 722.90 261.95 C 724.57 263.37 726.68 263.88 728.79 264.29 C 728.64 264.63 728.34 265.32 728.19 265.66 C 722.83 265.95 717.22 264.74 712.15 267.06 C 716.32 269.41 721.26 269.07 725.86 269.67 C 733.53 270.51 741.80 271.05 748.26 275.74 C 745.93 276.60 743.54 277.39 741.05 277.48 C 733.98 277.89 726.91 278.25 719.87 278.94 C 714.29 279.53 708.45 281.38 704.64 285.72 C 701.59 289.32 699.41 293.62 695.91 296.85 C 691.71 300.82 686.20 302.92 680.84 304.82 C 676.17 306.40 671.00 307.93 666.17 306.10 C 669.33 301.37 675.86 299.33 677.48 293.58 C 678.11 287.53 675.12 281.86 673.59 276.15 C 669.98 266.64 668.80 256.39 669.62 246.28 C 667.35 249.01 666.01 252.40 665.98 255.99 C 665.61 262.78 667.00 269.53 669.03 275.98 C 661.68 271.46 653.50 268.60 645.82 264.73 C 649.41 257.09 654.94 250.67 659.85 243.89 C 664.56 237.43 666.34 229.50 670.29 222.63 Z" />
        <path fill="#f0b58b" opacity="1.00"
            d=" M 731.22 265.70 C 732.45 263.57 735.82 264.55 737.98 264.48 C 748.76 265.49 759.86 264.06 770.38 267.15 C 765.60 272.80 757.64 271.66 751.05 271.82 C 745.36 267.45 738.01 266.67 731.22 265.70 Z" />
        <path fill="#f0b58b" opacity="1.00"
            d=" M 339.08 355.08 C 342.40 351.62 344.68 347.36 346.61 343.01 C 358.82 353.06 374.58 358.70 390.40 358.62 C 387.44 369.01 378.88 376.41 370.54 382.65 C 354.12 395.77 335.10 405.02 317.98 417.14 C 303.35 427.43 287.63 437.57 278.15 453.20 C 272.32 462.62 263.16 469.49 253.43 474.50 C 250.29 475.82 248.48 479.56 250.05 482.75 C 252.14 487.49 254.70 492.16 255.00 497.46 C 252.99 496.00 250.91 494.57 249.34 492.63 C 247.05 489.83 245.95 486.17 243.25 483.69 C 242.14 482.45 239.08 482.92 239.63 485.03 C 241.58 489.64 244.53 493.75 246.97 498.10 C 248.25 500.96 247.20 503.93 244.91 505.89 C 242.05 503.43 240.92 499.77 239.58 496.40 C 237.61 491.26 235.39 486.21 232.83 481.33 C 237.75 478.89 242.43 476.01 246.94 472.89 C 253.65 468.16 261.82 465.65 267.72 459.76 C 269.92 457.89 271.65 455.35 271.48 452.32 C 265.69 455.50 260.93 460.31 254.72 462.78 C 245.57 466.53 238.14 473.35 229.15 477.40 C 226.74 478.59 224.00 478.71 221.37 478.85 C 222.72 472.20 230.15 470.69 234.07 466.04 C 238.94 461.11 239.04 453.75 242.19 447.86 C 236.46 448.70 235.19 455.38 232.57 459.57 C 229.45 466.13 221.04 467.56 217.94 474.08 C 216.87 476.28 216.24 479.11 217.69 481.29 C 218.98 482.75 220.80 483.57 222.35 484.73 C 221.08 488.80 223.92 492.98 222.12 497.00 C 217.79 491.72 216.46 484.91 214.52 478.57 C 213.83 476.09 212.80 473.66 212.69 471.07 C 213.62 463.25 214.66 454.47 221.16 449.10 C 229.09 441.18 241.34 442.76 250.73 437.77 C 259.56 433.26 267.64 427.40 275.45 421.32 C 291.90 407.37 304.27 389.51 318.49 373.46 C 324.76 366.68 332.72 361.76 339.08 355.08 Z" />
        <path fill="#f0b58b" opacity="1.00"
            d=" M 223.39 484.53 C 225.34 483.91 227.33 483.45 229.30 482.92 C 230.65 488.20 232.68 493.25 234.68 498.31 C 235.73 500.18 234.60 502.16 234.15 504.03 C 227.07 499.72 229.88 489.23 223.39 484.53 Z" />
        <path fill="#f0b58b" opacity="1.00"
            d=" M 457.23 608.22 C 466.81 598.30 478.50 589.72 492.13 586.56 C 508.15 583.05 525.33 588.59 537.03 599.88 C 532.74 607.78 533.10 617.30 534.02 625.98 C 537.20 644.16 540.02 662.62 538.67 681.13 C 537.48 690.45 532.40 698.57 528.97 707.15 C 521.11 700.74 510.74 699.03 500.95 697.99 C 490.74 697.14 480.03 698.24 470.94 703.27 C 473.37 692.37 473.87 681.13 473.21 670.00 C 473.25 658.29 470.69 646.81 468.35 635.41 C 465.98 625.89 462.97 616.31 457.23 608.22 Z" />
        <path fill="#f0b58b" opacity="1.00"
            d=" M 664.60 597.65 C 673.89 593.28 683.54 589.65 693.50 587.15 C 698.35 595.26 703.09 603.68 704.91 613.07 C 708.59 630.13 713.72 646.91 721.18 662.73 C 725.79 672.38 726.85 683.76 722.84 693.81 C 718.03 706.17 710.03 716.91 703.05 728.09 C 700.61 732.06 695.20 731.89 691.11 732.59 C 679.37 733.51 667.28 729.35 658.60 721.39 C 652.18 715.55 648.76 706.57 649.79 697.96 C 649.06 684.50 647.72 670.85 643.16 658.09 C 638.84 645.20 631.57 633.53 623.34 622.80 C 636.01 612.79 649.99 604.51 664.60 597.65 Z" />
    </g>
    <g id="#f11b27ff">
        <path fill="var(--shirt-color, grey)" opacity="1.00"
            d=" M 534.15 163.55 C 546.68 161.33 559.40 157.49 572.22 159.79 C 581.02 161.36 588.83 166.00 596.22 170.80 C 605.06 176.62 614.18 182.17 624.11 185.96 C 636.02 190.77 648.66 194.26 659.42 201.50 C 664.30 204.65 668.41 208.79 672.82 212.54 C 668.59 215.81 664.95 219.94 662.95 224.94 C 660.43 231.16 658.28 237.69 653.93 242.93 C 647.92 250.30 642.57 258.36 639.44 267.39 C 637.87 271.97 636.85 276.71 635.73 281.41 C 628.41 274.66 621.29 267.68 613.51 261.46 C 607.84 256.94 600.94 254.47 594.31 251.76 C 590.81 250.58 587.01 248.76 583.29 250.09 C 582.23 252.27 584.82 252.87 586.26 253.69 C 591.00 255.70 595.72 257.74 600.23 260.23 C 599.73 276.83 597.22 293.47 599.03 310.06 C 600.54 320.61 603.04 331.07 607.23 340.89 C 612.19 352.63 615.29 365.24 615.49 378.02 C 615.55 385.38 614.13 392.65 613.90 399.99 C 613.69 405.71 614.37 411.43 615.26 417.07 C 616.91 427.52 618.59 438.00 621.60 448.16 C 623.57 455.05 626.76 461.95 625.51 469.30 C 617.30 466.94 608.86 465.70 600.55 463.83 C 582.66 459.61 564.41 457.18 546.13 455.49 C 522.10 453.28 497.75 455.63 474.38 461.53 C 464.50 464.06 454.47 465.91 444.45 467.79 C 439.60 468.58 435.09 470.68 431.13 473.56 C 428.41 471.91 424.56 470.64 423.95 467.06 C 421.47 454.11 428.59 441.89 427.84 428.99 C 427.58 419.79 425.28 410.75 421.49 402.38 C 417.03 392.52 413.32 382.33 410.46 371.89 C 408.19 363.11 404.49 354.76 402.42 345.92 C 401.13 340.70 401.50 335.29 400.95 329.98 C 400.21 320.68 396.91 311.86 393.85 303.12 C 392.78 299.78 390.81 296.84 388.06 294.64 C 389.51 304.21 393.19 313.29 394.59 322.90 C 388.99 315.96 380.63 311.96 375.14 304.91 C 371.68 301.33 369.81 296.36 365.88 293.28 C 365.42 293.24 364.51 293.18 364.05 293.14 C 364.81 299.62 368.90 305.15 372.86 310.11 C 376.65 314.70 381.50 318.19 386.06 321.95 C 390.79 325.93 393.27 331.84 395.42 337.48 C 396.64 342.35 397.11 347.39 398.60 352.20 C 383.46 355.01 367.68 350.39 354.92 342.20 C 349.27 338.16 342.72 332.66 343.22 324.99 C 343.79 309.26 347.36 293.53 345.07 277.77 C 343.50 259.99 339.81 241.62 345.25 224.12 C 348.05 215.49 353.07 206.35 362.02 202.99 C 369.82 200.54 378.07 199.27 385.37 195.39 C 392.00 192.07 396.93 185.71 404.49 184.22 C 402.93 187.10 400.88 189.78 399.93 192.95 C 402.09 201.23 408.01 208.07 414.45 213.48 C 427.19 224.10 444.68 229.04 461.04 225.85 C 470.03 224.10 478.91 220.01 484.88 212.87 C 493.45 202.89 495.51 187.44 488.86 175.92 C 490.49 172.37 492.14 168.83 493.68 165.23 C 506.94 169.63 520.92 166.20 534.15 163.55 M 407.56 272.80 C 407.39 278.36 410.87 282.93 413.44 287.55 C 417.13 294.01 421.62 299.96 426.51 305.55 C 438.49 319.50 451.34 332.67 463.66 346.31 C 475.10 358.86 486.62 371.47 500.17 381.80 C 514.67 393.86 531.42 403.09 549.10 409.56 C 554.25 410.86 560.14 413.41 565.26 410.91 C 561.33 408.51 556.55 408.43 552.33 406.74 C 522.60 395.59 497.09 375.39 475.87 352.09 C 461.53 336.45 446.93 321.04 432.53 305.44 C 426.01 298.24 419.36 291.05 414.28 282.72 C 412.20 279.31 410.21 275.81 407.56 272.80 M 584.52 303.25 C 585.44 321.59 589.54 340.20 585.60 358.47 C 584.74 361.67 583.77 366.07 579.94 366.82 C 574.26 368.04 568.74 365.50 563.66 363.26 C 558.70 361.18 554.47 357.37 549.01 356.56 C 552.07 361.81 557.80 364.45 562.95 367.19 C 568.99 370.02 575.67 373.11 582.49 371.54 C 586.86 370.50 589.35 366.26 590.44 362.21 C 593.59 350.77 592.54 338.74 591.35 327.09 C 590.37 320.06 589.77 312.92 587.79 306.08 C 587.56 304.40 585.67 304.04 584.52 303.25 M 413.55 362.40 C 420.76 369.61 428.97 375.75 437.20 381.75 C 444.58 387.19 453.39 390.20 462.15 392.61 C 465.50 393.62 469.03 393.93 472.50 393.33 C 464.00 387.52 453.51 385.63 444.68 380.36 C 433.13 373.19 421.83 365.57 411.40 356.82 C 411.29 358.93 411.90 360.99 413.55 362.40 M 461.26 418.30 C 451.50 419.14 442.19 423.49 435.11 430.21 C 433.99 431.05 434.22 432.44 434.47 433.62 C 436.66 433.63 438.54 432.35 440.46 431.44 C 448.35 427.36 456.99 424.35 465.96 424.22 C 483.66 423.86 501.27 426.72 518.97 426.19 C 520.81 425.86 524.54 425.95 523.85 423.13 C 513.13 421.26 502.23 420.66 491.43 419.39 C 481.41 418.49 471.31 417.25 461.26 418.30 Z" />
    </g>
    <g id="#ffffffff">
        <path fill="var(--pants-color, grey)" opacity="1.00"
            d=" M 509.51 461.89 C 521.66 460.36 533.95 460.57 546.12 461.65 C 558.77 462.44 571.39 463.87 583.88 466.08 C 593.61 467.70 603.16 470.32 612.96 471.56 C 619.09 472.81 625.63 473.49 631.05 476.88 C 636.41 480.89 637.65 487.95 639.24 494.04 C 641.42 503.31 644.02 513.04 650.88 520.04 C 658.05 527.22 665.76 534.04 671.32 542.62 C 676.09 550.03 683.21 555.42 688.72 562.22 C 693.70 567.85 698.64 573.53 703.15 579.55 C 687.78 580.46 673.26 586.32 659.45 592.74 C 642.65 600.90 626.50 610.90 613.16 624.09 C 609.32 627.91 605.99 632.26 603.57 637.11 C 592.53 623.05 580.55 609.69 567.44 597.54 C 562.57 592.76 557.78 587.88 552.65 583.37 C 551.30 582.09 549.68 580.96 548.98 579.17 C 546.13 572.78 543.22 566.39 539.65 560.37 C 536.47 555.04 531.37 551.20 526.03 548.22 C 523.78 548.15 523.05 551.19 524.50 552.61 C 527.77 556.28 532.21 558.94 534.48 563.46 C 537.97 570.19 541.52 576.93 544.14 584.06 C 546.39 590.07 547.10 596.49 547.83 602.83 C 537.67 590.04 522.71 580.01 505.98 579.46 C 484.76 578.63 464.71 590.21 451.59 606.37 C 444.19 592.66 439.01 577.60 437.79 562.00 C 437.51 558.09 437.04 554.07 438.13 550.24 C 438.92 546.74 439.75 542.99 438.47 539.50 C 437.03 535.13 435.06 530.55 436.20 525.88 C 436.98 518.76 442.17 513.43 445.53 507.46 C 439.14 508.50 436.13 514.97 433.33 520.05 C 430.36 508.11 427.01 495.29 431.25 483.22 C 433.78 478.00 439.36 475.18 444.91 474.47 C 466.58 470.91 487.60 463.98 509.51 461.89 M 568.97 510.01 C 563.08 512.80 556.56 513.76 550.17 514.70 C 546.92 515.02 543.34 515.35 540.43 513.57 C 534.63 510.17 530.38 504.71 524.58 501.32 C 518.04 497.48 510.67 495.13 503.15 494.25 C 500.63 493.98 497.91 493.20 495.60 494.73 C 499.37 497.07 503.85 497.51 508.00 498.82 C 512.67 500.23 517.18 502.15 521.42 504.57 C 528.08 508.35 532.80 514.82 539.74 518.19 C 543.20 519.83 547.16 519.71 550.89 519.38 C 557.91 518.47 565.04 517.40 571.50 514.33 C 580.88 510.65 589.13 504.73 598.17 500.34 C 602.40 498.10 607.07 496.61 610.94 493.74 C 610.76 493.20 610.38 492.13 610.20 491.59 C 594.82 493.31 582.90 504.34 568.97 510.01 M 453.55 500.23 C 462.70 499.53 472.17 496.77 481.18 499.97 C 496.09 505.27 508.77 515.12 521.13 524.73 C 527.62 529.95 534.57 534.58 540.98 539.91 C 545.18 543.21 549.69 546.83 555.20 547.40 L 555.65 545.96 C 549.86 542.32 544.43 538.19 539.46 533.47 C 524.66 522.14 510.53 509.70 494.04 500.79 C 489.60 498.46 484.96 496.41 480.06 495.29 C 475.15 494.13 470.10 495.04 465.18 495.60 C 461.05 496.26 456.40 496.76 453.55 500.23 M 604.56 515.73 C 594.76 522.66 586.45 531.58 579.17 541.08 C 571.70 550.49 566.21 561.46 563.01 573.03 C 562.31 576.31 561.37 580.01 562.92 583.19 C 564.49 584.09 566.04 583.42 566.45 581.68 C 569.66 568.42 575.56 555.72 584.07 545.03 C 590.04 537.39 595.77 529.52 602.61 522.63 C 604.20 520.83 606.25 519.31 607.28 517.09 C 608.32 515.10 605.61 514.90 604.56 515.73 Z" />
        <path fill="var(--socks-color, grey)" opacity="1.00"
            d=" M 469.09 713.18 C 476.60 705.74 487.82 704.02 497.98 704.04 C 508.23 703.66 518.43 706.69 527.06 712.17 C 524.74 720.63 525.20 729.50 526.43 738.09 C 528.46 751.29 528.78 764.66 529.72 777.97 C 530.54 796.92 530.84 816.03 528.24 834.87 C 522.34 833.66 516.08 833.20 510.31 835.25 C 501.79 838.23 493.96 843.14 487.34 849.27 C 483.85 828.75 480.13 808.26 475.86 787.89 C 469.51 763.69 464.07 738.13 469.09 713.18 Z" />
        <path fill="var(--socks-color, grey)" opacity="1.00"
            d=" M 632.37 731.15 C 635.13 723.69 640.24 717.46 645.40 711.54 C 647.93 720.27 654.37 727.39 662.16 731.85 C 672.59 737.90 685.35 740.09 697.12 737.17 C 689.70 746.79 685.05 758.09 680.06 769.06 C 672.72 786.60 664.53 803.95 653.64 819.60 C 648.91 827.42 643.20 834.59 638.24 842.27 C 631.31 852.30 625.13 862.93 617.08 872.13 C 609.65 877.53 604.30 886.28 594.82 888.42 C 589.84 889.77 585.50 885.98 582.68 882.34 C 576.85 874.11 574.41 863.63 575.47 853.64 C 583.97 844.22 590.96 833.55 597.94 822.99 C 609.44 802.76 620.00 781.70 625.69 759.02 C 627.83 749.72 628.99 740.12 632.37 731.15 Z" />
    </g>
    <g id="#4d4d4dff">
        <path fill="#4d4d4d" opacity="1.00"
            d=" M 514.56 841.34 C 524.81 838.13 536.31 843.06 542.33 851.69 C 547.64 858.45 548.47 867.91 545.55 875.85 C 542.46 884.46 537.83 892.47 535.32 901.31 C 530.77 915.80 532.79 931.48 527.77 945.86 C 525.99 951.96 522.95 957.90 517.80 961.83 C 512.22 966.91 504.03 967.55 496.93 966.15 C 490.87 965.18 488.11 958.91 486.07 953.86 C 483.54 947.76 486.77 941.47 487.68 935.41 C 489.35 924.69 488.87 913.77 487.94 903.00 C 487.35 894.65 486.73 885.89 489.95 877.96 C 491.49 873.86 494.27 870.40 497.30 867.30 C 504.69 859.84 508.92 850.04 514.56 841.34 Z" />
        <path fill="#4d4d4d" opacity="1.00"
            d=" M 495.89 849.85 C 499.81 846.33 504.66 844.16 509.44 842.09 C 506.04 846.53 502.84 851.12 499.78 855.81 C 495.62 862.21 488.69 866.43 485.46 873.49 C 480.72 882.54 481.14 893.06 481.71 902.96 C 482.51 915.08 483.34 927.48 480.45 939.40 C 479.56 943.04 479.43 946.80 479.57 950.53 C 474.59 938.70 473.65 925.69 473.76 913.00 C 473.89 900.81 475.69 888.57 479.82 877.07 C 483.15 867.02 487.52 856.76 495.89 849.85 Z" />
        <path fill="#4d4d4d" opacity="1.00"
            d=" M 561.16 894.87 C 556.75 882.87 561.95 869.76 569.91 860.54 C 570.43 869.96 572.82 879.68 579.04 887.02 C 582.91 891.61 588.79 895.43 595.06 894.07 C 604.70 892.37 611.19 884.52 617.76 877.99 C 620.30 891.87 622.67 905.81 623.56 919.92 C 624.56 934.53 625.25 949.31 629.38 963.46 C 630.57 969.64 634.23 975.91 632.23 982.29 C 630.16 985.68 625.71 986.53 622.08 987.19 C 610.64 988.52 598.02 987.60 588.56 980.36 C 581.80 975.45 578.67 967.09 577.80 959.05 C 576.83 949.10 578.42 938.90 575.75 929.15 C 572.27 917.17 565.71 906.42 561.16 894.87 Z" />
    </g>
</svg>