<?xml version="1.0" encoding="UTF-8" ?>
<!DOCTYPE svg PUBLIC "-//W3C//DTD SVG 1.1//EN" "http://www.w3.org/Graphics/SVG/1.1/DTD/svg11.dtd">
<svg width="1000pt" height="1000pt" viewBox="0 0 1000 1000" version="1.1" xmlns="http://www.w3.org/2000/svg">
    <g id="#020202ff">
        <path fill="#020202" opacity="1.00"
            d=" M 553.98 22.11 C 561.79 22.28 569.28 19.63 577.02 19.05 C 584.37 18.28 591.73 20.01 598.54 22.67 C 603.67 24.66 608.56 27.56 612.27 31.68 C 616.68 36.54 619.55 42.51 623.06 48.01 C 628.49 56.94 635.07 65.16 642.54 72.48 C 651.13 80.93 659.72 89.48 666.77 99.30 C 676.48 112.54 683.14 128.46 683.59 145.02 C 683.84 154.50 681.39 164.60 674.47 171.46 C 665.41 182.79 650.95 188.36 636.88 189.96 C 632.41 195.79 627.65 201.42 623.73 207.64 C 617.90 217.29 613.82 227.99 611.76 239.08 C 610.71 243.90 610.54 248.88 609.41 253.69 C 608.92 256.03 606.98 257.92 604.62 258.31 C 599.02 259.37 593.22 258.76 587.74 257.34 C 585.62 256.96 583.29 255.90 581.28 257.20 C 571.58 262.04 562.12 267.37 552.67 272.69 C 548.15 275.33 542.97 276.43 537.79 276.72 C 537.22 285.38 537.34 294.35 540.41 302.58 C 545.15 314.34 555.46 322.38 561.97 333.00 C 568.58 344.11 569.84 357.38 569.81 370.05 C 569.69 377.33 570.41 384.59 570.09 391.87 C 575.51 395.35 580.09 400.04 583.35 405.61 C 590.68 416.42 594.58 429.18 596.77 441.95 C 597.65 445.29 594.76 447.74 592.29 449.36 C 589.29 451.10 585.66 450.51 582.36 450.52 C 580.80 452.27 579.46 454.56 577.06 455.23 C 575.21 455.66 573.32 455.72 571.45 455.86 C 570.09 468.47 572.35 481.75 579.50 492.41 C 582.10 496.05 584.47 500.28 588.58 502.42 C 602.87 509.25 614.49 521.13 621.85 535.07 C 623.55 538.62 625.21 543.15 622.86 546.81 C 617.76 555.78 614.27 565.55 611.57 575.48 C 625.10 586.24 638.81 596.76 652.01 607.94 C 665.12 618.77 678.03 630.26 687.60 644.45 C 690.78 649.47 693.89 654.93 694.23 661.01 C 694.05 666.48 690.32 670.95 686.62 674.64 C 679.32 681.41 671.45 687.59 662.89 692.70 C 673.19 704.43 680.23 719.23 681.55 734.88 C 682.38 741.28 680.63 748.10 683.57 754.14 C 689.60 767.93 696.63 781.26 703.26 794.77 C 708.34 805.20 711.98 816.23 715.60 827.23 C 719.16 838.58 722.26 850.34 721.67 862.34 C 727.66 867.81 733.84 873.33 741.35 876.64 C 751.84 881.60 763.47 883.56 775.01 883.80 C 785.10 884.39 796.03 883.53 805.03 888.99 C 811.98 893.41 815.85 902.95 812.76 910.79 C 811.26 914.87 807.07 916.76 803.31 918.22 C 795.20 921.25 787.22 924.68 778.85 926.97 C 767.72 929.96 756.39 932.15 745.02 933.96 C 731.62 936.11 717.84 935.03 704.61 938.38 C 695.15 940.24 685.85 944.80 676.02 943.12 C 668.68 940.87 663.84 934.03 660.84 927.32 C 656.19 915.88 654.61 903.24 655.87 890.98 C 656.39 885.50 656.85 880.01 657.28 874.53 C 649.41 864.15 641.05 854.14 633.58 843.46 C 620.86 825.00 608.24 806.23 599.72 785.38 C 592.30 789.49 586.47 795.72 580.24 801.35 C 571.25 809.00 562.70 817.15 553.32 824.33 C 542.56 832.61 532.14 841.42 520.53 848.52 C 514.89 851.94 509.36 855.53 503.59 858.74 C 504.14 863.56 503.57 868.44 501.95 873.02 C 498.44 883.33 494.16 893.37 490.48 903.63 C 486.97 912.66 484.12 922.20 484.27 931.99 C 484.79 943.90 485.65 956.06 482.78 967.76 C 481.91 971.29 479.91 975.29 476.05 976.17 C 470.65 977.61 465.80 974.16 461.29 971.74 C 448.38 964.57 437.32 954.52 427.63 943.47 C 420.99 935.66 416.53 926.08 414.38 916.09 C 412.44 907.48 411.71 898.66 409.97 890.01 C 406.71 872.76 401.66 855.66 401.33 838.00 C 401.00 824.20 406.94 810.38 417.46 801.41 C 428.27 792.90 444.72 794.47 454.94 803.16 C 467.60 796.87 479.07 788.04 487.93 776.97 C 499.88 762.24 510.48 746.48 520.15 730.18 C 523.63 724.48 527.02 718.72 530.93 713.30 C 518.64 723.58 504.94 732.53 489.56 737.35 C 486.61 738.29 482.64 738.06 481.22 734.83 C 475.53 724.78 470.57 714.30 464.23 704.62 C 455.04 690.54 447.90 675.25 438.96 661.03 C 429.68 645.53 420.23 630.13 411.92 614.09 C 408.27 608.26 407.05 600.90 401.79 596.15 C 393.12 588.19 383.29 580.57 378.60 569.42 C 375.81 563.54 375.48 556.97 374.26 550.68 C 373.01 544.04 368.81 538.54 366.64 532.24 C 363.93 525.16 364.19 517.42 364.77 510.00 C 365.78 498.60 365.02 487.05 362.62 475.86 C 361.23 468.99 359.00 462.04 360.11 454.96 C 361.12 445.70 365.82 437.25 366.47 427.95 C 366.18 418.25 363.17 408.92 361.34 399.45 C 360.61 394.78 358.37 390.58 356.81 386.18 C 355.44 382.21 351.92 379.53 348.36 377.60 C 338.14 372.03 327.53 367.08 317.96 360.40 C 313.44 364.80 308.27 368.44 303.18 372.14 C 292.21 380.12 279.46 385.10 266.88 389.91 C 261.95 391.82 256.53 392.86 252.31 396.23 C 246.51 400.56 244.01 407.80 238.54 412.44 C 233.53 416.73 227.73 420.59 221.05 421.46 C 213.33 422.48 204.34 422.45 198.39 416.64 C 191.36 409.34 184.41 401.37 181.41 391.47 C 178.96 383.45 180.14 374.11 185.65 367.59 C 192.36 359.70 202.06 354.73 212.12 352.69 C 218.11 351.25 224.33 351.57 230.37 350.52 C 239.43 348.48 247.22 343.08 254.46 337.50 C 264.87 329.76 275.33 321.42 287.95 317.62 C 287.14 313.07 285.84 308.15 287.77 303.71 C 290.63 297.11 295.48 291.53 301.02 287.02 C 313.81 276.68 326.68 266.35 340.74 257.77 C 350.62 251.91 361.14 246.57 369.03 238.02 C 373.35 233.56 375.66 227.52 380.36 223.38 C 386.17 217.71 394.26 215.47 400.57 210.49 C 406.04 206.55 409.82 200.83 413.05 195.02 C 415.19 191.05 418.26 186.98 422.97 186.11 C 431.94 184.39 440.89 187.74 448.71 191.89 C 452.95 190.14 457.11 188.14 460.80 185.37 C 452.29 175.38 445.52 163.28 444.69 149.94 C 443.70 139.72 448.05 130.10 448.82 120.04 C 449.84 110.67 447.86 101.04 450.57 91.86 C 454.03 79.76 459.68 68.28 467.07 58.10 C 476.86 45.09 489.87 34.74 504.22 27.16 C 511.06 23.93 518.44 21.67 525.99 20.92 C 535.34 20.44 544.64 21.93 553.98 22.11 M 514.69 155.76 C 507.65 159.01 505.50 168.19 508.08 175.04 C 510.75 181.78 514.82 187.93 519.60 193.36 C 519.55 193.58 519.44 194.01 519.39 194.23 C 514.42 195.49 509.88 197.79 505.55 200.47 C 498.88 204.62 490.62 203.28 483.46 201.33 C 476.48 199.25 471.27 193.95 465.61 189.66 C 462.41 192.27 458.86 194.41 455.02 195.94 C 461.31 199.68 468.35 201.80 474.90 205.01 C 481.89 207.88 489.06 211.05 494.30 216.70 C 499.60 222.39 504.30 228.64 510.11 233.85 C 517.02 240.70 525.44 245.83 532.18 252.87 C 536.37 257.53 537.92 263.94 537.99 270.07 C 545.88 269.58 552.29 264.67 559.01 261.06 C 565.75 257.35 572.54 253.70 579.47 250.34 C 582.92 248.63 586.73 250.00 590.25 250.70 C 594.40 251.73 598.71 251.68 602.96 251.46 C 604.47 238.92 606.99 226.33 612.52 214.88 C 608.36 214.22 604.22 213.26 600.01 213.06 C 596.59 213.39 593.27 214.32 589.87 214.75 C 588.11 207.15 586.00 199.65 583.68 192.21 C 591.49 191.92 599.46 193.25 606.58 196.54 C 611.17 198.64 614.50 202.59 616.99 206.87 C 620.93 200.92 625.74 195.63 630.77 190.59 C 629.14 190.93 627.49 191.21 625.86 191.53 C 625.24 186.77 624.94 181.97 624.63 177.18 C 618.08 182.56 609.51 185.98 600.95 185.10 C 598.81 185.03 596.03 183.64 596.78 181.07 C 599.92 176.95 604.67 173.96 606.42 168.85 C 604.90 165.37 600.37 164.63 597.00 163.98 C 586.58 162.34 576.53 167.25 568.59 173.57 C 563.99 177.23 561.36 182.62 557.56 187.00 C 554.78 181.97 551.56 177.18 548.94 172.06 C 546.51 167.39 543.45 162.99 539.48 159.49 C 532.95 153.46 522.71 152.31 514.69 155.76 M 424.30 191.41 C 420.64 192.48 419.20 196.41 417.42 199.39 C 413.99 205.95 409.35 212.01 403.17 216.21 C 397.17 220.74 389.57 222.77 384.05 228.01 C 379.96 231.74 377.86 237.05 374.15 241.11 C 367.58 248.85 358.76 254.14 350.07 259.16 C 336.81 266.36 324.67 275.42 312.89 284.80 C 307.70 288.93 302.05 292.66 297.79 297.82 C 295.23 300.86 293.22 304.32 291.34 307.81 C 295.08 324.40 304.14 339.82 317.14 350.84 C 324.59 357.16 333.39 361.54 341.94 366.16 C 348.22 369.58 355.23 372.36 359.75 378.19 C 359.91 368.76 361.65 359.43 361.68 349.98 C 361.85 346.31 359.45 343.29 357.67 340.29 C 353.60 334.12 350.00 327.58 345.08 322.01 C 342.57 319.08 339.78 316.39 337.49 313.27 C 342.53 314.23 345.68 318.52 349.06 321.96 C 353.76 326.89 357.87 332.35 361.65 338.02 C 360.71 325.02 359.63 312.00 357.34 299.16 C 356.66 295.31 356.00 291.43 356.13 287.51 C 359.72 289.20 360.06 293.49 360.98 296.87 C 363.40 308.83 366.12 320.78 366.94 332.98 C 368.11 346.19 366.88 359.45 365.36 372.58 C 365.04 381.30 364.72 390.23 367.18 398.71 C 369.76 407.97 372.46 417.35 372.80 427.02 C 372.96 437.74 366.96 447.38 366.66 458.04 C 366.54 463.47 368.15 468.72 369.11 474.01 C 371.51 485.82 372.16 497.97 371.10 509.97 C 370.67 515.81 370.18 521.80 371.67 527.54 C 373.39 534.14 377.74 539.64 379.63 546.17 C 381.75 552.97 380.91 560.46 384.07 566.98 C 388.19 576.82 397.11 583.23 404.47 590.49 C 408.62 594.89 414.17 597.48 418.98 601.03 C 425.12 605.49 432.08 608.60 438.66 612.32 C 446.42 616.98 455.40 618.83 464.05 621.14 C 472.20 623.25 480.63 623.53 489.00 623.90 C 502.47 625.03 515.76 621.05 528.06 615.91 C 540.08 610.71 553.38 610.53 566.04 607.90 C 572.84 606.45 579.91 605.43 586.11 602.10 C 591.71 599.15 595.10 593.54 598.45 588.41 C 607.69 574.37 608.30 556.02 619.98 543.37 C 613.34 530.34 603.30 518.93 590.86 511.18 C 583.54 506.87 575.36 504.37 567.41 501.54 C 558.28 498.32 549.61 493.87 541.59 488.48 C 537.02 485.41 532.07 482.73 528.23 478.72 C 526.93 477.50 525.80 473.34 528.90 474.71 C 534.12 477.57 538.99 481.10 544.39 483.68 C 555.28 488.96 566.18 494.27 577.72 498.03 C 568.06 485.99 563.20 469.59 566.72 454.36 C 565.13 455.96 563.44 457.76 561.06 457.99 C 556.62 458.85 552.58 456.30 549.51 453.37 C 547.55 454.62 545.49 456.13 543.03 455.92 C 536.76 456.00 532.13 450.78 529.14 445.83 C 524.05 437.79 523.31 427.45 516.63 420.36 C 511.74 415.53 504.26 416.10 497.95 416.43 C 481.18 417.20 463.90 412.81 450.37 402.66 C 441.88 396.43 434.09 389.04 428.57 379.99 C 426.55 383.18 425.55 386.82 424.27 390.33 C 422.68 392.33 420.07 390.75 418.96 389.09 C 414.93 383.84 411.87 377.90 409.20 371.87 C 395.96 340.31 398.43 303.46 412.67 272.68 C 416.82 263.95 421.43 255.19 428.20 248.18 C 429.38 246.74 432.68 245.02 432.86 248.08 C 431.78 252.10 428.82 255.26 426.76 258.80 C 414.35 277.47 407.05 299.55 406.29 321.97 C 405.30 342.65 410.38 363.57 420.90 381.42 C 427.94 368.79 440.51 360.58 452.96 353.94 C 469.49 345.64 487.80 339.66 506.48 340.17 C 498.29 335.30 493.70 326.64 489.61 318.39 C 488.96 316.97 488.34 315.52 488.08 313.98 C 487.93 312.69 487.88 310.45 489.80 311.32 C 492.45 314.42 494.05 318.26 496.44 321.56 C 500.43 327.13 504.72 332.66 510.29 336.76 C 514.58 340.19 518.95 343.54 523.17 347.05 C 525.18 340.30 525.90 332.96 523.70 326.17 C 519.53 312.60 510.12 301.59 500.83 291.19 C 497.33 286.98 492.81 282.87 492.54 277.01 C 497.05 278.14 499.42 282.44 502.66 285.38 C 508.61 291.14 515.13 296.43 519.74 303.42 C 526.62 313.55 533.10 325.41 531.57 338.09 C 530.94 344.35 528.81 351.53 522.33 353.98 C 520.65 351.63 519.29 348.73 516.47 347.56 C 510.27 344.86 503.30 345.43 496.73 345.97 C 501.75 352.56 509.23 356.37 515.69 361.31 C 522.72 366.52 530.63 370.34 538.10 374.86 C 547.10 380.17 556.40 384.94 565.73 389.65 C 562.91 374.10 565.34 357.65 559.33 342.73 C 554.95 331.28 544.56 323.87 538.35 313.59 C 532.23 304.71 530.80 293.56 531.02 283.03 C 531.07 275.94 532.72 268.54 530.25 261.68 C 528.44 256.35 523.54 253.13 519.46 249.64 C 511.55 243.61 504.20 236.84 497.61 229.39 C 493.68 225.02 490.17 220.12 485.29 216.74 C 480.42 213.24 474.63 211.47 469.40 208.63 C 464.78 206.13 459.68 204.61 455.21 201.82 C 450.34 199.06 446.30 194.80 440.81 193.19 C 435.54 191.50 429.81 190.17 424.30 191.41 M 266.36 336.31 C 257.11 343.21 248.52 351.47 237.47 355.49 C 230.33 358.71 222.32 357.61 214.78 358.97 C 204.48 360.75 194.38 365.85 188.23 374.52 C 193.95 372.92 201.34 371.09 206.07 375.88 C 208.48 378.09 207.13 381.38 205.97 383.85 C 208.26 384.77 210.10 386.39 211.51 388.39 C 217.44 386.29 223.71 385.60 229.83 384.32 C 232.36 383.85 234.90 383.26 237.49 383.28 C 237.63 383.70 237.91 384.53 238.06 384.95 C 230.20 390.10 219.74 388.96 212.17 394.53 C 217.85 396.65 224.13 396.12 229.80 398.18 C 233.85 399.81 234.54 404.46 234.58 408.30 C 238.92 402.47 242.06 395.53 248.06 391.12 C 252.37 387.47 257.90 386.01 263.12 384.17 C 280.81 376.97 297.88 368.13 313.38 356.91 C 302.45 347.57 294.07 335.37 289.28 321.83 C 281.17 325.86 273.53 330.78 266.36 336.31 M 468.13 353.89 C 454.68 359.44 441.55 366.55 431.25 377.00 C 438.60 385.60 446.98 393.39 456.54 399.50 C 467.87 406.81 481.59 409.85 494.96 409.55 C 502.83 409.12 511.39 408.19 518.42 412.59 C 525.63 417.40 528.47 426.07 530.95 433.94 C 533.11 439.73 535.65 446.41 541.44 449.44 C 544.70 451.00 546.55 445.61 549.76 447.07 C 550.43 448.02 551.03 449.03 551.55 450.10 C 554.19 451.77 557.39 453.56 560.60 452.45 C 562.42 450.96 562.79 447.94 565.19 447.16 C 568.30 447.61 570.75 450.46 574.06 450.09 C 577.17 449.85 576.97 445.63 579.35 444.29 C 582.66 444.15 586.11 445.99 589.32 444.31 C 590.88 442.92 592.14 440.59 591.39 438.48 C 587.40 426.14 583.52 413.22 574.62 403.39 C 568.25 396.57 559.54 392.82 551.43 388.55 C 540.81 382.97 530.37 377.07 520.13 370.84 C 513.97 367.13 508.51 362.42 502.64 358.30 C 498.22 355.17 494.80 350.93 491.34 346.82 C 483.39 348.42 475.63 350.84 468.13 353.89 M 186.34 381.45 C 186.59 384.59 187.08 387.71 187.80 390.78 C 191.99 386.08 199.51 385.82 202.30 379.73 C 196.92 378.17 191.54 380.18 186.34 381.45 M 189.76 394.79 C 191.06 397.03 192.41 399.25 193.80 401.45 C 196.82 397.48 201.30 395.09 206.07 393.92 C 206.91 392.38 207.76 390.85 208.65 389.35 C 201.95 388.99 194.98 390.34 189.76 394.79 M 197.25 405.25 C 198.61 406.99 199.95 408.75 201.33 410.48 C 204.61 406.43 209.30 404.00 214.11 402.23 C 212.00 401.37 209.96 400.37 208.00 399.24 C 204.07 400.55 200.20 402.24 197.25 405.25 M 219.62 405.63 C 214.66 408.42 208.71 409.63 204.70 413.93 C 210.52 416.98 217.74 417.09 223.82 414.84 C 226.26 412.23 228.12 408.54 227.45 404.87 C 225.03 403.15 221.98 404.49 219.62 405.63 M 609.19 582.15 C 605.88 589.94 600.98 596.86 595.92 603.56 C 607.17 616.53 617.85 630.02 628.26 643.67 C 639.29 657.84 645.45 675.12 648.90 692.58 C 661.18 685.30 674.02 678.36 684.03 667.98 C 685.85 665.42 689.28 662.74 687.87 659.25 C 685.17 650.83 679.02 644.16 673.41 637.54 C 660.44 623.40 645.21 611.63 630.55 599.33 C 623.28 593.78 616.11 588.12 609.19 582.15 M 414.58 606.85 C 420.00 616.61 424.91 626.65 430.80 636.15 C 439.46 651.17 448.73 665.85 456.72 681.26 C 461.91 691.21 468.00 700.64 473.79 710.25 C 478.21 717.53 481.22 725.65 486.46 732.41 C 493.24 729.87 499.73 726.61 506.00 723.02 C 507.06 718.07 508.20 713.14 509.03 708.15 C 511.35 688.56 512.58 668.82 511.48 649.11 C 511.47 646.53 510.85 643.81 511.90 641.35 C 512.42 641.42 513.47 641.55 513.99 641.61 C 515.50 644.89 515.65 648.57 516.18 652.09 C 517.40 663.33 518.59 674.66 517.84 685.98 C 517.29 696.37 517.07 706.86 514.80 717.06 C 523.87 710.49 532.11 702.87 541.12 696.22 C 550.93 688.96 563.96 685.29 575.91 688.85 C 590.42 692.86 604.81 697.45 618.76 703.13 C 627.14 706.39 635.89 708.48 644.63 710.52 C 643.35 705.37 642.78 700.09 641.72 694.90 C 638.16 679.25 633.01 663.58 623.30 650.59 C 612.56 636.02 601.24 621.89 589.81 607.86 C 570.38 617.19 547.62 614.35 527.97 623.00 C 519.35 626.48 510.28 628.83 501.09 630.11 C 495.04 630.97 488.93 630.23 482.87 629.98 C 485.77 637.69 487.58 645.76 488.88 653.88 C 490.12 661.53 491.57 669.23 491.33 677.00 C 491.45 679.08 490.10 680.71 488.87 682.21 C 486.63 679.31 487.16 675.51 486.51 672.12 C 484.75 657.69 480.09 643.85 477.45 629.61 C 471.90 629.09 466.38 628.22 460.98 626.86 C 451.85 624.87 442.54 622.98 434.19 618.60 C 427.44 615.06 420.94 611.05 414.58 606.85 M 556.26 696.24 C 549.46 699.98 543.66 705.40 539.51 711.97 C 556.97 717.11 572.53 727.88 584.54 741.46 C 593.28 751.59 601.05 763.28 603.50 776.67 C 610.89 772.27 618.63 767.84 623.75 760.71 C 633.56 747.62 634.66 730.40 634.44 714.64 C 627.70 713.07 621.02 711.20 614.58 708.66 C 602.55 703.76 590.04 700.19 577.67 696.29 C 570.79 693.97 563.05 693.22 556.26 696.24 M 649.74 699.36 C 649.80 704.19 651.61 709.21 650.15 713.94 C 647.60 716.65 643.32 715.65 639.99 715.79 C 640.89 729.57 639.69 744.03 633.55 756.60 C 629.12 765.72 621.53 772.94 612.81 777.95 C 634.62 771.73 656.53 765.09 676.79 754.75 C 674.19 747.82 676.03 740.36 674.79 733.22 C 673.17 719.22 666.13 706.49 657.03 695.96 C 654.62 697.15 652.19 698.27 649.74 699.36 M 497.26 775.17 C 486.35 789.52 472.33 802.50 454.85 808.09 C 454.36 815.75 456.13 823.47 459.85 830.19 C 467.67 844.32 482.16 854.81 498.31 856.86 C 504.58 853.51 510.05 848.88 516.09 845.14 C 527.46 838.07 537.45 829.11 548.06 821.01 C 558.64 813.02 568.33 803.95 578.31 795.25 C 584.70 789.10 591.29 782.96 599.29 778.96 C 595.13 767.85 589.82 757.02 581.98 748.01 C 569.83 733.72 553.88 722.26 535.60 717.39 C 523.23 736.91 511.82 757.13 497.26 775.17 M 651.75 772.70 C 636.83 777.72 621.66 782.88 605.84 783.99 C 614.63 804.99 627.59 823.89 640.73 842.36 C 648.88 853.52 657.73 864.19 665.32 875.76 C 668.56 880.39 673.99 882.80 679.17 884.61 C 684.44 886.52 690.65 887.98 695.86 885.08 C 702.69 881.48 707.58 875.14 711.86 868.88 C 717.01 861.58 715.00 852.14 713.35 844.03 C 708.56 825.62 702.39 807.42 693.46 790.58 C 688.37 780.60 683.56 770.48 679.11 760.21 C 670.74 765.83 661.08 769.08 651.75 772.70 M 428.42 802.49 C 422.04 803.81 418.36 809.74 414.60 814.49 C 407.62 823.74 406.89 835.98 408.33 847.08 C 410.37 866.23 416.44 884.66 418.54 903.80 C 419.50 912.57 421.71 921.29 426.02 929.05 C 430.09 936.90 436.31 943.31 442.55 949.47 C 450.48 957.39 459.68 963.95 469.37 969.54 C 471.38 970.77 473.78 970.78 476.06 971.04 C 480.38 958.48 479.38 944.99 478.57 931.97 C 478.06 924.91 479.32 917.87 481.25 911.10 C 486.16 894.73 494.15 879.36 497.68 862.56 C 480.63 861.76 465.23 850.88 456.43 836.62 C 450.82 827.55 447.38 816.15 451.06 805.71 C 444.12 802.25 436.04 801.11 428.42 802.49 M 720.17 867.67 C 718.05 871.28 715.71 874.78 712.95 877.94 C 709.07 882.39 705.32 887.35 699.71 889.71 C 694.82 892.27 689.17 893.57 683.71 892.32 C 676.53 890.68 669.12 888.22 663.84 882.84 C 663.24 891.38 662.19 900.01 663.65 908.53 C 665.18 918.07 667.27 928.47 674.63 935.36 C 678.39 939.10 684.21 938.05 688.81 936.75 C 696.75 934.45 704.77 932.29 712.99 931.21 C 722.98 929.85 733.11 930.09 743.09 928.65 C 754.16 927.05 765.11 924.75 775.91 921.86 C 784.72 919.48 793.17 915.98 801.66 912.69 C 804.01 911.62 807.01 910.58 807.70 907.77 C 809.14 901.56 804.97 894.81 798.98 892.87 C 790.02 889.64 780.31 890.53 770.97 889.77 C 758.92 889.27 746.85 886.53 736.17 880.81 C 730.01 877.54 724.85 872.76 720.17 867.67 Z" />
        <path fill="#020202" opacity="1.00"
            d=" M 481.65 435.16 C 483.27 435.87 484.74 436.89 485.41 438.61 C 494.92 456.96 505.71 474.62 517.47 491.61 C 532.00 512.50 545.48 534.09 559.90 555.06 C 563.23 560.65 568.18 565.59 569.35 572.23 C 564.13 569.30 561.10 564.00 557.52 559.44 C 532.22 524.89 505.08 491.14 486.89 452.09 C 484.55 446.67 481.31 441.28 481.65 435.16 Z" />
        <path fill="#020202" opacity="1.00"
            d=" M 429.57 479.67 C 430.85 480.17 432.35 480.52 433.17 481.75 C 446.45 499.01 461.84 514.48 476.16 530.85 C 481.15 536.85 485.85 543.43 488.03 551.02 C 489.66 556.40 487.84 562.87 482.84 565.80 C 475.98 569.97 467.50 569.04 459.94 567.77 C 448.31 565.62 437.06 561.83 425.89 558.06 C 421.41 556.25 415.98 555.22 413.37 550.70 C 418.72 550.35 423.64 552.72 428.67 554.17 C 441.22 557.95 453.89 561.81 467.01 563.02 C 471.59 563.30 476.67 563.28 480.59 560.55 C 483.85 558.21 483.88 553.59 482.57 550.16 C 479.65 541.97 473.93 535.19 468.21 528.80 C 457.54 517.11 446.82 505.44 437.09 492.94 C 434.01 488.89 430.87 484.68 429.57 479.67 Z" />
    </g>
    <g id="#f0b58bff">
        <path fill="#f0b58b" opacity="1.00"
            d=" M 514.69 155.76 C 522.71 152.31 532.95 153.46 539.48 159.49 C 543.45 162.99 546.51 167.39 548.94 172.06 C 551.56 177.18 554.78 181.97 557.56 187.00 C 561.36 182.62 563.99 177.23 568.59 173.57 C 576.53 167.25 586.58 162.34 597.00 163.98 C 600.37 164.63 604.90 165.37 606.42 168.85 C 604.67 173.96 599.92 176.95 596.78 181.07 C 596.03 183.64 598.81 185.03 600.95 185.10 C 609.51 185.98 618.08 182.56 624.63 177.18 C 624.94 181.97 625.24 186.77 625.86 191.53 C 627.49 191.21 629.14 190.93 630.77 190.59 C 625.74 195.63 620.93 200.92 616.99 206.87 C 614.50 202.59 611.17 198.64 606.58 196.54 C 599.46 193.25 591.49 191.92 583.68 192.21 C 586.00 199.65 588.11 207.15 589.87 214.75 C 593.27 214.32 596.59 213.39 600.01 213.06 C 604.22 213.26 608.36 214.22 612.52 214.88 C 606.99 226.33 604.47 238.92 602.96 251.46 C 598.71 251.68 594.40 251.73 590.25 250.70 C 586.73 250.00 582.92 248.63 579.47 250.34 C 572.54 253.70 565.75 257.35 559.01 261.06 C 552.29 264.67 545.88 269.58 537.99 270.07 C 537.92 263.94 536.37 257.53 532.18 252.87 C 525.44 245.83 517.02 240.70 510.11 233.85 C 504.30 228.64 499.60 222.39 494.30 216.70 C 489.06 211.05 481.89 207.88 474.90 205.01 C 468.35 201.80 461.31 199.68 455.02 195.94 C 458.86 194.41 462.41 192.27 465.61 189.66 C 471.27 193.95 476.48 199.25 483.46 201.33 C 490.62 203.28 498.88 204.62 505.55 200.47 C 509.88 197.79 514.42 195.49 519.39 194.23 C 519.44 194.01 519.55 193.58 519.60 193.36 C 514.82 187.93 510.75 181.78 508.08 175.04 C 505.50 168.19 507.65 159.01 514.69 155.76 Z" />
        <path fill="#f0b58b" opacity="1.00"
            d=" M 266.36 336.31 C 273.53 330.78 281.17 325.86 289.28 321.83 C 294.07 335.37 302.45 347.57 313.38 356.91 C 297.88 368.13 280.81 376.97 263.12 384.17 C 257.90 386.01 252.37 387.47 248.06 391.12 C 242.06 395.53 238.92 402.47 234.58 408.30 C 234.54 404.46 233.85 399.81 229.80 398.18 C 224.13 396.12 217.85 396.65 212.17 394.53 C 219.74 388.96 230.20 390.10 238.06 384.95 C 237.91 384.53 237.63 383.70 237.49 383.28 C 234.90 383.26 232.36 383.85 229.83 384.32 C 223.71 385.60 217.44 386.29 211.51 388.39 C 210.10 386.39 208.26 384.77 205.97 383.85 C 207.13 381.38 208.48 378.09 206.07 375.88 C 201.34 371.09 193.95 372.92 188.23 374.52 C 194.38 365.85 204.48 360.75 214.78 358.97 C 222.32 357.61 230.33 358.71 237.47 355.49 C 248.52 351.47 257.11 343.21 266.36 336.31 Z" />
        <path fill="#f0b58b" opacity="1.00"
            d=" M 468.13 353.89 C 475.63 350.84 483.39 348.42 491.34 346.82 C 494.80 350.93 498.22 355.17 502.64 358.30 C 508.51 362.42 513.97 367.13 520.13 370.84 C 530.37 377.07 540.81 382.97 551.43 388.55 C 559.54 392.82 568.25 396.57 574.62 403.39 C 583.52 413.22 587.40 426.14 591.39 438.48 C 592.14 440.59 590.88 442.92 589.32 444.31 C 586.11 445.99 582.66 444.15 579.35 444.29 C 576.97 445.63 577.17 449.85 574.06 450.09 C 570.75 450.46 568.30 447.61 565.19 447.16 C 562.79 447.94 562.42 450.96 560.60 452.45 C 557.39 453.56 554.19 451.77 551.55 450.10 C 551.03 449.03 550.43 448.02 549.76 447.07 C 546.55 445.61 544.70 451.00 541.44 449.44 C 535.65 446.41 533.11 439.73 530.95 433.94 C 528.47 426.07 525.63 417.40 518.42 412.59 C 511.39 408.19 502.83 409.12 494.96 409.55 C 481.59 409.85 467.87 406.81 456.54 399.50 C 446.98 393.39 438.60 385.60 431.25 377.00 C 441.55 366.55 454.68 359.44 468.13 353.89 Z" />
        <path fill="#f0b58b" opacity="1.00"
            d=" M 186.34 381.45 C 191.54 380.18 196.92 378.17 202.30 379.73 C 199.51 385.82 191.99 386.08 187.80 390.78 C 187.08 387.71 186.59 384.59 186.34 381.45 Z" />
        <path fill="#f0b58b" opacity="1.00"
            d=" M 189.76 394.79 C 194.98 390.34 201.95 388.99 208.65 389.35 C 207.76 390.85 206.91 392.38 206.07 393.92 C 201.30 395.09 196.82 397.48 193.80 401.45 C 192.41 399.25 191.06 397.03 189.76 394.79 Z" />
        <path fill="#f0b58b" opacity="1.00"
            d=" M 197.25 405.25 C 200.20 402.24 204.07 400.55 208.00 399.24 C 209.96 400.37 212.00 401.37 214.11 402.23 C 209.30 404.00 204.61 406.43 201.33 410.48 C 199.95 408.75 198.61 406.99 197.25 405.25 Z" />
        <path fill="#f0b58b" opacity="1.00"
            d=" M 219.62 405.63 C 221.98 404.49 225.03 403.15 227.45 404.87 C 228.12 408.54 226.26 412.23 223.82 414.84 C 217.74 417.09 210.52 416.98 204.70 413.93 C 208.71 409.63 214.66 408.42 219.62 405.63 Z" />
        <path fill="#f0b58b" opacity="1.00"
            d=" M 556.26 696.24 C 563.05 693.22 570.79 693.97 577.67 696.29 C 590.04 700.19 602.55 703.76 614.58 708.66 C 621.02 711.20 627.70 713.07 634.44 714.64 C 634.66 730.40 633.56 747.62 623.75 760.71 C 618.63 767.84 610.89 772.27 603.50 776.67 C 601.05 763.28 593.28 751.59 584.54 741.46 C 572.53 727.88 556.97 717.11 539.51 711.97 C 543.66 705.40 549.46 699.98 556.26 696.24 Z" />
        <path fill="#f0b58b" opacity="1.00"
            d=" M 649.74 699.36 C 652.19 698.27 654.62 697.15 657.03 695.96 C 666.13 706.49 673.17 719.22 674.79 733.22 C 676.03 740.36 674.19 747.82 676.79 754.75 C 656.53 765.09 634.62 771.73 612.81 777.95 C 621.53 772.94 629.12 765.72 633.55 756.60 C 639.69 744.03 640.89 729.57 639.99 715.79 C 643.32 715.65 647.60 716.65 650.15 713.94 C 651.61 709.21 649.80 704.19 649.74 699.36 Z" />
    </g>
    <g id="#f11b27ff">
        <path fill="var(--shirt-color, grey)" opacity="1.00"
            d=" M 424.30 191.41 C 429.81 190.17 435.54 191.50 440.81 193.19 C 446.30 194.80 450.34 199.06 455.21 201.82 C 459.68 204.61 464.78 206.13 469.40 208.63 C 474.63 211.47 480.42 213.24 485.29 216.74 C 490.17 220.12 493.68 225.02 497.61 229.39 C 504.20 236.84 511.55 243.61 519.46 249.64 C 523.54 253.13 528.44 256.35 530.25 261.68 C 532.72 268.54 531.07 275.94 531.02 283.03 C 530.80 293.56 532.23 304.71 538.35 313.59 C 544.56 323.87 554.95 331.28 559.33 342.73 C 565.34 357.65 562.91 374.10 565.73 389.65 C 556.40 384.94 547.10 380.17 538.10 374.86 C 530.63 370.34 522.72 366.52 515.69 361.31 C 509.23 356.37 501.75 352.56 496.73 345.97 C 503.30 345.43 510.27 344.86 516.47 347.56 C 519.29 348.73 520.65 351.63 522.33 353.98 C 528.81 351.53 530.94 344.35 531.57 338.09 C 533.10 325.41 526.62 313.55 519.74 303.42 C 515.13 296.43 508.61 291.14 502.66 285.38 C 499.42 282.44 497.05 278.14 492.54 277.01 C 492.81 282.87 497.33 286.98 500.83 291.19 C 510.12 301.59 519.53 312.60 523.70 326.17 C 525.90 332.96 525.18 340.30 523.17 347.05 C 518.95 343.54 514.58 340.19 510.29 336.76 C 504.72 332.66 500.43 327.13 496.44 321.56 C 494.05 318.26 492.45 314.42 489.80 311.32 C 487.88 310.45 487.93 312.69 488.08 313.98 C 488.34 315.52 488.96 316.97 489.61 318.39 C 493.70 326.64 498.29 335.30 506.48 340.17 C 487.80 339.66 469.49 345.64 452.96 353.94 C 440.51 360.58 427.94 368.79 420.90 381.42 C 410.38 363.57 405.30 342.65 406.29 321.97 C 407.05 299.55 414.35 277.47 426.76 258.80 C 428.82 255.26 431.78 252.10 432.86 248.08 C 432.68 245.02 429.38 246.74 428.20 248.18 C 421.43 255.19 416.82 263.95 412.67 272.68 C 398.43 303.46 395.96 340.31 409.20 371.87 C 411.87 377.90 414.93 383.84 418.96 389.09 C 420.07 390.75 422.68 392.33 424.27 390.33 C 425.55 386.82 426.55 383.18 428.57 379.99 C 434.09 389.04 441.88 396.43 450.37 402.66 C 463.90 412.81 481.18 417.20 497.95 416.43 C 504.26 416.10 511.74 415.53 516.63 420.36 C 523.31 427.45 524.05 437.79 529.14 445.83 C 532.13 450.78 536.76 456.00 543.03 455.92 C 545.49 456.13 547.55 454.62 549.51 453.37 C 552.58 456.30 556.62 458.85 561.06 457.99 C 563.44 457.76 565.13 455.96 566.72 454.36 C 563.20 469.59 568.06 485.99 577.72 498.03 C 566.18 494.27 555.28 488.96 544.39 483.68 C 538.99 481.10 534.12 477.57 528.90 474.71 C 525.80 473.34 526.93 477.50 528.23 478.72 C 532.07 482.73 537.02 485.41 541.59 488.48 C 549.61 493.87 558.28 498.32 567.41 501.54 C 575.36 504.37 583.54 506.87 590.86 511.18 C 603.30 518.93 613.34 530.34 619.98 543.37 C 608.30 556.02 607.69 574.37 598.45 588.41 C 595.10 593.54 591.71 599.15 586.11 602.10 C 579.91 605.43 572.84 606.45 566.04 607.90 C 553.38 610.53 540.08 610.71 528.06 615.91 C 515.76 621.05 502.47 625.03 489.00 623.90 C 480.63 623.53 472.20 623.25 464.05 621.14 C 455.40 618.83 446.42 616.98 438.66 612.32 C 432.08 608.60 425.12 605.49 418.98 601.03 C 414.17 597.48 408.62 594.89 404.47 590.49 C 397.11 583.23 388.19 576.82 384.07 566.98 C 380.91 560.46 381.75 552.97 379.63 546.17 C 377.74 539.64 373.39 534.14 371.67 527.54 C 370.18 521.80 370.67 515.81 371.10 509.97 C 372.16 497.97 371.51 485.82 369.11 474.01 C 368.15 468.72 366.54 463.47 366.66 458.04 C 366.96 447.38 372.96 437.74 372.80 427.02 C 372.46 417.35 369.76 407.97 367.18 398.71 C 364.72 390.23 365.04 381.30 365.36 372.58 C 366.88 359.45 368.11 346.19 366.94 332.98 C 366.12 320.78 363.40 308.83 360.98 296.87 C 360.06 293.49 359.72 289.20 356.13 287.51 C 356.00 291.43 356.66 295.31 357.34 299.16 C 359.63 312.00 360.71 325.02 361.65 338.02 C 357.87 332.35 353.76 326.89 349.06 321.96 C 345.68 318.52 342.53 314.23 337.49 313.27 C 339.78 316.39 342.57 319.08 345.08 322.01 C 350.00 327.58 353.60 334.12 357.67 340.29 C 359.45 343.29 361.85 346.31 361.68 349.98 C 361.65 359.43 359.91 368.76 359.75 378.19 C 355.23 372.36 348.22 369.58 341.94 366.16 C 333.39 361.54 324.59 357.16 317.14 350.84 C 304.14 339.82 295.08 324.40 291.34 307.81 C 293.22 304.32 295.23 300.86 297.79 297.82 C 302.05 292.66 307.70 288.93 312.89 284.80 C 324.67 275.42 336.81 266.36 350.07 259.16 C 358.76 254.14 367.58 248.85 374.15 241.11 C 377.86 237.05 379.96 231.74 384.05 228.01 C 389.57 222.77 397.17 220.74 403.17 216.21 C 409.35 212.01 413.99 205.95 417.42 199.39 C 419.20 196.41 420.64 192.48 424.30 191.41 M 481.65 435.16 C 481.31 441.28 484.55 446.67 486.89 452.09 C 505.08 491.14 532.22 524.89 557.52 559.44 C 561.10 564.00 564.13 569.30 569.35 572.23 C 568.18 565.59 563.23 560.65 559.90 555.06 C 545.48 534.09 532.00 512.50 517.47 491.61 C 505.71 474.62 494.92 456.96 485.41 438.61 C 484.74 436.89 483.27 435.87 481.65 435.16 M 429.57 479.67 C 430.87 484.68 434.01 488.89 437.09 492.94 C 446.82 505.44 457.54 517.11 468.21 528.80 C 473.93 535.19 479.65 541.97 482.57 550.16 C 483.88 553.59 483.85 558.21 480.59 560.55 C 476.67 563.28 471.59 563.30 467.01 563.02 C 453.89 561.81 441.22 557.95 428.67 554.17 C 423.64 552.72 418.72 550.35 413.37 550.70 C 415.98 555.22 421.41 556.25 425.89 558.06 C 437.06 561.83 448.31 565.62 459.94 567.77 C 467.50 569.04 475.98 569.97 482.84 565.80 C 487.84 562.87 489.66 556.40 488.03 551.02 C 485.85 543.43 481.15 536.85 476.16 530.85 C 461.84 514.48 446.45 499.01 433.17 481.75 C 432.35 480.52 430.85 480.17 429.57 479.67 Z" />
    </g>
    <g id="#ffffffff">
        <path fill="var(--pants-color, grey)" opacity="1.00"
            d=" M 609.19 582.15 C 616.11 588.12 623.28 593.78 630.55 599.33 C 645.21 611.63 660.44 623.40 673.41 637.54 C 679.02 644.16 685.17 650.83 687.87 659.25 C 689.28 662.74 685.85 665.42 684.03 667.98 C 674.02 678.36 661.18 685.30 648.90 692.58 C 645.45 675.12 639.29 657.84 628.26 643.67 C 617.85 630.02 607.17 616.53 595.92 603.56 C 600.98 596.86 605.88 589.94 609.19 582.15 Z" />
        <path fill="var(--pants-color, grey)" opacity="1.00"
            d=" M 414.58 606.85 C 420.94 611.05 427.44 615.06 434.19 618.60 C 442.54 622.98 451.85 624.87 460.98 626.86 C 466.38 628.22 471.90 629.09 477.45 629.61 C 480.09 643.85 484.75 657.69 486.51 672.12 C 487.16 675.51 486.63 679.31 488.87 682.21 C 490.10 680.71 491.45 679.08 491.33 677.00 C 491.57 669.23 490.12 661.53 488.88 653.88 C 487.58 645.76 485.77 637.69 482.87 629.98 C 488.93 630.23 495.04 630.97 501.09 630.11 C 510.28 628.83 519.35 626.48 527.97 623.00 C 547.62 614.35 570.38 617.19 589.81 607.86 C 601.24 621.89 612.56 636.02 623.30 650.59 C 633.01 663.58 638.16 679.25 641.72 694.90 C 642.78 700.09 643.35 705.37 644.63 710.52 C 635.89 708.48 627.14 706.39 618.76 703.13 C 604.81 697.45 590.42 692.86 575.91 688.85 C 563.96 685.29 550.93 688.96 541.12 696.22 C 532.11 702.87 523.87 710.49 514.80 717.06 C 517.07 706.86 517.29 696.37 517.84 685.98 C 518.59 674.66 517.40 663.33 516.18 652.09 C 515.65 648.57 515.50 644.89 513.99 641.61 C 513.47 641.55 512.42 641.42 511.90 641.35 C 510.85 643.81 511.47 646.53 511.48 649.11 C 512.58 668.82 511.35 688.56 509.03 708.15 C 508.20 713.14 507.06 718.07 506.00 723.02 C 499.73 726.61 493.24 729.87 486.46 732.41 C 481.22 725.65 478.21 717.53 473.79 710.25 C 468.00 700.64 461.91 691.21 456.72 681.26 C 448.73 665.85 439.46 651.17 430.80 636.15 C 424.91 626.65 420.00 616.61 414.58 606.85 Z" />
        <path fill="var(--socks-color, grey)" opacity="1.00"
            d=" M 497.26 775.17 C 511.82 757.13 523.23 736.91 535.60 717.39 C 553.88 722.26 569.83 733.72 581.98 748.01 C 589.82 757.02 595.13 767.85 599.29 778.96 C 591.29 782.96 584.70 789.10 578.31 795.25 C 568.33 803.95 558.64 813.02 548.06 821.01 C 537.45 829.11 527.46 838.07 516.09 845.14 C 510.05 848.88 504.58 853.51 498.31 856.86 C 482.16 854.81 467.67 844.32 459.85 830.19 C 456.13 823.47 454.36 815.75 454.85 808.09 C 472.33 802.50 486.35 789.52 497.26 775.17 Z" />
        <path fill="var(--socks-color, grey)" opacity="1.00"
            d=" M 651.75 772.70 C 661.08 769.08 670.74 765.83 679.11 760.21 C 683.56 770.48 688.37 780.60 693.46 790.58 C 702.39 807.42 708.56 825.62 713.35 844.03 C 715.00 852.14 717.01 861.58 711.86 868.88 C 707.58 875.14 702.69 881.48 695.86 885.08 C 690.65 887.98 684.44 886.52 679.17 884.61 C 673.99 882.80 668.56 880.39 665.32 875.76 C 657.73 864.19 648.88 853.52 640.73 842.36 C 627.59 823.89 614.63 804.99 605.84 783.99 C 621.66 782.88 636.83 777.72 651.75 772.70 Z" />
    </g>
    <g id="#4d4d4dff">
        <path fill="#4d4d4d" opacity="1.00"
            d=" M 428.42 802.49 C 436.04 801.11 444.12 802.25 451.06 805.71 C 447.38 816.15 450.82 827.55 456.43 836.62 C 465.23 850.88 480.63 861.76 497.68 862.56 C 494.15 879.36 486.16 894.73 481.25 911.10 C 479.32 917.87 478.06 924.91 478.57 931.97 C 479.38 944.99 480.38 958.48 476.06 971.04 C 473.78 970.78 471.38 970.77 469.37 969.54 C 459.68 963.95 450.48 957.39 442.55 949.47 C 436.31 943.31 430.09 936.90 426.02 929.05 C 421.71 921.29 419.50 912.57 418.54 903.80 C 416.44 884.66 410.37 866.23 408.33 847.08 C 406.89 835.98 407.62 823.74 414.60 814.49 C 418.36 809.74 422.04 803.81 428.42 802.49 Z" />
        <path fill="#4d4d4d" opacity="1.00"
            d=" M 720.17 867.67 C 724.85 872.76 730.01 877.54 736.17 880.81 C 746.85 886.53 758.92 889.27 770.97 889.77 C 780.31 890.53 790.02 889.64 798.98 892.87 C 804.97 894.81 809.14 901.56 807.70 907.77 C 807.01 910.58 804.01 911.62 801.66 912.69 C 793.17 915.98 784.72 919.48 775.91 921.86 C 765.11 924.75 754.16 927.05 743.09 928.65 C 733.11 930.09 722.98 929.85 712.99 931.21 C 704.77 932.29 696.75 934.45 688.81 936.75 C 684.21 938.05 678.39 939.10 674.63 935.36 C 667.27 928.47 665.18 918.07 663.65 908.53 C 662.19 900.01 663.24 891.38 663.84 882.84 C 669.12 888.22 676.53 890.68 683.71 892.32 C 689.17 893.57 694.82 892.27 699.71 889.71 C 705.32 887.35 709.07 882.39 712.95 877.94 C 715.71 874.78 718.05 871.28 720.17 867.67 Z" />
    </g>
</svg>