<?xml version="1.0" encoding="UTF-8" ?>
<!DOCTYPE svg PUBLIC "-//W3C//DTD SVG 1.1//EN" "http://www.w3.org/Graphics/SVG/1.1/DTD/svg11.dtd">
<svg width="1000pt" height="1000pt" viewBox="0 0 1000 1000" version="1.1" xmlns="http://www.w3.org/2000/svg">
    <g id="#020202ff">
        <path fill="#020202" opacity="1.00"
            d=" M 549.44 36.77 C 555.39 28.87 563.92 22.73 573.87 21.29 C 582.85 19.25 591.40 23.71 598.99 27.95 C 601.78 29.65 604.58 31.64 607.94 31.94 C 617.06 33.04 626.42 32.18 635.40 34.37 C 644.43 36.71 649.73 45.24 657.97 49.09 C 664.83 53.27 674.78 53.28 678.97 61.06 C 681.95 65.92 680.16 71.62 680.14 76.88 C 681.75 81.60 685.19 85.77 685.21 90.98 C 685.92 97.17 681.43 102.15 680.67 108.08 C 679.11 116.71 676.87 125.27 673.37 133.33 C 668.81 142.12 668.46 152.27 668.71 161.96 C 668.80 168.01 670.44 173.94 670.30 180.00 C 670.17 184.06 667.45 187.27 665.52 190.63 C 661.88 196.91 657.95 203.02 654.34 209.32 C 651.36 214.44 649.42 220.08 646.65 225.30 C 650.67 227.54 654.28 230.46 658.38 232.57 C 671.49 239.24 685.52 244.55 697.13 253.78 C 704.50 259.51 709.11 267.91 712.56 276.41 C 714.49 281.88 720.50 283.77 724.17 287.76 C 727.87 291.35 728.63 297.09 732.94 300.16 C 739.45 305.19 746.78 309.41 751.89 316.03 C 757.74 323.75 763.86 331.50 767.29 340.67 C 769.40 347.32 776.37 351.69 776.57 359.06 C 776.74 361.42 773.87 361.61 772.35 362.52 C 772.66 372.30 770.13 382.29 763.90 389.99 C 758.05 397.47 749.41 401.95 740.98 405.88 C 729.32 411.09 717.18 415.67 704.38 416.94 C 706.05 425.25 708.90 433.24 711.88 441.16 C 714.65 449.08 717.50 457.36 716.69 465.89 C 715.80 474.33 715.95 482.96 717.86 491.26 C 720.09 501.05 722.96 510.96 722.09 521.11 C 721.71 525.36 720.17 530.04 716.29 532.34 C 713.44 534.27 709.85 533.88 706.60 534.17 C 713.02 550.72 711.42 568.94 715.38 586.04 C 716.79 592.23 718.68 598.31 720.91 604.25 C 723.98 612.49 729.06 619.82 731.86 628.17 C 737.52 643.42 731.16 660.41 737.51 675.53 C 742.09 686.44 745.65 698.96 741.44 710.56 C 738.42 710.93 735.40 711.32 732.40 711.76 C 731.79 718.04 732.09 724.47 730.46 730.61 C 728.15 738.53 723.69 745.85 717.55 751.39 C 714.72 753.98 711.58 756.20 708.62 758.63 C 697.83 768.03 689.67 779.88 681.77 791.69 C 685.63 804.54 687.34 817.87 689.95 831.00 C 692.86 845.85 693.69 860.98 694.84 876.04 C 695.00 878.56 694.74 881.08 694.48 883.60 C 699.03 888.22 702.46 893.74 705.66 899.35 C 711.88 908.83 715.79 919.88 723.93 928.03 C 731.26 935.58 739.86 942.77 743.24 953.12 C 745.42 962.15 737.26 970.47 728.71 971.73 C 713.98 974.26 698.86 971.64 684.65 967.54 C 676.48 965.56 668.45 961.39 664.07 953.93 C 656.30 941.45 658.74 926.08 659.52 912.20 C 648.11 891.62 638.26 870.20 628.39 848.84 C 620.87 858.90 614.94 871.13 615.87 883.99 C 616.54 893.16 618.89 902.74 625.21 909.74 C 627.76 913.43 632.04 916.33 632.74 921.03 C 633.10 924.82 629.23 927.00 626.08 927.83 C 619.52 929.47 612.69 929.42 605.97 929.55 C 598.48 929.75 590.94 929.09 583.67 927.28 C 579.14 926.17 575.12 923.52 572.15 919.97 C 566.45 913.34 562.55 905.44 558.03 898.03 C 553.49 890.43 549.97 882.27 547.02 873.94 C 544.61 867.21 543.21 859.86 544.88 852.78 C 546.91 842.35 553.54 833.09 562.55 827.51 C 572.40 821.42 582.86 816.24 592.08 809.17 C 596.79 805.17 600.43 800.12 604.64 795.62 C 606.60 793.17 609.40 790.52 608.63 787.07 C 607.38 775.76 607.97 764.37 607.84 753.02 C 608.09 742.31 607.37 730.71 601.07 721.62 C 592.34 723.85 583.92 727.28 574.95 728.53 C 568.68 729.89 562.26 728.96 555.92 729.29 C 554.08 722.58 553.67 715.51 551.09 709.00 C 546.43 695.98 536.10 685.42 533.75 671.51 C 532.57 662.61 534.40 652.97 530.00 644.72 C 527.60 641.54 524.50 638.78 523.10 634.94 C 518.86 623.89 517.82 611.96 514.24 600.71 C 510.54 586.59 504.54 572.84 504.16 558.04 C 503.82 552.02 504.90 546.01 506.91 540.34 C 502.41 536.75 498.66 532.38 494.70 528.24 C 490.88 523.98 484.32 524.64 480.14 520.88 C 474.55 516.96 473.00 509.62 473.51 503.20 C 474.90 493.51 481.42 485.37 482.40 475.57 C 483.84 462.64 481.10 449.59 476.48 437.55 C 474.68 431.75 471.03 426.81 468.63 421.29 C 456.65 422.27 445.35 416.84 435.73 410.23 C 429.78 406.19 424.01 401.91 418.18 397.71 C 417.65 407.80 420.14 417.65 422.72 427.32 C 425.12 436.07 425.92 445.14 427.38 454.08 C 428.79 462.49 428.99 471.05 430.46 479.45 C 431.67 485.66 437.54 489.08 441.73 493.21 C 448.17 498.82 453.29 506.37 454.31 515.02 C 455.21 524.74 452.11 534.31 447.97 542.98 C 446.47 546.28 442.90 549.36 439.07 547.96 C 435.78 547.05 434.56 543.59 433.31 540.81 C 428.56 543.44 423.61 540.42 421.32 536.10 C 419.19 536.43 416.84 537.31 414.82 536.09 C 411.64 534.50 410.43 530.95 409.23 527.86 C 406.12 527.69 402.86 526.72 401.13 523.92 C 396.61 517.12 397.27 508.28 399.17 500.70 C 396.66 498.18 394.02 495.50 393.06 491.96 C 392.11 488.59 391.69 485.06 390.08 481.91 C 385.86 473.02 381.12 464.33 378.05 454.94 C 370.94 433.89 362.79 412.48 363.05 389.93 C 362.74 383.11 364.51 375.70 370.38 371.57 C 368.88 370.77 366.37 371.02 365.84 369.06 C 365.64 366.86 367.03 364.97 368.31 363.34 C 377.03 353.33 387.23 344.67 398.19 337.20 C 404.62 332.74 411.40 328.70 418.69 325.79 C 421.22 324.81 423.52 323.25 425.22 321.12 C 428.98 316.54 432.78 311.93 435.63 306.71 C 440.78 297.21 446.53 287.87 454.14 280.11 C 459.91 274.90 466.51 270.55 473.70 267.55 C 473.45 263.90 473.95 260.15 475.98 257.02 C 480.68 249.30 486.04 241.90 492.52 235.58 C 498.87 229.25 506.70 224.68 514.66 220.71 C 518.71 218.86 522.75 216.72 527.20 216.01 C 527.58 215.96 528.34 215.87 528.72 215.83 L 528.97 215.10 C 531.32 210.53 534.81 206.56 536.72 201.76 C 536.54 198.50 534.81 195.59 533.36 192.75 C 525.85 179.49 514.61 168.63 508.17 154.72 C 506.51 150.10 500.05 149.17 499.26 144.14 C 497.36 133.22 494.48 122.21 495.78 111.04 C 496.17 104.23 497.66 97.41 501.14 91.48 C 499.00 90.58 496.91 89.55 495.01 88.21 C 499.17 83.63 504.74 80.43 508.21 75.20 C 512.58 68.80 515.84 61.70 520.42 55.42 C 526.89 45.48 537.35 37.74 549.44 36.77 M 650.38 94.76 C 651.50 96.02 652.64 97.28 653.67 98.63 C 647.79 99.49 641.88 100.17 635.99 100.90 C 623.57 102.24 611.24 99.62 598.96 98.25 C 600.45 101.17 602.40 103.86 604.96 105.94 C 608.58 109.32 613.51 111.09 616.55 115.13 C 602.75 120.15 587.67 121.08 573.24 118.65 C 573.62 121.83 574.52 125.22 573.29 128.33 C 571.79 131.65 568.75 133.97 567.27 137.30 C 565.72 140.54 566.33 144.25 565.46 147.65 C 564.97 149.55 562.89 150.25 561.50 151.35 C 560.79 154.07 561.40 157.52 559.12 159.56 C 557.66 159.39 556.33 158.74 555.29 157.74 C 550.59 153.42 546.20 148.46 540.27 145.80 C 538.38 145.05 535.43 143.62 534.53 146.35 C 532.72 151.57 534.04 157.27 535.34 162.46 C 537.35 171.43 545.32 177.76 553.54 180.92 C 552.49 182.78 551.19 184.48 549.71 186.02 C 550.48 188.62 551.63 191.55 550.02 194.09 C 546.62 200.00 542.11 205.34 539.86 211.88 C 538.50 216.16 535.44 219.59 531.61 221.85 C 530.37 225.80 528.56 230.21 530.77 234.18 C 533.76 242.67 542.29 246.84 548.87 252.17 C 555.62 257.35 560.06 265.44 568.13 268.85 C 575.22 271.58 582.24 275.48 590.08 275.18 C 594.94 274.90 599.98 273.91 604.06 271.09 C 607.54 268.47 609.68 264.55 611.82 260.85 C 615.25 255.11 615.31 248.11 618.47 242.24 C 614.00 242.16 609.47 241.86 605.18 240.58 C 600.14 238.85 596.22 235.10 591.88 232.17 C 587.15 228.71 581.79 225.66 578.73 220.46 C 585.03 223.80 591.25 227.29 597.70 230.35 C 606.31 234.79 616.51 238.51 626.16 235.30 C 634.35 233.01 640.56 226.33 644.23 218.88 C 639.77 217.03 635.16 215.44 630.96 213.04 C 629.10 212.18 628.79 210.13 628.40 208.35 C 627.40 207.71 626.39 207.09 625.49 206.33 C 624.10 204.79 625.94 202.01 627.86 202.92 C 634.65 205.18 641.12 208.28 647.82 210.77 C 651.10 204.49 654.92 198.51 658.65 192.49 C 657.38 193.72 656.32 195.12 655.10 196.38 C 651.52 195.52 647.83 194.98 644.41 193.59 C 642.11 190.26 640.68 186.39 638.43 183.01 C 642.26 184.72 646.16 186.26 649.95 188.07 C 652.57 189.51 655.59 188.25 658.38 188.15 C 658.77 188.81 659.56 190.14 659.95 190.81 C 660.12 190.12 660.30 189.43 660.49 188.75 C 657.55 183.49 654.55 178.03 653.98 171.92 C 653.42 165.34 653.74 158.20 657.48 152.53 C 659.00 150.02 661.65 148.64 663.80 146.77 C 665.45 139.81 666.45 132.67 668.94 125.93 C 671.06 120.17 671.71 114.05 671.88 107.95 C 668.95 105.45 667.75 101.57 664.93 99.03 C 660.44 96.61 655.14 96.46 650.38 94.76 M 665.03 182.29 C 665.16 172.42 662.28 162.73 663.27 152.81 C 658.09 161.93 659.51 173.65 665.03 182.29 M 501.77 233.74 C 492.83 240.90 485.83 250.18 479.91 259.90 C 478.34 262.23 478.36 265.07 478.49 267.76 C 487.61 265.51 496.54 261.92 506.08 261.90 C 510.97 262.02 516.49 261.87 520.55 265.06 C 520.01 266.14 519.16 266.63 518.01 266.51 C 511.22 266.28 504.43 266.81 497.71 267.81 C 490.73 268.83 484.11 271.79 476.99 271.98 C 472.68 271.89 468.79 273.99 465.34 276.35 C 453.94 283.35 447.05 295.31 440.75 306.71 C 438.04 312.19 434.41 317.13 430.37 321.70 C 448.36 316.60 467.56 313.97 483.55 303.60 C 485.33 302.84 487.19 300.53 489.22 301.82 C 489.21 304.58 486.68 306.20 484.76 307.73 C 463.14 323.23 434.68 321.77 411.95 334.91 C 396.78 343.44 383.66 355.11 371.72 367.67 C 376.14 368.42 380.50 369.60 384.58 371.49 C 392.90 375.26 401.47 378.68 409.02 383.91 C 419.14 390.78 429.13 397.87 439.25 404.75 C 444.79 408.62 450.84 411.85 457.33 413.81 C 463.38 415.54 470.34 415.39 475.66 411.69 C 489.15 402.58 501.04 391.02 515.78 383.81 C 519.79 382.00 524.04 378.61 528.61 380.63 C 524.71 383.55 520.24 385.56 516.15 388.19 C 509.35 392.57 502.88 397.46 496.76 402.73 C 489.35 408.96 482.29 415.87 473.47 420.11 C 479.49 430.65 484.78 441.83 486.70 453.92 C 488.47 465.82 489.20 478.63 483.79 489.76 C 480.90 497.04 475.60 505.17 479.76 513.06 C 481.33 517.96 486.70 519.11 491.09 520.12 C 500.09 521.99 502.78 532.89 510.95 536.05 C 521.64 537.67 532.37 535.33 542.98 534.13 C 558.99 532.12 575.13 531.25 591.14 529.16 C 601.64 527.78 612.12 526.14 622.69 525.35 C 614.70 522.90 607.11 519.12 598.86 517.55 C 588.42 515.99 578.02 514.17 567.50 513.27 C 553.51 511.97 539.84 508.21 526.79 503.11 C 523.92 501.76 519.78 499.79 520.34 495.98 C 522.42 492.86 526.71 493.27 529.99 493.19 C 536.47 493.59 543.16 493.66 549.35 495.84 C 549.31 496.44 549.21 497.66 549.16 498.26 C 541.91 499.15 534.52 497.57 527.20 498.26 C 534.43 501.36 541.98 503.64 549.57 505.65 C 561.18 508.79 573.30 508.94 585.09 511.05 C 593.63 512.62 602.41 513.38 610.58 516.52 C 620.36 520.11 630.32 524.54 640.99 523.85 C 652.02 522.91 663.19 522.68 674.16 524.45 C 684.77 525.84 695.28 528.19 706.01 528.63 C 708.26 528.63 710.63 528.81 712.80 528.03 C 715.77 525.66 716.20 521.52 716.32 517.98 C 716.46 505.36 710.72 493.57 710.41 480.99 C 710.18 477.74 710.63 474.16 708.75 471.30 C 707.06 468.96 704.57 467.39 702.30 465.69 C 687.95 455.23 672.49 446.40 656.67 438.38 C 642.91 430.61 629.87 421.47 617.93 411.11 C 609.40 403.10 600.15 394.50 597.17 382.75 C 596.34 379.49 595.49 375.80 597.81 372.93 C 600.28 379.30 602.16 386.07 606.49 391.52 C 616.71 404.68 630.36 414.58 644.02 423.87 C 651.22 428.95 658.87 433.32 666.74 437.27 C 682.30 445.75 697.69 454.91 711.13 466.54 C 712.12 449.21 701.12 434.26 699.67 417.28 C 694.39 417.56 688.27 415.78 686.97 409.93 C 680.74 411.68 674.18 413.51 667.69 412.17 C 664.56 411.60 661.53 409.25 661.16 405.95 C 661.10 403.75 662.38 401.84 663.22 399.89 C 659.92 399.64 655.71 399.26 654.31 395.69 C 653.01 393.28 655.09 391.00 656.13 388.96 C 653.84 388.10 650.99 387.60 649.73 385.24 C 648.28 382.91 649.64 380.27 650.42 377.99 C 647.93 376.97 644.50 376.07 644.10 372.91 C 643.74 368.77 646.85 365.34 649.56 362.58 C 656.22 356.89 664.96 352.05 674.01 353.86 C 682.40 355.28 687.75 362.54 693.99 367.59 C 694.38 367.41 695.16 367.03 695.55 366.85 C 695.19 357.12 695.68 347.22 698.91 337.95 C 701.41 330.53 704.09 322.04 711.12 317.69 C 711.77 319.34 711.71 321.16 710.74 322.68 C 703.56 335.04 700.49 349.45 700.32 363.66 C 705.74 359.84 712.37 358.57 718.90 358.85 C 723.61 353.19 729.35 347.45 737.07 346.61 C 747.66 345.80 758.50 347.84 767.94 352.81 C 765.43 350.29 763.10 347.51 761.90 344.11 C 759.90 339.58 758.31 333.48 752.64 332.46 C 742.65 331.38 733.21 335.93 723.45 336.96 C 723.30 336.48 723.01 335.51 722.86 335.02 C 726.40 332.36 730.85 331.43 735.01 330.12 C 740.93 328.29 747.18 327.27 753.38 328.11 C 750.44 323.96 747.80 319.52 744.07 316.01 C 739.30 311.30 733.24 308.20 728.25 303.78 C 725.44 301.35 724.10 297.83 722.45 294.62 C 719.74 289.05 712.77 287.33 710.03 281.79 C 707.17 275.33 704.39 268.65 699.76 263.21 C 691.30 253.54 678.92 248.99 667.83 243.15 C 659.38 239.40 651.02 235.24 644.14 228.96 C 641.31 231.84 638.51 234.81 635.17 237.11 C 631.51 239.60 627.17 240.73 622.96 241.85 C 621.49 249.59 620.74 257.74 616.71 264.69 C 614.10 269.20 611.02 273.68 606.56 276.54 C 598.04 281.90 587.02 283.04 577.61 279.45 C 571.62 277.08 565.63 274.42 560.61 270.31 C 554.10 265.22 549.28 258.28 542.49 253.52 C 537.09 249.39 530.66 245.90 527.47 239.62 C 525.81 236.35 524.24 232.80 524.49 229.05 C 524.80 225.55 526.04 222.24 526.99 218.89 C 518.06 222.86 509.53 227.80 501.77 233.74 M 722.86 359.72 C 728.30 361.54 733.60 363.79 738.79 366.26 C 740.67 367.37 743.45 368.51 743.03 371.21 C 740.42 372.19 737.93 370.57 735.53 369.72 C 728.34 366.84 721.02 362.70 712.99 363.75 C 706.77 363.90 702.28 368.74 696.63 370.63 C 699.64 373.97 702.48 377.59 704.13 381.83 C 704.81 383.13 704.72 384.53 704.24 385.90 C 703.02 385.48 702.03 384.77 701.27 383.78 C 694.86 375.55 687.25 368.32 679.19 361.74 C 674.96 358.18 668.83 357.65 663.82 359.75 C 657.62 362.33 651.13 365.90 648.31 372.36 C 652.55 374.06 657.13 373.55 661.40 372.29 C 663.90 371.04 666.10 375.00 663.55 376.30 C 660.14 378.05 655.97 378.85 653.64 382.19 C 654.53 384.27 657.10 384.21 659.03 384.35 C 662.45 384.51 665.68 383.20 669.01 382.61 C 671.07 381.82 672.31 385.68 670.41 386.43 C 666.09 388.55 661.30 390.20 658.29 394.21 C 664.02 396.03 669.72 393.70 675.14 391.97 C 677.32 391.00 679.03 394.64 676.84 395.68 C 672.36 398.29 666.89 400.65 665.37 406.14 C 672.36 409.09 679.90 406.46 686.83 404.65 C 688.62 404.32 690.72 403.25 692.38 404.58 C 693.90 406.16 692.90 408.51 693.08 410.45 C 700.97 412.18 709.10 410.32 716.85 408.65 C 729.88 404.85 742.96 400.21 753.99 392.08 C 764.20 384.32 768.29 371.08 768.88 358.72 C 759.43 353.81 748.79 350.63 738.05 351.60 C 732.11 352.22 727.38 356.17 722.86 359.72 M 368.32 383.83 C 367.03 400.97 372.43 417.62 377.37 433.80 C 380.82 443.90 383.63 454.23 388.06 463.97 C 391.02 470.34 394.28 476.58 396.76 483.16 C 398.08 486.60 397.80 490.68 400.31 493.61 C 401.75 495.55 404.03 496.82 405.10 499.04 C 404.70 503.41 402.74 507.56 403.14 512.03 C 403.37 515.70 403.32 520.40 406.86 522.62 C 411.44 521.00 411.29 512.13 417.21 512.63 C 418.75 517.15 414.13 520.72 413.53 524.97 C 413.52 527.79 415.45 529.96 417.20 531.94 C 421.09 528.76 421.50 523.26 424.90 519.75 C 425.91 518.59 428.00 519.46 427.91 521.02 C 428.12 525.18 425.92 528.92 424.23 532.57 C 425.36 534.63 427.03 536.27 429.04 537.49 C 431.73 533.79 432.86 529.24 435.40 525.48 C 436.38 523.57 439.14 525.27 438.64 526.98 C 438.48 530.27 437.25 533.37 436.09 536.42 C 437.24 539.14 438.54 541.90 440.94 543.76 C 444.11 539.53 445.55 534.39 447.48 529.54 C 449.81 522.47 450.11 514.33 446.49 507.63 C 441.85 497.68 430.38 493.08 426.08 482.95 C 423.33 474.06 423.78 464.59 422.21 455.49 C 420.51 445.75 419.51 435.87 416.83 426.33 C 414.07 415.91 411.35 405.03 413.52 394.23 C 402.12 385.28 389.08 378.85 375.95 372.88 C 371.70 374.91 368.60 379.06 368.32 383.83 M 586.90 534.44 C 570.90 536.26 554.85 537.52 538.85 539.37 C 529.35 540.73 519.76 542.56 510.13 541.59 C 508.44 549.10 508.48 556.88 509.82 564.44 C 510.28 566.58 510.27 569.23 512.37 570.54 C 516.84 573.95 521.43 577.67 527.07 578.87 C 540.63 582.22 554.60 583.46 568.48 584.58 C 568.72 584.94 569.19 585.66 569.43 586.02 C 567.63 588.22 564.54 587.77 562.02 587.95 C 551.08 587.81 540.01 587.47 529.35 584.81 C 523.38 583.37 517.92 580.40 512.91 576.94 C 515.44 584.53 517.72 592.20 519.64 599.97 C 522.12 610.34 523.29 621.03 526.63 631.20 C 527.95 635.41 530.68 639.33 534.61 641.48 C 538.48 643.61 542.68 645.07 546.53 647.26 C 564.28 657.55 579.46 672.01 591.12 688.86 C 592.05 690.18 592.57 691.68 592.68 693.34 C 588.60 690.08 585.67 685.69 581.93 682.09 C 568.84 668.68 554.43 655.99 537.26 648.10 C 539.17 655.27 538.19 662.70 538.74 670.00 C 540.42 682.86 549.88 692.63 554.37 704.44 C 557.24 711.03 558.17 718.20 558.95 725.29 C 567.56 724.50 576.28 723.99 584.61 721.43 C 595.65 717.86 606.85 714.55 617.27 709.36 C 624.67 706.05 632.19 702.91 640.05 700.88 C 653.05 697.21 666.72 697.32 679.76 693.89 C 677.68 684.84 674.77 675.87 670.21 667.74 C 666.00 659.65 662.96 651.04 659.53 642.61 C 657.06 635.13 655.37 627.06 656.56 619.19 C 658.06 613.70 660.69 608.01 665.65 604.83 C 666.26 608.36 663.35 611.00 662.34 614.15 C 659.84 620.44 661.48 627.41 662.66 633.82 C 663.98 640.96 667.71 647.32 669.59 654.30 C 669.85 643.65 674.07 633.12 681.11 625.14 C 683.69 622.42 686.64 618.98 690.84 619.65 C 689.10 622.25 686.66 624.25 684.75 626.71 C 679.19 633.60 675.59 642.17 674.84 651.00 C 674.50 666.76 683.50 680.71 684.89 696.20 C 681.43 697.97 677.55 698.63 673.93 699.99 C 675.99 703.34 676.89 707.59 680.05 710.14 C 685.27 710.98 690.38 708.76 695.41 707.64 C 701.23 705.75 707.41 706.12 713.40 706.84 C 721.94 707.90 730.53 706.65 739.10 706.72 C 740.05 696.52 737.06 686.46 732.93 677.24 C 728.04 665.82 729.63 653.14 729.46 641.07 C 729.00 630.24 723.03 620.87 718.74 611.25 C 715.63 604.21 713.26 596.86 711.39 589.40 C 706.84 571.27 708.83 551.82 701.91 534.25 C 695.82 533.85 689.81 532.80 683.83 531.66 C 670.68 529.28 657.29 529.06 643.98 528.52 C 624.85 529.25 605.85 531.87 586.90 534.44 M 629.21 710.02 C 620.86 713.07 613.20 717.73 604.67 720.33 C 611.78 730.28 613.08 743.08 612.73 754.98 C 612.99 765.91 612.19 776.89 613.70 787.77 C 622.79 780.42 633.46 775.07 644.70 771.89 C 654.28 769.42 664.75 768.37 674.21 771.94 C 673.92 757.29 674.86 742.64 674.30 728.00 C 673.56 718.93 672.18 709.85 669.41 701.17 C 655.90 703.51 642.12 705.16 629.21 710.02 M 679.49 716.30 C 680.12 726.41 680.36 736.53 680.17 746.66 C 686.11 752.27 693.59 756.07 701.49 758.09 C 706.56 752.90 713.08 749.30 717.76 743.70 C 721.62 739.23 724.36 733.80 725.64 728.03 C 726.57 722.91 726.26 717.68 726.82 712.52 C 720.51 713.27 714.18 712.87 707.89 712.30 C 698.14 711.36 689.29 717.52 679.49 716.30 M 679.95 753.87 C 679.70 764.64 679.57 775.47 680.92 786.19 C 685.70 777.56 691.29 769.36 698.04 762.14 C 691.33 761.24 685.22 758.00 679.95 753.87 M 614.40 791.87 C 615.71 798.71 616.82 805.62 618.78 812.32 C 621.64 821.19 625.19 829.81 628.68 838.45 C 638.71 861.20 649.65 883.54 660.66 905.83 C 663.56 896.58 669.18 887.68 677.59 882.57 C 681.70 879.92 686.89 879.69 691.33 881.70 C 689.27 865.06 688.50 848.26 685.13 831.81 C 682.72 820.13 681.25 808.22 677.58 796.85 C 675.71 790.46 674.89 783.82 674.43 777.21 C 669.17 775.27 663.52 774.41 657.94 775.04 C 642.28 776.68 627.09 782.54 614.40 791.87 M 588.85 817.22 C 592.17 820.19 593.88 824.54 593.96 828.96 C 594.82 836.59 593.79 845.45 599.44 851.55 C 603.65 856.62 610.84 855.68 616.45 858.02 C 618.82 852.99 622.47 848.73 626.69 845.17 C 619.75 829.23 612.51 813.11 609.96 795.77 C 603.88 803.71 598.13 812.72 588.85 817.22 M 553.94 841.94 C 548.74 849.54 548.18 859.44 550.98 868.05 C 555.35 881.53 562.18 894.11 570.21 905.75 C 574.22 911.77 577.59 919.61 585.42 921.34 C 598.97 924.08 613.28 925.69 626.84 922.08 C 625.27 918.54 622.87 915.50 620.31 912.64 C 615.40 907.12 613.11 899.91 611.52 892.85 C 609.21 882.91 610.42 872.48 613.93 862.98 C 607.60 861.82 600.15 861.78 595.67 856.40 C 588.83 848.99 589.41 838.25 588.86 828.88 C 588.88 825.42 587.56 822.18 585.61 819.39 C 574.79 826.41 561.16 830.52 553.94 841.94 M 683.46 886.66 C 677.88 888.56 674.40 893.68 671.26 898.34 C 666.37 905.54 664.29 914.33 664.39 922.96 C 664.48 929.65 664.06 936.47 665.78 943.02 C 667.71 950.96 673.67 957.58 680.89 961.21 C 694.51 966.74 709.40 968.94 724.06 967.92 C 728.29 967.42 733.14 966.56 735.92 962.99 C 738.76 958.34 738.54 952.04 735.31 947.62 C 730.30 940.44 723.06 935.23 717.60 928.41 C 711.11 921.11 707.55 911.88 702.27 903.77 C 698.77 898.28 695.76 892.40 691.38 887.54 C 689.43 885.23 686.00 885.99 683.46 886.66 Z" />
        <path fill="#020202" opacity="1.00"
            d=" M 620.55 143.81 C 628.82 142.87 637.38 141.76 645.61 143.40 C 647.12 146.22 646.46 149.91 646.25 153.05 C 644.65 155.43 641.39 154.10 639.02 154.24 C 629.59 153.02 619.98 154.11 610.62 152.32 C 609.11 150.73 609.55 148.13 610.24 146.25 C 613.21 144.23 617.13 144.53 620.55 143.81 Z" />
        <path fill="#020202" opacity="1.00"
            d=" M 672.80 259.02 C 676.16 259.88 676.71 263.52 677.40 266.36 C 679.91 278.39 681.47 290.69 681.16 303.00 C 680.98 311.35 679.12 319.60 679.43 327.97 C 679.45 333.32 680.61 338.63 680.06 343.98 C 678.41 342.17 677.09 340.04 676.72 337.60 C 674.21 324.89 675.51 311.88 675.56 299.04 C 675.66 285.64 673.16 272.39 672.80 259.02 Z" />
        <path fill="#020202" opacity="1.00"
            d=" M 478.48 365.49 C 480.89 363.40 484.11 361.63 487.25 363.38 C 484.08 366.50 480.49 369.17 477.63 372.59 C 470.07 381.30 465.90 392.38 463.30 403.48 C 459.48 401.37 460.10 396.53 460.95 392.95 C 463.70 382.25 470.06 372.59 478.48 365.49 Z" />
        <path fill="#020202" opacity="1.00"
            d=" M 530.02 418.96 C 534.20 419.20 537.58 421.75 540.64 424.36 C 547.21 429.94 554.50 434.58 561.66 439.35 C 568.77 444.11 576.81 447.11 584.61 450.52 C 608.72 461.32 634.50 467.54 659.99 474.13 C 667.22 476.04 674.95 476.49 681.70 479.91 C 680.64 482.72 677.40 481.55 675.18 481.37 C 651.41 477.66 628.11 471.30 605.24 463.92 C 593.15 459.81 581.60 454.35 569.96 449.16 C 562.36 445.80 555.85 440.58 549.14 435.77 C 542.09 430.95 536.75 424.18 530.02 418.96 Z" />
        <path fill="#020202" opacity="1.00"
            d=" M 516.50 549.28 C 517.94 549.41 519.36 549.68 520.76 550.10 C 532.63 553.85 544.55 557.76 556.95 559.38 C 568.89 561.41 581.25 561.81 592.66 566.21 C 599.08 568.68 605.29 571.99 610.47 576.57 C 611.67 577.80 613.60 579.69 612.14 581.45 C 610.55 582.14 609.38 580.48 608.15 579.83 C 599.05 573.15 588.16 569.22 577.08 567.47 C 567.85 566.10 558.57 565.07 549.41 563.29 C 540.14 561.47 531.29 558.07 522.51 554.66 C 519.99 553.56 516.51 552.71 516.50 549.28 Z" />
    </g>
    <g id="#f0b58bff">
        <path fill="#f0b58b" opacity="1.00"
            d=" M 650.38 94.76 C 655.14 96.46 660.44 96.61 664.93 99.03 C 667.75 101.57 668.95 105.45 671.88 107.95 C 671.71 114.05 671.06 120.17 668.94 125.93 C 666.45 132.67 665.45 139.81 663.80 146.77 C 661.65 148.64 659.00 150.02 657.48 152.53 C 653.74 158.20 653.42 165.34 653.98 171.92 C 654.55 178.03 657.55 183.49 660.49 188.75 C 660.30 189.43 660.12 190.12 659.95 190.81 C 659.56 190.14 658.77 188.81 658.38 188.15 C 655.59 188.25 652.57 189.51 649.95 188.07 C 646.16 186.26 642.26 184.72 638.43 183.01 C 640.68 186.39 642.11 190.26 644.41 193.59 C 647.83 194.98 651.52 195.52 655.10 196.38 C 656.32 195.12 657.38 193.72 658.65 192.49 C 654.92 198.51 651.10 204.49 647.82 210.77 C 641.12 208.28 634.65 205.18 627.86 202.92 C 625.94 202.01 624.10 204.79 625.49 206.33 C 626.39 207.09 627.40 207.71 628.40 208.35 C 628.79 210.13 629.10 212.18 630.96 213.04 C 635.16 215.44 639.77 217.03 644.23 218.88 C 640.56 226.33 634.35 233.01 626.16 235.30 C 616.51 238.51 606.31 234.79 597.70 230.35 C 591.25 227.29 585.03 223.80 578.73 220.46 C 581.79 225.66 587.15 228.71 591.88 232.17 C 596.22 235.10 600.14 238.85 605.18 240.58 C 609.47 241.86 614.00 242.16 618.47 242.24 C 615.31 248.11 615.25 255.11 611.82 260.85 C 609.68 264.55 607.54 268.47 604.06 271.09 C 599.98 273.91 594.94 274.90 590.08 275.18 C 582.24 275.48 575.22 271.58 568.13 268.85 C 560.06 265.44 555.62 257.35 548.87 252.17 C 542.29 246.84 533.76 242.67 530.77 234.18 C 528.56 230.21 530.37 225.80 531.61 221.85 C 535.44 219.59 538.50 216.16 539.86 211.88 C 542.11 205.34 546.62 200.00 550.02 194.09 C 551.63 191.55 550.48 188.62 549.71 186.02 C 551.19 184.48 552.49 182.78 553.54 180.92 C 545.32 177.76 537.35 171.43 535.34 162.46 C 534.04 157.27 532.72 151.57 534.53 146.35 C 535.43 143.62 538.38 145.05 540.27 145.80 C 546.20 148.46 550.59 153.42 555.29 157.74 C 556.33 158.74 557.66 159.39 559.12 159.56 C 561.40 157.52 560.79 154.07 561.50 151.35 C 562.89 150.25 564.97 149.55 565.46 147.65 C 566.33 144.25 565.72 140.54 567.27 137.30 C 568.75 133.97 571.79 131.65 573.29 128.33 C 574.52 125.22 573.62 121.83 573.24 118.65 C 587.67 121.08 602.75 120.15 616.55 115.13 C 613.51 111.09 608.58 109.32 604.96 105.94 C 602.40 103.86 600.45 101.17 598.96 98.25 C 611.24 99.62 623.57 102.24 635.99 100.90 C 641.88 100.17 647.79 99.49 653.67 98.63 C 652.64 97.28 651.50 96.02 650.38 94.76 M 620.55 143.81 C 617.13 144.53 613.21 144.23 610.24 146.25 C 609.55 148.13 609.11 150.73 610.62 152.32 C 619.98 154.11 629.59 153.02 639.02 154.24 C 641.39 154.10 644.65 155.43 646.25 153.05 C 646.46 149.91 647.12 146.22 645.61 143.40 C 637.38 141.76 628.82 142.87 620.55 143.81 Z" />
        <path fill="#f0b58b" opacity="1.00"
            d=" M 665.03 182.29 C 659.51 173.65 658.09 161.93 663.27 152.81 C 662.28 162.73 665.16 172.42 665.03 182.29 Z" />
        <path fill="#f0b58b" opacity="1.00"
            d=" M 722.86 359.72 C 727.38 356.17 732.11 352.22 738.05 351.60 C 748.79 350.63 759.43 353.81 768.88 358.72 C 768.29 371.08 764.20 384.32 753.99 392.08 C 742.96 400.21 729.88 404.85 716.85 408.65 C 709.10 410.32 700.97 412.18 693.08 410.45 C 692.90 408.51 693.90 406.16 692.38 404.58 C 690.72 403.25 688.62 404.32 686.83 404.65 C 679.90 406.46 672.36 409.09 665.37 406.14 C 666.89 400.65 672.36 398.29 676.84 395.68 C 679.03 394.64 677.32 391.00 675.14 391.97 C 669.72 393.70 664.02 396.03 658.29 394.21 C 661.30 390.20 666.09 388.55 670.41 386.43 C 672.31 385.68 671.07 381.82 669.01 382.61 C 665.68 383.20 662.45 384.51 659.03 384.35 C 657.10 384.21 654.53 384.27 653.64 382.19 C 655.97 378.85 660.14 378.05 663.55 376.30 C 666.10 375.00 663.90 371.04 661.40 372.29 C 657.13 373.55 652.55 374.06 648.31 372.36 C 651.13 365.90 657.62 362.33 663.82 359.75 C 668.83 357.65 674.96 358.18 679.19 361.74 C 687.25 368.32 694.86 375.55 701.27 383.78 C 702.03 384.77 703.02 385.48 704.24 385.90 C 704.72 384.53 704.81 383.13 704.13 381.83 C 702.48 377.59 699.64 373.97 696.63 370.63 C 702.28 368.74 706.77 363.90 712.99 363.75 C 721.02 362.70 728.34 366.84 735.53 369.72 C 737.93 370.57 740.42 372.19 743.03 371.21 C 743.45 368.51 740.67 367.37 738.79 366.26 C 733.60 363.79 728.30 361.54 722.86 359.72 Z" />
        <path fill="#f0b58b" opacity="1.00"
            d=" M 368.32 383.83 C 368.60 379.06 371.70 374.91 375.95 372.88 C 389.08 378.85 402.12 385.28 413.52 394.23 C 411.35 405.03 414.07 415.91 416.83 426.33 C 419.51 435.87 420.51 445.75 422.21 455.49 C 423.78 464.59 423.33 474.06 426.08 482.95 C 430.38 493.08 441.85 497.68 446.49 507.63 C 450.11 514.33 449.81 522.47 447.48 529.54 C 445.55 534.39 444.11 539.53 440.94 543.76 C 438.54 541.90 437.24 539.14 436.09 536.42 C 437.25 533.37 438.48 530.27 438.64 526.98 C 439.14 525.27 436.38 523.57 435.40 525.48 C 432.86 529.24 431.73 533.79 429.04 537.49 C 427.03 536.27 425.36 534.63 424.23 532.57 C 425.92 528.92 428.12 525.18 427.91 521.02 C 428.00 519.46 425.91 518.59 424.90 519.75 C 421.50 523.26 421.09 528.76 417.20 531.94 C 415.45 529.96 413.52 527.79 413.53 524.97 C 414.13 520.72 418.75 517.15 417.21 512.63 C 411.29 512.13 411.44 521.00 406.86 522.62 C 403.32 520.40 403.37 515.70 403.14 512.03 C 402.74 507.56 404.70 503.41 405.10 499.04 C 404.03 496.82 401.75 495.55 400.31 493.61 C 397.80 490.68 398.08 486.60 396.76 483.16 C 394.28 476.58 391.02 470.34 388.06 463.97 C 383.63 454.23 380.82 443.90 377.37 433.80 C 372.43 417.62 367.03 400.97 368.32 383.83 Z" />
        <path fill="#f0b58b" opacity="1.00"
            d=" M 629.21 710.02 C 642.12 705.16 655.90 703.51 669.41 701.17 C 672.18 709.85 673.56 718.93 674.30 728.00 C 674.86 742.64 673.92 757.29 674.21 771.94 C 664.75 768.37 654.28 769.42 644.70 771.89 C 633.46 775.07 622.79 780.42 613.70 787.77 C 612.19 776.89 612.99 765.91 612.73 754.98 C 613.08 743.08 611.78 730.28 604.67 720.33 C 613.20 717.73 620.86 713.07 629.21 710.02 Z" />
        <path fill="#f0b58b" opacity="1.00"
            d=" M 679.49 716.30 C 689.29 717.52 698.14 711.36 707.89 712.30 C 714.18 712.87 720.51 713.27 726.82 712.52 C 726.26 717.68 726.57 722.91 725.64 728.03 C 724.36 733.80 721.62 739.23 717.76 743.70 C 713.08 749.30 706.56 752.90 701.49 758.09 C 693.59 756.07 686.11 752.27 680.17 746.66 C 680.36 736.53 680.12 726.41 679.49 716.30 Z" />
    </g>
    <g id="#f11b27ff">
        <path fill="var(--shirt-color, grey)" opacity="1.00"
            d=" M 501.77 233.74 C 509.53 227.80 518.06 222.86 526.99 218.89 C 526.04 222.24 524.80 225.55 524.49 229.05 C 524.24 232.80 525.81 236.35 527.47 239.62 C 530.66 245.90 537.09 249.39 542.49 253.52 C 549.28 258.28 554.10 265.22 560.61 270.31 C 565.63 274.42 571.62 277.08 577.61 279.45 C 587.02 283.04 598.04 281.90 606.56 276.54 C 611.02 273.68 614.10 269.20 616.71 264.69 C 620.74 257.74 621.49 249.59 622.96 241.85 C 627.17 240.73 631.51 239.60 635.17 237.11 C 638.51 234.81 641.31 231.84 644.14 228.96 C 651.02 235.24 659.38 239.40 667.83 243.15 C 678.92 248.99 691.30 253.54 699.76 263.21 C 704.39 268.65 707.17 275.33 710.03 281.79 C 712.77 287.33 719.74 289.05 722.45 294.62 C 724.10 297.83 725.44 301.35 728.25 303.78 C 733.24 308.20 739.30 311.30 744.07 316.01 C 747.80 319.52 750.44 323.96 753.38 328.11 C 747.18 327.27 740.93 328.29 735.01 330.12 C 730.85 331.43 726.40 332.36 722.86 335.02 C 723.01 335.51 723.30 336.48 723.45 336.96 C 733.21 335.93 742.65 331.38 752.64 332.46 C 758.31 333.48 759.90 339.58 761.90 344.11 C 763.10 347.51 765.43 350.29 767.94 352.81 C 758.50 347.84 747.66 345.80 737.07 346.61 C 729.35 347.45 723.61 353.19 718.90 358.85 C 712.37 358.57 705.74 359.84 700.32 363.66 C 700.49 349.45 703.56 335.04 710.74 322.68 C 711.71 321.16 711.77 319.34 711.12 317.69 C 704.09 322.04 701.41 330.53 698.91 337.95 C 695.68 347.22 695.19 357.12 695.55 366.85 C 695.16 367.03 694.38 367.41 693.99 367.59 C 687.75 362.54 682.40 355.28 674.01 353.86 C 664.96 352.05 656.22 356.89 649.56 362.58 C 646.85 365.34 643.74 368.77 644.10 372.91 C 644.50 376.07 647.93 376.97 650.42 377.99 C 649.64 380.27 648.28 382.91 649.73 385.24 C 650.99 387.60 653.84 388.10 656.13 388.96 C 655.09 391.00 653.01 393.28 654.31 395.69 C 655.71 399.26 659.92 399.64 663.22 399.89 C 662.38 401.84 661.10 403.75 661.16 405.95 C 661.53 409.25 664.56 411.60 667.69 412.17 C 674.18 413.51 680.74 411.68 686.97 409.93 C 688.27 415.78 694.39 417.56 699.67 417.28 C 701.12 434.26 712.12 449.21 711.13 466.54 C 697.69 454.91 682.30 445.75 666.74 437.27 C 658.87 433.32 651.22 428.95 644.02 423.87 C 630.36 414.58 616.71 404.68 606.49 391.52 C 602.16 386.07 600.28 379.30 597.81 372.93 C 595.49 375.80 596.34 379.49 597.17 382.75 C 600.15 394.50 609.40 403.10 617.93 411.11 C 629.87 421.47 642.91 430.61 656.67 438.38 C 672.49 446.40 687.95 455.23 702.30 465.69 C 704.57 467.39 707.06 468.96 708.75 471.30 C 710.63 474.16 710.18 477.74 710.41 480.99 C 710.72 493.57 716.46 505.36 716.32 517.98 C 716.20 521.52 715.77 525.66 712.80 528.03 C 710.63 528.81 708.26 528.63 706.01 528.63 C 695.28 528.19 684.77 525.84 674.16 524.45 C 663.19 522.68 652.02 522.91 640.99 523.85 C 630.32 524.54 620.36 520.11 610.58 516.52 C 602.41 513.38 593.63 512.62 585.09 511.05 C 573.30 508.94 561.18 508.79 549.57 505.65 C 541.98 503.64 534.43 501.36 527.20 498.26 C 534.52 497.57 541.91 499.15 549.16 498.26 C 549.21 497.66 549.31 496.44 549.35 495.84 C 543.16 493.66 536.47 493.59 529.99 493.19 C 526.71 493.27 522.42 492.86 520.34 495.98 C 519.78 499.79 523.92 501.76 526.79 503.11 C 539.84 508.21 553.51 511.97 567.50 513.27 C 578.02 514.17 588.42 515.99 598.86 517.55 C 607.11 519.12 614.70 522.90 622.69 525.35 C 612.12 526.14 601.64 527.78 591.14 529.16 C 575.13 531.25 558.99 532.12 542.98 534.13 C 532.37 535.33 521.64 537.67 510.95 536.05 C 502.78 532.89 500.09 521.99 491.09 520.12 C 486.70 519.11 481.33 517.96 479.76 513.06 C 475.60 505.17 480.90 497.04 483.79 489.76 C 489.20 478.63 488.47 465.82 486.70 453.92 C 484.78 441.83 479.49 430.65 473.47 420.11 C 482.29 415.87 489.35 408.96 496.76 402.73 C 502.88 397.46 509.35 392.57 516.15 388.19 C 520.24 385.56 524.71 383.55 528.61 380.63 C 524.04 378.61 519.79 382.00 515.78 383.81 C 501.04 391.02 489.15 402.58 475.66 411.69 C 470.34 415.39 463.38 415.54 457.33 413.81 C 450.84 411.85 444.79 408.62 439.25 404.75 C 429.13 397.87 419.14 390.78 409.02 383.91 C 401.47 378.68 392.90 375.26 384.58 371.49 C 380.50 369.60 376.14 368.42 371.72 367.67 C 383.66 355.11 396.78 343.44 411.95 334.91 C 434.68 321.77 463.14 323.23 484.76 307.73 C 486.68 306.20 489.21 304.58 489.22 301.82 C 487.19 300.53 485.33 302.84 483.55 303.60 C 467.56 313.97 448.36 316.60 430.37 321.70 C 434.41 317.13 438.04 312.19 440.75 306.71 C 447.05 295.31 453.94 283.35 465.34 276.35 C 468.79 273.99 472.68 271.89 476.99 271.98 C 484.11 271.79 490.73 268.83 497.71 267.81 C 504.43 266.81 511.22 266.28 518.01 266.51 C 519.16 266.63 520.01 266.14 520.55 265.06 C 516.49 261.87 510.97 262.02 506.08 261.90 C 496.54 261.92 487.61 265.51 478.49 267.76 C 478.36 265.07 478.34 262.23 479.91 259.90 C 485.83 250.18 492.83 240.90 501.77 233.74 M 672.80 259.02 C 673.16 272.39 675.66 285.64 675.56 299.04 C 675.51 311.88 674.21 324.89 676.72 337.60 C 677.09 340.04 678.41 342.17 680.06 343.98 C 680.61 338.63 679.45 333.32 679.43 327.97 C 679.12 319.60 680.98 311.35 681.16 303.00 C 681.47 290.69 679.91 278.39 677.40 266.36 C 676.71 263.52 676.16 259.88 672.80 259.02 M 478.48 365.49 C 470.06 372.59 463.70 382.25 460.95 392.95 C 460.10 396.53 459.48 401.37 463.30 403.48 C 465.90 392.38 470.07 381.30 477.63 372.59 C 480.49 369.17 484.08 366.50 487.25 363.38 C 484.11 361.63 480.89 363.40 478.48 365.49 M 530.02 418.96 C 536.75 424.18 542.09 430.95 549.14 435.77 C 555.85 440.58 562.36 445.80 569.96 449.16 C 581.60 454.35 593.15 459.81 605.24 463.92 C 628.11 471.30 651.41 477.66 675.18 481.37 C 677.40 481.55 680.64 482.72 681.70 479.91 C 674.95 476.49 667.22 476.04 659.99 474.13 C 634.50 467.54 608.72 461.32 584.61 450.52 C 576.81 447.11 568.77 444.11 561.66 439.35 C 554.50 434.58 547.21 429.94 540.64 424.36 C 537.58 421.75 534.20 419.20 530.02 418.96 Z" />
    </g>
    <g id="#ffffffff">
        <path fill="var(--pants-color, grey)" opacity="1.00"
            d=" M 586.90 534.44 C 605.85 531.87 624.85 529.25 643.98 528.52 C 657.29 529.06 670.68 529.28 683.83 531.66 C 689.81 532.80 695.82 533.85 701.91 534.25 C 708.83 551.82 706.84 571.27 711.39 589.40 C 713.26 596.86 715.63 604.21 718.74 611.25 C 723.03 620.87 729.00 630.24 729.46 641.07 C 729.63 653.14 728.04 665.82 732.93 677.24 C 737.06 686.46 740.05 696.52 739.10 706.72 C 730.53 706.65 721.94 707.90 713.40 706.84 C 707.41 706.12 701.23 705.75 695.41 707.64 C 690.38 708.76 685.27 710.98 680.05 710.14 C 676.89 707.59 675.99 703.34 673.93 699.99 C 677.55 698.63 681.43 697.97 684.89 696.20 C 683.50 680.71 674.50 666.76 674.84 651.00 C 675.59 642.17 679.19 633.60 684.75 626.71 C 686.66 624.25 689.10 622.25 690.84 619.65 C 686.64 618.98 683.69 622.42 681.11 625.14 C 674.07 633.12 669.85 643.65 669.59 654.30 C 667.71 647.32 663.98 640.96 662.66 633.82 C 661.48 627.41 659.84 620.44 662.34 614.15 C 663.35 611.00 666.26 608.36 665.65 604.83 C 660.69 608.01 658.06 613.70 656.56 619.19 C 655.37 627.06 657.06 635.13 659.53 642.61 C 662.96 651.04 666.00 659.65 670.21 667.74 C 674.77 675.87 677.68 684.84 679.76 693.89 C 666.72 697.32 653.05 697.21 640.05 700.88 C 632.19 702.91 624.67 706.05 617.27 709.36 C 606.85 714.55 595.65 717.86 584.61 721.43 C 576.28 723.99 567.56 724.50 558.95 725.29 C 558.17 718.20 557.24 711.03 554.37 704.44 C 549.88 692.63 540.42 682.86 538.74 670.00 C 538.19 662.70 539.17 655.27 537.26 648.10 C 554.43 655.99 568.84 668.68 581.93 682.09 C 585.67 685.69 588.60 690.08 592.68 693.34 C 592.57 691.68 592.05 690.18 591.12 688.86 C 579.46 672.01 564.28 657.55 546.53 647.26 C 542.68 645.07 538.48 643.61 534.61 641.48 C 530.68 639.33 527.95 635.41 526.63 631.20 C 523.29 621.03 522.12 610.34 519.64 599.97 C 517.72 592.20 515.44 584.53 512.91 576.94 C 517.92 580.40 523.38 583.37 529.35 584.81 C 540.01 587.47 551.08 587.81 562.02 587.95 C 564.54 587.77 567.63 588.22 569.43 586.02 C 569.19 585.66 568.72 584.94 568.48 584.58 C 554.60 583.46 540.63 582.22 527.07 578.87 C 521.43 577.67 516.84 573.95 512.37 570.54 C 510.27 569.23 510.28 566.58 509.82 564.44 C 508.48 556.88 508.44 549.10 510.13 541.59 C 519.76 542.56 529.35 540.73 538.85 539.37 C 554.85 537.52 570.90 536.26 586.90 534.44 M 516.50 549.28 C 516.51 552.71 519.99 553.56 522.51 554.66 C 531.29 558.07 540.14 561.47 549.41 563.29 C 558.57 565.07 567.85 566.10 577.08 567.47 C 588.16 569.22 599.05 573.15 608.15 579.83 C 609.38 580.48 610.55 582.14 612.14 581.45 C 613.60 579.69 611.67 577.80 610.47 576.57 C 605.29 571.99 599.08 568.68 592.66 566.21 C 581.25 561.81 568.89 561.41 556.95 559.38 C 544.55 557.76 532.63 553.85 520.76 550.10 C 519.36 549.68 517.94 549.41 516.50 549.28 Z" />
        <path fill="var(--socks-color, grey)" opacity="1.00"
            d=" M 679.95 753.87 C 685.22 758.00 691.33 761.24 698.04 762.14 C 691.29 769.36 685.70 777.56 680.92 786.19 C 679.57 775.47 679.70 764.64 679.95 753.87 Z" />
        <path fill="var(--socks-color, grey)" opacity="1.00"
            d=" M 614.40 791.87 C 627.09 782.54 642.28 776.68 657.94 775.04 C 663.52 774.41 669.17 775.27 674.43 777.21 C 674.89 783.82 675.71 790.46 677.58 796.85 C 681.25 808.22 682.72 820.13 685.13 831.81 C 688.50 848.26 689.27 865.06 691.33 881.70 C 686.89 879.69 681.70 879.92 677.59 882.57 C 669.18 887.68 663.56 896.58 660.66 905.83 C 649.65 883.54 638.71 861.20 628.68 838.45 C 625.19 829.81 621.64 821.19 618.78 812.32 C 616.82 805.62 615.71 798.71 614.40 791.87 Z" />
        <path fill="var(--socks-color, grey)" opacity="1.00"
            d=" M 588.85 817.22 C 598.13 812.72 603.88 803.71 609.96 795.77 C 612.51 813.11 619.75 829.23 626.69 845.17 C 622.47 848.73 618.82 852.99 616.45 858.02 C 610.84 855.68 603.65 856.62 599.44 851.55 C 593.79 845.45 594.82 836.59 593.96 828.96 C 593.88 824.54 592.17 820.19 588.85 817.22 Z" />
    </g>
    <g id="#4d4d4dff">
        <path fill="#4d4d4d" opacity="1.00"
            d=" M 553.94 841.94 C 561.16 830.52 574.79 826.41 585.61 819.39 C 587.56 822.18 588.88 825.42 588.86 828.88 C 589.41 838.25 588.83 848.99 595.67 856.40 C 600.15 861.78 607.60 861.82 613.93 862.98 C 610.42 872.48 609.21 882.91 611.52 892.85 C 613.11 899.91 615.40 907.12 620.31 912.64 C 622.87 915.50 625.27 918.54 626.84 922.08 C 613.28 925.69 598.97 924.08 585.42 921.34 C 577.59 919.61 574.22 911.77 570.21 905.75 C 562.18 894.11 555.35 881.53 550.98 868.05 C 548.18 859.44 548.74 849.54 553.94 841.94 Z" />
        <path fill="#4d4d4d" opacity="1.00"
            d=" M 683.46 886.66 C 686.00 885.99 689.43 885.23 691.38 887.54 C 695.76 892.40 698.77 898.28 702.27 903.77 C 707.55 911.88 711.11 921.11 717.60 928.41 C 723.06 935.23 730.30 940.44 735.31 947.62 C 738.54 952.04 738.76 958.34 735.92 962.99 C 733.14 966.56 728.29 967.42 724.06 967.92 C 709.40 968.94 694.51 966.74 680.89 961.21 C 673.67 957.58 667.71 950.96 665.78 943.02 C 664.06 936.47 664.48 929.65 664.39 922.96 C 664.29 914.33 666.37 905.54 671.26 898.34 C 674.40 893.68 677.88 888.56 683.46 886.66 Z" />
    </g>
</svg>