<?xml version="1.0" encoding="UTF-8" ?>
<!DOCTYPE svg PUBLIC "-//W3C//DTD SVG 1.1//EN" "http://www.w3.org/Graphics/SVG/1.1/DTD/svg11.dtd">
<svg width="1000pt" height="1000pt" viewBox="0 0 1000 1000" version="1.1" xmlns="http://www.w3.org/2000/svg">
    <g id="#020202ff">
        <path fill="#020202" opacity="1.00"
            d=" M 691.67 40.89 C 699.61 38.17 708.13 36.26 716.54 37.76 C 728.17 39.83 738.34 46.50 747.71 53.37 C 751.03 55.35 755.17 55.08 758.80 56.30 C 769.39 58.67 779.35 64.39 786.03 73.03 C 788.33 75.93 788.75 79.96 791.51 82.53 C 798.50 88.86 802.03 98.19 803.50 107.30 C 802.00 108.62 800.16 107.25 798.54 106.97 C 803.57 113.73 804.92 123.80 799.83 130.89 C 796.91 135.09 791.63 136.36 786.87 137.07 C 785.30 145.05 781.51 152.34 777.01 159.04 C 773.91 163.99 770.16 168.67 768.28 174.27 C 766.84 178.51 768.12 183.25 766.27 187.37 C 763.31 192.31 757.50 194.46 754.15 199.07 C 747.65 207.55 742.93 217.62 734.32 224.30 C 724.67 232.15 709.96 232.17 699.87 225.12 C 698.47 226.61 697.07 228.10 695.67 229.58 C 696.94 240.13 693.81 250.48 693.84 260.99 C 693.88 268.71 693.75 276.44 694.55 284.13 C 695.27 293.71 695.26 303.70 699.50 312.55 C 701.09 316.46 704.13 320.48 702.62 324.90 C 701.79 328.98 697.42 330.48 694.23 332.26 C 708.84 331.61 723.41 333.60 738.03 332.72 C 747.37 332.06 757.40 333.58 766.05 329.18 C 776.86 323.54 779.26 309.68 789.46 303.33 C 792.63 301.34 796.56 302.13 800.08 302.35 C 805.35 302.95 810.96 303.49 815.43 306.62 C 817.99 308.38 819.51 311.29 822.09 313.01 C 825.72 314.54 830.26 314.68 832.93 317.96 C 835.16 320.62 834.44 324.31 834.47 327.51 C 837.55 329.54 841.20 331.91 841.55 335.97 C 842.08 339.40 839.41 342.26 836.46 343.50 C 828.13 347.34 818.74 345.87 809.92 347.01 C 805.07 347.46 801.64 351.17 797.90 353.83 C 792.04 358.25 784.84 360.24 777.83 361.98 C 769.14 364.12 759.91 363.80 751.55 367.30 C 732.72 374.70 712.51 377.02 692.78 380.84 C 683.41 382.59 674.00 384.22 664.50 385.15 C 661.32 396.52 651.67 404.36 647.05 415.03 C 643.69 422.66 643.57 431.58 638.38 438.42 C 633.45 444.96 628.27 451.33 623.04 457.64 C 625.43 463.30 627.10 469.60 625.79 475.75 C 624.51 480.60 621.40 484.67 618.33 488.53 C 622.22 493.03 625.18 498.35 626.39 504.22 C 631.21 504.08 636.43 503.51 640.77 506.14 C 644.11 507.87 646.55 510.82 648.64 513.88 C 655.50 516.49 660.79 521.78 665.85 526.90 C 672.72 526.89 679.79 528.43 685.40 532.60 C 692.40 537.82 698.25 544.37 704.41 550.53 C 707.95 554.05 712.38 556.56 715.69 560.33 C 721.99 568.02 725.49 578.23 723.93 588.18 C 731.73 601.11 739.35 614.28 744.50 628.54 C 747.63 636.95 750.62 645.92 749.15 655.02 C 747.50 666.39 741.21 676.21 736.14 686.28 C 733.44 691.08 734.33 696.74 734.09 702.00 C 733.68 718.78 726.84 734.37 722.60 750.37 C 716.08 774.38 710.78 798.71 704.62 822.81 C 701.71 833.56 700.11 845.09 693.69 854.48 C 698.23 859.06 704.07 861.94 709.15 865.84 C 717.88 872.41 726.03 879.72 734.48 886.64 C 744.05 893.30 756.48 893.65 766.35 899.74 C 768.80 901.33 770.87 903.90 770.96 906.94 C 771.27 912.47 767.49 917.12 763.72 920.74 C 754.79 928.55 743.98 933.93 732.81 937.74 C 726.73 939.77 720.37 941.39 713.91 940.91 C 700.46 940.05 688.71 930.86 674.95 932.12 C 663.81 933.20 653.33 939.10 641.91 937.70 C 632.97 936.68 622.99 932.12 620.00 922.97 C 616.94 910.79 621.67 898.69 625.38 887.24 C 628.53 878.30 629.44 868.75 632.81 859.89 C 634.65 845.84 638.69 832.17 639.98 818.04 C 640.91 808.99 642.21 799.99 643.88 791.06 C 646.90 774.22 647.97 757.11 651.30 740.33 C 654.66 720.13 659.51 700.22 662.93 680.04 C 664.27 672.91 664.99 665.67 666.66 658.60 C 660.70 651.49 653.79 645.24 646.54 639.49 C 639.46 633.81 631.08 629.97 624.40 623.77 C 622.75 625.96 620.80 627.90 618.44 629.32 C 609.69 618.47 596.18 613.15 582.96 610.18 C 573.54 608.26 563.44 606.96 554.15 610.13 C 550.09 611.39 547.76 615.17 545.18 618.25 C 535.31 630.40 526.94 643.76 516.17 655.17 C 510.53 661.17 503.58 666.10 495.58 668.33 C 486.20 670.88 477.20 675.16 467.35 675.68 C 459.76 689.05 452.45 702.75 442.47 714.55 C 437.84 719.99 432.50 725.22 425.69 727.79 C 421.06 729.81 415.94 730.32 411.32 732.33 C 407.06 734.58 403.42 737.78 399.55 740.61 C 392.11 746.08 384.68 751.67 378.33 758.41 C 371.93 765.33 366.06 772.77 359.08 779.14 C 347.56 790.67 334.52 800.52 322.67 811.69 C 311.41 822.44 300.90 833.93 290.33 845.36 C 284.63 851.19 278.70 857.12 271.17 860.55 C 270.71 871.02 268.24 881.30 265.15 891.28 C 262.84 900.30 262.33 909.76 263.42 919.00 C 264.53 928.38 267.66 937.50 267.57 947.01 C 267.53 953.22 264.65 959.96 258.81 962.76 C 253.85 965.01 248.23 963.37 243.44 961.49 C 230.63 955.57 219.95 945.74 211.78 934.34 C 202.91 921.32 198.91 905.78 195.57 890.59 C 192.35 877.47 188.81 864.42 185.90 851.23 C 184.36 844.58 185.36 837.45 188.40 831.38 C 191.19 826.04 197.66 824.75 203.08 823.82 C 213.16 822.31 223.16 820.15 233.35 819.56 C 246.24 804.57 258.81 789.27 270.10 773.02 C 287.32 747.44 303.76 720.79 326.48 699.60 C 334.24 692.16 343.57 686.61 353.43 682.42 C 364.70 677.52 374.08 669.30 382.49 660.51 C 387.42 654.86 390.52 647.92 393.71 641.21 C 392.44 638.56 392.49 635.64 393.25 632.86 C 397.33 614.85 407.05 598.82 412.41 581.23 C 414.60 574.32 416.46 567.32 418.57 560.39 C 420.55 553.38 422.94 546.41 423.59 539.12 C 424.57 530.14 422.13 521.02 424.36 512.14 C 428.17 496.38 438.59 483.36 449.40 471.73 C 447.27 468.70 444.55 464.98 446.12 461.10 C 447.23 457.76 450.97 456.63 453.05 454.07 C 454.25 451.90 454.42 449.37 454.96 447.00 C 456.00 441.07 458.48 435.11 463.14 431.12 C 466.05 428.64 469.78 427.51 473.36 426.38 C 471.10 416.36 474.37 406.04 479.37 397.37 C 482.83 391.73 487.30 386.52 493.04 383.10 C 497.87 380.15 503.08 377.87 508.41 375.96 C 510.92 367.11 511.54 357.86 513.81 348.96 C 516.83 337.39 523.93 327.50 531.37 318.38 C 523.70 303.58 518.09 287.80 513.40 271.83 C 511.36 264.65 509.06 257.44 508.53 249.95 C 507.96 242.52 510.87 234.55 517.02 230.09 C 522.56 226.10 528.86 223.16 535.52 221.61 C 536.97 219.27 539.19 217.52 541.99 217.20 C 555.71 214.43 569.62 211.47 582.33 205.41 C 592.57 200.33 598.08 189.31 608.41 184.39 C 618.61 179.03 630.92 179.77 641.45 183.80 C 644.65 181.58 647.94 179.50 651.23 177.40 C 646.99 172.53 644.51 166.49 642.32 160.49 C 637.79 148.20 636.91 134.72 638.72 121.81 C 636.52 121.36 634.41 120.61 632.51 119.42 C 635.17 115.49 639.23 112.23 640.04 107.31 C 642.30 96.45 640.19 84.91 644.38 74.38 C 649.40 62.42 658.82 52.30 670.42 46.51 C 677.05 43.10 684.72 43.30 691.67 40.89 M 778.28 138.19 C 774.73 145.68 771.60 153.68 765.62 159.64 C 764.48 161.04 762.60 160.91 761.00 161.01 C 759.77 165.09 758.30 169.18 755.53 172.49 C 750.69 165.60 746.32 157.78 746.04 149.16 C 741.89 152.25 737.71 155.42 734.37 159.41 C 729.05 166.03 725.08 173.59 721.40 181.22 C 718.46 173.32 721.47 165.05 723.61 157.37 C 719.27 158.48 714.85 159.68 710.98 162.00 C 707.59 164.04 705.95 167.86 703.04 170.42 C 701.82 170.01 700.77 169.32 699.90 168.33 C 697.31 171.93 694.92 175.68 692.15 179.15 C 690.05 181.84 686.67 182.94 684.21 185.20 C 684.12 187.64 685.13 190.09 684.47 192.52 C 681.47 193.32 678.70 191.39 676.61 189.47 C 673.61 186.61 670.72 183.64 667.97 180.55 C 665.46 181.57 662.80 183.07 660.01 182.28 C 658.22 181.67 656.72 180.48 655.17 179.44 C 652.61 182.17 649.71 184.54 646.61 186.63 C 653.63 191.32 660.38 196.67 668.45 199.48 C 680.12 203.14 688.88 212.99 694.07 223.73 C 695.85 222.14 697.41 219.73 699.99 219.51 C 702.61 220.12 704.64 222.09 707.11 223.10 C 715.16 226.44 725.18 225.75 732.00 220.02 C 740.80 213.08 744.46 201.96 751.81 193.80 C 754.74 190.38 759.24 188.64 761.81 184.89 C 762.50 181.00 761.73 176.91 763.00 173.10 C 764.87 167.21 768.79 162.30 772.27 157.29 C 776.99 150.85 781.29 143.97 783.76 136.32 C 781.89 136.74 778.96 135.75 778.28 138.19 M 607.74 189.75 C 596.15 197.56 591.10 211.19 582.97 221.99 C 575.66 231.58 568.76 241.56 563.40 252.39 C 558.85 261.67 556.86 271.88 553.47 281.59 C 549.86 291.46 546.70 301.53 542.20 311.06 C 539.52 316.76 534.99 321.23 531.26 326.22 C 527.00 331.86 523.00 337.78 520.37 344.36 C 516.31 354.09 516.70 364.98 512.67 374.72 C 517.17 373.28 521.71 371.93 526.18 370.38 C 533.72 367.72 541.57 365.70 548.47 361.52 C 555.86 357.08 563.14 352.32 569.50 346.45 C 571.36 344.72 573.42 343.19 575.68 342.02 C 574.80 344.45 573.49 346.72 571.66 348.56 C 565.24 355.21 558.32 361.47 550.37 366.26 C 542.54 371.27 533.45 373.59 524.80 376.73 C 513.06 380.73 500.07 382.94 490.44 391.36 C 481.12 400.00 475.42 413.02 476.80 425.80 C 490.84 423.65 503.72 417.23 515.43 409.43 C 523.67 404.09 531.97 398.79 539.72 392.74 C 542.57 390.58 545.01 387.90 548.05 385.97 C 548.33 386.48 548.90 387.50 549.19 388.01 C 547.72 392.44 543.72 395.27 540.45 398.33 C 529.43 407.61 517.53 415.91 504.95 422.94 C 497.45 426.99 489.37 429.97 480.94 431.29 C 475.51 432.43 468.98 432.50 465.27 437.29 C 460.97 442.35 461.10 449.29 459.10 455.29 C 457.86 459.12 453.74 460.44 451.07 463.01 C 449.33 466.60 453.30 469.38 455.96 471.01 C 468.99 478.59 484.34 480.49 499.06 482.22 C 512.84 483.52 526.55 486.35 539.42 491.52 C 547.62 494.81 556.10 497.37 564.74 499.20 C 571.69 500.76 578.99 501.66 585.99 499.86 C 596.57 497.26 607.67 493.60 615.23 485.31 C 618.73 481.77 622.19 477.30 621.87 472.03 C 621.61 462.43 615.82 454.20 609.79 447.18 C 603.61 440.00 600.22 430.44 600.77 420.97 C 600.66 419.03 602.32 417.91 603.52 416.69 C 604.50 422.38 604.78 428.32 607.39 433.59 C 610.59 441.28 616.87 447.01 621.13 454.06 C 625.32 446.80 630.94 440.51 635.22 433.33 C 638.50 427.35 638.55 420.30 641.18 414.08 C 645.45 403.80 653.54 395.81 659.03 386.23 C 650.37 388.11 640.68 388.77 632.70 384.25 C 624.80 379.69 620.00 371.10 618.19 362.37 C 615.94 362.23 613.59 362.39 611.50 361.42 C 609.56 353.17 614.04 345.36 614.42 337.22 C 611.29 338.23 608.14 339.42 605.67 341.65 C 600.23 346.03 597.57 352.61 594.07 358.41 C 590.87 357.35 592.42 353.60 593.15 351.33 C 595.97 342.33 603.65 334.66 613.27 333.51 C 610.63 326.25 606.90 319.48 603.34 312.65 C 602.49 311.11 601.96 309.42 601.88 307.67 C 604.27 307.05 606.01 308.94 607.39 310.59 C 613.23 317.69 617.69 326.05 619.81 335.02 C 621.75 343.09 616.76 350.48 615.79 358.32 C 619.32 357.78 622.93 357.37 626.28 356.07 C 628.72 355.09 630.23 352.80 632.03 351.00 C 641.21 340.94 654.09 334.87 667.32 332.26 C 675.92 330.62 684.63 329.40 693.08 327.01 C 695.00 326.38 697.13 325.76 698.37 324.02 C 697.82 320.36 695.35 317.43 693.91 314.11 C 689.62 305.39 689.66 295.46 689.12 285.99 C 688.10 276.70 688.59 267.35 688.79 258.03 C 689.08 248.95 692.04 240.00 690.91 230.88 C 689.91 223.16 684.65 216.94 679.42 211.56 C 673.63 205.78 665.03 204.94 658.31 200.68 C 649.93 196.23 643.26 188.46 633.63 186.57 C 625.04 184.86 615.20 184.39 607.74 189.75 M 559.85 217.55 C 553.24 219.39 546.39 220.10 539.76 221.85 C 541.35 236.41 544.76 251.48 553.82 263.36 C 558.30 248.78 566.46 235.66 575.51 223.50 C 579.60 218.26 583.41 212.81 586.81 207.10 C 578.40 211.92 569.15 214.98 559.85 217.55 M 518.56 236.49 C 513.38 242.63 514.49 251.23 516.25 258.45 C 520.97 277.48 527.02 296.22 534.97 314.17 C 539.60 307.38 542.14 299.51 545.15 291.94 C 548.27 284.27 550.11 276.19 552.38 268.25 C 541.60 256.75 538.02 240.75 535.82 225.63 C 529.76 228.66 523.30 231.51 518.56 236.49 M 787.63 310.57 C 781.86 317.21 778.59 326.05 771.22 331.25 C 765.14 335.71 757.36 336.76 750.01 336.82 C 738.05 336.83 726.05 337.85 714.12 336.69 C 706.42 335.89 698.55 336.75 691.01 334.72 C 686.88 333.32 682.79 335.33 678.73 335.91 C 669.89 337.42 660.87 338.81 652.75 342.81 C 645.48 346.06 639.30 351.21 633.77 356.84 C 631.25 359.58 627.72 360.92 624.13 361.57 C 626.41 369.69 631.13 378.60 639.93 380.84 C 647.53 382.49 655.46 382.43 663.11 381.09 C 681.21 379.10 699.02 375.22 716.94 372.07 C 724.95 370.70 732.86 368.72 740.63 366.35 C 747.75 364.22 754.53 360.81 761.98 359.93 C 771.85 358.69 781.91 357.19 790.97 352.86 C 796.85 349.98 801.00 343.97 807.70 342.76 C 817.06 340.97 827.38 343.75 836.11 339.05 C 838.65 337.83 837.88 334.47 836.03 333.01 C 829.65 327.39 820.81 326.69 813.13 323.85 C 819.46 322.14 825.96 324.69 832.03 326.38 C 831.48 324.46 831.36 322.36 830.34 320.62 C 827.31 317.44 822.24 318.63 818.82 316.19 C 816.06 313.95 814.46 310.36 811.03 308.99 C 805.94 306.87 800.29 306.70 794.86 306.32 C 791.78 306.03 789.56 308.57 787.63 310.57 M 452.36 474.01 C 447.67 478.55 443.97 483.95 440.22 489.26 C 435.30 496.48 431.19 504.42 429.28 513.00 C 428.01 518.61 428.61 524.38 429.03 530.06 C 429.64 538.15 428.36 546.27 426.16 554.05 C 421.27 570.19 417.39 586.73 410.16 602.06 C 404.71 613.42 400.33 625.25 396.59 637.27 C 407.34 639.16 415.54 646.87 424.27 652.79 C 435.81 661.23 449.24 668.76 463.99 668.27 C 473.56 668.49 482.46 664.73 491.56 662.40 C 495.95 660.97 500.41 659.60 504.57 657.55 C 509.10 654.50 512.66 650.27 516.20 646.16 C 531.43 627.88 543.83 606.42 564.01 592.94 C 565.81 591.74 569.60 589.65 570.31 593.01 C 565.93 597.23 560.89 600.74 556.74 605.23 C 568.51 602.46 580.87 604.13 592.36 607.42 C 601.98 610.33 611.59 614.57 618.62 621.98 C 630.12 601.88 648.53 584.95 670.95 578.15 C 686.75 573.38 704.43 574.55 719.14 582.22 C 718.10 576.30 716.14 570.47 712.57 565.58 C 709.67 561.40 704.96 559.14 701.36 555.68 C 694.52 549.13 688.57 541.57 680.83 536.03 C 676.87 533.07 671.74 532.76 666.99 532.73 C 656.11 532.59 645.83 537.09 636.85 542.89 C 624.98 550.76 613.81 559.87 600.79 565.84 C 598.80 566.85 596.55 566.95 594.38 566.78 C 595.98 565.14 597.91 563.90 599.93 562.84 C 611.08 556.72 620.59 548.15 631.24 541.26 C 640.30 534.83 650.74 530.73 661.33 527.58 C 656.79 524.42 652.80 519.39 647.01 518.83 C 640.11 519.84 634.62 524.85 627.99 526.78 C 625.57 525.89 627.06 523.55 628.54 522.71 C 633.59 519.25 638.69 515.53 644.73 514.00 C 642.09 511.90 639.34 509.70 635.98 508.98 C 632.35 508.12 628.68 509.50 625.04 509.03 C 622.62 508.68 621.37 506.31 621.21 504.09 C 620.64 499.33 617.91 495.28 615.14 491.54 C 606.51 499.28 595.20 503.30 583.99 505.50 C 576.32 507.09 568.53 505.39 561.03 503.76 C 552.79 501.95 544.73 499.42 536.93 496.21 C 527.97 492.53 518.54 490.13 509.01 488.52 C 498.68 486.97 488.21 486.17 478.04 483.65 C 469.06 481.77 460.12 479.03 452.36 474.01 M 663.30 587.40 C 648.03 594.28 635.71 606.39 626.42 620.13 C 635.11 626.71 645.27 631.12 653.42 638.44 C 663.66 647.37 674.36 657.52 677.59 671.23 L 676.00 671.99 C 673.51 669.09 671.73 665.67 669.59 662.53 C 669.32 667.57 668.81 672.59 668.22 677.61 C 673.58 680.77 679.41 683.01 685.32 684.90 C 697.23 688.55 709.52 691.46 722.02 691.77 C 724.36 691.54 728.23 692.09 728.89 689.04 C 733.10 677.41 741.40 667.41 743.55 655.01 C 745.01 646.93 742.23 638.98 739.52 631.48 C 736.05 621.75 731.44 612.48 726.50 603.43 C 722.86 596.96 719.23 590.16 713.65 585.18 C 697.52 578.83 678.90 580.08 663.30 587.40 M 398.88 642.31 C 396.57 649.00 393.37 655.42 389.17 661.13 C 384.53 667.20 378.84 672.38 373.08 677.36 C 372.76 691.75 378.87 705.88 388.78 716.18 C 394.11 721.50 400.51 726.49 407.96 728.19 C 417.05 726.70 426.57 723.92 433.16 717.10 C 445.20 705.09 452.71 689.63 461.94 675.55 C 452.84 673.40 443.58 671.26 435.36 666.63 C 422.24 659.97 412.17 648.63 398.88 642.31 M 335.74 699.77 C 322.96 710.62 311.59 723.12 301.76 736.69 C 293.10 748.53 285.08 760.80 276.94 772.99 C 265.82 789.26 253.55 804.76 240.38 819.42 C 235.32 825.03 231.06 831.61 229.34 839.05 C 228.92 842.24 230.27 846.05 233.44 847.36 C 237.86 849.09 242.84 847.93 246.92 845.84 C 251.49 843.54 257.43 843.15 261.77 846.16 C 265.11 848.49 266.61 852.45 268.69 855.79 C 275.60 852.85 280.83 847.26 286.09 842.10 C 299.76 827.49 313.35 812.71 328.52 799.62 C 339.63 790.79 349.97 781.07 360.10 771.15 C 366.91 764.29 372.76 756.49 380.05 750.11 C 387.52 743.47 395.61 737.58 403.78 731.84 C 396.31 729.75 389.97 724.85 384.68 719.33 C 375.03 708.84 368.54 694.83 369.05 680.39 C 358.66 688.10 345.57 691.21 335.74 699.77 M 667.66 681.76 C 663.41 711.62 655.74 740.93 652.38 770.94 C 650.47 787.52 646.74 803.83 645.26 820.47 C 644.17 832.90 640.09 844.81 638.51 857.17 C 637.50 863.50 636.95 870.54 641.03 875.99 C 646.48 874.46 650.69 870.46 654.64 866.61 C 660.29 861.24 665.74 855.13 673.14 852.17 C 678.24 850.05 683.91 851.46 689.13 850.06 C 692.43 846.52 693.30 841.42 694.82 836.95 C 697.57 826.63 699.99 816.22 702.58 805.85 C 708.69 781.78 713.54 757.33 721.59 733.79 C 725.65 721.61 728.87 708.97 728.40 696.03 C 718.59 698.01 708.56 695.91 698.94 693.85 C 688.08 691.19 677.14 687.87 667.66 681.76 M 202.87 828.96 C 199.24 829.74 195.06 830.61 192.90 833.96 C 189.22 839.56 189.34 846.73 191.17 852.95 C 195.07 868.10 199.12 883.21 202.52 898.48 C 205.97 912.68 210.70 927.24 220.74 938.26 C 228.86 947.98 239.47 956.26 252.09 958.91 C 254.76 959.23 258.21 959.46 260.01 957.05 C 263.15 952.80 263.17 947.19 262.50 942.18 C 261.16 933.07 258.34 924.19 257.77 914.96 C 256.85 904.12 258.36 893.17 261.88 882.90 C 263.61 875.77 266.00 868.56 265.85 861.18 C 263.09 856.71 260.10 850.58 254.03 850.51 C 247.85 850.38 242.22 854.21 235.97 853.48 C 231.08 853.16 226.32 849.81 225.23 844.88 C 223.65 837.55 226.48 830.21 230.05 823.91 C 220.97 825.52 211.94 827.35 202.87 828.96 M 669.61 860.59 C 661.23 866.11 655.03 874.86 645.47 878.51 C 641.16 880.20 636.69 877.97 633.94 874.62 C 632.46 885.27 628.17 895.20 625.57 905.57 C 624.53 911.07 623.60 917.03 625.57 922.43 C 628.49 928.10 635.08 930.61 641.02 931.70 C 653.77 933.79 665.34 925.80 677.98 926.11 C 687.06 926.20 695.62 929.75 703.85 933.24 C 708.52 935.53 713.73 937.01 718.97 936.16 C 729.87 934.60 740.20 930.17 749.80 924.89 C 756.12 921.11 763.30 917.10 766.21 909.93 C 767.71 906.76 765.15 903.82 762.35 902.68 C 754.23 898.93 745.21 897.64 737.09 893.89 C 730.51 890.85 725.73 885.22 720.11 880.82 C 709.65 872.43 699.09 863.70 686.63 858.46 C 681.04 855.90 674.38 856.71 669.61 860.59 Z" />
        <path fill="#020202" opacity="1.00"
            d=" M 635.73 275.48 C 640.00 277.65 642.51 281.88 645.82 285.16 C 653.64 293.12 662.60 299.84 671.66 306.31 C 677.05 310.00 682.35 313.98 688.43 316.51 C 690.70 317.49 693.10 318.32 695.05 319.93 C 692.89 322.81 689.21 321.45 686.43 320.51 C 675.20 316.45 665.84 308.76 656.78 301.22 C 650.03 295.35 643.31 289.22 638.28 281.76 C 636.95 279.89 636.24 277.69 635.73 275.48 Z" />
        <path fill="#020202" opacity="1.00"
            d=" M 577.96 540.00 C 581.16 537.02 583.72 533.03 588.04 531.54 C 587.56 536.26 583.96 539.60 581.06 543.00 C 569.30 555.93 556.51 567.89 544.88 580.94 C 532.42 594.79 519.33 608.11 505.08 620.12 C 498.43 625.29 491.82 632.11 482.97 632.75 C 477.27 632.79 472.86 627.86 471.19 622.83 C 474.15 620.95 476.21 624.42 478.29 625.94 C 480.50 628.01 483.88 627.72 486.43 626.46 C 491.89 623.90 496.37 619.75 500.99 615.96 C 514.98 603.97 527.90 590.80 540.23 577.13 C 552.08 564.03 565.64 552.65 577.96 540.00 Z" />
    </g>
    <g id="#f0b58bff">
        <path fill="#f0b58b" opacity="1.00"
            d=" M 778.28 138.19 C 778.96 135.75 781.89 136.74 783.76 136.32 C 781.29 143.97 776.99 150.85 772.27 157.29 C 768.79 162.30 764.87 167.21 763.00 173.10 C 761.73 176.91 762.50 181.00 761.81 184.89 C 759.24 188.64 754.74 190.38 751.81 193.80 C 744.46 201.96 740.80 213.08 732.00 220.02 C 725.18 225.75 715.16 226.44 707.11 223.10 C 704.64 222.09 702.61 220.12 699.99 219.51 C 697.41 219.73 695.85 222.14 694.07 223.73 C 688.88 212.99 680.12 203.14 668.45 199.48 C 660.38 196.67 653.63 191.32 646.61 186.63 C 649.71 184.54 652.61 182.17 655.17 179.44 C 656.72 180.48 658.22 181.67 660.01 182.28 C 662.80 183.07 665.46 181.57 667.97 180.55 C 670.72 183.64 673.61 186.61 676.61 189.47 C 678.70 191.39 681.47 193.32 684.47 192.52 C 685.13 190.09 684.12 187.64 684.21 185.20 C 686.67 182.94 690.05 181.84 692.15 179.15 C 694.92 175.68 697.31 171.93 699.90 168.33 C 700.77 169.32 701.82 170.01 703.04 170.42 C 705.95 167.86 707.59 164.04 710.98 162.00 C 714.85 159.68 719.27 158.48 723.61 157.37 C 721.47 165.05 718.46 173.32 721.40 181.22 C 725.08 173.59 729.05 166.03 734.37 159.41 C 737.71 155.42 741.89 152.25 746.04 149.16 C 746.32 157.78 750.69 165.60 755.53 172.49 C 758.30 169.18 759.77 165.09 761.00 161.01 C 762.60 160.91 764.48 161.04 765.62 159.64 C 771.60 153.68 774.73 145.68 778.28 138.19 Z" />
        <path fill="#f0b58b" opacity="1.00"
            d=" M 518.56 236.49 C 523.30 231.51 529.76 228.66 535.82 225.63 C 538.02 240.75 541.60 256.75 552.38 268.25 C 550.11 276.19 548.27 284.27 545.15 291.94 C 542.14 299.51 539.60 307.38 534.97 314.17 C 527.02 296.22 520.97 277.48 516.25 258.45 C 514.49 251.23 513.38 242.63 518.56 236.49 Z" />
        <path fill="#f0b58b" opacity="1.00"
            d=" M 787.63 310.57 C 789.56 308.57 791.78 306.03 794.86 306.32 C 800.29 306.70 805.94 306.87 811.03 308.99 C 814.46 310.36 816.06 313.95 818.82 316.19 C 822.24 318.63 827.31 317.44 830.34 320.62 C 831.36 322.36 831.48 324.46 832.03 326.38 C 825.96 324.69 819.46 322.14 813.13 323.85 C 820.81 326.69 829.65 327.39 836.03 333.01 C 837.88 334.47 838.65 337.83 836.11 339.05 C 827.38 343.75 817.06 340.97 807.70 342.76 C 801.00 343.97 796.85 349.98 790.97 352.86 C 781.91 357.19 771.85 358.69 761.98 359.93 C 754.53 360.81 747.75 364.22 740.63 366.35 C 732.86 368.72 724.95 370.70 716.94 372.07 C 699.02 375.22 681.21 379.10 663.11 381.09 C 655.46 382.43 647.53 382.49 639.93 380.84 C 631.13 378.60 626.41 369.69 624.13 361.57 C 627.72 360.92 631.25 359.58 633.77 356.84 C 639.30 351.21 645.48 346.06 652.75 342.81 C 660.87 338.81 669.89 337.42 678.73 335.91 C 682.79 335.33 686.88 333.32 691.01 334.72 C 698.55 336.75 706.42 335.89 714.12 336.69 C 726.05 337.85 738.05 336.83 750.01 336.82 C 757.36 336.76 765.14 335.71 771.22 331.25 C 778.59 326.05 781.86 317.21 787.63 310.57 Z" />
        <path fill="#f0b58b" opacity="1.00"
            d=" M 663.30 587.40 C 678.90 580.08 697.52 578.83 713.65 585.18 C 719.23 590.16 722.86 596.96 726.50 603.43 C 731.44 612.48 736.05 621.75 739.52 631.48 C 742.23 638.98 745.01 646.93 743.55 655.01 C 741.40 667.41 733.10 677.41 728.89 689.04 C 728.23 692.09 724.36 691.54 722.02 691.77 C 709.52 691.46 697.23 688.55 685.32 684.90 C 679.41 683.01 673.58 680.77 668.22 677.61 C 668.81 672.59 669.32 667.57 669.59 662.53 C 671.73 665.67 673.51 669.09 676.00 671.99 L 677.59 671.23 C 674.36 657.52 663.66 647.37 653.42 638.44 C 645.27 631.12 635.11 626.71 626.42 620.13 C 635.71 606.39 648.03 594.28 663.30 587.40 Z" />
        <path fill="#f0b58b" opacity="1.00"
            d=" M 398.88 642.31 C 412.17 648.63 422.24 659.97 435.36 666.63 C 443.58 671.26 452.84 673.40 461.94 675.55 C 452.71 689.63 445.20 705.09 433.16 717.10 C 426.57 723.92 417.05 726.70 407.96 728.19 C 400.51 726.49 394.11 721.50 388.78 716.18 C 378.87 705.88 372.76 691.75 373.08 677.36 C 378.84 672.38 384.53 667.20 389.17 661.13 C 393.37 655.42 396.57 649.00 398.88 642.31 Z" />
    </g>
    <g id="#f11b27ff">
        <path fill="var(--shirt-color, grey)" opacity="1.00"
            d=" M 607.74 189.75 C 615.20 184.39 625.04 184.86 633.63 186.57 C 643.26 188.46 649.93 196.23 658.31 200.68 C 665.03 204.94 673.63 205.78 679.42 211.56 C 684.65 216.94 689.91 223.16 690.91 230.88 C 692.04 240.00 689.08 248.95 688.79 258.03 C 688.59 267.35 688.10 276.70 689.12 285.99 C 689.66 295.46 689.62 305.39 693.91 314.11 C 695.35 317.43 697.82 320.36 698.37 324.02 C 697.13 325.76 695.00 326.38 693.08 327.01 C 684.63 329.40 675.92 330.62 667.32 332.26 C 654.09 334.87 641.21 340.94 632.03 351.00 C 630.23 352.80 628.72 355.09 626.28 356.07 C 622.93 357.37 619.32 357.78 615.79 358.32 C 616.76 350.48 621.75 343.09 619.81 335.02 C 617.69 326.05 613.23 317.69 607.39 310.59 C 606.01 308.94 604.27 307.05 601.88 307.67 C 601.96 309.42 602.49 311.11 603.34 312.65 C 606.90 319.48 610.63 326.25 613.27 333.51 C 603.65 334.66 595.97 342.33 593.15 351.33 C 592.42 353.60 590.87 357.35 594.07 358.41 C 597.57 352.61 600.23 346.03 605.67 341.65 C 608.14 339.42 611.29 338.23 614.42 337.22 C 614.04 345.36 609.56 353.17 611.50 361.42 C 613.59 362.39 615.94 362.23 618.19 362.37 C 620.00 371.10 624.80 379.69 632.70 384.25 C 640.68 388.77 650.37 388.11 659.03 386.23 C 653.54 395.81 645.45 403.80 641.18 414.08 C 638.55 420.30 638.50 427.35 635.22 433.33 C 630.94 440.51 625.32 446.80 621.13 454.06 C 616.87 447.01 610.59 441.28 607.39 433.59 C 604.78 428.32 604.50 422.38 603.52 416.69 C 602.32 417.91 600.66 419.03 600.77 420.97 C 600.22 430.44 603.61 440.00 609.79 447.18 C 615.82 454.20 621.61 462.43 621.87 472.03 C 622.19 477.30 618.73 481.77 615.23 485.31 C 607.67 493.60 596.57 497.26 585.99 499.86 C 578.99 501.66 571.69 500.76 564.74 499.20 C 556.10 497.37 547.62 494.81 539.42 491.52 C 526.55 486.35 512.84 483.52 499.06 482.22 C 484.34 480.49 468.99 478.59 455.96 471.01 C 453.30 469.38 449.33 466.60 451.07 463.01 C 453.74 460.44 457.86 459.12 459.10 455.29 C 461.10 449.29 460.97 442.35 465.27 437.29 C 468.98 432.50 475.51 432.43 480.94 431.29 C 489.37 429.97 497.45 426.99 504.95 422.94 C 517.53 415.91 529.43 407.61 540.45 398.33 C 543.72 395.27 547.72 392.44 549.19 388.01 C 548.90 387.50 548.33 386.48 548.05 385.97 C 545.01 387.90 542.57 390.58 539.72 392.74 C 531.97 398.79 523.67 404.09 515.43 409.43 C 503.72 417.23 490.84 423.65 476.80 425.80 C 475.42 413.02 481.12 400.00 490.44 391.36 C 500.07 382.94 513.06 380.73 524.80 376.73 C 533.45 373.59 542.54 371.27 550.37 366.26 C 558.32 361.47 565.24 355.21 571.66 348.56 C 573.49 346.72 574.80 344.45 575.68 342.02 C 573.42 343.19 571.36 344.72 569.50 346.45 C 563.14 352.32 555.86 357.08 548.47 361.52 C 541.57 365.70 533.72 367.72 526.18 370.38 C 521.71 371.93 517.17 373.28 512.67 374.72 C 516.70 364.98 516.31 354.09 520.37 344.36 C 523.00 337.78 527.00 331.86 531.26 326.22 C 534.99 321.23 539.52 316.76 542.20 311.06 C 546.70 301.53 549.86 291.46 553.47 281.59 C 556.86 271.88 558.85 261.67 563.40 252.39 C 568.76 241.56 575.66 231.58 582.97 221.99 C 591.10 211.19 596.15 197.56 607.74 189.75 M 635.73 275.48 C 636.24 277.69 636.95 279.89 638.28 281.76 C 643.31 289.22 650.03 295.35 656.78 301.22 C 665.84 308.76 675.20 316.45 686.43 320.51 C 689.21 321.45 692.89 322.81 695.05 319.93 C 693.10 318.32 690.70 317.49 688.43 316.51 C 682.35 313.98 677.05 310.00 671.66 306.31 C 662.60 299.84 653.64 293.12 645.82 285.16 C 642.51 281.88 640.00 277.65 635.73 275.48 Z" />
        <path fill="var(--shirt-color, grey)" opacity="1.00"
            d=" M 559.85 217.55 C 569.15 214.98 578.40 211.92 586.81 207.10 C 583.41 212.81 579.60 218.26 575.51 223.50 C 566.46 235.66 558.30 248.78 553.82 263.36 C 544.76 251.48 541.35 236.41 539.76 221.85 C 546.39 220.10 553.24 219.39 559.85 217.55 Z" />
    </g>
    <g id="#ffffffff">
        <path fill="var(--pants-color, grey)" opacity="1.00"
            d=" M 452.36 474.01 C 460.12 479.03 469.06 481.77 478.04 483.65 C 488.21 486.17 498.68 486.97 509.01 488.52 C 518.54 490.13 527.97 492.53 536.93 496.21 C 544.73 499.42 552.79 501.95 561.03 503.76 C 568.53 505.39 576.32 507.09 583.99 505.50 C 595.20 503.30 606.51 499.28 615.14 491.54 C 617.91 495.28 620.64 499.33 621.21 504.09 C 621.37 506.31 622.62 508.68 625.04 509.03 C 628.68 509.50 632.35 508.12 635.98 508.98 C 639.34 509.70 642.09 511.90 644.73 514.00 C 638.69 515.53 633.59 519.25 628.54 522.71 C 627.06 523.55 625.57 525.89 627.99 526.78 C 634.62 524.85 640.11 519.84 647.01 518.83 C 652.80 519.39 656.79 524.42 661.33 527.58 C 650.74 530.73 640.30 534.83 631.24 541.26 C 620.59 548.15 611.08 556.72 599.93 562.84 C 597.91 563.90 595.98 565.14 594.38 566.78 C 596.55 566.95 598.80 566.85 600.79 565.84 C 613.81 559.87 624.98 550.76 636.85 542.89 C 645.83 537.09 656.11 532.59 666.99 532.73 C 671.74 532.76 676.87 533.07 680.83 536.03 C 688.57 541.57 694.52 549.13 701.36 555.68 C 704.96 559.14 709.67 561.40 712.57 565.58 C 716.14 570.47 718.10 576.30 719.14 582.22 C 704.43 574.55 686.75 573.38 670.95 578.15 C 648.53 584.95 630.12 601.88 618.62 621.98 C 611.59 614.57 601.98 610.33 592.36 607.42 C 580.87 604.13 568.51 602.46 556.74 605.23 C 560.89 600.74 565.93 597.23 570.31 593.01 C 569.60 589.65 565.81 591.74 564.01 592.94 C 543.83 606.42 531.43 627.88 516.20 646.16 C 512.66 650.27 509.10 654.50 504.57 657.55 C 500.41 659.60 495.95 660.97 491.56 662.40 C 482.46 664.73 473.56 668.49 463.99 668.27 C 449.24 668.76 435.81 661.23 424.27 652.79 C 415.54 646.87 407.34 639.16 396.59 637.27 C 400.33 625.25 404.71 613.42 410.16 602.06 C 417.39 586.73 421.27 570.19 426.16 554.05 C 428.36 546.27 429.64 538.15 429.03 530.06 C 428.61 524.38 428.01 518.61 429.28 513.00 C 431.19 504.42 435.30 496.48 440.22 489.26 C 443.97 483.95 447.67 478.55 452.36 474.01 M 577.96 540.00 C 565.64 552.65 552.08 564.03 540.23 577.13 C 527.90 590.80 514.98 603.97 500.99 615.96 C 496.37 619.75 491.89 623.90 486.43 626.46 C 483.88 627.72 480.50 628.01 478.29 625.94 C 476.21 624.42 474.15 620.95 471.19 622.83 C 472.86 627.86 477.27 632.79 482.97 632.75 C 491.82 632.11 498.43 625.29 505.08 620.12 C 519.33 608.11 532.42 594.79 544.88 580.94 C 556.51 567.89 569.30 555.93 581.06 543.00 C 583.96 539.60 587.56 536.26 588.04 531.54 C 583.72 533.03 581.16 537.02 577.96 540.00 Z" />
        <path fill="var(--socks-color, grey)" opacity="1.00"
            d=" M 335.74 699.77 C 345.57 691.21 358.66 688.10 369.05 680.39 C 368.54 694.83 375.03 708.84 384.68 719.33 C 389.97 724.85 396.31 729.75 403.78 731.84 C 395.61 737.58 387.52 743.47 380.05 750.11 C 372.76 756.49 366.91 764.29 360.10 771.15 C 349.97 781.07 339.63 790.79 328.52 799.62 C 313.35 812.71 299.76 827.49 286.09 842.10 C 280.83 847.26 275.60 852.85 268.69 855.79 C 266.61 852.45 265.11 848.49 261.77 846.16 C 257.43 843.15 251.49 843.54 246.92 845.84 C 242.84 847.93 237.86 849.09 233.44 847.36 C 230.27 846.05 228.92 842.24 229.34 839.05 C 231.06 831.61 235.32 825.03 240.38 819.42 C 253.55 804.76 265.82 789.26 276.94 772.99 C 285.08 760.80 293.10 748.53 301.76 736.69 C 311.59 723.12 322.96 710.62 335.74 699.77 Z" />
        <path fill="var(--socks-color, grey)" opacity="1.00"
            d=" M 667.66 681.76 C 677.14 687.87 688.08 691.19 698.94 693.85 C 708.56 695.91 718.59 698.01 728.40 696.03 C 728.87 708.97 725.65 721.61 721.59 733.79 C 713.54 757.33 708.69 781.78 702.58 805.85 C 699.99 816.22 697.57 826.63 694.82 836.95 C 693.30 841.42 692.43 846.52 689.13 850.06 C 683.91 851.46 678.24 850.05 673.14 852.17 C 665.74 855.13 660.29 861.24 654.64 866.61 C 650.69 870.46 646.48 874.46 641.03 875.99 C 636.95 870.54 637.50 863.50 638.51 857.17 C 640.09 844.81 644.17 832.90 645.26 820.47 C 646.74 803.83 650.47 787.52 652.38 770.94 C 655.74 740.93 663.41 711.62 667.66 681.76 Z" />
    </g>
    <g id="#4d4d4dff">
        <path fill="#4d4d4d" opacity="1.00"
            d=" M 202.87 828.96 C 211.94 827.35 220.97 825.52 230.05 823.91 C 226.48 830.21 223.65 837.55 225.23 844.88 C 226.32 849.81 231.08 853.16 235.97 853.48 C 242.22 854.21 247.85 850.38 254.03 850.51 C 260.10 850.58 263.09 856.71 265.85 861.18 C 266.00 868.56 263.61 875.77 261.88 882.90 C 258.36 893.17 256.85 904.12 257.77 914.96 C 258.34 924.19 261.16 933.07 262.50 942.18 C 263.17 947.19 263.15 952.80 260.01 957.05 C 258.21 959.46 254.76 959.23 252.09 958.91 C 239.47 956.26 228.86 947.98 220.74 938.26 C 210.70 927.24 205.97 912.68 202.52 898.48 C 199.12 883.21 195.07 868.10 191.17 852.95 C 189.34 846.73 189.22 839.56 192.90 833.96 C 195.06 830.61 199.24 829.74 202.87 828.96 Z" />
        <path fill="#4d4d4d" opacity="1.00"
            d=" M 669.61 860.59 C 674.38 856.71 681.04 855.90 686.63 858.46 C 699.09 863.70 709.65 872.43 720.11 880.82 C 725.73 885.22 730.51 890.85 737.09 893.89 C 745.21 897.64 754.23 898.93 762.35 902.68 C 765.15 903.82 767.71 906.76 766.21 909.93 C 763.30 917.10 756.12 921.11 749.80 924.89 C 740.20 930.17 729.87 934.60 718.97 936.16 C 713.73 937.01 708.52 935.53 703.85 933.24 C 695.62 929.75 687.06 926.20 677.98 926.11 C 665.34 925.80 653.77 933.79 641.02 931.70 C 635.08 930.61 628.49 928.10 625.57 922.43 C 623.60 917.03 624.53 911.07 625.57 905.57 C 628.17 895.20 632.46 885.27 633.94 874.62 C 636.69 877.97 641.16 880.20 645.47 878.51 C 655.03 874.86 661.23 866.11 669.61 860.59 Z" />
    </g>
</svg>