<?xml version="1.0" encoding="UTF-8" ?>
<!DOCTYPE svg PUBLIC "-//W3C//DTD SVG 1.1//EN" "http://www.w3.org/Graphics/SVG/1.1/DTD/svg11.dtd">
<svg width="1000pt" height="1000pt" viewBox="0 0 1000 1000" version="1.1" xmlns="http://www.w3.org/2000/svg">
    <g id="#020202ff">
        <path fill="#020202" opacity="1.00"
            d=" M 586.98 56.80 C 592.25 47.72 603.41 44.33 613.16 42.67 C 621.85 40.84 630.33 44.14 638.92 44.91 C 643.03 45.40 647.17 45.01 651.29 44.78 C 650.58 47.01 649.39 49.04 648.00 50.91 C 652.43 49.07 656.46 46.45 660.66 44.16 C 660.21 48.45 658.63 52.58 655.34 55.48 C 661.25 56.75 667.19 59.17 671.28 63.80 C 675.58 68.38 676.10 75.76 681.98 78.98 C 689.67 83.54 696.68 92.47 694.27 101.86 C 697.24 108.12 699.94 114.87 699.45 121.94 C 698.78 130.20 697.16 138.35 696.01 146.55 C 695.03 144.99 694.08 143.42 693.15 141.84 C 692.46 144.91 691.56 148.01 689.62 150.55 C 685.78 155.79 682.44 161.37 679.33 167.06 C 679.36 164.76 679.35 162.46 679.40 160.17 C 676.53 166.54 672.63 172.44 670.42 179.10 C 667.82 186.34 668.42 194.57 664.25 201.27 C 658.14 211.20 649.56 219.46 639.93 225.95 C 642.54 229.43 645.64 232.64 647.36 236.69 C 649.46 241.44 647.83 246.99 650.21 251.67 C 652.20 256.51 655.55 261.41 654.32 266.89 C 652.92 272.13 656.13 276.91 658.83 281.11 C 666.37 291.65 677.30 299.07 688.16 305.84 C 690.51 307.11 692.10 309.27 693.38 311.56 C 710.87 311.81 728.01 316.42 744.20 322.81 C 754.01 326.46 763.73 330.42 773.88 333.08 C 785.32 336.02 796.41 340.41 808.13 342.17 C 814.74 343.19 821.45 345.08 828.15 343.64 C 840.60 341.03 853.57 343.63 864.98 348.90 C 869.80 351.16 874.67 353.70 878.24 357.76 C 881.13 360.72 883.28 364.27 885.65 367.63 C 888.52 368.88 892.29 368.73 894.35 371.43 C 895.80 373.61 894.03 376.03 892.48 377.57 C 887.68 382.85 880.52 384.64 874.01 386.83 C 865.01 389.53 855.30 391.75 846.00 389.20 C 834.97 386.49 826.42 377.73 815.09 375.96 C 809.37 374.99 803.57 374.64 797.85 373.72 C 774.93 369.80 751.95 366.14 728.82 363.70 C 717.83 362.44 706.92 360.57 696.07 358.44 C 687.39 357.06 678.71 355.54 670.37 352.70 C 667.60 351.38 664.85 353.24 662.35 354.31 C 657.79 356.79 652.63 358.16 648.48 361.37 C 646.92 362.34 645.40 363.94 643.40 363.71 C 640.83 362.19 638.83 359.93 636.65 357.94 C 635.92 361.32 635.16 364.71 633.83 367.91 C 631.51 373.59 627.32 378.28 625.15 384.03 C 623.00 389.11 623.64 394.77 624.38 400.09 C 625.29 407.26 629.16 413.69 629.67 420.94 C 631.44 435.72 624.86 449.62 623.57 464.14 C 621.94 477.85 624.04 492.31 618.30 505.30 C 614.34 515.40 606.06 523.65 595.71 527.07 C 596.53 530.00 597.14 532.98 597.72 535.97 C 600.03 536.89 602.84 537.36 604.34 539.56 C 606.07 541.92 607.44 544.52 609.10 546.94 C 614.26 547.27 619.04 549.61 623.05 552.77 C 629.92 558.23 636.25 564.32 643.07 569.85 C 654.42 579.83 666.69 588.78 677.42 599.47 C 682.04 603.86 686.07 608.84 690.85 613.09 C 697.96 621.63 705.84 629.48 713.69 637.34 C 725.65 648.01 739.93 656.29 749.79 669.18 C 757.45 679.74 762.14 692.92 760.68 706.07 C 759.38 716.03 758.33 726.06 755.86 735.82 C 752.44 751.74 748.78 767.70 747.77 783.99 C 745.57 805.91 746.87 827.97 745.93 849.95 C 745.28 865.55 745.90 881.76 740.17 896.56 C 750.01 895.15 759.32 899.28 768.32 902.61 C 777.77 906.23 787.75 908.89 797.94 908.83 C 809.31 909.31 820.84 908.00 832.08 910.18 C 836.64 911.43 842.04 913.29 844.03 918.00 C 846.14 923.89 843.83 930.40 840.21 935.18 C 835.15 942.76 827.83 948.45 820.18 953.23 C 810.34 959.36 799.39 963.94 787.84 965.45 C 777.94 967.04 767.72 965.25 757.95 967.87 C 746.72 970.83 735.98 975.41 725.67 980.71 C 719.05 984.04 711.59 987.34 704.04 985.65 C 699.66 984.36 695.02 982.57 692.25 978.74 C 687.01 971.63 685.05 962.73 684.49 954.07 C 683.68 943.71 683.52 933.32 682.79 922.96 C 682.28 916.62 683.31 910.29 682.97 903.96 C 682.46 869.36 674.44 835.44 672.26 800.98 C 671.89 783.22 673.49 765.25 678.34 748.12 C 681.18 737.47 687.39 727.45 686.66 716.09 C 686.14 712.21 682.30 710.42 679.28 708.71 C 654.19 695.07 625.98 687.77 602.03 671.92 C 597.75 676.84 595.91 683.18 592.66 688.71 C 590.54 692.31 585.84 690.65 582.92 689.10 C 568.78 681.81 557.20 670.52 543.30 662.82 C 536.99 659.34 530.17 656.90 523.28 654.86 C 512.45 663.23 507.33 676.39 498.75 686.70 C 493.09 693.76 486.26 700.06 477.95 703.82 C 474.59 705.15 473.43 708.82 471.58 711.60 C 459.45 730.95 451.10 753.16 434.17 769.13 C 426.40 775.90 418.25 782.60 408.61 786.51 C 400.13 789.91 390.81 789.07 381.90 788.71 C 373.09 787.79 364.64 784.91 356.08 782.77 C 352.77 781.90 349.32 782.01 345.96 782.51 C 322.67 784.38 299.43 787.10 276.06 787.78 C 262.38 787.87 248.71 788.01 235.04 787.48 C 224.10 787.01 212.96 786.79 202.44 783.38 C 200.24 782.48 197.86 782.94 195.76 783.89 C 187.54 787.55 179.65 792.02 172.57 797.60 C 162.59 805.50 150.78 811.85 137.94 813.11 C 131.56 813.20 123.94 812.72 119.76 807.15 C 113.59 799.91 114.38 789.54 116.92 780.99 C 121.11 766.95 128.82 753.54 140.40 744.32 C 146.60 739.20 153.76 735.41 161.00 731.99 C 166.21 729.50 171.76 727.73 176.71 724.73 C 181.26 722.00 184.06 717.34 187.53 713.48 C 194.38 705.70 200.87 697.56 208.55 690.56 C 212.15 687.34 216.06 683.96 220.99 683.14 C 228.60 681.52 237.54 683.00 242.77 689.19 C 247.11 694.76 248.39 702.11 248.58 709.01 C 248.71 715.30 244.92 720.65 240.96 725.16 C 264.37 722.98 285.49 710.82 308.96 709.00 C 323.99 707.64 339.53 708.22 353.95 713.01 C 363.29 716.18 372.12 721.03 379.44 727.68 C 381.85 715.08 385.37 702.75 389.09 690.49 C 387.65 688.69 385.98 687.01 385.05 684.88 C 384.99 682.77 385.86 680.79 386.81 678.95 C 392.80 668.65 398.96 658.31 402.88 646.99 C 405.64 639.14 408.77 631.30 409.57 622.95 C 410.06 618.10 411.49 613.38 413.94 609.16 C 412.30 606.46 411.05 603.23 412.29 600.10 C 415.13 591.99 420.04 584.56 421.34 575.94 C 422.79 566.74 424.43 557.49 427.82 548.79 C 432.46 537.07 438.83 526.14 445.61 515.55 C 449.53 509.44 453.55 503.34 458.55 498.04 C 457.14 491.72 455.84 485.02 457.64 478.65 C 458.62 475.03 460.93 472.02 463.13 469.06 C 460.37 463.68 457.18 458.51 454.88 452.91 C 452.79 447.68 453.47 441.93 454.41 436.54 C 456.22 426.93 458.72 417.47 461.16 408.01 C 463.81 397.50 467.31 387.12 472.53 377.59 C 475.54 372.02 479.52 367.02 482.21 361.27 C 485.96 353.32 487.80 344.67 489.50 336.10 C 491.28 326.90 492.89 317.67 494.63 308.46 C 497.04 296.07 500.45 283.91 503.75 271.73 C 508.57 253.47 515.47 235.31 527.32 220.38 C 531.90 214.31 537.81 209.41 544.02 205.11 C 546.67 203.29 549.91 202.78 553.00 202.21 C 560.60 194.37 566.36 184.10 566.60 172.97 C 565.56 167.92 563.16 163.23 562.52 158.07 C 561.61 151.79 557.59 146.69 555.05 141.04 C 550.78 132.04 548.72 121.81 550.54 111.91 C 548.30 112.23 546.05 112.42 543.81 112.54 C 545.72 109.94 547.76 107.45 549.80 104.94 C 545.53 106.10 541.08 106.70 536.69 105.93 C 543.19 101.81 548.79 96.45 552.96 89.96 C 560.10 81.83 563.91 71.31 571.60 63.63 C 575.69 59.54 581.28 57.35 586.98 56.80 M 631.69 121.44 C 632.41 124.44 632.89 127.51 632.51 130.60 C 630.33 128.84 628.10 127.13 625.65 125.79 C 622.66 132.33 618.07 138.09 612.09 142.14 C 609.07 144.40 605.30 145.96 603.19 149.23 C 599.83 155.63 598.58 162.95 598.71 170.13 C 596.63 166.11 594.28 162.17 591.17 158.87 C 588.95 156.53 585.59 155.97 583.03 154.15 C 577.63 150.37 574.50 144.40 571.11 138.95 C 567.60 141.43 565.13 145.54 565.68 149.94 C 566.37 155.65 568.55 161.08 570.71 166.38 C 572.02 169.65 575.23 171.35 578.11 173.02 C 576.99 175.00 576.21 177.51 573.96 178.49 C 572.40 179.22 570.91 178.16 569.51 177.64 C 568.50 186.85 564.46 195.62 558.30 202.53 C 567.25 203.58 575.78 207.52 582.49 213.53 C 589.93 219.76 595.59 227.75 602.55 234.46 C 604.17 235.90 605.84 237.54 608.04 238.02 C 610.04 237.29 611.55 235.72 613.18 234.42 C 606.03 230.71 600.09 225.20 594.77 219.24 C 591.58 215.50 587.20 212.44 585.70 207.57 C 587.48 208.28 589.16 209.26 590.54 210.62 C 598.23 217.88 605.88 225.45 615.08 230.80 C 623.42 231.64 630.58 225.93 636.84 221.07 C 633.26 219.42 629.64 217.73 626.54 215.29 C 625.48 214.51 625.58 213.02 625.16 211.91 C 623.81 210.94 622.10 210.32 621.15 208.91 C 619.97 207.81 621.50 205.50 622.98 205.76 C 624.64 205.83 626.15 206.63 627.66 207.29 C 633.11 209.93 638.58 212.56 643.87 215.53 C 648.56 211.13 653.37 206.66 656.91 201.26 C 656.78 196.85 656.01 192.40 656.84 188.01 C 657.89 182.00 661.14 176.60 665.17 172.10 C 671.69 165.94 675.83 157.56 678.22 149.00 C 676.69 146.30 675.01 143.69 673.20 141.17 C 669.22 143.07 666.69 138.58 663.94 136.53 C 663.44 136.77 662.43 137.26 661.93 137.50 C 657.77 135.98 654.83 132.40 651.42 129.72 C 649.63 130.56 647.58 131.18 645.70 130.24 C 640.62 128.03 636.25 124.52 631.69 121.44 M 659.18 198.41 C 662.84 192.04 662.72 184.48 664.82 177.59 C 661.06 183.86 659.42 191.15 659.18 198.41 M 532.47 221.45 C 520.92 236.72 514.04 254.93 509.24 273.31 C 506.10 284.85 502.97 296.41 500.43 308.11 C 508.63 295.97 511.59 281.41 515.43 267.52 C 515.95 266.35 516.16 263.60 518.11 264.47 C 519.48 266.37 518.61 268.89 518.48 271.03 C 516.82 280.78 514.73 290.59 510.47 299.58 C 506.58 307.39 500.35 313.98 497.60 322.36 C 494.77 334.84 493.40 347.75 488.64 359.72 C 507.29 354.49 528.63 355.06 545.34 365.69 C 553.59 370.94 562.73 374.81 572.24 377.09 C 568.68 370.30 568.43 362.35 570.00 354.98 C 571.97 347.08 570.33 338.91 568.92 331.07 C 567.82 324.88 565.35 318.79 566.05 312.41 C 568.35 314.86 568.89 318.24 569.75 321.35 C 571.34 327.47 573.07 333.56 574.12 339.80 C 576.89 332.49 579.68 325.18 581.46 317.56 C 586.61 296.81 590.81 275.53 590.18 254.04 C 590.34 252.55 589.44 250.48 590.99 249.47 C 592.90 249.83 594.13 251.46 594.33 253.33 C 594.97 257.84 595.10 262.41 595.10 266.96 C 594.37 287.75 589.80 308.20 583.96 328.09 C 579.55 340.60 573.52 353.26 574.46 366.86 C 574.66 371.22 577.33 374.87 578.31 378.99 C 576.89 381.05 574.15 380.78 571.98 380.71 C 563.69 380.13 555.72 377.26 548.37 373.51 C 543.88 371.05 539.60 368.22 534.99 365.99 C 530.23 377.26 525.26 388.74 523.93 401.03 C 523.55 403.32 524.43 405.55 525.34 407.61 C 528.43 414.47 532.74 420.71 537.32 426.65 C 547.21 439.30 558.69 450.60 570.59 461.34 C 574.18 464.74 578.68 467.23 581.47 471.42 C 578.91 471.06 576.38 470.33 574.31 468.74 C 565.97 462.88 558.55 455.83 551.17 448.84 C 540.01 438.39 529.46 426.91 522.76 413.01 C 521.75 422.56 519.84 432.00 517.25 441.25 C 514.50 450.64 516.48 460.45 516.88 470.01 C 517.41 481.12 518.43 492.36 516.62 503.41 C 529.17 511.32 541.10 521.20 556.02 524.21 C 565.91 526.49 575.97 523.39 585.94 523.30 C 593.12 523.41 600.81 521.20 605.66 515.63 C 612.12 508.29 615.35 498.59 616.02 488.95 C 616.74 478.95 616.18 468.83 618.13 458.94 C 619.87 447.21 625.21 436.05 624.50 424.00 C 624.39 417.83 622.00 412.08 620.12 406.31 C 618.08 414.08 615.60 422.10 610.20 428.25 C 605.91 433.24 599.69 436.87 592.98 436.74 C 583.88 436.18 575.22 432.47 567.89 427.18 C 563.47 423.92 557.88 421.56 555.36 416.38 C 557.10 416.98 558.87 417.63 560.43 418.66 C 569.39 424.53 579.04 429.56 589.41 432.39 C 594.62 433.70 599.79 430.98 603.60 427.61 C 609.28 422.87 612.77 416.12 615.12 409.22 C 616.65 404.26 619.44 399.40 618.51 394.03 C 617.27 384.71 623.56 377.20 627.25 369.27 C 630.72 363.04 631.34 355.84 632.16 348.90 C 633.11 340.11 635.53 331.58 637.68 323.04 C 639.44 308.73 638.13 294.27 639.12 279.91 C 639.46 277.19 639.23 273.83 641.83 272.11 C 642.63 277.04 642.34 282.04 642.44 287.01 C 642.52 295.51 643.13 304.01 642.67 312.50 C 645.96 306.72 650.34 300.30 657.46 299.23 C 654.73 301.94 651.59 304.28 649.35 307.45 C 645.86 312.11 644.00 317.70 641.89 323.06 C 646.23 319.28 651.58 316.39 657.50 316.60 C 656.57 320.78 651.62 321.23 648.93 323.88 C 640.39 330.63 638.42 342.04 637.38 352.23 C 639.97 354.77 642.53 357.35 644.99 360.01 C 649.47 355.40 655.63 353.31 661.10 350.20 C 666.05 347.50 671.84 346.64 676.57 343.53 C 682.25 339.06 684.03 331.63 686.37 325.14 C 687.31 320.98 689.39 316.40 687.84 312.20 C 684.06 308.15 678.84 305.83 674.46 302.51 C 664.64 295.14 654.70 286.65 650.22 274.86 C 648.49 271.09 650.16 267.01 649.94 263.12 C 648.74 258.32 645.61 254.26 644.43 249.45 C 643.53 245.48 644.51 241.13 642.48 237.44 C 640.77 234.29 638.27 231.69 635.97 228.99 C 630.38 232.97 624.03 236.78 616.88 236.28 C 614.09 238.99 611.34 242.80 607.04 242.75 C 603.59 242.33 600.79 239.97 598.28 237.76 C 590.57 230.45 584.42 221.54 575.91 215.07 C 568.53 209.65 559.10 206.72 549.96 207.95 C 542.29 209.32 537.08 215.71 532.47 221.45 M 686.25 339.30 C 684.05 343.84 680.12 347.34 675.63 349.56 C 682.08 351.07 688.53 352.65 695.12 353.48 C 708.91 356.09 722.76 358.40 736.74 359.80 C 757.54 362.24 778.24 365.45 798.95 368.59 C 807.80 369.94 817.09 369.80 825.41 373.53 C 833.31 377.08 840.32 382.74 848.91 384.65 C 856.67 386.46 864.57 384.29 871.99 382.04 C 877.96 379.83 884.50 378.22 889.16 373.59 C 882.21 372.04 875.05 372.48 868.00 371.88 C 862.73 371.44 857.09 371.72 852.34 369.02 C 861.53 366.99 871.07 368.09 880.41 367.78 C 876.79 363.69 873.33 359.19 868.35 356.67 C 856.41 350.34 842.49 346.37 828.96 349.08 C 821.22 350.63 813.58 348.12 805.99 346.91 C 798.50 345.72 791.29 343.26 784.05 341.09 C 777.04 338.83 769.85 337.21 762.87 334.86 C 748.05 329.96 733.84 323.23 718.60 319.66 C 710.37 317.80 702.01 316.50 693.61 315.72 C 692.52 323.93 689.90 331.88 686.25 339.30 M 493.69 362.90 C 486.91 381.89 480.72 401.57 480.81 421.95 C 480.61 434.45 483.97 446.61 485.05 458.98 C 481.23 463.20 475.28 464.38 471.10 468.15 C 466.89 471.91 462.23 476.15 461.61 482.12 C 460.65 491.68 463.78 501.20 468.81 509.24 C 469.18 502.83 467.37 496.46 468.29 490.08 C 468.47 488.33 469.34 487.90 470.89 488.80 C 472.44 493.05 472.43 497.64 473.12 502.06 C 473.25 503.94 475.15 504.89 476.25 506.18 C 480.06 499.58 477.03 491.53 479.57 484.58 C 480.47 483.62 482.12 484.13 482.25 485.45 C 483.31 491.38 482.80 497.44 482.51 503.42 C 483.91 502.57 485.82 502.13 486.50 500.45 C 489.64 493.72 488.90 486.05 490.33 478.91 C 490.78 478.80 491.68 478.56 492.13 478.45 C 495.51 485.26 494.07 493.38 492.13 500.46 C 493.89 499.51 495.65 498.39 496.70 496.61 C 500.77 490.61 501.08 483.10 500.99 476.10 C 504.07 476.35 503.98 479.84 504.45 482.14 C 505.62 489.38 503.23 497.76 497.00 502.08 C 495.22 503.52 492.91 503.27 490.82 502.86 C 488.81 505.17 486.06 506.52 482.99 506.69 C 482.67 507.76 482.36 508.83 482.07 509.93 C 490.89 509.48 499.75 508.48 508.32 506.27 C 511.80 505.68 511.91 501.70 512.30 498.95 C 513.16 487.95 512.26 476.90 511.53 465.92 C 511.14 458.53 509.07 451.11 510.74 443.74 C 512.52 435.81 514.97 428.01 515.99 419.93 C 517.79 408.97 517.51 397.61 521.14 387.00 C 523.76 379.22 527.13 371.68 531.21 364.55 C 519.02 361.06 506.14 360.43 493.69 362.90 M 486.56 364.48 C 483.24 370.73 478.86 376.35 475.77 382.73 C 471.71 390.88 468.86 399.59 466.63 408.41 C 464.02 418.52 461.09 428.57 459.31 438.87 C 458.63 443.13 458.22 447.74 460.22 451.73 C 462.45 456.28 465.19 460.57 467.48 465.09 C 471.80 461.69 476.82 459.42 481.77 457.12 C 479.08 444.92 476.52 432.55 476.72 420.00 C 476.80 412.59 477.64 405.21 479.15 397.96 C 481.54 386.22 484.28 374.33 489.99 363.69 C 488.84 363.95 487.69 364.21 486.56 364.48 M 447.42 521.47 C 439.33 534.63 431.83 548.55 428.85 563.85 C 427.72 568.94 427.21 574.13 426.18 579.24 C 424.55 587.32 419.92 594.32 417.08 601.95 C 415.79 605.22 419.26 607.23 422.02 607.43 C 431.37 601.54 438.14 592.57 445.41 584.43 C 448.30 581.42 450.39 577.36 454.37 575.60 C 454.16 580.45 450.30 583.85 447.69 587.58 C 441.77 594.61 436.28 602.19 428.99 607.90 C 425.61 610.71 421.17 612.02 416.81 611.25 C 413.42 618.77 414.62 627.26 412.18 635.02 C 408.79 646.27 404.91 657.52 398.71 667.58 C 395.81 673.50 391.80 678.78 388.89 684.69 C 406.57 699.33 429.96 708.42 453.09 705.36 C 467.98 703.66 483.33 697.91 492.71 685.67 C 508.07 665.01 521.75 642.33 542.55 626.53 C 546.52 623.66 550.05 619.46 555.15 618.78 C 552.86 622.53 549.07 624.93 545.94 627.91 C 541.04 632.11 536.93 637.10 532.60 641.86 C 553.82 628.48 577.37 618.57 602.05 613.79 C 603.53 613.44 606.42 613.41 605.70 615.71 C 596.34 619.90 586.19 621.97 576.74 625.94 C 559.37 633.02 542.42 641.42 527.06 652.25 C 536.49 654.25 545.42 658.24 553.44 663.55 C 565.27 671.05 575.73 680.87 588.63 686.57 C 591.32 679.98 594.24 673.48 598.53 667.76 C 608.56 658.49 621.88 654.66 634.01 649.10 C 642.03 645.20 647.70 638.08 654.31 632.33 C 663.41 624.61 673.49 618.05 684.19 612.78 C 666.86 594.95 646.76 580.17 628.44 563.42 C 623.13 559.00 618.09 553.44 611.10 551.87 C 606.83 551.95 602.54 552.64 598.36 553.45 C 592.41 556.53 588.07 561.80 583.20 566.25 C 577.49 571.73 571.09 576.59 563.84 579.83 C 558.43 582.21 552.93 584.93 546.93 585.22 C 545.27 585.37 543.69 584.74 542.66 583.44 C 546.34 582.17 550.24 581.56 553.81 579.97 C 563.08 576.28 571.01 570.00 578.34 563.36 C 583.61 558.62 588.28 553.00 594.74 549.81 C 597.80 548.21 601.28 547.84 604.67 547.49 C 603.24 545.56 602.17 543.37 600.55 541.60 C 599.04 540.82 596.76 539.61 595.32 541.09 C 591.29 544.79 588.06 549.29 583.92 552.88 C 576.57 559.35 567.93 564.89 558.14 566.60 C 552.16 567.60 546.12 568.37 540.06 568.69 C 536.45 568.79 532.51 569.01 529.47 566.74 C 539.31 565.54 549.42 565.52 558.94 562.38 C 566.83 559.99 573.73 555.22 580.00 550.00 C 584.78 546.05 588.59 541.09 593.43 537.22 C 592.92 534.03 592.44 530.85 592.03 527.65 C 581.66 528.01 571.37 529.91 560.98 529.84 C 552.72 528.97 544.83 525.94 537.47 522.21 C 533.69 525.85 529.73 529.30 525.90 532.88 C 520.19 538.18 515.15 544.14 509.46 549.44 C 504.08 554.51 497.93 558.66 491.78 562.72 C 487.73 565.16 483.52 568.06 478.57 567.89 C 479.06 566.69 479.78 565.59 481.00 565.06 C 487.09 561.67 492.91 557.77 498.28 553.33 C 505.55 547.27 511.42 539.79 518.17 533.20 C 522.93 528.48 528.21 524.36 533.40 520.14 C 526.67 516.49 521.00 511.28 514.70 507.01 C 512.63 508.79 510.27 510.28 507.53 510.71 C 498.82 512.47 489.93 513.65 481.04 513.65 C 478.82 513.89 478.74 511.17 478.39 509.68 C 476.51 509.69 474.75 509.15 473.06 508.40 C 474.20 511.69 470.58 515.89 467.28 513.79 C 463.32 510.95 461.93 505.95 459.91 501.75 C 455.52 508.17 451.38 514.77 447.42 521.47 M 657.58 635.59 C 650.67 641.72 644.50 648.96 636.11 653.14 C 625.61 658.42 613.92 661.67 604.67 669.20 C 623.58 679.88 643.95 687.52 663.94 695.90 C 669.06 698.04 674.11 700.37 678.99 703.03 C 683.47 705.44 687.09 709.09 690.80 712.52 C 694.74 711.30 698.80 710.47 702.93 710.27 C 714.79 709.62 726.83 710.95 738.13 714.72 C 743.64 716.56 748.99 719.14 753.30 723.12 C 753.95 717.07 755.00 711.07 755.66 705.02 C 756.79 693.33 752.36 681.74 745.55 672.41 C 735.36 659.47 720.49 651.55 708.76 640.22 C 701.17 632.44 693.46 624.71 686.90 616.03 C 676.50 621.53 666.62 628.06 657.58 635.59 M 215.33 691.27 C 206.52 698.46 199.60 707.57 192.10 716.03 C 188.13 720.41 184.90 725.66 179.72 728.76 C 173.28 732.66 165.98 734.80 159.32 738.29 C 150.25 742.71 141.69 748.52 135.26 756.39 C 127.90 765.67 122.69 776.78 120.64 788.48 C 119.44 794.92 120.77 802.66 126.46 806.64 C 130.79 809.20 136.19 808.85 140.93 807.85 C 151.33 805.28 160.79 799.78 169.02 793.03 C 176.29 787.10 184.66 782.77 193.27 779.13 C 190.61 776.62 187.87 774.08 186.12 770.83 C 183.21 765.94 183.91 759.82 185.69 754.68 C 189.95 743.87 198.57 734.95 208.93 729.80 C 217.09 725.68 226.45 726.01 235.33 725.41 C 239.72 720.59 244.54 714.92 244.10 707.96 C 243.58 702.02 242.59 695.35 238.04 691.05 C 231.75 685.88 221.49 685.82 215.33 691.27 M 392.17 693.30 C 388.76 708.28 383.92 722.89 380.53 737.88 C 379.17 742.07 379.16 747.02 375.94 750.33 C 375.01 744.23 377.33 738.29 378.42 732.36 C 376.30 730.53 374.08 728.85 371.78 727.28 C 367.75 733.77 366.26 741.40 365.25 748.87 C 364.24 757.17 363.77 765.72 365.56 773.96 C 366.27 776.68 367.19 779.98 370.08 781.11 C 375.79 783.16 381.94 783.19 387.90 783.85 C 395.15 784.14 402.78 783.67 409.35 780.29 C 415.99 776.96 421.85 772.33 427.58 767.66 C 434.86 761.79 440.42 754.15 445.54 746.41 C 453.80 733.90 460.06 720.21 468.30 707.70 C 456.88 711.23 444.74 711.85 432.89 710.86 C 417.86 709.59 403.70 702.83 392.17 693.30 M 303.98 715.12 C 282.21 718.22 262.10 728.77 239.99 730.03 C 230.38 730.56 220.06 729.37 211.28 734.13 C 201.58 739.34 192.96 747.66 189.68 758.41 C 188.39 762.53 188.65 767.23 191.01 770.91 C 196.32 777.45 204.95 779.52 212.90 780.65 C 226.20 782.36 239.65 782.08 253.03 782.37 C 273.37 782.78 293.71 781.82 313.95 779.75 C 326.31 778.92 338.61 777.09 351.02 777.15 C 354.91 777.12 358.72 778.03 362.44 779.10 C 360.19 773.02 359.69 766.48 359.73 760.06 C 359.92 748.08 361.60 735.45 368.17 725.16 C 348.98 713.80 325.66 711.93 303.98 715.12 M 691.21 717.74 C 691.53 725.37 689.60 732.81 686.71 739.81 C 682.16 751.68 679.72 764.25 678.58 776.88 C 674.61 809.81 683.54 842.31 685.79 875.01 C 687.25 889.53 687.57 904.13 687.75 918.71 C 702.49 922.26 719.35 917.99 729.21 906.12 C 735.98 896.09 738.86 884.02 739.41 872.05 C 740.62 850.72 740.95 829.34 741.21 807.98 C 741.23 796.91 742.43 785.89 743.44 774.87 C 745.28 758.90 749.26 743.30 752.39 727.56 C 748.21 724.02 743.25 721.56 738.02 720.01 C 722.93 715.45 706.66 714.28 691.21 717.74 M 737.81 901.41 C 734.66 908.21 730.22 914.74 723.73 918.75 C 713.17 925.35 699.84 927.23 687.83 923.98 C 689.38 936.88 688.92 949.99 691.24 962.80 C 692.74 968.93 695.22 975.54 700.54 979.35 C 707.27 982.74 714.92 979.23 721.11 976.19 C 732.12 970.33 743.76 965.58 755.87 962.53 C 765.69 960.04 775.91 961.86 785.86 960.52 C 796.30 959.34 806.27 955.50 815.33 950.28 C 823.73 945.38 831.60 939.13 836.83 930.81 C 839.27 927.22 842.37 922.53 839.89 918.17 C 835.52 914.49 829.41 914.11 823.94 913.89 C 811.59 913.77 799.17 914.76 786.88 913.11 C 775.48 911.43 765.04 906.37 754.17 902.87 C 748.90 901.06 743.29 901.11 737.81 901.41 Z" />
        <path fill="#020202" opacity="1.00"
            d=" M 622.05 152.84 C 623.51 152.56 624.82 153.52 626.15 154.00 C 636.62 159.05 647.14 164.01 657.66 168.98 C 656.81 171.04 656.70 174.41 653.87 174.68 C 651.84 174.69 650.00 173.68 648.16 172.98 C 639.41 169.14 630.70 165.21 622.22 160.80 C 621.22 160.05 619.36 159.59 619.59 157.99 C 620.00 156.11 620.91 154.37 622.05 152.84 Z" />
        <path fill="#020202" opacity="1.00"
            d=" M 641.93 192.84 L 643.10 192.26 C 645.76 194.46 647.67 197.37 649.85 200.01 C 652.08 200.07 654.33 200.23 656.51 200.83 C 654.51 204.23 651.03 206.23 647.79 208.24 C 644.79 203.92 642.98 198.88 641.59 193.86 L 641.93 192.84 Z" />
        <path fill="#020202" opacity="1.00"
            d=" M 556.22 216.67 C 558.06 212.95 562.94 214.20 566.21 214.95 C 572.24 217.41 575.52 223.56 580.16 227.82 C 583.88 232.18 589.41 235.11 591.75 240.53 C 586.61 239.22 583.02 235.09 579.06 231.87 C 574.88 228.42 571.33 224.33 567.67 220.37 C 564.76 217.17 560.10 217.46 556.22 216.67 Z" />
        <path fill="#020202" opacity="1.00"
            d=" M 458.35 550.08 C 458.99 549.83 460.26 549.34 460.90 549.10 C 460.05 553.27 457.26 556.63 455.35 560.34 C 449.14 571.22 443.18 583.19 432.28 590.13 C 431.09 590.61 428.32 592.75 428.27 590.03 C 431.27 586.47 435.06 583.65 437.85 579.90 C 445.24 570.35 450.75 559.46 458.35 550.08 Z" />
    </g>
    <g id="#f0b58bff">
        <path fill="#f0b58b" opacity="1.00"
            d=" M 631.69 121.44 C 636.25 124.52 640.62 128.03 645.70 130.24 C 647.58 131.18 649.63 130.56 651.42 129.72 C 654.83 132.40 657.77 135.98 661.93 137.50 C 662.43 137.26 663.44 136.77 663.94 136.53 C 666.69 138.58 669.22 143.07 673.20 141.17 C 675.01 143.69 676.69 146.30 678.22 149.00 C 675.83 157.56 671.69 165.94 665.17 172.10 C 661.14 176.60 657.89 182.00 656.84 188.01 C 656.01 192.40 656.78 196.85 656.91 201.26 C 653.37 206.66 648.56 211.13 643.87 215.53 C 638.58 212.56 633.11 209.93 627.66 207.29 C 626.15 206.63 624.64 205.83 622.98 205.76 C 621.50 205.50 619.97 207.81 621.15 208.91 C 622.10 210.32 623.81 210.94 625.16 211.91 C 625.58 213.02 625.48 214.51 626.54 215.29 C 629.64 217.73 633.26 219.42 636.84 221.07 C 630.58 225.93 623.42 231.64 615.08 230.80 C 605.88 225.45 598.23 217.88 590.54 210.62 C 589.16 209.26 587.48 208.28 585.70 207.57 C 587.20 212.44 591.58 215.50 594.77 219.24 C 600.09 225.20 606.03 230.71 613.18 234.42 C 611.55 235.72 610.04 237.29 608.04 238.02 C 605.84 237.54 604.17 235.90 602.55 234.46 C 595.59 227.75 589.93 219.76 582.49 213.53 C 575.78 207.52 567.25 203.58 558.30 202.53 C 564.46 195.62 568.50 186.85 569.51 177.64 C 570.91 178.16 572.40 179.22 573.96 178.49 C 576.21 177.51 576.99 175.00 578.11 173.02 C 575.23 171.35 572.02 169.65 570.71 166.38 C 568.55 161.08 566.37 155.65 565.68 149.94 C 565.13 145.54 567.60 141.43 571.11 138.95 C 574.50 144.40 577.63 150.37 583.03 154.15 C 585.59 155.97 588.95 156.53 591.17 158.87 C 594.28 162.17 596.63 166.11 598.71 170.13 C 598.58 162.95 599.83 155.63 603.19 149.23 C 605.30 145.96 609.07 144.40 612.09 142.14 C 618.07 138.09 622.66 132.33 625.65 125.79 C 628.10 127.13 630.33 128.84 632.51 130.60 C 632.89 127.51 632.41 124.44 631.69 121.44 M 622.05 152.84 C 620.91 154.37 620.00 156.11 619.59 157.99 C 619.36 159.59 621.22 160.05 622.22 160.80 C 630.70 165.21 639.41 169.14 648.16 172.98 C 650.00 173.68 651.84 174.69 653.87 174.68 C 656.70 174.41 656.81 171.04 657.66 168.98 C 647.14 164.01 636.62 159.05 626.15 154.00 C 624.82 153.52 623.51 152.56 622.05 152.84 M 641.93 192.84 L 641.59 193.86 C 642.98 198.88 644.79 203.92 647.79 208.24 C 651.03 206.23 654.51 204.23 656.51 200.83 C 654.33 200.23 652.08 200.07 649.85 200.01 C 647.67 197.37 645.76 194.46 643.10 192.26 L 641.93 192.84 Z" />
        <path fill="#f0b58b" opacity="1.00"
            d=" M 659.18 198.41 C 659.42 191.15 661.06 183.86 664.82 177.59 C 662.72 184.48 662.84 192.04 659.18 198.41 Z" />
        <path fill="#f0b58b" opacity="1.00"
            d=" M 686.25 339.30 C 689.90 331.88 692.52 323.93 693.61 315.72 C 702.01 316.50 710.37 317.80 718.60 319.66 C 733.84 323.23 748.05 329.96 762.87 334.86 C 769.85 337.21 777.04 338.83 784.05 341.09 C 791.29 343.26 798.50 345.72 805.99 346.91 C 813.58 348.12 821.22 350.63 828.96 349.08 C 842.49 346.37 856.41 350.34 868.35 356.67 C 873.33 359.19 876.79 363.69 880.41 367.78 C 871.07 368.09 861.53 366.99 852.34 369.02 C 857.09 371.72 862.73 371.44 868.00 371.88 C 875.05 372.48 882.21 372.04 889.16 373.59 C 884.50 378.22 877.96 379.83 871.99 382.04 C 864.57 384.29 856.67 386.46 848.91 384.65 C 840.32 382.74 833.31 377.08 825.41 373.53 C 817.09 369.80 807.80 369.94 798.95 368.59 C 778.24 365.45 757.54 362.24 736.74 359.80 C 722.76 358.40 708.91 356.09 695.12 353.48 C 688.53 352.65 682.08 351.07 675.63 349.56 C 680.12 347.34 684.05 343.84 686.25 339.30 Z" />
        <path fill="#f0b58b" opacity="1.00"
            d=" M 493.69 362.90 C 506.14 360.43 519.02 361.06 531.21 364.55 C 527.13 371.68 523.76 379.22 521.14 387.00 C 517.51 397.61 517.79 408.97 515.99 419.93 C 514.97 428.01 512.52 435.81 510.74 443.74 C 509.07 451.11 511.14 458.53 511.53 465.92 C 512.26 476.90 513.16 487.95 512.30 498.95 C 511.91 501.70 511.80 505.68 508.32 506.27 C 499.75 508.48 490.89 509.48 482.07 509.93 C 482.36 508.83 482.67 507.76 482.99 506.69 C 486.06 506.52 488.81 505.17 490.82 502.86 C 492.91 503.27 495.22 503.52 497.00 502.08 C 503.23 497.76 505.62 489.38 504.45 482.14 C 503.98 479.84 504.07 476.35 500.99 476.10 C 501.08 483.10 500.77 490.61 496.70 496.61 C 495.65 498.39 493.89 499.51 492.13 500.46 C 494.07 493.38 495.51 485.26 492.13 478.45 C 491.68 478.56 490.78 478.80 490.33 478.91 C 488.90 486.05 489.64 493.72 486.50 500.45 C 485.82 502.13 483.91 502.57 482.51 503.42 C 482.80 497.44 483.31 491.38 482.25 485.45 C 482.12 484.13 480.47 483.62 479.57 484.58 C 477.03 491.53 480.06 499.58 476.25 506.18 C 475.15 504.89 473.25 503.94 473.12 502.06 C 472.43 497.64 472.44 493.05 470.89 488.80 C 469.34 487.90 468.47 488.33 468.29 490.08 C 467.37 496.46 469.18 502.83 468.81 509.24 C 463.78 501.20 460.65 491.68 461.61 482.12 C 462.23 476.15 466.89 471.91 471.10 468.15 C 475.28 464.38 481.23 463.20 485.05 458.98 C 483.97 446.61 480.61 434.45 480.81 421.95 C 480.72 401.57 486.91 381.89 493.69 362.90 Z" />
        <path fill="#f0b58b" opacity="1.00"
            d=" M 657.58 635.59 C 666.62 628.06 676.50 621.53 686.90 616.03 C 693.46 624.71 701.17 632.44 708.76 640.22 C 720.49 651.55 735.36 659.47 745.55 672.41 C 752.36 681.74 756.79 693.33 755.66 705.02 C 755.00 711.07 753.95 717.07 753.30 723.12 C 748.99 719.14 743.64 716.56 738.13 714.72 C 726.83 710.95 714.79 709.62 702.93 710.27 C 698.80 710.47 694.74 711.30 690.80 712.52 C 687.09 709.09 683.47 705.44 678.99 703.03 C 674.11 700.37 669.06 698.04 663.94 695.90 C 643.95 687.52 623.58 679.88 604.67 669.20 C 613.92 661.67 625.61 658.42 636.11 653.14 C 644.50 648.96 650.67 641.72 657.58 635.59 Z" />
        <path fill="#f0b58b" opacity="1.00"
            d=" M 392.17 693.30 C 403.70 702.83 417.86 709.59 432.89 710.86 C 444.74 711.85 456.88 711.23 468.30 707.70 C 460.06 720.21 453.80 733.90 445.54 746.41 C 440.42 754.15 434.86 761.79 427.58 767.66 C 421.85 772.33 415.99 776.96 409.35 780.29 C 402.78 783.67 395.15 784.14 387.90 783.85 C 381.94 783.19 375.79 783.16 370.08 781.11 C 367.19 779.98 366.27 776.68 365.56 773.96 C 363.77 765.72 364.24 757.17 365.25 748.87 C 366.26 741.40 367.75 733.77 371.78 727.28 C 374.08 728.85 376.30 730.53 378.42 732.36 C 377.33 738.29 375.01 744.23 375.94 750.33 C 379.16 747.02 379.17 742.07 380.53 737.88 C 383.92 722.89 388.76 708.28 392.17 693.30 Z" />
    </g>
    <g id="#f11b27ff">
        <path fill="var(--shirt-color, grey)" opacity="1.00"
            d=" M 532.47 221.45 C 537.08 215.71 542.29 209.32 549.96 207.95 C 559.10 206.72 568.53 209.65 575.91 215.07 C 584.42 221.54 590.57 230.45 598.28 237.76 C 600.79 239.97 603.59 242.33 607.04 242.75 C 611.34 242.80 614.09 238.99 616.88 236.28 C 624.03 236.78 630.38 232.97 635.97 228.99 C 638.27 231.69 640.77 234.29 642.48 237.44 C 644.51 241.13 643.53 245.48 644.43 249.45 C 645.61 254.26 648.74 258.32 649.94 263.12 C 650.16 267.01 648.49 271.09 650.22 274.86 C 654.70 286.65 664.64 295.14 674.46 302.51 C 678.84 305.83 684.06 308.15 687.84 312.20 C 689.39 316.40 687.31 320.98 686.37 325.14 C 684.03 331.63 682.25 339.06 676.57 343.53 C 671.84 346.64 666.05 347.50 661.10 350.20 C 655.63 353.31 649.47 355.40 644.99 360.01 C 642.53 357.35 639.97 354.77 637.38 352.23 C 638.42 342.04 640.39 330.63 648.93 323.88 C 651.62 321.23 656.57 320.78 657.50 316.60 C 651.58 316.39 646.23 319.28 641.89 323.06 C 644.00 317.70 645.86 312.11 649.35 307.45 C 651.59 304.28 654.73 301.94 657.46 299.23 C 650.34 300.30 645.96 306.72 642.67 312.50 C 643.13 304.01 642.52 295.51 642.44 287.01 C 642.34 282.04 642.63 277.04 641.83 272.11 C 639.23 273.83 639.46 277.19 639.12 279.91 C 638.13 294.27 639.44 308.73 637.68 323.04 C 635.53 331.58 633.11 340.11 632.16 348.90 C 631.34 355.84 630.72 363.04 627.25 369.27 C 623.56 377.20 617.27 384.71 618.51 394.03 C 619.44 399.40 616.65 404.26 615.12 409.22 C 612.77 416.12 609.28 422.87 603.60 427.61 C 599.79 430.98 594.62 433.70 589.41 432.39 C 579.04 429.56 569.39 424.53 560.43 418.66 C 558.87 417.63 557.10 416.98 555.36 416.38 C 557.88 421.56 563.47 423.92 567.89 427.18 C 575.22 432.47 583.88 436.18 592.98 436.74 C 599.69 436.87 605.91 433.24 610.20 428.25 C 615.60 422.10 618.08 414.08 620.12 406.31 C 622.00 412.08 624.39 417.83 624.50 424.00 C 625.21 436.05 619.87 447.21 618.13 458.94 C 616.18 468.83 616.74 478.95 616.02 488.95 C 615.35 498.59 612.12 508.29 605.66 515.63 C 600.81 521.20 593.12 523.41 585.94 523.30 C 575.97 523.39 565.91 526.49 556.02 524.21 C 541.10 521.20 529.17 511.32 516.62 503.41 C 518.43 492.36 517.41 481.12 516.88 470.01 C 516.48 460.45 514.50 450.64 517.25 441.25 C 519.84 432.00 521.75 422.56 522.76 413.01 C 529.46 426.91 540.01 438.39 551.17 448.84 C 558.55 455.83 565.97 462.88 574.31 468.74 C 576.38 470.33 578.91 471.06 581.47 471.42 C 578.68 467.23 574.18 464.74 570.59 461.34 C 558.69 450.60 547.21 439.30 537.32 426.65 C 532.74 420.71 528.43 414.47 525.34 407.61 C 524.43 405.55 523.55 403.32 523.93 401.03 C 525.26 388.74 530.23 377.26 534.99 365.99 C 539.60 368.22 543.88 371.05 548.37 373.51 C 555.72 377.26 563.69 380.13 571.98 380.71 C 574.15 380.78 576.89 381.05 578.31 378.99 C 577.33 374.87 574.66 371.22 574.46 366.86 C 573.52 353.26 579.55 340.60 583.96 328.09 C 589.80 308.20 594.37 287.75 595.10 266.96 C 595.10 262.41 594.97 257.84 594.33 253.33 C 594.13 251.46 592.90 249.83 590.99 249.47 C 589.44 250.48 590.34 252.55 590.18 254.04 C 590.81 275.53 586.61 296.81 581.46 317.56 C 579.68 325.18 576.89 332.49 574.12 339.80 C 573.07 333.56 571.34 327.47 569.75 321.35 C 568.89 318.24 568.35 314.86 566.05 312.41 C 565.35 318.79 567.82 324.88 568.92 331.07 C 570.33 338.91 571.97 347.08 570.00 354.98 C 568.43 362.35 568.68 370.30 572.24 377.09 C 562.73 374.81 553.59 370.94 545.34 365.69 C 528.63 355.06 507.29 354.49 488.64 359.72 C 493.40 347.75 494.77 334.84 497.60 322.36 C 500.35 313.98 506.58 307.39 510.47 299.58 C 514.73 290.59 516.82 280.78 518.48 271.03 C 518.61 268.89 519.48 266.37 518.11 264.47 C 516.16 263.60 515.95 266.35 515.43 267.52 C 511.59 281.41 508.63 295.97 500.43 308.11 C 502.97 296.41 506.10 284.85 509.24 273.31 C 514.04 254.93 520.92 236.72 532.47 221.45 M 556.22 216.67 C 560.10 217.46 564.76 217.17 567.67 220.37 C 571.33 224.33 574.88 228.42 579.06 231.87 C 583.02 235.09 586.61 239.22 591.75 240.53 C 589.41 235.11 583.88 232.18 580.16 227.82 C 575.52 223.56 572.24 217.41 566.21 214.95 C 562.94 214.20 558.06 212.95 556.22 216.67 Z" />
        <path fill="var(--shirt-color, grey)" opacity="1.00"
            d=" M 486.56 364.48 C 487.69 364.21 488.84 363.95 489.99 363.69 C 484.28 374.33 481.54 386.22 479.15 397.96 C 477.64 405.21 476.80 412.59 476.72 420.00 C 476.52 432.55 479.08 444.92 481.77 457.12 C 476.82 459.42 471.80 461.69 467.48 465.09 C 465.19 460.57 462.45 456.28 460.22 451.73 C 458.22 447.74 458.63 443.13 459.31 438.87 C 461.09 428.57 464.02 418.52 466.63 408.41 C 468.86 399.59 471.71 390.88 475.77 382.73 C 478.86 376.35 483.24 370.73 486.56 364.48 Z" />
    </g>
    <g id="#ffffffff">
        <path fill="var(--pants-color, grey)" opacity="1.00"
            d=" M 447.42 521.47 C 451.38 514.77 455.52 508.17 459.91 501.75 C 461.93 505.95 463.32 510.95 467.28 513.79 C 470.58 515.89 474.20 511.69 473.06 508.40 C 474.75 509.15 476.51 509.69 478.39 509.68 C 478.74 511.17 478.82 513.89 481.04 513.65 C 489.93 513.65 498.82 512.47 507.53 510.71 C 510.27 510.28 512.63 508.79 514.70 507.01 C 521.00 511.28 526.67 516.49 533.40 520.14 C 528.21 524.36 522.93 528.48 518.17 533.20 C 511.42 539.79 505.55 547.27 498.28 553.33 C 492.91 557.77 487.09 561.67 481.00 565.06 C 479.78 565.59 479.06 566.69 478.57 567.89 C 483.52 568.06 487.73 565.16 491.78 562.72 C 497.93 558.66 504.08 554.51 509.46 549.44 C 515.15 544.14 520.19 538.18 525.90 532.88 C 529.73 529.30 533.69 525.85 537.47 522.21 C 544.83 525.94 552.72 528.97 560.98 529.84 C 571.37 529.91 581.66 528.01 592.03 527.65 C 592.44 530.85 592.92 534.03 593.43 537.22 C 588.59 541.09 584.78 546.05 580.00 550.00 C 573.73 555.22 566.83 559.99 558.94 562.38 C 549.42 565.52 539.31 565.54 529.47 566.74 C 532.51 569.01 536.45 568.79 540.06 568.69 C 546.12 568.37 552.16 567.60 558.14 566.60 C 567.93 564.89 576.57 559.35 583.92 552.88 C 588.06 549.29 591.29 544.79 595.32 541.09 C 596.76 539.61 599.04 540.82 600.55 541.60 C 602.17 543.37 603.24 545.56 604.67 547.49 C 601.28 547.84 597.80 548.21 594.74 549.81 C 588.28 553.00 583.61 558.62 578.34 563.36 C 571.01 570.00 563.08 576.28 553.81 579.97 C 550.24 581.56 546.34 582.17 542.66 583.44 C 543.69 584.74 545.27 585.37 546.93 585.22 C 552.93 584.93 558.43 582.21 563.84 579.83 C 571.09 576.59 577.49 571.73 583.20 566.25 C 588.07 561.80 592.41 556.53 598.36 553.45 C 602.54 552.64 606.83 551.95 611.10 551.87 C 618.09 553.44 623.13 559.00 628.44 563.42 C 646.76 580.17 666.86 594.95 684.19 612.78 C 673.49 618.05 663.41 624.61 654.31 632.33 C 647.70 638.08 642.03 645.20 634.01 649.10 C 621.88 654.66 608.56 658.49 598.53 667.76 C 594.24 673.48 591.32 679.98 588.63 686.57 C 575.73 680.87 565.27 671.05 553.44 663.55 C 545.42 658.24 536.49 654.25 527.06 652.25 C 542.42 641.42 559.37 633.02 576.74 625.94 C 586.19 621.97 596.34 619.90 605.70 615.71 C 606.42 613.41 603.53 613.44 602.05 613.79 C 577.37 618.57 553.82 628.48 532.60 641.86 C 536.93 637.10 541.04 632.11 545.94 627.91 C 549.07 624.93 552.86 622.53 555.15 618.78 C 550.05 619.46 546.52 623.66 542.55 626.53 C 521.75 642.33 508.07 665.01 492.71 685.67 C 483.33 697.91 467.98 703.66 453.09 705.36 C 429.96 708.42 406.57 699.33 388.89 684.69 C 391.80 678.78 395.81 673.50 398.71 667.58 C 404.91 657.52 408.79 646.27 412.18 635.02 C 414.62 627.26 413.42 618.77 416.81 611.25 C 421.17 612.02 425.61 610.71 428.99 607.90 C 436.28 602.19 441.77 594.61 447.69 587.58 C 450.30 583.85 454.16 580.45 454.37 575.60 C 450.39 577.36 448.30 581.42 445.41 584.43 C 438.14 592.57 431.37 601.54 422.02 607.43 C 419.26 607.23 415.79 605.22 417.08 601.95 C 419.92 594.32 424.55 587.32 426.18 579.24 C 427.21 574.13 427.72 568.94 428.85 563.85 C 431.83 548.55 439.33 534.63 447.42 521.47 M 458.35 550.08 C 450.75 559.46 445.24 570.35 437.85 579.90 C 435.06 583.65 431.27 586.47 428.27 590.03 C 428.32 592.75 431.09 590.61 432.28 590.13 C 443.18 583.19 449.14 571.22 455.35 560.34 C 457.26 556.63 460.05 553.27 460.90 549.10 C 460.26 549.34 458.99 549.83 458.35 550.08 Z" />
        <path fill="var(--socks-color, grey)" opacity="1.00"
            d=" M 303.98 715.12 C 325.66 711.93 348.98 713.80 368.17 725.16 C 361.60 735.45 359.92 748.08 359.73 760.06 C 359.69 766.48 360.19 773.02 362.44 779.10 C 358.72 778.03 354.91 777.12 351.02 777.15 C 338.61 777.09 326.31 778.92 313.95 779.75 C 293.71 781.82 273.37 782.78 253.03 782.37 C 239.65 782.08 226.20 782.36 212.90 780.65 C 204.95 779.52 196.32 777.45 191.01 770.91 C 188.65 767.23 188.39 762.53 189.68 758.41 C 192.96 747.66 201.58 739.34 211.28 734.13 C 220.06 729.37 230.38 730.56 239.99 730.03 C 262.10 728.77 282.21 718.22 303.98 715.12 Z" />
        <path fill="var(--socks-color, grey)" opacity="1.00"
            d=" M 691.21 717.74 C 706.66 714.28 722.93 715.45 738.02 720.01 C 743.25 721.56 748.21 724.02 752.39 727.56 C 749.26 743.30 745.28 758.90 743.44 774.87 C 742.43 785.89 741.23 796.91 741.21 807.98 C 740.95 829.34 740.62 850.72 739.41 872.05 C 738.86 884.02 735.98 896.09 729.21 906.12 C 719.35 917.99 702.49 922.26 687.75 918.71 C 687.57 904.13 687.25 889.53 685.79 875.01 C 683.54 842.31 674.61 809.81 678.58 776.88 C 679.72 764.25 682.16 751.68 686.71 739.81 C 689.60 732.81 691.53 725.37 691.21 717.74 Z" />
    </g>
    <g id="#4d4d4dff">
        <path fill="#4d4d4d" opacity="1.00"
            d=" M 215.33 691.27 C 221.49 685.82 231.75 685.88 238.04 691.05 C 242.59 695.35 243.58 702.02 244.10 707.96 C 244.54 714.92 239.72 720.59 235.33 725.41 C 226.45 726.01 217.09 725.68 208.93 729.80 C 198.57 734.95 189.95 743.87 185.69 754.68 C 183.91 759.82 183.21 765.94 186.12 770.83 C 187.87 774.08 190.61 776.62 193.27 779.13 C 184.66 782.77 176.29 787.10 169.02 793.03 C 160.79 799.78 151.33 805.28 140.93 807.85 C 136.19 808.85 130.79 809.20 126.46 806.64 C 120.77 802.66 119.44 794.92 120.64 788.48 C 122.69 776.78 127.90 765.67 135.26 756.39 C 141.69 748.52 150.25 742.71 159.32 738.29 C 165.98 734.80 173.28 732.66 179.72 728.76 C 184.90 725.66 188.13 720.41 192.10 716.03 C 199.60 707.57 206.52 698.46 215.33 691.27 Z" />
        <path fill="#4d4d4d" opacity="1.00"
            d=" M 737.81 901.41 C 743.29 901.11 748.90 901.06 754.17 902.87 C 765.04 906.37 775.48 911.43 786.88 913.11 C 799.17 914.76 811.59 913.77 823.94 913.89 C 829.41 914.11 835.52 914.49 839.89 918.17 C 842.37 922.53 839.27 927.22 836.83 930.81 C 831.60 939.13 823.73 945.38 815.33 950.28 C 806.27 955.50 796.30 959.34 785.86 960.52 C 775.91 961.86 765.69 960.04 755.87 962.53 C 743.76 965.58 732.12 970.33 721.11 976.19 C 714.92 979.23 707.27 982.74 700.54 979.35 C 695.22 975.54 692.74 968.93 691.24 962.80 C 688.92 949.99 689.38 936.88 687.83 923.98 C 699.84 927.23 713.17 925.35 723.73 918.75 C 730.22 914.74 734.66 908.21 737.81 901.41 Z" />
    </g>
</svg>