<?xml version="1.0" encoding="UTF-8" ?>
<!DOCTYPE svg PUBLIC "-//W3C//DTD SVG 1.1//EN" "http://www.w3.org/Graphics/SVG/1.1/DTD/svg11.dtd">
<svg width="1167pt" height="1167pt" viewBox="0 0 1167 1167" version="1.1" xmlns="http://www.w3.org/2000/svg">
    <g id="#050505ff">
        <path fill="#050505" opacity="1.00"
            d=" M 810.85 31.66 C 814.53 30.86 818.01 27.66 821.91 29.26 C 825.57 30.38 828.00 33.52 831.19 35.42 C 844.93 37.47 859.12 46.74 862.18 61.03 C 863.21 65.91 867.32 69.20 869.46 73.55 C 876.76 86.76 876.42 102.37 876.87 117.01 C 876.79 121.91 879.50 126.08 882.76 129.50 C 879.68 130.62 876.41 130.89 873.20 130.30 C 872.58 135.96 870.24 141.98 864.67 144.39 C 864.23 152.36 861.44 159.90 858.02 167.03 C 854.51 174.23 854.88 182.39 853.58 190.11 C 851.30 204.42 844.09 217.28 836.18 229.18 C 833.20 233.61 829.52 237.52 825.56 241.08 C 830.67 245.41 835.78 250.03 839.10 255.93 C 842.97 263.89 844.78 272.97 843.26 281.77 C 841.20 293.87 836.72 305.57 836.39 317.95 C 835.61 334.97 835.67 352.23 831.62 368.89 C 829.75 376.89 825.98 384.23 822.81 391.75 C 820.71 396.54 821.13 401.90 821.10 407.01 C 821.43 419.06 821.68 431.22 819.61 443.15 C 816.45 460.91 806.68 476.47 801.80 493.69 C 799.81 500.23 803.34 506.54 803.96 512.98 C 805.85 533.96 798.34 555.44 784.29 571.06 C 785.21 573.39 786.18 575.71 787.19 578.01 C 793.34 578.93 799.64 580.51 804.72 584.28 C 807.41 586.22 809.45 588.87 811.79 591.20 C 814.69 594.31 819.21 594.58 822.98 596.04 C 827.88 597.54 832.13 600.66 835.43 604.54 C 849.80 621.23 866.96 635.17 883.97 649.05 C 889.47 653.53 895.25 657.71 900.33 662.69 C 906.65 668.91 909.90 677.32 914.00 685.01 C 916.54 689.96 919.94 694.41 922.68 699.25 C 929.36 710.75 931.30 724.97 927.68 737.80 C 925.99 744.01 921.85 749.08 918.50 754.46 C 911.76 764.87 901.34 772.23 894.76 782.75 C 890.04 790.28 885.61 798.06 879.86 804.88 C 869.81 817.13 857.64 827.35 846.49 838.55 C 837.93 847.40 827.64 854.28 818.70 862.70 C 807.93 873.27 798.55 885.15 788.15 896.08 C 784.44 900.40 779.82 904.05 777.17 909.18 C 772.49 918.62 767.01 928.52 768.22 939.46 C 770.28 953.28 766.63 967.15 767.89 981.00 C 768.56 987.77 769.16 994.73 771.95 1001.02 C 774.93 1007.79 778.25 1014.43 782.22 1020.69 C 785.00 1025.57 788.23 1030.43 789.38 1036.02 C 790.11 1040.67 786.14 1044.56 781.85 1045.42 C 772.84 1047.32 763.94 1043.77 755.85 1040.17 C 744.68 1034.68 734.40 1027.10 726.42 1017.51 C 720.73 1010.55 716.54 1002.56 712.25 994.71 C 707.40 985.67 701.12 977.43 694.01 970.05 C 684.30 960.08 670.77 953.81 663.79 941.30 C 661.22 937.05 662.36 931.75 664.58 927.63 C 667.76 922.03 671.14 916.35 676.14 912.15 C 683.76 905.50 692.55 900.35 701.28 895.31 C 708.85 890.89 717.21 888.09 724.98 884.09 C 732.30 879.24 738.13 872.51 744.21 866.24 C 760.21 849.71 771.06 829.02 779.94 808.00 C 787.08 791.51 795.89 775.46 808.34 762.37 C 815.38 755.01 822.82 747.95 831.22 742.15 C 834.01 740.14 836.24 737.50 838.55 734.98 C 832.27 729.41 826.32 723.12 818.68 719.41 C 802.79 719.00 786.80 720.15 770.91 718.81 C 765.38 718.22 760.32 715.73 755.18 713.79 C 739.66 707.75 725.09 698.94 708.62 695.59 C 705.24 695.11 701.63 693.96 698.32 695.30 C 684.21 701.02 672.67 711.45 662.76 722.77 C 653.51 733.01 646.05 744.68 637.23 755.28 C 634.16 758.55 630.55 761.35 626.63 763.53 C 616.75 767.78 605.68 766.44 595.33 768.26 C 585.82 771.98 575.56 775.70 568.91 783.90 C 556.88 797.52 550.05 814.68 539.05 829.01 C 530.47 840.45 517.80 848.33 504.21 852.41 C 495.79 854.92 487.11 856.64 478.99 860.08 C 475.18 862.09 472.80 865.87 469.92 868.94 C 459.86 880.32 451.00 892.66 441.53 904.51 C 421.64 928.19 401.24 951.49 379.30 973.30 C 370.32 982.32 360.99 990.98 351.88 999.87 C 344.63 1006.74 338.18 1014.41 333.01 1022.97 C 334.69 1032.93 334.95 1043.21 332.72 1053.12 C 330.93 1063.56 326.67 1073.43 325.51 1084.00 C 323.25 1102.42 322.48 1121.07 318.37 1139.22 C 317.40 1144.40 312.03 1147.68 306.98 1147.42 C 298.60 1147.17 290.92 1143.27 283.78 1139.20 C 273.63 1132.97 264.62 1124.32 259.53 1113.42 C 255.82 1105.42 253.94 1096.71 252.96 1087.99 C 251.11 1072.48 248.83 1057.03 246.64 1041.57 C 245.31 1031.42 241.50 1021.84 239.39 1011.86 C 237.60 1004.91 236.09 996.75 240.30 990.37 C 244.01 986.34 249.81 985.42 254.09 982.17 C 261.44 976.70 269.45 971.95 278.37 969.57 C 287.41 966.61 297.83 966.74 305.56 960.61 C 312.64 951.68 320.77 943.52 326.66 933.69 C 342.23 908.10 354.67 880.58 372.30 856.27 C 383.64 841.08 397.40 827.74 412.84 816.77 C 426.77 806.73 442.29 799.25 457.71 791.83 C 465.57 788.65 472.07 782.61 476.43 775.40 C 481.05 767.71 484.22 759.27 488.45 751.37 C 492.26 744.35 495.81 737.00 501.47 731.24 C 500.88 727.44 499.32 723.08 501.63 719.56 C 503.09 717.24 504.58 714.87 505.00 712.12 C 507.02 701.79 509.88 691.10 516.96 682.99 C 520.17 678.86 524.89 675.78 526.78 670.74 C 528.72 664.30 525.64 657.57 527.31 651.09 C 528.68 645.62 532.46 641.23 536.38 637.35 C 538.60 634.96 541.30 632.50 541.66 629.06 C 542.20 623.49 541.28 617.70 543.24 612.33 C 545.87 605.00 550.54 598.55 555.81 592.89 C 551.38 586.75 550.73 578.60 552.53 571.42 C 553.72 566.75 555.00 561.92 557.94 557.99 C 559.81 555.42 562.36 553.48 564.86 551.55 C 566.37 541.24 570.58 531.60 573.76 521.74 C 582.70 498.78 588.00 474.56 597.96 451.97 C 589.04 453.63 579.66 455.56 570.70 453.17 C 566.17 451.84 563.99 447.20 563.53 442.84 C 562.71 437.22 562.31 431.53 562.14 425.86 C 562.13 419.78 566.76 415.19 569.61 410.21 C 565.56 404.92 567.24 398.01 569.48 392.35 C 573.75 381.53 579.68 371.49 585.11 361.24 C 589.83 351.40 594.12 341.36 598.26 331.27 C 602.26 321.66 608.00 312.77 615.52 305.54 C 619.77 301.09 624.99 297.39 627.76 291.72 C 634.89 278.80 644.48 267.21 656.20 258.21 C 661.66 254.03 668.08 250.95 672.39 245.43 C 683.29 232.40 696.36 220.64 712.43 214.48 C 719.49 211.04 727.35 210.33 735.06 209.63 C 738.59 195.49 734.22 181.15 730.08 167.66 C 725.79 153.34 717.12 140.24 716.23 125.00 C 715.72 121.29 718.16 117.96 717.82 114.27 C 717.51 110.00 716.74 105.68 717.66 101.43 C 718.58 97.15 720.20 93.06 721.37 88.84 C 720.00 90.70 718.64 92.57 717.24 94.40 C 715.11 89.97 716.35 84.92 717.56 80.41 C 720.79 70.05 726.39 59.77 735.72 53.74 C 739.83 50.88 745.29 49.65 747.94 45.02 C 753.59 36.92 763.56 33.81 772.85 32.25 C 785.47 29.93 798.33 34.91 810.85 31.66 M 852.18 148.60 C 850.51 156.29 847.72 163.68 845.26 171.14 C 843.10 177.12 840.52 183.36 835.59 187.60 C 833.32 189.42 828.67 190.24 827.38 186.92 C 828.17 185.60 830.06 185.82 831.32 185.14 C 833.62 184.34 834.86 182.02 836.12 180.09 C 840.14 173.03 842.24 165.11 844.68 157.41 C 845.48 154.67 846.56 151.97 846.86 149.10 C 846.10 146.72 842.61 146.59 840.86 147.90 C 837.22 150.73 835.31 155.09 832.68 158.75 C 829.42 163.26 827.05 168.31 824.10 173.00 C 822.51 175.63 819.30 176.20 816.85 177.66 C 814.86 185.23 816.40 195.26 808.86 200.18 C 805.36 197.53 801.58 194.37 796.93 194.50 C 793.87 194.71 794.29 198.41 793.88 200.54 C 789.65 198.42 786.35 194.97 782.82 191.91 C 782.53 192.61 781.96 194.02 781.67 194.72 C 773.97 195.06 765.62 193.22 760.41 187.10 C 754.33 190.37 747.52 193.52 740.47 191.33 C 741.22 197.41 740.48 203.56 738.74 209.41 C 743.52 209.79 748.32 210.40 752.91 211.87 C 760.71 214.18 767.79 218.65 775.90 219.97 C 783.52 221.20 791.35 221.64 798.68 224.29 C 807.21 227.11 813.95 233.25 821.24 238.24 C 825.10 233.15 829.72 228.63 833.13 223.19 C 838.21 215.18 843.05 206.86 845.82 197.73 C 848.01 191.02 848.66 183.96 849.48 176.99 C 850.71 166.08 858.25 157.29 860.32 146.58 C 857.67 147.50 854.94 148.14 852.18 148.60 M 717.00 220.03 C 710.72 222.85 704.48 225.86 698.87 229.86 C 691.90 234.79 685.95 240.94 679.76 246.78 C 675.35 251.03 671.21 255.66 666.02 259.01 C 659.04 263.51 652.89 269.15 647.20 275.16 C 641.41 281.24 637.17 288.54 632.51 295.47 C 628.05 302.82 621.14 308.16 615.79 314.81 C 608.38 323.23 604.22 333.78 600.01 344.01 C 593.49 359.67 585.19 374.47 577.56 389.59 C 575.10 393.95 572.93 398.48 571.37 403.24 C 576.05 409.57 582.89 413.81 589.96 417.01 C 595.01 419.28 600.59 419.78 606.01 420.53 C 609.78 402.47 611.20 384.01 615.02 365.96 C 617.93 353.68 621.21 341.44 626.34 329.88 C 628.37 332.05 628.46 334.90 627.41 337.58 C 620.68 358.96 618.09 381.31 615.27 403.47 C 613.52 415.21 611.07 426.84 608.61 438.45 C 606.25 449.76 600.93 460.09 597.16 470.94 C 593.88 480.20 591.16 489.64 588.13 498.97 C 582.88 515.52 575.40 531.28 570.62 547.98 C 575.89 545.38 581.38 542.88 585.48 538.53 C 596.08 528.23 600.55 513.71 605.37 500.15 C 608.86 489.21 614.18 479.00 618.46 468.36 C 620.82 463.12 623.11 457.66 626.99 453.34 C 630.51 452.95 628.47 456.98 627.88 458.86 C 623.89 467.76 620.97 477.09 617.04 486.02 C 612.25 496.99 609.17 508.59 604.69 519.68 C 600.27 530.86 593.06 541.14 583.32 548.30 C 575.93 553.07 566.57 555.99 561.83 563.93 C 558.79 570.37 556.51 577.75 558.41 584.87 C 559.71 590.68 566.12 593.02 571.16 594.71 C 583.05 597.41 595.03 593.14 606.99 593.11 C 617.65 593.33 627.89 589.94 637.86 586.58 C 650.68 582.38 662.70 575.64 676.15 573.53 C 687.77 571.09 699.57 574.03 710.74 577.17 C 721.32 579.87 731.70 583.31 742.33 585.80 C 756.08 589.63 771.12 591.37 784.89 586.74 C 782.66 582.91 780.72 578.91 779.31 574.71 C 774.23 559.97 771.00 544.55 769.96 528.99 C 770.09 526.33 769.18 522.64 772.05 521.13 C 774.18 524.31 774.25 528.26 774.93 531.90 C 776.59 543.70 779.20 555.38 782.95 566.70 C 794.72 548.87 801.87 526.26 795.98 505.08 C 794.97 501.31 795.44 497.13 793.35 493.70 C 789.82 487.40 786.11 481.16 783.59 474.37 C 780.12 465.10 777.06 455.68 773.86 446.32 C 769.80 434.40 767.27 421.42 758.83 411.61 C 762.63 411.80 765.59 414.31 767.47 417.45 C 773.37 426.77 776.10 437.60 780.10 447.78 C 785.51 461.34 789.06 475.74 796.89 488.23 C 800.47 475.37 807.46 463.79 811.12 450.96 C 816.47 434.16 814.61 416.32 815.48 398.99 C 815.58 392.06 819.38 386.11 821.85 379.86 C 826.69 368.87 828.43 356.87 829.80 345.03 C 830.98 335.03 830.57 324.94 831.43 314.92 C 832.13 303.66 835.89 292.93 837.97 281.91 C 839.52 273.52 838.03 264.58 833.83 257.17 C 829.09 251.22 822.79 246.73 816.50 242.54 C 810.92 238.78 806.02 233.95 799.83 231.17 C 791.67 227.44 782.61 226.76 773.90 225.10 C 764.79 223.33 756.77 218.24 747.74 216.18 C 737.48 213.45 726.43 215.46 717.00 220.03 M 566.35 426.94 C 566.99 433.16 566.89 439.53 568.58 445.60 C 569.06 447.66 571.04 448.91 573.03 449.25 C 582.13 450.40 591.05 447.66 600.01 446.52 C 601.97 440.24 603.41 433.81 604.73 427.37 C 592.53 426.34 581.08 420.62 571.87 412.73 C 569.70 417.29 565.76 421.56 566.35 426.94 M 657.24 585.31 C 647.26 589.64 636.95 593.14 626.58 596.41 C 620.05 598.73 613.02 598.08 606.26 599.06 C 596.49 599.86 586.79 601.88 576.96 601.56 C 570.51 601.44 564.36 598.92 559.00 595.48 C 554.68 601.01 550.52 606.87 548.32 613.60 C 546.18 619.96 548.71 626.89 546.41 633.22 C 543.83 639.85 536.92 643.43 533.94 649.83 C 530.62 656.53 534.67 664.08 532.65 671.07 C 531.07 678.62 523.94 682.71 519.68 688.58 C 513.64 696.39 512.07 706.41 509.85 715.75 C 509.25 718.91 506.72 721.11 505.40 723.92 C 504.94 727.58 507.17 730.90 509.44 733.56 C 519.84 744.72 533.69 752.04 548.02 756.84 C 570.12 763.86 593.71 763.69 616.54 761.24 C 626.43 759.14 634.21 751.75 639.68 743.58 C 648.23 731.09 657.77 719.20 668.88 708.88 C 675.16 703.03 682.43 698.41 689.08 693.00 C 681.37 691.42 674.14 688.22 667.05 684.91 C 664.25 683.47 661.29 682.21 658.91 680.13 C 657.47 679.15 658.49 677.60 658.58 676.29 C 665.71 680.89 673.92 683.35 681.82 686.29 C 691.47 689.80 701.92 689.30 711.85 691.54 C 731.96 696.18 749.38 708.01 768.97 714.12 C 778.18 716.77 787.63 713.95 796.99 714.55 C 805.99 714.90 814.97 714.16 823.97 714.02 C 831.73 713.60 839.64 712.97 846.96 710.14 C 853.67 707.58 860.62 705.42 866.86 701.78 C 873.45 697.60 878.84 691.88 884.46 686.54 C 889.67 681.37 895.69 676.54 903.04 674.97 C 900.61 670.56 897.43 666.60 893.54 663.41 C 885.37 656.59 876.81 650.26 868.77 643.29 C 858.42 634.26 847.82 625.45 838.57 615.27 C 836.74 617.83 834.64 620.20 832.15 622.13 C 821.93 630.33 809.59 635.60 796.89 638.58 C 787.67 640.75 778.34 642.59 768.89 643.38 C 765.11 643.54 760.79 644.08 757.72 641.36 C 762.90 639.32 768.54 639.53 773.93 638.44 C 790.58 635.46 807.59 631.97 822.36 623.35 C 827.22 620.28 832.33 617.19 835.72 612.42 C 833.31 609.45 830.96 606.38 828.03 603.92 C 824.87 601.34 820.83 600.34 817.01 599.19 C 812.70 608.68 803.99 615.46 794.62 619.56 C 786.07 623.20 777.15 625.99 768.07 627.91 C 762.82 628.89 757.40 629.99 752.11 628.70 C 754.78 626.12 758.73 626.32 762.13 625.53 C 773.66 623.18 785.06 619.84 795.73 614.82 C 803.20 611.22 809.54 605.51 814.02 598.55 C 809.87 596.76 807.15 593.12 804.16 589.92 C 801.07 586.57 796.64 585.13 792.43 583.81 C 789.21 590.33 781.93 593.23 775.11 594.07 C 756.71 596.45 738.67 590.90 721.17 585.98 C 709.27 582.79 697.46 578.35 685.00 578.21 C 675.40 578.77 666.01 581.45 657.24 585.31 M 893.10 685.12 C 883.73 693.49 875.69 703.93 863.89 709.07 C 852.93 713.63 841.74 718.43 829.69 718.92 C 834.75 722.91 840.07 726.90 843.69 732.32 C 845.75 735.50 842.30 738.35 840.50 740.66 C 853.02 741.12 865.26 744.53 876.86 749.10 C 886.17 753.09 895.77 757.59 902.40 765.54 C 910.04 758.01 917.11 749.76 922.28 740.32 C 926.21 731.95 925.57 722.12 923.33 713.36 C 921.49 705.85 917.12 699.38 912.90 693.04 C 910.08 688.88 908.09 684.25 905.46 679.99 C 905.12 679.85 904.43 679.57 904.08 679.42 C 899.92 679.91 896.32 682.59 893.10 685.12 M 482.28 775.29 C 477.64 783.66 470.62 790.84 461.92 794.97 C 453.81 798.77 445.88 802.93 438.02 807.23 C 447.93 810.98 456.44 817.70 463.49 825.50 C 470.85 833.86 477.00 844.13 477.45 855.54 C 484.86 853.27 492.08 850.43 499.57 848.42 C 510.01 845.44 520.13 840.63 528.09 833.12 C 533.79 827.66 538.41 821.18 542.39 814.39 C 549.78 802.04 556.67 789.18 566.64 778.65 C 571.06 773.90 576.88 770.87 582.59 767.96 C 570.50 767.65 558.38 766.00 546.82 762.37 C 530.66 756.94 514.85 748.64 503.78 735.35 C 495.04 747.76 489.61 762.08 482.28 775.29 M 810.26 769.25 C 798.40 783.04 790.48 799.63 783.19 816.15 C 778.84 826.05 773.93 835.76 767.63 844.58 C 762.48 852.63 756.99 860.50 750.44 867.48 C 743.49 874.90 736.47 882.37 728.41 888.59 C 725.57 898.39 727.82 908.97 732.17 917.97 C 735.96 925.29 741.09 932.63 748.85 936.09 C 752.62 937.90 757.56 937.74 760.62 934.65 C 765.30 930.80 764.91 924.26 766.94 919.05 C 771.06 907.33 779.70 897.99 788.20 889.24 C 800.87 876.24 811.49 861.16 826.08 850.13 C 833.11 844.89 839.47 838.89 845.73 832.79 C 857.87 820.56 871.20 809.30 881.07 795.04 C 887.18 785.96 892.00 775.92 899.80 768.08 C 891.06 760.25 880.15 755.39 869.18 751.58 C 858.02 747.79 846.27 745.16 834.42 745.72 C 825.48 752.57 817.70 760.84 810.26 769.25 M 382.16 853.05 C 362.09 877.89 349.02 907.31 332.40 934.39 C 325.10 946.16 315.86 956.63 306.04 966.34 C 305.44 973.11 306.46 979.94 308.39 986.44 C 312.46 999.23 319.23 1011.82 330.13 1020.05 C 335.04 1009.88 343.40 1002.09 351.24 994.20 C 382.26 964.55 411.72 933.22 438.76 899.88 C 449.45 885.72 459.87 871.23 472.56 858.76 C 471.35 846.03 463.82 834.88 454.86 826.18 C 447.86 819.38 439.12 814.65 429.83 811.82 C 411.73 822.69 395.48 836.66 382.16 853.05 M 696.73 903.80 C 686.94 909.45 676.33 915.49 671.12 926.04 C 669.20 929.95 665.99 934.80 668.82 939.06 C 672.79 945.61 678.78 950.58 684.76 955.23 C 692.97 961.63 700.62 968.84 706.81 977.25 C 716.69 989.55 721.34 1005.24 732.03 1016.97 C 742.88 1028.75 757.14 1037.78 772.95 1040.97 C 776.85 1041.36 782.39 1042.09 784.70 1038.08 C 784.00 1033.06 780.95 1028.82 778.56 1024.49 C 774.35 1017.76 770.70 1010.70 767.52 1003.43 C 763.96 995.46 763.30 986.60 762.66 978.01 C 761.82 965.20 765.34 952.44 763.54 939.66 C 760.57 941.21 757.52 943.04 754.05 942.93 C 745.70 943.13 738.59 937.54 733.38 931.54 C 724.25 920.61 719.58 905.84 721.56 891.65 C 713.21 895.55 704.79 899.30 696.73 903.80 M 272.05 978.07 C 264.24 981.12 258.38 987.55 250.58 990.59 C 248.43 991.61 245.96 992.33 244.34 994.18 C 242.79 999.78 244.71 1005.52 246.22 1010.91 C 248.88 1020.90 252.01 1030.82 253.21 1041.13 C 254.57 1051.90 256.01 1062.67 257.34 1073.45 C 258.77 1085.45 259.01 1097.89 263.90 1109.16 C 267.39 1117.63 273.80 1124.47 280.75 1130.27 C 284.42 1133.24 288.00 1136.56 292.48 1138.28 C 298.79 1140.42 305.42 1142.23 312.15 1141.43 C 314.78 1133.18 315.82 1124.54 317.18 1116.02 C 319.26 1100.77 318.65 1085.06 323.23 1070.21 C 327.57 1055.49 331.28 1039.96 328.46 1024.58 C 321.34 1020.13 315.89 1013.53 311.74 1006.33 C 305.31 994.89 300.60 981.74 302.10 968.45 C 292.59 973.16 281.64 973.52 272.05 978.07 Z" />
        <path fill="#050505" opacity="1.00"
            d=" M 729.59 243.46 C 734.24 242.09 738.94 240.26 743.89 240.63 C 742.71 241.88 741.51 243.18 739.87 243.79 C 733.01 246.77 725.37 248.52 719.68 253.65 C 712.11 259.92 706.76 268.23 700.44 275.63 C 709.75 271.36 719.23 267.39 728.06 262.18 C 732.22 259.85 736.00 256.72 740.67 255.44 C 739.26 259.80 734.87 261.80 731.49 264.39 C 709.92 278.99 684.12 285.45 661.98 299.01 C 653.12 305.23 644.60 312.44 639.00 321.85 C 656.17 317.51 674.70 322.04 689.13 331.92 C 701.59 340.47 711.79 353.73 713.35 369.12 C 714.24 376.74 712.03 384.31 708.31 390.91 C 710.39 390.36 712.60 389.83 714.05 388.10 C 721.75 380.08 728.26 371.00 735.97 362.98 C 750.99 347.01 765.86 330.65 783.58 317.59 C 784.67 316.71 786.81 317.30 786.36 319.05 C 784.04 323.26 780.22 326.39 776.81 329.69 C 766.24 338.80 757.01 349.29 747.23 359.20 C 740.58 366.22 734.11 373.41 728.15 381.03 C 735.18 380.12 742.11 382.04 749.12 381.92 C 755.44 381.97 759.44 376.48 763.55 372.50 C 773.82 362.35 781.57 349.94 792.20 340.14 C 797.50 335.11 804.38 331.67 808.33 325.31 C 811.12 321.37 812.06 316.53 814.32 312.34 C 815.41 310.30 817.54 312.29 817.29 313.91 C 817.03 323.75 810.63 332.30 802.94 337.92 C 790.14 347.21 782.45 361.42 771.73 372.75 C 767.32 377.29 763.25 382.40 757.74 385.66 C 752.63 388.43 746.51 388.05 741.03 386.73 C 735.65 385.40 730.10 385.10 724.63 384.36 C 724.23 386.19 723.55 388.02 723.86 389.93 C 724.64 398.68 726.17 407.36 728.42 415.84 C 730.65 423.45 733.71 430.80 736.86 438.07 C 740.43 446.40 745.05 454.25 748.21 462.77 C 750.66 469.33 752.80 476.01 755.59 482.45 C 757.04 486.25 759.02 489.94 759.64 494.01 C 759.85 495.21 759.35 496.07 758.15 496.58 C 756.19 494.39 755.02 491.67 753.82 489.03 C 750.60 481.87 747.34 474.72 744.56 467.37 C 740.27 455.79 733.59 445.28 729.36 433.67 C 723.73 420.01 720.47 405.33 720.19 390.55 C 717.50 393.00 714.89 396.37 710.97 396.62 C 706.58 396.11 702.42 394.41 698.02 393.88 C 700.32 410.84 701.24 427.95 703.69 444.90 C 705.15 457.32 707.81 469.56 709.70 481.92 C 710.69 488.52 712.25 495.06 714.77 501.25 C 718.02 509.36 725.03 515.29 732.46 519.52 C 738.90 523.10 747.27 522.83 752.65 528.36 C 757.14 532.99 757.04 539.93 757.58 545.94 C 757.93 553.53 758.99 561.63 755.85 568.80 C 754.05 572.39 749.65 572.08 746.36 571.21 C 744.96 573.46 743.61 576.09 740.94 577.02 C 737.92 578.39 734.66 577.11 731.71 576.24 C 727.89 578.44 723.54 577.61 720.08 575.17 C 715.02 577.14 708.83 575.95 705.29 571.71 C 701.93 567.64 701.50 562.16 701.34 557.11 C 701.32 553.87 697.31 553.14 695.03 551.87 C 688.57 548.76 680.18 547.38 676.43 540.58 C 674.33 534.57 675.00 527.97 673.14 521.87 C 669.75 510.21 666.63 498.47 662.89 486.93 C 660.25 478.48 656.52 470.42 653.91 461.97 C 649.91 450.49 648.28 438.40 645.61 426.58 C 640.85 405.92 637.77 384.92 633.53 364.15 C 631.96 353.10 630.98 341.28 635.17 330.67 C 634.48 329.00 632.84 327.41 633.51 325.48 C 635.04 319.77 638.47 314.72 642.25 310.24 C 649.96 302.06 658.78 294.77 668.97 289.88 C 672.23 287.92 676.50 287.05 678.62 283.62 C 682.44 277.88 684.18 271.12 686.87 264.84 C 689.26 259.01 694.48 254.94 699.68 251.71 C 701.22 250.59 703.12 251.35 704.85 251.43 C 701.94 254.31 698.91 257.07 695.95 259.90 C 688.81 265.96 687.93 276.00 682.73 283.42 C 686.69 281.59 690.70 279.88 694.68 278.10 C 701.55 268.59 707.41 258.10 716.35 250.30 C 720.09 246.92 724.80 244.90 729.59 243.46 M 642.23 331.24 C 637.91 335.66 638.53 342.31 638.31 348.00 C 638.02 358.51 640.60 368.77 642.46 379.04 C 646.75 401.92 651.19 424.77 655.76 447.60 C 657.82 457.44 661.09 466.98 664.71 476.34 C 669.34 488.79 672.69 501.64 676.38 514.37 C 678.09 520.47 679.99 526.55 680.72 532.87 C 681.64 536.97 683.11 542.10 687.64 543.44 C 693.70 546.01 700.88 547.62 705.07 553.11 C 707.10 558.16 704.82 564.66 709.11 568.92 C 711.39 570.93 716.44 572.82 718.12 569.22 C 720.08 563.69 719.01 557.55 720.98 552.02 C 721.45 552.11 722.40 552.28 722.87 552.36 C 725.13 558.66 724.09 565.78 722.60 572.18 C 724.46 572.33 726.41 573.00 728.27 572.37 C 731.55 565.49 730.71 557.56 732.57 550.32 C 732.63 548.39 735.72 549.38 735.42 550.97 C 736.16 558.44 735.10 565.99 733.39 573.27 C 735.98 572.80 739.43 572.51 740.50 569.61 C 742.93 562.89 740.98 555.48 742.94 548.68 C 743.45 548.69 744.48 548.72 745.00 548.73 C 747.77 554.42 746.71 561.01 746.88 567.12 C 748.29 566.85 749.70 566.58 751.12 566.31 C 753.09 557.97 752.07 549.37 751.63 540.92 C 751.28 537.68 751.13 533.83 748.29 531.67 C 745.41 529.46 741.83 528.49 738.43 527.41 C 729.21 524.88 721.85 518.29 715.26 511.66 C 709.48 505.82 707.55 497.61 705.67 489.89 C 701.14 465.42 696.67 440.87 695.01 416.00 C 692.59 394.84 691.49 373.16 684.10 352.97 C 683.66 351.35 682.38 348.59 685.03 348.09 C 689.32 353.69 691.12 360.76 693.20 367.40 C 697.76 364.99 702.11 362.14 705.78 358.48 C 696.50 338.41 674.92 325.14 652.96 324.87 C 648.35 324.34 645.11 328.26 642.23 331.24 M 694.27 372.23 C 695.59 378.31 696.69 384.45 697.48 390.63 C 699.91 390.23 702.36 389.89 704.82 389.60 C 709.11 381.55 710.07 372.10 707.60 363.33 C 703.80 367.17 699.34 370.31 694.27 372.23 Z" />
        <path fill="#050505" opacity="1.00"
            d=" M 551.43 612.83 C 554.66 612.08 554.60 616.38 555.31 618.44 C 557.08 629.68 565.57 638.03 573.72 645.22 C 579.94 650.88 587.07 655.37 593.99 660.06 C 595.28 662.51 591.17 661.46 590.11 661.02 C 583.86 658.29 578.43 654.04 572.93 650.07 C 565.94 644.76 558.95 638.84 554.92 630.87 C 552.24 625.29 551.35 618.97 551.43 612.83 Z" />
        <path fill="#050505" opacity="1.00"
            d=" M 555.61 655.51 C 554.82 653.79 555.32 651.97 556.78 650.84 C 559.28 656.42 562.81 661.56 567.44 665.60 C 579.02 675.40 593.31 681.39 607.89 685.14 C 610.56 685.89 613.41 686.28 615.79 687.80 C 615.36 688.20 614.48 689.00 614.04 689.40 C 609.29 689.48 604.70 688.04 600.12 687.00 C 590.66 684.75 581.45 681.16 573.39 675.68 C 565.81 670.75 558.76 664.18 555.61 655.51 Z" />
    </g>
    <g id="#f0b58bff">
        <path fill="#f0b58b" opacity="1.00"
            d=" M 852.18 148.60 C 854.94 148.14 857.67 147.50 860.32 146.58 C 858.25 157.29 850.71 166.08 849.48 176.99 C 848.66 183.96 848.01 191.02 845.82 197.73 C 843.05 206.86 838.21 215.18 833.13 223.19 C 829.72 228.63 825.10 233.15 821.24 238.24 C 813.95 233.25 807.21 227.11 798.68 224.29 C 791.35 221.64 783.52 221.20 775.90 219.97 C 767.79 218.65 760.71 214.18 752.91 211.87 C 748.32 210.40 743.52 209.79 738.74 209.41 C 740.48 203.56 741.22 197.41 740.47 191.33 C 747.52 193.52 754.33 190.37 760.41 187.10 C 765.62 193.22 773.97 195.06 781.67 194.72 C 781.96 194.02 782.53 192.61 782.82 191.91 C 786.35 194.97 789.65 198.42 793.88 200.54 C 794.29 198.41 793.87 194.71 796.93 194.50 C 801.58 194.37 805.36 197.53 808.86 200.18 C 816.40 195.26 814.86 185.23 816.85 177.66 C 819.30 176.20 822.51 175.63 824.10 173.00 C 827.05 168.31 829.42 163.26 832.68 158.75 C 835.31 155.09 837.22 150.73 840.86 147.90 C 842.61 146.59 846.10 146.72 846.86 149.10 C 846.56 151.97 845.48 154.67 844.68 157.41 C 842.24 165.11 840.14 173.03 836.12 180.09 C 834.86 182.02 833.62 184.34 831.32 185.14 C 830.06 185.82 828.17 185.60 827.38 186.92 C 828.67 190.24 833.32 189.42 835.59 187.60 C 840.52 183.36 843.10 177.12 845.26 171.14 C 847.72 163.68 850.51 156.29 852.18 148.60 Z" />
        <path fill="#f0b58b" opacity="1.00"
            d=" M 642.23 331.24 C 645.11 328.26 648.35 324.34 652.96 324.87 C 674.92 325.14 696.50 338.41 705.78 358.48 C 702.11 362.14 697.76 364.99 693.20 367.40 C 691.12 360.76 689.32 353.69 685.03 348.09 C 682.38 348.59 683.66 351.35 684.10 352.97 C 691.49 373.16 692.59 394.84 695.01 416.00 C 696.67 440.87 701.14 465.42 705.67 489.89 C 707.55 497.61 709.48 505.82 715.26 511.66 C 721.85 518.29 729.21 524.88 738.43 527.41 C 741.83 528.49 745.41 529.46 748.29 531.67 C 751.13 533.83 751.28 537.68 751.63 540.92 C 752.07 549.37 753.09 557.97 751.12 566.31 C 749.70 566.58 748.29 566.85 746.88 567.12 C 746.71 561.01 747.77 554.42 745.00 548.73 C 744.48 548.72 743.45 548.69 742.94 548.68 C 740.98 555.48 742.93 562.89 740.50 569.61 C 739.43 572.51 735.98 572.80 733.39 573.27 C 735.10 565.99 736.16 558.44 735.42 550.97 C 735.72 549.38 732.63 548.39 732.57 550.32 C 730.71 557.56 731.55 565.49 728.27 572.37 C 726.41 573.00 724.46 572.33 722.60 572.18 C 724.09 565.78 725.13 558.66 722.87 552.36 C 722.40 552.28 721.45 552.11 720.98 552.02 C 719.01 557.55 720.08 563.69 718.12 569.22 C 716.44 572.82 711.39 570.93 709.11 568.92 C 704.82 564.66 707.10 558.16 705.07 553.11 C 700.88 547.62 693.70 546.01 687.64 543.44 C 683.11 542.10 681.64 536.97 680.72 532.87 C 679.99 526.55 678.09 520.47 676.38 514.37 C 672.69 501.64 669.34 488.79 664.71 476.34 C 661.09 466.98 657.82 457.44 655.76 447.60 C 651.19 424.77 646.75 401.92 642.46 379.04 C 640.60 368.77 638.02 358.51 638.31 348.00 C 638.53 342.31 637.91 335.66 642.23 331.24 Z" />
        <path fill="#f0b58b" opacity="1.00"
            d=" M 566.35 426.94 C 565.76 421.56 569.70 417.29 571.87 412.73 C 581.08 420.62 592.53 426.34 604.73 427.37 C 603.41 433.81 601.97 440.24 600.01 446.52 C 591.05 447.66 582.13 450.40 573.03 449.25 C 571.04 448.91 569.06 447.66 568.58 445.60 C 566.89 439.53 566.99 433.16 566.35 426.94 Z" />
        <path fill="#f0b58b" opacity="1.00"
            d=" M 893.10 685.12 C 896.32 682.59 899.92 679.91 904.08 679.42 C 904.43 679.57 905.12 679.85 905.46 679.99 C 908.09 684.25 910.08 688.88 912.90 693.04 C 917.12 699.38 921.49 705.85 923.33 713.36 C 925.57 722.12 926.21 731.95 922.28 740.32 C 917.11 749.76 910.04 758.01 902.40 765.54 C 895.77 757.59 886.17 753.09 876.86 749.10 C 865.26 744.53 853.02 741.12 840.50 740.66 C 842.30 738.35 845.75 735.50 843.69 732.32 C 840.07 726.90 834.75 722.91 829.69 718.92 C 841.74 718.43 852.93 713.63 863.89 709.07 C 875.69 703.93 883.73 693.49 893.10 685.12 Z" />
        <path fill="#f0b58b" opacity="1.00"
            d=" M 482.28 775.29 C 489.61 762.08 495.04 747.76 503.78 735.35 C 514.85 748.64 530.66 756.94 546.82 762.37 C 558.38 766.00 570.50 767.65 582.59 767.96 C 576.88 770.87 571.06 773.90 566.64 778.65 C 556.67 789.18 549.78 802.04 542.39 814.39 C 538.41 821.18 533.79 827.66 528.09 833.12 C 520.13 840.63 510.01 845.44 499.57 848.42 C 492.08 850.43 484.86 853.27 477.45 855.54 C 477.00 844.13 470.85 833.86 463.49 825.50 C 456.44 817.70 447.93 810.98 438.02 807.23 C 445.88 802.93 453.81 798.77 461.92 794.97 C 470.62 790.84 477.64 783.66 482.28 775.29 Z" />
    </g>
    <g id="#f11b27ff">
        <path fill="var(--shirt-color, grey)" opacity="1.00"
            d=" M 717.00 220.03 C 726.43 215.46 737.48 213.45 747.74 216.18 C 756.77 218.24 764.79 223.33 773.90 225.10 C 782.61 226.76 791.67 227.44 799.83 231.17 C 806.02 233.95 810.92 238.78 816.50 242.54 C 822.79 246.73 829.09 251.22 833.83 257.17 C 838.03 264.58 839.52 273.52 837.97 281.91 C 835.89 292.93 832.13 303.66 831.43 314.92 C 830.57 324.94 830.98 335.03 829.80 345.03 C 828.43 356.87 826.69 368.87 821.85 379.86 C 819.38 386.11 815.58 392.06 815.48 398.99 C 814.61 416.32 816.47 434.16 811.12 450.96 C 807.46 463.79 800.47 475.37 796.89 488.23 C 789.06 475.74 785.51 461.34 780.10 447.78 C 776.10 437.60 773.37 426.77 767.47 417.45 C 765.59 414.31 762.63 411.80 758.83 411.61 C 767.27 421.42 769.80 434.40 773.86 446.32 C 777.06 455.68 780.12 465.10 783.59 474.37 C 786.11 481.16 789.82 487.40 793.35 493.70 C 795.44 497.13 794.97 501.31 795.98 505.08 C 801.87 526.26 794.72 548.87 782.95 566.70 C 779.20 555.38 776.59 543.70 774.93 531.90 C 774.25 528.26 774.18 524.31 772.05 521.13 C 769.18 522.64 770.09 526.33 769.96 528.99 C 771.00 544.55 774.23 559.97 779.31 574.71 C 780.72 578.91 782.66 582.91 784.89 586.74 C 771.12 591.37 756.08 589.63 742.33 585.80 C 731.70 583.31 721.32 579.87 710.74 577.17 C 699.57 574.03 687.77 571.09 676.15 573.53 C 662.70 575.64 650.68 582.38 637.86 586.58 C 627.89 589.94 617.65 593.33 606.99 593.11 C 595.03 593.14 583.05 597.41 571.16 594.71 C 566.12 593.02 559.71 590.68 558.41 584.87 C 556.51 577.75 558.79 570.37 561.83 563.93 C 566.57 555.99 575.93 553.07 583.32 548.30 C 593.06 541.14 600.27 530.86 604.69 519.68 C 609.17 508.59 612.25 496.99 617.04 486.02 C 620.97 477.09 623.89 467.76 627.88 458.86 C 628.47 456.98 630.51 452.95 626.99 453.34 C 623.11 457.66 620.82 463.12 618.46 468.36 C 614.18 479.00 608.86 489.21 605.37 500.15 C 600.55 513.71 596.08 528.23 585.48 538.53 C 581.38 542.88 575.89 545.38 570.62 547.98 C 575.40 531.28 582.88 515.52 588.13 498.97 C 591.16 489.64 593.88 480.20 597.16 470.94 C 600.93 460.09 606.25 449.76 608.61 438.45 C 611.07 426.84 613.52 415.21 615.27 403.47 C 618.09 381.31 620.68 358.96 627.41 337.58 C 628.46 334.90 628.37 332.05 626.34 329.88 C 621.21 341.44 617.93 353.68 615.02 365.96 C 611.20 384.01 609.78 402.47 606.01 420.53 C 600.59 419.78 595.01 419.28 589.96 417.01 C 582.89 413.81 576.05 409.57 571.37 403.24 C 572.93 398.48 575.10 393.95 577.56 389.59 C 585.19 374.47 593.49 359.67 600.01 344.01 C 604.22 333.78 608.38 323.23 615.79 314.81 C 621.14 308.16 628.05 302.82 632.51 295.47 C 637.17 288.54 641.41 281.24 647.20 275.16 C 652.89 269.15 659.04 263.51 666.02 259.01 C 671.21 255.66 675.35 251.03 679.76 246.78 C 685.95 240.94 691.90 234.79 698.87 229.86 C 704.48 225.86 710.72 222.85 717.00 220.03 M 729.59 243.46 C 724.80 244.90 720.09 246.92 716.35 250.30 C 707.41 258.10 701.55 268.59 694.68 278.10 C 690.70 279.88 686.69 281.59 682.73 283.42 C 687.93 276.00 688.81 265.96 695.95 259.90 C 698.91 257.07 701.94 254.31 704.85 251.43 C 703.12 251.35 701.22 250.59 699.68 251.71 C 694.48 254.94 689.26 259.01 686.87 264.84 C 684.18 271.12 682.44 277.88 678.62 283.62 C 676.50 287.05 672.23 287.92 668.97 289.88 C 658.78 294.77 649.96 302.06 642.25 310.24 C 638.47 314.72 635.04 319.77 633.51 325.48 C 632.84 327.41 634.48 329.00 635.17 330.67 C 630.98 341.28 631.96 353.10 633.53 364.15 C 637.77 384.92 640.85 405.92 645.61 426.58 C 648.28 438.40 649.91 450.49 653.91 461.97 C 656.52 470.42 660.25 478.48 662.89 486.93 C 666.63 498.47 669.75 510.21 673.14 521.87 C 675.00 527.97 674.33 534.57 676.43 540.58 C 680.18 547.38 688.57 548.76 695.03 551.87 C 697.31 553.14 701.32 553.87 701.34 557.11 C 701.50 562.16 701.93 567.64 705.29 571.71 C 708.83 575.95 715.02 577.14 720.08 575.17 C 723.54 577.61 727.89 578.44 731.71 576.24 C 734.66 577.11 737.92 578.39 740.94 577.02 C 743.61 576.09 744.96 573.46 746.36 571.21 C 749.65 572.08 754.05 572.39 755.85 568.80 C 758.99 561.63 757.93 553.53 757.58 545.94 C 757.04 539.93 757.14 532.99 752.65 528.36 C 747.27 522.83 738.90 523.10 732.46 519.52 C 725.03 515.29 718.02 509.36 714.77 501.25 C 712.25 495.06 710.69 488.52 709.70 481.92 C 707.81 469.56 705.15 457.32 703.69 444.90 C 701.24 427.95 700.32 410.84 698.02 393.88 C 702.42 394.41 706.58 396.11 710.97 396.62 C 714.89 396.37 717.50 393.00 720.19 390.55 C 720.47 405.33 723.73 420.01 729.36 433.67 C 733.59 445.28 740.27 455.79 744.56 467.37 C 747.34 474.72 750.60 481.87 753.82 489.03 C 755.02 491.67 756.19 494.39 758.15 496.58 C 759.35 496.07 759.85 495.21 759.64 494.01 C 759.02 489.94 757.04 486.25 755.59 482.45 C 752.80 476.01 750.66 469.33 748.21 462.77 C 745.05 454.25 740.43 446.40 736.86 438.07 C 733.71 430.80 730.65 423.45 728.42 415.84 C 726.17 407.36 724.64 398.68 723.86 389.93 C 723.55 388.02 724.23 386.19 724.63 384.36 C 730.10 385.10 735.65 385.40 741.03 386.73 C 746.51 388.05 752.63 388.43 757.74 385.66 C 763.25 382.40 767.32 377.29 771.73 372.75 C 782.45 361.42 790.14 347.21 802.94 337.92 C 810.63 332.30 817.03 323.75 817.29 313.91 C 817.54 312.29 815.41 310.30 814.32 312.34 C 812.06 316.53 811.12 321.37 808.33 325.31 C 804.38 331.67 797.50 335.11 792.20 340.14 C 781.57 349.94 773.82 362.35 763.55 372.50 C 759.44 376.48 755.44 381.97 749.12 381.92 C 742.11 382.04 735.18 380.12 728.15 381.03 C 734.11 373.41 740.58 366.22 747.23 359.20 C 757.01 349.29 766.24 338.80 776.81 329.69 C 780.22 326.39 784.04 323.26 786.36 319.05 C 786.81 317.30 784.67 316.71 783.58 317.59 C 765.86 330.65 750.99 347.01 735.97 362.98 C 728.26 371.00 721.75 380.08 714.05 388.10 C 712.60 389.83 710.39 390.36 708.31 390.91 C 712.03 384.31 714.24 376.74 713.35 369.12 C 711.79 353.73 701.59 340.47 689.13 331.92 C 674.70 322.04 656.17 317.51 639.00 321.85 C 644.60 312.44 653.12 305.23 661.98 299.01 C 684.12 285.45 709.92 278.99 731.49 264.39 C 734.87 261.80 739.26 259.80 740.67 255.44 C 736.00 256.72 732.22 259.85 728.06 262.18 C 719.23 267.39 709.75 271.36 700.44 275.63 C 706.76 268.23 712.11 259.92 719.68 253.65 C 725.37 248.52 733.01 246.77 739.87 243.79 C 741.51 243.18 742.71 241.88 743.89 240.63 C 738.94 240.26 734.24 242.09 729.59 243.46 Z" />
        <path fill="var(--shirt-color, grey)" opacity="1.00"
            d=" M 694.27 372.23 C 699.34 370.31 703.80 367.17 707.60 363.33 C 710.07 372.10 709.11 381.55 704.82 389.60 C 702.36 389.89 699.91 390.23 697.48 390.63 C 696.69 384.45 695.59 378.31 694.27 372.23 Z" />
    </g>
    <g id="#ffffffff">
        <path fill="var(--pants-color, grey)" opacity="1.00"
            d=" M 657.24 585.31 C 666.01 581.45 675.40 578.77 685.00 578.21 C 697.46 578.35 709.27 582.79 721.17 585.98 C 738.67 590.90 756.71 596.45 775.11 594.07 C 781.93 593.23 789.21 590.33 792.43 583.81 C 796.64 585.13 801.07 586.57 804.16 589.92 C 807.15 593.12 809.87 596.76 814.02 598.55 C 809.54 605.51 803.20 611.22 795.73 614.82 C 785.06 619.84 773.66 623.18 762.13 625.53 C 758.73 626.32 754.78 626.12 752.11 628.70 C 757.40 629.99 762.82 628.89 768.07 627.91 C 777.15 625.99 786.07 623.20 794.62 619.56 C 803.99 615.46 812.70 608.68 817.01 599.19 C 820.83 600.34 824.87 601.34 828.03 603.92 C 830.96 606.38 833.31 609.45 835.72 612.42 C 832.33 617.19 827.22 620.28 822.36 623.35 C 807.59 631.97 790.58 635.46 773.93 638.44 C 768.54 639.53 762.90 639.32 757.72 641.36 C 760.79 644.08 765.11 643.54 768.89 643.38 C 778.34 642.59 787.67 640.75 796.89 638.58 C 809.59 635.60 821.93 630.33 832.15 622.13 C 834.64 620.20 836.74 617.83 838.57 615.27 C 847.82 625.45 858.42 634.26 868.77 643.29 C 876.81 650.26 885.37 656.59 893.54 663.41 C 897.43 666.60 900.61 670.56 903.04 674.97 C 895.69 676.54 889.67 681.37 884.46 686.54 C 878.84 691.88 873.45 697.60 866.86 701.78 C 860.62 705.42 853.67 707.58 846.96 710.14 C 839.64 712.97 831.73 713.60 823.97 714.02 C 814.97 714.16 805.99 714.90 796.99 714.55 C 787.63 713.95 778.18 716.77 768.97 714.12 C 749.38 708.01 731.96 696.18 711.85 691.54 C 701.92 689.30 691.47 689.80 681.82 686.29 C 673.92 683.35 665.71 680.89 658.58 676.29 C 658.49 677.60 657.47 679.15 658.91 680.13 C 661.29 682.21 664.25 683.47 667.05 684.91 C 674.14 688.22 681.37 691.42 689.08 693.00 C 682.43 698.41 675.16 703.03 668.88 708.88 C 657.77 719.20 648.23 731.09 639.68 743.58 C 634.21 751.75 626.43 759.14 616.54 761.24 C 593.71 763.69 570.12 763.86 548.02 756.84 C 533.69 752.04 519.84 744.72 509.44 733.56 C 507.17 730.90 504.94 727.58 505.40 723.92 C 506.72 721.11 509.25 718.91 509.85 715.75 C 512.07 706.41 513.64 696.39 519.68 688.58 C 523.94 682.71 531.07 678.62 532.65 671.07 C 534.67 664.08 530.62 656.53 533.94 649.83 C 536.92 643.43 543.83 639.85 546.41 633.22 C 548.71 626.89 546.18 619.96 548.32 613.60 C 550.52 606.87 554.68 601.01 559.00 595.48 C 564.36 598.92 570.51 601.44 576.96 601.56 C 586.79 601.88 596.49 599.86 606.26 599.06 C 613.02 598.08 620.05 598.73 626.58 596.41 C 636.95 593.14 647.26 589.64 657.24 585.31 M 551.43 612.83 C 551.35 618.97 552.24 625.29 554.92 630.87 C 558.95 638.84 565.94 644.76 572.93 650.07 C 578.43 654.04 583.86 658.29 590.11 661.02 C 591.17 661.46 595.28 662.51 593.99 660.06 C 587.07 655.37 579.94 650.88 573.72 645.22 C 565.57 638.03 557.08 629.68 555.31 618.44 C 554.60 616.38 554.66 612.08 551.43 612.83 M 555.61 655.51 C 558.76 664.18 565.81 670.75 573.39 675.68 C 581.45 681.16 590.66 684.75 600.12 687.00 C 604.70 688.04 609.29 689.48 614.04 689.40 C 614.48 689.00 615.36 688.20 615.79 687.80 C 613.41 686.28 610.56 685.89 607.89 685.14 C 593.31 681.39 579.02 675.40 567.44 665.60 C 562.81 661.56 559.28 656.42 556.78 650.84 C 555.32 651.97 554.82 653.79 555.61 655.51 Z" />
        <path fill="var(--socks-color, grey)" opacity="1.00"
            d=" M 810.26 769.25 C 817.70 760.84 825.48 752.57 834.42 745.72 C 846.27 745.16 858.02 747.79 869.18 751.58 C 880.15 755.39 891.06 760.25 899.80 768.08 C 892.00 775.92 887.18 785.96 881.07 795.04 C 871.20 809.30 857.87 820.56 845.73 832.79 C 839.47 838.89 833.11 844.89 826.08 850.13 C 811.49 861.16 800.87 876.24 788.20 889.24 C 779.70 897.99 771.06 907.33 766.94 919.05 C 764.91 924.26 765.30 930.80 760.62 934.65 C 757.56 937.74 752.62 937.90 748.85 936.09 C 741.09 932.63 735.96 925.29 732.17 917.97 C 727.82 908.97 725.57 898.39 728.41 888.59 C 736.47 882.37 743.49 874.90 750.44 867.48 C 756.99 860.50 762.48 852.63 767.63 844.58 C 773.93 835.76 778.84 826.05 783.19 816.15 C 790.48 799.63 798.40 783.04 810.26 769.25 Z" />
        <path fill="var(--socks-color, grey)" opacity="1.00"
            d=" M 382.16 853.05 C 395.48 836.66 411.73 822.69 429.83 811.82 C 439.12 814.65 447.86 819.38 454.86 826.18 C 463.82 834.88 471.35 846.03 472.56 858.76 C 459.87 871.23 449.45 885.72 438.76 899.88 C 411.72 933.22 382.26 964.55 351.24 994.20 C 343.40 1002.09 335.04 1009.88 330.13 1020.05 C 319.23 1011.82 312.46 999.23 308.39 986.44 C 306.46 979.94 305.44 973.11 306.04 966.34 C 315.86 956.63 325.10 946.16 332.40 934.39 C 349.02 907.31 362.09 877.89 382.16 853.05 Z" />
    </g>
    <g id="#4d4d4dff">
        <path fill="#4d4d4d" opacity="1.00"
            d=" M 696.73 903.80 C 704.79 899.30 713.21 895.55 721.56 891.65 C 719.58 905.84 724.25 920.61 733.38 931.54 C 738.59 937.54 745.70 943.13 754.05 942.93 C 757.52 943.04 760.57 941.21 763.54 939.66 C 765.34 952.44 761.82 965.20 762.66 978.01 C 763.30 986.60 763.96 995.46 767.52 1003.43 C 770.70 1010.70 774.35 1017.76 778.56 1024.49 C 780.95 1028.82 784.00 1033.06 784.70 1038.08 C 782.39 1042.09 776.85 1041.36 772.95 1040.97 C 757.14 1037.78 742.88 1028.75 732.03 1016.97 C 721.34 1005.24 716.69 989.55 706.81 977.25 C 700.62 968.84 692.97 961.63 684.76 955.23 C 678.78 950.58 672.79 945.61 668.82 939.06 C 665.99 934.80 669.20 929.95 671.12 926.04 C 676.33 915.49 686.94 909.45 696.73 903.80 Z" />
        <path fill="#4d4d4d" opacity="1.00"
            d=" M 272.05 978.07 C 281.64 973.52 292.59 973.16 302.10 968.45 C 300.60 981.74 305.31 994.89 311.74 1006.33 C 315.89 1013.53 321.34 1020.13 328.46 1024.58 C 331.28 1039.96 327.57 1055.49 323.23 1070.21 C 318.65 1085.06 319.26 1100.77 317.18 1116.02 C 315.82 1124.54 314.78 1133.18 312.15 1141.43 C 305.42 1142.23 298.79 1140.42 292.48 1138.28 C 288.00 1136.56 284.42 1133.24 280.75 1130.27 C 273.80 1124.47 267.39 1117.63 263.90 1109.16 C 259.01 1097.89 258.77 1085.45 257.34 1073.45 C 256.01 1062.67 254.57 1051.90 253.21 1041.13 C 252.01 1030.82 248.88 1020.90 246.22 1010.91 C 244.71 1005.52 242.79 999.78 244.34 994.18 C 245.96 992.33 248.43 991.61 250.58 990.59 C 258.38 987.55 264.24 981.12 272.05 978.07 Z" />
    </g>
</svg>