<?xml version="1.0" encoding="UTF-8" ?>
<!DOCTYPE svg PUBLIC "-//W3C//DTD SVG 1.1//EN" "http://www.w3.org/Graphics/SVG/1.1/DTD/svg11.dtd">
<svg width="1000pt" height="1000pt" viewBox="0 0 1000 1000" version="1.1" xmlns="http://www.w3.org/2000/svg">
    <g id="#020202ff">
        <path fill="#020202" opacity="1.00"
            d=" M 546.76 21.03 C 561.89 17.68 577.33 22.05 591.41 27.53 C 600.04 31.14 608.75 34.89 618.07 36.29 C 621.89 36.97 625.81 36.85 629.61 37.66 C 630.50 38.95 629.87 40.54 629.86 41.97 C 642.39 48.92 653.17 58.88 661.38 70.60 C 665.62 77.15 669.85 84.73 668.51 92.83 C 667.92 97.49 664.90 101.45 664.30 106.08 C 664.70 110.53 668.03 114.74 666.31 119.31 C 663.95 125.40 656.89 128.06 650.81 128.41 C 646.11 140.66 637.38 151.20 634.51 164.16 C 632.73 171.06 637.49 177.18 637.69 183.91 C 637.85 187.32 634.42 188.88 631.70 189.75 C 627.12 191.55 622.08 191.19 617.39 192.39 C 616.22 193.66 615.43 195.20 614.58 196.67 C 609.90 205.52 603.09 213.07 595.64 219.67 C 588.60 225.92 578.54 228.12 569.41 226.25 C 563.63 224.93 559.01 220.96 554.75 217.07 C 553.20 226.62 551.60 236.29 552.54 245.99 C 552.57 253.65 556.17 260.58 557.81 267.94 C 560.68 277.52 560.17 287.67 558.90 297.47 C 557.54 307.67 558.96 318.00 557.51 328.18 C 556.37 336.91 550.53 344.18 549.46 352.91 C 550.14 358.53 553.63 363.47 558.05 366.86 C 560.70 369.25 564.44 371.95 563.89 375.99 C 558.82 376.08 553.74 374.43 548.60 375.15 C 550.51 377.35 552.63 379.46 555.35 380.64 C 563.71 384.57 572.91 386.04 581.89 387.89 C 602.66 392.17 623.74 395.17 644.96 395.81 C 652.44 396.08 660.08 395.05 666.92 391.88 C 675.80 388.08 682.65 380.25 692.33 378.23 C 703.09 376.19 714.38 376.83 724.76 380.42 C 732.39 383.04 740.27 385.52 747.04 390.01 C 750.41 392.12 751.39 396.14 750.75 399.88 C 753.66 401.74 757.03 403.28 759.00 406.25 C 760.50 408.54 758.91 411.78 756.27 412.22 C 750.20 413.58 743.96 412.08 738.09 410.48 C 743.09 414.64 747.96 419.21 751.13 424.97 C 752.32 427.15 752.48 430.59 750.09 432.03 C 747.43 433.53 744.24 432.43 741.64 431.36 C 736.60 429.35 733.51 424.15 728.11 422.86 C 721.43 421.00 714.64 419.59 707.90 417.96 C 716.05 421.46 725.68 424.60 729.93 433.12 C 732.45 437.21 728.44 442.41 723.99 442.29 C 710.47 441.67 697.70 434.15 683.98 436.23 C 677.31 437.58 671.17 440.70 664.58 442.30 C 657.15 444.04 649.65 441.81 642.28 440.85 C 630.92 439.11 619.39 439.84 607.95 440.24 C 595.64 440.65 583.36 441.60 571.04 441.78 C 556.57 442.00 542.08 443.11 527.62 442.19 C 530.72 459.89 531.42 478.75 524.76 495.75 C 522.92 501.10 517.03 502.50 511.99 502.46 C 512.40 505.38 512.48 508.47 513.81 511.17 C 515.89 514.34 519.84 515.98 521.30 519.62 C 522.19 522.07 522.46 524.70 522.92 527.26 C 526.52 526.26 530.21 524.92 534.01 525.45 C 539.66 526.11 544.21 530.00 547.90 534.04 C 553.10 539.97 557.07 546.85 562.23 552.81 C 570.85 563.18 582.72 569.92 593.91 577.10 C 602.92 582.86 610.99 590.18 617.06 599.01 C 620.74 603.95 623.75 609.45 628.45 613.54 C 640.16 626.67 648.79 642.63 653.17 659.69 C 655.93 670.86 655.40 682.72 651.89 693.67 C 647.49 708.04 637.74 721.94 623.04 727.02 C 612.36 731.27 600.92 727.69 589.94 727.13 C 586.41 726.71 583.30 728.66 580.38 730.34 C 573.60 734.38 566.19 737.22 558.62 739.37 C 546.45 742.82 534.13 745.77 521.76 748.39 C 511.65 750.10 501.56 751.97 491.68 754.70 C 485.92 756.16 481.46 760.37 477.12 764.16 C 472.53 769.39 469.05 775.46 465.06 781.13 C 463.74 783.22 461.83 785.23 461.88 787.88 C 461.49 796.56 462.69 805.33 465.66 813.51 C 470.18 826.29 475.93 839.21 475.61 853.04 C 475.52 858.44 473.17 864.87 467.55 866.62 C 459.92 868.18 452.78 863.54 447.28 858.75 C 439.43 851.28 433.48 841.95 428.72 832.26 C 417.61 846.98 405.91 861.28 395.63 876.61 C 392.20 881.51 389.03 886.61 385.21 891.24 C 379.22 898.37 377.50 907.94 376.81 916.97 C 376.06 928.66 383.85 938.56 391.27 946.74 C 396.74 952.58 402.64 958.01 408.00 963.97 C 410.70 966.98 413.00 970.74 412.90 974.93 C 413.17 979.35 409.42 983.46 405.05 983.81 C 399.00 984.60 393.03 982.88 387.08 982.13 C 375.28 980.14 363.16 980.48 351.50 977.59 C 347.33 976.60 343.75 974.11 340.54 971.38 C 333.03 964.93 326.05 957.92 318.75 951.24 C 313.39 946.25 307.20 942.20 302.18 936.86 C 298.45 932.91 297.17 927.26 297.88 921.98 C 299.37 910.56 303.24 899.33 309.86 889.86 C 314.19 883.77 320.52 879.39 327.43 876.72 C 329.90 871.21 333.23 866.15 335.61 860.61 C 339.82 850.68 342.52 840.21 346.24 830.10 C 350.93 817.53 354.53 804.54 360.39 792.43 C 369.34 773.25 380.54 755.19 393.46 738.45 C 398.89 730.56 405.72 722.13 404.79 711.94 C 403.87 699.82 396.75 689.49 391.76 678.75 C 386.62 685.57 380.99 692.69 372.93 696.15 C 369.58 697.63 364.93 697.53 362.67 694.27 C 361.14 691.10 361.42 687.44 361.04 684.03 C 359.91 662.87 349.04 643.87 345.98 623.08 C 345.21 618.39 344.91 613.64 344.73 608.91 C 344.61 603.65 342.86 598.64 341.24 593.70 C 337.47 582.91 333.39 572.18 330.93 561.00 C 328.26 547.87 327.14 534.37 328.31 521.00 C 329.55 506.76 330.62 492.39 334.42 478.55 C 332.03 476.59 328.87 474.56 328.90 471.07 C 328.70 462.99 330.77 455.06 331.72 447.08 C 332.31 440.71 328.80 434.83 324.63 430.32 C 321.56 426.72 317.66 423.51 316.08 418.91 C 314.70 413.63 316.40 407.93 319.49 403.57 C 327.43 392.28 338.28 383.18 345.01 371.01 C 349.76 361.90 353.21 352.18 356.17 342.36 C 361.23 324.78 366.51 307.10 374.87 290.75 C 377.60 285.27 381.50 280.47 385.98 276.34 C 377.67 272.78 371.07 266.35 365.26 259.59 C 362.32 260.96 359.39 262.40 356.27 263.35 C 343.94 266.74 331.39 269.32 318.68 270.76 C 314.27 271.52 309.34 271.72 305.78 274.77 C 298.35 281.02 293.13 289.43 285.80 295.79 C 281.42 299.74 276.04 302.42 270.51 304.35 C 266.82 305.45 261.89 305.07 259.59 301.58 C 257.82 298.78 259.10 295.30 260.77 292.78 C 263.55 288.73 267.30 285.47 270.38 281.66 C 266.22 278.65 262.48 274.25 257.02 273.83 C 255.20 274.79 254.49 276.87 253.83 278.69 C 251.93 284.81 251.93 291.44 249.22 297.33 C 248.35 299.32 246.42 301.08 244.11 300.89 C 241.53 300.79 239.71 298.54 238.90 296.29 C 237.38 292.11 237.40 287.58 237.50 283.19 C 235.26 287.49 232.96 292.16 228.83 294.94 C 226.21 296.42 223.31 293.66 223.31 291.01 C 223.14 285.97 224.96 281.15 226.50 276.44 C 228.49 271.08 230.40 265.54 233.95 260.98 C 237.65 256.29 243.32 253.94 248.56 251.46 C 254.04 248.97 259.26 245.72 265.22 244.47 C 274.72 242.51 284.72 243.36 293.94 240.00 C 312.31 233.56 330.25 224.75 349.89 223.02 C 354.56 217.90 361.66 216.62 367.59 213.54 C 384.52 205.16 402.70 199.31 421.31 196.15 C 426.91 194.79 432.00 191.90 437.64 190.68 C 444.64 189.14 452.06 188.05 459.10 190.03 C 462.21 190.87 465.74 191.33 468.66 189.61 C 478.78 184.33 486.26 175.08 491.35 165.03 C 488.91 156.33 486.41 147.65 483.62 139.05 C 482.30 138.89 481.07 138.54 479.92 137.99 C 479.21 136.46 479.22 134.73 479.21 133.09 C 479.36 125.69 480.26 118.33 481.09 110.99 C 481.76 105.94 477.25 102.09 477.26 97.10 C 477.20 87.77 480.59 78.58 485.96 71.01 C 491.97 62.35 498.95 54.14 507.63 48.04 C 505.69 47.12 501.57 47.17 502.60 44.09 C 503.34 41.61 505.01 39.55 506.69 37.64 C 513.34 30.42 522.02 24.91 531.66 22.76 C 536.62 21.58 541.83 22.43 546.76 21.03 M 641.98 119.94 C 637.94 123.46 632.27 124.45 628.71 128.62 C 626.95 125.47 627.10 121.81 627.57 118.36 C 622.63 120.42 617.39 121.52 612.16 122.54 C 603.39 124.25 598.20 133.84 589.19 134.71 C 589.32 132.32 589.38 129.92 589.12 127.54 C 585.38 127.58 582.86 124.98 581.05 122.01 C 576.17 129.20 571.77 136.84 569.38 145.25 C 568.24 148.43 568.23 152.32 565.39 154.60 C 558.83 151.03 553.72 145.13 550.60 138.40 C 548.29 133.47 548.24 127.93 547.07 122.70 C 546.03 117.75 538.46 116.36 535.68 120.60 C 531.25 127.31 531.01 136.44 534.32 143.68 C 536.25 147.97 540.11 150.83 543.16 154.26 C 536.16 156.23 531.26 149.02 528.94 143.46 C 528.16 151.33 524.93 159.63 517.89 163.89 C 516.43 164.86 513.27 165.57 513.05 163.06 C 513.67 159.51 514.54 155.99 514.72 152.37 C 511.45 154.61 507.61 155.90 504.48 158.35 C 499.27 162.44 496.93 168.83 492.98 173.95 C 487.33 184.85 477.17 192.76 465.97 197.39 C 472.87 207.39 486.05 207.73 496.04 212.90 C 508.52 219.48 518.53 229.93 526.77 241.22 C 532.82 250.01 537.89 259.58 545.44 267.24 C 546.66 262.90 547.76 258.50 548.19 254.02 C 548.42 249.31 547.47 244.65 547.39 239.96 C 547.21 231.18 548.48 222.27 552.04 214.20 C 547.74 209.32 543.47 204.23 540.82 198.24 C 539.85 196.39 540.40 194.31 540.85 192.42 C 542.76 194.52 544.12 197.02 545.65 199.39 C 548.69 204.22 553.16 207.86 557.19 211.81 C 561.27 215.49 565.54 219.48 571.02 220.84 C 578.25 222.26 586.16 220.59 591.79 215.71 C 599.14 209.35 605.88 202.05 610.49 193.43 C 611.99 190.85 613.58 187.61 616.91 187.17 C 622.15 186.28 627.55 186.01 632.54 183.96 C 631.28 178.60 628.56 173.56 628.47 167.96 C 628.44 162.66 630.56 157.68 632.56 152.87 C 628.55 152.43 624.56 151.75 620.65 150.76 C 619.55 152.79 618.47 154.83 617.34 156.84 C 612.54 151.32 607.30 146.21 601.89 141.30 C 611.80 132.65 629.38 134.91 635.91 146.64 C 641.53 135.80 650.79 125.31 649.07 112.24 C 646.94 115.01 644.70 117.73 641.98 119.94 M 429.55 199.56 C 423.08 202.34 415.93 202.30 409.19 204.00 C 398.63 206.58 388.12 209.61 378.25 214.21 C 370.64 218.10 362.54 220.82 354.68 224.12 C 355.78 234.41 361.41 243.43 367.44 251.56 C 373.79 259.78 381.35 267.41 390.81 272.00 C 394.25 268.79 397.50 265.39 400.59 261.85 C 396.65 252.66 389.78 245.19 383.29 237.74 C 382.58 236.51 380.55 235.24 381.79 233.65 C 383.34 233.01 384.65 234.34 385.83 235.13 C 393.16 241.48 400.27 248.60 403.99 257.74 C 405.35 255.33 407.98 253.14 407.45 250.11 C 407.23 247.14 406.59 244.21 405.57 241.42 C 404.05 237.12 400.75 233.77 399.10 229.53 C 406.50 231.29 409.56 239.32 411.83 245.76 C 416.04 239.49 420.83 233.51 426.69 228.71 C 428.20 227.62 430.07 225.87 431.90 227.41 C 431.69 229.84 429.64 231.44 428.21 233.20 C 422.66 239.14 417.91 245.77 413.87 252.81 C 408.77 261.69 402.09 269.60 394.49 276.43 C 389.58 280.90 384.38 285.30 381.21 291.25 C 374.28 303.96 369.88 317.83 365.42 331.54 C 361.21 345.93 356.81 360.42 349.63 373.65 C 347.54 377.64 343.81 381.11 343.84 385.92 C 343.70 389.95 344.37 394.61 347.71 397.31 C 352.06 400.55 357.73 401.20 363.00 401.33 C 378.17 401.24 392.47 395.47 407.33 393.23 C 415.15 392.17 423.04 390.85 430.96 391.40 C 433.46 391.41 435.58 392.85 437.57 394.21 C 433.70 396.38 429.16 395.94 424.92 396.51 C 407.96 398.11 392.00 404.74 375.10 406.72 C 365.40 407.90 354.72 408.14 346.03 403.00 C 340.84 399.94 339.18 393.67 338.98 388.03 C 333.65 394.38 327.50 400.08 322.98 407.09 C 321.06 410.26 319.73 414.23 320.80 417.91 C 322.80 421.81 326.44 424.49 329.23 427.78 C 334.19 433.21 338.02 440.55 336.83 448.09 C 335.53 455.64 333.06 463.26 334.09 470.99 C 334.37 473.61 336.82 474.95 338.74 476.34 C 345.33 480.61 349.80 487.47 356.74 491.30 C 366.38 497.17 379.28 494.79 387.58 487.65 C 393.42 483.14 396.59 475.91 403.06 472.14 C 409.89 468.17 417.12 464.92 423.97 460.97 C 436.10 454.00 448.25 446.14 462.20 443.47 C 471.44 441.51 480.27 446.32 487.29 451.86 C 488.54 452.66 489.17 454.29 488.10 455.56 C 481.87 453.95 476.55 449.60 470.00 448.98 C 463.50 448.49 457.24 450.91 451.38 453.44 C 439.80 458.40 429.40 465.60 418.13 471.19 C 412.17 474.38 405.38 476.58 400.86 481.88 C 397.63 485.64 394.25 489.27 390.52 492.54 C 403.47 496.24 417.09 493.75 429.97 491.03 C 443.24 488.36 456.24 482.77 470.04 484.08 C 484.74 485.04 497.01 494.40 511.20 497.38 C 513.75 497.88 517.14 498.35 518.72 495.71 C 521.81 490.76 522.30 484.74 523.45 479.14 C 525.68 467.39 523.68 455.47 522.62 443.71 C 512.77 443.33 504.02 438.34 496.12 432.89 C 488.10 427.14 482.28 418.91 477.49 410.41 C 473.41 403.34 472.22 394.68 466.48 388.57 C 461.68 384.07 454.87 382.54 450.06 378.02 C 446.68 374.70 442.46 371.47 441.74 366.46 C 444.12 367.52 446.23 369.05 448.22 370.71 C 451.84 373.75 456.09 375.86 460.04 378.41 C 453.34 369.60 450.23 358.84 446.48 348.60 C 443.16 339.13 439.03 329.97 435.23 320.69 C 434.26 318.35 433.58 315.88 433.20 313.38 C 438.08 319.98 441.20 327.68 445.02 334.90 C 450.10 345.48 453.55 356.74 458.54 367.36 C 462.06 374.93 467.92 381.01 472.22 388.11 C 474.58 377.29 477.21 366.00 474.65 354.96 C 473.63 348.86 470.74 343.15 470.60 336.90 C 471.99 338.01 473.47 339.19 474.13 340.91 C 477.45 348.52 480.05 356.62 480.17 365.00 C 480.23 372.75 478.69 380.38 477.23 387.96 C 476.11 393.71 477.82 399.54 480.20 404.75 C 484.00 412.74 489.15 420.08 495.44 426.31 C 493.39 394.84 525.10 366.36 556.14 371.42 C 547.70 366.58 542.99 356.81 543.73 347.20 C 540.92 343.99 537.92 340.89 535.71 337.22 C 533.11 332.93 532.80 327.80 532.06 322.97 C 531.39 318.00 529.95 313.06 527.32 308.77 C 525.05 305.01 521.70 301.97 520.02 297.85 C 521.59 298.58 523.30 299.22 524.58 300.46 C 529.55 305.44 533.16 311.72 534.98 318.52 C 537.06 309.99 537.19 300.82 534.43 292.43 C 532.79 287.29 528.71 283.48 526.52 278.62 C 530.95 280.03 533.94 283.85 536.46 287.55 C 540.70 294.54 541.33 303.03 541.15 311.02 C 541.10 316.82 538.41 322.21 538.24 327.99 C 538.43 334.01 543.15 338.41 546.67 342.83 C 548.92 337.62 551.68 332.49 552.41 326.78 C 553.45 318.19 552.72 309.50 553.51 300.89 C 554.04 293.94 555.61 287.05 555.18 280.05 C 555.03 273.26 552.92 266.76 551.32 260.23 C 550.61 263.93 550.63 268.11 548.28 271.24 C 546.65 273.12 543.95 272.08 542.47 270.60 C 534.26 263.09 529.40 252.88 523.16 243.84 C 515.69 233.47 506.57 223.94 495.19 217.87 C 487.20 213.68 477.95 212.52 470.16 207.92 C 464.93 204.94 461.75 199.67 458.39 194.88 C 448.57 193.58 438.55 195.59 429.55 199.56 M 313.20 239.02 C 306.41 241.67 299.68 244.51 292.65 246.45 C 283.78 248.96 274.40 247.90 265.42 249.77 C 260.27 250.93 255.73 253.74 250.97 255.88 C 247.17 257.64 243.16 259.13 239.89 261.81 C 237.01 264.18 235.33 267.62 233.96 271.01 C 231.42 277.32 229.14 283.77 227.81 290.46 C 229.53 288.20 231.13 285.85 232.42 283.31 C 235.46 277.78 236.69 271.07 241.64 266.74 C 245.54 263.17 251.16 259.73 256.57 261.77 C 252.73 264.51 247.79 266.02 244.84 269.85 C 241.59 278.00 240.79 287.52 244.01 295.83 C 246.97 288.24 246.42 279.61 250.41 272.39 C 252.00 269.27 255.59 267.32 259.08 268.01 C 263.59 268.54 267.36 271.28 270.64 274.24 C 274.65 277.91 280.46 276.70 285.35 277.85 L 285.63 279.22 C 282.21 281.53 277.88 281.74 273.92 282.38 C 271.24 288.60 264.87 292.45 263.08 299.14 C 266.71 302.25 271.43 299.74 275.15 298.17 C 286.61 292.35 292.85 280.44 302.28 272.22 C 309.88 266.87 319.53 266.33 328.45 265.24 C 340.09 263.77 351.32 260.10 362.13 255.64 C 356.03 247.20 350.46 237.82 349.25 227.28 C 336.93 230.17 324.93 234.32 313.20 239.02 M 501.72 419.06 C 501.39 422.86 500.55 427.45 503.66 430.37 C 507.93 434.66 514.13 436.57 520.02 437.22 C 530.67 437.92 541.35 437.25 552.01 437.14 C 567.33 436.60 582.66 436.41 597.97 435.61 C 614.06 435.41 630.29 434.13 646.24 436.91 C 652.37 437.80 658.74 439.66 664.86 437.63 C 672.48 435.25 679.90 431.62 688.02 431.32 C 699.78 431.10 710.57 436.48 722.04 438.13 C 723.85 438.62 725.29 437.30 726.67 436.37 C 724.69 433.13 722.22 430.06 718.84 428.22 C 712.93 424.95 706.72 422.27 700.71 419.23 C 698.17 417.83 695.40 416.44 693.80 413.92 C 693.97 410.55 697.94 411.78 700.08 412.13 C 709.70 414.59 719.53 416.19 729.10 418.86 C 736.55 420.37 740.17 429.30 748.31 428.96 C 746.06 422.95 741.11 418.60 736.52 414.37 C 730.56 408.70 722.25 406.99 714.80 404.14 C 711.95 402.89 708.48 402.54 706.32 400.13 C 707.29 398.89 708.52 398.49 710.02 398.93 C 718.77 400.62 727.55 402.31 736.05 405.03 C 742.12 406.93 748.37 408.86 754.83 408.21 C 748.95 403.69 741.74 401.64 734.95 398.96 C 727.41 396.05 719.53 394.02 712.17 390.68 C 710.62 390.20 707.56 387.04 711.07 387.40 C 723.66 389.86 735.81 394.29 747.89 398.57 C 746.62 393.84 741.96 391.83 737.87 390.11 C 726.27 385.19 713.89 380.62 701.07 381.66 C 692.83 382.04 685.61 386.51 678.86 390.82 C 670.87 396.84 661.09 400.54 651.06 400.88 C 622.39 401.29 593.94 396.19 566.08 389.81 C 557.80 387.47 547.44 384.79 544.43 375.58 C 523.20 379.61 504.65 397.35 501.72 419.06 M 337.70 480.44 C 334.64 500.44 332.25 520.73 333.32 540.98 C 334.04 553.53 336.89 565.87 341.08 577.69 C 343.83 586.05 347.16 594.26 349.00 602.89 C 349.90 608.22 349.39 613.69 350.20 619.05 C 351.67 633.68 357.57 647.28 361.43 661.34 C 364.75 671.23 365.47 681.69 366.12 692.02 C 368.31 692.03 370.56 691.74 372.43 690.52 C 381.06 685.55 385.82 676.45 392.33 669.28 C 399.22 660.66 408.07 653.56 418.38 649.49 C 437.36 642.98 457.69 642.68 477.53 643.36 C 475.25 635.58 472.82 627.85 469.82 620.33 C 467.44 614.14 464.46 608.19 462.45 601.86 C 456.04 597.31 447.75 591.84 439.73 595.67 C 433.07 599.21 427.32 604.29 420.43 607.45 C 407.48 613.55 394.30 619.93 379.92 621.67 C 378.33 622.01 376.93 621.60 375.73 620.46 C 381.78 617.69 388.57 616.83 394.38 613.44 C 404.53 607.67 415.60 603.69 425.56 597.57 C 430.85 594.46 435.86 590.39 442.04 589.28 C 449.10 588.41 455.84 591.80 461.29 595.99 C 460.95 592.37 461.45 588.74 461.27 585.13 C 459.02 581.78 455.09 579.20 450.92 580.42 C 438.76 582.95 425.60 582.15 414.40 576.51 C 404.56 571.75 395.01 566.29 386.32 559.64 C 380.63 555.01 374.98 550.32 369.55 545.39 C 366.95 542.93 363.97 540.62 362.72 537.13 C 364.60 537.78 366.44 538.67 367.99 539.97 C 374.49 545.13 380.75 550.63 387.60 555.35 C 396.99 561.66 407.09 566.87 417.27 571.78 C 424.27 575.30 432.19 576.45 439.95 576.34 C 444.98 576.25 449.94 574.73 454.98 575.26 C 458.15 575.57 460.54 577.84 462.79 579.88 C 463.55 576.37 463.84 572.65 465.49 569.41 C 466.57 568.38 467.55 568.50 468.42 569.77 C 469.09 577.58 466.55 585.30 467.32 593.12 C 467.64 598.83 469.93 604.14 472.06 609.36 C 476.67 596.13 487.20 586.28 498.24 578.23 C 506.65 571.88 515.52 565.91 525.53 562.37 C 526.80 561.93 528.06 562.04 529.33 562.68 C 524.04 567.20 517.37 569.62 511.88 573.87 C 498.98 583.31 484.81 592.82 477.97 607.87 C 476.52 611.54 474.45 615.79 476.16 619.70 C 476.99 622.01 477.74 624.58 479.88 626.07 C 485.56 630.55 491.60 634.61 497.97 638.07 C 509.25 644.88 519.75 653.14 528.76 662.77 C 552.55 655.76 574.04 642.66 593.42 627.42 C 601.75 620.72 609.53 613.18 618.94 607.96 C 614.36 603.22 610.39 597.93 605.49 593.52 C 593.30 581.83 576.91 575.87 564.59 564.33 C 556.68 557.40 551.43 548.19 545.16 539.89 C 541.83 535.93 537.72 531.19 532.04 531.49 C 526.23 532.66 520.69 534.88 515.15 536.91 C 506.55 540.47 497.08 539.56 488.02 539.28 C 483.15 538.89 477.80 538.91 473.80 535.67 C 475.42 534.92 477.17 534.32 478.99 534.62 C 486.82 535.07 494.75 535.32 502.53 534.13 C 507.83 533.38 512.87 531.50 517.94 529.87 C 517.28 527.09 517.25 524.17 516.34 521.47 C 514.06 517.72 509.02 517.34 505.06 517.40 C 496.66 518.19 488.23 519.96 479.76 519.06 C 477.81 518.95 476.18 517.79 474.55 516.86 C 480.03 515.17 485.90 516.08 491.46 514.71 C 496.93 513.37 502.46 511.53 508.18 512.51 C 507.07 508.96 506.47 505.23 507.25 501.55 C 494.04 498.88 482.68 489.96 468.95 489.56 C 455.53 488.98 443.00 494.49 430.02 496.90 C 416.87 499.48 402.84 501.67 389.85 497.28 C 378.36 499.25 365.33 501.73 354.78 495.22 C 348.08 491.54 343.36 485.41 337.70 480.44 M 600.96 629.03 C 588.03 640.30 573.63 649.82 558.36 657.63 C 563.31 663.37 568.71 668.78 572.79 675.21 C 574.46 677.89 576.46 680.75 576.29 684.08 C 575.78 684.00 574.76 683.82 574.26 683.73 C 570.68 680.99 568.46 676.83 564.88 674.04 C 563.98 678.33 563.55 682.76 564.32 687.11 C 566.45 700.81 574.10 713.25 584.31 722.46 C 596.17 718.51 608.74 725.68 620.59 721.41 C 633.70 717.28 642.09 704.98 646.39 692.54 C 651.58 679.19 648.59 664.35 643.33 651.52 C 637.67 637.80 629.99 624.68 619.62 613.99 C 612.95 618.42 606.95 623.74 600.96 629.03 M 480.54 632.20 C 481.81 638.37 485.97 645.08 482.82 651.26 C 485.65 663.63 490.80 675.28 494.16 687.50 C 503.92 680.06 516.08 677.27 527.60 673.78 C 538.51 671.58 549.33 668.15 560.60 668.52 C 557.96 665.83 555.47 663.00 553.19 660.01 C 546.00 663.33 538.90 667.39 530.94 668.42 C 528.12 668.90 525.71 667.03 523.71 665.34 C 514.06 656.52 504.21 647.78 492.98 641.03 C 488.58 638.45 484.52 635.36 480.54 632.20 M 424.07 654.36 C 418.09 655.48 412.78 658.63 407.67 661.79 C 403.16 664.64 399.97 669.00 396.51 672.97 C 399.43 678.31 402.08 683.80 404.67 689.31 C 408.74 697.60 412.07 706.70 411.16 716.09 C 410.96 720.09 408.59 724.01 410.17 728.01 C 413.29 737.95 420.88 745.80 428.97 752.04 C 440.56 760.59 454.72 766.83 469.40 765.90 C 475.89 755.42 488.74 750.24 493.16 738.33 C 497.79 725.40 492.95 711.78 489.86 699.09 C 485.78 682.64 478.62 667.05 475.92 650.27 C 458.58 648.94 441.04 650.69 424.07 654.36 M 518.28 682.38 C 510.26 684.52 502.46 687.68 495.73 692.61 C 498.68 703.88 502.28 715.20 502.34 726.97 C 502.42 735.24 499.71 743.61 494.14 749.81 C 502.49 747.13 511.12 745.50 519.73 743.94 C 532.95 741.27 545.98 737.76 558.96 734.13 C 566.46 732.01 573.53 728.64 580.34 724.89 C 573.34 719.32 567.90 711.96 564.07 703.91 C 559.77 694.79 557.18 684.27 559.88 674.29 C 545.74 675.14 531.67 677.74 518.28 682.38 M 397.33 742.44 C 380.26 766.65 364.85 792.49 355.71 820.83 C 353.25 827.88 350.54 834.84 348.19 841.93 C 345.32 850.25 342.61 858.68 338.49 866.48 C 336.02 870.76 333.33 874.92 331.31 879.44 C 327.36 886.78 333.66 897.17 341.95 897.33 C 350.94 897.65 358.04 890.47 366.93 890.22 C 371.07 889.80 375.00 891.36 378.72 893.00 C 385.53 883.26 391.08 872.70 398.18 863.16 C 409.00 848.03 420.83 833.66 431.77 818.61 C 443.22 803.46 454.05 787.86 464.82 772.22 C 451.62 772.38 438.95 767.15 428.19 759.80 C 418.20 752.81 408.82 743.70 405.04 731.80 C 402.64 735.47 400.09 739.03 397.33 742.44 M 432.76 826.99 C 436.74 836.15 442.34 844.61 448.83 852.19 C 453.32 856.84 459.07 861.97 465.99 861.33 C 469.65 859.42 469.89 854.60 469.85 850.97 C 469.21 836.75 462.21 823.95 458.87 810.33 C 457.39 804.45 457.30 798.36 457.46 792.35 C 449.47 804.07 441.08 815.50 432.76 826.99 M 313.20 896.18 C 307.72 904.82 303.98 914.79 303.19 925.02 C 302.70 931.48 308.45 935.55 312.94 939.08 C 324.77 947.78 334.49 958.91 345.77 968.25 C 348.55 970.59 351.96 972.04 355.53 972.69 C 365.59 974.67 375.92 974.47 386.04 976.05 C 391.36 976.73 396.62 978.09 402.01 978.22 C 403.79 978.21 406.38 978.04 406.70 975.81 C 407.13 972.46 404.65 969.75 402.58 967.45 C 392.00 956.27 379.62 946.09 373.19 931.74 C 368.14 920.77 370.61 908.02 375.21 897.34 C 371.35 896.74 367.30 896.18 363.55 897.61 C 357.44 899.78 351.67 903.32 345.06 903.77 C 339.26 904.39 333.35 901.90 329.74 897.33 C 326.44 894.02 325.65 889.29 325.10 884.85 C 320.46 887.83 316.13 891.43 313.20 896.18 Z" />
        <path fill="#020202" opacity="1.00"
            d=" M 436.79 236.78 C 438.11 235.15 439.93 232.89 442.21 234.40 C 440.41 239.22 436.86 243.17 435.22 248.08 C 430.27 259.62 429.51 272.64 432.38 284.82 C 433.29 289.12 434.85 293.27 435.60 297.61 C 432.25 295.03 431.02 290.89 429.94 287.00 C 427.12 276.28 425.74 264.77 428.79 253.94 C 430.49 247.84 433.00 241.88 436.79 236.78 Z" />
    </g>
    <g id="#f0b58bff">
        <path fill="#f0b58b" opacity="1.00"
            d=" M 641.98 119.94 C 644.70 117.73 646.94 115.01 649.07 112.24 C 650.79 125.31 641.53 135.80 635.91 146.64 C 629.38 134.91 611.80 132.65 601.89 141.30 C 607.30 146.21 612.54 151.32 617.34 156.84 C 618.47 154.83 619.55 152.79 620.65 150.76 C 624.56 151.75 628.55 152.43 632.56 152.87 C 630.56 157.68 628.44 162.66 628.47 167.96 C 628.56 173.56 631.28 178.60 632.54 183.96 C 627.55 186.01 622.15 186.28 616.91 187.17 C 613.58 187.61 611.99 190.85 610.49 193.43 C 605.88 202.05 599.14 209.35 591.79 215.71 C 586.16 220.59 578.25 222.26 571.02 220.84 C 565.54 219.48 561.27 215.49 557.19 211.81 C 553.16 207.86 548.69 204.22 545.65 199.39 C 544.12 197.02 542.76 194.52 540.85 192.42 C 540.40 194.31 539.85 196.39 540.82 198.24 C 543.47 204.23 547.74 209.32 552.04 214.20 C 548.48 222.27 547.21 231.18 547.39 239.96 C 547.47 244.65 548.42 249.31 548.19 254.02 C 547.76 258.50 546.66 262.90 545.44 267.24 C 537.89 259.58 532.82 250.01 526.77 241.22 C 518.53 229.93 508.52 219.48 496.04 212.90 C 486.05 207.73 472.87 207.39 465.97 197.39 C 477.17 192.76 487.33 184.85 492.98 173.95 C 496.93 168.83 499.27 162.44 504.48 158.35 C 507.61 155.90 511.45 154.61 514.72 152.37 C 514.54 155.99 513.67 159.51 513.05 163.06 C 513.27 165.57 516.43 164.86 517.89 163.89 C 524.93 159.63 528.16 151.33 528.94 143.46 C 531.26 149.02 536.16 156.23 543.16 154.26 C 540.11 150.83 536.25 147.97 534.32 143.68 C 531.01 136.44 531.25 127.31 535.68 120.60 C 538.46 116.36 546.03 117.75 547.07 122.70 C 548.24 127.93 548.29 133.47 550.60 138.40 C 553.72 145.13 558.83 151.03 565.39 154.60 C 568.23 152.32 568.24 148.43 569.38 145.25 C 571.77 136.84 576.17 129.20 581.05 122.01 C 582.86 124.98 585.38 127.58 589.12 127.54 C 589.38 129.92 589.32 132.32 589.19 134.71 C 598.20 133.84 603.39 124.25 612.16 122.54 C 617.39 121.52 622.63 120.42 627.57 118.36 C 627.10 121.81 626.95 125.47 628.71 128.62 C 632.27 124.45 637.94 123.46 641.98 119.94 Z" />
        <path fill="#f0b58b" opacity="1.00"
            d=" M 313.20 239.02 C 324.93 234.32 336.93 230.17 349.25 227.28 C 350.46 237.82 356.03 247.20 362.13 255.64 C 351.32 260.10 340.09 263.77 328.45 265.24 C 319.53 266.33 309.88 266.87 302.28 272.22 C 292.85 280.44 286.61 292.35 275.15 298.17 C 271.43 299.74 266.71 302.25 263.08 299.14 C 264.87 292.45 271.24 288.60 273.92 282.38 C 277.88 281.74 282.21 281.53 285.63 279.22 L 285.35 277.85 C 280.46 276.70 274.65 277.91 270.64 274.24 C 267.36 271.28 263.59 268.54 259.08 268.01 C 255.59 267.32 252.00 269.27 250.41 272.39 C 246.42 279.61 246.97 288.24 244.01 295.83 C 240.79 287.52 241.59 278.00 244.84 269.85 C 247.79 266.02 252.73 264.51 256.57 261.77 C 251.16 259.73 245.54 263.17 241.64 266.74 C 236.69 271.07 235.46 277.78 232.42 283.31 C 231.13 285.85 229.53 288.20 227.81 290.46 C 229.14 283.77 231.42 277.32 233.96 271.01 C 235.33 267.62 237.01 264.18 239.89 261.81 C 243.16 259.13 247.17 257.64 250.97 255.88 C 255.73 253.74 260.27 250.93 265.42 249.77 C 274.40 247.90 283.78 248.96 292.65 246.45 C 299.68 244.51 306.41 241.67 313.20 239.02 Z" />
        <path fill="#f0b58b" opacity="1.00"
            d=" M 501.72 419.06 C 504.65 397.35 523.20 379.61 544.43 375.58 C 547.44 384.79 557.80 387.47 566.08 389.81 C 593.94 396.19 622.39 401.29 651.06 400.88 C 661.09 400.54 670.87 396.84 678.86 390.82 C 685.61 386.51 692.83 382.04 701.07 381.66 C 713.89 380.62 726.27 385.19 737.87 390.11 C 741.96 391.83 746.62 393.84 747.89 398.57 C 735.81 394.29 723.66 389.86 711.07 387.40 C 707.56 387.04 710.62 390.20 712.17 390.68 C 719.53 394.02 727.41 396.05 734.95 398.96 C 741.74 401.64 748.95 403.69 754.83 408.21 C 748.37 408.86 742.12 406.93 736.05 405.03 C 727.55 402.31 718.77 400.62 710.02 398.93 C 708.52 398.49 707.29 398.89 706.32 400.13 C 708.48 402.54 711.95 402.89 714.80 404.14 C 722.25 406.99 730.56 408.70 736.52 414.37 C 741.11 418.60 746.06 422.95 748.31 428.96 C 740.17 429.30 736.55 420.37 729.10 418.86 C 719.53 416.19 709.70 414.59 700.08 412.13 C 697.94 411.78 693.97 410.55 693.80 413.92 C 695.40 416.44 698.17 417.83 700.71 419.23 C 706.72 422.27 712.93 424.95 718.84 428.22 C 722.22 430.06 724.69 433.13 726.67 436.37 C 725.29 437.30 723.85 438.62 722.04 438.13 C 710.57 436.48 699.78 431.10 688.02 431.32 C 679.90 431.62 672.48 435.25 664.86 437.63 C 658.74 439.66 652.37 437.80 646.24 436.91 C 630.29 434.13 614.06 435.41 597.97 435.61 C 582.66 436.41 567.33 436.60 552.01 437.14 C 541.35 437.25 530.67 437.92 520.02 437.22 C 514.13 436.57 507.93 434.66 503.66 430.37 C 500.55 427.45 501.39 422.86 501.72 419.06 Z" />
        <path fill="#f0b58b" opacity="1.00"
            d=" M 600.96 629.03 C 606.95 623.74 612.95 618.42 619.62 613.99 C 629.99 624.68 637.67 637.80 643.33 651.52 C 648.59 664.35 651.58 679.19 646.39 692.54 C 642.09 704.98 633.70 717.28 620.59 721.41 C 608.74 725.68 596.17 718.51 584.31 722.46 C 574.10 713.25 566.45 700.81 564.32 687.11 C 563.55 682.76 563.98 678.33 564.88 674.04 C 568.46 676.83 570.68 680.99 574.26 683.73 C 574.76 683.82 575.78 684.00 576.29 684.08 C 576.46 680.75 574.46 677.89 572.79 675.21 C 568.71 668.78 563.31 663.37 558.36 657.63 C 573.63 649.82 588.03 640.30 600.96 629.03 Z" />
        <path fill="#f0b58b" opacity="1.00"
            d=" M 424.07 654.36 C 441.04 650.69 458.58 648.94 475.92 650.27 C 478.62 667.05 485.78 682.64 489.86 699.09 C 492.95 711.78 497.79 725.40 493.16 738.33 C 488.74 750.24 475.89 755.42 469.40 765.90 C 454.72 766.83 440.56 760.59 428.97 752.04 C 420.88 745.80 413.29 737.95 410.17 728.01 C 408.59 724.01 410.96 720.09 411.16 716.09 C 412.07 706.70 408.74 697.60 404.67 689.31 C 402.08 683.80 399.43 678.31 396.51 672.97 C 399.97 669.00 403.16 664.64 407.67 661.79 C 412.78 658.63 418.09 655.48 424.07 654.36 Z" />
    </g>
    <g id="#f11b27ff">
        <path fill="var(--shirt-color, grey)" opacity="1.00"
            d=" M 429.55 199.56 C 438.55 195.59 448.57 193.58 458.39 194.88 C 461.75 199.67 464.93 204.94 470.16 207.92 C 477.95 212.52 487.20 213.68 495.19 217.87 C 506.57 223.94 515.69 233.47 523.16 243.84 C 529.40 252.88 534.26 263.09 542.47 270.60 C 543.95 272.08 546.65 273.12 548.28 271.24 C 550.63 268.11 550.61 263.93 551.32 260.23 C 552.92 266.76 555.03 273.26 555.18 280.05 C 555.61 287.05 554.04 293.94 553.51 300.89 C 552.72 309.50 553.45 318.19 552.41 326.78 C 551.68 332.49 548.92 337.62 546.67 342.83 C 543.15 338.41 538.43 334.01 538.24 327.99 C 538.41 322.21 541.10 316.82 541.15 311.02 C 541.33 303.03 540.70 294.54 536.46 287.55 C 533.94 283.85 530.95 280.03 526.52 278.62 C 528.71 283.48 532.79 287.29 534.43 292.43 C 537.19 300.82 537.06 309.99 534.98 318.52 C 533.16 311.72 529.55 305.44 524.58 300.46 C 523.30 299.22 521.59 298.58 520.02 297.85 C 521.70 301.97 525.05 305.01 527.32 308.77 C 529.95 313.06 531.39 318.00 532.06 322.97 C 532.80 327.80 533.11 332.93 535.71 337.22 C 537.92 340.89 540.92 343.99 543.73 347.20 C 542.99 356.81 547.70 366.58 556.14 371.42 C 525.10 366.36 493.39 394.84 495.44 426.31 C 489.15 420.08 484.00 412.74 480.20 404.75 C 477.82 399.54 476.11 393.71 477.23 387.96 C 478.69 380.38 480.23 372.75 480.17 365.00 C 480.05 356.62 477.45 348.52 474.13 340.91 C 473.47 339.19 471.99 338.01 470.60 336.90 C 470.74 343.15 473.63 348.86 474.65 354.96 C 477.21 366.00 474.58 377.29 472.22 388.11 C 467.92 381.01 462.06 374.93 458.54 367.36 C 453.55 356.74 450.10 345.48 445.02 334.90 C 441.20 327.68 438.08 319.98 433.20 313.38 C 433.58 315.88 434.26 318.35 435.23 320.69 C 439.03 329.97 443.16 339.13 446.48 348.60 C 450.23 358.84 453.34 369.60 460.04 378.41 C 456.09 375.86 451.84 373.75 448.22 370.71 C 446.23 369.05 444.12 367.52 441.74 366.46 C 442.46 371.47 446.68 374.70 450.06 378.02 C 454.87 382.54 461.68 384.07 466.48 388.57 C 472.22 394.68 473.41 403.34 477.49 410.41 C 482.28 418.91 488.10 427.14 496.12 432.89 C 504.02 438.34 512.77 443.33 522.62 443.71 C 523.68 455.47 525.68 467.39 523.45 479.14 C 522.30 484.74 521.81 490.76 518.72 495.71 C 517.14 498.35 513.75 497.88 511.20 497.38 C 497.01 494.40 484.74 485.04 470.04 484.08 C 456.24 482.77 443.24 488.36 429.97 491.03 C 417.09 493.75 403.47 496.24 390.52 492.54 C 394.25 489.27 397.63 485.64 400.86 481.88 C 405.38 476.58 412.17 474.38 418.13 471.19 C 429.40 465.60 439.80 458.40 451.38 453.44 C 457.24 450.91 463.50 448.49 470.00 448.98 C 476.55 449.60 481.87 453.95 488.10 455.56 C 489.17 454.29 488.54 452.66 487.29 451.86 C 480.27 446.32 471.44 441.51 462.20 443.47 C 448.25 446.14 436.10 454.00 423.97 460.97 C 417.12 464.92 409.89 468.17 403.06 472.14 C 396.59 475.91 393.42 483.14 387.58 487.65 C 379.28 494.79 366.38 497.17 356.74 491.30 C 349.80 487.47 345.33 480.61 338.74 476.34 C 336.82 474.95 334.37 473.61 334.09 470.99 C 333.06 463.26 335.53 455.64 336.83 448.09 C 338.02 440.55 334.19 433.21 329.23 427.78 C 326.44 424.49 322.80 421.81 320.80 417.91 C 319.73 414.23 321.06 410.26 322.98 407.09 C 327.50 400.08 333.65 394.38 338.98 388.03 C 339.18 393.67 340.84 399.94 346.03 403.00 C 354.72 408.14 365.40 407.90 375.10 406.72 C 392.00 404.74 407.96 398.11 424.92 396.51 C 429.16 395.94 433.70 396.38 437.57 394.21 C 435.58 392.85 433.46 391.41 430.96 391.40 C 423.04 390.85 415.15 392.17 407.33 393.23 C 392.47 395.47 378.17 401.24 363.00 401.33 C 357.73 401.20 352.06 400.55 347.71 397.31 C 344.37 394.61 343.70 389.95 343.84 385.92 C 343.81 381.11 347.54 377.64 349.63 373.65 C 356.81 360.42 361.21 345.93 365.42 331.54 C 369.88 317.83 374.28 303.96 381.21 291.25 C 384.38 285.30 389.58 280.90 394.49 276.43 C 402.09 269.60 408.77 261.69 413.87 252.81 C 417.91 245.77 422.66 239.14 428.21 233.20 C 429.64 231.44 431.69 229.84 431.90 227.41 C 430.07 225.87 428.20 227.62 426.69 228.71 C 420.83 233.51 416.04 239.49 411.83 245.76 C 409.56 239.32 406.50 231.29 399.10 229.53 C 400.75 233.77 404.05 237.12 405.57 241.42 C 406.59 244.21 407.23 247.14 407.45 250.11 C 407.98 253.14 405.35 255.33 403.99 257.74 C 400.27 248.60 393.16 241.48 385.83 235.13 C 384.65 234.34 383.34 233.01 381.79 233.65 C 380.55 235.24 382.58 236.51 383.29 237.74 C 389.78 245.19 396.65 252.66 400.59 261.85 C 397.50 265.39 394.25 268.79 390.81 272.00 C 381.35 267.41 373.79 259.78 367.44 251.56 C 361.41 243.43 355.78 234.41 354.68 224.12 C 362.54 220.82 370.64 218.10 378.25 214.21 C 388.12 209.61 398.63 206.58 409.19 204.00 C 415.93 202.30 423.08 202.34 429.55 199.56 M 436.79 236.78 C 433.00 241.88 430.49 247.84 428.79 253.94 C 425.74 264.77 427.12 276.28 429.94 287.00 C 431.02 290.89 432.25 295.03 435.60 297.61 C 434.85 293.27 433.29 289.12 432.38 284.82 C 429.51 272.64 430.27 259.62 435.22 248.08 C 436.86 243.17 440.41 239.22 442.21 234.40 C 439.93 232.89 438.11 235.15 436.79 236.78 Z" />
    </g>
    <g id="#ffffffff">
        <path fill="var(--pants-color, grey)" opacity="1.00"
            d=" M 337.70 480.44 C 343.36 485.41 348.08 491.54 354.78 495.22 C 365.33 501.73 378.36 499.25 389.85 497.28 C 402.84 501.67 416.87 499.48 430.02 496.90 C 443.00 494.49 455.53 488.98 468.95 489.56 C 482.68 489.96 494.04 498.88 507.25 501.55 C 506.47 505.23 507.07 508.96 508.18 512.51 C 502.46 511.53 496.93 513.37 491.46 514.71 C 485.90 516.08 480.03 515.17 474.55 516.86 C 476.18 517.79 477.81 518.95 479.76 519.06 C 488.23 519.96 496.66 518.19 505.06 517.40 C 509.02 517.34 514.06 517.72 516.34 521.47 C 517.25 524.17 517.28 527.09 517.94 529.87 C 512.87 531.50 507.83 533.38 502.53 534.13 C 494.75 535.32 486.82 535.07 478.99 534.62 C 477.17 534.32 475.42 534.92 473.80 535.67 C 477.80 538.91 483.15 538.89 488.02 539.28 C 497.08 539.56 506.55 540.47 515.15 536.91 C 520.69 534.88 526.23 532.66 532.04 531.49 C 537.72 531.19 541.83 535.93 545.16 539.89 C 551.43 548.19 556.68 557.40 564.59 564.33 C 576.91 575.87 593.30 581.83 605.49 593.52 C 610.39 597.93 614.36 603.22 618.94 607.96 C 609.53 613.18 601.75 620.72 593.42 627.42 C 574.04 642.66 552.55 655.76 528.76 662.77 C 519.75 653.14 509.25 644.88 497.97 638.07 C 491.60 634.61 485.56 630.55 479.88 626.07 C 477.74 624.58 476.99 622.01 476.16 619.70 C 474.45 615.79 476.52 611.54 477.97 607.87 C 484.81 592.82 498.98 583.31 511.88 573.87 C 517.37 569.62 524.04 567.20 529.33 562.68 C 528.06 562.04 526.80 561.93 525.53 562.37 C 515.52 565.91 506.65 571.88 498.24 578.23 C 487.20 586.28 476.67 596.13 472.06 609.36 C 469.93 604.14 467.64 598.83 467.32 593.12 C 466.55 585.30 469.09 577.58 468.42 569.77 C 467.55 568.50 466.57 568.38 465.49 569.41 C 463.84 572.65 463.55 576.37 462.79 579.88 C 460.54 577.84 458.15 575.57 454.98 575.26 C 449.94 574.73 444.98 576.25 439.95 576.34 C 432.19 576.45 424.27 575.30 417.27 571.78 C 407.09 566.87 396.99 561.66 387.60 555.35 C 380.75 550.63 374.49 545.13 367.99 539.97 C 366.44 538.67 364.60 537.78 362.72 537.13 C 363.97 540.62 366.95 542.93 369.55 545.39 C 374.98 550.32 380.63 555.01 386.32 559.64 C 395.01 566.29 404.56 571.75 414.40 576.51 C 425.60 582.15 438.76 582.95 450.92 580.42 C 455.09 579.20 459.02 581.78 461.27 585.13 C 461.45 588.74 460.95 592.37 461.29 595.99 C 455.84 591.80 449.10 588.41 442.04 589.28 C 435.86 590.39 430.85 594.46 425.56 597.57 C 415.60 603.69 404.53 607.67 394.38 613.44 C 388.57 616.83 381.78 617.69 375.73 620.46 C 376.93 621.60 378.33 622.01 379.92 621.67 C 394.30 619.93 407.48 613.55 420.43 607.45 C 427.32 604.29 433.07 599.21 439.73 595.67 C 447.75 591.84 456.04 597.31 462.45 601.86 C 464.46 608.19 467.44 614.14 469.82 620.33 C 472.82 627.85 475.25 635.58 477.53 643.36 C 457.69 642.68 437.36 642.98 418.38 649.49 C 408.07 653.56 399.22 660.66 392.33 669.28 C 385.82 676.45 381.06 685.55 372.43 690.52 C 370.56 691.74 368.31 692.03 366.12 692.02 C 365.47 681.69 364.75 671.23 361.43 661.34 C 357.57 647.28 351.67 633.68 350.20 619.05 C 349.39 613.69 349.90 608.22 349.00 602.89 C 347.16 594.26 343.83 586.05 341.08 577.69 C 336.89 565.87 334.04 553.53 333.32 540.98 C 332.25 520.73 334.64 500.44 337.70 480.44 Z" />
        <path fill="var(--socks-color, grey)" opacity="1.00"
            d=" M 518.28 682.38 C 531.67 677.74 545.74 675.14 559.88 674.29 C 557.18 684.27 559.77 694.79 564.07 703.91 C 567.90 711.96 573.34 719.32 580.34 724.89 C 573.53 728.64 566.46 732.01 558.96 734.13 C 545.98 737.76 532.95 741.27 519.73 743.94 C 511.12 745.50 502.49 747.13 494.14 749.81 C 499.71 743.61 502.42 735.24 502.34 726.97 C 502.28 715.20 498.68 703.88 495.73 692.61 C 502.46 687.68 510.26 684.52 518.28 682.38 Z" />
        <path fill="var(--socks-color, grey)" opacity="1.00"
            d=" M 397.33 742.44 C 400.09 739.03 402.64 735.47 405.04 731.80 C 408.82 743.70 418.20 752.81 428.19 759.80 C 438.95 767.15 451.62 772.38 464.82 772.22 C 454.05 787.86 443.22 803.46 431.77 818.61 C 420.83 833.66 409.00 848.03 398.18 863.16 C 391.08 872.70 385.53 883.26 378.72 893.00 C 375.00 891.36 371.07 889.80 366.93 890.22 C 358.04 890.47 350.94 897.65 341.95 897.33 C 333.66 897.17 327.36 886.78 331.31 879.44 C 333.33 874.92 336.02 870.76 338.49 866.48 C 342.61 858.68 345.32 850.25 348.19 841.93 C 350.54 834.84 353.25 827.88 355.71 820.83 C 364.85 792.49 380.26 766.65 397.33 742.44 Z" />
    </g>
    <g id="#4d4d4dff">
        <path fill="#4d4d4d" opacity="1.00"
            d=" M 432.76 826.99 C 441.08 815.50 449.47 804.07 457.46 792.35 C 457.30 798.36 457.39 804.45 458.87 810.33 C 462.21 823.95 469.21 836.75 469.85 850.97 C 469.89 854.60 469.65 859.42 465.99 861.33 C 459.07 861.97 453.32 856.84 448.83 852.19 C 442.34 844.61 436.74 836.15 432.76 826.99 Z" />
        <path fill="#4d4d4d" opacity="1.00"
            d=" M 313.20 896.18 C 316.13 891.43 320.46 887.83 325.10 884.85 C 325.65 889.29 326.44 894.02 329.74 897.33 C 333.35 901.90 339.26 904.39 345.06 903.77 C 351.67 903.32 357.44 899.78 363.55 897.61 C 367.30 896.18 371.35 896.74 375.21 897.34 C 370.61 908.02 368.14 920.77 373.19 931.74 C 379.62 946.09 392.00 956.27 402.58 967.45 C 404.65 969.75 407.13 972.46 406.70 975.81 C 406.38 978.04 403.79 978.21 402.01 978.22 C 396.62 978.09 391.36 976.73 386.04 976.05 C 375.92 974.47 365.59 974.67 355.53 972.69 C 351.96 972.04 348.55 970.59 345.77 968.25 C 334.49 958.91 324.77 947.78 312.94 939.08 C 308.45 935.55 302.70 931.48 303.19 925.02 C 303.98 914.79 307.72 904.82 313.20 896.18 Z" />
    </g>
</svg>