<?xml version="1.0" encoding="UTF-8" ?>
<!DOCTYPE svg PUBLIC "-//W3C//DTD SVG 1.1//EN" "http://www.w3.org/Graphics/SVG/1.1/DTD/svg11.dtd">
<svg width="1000pt" height="1000pt" viewBox="0 0 1000 1000" version="1.1" xmlns="http://www.w3.org/2000/svg">
    <g id="#020202ff">
        <path fill="#020202" opacity="1.00"
            d=" M 563.74 18.59 C 577.99 14.11 593.62 11.90 608.26 15.82 C 614.99 17.56 617.67 24.41 622.00 29.02 C 625.20 29.97 628.63 29.36 631.93 29.74 C 636.55 29.96 640.96 31.59 644.94 33.88 C 643.87 36.31 642.28 38.44 640.42 40.31 C 649.65 45.10 657.64 53.18 660.82 63.23 C 662.53 68.02 660.42 73.95 664.22 77.92 C 672.37 87.93 672.47 102.04 669.19 113.97 C 667.55 120.47 662.97 125.77 661.62 132.37 C 660.38 136.82 660.02 141.61 657.72 145.71 C 656.32 148.26 653.49 149.67 652.25 152.31 C 647.59 163.43 641.86 174.07 637.79 185.43 C 654.94 185.47 671.86 191.17 685.63 201.36 C 697.28 209.96 707.72 220.70 714.42 233.63 C 718.19 242.77 721.63 252.30 727.88 260.11 C 731.08 264.14 736.62 262.29 740.97 262.09 C 751.92 260.68 764.10 264.06 771.07 273.02 C 776.55 280.89 778.21 291.36 775.65 300.59 C 783.27 305.66 791.00 310.55 799.02 314.94 C 801.97 316.48 804.66 318.48 806.88 320.98 C 810.39 320.35 814.13 319.22 817.62 320.60 C 820.09 321.51 821.48 323.90 822.99 325.90 C 826.89 325.93 831.25 327.08 832.91 331.03 C 836.07 335.86 833.26 341.50 831.12 346.10 C 827.82 352.65 824.96 359.60 820.28 365.32 C 816.62 369.51 810.21 369.32 805.96 366.16 C 803.77 367.22 801.50 368.70 798.95 368.25 C 796.45 367.95 794.49 366.24 792.47 364.90 C 790.42 365.78 788.36 367.13 786.04 366.83 C 783.35 366.54 781.30 364.62 779.18 363.15 C 775.82 363.96 772.64 362.80 770.10 360.61 C 767.41 361.05 764.41 361.68 762.04 359.92 C 757.89 357.73 756.29 353.06 755.50 348.74 C 744.34 348.02 733.62 344.19 723.88 338.84 C 720.91 344.83 716.28 350.43 709.88 352.85 C 706.12 354.19 703.33 350.30 700.69 348.26 C 689.62 337.25 677.07 327.90 664.45 318.77 C 657.45 325.61 652.18 333.91 647.26 342.30 C 639.44 355.64 636.68 371.15 634.33 386.23 C 633.15 394.16 632.70 402.54 628.65 409.67 C 625.74 414.91 620.56 418.26 616.77 422.79 C 613.10 427.07 610.11 432.31 609.68 438.03 C 609.72 444.43 613.24 450.05 614.73 456.14 C 617.25 464.98 616.95 475.01 612.12 483.04 C 605.81 492.96 595.33 499.93 583.91 502.55 C 582.32 512.63 577.32 521.81 575.92 531.95 C 575.08 538.09 573.71 544.75 576.37 550.64 C 578.52 554.15 582.46 555.97 585.45 558.68 C 595.03 566.28 601.39 577.22 605.27 588.68 C 606.02 591.59 607.39 595.44 604.81 597.85 C 601.96 600.09 598.13 598.66 595.00 597.90 C 587.24 595.46 579.55 592.57 571.39 591.82 C 573.52 600.86 578.95 608.57 583.62 616.44 C 590.99 628.10 597.74 640.49 600.55 654.12 C 602.03 663.52 602.32 673.39 599.34 682.54 C 597.19 689.11 594.11 695.38 590.08 701.00 C 582.26 712.46 569.46 720.79 566.03 734.94 C 558.40 765.16 543.36 792.67 531.03 821.09 C 520.01 845.32 508.69 869.97 504.77 896.52 C 511.52 899.81 515.17 906.56 519.85 912.06 C 526.55 920.32 533.25 929.03 542.61 934.45 C 552.98 940.84 565.14 943.71 575.14 950.77 C 580.11 954.15 583.80 959.36 585.40 965.15 C 586.83 970.38 584.38 975.97 580.31 979.31 C 575.68 983.08 569.84 984.96 564.13 986.41 C 548.28 990.42 531.54 989.83 515.63 986.50 C 500.91 983.47 487.16 976.28 472.01 975.33 C 461.66 974.50 451.35 977.64 441.03 976.12 C 433.26 974.82 425.29 970.62 421.96 963.13 C 420.04 958.35 418.30 953.31 418.45 948.09 C 418.42 938.19 422.88 929.10 427.45 920.59 C 429.63 916.24 433.15 912.82 435.84 908.83 C 442.70 897.10 447.58 884.23 450.25 870.91 C 454.76 849.18 457.92 827.17 459.88 805.06 C 462.04 787.80 465.67 770.71 471.42 754.28 C 465.23 765.79 456.82 776.89 444.95 782.95 C 433.03 787.90 419.66 785.88 407.40 783.39 C 404.19 782.61 401.08 784.12 398.05 784.93 C 375.77 791.66 354.01 800.36 331.07 804.71 C 320.82 806.57 310.47 808.08 300.04 808.49 C 284.89 809.14 269.70 810.74 255.04 814.76 C 246.95 816.66 239.11 819.56 230.87 820.81 C 227.96 832.69 230.11 845.05 228.04 857.03 C 226.64 865.98 223.29 874.46 219.62 882.70 C 216.72 889.09 215.86 896.14 215.52 903.08 C 215.12 908.08 214.41 913.91 210.04 917.11 C 204.18 921.44 196.10 920.11 190.03 916.93 C 181.22 912.15 174.40 904.41 168.74 896.28 C 163.40 888.61 160.25 879.40 160.28 870.02 C 159.99 859.91 162.54 850.04 163.01 839.99 C 164.08 823.52 163.27 807.00 162.09 790.57 C 161.17 780.71 164.95 769.99 173.28 764.23 C 180.46 759.24 189.50 758.40 197.99 758.24 C 206.30 757.86 214.60 759.41 222.89 758.47 C 231.83 757.53 240.69 755.95 249.52 754.32 C 256.32 753.09 263.01 751.18 269.31 748.30 C 289.15 739.47 308.08 728.42 328.96 722.05 C 344.68 716.55 361.38 714.24 378.00 714.57 C 383.35 714.78 388.62 715.79 393.82 717.06 C 396.82 713.89 399.84 710.52 401.20 706.28 C 403.68 698.78 404.39 690.85 405.07 683.03 C 406.11 670.90 406.97 658.75 407.06 646.57 C 404.70 644.31 401.56 641.70 402.30 638.02 C 403.53 631.12 408.55 625.77 411.72 619.71 C 414.37 615.63 415.20 610.74 415.25 605.96 C 415.51 600.18 415.08 594.39 414.12 588.70 C 412.92 582.02 413.11 575.18 413.83 568.46 C 406.02 554.84 401.60 539.68 397.24 524.70 C 393.90 512.03 390.90 499.18 390.11 486.06 C 389.70 480.35 389.27 474.41 391.36 468.94 C 379.67 456.01 365.15 444.40 359.61 427.21 C 353.05 406.57 358.83 384.80 365.09 364.86 C 358.05 364.44 351.04 365.87 344.02 365.49 C 342.02 361.41 344.36 356.82 345.81 352.93 C 349.60 343.38 357.40 336.43 363.15 328.15 C 367.03 322.84 369.97 316.94 373.35 311.31 C 380.21 299.80 387.88 288.74 396.62 278.57 C 405.14 268.54 414.00 258.73 424.00 250.15 C 434.57 240.90 446.51 233.41 457.05 224.13 C 465.18 217.59 472.09 209.75 479.03 202.00 C 487.60 192.27 499.29 184.68 512.43 183.42 C 517.21 174.29 520.50 163.80 518.18 153.47 C 517.63 151.94 516.44 150.77 515.48 149.50 C 510.61 143.69 506.96 136.95 504.01 129.99 C 502.30 126.22 502.73 121.99 502.37 117.98 C 502.08 112.04 500.65 106.10 501.54 100.16 C 503.07 92.85 508.05 86.93 510.34 79.89 C 508.44 79.39 505.17 81.04 504.26 78.86 C 505.81 75.23 508.17 71.93 509.04 68.02 C 510.89 62.07 510.43 55.32 514.05 50.00 C 519.01 42.50 525.90 36.54 533.05 31.20 C 539.57 26.58 546.63 22.42 554.46 20.47 C 557.51 19.64 560.66 19.30 563.74 18.59 M 595.15 87.54 C 590.81 99.38 584.20 110.35 575.75 119.71 C 574.75 120.86 573.49 121.78 571.88 121.63 C 570.42 119.33 570.46 116.50 569.92 113.91 C 567.81 117.00 564.59 118.90 560.98 119.74 C 559.81 125.49 558.81 131.31 557.11 136.92 C 556.67 139.12 554.09 138.80 552.47 138.32 C 545.00 136.04 538.08 132.00 532.34 126.71 C 530.14 124.89 527.92 122.73 525.01 122.18 C 522.41 121.80 519.24 122.26 517.68 124.61 C 515.39 127.95 516.46 132.28 517.41 135.89 C 520.40 144.67 526.50 151.89 532.76 158.54 C 530.64 160.87 527.42 159.12 524.94 158.50 C 526.08 169.75 521.50 180.81 514.45 189.38 C 514.03 197.42 515.53 205.87 520.68 212.29 C 524.12 218.12 530.74 220.95 534.38 226.61 C 539.50 234.58 541.89 243.94 546.81 252.01 C 548.79 254.91 551.02 258.56 554.86 258.99 C 558.17 256.66 559.03 252.36 560.61 248.86 C 564.52 238.16 569.46 227.80 576.50 218.78 C 569.89 214.76 565.07 208.64 559.26 203.67 C 555.90 200.58 552.07 197.74 550.02 193.53 C 556.72 196.09 561.63 201.60 567.45 205.60 C 576.69 212.79 587.78 219.18 599.85 218.61 C 607.28 216.70 612.70 210.74 617.38 205.01 C 612.23 203.62 607.30 201.57 602.41 199.47 C 599.32 198.28 596.29 196.04 596.52 192.36 C 595.56 191.28 593.28 190.72 593.60 188.98 C 593.32 186.94 596.24 186.65 597.58 187.45 C 606.00 190.67 614.21 194.44 622.37 198.26 C 625.11 194.21 627.82 190.12 630.64 186.12 C 628.14 188.18 625.75 190.48 622.80 191.90 C 620.82 192.38 620.00 190.11 618.87 188.98 C 616.37 185.35 613.03 182.17 611.54 177.95 C 611.91 177.64 612.65 177.01 613.02 176.69 C 616.28 177.73 618.21 180.85 620.64 183.08 C 622.76 182.33 624.84 181.39 627.07 181.00 C 629.35 181.61 630.17 184.01 631.02 185.94 C 631.33 185.00 631.64 184.07 631.97 183.14 C 629.92 174.57 628.11 165.53 629.95 156.76 C 631.08 152.87 632.55 148.45 636.13 146.16 C 639.98 146.40 643.62 147.83 647.31 148.86 C 650.71 140.21 654.62 131.47 655.50 122.14 C 652.08 117.58 646.57 115.10 643.07 110.55 C 642.78 111.07 642.18 112.12 641.89 112.64 C 636.98 111.44 633.10 108.03 629.69 104.47 C 629.02 107.97 628.00 111.86 624.88 113.99 C 622.44 115.25 619.74 114.01 617.74 112.52 C 618.30 111.34 618.86 110.17 619.43 109.00 C 613.88 99.27 601.72 96.41 595.15 87.54 M 633.81 159.97 C 633.81 165.27 634.52 170.54 635.18 175.79 C 637.00 171.21 638.95 166.68 641.05 162.22 C 638.63 161.46 636.22 160.71 633.81 159.97 M 491.39 199.33 C 482.79 205.70 476.68 214.64 468.87 221.85 C 455.52 234.71 439.57 244.40 425.79 256.74 C 416.55 264.49 408.61 273.62 400.72 282.70 C 391.16 293.81 382.60 305.79 375.36 318.54 C 389.54 312.82 401.56 303.10 415.08 296.13 C 417.26 294.95 419.71 294.49 422.17 294.28 C 421.09 298.02 417.40 299.58 414.43 301.53 C 406.45 306.46 398.78 311.86 390.95 317.01 C 385.35 320.70 379.00 323.23 372.31 324.00 C 368.23 330.54 363.62 336.74 358.54 342.54 C 353.80 347.95 350.59 354.51 348.50 361.35 C 359.62 359.10 371.29 359.11 382.14 362.71 C 400.97 368.75 418.02 379.46 433.39 391.75 C 434.77 388.93 437.14 386.93 440.21 386.20 C 444.06 385.26 445.36 381.13 446.93 377.98 C 451.46 367.43 455.22 356.54 460.29 346.22 C 465.22 336.24 468.78 325.67 472.34 315.14 C 473.08 312.67 474.62 310.57 476.31 308.66 C 476.67 310.75 477.24 312.90 476.75 315.03 C 475.22 322.45 472.63 329.60 469.99 336.69 C 479.94 331.11 489.02 323.05 493.09 312.11 C 494.65 309.29 494.86 305.05 498.22 303.73 C 498.48 304.95 498.81 306.24 498.51 307.50 C 496.63 315.53 493.21 323.39 487.58 329.52 C 483.33 334.05 478.40 337.95 472.95 340.91 C 470.53 342.23 468.27 343.80 466.22 345.63 C 473.50 357.11 483.66 366.88 495.55 373.50 C 508.03 380.05 521.38 385.04 535.25 387.71 C 540.25 388.83 545.45 389.03 550.35 390.66 C 546.07 392.43 541.39 391.70 536.95 391.16 C 523.50 389.21 510.06 386.14 497.75 380.25 C 483.95 373.86 472.24 363.14 464.37 350.16 C 461.92 355.85 459.47 361.53 457.24 367.30 C 469.08 382.60 487.53 389.97 504.31 398.33 C 500.58 400.85 496.37 398.54 492.69 397.20 C 478.79 391.49 464.11 384.98 455.24 372.23 C 453.00 377.47 451.07 382.98 447.57 387.55 C 445.63 390.30 442.19 390.97 439.18 391.90 C 437.99 394.00 437.08 397.16 434.01 396.60 C 429.23 394.42 425.37 390.74 420.94 387.97 C 421.54 398.26 425.19 408.01 430.01 417.02 C 435.13 427.25 439.57 437.82 445.25 447.76 C 446.81 450.85 450.24 452.12 452.84 454.15 C 464.63 462.70 476.08 472.87 490.69 476.18 C 516.06 482.34 541.93 486.51 566.88 494.38 C 576.91 497.77 588.91 497.22 597.48 490.51 C 603.07 486.38 608.38 480.99 609.68 473.88 C 612.04 464.48 608.26 455.20 605.39 446.39 C 603.40 440.48 603.96 434.05 606.43 428.38 C 598.36 430.94 589.90 431.88 581.51 432.69 C 567.33 433.78 553.21 435.64 538.98 435.98 C 525.90 436.94 512.78 437.46 499.74 438.94 C 510.33 443.30 521.11 447.25 532.31 449.74 C 536.80 450.90 541.55 451.37 545.71 453.59 C 537.81 455.27 529.99 452.30 522.34 450.69 C 512.75 448.62 503.64 444.97 494.51 441.47 C 493.07 440.88 491.64 440.19 490.57 439.05 C 489.84 436.64 492.28 435.67 494.16 435.27 C 500.30 433.90 506.58 433.40 512.84 432.90 C 523.58 432.21 534.29 431.19 545.05 430.78 C 556.41 430.39 567.68 428.76 579.02 428.05 C 588.36 427.24 597.90 426.74 606.88 423.82 C 610.01 422.96 611.68 419.98 613.82 417.80 C 617.08 414.03 621.37 411.12 623.85 406.71 C 626.42 402.16 627.16 396.90 627.88 391.81 C 629.51 378.42 631.64 364.96 636.17 352.21 C 641.52 338.56 650.15 326.24 660.53 315.96 C 650.77 308.73 640.55 302.14 630.26 295.69 C 628.25 294.57 627.08 292.56 626.42 290.42 C 631.88 291.63 636.60 294.79 641.43 297.47 C 658.08 307.05 673.48 318.63 688.54 330.51 C 695.84 336.07 701.80 343.13 708.78 349.05 C 712.63 346.18 716.50 342.93 718.37 338.36 C 721.28 331.29 722.30 323.63 724.56 316.35 C 727.44 306.83 732.08 297.32 740.09 291.09 C 746.99 285.70 758.22 286.21 764.03 292.97 C 766.18 295.56 769.36 296.85 772.27 298.38 C 773.03 288.13 770.48 275.53 760.35 270.60 C 752.02 265.56 742.07 267.57 732.91 267.87 C 725.58 267.99 721.66 260.88 718.63 255.29 C 713.50 246.91 711.84 236.88 706.13 228.83 C 695.93 213.98 681.45 202.13 664.87 195.10 C 655.61 191.32 645.62 189.79 635.68 189.33 C 630.87 196.87 626.04 204.42 620.39 211.36 C 615.70 217.10 609.69 222.03 602.57 224.34 C 595.23 226.10 587.91 223.35 581.04 221.02 C 572.54 230.82 568.89 243.45 564.22 255.27 C 562.68 258.93 560.66 263.14 556.56 264.40 C 552.23 265.59 548.07 262.75 545.37 259.62 C 538.06 250.98 535.96 239.41 529.89 230.03 C 526.81 225.48 521.67 222.94 518.30 218.66 C 514.96 214.47 512.11 209.77 510.61 204.59 C 509.12 199.61 509.39 194.36 509.29 189.22 C 502.91 191.78 496.76 195.00 491.39 199.33 M 745.93 293.10 C 749.11 293.16 752.30 293.15 755.49 293.00 C 752.32 292.46 749.09 292.56 745.93 293.10 M 731.89 310.76 C 729.00 318.64 727.66 326.96 725.15 334.95 C 734.60 340.06 744.81 344.03 755.57 345.07 C 756.37 336.40 757.76 327.23 763.16 320.10 C 767.18 314.80 774.24 310.96 780.97 312.97 C 784.64 313.86 787.56 316.41 790.16 319.03 C 791.46 318.33 792.78 317.63 794.10 316.94 C 785.06 312.57 776.72 306.93 767.90 302.17 C 759.49 297.34 749.42 300.00 740.39 297.47 C 737.04 301.54 733.68 305.74 731.89 310.76 M 768.48 321.43 C 762.90 328.27 761.46 337.42 760.80 345.96 C 760.33 350.80 762.56 355.79 767.28 357.61 C 769.21 353.50 768.41 348.88 768.99 344.51 C 774.32 347.28 769.95 355.21 775.07 358.35 C 776.52 356.48 778.56 352.03 781.43 354.59 C 782.80 357.26 783.10 361.55 787.04 361.52 C 790.26 359.46 786.24 354.41 789.98 352.76 C 793.19 352.02 793.88 355.67 794.39 357.96 C 794.86 360.71 797.15 363.11 800.03 363.26 C 802.70 362.27 803.30 357.67 806.58 358.29 C 808.44 359.59 809.30 361.88 811.06 363.33 C 814.38 363.98 816.92 361.07 818.40 358.48 C 822.58 351.16 826.92 343.80 829.51 335.75 C 830.34 333.80 828.92 331.51 827.07 330.81 C 824.83 330.61 822.58 330.95 820.36 330.64 C 818.20 328.97 818.04 325.13 814.98 324.67 C 811.56 324.48 808.31 325.88 804.91 326.01 C 802.92 324.25 802.22 320.58 799.08 320.62 C 795.37 320.19 792.67 323.56 789.14 323.78 C 786.20 321.84 784.50 318.18 780.89 317.22 C 776.35 315.57 771.33 317.77 768.48 321.43 M 364.35 418.20 C 366.89 432.37 376.56 443.75 386.41 453.66 C 395.74 463.32 404.60 473.43 414.05 482.97 C 423.87 492.45 433.55 502.08 442.77 512.14 C 447.64 517.58 452.07 523.63 454.24 530.69 C 457.40 539.73 456.40 549.44 457.77 558.78 C 459.44 572.46 463.39 586.33 472.03 597.32 C 469.70 590.09 465.37 583.02 466.28 575.17 C 469.49 579.44 471.20 584.58 473.55 589.34 C 476.50 596.43 481.01 604.01 489.04 605.97 C 483.33 599.74 478.74 592.57 475.02 585.00 C 472.14 579.16 469.29 573.07 468.84 566.48 C 470.60 567.55 472.16 568.98 472.97 570.92 C 477.63 580.57 482.95 589.98 489.63 598.39 C 493.46 603.12 499.30 605.54 505.10 606.83 C 499.26 599.28 493.87 591.40 488.23 583.70 C 484.50 578.51 481.23 572.85 479.59 566.64 C 480.65 566.43 481.93 566.06 482.62 567.23 C 486.93 571.81 489.75 577.53 493.52 582.53 C 499.48 590.59 504.78 599.17 511.52 606.62 C 511.61 602.70 510.97 598.83 510.01 595.05 C 507.19 584.34 503.71 573.81 500.68 563.16 C 499.73 559.74 498.39 556.30 498.69 552.70 C 502.38 551.92 503.94 556.22 505.03 558.95 C 508.20 569.35 511.22 579.79 514.04 590.29 C 514.72 580.70 511.71 571.42 510.13 562.07 C 508.50 552.79 505.87 542.92 498.77 536.26 C 494.20 532.11 489.27 528.37 484.58 524.36 C 475.37 517.54 470.57 506.77 464.85 497.19 C 455.90 480.05 445.78 463.57 436.51 446.61 C 431.30 437.13 427.07 427.17 422.26 417.49 C 419.30 411.61 417.18 405.37 415.36 399.05 C 414.07 394.19 414.55 389.11 415.34 384.22 C 401.44 375.39 386.32 367.66 369.85 365.26 C 366.41 382.64 360.97 400.35 364.35 418.20 M 451.31 458.90 C 462.35 476.73 470.38 496.30 482.48 513.49 C 485.89 517.72 490.05 521.27 493.97 525.01 C 498.79 529.20 504.08 533.05 507.65 538.44 C 512.33 545.43 514.15 553.81 515.60 561.96 C 517.03 570.29 519.26 578.58 519.16 587.08 C 519.20 590.34 517.74 593.42 515.19 595.45 C 515.94 599.52 516.57 603.71 515.79 607.83 C 523.63 601.74 531.84 595.92 541.11 592.18 C 551.13 588.11 562.02 585.29 572.91 586.61 C 582.63 587.45 591.45 592.02 600.93 593.94 C 597.66 581.44 590.73 569.52 580.53 561.43 C 575.08 558.41 570.35 553.75 564.02 552.65 C 557.00 550.96 550.18 548.46 543.60 545.50 C 538.07 543.04 533.57 538.86 529.47 534.51 C 528.41 533.46 527.91 532.02 527.67 530.61 C 531.00 530.56 533.01 533.80 535.76 535.22 C 544.12 540.02 553.10 543.61 561.90 547.50 C 555.82 540.39 550.86 532.38 544.52 525.49 C 539.21 519.71 531.85 516.61 525.07 512.96 C 525.21 512.53 525.47 511.68 525.60 511.25 C 530.52 510.86 535.11 513.66 539.44 515.72 C 552.78 523.56 558.88 538.80 570.24 548.77 C 569.09 541.50 570.30 534.11 571.98 527.03 C 574.02 518.67 578.03 511.00 580.76 502.87 C 575.33 502.98 569.97 501.93 564.78 500.43 C 544.09 494.52 523.01 490.14 501.96 485.71 C 492.55 483.52 482.88 481.57 474.44 476.63 C 466.03 471.70 458.59 465.33 451.31 458.90 M 394.89 472.77 C 394.79 486.28 396.87 499.70 400.14 512.78 C 404.47 530.07 409.20 547.55 417.77 563.29 C 426.59 577.77 437.83 590.55 447.93 604.11 C 443.08 590.98 440.91 577.07 436.32 563.86 C 434.18 557.48 431.41 551.35 428.78 545.17 C 427.88 542.81 426.57 540.47 426.69 537.86 C 428.94 535.89 430.50 538.67 431.59 540.39 C 438.28 551.92 443.42 564.33 446.81 577.23 C 450.69 592.63 454.72 608.67 464.92 621.28 C 474.93 622.60 485.17 624.51 495.18 622.06 C 498.89 621.44 501.69 618.77 504.58 616.59 C 507.44 614.24 510.50 612.10 513.12 609.47 C 511.29 610.19 509.78 611.47 508.05 612.37 C 504.41 612.71 500.90 611.29 497.43 610.40 C 490.99 612.63 483.42 610.68 478.36 606.22 C 472.37 606.51 468.17 601.44 464.80 597.19 C 454.65 582.92 451.75 565.04 450.70 547.94 C 450.40 539.86 448.93 531.54 444.51 524.62 C 441.11 519.45 436.71 515.05 432.42 510.64 C 420.18 497.74 406.93 485.87 394.89 472.77 M 418.66 575.69 C 419.07 579.46 419.27 583.27 420.03 587.01 C 421.72 595.16 421.66 603.61 420.52 611.83 C 419.02 621.30 412.23 628.55 408.39 637.06 C 412.93 634.19 417.55 631.22 420.93 626.96 C 424.00 623.00 427.40 619.31 430.33 615.24 C 431.69 613.40 433.05 611.51 434.92 610.15 C 437.23 611.30 435.26 613.84 434.55 615.40 C 430.94 621.22 428.32 627.69 423.86 632.95 C 420.08 637.47 414.78 640.44 409.28 642.35 C 418.92 647.21 428.97 651.21 438.38 656.51 C 445.95 660.62 454.24 663.91 462.97 663.92 C 478.00 664.15 491.80 657.30 506.36 654.64 C 498.51 646.13 490.67 637.58 483.39 628.57 C 476.03 628.37 468.37 628.05 461.47 625.29 C 450.64 615.86 441.59 604.58 432.60 593.42 C 427.73 587.68 422.84 581.95 418.66 575.69 M 520.90 610.89 C 514.74 615.41 509.09 620.70 502.40 624.46 C 498.52 626.72 493.99 627.17 489.66 627.91 C 502.63 641.84 515.37 656.02 527.51 670.68 C 530.49 669.10 533.32 666.52 536.84 666.44 C 539.12 666.05 539.28 669.47 537.39 670.13 C 526.22 677.66 515.98 686.64 507.61 697.22 C 515.35 696.42 523.21 696.83 530.82 698.55 C 544.65 701.56 558.21 708.52 566.58 720.26 C 571.53 712.47 578.95 706.73 584.31 699.27 C 590.98 690.23 595.97 679.43 596.11 668.04 C 596.75 655.19 591.88 643.00 586.23 631.75 C 579.59 618.45 569.19 606.68 566.47 591.71 C 549.65 592.79 534.03 600.69 520.90 610.89 M 413.11 649.96 C 413.29 658.23 412.52 666.49 412.14 674.76 C 411.16 686.19 410.81 697.94 406.79 708.82 C 405.37 712.85 402.46 716.07 399.42 718.97 C 402.75 720.31 406.00 721.88 409.02 723.85 C 412.18 725.95 415.90 727.74 417.59 731.38 C 409.51 728.02 401.81 723.43 392.99 722.13 C 389.33 735.45 391.60 749.74 396.52 762.43 C 399.31 768.94 403.18 775.71 409.40 779.40 C 419.75 780.57 430.55 781.86 440.70 778.74 C 448.78 775.53 454.83 768.81 459.94 762.01 C 469.59 748.33 475.78 732.56 480.85 716.71 C 486.65 699.17 488.49 680.55 495.05 663.24 C 482.59 666.89 469.67 671.35 456.50 669.22 C 447.55 667.92 439.55 663.53 431.71 659.30 C 425.61 655.99 419.18 653.33 413.11 649.96 M 501.29 661.44 C 497.72 670.00 495.30 678.97 493.55 688.06 C 491.43 698.84 488.87 709.54 485.61 720.03 C 495.33 702.36 507.51 685.55 523.77 673.35 C 519.15 668.71 514.74 663.86 510.33 659.02 C 507.31 659.81 504.30 660.63 501.29 661.44 M 502.47 704.23 C 494.45 715.32 488.33 727.68 483.19 740.32 C 474.72 761.43 468.79 783.55 465.74 806.09 C 464.62 819.10 463.07 832.06 461.05 844.96 C 458.63 859.05 456.29 873.21 452.05 886.89 C 450.10 893.38 446.81 899.34 444.15 905.55 C 447.79 904.98 451.47 905.04 455.12 905.48 C 459.91 906.01 464.23 903.44 468.48 901.64 C 473.30 899.34 478.44 897.85 483.56 896.36 C 489.09 894.70 494.96 895.11 500.65 895.37 C 500.05 887.78 501.41 880.24 503.66 873.03 C 508.25 855.50 515.63 838.88 523.30 822.51 C 527.51 813.87 530.93 804.86 535.46 796.37 C 545.34 776.19 554.92 755.66 560.58 733.84 C 561.42 730.75 562.58 727.77 563.87 724.85 C 558.92 719.09 552.88 714.28 546.07 710.90 C 532.73 703.93 517.24 702.46 502.47 704.23 M 319.13 731.34 C 301.12 738.32 284.42 748.23 266.41 755.20 C 255.67 759.14 244.26 760.70 232.99 762.37 C 230.13 762.91 226.99 762.71 224.42 764.25 C 214.94 769.77 207.45 779.06 205.12 789.89 C 203.34 797.48 204.20 805.95 208.57 812.53 C 212.03 816.69 217.97 816.91 222.96 816.45 C 229.58 815.61 236.17 814.26 242.53 812.18 C 259.52 806.90 277.17 803.99 294.94 803.38 C 308.47 803.04 321.93 801.36 335.17 798.64 C 357.53 793.66 378.72 784.66 400.91 779.08 C 394.10 771.57 389.53 762.23 386.77 752.53 C 383.87 742.35 382.83 731.02 386.90 721.01 C 379.26 720.31 371.58 719.72 363.92 720.35 C 348.43 721.18 333.60 726.13 319.13 731.34 M 180.58 767.48 C 171.67 771.29 167.38 781.74 168.48 790.98 C 170.34 810.68 171.48 830.67 168.16 850.29 C 166.32 861.80 163.57 874.25 168.68 885.33 C 174.24 897.78 183.85 909.17 196.71 914.35 C 200.96 916.31 207.29 914.47 208.50 909.61 C 209.56 904.71 209.13 899.66 209.74 894.73 C 210.26 889.60 211.72 884.60 213.88 879.93 C 217.84 871.33 221.42 862.37 222.44 852.89 C 223.57 842.56 222.75 832.05 224.89 821.82 C 219.52 821.94 213.72 822.10 209.04 819.04 C 201.91 814.68 198.95 805.94 198.65 797.97 C 198.15 784.92 205.32 772.63 215.31 764.65 C 203.75 764.82 191.56 762.89 180.58 767.48 M 487.44 900.67 C 479.32 902.50 471.67 905.81 464.02 909.01 C 458.42 911.48 452.26 909.74 446.44 910.71 C 439.40 912.37 434.90 918.69 431.74 924.75 C 427.61 932.89 423.17 941.67 424.15 951.09 C 425.59 959.19 430.79 967.52 439.15 969.74 C 450.01 972.32 461.04 968.72 471.99 969.54 C 489.38 970.41 504.92 979.48 522.01 981.88 C 537.90 984.22 554.58 984.15 569.87 978.77 C 574.58 977.01 580.25 973.69 580.12 967.96 C 579.50 962.74 575.99 958.22 571.79 955.27 C 562.34 948.65 550.89 945.88 541.08 939.91 C 529.83 933.50 521.60 923.20 513.87 913.06 C 510.73 909.01 508.30 903.89 503.40 901.68 C 498.39 899.57 492.69 899.55 487.44 900.67 Z" />
        <path fill="#020202" opacity="1.00"
            d=" M 589.46 127.44 C 591.63 125.58 594.47 127.34 596.72 128.15 C 604.27 131.67 612.18 134.46 619.44 138.58 C 621.47 139.45 622.00 142.02 621.02 143.87 C 619.97 146.31 618.93 149.11 616.66 150.66 C 614.29 151.24 612.01 149.88 609.83 149.16 C 603.29 146.41 596.59 144.01 590.23 140.85 C 588.47 139.86 586.19 138.39 586.51 136.06 C 586.95 133.09 587.39 129.77 589.46 127.44 Z" />
        <path fill="#020202" opacity="1.00"
            d=" M 601.60 337.66 C 614.39 328.50 628.12 320.34 643.01 315.13 C 644.59 314.92 647.65 313.36 647.96 316.06 C 637.66 321.68 626.81 326.37 617.00 332.89 C 609.06 337.62 602.04 343.98 593.33 347.31 C 593.98 342.70 598.28 340.29 601.60 337.66 Z" />
    </g>
    <g id="#f0b58bff">
        <path fill="#f0b58b" opacity="1.00"
            d=" M 595.15 87.54 C 601.72 96.41 613.88 99.27 619.43 109.00 C 618.86 110.17 618.30 111.34 617.74 112.52 C 619.74 114.01 622.44 115.25 624.88 113.99 C 628.00 111.86 629.02 107.97 629.69 104.47 C 633.10 108.03 636.98 111.44 641.89 112.64 C 642.18 112.12 642.78 111.07 643.07 110.55 C 646.57 115.10 652.08 117.58 655.50 122.14 C 654.62 131.47 650.71 140.21 647.31 148.86 C 643.62 147.83 639.98 146.40 636.13 146.16 C 632.55 148.45 631.08 152.87 629.95 156.76 C 628.11 165.53 629.92 174.57 631.97 183.14 C 631.64 184.07 631.33 185.00 631.02 185.94 C 630.17 184.01 629.35 181.61 627.07 181.00 C 624.84 181.39 622.76 182.33 620.64 183.08 C 618.21 180.85 616.28 177.73 613.02 176.69 C 612.65 177.01 611.91 177.64 611.54 177.95 C 613.03 182.17 616.37 185.35 618.87 188.98 C 620.00 190.11 620.82 192.38 622.80 191.90 C 625.75 190.48 628.14 188.18 630.64 186.12 C 627.82 190.12 625.11 194.21 622.37 198.26 C 614.21 194.44 606.00 190.67 597.58 187.45 C 596.24 186.65 593.32 186.94 593.60 188.98 C 593.28 190.72 595.56 191.28 596.52 192.36 C 596.29 196.04 599.32 198.28 602.41 199.47 C 607.30 201.57 612.23 203.62 617.38 205.01 C 612.70 210.74 607.28 216.70 599.85 218.61 C 587.78 219.18 576.69 212.79 567.45 205.60 C 561.63 201.60 556.72 196.09 550.02 193.53 C 552.07 197.74 555.90 200.58 559.26 203.67 C 565.07 208.64 569.89 214.76 576.50 218.78 C 569.46 227.80 564.52 238.16 560.61 248.86 C 559.03 252.36 558.17 256.66 554.86 258.99 C 551.02 258.56 548.79 254.91 546.81 252.01 C 541.89 243.94 539.50 234.58 534.38 226.61 C 530.74 220.95 524.12 218.12 520.68 212.29 C 515.53 205.87 514.03 197.42 514.45 189.38 C 521.50 180.81 526.08 169.75 524.94 158.50 C 527.42 159.12 530.64 160.87 532.76 158.54 C 526.50 151.89 520.40 144.67 517.41 135.89 C 516.46 132.28 515.39 127.95 517.68 124.61 C 519.24 122.26 522.41 121.80 525.01 122.18 C 527.92 122.73 530.14 124.89 532.34 126.71 C 538.08 132.00 545.00 136.04 552.47 138.32 C 554.09 138.80 556.67 139.12 557.11 136.92 C 558.81 131.31 559.81 125.49 560.98 119.74 C 564.59 118.90 567.81 117.00 569.92 113.91 C 570.46 116.50 570.42 119.33 571.88 121.63 C 573.49 121.78 574.75 120.86 575.75 119.71 C 584.20 110.35 590.81 99.38 595.15 87.54 M 589.46 127.44 C 587.39 129.77 586.95 133.09 586.51 136.06 C 586.19 138.39 588.47 139.86 590.23 140.85 C 596.59 144.01 603.29 146.41 609.83 149.16 C 612.01 149.88 614.29 151.24 616.66 150.66 C 618.93 149.11 619.97 146.31 621.02 143.87 C 622.00 142.02 621.47 139.45 619.44 138.58 C 612.18 134.46 604.27 131.67 596.72 128.15 C 594.47 127.34 591.63 125.58 589.46 127.44 Z" />
        <path fill="#f0b58b" opacity="1.00"
            d=" M 633.81 159.97 C 636.22 160.71 638.63 161.46 641.05 162.22 C 638.95 166.68 637.00 171.21 635.18 175.79 C 634.52 170.54 633.81 165.27 633.81 159.97 Z" />
        <path fill="#f0b58b" opacity="1.00"
            d=" M 731.89 310.76 C 733.68 305.74 737.04 301.54 740.39 297.47 C 749.42 300.00 759.49 297.34 767.90 302.17 C 776.72 306.93 785.06 312.57 794.10 316.94 C 792.78 317.63 791.46 318.33 790.16 319.03 C 787.56 316.41 784.64 313.86 780.97 312.97 C 774.24 310.96 767.18 314.80 763.16 320.10 C 757.76 327.23 756.37 336.40 755.57 345.07 C 744.81 344.03 734.60 340.06 725.15 334.95 C 727.66 326.96 729.00 318.64 731.89 310.76 Z" />
        <path fill="#f0b58b" opacity="1.00"
            d=" M 768.48 321.43 C 771.33 317.77 776.35 315.57 780.89 317.22 C 784.50 318.18 786.20 321.84 789.14 323.78 C 792.67 323.56 795.37 320.19 799.08 320.62 C 802.22 320.58 802.92 324.25 804.91 326.01 C 808.31 325.88 811.56 324.48 814.98 324.67 C 818.04 325.13 818.20 328.97 820.36 330.64 C 822.58 330.95 824.83 330.61 827.07 330.81 C 828.92 331.51 830.34 333.80 829.51 335.75 C 826.92 343.80 822.58 351.16 818.40 358.48 C 816.92 361.07 814.38 363.98 811.06 363.33 C 809.30 361.88 808.44 359.59 806.58 358.29 C 803.30 357.67 802.70 362.27 800.03 363.26 C 797.15 363.11 794.86 360.71 794.39 357.96 C 793.88 355.67 793.19 352.02 789.98 352.76 C 786.24 354.41 790.26 359.46 787.04 361.52 C 783.10 361.55 782.80 357.26 781.43 354.59 C 778.56 352.03 776.52 356.48 775.07 358.35 C 769.95 355.21 774.32 347.28 768.99 344.51 C 768.41 348.88 769.21 353.50 767.28 357.61 C 762.56 355.79 760.33 350.80 760.80 345.96 C 761.46 337.42 762.90 328.27 768.48 321.43 Z" />
        <path fill="#f0b58b" opacity="1.00"
            d=" M 364.35 418.20 C 360.97 400.35 366.41 382.64 369.85 365.26 C 386.32 367.66 401.44 375.39 415.34 384.22 C 414.55 389.11 414.07 394.19 415.36 399.05 C 417.18 405.37 419.30 411.61 422.26 417.49 C 427.07 427.17 431.30 437.13 436.51 446.61 C 445.78 463.57 455.90 480.05 464.85 497.19 C 470.57 506.77 475.37 517.54 484.58 524.36 C 489.27 528.37 494.20 532.11 498.77 536.26 C 505.87 542.92 508.50 552.79 510.13 562.07 C 511.71 571.42 514.72 580.70 514.04 590.29 C 511.22 579.79 508.20 569.35 505.03 558.95 C 503.94 556.22 502.38 551.92 498.69 552.70 C 498.39 556.30 499.73 559.74 500.68 563.16 C 503.71 573.81 507.19 584.34 510.01 595.05 C 510.97 598.83 511.61 602.70 511.52 606.62 C 504.78 599.17 499.48 590.59 493.52 582.53 C 489.75 577.53 486.93 571.81 482.62 567.23 C 481.93 566.06 480.65 566.43 479.59 566.64 C 481.23 572.85 484.50 578.51 488.23 583.70 C 493.87 591.40 499.26 599.28 505.10 606.83 C 499.30 605.54 493.46 603.12 489.63 598.39 C 482.95 589.98 477.63 580.57 472.97 570.92 C 472.16 568.98 470.60 567.55 468.84 566.48 C 469.29 573.07 472.14 579.16 475.02 585.00 C 478.74 592.57 483.33 599.74 489.04 605.97 C 481.01 604.01 476.50 596.43 473.55 589.34 C 471.20 584.58 469.49 579.44 466.28 575.17 C 465.37 583.02 469.70 590.09 472.03 597.32 C 463.39 586.33 459.44 572.46 457.77 558.78 C 456.40 549.44 457.40 539.73 454.24 530.69 C 452.07 523.63 447.64 517.58 442.77 512.14 C 433.55 502.08 423.87 492.45 414.05 482.97 C 404.60 473.43 395.74 463.32 386.41 453.66 C 376.56 443.75 366.89 432.37 364.35 418.20 Z" />
        <path fill="#f0b58b" opacity="1.00"
            d=" M 520.90 610.89 C 534.03 600.69 549.65 592.79 566.47 591.71 C 569.19 606.68 579.59 618.45 586.23 631.75 C 591.88 643.00 596.75 655.19 596.11 668.04 C 595.97 679.43 590.98 690.23 584.31 699.27 C 578.95 706.73 571.53 712.47 566.58 720.26 C 558.21 708.52 544.65 701.56 530.82 698.55 C 523.21 696.83 515.35 696.42 507.61 697.22 C 515.98 686.64 526.22 677.66 537.39 670.13 C 539.28 669.47 539.12 666.05 536.84 666.44 C 533.32 666.52 530.49 669.10 527.51 670.68 C 515.37 656.02 502.63 641.84 489.66 627.91 C 493.99 627.17 498.52 626.72 502.40 624.46 C 509.09 620.70 514.74 615.41 520.90 610.89 Z" />
        <path fill="#f0b58b" opacity="1.00"
            d=" M 413.11 649.96 C 419.18 653.33 425.61 655.99 431.71 659.30 C 439.55 663.53 447.55 667.92 456.50 669.22 C 469.67 671.35 482.59 666.89 495.05 663.24 C 488.49 680.55 486.65 699.17 480.85 716.71 C 475.78 732.56 469.59 748.33 459.94 762.01 C 454.83 768.81 448.78 775.53 440.70 778.74 C 430.55 781.86 419.75 780.57 409.40 779.40 C 403.18 775.71 399.31 768.94 396.52 762.43 C 391.60 749.74 389.33 735.45 392.99 722.13 C 401.81 723.43 409.51 728.02 417.59 731.38 C 415.90 727.74 412.18 725.95 409.02 723.85 C 406.00 721.88 402.75 720.31 399.42 718.97 C 402.46 716.07 405.37 712.85 406.79 708.82 C 410.81 697.94 411.16 686.19 412.14 674.76 C 412.52 666.49 413.29 658.23 413.11 649.96 Z" />
    </g>
    <g id="#f11b27ff">
        <path fill="var(--shirt-color, grey)" opacity="1.00"
            d=" M 491.39 199.33 C 496.76 195.00 502.91 191.78 509.29 189.22 C 509.39 194.36 509.12 199.61 510.61 204.59 C 512.11 209.77 514.96 214.47 518.30 218.66 C 521.67 222.94 526.81 225.48 529.89 230.03 C 535.96 239.41 538.06 250.98 545.37 259.62 C 548.07 262.75 552.23 265.59 556.56 264.40 C 560.66 263.14 562.68 258.93 564.22 255.27 C 568.89 243.45 572.54 230.82 581.04 221.02 C 587.91 223.35 595.23 226.10 602.57 224.34 C 609.69 222.03 615.70 217.10 620.39 211.36 C 626.04 204.42 630.87 196.87 635.68 189.33 C 645.62 189.79 655.61 191.32 664.87 195.10 C 681.45 202.13 695.93 213.98 706.13 228.83 C 711.84 236.88 713.50 246.91 718.63 255.29 C 721.66 260.88 725.58 267.99 732.91 267.87 C 742.07 267.57 752.02 265.56 760.35 270.60 C 770.48 275.53 773.03 288.13 772.27 298.38 C 769.36 296.85 766.18 295.56 764.03 292.97 C 758.22 286.21 746.99 285.70 740.09 291.09 C 732.08 297.32 727.44 306.83 724.56 316.35 C 722.30 323.63 721.28 331.29 718.37 338.36 C 716.50 342.93 712.63 346.18 708.78 349.05 C 701.80 343.13 695.84 336.07 688.54 330.51 C 673.48 318.63 658.08 307.05 641.43 297.47 C 636.60 294.79 631.88 291.63 626.42 290.42 C 627.08 292.56 628.25 294.57 630.26 295.69 C 640.55 302.14 650.77 308.73 660.53 315.96 C 650.15 326.24 641.52 338.56 636.17 352.21 C 631.64 364.96 629.51 378.42 627.88 391.81 C 627.16 396.90 626.42 402.16 623.85 406.71 C 621.37 411.12 617.08 414.03 613.82 417.80 C 611.68 419.98 610.01 422.96 606.88 423.82 C 597.90 426.74 588.36 427.24 579.02 428.05 C 567.68 428.76 556.41 430.39 545.05 430.78 C 534.29 431.19 523.58 432.21 512.84 432.90 C 506.58 433.40 500.30 433.90 494.16 435.27 C 492.28 435.67 489.84 436.64 490.57 439.05 C 491.64 440.19 493.07 440.88 494.51 441.47 C 503.64 444.97 512.75 448.62 522.34 450.69 C 529.99 452.30 537.81 455.27 545.71 453.59 C 541.55 451.37 536.80 450.90 532.31 449.74 C 521.11 447.25 510.33 443.30 499.74 438.94 C 512.78 437.46 525.90 436.94 538.98 435.98 C 553.21 435.64 567.33 433.78 581.51 432.69 C 589.90 431.88 598.36 430.94 606.43 428.38 C 603.96 434.05 603.40 440.48 605.39 446.39 C 608.26 455.20 612.04 464.48 609.68 473.88 C 608.38 480.99 603.07 486.38 597.48 490.51 C 588.91 497.22 576.91 497.77 566.88 494.38 C 541.93 486.51 516.06 482.34 490.69 476.18 C 476.08 472.87 464.63 462.70 452.84 454.15 C 450.24 452.12 446.81 450.85 445.25 447.76 C 439.57 437.82 435.13 427.25 430.01 417.02 C 425.19 408.01 421.54 398.26 420.94 387.97 C 425.37 390.74 429.23 394.42 434.01 396.60 C 437.08 397.16 437.99 394.00 439.18 391.90 C 442.19 390.97 445.63 390.30 447.57 387.55 C 451.07 382.98 453.00 377.47 455.24 372.23 C 464.11 384.98 478.79 391.49 492.69 397.20 C 496.37 398.54 500.58 400.85 504.31 398.33 C 487.53 389.97 469.08 382.60 457.24 367.30 C 459.47 361.53 461.92 355.85 464.37 350.16 C 472.24 363.14 483.95 373.86 497.75 380.25 C 510.06 386.14 523.50 389.21 536.95 391.16 C 541.39 391.70 546.07 392.43 550.35 390.66 C 545.45 389.03 540.25 388.83 535.25 387.71 C 521.38 385.04 508.03 380.05 495.55 373.50 C 483.66 366.88 473.50 357.11 466.22 345.63 C 468.27 343.80 470.53 342.23 472.95 340.91 C 478.40 337.95 483.33 334.05 487.58 329.52 C 493.21 323.39 496.63 315.53 498.51 307.50 C 498.81 306.24 498.48 304.95 498.22 303.73 C 494.86 305.05 494.65 309.29 493.09 312.11 C 489.02 323.05 479.94 331.11 469.99 336.69 C 472.63 329.60 475.22 322.45 476.75 315.03 C 477.24 312.90 476.67 310.75 476.31 308.66 C 474.62 310.57 473.08 312.67 472.34 315.14 C 468.78 325.67 465.22 336.24 460.29 346.22 C 455.22 356.54 451.46 367.43 446.93 377.98 C 445.36 381.13 444.06 385.26 440.21 386.20 C 437.14 386.93 434.77 388.93 433.39 391.75 C 418.02 379.46 400.97 368.75 382.14 362.71 C 371.29 359.11 359.62 359.10 348.50 361.35 C 350.59 354.51 353.80 347.95 358.54 342.54 C 363.62 336.74 368.23 330.54 372.31 324.00 C 379.00 323.23 385.35 320.70 390.95 317.01 C 398.78 311.86 406.45 306.46 414.43 301.53 C 417.40 299.58 421.09 298.02 422.17 294.28 C 419.71 294.49 417.26 294.95 415.08 296.13 C 401.56 303.10 389.54 312.82 375.36 318.54 C 382.60 305.79 391.16 293.81 400.72 282.70 C 408.61 273.62 416.55 264.49 425.79 256.74 C 439.57 244.40 455.52 234.71 468.87 221.85 C 476.68 214.64 482.79 205.70 491.39 199.33 M 601.60 337.66 C 598.28 340.29 593.98 342.70 593.33 347.31 C 602.04 343.98 609.06 337.62 617.00 332.89 C 626.81 326.37 637.66 321.68 647.96 316.06 C 647.65 313.36 644.59 314.92 643.01 315.13 C 628.12 320.34 614.39 328.50 601.60 337.66 Z" />
        <path fill="var(--shirt-color, grey)" opacity="1.00"
            d=" M 745.93 293.10 C 749.09 292.56 752.32 292.46 755.49 293.00 C 752.30 293.15 749.11 293.16 745.93 293.10 Z" />
    </g>
    <g id="#ffffffff">
        <path fill="var(--pants-color, grey)" opacity="1.00"
            d=" M 451.31 458.90 C 458.59 465.33 466.03 471.70 474.44 476.63 C 482.88 481.57 492.55 483.52 501.96 485.71 C 523.01 490.14 544.09 494.52 564.78 500.43 C 569.97 501.93 575.33 502.98 580.76 502.87 C 578.03 511.00 574.02 518.67 571.98 527.03 C 570.30 534.11 569.09 541.50 570.24 548.77 C 558.88 538.80 552.78 523.56 539.44 515.72 C 535.11 513.66 530.52 510.86 525.60 511.25 C 525.47 511.68 525.21 512.53 525.07 512.96 C 531.85 516.61 539.21 519.71 544.52 525.49 C 550.86 532.38 555.82 540.39 561.90 547.50 C 553.10 543.61 544.12 540.02 535.76 535.22 C 533.01 533.80 531.00 530.56 527.67 530.61 C 527.91 532.02 528.41 533.46 529.47 534.51 C 533.57 538.86 538.07 543.04 543.60 545.50 C 550.18 548.46 557.00 550.96 564.02 552.65 C 570.35 553.75 575.08 558.41 580.53 561.43 C 590.73 569.52 597.66 581.44 600.93 593.94 C 591.45 592.02 582.63 587.45 572.91 586.61 C 562.02 585.29 551.13 588.11 541.11 592.18 C 531.84 595.92 523.63 601.74 515.79 607.83 C 516.57 603.71 515.94 599.52 515.19 595.45 C 517.74 593.42 519.20 590.34 519.16 587.08 C 519.26 578.58 517.03 570.29 515.60 561.96 C 514.15 553.81 512.33 545.43 507.65 538.44 C 504.08 533.05 498.79 529.20 493.97 525.01 C 490.05 521.27 485.89 517.72 482.48 513.49 C 470.38 496.30 462.35 476.73 451.31 458.90 Z" />
        <path fill="var(--pants-color, grey)" opacity="1.00"
            d=" M 394.89 472.77 C 406.93 485.87 420.18 497.74 432.42 510.64 C 436.71 515.05 441.11 519.45 444.51 524.62 C 448.93 531.54 450.40 539.86 450.70 547.94 C 451.75 565.04 454.65 582.92 464.80 597.19 C 468.17 601.44 472.37 606.51 478.36 606.22 C 483.42 610.68 490.99 612.63 497.43 610.40 C 500.90 611.29 504.41 612.71 508.05 612.37 C 509.78 611.47 511.29 610.19 513.12 609.47 C 510.50 612.10 507.44 614.24 504.58 616.59 C 501.69 618.77 498.89 621.44 495.18 622.06 C 485.17 624.51 474.93 622.60 464.92 621.28 C 454.72 608.67 450.69 592.63 446.81 577.23 C 443.42 564.33 438.28 551.92 431.59 540.39 C 430.50 538.67 428.94 535.89 426.69 537.86 C 426.57 540.47 427.88 542.81 428.78 545.17 C 431.41 551.35 434.18 557.48 436.32 563.86 C 440.91 577.07 443.08 590.98 447.93 604.11 C 437.83 590.55 426.59 577.77 417.77 563.29 C 409.20 547.55 404.47 530.07 400.14 512.78 C 396.87 499.70 394.79 486.28 394.89 472.77 Z" />
        <path fill="var(--pants-color, grey)" opacity="1.00"
            d=" M 418.66 575.69 C 422.84 581.95 427.73 587.68 432.60 593.42 C 441.59 604.58 450.64 615.86 461.47 625.29 C 468.37 628.05 476.03 628.37 483.39 628.57 C 490.67 637.58 498.51 646.13 506.36 654.64 C 491.80 657.30 478.00 664.15 462.97 663.92 C 454.24 663.91 445.95 660.62 438.38 656.51 C 428.97 651.21 418.92 647.21 409.28 642.35 C 414.78 640.44 420.08 637.47 423.86 632.95 C 428.32 627.69 430.94 621.22 434.55 615.40 C 435.26 613.84 437.23 611.30 434.92 610.15 C 433.05 611.51 431.69 613.40 430.33 615.24 C 427.40 619.31 424.00 623.00 420.93 626.96 C 417.55 631.22 412.93 634.19 408.39 637.06 C 412.23 628.55 419.02 621.30 420.52 611.83 C 421.66 603.61 421.72 595.16 420.03 587.01 C 419.27 583.27 419.07 579.46 418.66 575.69 Z" />
        <path fill="var(--socks-color, grey)" opacity="1.00"
            d=" M 502.47 704.23 C 517.24 702.46 532.73 703.93 546.07 710.90 C 552.88 714.28 558.92 719.09 563.87 724.85 C 562.58 727.77 561.42 730.75 560.58 733.84 C 554.92 755.66 545.34 776.19 535.46 796.37 C 530.93 804.86 527.51 813.87 523.30 822.51 C 515.63 838.88 508.25 855.50 503.66 873.03 C 501.41 880.24 500.05 887.78 500.65 895.37 C 494.96 895.11 489.09 894.70 483.56 896.36 C 478.44 897.85 473.30 899.34 468.48 901.64 C 464.23 903.44 459.91 906.01 455.12 905.48 C 451.47 905.04 447.79 904.98 444.15 905.55 C 446.81 899.34 450.10 893.38 452.05 886.89 C 456.29 873.21 458.63 859.05 461.05 844.96 C 463.07 832.06 464.62 819.10 465.74 806.09 C 468.79 783.55 474.72 761.43 483.19 740.32 C 488.33 727.68 494.45 715.32 502.47 704.23 Z" />
        <path fill="var(--socks-color, grey)" opacity="1.00"
            d=" M 319.13 731.34 C 333.60 726.13 348.43 721.18 363.92 720.35 C 371.58 719.72 379.26 720.31 386.90 721.01 C 382.83 731.02 383.87 742.35 386.77 752.53 C 389.53 762.23 394.10 771.57 400.91 779.08 C 378.72 784.66 357.53 793.66 335.17 798.64 C 321.93 801.36 308.47 803.04 294.94 803.38 C 277.17 803.99 259.52 806.90 242.53 812.18 C 236.17 814.26 229.58 815.61 222.96 816.45 C 217.97 816.91 212.03 816.69 208.57 812.53 C 204.20 805.95 203.34 797.48 205.12 789.89 C 207.45 779.06 214.94 769.77 224.42 764.25 C 226.99 762.71 230.13 762.91 232.99 762.37 C 244.26 760.70 255.67 759.14 266.41 755.20 C 284.42 748.23 301.12 738.32 319.13 731.34 Z" />
    </g>
    <g id="#4d4d4dff">
        <path fill="#4d4d4d" opacity="1.00"
            d=" M 180.58 767.48 C 191.56 762.89 203.75 764.82 215.31 764.65 C 205.32 772.63 198.15 784.92 198.65 797.97 C 198.95 805.94 201.91 814.68 209.04 819.04 C 213.72 822.10 219.52 821.94 224.89 821.82 C 222.75 832.05 223.57 842.56 222.44 852.89 C 221.42 862.37 217.84 871.33 213.88 879.93 C 211.72 884.60 210.26 889.60 209.74 894.73 C 209.13 899.66 209.56 904.71 208.50 909.61 C 207.29 914.47 200.96 916.31 196.71 914.35 C 183.85 909.17 174.24 897.78 168.68 885.33 C 163.57 874.25 166.32 861.80 168.16 850.29 C 171.48 830.67 170.34 810.68 168.48 790.98 C 167.38 781.74 171.67 771.29 180.58 767.48 Z" />
        <path fill="#4d4d4d" opacity="1.00"
            d=" M 487.44 900.67 C 492.69 899.55 498.39 899.57 503.40 901.68 C 508.30 903.89 510.73 909.01 513.87 913.06 C 521.60 923.20 529.83 933.50 541.08 939.91 C 550.89 945.88 562.34 948.65 571.79 955.27 C 575.99 958.22 579.50 962.74 580.12 967.96 C 580.25 973.69 574.58 977.01 569.87 978.77 C 554.58 984.15 537.90 984.22 522.01 981.88 C 504.92 979.48 489.38 970.41 471.99 969.54 C 461.04 968.72 450.01 972.32 439.15 969.74 C 430.79 967.52 425.59 959.19 424.15 951.09 C 423.17 941.67 427.61 932.89 431.74 924.75 C 434.90 918.69 439.40 912.37 446.44 910.71 C 452.26 909.74 458.42 911.48 464.02 909.01 C 471.67 905.81 479.32 902.50 487.44 900.67 Z" />
    </g>
</svg>