<?xml version="1.0" encoding="UTF-8" ?>
<!DOCTYPE svg PUBLIC "-//W3C//DTD SVG 1.1//EN" "http://www.w3.org/Graphics/SVG/1.1/DTD/svg11.dtd">
<svg width="1000pt" height="1000pt" viewBox="0 0 1000 1000" version="1.1" xmlns="http://www.w3.org/2000/svg">
    <g id="#020202ff">
        <path fill="#020202" opacity="1.00"
            d=" M 647.72 54.57 C 652.16 53.63 656.34 51.63 660.89 51.13 C 669.46 50.10 678.51 50.00 686.59 53.45 C 692.14 55.77 697.12 59.38 701.27 63.72 C 706.02 68.60 708.09 75.36 712.64 80.41 C 719.08 88.04 726.25 96.48 726.45 107.00 C 726.76 109.79 725.00 112.02 723.04 113.76 C 723.37 116.18 723.83 118.62 723.72 121.08 C 723.54 124.50 721.59 127.50 721.25 130.89 C 720.65 136.29 720.34 141.90 717.86 146.85 C 714.33 153.29 713.35 160.70 710.49 167.42 C 708.13 174.67 702.75 180.52 700.81 187.94 C 698.56 195.78 697.56 204.17 693.24 211.26 C 690.87 215.05 688.19 218.89 684.32 221.28 C 681.57 223.04 678.22 223.18 675.07 223.48 C 673.48 228.30 672.42 233.27 671.45 238.25 C 674.52 239.30 677.70 240.58 679.77 243.22 C 683.79 248.12 686.34 254.00 689.61 259.40 C 694.65 268.44 700.88 276.71 707.17 284.90 C 711.50 291.17 716.87 297.94 715.90 306.07 C 715.09 312.67 711.00 318.20 708.00 323.96 C 705.06 329.49 705.31 336.03 702.61 341.66 C 699.22 350.84 693.49 358.84 687.46 366.45 C 684.58 369.71 683.99 374.09 683.60 378.25 C 689.19 386.42 692.62 396.09 693.10 406.00 C 693.18 410.05 694.12 414.04 694.16 418.09 C 693.06 420.12 690.13 417.79 688.43 417.65 C 691.26 425.87 694.93 433.88 700.18 440.85 C 707.12 450.43 716.41 457.90 724.62 466.33 C 730.97 472.57 737.16 480.59 736.52 490.01 C 735.91 496.24 735.30 502.55 733.41 508.54 C 731.23 516.08 726.08 522.21 720.77 527.78 C 717.30 531.34 712.96 534.35 708.01 535.31 C 705.30 535.89 703.40 533.61 701.62 532.02 C 699.19 531.69 696.25 531.47 694.96 529.02 C 693.30 526.69 694.85 523.98 695.38 521.57 C 696.80 514.74 694.89 507.82 695.24 500.95 C 695.03 496.70 696.21 491.55 692.74 488.29 C 684.11 479.38 675.34 470.62 666.62 461.81 C 666.96 466.92 665.44 471.84 663.19 476.37 C 658.93 484.60 664.01 495.72 656.40 502.50 C 658.83 508.86 661.89 515.20 662.49 522.06 C 662.86 527.57 655.71 530.98 657.65 536.53 C 660.06 543.87 663.71 551.12 663.19 559.06 C 663.10 563.35 660.76 567.07 658.79 570.73 C 662.09 576.25 665.08 582.04 666.52 588.36 C 669.71 601.81 667.57 615.83 664.19 629.03 C 662.92 632.39 665.43 635.25 666.93 638.03 C 669.85 642.85 671.05 648.53 671.27 654.11 C 670.61 655.48 669.55 655.89 668.09 655.34 C 664.35 654.51 660.83 652.95 657.19 651.80 C 658.72 669.64 662.66 688.24 656.72 705.69 C 653.95 714.66 647.32 722.27 646.52 731.86 C 645.26 748.12 645.25 764.54 642.40 780.65 C 638.72 804.30 629.17 826.50 624.21 849.86 C 622.54 858.47 621.67 867.22 621.11 875.97 C 620.57 883.13 621.53 890.31 621.12 897.48 C 630.68 900.90 638.17 908.08 646.81 913.20 C 653.54 917.49 660.94 920.94 668.90 922.12 C 675.45 923.32 682.38 923.54 688.41 926.65 C 692.34 928.63 694.96 933.29 693.58 937.67 C 691.52 943.80 685.78 947.73 680.00 950.01 C 664.21 956.36 646.81 957.09 630.01 956.07 C 619.28 955.47 608.72 953.23 598.00 952.52 C 588.83 951.81 579.96 954.77 570.89 955.48 C 566.46 955.61 561.07 954.43 558.84 950.17 C 555.24 943.77 555.14 936.17 555.48 929.04 C 555.92 918.51 557.99 908.10 561.01 898.03 C 562.82 892.19 562.81 886.02 563.98 880.06 C 565.12 872.03 566.40 864.03 567.44 855.99 C 569.15 843.03 567.17 830.00 567.56 817.00 C 567.62 800.81 570.57 784.86 572.90 768.90 C 574.63 757.57 578.18 746.53 583.30 736.28 C 586.08 730.72 591.16 725.76 590.64 719.07 C 589.64 706.29 589.67 693.30 586.35 680.83 C 584.40 673.99 582.84 666.97 579.48 660.65 C 576.31 658.88 573.63 656.42 571.27 653.70 C 560.95 642.13 550.45 630.55 542.33 617.27 C 539.65 626.37 533.65 633.87 528.97 641.98 C 525.64 647.58 522.80 653.48 520.79 659.69 C 520.03 661.52 519.64 663.71 517.99 664.99 C 516.34 665.10 515.38 663.66 514.34 662.65 C 510.87 658.95 507.97 654.78 505.12 650.61 C 498.02 666.96 488.38 682.01 479.53 697.43 C 471.78 710.62 463.60 723.80 452.68 734.64 C 444.08 742.57 433.40 747.89 424.99 756.05 C 413.20 767.39 404.69 781.53 396.72 795.68 C 389.61 808.73 383.08 822.09 376.41 835.36 C 370.89 846.23 364.85 856.96 356.72 866.11 C 357.03 876.40 353.01 886.04 350.64 895.88 C 346.76 910.72 346.53 926.29 341.84 940.94 C 339.87 947.04 338.15 953.75 333.35 958.32 C 328.00 963.21 320.03 962.84 313.43 961.35 C 304.59 958.98 295.95 953.34 292.37 944.61 C 288.20 934.82 288.94 923.85 290.40 913.56 C 292.16 902.43 294.67 891.33 294.55 880.00 C 294.90 866.83 291.67 853.52 294.78 840.49 C 297.15 830.44 303.89 822.13 311.20 815.14 C 315.38 811.02 321.27 808.64 327.17 809.76 C 333.09 804.54 337.00 797.57 340.84 790.78 C 348.05 776.84 354.58 762.52 359.90 747.74 C 366.32 729.50 375.97 711.60 391.16 699.21 C 401.07 691.97 410.91 684.14 417.78 673.81 C 427.99 659.04 432.63 641.39 436.89 624.19 C 430.00 622.02 423.27 618.94 417.63 614.37 C 415.85 613.07 415.67 609.96 417.44 608.60 C 424.74 602.60 434.33 598.12 438.16 588.92 C 440.60 581.25 439.54 572.91 442.10 565.25 C 444.33 557.49 449.90 551.26 452.35 543.59 C 458.31 526.61 456.50 508.10 461.82 490.98 C 466.32 476.47 474.68 463.12 486.27 453.23 C 483.91 445.41 482.82 437.10 484.01 428.97 C 484.72 423.97 486.80 419.33 488.43 414.59 C 482.34 412.63 476.24 410.01 471.84 405.21 C 466.45 399.35 461.44 392.68 459.34 384.88 C 458.16 381.13 459.54 376.58 456.79 373.41 C 453.36 368.97 450.27 363.82 450.39 358.01 C 450.54 344.19 457.44 331.77 463.90 319.97 C 471.59 305.83 483.97 295.13 492.56 281.62 C 501.28 268.38 509.89 254.56 522.55 244.67 C 531.08 237.83 541.20 233.52 551.12 229.14 C 560.05 225.27 567.45 218.80 575.68 213.74 C 579.78 211.14 584.78 209.79 589.61 210.49 C 594.67 212.20 598.42 216.27 602.90 219.02 C 609.85 209.95 614.68 197.82 611.37 186.39 C 607.37 171.84 597.84 159.16 595.89 143.99 C 595.03 139.62 597.43 135.37 596.50 131.03 C 594.76 122.16 594.23 113.06 594.67 104.05 C 595.31 90.77 603.31 79.38 611.70 69.67 C 618.37 61.76 627.58 55.85 637.85 54.10 C 641.15 53.52 644.43 54.47 647.72 54.57 M 599.82 135.50 C 599.23 148.98 606.73 160.81 612.21 172.59 C 610.35 159.56 605.63 147.23 599.82 135.50 M 695.79 176.82 C 694.85 177.97 693.29 178.16 692.01 178.68 C 689.48 184.30 682.64 184.54 678.67 188.63 C 675.19 191.69 674.68 196.59 672.38 200.40 C 671.02 202.79 669.03 206.08 665.78 205.29 C 665.19 202.57 666.63 200.03 667.27 197.47 C 663.31 195.62 658.89 195.08 655.02 193.03 C 651.34 190.50 647.35 195.83 643.61 193.40 C 639.88 191.32 635.63 187.96 631.17 190.08 C 626.49 191.79 625.75 197.35 622.37 200.43 C 621.00 201.83 619.07 200.89 617.44 200.71 C 615.72 208.36 612.77 215.91 607.65 221.95 C 614.54 225.13 622.02 226.65 629.25 228.86 C 641.38 232.67 653.97 234.57 666.35 237.31 C 667.50 227.51 670.62 218.00 675.27 209.31 C 677.28 206.15 679.27 201.37 683.62 201.28 C 684.04 203.31 682.68 205.02 681.83 206.74 C 679.69 210.49 678.27 214.59 676.83 218.65 C 680.89 217.67 684.37 215.14 686.64 211.64 C 692.51 204.03 693.16 194.13 696.07 185.28 C 698.03 179.03 702.18 173.84 704.93 167.96 C 707.11 163.34 709.11 158.65 710.91 153.87 C 702.76 159.24 702.23 170.08 695.79 176.82 M 578.70 217.82 C 573.29 221.25 568.62 225.72 563.30 229.29 C 554.36 235.63 543.67 238.73 534.36 244.39 C 527.59 248.36 521.55 253.51 516.40 259.42 C 504.97 272.27 497.38 288.03 485.65 300.63 C 473.03 314.02 462.93 329.99 457.34 347.57 C 455.75 352.49 455.07 357.84 456.13 362.94 C 457.30 366.90 460.20 370.05 463.01 372.96 C 468.59 378.67 476.53 380.73 483.75 383.52 C 481.63 370.34 483.00 356.63 488.29 344.34 C 492.31 335.30 496.29 325.99 497.02 315.99 C 497.10 313.72 497.60 311.48 499.06 309.67 C 502.88 322.78 496.87 335.91 492.14 347.93 C 486.23 363.13 487.91 379.87 491.45 395.41 C 492.69 400.53 494.55 405.64 494.22 410.99 C 493.97 417.63 490.06 423.39 489.21 429.91 C 488.43 435.87 488.90 441.92 489.63 447.87 C 489.97 453.30 496.31 455.03 500.73 456.01 C 514.16 457.67 527.96 455.82 541.15 459.57 C 556.76 463.06 569.91 472.51 583.34 480.68 C 592.79 486.55 603.70 489.20 614.00 493.15 C 621.82 495.27 630.00 495.44 637.96 496.81 C 642.34 497.42 646.64 498.79 651.10 498.79 C 653.97 498.76 655.17 495.44 655.55 493.05 C 656.19 486.66 655.71 479.82 659.07 474.05 C 661.97 469.02 663.96 462.72 661.95 457.06 C 648.83 441.30 635.21 425.50 626.47 406.75 C 621.61 408.10 617.03 410.21 612.73 412.82 C 611.19 413.43 609.09 415.06 607.73 413.33 C 606.68 409.20 607.14 404.87 606.24 400.71 C 604.59 392.78 601.52 385.14 600.83 377.02 C 600.37 371.80 603.33 367.14 603.78 362.03 C 604.56 354.49 604.21 346.74 606.54 339.45 C 608.30 333.99 612.22 329.60 614.42 324.35 C 618.03 315.60 621.31 306.72 625.12 298.06 C 627.44 292.80 630.25 287.49 634.91 283.91 C 638.39 281.30 642.06 278.92 645.91 276.89 C 647.18 276.02 648.70 276.37 650.13 276.47 C 644.51 282.44 636.15 285.67 632.16 293.15 C 627.67 301.48 624.62 310.49 621.03 319.22 C 623.33 316.54 625.66 313.87 628.43 311.64 C 628.50 313.28 628.60 315.06 627.52 316.44 C 622.55 324.08 615.11 330.04 611.50 338.57 C 607.36 348.37 610.15 359.47 606.59 369.42 C 605.79 371.88 604.97 374.45 605.39 377.07 C 606.69 387.37 611.62 396.93 611.90 407.39 C 621.18 401.75 632.29 399.49 643.07 400.40 C 658.90 401.63 674.69 405.45 688.83 412.83 C 688.53 402.06 686.25 391.05 680.15 382.00 C 677.78 378.38 673.56 376.32 671.66 372.36 C 669.57 367.73 669.06 362.42 670.33 357.50 C 672.94 360.29 672.88 364.35 674.27 367.74 C 675.11 370.43 677.24 372.36 679.18 374.29 C 679.92 367.60 684.49 362.55 688.42 357.47 C 693.06 351.42 696.88 344.70 699.54 337.54 C 700.96 333.71 700.19 329.44 701.70 325.63 C 703.25 321.74 706.45 318.75 707.84 314.77 C 709.74 310.04 711.81 304.60 709.37 299.66 C 705.59 291.86 699.66 285.42 694.60 278.47 C 689.44 271.43 684.90 263.96 680.76 256.29 C 678.95 253.11 677.32 249.79 674.94 246.99 C 673.00 244.63 669.77 244.28 667.00 243.58 C 653.83 240.65 640.42 238.65 627.55 234.51 C 618.18 231.73 608.60 229.02 600.26 223.75 C 596.77 221.63 593.68 218.94 590.27 216.71 C 586.75 214.03 582.18 216.16 578.70 217.82 M 463.06 379.99 C 465.02 387.93 470.09 394.55 475.45 400.53 C 479.14 404.77 484.42 406.98 489.15 409.78 C 488.43 402.69 485.78 396.00 484.58 389.00 C 477.09 386.88 469.68 384.17 463.06 379.99 M 632.20 405.58 C 638.75 420.50 649.91 432.57 659.70 445.36 C 671.33 459.96 685.86 471.88 697.97 486.05 C 701.08 490.02 700.15 495.38 699.96 500.05 C 699.37 505.21 700.62 510.33 700.37 515.50 C 704.94 508.45 707.91 500.56 710.46 492.60 C 711.06 490.38 711.10 488.06 711.38 485.80 C 715.15 487.22 714.57 491.81 714.18 495.04 C 712.42 504.29 708.71 513.34 702.62 520.60 C 701.02 522.49 699.77 524.64 698.71 526.88 C 699.27 527.17 700.41 527.74 700.97 528.03 C 702.10 525.60 703.67 523.38 705.79 521.72 C 710.16 518.10 714.04 513.66 716.06 508.29 C 717.94 503.08 719.02 497.64 720.63 492.35 C 721.47 493.36 722.61 494.39 722.36 495.87 C 721.99 504.04 720.16 512.52 715.10 519.15 C 712.91 522.28 709.75 524.48 707.14 527.22 C 706.16 527.98 705.65 530.65 707.63 529.77 C 714.61 527.44 719.20 521.14 723.71 515.69 C 729.94 507.91 731.61 497.61 731.04 487.92 C 730.16 482.22 726.56 477.40 722.72 473.29 C 716.70 466.98 710.20 461.15 704.21 454.81 C 695.32 445.48 688.01 434.36 684.46 421.88 C 683.99 419.73 684.14 417.51 684.12 415.34 C 667.84 408.42 649.95 404.19 632.20 405.58 M 464.73 500.45 C 462.04 516.20 462.55 532.66 456.71 547.76 C 454.34 554.43 449.59 559.97 447.64 566.82 C 444.83 575.46 446.80 585.18 442.55 593.41 C 438.03 601.57 429.76 606.73 421.95 611.38 C 427.65 614.52 433.57 617.54 440.04 618.70 C 455.32 621.54 471.19 621.15 486.06 626.11 C 491.62 627.88 496.82 630.94 500.79 635.26 C 506.77 641.87 510.93 649.87 515.96 657.20 C 518.76 645.94 525.10 636.09 531.26 626.42 C 534.38 621.74 536.25 616.41 538.87 611.47 C 535.10 604.62 531.54 597.65 528.36 590.50 C 527.16 587.57 524.27 585.95 522.02 583.91 C 514.49 577.87 506.47 571.91 501.61 563.36 C 496.53 554.50 492.83 544.32 493.71 533.97 C 493.69 531.96 495.08 530.57 497.05 530.41 C 496.75 541.20 500.90 551.51 506.24 560.69 C 510.83 568.54 517.98 574.32 524.47 580.52 C 521.51 571.97 519.91 563.06 517.84 554.28 C 517.31 551.53 516.50 548.75 516.81 545.95 C 517.59 543.45 519.88 545.28 520.16 547.02 C 522.10 553.17 523.54 559.48 525.68 565.58 C 530.39 580.80 537.04 595.35 544.62 609.33 C 553.29 625.41 565.56 639.06 576.57 653.52 C 577.85 655.23 579.75 656.52 581.92 656.75 C 592.17 658.34 602.28 654.91 611.98 652.02 C 621.68 648.90 631.85 647.71 641.91 646.36 C 650.51 645.22 659.18 646.77 667.18 650.01 C 665.81 644.87 662.83 640.47 659.94 636.10 C 657.36 632.42 659.23 628.05 659.63 624.08 C 659.11 615.47 652.89 608.77 647.31 602.78 C 635.31 590.19 618.36 584.15 605.73 572.32 C 601.89 568.70 598.10 564.44 597.19 559.06 C 596.22 554.43 597.92 549.29 601.76 546.45 C 601.29 549.94 599.77 553.39 600.58 556.96 C 601.40 561.23 604.40 564.60 607.51 567.46 C 620.10 578.97 636.68 585.05 648.83 597.14 C 654.07 602.44 659.41 608.11 661.70 615.38 C 662.94 604.31 663.29 592.62 658.65 582.23 C 657.19 578.37 654.34 575.09 653.49 571.01 C 653.54 566.94 657.44 564.16 657.83 560.13 C 658.85 551.25 653.42 543.52 651.97 535.05 C 650.99 529.79 656.54 526.75 657.31 522.02 C 656.44 515.81 653.45 510.12 651.14 504.34 C 643.71 503.85 636.46 501.95 629.05 501.29 C 615.57 499.93 602.11 496.63 590.19 490.04 C 579.14 485.14 569.31 478.03 558.73 472.28 C 549.55 467.29 539.39 464.11 529.00 463.04 C 519.22 461.76 509.27 462.94 499.54 461.20 C 495.64 460.53 492.14 458.55 488.96 456.29 C 476.80 468.22 467.80 483.59 464.73 500.45 M 441.65 625.11 C 439.41 636.69 436.61 648.24 432.15 659.19 C 426.38 673.32 417.03 685.89 405.08 695.38 C 422.56 702.40 437.85 717.40 441.69 736.27 C 454.98 726.91 463.66 712.74 472.14 699.21 C 482.36 681.52 493.89 664.49 501.92 645.63 C 499.14 641.94 496.15 638.30 492.28 635.71 C 488.66 633.24 484.43 631.89 480.23 630.79 C 467.60 627.52 454.45 627.39 441.65 625.11 M 624.28 654.13 C 611.47 656.76 599.07 662.89 585.69 661.61 C 590.40 671.11 593.41 681.43 595.00 691.91 C 596.35 699.91 596.31 708.05 596.99 716.12 C 597.27 719.09 597.04 722.07 596.66 725.03 C 611.62 721.37 628.38 723.16 641.73 731.06 C 642.90 719.65 651.16 710.71 653.44 699.62 C 656.96 683.58 653.20 667.22 652.44 651.10 C 642.94 650.53 633.58 652.50 624.28 654.13 M 399.29 699.90 C 390.00 706.36 382.44 715.02 376.77 724.78 C 367.35 739.32 363.66 756.54 355.83 771.87 C 348.69 786.12 341.87 801.27 329.90 812.19 C 335.27 816.93 337.97 823.72 341.01 830.02 C 344.25 836.88 345.92 844.31 348.37 851.46 C 349.74 855.63 352.59 859.01 355.14 862.50 C 368.41 843.00 376.96 820.89 388.00 800.15 C 396.65 783.78 406.00 767.41 419.10 754.13 C 424.64 748.36 431.30 743.87 437.70 739.14 C 432.38 720.78 417.35 705.87 399.29 699.90 M 593.79 731.57 C 585.40 743.07 581.33 757.13 578.92 771.00 C 576.76 784.95 573.84 798.85 573.49 813.02 C 572.87 823.34 573.65 833.68 573.77 844.01 C 573.66 861.73 568.49 878.93 567.49 896.56 C 574.19 897.87 578.40 903.54 582.71 908.28 C 586.20 912.28 592.06 913.66 597.02 911.89 C 602.96 909.71 608.27 906.08 613.03 901.96 C 615.37 900.03 616.77 897.06 616.46 894.01 C 614.89 873.03 617.53 851.77 623.82 831.71 C 627.80 816.73 633.50 802.21 636.35 786.93 C 640.00 770.08 640.53 752.81 641.49 735.66 C 631.28 729.27 618.76 727.77 606.94 728.26 C 602.50 728.76 597.53 728.85 593.79 731.57 M 321.40 814.57 C 310.67 819.69 303.76 830.48 299.32 841.16 C 295.88 853.55 299.56 866.39 299.22 878.97 C 299.48 892.19 296.08 905.03 294.20 918.02 C 293.00 927.83 292.69 938.87 298.67 947.31 C 304.63 954.73 314.60 958.66 324.02 957.78 C 328.32 957.43 331.77 954.18 333.45 950.37 C 342.61 931.16 341.51 909.31 347.32 889.15 C 349.13 882.52 351.15 875.84 351.40 868.92 C 351.62 865.61 349.04 863.15 347.38 860.58 C 343.79 855.80 342.50 849.87 340.83 844.26 C 338.37 835.67 334.74 827.44 330.43 819.63 C 328.65 816.44 325.48 812.69 321.40 814.57 M 565.61 900.47 C 562.88 910.08 561.13 919.99 560.82 929.98 C 560.63 935.85 560.25 942.03 562.56 947.57 C 564.40 950.77 568.77 951.00 572.06 950.71 C 580.02 949.71 587.83 947.28 595.93 947.58 C 606.18 947.96 616.32 949.66 626.53 950.64 C 642.44 951.87 658.92 952.13 674.27 947.15 C 679.87 945.16 686.36 942.64 688.81 936.73 C 690.05 933.71 686.92 931.31 684.39 930.49 C 675.61 927.49 665.94 928.37 657.30 924.79 C 643.24 919.62 632.54 908.69 619.80 901.25 C 614.77 906.94 608.33 911.24 601.47 914.43 C 596.56 916.56 590.84 918.63 585.60 916.35 C 577.29 913.15 574.50 902.71 565.61 900.47 Z" />
        <path fill="#020202" opacity="1.00"
            d=" M 542.37 254.34 C 543.04 255.35 544.05 256.39 543.51 257.72 C 542.12 263.98 539.57 269.92 538.02 276.14 C 533.07 292.88 530.20 310.68 520.60 325.60 C 517.84 329.56 515.17 334.17 510.39 335.91 C 513.30 329.79 517.45 324.34 520.10 318.08 C 527.03 303.57 528.88 287.37 534.68 272.46 C 537.10 266.36 539.10 260.05 542.37 254.34 Z" />
        <path fill="#020202" opacity="1.00"
            d=" M 610.88 289.96 C 615.71 283.67 620.40 277.14 626.24 271.73 C 629.38 270.65 628.07 274.56 627.00 275.94 C 621.52 283.39 615.61 290.52 609.48 297.45 C 608.23 298.99 606.49 299.98 604.65 300.64 C 605.34 296.40 608.43 293.28 610.88 289.96 Z" />
        <path fill="#020202" opacity="1.00"
            d=" M 558.96 278.90 C 559.68 276.65 560.67 274.26 563.17 273.51 C 559.81 292.09 554.58 310.28 549.18 328.36 C 543.92 345.17 538.95 362.11 532.49 378.52 C 528.70 387.65 525.23 397.20 518.87 404.93 C 517.36 406.80 514.38 408.86 512.14 406.95 C 509.89 404.05 510.01 399.69 511.92 396.63 C 512.76 399.14 513.42 401.72 514.16 404.27 C 519.65 398.13 522.76 390.37 525.91 382.87 C 533.51 364.60 538.85 345.53 544.72 326.67 C 549.76 310.83 553.49 294.60 558.96 278.90 Z" />
        <path fill="#020202" opacity="1.00"
            d=" M 661.68 280.71 C 665.04 279.32 669.67 277.46 672.49 280.85 C 662.99 282.78 655.03 288.67 647.40 294.32 C 641.89 298.32 637.02 303.10 631.58 307.19 C 631.08 305.27 631.36 303.32 632.89 301.96 C 640.97 293.12 650.68 285.58 661.68 280.71 Z" />
        <path fill="#020202" opacity="1.00"
            d=" M 681.02 306.04 C 685.45 303.75 689.35 300.45 694.08 298.73 C 693.67 300.26 693.23 301.88 691.92 302.90 C 685.98 308.26 678.78 311.88 672.04 316.08 C 663.72 321.35 654.64 325.82 647.99 333.29 C 654.25 330.28 659.36 324.91 666.21 323.25 C 666.33 323.65 666.56 324.43 666.68 324.82 C 661.80 329.29 656.42 333.25 650.90 336.89 C 648.22 338.38 645.31 340.44 642.08 339.81 C 640.22 339.34 639.28 336.92 640.37 335.33 C 644.66 327.54 652.09 322.05 659.68 317.71 C 666.72 313.70 673.87 309.86 681.02 306.04 Z" />
        <path fill="#020202" opacity="1.00"
            d=" M 571.84 394.92 C 572.04 393.64 572.81 392.86 574.15 392.59 C 575.88 396.46 576.11 400.78 577.43 404.79 C 581.42 417.95 587.00 430.75 594.95 442.03 C 600.28 449.55 606.97 455.98 613.79 462.14 C 620.31 467.98 626.62 474.12 633.79 479.19 C 635.76 480.55 637.63 482.13 638.72 484.32 C 636.14 484.61 633.64 483.97 631.53 482.50 C 619.95 475.05 609.22 466.30 599.46 456.60 C 586.32 443.50 577.92 426.26 573.41 408.40 C 572.41 404.00 571.22 399.46 571.84 394.92 Z" />
        <path fill="#020202" opacity="1.00"
            d=" M 613.41 512.73 C 612.52 510.78 614.75 508.32 616.69 509.70 C 626.23 516.75 635.90 526.27 648.65 525.86 C 648.17 529.70 643.76 529.41 640.89 528.96 C 633.51 527.59 627.20 523.18 621.24 518.86 C 625.66 525.32 631.51 530.68 637.94 535.09 C 639.80 536.30 641.33 537.95 642.33 539.95 C 639.21 540.16 636.28 538.97 633.75 537.26 C 624.72 531.43 616.54 523.26 613.41 512.73 Z" />
        <path fill="#020202" opacity="1.00"
            d=" M 458.92 584.99 C 459.32 578.72 459.66 572.00 463.18 566.58 C 465.18 569.74 463.43 573.46 463.38 576.89 C 462.90 584.29 462.10 591.92 463.85 599.22 C 465.32 604.85 471.21 607.38 476.31 608.84 C 486.71 611.54 497.43 612.67 508.06 614.06 C 509.95 614.16 511.60 615.10 513.17 616.08 C 509.64 618.84 504.97 617.46 500.88 617.39 C 492.13 616.42 483.24 615.89 474.76 613.40 C 469.21 611.66 463.37 608.72 460.80 603.19 C 458.21 597.50 458.83 591.06 458.92 584.99 Z" />
        <path fill="#020202" opacity="1.00"
            d=" M 550.18 591.79 C 549.06 591.14 547.42 587.86 550.07 588.33 C 554.15 589.79 557.65 592.49 561.54 594.38 C 575.10 601.14 588.54 608.31 602.99 613.04 C 613.07 616.74 623.63 618.81 633.85 622.06 C 639.46 623.77 644.42 626.93 649.51 629.75 C 643.70 624.94 636.29 622.41 630.76 617.22 C 629.52 615.99 627.88 613.87 629.83 612.49 C 633.71 614.46 637.22 617.12 641.24 618.85 C 646.75 621.62 653.51 624.45 655.17 631.06 C 656.28 633.33 655.07 636.93 652.08 636.35 C 648.44 635.21 645.49 632.68 642.12 630.99 C 634.51 626.57 625.81 624.74 617.34 622.78 C 593.16 617.12 570.01 606.78 550.18 591.79 Z" />
        <path fill="#020202" opacity="1.00"
            d=" M 302.74 835.85 C 307.99 833.25 314.29 835.06 318.99 838.04 C 325.63 842.68 327.78 851.30 327.71 859.00 C 327.59 877.39 323.06 895.81 326.45 914.15 C 328.41 923.81 329.78 934.09 326.46 943.63 C 325.76 946.08 323.66 947.63 321.67 949.01 C 322.79 943.13 324.80 937.20 323.62 931.15 C 322.25 924.45 319.99 917.93 319.30 911.09 C 316.72 893.00 321.67 875.05 321.79 856.98 C 321.79 851.59 320.14 845.67 315.63 842.33 C 312.02 839.65 307.35 839.76 303.21 838.59 C 301.58 838.24 302.27 836.88 302.74 835.85 Z" />
    </g>
    <g id="#f0b58bff">
        <path fill="#f0b58b" opacity="1.00"
            d=" M 599.82 135.50 C 605.63 147.23 610.35 159.56 612.21 172.59 C 606.73 160.81 599.23 148.98 599.82 135.50 Z" />
        <path fill="#f0b58b" opacity="1.00"
            d=" M 695.79 176.82 C 702.23 170.08 702.76 159.24 710.91 153.87 C 709.11 158.65 707.11 163.34 704.93 167.96 C 702.18 173.84 698.03 179.03 696.07 185.28 C 693.16 194.13 692.51 204.03 686.64 211.64 C 684.37 215.14 680.89 217.67 676.83 218.65 C 678.27 214.59 679.69 210.49 681.83 206.74 C 682.68 205.02 684.04 203.31 683.62 201.28 C 679.27 201.37 677.28 206.15 675.27 209.31 C 670.62 218.00 667.50 227.51 666.35 237.31 C 653.97 234.57 641.38 232.67 629.25 228.86 C 622.02 226.65 614.54 225.13 607.65 221.95 C 612.77 215.91 615.72 208.36 617.44 200.71 C 619.07 200.89 621.00 201.83 622.37 200.43 C 625.75 197.35 626.49 191.79 631.17 190.08 C 635.63 187.96 639.88 191.32 643.61 193.40 C 647.35 195.83 651.34 190.50 655.02 193.03 C 658.89 195.08 663.31 195.62 667.27 197.47 C 666.63 200.03 665.19 202.57 665.78 205.29 C 669.03 206.08 671.02 202.79 672.38 200.40 C 674.68 196.59 675.19 191.69 678.67 188.63 C 682.64 184.54 689.48 184.30 692.01 178.68 C 693.29 178.16 694.85 177.97 695.79 176.82 Z" />
        <path fill="#f0b58b" opacity="1.00"
            d=" M 463.06 379.99 C 469.68 384.17 477.09 386.88 484.58 389.00 C 485.78 396.00 488.43 402.69 489.15 409.78 C 484.42 406.98 479.14 404.77 475.45 400.53 C 470.09 394.55 465.02 387.93 463.06 379.99 Z" />
        <path fill="#f0b58b" opacity="1.00"
            d=" M 632.20 405.58 C 649.95 404.19 667.84 408.42 684.12 415.34 C 684.14 417.51 683.99 419.73 684.46 421.88 C 688.01 434.36 695.32 445.48 704.21 454.81 C 710.20 461.15 716.70 466.98 722.72 473.29 C 726.56 477.40 730.16 482.22 731.04 487.92 C 731.61 497.61 729.94 507.91 723.71 515.69 C 719.20 521.14 714.61 527.44 707.63 529.77 C 705.65 530.65 706.16 527.98 707.14 527.22 C 709.75 524.48 712.91 522.28 715.10 519.15 C 720.16 512.52 721.99 504.04 722.36 495.87 C 722.61 494.39 721.47 493.36 720.63 492.35 C 719.02 497.64 717.94 503.08 716.06 508.29 C 714.04 513.66 710.16 518.10 705.79 521.72 C 703.67 523.38 702.10 525.60 700.97 528.03 C 700.41 527.74 699.27 527.17 698.71 526.88 C 699.77 524.64 701.02 522.49 702.62 520.60 C 708.71 513.34 712.42 504.29 714.18 495.04 C 714.57 491.81 715.15 487.22 711.38 485.80 C 711.10 488.06 711.06 490.38 710.46 492.60 C 707.91 500.56 704.94 508.45 700.37 515.50 C 700.62 510.33 699.37 505.21 699.96 500.05 C 700.15 495.38 701.08 490.02 697.97 486.05 C 685.86 471.88 671.33 459.96 659.70 445.36 C 649.91 432.57 638.75 420.50 632.20 405.58 Z" />
        <path fill="#f0b58b" opacity="1.00"
            d=" M 441.65 625.11 C 454.45 627.39 467.60 627.52 480.23 630.79 C 484.43 631.89 488.66 633.24 492.28 635.71 C 496.15 638.30 499.14 641.94 501.92 645.63 C 493.89 664.49 482.36 681.52 472.14 699.21 C 463.66 712.74 454.98 726.91 441.69 736.27 C 437.85 717.40 422.56 702.40 405.08 695.38 C 417.03 685.89 426.38 673.32 432.15 659.19 C 436.61 648.24 439.41 636.69 441.65 625.11 Z" />
        <path fill="#f0b58b" opacity="1.00"
            d=" M 624.28 654.13 C 633.58 652.50 642.94 650.53 652.44 651.10 C 653.20 667.22 656.96 683.58 653.44 699.62 C 651.16 710.71 642.90 719.65 641.73 731.06 C 628.38 723.16 611.62 721.37 596.66 725.03 C 597.04 722.07 597.27 719.09 596.99 716.12 C 596.31 708.05 596.35 699.91 595.00 691.91 C 593.41 681.43 590.40 671.11 585.69 661.61 C 599.07 662.89 611.47 656.76 624.28 654.13 Z" />
    </g>
    <g id="#f11b27ff">
        <path fill="var(--shirt-color, grey)" opacity="1.00"
            d=" M 578.70 217.82 C 582.18 216.16 586.75 214.03 590.27 216.71 C 593.68 218.94 596.77 221.63 600.26 223.75 C 608.60 229.02 618.18 231.73 627.55 234.51 C 640.42 238.65 653.83 240.65 667.00 243.58 C 669.77 244.28 673.00 244.63 674.94 246.99 C 677.32 249.79 678.95 253.11 680.76 256.29 C 684.90 263.96 689.44 271.43 694.60 278.47 C 699.66 285.42 705.59 291.86 709.37 299.66 C 711.81 304.60 709.74 310.04 707.84 314.77 C 706.45 318.75 703.25 321.74 701.70 325.63 C 700.19 329.44 700.96 333.71 699.54 337.54 C 696.88 344.70 693.06 351.42 688.42 357.47 C 684.49 362.55 679.92 367.60 679.18 374.29 C 677.24 372.36 675.11 370.43 674.27 367.74 C 672.88 364.35 672.94 360.29 670.33 357.50 C 669.06 362.42 669.57 367.73 671.66 372.36 C 673.56 376.32 677.78 378.38 680.15 382.00 C 686.25 391.05 688.53 402.06 688.83 412.83 C 674.69 405.45 658.90 401.63 643.07 400.40 C 632.29 399.49 621.18 401.75 611.90 407.39 C 611.62 396.93 606.69 387.37 605.39 377.07 C 604.97 374.45 605.79 371.88 606.59 369.42 C 610.15 359.47 607.36 348.37 611.50 338.57 C 615.11 330.04 622.55 324.08 627.52 316.44 C 628.60 315.06 628.50 313.28 628.43 311.64 C 625.66 313.87 623.33 316.54 621.03 319.22 C 624.62 310.49 627.67 301.48 632.16 293.15 C 636.15 285.67 644.51 282.44 650.13 276.47 C 648.70 276.37 647.18 276.02 645.91 276.89 C 642.06 278.92 638.39 281.30 634.91 283.91 C 630.25 287.49 627.44 292.80 625.12 298.06 C 621.31 306.72 618.03 315.60 614.42 324.35 C 612.22 329.60 608.30 333.99 606.54 339.45 C 604.21 346.74 604.56 354.49 603.78 362.03 C 603.33 367.14 600.37 371.80 600.83 377.02 C 601.52 385.14 604.59 392.78 606.24 400.71 C 607.14 404.87 606.68 409.20 607.73 413.33 C 609.09 415.06 611.19 413.43 612.73 412.82 C 617.03 410.21 621.61 408.10 626.47 406.75 C 635.21 425.50 648.83 441.30 661.95 457.06 C 663.96 462.72 661.97 469.02 659.07 474.05 C 655.71 479.82 656.19 486.66 655.55 493.05 C 655.17 495.44 653.97 498.76 651.10 498.79 C 646.64 498.79 642.34 497.42 637.96 496.81 C 630.00 495.44 621.82 495.27 614.00 493.15 C 603.70 489.20 592.79 486.55 583.34 480.68 C 569.91 472.51 556.76 463.06 541.15 459.57 C 527.96 455.82 514.16 457.67 500.73 456.01 C 496.31 455.03 489.97 453.30 489.63 447.87 C 488.90 441.92 488.43 435.87 489.21 429.91 C 490.06 423.39 493.97 417.63 494.22 410.99 C 494.55 405.64 492.69 400.53 491.45 395.41 C 487.91 379.87 486.23 363.13 492.14 347.93 C 496.87 335.91 502.88 322.78 499.06 309.67 C 497.60 311.48 497.10 313.72 497.02 315.99 C 496.29 325.99 492.31 335.30 488.29 344.34 C 483.00 356.63 481.63 370.34 483.75 383.52 C 476.53 380.73 468.59 378.67 463.01 372.96 C 460.20 370.05 457.30 366.90 456.13 362.94 C 455.07 357.84 455.75 352.49 457.34 347.57 C 462.93 329.99 473.03 314.02 485.65 300.63 C 497.38 288.03 504.97 272.27 516.40 259.42 C 521.55 253.51 527.59 248.36 534.36 244.39 C 543.67 238.73 554.36 235.63 563.30 229.29 C 568.62 225.72 573.29 221.25 578.70 217.82 M 542.37 254.34 C 539.10 260.05 537.10 266.36 534.68 272.46 C 528.88 287.37 527.03 303.57 520.10 318.08 C 517.45 324.34 513.30 329.79 510.39 335.91 C 515.17 334.17 517.84 329.56 520.60 325.60 C 530.20 310.68 533.07 292.88 538.02 276.14 C 539.57 269.92 542.12 263.98 543.51 257.72 C 544.05 256.39 543.04 255.35 542.37 254.34 M 610.88 289.96 C 608.43 293.28 605.34 296.40 604.65 300.64 C 606.49 299.98 608.23 298.99 609.48 297.45 C 615.61 290.52 621.52 283.39 627.00 275.94 C 628.07 274.56 629.38 270.65 626.24 271.73 C 620.40 277.14 615.71 283.67 610.88 289.96 M 558.96 278.90 C 553.49 294.60 549.76 310.83 544.72 326.67 C 538.85 345.53 533.51 364.60 525.91 382.87 C 522.76 390.37 519.65 398.13 514.16 404.27 C 513.42 401.72 512.76 399.14 511.92 396.63 C 510.01 399.69 509.89 404.05 512.14 406.95 C 514.38 408.86 517.36 406.80 518.87 404.93 C 525.23 397.20 528.70 387.65 532.49 378.52 C 538.95 362.11 543.92 345.17 549.18 328.36 C 554.58 310.28 559.81 292.09 563.17 273.51 C 560.67 274.26 559.68 276.65 558.96 278.90 M 661.68 280.71 C 650.68 285.58 640.97 293.12 632.89 301.96 C 631.36 303.32 631.08 305.27 631.58 307.19 C 637.02 303.10 641.89 298.32 647.40 294.32 C 655.03 288.67 662.99 282.78 672.49 280.85 C 669.67 277.46 665.04 279.32 661.68 280.71 M 681.02 306.04 C 673.87 309.86 666.72 313.70 659.68 317.71 C 652.09 322.05 644.66 327.54 640.37 335.33 C 639.28 336.92 640.22 339.34 642.08 339.81 C 645.31 340.44 648.22 338.38 650.90 336.89 C 656.42 333.25 661.80 329.29 666.68 324.82 C 666.56 324.43 666.33 323.65 666.21 323.25 C 659.36 324.91 654.25 330.28 647.99 333.29 C 654.64 325.82 663.72 321.35 672.04 316.08 C 678.78 311.88 685.98 308.26 691.92 302.90 C 693.23 301.88 693.67 300.26 694.08 298.73 C 689.35 300.45 685.45 303.75 681.02 306.04 M 571.84 394.92 C 571.22 399.46 572.41 404.00 573.41 408.40 C 577.92 426.26 586.32 443.50 599.46 456.60 C 609.22 466.30 619.95 475.05 631.53 482.50 C 633.64 483.97 636.14 484.61 638.72 484.32 C 637.63 482.13 635.76 480.55 633.79 479.19 C 626.62 474.12 620.31 467.98 613.79 462.14 C 606.97 455.98 600.28 449.55 594.95 442.03 C 587.00 430.75 581.42 417.95 577.43 404.79 C 576.11 400.78 575.88 396.46 574.15 392.59 C 572.81 392.86 572.04 393.64 571.84 394.92 Z" />
    </g>
    <g id="#ffffffff">
        <path fill="var(--pants-color, grey)" opacity="1.00"
            d=" M 464.73 500.45 C 467.80 483.59 476.80 468.22 488.96 456.29 C 492.14 458.55 495.64 460.53 499.54 461.20 C 509.27 462.94 519.22 461.76 529.00 463.04 C 539.39 464.11 549.55 467.29 558.73 472.28 C 569.31 478.03 579.14 485.14 590.19 490.04 C 602.11 496.63 615.57 499.93 629.05 501.29 C 636.46 501.95 643.71 503.85 651.14 504.34 C 653.45 510.12 656.44 515.81 657.31 522.02 C 656.54 526.75 650.99 529.79 651.97 535.05 C 653.42 543.52 658.85 551.25 657.83 560.13 C 657.44 564.16 653.54 566.94 653.49 571.01 C 654.34 575.09 657.19 578.37 658.65 582.23 C 663.29 592.62 662.94 604.31 661.70 615.38 C 659.41 608.11 654.07 602.44 648.83 597.14 C 636.68 585.05 620.10 578.97 607.51 567.46 C 604.40 564.60 601.40 561.23 600.58 556.96 C 599.77 553.39 601.29 549.94 601.76 546.45 C 597.92 549.29 596.22 554.43 597.19 559.06 C 598.10 564.44 601.89 568.70 605.73 572.32 C 618.36 584.15 635.31 590.19 647.31 602.78 C 652.89 608.77 659.11 615.47 659.63 624.08 C 659.23 628.05 657.36 632.42 659.94 636.10 C 662.83 640.47 665.81 644.87 667.18 650.01 C 659.18 646.77 650.51 645.22 641.91 646.36 C 631.85 647.71 621.68 648.90 611.98 652.02 C 602.28 654.91 592.17 658.34 581.92 656.75 C 579.75 656.52 577.85 655.23 576.57 653.52 C 565.56 639.06 553.29 625.41 544.62 609.33 C 537.04 595.35 530.39 580.80 525.68 565.58 C 523.54 559.48 522.10 553.17 520.16 547.02 C 519.88 545.28 517.59 543.45 516.81 545.95 C 516.50 548.75 517.31 551.53 517.84 554.28 C 519.91 563.06 521.51 571.97 524.47 580.52 C 517.98 574.32 510.83 568.54 506.24 560.69 C 500.90 551.51 496.75 541.20 497.05 530.41 C 495.08 530.57 493.69 531.96 493.71 533.97 C 492.83 544.32 496.53 554.50 501.61 563.36 C 506.47 571.91 514.49 577.87 522.02 583.91 C 524.27 585.95 527.16 587.57 528.36 590.50 C 531.54 597.65 535.10 604.62 538.87 611.47 C 536.25 616.41 534.38 621.74 531.26 626.42 C 525.10 636.09 518.76 645.94 515.96 657.20 C 510.93 649.87 506.77 641.87 500.79 635.26 C 496.82 630.94 491.62 627.88 486.06 626.11 C 471.19 621.15 455.32 621.54 440.04 618.70 C 433.57 617.54 427.65 614.52 421.95 611.38 C 429.76 606.73 438.03 601.57 442.55 593.41 C 446.80 585.18 444.83 575.46 447.64 566.82 C 449.59 559.97 454.34 554.43 456.71 547.76 C 462.55 532.66 462.04 516.20 464.73 500.45 M 613.41 512.73 C 616.54 523.26 624.72 531.43 633.75 537.26 C 636.28 538.97 639.21 540.16 642.33 539.95 C 641.33 537.95 639.80 536.30 637.94 535.09 C 631.51 530.68 625.66 525.32 621.24 518.86 C 627.20 523.18 633.51 527.59 640.89 528.96 C 643.76 529.41 648.17 529.70 648.65 525.86 C 635.90 526.27 626.23 516.75 616.69 509.70 C 614.75 508.32 612.52 510.78 613.41 512.73 M 458.92 584.99 C 458.83 591.06 458.21 597.50 460.80 603.19 C 463.37 608.72 469.21 611.66 474.76 613.40 C 483.24 615.89 492.13 616.42 500.88 617.39 C 504.97 617.46 509.64 618.84 513.17 616.08 C 511.60 615.10 509.95 614.16 508.06 614.06 C 497.43 612.67 486.71 611.54 476.31 608.84 C 471.21 607.38 465.32 604.85 463.85 599.22 C 462.10 591.92 462.90 584.29 463.38 576.89 C 463.43 573.46 465.18 569.74 463.18 566.58 C 459.66 572.00 459.32 578.72 458.92 584.99 M 550.18 591.79 C 570.01 606.78 593.16 617.12 617.34 622.78 C 625.81 624.74 634.51 626.57 642.12 630.99 C 645.49 632.68 648.44 635.21 652.08 636.35 C 655.07 636.93 656.28 633.33 655.17 631.06 C 653.51 624.45 646.75 621.62 641.24 618.85 C 637.22 617.12 633.71 614.46 629.83 612.49 C 627.88 613.87 629.52 615.99 630.76 617.22 C 636.29 622.41 643.70 624.94 649.51 629.75 C 644.42 626.93 639.46 623.77 633.85 622.06 C 623.63 618.81 613.07 616.74 602.99 613.04 C 588.54 608.31 575.10 601.14 561.54 594.38 C 557.65 592.49 554.15 589.79 550.07 588.33 C 547.42 587.86 549.06 591.14 550.18 591.79 Z" />
        <path fill="var(--socks-color, grey)" opacity="1.00"
            d=" M 399.29 699.90 C 417.35 705.87 432.38 720.78 437.70 739.14 C 431.30 743.87 424.64 748.36 419.10 754.13 C 406.00 767.41 396.65 783.78 388.00 800.15 C 376.96 820.89 368.41 843.00 355.14 862.50 C 352.59 859.01 349.74 855.63 348.37 851.46 C 345.92 844.31 344.25 836.88 341.01 830.02 C 337.97 823.72 335.27 816.93 329.90 812.19 C 341.87 801.27 348.69 786.12 355.83 771.87 C 363.66 756.54 367.35 739.32 376.77 724.78 C 382.44 715.02 390.00 706.36 399.29 699.90 Z" />
        <path fill="var(--socks-color, grey)" opacity="1.00"
            d=" M 593.79 731.57 C 597.53 728.85 602.50 728.76 606.94 728.26 C 618.76 727.77 631.28 729.27 641.49 735.66 C 640.53 752.81 640.00 770.08 636.35 786.93 C 633.50 802.21 627.80 816.73 623.82 831.71 C 617.53 851.77 614.89 873.03 616.46 894.01 C 616.77 897.06 615.37 900.03 613.03 901.96 C 608.27 906.08 602.96 909.71 597.02 911.89 C 592.06 913.66 586.20 912.28 582.71 908.28 C 578.40 903.54 574.19 897.87 567.49 896.56 C 568.49 878.93 573.66 861.73 573.77 844.01 C 573.65 833.68 572.87 823.34 573.49 813.02 C 573.84 798.85 576.76 784.95 578.92 771.00 C 581.33 757.13 585.40 743.07 593.79 731.57 Z" />
    </g>
    <g id="#4d4d4dff">
        <path fill="#4d4d4d" opacity="1.00"
            d=" M 321.40 814.57 C 325.48 812.69 328.65 816.44 330.43 819.63 C 334.74 827.44 338.37 835.67 340.83 844.26 C 342.50 849.87 343.79 855.80 347.38 860.58 C 349.04 863.15 351.62 865.61 351.40 868.92 C 351.15 875.84 349.13 882.52 347.32 889.15 C 341.51 909.31 342.61 931.16 333.45 950.37 C 331.77 954.18 328.32 957.43 324.02 957.78 C 314.60 958.66 304.63 954.73 298.67 947.31 C 292.69 938.87 293.00 927.83 294.20 918.02 C 296.08 905.03 299.48 892.19 299.22 878.97 C 299.56 866.39 295.88 853.55 299.32 841.16 C 303.76 830.48 310.67 819.69 321.40 814.57 M 302.74 835.85 C 302.27 836.88 301.58 838.24 303.21 838.59 C 307.35 839.76 312.02 839.65 315.63 842.33 C 320.14 845.67 321.79 851.59 321.79 856.98 C 321.67 875.05 316.72 893.00 319.30 911.09 C 319.99 917.93 322.25 924.45 323.62 931.15 C 324.80 937.20 322.79 943.13 321.67 949.01 C 323.66 947.63 325.76 946.08 326.46 943.63 C 329.78 934.09 328.41 923.81 326.45 914.15 C 323.06 895.81 327.59 877.39 327.71 859.00 C 327.78 851.30 325.63 842.68 318.99 838.04 C 314.29 835.06 307.99 833.25 302.74 835.85 Z" />
        <path fill="#4d4d4d" opacity="1.00"
            d=" M 565.61 900.47 C 574.50 902.71 577.29 913.15 585.60 916.35 C 590.84 918.63 596.56 916.56 601.47 914.43 C 608.33 911.24 614.77 906.94 619.80 901.25 C 632.54 908.69 643.24 919.62 657.30 924.79 C 665.94 928.37 675.61 927.49 684.39 930.49 C 686.92 931.31 690.05 933.71 688.81 936.73 C 686.36 942.64 679.87 945.16 674.27 947.15 C 658.92 952.13 642.44 951.87 626.53 950.64 C 616.32 949.66 606.18 947.96 595.93 947.58 C 587.83 947.28 580.02 949.71 572.06 950.71 C 568.77 951.00 564.40 950.77 562.56 947.57 C 560.25 942.03 560.63 935.85 560.82 929.98 C 561.13 919.99 562.88 910.08 565.61 900.47 Z" />
    </g>
</svg>