<?xml version="1.0" encoding="UTF-8" ?>
<!DOCTYPE svg PUBLIC "-//W3C//DTD SVG 1.1//EN" "http://www.w3.org/Graphics/SVG/1.1/DTD/svg11.dtd">
<svg width="1000pt" height="1000pt" viewBox="0 0 1000 1000" version="1.1" xmlns="http://www.w3.org/2000/svg">
    <g id="#020202ff">
        <path fill="#020202" opacity="1.00"
            d=" M 477.60 12.48 C 484.76 9.92 491.77 6.94 498.70 3.82 C 497.31 8.11 492.90 10.26 489.84 13.23 C 494.37 13.05 498.92 13.23 503.39 14.09 C 502.11 16.64 499.78 18.30 497.41 19.73 C 508.95 20.57 520.11 24.11 530.86 28.23 C 538.08 30.96 543.94 36.25 548.93 42.00 C 553.99 47.96 556.57 55.53 561.35 61.70 C 564.27 65.96 569.36 68.72 570.67 74.02 C 572.84 82.56 570.02 91.38 571.04 100.03 C 571.52 104.12 572.15 108.22 571.85 112.35 C 569.09 110.55 567.41 107.67 566.04 104.76 C 564.29 110.25 560.30 114.91 559.73 120.77 C 558.90 127.22 559.00 133.76 558.12 140.19 C 557.81 144.14 554.00 146.31 552.98 149.96 C 551.72 153.62 549.93 157.08 548.83 160.79 C 547.98 164.39 547.91 168.12 547.43 171.78 C 558.78 170.63 570.43 169.90 581.65 172.51 C 591.56 174.81 601.31 178.01 610.39 182.66 C 614.83 184.92 619.28 187.20 623.89 189.11 C 631.14 192.30 639.30 192.35 646.61 195.37 C 658.46 199.90 666.81 209.87 676.47 217.63 C 686.01 225.51 696.69 232.05 705.25 241.10 C 700.82 248.86 694.98 255.68 689.97 263.06 C 683.18 272.91 676.03 282.67 666.84 290.45 C 671.69 297.87 675.04 306.12 678.88 314.08 C 686.01 329.80 692.11 345.96 698.41 362.03 C 704.50 363.29 710.23 365.72 715.90 368.20 C 720.92 370.25 724.78 374.77 725.76 380.14 C 726.76 385.68 727.46 391.32 727.48 396.95 C 727.69 399.50 725.02 400.35 723.18 401.19 C 719.16 402.84 715.17 405.07 712.79 408.84 C 711.08 411.13 709.52 414.70 706.03 414.15 C 700.32 413.57 696.52 408.74 692.60 405.09 C 688.64 406.07 684.22 407.70 680.36 405.55 C 677.07 403.57 674.00 400.77 672.89 396.97 C 670.09 388.92 668.24 380.08 662.33 373.59 C 644.94 355.35 627.19 337.43 608.50 320.50 C 606.37 318.68 604.49 315.93 601.32 316.29 C 605.61 340.39 610.94 364.29 615.67 388.31 C 618.80 405.92 623.42 423.27 625.35 441.08 C 626.03 449.04 625.52 457.24 622.83 464.82 C 620.24 472.31 615.41 478.90 613.65 486.70 C 612.18 493.24 611.32 500.14 607.84 506.01 C 604.51 511.57 599.70 516.96 592.97 518.01 C 594.48 524.09 592.07 530.00 591.28 535.95 C 594.15 540.89 598.38 545.73 597.57 551.92 C 596.05 563.13 593.00 574.09 590.73 585.17 C 600.98 592.22 607.43 603.25 615.78 612.24 C 621.92 618.58 629.76 622.81 636.56 628.35 C 640.22 631.34 643.69 634.58 646.83 638.12 C 647.99 639.57 649.40 641.13 649.38 643.12 C 647.06 645.17 644.07 646.18 641.41 647.70 C 648.11 661.92 658.31 674.05 666.74 687.23 C 670.60 693.26 674.66 699.35 676.53 706.35 C 678.84 713.73 677.03 721.74 679.56 729.09 C 681.77 735.63 685.31 741.61 687.88 748.02 C 694.95 763.44 701.35 779.15 708.61 794.48 C 722.14 823.29 739.94 850.98 744.84 882.99 C 752.99 888.07 763.28 887.64 771.94 884.14 C 780.44 880.68 788.35 875.72 797.34 873.50 C 803.90 871.85 811.50 870.64 817.58 874.41 C 822.95 877.49 825.94 883.98 825.02 890.07 C 824.22 895.61 821.14 900.45 818.06 904.99 C 812.55 913.07 805.07 919.50 797.54 925.63 C 793.36 929.06 788.84 932.17 785.32 936.33 C 782.33 939.80 781.25 944.35 779.46 948.46 C 776.96 954.48 773.34 960.15 768.21 964.27 C 762.64 968.74 757.07 973.81 749.95 975.58 C 743.22 977.56 736.42 974.43 730.55 971.39 C 722.28 965.17 719.12 954.78 713.34 946.58 C 709.16 940.43 704.22 933.14 706.67 925.37 C 698.04 917.68 692.95 907.08 686.07 897.96 C 672.65 878.39 656.51 860.91 642.28 841.96 C 633.72 830.19 625.54 818.08 618.96 805.07 C 609.34 786.72 600.94 767.43 597.57 746.86 C 594.94 735.15 593.19 722.80 586.59 712.50 C 576.65 715.26 566.30 716.32 556.01 716.19 C 551.55 715.90 547.12 715.32 542.67 715.10 C 539.84 722.13 536.70 729.72 530.24 734.17 C 526.02 736.74 521.15 738.80 516.12 738.39 C 511.85 738.13 507.62 737.55 503.42 736.87 C 499.78 745.93 494.83 754.38 489.70 762.66 C 483.46 772.39 476.47 782.27 466.25 788.16 C 460.45 791.52 453.68 792.36 447.11 792.85 C 440.08 793.35 433.47 796.06 427.30 799.32 C 411.36 806.88 396.49 816.44 381.17 825.15 C 364.87 834.66 349.05 845.14 331.74 852.81 C 315.40 860.73 298.07 866.33 281.35 873.37 C 272.81 877.10 263.58 880.19 256.66 886.67 C 245.39 906.20 242.92 929.06 237.46 950.57 C 234.65 960.58 231.88 970.73 226.87 979.91 C 224.66 983.82 221.72 987.80 217.30 989.33 C 212.42 990.91 207.07 988.89 203.56 985.39 C 196.42 978.56 193.35 968.71 191.82 959.21 C 190.20 948.23 189.63 937.08 190.12 925.99 C 190.20 919.28 190.60 912.37 188.46 905.91 C 186.14 898.83 181.90 892.59 179.29 885.63 C 174.94 874.60 173.84 861.78 178.66 850.72 C 182.65 841.92 190.28 835.37 198.43 830.51 C 203.98 827.19 210.49 825.55 216.94 825.55 C 222.32 826.08 227.85 827.97 233.22 826.24 C 238.95 824.65 243.13 820.24 247.53 816.51 C 262.01 803.64 276.31 790.54 291.41 778.39 C 318.47 756.51 350.19 740.15 384.03 731.89 C 389.91 730.57 395.95 730.06 401.97 730.35 C 412.67 721.86 417.04 708.00 419.86 695.14 C 406.61 692.36 393.26 688.10 379.59 689.07 C 379.13 687.87 378.54 686.56 379.40 685.37 C 382.66 679.26 388.00 674.65 393.11 670.12 C 403.58 660.69 415.86 653.64 426.71 644.71 C 425.31 643.34 423.47 642.05 423.19 639.97 C 422.61 636.00 424.68 632.38 425.91 628.75 C 427.67 624.02 426.90 618.89 427.34 613.97 C 427.77 608.49 428.92 602.85 427.27 597.46 C 425.51 590.72 419.66 585.92 418.23 579.05 C 416.37 571.16 415.87 562.92 416.80 554.87 C 417.64 547.32 417.81 539.72 418.67 532.18 C 417.36 531.62 415.51 531.68 414.97 530.08 C 410.84 523.33 411.09 514.89 412.66 507.41 C 414.34 501.71 415.50 495.86 415.86 489.93 C 407.13 482.87 401.30 472.78 391.48 467.03 C 388.41 470.98 383.16 471.75 378.62 470.19 C 378.72 473.08 379.07 476.49 376.81 478.74 C 373.82 481.67 369.28 481.47 365.40 481.60 C 363.54 483.81 361.12 485.93 358.03 485.82 C 345.11 485.76 333.81 477.77 325.72 468.28 C 318.91 460.44 313.34 451.62 306.21 444.05 C 296.42 448.22 285.43 450.26 274.89 448.09 C 268.86 446.90 263.54 443.69 258.28 440.68 C 253.19 437.78 251.03 431.91 249.12 426.70 C 245.77 415.90 244.26 404.37 245.57 393.10 C 246.56 384.43 252.47 377.36 259.13 372.19 C 266.63 366.72 275.57 363.62 282.88 357.84 C 288.37 354.28 291.46 348.35 294.88 342.98 C 300.43 333.53 305.24 323.60 311.70 314.71 C 321.04 302.90 335.34 297.13 348.31 290.35 C 356.54 285.93 364.12 280.35 371.17 274.23 C 377.78 268.55 383.68 262.06 390.64 256.79 C 394.25 253.95 398.19 251.58 401.81 248.76 C 408.09 243.64 412.82 236.98 417.64 230.55 C 420.40 226.63 425.71 226.63 429.63 224.46 C 434.45 212.63 435.29 199.60 435.50 186.97 C 420.16 182.67 404.55 172.88 399.88 156.76 C 398.70 158.22 396.76 161.00 394.70 159.41 C 393.06 154.10 393.22 148.36 391.91 142.94 C 389.80 130.45 383.98 117.72 387.92 104.99 C 389.89 99.13 388.06 93.00 388.30 87.01 C 388.78 73.64 391.16 59.51 399.74 48.77 C 404.53 42.37 411.63 38.41 418.27 34.24 C 423.88 30.76 430.61 29.25 435.57 24.73 C 441.95 19.29 449.27 14.22 457.84 13.32 C 464.41 12.42 471.19 14.70 477.60 12.48 M 542.46 137.63 C 540.35 144.00 540.05 151.14 536.39 156.89 C 533.46 147.63 532.25 137.66 526.95 129.30 C 524.27 132.10 522.10 135.44 521.17 139.24 C 519.87 143.90 520.85 148.76 520.29 153.49 C 519.34 157.59 517.12 161.22 515.11 164.87 C 514.35 161.08 513.68 157.29 512.85 153.52 C 508.79 160.81 501.26 165.74 498.64 173.89 C 497.73 175.90 497.78 178.53 495.94 180.00 C 494.38 180.08 493.41 178.83 492.47 177.83 C 492.04 178.64 491.61 179.44 491.17 180.24 C 490.44 180.18 488.97 180.08 488.24 180.03 C 488.29 182.33 488.06 184.63 487.92 186.93 C 494.20 183.78 500.98 181.77 507.95 180.87 C 520.12 179.33 531.33 173.79 543.53 172.35 C 542.12 166.41 543.11 160.08 545.74 154.61 C 550.76 144.31 553.78 132.44 551.57 121.01 C 547.05 125.58 544.07 131.44 542.46 137.63 M 533.05 179.28 C 526.38 181.03 519.93 183.64 513.09 184.73 C 508.57 185.63 503.82 185.71 499.55 187.58 C 493.15 190.32 486.78 193.21 480.78 196.76 C 469.03 204.22 457.75 212.39 446.40 220.44 C 439.64 224.83 433.29 230.39 425.23 232.22 C 423.14 232.48 421.75 234.02 420.69 235.70 C 415.27 243.74 409.00 251.56 400.63 256.69 C 394.59 260.47 389.11 265.07 384.06 270.08 C 373.86 280.17 362.52 289.29 349.69 295.83 C 337.49 301.91 323.98 307.21 315.61 318.57 C 307.58 330.65 301.17 343.78 292.41 355.37 C 288.92 359.57 284.75 363.16 280.43 366.47 C 273.54 371.73 265.02 374.60 258.77 380.75 C 255.05 384.39 251.48 388.78 250.62 394.06 C 249.95 403.89 251.22 413.79 253.67 423.31 C 255.51 429.27 258.01 436.00 264.04 438.88 C 278.61 447.78 297.72 444.48 311.31 435.26 C 318.53 430.24 326.10 425.60 334.54 422.92 C 327.57 420.36 320.80 417.22 314.40 413.46 C 312.71 412.26 310.10 410.96 310.63 408.45 C 312.42 408.64 314.02 409.52 315.61 410.31 C 327.67 416.52 340.78 420.78 354.29 422.27 C 342.59 410.79 328.53 401.41 319.54 387.41 C 317.31 383.68 313.93 379.93 314.31 375.31 C 314.68 375.29 315.43 375.25 315.80 375.23 C 319.58 380.38 322.87 385.94 327.35 390.55 C 334.00 397.46 341.25 403.75 348.24 410.31 C 343.32 400.51 339.91 390.06 336.60 379.64 C 335.43 375.75 333.92 371.88 333.80 367.77 C 335.60 366.14 336.16 369.12 336.89 370.15 C 342.99 385.29 348.89 400.54 355.77 415.35 C 361.77 424.48 368.36 433.23 375.19 441.77 C 380.20 448.01 384.99 454.52 390.97 459.90 C 395.56 464.07 401.38 466.82 405.30 471.74 C 408.69 475.98 412.16 480.21 416.38 483.68 C 418.21 485.41 420.85 487.14 420.58 490.03 C 420.46 496.15 419.06 502.16 417.43 508.04 C 415.62 514.74 415.92 521.90 418.00 528.50 C 430.50 523.72 437.88 511.97 445.79 501.92 C 450.79 495.73 455.18 488.61 462.24 484.51 C 463.51 480.01 464.29 475.37 466.01 471.00 C 468.93 463.94 470.26 456.37 472.47 449.08 C 475.74 437.97 476.37 426.35 477.87 414.93 C 478.48 411.96 478.48 408.05 481.69 406.61 C 481.57 413.07 480.80 419.51 480.83 425.98 C 480.80 435.11 478.47 444.01 475.82 452.68 C 484.05 439.90 495.16 429.43 505.91 418.83 C 516.34 407.63 526.13 395.43 532.38 381.34 C 536.23 372.98 537.28 363.77 539.85 355.02 C 541.25 350.57 541.98 345.74 544.91 341.95 C 544.76 344.58 544.33 347.19 543.73 349.76 C 541.76 358.00 542.20 366.63 539.78 374.78 C 535.17 391.72 524.11 405.81 512.83 418.86 C 503.42 429.10 492.47 437.96 484.21 449.24 C 478.25 457.54 472.20 466.02 468.89 475.79 C 468.03 478.38 466.93 481.05 467.20 483.85 C 469.52 487.72 474.51 489.62 478.87 488.53 C 482.38 487.65 485.40 485.50 488.10 483.16 C 495.61 477.38 499.12 468.28 505.74 461.69 C 516.03 450.20 531.28 444.97 542.02 434.00 C 553.91 422.20 563.73 407.92 568.77 391.83 C 570.07 388.30 570.68 384.38 573.16 381.42 C 573.80 386.57 571.83 391.51 570.50 396.39 C 568.67 402.80 566.39 409.13 562.83 414.81 C 554.77 427.94 544.66 440.33 531.26 448.29 C 523.24 453.23 515.02 458.05 508.28 464.72 C 515.94 462.44 524.04 464.40 530.92 468.07 C 549.72 477.27 563.02 493.96 578.65 507.33 C 583.36 511.08 589.23 515.11 595.57 513.41 C 598.93 511.66 601.23 508.46 603.31 505.39 C 607.26 499.37 607.80 492.02 609.32 485.18 C 611.31 476.03 617.44 468.47 619.61 459.38 C 621.72 450.78 621.04 441.78 619.47 433.15 C 617.35 419.37 613.79 405.87 611.31 392.16 C 606.95 369.44 601.74 346.89 597.88 324.08 C 594.05 306.30 590.75 288.26 590.80 270.01 C 591.15 258.20 595.12 246.55 601.91 236.89 C 605.13 232.50 609.11 228.19 614.42 226.47 C 616.84 225.58 619.54 227.32 619.84 229.84 C 620.93 236.29 618.64 242.65 616.54 248.65 C 615.05 252.37 614.05 256.51 611.09 259.40 C 611.15 256.67 611.70 253.98 612.57 251.40 C 614.73 244.60 616.57 237.51 615.91 230.30 C 607.01 234.60 602.27 244.02 598.81 252.80 C 593.45 266.96 595.95 282.32 597.63 296.93 C 597.43 298.19 598.47 298.90 599.54 298.43 L 598.51 297.51 C 601.77 289.93 604.90 282.26 609.19 275.20 C 615.13 265.01 624.94 258.02 633.91 250.71 C 633.70 251.49 633.29 253.04 633.09 253.81 C 629.71 258.79 624.54 262.17 620.68 266.74 C 611.14 277.63 605.84 291.36 600.44 304.59 C 599.07 307.21 599.85 310.09 600.41 312.81 C 611.65 309.86 623.15 307.61 633.74 302.64 C 644.47 298.53 654.90 293.31 663.53 285.60 C 678.12 272.98 686.81 255.27 700.06 241.43 C 689.15 232.81 677.10 225.66 666.92 216.11 C 661.24 211.09 655.87 205.55 649.20 201.83 C 639.54 196.35 627.72 197.47 618.09 191.87 C 603.13 183.77 587.14 176.57 569.95 175.34 C 557.55 174.92 545.06 176.12 533.05 179.28 M 453.00 183.46 C 456.08 187.19 459.67 190.46 463.52 193.38 C 465.00 194.73 467.57 195.75 466.91 198.22 C 463.34 198.41 460.26 196.16 457.03 194.96 C 451.65 192.28 446.04 190.14 440.23 188.60 C 441.00 199.05 439.60 209.61 436.82 219.70 C 453.32 208.81 468.45 195.56 486.58 187.35 C 476.10 182.11 463.97 186.83 453.00 183.46 M 647.73 302.74 C 635.57 308.09 623.23 313.58 609.94 315.36 C 623.70 327.48 636.71 340.42 649.73 353.32 C 655.40 359.64 661.76 365.33 667.04 371.99 C 672.36 378.61 674.36 387.06 676.92 394.98 C 677.71 398.12 680.20 400.53 683.02 401.96 C 686.72 403.16 690.36 400.02 694.03 401.07 C 698.50 403.67 701.27 408.88 706.64 410.05 C 710.18 403.39 716.48 398.81 723.60 396.60 C 723.28 392.35 722.94 388.10 722.60 383.85 C 722.34 379.43 720.83 374.59 716.70 372.33 C 711.06 369.30 705.03 367.01 698.95 365.01 C 697.63 364.52 696.09 364.04 695.50 362.63 C 693.71 359.60 692.33 356.35 690.95 353.12 C 682.79 332.70 674.44 312.24 663.63 293.06 C 658.57 296.66 653.39 300.15 647.73 302.74 M 335.12 428.39 C 325.53 431.26 317.65 437.65 309.10 442.56 C 319.20 450.96 325.48 462.96 335.76 471.18 C 342.62 476.85 351.40 481.35 360.54 480.29 C 360.43 474.97 356.81 470.56 352.95 467.26 C 352.14 467.62 350.52 468.33 349.71 468.68 C 348.59 467.62 347.39 466.00 348.48 464.48 C 350.33 461.59 354.54 462.26 356.87 464.19 C 361.06 467.53 363.99 472.34 365.56 477.43 C 368.14 476.70 371.09 476.70 373.33 475.04 C 374.16 468.44 370.66 462.31 369.76 455.88 C 369.88 454.16 371.38 453.19 373.01 453.74 C 376.24 457.33 377.79 462.19 381.36 465.53 C 383.49 466.48 385.73 465.13 387.62 464.19 C 384.01 460.53 380.31 456.95 377.07 452.96 C 370.22 444.48 363.11 436.16 357.44 426.82 C 350.03 427.76 342.37 426.17 335.12 428.39 M 499.33 477.34 C 493.78 483.34 488.13 490.19 479.93 492.47 C 474.71 493.97 469.58 491.73 464.92 489.60 C 463.09 488.39 461.73 490.46 460.48 491.47 C 448.01 504.36 439.93 522.28 423.14 530.43 C 422.75 538.62 422.42 546.83 421.96 555.02 C 420.98 562.38 421.65 569.91 423.57 577.06 C 425.05 582.77 429.77 586.79 431.96 592.18 C 435.63 600.20 433.65 609.23 432.64 617.60 C 438.01 610.56 443.52 603.59 447.99 595.92 C 456.78 581.05 461.16 564.05 463.58 547.07 C 463.92 545.09 464.57 541.11 467.53 542.72 C 468.21 561.70 462.31 580.53 453.15 597.02 C 445.53 611.10 432.49 621.80 427.17 637.18 C 426.26 639.02 427.22 640.91 428.05 642.57 C 429.81 641.56 431.42 640.31 432.85 638.86 C 441.74 629.76 450.92 620.13 454.88 607.72 C 456.72 602.92 456.61 597.71 457.60 592.73 C 460.04 593.78 459.55 596.84 459.91 598.99 C 460.04 609.08 455.44 618.64 449.82 626.78 C 444.03 634.56 437.34 641.65 430.33 648.35 C 423.65 654.78 415.68 659.61 408.38 665.28 C 400.30 671.47 392.59 678.14 385.09 685.03 C 410.49 686.14 436.16 692.52 457.78 706.25 C 468.26 713.02 475.85 724.07 487.91 728.34 C 497.28 731.64 507.12 733.72 517.04 734.27 C 523.35 733.05 529.38 729.38 532.60 723.69 C 536.59 716.85 538.47 709.05 542.14 702.05 C 548.09 688.94 556.39 677.13 564.06 665.00 C 572.96 651.63 575.16 635.35 577.90 619.88 C 581.51 597.37 587.27 575.28 591.48 552.89 C 593.02 546.53 587.14 542.39 585.41 536.90 C 579.48 540.74 573.30 544.24 566.77 546.96 C 559.56 550.00 551.76 551.21 544.04 552.11 C 540.43 552.40 536.68 552.88 533.16 551.81 C 532.32 549.35 535.36 549.18 537.01 548.91 C 545.48 547.78 554.06 546.38 561.93 542.86 C 570.37 539.34 578.14 534.46 586.57 530.92 C 587.84 526.63 589.08 522.15 588.11 517.66 C 584.77 516.82 581.61 515.45 578.65 513.71 C 573.83 519.92 567.49 524.80 560.59 528.51 C 549.65 534.38 537.52 537.97 525.16 539.10 C 519.17 539.58 513.09 540.58 507.11 539.50 C 507.54 538.33 508.00 536.90 509.44 536.71 C 517.44 535.02 525.69 534.61 533.60 532.41 C 548.62 528.01 563.59 521.97 575.35 511.35 C 564.90 502.66 555.74 492.55 545.50 483.62 C 537.77 477.03 529.04 470.88 518.98 468.65 C 511.20 466.99 504.47 472.20 499.33 477.34 M 589.65 590.22 C 584.19 611.30 582.93 633.33 575.97 654.03 C 572.24 664.42 565.29 673.15 559.64 682.52 C 553.94 691.08 549.20 700.21 544.88 709.52 C 550.91 709.64 556.96 709.76 562.98 709.22 C 571.40 708.79 579.95 708.12 587.93 705.16 C 596.45 702.21 603.54 696.05 608.76 688.81 C 614.53 680.79 618.14 671.53 623.00 662.99 C 627.96 654.28 634.23 644.95 644.48 642.14 C 639.73 637.63 634.85 633.22 629.38 629.60 C 622.08 624.68 614.35 620.02 608.83 612.99 C 602.72 605.17 596.63 597.30 589.65 590.22 M 618.63 683.67 C 612.63 695.62 603.19 706.52 590.37 711.24 C 596.38 719.66 598.51 729.92 600.97 739.76 C 609.27 740.51 617.66 741.13 625.97 740.12 C 633.55 739.27 640.89 737.16 648.25 735.25 C 656.63 732.96 665.24 730.51 672.30 725.23 C 671.88 720.80 672.02 716.34 671.56 711.93 C 670.57 704.40 666.43 697.85 662.42 691.58 C 653.99 678.20 643.70 665.92 636.86 651.58 C 628.58 660.90 624.33 672.78 618.63 683.67 M 425.23 696.96 C 422.78 708.79 418.47 720.70 410.10 729.67 C 415.32 731.76 419.97 735.15 423.84 739.22 C 428.65 745.03 430.87 752.53 431.85 759.90 C 433.32 771.72 431.91 784.14 426.42 794.83 C 430.49 792.62 434.61 790.43 439.04 789.02 C 446.31 786.60 454.40 787.82 461.40 784.41 C 469.67 780.46 475.64 773.13 480.72 765.73 C 487.14 756.18 492.89 746.16 497.87 735.79 C 490.47 733.92 482.89 731.92 476.57 727.46 C 468.59 721.83 461.92 714.49 453.62 709.29 C 444.74 703.95 435.14 699.91 425.23 696.96 M 649.13 740.62 C 642.48 742.31 635.82 744.12 628.99 744.97 C 619.92 746.10 610.72 745.12 601.80 743.32 C 603.71 752.71 605.85 762.09 609.14 771.10 C 618.33 795.73 631.27 818.90 647.13 839.86 C 660.75 857.82 675.99 874.54 688.81 893.11 C 695.73 902.72 701.72 912.97 709.16 922.21 C 710.73 921.56 712.34 921.02 714.03 920.75 C 720.34 919.93 726.18 916.90 731.48 913.53 C 738.33 905.54 740.77 894.22 738.86 883.96 C 734.80 859.36 722.23 837.50 711.50 815.37 C 700.71 794.30 691.80 772.36 682.22 750.74 C 679.55 743.94 675.91 737.56 673.57 730.63 C 666.33 735.83 657.64 738.36 649.13 740.62 M 378.10 738.37 C 357.82 744.51 338.17 753.00 320.12 764.14 C 304.84 773.40 291.00 784.77 277.48 796.38 C 264.92 806.79 253.43 818.53 240.12 827.99 C 242.41 832.67 243.73 837.82 244.01 843.03 C 244.51 853.14 240.95 863.55 244.40 873.41 C 245.69 877.67 249.07 880.73 251.80 884.08 C 258.47 878.00 266.54 873.81 274.88 870.54 C 293.36 862.44 312.71 856.45 330.85 847.56 C 347.78 839.88 363.19 829.39 379.30 820.22 C 392.48 812.70 405.43 804.75 419.07 798.07 C 421.14 797.12 421.91 794.78 422.94 792.93 C 428.24 781.51 429.15 768.24 426.40 756.03 C 424.64 748.83 421.15 741.08 413.95 737.93 C 402.66 732.60 389.61 735.08 378.10 738.37 M 199.63 836.53 C 193.23 840.64 187.13 845.90 184.04 853.02 C 180.09 862.37 180.95 873.12 184.57 882.44 C 187.85 891.24 193.72 899.04 195.41 908.42 C 197.16 918.54 195.56 928.81 195.88 939.00 C 196.19 948.54 196.64 958.21 199.34 967.42 C 201.18 973.52 204.44 979.57 209.77 983.28 C 212.87 985.50 217.17 984.32 219.31 981.37 C 223.99 975.35 226.32 967.91 228.72 960.77 C 234.13 944.49 236.28 927.40 240.84 910.90 C 243.16 902.99 244.99 894.77 249.55 887.77 C 245.54 885.42 241.89 882.20 240.19 877.76 C 236.06 868.72 237.87 858.63 238.57 849.11 C 239.21 842.75 238.44 836.32 236.65 830.20 C 234.14 831.18 231.59 832.18 228.88 832.34 C 223.85 832.83 218.96 830.76 213.94 831.33 C 208.84 831.87 203.91 833.70 199.63 836.53 M 801.94 877.95 C 792.23 879.74 783.68 884.89 774.68 888.63 C 765.32 892.50 753.88 893.14 745.21 887.22 C 746.04 899.33 741.14 911.98 731.59 919.67 C 727.76 922.96 723.40 926.55 718.02 926.21 C 715.76 926.57 711.51 925.54 711.46 928.97 C 711.84 936.66 717.97 942.15 721.41 948.60 C 726.02 956.00 728.69 965.94 737.63 969.34 C 743.34 972.43 750.42 971.51 755.54 967.66 C 761.73 962.95 768.60 958.41 772.27 951.30 C 775.45 945.82 776.44 939.29 780.22 934.14 C 783.97 928.96 789.17 925.12 794.07 921.12 C 803.89 913.24 813.38 904.16 818.43 892.41 C 820.35 888.07 819.40 882.42 815.43 879.58 C 811.63 876.53 806.40 877.16 801.94 877.95 Z" />
        <path fill="#020202" opacity="1.00"
            d=" M 535.24 231.13 C 536.88 228.92 538.33 226.14 541.34 225.69 C 541.05 230.28 537.98 233.90 535.71 237.67 C 517.88 264.75 498.65 291.88 472.18 311.23 C 456.29 322.89 438.20 331.60 419.06 336.40 C 412.12 338.08 405.19 340.14 398.04 340.71 C 396.45 341.15 395.48 339.86 394.36 339.04 C 396.50 337.95 398.74 337.03 401.05 336.35 C 413.47 332.99 426.05 329.99 437.91 324.94 C 452.85 318.54 466.78 309.77 478.95 298.99 C 491.80 287.77 502.57 274.44 513.09 261.07 C 520.82 251.35 528.10 241.29 535.24 231.13 Z" />
    </g>
    <g id="#f0b58bff">
        <path fill="#f0b58b" opacity="1.00"
            d=" M 542.46 137.63 C 544.07 131.44 547.05 125.58 551.57 121.01 C 553.78 132.44 550.76 144.31 545.74 154.61 C 543.11 160.08 542.12 166.41 543.53 172.35 C 531.33 173.79 520.12 179.33 507.95 180.87 C 500.98 181.77 494.20 183.78 487.92 186.93 C 488.06 184.63 488.29 182.33 488.24 180.03 C 488.97 180.08 490.44 180.18 491.17 180.24 C 491.61 179.44 492.04 178.64 492.47 177.83 C 493.41 178.83 494.38 180.08 495.94 180.00 C 497.78 178.53 497.73 175.90 498.64 173.89 C 501.26 165.74 508.79 160.81 512.85 153.52 C 513.68 157.29 514.35 161.08 515.11 164.87 C 517.12 161.22 519.34 157.59 520.29 153.49 C 520.85 148.76 519.87 143.90 521.17 139.24 C 522.10 135.44 524.27 132.10 526.95 129.30 C 532.25 137.66 533.46 147.63 536.39 156.89 C 540.05 151.14 540.35 144.00 542.46 137.63 Z" />
        <path fill="#f0b58b" opacity="1.00"
            d=" M 453.00 183.46 C 463.97 186.83 476.10 182.11 486.58 187.35 C 468.45 195.56 453.32 208.81 436.82 219.70 C 439.60 209.61 441.00 199.05 440.23 188.60 C 446.04 190.14 451.65 192.28 457.03 194.96 C 460.26 196.16 463.34 198.41 466.91 198.22 C 467.57 195.75 465.00 194.73 463.52 193.38 C 459.67 190.46 456.08 187.19 453.00 183.46 Z" />
        <path fill="#f0b58b" opacity="1.00"
            d=" M 647.73 302.74 C 653.39 300.15 658.57 296.66 663.63 293.06 C 674.44 312.24 682.79 332.70 690.95 353.12 C 692.33 356.35 693.71 359.60 695.50 362.63 C 696.09 364.04 697.63 364.52 698.95 365.01 C 705.03 367.01 711.06 369.30 716.70 372.33 C 720.83 374.59 722.34 379.43 722.60 383.85 C 722.94 388.10 723.28 392.35 723.60 396.60 C 716.48 398.81 710.18 403.39 706.64 410.05 C 701.27 408.88 698.50 403.67 694.03 401.07 C 690.36 400.02 686.72 403.16 683.02 401.96 C 680.20 400.53 677.71 398.12 676.92 394.98 C 674.36 387.06 672.36 378.61 667.04 371.99 C 661.76 365.33 655.40 359.64 649.73 353.32 C 636.71 340.42 623.70 327.48 609.94 315.36 C 623.23 313.58 635.57 308.09 647.73 302.74 Z" />
        <path fill="#f0b58b" opacity="1.00"
            d=" M 335.12 428.39 C 342.37 426.17 350.03 427.76 357.44 426.82 C 363.11 436.16 370.22 444.48 377.07 452.96 C 380.31 456.95 384.01 460.53 387.62 464.19 C 385.73 465.13 383.49 466.48 381.36 465.53 C 377.79 462.19 376.24 457.33 373.01 453.74 C 371.38 453.19 369.88 454.16 369.76 455.88 C 370.66 462.31 374.16 468.44 373.33 475.04 C 371.09 476.70 368.14 476.70 365.56 477.43 C 363.99 472.34 361.06 467.53 356.87 464.19 C 354.54 462.26 350.33 461.59 348.48 464.48 C 347.39 466.00 348.59 467.62 349.71 468.68 C 350.52 468.33 352.14 467.62 352.95 467.26 C 356.81 470.56 360.43 474.97 360.54 480.29 C 351.40 481.35 342.62 476.85 335.76 471.18 C 325.48 462.96 319.20 450.96 309.10 442.56 C 317.65 437.65 325.53 431.26 335.12 428.39 Z" />
        <path fill="#f0b58b" opacity="1.00"
            d=" M 618.63 683.67 C 624.33 672.78 628.58 660.90 636.86 651.58 C 643.70 665.92 653.99 678.20 662.42 691.58 C 666.43 697.85 670.57 704.40 671.56 711.93 C 672.02 716.34 671.88 720.80 672.30 725.23 C 665.24 730.51 656.63 732.96 648.25 735.25 C 640.89 737.16 633.55 739.27 625.97 740.12 C 617.66 741.13 609.27 740.51 600.97 739.76 C 598.51 729.92 596.38 719.66 590.37 711.24 C 603.19 706.52 612.63 695.62 618.63 683.67 Z" />
        <path fill="#f0b58b" opacity="1.00"
            d=" M 425.23 696.96 C 435.14 699.91 444.74 703.95 453.62 709.29 C 461.92 714.49 468.59 721.83 476.57 727.46 C 482.89 731.92 490.47 733.92 497.87 735.79 C 492.89 746.16 487.14 756.18 480.72 765.73 C 475.64 773.13 469.67 780.46 461.40 784.41 C 454.40 787.82 446.31 786.60 439.04 789.02 C 434.61 790.43 430.49 792.62 426.42 794.83 C 431.91 784.14 433.32 771.72 431.85 759.90 C 430.87 752.53 428.65 745.03 423.84 739.22 C 419.97 735.15 415.32 731.76 410.10 729.67 C 418.47 720.70 422.78 708.79 425.23 696.96 Z" />
    </g>
    <g id="#f11b27ff">
        <path fill="var(--shirt-color, grey)" opacity="1.00"
            d=" M 533.05 179.28 C 545.06 176.12 557.55 174.92 569.95 175.34 C 587.14 176.57 603.13 183.77 618.09 191.87 C 627.72 197.47 639.54 196.35 649.20 201.83 C 655.87 205.55 661.24 211.09 666.92 216.11 C 677.10 225.66 689.15 232.81 700.06 241.43 C 686.81 255.27 678.12 272.98 663.53 285.60 C 654.90 293.31 644.47 298.53 633.74 302.64 C 623.15 307.61 611.65 309.86 600.41 312.81 C 599.85 310.09 599.07 307.21 600.44 304.59 C 605.84 291.36 611.14 277.63 620.68 266.74 C 624.54 262.17 629.71 258.79 633.09 253.81 C 633.29 253.04 633.70 251.49 633.91 250.71 C 624.94 258.02 615.13 265.01 609.19 275.20 C 604.90 282.26 601.77 289.93 598.51 297.51 L 599.54 298.43 C 598.47 298.90 597.43 298.19 597.63 296.93 C 595.95 282.32 593.45 266.96 598.81 252.80 C 602.27 244.02 607.01 234.60 615.91 230.30 C 616.57 237.51 614.73 244.60 612.57 251.40 C 611.70 253.98 611.15 256.67 611.09 259.40 C 614.05 256.51 615.05 252.37 616.54 248.65 C 618.64 242.65 620.93 236.29 619.84 229.84 C 619.54 227.32 616.84 225.58 614.42 226.47 C 609.11 228.19 605.13 232.50 601.91 236.89 C 595.12 246.55 591.15 258.20 590.80 270.01 C 590.75 288.26 594.05 306.30 597.88 324.08 C 601.74 346.89 606.95 369.44 611.31 392.16 C 613.79 405.87 617.35 419.37 619.47 433.15 C 621.04 441.78 621.72 450.78 619.61 459.38 C 617.44 468.47 611.31 476.03 609.32 485.18 C 607.80 492.02 607.26 499.37 603.31 505.39 C 601.23 508.46 598.93 511.66 595.57 513.41 C 589.23 515.11 583.36 511.08 578.65 507.33 C 563.02 493.96 549.72 477.27 530.92 468.07 C 524.04 464.40 515.94 462.44 508.28 464.72 C 515.02 458.05 523.24 453.23 531.26 448.29 C 544.66 440.33 554.77 427.94 562.83 414.81 C 566.39 409.13 568.67 402.80 570.50 396.39 C 571.83 391.51 573.80 386.57 573.16 381.42 C 570.68 384.38 570.07 388.30 568.77 391.83 C 563.73 407.92 553.91 422.20 542.02 434.00 C 531.28 444.97 516.03 450.20 505.74 461.69 C 499.12 468.28 495.61 477.38 488.10 483.16 C 485.40 485.50 482.38 487.65 478.87 488.53 C 474.51 489.62 469.52 487.72 467.20 483.85 C 466.93 481.05 468.03 478.38 468.89 475.79 C 472.20 466.02 478.25 457.54 484.21 449.24 C 492.47 437.96 503.42 429.10 512.83 418.86 C 524.11 405.81 535.17 391.72 539.78 374.78 C 542.20 366.63 541.76 358.00 543.73 349.76 C 544.33 347.19 544.76 344.58 544.91 341.95 C 541.98 345.74 541.25 350.57 539.85 355.02 C 537.28 363.77 536.23 372.98 532.38 381.34 C 526.13 395.43 516.34 407.63 505.91 418.83 C 495.16 429.43 484.05 439.90 475.82 452.68 C 478.47 444.01 480.80 435.11 480.83 425.98 C 480.80 419.51 481.57 413.07 481.69 406.61 C 478.48 408.05 478.48 411.96 477.87 414.93 C 476.37 426.35 475.74 437.97 472.47 449.08 C 470.26 456.37 468.93 463.94 466.01 471.00 C 464.29 475.37 463.51 480.01 462.24 484.51 C 455.18 488.61 450.79 495.73 445.79 501.92 C 437.88 511.97 430.50 523.72 418.00 528.50 C 415.92 521.90 415.62 514.74 417.43 508.04 C 419.06 502.16 420.46 496.15 420.58 490.03 C 420.85 487.14 418.21 485.41 416.38 483.68 C 412.16 480.21 408.69 475.98 405.30 471.74 C 401.38 466.82 395.56 464.07 390.97 459.90 C 384.99 454.52 380.20 448.01 375.19 441.77 C 368.36 433.23 361.77 424.48 355.77 415.35 C 348.89 400.54 342.99 385.29 336.89 370.15 C 336.16 369.12 335.60 366.14 333.80 367.77 C 333.92 371.88 335.43 375.75 336.60 379.64 C 339.91 390.06 343.32 400.51 348.24 410.31 C 341.25 403.75 334.00 397.46 327.35 390.55 C 322.87 385.94 319.58 380.38 315.80 375.23 C 315.43 375.25 314.68 375.29 314.31 375.31 C 313.93 379.93 317.31 383.68 319.54 387.41 C 328.53 401.41 342.59 410.79 354.29 422.27 C 340.78 420.78 327.67 416.52 315.61 410.31 C 314.02 409.52 312.42 408.64 310.63 408.45 C 310.10 410.96 312.71 412.26 314.40 413.46 C 320.80 417.22 327.57 420.36 334.54 422.92 C 326.10 425.60 318.53 430.24 311.31 435.26 C 297.72 444.48 278.61 447.78 264.04 438.88 C 258.01 436.00 255.51 429.27 253.67 423.31 C 251.22 413.79 249.95 403.89 250.62 394.06 C 251.48 388.78 255.05 384.39 258.77 380.75 C 265.02 374.60 273.54 371.73 280.43 366.47 C 284.75 363.16 288.92 359.57 292.41 355.37 C 301.17 343.78 307.58 330.65 315.61 318.57 C 323.98 307.21 337.49 301.91 349.69 295.83 C 362.52 289.29 373.86 280.17 384.06 270.08 C 389.11 265.07 394.59 260.47 400.63 256.69 C 409.00 251.56 415.27 243.74 420.69 235.70 C 421.75 234.02 423.14 232.48 425.23 232.22 C 433.29 230.39 439.64 224.83 446.40 220.44 C 457.75 212.39 469.03 204.22 480.78 196.76 C 486.78 193.21 493.15 190.32 499.55 187.58 C 503.82 185.71 508.57 185.63 513.09 184.73 C 519.93 183.64 526.38 181.03 533.05 179.28 M 535.24 231.13 C 528.10 241.29 520.82 251.35 513.09 261.07 C 502.57 274.44 491.80 287.77 478.95 298.99 C 466.78 309.77 452.85 318.54 437.91 324.94 C 426.05 329.99 413.47 332.99 401.05 336.35 C 398.74 337.03 396.50 337.95 394.36 339.04 C 395.48 339.86 396.45 341.15 398.04 340.71 C 405.19 340.14 412.12 338.08 419.06 336.40 C 438.20 331.60 456.29 322.89 472.18 311.23 C 498.65 291.88 517.88 264.75 535.71 237.67 C 537.98 233.90 541.05 230.28 541.34 225.69 C 538.33 226.14 536.88 228.92 535.24 231.13 Z" />
    </g>
    <g id="#ffffffff">
        <path fill="var(--pants-color, grey)" opacity="1.00"
            d=" M 499.33 477.34 C 504.47 472.20 511.20 466.99 518.98 468.65 C 529.04 470.88 537.77 477.03 545.50 483.62 C 555.74 492.55 564.90 502.66 575.35 511.35 C 563.59 521.97 548.62 528.01 533.60 532.41 C 525.69 534.61 517.44 535.02 509.44 536.71 C 508.00 536.90 507.54 538.33 507.11 539.50 C 513.09 540.58 519.17 539.58 525.16 539.10 C 537.52 537.97 549.65 534.38 560.59 528.51 C 567.49 524.80 573.83 519.92 578.65 513.71 C 581.61 515.45 584.77 516.82 588.11 517.66 C 589.08 522.15 587.84 526.63 586.57 530.92 C 578.14 534.46 570.37 539.34 561.93 542.86 C 554.06 546.38 545.48 547.78 537.01 548.91 C 535.36 549.18 532.32 549.35 533.16 551.81 C 536.68 552.88 540.43 552.40 544.04 552.11 C 551.76 551.21 559.56 550.00 566.77 546.96 C 573.30 544.24 579.48 540.74 585.41 536.90 C 587.14 542.39 593.02 546.53 591.48 552.89 C 587.27 575.28 581.51 597.37 577.90 619.88 C 575.16 635.35 572.96 651.63 564.06 665.00 C 556.39 677.13 548.09 688.94 542.14 702.05 C 538.47 709.05 536.59 716.85 532.60 723.69 C 529.38 729.38 523.35 733.05 517.04 734.27 C 507.12 733.72 497.28 731.64 487.91 728.34 C 475.85 724.07 468.26 713.02 457.78 706.25 C 436.16 692.52 410.49 686.14 385.09 685.03 C 392.59 678.14 400.30 671.47 408.38 665.28 C 415.68 659.61 423.65 654.78 430.33 648.35 C 437.34 641.65 444.03 634.56 449.82 626.78 C 455.44 618.64 460.04 609.08 459.91 598.99 C 459.55 596.84 460.04 593.78 457.60 592.73 C 456.61 597.71 456.72 602.92 454.88 607.72 C 450.92 620.13 441.74 629.76 432.85 638.86 C 431.42 640.31 429.81 641.56 428.05 642.57 C 427.22 640.91 426.26 639.02 427.17 637.18 C 432.49 621.80 445.53 611.10 453.15 597.02 C 462.31 580.53 468.21 561.70 467.53 542.72 C 464.57 541.11 463.92 545.09 463.58 547.07 C 461.16 564.05 456.78 581.05 447.99 595.92 C 443.52 603.59 438.01 610.56 432.64 617.60 C 433.65 609.23 435.63 600.20 431.96 592.18 C 429.77 586.79 425.05 582.77 423.57 577.06 C 421.65 569.91 420.98 562.38 421.96 555.02 C 422.42 546.83 422.75 538.62 423.14 530.43 C 439.93 522.28 448.01 504.36 460.48 491.47 C 461.73 490.46 463.09 488.39 464.92 489.60 C 469.58 491.73 474.71 493.97 479.93 492.47 C 488.13 490.19 493.78 483.34 499.33 477.34 Z" />
        <path fill="var(--pants-color, grey)" opacity="1.00"
            d=" M 589.65 590.22 C 596.63 597.30 602.72 605.17 608.83 612.99 C 614.35 620.02 622.08 624.68 629.38 629.60 C 634.85 633.22 639.73 637.63 644.48 642.14 C 634.23 644.95 627.96 654.28 623.00 662.99 C 618.14 671.53 614.53 680.79 608.76 688.81 C 603.54 696.05 596.45 702.21 587.93 705.16 C 579.95 708.12 571.40 708.79 562.98 709.22 C 556.96 709.76 550.91 709.64 544.88 709.52 C 549.20 700.21 553.94 691.08 559.64 682.52 C 565.29 673.15 572.24 664.42 575.97 654.03 C 582.93 633.33 584.19 611.30 589.65 590.22 Z" />
        <path fill="var(--socks-color, grey)" opacity="1.00"
            d=" M 649.13 740.62 C 657.64 738.36 666.33 735.83 673.57 730.63 C 675.91 737.56 679.55 743.94 682.22 750.74 C 691.80 772.36 700.71 794.30 711.50 815.37 C 722.23 837.50 734.80 859.36 738.86 883.96 C 740.77 894.22 738.33 905.54 731.48 913.53 C 726.18 916.90 720.34 919.93 714.03 920.75 C 712.34 921.02 710.73 921.56 709.16 922.21 C 701.72 912.97 695.73 902.72 688.81 893.11 C 675.99 874.54 660.75 857.82 647.13 839.86 C 631.27 818.90 618.33 795.73 609.14 771.10 C 605.85 762.09 603.71 752.71 601.80 743.32 C 610.72 745.12 619.92 746.10 628.99 744.97 C 635.82 744.12 642.48 742.31 649.13 740.62 Z" />
        <path fill="var(--socks-color, grey)" opacity="1.00"
            d=" M 378.10 738.37 C 389.61 735.08 402.66 732.60 413.95 737.93 C 421.15 741.08 424.64 748.83 426.40 756.03 C 429.15 768.24 428.24 781.51 422.94 792.93 C 421.91 794.78 421.14 797.12 419.07 798.07 C 405.43 804.75 392.48 812.70 379.30 820.22 C 363.19 829.39 347.78 839.88 330.85 847.56 C 312.71 856.45 293.36 862.44 274.88 870.54 C 266.54 873.81 258.47 878.00 251.80 884.08 C 249.07 880.73 245.69 877.67 244.40 873.41 C 240.95 863.55 244.51 853.14 244.01 843.03 C 243.73 837.82 242.41 832.67 240.12 827.99 C 253.43 818.53 264.92 806.79 277.48 796.38 C 291.00 784.77 304.84 773.40 320.12 764.14 C 338.17 753.00 357.82 744.51 378.10 738.37 Z" />
    </g>
    <g id="#4d4d4dff">
        <path fill="#4d4d4d" opacity="1.00"
            d=" M 199.63 836.53 C 203.91 833.70 208.84 831.87 213.94 831.33 C 218.96 830.76 223.85 832.83 228.88 832.34 C 231.59 832.18 234.14 831.18 236.65 830.20 C 238.44 836.32 239.21 842.75 238.57 849.11 C 237.87 858.63 236.06 868.72 240.19 877.76 C 241.89 882.20 245.54 885.42 249.55 887.77 C 244.99 894.77 243.16 902.99 240.84 910.90 C 236.28 927.40 234.13 944.49 228.72 960.77 C 226.32 967.91 223.99 975.35 219.31 981.37 C 217.17 984.32 212.87 985.50 209.77 983.28 C 204.44 979.57 201.18 973.52 199.34 967.42 C 196.64 958.21 196.19 948.54 195.88 939.00 C 195.56 928.81 197.16 918.54 195.41 908.42 C 193.72 899.04 187.85 891.24 184.57 882.44 C 180.95 873.12 180.09 862.37 184.04 853.02 C 187.13 845.90 193.23 840.64 199.63 836.53 Z" />
        <path fill="#4d4d4d" opacity="1.00"
            d=" M 801.94 877.95 C 806.40 877.16 811.63 876.53 815.43 879.58 C 819.40 882.42 820.35 888.07 818.43 892.41 C 813.38 904.16 803.89 913.24 794.07 921.12 C 789.17 925.12 783.97 928.96 780.22 934.14 C 776.44 939.29 775.45 945.82 772.27 951.30 C 768.60 958.41 761.73 962.95 755.54 967.66 C 750.42 971.51 743.34 972.43 737.63 969.34 C 728.69 965.94 726.02 956.00 721.41 948.60 C 717.97 942.15 711.84 936.66 711.46 928.97 C 711.51 925.54 715.76 926.57 718.02 926.21 C 723.40 926.55 727.76 922.96 731.59 919.67 C 741.14 911.98 746.04 899.33 745.21 887.22 C 753.88 893.14 765.32 892.50 774.68 888.63 C 783.68 884.89 792.23 879.74 801.94 877.95 Z" />
    </g>
</svg>