<?xml version="1.0" encoding="UTF-8" ?>
<!DOCTYPE svg PUBLIC "-//W3C//DTD SVG 1.1//EN" "http://www.w3.org/Graphics/SVG/1.1/DTD/svg11.dtd">
<svg width="1000pt" height="1000pt" viewBox="0 0 1000 1000" version="1.1" xmlns="http://www.w3.org/2000/svg">
    <g id="#020202ff">
        <path fill="#020202" opacity="1.00"
            d=" M 536.45 35.34 C 539.86 30.80 543.94 25.79 550.11 25.46 C 556.29 24.11 561.82 28.87 567.92 27.51 C 578.85 25.91 590.80 25.30 600.80 30.78 C 604.46 30.85 608.23 30.94 611.66 32.41 C 617.63 34.59 621.84 39.63 627.32 42.67 C 630.27 44.49 633.73 45.06 636.97 46.19 C 637.06 49.12 633.84 49.98 631.83 51.23 C 634.92 54.16 637.93 57.38 639.51 61.42 C 642.23 68.30 641.55 75.87 643.18 82.99 C 644.04 86.96 645.52 90.90 645.22 95.03 C 644.94 98.53 642.57 101.44 642.20 104.91 C 640.81 116.93 638.18 129.24 631.32 139.43 C 628.04 144.56 622.21 147.02 617.02 149.71 C 611.97 160.93 605.27 171.26 598.57 181.54 C 593.00 189.58 586.93 197.45 579.20 203.55 C 585.30 208.84 591.11 214.47 596.68 220.32 C 601.60 225.50 605.46 231.79 607.23 238.75 C 608.56 244.07 608.85 249.58 609.04 255.04 C 609.04 259.59 611.42 263.60 613.29 267.60 C 621.91 284.79 627.82 303.60 628.67 322.90 C 629.34 330.56 629.11 338.43 631.42 345.84 C 633.24 351.43 637.40 356.11 638.25 362.04 C 638.71 364.83 638.08 367.98 635.81 369.86 C 626.21 378.53 613.31 382.76 600.51 383.22 C 601.03 386.99 600.77 391.06 602.42 394.57 C 605.63 396.96 609.57 398.07 613.13 399.84 C 628.24 406.40 640.49 417.70 653.57 427.42 C 658.83 430.99 665.37 431.50 671.14 433.88 C 680.58 437.46 690.01 442.92 695.16 451.94 C 696.87 454.59 697.05 457.79 697.32 460.85 C 700.01 464.57 699.82 469.20 698.57 473.43 C 700.73 475.41 703.17 477.75 702.95 480.96 C 703.10 484.93 699.76 487.51 696.93 489.65 C 697.75 492.28 698.62 495.38 696.80 497.81 C 693.96 501.67 688.95 502.90 684.51 503.84 C 682.03 504.16 679.06 504.89 676.95 503.12 C 674.93 500.59 676.97 497.40 677.82 494.83 C 674.93 494.72 671.73 495.46 669.10 494.00 C 666.78 492.64 667.50 489.82 667.63 487.63 C 665.97 486.95 663.96 486.72 662.80 485.23 C 659.77 481.42 659.10 476.40 656.73 472.24 C 655.14 469.52 652.13 468.17 649.59 466.52 C 640.27 461.16 631.37 455.05 621.68 450.35 C 611.52 445.50 600.99 441.47 590.43 437.58 C 583.19 434.36 575.89 430.90 569.71 425.86 C 568.34 430.84 566.74 435.78 564.42 440.41 C 562.10 445.10 560.75 450.94 563.17 455.87 C 564.89 459.92 567.65 463.57 568.58 467.93 C 569.64 473.05 566.91 477.89 566.82 482.95 C 566.91 486.70 568.14 490.28 569.04 493.89 C 578.68 500.96 586.09 510.69 592.01 521.00 C 596.38 528.69 603.92 533.77 608.96 540.94 C 614.11 548.11 618.34 556.07 620.54 564.67 C 621.48 568.72 624.18 571.96 626.78 575.09 C 632.09 581.46 636.43 588.67 639.33 596.45 C 640.69 600.26 641.97 604.28 641.53 608.38 C 638.88 609.63 635.87 609.56 633.02 609.91 C 637.28 615.36 641.57 620.79 645.70 626.36 C 654.26 637.83 655.44 653.13 653.46 666.88 C 650.57 681.06 645.67 694.82 643.65 709.20 C 642.78 717.48 643.50 725.84 642.48 734.12 C 640.76 749.98 637.69 765.74 632.94 780.97 C 626.82 799.26 618.77 816.82 612.17 834.93 C 607.80 847.80 602.81 860.57 600.46 874.00 C 600.80 881.82 605.24 888.91 610.68 894.31 C 618.77 902.35 627.27 910.10 637.06 916.04 C 646.89 922.46 658.03 928.62 663.29 939.67 C 666.09 944.96 664.58 952.22 659.18 955.21 C 650.78 960.03 641.31 962.70 631.84 964.47 C 618.45 966.85 604.45 966.45 591.42 962.36 C 580.15 958.84 569.47 953.54 557.95 950.78 C 548.17 948.01 537.35 948.14 528.55 942.48 C 524.44 939.92 521.44 935.65 520.56 930.88 C 518.87 922.30 519.47 913.48 520.32 904.85 C 521.35 897.62 522.37 889.92 526.86 883.91 C 530.60 878.73 536.94 875.40 538.79 868.94 C 542.78 855.19 543.97 840.80 547.88 827.03 C 551.82 809.40 556.70 791.89 558.40 773.85 C 559.87 761.94 559.55 749.81 562.39 738.10 C 564.37 728.23 568.26 718.91 571.25 709.34 C 573.26 703.15 575.25 696.95 577.50 690.84 C 572.16 695.93 565.37 699.06 559.69 703.71 C 553.30 708.90 550.21 716.82 544.72 722.80 C 534.61 734.31 524.09 745.53 512.49 755.58 C 501.11 765.28 489.68 774.96 477.55 783.72 C 469.16 789.91 460.88 796.24 452.65 802.63 C 444.01 809.22 441.92 820.83 441.20 831.03 C 440.66 845.67 439.80 860.43 441.95 874.99 C 442.90 882.97 444.62 890.90 444.52 898.97 C 444.51 902.92 442.91 907.15 439.49 909.37 C 436.31 911.21 432.44 910.63 429.00 910.04 C 420.17 908.14 411.50 904.39 404.96 898.04 C 399.33 892.61 394.24 886.59 390.00 880.01 C 382.59 868.11 379.78 854.20 375.17 841.13 C 371.86 831.65 368.58 822.02 367.60 811.97 C 367.01 804.99 370.06 798.41 373.55 792.57 C 378.33 784.61 385.38 777.72 394.17 774.41 C 398.45 772.75 403.21 772.58 407.29 770.36 C 414.39 766.80 422.01 763.42 427.08 757.05 C 433.19 749.51 436.03 740.06 440.49 731.57 C 452.05 706.93 469.49 683.92 493.84 670.86 C 496.29 669.71 498.99 669.33 501.62 668.83 C 500.64 666.03 499.67 663.24 498.73 660.44 C 486.66 661.91 475.24 666.89 463.04 667.35 C 456.66 667.85 452.70 662.01 449.88 657.18 C 443.02 644.67 438.94 630.91 433.01 617.97 C 428.09 607.05 423.32 596.03 417.33 585.64 C 409.08 571.23 400.05 557.24 392.74 542.31 C 383.80 523.89 380.22 503.36 379.39 483.04 C 379.03 475.10 379.45 467.11 380.94 459.30 C 378.07 455.99 375.00 452.52 374.19 448.07 C 369.85 430.63 375.24 412.58 372.02 395.02 C 370.83 388.33 370.83 381.41 372.47 374.79 C 362.06 370.05 351.94 364.34 343.42 356.65 C 333.42 347.59 326.85 334.60 326.36 321.04 C 326.17 317.55 325.76 313.79 327.67 310.67 C 332.40 302.16 339.25 295.05 346.57 288.73 C 351.41 284.89 353.21 278.69 357.15 274.10 C 367.22 260.23 376.61 245.82 387.79 232.79 C 396.78 222.43 406.67 212.86 417.34 204.24 C 428.50 195.37 441.28 186.79 456.06 186.50 C 460.21 186.62 463.32 183.65 466.61 181.59 C 471.29 178.61 476.29 175.35 482.06 175.37 C 488.05 175.23 493.65 177.60 499.09 179.82 C 502.71 181.42 506.74 180.89 510.58 180.82 C 507.89 171.62 508.44 161.97 507.82 152.52 C 504.75 148.60 503.61 143.66 502.54 138.90 C 501.35 133.34 500.65 127.66 500.77 121.97 C 500.80 118.21 502.21 114.68 502.71 110.99 C 502.37 106.81 500.02 103.06 499.71 98.85 C 498.58 87.58 498.67 76.13 500.39 64.93 C 501.61 56.67 504.74 47.89 512.05 43.13 C 519.50 38.81 527.87 36.17 536.45 35.34 M 556.67 96.18 C 552.47 101.91 546.43 105.79 540.65 109.74 C 539.37 110.51 537.86 111.72 536.45 110.49 C 535.84 106.24 538.74 102.61 540.84 99.21 C 535.79 101.06 531.35 104.48 525.96 105.35 C 525.74 104.65 525.31 103.26 525.09 102.56 C 520.38 106.99 516.37 112.14 513.47 117.93 C 526.07 119.96 538.46 123.04 550.91 125.82 C 552.64 126.25 555.12 126.64 555.24 128.91 C 554.21 132.67 552.60 136.30 550.50 139.59 C 549.32 141.44 546.93 140.56 545.18 140.37 C 534.45 138.30 523.70 136.33 512.96 134.27 C 512.41 146.87 512.30 159.51 513.39 172.08 C 514.44 180.87 519.24 188.63 524.43 195.58 C 527.90 200.08 531.32 204.76 535.81 208.30 C 542.47 213.13 551.47 212.49 558.85 209.77 C 566.58 206.36 574.00 201.98 580.35 196.38 C 591.77 185.46 599.77 171.67 608.24 158.48 C 597.31 155.78 586.37 153.13 575.48 150.30 C 574.56 156.32 573.80 162.83 569.96 167.80 C 569.42 167.86 568.33 167.98 567.79 168.04 C 567.18 162.89 569.07 157.88 569.83 152.83 C 570.99 146.46 572.37 138.96 578.50 135.42 C 580.44 133.90 582.96 134.94 585.13 135.28 C 595.62 137.71 605.99 140.64 616.42 143.36 C 617.77 140.52 619.03 137.64 620.22 134.74 C 615.57 132.66 612.48 128.47 609.15 124.81 C 603.73 118.57 603.49 109.76 604.30 101.96 C 600.65 100.06 596.79 98.66 592.93 97.27 C 596.09 103.14 600.28 108.61 602.26 115.02 C 602.11 115.44 601.82 116.27 601.68 116.69 C 597.68 117.55 593.81 115.16 589.99 114.23 C 590.33 116.32 590.92 118.42 590.66 120.56 C 588.66 121.87 586.45 120.31 584.48 119.70 C 573.08 115.13 561.68 107.91 556.67 96.18 M 466.73 187.60 C 470.65 189.27 475.31 190.22 477.85 193.98 C 473.94 193.74 470.21 192.52 466.47 191.46 C 456.53 188.79 445.86 191.19 436.99 196.06 C 428.85 200.59 421.44 206.34 414.47 212.51 C 404.18 221.53 394.56 231.37 386.05 242.10 C 378.46 251.77 371.36 261.81 364.26 271.84 C 376.29 264.81 389.20 259.37 401.03 251.98 C 405.56 249.23 409.77 245.91 414.70 243.89 C 414.25 245.51 413.64 247.15 412.21 248.16 C 396.81 261.13 377.53 267.97 360.86 278.99 C 371.89 281.29 379.91 289.85 387.17 297.85 C 396.83 309.16 405.40 322.11 408.63 336.83 C 415.62 334.75 420.40 328.94 423.81 322.80 C 430.05 312.31 433.91 300.62 440.21 290.17 C 443.26 285.30 445.41 279.37 450.65 276.36 C 449.74 282.34 445.89 287.19 443.52 292.61 C 438.59 303.51 434.15 314.70 427.98 324.99 C 424.63 330.37 420.77 335.92 414.93 338.79 C 411.02 340.76 406.58 341.00 402.31 341.29 C 417.32 350.40 432.85 358.67 447.37 368.58 C 462.82 378.77 476.43 391.67 487.62 406.40 C 494.44 415.89 501.21 426.28 502.65 438.13 C 503.35 440.69 500.73 444.01 498.13 442.19 C 491.83 437.46 488.62 429.89 483.51 424.06 C 488.32 433.33 494.18 442.53 495.53 453.08 C 496.24 456.41 492.03 459.28 489.47 456.69 C 484.43 452.40 481.21 446.43 478.01 440.75 C 479.49 445.02 481.67 449.35 481.30 454.00 C 481.17 456.41 478.37 458.76 476.18 457.00 C 471.55 453.13 469.04 447.38 466.45 442.07 C 465.73 444.39 465.76 447.71 462.99 448.60 C 460.14 448.87 458.19 446.39 456.50 444.49 C 451.10 437.52 447.16 429.56 443.45 421.60 C 440.22 414.53 433.82 409.62 430.28 402.76 C 428.83 400.02 427.23 397.12 424.37 395.65 C 408.95 387.13 391.87 382.42 375.49 376.19 C 375.08 383.13 375.54 390.10 376.88 396.93 C 379.94 412.11 376.14 427.65 378.56 442.87 C 379.39 446.78 380.14 451.03 383.02 454.02 C 399.60 471.32 422.30 481.96 445.82 485.69 C 461.44 488.50 477.37 487.63 493.10 489.25 C 511.22 491.26 529.14 494.74 547.10 497.85 C 553.02 498.51 559.39 499.77 565.02 497.14 C 563.72 491.18 560.76 485.26 562.13 479.04 C 562.72 475.10 564.84 470.89 562.89 467.01 C 560.13 460.94 555.90 455.64 553.43 449.42 C 550.81 443.74 550.18 437.46 548.79 431.43 C 548.00 427.42 546.76 423.37 547.29 419.23 C 547.68 419.24 548.45 419.24 548.83 419.25 C 550.51 421.51 551.10 424.33 551.87 426.99 C 553.32 432.69 554.91 438.34 556.61 443.97 C 557.86 441.46 559.16 438.96 560.35 436.42 C 563.78 429.33 564.80 421.43 566.96 413.92 C 569.61 402.87 574.03 392.39 577.95 381.76 C 580.62 374.64 582.29 367.18 585.14 360.13 C 587.60 354.41 587.39 348.03 587.60 341.93 C 587.91 330.62 583.64 319.96 581.22 309.08 C 578.87 299.01 577.00 288.10 580.60 278.10 C 582.53 283.89 581.73 290.13 583.07 296.05 C 585.53 311.85 593.71 326.53 593.26 342.80 C 596.76 333.12 599.90 323.26 601.20 313.01 C 603.30 297.05 601.90 280.88 603.51 264.89 C 604.43 259.29 604.23 253.62 604.07 247.98 C 604.00 240.98 601.71 234.04 597.51 228.44 C 591.19 220.30 583.15 213.78 575.32 207.17 C 561.75 218.08 559.12 236.25 555.12 252.11 C 554.02 255.77 553.35 261.08 548.91 262.06 C 544.17 262.20 540.65 258.46 537.64 255.29 C 530.44 247.79 525.19 238.72 520.16 229.70 C 516.59 223.28 514.30 216.23 512.96 209.03 C 511.48 200.95 509.87 192.89 509.02 184.72 C 505.76 185.24 502.36 185.98 499.13 184.87 C 492.64 182.96 486.19 178.89 479.17 180.61 C 474.62 182.11 470.82 185.18 466.73 187.60 M 519.18 213.73 C 521.30 222.64 525.97 230.63 530.71 238.36 C 535.44 245.62 540.47 253.32 548.09 257.81 C 552.90 242.66 554.16 225.73 564.28 212.79 C 559.48 214.96 554.35 216.52 549.07 216.78 C 542.02 216.92 534.56 214.65 529.75 209.27 C 523.69 202.93 518.39 195.86 514.07 188.23 C 516.03 196.68 517.13 205.30 519.18 213.73 M 605.84 322.77 C 603.63 333.60 600.02 344.15 594.94 353.99 C 591.12 361.32 588.67 369.24 586.35 377.15 C 594.21 377.69 602.12 377.59 609.93 376.54 C 618.67 375.28 626.80 371.36 634.02 366.40 C 632.96 358.53 626.72 352.72 625.16 345.01 C 622.39 332.54 623.61 319.60 621.23 307.07 C 618.73 293.69 614.26 280.71 608.22 268.53 C 608.24 286.60 609.75 304.95 605.84 322.77 M 359.36 284.24 C 353.67 287.35 349.22 292.18 344.60 296.63 C 340.13 301.24 335.49 306.01 333.07 312.08 C 330.24 318.46 331.49 325.78 333.76 332.14 C 337.24 342.52 344.60 351.21 353.44 357.51 C 364.68 365.70 377.59 371.10 390.27 376.64 C 402.42 381.12 414.72 385.46 426.06 391.82 C 429.33 393.50 431.70 396.42 433.34 399.66 C 436.89 406.77 443.41 411.86 446.85 419.04 C 451.18 427.96 455.27 437.34 462.28 444.54 C 461.92 436.95 457.75 430.31 456.32 422.98 C 455.65 421.03 458.66 419.21 459.71 421.09 C 466.32 430.90 470.15 442.35 477.16 451.92 C 474.71 441.64 469.13 432.54 465.07 422.89 C 464.32 420.83 463.01 417.79 465.27 416.23 C 467.37 415.35 469.13 417.13 470.36 418.60 C 478.60 428.83 482.05 442.09 490.86 451.93 C 488.13 440.64 482.11 430.58 476.43 420.57 C 475.47 418.56 474.00 416.44 474.39 414.11 C 475.26 410.40 479.77 412.38 481.38 414.53 C 487.92 421.03 492.57 429.07 498.35 436.19 C 497.19 432.36 495.92 428.53 493.95 425.02 C 486.58 411.36 476.27 399.53 465.08 388.88 C 453.33 377.87 439.52 369.42 425.73 361.26 C 412.54 353.71 398.90 346.67 387.34 336.65 C 380.60 331.75 375.27 325.27 370.63 318.42 C 369.93 317.41 369.83 316.35 370.31 315.22 C 371.80 315.07 373.31 315.44 374.34 316.60 C 378.02 320.27 381.20 324.42 385.03 327.95 C 388.01 324.18 392.26 321.77 396.88 320.59 C 392.65 312.94 387.55 305.79 381.59 299.39 C 376.44 293.90 371.27 288.02 364.30 284.80 C 362.73 284.25 360.92 283.02 359.36 284.24 M 389.04 331.13 C 391.90 333.49 394.85 335.74 397.85 337.94 C 399.93 337.72 402.02 337.52 404.11 337.33 C 402.15 333.01 400.51 328.55 398.67 324.17 C 394.81 325.48 391.55 327.94 389.04 331.13 M 584.88 381.59 C 581.00 392.93 575.96 403.87 572.63 415.41 C 571.32 418.90 573.05 423.02 576.35 424.70 C 585.31 430.12 595.53 432.89 605.15 436.91 C 613.85 440.61 622.59 444.36 630.64 449.38 C 636.83 453.24 642.97 457.19 649.05 461.23 C 646.91 455.72 648.79 449.97 650.93 444.80 C 654.46 447.04 653.05 451.54 653.21 455.04 C 652.90 458.76 655.40 461.71 657.48 464.48 C 661.78 470.15 662.68 477.49 666.39 483.49 C 669.93 481.95 671.37 478.26 672.75 474.94 C 670.50 474.56 667.81 474.86 666.10 473.06 C 663.81 470.71 664.34 466.74 666.34 464.38 C 668.47 461.91 671.60 460.70 674.41 459.19 C 673.12 456.70 671.38 454.29 671.21 451.41 C 673.57 450.95 674.58 453.69 675.88 455.14 C 676.96 457.01 679.08 459.45 677.53 461.61 C 674.59 464.19 670.25 465.53 669.08 469.68 C 674.81 470.38 680.08 467.68 684.83 464.85 C 687.34 463.31 690.23 462.42 692.53 460.56 C 694.29 458.76 692.75 456.09 691.86 454.24 C 687.05 445.81 678.10 440.94 669.25 437.75 C 662.75 435.35 655.49 434.49 649.89 430.07 C 641.85 423.82 633.83 417.53 625.58 411.56 C 618.29 406.27 609.82 403.04 601.77 399.16 C 595.89 396.36 597.24 388.76 596.44 383.43 C 592.51 383.41 588.59 382.88 584.88 381.59 M 383.56 461.85 C 382.65 473.86 383.33 485.98 385.51 497.83 C 388.08 514.30 392.52 530.69 400.56 545.39 C 410.28 564.03 422.40 581.38 430.98 600.62 C 426.32 580.29 417.54 560.90 415.54 539.99 C 415.63 537.21 414.27 533.10 417.57 531.66 C 419.21 540.95 420.91 550.26 423.79 559.27 C 429.34 576.30 435.30 593.27 438.52 610.94 C 440.96 619.04 442.33 627.48 445.78 635.26 C 449.56 644.53 452.85 654.27 459.16 662.19 C 464.67 663.35 470.33 660.92 475.73 659.78 C 486.87 656.42 498.37 654.51 509.88 652.86 C 517.00 651.80 524.34 650.91 530.87 647.66 C 535.58 645.38 539.57 641.90 543.19 638.18 C 549.93 631.22 556.59 624.12 564.34 618.27 C 559.00 607.00 549.43 598.67 542.89 588.20 C 536.44 577.96 529.47 568.05 523.36 557.60 C 521.56 555.03 522.13 551.87 522.71 549.03 C 516.31 554.87 510.13 561.01 503.08 566.10 C 501.50 567.19 499.98 568.51 498.07 568.97 C 496.68 566.72 498.93 564.88 500.19 563.22 C 509.77 552.39 520.83 542.90 532.76 534.74 C 538.95 530.35 546.67 528.98 554.09 528.50 C 555.88 528.11 557.02 529.31 557.52 530.91 C 553.26 532.52 548.76 533.23 544.44 534.60 C 538.86 536.38 534.45 540.41 529.76 543.73 C 529.24 546.87 528.21 549.90 527.53 553.01 C 527.79 555.68 529.89 557.76 531.13 560.07 C 534.20 556.42 538.17 553.56 542.57 551.74 C 550.79 549.25 559.52 549.71 568.01 549.90 C 571.85 550.24 575.87 549.92 579.53 551.33 C 579.59 551.73 579.73 552.55 579.79 552.95 C 569.63 554.64 559.23 554.73 549.07 556.56 C 543.24 557.29 538.58 561.15 533.65 563.99 C 538.65 571.48 543.69 578.94 548.48 586.57 C 553.75 595.00 561.22 601.95 565.49 611.01 C 568.98 597.68 575.39 583.34 588.65 577.31 C 588.78 579.07 587.93 580.55 586.63 581.65 C 576.67 590.94 572.01 604.29 568.58 617.11 C 570.27 621.56 573.45 625.19 575.81 629.29 C 584.16 620.55 594.83 614.22 606.37 610.69 C 616.89 607.22 627.96 604.98 639.09 605.59 C 636.09 597.32 632.05 589.38 626.60 582.45 C 623.84 578.85 620.56 575.65 618.06 571.85 C 615.71 568.31 615.41 563.94 613.79 560.09 C 611.08 553.34 607.32 546.99 602.60 541.44 C 599.06 537.24 594.69 533.81 591.24 529.53 C 587.41 524.94 585.02 519.39 581.52 514.58 C 577.83 509.20 573.10 504.67 568.57 500.02 C 567.42 501.66 566.50 503.93 564.19 504.10 C 556.84 505.58 549.26 504.60 541.93 503.45 C 519.44 499.62 496.99 494.82 474.10 494.29 C 452.61 493.89 430.80 490.29 411.43 480.59 C 401.31 475.64 392.76 468.21 383.56 461.85 M 683.85 470.77 C 680.77 475.75 677.82 481.85 679.74 487.80 C 681.65 487.67 682.83 485.39 684.32 484.28 C 689.78 478.82 697.06 472.52 695.27 463.87 C 691.48 466.18 687.14 467.72 683.85 470.77 M 673.42 484.24 C 675.31 480.72 676.19 476.76 676.93 472.86 C 675.36 476.51 674.55 480.44 673.42 484.24 M 685.85 489.43 C 690.35 487.86 695.74 486.79 698.66 482.65 C 700.25 480.39 698.42 478.01 697.38 475.99 C 694.12 480.95 690.01 485.23 685.85 489.43 M 670.57 490.55 C 672.45 490.70 674.34 490.79 676.24 490.87 C 675.77 489.38 675.32 487.90 674.87 486.43 C 673.36 487.72 671.91 489.08 670.57 490.55 M 681.34 494.44 C 680.95 496.41 680.54 498.37 680.12 500.34 C 684.60 499.61 689.59 499.30 693.24 496.26 C 694.96 494.96 694.35 492.63 694.54 490.80 C 690.25 492.39 685.87 493.76 681.34 494.44 M 578.20 633.69 C 583.34 644.68 587.34 656.70 586.52 668.98 C 586.30 673.58 584.56 677.88 583.52 682.32 C 583.77 686.21 587.15 688.96 590.38 690.67 C 598.23 694.82 607.20 696.36 615.99 696.84 C 624.13 697.14 632.68 696.69 640.05 692.89 C 642.13 692.12 642.05 689.63 642.69 687.86 C 645.04 677.64 649.12 667.64 648.88 657.00 C 648.75 648.45 647.47 639.51 642.84 632.15 C 637.78 624.78 631.51 618.29 626.95 610.58 C 608.95 613.18 590.62 619.85 578.20 633.69 M 557.41 631.38 C 549.65 638.60 543.17 647.53 533.61 652.55 C 524.02 657.43 513.05 658.01 502.64 659.87 C 504.29 663.54 506.35 667.11 507.21 671.08 C 506.96 674.30 503.13 673.84 500.89 674.62 C 503.18 679.83 506.75 684.45 511.44 687.73 C 524.21 696.99 540.37 700.64 555.97 700.28 C 562.13 695.21 569.84 692.19 575.23 686.18 C 581.74 679.63 582.58 669.55 581.48 660.84 C 579.54 647.42 574.44 634.28 565.91 623.64 C 563.00 626.13 560.15 628.71 557.41 631.38 M 484.11 683.21 C 476.62 689.63 469.49 696.55 463.63 704.52 C 453.08 717.81 445.86 733.27 438.65 748.52 C 435.81 754.65 432.13 760.53 427.03 765.04 C 420.68 770.47 412.81 773.52 405.34 777.05 C 405.03 783.82 404.48 792.03 410.16 796.93 C 416.19 801.13 424.03 800.19 430.99 800.15 C 436.10 799.86 441.12 801.34 445.64 803.63 C 458.11 791.22 472.78 781.37 486.70 770.70 C 493.35 765.36 499.98 759.98 506.46 754.44 C 518.68 744.07 529.80 732.47 540.41 720.48 C 544.55 715.97 547.46 710.55 551.00 705.59 C 538.71 705.33 526.41 702.26 515.61 696.35 C 507.40 691.73 499.26 684.77 497.63 674.97 C 492.89 677.31 488.18 679.80 484.11 683.21 M 571.16 725.27 C 567.88 735.20 565.48 745.49 564.94 755.96 C 564.30 767.53 563.24 779.10 561.23 790.51 C 557.93 806.38 554.12 822.13 550.43 837.91 C 548.88 844.75 548.05 851.74 546.37 858.56 C 544.74 865.54 543.61 873.09 538.73 878.69 C 544.35 880.49 548.36 885.18 553.87 887.22 C 559.29 889.37 565.60 890.80 571.18 888.37 C 578.02 885.61 582.35 879.34 586.76 873.76 C 588.88 870.85 592.30 869.47 595.81 869.24 C 597.92 857.45 602.23 846.23 606.11 834.95 C 613.67 813.14 624.37 792.47 630.41 770.14 C 634.57 753.08 637.74 735.61 637.62 717.99 C 637.62 711.21 638.53 704.47 640.21 697.92 C 631.67 701.68 622.18 702.52 612.95 702.15 C 601.95 701.37 590.29 699.24 581.52 692.06 C 578.04 703.12 575.11 714.36 571.16 725.27 M 380.08 790.05 C 375.29 796.31 370.68 803.77 371.47 811.99 C 373.00 825.65 379.03 838.17 382.85 851.24 C 386.10 861.83 389.50 872.71 396.37 881.61 C 401.29 887.92 406.45 894.29 413.15 898.81 C 418.88 902.36 425.43 904.59 432.10 905.52 C 434.10 905.67 436.70 905.95 437.98 904.01 C 440.30 900.84 439.64 896.65 439.49 892.99 C 438.30 881.66 435.99 870.42 436.07 858.99 C 436.12 847.24 436.24 835.44 437.78 823.78 C 438.45 818.28 440.31 813.02 442.86 808.12 C 438.43 806.48 433.73 805.52 428.98 805.96 C 421.23 806.22 412.27 806.32 406.13 800.81 C 399.88 794.64 399.68 785.05 401.24 776.95 C 392.95 778.78 385.31 783.30 380.08 790.05 M 587.59 881.58 C 581.04 889.78 570.76 895.95 559.95 894.55 C 550.25 893.92 542.49 887.63 534.89 882.27 C 531.96 885.32 529.02 888.59 527.75 892.73 C 524.51 902.79 523.88 913.51 524.22 924.01 C 524.53 928.13 524.52 933.12 528.29 935.77 C 537.21 942.88 549.24 942.22 559.70 945.32 C 576.46 949.30 591.55 959.19 609.03 960.26 C 623.87 961.12 638.97 958.51 652.71 952.85 C 656.14 951.42 660.90 948.61 659.07 944.16 C 655.43 934.10 645.47 928.56 637.01 923.01 C 624.48 915.67 613.20 906.27 603.47 895.51 C 598.26 889.77 595.63 882.18 595.09 874.53 C 592.13 876.35 589.67 878.82 587.59 881.58 Z" />
        <path fill="#020202" opacity="1.00"
            d=" M 548.94 166.26 C 551.61 165.77 552.95 168.36 554.59 169.91 C 559.13 169.57 563.67 168.88 568.24 169.09 C 568.30 171.32 568.35 173.56 568.40 175.79 C 563.99 176.46 559.59 177.15 555.20 177.85 C 553.04 174.02 550.79 170.25 548.94 166.26 Z" />
        <path fill="#020202" opacity="1.00"
            d=" M 537.38 178.94 C 539.39 177.47 541.79 178.82 543.88 179.40 C 550.36 181.82 556.97 183.95 563.33 186.70 C 564.79 187.09 565.34 188.49 565.95 189.73 C 565.03 189.79 563.20 189.92 562.28 189.98 C 560.98 190.86 559.78 192.58 557.99 192.09 C 552.72 191.21 547.80 188.95 542.84 187.06 C 539.28 186.07 538.23 182.07 537.38 178.94 Z" />
        <path fill="#020202" opacity="1.00"
            d=" M 477.08 233.01 C 479.16 229.67 480.53 225.66 483.94 223.38 C 483.99 226.09 483.58 228.83 482.19 231.20 C 477.13 240.74 471.53 250.22 463.69 257.76 C 459.87 261.37 455.79 265.09 450.55 266.41 C 451.76 262.94 454.97 260.96 457.51 258.56 C 465.50 251.29 471.58 242.23 477.08 233.01 Z" />
        <path fill="#020202" opacity="1.00"
            d=" M 502.85 256.22 C 501.94 253.04 501.94 249.71 502.94 246.56 C 507.80 258.50 510.45 271.23 511.93 284.00 C 513.79 301.34 515.95 318.98 522.85 335.16 C 526.46 343.61 530.07 352.08 533.27 360.70 C 534.78 364.98 537.03 369.31 536.33 374.01 C 532.88 370.85 531.65 366.23 529.80 362.11 C 525.44 351.57 520.03 341.48 516.23 330.71 C 511.11 315.84 509.12 300.13 507.72 284.53 C 506.77 274.99 505.28 265.50 502.85 256.22 Z" />
        <path fill="#020202" opacity="1.00"
            d=" M 444.37 323.91 C 449.31 327.37 451.77 333.07 455.17 337.85 C 465.69 352.94 473.28 369.87 484.60 384.43 C 493.75 398.08 507.11 408.29 515.74 422.34 C 520.16 429.63 525.50 436.73 527.63 445.10 C 527.21 445.36 526.37 445.89 525.96 446.15 C 523.36 443.25 521.62 439.72 519.52 436.47 C 514.16 428.00 508.53 419.64 501.79 412.20 C 496.77 406.54 491.11 401.46 486.36 395.57 C 478.17 385.19 470.60 374.30 464.41 362.61 C 458.73 352.29 453.21 341.88 447.19 331.75 C 445.69 329.37 444.70 326.70 444.37 323.91 Z" />
        <path fill="#020202" opacity="1.00"
            d=" M 415.79 460.77 C 419.63 460.13 423.36 461.67 427.08 462.39 C 439.28 464.98 451.45 468.33 464.01 468.41 C 487.99 469.55 512.02 463.61 535.91 467.61 C 540.12 468.68 545.93 469.26 547.34 474.20 C 529.17 470.25 510.51 472.30 492.22 474.19 C 473.04 476.15 453.17 476.82 434.62 470.67 C 428.22 468.30 421.29 466.83 415.52 463.07 C 415.59 462.50 415.72 461.35 415.79 460.77 Z" />
        <path fill="#020202" opacity="1.00"
            d=" M 423.12 494.11 C 433.34 498.39 442.09 505.56 452.36 509.79 C 460.86 513.30 469.80 516.09 479.02 516.77 C 488.03 517.22 497.00 515.59 506.02 516.18 C 509.85 516.52 514.02 515.85 517.53 517.75 C 517.54 518.18 517.55 519.03 517.55 519.46 C 506.67 520.23 495.85 521.80 484.94 522.20 C 473.35 522.63 462.05 519.18 451.52 514.65 C 443.18 511.03 435.89 505.53 428.41 500.48 C 426.24 498.76 423.22 497.28 423.12 494.11 Z" />
    </g>
    <g id="#f0b58bff">
        <path fill="#f0b58b" opacity="1.00"
            d=" M 556.67 96.18 C 561.68 107.91 573.08 115.13 584.48 119.70 C 586.45 120.31 588.66 121.87 590.66 120.56 C 590.92 118.42 590.33 116.32 589.99 114.23 C 593.81 115.16 597.68 117.55 601.68 116.69 C 601.82 116.27 602.11 115.44 602.26 115.02 C 600.28 108.61 596.09 103.14 592.93 97.27 C 596.79 98.66 600.65 100.06 604.30 101.96 C 603.49 109.76 603.73 118.57 609.15 124.81 C 612.48 128.47 615.57 132.66 620.22 134.74 C 619.03 137.64 617.77 140.52 616.42 143.36 C 605.99 140.64 595.62 137.71 585.13 135.28 C 582.96 134.94 580.44 133.90 578.50 135.42 C 572.37 138.96 570.99 146.46 569.83 152.83 C 569.07 157.88 567.18 162.89 567.79 168.04 C 568.33 167.98 569.42 167.86 569.96 167.80 C 573.80 162.83 574.56 156.32 575.48 150.30 C 586.37 153.13 597.31 155.78 608.24 158.48 C 599.77 171.67 591.77 185.46 580.35 196.38 C 574.00 201.98 566.58 206.36 558.85 209.77 C 551.47 212.49 542.47 213.13 535.81 208.30 C 531.32 204.76 527.90 200.08 524.43 195.58 C 519.24 188.63 514.44 180.87 513.39 172.08 C 512.30 159.51 512.41 146.87 512.96 134.27 C 523.70 136.33 534.45 138.30 545.18 140.37 C 546.93 140.56 549.32 141.44 550.50 139.59 C 552.60 136.30 554.21 132.67 555.24 128.91 C 555.12 126.64 552.64 126.25 550.91 125.82 C 538.46 123.04 526.07 119.96 513.47 117.93 C 516.37 112.14 520.38 106.99 525.09 102.56 C 525.31 103.26 525.74 104.65 525.96 105.35 C 531.35 104.48 535.79 101.06 540.84 99.21 C 538.74 102.61 535.84 106.24 536.45 110.49 C 537.86 111.72 539.37 110.51 540.65 109.74 C 546.43 105.79 552.47 101.91 556.67 96.18 M 548.94 166.26 C 550.79 170.25 553.04 174.02 555.20 177.85 C 559.59 177.15 563.99 176.46 568.40 175.79 C 568.35 173.56 568.30 171.32 568.24 169.09 C 563.67 168.88 559.13 169.57 554.59 169.91 C 552.95 168.36 551.61 165.77 548.94 166.26 M 537.38 178.94 C 538.23 182.07 539.28 186.07 542.84 187.06 C 547.80 188.95 552.72 191.21 557.99 192.09 C 559.78 192.58 560.98 190.86 562.28 189.98 C 563.20 189.92 565.03 189.79 565.95 189.73 C 565.34 188.49 564.79 187.09 563.33 186.70 C 556.97 183.95 550.36 181.82 543.88 179.40 C 541.79 178.82 539.39 177.47 537.38 178.94 Z" />
        <path fill="#f0b58b" opacity="1.00"
            d=" M 519.18 213.73 C 517.13 205.30 516.03 196.68 514.07 188.23 C 518.39 195.86 523.69 202.93 529.75 209.27 C 534.56 214.65 542.02 216.92 549.07 216.78 C 554.35 216.52 559.48 214.96 564.28 212.79 C 554.16 225.73 552.90 242.66 548.09 257.81 C 540.47 253.32 535.44 245.62 530.71 238.36 C 525.97 230.63 521.30 222.64 519.18 213.73 Z" />
        <path fill="#f0b58b" opacity="1.00"
            d=" M 359.36 284.24 C 360.92 283.02 362.73 284.25 364.30 284.80 C 371.27 288.02 376.44 293.90 381.59 299.39 C 387.55 305.79 392.65 312.94 396.88 320.59 C 392.26 321.77 388.01 324.18 385.03 327.95 C 381.20 324.42 378.02 320.27 374.34 316.60 C 373.31 315.44 371.80 315.07 370.31 315.22 C 369.83 316.35 369.93 317.41 370.63 318.42 C 375.27 325.27 380.60 331.75 387.34 336.65 C 398.90 346.67 412.54 353.71 425.73 361.26 C 439.52 369.42 453.33 377.87 465.08 388.88 C 476.27 399.53 486.58 411.36 493.95 425.02 C 495.92 428.53 497.19 432.36 498.35 436.19 C 492.57 429.07 487.92 421.03 481.38 414.53 C 479.77 412.38 475.26 410.40 474.39 414.11 C 474.00 416.44 475.47 418.56 476.43 420.57 C 482.11 430.58 488.13 440.64 490.86 451.93 C 482.05 442.09 478.60 428.83 470.36 418.60 C 469.13 417.13 467.37 415.35 465.27 416.23 C 463.01 417.79 464.32 420.83 465.07 422.89 C 469.13 432.54 474.71 441.64 477.16 451.92 C 470.15 442.35 466.32 430.90 459.71 421.09 C 458.66 419.21 455.65 421.03 456.32 422.98 C 457.75 430.31 461.92 436.95 462.28 444.54 C 455.27 437.34 451.18 427.96 446.85 419.04 C 443.41 411.86 436.89 406.77 433.34 399.66 C 431.70 396.42 429.33 393.50 426.06 391.82 C 414.72 385.46 402.42 381.12 390.27 376.64 C 377.59 371.10 364.68 365.70 353.44 357.51 C 344.60 351.21 337.24 342.52 333.76 332.14 C 331.49 325.78 330.24 318.46 333.07 312.08 C 335.49 306.01 340.13 301.24 344.60 296.63 C 349.22 292.18 353.67 287.35 359.36 284.24 Z" />
        <path fill="#f0b58b" opacity="1.00"
            d=" M 584.88 381.59 C 588.59 382.88 592.51 383.41 596.44 383.43 C 597.24 388.76 595.89 396.36 601.77 399.16 C 609.82 403.04 618.29 406.27 625.58 411.56 C 633.83 417.53 641.85 423.82 649.89 430.07 C 655.49 434.49 662.75 435.35 669.25 437.75 C 678.10 440.94 687.05 445.81 691.86 454.24 C 692.75 456.09 694.29 458.76 692.53 460.56 C 690.23 462.42 687.34 463.31 684.83 464.85 C 680.08 467.68 674.81 470.38 669.08 469.68 C 670.25 465.53 674.59 464.19 677.53 461.61 C 679.08 459.45 676.96 457.01 675.88 455.14 C 674.58 453.69 673.57 450.95 671.21 451.41 C 671.38 454.29 673.12 456.70 674.41 459.19 C 671.60 460.70 668.47 461.91 666.34 464.38 C 664.34 466.74 663.81 470.71 666.10 473.06 C 667.81 474.86 670.50 474.56 672.75 474.94 C 671.37 478.26 669.93 481.95 666.39 483.49 C 662.68 477.49 661.78 470.15 657.48 464.48 C 655.40 461.71 652.90 458.76 653.21 455.04 C 653.05 451.54 654.46 447.04 650.93 444.80 C 648.79 449.97 646.91 455.72 649.05 461.23 C 642.97 457.19 636.83 453.24 630.64 449.38 C 622.59 444.36 613.85 440.61 605.15 436.91 C 595.53 432.89 585.31 430.12 576.35 424.70 C 573.05 423.02 571.32 418.90 572.63 415.41 C 575.96 403.87 581.00 392.93 584.88 381.59 Z" />
        <path fill="#f0b58b" opacity="1.00"
            d=" M 683.85 470.77 C 687.14 467.72 691.48 466.18 695.27 463.87 C 697.06 472.52 689.78 478.82 684.32 484.28 C 682.83 485.39 681.65 487.67 679.74 487.80 C 677.82 481.85 680.77 475.75 683.85 470.77 Z" />
        <path fill="#f0b58b" opacity="1.00"
            d=" M 685.85 489.43 C 690.01 485.23 694.12 480.95 697.38 475.99 C 698.42 478.01 700.25 480.39 698.66 482.65 C 695.74 486.79 690.35 487.86 685.85 489.43 Z" />
        <path fill="#f0b58b" opacity="1.00"
            d=" M 670.57 490.55 C 671.91 489.08 673.36 487.72 674.87 486.43 C 675.32 487.90 675.77 489.38 676.24 490.87 C 674.34 490.79 672.45 490.70 670.57 490.55 Z" />
        <path fill="#f0b58b" opacity="1.00"
            d=" M 681.34 494.44 C 685.87 493.76 690.25 492.39 694.54 490.80 C 694.35 492.63 694.96 494.96 693.24 496.26 C 689.59 499.30 684.60 499.61 680.12 500.34 C 680.54 498.37 680.95 496.41 681.34 494.44 Z" />
        <path fill="#f0b58b" opacity="1.00"
            d=" M 578.20 633.69 C 590.62 619.85 608.95 613.18 626.95 610.58 C 631.51 618.29 637.78 624.78 642.84 632.15 C 647.47 639.51 648.75 648.45 648.88 657.00 C 649.12 667.64 645.04 677.64 642.69 687.86 C 642.05 689.63 642.13 692.12 640.05 692.89 C 632.68 696.69 624.13 697.14 615.99 696.84 C 607.20 696.36 598.23 694.82 590.38 690.67 C 587.15 688.96 583.77 686.21 583.52 682.32 C 584.56 677.88 586.30 673.58 586.52 668.98 C 587.34 656.70 583.34 644.68 578.20 633.69 Z" />
        <path fill="#f0b58b" opacity="1.00"
            d=" M 557.41 631.38 C 560.15 628.71 563.00 626.13 565.91 623.64 C 574.44 634.28 579.54 647.42 581.48 660.84 C 582.58 669.55 581.74 679.63 575.23 686.18 C 569.84 692.19 562.13 695.21 555.97 700.28 C 540.37 700.64 524.21 696.99 511.44 687.73 C 506.75 684.45 503.18 679.83 500.89 674.62 C 503.13 673.84 506.96 674.30 507.21 671.08 C 506.35 667.11 504.29 663.54 502.64 659.87 C 513.05 658.01 524.02 657.43 533.61 652.55 C 543.17 647.53 549.65 638.60 557.41 631.38 Z" />
    </g>
    <g id="#f11b27ff">
        <path fill="var(--shirt-color, grey)" opacity="1.00"
            d=" M 466.73 187.60 C 470.82 185.18 474.62 182.11 479.17 180.61 C 486.19 178.89 492.64 182.96 499.13 184.87 C 502.36 185.98 505.76 185.24 509.02 184.72 C 509.87 192.89 511.48 200.95 512.96 209.03 C 514.30 216.23 516.59 223.28 520.16 229.70 C 525.19 238.72 530.44 247.79 537.64 255.29 C 540.65 258.46 544.17 262.20 548.91 262.06 C 553.35 261.08 554.02 255.77 555.12 252.11 C 559.12 236.25 561.75 218.08 575.32 207.17 C 583.15 213.78 591.19 220.30 597.51 228.44 C 601.71 234.04 604.00 240.98 604.07 247.98 C 604.23 253.62 604.43 259.29 603.51 264.89 C 601.90 280.88 603.30 297.05 601.20 313.01 C 599.90 323.26 596.76 333.12 593.26 342.80 C 593.71 326.53 585.53 311.85 583.07 296.05 C 581.73 290.13 582.53 283.89 580.60 278.10 C 577.00 288.10 578.87 299.01 581.22 309.08 C 583.64 319.96 587.91 330.62 587.60 341.93 C 587.39 348.03 587.60 354.41 585.14 360.13 C 582.29 367.18 580.62 374.64 577.95 381.76 C 574.03 392.39 569.61 402.87 566.96 413.92 C 564.80 421.43 563.78 429.33 560.35 436.42 C 559.16 438.96 557.86 441.46 556.61 443.97 C 554.91 438.34 553.32 432.69 551.87 426.99 C 551.10 424.33 550.51 421.51 548.83 419.25 C 548.45 419.24 547.68 419.24 547.29 419.23 C 546.76 423.37 548.00 427.42 548.79 431.43 C 550.18 437.46 550.81 443.74 553.43 449.42 C 555.90 455.64 560.13 460.94 562.89 467.01 C 564.84 470.89 562.72 475.10 562.13 479.04 C 560.76 485.26 563.72 491.18 565.02 497.14 C 559.39 499.77 553.02 498.51 547.10 497.85 C 529.14 494.74 511.22 491.26 493.10 489.25 C 477.37 487.63 461.44 488.50 445.82 485.69 C 422.30 481.96 399.60 471.32 383.02 454.02 C 380.14 451.03 379.39 446.78 378.56 442.87 C 376.14 427.65 379.94 412.11 376.88 396.93 C 375.54 390.10 375.08 383.13 375.49 376.19 C 391.87 382.42 408.95 387.13 424.37 395.65 C 427.23 397.12 428.83 400.02 430.28 402.76 C 433.82 409.62 440.22 414.53 443.45 421.60 C 447.16 429.56 451.10 437.52 456.50 444.49 C 458.19 446.39 460.14 448.87 462.99 448.60 C 465.76 447.71 465.73 444.39 466.45 442.07 C 469.04 447.38 471.55 453.13 476.18 457.00 C 478.37 458.76 481.17 456.41 481.30 454.00 C 481.67 449.35 479.49 445.02 478.01 440.75 C 481.21 446.43 484.43 452.40 489.47 456.69 C 492.03 459.28 496.24 456.41 495.53 453.08 C 494.18 442.53 488.32 433.33 483.51 424.06 C 488.62 429.89 491.83 437.46 498.13 442.19 C 500.73 444.01 503.35 440.69 502.65 438.13 C 501.21 426.28 494.44 415.89 487.62 406.40 C 476.43 391.67 462.82 378.77 447.37 368.58 C 432.85 358.67 417.32 350.40 402.31 341.29 C 406.58 341.00 411.02 340.76 414.93 338.79 C 420.77 335.92 424.63 330.37 427.98 324.99 C 434.15 314.70 438.59 303.51 443.52 292.61 C 445.89 287.19 449.74 282.34 450.65 276.36 C 445.41 279.37 443.26 285.30 440.21 290.17 C 433.91 300.62 430.05 312.31 423.81 322.80 C 420.40 328.94 415.62 334.75 408.63 336.83 C 405.40 322.11 396.83 309.16 387.17 297.85 C 379.91 289.85 371.89 281.29 360.86 278.99 C 377.53 267.97 396.81 261.13 412.21 248.16 C 413.64 247.15 414.25 245.51 414.70 243.89 C 409.77 245.91 405.56 249.23 401.03 251.98 C 389.20 259.37 376.29 264.81 364.26 271.84 C 371.36 261.81 378.46 251.77 386.05 242.10 C 394.56 231.37 404.18 221.53 414.47 212.51 C 421.44 206.34 428.85 200.59 436.99 196.06 C 445.86 191.19 456.53 188.79 466.47 191.46 C 470.21 192.52 473.94 193.74 477.85 193.98 C 475.31 190.22 470.65 189.27 466.73 187.60 M 477.08 233.01 C 471.58 242.23 465.50 251.29 457.51 258.56 C 454.97 260.96 451.76 262.94 450.55 266.41 C 455.79 265.09 459.87 261.37 463.69 257.76 C 471.53 250.22 477.13 240.74 482.19 231.20 C 483.58 228.83 483.99 226.09 483.94 223.38 C 480.53 225.66 479.16 229.67 477.08 233.01 M 502.85 256.22 C 505.28 265.50 506.77 274.99 507.72 284.53 C 509.12 300.13 511.11 315.84 516.23 330.71 C 520.03 341.48 525.44 351.57 529.80 362.11 C 531.65 366.23 532.88 370.85 536.33 374.01 C 537.03 369.31 534.78 364.98 533.27 360.70 C 530.07 352.08 526.46 343.61 522.85 335.16 C 515.95 318.98 513.79 301.34 511.93 284.00 C 510.45 271.23 507.80 258.50 502.94 246.56 C 501.94 249.71 501.94 253.04 502.85 256.22 M 444.37 323.91 C 444.70 326.70 445.69 329.37 447.19 331.75 C 453.21 341.88 458.73 352.29 464.41 362.61 C 470.60 374.30 478.17 385.19 486.36 395.57 C 491.11 401.46 496.77 406.54 501.79 412.20 C 508.53 419.64 514.16 428.00 519.52 436.47 C 521.62 439.72 523.36 443.25 525.96 446.15 C 526.37 445.89 527.21 445.36 527.63 445.10 C 525.50 436.73 520.16 429.63 515.74 422.34 C 507.11 408.29 493.75 398.08 484.60 384.43 C 473.28 369.87 465.69 352.94 455.17 337.85 C 451.77 333.07 449.31 327.37 444.37 323.91 M 415.79 460.77 C 415.72 461.35 415.59 462.50 415.52 463.07 C 421.29 466.83 428.22 468.30 434.62 470.67 C 453.17 476.82 473.04 476.15 492.22 474.19 C 510.51 472.30 529.17 470.25 547.34 474.20 C 545.93 469.26 540.12 468.68 535.91 467.61 C 512.02 463.61 487.99 469.55 464.01 468.41 C 451.45 468.33 439.28 464.98 427.08 462.39 C 423.36 461.67 419.63 460.13 415.79 460.77 Z" />
        <path fill="var(--shirt-color, grey)" opacity="1.00"
            d=" M 605.84 322.77 C 609.75 304.95 608.24 286.60 608.22 268.53 C 614.26 280.71 618.73 293.69 621.23 307.07 C 623.61 319.60 622.39 332.54 625.16 345.01 C 626.72 352.72 632.96 358.53 634.02 366.40 C 626.80 371.36 618.67 375.28 609.93 376.54 C 602.12 377.59 594.21 377.69 586.35 377.15 C 588.67 369.24 591.12 361.32 594.94 353.99 C 600.02 344.15 603.63 333.60 605.84 322.77 Z" />
        <path fill="var(--shirt-color, grey)" opacity="1.00"
            d=" M 389.04 331.13 C 391.55 327.94 394.81 325.48 398.67 324.17 C 400.51 328.55 402.15 333.01 404.11 337.33 C 402.02 337.52 399.93 337.72 397.85 337.94 C 394.85 335.74 391.90 333.49 389.04 331.13 Z" />
    </g>
    <g id="#ffffffff">
        <path fill="var(--pants-color, grey)" opacity="1.00"
            d=" M 383.56 461.85 C 392.76 468.21 401.31 475.64 411.43 480.59 C 430.80 490.29 452.61 493.89 474.10 494.29 C 496.99 494.82 519.44 499.62 541.93 503.45 C 549.26 504.60 556.84 505.58 564.19 504.10 C 566.50 503.93 567.42 501.66 568.57 500.02 C 573.10 504.67 577.83 509.20 581.52 514.58 C 585.02 519.39 587.41 524.94 591.24 529.53 C 594.69 533.81 599.06 537.24 602.60 541.44 C 607.32 546.99 611.08 553.34 613.79 560.09 C 615.41 563.94 615.71 568.31 618.06 571.85 C 620.56 575.65 623.84 578.85 626.60 582.45 C 632.05 589.38 636.09 597.32 639.09 605.59 C 627.96 604.98 616.89 607.22 606.37 610.69 C 594.83 614.22 584.16 620.55 575.81 629.29 C 573.45 625.19 570.27 621.56 568.58 617.11 C 572.01 604.29 576.67 590.94 586.63 581.65 C 587.93 580.55 588.78 579.07 588.65 577.31 C 575.39 583.34 568.98 597.68 565.49 611.01 C 561.22 601.95 553.75 595.00 548.48 586.57 C 543.69 578.94 538.65 571.48 533.65 563.99 C 538.58 561.15 543.24 557.29 549.07 556.56 C 559.23 554.73 569.63 554.64 579.79 552.95 C 579.73 552.55 579.59 551.73 579.53 551.33 C 575.87 549.92 571.85 550.24 568.01 549.90 C 559.52 549.71 550.79 549.25 542.57 551.74 C 538.17 553.56 534.20 556.42 531.13 560.07 C 529.89 557.76 527.79 555.68 527.53 553.01 C 528.21 549.90 529.24 546.87 529.76 543.73 C 534.45 540.41 538.86 536.38 544.44 534.60 C 548.76 533.23 553.26 532.52 557.52 530.91 C 557.02 529.31 555.88 528.11 554.09 528.50 C 546.67 528.98 538.95 530.35 532.76 534.74 C 520.83 542.90 509.77 552.39 500.19 563.22 C 498.93 564.88 496.68 566.72 498.07 568.97 C 499.98 568.51 501.50 567.19 503.08 566.10 C 510.13 561.01 516.31 554.87 522.71 549.03 C 522.13 551.87 521.56 555.03 523.36 557.60 C 529.47 568.05 536.44 577.96 542.89 588.20 C 549.43 598.67 559.00 607.00 564.34 618.27 C 556.59 624.12 549.93 631.22 543.19 638.18 C 539.57 641.90 535.58 645.38 530.87 647.66 C 524.34 650.91 517.00 651.80 509.88 652.86 C 498.37 654.51 486.87 656.42 475.73 659.78 C 470.33 660.92 464.67 663.35 459.16 662.19 C 452.85 654.27 449.56 644.53 445.78 635.26 C 442.33 627.48 440.96 619.04 438.52 610.94 C 435.30 593.27 429.34 576.30 423.79 559.27 C 420.91 550.26 419.21 540.95 417.57 531.66 C 414.27 533.10 415.63 537.21 415.54 539.99 C 417.54 560.90 426.32 580.29 430.98 600.62 C 422.40 581.38 410.28 564.03 400.56 545.39 C 392.52 530.69 388.08 514.30 385.51 497.83 C 383.33 485.98 382.65 473.86 383.56 461.85 M 423.12 494.11 C 423.22 497.28 426.24 498.76 428.41 500.48 C 435.89 505.53 443.18 511.03 451.52 514.65 C 462.05 519.18 473.35 522.63 484.94 522.20 C 495.85 521.80 506.67 520.23 517.55 519.46 C 517.55 519.03 517.54 518.18 517.53 517.75 C 514.02 515.85 509.85 516.52 506.02 516.18 C 497.00 515.59 488.03 517.22 479.02 516.77 C 469.80 516.09 460.86 513.30 452.36 509.79 C 442.09 505.56 433.34 498.39 423.12 494.11 Z" />
        <path fill="var(--socks-color, grey)" opacity="1.00"
            d=" M 484.11 683.21 C 488.18 679.80 492.89 677.31 497.63 674.97 C 499.26 684.77 507.40 691.73 515.61 696.35 C 526.41 702.26 538.71 705.33 551.00 705.59 C 547.46 710.55 544.55 715.97 540.41 720.48 C 529.80 732.47 518.68 744.07 506.46 754.44 C 499.98 759.98 493.35 765.36 486.70 770.70 C 472.78 781.37 458.11 791.22 445.64 803.63 C 441.12 801.34 436.10 799.86 430.99 800.15 C 424.03 800.19 416.19 801.13 410.16 796.93 C 404.48 792.03 405.03 783.82 405.34 777.05 C 412.81 773.52 420.68 770.47 427.03 765.04 C 432.13 760.53 435.81 754.65 438.65 748.52 C 445.86 733.27 453.08 717.81 463.63 704.52 C 469.49 696.55 476.62 689.63 484.11 683.21 Z" />
        <path fill="var(--socks-color, grey)" opacity="1.00"
            d=" M 571.16 725.27 C 575.11 714.36 578.04 703.12 581.52 692.06 C 590.29 699.24 601.95 701.37 612.95 702.15 C 622.18 702.52 631.67 701.68 640.21 697.92 C 638.53 704.47 637.62 711.21 637.62 717.99 C 637.74 735.61 634.57 753.08 630.41 770.14 C 624.37 792.47 613.67 813.14 606.11 834.95 C 602.23 846.23 597.92 857.45 595.81 869.24 C 592.30 869.47 588.88 870.85 586.76 873.76 C 582.35 879.34 578.02 885.61 571.18 888.37 C 565.60 890.80 559.29 889.37 553.87 887.22 C 548.36 885.18 544.35 880.49 538.73 878.69 C 543.61 873.09 544.74 865.54 546.37 858.56 C 548.05 851.74 548.88 844.75 550.43 837.91 C 554.12 822.13 557.93 806.38 561.23 790.51 C 563.24 779.10 564.30 767.53 564.94 755.96 C 565.48 745.49 567.88 735.20 571.16 725.27 Z" />
    </g>
    <g id="#4d4d4dff">
        <path fill="#4d4d4d" opacity="1.00"
            d=" M 380.08 790.05 C 385.31 783.30 392.95 778.78 401.24 776.95 C 399.68 785.05 399.88 794.64 406.13 800.81 C 412.27 806.32 421.23 806.22 428.98 805.96 C 433.73 805.52 438.43 806.48 442.86 808.12 C 440.31 813.02 438.45 818.28 437.78 823.78 C 436.24 835.44 436.12 847.24 436.07 858.99 C 435.99 870.42 438.30 881.66 439.49 892.99 C 439.64 896.65 440.30 900.84 437.98 904.01 C 436.70 905.95 434.10 905.67 432.10 905.52 C 425.43 904.59 418.88 902.36 413.15 898.81 C 406.45 894.29 401.29 887.92 396.37 881.61 C 389.50 872.71 386.10 861.83 382.85 851.24 C 379.03 838.17 373.00 825.65 371.47 811.99 C 370.68 803.77 375.29 796.31 380.08 790.05 Z" />
        <path fill="#4d4d4d" opacity="1.00"
            d=" M 587.59 881.58 C 589.67 878.82 592.13 876.35 595.09 874.53 C 595.63 882.18 598.26 889.77 603.47 895.51 C 613.20 906.27 624.48 915.67 637.01 923.01 C 645.47 928.56 655.43 934.10 659.07 944.16 C 660.90 948.61 656.14 951.42 652.71 952.85 C 638.97 958.51 623.87 961.12 609.03 960.26 C 591.55 959.19 576.46 949.30 559.70 945.32 C 549.24 942.22 537.21 942.88 528.29 935.77 C 524.52 933.12 524.53 928.13 524.22 924.01 C 523.88 913.51 524.51 902.79 527.75 892.73 C 529.02 888.59 531.96 885.32 534.89 882.27 C 542.49 887.63 550.25 893.92 559.95 894.55 C 570.76 895.95 581.04 889.78 587.59 881.58 Z" />
    </g>
</svg>