<?xml version="1.0" encoding="UTF-8" ?>
<!DOCTYPE svg PUBLIC "-//W3C//DTD SVG 1.1//EN" "http://www.w3.org/Graphics/SVG/1.1/DTD/svg11.dtd">
<svg width="1000pt" height="1000pt" viewBox="0 0 1000 1000" version="1.1" xmlns="http://www.w3.org/2000/svg">
    <g id="#020202ff">
        <path fill="#020202" opacity="1.00"
            d=" M 450.18 34.30 C 453.04 33.58 456.08 31.58 458.92 33.46 C 457.96 36.00 456.74 38.44 455.15 40.63 C 461.01 41.45 466.03 44.83 470.66 48.29 C 476.05 52.38 480.29 57.94 482.70 64.26 C 485.05 69.78 485.95 76.20 490.34 80.63 C 493.09 83.48 496.04 86.73 496.00 90.96 C 495.83 102.24 491.03 114.79 480.29 119.92 C 479.52 128.58 479.77 137.46 482.37 145.81 C 484.00 151.48 486.81 156.71 488.85 162.24 C 490.03 165.39 490.45 169.01 489.14 172.19 C 487.68 175.54 484.17 177.41 482.57 180.66 C 478.73 190.20 480.03 201.42 474.24 210.23 C 469.99 217.01 461.66 220.10 453.92 219.86 C 447.70 219.97 441.57 217.51 435.35 218.59 C 433.73 220.29 434.07 222.89 433.82 225.06 C 433.88 229.17 432.91 233.81 435.64 237.32 C 439.72 243.56 443.34 250.15 448.21 255.83 C 452.84 261.27 460.25 263.83 463.99 270.09 C 466.49 274.99 462.80 280.03 462.01 284.90 C 467.41 288.80 471.99 293.65 476.52 298.49 C 481.94 303.96 486.53 310.34 488.95 317.71 C 510.82 317.02 532.83 319.73 554.58 316.36 C 566.97 314.32 579.46 313.00 591.97 311.91 C 596.63 311.50 601.54 311.89 605.65 314.34 C 612.69 318.46 618.93 323.81 626.02 327.85 C 629.88 330.17 634.57 332.32 636.08 336.94 C 637.90 342.43 637.88 348.34 637.68 354.06 C 637.94 357.53 633.80 358.09 631.60 359.68 C 628.67 361.84 625.24 363.05 621.68 363.66 C 618.74 366.71 614.59 367.75 610.48 367.64 C 605.30 374.32 595.66 370.63 590.65 365.65 C 583.94 363.91 577.67 360.87 571.03 358.91 C 564.23 356.85 557.88 353.54 551.06 351.57 C 539.26 352.33 527.47 353.83 515.79 355.74 C 501.61 357.97 487.35 359.62 473.09 361.22 C 474.18 366.76 474.80 372.37 474.98 378.01 C 475.50 387.57 473.65 397.18 475.24 406.69 C 476.07 411.86 477.07 417.08 479.15 421.91 C 482.13 429.03 486.84 435.33 489.23 442.71 C 492.07 451.05 491.56 460.15 494.80 468.38 C 497.48 475.77 504.00 480.95 506.70 488.34 C 508.43 492.51 508.48 497.11 507.99 501.54 C 512.33 504.57 516.66 508.11 518.77 513.12 C 520.83 518.06 521.75 523.56 525.09 527.91 C 530.69 535.32 537.81 541.83 541.38 550.61 C 544.15 556.65 543.98 564.11 548.95 569.03 C 555.10 575.26 561.91 580.98 566.51 588.55 C 573.69 600.06 584.53 608.81 591.22 620.66 C 593.39 624.27 593.62 628.62 595.52 632.35 C 602.49 645.33 610.89 657.54 616.86 671.05 C 620.81 679.93 624.40 689.21 625.05 699.00 C 625.71 714.52 622.72 729.84 620.16 745.07 C 617.54 766.14 615.84 787.33 612.31 808.28 C 609.67 823.53 607.74 838.88 605.08 854.12 C 602.34 871.78 599.71 889.75 592.88 906.38 C 596.04 916.60 604.04 924.17 611.64 931.26 C 622.12 940.25 634.40 946.76 646.18 953.85 C 652.38 957.57 659.05 960.67 664.57 965.42 C 668.15 968.44 669.98 974.08 667.17 978.21 C 664.28 982.46 658.74 983.35 654.00 983.90 C 641.53 984.74 629.00 985.23 616.53 984.17 C 608.03 983.31 599.51 984.26 591.00 984.11 C 574.54 983.66 558.03 983.37 541.70 981.11 C 535.74 979.95 529.54 978.21 524.89 974.14 C 520.05 969.54 519.09 962.33 519.84 955.99 C 521.61 938.53 525.99 920.72 536.43 906.29 C 530.68 892.99 530.34 877.98 532.42 863.84 C 534.09 852.89 536.30 842.00 536.96 830.94 C 537.42 823.96 536.81 816.99 536.84 810.01 C 536.55 791.08 537.64 772.00 541.92 753.50 C 527.26 764.59 510.03 772.05 491.99 775.49 C 480.52 777.59 469.29 780.74 457.91 783.28 C 434.46 788.11 410.57 790.27 387.02 794.53 C 373.35 797.06 359.29 802.03 349.99 812.87 C 347.49 817.21 346.23 822.12 344.64 826.83 C 342.08 835.22 339.17 843.53 337.53 852.16 C 335.68 861.35 334.44 870.66 332.60 879.85 C 331.55 885.10 328.98 890.56 323.83 892.88 C 319.25 895.53 313.78 893.87 309.31 891.85 C 298.86 886.86 290.53 878.15 284.80 868.20 C 281.80 862.89 280.64 856.82 279.53 850.89 C 277.24 836.37 275.91 821.69 275.77 806.99 C 275.55 795.33 274.94 783.57 276.91 772.02 C 277.99 764.98 279.90 757.86 284.07 751.99 C 287.58 747.17 293.38 744.75 298.93 743.15 C 307.77 740.65 317.01 741.96 326.03 741.01 C 333.81 740.46 341.24 737.86 348.98 736.97 C 367.59 733.75 386.99 732.68 404.29 724.38 C 417.67 718.53 431.07 712.63 444.91 707.94 C 453.37 705.10 462.29 703.58 471.22 703.82 C 464.03 697.62 456.63 691.44 451.12 683.62 C 439.86 687.08 427.20 690.11 415.90 685.14 C 408.17 681.37 401.49 675.41 396.83 668.19 C 390.03 657.34 385.39 645.34 380.38 633.61 C 374.90 621.32 367.00 610.36 360.20 598.81 C 351.09 583.95 342.80 568.59 335.21 552.90 C 328.38 537.64 323.08 520.25 327.94 503.62 C 325.13 502.11 321.90 500.63 320.53 497.54 C 318.47 492.97 318.24 487.85 316.60 483.15 C 313.00 471.11 305.50 460.46 303.55 447.91 C 303.01 445.48 303.02 442.75 301.29 440.78 C 292.92 429.91 287.53 416.93 284.73 403.56 C 284.18 401.77 284.26 399.64 283.01 398.17 C 278.79 393.71 273.30 389.83 271.55 383.65 C 270.07 377.27 273.18 371.14 275.28 365.29 C 277.78 359.11 278.09 352.38 279.81 346.00 C 282.46 335.57 287.86 326.17 292.66 316.63 C 297.95 305.87 303.80 295.40 310.34 285.36 C 316.42 275.76 323.35 266.69 328.60 256.59 C 335.27 243.60 344.15 231.70 348.80 217.72 C 350.98 211.02 356.10 204.84 363.50 204.04 C 363.96 198.01 364.90 191.99 364.64 185.94 C 364.81 183.51 362.65 181.95 361.35 180.19 C 360.22 181.22 359.16 182.33 357.92 183.23 C 355.56 182.43 354.02 180.36 352.36 178.64 C 348.44 174.24 343.84 170.43 340.49 165.54 C 337.58 161.31 334.29 157.10 333.10 152.01 C 331.44 145.44 332.52 138.65 333.04 132.01 C 333.53 127.52 331.01 123.58 329.38 119.60 C 325.52 111.32 323.72 101.72 325.96 92.74 C 328.17 85.70 331.42 78.87 336.34 73.29 C 339.44 69.75 340.74 65.15 341.77 60.67 C 344.55 49.38 353.82 40.76 364.28 36.37 C 372.74 32.89 382.03 32.71 391.03 32.43 C 397.47 32.10 403.74 33.86 410.11 34.49 C 416.39 35.21 422.69 35.71 429.01 35.65 C 436.07 35.59 443.34 36.57 450.18 34.30 M 465.54 123.40 C 462.15 129.66 458.22 136.14 451.66 139.48 C 446.45 141.94 440.20 139.45 436.89 135.06 C 434.21 131.82 433.69 127.27 430.73 124.25 C 428.93 123.66 426.60 124.14 425.99 126.16 C 425.09 129.37 425.71 132.78 425.97 136.06 C 426.56 142.08 429.96 147.25 431.83 152.88 C 431.93 156.35 431.26 159.79 430.77 163.21 C 427.01 159.97 423.33 156.58 420.17 152.74 C 417.74 149.78 417.87 145.73 417.46 142.13 C 414.83 146.25 411.39 149.83 409.15 154.20 C 407.82 156.59 407.72 159.39 406.82 161.93 C 404.57 162.51 404.37 159.81 403.49 158.43 C 399.02 162.41 393.32 164.77 389.07 169.01 C 385.74 172.18 387.55 177.01 386.85 180.98 C 386.05 182.32 384.81 183.31 383.74 184.41 C 384.34 188.52 386.26 192.87 384.34 196.90 C 379.61 192.00 375.35 186.49 369.27 183.17 C 370.20 190.40 370.44 197.93 367.76 204.84 C 374.06 207.22 380.59 208.88 386.97 211.05 C 397.50 214.22 408.45 216.05 418.64 220.32 C 422.67 222.07 426.10 224.91 429.21 227.97 C 429.05 223.13 428.56 216.19 434.00 213.94 C 442.91 211.30 452.30 216.04 461.21 213.10 C 466.21 211.77 470.11 207.70 471.75 202.86 C 474.41 194.70 474.33 185.80 477.81 177.87 C 479.22 174.50 482.76 172.74 484.43 169.57 C 485.66 166.41 483.83 163.20 482.53 160.39 C 480.09 155.79 478.05 151.01 476.30 146.11 C 473.56 147.55 469.11 147.67 468.70 151.52 C 463.34 151.89 457.99 152.34 452.64 152.82 C 454.09 148.40 456.29 143.79 460.61 141.53 C 465.28 139.21 470.83 140.11 475.54 141.86 C 473.12 129.45 475.44 116.81 478.46 104.74 C 472.06 109.28 469.42 116.92 465.54 123.40 M 353.33 218.38 C 350.37 227.20 346.53 235.73 341.72 243.69 C 336.18 252.93 331.74 262.80 325.76 271.78 C 316.97 284.84 308.06 297.90 301.02 312.02 C 296.21 321.87 290.64 331.39 286.72 341.65 C 283.34 350.22 283.71 359.76 280.03 368.24 C 278.40 372.64 276.01 377.14 276.60 381.97 C 277.85 386.84 282.28 389.90 285.70 393.26 C 291.03 398.45 298.72 399.43 305.70 400.75 C 305.37 387.98 301.56 375.65 300.86 362.94 C 300.15 352.05 300.92 340.99 303.61 330.41 C 304.04 328.15 305.61 326.45 307.48 325.22 C 304.36 341.79 303.86 358.95 307.25 375.52 C 309.88 387.85 312.07 400.49 310.74 413.13 C 310.25 418.84 308.56 424.36 307.88 430.04 C 306.67 440.07 308.22 450.42 312.40 459.62 C 316.12 467.72 320.12 475.76 322.40 484.41 C 323.49 488.46 323.59 492.80 325.34 496.66 C 326.62 499.02 329.53 499.53 331.92 500.04 C 337.49 500.97 343.49 501.08 348.70 498.64 C 353.20 496.46 356.79 492.91 360.73 489.92 C 354.20 489.66 347.74 488.10 341.93 485.10 C 338.47 483.35 333.96 481.19 334.27 476.59 C 341.55 481.51 350.21 484.56 359.04 484.58 C 366.38 484.83 373.67 482.99 381.00 483.87 C 390.49 485.09 399.31 489.17 407.94 493.09 C 415.02 496.48 422.29 499.92 430.19 500.77 C 437.43 501.53 444.81 500.29 451.96 502.05 C 459.43 503.92 466.95 505.61 474.35 507.74 C 479.78 509.26 485.43 510.24 491.09 509.87 C 498.34 509.91 503.41 501.64 502.05 494.96 C 500.77 486.87 493.93 481.48 490.49 474.39 C 486.49 466.80 485.95 458.11 484.66 449.80 C 483.44 442.04 478.86 435.50 475.32 428.68 C 471.43 421.38 469.89 413.13 468.98 404.99 C 468.09 397.02 469.33 389.02 469.24 381.03 C 469.33 374.59 468.74 368.16 467.60 361.82 C 451.80 363.90 435.70 367.74 419.81 364.11 C 416.81 370.00 410.83 373.60 404.96 376.14 C 397.29 379.52 388.97 376.22 380.99 376.96 C 372.35 377.68 363.60 378.78 355.39 381.66 C 350.86 383.02 348.41 387.38 344.65 389.91 C 345.37 383.87 349.95 378.64 355.63 376.67 C 361.38 374.58 367.48 373.75 373.52 372.98 C 370.06 371.11 366.58 369.06 364.12 365.92 C 355.58 355.02 351.29 341.65 347.19 328.63 C 346.10 324.44 342.43 321.96 339.19 319.50 C 345.46 318.67 349.13 324.73 351.44 329.57 C 356.43 341.22 360.28 353.68 368.40 363.65 C 373.50 369.63 381.55 371.24 388.77 373.17 C 390.23 369.08 392.38 365.23 393.29 360.95 C 394.12 357.26 394.20 353.36 395.85 349.90 C 398.70 343.78 403.24 338.67 407.97 333.94 C 417.95 324.05 429.47 315.20 443.00 310.86 C 449.27 308.79 456.51 306.97 462.70 310.28 C 466.05 311.80 467.91 315.12 469.59 318.21 C 474.51 317.96 479.43 317.86 484.35 317.79 C 481.31 310.08 475.38 304.15 469.73 298.31 C 464.15 292.41 457.94 286.49 449.89 284.30 C 441.40 282.27 432.61 282.18 423.94 281.68 C 419.76 281.26 415.17 279.62 412.90 275.88 C 411.75 273.36 414.15 271.26 415.87 269.80 C 419.68 266.83 423.55 263.90 427.53 261.15 C 427.39 262.61 427.81 264.38 426.62 265.53 C 423.84 268.90 420.24 271.44 417.18 274.53 C 419.34 275.48 421.50 276.62 423.90 276.81 C 435.52 277.70 447.84 277.36 458.47 282.83 C 458.93 279.57 460.30 276.33 459.93 273.03 C 456.18 267.40 449.14 265.30 444.68 260.34 C 437.31 252.26 433.06 241.98 426.79 233.12 C 422.17 226.70 414.55 222.75 406.68 222.37 C 395.28 221.73 383.82 223.63 372.44 222.19 C 370.77 222.12 368.66 220.56 371.22 219.59 C 378.67 218.47 386.24 218.02 393.75 217.36 C 383.43 215.08 373.53 211.01 363.00 209.65 C 357.93 209.44 354.65 214.00 353.33 218.38 M 431.37 321.17 C 443.22 322.42 454.89 319.95 466.57 318.38 C 463.51 315.27 459.65 312.36 455.02 312.75 C 446.59 313.51 438.64 317.00 431.37 321.17 M 557.96 321.22 C 539.10 324.11 519.97 323.22 500.98 322.57 C 485.66 322.70 470.24 321.74 455.03 324.09 C 445.38 325.63 435.55 325.58 425.84 324.79 C 416.23 332.17 406.88 340.50 400.80 351.12 C 408.07 355.15 415.68 359.06 424.09 359.91 C 440.26 362.41 456.21 357.76 472.22 356.26 C 496.53 353.61 520.68 349.70 544.92 346.56 C 547.44 346.39 550.05 345.94 552.53 346.69 C 559.94 348.97 567.01 352.22 574.41 354.51 C 580.58 356.40 586.25 359.52 592.13 362.10 C 596.12 360.61 598.88 356.49 603.18 356.02 C 604.16 360.12 600.07 362.88 597.29 365.05 C 599.87 365.83 602.52 366.41 605.23 366.40 C 606.15 365.14 605.99 362.38 608.04 362.34 C 610.81 362.35 613.61 362.69 616.36 362.03 C 618.40 357.62 623.87 359.13 627.72 357.88 C 625.85 352.41 623.64 346.80 624.12 340.90 C 624.10 339.36 625.26 338.18 625.95 336.92 C 627.36 342.65 628.64 348.45 631.09 353.87 C 631.92 354.03 633.59 354.34 634.43 354.50 C 633.62 349.12 633.69 343.47 631.60 338.36 C 629.64 334.90 625.45 333.76 622.32 331.64 C 615.62 327.77 609.70 322.70 602.99 318.86 C 598.72 316.31 593.56 317.01 588.86 317.48 C 578.55 318.67 568.21 319.58 557.96 321.22 M 399.73 354.18 C 399.19 360.74 397.55 367.14 394.35 372.92 C 402.51 373.05 409.41 368.16 415.16 362.89 C 409.88 360.23 404.72 357.35 399.73 354.18 M 287.76 401.34 C 291.38 412.73 295.95 423.88 302.24 434.08 C 302.84 425.06 305.53 416.33 305.86 407.28 C 299.46 406.67 293.20 404.80 287.76 401.34 M 365.44 489.84 C 361.10 497.07 354.07 502.75 345.82 504.78 C 347.25 511.48 348.78 518.19 351.45 524.53 C 353.81 530.86 357.36 536.86 358.38 543.62 C 357.03 543.01 355.62 542.41 354.86 541.07 C 347.11 530.74 343.05 518.03 341.88 505.26 C 338.40 505.26 334.93 504.95 331.50 504.38 C 331.04 509.89 330.18 515.45 330.97 520.98 C 332.50 532.32 336.46 543.23 341.58 553.43 C 349.06 568.06 356.84 582.55 365.50 596.53 C 371.06 606.05 377.48 615.05 382.45 624.92 C 386.73 632.89 389.49 641.55 393.31 649.75 C 397.41 658.72 401.47 668.27 409.26 674.73 C 413.56 678.21 418.37 681.41 423.84 682.68 C 429.90 684.28 436.07 682.31 441.95 680.86 C 458.30 676.01 474.18 669.48 488.99 661.01 C 502.30 653.48 517.96 653.31 532.74 651.55 C 526.61 639.10 519.29 627.18 510.45 616.46 C 502.41 606.71 495.66 596.00 488.07 585.92 C 483.56 579.23 479.34 571.40 480.30 563.06 C 480.20 561.00 483.26 559.78 483.71 562.21 C 484.81 569.87 488.20 576.99 492.84 583.15 C 499.96 592.40 506.44 602.14 513.69 611.30 C 522.96 622.72 531.48 634.87 537.73 648.24 C 539.52 651.94 540.76 655.89 542.68 659.54 C 550.04 657.02 556.92 653.35 563.84 649.84 C 572.08 644.61 579.79 638.57 587.16 632.17 C 588.43 630.94 590.55 629.57 589.37 627.56 C 585.14 616.98 575.92 609.73 569.06 600.96 C 563.88 595.32 560.56 588.26 555.22 582.74 C 550.93 577.97 545.38 574.31 541.98 568.77 C 538.87 563.57 538.94 557.23 536.38 551.81 C 532.77 543.30 525.38 537.34 520.26 529.84 C 517.42 525.77 516.28 520.89 514.74 516.25 C 513.29 511.80 509.65 508.65 506.23 505.68 C 502.90 510.48 498.37 515.43 492.15 515.88 C 482.49 515.83 473.07 513.46 463.83 510.87 C 453.27 517.83 443.00 525.53 431.05 530.00 C 420.67 533.88 409.47 537.22 398.30 535.35 C 396.03 535.16 394.59 532.14 396.60 530.63 C 399.98 528.22 404.09 527.03 407.33 524.39 C 408.65 523.60 410.34 521.48 411.89 523.10 C 411.97 526.63 408.57 528.59 406.19 530.57 C 424.40 528.28 440.50 518.77 455.64 509.01 C 449.26 507.18 442.61 506.64 436.00 506.93 C 428.09 507.24 420.29 505.23 413.15 501.95 C 403.90 497.70 394.75 493.02 384.86 490.39 C 378.51 488.66 371.90 489.47 365.44 489.84 M 567.73 653.75 C 560.54 657.55 553.12 661.11 545.24 663.25 C 550.54 672.00 555.46 681.01 559.49 690.42 C 566.36 704.66 568.51 722.29 560.51 736.54 C 557.42 742.11 551.56 745.10 546.99 749.26 C 560.40 746.12 574.30 746.06 587.98 746.90 C 596.69 747.70 605.54 748.52 613.81 751.58 C 614.47 745.72 615.32 739.88 616.48 734.10 C 618.51 723.87 619.38 713.44 619.75 703.03 C 620.13 693.68 617.18 684.62 613.59 676.12 C 607.72 661.69 598.81 648.82 591.94 634.89 C 584.88 642.35 576.21 648.04 567.73 653.75 M 508.84 659.99 C 496.82 661.69 487.06 669.38 476.20 674.10 C 469.32 677.09 462.41 680.06 455.23 682.27 C 465.66 691.67 475.77 701.41 485.92 711.11 C 487.88 712.90 489.47 715.06 490.55 717.50 C 483.79 717.56 480.73 710.21 474.73 708.31 C 475.50 721.04 480.38 733.06 485.40 744.63 C 489.31 752.82 493.46 761.31 500.41 767.39 C 503.69 766.43 506.98 765.48 510.21 764.33 C 526.23 758.80 539.56 747.96 552.53 737.41 C 555.67 734.85 557.18 730.94 558.40 727.20 C 561.74 717.24 560.10 706.26 556.24 696.69 C 551.90 685.83 546.62 675.35 540.69 665.29 C 538.44 662.50 535.94 659.88 534.68 656.44 C 526.02 657.18 517.45 658.79 508.84 659.99 M 421.03 722.99 C 409.82 727.56 398.99 733.31 387.11 735.99 C 369.76 739.63 351.92 740.65 334.67 744.77 C 329.44 750.24 325.82 757.35 325.03 764.92 C 324.08 770.11 323.94 776.11 327.76 780.24 C 333.74 786.69 343.27 788.31 349.24 794.78 C 351.70 797.44 352.17 801.17 352.36 804.64 C 361.20 798.76 370.76 793.79 381.09 791.13 C 400.19 786.29 419.84 784.35 439.17 780.66 C 457.69 777.99 475.43 771.62 493.94 768.93 C 488.20 762.63 484.12 755.05 480.56 747.37 C 475.14 735.10 470.53 721.99 470.76 708.41 C 453.20 708.98 437.03 716.51 421.03 722.99 M 291.64 751.59 C 287.04 754.01 285.82 759.56 284.45 764.14 C 280.84 778.82 281.27 794.05 281.48 809.05 C 281.51 823.40 283.08 837.72 285.47 851.86 C 287.06 859.05 289.00 866.50 293.44 872.53 C 298.84 878.92 305.48 884.36 312.97 888.14 C 315.73 889.40 319.18 891.09 322.01 889.05 C 326.27 886.66 327.47 881.56 328.15 877.11 C 329.32 869.02 330.57 860.95 332.12 852.94 C 334.11 841.80 337.91 831.12 341.28 820.35 C 343.15 814.15 347.30 808.58 347.47 801.94 C 345.41 796.36 339.02 794.47 334.32 791.67 C 327.31 788.38 320.08 783.17 318.78 774.98 C 317.56 764.92 320.23 754.56 325.67 746.05 C 314.28 747.37 301.97 745.50 291.64 751.59 M 564.84 752.93 C 558.33 753.52 551.68 754.09 545.62 756.74 C 541.70 778.91 542.04 801.54 542.84 823.97 C 543.46 842.21 537.46 859.82 536.84 877.96 C 537.05 888.18 538.07 898.84 543.14 907.92 C 546.43 912.52 550.81 916.46 555.92 918.94 C 562.50 921.69 570.52 921.54 576.66 917.75 C 583.24 913.14 588.30 906.31 590.46 898.54 C 594.66 884.26 597.25 869.56 599.32 854.84 C 602.21 837.57 604.36 820.19 607.29 802.93 C 610.02 787.28 611.37 771.44 613.32 755.69 C 608.40 753.88 603.18 753.15 597.98 752.73 C 586.95 751.97 575.86 752.07 564.84 752.93 M 538.62 909.79 C 532.85 921.94 528.44 934.76 525.98 947.99 C 524.98 953.56 523.80 959.22 524.40 964.91 C 524.80 968.60 527.62 971.58 530.92 973.06 C 538.76 976.79 547.62 976.84 556.11 977.43 C 565.04 978.18 574.00 978.40 582.96 978.76 C 595.75 979.54 608.57 978.73 621.35 979.50 C 631.61 980.44 641.89 979.31 652.13 978.64 C 655.61 978.16 659.72 977.97 662.26 975.22 C 663.83 971.81 659.93 969.21 657.61 967.44 C 642.45 957.46 625.88 949.62 611.58 938.34 C 602.70 930.84 593.95 922.23 590.05 911.00 C 584.99 917.45 578.29 923.11 570.05 924.74 C 563.17 925.93 555.75 924.91 549.71 921.33 C 545.01 918.58 541.96 913.94 538.62 909.79 Z" />
        <path fill="#020202" opacity="1.00"
            d=" M 377.10 411.09 C 378.93 406.34 382.99 402.24 388.14 401.34 C 386.04 406.39 380.38 410.00 380.90 415.99 C 382.14 429.18 390.87 440.07 400.07 448.94 C 415.22 464.00 433.74 475.18 453.16 483.83 C 457.76 486.29 463.54 487.38 466.58 492.00 C 461.29 491.58 456.48 489.21 451.67 487.20 C 434.74 479.81 418.13 471.09 404.18 458.82 C 394.22 450.07 384.18 440.50 379.16 427.95 C 377.24 422.63 375.35 416.71 377.10 411.09 Z" />
        <path fill="#020202" opacity="1.00"
            d=" M 343.47 440.33 C 345.29 440.70 347.14 441.24 348.75 442.22 C 367.07 453.80 385.81 464.72 404.60 475.51 C 409.94 478.71 415.68 481.33 420.54 485.28 C 416.69 484.76 413.15 483.11 409.76 481.32 C 390.55 471.67 371.55 461.41 354.07 448.83 C 350.37 446.22 346.47 443.78 343.47 440.33 Z" />
        <path fill="#020202" opacity="1.00"
            d=" M 355.76 519.92 C 355.16 518.18 356.16 516.67 357.03 515.26 C 360.26 523.61 362.94 532.19 366.85 540.27 C 377.02 561.36 390.36 580.76 404.87 599.08 C 413.52 608.77 423.95 617.09 435.76 622.59 C 436.76 625.14 432.94 624.91 431.46 624.26 C 417.69 619.22 405.99 609.45 397.07 597.95 C 384.67 582.73 374.34 565.90 365.72 548.29 C 361.47 539.22 357.64 529.80 355.76 519.92 Z" />
        <path fill="#020202" opacity="1.00"
            d=" M 484.54 543.53 C 487.60 540.79 490.93 537.96 495.02 536.98 C 496.53 536.37 497.70 537.44 498.50 538.59 C 490.39 542.74 484.53 549.98 479.30 557.23 C 470.59 568.78 466.07 582.88 463.61 596.99 C 462.93 600.38 463.21 603.85 463.07 607.29 C 463.00 609.73 459.48 608.97 458.97 607.13 C 456.83 602.17 456.95 596.50 457.70 591.25 C 460.98 572.89 471.22 556.34 484.54 543.53 Z" />
    </g>
    <g id="#f0b58bff">
        <path fill="#f0b58b" opacity="1.00"
            d=" M 465.54 123.40 C 469.42 116.92 472.06 109.28 478.46 104.74 C 475.44 116.81 473.12 129.45 475.54 141.86 C 470.83 140.11 465.28 139.21 460.61 141.53 C 456.29 143.79 454.09 148.40 452.64 152.82 C 457.99 152.34 463.34 151.89 468.70 151.52 C 469.11 147.67 473.56 147.55 476.30 146.11 C 478.05 151.01 480.09 155.79 482.53 160.39 C 483.83 163.20 485.66 166.41 484.43 169.57 C 482.76 172.74 479.22 174.50 477.81 177.87 C 474.33 185.80 474.41 194.70 471.75 202.86 C 470.11 207.70 466.21 211.77 461.21 213.10 C 452.30 216.04 442.91 211.30 434.00 213.94 C 428.56 216.19 429.05 223.13 429.21 227.97 C 426.10 224.91 422.67 222.07 418.64 220.32 C 408.45 216.05 397.50 214.22 386.97 211.05 C 380.59 208.88 374.06 207.22 367.76 204.84 C 370.44 197.93 370.20 190.40 369.27 183.17 C 375.35 186.49 379.61 192.00 384.34 196.90 C 386.26 192.87 384.34 188.52 383.74 184.41 C 384.81 183.31 386.05 182.32 386.85 180.98 C 387.55 177.01 385.74 172.18 389.07 169.01 C 393.32 164.77 399.02 162.41 403.49 158.43 C 404.37 159.81 404.57 162.51 406.82 161.93 C 407.72 159.39 407.82 156.59 409.15 154.20 C 411.39 149.83 414.83 146.25 417.46 142.13 C 417.87 145.73 417.74 149.78 420.17 152.74 C 423.33 156.58 427.01 159.97 430.77 163.21 C 431.26 159.79 431.93 156.35 431.83 152.88 C 429.96 147.25 426.56 142.08 425.97 136.06 C 425.71 132.78 425.09 129.37 425.99 126.16 C 426.60 124.14 428.93 123.66 430.73 124.25 C 433.69 127.27 434.21 131.82 436.89 135.06 C 440.20 139.45 446.45 141.94 451.66 139.48 C 458.22 136.14 462.15 129.66 465.54 123.40 Z" />
        <path fill="#f0b58b" opacity="1.00"
            d=" M 557.96 321.22 C 568.21 319.58 578.55 318.67 588.86 317.48 C 593.56 317.01 598.72 316.31 602.99 318.86 C 609.70 322.70 615.62 327.77 622.32 331.64 C 625.45 333.76 629.64 334.90 631.60 338.36 C 633.69 343.47 633.62 349.12 634.43 354.50 C 633.59 354.34 631.92 354.03 631.09 353.87 C 628.64 348.45 627.36 342.65 625.95 336.92 C 625.26 338.18 624.10 339.36 624.12 340.90 C 623.64 346.80 625.85 352.41 627.72 357.88 C 623.87 359.13 618.40 357.62 616.36 362.03 C 613.61 362.69 610.81 362.35 608.04 362.34 C 605.99 362.38 606.15 365.14 605.23 366.40 C 602.52 366.41 599.87 365.83 597.29 365.05 C 600.07 362.88 604.16 360.12 603.18 356.02 C 598.88 356.49 596.12 360.61 592.13 362.10 C 586.25 359.52 580.58 356.40 574.41 354.51 C 567.01 352.22 559.94 348.97 552.53 346.69 C 550.05 345.94 547.44 346.39 544.92 346.56 C 520.68 349.70 496.53 353.61 472.22 356.26 C 456.21 357.76 440.26 362.41 424.09 359.91 C 415.68 359.06 408.07 355.15 400.80 351.12 C 406.88 340.50 416.23 332.17 425.84 324.79 C 435.55 325.58 445.38 325.63 455.03 324.09 C 470.24 321.74 485.66 322.70 500.98 322.57 C 519.97 323.22 539.10 324.11 557.96 321.22 Z" />
        <path fill="#f0b58b" opacity="1.00"
            d=" M 287.76 401.34 C 293.20 404.80 299.46 406.67 305.86 407.28 C 305.53 416.33 302.84 425.06 302.24 434.08 C 295.95 423.88 291.38 412.73 287.76 401.34 Z" />
        <path fill="#f0b58b" opacity="1.00"
            d=" M 567.73 653.75 C 576.21 648.04 584.88 642.35 591.94 634.89 C 598.81 648.82 607.72 661.69 613.59 676.12 C 617.18 684.62 620.13 693.68 619.75 703.03 C 619.38 713.44 618.51 723.87 616.48 734.10 C 615.32 739.88 614.47 745.72 613.81 751.58 C 605.54 748.52 596.69 747.70 587.98 746.90 C 574.30 746.06 560.40 746.12 546.99 749.26 C 551.56 745.10 557.42 742.11 560.51 736.54 C 568.51 722.29 566.36 704.66 559.49 690.42 C 555.46 681.01 550.54 672.00 545.24 663.25 C 553.12 661.11 560.54 657.55 567.73 653.75 Z" />
        <path fill="#f0b58b" opacity="1.00"
            d=" M 508.84 659.99 C 517.45 658.79 526.02 657.18 534.68 656.44 C 535.94 659.88 538.44 662.50 540.69 665.29 C 546.62 675.35 551.90 685.83 556.24 696.69 C 560.10 706.26 561.74 717.24 558.40 727.20 C 557.18 730.94 555.67 734.85 552.53 737.41 C 539.56 747.96 526.23 758.80 510.21 764.33 C 506.98 765.48 503.69 766.43 500.41 767.39 C 493.46 761.31 489.31 752.82 485.40 744.63 C 480.38 733.06 475.50 721.04 474.73 708.31 C 480.73 710.21 483.79 717.56 490.55 717.50 C 489.47 715.06 487.88 712.90 485.92 711.11 C 475.77 701.41 465.66 691.67 455.23 682.27 C 462.41 680.06 469.32 677.09 476.20 674.10 C 487.06 669.38 496.82 661.69 508.84 659.99 Z" />
    </g>
    <g id="#f11b27ff">
        <path fill="var(--shirt-color, grey)" opacity="1.00"
            d=" M 353.33 218.38 C 354.65 214.00 357.93 209.44 363.00 209.65 C 373.53 211.01 383.43 215.08 393.75 217.36 C 386.24 218.02 378.67 218.47 371.22 219.59 C 368.66 220.56 370.77 222.12 372.44 222.19 C 383.82 223.63 395.28 221.73 406.68 222.37 C 414.55 222.75 422.17 226.70 426.79 233.12 C 433.06 241.98 437.31 252.26 444.68 260.34 C 449.14 265.30 456.18 267.40 459.93 273.03 C 460.30 276.33 458.93 279.57 458.47 282.83 C 447.84 277.36 435.52 277.70 423.90 276.81 C 421.50 276.62 419.34 275.48 417.18 274.53 C 420.24 271.44 423.84 268.90 426.62 265.53 C 427.81 264.38 427.39 262.61 427.53 261.15 C 423.55 263.90 419.68 266.83 415.87 269.80 C 414.15 271.26 411.75 273.36 412.90 275.88 C 415.17 279.62 419.76 281.26 423.94 281.68 C 432.61 282.18 441.40 282.27 449.89 284.30 C 457.94 286.49 464.15 292.41 469.73 298.31 C 475.38 304.15 481.31 310.08 484.35 317.79 C 479.43 317.86 474.51 317.96 469.59 318.21 C 467.91 315.12 466.05 311.80 462.70 310.28 C 456.51 306.97 449.27 308.79 443.00 310.86 C 429.47 315.20 417.95 324.05 407.97 333.94 C 403.24 338.67 398.70 343.78 395.85 349.90 C 394.20 353.36 394.12 357.26 393.29 360.95 C 392.38 365.23 390.23 369.08 388.77 373.17 C 381.55 371.24 373.50 369.63 368.40 363.65 C 360.28 353.68 356.43 341.22 351.44 329.57 C 349.13 324.73 345.46 318.67 339.19 319.50 C 342.43 321.96 346.10 324.44 347.19 328.63 C 351.29 341.65 355.58 355.02 364.12 365.92 C 366.58 369.06 370.06 371.11 373.52 372.98 C 367.48 373.75 361.38 374.58 355.63 376.67 C 349.95 378.64 345.37 383.87 344.65 389.91 C 348.41 387.38 350.86 383.02 355.39 381.66 C 363.60 378.78 372.35 377.68 380.99 376.96 C 388.97 376.22 397.29 379.52 404.96 376.14 C 410.83 373.60 416.81 370.00 419.81 364.11 C 435.70 367.74 451.80 363.90 467.60 361.82 C 468.74 368.16 469.33 374.59 469.24 381.03 C 469.33 389.02 468.09 397.02 468.98 404.99 C 469.89 413.13 471.43 421.38 475.32 428.68 C 478.86 435.50 483.44 442.04 484.66 449.80 C 485.95 458.11 486.49 466.80 490.49 474.39 C 493.93 481.48 500.77 486.87 502.05 494.96 C 503.41 501.64 498.34 509.91 491.09 509.87 C 485.43 510.24 479.78 509.26 474.35 507.74 C 466.95 505.61 459.43 503.92 451.96 502.05 C 444.81 500.29 437.43 501.53 430.19 500.77 C 422.29 499.92 415.02 496.48 407.94 493.09 C 399.31 489.17 390.49 485.09 381.00 483.87 C 373.67 482.99 366.38 484.83 359.04 484.58 C 350.21 484.56 341.55 481.51 334.27 476.59 C 333.96 481.19 338.47 483.35 341.93 485.10 C 347.74 488.10 354.20 489.66 360.73 489.92 C 356.79 492.91 353.20 496.46 348.70 498.64 C 343.49 501.08 337.49 500.97 331.92 500.04 C 329.53 499.53 326.62 499.02 325.34 496.66 C 323.59 492.80 323.49 488.46 322.40 484.41 C 320.12 475.76 316.12 467.72 312.40 459.62 C 308.22 450.42 306.67 440.07 307.88 430.04 C 308.56 424.36 310.25 418.84 310.74 413.13 C 312.07 400.49 309.88 387.85 307.25 375.52 C 303.86 358.95 304.36 341.79 307.48 325.22 C 305.61 326.45 304.04 328.15 303.61 330.41 C 300.92 340.99 300.15 352.05 300.86 362.94 C 301.56 375.65 305.37 387.98 305.70 400.75 C 298.72 399.43 291.03 398.45 285.70 393.26 C 282.28 389.90 277.85 386.84 276.60 381.97 C 276.01 377.14 278.40 372.64 280.03 368.24 C 283.71 359.76 283.34 350.22 286.72 341.65 C 290.64 331.39 296.21 321.87 301.02 312.02 C 308.06 297.90 316.97 284.84 325.76 271.78 C 331.74 262.80 336.18 252.93 341.72 243.69 C 346.53 235.73 350.37 227.20 353.33 218.38 M 377.10 411.09 C 375.35 416.71 377.24 422.63 379.16 427.95 C 384.18 440.50 394.22 450.07 404.18 458.82 C 418.13 471.09 434.74 479.81 451.67 487.20 C 456.48 489.21 461.29 491.58 466.58 492.00 C 463.54 487.38 457.76 486.29 453.16 483.83 C 433.74 475.18 415.22 464.00 400.07 448.94 C 390.87 440.07 382.14 429.18 380.90 415.99 C 380.38 410.00 386.04 406.39 388.14 401.34 C 382.99 402.24 378.93 406.34 377.10 411.09 M 343.47 440.33 C 346.47 443.78 350.37 446.22 354.07 448.83 C 371.55 461.41 390.55 471.67 409.76 481.32 C 413.15 483.11 416.69 484.76 420.54 485.28 C 415.68 481.33 409.94 478.71 404.60 475.51 C 385.81 464.72 367.07 453.80 348.75 442.22 C 347.14 441.24 345.29 440.70 343.47 440.33 Z" />
        <path fill="var(--shirt-color, grey)" opacity="1.00"
            d=" M 431.37 321.17 C 438.64 317.00 446.59 313.51 455.02 312.75 C 459.65 312.36 463.51 315.27 466.57 318.38 C 454.89 319.95 443.22 322.42 431.37 321.17 Z" />
        <path fill="var(--shirt-color, grey)" opacity="1.00"
            d=" M 399.73 354.18 C 404.72 357.35 409.88 360.23 415.16 362.89 C 409.41 368.16 402.51 373.05 394.35 372.92 C 397.55 367.14 399.19 360.74 399.73 354.18 Z" />
    </g>
    <g id="#ffffffff">
        <path fill="var(--pants-color, grey)" opacity="1.00"
            d=" M 365.44 489.84 C 371.90 489.47 378.51 488.66 384.86 490.39 C 394.75 493.02 403.90 497.70 413.15 501.95 C 420.29 505.23 428.09 507.24 436.00 506.93 C 442.61 506.64 449.26 507.18 455.64 509.01 C 440.50 518.77 424.40 528.28 406.19 530.57 C 408.57 528.59 411.97 526.63 411.89 523.10 C 410.34 521.48 408.65 523.60 407.33 524.39 C 404.09 527.03 399.98 528.22 396.60 530.63 C 394.59 532.14 396.03 535.16 398.30 535.35 C 409.47 537.22 420.67 533.88 431.05 530.00 C 443.00 525.53 453.27 517.83 463.83 510.87 C 473.07 513.46 482.49 515.83 492.15 515.88 C 498.37 515.43 502.90 510.48 506.23 505.68 C 509.65 508.65 513.29 511.80 514.74 516.25 C 516.28 520.89 517.42 525.77 520.26 529.84 C 525.38 537.34 532.77 543.30 536.38 551.81 C 538.94 557.23 538.87 563.57 541.98 568.77 C 545.38 574.31 550.93 577.97 555.22 582.74 C 560.56 588.26 563.88 595.32 569.06 600.96 C 575.92 609.73 585.14 616.98 589.37 627.56 C 590.55 629.57 588.43 630.94 587.16 632.17 C 579.79 638.57 572.08 644.61 563.84 649.84 C 556.92 653.35 550.04 657.02 542.68 659.54 C 540.76 655.89 539.52 651.94 537.73 648.24 C 531.48 634.87 522.96 622.72 513.69 611.30 C 506.44 602.14 499.96 592.40 492.84 583.15 C 488.20 576.99 484.81 569.87 483.71 562.21 C 483.26 559.78 480.20 561.00 480.30 563.06 C 479.34 571.40 483.56 579.23 488.07 585.92 C 495.66 596.00 502.41 606.71 510.45 616.46 C 519.29 627.18 526.61 639.10 532.74 651.55 C 517.96 653.31 502.30 653.48 488.99 661.01 C 474.18 669.48 458.30 676.01 441.95 680.86 C 436.07 682.31 429.90 684.28 423.84 682.68 C 418.37 681.41 413.56 678.21 409.26 674.73 C 401.47 668.27 397.41 658.72 393.31 649.75 C 389.49 641.55 386.73 632.89 382.45 624.92 C 377.48 615.05 371.06 606.05 365.50 596.53 C 356.84 582.55 349.06 568.06 341.58 553.43 C 336.46 543.23 332.50 532.32 330.97 520.98 C 330.18 515.45 331.04 509.89 331.50 504.38 C 334.93 504.95 338.40 505.26 341.88 505.26 C 343.05 518.03 347.11 530.74 354.86 541.07 C 355.62 542.41 357.03 543.01 358.38 543.62 C 357.36 536.86 353.81 530.86 351.45 524.53 C 348.78 518.19 347.25 511.48 345.82 504.78 C 354.07 502.75 361.10 497.07 365.44 489.84 M 355.76 519.92 C 357.64 529.80 361.47 539.22 365.72 548.29 C 374.34 565.90 384.67 582.73 397.07 597.95 C 405.99 609.45 417.69 619.22 431.46 624.26 C 432.94 624.91 436.76 625.14 435.76 622.59 C 423.95 617.09 413.52 608.77 404.87 599.08 C 390.36 580.76 377.02 561.36 366.85 540.27 C 362.94 532.19 360.26 523.61 357.03 515.26 C 356.16 516.67 355.16 518.18 355.76 519.92 M 484.54 543.53 C 471.22 556.34 460.98 572.89 457.70 591.25 C 456.95 596.50 456.83 602.17 458.97 607.13 C 459.48 608.97 463.00 609.73 463.07 607.29 C 463.21 603.85 462.93 600.38 463.61 596.99 C 466.07 582.88 470.59 568.78 479.30 557.23 C 484.53 549.98 490.39 542.74 498.50 538.59 C 497.70 537.44 496.53 536.37 495.02 536.98 C 490.93 537.96 487.60 540.79 484.54 543.53 Z" />
        <path fill="var(--socks-color, grey)" opacity="1.00"
            d=" M 421.03 722.99 C 437.03 716.51 453.20 708.98 470.76 708.41 C 470.53 721.99 475.14 735.10 480.56 747.37 C 484.12 755.05 488.20 762.63 493.94 768.93 C 475.43 771.62 457.69 777.99 439.17 780.66 C 419.84 784.35 400.19 786.29 381.09 791.13 C 370.76 793.79 361.20 798.76 352.36 804.64 C 352.17 801.17 351.70 797.44 349.24 794.78 C 343.27 788.31 333.74 786.69 327.76 780.24 C 323.94 776.11 324.08 770.11 325.03 764.92 C 325.82 757.35 329.44 750.24 334.67 744.77 C 351.92 740.65 369.76 739.63 387.11 735.99 C 398.99 733.31 409.82 727.56 421.03 722.99 Z" />
        <path fill="var(--socks-color, grey)" opacity="1.00"
            d=" M 564.84 752.93 C 575.86 752.07 586.95 751.97 597.98 752.73 C 603.18 753.15 608.40 753.88 613.32 755.69 C 611.37 771.44 610.02 787.28 607.29 802.93 C 604.36 820.19 602.21 837.57 599.32 854.84 C 597.25 869.56 594.66 884.26 590.46 898.54 C 588.30 906.31 583.24 913.14 576.66 917.75 C 570.52 921.54 562.50 921.69 555.92 918.94 C 550.81 916.46 546.43 912.52 543.14 907.92 C 538.07 898.84 537.05 888.18 536.84 877.96 C 537.46 859.82 543.46 842.21 542.84 823.97 C 542.04 801.54 541.70 778.91 545.62 756.74 C 551.68 754.09 558.33 753.52 564.84 752.93 Z" />
    </g>
    <g id="#4d4d4dff">
        <path fill="#4d4d4d" opacity="1.00"
            d=" M 291.64 751.59 C 301.97 745.50 314.28 747.37 325.67 746.05 C 320.23 754.56 317.56 764.92 318.78 774.98 C 320.08 783.17 327.31 788.38 334.32 791.67 C 339.02 794.47 345.41 796.36 347.47 801.94 C 347.30 808.58 343.15 814.15 341.28 820.35 C 337.91 831.12 334.11 841.80 332.12 852.94 C 330.57 860.95 329.32 869.02 328.15 877.11 C 327.47 881.56 326.27 886.66 322.01 889.05 C 319.18 891.09 315.73 889.40 312.97 888.14 C 305.48 884.36 298.84 878.92 293.44 872.53 C 289.00 866.50 287.06 859.05 285.47 851.86 C 283.08 837.72 281.51 823.40 281.48 809.05 C 281.27 794.05 280.84 778.82 284.45 764.14 C 285.82 759.56 287.04 754.01 291.64 751.59 Z" />
        <path fill="#4d4d4d" opacity="1.00"
            d=" M 538.62 909.79 C 541.96 913.94 545.01 918.58 549.71 921.33 C 555.75 924.91 563.17 925.93 570.05 924.74 C 578.29 923.11 584.99 917.45 590.05 911.00 C 593.95 922.23 602.70 930.84 611.58 938.34 C 625.88 949.62 642.45 957.46 657.61 967.44 C 659.93 969.21 663.83 971.81 662.26 975.22 C 659.72 977.97 655.61 978.16 652.13 978.64 C 641.89 979.31 631.61 980.44 621.35 979.50 C 608.57 978.73 595.75 979.54 582.96 978.76 C 574.00 978.40 565.04 978.18 556.11 977.43 C 547.62 976.84 538.76 976.79 530.92 973.06 C 527.62 971.58 524.80 968.60 524.40 964.91 C 523.80 959.22 524.98 953.56 525.98 947.99 C 528.44 934.76 532.85 921.94 538.62 909.79 Z" />
    </g>
</svg>