<?xml version="1.0" encoding="UTF-8" ?>
<!DOCTYPE svg PUBLIC "-//W3C//DTD SVG 1.1//EN" "http://www.w3.org/Graphics/SVG/1.1/DTD/svg11.dtd">
<svg width="1000pt" height="1000pt" viewBox="0 0 1000 1000" version="1.1" xmlns="http://www.w3.org/2000/svg">
    <g id="#020202ff">
        <path fill="#020202" opacity="1.00"
            d=" M 416.71 58.73 C 428.18 54.43 439.58 48.95 452.02 48.31 C 455.82 47.99 459.29 50.49 463.09 49.73 C 467.72 49.07 472.35 47.64 477.08 48.26 C 482.34 49.08 486.93 52.13 492.10 53.30 C 497.34 54.21 502.74 53.19 507.62 51.18 C 508.80 52.93 509.14 54.96 508.93 57.04 C 517.95 60.25 522.72 69.23 526.54 77.38 C 529.45 84.34 534.37 90.17 537.70 96.89 L 537.11 97.85 C 536.19 97.75 534.35 97.55 533.43 97.45 C 535.24 100.06 537.13 102.76 537.83 105.92 C 539.01 110.27 537.41 114.66 536.95 118.99 C 536.10 126.88 535.45 134.95 532.54 142.41 C 531.57 144.98 529.66 147.00 527.71 148.87 C 525.88 156.98 522.80 164.85 522.14 173.19 C 521.02 180.64 518.84 187.91 515.88 194.84 C 514.62 197.73 514.61 200.93 514.37 204.02 C 514.02 210.15 513.04 216.25 513.05 222.40 C 531.69 223.69 551.89 226.71 566.32 239.66 C 587.40 259.12 610.10 276.78 633.43 293.45 C 639.70 298.16 647.56 301.11 652.25 307.67 C 656.50 313.63 656.95 321.31 656.02 328.34 C 671.65 331.16 687.32 336.07 700.02 345.94 C 706.26 350.64 711.71 356.29 717.00 362.02 C 721.40 366.94 727.82 369.08 733.16 372.74 C 742.82 379.18 752.69 385.69 760.40 394.50 C 767.44 403.50 769.42 415.96 766.72 426.94 C 765.61 432.22 761.47 436.28 757.04 439.03 C 752.28 442.05 745.25 441.45 741.65 436.89 C 737.02 437.59 732.34 437.77 727.67 437.61 C 725.55 439.58 723.74 441.84 721.65 443.82 C 720.57 445.01 718.43 444.77 717.64 443.37 C 714.06 437.64 713.01 430.03 715.80 423.75 C 718.30 418.81 722.42 414.84 724.64 409.73 C 726.00 406.90 724.47 403.89 723.83 401.09 C 722.51 404.24 721.51 407.63 719.38 410.36 C 716.77 413.60 711.03 413.92 708.61 410.27 C 704.75 404.57 705.18 397.34 703.98 390.83 C 695.78 388.83 687.25 388.84 679.04 386.87 C 665.51 384.48 652.13 379.88 640.96 371.70 C 636.05 377.99 629.88 384.16 621.94 386.18 C 618.20 387.50 615.61 383.89 612.58 382.41 C 603.09 377.32 593.09 372.90 582.51 370.65 C 572.82 368.63 562.89 368.29 553.03 367.85 C 551.37 385.02 544.75 401.35 536.29 416.25 C 535.02 418.64 533.62 421.15 533.77 423.96 C 533.73 438.77 538.72 453.20 537.61 468.07 C 536.68 480.80 533.11 493.50 526.59 504.51 C 521.87 512.38 512.90 515.85 504.31 517.50 C 508.14 520.74 513.04 522.19 517.29 524.77 C 524.00 528.55 529.92 533.52 536.34 537.73 C 540.77 540.80 546.33 540.97 551.25 542.81 C 561.31 546.44 569.45 554.48 574.10 564.01 C 575.52 566.65 574.57 570.05 576.57 572.44 C 586.82 586.28 600.32 598.50 605.55 615.41 C 608.83 624.94 608.51 636.14 602.58 644.59 C 594.50 656.06 582.21 663.47 570.33 670.43 C 565.46 672.96 561.55 676.89 557.72 680.74 C 551.42 687.13 544.61 692.97 537.91 698.91 C 528.16 707.47 519.59 717.29 509.57 725.54 C 495.78 737.65 480.30 747.60 465.98 759.04 C 458.53 764.72 451.68 771.13 444.16 776.72 C 445.00 780.59 445.09 784.58 444.30 788.48 C 442.75 796.55 441.34 804.82 442.39 813.05 C 444.58 827.28 454.62 838.53 458.73 852.09 C 460.16 857.10 460.34 862.96 457.41 867.49 C 453.95 871.63 447.84 871.36 442.96 870.91 C 433.17 870.40 424.38 865.08 417.25 858.68 C 411.76 853.76 406.91 848.06 403.33 841.60 C 399.65 835.00 397.44 827.71 394.12 820.93 C 390.34 813.95 385.16 807.88 379.86 802.02 C 369.87 817.00 356.61 829.29 344.83 842.79 C 330.09 859.64 313.03 874.62 293.73 886.05 C 299.85 896.52 295.45 909.79 301.78 920.19 C 308.64 931.67 319.53 940.08 326.75 951.31 C 328.94 955.40 331.01 960.91 328.16 965.18 C 324.60 969.65 318.26 969.92 313.02 969.51 C 300.40 968.31 287.88 963.95 277.76 956.22 C 265.87 947.12 259.33 932.53 246.43 924.59 C 239.91 920.28 233.02 915.53 229.85 908.08 C 225.38 898.99 226.70 887.67 232.59 879.53 C 238.37 871.42 245.26 863.26 254.94 859.85 C 260.71 856.52 264.65 850.92 269.09 846.10 C 278.32 835.89 285.76 824.22 292.07 812.03 C 301.70 793.49 309.21 773.87 320.02 755.96 C 323.96 749.12 330.71 744.68 335.79 738.79 C 342.79 731.32 348.02 722.35 351.78 712.87 C 356.39 701.36 362.23 690.11 364.08 677.72 C 362.43 676.85 359.95 676.81 359.11 674.90 C 357.33 670.51 358.54 665.64 359.25 661.15 C 362.34 645.92 374.16 634.62 379.32 620.23 C 381.87 613.68 384.76 607.07 385.15 599.96 C 385.66 593.53 382.97 587.41 383.02 581.01 C 382.76 578.15 383.37 574.93 381.56 572.46 C 379.15 568.86 376.22 565.64 373.89 561.99 C 368.19 553.20 366.04 542.74 361.46 533.42 C 354.24 522.06 350.45 508.44 351.39 494.97 C 351.99 484.67 353.36 474.35 352.54 464.02 C 352.07 455.32 350.36 446.72 350.31 438.00 C 350.25 428.46 357.18 421.10 360.67 412.72 C 365.56 401.24 368.83 388.50 367.04 375.97 C 365.73 368.30 364.22 360.65 363.61 352.88 C 354.85 358.63 344.20 361.30 336.51 368.67 C 330.99 373.84 326.07 380.10 318.84 382.98 C 314.29 384.72 308.53 385.93 304.42 382.54 C 302.17 392.57 296.39 401.33 290.89 409.85 C 286.09 417.41 279.58 424.01 276.36 432.50 C 274.30 441.90 276.52 451.56 276.43 461.06 C 276.27 468.09 276.27 475.24 274.45 482.09 C 271.34 493.15 273.22 505.66 266.80 515.73 C 264.06 519.84 261.61 524.78 256.97 527.02 C 254.36 528.31 252.12 526.14 250.18 524.72 C 247.59 525.99 245.07 528.26 242.00 527.83 C 238.61 527.01 237.26 523.38 235.72 520.66 C 234.00 522.80 232.22 524.90 230.41 526.98 C 232.58 529.84 235.34 533.08 234.46 536.95 C 233.97 540.39 230.53 542.99 227.08 542.31 C 221.12 541.41 214.91 541.81 209.13 539.92 C 205.83 538.88 205.18 534.98 204.44 532.08 C 203.41 526.44 202.27 520.82 200.35 515.41 C 197.72 507.77 195.58 499.25 198.25 491.33 C 201.57 483.80 207.72 478.09 212.64 471.63 C 220.08 462.11 231.01 454.75 234.72 442.75 C 240.18 424.52 241.00 405.30 246.00 386.97 C 249.74 372.50 253.52 357.61 261.83 344.98 C 260.42 344.09 258.47 343.68 257.79 341.99 C 258.34 338.43 260.96 335.68 262.71 332.66 C 272.32 317.11 285.22 303.64 300.27 293.29 C 308.79 286.82 318.12 281.33 325.73 273.73 C 334.89 264.84 341.77 253.92 350.79 244.90 C 356.64 238.84 363.31 233.25 371.39 230.49 C 378.32 227.77 385.93 228.04 393.01 225.90 C 402.00 223.40 410.45 218.45 419.99 218.31 C 424.71 218.09 429.27 219.59 433.53 221.47 C 436.95 217.05 437.28 211.05 436.27 205.78 C 432.51 199.62 429.81 192.92 426.39 186.58 C 417.03 171.98 404.54 158.89 399.60 141.87 C 398.46 137.61 399.71 133.19 398.91 128.90 C 397.44 118.45 400.78 108.20 403.21 98.17 C 405.84 86.58 410.19 75.22 417.08 65.47 C 415.17 64.59 412.29 64.50 411.69 62.05 C 412.61 60.07 414.90 59.57 416.71 58.73 M 459.34 95.70 C 459.88 98.05 462.19 100.59 461.01 102.93 C 456.40 102.81 452.59 99.78 449.01 97.22 C 446.42 99.12 443.54 98.04 441.16 96.41 C 440.94 98.57 441.01 100.85 440.12 102.89 C 438.65 106.28 435.60 108.68 434.24 112.14 C 432.54 116.74 427.55 118.96 425.67 123.44 C 423.92 129.10 423.60 135.11 424.12 140.99 C 435.46 140.65 446.79 139.77 458.13 139.69 C 459.90 143.27 458.78 147.66 458.32 151.47 C 457.93 154.02 455.06 153.82 453.12 154.19 C 444.00 155.25 434.87 156.27 425.75 157.36 C 426.56 163.08 427.29 168.81 428.27 174.51 C 429.55 182.32 433.14 189.47 436.47 196.57 C 441.11 206.30 448.88 214.18 457.48 220.51 C 464.75 225.27 474.28 227.63 482.66 224.56 C 490.76 221.29 496.10 214.06 501.73 207.74 C 509.28 199.43 513.52 188.69 516.18 177.92 C 518.19 170.15 518.18 162.08 518.47 154.12 C 507.95 153.38 497.46 152.29 486.95 151.51 C 487.47 156.67 488.00 161.85 487.94 167.05 C 488.03 169.88 486.43 172.55 483.74 173.57 C 485.88 162.16 480.11 150.49 484.27 139.28 C 486.17 138.98 488.08 138.66 490.02 138.64 C 499.66 138.82 509.30 139.04 518.94 138.81 C 517.05 132.30 514.35 125.44 508.58 121.41 C 504.50 118.56 500.68 115.39 497.00 112.04 C 493.21 108.42 487.61 109.11 482.91 107.69 C 474.15 105.87 466.05 101.57 459.34 95.70 M 485.64 228.58 C 475.76 232.93 464.24 230.13 455.41 224.63 C 449.87 220.78 445.00 216.04 440.50 211.05 C 440.65 215.92 440.37 221.10 437.24 225.10 C 440.60 228.39 444.35 231.25 448.30 233.80 C 454.48 237.88 458.25 244.43 462.92 249.99 C 467.30 255.26 471.36 260.94 476.80 265.19 C 479.41 267.07 482.55 269.12 485.92 268.27 C 492.18 266.82 498.47 264.56 503.54 260.50 C 508.07 256.79 508.70 250.51 508.73 245.05 C 508.48 231.77 508.32 218.43 510.45 205.28 C 503.06 213.84 496.20 223.70 485.64 228.58 M 394.01 231.04 C 386.74 233.34 378.84 232.76 371.77 235.76 C 365.66 238.12 360.58 242.44 356.14 247.14 C 345.37 258.14 337.65 271.88 325.69 281.76 C 314.13 291.30 300.78 298.51 289.72 308.68 C 279.45 317.88 271.13 328.94 262.87 339.90 C 270.32 342.14 277.30 345.87 283.42 350.66 C 294.01 359.35 300.77 371.56 310.70 380.90 C 315.11 379.21 319.67 377.27 322.99 373.78 C 325.28 363.73 323.40 353.13 324.94 342.91 C 326.02 333.26 328.55 323.66 333.09 315.05 C 333.89 313.25 335.46 312.05 337.23 311.28 C 336.03 317.36 333.39 323.04 332.25 329.14 C 329.37 341.56 330.36 354.36 330.05 366.99 C 333.69 363.22 337.67 359.70 342.33 357.23 C 349.21 353.51 356.63 350.66 362.88 345.84 C 371.54 339.52 379.02 330.41 390.12 328.49 C 393.04 327.80 395.84 329.54 396.64 332.41 C 394.21 332.00 391.61 331.09 389.25 332.29 C 382.36 335.16 377.91 341.49 372.26 346.07 C 377.47 346.38 382.55 348.06 386.79 351.15 C 398.06 358.44 405.72 369.88 416.70 377.50 C 417.16 380.06 413.01 379.11 411.65 378.21 C 400.37 371.14 392.31 359.95 380.92 353.01 C 376.86 350.48 371.98 350.13 367.33 349.97 C 368.84 357.33 369.96 364.77 371.49 372.13 C 374.19 385.41 371.28 399.13 366.61 411.62 C 363.87 419.14 358.84 425.58 356.18 433.12 C 354.43 440.87 356.62 448.79 357.15 456.58 C 358.57 468.68 357.83 480.88 356.70 492.98 C 355.33 507.24 358.72 522.16 367.20 533.83 C 368.85 535.88 371.12 538.51 374.07 537.78 C 378.06 537.01 381.83 535.34 385.42 533.46 C 390.53 530.76 394.15 525.91 399.42 523.46 C 406.74 519.76 415.41 520.51 422.73 516.83 C 428.74 514.01 433.50 509.11 439.62 506.48 C 443.03 504.96 446.72 504.21 450.38 503.52 C 429.57 493.36 407.83 485.34 385.95 477.87 C 382.75 476.65 379.14 476.02 376.66 473.48 C 382.00 472.98 387.04 475.12 392.07 476.54 C 403.33 480.09 414.73 483.19 425.83 487.21 C 442.66 493.20 458.26 502.20 475.27 507.74 C 487.48 511.91 501.05 514.78 513.65 510.51 C 518.75 507.84 521.93 502.56 524.51 497.58 C 530.27 484.95 534.11 470.86 532.50 456.90 C 529.91 445.28 526.62 433.17 529.18 421.25 C 532.38 410.34 539.36 400.92 542.32 389.92 C 542.60 384.27 541.38 378.69 541.12 373.06 C 539.84 356.87 540.90 340.35 545.83 324.79 C 547.59 319.74 548.59 314.19 552.10 309.97 C 552.27 317.12 549.56 323.87 548.27 330.82 C 544.82 345.72 544.90 361.21 546.43 376.36 C 548.32 366.14 547.34 355.59 549.63 345.43 C 551.53 337.08 557.85 330.91 561.51 323.39 C 562.44 324.36 563.59 325.47 563.20 326.99 C 562.42 332.16 558.85 336.28 556.82 340.97 C 553.27 347.99 553.67 356.06 553.20 363.70 C 569.24 363.24 585.66 365.05 600.47 371.54 C 607.26 374.58 614.24 377.50 620.16 382.11 C 628.56 378.98 635.16 372.04 639.10 364.11 C 643.92 354.56 647.61 344.37 649.38 333.81 C 650.65 327.12 652.24 319.92 649.50 313.37 C 647.96 309.27 644.35 306.53 640.80 304.24 C 625.82 294.85 611.84 284.00 598.19 272.79 C 586.28 262.67 573.75 253.28 562.24 242.69 C 555.75 237.01 547.50 233.96 539.30 231.73 C 530.58 229.56 521.73 227.87 512.77 227.04 C 513.18 237.11 515.99 247.64 512.42 257.42 C 508.50 266.88 498.05 270.98 488.92 273.67 C 481.89 276.08 474.85 271.93 469.83 267.28 C 462.44 260.17 456.83 251.50 450.51 243.49 C 447.39 239.53 442.79 237.25 439.05 233.99 C 435.37 230.92 432.22 227.30 429.31 223.52 C 425.24 222.80 421.06 222.22 416.97 223.10 C 408.97 224.66 401.83 228.87 394.01 231.04 M 655.03 333.15 C 653.13 345.07 649.13 356.61 643.54 367.30 C 649.10 370.01 654.36 373.34 660.14 375.61 C 667.47 378.75 675.28 380.45 683.05 382.09 C 689.80 383.57 696.78 383.97 703.43 385.96 C 703.14 381.21 700.98 376.08 702.94 371.51 C 705.23 370.50 705.36 373.58 705.87 374.97 C 708.80 384.42 708.85 394.41 710.98 404.01 C 711.49 406.22 712.88 409.89 715.74 407.96 C 718.02 405.56 719.45 402.42 720.32 399.24 C 721.15 395.99 720.10 392.67 720.23 389.39 C 722.46 387.39 723.77 390.70 724.69 392.33 C 726.94 397.31 729.88 402.41 729.72 408.04 C 728.50 415.15 722.67 420.12 719.52 426.33 C 717.65 430.18 718.41 434.54 719.47 438.49 C 724.80 431.31 734.67 428.92 738.87 420.76 C 742.88 412.85 741.14 403.69 742.39 395.22 C 743.57 396.54 744.49 398.11 744.65 399.91 C 745.54 406.58 745.82 413.54 744.01 420.09 C 742.65 424.95 739.25 428.80 735.71 432.22 C 740.07 431.55 744.96 430.73 747.91 427.09 C 752.45 421.32 754.59 414.08 756.05 406.99 C 756.53 405.07 756.72 402.62 759.04 402.10 C 751.91 392.47 741.55 386.01 732.02 379.02 C 726.10 374.46 718.62 372.11 713.49 366.51 C 708.85 361.49 704.28 356.36 699.00 351.98 C 691.20 345.43 682.00 340.69 672.37 337.46 C 666.72 335.52 660.79 334.67 655.03 333.15 M 251.32 389.93 C 248.44 402.84 247.45 416.07 244.89 429.04 C 243.12 438.00 241.43 447.42 235.86 454.92 C 229.74 463.01 221.78 469.49 215.61 477.54 C 211.50 482.81 206.37 487.51 203.68 493.74 C 201.16 503.09 206.17 512.00 208.36 520.87 C 210.55 515.69 212.22 510.33 213.96 505.00 C 214.64 503.34 214.97 501.12 217.01 500.63 C 218.59 500.88 219.66 502.49 219.02 504.04 C 216.34 514.35 212.84 524.45 210.08 534.74 C 216.47 536.25 223.12 535.23 229.56 536.46 C 228.65 533.25 226.06 531.00 224.74 528.03 C 224.31 525.75 225.89 523.84 227.20 522.18 C 232.78 515.49 238.86 509.24 244.36 502.48 C 245.36 501.15 246.75 500.22 248.22 499.49 C 246.90 506.22 242.47 511.87 238.61 517.38 C 239.69 519.33 240.73 521.37 242.36 522.94 C 245.01 522.01 247.24 520.13 249.99 519.47 C 252.46 519.14 253.53 521.91 255.54 522.77 C 260.77 517.36 264.94 510.55 266.02 503.00 C 267.44 496.70 267.03 490.17 268.44 483.88 C 271.31 472.47 271.19 460.56 270.29 448.91 C 269.88 441.60 269.28 433.97 272.03 427.02 C 274.23 421.03 279.41 416.99 283.12 411.99 C 290.44 401.67 296.19 390.33 300.83 378.57 C 294.78 372.42 290.32 364.90 284.00 358.99 C 278.60 353.45 271.89 349.43 264.96 346.12 C 257.86 359.78 254.45 374.96 251.32 389.93 M 759.61 403.25 C 759.75 412.21 757.58 421.27 752.80 428.90 C 751.23 431.46 748.59 433.07 746.81 435.45 C 753.31 437.78 760.17 432.61 762.85 426.93 C 764.46 418.99 762.54 410.68 759.61 403.25 M 441.42 511.52 C 435.95 514.52 431.57 519.17 425.94 521.92 C 419.60 525.45 412.19 525.66 405.35 527.57 C 400.84 528.79 397.45 532.11 393.99 535.04 C 389.84 538.60 384.71 540.70 379.52 542.24 C 385.06 550.25 389.88 559.69 398.97 564.23 C 407.70 568.59 417.65 565.79 426.95 566.58 C 432.98 567.24 439.19 567.84 444.84 570.21 C 446.43 570.71 447.04 572.33 447.78 573.67 C 441.87 572.74 436.05 571.07 430.01 571.18 C 419.18 570.79 407.68 574.45 397.39 569.56 C 386.50 564.43 380.50 553.17 375.61 542.76 C 372.83 542.77 370.15 541.98 367.98 540.24 C 370.84 545.18 372.86 550.54 375.54 555.58 C 378.13 560.45 381.95 564.50 385.19 568.93 C 387.68 571.95 387.47 576.78 391.25 578.78 C 396.55 580.96 402.34 581.55 407.90 582.82 C 420.72 585.45 434.67 586.42 445.61 594.36 C 447.16 595.24 449.17 598.80 446.25 599.08 C 435.87 591.55 422.69 590.53 410.44 588.58 C 420.33 597.06 430.31 605.48 441.01 612.96 C 449.18 618.30 457.87 622.78 466.30 627.70 C 465.86 617.42 468.02 607.28 468.79 597.07 C 469.73 589.02 469.70 580.87 471.08 572.88 C 471.17 570.89 472.52 569.46 474.07 568.39 C 475.71 572.03 475.06 576.07 474.96 579.93 C 474.67 587.89 474.94 595.88 474.10 603.82 C 473.13 613.42 471.59 623.10 472.93 632.75 C 478.11 632.10 483.01 630.12 487.58 627.67 C 498.79 621.53 505.42 610.11 514.33 601.37 C 519.38 596.25 526.14 593.37 531.56 588.70 C 538.99 582.79 545.02 575.11 553.44 570.48 C 558.81 567.35 565.10 566.64 571.14 565.77 C 566.38 559.04 560.54 552.74 552.87 549.38 C 546.57 546.42 539.11 546.83 533.26 542.78 C 523.96 536.70 515.51 529.11 505.08 524.93 C 497.54 523.52 489.89 525.18 482.41 526.17 C 475.09 527.03 467.90 528.77 460.58 529.49 C 459.41 526.62 463.20 525.80 465.18 525.19 C 476.83 522.38 488.79 519.74 500.86 520.68 C 500.29 519.72 499.72 518.76 499.17 517.82 C 487.03 517.95 475.29 514.30 464.16 509.77 C 456.84 506.63 448.40 508.25 441.42 511.52 M 556.40 575.42 C 549.76 579.18 544.77 585.09 539.01 589.97 C 534.71 593.81 529.91 597.03 525.09 600.17 C 518.46 604.44 513.92 611.03 508.77 616.84 C 514.28 622.87 521.03 627.54 527.02 633.04 C 528.06 634.29 530.18 635.67 529.04 637.50 C 525.00 637.35 520.95 637.58 517.01 638.56 C 520.90 649.12 529.44 657.15 538.36 663.60 C 544.57 667.67 551.48 671.95 559.17 671.74 C 570.12 666.38 580.11 659.16 589.73 651.68 C 595.16 646.98 600.42 641.40 602.27 634.26 C 604.24 626.60 602.17 618.61 599.32 611.46 C 592.80 596.29 579.33 585.65 571.68 571.19 C 566.47 572.03 561.03 572.69 556.40 575.42 M 389.91 599.02 C 389.67 607.91 385.54 615.96 382.43 624.10 C 378.52 634.00 371.43 642.16 366.80 651.69 C 363.88 656.80 362.83 662.66 362.01 668.42 C 367.73 666.70 373.45 664.81 378.49 661.52 C 394.24 652.06 410.71 642.94 423.09 629.08 C 425.21 626.94 428.64 623.65 431.64 626.28 C 426.06 628.95 423.33 634.83 418.89 638.83 C 407.08 650.12 392.76 658.26 378.85 666.63 C 373.91 669.87 368.08 671.09 362.60 673.06 C 368.46 673.69 374.37 673.00 380.08 671.66 C 389.69 669.58 398.31 664.59 407.71 661.82 C 417.35 658.20 428.14 658.86 437.74 662.25 C 445.47 665.09 453.45 667.44 460.55 671.74 C 463.85 665.16 466.80 658.27 467.75 650.91 C 468.74 644.52 467.66 638.07 466.68 631.76 C 466.68 630.33 465.73 629.26 465.08 628.11 L 464.54 629.71 C 446.21 624.51 431.04 612.39 416.90 600.13 C 412.99 596.71 409.44 592.89 405.32 589.72 C 400.34 585.71 393.56 585.98 387.93 583.34 C 388.58 588.57 390.35 593.69 389.91 599.02 M 492.31 631.24 C 486.50 634.22 480.16 636.32 473.60 636.66 C 475.21 647.34 473.53 658.61 467.96 667.96 C 466.18 670.82 464.66 674.55 461.10 675.52 C 457.37 674.65 454.08 672.60 450.62 671.04 C 449.18 675.38 447.71 679.72 445.98 683.95 C 440.37 698.20 431.72 710.93 423.98 724.06 C 431.39 715.14 438.96 706.37 446.63 697.67 C 451.01 692.33 456.09 687.53 459.75 681.62 C 466.02 671.81 471.95 661.57 480.41 653.43 C 491.49 642.37 506.50 635.34 522.09 633.86 C 516.18 629.86 510.70 625.14 506.64 619.22 C 502.36 623.76 497.88 628.30 492.31 631.24 M 480.17 661.12 C 470.99 671.60 465.43 684.75 455.80 694.87 C 440.64 711.72 426.63 729.56 411.16 746.13 C 408.50 749.40 405.03 752.60 404.60 757.04 C 404.44 758.70 406.42 758.87 407.57 759.23 C 414.20 760.79 421.36 758.07 427.73 761.18 C 433.35 763.46 434.92 770.33 439.98 773.22 C 444.00 771.87 446.71 768.38 449.93 765.82 C 463.43 753.86 478.12 743.38 492.64 732.70 C 505.29 723.51 516.15 712.20 527.29 701.30 C 535.94 692.93 545.49 685.54 554.05 677.06 C 546.56 675.58 539.73 671.81 533.72 667.22 C 524.69 660.10 515.98 651.12 513.31 639.57 C 500.48 643.37 488.82 650.91 480.17 661.12 M 395.26 672.20 C 386.66 676.09 377.21 678.14 367.76 677.93 C 367.55 687.75 363.67 696.96 360.12 705.96 C 356.40 715.05 353.15 724.48 347.46 732.58 C 342.70 739.94 336.46 746.17 330.07 752.11 C 338.11 767.03 352.82 777.59 368.93 782.27 C 367.53 775.44 369.28 768.05 373.69 762.64 C 379.82 754.44 390.04 750.08 400.14 750.03 C 413.58 734.29 424.08 716.31 434.19 698.32 C 439.38 689.27 443.09 679.46 446.32 669.56 C 436.34 666.28 425.81 662.64 415.16 664.58 C 408.20 666.16 401.73 669.26 395.26 672.20 M 381.09 763.13 C 376.62 767.83 372.16 774.17 374.08 781.01 C 375.72 789.38 382.24 795.27 387.27 801.70 C 394.76 810.06 400.17 820.05 404.62 830.30 C 407.36 836.78 411.01 842.92 415.79 848.12 C 420.48 853.19 425.49 858.29 431.91 861.13 C 437.65 863.65 443.55 866.71 450.01 866.23 C 451.77 866.10 454.15 865.78 454.80 863.83 C 456.12 859.70 455.07 855.24 453.51 851.34 C 448.50 839.37 440.02 828.83 437.49 815.88 C 435.39 806.09 437.74 796.18 439.36 786.51 C 439.57 784.02 440.20 781.27 439.08 778.93 C 436.84 776.52 434.02 774.68 432.08 772.00 C 429.74 768.96 427.43 765.20 423.29 764.60 C 416.57 763.42 409.18 765.47 402.98 761.88 C 400.38 760.39 400.29 757.14 399.92 754.53 C 393.12 755.89 385.99 757.92 381.09 763.13 M 278.69 842.77 C 272.53 849.93 266.54 857.43 258.94 863.14 C 266.94 873.75 281.93 873.65 291.13 882.68 C 302.32 874.84 313.06 866.32 322.93 856.87 C 335.32 845.59 345.69 832.35 357.50 820.49 C 364.48 813.55 370.57 805.82 376.40 797.91 C 373.98 794.46 372.01 790.72 370.46 786.81 C 352.34 783.89 334.74 773.15 326.02 756.67 C 308.86 784.60 299.67 817.14 278.69 842.77 M 253.34 866.35 C 244.25 872.88 236.74 881.95 232.56 892.39 C 230.27 897.79 232.61 903.78 235.45 908.50 C 240.55 916.27 249.84 919.38 256.55 925.40 C 266.38 934.30 272.66 946.71 283.78 954.24 C 291.95 959.64 301.35 963.30 311.09 964.52 C 315.12 964.86 319.66 965.56 323.27 963.27 C 325.97 961.01 323.74 957.03 322.61 954.41 C 315.21 942.42 303.02 934.04 296.48 921.43 C 292.68 914.24 292.80 905.91 292.03 898.02 C 291.78 893.59 290.39 889.07 287.14 885.91 C 280.31 879.16 270.03 878.21 262.51 872.49 C 259.80 870.49 257.63 867.84 254.82 865.98 C 254.45 866.07 253.71 866.26 253.34 866.35 Z" />
        <path fill="#020202" opacity="1.00"
            d=" M 469.58 169.84 C 473.10 171.39 476.43 173.34 479.72 175.37 C 481.44 174.73 483.15 174.10 484.91 173.52 C 484.73 175.68 484.67 177.88 484.08 179.98 C 483.28 181.72 480.96 181.66 479.34 181.69 C 475.76 178.02 472.75 173.84 469.58 169.84 Z" />
        <path fill="#020202" opacity="1.00"
            d=" M 461.87 189.93 C 466.52 189.07 471.29 189.47 476.00 189.30 C 480.57 189.50 485.31 188.95 489.74 190.36 C 491.77 192.38 488.27 193.00 486.95 193.69 C 485.94 194.97 485.02 196.64 483.19 196.73 C 478.49 197.42 473.69 197.40 468.96 197.10 C 467.02 197.16 465.94 195.42 464.69 194.26 C 462.45 194.11 459.80 192.18 461.87 189.93 Z" />
        <path fill="#020202" opacity="1.00"
            d=" M 371.02 269.03 C 372.24 266.26 373.60 262.64 376.99 262.07 L 377.53 262.94 C 376.36 266.29 374.75 269.50 374.02 272.99 C 371.75 283.51 370.36 294.24 370.52 305.01 C 370.72 314.03 368.31 323.08 363.74 330.85 C 362.71 332.87 360.58 333.73 358.38 333.64 C 360.22 329.27 362.56 325.07 363.64 320.41 C 365.98 311.04 364.49 301.29 365.74 291.79 C 366.76 284.07 368.32 276.36 371.02 269.03 Z" />
        <path fill="#020202" opacity="1.00"
            d=" M 387.09 283.09 C 389.84 278.36 392.71 273.26 397.63 270.47 C 397.02 274.56 394.04 277.65 392.27 281.25 C 386.34 291.83 385.30 304.13 383.32 315.86 C 382.38 319.45 382.84 325.02 378.26 326.10 C 380.12 311.63 379.99 296.28 387.09 283.09 Z" />
        <path fill="#020202" opacity="1.00"
            d=" M 572.32 289.34 C 572.70 289.28 573.46 289.15 573.84 289.09 C 576.50 293.15 576.87 298.15 577.60 302.83 C 579.28 316.86 580.23 331.86 574.00 344.98 C 572.18 348.73 570.01 353.71 565.05 353.57 C 567.27 348.63 570.40 344.04 571.44 338.63 C 573.89 326.97 574.02 314.93 573.30 303.08 C 573.06 298.49 572.02 293.94 572.32 289.34 Z" />
        <path fill="#020202" opacity="1.00"
            d=" M 416.51 302.98 C 417.31 301.18 419.12 303.22 420.13 303.74 C 428.47 311.14 436.27 319.32 442.12 328.86 C 444.80 333.32 447.77 337.83 448.77 343.01 C 449.25 344.60 448.08 345.89 447.25 347.09 C 444.48 342.12 442.05 336.96 438.86 332.24 C 434.03 324.54 427.87 317.82 421.94 310.99 C 419.89 308.50 417.56 306.09 416.51 302.98 Z" />
        <path fill="#020202" opacity="1.00"
            d=" M 489.29 413.35 C 491.55 413.18 493.52 414.36 494.99 415.98 C 499.68 420.95 502.59 427.26 505.54 433.35 C 511.89 446.73 514.91 461.38 516.94 475.97 C 517.41 480.64 518.58 485.74 515.98 490.03 C 513.43 486.55 513.63 482.08 512.83 478.04 C 508.98 455.34 502.40 432.55 489.29 413.35 Z" />
        <path fill="#020202" opacity="1.00"
            d=" M 392.12 416.06 C 393.03 413.52 396.08 414.90 397.93 415.38 C 407.26 418.44 416.09 422.79 424.94 427.00 C 438.34 433.83 451.57 441.24 463.46 450.51 C 475.86 460.13 484.26 473.68 492.14 486.99 C 494.52 491.13 497.48 494.95 501.29 497.86 C 501.83 495.28 501.56 492.39 502.97 490.10 C 504.94 490.12 504.73 492.61 505.10 493.96 C 505.23 496.44 505.68 499.73 503.35 501.39 C 501.19 502.60 498.71 501.29 496.97 499.94 C 491.47 495.62 488.23 489.26 484.52 483.48 C 477.77 472.91 470.41 462.35 460.21 454.80 C 442.08 441.42 421.93 431.01 401.45 421.74 C 405.67 426.78 410.68 431.07 415.25 435.78 C 416.65 437.10 417.16 438.99 417.80 440.74 C 415.93 440.25 414.01 439.73 412.54 438.42 C 405.61 432.75 399.44 426.22 393.56 419.49 C 393.00 418.44 391.21 417.36 392.12 416.06 Z" />
    </g>
    <g id="#f0b58bff">
        <path fill="#f0b58b" opacity="1.00"
            d=" M 459.34 95.70 C 466.05 101.57 474.15 105.87 482.91 107.69 C 487.61 109.11 493.21 108.42 497.00 112.04 C 500.68 115.39 504.50 118.56 508.58 121.41 C 514.35 125.44 517.05 132.30 518.94 138.81 C 509.30 139.04 499.66 138.82 490.02 138.64 C 488.08 138.66 486.17 138.98 484.27 139.28 C 480.11 150.49 485.88 162.16 483.74 173.57 C 486.43 172.55 488.03 169.88 487.94 167.05 C 488.00 161.85 487.47 156.67 486.95 151.51 C 497.46 152.29 507.95 153.38 518.47 154.12 C 518.18 162.08 518.19 170.15 516.18 177.92 C 513.52 188.69 509.28 199.43 501.73 207.74 C 496.10 214.06 490.76 221.29 482.66 224.56 C 474.28 227.63 464.75 225.27 457.48 220.51 C 448.88 214.18 441.11 206.30 436.47 196.57 C 433.14 189.47 429.55 182.32 428.27 174.51 C 427.29 168.81 426.56 163.08 425.75 157.36 C 434.87 156.27 444.00 155.25 453.12 154.19 C 455.06 153.82 457.93 154.02 458.32 151.47 C 458.78 147.66 459.90 143.27 458.13 139.69 C 446.79 139.77 435.46 140.65 424.12 140.99 C 423.60 135.11 423.92 129.10 425.67 123.44 C 427.55 118.96 432.54 116.74 434.24 112.14 C 435.60 108.68 438.65 106.28 440.12 102.89 C 441.01 100.85 440.94 98.57 441.16 96.41 C 443.54 98.04 446.42 99.12 449.01 97.22 C 452.59 99.78 456.40 102.81 461.01 102.93 C 462.19 100.59 459.88 98.05 459.34 95.70 M 469.58 169.84 C 472.75 173.84 475.76 178.02 479.34 181.69 C 480.96 181.66 483.28 181.72 484.08 179.98 C 484.67 177.88 484.73 175.68 484.91 173.52 C 483.15 174.10 481.44 174.73 479.72 175.37 C 476.43 173.34 473.10 171.39 469.58 169.84 M 461.87 189.93 C 459.80 192.18 462.45 194.11 464.69 194.26 C 465.94 195.42 467.02 197.16 468.96 197.10 C 473.69 197.40 478.49 197.42 483.19 196.73 C 485.02 196.64 485.94 194.97 486.95 193.69 C 488.27 193.00 491.77 192.38 489.74 190.36 C 485.31 188.95 480.57 189.50 476.00 189.30 C 471.29 189.47 466.52 189.07 461.87 189.93 Z" />
        <path fill="#f0b58b" opacity="1.00"
            d=" M 485.64 228.58 C 496.20 223.70 503.06 213.84 510.45 205.28 C 508.32 218.43 508.48 231.77 508.73 245.05 C 508.70 250.51 508.07 256.79 503.54 260.50 C 498.47 264.56 492.18 266.82 485.92 268.27 C 482.55 269.12 479.41 267.07 476.80 265.19 C 471.36 260.94 467.30 255.26 462.92 249.99 C 458.25 244.43 454.48 237.88 448.30 233.80 C 444.35 231.25 440.60 228.39 437.24 225.10 C 440.37 221.10 440.65 215.92 440.50 211.05 C 445.00 216.04 449.87 220.78 455.41 224.63 C 464.24 230.13 475.76 232.93 485.64 228.58 Z" />
        <path fill="#f0b58b" opacity="1.00"
            d=" M 655.03 333.15 C 660.79 334.67 666.72 335.52 672.37 337.46 C 682.00 340.69 691.20 345.43 699.00 351.98 C 704.28 356.36 708.85 361.49 713.49 366.51 C 718.62 372.11 726.10 374.46 732.02 379.02 C 741.55 386.01 751.91 392.47 759.04 402.10 C 756.72 402.62 756.53 405.07 756.05 406.99 C 754.59 414.08 752.45 421.32 747.91 427.09 C 744.96 430.73 740.07 431.55 735.71 432.22 C 739.25 428.80 742.65 424.95 744.01 420.09 C 745.82 413.54 745.54 406.58 744.65 399.91 C 744.49 398.11 743.57 396.54 742.39 395.22 C 741.14 403.69 742.88 412.85 738.87 420.76 C 734.67 428.92 724.80 431.31 719.47 438.49 C 718.41 434.54 717.65 430.18 719.52 426.33 C 722.67 420.12 728.50 415.15 729.72 408.04 C 729.88 402.41 726.94 397.31 724.69 392.33 C 723.77 390.70 722.46 387.39 720.23 389.39 C 720.10 392.67 721.15 395.99 720.32 399.24 C 719.45 402.42 718.02 405.56 715.74 407.96 C 712.88 409.89 711.49 406.22 710.98 404.01 C 708.85 394.41 708.80 384.42 705.87 374.97 C 705.36 373.58 705.23 370.50 702.94 371.51 C 700.98 376.08 703.14 381.21 703.43 385.96 C 696.78 383.97 689.80 383.57 683.05 382.09 C 675.28 380.45 667.47 378.75 660.14 375.61 C 654.36 373.34 649.10 370.01 643.54 367.30 C 649.13 356.61 653.13 345.07 655.03 333.15 Z" />
        <path fill="#f0b58b" opacity="1.00"
            d=" M 251.32 389.93 C 254.45 374.96 257.86 359.78 264.96 346.12 C 271.89 349.43 278.60 353.45 284.00 358.99 C 290.32 364.90 294.78 372.42 300.83 378.57 C 296.19 390.33 290.44 401.67 283.12 411.99 C 279.41 416.99 274.23 421.03 272.03 427.02 C 269.28 433.97 269.88 441.60 270.29 448.91 C 271.19 460.56 271.31 472.47 268.44 483.88 C 267.03 490.17 267.44 496.70 266.02 503.00 C 264.94 510.55 260.77 517.36 255.54 522.77 C 253.53 521.91 252.46 519.14 249.99 519.47 C 247.24 520.13 245.01 522.01 242.36 522.94 C 240.73 521.37 239.69 519.33 238.61 517.38 C 242.47 511.87 246.90 506.22 248.22 499.49 C 246.75 500.22 245.36 501.15 244.36 502.48 C 238.86 509.24 232.78 515.49 227.20 522.18 C 225.89 523.84 224.31 525.75 224.74 528.03 C 226.06 531.00 228.65 533.25 229.56 536.46 C 223.12 535.23 216.47 536.25 210.08 534.74 C 212.84 524.45 216.34 514.35 219.02 504.04 C 219.66 502.49 218.59 500.88 217.01 500.63 C 214.97 501.12 214.64 503.34 213.96 505.00 C 212.22 510.33 210.55 515.69 208.36 520.87 C 206.17 512.00 201.16 503.09 203.68 493.74 C 206.37 487.51 211.50 482.81 215.61 477.54 C 221.78 469.49 229.74 463.01 235.86 454.92 C 241.43 447.42 243.12 438.00 244.89 429.04 C 247.45 416.07 248.44 402.84 251.32 389.93 Z" />
        <path fill="#f0b58b" opacity="1.00"
            d=" M 759.61 403.25 C 762.54 410.68 764.46 418.99 762.85 426.93 C 760.17 432.61 753.31 437.78 746.81 435.45 C 748.59 433.07 751.23 431.46 752.80 428.90 C 757.58 421.27 759.75 412.21 759.61 403.25 Z" />
        <path fill="#f0b58b" opacity="1.00"
            d=" M 556.40 575.42 C 561.03 572.69 566.47 572.03 571.68 571.19 C 579.33 585.65 592.80 596.29 599.32 611.46 C 602.17 618.61 604.24 626.60 602.27 634.26 C 600.42 641.40 595.16 646.98 589.73 651.68 C 580.11 659.16 570.12 666.38 559.17 671.74 C 551.48 671.95 544.57 667.67 538.36 663.60 C 529.44 657.15 520.90 649.12 517.01 638.56 C 520.95 637.58 525.00 637.35 529.04 637.50 C 530.18 635.67 528.06 634.29 527.02 633.04 C 521.03 627.54 514.28 622.87 508.77 616.84 C 513.92 611.03 518.46 604.44 525.09 600.17 C 529.91 597.03 534.71 593.81 539.01 589.97 C 544.77 585.09 549.76 579.18 556.40 575.42 Z" />
        <path fill="#f0b58b" opacity="1.00"
            d=" M 395.26 672.20 C 401.73 669.26 408.20 666.16 415.16 664.58 C 425.81 662.64 436.34 666.28 446.32 669.56 C 443.09 679.46 439.38 689.27 434.19 698.32 C 424.08 716.31 413.58 734.29 400.14 750.03 C 390.04 750.08 379.82 754.44 373.69 762.64 C 369.28 768.05 367.53 775.44 368.93 782.27 C 352.82 777.59 338.11 767.03 330.07 752.11 C 336.46 746.17 342.70 739.94 347.46 732.58 C 353.15 724.48 356.40 715.05 360.12 705.96 C 363.67 696.96 367.55 687.75 367.76 677.93 C 377.21 678.14 386.66 676.09 395.26 672.20 Z" />
    </g>
    <g id="#f11b27ff">
        <path fill="var(--shirt-color, grey)" opacity="1.00"
            d=" M 394.01 231.04 C 401.83 228.87 408.97 224.66 416.97 223.10 C 421.06 222.22 425.24 222.80 429.31 223.52 C 432.22 227.30 435.37 230.92 439.05 233.99 C 442.79 237.25 447.39 239.53 450.51 243.49 C 456.83 251.50 462.44 260.17 469.83 267.28 C 474.85 271.93 481.89 276.08 488.92 273.67 C 498.05 270.98 508.50 266.88 512.42 257.42 C 515.99 247.64 513.18 237.11 512.77 227.04 C 521.73 227.87 530.58 229.56 539.30 231.73 C 547.50 233.96 555.75 237.01 562.24 242.69 C 573.75 253.28 586.28 262.67 598.19 272.79 C 611.84 284.00 625.82 294.85 640.80 304.24 C 644.35 306.53 647.96 309.27 649.50 313.37 C 652.24 319.92 650.65 327.12 649.38 333.81 C 647.61 344.37 643.92 354.56 639.10 364.11 C 635.16 372.04 628.56 378.98 620.16 382.11 C 614.24 377.50 607.26 374.58 600.47 371.54 C 585.66 365.05 569.24 363.24 553.20 363.70 C 553.67 356.06 553.27 347.99 556.82 340.97 C 558.85 336.28 562.42 332.16 563.20 326.99 C 563.59 325.47 562.44 324.36 561.51 323.39 C 557.85 330.91 551.53 337.08 549.63 345.43 C 547.34 355.59 548.32 366.14 546.43 376.36 C 544.90 361.21 544.82 345.72 548.27 330.82 C 549.56 323.87 552.27 317.12 552.10 309.97 C 548.59 314.19 547.59 319.74 545.83 324.79 C 540.90 340.35 539.84 356.87 541.12 373.06 C 541.38 378.69 542.60 384.27 542.32 389.92 C 539.36 400.92 532.38 410.34 529.18 421.25 C 526.62 433.17 529.91 445.28 532.50 456.90 C 534.11 470.86 530.27 484.95 524.51 497.58 C 521.93 502.56 518.75 507.84 513.65 510.51 C 501.05 514.78 487.48 511.91 475.27 507.74 C 458.26 502.20 442.66 493.20 425.83 487.21 C 414.73 483.19 403.33 480.09 392.07 476.54 C 387.04 475.12 382.00 472.98 376.66 473.48 C 379.14 476.02 382.75 476.65 385.95 477.87 C 407.83 485.34 429.57 493.36 450.38 503.52 C 446.72 504.21 443.03 504.96 439.62 506.48 C 433.50 509.11 428.74 514.01 422.73 516.83 C 415.41 520.51 406.74 519.76 399.42 523.46 C 394.15 525.91 390.53 530.76 385.42 533.46 C 381.83 535.34 378.06 537.01 374.07 537.78 C 371.12 538.51 368.85 535.88 367.20 533.83 C 358.72 522.16 355.33 507.24 356.70 492.98 C 357.83 480.88 358.57 468.68 357.15 456.58 C 356.62 448.79 354.43 440.87 356.18 433.12 C 358.84 425.58 363.87 419.14 366.61 411.62 C 371.28 399.13 374.19 385.41 371.49 372.13 C 369.96 364.77 368.84 357.33 367.33 349.97 C 371.98 350.13 376.86 350.48 380.92 353.01 C 392.31 359.95 400.37 371.14 411.65 378.21 C 413.01 379.11 417.16 380.06 416.70 377.50 C 405.72 369.88 398.06 358.44 386.79 351.15 C 382.55 348.06 377.47 346.38 372.26 346.07 C 377.91 341.49 382.36 335.16 389.25 332.29 C 391.61 331.09 394.21 332.00 396.64 332.41 C 395.84 329.54 393.04 327.80 390.12 328.49 C 379.02 330.41 371.54 339.52 362.88 345.84 C 356.63 350.66 349.21 353.51 342.33 357.23 C 337.67 359.70 333.69 363.22 330.05 366.99 C 330.36 354.36 329.37 341.56 332.25 329.14 C 333.39 323.04 336.03 317.36 337.23 311.28 C 335.46 312.05 333.89 313.25 333.09 315.05 C 328.55 323.66 326.02 333.26 324.94 342.91 C 323.40 353.13 325.28 363.73 322.99 373.78 C 319.67 377.27 315.11 379.21 310.70 380.90 C 300.77 371.56 294.01 359.35 283.42 350.66 C 277.30 345.87 270.32 342.14 262.87 339.90 C 271.13 328.94 279.45 317.88 289.72 308.68 C 300.78 298.51 314.13 291.30 325.69 281.76 C 337.65 271.88 345.37 258.14 356.14 247.14 C 360.58 242.44 365.66 238.12 371.77 235.76 C 378.84 232.76 386.74 233.34 394.01 231.04 M 371.02 269.03 C 368.32 276.36 366.76 284.07 365.74 291.79 C 364.49 301.29 365.98 311.04 363.64 320.41 C 362.56 325.07 360.22 329.27 358.38 333.64 C 360.58 333.73 362.71 332.87 363.74 330.85 C 368.31 323.08 370.72 314.03 370.52 305.01 C 370.36 294.24 371.75 283.51 374.02 272.99 C 374.75 269.50 376.36 266.29 377.53 262.94 L 376.99 262.07 C 373.60 262.64 372.24 266.26 371.02 269.03 M 387.09 283.09 C 379.99 296.28 380.12 311.63 378.26 326.10 C 382.84 325.02 382.38 319.45 383.32 315.86 C 385.30 304.13 386.34 291.83 392.27 281.25 C 394.04 277.65 397.02 274.56 397.63 270.47 C 392.71 273.26 389.84 278.36 387.09 283.09 M 572.32 289.34 C 572.02 293.94 573.06 298.49 573.30 303.08 C 574.02 314.93 573.89 326.97 571.44 338.63 C 570.40 344.04 567.27 348.63 565.05 353.57 C 570.01 353.71 572.18 348.73 574.00 344.98 C 580.23 331.86 579.28 316.86 577.60 302.83 C 576.87 298.15 576.50 293.15 573.84 289.09 C 573.46 289.15 572.70 289.28 572.32 289.34 M 416.51 302.98 C 417.56 306.09 419.89 308.50 421.94 310.99 C 427.87 317.82 434.03 324.54 438.86 332.24 C 442.05 336.96 444.48 342.12 447.25 347.09 C 448.08 345.89 449.25 344.60 448.77 343.01 C 447.77 337.83 444.80 333.32 442.12 328.86 C 436.27 319.32 428.47 311.14 420.13 303.74 C 419.12 303.22 417.31 301.18 416.51 302.98 M 489.29 413.35 C 502.40 432.55 508.98 455.34 512.83 478.04 C 513.63 482.08 513.43 486.55 515.98 490.03 C 518.58 485.74 517.41 480.64 516.94 475.97 C 514.91 461.38 511.89 446.73 505.54 433.35 C 502.59 427.26 499.68 420.95 494.99 415.98 C 493.52 414.36 491.55 413.18 489.29 413.35 M 392.12 416.06 C 391.21 417.36 393.00 418.44 393.56 419.49 C 399.44 426.22 405.61 432.75 412.54 438.42 C 414.01 439.73 415.93 440.25 417.80 440.74 C 417.16 438.99 416.65 437.10 415.25 435.78 C 410.68 431.07 405.67 426.78 401.45 421.74 C 421.93 431.01 442.08 441.42 460.21 454.80 C 470.41 462.35 477.77 472.91 484.52 483.48 C 488.23 489.26 491.47 495.62 496.97 499.94 C 498.71 501.29 501.19 502.60 503.35 501.39 C 505.68 499.73 505.23 496.44 505.10 493.96 C 504.73 492.61 504.94 490.12 502.97 490.10 C 501.56 492.39 501.83 495.28 501.29 497.86 C 497.48 494.95 494.52 491.13 492.14 486.99 C 484.26 473.68 475.86 460.13 463.46 450.51 C 451.57 441.24 438.34 433.83 424.94 427.00 C 416.09 422.79 407.26 418.44 397.93 415.38 C 396.08 414.90 393.03 413.52 392.12 416.06 Z" />
    </g>
    <g id="#ffffffff">
        <path fill="var(--pants-color, grey)" opacity="1.00"
            d=" M 441.42 511.52 C 448.40 508.25 456.84 506.63 464.16 509.77 C 475.29 514.30 487.03 517.95 499.17 517.82 C 499.72 518.76 500.29 519.72 500.86 520.68 C 488.79 519.74 476.83 522.38 465.18 525.19 C 463.20 525.80 459.41 526.62 460.58 529.49 C 467.90 528.77 475.09 527.03 482.41 526.17 C 489.89 525.18 497.54 523.52 505.08 524.93 C 515.51 529.11 523.96 536.70 533.26 542.78 C 539.11 546.83 546.57 546.42 552.87 549.38 C 560.54 552.74 566.38 559.04 571.14 565.77 C 565.10 566.64 558.81 567.35 553.44 570.48 C 545.02 575.11 538.99 582.79 531.56 588.70 C 526.14 593.37 519.38 596.25 514.33 601.37 C 505.42 610.11 498.79 621.53 487.58 627.67 C 483.01 630.12 478.11 632.10 472.93 632.75 C 471.59 623.10 473.13 613.42 474.10 603.82 C 474.94 595.88 474.67 587.89 474.96 579.93 C 475.06 576.07 475.71 572.03 474.07 568.39 C 472.52 569.46 471.17 570.89 471.08 572.88 C 469.70 580.87 469.73 589.02 468.79 597.07 C 468.02 607.28 465.86 617.42 466.30 627.70 C 457.87 622.78 449.18 618.30 441.01 612.96 C 430.31 605.48 420.33 597.06 410.44 588.58 C 422.69 590.53 435.87 591.55 446.25 599.08 C 449.17 598.80 447.16 595.24 445.61 594.36 C 434.67 586.42 420.72 585.45 407.90 582.82 C 402.34 581.55 396.55 580.96 391.25 578.78 C 387.47 576.78 387.68 571.95 385.19 568.93 C 381.95 564.50 378.13 560.45 375.54 555.58 C 372.86 550.54 370.84 545.18 367.98 540.24 C 370.15 541.98 372.83 542.77 375.61 542.76 C 380.50 553.17 386.50 564.43 397.39 569.56 C 407.68 574.45 419.18 570.79 430.01 571.18 C 436.05 571.07 441.87 572.74 447.78 573.67 C 447.04 572.33 446.43 570.71 444.84 570.21 C 439.19 567.84 432.98 567.24 426.95 566.58 C 417.65 565.79 407.70 568.59 398.97 564.23 C 389.88 559.69 385.06 550.25 379.52 542.24 C 384.71 540.70 389.84 538.60 393.99 535.04 C 397.45 532.11 400.84 528.79 405.35 527.57 C 412.19 525.66 419.60 525.45 425.94 521.92 C 431.57 519.17 435.95 514.52 441.42 511.52 Z" />
        <path fill="var(--pants-color, grey)" opacity="1.00"
            d=" M 389.91 599.02 C 390.35 593.69 388.58 588.57 387.93 583.34 C 393.56 585.98 400.34 585.71 405.32 589.72 C 409.44 592.89 412.99 596.71 416.90 600.13 C 431.04 612.39 446.21 624.51 464.54 629.71 L 465.08 628.11 C 465.73 629.26 466.68 630.33 466.68 631.76 C 467.66 638.07 468.74 644.52 467.75 650.91 C 466.80 658.27 463.85 665.16 460.55 671.74 C 453.45 667.44 445.47 665.09 437.74 662.25 C 428.14 658.86 417.35 658.20 407.71 661.82 C 398.31 664.59 389.69 669.58 380.08 671.66 C 374.37 673.00 368.46 673.69 362.60 673.06 C 368.08 671.09 373.91 669.87 378.85 666.63 C 392.76 658.26 407.08 650.12 418.89 638.83 C 423.33 634.83 426.06 628.95 431.64 626.28 C 428.64 623.65 425.21 626.94 423.09 629.08 C 410.71 642.94 394.24 652.06 378.49 661.52 C 373.45 664.81 367.73 666.70 362.01 668.42 C 362.83 662.66 363.88 656.80 366.80 651.69 C 371.43 642.16 378.52 634.00 382.43 624.10 C 385.54 615.96 389.67 607.91 389.91 599.02 Z" />
        <path fill="var(--socks-color, grey)" opacity="1.00"
            d=" M 480.17 661.12 C 488.82 650.91 500.48 643.37 513.31 639.57 C 515.98 651.12 524.69 660.10 533.72 667.22 C 539.73 671.81 546.56 675.58 554.05 677.06 C 545.49 685.54 535.94 692.93 527.29 701.30 C 516.15 712.20 505.29 723.51 492.64 732.70 C 478.12 743.38 463.43 753.86 449.93 765.82 C 446.71 768.38 444.00 771.87 439.98 773.22 C 434.92 770.33 433.35 763.46 427.73 761.18 C 421.36 758.07 414.20 760.79 407.57 759.23 C 406.42 758.87 404.44 758.70 404.60 757.04 C 405.03 752.60 408.50 749.40 411.16 746.13 C 426.63 729.56 440.64 711.72 455.80 694.87 C 465.43 684.75 470.99 671.60 480.17 661.12 Z" />
        <path fill="var(--socks-color, grey)" opacity="1.00"
            d=" M 278.69 842.77 C 299.67 817.14 308.86 784.60 326.02 756.67 C 334.74 773.15 352.34 783.89 370.46 786.81 C 372.01 790.72 373.98 794.46 376.40 797.91 C 370.57 805.82 364.48 813.55 357.50 820.49 C 345.69 832.35 335.32 845.59 322.93 856.87 C 313.06 866.32 302.32 874.84 291.13 882.68 C 281.93 873.65 266.94 873.75 258.94 863.14 C 266.54 857.43 272.53 849.93 278.69 842.77 Z" />
    </g>
    <g id="#4d4d4dff">
        <path fill="#4d4d4d" opacity="1.00"
            d=" M 381.09 763.13 C 385.99 757.92 393.12 755.89 399.92 754.53 C 400.29 757.14 400.38 760.39 402.98 761.88 C 409.18 765.47 416.57 763.42 423.29 764.60 C 427.43 765.20 429.74 768.96 432.08 772.00 C 434.02 774.68 436.84 776.52 439.08 778.93 C 440.20 781.27 439.57 784.02 439.36 786.51 C 437.74 796.18 435.39 806.09 437.49 815.88 C 440.02 828.83 448.50 839.37 453.51 851.34 C 455.07 855.24 456.12 859.70 454.80 863.83 C 454.15 865.78 451.77 866.10 450.01 866.23 C 443.55 866.71 437.65 863.65 431.91 861.13 C 425.49 858.29 420.48 853.19 415.79 848.12 C 411.01 842.92 407.36 836.78 404.62 830.30 C 400.17 820.05 394.76 810.06 387.27 801.70 C 382.24 795.27 375.72 789.38 374.08 781.01 C 372.16 774.17 376.62 767.83 381.09 763.13 Z" />
        <path fill="#4d4d4d" opacity="1.00"
            d=" M 253.34 866.35 C 253.71 866.26 254.45 866.07 254.82 865.98 C 257.63 867.84 259.80 870.49 262.51 872.49 C 270.03 878.21 280.31 879.16 287.14 885.91 C 290.39 889.07 291.78 893.59 292.03 898.02 C 292.80 905.91 292.68 914.24 296.48 921.43 C 303.02 934.04 315.21 942.42 322.61 954.41 C 323.74 957.03 325.97 961.01 323.27 963.27 C 319.66 965.56 315.12 964.86 311.09 964.52 C 301.35 963.30 291.95 959.64 283.78 954.24 C 272.66 946.71 266.38 934.30 256.55 925.40 C 249.84 919.38 240.55 916.27 235.45 908.50 C 232.61 903.78 230.27 897.79 232.56 892.39 C 236.74 881.95 244.25 872.88 253.34 866.35 Z" />
    </g>
</svg>