<?xml version="1.0" encoding="UTF-8" ?>
<!DOCTYPE svg PUBLIC "-//W3C//DTD SVG 1.1//EN" "http://www.w3.org/Graphics/SVG/1.1/DTD/svg11.dtd">
<svg width="1000pt" height="1000pt" viewBox="0 0 1000 1000" version="1.1" xmlns="http://www.w3.org/2000/svg">
    <g id="#020202ff">
        <path fill="#020202" opacity="1.00"
            d=" M 589.29 35.17 C 597.94 34.67 605.92 38.38 613.87 41.21 C 618.18 42.95 621.74 46.07 625.90 48.10 C 632.62 51.58 640.28 53.10 646.60 57.38 C 649.43 59.24 651.09 62.71 654.51 63.65 C 659.70 65.29 664.83 67.45 669.01 71.04 C 677.65 78.54 683.51 88.75 687.70 99.28 C 690.46 106.37 692.26 114.48 689.82 121.91 C 688.90 125.09 686.35 127.33 683.48 128.76 C 686.36 137.60 693.33 145.25 693.21 154.92 C 689.72 152.43 686.86 149.22 683.71 146.34 C 684.53 150.31 686.26 153.98 688.53 157.33 C 681.15 161.73 672.13 158.73 664.71 155.96 C 662.97 162.72 658.42 168.12 654.87 173.96 C 649.97 181.85 646.76 190.60 643.20 199.13 C 641.61 202.93 638.89 206.13 635.65 208.63 C 625.56 216.51 616.70 225.89 606.07 233.09 C 602.70 235.26 599.28 238.31 595.00 237.95 C 592.82 237.84 591.17 236.20 589.41 235.13 C 591.39 271.40 592.89 307.81 590.37 344.09 C 588.98 363.15 583.16 381.45 577.34 399.53 C 575.68 403.68 578.40 407.79 578.93 411.91 C 581.57 421.90 579.16 432.23 576.37 441.91 C 579.03 444.96 581.68 448.19 582.85 452.15 C 584.92 458.53 583.31 465.27 582.07 471.65 C 585.36 475.54 589.13 479.65 589.73 484.95 C 590.22 490.73 587.49 496.14 584.46 500.87 C 588.77 506.62 591.67 513.34 593.32 520.33 C 596.32 521.98 599.34 524.00 600.69 527.30 C 604.53 535.90 606.27 545.25 608.83 554.27 C 612.65 568.58 618.67 582.22 625.84 595.15 C 630.05 603.53 635.41 611.37 638.74 620.18 C 640.85 625.65 639.34 631.58 637.51 636.89 C 640.23 644.50 642.34 652.31 645.02 659.93 C 647.72 668.69 649.43 677.77 650.41 686.88 C 651.73 698.28 649.75 709.67 648.54 720.98 C 646.65 740.79 650.62 760.45 653.64 779.93 C 657.35 800.23 658.88 821.05 665.38 840.74 C 669.57 854.31 676.02 867.03 682.44 879.65 C 686.92 887.44 694.81 892.47 702.63 896.45 C 721.08 906.13 740.61 913.53 759.27 922.76 C 768.02 926.97 777.14 930.47 785.46 935.53 C 789.67 938.11 793.83 941.88 794.40 947.10 C 795.45 952.83 792.67 958.68 788.08 962.10 C 780.52 968.51 770.42 970.22 760.95 971.79 C 752.32 972.92 743.65 974.59 734.91 973.84 C 728.26 973.26 721.67 972.21 715.08 971.16 C 701.45 969.06 688.54 964.00 675.17 960.81 C 665.28 958.28 655.00 958.66 644.90 957.87 C 636.40 957.46 627.61 953.31 623.32 945.72 C 620.27 940.20 618.23 934.10 617.50 927.84 C 616.49 917.13 619.26 906.55 622.67 896.49 C 624.31 891.52 626.09 886.21 624.93 880.93 C 622.45 868.52 618.95 855.93 611.58 845.45 C 603.71 833.71 595.64 821.98 590.14 808.89 C 582.15 790.28 575.96 770.43 575.86 750.01 C 575.80 742.30 575.86 734.59 575.35 726.90 C 574.95 721.29 573.29 715.89 571.84 710.50 C 549.12 757.22 525.46 803.49 501.72 849.69 C 498.13 858.52 495.08 867.56 491.28 876.30 C 489.52 880.87 487.18 885.21 485.59 889.84 C 484.85 898.70 486.13 908.18 491.30 915.63 C 497.67 925.38 505.96 933.88 515.55 940.49 C 526.38 947.59 539.00 951.78 549.01 960.17 C 554.07 964.47 558.28 970.31 559.16 977.03 C 559.72 981.18 557.82 986.01 553.65 987.51 C 548.48 989.31 542.91 988.21 537.63 987.61 C 524.76 985.53 512.07 982.53 499.31 979.88 C 482.10 976.27 464.55 972.43 446.86 974.36 C 438.97 974.64 430.76 978.31 423.12 974.85 C 415.64 971.49 408.48 964.73 408.45 955.99 C 408.47 943.39 414.83 932.13 419.94 920.99 C 422.53 915.45 425.96 910.39 429.32 905.31 C 434.12 897.41 432.16 887.78 432.90 879.03 C 434.95 843.33 444.41 808.43 457.09 775.13 C 464.38 756.26 473.08 737.90 483.53 720.56 C 490.39 709.47 497.65 698.45 506.95 689.22 C 501.31 689.41 497.38 685.34 494.17 681.28 C 485.16 684.91 476.03 689.70 466.01 688.89 C 459.12 688.61 453.01 684.06 449.87 678.06 C 443.51 666.91 442.29 653.92 439.35 641.65 C 436.17 626.77 430.46 612.60 424.10 598.83 C 420.40 590.37 416.31 582.04 413.70 573.16 C 410.06 562.51 403.54 552.81 402.12 541.45 C 393.94 541.22 385.70 541.01 377.69 539.22 C 374.82 538.45 371.77 537.60 369.60 535.48 C 367.09 532.99 366.52 529.34 365.90 526.02 C 362.86 506.64 360.92 487.11 359.47 467.56 C 351.17 477.87 342.39 487.83 334.69 498.61 C 330.44 504.48 327.88 511.68 328.14 518.98 C 328.29 524.31 327.40 529.63 325.75 534.70 C 322.98 544.55 316.34 553.39 316.56 563.98 C 316.32 569.90 318.34 576.56 314.83 581.87 C 313.32 584.42 310.19 584.33 307.60 584.29 C 303.58 589.67 298.53 594.10 293.86 598.88 C 292.10 600.53 290.37 602.44 288.01 603.20 C 285.82 603.81 283.33 602.19 283.20 599.89 C 283.02 594.84 285.19 590.13 286.94 585.51 C 282.54 588.55 278.09 593.68 272.25 592.65 C 268.24 591.31 269.56 586.51 270.72 583.59 C 267.83 585.52 264.61 587.74 260.95 587.30 C 258.87 587.09 256.97 585.19 257.38 583.01 C 258.02 578.71 260.37 574.90 262.65 571.28 C 259.88 572.61 256.33 574.49 253.43 572.38 C 251.40 570.88 252.21 568.09 253.26 566.26 C 257.64 558.27 263.00 550.83 268.94 543.92 C 274.24 537.72 276.07 529.58 279.41 522.33 C 283.15 513.73 288.92 506.17 295.40 499.45 C 298.10 496.71 300.77 493.77 301.98 490.03 C 304.19 483.63 306.19 477.14 309.00 470.96 C 317.00 453.31 328.03 437.30 337.45 420.42 C 347.87 402.07 357.76 383.43 368.16 365.07 C 371.00 359.54 374.62 354.47 377.90 349.23 C 379.72 341.46 381.81 333.75 384.35 326.18 C 387.25 313.06 390.97 300.04 397.04 288.00 C 404.26 273.83 410.55 259.18 418.44 245.35 C 424.38 234.57 429.74 223.28 437.90 213.93 C 444.16 206.83 450.81 200.02 456.25 192.24 C 460.41 186.20 465.14 180.53 470.48 175.49 C 475.18 171.00 481.26 168.40 486.25 164.28 C 493.67 158.27 501.69 152.22 511.26 150.33 C 518.22 149.18 525.31 149.91 532.27 150.71 C 534.12 144.95 535.24 138.97 535.74 132.95 C 532.39 137.53 529.02 142.22 524.66 145.90 C 524.09 146.12 522.95 146.57 522.38 146.79 C 523.51 141.71 526.51 137.21 527.11 132.00 C 527.83 125.63 529.56 119.45 530.58 113.13 C 533.40 98.64 536.72 83.68 545.35 71.39 C 551.63 62.98 559.79 55.88 569.24 51.24 C 573.92 48.89 579.13 48.01 584.19 46.85 C 580.65 43.56 577.29 39.93 575.48 35.37 C 580.49 37.28 585.38 39.58 590.69 40.61 C 590.09 38.85 588.67 37.13 589.29 35.17 M 632.32 134.96 C 626.54 145.24 623.41 156.66 620.17 167.92 C 617.22 160.80 619.38 153.00 620.35 145.70 C 618.95 147.50 617.49 149.26 616.21 151.16 C 613.95 154.38 613.42 158.37 612.28 162.05 C 610.51 161.18 608.75 160.30 607.01 159.41 C 606.17 162.91 605.53 166.45 605.16 170.03 C 603.78 169.33 602.43 168.62 601.08 167.89 C 595.04 173.02 587.20 168.91 581.40 165.57 C 571.65 161.02 566.16 151.15 561.38 142.03 C 562.53 147.41 565.22 152.22 567.54 157.13 C 568.03 158.48 566.53 158.95 565.57 158.39 C 561.01 155.87 557.07 152.37 553.64 148.48 C 553.76 150.54 553.90 152.60 554.01 154.67 C 553.49 154.59 552.46 154.42 551.95 154.34 C 549.79 151.68 548.82 148.30 547.49 145.19 C 543.98 147.06 540.11 148.47 537.43 151.55 C 543.54 153.16 549.76 154.31 555.78 156.25 C 566.30 159.41 575.98 165.66 582.51 174.56 C 584.89 177.89 585.85 181.97 586.57 185.93 C 588.84 199.73 588.23 213.76 589.22 227.67 C 591.45 230.00 593.74 235.26 597.67 232.76 C 610.27 225.45 620.07 214.45 631.54 205.63 C 634.83 203.18 637.60 200.00 639.05 196.12 C 642.76 186.59 646.66 177.03 652.50 168.57 C 655.79 163.83 658.87 158.91 660.85 153.47 C 659.64 152.62 658.44 151.77 657.25 150.92 C 656.28 152.17 655.09 154.66 653.12 153.52 C 646.24 150.18 638.78 144.70 638.40 136.31 C 636.23 136.54 634.13 136.18 632.32 134.96 M 508.96 155.98 C 497.73 160.09 489.58 169.25 479.97 175.95 C 466.83 184.22 460.63 199.22 449.89 209.92 C 441.94 217.84 434.98 226.75 429.80 236.73 C 425.63 244.44 421.08 251.94 416.97 259.68 C 425.73 251.13 435.92 244.24 445.07 236.13 C 453.70 228.75 461.34 220.30 468.63 211.62 C 474.85 204.19 481.76 197.37 488.73 190.66 C 489.78 189.35 491.37 189.26 492.92 189.55 C 487.85 197.72 480.62 204.19 474.65 211.66 C 467.11 221.04 459.52 230.51 450.24 238.25 C 441.00 246.31 430.88 253.30 421.78 261.52 C 433.72 259.98 446.09 261.21 457.29 265.75 C 468.45 269.57 479.11 275.18 487.86 283.19 C 498.44 292.93 507.29 304.68 513.34 317.76 C 521.38 312.63 527.96 304.91 530.47 295.59 C 533.14 285.57 532.85 275.06 535.06 264.95 C 537.19 252.52 542.76 241.11 547.84 229.69 C 548.91 227.73 549.72 225.22 552.02 224.38 C 553.68 225.52 552.48 227.64 552.10 229.12 C 548.67 237.63 545.51 246.26 542.92 255.07 C 540.30 264.23 539.06 273.73 538.25 283.21 C 541.20 276.53 543.28 269.42 547.21 263.21 C 551.25 256.75 556.29 251.01 561.18 245.19 C 562.62 243.46 564.26 241.75 566.57 241.25 C 564.82 246.46 561.04 250.57 557.92 254.98 C 552.82 261.83 547.87 269.06 545.58 277.40 C 544.91 283.54 546.95 289.70 549.92 295.02 C 554.25 302.61 557.82 310.78 559.43 319.40 C 560.08 321.91 559.33 324.40 557.99 326.55 C 555.55 320.85 554.77 314.57 551.98 308.99 C 548.63 301.37 542.72 294.85 541.60 286.33 C 539.45 291.43 536.16 295.97 534.32 301.20 C 532.32 306.68 529.06 311.75 524.50 315.44 C 520.75 318.43 516.99 321.89 512.04 322.59 C 506.07 311.60 499.01 301.17 490.26 292.19 C 492.77 303.99 493.26 316.09 495.18 327.98 C 497.82 344.84 503.15 361.13 508.99 377.12 C 510.43 381.45 512.81 385.72 512.20 390.45 C 508.41 388.00 507.22 383.46 505.46 379.59 C 500.74 367.94 496.27 356.13 492.99 343.98 C 488.21 326.48 488.56 308.18 485.58 290.39 C 482.60 294.13 479.27 297.60 475.46 300.51 C 472.29 302.84 470.20 306.34 469.32 310.15 C 467.18 318.94 465.73 327.87 463.82 336.71 C 461.44 347.77 460.01 359.03 456.92 369.93 C 455.26 375.91 452.67 381.57 450.49 387.38 C 447.04 396.13 446.61 405.75 447.13 415.05 C 447.44 421.90 449.47 428.54 452.09 434.84 C 454.37 440.35 457.99 445.20 460.09 450.80 C 463.50 459.44 463.78 468.87 464.25 478.04 C 464.46 483.98 464.52 490.28 461.68 495.69 C 460.53 498.47 457.87 500.00 455.16 500.95 C 456.64 514.16 459.93 527.90 455.76 540.96 C 463.49 539.78 471.10 537.72 478.94 537.26 C 493.82 535.91 509.12 539.19 523.71 534.89 C 535.75 530.91 545.82 522.85 556.94 516.99 C 565.63 512.49 573.35 506.10 579.29 498.31 C 581.86 494.76 583.81 490.46 583.58 486.00 C 582.92 482.05 579.93 479.13 577.62 476.05 C 571.85 480.84 565.13 484.25 558.41 487.48 C 550.49 491.20 542.14 494.13 533.50 495.66 C 524.09 497.09 514.48 496.20 505.20 494.35 C 500.99 493.38 496.63 492.41 492.97 490.01 C 491.46 489.23 491.28 487.45 490.88 486.01 C 503.73 489.97 517.38 492.59 530.82 490.44 C 546.74 487.68 562.09 481.48 575.66 472.76 C 576.78 466.97 578.99 461.08 577.66 455.13 C 576.84 451.26 574.16 448.20 571.75 445.21 C 563.61 448.31 554.66 451.04 545.95 448.88 C 538.85 447.60 533.33 442.54 528.38 437.65 C 520.43 429.33 514.53 419.11 510.82 408.25 C 510.32 406.15 508.96 403.49 510.81 401.68 C 512.95 400.32 514.71 402.51 516.27 403.72 C 520.71 407.78 525.93 410.83 531.08 413.88 C 536.19 417.04 541.76 419.45 547.68 420.59 C 547.67 421.20 547.64 422.43 547.63 423.04 C 543.82 423.91 539.92 423.08 536.39 421.58 C 529.60 418.69 523.28 414.82 517.11 410.80 C 522.32 422.93 530.28 434.37 541.59 441.52 C 550.91 446.75 561.83 443.25 571.18 439.98 C 573.69 432.09 576.01 423.72 574.41 415.41 C 571.99 402.03 565.51 389.92 560.50 377.41 C 557.65 370.53 556.05 363.23 554.36 356.00 C 553.52 351.84 552.15 347.39 553.94 343.27 C 556.25 345.68 556.77 349.04 557.57 352.15 C 561.17 367.68 568.86 381.79 574.33 396.67 C 577.27 385.05 581.15 373.67 583.36 361.88 C 585.57 350.76 586.30 339.42 586.61 328.12 C 588.26 292.06 585.53 256.03 584.45 220.01 C 584.03 208.71 584.22 197.34 582.40 186.15 C 581.78 182.95 581.15 179.54 578.94 177.01 C 574.97 172.34 570.47 167.95 564.96 165.16 C 555.89 160.39 545.64 158.84 535.78 156.54 C 526.99 155.00 517.70 153.32 508.96 155.98 M 401.95 289.95 C 394.93 303.98 390.94 319.24 386.40 334.19 C 381.64 351.01 380.14 368.56 375.54 385.42 C 373.13 393.96 369.34 402.01 366.23 410.31 C 361.03 424.23 362.03 439.41 362.82 453.97 C 364.79 479.92 366.69 505.91 370.75 531.65 C 375.97 535.61 382.80 535.76 389.05 536.25 C 399.46 536.97 409.91 535.98 420.31 536.68 C 426.82 537.38 433.32 538.21 439.86 538.63 C 436.87 533.39 434.93 527.65 433.81 521.74 C 431.47 522.80 428.79 523.95 426.28 522.72 C 422.12 520.71 420.69 515.86 419.16 511.88 C 416.11 514.37 412.11 516.47 408.10 515.05 C 404.73 514.26 403.03 511.06 401.77 508.17 C 399.26 510.71 395.06 512.89 391.82 510.28 C 387.42 505.81 386.56 499.17 385.67 493.24 C 384.65 487.84 385.03 482.32 385.97 476.94 C 387.81 466.76 388.01 456.37 389.73 446.17 C 391.42 434.35 395.22 423.01 398.81 411.67 C 401.79 402.43 401.67 392.60 401.72 383.00 C 401.16 365.28 401.05 347.48 403.47 329.88 C 406.27 307.93 409.56 284.76 423.03 266.45 C 419.94 266.61 416.86 266.39 413.84 265.78 C 409.87 273.83 406.00 281.93 401.95 289.95 M 409.51 321.88 C 407.08 337.14 405.98 352.61 406.28 368.06 C 406.44 381.66 407.57 395.49 404.63 408.89 C 401.56 419.56 397.39 429.96 395.46 440.94 C 392.92 453.18 392.81 465.75 390.45 478.01 C 388.71 487.38 388.70 497.82 393.81 506.18 C 394.75 508.38 397.67 506.82 398.42 505.22 C 400.23 500.38 398.85 495.10 399.49 490.10 C 399.67 487.79 403.53 487.65 403.83 490.02 C 405.31 496.16 404.47 502.86 407.31 508.66 C 409.43 512.56 416.37 510.35 416.32 506.08 C 416.78 501.46 416.17 496.81 416.51 492.18 C 416.52 490.68 418.18 490.09 419.04 489.16 C 419.90 490.14 421.18 490.95 421.47 492.33 C 423.64 500.42 422.52 509.53 427.11 516.88 C 428.21 519.35 431.48 518.66 432.72 516.69 C 433.13 513.15 432.63 509.57 432.77 506.01 C 432.69 497.99 433.61 489.99 433.38 481.97 C 433.53 480.12 432.87 477.56 435.01 476.64 C 436.72 476.94 437.31 478.56 437.53 480.09 C 439.89 496.49 436.32 513.56 441.58 529.57 C 442.90 534.40 445.58 539.30 450.58 541.07 C 453.64 532.67 452.31 523.53 451.52 514.85 C 449.73 503.32 448.56 491.65 448.74 479.96 C 448.85 478.23 448.78 475.82 451.06 475.64 C 451.92 476.58 452.32 477.80 452.48 479.05 C 453.30 484.96 454.00 490.89 454.86 496.80 C 459.45 492.07 458.95 485.03 458.69 478.96 C 458.14 471.78 459.38 464.42 457.46 457.39 C 455.09 448.95 449.01 442.20 446.40 433.85 C 441.73 421.80 441.28 408.51 443.28 395.86 C 444.52 388.16 448.04 381.13 450.63 373.84 C 454.47 362.86 456.04 351.29 458.27 339.93 C 460.17 330.63 461.84 321.29 463.86 312.02 C 466.31 302.43 467.05 292.52 469.08 282.85 C 469.55 283.08 470.48 283.52 470.95 283.74 C 471.77 288.93 470.55 294.20 469.92 299.36 C 474.98 295.44 480.05 291.45 483.89 286.26 C 475.94 279.54 466.67 274.51 456.82 271.21 C 447.59 267.52 437.65 265.25 427.67 265.90 C 415.92 282.10 412.10 302.42 409.51 321.88 M 329.72 442.64 C 321.97 455.69 313.96 468.81 309.23 483.33 C 307.16 489.20 305.93 495.76 301.25 500.26 C 293.96 507.55 287.20 515.66 283.24 525.29 C 280.08 532.55 278.03 540.54 272.72 546.64 C 266.55 553.61 260.87 561.09 256.53 569.36 C 263.74 566.49 268.80 560.45 274.52 555.50 C 277.38 553.01 279.82 550.09 282.31 547.24 C 283.25 545.88 284.71 545.26 286.36 545.37 C 284.62 550.45 281.14 554.68 277.60 558.61 C 270.12 565.29 264.15 573.91 261.07 583.49 C 263.82 582.70 266.36 581.34 268.48 579.41 C 273.62 574.92 278.75 570.41 283.79 565.79 C 284.81 565.07 285.64 563.69 287.04 563.79 C 289.05 563.38 290.05 566.27 288.71 567.58 C 286.23 570.79 282.73 573.04 280.28 576.28 C 277.34 580.11 274.58 584.23 273.42 588.98 C 282.43 585.54 288.26 577.35 296.16 572.21 C 294.81 564.54 295.62 556.74 295.63 549.01 C 295.84 546.67 295.34 543.54 298.04 542.48 C 300.63 550.77 299.01 559.52 299.97 568.00 C 300.54 573.64 305.45 577.62 310.34 579.70 C 312.72 574.73 310.84 569.23 311.10 564.00 C 310.82 556.24 313.87 548.93 317.11 542.06 C 320.74 533.71 323.66 524.90 324.27 515.77 C 324.63 511.11 324.85 506.29 327.16 502.10 C 334.75 486.37 347.12 473.68 358.89 461.03 C 357.93 447.74 356.89 434.31 358.75 421.06 C 360.00 411.44 364.42 402.69 367.72 393.68 C 371.96 382.72 373.95 371.08 375.95 359.55 C 360.57 387.26 346.28 415.59 329.72 442.64 M 562.21 519.18 C 548.58 526.18 536.43 536.60 521.24 540.17 C 506.31 543.34 490.96 540.16 475.92 542.19 C 468.20 542.98 460.76 545.54 452.98 545.83 C 448.85 546.01 445.17 543.60 441.07 543.49 C 434.33 543.10 427.67 542.00 420.94 541.58 C 416.13 541.43 411.32 541.51 406.51 541.46 C 409.39 548.22 411.59 555.31 415.14 561.76 C 425.28 576.67 439.22 588.33 451.32 601.55 C 460.54 611.50 467.62 623.20 473.77 635.23 C 482.21 651.80 490.56 668.53 501.28 683.78 C 503.82 685.49 507.10 684.89 509.99 684.91 C 521.70 684.14 533.29 682.07 545.03 681.75 C 559.00 680.77 573.26 682.94 586.98 679.39 C 600.02 676.36 611.74 668.42 619.72 657.72 C 626.88 649.58 632.52 639.83 634.77 629.15 C 635.75 625.09 634.12 621.08 632.34 617.51 C 622.88 599.29 611.90 581.62 606.14 561.75 C 602.87 551.30 601.06 540.40 597.05 530.18 C 596.20 527.59 594.05 525.91 591.76 524.65 C 588.17 530.27 583.58 535.23 578.30 539.31 C 567.48 547.43 554.75 553.57 541.14 554.76 C 536.34 555.10 531.15 556.40 526.66 554.03 C 534.84 552.59 543.37 552.48 551.15 549.22 C 565.66 543.31 579.01 534.16 589.16 522.16 C 588.40 515.53 585.29 509.52 581.84 503.92 C 576.17 510.02 569.66 515.40 562.21 519.18 M 419.09 574.98 C 425.59 591.81 434.49 607.67 439.92 624.91 C 443.98 637.09 445.91 649.81 448.87 662.27 C 450.65 668.52 452.65 675.02 456.92 680.08 C 461.64 685.29 469.50 685.20 475.82 683.62 C 481.26 682.04 486.69 680.36 491.87 678.07 C 487.33 671.51 483.57 664.46 479.73 657.47 C 471.55 642.67 464.87 626.92 454.47 613.45 C 443.78 599.64 430.13 588.50 419.09 574.98 M 287.12 599.03 C 293.04 593.74 298.27 587.73 303.98 582.20 C 301.67 580.22 299.55 578.05 297.65 575.68 C 292.46 582.54 288.65 590.54 287.12 599.03 M 596.83 679.98 C 587.05 683.94 576.42 685.13 565.95 685.34 C 572.50 694.76 576.04 705.82 579.21 716.74 C 588.11 720.93 598.19 722.01 607.93 721.27 C 619.86 720.31 631.95 716.93 641.66 709.71 C 642.81 708.63 644.58 707.73 644.70 705.97 C 646.67 692.40 644.43 678.66 641.24 665.46 C 639.18 658.11 636.41 650.98 634.58 643.57 C 626.57 659.42 613.55 673.37 596.83 679.98 M 510.78 688.96 C 506.26 695.45 500.90 701.30 496.46 707.86 C 508.81 704.18 522.05 703.79 534.70 706.11 C 544.67 708.16 555.19 712.19 561.12 720.97 C 564.02 715.60 566.31 709.83 570.14 705.02 C 568.07 698.13 565.01 691.61 561.55 685.32 C 544.52 684.63 527.69 687.61 510.78 688.96 M 493.35 712.39 C 487.31 721.52 481.85 731.02 476.85 740.76 C 461.17 771.66 449.47 804.59 442.31 838.49 C 438.47 856.93 436.03 875.75 436.43 894.61 C 447.04 895.16 454.24 905.36 465.00 905.41 C 471.01 905.34 474.46 899.67 477.15 895.08 C 487.49 876.21 493.40 855.32 503.24 836.21 C 521.46 799.28 539.85 762.42 558.67 725.79 C 555.58 719.60 549.12 716.27 542.93 713.94 C 527.12 708.32 509.46 707.42 493.35 712.39 M 616.53 725.26 C 604.64 727.39 591.96 727.51 580.58 723.01 C 582.28 737.90 580.19 753.04 583.12 767.82 C 586.31 785.15 592.31 801.95 600.39 817.60 C 605.32 826.50 610.94 834.99 616.41 843.57 C 622.96 853.75 626.45 865.54 628.84 877.31 C 630.04 881.85 630.44 887.42 634.76 890.24 C 642.39 895.40 652.07 896.50 661.03 895.22 C 668.39 894.36 675.88 892.62 682.06 888.34 C 676.41 881.85 674.16 873.39 670.20 865.93 C 662.75 851.45 657.35 835.89 654.63 819.82 C 651.88 805.95 650.35 791.88 647.91 777.96 C 644.73 756.57 639.94 734.80 643.84 713.16 C 636.28 719.95 626.35 723.37 616.53 725.26 M 649.87 900.81 C 642.13 900.38 634.46 897.45 628.78 892.12 C 625.99 901.27 622.45 910.36 621.92 920.01 C 621.23 927.98 623.15 936.06 626.93 943.07 C 630.09 948.95 636.28 953.00 642.94 953.55 C 652.90 954.50 663.03 953.91 672.86 956.02 C 687.69 959.36 701.90 965.21 717.00 967.36 C 726.92 968.78 736.95 970.86 747.00 969.45 C 756.47 968.10 766.08 967.23 775.26 964.41 C 779.97 962.98 784.36 960.33 787.69 956.69 C 791.69 952.24 790.79 944.53 785.71 941.27 C 777.32 935.44 767.53 932.11 758.42 927.61 C 743.84 920.51 728.70 914.69 714.00 907.89 C 704.23 903.38 694.16 899.05 685.97 891.90 C 675.72 899.67 662.38 901.45 649.87 900.81 M 463.89 909.87 C 453.57 909.61 446.10 901.48 436.50 899.05 C 435.32 907.87 428.66 914.27 425.07 922.08 C 420.74 931.15 415.74 940.10 413.77 950.06 C 412.78 954.46 412.54 959.58 415.68 963.23 C 419.82 968.31 426.16 972.86 433.06 971.65 C 439.34 970.71 445.60 969.45 451.97 969.28 C 469.02 968.13 485.81 971.99 502.39 975.40 C 516.19 978.26 529.86 981.88 543.86 983.70 C 547.22 983.78 551.50 984.90 554.15 982.19 C 556.70 978.02 554.02 973.00 551.60 969.43 C 545.00 960.57 534.48 956.10 525.00 951.10 C 514.09 946.01 504.19 938.78 496.19 929.77 C 488.54 921.00 481.07 910.91 480.65 898.79 C 477.27 904.84 471.41 910.70 463.89 909.87 Z" />
        <path fill="#020202" opacity="1.00"
            d=" M 587.32 541.34 C 589.52 539.36 591.20 536.46 594.33 535.91 C 593.20 540.06 589.94 543.08 587.14 546.15 C 576.79 556.95 562.97 563.29 549.61 569.48 C 540.60 573.66 530.88 576.55 520.92 576.94 C 519.34 577.18 517.93 576.48 517.09 575.15 C 522.29 574.09 527.61 573.49 532.67 571.82 C 540.23 569.37 547.45 566.01 554.62 562.62 C 566.33 556.94 578.14 550.77 587.32 541.34 Z" />
        <path fill="#020202" opacity="1.00"
            d=" M 457.08 593.33 C 459.84 594.15 461.73 596.38 463.86 598.18 C 471.12 604.43 479.26 609.53 487.21 614.83 C 502.46 624.85 516.85 636.16 532.55 645.50 C 537.74 648.70 543.08 651.63 548.41 654.59 C 549.79 655.24 550.75 656.42 551.37 657.80 C 548.25 657.72 545.28 656.69 542.52 655.31 C 524.71 646.53 508.19 635.42 492.01 623.97 C 481.96 616.76 471.37 610.18 462.37 601.65 C 459.92 599.37 457.63 596.74 457.08 593.33 Z" />
    </g>
    <g id="#f0b58bff">
        <path fill="#f0b58b" opacity="1.00"
            d=" M 632.32 134.96 C 634.13 136.18 636.23 136.54 638.40 136.31 C 638.78 144.70 646.24 150.18 653.12 153.52 C 655.09 154.66 656.28 152.17 657.25 150.92 C 658.44 151.77 659.64 152.62 660.85 153.47 C 658.87 158.91 655.79 163.83 652.50 168.57 C 646.66 177.03 642.76 186.59 639.05 196.12 C 637.60 200.00 634.83 203.18 631.54 205.63 C 620.07 214.45 610.27 225.45 597.67 232.76 C 593.74 235.26 591.45 230.00 589.22 227.67 C 588.23 213.76 588.84 199.73 586.57 185.93 C 585.85 181.97 584.89 177.89 582.51 174.56 C 575.98 165.66 566.30 159.41 555.78 156.25 C 549.76 154.31 543.54 153.16 537.43 151.55 C 540.11 148.47 543.98 147.06 547.49 145.19 C 548.82 148.30 549.79 151.68 551.95 154.34 C 552.46 154.42 553.49 154.59 554.01 154.67 C 553.90 152.60 553.76 150.54 553.64 148.48 C 557.07 152.37 561.01 155.87 565.57 158.39 C 566.53 158.95 568.03 158.48 567.54 157.13 C 565.22 152.22 562.53 147.41 561.38 142.03 C 566.16 151.15 571.65 161.02 581.40 165.57 C 587.20 168.91 595.04 173.02 601.08 167.89 C 602.43 168.62 603.78 169.33 605.16 170.03 C 605.53 166.45 606.17 162.91 607.01 159.41 C 608.75 160.30 610.51 161.18 612.28 162.05 C 613.42 158.37 613.95 154.38 616.21 151.16 C 617.49 149.26 618.95 147.50 620.35 145.70 C 619.38 153.00 617.22 160.80 620.17 167.92 C 623.41 156.66 626.54 145.24 632.32 134.96 Z" />
        <path fill="#f0b58b" opacity="1.00"
            d=" M 409.51 321.88 C 412.10 302.42 415.92 282.10 427.67 265.90 C 437.65 265.25 447.59 267.52 456.82 271.21 C 466.67 274.51 475.94 279.54 483.89 286.26 C 480.05 291.45 474.98 295.44 469.92 299.36 C 470.55 294.20 471.77 288.93 470.95 283.74 C 470.48 283.52 469.55 283.08 469.08 282.85 C 467.05 292.52 466.31 302.43 463.86 312.02 C 461.84 321.29 460.17 330.63 458.27 339.93 C 456.04 351.29 454.47 362.86 450.63 373.84 C 448.04 381.13 444.52 388.16 443.28 395.86 C 441.28 408.51 441.73 421.80 446.40 433.85 C 449.01 442.20 455.09 448.95 457.46 457.39 C 459.38 464.42 458.14 471.78 458.69 478.96 C 458.95 485.03 459.45 492.07 454.86 496.80 C 454.00 490.89 453.30 484.96 452.48 479.05 C 452.32 477.80 451.92 476.58 451.06 475.64 C 448.78 475.82 448.85 478.23 448.74 479.96 C 448.56 491.65 449.73 503.32 451.52 514.85 C 452.31 523.53 453.64 532.67 450.58 541.07 C 445.58 539.30 442.90 534.40 441.58 529.57 C 436.32 513.56 439.89 496.49 437.53 480.09 C 437.31 478.56 436.72 476.94 435.01 476.64 C 432.87 477.56 433.53 480.12 433.38 481.97 C 433.61 489.99 432.69 497.99 432.77 506.01 C 432.63 509.57 433.13 513.15 432.72 516.69 C 431.48 518.66 428.21 519.35 427.11 516.88 C 422.52 509.53 423.64 500.42 421.47 492.33 C 421.18 490.95 419.90 490.14 419.04 489.16 C 418.18 490.09 416.52 490.68 416.51 492.18 C 416.17 496.81 416.78 501.46 416.32 506.08 C 416.37 510.35 409.43 512.56 407.31 508.66 C 404.47 502.86 405.31 496.16 403.83 490.02 C 403.53 487.65 399.67 487.79 399.49 490.10 C 398.85 495.10 400.23 500.38 398.42 505.22 C 397.67 506.82 394.75 508.38 393.81 506.18 C 388.70 497.82 388.71 487.38 390.45 478.01 C 392.81 465.75 392.92 453.18 395.46 440.94 C 397.39 429.96 401.56 419.56 404.63 408.89 C 407.57 395.49 406.44 381.66 406.28 368.06 C 405.98 352.61 407.08 337.14 409.51 321.88 Z" />
        <path fill="#f0b58b" opacity="1.00"
            d=" M 329.72 442.64 C 346.28 415.59 360.57 387.26 375.95 359.55 C 373.95 371.08 371.96 382.72 367.72 393.68 C 364.42 402.69 360.00 411.44 358.75 421.06 C 356.89 434.31 357.93 447.74 358.89 461.03 C 347.12 473.68 334.75 486.37 327.16 502.10 C 324.85 506.29 324.63 511.11 324.27 515.77 C 323.66 524.90 320.74 533.71 317.11 542.06 C 313.87 548.93 310.82 556.24 311.10 564.00 C 310.84 569.23 312.72 574.73 310.34 579.70 C 305.45 577.62 300.54 573.64 299.97 568.00 C 299.01 559.52 300.63 550.77 298.04 542.48 C 295.34 543.54 295.84 546.67 295.63 549.01 C 295.62 556.74 294.81 564.54 296.16 572.21 C 288.26 577.35 282.43 585.54 273.42 588.98 C 274.58 584.23 277.34 580.11 280.28 576.28 C 282.73 573.04 286.23 570.79 288.71 567.58 C 290.05 566.27 289.05 563.38 287.04 563.79 C 285.64 563.69 284.81 565.07 283.79 565.79 C 278.75 570.41 273.62 574.92 268.48 579.41 C 266.36 581.34 263.82 582.70 261.07 583.49 C 264.15 573.91 270.12 565.29 277.60 558.61 C 281.14 554.68 284.62 550.45 286.36 545.37 C 284.71 545.26 283.25 545.88 282.31 547.24 C 279.82 550.09 277.38 553.01 274.52 555.50 C 268.80 560.45 263.74 566.49 256.53 569.36 C 260.87 561.09 266.55 553.61 272.72 546.64 C 278.03 540.54 280.08 532.55 283.24 525.29 C 287.20 515.66 293.96 507.55 301.25 500.26 C 305.93 495.76 307.16 489.20 309.23 483.33 C 313.96 468.81 321.97 455.69 329.72 442.64 Z" />
        <path fill="#f0b58b" opacity="1.00"
            d=" M 287.12 599.03 C 288.65 590.54 292.46 582.54 297.65 575.68 C 299.55 578.05 301.67 580.22 303.98 582.20 C 298.27 587.73 293.04 593.74 287.12 599.03 Z" />
        <path fill="#f0b58b" opacity="1.00"
            d=" M 596.83 679.98 C 613.55 673.37 626.57 659.42 634.58 643.57 C 636.41 650.98 639.18 658.11 641.24 665.46 C 644.43 678.66 646.67 692.40 644.70 705.97 C 644.58 707.73 642.81 708.63 641.66 709.71 C 631.95 716.93 619.86 720.31 607.93 721.27 C 598.19 722.01 588.11 720.93 579.21 716.74 C 576.04 705.82 572.50 694.76 565.95 685.34 C 576.42 685.13 587.05 683.94 596.83 679.98 Z" />
        <path fill="#f0b58b" opacity="1.00"
            d=" M 510.78 688.96 C 527.69 687.61 544.52 684.63 561.55 685.32 C 565.01 691.61 568.07 698.13 570.14 705.02 C 566.31 709.83 564.02 715.60 561.12 720.97 C 555.19 712.19 544.67 708.16 534.70 706.11 C 522.05 703.79 508.81 704.18 496.46 707.86 C 500.90 701.30 506.26 695.45 510.78 688.96 Z" />
    </g>
    <g id="#f11b27ff">
        <path fill="var(--shirt-color, grey)" opacity="1.00"
            d=" M 508.96 155.98 C 517.70 153.32 526.99 155.00 535.78 156.54 C 545.64 158.84 555.89 160.39 564.96 165.16 C 570.47 167.95 574.97 172.34 578.94 177.01 C 581.15 179.54 581.78 182.95 582.40 186.15 C 584.22 197.34 584.03 208.71 584.45 220.01 C 585.53 256.03 588.26 292.06 586.61 328.12 C 586.30 339.42 585.57 350.76 583.36 361.88 C 581.15 373.67 577.27 385.05 574.33 396.67 C 568.86 381.79 561.17 367.68 557.57 352.15 C 556.77 349.04 556.25 345.68 553.94 343.27 C 552.15 347.39 553.52 351.84 554.36 356.00 C 556.05 363.23 557.65 370.53 560.50 377.41 C 565.51 389.92 571.99 402.03 574.41 415.41 C 576.01 423.72 573.69 432.09 571.18 439.98 C 561.83 443.25 550.91 446.75 541.59 441.52 C 530.28 434.37 522.32 422.93 517.11 410.80 C 523.28 414.82 529.60 418.69 536.39 421.58 C 539.92 423.08 543.82 423.91 547.63 423.04 C 547.64 422.43 547.67 421.20 547.68 420.59 C 541.76 419.45 536.19 417.04 531.08 413.88 C 525.93 410.83 520.71 407.78 516.27 403.72 C 514.71 402.51 512.95 400.32 510.81 401.68 C 508.96 403.49 510.32 406.15 510.82 408.25 C 514.53 419.11 520.43 429.33 528.38 437.65 C 533.33 442.54 538.85 447.60 545.95 448.88 C 554.66 451.04 563.61 448.31 571.75 445.21 C 574.16 448.20 576.84 451.26 577.66 455.13 C 578.99 461.08 576.78 466.97 575.66 472.76 C 562.09 481.48 546.74 487.68 530.82 490.44 C 517.38 492.59 503.73 489.97 490.88 486.01 C 491.28 487.45 491.46 489.23 492.97 490.01 C 496.63 492.41 500.99 493.38 505.20 494.35 C 514.48 496.20 524.09 497.09 533.50 495.66 C 542.14 494.13 550.49 491.20 558.41 487.48 C 565.13 484.25 571.85 480.84 577.62 476.05 C 579.93 479.13 582.92 482.05 583.58 486.00 C 583.81 490.46 581.86 494.76 579.29 498.31 C 573.35 506.10 565.63 512.49 556.94 516.99 C 545.82 522.85 535.75 530.91 523.71 534.89 C 509.12 539.19 493.82 535.91 478.94 537.26 C 471.10 537.72 463.49 539.78 455.76 540.96 C 459.93 527.90 456.64 514.16 455.16 500.95 C 457.87 500.00 460.53 498.47 461.68 495.69 C 464.52 490.28 464.46 483.98 464.25 478.04 C 463.78 468.87 463.50 459.44 460.09 450.80 C 457.99 445.20 454.37 440.35 452.09 434.84 C 449.47 428.54 447.44 421.90 447.13 415.05 C 446.61 405.75 447.04 396.13 450.49 387.38 C 452.67 381.57 455.26 375.91 456.92 369.93 C 460.01 359.03 461.44 347.77 463.82 336.71 C 465.73 327.87 467.18 318.94 469.32 310.15 C 470.20 306.34 472.29 302.84 475.46 300.51 C 479.27 297.60 482.60 294.13 485.58 290.39 C 488.56 308.18 488.21 326.48 492.99 343.98 C 496.27 356.13 500.74 367.94 505.46 379.59 C 507.22 383.46 508.41 388.00 512.20 390.45 C 512.81 385.72 510.43 381.45 508.99 377.12 C 503.15 361.13 497.82 344.84 495.18 327.98 C 493.26 316.09 492.77 303.99 490.26 292.19 C 499.01 301.17 506.07 311.60 512.04 322.59 C 516.99 321.89 520.75 318.43 524.50 315.44 C 529.06 311.75 532.32 306.68 534.32 301.20 C 536.16 295.97 539.45 291.43 541.60 286.33 C 542.72 294.85 548.63 301.37 551.98 308.99 C 554.77 314.57 555.55 320.85 557.99 326.55 C 559.33 324.40 560.08 321.91 559.43 319.40 C 557.82 310.78 554.25 302.61 549.92 295.02 C 546.95 289.70 544.91 283.54 545.58 277.40 C 547.87 269.06 552.82 261.83 557.92 254.98 C 561.04 250.57 564.82 246.46 566.57 241.25 C 564.26 241.75 562.62 243.46 561.18 245.19 C 556.29 251.01 551.25 256.75 547.21 263.21 C 543.28 269.42 541.20 276.53 538.25 283.21 C 539.06 273.73 540.30 264.23 542.92 255.07 C 545.51 246.26 548.67 237.63 552.10 229.12 C 552.48 227.64 553.68 225.52 552.02 224.38 C 549.72 225.22 548.91 227.73 547.84 229.69 C 542.76 241.11 537.19 252.52 535.06 264.95 C 532.85 275.06 533.14 285.57 530.47 295.59 C 527.96 304.91 521.38 312.63 513.34 317.76 C 507.29 304.68 498.44 292.93 487.86 283.19 C 479.11 275.18 468.45 269.57 457.29 265.75 C 446.09 261.21 433.72 259.98 421.78 261.52 C 430.88 253.30 441.00 246.31 450.24 238.25 C 459.52 230.51 467.11 221.04 474.65 211.66 C 480.62 204.19 487.85 197.72 492.92 189.55 C 491.37 189.26 489.78 189.35 488.73 190.66 C 481.76 197.37 474.85 204.19 468.63 211.62 C 461.34 220.30 453.70 228.75 445.07 236.13 C 435.92 244.24 425.73 251.13 416.97 259.68 C 421.08 251.94 425.63 244.44 429.80 236.73 C 434.98 226.75 441.94 217.84 449.89 209.92 C 460.63 199.22 466.83 184.22 479.97 175.95 C 489.58 169.25 497.73 160.09 508.96 155.98 Z" />
        <path fill="var(--shirt-color, grey)" opacity="1.00"
            d=" M 401.95 289.95 C 406.00 281.93 409.87 273.83 413.84 265.78 C 416.86 266.39 419.94 266.61 423.03 266.45 C 409.56 284.76 406.27 307.93 403.47 329.88 C 401.05 347.48 401.16 365.28 401.72 383.00 C 401.67 392.60 401.79 402.43 398.81 411.67 C 395.22 423.01 391.42 434.35 389.73 446.17 C 388.01 456.37 387.81 466.76 385.97 476.94 C 385.03 482.32 384.65 487.84 385.67 493.24 C 386.56 499.17 387.42 505.81 391.82 510.28 C 395.06 512.89 399.26 510.71 401.77 508.17 C 403.03 511.06 404.73 514.26 408.10 515.05 C 412.11 516.47 416.11 514.37 419.16 511.88 C 420.69 515.86 422.12 520.71 426.28 522.72 C 428.79 523.95 431.47 522.80 433.81 521.74 C 434.93 527.65 436.87 533.39 439.86 538.63 C 433.32 538.21 426.82 537.38 420.31 536.68 C 409.91 535.98 399.46 536.97 389.05 536.25 C 382.80 535.76 375.97 535.61 370.75 531.65 C 366.69 505.91 364.79 479.92 362.82 453.97 C 362.03 439.41 361.03 424.23 366.23 410.31 C 369.34 402.01 373.13 393.96 375.54 385.42 C 380.14 368.56 381.64 351.01 386.40 334.19 C 390.94 319.24 394.93 303.98 401.95 289.95 Z" />
    </g>
    <g id="#ffffffff">
        <path fill="var(--pants-color, grey)" opacity="1.00"
            d=" M 562.21 519.18 C 569.66 515.40 576.17 510.02 581.84 503.92 C 585.29 509.52 588.40 515.53 589.16 522.16 C 579.01 534.16 565.66 543.31 551.15 549.22 C 543.37 552.48 534.84 552.59 526.66 554.03 C 531.15 556.40 536.34 555.10 541.14 554.76 C 554.75 553.57 567.48 547.43 578.30 539.31 C 583.58 535.23 588.17 530.27 591.76 524.65 C 594.05 525.91 596.20 527.59 597.05 530.18 C 601.06 540.40 602.87 551.30 606.14 561.75 C 611.90 581.62 622.88 599.29 632.34 617.51 C 634.12 621.08 635.75 625.09 634.77 629.15 C 632.52 639.83 626.88 649.58 619.72 657.72 C 611.74 668.42 600.02 676.36 586.98 679.39 C 573.26 682.94 559.00 680.77 545.03 681.75 C 533.29 682.07 521.70 684.14 509.99 684.91 C 507.10 684.89 503.82 685.49 501.28 683.78 C 490.56 668.53 482.21 651.80 473.77 635.23 C 467.62 623.20 460.54 611.50 451.32 601.55 C 439.22 588.33 425.28 576.67 415.14 561.76 C 411.59 555.31 409.39 548.22 406.51 541.46 C 411.32 541.51 416.13 541.43 420.94 541.58 C 427.67 542.00 434.33 543.10 441.07 543.49 C 445.17 543.60 448.85 546.01 452.98 545.83 C 460.76 545.54 468.20 542.98 475.92 542.19 C 490.96 540.16 506.31 543.34 521.24 540.17 C 536.43 536.60 548.58 526.18 562.21 519.18 M 587.32 541.34 C 578.14 550.77 566.33 556.94 554.62 562.62 C 547.45 566.01 540.23 569.37 532.67 571.82 C 527.61 573.49 522.29 574.09 517.09 575.15 C 517.93 576.48 519.34 577.18 520.92 576.94 C 530.88 576.55 540.60 573.66 549.61 569.48 C 562.97 563.29 576.79 556.95 587.14 546.15 C 589.94 543.08 593.20 540.06 594.33 535.91 C 591.20 536.46 589.52 539.36 587.32 541.34 M 457.08 593.33 C 457.63 596.74 459.92 599.37 462.37 601.65 C 471.37 610.18 481.96 616.76 492.01 623.97 C 508.19 635.42 524.71 646.53 542.52 655.31 C 545.28 656.69 548.25 657.72 551.37 657.80 C 550.75 656.42 549.79 655.24 548.41 654.59 C 543.08 651.63 537.74 648.70 532.55 645.50 C 516.85 636.16 502.46 624.85 487.21 614.83 C 479.26 609.53 471.12 604.43 463.86 598.18 C 461.73 596.38 459.84 594.15 457.08 593.33 Z" />
        <path fill="var(--pants-color, grey)" opacity="1.00"
            d=" M 419.09 574.98 C 430.13 588.50 443.78 599.64 454.47 613.45 C 464.87 626.92 471.55 642.67 479.73 657.47 C 483.57 664.46 487.33 671.51 491.87 678.07 C 486.69 680.36 481.26 682.04 475.82 683.62 C 469.50 685.20 461.64 685.29 456.92 680.08 C 452.65 675.02 450.65 668.52 448.87 662.27 C 445.91 649.81 443.98 637.09 439.92 624.91 C 434.49 607.67 425.59 591.81 419.09 574.98 Z" />
        <path fill="var(--socks-color, grey)" opacity="1.00"
            d=" M 493.35 712.39 C 509.46 707.42 527.12 708.32 542.93 713.94 C 549.12 716.27 555.58 719.60 558.67 725.79 C 539.85 762.42 521.46 799.28 503.24 836.21 C 493.40 855.32 487.49 876.21 477.15 895.08 C 474.46 899.67 471.01 905.34 465.00 905.41 C 454.24 905.36 447.04 895.16 436.43 894.61 C 436.03 875.75 438.47 856.93 442.31 838.49 C 449.47 804.59 461.17 771.66 476.85 740.76 C 481.85 731.02 487.31 721.52 493.35 712.39 Z" />
        <path fill="var(--socks-color, grey)" opacity="1.00"
            d=" M 616.53 725.26 C 626.35 723.37 636.28 719.95 643.84 713.16 C 639.94 734.80 644.73 756.57 647.91 777.96 C 650.35 791.88 651.88 805.95 654.63 819.82 C 657.35 835.89 662.75 851.45 670.20 865.93 C 674.16 873.39 676.41 881.85 682.06 888.34 C 675.88 892.62 668.39 894.36 661.03 895.22 C 652.07 896.50 642.39 895.40 634.76 890.24 C 630.44 887.42 630.04 881.85 628.84 877.31 C 626.45 865.54 622.96 853.75 616.41 843.57 C 610.94 834.99 605.32 826.50 600.39 817.60 C 592.31 801.95 586.31 785.15 583.12 767.82 C 580.19 753.04 582.28 737.90 580.58 723.01 C 591.96 727.51 604.64 727.39 616.53 725.26 Z" />
    </g>
    <g id="#4d4d4dff">
        <path fill="#4d4d4d" opacity="1.00"
            d=" M 649.87 900.81 C 662.38 901.45 675.72 899.67 685.97 891.90 C 694.16 899.05 704.23 903.38 714.00 907.89 C 728.70 914.69 743.84 920.51 758.42 927.61 C 767.53 932.11 777.32 935.44 785.71 941.27 C 790.79 944.53 791.69 952.24 787.69 956.69 C 784.36 960.33 779.97 962.98 775.26 964.41 C 766.08 967.23 756.47 968.10 747.00 969.45 C 736.95 970.86 726.92 968.78 717.00 967.36 C 701.90 965.21 687.69 959.36 672.86 956.02 C 663.03 953.91 652.90 954.50 642.94 953.55 C 636.28 953.00 630.09 948.95 626.93 943.07 C 623.15 936.06 621.23 927.98 621.92 920.01 C 622.45 910.36 625.99 901.27 628.78 892.12 C 634.46 897.45 642.13 900.38 649.87 900.81 Z" />
        <path fill="#4d4d4d" opacity="1.00"
            d=" M 463.89 909.87 C 471.41 910.70 477.27 904.84 480.65 898.79 C 481.07 910.91 488.54 921.00 496.19 929.77 C 504.19 938.78 514.09 946.01 525.00 951.10 C 534.48 956.10 545.00 960.57 551.60 969.43 C 554.02 973.00 556.70 978.02 554.15 982.19 C 551.50 984.90 547.22 983.78 543.86 983.70 C 529.86 981.88 516.19 978.26 502.39 975.40 C 485.81 971.99 469.02 968.13 451.97 969.28 C 445.60 969.45 439.34 970.71 433.06 971.65 C 426.16 972.86 419.82 968.31 415.68 963.23 C 412.54 959.58 412.78 954.46 413.77 950.06 C 415.74 940.10 420.74 931.15 425.07 922.08 C 428.66 914.27 435.32 907.87 436.50 899.05 C 446.10 901.48 453.57 909.61 463.89 909.87 Z" />
    </g>
</svg>