<?xml version="1.0" encoding="UTF-8" ?>
<!DOCTYPE svg PUBLIC "-//W3C//DTD SVG 1.1//EN" "http://www.w3.org/Graphics/SVG/1.1/DTD/svg11.dtd">
<svg width="1000pt" height="1000pt" viewBox="0 0 1000 1000" version="1.1" xmlns="http://www.w3.org/2000/svg">
    <g id="#000000ff">
        <path fill="#000000" opacity="1.00"
            d=" M 248.36 46.08 C 259.91 38.08 274.66 37.41 288.22 38.33 C 304.78 39.67 321.56 42.73 336.42 50.50 C 342.25 53.61 348.33 57.64 350.50 64.25 C 354.91 64.77 359.35 64.99 363.79 65.29 C 361.01 69.41 358.16 73.76 353.61 76.11 C 360.64 83.28 366.80 91.23 373.67 98.55 C 370.13 100.26 366.20 100.35 362.41 99.47 C 364.18 107.83 365.20 116.42 364.32 124.96 C 363.28 134.96 361.10 145.13 363.25 155.14 C 364.18 160.97 366.89 166.29 368.26 172.00 C 369.28 176.12 366.59 180.01 363.50 182.45 C 359.60 185.86 354.54 187.39 350.37 190.34 C 348.57 191.56 348.66 193.95 348.39 195.87 C 347.74 204.86 345.44 213.83 340.99 221.72 C 358.45 227.02 375.86 233.04 394.06 235.27 C 407.99 237.17 422.10 237.55 435.95 240.09 C 441.60 241.27 447.67 242.91 451.68 247.34 C 453.69 249.44 453.97 252.45 454.61 255.14 C 461.67 256.19 468.87 255.56 475.89 254.46 C 484.90 252.70 493.93 250.43 502.09 246.11 C 511.98 241.32 520.57 234.34 530.26 229.20 C 538.76 224.78 545.63 217.99 553.05 212.05 C 561.49 205.10 569.86 198.00 578.99 191.95 C 583.60 189.03 588.62 186.49 594.06 185.61 C 597.39 185.12 600.55 186.72 603.86 186.82 C 606.89 185.85 609.66 183.70 613.01 184.09 C 619.06 184.16 624.35 187.45 629.18 190.75 C 633.66 193.94 639.76 193.51 644.03 197.11 C 649.07 201.26 653.04 207.34 653.21 214.02 C 653.02 216.07 653.19 219.06 650.73 219.79 C 643.81 222.61 636.19 221.31 628.95 221.13 C 624.86 220.80 621.41 223.27 617.98 225.07 C 610.03 229.50 600.99 231.80 591.93 232.17 C 587.01 232.09 583.23 235.67 579.88 238.80 C 569.81 248.78 560.70 259.72 550.09 269.17 C 536.64 281.70 521.69 292.61 505.59 301.52 C 487.19 312.18 465.83 317.50 444.58 316.79 C 443.76 322.00 443.58 327.47 441.35 332.33 C 440.16 335.12 437.18 337.00 434.12 336.37 C 423.29 334.61 412.28 336.10 401.52 337.71 C 386.32 340.24 372.77 347.89 359.43 355.17 C 359.07 362.42 358.45 369.70 358.88 376.96 C 359.82 385.33 361.52 393.58 362.81 401.90 C 363.66 407.67 363.25 413.64 361.42 419.19 C 359.88 424.71 356.04 429.33 355.06 435.04 C 353.96 440.98 353.92 447.07 354.25 453.08 C 354.70 457.45 359.02 459.63 361.98 462.25 C 368.24 467.07 370.85 475.10 371.76 482.67 C 381.61 484.20 392.47 485.70 399.91 493.02 C 405.23 498.31 405.29 506.39 404.42 513.35 C 410.18 515.97 415.22 519.86 419.96 523.99 C 426.00 529.27 429.83 536.88 437.01 540.86 C 445.52 545.70 454.00 551.09 460.25 558.78 C 462.53 561.55 464.07 564.85 466.35 567.63 C 468.49 570.06 471.68 571.09 474.51 572.47 C 483.25 576.40 491.99 581.28 497.81 589.12 C 502.61 595.61 506.77 602.86 513.49 607.63 C 524.14 615.40 535.26 623.11 542.94 634.03 C 548.32 641.85 552.63 650.56 554.50 659.92 C 555.30 663.85 556.02 667.85 557.63 671.56 C 559.81 676.71 561.27 682.62 565.91 686.22 C 576.45 694.86 586.49 704.13 595.33 714.52 C 605.44 726.15 613.98 739.05 621.55 752.44 C 635.95 777.89 653.84 801.14 672.08 823.91 C 676.02 828.94 679.69 834.22 684.10 838.87 C 689.39 844.06 697.15 844.58 704.11 845.42 C 718.89 846.84 733.62 849.45 747.74 854.12 C 751.93 855.42 756.20 856.43 760.50 857.28 C 773.89 860.32 787.53 856.95 801.02 856.89 C 805.49 856.90 810.26 857.40 814.04 859.99 C 818.10 863.06 819.29 868.98 817.47 873.61 C 814.09 882.40 807.48 889.42 800.67 895.71 C 790.47 905.10 778.42 912.35 765.61 917.60 C 748.64 924.84 730.50 928.94 713.76 936.76 C 704.81 940.66 696.07 945.02 687.41 949.53 C 677.48 954.48 666.47 959.03 655.15 957.45 C 646.93 956.25 640.92 949.28 638.20 941.83 C 632.41 924.44 631.55 906.01 629.76 887.92 C 629.28 879.75 623.29 873.55 618.44 867.51 C 607.08 853.92 594.60 841.34 583.05 827.92 C 572.97 816.98 563.24 805.72 553.37 794.59 C 536.68 775.37 517.97 757.71 504.16 736.16 C 504.14 741.38 504.13 746.90 501.61 751.64 C 498.38 757.76 493.33 762.63 488.31 767.27 C 481.31 774.30 474.00 781.08 468.09 789.08 C 459.31 800.67 451.55 813.05 441.95 824.01 C 432.13 835.89 420.47 846.17 407.62 854.67 C 400.38 859.72 393.14 864.78 386.15 870.17 C 379.40 875.34 374.10 882.07 368.57 888.47 C 381.78 899.58 396.84 908.11 410.68 918.37 C 417.58 923.68 425.64 928.31 429.82 936.28 C 433.96 943.97 434.78 954.20 429.34 961.50 C 423.42 970.06 412.73 973.01 403.06 974.94 C 388.71 977.96 373.54 976.53 359.98 970.95 C 334.36 960.52 312.61 942.97 291.37 925.63 C 283.78 918.79 275.21 911.52 272.99 901.02 C 270.51 891.35 274.33 881.51 279.15 873.24 C 282.91 867.80 287.68 863.01 293.09 859.21 C 296.58 856.65 301.44 856.73 304.52 853.51 C 309.26 848.92 314.63 845.04 319.55 840.65 C 330.52 830.25 339.28 817.70 346.41 804.42 C 353.79 790.97 361.72 777.63 372.46 766.55 C 381.14 757.01 391.39 748.68 403.25 743.42 C 396.35 740.23 389.44 736.99 382.18 734.71 C 380.31 734.08 378.45 735.19 376.70 735.72 C 370.36 738.32 363.81 741.18 356.82 741.00 C 355.74 741.00 355.01 740.51 354.61 739.54 C 352.11 735.08 351.35 729.82 348.55 725.53 C 344.31 721.50 338.91 719.03 334.01 715.94 C 307.20 699.30 280.80 681.16 259.68 657.46 C 247.23 643.44 236.24 628.03 227.61 611.36 C 219.87 595.32 213.57 578.44 210.55 560.85 C 210.11 558.47 210.28 556.05 210.42 553.67 C 205.45 552.82 200.42 552.66 195.41 552.32 C 189.85 551.79 187.30 545.95 185.34 541.48 C 179.60 526.41 185.07 510.40 187.30 495.22 C 191.03 474.51 183.65 454.16 177.67 434.64 C 173.06 418.09 168.68 401.35 167.08 384.21 C 153.68 389.94 141.27 397.89 127.34 402.37 C 128.51 416.36 132.46 429.89 136.63 443.23 C 140.40 454.75 144.25 466.65 143.48 478.94 C 143.06 487.27 139.75 495.22 135.00 502.00 C 133.23 504.34 131.04 506.84 127.98 507.30 C 125.30 507.42 122.88 505.48 122.01 503.02 C 120.74 499.60 120.60 495.90 120.23 492.31 C 115.71 496.05 110.14 499.40 104.05 498.80 C 101.88 498.63 101.06 496.34 99.88 494.88 C 93.66 496.26 88.13 491.65 85.91 486.16 C 82.01 485.79 80.57 482.21 79.89 478.87 C 77.79 478.36 75.31 477.73 74.77 475.29 C 72.84 467.76 73.65 459.79 75.20 452.26 C 75.94 449.32 76.58 446.07 78.86 443.91 C 81.16 441.78 85.08 442.85 86.57 445.43 C 87.29 447.03 87.42 448.81 87.77 450.53 C 91.80 448.01 95.92 445.03 100.93 445.25 C 96.13 435.92 91.66 426.43 87.06 417.00 C 81.73 405.57 76.09 394.18 72.77 381.96 C 71.41 376.66 70.45 370.52 73.55 365.62 C 77.20 360.01 83.44 356.41 89.94 355.20 C 88.37 350.65 86.41 345.94 87.01 341.03 C 88.91 337.95 92.54 336.55 95.18 334.19 C 101.90 328.58 108.67 323.03 115.29 317.32 C 126.58 307.46 135.37 295.22 144.42 283.38 C 149.72 276.39 156.78 271.09 163.27 265.29 C 174.39 255.38 183.75 243.69 194.95 233.86 C 204.68 224.95 215.28 216.79 227.38 211.34 C 230.56 204.37 232.64 196.78 232.20 189.05 C 231.02 189.55 229.85 190.04 228.68 190.54 C 226.89 186.61 226.00 182.37 225.48 178.10 C 224.97 172.20 221.64 167.15 218.87 162.09 C 215.45 156.30 213.25 149.90 209.94 144.06 C 205.26 135.55 200.41 126.87 198.72 117.19 C 198.07 117.21 196.76 117.24 196.11 117.26 C 192.04 110.88 191.92 102.37 195.92 95.93 C 198.15 91.77 202.08 88.80 204.28 84.66 C 205.84 75.72 210.01 67.03 216.97 61.06 C 222.99 55.81 231.17 54.27 237.59 49.64 C 241.44 47.26 244.08 43.35 248.11 41.22 C 248.21 42.84 248.29 44.46 248.36 46.08 M 341.28 99.22 C 341.00 103.39 344.26 107.03 345.68 110.86 C 342.46 110.55 339.25 110.20 336.04 109.80 C 336.15 110.38 336.36 111.54 336.47 112.12 C 331.65 112.27 326.84 111.73 322.02 111.90 C 318.35 115.11 313.84 117.02 309.20 118.37 C 309.93 122.26 310.36 126.36 309.07 130.18 C 307.83 134.42 304.54 137.74 303.50 142.04 C 303.02 147.04 304.12 152.04 305.32 156.87 C 303.21 155.44 301.09 154.04 299.06 152.51 C 300.70 156.64 301.26 161.09 301.12 165.51 C 293.68 160.16 287.89 152.76 279.96 148.06 C 275.76 145.58 271.02 143.06 265.97 143.93 C 263.83 144.27 260.83 145.27 260.89 147.93 C 261.07 151.09 262.74 153.90 264.53 156.42 C 269.25 162.76 274.65 168.57 280.54 173.84 C 274.80 176.41 268.17 175.49 263.08 171.91 C 264.30 180.37 262.75 188.88 259.62 196.77 C 258.81 195.56 258.01 194.36 257.22 193.15 C 256.43 194.38 255.83 196.30 254.04 196.29 C 247.91 196.31 241.95 194.39 236.34 192.04 C 235.91 198.11 234.50 204.11 231.85 209.60 C 241.58 206.35 252.06 206.33 262.10 207.91 C 271.39 209.54 280.87 210.17 289.95 212.87 C 293.19 213.92 296.62 213.64 299.97 213.81 C 311.96 214.59 323.83 216.79 335.37 220.13 C 339.52 212.62 341.44 204.15 342.80 195.74 C 343.38 192.54 343.93 188.89 346.66 186.74 C 351.55 182.77 358.18 181.19 362.28 176.20 C 364.26 173.90 362.22 170.99 361.54 168.58 C 357.70 159.55 356.38 149.62 357.35 139.87 C 354.73 140.08 352.06 139.93 349.49 140.49 C 347.16 142.61 345.55 145.45 342.97 147.32 C 341.42 147.76 339.97 146.82 338.60 146.27 C 335.08 144.51 331.53 142.82 327.96 141.16 C 329.14 137.68 331.10 134.30 334.42 132.47 C 341.78 128.10 351.25 129.83 358.10 134.40 C 359.69 125.05 360.51 115.57 360.04 106.08 C 353.83 103.73 348.02 99.75 341.28 99.22 M 604.07 192.14 C 600.66 192.01 597.42 189.69 594.00 190.84 C 586.14 192.58 579.86 197.89 573.47 202.46 C 560.26 212.13 548.48 223.75 534.60 232.49 C 526.00 236.61 518.97 243.24 510.41 247.40 C 493.64 256.34 474.69 261.83 455.56 260.57 C 456.71 271.72 456.11 283.60 450.60 293.63 C 447.27 299.79 445.79 306.71 444.91 313.61 C 457.73 312.81 470.70 311.35 482.80 306.79 C 497.73 301.63 511.24 293.15 524.05 284.07 C 537.82 274.08 550.54 262.65 562.06 250.13 C 567.47 244.51 572.60 238.58 578.44 233.39 C 581.98 230.36 586.07 227.38 590.92 227.20 C 599.65 226.62 608.42 224.56 616.05 220.16 C 620.29 217.71 624.97 215.40 630.02 216.02 C 636.47 216.68 643.02 217.08 649.40 215.62 C 648.60 209.87 646.01 204.19 641.29 200.64 C 637.18 197.64 631.47 198.74 627.42 195.58 C 623.43 192.65 619.22 189.48 614.08 189.13 C 610.35 188.44 607.59 191.71 604.07 192.14 M 237.60 213.39 C 223.69 217.04 211.95 225.98 201.29 235.30 C 189.99 244.98 180.26 256.30 169.48 266.53 C 162.34 273.37 153.77 278.82 148.02 287.02 C 137.46 301.56 126.22 315.88 112.01 327.06 C 104.77 332.63 98.11 338.95 90.38 343.87 C 94.43 357.92 100.17 371.58 107.96 383.99 C 111.73 389.67 116.08 396.02 122.99 397.99 C 129.07 398.00 134.35 394.47 139.36 391.42 C 147.99 386.19 157.51 382.66 167.00 379.34 C 163.08 362.91 161.68 345.90 162.62 329.04 C 162.95 326.38 162.89 322.98 165.76 321.70 C 166.70 333.60 166.14 345.59 167.76 357.44 C 168.97 347.18 171.69 337.14 175.58 327.57 C 177.11 323.93 178.22 319.86 181.16 317.06 C 181.71 316.44 184.93 315.22 183.92 317.09 C 176.48 336.08 172.40 356.57 173.33 377.02 C 173.88 394.11 178.49 410.69 182.62 427.17 C 187.63 445.18 194.25 463.12 194.62 482.02 C 194.99 493.63 191.32 504.78 189.53 516.13 C 187.72 526.37 188.62 537.19 193.18 546.61 C 201.10 546.94 209.19 546.88 216.83 549.35 C 225.69 552.28 234.59 555.74 244.03 556.17 C 253.94 556.69 263.72 554.56 273.30 552.26 C 288.53 548.60 303.12 542.81 318.13 538.40 C 339.76 531.57 362.42 528.96 384.31 523.17 C 389.50 521.84 394.40 519.60 399.01 516.89 C 400.02 510.53 400.74 503.09 396.25 497.82 C 390.27 491.51 381.13 490.36 372.97 489.07 C 355.72 486.84 337.96 485.33 321.90 478.12 C 307.71 471.49 295.06 461.97 283.48 451.50 C 277.64 446.04 271.98 440.33 267.06 434.02 C 265.28 431.56 263.09 428.88 263.54 425.63 C 265.93 425.55 267.23 427.87 268.69 429.37 C 276.17 438.52 285.34 446.06 294.56 453.37 C 302.15 459.35 310.12 464.90 318.64 469.48 C 333.64 477.74 350.94 480.09 367.69 482.11 C 366.28 477.87 364.95 473.44 362.16 469.87 C 358.89 465.73 353.61 463.76 350.48 459.50 C 348.08 456.19 348.04 451.91 348.34 448.00 C 348.90 440.27 349.49 432.21 353.28 425.27 C 356.75 418.77 358.64 411.27 357.60 403.90 C 356.36 395.72 354.58 387.62 353.42 379.43 C 352.37 372.07 353.66 364.69 355.01 357.47 C 350.20 359.60 345.36 361.87 340.14 362.79 C 336.11 363.50 332.02 363.69 327.96 364.14 C 323.81 364.49 319.56 365.53 315.47 364.20 C 316.90 363.15 318.28 361.88 320.06 361.46 C 327.25 359.59 334.81 359.26 341.80 356.58 C 356.80 351.54 369.88 342.16 384.90 337.15 C 396.15 333.11 408.17 331.85 420.06 331.69 C 425.34 331.64 430.65 332.75 435.91 331.76 C 437.53 329.97 437.49 327.31 437.89 325.05 C 438.90 315.36 439.64 305.45 443.30 296.32 C 444.64 293.06 446.56 290.07 447.84 286.79 C 449.64 282.45 450.12 277.73 450.49 273.10 C 451.03 266.06 451.00 258.81 448.95 252.00 C 447.62 247.87 442.69 247.13 439.08 246.05 C 423.32 242.84 407.08 243.52 391.25 240.71 C 383.80 239.15 376.27 241.16 369.08 243.04 C 356.87 246.68 346.76 254.74 335.55 260.49 C 327.22 264.86 318.10 267.50 308.92 269.42 C 305.33 270.01 300.98 271.25 298.22 268.08 C 305.26 264.93 313.05 264.07 320.19 261.19 C 339.00 254.69 354.60 240.13 374.82 237.59 C 348.44 231.86 323.33 219.61 295.94 219.16 C 282.58 219.47 269.47 223.19 256.10 223.05 C 255.60 222.56 254.61 221.58 254.12 221.09 C 262.87 217.89 272.18 216.61 281.28 214.76 C 266.76 214.03 252.07 210.17 237.60 213.39 M 78.95 369.87 C 77.26 374.66 79.12 379.77 80.44 384.42 C 87.45 405.34 98.24 424.69 106.93 444.91 C 108.19 448.06 110.58 452.81 106.18 454.63 C 103.49 452.28 100.72 449.23 96.74 450.38 C 97.05 451.83 97.35 453.28 97.64 454.74 C 103.19 455.36 104.42 461.36 104.27 465.97 C 110.30 466.68 112.19 473.21 113.60 478.16 C 114.24 480.28 114.77 484.82 111.25 483.84 C 107.31 479.95 108.59 473.13 103.95 469.70 C 103.40 477.65 103.63 485.64 103.39 493.61 C 109.98 493.66 114.61 488.57 119.68 485.17 C 118.88 479.98 116.10 475.53 113.93 470.87 C 112.82 469.13 115.06 467.21 116.64 468.31 C 119.64 470.31 121.61 473.51 123.44 476.55 C 127.03 483.49 125.60 491.58 126.39 499.07 C 126.45 500.76 127.46 502.17 128.36 503.53 C 133.25 497.73 136.74 490.63 137.86 483.10 C 139.94 469.32 135.10 455.86 130.91 442.96 C 127.00 429.98 123.07 416.76 122.78 403.09 C 117.80 401.81 113.40 398.89 110.08 395.00 C 101.21 384.64 95.97 371.85 91.32 359.19 C 86.65 361.95 81.46 364.82 78.95 369.87 M 78.77 475.29 C 80.02 473.36 80.66 468.20 83.72 470.46 C 84.90 474.33 84.22 478.53 85.11 482.49 C 85.64 479.58 85.61 476.48 86.95 473.79 C 87.49 473.74 88.58 473.65 89.12 473.60 C 90.74 477.86 89.93 482.76 92.10 486.86 C 93.45 489.31 96.16 490.38 98.60 491.41 C 97.78 482.63 98.12 473.79 98.97 465.03 C 98.95 463.07 99.48 460.07 97.22 459.15 C 94.91 461.17 95.25 465.39 92.03 466.37 C 90.57 466.08 89.47 464.56 90.02 463.10 C 90.77 459.89 92.02 456.81 92.60 453.56 C 88.73 455.04 87.63 459.99 83.79 461.16 C 82.82 458.08 84.52 455.20 85.88 452.56 C 84.73 450.77 83.57 448.98 82.31 447.27 C 77.97 455.79 77.55 465.95 78.77 475.29 M 379.86 529.43 C 358.62 534.54 336.85 537.47 316.00 544.16 C 295.26 550.29 275.04 558.77 253.48 561.68 C 255.46 575.85 260.31 589.49 266.26 602.46 C 267.67 605.75 269.93 608.81 270.09 612.52 C 266.36 610.23 264.50 606.12 262.53 602.42 C 259.13 595.52 256.19 588.40 253.57 581.18 C 251.53 574.96 249.22 568.57 249.86 561.92 C 237.35 563.04 225.19 559.02 213.67 554.64 C 217.66 574.07 224.48 592.88 233.51 610.53 C 242.69 627.05 253.63 642.65 266.52 656.50 C 288.78 680.79 316.70 698.79 344.34 716.28 C 333.42 697.61 317.09 683.13 302.05 667.91 C 300.28 665.97 297.65 664.00 298.35 661.02 C 303.89 664.53 308.58 669.18 313.50 673.48 C 321.79 680.87 329.53 688.85 336.70 697.34 C 346.67 708.75 354.13 722.36 358.13 736.99 C 364.19 735.51 369.86 732.89 375.53 730.33 C 383.97 726.52 393.50 727.70 402.27 725.16 C 416.66 721.72 427.73 710.96 436.88 699.90 C 443.12 691.81 447.91 682.73 453.78 674.38 C 440.96 663.56 426.77 653.43 418.37 638.52 C 416.42 634.65 412.85 632.01 409.43 629.53 C 401.59 624.20 392.99 620.06 384.16 616.63 C 374.47 612.83 365.05 608.41 355.49 604.32 C 351.29 602.45 346.46 601.71 342.97 598.53 C 344.59 598.15 346.27 598.07 347.88 598.63 C 355.46 600.55 362.99 602.75 370.17 605.88 C 384.99 612.28 400.85 617.18 413.51 627.58 C 411.92 622.80 411.05 617.83 410.62 612.82 C 410.37 609.09 408.10 605.93 405.88 603.10 C 401.78 598.15 397.78 593.12 393.83 588.05 C 390.45 583.77 388.50 578.41 388.24 572.98 C 388.17 571.38 388.48 568.48 390.78 569.24 C 392.09 574.22 393.32 579.38 396.49 583.58 C 401.23 590.02 406.40 596.14 410.93 602.74 C 412.36 594.72 415.04 586.93 418.53 579.58 C 420.30 576.50 421.73 572.64 425.40 571.38 C 425.59 572.83 425.37 574.21 424.73 575.51 C 418.32 588.55 412.85 603.38 416.20 618.07 C 418.85 633.74 429.38 646.60 441.09 656.71 C 444.24 641.75 454.00 629.23 464.66 618.71 C 474.12 609.92 485.21 601.70 498.29 599.69 C 495.22 595.17 492.30 590.44 488.06 586.91 C 481.93 581.86 474.44 578.97 467.37 575.54 C 457.91 570.19 446.67 570.42 436.36 567.89 C 437.65 566.82 439.10 565.78 440.89 565.96 C 447.28 566.06 453.64 567.08 459.88 568.44 C 456.81 562.93 452.53 558.20 447.51 554.41 C 440.12 548.43 430.53 545.27 424.64 537.48 C 419.06 529.98 411.85 523.85 403.78 519.19 C 397.42 525.47 388.28 527.47 379.86 529.43 M 465.16 625.12 C 456.03 635.03 447.25 646.52 445.22 660.20 C 450.19 664.01 454.65 668.43 459.51 672.38 C 472.76 681.68 485.46 692.39 494.18 706.21 C 508.52 705.68 521.76 699.03 533.97 692.01 C 541.60 687.28 549.30 682.06 554.26 674.39 C 551.45 665.43 549.91 655.99 545.34 647.69 C 540.05 636.61 531.27 627.75 521.55 620.47 C 514.39 614.97 506.24 610.45 500.72 603.10 C 486.53 605.51 475.03 615.23 465.16 625.12 M 448.16 694.17 C 440.80 706.06 431.22 716.82 419.32 724.30 C 410.77 729.69 400.76 732.13 390.80 733.13 C 403.39 737.56 415.36 743.84 425.82 752.16 C 427.52 753.28 428.13 755.23 427.98 757.21 C 421.08 753.80 414.93 749.05 407.95 745.77 C 405.83 746.95 403.71 748.14 401.62 749.38 C 404.29 756.21 410.24 760.89 416.04 765.01 C 431.13 775.90 449.92 780.21 468.23 781.31 C 474.30 774.35 480.98 767.97 487.69 761.65 C 492.82 757.01 497.71 751.15 498.25 743.97 C 499.03 733.49 496.03 723.03 491.38 713.73 C 483.94 699.20 471.19 688.52 458.55 678.65 C 454.52 683.43 451.68 689.04 448.16 694.17 M 554.63 681.90 C 546.94 691.17 536.49 697.60 525.89 703.04 C 516.91 707.40 507.40 711.29 497.33 711.89 C 500.66 718.11 501.16 725.61 505.85 731.12 C 521.17 753.42 540.84 772.12 558.74 792.27 C 576.85 812.50 594.65 833.00 613.14 852.89 C 621.98 863.12 632.34 873.00 636.00 886.48 C 643.91 888.06 652.57 888.58 660.09 885.12 C 664.58 883.04 667.00 878.44 669.25 874.29 C 674.06 865.08 674.12 854.42 677.67 844.80 C 678.18 843.02 677.76 841.02 676.60 839.60 C 673.23 835.24 669.94 830.82 666.58 826.46 C 648.54 804.13 630.94 781.27 616.80 756.23 C 608.40 741.15 598.73 726.73 587.06 713.98 C 577.09 702.46 565.10 692.93 554.63 681.90 M 354.49 801.45 C 346.03 817.00 336.51 832.30 323.43 844.42 C 318.27 849.32 311.95 852.86 307.02 857.99 C 304.11 862.45 305.97 867.97 307.66 872.54 C 311.28 880.48 317.08 887.85 324.81 892.13 C 332.85 895.12 341.87 898.22 350.38 895.18 C 359.69 892.20 365.44 883.68 371.80 876.83 C 379.04 868.18 388.62 862.07 397.64 855.47 C 408.50 847.88 419.66 840.51 428.85 830.86 C 442.55 817.17 453.24 800.94 464.91 785.58 C 448.76 785.97 433.12 780.41 418.94 773.11 C 409.90 768.57 401.10 761.82 397.61 751.96 C 379.20 764.38 365.15 782.16 354.49 801.45 M 683.79 847.62 C 682.16 852.39 681.17 857.33 680.10 862.24 C 677.87 872.03 673.32 881.90 664.96 887.90 C 656.33 893.58 645.35 893.09 635.62 891.17 C 637.80 903.75 638.67 916.55 641.64 929.00 C 643.20 936.66 644.87 945.53 651.94 950.11 C 657.96 953.10 665.21 952.42 671.46 950.43 C 681.61 946.91 690.68 941.01 700.36 936.45 C 710.27 931.78 720.25 927.17 730.68 923.76 C 751.29 916.96 772.77 910.71 790.20 897.24 C 797.89 891.33 805.28 884.69 810.38 876.36 C 812.05 873.36 814.11 869.74 812.53 866.29 C 811.52 863.60 808.43 862.76 805.88 862.40 C 790.86 860.99 775.99 866.70 761.01 864.21 C 749.59 862.67 739.11 857.53 727.84 855.41 C 713.32 851.88 698.34 850.97 683.79 847.62 M 277.44 891.95 C 276.71 898.43 278.95 905.01 283.04 910.03 C 289.43 917.97 297.67 924.08 305.54 930.45 C 317.48 940.03 329.87 949.08 343.05 956.87 C 354.56 963.37 366.71 969.53 380.02 971.08 C 391.20 972.44 402.63 970.75 413.28 967.24 C 419.73 965.12 425.96 960.61 428.00 953.86 C 430.26 945.26 426.10 936.03 419.21 930.76 C 401.85 916.97 382.60 905.75 365.57 891.52 C 358.49 898.74 348.03 903.06 337.90 900.99 C 330.22 899.70 322.35 897.63 316.00 892.94 C 306.68 884.94 299.30 873.56 299.24 860.92 C 288.12 867.67 279.20 878.80 277.44 891.95 Z" />
        <path fill="#000000" opacity="1.00"
            d=" M 362.26 329.22 C 366.75 327.84 371.27 326.25 376.00 325.95 C 377.64 325.50 378.75 326.68 379.61 327.90 C 374.34 329.51 368.99 330.85 363.86 332.86 C 350.45 337.88 336.33 341.27 321.96 341.38 C 299.04 341.79 276.25 338.80 253.46 336.85 C 247.56 336.22 241.54 336.64 235.77 335.13 C 238.72 331.40 243.86 332.45 248.01 332.30 C 267.09 333.18 286.13 334.85 305.20 335.95 C 315.16 336.72 325.20 336.63 335.14 335.62 C 344.38 334.50 353.42 332.09 362.26 329.22 Z" />
        <path fill="#000000" opacity="1.00"
            d=" M 288.29 420.67 C 287.46 419.25 287.47 417.43 288.98 416.48 C 290.56 416.13 292.04 416.99 293.50 417.47 C 309.34 423.91 325.05 430.89 341.63 435.21 C 343.05 438.27 338.78 437.33 337.02 437.33 C 322.53 434.64 309.12 428.17 295.40 423.02 C 301.24 430.27 309.25 435.19 317.20 439.77 C 321.45 442.26 326.24 444.09 329.52 447.93 C 323.73 447.99 318.68 444.89 313.70 442.37 C 303.86 437.07 293.72 430.83 288.29 420.67 Z" />
        <path fill="#000000" opacity="1.00"
            d=" M 207.34 436.17 C 210.47 436.34 211.94 439.32 213.51 441.56 C 219.34 450.42 224.31 459.83 228.38 469.63 C 233.36 481.23 238.41 492.83 242.44 504.81 C 243.46 507.43 243.49 511.20 240.42 512.43 C 236.68 513.64 232.68 512.48 228.92 511.91 C 225.34 511.10 220.65 510.85 219.20 506.77 C 225.43 506.89 231.60 508.10 237.85 507.89 C 230.87 489.28 223.66 470.72 215.19 452.74 C 212.46 447.27 209.18 442.04 207.34 436.17 Z" />
    </g>
    <g id="#f0b58bff">
        <path fill="#f0b58b" opacity="1.00"
            d=" M 341.28 99.22 C 348.02 99.75 353.83 103.73 360.04 106.08 C 360.51 115.57 359.69 125.05 358.10 134.40 C 351.25 129.83 341.78 128.10 334.42 132.47 C 331.10 134.30 329.14 137.68 327.96 141.16 C 331.53 142.82 335.08 144.51 338.60 146.27 C 339.97 146.82 341.42 147.76 342.97 147.32 C 345.55 145.45 347.16 142.61 349.49 140.49 C 352.06 139.93 354.73 140.08 357.35 139.87 C 356.38 149.62 357.70 159.55 361.54 168.58 C 362.22 170.99 364.26 173.90 362.28 176.20 C 358.18 181.19 351.55 182.77 346.66 186.74 C 343.93 188.89 343.38 192.54 342.80 195.74 C 341.44 204.15 339.52 212.62 335.37 220.13 C 323.83 216.79 311.96 214.59 299.97 213.81 C 296.62 213.64 293.19 213.92 289.95 212.87 C 280.87 210.17 271.39 209.54 262.10 207.91 C 252.06 206.33 241.58 206.35 231.85 209.60 C 234.50 204.11 235.91 198.11 236.34 192.04 C 241.95 194.39 247.91 196.31 254.04 196.29 C 255.83 196.30 256.43 194.38 257.22 193.15 C 258.01 194.36 258.81 195.56 259.62 196.77 C 262.75 188.88 264.30 180.37 263.08 171.91 C 268.17 175.49 274.80 176.41 280.54 173.84 C 274.65 168.57 269.25 162.76 264.53 156.42 C 262.74 153.90 261.07 151.09 260.89 147.93 C 260.83 145.27 263.83 144.27 265.97 143.93 C 271.02 143.06 275.76 145.58 279.96 148.06 C 287.89 152.76 293.68 160.16 301.12 165.51 C 301.26 161.09 300.70 156.64 299.06 152.51 C 301.09 154.04 303.21 155.44 305.32 156.87 C 304.12 152.04 303.02 147.04 303.50 142.04 C 304.54 137.74 307.83 134.42 309.07 130.18 C 310.36 126.36 309.93 122.26 309.20 118.37 C 313.84 117.02 318.35 115.11 322.02 111.90 C 326.84 111.73 331.65 112.27 336.47 112.12 C 336.36 111.54 336.15 110.38 336.04 109.80 C 339.25 110.20 342.46 110.55 345.68 110.86 C 344.26 107.03 341.00 103.39 341.28 99.22 Z" />
        <path fill="#f0b58b" opacity="1.00"
            d=" M 604.07 192.14 C 607.59 191.71 610.35 188.44 614.08 189.13 C 619.22 189.48 623.43 192.65 627.42 195.58 C 631.47 198.74 637.18 197.64 641.29 200.64 C 646.01 204.19 648.60 209.87 649.40 215.62 C 643.02 217.08 636.47 216.68 630.02 216.02 C 624.97 215.40 620.29 217.71 616.05 220.16 C 608.42 224.56 599.65 226.62 590.92 227.20 C 586.07 227.38 581.98 230.36 578.44 233.39 C 572.60 238.58 567.47 244.51 562.06 250.13 C 550.54 262.65 537.82 274.08 524.05 284.07 C 511.24 293.15 497.73 301.63 482.80 306.79 C 470.70 311.35 457.73 312.81 444.91 313.61 C 445.79 306.71 447.27 299.79 450.60 293.63 C 456.11 283.60 456.71 271.72 455.56 260.57 C 474.69 261.83 493.64 256.34 510.41 247.40 C 518.97 243.24 526.00 236.61 534.60 232.49 C 548.48 223.75 560.26 212.13 573.47 202.46 C 579.86 197.89 586.14 192.58 594.00 190.84 C 597.42 189.69 600.66 192.01 604.07 192.14 Z" />
        <path fill="#f0b58b" opacity="1.00"
            d=" M 78.95 369.87 C 81.46 364.82 86.65 361.95 91.32 359.19 C 95.97 371.85 101.21 384.64 110.08 395.00 C 113.40 398.89 117.80 401.81 122.78 403.09 C 123.07 416.76 127.00 429.98 130.91 442.96 C 135.10 455.86 139.94 469.32 137.86 483.10 C 136.74 490.63 133.25 497.73 128.36 503.53 C 127.46 502.17 126.45 500.76 126.39 499.07 C 125.60 491.58 127.03 483.49 123.44 476.55 C 121.61 473.51 119.64 470.31 116.64 468.31 C 115.06 467.21 112.82 469.13 113.93 470.87 C 116.10 475.53 118.88 479.98 119.68 485.17 C 114.61 488.57 109.98 493.66 103.39 493.61 C 103.63 485.64 103.40 477.65 103.95 469.70 C 108.59 473.13 107.31 479.95 111.25 483.84 C 114.77 484.82 114.24 480.28 113.60 478.16 C 112.19 473.21 110.30 466.68 104.27 465.97 C 104.42 461.36 103.19 455.36 97.64 454.74 C 97.35 453.28 97.05 451.83 96.74 450.38 C 100.72 449.23 103.49 452.28 106.18 454.63 C 110.58 452.81 108.19 448.06 106.93 444.91 C 98.24 424.69 87.45 405.34 80.44 384.42 C 79.12 379.77 77.26 374.66 78.95 369.87 Z" />
        <path fill="#f0b58b" opacity="1.00"
            d=" M 78.77 475.29 C 77.55 465.95 77.97 455.79 82.31 447.27 C 83.57 448.98 84.73 450.77 85.88 452.56 C 84.52 455.20 82.82 458.08 83.79 461.16 C 87.63 459.99 88.73 455.04 92.60 453.56 C 92.02 456.81 90.77 459.89 90.02 463.10 C 89.47 464.56 90.57 466.08 92.03 466.37 C 95.25 465.39 94.91 461.17 97.22 459.15 C 99.48 460.07 98.95 463.07 98.97 465.03 C 98.12 473.79 97.78 482.63 98.60 491.41 C 96.16 490.38 93.45 489.31 92.10 486.86 C 89.93 482.76 90.74 477.86 89.12 473.60 C 88.58 473.65 87.49 473.74 86.95 473.79 C 85.61 476.48 85.64 479.58 85.11 482.49 C 84.22 478.53 84.90 474.33 83.72 470.46 C 80.66 468.20 80.02 473.36 78.77 475.29 Z" />
        <path fill="#f0b58b" opacity="1.00"
            d=" M 465.16 625.12 C 475.03 615.23 486.53 605.51 500.72 603.10 C 506.24 610.45 514.39 614.97 521.55 620.47 C 531.27 627.75 540.05 636.61 545.34 647.69 C 549.91 655.99 551.45 665.43 554.26 674.39 C 549.30 682.06 541.60 687.28 533.97 692.01 C 521.76 699.03 508.52 705.68 494.18 706.21 C 485.46 692.39 472.76 681.68 459.51 672.38 C 454.65 668.43 450.19 664.01 445.22 660.20 C 447.25 646.52 456.03 635.03 465.16 625.12 Z" />
        <path fill="#f0b58b" opacity="1.00"
            d=" M 448.16 694.17 C 451.68 689.04 454.52 683.43 458.55 678.65 C 471.19 688.52 483.94 699.20 491.38 713.73 C 496.03 723.03 499.03 733.49 498.25 743.97 C 497.71 751.15 492.82 757.01 487.69 761.65 C 480.98 767.97 474.30 774.35 468.23 781.31 C 449.92 780.21 431.13 775.90 416.04 765.01 C 410.24 760.89 404.29 756.21 401.62 749.38 C 403.71 748.14 405.83 746.95 407.95 745.77 C 414.93 749.05 421.08 753.80 427.98 757.21 C 428.13 755.23 427.52 753.28 425.82 752.16 C 415.36 743.84 403.39 737.56 390.80 733.13 C 400.76 732.13 410.77 729.69 419.32 724.30 C 431.22 716.82 440.80 706.06 448.16 694.17 Z" />
    </g>
    <g id="#f11b27ff">
        <path fill="var(--shirt-color, grey)" opacity="1.00"
            d=" M 237.60 213.39 C 252.07 210.17 266.76 214.03 281.28 214.76 C 272.18 216.61 262.87 217.89 254.12 221.09 C 254.61 221.58 255.60 222.56 256.10 223.05 C 269.47 223.19 282.58 219.47 295.94 219.16 C 323.33 219.61 348.44 231.86 374.82 237.59 C 354.60 240.13 339.00 254.69 320.19 261.19 C 313.05 264.07 305.26 264.93 298.22 268.08 C 300.98 271.25 305.33 270.01 308.92 269.42 C 318.10 267.50 327.22 264.86 335.55 260.49 C 346.76 254.74 356.87 246.68 369.08 243.04 C 376.27 241.16 383.80 239.15 391.25 240.71 C 407.08 243.52 423.32 242.84 439.08 246.05 C 442.69 247.13 447.62 247.87 448.95 252.00 C 451.00 258.81 451.03 266.06 450.49 273.10 C 450.12 277.73 449.64 282.45 447.84 286.79 C 446.56 290.07 444.64 293.06 443.30 296.32 C 439.64 305.45 438.90 315.36 437.89 325.05 C 437.49 327.31 437.53 329.97 435.91 331.76 C 430.65 332.75 425.34 331.64 420.06 331.69 C 408.17 331.85 396.15 333.11 384.90 337.15 C 369.88 342.16 356.80 351.54 341.80 356.58 C 334.81 359.26 327.25 359.59 320.06 361.46 C 318.28 361.88 316.90 363.15 315.47 364.20 C 319.56 365.53 323.81 364.49 327.96 364.14 C 332.02 363.69 336.11 363.50 340.14 362.79 C 345.36 361.87 350.20 359.60 355.01 357.47 C 353.66 364.69 352.37 372.07 353.42 379.43 C 354.58 387.62 356.36 395.72 357.60 403.90 C 358.64 411.27 356.75 418.77 353.28 425.27 C 349.49 432.21 348.90 440.27 348.34 448.00 C 348.04 451.91 348.08 456.19 350.48 459.50 C 353.61 463.76 358.89 465.73 362.16 469.87 C 364.95 473.44 366.28 477.87 367.69 482.11 C 350.94 480.09 333.64 477.74 318.64 469.48 C 310.12 464.90 302.15 459.35 294.56 453.37 C 285.34 446.06 276.17 438.52 268.69 429.37 C 267.23 427.87 265.93 425.55 263.54 425.63 C 263.09 428.88 265.28 431.56 267.06 434.02 C 271.98 440.33 277.64 446.04 283.48 451.50 C 295.06 461.97 307.71 471.49 321.90 478.12 C 337.96 485.33 355.72 486.84 372.97 489.07 C 381.13 490.36 390.27 491.51 396.25 497.82 C 400.74 503.09 400.02 510.53 399.01 516.89 C 394.40 519.60 389.50 521.84 384.31 523.17 C 362.42 528.96 339.76 531.57 318.13 538.40 C 303.12 542.81 288.53 548.60 273.30 552.26 C 263.72 554.56 253.94 556.69 244.03 556.17 C 234.59 555.74 225.69 552.28 216.83 549.35 C 209.19 546.88 201.10 546.94 193.18 546.61 C 188.62 537.19 187.72 526.37 189.53 516.13 C 191.32 504.78 194.99 493.63 194.62 482.02 C 194.25 463.12 187.63 445.18 182.62 427.17 C 178.49 410.69 173.88 394.11 173.33 377.02 C 172.40 356.57 176.48 336.08 183.92 317.09 C 184.93 315.22 181.71 316.44 181.16 317.06 C 178.22 319.86 177.11 323.93 175.58 327.57 C 171.69 337.14 168.97 347.18 167.76 357.44 C 166.14 345.59 166.70 333.60 165.76 321.70 C 162.89 322.98 162.95 326.38 162.62 329.04 C 161.68 345.90 163.08 362.91 167.00 379.34 C 157.51 382.66 147.99 386.19 139.36 391.42 C 134.35 394.47 129.07 398.00 122.99 397.99 C 116.08 396.02 111.73 389.67 107.96 383.99 C 100.17 371.58 94.43 357.92 90.38 343.87 C 98.11 338.95 104.77 332.63 112.01 327.06 C 126.22 315.88 137.46 301.56 148.02 287.02 C 153.77 278.82 162.34 273.37 169.48 266.53 C 180.26 256.30 189.99 244.98 201.29 235.30 C 211.95 225.98 223.69 217.04 237.60 213.39 M 362.26 329.22 C 353.42 332.09 344.38 334.50 335.14 335.62 C 325.20 336.63 315.16 336.72 305.20 335.95 C 286.13 334.85 267.09 333.18 248.01 332.30 C 243.86 332.45 238.72 331.40 235.77 335.13 C 241.54 336.64 247.56 336.22 253.46 336.85 C 276.25 338.80 299.04 341.79 321.96 341.38 C 336.33 341.27 350.45 337.88 363.86 332.86 C 368.99 330.85 374.34 329.51 379.61 327.90 C 378.75 326.68 377.64 325.50 376.00 325.95 C 371.27 326.25 366.75 327.84 362.26 329.22 M 288.29 420.67 C 293.72 430.83 303.86 437.07 313.70 442.37 C 318.68 444.89 323.73 447.99 329.52 447.93 C 326.24 444.09 321.45 442.26 317.20 439.77 C 309.25 435.19 301.24 430.27 295.40 423.02 C 309.12 428.17 322.53 434.64 337.02 437.33 C 338.78 437.33 343.05 438.27 341.63 435.21 C 325.05 430.89 309.34 423.91 293.50 417.47 C 292.04 416.99 290.56 416.13 288.98 416.48 C 287.47 417.43 287.46 419.25 288.29 420.67 M 207.34 436.17 C 209.18 442.04 212.46 447.27 215.19 452.74 C 223.66 470.72 230.87 489.28 237.85 507.89 C 231.60 508.10 225.43 506.89 219.20 506.77 C 220.65 510.85 225.34 511.10 228.92 511.91 C 232.68 512.48 236.68 513.64 240.42 512.43 C 243.49 511.20 243.46 507.43 242.44 504.81 C 238.41 492.83 233.36 481.23 228.38 469.63 C 224.31 459.83 219.34 450.42 213.51 441.56 C 211.94 439.32 210.47 436.34 207.34 436.17 Z" />
    </g>
    <g id="#ffffffff">
        <path fill="var(--pants-color, grey)" opacity="1.00"
            d=" M 379.86 529.43 C 388.28 527.47 397.42 525.47 403.78 519.19 C 411.85 523.85 419.06 529.98 424.64 537.48 C 430.53 545.27 440.12 548.43 447.51 554.41 C 452.53 558.20 456.81 562.93 459.88 568.44 C 453.64 567.08 447.28 566.06 440.89 565.96 C 439.10 565.78 437.65 566.82 436.36 567.89 C 446.67 570.42 457.91 570.19 467.37 575.54 C 474.44 578.97 481.93 581.86 488.06 586.91 C 492.30 590.44 495.22 595.17 498.29 599.69 C 485.21 601.70 474.12 609.92 464.66 618.71 C 454.00 629.23 444.24 641.75 441.09 656.71 C 429.38 646.60 418.85 633.74 416.20 618.07 C 412.85 603.38 418.32 588.55 424.73 575.51 C 425.37 574.21 425.59 572.83 425.40 571.38 C 421.73 572.64 420.30 576.50 418.53 579.58 C 415.04 586.93 412.36 594.72 410.93 602.74 C 406.40 596.14 401.23 590.02 396.49 583.58 C 393.32 579.38 392.09 574.22 390.78 569.24 C 388.48 568.48 388.17 571.38 388.24 572.98 C 388.50 578.41 390.45 583.77 393.83 588.05 C 397.78 593.12 401.78 598.15 405.88 603.10 C 408.10 605.93 410.37 609.09 410.62 612.82 C 411.05 617.83 411.92 622.80 413.51 627.58 C 400.85 617.18 384.99 612.28 370.17 605.88 C 362.99 602.75 355.46 600.55 347.88 598.63 C 346.27 598.07 344.59 598.15 342.97 598.53 C 346.46 601.71 351.29 602.45 355.49 604.32 C 365.05 608.41 374.47 612.83 384.16 616.63 C 392.99 620.06 401.59 624.20 409.43 629.53 C 412.85 632.01 416.42 634.65 418.37 638.52 C 426.77 653.43 440.96 663.56 453.78 674.38 C 447.91 682.73 443.12 691.81 436.88 699.90 C 427.73 710.96 416.66 721.72 402.27 725.16 C 393.50 727.70 383.97 726.52 375.53 730.33 C 369.86 732.89 364.19 735.51 358.13 736.99 C 354.13 722.36 346.67 708.75 336.70 697.34 C 329.53 688.85 321.79 680.87 313.50 673.48 C 308.58 669.18 303.89 664.53 298.35 661.02 C 297.65 664.00 300.28 665.97 302.05 667.91 C 317.09 683.13 333.42 697.61 344.34 716.28 C 316.70 698.79 288.78 680.79 266.52 656.50 C 253.63 642.65 242.69 627.05 233.51 610.53 C 224.48 592.88 217.66 574.07 213.67 554.64 C 225.19 559.02 237.35 563.04 249.86 561.92 C 249.22 568.57 251.53 574.96 253.57 581.18 C 256.19 588.40 259.13 595.52 262.53 602.42 C 264.50 606.12 266.36 610.23 270.09 612.52 C 269.93 608.81 267.67 605.75 266.26 602.46 C 260.31 589.49 255.46 575.85 253.48 561.68 C 275.04 558.77 295.26 550.29 316.00 544.16 C 336.85 537.47 358.62 534.54 379.86 529.43 Z" />
        <path fill="var(--socks-color, grey)" opacity="1.00"
            d=" M 554.63 681.90 C 565.10 692.93 577.09 702.46 587.06 713.98 C 598.73 726.73 608.40 741.15 616.80 756.23 C 630.94 781.27 648.54 804.13 666.58 826.46 C 669.94 830.82 673.23 835.24 676.60 839.60 C 677.76 841.02 678.18 843.02 677.67 844.80 C 674.12 854.42 674.06 865.08 669.25 874.29 C 667.00 878.44 664.58 883.04 660.09 885.12 C 652.57 888.58 643.91 888.06 636.00 886.48 C 632.34 873.00 621.98 863.12 613.14 852.89 C 594.65 833.00 576.85 812.50 558.74 792.27 C 540.84 772.12 521.17 753.42 505.85 731.12 C 501.16 725.61 500.66 718.11 497.33 711.89 C 507.40 711.29 516.91 707.40 525.89 703.04 C 536.49 697.60 546.94 691.17 554.63 681.90 Z" />
        <path fill="var(--socks-color, grey)" opacity="1.00"
            d=" M 354.49 801.45 C 365.15 782.16 379.20 764.38 397.61 751.96 C 401.10 761.82 409.90 768.57 418.94 773.11 C 433.12 780.41 448.76 785.97 464.91 785.58 C 453.24 800.94 442.55 817.17 428.85 830.86 C 419.66 840.51 408.50 847.88 397.64 855.47 C 388.62 862.07 379.04 868.18 371.80 876.83 C 365.44 883.68 359.69 892.20 350.38 895.18 C 341.87 898.22 332.85 895.12 324.81 892.13 C 317.08 887.85 311.28 880.48 307.66 872.54 C 305.97 867.97 304.11 862.45 307.02 857.99 C 311.95 852.86 318.27 849.32 323.43 844.42 C 336.51 832.30 346.03 817.00 354.49 801.45 Z" />
    </g>
    <g id="#4d4d4dff">
        <path fill="#4d4d4d" opacity="1.00"
            d=" M 683.79 847.62 C 698.34 850.97 713.32 851.88 727.84 855.41 C 739.11 857.53 749.59 862.67 761.01 864.21 C 775.99 866.70 790.86 860.99 805.88 862.40 C 808.43 862.76 811.52 863.60 812.53 866.29 C 814.11 869.74 812.05 873.36 810.38 876.36 C 805.28 884.69 797.89 891.33 790.20 897.24 C 772.77 910.71 751.29 916.96 730.68 923.76 C 720.25 927.17 710.27 931.78 700.36 936.45 C 690.68 941.01 681.61 946.91 671.46 950.43 C 665.21 952.42 657.96 953.10 651.94 950.11 C 644.87 945.53 643.20 936.66 641.64 929.00 C 638.67 916.55 637.80 903.75 635.62 891.17 C 645.35 893.09 656.33 893.58 664.96 887.90 C 673.32 881.90 677.87 872.03 680.10 862.24 C 681.17 857.33 682.16 852.39 683.79 847.62 Z" />
        <path fill="#4d4d4d" opacity="1.00"
            d=" M 277.44 891.95 C 279.20 878.80 288.12 867.67 299.24 860.92 C 299.30 873.56 306.68 884.94 316.00 892.94 C 322.35 897.63 330.22 899.70 337.90 900.99 C 348.03 903.06 358.49 898.74 365.57 891.52 C 382.60 905.75 401.85 916.97 419.21 930.76 C 426.10 936.03 430.26 945.26 428.00 953.86 C 425.96 960.61 419.73 965.12 413.28 967.24 C 402.63 970.75 391.20 972.44 380.02 971.08 C 366.71 969.53 354.56 963.37 343.05 956.87 C 329.87 949.08 317.48 940.03 305.54 930.45 C 297.67 924.08 289.43 917.97 283.04 910.03 C 278.95 905.01 276.71 898.43 277.44 891.95 Z" />
    </g>
</svg>