<?xml version="1.0" encoding="UTF-8" ?>
<!DOCTYPE svg PUBLIC "-//W3C//DTD SVG 1.1//EN" "http://www.w3.org/Graphics/SVG/1.1/DTD/svg11.dtd">
<svg width="1000pt" height="1000pt" viewBox="0 0 1000 1000" version="1.1" xmlns="http://www.w3.org/2000/svg">
    <g id="#020202ff">
        <path fill="#020202" opacity="1.00"
            d=" M 546.66 22.68 C 553.11 20.23 560.12 19.71 566.97 19.48 C 576.77 19.19 587.07 20.64 595.38 26.20 C 604.28 24.32 613.48 25.59 622.18 27.87 C 633.75 30.71 644.16 37.16 652.99 45.02 C 661.34 52.75 667.10 63.05 669.84 74.05 C 670.71 75.90 669.13 77.29 668.19 78.69 C 671.15 84.83 673.72 91.23 675.03 97.94 C 675.22 99.81 676.20 102.41 673.92 103.36 C 671.71 103.28 670.20 101.45 668.53 100.29 C 671.85 109.77 671.38 120.57 666.41 129.39 C 664.08 134.94 658.87 139.02 657.93 145.14 C 656.31 152.53 653.05 159.52 648.42 165.49 C 643.66 175.39 638.92 185.33 634.83 195.54 C 643.53 196.54 652.30 196.78 661.03 197.41 C 669.09 197.62 677.30 198.19 684.91 201.06 C 691.30 203.55 695.91 208.83 701.01 213.18 C 706.58 217.87 711.49 223.37 717.71 227.25 C 726.61 232.78 736.57 236.84 747.03 238.06 C 756.98 239.77 767.82 240.60 776.09 247.00 C 780.63 250.41 780.97 256.53 780.58 261.73 C 786.05 253.93 791.43 246.00 798.28 239.32 C 808.56 229.23 820.07 220.50 830.66 210.73 C 838.69 203.77 845.95 195.97 852.87 187.92 C 856.90 182.87 861.46 177.67 862.56 171.07 C 863.87 163.30 863.82 155.32 862.63 147.54 C 861.70 140.88 860.37 134.06 861.72 127.37 C 863.14 122.21 865.87 117.33 869.96 113.81 C 870.72 107.74 872.80 101.65 877.19 97.23 C 880.66 93.50 886.19 90.96 891.23 92.91 C 894.14 93.81 895.75 96.56 897.33 98.95 C 901.20 98.20 905.60 97.62 909.01 100.12 C 911.46 101.60 912.12 104.53 912.89 107.08 C 916.22 106.88 920.34 106.37 922.73 109.28 C 924.73 111.49 924.31 114.62 924.19 117.35 C 926.95 117.95 930.33 118.26 931.84 121.04 C 934.94 126.39 934.56 132.96 934.37 138.93 C 932.90 147.73 929.33 156.49 923.07 162.99 C 918.06 168.37 912.49 173.21 906.63 177.64 C 897.76 184.12 892.87 194.30 887.56 203.59 C 879.76 217.85 869.96 230.86 862.00 245.02 C 852.36 260.21 844.48 276.46 834.48 291.42 C 827.03 301.45 818.92 311.58 807.94 317.90 C 797.47 323.72 784.88 323.43 773.56 320.60 C 768.19 319.48 762.95 317.71 758.16 315.02 C 755.58 318.33 753.35 322.37 749.35 324.13 C 744.10 325.96 738.45 325.63 733.00 325.95 C 720.02 326.49 706.99 330.65 696.74 338.76 C 690.35 343.66 685.03 349.77 680.15 356.13 C 677.35 359.97 673.01 362.55 670.91 366.91 C 668.95 370.70 670.23 375.13 669.07 379.13 C 666.89 387.68 663.65 396.04 663.12 404.92 C 662.42 416.34 659.88 427.52 657.41 438.65 C 655.86 445.47 652.51 451.66 650.15 458.20 C 647.26 469.82 647.35 482.25 642.39 493.32 C 639.17 499.55 638.36 507.04 632.91 511.97 C 634.73 517.47 637.20 523.07 636.58 529.01 C 636.07 533.11 633.35 536.40 631.23 539.79 C 633.75 542.71 636.90 545.81 636.70 550.01 C 637.21 555.19 631.55 557.74 630.41 562.37 C 627.37 573.10 625.78 584.18 623.19 595.02 C 619.91 607.70 622.37 621.27 617.68 633.68 C 612.05 648.44 603.25 661.69 595.47 675.36 C 589.18 686.26 585.38 698.32 580.88 710.00 C 578.76 714.76 575.84 719.96 570.57 721.67 C 569.66 717.85 568.58 714.08 567.00 710.48 C 563.96 720.73 560.05 730.72 555.52 740.39 C 549.13 752.69 540.23 763.66 529.74 772.70 C 524.99 776.93 519.54 780.48 515.69 785.63 C 500.97 805.92 483.16 824.00 463.00 838.92 C 437.44 860.46 407.48 875.82 380.97 896.06 C 378.06 898.14 375.60 900.82 372.53 902.68 C 371.25 902.76 370.30 904.45 371.87 905.03 C 374.93 907.04 376.99 910.13 378.69 913.30 C 381.89 919.27 385.23 925.23 389.68 930.37 C 397.19 938.91 406.86 945.19 414.59 953.51 C 419.04 958.34 421.48 965.41 419.85 971.90 C 417.69 977.94 410.82 980.50 404.98 981.41 C 395.18 982.21 385.31 981.92 375.50 981.27 C 368.86 980.58 362.10 980.22 355.71 978.14 C 346.84 975.50 339.14 970.20 331.06 965.87 C 325.22 962.65 318.36 963.21 311.99 962.07 C 303.32 960.52 294.48 959.14 286.37 955.59 C 278.80 951.63 272.29 943.94 272.34 935.03 C 272.41 928.04 275.32 921.49 278.32 915.32 C 284.18 904.13 291.86 893.67 301.91 885.89 C 306.08 882.71 310.36 879.67 314.80 876.88 C 318.27 874.65 322.28 873.22 325.26 870.30 C 327.67 868.00 330.10 865.73 332.77 863.75 C 340.17 858.22 347.20 852.23 354.63 846.74 C 361.75 841.57 367.72 834.96 372.82 827.83 C 380.66 816.16 386.18 803.03 395.00 791.99 C 401.99 783.04 410.11 774.84 419.81 768.82 C 426.72 764.62 433.92 760.93 440.98 757.00 C 449.98 751.88 457.37 743.81 461.23 734.18 C 464.72 725.66 467.04 716.72 470.38 708.15 C 467.27 709.08 464.12 709.87 460.91 710.30 C 459.44 703.88 461.89 697.56 463.53 691.44 C 465.52 684.27 469.09 677.71 471.78 670.80 C 474.96 662.78 474.30 653.91 476.69 645.69 C 479.73 635.26 485.28 625.60 492.63 617.60 C 485.45 621.41 478.61 626.03 473.20 632.16 C 466.53 639.48 463.13 648.95 458.68 657.64 C 453.82 667.07 449.39 676.76 443.66 685.71 C 440.30 691.23 435.28 697.35 428.08 696.71 C 427.47 695.46 426.83 694.24 426.16 693.05 C 424.70 694.38 423.85 696.20 422.75 697.82 C 418.09 705.25 412.17 711.78 406.02 718.01 C 395.85 728.70 381.95 736.71 366.97 737.35 C 353.92 737.23 340.32 734.34 329.80 726.22 C 322.82 720.99 318.07 712.76 317.40 704.03 C 317.13 701.04 317.87 697.96 317.11 695.02 C 312.57 682.87 307.29 671.00 303.00 658.75 C 299.50 664.06 293.52 666.88 287.48 668.20 C 276.52 669.74 265.30 669.42 254.57 666.55 C 245.39 664.67 237.48 658.00 233.53 649.58 C 230.29 641.56 231.47 632.12 235.73 624.70 C 240.19 616.75 247.31 610.76 254.74 605.70 C 265.16 598.42 277.01 593.60 288.69 588.76 C 302.17 582.94 316.73 580.37 331.02 577.34 C 339.40 575.79 348.13 573.56 356.55 576.13 C 358.16 572.12 360.06 568.19 362.81 564.83 C 366.45 560.05 371.45 556.01 373.12 550.01 C 375.29 542.48 378.55 534.91 384.52 529.62 C 387.48 527.15 390.53 524.78 393.20 521.99 C 390.49 519.15 386.63 516.34 386.72 512.01 C 387.26 507.89 389.79 504.42 391.96 500.99 C 396.86 493.93 401.64 486.76 406.92 479.97 C 415.29 469.45 422.49 458.07 429.76 446.78 C 431.49 444.24 432.21 441.13 431.88 438.09 C 430.60 427.38 427.36 416.87 427.51 406.01 C 427.40 397.12 432.72 389.01 431.55 380.04 C 430.84 371.11 424.00 364.66 419.74 357.29 C 414.35 348.09 410.13 337.36 412.03 326.53 C 406.72 326.48 401.40 326.32 396.10 326.61 C 382.47 327.30 369.64 333.62 355.89 333.04 C 352.37 332.97 349.47 330.83 346.66 328.98 C 342.05 332.70 337.29 336.29 332.00 338.98 C 319.16 345.41 305.81 350.82 292.15 355.26 C 281.36 358.78 270.86 363.09 260.31 367.26 C 240.76 375.36 221.07 383.61 203.40 395.40 C 199.17 398.33 196.92 403.09 194.49 407.46 C 190.01 415.58 183.91 423.14 175.69 427.68 C 166.57 432.96 156.65 437.89 145.92 438.18 C 142.06 438.40 136.70 434.73 139.53 430.53 C 144.30 424.17 151.93 420.70 156.66 414.27 C 148.84 413.83 141.12 416.02 134.03 419.15 C 125.42 423.01 119.63 431.25 110.82 434.77 C 108.20 435.74 105.64 433.42 105.31 430.89 C 104.65 425.58 105.18 419.81 108.19 415.24 C 111.06 410.80 111.83 405.31 115.13 401.10 C 117.67 397.28 121.38 394.51 125.25 392.16 C 127.77 390.85 128.32 387.87 129.56 385.57 C 130.91 382.49 133.31 379.93 136.24 378.30 C 146.86 372.65 159.09 371.60 170.23 367.38 C 189.03 360.75 207.49 352.47 223.69 340.73 C 235.49 331.27 247.75 322.32 261.00 314.97 C 270.44 309.67 279.53 303.60 289.68 299.67 C 299.70 295.65 309.05 290.07 317.25 283.05 C 314.59 278.80 311.41 274.73 309.80 269.92 C 309.83 269.46 309.89 268.55 309.92 268.09 C 313.56 263.64 318.39 260.14 323.53 257.58 C 333.10 253.55 343.51 252.15 353.72 250.74 C 357.35 250.32 360.38 248.10 363.57 246.50 C 376.75 239.77 388.68 230.95 401.21 223.13 C 412.53 215.73 425.09 210.56 437.58 205.49 C 457.22 197.73 478.51 196.45 499.29 194.19 C 508.77 193.03 518.35 193.03 527.80 191.62 C 524.74 182.46 524.83 172.72 523.94 163.21 C 522.79 150.47 523.72 137.64 521.92 124.95 C 515.24 119.35 511.46 110.70 511.75 102.01 C 511.99 92.38 513.93 82.87 516.29 73.57 C 515.59 73.45 514.20 73.21 513.50 73.09 C 514.14 62.49 519.61 52.57 527.14 45.23 C 533.99 38.30 542.54 33.25 551.50 29.54 C 548.86 28.87 546.13 28.42 543.65 27.26 C 542.57 25.05 544.76 23.30 546.66 22.68 M 883.04 99.06 C 878.33 102.02 875.87 107.26 873.96 112.27 C 884.09 110.41 894.82 113.86 902.59 120.47 C 904.79 122.16 904.00 125.62 901.70 126.82 C 897.08 129.67 891.41 127.87 886.33 128.18 C 892.12 135.33 897.03 145.01 893.41 154.28 C 893.24 155.87 890.82 156.46 890.32 154.76 C 890.00 151.49 890.62 148.16 889.80 144.94 C 888.50 139.11 884.80 134.26 881.22 129.63 C 879.75 128.10 880.14 125.11 882.47 124.73 C 887.84 123.42 893.45 124.36 898.91 123.61 C 893.42 119.54 886.89 116.82 880.07 116.19 C 875.99 115.94 870.84 116.71 869.15 121.03 C 863.65 130.64 868.31 141.70 868.79 151.92 C 869.16 162.64 869.52 174.60 862.64 183.58 C 851.88 198.32 838.36 210.78 824.57 222.63 C 812.84 232.84 800.15 242.29 790.90 254.98 C 787.35 259.53 784.75 265.13 779.58 268.14 C 776.28 283.59 768.70 297.59 760.80 311.10 C 772.45 314.75 784.69 318.86 797.04 316.62 C 806.32 315.07 813.73 308.55 819.77 301.72 C 825.80 294.94 831.29 287.65 835.82 279.77 C 841.16 270.47 846.68 261.27 852.01 251.96 C 857.84 243.01 862.51 233.35 868.60 224.56 C 875.48 214.25 881.74 203.55 887.65 192.66 C 891.53 186.12 895.46 179.31 901.55 174.55 C 908.02 169.42 914.78 164.49 920.27 158.27 C 927.61 148.96 930.35 136.36 928.03 124.78 C 927.48 121.26 923.21 121.84 920.70 122.57 C 914.68 124.58 909.23 129.37 907.63 135.67 C 912.87 134.51 917.14 131.12 921.99 129.04 C 924.93 129.43 923.25 132.60 921.77 133.75 C 917.90 137.25 913.37 140.85 907.97 141.21 C 903.77 141.40 901.13 136.77 902.16 133.00 C 903.91 125.30 911.09 120.10 918.28 117.84 C 918.75 115.78 920.49 111.81 917.08 111.51 C 913.74 110.53 911.06 115.05 907.88 113.18 C 906.01 110.40 908.53 105.52 904.92 103.90 C 900.93 102.08 897.59 105.66 893.92 106.35 C 891.00 105.08 891.71 101.22 890.08 98.92 C 888.06 97.17 885.09 97.69 883.04 99.06 M 556.34 109.60 C 555.50 116.18 553.20 122.67 548.53 127.53 C 544.36 131.78 540.40 136.60 534.97 139.27 C 534.21 139.18 532.70 138.98 531.94 138.89 C 530.80 139.98 529.67 141.07 528.54 142.17 C 542.59 143.66 556.57 145.67 570.54 147.73 C 572.88 148.02 576.23 148.85 575.93 151.90 C 576.00 161.71 572.53 171.09 569.10 180.13 C 568.49 182.67 565.61 181.15 565.93 179.09 C 566.19 173.79 567.37 168.58 568.36 163.38 C 555.13 161.89 541.89 160.29 528.81 157.81 C 529.48 165.15 529.91 172.50 530.57 179.83 C 531.40 189.34 536.23 197.84 541.24 205.74 C 548.81 216.85 556.83 228.71 569.38 234.64 C 575.63 237.88 582.92 235.65 588.98 233.02 C 596.97 228.89 604.60 224.08 612.03 219.02 C 616.80 215.89 620.55 211.45 623.75 206.79 C 629.76 196.63 633.53 185.39 638.66 174.80 C 627.81 173.04 616.96 171.25 606.12 169.42 C 603.35 168.72 599.99 169.00 597.79 166.99 C 597.25 163.20 598.63 159.34 599.97 155.84 C 601.32 152.59 605.18 153.52 607.95 153.71 C 620.52 155.27 633.11 156.81 645.54 159.31 C 647.06 154.69 648.93 150.08 649.24 145.18 C 648.16 138.31 645.38 131.83 642.43 125.58 C 641.34 130.79 640.56 136.17 638.06 140.95 C 634.11 133.46 628.78 126.85 624.08 119.84 C 621.87 116.61 619.26 113.69 616.65 110.78 C 616.25 119.92 613.26 128.66 608.99 136.68 C 607.34 130.55 604.29 124.98 600.95 119.62 C 596.33 121.94 591.22 120.79 586.88 118.43 C 586.78 121.34 586.75 124.25 586.57 127.16 C 582.62 123.75 578.41 120.63 573.78 118.21 C 568.00 115.27 562.75 111.13 556.34 109.60 M 511.06 198.17 C 498.66 199.25 486.27 200.54 473.92 202.14 C 460.56 203.57 447.36 206.81 435.00 212.08 C 425.78 215.96 416.47 219.76 407.84 224.87 C 394.29 232.97 381.29 242.06 367.03 248.92 C 377.99 247.38 389.05 245.46 399.31 241.16 C 401.42 240.30 403.64 239.73 405.89 239.34 C 405.07 243.72 400.44 245.14 396.99 246.95 C 377.22 255.51 355.21 255.25 334.57 260.49 C 327.25 262.22 320.49 265.61 314.05 269.41 C 318.62 276.28 323.57 282.88 328.55 289.46 C 332.36 294.28 333.44 300.46 336.15 305.85 C 339.83 313.38 344.96 320.19 351.11 325.88 C 352.59 327.58 354.94 327.44 356.99 327.31 C 367.96 326.20 378.38 322.26 389.26 320.64 C 398.06 319.40 407.00 319.91 415.84 320.59 C 424.16 321.27 432.51 323.63 439.29 328.66 C 441.11 330.14 443.90 331.48 443.51 334.28 C 440.00 334.68 436.97 332.47 433.85 331.24 C 428.18 328.50 421.96 327.26 415.73 326.70 C 415.53 338.66 420.37 350.07 427.38 359.55 C 431.88 365.60 436.53 372.16 436.97 379.97 C 438.32 389.67 432.26 398.38 432.67 408.01 C 432.82 417.15 435.09 426.07 436.02 435.13 C 438.09 431.19 440.22 427.29 442.31 423.37 C 446.01 416.71 447.51 409.05 451.65 402.61 C 457.09 393.33 466.54 387.07 471.18 377.25 C 474.87 369.25 477.94 360.99 480.94 352.72 C 481.18 351.67 482.71 348.92 483.67 351.04 C 484.83 354.96 483.33 359.14 482.18 362.93 C 479.41 370.33 477.09 378.04 472.69 384.67 C 467.74 392.24 460.22 397.72 455.48 405.45 C 451.39 411.65 450.11 419.15 446.51 425.59 C 442.30 433.06 438.77 440.91 434.43 448.30 C 427.37 458.92 421.07 470.10 412.85 479.90 C 406.59 487.76 401.03 496.13 395.40 504.44 C 393.85 507.08 391.79 509.73 391.66 512.90 C 393.75 515.78 396.68 519.69 400.72 518.84 C 406.90 518.01 412.83 515.93 419.00 515.04 C 427.95 513.72 437.03 514.10 446.04 514.48 C 455.51 515.35 464.81 517.53 473.94 520.09 C 485.85 523.64 497.30 528.59 509.34 531.72 C 517.68 533.96 526.48 535.87 535.08 533.95 C 543.59 532.07 551.87 529.31 560.35 527.29 C 577.82 523.23 595.24 518.98 612.66 514.72 C 619.62 512.89 626.91 510.36 631.67 504.65 C 634.70 501.40 635.46 496.88 637.13 492.92 C 641.75 481.90 642.20 469.78 644.46 458.18 C 646.26 451.02 649.96 444.46 651.40 437.18 C 653.48 427.16 655.75 417.15 656.84 406.97 C 657.59 394.86 665.06 384.25 664.89 371.99 C 664.54 367.58 667.28 364.00 669.47 360.48 C 673.78 352.38 670.92 342.92 673.31 334.37 C 675.43 324.47 681.18 315.98 686.70 307.69 C 688.65 304.72 690.96 301.94 694.09 300.15 C 693.32 304.40 690.51 307.79 688.38 311.42 C 683.78 318.98 679.32 326.85 677.46 335.59 C 675.95 341.83 676.93 348.31 675.85 354.61 C 679.83 348.21 684.45 342.16 689.99 337.03 C 701.99 325.65 718.57 319.73 734.99 319.60 C 738.75 319.49 742.57 319.79 746.31 319.17 C 748.31 318.91 749.52 317.11 750.71 315.68 C 756.17 308.47 760.19 300.32 764.34 292.32 C 769.54 282.38 773.39 271.63 774.78 260.46 C 775.08 257.13 775.41 252.91 772.26 250.77 C 765.20 245.72 756.21 245.05 747.93 243.52 C 739.24 242.45 730.70 240.13 722.89 236.12 C 708.72 229.80 699.03 217.19 686.86 208.05 C 682.16 204.83 676.35 203.87 670.81 203.16 C 658.06 202.27 645.22 202.20 632.56 200.26 C 629.21 208.44 623.90 215.71 617.12 221.39 C 616.47 224.70 615.88 228.01 615.10 231.29 C 612.16 243.25 602.56 253.07 591.04 257.12 C 570.00 264.91 544.42 254.74 533.85 235.09 C 528.06 224.88 526.78 211.77 532.25 201.15 C 531.39 199.45 530.54 197.76 529.70 196.07 C 523.57 197.38 517.31 197.78 511.06 198.17 M 534.44 205.00 C 532.75 214.27 533.95 224.16 538.64 232.41 C 545.39 244.46 558.23 252.85 571.99 254.14 C 583.31 255.42 595.37 251.62 603.24 243.22 C 608.11 238.17 610.71 231.45 612.12 224.68 C 601.76 230.96 591.74 238.86 579.42 240.75 C 572.64 242.53 566.06 239.10 560.58 235.45 C 549.52 227.56 542.14 215.93 534.44 205.00 M 301.73 298.82 C 295.13 302.41 287.93 304.70 281.33 308.29 C 274.43 312.01 267.78 316.19 260.95 320.05 C 248.70 327.08 237.45 335.66 226.43 344.46 C 208.19 357.71 187.43 367.16 166.07 374.15 C 156.67 376.80 146.87 378.59 138.16 383.21 C 134.03 385.48 133.68 390.65 131.18 394.19 C 129.07 396.22 126.22 397.21 123.86 398.90 C 120.36 401.15 118.00 404.67 115.75 408.07 C 122.22 404.28 129.03 401.11 135.65 397.60 C 137.82 396.43 140.19 395.66 142.67 395.54 C 142.08 396.59 141.37 397.54 140.55 398.40 C 132.23 404.72 122.02 408.25 114.27 415.35 C 109.91 419.15 109.82 425.33 109.77 430.66 C 114.87 428.06 119.22 424.34 123.55 420.66 C 130.35 415.04 138.88 412.20 147.36 410.25 C 151.34 409.48 155.67 409.22 159.52 410.69 C 161.72 412.01 161.04 415.14 159.86 416.95 C 155.63 423.62 148.26 427.28 143.09 433.11 C 145.36 433.55 147.69 433.94 150.00 433.50 C 158.83 432.21 166.69 427.69 174.25 423.19 C 181.25 419.07 186.68 412.66 190.55 405.59 C 193.21 400.79 195.64 395.56 200.20 392.24 C 217.69 380.28 237.19 371.76 256.71 363.73 C 268.57 359.05 280.41 354.29 292.55 350.38 C 305.68 346.12 318.56 341.05 330.91 334.90 C 335.66 332.48 339.88 329.20 344.18 326.08 C 337.12 318.55 330.86 309.93 327.88 299.92 C 326.45 294.82 322.96 290.75 319.88 286.58 C 313.97 290.86 308.30 295.57 301.73 298.82 M 599.06 524.96 C 582.09 529.26 564.89 532.57 547.97 537.07 C 539.82 539.26 531.42 541.53 522.90 540.51 C 508.70 538.91 495.28 533.71 481.95 528.86 C 472.81 525.49 463.38 523.03 453.93 520.71 C 443.99 519.05 433.85 518.29 423.80 519.41 C 415.10 520.04 406.90 523.61 398.17 523.93 C 394.73 529.52 388.19 532.06 384.60 537.50 C 381.27 541.87 379.64 547.19 378.17 552.41 C 375.61 561.18 367.19 566.30 363.48 574.44 C 359.45 582.75 361.02 592.25 359.14 601.06 C 357.26 609.90 353.55 618.58 347.27 625.21 C 343.04 630.31 338.07 635.69 337.55 642.62 C 350.57 638.96 364.18 642.89 376.33 647.76 C 392.40 654.41 407.94 663.25 420.09 675.87 C 424.70 680.57 429.62 685.25 432.44 691.31 C 435.70 687.86 438.57 684.05 440.95 679.94 C 448.34 667.34 454.25 653.95 460.84 640.94 C 465.43 631.67 472.96 624.09 481.66 618.62 C 485.54 616.45 489.52 614.01 494.06 613.64 C 495.94 613.31 497.23 614.84 498.54 615.89 C 497.68 617.52 496.76 619.13 495.65 620.61 C 487.67 631.21 480.97 643.53 480.14 657.02 C 479.64 664.18 478.13 671.33 474.76 677.73 C 470.16 686.64 466.78 696.12 464.22 705.82 C 467.96 704.46 471.66 702.98 475.22 701.18 C 485.39 696.26 496.29 693.14 507.21 690.42 C 514.52 688.59 522.08 688.27 529.50 687.18 C 535.13 686.49 540.87 685.06 546.54 686.27 C 551.70 687.49 556.74 689.70 560.66 693.35 C 566.87 698.75 570.32 706.50 572.97 714.12 C 579.87 702.37 582.64 688.82 588.78 676.71 C 596.22 662.00 605.51 648.19 611.58 632.79 C 616.53 620.25 613.63 606.38 617.31 593.57 C 620.16 582.12 621.65 570.20 626.55 559.36 C 624.56 557.35 622.85 554.73 619.98 553.95 C 615.05 552.53 609.88 553.71 605.03 554.86 C 587.28 559.21 569.97 565.21 552.88 571.64 C 541.52 576.30 529.68 579.88 518.80 585.65 C 515.56 587.15 512.45 589.16 508.90 589.82 C 507.37 590.08 506.51 587.69 508.13 587.24 C 518.31 581.21 528.97 575.98 540.08 571.89 C 558.61 564.11 577.51 557.15 596.90 551.83 C 604.86 549.83 613.33 546.70 621.50 549.39 C 624.87 550.33 627.03 553.17 629.21 555.69 C 630.58 554.07 632.66 552.43 632.36 550.06 C 632.47 546.17 628.55 544.14 627.27 540.83 C 626.77 537.16 630.21 534.69 631.50 531.56 C 634.18 526.02 631.02 520.09 629.64 514.65 C 620.51 520.72 609.48 522.34 599.06 524.96 M 330.00 581.88 C 319.04 584.35 307.99 586.68 297.34 590.32 C 284.28 595.39 271.12 600.61 259.33 608.28 C 251.60 613.32 244.03 619.25 239.47 627.44 C 235.75 634.26 234.76 643.20 238.86 650.07 C 242.47 655.85 248.14 660.59 254.89 662.09 C 265.29 664.95 276.22 665.01 286.83 663.50 C 292.45 662.28 298.54 659.43 300.85 653.80 C 300.36 648.36 297.83 643.32 297.13 637.90 C 296.20 631.46 294.95 624.25 298.30 618.30 C 303.84 608.65 314.46 604.06 324.44 600.42 C 327.96 599.28 332.61 597.02 335.65 600.34 C 340.13 604.73 344.00 609.71 348.05 614.49 C 350.25 610.04 352.32 605.47 353.31 600.58 C 354.70 593.75 354.60 586.74 355.50 579.84 C 346.99 577.50 338.37 580.29 330.00 581.88 M 315.77 609.62 C 310.25 612.05 305.44 616.20 302.45 621.46 C 300.59 625.41 301.24 629.97 301.60 634.18 C 304.12 652.46 312.41 669.15 318.56 686.35 C 321.03 671.97 326.31 658.00 334.64 645.98 C 333.11 643.26 331.88 640.07 332.90 636.94 C 335.06 629.33 340.68 623.42 345.81 617.64 C 341.14 612.92 336.56 608.13 331.93 603.38 C 326.36 604.94 321.06 607.31 315.77 609.62 M 340.41 646.45 C 329.98 661.31 324.18 679.06 322.00 696.99 C 320.68 704.65 323.72 712.54 328.58 718.40 C 336.41 727.38 348.48 731.28 360.06 732.10 C 373.40 733.95 386.31 727.53 396.32 719.23 C 406.67 709.83 415.12 698.63 423.16 687.26 C 413.36 675.66 401.14 666.02 387.38 659.52 C 372.73 652.48 357.05 645.57 340.41 646.45 M 503.04 696.88 C 493.75 699.21 484.65 702.20 475.85 705.99 C 471.21 720.34 468.66 735.85 459.81 748.41 C 468.98 764.76 486.44 776.05 505.00 778.27 C 509.27 778.42 514.46 779.05 517.77 775.75 C 520.80 773.10 523.93 770.56 526.99 767.93 C 539.15 757.42 549.24 744.27 555.24 729.29 C 558.51 721.14 563.02 713.21 563.53 704.24 C 557.87 696.08 548.15 689.82 537.90 691.53 C 526.30 693.45 514.40 693.63 503.04 696.88 M 419.34 776.33 C 411.63 781.45 405.23 788.27 399.50 795.48 C 388.45 809.57 382.87 827.31 370.32 840.31 C 363.87 847.99 355.24 853.25 347.52 859.50 C 341.31 864.51 334.63 868.91 328.28 873.75 C 331.36 891.61 349.89 903.31 367.26 902.94 C 370.46 899.23 374.04 895.86 377.91 892.86 C 401.89 874.07 429.06 859.79 453.00 840.94 C 461.14 834.07 469.94 827.99 477.76 820.74 C 490.10 809.37 501.35 796.79 511.15 783.15 C 503.74 784.15 496.15 783.24 489.17 780.58 C 475.45 775.48 462.93 765.90 456.24 752.68 C 446.09 763.61 431.27 767.88 419.34 776.33 M 308.56 888.61 C 295.26 898.26 285.48 912.32 279.75 927.62 C 277.40 933.63 276.85 941.36 281.70 946.33 C 286.48 952.00 294.07 953.53 300.95 955.04 C 308.29 956.64 315.71 957.88 323.20 958.43 C 329.87 958.84 335.47 962.65 341.02 965.95 C 347.70 969.86 355.19 972.27 362.86 973.18 C 378.16 975.04 393.77 978.45 409.12 975.06 C 412.16 974.53 414.46 971.91 415.15 969.00 C 415.58 963.91 412.86 959.12 409.23 955.76 C 399.25 946.09 386.84 938.62 379.57 926.42 C 374.88 919.98 373.26 911.18 366.25 906.60 C 347.77 909.56 327.72 896.68 323.56 878.25 C 318.37 881.41 313.40 884.92 308.56 888.61 Z" />
        <path fill="#020202" opacity="1.00"
            d=" M 566.60 185.18 C 569.36 184.83 571.34 187.40 573.50 188.70 C 578.07 188.62 582.56 187.53 587.13 187.47 C 589.17 188.87 587.71 191.28 585.79 191.82 C 580.42 194.14 575.02 196.98 569.18 197.77 C 566.84 196.55 565.31 194.19 563.76 192.13 C 562.12 189.52 564.99 186.97 566.60 185.18 Z" />
        <path fill="#020202" opacity="1.00"
            d=" M 556.37 202.25 C 558.45 201.30 560.79 201.77 563.00 201.83 C 573.32 202.61 583.64 203.42 593.93 204.64 C 595.48 204.97 597.92 204.94 597.99 207.08 C 597.74 208.78 595.81 208.83 594.57 209.46 C 593.63 211.17 592.30 212.98 590.06 212.55 C 581.01 212.31 571.92 211.48 563.02 209.81 C 560.83 209.69 560.57 207.32 560.04 205.69 C 558.48 204.84 554.96 204.84 556.37 202.25 Z" />
        <path fill="#020202" opacity="1.00"
            d=" M 598.49 436.35 C 599.08 436.27 600.26 436.09 600.85 436.00 C 600.89 439.35 597.75 441.45 595.78 443.76 C 583.63 455.30 569.46 464.38 555.55 473.60 C 544.93 480.54 533.70 486.62 521.69 490.78 C 510.55 494.82 499.41 498.91 487.97 502.00 C 485.09 502.49 481.29 503.73 479.17 500.97 C 481.31 498.62 484.89 498.92 487.69 497.79 C 500.04 493.66 512.19 488.94 524.34 484.24 C 538.08 478.93 550.41 470.73 562.56 462.55 C 575.03 454.52 586.84 445.51 598.49 436.35 Z" />
        <path fill="#020202" opacity="1.00"
            d=" M 514.08 458.83 C 523.21 455.94 531.92 451.74 541.19 449.38 C 541.63 449.76 542.51 450.54 542.95 450.93 C 540.06 453.68 536.11 454.83 532.66 456.71 C 518.51 464.03 503.07 468.24 487.96 473.06 C 477.73 476.14 467.41 478.97 456.91 480.97 C 451.20 482.11 445.27 482.03 439.73 483.98 C 440.21 486.96 441.22 489.80 441.91 492.73 C 438.35 493.41 436.90 489.60 436.05 486.89 C 434.79 483.70 436.82 480.18 439.86 478.96 C 444.65 476.89 449.99 476.84 455.03 475.64 C 475.07 471.38 494.63 465.17 514.08 458.83 Z" />
        <path fill="#020202" opacity="1.00"
            d=" M 415.36 564.36 C 416.46 563.72 417.62 563.60 418.85 563.99 C 433.90 567.87 448.22 575.63 458.22 587.75 C 462.95 592.21 466.13 599.47 473.17 600.55 C 480.56 601.97 488.10 602.17 495.59 602.67 C 497.18 602.79 497.15 605.17 495.70 605.59 C 490.68 607.35 485.22 606.56 480.01 606.53 C 474.15 606.15 467.47 606.41 462.85 602.15 C 456.63 596.37 451.42 589.54 444.75 584.25 C 436.90 578.08 428.47 572.57 419.23 568.74 C 417.54 567.82 414.09 566.92 415.36 564.36 Z" />
        <path fill="#020202" opacity="1.00"
            d=" M 569.53 573.34 C 573.50 571.86 577.33 569.91 581.49 568.95 C 581.91 569.06 582.77 569.27 583.20 569.38 C 584.03 571.54 581.47 572.24 580.07 573.15 C 569.74 578.15 559.42 583.18 548.94 587.85 C 536.16 593.60 524.73 601.96 514.37 611.32 C 512.52 613.13 510.25 614.46 507.68 614.89 C 515.82 604.05 526.14 594.90 537.62 587.72 C 547.64 581.67 558.63 577.51 569.53 573.34 Z" />
    </g>
    <g id="#f0b58bff">
        <path fill="#f0b58b" opacity="1.00"
            d=" M 883.04 99.06 C 885.09 97.69 888.06 97.17 890.08 98.92 C 891.71 101.22 891.00 105.08 893.92 106.35 C 897.59 105.66 900.93 102.08 904.92 103.90 C 908.53 105.52 906.01 110.40 907.88 113.18 C 911.06 115.05 913.74 110.53 917.08 111.51 C 920.49 111.81 918.75 115.78 918.28 117.84 C 911.09 120.10 903.91 125.30 902.16 133.00 C 901.13 136.77 903.77 141.40 907.97 141.21 C 913.37 140.85 917.90 137.25 921.77 133.75 C 923.25 132.60 924.93 129.43 921.99 129.04 C 917.14 131.12 912.87 134.51 907.63 135.67 C 909.23 129.37 914.68 124.58 920.70 122.57 C 923.21 121.84 927.48 121.26 928.03 124.78 C 930.35 136.36 927.61 148.96 920.27 158.27 C 914.78 164.49 908.02 169.42 901.55 174.55 C 895.46 179.31 891.53 186.12 887.65 192.66 C 881.74 203.55 875.48 214.25 868.60 224.56 C 862.51 233.35 857.84 243.01 852.01 251.96 C 846.68 261.27 841.16 270.47 835.82 279.77 C 831.29 287.65 825.80 294.94 819.77 301.72 C 813.73 308.55 806.32 315.07 797.04 316.62 C 784.69 318.86 772.45 314.75 760.80 311.10 C 768.70 297.59 776.28 283.59 779.58 268.14 C 784.75 265.13 787.35 259.53 790.90 254.98 C 800.15 242.29 812.84 232.84 824.57 222.63 C 838.36 210.78 851.88 198.32 862.64 183.58 C 869.52 174.60 869.16 162.64 868.79 151.92 C 868.31 141.70 863.65 130.64 869.15 121.03 C 870.84 116.71 875.99 115.94 880.07 116.19 C 886.89 116.82 893.42 119.54 898.91 123.61 C 893.45 124.36 887.84 123.42 882.47 124.73 C 880.14 125.11 879.75 128.10 881.22 129.63 C 884.80 134.26 888.50 139.11 889.80 144.94 C 890.62 148.16 890.00 151.49 890.32 154.76 C 890.82 156.46 893.24 155.87 893.41 154.28 C 897.03 145.01 892.12 135.33 886.33 128.18 C 891.41 127.87 897.08 129.67 901.70 126.82 C 904.00 125.62 904.79 122.16 902.59 120.47 C 894.82 113.86 884.09 110.41 873.96 112.27 C 875.87 107.26 878.33 102.02 883.04 99.06 Z" />
        <path fill="#f0b58b" opacity="1.00"
            d=" M 556.34 109.60 C 562.75 111.13 568.00 115.27 573.78 118.21 C 578.41 120.63 582.62 123.75 586.57 127.16 C 586.75 124.25 586.78 121.34 586.88 118.43 C 591.22 120.79 596.33 121.94 600.95 119.62 C 604.29 124.98 607.34 130.55 608.99 136.68 C 613.26 128.66 616.25 119.92 616.65 110.78 C 619.26 113.69 621.87 116.61 624.08 119.84 C 628.78 126.85 634.11 133.46 638.06 140.95 C 640.56 136.17 641.34 130.79 642.43 125.58 C 645.38 131.83 648.16 138.31 649.24 145.18 C 648.93 150.08 647.06 154.69 645.54 159.31 C 633.11 156.81 620.52 155.27 607.95 153.71 C 605.18 153.52 601.32 152.59 599.97 155.84 C 598.63 159.34 597.25 163.20 597.79 166.99 C 599.99 169.00 603.35 168.72 606.12 169.42 C 616.96 171.25 627.81 173.04 638.66 174.80 C 633.53 185.39 629.76 196.63 623.75 206.79 C 620.55 211.45 616.80 215.89 612.03 219.02 C 604.60 224.08 596.97 228.89 588.98 233.02 C 582.92 235.65 575.63 237.88 569.38 234.64 C 556.83 228.71 548.81 216.85 541.24 205.74 C 536.23 197.84 531.40 189.34 530.57 179.83 C 529.91 172.50 529.48 165.15 528.81 157.81 C 541.89 160.29 555.13 161.89 568.36 163.38 C 567.37 168.58 566.19 173.79 565.93 179.09 C 565.61 181.15 568.49 182.67 569.10 180.13 C 572.53 171.09 576.00 161.71 575.93 151.90 C 576.23 148.85 572.88 148.02 570.54 147.73 C 556.57 145.67 542.59 143.66 528.54 142.17 C 529.67 141.07 530.80 139.98 531.94 138.89 C 532.70 138.98 534.21 139.18 534.97 139.27 C 540.40 136.60 544.36 131.78 548.53 127.53 C 553.20 122.67 555.50 116.18 556.34 109.60 M 566.60 185.18 C 564.99 186.97 562.12 189.52 563.76 192.13 C 565.31 194.19 566.84 196.55 569.18 197.77 C 575.02 196.98 580.42 194.14 585.79 191.82 C 587.71 191.28 589.17 188.87 587.13 187.47 C 582.56 187.53 578.07 188.62 573.50 188.70 C 571.34 187.40 569.36 184.83 566.60 185.18 M 556.37 202.25 C 554.96 204.84 558.48 204.84 560.04 205.69 C 560.57 207.32 560.83 209.69 563.02 209.81 C 571.92 211.48 581.01 212.31 590.06 212.55 C 592.30 212.98 593.63 211.17 594.57 209.46 C 595.81 208.83 597.74 208.78 597.99 207.08 C 597.92 204.94 595.48 204.97 593.93 204.64 C 583.64 203.42 573.32 202.61 563.00 201.83 C 560.79 201.77 558.45 201.30 556.37 202.25 Z" />
        <path fill="#f0b58b" opacity="1.00"
            d=" M 534.44 205.00 C 542.14 215.93 549.52 227.56 560.58 235.45 C 566.06 239.10 572.64 242.53 579.42 240.75 C 591.74 238.86 601.76 230.96 612.12 224.68 C 610.71 231.45 608.11 238.17 603.24 243.22 C 595.37 251.62 583.31 255.42 571.99 254.14 C 558.23 252.85 545.39 244.46 538.64 232.41 C 533.95 224.16 532.75 214.27 534.44 205.00 Z" />
        <path fill="#f0b58b" opacity="1.00"
            d=" M 301.73 298.82 C 308.30 295.57 313.97 290.86 319.88 286.58 C 322.96 290.75 326.45 294.82 327.88 299.92 C 330.86 309.93 337.12 318.55 344.18 326.08 C 339.88 329.20 335.66 332.48 330.91 334.90 C 318.56 341.05 305.68 346.12 292.55 350.38 C 280.41 354.29 268.57 359.05 256.71 363.73 C 237.19 371.76 217.69 380.28 200.20 392.24 C 195.64 395.56 193.21 400.79 190.55 405.59 C 186.68 412.66 181.25 419.07 174.25 423.19 C 166.69 427.69 158.83 432.21 150.00 433.50 C 147.69 433.94 145.36 433.55 143.09 433.11 C 148.26 427.28 155.63 423.62 159.86 416.95 C 161.04 415.14 161.72 412.01 159.52 410.69 C 155.67 409.22 151.34 409.48 147.36 410.25 C 138.88 412.20 130.35 415.04 123.55 420.66 C 119.22 424.34 114.87 428.06 109.77 430.66 C 109.82 425.33 109.91 419.15 114.27 415.35 C 122.02 408.25 132.23 404.72 140.55 398.40 C 141.37 397.54 142.08 396.59 142.67 395.54 C 140.19 395.66 137.82 396.43 135.65 397.60 C 129.03 401.11 122.22 404.28 115.75 408.07 C 118.00 404.67 120.36 401.15 123.86 398.90 C 126.22 397.21 129.07 396.22 131.18 394.19 C 133.68 390.65 134.03 385.48 138.16 383.21 C 146.87 378.59 156.67 376.80 166.07 374.15 C 187.43 367.16 208.19 357.71 226.43 344.46 C 237.45 335.66 248.70 327.08 260.95 320.05 C 267.78 316.19 274.43 312.01 281.33 308.29 C 287.93 304.70 295.13 302.41 301.73 298.82 Z" />
        <path fill="#f0b58b" opacity="1.00"
            d=" M 340.41 646.45 C 357.05 645.57 372.73 652.48 387.38 659.52 C 401.14 666.02 413.36 675.66 423.16 687.26 C 415.12 698.63 406.67 709.83 396.32 719.23 C 386.31 727.53 373.40 733.95 360.06 732.10 C 348.48 731.28 336.41 727.38 328.58 718.40 C 323.72 712.54 320.68 704.65 322.00 696.99 C 324.18 679.06 329.98 661.31 340.41 646.45 Z" />
        <path fill="#f0b58b" opacity="1.00"
            d=" M 503.04 696.88 C 514.40 693.63 526.30 693.45 537.90 691.53 C 548.15 689.82 557.87 696.08 563.53 704.24 C 563.02 713.21 558.51 721.14 555.24 729.29 C 549.24 744.27 539.15 757.42 526.99 767.93 C 523.93 770.56 520.80 773.10 517.77 775.75 C 514.46 779.05 509.27 778.42 505.00 778.27 C 486.44 776.05 468.98 764.76 459.81 748.41 C 468.66 735.85 471.21 720.34 475.85 705.99 C 484.65 702.20 493.75 699.21 503.04 696.88 Z" />
    </g>
    <g id="#f11b27ff">
        <path fill="var(--shirt-color, grey)" opacity="1.00"
            d=" M 511.06 198.17 C 517.31 197.78 523.57 197.38 529.70 196.07 C 530.54 197.76 531.39 199.45 532.25 201.15 C 526.78 211.77 528.06 224.88 533.85 235.09 C 544.42 254.74 570.00 264.91 591.04 257.12 C 602.56 253.07 612.16 243.25 615.10 231.29 C 615.88 228.01 616.47 224.70 617.12 221.39 C 623.90 215.71 629.21 208.44 632.56 200.26 C 645.22 202.20 658.06 202.27 670.81 203.16 C 676.35 203.87 682.16 204.83 686.86 208.05 C 699.03 217.19 708.72 229.80 722.89 236.12 C 730.70 240.13 739.24 242.45 747.93 243.52 C 756.21 245.05 765.20 245.72 772.26 250.77 C 775.41 252.91 775.08 257.13 774.78 260.46 C 773.39 271.63 769.54 282.38 764.34 292.32 C 760.19 300.32 756.17 308.47 750.71 315.68 C 749.52 317.11 748.31 318.91 746.31 319.17 C 742.57 319.79 738.75 319.49 734.99 319.60 C 718.57 319.73 701.99 325.65 689.99 337.03 C 684.45 342.16 679.83 348.21 675.85 354.61 C 676.93 348.31 675.95 341.83 677.46 335.59 C 679.32 326.85 683.78 318.98 688.38 311.42 C 690.51 307.79 693.32 304.40 694.09 300.15 C 690.96 301.94 688.65 304.72 686.70 307.69 C 681.18 315.98 675.43 324.47 673.31 334.37 C 670.92 342.92 673.78 352.38 669.47 360.48 C 667.28 364.00 664.54 367.58 664.89 371.99 C 665.06 384.25 657.59 394.86 656.84 406.97 C 655.75 417.15 653.48 427.16 651.40 437.18 C 649.96 444.46 646.26 451.02 644.46 458.18 C 642.20 469.78 641.75 481.90 637.13 492.92 C 635.46 496.88 634.70 501.40 631.67 504.65 C 626.91 510.36 619.62 512.89 612.66 514.72 C 595.24 518.98 577.82 523.23 560.35 527.29 C 551.87 529.31 543.59 532.07 535.08 533.95 C 526.48 535.87 517.68 533.96 509.34 531.72 C 497.30 528.59 485.85 523.64 473.94 520.09 C 464.81 517.53 455.51 515.35 446.04 514.48 C 437.03 514.10 427.95 513.72 419.00 515.04 C 412.83 515.93 406.90 518.01 400.72 518.84 C 396.68 519.69 393.75 515.78 391.66 512.90 C 391.79 509.73 393.85 507.08 395.40 504.44 C 401.03 496.13 406.59 487.76 412.85 479.90 C 421.07 470.10 427.37 458.92 434.43 448.30 C 438.77 440.91 442.30 433.06 446.51 425.59 C 450.11 419.15 451.39 411.65 455.48 405.45 C 460.22 397.72 467.74 392.24 472.69 384.67 C 477.09 378.04 479.41 370.33 482.18 362.93 C 483.33 359.14 484.83 354.96 483.67 351.04 C 482.71 348.92 481.18 351.67 480.94 352.72 C 477.94 360.99 474.87 369.25 471.18 377.25 C 466.54 387.07 457.09 393.33 451.65 402.61 C 447.51 409.05 446.01 416.71 442.31 423.37 C 440.22 427.29 438.09 431.19 436.02 435.13 C 435.09 426.07 432.82 417.15 432.67 408.01 C 432.26 398.38 438.32 389.67 436.97 379.97 C 436.53 372.16 431.88 365.60 427.38 359.55 C 420.37 350.07 415.53 338.66 415.73 326.70 C 421.96 327.26 428.18 328.50 433.85 331.24 C 436.97 332.47 440.00 334.68 443.51 334.28 C 443.90 331.48 441.11 330.14 439.29 328.66 C 432.51 323.63 424.16 321.27 415.84 320.59 C 407.00 319.91 398.06 319.40 389.26 320.64 C 378.38 322.26 367.96 326.20 356.99 327.31 C 354.94 327.44 352.59 327.58 351.11 325.88 C 344.96 320.19 339.83 313.38 336.15 305.85 C 333.44 300.46 332.36 294.28 328.55 289.46 C 323.57 282.88 318.62 276.28 314.05 269.41 C 320.49 265.61 327.25 262.22 334.57 260.49 C 355.21 255.25 377.22 255.51 396.99 246.95 C 400.44 245.14 405.07 243.72 405.89 239.34 C 403.64 239.73 401.42 240.30 399.31 241.16 C 389.05 245.46 377.99 247.38 367.03 248.92 C 381.29 242.06 394.29 232.97 407.84 224.87 C 416.47 219.76 425.78 215.96 435.00 212.08 C 447.36 206.81 460.56 203.57 473.92 202.14 C 486.27 200.54 498.66 199.25 511.06 198.17 M 598.49 436.35 C 586.84 445.51 575.03 454.52 562.56 462.55 C 550.41 470.73 538.08 478.93 524.34 484.24 C 512.19 488.94 500.04 493.66 487.69 497.79 C 484.89 498.92 481.31 498.62 479.17 500.97 C 481.29 503.73 485.09 502.49 487.97 502.00 C 499.41 498.91 510.55 494.82 521.69 490.78 C 533.70 486.62 544.93 480.54 555.55 473.60 C 569.46 464.38 583.63 455.30 595.78 443.76 C 597.75 441.45 600.89 439.35 600.85 436.00 C 600.26 436.09 599.08 436.27 598.49 436.35 M 514.08 458.83 C 494.63 465.17 475.07 471.38 455.03 475.64 C 449.99 476.84 444.65 476.89 439.86 478.96 C 436.82 480.18 434.79 483.70 436.05 486.89 C 436.90 489.60 438.35 493.41 441.91 492.73 C 441.22 489.80 440.21 486.96 439.73 483.98 C 445.27 482.03 451.20 482.11 456.91 480.97 C 467.41 478.97 477.73 476.14 487.96 473.06 C 503.07 468.24 518.51 464.03 532.66 456.71 C 536.11 454.83 540.06 453.68 542.95 450.93 C 542.51 450.54 541.63 449.76 541.19 449.38 C 531.92 451.74 523.21 455.94 514.08 458.83 Z" />
    </g>
    <g id="#ffffffff">
        <path fill="var(--pants-color, grey)" opacity="1.00"
            d=" M 599.06 524.96 C 609.48 522.34 620.51 520.72 629.64 514.65 C 631.02 520.09 634.18 526.02 631.50 531.56 C 630.21 534.69 626.77 537.16 627.27 540.83 C 628.55 544.14 632.47 546.17 632.36 550.06 C 632.66 552.43 630.58 554.07 629.21 555.69 C 627.03 553.17 624.87 550.33 621.50 549.39 C 613.33 546.70 604.86 549.83 596.90 551.83 C 577.51 557.15 558.61 564.11 540.08 571.89 C 528.97 575.98 518.31 581.21 508.13 587.24 C 506.51 587.69 507.37 590.08 508.90 589.82 C 512.45 589.16 515.56 587.15 518.80 585.65 C 529.68 579.88 541.52 576.30 552.88 571.64 C 569.97 565.21 587.28 559.21 605.03 554.86 C 609.88 553.71 615.05 552.53 619.98 553.95 C 622.85 554.73 624.56 557.35 626.55 559.36 C 621.65 570.20 620.16 582.12 617.31 593.57 C 613.63 606.38 616.53 620.25 611.58 632.79 C 605.51 648.19 596.22 662.00 588.78 676.71 C 582.64 688.82 579.87 702.37 572.97 714.12 C 570.32 706.50 566.87 698.75 560.66 693.35 C 556.74 689.70 551.70 687.49 546.54 686.27 C 540.87 685.06 535.13 686.49 529.50 687.18 C 522.08 688.27 514.52 688.59 507.21 690.42 C 496.29 693.14 485.39 696.26 475.22 701.18 C 471.66 702.98 467.96 704.46 464.22 705.82 C 466.78 696.12 470.16 686.64 474.76 677.73 C 478.13 671.33 479.64 664.18 480.14 657.02 C 480.97 643.53 487.67 631.21 495.65 620.61 C 496.76 619.13 497.68 617.52 498.54 615.89 C 497.23 614.84 495.94 613.31 494.06 613.64 C 489.52 614.01 485.54 616.45 481.66 618.62 C 472.96 624.09 465.43 631.67 460.84 640.94 C 454.25 653.95 448.34 667.34 440.95 679.94 C 438.57 684.05 435.70 687.86 432.44 691.31 C 429.62 685.25 424.70 680.57 420.09 675.87 C 407.94 663.25 392.40 654.41 376.33 647.76 C 364.18 642.89 350.57 638.96 337.55 642.62 C 338.07 635.69 343.04 630.31 347.27 625.21 C 353.55 618.58 357.26 609.90 359.14 601.06 C 361.02 592.25 359.45 582.75 363.48 574.44 C 367.19 566.30 375.61 561.18 378.17 552.41 C 379.64 547.19 381.27 541.87 384.60 537.50 C 388.19 532.06 394.73 529.52 398.17 523.93 C 406.90 523.61 415.10 520.04 423.80 519.41 C 433.85 518.29 443.99 519.05 453.93 520.71 C 463.38 523.03 472.81 525.49 481.95 528.86 C 495.28 533.71 508.70 538.91 522.90 540.51 C 531.42 541.53 539.82 539.26 547.97 537.07 C 564.89 532.57 582.09 529.26 599.06 524.96 M 415.36 564.36 C 414.09 566.92 417.54 567.82 419.23 568.74 C 428.47 572.57 436.90 578.08 444.75 584.25 C 451.42 589.54 456.63 596.37 462.85 602.15 C 467.47 606.41 474.15 606.15 480.01 606.53 C 485.22 606.56 490.68 607.35 495.70 605.59 C 497.15 605.17 497.18 602.79 495.59 602.67 C 488.10 602.17 480.56 601.97 473.17 600.55 C 466.13 599.47 462.95 592.21 458.22 587.75 C 448.22 575.63 433.90 567.87 418.85 563.99 C 417.62 563.60 416.46 563.72 415.36 564.36 M 569.53 573.34 C 558.63 577.51 547.64 581.67 537.62 587.72 C 526.14 594.90 515.82 604.05 507.68 614.89 C 510.25 614.46 512.52 613.13 514.37 611.32 C 524.73 601.96 536.16 593.60 548.94 587.85 C 559.42 583.18 569.74 578.15 580.07 573.15 C 581.47 572.24 584.03 571.54 583.20 569.38 C 582.77 569.27 581.91 569.06 581.49 568.95 C 577.33 569.91 573.50 571.86 569.53 573.34 Z" />
        <path fill="var(--socks-color, grey)" opacity="1.00"
            d=" M 315.77 609.62 C 321.06 607.31 326.36 604.94 331.93 603.38 C 336.56 608.13 341.14 612.92 345.81 617.64 C 340.68 623.42 335.06 629.33 332.90 636.94 C 331.88 640.07 333.11 643.26 334.64 645.98 C 326.31 658.00 321.03 671.97 318.56 686.35 C 312.41 669.15 304.12 652.46 301.60 634.18 C 301.24 629.97 300.59 625.41 302.45 621.46 C 305.44 616.20 310.25 612.05 315.77 609.62 Z" />
        <path fill="var(--socks-color, grey)" opacity="1.00"
            d=" M 419.34 776.33 C 431.27 767.88 446.09 763.61 456.24 752.68 C 462.93 765.90 475.45 775.48 489.17 780.58 C 496.15 783.24 503.74 784.15 511.15 783.15 C 501.35 796.79 490.10 809.37 477.76 820.74 C 469.94 827.99 461.14 834.07 453.00 840.94 C 429.06 859.79 401.89 874.07 377.91 892.86 C 374.04 895.86 370.46 899.23 367.26 902.94 C 349.89 903.31 331.36 891.61 328.28 873.75 C 334.63 868.91 341.31 864.51 347.52 859.50 C 355.24 853.25 363.87 847.99 370.32 840.31 C 382.87 827.31 388.45 809.57 399.50 795.48 C 405.23 788.27 411.63 781.45 419.34 776.33 Z" />
    </g>
    <g id="#4d4d4dff">
        <path fill="#4d4d4d" opacity="1.00"
            d=" M 330.00 581.88 C 338.37 580.29 346.99 577.50 355.50 579.84 C 354.60 586.74 354.70 593.75 353.31 600.58 C 352.32 605.47 350.25 610.04 348.05 614.49 C 344.00 609.71 340.13 604.73 335.65 600.34 C 332.61 597.02 327.96 599.28 324.44 600.42 C 314.46 604.06 303.84 608.65 298.30 618.30 C 294.95 624.25 296.20 631.46 297.13 637.90 C 297.83 643.32 300.36 648.36 300.85 653.80 C 298.54 659.43 292.45 662.28 286.83 663.50 C 276.22 665.01 265.29 664.95 254.89 662.09 C 248.14 660.59 242.47 655.85 238.86 650.07 C 234.76 643.20 235.75 634.26 239.47 627.44 C 244.03 619.25 251.60 613.32 259.33 608.28 C 271.12 600.61 284.28 595.39 297.34 590.32 C 307.99 586.68 319.04 584.35 330.00 581.88 Z" />
        <path fill="#4d4d4d" opacity="1.00"
            d=" M 308.56 888.61 C 313.40 884.92 318.37 881.41 323.56 878.25 C 327.72 896.68 347.77 909.56 366.25 906.60 C 373.26 911.18 374.88 919.98 379.57 926.42 C 386.84 938.62 399.25 946.09 409.23 955.76 C 412.86 959.12 415.58 963.91 415.15 969.00 C 414.46 971.91 412.16 974.53 409.12 975.06 C 393.77 978.45 378.16 975.04 362.86 973.18 C 355.19 972.27 347.70 969.86 341.02 965.95 C 335.47 962.65 329.87 958.84 323.20 958.43 C 315.71 957.88 308.29 956.64 300.95 955.04 C 294.07 953.53 286.48 952.00 281.70 946.33 C 276.85 941.36 277.40 933.63 279.75 927.62 C 285.48 912.32 295.26 898.26 308.56 888.61 Z" />
    </g>
</svg>