<?xml version="1.0" encoding="UTF-8" ?>
<!DOCTYPE svg PUBLIC "-//W3C//DTD SVG 1.1//EN" "http://www.w3.org/Graphics/SVG/1.1/DTD/svg11.dtd">
<svg width="1000pt" height="1000pt" viewBox="0 0 1000 1000" version="1.1" xmlns="http://www.w3.org/2000/svg">
<g id="#020202ff">
<path fill="#020202" opacity="1.00" d=" M 609.35 51.04 C 607.95 48.60 604.21 44.18 607.96 42.25 C 611.87 43.79 615.18 46.68 619.38 47.55 C 628.86 50.42 639.13 46.34 648.32 50.70 C 657.77 53.85 662.22 63.42 669.64 69.30 C 673.56 72.81 679.24 73.24 683.14 76.78 C 690.02 82.29 692.65 91.08 694.74 99.27 C 696.73 107.58 705.12 113.06 705.26 121.99 C 705.06 124.84 705.16 129.11 701.96 130.30 C 699.43 128.66 697.94 125.94 696.14 123.62 C 696.69 127.03 697.23 130.49 696.92 133.96 C 696.79 136.84 696.03 139.89 697.35 142.63 C 701.58 152.20 701.52 163.19 699.16 173.24 C 697.66 179.64 697.02 186.30 694.46 192.42 C 691.35 200.09 687.68 207.81 681.80 213.78 C 680.63 215.31 678.70 215.10 677.04 214.83 C 672.89 218.50 668.43 221.78 663.81 224.82 C 660.95 226.55 659.81 229.88 659.16 232.97 C 657.81 239.16 657.19 245.82 659.37 251.89 C 660.07 254.32 662.68 255.19 664.56 256.51 C 671.99 260.80 678.27 266.69 684.98 271.97 C 697.22 281.69 708.38 292.99 716.87 306.18 C 725.90 319.98 734.83 334.15 739.91 349.96 C 743.84 362.13 747.64 374.44 749.33 387.16 C 751.88 403.01 751.45 419.08 752.32 435.06 C 752.51 449.73 754.56 464.33 757.27 478.73 C 761.56 495.61 768.24 511.75 773.84 528.22 C 777.48 538.40 780.42 548.81 783.60 559.15 C 787.25 571.21 788.14 583.86 791.28 596.04 C 792.08 598.03 789.86 599.86 788.00 599.68 C 783.04 599.33 778.32 597.62 773.57 596.30 C 774.65 602.89 774.15 609.61 772.74 616.10 C 768.98 634.73 759.73 652.02 746.97 666.03 C 735.91 677.99 724.76 689.94 712.05 700.17 C 703.55 707.68 693.52 713.07 683.80 718.80 C 673.12 724.68 662.32 730.38 651.01 734.98 C 645.85 736.87 640.35 739.40 634.75 738.28 C 623.42 735.18 611.94 732.69 600.47 730.22 C 602.69 735.94 604.41 741.88 605.06 748.02 C 607.26 766.00 609.61 783.96 611.76 801.95 C 612.65 809.22 612.70 816.64 614.38 823.79 C 616.79 828.08 620.69 831.30 623.88 835.02 C 633.86 845.49 641.40 858.24 645.87 871.99 C 648.86 881.03 651.36 890.44 651.15 900.03 C 651.17 908.07 645.56 914.82 639.46 919.42 C 627.07 927.86 611.52 928.77 597.01 929.09 C 567.00 928.87 537.12 925.55 507.37 921.87 C 501.86 932.48 491.73 941.03 479.85 943.33 C 466.83 946.20 453.34 946.16 440.40 949.48 C 420.16 955.28 399.68 960.33 378.94 964.04 C 358.52 967.78 337.62 967.26 316.99 965.86 C 313.09 965.45 308.65 965.25 305.68 962.34 C 302.47 959.13 302.31 954.02 303.98 950.03 C 307.51 940.62 315.82 934.20 324.04 929.03 C 339.03 920.26 353.38 910.46 367.87 900.89 C 377.74 893.60 387.38 885.66 394.72 875.72 C 397.49 871.60 399.95 867.04 400.78 862.11 C 400.74 855.86 399.63 849.55 396.92 843.89 C 391.78 832.55 386.25 821.40 380.75 810.24 C 372.07 794.40 367.62 776.69 364.33 759.07 C 362.20 747.81 363.09 736.34 362.58 724.97 C 361.70 717.77 360.84 710.48 358.34 703.64 C 355.30 694.50 352.04 684.88 353.74 675.14 C 355.21 664.74 362.14 656.40 368.36 648.38 C 376.01 638.65 385.09 630.21 394.28 621.97 C 394.26 619.99 393.45 617.60 395.09 616.04 C 397.78 613.36 401.52 612.14 405.00 610.85 C 416.48 607.12 428.57 605.02 439.40 599.48 C 450.79 593.75 461.52 586.82 472.79 580.88 C 482.99 575.49 491.66 567.51 502.36 563.02 C 503.02 560.67 503.57 558.14 505.35 556.35 C 511.80 549.31 520.32 544.70 527.35 538.32 C 528.67 536.99 530.44 535.27 529.82 533.21 C 527.95 529.43 524.20 526.47 523.92 522.01 C 523.74 516.18 529.70 512.55 530.25 506.94 C 529.96 502.45 526.28 499.35 523.67 496.06 C 520.74 499.67 517.30 502.82 514.31 506.38 C 503.96 520.09 499.74 537.47 488.65 550.70 C 482.68 558.01 474.25 562.61 466.15 567.15 C 450.16 575.71 433.50 582.97 416.59 589.47 C 403.10 594.30 389.56 600.44 374.95 600.34 C 363.66 600.25 352.33 599.20 341.06 600.25 C 331.22 602.30 320.95 602.15 311.38 605.46 C 306.75 607.12 301.98 608.60 297.02 608.53 C 286.14 608.67 275.43 610.83 264.92 613.50 C 246.67 617.26 228.38 620.85 209.98 623.79 C 202.53 624.73 194.20 625.64 187.40 621.75 C 182.28 618.21 183.65 610.53 187.39 606.48 C 189.47 603.96 192.38 602.38 195.19 600.82 C 188.87 600.36 181.55 598.77 177.97 593.00 C 175.64 589.42 177.28 584.86 180.04 582.06 C 184.96 576.93 192.05 574.74 198.80 573.21 C 190.77 571.43 182.46 569.20 175.83 564.13 C 169.88 559.56 170.04 548.58 177.32 545.41 C 185.54 542.17 194.73 542.41 203.36 543.59 C 197.41 539.97 190.88 535.80 188.45 528.91 C 186.96 524.99 188.62 520.45 191.94 518.03 C 197.63 513.74 205.09 512.97 211.99 512.87 C 219.68 512.97 227.34 514.19 234.70 516.39 C 230.24 510.84 225.91 504.35 226.13 496.93 C 226.02 491.81 229.77 486.67 234.95 485.85 C 239.51 484.88 244.06 486.73 247.82 489.20 C 258.42 496.09 267.71 504.75 277.97 512.10 C 291.89 522.58 307.14 531.36 323.44 537.55 C 327.11 538.88 330.96 540.30 334.94 539.86 C 337.55 539.02 339.86 537.45 342.39 536.41 C 352.55 532.07 363.66 530.49 373.70 525.84 C 387.61 520.08 397.58 507.61 411.86 502.58 C 415.73 501.10 419.88 500.60 423.99 500.38 C 424.94 495.34 425.51 489.27 430.16 486.14 C 433.18 483.89 437.09 484.15 440.56 484.98 C 441.60 482.44 442.29 479.39 444.78 477.84 C 446.26 477.08 448.00 477.18 449.61 476.89 C 447.17 467.81 448.49 458.33 450.18 449.25 C 453.19 434.65 456.74 420.10 462.22 406.21 C 467.19 392.91 474.26 380.49 478.83 367.03 C 483.68 353.62 485.18 338.96 492.44 326.48 C 498.07 316.50 506.55 308.34 516.29 302.40 C 530.66 294.13 546.99 288.54 558.76 276.36 C 554.12 275.51 549.51 273.44 546.75 269.46 C 541.47 262.00 538.75 253.04 533.25 245.71 C 528.39 239.29 523.71 232.44 521.83 224.48 C 518.47 209.92 518.48 194.89 518.07 180.03 C 517.86 174.45 517.43 168.87 517.78 163.29 C 515.87 163.79 513.15 165.31 511.96 162.87 C 511.37 160.31 512.77 157.72 512.83 155.13 C 514.00 145.93 506.53 138.21 507.71 129.02 C 508.72 122.53 511.12 116.08 515.41 111.02 C 513.90 110.11 511.03 110.13 511.16 107.82 C 511.65 104.77 515.44 104.31 517.67 102.91 C 516.74 100.79 515.33 98.17 517.04 96.03 C 522.83 89.19 530.32 84.02 536.75 77.80 C 553.47 63.05 575.43 53.52 597.97 54.27 C 598.18 53.64 598.61 52.38 598.82 51.75 C 602.30 51.23 605.82 51.02 609.35 51.04 M 522.78 160.20 C 522.92 168.84 524.02 177.42 524.26 186.05 C 524.82 198.17 525.37 210.38 527.88 222.29 C 529.28 228.88 532.80 234.76 536.89 240.03 C 541.11 245.50 544.26 251.68 547.14 257.93 C 549.04 261.56 550.64 265.52 553.67 268.38 C 557.28 271.77 562.96 271.14 567.09 269.18 C 573.80 264.08 580.48 258.86 588.01 254.97 C 593.51 251.73 599.76 250.08 605.60 247.78 C 604.53 243.78 605.63 239.29 603.40 235.62 C 600.79 231.04 596.31 228.03 592.92 224.10 C 588.04 218.94 583.88 212.73 583.20 205.47 C 581.44 207.68 580.41 212.17 576.84 211.38 C 575.62 208.03 577.00 204.32 575.80 200.93 C 573.77 194.27 569.44 188.37 564.01 184.07 C 562.41 182.97 559.89 181.28 558.19 183.07 C 555.37 185.67 556.08 189.90 556.84 193.24 C 558.57 200.06 559.46 207.06 559.63 214.09 C 559.93 216.82 559.91 220.02 561.99 222.10 C 565.21 223.26 568.73 222.37 570.81 219.61 C 571.81 221.22 572.55 223.48 570.91 224.99 C 566.91 228.85 558.79 227.75 556.68 222.32 C 555.10 218.40 555.07 214.10 554.83 209.95 C 554.56 203.68 553.16 197.54 551.98 191.40 C 548.14 190.70 544.41 189.21 541.59 186.44 C 533.67 179.03 528.00 169.61 522.78 160.20 M 634.17 239.35 C 632.20 239.85 629.74 241.11 628.24 239.05 C 628.26 237.41 629.05 235.95 629.61 234.45 C 624.93 236.24 620.07 237.56 615.53 239.71 C 611.89 241.40 609.23 244.56 607.00 247.80 C 621.98 244.71 637.90 244.63 652.25 250.44 C 650.59 244.22 651.03 237.69 652.57 231.49 C 646.64 234.56 640.51 237.27 634.17 239.35 M 613.98 251.94 C 602.90 253.39 592.23 257.60 583.16 264.13 C 574.71 270.29 566.49 276.79 558.68 283.75 C 549.29 291.59 538.40 297.25 527.43 302.51 C 516.39 307.65 506.25 315.28 499.51 325.54 C 491.44 337.43 489.81 352.01 485.58 365.42 C 481.82 378.27 475.74 390.24 470.81 402.64 C 463.99 419.49 459.41 437.17 456.05 455.01 C 454.04 465.53 454.01 476.78 458.29 486.77 C 459.33 488.33 458.17 490.58 456.17 489.66 C 453.08 487.69 450.58 484.93 447.64 482.77 C 446.90 485.20 444.98 488.02 446.56 490.50 C 448.95 494.65 451.72 499.03 451.35 504.03 C 451.31 505.86 448.70 507.01 447.79 505.13 C 444.69 500.53 443.52 494.55 438.98 490.94 C 436.74 488.70 432.81 489.80 431.29 492.33 C 429.62 494.98 429.04 498.12 428.11 501.07 C 432.13 502.20 436.27 503.62 439.28 506.66 C 444.11 511.41 447.63 517.27 451.19 522.98 C 454.23 528.25 457.73 533.45 459.08 539.48 C 457.46 538.63 456.00 537.49 455.09 535.89 C 449.78 527.40 444.40 518.84 437.54 511.49 C 431.91 505.39 422.44 504.22 414.86 506.90 C 400.29 511.59 390.76 524.86 376.84 530.83 C 365.72 536.35 353.08 537.59 341.92 542.96 C 338.03 545.09 333.40 547.32 331.94 551.87 C 329.32 559.13 328.16 567.18 330.20 574.73 C 332.14 582.13 334.75 589.48 338.88 595.97 C 343.23 595.34 347.57 594.59 351.97 594.39 C 360.88 593.76 369.78 595.31 378.70 594.65 C 388.81 594.03 398.31 590.20 407.72 586.78 C 427.62 579.01 446.95 569.83 465.77 559.72 C 476.29 554.21 486.82 547.34 492.84 536.77 C 498.85 524.01 504.37 510.58 514.22 500.19 C 521.97 492.63 523.34 481.21 524.20 470.96 C 525.11 458.06 526.55 444.86 532.03 432.99 C 534.92 426.79 537.88 420.53 542.10 415.11 C 543.25 413.48 545.17 412.78 546.90 411.94 C 546.15 414.05 545.32 416.14 544.17 418.07 C 539.39 426.19 535.22 434.77 532.87 443.93 C 529.66 455.36 529.60 467.33 528.04 479.03 C 534.75 466.80 540.93 453.93 550.78 443.83 C 556.90 437.45 564.53 432.86 571.38 427.35 C 575.10 424.41 578.53 421.01 582.89 419.00 C 582.63 420.80 582.48 422.78 581.09 424.13 C 577.48 428.19 573.12 431.47 569.08 435.07 C 563.61 439.95 557.30 443.87 552.41 449.39 C 544.93 457.61 540.30 467.85 534.83 477.40 C 541.64 477.47 550.55 478.81 553.71 485.77 C 546.90 484.54 540.00 480.54 532.99 482.90 C 529.84 485.24 528.51 489.21 526.26 492.32 C 531.08 495.72 535.47 500.83 535.64 507.00 C 535.78 512.24 531.60 516.00 529.51 520.43 C 528.71 521.84 529.65 523.40 530.33 524.66 C 534.50 531.63 541.02 536.72 547.30 541.69 C 558.76 550.31 571.37 557.70 585.06 562.15 C 601.31 567.32 618.67 565.12 635.05 561.80 C 639.66 560.89 644.25 559.53 649.00 559.80 C 647.45 561.37 645.74 562.89 643.57 563.50 C 635.18 566.22 626.48 567.77 617.83 569.40 C 604.34 572.10 589.97 571.46 577.30 565.81 C 561.46 558.97 546.46 549.69 534.34 537.31 C 526.86 546.98 515.54 552.62 507.50 561.76 C 522.22 562.13 536.18 567.17 549.92 572.01 C 560.92 575.95 572.33 578.48 583.56 581.65 C 600.66 586.13 617.44 592.32 635.09 594.32 C 652.80 596.16 669.68 589.52 686.35 584.63 C 703.71 580.61 721.82 579.67 739.47 582.26 C 755.14 584.04 770.39 588.37 785.30 593.40 C 782.75 581.97 781.60 570.23 778.11 559.02 C 775.24 549.82 772.66 540.52 769.39 531.45 C 763.36 514.13 756.17 497.15 751.87 479.29 C 749.23 465.01 747.17 450.55 747.00 436.01 C 746.23 420.03 746.66 403.94 744.09 388.09 C 742.48 376.00 738.86 364.30 735.12 352.73 C 730.14 337.11 721.08 323.29 712.31 309.60 C 704.35 297.00 693.86 286.10 682.02 277.11 C 673.41 270.64 665.45 263.13 655.69 258.37 C 642.80 252.32 628.13 249.16 613.98 251.94 M 234.40 492.54 C 231.24 494.66 231.76 499.13 232.73 502.31 C 235.33 509.34 240.51 515.18 246.33 519.78 C 251.58 524.01 258.15 526.14 263.35 530.45 C 257.66 531.70 252.65 528.08 247.36 526.69 C 234.24 521.61 220.20 517.89 206.01 518.98 C 201.93 519.46 197.15 520.00 194.35 523.39 C 192.29 526.39 194.72 529.96 196.74 532.29 C 204.23 540.43 215.04 544.12 225.14 547.90 C 228.36 549.31 232.43 550.35 233.68 554.10 C 222.72 552.83 212.04 549.91 201.14 548.30 C 194.31 547.57 187.16 547.43 180.57 549.58 C 175.77 551.26 176.03 558.54 180.14 560.87 C 192.14 568.67 206.81 570.02 220.71 571.35 C 220.69 572.48 220.67 573.62 220.66 574.76 C 211.08 576.86 201.12 577.47 191.85 580.83 C 187.86 582.47 183.24 584.58 181.79 589.00 C 183.31 592.85 187.60 594.52 191.32 595.47 C 202.09 597.45 212.99 594.91 223.80 595.00 C 223.86 595.51 223.97 596.55 224.03 597.07 C 217.29 599.78 209.91 600.45 203.10 603.01 C 198.11 604.81 192.50 606.85 189.62 611.64 C 188.43 613.65 187.97 617.20 190.59 618.29 C 196.75 620.71 203.59 619.90 209.98 618.97 C 228.39 615.82 246.74 612.31 264.97 608.25 C 275.42 605.45 286.11 603.32 296.96 603.18 C 303.60 603.26 309.52 599.96 315.89 598.65 C 321.53 597.42 327.30 597.05 333.05 596.69 C 329.91 590.94 327.25 584.90 325.61 578.54 C 322.30 567.45 324.50 555.41 328.85 544.93 C 305.97 539.02 285.58 526.18 266.95 511.99 C 259.24 506.06 252.00 499.50 243.83 494.19 C 241.09 492.53 237.49 490.73 234.40 492.54 M 373.72 651.69 C 367.74 659.85 360.64 668.43 360.57 679.10 C 360.50 688.60 364.39 697.52 366.71 706.60 C 379.52 689.58 402.24 680.09 423.28 684.52 C 416.00 677.18 408.40 670.11 400.19 663.82 C 398.78 662.56 396.67 661.34 397.08 659.14 C 400.09 658.44 402.62 660.58 405.00 662.06 C 413.35 667.86 421.42 674.17 428.35 681.65 C 433.16 686.81 437.07 692.70 440.87 698.63 C 447.98 695.83 455.44 694.03 462.72 691.75 C 448.34 683.46 434.02 674.62 422.42 662.59 C 412.27 651.84 403.39 639.71 397.06 626.31 C 389.47 634.95 380.61 642.43 373.72 651.69 M 444.01 703.57 C 446.32 707.45 448.60 711.35 450.59 715.40 C 457.05 728.35 459.46 742.86 460.16 757.20 C 460.82 772.82 461.96 788.42 462.57 804.05 C 463.39 816.85 464.34 829.76 467.75 842.19 C 468.72 845.58 469.68 849.21 472.37 851.70 C 477.46 857.77 484.73 861.25 490.69 866.33 C 496.46 871.23 501.65 876.84 505.96 883.08 C 512.79 880.20 519.48 876.90 525.60 872.68 C 536.28 865.42 543.58 854.51 552.42 845.31 C 549.41 835.32 545.50 825.62 542.26 815.70 C 537.04 799.33 532.37 782.78 526.32 766.69 C 522.49 756.80 519.72 746.16 512.84 737.83 C 509.21 738.21 505.55 738.79 501.91 738.34 C 499.47 734.20 498.43 729.35 495.58 725.41 C 490.16 717.58 483.97 710.32 477.96 702.95 C 475.54 699.81 472.24 697.58 468.92 695.50 C 460.46 697.69 452.52 701.50 444.01 703.57 M 552.96 726.98 C 542.01 731.46 530.90 736.39 518.92 737.11 C 519.58 738.17 520.24 739.24 520.91 740.33 C 532.47 741.74 544.17 740.47 555.54 738.28 C 566.81 736.07 578.03 733.03 588.33 727.85 C 582.25 726.67 576.17 725.46 570.08 724.29 C 564.26 723.09 558.32 724.75 552.96 726.98 M 615.77 833.10 C 610.01 847.22 595.26 856.88 580.04 856.82 C 571.38 857.13 563.40 853.43 555.35 850.82 C 546.73 860.04 539.24 870.60 528.63 877.72 C 522.42 882.00 515.64 885.42 508.58 888.06 C 511.58 897.37 511.93 907.45 509.36 916.90 C 535.84 919.72 562.39 922.24 589.02 923.12 C 603.80 923.33 619.39 923.62 633.00 916.96 C 639.89 913.53 646.57 907.20 646.41 898.93 C 646.47 886.38 641.74 874.38 636.87 863.02 C 631.97 851.68 624.21 841.98 615.77 833.10 M 458.06 861.13 C 454.24 866.55 447.21 868.07 440.99 868.47 C 429.42 868.97 417.91 867.21 406.53 865.38 C 404.80 874.00 399.76 881.44 393.55 887.50 C 377.46 904.62 356.11 915.03 336.63 927.62 C 329.34 932.20 321.55 936.21 315.42 942.37 C 312.23 945.59 309.44 949.48 308.51 953.99 C 307.96 956.19 308.87 959.02 311.29 959.61 C 316.73 961.20 322.48 961.00 328.08 961.39 C 347.62 962.45 367.34 961.39 386.51 957.33 C 403.83 953.98 420.83 949.23 437.86 944.71 C 451.01 941.53 464.62 941.11 477.88 938.56 C 491.28 936.39 502.21 925.01 505.11 911.93 C 506.93 903.79 507.27 894.62 502.65 887.31 C 496.55 877.01 486.47 869.96 476.90 863.16 C 473.27 860.67 470.54 857.16 467.11 854.45 C 462.56 853.67 460.35 858.13 458.06 861.13 Z" />
<path fill="#020202" opacity="1.00" d=" M 539.75 518.75 C 544.14 518.69 548.19 520.63 552.36 521.75 C 562.38 524.63 572.18 528.29 582.32 530.75 C 585.55 531.57 588.90 531.74 592.22 531.59 C 586.47 526.46 579.04 524.05 572.30 520.58 C 573.63 519.98 575.01 518.94 576.55 519.52 C 582.00 520.82 587.08 523.41 591.88 526.25 C 594.14 527.71 597.05 529.89 596.25 532.98 C 595.04 536.23 591.07 536.86 588.04 536.81 C 580.81 536.54 573.90 534.12 567.07 531.97 C 559.16 529.25 551.10 526.92 543.45 523.51 C 541.59 522.50 538.60 521.45 539.75 518.75 Z" />
</g>
<g id="#f0b58bff">
<path fill="#f0b58b" opacity="1.00" d=" M 522.78 160.20 C 528.00 169.61 533.67 179.03 541.59 186.44 C 544.41 189.21 548.14 190.70 551.98 191.40 C 553.16 197.54 554.56 203.68 554.83 209.95 C 555.07 214.10 555.10 218.40 556.68 222.32 C 558.79 227.75 566.91 228.85 570.91 224.99 C 572.55 223.48 571.81 221.22 570.81 219.61 C 568.73 222.37 565.21 223.26 561.99 222.10 C 559.91 220.02 559.93 216.82 559.63 214.09 C 559.46 207.06 558.57 200.06 556.84 193.24 C 556.08 189.90 555.37 185.67 558.19 183.07 C 559.89 181.28 562.41 182.97 564.01 184.07 C 569.44 188.37 573.77 194.27 575.80 200.93 C 577.00 204.32 575.62 208.03 576.84 211.38 C 580.41 212.17 581.44 207.68 583.20 205.47 C 583.88 212.73 588.04 218.94 592.92 224.10 C 596.31 228.03 600.79 231.04 603.40 235.62 C 605.63 239.29 604.53 243.78 605.60 247.78 C 599.76 250.08 593.51 251.73 588.01 254.97 C 580.48 258.86 573.80 264.08 567.09 269.18 C 562.96 271.14 557.28 271.77 553.67 268.38 C 550.64 265.52 549.04 261.56 547.14 257.93 C 544.26 251.68 541.11 245.50 536.89 240.03 C 532.80 234.76 529.28 228.88 527.88 222.29 C 525.37 210.38 524.82 198.17 524.26 186.05 C 524.02 177.42 522.92 168.84 522.78 160.20 Z" />
<path fill="#f0b58b" opacity="1.00" d=" M 634.17 239.35 C 640.51 237.27 646.64 234.56 652.57 231.49 C 651.03 237.69 650.59 244.22 652.25 250.44 C 637.90 244.63 621.98 244.71 607.00 247.80 C 609.23 244.56 611.89 241.40 615.53 239.71 C 620.07 237.56 624.93 236.24 629.61 234.45 C 629.05 235.95 628.26 237.41 628.24 239.05 C 629.74 241.11 632.20 239.85 634.17 239.35 Z" />
<path fill="#f0b58b" opacity="1.00" d=" M 373.72 651.69 C 380.61 642.43 389.47 634.95 397.06 626.31 C 403.39 639.71 412.27 651.84 422.42 662.59 C 434.02 674.62 448.34 683.46 462.72 691.75 C 455.44 694.03 447.98 695.83 440.87 698.63 C 437.07 692.70 433.16 686.81 428.35 681.65 C 421.42 674.17 413.35 667.86 405.00 662.06 C 402.62 660.58 400.09 658.44 397.08 659.14 C 396.67 661.34 398.78 662.56 400.19 663.82 C 408.40 670.11 416.00 677.18 423.28 684.52 C 402.24 680.09 379.52 689.58 366.71 706.60 C 364.39 697.52 360.50 688.60 360.57 679.10 C 360.64 668.43 367.74 659.85 373.72 651.69 Z" />
<path fill="#f0b58b" opacity="1.00" d=" M 552.96 726.98 C 558.32 724.75 564.26 723.09 570.08 724.29 C 576.17 725.46 582.25 726.67 588.33 727.85 C 578.03 733.03 566.81 736.07 555.54 738.28 C 544.17 740.47 532.47 741.74 520.91 740.33 C 520.24 739.24 519.58 738.17 518.92 737.11 C 530.90 736.39 542.01 731.46 552.96 726.98 Z" />
</g>
<g id="#f35e11ff">
<path fill="var(--shirt-color, grey)" opacity="1.00" d=" M 613.98 251.94 C 628.13 249.16 642.80 252.32 655.69 258.37 C 665.45 263.13 673.41 270.64 682.02 277.11 C 693.86 286.10 704.35 297.00 712.31 309.60 C 721.08 323.29 730.14 337.11 735.12 352.73 C 738.86 364.30 742.48 376.00 744.09 388.09 C 746.66 403.94 746.23 420.03 747.00 436.01 C 747.17 450.55 749.23 465.01 751.87 479.29 C 756.17 497.15 763.36 514.13 769.39 531.45 C 772.66 540.52 775.24 549.82 778.11 559.02 C 781.60 570.23 782.75 581.97 785.30 593.40 C 770.39 588.37 755.14 584.04 739.47 582.26 C 721.82 579.67 703.71 580.61 686.35 584.63 C 669.68 589.52 652.80 596.16 635.09 594.32 C 617.44 592.32 600.66 586.13 583.56 581.65 C 572.33 578.48 560.92 575.95 549.92 572.01 C 536.18 567.17 522.22 562.13 507.50 561.76 C 515.54 552.62 526.86 546.98 534.34 537.31 C 546.46 549.69 561.46 558.97 577.30 565.81 C 589.97 571.46 604.34 572.10 617.83 569.40 C 626.48 567.77 635.18 566.22 643.57 563.50 C 645.74 562.89 647.45 561.37 649.00 559.80 C 644.25 559.53 639.66 560.89 635.05 561.80 C 618.67 565.12 601.31 567.32 585.06 562.15 C 571.37 557.70 558.76 550.31 547.30 541.69 C 541.02 536.72 534.50 531.63 530.33 524.66 C 529.65 523.40 528.71 521.84 529.51 520.43 C 531.60 516.00 535.78 512.24 535.64 507.00 C 535.47 500.83 531.08 495.72 526.26 492.32 C 528.51 489.21 529.84 485.24 532.99 482.90 C 540.00 480.54 546.90 484.54 553.71 485.77 C 550.55 478.81 541.64 477.47 534.83 477.40 C 540.30 467.85 544.93 457.61 552.41 449.39 C 557.30 443.87 563.61 439.95 569.08 435.07 C 573.12 431.47 577.48 428.19 581.09 424.13 C 582.48 422.78 582.63 420.80 582.89 419.00 C 578.53 421.01 575.10 424.41 571.38 427.35 C 564.53 432.86 556.90 437.45 550.78 443.83 C 540.93 453.93 534.75 466.80 528.04 479.03 C 529.60 467.33 529.66 455.36 532.87 443.93 C 535.22 434.77 539.39 426.19 544.17 418.07 C 545.32 416.14 546.15 414.05 546.90 411.94 C 545.17 412.78 543.25 413.48 542.10 415.11 C 537.88 420.53 534.92 426.79 532.03 432.99 C 526.55 444.86 525.11 458.06 524.20 470.96 C 523.34 481.21 521.97 492.63 514.22 500.19 C 504.37 510.58 498.85 524.01 492.84 536.77 C 486.82 547.34 476.29 554.21 465.77 559.72 C 446.95 569.83 427.62 579.01 407.72 586.78 C 398.31 590.20 388.81 594.03 378.70 594.65 C 369.78 595.31 360.88 593.76 351.97 594.39 C 347.57 594.59 343.23 595.34 338.88 595.97 C 334.75 589.48 332.14 582.13 330.20 574.73 C 328.16 567.18 329.32 559.13 331.94 551.87 C 333.40 547.32 338.03 545.09 341.92 542.96 C 353.08 537.59 365.72 536.35 376.84 530.83 C 390.76 524.86 400.29 511.59 414.86 506.90 C 422.44 504.22 431.91 505.39 437.54 511.49 C 444.40 518.84 449.78 527.40 455.09 535.89 C 456.00 537.49 457.46 538.63 459.08 539.48 C 457.73 533.45 454.23 528.25 451.19 522.98 C 447.63 517.27 444.11 511.41 439.28 506.66 C 436.27 503.62 432.13 502.20 428.11 501.07 C 429.04 498.12 429.62 494.98 431.29 492.33 C 432.81 489.80 436.74 488.70 438.98 490.94 C 443.52 494.55 444.69 500.53 447.79 505.13 C 448.70 507.01 451.31 505.86 451.35 504.03 C 451.72 499.03 448.95 494.65 446.56 490.50 C 444.98 488.02 446.90 485.20 447.64 482.77 C 450.58 484.93 453.08 487.69 456.17 489.66 C 458.17 490.58 459.33 488.33 458.29 486.77 C 454.01 476.78 454.04 465.53 456.05 455.01 C 459.41 437.17 463.99 419.49 470.81 402.64 C 475.74 390.24 481.82 378.27 485.58 365.42 C 489.81 352.01 491.44 337.43 499.51 325.54 C 506.25 315.28 516.39 307.65 527.43 302.51 C 538.40 297.25 549.29 291.59 558.68 283.75 C 566.49 276.79 574.71 270.29 583.16 264.13 C 592.23 257.60 602.90 253.39 613.98 251.94 M 539.75 518.75 C 538.60 521.45 541.59 522.50 543.45 523.51 C 551.10 526.92 559.16 529.25 567.07 531.97 C 573.90 534.12 580.81 536.54 588.04 536.81 C 591.07 536.86 595.04 536.23 596.25 532.98 C 597.05 529.89 594.14 527.71 591.88 526.25 C 587.08 523.41 582.00 520.82 576.55 519.52 C 575.01 518.94 573.63 519.98 572.30 520.58 C 579.04 524.05 586.47 526.46 592.22 531.59 C 588.90 531.74 585.55 531.57 582.32 530.75 C 572.18 528.29 562.38 524.63 552.36 521.75 C 548.19 520.63 544.14 518.69 539.75 518.75 Z" />
</g>
<g id="#4d4d4dff">
<path fill="#4d4d4d" opacity="1.00" d=" M 234.40 492.54 C 237.49 490.73 241.09 492.53 243.83 494.19 C 252.00 499.50 259.24 506.06 266.95 511.99 C 285.58 526.18 305.97 539.02 328.85 544.93 C 324.50 555.41 322.30 567.45 325.61 578.54 C 327.25 584.90 329.91 590.94 333.05 596.69 C 327.30 597.05 321.53 597.42 315.89 598.65 C 309.52 599.96 303.60 603.26 296.96 603.18 C 286.11 603.32 275.42 605.45 264.97 608.25 C 246.74 612.31 228.39 615.82 209.98 618.97 C 203.59 619.90 196.75 620.71 190.59 618.29 C 187.97 617.20 188.43 613.65 189.62 611.64 C 192.50 606.85 198.11 604.81 203.10 603.01 C 209.91 600.45 217.29 599.78 224.03 597.07 C 223.97 596.55 223.86 595.51 223.80 595.00 C 212.99 594.91 202.09 597.45 191.32 595.47 C 187.60 594.52 183.31 592.85 181.79 589.00 C 183.24 584.58 187.86 582.47 191.85 580.83 C 201.12 577.47 211.08 576.86 220.66 574.76 C 220.67 573.62 220.69 572.48 220.71 571.35 C 206.81 570.02 192.14 568.67 180.14 560.87 C 176.03 558.54 175.77 551.26 180.57 549.58 C 187.16 547.43 194.31 547.57 201.14 548.30 C 212.04 549.91 222.72 552.83 233.68 554.10 C 232.43 550.35 228.36 549.31 225.14 547.90 C 215.04 544.12 204.23 540.43 196.74 532.29 C 194.72 529.96 192.29 526.39 194.35 523.39 C 197.15 520.00 201.93 519.46 206.01 518.98 C 220.20 517.89 234.24 521.61 247.36 526.69 C 252.65 528.08 257.66 531.70 263.35 530.45 C 258.15 526.14 251.58 524.01 246.33 519.78 C 240.51 515.18 235.33 509.34 232.73 502.31 C 231.76 499.13 231.24 494.66 234.40 492.54 Z" />
<path fill="#4d4d4d" opacity="1.00" d=" M 615.77 833.10 C 624.21 841.98 631.97 851.68 636.87 863.02 C 641.74 874.38 646.47 886.38 646.41 898.93 C 646.57 907.20 639.89 913.53 633.00 916.96 C 619.39 923.62 603.80 923.33 589.02 923.12 C 562.39 922.24 535.84 919.72 509.36 916.90 C 511.93 907.45 511.58 897.37 508.58 888.06 C 515.64 885.42 522.42 882.00 528.63 877.72 C 539.24 870.60 546.73 860.04 555.35 850.82 C 563.40 853.43 571.38 857.13 580.04 856.82 C 595.26 856.88 610.01 847.22 615.77 833.10 Z" />
<path fill="#4d4d4d" opacity="1.00" d=" M 458.06 861.13 C 460.35 858.13 462.56 853.67 467.11 854.45 C 470.54 857.16 473.27 860.67 476.90 863.16 C 486.47 869.96 496.55 877.01 502.65 887.31 C 507.27 894.62 506.93 903.79 505.11 911.93 C 502.21 925.01 491.28 936.39 477.88 938.56 C 464.62 941.11 451.01 941.53 437.86 944.71 C 420.83 949.23 403.83 953.98 386.51 957.33 C 367.34 961.39 347.62 962.45 328.08 961.39 C 322.48 961.00 316.73 961.20 311.29 959.61 C 308.87 959.02 307.96 956.19 308.51 953.99 C 309.44 949.48 312.23 945.59 315.42 942.37 C 321.55 936.21 329.34 932.20 336.63 927.62 C 356.11 915.03 377.46 904.62 393.55 887.50 C 399.76 881.44 404.80 874.00 406.53 865.38 C 417.91 867.21 429.42 868.97 440.99 868.47 C 447.21 868.07 454.24 866.55 458.06 861.13 Z" />
</g>
</svg>
