<?xml version="1.0" encoding="UTF-8" ?>
<!DOCTYPE svg PUBLIC "-//W3C//DTD SVG 1.1//EN" "http://www.w3.org/Graphics/SVG/1.1/DTD/svg11.dtd">
<svg width="1000pt" height="1000pt" viewBox="0 0 1000 1000" version="1.1" xmlns="http://www.w3.org/2000/svg">
<g id="#020202ff">
<path fill="#020202" opacity="1.00" d=" M 528.73 19.77 C 530.22 19.48 531.82 19.08 533.33 19.60 C 535.16 21.03 533.56 23.20 533.28 24.99 C 544.69 20.94 559.12 24.65 565.95 35.02 C 568.08 38.15 570.25 41.36 573.32 43.67 C 582.77 51.39 595.44 53.50 604.99 61.08 C 613.35 67.82 619.53 76.73 625.67 85.42 C 626.53 86.93 628.12 89.01 626.28 90.45 C 623.43 91.43 620.96 88.73 618.46 87.76 C 619.51 90.71 621.40 93.73 620.77 96.97 C 620.28 99.22 617.55 98.85 615.87 99.40 C 618.31 106.39 619.04 113.78 620.78 120.94 C 621.29 123.82 623.49 126.61 622.57 129.58 C 618.22 131.80 613.70 128.71 610.39 126.03 C 609.10 131.97 606.42 137.48 604.05 143.03 C 599.20 151.13 595.45 159.83 591.46 168.37 C 588.99 177.80 589.56 187.87 586.22 197.13 C 584.73 201.12 582.07 204.51 579.68 207.98 C 591.16 218.43 602.69 229.87 608.24 244.71 C 609.98 248.87 610.25 253.40 611.31 257.74 C 612.92 262.36 616.47 265.95 618.59 270.32 C 622.67 277.88 623.06 286.65 623.94 295.02 C 624.67 301.66 624.50 308.35 624.08 315.01 C 623.71 321.39 625.20 328.43 630.13 332.88 C 635.86 338.00 637.75 345.71 640.50 352.58 C 643.79 361.71 648.26 370.35 653.06 378.77 C 657.20 370.17 664.34 363.40 672.26 358.28 C 676.45 355.75 681.04 353.34 686.04 353.15 C 689.08 352.97 692.05 355.07 692.76 358.06 C 694.79 366.28 688.86 374.67 692.20 382.77 C 693.26 385.36 695.97 383.55 697.54 382.51 C 709.08 374.35 720.41 365.09 734.24 361.15 C 738.88 359.99 744.15 358.98 748.60 361.34 C 750.96 362.56 751.87 365.47 751.36 367.97 C 750.80 372.22 748.07 375.68 745.38 378.83 C 752.24 376.55 759.53 374.41 766.83 375.52 C 770.59 376.01 774.19 378.93 774.22 382.96 C 774.38 389.35 769.22 394.09 764.56 397.70 C 769.94 397.19 776.06 396.79 780.57 400.33 C 783.76 402.67 784.71 407.26 782.83 410.72 C 779.37 417.62 772.40 421.85 765.66 425.06 C 772.26 425.71 779.62 427.61 783.34 433.65 C 786.27 437.65 785.61 443.58 781.85 446.83 C 774.82 453.08 764.98 454.24 756.00 455.28 C 734.41 456.92 712.80 458.88 691.45 462.61 C 683.71 463.96 675.74 464.53 667.99 462.97 C 663.93 466.24 659.43 469.03 654.44 470.64 C 647.56 472.88 640.38 474.88 633.07 474.38 C 626.97 473.94 620.68 473.54 615.06 470.89 C 607.90 467.56 602.23 461.82 597.31 455.77 C 595.90 469.00 589.29 481.45 580.00 490.84 C 576.44 494.73 570.99 495.73 567.08 499.11 C 560.55 504.40 552.82 507.90 545.11 511.10 C 536.58 514.54 527.35 517.45 518.05 516.23 C 511.64 515.41 507.01 510.57 502.46 506.45 C 497.90 502.83 494.61 498.01 491.75 493.00 C 489.68 494.02 487.59 495.02 485.50 495.99 C 490.77 500.43 494.99 506.07 497.43 512.55 C 499.89 519.18 502.95 525.73 503.76 532.84 C 509.91 537.17 514.06 543.59 518.43 549.58 C 523.37 556.21 526.96 563.69 531.20 570.76 C 536.97 581.37 543.69 591.43 550.82 601.16 C 555.21 606.67 558.11 613.81 556.30 620.91 C 563.46 630.63 571.25 639.87 578.39 649.60 C 580.79 652.98 583.23 656.40 584.75 660.29 C 586.26 664.00 585.92 668.09 585.78 672.01 C 585.07 683.67 586.28 695.33 587.00 706.96 C 587.97 727.03 584.98 747.07 580.48 766.57 C 576.39 781.94 572.85 797.56 571.75 813.46 C 570.74 826.64 568.64 839.73 568.12 852.95 C 567.40 866.45 567.33 880.04 568.80 893.50 C 569.78 896.74 571.85 899.52 573.63 902.38 C 586.41 920.85 604.25 935.00 622.58 947.63 C 627.82 951.49 633.83 955.18 636.56 961.36 C 638.42 965.49 636.29 970.28 632.78 972.77 C 625.30 978.48 615.25 978.94 606.27 977.67 C 595.25 975.95 584.24 973.64 573.03 973.81 C 558.35 973.95 543.68 973.35 529.00 973.53 C 520.14 973.41 511.05 973.21 502.59 970.31 C 495.47 967.64 492.52 959.81 491.08 952.96 C 488.55 942.38 490.73 931.53 491.99 920.95 C 492.96 910.81 497.50 901.36 502.89 892.87 C 502.46 885.23 503.22 877.60 503.21 869.96 C 503.73 847.82 499.53 825.98 497.16 804.05 C 494.88 784.12 494.05 763.95 495.70 743.93 C 496.40 736.25 496.51 728.44 498.77 721.00 C 500.30 714.77 503.73 709.25 507.34 704.02 C 506.73 701.70 506.14 699.32 504.74 697.34 C 498.81 688.43 489.74 682.49 481.79 675.59 C 470.15 677.51 458.25 678.59 446.48 677.30 C 442.24 676.77 437.47 676.05 434.62 672.50 C 427.82 664.12 422.03 654.96 415.20 646.60 C 413.92 647.36 412.65 648.12 411.39 648.89 C 412.26 654.53 412.43 660.32 411.22 665.93 C 409.58 675.75 404.36 684.39 400.39 693.37 C 396.20 702.79 390.27 711.27 385.47 720.37 C 367.92 752.06 357.04 786.77 343.39 820.19 C 336.87 837.33 329.11 854.10 324.81 871.99 C 324.29 874.02 323.70 876.04 323.10 878.06 C 331.53 893.11 345.46 903.69 358.62 914.35 C 366.74 921.50 375.62 928.26 381.27 937.68 C 383.43 941.39 384.16 946.71 381.35 950.27 C 377.81 953.58 372.58 953.92 367.99 954.18 C 358.29 954.05 348.60 952.52 339.29 949.78 C 323.86 945.25 308.11 941.14 291.96 940.63 C 281.23 940.01 270.60 941.87 259.98 943.06 C 250.47 944.18 240.27 943.17 231.97 938.07 C 226.79 934.94 222.88 929.22 223.08 923.02 C 223.24 915.57 226.18 908.56 228.79 901.70 C 234.81 886.01 243.44 871.56 251.93 857.14 C 260.00 838.25 269.31 819.89 276.68 800.71 C 282.97 785.41 285.75 769.01 288.83 752.85 C 290.94 735.34 297.99 718.86 306.55 703.60 C 311.61 694.43 317.84 685.97 322.76 676.72 C 325.77 671.06 327.05 664.72 328.39 658.52 C 324.49 657.01 320.56 655.40 317.29 652.76 C 311.99 648.53 308.28 642.66 305.35 636.63 C 300.32 626.39 298.73 614.93 294.41 604.43 C 292.75 601.29 290.09 598.84 288.06 595.97 C 278.44 583.05 270.79 568.66 265.56 553.42 C 262.05 543.95 259.13 533.69 261.42 523.56 C 257.89 524.31 254.49 525.57 250.93 526.19 C 249.39 524.95 248.41 523.15 247.85 521.29 C 244.78 509.80 244.24 497.85 243.86 486.03 C 243.92 475.65 244.05 465.23 245.49 454.93 C 249.14 431.59 256.27 408.61 268.19 388.13 C 274.07 378.96 281.59 370.96 289.23 363.26 C 294.13 357.89 297.05 351.13 301.33 345.32 C 306.68 337.74 313.53 331.33 320.95 325.80 C 332.20 317.14 338.83 304.30 347.18 293.13 C 356.00 281.46 363.78 269.06 372.09 257.03 C 379.44 246.13 387.30 235.60 394.86 224.85 C 404.58 211.78 415.55 199.42 428.70 189.71 C 437.06 183.35 446.24 178.18 455.75 173.77 C 450.60 164.69 445.95 154.70 446.46 144.01 C 446.44 141.40 447.44 138.97 448.60 136.69 C 445.62 130.19 446.15 122.88 444.98 115.97 C 444.20 104.02 443.45 91.66 447.23 80.11 C 449.39 73.34 453.93 67.74 458.33 62.30 C 455.27 61.76 449.01 62.67 449.38 57.99 C 451.75 54.81 456.07 54.19 459.44 52.47 C 469.13 48.71 476.15 39.86 486.50 37.58 C 489.30 37.00 490.20 33.88 492.13 32.12 C 497.01 27.28 503.66 24.94 509.67 21.83 C 511.39 21.24 513.40 19.62 515.20 20.89 C 516.46 22.50 514.91 24.42 514.65 26.11 C 518.68 22.77 523.71 20.99 528.73 19.77 M 570.63 142.51 C 565.71 149.24 561.69 156.74 555.51 162.45 C 553.30 164.60 550.10 165.65 548.44 168.34 C 545.91 172.28 544.01 176.58 541.42 180.48 C 553.78 188.07 565.81 196.30 576.93 205.64 C 579.05 201.78 581.44 197.97 582.44 193.64 C 584.61 184.53 584.56 175.03 586.95 165.96 C 588.24 161.01 591.27 156.74 592.72 151.84 C 594.13 147.19 595.27 142.44 595.90 137.62 C 592.33 142.01 590.81 147.53 588.52 152.60 C 584.70 161.24 580.92 170.32 573.78 176.81 C 572.12 178.19 570.25 180.45 567.89 179.13 C 566.20 176.12 570.01 174.52 571.55 172.50 C 577.86 165.54 581.66 156.32 582.47 146.98 C 582.94 143.43 581.54 139.22 578.00 137.80 C 574.79 137.44 572.46 140.28 570.63 142.51 M 451.65 140.70 C 449.81 151.86 454.87 162.52 459.94 172.13 C 462.32 171.27 464.71 170.41 467.11 169.56 C 462.78 159.62 460.33 147.96 451.65 140.70 M 452.27 181.22 C 427.45 193.34 407.89 213.94 392.67 236.62 C 377.20 257.37 363.56 279.40 348.20 300.22 C 340.92 310.73 334.07 321.98 323.62 329.70 C 316.73 334.68 310.51 340.64 305.53 347.56 C 300.66 354.08 297.59 361.92 291.55 367.55 C 285.97 372.66 280.75 378.27 276.76 384.73 C 272.18 392.32 267.24 399.75 264.11 408.09 C 261.67 414.73 259.20 421.38 257.22 428.18 C 254.18 440.28 250.84 452.39 249.94 464.89 C 248.61 483.64 248.92 502.68 253.09 521.08 C 262.34 517.82 272.29 516.94 282.02 517.92 C 302.18 519.73 321.51 526.12 341.04 531.03 C 360.31 535.89 380.52 535.80 400.07 532.75 C 422.90 529.42 446.06 528.48 469.06 530.56 C 479.16 531.15 489.23 533.61 499.39 532.41 C 497.62 525.37 494.93 518.60 492.10 511.93 C 489.25 505.25 483.80 500.11 477.91 496.07 C 472.71 492.46 466.07 492.71 460.04 492.92 C 442.46 493.92 425.03 496.46 407.53 498.30 C 397.09 499.43 386.52 499.00 376.16 497.35 C 372.42 496.77 368.63 495.90 365.51 493.66 C 373.06 493.12 380.47 495.39 388.03 495.25 C 409.02 495.50 429.62 490.56 450.51 489.24 C 460.91 488.53 472.68 486.30 481.74 492.95 C 488.93 489.09 495.43 484.01 501.25 478.31 C 507.43 472.48 513.88 466.79 518.88 459.87 C 522.49 454.85 519.49 448.54 519.85 442.93 C 519.52 434.76 524.38 427.87 527.96 420.93 C 535.48 405.20 540.51 388.40 548.12 372.71 C 545.97 369.12 543.10 365.89 539.53 363.69 C 535.74 362.31 531.64 363.76 528.09 365.20 C 521.18 368.30 514.78 372.40 508.32 376.31 C 495.94 383.79 484.66 392.97 471.95 399.93 C 457.58 407.85 442.79 415.35 426.97 419.92 C 414.78 423.37 400.98 423.64 389.59 417.53 C 386.66 416.10 385.56 412.66 387.78 410.05 C 389.30 411.53 390.57 413.45 392.62 414.28 C 403.05 418.52 414.75 417.46 425.32 414.30 C 440.38 409.80 454.39 402.49 468.32 395.31 C 481.30 388.72 492.60 379.42 505.16 372.13 C 513.97 367.05 522.81 361.52 532.88 359.36 C 523.85 355.60 515.43 349.77 505.45 348.84 C 506.26 346.51 508.50 345.27 510.92 345.72 C 519.37 346.66 527.14 350.53 534.69 354.22 C 540.77 357.13 545.71 361.85 549.89 367.04 C 548.52 360.09 547.62 353.06 546.24 346.11 C 545.78 343.65 545.19 341.16 545.41 338.64 C 545.80 338.55 546.57 338.36 546.96 338.27 C 549.89 343.40 550.77 349.36 552.08 355.04 C 554.36 366.67 557.18 378.21 558.91 389.95 C 560.14 397.86 561.38 406.18 566.25 412.80 C 575.16 425.06 586.18 435.55 596.04 447.02 C 601.77 453.24 606.54 460.59 613.87 465.12 C 619.79 469.01 627.13 469.40 634.01 469.51 C 643.38 469.10 652.92 467.00 660.99 462.07 C 668.20 457.78 671.72 449.47 673.26 441.57 C 675.91 427.17 670.64 412.19 661.04 401.41 C 660.44 409.10 659.10 417.18 654.50 423.58 C 652.81 425.78 649.49 424.89 647.92 423.02 C 643.36 418.00 641.67 411.22 638.92 405.17 C 636.98 400.26 634.10 395.56 633.85 390.15 C 637.61 392.25 639.13 396.42 641.05 400.01 C 644.22 406.46 647.83 412.69 651.52 418.85 C 654.34 412.31 656.31 405.14 655.14 397.97 C 653.59 386.41 645.78 377.25 641.08 366.93 C 637.13 359.10 635.06 350.51 631.48 342.53 C 629.31 337.59 624.86 334.22 620.40 331.47 C 615.27 328.29 609.24 327.00 604.09 323.88 C 596.87 319.69 591.22 313.43 585.55 307.42 C 583.26 304.72 580.08 302.02 580.39 298.12 C 584.16 300.42 586.94 303.91 590.08 306.95 C 594.94 311.84 600.40 316.15 606.30 319.72 C 610.67 322.37 615.63 323.77 620.24 325.91 C 616.95 317.62 618.98 308.63 618.08 300.00 C 617.39 292.68 616.98 285.23 614.84 278.16 C 613.13 272.42 608.97 267.94 606.30 262.69 C 604.08 258.43 604.52 253.47 603.13 248.97 C 600.80 241.36 596.41 234.58 591.37 228.49 C 580.31 215.21 566.78 204.26 552.61 194.48 C 536.73 183.07 519.29 171.16 499.00 170.81 C 482.76 169.03 466.67 174.09 452.27 181.22 M 673.56 363.46 C 665.96 368.43 660.37 375.72 655.57 383.29 C 657.05 387.24 658.34 391.26 659.36 395.35 C 666.58 397.27 670.44 404.22 673.69 410.35 C 681.56 425.52 681.29 445.06 671.23 459.18 C 676.76 459.29 682.32 458.92 687.76 457.81 C 707.97 453.80 728.44 450.97 749.03 449.87 C 757.06 449.28 765.34 449.01 772.91 445.95 C 775.48 444.78 778.39 443.32 779.52 440.56 C 780.24 437.61 777.79 435.03 775.57 433.48 C 769.15 429.50 761.22 430.78 754.24 428.78 C 751.89 428.39 752.04 424.91 754.31 424.49 C 759.24 422.88 764.34 421.55 768.75 418.70 C 772.89 416.07 777.44 412.85 778.78 407.86 C 779.33 405.41 776.81 403.80 774.76 403.33 C 766.76 401.54 758.98 405.16 751.09 405.83 C 748.80 406.17 747.66 402.77 749.78 401.75 C 754.72 398.74 760.21 396.52 764.48 392.48 C 767.10 390.09 770.16 386.97 769.62 383.11 C 769.42 380.90 766.67 380.75 764.99 380.53 C 754.68 380.00 745.21 384.64 735.64 387.70 C 733.48 388.89 730.17 386.62 732.37 384.44 C 738.71 379.59 746.31 374.45 747.35 365.79 C 743.89 365.17 740.32 364.97 736.91 365.95 C 723.60 369.17 712.75 378.01 701.87 385.85 C 699.08 387.84 695.67 390.09 692.10 388.89 C 688.40 387.71 686.83 383.63 686.45 380.10 C 685.38 372.64 689.30 365.45 687.85 358.00 C 682.62 358.26 677.77 360.47 673.56 363.46 M 537.54 413.85 C 540.38 418.47 542.71 423.38 545.05 428.28 C 545.18 417.95 546.72 406.02 555.41 399.19 C 554.13 391.88 553.06 384.54 551.80 377.23 C 546.89 389.38 542.53 401.73 537.54 413.85 M 549.02 431.78 C 553.23 435.29 557.00 439.29 560.34 443.63 C 564.39 448.97 569.70 453.61 571.79 460.18 C 575.50 469.97 575.08 480.69 573.11 490.81 C 580.74 483.66 586.28 474.54 589.94 464.80 C 591.47 460.27 591.84 455.47 592.76 450.80 C 587.23 444.52 581.45 438.46 575.75 432.33 C 568.22 423.87 560.19 415.34 556.46 404.40 C 550.54 412.23 549.64 422.32 549.02 431.78 M 526.58 437.44 C 524.33 444.96 528.68 453.06 525.33 460.37 C 522.52 465.61 518.12 469.76 514.04 474.01 C 507.92 479.85 502.08 486.09 495.00 490.82 C 500.01 497.82 506.11 503.98 513.00 509.13 C 518.67 512.80 525.86 511.51 532.05 510.10 C 543.35 507.00 554.09 502.02 564.10 495.98 C 566.72 494.70 567.23 491.60 567.69 489.03 C 568.86 480.05 569.21 470.62 566.03 461.99 C 564.15 456.68 559.85 452.85 556.58 448.43 C 554.04 445.03 551.20 441.89 548.34 438.78 C 547.37 447.72 544.99 456.93 538.76 463.72 C 537.69 465.10 535.88 465.35 534.33 465.81 C 536.08 461.11 539.49 457.12 540.49 452.13 C 541.74 446.21 542.55 440.22 543.48 434.25 C 540.25 429.59 537.51 424.62 535.16 419.47 C 532.63 425.62 528.52 431.04 526.58 437.44 M 554.31 625.64 C 552.32 630.13 550.88 634.94 547.91 638.92 C 543.47 645.03 538.09 650.49 531.92 654.86 C 518.40 664.59 502.60 670.73 486.47 674.54 C 494.72 680.05 503.12 685.90 508.72 694.28 C 510.13 696.24 510.82 698.58 511.47 700.88 C 518.97 695.78 527.99 693.54 536.82 692.00 C 551.94 689.56 567.36 692.76 581.35 698.59 C 580.64 688.76 580.30 678.88 581.13 669.04 C 581.57 665.06 580.50 661.06 578.24 657.78 C 570.97 646.55 561.44 636.96 554.31 625.64 M 361.99 661.93 C 352.48 662.66 342.77 662.52 333.49 660.16 C 332.73 664.86 331.73 669.53 330.13 674.02 C 328.28 679.25 325.09 683.85 322.26 688.58 C 331.41 685.18 341.26 684.38 350.95 684.74 C 365.03 685.34 379.97 687.95 391.30 696.95 C 394.84 689.91 398.10 682.75 401.61 675.70 C 405.33 668.11 407.02 659.68 407.16 651.26 C 392.79 657.13 377.49 660.83 361.99 661.93 M 245.80 878.75 C 240.21 889.56 235.07 900.64 231.00 912.12 C 229.53 916.70 227.89 921.70 229.30 926.49 C 231.28 932.16 237.19 935.07 242.63 936.49 C 253.35 939.40 264.38 936.55 275.16 935.66 C 291.26 934.04 307.53 936.02 323.14 940.02 C 335.08 942.80 346.56 947.61 358.87 948.62 C 365.18 949.12 372.19 950.15 377.92 946.81 C 379.13 943.48 377.45 940.12 375.42 937.54 C 369.88 930.15 362.53 924.41 355.62 918.38 C 342.64 907.67 328.26 897.49 320.29 882.22 C 316.11 884.86 311.43 886.57 306.59 887.48 C 300.81 888.54 294.87 889.61 289.00 888.69 C 282.36 887.70 276.11 884.34 271.60 879.38 C 268.18 875.58 267.19 870.13 263.39 866.64 C 260.52 864.66 256.92 864.23 253.67 863.20 C 251.43 868.57 248.67 873.69 245.80 878.75 M 502.37 902.34 C 499.65 907.57 497.36 913.13 496.63 919.03 C 495.14 930.35 492.59 941.98 495.45 953.32 C 496.65 958.54 498.82 964.86 504.58 966.50 C 512.83 968.79 521.51 968.86 530.02 968.74 C 542.69 968.25 555.37 968.84 568.05 968.52 C 578.78 968.26 589.51 969.28 600.04 971.39 C 608.68 973.01 618.16 974.63 626.39 970.52 C 628.74 969.19 632.11 967.20 631.43 964.01 C 629.54 959.67 625.37 956.99 621.70 954.28 C 600.54 939.92 579.32 923.38 567.70 899.98 C 566.06 902.52 564.39 905.22 561.70 906.77 C 556.44 910.15 549.94 910.17 543.92 910.13 C 536.67 910.30 530.58 905.82 524.57 902.40 C 519.80 899.67 514.98 895.43 509.09 896.47 C 505.77 896.71 503.79 899.67 502.37 902.34 Z" />
</g>
<g id="#f0b58bff">
<path fill="#f0b58b" opacity="1.00" d=" M 570.63 142.51 C 572.46 140.28 574.79 137.44 578.00 137.80 C 581.54 139.22 582.94 143.43 582.47 146.98 C 581.66 156.32 577.86 165.54 571.55 172.50 C 570.01 174.52 566.20 176.12 567.89 179.13 C 570.25 180.45 572.12 178.19 573.78 176.81 C 580.92 170.32 584.70 161.24 588.52 152.60 C 590.81 147.53 592.33 142.01 595.90 137.62 C 595.27 142.44 594.13 147.19 592.72 151.84 C 591.27 156.74 588.24 161.01 586.95 165.96 C 584.56 175.03 584.61 184.53 582.44 193.64 C 581.44 197.97 579.05 201.78 576.93 205.64 C 565.81 196.30 553.78 188.07 541.42 180.48 C 544.01 176.58 545.91 172.28 548.44 168.34 C 550.10 165.65 553.30 164.60 555.51 162.45 C 561.69 156.74 565.71 149.24 570.63 142.51 Z" />
<path fill="#f0b58b" opacity="1.00" d=" M 451.65 140.70 C 460.33 147.96 462.78 159.62 467.11 169.56 C 464.71 170.41 462.32 171.27 459.94 172.13 C 454.87 162.52 449.81 151.86 451.65 140.70 Z" />
<path fill="#f0b58b" opacity="1.00" d=" M 554.31 625.64 C 561.44 636.96 570.97 646.55 578.24 657.78 C 580.50 661.06 581.57 665.06 581.13 669.04 C 580.30 678.88 580.64 688.76 581.35 698.59 C 567.36 692.76 551.94 689.56 536.82 692.00 C 527.99 693.54 518.97 695.78 511.47 700.88 C 510.82 698.58 510.13 696.24 508.72 694.28 C 503.12 685.90 494.72 680.05 486.47 674.54 C 502.60 670.73 518.40 664.59 531.92 654.86 C 538.09 650.49 543.47 645.03 547.91 638.92 C 550.88 634.94 552.32 630.13 554.31 625.64 Z" />
<path fill="#f0b58b" opacity="1.00" d=" M 361.99 661.93 C 377.49 660.83 392.79 657.13 407.16 651.26 C 407.02 659.68 405.33 668.11 401.61 675.70 C 398.10 682.75 394.84 689.91 391.30 696.95 C 379.97 687.95 365.03 685.34 350.95 684.74 C 341.26 684.38 331.41 685.18 322.26 688.58 C 325.09 683.85 328.28 679.25 330.13 674.02 C 331.73 669.53 332.73 664.86 333.49 660.16 C 342.77 662.52 352.48 662.66 361.99 661.93 Z" />
</g>
<g id="#f35e11ff">
<path fill="var(--shirt-color, grey)" opacity="1.00" d=" M 452.27 181.22 C 466.67 174.09 482.76 169.03 499.00 170.81 C 519.29 171.16 536.73 183.07 552.61 194.48 C 566.78 204.26 580.31 215.21 591.37 228.49 C 596.41 234.58 600.80 241.36 603.13 248.97 C 604.52 253.47 604.08 258.43 606.30 262.69 C 608.97 267.94 613.13 272.42 614.84 278.16 C 616.98 285.23 617.39 292.68 618.08 300.00 C 618.98 308.63 616.95 317.62 620.24 325.91 C 615.63 323.77 610.67 322.37 606.30 319.72 C 600.40 316.15 594.94 311.84 590.08 306.95 C 586.94 303.91 584.16 300.42 580.39 298.12 C 580.08 302.02 583.26 304.72 585.55 307.42 C 591.22 313.43 596.87 319.69 604.09 323.88 C 609.24 327.00 615.27 328.29 620.40 331.47 C 624.86 334.22 629.31 337.59 631.48 342.53 C 635.06 350.51 637.13 359.10 641.08 366.93 C 645.78 377.25 653.59 386.41 655.14 397.97 C 656.31 405.14 654.34 412.31 651.52 418.85 C 647.83 412.69 644.22 406.46 641.05 400.01 C 639.13 396.42 637.61 392.25 633.85 390.15 C 634.10 395.56 636.98 400.26 638.92 405.17 C 641.67 411.22 643.36 418.00 647.92 423.02 C 649.49 424.89 652.81 425.78 654.50 423.58 C 659.10 417.18 660.44 409.10 661.04 401.41 C 670.64 412.19 675.91 427.17 673.26 441.57 C 671.72 449.47 668.20 457.78 660.99 462.07 C 652.92 467.00 643.38 469.10 634.01 469.51 C 627.13 469.40 619.79 469.01 613.87 465.12 C 606.54 460.59 601.77 453.24 596.04 447.02 C 586.18 435.55 575.16 425.06 566.25 412.80 C 561.38 406.18 560.14 397.86 558.91 389.95 C 557.18 378.21 554.36 366.67 552.08 355.04 C 550.77 349.36 549.89 343.40 546.96 338.27 C 546.57 338.36 545.80 338.55 545.41 338.64 C 545.19 341.16 545.78 343.65 546.24 346.11 C 547.62 353.06 548.52 360.09 549.89 367.04 C 545.71 361.85 540.77 357.13 534.69 354.22 C 527.14 350.53 519.37 346.66 510.92 345.72 C 508.50 345.27 506.26 346.51 505.45 348.84 C 515.43 349.77 523.85 355.60 532.88 359.36 C 522.81 361.52 513.97 367.05 505.16 372.13 C 492.60 379.42 481.30 388.72 468.32 395.31 C 454.39 402.49 440.38 409.80 425.32 414.30 C 414.75 417.46 403.05 418.52 392.62 414.28 C 390.57 413.45 389.30 411.53 387.78 410.05 C 385.56 412.66 386.66 416.10 389.59 417.53 C 400.98 423.64 414.78 423.37 426.97 419.92 C 442.79 415.35 457.58 407.85 471.95 399.93 C 484.66 392.97 495.94 383.79 508.32 376.31 C 514.78 372.40 521.18 368.30 528.09 365.20 C 531.64 363.76 535.74 362.31 539.53 363.69 C 543.10 365.89 545.97 369.12 548.12 372.71 C 540.51 388.40 535.48 405.20 527.96 420.93 C 524.38 427.87 519.52 434.76 519.85 442.93 C 519.49 448.54 522.49 454.85 518.88 459.87 C 513.88 466.79 507.43 472.48 501.25 478.31 C 495.43 484.01 488.93 489.09 481.74 492.95 C 472.68 486.30 460.91 488.53 450.51 489.24 C 429.62 490.56 409.02 495.50 388.03 495.25 C 380.47 495.39 373.06 493.12 365.51 493.66 C 368.63 495.90 372.42 496.77 376.16 497.35 C 386.52 499.00 397.09 499.43 407.53 498.30 C 425.03 496.46 442.46 493.92 460.04 492.92 C 466.07 492.71 472.71 492.46 477.91 496.07 C 483.80 500.11 489.25 505.25 492.10 511.93 C 494.93 518.60 497.62 525.37 499.39 532.41 C 489.23 533.61 479.16 531.15 469.06 530.56 C 446.06 528.48 422.90 529.42 400.07 532.75 C 380.52 535.80 360.31 535.89 341.04 531.03 C 321.51 526.12 302.18 519.73 282.02 517.92 C 272.29 516.94 262.34 517.82 253.09 521.08 C 248.92 502.68 248.61 483.64 249.94 464.89 C 250.84 452.39 254.18 440.28 257.22 428.18 C 259.20 421.38 261.67 414.73 264.11 408.09 C 267.24 399.75 272.18 392.32 276.76 384.73 C 280.75 378.27 285.97 372.66 291.55 367.55 C 297.59 361.92 300.66 354.08 305.53 347.56 C 310.51 340.64 316.73 334.68 323.62 329.70 C 334.07 321.98 340.92 310.73 348.20 300.22 C 363.56 279.40 377.20 257.37 392.67 236.62 C 407.89 213.94 427.45 193.34 452.27 181.22 Z" />
<path fill="var(--shirt-color, grey)" opacity="1.00" d=" M 526.58 437.44 C 528.52 431.04 532.63 425.62 535.16 419.47 C 537.51 424.62 540.25 429.59 543.48 434.25 C 542.55 440.22 541.74 446.21 540.49 452.13 C 539.49 457.12 536.08 461.11 534.33 465.81 C 535.88 465.35 537.69 465.10 538.76 463.72 C 544.99 456.93 547.37 447.72 548.34 438.78 C 551.20 441.89 554.04 445.03 556.58 448.43 C 559.85 452.85 564.15 456.68 566.03 461.99 C 569.21 470.62 568.86 480.05 567.69 489.03 C 567.23 491.60 566.72 494.70 564.10 495.98 C 554.09 502.02 543.35 507.00 532.05 510.10 C 525.86 511.51 518.67 512.80 513.00 509.13 C 506.11 503.98 500.01 497.82 495.00 490.82 C 502.08 486.09 507.92 479.85 514.04 474.01 C 518.12 469.76 522.52 465.61 525.33 460.37 C 528.68 453.06 524.33 444.96 526.58 437.44 Z" />
</g>
<g id="#4d4d4dff">
<path fill="#4d4d4d" opacity="1.00" d=" M 673.56 363.46 C 677.77 360.47 682.62 358.26 687.85 358.00 C 689.30 365.45 685.38 372.64 686.45 380.10 C 686.83 383.63 688.40 387.71 692.10 388.89 C 695.67 390.09 699.08 387.84 701.87 385.85 C 712.75 378.01 723.60 369.17 736.91 365.95 C 740.32 364.97 743.89 365.17 747.35 365.79 C 746.31 374.45 738.71 379.59 732.37 384.44 C 730.17 386.62 733.48 388.89 735.64 387.70 C 745.21 384.64 754.68 380.00 764.99 380.53 C 766.67 380.75 769.42 380.90 769.62 383.11 C 770.16 386.97 767.10 390.09 764.48 392.48 C 760.21 396.52 754.72 398.74 749.78 401.75 C 747.66 402.77 748.80 406.17 751.09 405.83 C 758.98 405.16 766.76 401.54 774.76 403.33 C 776.81 403.80 779.33 405.41 778.78 407.86 C 777.44 412.85 772.89 416.07 768.75 418.70 C 764.34 421.55 759.24 422.88 754.31 424.49 C 752.04 424.91 751.89 428.39 754.24 428.78 C 761.22 430.78 769.15 429.50 775.57 433.48 C 777.79 435.03 780.24 437.61 779.52 440.56 C 778.39 443.32 775.48 444.78 772.91 445.95 C 765.34 449.01 757.06 449.28 749.03 449.87 C 728.44 450.97 707.97 453.80 687.76 457.81 C 682.32 458.92 676.76 459.29 671.23 459.18 C 681.29 445.06 681.56 425.52 673.69 410.35 C 670.44 404.22 666.58 397.27 659.36 395.35 C 658.34 391.26 657.05 387.24 655.57 383.29 C 660.37 375.72 665.96 368.43 673.56 363.46 Z" />
<path fill="#4d4d4d" opacity="1.00" d=" M 549.02 431.78 C 549.64 422.32 550.54 412.23 556.46 404.40 C 560.19 415.34 568.22 423.87 575.75 432.33 C 581.45 438.46 587.23 444.52 592.76 450.80 C 591.84 455.47 591.47 460.27 589.94 464.80 C 586.28 474.54 580.74 483.66 573.11 490.81 C 575.08 480.69 575.50 469.97 571.79 460.18 C 569.70 453.61 564.39 448.97 560.34 443.63 C 557.00 439.29 553.23 435.29 549.02 431.78 Z" />
<path fill="#4d4d4d" opacity="1.00" d=" M 245.80 878.75 C 248.67 873.69 251.43 868.57 253.67 863.20 C 256.92 864.23 260.52 864.66 263.39 866.64 C 267.19 870.13 268.18 875.58 271.60 879.38 C 276.11 884.34 282.36 887.70 289.00 888.69 C 294.87 889.61 300.81 888.54 306.59 887.48 C 311.43 886.57 316.11 884.86 320.29 882.22 C 328.26 897.49 342.64 907.67 355.62 918.38 C 362.53 924.41 369.88 930.15 375.42 937.54 C 377.45 940.12 379.13 943.48 377.92 946.81 C 372.19 950.15 365.18 949.12 358.87 948.62 C 346.56 947.61 335.08 942.80 323.14 940.02 C 307.53 936.02 291.26 934.04 275.16 935.66 C 264.38 936.55 253.35 939.40 242.63 936.49 C 237.19 935.07 231.28 932.16 229.30 926.49 C 227.89 921.70 229.53 916.70 231.00 912.12 C 235.07 900.64 240.21 889.56 245.80 878.75 Z" />
<path fill="#4d4d4d" opacity="1.00" d=" M 502.37 902.34 C 503.79 899.67 505.77 896.71 509.09 896.47 C 514.98 895.43 519.80 899.67 524.57 902.40 C 530.58 905.82 536.67 910.30 543.92 910.13 C 549.94 910.17 556.44 910.15 561.70 906.77 C 564.39 905.22 566.06 902.52 567.70 899.98 C 579.32 923.38 600.54 939.92 621.70 954.28 C 625.37 956.99 629.54 959.67 631.43 964.01 C 632.11 967.20 628.74 969.19 626.39 970.52 C 618.16 974.63 608.68 973.01 600.04 971.39 C 589.51 969.28 578.78 968.26 568.05 968.52 C 555.37 968.84 542.69 968.25 530.02 968.74 C 521.51 968.86 512.83 968.79 504.58 966.50 C 498.82 964.86 496.65 958.54 495.45 953.32 C 492.59 941.98 495.14 930.35 496.63 919.03 C 497.36 913.13 499.65 907.57 502.37 902.34 Z" />
</g>
</svg>
