<?xml version="1.0" encoding="utf-8"?>
<!-- Generator: Adobe Illustrator 23.0.4, SVG Export Plug-In . SVG Version: 6.00 Build 0)  -->
<svg version="1.1" id="Слой_1" xmlns="http://www.w3.org/2000/svg" xmlns:xlink="http://www.w3.org/1999/xlink" x="0px" y="0px"
	 viewBox="0 0 80 80" style="enable-background:new 0 0 80 80;" xml:space="preserve">
<style type="text/css">
	.st0{fill:#FFFF00;}
</style>
<circle class="st0" cx="40.1" cy="40" r="37.6"/>
<path d="M21.7,23.7h-0.1L14,27.8l-1.1-4.5l9.5-5.1h5v43.5h-5.7V23.7"/>
<path d="M38,62.1v-3.6l4.6-4.5c11.1-10.6,16.1-16.2,16.2-22.8c0-4.4-2.1-8.5-8.6-8.5c-4,0-7.2,2-9.2,3.7l-2-4.1
	c3-2.5,7.3-4.4,12.3-4.4c9.4,0,13.3,6.4,13.3,12.7c0,8-5.8,14.5-15,23.4l-3.5,3.2v0.1h19.6v4.9H38L38,62.1"/>
</svg>
