<?xml version="1.0" encoding="utf-8"?>
<!-- Generator: Adobe Illustrator 23.0.4, SVG Export Plug-In . SVG Version: 6.00 Build 0)  -->
<svg version="1.1" id="Слой_1" xmlns="http://www.w3.org/2000/svg" xmlns:xlink="http://www.w3.org/1999/xlink" x="0px" y="0px"
	 viewBox="0 0 80 80" style="enable-background:new 0 0 80 80;" xml:space="preserve">
<style type="text/css">
	.st0{fill:#FFFF00;}
</style>
<circle class="st0" cx="40.1" cy="40" r="37.6"/>
<path d="M34.8,22.4c-1.2-0.1-2.7,0-4.4,0.3c-9.2,1.5-14.1,8.3-15.1,15.5h0.2c2.1-2.7,5.7-5,10.5-5c7.7,0,13.1,5.6,13.1,14.1
	c0,8-5.4,15.3-14.5,15.3c-9.3,0-15.4-7.2-15.4-18.5c0-8.6,3.1-15.3,7.4-19.6c3.6-3.5,8.4-5.8,13.9-6.4c1.7-0.3,3.2-0.3,4.3-0.3V22.4
	 M33.1,47.5c0-6.2-3.5-10-9-10c-3.5,0-6.8,2.2-8.4,5.4c-0.4,0.7-0.7,1.5-0.7,2.6c0.1,7.2,3.4,12.5,9.6,12.5
	C29.7,57.9,33.1,53.7,33.1,47.5"/>
<path d="M41.2,50.7c0-5.5,3.3-9.4,8.6-11.7l-0.1-0.2c-4.8-2.3-6.9-6-6.9-9.8c0-6.9,5.8-11.6,13.5-11.6c8.4,0,12.7,5.3,12.7,10.7
	c0,3.7-1.8,7.6-7.2,10.2v0.2c5.4,2.1,8.8,6,8.8,11.3c0,7.6-6.5,12.7-14.8,12.7C46.7,62.5,41.2,57.1,41.2,50.7 M64.6,50.4
	c0-5.3-3.7-7.8-9.6-9.5c-5.1,1.5-7.8,4.8-7.8,9c-0.2,4.4,3.1,8.3,8.7,8.3C61.2,58.2,64.6,54.9,64.6,50.4 M48.4,28.7
	c0,4.4,3.3,6.7,8.3,8c3.8-1.3,6.6-4,6.6-7.9c0-3.5-2.1-7.1-7.4-7.1C51.1,21.7,48.4,24.9,48.4,28.7"/>
</svg>
