<?xml version="1.0" encoding="utf-8"?>
<!-- Generator: Adobe Illustrator 23.0.4, SVG Export Plug-In . SVG Version: 6.00 Build 0)  -->
<svg version="1.1" id="Слой_1" xmlns="http://www.w3.org/2000/svg" xmlns:xlink="http://www.w3.org/1999/xlink" x="0px" y="0px"
	 viewBox="0 0 80 80" style="enable-background:new 0 0 80 80;" xml:space="preserve">
<style type="text/css">
	.st0{fill:#FFFF00;}
	.st1{fill:#010101;}
</style>
<circle class="st0" cx="40.1" cy="40" r="37.6"/>
<path d="M13.2,57.6c1.3,0.1,2.7,0,4.8-0.2c3.4-0.5,6.6-1.9,9.1-4.2c2.9-2.6,5-6.4,5.8-11.6h-0.2c-2.4,2.9-5.9,4.7-10.2,4.7
	c-7.8,0-12.9-5.9-12.9-13.3c0-8.2,6-15.5,14.9-15.5s14.4,7.2,14.4,18.3c0,9.6-3.2,16.3-7.5,20.4c-3.3,3.3-8,5.3-12.7,5.8
	c-2.1,0.3-4,0.4-5.4,0.3v-4.7L13.2,57.6 M15.3,32.6c0,5.4,3.3,9.2,8.4,9.2c4,0,7-1.9,8.6-4.6c0.3-0.5,0.5-1.2,0.5-2.1
	c0-7.4-2.7-13.1-8.9-13.1C18.9,22,15.3,26.4,15.3,32.6"/>
<path class="st1" d="M70.5,39.6c0,14.6-5.5,22.6-15,22.6c-8.4,0-14.2-7.8-14.3-22c0-14.4,6.2-22.3,15-22.3
	C65.3,17.8,70.5,25.9,70.5,39.6 M47.1,40.2c0,11.2,3.5,17.5,8.8,17.5c6,0,8.9-6.9,8.9-17.9c0-10.6-2.7-17.5-8.8-17.5
	C50.8,22.3,47.1,28.5,47.1,40.2"/>
</svg>
