<svg xmlns="http://www.w3.org/2000/svg" viewBox="0 0 300 200" enable-background="new 0 0 300 200" width="400" height="266.73330667732904">
 <rect fill="#2a8b2a" width="300" height="200"/>
 <rect x="17.2" y="11.6" fill="#46a845" width="265.2" height="177.2"/>
 <g fill="none" stroke="#fff" stroke-width=".75" stroke-miterlimit="10">
  <rect x="17.2" y="11.3" width="265.2" height="177.1"/>
  <line x1="149.9" y1="11.6" x2="149.9" y2="188.7"/>
  <rect x="17.2" y="45.4" width="42.4" height="109"/>
  <rect x="240" y="45.4" width="42.4" height="109"/>
  <rect x="269.1" y="75.4" width="13.3" height="49"/>
  <rect x="17.2" y="75.4" width="13.3" height="49"/>
  <ellipse cx="149.9" cy="100" rx="23.8" ry="24.6"/>
  <path d="m59.5 79.5c6.3 4.4 10.7 11.9 10.8 20.3 0 8.5-4.2 15.9-10.5 20.3"/>
  <path d="m20 11.3c0 .5-.1 1.4-.3 1.8-.4.9-1.4 1.6-2.4 1.6"/>
  <path d="m282.4 14.3c-1.5 0-2.7-1.3-2.7-2.7"/>
  <path d="m240 120.2c-6.4-4.4-10.6-11.9-10.6-20.4s4.2-15.9 10.5-20.3"/>
  <path d="m20 188.4c0-1.6-1.2-2.7-2.7-2.7"/>
  <path d="m282.4 185.9c-1.5 0-2.7 1.3-2.7 2.7"/>
  <ellipse cx="149.9" cy="100" rx="1.4" ry="1.4"/>
 </g>
 <g fill="#fff">
  <ellipse cx="46.2" cy="100" rx="1" ry="1"/>
  <ellipse cx="252.7" cy="100" rx="1" ry="1"/>
 </g>
</svg>
