<svg id="svg" version="1.1" xmlns="http://www.w3.org/2000/svg" xmlns:xlink="http://www.w3.org/1999/xlink" width="400" height="266.9856459330144" viewBox="0, 0, 400,266.9856459330144"><g id="svgg"><path id="path0" d="M59.569 11.549 C 59.263 12.478,56.826 20.955,54.330 29.773 C 52.675 35.618,48.764 49.252,48.201 51.135 C 47.850 52.310,46.644 56.515,45.520 60.481 C 44.397 64.446,43.312 68.231,43.110 68.892 C 42.774 69.989,41.174 75.584,39.254 82.377 C 37.195 89.662,32.486 106.127,31.923 108.011 C 31.572 109.186,30.486 112.971,29.510 116.422 C 28.533 119.873,27.448 123.658,27.098 124.833 C 26.260 127.646,23.896 135.887,22.961 139.252 C 22.553 140.721,21.677 143.785,21.014 146.061 C 20.351 148.338,19.630 150.861,19.412 151.669 C 19.194 152.477,17.130 159.686,14.824 167.690 C 12.518 175.694,10.295 183.445,9.884 184.913 C 8.953 188.238,7.879 191.985,6.325 197.330 C 5.664 199.606,4.944 202.130,4.726 202.937 C 3.498 207.496,1.019 215.954,0.795 216.352 C 0.631 216.644,0.534 225.162,0.534 239.382 L 0.534 261.949 200.003 261.949 L 399.472 261.949 399.402 240.254 L 399.332 218.558 395.520 205.340 C 393.422 198.071,391.357 190.921,390.930 189.453 C 390.502 187.984,389.717 185.220,389.185 183.311 C 388.653 181.402,388.055 179.299,387.857 178.638 C 387.659 177.977,386.953 175.514,386.289 173.164 C 385.625 170.814,383.203 162.283,380.907 154.206 C 378.611 146.128,374.994 133.391,372.868 125.901 C 370.742 118.411,368.653 111.081,368.226 109.613 C 367.798 108.144,365.827 101.235,363.846 94.259 C 361.865 87.283,359.746 79.833,359.139 77.704 C 358.531 75.574,357.756 72.810,357.417 71.562 C 356.765 69.163,352.990 55.915,351.672 51.402 C 351.243 49.933,349.737 44.646,348.325 39.653 C 346.914 34.660,345.154 28.471,344.414 25.901 C 342.538 19.389,341.894 17.095,341.075 14.019 C 340.683 12.550,340.249 11.198,340.109 11.015 C 339.906 10.748,311.541 10.681,199.855 10.681 L 59.855 10.681 59.569 11.549 " stroke="none" fill="#00a93a" fill-rule="evenodd"></path><path id="path1" d="M0.534 108.598 C 0.534 168.033,0.634 216.548,0.756 216.409 C 0.878 216.269,1.549 214.112,2.248 211.615 C 2.947 209.119,3.803 206.115,4.152 204.940 C 4.501 203.765,5.279 201.061,5.882 198.932 C 6.485 196.802,7.465 193.378,8.060 191.322 C 8.656 189.266,9.478 186.382,9.887 184.913 C 10.297 183.445,12.518 175.694,14.824 167.690 C 17.130 159.686,19.194 152.477,19.412 151.669 C 19.630 150.861,20.351 148.338,21.014 146.061 C 21.677 143.785,22.553 140.721,22.961 139.252 C 23.896 135.887,26.260 127.646,27.098 124.833 C 27.448 123.658,28.533 119.873,29.510 116.422 C 30.486 112.971,31.572 109.186,31.923 108.011 C 32.486 106.127,37.195 89.662,39.254 82.377 C 41.174 75.584,42.774 69.989,43.110 68.892 C 43.312 68.231,44.397 64.446,45.520 60.481 C 46.644 56.515,47.850 52.310,48.201 51.135 C 48.812 49.092,52.982 34.545,54.402 29.506 C 54.774 28.184,55.354 26.142,55.690 24.967 C 58.719 14.382,59.319 12.306,59.569 11.549 L 59.855 10.681 199.855 10.681 C 311.541 10.681,339.906 10.748,340.109 11.015 C 340.249 11.198,340.683 12.550,341.075 14.019 C 341.894 17.095,342.538 19.389,344.414 25.901 C 345.154 28.471,346.914 34.660,348.325 39.653 C 349.737 44.646,351.243 49.933,351.672 51.402 C 352.990 55.915,356.765 69.163,357.417 71.562 C 357.756 72.810,358.531 75.574,359.139 77.704 C 359.746 79.833,361.865 87.283,363.846 94.259 C 365.827 101.235,367.798 108.144,368.226 109.613 C 368.653 111.081,370.742 118.411,372.868 125.901 C 374.994 133.391,378.611 146.128,380.907 154.206 C 383.203 162.283,385.625 170.814,386.289 173.164 C 386.953 175.514,387.659 177.977,387.857 178.638 C 388.055 179.299,388.653 181.402,389.185 183.311 C 389.717 185.220,390.502 187.984,390.930 189.453 C 391.357 190.921,393.391 198.059,395.449 205.315 C 397.508 212.570,399.253 218.568,399.329 218.643 C 399.404 218.719,399.466 169.675,399.466 109.657 L 399.466 0.534 200.000 0.534 L 0.534 0.534 0.534 108.598 M0.534 264.219 L 0.534 266.489 200.000 266.489 L 399.466 266.489 399.466 264.219 L 399.466 261.949 200.000 261.949 L 0.534 261.949 0.534 264.219 " stroke="none" fill="#008c17" fill-rule="evenodd"></path></g></svg>