<svg id="svg" version="1.1" xmlns="http://www.w3.org/2000/svg" xmlns:xlink="http://www.w3.org/1999/xlink" width="400" height="266.6666666666667" viewBox="0, 0, 400,266.6666666666667"><g id="svgg"><path id="path1" d="M72.875 23.958 C 75.785 23.984,80.548 23.984,83.458 23.958 C 86.369 23.933,83.987 23.912,78.167 23.912 C 72.346 23.912,69.965 23.933,72.875 23.958 M131.208 24.125 C 132.927 24.152,135.740 24.152,137.458 24.125 C 139.177 24.098,137.771 24.076,134.333 24.076 C 130.896 24.076,129.490 24.098,131.208 24.125 M207.208 24.292 C 209.752 24.317,213.915 24.317,216.458 24.292 C 219.002 24.266,216.921 24.245,211.833 24.245 C 206.746 24.245,204.665 24.266,207.208 24.292 M267.779 24.458 C 274.028 24.483,284.303 24.483,290.612 24.458 C 296.921 24.434,291.808 24.414,279.250 24.414 C 266.692 24.414,261.530 24.434,267.779 24.458 M323.220 24.625 C 326.046 24.651,330.621 24.651,333.387 24.625 C 336.153 24.599,333.842 24.578,328.250 24.578 C 322.658 24.578,320.395 24.599,323.220 24.625 M68.266 26.515 C 68.094 27.102,67.784 28.146,67.577 28.833 C 67.370 29.521,67.001 30.758,66.756 31.583 C 66.512 32.408,66.249 33.271,66.172 33.500 C 66.094 33.729,65.832 34.592,65.589 35.417 C 65.346 36.242,65.008 37.367,64.839 37.917 C 64.669 38.467,64.367 39.479,64.167 40.167 C 63.966 40.854,63.664 41.867,63.494 42.417 C 63.325 42.967,62.998 44.054,62.768 44.833 C 62.538 45.612,62.091 47.112,61.776 48.167 C 61.460 49.221,61.002 50.758,60.757 51.583 C 60.513 52.408,60.248 53.271,60.169 53.500 C 60.091 53.729,59.789 54.742,59.500 55.750 C 59.211 56.758,58.909 57.771,58.831 58.000 C 58.752 58.229,58.488 59.092,58.244 59.917 C 58.001 60.742,57.652 61.904,57.470 62.500 C 56.796 64.702,56.522 65.613,56.167 66.833 C 55.966 67.521,55.653 68.571,55.470 69.167 C 54.807 71.331,54.524 72.274,54.169 73.500 C 53.969 74.188,53.669 75.200,53.501 75.750 C 53.332 76.300,52.994 77.425,52.747 78.250 C 52.166 80.201,51.868 81.191,51.498 82.417 C 51.331 82.967,50.996 84.092,50.754 84.917 C 50.511 85.742,50.248 86.604,50.169 86.833 C 50.091 87.063,49.788 88.075,49.498 89.083 C 49.207 90.092,48.868 91.217,48.745 91.583 C 48.622 91.950,48.359 92.813,48.162 93.500 C 47.964 94.188,47.659 95.219,47.485 95.792 C 47.310 96.365,47.024 97.302,46.849 97.875 C 46.674 98.448,46.368 99.479,46.169 100.167 C 45.969 100.854,45.669 101.867,45.501 102.417 C 45.332 102.967,44.994 104.092,44.747 104.917 C 44.501 105.742,44.196 106.754,44.069 107.167 C 43.864 107.833,42.710 111.663,41.809 114.667 C 41.630 115.263,41.371 116.162,41.233 116.667 C 41.094 117.171,40.878 117.883,40.751 118.250 C 40.624 118.617,40.359 119.479,40.162 120.167 C 39.964 120.854,39.659 121.885,39.485 122.458 C 39.310 123.031,39.024 123.969,38.849 124.542 C 38.674 125.115,38.368 126.146,38.169 126.833 C 37.806 128.084,37.418 129.374,36.839 131.250 C 36.670 131.800,36.376 132.775,36.187 133.417 C 35.998 134.058,35.458 135.858,34.988 137.417 C 33.627 141.929,33.498 142.365,33.233 143.333 C 33.094 143.837,32.878 144.550,32.751 144.917 C 32.624 145.283,32.359 146.146,32.162 146.833 C 31.964 147.521,31.664 148.533,31.494 149.083 C 31.325 149.633,30.998 150.721,30.768 151.500 C 29.935 154.319,29.150 156.937,28.844 157.917 C 28.672 158.467,28.376 159.442,28.187 160.083 C 27.998 160.725,27.458 162.525,26.988 164.083 C 25.627 168.596,25.498 169.032,25.233 170.000 C 25.094 170.504,24.878 171.217,24.751 171.583 C 24.624 171.950,24.359 172.813,24.162 173.500 C 23.964 174.188,23.659 175.219,23.485 175.792 C 23.310 176.365,23.024 177.302,22.849 177.875 C 22.674 178.448,22.368 179.479,22.169 180.167 C 21.806 181.418,21.418 182.707,20.839 184.583 C 20.670 185.133,20.367 186.146,20.166 186.833 C 19.965 187.521,19.515 189.021,19.167 190.167 C 18.818 191.313,18.368 192.813,18.168 193.500 C 17.967 194.188,17.659 195.219,17.485 195.792 C 17.310 196.365,17.024 197.302,16.849 197.875 C 16.674 198.448,16.367 199.479,16.167 200.167 C 15.966 200.854,15.659 201.885,15.485 202.458 C 15.310 203.031,15.024 203.969,14.849 204.542 C 14.674 205.115,14.368 206.146,14.169 206.833 C 13.806 208.084,13.418 209.374,12.839 211.250 C 12.670 211.800,12.367 212.813,12.166 213.500 C 11.965 214.188,11.515 215.688,11.167 216.833 C 10.818 217.979,10.369 219.479,10.169 220.167 C 9.969 220.854,9.661 221.848,9.486 222.376 C 9.310 222.903,9.167 223.459,9.167 223.612 C 9.167 223.869,12.536 223.881,57.792 223.781 C 84.535 223.721,169.942 223.590,247.583 223.489 C 325.225 223.387,388.838 223.278,388.946 223.246 C 389.162 223.181,389.103 222.888,388.175 219.417 C 387.881 218.317,387.426 216.592,387.165 215.583 C 386.903 214.575,386.384 212.588,386.011 211.167 C 385.638 209.746,385.029 207.421,384.656 206.000 C 384.284 204.579,383.684 202.292,383.323 200.917 C 382.962 199.542,382.373 197.292,382.014 195.917 C 381.655 194.542,381.125 192.517,380.836 191.417 C 380.547 190.317,380.084 188.554,379.807 187.500 C 378.994 184.408,378.670 183.161,378.336 181.833 C 378.163 181.146,377.749 179.571,377.417 178.333 C 377.084 177.096,376.480 174.808,376.074 173.250 C 375.667 171.692,375.067 169.404,374.740 168.167 C 374.413 166.929,373.892 164.942,373.583 163.750 C 373.273 162.558,372.783 160.683,372.493 159.583 C 372.203 158.483,371.830 157.058,371.664 156.417 C 371.498 155.775,371.047 154.050,370.661 152.583 C 370.276 151.117,369.862 149.542,369.742 149.083 C 369.623 148.625,369.338 147.537,369.110 146.667 C 368.882 145.796,368.382 143.883,367.999 142.417 C 367.617 140.950,367.165 139.225,366.997 138.583 C 366.828 137.942,366.460 136.535,366.178 135.458 C 365.897 134.381,365.434 132.619,365.150 131.542 C 364.865 130.465,364.496 129.058,364.328 128.417 C 363.319 124.553,362.945 123.127,362.480 121.375 C 362.194 120.298,361.865 119.042,361.748 118.583 C 361.631 118.125,361.259 116.700,360.920 115.417 C 360.581 114.133,360.092 112.258,359.832 111.250 C 359.572 110.242,359.209 108.854,359.025 108.167 C 358.552 106.398,357.519 102.461,356.141 97.167 C 355.867 96.112,355.454 94.537,355.224 93.667 C 354.786 92.005,354.408 90.555,353.441 86.833 C 353.120 85.596,352.657 83.833,352.412 82.917 C 352.167 82.000,351.832 80.725,351.667 80.083 C 351.502 79.442,351.089 77.867,350.749 76.583 C 350.408 75.300,349.996 73.725,349.832 73.083 C 349.668 72.442,349.257 70.867,348.919 69.583 C 348.581 68.300,348.128 66.575,347.912 65.750 C 347.227 63.131,346.068 58.732,345.300 55.833 C 345.021 54.779,344.659 53.392,344.497 52.750 C 344.334 52.108,343.962 50.683,343.671 49.583 C 343.098 47.420,342.496 45.123,341.508 41.333 C 340.552 37.663,339.416 33.337,338.753 30.833 C 338.425 29.596,338.028 28.036,337.870 27.368 C 337.644 26.410,337.513 26.139,337.250 26.089 C 337.067 26.054,290.829 25.944,234.500 25.844 C 178.171 25.743,117.795 25.613,100.331 25.554 L 68.579 25.446 68.266 26.515 M391.000 224.472 C 391.000 224.618,387.701 224.677,377.708 224.707 L 364.417 224.748 377.657 224.792 C 390.195 224.833,391.516 224.794,391.114 224.392 C 391.051 224.329,391.000 224.365,391.000 224.472 M298.555 224.958 C 304.130 224.983,313.205 224.983,318.721 224.958 C 324.237 224.934,319.675 224.914,308.583 224.914 C 297.492 224.914,292.979 224.934,298.555 224.958 M7.043 225.167 C 7.103 225.387,9.141 225.417,24.097 225.418 L 41.083 225.419 24.176 225.375 C 10.915 225.341,7.237 225.287,7.122 225.124 C 7.013 224.971,6.993 224.982,7.043 225.167 M205.388 225.125 C 209.863 225.150,217.138 225.150,221.554 225.125 C 225.970 225.100,222.308 225.080,213.417 225.080 C 204.525 225.080,200.912 225.100,205.388 225.125 M102.708 225.291 C 104.335 225.319,106.998 225.319,108.625 225.291 C 110.252 225.264,108.921 225.242,105.667 225.242 C 102.412 225.242,101.081 225.264,102.708 225.291 " stroke="none" fill="#04ab3c" fill-rule="evenodd"></path><path id="path2" d="M0.000 133.333 L 0.000 266.667 200.000 266.667 L 400.000 266.667 400.000 133.333 L 400.000 0.000 200.000 0.000 L 0.000 0.000 0.000 133.333 M143.500 24.090 C 163.896 24.139,216.019 24.254,259.329 24.346 C 302.639 24.437,338.235 24.553,338.431 24.602 C 338.725 24.676,338.862 24.985,339.220 26.387 C 339.459 27.320,339.922 29.096,340.250 30.333 C 340.578 31.571,341.179 33.858,341.585 35.417 C 341.992 36.975,342.592 39.262,342.919 40.500 C 343.245 41.737,343.845 44.025,344.252 45.583 C 344.659 47.142,345.259 49.429,345.585 50.667 C 345.912 51.904,346.511 54.192,346.918 55.750 C 347.324 57.308,347.962 59.746,348.335 61.167 C 349.171 64.344,350.265 68.523,350.670 70.083 C 350.837 70.725,351.163 71.962,351.394 72.833 C 351.807 74.384,352.737 77.934,353.337 80.250 C 353.504 80.892,353.829 82.129,354.061 83.000 C 354.454 84.480,355.305 87.725,356.005 90.417 C 356.171 91.058,356.623 92.783,357.009 94.250 C 357.394 95.717,357.846 97.442,358.013 98.083 C 358.180 98.725,358.464 99.813,358.644 100.500 C 358.825 101.188,359.248 102.800,359.584 104.083 C 359.920 105.367,360.384 107.129,360.614 108.000 C 361.065 109.702,361.964 113.157,362.588 115.583 C 362.997 117.177,363.264 118.191,364.252 121.917 C 364.592 123.200,365.044 124.925,365.255 125.750 C 365.661 127.331,365.914 128.296,366.919 132.083 C 367.259 133.367,367.710 135.092,367.922 135.917 C 368.327 137.498,368.581 138.462,369.585 142.250 C 369.926 143.533,370.377 145.258,370.589 146.083 C 370.994 147.664,371.247 148.629,372.252 152.417 C 372.592 153.700,373.044 155.425,373.255 156.250 C 373.661 157.831,373.914 158.796,374.919 162.583 C 375.259 163.867,375.709 165.592,375.918 166.417 C 376.127 167.242,376.488 168.629,376.719 169.500 C 377.721 173.278,378.230 175.219,378.750 177.250 C 379.056 178.442,379.508 180.167,379.756 181.083 C 380.198 182.721,380.404 183.508,381.221 186.667 C 381.446 187.537,381.908 189.300,382.247 190.583 C 382.587 191.867,382.999 193.442,383.162 194.083 C 383.455 195.233,384.544 199.391,385.193 201.833 C 385.375 202.521,385.856 204.358,386.260 205.917 C 386.665 207.475,387.410 210.325,387.917 212.250 C 388.423 214.175,389.171 217.025,389.578 218.583 C 389.985 220.142,390.504 222.129,390.732 223.000 C 390.960 223.871,391.094 224.634,391.031 224.695 C 390.968 224.757,338.042 224.889,273.417 224.989 C 208.792 225.089,122.473 225.248,81.599 225.342 C 40.724 225.437,7.217 225.450,7.139 225.372 C 7.061 225.294,7.156 224.710,7.349 224.074 C 7.543 223.437,7.961 222.054,8.279 221.000 C 8.597 219.946,8.993 218.633,9.159 218.083 C 9.325 217.533,9.628 216.521,9.831 215.833 C 10.341 214.112,10.796 212.601,11.161 211.417 C 11.330 210.867,11.632 209.854,11.831 209.167 C 12.030 208.479,12.482 206.979,12.834 205.833 C 13.186 204.688,13.549 203.487,13.640 203.167 C 13.731 202.846,14.156 201.421,14.584 200.000 C 15.012 198.579,15.458 197.079,15.574 196.667 C 15.691 196.254,16.026 195.129,16.320 194.167 C 17.148 191.455,17.432 190.517,17.831 189.167 C 18.332 187.475,18.790 185.952,19.160 184.750 C 19.330 184.200,19.667 183.075,19.911 182.250 C 20.154 181.425,20.584 180.000,20.867 179.083 C 21.150 178.167,21.476 177.079,21.592 176.667 C 21.709 176.254,22.155 174.754,22.583 173.333 C 23.012 171.912,23.458 170.412,23.574 170.000 C 23.691 169.587,24.026 168.462,24.320 167.500 C 25.148 164.789,25.432 163.851,25.831 162.500 C 26.332 160.808,26.790 159.285,27.160 158.083 C 27.330 157.533,27.667 156.408,27.911 155.583 C 28.154 154.758,28.584 153.333,28.867 152.417 C 29.150 151.500,29.476 150.412,29.592 150.000 C 29.709 149.587,30.155 148.087,30.583 146.667 C 31.012 145.246,31.458 143.746,31.574 143.333 C 31.691 142.921,32.026 141.796,32.320 140.833 C 33.148 138.122,33.432 137.184,33.831 135.833 C 34.332 134.142,34.790 132.618,35.160 131.417 C 35.330 130.867,35.667 129.742,35.911 128.917 C 36.154 128.092,36.584 126.667,36.867 125.750 C 37.150 124.833,37.476 123.746,37.592 123.333 C 37.709 122.921,38.155 121.421,38.583 120.000 C 39.012 118.579,39.458 117.079,39.574 116.667 C 39.691 116.254,40.026 115.129,40.320 114.167 C 41.148 111.455,41.432 110.517,41.831 109.167 C 42.332 107.475,42.790 105.952,43.160 104.750 C 43.330 104.200,43.667 103.075,43.911 102.250 C 44.154 101.425,44.584 100.000,44.867 99.083 C 45.150 98.167,45.476 97.079,45.592 96.667 C 45.709 96.254,46.154 94.754,46.583 93.333 C 47.011 91.912,47.436 90.487,47.527 90.167 C 47.618 89.846,47.882 88.983,48.115 88.250 C 48.348 87.517,48.675 86.429,48.843 85.833 C 49.010 85.237,49.344 84.112,49.583 83.333 C 49.823 82.554,50.081 81.692,50.157 81.417 C 50.233 81.142,50.500 80.242,50.751 79.417 C 51.002 78.592,51.341 77.467,51.504 76.917 C 51.667 76.367,52.175 74.679,52.633 73.167 C 53.091 71.654,53.542 70.154,53.636 69.833 C 53.729 69.512,54.155 68.087,54.583 66.667 C 55.011 65.246,55.436 63.821,55.527 63.500 C 55.618 63.179,55.882 62.317,56.115 61.583 C 56.348 60.850,56.675 59.762,56.843 59.167 C 57.010 58.571,57.344 57.446,57.583 56.667 C 57.823 55.887,58.081 55.025,58.157 54.750 C 58.233 54.475,58.500 53.575,58.751 52.750 C 59.002 51.925,59.341 50.800,59.504 50.250 C 59.921 48.845,61.459 43.734,61.736 42.833 C 61.988 42.013,62.565 40.084,63.256 37.750 C 63.655 36.402,64.297 34.264,65.159 31.417 C 65.325 30.867,65.628 29.854,65.831 29.167 C 67.184 24.597,67.350 24.096,67.558 23.947 C 67.664 23.873,76.450 23.854,87.083 23.905 C 97.717 23.957,123.104 24.040,143.500 24.090 " stroke="none" fill="#048c14" fill-rule="evenodd"></path><path id="path3" d="M118.197 24.125 C 120.002 24.152,123.002 24.152,124.864 24.125 C 126.726 24.098,125.250 24.076,121.583 24.076 C 117.917 24.076,116.393 24.098,118.197 24.125 M185.054 24.292 C 188.338 24.317,193.663 24.317,196.887 24.292 C 200.112 24.266,197.425 24.246,190.917 24.246 C 184.408 24.246,181.770 24.266,185.054 24.292 M236.029 24.458 C 239.758 24.483,245.908 24.483,249.696 24.458 C 253.484 24.433,250.433 24.413,242.917 24.413 C 235.400 24.413,232.301 24.433,236.029 24.458 M310.052 24.625 C 311.593 24.652,314.068 24.652,315.552 24.625 C 317.036 24.597,315.775 24.575,312.750 24.575 C 309.725 24.575,308.511 24.597,310.052 24.625 M75.125 25.458 C 78.815 25.483,84.852 25.483,88.542 25.458 C 92.231 25.433,89.212 25.413,81.833 25.413 C 74.454 25.413,71.435 25.433,75.125 25.458 M121.138 25.625 C 128.410 25.649,140.260 25.649,147.471 25.625 C 154.683 25.601,148.733 25.581,134.250 25.581 C 119.767 25.581,113.866 25.601,121.138 25.625 M191.708 25.792 C 196.269 25.816,203.731 25.816,208.292 25.792 C 212.852 25.767,209.121 25.747,200.000 25.747 C 190.879 25.747,187.148 25.767,191.708 25.792 M268.138 25.958 C 272.109 25.983,278.559 25.983,282.471 25.958 C 286.383 25.933,283.133 25.913,275.250 25.913 C 267.367 25.913,264.166 25.933,268.138 25.958 M343.857 50.333 C 343.857 50.471,343.921 50.733,344.000 50.917 C 344.090 51.127,344.143 51.158,344.143 51.000 C 344.143 50.862,344.079 50.600,344.000 50.417 C 343.910 50.207,343.857 50.176,343.857 50.333 M346.523 60.500 C 346.523 60.637,346.588 60.900,346.667 61.083 C 346.757 61.293,346.810 61.324,346.810 61.167 C 346.810 61.029,346.745 60.767,346.667 60.583 C 346.576 60.373,346.523 60.342,346.523 60.500 M356.523 98.667 C 356.523 98.804,356.588 99.067,356.667 99.250 C 356.757 99.460,356.810 99.491,356.810 99.333 C 356.810 99.196,356.745 98.933,356.667 98.750 C 356.576 98.540,356.523 98.509,356.523 98.667 M358.523 106.333 C 358.523 106.471,358.588 106.733,358.667 106.917 C 358.757 107.127,358.810 107.158,358.810 107.000 C 358.810 106.862,358.745 106.600,358.667 106.417 C 358.576 106.207,358.523 106.176,358.523 106.333 M361.190 116.500 C 361.190 116.638,361.255 116.900,361.333 117.083 C 361.424 117.293,361.477 117.324,361.477 117.167 C 361.477 117.029,361.412 116.767,361.333 116.583 C 361.243 116.373,361.190 116.342,361.190 116.500 M363.857 126.667 C 363.857 126.804,363.921 127.067,364.000 127.250 C 364.090 127.460,364.143 127.491,364.143 127.333 C 364.143 127.196,364.079 126.933,364.000 126.750 C 363.910 126.540,363.857 126.509,363.857 126.667 M388.357 220.167 C 388.357 220.304,388.421 220.567,388.500 220.750 C 388.590 220.960,388.643 220.991,388.643 220.833 C 388.643 220.696,388.579 220.433,388.500 220.250 C 388.410 220.040,388.357 220.009,388.357 220.167 M297.542 223.458 C 302.285 223.483,310.048 223.483,314.792 223.458 C 319.535 223.434,315.654 223.414,306.167 223.414 C 296.679 223.414,292.798 223.434,297.542 223.458 M9.003 223.708 C 9.000 223.985,10.029 223.998,28.625 223.959 L 48.250 223.918 28.759 223.875 C 13.421 223.841,9.241 223.788,9.137 223.624 C 9.043 223.477,9.004 223.501,9.003 223.708 M185.208 223.625 C 192.060 223.649,203.273 223.649,210.125 223.625 C 216.977 223.601,211.371 223.581,197.667 223.581 C 183.963 223.581,178.356 223.601,185.208 223.625 M90.805 223.792 C 101.102 223.815,117.902 223.815,128.138 223.792 C 138.375 223.768,129.950 223.749,109.417 223.749 C 88.883 223.749,80.508 223.768,90.805 223.792 M353.136 224.792 C 355.274 224.818,358.724 224.818,360.803 224.791 C 362.882 224.765,361.133 224.743,356.917 224.743 C 352.700 224.744,350.999 224.765,353.136 224.792 M262.638 224.958 C 267.434 224.983,275.234 224.983,279.971 224.958 C 284.708 224.934,280.783 224.914,271.250 224.914 C 261.717 224.914,257.841 224.934,262.638 224.958 M172.721 225.125 C 177.288 225.150,184.713 225.150,189.221 225.125 C 193.729 225.100,189.992 225.080,180.917 225.080 C 171.842 225.080,168.154 225.100,172.721 225.125 M77.971 225.292 C 82.034 225.316,88.634 225.316,92.638 225.292 C 96.641 225.267,93.317 225.246,85.250 225.246 C 77.183 225.246,73.908 225.267,77.971 225.292 " stroke="none" fill="#5ac782" fill-rule="evenodd"></path><path id="path4" d="M89.888 24.125 C 94.547 24.150,102.122 24.150,106.721 24.125 C 111.320 24.100,107.508 24.080,98.250 24.080 C 88.992 24.080,85.229 24.100,89.888 24.125 M148.875 24.292 C 154.444 24.316,163.556 24.316,169.125 24.292 C 174.694 24.267,170.137 24.247,159.000 24.247 C 147.862 24.247,143.306 24.267,148.875 24.292 M208.292 24.458 C 212.165 24.483,218.502 24.483,222.375 24.458 C 226.248 24.433,223.079 24.413,215.333 24.413 C 207.588 24.413,204.419 24.433,208.292 24.458 M285.292 24.625 C 289.348 24.650,295.985 24.650,300.042 24.625 C 304.098 24.600,300.779 24.580,292.667 24.580 C 284.554 24.580,281.235 24.600,285.292 24.625 M103.042 25.458 C 107.419 25.483,114.581 25.483,118.958 25.458 C 123.335 25.434,119.754 25.413,111.000 25.413 C 102.246 25.413,98.665 25.434,103.042 25.458 M171.042 25.625 C 176.885 25.649,186.448 25.649,192.292 25.625 C 198.135 25.601,193.354 25.581,181.667 25.581 C 169.979 25.581,165.198 25.601,171.042 25.625 M228.138 25.792 C 234.585 25.816,245.085 25.816,251.471 25.792 C 257.858 25.767,252.583 25.748,239.750 25.748 C 226.917 25.748,221.691 25.767,228.138 25.792 M297.792 25.958 C 302.398 25.983,309.935 25.983,314.542 25.958 C 319.148 25.934,315.379 25.914,306.167 25.914 C 296.954 25.914,293.185 25.934,297.792 25.958 M62.262 45.762 C 62.201 46.006,62.183 46.238,62.222 46.277 C 62.261 46.317,62.343 46.149,62.405 45.905 C 62.466 45.661,62.484 45.429,62.445 45.389 C 62.406 45.350,62.323 45.518,62.262 45.762 M60.262 52.429 C 60.201 52.673,60.183 52.905,60.222 52.944 C 60.261 52.983,60.343 52.816,60.405 52.571 C 60.466 52.327,60.484 52.095,60.445 52.056 C 60.406 52.017,60.323 52.184,60.262 52.429 M346.357 59.500 C 346.357 59.637,346.421 59.900,346.500 60.083 C 346.590 60.293,346.643 60.324,346.643 60.167 C 346.643 60.029,346.579 59.767,346.500 59.583 C 346.410 59.373,346.357 59.342,346.357 59.500 M349.023 69.667 C 349.023 69.804,349.088 70.067,349.167 70.250 C 349.257 70.460,349.310 70.491,349.310 70.333 C 349.310 70.196,349.245 69.933,349.167 69.750 C 349.076 69.540,349.023 69.509,349.023 69.667 M353.690 87.500 C 353.690 87.638,353.755 87.900,353.833 88.083 C 353.924 88.293,353.977 88.324,353.977 88.167 C 353.977 88.029,353.912 87.767,353.833 87.583 C 353.743 87.373,353.690 87.342,353.690 87.500 M356.357 97.667 C 356.357 97.804,356.421 98.067,356.500 98.250 C 356.590 98.460,356.643 98.491,356.643 98.333 C 356.643 98.196,356.579 97.933,356.500 97.750 C 356.410 97.540,356.357 97.509,356.357 97.667 M359.023 107.833 C 359.023 107.971,359.088 108.233,359.167 108.417 C 359.257 108.627,359.310 108.658,359.310 108.500 C 359.310 108.362,359.245 108.100,359.167 107.917 C 359.076 107.707,359.023 107.676,359.023 107.833 M363.690 125.667 C 363.690 125.804,363.755 126.067,363.833 126.250 C 363.924 126.460,363.977 126.491,363.977 126.333 C 363.977 126.196,363.912 125.933,363.833 125.750 C 363.743 125.540,363.690 125.509,363.690 125.667 M366.357 135.833 C 366.357 135.971,366.421 136.233,366.500 136.417 C 366.590 136.627,366.643 136.658,366.643 136.500 C 366.643 136.362,366.579 136.100,366.500 135.917 C 366.410 135.707,366.357 135.676,366.357 135.833 M369.023 146.000 C 369.023 146.137,369.088 146.400,369.167 146.583 C 369.257 146.793,369.310 146.824,369.310 146.667 C 369.310 146.529,369.245 146.267,369.167 146.083 C 369.076 145.873,369.023 145.842,369.023 146.000 M376.357 174.000 C 376.357 174.137,376.421 174.400,376.500 174.583 C 376.590 174.793,376.643 174.824,376.643 174.667 C 376.643 174.529,376.579 174.267,376.500 174.083 C 376.410 173.873,376.357 173.842,376.357 174.000 M333.708 223.458 C 339.460 223.483,348.873 223.483,354.625 223.458 C 360.377 223.434,355.671 223.414,344.167 223.414 C 332.662 223.414,327.956 223.434,333.708 223.458 M239.555 223.625 C 248.981 223.649,264.356 223.649,273.722 223.625 C 283.087 223.601,275.375 223.582,256.583 223.582 C 237.792 223.582,230.129 223.601,239.555 223.625 M160.292 223.792 C 167.831 223.816,180.169 223.816,187.708 223.792 C 195.248 223.768,189.079 223.748,174.000 223.748 C 158.921 223.748,152.752 223.768,160.292 223.792 M59.958 223.958 C 66.490 223.982,77.177 223.982,83.708 223.958 C 90.240 223.934,84.896 223.914,71.833 223.914 C 58.771 223.914,53.427 223.934,59.958 223.958 M316.542 224.792 C 322.569 224.816,332.431 224.816,338.458 224.792 C 344.485 224.767,339.554 224.748,327.500 224.748 C 315.446 224.748,310.515 224.767,316.542 224.792 M213.458 224.958 C 220.906 224.982,233.094 224.982,240.542 224.958 C 247.990 224.934,241.896 224.915,227.000 224.915 C 212.104 224.915,206.010 224.934,213.458 224.958 M125.388 225.125 C 132.614 225.149,144.389 225.149,151.555 225.125 C 158.720 225.101,152.808 225.081,138.417 225.081 C 124.025 225.081,118.162 225.101,125.388 225.125 M40.805 225.292 C 46.335 225.316,55.335 225.316,60.805 225.292 C 66.275 225.267,61.750 225.247,50.750 225.247 C 39.750 225.247,35.275 225.267,40.805 225.292 " stroke="none" fill="#7cd49c" fill-rule="evenodd"></path><path id="path0" d="M67.538 24.271 C 67.448 24.443,67.174 25.296,66.928 26.167 C 66.682 27.037,66.380 28.050,66.256 28.417 C 66.131 28.783,65.677 30.283,65.245 31.750 C 64.814 33.217,64.066 35.729,63.583 37.333 C 63.100 38.938,62.200 41.938,61.583 44.000 C 60.967 46.063,60.055 49.100,59.557 50.750 C 59.059 52.400,58.472 54.350,58.251 55.083 C 56.934 59.468,56.593 60.604,55.581 64.000 C 54.965 66.063,54.067 69.063,53.583 70.667 C 53.100 72.271,52.202 75.271,51.589 77.333 C 50.976 79.396,50.374 81.383,50.252 81.750 C 50.130 82.117,49.677 83.617,49.245 85.083 C 48.814 86.550,48.066 89.063,47.583 90.667 C 47.100 92.271,46.200 95.271,45.583 97.333 C 44.967 99.396,44.055 102.433,43.557 104.083 C 43.059 105.733,42.472 107.683,42.251 108.417 C 40.934 112.802,40.593 113.937,39.581 117.333 C 38.965 119.396,38.067 122.396,37.583 124.000 C 37.100 125.604,36.202 128.604,35.589 130.667 C 34.976 132.729,34.374 134.717,34.252 135.083 C 34.130 135.450,33.677 136.950,33.245 138.417 C 32.814 139.883,32.066 142.396,31.583 144.000 C 31.100 145.604,30.200 148.604,29.583 150.667 C 28.967 152.729,28.055 155.767,27.557 157.417 C 27.059 159.067,26.472 161.017,26.251 161.750 C 24.934 166.135,24.593 167.271,23.581 170.667 C 22.965 172.729,22.067 175.729,21.583 177.333 C 21.100 178.938,20.202 181.938,19.589 184.000 C 18.976 186.063,18.374 188.050,18.252 188.417 C 18.130 188.783,17.677 190.283,17.245 191.750 C 16.814 193.217,16.066 195.729,15.583 197.333 C 15.100 198.938,14.200 201.938,13.583 204.000 C 12.967 206.063,12.055 209.100,11.557 210.750 C 10.601 213.918,10.208 215.224,9.276 218.333 C 8.960 219.387,8.393 221.273,8.017 222.524 C 7.641 223.774,7.333 224.923,7.333 225.077 C 7.333 225.337,9.242 225.349,35.875 225.255 C 65.829 225.150,189.331 224.917,315.958 224.728 C 390.811 224.616,390.833 224.616,390.833 224.281 C 390.833 224.097,390.721 223.564,390.585 223.098 C 390.448 222.632,389.996 220.938,389.582 219.333 C 389.167 217.729,388.677 215.854,388.492 215.167 C 388.307 214.479,387.708 212.192,387.160 210.083 C 386.612 207.975,386.012 205.688,385.826 205.000 C 385.641 204.313,385.042 202.025,384.496 199.917 C 383.949 197.808,383.389 195.671,383.251 195.167 C 383.113 194.662,382.513 192.375,381.918 190.083 C 381.322 187.792,380.722 185.504,380.584 185.000 C 380.336 184.091,379.148 179.546,377.186 172.000 C 376.626 169.846,376.054 167.671,375.916 167.167 C 375.778 166.662,375.178 164.375,374.582 162.083 C 373.987 159.792,373.387 157.504,373.249 157.000 C 373.111 156.496,372.551 154.358,372.004 152.250 C 371.458 150.142,370.859 147.854,370.674 147.167 C 370.488 146.479,369.896 144.229,369.358 142.167 C 368.820 140.104,367.760 136.054,367.004 133.167 C 366.248 130.279,365.189 126.229,364.650 124.167 C 364.112 122.104,363.521 119.854,363.338 119.167 C 362.977 117.810,361.818 113.391,359.667 105.167 C 358.911 102.279,357.703 97.667,356.981 94.917 C 355.002 87.372,353.777 82.689,352.578 78.083 C 351.981 75.792,351.388 73.542,351.260 73.083 C 351.132 72.625,350.532 70.337,349.927 68.000 C 349.322 65.662,348.723 63.375,348.596 62.917 C 348.469 62.458,347.870 60.171,347.263 57.833 C 346.657 55.496,346.089 53.321,346.000 53.000 C 345.911 52.679,345.340 50.504,344.731 48.167 C 344.122 45.829,343.043 41.704,342.333 39.000 C 341.624 36.296,340.575 32.283,340.004 30.083 C 339.433 27.883,338.873 25.783,338.760 25.417 L 338.556 24.750 295.653 24.641 C 272.056 24.581,217.238 24.450,173.833 24.350 C 130.429 24.250,88.793 24.121,81.309 24.063 C 68.115 23.962,67.696 23.968,67.538 24.271 M259.480 25.746 C 319.393 25.915,337.571 26.012,337.665 26.164 C 337.732 26.273,338.180 27.874,338.660 29.723 C 339.141 31.571,339.967 34.733,340.498 36.750 C 341.028 38.767,342.080 42.779,342.835 45.667 C 343.590 48.554,344.799 53.167,345.521 55.917 C 346.243 58.667,347.284 62.642,347.834 64.750 C 348.383 66.858,348.945 68.996,349.081 69.500 C 349.217 70.004,349.808 72.254,350.395 74.500 C 350.982 76.746,352.079 80.946,352.834 83.833 C 353.589 86.721,354.648 90.771,355.187 92.833 C 355.726 94.896,356.279 96.996,356.415 97.500 C 356.550 98.004,357.150 100.292,357.747 102.583 C 358.345 104.875,358.946 107.162,359.083 107.667 C 359.221 108.171,359.672 109.896,360.086 111.500 C 360.500 113.104,360.990 114.979,361.176 115.667 C 361.361 116.354,361.960 118.642,362.506 120.750 C 363.053 122.858,363.611 124.996,363.747 125.500 C 363.884 126.004,364.484 128.292,365.081 130.583 C 365.678 132.875,366.279 135.162,366.417 135.667 C 366.554 136.171,367.154 138.458,367.749 140.750 C 368.345 143.042,368.945 145.329,369.083 145.833 C 369.220 146.337,369.672 148.063,370.086 149.667 C 370.500 151.271,370.990 153.146,371.176 153.833 C 371.361 154.521,371.960 156.808,372.506 158.917 C 373.053 161.025,373.613 163.162,373.751 163.667 C 373.889 164.171,374.489 166.458,375.084 168.750 C 375.680 171.042,376.280 173.329,376.418 173.833 C 376.555 174.338,377.107 176.438,377.644 178.500 C 378.835 183.074,382.897 198.588,383.667 201.500 C 383.848 202.188,384.448 204.475,385.000 206.583 C 385.552 208.692,386.151 210.979,386.333 211.667 C 388.794 221.008,389.352 223.204,389.279 223.277 C 389.115 223.440,9.084 224.139,8.921 223.976 C 8.878 223.934,9.096 223.078,9.404 222.075 C 9.712 221.071,10.469 218.563,11.085 216.500 C 11.701 214.438,12.600 211.438,13.083 209.833 C 13.567 208.229,14.467 205.229,15.083 203.167 C 15.700 201.104,16.600 198.104,17.083 196.500 C 17.567 194.896,18.467 191.896,19.083 189.833 C 19.700 187.771,20.600 184.771,21.083 183.167 C 21.567 181.563,22.467 178.563,23.083 176.500 C 23.700 174.438,24.600 171.438,25.083 169.833 C 25.567 168.229,26.467 165.229,27.083 163.167 C 27.700 161.104,28.600 158.104,29.083 156.500 C 29.567 154.896,30.467 151.896,31.083 149.833 C 31.700 147.771,32.612 144.733,33.110 143.083 C 34.014 140.086,34.201 139.463,35.509 135.083 C 35.893 133.800,36.601 131.438,37.084 129.833 C 37.567 128.229,38.467 125.229,39.083 123.167 C 39.700 121.104,40.600 118.104,41.083 116.500 C 41.567 114.896,42.467 111.896,43.083 109.833 C 43.700 107.771,44.600 104.771,45.083 103.167 C 45.567 101.563,46.467 98.563,47.083 96.500 C 47.700 94.438,48.600 91.438,49.083 89.833 C 49.567 88.229,50.467 85.229,51.083 83.167 C 51.700 81.104,52.600 78.104,53.083 76.500 C 53.567 74.896,54.467 71.896,55.083 69.833 C 55.700 67.771,56.612 64.733,57.110 63.083 C 58.014 60.086,58.201 59.463,59.509 55.083 C 59.893 53.800,60.601 51.438,61.084 49.833 C 61.567 48.229,62.467 45.229,63.083 43.167 C 63.700 41.104,64.612 38.067,65.110 36.417 C 66.252 32.630,66.644 31.320,67.502 28.417 C 67.881 27.133,68.264 25.905,68.352 25.686 L 68.513 25.289 124.965 25.407 C 156.013 25.472,216.545 25.625,259.480 25.746 " stroke="none" fill="#ecf6ef" fill-rule="evenodd"></path><path id="path1" d="M72.875 23.958 C 75.785 23.984,80.548 23.984,83.458 23.958 C 86.369 23.933,83.987 23.912,78.167 23.912 C 72.346 23.912,69.965 23.933,72.875 23.958 M131.208 24.125 C 132.927 24.152,135.740 24.152,137.458 24.125 C 139.177 24.098,137.771 24.076,134.333 24.076 C 130.896 24.076,129.490 24.098,131.208 24.125 M207.208 24.292 C 209.752 24.317,213.915 24.317,216.458 24.292 C 219.002 24.266,216.921 24.245,211.833 24.245 C 206.746 24.245,204.665 24.266,207.208 24.292 M267.779 24.458 C 274.028 24.483,284.303 24.483,290.612 24.458 C 296.921 24.434,291.808 24.414,279.250 24.414 C 266.692 24.414,261.530 24.434,267.779 24.458 M323.220 24.625 C 326.046 24.651,330.621 24.651,333.387 24.625 C 336.153 24.599,333.842 24.578,328.250 24.578 C 322.658 24.578,320.395 24.599,323.220 24.625 M68.266 26.515 C 68.094 27.102,67.784 28.146,67.577 28.833 C 67.370 29.521,67.001 30.758,66.756 31.583 C 66.512 32.408,66.249 33.271,66.172 33.500 C 66.094 33.729,65.832 34.592,65.589 35.417 C 65.346 36.242,65.008 37.367,64.839 37.917 C 64.669 38.467,64.367 39.479,64.167 40.167 C 63.966 40.854,63.664 41.867,63.494 42.417 C 63.325 42.967,62.998 44.054,62.768 44.833 C 62.538 45.612,62.091 47.112,61.776 48.167 C 61.460 49.221,61.002 50.758,60.757 51.583 C 60.513 52.408,60.248 53.271,60.169 53.500 C 60.091 53.729,59.789 54.742,59.500 55.750 C 59.211 56.758,58.909 57.771,58.831 58.000 C 58.752 58.229,58.488 59.092,58.244 59.917 C 58.001 60.742,57.652 61.904,57.470 62.500 C 56.796 64.702,56.522 65.613,56.167 66.833 C 55.966 67.521,55.653 68.571,55.470 69.167 C 54.807 71.331,54.524 72.274,54.169 73.500 C 53.969 74.188,53.669 75.200,53.501 75.750 C 53.332 76.300,52.994 77.425,52.747 78.250 C 52.166 80.201,51.868 81.191,51.498 82.417 C 51.331 82.967,50.996 84.092,50.754 84.917 C 50.511 85.742,50.248 86.604,50.169 86.833 C 50.091 87.063,49.788 88.075,49.498 89.083 C 49.207 90.092,48.868 91.217,48.745 91.583 C 48.622 91.950,48.359 92.813,48.162 93.500 C 47.964 94.188,47.659 95.219,47.485 95.792 C 47.310 96.365,47.024 97.302,46.849 97.875 C 46.674 98.448,46.368 99.479,46.169 100.167 C 45.969 100.854,45.669 101.867,45.501 102.417 C 45.332 102.967,44.994 104.092,44.747 104.917 C 44.501 105.742,44.196 106.754,44.069 107.167 C 43.864 107.833,42.710 111.663,41.809 114.667 C 41.630 115.263,41.371 116.162,41.233 116.667 C 41.094 117.171,40.878 117.883,40.751 118.250 C 40.624 118.617,40.359 119.479,40.162 120.167 C 39.964 120.854,39.659 121.885,39.485 122.458 C 39.310 123.031,39.024 123.969,38.849 124.542 C 38.674 125.115,38.368 126.146,38.169 126.833 C 37.806 128.084,37.418 129.374,36.839 131.250 C 36.670 131.800,36.376 132.775,36.187 133.417 C 35.998 134.058,35.458 135.858,34.988 137.417 C 33.627 141.929,33.498 142.365,33.233 143.333 C 33.094 143.837,32.878 144.550,32.751 144.917 C 32.624 145.283,32.359 146.146,32.162 146.833 C 31.964 147.521,31.664 148.533,31.494 149.083 C 31.325 149.633,30.998 150.721,30.768 151.500 C 29.935 154.319,29.150 156.937,28.844 157.917 C 28.672 158.467,28.376 159.442,28.187 160.083 C 27.998 160.725,27.458 162.525,26.988 164.083 C 25.627 168.596,25.498 169.032,25.233 170.000 C 25.094 170.504,24.878 171.217,24.751 171.583 C 24.624 171.950,24.359 172.813,24.162 173.500 C 23.964 174.188,23.659 175.219,23.485 175.792 C 23.310 176.365,23.024 177.302,22.849 177.875 C 22.674 178.448,22.368 179.479,22.169 180.167 C 21.806 181.418,21.418 182.707,20.839 184.583 C 20.670 185.133,20.367 186.146,20.166 186.833 C 19.965 187.521,19.515 189.021,19.167 190.167 C 18.818 191.313,18.368 192.813,18.168 193.500 C 17.967 194.188,17.659 195.219,17.485 195.792 C 17.310 196.365,17.024 197.302,16.849 197.875 C 16.674 198.448,16.367 199.479,16.167 200.167 C 15.966 200.854,15.659 201.885,15.485 202.458 C 15.310 203.031,15.024 203.969,14.849 204.542 C 14.674 205.115,14.368 206.146,14.169 206.833 C 13.806 208.084,13.418 209.374,12.839 211.250 C 12.670 211.800,12.367 212.813,12.166 213.500 C 11.965 214.188,11.515 215.688,11.167 216.833 C 10.818 217.979,10.369 219.479,10.169 220.167 C 9.969 220.854,9.661 221.848,9.486 222.376 C 9.310 222.903,9.167 223.459,9.167 223.612 C 9.167 223.869,12.536 223.881,57.792 223.781 C 84.535 223.721,169.942 223.590,247.583 223.489 C 325.225 223.387,388.838 223.278,388.946 223.246 C 389.162 223.181,389.103 222.888,388.175 219.417 C 387.881 218.317,387.426 216.592,387.165 215.583 C 386.903 214.575,386.384 212.588,386.011 211.167 C 385.638 209.746,385.029 207.421,384.656 206.000 C 384.284 204.579,383.684 202.292,383.323 200.917 C 382.962 199.542,382.373 197.292,382.014 195.917 C 381.655 194.542,381.125 192.517,380.836 191.417 C 380.547 190.317,380.084 188.554,379.807 187.500 C 378.994 184.408,378.670 183.161,378.336 181.833 C 378.163 181.146,377.749 179.571,377.417 178.333 C 377.084 177.096,376.480 174.808,376.074 173.250 C 375.667 171.692,375.067 169.404,374.740 168.167 C 374.413 166.929,373.892 164.942,373.583 163.750 C 373.273 162.558,372.783 160.683,372.493 159.583 C 372.203 158.483,371.830 157.058,371.664 156.417 C 371.498 155.775,371.047 154.050,370.661 152.583 C 370.276 151.117,369.862 149.542,369.742 149.083 C 369.623 148.625,369.338 147.537,369.110 146.667 C 368.882 145.796,368.382 143.883,367.999 142.417 C 367.617 140.950,367.165 139.225,366.997 138.583 C 366.828 137.942,366.460 136.535,366.178 135.458 C 365.897 134.381,365.434 132.619,365.150 131.542 C 364.865 130.465,364.496 129.058,364.328 128.417 C 363.319 124.553,362.945 123.127,362.480 121.375 C 362.194 120.298,361.865 119.042,361.748 118.583 C 361.631 118.125,361.259 116.700,360.920 115.417 C 360.581 114.133,360.092 112.258,359.832 111.250 C 359.572 110.242,359.209 108.854,359.025 108.167 C 358.552 106.398,357.519 102.461,356.141 97.167 C 355.867 96.112,355.454 94.537,355.224 93.667 C 354.786 92.005,354.408 90.555,353.441 86.833 C 353.120 85.596,352.657 83.833,352.412 82.917 C 352.167 82.000,351.832 80.725,351.667 80.083 C 351.502 79.442,351.089 77.867,350.749 76.583 C 350.408 75.300,349.996 73.725,349.832 73.083 C 349.668 72.442,349.257 70.867,348.919 69.583 C 348.581 68.300,348.128 66.575,347.912 65.750 C 347.227 63.131,346.068 58.732,345.300 55.833 C 345.021 54.779,344.659 53.392,344.497 52.750 C 344.334 52.108,343.962 50.683,343.671 49.583 C 343.098 47.420,342.496 45.123,341.508 41.333 C 340.552 37.663,339.416 33.337,338.753 30.833 C 338.425 29.596,338.028 28.036,337.870 27.368 C 337.644 26.410,337.513 26.139,337.250 26.089 C 337.067 26.054,290.829 25.944,234.500 25.844 C 178.171 25.743,117.795 25.613,100.331 25.554 L 68.579 25.446 68.266 26.515 M391.000 224.472 C 391.000 224.618,387.701 224.677,377.708 224.707 L 364.417 224.748 377.657 224.792 C 390.195 224.833,391.516 224.794,391.114 224.392 C 391.051 224.329,391.000 224.365,391.000 224.472 M298.555 224.958 C 304.130 224.983,313.205 224.983,318.721 224.958 C 324.237 224.934,319.675 224.914,308.583 224.914 C 297.492 224.914,292.979 224.934,298.555 224.958 M7.043 225.167 C 7.103 225.387,9.141 225.417,24.097 225.418 L 41.083 225.419 24.176 225.375 C 10.915 225.341,7.237 225.287,7.122 225.124 C 7.013 224.971,6.993 224.982,7.043 225.167 M205.388 225.125 C 209.863 225.150,217.138 225.150,221.554 225.125 C 225.970 225.100,222.308 225.080,213.417 225.080 C 204.525 225.080,200.912 225.100,205.388 225.125 M102.708 225.291 C 104.335 225.319,106.998 225.319,108.625 225.291 C 110.252 225.264,108.921 225.242,105.667 225.242 C 102.412 225.242,101.081 225.264,102.708 225.291 " stroke="none" fill="#04ab3c" fill-rule="evenodd"></path><path id="path2" d="M0.000 133.333 L 0.000 266.667 200.000 266.667 L 400.000 266.667 400.000 133.333 L 400.000 0.000 200.000 0.000 L 0.000 0.000 0.000 133.333 M143.500 24.090 C 163.896 24.139,216.019 24.254,259.329 24.346 C 302.639 24.437,338.235 24.553,338.431 24.602 C 338.725 24.676,338.862 24.985,339.220 26.387 C 339.459 27.320,339.922 29.096,340.250 30.333 C 340.578 31.571,341.179 33.858,341.585 35.417 C 341.992 36.975,342.592 39.262,342.919 40.500 C 343.245 41.737,343.845 44.025,344.252 45.583 C 344.659 47.142,345.259 49.429,345.585 50.667 C 345.912 51.904,346.511 54.192,346.918 55.750 C 347.324 57.308,347.962 59.746,348.335 61.167 C 349.171 64.344,350.265 68.523,350.670 70.083 C 350.837 70.725,351.163 71.962,351.394 72.833 C 351.807 74.384,352.737 77.934,353.337 80.250 C 353.504 80.892,353.829 82.129,354.061 83.000 C 354.454 84.480,355.305 87.725,356.005 90.417 C 356.171 91.058,356.623 92.783,357.009 94.250 C 357.394 95.717,357.846 97.442,358.013 98.083 C 358.180 98.725,358.464 99.813,358.644 100.500 C 358.825 101.188,359.248 102.800,359.584 104.083 C 359.920 105.367,360.384 107.129,360.614 108.000 C 361.065 109.702,361.964 113.157,362.588 115.583 C 362.997 117.177,363.264 118.191,364.252 121.917 C 364.592 123.200,365.044 124.925,365.255 125.750 C 365.661 127.331,365.914 128.296,366.919 132.083 C 367.259 133.367,367.710 135.092,367.922 135.917 C 368.327 137.498,368.581 138.462,369.585 142.250 C 369.926 143.533,370.377 145.258,370.589 146.083 C 370.994 147.664,371.247 148.629,372.252 152.417 C 372.592 153.700,373.044 155.425,373.255 156.250 C 373.661 157.831,373.914 158.796,374.919 162.583 C 375.259 163.867,375.709 165.592,375.918 166.417 C 376.127 167.242,376.488 168.629,376.719 169.500 C 377.721 173.278,378.230 175.219,378.750 177.250 C 379.056 178.442,379.508 180.167,379.756 181.083 C 380.198 182.721,380.404 183.508,381.221 186.667 C 381.446 187.537,381.908 189.300,382.247 190.583 C 382.587 191.867,382.999 193.442,383.162 194.083 C 383.455 195.233,384.544 199.391,385.193 201.833 C 385.375 202.521,385.856 204.358,386.260 205.917 C 386.665 207.475,387.410 210.325,387.917 212.250 C 388.423 214.175,389.171 217.025,389.578 218.583 C 389.985 220.142,390.504 222.129,390.732 223.000 C 390.960 223.871,391.094 224.634,391.031 224.695 C 390.968 224.757,338.042 224.889,273.417 224.989 C 208.792 225.089,122.473 225.248,81.599 225.342 C 40.724 225.437,7.217 225.450,7.139 225.372 C 7.061 225.294,7.156 224.710,7.349 224.074 C 7.543 223.437,7.961 222.054,8.279 221.000 C 8.597 219.946,8.993 218.633,9.159 218.083 C 9.325 217.533,9.628 216.521,9.831 215.833 C 10.341 214.112,10.796 212.601,11.161 211.417 C 11.330 210.867,11.632 209.854,11.831 209.167 C 12.030 208.479,12.482 206.979,12.834 205.833 C 13.186 204.688,13.549 203.487,13.640 203.167 C 13.731 202.846,14.156 201.421,14.584 200.000 C 15.012 198.579,15.458 197.079,15.574 196.667 C 15.691 196.254,16.026 195.129,16.320 194.167 C 17.148 191.455,17.432 190.517,17.831 189.167 C 18.332 187.475,18.790 185.952,19.160 184.750 C 19.330 184.200,19.667 183.075,19.911 182.250 C 20.154 181.425,20.584 180.000,20.867 179.083 C 21.150 178.167,21.476 177.079,21.592 176.667 C 21.709 176.254,22.155 174.754,22.583 173.333 C 23.012 171.912,23.458 170.412,23.574 170.000 C 23.691 169.587,24.026 168.462,24.320 167.500 C 25.148 164.789,25.432 163.851,25.831 162.500 C 26.332 160.808,26.790 159.285,27.160 158.083 C 27.330 157.533,27.667 156.408,27.911 155.583 C 28.154 154.758,28.584 153.333,28.867 152.417 C 29.150 151.500,29.476 150.412,29.592 150.000 C 29.709 149.587,30.155 148.087,30.583 146.667 C 31.012 145.246,31.458 143.746,31.574 143.333 C 31.691 142.921,32.026 141.796,32.320 140.833 C 33.148 138.122,33.432 137.184,33.831 135.833 C 34.332 134.142,34.790 132.618,35.160 131.417 C 35.330 130.867,35.667 129.742,35.911 128.917 C 36.154 128.092,36.584 126.667,36.867 125.750 C 37.150 124.833,37.476 123.746,37.592 123.333 C 37.709 122.921,38.155 121.421,38.583 120.000 C 39.012 118.579,39.458 117.079,39.574 116.667 C 39.691 116.254,40.026 115.129,40.320 114.167 C 41.148 111.455,41.432 110.517,41.831 109.167 C 42.332 107.475,42.790 105.952,43.160 104.750 C 43.330 104.200,43.667 103.075,43.911 102.250 C 44.154 101.425,44.584 100.000,44.867 99.083 C 45.150 98.167,45.476 97.079,45.592 96.667 C 45.709 96.254,46.154 94.754,46.583 93.333 C 47.011 91.912,47.436 90.487,47.527 90.167 C 47.618 89.846,47.882 88.983,48.115 88.250 C 48.348 87.517,48.675 86.429,48.843 85.833 C 49.010 85.237,49.344 84.112,49.583 83.333 C 49.823 82.554,50.081 81.692,50.157 81.417 C 50.233 81.142,50.500 80.242,50.751 79.417 C 51.002 78.592,51.341 77.467,51.504 76.917 C 51.667 76.367,52.175 74.679,52.633 73.167 C 53.091 71.654,53.542 70.154,53.636 69.833 C 53.729 69.512,54.155 68.087,54.583 66.667 C 55.011 65.246,55.436 63.821,55.527 63.500 C 55.618 63.179,55.882 62.317,56.115 61.583 C 56.348 60.850,56.675 59.762,56.843 59.167 C 57.010 58.571,57.344 57.446,57.583 56.667 C 57.823 55.887,58.081 55.025,58.157 54.750 C 58.233 54.475,58.500 53.575,58.751 52.750 C 59.002 51.925,59.341 50.800,59.504 50.250 C 59.921 48.845,61.459 43.734,61.736 42.833 C 61.988 42.013,62.565 40.084,63.256 37.750 C 63.655 36.402,64.297 34.264,65.159 31.417 C 65.325 30.867,65.628 29.854,65.831 29.167 C 67.184 24.597,67.350 24.096,67.558 23.947 C 67.664 23.873,76.450 23.854,87.083 23.905 C 97.717 23.957,123.104 24.040,143.500 24.090 " stroke="none" fill="#048c14" fill-rule="evenodd"></path><path id="path3" d="M118.197 24.125 C 120.002 24.152,123.002 24.152,124.864 24.125 C 126.726 24.098,125.250 24.076,121.583 24.076 C 117.917 24.076,116.393 24.098,118.197 24.125 M185.054 24.292 C 188.338 24.317,193.663 24.317,196.887 24.292 C 200.112 24.266,197.425 24.246,190.917 24.246 C 184.408 24.246,181.770 24.266,185.054 24.292 M236.029 24.458 C 239.758 24.483,245.908 24.483,249.696 24.458 C 253.484 24.433,250.433 24.413,242.917 24.413 C 235.400 24.413,232.301 24.433,236.029 24.458 M310.052 24.625 C 311.593 24.652,314.068 24.652,315.552 24.625 C 317.036 24.597,315.775 24.575,312.750 24.575 C 309.725 24.575,308.511 24.597,310.052 24.625 M75.125 25.458 C 78.815 25.483,84.852 25.483,88.542 25.458 C 92.231 25.433,89.212 25.413,81.833 25.413 C 74.454 25.413,71.435 25.433,75.125 25.458 M121.138 25.625 C 128.410 25.649,140.260 25.649,147.471 25.625 C 154.683 25.601,148.733 25.581,134.250 25.581 C 119.767 25.581,113.866 25.601,121.138 25.625 M191.708 25.792 C 196.269 25.816,203.731 25.816,208.292 25.792 C 212.852 25.767,209.121 25.747,200.000 25.747 C 190.879 25.747,187.148 25.767,191.708 25.792 M268.138 25.958 C 272.109 25.983,278.559 25.983,282.471 25.958 C 286.383 25.933,283.133 25.913,275.250 25.913 C 267.367 25.913,264.166 25.933,268.138 25.958 M343.857 50.333 C 343.857 50.471,343.921 50.733,344.000 50.917 C 344.090 51.127,344.143 51.158,344.143 51.000 C 344.143 50.862,344.079 50.600,344.000 50.417 C 343.910 50.207,343.857 50.176,343.857 50.333 M346.523 60.500 C 346.523 60.637,346.588 60.900,346.667 61.083 C 346.757 61.293,346.810 61.324,346.810 61.167 C 346.810 61.029,346.745 60.767,346.667 60.583 C 346.576 60.373,346.523 60.342,346.523 60.500 M356.523 98.667 C 356.523 98.804,356.588 99.067,356.667 99.250 C 356.757 99.460,356.810 99.491,356.810 99.333 C 356.810 99.196,356.745 98.933,356.667 98.750 C 356.576 98.540,356.523 98.509,356.523 98.667 M358.523 106.333 C 358.523 106.471,358.588 106.733,358.667 106.917 C 358.757 107.127,358.810 107.158,358.810 107.000 C 358.810 106.862,358.745 106.600,358.667 106.417 C 358.576 106.207,358.523 106.176,358.523 106.333 M361.190 116.500 C 361.190 116.638,361.255 116.900,361.333 117.083 C 361.424 117.293,361.477 117.324,361.477 117.167 C 361.477 117.029,361.412 116.767,361.333 116.583 C 361.243 116.373,361.190 116.342,361.190 116.500 M363.857 126.667 C 363.857 126.804,363.921 127.067,364.000 127.250 C 364.090 127.460,364.143 127.491,364.143 127.333 C 364.143 127.196,364.079 126.933,364.000 126.750 C 363.910 126.540,363.857 126.509,363.857 126.667 M388.357 220.167 C 388.357 220.304,388.421 220.567,388.500 220.750 C 388.590 220.960,388.643 220.991,388.643 220.833 C 388.643 220.696,388.579 220.433,388.500 220.250 C 388.410 220.040,388.357 220.009,388.357 220.167 M297.542 223.458 C 302.285 223.483,310.048 223.483,314.792 223.458 C 319.535 223.434,315.654 223.414,306.167 223.414 C 296.679 223.414,292.798 223.434,297.542 223.458 M9.003 223.708 C 9.000 223.985,10.029 223.998,28.625 223.959 L 48.250 223.918 28.759 223.875 C 13.421 223.841,9.241 223.788,9.137 223.624 C 9.043 223.477,9.004 223.501,9.003 223.708 M185.208 223.625 C 192.060 223.649,203.273 223.649,210.125 223.625 C 216.977 223.601,211.371 223.581,197.667 223.581 C 183.963 223.581,178.356 223.601,185.208 223.625 M90.805 223.792 C 101.102 223.815,117.902 223.815,128.138 223.792 C 138.375 223.768,129.950 223.749,109.417 223.749 C 88.883 223.749,80.508 223.768,90.805 223.792 M353.136 224.792 C 355.274 224.818,358.724 224.818,360.803 224.791 C 362.882 224.765,361.133 224.743,356.917 224.743 C 352.700 224.744,350.999 224.765,353.136 224.792 M262.638 224.958 C 267.434 224.983,275.234 224.983,279.971 224.958 C 284.708 224.934,280.783 224.914,271.250 224.914 C 261.717 224.914,257.841 224.934,262.638 224.958 M172.721 225.125 C 177.288 225.150,184.713 225.150,189.221 225.125 C 193.729 225.100,189.992 225.080,180.917 225.080 C 171.842 225.080,168.154 225.100,172.721 225.125 M77.971 225.292 C 82.034 225.316,88.634 225.316,92.638 225.292 C 96.641 225.267,93.317 225.246,85.250 225.246 C 77.183 225.246,73.908 225.267,77.971 225.292 " stroke="none" fill="#5ac782" fill-rule="evenodd"></path><path id="path4" d="M89.888 24.125 C 94.547 24.150,102.122 24.150,106.721 24.125 C 111.320 24.100,107.508 24.080,98.250 24.080 C 88.992 24.080,85.229 24.100,89.888 24.125 M148.875 24.292 C 154.444 24.316,163.556 24.316,169.125 24.292 C 174.694 24.267,170.137 24.247,159.000 24.247 C 147.862 24.247,143.306 24.267,148.875 24.292 M208.292 24.458 C 212.165 24.483,218.502 24.483,222.375 24.458 C 226.248 24.433,223.079 24.413,215.333 24.413 C 207.588 24.413,204.419 24.433,208.292 24.458 M285.292 24.625 C 289.348 24.650,295.985 24.650,300.042 24.625 C 304.098 24.600,300.779 24.580,292.667 24.580 C 284.554 24.580,281.235 24.600,285.292 24.625 M103.042 25.458 C 107.419 25.483,114.581 25.483,118.958 25.458 C 123.335 25.434,119.754 25.413,111.000 25.413 C 102.246 25.413,98.665 25.434,103.042 25.458 M171.042 25.625 C 176.885 25.649,186.448 25.649,192.292 25.625 C 198.135 25.601,193.354 25.581,181.667 25.581 C 169.979 25.581,165.198 25.601,171.042 25.625 M228.138 25.792 C 234.585 25.816,245.085 25.816,251.471 25.792 C 257.858 25.767,252.583 25.748,239.750 25.748 C 226.917 25.748,221.691 25.767,228.138 25.792 M297.792 25.958 C 302.398 25.983,309.935 25.983,314.542 25.958 C 319.148 25.934,315.379 25.914,306.167 25.914 C 296.954 25.914,293.185 25.934,297.792 25.958 M62.262 45.762 C 62.201 46.006,62.183 46.238,62.222 46.277 C 62.261 46.317,62.343 46.149,62.405 45.905 C 62.466 45.661,62.484 45.429,62.445 45.389 C 62.406 45.350,62.323 45.518,62.262 45.762 M60.262 52.429 C 60.201 52.673,60.183 52.905,60.222 52.944 C 60.261 52.983,60.343 52.816,60.405 52.571 C 60.466 52.327,60.484 52.095,60.445 52.056 C 60.406 52.017,60.323 52.184,60.262 52.429 M346.357 59.500 C 346.357 59.637,346.421 59.900,346.500 60.083 C 346.590 60.293,346.643 60.324,346.643 60.167 C 346.643 60.029,346.579 59.767,346.500 59.583 C 346.410 59.373,346.357 59.342,346.357 59.500 M349.023 69.667 C 349.023 69.804,349.088 70.067,349.167 70.250 C 349.257 70.460,349.310 70.491,349.310 70.333 C 349.310 70.196,349.245 69.933,349.167 69.750 C 349.076 69.540,349.023 69.509,349.023 69.667 M353.690 87.500 C 353.690 87.638,353.755 87.900,353.833 88.083 C 353.924 88.293,353.977 88.324,353.977 88.167 C 353.977 88.029,353.912 87.767,353.833 87.583 C 353.743 87.373,353.690 87.342,353.690 87.500 M356.357 97.667 C 356.357 97.804,356.421 98.067,356.500 98.250 C 356.590 98.460,356.643 98.491,356.643 98.333 C 356.643 98.196,356.579 97.933,356.500 97.750 C 356.410 97.540,356.357 97.509,356.357 97.667 M359.023 107.833 C 359.023 107.971,359.088 108.233,359.167 108.417 C 359.257 108.627,359.310 108.658,359.310 108.500 C 359.310 108.362,359.245 108.100,359.167 107.917 C 359.076 107.707,359.023 107.676,359.023 107.833 M363.690 125.667 C 363.690 125.804,363.755 126.067,363.833 126.250 C 363.924 126.460,363.977 126.491,363.977 126.333 C 363.977 126.196,363.912 125.933,363.833 125.750 C 363.743 125.540,363.690 125.509,363.690 125.667 M366.357 135.833 C 366.357 135.971,366.421 136.233,366.500 136.417 C 366.590 136.627,366.643 136.658,366.643 136.500 C 366.643 136.362,366.579 136.100,366.500 135.917 C 366.410 135.707,366.357 135.676,366.357 135.833 M369.023 146.000 C 369.023 146.137,369.088 146.400,369.167 146.583 C 369.257 146.793,369.310 146.824,369.310 146.667 C 369.310 146.529,369.245 146.267,369.167 146.083 C 369.076 145.873,369.023 145.842,369.023 146.000 M376.357 174.000 C 376.357 174.137,376.421 174.400,376.500 174.583 C 376.590 174.793,376.643 174.824,376.643 174.667 C 376.643 174.529,376.579 174.267,376.500 174.083 C 376.410 173.873,376.357 173.842,376.357 174.000 M333.708 223.458 C 339.460 223.483,348.873 223.483,354.625 223.458 C 360.377 223.434,355.671 223.414,344.167 223.414 C 332.662 223.414,327.956 223.434,333.708 223.458 M239.555 223.625 C 248.981 223.649,264.356 223.649,273.722 223.625 C 283.087 223.601,275.375 223.582,256.583 223.582 C 237.792 223.582,230.129 223.601,239.555 223.625 M160.292 223.792 C 167.831 223.816,180.169 223.816,187.708 223.792 C 195.248 223.768,189.079 223.748,174.000 223.748 C 158.921 223.748,152.752 223.768,160.292 223.792 M59.958 223.958 C 66.490 223.982,77.177 223.982,83.708 223.958 C 90.240 223.934,84.896 223.914,71.833 223.914 C 58.771 223.914,53.427 223.934,59.958 223.958 M316.542 224.792 C 322.569 224.816,332.431 224.816,338.458 224.792 C 344.485 224.767,339.554 224.748,327.500 224.748 C 315.446 224.748,310.515 224.767,316.542 224.792 M213.458 224.958 C 220.906 224.982,233.094 224.982,240.542 224.958 C 247.990 224.934,241.896 224.915,227.000 224.915 C 212.104 224.915,206.010 224.934,213.458 224.958 M125.388 225.125 C 132.614 225.149,144.389 225.149,151.555 225.125 C 158.720 225.101,152.808 225.081,138.417 225.081 C 124.025 225.081,118.162 225.101,125.388 225.125 M40.805 225.292 C 46.335 225.316,55.335 225.316,60.805 225.292 C 66.275 225.267,61.750 225.247,50.750 225.247 C 39.750 225.247,35.275 225.267,40.805 225.292 " stroke="none" fill="#7cd49c" fill-rule="evenodd"></path></g></svg>