<?xml version="1.0" encoding="UTF-8" ?>
<!DOCTYPE svg PUBLIC "-//W3C//DTD SVG 1.1//EN" "http://www.w3.org/Graphics/SVG/1.1/DTD/svg11.dtd">
<svg width="1000pt" height="1000pt" viewBox="0 0 1000 1000" version="1.1" xmlns="http://www.w3.org/2000/svg">
<g id="#020202ff">
<path fill="#020202" opacity="1.00" d=" M 359.11 16.62 C 364.45 16.19 369.59 14.55 374.91 13.99 C 385.29 13.38 394.84 18.23 404.90 19.89 C 409.98 20.84 415.03 22.71 418.94 26.18 C 422.77 29.32 423.92 34.39 426.68 38.33 C 429.94 43.22 433.39 48.90 431.86 55.04 C 431.26 59.31 428.05 62.49 424.51 64.60 C 424.94 70.38 424.76 76.17 424.70 81.95 C 428.89 84.83 429.18 90.44 428.95 95.05 C 428.47 101.09 425.53 107.85 419.18 109.60 C 417.62 112.65 416.08 115.73 415.03 119.00 C 413.39 123.86 413.09 129.16 410.62 133.72 C 409.15 136.63 406.76 138.90 404.50 141.19 C 423.03 144.27 439.50 153.82 456.28 161.68 C 466.20 165.79 476.28 170.01 487.01 171.38 C 492.63 172.34 498.24 173.42 503.94 173.79 C 516.88 174.58 529.77 176.09 542.72 176.74 C 551.78 177.39 560.90 178.39 569.98 177.38 C 575.13 176.74 579.79 174.12 584.96 173.57 C 600.96 171.79 616.80 177.99 632.79 175.43 C 640.49 174.37 647.42 170.25 655.23 169.68 C 665.47 168.80 675.85 167.97 685.67 164.71 C 694.36 161.76 703.06 158.62 710.98 153.93 C 715.63 151.13 720.45 148.61 725.48 146.58 C 727.00 145.81 727.99 147.70 729.14 148.37 C 732.71 144.32 735.91 139.79 737.48 134.55 C 738.68 130.47 740.10 126.28 743.20 123.21 C 749.14 117.04 756.07 111.39 764.19 108.42 C 767.78 107.21 769.39 111.16 769.11 114.07 C 776.31 108.19 784.61 103.59 793.48 100.76 C 795.95 100.04 800.61 99.36 800.87 103.05 C 800.96 107.63 796.32 110.10 793.23 112.65 C 797.48 110.48 801.97 107.26 806.98 108.12 C 810.27 109.01 810.60 113.43 808.72 115.80 C 803.91 122.49 796.55 126.60 789.83 131.09 C 796.04 128.23 802.00 123.58 809.11 123.57 C 811.17 123.40 812.44 125.77 811.47 127.48 C 810.38 129.40 808.70 130.87 807.20 132.45 C 807.88 133.81 809.39 135.17 808.83 136.85 C 808.04 139.42 805.93 141.23 804.02 142.98 C 799.34 146.99 794.74 151.10 790.11 155.17 C 784.21 160.22 779.47 166.79 772.30 170.20 C 763.91 174.75 754.11 174.30 745.03 176.34 C 743.31 180.21 738.82 181.21 735.84 183.83 C 722.53 194.42 709.17 205.16 694.06 213.13 C 677.08 223.10 657.80 229.52 638.02 230.07 C 634.37 230.17 630.68 229.60 627.06 230.24 C 623.71 231.26 620.82 233.45 617.38 234.24 C 610.30 235.82 603.32 237.94 596.09 238.74 C 585.46 240.14 574.74 240.53 564.03 240.83 C 551.43 241.43 538.38 241.45 526.59 246.50 C 520.61 249.24 514.22 250.90 508.15 253.41 C 501.51 256.07 494.33 256.99 487.71 259.68 C 480.26 262.63 472.97 266.08 466.13 270.25 C 460.00 275.94 460.54 284.88 459.32 292.50 C 458.38 303.08 456.52 313.53 454.89 324.02 C 453.91 329.70 451.71 335.17 451.53 340.98 C 451.05 349.08 453.80 356.89 453.87 364.96 C 454.07 374.11 454.05 383.49 451.26 392.31 C 450.43 395.17 449.42 398.06 449.46 401.08 C 450.12 405.99 453.70 409.99 454.24 414.94 C 454.67 421.17 452.30 427.28 448.41 432.07 C 451.05 438.26 454.64 444.20 455.71 450.94 C 457.51 463.43 462.65 475.10 467.36 486.72 C 471.84 498.11 473.79 510.28 475.72 522.31 C 478.35 536.73 479.43 551.37 480.78 565.96 C 481.47 573.94 482.74 581.92 482.29 589.96 C 481.72 600.30 481.02 610.63 480.26 620.96 C 479.28 634.30 479.97 647.70 478.77 661.02 C 476.72 685.98 477.82 711.06 479.23 736.02 C 479.98 751.55 484.64 766.54 486.01 782.00 C 487.08 790.60 485.98 799.80 490.19 807.70 C 496.71 821.15 495.39 836.52 495.30 851.02 C 495.40 864.49 492.94 877.77 491.62 891.14 C 490.96 897.06 489.73 902.94 489.70 908.93 C 489.78 912.72 488.85 916.78 490.66 920.33 C 497.12 934.68 506.66 948.54 520.79 956.21 C 527.79 960.14 535.94 964.28 538.59 972.48 C 540.03 976.71 535.70 979.87 532.39 981.46 C 522.41 985.84 511.15 986.44 500.44 985.19 C 493.22 984.33 486.60 981.18 479.70 979.12 C 470.08 975.86 459.38 978.27 450.00 974.00 C 446.01 971.96 444.79 967.21 444.34 963.12 C 442.97 950.92 447.16 939.14 448.82 927.21 C 445.92 924.76 443.13 921.79 442.46 917.91 C 439.85 904.96 438.29 891.82 435.24 878.97 C 432.26 866.05 429.46 853.09 425.83 840.35 C 423.40 830.56 419.93 821.07 417.93 811.18 C 415.68 800.50 412.38 790.04 410.82 779.23 C 409.36 770.25 409.43 761.13 408.28 752.12 C 406.57 737.79 404.86 723.44 401.91 709.30 C 397.99 690.67 395.96 671.72 392.54 652.99 C 387.92 626.13 383.81 599.19 379.73 572.25 C 377.09 573.44 374.25 574.33 371.93 576.12 C 370.25 578.82 370.09 582.16 369.71 585.25 C 368.89 596.85 368.89 608.51 367.48 620.07 C 365.34 638.98 363.89 657.96 363.19 676.97 C 362.42 689.36 361.08 701.70 359.89 714.05 C 359.13 723.42 356.60 732.60 356.65 742.05 C 356.19 757.06 358.07 772.02 357.70 787.03 C 358.05 803.25 353.89 819.07 351.54 835.01 C 350.51 843.48 346.36 851.09 344.61 859.38 C 341.22 871.05 341.99 883.33 341.18 895.32 C 340.20 902.89 335.18 908.99 331.30 915.26 C 329.81 921.03 327.41 927.36 329.86 933.21 C 332.58 938.89 336.71 943.76 339.72 949.28 C 343.59 956.98 339.71 967.52 331.65 970.72 C 319.96 976.42 305.89 969.77 294.58 976.58 C 287.74 980.55 279.55 980.13 271.95 979.63 C 263.50 978.75 254.91 978.06 246.80 975.37 C 244.13 974.38 240.81 972.98 240.27 969.83 C 239.80 965.78 241.84 961.46 245.43 959.45 C 247.63 958.18 250.07 957.41 252.38 956.40 C 259.00 953.50 264.98 949.10 269.53 943.48 C 276.80 934.74 284.69 925.85 287.85 914.68 C 288.81 911.44 286.46 908.59 285.75 905.57 C 283.45 896.19 284.35 886.45 284.89 876.92 C 284.84 867.84 285.93 858.71 284.31 849.70 C 282.70 840.52 280.85 831.36 280.16 822.05 C 279.76 815.57 281.94 809.34 282.33 802.92 C 284.12 782.57 285.60 762.18 288.39 741.94 C 289.50 735.66 290.26 729.33 290.36 722.95 C 289.99 705.15 286.63 687.59 282.94 670.22 C 279.69 657.35 278.65 644.07 277.55 630.89 C 276.88 622.62 275.53 614.44 274.83 606.19 C 273.97 596.49 271.88 586.92 271.53 577.17 C 265.33 576.85 259.15 577.19 253.01 577.99 C 248.38 578.57 244.94 574.93 242.24 571.72 C 236.08 564.47 227.91 557.87 226.24 547.94 C 224.32 536.37 223.69 524.48 225.37 512.84 C 226.15 506.97 226.82 500.85 224.92 495.11 C 223.50 490.26 220.56 486.09 218.47 481.54 C 216.00 475.93 210.67 472.11 208.78 466.20 C 204.65 454.28 204.51 441.52 203.59 429.07 C 202.79 410.25 201.90 391.38 198.61 372.79 C 196.84 363.29 196.04 353.63 195.58 343.98 C 195.36 336.50 195.02 328.95 196.40 321.55 C 198.38 310.52 202.97 300.22 206.72 289.72 C 212.53 273.46 218.82 257.36 223.65 240.77 C 228.22 224.55 236.89 209.84 241.47 193.62 C 243.01 188.47 242.34 182.39 246.14 178.15 C 252.11 170.90 260.97 166.91 269.65 163.89 C 284.28 159.58 299.53 157.43 313.80 151.87 C 322.45 148.99 330.76 143.87 340.22 144.57 C 343.33 132.99 343.73 120.47 339.91 109.01 C 338.80 104.89 334.20 103.31 332.37 99.60 C 329.11 94.63 329.13 88.56 329.34 82.86 C 326.63 69.42 325.43 55.45 328.02 41.89 C 329.48 35.44 332.14 28.79 337.46 24.55 C 343.65 19.75 351.38 17.33 359.11 16.62 M 365.63 46.81 C 359.45 48.73 355.42 54.80 354.34 60.95 C 352.73 69.82 352.83 78.94 350.62 87.72 C 350.12 89.47 348.06 90.50 346.36 89.78 C 343.46 87.54 342.15 83.71 338.92 81.83 C 336.22 80.83 333.42 83.23 333.31 85.94 C 332.61 92.05 335.05 99.17 340.69 102.23 C 344.05 104.10 346.94 100.73 349.94 99.67 C 349.47 103.51 346.36 106.22 342.75 107.11 C 346.39 114.87 347.48 123.57 346.75 132.06 C 345.97 141.15 344.17 150.74 338.06 157.88 C 344.83 166.10 356.17 166.51 365.83 168.28 C 368.24 170.03 368.94 173.28 370.19 175.86 C 371.58 176.04 372.98 176.22 374.39 176.41 C 375.42 172.78 376.32 169.04 378.12 165.69 C 383.10 165.24 388.12 166.77 393.12 165.92 C 398.90 165.52 403.92 162.23 408.01 158.34 C 403.34 155.05 398.99 150.00 400.01 143.86 C 398.46 143.68 396.52 144.36 395.36 143.00 C 396.05 140.74 398.53 140.24 400.34 139.17 C 405.63 136.45 408.99 130.89 409.81 125.09 C 410.57 119.00 412.89 113.27 415.85 107.94 C 420.95 98.47 420.83 87.43 421.33 76.98 C 421.28 69.80 422.38 61.94 418.61 55.43 C 414.98 48.52 406.42 45.33 398.95 46.40 C 394.44 46.87 390.00 45.79 385.55 45.24 C 378.91 44.25 372.05 44.88 365.63 46.81 M 420.59 107.22 C 425.86 101.60 426.58 93.44 424.58 86.28 C 423.71 93.34 422.90 100.45 420.59 107.22 M 764.67 120.69 C 761.72 123.19 758.06 125.78 757.51 129.91 C 756.57 135.25 755.45 140.77 752.30 145.31 C 751.70 146.60 750.26 146.83 749.07 147.23 C 750.74 140.89 752.84 134.66 753.72 128.13 C 754.72 120.89 763.14 118.48 765.56 111.99 C 757.91 115.27 751.15 120.45 745.64 126.66 C 741.95 130.68 741.62 136.44 738.98 141.05 C 736.68 145.67 732.87 149.26 728.88 152.44 C 731.82 160.13 737.08 166.58 741.44 173.48 C 750.48 170.70 760.39 172.01 769.12 168.07 C 773.35 166.29 777.05 163.47 780.26 160.22 C 785.72 154.67 791.60 149.55 797.49 144.44 C 800.78 141.55 804.65 139.15 806.93 135.26 C 805.47 134.71 804.02 134.78 802.88 135.90 C 796.28 140.20 789.94 145.67 782.17 147.56 C 784.16 144.09 787.81 142.23 790.94 139.96 C 797.02 135.69 803.63 131.98 808.66 126.41 C 799.43 128.78 791.73 134.78 782.85 138.02 C 781.11 138.73 778.22 138.74 778.91 136.08 C 785.51 128.38 795.56 124.83 802.85 117.87 C 804.66 116.04 807.01 114.10 806.90 111.27 C 805.78 111.09 804.68 111.11 803.60 111.34 C 791.50 114.93 783.01 124.72 772.81 131.50 C 769.52 132.43 770.47 128.28 771.75 126.74 C 775.32 121.67 780.59 118.20 785.36 114.37 C 789.73 110.82 794.97 108.04 797.96 103.08 C 785.34 105.25 774.54 112.94 764.67 120.69 M 402.62 143.64 C 402.97 148.57 406.24 152.29 410.02 155.12 C 411.03 152.28 412.01 149.43 412.95 146.57 C 409.52 145.53 406.08 144.52 402.62 143.64 M 333.38 148.68 C 334.29 150.59 335.19 152.52 336.10 154.44 C 337.21 152.33 338.31 150.22 339.39 148.09 C 337.38 148.28 335.38 148.47 333.38 148.68 M 415.48 147.54 C 414.26 153.41 412.75 159.82 407.69 163.64 C 399.98 170.79 388.68 170.63 378.93 169.15 C 378.35 171.42 377.78 173.69 377.20 175.97 C 388.76 178.07 401.91 177.11 411.13 169.09 C 416.99 164.31 419.77 156.92 420.70 149.61 C 418.95 148.93 417.21 148.24 415.48 147.54 M 322.89 152.98 C 324.19 157.25 325.42 161.97 329.14 164.83 C 339.65 173.33 353.61 175.68 366.76 176.02 C 366.01 174.21 365.28 172.40 364.54 170.58 C 355.82 170.68 346.57 169.82 339.15 164.82 C 334.02 161.43 331.24 155.71 328.99 150.20 C 326.95 151.13 324.92 152.06 322.89 152.98 M 424.46 151.13 C 423.44 162.04 416.49 172.07 406.41 176.46 C 395.96 181.68 383.96 180.34 372.80 178.88 C 374.28 181.00 375.77 183.24 376.13 185.87 C 377.56 194.74 376.38 204.01 379.41 212.62 C 383.04 222.60 384.69 233.14 386.60 243.55 C 388.50 260.30 389.89 277.14 390.12 294.00 C 390.43 306.32 387.05 318.53 388.52 330.85 C 389.37 338.15 395.50 342.98 399.07 348.96 C 402.57 354.26 402.29 360.93 401.91 367.00 C 401.27 376.31 397.21 384.91 395.67 394.05 C 394.41 400.24 398.58 405.88 398.05 412.05 C 397.52 418.14 394.29 423.48 392.00 429.02 C 390.05 433.73 390.16 438.93 388.86 443.81 C 388.01 447.11 386.46 450.17 384.98 453.22 C 396.83 451.88 408.88 449.96 419.75 444.81 C 423.96 442.88 427.20 439.25 431.67 437.80 C 435.68 436.41 439.72 434.81 442.93 431.93 C 447.98 427.98 451.04 421.44 450.25 415.02 C 449.26 410.15 445.76 406.07 445.43 401.02 C 445.42 395.46 448.03 390.37 448.86 384.94 C 449.90 378.33 449.97 371.60 449.67 364.93 C 449.40 357.53 447.00 350.37 447.19 342.93 C 447.11 337.01 448.85 331.31 450.22 325.62 C 452.95 312.11 454.91 298.47 456.93 284.85 C 450.86 292.93 444.48 300.84 437.48 308.13 C 437.74 306.28 437.64 304.27 438.69 302.63 C 441.48 297.90 445.07 293.71 448.35 289.32 C 455.49 279.97 461.64 269.74 465.58 258.61 C 467.71 252.76 467.21 246.38 468.98 240.45 C 469.68 241.89 470.78 243.25 470.97 244.91 C 471.77 252.15 469.95 259.37 467.22 266.03 C 477.39 260.10 488.31 255.38 499.81 252.74 C 509.40 249.67 518.86 246.13 528.18 242.30 C 532.92 240.53 537.91 239.62 542.87 238.66 C 544.77 230.60 543.67 222.27 544.96 214.15 C 547.37 222.02 546.95 230.38 546.10 238.46 C 547.67 238.30 549.25 238.13 550.83 237.96 C 553.47 234.14 556.28 230.35 557.86 225.95 C 560.99 216.82 558.46 207.23 557.41 197.98 C 558.98 200.14 560.32 202.52 560.87 205.17 C 562.50 212.34 563.19 219.99 561.09 227.15 C 559.91 231.23 557.18 234.57 554.53 237.80 C 570.68 236.73 587.03 237.12 602.97 233.93 C 609.73 232.24 616.80 231.32 623.01 227.96 C 626.05 226.29 629.58 226.15 632.98 226.28 C 644.35 226.77 655.76 225.04 666.62 221.70 C 680.32 217.56 692.72 210.21 704.92 202.89 C 714.33 197.13 722.62 189.81 731.37 183.14 C 724.70 174.76 719.07 165.19 717.34 154.47 C 706.45 161.52 694.20 166.13 681.78 169.65 C 672.38 172.25 662.59 172.38 653.02 173.78 C 647.98 174.20 645.44 179.03 642.11 182.13 C 636.22 188.09 627.64 189.77 619.85 191.82 C 614.12 192.98 608.76 195.36 603.25 197.24 C 604.29 192.38 609.43 190.99 613.44 189.43 C 623.24 185.81 635.11 185.81 642.39 177.27 C 638.30 178.09 634.25 179.15 630.09 179.57 C 615.95 180.92 602.05 176.54 587.94 177.12 C 581.71 177.21 576.15 180.49 570.01 181.14 C 559.68 182.39 549.33 180.72 538.99 180.38 C 527.34 179.85 515.74 178.60 504.12 177.74 C 494.28 176.95 484.71 174.44 475.02 172.68 C 482.59 183.67 483.39 197.78 481.54 210.61 C 480.24 217.95 479.52 225.57 476.10 232.32 C 475.71 231.82 474.92 230.81 474.52 230.31 C 476.67 218.66 478.96 206.89 478.42 194.99 C 478.02 187.44 476.34 179.57 471.57 173.51 C 468.67 169.80 463.64 169.32 459.60 167.48 C 447.64 162.56 436.45 155.99 424.46 151.13 M 721.09 152.75 C 722.14 163.22 727.62 172.46 733.67 180.80 C 735.76 179.31 737.87 177.84 739.99 176.38 C 734.02 168.41 727.71 160.24 725.18 150.43 C 723.81 151.20 722.45 151.98 721.09 152.75 M 264.08 170.32 C 266.68 175.08 268.92 180.12 269.65 185.54 C 270.48 191.86 271.56 198.59 268.87 204.63 C 266.98 198.26 267.64 191.49 266.00 185.07 C 265.00 180.53 262.95 176.33 260.80 172.24 C 256.26 175.07 251.34 177.92 248.51 182.63 C 246.76 186.79 247.01 191.47 245.70 195.76 C 241.35 211.22 233.37 225.34 228.62 240.64 C 221.80 263.25 213.78 285.47 205.64 307.62 C 202.73 315.45 200.54 323.62 200.12 332.00 C 199.68 340.94 199.35 349.95 200.51 358.86 C 201.30 367.21 203.40 375.37 204.24 383.71 C 207.49 406.02 206.83 428.68 209.77 451.02 C 210.93 458.57 212.31 466.52 217.39 472.56 C 221.25 478.83 228.43 481.92 235.29 483.64 C 245.21 485.67 255.00 481.12 262.12 474.44 C 260.80 466.90 258.57 459.56 257.17 452.03 C 254.17 437.22 253.70 422.02 254.16 406.96 C 254.60 396.98 254.71 386.98 254.13 377.00 C 253.74 372.25 254.61 366.78 251.26 362.87 C 247.54 358.23 242.87 354.32 239.94 349.08 C 237.32 344.37 235.80 339.17 233.98 334.12 C 232.09 328.36 229.56 322.50 230.36 316.30 C 234.71 324.78 236.75 334.24 241.13 342.74 C 244.07 349.55 249.99 354.25 254.88 359.59 C 254.91 353.74 255.09 347.87 256.07 342.09 C 259.68 320.08 267.34 299.03 272.36 277.34 C 274.60 270.24 276.02 262.77 279.55 256.14 C 279.82 259.09 279.80 262.10 279.09 265.01 C 277.52 271.90 276.09 278.82 274.77 285.77 C 283.69 288.80 289.94 296.10 297.12 301.79 C 301.39 305.36 306.38 308.11 309.95 312.47 C 304.46 311.82 300.06 308.30 295.57 305.40 C 287.94 300.38 282.30 292.84 274.17 288.52 C 273.14 292.51 270.87 296.92 273.02 300.95 C 275.86 307.11 279.98 312.58 284.03 317.98 C 292.84 328.94 300.84 340.49 309.08 351.86 C 311.51 355.80 314.61 359.89 314.77 364.68 C 314.54 367.06 311.77 366.67 310.13 366.15 C 303.79 364.05 298.22 360.12 293.16 355.85 C 291.39 354.47 290.39 352.42 289.54 350.41 C 296.84 353.86 302.82 359.66 310.55 362.32 C 308.83 358.57 306.88 354.91 304.44 351.57 C 298.53 343.49 292.90 335.20 286.67 327.35 C 280.59 319.88 274.72 312.20 270.05 303.75 C 268.09 311.80 263.72 319.83 265.70 328.31 C 267.73 339.29 271.85 349.73 274.50 360.56 C 280.02 377.20 283.15 395.05 280.24 412.52 C 279.11 418.35 277.04 423.94 275.06 429.52 C 284.73 434.06 294.71 438.00 304.98 440.92 C 313.99 443.54 323.46 443.32 332.62 445.15 C 346.42 447.49 359.83 451.94 373.87 452.88 C 377.32 445.02 378.39 436.45 379.00 427.97 C 379.39 419.94 384.50 413.08 384.85 405.05 C 385.53 399.55 381.62 394.56 382.77 389.06 C 384.11 381.82 388.44 375.63 390.48 368.62 C 391.62 365.13 390.68 361.35 388.62 358.40 C 385.38 352.75 378.28 349.80 377.00 342.98 C 374.52 331.15 375.87 318.97 375.90 306.99 C 375.85 285.73 376.80 264.39 374.49 243.21 C 373.75 235.28 368.51 228.82 366.77 221.17 C 363.60 207.34 364.91 193.04 366.44 179.09 C 352.08 179.72 336.60 177.26 325.29 167.75 C 321.27 164.56 319.65 159.53 318.20 154.82 C 300.83 162.20 281.87 164.28 264.08 170.32 M 370.23 180.59 C 368.39 193.00 367.98 205.71 369.96 218.12 C 371.36 226.82 377.34 234.05 378.13 242.91 C 380.68 265.86 379.47 288.99 379.30 312.03 C 379.24 322.88 377.53 334.31 381.34 344.72 C 385.89 350.91 393.42 355.69 394.32 364.02 C 394.59 373.71 387.35 381.57 386.18 391.00 C 386.00 395.14 388.42 398.84 388.68 402.94 C 389.34 408.83 386.76 414.32 384.73 419.68 C 381.89 426.95 382.56 434.95 380.51 442.40 C 379.53 446.20 377.99 449.82 376.52 453.46 C 378.16 452.86 380.49 453.31 381.53 451.61 C 385.43 446.24 386.05 439.44 386.95 433.07 C 387.97 424.87 394.38 418.31 394.69 409.94 C 394.02 404.56 390.60 399.55 391.92 393.95 C 394.06 381.02 401.05 368.41 397.78 355.00 C 395.24 347.33 387.53 342.53 385.43 334.61 C 383.44 326.92 384.28 318.86 385.02 311.05 C 387.73 291.86 385.29 272.48 383.76 253.29 C 383.14 243.14 380.75 233.23 378.51 223.35 C 377.20 217.86 374.60 212.71 373.90 207.08 C 373.00 200.41 373.18 193.67 372.50 186.99 C 372.30 184.70 371.24 182.61 370.23 180.59 M 262.59 331.26 C 259.89 342.61 258.20 354.22 258.28 365.91 C 258.74 371.60 258.92 377.31 259.18 383.02 C 259.69 397.67 257.85 412.31 258.89 426.96 C 259.23 441.07 262.18 454.93 265.17 468.67 C 265.99 475.42 267.37 482.21 267.13 489.04 C 265.75 490.78 263.51 491.44 261.65 492.51 C 264.46 497.62 267.02 503.03 267.69 508.91 C 268.38 514.61 268.71 520.36 268.80 526.10 C 268.92 531.66 264.84 536.36 265.36 541.97 C 265.68 548.65 266.13 555.68 263.00 561.84 C 264.74 562.07 266.58 562.06 268.24 562.74 C 270.03 564.03 270.63 566.31 271.50 568.24 C 271.35 551.46 273.23 534.73 273.30 517.96 C 273.95 501.99 273.87 485.98 272.55 470.05 C 271.62 458.04 271.88 445.99 271.55 433.96 C 271.08 427.00 274.52 420.66 275.83 413.97 C 279.43 396.03 275.75 377.62 270.37 360.43 C 268.16 350.60 264.61 341.13 262.59 331.26 M 275.26 433.67 C 275.39 439.12 275.38 444.58 275.37 450.04 C 275.29 465.73 277.38 481.33 277.35 497.02 C 277.47 506.36 276.92 515.69 276.84 525.04 C 276.49 546.00 273.70 567.08 276.42 588.00 C 278.28 599.60 279.31 611.31 280.86 622.95 C 282.36 636.28 282.73 649.75 285.36 662.93 C 289.12 680.38 292.69 697.97 293.43 715.86 C 295.83 705.33 298.34 694.76 299.20 683.97 C 299.79 677.66 298.38 671.45 297.50 665.25 C 299.61 667.79 301.48 670.68 301.91 674.04 C 304.67 689.52 300.45 704.99 296.98 719.99 C 292.33 738.67 290.92 757.91 289.03 777.01 C 287.90 790.35 287.36 803.78 285.01 817.00 C 283.86 833.17 290.83 848.75 289.57 864.96 C 289.61 877.15 287.42 889.26 288.38 901.46 C 294.14 901.03 299.92 901.79 305.38 903.68 C 314.08 906.57 323.20 908.73 332.43 907.82 C 334.49 903.39 337.16 899.01 337.46 894.01 C 337.76 887.98 337.77 881.94 338.13 875.92 C 338.42 864.73 341.60 853.87 345.28 843.38 C 347.19 837.73 347.80 831.78 348.87 825.94 C 350.38 817.67 351.86 809.38 352.93 801.04 C 355.62 777.56 350.91 753.92 353.67 730.44 C 356.27 713.70 357.48 696.79 359.07 679.94 C 359.75 666.31 360.60 652.70 361.68 639.10 C 362.90 625.74 364.89 612.44 365.32 599.02 C 365.69 592.81 365.72 586.55 366.68 580.39 C 368.18 572.82 371.59 565.56 376.85 559.87 C 380.80 555.64 384.97 551.29 390.52 549.21 C 384.12 555.87 378.48 563.16 373.68 571.06 C 384.34 566.42 395.96 565.10 407.32 563.21 C 413.45 562.30 419.46 559.87 425.76 560.52 C 420.53 563.42 414.59 564.45 408.85 565.80 C 399.90 567.90 390.79 569.23 381.91 571.64 C 385.46 583.50 386.62 595.87 389.14 607.95 C 394.08 637.21 399.18 666.44 403.50 695.79 C 408.01 718.65 411.72 741.70 413.46 764.95 C 413.85 774.48 415.26 783.96 417.67 793.19 C 420.48 803.89 422.31 814.82 425.54 825.41 C 431.40 845.23 436.06 865.38 440.45 885.58 C 442.54 896.06 444.04 906.66 446.05 917.16 C 459.99 918.18 473.48 913.03 485.57 906.58 C 487.53 886.73 491.28 867.01 491.17 847.00 C 491.20 838.23 491.59 829.39 490.18 820.70 C 489.16 814.22 486.37 808.23 483.72 802.29 C 478.86 791.84 473.39 781.69 468.45 771.30 C 470.68 772.70 472.88 774.35 474.19 776.71 C 477.20 781.76 479.77 787.05 482.75 792.12 C 482.44 772.46 475.80 753.61 475.03 734.01 C 473.66 710.00 472.61 685.90 474.54 661.89 C 475.78 648.27 475.10 634.57 476.08 620.94 C 476.75 610.98 477.43 601.02 478.00 591.06 C 478.57 581.97 476.90 572.97 476.15 563.95 C 474.99 550.33 473.90 536.67 471.50 523.20 C 469.53 510.97 467.65 498.57 462.99 487.02 C 458.37 475.66 453.52 464.15 452.14 451.86 C 451.40 445.61 448.40 439.99 446.45 434.10 C 442.04 438.68 436.07 440.82 430.50 443.53 C 422.75 449.16 413.50 452.26 404.20 454.19 C 397.21 455.62 390.17 457.08 383.01 457.20 C 371.03 457.41 359.08 455.61 347.53 452.50 C 347.97 460.42 346.85 468.29 345.76 476.11 C 345.39 478.73 344.42 481.20 343.39 483.63 C 341.48 473.02 345.52 462.39 344.25 451.70 C 338.12 450.29 331.95 449.04 325.75 447.94 C 326.27 470.97 322.96 493.85 321.35 516.78 C 320.50 522.87 321.35 529.39 318.56 535.06 C 317.29 528.39 318.10 521.60 318.47 514.89 C 319.41 501.23 320.21 487.56 321.47 473.92 C 322.33 465.21 322.80 456.47 322.95 447.72 C 306.20 446.68 290.28 440.81 275.26 433.67 M 239.92 487.92 C 233.49 488.10 227.81 484.79 222.26 482.02 C 225.01 486.61 229.56 490.26 234.98 490.96 C 244.96 492.38 255.29 490.41 264.50 486.45 C 263.95 484.01 263.42 481.56 262.90 479.12 C 256.65 484.78 248.42 488.25 239.92 487.92 M 226.75 491.97 C 229.30 497.59 229.94 503.87 229.12 509.96 C 228.10 518.10 227.39 526.33 228.23 534.53 C 228.92 541.25 229.07 548.44 232.67 554.39 C 236.21 560.02 241.43 564.29 245.56 569.45 C 247.62 571.98 250.25 575.06 253.94 574.21 C 259.11 573.35 264.35 572.98 269.58 573.61 C 268.54 570.98 267.97 568.09 266.31 565.76 C 262.86 565.38 259.40 566.12 255.96 565.85 C 253.22 565.41 251.69 562.60 251.13 560.13 C 249.34 552.54 248.50 544.76 247.88 537.01 C 247.64 531.26 246.75 525.35 248.39 519.72 C 248.83 519.64 249.71 519.49 250.15 519.42 C 251.29 528.44 250.70 537.69 252.66 546.64 C 254.11 551.64 257.45 555.79 260.91 559.58 C 263.07 553.19 261.85 546.50 261.80 539.94 C 261.68 534.71 265.45 530.29 265.16 525.04 C 264.88 519.65 264.50 514.25 263.71 508.91 C 262.94 503.43 260.48 498.42 258.26 493.42 C 247.94 495.74 236.49 497.01 226.75 491.97 M 253.63 555.34 C 254.26 557.63 254.92 559.93 255.73 562.18 C 256.92 562.25 258.12 562.33 259.33 562.41 C 257.39 560.08 255.52 557.70 253.63 555.34 M 288.83 904.87 C 289.19 906.22 289.57 907.60 289.95 908.97 C 301.64 909.35 312.27 915.56 323.99 915.82 C 327.26 916.18 328.95 912.99 330.77 910.90 C 326.57 911.03 322.35 911.14 318.19 910.51 C 308.28 909.18 299.02 904.28 288.83 904.87 M 446.70 920.83 C 450.01 923.08 453.83 925.20 457.99 924.24 C 467.42 922.57 476.25 918.54 485.64 916.63 C 485.67 914.94 485.69 913.25 485.71 911.58 C 473.53 917.26 460.36 921.94 446.70 920.83 M 290.59 919.80 C 297.30 918.19 304.89 917.60 311.24 920.77 C 316.40 923.71 316.10 930.46 319.07 934.97 C 320.68 937.36 323.88 937.04 326.39 937.23 C 323.92 931.34 323.87 924.72 326.23 918.79 C 314.68 919.94 303.92 914.67 292.79 912.64 C 292.08 915.03 291.37 917.42 290.59 919.80 M 473.04 924.27 C 466.31 926.47 459.40 928.97 452.19 928.35 C 451.95 930.58 451.68 932.82 451.38 935.07 C 452.71 937.05 454.19 938.93 455.87 940.64 C 461.22 936.26 463.37 928.67 469.98 925.75 C 475.86 922.69 482.16 927.14 488.29 925.53 C 487.71 923.65 487.13 921.77 486.58 919.90 C 482.12 921.53 477.53 922.73 473.04 924.27 M 291.36 924.43 C 286.75 925.48 285.47 930.55 282.80 933.82 C 276.18 942.40 269.50 951.48 259.86 956.88 C 256.01 959.31 251.59 960.54 247.61 962.69 C 245.22 963.92 243.88 966.75 244.39 969.39 C 248.79 972.26 254.18 972.86 259.26 973.72 C 267.80 974.73 276.44 976.20 285.05 975.20 C 290.63 974.65 295.01 970.69 300.35 969.38 C 310.22 967.26 320.73 971.07 330.32 967.25 C 336.53 964.94 339.01 956.69 335.85 951.07 C 333.56 947.11 330.74 943.50 328.17 939.73 C 324.78 940.54 320.87 941.38 317.83 939.11 C 312.89 935.72 313.44 928.64 309.44 924.60 C 303.90 921.90 297.10 922.61 291.36 924.43 M 471.01 929.94 C 465.24 932.91 463.55 940.24 457.83 943.24 C 454.54 944.93 452.25 941.19 450.17 939.29 C 449.04 946.83 447.04 954.34 447.48 962.02 C 447.63 965.13 448.94 968.62 451.98 969.96 C 460.89 973.60 470.82 971.31 479.93 974.00 C 487.65 975.97 494.84 979.90 502.87 980.60 C 511.13 981.31 519.65 981.21 527.63 978.70 C 530.74 977.64 534.46 976.36 535.79 973.04 C 533.08 966.32 525.89 963.30 519.94 960.07 C 506.81 953.72 496.96 942.08 490.36 929.29 C 487.66 930.07 484.85 930.99 482.02 930.37 C 478.41 929.96 474.51 928.09 471.01 929.94 Z" />
<path fill="#020202" opacity="1.00" d=" M 355.44 80.52 C 358.80 74.31 366.40 71.95 373.02 71.58 C 379.44 71.68 386.56 74.65 389.86 80.39 C 384.61 79.30 380.38 75.38 374.96 74.85 C 367.93 73.98 361.40 77.22 355.44 80.52 Z" />
<path fill="#020202" opacity="1.00" d=" M 395.95 85.08 C 396.90 79.30 402.09 74.25 408.05 74.21 C 411.68 74.64 416.16 76.15 416.86 80.28 C 413.12 78.67 408.80 75.08 404.72 77.83 C 398.80 81.01 398.66 88.67 399.81 94.45 C 400.13 98.50 401.46 104.73 396.61 106.60 C 391.39 108.27 385.85 108.89 380.39 109.17 C 381.10 108.04 381.62 106.55 383.11 106.27 C 387.29 104.36 392.15 104.44 396.19 102.23 C 397.20 96.51 394.51 90.78 395.95 85.08 Z" />
<path fill="#020202" opacity="1.00" d=" M 355.58 133.18 C 355.26 131.85 354.16 129.89 355.99 129.05 C 359.10 133.41 362.11 138.34 367.28 140.53 C 375.18 142.54 383.89 139.24 391.45 142.96 C 387.54 145.77 382.52 145.07 378.00 145.40 C 373.05 145.36 367.35 146.22 363.20 142.89 C 360.03 140.25 356.99 137.14 355.58 133.18 Z" />
<path fill="#020202" opacity="1.00" d=" M 278.09 353.65 C 280.76 358.57 280.91 364.42 283.76 369.28 C 291.53 383.84 300.57 397.69 309.36 411.65 C 312.97 417.57 317.44 422.99 320.36 429.32 C 315.97 427.74 313.75 423.45 311.05 419.99 C 300.84 406.49 292.08 391.97 283.68 377.30 C 279.83 370.15 275.29 361.99 278.09 353.65 Z" />
</g>
<g id="#f0b58bff">
<path fill="#f0b58b" opacity="1.00" d=" M 365.63 46.81 C 372.05 44.88 378.91 44.25 385.55 45.24 C 390.00 45.79 394.44 46.87 398.95 46.40 C 406.42 45.33 414.98 48.52 418.61 55.43 C 422.38 61.94 421.28 69.80 421.33 76.98 C 420.83 87.43 420.95 98.47 415.85 107.94 C 412.89 113.27 410.57 119.00 409.81 125.09 C 408.99 130.89 405.63 136.45 400.34 139.17 C 398.53 140.24 396.05 140.74 395.36 143.00 C 396.52 144.36 398.46 143.68 400.01 143.86 C 398.99 150.00 403.34 155.05 408.01 158.34 C 403.92 162.23 398.90 165.52 393.12 165.92 C 388.12 166.77 383.10 165.24 378.12 165.69 C 376.32 169.04 375.42 172.78 374.39 176.41 C 372.98 176.22 371.58 176.04 370.19 175.86 C 368.94 173.28 368.24 170.03 365.83 168.28 C 356.17 166.51 344.83 166.10 338.06 157.88 C 344.17 150.74 345.97 141.15 346.75 132.06 C 347.48 123.57 346.39 114.87 342.75 107.11 C 346.36 106.22 349.47 103.51 349.94 99.67 C 346.94 100.73 344.05 104.10 340.69 102.23 C 335.05 99.17 332.61 92.05 333.31 85.94 C 333.42 83.23 336.22 80.83 338.92 81.83 C 342.15 83.71 343.46 87.54 346.36 89.78 C 348.06 90.50 350.12 89.47 350.62 87.72 C 352.83 78.94 352.73 69.82 354.34 60.95 C 355.42 54.80 359.45 48.73 365.63 46.81 M 355.44 80.52 C 361.40 77.22 367.93 73.98 374.96 74.85 C 380.38 75.38 384.61 79.30 389.86 80.39 C 386.56 74.65 379.44 71.68 373.02 71.58 C 366.40 71.95 358.80 74.31 355.44 80.52 M 395.95 85.08 C 394.51 90.78 397.20 96.51 396.19 102.23 C 392.15 104.44 387.29 104.36 383.11 106.27 C 381.62 106.55 381.10 108.04 380.39 109.17 C 385.85 108.89 391.39 108.27 396.61 106.60 C 401.46 104.73 400.13 98.50 399.81 94.45 C 398.66 88.67 398.80 81.01 404.72 77.83 C 408.80 75.08 413.12 78.67 416.86 80.28 C 416.16 76.15 411.68 74.64 408.05 74.21 C 402.09 74.25 396.90 79.30 395.95 85.08 M 355.58 133.18 C 356.99 137.14 360.03 140.25 363.20 142.89 C 367.35 146.22 373.05 145.36 378.00 145.40 C 382.52 145.07 387.54 145.77 391.45 142.96 C 383.89 139.24 375.18 142.54 367.28 140.53 C 362.11 138.34 359.10 133.41 355.99 129.05 C 354.16 129.89 355.26 131.85 355.58 133.18 Z" />
<path fill="#f0b58b" opacity="1.00" d=" M 764.67 120.69 C 774.54 112.94 785.34 105.25 797.96 103.08 C 794.97 108.04 789.73 110.82 785.36 114.37 C 780.59 118.20 775.32 121.67 771.75 126.74 C 770.47 128.28 769.52 132.43 772.81 131.50 C 783.01 124.72 791.50 114.93 803.60 111.34 C 804.68 111.11 805.78 111.09 806.90 111.27 C 807.01 114.10 804.66 116.04 802.85 117.87 C 795.56 124.83 785.51 128.38 778.91 136.08 C 778.22 138.74 781.11 138.73 782.85 138.02 C 791.73 134.78 799.43 128.78 808.66 126.41 C 803.63 131.98 797.02 135.69 790.94 139.96 C 787.81 142.23 784.16 144.09 782.17 147.56 C 789.94 145.67 796.28 140.20 802.88 135.90 C 804.02 134.78 805.47 134.71 806.93 135.26 C 804.65 139.15 800.78 141.55 797.49 144.44 C 791.60 149.55 785.72 154.67 780.26 160.22 C 777.05 163.47 773.35 166.29 769.12 168.07 C 760.39 172.01 750.48 170.70 741.44 173.48 C 737.08 166.58 731.82 160.13 728.88 152.44 C 732.87 149.26 736.68 145.67 738.98 141.05 C 741.62 136.44 741.95 130.68 745.64 126.66 C 751.15 120.45 757.91 115.27 765.56 111.99 C 763.14 118.48 754.72 120.89 753.72 128.13 C 752.84 134.66 750.74 140.89 749.07 147.23 C 750.26 146.83 751.70 146.60 752.30 145.31 C 755.45 140.77 756.57 135.25 757.51 129.91 C 758.06 125.78 761.72 123.19 764.67 120.69 Z" />
<path fill="#f0b58b" opacity="1.00" d=" M 226.75 491.97 C 236.49 497.01 247.94 495.74 258.26 493.42 C 260.48 498.42 262.94 503.43 263.71 508.91 C 264.50 514.25 264.88 519.65 265.16 525.04 C 265.45 530.29 261.68 534.71 261.80 539.94 C 261.85 546.50 263.07 553.19 260.91 559.58 C 257.45 555.79 254.11 551.64 252.66 546.64 C 250.70 537.69 251.29 528.44 250.15 519.42 C 249.71 519.49 248.83 519.64 248.39 519.72 C 246.75 525.35 247.64 531.26 247.88 537.01 C 248.50 544.76 249.34 552.54 251.13 560.13 C 251.69 562.60 253.22 565.41 255.96 565.85 C 259.40 566.12 262.86 565.38 266.31 565.76 C 267.97 568.09 268.54 570.98 269.58 573.61 C 264.35 572.98 259.11 573.35 253.94 574.21 C 250.25 575.06 247.62 571.98 245.56 569.45 C 241.43 564.29 236.21 560.02 232.67 554.39 C 229.07 548.44 228.92 541.25 228.23 534.53 C 227.39 526.33 228.10 518.10 229.12 509.96 C 229.94 503.87 229.30 497.59 226.75 491.97 Z" />
<path fill="#f0b58b" opacity="1.00" d=" M 290.59 919.80 C 291.37 917.42 292.08 915.03 292.79 912.64 C 303.92 914.67 314.68 919.94 326.23 918.79 C 323.87 924.72 323.92 931.34 326.39 937.23 C 323.88 937.04 320.68 937.36 319.07 934.97 C 316.10 930.46 316.40 923.71 311.24 920.77 C 304.89 917.60 297.30 918.19 290.59 919.80 Z" />
<path fill="#f0b58b" opacity="1.00" d=" M 473.04 924.27 C 477.53 922.73 482.12 921.53 486.58 919.90 C 487.13 921.77 487.71 923.65 488.29 925.53 C 482.16 927.14 475.86 922.69 469.98 925.75 C 463.37 928.67 461.22 936.26 455.87 940.64 C 454.19 938.93 452.71 937.05 451.38 935.07 C 451.68 932.82 451.95 930.58 452.19 928.35 C 459.40 928.97 466.31 926.47 473.04 924.27 Z" />
</g>
<g id="#006330ff">
<path fill="var(--shirt-color, grey)" opacity="1.00" d=" M 402.62 143.64 C 406.08 144.52 409.52 145.53 412.95 146.57 C 412.01 149.43 411.03 152.28 410.02 155.12 C 406.24 152.29 402.97 148.57 402.62 143.64 Z" />
<path fill="var(--shirt-color, grey)" opacity="1.00" d=" M 424.46 151.13 C 436.45 155.99 447.64 162.56 459.60 167.48 C 463.64 169.32 468.67 169.80 471.57 173.51 C 476.34 179.57 478.02 187.44 478.42 194.99 C 478.96 206.89 476.67 218.66 474.52 230.31 C 474.92 230.81 475.71 231.82 476.10 232.32 C 479.52 225.57 480.24 217.95 481.54 210.61 C 483.39 197.78 482.59 183.67 475.02 172.68 C 484.71 174.44 494.28 176.95 504.12 177.74 C 515.74 178.60 527.34 179.85 538.99 180.38 C 549.33 180.72 559.68 182.39 570.01 181.14 C 576.15 180.49 581.71 177.21 587.94 177.12 C 602.05 176.54 615.95 180.92 630.09 179.57 C 634.25 179.15 638.30 178.09 642.39 177.27 C 635.11 185.81 623.24 185.81 613.44 189.43 C 609.43 190.99 604.29 192.38 603.25 197.24 C 608.76 195.36 614.12 192.98 619.85 191.82 C 627.64 189.77 636.22 188.09 642.11 182.13 C 645.44 179.03 647.98 174.20 653.02 173.78 C 662.59 172.38 672.38 172.25 681.78 169.65 C 694.20 166.13 706.45 161.52 717.34 154.47 C 719.07 165.19 724.70 174.76 731.37 183.14 C 722.62 189.81 714.33 197.13 704.92 202.89 C 692.72 210.21 680.32 217.56 666.62 221.70 C 655.76 225.04 644.35 226.77 632.98 226.28 C 629.58 226.15 626.05 226.29 623.01 227.96 C 616.80 231.32 609.73 232.24 602.97 233.93 C 587.03 237.12 570.68 236.73 554.53 237.80 C 557.18 234.57 559.91 231.23 561.09 227.15 C 563.19 219.99 562.50 212.34 560.87 205.17 C 560.32 202.52 558.98 200.14 557.41 197.98 C 558.46 207.23 560.99 216.82 557.86 225.95 C 556.28 230.35 553.47 234.14 550.83 237.96 C 549.25 238.13 547.67 238.30 546.10 238.46 C 546.95 230.38 547.37 222.02 544.96 214.15 C 543.67 222.27 544.77 230.60 542.87 238.66 C 537.91 239.62 532.92 240.53 528.18 242.30 C 518.86 246.13 509.40 249.67 499.81 252.74 C 488.31 255.38 477.39 260.10 467.22 266.03 C 469.95 259.37 471.77 252.15 470.97 244.91 C 470.78 243.25 469.68 241.89 468.98 240.45 C 467.21 246.38 467.71 252.76 465.58 258.61 C 461.64 269.74 455.49 279.97 448.35 289.32 C 445.07 293.71 441.48 297.90 438.69 302.63 C 437.64 304.27 437.74 306.28 437.48 308.13 C 444.48 300.84 450.86 292.93 456.93 284.85 C 454.91 298.47 452.95 312.11 450.22 325.62 C 448.85 331.31 447.11 337.01 447.19 342.93 C 447.00 350.37 449.40 357.53 449.67 364.93 C 449.97 371.60 449.90 378.33 448.86 384.94 C 448.03 390.37 445.42 395.46 445.43 401.02 C 445.76 406.07 449.26 410.15 450.25 415.02 C 451.04 421.44 447.98 427.98 442.93 431.93 C 439.72 434.81 435.68 436.41 431.67 437.80 C 427.20 439.25 423.96 442.88 419.75 444.81 C 408.88 449.96 396.83 451.88 384.98 453.22 C 386.46 450.17 388.01 447.11 388.86 443.81 C 390.16 438.93 390.05 433.73 392.00 429.02 C 394.29 423.48 397.52 418.14 398.05 412.05 C 398.58 405.88 394.41 400.24 395.67 394.05 C 397.21 384.91 401.27 376.31 401.91 367.00 C 402.29 360.93 402.57 354.26 399.07 348.96 C 395.50 342.98 389.37 338.15 388.52 330.85 C 387.05 318.53 390.43 306.32 390.12 294.00 C 389.89 277.14 388.50 260.30 386.60 243.55 C 384.69 233.14 383.04 222.60 379.41 212.62 C 376.38 204.01 377.56 194.74 376.13 185.87 C 375.77 183.24 374.28 181.00 372.80 178.88 C 383.96 180.34 395.96 181.68 406.41 176.46 C 416.49 172.07 423.44 162.04 424.46 151.13 Z" />
<path fill="var(--shirt-color)" opacity="1.00" d=" M 264.08 170.32 C 281.87 164.28 300.83 162.20 318.20 154.82 C 319.65 159.53 321.27 164.56 325.29 167.75 C 336.60 177.26 352.08 179.72 366.44 179.09 C 364.91 193.04 363.60 207.34 366.77 221.17 C 368.51 228.82 373.75 235.28 374.49 243.21 C 376.80 264.39 375.85 285.73 375.90 306.99 C 375.87 318.97 374.52 331.15 377.00 342.98 C 378.28 349.80 385.38 352.75 388.62 358.40 C 390.68 361.35 391.62 365.13 390.48 368.62 C 388.44 375.63 384.11 381.82 382.77 389.06 C 381.62 394.56 385.53 399.55 384.85 405.05 C 384.50 413.08 379.39 419.94 379.00 427.97 C 378.39 436.45 377.32 445.02 373.87 452.88 C 359.83 451.94 346.42 447.49 332.62 445.15 C 323.46 443.32 313.99 443.54 304.98 440.92 C 294.71 438.00 284.73 434.06 275.06 429.52 C 277.04 423.94 279.11 418.35 280.24 412.52 C 283.15 395.05 280.02 377.20 274.50 360.56 C 271.85 349.73 267.73 339.29 265.70 328.31 C 263.72 319.83 268.09 311.80 270.05 303.75 C 274.72 312.20 280.59 319.88 286.67 327.35 C 292.90 335.20 298.53 343.49 304.44 351.57 C 306.88 354.91 308.83 358.57 310.55 362.32 C 302.82 359.66 296.84 353.86 289.54 350.41 C 290.39 352.42 291.39 354.47 293.16 355.85 C 298.22 360.12 303.79 364.05 310.13 366.15 C 311.77 366.67 314.54 367.06 314.77 364.68 C 314.61 359.89 311.51 355.80 309.08 351.86 C 300.84 340.49 292.84 328.94 284.03 317.98 C 279.98 312.58 275.86 307.11 273.02 300.95 C 270.87 296.92 273.14 292.51 274.17 288.52 C 282.30 292.84 287.94 300.38 295.57 305.40 C 300.06 308.30 304.46 311.82 309.95 312.47 C 306.38 308.11 301.39 305.36 297.12 301.79 C 289.94 296.10 283.69 288.80 274.77 285.77 C 276.09 278.82 277.52 271.90 279.09 265.01 C 279.80 262.10 279.82 259.09 279.55 256.14 C 276.02 262.77 274.60 270.24 272.36 277.34 C 267.34 299.03 259.68 320.08 256.07 342.09 C 255.09 347.87 254.91 353.74 254.88 359.59 C 249.99 354.25 244.07 349.55 241.13 342.74 C 236.75 334.24 234.71 324.78 230.36 316.30 C 229.56 322.50 232.09 328.36 233.98 334.12 C 235.80 339.17 237.32 344.37 239.94 349.08 C 242.87 354.32 247.54 358.23 251.26 362.87 C 254.61 366.78 253.74 372.25 254.13 377.00 C 254.71 386.98 254.60 396.98 254.16 406.96 C 253.70 422.02 254.17 437.22 257.17 452.03 C 258.57 459.56 260.80 466.90 262.12 474.44 C 255.00 481.12 245.21 485.67 235.29 483.64 C 228.43 481.92 221.25 478.83 217.39 472.56 C 212.31 466.52 210.93 458.57 209.77 451.02 C 206.83 428.68 207.49 406.02 204.24 383.71 C 203.40 375.37 201.30 367.21 200.51 358.86 C 199.35 349.95 199.68 340.94 200.12 332.00 C 200.54 323.62 202.73 315.45 205.64 307.62 C 213.78 285.47 221.80 263.25 228.62 240.64 C 233.37 225.34 241.35 211.22 245.70 195.76 C 247.01 191.47 246.76 186.79 248.51 182.63 C 251.34 177.92 256.26 175.07 260.80 172.24 C 262.95 176.33 265.00 180.53 266.00 185.07 C 267.64 191.49 266.98 198.26 268.87 204.63 C 271.56 198.59 270.48 191.86 269.65 185.54 C 268.92 180.12 266.68 175.08 264.08 170.32 M 278.09 353.65 C 275.29 361.99 279.83 370.15 283.68 377.30 C 292.08 391.97 300.84 406.49 311.05 419.99 C 313.75 423.45 315.97 427.74 320.36 429.32 C 317.44 422.99 312.97 417.57 309.36 411.65 C 300.57 397.69 291.53 383.84 283.76 369.28 C 280.91 364.42 280.76 358.57 278.09 353.65 Z" />
<path fill="var(--pants-color, grey)" opacity="1.00" d=" M 275.26 433.67 C 290.28 440.81 306.20 446.68 322.95 447.72 C 322.80 456.47 322.33 465.21 321.47 473.92 C 320.21 487.56 319.41 501.23 318.47 514.89 C 318.10 521.60 317.29 528.39 318.56 535.06 C 321.35 529.39 320.50 522.87 321.35 516.78 C 322.96 493.85 326.27 470.97 325.75 447.94 C 331.95 449.04 338.12 450.29 344.25 451.70 C 345.52 462.39 341.48 473.02 343.39 483.63 C 344.42 481.20 345.39 478.73 345.76 476.11 C 346.85 468.29 347.97 460.42 347.53 452.50 C 359.08 455.61 371.03 457.41 383.01 457.20 C 390.17 457.08 397.21 455.62 404.20 454.19 C 413.50 452.26 422.75 449.16 430.50 443.53 C 436.07 440.82 442.04 438.68 446.45 434.10 C 448.40 439.99 451.40 445.61 452.14 451.86 C 453.52 464.15 458.37 475.66 462.99 487.02 C 467.65 498.57 469.53 510.97 471.50 523.20 C 473.90 536.67 474.99 550.33 476.15 563.95 C 476.90 572.97 478.57 581.97 478.00 591.06 C 477.43 601.02 476.75 610.98 476.08 620.94 C 475.10 634.57 475.78 648.27 474.54 661.89 C 472.61 685.90 473.66 710.00 475.03 734.01 C 475.80 753.61 482.44 772.46 482.75 792.12 C 479.77 787.05 477.20 781.76 474.19 776.71 C 472.88 774.35 470.68 772.70 468.45 771.30 C 473.39 781.69 478.86 791.84 483.72 802.29 C 486.37 808.23 489.16 814.22 490.18 820.70 C 491.59 829.39 491.20 838.23 491.17 847.00 C 491.28 867.01 487.53 886.73 485.57 906.58 C 473.48 913.03 459.99 918.18 446.05 917.16 C 444.04 906.66 442.54 896.06 440.45 885.58 C 436.06 865.38 431.40 845.23 425.54 825.41 C 422.31 814.82 420.48 803.89 417.67 793.19 C 415.26 783.96 413.85 774.48 413.46 764.95 C 411.72 741.70 408.01 718.65 403.50 695.79 C 399.18 666.44 394.08 637.21 389.14 607.95 C 386.62 595.87 385.46 583.50 381.91 571.64 C 390.79 569.23 399.90 567.90 408.85 565.80 C 414.59 564.45 420.53 563.42 425.76 560.52 C 419.46 559.87 413.45 562.30 407.32 563.21 C 395.96 565.10 384.34 566.42 373.68 571.06 C 378.48 563.16 384.12 555.87 390.52 549.21 C 384.97 551.29 380.80 555.64 376.85 559.87 C 371.59 565.56 368.18 572.82 366.68 580.39 C 365.72 586.55 365.69 592.81 365.32 599.02 C 364.89 612.44 362.90 625.74 361.68 639.10 C 360.60 652.70 359.75 666.31 359.07 679.94 C 357.48 696.79 356.27 713.70 353.67 730.44 C 350.91 753.92 355.62 777.56 352.93 801.04 C 351.86 809.38 350.38 817.67 348.87 825.94 C 347.80 831.78 347.19 837.73 345.28 843.38 C 341.60 853.87 338.42 864.73 338.13 875.92 C 337.77 881.94 337.76 887.98 337.46 894.01 C 337.16 899.01 334.49 903.39 332.43 907.82 C 323.20 908.73 314.08 906.57 305.38 903.68 C 299.92 901.79 294.14 901.03 288.38 901.46 C 287.42 889.26 289.61 877.15 289.57 864.96 C 290.83 848.75 283.86 833.17 285.01 817.00 C 287.36 803.78 287.90 790.35 289.03 777.01 C 290.92 757.91 292.33 738.67 296.98 719.99 C 300.45 704.99 304.67 689.52 301.91 674.04 C 301.48 670.68 299.61 667.79 297.50 665.25 C 298.38 671.45 299.79 677.66 299.20 683.97 C 298.34 694.76 295.83 705.33 293.43 715.86 C 292.69 697.97 289.12 680.38 285.36 662.93 C 282.73 649.75 282.36 636.28 280.86 622.95 C 279.31 611.31 278.28 599.60 276.42 588.00 C 273.70 567.08 276.49 546.00 276.84 525.04 C 276.92 515.69 277.47 506.36 277.35 497.02 C 277.38 481.33 275.29 465.73 275.37 450.04 C 275.38 444.58 275.39 439.12 275.26 433.67 Z" />
</g>
<g id="#005228ff">
<path fill="var(--shirt-color, grey)" opacity="1.00" d=" M 333.38 148.68 C 335.38 148.47 337.38 148.28 339.39 148.09 C 338.31 150.22 337.21 152.33 336.10 154.44 C 335.19 152.52 334.29 150.59 333.38 148.68 Z" />
</g>
<g id="#4d4d4dff">
<path fill="#4d4d4d" opacity="1.00" d=" M 415.48 147.54 C 417.21 148.24 418.95 148.93 420.70 149.61 C 419.77 156.92 416.99 164.31 411.13 169.09 C 401.91 177.11 388.76 178.07 377.20 175.97 C 377.78 173.69 378.35 171.42 378.93 169.15 C 388.68 170.63 399.98 170.79 407.69 163.64 C 412.75 159.82 414.26 153.41 415.48 147.54 Z" />
<path fill="#4d4d4d" opacity="1.00" d=" M 322.89 152.98 C 324.92 152.06 326.95 151.13 328.99 150.20 C 331.24 155.71 334.02 161.43 339.15 164.82 C 346.57 169.82 355.82 170.68 364.54 170.58 C 365.28 172.40 366.01 174.21 366.76 176.02 C 353.61 175.68 339.65 173.33 329.14 164.83 C 325.42 161.97 324.19 157.25 322.89 152.98 Z" />
<path fill="#4d4d4d" opacity="1.00" d=" M 721.09 152.75 C 722.45 151.98 723.81 151.20 725.18 150.43 C 727.71 160.24 734.02 168.41 739.99 176.38 C 737.87 177.84 735.76 179.31 733.67 180.80 C 727.62 172.46 722.14 163.22 721.09 152.75 Z" />
<path fill="#4d4d4d" opacity="1.00" d=" M 370.23 180.59 C 371.24 182.61 372.30 184.70 372.50 186.99 C 373.18 193.67 373.00 200.41 373.90 207.08 C 374.60 212.71 377.20 217.86 378.51 223.35 C 380.75 233.23 383.14 243.14 383.76 253.29 C 385.29 272.48 387.73 291.86 385.02 311.05 C 384.28 318.86 383.44 326.92 385.43 334.61 C 387.53 342.53 395.24 347.33 397.78 355.00 C 401.05 368.41 394.06 381.02 391.92 393.95 C 390.60 399.55 394.02 404.56 394.69 409.94 C 394.38 418.31 387.97 424.87 386.95 433.07 C 386.05 439.44 385.43 446.24 381.53 451.61 C 380.49 453.31 378.16 452.86 376.52 453.46 C 377.99 449.82 379.53 446.20 380.51 442.40 C 382.56 434.95 381.89 426.95 384.73 419.68 C 386.76 414.32 389.34 408.83 388.68 402.94 C 388.42 398.84 386.00 395.14 386.18 391.00 C 387.35 381.57 394.59 373.71 394.32 364.02 C 393.42 355.69 385.89 350.91 381.34 344.72 C 377.53 334.31 379.24 322.88 379.30 312.03 C 379.47 288.99 380.68 265.86 378.13 242.91 C 377.34 234.05 371.36 226.82 369.96 218.12 C 367.98 205.71 368.39 193.00 370.23 180.59 Z" />
<path fill="#4d4d4d" opacity="1.00" d=" M 239.92 487.92 C 248.42 488.25 256.65 484.78 262.90 479.12 C 263.42 481.56 263.95 484.01 264.50 486.45 C 255.29 490.41 244.96 492.38 234.98 490.96 C 229.56 490.26 225.01 486.61 222.26 482.02 C 227.81 484.79 233.49 488.10 239.92 487.92 Z" />
<path fill="#4d4d4d" opacity="1.00" d=" M 288.83 904.87 C 299.02 904.28 308.28 909.18 318.19 910.51 C 322.35 911.14 326.57 911.03 330.77 910.90 C 328.95 912.99 327.26 916.18 323.99 915.82 C 312.27 915.56 301.64 909.35 289.95 908.97 C 289.57 907.60 289.19 906.22 288.83 904.87 Z" />
<path fill="#4d4d4d" opacity="1.00" d=" M 446.70 920.83 C 460.36 921.94 473.53 917.26 485.71 911.58 C 485.69 913.25 485.67 914.94 485.64 916.63 C 476.25 918.54 467.42 922.57 457.99 924.24 C 453.83 925.20 450.01 923.08 446.70 920.83 Z" />
<path fill="#4d4d4d" opacity="1.00" d=" M 291.36 924.43 C 297.10 922.61 303.90 921.90 309.44 924.60 C 313.44 928.64 312.89 935.72 317.83 939.11 C 320.87 941.38 324.78 940.54 328.17 939.73 C 330.74 943.50 333.56 947.11 335.85 951.07 C 339.01 956.69 336.53 964.94 330.32 967.25 C 320.73 971.07 310.22 967.26 300.35 969.38 C 295.01 970.69 290.63 974.65 285.05 975.20 C 276.44 976.20 267.80 974.73 259.26 973.72 C 254.18 972.86 248.79 972.26 244.39 969.39 C 243.88 966.75 245.22 963.92 247.61 962.69 C 251.59 960.54 256.01 959.31 259.86 956.88 C 269.50 951.48 276.18 942.40 282.80 933.82 C 285.47 930.55 286.75 925.48 291.36 924.43 Z" />
<path fill="#4d4d4d" opacity="1.00" d=" M 471.01 929.94 C 474.51 928.09 478.41 929.96 482.02 930.37 C 484.85 930.99 487.66 930.07 490.36 929.29 C 496.96 942.08 506.81 953.72 519.94 960.07 C 525.89 963.30 533.08 966.32 535.79 973.04 C 534.46 976.36 530.74 977.64 527.63 978.70 C 519.65 981.21 511.13 981.31 502.87 980.60 C 494.84 979.90 487.65 975.97 479.93 974.00 C 470.82 971.31 460.89 973.60 451.98 969.96 C 448.94 968.62 447.63 965.13 447.48 962.02 C 447.04 954.34 449.04 946.83 450.17 939.29 C 452.25 941.19 454.54 944.93 457.83 943.24 C 463.55 940.24 465.24 932.91 471.01 929.94 Z" />
</g>
</svg>
