<svg id="svg" version="1.1" xmlns="http://www.w3.org/2000/svg" xmlns:xlink="http://www.w3.org/1999/xlink" width="400" height="267.3031026252983" viewBox="0, 0, 400,267.3031026252983"><g id="svgg"><path id="path0" d="M1.070 17.781 L 1.070 35.027 185.180 35.027 C 344.385 35.027,369.341 35.078,369.672 35.409 C 370.001 35.739,370.053 51.515,370.053 151.050 L 370.053 266.310 384.759 266.310 L 399.465 266.310 399.465 133.422 L 399.465 0.535 200.267 0.535 L 1.070 0.535 1.070 17.781 " stroke="none" fill="#008c17" fill-rule="evenodd"></path><path id="path1" d="M25.869 35.227 L 1.070 35.297 1.070 35.964 L 1.070 36.631 10.027 36.631 L 18.984 36.631 18.984 56.818 L 18.984 77.005 94.784 77.005 L 170.585 77.005 170.653 56.751 L 170.722 36.497 215.976 36.430 L 261.230 36.362 261.230 101.203 L 261.230 166.045 146.858 166.043 C 83.954 166.042,25.418 166.041,16.778 166.042 C 1.248 166.043,1.070 166.049,1.070 166.578 C 1.070 167.106,1.248 167.112,16.674 167.112 L 32.278 167.112 34.775 170.236 C 66.533 209.965,125.220 209.627,155.710 169.539 C 156.540 168.448,157.219 167.455,157.219 167.333 C 157.219 167.212,180.862 167.112,209.759 167.112 L 262.298 167.112 262.366 101.805 L 262.433 36.497 311.267 36.430 L 360.101 36.362 360.286 37.351 C 360.900 40.626,364.097 43.757,367.358 44.279 L 368.449 44.453 368.449 155.382 L 368.449 266.310 369.118 266.310 L 369.786 266.310 369.786 151.050 C 369.786 51.515,369.734 35.739,369.404 35.409 C 369.050 35.054,132.003 34.929,25.869 35.227 M169.385 56.283 L 169.385 76.070 95.321 76.143 C 54.586 76.183,20.986 76.150,20.655 76.071 L 20.053 75.926 20.053 56.281 L 20.053 36.635 35.495 36.564 C 43.987 36.524,77.587 36.493,110.160 36.495 L 169.385 36.497 169.385 56.283 M368.449 39.739 L 368.449 43.115 367.714 42.965 C 364.833 42.378,362.579 40.271,361.753 37.394 C 361.461 36.373,361.492 36.364,365.152 36.364 L 368.449 36.364 368.449 39.739 M93.410 122.440 C 91.629 123.526,91.621 126.469,93.397 127.552 C 96.746 129.594,100.027 125.132,97.030 122.611 C 96.035 121.773,94.614 121.706,93.410 122.440 M155.882 167.277 C 155.882 167.598,153.875 170.222,151.701 172.744 C 122.626 206.465,71.626 207.498,40.371 175.000 C 37.687 172.209,33.957 167.712,33.957 167.266 C 33.957 167.182,61.390 167.112,94.920 167.112 C 128.449 167.112,155.882 167.186,155.882 167.277 " stroke="none" fill="#f0f8f2" fill-rule="evenodd"></path><path id="path2" d="M13.282 35.227 C 20.072 35.267,31.262 35.267,38.148 35.227 C 45.034 35.188,39.479 35.155,25.802 35.155 C 12.126 35.155,6.492 35.187,13.282 35.227 M369.919 150.936 C 369.919 214.465,369.949 240.415,369.987 208.601 C 370.024 176.788,370.024 124.809,369.987 93.093 C 369.949 61.377,369.919 87.406,369.919 150.936 M35.495 36.564 L 20.053 36.635 20.053 56.281 L 20.053 75.926 20.655 76.071 C 20.986 76.150,54.586 76.183,95.321 76.143 L 169.385 76.070 169.385 56.283 L 169.385 36.497 110.160 36.495 C 77.587 36.493,43.987 36.524,35.495 36.564 M170.766 36.542 C 170.668 36.640,170.588 45.784,170.588 56.863 L 170.588 77.005 94.786 77.005 L 18.984 77.005 18.984 56.818 L 18.984 36.631 10.027 36.631 L 1.070 36.631 1.070 101.336 L 1.070 166.040 131.150 166.042 L 261.230 166.044 261.230 101.204 L 261.230 36.364 216.087 36.364 C 191.259 36.364,170.865 36.444,170.766 36.542 M262.478 36.542 C 262.380 36.640,262.299 66.058,262.299 101.916 L 262.299 167.112 209.759 167.112 C 180.862 167.112,157.219 167.212,157.219 167.333 C 157.219 167.455,156.540 168.448,155.710 169.539 C 125.220 209.627,66.533 209.965,34.775 170.236 L 32.278 167.112 16.674 167.112 L 1.070 167.112 1.070 216.711 L 1.070 266.310 184.759 266.310 L 368.449 266.310 368.449 155.382 L 368.449 44.453 367.358 44.279 C 364.098 43.758,360.900 40.626,360.286 37.352 L 360.101 36.364 311.378 36.364 C 284.581 36.364,262.576 36.444,262.478 36.542 M361.700 36.517 C 360.420 37.797,364.660 42.343,367.714 42.965 L 368.449 43.115 368.449 39.739 L 368.449 36.364 365.152 36.364 C 363.338 36.364,361.785 36.433,361.700 36.517 M97.030 122.611 C 100.027 125.132,96.746 129.594,93.397 127.552 C 91.621 126.469,91.629 123.526,93.410 122.440 C 94.614 121.706,96.035 121.773,97.030 122.611 M33.957 167.266 C 33.957 167.460,36.074 170.218,37.495 171.874 C 67.851 207.270,121.579 207.679,151.701 172.744 C 153.875 170.222,155.882 167.598,155.882 167.277 C 155.882 167.186,128.449 167.112,94.920 167.112 C 61.390 167.112,33.957 167.182,33.957 167.266 " stroke="none" fill="#00a93a" fill-rule="evenodd"></path></g></svg>