<svg id="svg" version="1.1" xmlns="http://www.w3.org/2000/svg" xmlns:xlink="http://www.w3.org/1999/xlink" width="400" height="266.1367249602544" viewBox="0, 0, 400,266.1367249602544"><g id="svgg"><path id="path0" d="M0.820 52.796 C 0.832 81.541,0.900 104.880,0.973 104.660 C 1.045 104.441,1.212 104.021,1.345 103.728 C 1.477 103.435,1.905 101.937,2.295 100.399 C 2.970 97.744,3.482 95.824,5.319 89.081 C 5.758 87.470,6.541 84.594,7.059 82.690 C 7.577 80.786,8.285 78.149,8.632 76.831 C 8.979 75.513,9.707 72.816,10.251 70.839 C 10.795 68.862,11.597 65.925,12.034 64.314 C 13.470 59.010,14.333 55.834,15.178 52.730 C 16.736 47.014,17.806 43.017,18.494 40.346 C 18.871 38.881,19.298 37.475,19.443 37.221 C 19.588 36.966,19.707 36.517,19.707 36.222 L 19.707 35.686 199.968 35.686 L 380.228 35.686 380.518 36.418 C 380.677 36.821,381.119 38.349,381.499 39.814 C 381.880 41.278,382.548 43.795,382.985 45.406 C 383.421 47.017,384.135 49.654,384.571 51.265 C 386.361 57.875,387.284 61.270,388.047 64.048 C 388.859 67.002,389.777 70.386,391.229 75.766 C 392.382 80.039,393.531 84.276,394.440 87.609 C 395.870 92.852,396.776 96.217,397.562 99.201 C 399.321 105.878,399.174 110.090,399.188 52.530 L 399.201 0.533 200.000 0.533 L 0.799 0.533 0.820 52.796 " stroke="none" fill="#008c17" fill-rule="evenodd"></path><path id="path1" d="M19.743 36.818 C 19.594 37.294,18.737 40.439,17.838 43.808 C 16.940 47.177,15.808 51.372,15.322 53.129 C 14.837 54.887,14.379 56.565,14.305 56.858 C 14.230 57.150,13.729 59.008,13.190 60.985 C 12.652 62.963,11.874 65.839,11.462 67.377 C 11.049 68.915,10.154 72.210,9.471 74.700 C 8.019 80.002,6.668 84.970,3.862 95.340 C 1.767 103.076,1.252 104.813,0.899 105.319 C 0.279 106.207,0.417 107.377,1.130 107.276 C 1.768 107.184,1.859 106.893,5.443 93.475 C 6.128 90.912,6.973 87.796,7.320 86.551 C 7.667 85.306,8.388 82.670,8.921 80.692 C 9.455 78.715,10.174 76.079,10.521 74.834 C 10.867 73.589,11.647 70.712,12.254 68.442 C 13.670 63.146,14.822 58.911,15.440 56.724 C 15.710 55.772,16.678 52.209,17.592 48.806 L 19.253 42.619 20.213 42.464 C 23.087 42.000,25.272 40.446,26.023 38.333 L 26.490 37.017 53.146 37.017 L 79.802 37.017 79.079 39.747 C 78.682 41.248,77.855 44.334,77.242 46.605 C 76.629 48.875,75.843 51.811,75.496 53.129 C 75.148 54.447,74.425 57.144,73.888 59.121 C 73.350 61.099,72.576 63.975,72.167 65.513 C 69.375 75.999,67.933 81.384,65.784 89.348 C 64.440 94.328,62.941 99.900,62.453 101.731 C 61.964 103.562,60.763 108.056,59.783 111.718 C 58.803 115.379,57.704 119.514,57.341 120.905 C 56.979 122.297,56.392 124.438,56.037 125.662 C 55.683 126.887,55.393 128.115,55.393 128.392 C 55.393 128.883,56.462 128.895,100.557 128.895 L 145.722 128.895 148.826 131.734 C 150.534 133.296,152.416 135.018,153.010 135.561 C 165.328 146.831,179.767 151.893,199.601 151.898 C 221.761 151.902,234.941 146.503,251.686 130.563 L 253.438 128.895 298.756 128.895 C 339.946 128.895,344.075 128.856,344.075 128.473 C 344.075 128.240,343.481 125.814,342.755 123.080 C 341.506 118.377,340.790 115.692,336.884 101.065 C 334.494 92.113,331.055 79.191,329.336 72.703 C 328.968 71.312,328.226 68.555,327.689 66.578 C 327.152 64.601,326.494 62.144,326.228 61.119 C 325.961 60.093,325.324 57.696,324.811 55.792 C 324.299 53.888,323.099 49.394,322.145 45.806 C 321.192 42.217,320.283 38.862,320.126 38.351 C 319.969 37.839,319.840 37.330,319.840 37.219 C 319.840 37.108,331.704 37.017,346.205 37.017 L 372.570 37.017 372.570 37.653 C 372.570 39.860,375.717 42.317,378.875 42.574 L 380.942 42.743 381.263 43.941 C 381.581 45.128,382.825 49.729,384.288 55.126 C 384.704 56.664,385.483 59.541,386.017 61.518 C 386.551 63.495,387.271 66.132,387.617 67.377 C 387.962 68.622,388.682 71.258,389.216 73.236 C 391.169 80.465,393.051 87.396,394.676 93.342 C 395.277 95.539,396.239 99.075,396.814 101.198 C 397.390 103.322,397.958 105.408,398.077 105.833 C 398.414 107.038,399.467 107.297,399.467 106.176 C 399.467 105.701,399.303 105.075,399.101 104.786 C 398.900 104.497,398.233 102.403,397.619 100.133 C 397.005 97.863,396.220 94.987,395.874 93.742 C 395.527 92.497,394.808 89.860,394.274 87.883 C 393.741 85.905,393.021 83.269,392.675 82.024 C 392.329 80.779,391.564 77.963,390.976 75.766 C 390.388 73.569,389.347 69.734,388.662 67.244 C 387.423 62.739,386.944 60.967,385.382 55.126 C 384.931 53.442,384.219 50.806,383.799 49.268 C 383.379 47.730,382.399 44.105,381.621 41.212 L 380.208 35.952 200.111 35.952 L 20.015 35.952 19.743 36.818 M25.300 37.159 C 25.300 38.900,22.332 41.270,20.144 41.277 C 19.603 41.278,19.613 41.166,20.392 38.415 L 20.787 37.017 23.043 37.017 C 24.284 37.017,25.300 37.081,25.300 37.159 M145.321 37.617 C 144.909 39.349,140.357 64.704,140.349 65.313 C 140.347 65.423,167.068 65.513,199.727 65.513 L 259.108 65.513 258.960 64.647 C 258.879 64.171,258.641 62.883,258.432 61.784 C 258.222 60.686,257.690 57.750,257.249 55.260 C 255.557 45.710,255.102 43.188,254.590 40.532 C 254.299 39.024,254.061 37.616,254.061 37.403 C 254.061 37.068,258.334 37.017,286.385 37.017 L 318.709 37.017 319.376 39.614 C 319.743 41.042,320.908 45.446,321.964 49.401 C 323.021 53.356,324.301 58.149,324.808 60.053 C 325.316 61.957,325.957 64.354,326.232 65.379 C 327.994 71.949,330.671 81.985,333.514 92.676 C 334.468 96.265,335.976 101.927,336.865 105.260 C 337.754 108.592,339.191 113.985,340.058 117.244 C 340.924 120.503,341.883 124.066,342.188 125.161 C 342.493 126.257,342.743 127.305,342.743 127.491 C 342.743 127.764,315.171 127.830,199.734 127.830 C 121.079 127.830,56.725 127.740,56.726 127.630 C 56.727 127.520,57.098 126.052,57.550 124.368 C 58.002 122.683,58.596 120.438,58.870 119.378 C 59.662 116.317,60.700 112.439,61.384 109.987 C 61.731 108.742,62.870 104.487,63.915 100.533 C 64.960 96.578,66.098 92.324,66.444 91.079 C 67.082 88.784,67.635 86.728,70.061 77.630 C 70.803 74.847,71.831 71.012,72.345 69.108 C 72.859 67.204,73.456 64.987,73.671 64.181 C 73.886 63.375,74.544 60.919,75.133 58.722 C 76.732 52.754,79.231 43.363,80.023 40.346 C 80.408 38.881,80.772 37.533,80.832 37.350 C 80.919 37.086,87.630 37.017,113.203 37.017 L 145.464 37.017 145.321 37.617 M253.077 38.016 C 253.160 38.565,253.606 41.112,254.068 43.675 C 254.529 46.238,255.251 50.253,255.672 52.597 C 256.092 54.940,256.741 58.529,257.113 60.572 C 257.485 62.615,257.790 64.323,257.790 64.367 C 257.790 64.411,231.664 64.447,199.734 64.447 C 162.917 64.447,141.678 64.354,141.678 64.192 C 141.678 63.849,142.905 56.712,143.535 53.395 C 143.813 51.931,144.473 48.276,145.002 45.273 C 145.532 42.270,146.087 39.184,146.237 38.415 L 146.509 37.017 199.718 37.017 L 252.926 37.017 253.077 38.016 M379.873 38.815 C 380.117 39.804,380.379 40.822,380.456 41.079 C 380.575 41.477,380.410 41.544,379.312 41.542 C 376.621 41.537,373.635 39.287,373.635 37.266 C 373.635 37.127,374.913 37.017,376.532 37.017 L 379.429 37.017 379.873 38.815 M198.601 93.142 C 197.210 94.701,198.542 96.975,200.584 96.527 C 202.800 96.040,202.290 92.676,200.000 92.676 C 199.400 92.676,198.855 92.858,198.601 93.142 M250.333 130.309 C 235.039 145.047,222.418 150.315,201.598 150.651 C 178.513 151.024,166.195 146.415,150.043 131.362 L 147.403 128.902 199.601 128.900 L 251.798 128.897 250.333 130.309 " stroke="none" fill="#eef7f0" fill-rule="evenodd"></path><path id="path2" d="M19.711 36.152 C 19.714 36.484,19.776 36.522,19.926 36.285 C 20.095 36.020,56.572 35.939,200.282 35.885 L 380.426 35.819 200.067 35.752 C 28.447 35.689,19.707 35.708,19.711 36.152 M380.381 36.618 C 380.466 36.911,380.676 37.724,380.848 38.426 C 381.020 39.127,381.212 39.649,381.275 39.586 C 381.422 39.439,380.657 36.490,380.412 36.259 C 380.310 36.163,380.296 36.325,380.381 36.618 M19.311 37.350 C 18.971 38.346,18.362 41.087,18.458 41.184 C 18.521 41.246,18.813 40.334,19.109 39.157 C 19.564 37.342,19.687 36.246,19.311 37.350 M20.392 38.415 C 19.613 41.166,19.603 41.278,20.144 41.277 C 22.332 41.270,25.300 38.900,25.300 37.159 C 25.300 37.081,24.284 37.017,23.043 37.017 L 20.787 37.017 20.392 38.415 M26.023 38.333 C 25.272 40.446,23.087 42.000,20.213 42.464 L 19.253 42.619 17.592 48.806 C 16.678 52.209,15.709 55.772,15.438 56.724 C 15.167 57.676,14.510 60.073,13.977 62.051 C 13.444 64.028,12.667 66.904,12.250 68.442 C 11.833 69.980,11.055 72.856,10.521 74.834 C 9.987 76.811,9.267 79.447,8.921 80.692 C 8.576 81.937,7.857 84.574,7.323 86.551 C 6.790 88.529,6.074 91.165,5.732 92.410 C 5.390 93.655,4.357 97.477,3.436 100.904 C 2.111 105.836,1.662 107.160,1.281 107.260 C 0.817 107.381,0.799 110.406,0.799 186.582 L 0.799 265.779 200.000 265.779 L 399.201 265.779 399.201 186.316 C 399.201 109.094,399.187 106.849,398.706 106.724 C 398.434 106.652,398.150 106.309,398.076 105.960 C 397.948 105.358,397.138 102.352,394.676 93.342 C 393.051 87.396,391.169 80.465,389.216 73.236 C 388.682 71.258,387.962 68.622,387.617 67.377 C 387.271 66.132,386.551 63.495,386.017 61.518 C 385.483 59.541,384.704 56.664,384.288 55.126 C 382.825 49.729,381.581 45.128,381.263 43.941 L 380.942 42.743 378.875 42.574 C 375.717 42.317,372.570 39.860,372.570 37.653 L 372.570 37.017 346.205 37.017 C 331.704 37.017,319.840 37.108,319.840 37.219 C 319.840 37.330,319.969 37.839,320.126 38.351 C 320.283 38.862,321.192 42.217,322.145 45.806 C 323.099 49.394,324.299 53.888,324.811 55.792 C 325.324 57.696,325.961 60.093,326.228 61.119 C 326.494 62.144,327.152 64.601,327.689 66.578 C 328.226 68.555,328.968 71.312,329.336 72.703 C 331.055 79.191,334.494 92.113,336.884 101.065 C 340.790 115.692,341.506 118.377,342.755 123.080 C 343.481 125.814,344.075 128.240,344.075 128.473 C 344.075 128.856,339.946 128.895,298.756 128.895 L 253.438 128.895 251.686 130.563 C 234.941 146.503,221.761 151.902,199.601 151.898 C 179.767 151.893,165.328 146.831,153.010 135.561 C 152.416 135.018,150.534 133.296,148.826 131.734 L 145.722 128.895 100.557 128.895 C 56.462 128.895,55.393 128.883,55.393 128.392 C 55.393 128.115,55.683 126.887,56.037 125.662 C 56.392 124.438,56.979 122.297,57.341 120.905 C 57.704 119.514,58.803 115.379,59.783 111.718 C 60.763 108.056,61.964 103.562,62.453 101.731 C 62.941 99.900,64.440 94.328,65.784 89.348 C 67.933 81.384,69.375 75.999,72.167 65.513 C 72.576 63.975,73.350 61.099,73.888 59.121 C 74.425 57.144,75.148 54.447,75.496 53.129 C 75.843 51.811,76.629 48.875,77.242 46.605 C 77.855 44.334,78.682 41.248,79.079 39.747 L 79.802 37.017 53.146 37.017 L 26.490 37.017 26.023 38.333 M80.832 37.350 C 80.772 37.533,80.408 38.881,80.023 40.346 C 79.231 43.363,76.732 52.754,75.133 58.722 C 74.544 60.919,73.886 63.375,73.671 64.181 C 73.456 64.987,72.859 67.204,72.345 69.108 C 71.831 71.012,70.803 74.847,70.061 77.630 C 67.635 86.728,67.082 88.784,66.444 91.079 C 66.098 92.324,64.960 96.578,63.915 100.533 C 62.870 104.487,61.731 108.742,61.384 109.987 C 60.700 112.439,59.662 116.317,58.870 119.378 C 58.596 120.438,58.002 122.683,57.550 124.368 C 57.098 126.052,56.727 127.520,56.726 127.630 C 56.725 127.740,121.079 127.830,199.734 127.830 C 315.171 127.830,342.743 127.764,342.743 127.491 C 342.743 127.305,342.493 126.257,342.188 125.161 C 341.883 124.066,340.924 120.503,340.058 117.244 C 339.191 113.985,337.754 108.592,336.865 105.260 C 335.976 101.927,334.468 96.265,333.514 92.676 C 330.671 81.985,327.994 71.949,326.232 65.379 C 325.957 64.354,325.316 61.957,324.808 60.053 C 324.301 58.149,323.021 53.356,321.964 49.401 C 320.908 45.446,319.743 41.042,319.376 39.614 L 318.709 37.017 286.385 37.017 C 258.334 37.017,254.061 37.068,254.061 37.403 C 254.061 37.616,254.299 39.024,254.590 40.532 C 255.102 43.188,255.557 45.710,257.249 55.260 C 257.690 57.750,258.222 60.686,258.432 61.784 C 258.641 62.883,258.879 64.171,258.960 64.647 L 259.108 65.513 199.727 65.513 C 167.068 65.513,140.347 65.423,140.349 65.313 C 140.357 64.704,144.909 39.349,145.321 37.617 L 145.464 37.017 113.203 37.017 C 87.630 37.017,80.919 37.086,80.832 37.350 M146.237 38.415 C 146.087 39.184,145.532 42.270,145.002 45.273 C 144.473 48.276,143.813 51.931,143.535 53.395 C 142.905 56.712,141.678 63.849,141.678 64.192 C 141.678 64.354,162.917 64.447,199.734 64.447 C 231.664 64.447,257.790 64.411,257.790 64.367 C 257.790 64.323,257.485 62.615,257.113 60.572 C 256.741 58.529,256.092 54.940,255.672 52.597 C 255.251 50.253,254.529 46.238,254.068 43.675 C 253.606 41.112,253.160 38.565,253.077 38.016 L 252.926 37.017 199.718 37.017 L 146.509 37.017 146.237 38.415 M373.635 37.266 C 373.635 39.287,376.621 41.537,379.312 41.542 C 380.410 41.544,380.575 41.477,380.456 41.079 C 380.379 40.822,380.117 39.804,379.873 38.815 L 379.429 37.017 376.532 37.017 C 374.913 37.017,373.635 37.127,373.635 37.266 M381.979 42.477 C 382.064 42.770,382.335 43.823,382.580 44.817 C 382.825 45.810,383.076 46.573,383.138 46.511 C 383.285 46.364,382.256 42.350,382.012 42.121 C 381.909 42.024,381.894 42.184,381.979 42.477 M17.612 43.582 C 17.466 44.146,17.210 45.129,17.044 45.766 C 16.878 46.403,16.795 46.977,16.858 47.040 C 16.922 47.104,17.222 46.166,17.526 44.956 C 17.830 43.746,18.033 42.711,17.978 42.656 C 17.923 42.601,17.758 43.018,17.612 43.582 M383.785 49.001 C 383.772 49.221,383.997 50.120,384.285 50.999 C 384.572 51.877,384.734 52.180,384.646 51.670 C 384.427 50.410,383.813 48.507,383.785 49.001 M15.763 50.466 C 15.215 52.496,15.191 53.122,15.722 51.546 C 16.015 50.676,16.209 49.837,16.153 49.682 C 16.097 49.527,15.922 49.880,15.763 50.466 M385.189 54.461 C 385.644 56.354,386.243 58.320,386.337 58.226 C 386.487 58.076,385.636 54.830,385.316 54.328 C 385.115 54.013,385.088 54.041,385.189 54.461 M14.147 56.365 C 13.643 58.285,13.507 58.988,13.667 58.844 C 13.891 58.641,14.667 55.590,14.529 55.452 C 14.467 55.390,14.295 55.801,14.147 56.365 M387.096 61.575 C 387.200 62.046,387.451 62.855,387.654 63.373 C 388.071 64.434,387.989 63.743,387.458 61.718 C 387.139 60.500,386.834 60.380,387.096 61.575 M12.552 62.223 C 12.406 62.788,12.150 63.770,11.984 64.408 C 11.818 65.045,11.731 65.615,11.791 65.675 C 11.851 65.734,12.166 64.811,12.491 63.623 C 12.817 62.435,13.024 61.403,12.951 61.331 C 12.878 61.258,12.698 61.659,12.552 62.223 M388.552 66.778 C 388.554 66.887,388.793 67.696,389.083 68.575 C 389.596 70.133,389.582 69.581,389.056 67.577 C 388.823 66.686,388.543 66.242,388.552 66.778 M10.954 68.082 C 10.808 68.646,10.553 69.629,10.387 70.267 C 10.221 70.904,10.138 71.478,10.203 71.544 C 10.268 71.609,10.584 70.687,10.906 69.495 C 11.228 68.303,11.430 67.267,11.355 67.192 C 11.281 67.118,11.100 67.518,10.954 68.082 M390.146 72.560 C 390.146 73.003,391.301 76.963,391.401 76.863 C 391.530 76.735,390.516 72.718,390.301 72.502 C 390.216 72.417,390.146 72.443,390.146 72.560 M9.067 75.113 C 8.746 76.304,8.532 77.329,8.593 77.390 C 8.654 77.451,8.970 76.529,9.296 75.341 C 9.621 74.153,9.835 73.128,9.770 73.063 C 9.705 72.998,9.389 73.921,9.067 75.113 M391.847 78.961 C 392.302 80.855,392.901 82.820,392.995 82.726 C 393.144 82.577,392.294 79.331,391.974 78.828 C 391.773 78.514,391.746 78.542,391.847 78.961 M7.617 80.464 C 7.042 82.496,6.825 83.510,7.001 83.352 C 7.225 83.150,8.268 79.285,8.135 79.151 C 8.072 79.088,7.839 79.679,7.617 80.464 M393.445 84.820 C 393.899 86.714,394.499 88.679,394.593 88.585 C 394.742 88.436,393.892 85.189,393.571 84.687 C 393.371 84.372,393.344 84.401,393.445 84.820 M5.861 86.810 C 5.696 87.422,5.607 88.060,5.663 88.229 C 5.720 88.397,5.912 87.954,6.090 87.244 C 6.269 86.535,6.358 85.896,6.288 85.826 C 6.218 85.756,6.025 86.199,5.861 86.810 M395.043 90.679 C 395.497 92.573,396.097 94.538,396.191 94.444 C 396.340 94.295,395.490 91.048,395.169 90.546 C 394.969 90.231,394.942 90.260,395.043 90.679 M4.282 92.597 C 3.871 94.124,3.630 95.492,3.800 95.340 C 4.032 95.130,4.838 91.834,4.693 91.688 C 4.621 91.616,4.436 92.025,4.282 92.597 M201.392 93.142 C 202.933 94.897,201.303 97.254,199.122 96.425 C 197.239 95.710,197.950 92.676,200.000 92.676 C 200.602 92.676,201.141 92.857,201.392 93.142 M396.692 96.805 C 397.150 98.657,397.830 100.769,397.849 100.399 C 397.874 99.909,396.885 96.397,396.658 96.170 C 396.568 96.080,396.584 96.366,396.692 96.805 M2.729 98.467 C 2.323 99.885,2.043 101.355,2.209 101.198 C 2.413 101.005,3.245 97.697,3.120 97.572 C 3.062 97.514,2.886 97.917,2.729 98.467 M398.517 103.462 C 398.621 103.901,398.815 104.373,398.949 104.509 C 399.089 104.653,399.085 104.384,398.938 103.874 C 398.614 102.744,398.266 102.404,398.517 103.462 M1.205 103.957 C 1.128 104.197,1.009 104.574,0.940 104.794 C 0.872 105.013,0.875 105.193,0.947 105.193 C 1.151 105.193,1.630 103.805,1.478 103.653 C 1.405 103.579,1.281 103.716,1.205 103.957 M150.043 131.362 C 166.195 146.415,178.513 151.024,201.598 150.651 C 222.418 150.315,235.039 145.047,250.333 130.309 L 251.798 128.897 199.601 128.900 L 147.403 128.902 150.043 131.362 " stroke="none" fill="#00a93a" fill-rule="evenodd"></path></g></svg>