<svg xmlns="http://www.w3.org/2000/svg" viewBox="0 0 40 40" enable-background="new 0 0 40 40">
 <circle fill="#ed1c24" cx="5.6" cy="5" r="5"/>
 <path fill="#ed5f69" d="m6.3.6l-.7 4.4 3.9-2c0 0-.5-1.5-3.2-2.4"/>
 <path fill="#8c191f" d="M4.2,0.8L5.5,5H10c0,0-0.1,4.1-4.3,4.4S1,4.7,1.3,3.9S3.2,1.1,4.2,0.8z"/>
 <circle fill="#ed1c24" cx="34.3" cy="5" r="5"/>
 <path fill="#ed5f69" d="m34.9.6l-.6 4.4 3.9-2c0 0-.5-1.5-3.3-2.4"/>
 <path fill="#8c191f" d="m32.9.8l1.3 4.2h4.6c0 0-.1 4.1-4.3 4.4-4.1.2-4.8-4.7-4.5-5.5s1.8-2.8 2.9-3.1"/>
 <rect y="4.4" fill="#171112" width="40" height="1.5"/>
 <circle fill="#ed1c24" cx="5.6" cy="20.1" r="5"/>
 <path fill="#ed5f69" d="m6.3 15.7l-.6 4.4 3.9-2.1c-.1.1-.6-1.4-3.3-2.3"/>
 <path fill="#8c191f" d="m4.2 16l1.2 4.2h4.6c0 0-.1 4.1-4.3 4.4-4.1.1-4.7-4.8-4.4-5.6s1.9-2.8 2.9-3"/>
 <circle fill="#ed1c24" cx="34.3" cy="20.1" r="5"/>
 <path fill="#ed5f69" d="m34.9 15.7l-.6 4.4 3.9-2.1c0 .1-.5-1.4-3.3-2.3"/>
 <path fill="#8c191f" d="m32.9 15.9l1.2 4.2h4.6c0 0-.1 4.1-4.3 4.4s-4.7-4.7-4.4-5.5 1.8-2.8 2.9-3.1"/>
 <rect y="19.5" fill="#171112" width="40" height="1.5"/>
 <circle fill="#ed1c24" cx="5.6" cy="35" r="5"/>
 <path fill="#ed5f69" d="m6.3 30.5l-.7 4.5 3.9-2.1c0 0-.5-1.4-3.2-2.4"/>
 <path fill="#8c191f" d="m4.2 30.8l1.3 4.2h4.5c0 0-.1 4.1-4.3 4.4-4.1.2-4.8-4.7-4.5-5.5.4-.9 2-2.9 3-3.1"/>
 <circle fill="#ed1c24" cx="34.3" cy="35" r="5"/>
 <path fill="#ed5f69" d="m34.9 30.5l-.6 4.5 3.9-2.1c0 0-.5-1.4-3.3-2.4"/>
 <path fill="#8c191f" d="m32.9 30.8l1.2 4.2h4.6c0 0-.1 4.1-4.3 4.4-4.1.2-4.8-4.7-4.5-5.5.4-.9 1.9-2.9 3-3.1"/>
 <rect y="34.4" fill="#171112" width="40" height="1.5"/>
</svg>
