<svg xmlns="http://www.w3.org/2000/svg" viewBox="0 0 49 49" enable-background="new 0 0 49 49">
 <circle fill="#eb272a" cx="23.8" cy="5.1" r="5"/>
 <path fill="#ec616b" d="m25.2 9.2l-1.3-4.1-2.6 3.6c2.5 1.2 3.9.5 3.9.5"/>
 <path fill="#8e1c1f" d="m20 2.9c.4-.8 4.3-4 7-.8s-.1 6.1-.1 6.1l-3.1-3.1-3.9 2c-.5-.9-.3-3.4.1-4.2"/>
 <circle fill="#eb272a" cx="44" cy="25.3" r="5"/>
 <path fill="#ec616b" d="m45.3 29.5l-1.3-4.2-2.7 3.5c2.6 1.3 4 .7 4 .7"/>
 <path fill="#8e1c1f" d="m40.3 23c.3-.8 4.3-3.9 7-.7s-.1 6.1-.1 6.1l-3.2-3.2-3.9 2c-.7-.9-.2-3.4.2-4.2"/>
 <rect x="33.3" y="-4.8" transform="matrix(-.7071.7071-.7071-.7071 68.871 1.66)" fill="#1a1515" width="1.5" height="39.7"/>
 <circle fill="#eb272a" cx="5" cy="23.7" r="5"/>
 <path fill="#ec616b" d="m6.3 27.8l-1.3-4.1-2.6 3.6c2.5 1.3 3.9.6 3.9.5"/>
 <path fill="#8e1c1f" d="m1.2 21.5c.4-.8 4.3-4 7-.8s-.1 6.1-.1 6.1l-3.1-3.1-3.9 2c-.5-.9-.3-3.4.1-4.2"/>
 <circle fill="#eb272a" cx="25.2" cy="43.9" r="5"/>
 <path fill="#ec616b" d="m26.5 48.1l-1.3-4.2-2.8 3.6c2.7 1.2 4 .6 4.1.6"/>
 <path fill="#8e1c1f" d="m21.4 41.6c.3-.8 4.3-3.9 7-.7s-.1 6.1-.1 6.1l-3.2-3.2-3.9 2c-.6-.9-.1-3.4.2-4.2"/>
 <rect x="14.5" y="13.9" transform="matrix(-.7071.7071-.7071-.7071 49.86 46.893)" fill="#1a1515" width="1.5" height="39.7"/>
 <circle fill="#eb272a" cx="14.3" cy="14.4" r="5"/>
 <path fill="#ec616b" d="m15.6 18.5l-1.3-4.1-2.6 3.6c2.5 1.3 3.9.6 3.9.5"/>
 <path fill="#8e1c1f" d="m10.5 12.2c.4-.8 4.3-4 7-.8s-.1 6.1-.1 6.1l-3.1-3.1-3.9 2c-.5-.9-.3-3.4.1-4.2"/>
 <circle fill="#eb272a" cx="34.5" cy="34.6" r="5"/>
 <path fill="#ec616b" d="m35.8 38.8l-1.3-4.2-2.8 3.6c2.7 1.2 4 .6 4.1.6"/>
 <path fill="#8e1c1f" d="m30.7 32.3c.3-.8 4.3-3.9 7-.7 2.7 3.2-.1 6.1-.1 6.1l-3.2-3.2-3.9 2c-.6-.9-.1-3.4.2-4.2"/>
 <rect x="23.7" y="4.5" transform="matrix(-.7071.7071-.7071-.7071 59.08 24.326)" fill="#1a1515" width="1.5" height="39.7"/>
</svg>
