<?xml version="1.0" encoding="UTF-8" ?>
<!DOCTYPE svg PUBLIC "-//W3C//DTD SVG 1.1//EN" "http://www.w3.org/Graphics/SVG/1.1/DTD/svg11.dtd">
<svg width="500pt" height="1500pt" viewBox="510 0 500 1500" version="1.1" xmlns="http://www.w3.org/2000/svg">
<g id="#000000ff">
<path fill="#000000" opacity="1.00" d=" M 719.24 34.16 C 729.53 28.26 742.15 26.37 753.63 29.61 C 769.13 33.87 781.73 45.35 790.32 58.61 C 802.13 77.13 807.24 99.21 807.79 120.98 C 808.70 133.63 808.96 146.40 806.95 158.96 C 800.63 194.73 793.74 230.59 792.56 266.98 C 792.39 273.06 793.30 279.10 793.40 285.17 C 796.15 285.35 799.06 284.80 801.72 285.73 C 791.76 285.98 781.74 285.38 771.83 286.73 C 771.96 274.79 771.55 262.85 772.31 250.93 C 771.90 227.64 777.75 204.93 781.68 182.14 C 783.16 173.21 784.15 164.21 785.26 155.22 C 788.61 130.65 785.00 105.27 775.81 82.30 C 770.92 70.55 764.28 58.76 753.53 51.46 C 747.44 47.21 739.17 45.84 732.36 49.16 C 722.52 53.83 716.46 63.68 712.33 73.35 C 704.63 92.17 700.47 112.70 701.93 133.06 C 702.49 143.47 704.58 153.72 706.61 163.92 C 708.90 174.41 710.33 185.10 713.46 195.40 C 718.32 214.30 724.10 233.25 724.73 252.90 C 725.25 264.72 725.82 276.55 726.97 288.32 C 719.99 288.09 712.99 288.45 706.03 288.85 C 706.37 278.91 706.27 268.88 704.35 259.08 C 702.03 248.30 701.20 237.28 698.90 226.50 C 696.42 214.19 693.00 202.09 689.82 189.95 C 687.74 178.90 684.59 168.09 682.44 157.05 C 680.06 144.18 679.20 131.06 679.35 117.99 C 679.25 101.18 684.09 84.80 690.40 69.37 C 696.56 55.36 705.73 41.93 719.24 34.16 Z" />
<path fill="#000000" opacity="1.00" d=" M 632.15 779.04 C 632.90 779.22 634.39 779.57 635.13 779.74 C 641.95 781.46 648.72 783.44 655.69 784.55 C 654.91 785.02 654.17 785.54 653.47 786.11 C 655.34 797.83 655.86 809.74 657.22 821.54 C 662.84 880.30 668.48 939.04 673.68 997.84 C 674.26 1008.95 676.25 1019.90 677.44 1030.95 C 678.67 1056.97 679.11 1083.03 679.97 1109.08 C 682.10 1196.56 684.39 1284.04 686.29 1371.52 C 679.49 1371.63 672.69 1371.27 665.90 1371.23 C 662.94 1256.48 660.58 1141.72 657.77 1026.97 C 648.64 944.40 640.51 861.70 632.15 779.04 Z" />
<path fill="#000000" opacity="1.00" d=" M 705.81 797.70 C 712.68 799.72 719.64 801.44 726.62 803.06 C 726.55 833.69 727.24 864.32 727.09 894.96 C 727.04 945.65 727.26 996.33 727.52 1047.02 C 727.66 1159.36 727.56 1271.70 727.94 1384.04 C 728.10 1389.44 728.33 1394.86 727.86 1400.26 C 721.02 1399.77 714.17 1399.76 707.32 1399.58 C 707.28 1346.73 706.69 1293.88 706.87 1241.03 C 706.90 1158.69 706.45 1076.36 706.29 994.03 C 705.62 934.34 706.00 874.64 705.71 814.94 C 705.72 809.19 705.66 803.44 705.81 797.70 Z" />
<path fill="#000000" opacity="1.00" d=" M 782.36 817.36 C 789.32 819.28 796.31 821.07 803.34 822.74 C 803.29 852.48 803.12 882.22 803.15 911.97 C 803.01 936.29 803.35 960.61 802.86 984.92 C 802.42 1037.28 802.79 1089.64 802.36 1142.00 C 802.21 1195.01 802.11 1248.02 802.13 1301.03 C 802.22 1348.21 801.57 1395.39 801.62 1442.57 C 794.77 1442.35 787.93 1442.20 781.08 1442.15 C 781.32 1332.78 781.43 1223.38 781.45 1114.00 C 781.40 1059.33 781.94 1004.67 781.89 950.01 C 781.78 905.79 782.32 861.58 782.36 817.36 Z" />
<path fill="#000000" opacity="1.00" d=" M 872.31 840.38 C 878.14 842.10 884.09 843.42 889.96 845.01 C 890.85 845.41 891.73 845.84 892.62 846.31 C 883.30 940.26 874.05 1034.24 863.72 1128.09 C 860.93 1243.33 858.50 1358.58 855.58 1473.83 C 848.82 1473.79 842.05 1473.97 835.30 1473.75 C 836.09 1424.82 837.51 1375.91 838.61 1326.99 C 840.15 1269.63 841.29 1212.27 843.17 1154.93 C 843.62 1143.77 843.54 1132.55 845.32 1121.50 C 847.07 1111.44 847.49 1101.24 848.50 1091.10 C 856.03 1007.49 864.07 923.92 872.31 840.38 Z" />
</g>
<g id="#ffff00ff">
<path fill="var(--color, grey)" opacity="1.00" d=" M 771.83 286.73 C 781.74 285.38 791.76 285.98 801.72 285.73 C 803.69 285.90 804.94 287.58 805.81 289.19 C 809.38 295.47 812.49 302.00 815.75 308.45 C 830.08 311.16 844.89 309.58 859.15 312.79 C 870.07 315.48 880.44 320.65 889.10 327.81 C 906.20 342.80 914.21 365.78 915.76 387.97 C 916.21 401.66 915.25 415.35 915.24 429.04 C 911.45 558.72 906.65 688.37 902.14 818.02 C 901.66 826.15 901.62 834.31 901.02 842.44 C 900.94 844.27 899.77 845.79 898.13 846.54 C 895.36 846.24 892.69 845.46 889.96 845.01 C 884.09 843.42 878.14 842.10 872.31 840.38 C 849.35 834.39 826.35 828.53 803.34 822.74 C 796.31 821.07 789.32 819.28 782.36 817.36 C 763.81 812.49 745.24 807.67 726.62 803.06 C 719.64 801.44 712.68 799.72 705.81 797.70 C 689.26 793.08 672.52 789.18 655.96 784.62 L 655.69 784.55 C 648.72 783.44 641.95 781.46 635.13 779.74 C 632.53 778.42 627.64 778.75 627.53 774.96 C 625.55 759.71 625.10 744.32 623.99 729.00 C 617.89 627.03 612.41 525.03 606.71 423.04 C 605.98 411.02 605.56 398.97 604.59 386.97 C 603.61 367.76 609.74 348.43 620.89 332.84 C 625.40 326.43 630.94 320.68 637.39 316.21 C 641.06 313.58 645.58 312.81 649.90 311.89 C 661.25 309.73 672.89 310.82 684.34 309.75 C 687.19 304.28 690.35 298.98 693.25 293.54 C 694.13 291.97 695.03 289.97 697.03 289.65 C 700.00 289.18 703.03 289.19 706.03 288.85 C 712.99 288.45 719.99 288.09 726.97 288.32 C 737.00 288.52 747.03 287.77 757.07 287.55 C 761.98 287.31 766.97 287.76 771.83 286.73 M 635.09 374.02 C 635.65 376.40 638.43 375.77 640.18 375.36 C 640.57 373.71 641.90 371.91 640.43 370.42 C 638.19 367.58 633.38 370.91 635.09 374.02 M 648.25 370.33 C 647.03 370.96 646.96 372.75 647.36 373.91 C 648.05 376.51 652.46 376.61 653.09 373.91 C 654.22 371.25 650.49 368.22 648.25 370.33 M 660.54 371.38 C 657.82 374.32 663.03 378.69 665.43 375.49 C 667.93 372.52 663.07 368.22 660.54 371.38 M 673.44 371.65 C 670.13 373.56 673.53 379.47 676.83 377.05 C 680.26 375.07 676.78 369.44 673.44 371.65 M 686.59 376.29 C 688.11 376.89 690.04 377.93 691.41 376.44 C 693.80 374.62 692.03 370.21 688.95 371.10 C 686.36 371.22 686.17 374.33 686.59 376.29 M 731.40 375.94 C 731.93 378.06 734.43 377.89 736.15 377.96 C 737.51 376.30 738.22 373.37 735.79 372.30 C 733.47 370.62 730.25 373.37 731.40 375.94 M 747.45 372.38 C 745.10 373.10 744.90 376.87 747.23 377.81 C 749.08 379.04 752.03 377.13 751.58 374.94 C 751.71 372.83 749.23 371.64 747.45 372.38 M 761.66 373.71 C 759.94 374.67 760.49 376.71 760.62 378.29 C 762.27 379.07 764.72 379.88 765.84 377.86 C 767.80 375.34 764.17 371.87 761.66 373.71 M 805.29 376.35 C 802.23 378.37 805.27 383.54 808.58 381.42 C 812.54 379.63 808.68 373.28 805.29 376.35 M 819.14 377.10 C 815.67 379.31 819.82 384.57 822.92 382.05 C 826.42 379.82 822.22 374.49 819.14 377.10 M 834.69 378.69 C 832.28 382.11 838.09 385.61 839.93 381.81 C 842.32 378.53 836.57 375.13 834.69 378.69 M 849.67 378.68 C 849.33 380.29 848.48 382.78 850.45 383.68 C 852.70 385.37 856.00 382.68 854.80 380.08 C 854.29 377.68 851.40 378.29 849.67 378.68 M 699.38 384.60 C 696.58 386.63 699.42 391.43 702.66 389.64 C 706.39 387.82 702.78 381.96 699.38 384.60 M 778.29 386.34 C 775.12 388.58 778.85 393.52 782.11 391.35 C 785.69 389.03 781.44 383.69 778.29 386.34 M 636.30 391.52 C 633.12 393.94 637.29 398.95 640.36 396.41 C 643.58 394.03 639.22 388.87 636.30 391.52 M 648.08 396.03 C 648.66 398.45 651.52 397.77 653.29 397.31 C 654.23 394.94 653.55 392.40 651.02 391.46 C 649.27 392.14 646.84 393.87 648.08 396.03 M 661.25 393.34 C 659.24 394.79 660.40 398.74 663.03 398.55 C 665.04 398.93 666.94 397.00 666.56 394.99 C 666.15 392.63 662.90 391.68 661.25 393.34 M 674.65 393.59 C 672.37 396.91 677.95 400.29 679.78 396.76 C 681.92 393.58 676.59 390.36 674.65 393.59 M 687.12 396.01 C 686.30 398.66 689.99 400.77 691.89 398.88 C 693.84 397.53 692.79 394.70 691.29 393.41 C 689.64 393.55 687.13 393.86 687.12 396.01 M 732.28 395.55 C 729.51 397.64 732.61 402.83 735.80 400.78 C 739.65 398.89 735.59 392.53 732.28 395.55 M 747.30 396.51 C 746.18 397.08 745.87 398.79 746.27 399.91 C 746.81 403.07 752.71 402.35 752.37 399.01 C 752.74 396.47 749.14 394.86 747.30 396.51 M 761.30 397.47 C 758.45 399.44 761.42 404.45 764.63 402.48 C 768.36 400.70 764.56 394.63 761.30 397.47 M 805.22 400.20 C 803.35 401.21 803.06 404.15 804.76 405.48 C 806.37 406.49 809.22 406.02 809.56 403.86 C 810.66 401.34 807.52 398.58 805.22 400.20 M 820.54 400.66 C 818.94 401.35 818.05 403.41 819.02 404.94 C 819.99 407.28 823.82 406.96 824.50 404.54 C 825.42 402.19 822.85 399.75 820.54 400.66 M 836.15 402.17 C 833.85 403.59 835.17 408.09 838.05 407.55 C 839.81 407.72 841.22 405.82 840.83 404.16 C 840.85 401.93 837.70 400.70 836.15 402.17 M 849.43 403.41 C 847.64 404.83 848.79 408.44 851.07 408.65 C 853.15 409.28 855.19 407.13 854.63 405.08 C 854.41 402.64 850.99 401.42 849.43 403.41 M 635.51 413.48 C 633.75 415.29 635.48 418.73 637.97 418.39 C 640.07 418.80 642.01 415.99 640.87 414.18 C 640.17 412.05 636.69 411.71 635.51 413.48 M 648.18 414.21 C 646.41 416.47 648.91 418.78 650.99 419.53 C 653.64 418.73 654.31 416.12 653.36 413.75 C 651.71 413.01 649.29 412.23 648.18 414.21 M 663.40 414.52 C 659.91 415.92 662.64 421.89 666.04 419.86 C 669.65 418.45 666.85 412.57 663.40 414.52 M 675.67 415.66 C 675.33 417.42 674.68 420.21 677.01 420.86 C 679.65 422.43 682.65 418.37 680.78 416.14 C 679.68 414.17 677.30 414.97 675.67 415.66 M 688.56 416.58 C 686.50 419.66 691.07 423.17 693.43 420.28 C 696.19 417.22 690.80 413.13 688.56 416.58 M 732.33 417.45 C 728.98 418.90 731.58 424.71 734.93 422.87 C 738.68 421.46 735.91 415.43 732.33 417.45 M 747.19 419.11 C 745.82 419.81 745.97 421.53 746.17 422.81 C 747.30 425.47 751.67 425.01 752.27 422.17 C 752.94 419.40 749.27 417.31 747.19 419.11 M 760.35 422.03 C 759.96 424.83 764.32 426.03 765.70 423.83 C 767.07 422.36 765.83 420.55 765.14 419.13 C 763.12 418.89 760.04 419.25 760.35 422.03 M 804.51 424.48 C 801.08 427.56 807.20 432.14 809.57 428.67 C 812.11 425.71 806.85 421.80 804.51 424.48 M 821.29 425.39 C 819.18 426.71 820.25 430.87 822.95 430.66 C 825.19 431.06 827.13 428.07 825.75 426.20 C 824.91 424.62 822.62 424.15 821.29 425.39 M 836.39 425.50 C 832.75 426.96 835.20 433.30 838.94 431.60 C 842.62 430.30 840.16 423.63 836.39 425.50 M 849.35 427.37 C 847.55 428.91 848.46 432.60 850.95 432.73 C 852.62 433.14 854.54 431.73 854.44 429.97 C 855.10 427.23 851.12 425.15 849.35 427.37 M 636.29 435.39 C 633.09 437.58 636.93 442.74 640.04 440.15 C 643.72 437.97 639.38 432.41 636.29 435.39 M 649.48 436.48 C 647.61 438.03 648.77 441.31 651.09 441.60 C 653.52 442.20 655.70 439.05 654.15 437.04 C 653.26 435.35 650.73 435.05 649.48 436.48 M 663.21 437.36 C 662.17 438.12 661.41 439.65 662.01 440.91 C 662.51 443.60 667.27 443.59 667.64 440.87 C 668.70 438.17 665.56 436.10 663.21 437.36 M 677.20 438.23 C 673.85 439.96 676.47 445.35 679.94 443.68 C 683.61 442.06 680.79 436.41 677.20 438.23 M 691.08 444.65 C 693.17 445.58 694.73 443.68 695.49 441.98 C 694.81 440.27 693.15 437.93 691.06 439.10 C 688.52 439.67 688.51 444.18 691.08 444.65 M 732.39 440.51 C 730.41 441.48 730.26 444.86 732.25 446.00 C 733.69 447.01 736.09 446.62 736.84 444.90 C 738.36 442.29 735.02 438.94 732.39 440.51 M 747.24 442.55 C 745.26 444.16 746.53 447.90 749.15 447.72 C 751.57 448.17 753.71 445.14 752.14 443.14 C 751.21 441.30 748.65 441.30 747.24 442.55 M 760.63 442.67 C 760.25 444.46 759.56 447.30 761.99 447.92 C 764.58 449.35 767.52 445.44 765.72 443.20 C 764.64 441.24 762.25 441.96 760.63 442.67 M 805.25 448.22 C 802.21 450.24 805.36 455.43 808.65 453.54 C 812.48 451.76 808.55 445.49 805.25 448.22 M 821.44 448.60 C 819.87 449.28 818.96 451.51 820.13 452.93 C 821.19 455.44 825.41 454.50 825.62 451.88 C 826.19 449.61 823.50 447.56 821.44 448.60 M 836.48 449.43 C 834.25 449.90 833.57 453.20 835.37 454.55 C 836.89 456.43 840.35 455.45 840.57 453.02 C 841.09 450.79 838.56 448.77 836.48 449.43 M 849.80 450.57 C 848.75 452.42 848.60 454.52 849.79 456.35 C 852.26 457.35 855.64 456.18 854.94 452.97 C 855.11 450.04 851.84 449.91 849.80 450.57 M 635.49 459.98 C 636.22 461.68 637.77 463.58 639.88 462.73 C 642.96 462.23 642.32 456.60 639.01 457.03 C 637.06 456.73 636.28 458.63 635.49 459.98 M 650.30 458.38 C 648.14 459.70 649.29 463.97 652.04 463.66 C 654.23 463.97 656.09 461.10 654.78 459.26 C 653.97 457.64 651.66 457.13 650.30 458.38 M 663.46 464.26 C 665.11 465.75 667.42 464.54 668.65 463.08 C 668.41 461.52 668.05 459.04 665.97 459.11 C 663.01 458.23 661.19 462.49 663.46 464.26 M 675.45 464.23 C 676.76 465.78 679.59 466.84 681.01 464.86 C 682.93 462.83 680.56 459.19 677.89 460.19 C 675.86 460.29 675.74 462.71 675.45 464.23 M 690.33 461.35 C 687.31 463.24 690.41 468.48 693.63 466.36 C 697.29 464.57 693.59 458.64 690.33 461.35 M 807.08 477.80 C 808.73 478.35 810.38 477.58 811.48 476.34 C 811.46 475.43 811.45 474.53 811.46 473.64 C 810.35 472.45 808.70 471.63 807.09 472.27 C 804.53 472.74 804.54 477.27 807.08 477.80 M 820.60 474.65 C 819.78 475.82 819.75 478.02 821.13 478.86 C 823.01 480.71 826.67 478.66 825.87 476.02 C 825.86 473.46 821.96 472.54 820.60 474.65 M 835.26 475.32 C 832.31 477.89 837.03 482.57 839.57 479.50 C 842.50 476.89 837.73 472.33 835.26 475.32 M 850.50 476.67 C 847.34 478.26 849.72 483.54 853.01 482.11 C 856.93 480.89 854.16 474.40 850.50 476.67 M 636.09 482.94 C 636.68 485.35 639.51 484.77 641.31 484.32 C 641.57 482.74 642.41 480.34 640.59 479.41 C 638.43 477.50 634.72 480.43 636.09 482.94 M 649.52 482.97 C 650.33 484.53 651.90 486.39 653.91 485.55 C 657.05 484.75 656.46 479.02 653.00 479.41 C 650.89 479.14 650.24 481.52 649.52 482.97 M 664.47 481.66 C 662.26 483.14 662.97 487.57 665.96 487.44 C 668.17 487.92 670.00 484.91 668.97 483.05 C 668.52 481.11 665.95 480.74 664.47 481.66 M 677.29 483.43 C 674.48 485.64 677.62 490.66 680.99 488.65 C 684.43 486.40 680.56 480.51 677.29 483.43 M 691.35 484.40 C 689.95 485.22 689.78 487.87 691.13 488.86 C 692.77 490.65 696.63 489.58 696.54 486.94 C 696.97 484.26 693.20 482.64 691.35 484.40 M 806.22 495.21 C 802.87 497.00 805.42 502.87 808.98 500.87 C 812.62 499.26 809.96 493.28 806.22 495.21 M 823.03 502.30 C 827.14 502.19 826.52 496.15 822.96 495.50 C 819.24 496.10 818.90 502.32 823.03 502.30 M 834.20 499.03 C 833.37 501.21 835.20 502.76 836.98 503.52 C 838.68 502.68 840.94 501.22 840.17 498.95 C 839.37 496.15 834.65 496.02 834.20 499.03 M 850.39 498.39 C 847.03 499.47 847.99 505.64 851.84 504.71 C 856.06 504.14 854.75 496.64 850.39 498.39 M 637.53 500.50 C 634.50 503.54 640.15 507.79 642.32 504.18 C 644.34 501.23 639.79 497.62 637.53 500.50 M 652.42 501.47 C 648.65 502.81 651.51 509.05 655.01 506.84 C 658.48 505.41 655.83 499.71 652.42 501.47 M 665.18 503.15 C 661.44 504.70 664.42 510.61 668.00 508.54 C 671.28 506.78 668.51 501.30 665.18 503.15 M 676.71 504.86 C 675.58 507.21 676.89 510.68 679.96 509.79 C 683.49 509.15 682.45 503.99 679.19 503.62 C 678.57 503.93 677.33 504.55 676.71 504.86 M 691.33 505.39 C 690.22 505.99 689.36 507.67 689.98 508.89 C 690.45 511.60 695.20 511.65 695.63 508.97 C 696.73 506.34 693.67 504.14 691.33 505.39 M 734.48 513.50 C 730.99 516.52 736.99 521.01 739.33 517.54 C 741.52 514.51 736.99 510.97 734.48 513.50 M 748.65 513.70 C 744.93 516.13 749.90 521.75 752.91 518.80 C 755.91 516.23 751.73 511.54 748.65 513.70 M 762.39 518.93 C 763.08 521.97 768.87 521.43 768.47 518.02 C 768.86 515.92 766.39 515.21 764.98 514.49 C 763.33 515.26 761.45 516.88 762.39 518.93 M 703.33 519.54 C 702.32 520.18 702.02 521.80 702.45 522.89 C 703.00 525.47 707.46 525.51 708.01 522.91 C 709.36 520.26 705.45 517.41 703.33 519.54 M 807.47 520.55 C 805.57 521.30 804.61 524.29 806.32 525.72 C 807.88 527.60 811.25 526.40 811.53 524.04 C 812.31 521.74 809.58 519.54 807.47 520.55 M 822.65 522.68 C 820.89 523.96 821.12 527.04 823.22 527.85 C 825.92 529.47 829.09 525.37 826.82 523.20 C 825.94 521.87 823.86 521.91 822.65 522.68 M 639.27 523.33 C 637.22 524.73 638.31 528.77 640.97 528.57 C 643.19 529.02 645.11 526.03 643.81 524.16 C 643.03 522.49 640.56 522.01 639.27 523.33 M 653.45 524.69 C 652.10 525.35 651.86 527.32 652.43 528.61 C 653.33 530.99 657.69 530.64 657.91 527.94 C 658.76 525.30 655.64 523.24 653.45 524.69 M 837.17 523.93 C 833.64 526.15 837.74 531.83 840.82 528.86 C 843.93 526.61 840.29 521.23 837.17 523.93 M 666.35 526.31 C 664.71 527.72 665.91 529.87 666.83 531.31 C 668.66 531.49 671.28 531.16 671.49 528.85 C 672.17 526.05 668.14 524.06 666.35 526.31 M 851.44 525.48 C 849.16 526.22 848.82 529.77 851.03 530.83 C 852.87 532.27 856.04 530.26 855.52 528.00 C 855.61 526.01 853.16 524.74 851.44 525.48 M 679.34 527.34 C 676.54 529.38 679.40 534.48 682.72 532.64 C 686.57 530.81 682.69 524.30 679.34 527.34 M 693.32 528.39 C 690.99 529.26 690.80 533.05 693.07 534.16 C 695.18 535.42 697.95 533.31 697.52 530.96 C 697.67 528.82 695.10 527.61 693.32 528.39 M 734.35 535.55 C 732.44 536.65 732.76 540.29 735.03 540.96 C 736.69 542.15 739.72 541.32 739.83 539.08 C 740.61 536.09 736.67 534.20 734.35 535.55 M 748.13 535.97 C 746.72 536.73 746.95 538.51 747.18 539.83 C 748.54 542.40 753.21 542.12 753.54 538.95 C 754.02 536.18 750.14 534.33 748.13 535.97 M 763.58 536.66 C 760.04 539.01 764.79 544.77 767.63 541.51 C 770.48 539.06 766.52 534.35 763.58 536.66 M 641.42 544.39 C 637.79 545.29 639.42 551.28 643.06 550.16 C 647.00 549.33 645.18 543.01 641.42 544.39 M 807.37 544.53 C 805.38 545.40 805.26 548.78 807.30 549.75 C 808.85 550.84 811.47 549.81 811.66 547.88 C 812.50 545.38 809.56 543.30 807.37 544.53 M 652.28 548.07 C 652.27 550.75 655.08 551.06 657.14 550.82 C 658.49 549.01 658.52 546.91 657.13 545.12 C 655.01 544.79 652.12 545.32 652.28 548.07 M 822.44 546.46 C 820.43 548.01 821.63 551.52 824.11 551.68 C 826.50 552.06 828.46 549.07 827.03 547.08 C 826.07 545.52 823.74 545.08 822.44 546.46 M 667.18 546.96 C 663.56 549.08 667.88 554.71 670.86 551.69 C 673.67 549.48 670.08 544.61 667.18 546.96 M 835.97 550.89 C 836.45 553.18 839.50 553.36 841.08 552.08 C 841.96 550.80 841.62 549.25 841.32 547.86 C 840.70 547.55 839.45 546.93 838.83 546.62 C 837.06 547.14 835.08 548.89 835.97 550.89 M 679.12 551.04 C 678.38 553.70 682.07 555.74 683.95 553.81 C 685.82 552.47 684.76 549.71 683.36 548.40 C 681.65 548.49 679.14 548.83 679.12 551.04 M 850.72 551.97 C 850.75 555.05 854.20 555.75 856.41 554.31 C 856.64 552.77 856.62 551.22 856.31 549.71 C 854.08 548.88 850.98 548.97 850.72 551.97 M 692.31 555.58 C 693.65 557.28 695.88 555.98 697.33 555.14 C 697.44 553.34 697.22 550.73 694.96 550.46 C 692.09 549.64 690.03 553.76 692.31 555.58 M 734.46 558.50 C 731.13 561.53 737.54 566.62 739.89 562.86 C 742.27 559.89 736.92 555.75 734.46 558.50 M 750.32 559.47 C 748.80 560.13 747.99 562.52 749.18 563.84 C 750.77 566.44 755.71 565.15 755.33 561.90 C 755.11 559.46 752.33 558.48 750.32 559.47 M 764.43 560.53 C 761.52 561.69 762.87 566.66 765.98 566.39 C 767.83 566.69 769.32 564.73 768.94 562.99 C 768.94 560.81 766.23 559.64 764.43 560.53 M 641.23 565.33 C 639.60 566.34 640.00 568.77 640.87 570.20 C 642.49 571.39 645.47 571.22 646.00 568.93 C 647.19 566.29 643.50 563.20 641.23 565.33 M 654.42 567.69 C 651.23 569.70 654.60 575.12 657.81 572.69 C 661.16 570.65 657.63 565.41 654.42 567.69 M 806.21 568.26 C 802.81 570.18 806.24 575.59 809.50 573.28 C 812.68 571.30 809.39 565.92 806.21 568.26 M 822.44 569.65 C 820.93 570.69 820.55 573.49 822.09 574.67 C 823.67 576.36 826.70 575.25 827.11 573.04 C 828.10 570.32 824.71 568.03 822.44 569.65 M 666.53 570.38 C 664.75 572.24 666.45 575.96 669.07 575.63 C 671.89 575.83 672.86 571.70 670.85 570.15 C 669.78 568.86 667.48 569.09 666.53 570.38 M 838.19 570.18 C 836.39 571.29 835.41 574.25 837.28 575.74 C 839.55 578.07 843.42 574.94 842.70 572.12 C 842.60 570.11 839.69 568.86 838.19 570.18 M 680.33 571.43 C 677.60 573.04 679.58 578.12 682.88 576.76 C 687.06 575.83 684.19 568.81 680.33 571.43 M 693.48 572.54 C 689.82 573.78 691.79 579.94 695.50 578.53 C 699.35 577.40 697.30 570.92 693.48 572.54 M 851.28 572.32 C 849.22 573.76 850.40 577.79 853.06 577.54 C 855.31 577.97 857.16 574.85 855.77 573.03 C 854.97 571.40 852.51 571.01 851.28 572.32 M 733.43 581.88 C 733.04 583.98 734.92 586.01 737.04 585.70 C 738.93 585.71 739.94 583.68 740.34 582.10 C 740.58 580.08 738.52 579.21 737.07 578.50 C 735.73 579.47 734.13 580.29 733.43 581.88 M 749.49 581.62 C 746.35 583.65 749.85 589.11 752.95 586.88 C 756.72 585.06 752.79 579.03 749.49 581.62 M 764.37 583.62 C 761.59 585.23 763.77 590.26 766.91 589.03 C 771.09 587.89 768.20 580.99 764.37 583.62 M 642.34 588.40 C 640.88 589.28 640.14 591.52 641.12 593.01 C 642.08 595.71 646.83 594.86 646.90 592.08 C 647.61 589.39 644.80 587.11 642.34 588.40 M 654.35 590.61 C 652.46 591.67 652.65 595.45 655.02 595.96 C 656.81 596.86 659.66 595.13 659.34 593.01 C 659.51 590.40 656.28 589.44 654.35 590.61 M 806.35 591.46 C 805.13 592.43 805.05 594.66 806.29 595.66 C 807.86 597.50 811.60 596.65 811.71 594.05 C 812.36 591.18 808.16 589.31 806.35 591.46 M 667.36 592.52 C 664.06 594.45 667.64 600.36 670.90 597.78 C 674.19 595.69 670.68 590.30 667.36 592.52 M 822.17 593.13 C 818.60 595.26 822.92 600.84 825.86 597.86 C 828.75 595.65 825.06 590.68 822.17 593.13 M 680.27 594.32 C 678.81 595.17 678.80 597.86 680.15 598.85 C 681.71 600.76 685.54 599.62 685.39 597.00 C 685.81 594.48 682.13 592.40 680.27 594.32 M 838.11 594.19 C 834.56 595.33 836.28 601.55 840.01 600.06 C 843.92 599.01 842.12 592.49 838.11 594.19 M 693.68 596.69 C 691.78 597.84 692.00 601.07 694.11 601.87 C 695.92 603.03 698.84 601.17 698.39 599.03 C 698.55 596.68 695.42 595.42 693.68 596.69 M 852.27 597.37 C 850.80 598.46 851.02 600.70 851.87 602.13 C 853.43 603.29 856.35 603.21 856.95 601.02 C 858.52 598.25 854.50 594.98 852.27 597.37 M 735.21 603.22 C 733.84 604.19 733.87 606.75 735.25 607.71 C 736.81 609.34 739.79 608.23 740.18 606.05 C 740.88 603.36 737.10 601.12 735.21 603.22 M 750.17 604.22 C 748.96 604.90 748.12 606.72 749.02 607.97 C 749.90 610.85 755.26 610.22 754.96 606.95 C 755.37 604.43 752.07 602.88 750.17 604.22 M 763.28 606.41 C 760.39 608.39 763.43 613.40 766.63 611.41 C 770.35 609.62 766.57 603.59 763.28 606.41 M 643.19 610.16 C 639.26 611.93 643.25 618.36 646.57 615.49 C 649.79 613.45 646.58 608.03 643.19 610.16 M 655.40 611.52 C 653.52 612.70 653.75 616.40 656.12 616.80 C 658.05 617.44 660.50 616.17 660.58 614.01 C 661.16 611.21 657.24 609.35 655.40 611.52 M 668.38 613.55 C 665.43 615.92 669.07 620.48 672.13 618.36 C 675.43 616.03 671.42 610.79 668.38 613.55 M 681.52 614.66 C 677.64 615.68 679.73 621.96 683.46 620.40 C 687.09 619.28 685.13 613.35 681.52 614.66 M 694.59 615.81 C 690.56 616.18 691.85 623.07 695.80 621.65 C 699.33 621.13 698.15 614.99 694.59 615.81 M 807.37 615.49 C 806.09 615.95 805.85 617.76 806.13 618.94 C 806.55 621.45 810.60 622.22 811.76 619.83 C 813.55 617.15 810.00 613.90 807.37 615.49 M 822.32 617.39 C 821.03 618.46 821.04 620.62 822.29 621.73 C 823.78 623.75 827.74 622.65 827.55 619.98 C 828.00 617.36 824.09 615.23 822.32 617.39 M 837.42 619.64 C 834.65 621.70 837.45 626.41 840.70 624.72 C 844.49 622.87 840.82 616.96 837.42 619.64 M 853.27 621.39 C 851.27 622.50 850.97 625.77 853.20 626.80 C 855.49 628.27 858.72 625.62 857.70 623.08 C 857.49 621.03 854.81 620.71 853.27 621.39 M 735.22 626.15 C 734.07 628.82 737.38 631.93 739.82 630.02 C 741.90 628.79 740.87 626.42 740.26 624.67 C 738.52 624.28 735.70 623.78 735.22 626.15 M 750.40 626.68 C 746.88 629.55 752.29 634.32 754.96 630.93 C 757.51 628.06 753.08 624.31 750.40 626.68 M 764.48 629.37 C 762.69 630.70 763.77 634.09 765.92 634.33 C 768.14 635.06 770.33 632.54 769.50 630.43 C 768.88 628.33 765.87 627.63 764.48 629.37 M 642.30 631.40 C 639.99 632.48 640.43 636.58 643.07 636.85 C 644.93 637.32 647.36 636.14 647.36 634.04 C 647.88 631.38 644.24 629.84 642.30 631.40 M 655.18 633.05 C 651.64 635.19 655.91 640.72 658.86 637.79 C 661.77 635.57 658.10 630.61 655.18 633.05 M 669.23 635.24 C 668.07 635.94 667.16 637.68 668.02 638.95 C 668.80 641.93 674.01 641.12 673.96 638.03 C 674.53 635.45 671.17 633.70 669.23 635.24 M 681.28 637.36 C 677.47 639.64 681.86 645.06 685.12 642.21 C 688.69 639.91 684.45 634.60 681.28 637.36 M 692.47 642.00 C 693.26 643.37 694.08 645.23 696.04 644.95 C 698.95 645.10 700.39 640.74 697.81 639.29 C 695.55 637.59 693.28 640.01 692.47 642.00 M 805.62 639.64 C 803.51 642.96 808.88 646.23 810.77 642.81 C 812.97 639.58 807.56 636.31 805.62 639.64 M 823.42 640.52 C 821.27 641.41 821.00 644.89 823.03 646.11 C 825.06 647.59 828.06 645.63 827.69 643.20 C 827.77 641.05 825.29 639.59 823.42 640.52 M 836.05 645.01 C 834.86 647.15 837.17 648.85 838.97 649.46 C 840.60 648.67 842.45 647.12 841.58 645.08 C 840.99 642.56 836.63 642.46 836.05 645.01 M 852.34 645.59 C 849.45 648.00 853.09 652.43 856.14 650.38 C 859.52 648.03 855.38 642.71 852.34 645.59 M 736.09 648.02 C 732.65 650.24 736.75 655.54 739.86 652.92 C 743.38 650.72 739.20 645.36 736.09 648.02 M 750.60 649.64 C 748.67 650.78 748.89 654.12 751.05 654.87 C 753.23 656.22 756.28 653.40 755.09 651.10 C 754.55 649.22 752.12 648.73 750.60 649.64 M 764.28 651.41 C 760.77 653.47 764.46 659.28 767.74 656.53 C 770.85 654.44 767.56 648.78 764.28 651.41 M 643.39 652.59 C 639.57 654.93 644.57 660.82 647.66 657.62 C 650.64 655.01 646.40 650.66 643.39 652.59 M 704.11 659.58 C 706.39 661.47 709.96 658.81 708.74 656.08 C 708.36 653.77 705.54 654.23 703.85 654.14 C 702.74 655.78 701.96 658.36 704.11 659.58 M 656.88 661.33 C 661.51 662.18 662.67 655.30 658.05 654.49 C 654.78 655.15 653.31 659.97 656.88 661.33 M 669.48 658.34 C 666.48 661.65 672.77 665.50 674.46 661.60 C 676.21 658.52 671.43 655.52 669.48 658.34 M 683.17 660.22 C 680.61 661.19 681.17 665.56 683.90 665.76 C 685.59 666.28 687.74 664.84 687.52 663.00 C 687.91 660.83 684.98 658.96 683.17 660.22 M 805.11 662.12 C 803.51 663.65 804.71 666.87 806.96 666.91 C 808.36 667.19 809.48 666.24 810.43 665.37 C 810.42 664.45 810.41 663.55 810.43 662.66 C 809.18 661.14 806.44 660.26 805.11 662.12 M 694.49 662.57 C 692.62 664.08 693.75 667.45 696.10 667.66 C 697.71 668.03 699.71 666.69 699.58 664.95 C 700.06 662.34 696.24 660.54 694.49 662.57 M 821.45 664.36 C 818.44 667.68 824.80 671.50 826.46 667.58 C 828.21 664.49 823.36 661.51 821.45 664.36 M 836.75 665.57 C 835.33 667.40 835.35 669.56 836.79 671.38 C 838.97 671.84 841.98 670.84 841.57 668.11 C 841.41 665.62 838.69 665.28 836.75 665.57 M 777.69 672.30 C 779.46 672.77 782.29 673.37 782.91 670.98 C 784.14 668.85 781.71 667.17 780.02 666.46 C 777.38 667.31 776.74 669.91 777.69 672.30 M 851.94 668.75 C 851.62 669.37 850.96 670.60 850.64 671.21 C 851.25 672.64 852.09 674.67 854.03 674.51 C 856.70 674.98 858.30 671.18 856.55 669.30 C 855.60 667.68 853.41 668.46 851.94 668.75 M 737.53 670.52 C 733.33 671.74 736.01 678.59 739.90 676.16 C 743.30 674.53 741.00 669.08 737.53 670.52 M 751.23 671.93 C 750.10 672.79 749.37 674.62 749.99 675.98 C 750.64 678.76 755.03 678.42 755.85 675.90 C 757.57 673.24 753.56 669.85 751.23 671.93 M 765.30 674.28 C 764.16 674.98 763.24 676.75 764.14 677.97 C 764.91 680.55 769.27 680.68 770.05 678.00 C 771.20 675.24 767.66 672.34 765.30 674.28 M 642.58 675.36 C 641.31 676.63 641.63 678.93 643.14 679.86 C 645.38 681.76 649.43 678.85 647.88 676.15 C 647.19 674.02 643.86 673.70 642.58 675.36 M 656.32 676.48 C 652.40 678.42 656.31 684.46 659.70 681.53 C 663.38 679.56 659.64 673.66 656.32 676.48 M 668.68 678.74 C 667.35 679.97 666.89 682.33 668.49 683.56 C 670.61 685.84 675.05 683.03 673.75 680.06 C 673.43 677.80 670.20 677.67 668.68 678.74 M 681.58 681.80 C 680.94 684.15 681.55 686.61 684.07 687.50 C 685.76 686.53 688.44 685.61 687.83 683.11 C 687.55 679.97 683.45 680.07 681.58 681.80 M 696.44 683.64 C 693.36 685.19 695.79 690.57 699.02 689.00 C 702.97 687.83 700.10 681.24 696.44 683.64 M 806.69 684.58 C 805.42 685.51 804.95 687.59 806.05 688.82 C 807.46 691.15 812.04 689.84 811.46 686.93 C 811.66 684.47 808.51 683.36 806.69 684.58 M 822.06 688.09 C 820.86 690.21 823.84 693.15 825.93 691.88 C 828.32 691.28 827.75 688.44 827.32 686.66 C 825.50 686.18 822.61 685.60 822.06 688.09 M 836.16 689.16 C 833.92 690.17 833.75 693.90 836.14 694.85 C 838.03 695.99 840.67 694.09 840.55 692.00 C 841.00 689.78 838.02 687.91 836.16 689.16 M 735.39 692.59 C 734.02 693.28 733.85 695.40 734.51 696.69 C 735.85 699.36 740.84 698.08 740.40 694.96 C 740.58 692.35 737.28 691.45 735.39 692.59 M 852.36 693.25 C 850.49 695.19 852.11 699.47 855.09 698.76 C 857.68 698.70 858.59 694.75 856.87 693.16 C 855.91 691.78 853.23 691.86 852.36 693.25 M 640.12 696.17 C 638.25 698.47 640.85 700.76 642.99 701.48 C 645.60 700.67 646.29 698.10 645.40 695.73 C 643.68 695.10 641.32 694.20 640.12 696.17 M 750.15 698.98 C 750.83 701.27 753.53 700.58 755.30 700.35 C 756.04 698.70 756.81 696.28 754.81 695.21 C 752.57 693.38 748.53 696.33 750.15 698.98 M 655.54 698.45 C 652.55 701.49 657.92 705.67 660.37 702.40 C 662.91 699.34 658.10 695.36 655.54 698.45 M 764.52 698.33 C 761.85 701.27 766.75 705.13 769.20 702.17 C 771.57 699.14 766.83 695.28 764.52 698.33 M 669.44 699.60 C 667.66 700.41 667.50 703.67 669.23 704.66 C 671.46 706.51 675.48 703.86 674.06 701.08 C 673.50 699.11 671.04 698.83 669.44 699.60 M 682.54 703.52 C 681.00 704.91 682.19 706.85 682.77 708.40 C 684.43 708.69 687.23 709.25 687.69 706.98 C 689.16 704.00 684.68 700.88 682.54 703.52 M 697.40 705.44 C 695.87 706.04 695.05 708.50 696.26 709.83 C 697.66 712.34 701.95 710.98 701.70 708.11 C 701.89 705.87 699.26 704.54 697.40 705.44 M 805.30 708.42 C 803.69 709.38 803.91 711.75 804.86 713.14 C 806.94 714.58 810.50 713.65 810.70 710.85 C 810.93 708.06 807.30 706.61 805.30 708.42 M 822.49 711.73 C 819.15 713.80 822.64 719.23 825.94 716.84 C 829.74 714.99 825.80 709.01 822.49 711.73 M 836.22 713.13 C 832.74 714.90 835.33 720.75 838.89 718.79 C 842.92 717.27 840.10 710.29 836.22 713.13 M 737.18 719.78 C 739.29 720.57 740.77 718.67 741.53 716.98 C 740.72 715.67 739.95 713.69 738.01 714.06 C 734.64 713.54 734.01 719.33 737.18 719.78 M 640.48 715.40 C 638.71 716.77 639.38 719.87 641.50 720.49 C 643.85 721.39 646.46 718.75 645.57 716.41 C 644.99 714.23 641.86 713.63 640.48 715.40 M 654.06 720.04 C 653.98 721.90 655.79 722.63 657.09 723.49 C 658.43 722.77 660.66 721.99 660.31 720.04 C 660.56 718.06 658.30 717.33 657.00 716.48 C 655.63 717.27 653.84 718.12 654.06 720.04 M 749.15 717.19 C 745.74 718.79 748.47 724.09 751.83 722.64 C 756.06 721.63 752.96 714.60 749.15 717.19 M 851.70 717.67 C 849.93 718.90 849.95 721.98 852.05 722.87 C 853.96 724.14 856.88 722.14 856.66 719.95 C 856.94 717.37 853.45 716.20 851.70 717.67 M 669.69 720.58 C 666.28 722.86 670.17 727.90 673.32 725.49 C 676.39 723.19 672.77 718.43 669.69 720.58 M 764.36 720.47 C 760.71 721.92 763.59 727.89 767.02 725.83 C 770.57 724.29 767.79 718.64 764.36 720.47 M 682.37 722.49 C 681.14 723.47 680.94 725.62 682.13 726.72 C 683.66 728.85 687.87 727.88 687.68 725.00 C 687.89 722.40 684.24 720.61 682.37 722.49 M 695.52 725.52 C 692.59 728.62 698.18 732.80 700.36 729.20 C 702.34 726.20 697.82 722.62 695.52 725.52 M 806.15 730.17 C 802.52 731.72 805.57 737.82 808.99 735.82 C 812.70 734.29 809.64 728.04 806.15 730.17 M 820.52 739.05 C 820.90 739.50 821.64 740.40 822.02 740.84 C 823.34 740.64 825.14 741.30 825.97 739.85 C 827.85 737.86 825.55 734.20 822.88 735.18 C 820.91 735.24 820.62 737.53 820.52 739.05 M 736.13 737.03 C 734.36 737.83 733.69 740.46 735.18 741.83 C 737.11 744.15 741.82 742.00 740.85 738.89 C 740.76 736.70 737.74 735.79 736.13 737.03 M 837.14 742.85 C 839.42 744.62 841.78 742.14 842.53 740.02 C 841.74 738.28 840.18 736.53 838.07 737.28 C 835.33 737.54 834.64 741.66 837.14 742.85 M 852.98 738.86 C 849.99 739.74 850.79 744.85 853.98 744.68 C 856.68 744.88 857.20 741.91 856.91 739.85 C 855.65 739.36 854.38 738.22 852.98 738.86 M 751.32 739.41 C 749.13 740.66 749.41 744.47 751.97 745.14 C 754.32 745.95 756.58 743.34 755.77 741.07 C 755.57 739.02 752.83 738.61 751.32 739.41 M 765.34 742.44 C 761.95 743.96 764.48 749.80 768.02 748.26 C 771.78 746.78 769.12 740.41 765.34 742.44 M 806.17 754.30 C 802.85 756.28 806.30 761.51 809.52 759.31 C 812.79 757.31 809.39 751.82 806.17 754.30 M 823.15 757.18 C 819.49 758.78 822.33 764.90 825.96 762.95 C 829.94 761.68 826.73 755.02 823.15 757.18 M 837.27 760.34 C 834.21 762.69 838.03 767.73 841.25 765.38 C 845.04 763.04 840.39 757.49 837.27 760.34 M 852.34 763.44 C 850.76 764.82 850.71 768.23 852.99 768.92 C 855.64 770.41 858.79 766.52 857.14 764.10 C 856.17 762.48 853.62 761.96 852.34 763.44 Z" />
</g>
</svg>
