<?xml version="1.0" encoding="UTF-8" ?>
<!DOCTYPE svg PUBLIC "-//W3C//DTD SVG 1.1//EN" "http://www.w3.org/Graphics/SVG/1.1/DTD/svg11.dtd">
<svg width="1000pt" height="1000pt" viewBox="0 0 1000 1000" version="1.1" xmlns="http://www.w3.org/2000/svg">
    <g id="#020202ff">
        <path fill="#020202" opacity="1.00"
            d=" M 452.29 74.22 C 459.04 72.13 465.87 69.09 473.11 70.28 C 482.57 71.93 490.92 77.00 499.93 80.06 C 505.42 82.28 511.53 83.17 516.43 86.68 C 520.79 89.76 524.54 94.19 525.53 99.57 C 526.47 103.33 526.44 107.75 529.40 110.64 C 533.43 114.83 539.50 115.65 544.37 118.51 C 552.79 123.33 560.09 131.00 562.61 140.56 C 565.56 156.15 567.49 172.11 565.81 187.97 C 565.54 190.15 564.64 192.87 562.08 193.16 C 558.88 192.97 556.03 191.26 553.04 190.28 C 551.81 204.67 549.14 218.87 546.73 233.09 C 545.47 239.58 542.78 246.28 537.14 250.16 C 543.48 254.54 550.36 258.15 557.78 260.31 C 566.67 263.37 576.52 262.76 585.09 266.90 C 591.18 269.91 596.51 274.18 602.19 277.85 C 618.21 288.70 635.64 297.19 652.55 306.50 C 655.54 308.19 658.09 310.54 660.32 313.15 C 667.25 310.21 674.34 306.92 682.01 306.76 C 689.17 306.62 696.25 308.08 703.15 309.89 C 710.47 311.77 717.44 314.98 724.99 316.01 C 729.49 316.54 733.52 318.66 737.74 320.13 C 745.75 321.48 753.93 320.64 762.01 321.01 C 769.70 321.42 777.38 320.74 785.03 319.95 C 792.43 319.17 800.53 316.38 804.49 309.61 C 810.00 300.44 815.44 290.59 824.56 284.49 C 831.69 280.11 840.49 277.17 848.85 279.36 C 851.91 280.16 855.10 281.30 857.33 283.66 C 860.12 286.98 857.90 291.70 859.57 295.40 C 862.57 301.02 869.79 302.54 872.82 308.12 C 875.42 312.79 873.87 318.34 875.65 323.26 C 876.63 326.14 874.14 328.54 872.03 330.05 C 866.77 333.76 861.11 336.98 856.51 341.55 C 851.54 345.90 848.29 352.02 842.60 355.56 C 838.83 357.89 834.58 359.27 830.40 360.65 C 823.83 362.76 816.61 362.18 810.29 365.16 C 805.77 367.27 801.41 369.71 796.89 371.84 C 789.94 375.05 783.66 379.53 776.67 382.66 C 754.47 394.18 728.97 398.68 704.10 397.08 C 702.06 407.79 699.08 419.15 690.92 426.91 C 686.10 429.53 680.37 429.39 675.04 429.53 C 660.38 429.69 646.09 425.81 631.49 425.30 C 622.31 424.70 613.18 423.30 603.97 423.51 C 590.44 423.73 576.38 424.12 563.94 430.04 C 562.74 430.86 562.51 432.50 561.92 433.75 C 557.84 446.11 555.08 458.99 554.68 472.04 C 554.33 481.59 554.15 491.43 550.44 500.40 C 547.17 509.01 540.49 515.83 537.49 524.56 C 534.48 533.18 532.58 542.16 531.33 551.20 C 530.33 557.14 529.68 563.93 524.89 568.20 C 526.02 571.85 526.37 575.78 525.41 579.52 C 524.99 581.77 523.53 584.40 525.70 586.23 C 535.07 596.55 543.85 607.62 549.66 620.40 C 554.54 629.46 555.61 640.45 562.67 648.33 C 570.49 657.23 579.43 667.17 592.02 668.30 C 591.30 675.63 588.23 682.80 583.32 688.33 C 590.29 691.71 592.51 699.95 593.24 707.04 C 594.65 724.93 589.93 742.48 585.77 759.71 C 580.95 778.42 577.35 797.44 571.82 815.96 C 567.26 831.75 561.19 847.03 555.44 862.41 C 552.04 870.85 548.94 879.41 546.45 888.16 C 544.01 896.59 544.45 905.46 542.71 914.02 C 558.61 914.24 575.67 918.19 587.20 929.85 C 591.99 934.41 594.87 941.24 593.45 947.87 C 592.28 954.24 586.83 958.83 581.01 961.00 C 573.04 964.03 564.46 964.72 556.19 966.59 C 536.89 970.27 519.76 981.65 499.97 983.31 C 488.98 984.67 477.69 980.83 469.37 973.63 C 463.06 968.67 458.67 961.15 458.33 953.05 C 457.94 942.21 462.19 931.87 467.52 922.65 C 471.77 914.33 477.68 906.52 479.15 897.09 C 480.74 889.52 484.06 882.44 485.60 874.86 C 486.96 867.97 488.01 861.00 488.41 853.99 C 488.92 831.37 486.22 808.25 492.37 786.15 C 496.54 771.62 502.79 757.65 511.08 745.00 C 513.06 741.66 515.37 738.47 516.74 734.83 C 516.05 730.13 513.31 726.05 511.22 721.88 C 502.18 722.82 493.07 722.18 484.01 722.69 C 471.79 722.58 458.97 725.63 447.29 720.69 C 435.66 715.97 424.62 709.75 414.52 702.31 C 410.60 707.62 405.44 711.81 399.97 715.43 C 397.49 726.09 394.89 736.77 390.99 747.02 C 387.75 756.39 385.77 766.57 379.59 774.59 C 372.71 783.28 362.00 787.63 351.61 790.48 C 343.26 792.48 335.27 795.79 327.65 799.70 C 319.92 804.29 312.42 809.30 304.46 813.50 C 288.11 822.06 271.38 829.85 254.61 837.55 C 240.58 843.96 226.61 850.87 214.36 860.35 C 201.46 870.99 193.04 886.10 187.76 901.77 C 182.92 914.10 180.40 927.15 178.26 940.18 C 177.22 949.84 175.96 960.07 170.32 968.29 C 167.04 973.38 159.95 975.46 154.59 972.42 C 145.79 967.64 140.55 958.55 135.88 950.05 C 130.24 939.98 127.80 928.46 127.04 917.03 C 126.47 906.66 125.59 896.20 127.16 885.87 C 128.96 873.39 130.49 860.68 128.65 848.11 C 127.32 839.10 127.88 829.13 133.68 821.67 C 141.65 810.88 155.54 807.59 167.86 804.54 C 175.14 802.45 183.26 802.30 189.61 797.74 C 196.49 793.29 201.01 786.27 206.67 780.51 C 218.07 768.69 231.69 759.27 245.56 750.60 C 260.21 741.00 276.61 733.69 294.04 731.18 C 299.52 730.14 305.54 730.46 310.44 727.44 C 314.20 724.63 314.41 719.57 315.40 715.37 C 308.44 710.65 299.63 706.02 297.85 697.00 C 296.14 683.94 301.71 671.10 299.96 658.01 C 299.32 649.04 294.63 641.17 292.22 632.67 C 288.33 620.33 287.91 607.08 290.69 594.47 C 293.38 582.21 295.09 569.48 300.44 558.02 C 294.26 556.49 287.37 555.98 282.44 551.48 C 277.92 547.75 277.08 541.50 277.13 536.00 C 277.52 519.46 280.88 503.20 283.34 486.89 C 278.07 486.35 271.77 484.92 269.62 479.40 C 266.26 469.79 268.17 459.40 269.42 449.58 C 272.40 429.03 274.50 408.30 279.11 388.02 C 281.95 375.59 290.28 365.62 297.48 355.48 C 309.48 339.48 321.59 323.56 333.68 307.62 C 343.28 295.34 352.37 282.53 363.67 271.70 C 373.69 262.35 384.63 253.69 397.39 248.40 C 406.13 243.21 415.69 239.66 425.47 236.97 C 425.29 233.73 425.59 230.41 424.78 227.25 C 422.66 225.71 419.98 224.82 418.44 222.60 C 415.10 217.89 413.92 211.42 408.62 208.30 C 401.54 203.92 395.15 197.98 391.64 190.31 C 388.95 184.42 388.95 177.83 388.29 171.51 C 387.84 165.87 384.09 161.23 383.20 155.69 C 382.02 148.59 381.76 141.26 382.64 134.11 C 383.13 129.61 385.98 125.99 388.14 122.18 C 390.80 116.29 390.54 109.45 393.63 103.69 C 400.79 90.39 413.41 79.63 428.34 76.34 C 436.21 74.34 444.50 76.73 452.29 74.22 M 534.21 221.20 C 529.07 226.13 522.46 229.12 516.02 231.97 C 509.84 234.76 502.78 236.17 496.10 234.51 C 490.39 233.08 484.58 230.91 480.40 226.61 C 478.08 224.45 475.52 221.53 471.98 222.10 C 467.48 222.74 463.53 225.20 459.17 226.37 C 449.84 229.22 439.87 228.93 430.31 227.50 C 430.27 230.27 430.14 233.03 429.96 235.80 C 438.51 233.49 447.24 231.87 456.04 230.80 C 467.50 229.38 479.30 231.86 489.48 237.24 C 495.62 240.29 501.83 244.51 509.02 243.81 C 516.47 243.30 524.44 242.57 531.24 246.36 C 536.05 242.71 539.02 237.20 540.26 231.36 C 542.13 222.60 544.02 213.84 545.61 205.02 C 542.11 210.60 538.86 216.46 534.21 221.20 M 420.63 243.69 C 412.44 245.72 405.44 250.63 397.70 253.80 C 386.56 258.45 377.13 266.22 368.23 274.22 C 354.73 286.95 344.49 302.55 333.19 317.15 C 319.22 336.18 304.08 354.36 291.08 374.08 C 285.28 382.62 283.43 392.94 282.00 402.96 C 278.82 419.15 277.36 435.60 274.85 451.90 C 273.80 460.14 272.22 468.65 274.14 476.88 C 275.20 481.31 280.29 481.86 283.89 483.15 C 285.16 472.47 285.59 461.70 286.97 451.03 C 287.95 444.12 292.71 438.64 295.05 432.22 C 298.58 423.92 298.14 414.76 299.09 405.97 C 300.34 394.44 304.36 383.23 310.70 373.52 C 311.64 371.79 313.38 370.88 315.36 370.98 C 314.94 372.58 314.45 374.17 313.69 375.65 C 308.06 386.25 304.57 398.02 303.75 410.01 C 303.26 418.01 303.06 426.26 299.76 433.72 C 297.38 440.31 292.22 445.80 291.40 452.94 C 290.85 458.28 290.48 463.64 290.03 468.99 C 289.13 491.85 282.25 514.07 282.23 537.01 C 282.38 540.62 282.76 544.77 285.67 547.31 C 289.20 550.41 293.97 551.34 298.42 552.27 C 302.54 552.98 306.76 554.25 310.94 553.20 C 318.19 551.59 325.48 549.69 331.98 545.98 C 343.22 540.85 354.44 535.66 365.85 530.91 C 378.41 525.57 390.52 519.21 403.23 514.21 C 412.06 510.62 421.22 507.95 430.33 505.17 C 434.87 503.94 439.40 502.41 444.13 502.15 C 445.75 501.87 446.93 503.10 448.15 503.94 C 444.81 506.74 440.32 507.07 436.38 508.54 C 417.20 514.51 399.01 523.14 381.02 531.96 C 370.93 536.84 360.53 541.03 350.28 545.53 C 358.87 545.07 367.40 546.36 375.98 546.47 C 397.00 546.37 418.04 545.02 439.05 546.30 C 452.97 547.10 467.06 547.77 480.58 551.49 C 487.97 553.50 494.78 557.09 501.69 560.31 C 506.76 562.74 512.53 563.00 518.05 562.77 C 520.65 562.81 522.40 560.61 524.36 559.23 C 526.11 552.24 525.92 544.98 527.35 537.94 C 528.98 529.80 531.30 521.68 535.44 514.43 C 538.92 508.23 543.56 502.60 545.76 495.75 C 549.21 485.84 548.40 475.20 549.33 464.91 C 550.14 454.08 553.12 443.53 557.12 433.47 C 552.53 436.39 547.57 438.79 543.48 442.42 C 537.24 447.91 531.26 453.80 524.23 458.32 C 512.62 466.18 498.91 469.80 485.65 473.78 C 481.74 474.74 477.65 476.51 473.64 475.08 C 475.97 472.05 479.95 471.52 483.30 470.24 C 495.54 466.25 507.81 461.86 518.61 454.71 C 530.46 447.47 538.46 435.33 551.04 429.13 C 543.07 430.52 535.00 431.26 527.07 432.91 C 506.68 437.28 486.53 442.68 466.48 448.40 C 466.27 446.79 466.81 445.17 468.40 444.49 C 475.26 440.84 482.79 438.69 490.19 436.41 C 507.50 431.41 524.92 426.28 542.90 424.36 C 550.69 423.52 558.27 421.37 566.09 420.71 C 571.32 420.27 576.25 418.23 581.47 417.70 C 593.23 416.34 605.13 415.91 616.93 416.89 C 624.45 417.67 632.00 418.17 639.54 418.68 C 655.48 420.43 671.57 424.28 687.64 421.64 C 689.90 418.13 692.32 414.65 693.68 410.67 C 696.45 402.87 696.89 394.46 699.79 386.70 C 704.51 373.82 710.75 361.54 717.79 349.79 C 723.32 340.92 729.97 332.67 734.14 323.01 C 730.90 321.72 727.44 321.16 723.98 320.91 C 715.99 320.40 708.69 316.86 701.00 314.99 C 694.19 313.31 687.14 311.80 680.09 312.52 C 666.11 314.51 654.78 324.23 640.98 326.84 C 631.42 329.10 621.58 329.72 611.80 330.13 C 611.51 326.58 615.55 326.53 618.01 326.05 C 631.16 324.25 644.74 322.18 656.26 315.10 C 654.04 313.44 651.82 311.79 649.40 310.47 C 632.69 301.79 615.76 293.40 600.13 282.85 C 594.68 279.30 589.52 275.30 583.76 272.27 C 578.31 269.33 572.01 269.07 566.02 268.10 C 559.08 267.17 552.37 264.93 545.99 262.09 C 539.11 258.98 533.44 253.78 526.63 250.56 C 518.41 247.11 509.42 251.39 501.03 248.99 C 495.11 247.41 489.88 244.10 484.35 241.57 C 475.30 237.31 465.02 235.48 455.08 236.83 C 443.46 238.31 431.91 240.50 420.63 243.69 M 834.20 286.22 C 824.93 289.44 818.54 297.49 813.71 305.64 C 810.62 310.44 808.25 316.01 803.35 319.31 C 796.13 324.83 786.71 325.40 777.99 325.84 C 769.32 326.61 760.64 325.83 751.97 325.66 C 747.56 325.57 743.18 325.11 738.84 324.39 C 737.63 331.07 733.89 336.84 730.47 342.57 C 720.47 358.01 711.86 374.45 705.61 391.77 C 726.93 392.33 748.57 388.95 768.19 380.41 C 778.60 376.09 788.08 369.94 798.27 365.17 C 804.57 362.00 810.82 358.31 817.96 357.44 C 825.61 356.61 833.29 354.86 840.03 351.04 C 845.28 347.70 848.28 341.98 853.01 338.04 C 858.34 332.77 864.97 329.19 871.01 324.85 C 868.59 320.16 870.62 314.51 868.04 309.95 C 864.29 305.65 858.23 303.76 855.37 298.57 C 853.07 295.27 853.99 291.11 853.48 287.38 C 848.00 283.28 840.28 283.65 834.20 286.22 M 323.28 557.16 C 317.20 558.73 310.90 559.91 304.61 559.09 C 301.57 576.76 295.29 593.95 294.93 612.02 C 294.99 622.36 297.98 632.41 301.94 641.88 C 305.72 650.73 306.58 660.56 305.64 670.07 C 304.85 677.08 303.24 683.99 302.84 691.05 C 302.72 694.14 302.76 697.58 304.77 700.13 C 318.05 714.96 338.64 720.78 358.02 720.62 C 377.60 720.64 397.04 713.35 411.76 700.43 C 402.28 694.43 392.64 688.66 382.75 683.35 C 381.42 682.44 379.45 681.84 379.18 680.03 C 379.39 677.43 382.50 678.12 384.13 678.85 C 395.85 683.44 406.76 689.87 417.40 696.53 C 426.12 702.85 435.63 707.97 445.37 712.52 C 450.75 714.99 456.51 716.75 462.47 716.79 C 460.77 711.62 458.58 706.63 456.22 701.73 C 450.41 690.29 444.12 678.96 435.85 669.09 C 434.33 667.12 432.58 665.10 432.40 662.51 C 435.57 663.78 438.36 665.84 440.62 668.40 C 447.44 675.85 452.69 684.57 457.55 693.37 C 461.47 700.80 465.64 708.31 467.15 716.67 C 477.41 716.08 487.68 715.74 497.96 715.71 C 510.09 716.31 522.02 713.58 534.00 712.07 C 538.51 711.54 542.71 709.78 546.89 708.10 C 557.65 703.78 568.78 698.37 575.71 688.69 C 579.74 683.87 584.06 679.18 586.69 673.39 C 582.77 672.21 578.70 671.11 575.39 668.58 C 566.78 662.33 558.89 654.79 553.25 645.71 C 549.04 638.70 547.72 630.43 543.77 623.29 C 538.38 611.68 530.65 601.38 522.31 591.75 C 518.75 598.94 513.29 605.07 506.81 609.76 C 496.01 617.84 482.76 621.41 469.87 624.59 C 461.32 626.58 452.71 628.53 443.92 629.02 C 441.61 629.23 439.31 628.60 437.56 627.05 C 441.73 624.72 446.61 624.62 451.17 623.54 C 462.60 621.06 474.01 618.24 484.97 614.11 C 498.30 609.13 511.08 601.12 518.75 588.82 C 511.47 589.14 504.19 589.35 496.94 589.98 C 483.60 591.23 470.14 590.41 456.91 588.55 C 452.26 587.76 447.33 587.35 443.30 584.67 C 445.21 584.39 447.16 584.22 449.09 584.50 C 462.96 586.29 477.04 587.46 490.99 585.97 C 499.99 584.91 509.06 584.35 518.11 584.97 C 519.35 579.63 521.78 574.52 521.39 568.89 C 515.24 569.69 508.86 569.78 502.85 568.09 C 497.78 566.43 493.14 563.75 488.25 561.66 C 479.10 557.45 469.08 555.62 459.12 554.70 C 443.84 553.43 428.50 552.78 413.17 553.25 C 402.11 553.59 391.05 553.92 379.99 553.83 C 367.99 553.98 356.04 551.11 344.05 552.83 C 337.06 553.93 330.12 555.34 323.28 557.16 M 554.39 711.41 C 547.78 714.28 541.15 717.53 533.90 718.35 C 528.13 719.04 522.47 720.37 516.70 721.01 C 519.37 724.52 521.09 728.60 522.50 732.75 C 534.16 731.22 545.95 733.51 557.18 736.58 C 565.84 739.23 574.76 742.39 581.53 748.66 C 584.75 734.72 587.81 720.40 586.36 706.03 C 585.72 701.17 584.49 695.31 579.57 693.04 C 573.20 701.52 563.75 706.86 554.39 711.41 M 321.00 718.48 C 320.65 722.74 319.17 726.81 316.76 730.33 C 324.86 735.62 330.26 744.07 334.18 752.73 C 338.78 763.71 341.95 775.94 339.47 787.85 C 351.06 784.04 364.10 782.07 373.12 773.10 C 378.89 767.59 380.69 759.56 383.17 752.29 C 384.74 746.03 387.24 740.08 389.06 733.90 C 390.70 728.97 391.73 723.86 393.50 718.97 C 370.90 729.61 343.35 729.99 321.00 718.48 M 295.88 737.36 C 281.16 739.33 267.17 744.93 254.41 752.40 C 239.23 761.41 224.30 771.26 211.93 783.97 C 205.76 790.18 200.87 797.75 193.53 802.73 C 200.35 807.09 203.74 814.95 205.61 822.52 C 208.34 834.04 208.37 846.09 206.58 857.76 C 222.41 844.18 241.84 835.94 260.57 827.23 C 278.24 818.89 296.26 811.15 313.08 801.13 C 318.40 798.06 323.44 794.47 329.14 792.12 C 333.08 790.64 333.48 785.66 333.77 782.06 C 333.97 770.53 330.08 759.28 324.68 749.22 C 321.38 743.35 317.33 737.44 311.19 734.25 C 306.29 736.13 301.05 736.70 295.88 737.36 M 521.98 738.06 C 520.25 741.85 518.15 745.45 515.96 749.00 C 508.43 760.85 502.58 773.78 498.53 787.22 C 493.06 806.37 494.37 826.44 494.31 846.10 C 494.73 855.83 493.20 865.49 491.45 875.02 C 489.61 884.59 484.75 893.35 483.61 903.08 C 492.12 900.52 501.18 897.66 510.08 899.98 C 516.10 901.99 517.25 908.81 518.60 914.17 C 520.13 919.32 520.37 925.48 524.51 929.39 C 527.68 931.85 531.02 928.22 532.65 925.67 C 538.29 915.72 538.05 903.93 539.51 892.93 C 542.56 877.30 549.34 862.78 554.59 847.84 C 560.47 832.56 565.20 816.86 569.23 800.99 C 572.82 785.90 576.02 770.71 579.89 755.68 C 578.57 753.83 577.14 752.01 575.19 750.81 C 568.29 746.25 560.35 743.56 552.42 741.40 C 542.51 738.86 532.22 737.26 521.98 738.06 M 186.48 806.62 C 173.92 810.43 160.62 812.05 148.69 817.77 C 142.76 820.52 137.80 825.55 135.73 831.82 C 133.46 838.20 135.03 844.99 135.68 851.52 C 137.41 864.22 135.16 876.99 133.34 889.56 C 132.22 897.65 132.60 905.83 132.87 913.96 C 133.23 923.19 133.44 932.89 137.82 941.26 C 141.12 947.71 144.56 954.17 149.14 959.83 C 152.05 963.30 155.41 966.99 160.02 968.00 C 163.25 968.65 165.90 966.02 167.50 963.54 C 170.93 958.01 172.34 951.47 172.91 945.06 C 173.90 934.09 175.26 923.13 177.71 912.39 C 181.73 896.50 187.39 880.58 197.68 867.59 C 199.21 865.72 200.68 863.63 200.61 861.10 C 201.60 848.42 201.86 835.46 198.99 822.99 C 197.76 818.11 196.20 813.07 192.81 809.24 C 191.22 807.59 188.92 805.67 186.48 806.62 M 481.88 908.40 C 478.41 917.65 473.02 925.99 468.90 934.94 C 466.11 941.43 464.02 948.64 465.21 955.75 C 466.90 964.64 474.64 970.90 482.44 974.55 C 492.01 979.08 502.98 977.35 512.79 974.58 C 526.70 970.60 539.60 963.45 553.96 960.96 C 563.53 958.76 573.86 958.48 582.60 953.60 C 588.37 950.51 589.39 942.43 585.64 937.39 C 580.27 929.94 571.62 925.59 562.95 923.17 C 555.94 921.04 548.55 920.95 541.49 919.07 C 539.69 924.99 537.12 931.31 531.54 934.62 C 527.51 937.23 521.89 935.70 519.07 932.01 C 514.39 926.12 514.03 918.27 511.90 911.33 C 511.20 908.76 510.22 905.35 507.04 905.12 C 498.37 903.16 490.36 907.90 481.88 908.40 Z" />
        <path fill="#020202" opacity="1.00"
            d=" M 404.09 313.07 C 408.57 308.73 412.44 303.54 417.97 300.47 C 416.39 303.63 414.74 306.80 412.49 309.54 C 400.77 323.16 389.15 336.86 377.74 350.74 C 361.96 370.20 344.72 388.41 329.08 407.97 C 324.74 413.55 320.40 419.32 318.07 426.08 C 323.72 423.38 328.13 418.85 332.42 414.41 C 340.17 406.14 347.36 397.35 354.39 388.46 C 356.98 385.37 358.96 381.45 362.84 379.79 C 362.83 381.98 362.28 384.14 360.99 385.93 C 355.11 394.93 348.26 403.22 341.39 411.47 C 336.49 417.18 331.71 423.12 325.76 427.81 C 323.19 429.71 320.32 431.66 317.01 431.76 C 314.45 431.82 312.26 429.54 312.30 427.01 C 312.30 424.05 313.61 421.31 314.86 418.71 C 318.02 412.53 322.33 407.05 326.64 401.65 C 340.35 384.78 355.28 368.96 369.38 352.42 C 380.63 339.03 392.22 325.92 404.09 313.07 Z" />
        <path fill="#020202" opacity="1.00"
            d=" M 659.44 332.50 C 664.82 329.17 669.53 324.81 675.14 321.85 C 677.92 322.18 676.43 324.95 675.11 326.06 C 657.56 342.56 636.18 354.20 614.69 364.71 C 608.04 367.86 601.38 371.12 594.29 373.18 C 592.03 373.94 589.65 373.60 587.39 373.05 C 588.31 371.77 589.27 370.44 590.78 369.81 C 614.53 359.07 637.53 346.63 659.44 332.50 Z" />
        <path fill="#020202" opacity="1.00"
            d=" M 482.57 392.52 C 484.57 391.84 487.31 390.33 488.81 392.72 C 482.08 398.10 473.83 401.04 466.57 405.58 C 454.28 413.00 442.94 421.87 431.56 430.58 C 416.13 443.21 401.05 456.34 384.46 467.47 C 371.68 476.00 358.56 484.12 344.67 490.73 C 339.83 492.77 334.26 495.69 329.07 493.05 C 332.55 489.78 337.35 488.74 341.44 486.45 C 369.65 471.82 395.91 453.60 420.29 433.25 C 430.34 424.88 440.96 417.24 451.58 409.60 C 461.17 402.68 471.62 396.99 482.57 392.52 Z" />
        <path fill="#020202" opacity="1.00"
            d=" M 143.51 823.34 C 148.18 822.67 150.93 827.39 153.48 830.49 C 160.25 840.45 167.51 851.43 166.93 864.00 C 166.88 877.11 157.45 887.95 157.11 900.99 C 156.67 913.13 159.26 925.22 163.48 936.55 C 164.91 940.63 166.90 944.61 167.24 948.98 C 167.31 950.51 166.56 951.32 165.00 951.44 C 161.02 942.73 156.26 934.26 153.93 924.90 C 151.61 915.83 150.06 906.37 151.11 897.00 C 152.54 884.17 162.24 873.20 160.62 859.88 C 158.95 848.93 153.05 839.14 146.89 830.13 C 145.69 827.96 142.66 826.08 143.51 823.34 Z" />
    </g>
    <g id="#f0b58bff">
        <path fill="#f0b58b" opacity="1.00"
            d=" M 534.21 221.20 C 538.86 216.46 542.11 210.60 545.61 205.02 C 544.02 213.84 542.13 222.60 540.26 231.36 C 539.02 237.20 536.05 242.71 531.24 246.36 C 524.44 242.57 516.47 243.30 509.02 243.81 C 501.83 244.51 495.62 240.29 489.48 237.24 C 479.30 231.86 467.50 229.38 456.04 230.80 C 447.24 231.87 438.51 233.49 429.96 235.80 C 430.14 233.03 430.27 230.27 430.31 227.50 C 439.87 228.93 449.84 229.22 459.17 226.37 C 463.53 225.20 467.48 222.74 471.98 222.10 C 475.52 221.53 478.08 224.45 480.40 226.61 C 484.58 230.91 490.39 233.08 496.10 234.51 C 502.78 236.17 509.84 234.76 516.02 231.97 C 522.46 229.12 529.07 226.13 534.21 221.20 Z" />
        <path fill="#f0b58b" opacity="1.00"
            d=" M 834.20 286.22 C 840.28 283.65 848.00 283.28 853.48 287.38 C 853.99 291.11 853.07 295.27 855.37 298.57 C 858.23 303.76 864.29 305.65 868.04 309.95 C 870.62 314.51 868.59 320.16 871.01 324.85 C 864.97 329.19 858.34 332.77 853.01 338.04 C 848.28 341.98 845.28 347.70 840.03 351.04 C 833.29 354.86 825.61 356.61 817.96 357.44 C 810.82 358.31 804.57 362.00 798.27 365.17 C 788.08 369.94 778.60 376.09 768.19 380.41 C 748.57 388.95 726.93 392.33 705.61 391.77 C 711.86 374.45 720.47 358.01 730.47 342.57 C 733.89 336.84 737.63 331.07 738.84 324.39 C 743.18 325.11 747.56 325.57 751.97 325.66 C 760.64 325.83 769.32 326.61 777.99 325.84 C 786.71 325.40 796.13 324.83 803.35 319.31 C 808.25 316.01 810.62 310.44 813.71 305.64 C 818.54 297.49 824.93 289.44 834.20 286.22 Z" />
        <path fill="#f0b58b" opacity="1.00"
            d=" M 554.39 711.41 C 563.75 706.86 573.20 701.52 579.57 693.04 C 584.49 695.31 585.72 701.17 586.36 706.03 C 587.81 720.40 584.75 734.72 581.53 748.66 C 574.76 742.39 565.84 739.23 557.18 736.58 C 545.95 733.51 534.16 731.22 522.50 732.75 C 521.09 728.60 519.37 724.52 516.70 721.01 C 522.47 720.37 528.13 719.04 533.90 718.35 C 541.15 717.53 547.78 714.28 554.39 711.41 Z" />
        <path fill="#f0b58b" opacity="1.00"
            d=" M 321.00 718.48 C 343.35 729.99 370.90 729.61 393.50 718.97 C 391.73 723.86 390.70 728.97 389.06 733.90 C 387.24 740.08 384.74 746.03 383.17 752.29 C 380.69 759.56 378.89 767.59 373.12 773.10 C 364.10 782.07 351.06 784.04 339.47 787.85 C 341.95 775.94 338.78 763.71 334.18 752.73 C 330.26 744.07 324.86 735.62 316.76 730.33 C 319.17 726.81 320.65 722.74 321.00 718.48 Z" />
    </g>
    <g id="#f11b27ff">
        <path fill="var(--shirt-color, grey)" opacity="1.00"
            d=" M 420.63 243.69 C 431.91 240.50 443.46 238.31 455.08 236.83 C 465.02 235.48 475.30 237.31 484.35 241.57 C 489.88 244.10 495.11 247.41 501.03 248.99 C 509.42 251.39 518.41 247.11 526.63 250.56 C 533.44 253.78 539.11 258.98 545.99 262.09 C 552.37 264.93 559.08 267.17 566.02 268.10 C 572.01 269.07 578.31 269.33 583.76 272.27 C 589.52 275.30 594.68 279.30 600.13 282.85 C 615.76 293.40 632.69 301.79 649.40 310.47 C 651.82 311.79 654.04 313.44 656.26 315.10 C 644.74 322.18 631.16 324.25 618.01 326.05 C 615.55 326.53 611.51 326.58 611.80 330.13 C 621.58 329.72 631.42 329.10 640.98 326.84 C 654.78 324.23 666.11 314.51 680.09 312.52 C 687.14 311.80 694.19 313.31 701.00 314.99 C 708.69 316.86 715.99 320.40 723.98 320.91 C 727.44 321.16 730.90 321.72 734.14 323.01 C 729.97 332.67 723.32 340.92 717.79 349.79 C 710.75 361.54 704.51 373.82 699.79 386.70 C 696.89 394.46 696.45 402.87 693.68 410.67 C 692.32 414.65 689.90 418.13 687.64 421.64 C 671.57 424.28 655.48 420.43 639.54 418.68 C 632.00 418.17 624.45 417.67 616.93 416.89 C 605.13 415.91 593.23 416.34 581.47 417.70 C 576.25 418.23 571.32 420.27 566.09 420.71 C 558.27 421.37 550.69 423.52 542.90 424.36 C 524.92 426.28 507.50 431.41 490.19 436.41 C 482.79 438.69 475.26 440.84 468.40 444.49 C 466.81 445.17 466.27 446.79 466.48 448.40 C 486.53 442.68 506.68 437.28 527.07 432.91 C 535.00 431.26 543.07 430.52 551.04 429.13 C 538.46 435.33 530.46 447.47 518.61 454.71 C 507.81 461.86 495.54 466.25 483.30 470.24 C 479.95 471.52 475.97 472.05 473.64 475.08 C 477.65 476.51 481.74 474.74 485.65 473.78 C 498.91 469.80 512.62 466.18 524.23 458.32 C 531.26 453.80 537.24 447.91 543.48 442.42 C 547.57 438.79 552.53 436.39 557.12 433.47 C 553.12 443.53 550.14 454.08 549.33 464.91 C 548.40 475.20 549.21 485.84 545.76 495.75 C 543.56 502.60 538.92 508.23 535.44 514.43 C 531.30 521.68 528.98 529.80 527.35 537.94 C 525.92 544.98 526.11 552.24 524.36 559.23 C 522.40 560.61 520.65 562.81 518.05 562.77 C 512.53 563.00 506.76 562.74 501.69 560.31 C 494.78 557.09 487.97 553.50 480.58 551.49 C 467.06 547.77 452.97 547.10 439.05 546.30 C 418.04 545.02 397.00 546.37 375.98 546.47 C 367.40 546.36 358.87 545.07 350.28 545.53 C 360.53 541.03 370.93 536.84 381.02 531.96 C 399.01 523.14 417.20 514.51 436.38 508.54 C 440.32 507.07 444.81 506.74 448.15 503.94 C 446.93 503.10 445.75 501.87 444.13 502.15 C 439.40 502.41 434.87 503.94 430.33 505.17 C 421.22 507.95 412.06 510.62 403.23 514.21 C 390.52 519.21 378.41 525.57 365.85 530.91 C 354.44 535.66 343.22 540.85 331.98 545.98 C 325.48 549.69 318.19 551.59 310.94 553.20 C 306.76 554.25 302.54 552.98 298.42 552.27 C 293.97 551.34 289.20 550.41 285.67 547.31 C 282.76 544.77 282.38 540.62 282.23 537.01 C 282.25 514.07 289.13 491.85 290.03 468.99 C 290.48 463.64 290.85 458.28 291.40 452.94 C 292.22 445.80 297.38 440.31 299.76 433.72 C 303.06 426.26 303.26 418.01 303.75 410.01 C 304.57 398.02 308.06 386.25 313.69 375.65 C 314.45 374.17 314.94 372.58 315.36 370.98 C 313.38 370.88 311.64 371.79 310.70 373.52 C 304.36 383.23 300.34 394.44 299.09 405.97 C 298.14 414.76 298.58 423.92 295.05 432.22 C 292.71 438.64 287.95 444.12 286.97 451.03 C 285.59 461.70 285.16 472.47 283.89 483.15 C 280.29 481.86 275.20 481.31 274.14 476.88 C 272.22 468.65 273.80 460.14 274.85 451.90 C 277.36 435.60 278.82 419.15 282.00 402.96 C 283.43 392.94 285.28 382.62 291.08 374.08 C 304.08 354.36 319.22 336.18 333.19 317.15 C 344.49 302.55 354.73 286.95 368.23 274.22 C 377.13 266.22 386.56 258.45 397.70 253.80 C 405.44 250.63 412.44 245.72 420.63 243.69 M 404.09 313.07 C 392.22 325.92 380.63 339.03 369.38 352.42 C 355.28 368.96 340.35 384.78 326.64 401.65 C 322.33 407.05 318.02 412.53 314.86 418.71 C 313.61 421.31 312.30 424.05 312.30 427.01 C 312.26 429.54 314.45 431.82 317.01 431.76 C 320.32 431.66 323.19 429.71 325.76 427.81 C 331.71 423.12 336.49 417.18 341.39 411.47 C 348.26 403.22 355.11 394.93 360.99 385.93 C 362.28 384.14 362.83 381.98 362.84 379.79 C 358.96 381.45 356.98 385.37 354.39 388.46 C 347.36 397.35 340.17 406.14 332.42 414.41 C 328.13 418.85 323.72 423.38 318.07 426.08 C 320.40 419.32 324.74 413.55 329.08 407.97 C 344.72 388.41 361.96 370.20 377.74 350.74 C 389.15 336.86 400.77 323.16 412.49 309.54 C 414.74 306.80 416.39 303.63 417.97 300.47 C 412.44 303.54 408.57 308.73 404.09 313.07 M 659.44 332.50 C 637.53 346.63 614.53 359.07 590.78 369.81 C 589.27 370.44 588.31 371.77 587.39 373.05 C 589.65 373.60 592.03 373.94 594.29 373.18 C 601.38 371.12 608.04 367.86 614.69 364.71 C 636.18 354.20 657.56 342.56 675.11 326.06 C 676.43 324.95 677.92 322.18 675.14 321.85 C 669.53 324.81 664.82 329.17 659.44 332.50 M 482.57 392.52 C 471.62 396.99 461.17 402.68 451.58 409.60 C 440.96 417.24 430.34 424.88 420.29 433.25 C 395.91 453.60 369.65 471.82 341.44 486.45 C 337.35 488.74 332.55 489.78 329.07 493.05 C 334.26 495.69 339.83 492.77 344.67 490.73 C 358.56 484.12 371.68 476.00 384.46 467.47 C 401.05 456.34 416.13 443.21 431.56 430.58 C 442.94 421.87 454.28 413.00 466.57 405.58 C 473.83 401.04 482.08 398.10 488.81 392.72 C 487.31 390.33 484.57 391.84 482.57 392.52 Z" />
    </g>
    <g id="#ffffffff">
        <path fill="var(--pants-color, grey)" opacity="1.00"
            d=" M 323.28 557.16 C 330.12 555.34 337.06 553.93 344.05 552.83 C 356.04 551.11 367.99 553.98 379.99 553.83 C 391.05 553.92 402.11 553.59 413.17 553.25 C 428.50 552.78 443.84 553.43 459.12 554.70 C 469.08 555.62 479.10 557.45 488.25 561.66 C 493.14 563.75 497.78 566.43 502.85 568.09 C 508.86 569.78 515.24 569.69 521.39 568.89 C 521.78 574.52 519.35 579.63 518.11 584.97 C 509.06 584.35 499.99 584.91 490.99 585.97 C 477.04 587.46 462.96 586.29 449.09 584.50 C 447.16 584.22 445.21 584.39 443.30 584.67 C 447.33 587.35 452.26 587.76 456.91 588.55 C 470.14 590.41 483.60 591.23 496.94 589.98 C 504.19 589.35 511.47 589.14 518.75 588.82 C 511.08 601.12 498.30 609.13 484.97 614.11 C 474.01 618.24 462.60 621.06 451.17 623.54 C 446.61 624.62 441.73 624.72 437.56 627.05 C 439.31 628.60 441.61 629.23 443.92 629.02 C 452.71 628.53 461.32 626.58 469.87 624.59 C 482.76 621.41 496.01 617.84 506.81 609.76 C 513.29 605.07 518.75 598.94 522.31 591.75 C 530.65 601.38 538.38 611.68 543.77 623.29 C 547.72 630.43 549.04 638.70 553.25 645.71 C 558.89 654.79 566.78 662.33 575.39 668.58 C 578.70 671.11 582.77 672.21 586.69 673.39 C 584.06 679.18 579.74 683.87 575.71 688.69 C 568.78 698.37 557.65 703.78 546.89 708.10 C 542.71 709.78 538.51 711.54 534.00 712.07 C 522.02 713.58 510.09 716.31 497.96 715.71 C 487.68 715.74 477.41 716.08 467.15 716.67 C 465.64 708.31 461.47 700.80 457.55 693.37 C 452.69 684.57 447.44 675.85 440.62 668.40 C 438.36 665.84 435.57 663.78 432.40 662.51 C 432.58 665.10 434.33 667.12 435.85 669.09 C 444.12 678.96 450.41 690.29 456.22 701.73 C 458.58 706.63 460.77 711.62 462.47 716.79 C 456.51 716.75 450.75 714.99 445.37 712.52 C 435.63 707.97 426.12 702.85 417.40 696.53 C 406.76 689.87 395.85 683.44 384.13 678.85 C 382.50 678.12 379.39 677.43 379.18 680.03 C 379.45 681.84 381.42 682.44 382.75 683.35 C 392.64 688.66 402.28 694.43 411.76 700.43 C 397.04 713.35 377.60 720.64 358.02 720.62 C 338.64 720.78 318.05 714.96 304.77 700.13 C 302.76 697.58 302.72 694.14 302.84 691.05 C 303.24 683.99 304.85 677.08 305.64 670.07 C 306.58 660.56 305.72 650.73 301.94 641.88 C 297.98 632.41 294.99 622.36 294.93 612.02 C 295.29 593.95 301.57 576.76 304.61 559.09 C 310.90 559.91 317.20 558.73 323.28 557.16 Z" />
        <path fill="var(--socks-color, grey)" opacity="1.00"
            d=" M 295.88 737.36 C 301.05 736.70 306.29 736.13 311.19 734.25 C 317.33 737.44 321.38 743.35 324.68 749.22 C 330.08 759.28 333.97 770.53 333.77 782.06 C 333.48 785.66 333.08 790.64 329.14 792.12 C 323.44 794.47 318.40 798.06 313.08 801.13 C 296.26 811.15 278.24 818.89 260.57 827.23 C 241.84 835.94 222.41 844.18 206.58 857.76 C 208.37 846.09 208.34 834.04 205.61 822.52 C 203.74 814.95 200.35 807.09 193.53 802.73 C 200.87 797.75 205.76 790.18 211.93 783.97 C 224.30 771.26 239.23 761.41 254.41 752.40 C 267.17 744.93 281.16 739.33 295.88 737.36 Z" />
        <path fill="var(--socks-color, grey)" opacity="1.00"
            d=" M 521.98 738.06 C 532.22 737.26 542.51 738.86 552.42 741.40 C 560.35 743.56 568.29 746.25 575.19 750.81 C 577.14 752.01 578.57 753.83 579.89 755.68 C 576.02 770.71 572.82 785.90 569.23 800.99 C 565.20 816.86 560.47 832.56 554.59 847.84 C 549.34 862.78 542.56 877.30 539.51 892.93 C 538.05 903.93 538.29 915.72 532.65 925.67 C 531.02 928.22 527.68 931.85 524.51 929.39 C 520.37 925.48 520.13 919.32 518.60 914.17 C 517.25 908.81 516.10 901.99 510.08 899.98 C 501.18 897.66 492.12 900.52 483.61 903.08 C 484.75 893.35 489.61 884.59 491.45 875.02 C 493.20 865.49 494.73 855.83 494.31 846.10 C 494.37 826.44 493.06 806.37 498.53 787.22 C 502.58 773.78 508.43 760.85 515.96 749.00 C 518.15 745.45 520.25 741.85 521.98 738.06 Z" />
    </g>
    <g id="#4d4d4dff">
        <path fill="#4d4d4d" opacity="1.00"
            d=" M 186.48 806.62 C 188.92 805.67 191.22 807.59 192.81 809.24 C 196.20 813.07 197.76 818.11 198.99 822.99 C 201.86 835.46 201.60 848.42 200.61 861.10 C 200.68 863.63 199.21 865.72 197.68 867.59 C 187.39 880.58 181.73 896.50 177.71 912.39 C 175.26 923.13 173.90 934.09 172.91 945.06 C 172.34 951.47 170.93 958.01 167.50 963.54 C 165.90 966.02 163.25 968.65 160.02 968.00 C 155.41 966.99 152.05 963.30 149.14 959.83 C 144.56 954.17 141.12 947.71 137.82 941.26 C 133.44 932.89 133.23 923.19 132.87 913.96 C 132.60 905.83 132.22 897.65 133.34 889.56 C 135.16 876.99 137.41 864.22 135.68 851.52 C 135.03 844.99 133.46 838.20 135.73 831.82 C 137.80 825.55 142.76 820.52 148.69 817.77 C 160.62 812.05 173.92 810.43 186.48 806.62 M 143.51 823.34 C 142.66 826.08 145.69 827.96 146.89 830.13 C 153.05 839.14 158.95 848.93 160.62 859.88 C 162.24 873.20 152.54 884.17 151.11 897.00 C 150.06 906.37 151.61 915.83 153.93 924.90 C 156.26 934.26 161.02 942.73 165.00 951.44 C 166.56 951.32 167.31 950.51 167.24 948.98 C 166.90 944.61 164.91 940.63 163.48 936.55 C 159.26 925.22 156.67 913.13 157.11 900.99 C 157.45 887.95 166.88 877.11 166.93 864.00 C 167.51 851.43 160.25 840.45 153.48 830.49 C 150.93 827.39 148.18 822.67 143.51 823.34 Z" />
        <path fill="#4d4d4d" opacity="1.00"
            d=" M 481.88 908.40 C 490.36 907.90 498.37 903.16 507.04 905.12 C 510.22 905.35 511.20 908.76 511.90 911.33 C 514.03 918.27 514.39 926.12 519.07 932.01 C 521.89 935.70 527.51 937.23 531.54 934.62 C 537.12 931.31 539.69 924.99 541.49 919.07 C 548.55 920.95 555.94 921.04 562.95 923.17 C 571.62 925.59 580.27 929.94 585.64 937.39 C 589.39 942.43 588.37 950.51 582.60 953.60 C 573.86 958.48 563.53 958.76 553.96 960.96 C 539.60 963.45 526.70 970.60 512.79 974.58 C 502.98 977.35 492.01 979.08 482.44 974.55 C 474.64 970.90 466.90 964.64 465.21 955.75 C 464.02 948.64 466.11 941.43 468.90 934.94 C 473.02 925.99 478.41 917.65 481.88 908.40 Z" />
    </g>
</svg>