<?xml version="1.0" encoding="UTF-8" ?>
<!DOCTYPE svg PUBLIC "-//W3C//DTD SVG 1.1//EN" "http://www.w3.org/Graphics/SVG/1.1/DTD/svg11.dtd">
<svg width="1000pt" height="1000pt" viewBox="0 0 1000 1000" version="1.1" xmlns="http://www.w3.org/2000/svg">
    <g id="#020202ff">
        <path fill="#020202" opacity="1.00"
            d=" M 664.62 35.50 C 669.94 34.24 675.47 34.26 680.90 34.73 C 689.50 35.61 698.17 37.21 706.03 40.97 C 714.93 44.91 721.89 51.93 730.19 56.89 C 740.68 63.39 749.97 71.75 757.30 81.69 C 764.09 89.36 764.89 100.27 763.78 110.00 C 764.00 115.67 761.08 120.65 759.74 126.00 C 758.30 130.98 755.63 135.50 752.70 139.74 C 750.73 142.51 750.06 145.90 748.97 149.06 C 746.76 156.20 743.07 163.32 744.36 171.02 C 746.06 183.43 745.44 196.79 738.77 207.75 C 732.17 218.31 722.80 228.03 710.60 231.75 C 714.10 235.81 717.35 240.60 722.51 242.69 C 729.50 245.76 736.65 250.91 738.37 258.81 C 740.94 270.12 738.65 281.77 736.25 292.91 C 733.89 303.46 733.06 314.50 728.48 324.43 C 723.28 335.92 715.22 345.75 707.73 355.78 C 704.85 359.54 702.47 363.66 699.48 367.33 C 711.71 378.14 725.57 387.17 736.37 399.55 C 742.63 406.21 747.53 413.95 752.45 421.61 C 758.06 431.37 760.78 442.84 759.60 454.07 C 759.08 458.20 756.34 461.76 753.05 464.15 C 751.60 465.25 749.70 464.60 748.06 464.63 C 744.95 466.39 741.37 468.30 737.83 466.46 C 736.34 467.12 734.85 467.77 733.36 468.41 C 732.53 472.06 732.31 476.07 730.14 479.25 C 728.90 481.20 725.57 482.04 724.26 479.74 C 720.56 472.18 717.38 464.28 715.93 455.95 C 715.11 452.69 715.07 448.95 712.69 446.33 C 710.81 444.10 709.16 441.68 707.84 439.07 C 705.00 433.50 701.17 428.52 697.91 423.20 C 694.55 417.70 692.34 411.59 690.56 405.42 C 688.40 404.50 686.24 403.58 684.08 402.68 C 682.60 409.68 679.11 416.06 674.61 421.57 C 672.52 424.50 669.37 427.16 669.25 431.01 C 668.74 438.53 670.25 446.36 667.50 453.59 C 665.57 459.15 661.32 463.54 659.39 469.09 C 658.04 474.42 660.25 480.09 658.37 485.38 C 657.63 488.17 654.94 489.60 652.82 491.24 C 657.53 494.83 662.91 498.87 664.01 505.09 C 665.45 513.72 661.51 521.90 660.62 530.36 C 662.55 530.94 665.06 530.87 666.31 532.75 C 669.35 536.50 666.96 542.79 671.44 545.53 C 679.26 551.69 683.69 560.87 688.85 569.14 C 692.85 575.57 695.27 583.20 693.85 590.80 C 698.42 599.01 701.80 607.80 705.75 616.31 C 707.67 620.44 709.47 624.64 710.93 628.97 C 714.36 639.36 719.02 649.77 718.45 660.97 C 718.13 671.75 713.41 681.76 707.62 690.64 C 701.76 699.59 699.36 710.13 694.69 719.65 C 682.97 743.89 669.74 767.42 654.72 789.78 C 644.85 806.61 635.57 823.80 627.52 841.58 C 622.62 853.38 616.92 865.33 615.96 878.24 C 617.83 881.22 620.69 883.40 623.09 885.95 C 632.34 895.35 642.23 904.09 652.02 912.93 C 660.21 919.99 668.91 926.94 674.46 936.39 C 676.59 940.22 678.37 945.07 676.36 949.31 C 674.13 954.27 669.01 957.05 664.24 959.08 C 652.61 963.68 639.68 962.36 627.84 959.30 C 617.26 956.64 606.96 952.33 595.94 951.88 C 580.80 950.95 565.06 950.58 551.13 943.85 C 540.82 939.22 533.49 929.16 531.45 918.14 C 529.73 909.98 532.01 901.61 535.16 894.10 C 541.52 881.40 552.67 872.11 560.27 860.23 C 569.14 846.38 577.32 832.02 583.83 816.89 C 589.69 803.61 590.74 788.96 594.17 775.00 C 597.09 760.74 602.52 747.21 607.35 733.54 C 611.40 721.78 618.12 711.23 624.67 700.75 C 629.44 691.92 633.33 682.14 633.29 671.96 C 633.54 662.89 625.30 656.87 618.41 652.56 C 616.60 652.73 614.80 653.02 613.00 652.92 C 610.06 650.60 608.13 647.30 605.66 644.53 C 595.17 631.30 581.77 620.46 566.82 612.66 C 556.43 614.87 545.37 616.18 536.36 622.28 C 527.70 628.21 519.40 635.81 515.98 646.02 C 513.94 651.23 513.64 657.16 510.16 661.73 C 507.65 658.01 505.45 654.09 503.01 650.32 C 496.48 665.93 487.28 680.19 478.83 694.79 C 473.58 703.90 468.37 713.04 463.19 722.19 C 458.87 729.85 455.12 737.86 450.26 745.21 C 444.63 752.98 436.90 759.30 428.03 763.03 C 421.18 766.12 413.94 768.23 406.97 771.03 C 391.11 777.21 375.88 784.85 360.91 792.91 C 346.11 801.01 331.71 809.92 318.54 820.51 C 311.21 826.56 303.31 831.88 295.84 837.76 C 293.43 839.74 290.15 841.20 289.32 844.49 C 286.84 851.59 283.79 858.49 280.10 865.05 C 274.76 874.56 268.84 883.89 265.59 894.40 C 260.83 907.80 260.80 922.85 253.20 935.21 C 248.10 943.63 239.46 949.84 229.99 952.35 C 221.35 952.48 212.80 948.37 206.99 942.01 C 200.53 935.52 195.92 927.19 194.30 918.15 C 190.84 901.71 196.05 884.95 203.23 870.25 C 208.20 859.52 214.89 849.45 217.73 837.85 C 219.74 829.96 219.69 821.75 221.36 813.81 C 222.65 806.61 225.05 799.68 227.56 792.84 C 230.96 783.06 239.26 775.26 249.02 771.99 C 259.04 768.97 270.64 771.07 278.40 778.28 C 285.43 772.04 292.51 765.79 298.36 758.38 C 309.00 745.14 320.21 731.99 334.35 722.33 C 348.23 712.70 364.52 707.40 380.82 703.58 C 385.82 702.28 391.00 701.64 395.84 699.79 C 399.70 698.38 400.40 693.78 401.12 690.27 C 403.10 676.16 403.65 661.78 407.26 647.94 C 405.06 648.99 402.86 650.02 400.63 650.99 C 399.40 644.94 400.90 638.84 401.98 632.89 C 405.09 616.77 411.84 601.72 417.65 586.47 C 420.27 580.21 418.64 573.35 419.54 566.82 C 420.60 558.06 422.19 549.33 424.56 540.83 C 426.61 533.34 430.54 526.47 435.56 520.58 C 438.11 517.42 441.45 514.32 441.62 509.98 C 442.09 502.91 442.89 495.64 446.45 489.35 C 451.83 479.77 459.64 471.81 467.64 464.39 C 463.65 459.78 460.36 454.48 458.52 448.65 C 456.59 442.33 457.94 435.51 460.70 429.66 C 464.73 421.26 469.63 412.92 477.19 407.20 C 484.27 401.99 489.85 395.14 495.72 388.67 C 500.07 383.85 498.95 376.80 501.06 371.04 C 505.07 361.95 506.26 351.80 511.13 343.04 C 512.66 340.40 515.17 338.58 517.46 336.64 C 515.14 331.35 512.88 326.02 510.15 320.92 C 507.25 315.14 505.15 308.09 507.91 301.85 C 511.63 293.80 518.58 287.96 525.00 282.10 C 532.57 275.19 541.33 269.78 548.97 262.95 C 553.75 258.74 559.18 255.30 563.66 250.73 C 567.29 246.99 571.66 244.01 574.98 239.97 C 583.43 228.87 593.73 219.33 604.26 210.25 C 609.53 205.73 615.15 201.66 621.06 198.03 C 622.91 196.96 624.87 195.81 627.07 195.78 C 628.92 196.13 630.55 197.13 632.22 197.95 C 632.37 196.89 632.53 195.83 632.70 194.77 C 628.60 190.15 627.80 183.94 627.04 178.07 C 619.42 171.26 612.00 162.53 611.57 151.82 C 611.51 149.84 610.72 148.02 609.60 146.43 C 605.96 140.97 603.00 135.01 601.18 128.70 C 600.21 125.40 601.15 122.00 601.66 118.71 C 600.52 116.66 599.32 114.50 599.35 112.08 C 599.21 105.60 601.25 99.36 603.16 93.25 C 607.12 80.45 615.94 69.35 627.16 62.10 C 631.31 59.36 636.35 57.45 639.10 53.05 C 641.14 49.88 643.52 46.85 646.69 44.73 C 652.22 40.92 658.00 37.11 664.62 35.50 M 744.12 126.22 C 743.35 134.54 739.54 142.75 733.07 148.16 C 731.30 149.71 729.20 151.15 728.54 153.55 C 726.70 158.96 723.08 163.45 720.30 168.37 C 718.45 171.43 716.94 174.84 714.14 177.17 C 713.21 178.00 711.85 177.58 710.74 177.77 C 712.91 169.83 713.05 161.46 712.62 153.29 C 712.30 153.16 711.65 152.91 711.32 152.78 C 708.76 156.29 707.66 160.63 707.05 164.87 C 706.04 171.54 708.33 178.06 709.92 184.44 C 704.05 179.80 702.65 171.76 703.35 164.70 C 699.53 169.03 696.44 176.03 689.94 176.37 C 689.18 174.53 688.76 172.58 688.22 170.68 C 686.48 178.49 683.39 186.07 678.55 192.47 C 672.76 199.59 665.09 204.80 657.38 209.61 C 671.39 210.83 685.86 211.96 698.68 218.27 C 702.78 220.16 705.43 223.92 707.91 227.53 C 709.28 227.08 710.74 226.74 712.04 226.04 C 723.06 219.25 732.67 209.32 736.89 196.87 C 739.79 188.21 739.31 178.96 738.55 170.00 C 737.88 162.77 741.15 156.10 743.48 149.47 C 747.07 139.85 750.23 130.03 751.80 119.86 C 750.22 118.89 748.61 117.96 746.99 117.08 C 744.54 119.52 744.49 123.00 744.12 126.22 M 590.03 231.05 C 581.45 239.64 574.89 249.93 567.77 259.70 C 552.15 281.02 537.85 303.60 528.41 328.39 C 526.75 332.48 525.08 336.75 521.92 339.95 C 519.97 341.97 517.49 343.48 515.90 345.83 C 511.25 354.05 510.06 363.64 506.01 372.10 C 504.23 376.72 504.22 381.79 502.67 386.47 C 501.49 389.99 498.75 392.63 496.33 395.33 C 491.77 400.13 487.49 405.26 482.12 409.20 C 477.19 412.87 472.80 417.33 469.71 422.68 C 466.25 428.62 462.45 434.91 462.49 442.02 C 462.63 448.76 467.34 454.06 469.85 460.02 C 480.95 450.87 496.07 447.76 510.14 449.42 C 519.70 450.36 528.66 454.01 537.78 456.79 C 526.87 447.17 516.05 436.83 502.69 430.70 C 505.36 428.19 508.75 430.15 511.45 431.46 C 519.55 435.67 526.88 441.23 533.64 447.34 C 544.68 457.48 556.50 466.79 569.23 474.72 C 579.36 481.00 589.72 487.51 601.43 490.34 C 611.63 492.63 622.19 491.35 632.31 489.30 C 638.68 487.74 645.99 490.70 651.68 486.53 C 654.50 480.14 651.07 472.92 653.51 466.44 C 656.01 459.46 661.87 453.74 662.09 445.98 C 663.03 437.85 660.49 428.20 666.61 421.57 C 671.92 415.49 677.11 409.12 679.91 401.44 C 660.10 394.86 641.65 384.54 625.10 371.87 C 611.20 361.32 597.88 349.84 586.69 336.39 C 583.97 333.03 581.27 329.57 579.43 325.63 C 576.89 320.00 576.77 313.28 580.04 307.91 C 576.65 304.68 572.95 300.99 572.60 296.03 C 572.45 291.81 574.04 287.72 576.08 284.09 C 580.49 276.92 587.96 272.47 594.64 267.66 C 611.14 257.76 629.04 250.52 646.43 242.38 C 650.83 240.36 654.63 237.34 658.68 234.74 C 657.85 240.10 652.72 242.87 648.59 245.53 C 637.67 251.44 626.42 256.74 615.35 262.35 C 605.21 267.23 595.22 272.56 586.65 279.93 C 589.43 280.17 592.27 280.31 595.01 281.02 C 605.81 283.94 616.22 288.88 624.59 296.41 C 626.24 298.05 628.35 299.04 630.56 299.72 C 641.20 303.09 650.10 310.29 657.84 318.12 C 665.19 325.89 671.96 334.26 677.66 343.32 C 682.62 351.17 689.07 357.95 695.91 364.18 C 699.49 356.13 705.39 349.50 710.31 342.28 C 715.08 335.23 719.83 328.09 723.27 320.28 C 726.81 312.33 727.48 303.56 729.47 295.18 C 731.74 284.03 735.01 272.52 732.58 261.11 C 731.36 254.89 725.39 251.57 720.44 248.54 C 713.23 244.67 707.79 238.32 703.31 231.62 C 701.31 228.72 699.38 225.50 696.12 223.87 C 684.66 218.10 671.67 217.02 659.12 215.63 C 650.86 215.04 642.22 215.09 634.56 211.52 C 629.47 209.38 631.98 202.23 627.33 199.55 C 613.25 207.91 601.47 219.46 590.03 231.05 M 635.16 203.60 C 635.94 204.84 636.31 206.70 638.04 206.98 C 642.62 208.49 647.47 208.93 652.25 209.37 C 653.15 206.60 654.27 203.90 655.64 201.33 C 649.31 204.88 641.88 201.55 635.16 203.60 M 544.02 273.89 C 534.74 280.86 525.49 288.02 517.58 296.57 C 514.38 300.32 510.77 304.70 511.46 309.98 C 512.40 318.28 517.90 325.06 520.26 332.95 C 523.59 325.59 526.08 317.88 529.63 310.62 C 537.98 293.33 547.85 276.79 559.30 261.37 C 554.12 265.45 549.32 269.97 544.02 273.89 M 577.95 296.05 C 578.67 299.36 581.18 301.83 583.03 304.56 C 588.99 298.45 596.16 293.77 603.16 288.97 C 596.45 286.14 589.32 283.50 581.90 284.62 C 579.95 288.13 577.65 291.86 577.95 296.05 M 607.24 290.81 C 600.05 297.46 591.70 302.98 585.68 310.81 C 583.03 314.78 580.98 320.61 584.18 324.85 C 588.11 330.74 593.02 335.89 597.96 340.93 C 609.10 352.28 621.48 362.34 634.33 371.69 C 648.01 381.40 662.85 389.59 678.66 395.30 C 682.31 396.65 686.08 397.78 689.49 399.71 C 689.86 398.02 690.21 396.31 690.92 394.73 C 693.38 394.65 693.74 397.13 694.08 399.01 C 695.49 408.17 698.96 417.05 704.36 424.61 C 707.41 429.02 710.31 433.55 712.62 438.41 C 714.23 442.16 718.20 444.65 718.59 448.95 C 720.04 458.12 721.30 467.67 726.50 475.62 C 727.80 470.16 729.70 464.74 729.87 459.09 C 729.43 453.82 728.54 448.57 728.89 443.27 C 730.10 443.91 731.78 444.28 731.99 445.92 C 734.01 451.53 734.30 457.55 734.86 463.43 C 735.82 462.86 736.78 462.30 737.75 461.74 C 739.20 455.86 738.16 449.65 739.86 443.85 C 740.36 444.43 741.36 445.58 741.86 446.15 C 743.06 451.47 742.48 456.98 742.31 462.38 C 743.55 461.26 744.86 460.18 745.89 458.85 C 749.14 453.09 744.96 445.47 749.04 440.08 C 751.18 445.96 751.14 452.31 751.56 458.48 C 752.93 456.57 754.73 454.68 754.68 452.16 C 754.96 443.84 754.87 434.91 750.45 427.54 C 743.58 415.59 735.36 404.11 724.47 395.50 C 708.60 382.50 691.79 370.30 678.59 354.43 C 673.52 348.32 670.22 340.97 664.99 334.99 C 656.71 325.03 647.98 315.00 636.67 308.40 C 628.89 303.85 619.95 301.95 611.09 301.00 C 610.29 297.56 614.86 297.70 617.01 297.01 C 613.89 294.74 610.65 292.63 607.24 290.81 M 492.62 455.44 C 498.52 459.71 501.78 466.44 505.15 472.69 C 509.59 481.03 512.59 490.03 515.08 499.12 C 516.05 502.84 517.06 506.64 516.72 510.53 C 513.97 509.19 513.87 505.84 512.88 503.32 C 509.09 490.10 503.11 477.63 496.25 465.75 C 494.08 462.23 491.63 458.51 487.69 456.82 C 484.16 457.50 480.67 458.73 477.56 460.53 C 472.53 467.10 465.99 472.27 460.65 478.56 C 455.19 484.75 449.73 491.48 447.95 499.75 C 446.42 505.64 448.17 512.31 444.78 517.69 C 442.31 521.50 438.96 524.66 436.47 528.46 C 431.24 535.59 429.08 544.36 427.28 552.87 C 425.82 560.50 424.29 568.18 424.42 575.99 C 424.63 583.79 420.72 590.76 418.08 597.86 C 411.67 613.51 405.98 629.56 403.45 646.35 C 419.31 636.74 436.10 626.82 455.05 625.47 C 469.17 624.55 483.32 629.12 495.18 636.61 C 502.01 640.76 506.54 647.63 509.84 654.73 C 510.57 650.69 511.52 646.68 512.89 642.80 C 516.62 632.53 524.92 624.75 533.82 618.82 C 541.55 613.45 550.90 611.22 560.03 609.62 C 542.94 603.43 530.18 589.69 519.64 575.41 C 517.29 572.04 514.23 568.99 512.89 565.04 C 512.48 563.43 513.15 562.73 514.87 562.94 C 518.37 565.82 520.84 569.70 523.81 573.09 C 533.75 585.15 544.30 597.80 559.12 603.96 C 581.75 613.08 601.17 629.57 614.57 649.90 C 620.82 647.81 627.18 646.14 633.54 644.43 C 640.92 642.41 647.36 637.99 652.73 632.65 C 660.46 624.98 667.52 616.62 673.76 607.70 C 678.09 601.48 684.70 597.28 689.09 591.14 C 691.01 584.52 688.54 577.60 685.03 571.98 C 680.66 565.11 676.65 557.90 671.09 551.89 C 669.08 549.61 665.96 548.35 664.57 545.56 C 663.57 542.25 663.64 538.72 662.94 535.34 C 661.09 537.10 657.75 540.48 655.87 536.90 C 654.04 527.07 658.95 517.70 659.27 507.99 C 659.69 501.22 653.64 496.85 648.98 493.03 C 646.03 493.72 643.01 494.02 639.99 493.90 C 634.93 493.74 630.06 495.35 625.08 495.93 C 614.39 497.50 603.24 496.87 593.11 492.93 C 578.73 487.31 565.86 478.56 553.20 469.88 C 547.79 467.24 542.44 464.45 537.09 461.69 C 522.85 456.94 507.70 453.27 492.62 455.44 M 678.03 610.06 C 669.88 621.07 661.05 631.75 650.52 640.57 C 643.67 646.44 634.84 649.07 626.15 650.77 C 631.28 654.85 636.81 659.44 638.35 666.14 C 640.43 676.98 636.54 687.70 632.53 697.61 C 642.77 697.23 652.92 699.70 662.30 703.69 C 672.12 708.03 682.40 714.00 686.88 724.28 C 692.95 712.81 695.82 699.88 702.95 688.95 C 707.25 682.18 712.11 675.27 712.96 667.05 C 714.52 657.22 712.15 647.31 708.61 638.17 C 703.98 623.41 696.85 609.64 691.34 595.22 C 687.09 600.33 682.09 604.78 678.03 610.06 M 411.39 645.83 C 410.23 659.62 408.00 673.29 406.84 687.08 C 405.91 693.20 405.31 700.86 399.40 704.37 C 393.86 707.24 387.58 708.17 381.63 709.88 C 398.34 722.74 405.94 745.07 404.24 765.66 C 414.13 761.89 424.59 759.29 433.58 753.48 C 439.90 749.26 445.21 743.52 448.80 736.81 C 457.75 720.53 466.89 704.34 476.48 688.42 C 484.67 674.58 493.42 661.02 500.20 646.40 C 494.22 640.08 486.14 636.30 477.92 633.84 C 469.28 630.96 460.04 629.54 450.98 630.93 C 436.79 632.70 424.04 639.63 411.39 645.83 M 613.21 735.38 C 609.12 747.23 604.51 758.93 601.45 771.10 C 597.76 784.65 596.36 798.77 591.87 812.10 C 583.37 833.95 570.64 853.86 556.90 872.74 C 565.14 873.22 572.76 877.95 576.99 885.01 C 580.85 889.98 581.85 897.11 587.28 900.80 C 591.21 903.08 595.09 899.29 597.72 896.69 C 602.73 890.70 605.77 883.32 610.72 877.27 C 611.18 870.30 612.91 863.49 615.15 856.90 C 620.75 839.49 629.53 823.36 638.34 807.41 C 643.97 797.73 648.92 787.62 655.60 778.58 C 665.07 765.83 671.85 751.41 679.77 737.70 C 681.49 734.40 684.34 730.96 683.17 726.99 C 681.30 722.49 677.39 719.25 673.73 716.22 C 661.47 706.96 646.29 701.48 630.92 701.00 C 624.70 712.28 617.47 723.14 613.21 735.38 M 338.84 726.92 C 324.34 736.44 313.02 749.81 301.80 762.82 C 295.69 769.99 288.36 775.96 280.65 781.33 C 286.20 789.90 289.74 799.62 292.31 809.46 C 294.47 817.68 294.00 826.33 292.25 834.58 C 297.55 829.67 303.32 825.31 309.01 820.87 C 319.69 812.09 330.69 803.63 342.62 796.61 C 360.47 785.86 378.99 776.14 398.17 767.98 C 399.11 759.78 398.47 751.41 396.24 743.46 C 392.73 731.26 386.92 718.86 376.26 711.35 C 363.19 714.86 350.16 719.33 338.84 726.92 M 255.44 775.56 C 245.55 776.92 237.38 784.29 233.11 793.06 C 227.69 804.29 225.62 816.80 224.60 829.13 C 223.82 838.18 221.08 846.96 217.03 855.06 C 210.24 868.94 202.30 882.64 199.59 898.06 C 197.20 910.76 199.57 924.81 207.89 934.97 C 212.83 941.42 219.64 947.07 227.93 948.20 C 232.48 948.39 236.30 945.34 239.85 942.89 C 247.96 936.88 252.51 927.30 254.52 917.62 C 256.74 907.45 258.41 897.08 262.26 887.35 C 266.54 875.65 274.12 865.59 279.45 854.40 C 284.00 844.79 287.91 834.64 288.86 823.97 C 289.78 813.71 286.32 803.76 282.66 794.34 C 280.52 789.43 278.56 784.16 274.69 780.31 C 269.49 775.79 262.09 774.67 255.44 775.56 M 549.17 883.15 C 544.08 890.31 538.70 897.67 536.66 906.38 C 535.47 912.48 536.27 918.89 538.22 924.77 C 540.95 932.30 548.33 936.71 555.31 939.74 C 568.15 945.29 582.33 945.57 596.06 946.41 C 606.02 946.89 615.69 949.59 625.14 952.59 C 635.90 955.92 647.49 958.26 658.67 955.70 C 663.77 954.51 669.03 952.63 672.74 948.78 C 674.77 946.48 673.27 943.24 671.97 940.99 C 664.86 928.44 652.43 920.50 642.13 910.87 C 632.13 901.90 622.33 892.70 613.04 882.99 C 608.22 890.91 604.90 900.44 596.61 905.53 C 592.79 908.47 587.21 908.55 583.41 905.54 C 576.82 900.88 575.62 892.26 570.92 886.13 C 567.16 880.89 560.75 876.53 554.06 877.69 C 551.90 878.93 550.66 881.23 549.17 883.15 Z" />
        <path fill="#020202" opacity="1.00"
            d=" M 646.03 501.80 C 648.07 499.98 648.24 503.88 647.85 505.09 C 647.02 514.83 638.68 521.82 629.89 524.67 C 617.32 528.75 603.93 528.79 590.87 529.75 C 583.88 530.16 576.90 530.91 569.90 530.99 C 568.64 530.99 567.93 530.32 567.77 528.97 C 569.94 526.93 573.06 526.84 575.84 526.36 C 589.52 524.66 603.26 523.49 616.98 522.05 C 625.19 521.05 633.90 518.97 640.00 513.01 C 643.20 509.99 643.95 505.49 646.03 501.80 Z" />
        <path fill="#020202" opacity="1.00"
            d=" M 441.87 533.70 C 443.38 532.72 445.21 532.25 446.87 533.19 C 451.94 535.19 456.59 538.08 461.32 540.76 C 481.07 551.92 499.94 564.97 516.08 581.00 C 516.92 581.67 518.20 584.35 516.07 584.16 C 513.45 583.75 511.25 582.11 508.89 581.01 C 500.33 576.40 491.17 573.11 482.14 569.57 C 470.43 565.18 458.73 560.66 446.58 557.63 C 442.91 556.48 438.82 556.29 435.71 553.81 C 438.36 552.58 441.30 552.63 444.11 553.23 C 460.48 556.45 476.80 560.50 492.16 567.11 C 477.21 557.32 462.93 546.48 447.38 537.62 C 445.40 536.52 443.55 535.20 441.87 533.70 Z" />
        <path fill="#020202" opacity="1.00"
            d=" M 628.89 561.82 C 638.53 558.17 646.89 551.99 656.07 547.47 C 654.51 551.24 650.87 553.40 647.69 555.66 C 640.65 560.32 633.28 564.66 625.24 567.37 C 608.21 572.96 589.82 571.34 572.46 568.26 C 570.53 567.73 567.37 567.49 567.42 564.80 C 567.77 564.57 568.47 564.12 568.81 563.90 C 576.75 565.69 584.92 566.09 593.03 566.43 C 605.09 566.80 617.54 566.36 628.89 561.82 Z" />
        <path fill="#020202" opacity="1.00"
            d=" M 655.77 561.71 C 658.40 560.02 660.91 557.88 664.13 557.45 C 658.58 565.40 649.66 570.26 640.85 573.78 C 639.41 574.46 635.73 575.17 636.35 572.54 C 642.84 568.96 649.60 565.84 655.77 561.71 Z" />
        <path fill="#020202" opacity="1.00"
            d=" M 257.17 782.66 C 263.20 785.10 264.80 792.26 265.36 798.06 C 266.29 810.02 259.63 820.46 255.10 831.01 C 251.21 839.85 247.12 848.79 245.67 858.42 C 244.40 867.43 245.19 876.59 246.63 885.54 C 248.85 899.49 249.39 914.17 244.86 927.74 C 242.25 925.83 243.17 922.52 243.32 919.80 C 244.51 909.20 243.97 898.45 241.98 887.98 C 239.79 876.20 238.47 863.90 241.45 852.13 C 245.01 838.60 251.86 826.27 257.67 813.63 C 261.97 803.85 262.05 792.24 257.17 782.66 Z" />
    </g>
    <g id="#f0b58bff">
        <path fill="#f0b58b" opacity="1.00"
            d=" M 744.12 126.22 C 744.49 123.00 744.54 119.52 746.99 117.08 C 748.61 117.96 750.22 118.89 751.80 119.86 C 750.23 130.03 747.07 139.85 743.48 149.47 C 741.15 156.10 737.88 162.77 738.55 170.00 C 739.31 178.96 739.79 188.21 736.89 196.87 C 732.67 209.32 723.06 219.25 712.04 226.04 C 710.74 226.74 709.28 227.08 707.91 227.53 C 705.43 223.92 702.78 220.16 698.68 218.27 C 685.86 211.96 671.39 210.83 657.38 209.61 C 665.09 204.80 672.76 199.59 678.55 192.47 C 683.39 186.07 686.48 178.49 688.22 170.68 C 688.76 172.58 689.18 174.53 689.94 176.37 C 696.44 176.03 699.53 169.03 703.35 164.70 C 702.65 171.76 704.05 179.80 709.92 184.44 C 708.33 178.06 706.04 171.54 707.05 164.87 C 707.66 160.63 708.76 156.29 711.32 152.78 C 711.65 152.91 712.30 153.16 712.62 153.29 C 713.05 161.46 712.91 169.83 710.74 177.77 C 711.85 177.58 713.21 178.00 714.14 177.17 C 716.94 174.84 718.45 171.43 720.30 168.37 C 723.08 163.45 726.70 158.96 728.54 153.55 C 729.20 151.15 731.30 149.71 733.07 148.16 C 739.54 142.75 743.35 134.54 744.12 126.22 Z" />
        <path fill="#f0b58b" opacity="1.00"
            d=" M 635.16 203.60 C 641.88 201.55 649.31 204.88 655.64 201.33 C 654.27 203.90 653.15 206.60 652.25 209.37 C 647.47 208.93 642.62 208.49 638.04 206.98 C 636.31 206.70 635.94 204.84 635.16 203.60 Z" />
        <path fill="#f0b58b" opacity="1.00"
            d=" M 607.24 290.81 C 610.65 292.63 613.89 294.74 617.01 297.01 C 614.86 297.70 610.29 297.56 611.09 301.00 C 619.95 301.95 628.89 303.85 636.67 308.40 C 647.98 315.00 656.71 325.03 664.99 334.99 C 670.22 340.97 673.52 348.32 678.59 354.43 C 691.79 370.30 708.60 382.50 724.47 395.50 C 735.36 404.11 743.58 415.59 750.45 427.54 C 754.87 434.91 754.96 443.84 754.68 452.16 C 754.73 454.68 752.93 456.57 751.56 458.48 C 751.14 452.31 751.18 445.96 749.04 440.08 C 744.96 445.47 749.14 453.09 745.89 458.85 C 744.86 460.18 743.55 461.26 742.31 462.38 C 742.48 456.98 743.06 451.47 741.86 446.15 C 741.36 445.58 740.36 444.43 739.86 443.85 C 738.16 449.65 739.20 455.86 737.75 461.74 C 736.78 462.30 735.82 462.86 734.86 463.43 C 734.30 457.55 734.01 451.53 731.99 445.92 C 731.78 444.28 730.10 443.91 728.89 443.27 C 728.54 448.57 729.43 453.82 729.87 459.09 C 729.70 464.74 727.80 470.16 726.50 475.62 C 721.30 467.67 720.04 458.12 718.59 448.95 C 718.20 444.65 714.23 442.16 712.62 438.41 C 710.31 433.55 707.41 429.02 704.36 424.61 C 698.96 417.05 695.49 408.17 694.08 399.01 C 693.74 397.13 693.38 394.65 690.92 394.73 C 690.21 396.31 689.86 398.02 689.49 399.71 C 686.08 397.78 682.31 396.65 678.66 395.30 C 662.85 389.59 648.01 381.40 634.33 371.69 C 621.48 362.34 609.10 352.28 597.96 340.93 C 593.02 335.89 588.11 330.74 584.18 324.85 C 580.98 320.61 583.03 314.78 585.68 310.81 C 591.70 302.98 600.05 297.46 607.24 290.81 Z" />
        <path fill="#f0b58b" opacity="1.00"
            d=" M 678.03 610.06 C 682.09 604.78 687.09 600.33 691.34 595.22 C 696.85 609.64 703.98 623.41 708.61 638.17 C 712.15 647.31 714.52 657.22 712.96 667.05 C 712.11 675.27 707.25 682.18 702.95 688.95 C 695.82 699.88 692.95 712.81 686.88 724.28 C 682.40 714.00 672.12 708.03 662.30 703.69 C 652.92 699.70 642.77 697.23 632.53 697.61 C 636.54 687.70 640.43 676.98 638.35 666.14 C 636.81 659.44 631.28 654.85 626.15 650.77 C 634.84 649.07 643.67 646.44 650.52 640.57 C 661.05 631.75 669.88 621.07 678.03 610.06 Z" />
        <path fill="#f0b58b" opacity="1.00"
            d=" M 411.39 645.83 C 424.04 639.63 436.79 632.70 450.98 630.93 C 460.04 629.54 469.28 630.96 477.92 633.84 C 486.14 636.30 494.22 640.08 500.20 646.40 C 493.42 661.02 484.67 674.58 476.48 688.42 C 466.89 704.34 457.75 720.53 448.80 736.81 C 445.21 743.52 439.90 749.26 433.58 753.48 C 424.59 759.29 414.13 761.89 404.24 765.66 C 405.94 745.07 398.34 722.74 381.63 709.88 C 387.58 708.17 393.86 707.24 399.40 704.37 C 405.31 700.86 405.91 693.20 406.84 687.08 C 408.00 673.29 410.23 659.62 411.39 645.83 Z" />
    </g>
    <g id="#f11b27ff">
        <path fill="var(--shirt-color, grey)" opacity="1.00"
            d=" M 590.03 231.05 C 601.47 219.46 613.25 207.91 627.33 199.55 C 631.98 202.23 629.47 209.38 634.56 211.52 C 642.22 215.09 650.86 215.04 659.12 215.63 C 671.67 217.02 684.66 218.10 696.12 223.87 C 699.38 225.50 701.31 228.72 703.31 231.62 C 707.79 238.32 713.23 244.67 720.44 248.54 C 725.39 251.57 731.36 254.89 732.58 261.11 C 735.01 272.52 731.74 284.03 729.47 295.18 C 727.48 303.56 726.81 312.33 723.27 320.28 C 719.83 328.09 715.08 335.23 710.31 342.28 C 705.39 349.50 699.49 356.13 695.91 364.18 C 689.07 357.95 682.62 351.17 677.66 343.32 C 671.96 334.26 665.19 325.89 657.84 318.12 C 650.10 310.29 641.20 303.09 630.56 299.72 C 628.35 299.04 626.24 298.05 624.59 296.41 C 616.22 288.88 605.81 283.94 595.01 281.02 C 592.27 280.31 589.43 280.17 586.65 279.93 C 595.22 272.56 605.21 267.23 615.35 262.35 C 626.42 256.74 637.67 251.44 648.59 245.53 C 652.72 242.87 657.85 240.10 658.68 234.74 C 654.63 237.34 650.83 240.36 646.43 242.38 C 629.04 250.52 611.14 257.76 594.64 267.66 C 587.96 272.47 580.49 276.92 576.08 284.09 C 574.04 287.72 572.45 291.81 572.60 296.03 C 572.95 300.99 576.65 304.68 580.04 307.91 C 576.77 313.28 576.89 320.00 579.43 325.63 C 581.27 329.57 583.97 333.03 586.69 336.39 C 597.88 349.84 611.20 361.32 625.10 371.87 C 641.65 384.54 660.10 394.86 679.91 401.44 C 677.11 409.12 671.92 415.49 666.61 421.57 C 660.49 428.20 663.03 437.85 662.09 445.98 C 661.87 453.74 656.01 459.46 653.51 466.44 C 651.07 472.92 654.50 480.14 651.68 486.53 C 645.99 490.70 638.68 487.74 632.31 489.30 C 622.19 491.35 611.63 492.63 601.43 490.34 C 589.72 487.51 579.36 481.00 569.23 474.72 C 556.50 466.79 544.68 457.48 533.64 447.34 C 526.88 441.23 519.55 435.67 511.45 431.46 C 508.75 430.15 505.36 428.19 502.69 430.70 C 516.05 436.83 526.87 447.17 537.78 456.79 C 528.66 454.01 519.70 450.36 510.14 449.42 C 496.07 447.76 480.95 450.87 469.85 460.02 C 467.34 454.06 462.63 448.76 462.49 442.02 C 462.45 434.91 466.25 428.62 469.71 422.68 C 472.80 417.33 477.19 412.87 482.12 409.20 C 487.49 405.26 491.77 400.13 496.33 395.33 C 498.75 392.63 501.49 389.99 502.67 386.47 C 504.22 381.79 504.23 376.72 506.01 372.10 C 510.06 363.64 511.25 354.05 515.90 345.83 C 517.49 343.48 519.97 341.97 521.92 339.95 C 525.08 336.75 526.75 332.48 528.41 328.39 C 537.85 303.60 552.15 281.02 567.77 259.70 C 574.89 249.93 581.45 239.64 590.03 231.05 Z" />
        <path fill="var(--shirt-color, grey)" opacity="1.00"
            d=" M 544.02 273.89 C 549.32 269.97 554.12 265.45 559.30 261.37 C 547.85 276.79 537.98 293.33 529.63 310.62 C 526.08 317.88 523.59 325.59 520.26 332.95 C 517.90 325.06 512.40 318.28 511.46 309.98 C 510.77 304.70 514.38 300.32 517.58 296.57 C 525.49 288.02 534.74 280.86 544.02 273.89 Z" />
        <path fill="var(--shirt-color, grey)" opacity="1.00"
            d=" M 577.95 296.05 C 577.65 291.86 579.95 288.13 581.90 284.62 C 589.32 283.50 596.45 286.14 603.16 288.97 C 596.16 293.77 588.99 298.45 583.03 304.56 C 581.18 301.83 578.67 299.36 577.95 296.05 Z" />
    </g>
    <g id="#ffffffff">
        <path fill="var(--pants-color, grey)" opacity="1.00"
            d=" M 492.62 455.44 C 507.70 453.27 522.85 456.94 537.09 461.69 C 542.44 464.45 547.79 467.24 553.20 469.88 C 565.86 478.56 578.73 487.31 593.11 492.93 C 603.24 496.87 614.39 497.50 625.08 495.93 C 630.06 495.35 634.93 493.74 639.99 493.90 C 643.01 494.02 646.03 493.72 648.98 493.03 C 653.64 496.85 659.69 501.22 659.27 507.99 C 658.95 517.70 654.04 527.07 655.87 536.90 C 657.75 540.48 661.09 537.10 662.94 535.34 C 663.64 538.72 663.57 542.25 664.57 545.56 C 665.96 548.35 669.08 549.61 671.09 551.89 C 676.65 557.90 680.66 565.11 685.03 571.98 C 688.54 577.60 691.01 584.52 689.09 591.14 C 684.70 597.28 678.09 601.48 673.76 607.70 C 667.52 616.62 660.46 624.98 652.73 632.65 C 647.36 637.99 640.92 642.41 633.54 644.43 C 627.18 646.14 620.82 647.81 614.57 649.90 C 601.17 629.57 581.75 613.08 559.12 603.96 C 544.30 597.80 533.75 585.15 523.81 573.09 C 520.84 569.70 518.37 565.82 514.87 562.94 C 513.15 562.73 512.48 563.43 512.89 565.04 C 514.23 568.99 517.29 572.04 519.64 575.41 C 530.18 589.69 542.94 603.43 560.03 609.62 C 550.90 611.22 541.55 613.45 533.82 618.82 C 524.92 624.75 516.62 632.53 512.89 642.80 C 511.52 646.68 510.57 650.69 509.84 654.73 C 506.54 647.63 502.01 640.76 495.18 636.61 C 483.32 629.12 469.17 624.55 455.05 625.47 C 436.10 626.82 419.31 636.74 403.45 646.35 C 405.98 629.56 411.67 613.51 418.08 597.86 C 420.72 590.76 424.63 583.79 424.42 575.99 C 424.29 568.18 425.82 560.50 427.28 552.87 C 429.08 544.36 431.24 535.59 436.47 528.46 C 438.96 524.66 442.31 521.50 444.78 517.69 C 448.17 512.31 446.42 505.64 447.95 499.75 C 449.73 491.48 455.19 484.75 460.65 478.56 C 465.99 472.27 472.53 467.10 477.56 460.53 C 480.67 458.73 484.16 457.50 487.69 456.82 C 491.63 458.51 494.08 462.23 496.25 465.75 C 503.11 477.63 509.09 490.10 512.88 503.32 C 513.87 505.84 513.97 509.19 516.72 510.53 C 517.06 506.64 516.05 502.84 515.08 499.12 C 512.59 490.03 509.59 481.03 505.15 472.69 C 501.78 466.44 498.52 459.71 492.62 455.44 M 646.03 501.80 C 643.95 505.49 643.20 509.99 640.00 513.01 C 633.90 518.97 625.19 521.05 616.98 522.05 C 603.26 523.49 589.52 524.66 575.84 526.36 C 573.06 526.84 569.94 526.93 567.77 528.97 C 567.93 530.32 568.64 530.99 569.90 530.99 C 576.90 530.91 583.88 530.16 590.87 529.75 C 603.93 528.79 617.32 528.75 629.89 524.67 C 638.68 521.82 647.02 514.83 647.85 505.09 C 648.24 503.88 648.07 499.98 646.03 501.80 M 441.87 533.70 C 443.55 535.20 445.40 536.52 447.38 537.62 C 462.93 546.48 477.21 557.32 492.16 567.11 C 476.80 560.50 460.48 556.45 444.11 553.23 C 441.30 552.63 438.36 552.58 435.71 553.81 C 438.82 556.29 442.91 556.48 446.58 557.63 C 458.73 560.66 470.43 565.18 482.14 569.57 C 491.17 573.11 500.33 576.40 508.89 581.01 C 511.25 582.11 513.45 583.75 516.07 584.16 C 518.20 584.35 516.92 581.67 516.08 581.00 C 499.94 564.97 481.07 551.92 461.32 540.76 C 456.59 538.08 451.94 535.19 446.87 533.19 C 445.21 532.25 443.38 532.72 441.87 533.70 M 628.89 561.82 C 617.54 566.36 605.09 566.80 593.03 566.43 C 584.92 566.09 576.75 565.69 568.81 563.90 C 568.47 564.12 567.77 564.57 567.42 564.80 C 567.37 567.49 570.53 567.73 572.46 568.26 C 589.82 571.34 608.21 572.96 625.24 567.37 C 633.28 564.66 640.65 560.32 647.69 555.66 C 650.87 553.40 654.51 551.24 656.07 547.47 C 646.89 551.99 638.53 558.17 628.89 561.82 M 655.77 561.71 C 649.60 565.84 642.84 568.96 636.35 572.54 C 635.73 575.17 639.41 574.46 640.85 573.78 C 649.66 570.26 658.58 565.40 664.13 557.45 C 660.91 557.88 658.40 560.02 655.77 561.71 Z" />
        <path fill="var(--socks-color, grey)" opacity="1.00"
            d=" M 613.21 735.38 C 617.47 723.14 624.70 712.28 630.92 701.00 C 646.29 701.48 661.47 706.96 673.73 716.22 C 677.39 719.25 681.30 722.49 683.17 726.99 C 684.34 730.96 681.49 734.40 679.77 737.70 C 671.85 751.41 665.07 765.83 655.60 778.58 C 648.92 787.62 643.97 797.73 638.34 807.41 C 629.53 823.36 620.75 839.49 615.15 856.90 C 612.91 863.49 611.18 870.30 610.72 877.27 C 605.77 883.32 602.73 890.70 597.72 896.69 C 595.09 899.29 591.21 903.08 587.28 900.80 C 581.85 897.11 580.85 889.98 576.99 885.01 C 572.76 877.95 565.14 873.22 556.90 872.74 C 570.64 853.86 583.37 833.95 591.87 812.10 C 596.36 798.77 597.76 784.65 601.45 771.10 C 604.51 758.93 609.12 747.23 613.21 735.38 Z" />
        <path fill="var(--socks-color, grey)" opacity="1.00"
            d=" M 338.84 726.92 C 350.16 719.33 363.19 714.86 376.26 711.35 C 386.92 718.86 392.73 731.26 396.24 743.46 C 398.47 751.41 399.11 759.78 398.17 767.98 C 378.99 776.14 360.47 785.86 342.62 796.61 C 330.69 803.63 319.69 812.09 309.01 820.87 C 303.32 825.31 297.55 829.67 292.25 834.58 C 294.00 826.33 294.47 817.68 292.31 809.46 C 289.74 799.62 286.20 789.90 280.65 781.33 C 288.36 775.96 295.69 769.99 301.80 762.82 C 313.02 749.81 324.34 736.44 338.84 726.92 Z" />
    </g>
    <g id="#4d4d4dff">
        <path fill="#4d4d4d" opacity="1.00"
            d=" M 255.44 775.56 C 262.09 774.67 269.49 775.79 274.69 780.31 C 278.56 784.16 280.52 789.43 282.66 794.34 C 286.32 803.76 289.78 813.71 288.86 823.97 C 287.91 834.64 284.00 844.79 279.45 854.40 C 274.12 865.59 266.54 875.65 262.26 887.35 C 258.41 897.08 256.74 907.45 254.52 917.62 C 252.51 927.30 247.96 936.88 239.85 942.89 C 236.30 945.34 232.48 948.39 227.93 948.20 C 219.64 947.07 212.83 941.42 207.89 934.97 C 199.57 924.81 197.20 910.76 199.59 898.06 C 202.30 882.64 210.24 868.94 217.03 855.06 C 221.08 846.96 223.82 838.18 224.60 829.13 C 225.62 816.80 227.69 804.29 233.11 793.06 C 237.38 784.29 245.55 776.92 255.44 775.56 M 257.17 782.66 C 262.05 792.24 261.97 803.85 257.67 813.63 C 251.86 826.27 245.01 838.60 241.45 852.13 C 238.47 863.90 239.79 876.20 241.98 887.98 C 243.97 898.45 244.51 909.20 243.32 919.80 C 243.17 922.52 242.25 925.83 244.86 927.74 C 249.39 914.17 248.85 899.49 246.63 885.54 C 245.19 876.59 244.40 867.43 245.67 858.42 C 247.12 848.79 251.21 839.85 255.10 831.01 C 259.63 820.46 266.29 810.02 265.36 798.06 C 264.80 792.26 263.20 785.10 257.17 782.66 Z" />
        <path fill="#4d4d4d" opacity="1.00"
            d=" M 549.17 883.15 C 550.66 881.23 551.90 878.93 554.06 877.69 C 560.75 876.53 567.16 880.89 570.92 886.13 C 575.62 892.26 576.82 900.88 583.41 905.54 C 587.21 908.55 592.79 908.47 596.61 905.53 C 604.90 900.44 608.22 890.91 613.04 882.99 C 622.33 892.70 632.13 901.90 642.13 910.87 C 652.43 920.50 664.86 928.44 671.97 940.99 C 673.27 943.24 674.77 946.48 672.74 948.78 C 669.03 952.63 663.77 954.51 658.67 955.70 C 647.49 958.26 635.90 955.92 625.14 952.59 C 615.69 949.59 606.02 946.89 596.06 946.41 C 582.33 945.57 568.15 945.29 555.31 939.74 C 548.33 936.71 540.95 932.30 538.22 924.77 C 536.27 918.89 535.47 912.48 536.66 906.38 C 538.70 897.67 544.08 890.31 549.17 883.15 Z" />
    </g>
</svg>