<?xml version="1.0" encoding="UTF-8" ?>
<!DOCTYPE svg PUBLIC "-//W3C//DTD SVG 1.1//EN" "http://www.w3.org/Graphics/SVG/1.1/DTD/svg11.dtd">
<svg width="1000pt" height="1000pt" viewBox="0 0 1000 1000" version="1.1" xmlns="http://www.w3.org/2000/svg">
    <g id="#020202ff">
        <path fill="#020202" opacity="1.00"
            d=" M 456.98 4.49 C 468.86 3.74 480.86 2.54 492.70 4.31 C 502.74 6.29 512.67 10.64 519.52 18.48 C 529.78 30.07 538.92 44.05 539.77 59.95 C 539.45 71.33 539.02 82.72 539.25 94.10 C 539.31 98.97 541.59 103.89 539.80 108.67 C 537.23 116.48 534.84 124.37 533.70 132.53 C 533.26 132.72 532.38 133.10 531.94 133.29 C 529.89 131.51 529.35 128.73 528.33 126.35 C 528.37 130.27 528.01 134.29 529.18 138.10 C 530.17 141.94 532.63 145.12 534.81 148.35 C 540.78 149.94 546.76 152.00 553.01 151.90 C 561.69 151.91 569.87 148.71 578.31 147.14 C 598.26 143.17 618.68 140.71 639.03 142.28 C 654.11 143.37 669.10 145.44 684.06 147.49 C 689.23 147.65 694.25 145.89 698.94 143.86 C 702.80 142.17 706.52 139.32 710.97 139.76 C 719.62 140.99 728.67 140.26 736.80 136.91 C 742.69 134.30 747.88 130.39 753.76 127.74 C 768.47 120.93 784.26 116.50 800.32 114.28 C 818.77 111.66 837.44 111.57 856.04 111.09 C 881.37 110.52 905.42 101.71 929.96 96.48 C 941.64 93.73 954.18 94.26 965.43 98.52 C 970.87 100.60 976.16 104.97 976.92 111.06 C 977.55 116.92 975.60 122.75 972.88 127.86 C 971.46 130.24 969.30 132.97 966.23 132.79 C 964.69 132.34 963.53 131.19 962.27 130.28 C 959.16 133.32 955.53 135.74 951.87 138.05 C 956.24 138.07 960.64 137.06 965.00 137.76 C 968.98 138.37 970.64 144.01 967.69 146.72 C 962.71 151.55 955.29 151.14 949.07 153.08 C 941.97 154.92 935.39 159.01 927.94 159.20 C 918.19 158.21 911.16 150.20 901.91 147.79 C 895.99 147.01 889.97 147.92 884.14 148.95 C 871.79 151.05 860.88 157.49 849.58 162.52 C 837.12 167.75 824.90 173.59 812.25 178.33 C 785.39 188.54 756.47 190.42 728.30 194.56 C 726.72 205.37 725.44 216.33 721.74 226.68 C 720.09 231.28 718.48 236.31 714.62 239.57 C 706.17 244.84 697.91 250.44 689.14 255.18 C 675.24 262.77 662.41 272.12 649.99 281.92 C 643.64 286.91 637.94 292.70 632.82 298.95 C 627.72 304.98 627.32 313.68 629.21 321.05 C 630.80 327.01 632.40 332.97 633.61 339.03 C 635.53 348.68 639.31 358.01 639.61 367.94 C 640.09 378.06 637.12 387.93 637.09 398.04 C 636.36 409.30 638.22 420.66 636.41 431.87 C 635.27 436.78 630.82 439.73 626.52 441.68 C 630.63 458.28 634.35 475.01 636.82 491.93 C 638.48 508.89 641.49 525.87 640.05 542.97 C 639.05 554.24 638.32 565.99 633.17 576.28 C 628.38 585.97 619.89 592.90 612.12 600.09 C 604.63 607.02 597.72 614.61 591.91 623.01 C 588.02 628.54 584.40 634.35 579.41 638.99 C 580.09 645.14 581.51 651.60 579.58 657.67 C 576.89 663.37 570.74 665.97 565.24 668.22 C 557.44 671.30 550.22 675.57 542.88 679.56 C 544.23 685.98 545.68 692.38 546.49 698.90 C 548.12 711.44 551.59 723.63 553.80 736.06 C 559.25 736.55 564.65 737.58 569.81 739.41 C 581.31 743.46 593.84 746.46 606.01 743.92 C 609.91 742.13 614.63 740.64 616.59 736.46 C 620.68 729.00 627.83 723.87 635.32 720.21 C 643.87 716.50 653.87 717.09 662.42 720.51 C 670.21 723.71 677.45 729.84 679.48 738.33 C 682.76 749.27 677.28 760.65 680.51 771.58 C 683.61 784.33 690.17 795.84 697.14 806.83 C 706.83 822.41 711.82 840.68 712.51 858.96 C 712.95 871.42 711.16 884.25 705.37 895.43 C 702.79 900.18 699.19 905.16 693.57 906.35 C 686.36 908.18 679.08 904.88 673.59 900.37 C 664.10 892.78 658.50 881.75 652.22 871.62 C 647.29 864.10 642.85 856.27 638.51 848.40 C 633.91 839.42 626.44 832.35 621.43 823.62 C 619.41 820.07 617.09 816.71 614.82 813.33 C 610.31 814.85 605.62 815.70 600.97 816.66 C 580.82 821.31 560.59 825.81 540.10 828.66 C 532.53 828.59 525.51 831.60 518.09 832.48 C 516.73 841.13 513.93 849.47 511.90 857.98 C 505.65 881.09 499.89 904.35 492.61 927.16 C 492.02 929.23 493.10 931.25 493.64 933.22 C 498.52 947.39 498.77 963.60 492.36 977.34 C 490.28 982.51 486.93 987.92 481.20 989.48 C 474.27 992.24 466.79 989.43 460.41 986.52 C 452.04 982.73 446.05 975.55 438.88 970.07 C 434.33 966.23 427.98 967.93 422.66 966.24 C 412.88 963.31 404.88 954.33 403.88 944.04 C 403.06 936.72 404.83 928.59 410.43 923.46 C 413.98 920.39 418.32 918.40 422.60 916.57 C 430.13 913.47 438.41 914.54 446.33 913.85 C 445.70 901.90 447.10 889.98 447.46 878.04 C 447.92 859.33 449.77 840.70 450.89 822.03 C 452.69 788.89 457.93 756.07 460.51 723.00 C 459.31 715.32 455.78 708.07 455.54 700.20 C 453.74 700.37 451.85 701.12 450.08 700.44 C 447.54 696.47 447.13 691.61 446.21 687.09 C 443.88 674.31 443.80 661.27 444.39 648.33 C 444.54 641.08 444.93 633.79 444.23 626.56 C 441.98 608.03 433.74 590.81 431.91 572.20 C 430.70 563.63 432.05 554.78 429.54 546.39 C 427.69 539.96 424.92 533.78 424.08 527.09 C 422.32 514.73 422.20 501.58 427.41 489.97 C 423.87 487.25 420.17 483.81 419.96 479.03 C 419.75 473.45 422.23 468.29 423.79 463.05 C 425.30 458.31 426.02 453.37 426.65 448.45 C 418.67 444.06 409.47 438.89 406.65 429.59 C 404.05 418.55 413.37 410.02 415.48 399.84 C 416.68 394.99 414.24 390.29 411.50 386.45 C 404.29 376.68 394.68 368.80 388.40 358.31 C 377.79 359.11 367.69 362.81 358.01 367.03 C 351.70 369.79 345.66 373.15 340.01 377.08 C 338.14 378.21 336.30 379.80 333.99 379.73 C 328.65 379.80 323.46 378.25 318.46 376.57 C 308.92 373.14 300.00 368.00 292.21 361.52 C 281.73 370.94 270.23 379.47 257.33 385.31 C 249.87 388.62 242.70 392.65 234.91 395.16 C 220.76 399.86 206.28 403.43 191.82 407.01 C 175.84 411.56 159.72 416.16 144.88 423.78 C 143.01 424.87 140.62 425.76 139.94 428.03 C 138.32 432.26 137.62 437.05 134.42 440.49 C 128.91 446.60 120.81 449.06 113.61 452.52 C 107.49 455.63 100.48 458.47 96.81 464.65 C 94.42 468.73 92.35 474.23 87.05 475.11 C 83.12 476.23 79.55 472.71 79.10 469.01 C 78.56 464.94 80.89 461.30 82.75 457.91 C 76.51 462.91 69.63 467.12 62.35 470.44 C 60.03 471.35 57.16 472.62 54.79 471.17 C 52.39 469.44 53.23 466.25 53.54 463.80 C 49.88 465.48 46.06 467.45 41.92 467.31 C 38.18 466.75 38.58 462.01 39.44 459.32 C 41.53 453.74 46.69 450.17 51.19 446.64 C 45.45 448.11 39.75 449.75 33.93 450.90 C 31.20 451.32 27.41 451.73 25.80 448.90 C 24.84 446.89 26.19 444.87 27.55 443.48 C 30.88 440.05 34.96 437.44 39.27 435.41 C 37.24 434.73 34.27 435.02 33.21 432.76 C 32.16 429.52 35.31 427.24 37.66 425.73 C 47.30 419.94 57.94 416.13 68.48 412.36 C 78.22 408.89 87.80 404.94 97.68 401.86 C 110.68 397.92 123.71 393.90 136.05 388.16 C 154.52 379.48 171.86 368.66 189.58 358.58 C 203.54 350.35 217.44 342.00 230.94 333.02 C 237.46 328.65 244.47 325.10 251.33 321.31 C 254.67 319.44 258.24 318.03 261.91 316.98 C 261.01 313.35 259.61 309.71 259.84 305.92 C 261.75 302.30 265.44 300.08 268.31 297.27 C 276.81 289.52 287.48 284.66 296.00 276.95 C 302.22 271.43 305.26 262.98 312.44 258.47 C 317.10 255.18 323.36 254.68 327.34 250.37 C 333.52 244.13 338.79 237.10 344.56 230.50 C 352.19 221.71 361.19 214.07 371.25 208.21 C 385.01 200.48 401.16 200.12 416.06 195.91 C 422.65 194.80 428.11 190.73 433.68 187.33 C 429.20 185.48 424.50 184.10 420.29 181.67 C 413.21 177.43 407.67 170.60 405.32 162.65 C 402.64 153.73 400.46 144.48 395.61 136.42 C 390.74 128.51 384.98 121.00 381.82 112.17 C 380.16 106.14 374.57 102.44 372.19 96.76 C 368.93 91.01 369.43 84.13 370.90 77.93 C 374.54 62.32 377.85 46.40 385.00 31.92 C 389.77 22.04 398.73 13.81 409.60 11.38 C 417.05 9.64 424.43 7.48 432.03 6.47 C 440.33 5.67 448.64 4.84 456.98 4.49 M 932.29 101.08 C 916.04 104.67 900.20 109.92 883.89 113.29 C 863.96 118.22 843.27 116.70 822.96 118.18 C 800.16 119.50 777.28 123.84 756.41 133.36 C 751.65 135.52 747.23 138.34 742.58 140.72 C 736.30 144.01 729.12 145.12 722.11 145.14 C 725.05 148.71 727.40 152.86 728.28 157.44 C 730.39 168.16 729.97 179.18 728.81 189.98 C 742.63 186.57 756.91 186.04 770.85 183.32 C 786.63 181.14 802.01 176.70 816.89 171.10 C 831.79 164.73 846.59 158.14 861.25 151.22 C 871.20 146.50 881.91 143.30 892.93 142.45 C 896.71 142.17 900.63 141.83 904.34 142.91 C 912.20 145.21 918.36 151.17 926.22 153.48 C 928.94 154.39 931.78 153.46 934.41 152.66 C 940.52 150.66 946.53 148.21 952.91 147.17 C 957.16 146.35 962.06 146.05 965.01 142.41 C 959.89 141.77 954.69 143.87 949.69 142.13 C 943.41 140.14 938.42 135.57 932.68 132.50 C 927.92 134.13 923.01 135.51 917.97 135.75 C 916.43 136.03 915.25 134.86 914.08 134.16 C 919.83 131.72 926.27 131.02 931.60 127.56 C 937.17 124.35 941.14 119.17 946.09 115.19 C 950.26 111.78 956.75 110.34 961.49 113.36 C 966.01 116.96 965.32 123.34 966.67 128.39 C 969.76 123.86 972.01 118.53 972.11 112.98 C 972.23 108.48 968.33 105.21 964.51 103.65 C 954.34 99.67 942.96 98.59 932.29 101.08 M 384.03 100.30 C 384.83 112.41 392.84 122.10 398.99 131.99 C 404.35 140.53 407.20 150.30 409.87 159.94 C 411.41 165.69 414.58 170.97 419.08 174.89 C 424.18 179.77 431.15 181.67 437.23 184.96 C 446.78 178.58 455.82 171.38 465.97 165.93 C 472.44 162.32 479.33 159.57 486.15 156.72 C 483.02 154.49 479.39 157.05 475.99 157.06 C 469.98 158.42 463.79 155.68 459.61 151.43 C 456.27 147.83 453.97 143.44 451.08 139.49 C 448.89 140.12 446.21 141.71 444.17 139.87 C 440.94 136.77 439.27 132.48 436.81 128.81 C 435.23 133.35 433.83 138.67 429.52 141.42 C 427.64 142.50 425.51 140.95 425.55 138.89 C 424.99 132.88 424.71 126.78 422.91 120.96 C 420.87 113.23 415.84 106.84 411.02 100.65 C 410.13 106.46 409.32 112.29 408.70 118.15 C 408.52 120.36 407.49 123.02 405.00 123.41 C 401.17 123.80 398.33 120.62 395.99 118.07 C 391.12 112.76 388.25 106.07 384.03 100.30 M 947.37 120.32 C 943.77 123.89 940.31 127.64 936.07 130.48 C 939.76 131.91 943.25 133.77 946.67 135.76 C 951.96 133.18 957.00 130.11 961.59 126.39 C 960.77 123.18 961.30 118.91 958.33 116.73 C 954.31 115.29 950.18 117.53 947.37 120.32 M 521.08 139.34 C 518.01 139.56 514.74 138.33 511.86 139.89 C 507.06 142.26 503.34 146.91 497.64 147.21 C 496.98 149.42 496.30 151.62 495.60 153.82 C 506.68 150.45 518.14 147.67 529.80 147.85 C 526.96 144.40 525.25 140.17 524.71 135.74 C 523.59 137.00 522.72 138.68 521.08 139.34 M 706.71 145.71 C 702.06 147.85 697.30 149.81 692.28 150.89 C 696.17 153.50 700.29 156.43 702.05 160.98 C 704.88 167.75 702.70 175.31 699.59 181.58 C 698.14 184.83 695.48 187.58 691.73 187.74 C 696.42 180.58 700.72 171.45 697.03 162.93 C 693.25 155.80 684.92 152.43 677.24 151.76 C 663.50 150.27 649.82 148.19 636.02 147.45 C 617.23 146.27 598.41 148.55 580.02 152.26 C 570.39 154.12 561.01 157.92 551.05 157.49 C 541.88 157.32 533.36 152.23 524.07 153.72 C 502.69 156.24 481.71 163.20 463.21 174.25 C 448.46 183.80 434.40 194.90 417.73 201.01 C 427.48 202.20 437.13 204.43 447.00 204.33 C 453.91 204.25 460.85 203.86 467.67 202.70 C 471.82 202.04 475.72 200.33 479.90 199.81 C 480.73 202.89 477.38 204.19 475.17 205.19 C 464.36 209.51 452.53 211.05 440.96 210.08 C 430.14 209.26 419.75 205.77 408.96 204.79 C 397.67 203.49 386.23 206.21 375.96 210.80 C 363.39 217.24 352.92 227.19 344.17 238.17 C 339.50 244.13 334.60 249.91 329.34 255.36 C 339.39 261.63 351.15 265.22 363.03 265.07 C 373.35 264.82 383.69 264.39 393.96 263.28 C 397.26 262.98 400.58 262.40 403.89 262.90 C 404.23 264.35 403.74 265.65 402.30 266.18 C 397.17 268.42 391.46 268.69 385.98 269.51 C 374.96 270.61 363.82 272.93 352.74 271.18 C 344.65 269.73 336.59 267.01 329.98 262.01 C 328.12 260.82 326.31 259.07 323.99 259.05 C 316.88 260.28 310.90 265.19 307.38 271.37 C 302.90 279.03 296.02 284.87 288.58 289.52 C 280.39 294.61 272.34 299.98 264.97 306.23 C 266.48 312.20 267.87 318.25 270.23 323.96 C 274.19 333.54 280.51 341.94 287.46 349.55 C 300.00 362.67 316.16 372.70 334.04 376.48 C 339.09 372.23 344.51 368.42 350.38 365.38 C 360.34 360.15 370.87 355.70 382.00 353.68 C 393.78 351.73 405.87 352.32 417.57 354.58 C 421.12 355.35 425.16 355.41 427.99 358.00 C 427.52 358.36 426.59 359.09 426.13 359.45 C 415.64 359.05 405.15 357.70 394.62 358.11 C 400.89 366.18 408.32 373.23 414.85 381.08 C 418.92 386.08 422.51 392.29 421.64 399.00 C 420.93 407.06 415.92 413.74 413.29 421.19 C 411.87 425.02 412.34 429.63 415.37 432.57 C 422.33 440.05 431.98 444.15 441.40 447.56 C 453.94 452.30 467.64 453.73 480.91 452.04 C 480.41 455.56 476.58 456.13 473.74 456.79 C 459.82 459.35 445.52 456.39 432.58 451.09 C 432.27 459.64 428.79 467.51 426.43 475.60 C 424.55 480.98 429.50 486.74 434.90 486.84 C 455.17 488.84 475.30 484.17 494.69 478.73 C 525.15 469.50 553.27 454.02 580.03 437.04 C 584.34 434.42 588.42 430.97 593.63 430.40 C 592.46 432.54 591.04 434.60 589.03 436.04 C 584.17 439.73 579.04 443.04 573.96 446.41 C 589.76 444.79 605.85 443.49 620.82 437.75 C 624.37 436.21 629.16 435.65 631.22 432.03 C 632.24 418.69 630.30 405.30 631.46 391.96 C 632.23 382.38 634.90 372.83 633.42 363.17 C 632.04 354.29 628.87 345.80 627.34 336.95 C 625.65 327.19 620.92 317.45 623.70 307.41 C 624.70 301.64 628.94 297.31 631.01 291.99 C 633.04 287.09 635.10 282.16 636.28 276.97 C 638.10 269.31 637.04 261.34 638.40 253.62 C 640.49 241.32 645.07 229.59 650.37 218.35 C 651.56 216.37 652.82 212.88 655.77 213.83 C 655.48 215.40 654.97 216.92 654.39 218.41 C 647.85 234.20 642.44 250.83 641.87 268.05 C 641.54 274.88 639.51 281.49 636.67 287.68 C 645.45 276.63 657.27 268.67 668.73 260.69 C 680.29 252.92 692.95 247.01 704.91 239.90 C 708.07 237.86 711.80 236.22 713.96 233.02 C 719.90 220.15 721.30 205.87 723.04 191.98 C 724.18 180.96 724.82 169.77 723.13 158.78 C 722.50 155.10 721.41 151.15 718.53 148.58 C 715.20 146.19 710.82 143.63 706.71 145.71 M 236.91 333.90 C 219.29 345.47 201.42 356.67 183.11 367.11 C 169.39 375.16 155.67 383.25 141.41 390.33 C 130.66 395.48 119.46 399.63 108.08 403.13 C 95.09 407.06 82.52 412.22 69.74 416.74 C 58.60 420.79 47.01 424.33 37.18 431.14 C 44.63 431.24 51.67 428.55 58.92 427.29 C 64.17 426.41 69.53 424.74 74.83 426.23 C 72.32 428.54 68.70 428.42 65.59 429.32 C 52.08 432.03 38.04 436.97 28.68 447.57 C 35.78 447.34 42.45 444.58 49.32 443.04 C 58.26 440.81 66.77 436.64 76.01 435.79 L 76.78 437.15 C 71.12 441.03 64.05 441.93 58.06 445.12 C 52.86 448.41 47.98 452.39 44.16 457.23 C 42.57 459.11 42.32 461.61 41.93 463.94 C 54.38 460.97 64.57 452.63 75.58 446.54 C 78.07 445.17 80.88 444.08 83.76 444.71 C 76.94 448.35 71.56 454.05 64.80 457.79 C 60.81 460.13 56.43 463.55 56.27 468.59 C 63.34 466.76 69.47 462.54 75.42 458.46 C 83.45 452.54 91.12 445.48 101.00 442.83 C 100.88 443.36 100.66 444.43 100.55 444.96 C 97.04 448.30 92.11 450.05 89.19 454.09 C 86.52 457.73 84.03 461.66 82.75 466.02 C 81.77 468.33 83.68 470.25 84.82 472.05 C 90.59 471.02 91.73 464.79 94.71 460.75 C 99.09 454.86 105.98 451.69 112.39 448.54 C 118.99 445.37 126.37 443.01 131.41 437.41 C 134.91 433.55 134.55 427.76 137.67 423.69 C 140.71 420.82 144.76 419.39 148.43 417.49 C 162.53 411.19 177.30 406.49 192.19 402.43 C 206.02 399.17 219.79 395.58 233.30 391.16 C 240.99 388.68 248.05 384.70 255.41 381.45 C 267.84 375.89 278.78 367.61 289.26 359.04 C 277.67 348.18 267.96 334.91 262.74 319.81 C 253.91 324.09 245.39 328.98 236.91 333.90 M 594.57 449.75 C 595.22 465.23 603.43 479.00 605.44 494.22 C 605.86 496.79 605.62 499.41 604.75 501.88 C 603.01 497.60 603.06 492.87 601.53 488.54 C 597.70 475.89 590.10 463.91 591.25 450.19 C 581.35 451.67 571.13 451.14 561.46 453.99 C 569.22 465.67 574.40 478.86 577.85 492.41 C 578.31 495.81 580.84 501.56 576.34 503.10 C 572.49 486.79 566.75 470.87 558.28 456.37 C 539.15 468.13 518.73 478.05 497.15 484.42 C 479.41 489.18 461.17 493.20 442.71 492.74 C 445.69 510.93 450.58 528.92 458.54 545.60 C 459.98 548.52 461.79 551.30 462.47 554.54 C 456.97 552.40 455.08 546.24 452.51 541.48 C 445.69 525.96 439.36 509.56 439.29 492.37 C 436.69 492.17 434.11 491.93 431.53 491.63 C 427.18 503.73 427.13 517.06 429.78 529.54 C 433.14 538.77 437.53 547.67 443.06 555.82 C 451.89 569.07 456.99 584.25 463.29 598.75 C 464.59 602.32 466.77 605.79 466.36 609.74 C 464.42 607.37 463.23 604.54 461.95 601.79 C 454.07 584.72 446.20 567.57 436.03 551.70 C 436.25 558.51 436.10 565.36 437.00 572.13 C 439.32 591.58 448.85 609.44 450.29 629.05 C 450.94 642.02 449.28 654.98 449.69 667.95 C 449.76 677.77 451.13 687.52 452.64 697.21 C 460.50 693.33 469.44 693.59 477.87 692.00 C 492.58 689.08 508.09 689.19 522.02 683.02 C 535.15 677.29 546.77 668.58 560.14 663.38 C 564.75 661.45 569.66 660.12 573.88 657.35 C 574.13 650.74 573.72 644.11 572.70 637.58 C 571.45 629.81 567.10 623.11 564.22 615.92 C 562.22 610.68 559.11 605.96 557.22 600.68 C 553.86 592.54 552.16 583.84 551.20 575.12 C 550.77 570.71 549.87 565.98 552.11 561.89 C 552.85 563.13 553.70 564.41 553.73 565.93 C 554.75 575.01 556.57 583.99 558.99 592.80 C 560.96 582.23 563.43 571.73 566.41 561.41 C 567.15 559.19 569.66 561.26 569.24 562.85 C 568.86 574.04 564.89 584.82 564.39 595.98 C 565.80 609.23 574.16 620.27 577.98 632.78 C 583.18 626.29 587.33 619.05 592.46 612.51 C 598.77 604.53 606.03 597.39 613.62 590.65 C 621.72 583.62 629.25 575.01 631.54 564.23 C 634.67 549.41 635.52 534.10 634.37 519.01 C 633.23 509.42 632.46 499.79 631.27 490.21 C 628.75 474.39 625.26 458.74 622.68 442.93 C 613.63 446.37 604.14 448.41 594.57 449.75 M 514.94 691.84 C 502.93 695.00 490.45 695.29 478.23 697.22 C 472.30 698.04 466.32 698.44 460.38 699.23 C 463.40 710.05 466.52 720.86 470.37 731.42 C 476.77 749.82 479.21 769.27 484.86 787.88 C 487.54 796.91 490.45 806.13 496.19 813.75 C 501.17 820.87 508.89 825.46 517.03 828.13 C 511.31 824.86 507.59 819.26 504.39 813.69 C 498.01 801.26 497.18 786.66 499.79 773.12 C 501.54 765.52 506.09 758.94 511.12 753.13 C 520.79 742.13 535.45 736.38 549.94 736.09 C 543.50 718.83 541.28 700.46 537.45 682.54 C 530.27 686.36 522.84 689.83 514.94 691.84 M 641.48 724.66 C 635.58 726.16 629.23 728.45 625.63 733.68 C 620.24 740.58 617.50 749.03 615.32 757.38 C 612.25 768.60 612.05 780.40 612.75 791.94 C 613.29 802.60 620.23 811.12 624.84 820.28 C 628.46 827.62 634.47 833.34 638.79 840.22 C 643.77 847.98 647.77 856.34 652.96 863.98 C 659.91 874.01 665.18 885.36 673.97 894.02 C 678.54 898.41 684.36 902.69 691.06 901.93 C 695.50 901.79 698.37 897.87 700.24 894.29 C 704.59 885.55 706.92 875.82 707.08 866.06 C 707.44 848.06 703.59 829.85 695.14 813.90 C 692.21 808.29 688.45 803.17 685.39 797.64 C 680.90 789.60 677.42 781.00 674.62 772.24 C 672.16 764.29 674.41 756.05 674.62 747.98 C 674.79 742.23 673.37 736.02 669.03 731.97 C 661.78 725.17 651.10 722.80 641.48 724.66 M 458.84 796.00 C 457.06 814.14 456.74 832.39 454.86 850.53 C 453.24 871.43 452.41 892.40 449.81 913.22 C 454.44 912.08 459.24 912.58 463.86 913.55 C 472.66 915.82 481.14 919.57 488.70 924.64 C 495.85 893.34 504.54 862.41 513.17 831.49 C 508.65 830.22 504.24 828.42 500.41 825.68 C 490.63 818.98 484.73 808.13 481.14 797.10 C 473.71 776.70 471.47 754.93 464.86 734.30 C 463.19 754.89 460.70 775.42 458.84 796.00 M 532.32 746.11 C 522.83 749.69 514.40 756.47 509.40 765.35 C 502.64 780.54 503.49 798.91 511.62 813.40 C 516.28 820.02 524.66 824.93 532.94 823.45 C 549.93 821.60 566.67 817.99 583.43 814.72 C 593.09 812.95 602.64 810.29 612.48 809.72 C 608.22 802.99 606.35 794.98 606.31 787.07 C 605.85 773.82 607.19 760.41 611.64 747.86 C 597.66 753.94 581.77 750.66 567.91 745.89 C 556.47 741.89 543.71 742.03 532.32 746.11 M 451.32 918.34 C 442.10 920.82 432.07 917.99 423.24 922.13 C 418.46 924.31 412.99 926.58 410.61 931.64 C 405.94 940.96 409.58 953.14 418.42 958.57 C 423.63 962.47 430.41 961.34 436.39 962.67 C 442.16 964.58 446.26 969.39 450.59 973.40 C 456.30 979.18 463.32 983.78 471.16 986.03 C 476.14 987.38 482.45 985.84 484.98 980.99 C 488.88 973.97 491.50 966.13 491.88 958.07 C 492.69 948.86 490.64 939.71 487.89 930.99 C 486.96 927.76 483.28 926.78 480.70 925.23 C 471.55 921.10 461.63 916.24 451.32 918.34 Z" />
        <path fill="#020202" opacity="1.00"
            d=" M 619.35 201.37 C 620.80 197.95 621.87 193.93 625.42 192.05 C 625.46 197.64 622.82 202.69 621.15 207.90 C 613.21 231.11 603.71 253.77 596.31 277.17 C 595.11 280.84 594.16 284.69 591.85 287.87 C 591.41 280.95 593.93 274.38 595.67 267.81 C 602.05 245.15 610.89 223.30 619.35 201.37 Z" />
        <path fill="#020202" opacity="1.00"
            d=" M 496.95 331.98 C 498.56 328.28 499.81 324.39 502.13 321.04 C 502.41 324.35 501.91 327.67 500.81 330.80 C 495.01 347.45 486.32 363.28 474.16 376.14 C 463.41 387.73 449.33 395.69 434.45 400.69 C 431.01 401.66 427.37 403.96 423.77 402.82 C 423.73 402.34 423.66 401.38 423.63 400.90 C 429.44 397.33 436.10 395.39 442.11 392.16 C 454.17 386.69 465.37 379.13 474.15 369.15 C 484.01 358.31 491.00 345.27 496.95 331.98 Z" />
    </g>
    <g id="#f0b58bff">
        <path fill="#f0b58b" opacity="1.00"
            d=" M 932.29 101.08 C 942.96 98.59 954.34 99.67 964.51 103.65 C 968.33 105.21 972.23 108.48 972.11 112.98 C 972.01 118.53 969.76 123.86 966.67 128.39 C 965.32 123.34 966.01 116.96 961.49 113.36 C 956.75 110.34 950.26 111.78 946.09 115.19 C 941.14 119.17 937.17 124.35 931.60 127.56 C 926.27 131.02 919.83 131.72 914.08 134.16 C 915.25 134.86 916.43 136.03 917.97 135.75 C 923.01 135.51 927.92 134.13 932.68 132.50 C 938.42 135.57 943.41 140.14 949.69 142.13 C 954.69 143.87 959.89 141.77 965.01 142.41 C 962.06 146.05 957.16 146.35 952.91 147.17 C 946.53 148.21 940.52 150.66 934.41 152.66 C 931.78 153.46 928.94 154.39 926.22 153.48 C 918.36 151.17 912.20 145.21 904.34 142.91 C 900.63 141.83 896.71 142.17 892.93 142.45 C 881.91 143.30 871.20 146.50 861.25 151.22 C 846.59 158.14 831.79 164.73 816.89 171.10 C 802.01 176.70 786.63 181.14 770.85 183.32 C 756.91 186.04 742.63 186.57 728.81 189.98 C 729.97 179.18 730.39 168.16 728.28 157.44 C 727.40 152.86 725.05 148.71 722.11 145.14 C 729.12 145.12 736.30 144.01 742.58 140.72 C 747.23 138.34 751.65 135.52 756.41 133.36 C 777.28 123.84 800.16 119.50 822.96 118.18 C 843.27 116.70 863.96 118.22 883.89 113.29 C 900.20 109.92 916.04 104.67 932.29 101.08 Z" />
        <path fill="#f0b58b" opacity="1.00"
            d=" M 384.03 100.30 C 388.25 106.07 391.12 112.76 395.99 118.07 C 398.33 120.62 401.17 123.80 405.00 123.41 C 407.49 123.02 408.52 120.36 408.70 118.15 C 409.32 112.29 410.13 106.46 411.02 100.65 C 415.84 106.84 420.87 113.23 422.91 120.96 C 424.71 126.78 424.99 132.88 425.55 138.89 C 425.51 140.95 427.64 142.50 429.52 141.42 C 433.83 138.67 435.23 133.35 436.81 128.81 C 439.27 132.48 440.94 136.77 444.17 139.87 C 446.21 141.71 448.89 140.12 451.08 139.49 C 453.97 143.44 456.27 147.83 459.61 151.43 C 463.79 155.68 469.98 158.42 475.99 157.06 C 479.39 157.05 483.02 154.49 486.15 156.72 C 479.33 159.57 472.44 162.32 465.97 165.93 C 455.82 171.38 446.78 178.58 437.23 184.96 C 431.15 181.67 424.18 179.77 419.08 174.89 C 414.58 170.97 411.41 165.69 409.87 159.94 C 407.20 150.30 404.35 140.53 398.99 131.99 C 392.84 122.10 384.83 112.41 384.03 100.30 Z" />
        <path fill="#f0b58b" opacity="1.00"
            d=" M 947.37 120.32 C 950.18 117.53 954.31 115.29 958.33 116.73 C 961.30 118.91 960.77 123.18 961.59 126.39 C 957.00 130.11 951.96 133.18 946.67 135.76 C 943.25 133.77 939.76 131.91 936.07 130.48 C 940.31 127.64 943.77 123.89 947.37 120.32 Z" />
        <path fill="#f0b58b" opacity="1.00"
            d=" M 521.08 139.34 C 522.72 138.68 523.59 137.00 524.71 135.74 C 525.25 140.17 526.96 144.40 529.80 147.85 C 518.14 147.67 506.68 150.45 495.60 153.82 C 496.30 151.62 496.98 149.42 497.64 147.21 C 503.34 146.91 507.06 142.26 511.86 139.89 C 514.74 138.33 518.01 139.56 521.08 139.34 Z" />
        <path fill="#f0b58b" opacity="1.00"
            d=" M 236.91 333.90 C 245.39 328.98 253.91 324.09 262.74 319.81 C 267.96 334.91 277.67 348.18 289.26 359.04 C 278.78 367.61 267.84 375.89 255.41 381.45 C 248.05 384.70 240.99 388.68 233.30 391.16 C 219.79 395.58 206.02 399.17 192.19 402.43 C 177.30 406.49 162.53 411.19 148.43 417.49 C 144.76 419.39 140.71 420.82 137.67 423.69 C 134.55 427.76 134.91 433.55 131.41 437.41 C 126.37 443.01 118.99 445.37 112.39 448.54 C 105.98 451.69 99.09 454.86 94.71 460.75 C 91.73 464.79 90.59 471.02 84.82 472.05 C 83.68 470.25 81.77 468.33 82.75 466.02 C 84.03 461.66 86.52 457.73 89.19 454.09 C 92.11 450.05 97.04 448.30 100.55 444.96 C 100.66 444.43 100.88 443.36 101.00 442.83 C 91.12 445.48 83.45 452.54 75.42 458.46 C 69.47 462.54 63.34 466.76 56.27 468.59 C 56.43 463.55 60.81 460.13 64.80 457.79 C 71.56 454.05 76.94 448.35 83.76 444.71 C 80.88 444.08 78.07 445.17 75.58 446.54 C 64.57 452.63 54.38 460.97 41.93 463.94 C 42.32 461.61 42.57 459.11 44.16 457.23 C 47.98 452.39 52.86 448.41 58.06 445.12 C 64.05 441.93 71.12 441.03 76.78 437.15 L 76.01 435.79 C 66.77 436.64 58.26 440.81 49.32 443.04 C 42.45 444.58 35.78 447.34 28.68 447.57 C 38.04 436.97 52.08 432.03 65.59 429.32 C 68.70 428.42 72.32 428.54 74.83 426.23 C 69.53 424.74 64.17 426.41 58.92 427.29 C 51.67 428.55 44.63 431.24 37.18 431.14 C 47.01 424.33 58.60 420.79 69.74 416.74 C 82.52 412.22 95.09 407.06 108.08 403.13 C 119.46 399.63 130.66 395.48 141.41 390.33 C 155.67 383.25 169.39 375.16 183.11 367.11 C 201.42 356.67 219.29 345.47 236.91 333.90 Z" />
        <path fill="#f0b58b" opacity="1.00"
            d=" M 514.94 691.84 C 522.84 689.83 530.27 686.36 537.45 682.54 C 541.28 700.46 543.50 718.83 549.94 736.09 C 535.45 736.38 520.79 742.13 511.12 753.13 C 506.09 758.94 501.54 765.52 499.79 773.12 C 497.18 786.66 498.01 801.26 504.39 813.69 C 507.59 819.26 511.31 824.86 517.03 828.13 C 508.89 825.46 501.17 820.87 496.19 813.75 C 490.45 806.13 487.54 796.91 484.86 787.88 C 479.21 769.27 476.77 749.82 470.37 731.42 C 466.52 720.86 463.40 710.05 460.38 699.23 C 466.32 698.44 472.30 698.04 478.23 697.22 C 490.45 695.29 502.93 695.00 514.94 691.84 Z" />
    </g>
    <g id="#f11b27ff">
        <path fill="var(--shirt-color, grey)" opacity="1.00"
            d=" M 706.71 145.71 C 710.82 143.63 715.20 146.19 718.53 148.58 C 721.41 151.15 722.50 155.10 723.13 158.78 C 724.82 169.77 724.18 180.96 723.04 191.98 C 721.30 205.87 719.90 220.15 713.96 233.02 C 711.80 236.22 708.07 237.86 704.91 239.90 C 692.95 247.01 680.29 252.92 668.73 260.69 C 657.27 268.67 645.45 276.63 636.67 287.68 C 639.51 281.49 641.54 274.88 641.87 268.05 C 642.44 250.83 647.85 234.20 654.39 218.41 C 654.97 216.92 655.48 215.40 655.77 213.83 C 652.82 212.88 651.56 216.37 650.37 218.35 C 645.07 229.59 640.49 241.32 638.40 253.62 C 637.04 261.34 638.10 269.31 636.28 276.97 C 635.10 282.16 633.04 287.09 631.01 291.99 C 628.94 297.31 624.70 301.64 623.70 307.41 C 620.92 317.45 625.65 327.19 627.34 336.95 C 628.87 345.80 632.04 354.29 633.42 363.17 C 634.90 372.83 632.23 382.38 631.46 391.96 C 630.30 405.30 632.24 418.69 631.22 432.03 C 629.16 435.65 624.37 436.21 620.82 437.75 C 605.85 443.49 589.76 444.79 573.96 446.41 C 579.04 443.04 584.17 439.73 589.03 436.04 C 591.04 434.60 592.46 432.54 593.63 430.40 C 588.42 430.97 584.34 434.42 580.03 437.04 C 553.27 454.02 525.15 469.50 494.69 478.73 C 475.30 484.17 455.17 488.84 434.90 486.84 C 429.50 486.74 424.55 480.98 426.43 475.60 C 428.79 467.51 432.27 459.64 432.58 451.09 C 445.52 456.39 459.82 459.35 473.74 456.79 C 476.58 456.13 480.41 455.56 480.91 452.04 C 467.64 453.73 453.94 452.30 441.40 447.56 C 431.98 444.15 422.33 440.05 415.37 432.57 C 412.34 429.63 411.87 425.02 413.29 421.19 C 415.92 413.74 420.93 407.06 421.64 399.00 C 422.51 392.29 418.92 386.08 414.85 381.08 C 408.32 373.23 400.89 366.18 394.62 358.11 C 405.15 357.70 415.64 359.05 426.13 359.45 C 426.59 359.09 427.52 358.36 427.99 358.00 C 425.16 355.41 421.12 355.35 417.57 354.58 C 405.87 352.32 393.78 351.73 382.00 353.68 C 370.87 355.70 360.34 360.15 350.38 365.38 C 344.51 368.42 339.09 372.23 334.04 376.48 C 316.16 372.70 300.00 362.67 287.46 349.55 C 280.51 341.94 274.19 333.54 270.23 323.96 C 267.87 318.25 266.48 312.20 264.97 306.23 C 272.34 299.98 280.39 294.61 288.58 289.52 C 296.02 284.87 302.90 279.03 307.38 271.37 C 310.90 265.19 316.88 260.28 323.99 259.05 C 326.31 259.07 328.12 260.82 329.98 262.01 C 336.59 267.01 344.65 269.73 352.74 271.18 C 363.82 272.93 374.96 270.61 385.98 269.51 C 391.46 268.69 397.17 268.42 402.30 266.18 C 403.74 265.65 404.23 264.35 403.89 262.90 C 400.58 262.40 397.26 262.98 393.96 263.28 C 383.69 264.39 373.35 264.82 363.03 265.07 C 351.15 265.22 339.39 261.63 329.34 255.36 C 334.60 249.91 339.50 244.13 344.17 238.17 C 352.92 227.19 363.39 217.24 375.96 210.80 C 386.23 206.21 397.67 203.49 408.96 204.79 C 419.75 205.77 430.14 209.26 440.96 210.08 C 452.53 211.05 464.36 209.51 475.17 205.19 C 477.38 204.19 480.73 202.89 479.90 199.81 C 475.72 200.33 471.82 202.04 467.67 202.70 C 460.85 203.86 453.91 204.25 447.00 204.33 C 437.13 204.43 427.48 202.20 417.73 201.01 C 434.40 194.90 448.46 183.80 463.21 174.25 C 481.71 163.20 502.69 156.24 524.07 153.72 C 533.36 152.23 541.88 157.32 551.05 157.49 C 561.01 157.92 570.39 154.12 580.02 152.26 C 598.41 148.55 617.23 146.27 636.02 147.45 C 649.82 148.19 663.50 150.27 677.24 151.76 C 684.92 152.43 693.25 155.80 697.03 162.93 C 700.72 171.45 696.42 180.58 691.73 187.74 C 695.48 187.58 698.14 184.83 699.59 181.58 C 702.70 175.31 704.88 167.75 702.05 160.98 C 700.29 156.43 696.17 153.50 692.28 150.89 C 697.30 149.81 702.06 147.85 706.71 145.71 M 619.35 201.37 C 610.89 223.30 602.05 245.15 595.67 267.81 C 593.93 274.38 591.41 280.95 591.85 287.87 C 594.16 284.69 595.11 280.84 596.31 277.17 C 603.71 253.77 613.21 231.11 621.15 207.90 C 622.82 202.69 625.46 197.64 625.42 192.05 C 621.87 193.93 620.80 197.95 619.35 201.37 M 496.95 331.98 C 491.00 345.27 484.01 358.31 474.15 369.15 C 465.37 379.13 454.17 386.69 442.11 392.16 C 436.10 395.39 429.44 397.33 423.63 400.90 C 423.66 401.38 423.73 402.34 423.77 402.82 C 427.37 403.96 431.01 401.66 434.45 400.69 C 449.33 395.69 463.41 387.73 474.16 376.14 C 486.32 363.28 495.01 347.45 500.81 330.80 C 501.91 327.67 502.41 324.35 502.13 321.04 C 499.81 324.39 498.56 328.28 496.95 331.98 Z" />
    </g>
    <g id="#ffffffff">
        <path fill="var(--pants-color, grey)" opacity="1.00"
            d=" M 594.57 449.75 C 604.14 448.41 613.63 446.37 622.68 442.93 C 625.26 458.74 628.75 474.39 631.27 490.21 C 632.46 499.79 633.23 509.42 634.37 519.01 C 635.52 534.10 634.67 549.41 631.54 564.23 C 629.25 575.01 621.72 583.62 613.62 590.65 C 606.03 597.39 598.77 604.53 592.46 612.51 C 587.33 619.05 583.18 626.29 577.98 632.78 C 574.16 620.27 565.80 609.23 564.39 595.98 C 564.89 584.82 568.86 574.04 569.24 562.85 C 569.66 561.26 567.15 559.19 566.41 561.41 C 563.43 571.73 560.96 582.23 558.99 592.80 C 556.57 583.99 554.75 575.01 553.73 565.93 C 553.70 564.41 552.85 563.13 552.11 561.89 C 549.87 565.98 550.77 570.71 551.20 575.12 C 552.16 583.84 553.86 592.54 557.22 600.68 C 559.11 605.96 562.22 610.68 564.22 615.92 C 567.10 623.11 571.45 629.81 572.70 637.58 C 573.72 644.11 574.13 650.74 573.88 657.35 C 569.66 660.12 564.75 661.45 560.14 663.38 C 546.77 668.58 535.15 677.29 522.02 683.02 C 508.09 689.19 492.58 689.08 477.87 692.00 C 469.44 693.59 460.50 693.33 452.64 697.21 C 451.13 687.52 449.76 677.77 449.69 667.95 C 449.28 654.98 450.94 642.02 450.29 629.05 C 448.85 609.44 439.32 591.58 437.00 572.13 C 436.10 565.36 436.25 558.51 436.03 551.70 C 446.20 567.57 454.07 584.72 461.95 601.79 C 463.23 604.54 464.42 607.37 466.36 609.74 C 466.77 605.79 464.59 602.32 463.29 598.75 C 456.99 584.25 451.89 569.07 443.06 555.82 C 437.53 547.67 433.14 538.77 429.78 529.54 C 427.13 517.06 427.18 503.73 431.53 491.63 C 434.11 491.93 436.69 492.17 439.29 492.37 C 439.36 509.56 445.69 525.96 452.51 541.48 C 455.08 546.24 456.97 552.40 462.47 554.54 C 461.79 551.30 459.98 548.52 458.54 545.60 C 450.58 528.92 445.69 510.93 442.71 492.74 C 461.17 493.20 479.41 489.18 497.15 484.42 C 518.73 478.05 539.15 468.13 558.28 456.37 C 566.75 470.87 572.49 486.79 576.34 503.10 C 580.84 501.56 578.31 495.81 577.85 492.41 C 574.40 478.86 569.22 465.67 561.46 453.99 C 571.13 451.14 581.35 451.67 591.25 450.19 C 590.10 463.91 597.70 475.89 601.53 488.54 C 603.06 492.87 603.01 497.60 604.75 501.88 C 605.62 499.41 605.86 496.79 605.44 494.22 C 603.43 479.00 595.22 465.23 594.57 449.75 Z" />
    </g>
    <g id="#4d4d4dff">
        <path fill="#4d4d4d" opacity="1.00"
            d=" M 641.48 724.66 C 651.10 722.80 661.78 725.17 669.03 731.97 C 673.37 736.02 674.79 742.23 674.62 747.98 C 674.41 756.05 672.16 764.29 674.62 772.24 C 677.42 781.00 680.90 789.60 685.39 797.64 C 688.45 803.17 692.21 808.29 695.14 813.90 C 703.59 829.85 707.44 848.06 707.08 866.06 C 706.92 875.82 704.59 885.55 700.24 894.29 C 698.37 897.87 695.50 901.79 691.06 901.93 C 684.36 902.69 678.54 898.41 673.97 894.02 C 665.18 885.36 659.91 874.01 652.96 863.98 C 647.77 856.34 643.77 847.98 638.79 840.22 C 634.47 833.34 628.46 827.62 624.84 820.28 C 620.23 811.12 613.29 802.60 612.75 791.94 C 612.05 780.40 612.25 768.60 615.32 757.38 C 617.50 749.03 620.24 740.58 625.63 733.68 C 629.23 728.45 635.58 726.16 641.48 724.66 Z" />
        <path fill="#4d4d4d" opacity="1.00"
            d=" M 451.32 918.34 C 461.63 916.24 471.55 921.10 480.70 925.23 C 483.28 926.78 486.96 927.76 487.89 930.99 C 490.64 939.71 492.69 948.86 491.88 958.07 C 491.50 966.13 488.88 973.97 484.98 980.99 C 482.45 985.84 476.14 987.38 471.16 986.03 C 463.32 983.78 456.30 979.18 450.59 973.40 C 446.26 969.39 442.16 964.58 436.39 962.67 C 430.41 961.34 423.63 962.47 418.42 958.57 C 409.58 953.14 405.94 940.96 410.61 931.64 C 412.99 926.58 418.46 924.31 423.24 922.13 C 432.07 917.99 442.10 920.82 451.32 918.34 Z" />
    </g>
    <g id="#fdfdffff">
        <path fill="var(--socks-color, grey)" opacity="1.00"
            d=" M 458.84 796.00 C 460.70 775.42 463.19 754.89 464.86 734.30 C 471.47 754.93 473.71 776.70 481.14 797.10 C 484.73 808.13 490.63 818.98 500.41 825.68 C 504.24 828.42 508.65 830.22 513.17 831.49 C 504.54 862.41 495.85 893.34 488.70 924.64 C 481.14 919.57 472.66 915.82 463.86 913.55 C 459.24 912.58 454.44 912.08 449.81 913.22 C 452.41 892.40 453.24 871.43 454.86 850.53 C 456.74 832.39 457.06 814.14 458.84 796.00 Z" />
    </g>
    <g id="#fefeffff">
        <path fill="var(--socks-color, grey)" opacity="1.00"
            d=" M 532.32 746.11 C 543.71 742.03 556.47 741.89 567.91 745.89 C 581.77 750.66 597.66 753.94 611.64 747.86 C 607.19 760.41 605.85 773.82 606.31 787.07 C 606.35 794.98 608.22 802.99 612.48 809.72 C 602.64 810.29 593.09 812.95 583.43 814.72 C 566.67 817.99 549.93 821.60 532.94 823.45 C 524.66 824.93 516.28 820.02 511.62 813.40 C 503.49 798.91 502.64 780.54 509.40 765.35 C 514.40 756.47 522.83 749.69 532.32 746.11 Z" />
    </g>
</svg>