<?xml version="1.0" encoding="UTF-8" ?>
<!DOCTYPE svg PUBLIC "-//W3C//DTD SVG 1.1//EN" "http://www.w3.org/Graphics/SVG/1.1/DTD/svg11.dtd">
<svg width="1000pt" height="1000pt" viewBox="0 0 1000 1000" version="1.1" xmlns="http://www.w3.org/2000/svg">
    <g id="#020202ff">
        <path fill="#020202" opacity="1.00"
            d=" M 499.05 42.80 C 503.78 42.34 508.19 40.23 512.95 39.96 C 518.24 39.66 523.44 40.93 528.48 42.41 C 535.15 44.41 542.22 43.99 549.07 43.58 C 552.57 43.43 555.96 41.96 559.48 42.30 C 561.86 46.35 556.53 49.83 553.85 52.18 C 565.98 51.92 577.71 57.41 586.62 65.40 C 593.83 72.14 599.18 80.59 603.71 89.29 C 605.91 93.82 608.57 98.40 608.56 103.59 C 603.72 103.43 599.61 100.69 595.64 98.23 C 597.65 102.20 599.19 106.45 599.72 110.89 C 600.72 118.69 601.10 126.71 599.51 134.47 C 598.81 138.04 597.27 141.40 596.70 144.99 C 597.02 148.69 598.21 152.36 597.51 156.11 C 595.73 168.13 591.54 179.73 586.15 190.59 C 600.80 190.80 613.02 199.77 625.18 206.84 C 640.99 216.88 658.86 223.20 674.41 233.69 C 684.47 240.37 692.76 249.26 701.02 257.97 C 712.59 270.62 722.17 284.88 732.49 298.52 C 744.07 313.31 758.09 326.37 767.19 342.98 C 768.49 345.45 770.52 350.30 766.62 351.37 C 762.92 352.45 759.55 354.34 756.73 356.95 C 768.54 371.47 778.43 387.40 789.55 402.43 C 803.66 421.11 819.18 438.94 830.28 459.69 C 834.29 467.14 833.73 476.01 837.36 483.61 C 842.80 497.14 852.17 509.86 851.85 525.03 C 852.20 537.12 843.12 548.97 831.04 550.94 C 824.36 551.89 817.28 555.01 810.71 552.05 C 808.75 551.33 806.84 549.30 807.83 547.09 C 810.68 540.55 818.12 538.79 823.90 535.81 C 816.29 528.87 805.33 524.83 801.21 514.72 C 796.07 503.96 801.66 491.05 795.43 480.66 C 790.44 472.44 785.29 464.27 779.14 456.86 C 772.97 449.38 767.48 441.28 760.37 434.64 C 753.04 427.62 746.43 419.89 739.06 412.92 C 731.62 405.38 723.81 397.96 718.62 388.61 C 714.90 390.91 711.32 393.82 706.93 394.66 C 703.46 395.25 701.26 391.94 699.26 389.71 C 693.48 382.17 684.13 379.00 676.97 373.10 C 673.21 370.34 670.20 366.74 667.68 362.86 C 664.60 373.66 659.53 383.74 654.87 393.92 C 652.10 400.57 649.50 408.15 651.79 415.33 C 656.21 425.87 664.71 434.19 668.86 444.86 C 671.45 453.99 672.10 463.63 671.92 473.08 C 671.16 481.67 661.76 485.89 654.07 485.69 C 660.01 492.05 664.00 500.06 666.21 508.44 C 667.38 512.64 667.08 517.06 668.00 521.30 C 669.16 524.45 671.53 526.98 672.91 530.04 C 677.23 539.15 678.62 549.24 681.12 558.93 C 686.03 579.75 694.30 599.63 698.71 620.59 C 702.88 641.10 706.96 661.93 705.89 682.98 C 706.56 694.67 705.29 706.39 706.19 718.08 C 706.83 730.61 707.77 743.59 703.73 755.70 C 700.54 765.26 691.94 771.94 682.80 775.43 C 689.41 781.71 693.61 789.88 698.57 797.42 C 704.80 807.18 709.95 817.57 715.10 827.93 C 721.77 839.98 728.01 852.33 732.72 865.31 C 736.79 875.89 739.43 887.04 744.84 897.08 C 749.78 888.70 758.67 883.19 768.11 881.36 C 771.84 880.56 775.88 881.67 778.55 884.44 C 785.21 891.00 787.66 901.39 785.17 910.34 C 783.50 916.95 779.17 922.45 776.97 928.86 C 772.89 940.25 769.72 952.08 763.63 962.64 C 758.84 971.83 750.58 978.91 741.27 983.27 C 733.61 986.83 723.94 987.10 716.82 982.16 C 710.70 978.23 707.58 971.32 705.12 964.75 C 702.71 958.56 702.20 951.76 699.27 945.75 C 688.68 924.47 680.92 901.59 666.70 882.29 C 658.98 872.21 652.03 861.59 644.84 851.15 C 637.30 839.98 629.15 829.19 622.59 817.40 C 615.52 804.83 613.01 790.45 609.79 776.57 C 607.22 763.56 604.57 750.55 602.36 737.47 C 581.72 729.10 564.10 715.29 545.28 703.69 C 534.72 696.85 522.42 693.08 510.02 691.40 C 501.58 699.06 492.86 707.30 481.59 710.40 C 476.23 712.03 469.97 711.14 465.83 707.19 C 459.38 701.42 457.51 692.29 457.50 683.99 C 458.03 671.36 462.19 658.84 469.67 648.61 C 477.82 637.62 478.92 623.02 487.69 612.40 C 477.12 601.66 471.04 587.30 467.56 572.83 C 464.80 561.77 464.55 550.31 464.94 538.98 C 458.50 538.47 453.37 533.73 451.09 527.89 C 445.64 514.36 444.83 499.41 445.83 485.00 C 446.44 474.57 450.46 464.55 449.91 454.02 C 449.67 450.15 449.87 446.12 448.57 442.42 C 445.95 437.90 441.76 434.57 438.62 430.44 C 433.87 424.72 432.87 417.05 432.09 409.92 C 430.99 396.64 430.60 382.72 424.16 370.69 C 421.02 363.63 414.90 358.49 408.32 354.73 C 398.36 349.14 387.23 346.20 376.14 343.79 C 368.74 341.60 360.70 341.17 353.99 337.04 C 349.58 334.26 345.28 331.18 341.68 327.37 C 337.29 322.23 333.73 316.45 330.30 310.64 C 318.91 312.21 307.39 312.74 295.92 311.85 C 277.99 310.40 259.91 309.21 242.41 304.77 C 232.40 302.24 222.77 298.49 213.14 294.83 C 194.79 287.61 175.50 282.99 155.96 280.52 C 146.17 279.05 136.02 278.32 126.91 274.11 C 121.12 271.56 116.83 266.71 111.36 263.64 C 102.24 258.42 91.97 254.99 83.96 247.97 C 81.47 245.72 79.09 242.53 79.87 238.97 C 80.37 236.09 83.28 234.44 86.00 234.31 C 94.49 233.67 103.20 237.31 111.51 234.42 C 113.54 233.80 112.69 231.28 112.61 229.74 C 112.10 227.15 111.46 222.72 107.91 223.14 C 104.51 223.01 102.69 227.34 99.19 226.66 C 95.42 226.33 94.07 222.35 92.10 219.75 C 87.75 214.50 87.53 207.09 88.99 200.73 C 90.73 193.44 95.22 186.04 102.69 183.62 C 107.27 181.69 112.34 183.20 116.44 185.56 C 125.38 190.55 133.36 198.18 136.86 207.98 C 138.87 213.55 140.88 219.16 143.82 224.32 C 147.93 232.16 153.98 238.73 159.96 245.15 C 163.32 247.12 167.50 246.75 171.26 247.13 C 196.86 247.90 222.44 249.26 248.04 250.03 C 267.48 250.49 287.01 251.99 305.96 256.56 C 311.88 252.76 319.24 252.48 326.03 253.15 C 330.99 253.69 336.25 254.21 340.86 251.87 C 347.57 248.64 355.02 245.85 362.57 247.56 C 367.29 248.08 371.83 251.64 376.62 249.72 C 386.71 246.31 394.86 239.18 404.10 234.12 C 416.17 227.22 430.16 224.25 443.98 223.96 C 447.62 223.82 451.32 224.65 454.92 223.85 C 461.22 222.00 466.67 217.83 470.67 212.69 C 474.88 207.33 479.20 201.94 484.69 197.80 C 483.87 190.73 476.00 188.90 472.77 183.36 C 468.49 176.20 462.55 169.71 460.85 161.28 C 459.40 153.59 459.71 145.70 459.79 137.91 C 458.10 139.33 456.63 142.36 454.02 141.19 C 451.76 138.69 452.01 135.07 451.69 131.94 C 450.76 114.09 454.04 94.98 465.61 80.78 C 464.02 80.52 461.38 80.29 461.67 78.03 C 462.42 73.78 465.90 70.71 468.26 67.27 C 472.47 62.28 473.90 55.28 479.30 51.27 C 485.09 46.97 491.79 43.53 499.05 42.80 M 95.51 196.43 C 92.84 201.54 92.40 207.44 92.97 213.09 C 95.53 207.11 99.37 201.52 104.59 197.58 C 105.85 196.33 107.45 197.37 108.87 197.63 C 105.80 202.59 101.81 206.91 98.92 211.97 C 96.89 215.43 96.33 220.41 99.83 223.14 C 100.35 222.92 101.39 222.46 101.91 222.24 C 101.65 218.31 101.26 213.99 103.64 210.58 C 106.47 205.84 112.02 203.85 117.14 202.76 C 117.46 203.07 118.08 203.68 118.39 203.99 C 116.65 207.67 112.20 208.67 109.40 211.36 C 107.16 213.02 106.59 215.85 105.94 218.38 C 108.19 218.86 110.76 218.83 112.53 220.50 C 115.77 223.10 116.55 227.39 117.59 231.18 C 119.64 239.72 122.60 248.01 125.81 256.18 C 126.43 257.77 126.72 259.43 126.69 261.15 C 125.37 260.23 123.85 259.42 123.06 257.95 C 119.32 251.66 116.81 244.73 114.54 237.79 C 110.89 239.23 107.02 240.39 103.05 240.11 C 96.69 239.96 90.38 237.97 84.01 239.01 C 84.14 241.84 85.79 244.20 88.06 245.78 C 95.86 251.50 105.04 254.83 113.45 259.50 C 120.09 263.16 125.63 268.82 133.04 270.99 C 145.12 274.57 157.84 274.84 170.13 277.35 C 183.74 279.53 196.99 283.48 210.01 287.94 C 221.53 292.27 233.03 296.75 244.97 299.78 C 262.25 304.16 280.09 305.39 297.76 307.08 C 307.76 307.70 318.04 308.83 327.79 305.85 C 322.93 295.78 318.63 285.41 315.31 274.72 C 314.13 270.90 312.86 267.11 311.44 263.37 C 302.08 259.67 292.03 258.39 282.13 257.00 C 272.12 255.88 262.06 255.21 251.99 255.01 C 233.00 254.53 214.01 254.05 195.04 253.20 C 185.96 252.98 176.86 252.79 167.82 251.92 C 164.22 251.33 160.22 251.21 157.26 248.82 C 153.52 245.89 150.12 242.56 146.91 239.08 C 139.35 230.83 134.89 220.35 131.04 209.99 C 128.05 201.74 121.43 195.35 114.05 190.89 C 111.34 189.30 108.28 187.63 105.02 188.13 C 100.63 188.96 97.34 192.52 95.51 196.43 M 552.03 199.09 C 540.36 200.11 528.71 198.31 517.05 198.37 C 510.51 198.38 503.99 199.03 497.50 199.73 C 494.38 200.12 491.07 200.44 488.45 202.37 C 482.13 206.67 477.86 213.17 472.60 218.58 C 469.52 221.74 465.66 223.94 461.79 225.97 C 469.52 226.65 477.43 228.17 485.11 226.23 C 489.94 225.32 494.47 222.99 499.46 222.93 C 500.38 224.88 498.15 226.03 496.79 226.79 C 492.07 229.07 487.01 230.55 481.94 231.82 C 473.04 234.07 464.05 231.18 455.17 230.32 C 448.77 229.79 442.35 228.46 435.93 229.42 C 428.51 230.43 421.17 232.28 414.26 235.17 C 400.99 240.53 390.73 251.63 376.83 255.60 C 370.34 257.70 364.50 252.73 358.07 252.74 C 349.07 252.09 341.99 259.63 333.02 259.18 C 327.01 258.87 321.05 257.73 315.01 258.16 C 318.70 264.28 320.91 271.08 323.22 277.80 C 328.52 292.30 334.25 306.92 343.55 319.39 C 347.33 324.91 352.76 328.95 357.99 332.99 C 361.00 335.40 364.99 335.55 368.62 336.29 C 384.30 339.44 400.64 342.79 413.83 352.41 C 409.99 341.85 407.96 330.23 400.74 321.24 C 398.76 318.49 395.89 316.63 393.05 314.89 C 395.17 313.39 397.94 313.09 400.02 314.83 C 409.40 321.66 413.78 333.00 417.16 343.68 C 419.12 350.45 422.67 356.60 426.50 362.47 C 432.02 371.10 435.28 381.04 436.42 391.19 C 437.86 400.81 437.49 410.69 439.92 420.15 C 441.43 426.68 446.95 430.97 450.77 436.13 C 455.33 441.97 457.36 449.66 456.19 457.00 C 456.00 467.13 452.56 476.83 452.00 486.92 C 451.31 496.96 451.88 507.12 454.06 516.95 C 455.16 521.45 456.33 526.11 459.07 529.94 C 461.48 533.31 465.73 535.61 469.94 534.95 C 482.42 532.72 493.42 525.93 503.42 518.43 C 517.53 507.62 530.54 495.42 544.87 484.89 C 554.89 477.57 566.05 471.90 577.73 467.74 C 582.74 466.02 587.77 464.00 593.11 463.60 C 594.84 463.36 596.17 464.27 596.47 466.04 C 594.00 467.33 591.28 468.02 588.65 468.88 C 573.63 473.71 559.59 481.23 546.63 490.18 C 567.53 480.28 590.90 475.55 614.00 476.82 C 627.74 477.08 641.30 480.13 655.06 479.80 C 659.26 479.74 664.70 478.51 666.21 474.03 C 667.36 467.00 665.91 459.90 664.82 452.95 C 663.28 441.08 653.77 432.74 648.40 422.59 C 643.08 414.83 644.43 404.78 647.46 396.42 C 652.02 383.99 659.07 372.51 662.43 359.62 C 663.53 355.16 664.57 350.40 663.11 345.90 C 660.63 337.99 656.30 330.86 652.37 323.62 C 650.87 320.74 648.95 317.81 649.31 314.40 C 653.06 317.56 655.29 322.00 657.96 326.02 C 660.49 329.90 662.81 333.91 665.00 337.99 C 665.98 323.49 669.27 309.28 673.17 295.32 C 674.39 291.25 675.32 286.93 678.09 283.57 C 679.38 287.25 678.01 291.01 677.30 294.64 C 673.25 313.20 669.27 332.00 669.87 351.11 C 670.08 355.35 671.38 359.60 674.10 362.92 C 680.00 370.63 689.19 374.53 696.86 380.12 C 700.62 382.78 703.39 386.52 706.21 390.10 C 710.97 388.15 715.12 385.05 719.57 382.51 C 725.72 378.86 731.91 375.08 736.99 369.98 C 741.61 365.29 746.75 361.13 751.08 356.15 C 754.27 352.43 758.32 349.52 762.84 347.62 C 755.08 333.18 743.81 321.13 733.23 308.76 C 724.73 298.79 717.64 287.74 709.55 277.46 C 700.96 266.17 691.27 255.78 680.95 246.08 C 669.20 235.25 654.37 228.85 640.23 221.84 C 630.01 217.00 620.51 210.86 610.69 205.30 C 605.27 202.22 599.73 199.14 593.63 197.65 C 587.18 196.06 580.52 197.15 573.99 197.33 C 566.64 197.55 559.34 198.44 552.03 199.09 M 739.85 373.86 C 734.82 378.88 728.73 382.60 722.70 386.27 C 731.81 399.87 744.55 410.40 755.52 422.40 C 760.80 428.14 766.96 433.03 771.86 439.13 C 782.39 452.13 793.20 465.09 801.10 479.92 C 804.55 486.77 804.15 494.61 804.26 502.06 C 804.23 508.81 806.30 515.88 811.46 520.50 C 816.85 525.12 822.88 529.20 826.89 535.19 C 829.50 532.45 830.57 528.81 831.05 525.14 C 826.99 522.98 822.47 521.17 819.60 517.41 C 817.49 514.52 816.09 511.18 814.99 507.80 C 814.65 506.43 813.78 503.50 816.15 503.52 C 818.58 506.01 819.57 509.50 821.74 512.21 C 823.97 515.42 827.27 517.63 830.69 519.40 C 832.91 520.62 835.81 522.11 835.66 525.09 C 835.50 529.62 834.26 534.59 830.80 537.75 C 825.25 541.59 817.95 542.68 813.24 547.79 C 817.48 548.48 821.67 547.42 825.81 546.61 C 831.06 545.86 836.68 544.52 840.28 540.30 C 846.87 533.95 847.58 523.80 845.37 515.39 C 841.95 502.93 833.90 492.37 830.04 480.07 C 828.26 474.09 828.20 467.58 825.01 462.07 C 813.72 441.71 798.68 423.82 784.76 405.27 C 774.12 390.48 763.95 375.36 753.91 360.17 C 749.54 365.06 744.44 369.19 739.85 373.86 M 558.47 490.63 C 549.02 493.85 540.16 498.53 531.41 503.27 C 525.67 506.33 521.02 510.93 515.90 514.85 C 502.61 525.61 488.02 536.02 470.77 538.92 C 470.99 544.96 470.61 551.03 471.27 557.06 C 472.84 575.88 479.58 594.19 490.77 609.42 C 494.92 605.97 499.19 602.58 504.14 600.35 C 509.14 597.53 514.84 594.69 520.74 596.06 C 527.76 597.15 532.61 602.87 536.82 608.08 C 543.11 615.76 546.33 625.76 545.96 635.66 C 549.76 638.22 553.73 640.52 557.88 642.46 C 556.37 639.25 554.70 636.14 552.93 633.08 C 547.59 623.83 543.59 613.70 542.10 603.08 C 539.58 584.85 541.46 565.99 547.88 548.72 C 549.09 545.90 550.47 542.18 554.14 542.13 C 546.13 559.54 544.80 579.22 546.32 598.10 C 547.09 608.48 550.37 618.51 554.88 627.84 C 555.23 620.74 557.36 613.83 560.64 607.55 C 567.29 594.17 579.23 584.55 591.35 576.34 C 593.24 575.25 596.03 573.01 597.63 575.72 C 591.47 580.46 585.34 585.29 579.87 590.84 C 569.91 600.67 561.33 612.69 559.09 626.80 C 562.68 618.41 569.25 611.84 576.03 605.95 C 577.56 604.53 579.46 603.63 581.53 603.28 C 581.39 603.89 581.11 605.11 580.97 605.72 C 576.31 611.45 570.32 616.15 566.49 622.57 C 562.59 628.87 559.02 636.54 561.47 644.03 C 581.67 652.83 603.46 656.80 624.70 662.22 C 631.95 664.09 639.67 664.93 646.21 668.87 C 650.07 671.01 653.23 674.13 656.22 677.33 C 659.63 676.04 663.26 675.20 666.94 675.59 C 678.72 676.44 690.67 678.73 701.31 684.02 C 700.91 671.54 700.46 658.99 698.15 646.69 C 696.39 637.36 694.72 628.02 692.49 618.79 C 688.07 599.65 680.58 581.41 675.90 562.34 C 673.10 552.36 671.87 541.85 667.41 532.40 C 666.55 530.16 663.76 530.20 661.79 529.71 C 651.87 528.48 641.83 529.79 632.03 531.48 C 627.66 532.16 623.36 533.95 618.87 533.15 C 622.80 528.44 629.38 527.92 634.95 526.53 C 644.18 524.91 653.74 523.42 663.04 525.41 C 661.24 520.17 662.29 514.54 660.94 509.23 C 658.88 500.63 654.79 492.53 649.06 485.79 C 634.67 484.98 620.39 482.39 605.95 482.41 C 589.75 482.03 573.75 485.52 558.47 490.63 M 513.36 601.09 C 503.39 603.94 496.04 611.92 489.69 619.69 C 483.12 627.63 482.14 638.32 477.02 647.02 C 474.76 651.03 471.83 654.62 469.71 658.70 C 465.64 666.48 463.45 675.24 463.14 684.00 C 463.18 691.23 464.57 699.69 470.94 704.13 C 476.31 707.46 482.80 704.50 487.79 701.84 C 500.98 694.07 510.52 681.79 522.03 671.96 C 528.64 665.85 535.99 659.45 538.30 650.37 C 539.62 644.68 540.07 638.80 540.17 632.97 C 540.07 621.77 533.99 611.49 525.93 604.08 C 522.60 601.07 517.69 599.78 513.36 601.09 M 545.65 639.47 C 545.29 647.63 543.62 656.01 538.70 662.72 C 531.52 672.35 521.57 679.30 513.39 687.99 C 519.35 687.98 525.10 689.75 530.78 691.37 C 541.96 694.74 551.54 701.63 561.26 707.87 C 566.22 710.80 570.78 714.35 575.75 717.27 C 591.33 727.46 608.43 735.57 626.47 740.32 C 633.82 742.47 641.54 742.36 649.08 743.34 C 655.58 743.98 660.97 739.53 665.26 735.22 C 670.89 729.32 676.16 721.35 673.90 712.80 C 671.16 702.65 664.00 694.53 657.12 686.89 C 652.43 681.92 648.20 676.18 641.94 673.08 C 635.87 670.05 628.99 669.50 622.52 667.75 C 603.53 662.75 584.08 658.94 566.01 651.03 C 558.88 647.85 551.62 644.60 545.65 639.47 M 659.74 681.12 C 667.45 689.69 675.46 698.67 678.88 709.93 C 681.18 717.57 679.15 726.01 674.30 732.23 C 668.44 740.27 660.24 748.40 649.59 748.38 C 654.16 754.15 657.06 761.34 663.16 765.80 C 668.35 769.82 675.50 772.23 681.90 769.77 C 689.77 766.75 696.98 760.53 699.18 752.14 C 701.98 741.64 701.13 730.63 700.47 719.91 C 699.74 709.47 700.30 698.99 701.10 688.58 C 687.99 683.44 673.76 681.43 659.74 681.12 M 607.54 739.65 C 610.25 753.72 613.37 767.71 616.45 781.70 C 629.51 774.78 643.86 769.90 658.76 769.50 C 652.12 763.56 648.02 755.44 644.16 747.57 C 631.52 747.54 619.21 744.28 607.54 739.65 M 617.52 785.78 C 618.89 791.29 620.09 796.87 621.89 802.27 C 625.86 814.74 633.68 825.39 640.84 836.17 C 647.72 846.02 654.07 856.24 660.71 866.26 C 664.43 872.07 669.43 876.90 673.48 882.48 C 687.05 900.84 694.57 922.59 704.18 943.08 C 706.84 940.05 710.08 937.18 714.20 936.51 C 720.23 935.29 726.08 937.94 732.06 938.08 C 737.19 937.17 740.83 932.71 743.54 928.58 C 747.55 922.59 746.92 914.85 744.78 908.31 C 741.66 900.23 737.05 892.79 734.34 884.54 C 729.04 869.42 723.62 854.26 715.85 840.20 C 709.13 828.42 703.76 815.92 696.60 804.39 C 690.62 794.79 684.89 784.94 677.46 776.35 C 672.77 776.48 668.39 774.77 664.01 773.38 C 647.71 773.32 632.09 778.94 617.52 785.78 M 747.19 901.18 C 748.58 906.07 751.06 910.74 751.09 915.97 C 752.36 926.55 745.59 936.72 736.65 941.81 C 729.25 945.36 721.28 939.45 713.70 941.78 C 709.82 943.16 707.79 947.02 705.38 950.08 C 707.03 955.20 708.56 960.38 710.73 965.32 C 712.83 970.15 715.42 975.15 720.02 978.06 C 726.00 982.20 734.07 981.48 740.37 978.46 C 748.36 974.56 755.43 968.38 759.51 960.40 C 765.55 949.55 768.57 937.44 772.82 925.87 C 775.32 918.85 780.34 912.64 780.79 904.98 C 780.98 898.92 779.09 892.51 774.79 888.10 C 773.15 886.25 770.55 885.89 768.24 886.37 C 759.54 887.93 751.51 893.43 747.19 901.18 Z" />
        <path fill="#020202" opacity="1.00"
            d=" M 433.06 242.31 C 437.50 245.98 438.21 252.09 439.62 257.32 C 442.77 270.72 442.37 284.93 437.85 297.96 C 437.49 299.49 435.81 299.86 434.66 300.55 C 434.59 293.59 436.82 286.88 437.16 279.95 C 438.36 267.23 435.11 254.75 433.06 242.31 Z" />
        <path fill="#020202" opacity="1.00"
            d=" M 443.79 244.33 C 445.91 244.92 447.79 246.10 449.41 247.59 C 456.85 253.81 465.59 258.50 474.95 261.11 C 486.38 264.31 498.00 267.68 509.98 267.54 C 512.25 267.53 514.63 267.52 516.51 269.07 C 507.73 272.67 497.85 271.41 488.79 269.66 C 478.19 267.24 467.11 265.23 457.83 259.20 C 453.46 256.34 449.11 253.29 445.65 249.34 C 444.32 248.01 444.14 246.06 443.79 244.33 Z" />
        <path fill="#020202" opacity="1.00"
            d=" M 529.17 365.28 C 542.82 360.89 554.44 352.28 566.36 344.62 C 566.63 349.24 562.26 351.63 559.23 354.22 C 547.70 362.98 534.67 370.83 520.03 372.57 C 509.70 373.91 499.29 372.64 488.97 371.94 C 485.06 371.45 480.65 371.76 477.53 368.91 C 482.23 367.57 487.14 368.31 491.95 368.40 C 504.39 369.01 517.20 369.26 529.17 365.28 Z" />
        <path fill="#020202" opacity="1.00"
            d=" M 604.95 418.00 C 610.02 416.17 614.08 411.40 619.72 411.53 C 617.14 416.03 612.32 418.37 608.25 421.29 C 599.30 427.49 589.03 431.40 578.73 434.74 C 559.91 440.98 539.78 443.93 520.01 441.47 C 503.21 439.71 487.21 434.03 471.25 428.81 C 464.56 426.53 457.79 424.09 451.94 420.05 C 450.42 419.03 448.40 416.76 450.91 415.56 C 454.97 416.71 458.60 418.95 462.55 420.39 C 471.55 423.78 480.80 426.42 490.00 429.21 C 509.36 434.93 529.89 438.11 550.02 435.02 C 569.04 432.11 587.34 425.61 604.95 418.00 Z" />
        <path fill="#020202" opacity="1.00"
            d=" M 535.88 454.31 C 546.24 453.59 556.23 450.66 566.33 448.50 C 568.12 447.84 569.67 448.83 570.59 450.35 C 563.85 452.40 557.61 455.81 550.79 457.59 C 532.15 462.48 512.53 460.61 493.76 457.54 C 490.29 456.50 485.43 456.66 483.59 452.99 C 483.88 452.70 484.48 452.12 484.78 451.83 C 501.68 454.16 518.83 455.49 535.88 454.31 Z" />
        <path fill="#020202" opacity="1.00"
            d=" M 522.22 603.33 C 525.54 603.58 526.71 607.14 527.03 609.95 C 527.46 615.21 525.90 620.39 524.25 625.32 C 522.10 631.64 517.96 636.97 514.79 642.77 C 511.71 648.05 512.41 654.49 509.98 660.03 C 506.00 671.03 497.02 678.93 489.08 687.09 C 486.56 689.44 484.12 692.44 480.49 692.94 C 479.07 690.58 481.54 688.62 482.79 686.85 C 488.15 680.81 492.94 674.29 498.04 668.03 C 502.37 662.65 505.28 656.15 506.23 649.30 C 507.30 641.13 513.15 634.95 517.02 628.03 C 520.93 620.47 523.86 611.93 522.22 603.33 Z" />
        <path fill="#020202" opacity="1.00"
            d=" M 603.52 623.08 C 608.30 621.98 613.29 622.81 618.09 623.40 C 631.96 625.35 645.36 630.32 657.12 637.93 C 666.98 644.20 676.48 651.06 685.42 658.60 C 688.00 660.91 691.20 663.16 691.52 666.95 C 689.50 666.81 687.44 666.55 685.83 665.24 C 672.99 655.97 660.36 646.28 646.44 638.64 C 634.57 632.09 621.42 628.01 608.00 626.28 C 606.20 625.73 602.10 626.04 603.52 623.08 Z" />
    </g>
    <g id="#f0b58bff">
        <path fill="#f0b58b" opacity="1.00"
            d=" M 95.51 196.43 C 97.34 192.52 100.63 188.96 105.02 188.13 C 108.28 187.63 111.34 189.30 114.05 190.89 C 121.43 195.35 128.05 201.74 131.04 209.99 C 134.89 220.35 139.35 230.83 146.91 239.08 C 150.12 242.56 153.52 245.89 157.26 248.82 C 160.22 251.21 164.22 251.33 167.82 251.92 C 176.86 252.79 185.96 252.98 195.04 253.20 C 214.01 254.05 233.00 254.53 251.99 255.01 C 262.06 255.21 272.12 255.88 282.13 257.00 C 292.03 258.39 302.08 259.67 311.44 263.37 C 312.86 267.11 314.13 270.90 315.31 274.72 C 318.63 285.41 322.93 295.78 327.79 305.85 C 318.04 308.83 307.76 307.70 297.76 307.08 C 280.09 305.39 262.25 304.16 244.97 299.78 C 233.03 296.75 221.53 292.27 210.01 287.94 C 196.99 283.48 183.74 279.53 170.13 277.35 C 157.84 274.84 145.12 274.57 133.04 270.99 C 125.63 268.82 120.09 263.16 113.45 259.50 C 105.04 254.83 95.86 251.50 88.06 245.78 C 85.79 244.20 84.14 241.84 84.01 239.01 C 90.38 237.97 96.69 239.96 103.05 240.11 C 107.02 240.39 110.89 239.23 114.54 237.79 C 116.81 244.73 119.32 251.66 123.06 257.95 C 123.85 259.42 125.37 260.23 126.69 261.15 C 126.72 259.43 126.43 257.77 125.81 256.18 C 122.60 248.01 119.64 239.72 117.59 231.18 C 116.55 227.39 115.77 223.10 112.53 220.50 C 110.76 218.83 108.19 218.86 105.94 218.38 C 106.59 215.85 107.16 213.02 109.40 211.36 C 112.20 208.67 116.65 207.67 118.39 203.99 C 118.08 203.68 117.46 203.07 117.14 202.76 C 112.02 203.85 106.47 205.84 103.64 210.58 C 101.26 213.99 101.65 218.31 101.91 222.24 C 101.39 222.46 100.35 222.92 99.83 223.14 C 96.33 220.41 96.89 215.43 98.92 211.97 C 101.81 206.91 105.80 202.59 108.87 197.63 C 107.45 197.37 105.85 196.33 104.59 197.58 C 99.37 201.52 95.53 207.11 92.97 213.09 C 92.40 207.44 92.84 201.54 95.51 196.43 Z" />
        <path fill="#f0b58b" opacity="1.00"
            d=" M 739.85 373.86 C 744.44 369.19 749.54 365.06 753.91 360.17 C 763.95 375.36 774.12 390.48 784.76 405.27 C 798.68 423.82 813.72 441.71 825.01 462.07 C 828.20 467.58 828.26 474.09 830.04 480.07 C 833.90 492.37 841.95 502.93 845.37 515.39 C 847.58 523.80 846.87 533.95 840.28 540.30 C 836.68 544.52 831.06 545.86 825.81 546.61 C 821.67 547.42 817.48 548.48 813.24 547.79 C 817.95 542.68 825.25 541.59 830.80 537.75 C 834.26 534.59 835.50 529.62 835.66 525.09 C 835.81 522.11 832.91 520.62 830.69 519.40 C 827.27 517.63 823.97 515.42 821.74 512.21 C 819.57 509.50 818.58 506.01 816.15 503.52 C 813.78 503.50 814.65 506.43 814.99 507.80 C 816.09 511.18 817.49 514.52 819.60 517.41 C 822.47 521.17 826.99 522.98 831.05 525.14 C 830.57 528.81 829.50 532.45 826.89 535.19 C 822.88 529.20 816.85 525.12 811.46 520.50 C 806.30 515.88 804.23 508.81 804.26 502.06 C 804.15 494.61 804.55 486.77 801.10 479.92 C 793.20 465.09 782.39 452.13 771.86 439.13 C 766.96 433.03 760.80 428.14 755.52 422.40 C 744.55 410.40 731.81 399.87 722.70 386.27 C 728.73 382.60 734.82 378.88 739.85 373.86 Z" />
        <path fill="#f0b58b" opacity="1.00"
            d=" M 659.74 681.12 C 673.76 681.43 687.99 683.44 701.10 688.58 C 700.30 698.99 699.74 709.47 700.47 719.91 C 701.13 730.63 701.98 741.64 699.18 752.14 C 696.98 760.53 689.77 766.75 681.90 769.77 C 675.50 772.23 668.35 769.82 663.16 765.80 C 657.06 761.34 654.16 754.15 649.59 748.38 C 660.24 748.40 668.44 740.27 674.30 732.23 C 679.15 726.01 681.18 717.57 678.88 709.93 C 675.46 698.67 667.45 689.69 659.74 681.12 Z" />
        <path fill="#f0b58b" opacity="1.00"
            d=" M 607.54 739.65 C 619.21 744.28 631.52 747.54 644.16 747.57 C 648.02 755.44 652.12 763.56 658.76 769.50 C 643.86 769.90 629.51 774.78 616.45 781.70 C 613.37 767.71 610.25 753.72 607.54 739.65 Z" />
    </g>
    <g id="#f11b27ff">
        <path fill="var(--shirt-color, grey)" opacity="1.00"
            d=" M 552.03 199.09 C 559.34 198.44 566.64 197.55 573.99 197.33 C 580.52 197.15 587.18 196.06 593.63 197.65 C 599.73 199.14 605.27 202.22 610.69 205.30 C 620.51 210.86 630.01 217.00 640.23 221.84 C 654.37 228.85 669.20 235.25 680.95 246.08 C 691.27 255.78 700.96 266.17 709.55 277.46 C 717.64 287.74 724.73 298.79 733.23 308.76 C 743.81 321.13 755.08 333.18 762.84 347.62 C 758.32 349.52 754.27 352.43 751.08 356.15 C 746.75 361.13 741.61 365.29 736.99 369.98 C 731.91 375.08 725.72 378.86 719.57 382.51 C 715.12 385.05 710.97 388.15 706.21 390.10 C 703.39 386.52 700.62 382.78 696.86 380.12 C 689.19 374.53 680.00 370.63 674.10 362.92 C 671.38 359.60 670.08 355.35 669.87 351.11 C 669.27 332.00 673.25 313.20 677.30 294.64 C 678.01 291.01 679.38 287.25 678.09 283.57 C 675.32 286.93 674.39 291.25 673.17 295.32 C 669.27 309.28 665.98 323.49 665.00 337.99 C 662.81 333.91 660.49 329.90 657.96 326.02 C 655.29 322.00 653.06 317.56 649.31 314.40 C 648.95 317.81 650.87 320.74 652.37 323.62 C 656.30 330.86 660.63 337.99 663.11 345.90 C 664.57 350.40 663.53 355.16 662.43 359.62 C 659.07 372.51 652.02 383.99 647.46 396.42 C 644.43 404.78 643.08 414.83 648.40 422.59 C 653.77 432.74 663.28 441.08 664.82 452.95 C 665.91 459.90 667.36 467.00 666.21 474.03 C 664.70 478.51 659.26 479.74 655.06 479.80 C 641.30 480.13 627.74 477.08 614.00 476.82 C 590.90 475.55 567.53 480.28 546.63 490.18 C 559.59 481.23 573.63 473.71 588.65 468.88 C 591.28 468.02 594.00 467.33 596.47 466.04 C 596.17 464.27 594.84 463.36 593.11 463.60 C 587.77 464.00 582.74 466.02 577.73 467.74 C 566.05 471.90 554.89 477.57 544.87 484.89 C 530.54 495.42 517.53 507.62 503.42 518.43 C 493.42 525.93 482.42 532.72 469.94 534.95 C 465.73 535.61 461.48 533.31 459.07 529.94 C 456.33 526.11 455.16 521.45 454.06 516.95 C 451.88 507.12 451.31 496.96 452.00 486.92 C 452.56 476.83 456.00 467.13 456.19 457.00 C 457.36 449.66 455.33 441.97 450.77 436.13 C 446.95 430.97 441.43 426.68 439.92 420.15 C 437.49 410.69 437.86 400.81 436.42 391.19 C 435.28 381.04 432.02 371.10 426.50 362.47 C 422.67 356.60 419.12 350.45 417.16 343.68 C 413.78 333.00 409.40 321.66 400.02 314.83 C 397.94 313.09 395.17 313.39 393.05 314.89 C 395.89 316.63 398.76 318.49 400.74 321.24 C 407.96 330.23 409.99 341.85 413.83 352.41 C 400.64 342.79 384.30 339.44 368.62 336.29 C 364.99 335.55 361.00 335.40 357.99 332.99 C 352.76 328.95 347.33 324.91 343.55 319.39 C 334.25 306.92 328.52 292.30 323.22 277.80 C 320.91 271.08 318.70 264.28 315.01 258.16 C 321.05 257.73 327.01 258.87 333.02 259.18 C 341.99 259.63 349.07 252.09 358.07 252.74 C 364.50 252.73 370.34 257.70 376.83 255.60 C 390.73 251.63 400.99 240.53 414.26 235.17 C 421.17 232.28 428.51 230.43 435.93 229.42 C 442.35 228.46 448.77 229.79 455.17 230.32 C 464.05 231.18 473.04 234.07 481.94 231.82 C 487.01 230.55 492.07 229.07 496.79 226.79 C 498.15 226.03 500.38 224.88 499.46 222.93 C 494.47 222.99 489.94 225.32 485.11 226.23 C 477.43 228.17 469.52 226.65 461.79 225.97 C 465.66 223.94 469.52 221.74 472.60 218.58 C 477.86 213.17 482.13 206.67 488.45 202.37 C 491.07 200.44 494.38 200.12 497.50 199.73 C 503.99 199.03 510.51 198.38 517.05 198.37 C 528.71 198.31 540.36 200.11 552.03 199.09 M 433.06 242.31 C 435.11 254.75 438.36 267.23 437.16 279.95 C 436.82 286.88 434.59 293.59 434.66 300.55 C 435.81 299.86 437.49 299.49 437.85 297.96 C 442.37 284.93 442.77 270.72 439.62 257.32 C 438.21 252.09 437.50 245.98 433.06 242.31 M 443.79 244.33 C 444.14 246.06 444.32 248.01 445.65 249.34 C 449.11 253.29 453.46 256.34 457.83 259.20 C 467.11 265.23 478.19 267.24 488.79 269.66 C 497.85 271.41 507.73 272.67 516.51 269.07 C 514.63 267.52 512.25 267.53 509.98 267.54 C 498.00 267.68 486.38 264.31 474.95 261.11 C 465.59 258.50 456.85 253.81 449.41 247.59 C 447.79 246.10 445.91 244.92 443.79 244.33 M 529.17 365.28 C 517.20 369.26 504.39 369.01 491.95 368.40 C 487.14 368.31 482.23 367.57 477.53 368.91 C 480.65 371.76 485.06 371.45 488.97 371.94 C 499.29 372.64 509.70 373.91 520.03 372.57 C 534.67 370.83 547.70 362.98 559.23 354.22 C 562.26 351.63 566.63 349.24 566.36 344.62 C 554.44 352.28 542.82 360.89 529.17 365.28 M 604.95 418.00 C 587.34 425.61 569.04 432.11 550.02 435.02 C 529.89 438.11 509.36 434.93 490.00 429.21 C 480.80 426.42 471.55 423.78 462.55 420.39 C 458.60 418.95 454.97 416.71 450.91 415.56 C 448.40 416.76 450.42 419.03 451.94 420.05 C 457.79 424.09 464.56 426.53 471.25 428.81 C 487.21 434.03 503.21 439.71 520.01 441.47 C 539.78 443.93 559.91 440.98 578.73 434.74 C 589.03 431.40 599.30 427.49 608.25 421.29 C 612.32 418.37 617.14 416.03 619.72 411.53 C 614.08 411.40 610.02 416.17 604.95 418.00 M 535.88 454.31 C 518.83 455.49 501.68 454.16 484.78 451.83 C 484.48 452.12 483.88 452.70 483.59 452.99 C 485.43 456.66 490.29 456.50 493.76 457.54 C 512.53 460.61 532.15 462.48 550.79 457.59 C 557.61 455.81 563.85 452.40 570.59 450.35 C 569.67 448.83 568.12 447.84 566.33 448.50 C 556.23 450.66 546.24 453.59 535.88 454.31 Z" />
    </g>
    <g id="#ffffffff">
        <path fill="var(--pants-color, grey)" opacity="1.00"
            d=" M 558.47 490.63 C 573.75 485.52 589.75 482.03 605.95 482.41 C 620.39 482.39 634.67 484.98 649.06 485.79 C 654.79 492.53 658.88 500.63 660.94 509.23 C 662.29 514.54 661.24 520.17 663.04 525.41 C 653.74 523.42 644.18 524.91 634.95 526.53 C 629.38 527.92 622.80 528.44 618.87 533.15 C 623.36 533.95 627.66 532.16 632.03 531.48 C 641.83 529.79 651.87 528.48 661.79 529.71 C 663.76 530.20 666.55 530.16 667.41 532.40 C 671.87 541.85 673.10 552.36 675.90 562.34 C 680.58 581.41 688.07 599.65 692.49 618.79 C 694.72 628.02 696.39 637.36 698.15 646.69 C 700.46 658.99 700.91 671.54 701.31 684.02 C 690.67 678.73 678.72 676.44 666.94 675.59 C 663.26 675.20 659.63 676.04 656.22 677.33 C 653.23 674.13 650.07 671.01 646.21 668.87 C 639.67 664.93 631.95 664.09 624.70 662.22 C 603.46 656.80 581.67 652.83 561.47 644.03 C 559.02 636.54 562.59 628.87 566.49 622.57 C 570.32 616.15 576.31 611.45 580.97 605.72 C 581.11 605.11 581.39 603.89 581.53 603.28 C 579.46 603.63 577.56 604.53 576.03 605.95 C 569.25 611.84 562.68 618.41 559.09 626.80 C 561.33 612.69 569.91 600.67 579.87 590.84 C 585.34 585.29 591.47 580.46 597.63 575.72 C 596.03 573.01 593.24 575.25 591.35 576.34 C 579.23 584.55 567.29 594.17 560.64 607.55 C 557.36 613.83 555.23 620.74 554.88 627.84 C 550.37 618.51 547.09 608.48 546.32 598.10 C 544.80 579.22 546.13 559.54 554.14 542.13 C 550.47 542.18 549.09 545.90 547.88 548.72 C 541.46 565.99 539.58 584.85 542.10 603.08 C 543.59 613.70 547.59 623.83 552.93 633.08 C 554.70 636.14 556.37 639.25 557.88 642.46 C 553.73 640.52 549.76 638.22 545.96 635.66 C 546.33 625.76 543.11 615.76 536.82 608.08 C 532.61 602.87 527.76 597.15 520.74 596.06 C 514.84 594.69 509.14 597.53 504.14 600.35 C 499.19 602.58 494.92 605.97 490.77 609.42 C 479.58 594.19 472.84 575.88 471.27 557.06 C 470.61 551.03 470.99 544.96 470.77 538.92 C 488.02 536.02 502.61 525.61 515.90 514.85 C 521.02 510.93 525.67 506.33 531.41 503.27 C 540.16 498.53 549.02 493.85 558.47 490.63 M 603.52 623.08 C 602.10 626.04 606.20 625.73 608.00 626.28 C 621.42 628.01 634.57 632.09 646.44 638.64 C 660.36 646.28 672.99 655.97 685.83 665.24 C 687.44 666.55 689.50 666.81 691.52 666.95 C 691.20 663.16 688.00 660.91 685.42 658.60 C 676.48 651.06 666.98 644.20 657.12 637.93 C 645.36 630.32 631.96 625.35 618.09 623.40 C 613.29 622.81 608.30 621.98 603.52 623.08 Z" />
        <path fill="var(--socks-color, grey)" opacity="1.00"
            d=" M 545.65 639.47 C 551.62 644.60 558.88 647.85 566.01 651.03 C 584.08 658.94 603.53 662.75 622.52 667.75 C 628.99 669.50 635.87 670.05 641.94 673.08 C 648.20 676.18 652.43 681.92 657.12 686.89 C 664.00 694.53 671.16 702.65 673.90 712.80 C 676.16 721.35 670.89 729.32 665.26 735.22 C 660.97 739.53 655.58 743.98 649.08 743.34 C 641.54 742.36 633.82 742.47 626.47 740.32 C 608.43 735.57 591.33 727.46 575.75 717.27 C 570.78 714.35 566.22 710.80 561.26 707.87 C 551.54 701.63 541.96 694.74 530.78 691.37 C 525.10 689.75 519.35 687.98 513.39 687.99 C 521.57 679.30 531.52 672.35 538.70 662.72 C 543.62 656.01 545.29 647.63 545.65 639.47 Z" />
        <path fill="var(--socks-color, grey)" opacity="1.00"
            d=" M 617.52 785.78 C 632.09 778.94 647.71 773.32 664.01 773.38 C 668.39 774.77 672.77 776.48 677.46 776.35 C 684.89 784.94 690.62 794.79 696.60 804.39 C 703.76 815.92 709.13 828.42 715.85 840.20 C 723.62 854.26 729.04 869.42 734.34 884.54 C 737.05 892.79 741.66 900.23 744.78 908.31 C 746.92 914.85 747.55 922.59 743.54 928.58 C 740.83 932.71 737.19 937.17 732.06 938.08 C 726.08 937.94 720.23 935.29 714.20 936.51 C 710.08 937.18 706.84 940.05 704.18 943.08 C 694.57 922.59 687.05 900.84 673.48 882.48 C 669.43 876.90 664.43 872.07 660.71 866.26 C 654.07 856.24 647.72 846.02 640.84 836.17 C 633.68 825.39 625.86 814.74 621.89 802.27 C 620.09 796.87 618.89 791.29 617.52 785.78 Z" />
    </g>
    <g id="#4d4d4dff">
        <path fill="#4d4d4d" opacity="1.00"
            d=" M 513.36 601.09 C 517.69 599.78 522.60 601.07 525.93 604.08 C 533.99 611.49 540.07 621.77 540.17 632.97 C 540.07 638.80 539.62 644.68 538.30 650.37 C 535.99 659.45 528.64 665.85 522.03 671.96 C 510.52 681.79 500.98 694.07 487.79 701.84 C 482.80 704.50 476.31 707.46 470.94 704.13 C 464.57 699.69 463.18 691.23 463.14 684.00 C 463.45 675.24 465.64 666.48 469.71 658.70 C 471.83 654.62 474.76 651.03 477.02 647.02 C 482.14 638.32 483.12 627.63 489.69 619.69 C 496.04 611.92 503.39 603.94 513.36 601.09 M 522.22 603.33 C 523.86 611.93 520.93 620.47 517.02 628.03 C 513.15 634.95 507.30 641.13 506.23 649.30 C 505.28 656.15 502.37 662.65 498.04 668.03 C 492.94 674.29 488.15 680.81 482.79 686.85 C 481.54 688.62 479.07 690.58 480.49 692.94 C 484.12 692.44 486.56 689.44 489.08 687.09 C 497.02 678.93 506.00 671.03 509.98 660.03 C 512.41 654.49 511.71 648.05 514.79 642.77 C 517.96 636.97 522.10 631.64 524.25 625.32 C 525.90 620.39 527.46 615.21 527.03 609.95 C 526.71 607.14 525.54 603.58 522.22 603.33 Z" />
        <path fill="#4d4d4d" opacity="1.00"
            d=" M 747.19 901.18 C 751.51 893.43 759.54 887.93 768.24 886.37 C 770.55 885.89 773.15 886.25 774.79 888.10 C 779.09 892.51 780.98 898.92 780.79 904.98 C 780.34 912.64 775.32 918.85 772.82 925.87 C 768.57 937.44 765.55 949.55 759.51 960.40 C 755.43 968.38 748.36 974.56 740.37 978.46 C 734.07 981.48 726.00 982.20 720.02 978.06 C 715.42 975.15 712.83 970.15 710.73 965.32 C 708.56 960.38 707.03 955.20 705.38 950.08 C 707.79 947.02 709.82 943.16 713.70 941.78 C 721.28 939.45 729.25 945.36 736.65 941.81 C 745.59 936.72 752.36 926.55 751.09 915.97 C 751.06 910.74 748.58 906.07 747.19 901.18 Z" />
    </g>
</svg>