<?xml version="1.0" encoding="UTF-8" ?>
<!DOCTYPE svg PUBLIC "-//W3C//DTD SVG 1.1//EN" "http://www.w3.org/Graphics/SVG/1.1/DTD/svg11.dtd">
<svg width="1000pt" height="1000pt" viewBox="0 0 1000 1000" version="1.1" xmlns="http://www.w3.org/2000/svg">
	<g id="#020202ff">
		<path fill="#020202" opacity="1.00"
			d=" M 532.83 18.51 C 538.21 17.35 543.20 14.14 548.90 14.53 C 559.04 15.06 568.38 19.51 577.53 23.49 C 585.71 27.27 594.05 30.71 602.62 33.51 C 606.66 34.90 610.82 36.17 614.39 38.59 C 618.47 41.22 620.88 45.61 623.40 49.61 C 625.67 53.22 626.57 57.47 628.61 61.18 C 639.49 69.95 655.36 71.04 667.65 64.57 C 679.92 57.52 693.72 52.64 707.97 52.23 C 727.43 51.55 746.91 58.69 761.72 71.26 C 775.54 82.96 785.30 99.52 788.31 117.42 C 790.70 131.32 788.85 145.94 782.86 158.72 C 772.05 182.71 746.11 198.60 719.90 197.84 C 717.12 197.75 714.82 196.04 712.50 194.73 C 705.98 194.69 699.47 194.13 693.08 192.82 C 695.81 196.71 698.73 200.54 702.48 203.52 C 708.98 209.09 717.37 212.42 722.57 219.45 C 724.42 222.06 726.69 224.67 727.11 227.95 C 727.14 230.01 726.64 232.01 726.26 234.02 C 735.03 240.97 745.51 245.12 754.87 251.12 C 761.12 255.01 766.73 259.77 772.50 264.32 C 779.03 262.27 785.14 258.81 792.00 257.87 C 804.98 255.85 818.14 255.26 831.12 253.15 C 838.68 251.90 846.21 249.67 852.67 245.45 C 851.61 235.14 849.35 223.20 856.48 214.45 C 862.01 206.90 872.74 206.77 878.64 199.65 C 882.48 200.95 883.54 204.99 884.43 208.49 C 892.00 208.09 899.60 207.88 907.17 208.41 C 912.53 208.80 918.61 210.59 921.26 215.73 C 923.33 219.18 922.45 223.30 922.02 227.06 C 921.44 229.79 923.57 232.00 924.46 234.41 C 926.34 238.27 925.88 242.68 925.27 246.78 C 927.24 250.09 927.91 253.91 927.21 257.71 C 927.62 259.91 929.11 262.50 927.50 264.55 C 924.94 268.15 920.94 270.36 917.04 272.21 C 910.73 275.24 903.97 277.13 897.32 279.21 C 891.09 281.19 884.54 282.36 877.99 282.08 C 873.77 281.82 869.24 279.94 865.24 282.14 C 858.75 285.08 855.12 291.46 850.22 296.26 C 843.68 302.78 836.69 308.82 829.55 314.66 C 819.87 322.82 809.13 330.38 796.57 333.19 C 779.12 336.92 760.25 334.93 744.41 326.50 C 729.24 318.63 715.64 308.16 701.60 298.50 C 691.66 291.40 681.49 284.64 671.72 277.32 C 666.85 273.53 662.52 269.09 657.49 265.50 C 654.56 265.82 651.42 266.80 648.59 265.51 C 646.14 264.45 643.95 262.86 641.87 261.21 C 636.21 256.48 630.44 251.89 624.76 247.20 C 613.95 239.60 601.41 235.06 589.85 228.77 C 585.84 232.20 581.82 235.72 577.09 238.14 C 568.52 242.68 558.53 243.57 549.00 242.93 C 542.30 242.60 535.30 241.84 528.83 244.03 C 522.55 251.25 516.22 259.60 506.58 262.37 C 499.88 263.63 492.96 261.91 486.27 263.51 C 487.65 266.33 490.72 268.70 490.40 272.08 C 486.44 274.02 481.86 272.53 477.67 272.32 C 480.81 274.25 485.18 275.97 485.92 280.02 C 484.89 285.18 480.42 288.92 479.40 294.15 C 476.38 302.97 485.56 310.82 482.45 319.59 C 480.42 324.82 477.49 329.68 475.96 335.11 C 479.82 337.24 484.75 338.97 486.54 343.38 C 487.97 348.88 483.69 353.62 483.20 358.94 C 484.06 362.71 486.97 365.56 488.42 369.08 C 488.27 371.43 487.39 373.65 487.03 375.97 C 486.02 382.35 488.31 388.68 487.83 395.06 C 486.87 402.55 483.36 409.65 478.02 414.99 C 472.99 420.00 467.80 424.86 462.29 429.34 C 462.15 434.92 461.14 440.43 461.12 446.02 C 460.98 453.00 461.89 459.97 461.62 466.96 C 461.48 481.46 457.96 495.66 454.54 509.67 C 457.32 509.35 460.42 508.37 463.01 509.94 C 467.61 512.39 469.16 517.76 470.75 522.34 C 474.54 534.06 476.51 547.17 471.89 558.96 C 468.13 568.90 461.36 577.54 453.15 584.20 C 446.08 590.08 438.81 595.75 432.32 602.28 C 425.85 608.50 420.88 616.14 413.99 621.95 C 406.52 628.45 397.20 633.47 387.11 633.71 C 381.59 633.90 374.84 634.90 370.77 630.24 C 364.40 623.24 363.26 613.03 363.97 603.97 C 365.43 588.96 375.07 576.33 386.15 566.78 C 385.32 561.58 384.43 556.35 382.55 551.42 C 379.67 543.36 375.20 536.04 371.50 528.37 C 367.61 520.47 366.16 511.63 365.58 502.92 C 365.28 494.71 365.32 486.18 368.47 478.46 C 369.76 474.73 372.06 471.02 371.40 466.93 C 367.41 459.92 359.93 456.07 354.54 450.31 C 352.40 447.74 348.66 447.89 346.21 445.81 C 344.47 443.87 343.70 441.32 342.64 439.00 C 337.28 447.80 333.86 457.65 331.44 467.61 C 327.06 470.29 321.58 469.29 316.70 469.64 C 313.60 482.57 308.73 494.97 304.82 507.66 C 302.78 514.38 300.62 521.06 298.64 527.80 C 293.64 544.00 290.50 560.87 283.17 576.27 C 277.92 587.83 269.21 597.41 259.78 605.73 C 254.13 610.68 251.78 618.25 246.14 623.20 C 243.09 626.19 239.21 628.07 235.45 630.00 C 234.73 634.42 233.99 638.93 232.03 643.01 C 228.94 650.20 223.45 655.97 219.88 662.90 C 215.39 671.12 213.96 680.49 211.23 689.35 C 208.25 698.80 206.64 708.68 202.86 717.88 C 191.63 744.50 181.22 771.45 170.08 798.10 C 165.54 810.02 162.77 822.52 160.52 835.05 C 160.10 840.89 158.90 847.09 161.26 852.68 C 165.42 864.73 168.41 877.23 169.68 889.92 C 170.46 896.59 170.72 903.34 172.39 909.87 C 175.18 921.30 181.23 931.51 185.74 942.28 C 190.01 952.10 194.79 962.13 195.14 973.04 C 195.01 977.31 194.01 982.72 189.57 984.56 C 183.40 987.78 176.20 985.82 169.91 984.01 C 155.19 979.27 142.17 970.45 130.43 960.57 C 122.02 953.42 115.02 944.51 110.59 934.37 C 107.38 926.89 103.70 919.59 99.16 912.83 C 94.33 905.41 87.88 899.12 83.81 891.21 C 80.59 884.90 77.43 878.17 77.53 870.93 C 77.51 865.36 80.69 860.40 84.43 856.52 C 89.84 850.90 95.64 845.66 100.71 839.72 C 104.26 835.53 107.25 830.91 110.83 826.76 C 110.05 805.27 115.64 784.32 117.74 763.07 C 119.46 748.73 121.05 734.36 121.66 719.93 C 122.57 707.93 122.82 695.84 125.01 683.97 C 128.22 666.41 133.18 649.07 140.91 632.94 C 144.92 624.64 148.86 616.04 155.35 609.35 C 157.21 607.27 159.49 605.51 160.87 603.05 C 166.60 590.95 171.20 578.36 175.79 565.79 C 179.12 556.97 182.18 547.98 183.42 538.60 C 184.88 529.77 184.03 520.74 185.56 511.92 C 187.54 499.95 191.96 488.58 195.01 476.87 C 200.12 459.24 202.33 440.83 201.71 422.49 C 198.27 421.01 194.02 420.49 191.37 417.69 C 191.43 407.71 199.76 399.99 200.56 390.09 C 202.36 373.03 199.90 355.64 203.71 338.77 C 205.24 332.28 208.00 326.14 211.41 320.43 C 215.78 312.85 221.88 306.30 225.11 298.07 C 228.30 291.17 227.45 283.27 230.13 276.22 C 234.89 262.98 244.06 251.74 254.85 242.88 C 259.15 239.44 263.23 235.73 267.50 232.25 C 267.45 215.10 275.02 198.78 285.54 185.56 C 292.21 177.60 299.43 170.12 306.65 162.66 C 312.97 156.13 317.05 147.84 323.00 141.00 C 327.04 136.37 331.39 132.03 335.77 127.72 C 340.46 123.11 345.98 119.26 349.76 113.78 C 354.25 107.37 359.88 101.84 365.95 96.93 C 362.39 93.70 361.09 88.79 361.56 84.12 C 362.34 77.56 363.84 70.50 368.85 65.79 C 377.93 56.83 390.78 53.99 402.66 50.69 C 414.22 47.45 426.25 45.94 437.53 41.72 C 437.47 41.25 437.35 40.31 437.29 39.84 C 446.82 34.93 457.36 32.37 467.94 30.99 C 475.43 30.08 482.72 28.04 489.93 25.87 C 495.46 24.28 499.81 20.13 505.38 18.64 C 514.32 15.85 523.75 17.47 532.83 18.51 M 533.26 24.29 C 523.72 29.28 516.23 37.24 506.89 42.53 C 523.27 42.30 539.72 41.22 556.05 43.07 C 558.17 43.58 561.41 42.49 562.46 45.02 C 558.42 48.19 552.87 47.35 548.07 47.76 C 533.38 47.07 518.70 47.95 504.02 48.28 C 492.79 48.42 482.07 52.19 471.16 54.40 C 459.36 56.85 448.02 61.43 437.86 67.90 C 431.96 71.94 425.11 74.24 418.43 76.60 C 408.00 79.84 398.10 84.52 388.25 89.18 C 376.08 95.31 364.05 102.73 355.79 113.84 C 353.24 117.51 350.63 121.19 347.25 124.17 C 340.33 130.29 333.85 136.89 327.73 143.80 C 322.31 149.88 318.58 157.20 313.47 163.50 C 302.17 176.52 288.75 188.07 280.49 203.45 C 275.72 211.86 272.94 221.24 271.30 230.73 C 283.64 239.39 296.86 246.67 309.92 254.15 C 325.09 262.89 338.56 274.15 352.87 284.17 C 363.79 292.14 375.48 300.00 389.02 302.50 C 395.59 303.89 402.35 303.58 409.02 303.42 C 417.08 303.15 425.29 302.07 432.69 298.68 C 440.94 295.01 447.18 287.84 455.91 285.10 C 464.57 282.32 473.83 282.29 482.61 279.96 C 478.56 276.42 473.55 273.63 468.18 272.93 C 447.08 273.97 426.20 278.04 405.04 278.19 C 399.29 278.24 393.31 277.00 388.75 273.31 C 379.35 265.89 372.13 256.09 366.12 245.82 C 362.61 239.76 358.93 233.80 355.02 227.98 C 352.67 224.45 349.97 221.11 348.31 217.18 C 353.11 217.92 355.52 222.41 358.21 225.90 C 369.01 240.67 377.15 257.73 391.23 269.83 C 397.98 275.91 407.75 274.41 416.06 274.00 C 429.64 273.39 443.03 270.97 456.55 269.76 C 465.56 268.92 474.63 267.52 483.69 268.67 C 482.34 265.81 480.68 261.27 484.36 259.40 C 491.09 256.28 498.68 258.97 505.72 257.80 C 513.00 255.90 517.89 249.83 523.43 245.20 C 519.08 245.96 514.58 246.49 510.24 245.42 C 504.63 244.30 499.74 241.17 495.32 237.68 C 486.90 231.09 477.35 226.14 467.57 221.93 C 468.18 218.90 471.70 219.32 473.94 220.00 C 481.17 222.11 488.10 225.40 494.22 229.81 C 499.71 233.69 504.77 238.63 511.50 240.29 C 518.07 242.15 524.61 239.27 531.02 238.12 C 542.58 235.64 554.45 239.46 566.00 236.84 C 573.48 235.54 580.01 231.40 585.98 226.91 C 580.01 223.56 574.15 219.97 567.96 217.04 C 563.98 215.10 559.32 216.43 555.31 214.59 C 559.52 212.69 564.25 211.63 568.87 212.36 C 573.00 213.36 576.62 215.72 580.33 217.72 C 592.55 224.80 605.47 230.56 617.97 237.14 C 624.13 240.32 629.52 244.72 634.50 249.51 C 639.75 253.69 644.61 258.83 651.04 261.18 C 655.26 261.01 659.20 259.17 663.28 258.18 C 679.20 253.42 696.18 252.38 711.45 245.48 C 715.95 243.64 717.71 238.72 719.72 234.69 C 720.89 231.69 722.92 228.35 721.73 225.08 C 715.26 216.58 704.78 212.91 697.02 205.88 C 689.68 199.55 685.59 190.58 680.45 182.56 C 675.64 174.54 670.42 166.76 664.50 159.52 C 658.84 152.59 653.38 145.19 645.79 140.25 C 641.48 137.46 636.73 135.40 632.47 132.53 C 619.32 124.03 608.33 112.65 598.06 100.94 C 594.30 96.28 590.00 91.71 588.31 85.82 C 590.55 84.35 592.43 86.63 593.75 88.19 C 597.18 92.44 600.84 96.50 604.59 100.46 C 616.35 112.73 628.79 124.69 643.82 132.90 C 638.10 122.95 638.64 111.16 635.52 100.41 C 633.79 94.04 631.26 87.92 629.08 81.70 C 625.79 72.31 623.97 62.39 619.72 53.34 C 617.00 48.38 613.86 42.91 608.28 40.80 C 601.91 38.33 595.23 36.75 588.88 34.20 C 576.98 29.85 565.89 23.23 553.45 20.43 C 546.49 18.70 539.47 21.30 533.26 24.29 M 502.61 24.59 C 496.58 28.16 493.21 34.61 488.31 39.40 C 483.99 43.29 479.00 47.57 472.81 47.36 C 476.08 44.05 480.24 41.81 483.51 38.51 C 485.89 36.12 487.96 33.46 490.13 30.89 C 482.82 32.85 475.48 34.91 467.89 35.51 C 459.58 36.31 451.47 38.37 443.51 40.85 C 447.23 45.43 447.85 51.34 447.88 57.01 C 462.83 49.86 479.36 47.31 495.25 43.08 C 507.76 39.21 516.33 28.77 527.23 22.14 C 519.03 21.36 510.14 20.54 502.61 24.59 M 420.29 51.31 C 408.17 54.11 395.97 56.87 384.37 61.44 C 377.61 64.40 370.30 68.90 368.41 76.56 C 367.00 82.22 365.18 89.27 369.84 93.96 C 382.41 85.76 396.02 79.29 410.03 73.97 C 417.17 71.64 424.50 69.68 431.26 66.31 C 435.67 63.85 440.05 61.32 444.48 58.90 C 443.36 53.89 442.45 48.79 440.28 44.11 C 434.49 48.51 427.24 49.90 420.29 51.31 M 630.79 69.34 C 633.96 82.00 640.08 93.77 642.21 106.70 C 642.94 111.16 643.75 115.62 644.30 120.11 C 643.89 103.21 649.17 86.17 659.63 72.83 C 649.94 74.01 639.78 73.42 630.79 69.34 M 663.52 149.40 C 667.75 154.57 671.94 159.78 675.84 165.20 C 683.76 164.76 691.96 162.38 697.82 156.80 C 700.17 154.50 702.19 150.77 700.46 147.55 C 698.56 144.18 694.64 142.70 691.04 142.02 C 681.35 140.32 671.20 143.40 663.52 149.40 M 684.36 178.18 C 686.11 180.74 687.28 183.85 689.61 185.94 C 696.76 188.56 704.34 190.08 711.95 190.38 C 705.91 187.22 699.01 186.24 692.93 183.18 C 689.94 181.74 687.12 180.00 684.36 178.18 M 868.03 211.16 C 863.87 213.04 860.17 216.27 858.55 220.62 C 854.77 229.26 859.13 238.86 856.85 247.75 C 855.49 250.37 852.90 252.10 850.35 253.44 C 842.80 257.29 834.33 258.72 826.02 259.87 C 815.01 261.45 803.89 262.10 792.86 263.49 C 787.83 264.08 783.26 266.39 778.48 267.89 C 780.12 268.83 781.92 269.60 783.33 270.92 C 784.15 272.90 781.68 274.16 780.05 273.88 C 773.41 273.38 767.94 269.09 762.90 265.14 C 750.99 254.89 735.94 249.39 723.79 239.51 C 721.72 243.31 719.78 247.64 715.78 249.77 C 699.61 258.23 681.06 259.20 663.68 263.80 C 668.32 267.71 672.77 271.86 677.80 275.27 C 692.89 285.82 708.00 296.35 723.06 306.95 C 736.79 316.20 751.00 326.15 767.78 328.60 C 781.30 330.59 795.78 329.47 808.04 323.04 C 816.15 318.88 823.05 312.80 830.07 307.07 C 838.00 300.39 845.94 293.63 852.77 285.80 C 857.08 281.38 862.26 276.33 868.92 276.66 C 877.51 277.81 886.29 276.84 894.59 274.41 C 904.59 271.44 914.94 268.60 923.51 262.38 C 922.32 260.04 921.86 257.49 922.26 254.89 C 922.72 252.02 920.36 249.81 919.99 247.09 C 920.10 244.07 920.90 241.03 920.25 238.01 C 919.54 234.83 917.11 232.31 916.59 229.08 C 916.38 225.51 918.02 221.77 916.52 218.34 C 915.09 215.32 911.57 214.36 908.56 213.78 C 900.47 212.39 892.22 212.79 884.09 211.80 C 883.70 213.88 883.31 215.95 882.93 218.03 C 889.76 217.82 896.15 214.55 903.05 215.07 C 904.42 215.26 907.07 214.98 906.80 217.20 C 902.85 218.88 898.56 219.48 894.47 220.70 C 889.93 221.86 884.91 223.73 880.38 221.53 C 878.54 220.62 878.01 218.37 878.62 216.53 C 879.65 212.43 880.34 208.17 879.34 203.98 C 875.86 206.81 872.09 209.27 868.03 211.16 M 235.57 274.61 C 231.64 282.37 232.86 291.48 229.43 299.39 C 227.23 304.85 224.11 309.88 220.65 314.63 C 213.86 324.18 208.34 335.05 207.19 346.87 C 205.09 361.85 207.24 377.07 205.00 392.04 C 203.75 400.35 198.26 407.08 195.46 414.85 C 200.81 416.78 206.30 418.30 211.61 420.35 C 227.45 427.00 241.00 437.80 256.00 446.00 C 264.25 450.65 273.29 453.58 282.16 456.78 C 297.27 462.15 313.33 464.06 329.28 464.60 C 329.63 457.60 332.02 450.94 334.46 444.44 C 336.30 439.68 339.41 435.36 343.86 432.74 C 345.97 436.21 346.89 440.97 350.45 443.27 C 368.54 445.45 386.90 445.20 405.06 443.79 C 415.12 443.20 425.19 441.80 434.82 438.74 C 448.86 434.45 460.32 424.72 471.00 415.03 C 476.11 410.39 481.28 405.18 483.27 398.37 C 485.03 392.68 482.98 386.80 482.81 381.04 C 482.42 377.26 483.10 373.51 484.10 369.89 C 482.13 366.40 479.29 363.15 478.79 359.05 C 478.90 354.08 482.21 349.86 482.57 344.94 C 480.39 340.69 474.31 340.82 472.01 336.89 C 470.86 329.27 477.09 323.22 478.34 316.05 C 478.01 310.79 474.73 306.28 474.10 301.07 C 473.09 295.21 476.12 289.76 478.80 284.80 C 471.00 286.80 462.70 286.91 455.27 290.27 C 448.52 293.18 443.25 298.52 436.71 301.80 C 426.39 307.26 414.46 308.27 402.98 308.25 C 393.90 308.49 384.74 307.04 376.28 303.70 C 367.44 300.05 359.28 294.97 351.58 289.34 C 342.75 283.26 334.13 276.86 325.44 270.58 C 307.95 257.53 287.85 248.59 270.25 235.69 C 257.22 247.16 242.50 258.10 235.57 274.61 M 205.68 423.60 C 207.92 441.63 205.54 459.98 200.62 477.40 C 197.62 488.93 193.28 500.10 191.12 511.85 C 189.26 521.42 190.21 531.26 188.45 540.85 C 186.81 552.78 182.12 563.94 178.11 575.20 C 175.24 582.53 172.70 590.01 169.34 597.14 C 172.82 595.01 176.03 591.71 180.35 591.65 C 180.93 594.42 178.27 595.91 176.54 597.51 C 170.91 601.93 165.80 606.96 160.43 611.69 C 168.95 611.13 176.62 615.34 184.04 618.91 C 198.88 626.20 213.09 636.00 222.35 649.97 C 225.64 645.10 228.80 639.91 229.76 634.02 C 230.38 631.22 230.35 627.78 232.93 625.94 C 236.02 623.64 239.69 622.20 242.47 619.47 C 245.98 616.47 247.94 612.21 250.43 608.42 C 255.08 601.20 262.71 596.68 267.82 589.84 C 280.42 575.71 285.12 556.82 289.90 539.00 C 296.36 515.54 304.39 492.58 312.45 469.64 C 301.78 468.68 291.24 466.37 281.14 462.78 C 270.23 458.80 259.12 455.00 249.21 448.84 C 234.84 440.20 221.55 429.48 205.68 423.60 M 416.21 447.10 C 397.58 448.44 378.88 450.30 360.20 448.70 C 364.27 451.60 368.16 454.76 371.59 458.42 C 373.66 460.71 376.20 463.02 376.65 466.25 C 377.18 473.31 372.28 479.25 371.64 486.11 C 373.21 494.07 380.20 499.72 387.41 502.60 C 400.58 507.72 415.50 506.42 428.60 501.72 C 438.69 497.93 448.62 491.93 454.45 482.62 C 457.73 466.05 453.18 448.70 458.20 432.32 C 446.25 441.68 431.11 445.75 416.21 447.10 M 397.11 509.37 C 386.61 507.90 376.10 502.71 370.70 493.23 C 370.68 503.99 371.36 515.12 375.95 525.05 C 379.70 533.21 384.23 541.02 387.48 549.42 C 391.82 560.65 393.12 573.45 388.56 584.83 C 396.07 588.90 400.75 596.30 407.56 601.25 C 413.23 597.12 417.53 591.13 419.24 584.29 C 420.20 580.14 417.96 575.77 419.83 571.77 C 423.41 562.88 429.62 555.41 434.18 547.04 C 444.36 529.80 449.76 510.25 453.36 490.69 C 438.98 505.33 417.36 512.27 397.11 509.37 M 452.66 516.52 C 448.88 529.99 443.20 542.91 435.80 554.79 C 432.36 560.68 427.98 566.03 425.19 572.29 C 424.02 574.71 424.48 577.43 424.57 580.02 C 425.14 586.17 422.11 591.91 418.95 596.96 C 416.17 600.93 412.34 605.55 407.01 605.32 C 402.22 604.46 399.95 599.46 396.50 596.53 C 392.93 592.28 387.33 590.32 383.86 586.08 C 384.13 582.22 385.37 578.52 386.21 574.77 C 377.50 583.39 370.20 594.49 369.61 607.08 C 369.52 613.52 370.45 620.42 374.28 625.80 C 376.86 629.61 382.06 628.87 386.04 628.92 C 397.18 628.21 406.73 621.05 414.23 613.29 C 419.77 607.13 424.42 600.18 430.56 594.57 C 437.17 588.13 444.48 582.49 451.44 576.45 C 460.00 568.71 466.77 558.40 468.52 546.83 C 469.71 538.77 466.65 531.00 464.66 523.34 C 463.58 520.48 462.85 516.80 459.89 515.32 C 457.43 515.37 455.05 516.05 452.66 516.52 M 127.15 711.03 C 126.11 727.73 124.97 744.44 122.77 761.03 C 120.75 782.04 115.59 802.75 115.74 823.94 C 115.87 827.78 116.43 832.67 120.31 834.60 C 124.35 836.43 128.73 837.85 131.90 841.14 C 137.84 846.38 140.18 854.17 144.25 860.72 C 146.14 863.62 148.44 866.80 152.06 867.55 C 154.43 863.64 154.76 858.95 155.26 854.51 C 155.79 844.71 155.59 834.76 157.94 825.16 C 159.90 815.31 162.58 805.59 166.08 796.17 C 175.69 772.59 185.24 748.98 194.12 725.12 C 197.68 715.51 202.22 706.23 204.43 696.17 C 208.43 682.35 210.58 667.64 218.46 655.30 C 214.92 650.65 211.16 646.15 206.94 642.10 C 196.86 632.15 184.10 625.54 171.24 619.94 C 166.29 617.63 160.76 617.77 155.43 617.62 C 137.69 645.39 128.35 678.19 127.15 711.03 M 87.92 860.16 C 94.02 861.40 99.69 864.50 103.74 869.27 C 113.25 880.06 115.30 895.08 123.22 906.83 C 134.02 920.86 149.73 929.65 163.11 940.89 C 172.14 948.52 182.28 955.13 189.23 964.90 C 184.38 947.90 174.81 932.75 168.97 916.13 C 165.01 905.23 165.06 893.53 163.41 882.19 C 162.35 874.61 160.29 867.22 158.85 859.71 C 157.78 863.40 157.45 867.79 154.38 870.49 C 151.69 872.70 147.93 871.40 145.54 869.40 C 137.29 863.13 135.79 851.69 128.04 845.00 C 125.05 842.30 121.12 841.11 117.66 839.19 C 115.00 837.75 113.57 834.93 111.90 832.54 C 105.06 842.68 96.81 851.79 87.92 860.16 M 84.24 866.30 C 81.85 871.12 83.62 876.85 85.25 881.66 C 89.79 894.40 100.73 903.13 107.29 914.68 C 113.22 923.83 115.88 934.72 122.40 943.53 C 126.91 949.92 132.58 955.42 138.71 960.26 C 150.14 969.34 162.99 977.25 177.42 980.37 C 181.22 981.25 185.13 980.77 188.86 979.82 C 189.46 970.40 182.68 962.81 176.01 957.09 C 167.11 949.95 158.17 942.84 149.07 935.95 C 139.00 928.88 129.21 921.20 121.27 911.74 C 115.87 905.18 113.02 897.05 109.53 889.42 C 105.88 880.82 101.72 871.56 93.32 866.61 C 90.69 865.03 86.40 862.95 84.24 866.30 Z" />
		<path fill="#020202" opacity="1.00"
			d=" M 411.92 92.89 C 416.42 89.16 420.73 84.87 426.46 83.10 C 424.81 85.82 422.89 88.38 420.53 90.53 C 410.52 99.89 400.10 108.80 389.73 117.75 C 377.15 128.81 363.49 138.82 352.76 151.81 C 342.18 164.08 333.68 179.13 333.27 195.70 C 330.82 194.89 329.65 192.60 329.87 190.10 C 330.33 176.63 336.61 164.12 344.58 153.52 C 355.95 138.01 371.07 125.90 386.15 114.20 C 394.89 107.28 403.38 100.05 411.92 92.89 Z" />
		<path fill="#020202" opacity="1.00"
			d=" M 588.09 201.00 C 594.05 199.85 600.06 198.16 606.20 198.98 C 591.54 205.05 575.93 208.99 560.04 209.75 C 549.75 210.15 539.41 210.94 529.36 213.33 C 538.38 217.46 548.46 217.25 558.11 218.39 C 559.72 218.32 560.42 219.79 561.19 220.94 C 551.12 221.36 540.76 221.15 531.11 218.02 C 528.40 216.89 524.35 215.55 524.47 211.98 C 525.55 210.31 527.51 209.67 529.33 209.16 C 538.38 206.80 547.75 205.97 557.07 205.55 C 567.54 205.08 577.82 202.98 588.09 201.00 Z" />
	</g>
	<g id="#f11b27ff">
		<path fill="var(--shirt-color, grey)" opacity="1.00"
			d=" M 533.26 24.29 C 539.47 21.30 546.49 18.70 553.45 20.43 C 565.89 23.23 576.98 29.85 588.88 34.20 C 595.23 36.75 601.91 38.33 608.28 40.80 C 613.86 42.91 617.00 48.38 619.72 53.34 C 623.97 62.39 625.79 72.31 629.08 81.70 C 631.26 87.92 633.79 94.04 635.52 100.41 C 638.64 111.16 638.10 122.95 643.82 132.90 C 628.79 124.69 616.35 112.73 604.59 100.46 C 600.84 96.50 597.18 92.44 593.75 88.19 C 592.43 86.63 590.55 84.35 588.31 85.82 C 590.00 91.71 594.30 96.28 598.06 100.94 C 608.33 112.65 619.32 124.03 632.47 132.53 C 636.73 135.40 641.48 137.46 645.79 140.25 C 653.38 145.19 658.84 152.59 664.50 159.52 C 670.42 166.76 675.64 174.54 680.45 182.56 C 685.59 190.58 689.68 199.55 697.02 205.88 C 704.78 212.91 715.26 216.58 721.73 225.08 C 722.92 228.35 720.89 231.69 719.72 234.69 C 717.71 238.72 715.95 243.64 711.45 245.48 C 696.18 252.38 679.20 253.42 663.28 258.18 C 659.20 259.17 655.26 261.01 651.04 261.18 C 644.61 258.83 639.75 253.69 634.50 249.51 C 629.52 244.72 624.13 240.32 617.97 237.14 C 605.47 230.56 592.55 224.80 580.33 217.72 C 576.62 215.72 573.00 213.36 568.87 212.36 C 564.25 211.63 559.52 212.69 555.31 214.59 C 559.32 216.43 563.98 215.10 567.96 217.04 C 574.15 219.97 580.01 223.56 585.98 226.91 C 580.01 231.40 573.48 235.54 566.00 236.84 C 554.45 239.46 542.58 235.64 531.02 238.12 C 524.61 239.27 518.07 242.15 511.50 240.29 C 504.77 238.63 499.71 233.69 494.22 229.81 C 488.10 225.40 481.17 222.11 473.94 220.00 C 471.70 219.32 468.18 218.90 467.57 221.93 C 477.35 226.14 486.90 231.09 495.32 237.68 C 499.74 241.17 504.63 244.30 510.24 245.42 C 514.58 246.49 519.08 245.96 523.43 245.20 C 517.89 249.83 513.00 255.90 505.72 257.80 C 498.68 258.97 491.09 256.28 484.36 259.40 C 480.68 261.27 482.34 265.81 483.69 268.67 C 474.63 267.52 465.56 268.92 456.55 269.76 C 443.03 270.97 429.64 273.39 416.06 274.00 C 407.75 274.41 397.98 275.91 391.23 269.83 C 377.15 257.73 369.01 240.67 358.21 225.90 C 355.52 222.41 353.11 217.92 348.31 217.18 C 349.97 221.11 352.67 224.45 355.02 227.98 C 358.93 233.80 362.61 239.76 366.12 245.82 C 372.13 256.09 379.35 265.89 388.75 273.31 C 393.31 277.00 399.29 278.24 405.04 278.19 C 426.20 278.04 447.08 273.97 468.18 272.93 C 473.55 273.63 478.56 276.42 482.61 279.96 C 473.83 282.29 464.57 282.32 455.91 285.10 C 447.18 287.84 440.94 295.01 432.69 298.68 C 425.29 302.07 417.08 303.15 409.02 303.42 C 402.35 303.58 395.59 303.89 389.02 302.50 C 375.48 300.00 363.79 292.14 352.87 284.17 C 338.56 274.15 325.09 262.89 309.92 254.15 C 296.86 246.67 283.64 239.39 271.30 230.73 C 272.94 221.24 275.72 211.86 280.49 203.45 C 288.75 188.07 302.17 176.52 313.47 163.50 C 318.58 157.20 322.31 149.88 327.73 143.80 C 333.85 136.89 340.33 130.29 347.25 124.17 C 350.63 121.19 353.24 117.51 355.79 113.84 C 364.05 102.73 376.08 95.31 388.25 89.18 C 398.10 84.52 408.00 79.84 418.43 76.60 C 425.11 74.24 431.96 71.94 437.86 67.90 C 448.02 61.43 459.36 56.85 471.16 54.40 C 482.07 52.19 492.79 48.42 504.02 48.28 C 518.70 47.95 533.38 47.07 548.07 47.76 C 552.87 47.35 558.42 48.19 562.46 45.02 C 561.41 42.49 558.17 43.58 556.05 43.07 C 539.72 41.22 523.27 42.30 506.89 42.53 C 516.23 37.24 523.72 29.28 533.26 24.29 M 411.92 92.89 C 403.38 100.05 394.89 107.28 386.15 114.20 C 371.07 125.90 355.95 138.01 344.58 153.52 C 336.61 164.12 330.33 176.63 329.87 190.10 C 329.65 192.60 330.82 194.89 333.27 195.70 C 333.68 179.13 342.18 164.08 352.76 151.81 C 363.49 138.82 377.15 128.81 389.73 117.75 C 400.10 108.80 410.52 99.89 420.53 90.53 C 422.89 88.38 424.81 85.82 426.46 83.10 C 420.73 84.87 416.42 89.16 411.92 92.89 M 588.09 201.00 C 577.82 202.98 567.54 205.08 557.07 205.55 C 547.75 205.97 538.38 206.80 529.33 209.16 C 527.51 209.67 525.55 210.31 524.47 211.98 C 524.35 215.55 528.40 216.89 531.11 218.02 C 540.76 221.15 551.12 221.36 561.19 220.94 C 560.42 219.79 559.72 218.32 558.11 218.39 C 548.46 217.25 538.38 217.46 529.36 213.33 C 539.41 210.94 549.75 210.15 560.04 209.75 C 575.93 208.99 591.54 205.05 606.20 198.98 C 600.06 198.16 594.05 199.85 588.09 201.00 Z" />
		<path fill="var(--shirt-color, grey)" opacity="1.00"
			d=" M 502.61 24.59 C 510.14 20.54 519.03 21.36 527.23 22.14 C 516.33 28.77 507.76 39.21 495.25 43.08 C 479.36 47.31 462.83 49.86 447.88 57.01 C 447.85 51.34 447.23 45.43 443.51 40.85 C 451.47 38.37 459.58 36.31 467.89 35.51 C 475.48 34.91 482.82 32.85 490.13 30.89 C 487.96 33.46 485.89 36.12 483.51 38.51 C 480.24 41.81 476.08 44.05 472.81 47.36 C 479.00 47.57 483.99 43.29 488.31 39.40 C 493.21 34.61 496.58 28.16 502.61 24.59 Z" />
	</g>
	<g id="#f0b58bff">
		<path fill="#f0b58b" opacity="1.00"
			d=" M 420.29 51.31 C 427.24 49.90 434.49 48.51 440.28 44.11 C 442.45 48.79 443.36 53.89 444.48 58.90 C 440.05 61.32 435.67 63.85 431.26 66.31 C 424.50 69.68 417.17 71.64 410.03 73.97 C 396.02 79.29 382.41 85.76 369.84 93.96 C 365.18 89.27 367.00 82.22 368.41 76.56 C 370.30 68.90 377.61 64.40 384.37 61.44 C 395.97 56.87 408.17 54.11 420.29 51.31 Z" />
		<path fill="#f0b58b" opacity="1.00"
			d=" M 630.79 69.34 C 639.78 73.42 649.94 74.01 659.63 72.83 C 649.17 86.17 643.89 103.21 644.30 120.11 C 643.75 115.62 642.94 111.16 642.21 106.70 C 640.08 93.77 633.96 82.00 630.79 69.34 Z" />
		<path fill="#f0b58b" opacity="1.00"
			d=" M 663.52 149.40 C 671.20 143.40 681.35 140.32 691.04 142.02 C 694.64 142.70 698.56 144.18 700.46 147.55 C 702.19 150.77 700.17 154.50 697.82 156.80 C 691.96 162.38 683.76 164.76 675.84 165.20 C 671.94 159.78 667.75 154.57 663.52 149.40 Z" />
		<path fill="#f0b58b" opacity="1.00"
			d=" M 684.36 178.18 C 687.12 180.00 689.94 181.74 692.93 183.18 C 699.01 186.24 705.91 187.22 711.95 190.38 C 704.34 190.08 696.76 188.56 689.61 185.94 C 687.28 183.85 686.11 180.74 684.36 178.18 Z" />
		<path fill="#f0b58b" opacity="1.00"
			d=" M 868.03 211.16 C 872.09 209.27 875.86 206.81 879.34 203.98 C 880.34 208.17 879.65 212.43 878.62 216.53 C 878.01 218.37 878.54 220.62 880.38 221.53 C 884.91 223.73 889.93 221.86 894.47 220.70 C 898.56 219.48 902.85 218.88 906.80 217.20 C 907.07 214.98 904.42 215.26 903.05 215.07 C 896.15 214.55 889.76 217.82 882.93 218.03 C 883.31 215.95 883.70 213.88 884.09 211.80 C 892.22 212.79 900.47 212.39 908.56 213.78 C 911.57 214.36 915.09 215.32 916.52 218.34 C 918.02 221.77 916.38 225.51 916.59 229.08 C 917.11 232.31 919.54 234.83 920.25 238.01 C 920.90 241.03 920.10 244.07 919.99 247.09 C 920.36 249.81 922.72 252.02 922.26 254.89 C 921.86 257.49 922.32 260.04 923.51 262.38 C 914.94 268.60 904.59 271.44 894.59 274.41 C 886.29 276.84 877.51 277.81 868.92 276.66 C 862.26 276.33 857.08 281.38 852.77 285.80 C 845.94 293.63 838.00 300.39 830.07 307.07 C 823.05 312.80 816.15 318.88 808.04 323.04 C 795.78 329.47 781.30 330.59 767.78 328.60 C 751.00 326.15 736.79 316.20 723.06 306.95 C 708.00 296.35 692.89 285.82 677.80 275.27 C 672.77 271.86 668.32 267.71 663.68 263.80 C 681.06 259.20 699.61 258.23 715.78 249.77 C 719.78 247.64 721.72 243.31 723.79 239.51 C 735.94 249.39 750.99 254.89 762.90 265.14 C 767.94 269.09 773.41 273.38 780.05 273.88 C 781.68 274.16 784.15 272.90 783.33 270.92 C 781.92 269.60 780.12 268.83 778.48 267.89 C 783.26 266.39 787.83 264.08 792.86 263.49 C 803.89 262.10 815.01 261.45 826.02 259.87 C 834.33 258.72 842.80 257.29 850.35 253.44 C 852.90 252.10 855.49 250.37 856.85 247.75 C 859.13 238.86 854.77 229.26 858.55 220.62 C 860.17 216.27 863.87 213.04 868.03 211.16 Z" />
		<path fill="#f0b58b" opacity="1.00"
			d=" M 205.68 423.60 C 221.55 429.48 234.84 440.20 249.21 448.84 C 259.12 455.00 270.23 458.80 281.14 462.78 C 291.24 466.37 301.78 468.68 312.45 469.64 C 304.39 492.58 296.36 515.54 289.90 539.00 C 285.12 556.82 280.42 575.71 267.82 589.84 C 262.71 596.68 255.08 601.20 250.43 608.42 C 247.94 612.21 245.98 616.47 242.47 619.47 C 239.69 622.20 236.02 623.64 232.93 625.94 C 230.35 627.78 230.38 631.22 229.76 634.02 C 228.80 639.91 225.64 645.10 222.35 649.97 C 213.09 636.00 198.88 626.20 184.04 618.91 C 176.62 615.34 168.95 611.13 160.43 611.69 C 165.80 606.96 170.91 601.93 176.54 597.51 C 178.27 595.91 180.93 594.42 180.35 591.65 C 176.03 591.71 172.82 595.01 169.34 597.14 C 172.70 590.01 175.24 582.53 178.11 575.20 C 182.12 563.94 186.81 552.78 188.45 540.85 C 190.21 531.26 189.26 521.42 191.12 511.85 C 193.28 500.10 197.62 488.93 200.62 477.40 C 205.54 459.98 207.92 441.63 205.68 423.60 Z" />
		<path fill="#f0b58b" opacity="1.00"
			d=" M 416.21 447.10 C 431.11 445.75 446.25 441.68 458.20 432.32 C 453.18 448.70 457.73 466.05 454.45 482.62 C 448.62 491.93 438.69 497.93 428.60 501.72 C 415.50 506.42 400.58 507.72 387.41 502.60 C 380.20 499.72 373.21 494.07 371.64 486.11 C 372.28 479.25 377.18 473.31 376.65 466.25 C 376.20 463.02 373.66 460.71 371.59 458.42 C 368.16 454.76 364.27 451.60 360.20 448.70 C 378.88 450.30 397.58 448.44 416.21 447.10 Z" />
	</g>
	<g id="#2b3dcdff">
		<path fill="var(--pants-color, grey)" opacity="1.00"
			d=" M 235.57 274.61 C 242.50 258.10 257.22 247.16 270.25 235.69 C 287.85 248.59 307.95 257.53 325.44 270.58 C 334.13 276.86 342.75 283.26 351.58 289.34 C 359.28 294.97 367.44 300.05 376.28 303.70 C 384.74 307.04 393.90 308.49 402.98 308.25 C 414.46 308.27 426.39 307.26 436.71 301.80 C 443.25 298.52 448.52 293.18 455.27 290.27 C 462.70 286.91 471.00 286.80 478.80 284.80 C 476.12 289.76 473.09 295.21 474.10 301.07 C 474.73 306.28 478.01 310.79 478.34 316.05 C 477.09 323.22 470.86 329.27 472.01 336.89 C 474.31 340.82 480.39 340.69 482.57 344.94 C 482.21 349.86 478.90 354.08 478.79 359.05 C 479.29 363.15 482.13 366.40 484.10 369.89 C 483.10 373.51 482.42 377.26 482.81 381.04 C 482.98 386.80 485.03 392.68 483.27 398.37 C 481.28 405.18 476.11 410.39 471.00 415.03 C 460.32 424.72 448.86 434.45 434.82 438.74 C 425.19 441.80 415.12 443.20 405.06 443.79 C 386.90 445.20 368.54 445.45 350.45 443.27 C 346.89 440.97 345.97 436.21 343.86 432.74 C 339.41 435.36 336.30 439.68 334.46 444.44 C 332.02 450.94 329.63 457.60 329.28 464.60 C 313.33 464.06 297.27 462.15 282.16 456.78 C 273.29 453.58 264.25 450.65 256.00 446.00 C 241.00 437.80 227.45 427.00 211.61 420.35 C 206.30 418.30 200.81 416.78 195.46 414.85 C 198.26 407.08 203.75 400.35 205.00 392.04 C 207.24 377.07 205.09 361.85 207.19 346.87 C 208.34 335.05 213.86 324.18 220.65 314.63 C 224.11 309.88 227.23 304.85 229.43 299.39 C 232.86 291.48 231.64 282.37 235.57 274.61 Z" />
		<path fill="var(--socks-color, grey)" opacity="1.00"
			d=" M 397.11 509.37 C 417.36 512.27 438.98 505.33 453.36 490.69 C 449.76 510.25 444.36 529.80 434.18 547.04 C 429.62 555.41 423.41 562.88 419.83 571.77 C 417.96 575.77 420.20 580.14 419.24 584.29 C 417.53 591.13 413.23 597.12 407.56 601.25 C 400.75 596.30 396.07 588.90 388.56 584.83 C 393.12 573.45 391.82 560.65 387.48 549.42 C 384.23 541.02 379.70 533.21 375.95 525.05 C 371.36 515.12 370.68 503.99 370.70 493.23 C 376.10 502.71 386.61 507.90 397.11 509.37 Z" />
		<path fill="var(--socks-color, grey)" opacity="1.00"
			d=" M 127.15 711.03 C 128.35 678.19 137.69 645.39 155.43 617.62 C 160.76 617.77 166.29 617.63 171.24 619.94 C 184.10 625.54 196.86 632.15 206.94 642.10 C 211.16 646.15 214.92 650.65 218.46 655.30 C 210.58 667.64 208.43 682.35 204.43 696.17 C 202.22 706.23 197.68 715.51 194.12 725.12 C 185.24 748.98 175.69 772.59 166.08 796.17 C 162.58 805.59 159.90 815.31 157.94 825.16 C 155.59 834.76 155.79 844.71 155.26 854.51 C 154.76 858.95 154.43 863.64 152.06 867.55 C 148.44 866.80 146.14 863.62 144.25 860.72 C 140.18 854.17 137.84 846.38 131.90 841.14 C 128.73 837.85 124.35 836.43 120.31 834.60 C 116.43 832.67 115.87 827.78 115.74 823.94 C 115.59 802.75 120.75 782.04 122.77 761.03 C 124.97 744.44 126.11 727.73 127.15 711.03 Z" />
	</g>
	<g id="#4d4d4dff">
		<path fill="#4d4d4d" opacity="1.00"
			d=" M 452.66 516.52 C 455.05 516.05 457.43 515.37 459.89 515.32 C 462.85 516.80 463.58 520.48 464.66 523.34 C 466.65 531.00 469.71 538.77 468.52 546.83 C 466.77 558.40 460.00 568.71 451.44 576.45 C 444.48 582.49 437.17 588.13 430.56 594.57 C 424.42 600.18 419.77 607.13 414.23 613.29 C 406.73 621.05 397.18 628.21 386.04 628.92 C 382.06 628.87 376.86 629.61 374.28 625.80 C 370.45 620.42 369.52 613.52 369.61 607.08 C 370.20 594.49 377.50 583.39 386.21 574.77 C 385.37 578.52 384.13 582.22 383.86 586.08 C 387.33 590.32 392.93 592.28 396.50 596.53 C 399.95 599.46 402.22 604.46 407.01 605.32 C 412.34 605.55 416.17 600.93 418.95 596.96 C 422.11 591.91 425.14 586.17 424.57 580.02 C 424.48 577.43 424.02 574.71 425.19 572.29 C 427.98 566.03 432.36 560.68 435.80 554.79 C 443.20 542.91 448.88 529.99 452.66 516.52 Z" />
		<path fill="#4d4d4d" opacity="1.00"
			d=" M 87.92 860.16 C 96.81 851.79 105.06 842.68 111.90 832.54 C 113.57 834.93 115.00 837.75 117.66 839.19 C 121.12 841.11 125.05 842.30 128.04 845.00 C 135.79 851.69 137.29 863.13 145.54 869.40 C 147.93 871.40 151.69 872.70 154.38 870.49 C 157.45 867.79 157.78 863.40 158.85 859.71 C 160.29 867.22 162.35 874.61 163.41 882.19 C 165.06 893.53 165.01 905.23 168.97 916.13 C 174.81 932.75 184.38 947.90 189.23 964.90 C 182.28 955.13 172.14 948.52 163.11 940.89 C 149.73 929.65 134.02 920.86 123.22 906.83 C 115.30 895.08 113.25 880.06 103.74 869.27 C 99.69 864.50 94.02 861.40 87.92 860.16 Z" />
		<path fill="#4d4d4d" opacity="1.00"
			d=" M 84.24 866.30 C 86.40 862.95 90.69 865.03 93.32 866.61 C 101.72 871.56 105.88 880.82 109.53 889.42 C 113.02 897.05 115.87 905.18 121.27 911.74 C 129.21 921.20 139.00 928.88 149.07 935.95 C 158.17 942.84 167.11 949.95 176.01 957.09 C 182.68 962.81 189.46 970.40 188.86 979.82 C 185.13 980.77 181.22 981.25 177.42 980.37 C 162.99 977.25 150.14 969.34 138.71 960.26 C 132.58 955.42 126.91 949.92 122.40 943.53 C 115.88 934.72 113.22 923.83 107.29 914.68 C 100.73 903.13 89.79 894.40 85.25 881.66 C 83.62 876.85 81.85 871.12 84.24 866.30 Z" />
	</g>
</svg>