<?xml version="1.0" encoding="UTF-8" ?>
<!DOCTYPE svg PUBLIC "-//W3C//DTD SVG 1.1//EN" "http://www.w3.org/Graphics/SVG/1.1/DTD/svg11.dtd">
<svg width="1000pt" height="1000pt" viewBox="0 0 1000 1000" version="1.1" xmlns="http://www.w3.org/2000/svg">
	<g id="#020202ff">
		<path fill="#020202" opacity="1.00"
			d=" M 631.97 61.92 C 649.48 54.81 669.79 54.58 687.35 61.64 C 697.76 65.91 707.60 73.15 712.36 83.63 C 713.50 85.87 713.83 88.38 714.03 90.86 C 715.22 94.08 716.82 97.43 716.22 100.97 C 715.85 103.76 714.01 106.01 712.47 108.25 C 712.45 117.89 708.94 127.17 704.52 135.62 C 700.46 143.82 699.70 153.08 698.50 162.01 C 697.89 164.98 697.35 169.01 693.86 169.90 C 689.56 171.02 684.88 169.81 680.71 171.62 C 675.49 173.34 672.58 178.28 669.15 182.18 C 666.15 185.49 663.16 188.95 659.35 191.36 C 655.27 193.85 649.20 193.86 645.86 190.12 C 642.16 185.96 639.22 181.20 636.37 176.43 C 632.15 180.70 628.03 185.06 624.07 189.57 C 628.06 199.71 626.15 211.25 622.09 221.06 C 619.18 228.56 610.79 232.30 608.51 240.11 C 606.41 249.06 603.85 257.89 601.60 266.80 C 598.37 277.03 596.04 287.81 589.87 296.80 C 584.48 306.46 576.31 314.83 565.88 318.90 C 555.81 322.87 546.62 329.45 540.25 338.25 C 540.52 340.84 541.55 343.34 541.38 345.97 C 540.70 351.03 537.25 355.65 538.00 360.89 C 539.79 363.17 542.55 364.85 543.33 367.81 C 544.54 372.49 543.65 377.46 545.00 382.13 C 546.61 387.79 549.06 393.21 550.22 399.01 C 550.97 402.02 549.47 405.25 546.81 406.78 C 541.68 409.61 536.30 412.50 530.29 412.64 C 532.17 419.96 532.47 427.56 533.22 435.05 C 533.59 438.80 536.44 441.58 538.63 444.41 C 549.37 456.61 557.53 470.82 564.57 485.39 C 576.33 511.67 589.34 537.74 595.91 565.92 C 597.64 571.74 590.25 573.31 586.23 574.70 C 589.36 582.94 591.75 591.43 593.97 599.95 C 597.08 610.14 598.72 620.70 600.21 631.23 C 601.78 642.47 600.20 653.81 598.47 664.93 C 597.36 671.25 598.27 677.66 598.48 684.02 C 600.41 710.91 601.21 737.90 600.45 764.85 C 599.56 792.23 596.89 819.93 601.85 847.08 C 603.07 854.28 603.62 861.69 606.18 868.58 C 611.81 881.35 621.14 892.72 633.29 899.77 C 642.05 905.02 651.75 908.40 661.48 911.38 C 667.52 913.34 673.90 915.89 677.84 921.13 C 680.63 925.16 681.89 930.62 680.18 935.33 C 678.46 939.25 674.11 940.76 670.61 942.66 C 665.11 945.60 658.73 945.67 652.66 945.75 C 655.05 952.37 658.25 958.70 660.20 965.47 C 661.64 972.12 661.41 980.16 656.42 985.34 C 652.98 988.29 648.71 991.14 643.96 990.67 C 634.82 989.94 625.55 987.37 618.09 981.87 C 610.00 976.07 603.47 968.44 595.71 962.25 C 581.06 950.35 561.70 947.17 545.96 937.13 C 539.05 932.95 531.94 927.69 529.48 919.61 C 526.76 911.36 527.46 902.26 530.25 894.13 C 532.07 888.61 535.62 883.71 536.50 877.89 C 537.29 872.28 538.61 866.65 537.98 860.96 C 537.49 852.91 533.52 845.68 530.53 838.36 C 522.01 819.72 511.22 802.24 502.14 783.89 C 496.36 772.36 487.99 762.02 484.44 749.46 C 480.89 736.35 480.32 722.57 480.67 709.05 C 482.50 688.51 482.17 667.77 479.86 647.28 C 478.98 638.47 475.77 630.18 473.36 621.73 C 472.48 618.77 471.16 615.97 469.89 613.16 C 460.89 615.33 452.18 618.80 442.99 620.12 C 440.64 620.39 440.34 617.60 439.78 616.00 C 435.62 599.00 431.51 581.97 427.10 565.03 C 421.20 543.15 406.50 525.15 399.17 503.85 C 397.61 499.14 394.70 495.09 391.92 491.05 C 385.70 482.06 381.40 471.72 379.65 460.92 C 378.01 448.68 379.19 436.31 379.11 424.02 C 375.25 425.03 371.43 427.00 367.36 426.58 C 362.25 424.68 363.39 418.25 363.14 413.95 C 362.08 390.73 368.22 368.12 372.59 345.53 C 373.14 343.19 373.95 340.91 374.39 338.54 C 375.68 319.61 373.60 300.50 376.32 281.67 C 365.07 288.65 353.58 295.25 342.52 302.52 C 334.87 307.40 326.95 312.03 320.26 318.22 C 313.26 325.26 309.44 334.66 305.61 343.65 C 303.30 348.84 302.39 354.60 299.50 359.54 C 296.25 364.29 291.03 367.08 286.96 371.03 C 281.70 376.09 276.57 381.35 270.77 385.80 C 269.31 387.14 266.72 387.33 265.59 385.50 C 263.86 382.55 265.22 379.13 266.01 376.12 C 255.87 381.69 245.60 387.95 233.91 389.43 C 232.06 389.91 230.62 388.60 229.20 387.69 C 226.06 389.93 222.10 394.56 217.94 392.00 C 214.75 388.75 218.35 384.31 219.95 381.20 C 217.38 381.98 213.91 383.87 211.66 381.40 C 209.49 378.74 211.41 375.38 212.55 372.75 C 209.52 372.99 205.46 370.69 207.24 367.17 C 210.29 360.99 215.75 356.41 220.15 351.19 C 230.20 341.34 235.54 327.47 246.81 318.76 C 260.81 308.27 278.21 303.66 292.27 293.29 C 298.33 289.08 303.71 284.01 309.56 279.53 C 322.15 269.90 332.64 257.92 344.26 247.20 C 355.81 236.37 367.46 225.50 380.81 216.89 C 393.20 208.70 406.43 201.62 417.65 191.79 C 415.42 190.17 413.24 188.47 410.96 186.93 C 411.78 185.20 412.47 183.22 414.30 182.30 C 425.99 175.17 439.01 170.32 450.14 162.24 C 458.46 155.94 465.41 148.11 473.03 141.03 C 483.51 130.22 492.93 118.01 505.74 109.79 C 516.15 104.08 527.86 99.45 539.97 100.79 C 551.36 100.47 560.52 108.92 566.85 117.52 C 571.49 115.97 576.13 113.62 581.09 113.59 C 586.39 117.29 588.26 124.03 590.96 129.62 C 596.83 125.02 601.70 119.04 604.16 111.93 C 603.60 104.08 602.77 96.01 605.26 88.37 C 609.20 75.84 620.09 66.71 631.97 61.92 M 691.35 109.31 C 685.40 110.58 679.81 106.27 675.90 102.21 C 672.44 106.18 669.68 110.67 667.17 115.27 C 665.97 117.28 664.87 119.51 662.86 120.81 C 659.78 120.01 656.48 119.17 653.90 117.27 C 652.78 114.19 653.01 110.83 652.22 107.68 C 651.36 104.33 647.60 101.57 644.14 102.95 C 640.15 104.67 638.21 108.97 636.75 112.80 C 633.97 119.98 634.70 127.78 633.83 135.28 C 630.26 136.02 627.04 133.60 624.19 131.79 C 618.61 127.44 613.14 122.72 609.19 116.78 C 609.83 121.86 610.72 126.95 610.76 132.08 C 610.95 133.62 609.70 134.71 608.93 135.86 C 606.60 130.16 606.55 123.89 605.52 117.89 C 603.22 124.58 597.94 129.44 592.34 133.44 C 594.51 139.30 596.48 145.24 597.92 151.32 C 602.36 169.23 602.95 187.78 606.48 205.84 C 610.25 201.48 614.26 197.30 617.61 192.60 C 622.45 185.70 628.12 179.32 634.69 174.02 C 632.99 171.29 631.43 168.45 630.44 165.38 C 638.29 170.79 641.96 179.94 648.23 186.83 C 650.45 189.66 654.77 189.44 657.58 187.65 C 666.18 181.94 670.67 171.10 680.82 167.55 C 684.89 165.87 689.57 167.48 693.57 165.76 C 694.97 162.68 694.99 159.22 695.39 155.92 C 696.17 148.10 697.66 140.22 701.18 133.12 C 698.81 133.69 696.42 134.19 694.04 134.66 C 692.27 137.13 690.32 139.47 688.18 141.63 C 681.52 135.75 675.61 128.81 671.43 120.93 C 682.64 117.67 695.03 120.54 704.29 127.48 C 706.64 121.92 708.29 116.10 709.74 110.25 C 705.81 111.95 701.81 113.55 697.59 114.33 C 699.78 108.83 705.35 103.57 702.49 97.22 C 695.95 98.18 696.13 106.26 691.35 109.31 M 498.88 121.85 C 489.01 130.35 481.52 141.18 471.76 149.80 C 464.62 156.33 458.08 163.64 449.94 168.99 C 439.63 175.76 428.30 180.71 417.41 186.43 C 437.55 199.79 450.88 222.12 454.90 245.79 C 470.97 230.97 491.81 222.95 512.40 216.64 C 517.79 215.11 523.35 213.19 529.02 214.38 C 524.84 216.79 520.11 217.84 515.57 219.34 C 494.87 225.93 474.89 235.37 457.61 248.66 C 455.75 250.04 453.16 251.67 450.94 250.04 C 448.48 247.42 448.34 243.53 447.34 240.24 C 440.72 245.91 433.40 250.69 425.71 254.75 C 415.29 260.26 405.26 266.48 394.69 271.70 C 390.22 273.86 385.84 276.18 381.51 278.60 C 379.65 297.67 380.32 316.85 379.75 335.98 C 379.40 346.16 380.99 356.31 384.14 365.98 C 385.16 369.65 386.87 373.14 387.35 376.95 C 386.51 378.59 384.42 377.63 383.91 376.24 C 379.85 369.49 378.07 361.66 376.17 354.10 C 371.94 376.90 367.22 399.81 367.57 423.13 C 374.22 421.40 380.56 418.63 387.29 417.17 C 395.50 415.31 403.55 412.69 411.91 411.48 C 418.84 410.32 425.88 410.02 432.82 408.87 C 443.12 407.12 453.60 407.03 464.03 406.73 C 482.65 406.91 501.32 405.78 519.91 407.44 C 525.89 407.67 532.15 409.05 537.97 407.09 C 540.93 405.60 544.75 404.26 546.10 400.99 C 545.14 394.39 541.93 388.38 540.46 381.90 C 539.47 377.62 540.15 373.11 539.01 368.87 C 538.03 365.97 534.86 364.84 532.04 365.31 C 515.00 366.41 497.88 364.88 481.11 361.82 C 471.59 360.11 463.50 354.56 455.34 349.71 C 446.63 344.27 437.58 339.40 428.67 334.29 C 426.07 332.82 423.81 330.85 421.80 328.66 C 424.85 329.17 427.88 329.99 430.64 331.44 C 443.82 338.01 456.72 345.11 469.45 352.51 C 478.60 357.92 489.43 358.67 499.71 360.19 C 510.78 361.77 521.97 361.75 533.12 361.57 C 532.99 355.24 536.07 349.60 537.20 343.51 C 530.01 341.22 522.41 342.25 515.02 342.32 C 505.91 342.62 496.88 341.21 487.95 339.60 C 480.69 338.15 473.29 336.69 466.68 333.24 C 465.13 332.53 464.37 330.91 463.43 329.61 C 467.91 330.75 472.37 332.00 476.95 332.77 C 489.89 335.00 502.77 338.41 516.00 338.23 C 522.86 338.02 529.73 338.31 536.49 339.53 C 534.81 338.17 533.17 336.66 531.08 335.99 C 520.73 332.34 509.81 330.70 498.91 329.80 C 491.50 329.29 484.31 327.26 477.37 324.72 C 469.62 321.86 461.28 321.33 453.32 319.34 C 453.23 319.00 453.07 318.30 452.99 317.96 C 457.53 316.42 462.40 317.65 467.04 318.08 C 474.36 318.78 480.96 322.27 488.00 324.11 C 496.08 326.44 504.58 326.20 512.82 327.59 C 521.07 328.97 529.54 330.74 536.69 335.32 C 541.96 328.71 548.16 322.70 555.60 318.57 C 560.70 315.51 566.55 313.91 571.50 310.58 C 577.95 306.36 582.69 300.14 586.53 293.56 C 590.70 287.43 593.17 280.40 595.14 273.31 C 597.97 264.89 599.74 256.17 602.65 247.77 C 604.03 243.87 604.55 239.72 605.94 235.82 C 608.27 229.93 614.19 226.69 617.29 221.32 C 620.97 215.04 621.81 207.66 622.85 200.59 C 620.29 208.06 617.46 216.00 611.02 221.06 C 610.12 221.78 608.17 223.36 607.47 221.58 C 603.35 214.74 601.81 206.75 600.43 199.00 C 597.76 180.31 596.64 161.20 590.66 143.16 C 587.67 134.48 584.73 125.66 579.82 117.84 C 576.07 118.98 572.34 120.16 568.59 121.29 C 570.15 124.33 571.51 127.48 572.34 130.81 C 568.23 129.80 566.71 125.56 564.57 122.41 C 561.59 117.24 556.91 113.34 552.00 110.09 C 545.72 105.41 537.38 106.13 530.01 106.47 C 518.55 108.70 507.27 113.55 498.88 121.85 M 607.45 209.93 C 608.15 212.50 608.87 215.07 609.61 217.63 C 616.53 210.91 619.11 201.23 621.81 192.29 C 617.00 198.15 613.24 204.90 607.45 209.93 M 420.64 194.57 C 406.92 207.83 389.07 215.53 374.08 227.12 C 358.74 238.94 345.34 253.01 331.69 266.67 C 325.22 272.94 318.03 278.39 311.03 284.05 C 305.31 288.63 300.04 293.77 293.99 297.93 C 280.66 307.78 264.37 312.45 250.68 321.71 C 243.14 326.88 238.39 334.86 233.12 342.11 C 226.63 351.24 218.34 358.92 211.84 368.04 C 217.57 364.96 222.31 360.38 226.77 355.73 C 232.07 349.06 235.77 340.45 243.75 336.45 C 242.48 341.09 238.54 344.22 236.37 348.38 C 232.02 356.40 226.62 363.83 220.41 370.51 C 218.20 372.85 216.36 375.52 214.98 378.44 C 219.53 377.02 223.24 373.95 226.43 370.51 C 232.74 363.78 238.94 356.95 245.06 350.04 C 246.16 348.66 247.81 347.97 249.40 347.32 C 246.28 353.29 242.40 358.89 237.87 363.89 C 231.19 371.10 225.31 379.18 221.24 388.15 C 228.39 383.45 233.39 376.31 239.89 370.85 C 246.01 365.46 253.35 361.73 260.83 358.61 C 262.46 357.85 264.26 357.70 266.04 357.73 C 262.60 361.55 257.89 363.85 253.75 366.80 C 245.14 371.69 237.32 378.17 231.45 386.17 C 238.33 385.00 244.84 382.25 250.97 378.98 C 259.18 374.75 267.44 370.46 274.68 364.65 C 279.78 361.09 283.94 356.02 289.92 353.87 C 289.50 355.85 288.33 357.52 286.86 358.88 C 283.27 362.30 280.12 366.21 276.07 369.13 C 271.99 371.87 270.39 376.81 269.03 381.29 C 275.04 376.56 280.08 370.78 285.76 365.70 C 289.92 361.91 295.75 359.24 297.50 353.46 C 301.27 341.68 305.76 329.96 312.63 319.60 C 316.76 313.76 322.71 309.56 328.43 305.40 C 345.31 294.05 362.75 283.57 380.30 273.31 C 388.74 268.59 397.67 264.83 406.06 260.01 C 414.74 254.95 423.84 250.65 432.45 245.45 C 437.22 242.56 441.49 238.95 446.15 235.89 C 441.70 220.08 432.34 205.95 420.64 194.57 M 435.14 412.65 C 424.88 414.39 414.39 414.71 404.27 417.28 C 397.00 419.13 389.71 420.90 382.44 422.74 C 384.43 431.69 383.61 440.94 384.25 450.03 C 384.30 460.78 387.14 471.41 392.14 480.90 C 395.78 488.09 401.56 494.10 404.12 501.86 C 411.87 523.29 426.27 541.79 432.19 563.97 C 436.61 580.97 440.43 598.12 444.42 615.23 C 451.51 613.68 458.44 611.55 465.39 609.47 C 474.79 607.17 484.52 605.66 493.22 601.16 C 489.09 596.11 483.71 592.45 478.73 588.35 C 472.56 582.01 466.91 575.00 462.91 567.07 C 453.62 550.00 446.81 531.75 438.92 514.03 C 434.28 505.76 426.25 499.33 423.87 489.84 C 425.88 491.24 427.70 492.92 429.08 494.96 C 433.30 500.98 438.94 506.00 442.16 512.69 C 448.95 526.79 454.49 541.45 461.60 555.41 C 466.02 563.98 469.97 573.13 477.02 579.96 C 483.59 586.27 490.70 592.06 496.58 599.08 C 501.40 596.11 505.88 592.61 510.78 589.78 C 525.28 581.07 541.91 576.55 558.58 574.41 C 569.62 573.20 580.61 571.27 591.30 568.27 C 584.51 539.70 571.42 513.24 559.46 486.60 C 552.78 472.93 544.94 459.67 534.69 448.35 C 531.63 444.69 528.10 440.81 527.64 435.83 C 526.86 428.10 527.14 420.28 526.03 412.57 C 504.72 410.81 483.34 411.27 461.99 410.92 C 453.03 411.20 444.01 411.20 435.14 412.65 M 544.90 582.05 C 537.86 583.46 530.99 585.61 524.32 588.22 C 515.89 591.80 508.14 596.73 500.69 602.01 C 502.19 605.27 503.54 608.60 505.31 611.73 C 509.46 619.13 512.81 626.94 516.36 634.64 C 518.70 639.68 521.35 644.63 522.84 650.02 C 524.08 654.50 523.97 659.20 523.78 663.81 C 530.30 670.00 539.36 672.26 547.99 673.65 C 560.05 675.25 572.65 675.07 584.26 671.09 C 587.22 669.85 590.69 668.58 592.38 665.67 C 593.62 660.20 594.41 654.63 594.99 649.05 C 596.57 636.22 593.87 623.43 591.72 610.84 C 588.98 598.99 585.77 587.25 582.63 575.49 C 570.27 578.87 557.38 579.30 544.90 582.05 M 474.81 612.12 C 478.20 618.20 479.37 625.12 481.62 631.63 C 484.65 640.92 485.37 650.72 486.32 660.39 C 496.19 662.88 507.44 662.69 516.44 657.54 C 519.64 655.90 517.94 652.30 517.12 649.71 C 514.38 642.73 510.64 636.19 507.73 629.28 C 504.18 620.94 499.47 613.17 495.88 604.86 C 489.22 608.22 482.08 610.50 474.81 612.12 M 486.41 663.57 C 486.90 676.02 487.29 688.52 486.24 700.96 C 485.21 714.29 485.70 727.76 487.78 740.97 C 489.53 752.19 495.55 762.02 501.51 771.46 C 505.26 777.27 508.27 783.51 511.46 789.64 C 522.68 810.54 535.30 831.13 541.59 854.21 C 542.72 857.17 542.11 861.57 545.57 863.03 C 545.17 853.28 543.73 843.60 541.76 834.05 C 539.10 818.58 532.95 804.05 527.92 789.26 C 524.58 779.08 519.81 769.40 517.22 758.98 C 514.79 749.44 512.65 739.78 511.77 729.96 C 510.52 717.07 511.56 704.08 513.30 691.28 C 514.95 681.58 517.57 672.06 518.79 662.28 C 508.75 667.06 496.84 667.25 486.41 663.57 M 523.16 667.56 C 521.47 677.81 518.38 687.83 517.60 698.22 C 515.96 713.02 515.95 728.15 519.16 742.75 C 521.20 752.00 523.16 761.35 526.89 770.11 C 531.99 781.77 535.96 793.88 540.04 805.93 C 546.34 823.81 550.28 842.77 549.50 861.80 C 561.40 860.72 571.22 868.36 581.01 873.87 C 586.48 876.76 591.73 880.67 598.03 881.41 C 599.93 881.68 601.25 879.94 602.74 879.08 C 602.47 875.81 602.19 872.53 601.47 869.34 C 598.63 858.34 597.29 847.03 595.55 835.82 C 593.90 818.27 593.77 800.58 594.98 783.00 C 596.35 756.69 595.67 730.33 594.55 704.03 C 594.20 693.77 592.85 683.58 592.37 673.33 C 577.69 681.10 560.10 680.79 544.20 677.58 C 536.56 675.90 528.94 673.01 523.16 667.56 M 544.71 867.08 C 543.88 873.66 543.86 880.32 542.86 886.88 C 541.63 895.68 540.60 904.61 541.37 913.49 C 541.96 917.05 542.38 921.17 545.16 923.78 C 548.94 926.43 553.53 927.66 557.99 928.63 C 576.53 932.21 595.52 931.81 614.18 934.41 C 628.80 936.21 643.22 939.97 658.01 940.21 C 663.71 940.37 670.04 939.37 673.97 934.82 C 676.34 932.62 675.57 928.98 674.58 926.31 C 672.46 921.46 667.21 919.19 662.56 917.43 C 652.86 914.15 642.97 911.10 634.04 905.98 C 622.39 899.74 612.59 889.93 607.11 877.85 C 606.22 879.89 605.98 882.61 603.81 883.80 C 600.04 886.53 594.99 885.91 590.92 884.24 C 580.37 879.84 571.22 872.72 560.71 868.27 C 555.66 866.07 550.03 866.47 544.71 867.08 M 534.50 899.80 C 533.26 907.41 532.88 915.82 537.45 922.49 C 535.15 915.12 534.99 907.43 534.50 899.80 M 550.05 932.30 C 565.13 941.04 582.62 944.94 597.04 954.89 C 606.34 961.14 613.12 970.29 621.86 977.21 C 627.66 982.03 634.90 984.72 642.15 986.46 C 647.35 987.94 652.70 984.57 655.17 980.11 C 657.72 974.27 656.69 967.55 654.22 961.87 C 651.91 956.55 650.00 951.08 648.24 945.56 C 631.42 943.91 614.88 940.16 598.02 938.89 C 581.98 937.19 565.60 936.99 550.05 932.30 Z" />
		<path fill="#020202" opacity="1.00"
			d=" M 571.80 143.90 C 572.96 141.09 575.50 144.19 576.01 145.88 C 580.25 157.48 581.30 169.92 583.81 181.95 C 586.30 194.51 589.62 206.89 592.72 219.32 C 593.44 221.92 593.52 224.63 593.15 227.30 C 590.03 224.34 589.12 220.06 587.88 216.12 C 585.49 208.12 583.21 200.08 581.14 191.99 C 577.82 178.87 576.22 165.40 573.35 152.19 C 572.78 149.44 572.04 146.71 571.80 143.90 Z" />
	</g>
	<g id="#f0b58bff">
		<path fill="#f0b58b" opacity="1.00"
			d=" M 691.35 109.31 C 696.13 106.26 695.95 98.18 702.49 97.22 C 705.35 103.57 699.78 108.83 697.59 114.33 C 701.81 113.55 705.81 111.95 709.74 110.25 C 708.29 116.10 706.64 121.92 704.29 127.48 C 695.03 120.54 682.64 117.67 671.43 120.93 C 675.61 128.81 681.52 135.75 688.18 141.63 C 690.32 139.47 692.27 137.13 694.04 134.66 C 696.42 134.19 698.81 133.69 701.18 133.12 C 697.66 140.22 696.17 148.10 695.39 155.92 C 694.99 159.22 694.97 162.68 693.57 165.76 C 689.57 167.48 684.89 165.87 680.82 167.55 C 670.67 171.10 666.18 181.94 657.58 187.65 C 654.77 189.44 650.45 189.66 648.23 186.83 C 641.96 179.94 638.29 170.79 630.44 165.38 C 631.43 168.45 632.99 171.29 634.69 174.02 C 628.12 179.32 622.45 185.70 617.61 192.60 C 614.26 197.30 610.25 201.48 606.48 205.84 C 602.95 187.78 602.36 169.23 597.92 151.32 C 596.48 145.24 594.51 139.30 592.34 133.44 C 597.94 129.44 603.22 124.58 605.52 117.89 C 606.55 123.89 606.60 130.16 608.93 135.86 C 609.70 134.71 610.95 133.62 610.76 132.08 C 610.72 126.95 609.83 121.86 609.19 116.78 C 613.14 122.72 618.61 127.44 624.19 131.79 C 627.04 133.60 630.26 136.02 633.83 135.28 C 634.70 127.78 633.97 119.98 636.75 112.80 C 638.21 108.97 640.15 104.67 644.14 102.95 C 647.60 101.57 651.36 104.33 652.22 107.68 C 653.01 110.83 652.78 114.19 653.90 117.27 C 656.48 119.17 659.78 120.01 662.86 120.81 C 664.87 119.51 665.97 117.28 667.17 115.27 C 669.68 110.67 672.44 106.18 675.90 102.21 C 679.81 106.27 685.40 110.58 691.35 109.31 Z" />
		<path fill="#f0b58b" opacity="1.00"
			d=" M 420.64 194.57 C 432.34 205.95 441.70 220.08 446.15 235.89 C 441.49 238.95 437.22 242.56 432.45 245.45 C 423.84 250.65 414.74 254.95 406.06 260.01 C 397.67 264.83 388.74 268.59 380.30 273.31 C 362.75 283.57 345.31 294.05 328.43 305.40 C 322.71 309.56 316.76 313.76 312.63 319.60 C 305.76 329.96 301.27 341.68 297.50 353.46 C 295.75 359.24 289.92 361.91 285.76 365.70 C 280.08 370.78 275.04 376.56 269.03 381.29 C 270.39 376.81 271.99 371.87 276.07 369.13 C 280.12 366.21 283.27 362.30 286.86 358.88 C 288.33 357.52 289.50 355.85 289.92 353.87 C 283.94 356.02 279.78 361.09 274.68 364.65 C 267.44 370.46 259.18 374.75 250.97 378.98 C 244.84 382.25 238.33 385.00 231.45 386.17 C 237.32 378.17 245.14 371.69 253.75 366.80 C 257.89 363.85 262.60 361.55 266.04 357.73 C 264.26 357.70 262.46 357.85 260.83 358.61 C 253.35 361.73 246.01 365.46 239.89 370.85 C 233.39 376.31 228.39 383.45 221.24 388.15 C 225.31 379.18 231.19 371.10 237.87 363.89 C 242.40 358.89 246.28 353.29 249.40 347.32 C 247.81 347.97 246.16 348.66 245.06 350.04 C 238.94 356.95 232.74 363.78 226.43 370.51 C 223.24 373.95 219.53 377.02 214.98 378.44 C 216.36 375.52 218.20 372.85 220.41 370.51 C 226.62 363.83 232.02 356.40 236.37 348.38 C 238.54 344.22 242.48 341.09 243.75 336.45 C 235.77 340.45 232.07 349.06 226.77 355.73 C 222.31 360.38 217.57 364.96 211.84 368.04 C 218.34 358.92 226.63 351.24 233.12 342.11 C 238.39 334.86 243.14 326.88 250.68 321.71 C 264.37 312.45 280.66 307.78 293.99 297.93 C 300.04 293.77 305.31 288.63 311.03 284.05 C 318.03 278.39 325.22 272.94 331.69 266.67 C 345.34 253.01 358.74 238.94 374.08 227.12 C 389.07 215.53 406.92 207.83 420.64 194.57 Z" />
		<path fill="#f0b58b" opacity="1.00"
			d=" M 544.90 582.05 C 557.38 579.30 570.27 578.87 582.63 575.49 C 585.77 587.25 588.98 598.99 591.72 610.84 C 593.87 623.43 596.57 636.22 594.99 649.05 C 594.41 654.63 593.62 660.20 592.38 665.67 C 590.69 668.58 587.22 669.85 584.26 671.09 C 572.65 675.07 560.05 675.25 547.99 673.65 C 539.36 672.26 530.30 670.00 523.78 663.81 C 523.97 659.20 524.08 654.50 522.84 650.02 C 521.35 644.63 518.70 639.68 516.36 634.64 C 512.81 626.94 509.46 619.13 505.31 611.73 C 503.54 608.60 502.19 605.27 500.69 602.01 C 508.14 596.73 515.89 591.80 524.32 588.22 C 530.99 585.61 537.86 583.46 544.90 582.05 Z" />
		<path fill="#f0b58b" opacity="1.00"
			d=" M 474.81 612.12 C 482.08 610.50 489.22 608.22 495.88 604.86 C 499.47 613.17 504.18 620.94 507.73 629.28 C 510.64 636.19 514.38 642.73 517.12 649.71 C 517.94 652.30 519.64 655.90 516.44 657.54 C 507.44 662.69 496.19 662.88 486.32 660.39 C 485.37 650.72 484.65 640.92 481.62 631.63 C 479.37 625.12 478.20 618.20 474.81 612.12 Z" />
	</g>
	<g id="#f11b27ff">
		<path fill="var(--shirt-color, grey)" opacity="1.00"
			d=" M 498.88 121.85 C 507.27 113.55 518.55 108.70 530.01 106.47 C 537.38 106.13 545.72 105.41 552.00 110.09 C 556.91 113.34 561.59 117.24 564.57 122.41 C 566.71 125.56 568.23 129.80 572.34 130.81 C 571.51 127.48 570.15 124.33 568.59 121.29 C 572.34 120.16 576.07 118.98 579.82 117.84 C 584.73 125.66 587.67 134.48 590.66 143.16 C 596.64 161.20 597.76 180.31 600.43 199.00 C 601.81 206.75 603.35 214.74 607.47 221.58 C 608.17 223.36 610.12 221.78 611.02 221.06 C 617.46 216.00 620.29 208.06 622.85 200.59 C 621.81 207.66 620.97 215.04 617.29 221.32 C 614.19 226.69 608.27 229.93 605.94 235.82 C 604.55 239.72 604.03 243.87 602.65 247.77 C 599.74 256.17 597.97 264.89 595.14 273.31 C 593.17 280.40 590.70 287.43 586.53 293.56 C 582.69 300.14 577.95 306.36 571.50 310.58 C 566.55 313.91 560.70 315.51 555.60 318.57 C 548.16 322.70 541.96 328.71 536.69 335.32 C 529.54 330.74 521.07 328.97 512.82 327.59 C 504.58 326.20 496.08 326.44 488.00 324.11 C 480.96 322.27 474.36 318.78 467.04 318.08 C 462.40 317.65 457.53 316.42 452.99 317.96 C 453.07 318.30 453.23 319.00 453.32 319.34 C 461.28 321.33 469.62 321.86 477.37 324.72 C 484.31 327.26 491.50 329.29 498.91 329.80 C 509.81 330.70 520.73 332.34 531.08 335.99 C 533.17 336.66 534.81 338.17 536.49 339.53 C 529.73 338.31 522.86 338.02 516.00 338.23 C 502.77 338.41 489.89 335.00 476.95 332.77 C 472.37 332.00 467.91 330.75 463.43 329.61 C 464.37 330.91 465.13 332.53 466.68 333.24 C 473.29 336.69 480.69 338.15 487.95 339.60 C 496.88 341.21 505.91 342.62 515.02 342.32 C 522.41 342.25 530.01 341.22 537.20 343.51 C 536.07 349.60 532.99 355.24 533.12 361.57 C 521.97 361.75 510.78 361.77 499.71 360.19 C 489.43 358.67 478.60 357.92 469.45 352.51 C 456.72 345.11 443.82 338.01 430.64 331.44 C 427.88 329.99 424.85 329.17 421.80 328.66 C 423.81 330.85 426.07 332.82 428.67 334.29 C 437.58 339.40 446.63 344.27 455.34 349.71 C 463.50 354.56 471.59 360.11 481.11 361.82 C 497.88 364.88 515.00 366.41 532.04 365.31 C 534.86 364.84 538.03 365.97 539.01 368.87 C 540.15 373.11 539.47 377.62 540.46 381.90 C 541.93 388.38 545.14 394.39 546.10 400.99 C 544.75 404.26 540.93 405.60 537.97 407.09 C 532.15 409.05 525.89 407.67 519.91 407.44 C 501.32 405.78 482.65 406.91 464.03 406.73 C 453.60 407.03 443.12 407.12 432.82 408.87 C 425.88 410.02 418.84 410.32 411.91 411.48 C 403.55 412.69 395.50 415.31 387.29 417.17 C 380.56 418.63 374.22 421.40 367.57 423.13 C 367.22 399.81 371.94 376.90 376.17 354.10 C 378.07 361.66 379.85 369.49 383.91 376.24 C 384.42 377.63 386.51 378.59 387.35 376.95 C 386.87 373.14 385.16 369.65 384.14 365.98 C 380.99 356.31 379.40 346.16 379.75 335.98 C 380.32 316.85 379.65 297.67 381.51 278.60 C 385.84 276.18 390.22 273.86 394.69 271.70 C 405.26 266.48 415.29 260.26 425.71 254.75 C 433.40 250.69 440.72 245.91 447.34 240.24 C 448.34 243.53 448.48 247.42 450.94 250.04 C 453.16 251.67 455.75 250.04 457.61 248.66 C 474.89 235.37 494.87 225.93 515.57 219.34 C 520.11 217.84 524.84 216.79 529.02 214.38 C 523.35 213.19 517.79 215.11 512.40 216.64 C 491.81 222.95 470.97 230.97 454.90 245.79 C 450.88 222.12 437.55 199.79 417.41 186.43 C 428.30 180.71 439.63 175.76 449.94 168.99 C 458.08 163.64 464.62 156.33 471.76 149.80 C 481.52 141.18 489.01 130.35 498.88 121.85 M 571.80 143.90 C 572.04 146.71 572.78 149.44 573.35 152.19 C 576.22 165.40 577.82 178.87 581.14 191.99 C 583.21 200.08 585.49 208.12 587.88 216.12 C 589.12 220.06 590.03 224.34 593.15 227.30 C 593.52 224.63 593.44 221.92 592.72 219.32 C 589.62 206.89 586.30 194.51 583.81 181.95 C 581.30 169.92 580.25 157.48 576.01 145.88 C 575.50 144.19 572.96 141.09 571.80 143.90 Z" />
		<path fill="var(--shirt-color, grey)" opacity="1.00"
			d=" M 607.45 209.93 C 613.24 204.90 617.00 198.15 621.81 192.29 C 619.11 201.23 616.53 210.91 609.61 217.63 C 608.87 215.07 608.15 212.50 607.45 209.93 Z" />
	</g>
	<g id="#2b3dcdff">
		<path fill="var(--pants-color, grey)" opacity="1.00"
			d=" M 435.14 412.65 C 444.01 411.20 453.03 411.20 461.99 410.92 C 483.34 411.27 504.72 410.81 526.03 412.57 C 527.14 420.28 526.86 428.10 527.64 435.83 C 528.10 440.81 531.63 444.69 534.69 448.35 C 544.94 459.67 552.78 472.93 559.46 486.60 C 571.42 513.24 584.51 539.70 591.30 568.27 C 580.61 571.27 569.62 573.20 558.58 574.41 C 541.91 576.55 525.28 581.07 510.78 589.78 C 505.88 592.61 501.40 596.11 496.58 599.08 C 490.70 592.06 483.59 586.27 477.02 579.96 C 469.97 573.13 466.02 563.98 461.60 555.41 C 454.49 541.45 448.95 526.79 442.16 512.69 C 438.94 506.00 433.30 500.98 429.08 494.96 C 427.70 492.92 425.88 491.24 423.87 489.84 C 426.25 499.33 434.28 505.76 438.92 514.03 C 446.81 531.75 453.62 550.00 462.91 567.07 C 466.91 575.00 472.56 582.01 478.73 588.35 C 483.71 592.45 489.09 596.11 493.22 601.16 C 484.52 605.66 474.79 607.17 465.39 609.47 C 458.44 611.55 451.51 613.68 444.42 615.23 C 440.43 598.12 436.61 580.97 432.19 563.97 C 426.27 541.79 411.87 523.29 404.12 501.86 C 401.56 494.10 395.78 488.09 392.14 480.90 C 387.14 471.41 384.30 460.78 384.25 450.03 C 383.61 440.94 384.43 431.69 382.44 422.74 C 389.71 420.90 397.00 419.13 404.27 417.28 C 414.39 414.71 424.88 414.39 435.14 412.65 Z" />
		<path fill="var(--socks-color, grey)" opacity="1.00"
			d=" M 486.41 663.57 C 496.84 667.25 508.75 667.06 518.79 662.28 C 517.57 672.06 514.95 681.58 513.30 691.28 C 511.56 704.08 510.52 717.07 511.77 729.96 C 512.65 739.78 514.79 749.44 517.22 758.98 C 519.81 769.40 524.58 779.08 527.92 789.26 C 532.95 804.05 539.10 818.58 541.76 834.05 C 543.73 843.60 545.17 853.28 545.57 863.03 C 542.11 861.57 542.72 857.17 541.59 854.21 C 535.30 831.13 522.68 810.54 511.46 789.64 C 508.27 783.51 505.26 777.27 501.51 771.46 C 495.55 762.02 489.53 752.19 487.78 740.97 C 485.70 727.76 485.21 714.29 486.24 700.96 C 487.29 688.52 486.90 676.02 486.41 663.57 Z" />
		<path fill="var(--socks-color, grey)" opacity="1.00"
			d=" M 523.16 667.56 C 528.94 673.01 536.56 675.90 544.20 677.58 C 560.10 680.79 577.69 681.10 592.37 673.33 C 592.85 683.58 594.20 693.77 594.55 704.03 C 595.67 730.33 596.35 756.69 594.98 783.00 C 593.77 800.58 593.90 818.27 595.55 835.82 C 597.29 847.03 598.63 858.34 601.47 869.34 C 602.19 872.53 602.47 875.81 602.74 879.08 C 601.25 879.94 599.93 881.68 598.03 881.41 C 591.73 880.67 586.48 876.76 581.01 873.87 C 571.22 868.36 561.40 860.72 549.50 861.80 C 550.28 842.77 546.34 823.81 540.04 805.93 C 535.96 793.88 531.99 781.77 526.89 770.11 C 523.16 761.35 521.20 752.00 519.16 742.75 C 515.95 728.15 515.96 713.02 517.60 698.22 C 518.38 687.83 521.47 677.81 523.16 667.56 Z" />
	</g>
	<g id="#4d4d4dff">
		<path fill="#4d4d4d" opacity="1.00"
			d=" M 544.71 867.08 C 550.03 866.47 555.66 866.07 560.71 868.27 C 571.22 872.72 580.37 879.84 590.92 884.24 C 594.99 885.91 600.04 886.53 603.81 883.80 C 605.98 882.61 606.22 879.89 607.11 877.85 C 612.59 889.93 622.39 899.74 634.04 905.98 C 642.97 911.10 652.86 914.15 662.56 917.43 C 667.21 919.19 672.46 921.46 674.58 926.31 C 675.57 928.98 676.34 932.62 673.97 934.82 C 670.04 939.37 663.71 940.37 658.01 940.21 C 643.22 939.97 628.80 936.21 614.18 934.41 C 595.52 931.81 576.53 932.21 557.99 928.63 C 553.53 927.66 548.94 926.43 545.16 923.78 C 542.38 921.17 541.96 917.05 541.37 913.49 C 540.60 904.61 541.63 895.68 542.86 886.88 C 543.86 880.32 543.88 873.66 544.71 867.08 Z" />
		<path fill="#4d4d4d" opacity="1.00"
			d=" M 550.05 932.30 C 565.60 936.99 581.98 937.19 598.02 938.89 C 614.88 940.16 631.42 943.91 648.24 945.56 C 650.00 951.08 651.91 956.55 654.22 961.87 C 656.69 967.55 657.72 974.27 655.17 980.11 C 652.70 984.57 647.35 987.94 642.15 986.46 C 634.90 984.72 627.66 982.03 621.86 977.21 C 613.12 970.29 606.34 961.14 597.04 954.89 C 582.62 944.94 565.13 941.04 550.05 932.30 Z" />
	</g>
	<g id="#343434ff">
		<path fill="#343434" opacity="1.00"
			d=" M 534.50 899.80 C 534.99 907.43 535.15 915.12 537.45 922.49 C 532.88 915.82 533.26 907.41 534.50 899.80 Z" />
	</g>
</svg>