<?xml version="1.0" encoding="UTF-8" ?>
<!DOCTYPE svg PUBLIC "-//W3C//DTD SVG 1.1//EN" "http://www.w3.org/Graphics/SVG/1.1/DTD/svg11.dtd">
<svg width="1000pt" height="1000pt" viewBox="0 0 1000 1000" version="1.1" xmlns="http://www.w3.org/2000/svg">
	<g id="#020202ff">
		<path fill="#020202" opacity="1.00"
			d=" M 462.45 32.64 C 473.65 28.82 485.97 29.14 497.20 32.65 C 513.85 36.86 528.66 48.58 535.65 64.37 C 538.38 70.53 538.05 77.33 538.32 83.88 C 542.91 96.18 549.83 107.76 552.03 120.87 C 554.11 132.94 554.43 145.65 550.68 157.42 C 549.72 160.79 547.32 163.46 544.31 165.16 C 554.16 163.63 564.02 161.91 573.98 161.27 C 584.01 160.87 594.36 163.51 602.51 169.50 C 608.11 173.60 611.31 179.96 616.12 184.84 C 634.07 203.34 658.21 213.47 679.23 227.78 C 680.83 228.83 682.30 230.08 683.73 231.38 C 682.20 232.14 680.58 232.72 678.92 233.10 C 676.84 234.79 675.11 236.84 673.49 238.97 C 674.89 239.97 676.30 240.97 677.71 241.96 C 679.56 240.26 681.30 238.00 683.97 237.63 C 686.01 237.26 687.53 238.91 689.13 239.88 C 691.06 237.60 693.09 234.93 696.22 234.37 C 699.28 233.85 702.04 235.62 704.71 236.85 C 706.71 236.16 708.77 234.86 710.96 235.62 C 713.79 236.31 715.63 238.72 717.50 240.76 C 720.91 240.48 724.75 240.06 727.66 242.29 C 729.75 243.69 730.46 246.23 731.32 248.45 C 736.50 248.08 741.14 252.88 739.98 258.08 C 738.73 263.44 736.32 268.46 734.67 273.71 C 741.40 278.53 743.16 287.20 744.68 294.81 C 747.03 304.91 744.17 315.81 737.94 323.98 C 735.70 326.82 732.78 329.52 729.06 330.04 C 725.10 330.55 721.11 329.91 717.19 329.41 C 707.10 327.80 697.00 325.57 687.67 321.30 C 674.00 315.20 661.93 306.13 650.83 296.18 C 646.10 291.84 640.76 288.22 636.02 283.89 C 634.27 285.55 632.51 287.19 630.74 288.82 C 630.78 297.25 629.08 305.54 628.80 313.93 C 629.62 324.29 629.57 334.75 631.39 345.01 C 632.41 351.34 635.79 357.43 634.53 363.99 C 633.72 368.94 632.77 373.89 632.89 378.93 C 633.08 391.59 634.34 404.20 635.66 416.78 C 636.88 429.27 639.82 441.52 640.96 454.02 C 641.64 461.68 643.28 469.43 641.86 477.11 C 641.40 480.32 640.23 483.92 642.10 486.93 C 646.06 493.25 652.07 499.12 652.28 507.04 C 652.52 510.92 650.06 514.12 647.83 517.01 C 654.17 529.06 660.85 541.05 665.16 554.02 C 667.51 561.39 670.31 568.63 672.00 576.20 C 674.08 585.54 678.09 594.29 680.52 603.54 C 685.08 619.43 687.25 635.86 690.86 651.97 C 692.47 658.43 694.61 664.77 695.77 671.35 C 692.50 672.92 689.11 674.24 685.80 675.72 C 685.00 683.15 683.23 690.48 683.10 697.99 C 682.22 708.37 684.37 718.70 683.82 729.09 C 683.78 739.47 680.00 749.40 675.53 758.62 C 671.33 766.36 665.46 774.31 656.48 776.63 C 651.38 778.52 645.92 776.45 640.75 777.79 C 625.47 781.55 609.72 783.39 593.99 783.25 C 573.89 784.01 554.03 779.92 533.97 779.51 C 530.17 779.43 526.39 779.87 522.64 780.37 C 516.55 789.35 514.20 800.09 511.25 810.37 C 509.22 819.09 506.60 827.65 504.21 836.28 C 502.05 846.12 497.37 855.28 491.32 863.29 C 488.13 867.53 483.58 871.11 478.17 871.77 C 471.69 873.07 465.32 869.46 461.29 864.60 C 451.07 852.73 448.05 836.21 449.45 820.97 C 449.66 811.04 452.35 801.44 454.43 791.80 C 456.83 777.65 455.18 763.09 458.19 749.00 C 460.21 737.58 466.06 726.54 475.50 719.58 C 485.30 713.01 497.49 711.00 509.09 711.35 C 517.41 711.72 523.69 718.43 527.07 725.52 C 540.90 725.58 554.51 722.45 567.84 719.03 C 578.44 716.40 588.49 711.79 599.24 709.69 C 598.44 705.80 598.23 701.84 597.96 697.90 C 590.35 697.42 582.72 697.68 575.10 697.62 C 572.88 697.83 572.16 695.29 571.53 693.66 C 567.65 680.63 564.85 667.30 562.69 653.89 C 560.99 642.14 556.48 631.06 551.78 620.24 C 549.62 615.19 545.61 610.95 540.77 608.39 C 537.01 606.75 533.49 609.61 530.54 611.60 C 522.41 617.06 518.29 626.27 513.47 634.42 C 506.17 647.12 500.91 661.72 489.15 671.15 C 486.18 673.81 482.25 674.85 478.39 675.31 C 472.80 691.66 466.33 707.81 457.94 722.94 C 453.70 729.49 449.96 736.83 443.37 741.36 C 439.68 743.98 436.67 747.49 434.48 751.44 C 430.73 758.27 427.51 765.40 424.74 772.69 C 419.27 787.66 411.29 801.54 403.42 815.35 C 393.95 831.73 383.06 847.30 370.63 861.58 C 359.56 875.09 347.67 888.31 340.16 904.25 C 337.57 909.17 336.76 915.03 337.54 920.47 C 341.84 926.39 343.19 933.80 342.95 940.99 C 342.75 951.38 343.19 962.52 337.81 971.83 C 331.78 981.87 320.33 987.17 309.14 989.01 C 299.32 991.07 288.85 991.11 279.32 987.74 C 275.97 986.43 272.27 984.66 270.81 981.14 C 268.03 975.06 269.31 968.16 271.14 962.02 C 274.90 949.27 277.96 936.13 284.41 924.39 C 286.22 921.00 289.05 918.26 292.41 916.42 C 294.89 915.33 295.59 912.55 296.33 910.21 C 301.60 890.58 306.13 870.73 312.45 851.40 C 318.72 833.95 322.50 815.75 328.29 798.15 C 333.96 780.98 339.69 763.37 350.76 748.78 C 360.38 736.61 370.04 724.38 377.93 710.98 C 387.48 696.95 393.52 680.87 397.52 664.46 C 400.78 653.57 402.96 642.29 403.20 630.91 C 403.47 627.64 400.49 625.56 398.91 623.07 C 392.93 615.42 390.86 605.57 385.17 597.76 C 383.22 595.23 382.71 591.72 383.89 588.76 C 387.96 578.20 394.75 568.81 403.01 561.13 C 410.08 554.15 418.46 548.44 424.28 540.27 C 427.27 535.98 430.57 531.87 434.62 528.53 C 432.57 525.48 431.03 521.81 432.00 518.10 C 433.69 511.54 437.03 505.44 441.26 500.17 C 445.11 495.25 447.15 488.34 444.68 482.36 C 442.41 476.76 441.76 470.71 441.21 464.75 C 428.30 467.44 414.86 467.27 401.94 464.76 C 393.33 463.18 384.78 460.80 375.97 460.72 C 370.31 460.56 364.43 460.22 359.25 457.73 C 357.38 456.91 356.30 455.04 355.97 453.10 C 354.40 445.12 356.40 437.03 356.05 429.00 C 355.74 412.32 351.69 395.69 353.95 378.99 C 354.41 374.37 355.50 369.85 356.82 365.41 C 353.57 365.74 350.30 366.01 347.03 365.91 C 347.04 363.57 347.35 361.24 348.12 359.03 C 349.95 353.43 350.57 347.54 351.97 341.83 C 354.78 329.55 357.29 317.18 360.84 305.09 C 365.33 293.20 364.91 280.24 368.01 268.02 C 370.02 259.42 373.15 250.75 379.19 244.14 C 385.61 237.43 394.55 234.20 402.16 229.15 C 408.46 225.30 413.72 220.07 419.02 214.99 C 423.74 210.55 426.19 204.33 430.61 199.63 C 434.65 194.90 440.64 192.40 444.63 187.61 C 448.28 183.51 450.65 178.42 454.46 174.46 C 458.15 170.64 463.41 169.16 468.35 167.74 C 469.88 159.58 467.78 149.33 459.68 145.39 C 443.90 137.99 431.83 123.41 427.11 106.68 C 423.62 95.10 423.79 82.58 426.83 70.92 C 431.56 53.42 445.00 38.16 462.45 32.64 M 528.44 76.96 C 527.63 81.90 526.84 86.97 527.85 91.96 C 528.49 97.07 530.85 101.72 531.93 106.72 C 526.37 104.41 522.10 99.92 516.60 97.50 C 513.35 95.98 509.74 94.37 506.08 95.37 C 503.04 96.45 502.54 100.47 504.11 102.97 C 508.44 110.75 516.20 116.80 517.56 126.06 C 513.25 132.32 506.80 136.58 500.33 140.32 C 491.20 145.30 481.67 149.73 471.55 152.29 C 473.42 156.90 473.88 161.91 473.31 166.83 C 483.85 165.32 494.59 165.15 505.15 166.50 C 512.87 167.53 520.68 167.32 528.43 166.86 C 528.68 164.72 529.02 162.60 529.44 160.49 C 523.97 157.41 518.53 154.22 513.54 150.42 C 511.81 149.25 510.95 147.31 510.21 145.45 C 512.34 145.87 514.50 146.40 516.37 147.56 C 524.06 152.05 531.88 156.42 540.21 159.61 C 542.33 160.72 544.31 158.83 544.94 156.91 C 547.91 149.34 548.08 141.02 547.82 133.00 C 547.41 122.25 544.42 111.76 539.80 102.09 C 536.41 93.53 532.15 85.37 528.44 76.96 M 533.57 162.97 C 533.21 164.11 532.87 165.26 532.53 166.41 C 535.40 166.09 538.27 165.74 541.16 165.60 C 538.57 164.89 536.05 163.95 533.57 162.97 M 507.05 171.49 C 495.44 169.98 483.57 169.86 472.01 171.83 C 466.56 172.96 460.55 174.39 456.87 178.92 C 454.03 182.44 451.92 186.48 449.03 189.97 C 444.41 196.17 436.45 198.55 431.92 204.87 C 441.51 200.17 452.07 198.14 462.50 196.24 C 469.06 195.10 475.62 192.79 482.35 193.71 L 482.28 195.15 C 478.12 197.17 473.40 197.49 469.01 198.80 C 456.41 202.24 442.78 203.36 431.53 210.55 C 422.88 216.43 416.16 224.68 407.46 230.49 C 401.11 234.98 394.10 238.41 387.58 242.62 C 378.86 248.36 374.57 258.53 372.19 268.31 C 368.82 280.85 369.20 294.18 364.69 306.45 C 359.54 324.39 357.03 342.97 352.17 360.98 C 359.13 360.19 366.19 360.65 373.03 362.18 C 389.46 365.82 405.19 373.64 417.29 385.44 C 419.18 376.66 421.03 367.84 422.19 358.92 C 422.55 356.90 421.44 355.07 420.62 353.32 C 417.90 347.71 413.38 343.30 409.64 338.38 C 403.41 330.46 397.06 322.43 392.81 313.23 C 390.36 306.79 388.04 300.10 387.71 293.16 C 390.95 294.87 391.41 298.70 392.42 301.84 C 393.77 306.94 395.60 311.96 398.47 316.41 C 404.69 326.14 412.37 334.80 419.57 343.78 C 417.12 335.51 413.80 327.54 410.27 319.69 C 408.66 316.09 406.39 312.82 405.12 309.07 C 409.13 309.37 411.04 313.17 412.71 316.28 C 416.56 324.00 420.04 331.93 422.62 340.16 C 425.37 348.88 426.52 357.97 428.13 366.94 C 429.71 374.19 430.20 381.76 433.26 388.62 C 434.84 392.11 436.38 396.18 440.04 397.97 C 444.14 399.74 448.65 400.11 452.95 401.21 C 457.51 402.24 461.81 404.10 466.14 405.82 C 470.40 407.54 474.85 408.87 478.81 411.27 C 473.07 411.58 467.83 408.94 462.43 407.43 C 455.28 405.10 447.72 404.64 440.45 402.89 C 441.58 406.47 442.34 410.17 442.49 413.93 C 443.01 424.62 443.44 435.32 443.94 446.01 C 444.22 457.00 444.60 468.16 447.36 478.85 C 448.33 483.18 452.68 485.07 456.30 486.76 C 462.49 489.48 467.80 493.75 473.05 497.92 C 476.04 500.44 479.75 503.18 479.49 507.59 C 474.79 503.91 470.34 499.92 465.28 496.73 C 460.24 493.16 454.60 490.62 449.24 487.61 C 448.97 490.63 448.80 493.75 447.51 496.55 C 445.70 501.07 441.95 504.41 439.82 508.75 C 438.19 512.02 436.79 515.42 435.94 518.98 C 435.07 521.68 436.87 524.50 439.18 525.82 C 442.15 527.39 445.40 528.36 448.64 529.21 C 467.81 534.19 487.23 538.86 507.09 539.85 C 527.77 540.83 548.55 539.64 569.01 536.43 C 584.63 533.98 600.32 531.71 615.65 527.78 C 626.04 524.48 636.65 520.43 644.46 512.53 C 646.33 510.62 647.31 507.85 646.63 505.21 C 645.20 498.19 639.75 493.10 636.61 486.89 C 630.89 490.90 624.32 493.49 617.80 495.91 C 599.12 501.89 579.44 503.48 560.03 505.39 C 552.76 506.42 545.12 506.48 538.37 509.71 C 548.13 514.57 559.20 515.50 569.88 516.55 C 582.70 517.88 595.59 516.78 608.44 517.34 C 610.21 517.32 611.83 518.04 613.33 518.97 C 610.93 519.62 608.47 520.04 605.99 520.12 C 594.40 520.41 582.79 521.33 571.22 520.31 C 560.52 519.38 549.57 518.49 539.52 514.42 C 537.08 513.49 534.09 511.24 535.27 508.25 C 537.16 505.15 541.17 504.52 544.44 503.75 C 559.83 501.07 575.52 500.66 590.93 498.10 C 603.20 496.05 615.61 493.57 626.74 487.77 C 630.78 485.61 636.48 483.50 636.77 478.14 C 638.16 468.40 635.78 458.67 634.90 448.99 C 631.52 425.79 627.91 402.49 628.07 378.98 C 627.94 370.77 630.98 362.70 629.54 354.50 C 627.34 360.70 624.93 366.86 621.42 372.45 C 616.03 381.20 611.18 390.25 606.47 399.38 C 604.77 402.53 603.20 406.06 599.83 407.76 C 601.78 400.18 606.24 393.58 609.50 386.53 C 614.65 376.07 621.52 366.46 625.49 355.42 C 626.51 352.33 628.41 349.16 627.41 345.82 C 625.37 336.31 625.56 326.55 624.72 316.91 C 623.87 308.28 626.37 299.84 627.54 291.36 C 623.95 293.23 619.87 292.96 615.97 292.84 C 606.07 292.87 598.16 285.90 588.82 283.62 C 587.53 290.73 585.47 297.73 585.13 304.98 C 584.54 315.66 585.25 326.36 586.37 336.98 C 586.82 341.77 587.72 346.57 587.06 351.39 C 584.28 347.87 584.01 343.29 583.35 339.04 C 581.83 327.42 580.88 315.70 581.10 303.98 C 581.24 296.74 582.98 289.67 585.02 282.77 C 581.13 282.06 577.19 281.66 573.23 281.69 C 568.79 286.26 564.41 290.91 560.42 295.89 C 561.13 297.51 561.80 299.16 562.41 300.84 C 559.91 299.94 556.20 297.39 558.06 294.34 C 564.77 283.29 574.93 275.00 584.06 266.04 C 593.73 256.80 604.89 248.29 618.13 245.13 C 619.66 244.55 620.78 245.45 621.48 246.76 C 613.20 249.87 604.99 253.51 598.06 259.11 C 590.37 264.90 583.76 271.93 576.65 278.39 C 583.85 278.11 591.15 279.19 597.74 282.20 C 603.15 284.24 607.90 288.30 613.89 288.56 C 617.91 288.84 622.54 289.79 625.97 287.03 C 631.89 282.70 636.90 277.27 642.15 272.17 C 648.15 266.45 653.28 259.93 658.53 253.54 C 664.44 246.02 668.98 237.40 675.86 230.68 C 654.58 216.99 630.60 206.71 612.83 188.18 C 607.63 182.97 604.52 175.75 598.02 171.88 C 590.15 166.45 580.21 165.44 570.92 166.41 C 549.74 169.00 528.48 173.70 507.05 171.49 M 688.15 248.97 C 702.26 257.59 717.31 264.53 731.90 272.31 C 732.57 266.65 735.51 261.56 736.20 255.96 C 735.62 251.84 731.33 252.75 728.32 252.63 C 726.98 250.19 727.98 246.45 725.14 244.91 C 722.21 243.30 718.96 245.10 715.95 245.40 C 714.28 243.59 713.32 241.14 711.27 239.69 C 709.12 238.15 707.03 240.74 704.93 241.19 C 702.24 240.12 700.06 237.48 696.99 237.58 C 692.19 239.54 691.23 245.29 688.15 248.97 M 681.01 244.20 C 682.30 245.08 683.60 245.97 684.92 246.85 C 685.70 245.78 686.49 244.71 687.28 243.65 C 686.75 242.79 686.19 241.96 685.62 241.15 C 683.49 240.74 682.40 243.02 681.01 244.20 M 638.51 281.33 C 651.50 289.87 662.44 301.18 675.78 309.22 C 690.87 319.48 708.99 324.44 727.06 325.54 C 729.81 325.64 731.65 323.13 733.24 321.23 C 737.42 315.40 739.82 308.20 739.60 301.00 C 738.88 293.72 737.59 286.34 734.27 279.76 C 732.27 275.90 727.65 274.91 724.18 272.83 C 706.27 263.28 686.84 255.68 671.78 241.64 C 661.95 255.85 651.21 269.55 638.51 281.33 M 360.11 365.38 C 358.33 372.79 357.39 380.40 357.40 388.03 C 357.83 405.02 361.83 421.86 360.33 438.90 C 359.91 443.68 359.90 448.50 360.62 453.26 C 366.53 455.28 372.81 455.78 379.02 455.50 C 390.60 455.76 401.68 459.88 413.20 460.77 C 422.43 461.68 431.79 460.68 440.79 458.58 C 440.24 446.18 439.62 433.79 439.39 421.39 C 431.32 417.84 423.22 414.35 415.21 410.64 C 414.42 415.21 414.26 419.85 413.96 424.47 C 409.66 418.65 411.09 410.70 413.18 404.29 C 415.17 398.83 414.60 392.89 413.38 387.34 C 412.79 384.97 410.31 383.88 408.57 382.47 C 394.31 372.70 377.45 366.24 360.11 365.38 M 424.77 370.92 C 423.28 377.47 422.43 384.51 418.54 390.18 C 419.36 396.09 418.69 402.09 416.30 407.58 C 424.10 410.37 431.79 413.47 439.31 416.94 C 439.06 412.07 439.18 406.99 437.28 402.40 C 435.78 400.07 433.43 398.39 432.06 395.96 C 427.58 388.36 426.15 379.49 424.77 370.92 M 618.57 532.47 C 606.93 535.98 594.88 537.92 582.91 539.91 C 552.57 545.13 521.46 547.25 490.81 543.59 C 472.97 540.66 455.05 537.11 438.07 530.79 C 434.28 534.18 431.29 538.31 428.57 542.58 C 421.38 553.87 409.37 560.66 400.75 570.68 C 394.73 577.14 390.70 585.06 386.96 592.97 C 391.83 597.85 394.75 604.15 397.60 610.33 C 402.48 621.03 410.49 630.53 420.99 636.05 C 434.84 643.24 449.41 649.07 462.70 657.33 C 468.95 661.10 475.49 664.78 480.03 670.68 C 486.86 667.18 491.71 660.87 495.43 654.33 C 500.37 645.57 504.57 636.40 509.82 627.82 C 514.17 620.73 518.46 613.20 525.44 608.35 C 529.69 605.38 534.48 601.93 539.95 602.57 C 546.12 604.51 550.57 609.80 554.07 615.00 C 560.63 627.07 565.43 640.21 567.15 653.88 C 569.10 667.42 571.95 680.80 575.43 694.03 C 591.89 691.97 608.48 693.95 624.99 694.18 C 636.87 694.32 648.69 691.55 659.41 686.46 C 670.63 681.47 679.53 672.19 691.52 668.80 C 689.61 663.26 687.62 657.72 686.19 652.03 C 681.60 631.84 678.61 611.16 671.31 591.68 C 667.55 581.88 666.03 571.41 662.25 561.61 C 658.01 547.00 650.77 533.56 643.86 520.09 C 636.18 525.62 627.31 529.06 618.57 532.47 M 407.30 632.65 C 407.38 640.39 406.44 648.11 404.79 655.66 C 401.27 669.34 398.17 683.26 392.18 696.15 C 385.19 711.03 375.65 724.57 365.71 737.61 C 380.11 736.24 394.76 739.27 407.91 745.15 C 414.63 748.34 421.34 752.57 424.99 759.30 C 429.05 751.38 432.77 742.60 440.28 737.31 C 446.39 733.31 449.86 726.63 453.73 720.67 C 462.43 705.16 468.74 688.47 475.05 671.89 C 470.44 666.89 464.34 663.75 458.61 660.24 C 448.85 654.43 438.48 649.76 428.13 645.11 C 420.68 641.91 413.35 638.13 407.30 632.65 M 641.94 697.31 C 628.61 700.28 614.93 698.64 601.45 698.12 C 602.00 701.81 602.35 705.55 602.21 709.29 C 610.56 707.89 619.73 708.95 626.46 714.47 C 633.45 719.41 637.15 727.66 638.73 735.85 C 641.16 748.72 638.78 762.89 630.64 773.38 C 636.37 772.35 642.32 770.17 648.13 771.98 C 650.13 772.56 652.28 773.29 654.30 772.27 C 661.77 770.25 666.55 763.61 670.35 757.33 C 675.02 748.27 678.71 738.32 678.56 727.98 C 678.83 720.95 677.90 713.97 677.61 706.96 C 677.42 697.47 678.12 687.91 680.64 678.73 C 668.99 687.15 656.19 694.48 641.94 697.31 M 507.93 714.73 C 510.53 719.16 513.28 723.71 513.91 728.92 C 516.13 746.92 509.15 764.07 506.44 781.58 C 504.31 793.91 503.69 806.45 503.94 818.95 C 506.58 808.86 509.39 798.80 513.26 789.10 C 512.12 786.59 510.97 783.92 511.44 781.10 C 512.35 772.53 517.47 765.28 520.28 757.31 C 523.93 748.55 526.23 738.52 522.85 729.31 C 520.83 722.25 515.27 716.21 507.93 714.73 M 575.84 722.65 C 560.48 726.74 544.76 729.74 528.86 730.45 C 529.56 734.76 529.89 739.15 529.36 743.51 C 527.72 755.55 521.20 766.06 516.69 777.13 C 522.09 774.52 528.03 773.08 534.05 773.28 C 554.74 773.69 575.20 778.49 595.96 777.36 C 604.86 776.85 613.95 776.83 622.60 774.43 C 628.31 770.68 630.92 763.75 632.63 757.41 C 635.02 746.49 634.29 734.34 628.48 724.57 C 624.80 718.09 617.32 714.39 609.99 714.46 C 598.08 714.44 587.11 719.56 575.84 722.65 M 479.57 723.59 C 471.43 729.75 466.42 739.31 464.41 749.19 C 461.51 761.64 462.01 774.49 460.52 787.12 C 459.08 797.19 456.03 806.95 454.41 816.99 C 452.83 830.40 454.09 844.88 461.64 856.44 C 464.81 861.10 468.78 865.88 474.40 867.53 C 478.99 868.37 483.09 865.19 485.79 861.80 C 492.10 853.60 496.54 844.02 499.07 834.00 C 500.60 829.11 499.67 823.96 499.66 818.95 C 499.50 806.24 500.01 793.49 502.14 780.94 C 504.71 763.69 511.58 746.83 509.64 729.12 C 508.98 724.22 506.34 719.94 503.64 715.92 C 495.30 717.04 486.58 718.62 479.57 723.59 M 362.28 742.30 C 354.32 751.71 347.04 761.85 342.32 773.31 C 334.32 792.48 328.72 812.53 323.36 832.56 C 320.27 843.50 316.07 854.10 313.10 865.07 C 308.05 881.74 304.58 898.86 299.12 915.40 C 310.47 916.18 322.40 912.04 333.22 917.06 C 331.58 907.83 336.28 899.33 340.59 891.57 C 348.99 877.45 360.24 865.33 370.69 852.74 C 383.05 837.99 393.51 821.77 403.21 805.20 C 410.66 792.44 417.09 779.12 422.24 765.28 C 419.66 760.83 416.35 756.72 411.84 754.13 C 397.09 745.15 379.45 741.31 362.28 742.30 M 295.34 921.50 C 292.79 922.21 291.07 924.48 289.71 926.63 C 284.30 935.91 281.50 946.37 278.52 956.62 C 276.98 962.04 275.01 967.42 274.59 973.09 C 274.36 976.74 275.51 981.07 279.04 982.85 C 283.34 985.00 288.28 985.23 293.00 985.46 C 301.84 985.60 310.95 984.86 319.08 981.10 C 326.30 978.20 332.98 972.67 335.21 964.97 C 337.52 956.87 336.85 948.33 336.92 940.01 C 336.64 934.12 336.32 926.84 330.88 923.23 C 324.88 919.65 317.53 920.80 310.91 921.32 C 305.73 921.87 300.51 920.89 295.34 921.50 Z" />
	</g>
	<g id="#f0b58bff">
		<path fill="#f0b58b" opacity="1.00"
			d=" M 528.44 76.96 C 532.15 85.37 536.41 93.53 539.80 102.09 C 544.42 111.76 547.41 122.25 547.82 133.00 C 548.08 141.02 547.91 149.34 544.94 156.91 C 544.31 158.83 542.33 160.72 540.21 159.61 C 531.88 156.42 524.06 152.05 516.37 147.56 C 514.50 146.40 512.34 145.87 510.21 145.45 C 510.95 147.31 511.81 149.25 513.54 150.42 C 518.53 154.22 523.97 157.41 529.44 160.49 C 529.02 162.60 528.68 164.72 528.43 166.86 C 520.68 167.32 512.87 167.53 505.15 166.50 C 494.59 165.15 483.85 165.32 473.31 166.83 C 473.88 161.91 473.42 156.90 471.55 152.29 C 481.67 149.73 491.20 145.30 500.33 140.32 C 506.80 136.58 513.25 132.32 517.56 126.06 C 516.20 116.80 508.44 110.75 504.11 102.97 C 502.54 100.47 503.04 96.45 506.08 95.37 C 509.74 94.37 513.35 95.98 516.60 97.50 C 522.10 99.92 526.37 104.41 531.93 106.72 C 530.85 101.72 528.49 97.07 527.85 91.96 C 526.84 86.97 527.63 81.90 528.44 76.96 Z" />
		<path fill="#f0b58b" opacity="1.00"
			d=" M 688.15 248.97 C 691.23 245.29 692.19 239.54 696.99 237.58 C 700.06 237.48 702.24 240.12 704.93 241.19 C 707.03 240.74 709.12 238.15 711.27 239.69 C 713.32 241.14 714.28 243.59 715.95 245.40 C 718.96 245.10 722.21 243.30 725.14 244.91 C 727.98 246.45 726.98 250.19 728.32 252.63 C 731.33 252.75 735.62 251.84 736.20 255.96 C 735.51 261.56 732.57 266.65 731.90 272.31 C 717.31 264.53 702.26 257.59 688.15 248.97 Z" />
		<path fill="#f0b58b" opacity="1.00"
			d=" M 681.01 244.20 C 682.40 243.02 683.49 240.74 685.62 241.15 C 686.19 241.96 686.75 242.79 687.28 243.65 C 686.49 244.71 685.70 245.78 684.92 246.85 C 683.60 245.97 682.30 245.08 681.01 244.20 Z" />
		<path fill="#f0b58b" opacity="1.00"
			d=" M 638.51 281.33 C 651.21 269.55 661.95 255.85 671.78 241.64 C 686.84 255.68 706.27 263.28 724.18 272.83 C 727.65 274.91 732.27 275.90 734.27 279.76 C 737.59 286.34 738.88 293.72 739.60 301.00 C 739.82 308.20 737.42 315.40 733.24 321.23 C 731.65 323.13 729.81 325.64 727.06 325.54 C 708.99 324.44 690.87 319.48 675.78 309.22 C 662.44 301.18 651.50 289.87 638.51 281.33 Z" />
		<path fill="#f0b58b" opacity="1.00"
			d=" M 360.11 365.38 C 377.45 366.24 394.31 372.70 408.57 382.47 C 410.31 383.88 412.79 384.97 413.38 387.34 C 414.60 392.89 415.17 398.83 413.18 404.29 C 411.09 410.70 409.66 418.65 413.96 424.47 C 414.26 419.85 414.42 415.21 415.21 410.64 C 423.22 414.35 431.32 417.84 439.39 421.39 C 439.62 433.79 440.24 446.18 440.79 458.58 C 431.79 460.68 422.43 461.68 413.20 460.77 C 401.68 459.88 390.60 455.76 379.02 455.50 C 372.81 455.78 366.53 455.28 360.62 453.26 C 359.90 448.50 359.91 443.68 360.33 438.90 C 361.83 421.86 357.83 405.02 357.40 388.03 C 357.39 380.40 358.33 372.79 360.11 365.38 Z" />
		<path fill="#f0b58b" opacity="1.00"
			d=" M 407.30 632.65 C 413.35 638.13 420.68 641.91 428.13 645.11 C 438.48 649.76 448.85 654.43 458.61 660.24 C 464.34 663.75 470.44 666.89 475.05 671.89 C 468.74 688.47 462.43 705.16 453.73 720.67 C 449.86 726.63 446.39 733.31 440.28 737.31 C 432.77 742.60 429.05 751.38 424.99 759.30 C 421.34 752.57 414.63 748.34 407.91 745.15 C 394.76 739.27 380.11 736.24 365.71 737.61 C 375.65 724.57 385.19 711.03 392.18 696.15 C 398.17 683.26 401.27 669.34 404.79 655.66 C 406.44 648.11 407.38 640.39 407.30 632.65 Z" />
		<path fill="#f0b58b" opacity="1.00"
			d=" M 641.94 697.31 C 656.19 694.48 668.99 687.15 680.64 678.73 C 678.12 687.91 677.42 697.47 677.61 706.96 C 677.90 713.97 678.83 720.95 678.56 727.98 C 678.71 738.32 675.02 748.27 670.35 757.33 C 666.55 763.61 661.77 770.25 654.30 772.27 C 652.28 773.29 650.13 772.56 648.13 771.98 C 642.32 770.17 636.37 772.35 630.64 773.38 C 638.78 762.89 641.16 748.72 638.73 735.85 C 637.15 727.66 633.45 719.41 626.46 714.47 C 619.73 708.95 610.56 707.89 602.21 709.29 C 602.35 705.55 602.00 701.81 601.45 698.12 C 614.93 698.64 628.61 700.28 641.94 697.31 Z" />
	</g>
	<g id="#f11b27ff">
		<path fill="var(--shirt-color, grey)" opacity="1.00"
			d=" M 507.05 171.49 C 528.48 173.70 549.74 169.00 570.92 166.41 C 580.21 165.44 590.15 166.45 598.02 171.88 C 604.52 175.75 607.63 182.97 612.83 188.18 C 630.60 206.71 654.58 216.99 675.86 230.68 C 668.98 237.40 664.44 246.02 658.53 253.54 C 653.28 259.93 648.15 266.45 642.15 272.17 C 636.90 277.27 631.89 282.70 625.97 287.03 C 622.54 289.79 617.91 288.84 613.89 288.56 C 607.90 288.30 603.15 284.24 597.74 282.20 C 591.15 279.19 583.85 278.11 576.65 278.39 C 583.76 271.93 590.37 264.90 598.06 259.11 C 604.99 253.51 613.20 249.87 621.48 246.76 C 620.78 245.45 619.66 244.55 618.13 245.13 C 604.89 248.29 593.73 256.80 584.06 266.04 C 574.93 275.00 564.77 283.29 558.06 294.34 C 556.20 297.39 559.91 299.94 562.41 300.84 C 561.80 299.16 561.13 297.51 560.42 295.89 C 564.41 290.91 568.79 286.26 573.23 281.69 C 577.19 281.66 581.13 282.06 585.02 282.77 C 582.98 289.67 581.24 296.74 581.10 303.98 C 580.88 315.70 581.83 327.42 583.35 339.04 C 584.01 343.29 584.28 347.87 587.06 351.39 C 587.72 346.57 586.82 341.77 586.37 336.98 C 585.25 326.36 584.54 315.66 585.13 304.98 C 585.47 297.73 587.53 290.73 588.82 283.62 C 598.16 285.90 606.07 292.87 615.97 292.84 C 619.87 292.96 623.95 293.23 627.54 291.36 C 626.37 299.84 623.87 308.28 624.72 316.91 C 625.56 326.55 625.37 336.31 627.41 345.82 C 628.41 349.16 626.51 352.33 625.49 355.42 C 621.52 366.46 614.65 376.07 609.50 386.53 C 606.24 393.58 601.78 400.18 599.83 407.76 C 603.20 406.06 604.77 402.53 606.47 399.38 C 611.18 390.25 616.03 381.20 621.42 372.45 C 624.93 366.86 627.34 360.70 629.54 354.50 C 630.98 362.70 627.94 370.77 628.07 378.98 C 627.91 402.49 631.52 425.79 634.90 448.99 C 635.78 458.67 638.16 468.40 636.77 478.14 C 636.48 483.50 630.78 485.61 626.74 487.77 C 615.61 493.57 603.20 496.05 590.93 498.10 C 575.52 500.66 559.83 501.07 544.44 503.75 C 541.17 504.52 537.16 505.15 535.27 508.25 C 534.09 511.24 537.08 513.49 539.52 514.42 C 549.57 518.49 560.52 519.38 571.22 520.31 C 582.79 521.33 594.40 520.41 605.99 520.12 C 608.47 520.04 610.93 519.62 613.33 518.97 C 611.83 518.04 610.21 517.32 608.44 517.34 C 595.59 516.78 582.70 517.88 569.88 516.55 C 559.20 515.50 548.13 514.57 538.37 509.71 C 545.12 506.48 552.76 506.42 560.03 505.39 C 579.44 503.48 599.12 501.89 617.80 495.91 C 624.32 493.49 630.89 490.90 636.61 486.89 C 639.75 493.10 645.20 498.19 646.63 505.21 C 647.31 507.85 646.33 510.62 644.46 512.53 C 636.65 520.43 626.04 524.48 615.65 527.78 C 600.32 531.71 584.63 533.98 569.01 536.43 C 548.55 539.64 527.77 540.83 507.09 539.85 C 487.23 538.86 467.81 534.19 448.64 529.21 C 445.40 528.36 442.15 527.39 439.18 525.82 C 436.87 524.50 435.07 521.68 435.94 518.98 C 436.79 515.42 438.19 512.02 439.82 508.75 C 441.95 504.41 445.70 501.07 447.51 496.55 C 448.80 493.75 448.97 490.63 449.24 487.61 C 454.60 490.62 460.24 493.16 465.28 496.73 C 470.34 499.92 474.79 503.91 479.49 507.59 C 479.75 503.18 476.04 500.44 473.05 497.92 C 467.80 493.75 462.49 489.48 456.30 486.76 C 452.68 485.07 448.33 483.18 447.36 478.85 C 444.60 468.16 444.22 457.00 443.94 446.01 C 443.44 435.32 443.01 424.62 442.49 413.93 C 442.34 410.17 441.58 406.47 440.45 402.89 C 447.72 404.64 455.28 405.10 462.43 407.43 C 467.83 408.94 473.07 411.58 478.81 411.27 C 474.85 408.87 470.40 407.54 466.14 405.82 C 461.81 404.10 457.51 402.24 452.95 401.21 C 448.65 400.11 444.14 399.74 440.04 397.97 C 436.38 396.18 434.84 392.11 433.26 388.62 C 430.20 381.76 429.71 374.19 428.13 366.94 C 426.52 357.97 425.37 348.88 422.62 340.16 C 420.04 331.93 416.56 324.00 412.71 316.28 C 411.04 313.17 409.13 309.37 405.12 309.07 C 406.39 312.82 408.66 316.09 410.27 319.69 C 413.80 327.54 417.12 335.51 419.57 343.78 C 412.37 334.80 404.69 326.14 398.47 316.41 C 395.60 311.96 393.77 306.94 392.42 301.84 C 391.41 298.70 390.95 294.87 387.71 293.16 C 388.04 300.10 390.36 306.79 392.81 313.23 C 397.06 322.43 403.41 330.46 409.64 338.38 C 413.38 343.30 417.90 347.71 420.62 353.32 C 421.44 355.07 422.55 356.90 422.19 358.92 C 421.03 367.84 419.18 376.66 417.29 385.44 C 405.19 373.64 389.46 365.82 373.03 362.18 C 366.19 360.65 359.13 360.19 352.17 360.98 C 357.03 342.97 359.54 324.39 364.69 306.45 C 369.20 294.18 368.82 280.85 372.19 268.31 C 374.57 258.53 378.86 248.36 387.58 242.62 C 394.10 238.41 401.11 234.98 407.46 230.49 C 416.16 224.68 422.88 216.43 431.53 210.55 C 442.78 203.36 456.41 202.24 469.01 198.80 C 473.40 197.49 478.12 197.17 482.28 195.15 L 482.35 193.71 C 475.62 192.79 469.06 195.10 462.50 196.24 C 452.07 198.14 441.51 200.17 431.92 204.87 C 436.45 198.55 444.41 196.17 449.03 189.97 C 451.92 186.48 454.03 182.44 456.87 178.92 C 460.55 174.39 466.56 172.96 472.01 171.83 C 483.57 169.86 495.44 169.98 507.05 171.49 Z" />
	</g>
	<g id="#2b3dcdff">
		<path fill="var(--pants-color, grey)" opacity="1.00"
			d=" M 618.57 532.47 C 627.31 529.06 636.18 525.62 643.86 520.09 C 650.77 533.56 658.01 547.00 662.25 561.61 C 666.03 571.41 667.55 581.88 671.31 591.68 C 678.61 611.16 681.60 631.84 686.19 652.03 C 687.62 657.72 689.61 663.26 691.52 668.80 C 679.53 672.19 670.63 681.47 659.41 686.46 C 648.69 691.55 636.87 694.32 624.99 694.18 C 608.48 693.95 591.89 691.97 575.43 694.03 C 571.95 680.80 569.10 667.42 567.15 653.88 C 565.43 640.21 560.63 627.07 554.07 615.00 C 550.57 609.80 546.12 604.51 539.95 602.57 C 534.48 601.93 529.69 605.38 525.44 608.35 C 518.46 613.20 514.17 620.73 509.82 627.82 C 504.57 636.40 500.37 645.57 495.43 654.33 C 491.71 660.87 486.86 667.18 480.03 670.68 C 475.49 664.78 468.95 661.10 462.70 657.33 C 449.41 649.07 434.84 643.24 420.99 636.05 C 410.49 630.53 402.48 621.03 397.60 610.33 C 394.75 604.15 391.83 597.85 386.96 592.97 C 390.70 585.06 394.73 577.14 400.75 570.68 C 409.37 560.66 421.38 553.87 428.57 542.58 C 431.29 538.31 434.28 534.18 438.07 530.79 C 455.05 537.11 472.97 540.66 490.81 543.59 C 521.46 547.25 552.57 545.13 582.91 539.91 C 594.88 537.92 606.93 535.98 618.57 532.47 Z" />
		<path fill="var(--socks-color, grey)" opacity="1.00"
			d=" M 575.84 722.65 C 587.11 719.56 598.08 714.44 609.99 714.46 C 617.32 714.39 624.80 718.09 628.48 724.57 C 634.29 734.34 635.02 746.49 632.63 757.41 C 630.92 763.75 628.31 770.68 622.60 774.43 C 613.95 776.83 604.86 776.85 595.96 777.36 C 575.20 778.49 554.74 773.69 534.05 773.28 C 528.03 773.08 522.09 774.52 516.69 777.13 C 521.20 766.06 527.72 755.55 529.36 743.51 C 529.89 739.15 529.56 734.76 528.86 730.45 C 544.76 729.74 560.48 726.74 575.84 722.65 Z" />
		<path fill="var(--socks-color, grey)" opacity="1.00"
			d=" M 362.28 742.30 C 379.45 741.31 397.09 745.15 411.84 754.13 C 416.35 756.72 419.66 760.83 422.24 765.28 C 417.09 779.12 410.66 792.44 403.21 805.20 C 393.51 821.77 383.05 837.99 370.69 852.74 C 360.24 865.33 348.99 877.45 340.59 891.57 C 336.28 899.33 331.58 907.83 333.22 917.06 C 322.40 912.04 310.47 916.18 299.12 915.40 C 304.58 898.86 308.05 881.74 313.10 865.07 C 316.07 854.10 320.27 843.50 323.36 832.56 C 328.72 812.53 334.32 792.48 342.32 773.31 C 347.04 761.85 354.32 751.71 362.28 742.30 Z" />
	</g>
	<g id="#4d4d4dff">
		<path fill="#4d4d4d" opacity="1.00"
			d=" M 507.93 714.73 C 515.27 716.21 520.83 722.25 522.85 729.31 C 526.23 738.52 523.93 748.55 520.28 757.31 C 517.47 765.28 512.35 772.53 511.44 781.10 C 510.97 783.92 512.12 786.59 513.26 789.10 C 509.39 798.80 506.58 808.86 503.94 818.95 C 503.69 806.45 504.31 793.91 506.44 781.58 C 509.15 764.07 516.13 746.92 513.91 728.92 C 513.28 723.71 510.53 719.16 507.93 714.73 Z" />
		<path fill="#4d4d4d" opacity="1.00"
			d=" M 479.57 723.59 C 486.58 718.62 495.30 717.04 503.64 715.92 C 506.34 719.94 508.98 724.22 509.64 729.12 C 511.58 746.83 504.71 763.69 502.14 780.94 C 500.01 793.49 499.50 806.24 499.66 818.95 C 499.67 823.96 500.60 829.11 499.07 834.00 C 496.54 844.02 492.10 853.60 485.79 861.80 C 483.09 865.19 478.99 868.37 474.40 867.53 C 468.78 865.88 464.81 861.10 461.64 856.44 C 454.09 844.88 452.83 830.40 454.41 816.99 C 456.03 806.95 459.08 797.19 460.52 787.12 C 462.01 774.49 461.51 761.64 464.41 749.19 C 466.42 739.31 471.43 729.75 479.57 723.59 Z" />
		<path fill="#4d4d4d" opacity="1.00"
			d=" M 295.34 921.50 C 300.51 920.89 305.73 921.87 310.91 921.32 C 317.53 920.80 324.88 919.65 330.88 923.23 C 336.32 926.84 336.64 934.12 336.92 940.01 C 336.85 948.33 337.52 956.87 335.21 964.97 C 332.98 972.67 326.30 978.20 319.08 981.10 C 310.95 984.86 301.84 985.60 293.00 985.46 C 288.28 985.23 283.34 985.00 279.04 982.85 C 275.51 981.07 274.36 976.74 274.59 973.09 C 275.01 967.42 276.98 962.04 278.52 956.62 C 281.50 946.37 284.30 935.91 289.71 926.63 C 291.07 924.48 292.79 922.21 295.34 921.50 Z" />
	</g>
</svg>