<?xml version="1.0" encoding="UTF-8" ?>
<!DOCTYPE svg PUBLIC "-//W3C//DTD SVG 1.1//EN" "http://www.w3.org/Graphics/SVG/1.1/DTD/svg11.dtd">
<svg width="1000pt" height="1000pt" viewBox="0 0 1000 1000" version="1.1" xmlns="http://www.w3.org/2000/svg">
	<g id="#020202ff">
		<path fill="#020202" opacity="1.00"
			d=" M 589.68 66.68 C 605.88 51.37 628.82 43.88 650.94 45.84 C 663.31 46.85 675.67 50.91 685.48 58.67 C 690.81 62.97 695.47 68.34 698.03 74.76 C 700.43 81.29 703.49 87.82 703.30 94.95 C 703.60 99.12 701.23 102.83 701.13 106.94 C 700.76 114.72 700.05 122.69 696.80 129.86 C 693.20 137.88 687.95 145.31 686.41 154.11 C 685.08 162.41 686.08 170.87 685.11 179.21 C 684.87 181.38 683.98 183.89 681.65 184.55 C 676.00 186.05 670.06 184.54 664.35 185.58 C 662.30 188.04 660.96 190.99 659.27 193.70 C 664.78 200.88 669.26 208.76 673.22 216.88 C 682.89 234.61 688.50 254.20 697.99 272.02 C 702.30 279.82 706.98 287.45 712.51 294.45 C 714.56 297.40 717.75 300.14 717.84 303.97 C 715.97 313.03 709.17 319.94 701.74 324.93 C 703.76 329.57 705.98 334.24 709.63 337.84 C 720.70 333.87 732.23 331.44 743.66 328.76 C 757.72 325.53 771.62 321.63 785.70 318.51 C 791.42 315.18 794.97 309.02 800.76 305.68 C 804.33 303.22 808.73 302.45 812.99 303.05 C 817.33 298.86 822.97 295.96 828.99 295.26 C 831.25 295.03 833.85 295.82 835.02 297.92 C 836.10 300.18 836.16 302.78 837.01 305.13 C 838.22 307.66 840.69 309.38 841.73 312.02 C 842.23 314.57 841.48 317.18 841.66 319.76 C 843.89 322.71 848.16 325.52 846.56 329.82 C 844.94 334.08 843.77 338.56 844.98 343.11 C 845.98 346.69 841.91 348.24 839.29 349.24 C 832.78 351.35 826.91 354.97 820.53 357.41 C 818.69 358.31 815.98 357.87 815.48 355.60 C 814.74 352.29 816.02 348.98 816.76 345.78 C 808.66 349.11 800.09 350.98 791.77 353.63 C 785.64 355.57 780.72 359.88 775.63 363.63 C 770.20 367.79 764.38 371.49 758.08 374.19 C 747.46 378.83 735.98 380.85 724.87 383.93 C 716.44 386.24 708.80 390.66 700.56 393.46 C 694.18 395.67 686.60 395.09 681.18 390.86 C 668.60 378.70 659.73 363.49 649.64 349.34 C 647.42 345.93 643.49 344.11 641.41 340.57 C 634.49 330.15 628.36 319.23 622.34 308.28 C 612.09 324.84 598.22 338.95 589.29 356.35 C 583.05 367.96 577.07 380.46 577.27 393.94 C 577.46 402.92 570.29 409.39 567.47 417.42 C 564.63 425.23 561.54 433.60 563.02 442.02 C 567.36 445.64 572.71 448.16 576.12 452.84 C 579.54 457.39 583.23 463.29 580.59 469.10 C 582.84 474.59 584.81 480.29 584.96 486.29 C 596.29 494.80 605.96 505.24 614.51 516.50 C 627.50 532.77 639.74 549.70 650.24 567.70 C 654.56 575.26 658.94 582.89 661.72 591.17 C 662.74 593.02 661.13 594.50 660.24 595.99 C 666.21 603.31 672.75 610.29 677.25 618.67 C 683.40 629.64 687.83 641.96 687.18 654.71 C 694.44 661.61 696.07 672.32 695.42 681.88 C 693.55 694.71 685.27 705.35 676.69 714.58 C 673.16 718.71 668.57 721.84 665.28 726.18 C 662.42 740.06 661.31 754.30 657.98 768.11 C 654.60 786.05 647.56 803.07 644.59 821.10 C 642.89 831.30 641.17 841.51 640.37 851.83 C 639.07 865.64 636.70 879.40 632.31 892.58 C 631.40 895.19 630.02 897.61 628.63 900.00 C 637.66 905.62 645.69 912.70 654.79 918.25 C 666.75 925.59 679.65 931.25 692.75 936.23 C 700.04 939.19 707.87 941.12 714.48 945.53 C 716.89 947.26 719.76 949.71 719.16 953.04 C 717.90 956.81 714.21 958.93 711.15 961.11 C 702.67 966.99 692.18 968.63 682.13 969.57 C 670.81 970.61 659.39 970.57 648.08 969.41 C 633.12 967.98 618.06 968.54 603.09 969.49 C 591.74 970.20 580.27 973.65 568.93 971.13 C 563.42 970.01 558.05 966.25 556.77 960.53 C 555.21 950.76 554.90 940.83 555.22 930.95 C 555.37 918.51 558.92 903.97 570.70 897.56 C 570.85 887.38 572.40 877.28 573.07 867.13 C 574.26 848.72 576.63 830.42 578.29 812.06 C 564.91 823.00 551.31 833.86 540.00 847.02 C 532.41 855.95 525.54 865.51 519.56 875.59 C 517.31 879.08 518.79 883.35 520.11 886.90 C 523.05 894.06 525.71 901.34 528.13 908.70 C 529.72 913.48 531.15 918.57 534.71 922.33 C 540.29 928.38 546.43 934.75 548.29 943.04 C 548.54 946.60 549.08 952.29 544.57 953.35 C 534.16 956.43 523.09 955.31 512.47 954.18 C 498.90 951.78 486.66 944.45 476.19 935.73 C 470.16 930.75 465.19 924.69 460.35 918.59 C 454.27 910.87 444.11 908.47 437.14 901.80 C 431.97 897.14 428.57 889.70 430.81 882.77 C 433.68 874.51 440.11 868.23 446.49 862.56 C 454.93 855.37 464.40 848.81 475.40 846.39 C 484.35 835.08 491.71 822.63 499.61 810.59 C 510.65 793.41 522.55 776.79 533.51 759.55 C 544.43 743.20 554.08 725.87 567.17 711.10 C 573.15 704.27 580.90 698.25 590.29 697.56 C 591.81 691.36 592.39 684.88 595.09 679.02 C 597.38 674.08 599.69 669.12 600.87 663.77 C 591.84 667.10 582.65 670.07 573.24 672.12 C 565.33 673.84 556.86 673.72 549.27 670.77 C 543.88 668.68 539.28 664.52 536.98 659.20 C 535.62 655.91 535.27 652.08 532.71 649.41 C 525.81 641.93 518.36 634.92 512.29 626.71 C 508.62 621.90 505.86 616.48 502.50 611.47 C 497.90 604.52 492.85 597.86 487.43 591.54 C 474.20 576.43 455.14 568.64 439.42 556.65 C 429.66 549.80 421.06 540.98 415.82 530.17 C 413.30 524.97 411.55 519.44 410.06 513.87 C 405.89 512.92 399.48 514.49 397.23 509.87 C 397.64 505.89 399.72 502.32 400.58 498.43 C 403.76 485.50 401.26 472.16 401.34 459.05 C 401.71 440.87 412.46 425.19 415.21 407.48 C 417.88 391.96 417.40 376.13 419.31 360.53 C 420.66 348.58 422.98 336.76 423.81 324.76 C 425.24 305.37 426.50 285.97 427.79 266.57 C 419.27 271.90 411.41 279.50 400.99 280.60 C 394.40 281.59 387.24 281.18 381.45 277.60 C 377.72 275.40 375.02 271.93 372.50 268.50 C 366.98 270.96 362.10 274.62 358.04 279.07 C 348.75 289.14 340.57 300.16 331.55 310.46 C 324.19 318.60 317.92 327.59 311.40 336.39 C 292.25 363.24 278.54 393.47 265.80 423.75 C 262.85 430.11 257.96 435.25 253.74 440.76 C 249.71 446.06 245.66 451.33 241.73 456.70 C 239.35 459.68 236.79 462.97 233.01 464.16 C 229.79 465.18 226.09 463.00 225.30 459.76 C 224.38 455.80 225.98 451.88 227.47 448.29 C 222.35 452.91 216.91 457.16 211.55 461.51 C 208.05 464.07 204.50 467.20 200.02 467.71 C 195.58 467.79 192.57 463.12 193.96 459.01 C 190.31 461.43 185.53 464.10 181.18 461.83 C 177.77 459.88 178.59 455.23 180.50 452.50 C 184.70 446.09 189.88 440.37 195.21 434.88 C 189.73 438.44 184.11 442.06 177.76 443.84 C 175.40 444.66 172.24 443.67 171.64 441.01 C 170.90 437.38 172.99 433.94 175.27 431.31 C 180.13 425.87 186.14 421.62 192.32 417.83 C 187.73 418.40 182.77 419.36 178.34 417.48 C 176.12 416.40 173.70 414.11 174.37 411.40 C 175.43 408.57 178.39 407.17 180.97 406.02 C 189.34 402.68 198.16 400.68 206.71 397.88 C 216.52 394.62 224.59 387.90 232.41 381.37 C 235.40 378.77 239.18 377.43 242.52 375.39 C 246.49 371.95 249.36 367.46 252.00 362.97 C 262.44 346.43 268.39 327.63 277.34 310.32 C 284.30 296.20 292.52 282.70 302.40 270.43 C 314.69 254.86 328.55 240.38 344.60 228.64 C 350.45 224.46 356.44 220.37 363.13 217.64 C 363.77 215.33 363.77 212.45 365.98 210.98 C 374.24 204.71 382.92 199.01 391.93 193.87 C 400.16 188.81 409.60 185.51 416.70 178.73 C 425.38 170.38 433.17 160.71 443.91 154.84 C 449.10 151.88 455.11 150.88 461.00 150.64 C 477.83 149.91 494.88 152.81 511.52 149.26 C 521.13 146.99 530.47 143.62 539.41 139.43 C 545.01 136.48 552.97 135.99 557.07 141.66 C 560.42 141.15 563.92 140.73 566.89 138.97 C 570.67 136.74 573.70 133.52 576.96 130.63 C 577.02 120.95 573.04 111.70 573.23 101.99 C 573.27 88.53 579.97 75.74 589.68 66.68 M 684.93 91.95 C 679.89 95.06 681.09 102.97 675.91 105.84 C 670.15 107.15 664.87 103.17 660.75 99.61 C 656.58 103.50 652.12 107.20 648.98 112.02 C 645.93 116.42 644.01 121.44 642.02 126.37 C 638.14 123.54 633.57 121.40 630.37 117.79 C 629.42 111.92 630.29 105.70 627.84 100.09 C 619.70 101.32 611.01 106.28 608.82 114.72 C 606.78 123.43 609.77 132.22 609.83 140.94 C 609.52 143.22 606.45 143.40 605.06 141.99 C 598.84 137.18 591.85 133.30 586.29 127.69 C 582.64 124.13 580.65 119.38 578.48 114.88 C 578.43 114.78 578.32 114.57 578.27 114.46 C 578.81 119.39 580.41 124.12 581.17 129.01 C 580.12 132.05 577.72 134.34 575.54 136.61 C 572.48 139.57 569.43 142.84 565.29 144.26 C 561.62 145.69 557.63 145.97 553.75 145.58 C 552.19 150.93 550.65 156.45 551.24 162.08 C 551.86 170.38 555.28 178.08 558.28 185.73 C 565.86 203.79 575.50 220.90 583.25 238.88 C 584.78 232.28 590.38 227.56 591.57 220.85 C 592.95 214.85 594.40 208.43 599.02 203.99 C 602.84 200.40 606.37 195.51 611.98 194.85 C 615.57 194.74 618.36 197.42 621.19 199.23 C 616.36 190.88 614.51 181.30 610.71 172.50 C 608.94 167.84 606.43 163.45 605.21 158.59 C 608.61 161.18 610.21 165.24 612.08 168.93 C 617.97 181.30 622.91 194.19 630.29 205.79 C 631.57 208.03 634.27 209.35 636.83 208.78 C 640.08 208.18 642.09 205.30 644.07 202.93 C 648.37 197.31 653.52 192.32 657.09 186.16 C 658.59 183.79 660.02 180.76 663.07 180.16 C 668.56 179.11 674.18 179.70 679.74 179.51 C 680.53 171.65 679.71 163.74 680.50 155.88 C 681.16 149.27 684.16 143.23 687.18 137.41 C 684.58 137.80 681.96 137.98 679.42 138.65 C 675.84 139.76 675.11 145.44 671.18 145.35 C 664.23 138.39 658.02 130.71 651.86 123.06 C 650.28 121.69 652.00 119.58 653.81 120.04 C 663.28 120.26 672.76 121.03 682.13 122.46 C 686.76 122.91 688.46 127.91 690.83 131.17 C 695.01 124.04 696.65 115.88 697.80 107.81 C 694.88 109.42 691.49 111.34 688.20 109.46 C 690.45 105.02 693.19 100.23 692.30 95.06 C 691.90 91.72 687.57 90.13 684.93 91.95 M 539.27 145.28 C 531.09 149.29 522.37 152.12 513.54 154.33 C 494.89 158.57 475.69 154.19 456.86 156.19 C 449.54 156.88 443.27 161.15 437.83 165.79 C 431.47 171.10 426.09 177.43 420.06 183.09 C 412.16 190.48 401.71 194.02 392.71 199.75 C 384.13 205.06 374.93 209.90 367.92 217.28 C 366.63 232.48 368.75 248.39 376.18 261.94 C 379.48 268.57 385.27 274.54 392.91 275.60 C 400.94 277.58 408.56 273.35 415.02 269.06 C 424.41 262.51 433.57 255.18 444.56 251.48 C 452.71 248.62 461.54 248.22 470.07 249.13 C 474.22 249.75 479.60 250.54 480.87 255.33 C 475.60 254.64 470.39 253.19 465.03 253.44 C 457.87 253.27 450.89 255.05 444.20 257.44 C 447.29 260.53 450.03 263.97 452.19 267.77 C 458.52 278.70 463.70 290.23 469.57 301.40 C 475.12 312.63 482.40 322.98 490.93 332.14 C 493.42 334.89 496.40 337.18 498.72 340.09 C 497.54 342.68 494.51 341.46 492.80 340.22 C 487.54 336.56 483.30 331.66 479.04 326.92 C 468.03 313.89 461.82 297.76 454.32 282.64 C 450.20 274.55 446.75 265.80 440.22 259.27 C 439.09 259.84 437.97 260.41 436.85 260.99 C 441.23 266.83 443.13 273.99 445.07 280.91 C 449.01 294.91 450.59 309.48 450.84 324.00 C 450.80 326.02 450.99 328.18 450.01 330.03 C 447.62 329.73 447.66 326.91 447.18 325.12 C 445.20 311.66 444.07 298.02 440.46 284.86 C 438.37 277.31 436.57 269.53 432.51 262.74 C 431.64 268.78 432.58 274.90 432.13 280.98 C 431.31 295.93 430.54 310.90 429.37 325.83 C 428.58 336.96 426.36 347.91 425.02 358.97 C 422.30 378.45 423.95 398.56 418.34 417.61 C 414.40 432.39 405.95 446.27 406.74 462.03 C 407.57 477.79 408.91 494.24 402.48 509.12 C 414.94 508.57 427.53 509.66 439.87 507.39 C 443.91 506.66 447.88 504.63 450.08 501.06 C 453.77 495.39 458.05 489.03 465.07 487.40 C 472.64 485.91 480.39 487.29 488.03 486.59 C 500.90 486.41 513.29 482.57 525.36 478.46 C 533.07 475.89 540.77 472.66 549.02 472.49 C 560.28 472.25 571.20 476.55 580.34 482.91 C 579.18 479.07 578.21 475.18 577.29 471.28 C 564.59 471.61 553.55 464.32 543.41 457.55 C 518.56 440.69 494.38 422.28 466.58 410.44 C 457.36 406.65 447.51 402.62 437.34 404.04 C 441.22 410.96 449.44 412.98 454.75 418.36 C 449.11 418.45 444.22 415.26 439.72 412.22 C 437.32 410.39 434.64 408.47 433.52 405.56 C 432.47 402.56 435.03 399.58 437.94 399.15 C 444.22 398.01 450.58 399.70 456.59 401.46 C 489.30 412.47 516.97 433.76 545.37 452.70 C 554.92 458.94 564.94 466.18 576.83 466.37 C 575.93 460.39 572.15 455.21 567.46 451.57 C 558.74 444.80 548.34 440.76 538.99 435.01 C 519.70 422.43 503.22 405.61 490.79 386.24 C 483.45 373.99 477.66 360.51 475.54 346.32 C 477.45 347.84 479.02 349.77 479.76 352.13 C 484.04 363.86 489.00 375.47 496.21 385.74 C 507.82 402.19 522.08 416.81 538.50 428.50 C 543.91 432.34 549.91 435.21 555.72 438.39 C 553.66 432.10 552.42 425.57 551.87 418.98 C 550.77 405.66 549.22 392.27 545.37 379.42 C 542.50 370.01 539.33 360.69 535.65 351.57 C 534.55 349.04 533.90 346.34 534.15 343.57 C 538.03 345.74 539.20 350.27 540.94 354.03 C 543.92 361.39 547.38 368.55 549.96 376.06 C 556.13 393.34 556.05 411.88 558.10 429.89 C 559.81 422.03 561.97 414.12 566.17 407.18 C 568.45 403.04 571.66 398.98 571.48 393.99 C 571.45 388.20 572.19 382.39 574.04 376.89 C 578.71 362.53 586.12 349.16 594.72 336.80 C 605.08 322.72 616.28 309.13 624.63 293.69 C 631.39 280.85 639.40 268.69 645.58 255.54 C 646.29 253.83 647.44 252.37 649.09 251.47 C 648.92 257.30 645.96 262.44 643.57 267.58 C 638.53 277.58 633.98 287.82 628.67 297.68 C 640.16 298.70 651.70 297.62 663.07 295.89 C 666.55 295.32 670.06 294.95 673.60 294.97 C 671.37 299.19 665.93 298.89 661.92 299.97 C 650.30 301.88 638.38 303.31 626.69 301.17 C 626.01 302.30 625.34 303.43 624.68 304.57 C 633.12 316.51 640.90 328.93 647.47 342.01 C 655.01 339.79 662.61 337.73 669.98 334.99 C 683.19 330.21 695.50 323.12 706.41 314.30 C 709.54 311.66 710.82 307.60 712.49 304.00 C 699.27 288.65 689.49 270.68 682.18 251.86 C 674.98 233.27 666.59 215.07 655.93 198.20 C 652.22 202.42 649.02 207.09 645.00 211.03 C 640.79 215.13 633.28 216.58 628.66 212.36 C 623.92 207.66 619.43 202.10 612.96 199.77 C 609.13 200.09 606.48 203.40 603.65 205.66 C 596.35 211.33 598.00 221.68 594.13 229.25 C 590.98 234.93 587.71 240.55 584.02 245.91 C 580.68 241.45 577.92 236.60 575.45 231.61 C 566.46 213.46 556.12 195.90 549.19 176.80 C 544.98 165.70 544.05 152.99 548.00 141.70 C 545.01 142.71 542.09 143.89 539.27 145.28 M 302.18 279.12 C 291.94 292.59 284.07 307.68 277.00 323.00 C 268.90 340.50 262.44 359.19 250.15 374.33 C 252.76 374.16 255.52 374.09 257.70 375.79 C 251.27 376.80 244.77 378.54 239.35 382.26 C 231.56 388.96 223.64 395.78 214.26 400.18 C 204.31 404.78 193.20 405.90 183.14 410.21 C 181.70 410.82 180.47 411.81 179.27 412.79 C 187.20 414.77 195.37 412.58 202.94 410.14 C 206.02 409.27 208.71 407.26 211.93 406.85 C 212.29 409.19 210.15 410.43 208.60 411.68 C 201.30 417.05 193.74 422.06 186.64 427.69 C 182.56 431.13 178.13 434.55 175.91 439.57 C 188.08 436.07 197.83 427.55 208.97 421.91 C 212.40 420.26 215.30 417.34 219.23 416.88 C 217.81 420.35 214.73 422.62 212.11 425.13 C 206.55 430.22 201.54 435.86 196.37 441.34 C 191.72 446.65 186.50 451.73 183.46 458.21 C 188.88 457.91 193.25 454.45 197.43 451.36 C 207.48 444.22 214.61 433.88 224.21 426.21 C 225.45 425.53 226.74 423.54 228.31 424.86 C 228.13 428.00 225.49 430.25 223.65 432.58 C 216.62 439.88 209.31 446.93 202.76 454.69 C 200.93 456.96 198.96 459.24 198.00 462.04 C 198.48 462.32 199.46 462.89 199.95 463.17 C 203.16 462.37 205.80 460.26 208.46 458.39 C 215.70 453.03 222.58 447.19 230.00 442.06 C 234.69 438.98 236.86 433.04 242.04 430.58 C 244.22 430.23 243.81 432.77 242.80 433.74 C 238.18 439.65 233.52 445.71 230.73 452.74 C 230.02 454.99 228.93 457.84 230.85 459.79 C 233.65 458.87 235.55 456.50 237.27 454.25 C 243.09 446.14 248.96 438.05 255.36 430.39 C 258.13 427.03 260.70 423.44 262.20 419.32 C 265.46 410.73 269.15 402.31 273.16 394.05 C 285.70 367.91 299.35 342.06 317.11 319.04 C 325.14 308.15 334.25 298.12 342.67 287.54 C 350.46 278.41 358.15 267.75 370.32 264.39 C 363.72 251.27 361.40 236.35 362.77 221.79 C 338.66 236.16 318.70 256.60 302.18 279.12 M 817.86 305.56 C 824.11 309.93 831.82 314.12 834.09 321.97 C 835.45 326.63 830.34 330.69 825.97 329.37 C 820.51 327.67 815.60 324.53 810.15 322.75 C 807.50 325.36 805.49 328.52 802.98 331.23 C 802.54 331.06 801.65 330.72 801.21 330.55 C 801.08 326.08 804.26 322.19 807.34 319.28 C 810.70 316.53 814.74 319.60 818.04 320.88 C 821.90 322.32 825.54 325.68 829.93 324.44 C 828.02 318.37 822.41 314.87 817.44 311.49 C 814.59 309.70 811.47 307.45 807.92 308.15 C 797.74 310.38 793.83 323.32 783.06 324.08 C 776.55 325.42 770.16 327.23 763.71 328.78 C 742.47 334.39 720.75 338.27 700.00 345.62 C 701.33 343.34 703.39 341.67 705.44 340.05 C 701.66 336.82 698.95 332.49 697.97 327.61 C 684.74 337.44 668.59 342.05 652.68 345.33 C 659.46 352.11 664.14 360.56 669.56 368.39 C 674.41 375.38 679.00 382.88 686.00 387.97 C 689.89 390.82 695.15 389.98 699.41 388.45 C 707.51 385.38 715.05 380.86 723.46 378.59 C 735.99 375.08 749.12 372.98 760.75 366.84 C 770.58 362.15 778.07 353.67 788.14 349.44 C 798.81 345.80 810.04 343.82 820.47 339.44 C 822.42 338.38 824.33 337.23 826.48 336.56 C 826.07 338.84 825.04 340.91 823.79 342.83 C 821.94 345.72 821.19 349.11 820.45 352.41 C 827.23 349.61 833.87 346.50 840.80 344.06 C 838.65 338.64 840.02 332.82 842.46 327.77 C 840.62 325.52 838.04 323.77 836.94 321.02 C 836.56 318.63 837.40 316.27 837.47 313.89 C 836.33 311.16 833.46 309.50 832.46 306.67 C 831.75 304.38 831.52 301.98 831.08 299.64 C 826.08 299.98 821.77 302.67 817.86 305.56 M 539.08 480.00 C 521.34 486.24 502.97 492.05 483.96 491.84 C 478.08 492.05 472.08 491.10 466.29 492.44 C 460.59 494.23 457.76 499.97 454.59 504.55 C 451.58 509.21 446.33 512.00 440.95 512.93 C 432.24 514.41 423.36 514.34 414.56 514.09 C 417.86 523.43 422.00 532.71 428.86 540.02 C 444.45 556.92 466.43 565.61 483.87 580.22 C 496.38 591.68 505.73 606.10 514.42 620.55 C 520.64 630.13 528.98 638.04 536.58 646.49 C 539.07 649.09 539.92 652.64 540.92 655.98 C 542.21 660.48 545.88 664.25 550.40 665.53 C 557.85 668.13 565.95 667.71 573.46 665.62 C 581.57 663.39 589.66 661.13 597.72 658.72 C 589.42 651.37 580.37 644.93 570.95 639.12 C 566.76 636.49 562.15 634.50 558.34 631.29 C 566.37 619.24 577.24 609.42 588.44 600.38 C 601.66 589.81 616.36 580.70 632.61 575.65 C 636.33 574.73 641.34 573.27 644.26 576.65 C 649.08 581.90 653.49 587.51 657.78 593.20 C 647.14 571.99 634.46 551.83 620.05 532.97 C 609.22 518.92 599.02 504.14 585.46 492.51 C 573.51 481.03 555.29 474.27 539.08 480.00 M 606.09 594.07 C 590.82 604.15 576.78 616.17 564.88 630.10 C 575.57 635.17 585.55 641.75 594.30 649.73 C 599.38 654.24 604.57 658.72 608.82 664.06 C 610.23 665.60 610.61 667.67 610.61 669.72 C 608.94 668.74 607.36 667.65 605.84 666.48 C 605.02 670.31 603.72 674.03 602.09 677.60 C 614.32 675.43 626.87 676.35 639.04 678.41 C 648.33 680.04 657.69 682.43 665.82 687.38 C 667.71 679.87 675.56 676.36 678.24 669.33 C 679.68 665.70 681.56 662.10 681.61 658.11 C 683.17 642.07 675.87 626.78 666.92 613.97 C 657.81 602.32 649.40 590.04 639.15 579.33 C 627.32 582.11 616.36 587.71 606.09 594.07 M 686.42 661.71 C 685.46 665.70 684.52 669.77 682.52 673.40 C 680.45 677.48 677.09 680.64 674.13 684.05 C 671.37 687.33 670.90 691.77 670.37 695.86 C 669.51 703.17 667.85 710.35 666.46 717.58 C 674.15 709.79 681.80 701.59 686.71 691.69 C 691.48 682.46 691.56 670.80 686.42 661.71 M 598.92 685.00 C 596.45 694.90 595.29 705.07 594.20 715.20 C 591.65 735.13 590.25 755.19 588.16 775.17 C 586.12 796.47 583.47 817.69 581.41 838.99 C 579.76 849.93 579.12 860.98 578.07 871.99 C 577.31 881.70 575.32 891.31 575.12 901.06 C 574.97 904.79 578.93 906.88 582.10 907.53 C 589.97 908.94 598.01 907.41 605.71 905.72 C 613.63 903.53 622.64 900.16 626.33 892.19 C 630.08 880.27 632.48 867.93 633.78 855.51 C 635.94 835.60 638.57 815.59 644.51 796.40 C 651.18 775.08 655.48 753.09 658.39 730.96 C 660.02 718.45 662.95 706.16 664.68 693.67 C 660.58 691.53 656.32 689.68 651.87 688.39 C 634.78 683.44 616.49 681.73 598.92 685.00 M 572.99 712.98 C 560.16 727.29 550.64 744.09 540.09 760.06 C 530.23 775.43 519.77 790.40 509.70 805.62 C 499.42 820.98 490.14 837.06 478.45 851.43 C 476.98 853.58 474.59 855.82 475.30 858.69 C 476.78 860.44 479.07 861.19 481.25 861.67 C 488.37 863.04 495.72 863.23 502.71 865.26 C 507.28 866.56 510.81 869.88 514.06 873.18 C 520.69 861.49 528.58 850.52 537.46 840.44 C 549.59 827.00 563.87 815.67 578.96 805.72 C 582.91 771.06 585.46 736.26 589.83 701.65 C 583.22 703.67 577.51 707.82 572.99 712.98 M 437.50 880.42 C 434.15 884.83 435.50 891.07 438.99 894.98 C 444.47 901.28 452.84 903.67 459.35 908.63 C 463.76 911.94 466.83 916.59 470.25 920.83 C 478.99 931.78 490.91 939.92 503.79 945.23 C 512.34 948.91 521.88 948.81 531.01 948.47 C 535.23 948.16 539.86 948.17 543.19 945.11 C 541.07 940.92 538.82 936.76 535.89 933.08 C 532.42 928.54 527.85 924.75 525.52 919.42 C 523.00 913.66 521.27 907.60 519.07 901.73 C 516.73 894.69 513.09 887.92 512.89 880.35 C 508.45 876.98 504.75 872.01 498.89 871.13 C 490.08 868.86 479.84 870.55 472.18 864.87 C 468.27 862.22 468.67 857.21 469.73 853.21 C 457.43 860.09 445.58 868.68 437.50 880.42 M 560.91 927.99 C 560.68 937.97 559.90 948.09 561.83 957.97 C 562.57 961.75 565.73 964.97 569.56 965.64 C 577.66 967.27 585.89 965.47 593.95 964.50 C 605.20 962.89 616.59 962.70 627.94 962.53 C 642.99 962.31 657.92 965.31 672.99 964.42 C 683.83 963.78 695.20 963.29 705.01 958.11 C 708.21 956.42 711.87 954.91 713.51 951.43 C 704.92 946.31 695.22 943.64 685.97 939.99 C 674.46 935.70 663.24 930.59 652.67 924.32 C 642.73 918.20 633.87 910.53 624.27 903.93 C 612.63 912.00 597.87 915.01 583.91 913.63 C 577.80 913.17 572.82 908.93 570.60 903.34 C 564.23 909.88 561.09 918.96 560.91 927.99 Z" />
		<path fill="#020202" opacity="1.00"
			d=" M 434.82 213.16 C 433.53 211.58 433.21 209.55 433.21 207.58 C 436.21 210.30 438.79 213.45 441.80 216.18 C 448.22 222.08 455.77 226.62 463.61 230.41 C 465.45 231.30 467.12 232.52 468.62 233.91 C 465.59 234.16 462.58 233.52 459.89 232.12 C 450.43 227.55 441.06 221.81 434.82 213.16 Z" />
		<path fill="#020202" opacity="1.00"
			d=" M 415.21 238.79 C 419.78 237.39 424.37 239.70 429.00 239.59 C 445.90 240.18 463.42 234.88 479.81 241.13 C 485.85 243.65 493.53 245.39 496.56 251.86 C 487.85 247.59 478.93 243.19 469.13 242.21 C 454.93 240.21 440.71 244.46 426.51 242.66 C 422.54 242.11 418.48 241.23 415.21 238.79 Z" />
	</g>
	<g id="#f0b58bff">
		<path fill="#f0b58b" opacity="1.00"
			d=" M 684.93 91.95 C 687.57 90.13 691.90 91.72 692.30 95.06 C 693.19 100.23 690.45 105.02 688.20 109.46 C 691.49 111.34 694.88 109.42 697.80 107.81 C 696.65 115.88 695.01 124.04 690.83 131.17 C 688.46 127.91 686.76 122.91 682.13 122.46 C 672.76 121.03 663.28 120.26 653.81 120.04 C 652.00 119.58 650.28 121.69 651.86 123.06 C 658.02 130.71 664.23 138.39 671.18 145.35 C 675.11 145.44 675.84 139.76 679.42 138.65 C 681.96 137.98 684.58 137.80 687.18 137.41 C 684.16 143.23 681.16 149.27 680.50 155.88 C 679.71 163.74 680.53 171.65 679.74 179.51 C 674.18 179.70 668.56 179.11 663.07 180.16 C 660.02 180.76 658.59 183.79 657.09 186.16 C 653.52 192.32 648.37 197.31 644.07 202.93 C 642.09 205.30 640.08 208.18 636.83 208.78 C 634.27 209.35 631.57 208.03 630.29 205.79 C 622.91 194.19 617.97 181.30 612.08 168.93 C 610.21 165.24 608.61 161.18 605.21 158.59 C 606.43 163.45 608.94 167.84 610.71 172.50 C 614.51 181.30 616.36 190.88 621.19 199.23 C 618.36 197.42 615.57 194.74 611.98 194.85 C 606.37 195.51 602.84 200.40 599.02 203.99 C 594.40 208.43 592.95 214.85 591.57 220.85 C 590.38 227.56 584.78 232.28 583.25 238.88 C 575.50 220.90 565.86 203.79 558.28 185.73 C 555.28 178.08 551.86 170.38 551.24 162.08 C 550.65 156.45 552.19 150.93 553.75 145.58 C 557.63 145.97 561.62 145.69 565.29 144.26 C 569.43 142.84 572.48 139.57 575.54 136.61 C 577.72 134.34 580.12 132.05 581.17 129.01 C 580.41 124.12 578.81 119.39 578.27 114.46 L 578.48 114.88 C 580.65 119.38 582.64 124.13 586.29 127.69 C 591.85 133.30 598.84 137.18 605.06 141.99 C 606.45 143.40 609.52 143.22 609.83 140.94 C 609.77 132.22 606.78 123.43 608.82 114.72 C 611.01 106.28 619.70 101.32 627.84 100.09 C 630.29 105.70 629.42 111.92 630.37 117.79 C 633.57 121.40 638.14 123.54 642.02 126.37 C 644.01 121.44 645.93 116.42 648.98 112.02 C 652.12 107.20 656.58 103.50 660.75 99.61 C 664.87 103.17 670.15 107.15 675.91 105.84 C 681.09 102.97 679.89 95.06 684.93 91.95 Z" />
		<path fill="#f0b58b" opacity="1.00"
			d=" M 302.18 279.12 C 318.70 256.60 338.66 236.16 362.77 221.79 C 361.40 236.35 363.72 251.27 370.32 264.39 C 358.15 267.75 350.46 278.41 342.67 287.54 C 334.25 298.12 325.14 308.15 317.11 319.04 C 299.35 342.06 285.70 367.91 273.16 394.05 C 269.15 402.31 265.46 410.73 262.20 419.32 C 260.70 423.44 258.13 427.03 255.36 430.39 C 248.96 438.05 243.09 446.14 237.27 454.25 C 235.55 456.50 233.65 458.87 230.85 459.79 C 228.93 457.84 230.02 454.99 230.73 452.74 C 233.52 445.71 238.18 439.65 242.80 433.74 C 243.81 432.77 244.22 430.23 242.04 430.58 C 236.86 433.04 234.69 438.98 230.00 442.06 C 222.58 447.19 215.70 453.03 208.46 458.39 C 205.80 460.26 203.16 462.37 199.95 463.17 C 199.46 462.89 198.48 462.32 198.00 462.04 C 198.96 459.24 200.93 456.96 202.76 454.69 C 209.31 446.93 216.62 439.88 223.65 432.58 C 225.49 430.25 228.13 428.00 228.31 424.86 C 226.74 423.54 225.45 425.53 224.21 426.21 C 214.61 433.88 207.48 444.22 197.43 451.36 C 193.25 454.45 188.88 457.91 183.46 458.21 C 186.50 451.73 191.72 446.65 196.37 441.34 C 201.54 435.86 206.55 430.22 212.11 425.13 C 214.73 422.62 217.81 420.35 219.23 416.88 C 215.30 417.34 212.40 420.26 208.97 421.91 C 197.83 427.55 188.08 436.07 175.91 439.57 C 178.13 434.55 182.56 431.13 186.64 427.69 C 193.74 422.06 201.30 417.05 208.60 411.68 C 210.15 410.43 212.29 409.19 211.93 406.85 C 208.71 407.26 206.02 409.27 202.94 410.14 C 195.37 412.58 187.20 414.77 179.27 412.79 C 180.47 411.81 181.70 410.82 183.14 410.21 C 193.20 405.90 204.31 404.78 214.26 400.18 C 223.64 395.78 231.56 388.96 239.35 382.26 C 244.77 378.54 251.27 376.80 257.70 375.79 C 255.52 374.09 252.76 374.16 250.15 374.33 C 262.44 359.19 268.90 340.50 277.00 323.00 C 284.07 307.68 291.94 292.59 302.18 279.12 Z" />
		<path fill="#f0b58b" opacity="1.00"
			d=" M 817.86 305.56 C 821.77 302.67 826.08 299.98 831.08 299.64 C 831.52 301.98 831.75 304.38 832.46 306.67 C 833.46 309.50 836.33 311.16 837.47 313.89 C 837.40 316.27 836.56 318.63 836.94 321.02 C 838.04 323.77 840.62 325.52 842.46 327.77 C 840.02 332.82 838.65 338.64 840.80 344.06 C 833.87 346.50 827.23 349.61 820.45 352.41 C 821.19 349.11 821.94 345.72 823.79 342.83 C 825.04 340.91 826.07 338.84 826.48 336.56 C 824.33 337.23 822.42 338.38 820.47 339.44 C 810.04 343.82 798.81 345.80 788.14 349.44 C 778.07 353.67 770.58 362.15 760.75 366.84 C 749.12 372.98 735.99 375.08 723.46 378.59 C 715.05 380.86 707.51 385.38 699.41 388.45 C 695.15 389.98 689.89 390.82 686.00 387.97 C 679.00 382.88 674.41 375.38 669.56 368.39 C 664.14 360.56 659.46 352.11 652.68 345.33 C 668.59 342.05 684.74 337.44 697.97 327.61 C 698.95 332.49 701.66 336.82 705.44 340.05 C 703.39 341.67 701.33 343.34 700.00 345.62 C 720.75 338.27 742.47 334.39 763.71 328.78 C 770.16 327.23 776.55 325.42 783.06 324.08 C 793.83 323.32 797.74 310.38 807.92 308.15 C 811.47 307.45 814.59 309.70 817.44 311.49 C 822.41 314.87 828.02 318.37 829.93 324.44 C 825.54 325.68 821.90 322.32 818.04 320.88 C 814.74 319.60 810.70 316.53 807.34 319.28 C 804.26 322.19 801.08 326.08 801.21 330.55 C 801.65 330.72 802.54 331.06 802.98 331.23 C 805.49 328.52 807.50 325.36 810.15 322.75 C 815.60 324.53 820.51 327.67 825.97 329.37 C 830.34 330.69 835.45 326.63 834.09 321.97 C 831.82 314.12 824.11 309.93 817.86 305.56 Z" />
		<path fill="#f0b58b" opacity="1.00"
			d=" M 606.09 594.07 C 616.36 587.71 627.32 582.11 639.15 579.33 C 649.40 590.04 657.81 602.32 666.92 613.97 C 675.87 626.78 683.17 642.07 681.61 658.11 C 681.56 662.10 679.68 665.70 678.24 669.33 C 675.56 676.36 667.71 679.87 665.82 687.38 C 657.69 682.43 648.33 680.04 639.04 678.41 C 626.87 676.35 614.32 675.43 602.09 677.60 C 603.72 674.03 605.02 670.31 605.84 666.48 C 607.36 667.65 608.94 668.74 610.61 669.72 C 610.61 667.67 610.23 665.60 608.82 664.06 C 604.57 658.72 599.38 654.24 594.30 649.73 C 585.55 641.75 575.57 635.17 564.88 630.10 C 576.78 616.17 590.82 604.15 606.09 594.07 Z" />
		<path fill="#f0b58b" opacity="1.00"
			d=" M 686.42 661.71 C 691.56 670.80 691.48 682.46 686.71 691.69 C 681.80 701.59 674.15 709.79 666.46 717.58 C 667.85 710.35 669.51 703.17 670.37 695.86 C 670.90 691.77 671.37 687.33 674.13 684.05 C 677.09 680.64 680.45 677.48 682.52 673.40 C 684.52 669.77 685.46 665.70 686.42 661.71 Z" />
	</g>
	<g id="#f11b27ff">
		<path fill="var(--shirt-color, grey)" opacity="1.00"
			d=" M 539.27 145.28 C 542.09 143.89 545.01 142.71 548.00 141.70 C 544.05 152.99 544.98 165.70 549.19 176.80 C 556.12 195.90 566.46 213.46 575.45 231.61 C 577.92 236.60 580.68 241.45 584.02 245.91 C 587.71 240.55 590.98 234.93 594.13 229.25 C 598.00 221.68 596.35 211.33 603.65 205.66 C 606.48 203.40 609.13 200.09 612.96 199.77 C 619.43 202.10 623.92 207.66 628.66 212.36 C 633.28 216.58 640.79 215.13 645.00 211.03 C 649.02 207.09 652.22 202.42 655.93 198.20 C 666.59 215.07 674.98 233.27 682.18 251.86 C 689.49 270.68 699.27 288.65 712.49 304.00 C 710.82 307.60 709.54 311.66 706.41 314.30 C 695.50 323.12 683.19 330.21 669.98 334.99 C 662.61 337.73 655.01 339.79 647.47 342.01 C 640.90 328.93 633.12 316.51 624.68 304.57 C 625.34 303.43 626.01 302.30 626.69 301.17 C 638.38 303.31 650.30 301.88 661.92 299.97 C 665.93 298.89 671.37 299.19 673.60 294.97 C 670.06 294.95 666.55 295.32 663.07 295.89 C 651.70 297.62 640.16 298.70 628.67 297.68 C 633.98 287.82 638.53 277.58 643.57 267.58 C 645.96 262.44 648.92 257.30 649.09 251.47 C 647.44 252.37 646.29 253.83 645.58 255.54 C 639.40 268.69 631.39 280.85 624.63 293.69 C 616.28 309.13 605.08 322.72 594.72 336.80 C 586.12 349.16 578.71 362.53 574.04 376.89 C 572.19 382.39 571.45 388.20 571.48 393.99 C 571.66 398.98 568.45 403.04 566.17 407.18 C 561.97 414.12 559.81 422.03 558.10 429.89 C 556.05 411.88 556.13 393.34 549.96 376.06 C 547.38 368.55 543.92 361.39 540.94 354.03 C 539.20 350.27 538.03 345.74 534.15 343.57 C 533.90 346.34 534.55 349.04 535.65 351.57 C 539.33 360.69 542.50 370.01 545.37 379.42 C 549.22 392.27 550.77 405.66 551.87 418.98 C 552.42 425.57 553.66 432.10 555.72 438.39 C 549.91 435.21 543.91 432.34 538.50 428.50 C 522.08 416.81 507.82 402.19 496.21 385.74 C 489.00 375.47 484.04 363.86 479.76 352.13 C 479.02 349.77 477.45 347.84 475.54 346.32 C 477.66 360.51 483.45 373.99 490.79 386.24 C 503.22 405.61 519.70 422.43 538.99 435.01 C 548.34 440.76 558.74 444.80 567.46 451.57 C 572.15 455.21 575.93 460.39 576.83 466.37 C 564.94 466.18 554.92 458.94 545.37 452.70 C 516.97 433.76 489.30 412.47 456.59 401.46 C 450.58 399.70 444.22 398.01 437.94 399.15 C 435.03 399.58 432.47 402.56 433.52 405.56 C 434.64 408.47 437.32 410.39 439.72 412.22 C 444.22 415.26 449.11 418.45 454.75 418.36 C 449.44 412.98 441.22 410.96 437.34 404.04 C 447.51 402.62 457.36 406.65 466.58 410.44 C 494.38 422.28 518.56 440.69 543.41 457.55 C 553.55 464.32 564.59 471.61 577.29 471.28 C 578.21 475.18 579.18 479.07 580.34 482.91 C 571.20 476.55 560.28 472.25 549.02 472.49 C 540.77 472.66 533.07 475.89 525.36 478.46 C 513.29 482.57 500.90 486.41 488.03 486.59 C 480.39 487.29 472.64 485.91 465.07 487.40 C 458.05 489.03 453.77 495.39 450.08 501.06 C 447.88 504.63 443.91 506.66 439.87 507.39 C 427.53 509.66 414.94 508.57 402.48 509.12 C 408.91 494.24 407.57 477.79 406.74 462.03 C 405.95 446.27 414.40 432.39 418.34 417.61 C 423.95 398.56 422.30 378.45 425.02 358.97 C 426.36 347.91 428.58 336.96 429.37 325.83 C 430.54 310.90 431.31 295.93 432.13 280.98 C 432.58 274.90 431.64 268.78 432.51 262.74 C 436.57 269.53 438.37 277.31 440.46 284.86 C 444.07 298.02 445.20 311.66 447.18 325.12 C 447.66 326.91 447.62 329.73 450.01 330.03 C 450.99 328.18 450.80 326.02 450.84 324.00 C 450.59 309.48 449.01 294.91 445.07 280.91 C 443.13 273.99 441.23 266.83 436.85 260.99 C 437.97 260.41 439.09 259.84 440.22 259.27 C 446.75 265.80 450.20 274.55 454.32 282.64 C 461.82 297.76 468.03 313.89 479.04 326.92 C 483.30 331.66 487.54 336.56 492.80 340.22 C 494.51 341.46 497.54 342.68 498.72 340.09 C 496.40 337.18 493.42 334.89 490.93 332.14 C 482.40 322.98 475.12 312.63 469.57 301.40 C 463.70 290.23 458.52 278.70 452.19 267.77 C 450.03 263.97 447.29 260.53 444.20 257.44 C 450.89 255.05 457.87 253.27 465.03 253.44 C 470.39 253.19 475.60 254.64 480.87 255.33 C 479.60 250.54 474.22 249.75 470.07 249.13 C 461.54 248.22 452.71 248.62 444.56 251.48 C 433.57 255.18 424.41 262.51 415.02 269.06 C 408.56 273.35 400.94 277.58 392.91 275.60 C 385.27 274.54 379.48 268.57 376.18 261.94 C 368.75 248.39 366.63 232.48 367.92 217.28 C 374.93 209.90 384.13 205.06 392.71 199.75 C 401.71 194.02 412.16 190.48 420.06 183.09 C 426.09 177.43 431.47 171.10 437.83 165.79 C 443.27 161.15 449.54 156.88 456.86 156.19 C 475.69 154.19 494.89 158.57 513.54 154.33 C 522.37 152.12 531.09 149.29 539.27 145.28 M 434.82 213.16 C 441.06 221.81 450.43 227.55 459.89 232.12 C 462.58 233.52 465.59 234.16 468.62 233.91 C 467.12 232.52 465.45 231.30 463.61 230.41 C 455.77 226.62 448.22 222.08 441.80 216.18 C 438.79 213.45 436.21 210.30 433.21 207.58 C 433.21 209.55 433.53 211.58 434.82 213.16 M 415.21 238.79 C 418.48 241.23 422.54 242.11 426.51 242.66 C 440.71 244.46 454.93 240.21 469.13 242.21 C 478.93 243.19 487.85 247.59 496.56 251.86 C 493.53 245.39 485.85 243.65 479.81 241.13 C 463.42 234.88 445.90 240.18 429.00 239.59 C 424.37 239.70 419.78 237.39 415.21 238.79 Z" />
	</g>
	<g id="#2b3dcdff">
		<path fill="var(--pants-color, grey)" opacity="1.00"
			d=" M 539.08 480.00 C 555.29 474.27 573.51 481.03 585.46 492.51 C 599.02 504.14 609.22 518.92 620.05 532.97 C 634.46 551.83 647.14 571.99 657.78 593.20 C 653.49 587.51 649.08 581.90 644.26 576.65 C 641.34 573.27 636.33 574.73 632.61 575.65 C 616.36 580.70 601.66 589.81 588.44 600.38 C 577.24 609.42 566.37 619.24 558.34 631.29 C 562.15 634.50 566.76 636.49 570.95 639.12 C 580.37 644.93 589.42 651.37 597.72 658.72 C 589.66 661.13 581.57 663.39 573.46 665.62 C 565.95 667.71 557.85 668.13 550.40 665.53 C 545.88 664.25 542.21 660.48 540.92 655.98 C 539.92 652.64 539.07 649.09 536.58 646.49 C 528.98 638.04 520.64 630.13 514.42 620.55 C 505.73 606.10 496.38 591.68 483.87 580.22 C 466.43 565.61 444.45 556.92 428.86 540.02 C 422.00 532.71 417.86 523.43 414.56 514.09 C 423.36 514.34 432.24 514.41 440.95 512.93 C 446.33 512.00 451.58 509.21 454.59 504.55 C 457.76 499.97 460.59 494.23 466.29 492.44 C 472.08 491.10 478.08 492.05 483.96 491.84 C 502.97 492.05 521.34 486.24 539.08 480.00 Z" />
		<path fill="var(--socks-color, grey)" opacity="1.00"
			d=" M 598.92 685.00 C 616.49 681.73 634.78 683.44 651.87 688.39 C 656.32 689.68 660.58 691.53 664.68 693.67 C 662.95 706.16 660.02 718.45 658.39 730.96 C 655.48 753.09 651.18 775.08 644.51 796.40 C 638.57 815.59 635.94 835.60 633.78 855.51 C 632.48 867.93 630.08 880.27 626.33 892.19 C 622.64 900.16 613.63 903.53 605.71 905.72 C 598.01 907.41 589.97 908.94 582.10 907.53 C 578.93 906.88 574.97 904.79 575.12 901.06 C 575.32 891.31 577.31 881.70 578.07 871.99 C 579.12 860.98 579.76 849.93 581.41 838.99 C 583.47 817.69 586.12 796.47 588.16 775.17 C 590.25 755.19 591.65 735.13 594.20 715.20 C 595.29 705.07 596.45 694.90 598.92 685.00 Z" />
		<path fill="var(--socks-color, grey)" opacity="1.00"
			d=" M 572.99 712.98 C 577.51 707.82 583.22 703.67 589.83 701.65 C 585.46 736.26 582.91 771.06 578.96 805.72 C 563.87 815.67 549.59 827.00 537.46 840.44 C 528.58 850.52 520.69 861.49 514.06 873.18 C 510.81 869.88 507.28 866.56 502.71 865.26 C 495.72 863.23 488.37 863.04 481.25 861.67 C 479.07 861.19 476.78 860.44 475.30 858.69 C 474.59 855.82 476.98 853.58 478.45 851.43 C 490.14 837.06 499.42 820.98 509.70 805.62 C 519.77 790.40 530.23 775.43 540.09 760.06 C 550.64 744.09 560.16 727.29 572.99 712.98 Z" />
	</g>
	<g id="#4d4d4dff">
		<path fill="#4d4d4d" opacity="1.00"
			d=" M 437.50 880.42 C 445.58 868.68 457.43 860.09 469.73 853.21 C 468.67 857.21 468.27 862.22 472.18 864.87 C 479.84 870.55 490.08 868.86 498.89 871.13 C 504.75 872.01 508.45 876.98 512.89 880.35 C 513.09 887.92 516.73 894.69 519.07 901.73 C 521.27 907.60 523.00 913.66 525.52 919.42 C 527.85 924.75 532.42 928.54 535.89 933.08 C 538.82 936.76 541.07 940.92 543.19 945.11 C 539.86 948.17 535.23 948.16 531.01 948.47 C 521.88 948.81 512.34 948.91 503.79 945.23 C 490.91 939.92 478.99 931.78 470.25 920.83 C 466.83 916.59 463.76 911.94 459.35 908.63 C 452.84 903.67 444.47 901.28 438.99 894.98 C 435.50 891.07 434.15 884.83 437.50 880.42 Z" />
		<path fill="#4d4d4d" opacity="1.00"
			d=" M 560.91 927.99 C 561.09 918.96 564.23 909.88 570.60 903.34 C 572.82 908.93 577.80 913.17 583.91 913.63 C 597.87 915.01 612.63 912.00 624.27 903.93 C 633.87 910.53 642.73 918.20 652.67 924.32 C 663.24 930.59 674.46 935.70 685.97 939.99 C 695.22 943.64 704.92 946.31 713.51 951.43 C 711.87 954.91 708.21 956.42 705.01 958.11 C 695.20 963.29 683.83 963.78 672.99 964.42 C 657.92 965.31 642.99 962.31 627.94 962.53 C 616.59 962.70 605.20 962.89 593.95 964.50 C 585.89 965.47 577.66 967.27 569.56 965.64 C 565.73 964.97 562.57 961.75 561.83 957.97 C 559.90 948.09 560.68 937.97 560.91 927.99 Z" />
	</g>
</svg>