<?xml version="1.0" encoding="UTF-8" ?>
<!DOCTYPE svg PUBLIC "-//W3C//DTD SVG 1.1//EN" "http://www.w3.org/Graphics/SVG/1.1/DTD/svg11.dtd">
<svg width="1000pt" height="1000pt" viewBox="0 0 1000 1000" version="1.1" xmlns="http://www.w3.org/2000/svg">
	<g id="#020202ff">
		<path fill="#020202" opacity="1.00"
			d=" M 353.02 16.81 C 358.86 15.44 365.52 13.77 371.04 17.05 C 376.13 20.07 380.56 24.10 384.74 28.27 C 389.78 33.04 388.00 41.86 394.15 45.79 C 408.66 54.70 426.09 58.26 443.00 57.21 C 453.98 56.48 464.90 58.99 475.14 62.76 C 482.29 65.17 488.02 71.67 496.11 70.86 C 497.91 67.05 498.75 62.88 500.00 58.87 C 509.41 59.04 518.43 62.67 526.26 67.71 C 532.45 71.58 538.15 77.61 545.95 77.65 C 562.91 77.52 580.43 76.39 596.72 82.09 C 606.16 85.46 615.04 90.24 623.59 95.45 C 631.37 100.20 638.22 106.26 645.64 111.51 C 651.08 115.25 658.13 112.27 663.88 115.07 C 670.40 117.76 675.52 122.84 679.80 128.33 C 688.20 124.57 697.71 120.90 702.75 112.72 C 709.20 86.96 733.69 67.44 759.95 65.41 C 777.73 63.79 796.37 69.21 809.73 81.25 C 818.84 89.39 825.11 100.80 826.53 112.98 C 827.87 124.59 825.30 136.85 818.39 146.39 C 814.76 151.39 811.25 156.61 806.50 160.64 C 803.89 162.88 800.24 162.60 797.04 162.80 C 786.31 174.68 772.85 184.05 758.01 190.05 C 743.00 196.13 727.03 200.44 710.76 200.76 C 711.43 203.28 712.69 205.63 714.97 207.04 C 722.92 212.56 731.44 217.81 737.08 225.90 C 741.49 232.24 746.06 239.12 746.53 247.07 C 747.13 254.88 745.96 262.80 743.24 270.15 C 737.65 284.68 736.24 300.53 737.23 315.98 C 737.18 325.17 739.70 336.39 732.31 343.56 C 732.28 352.72 731.76 361.89 731.92 371.05 C 731.96 378.03 737.71 382.69 740.35 388.67 C 746.56 402.47 750.99 417.06 753.53 431.98 C 755.36 443.26 757.17 454.55 758.61 465.90 C 759.67 473.64 760.53 481.64 764.29 488.64 C 773.13 505.67 777.48 524.52 781.91 543.05 C 785.46 557.78 784.99 573.34 780.70 587.85 C 778.55 594.99 775.89 601.98 772.77 608.76 C 769.07 617.43 760.51 623.04 751.75 625.66 C 749.82 626.50 747.70 625.11 747.76 623.01 C 747.48 618.09 752.06 615.14 755.28 612.25 C 758.09 610.14 759.11 606.67 760.41 603.58 C 751.25 606.44 741.54 609.21 731.87 607.78 C 729.09 607.56 726.27 605.15 727.15 602.14 C 728.39 597.13 733.73 595.13 738.00 593.35 C 735.09 588.19 735.65 582.12 734.78 576.46 C 734.59 574.15 733.94 571.77 734.59 569.49 C 736.85 567.48 740.04 569.20 742.59 569.70 C 735.97 560.37 730.12 549.03 732.17 537.26 C 732.95 532.07 737.56 528.73 739.32 524.05 C 736.60 512.58 728.13 503.85 721.62 494.40 C 713.85 482.82 704.58 472.22 698.20 459.75 C 689.11 442.72 681.59 424.34 679.79 404.97 C 678.87 397.63 681.35 390.35 680.20 383.03 C 679.40 374.53 676.04 366.58 674.61 358.21 C 671.65 357.14 667.85 356.65 666.01 353.92 C 665.96 349.59 666.76 345.30 666.61 340.97 C 666.76 331.86 663.56 323.19 660.17 314.88 C 655.81 316.70 649.84 318.49 649.21 324.00 C 647.74 332.74 645.92 342.71 638.22 348.23 C 630.40 353.54 621.44 356.85 612.80 360.58 C 612.80 365.32 611.84 370.17 609.18 374.17 C 606.93 377.59 603.27 379.63 600.35 382.39 C 596.45 385.97 593.59 390.47 590.95 395.02 C 589.52 398.00 585.85 397.99 583.10 398.82 C 584.59 403.73 585.91 408.83 585.64 414.01 C 585.21 417.70 582.05 420.20 579.23 422.21 C 573.08 426.30 566.61 429.88 560.60 434.18 C 563.38 443.60 562.31 454.00 557.70 462.67 C 555.61 466.16 557.02 470.23 556.96 474.02 C 557.21 479.40 556.09 484.69 554.60 489.82 C 552.68 495.07 557.36 499.38 558.92 504.06 C 564.81 519.92 565.58 537.23 564.23 553.96 C 563.01 566.50 560.95 578.99 557.47 591.12 C 554.07 603.27 550.54 615.77 543.09 626.15 C 540.39 630.17 539.24 634.94 537.66 639.46 C 532.73 653.88 527.66 668.50 519.32 681.37 C 511.81 691.58 502.14 701.51 489.29 704.31 C 478.50 707.23 466.96 706.08 456.59 702.10 C 451.52 708.70 448.37 716.45 445.05 724.01 C 437.94 739.67 431.85 755.91 422.46 770.42 C 412.72 785.73 402.67 800.92 390.65 814.55 C 381.22 826.85 369.75 839.01 367.28 854.93 C 366.60 860.04 364.47 864.89 364.00 870.01 C 366.37 885.69 364.33 901.63 361.05 917.02 C 358.96 927.36 356.01 937.82 357.21 948.47 C 358.11 956.66 357.85 964.95 357.01 973.14 C 356.61 978.13 354.01 983.09 349.61 985.66 C 342.81 989.85 334.11 988.87 327.00 986.01 C 313.82 980.17 304.50 967.07 301.99 953.02 C 300.08 943.79 300.85 934.35 300.84 925.02 C 301.07 909.29 292.91 894.74 293.47 878.99 C 293.98 870.01 296.46 860.52 302.94 853.96 C 310.63 847.58 317.66 840.33 326.33 835.20 C 332.32 819.56 337.61 803.55 340.60 787.04 C 345.01 764.69 350.79 742.53 359.42 721.41 C 366.15 704.12 375.51 687.61 388.99 674.68 C 370.07 666.97 352.19 656.94 335.00 645.96 C 322.84 638.61 310.65 630.74 296.79 627.00 C 287.66 624.34 278.11 623.77 268.89 621.47 C 262.87 620.03 256.63 621.56 250.54 620.69 C 236.73 619.69 223.91 614.12 210.91 609.86 C 202.90 607.26 194.37 607.21 186.04 607.54 C 179.18 607.95 172.27 608.66 165.69 610.77 C 158.97 612.65 152.03 614.74 144.97 613.95 C 140.60 613.65 137.75 609.08 138.02 604.98 C 138.27 595.98 143.52 587.95 150.14 582.19 C 161.52 571.71 176.85 567.58 191.29 563.22 C 202.58 560.25 213.84 557.09 224.67 552.68 C 237.20 547.96 249.34 541.03 263.03 540.52 C 270.95 539.74 279.01 541.99 285.65 546.29 C 292.72 551.21 293.76 560.33 296.31 567.88 C 297.39 571.97 301.44 574.15 304.93 575.94 C 314.15 579.78 323.00 584.59 332.67 587.27 C 348.36 591.94 364.80 592.80 381.01 594.07 C 393.40 595.14 405.65 597.57 417.45 601.53 C 416.51 597.73 415.09 594.09 413.45 590.55 C 410.54 584.12 408.57 577.32 407.10 570.43 C 402.36 567.11 398.16 562.15 398.45 556.00 C 398.66 533.16 403.51 509.97 398.37 487.35 C 394.38 475.63 390.42 463.87 387.39 451.85 C 385.23 441.75 384.02 431.24 386.01 421.00 C 389.22 401.04 402.35 384.76 408.64 365.90 C 409.10 362.94 408.65 359.77 409.94 356.98 C 411.25 354.11 413.24 351.63 415.17 349.17 C 427.95 332.88 441.69 317.03 458.30 304.52 C 458.01 293.86 460.39 283.38 463.38 273.22 C 467.99 253.73 477.78 235.78 490.29 220.27 C 492.30 217.56 494.51 214.68 494.68 211.16 C 495.48 202.74 495.70 194.01 499.14 186.13 C 502.35 178.77 506.59 171.90 509.51 164.40 C 512.36 158.39 512.94 151.59 512.40 145.02 C 500.50 139.33 488.09 131.91 482.45 119.38 C 464.63 118.33 447.40 112.79 431.09 105.78 C 419.39 100.75 407.67 95.36 397.58 87.48 C 390.75 82.67 384.39 77.19 377.33 72.72 C 371.23 68.79 363.50 70.84 357.02 68.06 C 354.31 66.91 352.40 64.48 351.17 61.88 C 347.79 54.74 347.66 46.59 344.75 39.29 C 343.75 36.65 340.79 35.09 338.04 35.54 C 332.07 35.78 325.71 39.22 320.04 35.89 C 317.63 34.93 314.64 31.69 317.47 29.46 C 322.90 26.47 329.43 26.05 334.69 22.68 C 340.19 19.15 346.86 18.55 353.02 16.81 M 355.05 20.18 C 360.05 22.52 365.49 23.57 370.69 25.31 C 372.85 26.00 373.32 28.39 373.84 30.29 C 368.16 26.61 360.93 27.18 355.02 23.90 C 351.70 21.77 347.77 21.80 344.04 22.61 C 350.07 25.01 355.54 28.58 360.96 32.10 C 362.56 33.00 363.31 34.69 364.01 36.31 C 355.60 35.14 349.44 27.83 341.03 26.76 C 333.87 27.47 326.81 29.28 320.01 31.60 C 325.46 35.66 332.00 32.13 338.02 32.17 C 342.09 31.84 346.48 33.89 348.19 37.74 C 351.26 44.66 351.55 52.45 354.51 59.41 C 355.44 61.61 356.96 63.80 359.36 64.51 C 365.30 66.51 372.06 65.15 377.65 68.34 C 388.17 74.58 397.54 82.52 407.76 89.19 C 421.51 97.13 436.25 103.22 451.16 108.58 C 461.09 112.02 471.47 113.78 481.77 115.65 C 484.69 101.27 490.48 87.70 495.35 73.92 C 486.97 75.73 480.27 69.82 472.90 67.14 C 466.96 64.89 460.75 63.31 454.48 62.33 C 446.32 61.09 438.07 62.67 429.91 61.69 C 418.57 61.00 407.40 57.91 397.29 52.75 C 393.19 50.73 389.42 47.86 386.87 44.03 C 384.25 39.92 384.96 34.25 381.32 30.74 C 377.44 26.87 373.23 23.23 368.40 20.61 C 364.27 18.31 359.45 19.61 355.05 20.18 M 502.84 62.44 C 500.78 80.64 490.36 96.51 486.52 114.26 C 485.85 117.34 488.10 119.97 489.78 122.29 C 495.50 129.34 503.14 134.60 511.01 139.01 C 509.60 134.12 507.30 129.48 506.51 124.41 C 511.65 130.05 514.26 137.48 516.32 144.69 C 518.97 156.78 513.03 168.25 507.70 178.68 C 504.09 185.34 500.67 192.32 500.08 199.99 C 498.94 206.64 500.28 214.17 495.90 219.85 C 491.56 225.92 486.83 231.73 483.17 238.26 C 472.77 253.77 467.86 272.07 463.86 290.09 C 460.83 304.82 463.44 320.02 461.01 334.78 C 459.74 332.72 458.95 330.40 458.88 327.98 C 458.50 322.42 458.24 316.85 457.32 311.35 C 443.99 322.99 431.53 335.67 420.69 349.67 C 416.79 354.63 411.25 359.97 412.67 366.92 C 413.91 378.39 422.69 386.90 431.46 393.43 C 439.88 400.09 449.43 405.04 458.80 410.20 C 480.56 422.45 504.06 432.73 529.14 435.30 C 535.76 435.80 542.42 437.05 549.07 436.24 C 551.91 436.02 553.94 433.81 556.11 432.23 C 562.64 426.89 570.05 422.81 577.03 418.11 C 578.70 416.78 580.95 415.37 581.09 413.01 C 581.21 408.34 580.09 403.76 579.31 399.19 C 574.62 399.88 569.90 401.52 565.12 400.77 C 565.18 399.54 565.87 398.46 567.13 398.17 C 573.57 395.78 580.56 395.34 587.06 393.25 C 589.44 389.56 591.21 385.45 594.12 382.10 C 596.68 378.64 600.42 376.42 603.67 373.71 C 607.19 370.81 608.43 366.22 609.49 361.98 C 599.48 365.85 589.47 369.69 579.44 373.51 C 576.02 374.76 572.74 376.64 569.05 376.91 C 567.13 374.39 570.77 373.55 572.37 372.43 C 589.61 363.83 608.07 357.96 625.34 349.42 C 629.85 347.13 634.90 345.18 638.03 340.99 C 641.75 335.89 642.73 329.47 643.64 323.38 C 644.65 314.74 653.90 309.29 662.07 309.80 C 670.46 310.00 678.99 310.15 687.18 312.23 C 679.46 313.83 671.49 313.27 663.69 314.34 C 665.67 317.99 667.99 321.48 669.67 325.29 C 673.38 333.60 673.31 343.17 670.81 351.81 C 677.19 352.75 683.54 354.58 690.05 354.03 C 699.78 353.41 708.80 349.36 717.62 345.51 C 722.37 343.15 727.17 340.65 731.24 337.22 C 732.99 333.41 732.87 329.04 732.74 324.93 C 732.41 320.13 732.52 315.32 732.24 310.53 C 731.51 301.61 732.96 292.72 734.23 283.92 C 735.52 274.60 740.44 266.25 741.56 256.91 C 742.26 251.25 742.56 245.21 740.20 239.88 C 738.44 235.83 736.20 231.99 733.64 228.40 C 728.28 220.73 719.98 216.00 712.71 210.38 C 714.22 215.20 715.58 220.07 717.20 224.85 C 718.75 229.46 721.15 233.84 721.60 238.76 C 717.14 235.01 715.48 229.23 712.73 224.31 C 708.78 217.14 706.82 209.12 705.85 201.05 C 704.79 192.49 702.06 184.23 698.52 176.39 C 692.90 164.21 687.11 152.10 680.85 140.23 C 676.45 132.08 671.20 123.79 663.05 118.95 C 659.36 116.66 654.85 117.93 650.85 118.36 C 643.57 119.50 635.88 119.81 628.90 117.07 C 625.09 115.52 620.09 114.39 618.82 109.88 C 626.46 111.78 634.00 114.47 641.98 114.64 C 635.97 110.49 630.37 105.80 624.40 101.61 C 614.76 95.13 604.45 89.45 593.40 85.75 C 581.35 81.88 568.52 81.90 556.00 82.23 C 549.76 82.34 543.17 83.42 537.26 80.83 C 531.72 78.33 527.25 74.09 522.21 70.79 C 516.31 66.87 509.64 64.30 502.84 62.44 M 681.70 131.33 C 687.41 140.25 691.98 149.83 696.62 159.33 C 700.78 168.55 705.42 177.60 708.43 187.29 C 711.68 180.74 714.49 173.01 721.25 169.27 C 717.56 177.82 711.46 185.45 710.07 194.91 C 722.44 194.67 734.51 191.58 746.34 188.23 C 763.27 183.44 779.16 174.79 791.90 162.61 C 782.40 163.50 773.90 168.21 765.72 172.76 C 764.31 173.90 762.05 173.38 761.66 171.51 C 760.50 166.47 761.68 161.15 763.50 156.40 C 764.93 152.66 768.19 149.88 769.29 146.01 C 769.97 142.01 765.09 140.08 761.88 141.09 C 753.44 142.57 748.32 150.07 743.18 156.17 C 740.66 158.84 738.07 162.65 733.98 162.53 C 729.78 161.47 725.80 159.33 722.73 156.24 C 714.94 148.11 707.48 139.24 703.43 128.59 C 702.37 126.07 702.26 123.32 702.08 120.64 C 696.60 126.27 689.21 129.46 681.70 131.33 M 721.17 350.41 C 708.17 356.51 693.84 362.02 679.23 359.13 C 684.57 371.19 686.62 384.88 684.43 397.92 C 683.83 404.86 685.05 411.83 686.59 418.59 C 690.11 431.92 695.56 444.70 702.23 456.75 C 706.58 465.38 712.46 473.08 718.12 480.86 C 723.06 487.64 727.46 494.80 732.34 501.62 C 736.58 507.55 740.37 513.97 742.26 521.06 C 743.82 525.61 739.67 529.15 737.95 532.97 C 733.84 539.37 735.84 547.38 738.11 554.07 C 742.32 564.30 749.51 572.88 755.56 582.02 C 754.95 585.00 751.31 585.05 748.94 584.72 C 745.52 584.38 745.35 580.25 744.00 577.85 C 743.05 575.05 740.63 573.28 738.22 571.82 C 740.00 577.57 739.77 583.77 741.62 589.46 C 744.67 592.09 749.24 592.21 753.07 591.59 C 762.05 589.81 771.10 586.15 777.35 579.23 C 779.48 577.04 778.92 573.72 779.21 570.95 C 779.80 560.60 778.45 550.24 775.87 540.23 C 771.56 523.62 767.48 506.76 759.49 491.45 C 754.93 482.99 753.81 473.32 752.35 463.97 C 750.92 453.64 749.13 443.36 747.41 433.08 C 744.97 418.73 740.25 404.87 734.50 391.53 C 732.44 386.51 728.17 382.65 726.79 377.32 C 725.57 373.13 725.64 368.72 726.11 364.43 C 726.76 358.45 726.76 352.41 727.94 346.50 C 725.74 347.90 723.52 349.27 721.17 350.41 M 410.54 375.21 C 404.72 392.12 393.16 407.05 391.29 425.25 C 389.03 443.36 396.34 460.63 401.53 477.58 C 406.26 488.74 406.54 501.10 405.83 513.02 C 405.46 526.03 403.95 538.98 403.17 551.97 C 403.05 555.50 402.75 559.72 405.69 562.29 C 411.26 567.81 419.55 568.70 426.99 569.10 C 434.55 568.89 442.19 568.50 449.52 566.48 C 451.68 577.52 450.01 588.83 450.22 600.00 C 450.43 605.35 449.72 610.70 448.38 615.88 C 455.45 617.52 462.69 618.24 469.84 619.46 C 481.83 621.15 493.81 623.17 505.94 623.53 C 517.34 623.91 528.74 624.27 540.14 624.63 C 543.19 617.72 546.57 610.93 548.86 603.71 C 555.12 584.74 559.32 564.99 560.09 544.99 C 560.23 528.98 558.45 512.43 550.94 498.04 C 547.97 493.46 550.60 488.35 551.80 483.69 C 553.28 478.39 552.98 472.84 552.31 467.44 C 551.68 463.48 554.13 460.08 555.47 456.55 C 558.20 450.24 558.29 443.20 557.95 436.44 C 553.67 439.76 548.57 442.23 543.01 441.78 C 525.51 440.48 507.97 437.59 491.44 431.53 C 472.06 424.66 453.78 414.85 437.01 403.00 C 426.07 396.22 415.05 387.78 410.54 375.21 M 257.30 546.29 C 245.90 548.32 235.73 554.20 224.93 558.09 C 204.16 566.68 180.98 568.81 161.43 580.41 C 153.23 585.70 144.95 592.72 142.64 602.66 C 142.15 604.82 141.43 607.87 143.83 609.20 C 146.07 610.00 148.54 609.60 150.86 609.41 C 170.77 605.97 188.97 596.58 206.06 586.16 C 216.47 579.70 228.90 575.74 241.21 577.84 C 250.13 579.61 259.26 577.07 267.30 573.27 C 273.85 569.91 280.10 565.15 283.39 558.41 C 284.91 555.24 283.31 551.41 280.52 549.56 C 273.86 544.71 265.04 545.19 257.30 546.29 M 288.01 560.52 C 280.85 573.93 266.04 581.23 251.49 583.39 C 244.95 584.25 238.52 581.97 231.98 582.48 C 223.83 582.79 216.10 585.96 209.21 590.14 C 201.93 594.55 194.61 598.93 186.91 602.58 C 196.12 602.48 205.54 602.59 214.33 605.72 C 228.61 610.55 242.88 616.21 258.12 616.97 C 254.44 613.68 250.28 610.08 249.43 604.95 C 249.14 600.40 253.87 597.77 257.65 596.69 C 267.72 594.17 278.35 598.71 288.30 595.23 C 293.90 592.89 295.97 585.83 294.70 580.29 C 293.13 573.49 289.91 567.22 288.01 560.52 M 412.01 572.80 C 413.68 579.70 416.17 586.38 418.92 592.92 C 420.29 596.04 420.80 599.43 420.68 602.82 C 429.03 605.89 437.13 609.65 445.00 613.80 C 445.36 609.88 445.76 605.95 445.53 602.02 C 445.02 592.70 445.13 583.35 445.15 574.02 C 434.14 575.55 422.77 576.09 412.01 572.80 M 299.16 577.77 C 300.89 585.56 299.01 595.47 291.20 599.27 C 281.97 603.50 271.63 600.19 261.93 600.88 C 258.88 600.94 256.22 602.49 253.72 604.05 C 255.26 607.34 257.00 610.78 260.11 612.87 C 265.83 617.20 273.19 617.81 280.01 619.01 C 291.41 620.47 302.87 622.73 313.31 627.71 C 334.59 637.66 353.05 652.66 374.40 662.50 C 393.83 672.09 414.44 678.92 434.85 686.03 C 454.10 675.23 464.16 651.13 459.40 629.74 C 450.64 623.15 441.39 617.07 431.27 612.78 C 414.85 605.06 397.08 600.22 378.96 598.98 C 362.00 597.91 344.87 596.58 328.56 591.50 C 318.14 588.39 308.49 583.25 299.16 577.77 M 749.05 579.29 C 748.55 580.66 749.01 581.19 750.44 580.86 C 750.91 579.48 750.45 578.95 749.05 579.29 M 745.04 596.24 C 739.49 595.29 733.70 598.41 730.82 603.12 C 741.66 604.60 752.50 601.17 762.52 597.30 C 767.56 595.52 771.33 591.64 774.84 587.78 C 766.27 593.97 755.63 597.30 745.04 596.24 M 764.77 601.72 C 763.44 605.98 762.50 610.83 758.90 613.84 C 756.03 616.29 753.01 618.64 750.95 621.87 C 757.00 619.56 762.96 616.22 766.98 611.02 C 770.35 605.80 772.38 599.87 774.94 594.25 C 772.00 597.30 768.53 599.76 764.77 601.72 M 457.15 621.93 C 463.94 626.91 469.49 633.59 473.14 641.19 C 472.87 641.53 472.34 642.22 472.08 642.56 C 468.59 641.58 467.10 637.87 464.89 635.34 C 466.25 642.76 465.59 650.42 463.45 657.63 C 459.72 670.07 452.06 681.72 440.85 688.61 C 448.51 692.75 456.36 696.64 464.69 699.24 C 473.67 702.05 483.50 701.48 492.30 698.30 C 498.03 695.77 502.55 691.22 506.69 686.63 C 516.58 676.12 521.78 662.33 526.91 649.09 C 529.36 642.14 532.52 635.46 534.68 628.40 C 517.79 628.27 500.81 628.81 484.05 626.33 C 475.05 625.05 466.03 623.89 457.15 621.93 M 376.92 698.79 C 360.86 725.41 352.73 755.83 346.34 785.99 C 343.24 803.20 338.34 820.25 330.30 835.84 C 333.27 836.01 336.54 835.98 338.96 837.98 C 345.32 842.67 348.03 850.49 350.29 857.74 C 352.03 862.66 352.47 868.26 356.21 872.24 C 362.05 863.46 360.98 852.25 364.90 842.72 C 369.87 830.65 378.59 820.71 386.60 810.59 C 398.00 797.72 407.27 783.19 416.85 768.96 C 427.81 752.55 434.44 733.83 443.25 716.28 C 445.90 710.68 448.95 705.18 453.39 700.79 C 445.12 697.62 437.83 692.34 429.33 689.73 C 417.73 685.93 406.34 681.49 394.93 677.16 C 388.16 683.68 382.13 690.98 376.92 698.79 M 316.66 848.86 C 324.55 850.27 330.51 856.39 333.33 863.67 C 338.98 878.04 337.86 893.98 342.46 908.63 C 345.13 916.70 350.76 923.35 353.66 931.33 C 356.96 912.85 361.11 894.33 360.46 875.43 C 358.62 875.70 356.80 876.18 354.94 876.15 C 351.79 875.24 349.67 872.35 348.61 869.39 C 346.25 862.74 344.67 855.79 341.65 849.38 C 339.78 845.84 337.33 841.65 333.05 840.91 C 326.58 840.67 321.88 845.84 316.66 848.86 M 310.29 855.33 C 303.50 858.64 300.75 866.60 299.35 873.54 C 296.27 890.17 305.67 905.62 306.27 922.03 C 306.65 932.50 305.09 943.12 307.40 953.47 C 309.03 961.85 313.27 969.71 319.50 975.57 C 325.76 981.04 334.75 983.65 342.89 981.55 C 347.27 980.43 350.10 976.25 350.75 971.95 C 352.73 959.54 352.10 946.65 348.49 934.59 C 346.12 926.53 340.31 920.09 337.62 912.16 C 332.75 898.41 333.58 883.47 329.46 869.55 C 328.16 865.32 326.26 861.13 323.05 858.01 C 319.75 854.82 314.58 853.69 310.29 855.33 Z" />
		<path fill="#020202" opacity="1.00"
			d=" M 549.50 143.51 C 551.17 138.87 552.56 134.10 554.86 129.71 C 555.30 135.58 552.91 141.05 551.44 146.59 C 548.33 156.90 546.04 167.43 542.77 177.69 C 541.26 182.36 540.32 187.18 539.88 192.06 C 538.88 201.48 535.09 210.23 532.38 219.21 C 527.26 235.22 520.72 251.09 519.76 268.05 C 519.22 272.99 519.73 277.94 519.91 282.88 C 515.85 282.73 516.09 277.87 515.55 274.95 C 514.99 264.26 516.15 253.40 519.32 243.16 C 523.41 228.71 528.60 214.61 533.26 200.35 C 535.57 193.30 535.44 185.74 537.71 178.68 C 541.31 166.85 545.51 155.21 549.50 143.51 Z" />
		<path fill="#020202" opacity="1.00"
			d=" M 613.33 131.54 C 617.19 130.41 621.21 131.29 625.09 131.80 C 627.66 132.26 630.50 132.25 632.68 133.90 C 630.53 136.47 626.95 135.85 624.00 136.11 C 619.20 136.22 613.49 136.09 610.13 140.17 C 606.24 144.88 603.65 150.52 601.36 156.14 C 596.45 168.67 593.01 181.82 591.66 195.22 C 590.59 206.11 590.20 217.06 589.34 227.96 C 588.80 234.16 589.27 240.46 588.16 246.59 L 586.76 246.83 C 585.16 244.55 585.31 241.64 585.14 238.99 C 584.72 225.72 585.62 212.47 586.22 199.22 C 586.70 187.94 588.77 176.77 591.86 165.92 C 594.37 157.34 597.33 148.76 602.29 141.25 C 604.88 137.04 608.37 132.90 613.33 131.54 Z" />
		<path fill="#020202" opacity="1.00"
			d=" M 439.41 342.36 C 440.48 343.31 441.89 344.17 442.04 345.76 C 443.23 351.95 443.25 358.50 441.33 364.56 C 440.80 366.62 440.01 368.71 440.25 370.88 C 441.34 372.99 443.41 374.33 445.25 375.74 C 460.73 386.62 477.59 395.34 494.61 403.52 C 501.72 406.73 509.16 409.17 516.57 411.61 C 523.34 413.63 530.04 416.11 537.07 417.10 C 538.58 417.27 540.10 417.69 540.98 419.06 C 537.68 421.92 532.96 420.62 529.11 419.87 C 515.28 416.33 501.34 412.69 488.43 406.48 C 473.48 399.23 458.76 391.36 445.20 381.73 C 442.01 379.35 438.36 377.26 436.19 373.82 C 434.01 370.07 436.01 365.78 437.08 362.02 C 439.16 355.67 439.03 348.94 439.41 342.36 Z" />
	</g>
	<g id="#f0b58bff">
		<path fill="#f0b58b" opacity="1.00"
			d=" M 355.05 20.18 C 359.45 19.61 364.27 18.31 368.40 20.61 C 373.23 23.23 377.44 26.87 381.32 30.74 C 384.96 34.25 384.25 39.92 386.87 44.03 C 389.42 47.86 393.19 50.73 397.29 52.75 C 407.40 57.91 418.57 61.00 429.91 61.69 C 438.07 62.67 446.32 61.09 454.48 62.33 C 460.75 63.31 466.96 64.89 472.90 67.14 C 480.27 69.82 486.97 75.73 495.35 73.92 C 490.48 87.70 484.69 101.27 481.77 115.65 C 471.47 113.78 461.09 112.02 451.16 108.58 C 436.25 103.22 421.51 97.13 407.76 89.19 C 397.54 82.52 388.17 74.58 377.65 68.34 C 372.06 65.15 365.30 66.51 359.36 64.51 C 356.96 63.80 355.44 61.61 354.51 59.41 C 351.55 52.45 351.26 44.66 348.19 37.74 C 346.48 33.89 342.09 31.84 338.02 32.17 C 332.00 32.13 325.46 35.66 320.01 31.60 C 326.81 29.28 333.87 27.47 341.03 26.76 C 349.44 27.83 355.60 35.14 364.01 36.31 C 363.31 34.69 362.56 33.00 360.96 32.10 C 355.54 28.58 350.07 25.01 344.04 22.61 C 347.77 21.80 351.70 21.77 355.02 23.90 C 360.93 27.18 368.16 26.61 373.84 30.29 C 373.32 28.39 372.85 26.00 370.69 25.31 C 365.49 23.57 360.05 22.52 355.05 20.18 Z" />
		<path fill="#f0b58b" opacity="1.00"
			d=" M 681.70 131.33 C 689.21 129.46 696.60 126.27 702.08 120.64 C 702.26 123.32 702.37 126.07 703.43 128.59 C 707.48 139.24 714.94 148.11 722.73 156.24 C 725.80 159.33 729.78 161.47 733.98 162.53 C 738.07 162.65 740.66 158.84 743.18 156.17 C 748.32 150.07 753.44 142.57 761.88 141.09 C 765.09 140.08 769.97 142.01 769.29 146.01 C 768.19 149.88 764.93 152.66 763.50 156.40 C 761.68 161.15 760.50 166.47 761.66 171.51 C 762.05 173.38 764.31 173.90 765.72 172.76 C 773.90 168.21 782.40 163.50 791.90 162.61 C 779.16 174.79 763.27 183.44 746.34 188.23 C 734.51 191.58 722.44 194.67 710.07 194.91 C 711.46 185.45 717.56 177.82 721.25 169.27 C 714.49 173.01 711.68 180.74 708.43 187.29 C 705.42 177.60 700.78 168.55 696.62 159.33 C 691.98 149.83 687.41 140.25 681.70 131.33 Z" />
		<path fill="#f0b58b" opacity="1.00"
			d=" M 721.17 350.41 C 723.52 349.27 725.74 347.90 727.94 346.50 C 726.76 352.41 726.76 358.45 726.11 364.43 C 725.64 368.72 725.57 373.13 726.79 377.32 C 728.17 382.65 732.44 386.51 734.50 391.53 C 740.25 404.87 744.97 418.73 747.41 433.08 C 749.13 443.36 750.92 453.64 752.35 463.97 C 753.81 473.32 754.93 482.99 759.49 491.45 C 767.48 506.76 771.56 523.62 775.87 540.23 C 778.45 550.24 779.80 560.60 779.21 570.95 C 778.92 573.72 779.48 577.04 777.35 579.23 C 771.10 586.15 762.05 589.81 753.07 591.59 C 749.24 592.21 744.67 592.09 741.62 589.46 C 739.77 583.77 740.00 577.57 738.22 571.82 C 740.63 573.28 743.05 575.05 744.00 577.85 C 745.35 580.25 745.52 584.38 748.94 584.72 C 751.31 585.05 754.95 585.00 755.56 582.02 C 749.51 572.88 742.32 564.30 738.11 554.07 C 735.84 547.38 733.84 539.37 737.95 532.97 C 739.67 529.15 743.82 525.61 742.26 521.06 C 740.37 513.97 736.58 507.55 732.34 501.62 C 727.46 494.80 723.06 487.64 718.12 480.86 C 712.46 473.08 706.58 465.38 702.23 456.75 C 695.56 444.70 690.11 431.92 686.59 418.59 C 685.05 411.83 683.83 404.86 684.43 397.92 C 686.62 384.88 684.57 371.19 679.23 359.13 C 693.84 362.02 708.17 356.51 721.17 350.41 Z" />
		<path fill="#f0b58b" opacity="1.00"
			d=" M 412.01 572.80 C 422.77 576.09 434.14 575.55 445.15 574.02 C 445.13 583.35 445.02 592.70 445.53 602.02 C 445.76 605.95 445.36 609.88 445.00 613.80 C 437.13 609.65 429.03 605.89 420.68 602.82 C 420.80 599.43 420.29 596.04 418.92 592.92 C 416.17 586.38 413.68 579.70 412.01 572.80 Z" />
		<path fill="#f0b58b" opacity="1.00"
			d=" M 745.04 596.24 C 755.63 597.30 766.27 593.97 774.84 587.78 C 771.33 591.64 767.56 595.52 762.52 597.30 C 752.50 601.17 741.66 604.60 730.82 603.12 C 733.70 598.41 739.49 595.29 745.04 596.24 Z" />
		<path fill="#f0b58b" opacity="1.00"
			d=" M 764.77 601.72 C 768.53 599.76 772.00 597.30 774.94 594.25 C 772.38 599.87 770.35 605.80 766.98 611.02 C 762.96 616.22 757.00 619.56 750.95 621.87 C 753.01 618.64 756.03 616.29 758.90 613.84 C 762.50 610.83 763.44 605.98 764.77 601.72 Z" />
		<path fill="#f0b58b" opacity="1.00"
			d=" M 457.15 621.93 C 466.03 623.89 475.05 625.05 484.05 626.33 C 500.81 628.81 517.79 628.27 534.68 628.40 C 532.52 635.46 529.36 642.14 526.91 649.09 C 521.78 662.33 516.58 676.12 506.69 686.63 C 502.55 691.22 498.03 695.77 492.30 698.30 C 483.50 701.48 473.67 702.05 464.69 699.24 C 456.36 696.64 448.51 692.75 440.85 688.61 C 452.06 681.72 459.72 670.07 463.45 657.63 C 465.59 650.42 466.25 642.76 464.89 635.34 C 467.10 637.87 468.59 641.58 472.08 642.56 C 472.34 642.22 472.87 641.53 473.14 641.19 C 469.49 633.59 463.94 626.91 457.15 621.93 Z" />
	</g>
	<g id="#f11b27ff">
		<path fill="var(--shirt-color, grey)" opacity="1.00"
			d=" M 502.84 62.44 C 509.64 64.30 516.31 66.87 522.21 70.79 C 527.25 74.09 531.72 78.33 537.26 80.83 C 543.17 83.42 549.76 82.34 556.00 82.23 C 568.52 81.90 581.35 81.88 593.40 85.75 C 604.45 89.45 614.76 95.13 624.40 101.61 C 630.37 105.80 635.97 110.49 641.98 114.64 C 634.00 114.47 626.46 111.78 618.82 109.88 C 620.09 114.39 625.09 115.52 628.90 117.07 C 635.88 119.81 643.57 119.50 650.85 118.36 C 654.85 117.93 659.36 116.66 663.05 118.95 C 671.20 123.79 676.45 132.08 680.85 140.23 C 687.11 152.10 692.90 164.21 698.52 176.39 C 702.06 184.23 704.79 192.49 705.85 201.05 C 706.82 209.12 708.78 217.14 712.73 224.31 C 715.48 229.23 717.14 235.01 721.60 238.76 C 721.15 233.84 718.75 229.46 717.20 224.85 C 715.58 220.07 714.22 215.20 712.71 210.38 C 719.98 216.00 728.28 220.73 733.64 228.40 C 736.20 231.99 738.44 235.83 740.20 239.88 C 742.56 245.21 742.26 251.25 741.56 256.91 C 740.44 266.25 735.52 274.60 734.23 283.92 C 732.96 292.72 731.51 301.61 732.24 310.53 C 732.52 315.32 732.41 320.13 732.74 324.93 C 732.87 329.04 732.99 333.41 731.24 337.22 C 727.17 340.65 722.37 343.15 717.62 345.51 C 708.80 349.36 699.78 353.41 690.05 354.03 C 683.54 354.58 677.19 352.75 670.81 351.81 C 673.31 343.17 673.38 333.60 669.67 325.29 C 667.99 321.48 665.67 317.99 663.69 314.34 C 671.49 313.27 679.46 313.83 687.18 312.23 C 678.99 310.15 670.46 310.00 662.07 309.80 C 653.90 309.29 644.65 314.74 643.64 323.38 C 642.73 329.47 641.75 335.89 638.03 340.99 C 634.90 345.18 629.85 347.13 625.34 349.42 C 608.07 357.96 589.61 363.83 572.37 372.43 C 570.77 373.55 567.13 374.39 569.05 376.91 C 572.74 376.64 576.02 374.76 579.44 373.51 C 589.47 369.69 599.48 365.85 609.49 361.98 C 608.43 366.22 607.19 370.81 603.67 373.71 C 600.42 376.42 596.68 378.64 594.12 382.10 C 591.21 385.45 589.44 389.56 587.06 393.25 C 580.56 395.34 573.57 395.78 567.13 398.17 C 565.87 398.46 565.18 399.54 565.12 400.77 C 569.90 401.52 574.62 399.88 579.31 399.19 C 580.09 403.76 581.21 408.34 581.09 413.01 C 580.95 415.37 578.70 416.78 577.03 418.11 C 570.05 422.81 562.64 426.89 556.11 432.23 C 553.94 433.81 551.91 436.02 549.07 436.24 C 542.42 437.05 535.76 435.80 529.14 435.30 C 504.06 432.73 480.56 422.45 458.80 410.20 C 449.43 405.04 439.88 400.09 431.46 393.43 C 422.69 386.90 413.91 378.39 412.67 366.92 C 411.25 359.97 416.79 354.63 420.69 349.67 C 431.53 335.67 443.99 322.99 457.32 311.35 C 458.24 316.85 458.50 322.42 458.88 327.98 C 458.95 330.40 459.74 332.72 461.01 334.78 C 463.44 320.02 460.83 304.82 463.86 290.09 C 467.86 272.07 472.77 253.77 483.17 238.26 C 486.83 231.73 491.56 225.92 495.90 219.85 C 500.28 214.17 498.94 206.64 500.08 199.99 C 500.67 192.32 504.09 185.34 507.70 178.68 C 513.03 168.25 518.97 156.78 516.32 144.69 C 514.26 137.48 511.65 130.05 506.51 124.41 C 507.30 129.48 509.60 134.12 511.01 139.01 C 503.14 134.60 495.50 129.34 489.78 122.29 C 488.10 119.97 485.85 117.34 486.52 114.26 C 490.36 96.51 500.78 80.64 502.84 62.44 M 549.50 143.51 C 545.51 155.21 541.31 166.85 537.71 178.68 C 535.44 185.74 535.57 193.30 533.26 200.35 C 528.60 214.61 523.41 228.71 519.32 243.16 C 516.15 253.40 514.99 264.26 515.55 274.95 C 516.09 277.87 515.85 282.73 519.91 282.88 C 519.73 277.94 519.22 272.99 519.76 268.05 C 520.72 251.09 527.26 235.22 532.38 219.21 C 535.09 210.23 538.88 201.48 539.88 192.06 C 540.32 187.18 541.26 182.36 542.77 177.69 C 546.04 167.43 548.33 156.90 551.44 146.59 C 552.91 141.05 555.30 135.58 554.86 129.71 C 552.56 134.10 551.17 138.87 549.50 143.51 M 613.33 131.54 C 608.37 132.90 604.88 137.04 602.29 141.25 C 597.33 148.76 594.37 157.34 591.86 165.92 C 588.77 176.77 586.70 187.94 586.22 199.22 C 585.62 212.47 584.72 225.72 585.14 238.99 C 585.31 241.64 585.16 244.55 586.76 246.83 L 588.16 246.59 C 589.27 240.46 588.80 234.16 589.34 227.96 C 590.20 217.06 590.59 206.11 591.66 195.22 C 593.01 181.82 596.45 168.67 601.36 156.14 C 603.65 150.52 606.24 144.88 610.13 140.17 C 613.49 136.09 619.20 136.22 624.00 136.11 C 626.95 135.85 630.53 136.47 632.68 133.90 C 630.50 132.25 627.66 132.26 625.09 131.80 C 621.21 131.29 617.19 130.41 613.33 131.54 M 439.41 342.36 C 439.03 348.94 439.16 355.67 437.08 362.02 C 436.01 365.78 434.01 370.07 436.19 373.82 C 438.36 377.26 442.01 379.35 445.20 381.73 C 458.76 391.36 473.48 399.23 488.43 406.48 C 501.34 412.69 515.28 416.33 529.11 419.87 C 532.96 420.62 537.68 421.92 540.98 419.06 C 540.10 417.69 538.58 417.27 537.07 417.10 C 530.04 416.11 523.34 413.63 516.57 411.61 C 509.16 409.17 501.72 406.73 494.61 403.52 C 477.59 395.34 460.73 386.62 445.25 375.74 C 443.41 374.33 441.34 372.99 440.25 370.88 C 440.01 368.71 440.80 366.62 441.33 364.56 C 443.25 358.50 443.23 351.95 442.04 345.76 C 441.89 344.17 440.48 343.31 439.41 342.36 Z" />
	</g>
	<g id="#2b3dcdff">
		<path fill="var(--pants-color, grey)" opacity="1.00"
			d=" M 410.54 375.21 C 415.05 387.78 426.07 396.22 437.01 403.00 C 453.78 414.85 472.06 424.66 491.44 431.53 C 507.97 437.59 525.51 440.48 543.01 441.78 C 548.57 442.23 553.67 439.76 557.95 436.44 C 558.29 443.20 558.20 450.24 555.47 456.55 C 554.13 460.08 551.68 463.48 552.31 467.44 C 552.98 472.84 553.28 478.39 551.80 483.69 C 550.60 488.35 547.97 493.46 550.94 498.04 C 558.45 512.43 560.23 528.98 560.09 544.99 C 559.32 564.99 555.12 584.74 548.86 603.71 C 546.57 610.93 543.19 617.72 540.14 624.63 C 528.74 624.27 517.34 623.91 505.94 623.53 C 493.81 623.17 481.83 621.15 469.84 619.46 C 462.69 618.24 455.45 617.52 448.38 615.88 C 449.72 610.70 450.43 605.35 450.22 600.00 C 450.01 588.83 451.68 577.52 449.52 566.48 C 442.19 568.50 434.55 568.89 426.99 569.10 C 419.55 568.70 411.26 567.81 405.69 562.29 C 402.75 559.72 403.05 555.50 403.17 551.97 C 403.95 538.98 405.46 526.03 405.83 513.02 C 406.54 501.10 406.26 488.74 401.53 477.58 C 396.34 460.63 389.03 443.36 391.29 425.25 C 393.16 407.05 404.72 392.12 410.54 375.21 Z" />
		<path fill="var(--socks-color, grey)" opacity="1.00"
			d=" M 299.16 577.77 C 308.49 583.25 318.14 588.39 328.56 591.50 C 344.87 596.58 362.00 597.91 378.96 598.98 C 397.08 600.22 414.85 605.06 431.27 612.78 C 441.39 617.07 450.64 623.15 459.40 629.74 C 464.16 651.13 454.10 675.23 434.85 686.03 C 414.44 678.92 393.83 672.09 374.40 662.50 C 353.05 652.66 334.59 637.66 313.31 627.71 C 302.87 622.73 291.41 620.47 280.01 619.01 C 273.19 617.81 265.83 617.20 260.11 612.87 C 257.00 610.78 255.26 607.34 253.72 604.05 C 256.22 602.49 258.88 600.94 261.93 600.88 C 271.63 600.19 281.97 603.50 291.20 599.27 C 299.01 595.47 300.89 585.56 299.16 577.77 Z" />
		<path fill="var(--socks-color, grey)" opacity="1.00"
			d=" M 376.92 698.79 C 382.13 690.98 388.16 683.68 394.93 677.16 C 406.34 681.49 417.73 685.93 429.33 689.73 C 437.83 692.34 445.12 697.62 453.39 700.79 C 448.95 705.18 445.90 710.68 443.25 716.28 C 434.44 733.83 427.81 752.55 416.85 768.96 C 407.27 783.19 398.00 797.72 386.60 810.59 C 378.59 820.71 369.87 830.65 364.90 842.72 C 360.98 852.25 362.05 863.46 356.21 872.24 C 352.47 868.26 352.03 862.66 350.29 857.74 C 348.03 850.49 345.32 842.67 338.96 837.98 C 336.54 835.98 333.27 836.01 330.30 835.84 C 338.34 820.25 343.24 803.20 346.34 785.99 C 352.73 755.83 360.86 725.41 376.92 698.79 Z" />
	</g>
	<g id="#4d4d4dff">
		<path fill="#4d4d4d" opacity="1.00"
			d=" M 257.30 546.29 C 265.04 545.19 273.86 544.71 280.52 549.56 C 283.31 551.41 284.91 555.24 283.39 558.41 C 280.10 565.15 273.85 569.91 267.30 573.27 C 259.26 577.07 250.13 579.61 241.21 577.84 C 228.90 575.74 216.47 579.70 206.06 586.16 C 188.97 596.58 170.77 605.97 150.86 609.41 C 148.54 609.60 146.07 610.00 143.83 609.20 C 141.43 607.87 142.15 604.82 142.64 602.66 C 144.95 592.72 153.23 585.70 161.43 580.41 C 180.98 568.81 204.16 566.68 224.93 558.09 C 235.73 554.20 245.90 548.32 257.30 546.29 Z" />
		<path fill="#4d4d4d" opacity="1.00"
			d=" M 288.01 560.52 C 289.91 567.22 293.13 573.49 294.70 580.29 C 295.97 585.83 293.90 592.89 288.30 595.23 C 278.35 598.71 267.72 594.17 257.65 596.69 C 253.87 597.77 249.14 600.40 249.43 604.95 C 250.28 610.08 254.44 613.68 258.12 616.97 C 242.88 616.21 228.61 610.55 214.33 605.72 C 205.54 602.59 196.12 602.48 186.91 602.58 C 194.61 598.93 201.93 594.55 209.21 590.14 C 216.10 585.96 223.83 582.79 231.98 582.48 C 238.52 581.97 244.95 584.25 251.49 583.39 C 266.04 581.23 280.85 573.93 288.01 560.52 Z" />
		<path fill="#4d4d4d" opacity="1.00"
			d=" M 316.66 848.86 C 321.88 845.84 326.58 840.67 333.05 840.91 C 337.33 841.65 339.78 845.84 341.65 849.38 C 344.67 855.79 346.25 862.74 348.61 869.39 C 349.67 872.35 351.79 875.24 354.94 876.15 C 356.80 876.18 358.62 875.70 360.46 875.43 C 361.11 894.33 356.96 912.85 353.66 931.33 C 350.76 923.35 345.13 916.70 342.46 908.63 C 337.86 893.98 338.98 878.04 333.33 863.67 C 330.51 856.39 324.55 850.27 316.66 848.86 Z" />
		<path fill="#4d4d4d" opacity="1.00"
			d=" M 310.29 855.33 C 314.58 853.69 319.75 854.82 323.05 858.01 C 326.26 861.13 328.16 865.32 329.46 869.55 C 333.58 883.47 332.75 898.41 337.62 912.16 C 340.31 920.09 346.12 926.53 348.49 934.59 C 352.10 946.65 352.73 959.54 350.75 971.95 C 350.10 976.25 347.27 980.43 342.89 981.55 C 334.75 983.65 325.76 981.04 319.50 975.57 C 313.27 969.71 309.03 961.85 307.40 953.47 C 305.09 943.12 306.65 932.50 306.27 922.03 C 305.67 905.62 296.27 890.17 299.35 873.54 C 300.75 866.60 303.50 858.64 310.29 855.33 Z" />
	</g>
</svg>