<?xml version="1.0" encoding="UTF-8" ?>
<!DOCTYPE svg PUBLIC "-//W3C//DTD SVG 1.1//EN" "http://www.w3.org/Graphics/SVG/1.1/DTD/svg11.dtd">
<svg width="1000pt" height="1000pt" viewBox="0 0 1000 1000" version="1.1" xmlns="http://www.w3.org/2000/svg">
	<g id="#020202ff">
		<path fill="#020202" opacity="1.00"
			d=" M 437.71 18.74 C 447.65 15.07 458.85 14.40 468.95 17.86 C 482.73 22.03 494.76 32.14 500.52 45.43 C 501.79 48.58 503.51 52.00 502.55 55.48 C 500.73 55.92 498.85 55.94 497.00 56.05 C 506.85 72.55 512.43 91.69 512.42 110.94 C 512.33 124.75 508.78 139.15 499.50 149.73 C 514.18 150.11 528.55 146.73 542.88 144.01 C 552.24 142.26 562.29 141.85 571.16 145.87 C 587.36 152.80 599.17 166.42 611.77 178.22 C 624.47 189.11 639.64 196.41 653.75 205.21 C 657.72 207.60 662.09 209.36 665.79 212.19 C 667.03 213.27 668.94 214.91 667.67 216.67 C 665.06 219.02 661.91 220.70 659.27 223.02 C 660.55 223.67 661.86 224.33 663.16 224.98 C 664.44 223.97 665.65 222.79 667.16 222.11 C 668.95 221.70 670.51 222.96 672.08 223.59 C 674.87 219.53 679.60 217.26 684.53 218.10 C 694.78 219.49 706.09 216.96 715.30 222.80 C 718.98 224.72 720.92 228.53 721.95 232.39 C 725.01 232.37 729.28 231.58 731.07 234.82 C 732.16 238.85 732.80 243.61 730.40 247.32 C 728.79 250.15 726.78 252.73 724.83 255.33 C 728.45 262.13 733.16 268.59 734.65 276.30 C 736.31 284.69 735.67 293.60 732.55 301.58 C 729.96 308.24 724.26 313.49 717.46 315.62 C 708.19 319.08 697.90 316.06 689.69 311.27 C 684.55 308.48 682.65 302.36 677.65 299.42 C 667.66 291.74 657.30 284.56 646.68 277.78 C 645.16 278.31 643.84 279.82 642.15 279.55 C 637.32 278.51 633.80 274.81 629.90 272.07 C 626.81 269.80 623.18 268.48 619.60 267.20 C 620.75 280.02 615.95 292.29 615.11 304.96 C 614.50 317.55 622.15 328.55 622.95 340.94 C 624.04 348.96 622.24 356.92 621.75 364.88 C 622.96 372.98 621.35 381.03 620.46 389.06 C 619.78 393.71 621.90 398.01 624.09 401.94 C 626.36 405.89 626.75 410.52 626.82 414.98 C 626.88 423.33 627.02 431.69 627.80 440.01 C 628.31 446.05 630.93 451.80 630.54 457.93 C 630.26 462.22 630.10 466.51 629.92 470.81 C 635.11 474.56 637.90 480.64 638.73 486.86 C 640.27 494.18 638.00 501.56 638.54 508.93 C 638.98 515.38 643.03 520.69 645.54 526.44 C 649.29 534.76 654.96 542.58 655.61 551.96 C 655.92 557.92 659.63 563.02 659.98 568.97 C 660.48 572.83 659.33 577.05 661.35 580.62 C 664.54 586.50 668.05 592.23 670.56 598.45 C 674.36 608.36 678.51 618.33 679.41 629.02 C 680.38 639.27 678.88 649.70 681.04 659.84 C 681.48 662.22 682.07 664.58 682.14 667.02 C 681.34 669.07 678.85 669.45 677.16 670.49 C 679.03 678.80 678.41 687.35 677.93 695.77 C 677.07 714.24 675.85 732.79 671.94 750.90 C 670.56 756.69 668.93 763.07 664.04 766.96 C 658.92 770.90 652.37 772.85 645.95 772.85 C 634.66 772.47 624.28 778.35 612.99 778.11 C 582.46 778.44 552.05 771.96 521.50 774.81 C 515.63 775.77 509.38 776.17 504.05 778.94 C 500.91 784.04 501.45 790.30 499.63 795.84 C 497.53 803.37 493.51 810.11 490.10 817.07 C 485.42 826.62 486.00 837.78 481.26 847.30 C 477.54 855.02 472.19 862.36 464.69 866.76 C 459.42 870.04 452.08 869.70 447.31 865.66 C 443.26 862.66 441.69 857.69 439.67 853.31 C 432.62 837.23 429.11 819.42 431.16 801.88 C 432.38 787.96 438.06 774.91 439.55 761.04 C 440.68 750.00 440.59 738.22 446.37 728.35 C 451.88 719.25 461.02 712.88 470.64 708.72 C 480.86 704.26 494.94 707.34 500.28 717.76 C 507.50 718.28 514.71 719.51 521.98 719.04 C 530.82 718.55 539.68 717.10 548.02 714.01 C 554.20 711.74 559.66 707.86 565.96 705.87 C 572.98 703.43 580.40 702.44 587.80 702.38 C 587.26 698.73 586.67 695.09 586.05 691.46 C 576.71 692.55 567.28 692.05 557.97 690.95 C 554.87 690.70 553.04 687.82 551.75 685.32 C 548.24 678.04 545.13 670.25 545.14 662.04 C 546.00 642.12 538.39 623.15 530.88 605.09 C 529.42 600.68 524.08 600.91 520.37 599.86 C 504.61 617.75 490.01 636.63 475.44 655.48 C 473.50 658.15 470.45 659.83 467.19 658.51 C 461.28 669.24 453.61 678.87 447.43 689.43 C 442.91 697.05 439.66 705.39 434.74 712.79 C 428.83 721.36 422.16 729.49 414.27 736.32 C 408.46 741.16 405.45 748.28 401.81 754.71 C 398.61 760.24 399.18 766.85 397.65 772.87 C 393.26 791.65 383.38 808.46 374.13 825.17 C 366.30 838.12 357.17 850.23 349.06 863.00 C 340.36 876.53 329.74 888.81 322.04 902.98 C 320.68 905.78 319.11 908.64 318.82 911.79 C 319.38 920.86 319.84 929.93 320.38 939.00 C 320.79 948.18 322.02 957.48 320.33 966.61 C 318.52 973.92 312.95 979.77 306.59 983.52 C 293.84 991.01 277.64 992.39 263.79 987.21 C 255.79 984.08 247.42 979.17 244.31 970.67 C 242.01 964.61 245.02 958.43 246.85 952.68 C 249.77 943.27 256.18 935.43 259.09 926.02 C 261.83 917.28 264.98 908.26 271.47 901.54 C 273.37 899.43 276.31 898.14 277.22 895.29 C 280.72 886.36 283.56 877.17 285.47 867.78 C 290.42 847.28 296.59 827.10 302.95 806.99 C 310.06 783.04 319.28 759.55 331.95 737.96 C 335.86 731.44 340.93 725.68 346.49 720.52 C 353.13 714.39 358.93 707.33 363.55 699.56 C 367.83 692.41 371.84 684.85 373.24 676.53 C 374.28 670.71 375.67 664.93 376.09 659.02 C 376.86 645.09 379.78 631.41 381.24 617.56 C 375.25 611.57 369.64 605.18 364.80 598.23 C 361.96 594.15 358.93 589.94 357.88 585.01 C 357.63 578.14 359.28 571.07 363.54 565.56 C 374.71 549.00 394.39 541.17 406.43 525.44 C 408.67 522.57 410.89 519.63 412.28 516.24 C 413.95 512.08 413.43 507.37 415.29 503.27 C 417.09 499.35 421.35 496.70 421.74 492.13 C 422.74 486.04 423.36 479.34 428.03 474.77 C 425.19 471.73 422.61 468.16 422.02 463.93 C 421.20 458.02 423.10 452.20 423.65 446.35 C 404.96 448.27 385.98 448.79 367.43 445.33 C 358.52 443.41 348.99 446.06 340.39 442.58 C 335.01 439.42 333.46 432.66 331.98 427.05 C 329.26 415.20 330.94 402.97 332.72 391.13 C 333.98 383.08 332.07 374.96 333.21 366.91 C 333.89 360.56 336.66 354.74 339.05 348.91 C 334.85 348.02 330.54 347.65 326.39 346.54 C 323.31 342.77 323.44 337.56 324.20 333.02 C 326.27 320.97 331.70 309.89 337.09 299.04 C 342.03 289.61 343.70 278.95 345.34 268.56 C 346.35 257.29 347.74 245.55 353.71 235.67 C 358.99 227.43 366.85 221.29 374.85 215.85 C 382.76 210.42 391.89 206.58 398.66 199.61 C 404.75 193.35 407.71 184.88 413.17 178.15 C 416.74 173.99 421.64 171.23 426.73 169.32 C 431.16 157.69 430.33 144.58 425.80 133.11 C 424.06 128.88 422.27 124.36 418.54 121.46 C 407.99 112.96 402.31 99.88 399.48 86.92 C 397.11 75.16 397.01 62.35 402.39 51.37 C 408.84 36.13 422.26 24.33 437.71 18.74 M 480.14 46.36 C 481.09 49.24 481.68 52.27 483.08 54.97 C 484.35 56.83 486.09 58.28 487.59 59.95 C 479.02 62.43 470.18 58.68 462.92 54.26 C 464.09 59.06 465.73 63.74 468.15 68.06 C 459.10 67.95 453.48 59.25 444.93 57.57 C 446.88 61.29 449.70 65.31 448.73 69.73 C 446.88 70.45 445.40 68.87 443.87 68.12 C 439.37 65.36 434.26 63.84 429.25 62.29 C 431.87 65.89 434.79 69.32 436.81 73.30 C 437.32 74.23 437.03 75.31 437.05 76.31 C 434.37 75.13 431.72 73.90 429.02 72.78 C 432.36 76.03 435.42 79.62 437.32 83.92 C 447.33 80.18 457.53 76.73 468.07 74.81 C 470.27 74.20 472.50 74.64 474.62 75.37 C 472.92 80.27 471.61 85.51 469.13 90.01 C 461.27 92.78 452.89 93.68 444.90 96.03 C 442.77 96.53 442.09 99.10 441.70 100.97 C 441.01 107.40 442.71 113.77 444.15 119.99 C 445.06 124.20 447.37 128.28 446.52 132.70 C 441.77 131.23 439.59 126.49 437.58 122.37 C 433.67 113.72 430.80 104.63 427.00 95.93 C 425.95 93.91 424.79 90.83 421.96 91.35 C 418.26 93.40 417.93 98.35 418.51 102.08 C 419.64 108.37 424.97 112.51 428.36 117.57 C 430.99 121.91 432.83 127.34 430.98 132.33 C 434.97 143.24 436.66 155.54 432.65 166.70 C 430.84 171.52 429.56 177.57 433.05 181.95 C 437.97 187.47 444.07 191.82 450.38 195.63 C 461.06 201.82 472.45 207.10 484.64 209.44 C 486.99 203.12 490.60 197.39 493.07 191.13 C 495.59 185.10 497.53 178.84 499.38 172.57 C 499.76 170.57 500.61 167.88 498.63 166.44 C 494.95 163.36 491.73 159.24 492.01 154.17 C 487.89 155.56 483.49 156.09 479.20 155.33 C 473.01 154.28 466.82 152.77 461.12 150.10 C 459.05 149.27 457.60 147.54 456.40 145.74 C 462.12 146.75 467.43 149.32 473.16 150.33 C 479.65 151.63 487.18 153.05 493.10 149.24 C 499.54 143.29 503.54 135.06 505.47 126.59 C 509.04 110.92 506.73 94.55 502.09 79.37 C 496.38 81.25 490.51 82.80 485.72 86.64 C 486.37 89.56 489.24 93.05 487.05 95.88 C 483.95 95.53 482.84 91.97 481.54 89.59 C 479.14 84.91 482.35 80.22 483.76 75.80 C 484.64 73.80 484.99 71.27 486.96 70.00 C 490.01 68.00 493.62 67.19 497.04 66.08 C 495.12 61.79 492.83 57.66 491.24 53.23 C 487.80 50.53 484.12 48.16 480.14 46.36 M 541.97 149.39 C 532.06 151.42 522.11 153.49 511.98 154.01 C 506.59 154.33 501.21 153.81 495.82 153.91 C 496.39 157.80 498.88 160.81 501.82 163.23 C 506.06 166.62 504.38 172.59 502.97 176.97 C 499.53 188.70 494.39 199.83 488.63 210.57 C 487.52 212.58 485.51 214.42 483.02 213.87 C 473.92 212.73 465.46 208.79 457.29 204.81 C 446.11 199.26 435.22 192.49 427.13 182.82 C 425.26 180.78 424.99 177.95 424.46 175.37 C 420.99 177.45 417.37 179.63 415.14 183.12 C 411.16 189.18 408.44 196.06 403.64 201.58 C 396.90 209.57 387.14 213.88 378.59 219.53 C 372.51 223.65 366.45 227.97 361.58 233.53 C 354.68 241.25 352.32 251.83 351.38 261.87 C 350.78 269.96 349.31 277.94 347.56 285.85 C 344.70 299.49 336.40 311.09 332.26 324.29 C 330.30 330.49 328.46 337.03 329.61 343.57 C 345.36 344.56 360.91 348.41 375.46 354.47 C 384.08 357.92 392.49 362.45 398.94 369.25 C 404.59 358.70 406.10 346.68 408.05 335.04 C 408.90 328.89 410.13 322.34 407.80 316.36 C 403.48 305.58 395.59 296.56 386.44 289.56 C 382.94 286.77 378.89 284.73 375.53 281.76 C 382.08 281.56 387.17 286.21 392.10 289.88 C 399.27 295.32 405.47 302.08 409.74 310.05 C 408.44 303.73 406.96 297.41 404.44 291.44 C 403.17 288.49 401.90 285.51 401.28 282.34 C 406.18 285.37 407.79 291.24 409.85 296.26 C 413.48 305.73 413.52 316.00 413.52 326.00 C 413.46 330.74 412.38 335.39 411.81 340.09 C 411.24 345.88 414.29 351.09 415.51 356.58 C 416.86 363.32 417.51 370.18 417.77 377.04 C 418.10 379.31 418.05 382.37 420.14 383.78 C 423.85 384.37 427.49 383.08 430.97 381.98 C 441.36 378.44 451.24 373.27 462.09 371.18 C 468.77 369.95 475.60 370.19 482.31 369.23 C 488.13 368.53 493.87 367.09 499.77 367.13 C 498.63 368.52 497.45 370.03 495.61 370.48 C 489.84 372.33 483.81 373.20 477.89 374.47 C 471.69 375.87 465.25 375.76 459.11 377.44 C 448.08 380.28 437.95 385.80 426.82 388.31 C 427.53 394.90 428.55 401.46 428.95 408.08 C 437.16 410.18 445.57 411.46 453.98 412.38 C 464.51 412.88 475.28 414.59 485.65 411.82 C 492.11 410.10 497.47 405.46 504.17 404.50 C 511.08 403.55 518.04 404.69 524.88 405.72 C 531.08 406.77 537.67 408.10 542.48 412.47 C 546.01 415.67 549.62 419.00 552.00 423.18 C 553.16 425.00 551.82 427.29 549.91 427.84 C 546.24 429.35 542.50 427.38 539.23 425.82 C 533.46 422.67 526.67 423.01 520.31 422.96 C 527.19 426.27 534.78 428.36 540.87 433.14 C 543.02 434.84 545.24 437.90 543.45 440.63 C 541.62 443.52 537.72 443.17 534.84 442.42 C 528.69 440.73 522.68 438.38 516.29 437.65 C 520.99 441.51 527.10 443.29 531.45 447.59 C 533.59 449.50 533.02 453.18 530.44 454.40 C 525.15 457.34 518.90 454.96 513.37 454.13 C 513.64 456.84 515.06 460.42 512.43 462.46 C 508.41 465.71 502.83 464.44 498.14 463.86 C 488.67 462.09 478.49 461.24 470.28 455.73 C 458.58 446.37 442.67 445.58 428.32 445.96 C 429.63 452.05 426.87 457.96 427.30 464.03 C 427.79 468.07 430.35 472.92 434.91 473.15 C 444.26 473.38 453.62 473.38 462.98 473.14 C 478.68 472.86 494.27 474.93 509.95 475.45 C 524.65 475.92 539.38 474.78 554.08 475.85 C 570.35 477.10 586.66 476.13 602.95 476.06 C 608.57 475.58 614.59 476.25 619.85 473.90 C 621.96 471.62 623.79 468.95 624.92 466.06 C 625.80 460.35 625.71 454.45 624.11 448.87 C 621.18 436.77 622.23 424.20 621.55 411.87 C 621.55 404.65 615.28 399.26 615.46 392.00 C 615.43 383.00 618.13 373.99 616.30 365.01 C 616.13 363.10 614.42 361.98 613.10 360.86 C 609.05 357.83 604.62 355.34 600.24 352.81 C 583.39 343.00 564.02 339.17 546.07 331.97 C 539.25 329.14 531.70 327.27 526.15 322.13 C 530.51 323.42 534.64 325.35 538.93 326.84 C 551.87 331.59 565.30 334.76 578.50 338.64 C 592.44 342.64 605.88 348.98 617.09 358.27 C 618.17 349.12 618.39 339.58 615.37 330.75 C 614.66 328.16 611.87 327.24 609.67 326.32 C 600.20 322.88 590.04 321.54 580.92 317.13 C 574.25 313.94 567.41 310.89 561.44 306.48 C 559.49 305.25 558.71 303.04 558.05 300.97 C 565.47 304.40 572.36 308.94 579.95 312.05 C 590.48 317.02 602.38 318.03 612.82 323.22 C 610.75 317.06 609.00 310.62 609.44 304.07 C 610.31 290.97 615.30 278.20 613.89 264.97 C 610.07 258.90 606.32 252.76 602.13 246.93 C 597.66 240.59 592.28 234.54 590.34 226.83 C 589.15 221.93 587.14 216.74 588.92 211.73 C 591.28 215.93 591.88 220.81 593.83 225.18 C 596.79 232.07 602.30 237.35 606.63 243.36 C 610.29 247.99 613.27 253.09 615.99 258.31 C 612.26 243.15 601.78 230.02 601.32 214.05 C 600.99 212.04 601.96 210.24 602.82 208.51 C 603.91 213.09 604.29 217.83 605.83 222.30 C 610.69 235.67 619.34 247.81 620.96 262.26 C 623.37 263.03 625.80 263.79 628.07 264.95 C 633.41 267.56 637.30 272.22 642.15 275.56 C 646.20 265.30 644.88 254.12 646.62 243.44 C 647.81 235.66 650.04 227.89 654.24 221.17 C 655.91 218.41 658.71 216.69 661.36 215.00 C 656.92 212.68 652.36 210.56 648.11 207.88 C 638.68 201.91 628.48 197.19 619.47 190.54 C 612.38 185.73 606.62 179.34 600.37 173.56 C 590.69 164.34 580.85 154.51 568.01 149.88 C 559.69 146.63 550.52 147.72 541.97 149.39 M 673.09 229.00 C 673.33 237.62 672.24 246.44 674.37 254.89 C 674.81 257.75 677.80 258.40 680.19 258.86 C 683.82 250.46 682.46 241.01 684.36 232.23 C 684.92 229.63 688.94 230.31 688.74 232.95 C 688.81 240.98 687.57 248.98 686.84 256.95 C 687.37 259.30 688.10 262.47 690.87 263.03 C 695.79 257.58 696.85 249.90 698.04 242.92 C 698.56 240.52 698.51 237.38 700.99 236.07 C 702.68 236.56 702.82 238.45 702.90 239.93 C 702.98 248.15 701.00 256.33 697.25 263.64 C 698.85 263.75 700.47 263.92 702.10 263.79 C 704.67 263.17 706.31 260.82 707.71 258.75 C 711.69 252.37 713.43 244.96 715.99 237.97 C 717.58 234.27 716.15 229.40 712.59 227.41 C 708.85 225.05 704.42 223.95 700.02 224.16 C 693.98 224.31 687.96 223.84 681.95 223.51 C 678.10 223.28 675.84 226.93 673.09 229.00 M 651.69 249.05 C 650.77 257.31 651.03 265.80 648.22 273.74 C 659.51 279.21 669.90 286.50 679.34 294.74 C 677.85 287.39 676.73 279.96 676.10 272.48 C 667.69 268.84 661.23 261.06 659.38 252.06 C 657.81 244.06 659.30 235.78 661.86 228.15 C 660.47 227.50 659.08 226.84 657.71 226.18 C 654.36 233.37 652.45 241.16 651.69 249.05 M 665.30 254.53 C 668.04 261.74 674.53 266.82 681.59 269.48 C 690.82 273.05 699.53 280.11 709.94 278.93 C 716.87 276.53 715.68 267.98 718.16 262.44 C 715.51 265.33 712.04 267.73 707.91 266.70 C 703.90 269.44 698.64 269.26 694.67 266.57 C 692.77 267.21 690.68 268.27 688.70 267.32 C 686.34 266.46 685.23 264.08 684.04 262.08 C 681.29 263.30 678.14 264.18 675.28 262.75 C 671.51 261.49 669.61 257.65 669.02 253.98 C 667.42 245.26 668.48 236.34 667.73 227.55 C 663.94 235.84 661.91 245.76 665.30 254.53 M 722.20 236.05 C 718.50 244.79 716.68 254.29 711.68 262.46 C 716.80 257.24 721.73 251.74 725.55 245.48 C 727.18 242.88 727.50 239.79 727.27 236.79 C 725.57 236.54 723.88 236.29 722.20 236.05 M 715.59 281.51 C 710.65 285.97 703.49 284.20 697.81 282.41 C 691.42 280.67 686.43 276.05 680.33 273.67 C 681.56 279.94 682.89 286.20 684.39 292.43 C 685.37 296.15 686.27 300.11 688.87 303.09 C 692.69 307.60 698.52 309.60 704.02 311.22 C 712.83 313.74 723.35 309.78 727.52 301.43 C 730.61 295.10 731.35 287.82 730.73 280.87 C 730.10 274.02 726.82 267.85 723.77 261.82 C 720.21 268.06 721.39 276.51 715.59 281.51 M 344.34 349.94 C 342.83 355.01 340.05 359.65 339.03 364.88 C 337.21 373.50 339.39 382.32 338.16 390.99 C 336.39 403.80 334.08 417.02 337.32 429.80 C 338.04 433.26 339.40 437.31 343.09 438.56 C 350.76 440.44 358.74 438.65 366.47 440.09 C 381.65 442.90 397.22 443.12 412.58 441.88 C 422.29 440.91 432.14 440.23 441.86 441.60 C 452.26 442.65 463.05 445.03 471.56 451.44 C 478.13 456.24 486.39 457.72 494.26 458.91 C 499.49 459.61 504.91 461.18 510.10 459.38 C 509.63 456.50 507.12 451.55 511.08 450.18 C 517.18 449.60 523.18 453.16 529.26 451.07 C 524.21 446.01 516.29 444.71 512.07 438.75 C 510.38 436.56 512.38 433.62 514.96 433.73 C 523.83 433.18 531.74 438.60 540.51 438.95 C 535.48 432.10 526.54 430.30 519.27 426.75 C 517.47 425.75 514.82 424.57 515.08 422.10 C 515.07 420.25 517.08 419.71 518.53 419.39 C 523.50 418.47 528.61 419.06 533.57 419.79 C 538.94 420.49 543.20 424.58 548.68 424.83 C 545.65 420.76 542.17 416.97 538.10 413.91 C 533.43 410.79 527.64 410.21 522.24 409.31 C 516.53 408.54 510.73 407.66 504.99 408.46 C 499.96 409.14 495.81 412.28 491.19 414.09 C 485.16 416.73 478.49 417.10 472.02 417.42 C 453.82 416.98 435.22 415.63 418.10 408.95 C 407.85 404.40 398.33 398.38 387.96 394.08 C 386.49 393.12 383.41 392.71 384.32 390.31 C 387.82 389.48 391.13 391.58 394.41 392.52 C 394.49 386.53 395.23 380.57 396.50 374.72 C 392.99 368.79 386.76 365.32 380.93 362.06 C 369.37 356.36 357.02 352.25 344.34 349.94 M 403.95 366.96 C 402.47 369.89 399.77 372.44 400.00 375.97 C 399.70 381.98 399.13 388.01 397.67 393.86 C 406.56 398.20 414.93 403.66 424.35 406.88 C 422.52 401.03 422.47 394.86 422.61 388.79 C 420.39 388.05 417.52 388.04 416.07 385.93 C 414.21 382.97 413.37 379.47 412.98 376.03 C 412.16 367.99 411.59 359.86 409.37 352.06 C 407.98 357.16 406.66 362.36 403.95 366.96 M 615.80 480.37 C 605.06 481.79 594.20 481.33 583.41 481.61 C 572.56 481.94 561.70 481.64 550.86 481.03 C 537.25 480.30 523.64 481.42 510.02 481.14 C 494.33 480.82 478.74 478.46 463.03 478.49 C 452.67 478.73 442.30 478.21 432.03 476.84 C 427.35 481.75 427.37 488.75 426.05 494.99 C 425.22 499.42 421.03 502.05 419.45 506.11 C 418.26 510.55 418.65 515.37 416.55 519.57 C 410.42 531.51 400.31 540.81 389.57 548.60 C 379.03 556.78 367.33 565.55 363.35 578.93 C 369.53 581.61 375.84 583.98 382.31 585.89 C 395.63 589.88 409.55 591.07 423.14 593.88 C 434.86 596.08 446.35 601.58 453.81 611.13 C 462.90 622.83 469.55 636.54 472.67 651.04 C 476.64 645.26 480.76 639.58 485.01 634.00 C 494.81 621.26 504.43 608.22 516.29 597.27 C 518.40 595.64 520.84 592.82 523.77 594.17 C 528.11 595.62 533.22 597.27 535.06 601.93 C 542.06 617.26 548.12 633.23 550.55 649.97 C 551.49 656.63 550.49 663.47 552.23 670.03 C 553.62 675.58 556.02 680.81 558.12 686.12 C 567.16 686.99 576.25 687.69 585.32 686.80 C 584.14 681.86 581.57 675.84 585.31 671.37 C 591.19 663.62 601.39 661.66 610.49 660.64 C 621.97 659.28 633.54 660.08 645.06 660.41 C 656.01 661.08 667.51 661.49 677.33 666.98 C 671.63 651.05 676.33 633.72 671.27 617.67 C 668.17 608.29 664.89 598.86 659.82 590.33 C 657.95 586.89 655.63 583.63 654.58 579.82 C 653.61 575.30 654.85 570.57 653.52 566.10 C 652.29 562.03 650.10 558.24 649.70 553.94 C 649.20 549.46 648.00 545.07 645.90 541.07 C 642.18 533.81 638.53 526.52 634.83 519.26 C 631.53 512.72 631.58 505.18 632.50 498.09 C 633.48 490.17 632.75 481.49 627.75 474.94 C 624.27 477.68 620.25 479.83 615.80 480.37 M 362.77 583.95 C 368.11 594.19 375.41 603.24 382.29 612.47 C 383.47 605.57 384.93 598.69 387.61 592.20 C 379.22 589.78 371.07 586.64 362.77 583.95 M 382.67 645.17 C 381.38 658.19 380.54 671.36 376.90 684.00 C 374.23 691.99 370.07 699.39 365.50 706.43 C 359.84 715.28 352.14 722.46 344.72 729.77 C 351.10 741.86 358.77 754.36 371.31 760.84 C 378.15 764.61 386.26 764.78 393.74 763.16 C 394.35 759.11 395.48 755.13 397.53 751.56 C 401.15 745.05 404.31 738.00 409.97 732.95 C 419.01 724.89 426.98 715.52 433.01 704.99 C 437.42 696.25 441.75 687.42 447.31 679.32 C 454.05 669.73 460.47 659.90 467.20 650.30 C 463.16 637.07 457.44 624.13 448.66 613.34 C 443.35 606.96 435.98 602.48 428.04 600.19 C 416.30 597.12 404.15 595.97 392.29 593.48 C 386.44 610.12 385.76 627.93 382.67 645.17 M 600.99 667.20 C 596.26 668.35 591.61 670.70 588.78 674.79 C 587.17 677.27 588.73 680.22 589.28 682.79 C 594.82 701.57 592.81 722.54 603.19 739.81 C 608.13 748.72 618.30 752.06 626.04 757.90 C 632.47 761.93 638.70 768.07 646.88 767.38 C 653.43 766.86 661.44 764.92 664.34 758.27 C 666.84 752.16 667.66 745.54 668.75 739.08 C 671.13 724.52 672.23 709.80 672.92 695.08 C 673.32 686.52 674.37 677.84 672.64 669.36 C 662.28 665.34 650.95 665.70 640.03 665.02 C 627.01 664.75 613.75 664.02 600.99 667.20 M 567.72 710.72 C 561.48 712.72 556.17 716.75 550.04 718.98 C 541.70 722.05 532.84 723.43 524.00 723.99 C 512.26 724.87 500.66 721.65 488.92 722.26 C 482.62 722.78 479.43 729.17 477.25 734.31 C 471.87 748.87 474.44 764.92 477.81 779.64 C 484.41 777.40 491.69 777.61 498.25 779.88 C 499.48 777.11 500.82 773.92 504.01 772.99 C 513.25 769.55 523.19 768.42 533.00 768.18 C 559.39 767.68 585.56 772.49 611.94 772.43 C 618.89 772.63 625.54 770.51 632.10 768.50 C 623.13 762.24 613.67 756.65 605.09 749.87 C 593.68 738.81 590.41 722.31 588.39 707.17 C 581.40 707.58 574.36 708.37 567.72 710.72 M 472.42 713.35 C 464.10 717.01 456.10 722.31 451.03 730.00 C 445.59 738.65 445.55 749.23 444.78 759.08 C 444.13 768.90 441.23 778.35 438.72 787.81 C 434.22 804.48 433.98 822.42 438.88 839.03 C 440.88 846.58 444.02 853.97 448.97 860.08 C 451.91 863.61 457.35 864.68 461.43 862.53 C 468.15 859.16 472.83 852.82 476.19 846.28 C 480.49 838.10 480.12 828.57 482.95 819.93 C 485.21 812.10 490.07 805.41 492.98 797.85 C 494.69 793.64 495.70 789.19 496.71 784.77 C 490.81 782.84 483.93 781.88 478.42 785.42 C 475.73 787.42 473.89 783.90 473.34 781.70 C 469.73 769.53 468.38 756.58 469.97 743.97 C 471.17 735.23 474.75 726.36 481.66 720.61 C 485.26 717.55 490.22 717.62 494.66 717.19 C 488.71 711.92 479.77 710.04 472.42 713.35 M 324.78 762.71 C 318.47 776.32 313.10 790.36 308.76 804.72 C 302.10 825.76 295.68 846.90 290.60 868.39 C 288.42 880.23 284.80 891.78 279.96 902.80 C 277.90 907.10 277.28 912.20 279.76 916.48 C 284.96 912.56 291.07 908.36 297.95 909.73 C 303.74 910.74 306.65 916.32 310.12 920.41 C 313.46 914.88 313.23 908.05 316.44 902.45 C 324.08 887.64 335.20 875.03 344.13 861.03 C 352.31 848.01 361.67 835.77 369.62 822.61 C 379.03 805.79 388.83 788.76 393.04 769.75 C 384.06 771.90 374.45 770.14 366.62 765.34 C 354.71 758.16 346.63 746.06 341.47 733.40 C 334.58 742.35 329.52 752.51 324.78 762.71 M 264.35 925.52 C 260.53 938.90 249.47 949.62 248.93 964.02 C 248.40 969.63 252.71 974.07 256.91 977.10 C 272.64 987.72 295.11 986.53 310.02 974.96 C 314.10 971.93 316.21 966.92 316.32 961.91 C 317.00 948.67 315.47 935.44 315.69 922.20 C 313.40 923.50 310.98 925.77 308.15 924.84 C 303.42 922.79 302.13 916.38 297.01 914.93 C 290.61 914.18 286.01 920.22 280.04 921.09 C 274.42 919.70 272.75 913.23 272.48 908.19 C 268.95 913.55 266.11 919.33 264.35 925.52 Z" />
		<path fill="#020202" opacity="1.00"
			d=" M 488.65 98.16 C 491.20 101.12 493.14 104.54 495.25 107.81 C 496.69 109.69 495.04 112.22 493.37 113.31 C 491.16 114.27 488.63 114.11 486.35 113.49 C 485.41 110.25 490.68 108.52 489.65 105.21 C 489.16 102.88 488.65 100.55 488.65 98.16 Z" />
		<path fill="#020202" opacity="1.00"
			d=" M 498.15 121.26 C 500.16 120.62 503.32 119.26 504.37 122.04 C 503.72 123.14 502.99 124.19 502.31 125.27 C 500.88 128.93 496.88 130.14 493.57 131.49 C 490.06 132.69 486.57 134.08 482.91 134.70 C 481.16 135.05 480.40 133.04 479.37 132.07 C 477.99 132.11 476.61 132.11 475.24 132.09 C 475.90 130.86 476.38 129.30 477.90 128.88 C 484.51 125.98 491.36 123.69 498.15 121.26 Z" />
		<path fill="#020202" opacity="1.00"
			d=" M 516.84 390.43 C 531.18 388.52 545.44 385.09 560.01 385.54 C 567.36 385.78 574.71 386.30 582.02 387.11 C 585.85 387.60 589.96 387.71 593.22 390.07 C 590.52 390.59 587.77 390.68 585.04 390.44 C 575.72 389.74 566.37 389.08 557.03 389.57 C 543.00 389.99 529.36 393.58 515.50 395.41 C 501.73 396.97 487.86 397.40 474.01 397.76 C 465.12 398.04 455.86 399.38 448.16 404.13 C 447.22 404.78 446.19 405.03 445.08 404.87 C 444.86 401.34 448.25 399.37 450.98 397.98 C 457.54 394.94 464.76 393.45 471.95 392.98 C 486.92 392.34 501.93 392.12 516.84 390.43 Z" />
	</g>
	<g id="#f0b58bff">
		<path fill="#f0b58b" opacity="1.00"
			d=" M 480.14 46.36 C 484.12 48.16 487.80 50.53 491.24 53.23 C 492.83 57.66 495.12 61.79 497.04 66.08 C 493.62 67.19 490.01 68.00 486.96 70.00 C 484.99 71.27 484.64 73.80 483.76 75.80 C 482.35 80.22 479.14 84.91 481.54 89.59 C 482.84 91.97 483.95 95.53 487.05 95.88 C 489.24 93.05 486.37 89.56 485.72 86.64 C 490.51 82.80 496.38 81.25 502.09 79.37 C 506.73 94.55 509.04 110.92 505.47 126.59 C 503.54 135.06 499.54 143.29 493.10 149.24 C 487.18 153.05 479.65 151.63 473.16 150.33 C 467.43 149.32 462.12 146.75 456.40 145.74 C 457.60 147.54 459.05 149.27 461.12 150.10 C 466.82 152.77 473.01 154.28 479.20 155.33 C 483.49 156.09 487.89 155.56 492.01 154.17 C 491.73 159.24 494.95 163.36 498.63 166.44 C 500.61 167.88 499.76 170.57 499.38 172.57 C 497.53 178.84 495.59 185.10 493.07 191.13 C 490.60 197.39 486.99 203.12 484.64 209.44 C 472.45 207.10 461.06 201.82 450.38 195.63 C 444.07 191.82 437.97 187.47 433.05 181.95 C 429.56 177.57 430.84 171.52 432.65 166.70 C 436.66 155.54 434.97 143.24 430.98 132.33 C 432.83 127.34 430.99 121.91 428.36 117.57 C 424.97 112.51 419.64 108.37 418.51 102.08 C 417.93 98.35 418.26 93.40 421.96 91.35 C 424.79 90.83 425.95 93.91 427.00 95.93 C 430.80 104.63 433.67 113.72 437.58 122.37 C 439.59 126.49 441.77 131.23 446.52 132.70 C 447.37 128.28 445.06 124.20 444.15 119.99 C 442.71 113.77 441.01 107.40 441.70 100.97 C 442.09 99.10 442.77 96.53 444.90 96.03 C 452.89 93.68 461.27 92.78 469.13 90.01 C 471.61 85.51 472.92 80.27 474.62 75.37 C 472.50 74.64 470.27 74.20 468.07 74.81 C 457.53 76.73 447.33 80.18 437.32 83.92 C 435.42 79.62 432.36 76.03 429.02 72.78 C 431.72 73.90 434.37 75.13 437.05 76.31 C 437.03 75.31 437.32 74.23 436.81 73.30 C 434.79 69.32 431.87 65.89 429.25 62.29 C 434.26 63.84 439.37 65.36 443.87 68.12 C 445.40 68.87 446.88 70.45 448.73 69.73 C 449.70 65.31 446.88 61.29 444.93 57.57 C 453.48 59.25 459.10 67.95 468.15 68.06 C 465.73 63.74 464.09 59.06 462.92 54.26 C 470.18 58.68 479.02 62.43 487.59 59.95 C 486.09 58.28 484.35 56.83 483.08 54.97 C 481.68 52.27 481.09 49.24 480.14 46.36 M 488.65 98.16 C 488.65 100.55 489.16 102.88 489.65 105.21 C 490.68 108.52 485.41 110.25 486.35 113.49 C 488.63 114.11 491.16 114.27 493.37 113.31 C 495.04 112.22 496.69 109.69 495.25 107.81 C 493.14 104.54 491.20 101.12 488.65 98.16 M 498.15 121.26 C 491.36 123.69 484.51 125.98 477.90 128.88 C 476.38 129.30 475.90 130.86 475.24 132.09 C 476.61 132.11 477.99 132.11 479.37 132.07 C 480.40 133.04 481.16 135.05 482.91 134.70 C 486.57 134.08 490.06 132.69 493.57 131.49 C 496.88 130.14 500.88 128.93 502.31 125.27 C 502.99 124.19 503.72 123.14 504.37 122.04 C 503.32 119.26 500.16 120.62 498.15 121.26 Z" />
		<path fill="#f0b58b" opacity="1.00"
			d=" M 673.09 229.00 C 675.84 226.93 678.10 223.28 681.95 223.51 C 687.96 223.84 693.98 224.31 700.02 224.16 C 704.42 223.95 708.85 225.05 712.59 227.41 C 716.15 229.40 717.58 234.27 715.99 237.97 C 713.43 244.96 711.69 252.37 707.71 258.75 C 706.31 260.82 704.67 263.17 702.10 263.79 C 700.47 263.92 698.85 263.75 697.25 263.64 C 701.00 256.33 702.98 248.15 702.90 239.93 C 702.82 238.45 702.68 236.56 700.99 236.07 C 698.51 237.38 698.56 240.52 698.04 242.92 C 696.85 249.90 695.79 257.58 690.87 263.03 C 688.10 262.47 687.37 259.30 686.84 256.95 C 687.57 248.98 688.81 240.98 688.74 232.95 C 688.94 230.31 684.92 229.63 684.36 232.23 C 682.46 241.01 683.82 250.46 680.19 258.86 C 677.80 258.40 674.81 257.75 674.37 254.89 C 672.24 246.44 673.33 237.62 673.09 229.00 Z" />
		<path fill="#f0b58b" opacity="1.00"
			d=" M 651.69 249.05 C 652.45 241.16 654.36 233.37 657.71 226.18 C 659.08 226.84 660.47 227.50 661.86 228.15 C 659.30 235.78 657.81 244.06 659.38 252.06 C 661.23 261.06 667.69 268.84 676.10 272.48 C 676.73 279.96 677.85 287.39 679.34 294.74 C 669.90 286.50 659.51 279.21 648.22 273.74 C 651.03 265.80 650.77 257.31 651.69 249.05 Z" />
		<path fill="#f0b58b" opacity="1.00"
			d=" M 665.30 254.53 C 661.91 245.76 663.94 235.84 667.73 227.55 C 668.48 236.34 667.42 245.26 669.02 253.98 C 669.61 257.65 671.51 261.49 675.28 262.75 C 678.14 264.18 681.29 263.30 684.04 262.08 C 685.23 264.08 686.34 266.46 688.70 267.32 C 690.68 268.27 692.77 267.21 694.67 266.57 C 698.64 269.26 703.90 269.44 707.91 266.70 C 712.04 267.73 715.51 265.33 718.16 262.44 C 715.68 267.98 716.87 276.53 709.94 278.93 C 699.53 280.11 690.82 273.05 681.59 269.48 C 674.53 266.82 668.04 261.74 665.30 254.53 Z" />
		<path fill="#f0b58b" opacity="1.00"
			d=" M 722.20 236.05 C 723.88 236.29 725.57 236.54 727.27 236.79 C 727.50 239.79 727.18 242.88 725.55 245.48 C 721.73 251.74 716.80 257.24 711.68 262.46 C 716.68 254.29 718.50 244.79 722.20 236.05 Z" />
		<path fill="#f0b58b" opacity="1.00"
			d=" M 715.59 281.51 C 721.39 276.51 720.21 268.06 723.77 261.82 C 726.82 267.85 730.10 274.02 730.73 280.87 C 731.35 287.82 730.61 295.10 727.52 301.43 C 723.35 309.78 712.83 313.74 704.02 311.22 C 698.52 309.60 692.69 307.60 688.87 303.09 C 686.27 300.11 685.37 296.15 684.39 292.43 C 682.89 286.20 681.56 279.94 680.33 273.67 C 686.43 276.05 691.42 280.67 697.81 282.41 C 703.49 284.20 710.65 285.97 715.59 281.51 Z" />
		<path fill="#f0b58b" opacity="1.00"
			d=" M 344.34 349.94 C 357.02 352.25 369.37 356.36 380.93 362.06 C 386.76 365.32 392.99 368.79 396.50 374.72 C 395.23 380.57 394.49 386.53 394.41 392.52 C 391.13 391.58 387.82 389.48 384.32 390.31 C 383.41 392.71 386.49 393.12 387.96 394.08 C 398.33 398.38 407.85 404.40 418.10 408.95 C 435.22 415.63 453.82 416.98 472.02 417.42 C 478.49 417.10 485.16 416.73 491.19 414.09 C 495.81 412.28 499.96 409.14 504.99 408.46 C 510.73 407.66 516.53 408.54 522.24 409.31 C 527.64 410.21 533.43 410.79 538.10 413.91 C 542.17 416.97 545.65 420.76 548.68 424.83 C 543.20 424.58 538.94 420.49 533.57 419.79 C 528.61 419.06 523.50 418.47 518.53 419.39 C 517.08 419.71 515.07 420.25 515.08 422.10 C 514.82 424.57 517.47 425.75 519.27 426.75 C 526.54 430.30 535.48 432.10 540.51 438.95 C 531.74 438.60 523.83 433.18 514.96 433.73 C 512.38 433.62 510.38 436.56 512.07 438.75 C 516.29 444.71 524.21 446.01 529.26 451.07 C 523.18 453.16 517.18 449.60 511.08 450.18 C 507.12 451.55 509.63 456.50 510.10 459.38 C 504.91 461.18 499.49 459.61 494.26 458.91 C 486.39 457.72 478.13 456.24 471.56 451.44 C 463.05 445.03 452.26 442.65 441.86 441.60 C 432.14 440.23 422.29 440.91 412.58 441.88 C 397.22 443.12 381.65 442.90 366.47 440.09 C 358.74 438.65 350.76 440.44 343.09 438.56 C 339.40 437.31 338.04 433.26 337.32 429.80 C 334.08 417.02 336.39 403.80 338.16 390.99 C 339.39 382.32 337.21 373.50 339.03 364.88 C 340.05 359.65 342.83 355.01 344.34 349.94 Z" />
		<path fill="#f0b58b" opacity="1.00"
			d=" M 382.67 645.17 C 385.76 627.93 386.44 610.12 392.29 593.48 C 404.15 595.97 416.30 597.12 428.04 600.19 C 435.98 602.48 443.35 606.96 448.66 613.34 C 457.44 624.13 463.16 637.07 467.20 650.30 C 460.47 659.90 454.05 669.73 447.31 679.32 C 441.75 687.42 437.42 696.25 433.01 704.99 C 426.98 715.52 419.01 724.89 409.97 732.95 C 404.31 738.00 401.15 745.05 397.53 751.56 C 395.48 755.13 394.35 759.11 393.74 763.16 C 386.26 764.78 378.15 764.61 371.31 760.84 C 358.77 754.36 351.10 741.86 344.72 729.77 C 352.14 722.46 359.84 715.28 365.50 706.43 C 370.07 699.39 374.23 691.99 376.90 684.00 C 380.54 671.36 381.38 658.19 382.67 645.17 Z" />
		<path fill="#f0b58b" opacity="1.00"
			d=" M 600.99 667.20 C 613.75 664.02 627.01 664.75 640.03 665.02 C 650.95 665.70 662.28 665.34 672.64 669.36 C 674.37 677.84 673.32 686.52 672.92 695.08 C 672.23 709.80 671.13 724.52 668.75 739.08 C 667.66 745.54 666.84 752.16 664.34 758.27 C 661.44 764.92 653.43 766.86 646.88 767.38 C 638.70 768.07 632.47 761.93 626.04 757.90 C 618.30 752.06 608.13 748.72 603.19 739.81 C 592.81 722.54 594.82 701.57 589.28 682.79 C 588.73 680.22 587.17 677.27 588.78 674.79 C 591.61 670.70 596.26 668.35 600.99 667.20 Z" />
	</g>
	<g id="#f11b27ff">
		<path fill="var(--shirt-color, grey)" opacity="1.00"
			d=" M 541.97 149.39 C 550.52 147.72 559.69 146.63 568.01 149.88 C 580.85 154.51 590.69 164.34 600.37 173.56 C 606.62 179.34 612.38 185.73 619.47 190.54 C 628.48 197.19 638.68 201.91 648.11 207.88 C 652.36 210.56 656.92 212.68 661.36 215.00 C 658.71 216.69 655.91 218.41 654.24 221.17 C 650.04 227.89 647.81 235.66 646.62 243.44 C 644.88 254.12 646.20 265.30 642.15 275.56 C 637.30 272.22 633.41 267.56 628.07 264.95 C 625.80 263.79 623.37 263.03 620.96 262.26 C 619.34 247.81 610.69 235.67 605.83 222.30 C 604.29 217.83 603.91 213.09 602.82 208.51 C 601.96 210.24 600.99 212.04 601.32 214.05 C 601.78 230.02 612.26 243.15 615.99 258.31 C 613.27 253.09 610.29 247.99 606.63 243.36 C 602.30 237.35 596.79 232.07 593.83 225.18 C 591.88 220.81 591.28 215.93 588.92 211.73 C 587.14 216.74 589.15 221.93 590.34 226.83 C 592.28 234.54 597.66 240.59 602.13 246.93 C 606.32 252.76 610.07 258.90 613.89 264.97 C 615.30 278.20 610.31 290.97 609.44 304.07 C 609.00 310.62 610.75 317.06 612.82 323.22 C 602.38 318.03 590.48 317.02 579.95 312.05 C 572.36 308.94 565.47 304.40 558.05 300.97 C 558.71 303.04 559.49 305.25 561.44 306.48 C 567.41 310.89 574.25 313.94 580.92 317.13 C 590.04 321.54 600.20 322.88 609.67 326.32 C 611.87 327.24 614.66 328.16 615.37 330.75 C 618.39 339.58 618.17 349.12 617.09 358.27 C 605.88 348.98 592.44 342.64 578.50 338.64 C 565.30 334.76 551.87 331.59 538.93 326.84 C 534.64 325.35 530.51 323.42 526.15 322.13 C 531.70 327.27 539.25 329.14 546.07 331.97 C 564.02 339.17 583.39 343.00 600.24 352.81 C 604.62 355.34 609.05 357.83 613.10 360.86 C 614.42 361.98 616.13 363.10 616.30 365.01 C 618.13 373.99 615.43 383.00 615.46 392.00 C 615.28 399.26 621.55 404.65 621.55 411.87 C 622.23 424.20 621.18 436.77 624.11 448.87 C 625.71 454.45 625.80 460.35 624.92 466.06 C 623.79 468.95 621.96 471.62 619.85 473.90 C 614.59 476.25 608.57 475.58 602.95 476.06 C 586.66 476.13 570.35 477.10 554.08 475.85 C 539.38 474.78 524.65 475.92 509.95 475.45 C 494.27 474.93 478.68 472.86 462.98 473.14 C 453.62 473.38 444.26 473.38 434.91 473.15 C 430.35 472.92 427.79 468.07 427.30 464.03 C 426.87 457.96 429.63 452.05 428.32 445.96 C 442.67 445.58 458.58 446.37 470.28 455.73 C 478.49 461.24 488.67 462.09 498.14 463.86 C 502.83 464.44 508.41 465.71 512.43 462.46 C 515.06 460.42 513.64 456.84 513.37 454.13 C 518.90 454.96 525.15 457.34 530.44 454.40 C 533.02 453.18 533.59 449.50 531.45 447.59 C 527.10 443.29 520.99 441.51 516.29 437.65 C 522.68 438.38 528.69 440.73 534.84 442.42 C 537.72 443.17 541.62 443.52 543.45 440.63 C 545.24 437.90 543.02 434.84 540.87 433.14 C 534.78 428.36 527.19 426.27 520.31 422.96 C 526.67 423.01 533.46 422.67 539.23 425.82 C 542.50 427.38 546.24 429.35 549.91 427.84 C 551.82 427.29 553.16 425.00 552.00 423.18 C 549.62 419.00 546.01 415.67 542.48 412.47 C 537.67 408.10 531.08 406.77 524.88 405.72 C 518.04 404.69 511.08 403.55 504.17 404.50 C 497.47 405.46 492.11 410.10 485.65 411.82 C 475.28 414.59 464.51 412.88 453.98 412.38 C 445.57 411.46 437.16 410.18 428.95 408.08 C 428.55 401.46 427.53 394.90 426.82 388.31 C 437.95 385.80 448.08 380.28 459.11 377.44 C 465.25 375.76 471.69 375.87 477.89 374.47 C 483.81 373.20 489.84 372.33 495.61 370.48 C 497.45 370.03 498.63 368.52 499.77 367.13 C 493.87 367.09 488.13 368.53 482.31 369.23 C 475.60 370.19 468.77 369.95 462.09 371.18 C 451.24 373.27 441.36 378.44 430.97 381.98 C 427.49 383.08 423.85 384.37 420.14 383.78 C 418.05 382.37 418.10 379.31 417.77 377.04 C 417.51 370.18 416.86 363.32 415.51 356.58 C 414.29 351.09 411.24 345.88 411.81 340.09 C 412.38 335.39 413.46 330.74 413.52 326.00 C 413.52 316.00 413.48 305.73 409.85 296.26 C 407.79 291.24 406.18 285.37 401.28 282.34 C 401.90 285.51 403.17 288.49 404.44 291.44 C 406.96 297.41 408.44 303.73 409.74 310.05 C 405.47 302.08 399.27 295.32 392.10 289.88 C 387.17 286.21 382.08 281.56 375.53 281.76 C 378.89 284.73 382.94 286.77 386.44 289.56 C 395.59 296.56 403.48 305.58 407.80 316.36 C 410.13 322.34 408.90 328.89 408.05 335.04 C 406.10 346.68 404.59 358.70 398.94 369.25 C 392.49 362.45 384.08 357.92 375.46 354.47 C 360.91 348.41 345.36 344.56 329.61 343.57 C 328.46 337.03 330.30 330.49 332.26 324.29 C 336.40 311.09 344.70 299.49 347.56 285.85 C 349.31 277.94 350.78 269.96 351.38 261.87 C 352.32 251.83 354.68 241.25 361.58 233.53 C 366.45 227.97 372.51 223.65 378.59 219.53 C 387.14 213.88 396.90 209.57 403.64 201.58 C 408.44 196.06 411.16 189.18 415.14 183.12 C 417.37 179.63 420.99 177.45 424.46 175.37 C 424.99 177.95 425.26 180.78 427.13 182.82 C 435.22 192.49 446.11 199.26 457.29 204.81 C 465.46 208.79 473.92 212.73 483.02 213.87 C 485.51 214.42 487.52 212.58 488.63 210.57 C 494.39 199.83 499.53 188.70 502.97 176.97 C 504.38 172.59 506.06 166.62 501.82 163.23 C 498.88 160.81 496.39 157.80 495.82 153.91 C 501.21 153.81 506.59 154.33 511.98 154.01 C 522.11 153.49 532.06 151.42 541.97 149.39 M 516.84 390.43 C 501.93 392.12 486.92 392.34 471.95 392.98 C 464.76 393.45 457.54 394.94 450.98 397.98 C 448.25 399.37 444.86 401.34 445.08 404.87 C 446.19 405.03 447.22 404.78 448.16 404.13 C 455.86 399.38 465.12 398.04 474.01 397.76 C 487.86 397.40 501.73 396.97 515.50 395.41 C 529.36 393.58 543.00 389.99 557.03 389.57 C 566.37 389.08 575.72 389.74 585.04 390.44 C 587.77 390.68 590.52 390.59 593.22 390.07 C 589.96 387.71 585.85 387.60 582.02 387.11 C 574.71 386.30 567.36 385.78 560.01 385.54 C 545.44 385.09 531.18 388.52 516.84 390.43 Z" />
	</g>
	<g id="#2b3dcdff">
		<path fill="var(--pants-color, grey)" opacity="1.00"
			d=" M 615.80 480.37 C 620.25 479.83 624.27 477.68 627.75 474.94 C 632.75 481.49 633.48 490.17 632.50 498.09 C 631.58 505.18 631.53 512.72 634.83 519.26 C 638.53 526.52 642.18 533.81 645.90 541.07 C 648.00 545.07 649.20 549.46 649.70 553.94 C 650.10 558.24 652.29 562.03 653.52 566.10 C 654.85 570.57 653.61 575.30 654.58 579.82 C 655.63 583.63 657.95 586.89 659.82 590.33 C 664.89 598.86 668.17 608.29 671.27 617.67 C 676.33 633.72 671.63 651.05 677.33 666.98 C 667.51 661.49 656.01 661.08 645.06 660.41 C 633.54 660.08 621.97 659.28 610.49 660.64 C 601.39 661.66 591.19 663.62 585.31 671.37 C 581.57 675.84 584.14 681.86 585.32 686.80 C 576.25 687.69 567.16 686.99 558.12 686.12 C 556.02 680.81 553.62 675.58 552.23 670.03 C 550.49 663.47 551.49 656.63 550.55 649.97 C 548.12 633.23 542.06 617.26 535.06 601.93 C 533.22 597.27 528.11 595.62 523.77 594.17 C 520.84 592.82 518.40 595.64 516.29 597.27 C 504.43 608.22 494.81 621.26 485.01 634.00 C 480.76 639.58 476.64 645.26 472.67 651.04 C 469.55 636.54 462.90 622.83 453.81 611.13 C 446.35 601.58 434.86 596.08 423.14 593.88 C 409.55 591.07 395.63 589.88 382.31 585.89 C 375.84 583.98 369.53 581.61 363.35 578.93 C 367.33 565.55 379.03 556.78 389.57 548.60 C 400.31 540.81 410.42 531.51 416.55 519.57 C 418.65 515.37 418.26 510.55 419.45 506.11 C 421.03 502.05 425.22 499.42 426.05 494.99 C 427.37 488.75 427.35 481.75 432.03 476.84 C 442.30 478.21 452.67 478.73 463.03 478.49 C 478.74 478.46 494.33 480.82 510.02 481.14 C 523.64 481.42 537.25 480.30 550.86 481.03 C 561.70 481.64 572.56 481.94 583.41 481.61 C 594.20 481.33 605.06 481.79 615.80 480.37 Z" />
		<path fill="var(--socks-color, grey)" opacity="1.00"
			d=" M 362.77 583.95 C 371.07 586.64 379.22 589.78 387.61 592.20 C 384.93 598.69 383.47 605.57 382.29 612.47 C 375.41 603.24 368.11 594.19 362.77 583.95 Z" />
		<path fill="var(--socks-color, grey)" opacity="1.00"
			d=" M 567.72 710.72 C 574.36 708.37 581.40 707.58 588.39 707.17 C 590.41 722.31 593.68 738.81 605.09 749.87 C 613.67 756.65 623.13 762.24 632.10 768.50 C 625.54 770.51 618.89 772.63 611.94 772.43 C 585.56 772.49 559.39 767.68 533.00 768.18 C 523.19 768.42 513.25 769.55 504.01 772.99 C 500.82 773.92 499.48 777.11 498.25 779.88 C 491.69 777.61 484.41 777.40 477.81 779.64 C 474.44 764.92 471.87 748.87 477.25 734.31 C 479.43 729.17 482.62 722.78 488.92 722.26 C 500.66 721.65 512.26 724.87 524.00 723.99 C 532.84 723.43 541.70 722.05 550.04 718.98 C 556.17 716.75 561.48 712.72 567.72 710.72 Z" />
		<path fill="var(--socks-color, grey)" opacity="1.00"
			d=" M 324.78 762.71 C 329.52 752.51 334.58 742.35 341.47 733.40 C 346.63 746.06 354.71 758.16 366.62 765.34 C 374.45 770.14 384.06 771.90 393.04 769.75 C 388.83 788.76 379.03 805.79 369.62 822.61 C 361.67 835.77 352.31 848.01 344.13 861.03 C 335.20 875.03 324.08 887.64 316.44 902.45 C 313.23 908.05 313.46 914.88 310.12 920.41 C 306.65 916.32 303.74 910.74 297.95 909.73 C 291.07 908.36 284.96 912.56 279.76 916.48 C 277.28 912.20 277.90 907.10 279.96 902.80 C 284.80 891.78 288.42 880.23 290.60 868.39 C 295.68 846.90 302.10 825.76 308.76 804.72 C 313.10 790.36 318.47 776.32 324.78 762.71 Z" />
	</g>
	<g id="#4d4d4dff">
		<path fill="#4d4d4d" opacity="1.00"
			d=" M 472.42 713.35 C 479.77 710.04 488.71 711.92 494.66 717.19 C 490.22 717.62 485.26 717.55 481.66 720.61 C 474.75 726.36 471.17 735.23 469.97 743.97 C 468.38 756.58 469.73 769.53 473.34 781.70 C 473.89 783.90 475.73 787.42 478.42 785.42 C 483.93 781.88 490.81 782.84 496.71 784.77 C 495.70 789.19 494.69 793.64 492.98 797.85 C 490.07 805.41 485.21 812.10 482.95 819.93 C 480.12 828.57 480.49 838.10 476.19 846.28 C 472.83 852.82 468.15 859.16 461.43 862.53 C 457.35 864.68 451.91 863.61 448.97 860.08 C 444.02 853.97 440.88 846.58 438.88 839.03 C 433.98 822.42 434.22 804.48 438.72 787.81 C 441.23 778.35 444.13 768.90 444.78 759.08 C 445.55 749.23 445.59 738.65 451.03 730.00 C 456.10 722.31 464.10 717.01 472.42 713.35 Z" />
		<path fill="#4d4d4d" opacity="1.00"
			d=" M 264.35 925.52 C 266.11 919.33 268.95 913.55 272.48 908.19 C 272.75 913.23 274.42 919.70 280.04 921.09 C 286.01 920.22 290.61 914.18 297.01 914.93 C 302.13 916.38 303.42 922.79 308.15 924.84 C 310.98 925.77 313.40 923.50 315.69 922.20 C 315.47 935.44 317.00 948.67 316.32 961.91 C 316.21 966.92 314.10 971.93 310.02 974.96 C 295.11 986.53 272.64 987.72 256.91 977.10 C 252.71 974.07 248.40 969.63 248.93 964.02 C 249.47 949.62 260.53 938.90 264.35 925.52 Z" />
	</g>
</svg>