<?xml version="1.0" encoding="UTF-8" ?>
<!DOCTYPE svg PUBLIC "-//W3C//DTD SVG 1.1//EN" "http://www.w3.org/Graphics/SVG/1.1/DTD/svg11.dtd">
<svg width="1000pt" height="1000pt" viewBox="0 0 1000 1000" version="1.1" xmlns="http://www.w3.org/2000/svg">
	<g id="#020202ff">
		<path fill="#020202" opacity="1.00"
			d=" M 492.57 54.58 C 504.02 43.32 519.66 35.53 535.99 36.20 C 546.27 36.95 556.74 37.82 566.41 41.65 C 578.56 46.26 589.73 55.07 594.78 67.31 C 597.44 73.50 597.56 80.35 597.44 86.97 C 597.40 98.76 592.91 109.85 589.24 120.86 C 587.33 121.47 586.48 118.31 585.13 117.32 C 581.05 129.30 575.89 140.93 569.69 151.97 C 575.23 154.41 581.11 156.37 585.98 160.08 C 591.18 164.60 593.23 171.47 595.90 177.59 C 599.46 178.09 603.20 178.77 606.01 181.21 C 610.70 185.07 614.83 189.58 618.77 194.19 C 625.39 202.53 632.67 210.31 639.69 218.30 C 644.55 223.81 651.08 227.77 655.15 233.98 C 657.22 236.86 656.78 240.54 656.58 243.87 C 667.39 254.92 679.05 265.07 690.09 275.88 C 695.14 280.50 699.78 285.58 705.21 289.78 C 708.86 292.61 712.51 296.01 717.27 296.70 C 723.05 297.56 728.94 297.78 734.58 299.46 C 749.77 303.20 763.24 311.45 776.37 319.66 C 781.59 323.18 787.90 324.41 794.01 325.33 C 802.35 325.84 810.99 325.84 818.85 329.09 C 821.99 330.37 824.46 332.78 827.43 334.38 C 833.06 337.07 839.84 337.14 844.83 341.19 C 850.06 345.20 852.43 351.60 854.67 357.56 C 856.19 361.76 857.34 366.28 856.64 370.77 C 855.43 373.21 852.32 372.88 850.08 373.38 C 849.21 377.44 848.71 382.50 844.78 384.85 C 842.31 386.67 839.59 384.40 837.18 383.64 C 834.82 384.44 832.18 385.39 829.80 384.15 C 826.01 382.63 824.30 378.51 824.24 374.66 C 822.52 376.25 819.68 379.05 817.59 376.42 C 815.55 373.44 814.90 369.78 813.56 366.48 C 803.60 367.45 793.31 370.50 783.45 367.35 C 775.19 365.02 768.71 358.70 760.28 356.80 C 746.04 353.51 731.20 355.16 716.92 352.10 C 698.85 348.80 682.34 340.27 666.28 331.72 C 647.79 321.84 631.01 309.00 615.97 294.44 C 614.38 295.45 612.84 296.60 611.03 297.17 C 601.79 293.09 595.03 283.53 584.50 282.37 C 575.89 287.40 570.58 296.32 565.75 304.76 C 561.11 312.22 557.59 320.35 554.85 328.69 C 549.23 348.95 544.28 369.39 539.62 389.89 C 535.84 404.54 533.30 419.57 527.67 433.67 C 525.95 437.80 522.99 441.44 522.33 445.97 C 520.77 455.73 521.98 466.04 518.32 475.41 C 517.01 479.05 514.39 481.99 512.69 485.42 C 511.69 490.57 511.67 495.87 510.76 501.04 C 509.13 510.73 508.68 521.01 503.50 529.65 C 500.95 534.80 495.51 537.82 489.83 537.87 C 500.77 556.02 512.25 573.85 522.48 592.42 C 524.79 596.88 527.41 601.24 529.03 606.03 C 530.10 608.27 528.60 610.47 527.89 612.56 C 532.85 628.38 541.33 643.26 543.06 659.99 C 543.89 669.17 542.87 679.36 536.66 686.63 C 524.22 699.59 510.93 712.14 501.79 727.80 C 498.04 734.70 495.87 742.31 492.40 749.35 C 484.08 766.63 475.55 783.82 466.99 800.98 C 458.82 816.27 450.06 831.28 443.53 847.37 C 440.22 855.35 437.14 863.43 434.30 871.58 C 433.29 874.18 433.25 877.00 433.78 879.72 C 440.18 882.37 444.76 887.71 448.86 893.08 C 453.43 898.85 457.91 904.70 462.37 910.56 C 468.89 919.10 474.06 928.69 481.51 936.51 C 488.73 943.95 497.76 949.56 504.18 957.78 C 506.90 961.71 509.60 967.67 505.92 971.86 C 502.39 975.19 497.59 976.75 492.99 977.94 C 481.19 980.74 468.90 981.07 456.89 979.68 C 446.37 978.46 436.62 973.77 427.76 968.17 C 418.29 961.99 408.16 956.93 398.03 951.93 C 387.99 947.01 376.90 945.07 366.03 942.88 C 360.75 941.60 355.00 939.93 351.48 935.52 C 347.31 929.88 348.61 922.41 349.20 915.92 C 350.27 904.05 355.32 892.85 362.24 883.27 C 368.58 875.48 374.81 867.51 379.63 858.66 C 387.99 845.38 391.69 829.93 396.18 815.07 C 402.18 795.13 404.77 774.43 408.87 754.07 C 410.24 747.10 411.23 740.05 412.72 733.09 C 415.07 722.03 420.99 712.17 427.34 702.97 C 424.95 701.77 422.56 700.57 420.17 699.40 C 410.15 715.63 398.58 730.84 386.83 745.84 C 378.46 756.02 370.74 767.28 359.32 774.32 C 352.57 778.48 344.13 775.96 337.07 779.17 C 329.38 782.68 324.35 789.82 317.59 794.64 C 303.34 806.15 287.13 814.85 270.66 822.71 C 258.83 828.72 246.69 834.24 235.63 841.64 C 229.35 845.49 223.19 849.70 218.29 855.27 C 215.77 858.29 212.04 860.60 210.70 864.42 C 210.03 874.20 210.18 884.13 212.22 893.76 C 215.80 908.22 223.18 921.75 233.71 932.33 C 237.35 936.92 243.32 941.41 242.48 947.92 C 239.80 956.76 230.18 962.61 221.07 961.46 C 207.80 959.97 193.83 957.97 182.50 950.39 C 177.70 947.48 176.15 941.87 173.85 937.13 C 166.70 921.63 161.93 905.10 154.00 889.96 C 147.90 877.85 136.56 869.16 131.56 856.42 C 128.13 848.19 128.47 837.63 134.93 830.94 C 139.18 825.81 145.77 823.78 151.98 822.20 C 157.47 820.86 163.15 819.71 168.82 820.50 C 186.06 807.55 204.27 795.82 220.23 781.25 C 227.64 774.78 231.76 765.61 238.21 758.31 C 252.51 741.41 268.95 725.12 289.95 716.95 C 295.16 714.84 300.17 712.22 305.62 710.76 C 309.50 704.76 313.10 698.56 317.34 692.80 C 315.67 689.02 316.44 684.84 317.07 680.92 C 319.58 667.91 322.54 654.99 324.49 641.88 C 325.37 636.87 326.19 631.80 328.02 627.04 C 329.82 622.26 332.64 617.91 334.00 612.96 C 338.78 596.60 338.00 578.68 332.11 562.70 C 328.78 552.91 320.20 546.17 316.28 536.67 C 311.90 528.22 311.47 518.28 313.45 509.10 C 315.54 499.32 321.41 490.77 322.96 480.85 C 325.73 470.82 326.72 460.40 327.09 450.04 C 327.29 443.87 326.85 437.35 329.77 431.70 C 334.54 422.00 340.79 413.12 346.25 403.82 C 344.44 396.16 345.51 388.29 345.91 380.54 C 346.18 377.38 346.44 374.01 348.31 371.33 C 350.16 368.76 352.91 367.05 355.48 365.28 C 354.10 362.35 352.87 359.29 352.66 356.03 C 351.81 342.50 353.44 328.74 350.21 315.42 C 348.19 307.29 347.31 298.83 348.37 290.48 C 347.27 290.33 346.18 290.17 345.09 290.02 C 329.37 299.77 314.97 312.09 304.44 327.41 C 303.55 328.78 302.60 330.24 302.63 331.95 C 302.19 345.99 300.77 359.99 300.47 374.04 C 300.18 391.75 306.71 408.57 309.03 425.96 C 309.00 434.33 305.43 442.14 303.10 450.05 C 300.58 458.59 298.45 468.26 291.00 473.97 C 289.18 475.63 286.66 475.46 284.39 475.48 C 283.66 481.64 283.05 487.86 281.59 493.91 C 280.75 497.33 278.55 501.02 274.78 501.62 C 271.86 502.16 269.81 499.36 269.16 496.86 C 267.70 491.40 267.85 485.66 267.74 480.05 C 266.63 485.31 265.23 490.51 263.85 495.71 C 262.85 499.04 261.80 502.81 258.73 504.84 C 256.97 506.18 254.27 505.73 253.17 503.78 C 250.39 499.26 250.87 493.63 250.91 488.54 C 247.99 492.43 245.01 497.29 239.97 498.46 C 236.53 498.78 235.70 494.58 236.22 491.98 C 237.50 481.93 241.09 472.35 243.88 462.65 C 239.54 467.27 235.60 472.85 229.51 475.26 C 226.13 476.46 220.81 476.15 219.67 472.03 C 219.71 468.29 223.98 466.75 225.95 464.02 C 231.54 456.96 236.06 449.07 239.89 440.93 C 242.51 435.51 243.75 429.37 247.57 424.58 C 250.25 420.95 253.86 418.17 256.94 414.91 C 259.21 412.55 259.08 409.01 259.07 405.96 C 258.65 398.46 256.38 391.22 255.08 383.85 C 251.43 366.81 251.33 349.28 252.11 331.95 C 252.64 322.53 253.95 313.14 256.21 303.97 C 257.86 297.34 258.83 290.33 262.43 284.39 C 270.21 272.06 284.58 265.41 291.36 252.32 C 293.56 248.04 295.93 243.81 299.05 240.12 C 298.58 238.74 298.07 237.37 297.78 235.96 C 299.18 232.04 302.68 229.44 305.38 226.43 C 310.47 221.00 316.49 216.56 322.93 212.85 C 328.46 209.55 334.35 206.66 339.04 202.15 C 346.25 195.46 350.51 186.31 357.54 179.47 C 362.15 174.92 367.39 170.93 373.40 168.44 C 382.78 164.49 391.89 159.87 400.53 154.49 C 407.16 150.28 413.66 144.53 422.02 144.73 C 431.57 144.88 442.12 147.17 450.74 141.73 C 457.83 136.94 464.57 131.65 471.22 126.27 C 467.53 111.86 470.35 96.83 475.17 83.06 C 478.97 72.53 484.85 62.71 492.57 54.58 M 527.32 79.15 C 526.61 82.81 525.65 86.48 523.57 89.63 C 521.25 87.78 519.72 85.22 518.23 82.71 C 519.20 89.61 518.26 96.70 515.01 102.90 C 519.28 103.06 524.00 101.54 527.83 104.12 C 534.47 108.10 541.18 112.07 547.38 116.72 C 551.20 119.07 548.16 123.70 546.53 126.55 C 544.88 129.62 541.23 128.27 538.74 127.22 C 530.77 123.56 523.37 118.79 516.13 113.88 C 513.38 112.19 510.48 110.26 507.15 110.16 C 501.25 115.50 498.45 123.36 493.25 129.32 C 492.38 130.24 491.15 130.70 490.07 131.31 C 490.85 127.01 493.22 123.23 494.29 119.01 C 495.70 113.72 497.52 108.50 498.10 103.03 C 498.43 99.11 497.12 94.56 493.61 92.40 C 490.75 91.54 487.36 93.54 486.48 96.37 C 484.53 101.73 484.85 107.54 483.93 113.09 C 483.24 117.91 481.05 122.38 478.36 126.39 C 475.64 130.38 471.53 133.03 467.93 136.13 C 465.80 137.86 465.22 140.68 464.56 143.20 C 463.23 149.32 463.24 155.66 463.67 161.88 C 464.29 166.84 464.56 172.23 467.59 176.44 C 471.17 181.15 475.79 184.92 479.76 189.27 C 493.08 203.66 502.91 220.87 511.72 238.27 C 513.08 223.39 515.61 208.59 515.79 193.63 C 512.37 192.90 508.94 191.98 505.97 190.09 C 499.73 186.38 495.88 180.01 491.68 174.32 C 489.26 170.78 486.21 167.39 485.58 162.99 C 487.64 163.97 489.43 165.42 490.78 167.26 C 494.98 172.65 499.44 177.86 504.24 182.73 C 508.80 187.30 515.69 189.28 522.02 188.13 C 528.99 186.93 535.19 183.08 540.58 178.64 C 551.73 169.45 559.89 157.29 567.34 145.07 C 564.74 143.46 562.13 141.85 559.49 140.30 C 556.44 144.33 554.33 148.92 551.98 153.36 C 551.46 153.34 550.43 153.31 549.91 153.29 C 549.82 148.72 551.76 144.45 553.18 140.20 C 555.27 135.04 557.36 129.41 561.87 125.85 C 566.57 122.51 572.13 125.85 576.81 127.48 C 578.93 122.73 580.98 117.94 583.16 113.21 C 580.69 107.64 579.12 101.73 578.02 95.75 C 574.33 101.02 573.32 107.52 570.24 113.07 C 568.75 111.82 567.09 110.68 566.06 108.99 C 562.57 102.85 560.14 96.05 559.66 88.96 C 555.89 92.89 554.16 98.12 553.61 103.44 C 551.96 104.26 551.25 102.54 550.48 101.43 C 546.71 95.59 545.17 88.12 547.46 81.43 C 543.29 83.20 538.57 85.31 536.71 89.76 C 535.93 91.13 535.63 93.00 534.02 93.69 C 531.93 88.77 529.88 83.85 527.32 79.15 M 459.25 140.90 C 454.85 144.87 450.01 148.79 444.05 149.98 C 436.81 151.81 429.38 150.23 422.07 150.22 C 415.72 150.24 410.74 154.51 405.71 157.79 C 395.32 164.86 383.77 169.91 372.26 174.84 C 383.24 174.93 393.32 180.50 401.17 187.84 C 408.05 194.34 414.71 201.24 419.80 209.25 C 421.18 211.26 421.60 213.70 421.70 216.09 C 418.35 213.13 415.95 209.34 413.07 205.97 C 404.83 196.40 395.41 187.34 383.63 182.34 C 378.09 179.90 371.97 179.49 366.01 179.14 C 357.11 186.02 351.94 196.24 344.29 204.26 C 337.25 211.78 327.27 215.24 319.07 221.19 C 313.04 225.38 308.37 231.12 303.25 236.30 C 304.81 237.49 306.39 238.68 307.80 240.06 C 313.04 245.25 319.27 249.31 324.50 254.51 C 330.93 260.44 336.25 267.40 341.93 274.02 C 344.66 277.23 347.07 280.69 349.20 284.33 C 360.99 275.58 373.95 268.60 387.02 261.99 C 393.28 258.82 399.18 254.66 406.04 252.85 C 410.40 252.16 416.17 251.78 418.88 256.06 C 414.45 257.25 409.81 257.39 405.41 258.69 C 401.84 259.82 398.58 261.72 395.26 263.40 C 404.30 266.21 413.17 269.76 421.20 274.86 C 430.25 280.60 439.13 286.76 447.04 294.03 C 449.29 295.95 450.75 298.58 451.50 301.42 C 446.97 299.20 443.56 295.40 439.53 292.45 C 430.47 285.64 421.17 279.01 410.88 274.16 C 404.52 271.05 397.88 268.57 391.36 265.82 C 387.86 267.96 383.83 269.33 380.77 272.10 C 383.97 273.68 387.33 274.90 390.55 276.44 C 404.79 283.06 417.39 292.64 429.33 302.72 C 433.02 306.12 437.56 309.30 438.70 314.52 C 434.15 312.59 430.78 308.90 426.97 305.90 C 416.91 297.80 406.47 290.08 395.05 284.00 C 388.91 280.52 382.32 277.89 376.39 274.05 C 367.88 278.83 359.68 284.12 351.17 288.90 C 351.24 293.95 351.22 299.04 352.13 304.03 C 353.09 310.11 355.22 315.94 356.10 322.04 C 358.12 333.53 356.60 345.27 357.73 356.83 C 358.15 360.47 360.26 363.68 362.96 366.06 C 369.56 372.15 378.39 374.64 386.05 379.01 C 393.85 383.41 401.64 387.88 408.88 393.17 C 415.39 397.91 420.24 404.44 426.21 409.79 C 428.63 411.99 431.17 414.28 432.07 417.56 C 430.13 416.69 428.24 415.71 426.57 414.38 C 418.01 407.67 410.58 399.52 401.27 393.79 C 393.15 388.74 385.00 383.69 376.30 379.69 C 369.47 376.80 362.91 373.11 357.57 367.89 C 355.06 370.16 351.56 372.23 351.16 375.93 C 350.62 379.94 350.82 384.01 350.53 388.05 C 350.32 392.91 349.75 397.98 351.38 402.68 C 352.33 405.36 355.37 406.13 357.55 407.52 C 365.67 411.73 370.11 420.35 377.72 425.23 C 382.50 428.33 387.86 430.39 392.83 433.16 C 405.62 440.17 416.99 449.45 427.93 459.04 C 435.92 466.04 444.12 472.88 451.07 480.96 C 454.30 484.80 458.49 488.03 460.27 492.89 C 458.12 492.13 456.14 491.02 454.51 489.43 C 447.09 482.53 439.79 475.49 432.16 468.82 C 419.20 457.62 406.36 446.01 391.30 437.66 C 385.29 434.24 378.60 432.05 373.00 427.92 C 368.04 424.29 364.33 419.30 359.71 415.29 C 356.58 412.53 352.75 410.78 349.15 408.76 C 345.55 414.38 342.50 420.34 338.93 425.98 C 336.04 431.31 332.27 436.59 332.20 442.90 C 331.42 456.36 330.52 469.90 327.39 483.05 C 340.31 484.94 353.30 482.50 365.87 479.57 C 377.78 476.84 389.81 474.60 401.94 473.16 C 412.51 471.83 422.83 475.96 431.79 481.18 C 442.00 487.30 451.82 494.23 460.22 502.71 C 468.40 510.89 476.08 519.59 484.85 527.15 C 487.66 529.01 491.71 531.29 494.83 528.77 C 498.96 525.34 500.94 520.02 501.95 514.89 C 503.80 505.34 505.52 495.75 506.49 486.06 C 497.60 482.53 494.12 472.96 489.66 465.31 C 486.80 459.55 482.03 454.40 481.66 447.70 C 485.95 452.40 488.80 458.19 492.86 463.07 C 497.81 469.13 502.36 475.74 508.78 480.38 C 515.82 470.47 514.92 457.93 517.01 446.52 C 509.48 447.11 504.70 440.70 500.54 435.48 C 495.53 429.86 492.63 422.83 488.27 416.77 C 485.47 412.48 482.21 408.36 480.62 403.42 C 485.09 406.52 488.65 410.71 491.98 414.96 C 497.88 422.69 504.97 429.39 511.97 436.09 C 513.95 438.32 518.14 438.50 519.70 435.69 C 523.72 429.04 525.35 421.29 527.88 414.01 C 535.86 386.14 540.91 357.51 549.58 329.82 C 552.51 319.62 556.55 309.79 561.21 300.27 C 565.97 289.19 571.70 278.50 578.66 268.65 C 584.97 260.30 593.09 253.44 601.93 247.89 C 606.81 244.87 611.69 241.56 617.39 240.30 C 615.46 242.75 613.10 244.79 610.52 246.52 C 602.28 252.14 594.07 257.98 587.30 265.36 C 581.94 270.83 578.25 277.60 574.22 284.04 C 583.66 275.38 596.55 271.67 609.09 270.69 C 613.18 270.63 618.49 270.03 621.04 274.02 C 610.82 273.56 600.66 275.48 591.08 278.97 C 598.20 282.27 604.20 287.41 610.46 292.06 C 612.33 290.12 614.08 287.88 616.61 286.76 C 619.33 285.50 622.38 284.74 624.61 282.61 C 630.48 277.34 634.84 270.66 639.21 264.15 C 643.25 257.59 647.86 251.37 651.70 244.68 C 653.63 241.79 653.13 237.87 650.70 235.43 C 645.83 230.20 639.70 226.33 634.91 221.01 C 628.30 213.63 621.47 206.42 615.27 198.69 C 610.20 192.93 605.38 186.31 598.10 183.24 C 599.18 186.77 601.43 190.15 601.03 193.98 C 599.82 193.66 598.60 193.17 597.89 192.08 C 593.23 185.92 590.99 178.41 587.52 171.59 C 585.91 168.38 584.07 164.99 580.81 163.19 C 576.37 160.60 571.50 158.87 566.87 156.66 C 562.43 163.49 557.54 170.05 551.87 175.92 C 543.72 184.49 533.52 191.87 521.56 193.66 C 521.42 200.16 520.49 206.60 519.79 213.06 C 519.16 223.14 518.62 233.26 517.11 243.26 C 516.82 245.86 515.10 249.16 511.96 248.37 C 509.11 247.18 507.91 244.08 506.45 241.60 C 497.87 224.59 488.51 207.61 475.28 193.72 C 470.95 189.06 465.84 185.11 462.17 179.87 C 458.90 175.19 458.17 169.36 457.63 163.83 C 457.04 156.17 457.32 148.37 459.25 140.90 M 290.75 262.77 C 284.14 271.12 275.04 277.10 268.48 285.50 C 264.22 291.13 263.35 298.33 261.71 304.98 C 258.59 317.74 257.17 330.87 256.99 343.99 C 256.29 357.78 257.57 371.63 260.43 385.13 C 262.12 394.38 265.25 403.81 263.19 413.27 C 262.51 416.69 259.88 419.17 257.42 421.42 C 253.49 424.97 249.78 429.05 248.08 434.18 C 244.19 445.39 238.32 455.84 231.32 465.39 C 229.58 467.72 227.40 469.65 225.36 471.71 C 228.07 470.92 230.70 469.72 232.67 467.65 C 237.52 462.83 241.73 457.31 247.32 453.28 C 249.55 448.14 250.43 442.50 252.95 437.50 C 253.38 437.74 254.25 438.22 254.68 438.46 C 255.00 447.74 251.11 456.39 248.47 465.10 C 245.91 474.32 242.73 483.40 241.13 492.86 C 243.40 490.50 245.67 488.06 247.08 485.07 C 253.09 473.22 255.20 459.93 258.41 447.16 C 258.99 444.69 260.39 441.99 263.34 442.25 C 263.71 447.06 262.19 451.69 261.17 456.32 C 259.57 462.88 258.15 469.50 256.02 475.92 C 255.45 477.89 254.58 479.85 254.67 481.95 C 254.84 488.19 254.87 494.56 256.67 500.60 C 260.43 492.17 261.37 482.86 263.78 474.02 C 265.97 466.03 267.69 457.55 272.84 450.83 C 275.66 447.25 278.03 443.31 281.16 439.99 C 282.12 438.81 284.53 438.84 283.94 440.88 C 282.18 448.50 275.69 453.79 273.14 461.07 C 271.75 464.53 270.82 468.23 271.38 471.98 C 272.27 480.50 271.38 489.34 274.13 497.56 C 274.83 496.38 275.60 495.23 276.12 493.95 C 279.63 482.51 277.98 469.70 283.86 458.95 C 287.11 452.97 290.10 446.80 293.99 441.21 C 294.53 441.33 295.61 441.57 296.15 441.68 C 295.74 452.60 286.49 460.53 285.16 471.19 C 285.58 471.25 286.41 471.36 286.83 471.42 C 292.99 467.00 295.38 459.34 297.50 452.41 C 299.80 443.96 303.52 435.76 304.06 426.93 C 301.43 408.61 294.45 390.79 295.41 372.04 C 296.19 348.32 298.75 324.59 297.25 300.84 C 297.11 298.92 296.93 296.92 297.85 295.15 C 298.90 296.12 299.90 297.24 300.19 298.69 C 302.28 306.56 303.23 314.70 303.08 322.85 C 312.92 306.98 327.72 294.85 343.47 285.17 C 339.17 279.03 333.95 273.64 329.21 267.85 C 321.26 258.27 311.32 250.69 302.26 242.23 C 297.56 248.59 295.78 256.62 290.75 262.77 M 640.50 271.41 C 635.04 279.61 629.01 288.78 619.01 291.71 C 624.70 296.09 628.94 302.03 634.72 306.30 C 654.45 321.45 676.81 332.97 699.97 341.90 C 712.72 346.79 726.44 348.42 740.01 348.92 C 749.43 349.55 759.22 349.96 767.92 354.04 C 773.63 356.57 778.58 360.65 784.61 362.50 C 793.46 365.60 802.67 362.03 811.63 361.37 C 811.54 360.89 811.38 359.93 811.29 359.45 C 801.34 358.73 791.21 360.58 781.38 358.36 C 776.37 356.89 773.73 351.54 773.43 346.66 C 776.80 348.81 778.89 352.93 782.94 353.99 C 788.60 354.94 794.36 354.54 800.08 354.55 C 805.25 354.35 810.43 355.06 815.61 354.55 C 808.37 350.43 800.07 348.86 792.54 345.41 C 791.22 344.85 790.17 343.84 789.13 342.93 C 796.57 341.62 803.48 345.78 810.52 347.56 C 810.82 344.06 810.92 340.50 811.93 337.11 C 813.79 340.70 813.74 344.79 814.03 348.72 C 816.35 350.19 819.29 351.28 820.47 353.98 C 821.12 357.03 817.75 358.20 815.73 359.48 C 816.97 363.55 818.78 367.40 820.23 371.39 C 822.34 368.49 826.06 366.09 825.91 362.11 C 825.94 354.54 825.91 346.98 825.75 339.42 C 821.93 336.84 818.59 333.26 813.91 332.30 C 804.27 329.26 793.80 332.39 784.35 328.51 C 767.43 321.07 752.72 308.75 734.47 304.37 C 727.69 302.05 720.29 302.82 713.55 300.45 C 701.61 294.73 692.29 285.10 682.75 276.19 C 673.14 267.04 662.79 258.67 653.98 248.71 C 649.61 256.35 645.10 263.92 640.50 271.41 M 827.34 339.86 C 829.25 346.77 829.61 353.96 830.14 361.07 C 830.70 365.53 827.56 369.58 828.92 374.03 C 828.92 376.69 830.37 380.43 833.69 379.80 C 835.61 377.75 835.59 374.71 835.82 372.07 C 835.99 362.15 835.68 352.22 836.37 342.31 C 833.35 341.52 830.33 340.72 827.34 339.86 M 838.61 342.63 C 839.37 351.43 839.73 360.25 840.21 369.07 C 840.41 372.61 840.15 376.17 839.59 379.68 C 840.72 380.14 841.85 380.60 843.00 381.07 C 848.04 371.36 845.03 360.10 846.71 349.73 C 844.49 346.86 841.75 344.44 838.61 342.63 M 849.33 354.88 C 849.79 359.61 850.20 364.34 850.29 369.08 C 851.58 369.21 852.89 369.29 854.22 369.32 C 853.36 364.28 851.49 359.50 849.33 354.88 M 374.90 483.17 C 358.80 486.38 342.19 491.27 325.73 487.59 C 322.28 497.87 316.90 507.89 317.14 519.02 C 316.88 525.12 318.73 531.09 321.66 536.39 C 325.73 544.40 332.87 550.48 336.22 558.90 C 343.60 577.12 343.92 597.83 338.35 616.58 C 336.70 621.85 333.40 626.43 331.82 631.73 C 330.17 637.34 329.38 643.15 328.42 648.91 C 326.32 662.37 322.52 675.52 320.91 689.05 C 323.81 690.96 327.04 692.30 330.48 692.83 C 338.54 694.25 346.73 696.21 354.95 695.26 C 360.80 694.73 364.10 688.63 369.92 687.98 C 382.48 686.11 395.26 687.78 407.54 690.65 C 414.63 691.77 421.67 693.68 427.73 697.69 C 430.37 683.76 432.60 669.69 432.78 655.48 C 430.73 653.21 426.57 650.79 428.39 647.22 C 430.13 643.86 433.27 641.54 436.10 639.14 C 454.66 623.26 476.92 611.48 500.72 605.80 C 508.14 604.13 516.03 603.14 523.45 605.40 C 511.92 582.27 497.30 560.91 484.22 538.66 C 481.84 534.82 479.76 530.73 476.69 527.38 C 464.59 515.82 454.05 502.44 440.01 493.06 C 429.80 486.14 418.80 478.56 405.98 478.43 C 395.49 478.90 385.20 481.31 374.90 483.17 M 479.52 619.68 C 462.55 626.76 445.96 635.57 432.45 648.22 C 436.78 652.28 441.73 655.75 445.39 660.50 C 448.08 663.83 450.28 667.53 452.19 671.37 C 454.35 667.67 455.41 663.52 456.54 659.44 C 457.47 660.42 458.78 661.33 458.78 662.86 C 459.59 668.32 456.47 673.21 454.18 677.90 C 462.91 679.39 471.24 682.64 479.01 686.85 C 490.16 692.84 501.22 700.84 506.44 712.78 C 514.60 702.58 523.71 693.19 533.09 684.11 C 536.65 680.78 537.56 675.65 538.06 671.01 C 539.25 657.42 533.97 644.47 529.10 632.08 C 526.49 625.09 522.86 618.36 521.86 610.88 C 507.21 608.87 492.96 614.55 479.52 619.68 M 436.82 658.09 C 436.92 671.26 434.44 684.26 432.04 697.16 C 438.80 690.54 444.68 683.13 449.80 675.18 C 446.62 668.70 442.17 662.91 436.82 658.09 M 451.21 682.57 C 448.01 687.50 444.67 692.37 440.62 696.66 C 433.04 704.74 426.66 713.99 422.12 724.11 C 418.02 733.41 417.35 743.68 415.31 753.53 C 410.86 775.39 407.67 797.56 401.08 818.93 C 396.23 834.52 392.04 850.83 382.22 864.20 C 378.04 869.39 379.43 876.61 380.76 882.59 C 381.88 887.25 386.43 889.60 390.41 891.47 C 398.96 895.31 407.76 899.30 417.27 899.75 C 416.09 894.21 413.19 887.87 416.48 882.52 C 419.01 878.41 424.37 878.84 428.56 878.66 C 428.86 874.99 429.38 871.32 430.56 867.83 C 435.76 852.31 441.80 837.03 449.48 822.57 C 456.03 810.13 463.37 798.11 469.45 785.43 C 478.03 768.46 487.02 751.65 493.99 733.93 C 496.31 727.69 499.82 722.01 503.67 716.63 C 501.14 711.08 497.15 706.34 492.55 702.40 C 480.75 692.45 466.38 685.48 451.21 682.57 M 357.02 700.13 C 345.48 701.80 334.15 697.84 323.09 695.06 C 316.02 705.83 308.10 716.26 303.49 728.40 C 302.06 731.83 301.61 735.95 298.52 738.40 C 297.21 731.13 299.87 723.97 302.47 717.30 C 298.73 719.02 294.97 720.71 291.17 722.29 C 290.28 737.30 292.26 753.26 301.12 765.84 C 306.55 773.87 315.01 779.67 324.48 781.75 C 329.28 777.67 334.64 773.78 341.01 772.76 C 346.45 771.49 352.59 772.82 357.45 769.52 C 368.02 762.51 375.08 751.75 383.26 742.31 C 394.87 728.10 405.57 713.14 415.50 697.70 C 400.62 694.52 385.32 690.99 370.05 693.46 C 365.36 694.96 362.16 699.59 357.02 700.13 M 242.75 762.76 C 237.02 769.50 233.28 777.73 227.01 784.03 C 210.93 799.25 191.76 810.63 173.03 822.23 C 170.85 823.70 170.83 826.69 170.53 829.04 C 169.87 840.20 170.79 851.63 174.75 862.15 C 177.47 868.83 181.95 875.25 188.08 879.15 C 193.16 878.72 195.21 873.43 198.01 869.97 C 199.55 867.67 202.42 867.21 204.89 866.52 C 205.24 859.28 211.44 854.89 215.88 849.97 C 220.44 845.03 226.07 841.28 231.78 837.81 C 248.76 826.67 267.74 819.16 285.55 809.50 C 298.31 802.93 310.06 794.57 321.01 785.31 C 312.06 783.75 303.88 778.81 298.22 771.73 C 287.66 758.73 283.86 741.31 285.19 724.86 C 268.20 733.86 254.85 748.10 242.75 762.76 M 145.42 830.43 C 139.24 832.87 134.62 839.24 135.17 846.02 C 135.52 856.58 142.74 865.04 149.11 872.82 C 165.09 891.38 169.93 916.12 180.23 937.76 C 182.31 941.81 185.38 945.55 189.63 947.42 C 198.84 951.66 208.89 953.84 218.92 955.06 C 224.85 955.96 231.24 954.80 235.91 950.86 C 237.91 949.48 239.08 946.59 237.44 944.50 C 233.91 939.18 229.12 934.87 225.10 929.95 C 218.16 921.82 213.14 912.21 209.58 902.17 C 206.05 892.36 205.64 881.79 205.51 871.46 C 200.36 873.45 198.82 879.54 194.03 882.02 C 189.61 884.63 183.57 883.84 179.98 880.16 C 175.55 875.76 171.49 870.79 169.09 864.97 C 163.94 852.33 162.49 838.19 165.28 824.80 C 158.58 826.34 151.84 827.92 145.42 830.43 M 365.25 888.20 C 359.17 897.72 354.61 908.53 354.17 919.95 C 354.11 924.01 353.61 928.56 355.92 932.14 C 359.20 935.16 363.83 935.96 368.05 936.90 C 379.14 938.80 390.37 941.20 400.40 946.53 C 410.80 952.04 421.42 957.22 431.28 963.70 C 440.29 969.55 450.59 973.74 461.42 974.36 C 475.54 975.29 490.64 974.91 503.30 967.82 C 502.51 965.12 501.78 962.29 499.89 960.13 C 493.90 953.04 485.85 948.17 479.20 941.79 C 474.20 937.00 470.19 931.31 466.32 925.61 C 458.85 914.25 450.34 903.63 441.85 893.03 C 438.22 888.41 433.21 884.19 427.02 884.16 C 424.80 884.23 421.28 883.63 420.41 886.37 C 419.63 891.36 422.63 896.01 422.51 900.98 C 422.39 903.19 420.13 904.52 418.12 904.64 C 411.62 905.20 405.33 902.97 399.32 900.77 C 392.84 898.10 386.08 895.70 380.44 891.43 C 375.49 887.62 374.73 881.00 374.08 875.23 C 371.48 879.79 368.18 883.87 365.25 888.20 Z" />
		<path fill="#020202" opacity="1.00"
			d=" M 547.28 155.33 C 548.61 154.73 550.01 154.41 551.48 154.37 C 551.15 157.54 550.17 160.85 548.08 163.32 C 544.77 163.65 541.37 163.47 538.14 162.72 C 535.91 161.86 535.34 159.21 535.08 157.10 C 539.12 156.29 543.49 157.34 547.28 155.33 Z" />
		<path fill="#020202" opacity="1.00"
			d=" M 507.55 163.91 C 509.13 162.64 511.02 163.70 512.60 164.39 C 519.49 167.70 526.36 171.08 533.03 174.84 C 534.74 175.87 537.14 176.97 536.33 179.47 C 534.84 179.58 533.37 179.42 531.90 179.37 C 530.71 179.84 529.65 181.37 528.26 180.88 C 524.65 179.68 521.53 177.39 518.07 175.85 C 514.96 174.26 510.58 173.12 510.68 168.81 C 509.19 167.45 506.33 166.40 507.55 163.91 Z" />
		<path fill="#020202" opacity="1.00"
			d=" M 365.10 399.08 C 365.30 397.03 367.06 395.51 368.99 395.12 C 372.17 394.27 375.41 395.40 378.31 396.66 C 386.48 400.23 394.62 403.86 402.97 406.99 C 409.39 409.45 415.80 412.32 421.05 416.86 C 427.61 422.38 432.35 429.61 438.18 435.82 C 440.75 438.60 443.08 441.58 445.42 444.54 C 448.21 448.12 451.66 451.25 453.63 455.42 C 451.38 454.92 449.27 453.92 447.67 452.25 C 442.86 447.76 438.76 442.58 434.13 437.92 C 428.78 432.56 424.71 426.04 418.97 421.06 C 413.78 416.47 407.31 413.72 400.91 411.26 C 392.52 408.12 384.33 404.46 376.12 400.88 C 373.92 399.88 371.49 399.63 369.11 399.54 C 372.18 404.97 377.87 408.04 383.29 410.67 C 391.20 414.21 399.29 417.53 406.45 422.51 C 414.24 428.16 423.25 434.07 426.26 443.73 C 424.41 442.63 422.71 441.29 421.22 439.76 C 415.11 433.35 407.71 428.36 400.22 423.75 C 390.29 417.73 378.52 415.01 369.51 407.45 C 367.06 405.40 364.49 402.54 365.10 399.08 Z" />
	</g>
	<g id="#f0b58bff">
		<path fill="#f0b58b" opacity="1.00"
			d=" M 527.32 79.15 C 529.88 83.85 531.93 88.77 534.02 93.69 C 535.63 93.00 535.93 91.13 536.71 89.76 C 538.57 85.31 543.29 83.20 547.46 81.43 C 545.17 88.12 546.71 95.59 550.48 101.43 C 551.25 102.54 551.96 104.26 553.61 103.44 C 554.16 98.12 555.89 92.89 559.66 88.96 C 560.14 96.05 562.57 102.85 566.06 108.99 C 567.09 110.68 568.75 111.82 570.24 113.07 C 573.32 107.52 574.33 101.02 578.02 95.75 C 579.12 101.73 580.69 107.64 583.16 113.21 C 580.98 117.94 578.93 122.73 576.81 127.48 C 572.13 125.85 566.57 122.51 561.87 125.85 C 557.36 129.41 555.27 135.04 553.18 140.20 C 551.76 144.45 549.82 148.72 549.91 153.29 C 550.43 153.31 551.46 153.34 551.98 153.36 C 554.33 148.92 556.44 144.33 559.49 140.30 C 562.13 141.85 564.74 143.46 567.34 145.07 C 559.89 157.29 551.73 169.45 540.58 178.64 C 535.19 183.08 528.99 186.93 522.02 188.13 C 515.69 189.28 508.80 187.30 504.24 182.73 C 499.44 177.86 494.98 172.65 490.78 167.26 C 489.43 165.42 487.64 163.97 485.58 162.99 C 486.21 167.39 489.26 170.78 491.68 174.32 C 495.88 180.01 499.73 186.38 505.97 190.09 C 508.94 191.98 512.37 192.90 515.79 193.63 C 515.61 208.59 513.08 223.39 511.72 238.27 C 502.91 220.87 493.08 203.66 479.76 189.27 C 475.79 184.92 471.17 181.15 467.59 176.44 C 464.56 172.23 464.29 166.84 463.67 161.88 C 463.24 155.66 463.23 149.32 464.56 143.20 C 465.22 140.68 465.80 137.86 467.93 136.13 C 471.53 133.03 475.64 130.38 478.36 126.39 C 481.05 122.38 483.24 117.91 483.93 113.09 C 484.85 107.54 484.53 101.73 486.48 96.37 C 487.36 93.54 490.75 91.54 493.61 92.40 C 497.12 94.56 498.43 99.11 498.10 103.03 C 497.52 108.50 495.70 113.72 494.29 119.01 C 493.22 123.23 490.85 127.01 490.07 131.31 C 491.15 130.70 492.38 130.24 493.25 129.32 C 498.45 123.36 501.25 115.50 507.15 110.16 C 510.48 110.26 513.38 112.19 516.13 113.88 C 523.37 118.79 530.77 123.56 538.74 127.22 C 541.23 128.27 544.88 129.62 546.53 126.55 C 548.16 123.70 551.20 119.07 547.38 116.72 C 541.18 112.07 534.47 108.10 527.83 104.12 C 524.00 101.54 519.28 103.06 515.01 102.90 C 518.26 96.70 519.20 89.61 518.23 82.71 C 519.72 85.22 521.25 87.78 523.57 89.63 C 525.65 86.48 526.61 82.81 527.32 79.15 M 547.28 155.33 C 543.49 157.34 539.12 156.29 535.08 157.10 C 535.34 159.21 535.91 161.86 538.14 162.72 C 541.37 163.47 544.77 163.65 548.08 163.32 C 550.17 160.85 551.15 157.54 551.48 154.37 C 550.01 154.41 548.61 154.73 547.28 155.33 M 507.55 163.91 C 506.33 166.40 509.19 167.45 510.68 168.81 C 510.58 173.12 514.96 174.26 518.07 175.85 C 521.53 177.39 524.65 179.68 528.26 180.88 C 529.65 181.37 530.71 179.84 531.90 179.37 C 533.37 179.42 534.84 179.58 536.33 179.47 C 537.14 176.97 534.74 175.87 533.03 174.84 C 526.36 171.08 519.49 167.70 512.60 164.39 C 511.02 163.70 509.13 162.64 507.55 163.91 Z" />
		<path fill="#f0b58b" opacity="1.00"
			d=" M 290.75 262.77 C 295.78 256.62 297.56 248.59 302.26 242.23 C 311.32 250.69 321.26 258.27 329.21 267.85 C 333.95 273.64 339.17 279.03 343.47 285.17 C 327.72 294.85 312.92 306.98 303.08 322.85 C 303.23 314.70 302.28 306.56 300.19 298.69 C 299.90 297.24 298.90 296.12 297.85 295.15 C 296.93 296.92 297.11 298.92 297.25 300.84 C 298.75 324.59 296.19 348.32 295.41 372.04 C 294.45 390.79 301.43 408.61 304.06 426.93 C 303.52 435.76 299.80 443.96 297.50 452.41 C 295.38 459.34 292.99 467.00 286.83 471.42 C 286.41 471.36 285.58 471.25 285.16 471.19 C 286.49 460.53 295.74 452.60 296.15 441.68 C 295.61 441.57 294.53 441.33 293.99 441.21 C 290.10 446.80 287.11 452.97 283.86 458.95 C 277.98 469.70 279.63 482.51 276.12 493.95 C 275.60 495.23 274.83 496.38 274.13 497.56 C 271.38 489.34 272.27 480.50 271.38 471.98 C 270.82 468.23 271.75 464.53 273.14 461.07 C 275.69 453.79 282.18 448.50 283.94 440.88 C 284.53 438.84 282.12 438.81 281.16 439.99 C 278.03 443.31 275.66 447.25 272.84 450.83 C 267.69 457.55 265.97 466.03 263.78 474.02 C 261.37 482.86 260.43 492.17 256.67 500.60 C 254.87 494.56 254.84 488.19 254.67 481.95 C 254.58 479.85 255.45 477.89 256.02 475.92 C 258.15 469.50 259.57 462.88 261.17 456.32 C 262.19 451.69 263.71 447.06 263.34 442.25 C 260.39 441.99 258.99 444.69 258.41 447.16 C 255.20 459.93 253.09 473.22 247.08 485.07 C 245.67 488.06 243.40 490.50 241.13 492.86 C 242.73 483.40 245.91 474.32 248.47 465.10 C 251.11 456.39 255.00 447.74 254.68 438.46 C 254.25 438.22 253.38 437.74 252.95 437.50 C 250.43 442.50 249.55 448.14 247.32 453.28 C 241.73 457.31 237.52 462.83 232.67 467.65 C 230.70 469.72 228.07 470.92 225.36 471.71 C 227.40 469.65 229.58 467.72 231.32 465.39 C 238.32 455.84 244.19 445.39 248.08 434.18 C 249.78 429.05 253.49 424.97 257.42 421.42 C 259.88 419.17 262.51 416.69 263.19 413.27 C 265.25 403.81 262.12 394.38 260.43 385.13 C 257.57 371.63 256.29 357.78 256.99 343.99 C 257.17 330.87 258.59 317.74 261.71 304.98 C 263.35 298.33 264.22 291.13 268.48 285.50 C 275.04 277.10 284.14 271.12 290.75 262.77 Z" />
		<path fill="#f0b58b" opacity="1.00"
			d=" M 640.50 271.41 C 645.10 263.92 649.61 256.35 653.98 248.71 C 662.79 258.67 673.14 267.04 682.75 276.19 C 692.29 285.10 701.61 294.73 713.55 300.45 C 720.29 302.82 727.69 302.05 734.47 304.37 C 752.72 308.75 767.43 321.07 784.35 328.51 C 793.80 332.39 804.27 329.26 813.91 332.30 C 818.59 333.26 821.93 336.84 825.75 339.42 C 825.91 346.98 825.94 354.54 825.91 362.11 C 826.06 366.09 822.34 368.49 820.23 371.39 C 818.78 367.40 816.97 363.55 815.73 359.48 C 817.75 358.20 821.12 357.03 820.47 353.98 C 819.29 351.28 816.35 350.19 814.03 348.72 C 813.74 344.79 813.79 340.70 811.93 337.11 C 810.92 340.50 810.82 344.06 810.52 347.56 C 803.48 345.78 796.57 341.62 789.13 342.93 C 790.17 343.84 791.22 344.85 792.54 345.41 C 800.07 348.86 808.37 350.43 815.61 354.55 C 810.43 355.06 805.25 354.35 800.08 354.55 C 794.36 354.54 788.60 354.94 782.94 353.99 C 778.89 352.93 776.80 348.81 773.43 346.66 C 773.73 351.54 776.37 356.89 781.38 358.36 C 791.21 360.58 801.34 358.73 811.29 359.45 C 811.38 359.93 811.54 360.89 811.63 361.37 C 802.67 362.03 793.46 365.60 784.61 362.50 C 778.58 360.65 773.63 356.57 767.92 354.04 C 759.22 349.96 749.43 349.55 740.01 348.92 C 726.44 348.42 712.72 346.79 699.97 341.90 C 676.81 332.97 654.45 321.45 634.72 306.30 C 628.94 302.03 624.70 296.09 619.01 291.71 C 629.01 288.78 635.04 279.61 640.50 271.41 Z" />
		<path fill="#f0b58b" opacity="1.00"
			d=" M 827.34 339.86 C 830.33 340.72 833.35 341.52 836.37 342.31 C 835.68 352.22 835.99 362.15 835.82 372.07 C 835.59 374.71 835.61 377.75 833.69 379.80 C 830.37 380.43 828.92 376.69 828.92 374.03 C 827.56 369.58 830.70 365.53 830.14 361.07 C 829.61 353.96 829.25 346.77 827.34 339.86 Z" />
		<path fill="#f0b58b" opacity="1.00"
			d=" M 838.61 342.63 C 841.75 344.44 844.49 346.86 846.71 349.73 C 845.03 360.10 848.04 371.36 843.00 381.07 C 841.85 380.60 840.72 380.14 839.59 379.68 C 840.15 376.17 840.41 372.61 840.21 369.07 C 839.73 360.25 839.37 351.43 838.61 342.63 Z" />
		<path fill="#f0b58b" opacity="1.00"
			d=" M 849.33 354.88 C 851.49 359.50 853.36 364.28 854.22 369.32 C 852.89 369.29 851.58 369.21 850.29 369.08 C 850.20 364.34 849.79 359.61 849.33 354.88 Z" />
		<path fill="#f0b58b" opacity="1.00"
			d=" M 479.52 619.68 C 492.96 614.55 507.21 608.87 521.86 610.88 C 522.86 618.36 526.49 625.09 529.10 632.08 C 533.97 644.47 539.25 657.42 538.06 671.01 C 537.56 675.65 536.65 680.78 533.09 684.11 C 523.71 693.19 514.60 702.58 506.44 712.78 C 501.22 700.84 490.16 692.84 479.01 686.85 C 471.24 682.64 462.91 679.39 454.18 677.90 C 456.47 673.21 459.59 668.32 458.78 662.86 C 458.78 661.33 457.47 660.42 456.54 659.44 C 455.41 663.52 454.35 667.67 452.19 671.37 C 450.28 667.53 448.08 663.83 445.39 660.50 C 441.73 655.75 436.78 652.28 432.45 648.22 C 445.96 635.57 462.55 626.76 479.52 619.68 Z" />
		<path fill="#f0b58b" opacity="1.00"
			d=" M 357.02 700.13 C 362.16 699.59 365.36 694.96 370.05 693.46 C 385.32 690.99 400.62 694.52 415.50 697.70 C 405.57 713.14 394.87 728.10 383.26 742.31 C 375.08 751.75 368.02 762.51 357.45 769.52 C 352.59 772.82 346.45 771.49 341.01 772.76 C 334.64 773.78 329.28 777.67 324.48 781.75 C 315.01 779.67 306.55 773.87 301.12 765.84 C 292.26 753.26 290.28 737.30 291.17 722.29 C 294.97 720.71 298.73 719.02 302.47 717.30 C 299.87 723.97 297.21 731.13 298.52 738.40 C 301.61 735.95 302.06 731.83 303.49 728.40 C 308.10 716.26 316.02 705.83 323.09 695.06 C 334.15 697.84 345.48 701.80 357.02 700.13 Z" />
	</g>
	<g id="#f11b27ff">
		<path fill="var(--shirt-color, grey)" opacity="1.00"
			d=" M 459.25 140.90 C 457.32 148.37 457.04 156.17 457.63 163.83 C 458.17 169.36 458.90 175.19 462.17 179.87 C 465.84 185.11 470.95 189.06 475.28 193.72 C 488.51 207.61 497.87 224.59 506.45 241.60 C 507.91 244.08 509.11 247.18 511.96 248.37 C 515.10 249.16 516.82 245.86 517.11 243.26 C 518.62 233.26 519.16 223.14 519.79 213.06 C 520.49 206.60 521.42 200.16 521.56 193.66 C 533.52 191.87 543.72 184.49 551.87 175.92 C 557.54 170.05 562.43 163.49 566.87 156.66 C 571.50 158.87 576.37 160.60 580.81 163.19 C 584.07 164.99 585.91 168.38 587.52 171.59 C 590.99 178.41 593.23 185.92 597.89 192.08 C 598.60 193.17 599.82 193.66 601.03 193.98 C 601.43 190.15 599.18 186.77 598.10 183.24 C 605.38 186.31 610.20 192.93 615.27 198.69 C 621.47 206.42 628.30 213.63 634.91 221.01 C 639.70 226.33 645.83 230.20 650.70 235.43 C 653.13 237.87 653.63 241.79 651.70 244.68 C 647.86 251.37 643.25 257.59 639.21 264.15 C 634.84 270.66 630.48 277.34 624.61 282.61 C 622.38 284.74 619.33 285.50 616.61 286.76 C 614.08 287.88 612.33 290.12 610.46 292.06 C 604.20 287.41 598.20 282.27 591.08 278.97 C 600.66 275.48 610.82 273.56 621.04 274.02 C 618.49 270.03 613.18 270.63 609.09 270.69 C 596.55 271.67 583.66 275.38 574.22 284.04 C 578.25 277.60 581.94 270.83 587.30 265.36 C 594.07 257.98 602.28 252.14 610.52 246.52 C 613.10 244.79 615.46 242.75 617.39 240.30 C 611.69 241.56 606.81 244.87 601.93 247.89 C 593.09 253.44 584.97 260.30 578.66 268.65 C 571.70 278.50 565.97 289.19 561.21 300.27 C 556.55 309.79 552.51 319.62 549.58 329.82 C 540.91 357.51 535.86 386.14 527.88 414.01 C 525.35 421.29 523.72 429.04 519.70 435.69 C 518.14 438.50 513.95 438.32 511.97 436.09 C 504.97 429.39 497.88 422.69 491.98 414.96 C 488.65 410.71 485.09 406.52 480.62 403.42 C 482.21 408.36 485.47 412.48 488.27 416.77 C 492.63 422.83 495.53 429.86 500.54 435.48 C 504.70 440.70 509.48 447.11 517.01 446.52 C 514.92 457.93 515.82 470.47 508.78 480.38 C 502.36 475.74 497.81 469.13 492.86 463.07 C 488.80 458.19 485.95 452.40 481.66 447.70 C 482.03 454.40 486.80 459.55 489.66 465.31 C 494.12 472.96 497.60 482.53 506.49 486.06 C 505.52 495.75 503.80 505.34 501.95 514.89 C 500.94 520.02 498.96 525.34 494.83 528.77 C 491.71 531.29 487.66 529.01 484.85 527.15 C 476.08 519.59 468.40 510.89 460.22 502.71 C 451.82 494.23 442.00 487.30 431.79 481.18 C 422.83 475.96 412.51 471.83 401.94 473.16 C 389.81 474.60 377.78 476.84 365.87 479.57 C 353.30 482.50 340.31 484.94 327.39 483.05 C 330.52 469.90 331.42 456.36 332.20 442.90 C 332.27 436.59 336.04 431.31 338.93 425.98 C 342.50 420.34 345.55 414.38 349.15 408.76 C 352.75 410.78 356.58 412.53 359.71 415.29 C 364.33 419.30 368.04 424.29 373.00 427.92 C 378.60 432.05 385.29 434.24 391.30 437.66 C 406.36 446.01 419.20 457.62 432.16 468.82 C 439.79 475.49 447.09 482.53 454.51 489.43 C 456.14 491.02 458.12 492.13 460.27 492.89 C 458.49 488.03 454.30 484.80 451.07 480.96 C 444.12 472.88 435.92 466.04 427.93 459.04 C 416.99 449.45 405.62 440.17 392.83 433.16 C 387.86 430.39 382.50 428.33 377.72 425.23 C 370.11 420.35 365.67 411.73 357.55 407.52 C 355.37 406.13 352.33 405.36 351.38 402.68 C 349.75 397.98 350.32 392.91 350.53 388.05 C 350.82 384.01 350.62 379.94 351.16 375.93 C 351.56 372.23 355.06 370.16 357.57 367.89 C 362.91 373.11 369.47 376.80 376.30 379.69 C 385.00 383.69 393.15 388.74 401.27 393.79 C 410.58 399.52 418.01 407.67 426.57 414.38 C 428.24 415.71 430.13 416.69 432.07 417.56 C 431.17 414.28 428.63 411.99 426.21 409.79 C 420.24 404.44 415.39 397.91 408.88 393.17 C 401.64 387.88 393.85 383.41 386.05 379.01 C 378.39 374.64 369.56 372.15 362.96 366.06 C 360.26 363.68 358.15 360.47 357.73 356.83 C 356.60 345.27 358.12 333.53 356.10 322.04 C 355.22 315.94 353.09 310.11 352.13 304.03 C 351.22 299.04 351.24 293.95 351.17 288.90 C 359.68 284.12 367.88 278.83 376.39 274.05 C 382.32 277.89 388.91 280.52 395.05 284.00 C 406.47 290.08 416.91 297.80 426.97 305.90 C 430.78 308.90 434.15 312.59 438.70 314.52 C 437.56 309.30 433.02 306.12 429.33 302.72 C 417.39 292.64 404.79 283.06 390.55 276.44 C 387.33 274.90 383.97 273.68 380.77 272.10 C 383.83 269.33 387.86 267.96 391.36 265.82 C 397.88 268.57 404.52 271.05 410.88 274.16 C 421.17 279.01 430.47 285.64 439.53 292.45 C 443.56 295.40 446.97 299.20 451.50 301.42 C 450.75 298.58 449.29 295.95 447.04 294.03 C 439.13 286.76 430.25 280.60 421.20 274.86 C 413.17 269.76 404.30 266.21 395.26 263.40 C 398.58 261.72 401.84 259.82 405.41 258.69 C 409.81 257.39 414.45 257.25 418.88 256.06 C 416.17 251.78 410.40 252.16 406.04 252.85 C 399.18 254.66 393.28 258.82 387.02 261.99 C 373.95 268.60 360.99 275.58 349.20 284.33 C 347.07 280.69 344.66 277.23 341.93 274.02 C 336.25 267.40 330.93 260.44 324.50 254.51 C 319.27 249.31 313.04 245.25 307.80 240.06 C 306.39 238.68 304.81 237.49 303.25 236.30 C 308.37 231.12 313.04 225.38 319.07 221.19 C 327.27 215.24 337.25 211.78 344.29 204.26 C 351.94 196.24 357.11 186.02 366.01 179.14 C 371.97 179.49 378.09 179.90 383.63 182.34 C 395.41 187.34 404.83 196.40 413.07 205.97 C 415.95 209.34 418.35 213.13 421.70 216.09 C 421.60 213.70 421.18 211.26 419.80 209.25 C 414.71 201.24 408.05 194.34 401.17 187.84 C 393.32 180.50 383.24 174.93 372.26 174.84 C 383.77 169.91 395.32 164.86 405.71 157.79 C 410.74 154.51 415.72 150.24 422.07 150.22 C 429.38 150.23 436.81 151.81 444.05 149.98 C 450.01 148.79 454.85 144.87 459.25 140.90 M 365.10 399.08 C 364.49 402.54 367.06 405.40 369.51 407.45 C 378.52 415.01 390.29 417.73 400.22 423.75 C 407.71 428.36 415.11 433.35 421.22 439.76 C 422.71 441.29 424.41 442.63 426.26 443.73 C 423.25 434.07 414.24 428.16 406.45 422.51 C 399.29 417.53 391.20 414.21 383.29 410.67 C 377.87 408.04 372.18 404.97 369.11 399.54 C 371.49 399.63 373.92 399.88 376.12 400.88 C 384.33 404.46 392.52 408.12 400.91 411.26 C 407.31 413.72 413.78 416.47 418.97 421.06 C 424.71 426.04 428.78 432.56 434.13 437.92 C 438.76 442.58 442.86 447.76 447.67 452.25 C 449.27 453.92 451.38 454.92 453.63 455.42 C 451.66 451.25 448.21 448.12 445.42 444.54 C 443.08 441.58 440.75 438.60 438.18 435.82 C 432.35 429.61 427.61 422.38 421.05 416.86 C 415.80 412.32 409.39 409.45 402.97 406.99 C 394.62 403.86 386.48 400.23 378.31 396.66 C 375.41 395.40 372.17 394.27 368.99 395.12 C 367.06 395.51 365.30 397.03 365.10 399.08 Z" />
	</g>
	<g id="#2b3dcdff">
		<path fill="var(--pants-color, grey)" opacity="1.00"
			d=" M 374.90 483.17 C 385.20 481.31 395.49 478.90 405.98 478.43 C 418.80 478.56 429.80 486.14 440.01 493.06 C 454.05 502.44 464.59 515.82 476.69 527.38 C 479.76 530.73 481.84 534.82 484.22 538.66 C 497.30 560.91 511.92 582.27 523.45 605.40 C 516.03 603.14 508.14 604.13 500.72 605.80 C 476.92 611.48 454.66 623.26 436.10 639.14 C 433.27 641.54 430.13 643.86 428.39 647.22 C 426.57 650.79 430.73 653.21 432.78 655.48 C 432.60 669.69 430.37 683.76 427.73 697.69 C 421.67 693.68 414.63 691.77 407.54 690.65 C 395.26 687.78 382.48 686.11 369.92 687.98 C 364.10 688.63 360.80 694.73 354.95 695.26 C 346.73 696.21 338.54 694.25 330.48 692.83 C 327.04 692.30 323.81 690.96 320.91 689.05 C 322.52 675.52 326.32 662.37 328.42 648.91 C 329.38 643.15 330.17 637.34 331.82 631.73 C 333.40 626.43 336.70 621.85 338.35 616.58 C 343.92 597.83 343.60 577.12 336.22 558.90 C 332.87 550.48 325.73 544.40 321.66 536.39 C 318.73 531.09 316.88 525.12 317.14 519.02 C 316.90 507.89 322.28 497.87 325.73 487.59 C 342.19 491.27 358.80 486.38 374.90 483.17 Z" />
		<path fill="var(--socks-color, grey)" opacity="1.00"
			d=" M 451.21 682.57 C 466.38 685.48 480.75 692.45 492.55 702.40 C 497.15 706.34 501.14 711.08 503.67 716.63 C 499.82 722.01 496.31 727.69 493.99 733.93 C 487.02 751.65 478.03 768.46 469.45 785.43 C 463.37 798.11 456.03 810.13 449.48 822.57 C 441.80 837.03 435.76 852.31 430.56 867.83 C 429.38 871.32 428.86 874.99 428.56 878.66 C 424.37 878.84 419.01 878.41 416.48 882.52 C 413.19 887.87 416.09 894.21 417.27 899.75 C 407.76 899.30 398.96 895.31 390.41 891.47 C 386.43 889.60 381.88 887.25 380.76 882.59 C 379.43 876.61 378.04 869.39 382.22 864.20 C 392.04 850.83 396.23 834.52 401.08 818.93 C 407.67 797.56 410.86 775.39 415.31 753.53 C 417.35 743.68 418.02 733.41 422.12 724.11 C 426.66 713.99 433.04 704.74 440.62 696.66 C 444.67 692.37 448.01 687.50 451.21 682.57 Z" />
		<path fill="var(--socks-color, grey)" opacity="1.00"
			d=" M 242.75 762.76 C 254.85 748.10 268.20 733.86 285.19 724.86 C 283.86 741.31 287.66 758.73 298.22 771.73 C 303.88 778.81 312.06 783.75 321.01 785.31 C 310.06 794.57 298.31 802.93 285.55 809.50 C 267.74 819.16 248.76 826.67 231.78 837.81 C 226.07 841.28 220.44 845.03 215.88 849.97 C 211.44 854.89 205.24 859.28 204.89 866.52 C 202.42 867.21 199.55 867.67 198.01 869.97 C 195.21 873.43 193.16 878.72 188.08 879.15 C 181.95 875.25 177.47 868.83 174.75 862.15 C 170.79 851.63 169.87 840.20 170.53 829.04 C 170.83 826.69 170.85 823.70 173.03 822.23 C 191.76 810.63 210.93 799.25 227.01 784.03 C 233.28 777.73 237.02 769.50 242.75 762.76 Z" />
	</g>
	<g id="#4d4d4dff">
		<path fill="#4d4d4d" opacity="1.00"
			d=" M 145.42 830.43 C 151.84 827.92 158.58 826.34 165.28 824.80 C 162.49 838.19 163.94 852.33 169.09 864.97 C 171.49 870.79 175.55 875.76 179.98 880.16 C 183.57 883.84 189.61 884.63 194.03 882.02 C 198.82 879.54 200.36 873.45 205.51 871.46 C 205.64 881.79 206.05 892.36 209.58 902.17 C 213.14 912.21 218.16 921.82 225.10 929.95 C 229.12 934.87 233.91 939.18 237.44 944.50 C 239.08 946.59 237.91 949.48 235.91 950.86 C 231.24 954.80 224.85 955.96 218.92 955.06 C 208.89 953.84 198.84 951.66 189.63 947.42 C 185.38 945.55 182.31 941.81 180.23 937.76 C 169.93 916.12 165.09 891.38 149.11 872.82 C 142.74 865.04 135.52 856.58 135.17 846.02 C 134.62 839.24 139.24 832.87 145.42 830.43 Z" />
		<path fill="#4d4d4d" opacity="1.00"
			d=" M 365.25 888.20 C 368.18 883.87 371.48 879.79 374.08 875.23 C 374.73 881.00 375.49 887.62 380.44 891.43 C 386.08 895.70 392.84 898.10 399.32 900.77 C 405.33 902.97 411.62 905.20 418.12 904.64 C 420.13 904.52 422.39 903.19 422.51 900.98 C 422.63 896.01 419.63 891.36 420.41 886.37 C 421.28 883.63 424.80 884.23 427.02 884.16 C 433.21 884.19 438.22 888.41 441.85 893.03 C 450.34 903.63 458.85 914.25 466.32 925.61 C 470.19 931.31 474.20 937.00 479.20 941.79 C 485.85 948.17 493.90 953.04 499.89 960.13 C 501.78 962.29 502.51 965.12 503.30 967.82 C 490.64 974.91 475.54 975.29 461.42 974.36 C 450.59 973.74 440.29 969.55 431.28 963.70 C 421.42 957.22 410.80 952.04 400.40 946.53 C 390.37 941.20 379.14 938.80 368.05 936.90 C 363.83 935.96 359.20 935.16 355.92 932.14 C 353.61 928.56 354.11 924.01 354.17 919.95 C 354.61 908.53 359.17 897.72 365.25 888.20 Z" />
	</g>
</svg>