<?xml version="1.0" encoding="UTF-8" ?>
<!DOCTYPE svg PUBLIC "-//W3C//DTD SVG 1.1//EN" "http://www.w3.org/Graphics/SVG/1.1/DTD/svg11.dtd">
<svg width="1000pt" height="1000pt" viewBox="0 0 1000 1000" version="1.1" xmlns="http://www.w3.org/2000/svg">
	<g id="#020202ff">
		<path fill="#020202" opacity="1.00"
			d=" M 529.15 36.22 C 542.19 27.52 558.69 24.27 574.07 27.27 C 588.34 29.86 601.83 37.87 609.95 50.03 C 617.17 60.82 618.83 74.38 617.91 87.07 C 617.53 91.80 617.55 96.66 616.05 101.21 C 614.94 100.74 613.90 100.14 612.94 99.42 C 612.47 104.63 610.96 109.67 610.28 114.85 C 609.20 124.11 606.51 133.07 603.95 142.00 C 600.11 154.06 595.76 166.69 586.30 175.58 C 591.65 178.12 596.75 181.34 602.60 182.64 C 618.30 186.50 633.10 195.14 642.80 208.26 C 649.89 217.55 655.48 227.87 660.47 238.40 C 667.81 251.85 676.48 264.52 684.17 277.77 C 688.36 285.70 692.53 294.01 693.40 303.08 C 693.87 306.09 692.28 308.77 691.14 311.43 C 693.92 315.47 696.81 319.45 699.47 323.58 C 705.06 332.87 707.53 343.56 709.93 354.01 C 714.47 372.37 711.97 391.66 717.03 409.94 C 718.95 417.77 722.77 425.00 727.42 431.55 C 736.80 444.90 743.08 460.66 744.22 477.02 C 744.52 482.37 744.44 488.03 741.89 492.89 C 737.92 500.53 732.35 507.44 725.37 512.53 C 724.43 514.80 724.17 517.62 722.23 519.30 C 718.95 520.84 716.36 517.28 715.18 514.69 C 712.68 510.33 713.82 505.19 715.30 500.70 C 712.98 502.87 710.89 505.60 707.79 506.68 C 705.44 507.42 703.59 505.06 703.23 503.00 C 701.98 496.57 704.57 490.19 707.86 484.79 C 709.85 481.06 712.45 476.64 710.67 472.34 C 708.61 467.94 705.89 463.89 703.23 459.84 C 702.41 463.66 701.53 467.68 702.82 471.51 C 704.18 476.06 705.79 481.12 703.83 485.75 C 702.91 487.97 700.15 488.76 698.04 487.83 C 692.53 485.89 689.78 480.15 688.42 474.86 C 687.21 468.97 682.76 464.25 682.34 458.15 C 681.30 445.81 685.59 433.68 691.86 423.23 C 687.79 416.18 682.83 409.71 677.67 403.45 C 670.94 395.29 664.93 386.55 659.78 377.32 C 655.18 368.98 649.87 360.79 647.84 351.34 C 647.07 347.08 644.96 343.28 642.46 339.82 C 637.60 339.98 632.35 340.41 627.92 338.01 C 626.99 336.11 626.51 334.04 625.94 332.02 C 622.83 319.67 617.74 307.85 611.16 296.96 C 600.29 318.88 597.78 343.70 588.31 366.15 C 587.66 371.78 589.88 377.34 589.61 383.02 C 589.66 395.72 583.79 407.36 580.48 419.37 C 577.16 433.61 581.77 447.90 583.57 461.99 C 584.29 466.36 581.71 470.24 578.47 472.87 C 585.46 488.69 591.39 505.92 589.28 523.47 C 586.26 542.15 580.64 560.32 573.99 578.01 C 569.53 591.36 563.99 604.32 559.91 617.79 C 556.24 627.27 553.17 636.95 549.70 646.50 C 548.58 649.20 547.74 652.42 545.02 653.96 C 542.52 655.43 539.93 657.10 538.96 660.00 C 531.58 677.81 525.05 696.20 514.44 712.43 C 510.47 718.50 506.42 724.65 500.99 729.54 C 499.03 755.57 498.90 781.96 492.61 807.44 C 488.78 823.72 482.02 839.28 479.96 855.96 C 478.41 866.20 477.21 876.54 477.48 886.92 C 477.74 891.49 478.19 896.29 480.73 900.26 C 484.52 906.47 485.12 913.87 487.56 920.60 C 489.32 925.37 494.28 927.51 498.63 929.32 C 504.41 931.80 510.42 936.35 511.26 943.01 C 511.00 949.51 506.49 954.72 502.36 959.34 C 498.56 963.75 493.39 966.62 488.26 969.21 C 473.28 977.17 455.32 978.87 438.85 975.34 C 433.97 974.72 430.73 970.39 429.49 965.94 C 426.10 949.85 426.86 933.34 426.86 917.02 C 427.05 913.02 427.21 908.82 429.18 905.24 C 430.53 902.70 433.34 901.60 435.77 900.40 C 437.34 878.39 432.97 856.65 430.58 834.88 C 428.04 816.68 427.04 798.31 427.22 779.95 C 412.46 789.23 394.82 791.38 378.85 797.76 C 371.47 800.61 364.15 803.98 357.97 809.00 C 351.74 814.22 348.76 822.03 345.16 829.07 C 341.88 835.97 336.93 841.96 334.13 849.10 C 330.97 856.74 330.32 865.05 328.52 873.05 C 327.04 880.25 324.30 887.21 320.40 893.45 C 317.21 898.68 309.97 901.25 304.33 898.58 C 299.85 896.37 295.86 893.00 293.35 888.64 C 286.57 877.76 284.66 864.61 285.24 851.99 C 285.07 838.27 289.96 825.27 292.46 811.95 C 293.99 804.26 293.03 796.36 291.33 788.79 C 288.14 773.11 299.03 756.81 313.98 752.09 C 325.72 747.92 338.06 753.21 350.04 751.07 C 361.90 749.06 371.99 741.69 380.60 733.66 C 392.31 722.87 403.99 711.54 418.37 704.34 C 425.42 700.65 433.40 699.62 441.11 698.08 C 441.83 690.69 442.07 683.10 440.03 675.89 C 436.78 661.60 430.28 648.37 425.72 634.50 C 416.47 634.96 407.12 631.78 400.00 625.89 C 396.70 623.21 398.17 618.46 398.38 614.84 C 399.23 605.78 401.67 596.96 402.39 587.89 C 402.90 583.10 401.57 578.40 400.01 573.92 C 395.97 562.00 394.34 549.43 393.44 536.92 C 392.27 518.27 385.15 500.78 380.15 482.97 C 376.43 469.67 374.38 455.78 375.27 441.96 C 375.50 437.49 376.40 433.09 377.75 428.83 C 376.67 426.35 375.79 423.57 376.92 420.93 C 380.07 412.21 384.38 403.94 387.28 395.12 C 389.03 390.36 390.31 385.34 392.96 380.97 C 394.67 378.14 397.67 376.55 400.40 374.88 C 400.70 370.63 400.69 365.93 403.57 362.47 C 404.73 360.59 406.98 359.19 407.40 357.02 C 405.02 338.81 401.65 320.29 404.83 301.96 C 401.31 306.35 395.85 309.09 393.50 314.40 C 390.09 322.12 386.12 329.59 381.83 336.86 C 380.46 338.83 378.86 341.80 375.99 341.11 C 372.11 340.33 368.65 338.26 364.96 336.90 C 359.83 342.48 354.64 348.02 349.62 353.71 C 348.01 355.35 347.83 357.72 347.41 359.86 C 344.90 374.34 338.31 387.65 334.63 401.81 C 330.15 416.46 327.51 431.59 323.23 446.30 C 319.72 457.62 318.97 469.51 317.75 481.22 C 316.81 489.84 316.57 498.51 315.58 507.12 C 314.90 512.95 314.72 518.94 312.43 524.44 C 309.94 530.63 308.69 537.35 305.14 543.09 C 301.90 548.36 298.43 553.74 293.46 557.56 C 291.69 558.98 289.32 558.45 287.24 558.44 C 285.04 561.28 282.72 564.58 278.97 565.36 C 276.71 565.91 274.47 564.60 273.05 562.94 C 270.63 560.26 270.86 556.19 268.45 553.50 C 265.49 549.74 262.40 546.01 260.40 541.62 C 257.46 535.12 253.95 528.41 254.51 521.05 C 255.02 512.15 260.84 504.86 266.22 498.22 C 271.24 492.48 278.95 487.50 278.98 479.02 C 278.90 467.32 279.78 455.65 280.06 443.96 C 280.43 433.25 282.06 422.63 283.89 412.09 C 286.17 397.39 288.81 382.73 292.20 368.25 C 295.52 354.98 298.48 341.32 305.34 329.33 C 308.00 324.34 314.59 323.19 316.87 317.92 C 319.68 311.93 322.14 305.62 326.73 300.71 C 327.03 296.09 327.91 291.39 330.40 287.41 C 333.56 281.69 339.32 277.71 341.50 271.41 C 343.45 265.89 345.76 260.26 350.20 256.24 C 354.23 251.90 359.72 249.15 363.46 244.56 C 368.79 234.36 373.92 223.99 380.42 214.45 C 385.78 206.92 391.81 199.37 400.27 195.19 C 407.35 191.15 415.54 190.22 423.31 188.29 C 431.44 186.16 439.87 183.97 446.61 178.68 C 453.90 173.05 461.07 166.82 470.03 164.01 C 477.14 161.91 484.54 160.08 492.01 160.70 C 498.37 153.24 504.02 144.76 506.06 135.03 C 506.59 131.15 504.47 127.58 502.73 124.28 C 498.49 117.00 495.82 108.47 496.94 99.99 C 498.56 84.23 502.74 68.50 510.73 54.74 C 515.06 47.03 521.87 41.06 529.15 36.22 M 560.99 78.97 C 559.89 82.03 559.32 85.26 558.09 88.28 C 556.11 82.25 550.29 79.19 546.11 74.88 C 547.48 78.92 548.49 83.38 546.32 87.34 C 544.08 85.14 541.77 83.00 539.59 80.75 C 541.96 86.09 542.20 92.04 541.61 97.77 C 546.88 96.45 552.43 95.37 557.83 96.64 C 563.39 97.91 568.76 99.90 574.13 101.79 C 575.89 102.60 578.24 103.00 579.03 105.03 C 580.22 107.70 579.90 110.79 579.33 113.57 C 578.98 115.51 577.07 117.08 575.10 116.23 C 564.23 113.63 553.11 112.33 542.04 111.04 C 539.44 110.75 535.82 110.73 534.48 113.44 C 531.61 119.10 530.96 125.58 528.31 131.33 C 527.66 133.01 525.99 133.85 524.61 134.81 C 524.97 131.80 525.61 128.84 526.26 125.88 C 527.52 119.81 526.77 113.58 526.42 107.45 C 525.39 103.11 522.98 97.63 518.01 96.94 C 514.41 97.04 513.42 101.10 512.99 103.96 C 511.42 112.66 515.59 121.15 514.49 129.84 C 514.04 133.63 511.74 136.75 510.17 140.12 C 505.83 151.85 498.71 163.21 487.95 169.98 C 486.22 171.19 485.01 172.93 483.73 174.57 C 487.66 179.47 492.41 183.63 496.38 188.50 C 502.82 196.14 506.04 205.90 512.46 213.56 C 522.28 225.25 534.86 234.45 543.54 247.14 C 546.22 238.70 548.84 230.23 551.99 221.96 C 554.05 216.41 557.63 211.56 559.74 206.06 C 559.50 203.01 558.54 200.06 558.50 197.00 C 558.41 192.98 559.73 189.12 561.12 185.40 C 554.55 184.53 548.19 182.08 542.85 178.13 C 538.34 174.85 533.29 171.77 530.38 166.86 C 529.55 165.18 531.23 163.57 532.76 164.96 C 539.80 170.07 546.68 175.88 555.09 178.62 C 561.12 180.86 567.77 179.59 573.63 177.44 C 581.95 173.65 588.13 166.18 591.93 158.00 C 596.80 147.52 599.86 136.33 603.09 125.26 C 599.65 124.16 596.18 123.14 592.72 122.11 C 592.02 127.07 592.57 132.60 589.93 137.01 C 587.36 133.99 587.59 129.74 587.81 126.03 C 588.16 119.46 590.04 112.57 594.71 107.74 C 598.72 105.75 603.47 106.59 607.82 106.51 C 608.66 102.17 609.68 97.86 610.79 93.58 C 607.98 88.43 604.55 83.66 600.89 79.08 C 599.81 85.40 599.41 91.82 598.35 98.14 C 591.33 91.23 585.29 83.41 579.96 75.13 C 578.06 79.89 577.42 85.00 576.11 89.93 C 571.92 84.90 568.81 79.10 566.68 72.92 C 564.50 74.61 561.92 76.20 560.99 78.97 M 466.93 170.81 C 456.85 175.77 449.60 185.20 438.92 189.07 C 430.87 191.89 422.49 193.63 414.17 195.42 C 405.51 197.26 397.42 201.91 391.67 208.67 C 380.74 221.20 373.27 236.21 365.90 250.98 C 362.85 256.95 359.62 262.84 356.81 268.94 C 354.76 273.10 353.20 277.72 349.53 280.79 C 349.77 277.69 350.59 274.68 351.83 271.83 C 354.37 265.82 356.82 259.77 359.30 253.74 C 356.37 256.69 353.23 259.50 350.94 263.00 C 347.46 268.24 346.98 274.94 343.11 279.97 C 339.80 284.34 335.47 288.11 333.50 293.37 C 329.74 303.69 334.78 315.39 342.97 322.06 C 348.73 326.98 356.39 328.28 363.43 330.36 C 368.08 331.61 372.52 333.51 376.83 335.66 C 380.85 328.03 385.19 320.56 388.74 312.69 C 390.46 308.68 393.54 305.53 396.77 302.69 C 399.90 299.96 401.95 296.31 403.59 292.56 C 405.47 288.07 409.48 285.11 413.16 282.18 C 419.78 277.16 425.36 270.86 430.07 264.05 C 433.04 259.94 434.30 254.98 436.16 250.34 C 438.57 254.44 437.02 259.25 435.18 263.24 C 429.94 273.83 421.63 282.59 412.22 289.62 C 426.26 288.16 440.31 291.10 453.58 295.51 C 455.18 295.99 456.25 297.33 457.52 298.33 C 441.16 297.44 424.97 291.11 408.46 294.40 C 408.92 303.61 408.00 312.85 408.99 322.05 C 410.17 333.58 411.54 345.10 413.39 356.55 C 426.94 356.48 439.96 360.63 452.99 363.83 C 468.73 367.63 484.52 373.00 500.93 372.12 C 506.35 371.99 511.63 370.58 517.03 370.29 C 518.74 369.93 520.15 370.99 521.39 372.04 C 514.94 374.92 507.89 376.26 500.98 377.51 C 484.37 379.08 468.33 373.22 452.42 369.37 C 439.40 366.14 426.60 361.77 413.21 360.29 C 411.44 362.19 409.51 363.95 407.93 366.02 C 406.24 368.19 406.35 371.08 405.93 373.67 C 420.08 374.32 433.63 378.71 447.13 382.64 C 456.93 385.54 466.77 388.49 475.96 393.05 C 493.35 402.24 512.40 408.78 532.08 410.52 C 533.95 410.70 535.73 411.34 537.54 411.86 C 535.86 412.87 534.20 414.25 532.10 414.08 C 515.42 414.24 498.98 409.91 483.81 403.17 C 478.60 400.79 473.61 397.92 468.32 395.70 C 459.31 391.73 449.76 389.27 440.39 386.35 C 429.22 383.09 418.05 379.44 406.39 378.44 C 403.00 380.53 398.32 381.54 396.74 385.64 C 393.76 392.54 391.76 399.83 388.71 406.70 C 386.15 413.29 382.54 419.53 381.22 426.55 C 384.81 426.68 388.40 426.46 391.97 426.09 C 398.70 425.34 405.44 426.60 411.97 428.13 C 431.97 433.31 450.33 443.37 470.39 448.36 C 478.53 450.40 486.74 452.27 495.08 453.30 C 503.77 454.49 512.56 454.77 521.27 455.81 C 531.07 457.23 540.53 460.23 550.13 462.53 C 555.55 463.73 560.49 466.32 565.70 468.16 C 569.29 469.42 573.12 468.81 576.82 468.53 C 577.53 466.06 578.22 463.48 577.65 460.91 C 574.98 446.00 570.89 430.35 575.63 415.42 C 578.52 407.01 581.68 398.67 583.81 390.02 C 585.21 384.19 584.87 378.15 584.51 372.22 C 576.84 381.05 567.22 388.48 555.98 392.10 C 550.90 393.68 546.11 396.13 540.95 397.42 C 540.59 397.05 539.86 396.31 539.50 395.94 C 542.57 391.91 547.76 390.50 552.01 388.07 C 562.52 383.35 572.97 377.36 580.03 368.01 C 585.46 360.28 587.45 350.88 590.08 341.97 C 594.26 328.04 597.12 313.61 603.37 300.39 C 608.61 289.11 615.26 277.88 625.54 270.48 C 629.10 268.09 632.78 265.39 637.19 264.94 C 637.24 265.46 637.35 266.51 637.40 267.03 C 634.75 269.26 631.51 270.62 628.79 272.75 C 622.17 277.63 617.51 284.58 613.64 291.71 C 616.94 295.13 619.72 299.03 621.77 303.33 C 626.59 313.33 630.51 324.01 631.05 335.20 C 634.06 335.19 637.09 335.26 640.07 334.75 C 655.72 331.60 669.47 322.76 681.56 312.68 C 684.80 309.63 689.26 306.06 688.10 301.03 C 686.60 293.16 682.86 285.92 679.00 278.98 C 670.13 264.15 659.94 250.03 652.69 234.29 C 648.34 225.62 643.39 217.19 637.29 209.64 C 628.59 198.91 615.98 192.02 602.85 188.29 C 595.76 186.32 588.62 183.46 583.31 178.20 C 578.25 182.19 572.11 184.49 565.70 185.01 C 564.19 189.46 562.77 194.15 563.58 198.89 C 563.89 202.29 565.57 205.83 564.20 209.18 C 562.10 214.26 559.01 218.87 556.93 223.97 C 552.92 233.92 550.18 244.39 545.92 254.23 C 543.64 254.98 541.90 253.02 540.61 251.44 C 532.18 239.33 519.92 230.68 510.25 219.66 C 504.78 213.81 500.94 206.72 497.24 199.69 C 493.70 192.93 488.20 187.55 483.04 182.04 C 481.05 179.73 478.62 177.20 478.72 173.93 C 479.62 169.93 483.09 167.28 485.87 164.55 C 479.48 166.40 472.82 167.60 466.93 170.81 M 322.58 316.62 C 321.28 319.74 320.11 323.15 317.43 325.40 C 314.62 327.88 310.80 329.43 309.12 333.00 C 299.81 351.04 296.16 371.22 292.21 390.94 C 289.04 407.80 286.01 424.74 284.71 441.87 C 284.28 454.60 283.36 467.31 283.30 480.05 C 283.10 488.76 276.12 494.79 270.44 500.47 C 266.49 504.97 262.78 509.83 260.41 515.36 C 258.36 520.11 259.13 525.41 260.27 530.28 C 263.20 525.65 264.43 518.52 270.46 516.99 C 268.67 523.64 264.78 529.58 263.39 536.37 C 263.89 538.79 265.34 540.89 266.38 543.11 C 267.97 539.27 269.77 535.51 272.05 532.04 C 273.23 530.27 274.46 528.06 276.89 528.01 C 277.07 529.72 276.67 531.40 275.92 532.94 C 273.70 537.71 271.79 542.61 269.49 547.34 C 269.95 547.99 270.86 549.29 271.32 549.94 C 273.78 543.09 278.82 537.76 283.93 532.76 C 284.28 533.32 285.00 534.43 285.35 534.98 C 282.25 542.22 276.23 548.13 274.71 556.04 C 274.05 558.16 275.61 560.64 277.94 560.55 C 282.16 558.54 283.66 553.74 286.16 550.13 C 292.01 541.38 297.96 532.68 304.58 524.49 C 306.29 522.31 308.62 520.40 309.32 517.61 C 311.77 497.77 312.00 477.69 315.22 457.94 C 316.21 451.50 318.40 445.34 320.01 439.05 C 323.52 425.92 326.42 412.63 330.43 399.63 C 334.23 385.23 341.34 371.78 343.39 356.91 C 343.65 354.73 344.43 352.61 345.87 350.93 C 350.37 345.53 355.17 340.37 360.06 335.32 C 355.60 333.64 351.08 332.11 346.72 330.18 C 336.88 325.66 329.85 316.20 327.36 305.77 C 325.72 309.36 323.99 312.92 322.58 316.62 M 647.01 338.71 C 648.87 341.53 650.66 344.47 651.39 347.82 C 652.66 353.34 654.55 358.73 657.27 363.72 C 661.68 371.83 666.09 379.97 671.37 387.56 C 678.89 399.19 689.29 408.88 695.43 421.41 C 696.81 424.26 694.77 427.09 693.58 429.59 C 689.24 437.32 687.02 446.16 686.79 454.99 C 686.43 461.81 691.74 466.99 692.64 473.54 C 693.41 478.13 695.92 482.39 700.23 484.47 C 700.90 480.39 699.84 476.42 698.56 472.59 C 696.72 466.94 698.29 460.65 701.86 456.02 C 700.79 451.79 699.31 447.52 699.81 443.10 C 702.22 444.72 702.91 447.58 703.87 450.14 C 706.53 457.89 712.21 464.13 715.23 471.73 C 717.11 478.05 713.18 483.98 710.24 489.27 C 707.81 493.17 707.11 497.79 707.06 502.32 C 709.45 500.29 711.89 498.31 714.19 496.18 C 717.06 493.50 718.60 489.78 720.07 486.22 C 722.72 478.81 721.80 470.69 724.07 463.19 C 725.35 465.22 725.98 467.52 725.79 469.94 C 725.49 478.02 725.42 486.28 723.03 494.08 C 721.75 498.55 718.55 502.30 717.96 507.00 C 717.32 509.70 718.75 512.22 719.60 514.70 C 721.93 507.62 727.02 501.71 728.31 494.26 C 731.13 484.08 732.06 473.55 733.77 463.17 L 735.17 464.86 C 735.53 464.13 735.89 463.41 736.25 462.68 C 734.09 456.97 732.32 451.07 729.37 445.69 C 725.68 438.28 719.99 432.09 716.41 424.63 C 709.40 410.19 708.39 393.77 707.91 377.99 C 707.56 366.85 705.42 355.86 702.61 345.10 C 699.82 334.25 695.45 323.62 688.24 314.92 C 676.39 325.57 662.61 334.76 647.01 338.71 M 381.85 430.77 C 380.08 445.05 381.28 459.62 384.61 473.60 C 389.94 493.98 398.34 513.78 399.85 535.00 C 400.66 548.27 402.23 561.63 406.72 574.21 C 409.86 582.50 408.80 591.56 406.95 600.01 C 405.26 607.42 404.19 614.96 403.32 622.52 C 409.80 625.68 416.73 627.93 423.93 628.61 C 422.87 623.13 421.72 617.58 421.91 611.97 C 422.06 609.43 422.58 606.42 425.09 605.15 C 430.39 602.13 436.28 600.33 441.94 598.08 C 457.24 592.19 473.76 589.69 490.11 590.39 C 494.56 590.82 500.26 592.17 501.60 597.12 C 505.05 607.55 507.90 618.20 509.91 629.02 C 513.41 629.35 516.94 629.71 520.31 630.81 C 529.65 633.69 536.94 640.57 543.61 647.41 C 547.09 638.47 549.69 629.23 553.19 620.31 C 555.78 613.69 557.58 606.79 560.22 600.20 C 563.48 591.93 566.62 583.62 569.36 575.17 C 575.34 558.54 580.65 541.58 583.76 524.15 C 586.16 506.78 579.77 489.81 573.05 474.11 C 564.48 474.50 557.23 469.38 549.14 467.55 C 541.72 465.72 534.36 463.67 526.88 462.08 C 519.67 460.50 512.28 460.33 504.96 459.65 C 484.51 458.07 464.27 453.42 445.29 445.64 C 431.69 440.39 418.25 434.29 403.85 431.53 C 396.59 429.94 389.18 431.19 381.85 430.77 M 735.75 468.68 C 735.70 479.96 733.69 491.13 730.80 502.00 C 733.55 497.94 736.35 493.81 738.00 489.16 C 740.16 481.17 737.80 472.94 736.88 464.95 C 736.33 466.13 735.61 467.32 735.75 468.68 M 288.95 555.52 C 297.11 549.51 302.70 540.26 305.52 530.61 C 299.13 538.30 293.27 546.48 288.95 555.52 M 474.52 596.84 C 457.67 598.36 441.80 604.67 426.55 611.61 C 427.79 619.95 429.56 628.23 432.58 636.13 C 438.96 653.19 447.19 670.21 447.63 688.77 C 455.00 687.31 462.54 686.58 470.06 686.92 C 479.47 687.32 489.10 688.54 497.62 692.84 C 502.58 674.71 506.69 655.95 505.31 637.04 C 504.40 623.29 499.35 610.34 496.70 596.93 C 489.38 595.52 481.87 596.05 474.52 596.84 M 510.69 634.62 C 511.94 648.68 510.13 662.81 507.34 676.59 C 506.04 683.49 503.25 690.04 502.46 697.05 C 501.40 705.88 501.60 714.80 501.29 723.68 C 514.71 703.08 524.04 680.23 533.75 657.74 C 535.03 654.46 537.50 651.90 540.38 649.96 C 531.82 642.75 522.35 635.33 510.69 634.62 M 447.68 694.14 C 446.98 703.63 443.85 712.66 441.66 721.85 C 439.58 729.38 438.53 737.13 437.43 744.85 C 435.49 759.15 433.72 773.54 433.90 788.00 C 434.36 797.00 434.33 806.03 435.14 815.01 C 436.29 829.06 438.33 843.02 439.92 857.03 C 441.68 870.26 443.12 883.64 442.09 897.00 C 441.61 902.71 442.09 908.69 445.14 913.70 C 447.18 912.19 449.12 910.38 449.82 907.86 C 451.93 901.83 454.69 894.93 461.06 892.37 C 465.81 890.49 470.50 893.19 474.49 895.54 C 471.31 882.56 473.17 869.05 474.96 856.01 C 477.30 836.45 485.47 818.24 488.98 798.92 C 492.95 780.21 493.27 761.03 494.87 742.04 C 496.05 727.92 495.88 713.75 496.73 699.62 C 481.52 692.32 464.11 692.10 447.68 694.14 M 421.29 710.26 C 405.81 718.82 393.88 732.15 380.52 743.47 C 370.85 751.61 358.97 758.29 346.01 758.34 C 342.93 758.60 339.50 757.88 336.77 759.69 C 324.54 766.80 317.08 780.89 317.14 794.94 C 317.29 800.17 316.86 806.25 320.47 810.51 C 323.76 814.33 328.91 810.94 333.03 810.81 C 337.77 809.69 341.25 813.70 344.01 816.88 C 347.14 811.29 351.00 805.96 356.39 802.34 C 369.62 793.08 385.51 788.92 400.85 784.59 C 410.15 781.69 419.86 779.01 427.65 772.87 C 428.58 759.86 430.04 746.89 432.04 734.00 C 433.41 724.25 436.64 714.91 439.07 705.40 C 432.78 705.17 426.70 707.16 421.29 710.26 M 317.87 757.98 C 308.31 760.41 300.19 768.35 298.12 778.07 C 296.40 785.12 299.51 792.00 299.92 799.00 C 301.43 814.03 294.68 828.09 292.76 842.75 C 291.80 851.04 290.57 859.50 292.13 867.80 C 293.32 874.17 295.74 880.32 299.27 885.75 C 301.18 888.54 303.59 891.41 307.01 892.27 C 310.28 892.75 314.53 892.54 316.25 889.21 C 323.66 877.40 322.44 862.72 326.94 849.88 C 330.04 840.27 336.65 832.40 340.90 823.34 C 339.17 821.00 337.86 817.98 335.04 816.79 C 330.64 816.87 326.40 818.91 321.99 818.31 C 316.79 816.90 313.15 811.96 312.24 806.80 C 310.95 799.61 311.33 792.15 312.89 785.04 C 315.37 773.72 322.91 763.94 332.45 757.56 C 327.60 757.32 322.63 756.73 317.87 757.98 M 461.41 899.37 C 456.55 903.62 456.57 910.82 452.54 915.63 C 450.06 918.50 445.43 920.22 442.04 917.92 C 437.76 914.90 436.78 909.44 435.49 904.73 C 433.96 907.62 432.64 910.70 432.70 914.05 C 432.42 931.49 432.41 949.00 434.82 966.32 C 443.13 966.18 450.04 961.08 456.75 956.79 C 466.34 950.63 474.99 942.42 486.21 939.29 C 491.76 937.53 497.64 938.26 503.25 939.21 C 497.36 934.57 488.99 933.87 484.16 927.81 C 479.78 922.50 479.58 915.30 477.77 908.95 C 476.80 904.64 473.01 901.83 469.55 899.51 C 467.19 897.90 463.66 897.19 461.41 899.37 M 467.83 956.77 C 460.59 962.18 452.81 966.84 444.63 970.66 C 456.05 971.27 467.90 971.09 478.65 966.70 C 483.43 964.68 488.09 962.32 492.43 959.46 C 497.66 956.01 501.35 950.82 504.80 945.70 C 500.37 944.38 495.70 943.48 491.09 944.36 C 482.20 945.89 474.89 951.55 467.83 956.77 Z" />
		<path fill="#020202" opacity="1.00"
			d=" M 581.84 145.44 C 584.44 143.05 586.77 140.23 589.99 138.62 C 590.34 138.88 591.04 139.40 591.39 139.65 C 590.99 142.82 590.47 146.10 588.93 148.94 C 585.32 150.33 581.09 152.00 577.26 150.72 C 576.75 148.99 576.62 147.20 576.39 145.43 C 578.20 145.47 580.02 145.48 581.84 145.44 Z" />
		<path fill="#020202" opacity="1.00"
			d=" M 552.09 160.87 C 554.60 159.65 557.46 160.30 560.13 160.49 C 566.47 161.26 572.80 162.17 579.08 163.34 C 581.08 163.71 583.91 164.51 583.43 167.16 C 577.12 171.77 568.98 169.71 561.85 168.84 C 559.03 168.61 556.58 167.15 554.86 164.95 C 553.56 163.79 551.18 163.10 552.09 160.87 Z" />
	</g>
	<g id="#f0b58bff">
		<path fill="#f0b58b" opacity="1.00"
			d=" M 560.99 78.97 C 561.92 76.20 564.50 74.61 566.68 72.92 C 568.81 79.10 571.92 84.90 576.11 89.93 C 577.42 85.00 578.06 79.89 579.96 75.13 C 585.29 83.41 591.33 91.23 598.35 98.14 C 599.41 91.82 599.81 85.40 600.89 79.08 C 604.55 83.66 607.98 88.43 610.79 93.58 C 609.68 97.86 608.66 102.17 607.82 106.51 C 603.47 106.59 598.72 105.75 594.71 107.74 C 590.04 112.57 588.16 119.46 587.81 126.03 C 587.59 129.74 587.36 133.99 589.93 137.01 C 592.57 132.60 592.02 127.07 592.72 122.11 C 596.18 123.14 599.65 124.16 603.09 125.26 C 599.86 136.33 596.80 147.52 591.93 158.00 C 588.13 166.18 581.95 173.65 573.63 177.44 C 567.77 179.59 561.12 180.86 555.09 178.62 C 546.68 175.88 539.80 170.07 532.76 164.96 C 531.23 163.57 529.55 165.18 530.38 166.86 C 533.29 171.77 538.34 174.85 542.85 178.13 C 548.19 182.08 554.55 184.53 561.12 185.40 C 559.73 189.12 558.41 192.98 558.50 197.00 C 558.54 200.06 559.50 203.01 559.74 206.06 C 557.63 211.56 554.05 216.41 551.99 221.96 C 548.84 230.23 546.22 238.70 543.54 247.14 C 534.86 234.45 522.28 225.25 512.46 213.56 C 506.04 205.90 502.82 196.14 496.38 188.50 C 492.41 183.63 487.66 179.47 483.73 174.57 C 485.01 172.93 486.22 171.19 487.95 169.98 C 498.71 163.21 505.83 151.85 510.17 140.12 C 511.74 136.75 514.04 133.63 514.49 129.84 C 515.59 121.15 511.42 112.66 512.99 103.96 C 513.42 101.10 514.41 97.04 518.01 96.94 C 522.98 97.63 525.39 103.11 526.42 107.45 C 526.77 113.58 527.52 119.81 526.26 125.88 C 525.61 128.84 524.97 131.80 524.61 134.81 C 525.99 133.85 527.66 133.01 528.31 131.33 C 530.96 125.58 531.61 119.10 534.48 113.44 C 535.82 110.73 539.44 110.75 542.04 111.04 C 553.11 112.33 564.23 113.63 575.10 116.23 C 577.07 117.08 578.98 115.51 579.33 113.57 C 579.90 110.79 580.22 107.70 579.03 105.03 C 578.24 103.00 575.89 102.60 574.13 101.79 C 568.76 99.90 563.39 97.91 557.83 96.64 C 552.43 95.37 546.88 96.45 541.61 97.77 C 542.20 92.04 541.96 86.09 539.59 80.75 C 541.77 83.00 544.08 85.14 546.32 87.34 C 548.49 83.38 547.48 78.92 546.11 74.88 C 550.29 79.19 556.11 82.25 558.09 88.28 C 559.32 85.26 559.89 82.03 560.99 78.97 M 581.84 145.44 C 580.02 145.48 578.20 145.47 576.39 145.43 C 576.62 147.20 576.75 148.99 577.26 150.72 C 581.09 152.00 585.32 150.33 588.93 148.94 C 590.47 146.10 590.99 142.82 591.39 139.65 C 591.04 139.40 590.34 138.88 589.99 138.62 C 586.77 140.23 584.44 143.05 581.84 145.44 M 552.09 160.87 C 551.18 163.10 553.56 163.79 554.86 164.95 C 556.58 167.15 559.03 168.61 561.85 168.84 C 568.98 169.71 577.12 171.77 583.43 167.16 C 583.91 164.51 581.08 163.71 579.08 163.34 C 572.80 162.17 566.47 161.26 560.13 160.49 C 557.46 160.30 554.60 159.65 552.09 160.87 Z" />
		<path fill="#f0b58b" opacity="1.00"
			d=" M 322.58 316.62 C 323.99 312.92 325.72 309.36 327.36 305.77 C 329.85 316.20 336.88 325.66 346.72 330.18 C 351.08 332.11 355.60 333.64 360.06 335.32 C 355.17 340.37 350.37 345.53 345.87 350.93 C 344.43 352.61 343.65 354.73 343.39 356.91 C 341.34 371.78 334.23 385.23 330.43 399.63 C 326.42 412.63 323.52 425.92 320.01 439.05 C 318.40 445.34 316.21 451.50 315.22 457.94 C 312.00 477.69 311.77 497.77 309.32 517.61 C 308.62 520.40 306.29 522.31 304.58 524.49 C 297.96 532.68 292.01 541.38 286.16 550.13 C 283.66 553.74 282.16 558.54 277.94 560.55 C 275.61 560.64 274.05 558.16 274.71 556.04 C 276.23 548.13 282.25 542.22 285.35 534.98 C 285.00 534.43 284.28 533.32 283.93 532.76 C 278.82 537.76 273.78 543.09 271.32 549.94 C 270.86 549.29 269.95 547.99 269.49 547.34 C 271.79 542.61 273.70 537.71 275.92 532.94 C 276.67 531.40 277.07 529.72 276.89 528.01 C 274.46 528.06 273.23 530.27 272.05 532.04 C 269.77 535.51 267.97 539.27 266.38 543.11 C 265.34 540.89 263.89 538.79 263.39 536.37 C 264.78 529.58 268.67 523.64 270.46 516.99 C 264.43 518.52 263.20 525.65 260.27 530.28 C 259.13 525.41 258.36 520.11 260.41 515.36 C 262.78 509.83 266.49 504.97 270.44 500.47 C 276.12 494.79 283.10 488.76 283.30 480.05 C 283.36 467.31 284.28 454.60 284.71 441.87 C 286.01 424.74 289.04 407.80 292.21 390.94 C 296.16 371.22 299.81 351.04 309.12 333.00 C 310.80 329.43 314.62 327.88 317.43 325.40 C 320.11 323.15 321.28 319.74 322.58 316.62 Z" />
		<path fill="#f0b58b" opacity="1.00"
			d=" M 647.01 338.71 C 662.61 334.76 676.39 325.57 688.24 314.92 C 695.45 323.62 699.82 334.25 702.61 345.10 C 705.42 355.86 707.56 366.85 707.91 377.99 C 708.39 393.77 709.40 410.19 716.41 424.63 C 719.99 432.09 725.68 438.28 729.37 445.69 C 732.32 451.07 734.09 456.97 736.25 462.68 C 735.89 463.41 735.53 464.13 735.17 464.86 L 733.77 463.17 C 732.06 473.55 731.13 484.08 728.31 494.26 C 727.02 501.71 721.93 507.62 719.60 514.70 C 718.75 512.22 717.32 509.70 717.96 507.00 C 718.55 502.30 721.75 498.55 723.03 494.08 C 725.42 486.28 725.49 478.02 725.79 469.94 C 725.98 467.52 725.35 465.22 724.07 463.19 C 721.80 470.69 722.72 478.81 720.07 486.22 C 718.60 489.78 717.06 493.50 714.19 496.18 C 711.89 498.31 709.45 500.29 707.06 502.32 C 707.11 497.79 707.81 493.17 710.24 489.27 C 713.18 483.98 717.11 478.05 715.23 471.73 C 712.21 464.13 706.53 457.89 703.87 450.14 C 702.91 447.58 702.22 444.72 699.81 443.10 C 699.31 447.52 700.79 451.79 701.86 456.02 C 698.29 460.65 696.72 466.94 698.56 472.59 C 699.84 476.42 700.90 480.39 700.23 484.47 C 695.92 482.39 693.41 478.13 692.64 473.54 C 691.74 466.99 686.43 461.81 686.79 454.99 C 687.02 446.16 689.24 437.32 693.58 429.59 C 694.77 427.09 696.81 424.26 695.43 421.41 C 689.29 408.88 678.89 399.19 671.37 387.56 C 666.09 379.97 661.68 371.83 657.27 363.72 C 654.55 358.73 652.66 353.34 651.39 347.82 C 650.66 344.47 648.87 341.53 647.01 338.71 Z" />
		<path fill="#f0b58b" opacity="1.00"
			d=" M 735.75 468.68 C 735.61 467.32 736.33 466.13 736.88 464.95 C 737.80 472.94 740.16 481.17 738.00 489.16 C 736.35 493.81 733.55 497.94 730.80 502.00 C 733.69 491.13 735.70 479.96 735.75 468.68 Z" />
		<path fill="#f0b58b" opacity="1.00"
			d=" M 474.52 596.84 C 481.87 596.05 489.38 595.52 496.70 596.93 C 499.35 610.34 504.40 623.29 505.31 637.04 C 506.69 655.95 502.58 674.71 497.62 692.84 C 489.10 688.54 479.47 687.32 470.06 686.92 C 462.54 686.58 455.00 687.31 447.63 688.77 C 447.19 670.21 438.96 653.19 432.58 636.13 C 429.56 628.23 427.79 619.95 426.55 611.61 C 441.80 604.67 457.67 598.36 474.52 596.84 Z" />
		<path fill="#f0b58b" opacity="1.00"
			d=" M 510.69 634.62 C 522.35 635.33 531.82 642.75 540.38 649.96 C 537.50 651.90 535.03 654.46 533.75 657.74 C 524.04 680.23 514.71 703.08 501.29 723.68 C 501.60 714.80 501.40 705.88 502.46 697.05 C 503.25 690.04 506.04 683.49 507.34 676.59 C 510.13 662.81 511.94 648.68 510.69 634.62 Z" />
	</g>
	<g id="#f11b27ff">
		<path fill="var(--shirt-color, grey)" opacity="1.00"
			d=" M 466.93 170.81 C 472.82 167.60 479.48 166.40 485.87 164.55 C 483.09 167.28 479.62 169.93 478.72 173.93 C 478.62 177.20 481.05 179.73 483.04 182.04 C 488.20 187.55 493.70 192.93 497.24 199.69 C 500.94 206.72 504.78 213.81 510.25 219.66 C 519.92 230.68 532.18 239.33 540.61 251.44 C 541.90 253.02 543.64 254.98 545.92 254.23 C 550.18 244.39 552.92 233.92 556.93 223.97 C 559.01 218.87 562.10 214.26 564.20 209.18 C 565.57 205.83 563.89 202.29 563.58 198.89 C 562.77 194.15 564.19 189.46 565.70 185.01 C 572.11 184.49 578.25 182.19 583.31 178.20 C 588.62 183.46 595.76 186.32 602.85 188.29 C 615.98 192.02 628.59 198.91 637.29 209.64 C 643.39 217.19 648.34 225.62 652.69 234.29 C 659.94 250.03 670.13 264.15 679.00 278.98 C 682.86 285.92 686.60 293.16 688.10 301.03 C 689.26 306.06 684.80 309.63 681.56 312.68 C 669.47 322.76 655.72 331.60 640.07 334.75 C 637.09 335.26 634.06 335.19 631.05 335.20 C 630.51 324.01 626.59 313.33 621.77 303.33 C 619.72 299.03 616.94 295.13 613.64 291.71 C 617.51 284.58 622.17 277.63 628.79 272.75 C 631.51 270.62 634.75 269.26 637.40 267.03 C 637.35 266.51 637.24 265.46 637.19 264.94 C 632.78 265.39 629.10 268.09 625.54 270.48 C 615.26 277.88 608.61 289.11 603.37 300.39 C 597.12 313.61 594.26 328.04 590.08 341.97 C 587.45 350.88 585.46 360.28 580.03 368.01 C 572.97 377.36 562.52 383.35 552.01 388.07 C 547.76 390.50 542.57 391.91 539.50 395.94 C 539.86 396.31 540.59 397.05 540.95 397.42 C 546.11 396.13 550.90 393.68 555.98 392.10 C 567.22 388.48 576.84 381.05 584.51 372.22 C 584.87 378.15 585.21 384.19 583.81 390.02 C 581.68 398.67 578.52 407.01 575.63 415.42 C 570.89 430.35 574.98 446.00 577.65 460.91 C 578.22 463.48 577.53 466.06 576.82 468.53 C 573.12 468.81 569.29 469.42 565.70 468.16 C 560.49 466.32 555.55 463.73 550.13 462.53 C 540.53 460.23 531.07 457.23 521.27 455.81 C 512.56 454.77 503.77 454.49 495.08 453.30 C 486.74 452.27 478.53 450.40 470.39 448.36 C 450.33 443.37 431.97 433.31 411.97 428.13 C 405.44 426.60 398.70 425.34 391.97 426.09 C 388.40 426.46 384.81 426.68 381.22 426.55 C 382.54 419.53 386.15 413.29 388.71 406.70 C 391.76 399.83 393.76 392.54 396.74 385.64 C 398.32 381.54 403.00 380.53 406.39 378.44 C 418.05 379.44 429.22 383.09 440.39 386.35 C 449.76 389.27 459.31 391.73 468.32 395.70 C 473.61 397.92 478.60 400.79 483.81 403.17 C 498.98 409.91 515.42 414.24 532.10 414.08 C 534.20 414.25 535.86 412.87 537.54 411.86 C 535.73 411.34 533.95 410.70 532.08 410.52 C 512.40 408.78 493.35 402.24 475.96 393.05 C 466.77 388.49 456.93 385.54 447.13 382.64 C 433.63 378.71 420.08 374.32 405.93 373.67 C 406.35 371.08 406.24 368.19 407.93 366.02 C 409.51 363.95 411.44 362.19 413.21 360.29 C 426.60 361.77 439.40 366.14 452.42 369.37 C 468.33 373.22 484.37 379.08 500.98 377.51 C 507.89 376.26 514.94 374.92 521.39 372.04 C 520.15 370.99 518.74 369.93 517.03 370.29 C 511.63 370.58 506.35 371.99 500.93 372.12 C 484.52 373.00 468.73 367.63 452.99 363.83 C 439.96 360.63 426.94 356.48 413.39 356.55 C 411.54 345.10 410.17 333.58 408.99 322.05 C 408.00 312.85 408.92 303.61 408.46 294.40 C 424.97 291.11 441.16 297.44 457.52 298.33 C 456.25 297.33 455.18 295.99 453.58 295.51 C 440.31 291.10 426.26 288.16 412.22 289.62 C 421.63 282.59 429.94 273.83 435.18 263.24 C 437.02 259.25 438.57 254.44 436.16 250.34 C 434.30 254.98 433.04 259.94 430.07 264.05 C 425.36 270.86 419.78 277.16 413.16 282.18 C 409.48 285.11 405.47 288.07 403.59 292.56 C 401.95 296.31 399.90 299.96 396.77 302.69 C 393.54 305.53 390.46 308.68 388.74 312.69 C 385.19 320.56 380.85 328.03 376.83 335.66 C 372.52 333.51 368.08 331.61 363.43 330.36 C 356.39 328.28 348.73 326.98 342.97 322.06 C 334.78 315.39 329.74 303.69 333.50 293.37 C 335.47 288.11 339.80 284.34 343.11 279.97 C 346.98 274.94 347.46 268.24 350.94 263.00 C 353.23 259.50 356.37 256.69 359.30 253.74 C 356.82 259.77 354.37 265.82 351.83 271.83 C 350.59 274.68 349.77 277.69 349.53 280.79 C 353.20 277.72 354.76 273.10 356.81 268.94 C 359.62 262.84 362.85 256.95 365.90 250.98 C 373.27 236.21 380.74 221.20 391.67 208.67 C 397.42 201.91 405.51 197.26 414.17 195.42 C 422.49 193.63 430.87 191.89 438.92 189.07 C 449.60 185.20 456.85 175.77 466.93 170.81 Z" />
	</g>
	<g id="#2b3dcdff">
		<path fill="var(--pants-color, grey)" opacity="1.00"
			d=" M 381.85 430.77 C 389.18 431.19 396.59 429.94 403.85 431.53 C 418.25 434.29 431.69 440.39 445.29 445.64 C 464.27 453.42 484.51 458.07 504.96 459.65 C 512.28 460.33 519.67 460.50 526.88 462.08 C 534.36 463.67 541.72 465.72 549.14 467.55 C 557.23 469.38 564.48 474.50 573.05 474.11 C 579.77 489.81 586.16 506.78 583.76 524.15 C 580.65 541.58 575.34 558.54 569.36 575.17 C 566.62 583.62 563.48 591.93 560.22 600.20 C 557.58 606.79 555.78 613.69 553.19 620.31 C 549.69 629.23 547.09 638.47 543.61 647.41 C 536.94 640.57 529.65 633.69 520.31 630.81 C 516.94 629.71 513.41 629.35 509.91 629.02 C 507.90 618.20 505.05 607.55 501.60 597.12 C 500.26 592.17 494.56 590.82 490.11 590.39 C 473.76 589.69 457.24 592.19 441.94 598.08 C 436.28 600.33 430.39 602.13 425.09 605.15 C 422.58 606.42 422.06 609.43 421.91 611.97 C 421.72 617.58 422.87 623.13 423.93 628.61 C 416.73 627.93 409.80 625.68 403.32 622.52 C 404.19 614.96 405.26 607.42 406.95 600.01 C 408.80 591.56 409.86 582.50 406.72 574.21 C 402.23 561.63 400.66 548.27 399.85 535.00 C 398.34 513.78 389.94 493.98 384.61 473.60 C 381.28 459.62 380.08 445.05 381.85 430.77 Z" />
		<path fill="var(--socks-color, grey)" opacity="1.00"
			d=" M 447.68 694.14 C 464.11 692.10 481.52 692.32 496.73 699.62 C 495.88 713.75 496.05 727.92 494.87 742.04 C 493.27 761.03 492.95 780.21 488.98 798.92 C 485.47 818.24 477.30 836.45 474.96 856.01 C 473.17 869.05 471.31 882.56 474.49 895.54 C 470.50 893.19 465.81 890.49 461.06 892.37 C 454.69 894.93 451.93 901.83 449.82 907.86 C 449.12 910.38 447.18 912.19 445.14 913.70 C 442.09 908.69 441.61 902.71 442.09 897.00 C 443.12 883.64 441.68 870.26 439.92 857.03 C 438.33 843.02 436.29 829.06 435.14 815.01 C 434.33 806.03 434.36 797.00 433.90 788.00 C 433.72 773.54 435.49 759.15 437.43 744.85 C 438.53 737.13 439.58 729.38 441.66 721.85 C 443.85 712.66 446.98 703.63 447.68 694.14 Z" />
		<path fill="var(--socks-color, grey)" opacity="1.00"
			d=" M 421.29 710.26 C 426.70 707.16 432.78 705.17 439.07 705.40 C 436.64 714.91 433.41 724.25 432.04 734.00 C 430.04 746.89 428.58 759.86 427.65 772.87 C 419.86 779.01 410.15 781.69 400.85 784.59 C 385.51 788.92 369.62 793.08 356.39 802.34 C 351.00 805.96 347.14 811.29 344.01 816.88 C 341.25 813.70 337.77 809.69 333.03 810.81 C 328.91 810.94 323.76 814.33 320.47 810.51 C 316.86 806.25 317.29 800.17 317.14 794.94 C 317.08 780.89 324.54 766.80 336.77 759.69 C 339.50 757.88 342.93 758.60 346.01 758.34 C 358.97 758.29 370.85 751.61 380.52 743.47 C 393.88 732.15 405.81 718.82 421.29 710.26 Z" />
	</g>
	<g id="#4d4d4dff">
		<path fill="#4d4d4d" opacity="1.00"
			d=" M 317.87 757.98 C 322.63 756.73 327.60 757.32 332.45 757.56 C 322.91 763.94 315.37 773.72 312.89 785.04 C 311.33 792.15 310.95 799.61 312.24 806.80 C 313.15 811.96 316.79 816.90 321.99 818.31 C 326.40 818.91 330.64 816.87 335.04 816.79 C 337.86 817.98 339.17 821.00 340.90 823.34 C 336.65 832.40 330.04 840.27 326.94 849.88 C 322.44 862.72 323.66 877.40 316.25 889.21 C 314.53 892.54 310.28 892.75 307.01 892.27 C 303.59 891.41 301.18 888.54 299.27 885.75 C 295.74 880.32 293.32 874.17 292.13 867.80 C 290.57 859.50 291.80 851.04 292.76 842.75 C 294.68 828.09 301.43 814.03 299.92 799.00 C 299.51 792.00 296.40 785.12 298.12 778.07 C 300.19 768.35 308.31 760.41 317.87 757.98 Z" />
		<path fill="#4d4d4d" opacity="1.00"
			d=" M 461.41 899.37 C 463.66 897.19 467.19 897.90 469.55 899.51 C 473.01 901.83 476.80 904.64 477.77 908.95 C 479.58 915.30 479.78 922.50 484.16 927.81 C 488.99 933.87 497.36 934.57 503.25 939.21 C 497.64 938.26 491.76 937.53 486.21 939.29 C 474.99 942.42 466.34 950.63 456.75 956.79 C 450.04 961.08 443.13 966.18 434.82 966.32 C 432.41 949.00 432.42 931.49 432.70 914.05 C 432.64 910.70 433.96 907.62 435.49 904.73 C 436.78 909.44 437.76 914.90 442.04 917.92 C 445.43 920.22 450.06 918.50 452.54 915.63 C 456.57 910.82 456.55 903.62 461.41 899.37 Z" />
		<path fill="#4d4d4d" opacity="1.00"
			d=" M 467.83 956.77 C 474.89 951.55 482.20 945.89 491.09 944.36 C 495.70 943.48 500.37 944.38 504.80 945.70 C 501.35 950.82 497.66 956.01 492.43 959.46 C 488.09 962.32 483.43 964.68 478.65 966.70 C 467.90 971.09 456.05 971.27 444.63 970.66 C 452.81 966.84 460.59 962.18 467.83 956.77 Z" />
	</g>
</svg>