<?xml version="1.0" encoding="UTF-8" ?>
<!DOCTYPE svg PUBLIC "-//W3C//DTD SVG 1.1//EN" "http://www.w3.org/Graphics/SVG/1.1/DTD/svg11.dtd">
<svg width="1000pt" height="1000pt" viewBox="0 0 1000 1000" version="1.1" xmlns="http://www.w3.org/2000/svg">
	<g id="#020202ff">
		<path fill="#020202" opacity="1.00"
			d=" M 312.64 21.80 C 321.73 18.98 331.70 19.78 340.41 23.50 C 358.55 29.97 372.38 45.73 378.40 63.80 C 386.27 86.68 383.87 112.11 374.57 134.19 C 380.72 134.66 386.74 136.16 392.89 136.68 C 403.97 137.19 415.06 137.51 426.12 138.38 C 431.06 138.55 435.64 136.31 440.36 135.14 C 458.20 130.18 477.30 133.07 494.35 139.61 C 502.11 142.58 508.87 147.53 515.58 152.32 C 523.32 157.82 530.48 164.07 537.58 170.37 C 543.63 175.66 549.51 181.21 554.59 187.45 C 557.26 190.65 558.47 194.76 558.68 198.87 C 561.04 201.91 562.85 205.31 564.26 208.89 C 565.53 212.48 569.48 213.60 572.24 215.77 C 582.37 223.22 590.06 233.30 598.39 242.59 C 608.36 253.25 615.54 266.48 619.24 280.59 C 620.92 285.88 621.47 291.46 623.39 296.68 C 624.89 296.81 626.41 296.88 627.92 297.17 C 630.83 297.84 632.80 300.79 635.90 300.87 C 638.82 301.39 642.65 300.55 644.76 303.16 C 647.29 307.11 647.77 312.31 651.52 315.48 C 655.68 319.18 661.20 322.75 661.43 328.94 C 661.40 337.09 657.28 344.52 653.21 351.34 C 650.85 355.38 648.41 360.02 643.72 361.68 C 641.57 362.72 639.27 361.56 637.12 361.20 C 635.04 361.36 632.95 361.36 630.88 361.15 C 625.55 363.88 619.64 360.37 617.18 355.45 C 614.98 354.04 612.97 352.36 611.19 350.46 C 609.89 350.23 608.59 350.01 607.31 349.79 C 614.71 364.61 620.42 381.05 619.02 397.85 C 643.03 400.49 667.10 402.95 690.81 407.66 C 711.77 412.16 731.74 420.14 751.40 428.50 C 768.14 435.49 783.91 444.62 800.83 451.18 C 811.39 454.94 822.13 458.16 832.93 461.14 C 852.60 465.88 872.96 464.99 892.97 466.84 C 908.21 467.54 923.70 468.62 938.23 473.62 C 949.77 477.37 961.52 481.32 971.39 488.59 C 980.50 494.66 987.07 504.16 990.25 514.58 C 992.83 523.50 992.56 534.12 986.35 541.54 C 983.08 545.70 977.89 547.54 972.94 548.78 C 961.58 551.51 949.64 551.08 938.27 548.67 C 921.42 544.86 905.83 537.02 889.09 532.82 C 876.33 529.12 862.74 529.39 850.20 524.80 C 843.14 522.57 836.54 519.24 829.99 515.90 C 811.48 511.34 793.25 505.05 774.11 503.63 C 754.07 502.70 734.09 500.20 714.00 500.69 C 685.77 499.83 657.87 494.99 630.06 490.45 C 627.32 494.29 623.74 497.55 619.42 499.51 C 615.95 501.32 611.99 501.61 608.27 502.57 C 605.66 503.04 604.95 505.94 603.81 507.92 C 601.78 512.59 598.64 516.64 595.78 520.83 C 591.66 526.51 593.16 534.08 590.21 540.26 C 584.29 553.23 572.42 561.79 561.96 570.88 C 555.93 575.87 550.81 581.82 546.16 588.08 C 541.39 594.16 538.50 601.51 536.75 608.98 C 534.98 618.50 532.81 628.04 528.99 636.97 C 526.36 643.19 521.57 648.05 517.52 653.32 C 507.07 669.59 488.76 679.30 479.77 696.67 C 475.09 706.53 471.80 717.16 470.73 728.04 C 470.32 740.00 469.18 751.95 469.58 763.93 C 469.69 768.54 471.17 772.94 472.66 777.26 C 477.33 790.41 474.88 804.67 472.27 817.99 C 469.27 831.52 466.59 845.15 462.64 858.45 C 460.61 865.20 459.07 872.08 457.69 878.99 C 454.52 896.52 457.09 914.37 455.42 932.02 C 460.79 935.91 463.74 942.05 466.09 948.07 C 468.54 954.75 469.86 962.32 467.31 969.18 C 464.97 977.36 457.76 983.31 449.82 985.75 C 438.88 989.05 427.30 988.97 416.00 988.41 C 398.07 987.61 380.85 994.14 362.99 994.50 C 345.00 994.99 326.91 992.52 309.71 987.23 C 306.45 985.90 302.18 984.74 300.94 981.04 C 299.87 975.71 302.80 970.22 307.14 967.21 C 314.44 961.74 324.05 961.92 332.20 958.39 C 340.88 955.06 348.09 949.09 355.48 943.63 C 367.64 934.70 379.35 925.17 390.86 915.43 C 393.10 895.84 391.15 876.15 389.16 856.64 C 387.83 846.17 386.55 835.68 384.84 825.27 C 382.59 802.14 385.84 779.00 387.56 755.97 C 387.95 751.56 386.43 747.32 384.51 743.45 C 380.83 735.93 376.33 728.49 375.45 719.99 C 373.48 702.35 377.94 684.93 380.42 667.58 C 381.86 657.39 384.26 647.36 385.44 637.14 C 380.89 631.14 376.83 624.78 371.92 619.05 C 368.17 614.39 362.99 609.56 363.55 603.02 C 364.44 594.85 369.88 588.13 375.40 582.41 C 380.53 577.13 384.19 570.62 389.47 565.47 C 394.00 560.62 400.55 557.96 404.28 552.31 C 409.61 544.41 412.92 535.39 416.30 526.55 C 421.83 509.23 423.80 491.06 426.66 473.18 C 413.36 468.54 402.78 458.78 392.99 449.01 C 384.19 440.14 376.24 430.45 367.31 421.72 C 361.67 416.17 354.85 412.10 348.58 407.36 C 340.62 401.79 331.72 397.75 323.58 392.47 C 305.18 378.74 292.02 359.65 277.84 341.91 C 276.92 340.28 274.92 341.13 273.58 341.67 C 266.03 346.22 260.75 353.50 253.98 359.00 C 249.79 362.51 244.05 362.42 238.93 363.12 C 231.73 363.63 224.03 363.84 217.42 360.52 C 213.58 358.64 210.37 355.76 207.19 352.95 C 202.86 358.34 197.48 362.72 192.63 367.61 C 187.75 372.42 183.33 377.67 178.86 382.86 C 171.78 391.15 167.02 401.03 161.24 410.20 C 152.08 425.49 139.84 438.90 125.65 449.67 C 115.45 457.48 104.77 464.65 94.87 472.86 C 87.05 478.44 80.99 486.12 76.49 494.54 C 71.44 502.86 67.88 512.16 61.33 519.49 C 57.37 524.34 51.99 527.67 47.37 531.84 C 53.60 538.22 59.66 544.82 65.02 551.95 C 67.88 555.59 68.63 560.27 68.49 564.78 C 70.46 567.60 72.88 570.46 73.13 574.04 C 73.00 576.19 72.11 578.20 71.43 580.22 C 63.43 574.69 54.00 571.92 45.33 567.68 C 37.66 563.93 28.76 561.83 22.81 555.31 C 17.93 550.10 16.01 542.93 14.95 536.06 C 14.00 528.22 13.14 519.87 16.44 512.43 C 20.02 502.81 27.82 495.82 34.05 487.94 C 42.04 479.36 47.01 468.63 52.29 458.30 C 57.15 448.80 60.28 438.55 64.88 428.93 C 70.46 416.50 78.30 405.28 86.38 394.38 C 94.08 384.18 102.84 374.85 111.23 365.23 C 122.00 352.49 132.17 339.22 141.23 325.20 C 146.48 318.13 150.75 310.04 158.05 304.80 C 155.77 304.02 153.35 303.50 151.30 302.19 C 151.98 300.09 153.09 298.18 154.38 296.41 C 163.40 284.51 173.85 273.77 183.13 262.09 C 194.94 244.69 205.70 226.46 219.39 210.41 C 229.05 199.27 241.88 191.65 254.72 184.74 C 266.20 178.71 276.64 170.49 284.69 160.29 C 273.19 144.30 267.87 124.53 267.44 105.00 C 267.02 85.14 271.51 64.91 281.76 47.77 C 288.90 36.17 299.31 25.79 312.64 21.80 M 349.68 59.92 C 349.52 67.61 351.07 76.45 346.17 83.06 C 342.96 78.34 341.35 72.68 337.76 68.20 C 335.75 65.61 333.02 63.76 330.49 61.75 C 331.81 68.86 334.43 76.31 332.04 83.50 C 329.03 79.19 327.28 74.12 324.02 69.96 C 321.56 66.70 318.12 64.41 314.84 62.06 C 317.68 69.55 316.02 77.72 312.14 84.50 C 308.50 75.30 300.53 69.22 293.32 62.94 C 291.06 74.19 288.08 85.27 285.90 96.54 C 294.93 96.23 303.97 96.16 312.99 95.90 C 314.45 96.21 317.14 95.26 317.50 97.35 C 318.16 100.75 318.32 104.23 318.44 107.68 C 316.35 108.23 314.22 108.57 312.08 108.73 C 301.64 109.51 291.19 110.07 280.74 110.62 C 278.43 113.39 275.88 115.92 273.34 118.47 C 275.49 132.41 280.45 145.92 288.15 157.75 C 293.50 164.37 298.56 171.38 305.11 176.89 C 313.49 183.69 325.58 185.57 335.61 181.55 C 345.60 177.71 353.14 169.42 358.48 160.39 C 362.05 154.59 364.55 147.92 364.26 141.03 C 364.11 135.80 365.18 130.52 364.55 125.33 C 360.62 120.53 356.71 115.64 354.45 109.78 C 345.17 110.08 335.91 109.10 326.66 108.67 C 327.63 104.98 329.27 101.49 331.38 98.32 C 332.36 96.67 333.99 95.38 335.96 95.26 C 343.64 94.33 351.41 94.37 359.11 93.63 C 365.76 93.42 369.02 86.66 374.01 83.24 C 371.77 79.44 369.76 75.46 366.80 72.17 C 362.22 66.64 355.64 63.63 349.68 59.92 M 445.38 138.61 C 438.52 139.92 432.19 143.92 425.04 143.49 C 415.36 142.99 405.67 142.68 396.00 142.21 C 388.13 142.05 380.69 139.23 373.01 137.89 C 368.44 147.51 370.99 158.62 373.78 168.39 C 375.26 174.28 379.12 179.68 378.64 185.95 C 377.43 196.45 372.86 206.10 368.80 215.72 C 365.71 222.43 361.96 229.41 355.28 233.14 C 347.00 238.68 336.00 240.08 326.77 236.13 C 316.08 231.27 305.84 224.77 298.48 215.47 C 293.37 209.17 288.31 201.53 289.32 193.04 C 290.58 185.76 293.59 178.66 293.15 171.16 C 292.05 168.20 289.54 166.09 287.57 163.72 C 282.45 171.14 275.49 177.01 268.30 182.34 C 259.12 188.72 248.73 193.13 239.56 199.53 C 221.09 211.58 210.15 231.33 198.06 249.12 C 193.47 256.13 189.46 263.56 184.01 269.98 C 175.09 280.23 165.91 290.28 156.49 300.09 C 165.48 302.31 172.32 308.90 178.39 315.51 C 186.17 324.41 194.49 332.82 202.31 341.69 C 207.12 346.86 211.71 352.48 217.89 356.09 C 224.26 359.83 231.96 359.39 239.07 359.07 C 243.02 358.62 247.56 358.67 250.63 355.75 C 255.35 351.35 259.40 346.25 264.47 342.22 C 254.84 342.91 245.53 338.88 235.89 340.32 C 228.52 340.81 222.10 344.81 215.05 346.48 C 214.87 346.14 214.49 345.46 214.31 345.12 C 224.31 336.56 238.46 333.37 251.30 335.91 C 258.24 337.32 265.37 337.35 272.43 337.47 C 260.19 331.48 247.03 327.66 234.25 323.03 C 240.00 319.67 246.32 323.47 252.05 324.93 C 261.92 328.58 273.07 330.58 280.98 338.01 C 291.15 349.90 299.83 363.02 310.60 374.41 C 316.08 380.63 321.75 386.94 329.20 390.86 C 338.74 396.19 348.46 401.28 357.22 407.87 C 368.86 414.89 377.70 425.36 386.85 435.20 C 398.92 448.36 411.72 461.44 427.93 469.45 C 434.35 459.14 443.96 451.41 454.08 444.96 C 457.47 443.30 456.91 439.08 457.17 435.95 C 457.29 425.94 459.89 416.09 464.06 407.04 C 468.18 398.03 476.28 391.79 483.99 385.98 C 501.95 373.75 518.26 359.29 536.41 347.34 C 543.24 342.87 550.43 338.57 558.44 336.67 C 565.85 335.36 573.92 334.98 580.83 338.48 C 580.70 332.95 581.17 327.43 581.44 321.92 C 570.47 318.91 559.50 315.16 547.98 315.18 C 527.16 314.99 507.72 323.63 489.16 332.13 C 473.68 339.14 459.31 348.42 443.43 354.54 C 439.99 355.78 436.56 357.85 432.77 357.31 C 432.92 354.89 435.37 354.10 437.17 353.12 C 444.61 349.64 452.21 346.48 459.42 342.51 C 474.51 334.23 489.78 326.20 505.78 319.79 C 518.56 314.51 532.14 310.56 546.06 310.40 C 555.66 310.17 564.97 312.96 574.00 315.93 C 568.74 312.18 563.80 307.93 558.10 304.85 C 551.01 301.00 543.45 298.12 536.01 295.04 C 517.89 287.64 498.43 283.85 478.93 282.87 C 474.70 282.58 470.05 283.42 466.32 280.90 C 478.30 278.53 490.64 279.59 502.63 281.23 C 521.41 283.79 539.30 290.53 556.40 298.48 C 566.08 302.86 573.72 310.37 581.73 317.13 C 582.23 315.68 582.75 314.25 583.28 312.82 C 571.68 304.59 560.42 295.76 550.42 285.63 C 542.15 277.26 533.80 267.98 531.54 256.03 C 521.88 248.82 511.72 241.80 499.84 238.88 C 495.57 246.02 492.82 253.88 489.42 261.43 C 484.06 259.32 480.27 254.93 476.59 250.70 C 463.02 248.55 448.66 249.97 436.39 256.42 C 431.97 258.61 428.20 261.84 423.99 264.36 C 423.30 258.34 429.64 255.57 433.81 252.78 C 445.14 245.54 459.05 243.36 472.20 245.65 C 467.17 241.14 461.34 237.63 455.25 234.75 C 450.29 232.39 444.73 231.90 439.62 230.00 C 441.27 229.10 442.94 227.88 444.93 228.04 C 453.81 227.88 462.02 232.08 469.36 236.66 C 477.09 241.53 482.18 249.27 488.37 255.78 C 492.44 241.18 500.33 227.73 510.78 216.78 C 521.79 204.81 536.23 195.80 552.22 192.41 C 545.19 183.91 536.97 176.51 528.64 169.30 C 518.96 160.85 508.78 152.80 497.53 146.52 C 481.54 138.73 462.99 135.01 445.38 138.61 M 342.60 183.55 C 334.76 188.23 325.01 189.85 316.24 187.03 C 308.49 184.94 301.93 179.96 296.56 174.14 C 296.13 179.98 295.04 185.73 293.57 191.39 C 292.11 196.48 294.43 201.61 297.17 205.81 C 303.43 215.10 312.01 222.83 321.95 228.02 C 326.41 230.31 330.91 232.90 335.99 233.41 C 343.91 234.16 351.82 230.87 357.66 225.65 C 362.70 219.88 365.42 212.56 368.30 205.57 C 371.11 198.98 373.68 192.15 374.40 184.97 C 374.18 180.55 371.82 176.63 370.57 172.46 C 368.21 166.04 367.61 159.18 367.21 152.41 C 362.50 164.96 354.30 176.65 342.60 183.55 M 501.78 235.66 C 512.86 236.87 522.77 242.66 530.75 250.22 C 530.61 245.09 529.02 239.64 530.90 234.68 C 531.45 234.60 532.56 234.45 533.12 234.38 C 534.99 240.75 534.55 247.58 536.11 254.05 C 537.20 260.56 539.94 266.78 544.18 271.86 C 555.96 286.38 570.75 297.99 585.08 309.84 C 586.91 308.32 588.85 306.94 590.96 305.82 C 594.59 303.94 596.73 299.98 600.75 298.72 C 603.31 297.31 606.18 298.38 608.64 299.47 C 612.18 301.27 616.12 299.53 619.71 298.75 C 616.96 292.42 616.56 285.41 614.04 279.01 C 609.44 265.33 601.47 252.85 591.67 242.31 C 583.62 233.07 575.98 223.12 565.63 216.30 C 562.40 214.42 561.05 210.77 559.49 207.58 C 557.85 203.88 555.37 200.64 552.90 197.46 C 531.34 202.16 513.32 217.25 501.78 235.66 M 610.84 304.24 C 608.03 304.17 605.89 301.77 603.18 301.55 C 600.41 302.93 598.44 305.34 596.34 307.52 C 593.91 310.10 590.17 311.16 588.20 314.22 C 586.36 316.74 586.17 319.98 585.97 322.99 C 585.69 329.25 584.80 335.46 584.41 341.72 C 585.62 342.69 586.76 343.95 588.38 344.22 C 595.48 345.56 602.76 345.23 609.92 346.04 C 607.45 339.66 604.21 333.51 599.72 328.31 C 597.64 325.59 594.80 323.18 593.99 319.72 C 594.37 319.53 595.13 319.17 595.51 318.98 C 604.10 325.45 610.71 334.55 614.24 344.72 C 615.00 346.51 615.52 348.55 616.97 349.96 C 618.42 350.65 620.03 350.92 621.59 351.31 C 624.56 337.64 616.21 325.25 613.73 312.26 C 617.01 314.08 618.38 317.74 620.06 320.88 C 624.35 329.83 627.59 339.78 626.65 349.81 C 626.45 352.75 623.98 354.55 621.72 355.99 C 623.42 356.84 625.13 357.66 626.88 358.43 C 632.82 351.72 632.06 342.22 631.56 333.92 C 630.95 325.20 629.23 316.30 630.70 307.61 C 633.13 306.84 632.82 309.94 633.37 311.33 C 635.08 323.50 636.96 335.78 636.07 348.10 C 635.77 351.74 634.10 355.03 633.07 358.49 C 636.21 355.16 637.79 350.76 639.32 346.54 C 641.96 338.17 643.51 329.50 645.51 320.97 C 648.50 319.24 649.44 323.83 649.01 325.95 C 647.17 337.15 644.49 348.36 639.12 358.45 C 644.80 358.67 647.70 353.30 650.01 348.99 C 653.50 343.12 656.75 336.81 657.40 329.91 C 657.46 324.44 652.02 321.72 648.58 318.42 C 644.62 315.05 643.50 309.82 641.53 305.26 C 637.85 304.77 633.58 306.08 630.47 303.51 C 628.54 302.39 626.67 299.79 624.20 301.00 C 619.85 302.45 615.52 304.38 610.84 304.24 M 143.89 329.02 C 135.13 342.91 125.00 355.88 114.50 368.49 C 104.61 379.99 94.18 391.11 85.71 403.74 C 79.74 412.39 73.93 421.23 69.86 430.96 C 65.38 440.96 62.20 451.51 57.23 461.29 C 52.38 470.84 48.01 480.83 40.96 489.03 C 36.65 494.01 32.51 499.13 28.07 504.00 C 22.51 510.25 18.61 518.45 19.13 526.98 C 19.38 535.43 19.13 545.12 25.22 551.79 C 29.13 556.95 35.42 559.24 41.19 561.64 C 50.78 566.08 60.66 569.96 69.78 575.36 C 68.06 569.90 63.81 565.77 58.85 563.16 C 50.02 558.36 42.46 551.64 35.34 544.62 C 32.57 541.59 30.41 538.08 28.09 534.71 C 40.13 544.29 51.30 555.23 65.26 562.08 C 64.29 559.17 63.16 556.26 61.20 553.87 C 55.90 547.24 50.27 540.90 44.51 534.68 C 42.34 536.49 40.38 540.44 37.03 539.22 C 33.93 536.02 34.15 531.06 34.38 526.93 C 35.14 517.01 42.34 509.51 47.71 501.71 C 49.76 498.46 52.35 495.55 55.62 493.47 C 52.59 502.66 45.94 509.96 41.35 518.34 C 38.59 523.24 37.96 529.04 38.79 534.55 C 42.75 530.24 47.21 526.44 51.78 522.79 C 58.11 517.97 62.70 511.25 66.19 504.18 C 72.20 493.00 77.71 481.01 87.58 472.62 C 97.32 464.61 107.38 457.00 117.71 449.76 C 132.00 439.57 144.74 427.04 154.35 412.30 C 161.11 402.06 166.56 390.94 174.23 381.31 C 183.54 370.16 193.33 359.26 204.91 350.40 C 196.39 341.14 187.89 331.87 178.98 322.98 C 173.52 317.00 168.02 310.90 161.24 306.37 C 154.21 312.88 149.43 321.30 143.89 329.02 M 536.41 352.36 C 519.49 363.95 503.97 377.41 487.12 389.09 C 479.53 394.68 471.68 400.81 467.63 409.59 C 464.77 415.90 462.52 422.58 461.79 429.50 C 461.21 433.97 461.61 438.52 460.81 442.97 C 460.10 447.35 455.50 449.05 452.31 451.35 C 446.89 455.18 441.31 458.96 436.76 463.84 C 429.72 472.88 430.32 484.89 428.39 495.62 C 426.12 508.10 424.45 520.85 419.65 532.69 C 416.18 541.19 412.95 549.99 407.26 557.32 C 403.44 562.26 397.44 564.74 393.19 569.23 C 388.31 574.09 384.97 580.23 380.26 585.25 C 375.68 590.21 370.92 595.48 369.05 602.13 C 367.63 606.84 371.39 610.68 374.13 613.98 C 378.81 619.26 382.64 625.20 386.28 631.23 C 387.16 623.59 385.56 615.78 387.35 608.25 C 387.76 606.13 389.84 605.08 391.86 605.24 C 402.09 605.15 411.79 609.02 421.89 610.12 C 443.44 613.54 465.41 613.77 486.85 618.07 C 496.90 620.16 507.21 624.05 514.25 631.84 C 517.65 635.45 518.79 640.43 519.56 645.17 C 528.25 634.03 530.25 619.64 532.99 606.20 C 536.01 593.32 544.21 582.52 553.23 573.17 C 563.89 562.53 577.50 554.46 585.14 541.09 C 588.22 536.04 588.07 529.94 589.50 524.38 C 591.23 518.18 596.41 513.84 599.01 508.07 C 600.48 505.24 601.37 501.95 603.78 499.74 C 606.44 497.79 609.89 497.71 613.00 496.99 C 618.17 496.16 622.46 492.96 626.53 489.87 C 619.55 488.41 612.58 486.74 605.91 484.19 C 594.98 478.96 582.51 480.96 571.04 482.91 C 557.55 484.95 542.83 484.36 530.83 477.22 C 521.48 471.71 515.20 462.58 509.10 453.89 C 499.91 440.37 494.93 423.33 498.26 407.07 C 500.78 393.78 509.27 381.76 521.09 375.13 C 536.95 366.05 556.82 365.87 573.69 372.20 C 586.99 377.34 599.80 385.21 608.04 397.12 C 610.40 397.27 612.76 397.42 615.13 397.56 C 615.32 380.64 609.44 364.35 601.77 349.50 C 597.05 349.10 592.29 348.94 587.64 348.03 C 583.98 347.28 581.97 343.71 578.70 342.20 C 574.23 339.59 568.87 339.89 563.91 340.18 C 553.60 340.81 544.73 346.78 536.41 352.36 M 515.96 385.91 C 506.56 394.82 501.97 408.15 502.97 420.98 C 504.04 437.07 512.28 452.11 523.92 463.06 C 529.05 467.70 533.61 473.56 540.48 475.68 C 549.98 478.80 560.26 479.18 570.09 477.52 C 579.00 476.00 588.04 474.97 597.09 475.27 C 600.43 475.36 603.03 477.69 605.94 479.03 C 615.52 483.58 626.05 485.42 636.40 487.30 C 630.54 475.47 629.05 461.88 630.38 448.86 C 632.00 433.38 637.58 418.07 647.60 406.02 C 633.07 404.34 618.54 402.57 603.94 401.70 C 597.09 401.45 590.28 400.60 583.50 399.66 C 580.18 399.05 576.34 398.36 574.46 395.21 C 583.45 394.97 592.35 396.61 601.33 396.90 C 597.91 393.23 594.30 389.74 590.37 386.62 C 581.12 379.25 569.58 375.24 557.99 373.54 C 543.12 371.49 526.91 375.25 515.96 385.91 M 640.03 487.83 C 642.76 488.33 645.49 488.87 648.24 489.30 C 670.74 492.38 693.25 496.07 716.00 496.36 C 735.37 495.80 754.63 498.31 773.96 499.01 C 793.68 500.30 812.49 506.71 831.62 511.15 C 841.81 513.43 854.31 512.96 861.85 504.79 C 871.10 494.46 866.90 476.45 855.00 470.07 C 849.56 468.22 843.75 467.94 838.15 466.76 C 825.92 464.22 813.86 460.88 802.02 456.92 C 791.76 453.48 782.39 447.99 772.61 443.46 C 765.00 439.98 757.49 436.33 749.78 433.08 C 729.25 424.68 708.79 415.46 686.84 411.42 C 675.40 409.47 663.92 407.75 652.38 406.49 C 633.09 428.20 628.59 461.34 640.03 487.83 M 862.34 469.54 C 870.95 477.64 874.75 491.26 869.06 502.05 C 864.46 511.78 853.16 515.44 843.28 516.88 C 848.92 518.94 854.53 521.13 860.39 522.54 C 869.61 524.97 879.26 525.09 888.46 527.65 C 911.15 532.99 932.31 544.89 955.98 545.78 C 963.89 545.95 972.56 545.98 979.41 541.41 C 985.60 537.24 987.54 529.16 986.83 522.10 C 985.32 507.96 976.55 494.70 963.94 488.04 C 955.44 483.52 946.14 480.81 937.02 477.88 C 922.53 473.06 907.13 472.14 891.98 471.63 C 882.11 470.75 872.20 470.55 862.34 469.54 M 391.05 607.69 C 390.95 618.38 392.74 629.26 390.12 639.78 C 386.54 656.54 384.33 673.55 381.65 690.47 C 380.34 700.83 379.00 711.39 380.73 721.79 C 382.82 732.86 391.20 741.55 393.11 752.67 C 402.93 744.71 415.76 741.94 428.02 740.46 C 440.57 739.21 453.70 739.45 465.52 744.32 C 466.09 736.20 465.51 727.97 467.18 719.96 C 469.03 710.69 471.74 701.51 476.07 693.09 C 482.44 681.59 492.43 672.78 501.89 663.88 C 506.05 659.70 510.53 655.70 513.77 650.73 C 515.62 645.31 514.54 638.78 510.50 634.59 C 505.05 628.69 497.41 625.41 489.80 623.33 C 467.63 617.97 444.63 618.26 422.22 614.43 C 411.68 612.93 401.51 609.64 391.05 607.69 M 404.12 751.17 C 400.06 753.08 395.58 755.06 392.96 758.86 C 391.82 763.78 391.92 768.92 391.28 773.93 C 389.83 790.91 387.17 807.98 388.94 825.05 C 390.45 837.40 392.85 849.64 394.08 862.03 C 395.65 879.13 397.18 896.43 394.88 913.54 C 397.91 913.59 401.32 913.16 403.86 915.20 C 408.29 918.74 411.71 923.40 416.33 926.75 C 420.97 930.09 426.13 933.36 432.03 933.54 C 438.91 934.15 445.01 929.82 451.89 930.26 C 452.26 911.61 450.12 892.71 454.04 874.31 C 455.26 867.95 456.75 861.64 458.62 855.44 C 461.71 844.82 464.02 833.99 466.44 823.20 C 468.79 811.97 471.18 800.55 470.35 789.02 C 470.00 783.35 467.74 778.09 466.02 772.75 C 463.52 765.01 464.57 756.77 464.92 748.80 C 459.62 746.66 454.04 745.23 448.35 744.72 C 433.39 743.38 418.02 745.42 404.12 751.17 M 388.76 923.73 C 381.17 930.93 372.62 936.97 364.36 943.35 C 353.40 951.32 342.92 960.75 329.60 964.53 C 322.63 966.68 314.71 967.01 308.87 971.83 C 306.24 973.81 305.52 977.16 304.60 980.12 C 308.81 982.37 313.29 984.10 317.97 985.11 C 332.69 988.65 347.88 990.34 363.01 989.83 C 377.33 989.38 391.12 985.05 405.27 983.28 C 415.86 981.85 426.53 983.84 437.14 982.73 C 443.40 982.12 450.36 981.66 455.27 977.24 C 458.75 973.98 461.92 969.87 462.39 964.98 C 463.41 956.02 459.69 947.33 455.21 939.79 C 453.71 937.75 451.97 934.74 449.03 935.12 C 444.27 935.73 439.89 938.12 435.04 938.26 C 423.38 939.01 413.11 931.61 405.39 923.61 C 402.99 921.45 400.70 918.03 397.05 918.51 C 393.62 918.84 391.23 921.63 388.76 923.73 Z" />
		<path fill="#020202" opacity="1.00"
			d=" M 320.01 131.88 C 324.33 126.67 322.27 118.94 325.98 113.51 C 327.07 119.62 326.59 125.86 327.07 132.03 C 327.05 136.64 327.79 141.37 326.72 145.90 C 326.31 145.99 325.49 146.16 325.08 146.25 C 321.44 143.63 317.99 140.74 314.60 137.81 C 316.00 135.48 318.05 133.71 320.01 131.88 Z" />
		<path fill="#020202" opacity="1.00"
			d=" M 256.29 258.84 C 259.36 260.60 259.31 264.49 260.70 267.37 C 266.14 280.00 276.29 289.63 285.22 299.80 C 292.48 308.18 301.06 315.39 307.70 324.32 C 310.71 328.43 314.55 332.26 315.70 337.39 C 312.92 338.22 311.78 334.47 310.07 332.93 C 301.37 320.73 289.57 311.34 279.91 299.99 C 271.70 290.68 262.71 281.58 257.93 269.91 C 256.45 266.42 256.04 262.59 256.29 258.84 Z" />
		<path fill="#020202" opacity="1.00"
			d=" M 516.58 342.58 C 526.05 338.63 535.73 334.28 546.04 333.41 C 546.56 333.81 547.59 334.60 548.11 335.00 C 544.65 337.39 540.39 338.01 536.55 339.53 C 520.57 345.65 504.97 353.03 490.98 362.97 C 476.68 373.20 461.53 382.23 445.54 389.54 C 439.17 392.15 432.65 394.48 425.97 396.16 C 417.11 398.43 407.95 396.51 399.17 394.79 C 389.91 392.90 381.80 387.81 373.63 383.32 C 366.25 378.93 358.57 373.83 354.39 366.10 C 358.17 367.55 361.34 370.11 364.49 372.58 C 370.44 377.28 377.34 380.50 384.03 383.98 C 389.40 386.76 395.01 389.25 401.01 390.32 C 408.14 391.58 415.48 393.07 422.72 391.70 C 438.92 388.11 453.55 379.97 467.78 371.72 C 484.00 361.95 498.99 349.95 516.58 342.58 Z" />
	</g>
	<g id="#f0b58bff">
		<path fill="#f0b58b" opacity="1.00"
			d=" M 349.68 59.92 C 355.64 63.63 362.22 66.64 366.80 72.17 C 369.76 75.46 371.77 79.44 374.01 83.24 C 369.02 86.66 365.76 93.42 359.11 93.63 C 351.41 94.37 343.64 94.33 335.96 95.26 C 333.99 95.38 332.36 96.67 331.38 98.32 C 329.27 101.49 327.63 104.98 326.66 108.67 C 335.91 109.10 345.17 110.08 354.45 109.78 C 356.71 115.64 360.62 120.53 364.55 125.33 C 365.18 130.52 364.11 135.80 364.26 141.03 C 364.55 147.92 362.05 154.59 358.48 160.39 C 353.14 169.42 345.60 177.71 335.61 181.55 C 325.58 185.57 313.49 183.69 305.11 176.89 C 298.56 171.38 293.50 164.37 288.15 157.75 C 280.45 145.92 275.49 132.41 273.34 118.47 C 275.88 115.92 278.43 113.39 280.74 110.62 C 291.19 110.07 301.64 109.51 312.08 108.73 C 314.22 108.57 316.35 108.23 318.44 107.68 C 318.32 104.23 318.16 100.75 317.50 97.35 C 317.14 95.26 314.45 96.21 312.99 95.90 C 303.97 96.16 294.93 96.23 285.90 96.54 C 288.08 85.27 291.06 74.19 293.32 62.94 C 300.53 69.22 308.50 75.30 312.14 84.50 C 316.02 77.72 317.68 69.55 314.84 62.06 C 318.12 64.41 321.56 66.70 324.02 69.96 C 327.28 74.12 329.03 79.19 332.04 83.50 C 334.43 76.31 331.81 68.86 330.49 61.75 C 333.02 63.76 335.75 65.61 337.76 68.20 C 341.35 72.68 342.96 78.34 346.17 83.06 C 351.07 76.45 349.52 67.61 349.68 59.92 M 320.01 131.88 C 318.05 133.71 316.00 135.48 314.60 137.81 C 317.99 140.74 321.44 143.63 325.08 146.25 C 325.49 146.16 326.31 145.99 326.72 145.90 C 327.79 141.37 327.05 136.64 327.07 132.03 C 326.59 125.86 327.07 119.62 325.98 113.51 C 322.27 118.94 324.33 126.67 320.01 131.88 Z" />
		<path fill="#f0b58b" opacity="1.00"
			d=" M 342.60 183.55 C 354.30 176.65 362.50 164.96 367.21 152.41 C 367.61 159.18 368.21 166.04 370.57 172.46 C 371.82 176.63 374.18 180.55 374.40 184.97 C 373.68 192.15 371.11 198.98 368.30 205.57 C 365.42 212.56 362.70 219.88 357.66 225.65 C 351.82 230.87 343.91 234.16 335.99 233.41 C 330.91 232.90 326.41 230.31 321.95 228.02 C 312.01 222.83 303.43 215.10 297.17 205.81 C 294.43 201.61 292.11 196.48 293.57 191.39 C 295.04 185.73 296.13 179.98 296.56 174.14 C 301.93 179.96 308.49 184.94 316.24 187.03 C 325.01 189.85 334.76 188.23 342.60 183.55 Z" />
		<path fill="#f0b58b" opacity="1.00"
			d=" M 501.78 235.66 C 513.32 217.25 531.34 202.16 552.90 197.46 C 555.37 200.64 557.85 203.88 559.49 207.58 C 561.05 210.77 562.40 214.42 565.63 216.30 C 575.98 223.12 583.62 233.07 591.67 242.31 C 601.47 252.85 609.44 265.33 614.04 279.01 C 616.56 285.41 616.96 292.42 619.71 298.75 C 616.12 299.53 612.18 301.27 608.64 299.47 C 606.18 298.38 603.31 297.31 600.75 298.72 C 596.73 299.98 594.59 303.94 590.96 305.82 C 588.85 306.94 586.91 308.32 585.08 309.84 C 570.75 297.99 555.96 286.38 544.18 271.86 C 539.94 266.78 537.20 260.56 536.11 254.05 C 534.55 247.58 534.99 240.75 533.12 234.38 C 532.56 234.45 531.45 234.60 530.90 234.68 C 529.02 239.64 530.61 245.09 530.75 250.22 C 522.77 242.66 512.86 236.87 501.78 235.66 Z" />
		<path fill="#f0b58b" opacity="1.00"
			d=" M 610.84 304.24 C 615.52 304.38 619.85 302.45 624.20 301.00 C 626.67 299.79 628.54 302.39 630.47 303.51 C 633.58 306.08 637.85 304.77 641.53 305.26 C 643.50 309.82 644.62 315.05 648.58 318.42 C 652.02 321.72 657.46 324.44 657.40 329.91 C 656.75 336.81 653.50 343.12 650.01 348.99 C 647.70 353.30 644.80 358.67 639.12 358.45 C 644.49 348.36 647.17 337.15 649.01 325.95 C 649.44 323.83 648.50 319.24 645.51 320.97 C 643.51 329.50 641.96 338.17 639.32 346.54 C 637.79 350.76 636.21 355.16 633.07 358.49 C 634.10 355.03 635.77 351.74 636.07 348.10 C 636.96 335.78 635.08 323.50 633.37 311.33 C 632.82 309.94 633.13 306.84 630.70 307.61 C 629.23 316.30 630.95 325.20 631.56 333.92 C 632.06 342.22 632.82 351.72 626.88 358.43 C 625.13 357.66 623.42 356.84 621.72 355.99 C 623.98 354.55 626.45 352.75 626.65 349.81 C 627.59 339.78 624.35 329.83 620.06 320.88 C 618.38 317.74 617.01 314.08 613.73 312.26 C 616.21 325.25 624.56 337.64 621.59 351.31 C 620.03 350.92 618.42 350.65 616.97 349.96 C 615.52 348.55 615.00 346.51 614.24 344.72 C 610.71 334.55 604.10 325.45 595.51 318.98 C 595.13 319.17 594.37 319.53 593.99 319.72 C 594.80 323.18 597.64 325.59 599.72 328.31 C 604.21 333.51 607.45 339.66 609.92 346.04 C 602.76 345.23 595.48 345.56 588.38 344.22 C 586.76 343.95 585.62 342.69 584.41 341.72 C 584.80 335.46 585.69 329.25 585.97 322.99 C 586.17 319.98 586.36 316.74 588.20 314.22 C 590.17 311.16 593.91 310.10 596.34 307.52 C 598.44 305.34 600.41 302.93 603.18 301.55 C 605.89 301.77 608.03 304.17 610.84 304.24 Z" />
		<path fill="#f0b58b" opacity="1.00"
			d=" M 143.89 329.02 C 149.43 321.30 154.21 312.88 161.24 306.37 C 168.02 310.90 173.52 317.00 178.98 322.98 C 187.89 331.87 196.39 341.14 204.91 350.40 C 193.33 359.26 183.54 370.16 174.23 381.31 C 166.56 390.94 161.11 402.06 154.35 412.30 C 144.74 427.04 132.00 439.57 117.71 449.76 C 107.38 457.00 97.32 464.61 87.58 472.62 C 77.71 481.01 72.20 493.00 66.19 504.18 C 62.70 511.25 58.11 517.97 51.78 522.79 C 47.21 526.44 42.75 530.24 38.79 534.55 C 37.96 529.04 38.59 523.24 41.35 518.34 C 45.94 509.96 52.59 502.66 55.62 493.47 C 52.35 495.55 49.76 498.46 47.71 501.71 C 42.34 509.51 35.14 517.01 34.38 526.93 C 34.15 531.06 33.93 536.02 37.03 539.22 C 40.38 540.44 42.34 536.49 44.51 534.68 C 50.27 540.90 55.90 547.24 61.20 553.87 C 63.16 556.26 64.29 559.17 65.26 562.08 C 51.30 555.23 40.13 544.29 28.09 534.71 C 30.41 538.08 32.57 541.59 35.34 544.62 C 42.46 551.64 50.02 558.36 58.85 563.16 C 63.81 565.77 68.06 569.90 69.78 575.36 C 60.66 569.96 50.78 566.08 41.19 561.64 C 35.42 559.24 29.13 556.95 25.22 551.79 C 19.13 545.12 19.38 535.43 19.13 526.98 C 18.61 518.45 22.51 510.25 28.07 504.00 C 32.51 499.13 36.65 494.01 40.96 489.03 C 48.01 480.83 52.38 470.84 57.23 461.29 C 62.20 451.51 65.38 440.96 69.86 430.96 C 73.93 421.23 79.74 412.39 85.71 403.74 C 94.18 391.11 104.61 379.99 114.50 368.49 C 125.00 355.88 135.13 342.91 143.89 329.02 Z" />
		<path fill="#f0b58b" opacity="1.00"
			d=" M 515.96 385.91 C 526.91 375.25 543.12 371.49 557.99 373.54 C 569.58 375.24 581.12 379.25 590.37 386.62 C 594.30 389.74 597.91 393.23 601.33 396.90 C 592.35 396.61 583.45 394.97 574.46 395.21 C 576.34 398.36 580.18 399.05 583.50 399.66 C 590.28 400.60 597.09 401.45 603.94 401.70 C 618.54 402.57 633.07 404.34 647.60 406.02 C 637.58 418.07 632.00 433.38 630.38 448.86 C 629.05 461.88 630.54 475.47 636.40 487.30 C 626.05 485.42 615.52 483.58 605.94 479.03 C 603.03 477.69 600.43 475.36 597.09 475.27 C 588.04 474.97 579.00 476.00 570.09 477.52 C 560.26 479.18 549.98 478.80 540.48 475.68 C 533.61 473.56 529.05 467.70 523.92 463.06 C 512.28 452.11 504.04 437.07 502.97 420.98 C 501.97 408.15 506.56 394.82 515.96 385.91 Z" />
		<path fill="#f0b58b" opacity="1.00"
			d=" M 391.05 607.69 C 401.51 609.64 411.68 612.93 422.22 614.43 C 444.63 618.26 467.63 617.97 489.80 623.33 C 497.41 625.41 505.05 628.69 510.50 634.59 C 514.54 638.78 515.62 645.31 513.77 650.73 C 510.53 655.70 506.05 659.70 501.89 663.88 C 492.43 672.78 482.44 681.59 476.07 693.09 C 471.74 701.51 469.03 710.69 467.18 719.96 C 465.51 727.97 466.09 736.20 465.52 744.32 C 453.70 739.45 440.57 739.21 428.02 740.46 C 415.76 741.94 402.93 744.71 393.11 752.67 C 391.20 741.55 382.82 732.86 380.73 721.79 C 379.00 711.39 380.34 700.83 381.65 690.47 C 384.33 673.55 386.54 656.54 390.12 639.78 C 392.74 629.26 390.95 618.38 391.05 607.69 Z" />
	</g>
	<g id="#f11b27ff">
		<path fill="var(--shirt-color, grey)" opacity="1.00"
			d=" M 445.38 138.61 C 462.99 135.01 481.54 138.73 497.53 146.52 C 508.78 152.80 518.96 160.85 528.64 169.30 C 536.97 176.51 545.19 183.91 552.22 192.41 C 536.23 195.80 521.79 204.81 510.78 216.78 C 500.33 227.73 492.44 241.18 488.37 255.78 C 482.18 249.27 477.09 241.53 469.36 236.66 C 462.02 232.08 453.81 227.88 444.93 228.04 C 442.94 227.88 441.27 229.10 439.62 230.00 C 444.73 231.90 450.29 232.39 455.25 234.75 C 461.34 237.63 467.17 241.14 472.20 245.65 C 459.05 243.36 445.14 245.54 433.81 252.78 C 429.64 255.57 423.30 258.34 423.99 264.36 C 428.20 261.84 431.97 258.61 436.39 256.42 C 448.66 249.97 463.02 248.55 476.59 250.70 C 480.27 254.93 484.06 259.32 489.42 261.43 C 492.82 253.88 495.57 246.02 499.84 238.88 C 511.72 241.80 521.88 248.82 531.54 256.03 C 533.80 267.98 542.15 277.26 550.42 285.63 C 560.42 295.76 571.68 304.59 583.28 312.82 C 582.75 314.25 582.23 315.68 581.73 317.13 C 573.72 310.37 566.08 302.86 556.40 298.48 C 539.30 290.53 521.41 283.79 502.63 281.23 C 490.64 279.59 478.30 278.53 466.32 280.90 C 470.05 283.42 474.70 282.58 478.93 282.87 C 498.43 283.85 517.89 287.64 536.01 295.04 C 543.45 298.12 551.01 301.00 558.10 304.85 C 563.80 307.93 568.74 312.18 574.00 315.93 C 564.97 312.96 555.66 310.17 546.06 310.40 C 532.14 310.56 518.56 314.51 505.78 319.79 C 489.78 326.20 474.51 334.23 459.42 342.51 C 452.21 346.48 444.61 349.64 437.17 353.12 C 435.37 354.10 432.92 354.89 432.77 357.31 C 436.56 357.85 439.99 355.78 443.43 354.54 C 459.31 348.42 473.68 339.14 489.16 332.13 C 507.72 323.63 527.16 314.99 547.98 315.18 C 559.50 315.16 570.47 318.91 581.44 321.92 C 581.17 327.43 580.70 332.95 580.83 338.48 C 573.92 334.98 565.85 335.36 558.44 336.67 C 550.43 338.57 543.24 342.87 536.41 347.34 C 518.26 359.29 501.95 373.75 483.99 385.98 C 476.28 391.79 468.18 398.03 464.06 407.04 C 459.89 416.09 457.29 425.94 457.17 435.95 C 456.91 439.08 457.47 443.30 454.08 444.96 C 443.96 451.41 434.35 459.14 427.93 469.45 C 411.72 461.44 398.92 448.36 386.85 435.20 C 377.70 425.36 368.86 414.89 357.22 407.87 C 348.46 401.28 338.74 396.19 329.20 390.86 C 321.75 386.94 316.08 380.63 310.60 374.41 C 299.83 363.02 291.15 349.90 280.98 338.01 C 273.07 330.58 261.92 328.58 252.05 324.93 C 246.32 323.47 240.00 319.67 234.25 323.03 C 247.03 327.66 260.19 331.48 272.43 337.47 C 265.37 337.35 258.24 337.32 251.30 335.91 C 238.46 333.37 224.31 336.56 214.31 345.12 C 214.49 345.46 214.87 346.14 215.05 346.48 C 222.10 344.81 228.52 340.81 235.89 340.32 C 245.53 338.88 254.84 342.91 264.47 342.22 C 259.40 346.25 255.35 351.35 250.63 355.75 C 247.56 358.67 243.02 358.62 239.07 359.07 C 231.96 359.39 224.26 359.83 217.89 356.09 C 211.71 352.48 207.12 346.86 202.31 341.69 C 194.49 332.82 186.17 324.41 178.39 315.51 C 172.32 308.90 165.48 302.31 156.49 300.09 C 165.91 290.28 175.09 280.23 184.01 269.98 C 189.46 263.56 193.47 256.13 198.06 249.12 C 210.15 231.33 221.09 211.58 239.56 199.53 C 248.73 193.13 259.12 188.72 268.30 182.34 C 275.49 177.01 282.45 171.14 287.57 163.72 C 289.54 166.09 292.05 168.20 293.15 171.16 C 293.59 178.66 290.58 185.76 289.32 193.04 C 288.31 201.53 293.37 209.17 298.48 215.47 C 305.84 224.77 316.08 231.27 326.77 236.13 C 336.00 240.08 347.00 238.68 355.28 233.14 C 361.96 229.41 365.71 222.43 368.80 215.72 C 372.86 206.10 377.43 196.45 378.64 185.95 C 379.12 179.68 375.26 174.28 373.78 168.39 C 370.99 158.62 368.44 147.51 373.01 137.89 C 380.69 139.23 388.13 142.05 396.00 142.21 C 405.67 142.68 415.36 142.99 425.04 143.49 C 432.19 143.92 438.52 139.92 445.38 138.61 M 256.29 258.84 C 256.04 262.59 256.45 266.42 257.93 269.91 C 262.71 281.58 271.70 290.68 279.91 299.99 C 289.57 311.34 301.37 320.73 310.07 332.93 C 311.78 334.47 312.92 338.22 315.70 337.39 C 314.55 332.26 310.71 328.43 307.70 324.32 C 301.06 315.39 292.48 308.18 285.22 299.80 C 276.29 289.63 266.14 280.00 260.70 267.37 C 259.31 264.49 259.36 260.60 256.29 258.84 M 516.58 342.58 C 498.99 349.95 484.00 361.95 467.78 371.72 C 453.55 379.97 438.92 388.11 422.72 391.70 C 415.48 393.07 408.14 391.58 401.01 390.32 C 395.01 389.25 389.40 386.76 384.03 383.98 C 377.34 380.50 370.44 377.28 364.49 372.58 C 361.34 370.11 358.17 367.55 354.39 366.10 C 358.57 373.83 366.25 378.93 373.63 383.32 C 381.80 387.81 389.91 392.90 399.17 394.79 C 407.95 396.51 417.11 398.43 425.97 396.16 C 432.65 394.48 439.17 392.15 445.54 389.54 C 461.53 382.23 476.68 373.20 490.98 362.97 C 504.97 353.03 520.57 345.65 536.55 339.53 C 540.39 338.01 544.65 337.39 548.11 335.00 C 547.59 334.60 546.56 333.81 546.04 333.41 C 535.73 334.28 526.05 338.63 516.58 342.58 Z" />
	</g>
	<g id="#2b3dcdff">
		<path fill="var(--pants-color, grey)" opacity="1.00"
			d=" M 536.41 352.36 C 544.73 346.78 553.60 340.81 563.91 340.18 C 568.87 339.89 574.23 339.59 578.70 342.20 C 581.97 343.71 583.98 347.28 587.64 348.03 C 592.29 348.94 597.05 349.10 601.77 349.50 C 609.44 364.35 615.32 380.64 615.13 397.56 C 612.76 397.42 610.40 397.27 608.04 397.12 C 599.80 385.21 586.99 377.34 573.69 372.20 C 556.82 365.87 536.95 366.05 521.09 375.13 C 509.27 381.76 500.78 393.78 498.26 407.07 C 494.93 423.33 499.91 440.37 509.10 453.89 C 515.20 462.58 521.48 471.71 530.83 477.22 C 542.83 484.36 557.55 484.95 571.04 482.91 C 582.51 480.96 594.98 478.96 605.91 484.19 C 612.58 486.74 619.55 488.41 626.53 489.87 C 622.46 492.96 618.17 496.16 613.00 496.99 C 609.89 497.71 606.44 497.79 603.78 499.74 C 601.37 501.95 600.48 505.24 599.01 508.07 C 596.41 513.84 591.23 518.18 589.50 524.38 C 588.07 529.94 588.22 536.04 585.14 541.09 C 577.50 554.46 563.89 562.53 553.23 573.17 C 544.21 582.52 536.01 593.32 532.99 606.20 C 530.25 619.64 528.25 634.03 519.56 645.17 C 518.79 640.43 517.65 635.45 514.25 631.84 C 507.21 624.05 496.90 620.16 486.85 618.07 C 465.41 613.77 443.44 613.54 421.89 610.12 C 411.79 609.02 402.09 605.15 391.86 605.24 C 389.84 605.08 387.76 606.13 387.35 608.25 C 385.56 615.78 387.16 623.59 386.28 631.23 C 382.64 625.20 378.81 619.26 374.13 613.98 C 371.39 610.68 367.63 606.84 369.05 602.13 C 370.92 595.48 375.68 590.21 380.26 585.25 C 384.97 580.23 388.31 574.09 393.19 569.23 C 397.44 564.74 403.44 562.26 407.26 557.32 C 412.95 549.99 416.18 541.19 419.65 532.69 C 424.45 520.85 426.12 508.10 428.39 495.62 C 430.32 484.89 429.72 472.88 436.76 463.84 C 441.31 458.96 446.89 455.18 452.31 451.35 C 455.50 449.05 460.10 447.35 460.81 442.97 C 461.61 438.52 461.21 433.97 461.79 429.50 C 462.52 422.58 464.77 415.90 467.63 409.59 C 471.68 400.81 479.53 394.68 487.12 389.09 C 503.97 377.41 519.49 363.95 536.41 352.36 Z" />
		<path fill="var(--socks-color, grey)" opacity="1.00"
			d=" M 640.03 487.83 C 628.59 461.34 633.09 428.20 652.38 406.49 C 663.92 407.75 675.40 409.47 686.84 411.42 C 708.79 415.46 729.25 424.68 749.78 433.08 C 757.49 436.33 765.00 439.98 772.61 443.46 C 782.39 447.99 791.76 453.48 802.02 456.92 C 813.86 460.88 825.92 464.22 838.15 466.76 C 843.75 467.94 849.56 468.22 855.00 470.07 C 866.90 476.45 871.10 494.46 861.85 504.79 C 854.31 512.96 841.81 513.43 831.62 511.15 C 812.49 506.71 793.68 500.30 773.96 499.01 C 754.63 498.31 735.37 495.80 716.00 496.36 C 693.25 496.07 670.74 492.38 648.24 489.30 C 645.49 488.87 642.76 488.33 640.03 487.83 Z" />
		<path fill="var(--socks-color, grey)" opacity="1.00"
			d=" M 404.12 751.17 C 418.02 745.42 433.39 743.38 448.35 744.72 C 454.04 745.23 459.62 746.66 464.92 748.80 C 464.57 756.77 463.52 765.01 466.02 772.75 C 467.74 778.09 470.00 783.35 470.35 789.02 C 471.18 800.55 468.79 811.97 466.44 823.20 C 464.02 833.99 461.71 844.82 458.62 855.44 C 456.75 861.64 455.26 867.95 454.04 874.31 C 450.12 892.71 452.26 911.61 451.89 930.26 C 445.01 929.82 438.91 934.15 432.03 933.54 C 426.13 933.36 420.97 930.09 416.33 926.75 C 411.71 923.40 408.29 918.74 403.86 915.20 C 401.32 913.16 397.91 913.59 394.88 913.54 C 397.18 896.43 395.65 879.13 394.08 862.03 C 392.85 849.64 390.45 837.40 388.94 825.05 C 387.17 807.98 389.83 790.91 391.28 773.93 C 391.92 768.92 391.82 763.78 392.96 758.86 C 395.58 755.06 400.06 753.08 404.12 751.17 Z" />
	</g>
	<g id="#4d4d4dff">
		<path fill="#4d4d4d" opacity="1.00"
			d=" M 862.34 469.54 C 872.20 470.55 882.11 470.75 891.98 471.63 C 907.13 472.14 922.53 473.06 937.02 477.88 C 946.14 480.81 955.44 483.52 963.94 488.04 C 976.55 494.70 985.32 507.96 986.83 522.10 C 987.54 529.16 985.60 537.24 979.41 541.41 C 972.56 545.98 963.89 545.95 955.98 545.78 C 932.31 544.89 911.15 532.99 888.46 527.65 C 879.26 525.09 869.61 524.97 860.39 522.54 C 854.53 521.13 848.92 518.94 843.28 516.88 C 853.16 515.44 864.46 511.78 869.06 502.05 C 874.75 491.26 870.95 477.64 862.34 469.54 Z" />
		<path fill="#4d4d4d" opacity="1.00"
			d=" M 388.76 923.73 C 391.23 921.63 393.62 918.84 397.05 918.51 C 400.70 918.03 402.99 921.45 405.39 923.61 C 413.11 931.61 423.38 939.01 435.04 938.26 C 439.89 938.12 444.27 935.73 449.03 935.12 C 451.97 934.74 453.71 937.75 455.21 939.79 C 459.69 947.33 463.41 956.02 462.39 964.98 C 461.92 969.87 458.75 973.98 455.27 977.24 C 450.36 981.66 443.40 982.12 437.14 982.73 C 426.53 983.84 415.86 981.85 405.27 983.28 C 391.12 985.05 377.33 989.38 363.01 989.83 C 347.88 990.34 332.69 988.65 317.97 985.11 C 313.29 984.10 308.81 982.37 304.60 980.12 C 305.52 977.16 306.24 973.81 308.87 971.83 C 314.71 967.01 322.63 966.68 329.60 964.53 C 342.92 960.75 353.40 951.32 364.36 943.35 C 372.62 936.97 381.17 930.93 388.76 923.73 Z" />
	</g>
</svg>