<?xml version="1.0" encoding="UTF-8" ?>
<!DOCTYPE svg PUBLIC "-//W3C//DTD SVG 1.1//EN" "http://www.w3.org/Graphics/SVG/1.1/DTD/svg11.dtd">
<svg width="1000pt" height="1000pt" viewBox="0 0 1000 1000" version="1.1" xmlns="http://www.w3.org/2000/svg">
	<g id="#020202ff">
		<path fill="#020202" opacity="1.00"
			d=" M 658.17 16.18 C 673.16 11.21 690.04 11.03 704.69 17.25 C 717.64 22.56 728.54 32.60 735.04 44.97 C 743.54 60.88 745.25 80.10 740.48 97.42 C 739.35 102.35 738.01 107.30 735.49 111.73 C 733.60 109.56 732.16 107.07 730.90 104.51 C 727.65 113.21 722.95 121.30 720.09 130.17 C 716.28 141.80 711.86 153.39 704.94 163.57 C 713.90 167.21 721.25 173.63 729.39 178.70 C 737.80 184.04 746.56 189.17 753.34 196.60 C 755.62 198.98 756.54 202.21 757.91 205.12 C 758.90 207.33 760.95 208.75 762.59 210.46 C 765.12 212.86 766.39 216.20 767.63 219.38 C 771.60 229.88 773.33 241.02 775.12 252.05 C 776.80 262.94 777.26 273.99 777.50 285.00 C 777.61 296.40 777.91 307.88 776.16 319.19 C 775.23 327.16 772.74 334.89 772.40 342.93 C 772.04 349.59 772.06 356.45 774.20 362.84 C 774.65 364.57 775.67 366.68 774.18 368.21 C 770.74 372.20 765.60 374.05 761.05 376.44 C 762.25 387.56 761.99 398.77 761.63 409.92 C 761.37 419.84 759.06 429.73 754.63 438.63 C 747.51 452.83 738.27 465.89 727.79 477.81 C 717.01 490.64 704.31 501.64 692.53 513.52 C 685.10 520.77 677.80 528.16 670.47 535.52 C 665.99 540.33 661.48 545.12 656.47 549.40 C 651.44 553.92 645.43 557.23 640.65 562.05 C 638.38 572.70 634.04 582.76 629.80 592.75 C 625.03 604.24 618.55 615.00 610.71 624.65 C 598.07 640.36 582.60 653.96 572.86 671.85 C 559.41 695.70 546.97 720.86 527.05 740.14 C 525.20 741.77 523.13 743.68 520.51 743.70 C 517.52 741.95 515.42 739.11 513.08 736.64 C 501.77 749.18 488.64 759.87 476.09 771.13 C 468.71 777.86 462.18 785.59 457.49 794.45 C 451.01 806.39 442.22 817.05 431.73 825.69 C 425.72 830.54 420.05 835.91 413.35 839.84 C 414.20 852.12 418.19 863.86 420.08 875.96 C 423.03 889.36 424.19 903.06 427.29 916.43 C 429.86 929.12 433.43 942.34 430.06 955.24 C 428.32 962.77 422.04 968.60 414.90 971.11 C 405.24 974.79 393.56 975.15 384.59 969.48 C 373.82 962.76 365.71 952.05 361.98 939.94 C 354.72 916.89 352.95 892.17 356.40 868.27 C 339.89 875.47 322.95 881.71 306.92 889.97 C 288.41 899.02 269.58 908.31 253.96 921.95 C 237.26 936.47 231.48 958.94 217.34 975.45 C 211.81 982.18 205.41 990.07 196.02 990.63 C 188.51 991.28 183.66 984.65 179.61 979.39 C 173.94 970.82 168.61 961.40 167.74 950.97 C 167.60 943.63 168.86 936.00 172.74 929.66 C 176.37 923.39 181.41 917.94 184.10 911.14 C 188.09 902.24 190.14 892.66 193.50 883.55 C 196.36 875.56 203.90 869.95 212.08 868.34 C 219.99 866.86 228.16 867.16 235.98 865.19 C 250.48 860.76 264.25 854.12 276.97 845.89 C 283.93 841.35 289.73 835.33 295.61 829.52 C 306.85 818.43 317.51 806.78 328.61 795.54 C 338.78 784.73 349.32 773.63 362.83 767.00 C 360.17 745.34 353.68 723.91 355.43 701.91 C 356.89 685.65 361.15 669.66 367.72 654.73 C 371.53 646.39 376.62 638.47 383.51 632.33 C 387.22 628.04 389.86 622.94 393.19 618.36 C 386.54 615.41 380.10 611.11 376.52 604.59 C 370.06 592.72 368.94 578.31 372.49 565.36 C 376.47 551.82 385.59 540.54 390.15 527.25 C 392.86 517.56 396.87 508.16 397.89 498.07 C 398.57 491.55 399.41 484.98 401.77 478.83 C 403.77 473.10 407.72 468.24 409.25 462.32 C 411.16 455.42 414.43 449.03 417.78 442.75 C 419.84 438.81 421.58 434.59 421.76 430.10 C 422.11 422.68 422.99 415.24 425.25 408.14 C 427.99 398.79 435.07 391.21 443.39 386.42 C 446.20 384.60 449.45 383.25 451.68 380.67 C 454.00 376.51 455.09 371.73 457.84 367.79 C 461.91 360.99 468.23 356.09 474.12 350.98 C 474.49 344.31 474.37 337.61 474.90 330.95 C 475.60 322.35 480.25 314.73 481.26 306.20 C 483.14 292.61 485.53 278.34 481.20 264.97 C 479.96 260.49 477.85 256.33 475.97 252.11 C 472.46 253.00 468.82 253.72 465.65 255.56 C 460.92 258.28 456.39 261.54 451.06 262.99 C 447.56 264.03 443.76 262.98 440.34 264.40 C 436.13 266.02 431.62 266.78 427.48 268.57 C 423.81 272.00 421.58 276.68 419.19 281.04 C 414.38 291.12 408.97 300.89 403.57 310.67 C 399.53 317.96 395.99 325.54 391.50 332.58 C 383.45 345.48 373.30 356.87 364.76 369.42 C 369.65 371.38 375.27 373.11 378.22 377.85 C 381.56 382.69 382.10 388.85 385.32 393.73 C 390.67 399.77 399.76 400.77 404.86 407.14 C 406.86 409.56 407.47 413.61 404.94 415.90 C 401.54 419.15 396.48 418.68 392.16 418.57 C 389.33 423.95 384.45 428.20 378.48 429.65 C 370.52 431.70 361.66 432.42 353.93 429.15 C 346.25 425.77 341.96 418.15 337.44 411.53 C 333.16 404.99 329.14 398.27 325.48 391.37 C 322.44 385.74 321.64 379.30 321.06 373.04 C 320.51 365.73 322.40 358.53 324.73 351.67 C 327.08 344.70 329.65 337.76 333.21 331.29 C 341.71 315.71 349.40 299.69 356.32 283.35 C 365.84 260.92 375.37 237.99 391.04 219.03 C 395.13 214.07 399.50 209.30 404.62 205.37 C 406.36 196.37 411.45 188.20 417.95 181.84 C 424.87 175.19 434.97 173.60 442.00 167.11 C 448.37 161.37 454.24 154.63 462.33 151.25 C 467.40 149.33 472.94 149.08 478.02 147.12 C 485.88 144.54 491.06 137.32 498.86 134.59 C 515.80 128.58 533.60 135.15 550.95 134.04 C 554.13 133.86 557.45 133.85 560.39 132.46 C 568.25 128.81 576.38 125.47 584.98 124.06 C 588.38 123.42 591.89 123.85 595.30 123.25 C 598.69 121.44 601.72 118.10 601.90 114.08 C 602.75 105.70 600.48 97.36 601.39 88.98 C 604.04 56.52 627.15 26.43 658.17 16.18 M 666.54 62.42 C 665.28 67.45 663.84 72.43 661.90 77.24 C 660.34 74.36 658.95 71.40 657.42 68.51 C 657.64 75.20 656.73 81.89 654.70 88.27 C 659.20 88.38 663.82 87.74 668.25 88.83 C 672.39 90.35 676.04 92.94 679.84 95.16 C 684.27 98.00 689.00 100.53 692.77 104.26 C 695.58 107.11 693.84 111.43 692.79 114.70 C 691.76 116.89 690.34 120.66 687.29 119.79 C 683.38 118.70 679.91 116.49 676.31 114.69 C 666.58 109.26 656.34 104.85 646.28 100.11 C 640.03 107.22 635.82 115.76 630.33 123.40 C 628.83 125.78 624.92 127.92 623.06 124.73 C 621.13 120.15 624.82 115.75 626.83 111.85 C 630.97 104.96 636.05 98.43 638.36 90.62 C 639.80 86.01 638.19 80.68 634.49 77.61 C 631.67 75.50 628.09 78.06 626.31 80.37 C 621.89 86.64 622.43 94.74 619.71 101.68 C 616.30 110.27 610.00 117.24 604.76 124.72 C 600.68 130.88 594.30 134.94 590.08 140.97 C 587.79 144.34 583.37 146.52 583.00 150.94 C 580.67 168.25 581.80 185.94 585.27 203.02 C 586.59 209.80 589.38 216.34 594.06 221.49 C 600.60 220.93 606.58 218.03 612.66 215.80 C 619.96 212.82 627.39 210.17 634.85 207.64 C 637.12 206.75 639.61 206.13 641.53 204.56 C 643.53 200.61 644.46 196.01 647.64 192.72 C 649.69 190.69 651.70 188.56 652.99 185.94 C 644.52 182.45 636.12 177.99 629.99 171.03 C 626.13 166.70 624.53 160.68 625.42 154.98 C 625.66 153.79 626.33 151.29 628.11 152.42 C 629.42 157.36 629.76 162.83 633.15 166.96 C 637.74 172.58 644.16 176.35 650.58 179.52 C 663.39 186.07 680.10 183.22 690.41 173.32 C 701.35 163.55 707.58 149.89 713.23 136.64 C 709.70 135.43 706.40 133.65 703.39 131.46 C 700.95 136.93 699.67 143.30 694.66 147.16 C 694.09 145.48 693.45 143.73 694.04 141.97 C 696.20 132.13 698.29 121.20 706.35 114.33 C 711.23 111.90 716.83 113.93 721.69 115.42 C 724.14 110.52 726.57 105.60 729.22 100.80 C 726.76 95.87 724.89 90.66 723.83 85.24 C 721.32 92.76 719.66 100.54 716.91 107.98 C 711.53 103.35 709.37 96.38 706.88 89.99 C 704.76 84.45 703.96 78.52 703.70 72.62 C 702.18 76.09 700.58 79.54 699.42 83.16 C 698.04 87.22 697.35 91.54 695.15 95.28 C 691.24 86.84 688.88 77.57 689.21 68.22 C 686.34 69.00 683.25 69.83 681.27 72.21 C 678.74 75.26 677.23 79.00 674.63 82.01 C 672.78 75.16 670.62 68.32 666.54 62.42 M 543.12 149.10 C 530.77 158.29 518.21 167.74 503.44 172.68 C 500.26 173.70 494.94 176.28 493.58 171.62 C 514.16 164.21 530.93 149.83 549.28 138.45 C 542.88 138.62 536.44 138.75 530.07 137.98 C 521.00 136.91 511.60 136.27 502.72 138.80 C 495.08 141.05 489.99 147.79 482.73 150.81 C 477.02 153.46 470.69 154.10 464.73 155.90 C 454.40 160.14 448.43 170.39 438.95 175.92 C 434.07 178.80 428.58 180.58 423.98 183.95 C 418.80 187.56 415.45 193.12 412.62 198.63 C 409.87 203.87 410.01 210.06 411.27 215.70 C 413.17 223.83 417.09 231.35 421.75 238.22 C 426.54 245.00 431.24 252.04 437.80 257.26 C 440.32 259.40 443.94 259.30 447.06 259.12 C 453.34 258.11 458.28 253.73 463.70 250.74 C 466.93 248.87 470.65 248.21 474.27 247.49 C 473.93 242.61 473.18 237.46 474.85 232.75 C 477.10 228.51 481.22 225.66 485.29 223.33 C 494.04 218.50 503.89 216.29 513.43 213.62 C 519.67 212.18 526.00 210.02 532.48 210.97 C 531.12 212.20 529.72 213.52 527.88 213.95 C 512.92 218.13 497.49 221.92 484.11 230.11 C 480.44 232.37 476.31 236.08 477.43 240.88 C 479.09 249.00 484.35 255.81 486.42 263.82 C 489.02 271.24 489.79 279.15 489.25 286.97 C 489.23 290.30 488.19 293.97 490.08 297.00 C 493.42 303.05 498.76 307.66 504.27 311.69 C 510.38 316.20 517.04 319.94 523.98 323.03 C 526.42 324.08 528.78 325.36 530.73 327.21 C 526.44 328.05 522.38 326.20 518.56 324.52 C 506.90 319.37 494.61 313.41 487.70 302.13 C 487.16 311.89 482.34 320.62 480.80 330.17 C 480.07 337.12 480.71 344.13 480.04 351.08 C 479.76 354.69 476.49 356.84 474.05 359.06 C 468.37 363.74 463.19 369.38 460.56 376.37 C 459.05 380.03 458.20 384.31 454.92 386.88 C 449.84 390.90 443.51 393.21 438.97 397.95 C 434.68 402.03 431.75 407.38 430.43 413.13 C 427.94 421.46 429.84 430.53 426.39 438.63 C 430.01 438.36 433.72 438.46 437.20 439.64 C 448.76 443.34 458.71 450.53 468.67 457.25 C 486.12 469.30 502.51 482.78 519.57 495.37 C 530.02 503.40 541.56 509.84 553.35 515.65 C 561.18 519.46 568.56 524.18 575.20 529.83 C 579.15 533.25 583.41 536.41 586.69 540.55 C 592.07 539.69 597.66 539.76 602.86 537.96 C 606.67 536.74 608.94 533.22 611.32 530.26 C 622.76 514.98 633.44 499.16 644.99 483.96 C 655.34 469.39 667.13 455.92 679.19 442.75 C 678.08 429.14 676.93 414.30 684.01 401.98 C 688.28 394.42 692.75 386.96 696.98 379.38 C 695.20 377.90 692.32 376.87 692.40 374.13 C 691.94 369.69 691.85 365.23 691.30 360.80 C 678.48 368.22 665.13 375.23 650.54 378.40 C 629.39 383.04 607.60 384.11 586.01 383.11 C 579.54 382.57 572.72 383.57 566.58 381.01 C 568.86 379.83 571.38 379.20 573.96 379.25 C 584.79 379.12 595.65 379.16 606.44 378.12 C 623.85 376.52 641.48 375.24 658.33 370.27 C 669.60 366.83 680.14 361.47 690.92 356.80 C 690.15 349.17 691.54 341.50 690.38 333.90 C 689.49 327.19 689.19 320.14 685.91 314.04 C 683.25 309.12 680.26 304.38 677.41 299.57 C 672.83 291.97 665.50 286.70 659.46 280.40 C 657.89 278.20 661.70 278.48 662.85 279.20 C 667.94 281.79 672.34 285.55 676.50 289.44 C 682.08 294.43 685.52 301.20 689.56 307.40 C 692.87 312.45 694.58 318.33 695.22 324.30 C 697.54 317.45 699.29 310.39 699.76 303.15 C 700.40 293.09 700.96 282.94 699.74 272.89 C 699.05 266.90 697.60 260.98 697.60 254.93 C 697.23 253.19 698.73 252.27 699.88 251.33 C 702.60 261.35 704.82 271.60 705.49 281.99 C 705.70 291.62 705.84 301.33 704.43 310.90 C 703.28 319.44 699.11 327.34 698.80 336.04 C 698.39 349.12 698.73 362.25 697.40 375.30 C 706.37 376.51 715.31 374.80 724.04 372.89 C 731.18 371.11 737.90 375.64 745.04 374.79 C 753.95 374.06 762.09 370.03 769.90 365.97 C 765.48 353.48 767.04 339.81 769.79 327.13 C 773.47 308.98 772.74 290.37 771.96 271.98 C 771.46 260.13 769.43 248.42 767.19 236.79 C 765.73 230.29 764.11 223.75 761.39 217.64 C 759.99 214.22 756.49 212.51 754.32 209.69 C 752.14 206.68 751.65 202.73 749.16 199.91 C 744.74 194.88 739.21 191.00 733.68 187.30 C 723.26 180.58 713.64 172.72 703.21 166.01 C 698.95 171.76 694.04 177.11 688.14 181.21 C 679.16 187.32 667.67 189.34 657.07 187.19 C 656.33 190.89 653.84 193.69 651.26 196.26 C 647.42 200.20 648.22 207.27 642.97 209.99 C 637.23 212.97 630.92 214.62 624.92 216.96 C 616.93 219.90 609.16 223.51 600.91 225.64 C 596.28 227.11 591.49 224.85 587.79 222.18 C 583.22 217.72 581.37 211.29 579.85 205.28 C 575.84 186.53 574.79 166.96 578.32 148.06 C 578.96 144.11 582.39 141.69 584.89 138.90 C 588.40 135.28 591.10 130.96 593.11 126.35 C 574.66 128.99 558.10 138.48 543.12 149.10 M 385.14 236.05 C 369.01 261.07 361.20 290.18 347.49 316.43 C 339.94 330.58 333.00 345.19 328.78 360.71 C 326.01 370.33 325.78 381.23 330.80 390.17 C 336.09 399.62 341.60 409.00 348.26 417.55 C 351.72 422.21 357.05 425.51 362.90 425.93 C 371.72 426.48 381.86 425.01 387.69 417.62 C 382.37 415.43 377.28 412.65 371.78 410.90 C 371.60 413.17 372.35 415.66 371.16 417.76 C 366.53 415.82 365.41 407.20 370.98 405.89 C 376.63 405.75 381.32 409.54 386.31 411.68 C 391.32 414.00 397.80 415.74 402.68 412.21 C 397.92 403.90 386.78 403.26 381.01 395.96 C 377.17 390.99 376.69 384.24 372.72 379.35 C 369.89 376.32 365.77 375.08 362.08 373.47 C 360.02 376.58 358.53 380.10 356.07 382.95 C 355.61 382.88 354.70 382.75 354.24 382.69 C 353.64 378.20 355.97 373.90 357.85 369.96 C 366.48 355.27 378.35 342.83 387.27 328.33 C 393.21 318.70 398.03 308.42 403.69 298.62 C 409.06 289.31 413.42 279.36 419.85 270.70 C 416.39 272.25 413.27 274.44 409.97 276.31 C 409.64 272.07 413.49 269.57 416.64 267.64 C 422.66 264.26 429.58 263.02 436.25 261.52 C 430.46 257.85 425.32 253.18 421.40 247.54 C 413.03 237.13 406.25 224.92 404.59 211.50 C 397.36 219.05 390.74 227.21 385.14 236.05 M 702.35 380.11 C 704.01 393.65 704.84 407.27 706.71 420.79 C 707.01 424.21 707.89 427.96 706.20 431.17 C 705.39 431.98 704.51 432.06 703.58 431.41 C 702.26 429.03 702.32 426.22 701.93 423.61 C 695.70 435.95 684.09 444.03 675.40 454.43 C 669.36 461.68 662.70 468.39 657.09 475.99 C 646.22 490.54 635.45 505.16 624.94 519.96 C 620.04 526.39 615.76 533.33 610.10 539.15 C 606.27 543.22 600.32 543.58 595.16 544.58 C 584.42 546.48 572.99 546.70 563.27 552.17 C 558.63 554.59 553.24 554.22 548.37 555.88 C 556.01 557.22 563.54 554.32 571.11 553.60 C 572.72 553.46 574.16 554.38 575.66 554.84 C 573.61 557.43 570.55 558.98 568.63 561.68 C 562.42 569.66 554.38 576.05 548.60 584.38 C 558.35 579.72 565.95 571.78 575.04 566.11 C 576.46 565.17 580.13 563.90 579.26 566.95 C 576.23 571.31 571.77 574.40 567.74 577.78 C 562.43 581.75 557.96 586.67 553.21 591.27 C 549.02 595.47 544.38 599.65 542.43 605.44 C 557.38 601.69 567.44 588.86 580.41 581.40 C 583.25 579.94 586.64 578.35 589.77 579.95 C 577.43 591.59 562.74 600.69 551.68 613.65 C 563.14 609.92 573.26 603.22 583.94 597.82 C 588.64 595.51 592.95 592.36 597.99 590.78 C 597.39 594.17 594.03 595.67 591.54 597.53 C 583.56 603.20 574.72 607.54 566.74 613.21 C 574.03 611.66 581.02 608.94 587.73 605.71 C 598.92 600.43 609.88 592.86 615.60 581.55 C 620.94 572.61 628.56 565.24 636.58 558.69 C 644.06 552.10 652.60 546.77 659.53 539.53 C 674.37 524.02 689.61 508.90 704.97 493.89 C 717.46 481.98 728.79 468.82 738.54 454.57 C 746.07 442.99 753.60 430.77 755.40 416.80 C 756.94 403.84 757.26 390.76 757.68 377.73 C 751.28 379.53 744.50 381.32 737.84 379.85 C 733.25 378.91 728.62 377.03 723.88 378.23 C 716.79 379.66 709.59 380.65 702.35 380.11 M 698.64 384.50 C 695.50 392.15 691.03 399.14 687.67 406.67 C 683.36 416.45 684.40 427.39 684.54 437.79 C 689.72 432.20 695.48 426.92 698.99 420.05 C 699.92 418.20 701.04 416.23 700.64 414.08 C 699.56 404.26 698.89 394.38 698.64 384.50 M 424.38 443.35 C 419.82 450.11 417.05 457.86 414.36 465.51 C 412.29 471.66 408.13 476.88 406.38 483.17 C 403.92 490.23 404.41 497.82 403.00 505.09 C 401.63 512.74 398.84 520.03 396.65 527.47 C 392.57 541.32 383.27 552.87 378.65 566.49 C 375.37 577.98 376.11 590.81 381.43 601.59 C 384.41 607.51 390.11 611.30 395.62 614.63 C 398.16 610.15 400.81 605.38 400.73 600.07 C 400.69 591.65 398.59 583.43 397.48 575.13 C 396.78 569.72 394.95 564.45 394.98 558.97 C 396.57 555.74 399.77 553.69 402.55 551.55 C 415.04 542.98 430.78 539.82 445.73 541.17 C 461.80 542.73 478.15 549.84 487.83 563.18 C 492.30 569.06 491.16 577.03 489.77 583.78 C 485.44 599.67 477.98 614.51 469.86 628.77 C 464.08 639.24 456.28 648.46 451.02 659.24 C 457.04 663.73 461.93 669.49 466.84 675.11 C 474.81 684.49 483.09 693.60 491.07 702.98 C 500.78 714.92 510.79 726.61 520.75 738.34 C 531.49 727.32 541.08 715.19 548.89 701.92 C 558.03 687.50 565.01 671.82 574.71 657.74 C 586.15 641.71 601.47 628.87 612.62 612.61 C 622.27 598.88 628.10 583.01 634.61 567.67 C 629.39 572.85 624.21 578.21 620.52 584.62 C 614.58 596.29 603.33 604.27 591.71 609.67 C 584.16 613.19 576.25 616.24 567.96 617.36 C 565.56 617.92 563.45 616.60 561.52 615.41 C 558.07 616.86 554.69 618.63 550.97 619.26 C 549.06 619.68 546.78 618.78 546.13 616.85 C 545.22 614.50 546.67 612.15 547.37 609.97 C 544.79 610.20 541.80 611.18 539.52 609.45 C 536.95 607.60 537.13 603.90 538.33 601.31 C 540.37 596.75 544.05 593.21 547.69 589.92 C 546.02 589.28 543.28 589.20 543.11 586.88 C 542.86 583.22 545.42 580.20 547.57 577.51 C 552.97 571.34 559.06 565.83 564.85 560.04 C 558.74 560.68 552.36 562.48 546.32 560.61 C 542.65 559.50 541.94 554.24 545.00 552.06 C 549.78 548.32 556.43 549.51 561.64 546.67 C 567.62 543.37 574.36 542.08 581.08 541.29 C 575.45 536.78 570.15 531.85 564.10 527.91 C 556.34 522.61 547.59 519.10 539.35 514.68 C 528.56 509.20 518.65 502.23 508.99 495.00 C 490.88 481.39 473.19 467.20 454.27 454.71 C 445.26 449.10 435.53 442.33 424.38 443.35 M 399.28 560.89 C 402.40 568.95 403.52 577.55 405.00 586.01 C 405.75 590.60 406.48 595.23 406.44 599.90 C 406.37 605.18 404.40 610.21 401.71 614.69 C 396.70 622.97 390.83 630.69 384.81 638.26 C 387.59 651.81 398.66 662.47 411.64 666.50 C 421.76 669.90 432.79 668.86 442.72 665.32 C 446.45 654.97 452.35 645.54 458.70 636.61 C 467.08 623.54 474.40 609.75 480.21 595.35 C 483.10 587.57 486.36 579.57 486.06 571.12 C 477.00 555.52 458.40 547.96 440.98 547.39 C 426.00 546.53 410.96 551.50 399.28 560.89 M 362.41 694.56 C 359.76 710.38 362.56 726.38 365.27 741.99 C 368.49 761.17 372.48 780.44 371.86 800.01 C 371.46 824.83 365.50 849.08 362.07 873.56 C 366.12 868.73 370.93 864.55 376.37 861.35 C 383.02 857.17 391.74 855.42 399.06 858.92 C 406.55 862.60 411.56 869.61 416.42 876.13 C 412.86 861.33 406.60 846.56 408.24 831.05 C 410.12 817.33 414.01 804.00 417.73 790.70 C 422.95 770.01 427.87 749.25 433.36 728.64 C 435.86 719.30 437.81 709.81 439.33 700.27 C 440.95 690.49 441.27 680.57 442.32 670.73 C 430.64 675.84 416.97 675.62 405.28 670.65 C 393.74 665.98 384.34 656.35 380.25 644.55 C 370.44 659.50 365.16 677.02 362.41 694.56 M 448.62 663.79 C 448.20 665.82 447.66 667.87 447.73 669.97 C 448.12 677.69 447.21 685.40 446.57 693.09 C 445.58 703.81 442.81 714.26 440.85 724.80 C 444.74 734.04 450.86 742.15 456.85 750.12 C 461.45 755.73 465.89 761.80 472.12 765.71 C 473.94 764.70 475.49 763.29 477.05 761.93 C 487.98 752.28 499.12 742.84 509.51 732.61 C 499.76 721.34 490.15 709.94 480.27 698.78 C 469.58 687.24 459.67 675.00 448.62 663.79 M 427.46 776.12 C 423.16 795.01 416.60 813.35 413.57 832.54 C 422.69 824.36 432.83 817.21 440.63 807.66 C 445.43 802.25 449.25 796.09 452.80 789.81 C 457.10 782.15 462.70 775.30 468.98 769.18 C 456.11 759.06 446.95 745.07 439.04 730.93 C 434.96 745.93 431.31 761.05 427.46 776.12 M 336.91 793.86 C 322.71 808.36 309.12 823.45 294.66 837.70 C 289.80 842.56 284.66 847.18 278.84 850.89 C 264.93 859.76 249.81 866.92 233.83 871.16 C 234.02 877.10 235.37 883.79 240.41 887.58 C 247.36 892.35 255.97 893.33 263.70 896.30 C 266.85 897.34 268.66 900.24 270.47 902.81 C 297.78 886.13 327.83 874.77 357.24 862.44 C 362.36 832.54 368.47 801.99 363.46 771.63 C 353.68 777.84 344.66 785.23 336.91 793.86 M 385.37 863.63 C 377.76 866.05 371.35 871.24 365.87 876.90 C 363.86 879.23 361.21 881.57 361.13 884.90 C 360.25 898.63 361.72 912.45 364.44 925.92 C 366.52 935.15 368.99 944.61 374.57 952.42 C 379.55 959.42 386.25 965.96 394.97 967.70 C 403.34 969.10 412.89 968.30 419.58 962.56 C 424.23 958.44 424.80 951.77 425.04 945.97 C 425.15 933.85 421.42 922.18 419.72 910.27 C 418.55 903.20 417.83 896.06 417.07 888.94 C 417.00 886.29 414.98 884.44 413.39 882.58 C 408.14 876.86 404.29 869.69 397.67 865.34 C 394.08 862.96 389.47 862.33 385.37 863.63 M 205.00 877.11 C 200.77 879.86 198.50 884.60 197.12 889.29 C 194.31 898.72 191.58 908.26 187.12 917.08 C 183.59 924.00 177.77 929.52 174.73 936.72 C 172.87 941.82 171.87 947.50 173.25 952.84 C 175.96 963.13 181.40 972.62 188.48 980.53 C 190.53 982.51 192.81 985.26 195.99 984.82 C 201.69 984.03 205.70 979.50 209.60 975.71 C 221.79 963.88 227.02 947.23 236.29 933.34 C 243.66 921.47 254.67 912.43 266.39 905.09 C 258.15 899.38 247.48 899.24 239.04 893.86 C 231.23 889.64 228.27 880.06 229.20 871.67 C 221.07 872.91 212.06 872.19 205.00 877.11 Z" />
		<path fill="#020202" opacity="1.00"
			d=" M 677.40 150.80 C 684.09 152.69 690.04 148.72 696.25 147.07 C 695.92 150.64 695.63 154.45 693.64 157.56 C 691.15 159.97 687.19 159.63 684.07 158.99 C 680.25 158.11 678.35 154.25 677.40 150.80 Z" />
		<path fill="#020202" opacity="1.00"
			d=" M 648.54 159.29 C 654.39 159.64 659.61 162.91 665.07 164.83 C 670.07 167.27 675.79 168.52 680.20 172.01 C 680.53 175.53 676.66 174.33 674.59 173.86 C 672.57 174.85 670.48 176.88 668.10 175.77 C 663.20 173.88 658.43 171.58 653.80 169.11 C 651.85 168.31 652.42 166.06 652.35 164.41 C 650.70 163.14 645.98 161.87 648.54 159.29 Z" />
		<path fill="#020202" opacity="1.00"
			d=" M 485.19 317.20 C 485.48 317.05 486.06 316.76 486.35 316.62 C 490.86 319.34 494.64 323.12 499.13 325.89 C 507.82 331.35 516.53 336.94 526.10 340.77 C 534.10 344.01 542.52 346.05 550.92 347.97 C 553.56 348.53 556.09 349.55 558.26 351.17 C 554.23 352.19 550.14 351.11 546.17 350.38 C 540.47 349.27 534.68 348.60 529.10 346.99 C 520.58 344.67 512.69 340.53 505.36 335.69 C 498.78 331.36 492.11 326.93 486.89 320.96 C 486.15 319.82 484.60 318.71 485.19 317.20 Z" />
		<path fill="#020202" opacity="1.00"
			d=" M 474.59 377.00 C 474.78 374.18 475.38 369.98 478.97 369.77 C 481.34 371.44 483.09 373.83 485.47 375.48 C 488.57 377.63 492.10 379.03 495.58 380.42 C 502.51 383.06 508.35 387.81 514.98 391.06 C 524.98 396.49 535.70 400.32 546.68 403.21 C 541.50 404.97 536.06 403.42 531.02 401.96 C 521.46 398.82 512.27 394.54 503.70 389.27 C 495.60 383.73 485.09 382.29 478.30 374.74 C 478.16 382.14 479.23 389.70 482.50 396.41 C 488.45 408.66 496.97 419.75 507.57 428.33 C 519.36 436.82 533.08 442.25 546.99 446.19 C 558.23 449.40 569.59 452.21 581.00 454.76 C 586.52 456.03 592.28 456.18 597.67 458.04 C 594.30 459.62 590.56 459.29 586.98 458.94 C 570.01 457.48 553.46 453.05 537.27 447.92 C 525.90 444.11 514.84 438.99 505.10 431.95 C 494.46 423.42 485.90 412.38 479.73 400.25 C 476.00 393.14 474.29 385.00 474.59 377.00 Z" />
	</g>
	<g id="#f0b58bff">
		<path fill="#f0b58b" opacity="1.00"
			d=" M 666.54 62.42 C 670.62 68.32 672.78 75.16 674.63 82.01 C 677.23 79.00 678.74 75.26 681.27 72.21 C 683.25 69.83 686.34 69.00 689.21 68.22 C 688.88 77.57 691.24 86.84 695.15 95.28 C 697.35 91.54 698.04 87.22 699.42 83.16 C 700.58 79.54 702.18 76.09 703.70 72.62 C 703.96 78.52 704.76 84.45 706.88 89.99 C 709.37 96.38 711.53 103.35 716.91 107.98 C 719.66 100.54 721.32 92.76 723.83 85.24 C 724.89 90.66 726.76 95.87 729.22 100.80 C 726.57 105.60 724.14 110.52 721.69 115.42 C 716.83 113.93 711.23 111.90 706.35 114.33 C 698.29 121.20 696.20 132.13 694.04 141.97 C 693.45 143.73 694.09 145.48 694.66 147.16 C 699.67 143.30 700.95 136.93 703.39 131.46 C 706.40 133.65 709.70 135.43 713.23 136.64 C 707.58 149.89 701.35 163.55 690.41 173.32 C 680.10 183.22 663.39 186.07 650.58 179.52 C 644.16 176.35 637.74 172.58 633.15 166.96 C 629.76 162.83 629.42 157.36 628.11 152.42 C 626.33 151.29 625.66 153.79 625.42 154.98 C 624.53 160.68 626.13 166.70 629.99 171.03 C 636.12 177.99 644.52 182.45 652.99 185.94 C 651.70 188.56 649.69 190.69 647.64 192.72 C 644.46 196.01 643.53 200.61 641.53 204.56 C 639.61 206.13 637.12 206.75 634.85 207.64 C 627.39 210.17 619.96 212.82 612.66 215.80 C 606.58 218.03 600.60 220.93 594.06 221.49 C 589.38 216.34 586.59 209.80 585.27 203.02 C 581.80 185.94 580.67 168.25 583.00 150.94 C 583.37 146.52 587.79 144.34 590.08 140.97 C 594.30 134.94 600.68 130.88 604.76 124.72 C 610.00 117.24 616.30 110.27 619.71 101.68 C 622.43 94.74 621.89 86.64 626.31 80.37 C 628.09 78.06 631.67 75.50 634.49 77.61 C 638.19 80.68 639.80 86.01 638.36 90.62 C 636.05 98.43 630.97 104.96 626.83 111.85 C 624.82 115.75 621.13 120.15 623.06 124.73 C 624.92 127.92 628.83 125.78 630.33 123.40 C 635.82 115.76 640.03 107.22 646.28 100.11 C 656.34 104.85 666.58 109.26 676.31 114.69 C 679.91 116.49 683.38 118.70 687.29 119.79 C 690.34 120.66 691.76 116.89 692.79 114.70 C 693.84 111.43 695.58 107.11 692.77 104.26 C 689.00 100.53 684.27 98.00 679.84 95.16 C 676.04 92.94 672.39 90.35 668.25 88.83 C 663.82 87.74 659.20 88.38 654.70 88.27 C 656.73 81.89 657.64 75.20 657.42 68.51 C 658.95 71.40 660.34 74.36 661.90 77.24 C 663.84 72.43 665.28 67.45 666.54 62.42 M 677.40 150.80 C 678.35 154.25 680.25 158.11 684.07 158.99 C 687.19 159.63 691.15 159.97 693.64 157.56 C 695.63 154.45 695.92 150.64 696.25 147.07 C 690.04 148.72 684.09 152.69 677.40 150.80 M 648.54 159.29 C 645.98 161.87 650.70 163.14 652.35 164.41 C 652.42 166.06 651.85 168.31 653.80 169.11 C 658.43 171.58 663.20 173.88 668.10 175.77 C 670.48 176.88 672.57 174.85 674.59 173.86 C 676.66 174.33 680.53 175.53 680.20 172.01 C 675.79 168.52 670.07 167.27 665.07 164.83 C 659.61 162.91 654.39 159.64 648.54 159.29 Z" />
		<path fill="#f0b58b" opacity="1.00"
			d=" M 385.14 236.05 C 390.74 227.21 397.36 219.05 404.59 211.50 C 406.25 224.92 413.03 237.13 421.40 247.54 C 425.32 253.18 430.46 257.85 436.25 261.52 C 429.58 263.02 422.66 264.26 416.64 267.64 C 413.49 269.57 409.64 272.07 409.97 276.31 C 413.27 274.44 416.39 272.25 419.85 270.70 C 413.42 279.36 409.06 289.31 403.69 298.62 C 398.03 308.42 393.21 318.70 387.27 328.33 C 378.35 342.83 366.48 355.27 357.85 369.96 C 355.97 373.90 353.64 378.20 354.24 382.69 C 354.70 382.75 355.61 382.88 356.07 382.95 C 358.53 380.10 360.02 376.58 362.08 373.47 C 365.77 375.08 369.89 376.32 372.72 379.35 C 376.69 384.24 377.17 390.99 381.01 395.96 C 386.78 403.26 397.92 403.90 402.68 412.21 C 397.80 415.74 391.32 414.00 386.31 411.68 C 381.32 409.54 376.63 405.75 370.98 405.89 C 365.41 407.20 366.53 415.82 371.16 417.76 C 372.35 415.66 371.60 413.17 371.78 410.90 C 377.28 412.65 382.37 415.43 387.69 417.62 C 381.86 425.01 371.72 426.48 362.90 425.93 C 357.05 425.51 351.72 422.21 348.26 417.55 C 341.60 409.00 336.09 399.62 330.80 390.17 C 325.78 381.23 326.01 370.33 328.78 360.71 C 333.00 345.19 339.94 330.58 347.49 316.43 C 361.20 290.18 369.01 261.07 385.14 236.05 Z" />
		<path fill="#f0b58b" opacity="1.00"
			d=" M 702.35 380.11 C 709.59 380.65 716.79 379.66 723.88 378.23 C 728.62 377.03 733.25 378.91 737.84 379.85 C 744.50 381.32 751.28 379.53 757.68 377.73 C 757.26 390.76 756.94 403.84 755.40 416.80 C 753.60 430.77 746.07 442.99 738.54 454.57 C 728.79 468.82 717.46 481.98 704.97 493.89 C 689.61 508.90 674.37 524.02 659.53 539.53 C 652.60 546.77 644.06 552.10 636.58 558.69 C 628.56 565.24 620.94 572.61 615.60 581.55 C 609.88 592.86 598.92 600.43 587.73 605.71 C 581.02 608.94 574.03 611.66 566.74 613.21 C 574.72 607.54 583.56 603.20 591.54 597.53 C 594.03 595.67 597.39 594.17 597.99 590.78 C 592.95 592.36 588.64 595.51 583.94 597.82 C 573.26 603.22 563.14 609.92 551.68 613.65 C 562.74 600.69 577.43 591.59 589.77 579.95 C 586.64 578.35 583.25 579.94 580.41 581.40 C 567.44 588.86 557.38 601.69 542.43 605.44 C 544.38 599.65 549.02 595.47 553.21 591.27 C 557.96 586.67 562.43 581.75 567.74 577.78 C 571.77 574.40 576.23 571.31 579.26 566.95 C 580.13 563.90 576.46 565.17 575.04 566.11 C 565.95 571.78 558.35 579.72 548.60 584.38 C 554.38 576.05 562.42 569.66 568.63 561.68 C 570.55 558.98 573.61 557.43 575.66 554.84 C 574.16 554.38 572.72 553.46 571.11 553.60 C 563.54 554.32 556.01 557.22 548.37 555.88 C 553.24 554.22 558.63 554.59 563.27 552.17 C 572.99 546.70 584.42 546.48 595.16 544.58 C 600.32 543.58 606.27 543.22 610.10 539.15 C 615.76 533.33 620.04 526.39 624.94 519.96 C 635.45 505.16 646.22 490.54 657.09 475.99 C 662.70 468.39 669.36 461.68 675.40 454.43 C 684.09 444.03 695.70 435.95 701.93 423.61 C 702.32 426.22 702.26 429.03 703.58 431.41 C 704.51 432.06 705.39 431.98 706.20 431.17 C 707.89 427.96 707.01 424.21 706.71 420.79 C 704.84 407.27 704.01 393.65 702.35 380.11 Z" />
		<path fill="#f0b58b" opacity="1.00"
			d=" M 399.28 560.89 C 410.96 551.50 426.00 546.53 440.98 547.39 C 458.40 547.96 477.00 555.52 486.06 571.12 C 486.36 579.57 483.10 587.57 480.21 595.35 C 474.40 609.75 467.08 623.54 458.70 636.61 C 452.35 645.54 446.45 654.97 442.72 665.32 C 432.79 668.86 421.76 669.90 411.64 666.50 C 398.66 662.47 387.59 651.81 384.81 638.26 C 390.83 630.69 396.70 622.97 401.71 614.69 C 404.40 610.21 406.37 605.18 406.44 599.90 C 406.48 595.23 405.75 590.60 405.00 586.01 C 403.52 577.55 402.40 568.95 399.28 560.89 Z" />
		<path fill="#f0b58b" opacity="1.00"
			d=" M 448.62 663.79 C 459.67 675.00 469.58 687.24 480.27 698.78 C 490.15 709.94 499.76 721.34 509.51 732.61 C 499.12 742.84 487.98 752.28 477.05 761.93 C 475.49 763.29 473.94 764.70 472.12 765.71 C 465.89 761.80 461.45 755.73 456.85 750.12 C 450.86 742.15 444.74 734.04 440.85 724.80 C 442.81 714.26 445.58 703.81 446.57 693.09 C 447.21 685.40 448.12 677.69 447.73 669.97 C 447.66 667.87 448.20 665.82 448.62 663.79 Z" />
	</g>
	<g id="#f11b27ff">
		<path fill="var(--shirt-color, grey)" opacity="1.00"
			d=" M 543.12 149.10 C 558.10 138.48 574.66 128.99 593.11 126.35 C 591.10 130.96 588.40 135.28 584.89 138.90 C 582.39 141.69 578.96 144.11 578.32 148.06 C 574.79 166.96 575.84 186.53 579.85 205.28 C 581.37 211.29 583.22 217.72 587.79 222.18 C 591.49 224.85 596.28 227.11 600.91 225.64 C 609.16 223.51 616.93 219.90 624.92 216.96 C 630.92 214.62 637.23 212.97 642.97 209.99 C 648.22 207.27 647.42 200.20 651.26 196.26 C 653.84 193.69 656.33 190.89 657.07 187.19 C 667.67 189.34 679.16 187.32 688.14 181.21 C 694.04 177.11 698.95 171.76 703.21 166.01 C 713.64 172.72 723.26 180.58 733.68 187.30 C 739.21 191.00 744.74 194.88 749.16 199.91 C 751.65 202.73 752.14 206.68 754.32 209.69 C 756.49 212.51 759.99 214.22 761.39 217.64 C 764.11 223.75 765.73 230.29 767.19 236.79 C 769.43 248.42 771.46 260.13 771.96 271.98 C 772.74 290.37 773.47 308.98 769.79 327.13 C 767.04 339.81 765.48 353.48 769.90 365.97 C 762.09 370.03 753.95 374.06 745.04 374.79 C 737.90 375.64 731.18 371.11 724.04 372.89 C 715.31 374.80 706.37 376.51 697.40 375.30 C 698.73 362.25 698.39 349.12 698.80 336.04 C 699.11 327.34 703.28 319.44 704.43 310.90 C 705.84 301.33 705.70 291.62 705.49 281.99 C 704.82 271.60 702.60 261.35 699.88 251.33 C 698.73 252.27 697.23 253.19 697.60 254.93 C 697.60 260.98 699.05 266.90 699.74 272.89 C 700.96 282.94 700.40 293.09 699.76 303.15 C 699.29 310.39 697.54 317.45 695.22 324.30 C 694.58 318.33 692.87 312.45 689.56 307.40 C 685.52 301.20 682.08 294.43 676.50 289.44 C 672.34 285.55 667.94 281.79 662.85 279.20 C 661.70 278.48 657.89 278.20 659.46 280.40 C 665.50 286.70 672.83 291.97 677.41 299.57 C 680.26 304.38 683.25 309.12 685.91 314.04 C 689.19 320.14 689.49 327.19 690.38 333.90 C 691.54 341.50 690.15 349.17 690.92 356.80 C 680.14 361.47 669.60 366.83 658.33 370.27 C 641.48 375.24 623.85 376.52 606.44 378.12 C 595.65 379.16 584.79 379.12 573.96 379.25 C 571.38 379.20 568.86 379.83 566.58 381.01 C 572.72 383.57 579.54 382.57 586.01 383.11 C 607.60 384.11 629.39 383.04 650.54 378.40 C 665.13 375.23 678.48 368.22 691.30 360.80 C 691.85 365.23 691.94 369.69 692.40 374.13 C 692.32 376.87 695.20 377.90 696.98 379.38 C 692.75 386.96 688.28 394.42 684.01 401.98 C 676.93 414.30 678.08 429.14 679.19 442.75 C 667.13 455.92 655.34 469.39 644.99 483.96 C 633.44 499.16 622.76 514.98 611.32 530.26 C 608.94 533.22 606.67 536.74 602.86 537.96 C 597.66 539.76 592.07 539.69 586.69 540.55 C 583.41 536.41 579.15 533.25 575.20 529.83 C 568.56 524.18 561.18 519.46 553.35 515.65 C 541.56 509.84 530.02 503.40 519.57 495.37 C 502.51 482.78 486.12 469.30 468.67 457.25 C 458.71 450.53 448.76 443.34 437.20 439.64 C 433.72 438.46 430.01 438.36 426.39 438.63 C 429.84 430.53 427.94 421.46 430.43 413.13 C 431.75 407.38 434.68 402.03 438.97 397.95 C 443.51 393.21 449.84 390.90 454.92 386.88 C 458.20 384.31 459.05 380.03 460.56 376.37 C 463.19 369.38 468.37 363.74 474.05 359.06 C 476.49 356.84 479.76 354.69 480.04 351.08 C 480.71 344.13 480.07 337.12 480.80 330.17 C 482.34 320.62 487.16 311.89 487.70 302.13 C 494.61 313.41 506.90 319.37 518.56 324.52 C 522.38 326.20 526.44 328.05 530.73 327.21 C 528.78 325.36 526.42 324.08 523.98 323.03 C 517.04 319.94 510.38 316.20 504.27 311.69 C 498.76 307.66 493.42 303.05 490.08 297.00 C 488.19 293.97 489.23 290.30 489.25 286.97 C 489.79 279.15 489.02 271.24 486.42 263.82 C 484.35 255.81 479.09 249.00 477.43 240.88 C 476.31 236.08 480.44 232.37 484.11 230.11 C 497.49 221.92 512.92 218.13 527.88 213.95 C 529.72 213.52 531.12 212.20 532.48 210.97 C 526.00 210.02 519.67 212.18 513.43 213.62 C 503.89 216.29 494.04 218.50 485.29 223.33 C 481.22 225.66 477.10 228.51 474.85 232.75 C 473.18 237.46 473.93 242.61 474.27 247.49 C 470.65 248.21 466.93 248.87 463.70 250.74 C 458.28 253.73 453.34 258.11 447.06 259.12 C 443.94 259.30 440.32 259.40 437.80 257.26 C 431.24 252.04 426.54 245.00 421.75 238.22 C 417.09 231.35 413.17 223.83 411.27 215.70 C 410.01 210.06 409.87 203.87 412.62 198.63 C 415.45 193.12 418.80 187.56 423.98 183.95 C 428.58 180.58 434.07 178.80 438.95 175.92 C 448.43 170.39 454.40 160.14 464.73 155.90 C 470.69 154.10 477.02 153.46 482.73 150.81 C 489.99 147.79 495.08 141.05 502.72 138.80 C 511.60 136.27 521.00 136.91 530.07 137.98 C 536.44 138.75 542.88 138.62 549.28 138.45 C 530.93 149.83 514.16 164.21 493.58 171.62 C 494.94 176.28 500.26 173.70 503.44 172.68 C 518.21 167.74 530.77 158.29 543.12 149.10 M 485.19 317.20 C 484.60 318.71 486.15 319.82 486.89 320.96 C 492.11 326.93 498.78 331.36 505.36 335.69 C 512.69 340.53 520.58 344.67 529.10 346.99 C 534.68 348.60 540.47 349.27 546.17 350.38 C 550.14 351.11 554.23 352.19 558.26 351.17 C 556.09 349.55 553.56 348.53 550.92 347.97 C 542.52 346.05 534.10 344.01 526.10 340.77 C 516.53 336.94 507.82 331.35 499.13 325.89 C 494.64 323.12 490.86 319.34 486.35 316.62 C 486.06 316.76 485.48 317.05 485.19 317.20 M 474.59 377.00 C 474.29 385.00 476.00 393.14 479.73 400.25 C 485.90 412.38 494.46 423.42 505.10 431.95 C 514.84 438.99 525.90 444.11 537.27 447.92 C 553.46 453.05 570.01 457.48 586.98 458.94 C 590.56 459.29 594.30 459.62 597.67 458.04 C 592.28 456.18 586.52 456.03 581.00 454.76 C 569.59 452.21 558.23 449.40 546.99 446.19 C 533.08 442.25 519.36 436.82 507.57 428.33 C 496.97 419.75 488.45 408.66 482.50 396.41 C 479.23 389.70 478.16 382.14 478.30 374.74 C 485.09 382.29 495.60 383.73 503.70 389.27 C 512.27 394.54 521.46 398.82 531.02 401.96 C 536.06 403.42 541.50 404.97 546.68 403.21 C 535.70 400.32 524.98 396.49 514.98 391.06 C 508.35 387.81 502.51 383.06 495.58 380.42 C 492.10 379.03 488.57 377.63 485.47 375.48 C 483.09 373.83 481.34 371.44 478.97 369.77 C 475.38 369.98 474.78 374.18 474.59 377.00 Z" />
	</g>
	<g id="#2b3dcdff">
		<path fill="var(--pants-color, grey)" opacity="1.00"
			d=" M 424.38 443.35 C 435.53 442.33 445.26 449.10 454.27 454.71 C 473.19 467.20 490.88 481.39 508.99 495.00 C 518.65 502.23 528.56 509.20 539.35 514.68 C 547.59 519.10 556.34 522.61 564.10 527.91 C 570.15 531.85 575.45 536.78 581.08 541.29 C 574.36 542.08 567.62 543.37 561.64 546.67 C 556.43 549.51 549.78 548.32 545.00 552.06 C 541.94 554.24 542.65 559.50 546.32 560.61 C 552.36 562.48 558.74 560.68 564.85 560.04 C 559.06 565.83 552.97 571.34 547.57 577.51 C 545.42 580.20 542.86 583.22 543.11 586.88 C 543.28 589.20 546.02 589.28 547.69 589.92 C 544.05 593.21 540.37 596.75 538.33 601.31 C 537.13 603.90 536.95 607.60 539.52 609.45 C 541.80 611.18 544.79 610.20 547.37 609.97 C 546.67 612.15 545.22 614.50 546.13 616.85 C 546.78 618.78 549.06 619.68 550.97 619.26 C 554.69 618.63 558.07 616.86 561.52 615.41 C 563.45 616.60 565.56 617.92 567.96 617.36 C 576.25 616.24 584.16 613.19 591.71 609.67 C 603.33 604.27 614.58 596.29 620.52 584.62 C 624.21 578.21 629.39 572.85 634.61 567.67 C 628.10 583.01 622.27 598.88 612.62 612.61 C 601.47 628.87 586.15 641.71 574.71 657.74 C 565.01 671.82 558.03 687.50 548.89 701.92 C 541.08 715.19 531.49 727.32 520.75 738.34 C 510.79 726.61 500.78 714.92 491.07 702.98 C 483.09 693.60 474.81 684.49 466.84 675.11 C 461.93 669.49 457.04 663.73 451.02 659.24 C 456.28 648.46 464.08 639.24 469.86 628.77 C 477.98 614.51 485.44 599.67 489.77 583.78 C 491.16 577.03 492.30 569.06 487.83 563.18 C 478.15 549.84 461.80 542.73 445.73 541.17 C 430.78 539.82 415.04 542.98 402.55 551.55 C 399.77 553.69 396.57 555.74 394.98 558.97 C 394.95 564.45 396.78 569.72 397.48 575.13 C 398.59 583.43 400.69 591.65 400.73 600.07 C 400.81 605.38 398.16 610.15 395.62 614.63 C 390.11 611.30 384.41 607.51 381.43 601.59 C 376.11 590.81 375.37 577.98 378.65 566.49 C 383.27 552.87 392.57 541.32 396.65 527.47 C 398.84 520.03 401.63 512.74 403.00 505.09 C 404.41 497.82 403.92 490.23 406.38 483.17 C 408.13 476.88 412.29 471.66 414.36 465.51 C 417.05 457.86 419.82 450.11 424.38 443.35 Z" />
		<path fill="var(--socks-color, grey)" opacity="1.00"
			d=" M 362.41 694.56 C 365.16 677.02 370.44 659.50 380.25 644.55 C 384.34 656.35 393.74 665.98 405.28 670.65 C 416.97 675.62 430.64 675.84 442.32 670.73 C 441.27 680.57 440.95 690.49 439.33 700.27 C 437.81 709.81 435.86 719.30 433.36 728.64 C 427.87 749.25 422.95 770.01 417.73 790.70 C 414.01 804.00 410.12 817.33 408.24 831.05 C 406.60 846.56 412.86 861.33 416.42 876.13 C 411.56 869.61 406.55 862.60 399.06 858.92 C 391.74 855.42 383.02 857.17 376.37 861.35 C 370.93 864.55 366.12 868.73 362.07 873.56 C 365.50 849.08 371.46 824.83 371.86 800.01 C 372.48 780.44 368.49 761.17 365.27 741.99 C 362.56 726.38 359.76 710.38 362.41 694.56 Z" />
		<path fill="var(--socks-color, grey)" opacity="1.00"
			d=" M 427.46 776.12 C 431.31 761.05 434.96 745.93 439.04 730.93 C 446.95 745.07 456.11 759.06 468.98 769.18 C 462.70 775.30 457.10 782.15 452.80 789.81 C 449.25 796.09 445.43 802.25 440.63 807.66 C 432.83 817.21 422.69 824.36 413.57 832.54 C 416.60 813.35 423.16 795.01 427.46 776.12 Z" />
		<path fill="var(--socks-color, grey)" opacity="1.00"
			d=" M 336.91 793.86 C 344.66 785.23 353.68 777.84 363.46 771.63 C 368.47 801.99 362.36 832.54 357.24 862.44 C 327.83 874.77 297.78 886.13 270.47 902.81 C 268.66 900.24 266.85 897.34 263.70 896.30 C 255.97 893.33 247.36 892.35 240.41 887.58 C 235.37 883.79 234.02 877.10 233.83 871.16 C 249.81 866.92 264.93 859.76 278.84 850.89 C 284.66 847.18 289.80 842.56 294.66 837.70 C 309.12 823.45 322.71 808.36 336.91 793.86 Z" />
	</g>
	<g id="#4d4d4dff">
		<path fill="#4d4d4d" opacity="1.00"
			d=" M 385.37 863.63 C 389.47 862.33 394.08 862.96 397.67 865.34 C 404.29 869.69 408.14 876.86 413.39 882.58 C 414.98 884.44 417.00 886.29 417.07 888.94 C 417.83 896.06 418.55 903.20 419.72 910.27 C 421.42 922.18 425.15 933.85 425.04 945.97 C 424.80 951.77 424.23 958.44 419.58 962.56 C 412.89 968.30 403.34 969.10 394.97 967.70 C 386.25 965.96 379.55 959.42 374.57 952.42 C 368.99 944.61 366.52 935.15 364.44 925.92 C 361.72 912.45 360.25 898.63 361.13 884.90 C 361.21 881.57 363.86 879.23 365.87 876.90 C 371.35 871.24 377.76 866.05 385.37 863.63 Z" />
		<path fill="#4d4d4d" opacity="1.00"
			d=" M 205.00 877.11 C 212.06 872.19 221.07 872.91 229.20 871.67 C 228.27 880.06 231.23 889.64 239.04 893.86 C 247.48 899.24 258.15 899.38 266.39 905.09 C 254.67 912.43 243.66 921.47 236.29 933.34 C 227.02 947.23 221.79 963.88 209.60 975.71 C 205.70 979.50 201.69 984.03 195.99 984.82 C 192.81 985.26 190.53 982.51 188.48 980.53 C 181.40 972.62 175.96 963.13 173.25 952.84 C 171.87 947.50 172.87 941.82 174.73 936.72 C 177.77 929.52 183.59 924.00 187.12 917.08 C 191.58 908.26 194.31 898.72 197.12 889.29 C 198.50 884.60 200.77 879.86 205.00 877.11 Z" />
	</g>
</svg>