<?xml version="1.0" encoding="UTF-8" ?>
<!DOCTYPE svg PUBLIC "-//W3C//DTD SVG 1.1//EN" "http://www.w3.org/Graphics/SVG/1.1/DTD/svg11.dtd">
<svg width="1000pt" height="1000pt" viewBox="0 0 1000 1000" version="1.1" xmlns="http://www.w3.org/2000/svg">
	<g id="#020202ff">
		<path fill="#020202" opacity="1.00"
			d=" M 396.83 8.76 C 413.04 4.11 430.53 4.81 446.71 9.21 C 458.63 12.52 470.12 18.30 478.86 27.19 C 482.01 30.41 483.84 34.62 485.41 38.78 C 489.14 48.74 489.74 59.52 489.55 70.05 C 489.58 79.47 486.39 88.46 483.86 97.42 C 482.51 95.57 481.28 93.64 480.07 91.70 C 475.72 107.09 470.39 122.19 464.58 137.08 C 480.32 134.79 494.56 127.43 508.85 120.87 C 524.29 113.36 539.95 106.28 555.08 98.14 C 566.22 92.20 577.75 87.01 588.72 80.73 C 595.33 76.95 600.73 71.51 606.55 66.68 C 609.45 64.24 613.43 62.34 617.24 63.78 C 623.28 66.00 628.50 69.91 634.24 72.77 C 639.75 75.53 644.47 79.56 649.84 82.56 C 654.13 81.74 658.92 80.71 662.98 82.94 C 665.78 84.41 666.73 88.36 664.94 90.96 C 662.44 94.60 658.17 96.32 654.39 98.29 C 652.85 105.23 651.69 112.24 650.18 119.19 C 649.21 122.64 648.14 126.84 644.61 128.53 C 641.81 129.85 639.08 127.27 638.53 124.64 C 637.13 118.59 637.61 112.33 637.42 106.17 C 632.72 108.70 627.95 111.26 624.02 114.93 C 618.09 120.45 609.70 123.83 601.57 122.56 C 598.82 122.24 595.79 120.39 593.21 122.20 C 576.06 132.37 560.11 144.39 544.11 156.24 C 523.58 170.57 504.78 187.34 483.26 200.25 C 475.61 204.87 468.08 210.10 459.34 212.45 C 453.27 221.77 444.09 230.11 443.50 241.93 C 444.80 250.34 447.40 258.53 450.64 266.39 C 454.03 274.84 457.12 283.42 459.98 292.07 C 462.70 301.01 466.12 310.31 464.13 319.78 C 467.05 321.05 470.13 322.25 472.39 324.59 C 475.63 328.03 477.57 332.51 478.63 337.07 C 480.77 346.41 481.23 356.06 483.48 365.38 C 485.37 372.21 489.38 378.15 492.72 384.33 C 502.12 400.52 512.80 415.97 524.65 430.46 C 529.24 436.41 534.74 441.56 539.35 447.49 C 543.40 451.79 547.33 456.77 547.71 462.93 C 548.31 466.30 546.03 469.12 544.39 471.80 C 552.30 476.35 559.73 481.66 567.02 487.13 C 574.72 492.51 582.26 498.29 588.33 505.52 C 593.32 511.51 597.96 517.91 604.07 522.86 C 611.21 528.20 618.35 533.56 626.01 538.16 C 641.65 547.63 653.83 561.53 666.08 574.86 C 670.18 579.18 673.86 583.87 677.64 588.47 C 680.19 591.63 683.36 594.36 685.27 598.00 C 685.36 599.37 684.68 600.64 684.33 601.94 C 693.58 610.60 702.24 619.85 710.72 629.27 C 716.21 635.59 720.94 642.92 722.72 651.21 C 723.79 656.10 722.42 661.07 720.69 665.64 C 717.53 673.72 714.88 681.99 712.15 690.22 C 718.07 697.64 722.94 705.80 728.39 713.55 C 744.05 735.79 756.73 759.94 768.77 784.28 C 773.67 793.58 778.19 803.07 782.09 812.83 C 787.13 824.68 792.61 836.34 798.16 847.96 C 801.31 854.73 805.12 861.33 810.36 866.72 C 814.26 867.20 818.26 866.90 822.12 867.85 C 832.15 870.22 841.69 874.20 851.33 877.78 C 859.34 881.00 867.34 885.20 872.89 891.98 C 876.78 897.18 874.71 904.20 872.70 909.73 C 869.52 918.63 863.39 926.29 855.53 931.52 C 849.52 935.71 842.70 939.04 838.18 945.02 C 830.71 953.51 829.81 966.44 820.43 973.42 C 813.59 977.99 804.30 980.24 796.57 976.53 C 785.98 972.38 779.56 961.58 777.32 950.86 C 774.32 940.51 774.84 929.54 776.17 918.97 C 770.37 910.73 765.18 902.06 758.86 894.19 C 747.47 880.23 735.92 866.41 723.85 853.05 C 716.03 844.58 708.31 836.01 700.75 827.30 C 696.39 822.63 692.03 817.96 688.02 812.99 C 679.36 833.90 672.40 855.44 664.53 876.63 C 659.67 887.87 657.81 900.05 654.04 911.64 C 666.72 916.68 677.51 925.36 687.12 934.89 C 692.02 939.29 695.78 944.87 701.09 948.82 C 707.88 953.20 716.09 954.33 723.50 957.32 C 730.20 959.93 737.89 962.84 741.30 969.69 C 742.86 972.85 741.09 976.34 738.53 978.34 C 731.82 984.26 722.81 986.26 714.41 988.54 C 698.58 992.40 681.93 993.50 665.84 990.61 C 655.18 988.66 645.62 983.17 635.15 980.57 C 626.32 978.01 617.12 977.32 608.01 976.50 C 598.05 975.62 587.87 977.10 578.08 974.61 C 571.16 973.00 566.15 966.59 564.44 959.99 C 564.78 950.28 569.18 941.36 572.52 932.40 C 576.57 922.66 581.23 911.40 591.70 907.11 C 595.79 876.25 597.37 845.13 597.93 814.03 C 598.29 798.30 599.48 782.57 602.61 767.13 C 606.03 749.62 609.23 731.85 616.35 715.38 C 619.53 708.08 622.70 700.69 627.29 694.14 C 622.54 688.15 617.95 681.62 611.07 677.90 C 600.53 672.35 588.95 668.67 577.05 667.67 C 575.96 670.32 575.00 673.08 573.27 675.40 C 570.45 679.19 565.97 681.41 563.49 685.50 C 561.72 688.09 560.36 691.05 557.95 693.14 C 553.74 693.72 550.99 689.37 547.98 687.08 C 533.60 674.04 518.85 661.42 503.84 649.13 C 490.49 638.02 477.32 626.44 462.09 617.94 C 453.60 613.22 445.15 608.34 436.01 604.96 C 426.90 601.16 417.53 597.44 409.75 591.21 C 400.41 583.74 391.97 574.62 387.66 563.28 C 385.66 563.17 383.29 563.89 381.69 562.33 C 378.17 559.15 376.87 554.40 374.84 550.27 C 371.62 543.57 368.50 536.82 366.10 529.77 C 361.23 515.78 356.01 501.74 354.10 486.97 C 353.13 480.66 353.06 473.96 349.67 468.33 C 343.09 457.38 335.97 446.76 328.77 436.21 C 319.71 422.32 310.68 408.40 300.85 395.03 C 293.32 384.37 285.60 373.82 278.81 362.65 C 274.61 363.80 270.37 364.96 266.00 365.06 C 261.60 365.32 257.25 364.27 252.86 364.38 C 240.24 373.28 227.01 381.47 212.95 387.92 C 199.69 394.38 184.47 395.18 169.99 394.07 C 163.69 393.45 157.23 392.98 151.29 390.64 C 146.35 388.67 141.78 384.52 141.06 379.02 C 139.90 371.78 142.60 364.78 144.86 358.05 C 147.80 348.45 152.94 339.50 159.72 332.10 C 158.83 327.70 158.89 323.01 160.98 318.95 C 167.42 305.73 177.54 294.87 185.99 282.96 C 190.30 276.57 194.64 270.16 198.14 263.27 C 201.51 256.64 204.18 249.69 206.75 242.72 C 209.69 234.80 210.71 225.94 216.09 219.11 C 221.03 212.05 229.38 208.46 234.41 201.48 C 238.92 195.29 242.74 188.60 247.71 182.75 C 252.17 177.54 257.19 172.84 262.14 168.12 C 275.60 155.48 288.76 142.14 305.00 133.05 C 313.70 128.08 323.86 122.91 334.12 125.97 C 338.96 125.90 343.42 123.07 347.24 120.27 C 348.82 118.68 351.67 116.84 350.72 114.26 C 348.58 107.48 345.11 101.08 343.95 94.02 C 343.04 84.41 346.73 75.27 349.19 66.17 C 353.97 51.91 360.18 37.72 370.29 26.39 C 377.65 18.65 386.36 11.64 396.83 8.76 M 405.58 52.76 C 405.27 57.77 407.12 64.24 403.04 68.12 C 400.71 67.93 400.56 65.24 399.70 63.59 C 398.64 60.37 396.86 57.38 394.04 55.42 C 398.93 64.16 398.22 75.01 394.40 84.01 C 399.75 84.02 405.29 80.74 410.40 83.52 C 420.09 87.79 430.17 91.59 438.83 97.81 C 438.16 101.43 437.84 105.54 435.27 108.40 C 432.76 109.56 430.09 107.99 427.70 107.24 C 414.60 102.05 401.16 97.79 387.97 92.85 C 384.79 94.62 382.07 97.22 380.80 100.69 C 378.43 106.83 376.79 113.44 372.49 118.62 C 371.85 119.42 369.61 121.27 369.45 119.00 C 370.90 113.55 373.64 108.51 374.91 102.99 C 376.61 95.94 379.47 88.41 376.79 81.24 C 375.70 77.79 373.65 73.89 369.78 73.13 C 365.97 73.04 362.31 75.62 361.15 79.26 C 357.15 89.12 362.91 100.02 358.80 109.85 C 356.66 115.46 353.91 121.20 349.01 124.93 C 343.58 129.02 336.96 131.78 330.11 131.88 C 325.84 138.77 322.59 146.94 324.26 155.16 C 326.32 164.59 329.63 174.32 337.02 180.94 C 351.42 195.64 371.86 201.45 388.20 213.38 C 386.66 203.79 384.81 193.57 388.79 184.31 C 380.17 177.54 374.09 168.03 370.33 157.82 C 375.03 161.55 377.54 167.16 381.46 171.58 C 386.98 178.59 394.65 184.20 403.39 186.33 C 410.01 188.04 416.87 185.88 422.63 182.59 C 433.08 177.14 440.44 167.65 448.13 159.03 C 454.57 149.16 458.45 137.88 463.10 127.11 C 459.45 124.21 455.08 122.56 450.75 121.00 C 449.66 127.52 449.28 134.81 444.90 140.11 C 441.48 136.10 444.26 130.56 444.92 126.03 C 445.91 118.96 448.54 111.77 454.04 106.98 C 459.43 104.75 465.43 106.15 471.07 106.23 C 473.42 100.14 475.60 93.98 478.43 88.09 C 475.08 81.43 472.24 74.54 469.31 67.69 C 465.78 75.28 463.32 83.31 461.20 91.39 C 460.02 90.01 458.82 88.65 457.96 87.05 C 453.60 78.69 450.13 69.89 447.41 60.86 C 441.32 65.68 439.96 73.66 438.30 80.76 C 434.15 73.24 431.86 64.79 432.54 56.17 C 430.09 56.50 427.40 56.63 425.45 58.33 C 421.28 61.66 419.66 66.92 417.85 71.71 C 416.07 69.91 415.91 67.25 414.95 65.02 C 413.16 60.07 409.29 56.32 405.58 52.76 M 608.46 72.41 C 602.03 77.77 595.54 83.20 588.07 87.06 C 579.87 91.72 571.24 95.53 562.90 99.91 C 538.11 112.95 512.56 124.47 486.99 135.89 C 479.19 139.19 471.03 142.12 462.45 142.21 C 460.10 148.24 457.46 154.17 454.38 159.87 C 457.00 163.34 459.70 166.86 461.15 171.02 C 465.44 182.52 466.79 195.66 462.20 207.29 C 484.18 195.39 504.64 180.74 523.69 164.61 C 525.39 165.31 526.16 164.74 525.99 162.91 C 526.27 162.69 526.82 162.23 527.09 162.01 C 528.39 163.27 530.87 161.20 529.83 159.70 C 530.05 159.52 530.49 159.16 530.71 158.98 C 531.95 160.16 534.53 158.39 533.68 156.83 C 534.00 156.64 534.63 156.28 534.94 156.09 L 535.82 156.38 L 536.68 155.72 L 536.61 154.79 C 538.53 153.72 540.28 152.34 541.93 150.89 C 543.14 152.20 545.77 150.33 544.81 148.77 C 558.05 140.15 570.24 129.97 583.76 121.75 C 588.26 119.11 592.99 114.56 598.63 116.55 C 603.14 118.16 608.09 118.04 612.58 116.38 C 619.13 114.32 623.06 108.16 629.06 105.11 C 639.33 98.41 651.86 95.60 661.31 87.62 C 659.57 87.19 657.84 86.42 656.04 86.69 C 647.83 87.72 640.10 90.81 632.07 92.57 C 628.79 92.65 624.17 94.24 621.99 90.93 C 624.63 89.16 627.92 89.21 630.90 88.38 C 635.38 87.18 639.65 85.31 644.09 83.97 C 636.41 79.52 628.23 76.01 620.59 71.49 C 618.52 70.44 616.48 68.90 614.08 68.89 C 611.92 69.53 610.19 71.04 608.46 72.41 M 641.75 104.07 C 642.59 110.33 642.02 116.71 643.15 122.95 C 646.49 115.79 647.12 107.78 649.86 100.41 C 647.16 101.65 644.46 102.87 641.75 104.07 M 274.94 163.92 C 265.81 172.42 256.20 180.57 248.64 190.56 C 244.50 195.83 241.23 201.75 236.89 206.87 C 232.02 212.71 224.60 215.82 220.16 222.08 C 215.30 228.34 214.46 236.45 211.77 243.67 C 208.79 251.81 205.81 260.00 201.50 267.54 C 194.30 280.01 185.51 291.45 176.75 302.85 C 171.03 310.96 163.65 319.12 163.60 329.64 C 171.67 325.23 180.90 323.15 190.07 323.18 C 200.93 323.26 211.02 328.51 221.93 328.15 C 231.78 327.81 241.85 326.11 250.76 321.74 C 251.00 318.19 250.93 314.60 251.67 311.10 C 253.13 305.37 258.10 301.01 258.34 294.88 C 258.67 289.50 262.91 284.95 268.30 284.36 C 270.25 278.22 276.83 272.75 283.53 274.63 C 291.79 276.46 299.19 280.79 306.41 285.03 C 311.59 281.77 317.88 279.74 324.01 281.11 C 325.86 281.45 327.71 282.92 327.61 284.98 C 327.08 289.18 324.08 292.43 321.62 295.66 C 325.17 298.89 330.01 301.39 331.82 306.06 C 332.98 309.81 329.36 311.91 326.24 312.37 C 325.99 312.81 325.50 313.70 325.25 314.15 C 324.85 314.37 324.03 314.83 323.63 315.05 C 322.14 316.76 320.43 318.73 317.93 318.57 C 311.09 318.49 304.53 316.23 297.86 314.96 C 303.13 318.33 308.35 321.84 312.92 326.14 C 315.07 328.27 317.13 330.89 317.38 334.03 C 317.49 336.09 316.25 338.57 313.97 338.76 C 307.72 339.19 302.68 334.84 297.02 333.02 C 294.39 332.02 292.75 334.70 291.39 336.42 C 287.02 342.35 281.13 346.87 275.56 351.58 C 272.60 354.02 269.66 356.62 266.11 358.16 C 263.51 359.31 260.60 358.83 257.85 358.76 C 256.92 359.82 256.00 360.89 255.07 361.96 C 261.14 361.66 267.36 362.03 273.23 360.20 C 278.05 358.74 282.80 357.05 287.68 355.76 C 299.34 352.67 310.52 348.07 321.83 343.90 C 344.52 335.56 366.98 326.55 389.99 319.12 C 393.53 318.06 397.17 316.82 400.93 317.12 C 401.19 317.56 401.71 318.44 401.98 318.88 C 374.18 328.88 346.65 339.64 318.94 349.89 C 341.02 349.03 363.22 352.48 383.99 360.01 C 397.84 365.03 411.35 370.94 424.64 377.27 C 428.96 379.58 434.19 381.38 436.37 386.18 C 428.21 383.69 420.91 379.05 412.90 376.11 C 393.46 368.43 373.86 360.58 353.18 356.90 C 339.67 353.95 325.75 353.30 311.97 354.12 C 304.02 354.25 296.82 358.01 289.17 359.69 C 301.30 362.19 313.36 365.31 324.75 370.24 C 336.90 375.52 348.23 382.46 359.42 389.50 C 370.47 396.64 381.39 404.08 391.22 412.85 C 394.47 416.01 398.08 419.39 399.18 423.96 C 399.91 426.45 397.63 429.09 395.05 428.56 C 390.55 427.74 386.56 425.34 382.39 423.60 C 378.01 421.44 373.05 420.03 369.70 416.26 C 378.67 416.93 386.24 422.54 394.92 424.46 C 390.14 417.47 383.05 412.63 376.43 407.55 C 361.80 396.81 346.43 387.02 330.34 378.60 C 315.98 371.00 300.16 366.89 284.49 362.98 C 297.09 382.65 311.77 400.89 324.50 420.49 C 334.14 435.48 344.88 449.75 353.76 465.23 C 358.00 472.40 357.99 480.93 359.55 488.88 C 361.05 497.66 363.70 506.18 366.51 514.61 C 369.82 524.08 372.88 533.69 377.44 542.66 C 380.06 547.75 382.15 553.10 384.94 558.11 C 391.64 549.18 399.65 541.23 408.70 534.68 C 424.98 522.98 442.69 513.14 457.53 499.51 C 469.20 489.14 480.65 478.48 492.87 468.75 C 499.43 464.02 506.44 458.23 515.02 458.64 C 524.45 460.08 532.78 465.06 541.05 469.53 C 543.71 464.56 542.01 458.65 538.40 454.67 C 534.40 450.30 531.21 444.66 525.39 442.51 C 517.85 439.47 510.36 436.29 502.86 433.16 C 489.99 428.32 476.75 424.59 463.74 420.18 C 447.35 415.01 431.83 407.59 416.03 400.93 C 412.06 399.22 407.79 397.81 404.76 394.58 C 407.27 394.33 409.79 394.74 412.13 395.69 C 424.19 400.22 436.01 405.34 448.01 410.05 C 463.73 416.17 479.93 420.92 496.01 425.99 C 505.90 428.97 515.28 433.37 524.89 437.12 C 512.05 422.58 501.06 406.49 490.91 389.98 C 486.12 381.35 480.80 372.79 478.43 363.11 C 471.56 359.13 464.01 356.52 456.41 354.33 C 445.61 350.99 434.33 349.25 423.03 349.11 C 418.76 349.04 414.37 349.50 410.29 347.95 C 413.86 345.96 418.02 345.97 421.99 345.91 C 428.72 345.88 435.48 345.80 442.16 346.79 C 451.80 348.11 460.97 351.48 470.24 354.29 C 465.78 350.13 460.80 346.60 455.73 343.24 C 451.74 340.46 447.24 337.98 444.77 333.60 C 449.79 334.26 453.93 337.35 458.23 339.78 C 465.00 343.75 471.28 348.50 477.09 353.78 C 475.52 345.55 475.59 336.52 470.74 329.34 C 468.03 325.12 462.85 323.80 458.27 322.73 C 451.13 321.29 444.13 319.20 436.94 318.02 C 434.39 317.61 431.90 316.92 429.51 315.96 C 431.54 315.22 433.66 314.37 435.88 314.67 C 443.86 315.35 451.81 316.57 459.58 318.55 C 459.66 314.48 459.53 310.37 458.45 306.42 C 455.81 296.53 452.25 286.91 448.69 277.33 C 445.81 269.59 442.26 262.07 440.23 254.04 C 437.06 241.97 434.54 229.51 435.43 216.97 C 435.76 211.57 434.84 205.87 437.03 200.75 C 438.25 201.19 439.04 202.20 439.21 203.48 C 440.74 211.50 440.55 219.70 441.13 227.81 C 445.05 221.28 449.69 215.24 454.11 209.05 C 457.69 203.75 459.45 197.37 459.54 191.01 C 459.57 181.26 457.71 171.18 452.02 163.06 C 445.67 169.68 439.92 177.00 432.56 182.58 C 426.73 186.76 420.31 190.49 413.14 191.72 C 405.84 193.29 398.35 190.91 391.98 187.38 C 388.95 199.84 393.47 212.34 394.33 224.76 C 390.45 221.61 386.81 218.15 382.56 215.48 C 368.78 206.64 352.97 201.18 340.09 190.90 C 333.39 185.59 327.03 179.32 323.79 171.24 C 320.62 163.25 317.50 154.61 319.10 145.89 C 320.05 139.61 323.49 134.13 326.97 128.95 C 307.01 136.00 290.21 149.61 274.94 163.92 M 271.15 284.28 C 283.64 285.06 296.10 287.05 308.04 290.90 C 300.33 286.02 292.40 281.26 283.61 278.62 C 278.78 276.78 273.44 280.02 271.15 284.28 M 309.53 286.92 C 312.61 289.03 315.68 291.15 318.63 293.42 C 320.29 290.52 322.17 287.74 323.77 284.80 C 318.90 284.14 314.07 285.22 309.53 286.92 M 264.43 291.46 C 261.92 297.23 259.60 303.10 256.77 308.74 C 253.59 314.86 257.02 322.82 252.37 328.35 C 249.40 331.46 246.56 335.02 242.46 336.66 C 243.19 333.58 245.24 331.14 247.16 328.73 C 234.81 333.34 221.10 334.61 208.19 331.77 C 199.42 329.42 190.30 326.95 181.17 328.71 C 172.54 330.14 162.76 333.29 158.45 341.59 C 155.55 346.50 152.70 351.48 150.79 356.88 C 148.60 363.09 145.61 369.27 145.74 376.01 C 145.76 378.90 146.12 382.51 148.99 384.04 C 154.43 386.83 160.69 387.32 166.66 388.13 C 176.43 388.97 186.36 389.56 196.08 387.85 C 205.60 386.57 214.17 381.90 222.61 377.61 C 233.56 371.56 244.78 365.55 253.82 356.77 C 256.74 353.14 261.96 356.18 265.41 353.55 C 275.10 346.76 284.02 338.86 291.91 330.04 C 287.54 328.20 282.97 325.55 278.06 326.49 C 273.98 327.37 272.16 331.51 270.12 334.68 C 267.58 332.13 269.36 328.43 271.10 325.99 C 273.47 322.56 277.90 321.17 281.91 321.76 C 293.38 323.38 301.92 332.68 313.23 334.75 C 310.20 328.97 304.64 325.26 299.57 321.45 C 289.18 313.77 276.55 310.03 264.07 307.42 C 263.10 307.09 262.17 306.68 261.29 306.17 C 265.76 305.09 270.40 305.27 274.94 305.73 C 285.87 307.17 296.45 310.41 307.18 312.83 C 311.47 313.80 315.88 315.01 320.29 314.04 C 315.28 309.71 308.87 307.61 303.14 304.47 C 309.56 302.13 315.75 306.78 321.45 309.22 C 319.60 305.95 317.65 302.70 315.14 299.89 C 312.82 297.24 309.43 295.94 306.20 294.81 C 295.48 291.21 284.23 289.44 272.99 288.59 C 270.01 288.60 265.88 288.13 264.43 291.46 M 321.13 300.86 C 322.67 303.41 324.07 306.04 325.42 308.69 C 326.10 308.54 327.46 308.24 328.14 308.09 C 326.45 305.11 323.69 303.04 321.13 300.86 M 505.98 465.95 C 494.67 472.22 485.33 481.31 475.53 489.61 C 465.43 498.18 456.02 507.59 445.10 515.14 C 431.00 525.42 415.34 533.57 402.42 545.43 C 397.93 549.63 392.97 553.79 390.27 559.42 C 395.28 569.00 403.46 576.39 411.62 583.27 C 419.82 590.18 429.91 594.12 439.60 598.42 C 448.31 601.89 456.33 606.80 464.38 611.56 C 473.42 616.95 481.91 623.20 490.10 629.80 C 512.98 648.64 535.37 668.09 557.21 688.14 C 558.60 684.81 560.22 681.46 562.87 678.93 C 565.93 675.90 569.67 673.20 571.11 668.95 C 573.84 661.20 574.79 652.97 576.97 645.07 C 580.33 630.09 586.69 615.87 595.21 603.12 C 603.29 591.18 612.31 579.68 623.27 570.23 C 625.21 568.98 627.59 566.12 629.96 568.10 C 633.49 570.48 636.06 573.97 639.13 576.87 C 648.75 586.03 657.56 595.98 666.89 605.43 C 670.45 602.26 674.14 598.88 679.02 598.02 C 673.08 591.88 668.19 584.83 662.38 578.58 C 650.54 565.46 638.72 551.85 623.60 542.39 C 615.07 537.07 607.16 530.85 599.18 524.76 C 595.20 521.71 592.27 517.61 589.39 513.57 C 584.72 507.02 578.87 501.40 572.54 496.47 C 558.24 485.77 543.44 475.67 527.64 467.28 C 524.52 465.68 521.33 464.11 517.90 463.33 C 513.76 462.44 509.60 464.07 505.98 465.95 M 594.20 615.32 C 585.75 630.12 581.82 646.84 578.06 663.30 C 590.86 663.26 603.27 667.65 614.45 673.61 C 624.12 679.63 630.57 689.48 636.71 698.81 C 640.58 692.65 646.56 688.18 652.96 684.89 C 665.56 678.58 680.04 675.72 694.08 677.39 C 688.28 665.68 684.32 653.06 682.43 640.13 C 681.51 633.66 679.10 627.26 674.60 622.42 C 666.05 612.99 657.00 604.03 648.45 594.60 C 641.61 586.80 634.09 579.63 627.22 571.86 C 614.47 584.88 603.16 599.43 594.20 615.32 M 670.54 609.01 C 675.91 614.81 682.19 620.20 685.22 627.71 C 687.66 633.23 688.28 639.29 689.34 645.17 C 691.24 656.68 695.21 667.71 699.47 678.52 C 703.08 679.91 706.44 681.91 709.17 684.69 C 710.81 678.63 712.45 672.56 714.69 666.69 C 716.27 662.01 718.46 656.99 716.98 652.00 C 714.27 642.55 707.69 634.92 701.14 627.86 C 693.91 619.49 686.40 611.36 678.56 603.56 C 675.43 604.62 672.99 606.89 670.54 609.01 M 651.98 692.06 C 646.97 695.23 641.81 699.23 639.76 705.00 C 641.50 720.49 646.97 735.34 653.54 749.41 C 658.96 761.81 666.32 773.21 673.24 784.79 C 682.05 798.62 692.45 811.40 703.95 823.08 C 717.43 838.57 731.76 853.31 744.89 869.12 C 756.54 883.32 768.76 897.28 777.58 913.49 C 780.58 905.40 783.49 897.22 787.73 889.68 C 792.07 881.36 797.77 873.37 805.93 868.44 C 800.13 862.81 795.73 855.97 792.21 848.74 C 785.82 836.26 779.71 823.61 774.37 810.64 C 770.28 800.70 765.16 791.24 760.36 781.63 C 749.07 758.29 736.46 735.54 721.85 714.10 C 715.96 705.15 710.60 695.67 702.80 688.19 C 699.20 684.54 693.93 683.60 689.05 683.08 C 676.16 682.04 663.08 685.55 651.98 692.06 M 621.50 718.42 C 615.02 734.32 612.05 751.32 608.79 768.10 C 605.79 783.56 604.03 799.25 603.51 814.99 C 602.42 848.39 600.43 881.84 595.20 914.88 C 594.74 916.86 595.02 918.96 596.46 920.50 C 600.84 926.01 605.87 932.16 613.16 933.56 C 619.33 933.81 624.73 930.07 629.54 926.63 C 635.04 922.41 641.28 919.14 646.31 914.31 C 651.32 909.74 651.58 902.52 653.54 896.45 C 656.87 882.13 663.16 868.79 667.59 854.83 C 673.24 839.72 678.81 824.57 685.26 809.79 C 679.99 802.39 674.19 795.38 669.25 787.76 C 663.48 778.44 657.70 769.10 652.71 759.33 C 644.40 742.15 636.46 724.19 635.24 704.89 C 633.54 702.67 631.88 700.41 630.25 698.15 C 627.02 704.76 624.23 711.58 621.50 718.42 M 809.47 872.65 C 802.20 874.79 797.69 881.68 793.79 887.71 C 788.84 896.82 784.37 906.35 782.46 916.61 C 779.28 928.49 780.14 941.06 783.14 952.88 C 785.35 961.11 790.87 969.03 799.14 972.01 C 804.66 974.40 810.94 972.69 815.99 969.96 C 821.68 966.74 824.00 960.21 826.55 954.58 C 830.09 945.62 835.87 937.26 844.18 932.13 C 851.25 927.81 858.60 923.46 863.73 916.77 C 867.21 911.87 870.92 906.29 870.47 900.01 C 870.33 896.23 867.22 893.63 864.54 891.42 C 855.45 884.40 844.15 881.46 833.64 877.31 C 825.87 874.75 817.79 871.40 809.47 872.65 M 580.84 924.77 C 576.13 934.52 572.00 944.62 568.97 955.03 C 567.34 959.44 570.61 963.54 573.75 966.28 C 578.52 970.25 585.12 970.19 591.00 970.54 C 606.22 970.66 621.63 971.46 636.38 975.54 C 647.47 978.43 657.60 984.43 669.04 986.14 C 687.14 988.90 705.74 986.48 723.12 981.03 C 728.23 979.34 733.66 977.23 736.98 972.76 C 736.32 969.87 733.73 968.05 731.37 966.58 C 722.39 961.23 711.78 959.93 702.29 955.83 C 694.72 952.44 690.21 945.11 684.18 939.78 C 674.40 930.33 663.72 921.48 651.10 916.09 C 644.83 921.61 637.86 926.26 631.17 931.24 C 625.33 934.99 618.87 939.98 611.49 938.33 C 603.37 936.46 596.78 930.42 592.43 923.54 C 590.21 920.33 590.80 916.26 590.70 912.59 C 586.65 915.96 583.10 919.97 580.84 924.77 Z" />
		<path fill="#020202" opacity="1.00"
			d=" M 432.85 146.66 C 437.34 145.28 440.93 142.01 445.22 140.17 C 444.75 143.76 446.12 149.16 442.10 151.10 C 438.15 152.28 433.75 152.16 429.81 151.03 C 427.49 150.39 428.11 147.36 427.41 145.58 C 429.22 145.91 431.00 146.49 432.85 146.66 Z" />
		<path fill="#020202" opacity="1.00"
			d=" M 395.50 158.91 C 396.68 156.20 399.47 158.05 401.50 158.52 C 409.66 161.48 417.79 164.56 425.83 167.85 C 427.78 168.81 430.38 169.37 431.09 171.73 C 429.57 171.80 428.06 171.80 426.55 171.72 C 424.81 173.02 422.76 174.42 420.54 173.31 C 413.83 170.81 406.70 169.09 400.46 165.53 C 399.20 163.02 397.62 160.78 395.50 158.91 Z" />
		<path fill="#020202" opacity="1.00"
			d=" M 268.18 297.91 C 273.62 295.75 279.59 297.75 285.15 298.47 C 290.48 299.77 296.52 299.56 301.03 303.08 C 296.35 303.82 291.70 302.65 287.06 302.12 C 281.31 301.35 275.39 301.20 269.82 299.39 C 269.41 299.02 268.59 298.28 268.18 297.91 Z" />
		<path fill="#020202" opacity="1.00"
			d=" M 814.24 904.15 C 823.80 895.23 836.72 888.42 850.14 890.14 C 855.57 890.98 862.00 892.83 864.15 898.52 C 858.18 897.07 852.42 894.01 846.10 894.80 C 831.44 896.11 818.76 905.65 810.08 917.08 C 803.58 925.62 799.18 935.78 797.55 946.40 C 796.62 952.33 797.76 958.30 797.81 964.26 C 796.74 963.68 795.08 963.83 794.50 962.61 C 792.79 958.99 792.70 954.88 792.61 950.96 C 792.69 933.19 801.53 916.24 814.24 904.15 Z" />
	</g>
	<g id="#f0b58bff">
		<path fill="#f0b58b" opacity="1.00"
			d=" M 405.58 52.76 C 409.29 56.32 413.16 60.07 414.95 65.02 C 415.91 67.25 416.07 69.91 417.85 71.71 C 419.66 66.92 421.28 61.66 425.45 58.33 C 427.40 56.63 430.09 56.50 432.54 56.17 C 431.86 64.79 434.15 73.24 438.30 80.76 C 439.96 73.66 441.32 65.68 447.41 60.86 C 450.13 69.89 453.60 78.69 457.96 87.05 C 458.82 88.65 460.02 90.01 461.20 91.39 C 463.32 83.31 465.78 75.28 469.31 67.69 C 472.24 74.54 475.08 81.43 478.43 88.09 C 475.60 93.98 473.42 100.14 471.07 106.23 C 465.43 106.15 459.43 104.75 454.04 106.98 C 448.54 111.77 445.91 118.96 444.92 126.03 C 444.26 130.56 441.48 136.10 444.90 140.11 C 449.28 134.81 449.66 127.52 450.75 121.00 C 455.08 122.56 459.45 124.21 463.10 127.11 C 458.45 137.88 454.57 149.16 448.13 159.03 C 440.44 167.65 433.08 177.14 422.63 182.59 C 416.87 185.88 410.01 188.04 403.39 186.33 C 394.65 184.20 386.98 178.59 381.46 171.58 C 377.54 167.16 375.03 161.55 370.33 157.82 C 374.09 168.03 380.17 177.54 388.79 184.31 C 384.81 193.57 386.66 203.79 388.20 213.38 C 371.86 201.45 351.42 195.64 337.02 180.94 C 329.63 174.32 326.32 164.59 324.26 155.16 C 322.59 146.94 325.84 138.77 330.11 131.88 C 336.96 131.78 343.58 129.02 349.01 124.93 C 353.91 121.20 356.66 115.46 358.80 109.85 C 362.91 100.02 357.15 89.12 361.15 79.26 C 362.31 75.62 365.97 73.04 369.78 73.13 C 373.65 73.89 375.70 77.79 376.79 81.24 C 379.47 88.41 376.61 95.94 374.91 102.99 C 373.64 108.51 370.90 113.55 369.45 119.00 C 369.61 121.27 371.85 119.42 372.49 118.62 C 376.79 113.44 378.43 106.83 380.80 100.69 C 382.07 97.22 384.79 94.62 387.97 92.85 C 401.16 97.79 414.60 102.05 427.70 107.24 C 430.09 107.99 432.76 109.56 435.27 108.40 C 437.84 105.54 438.16 101.43 438.83 97.81 C 430.17 91.59 420.09 87.79 410.40 83.52 C 405.29 80.74 399.75 84.02 394.40 84.01 C 398.22 75.01 398.93 64.16 394.04 55.42 C 396.86 57.38 398.64 60.37 399.70 63.59 C 400.56 65.24 400.71 67.93 403.04 68.12 C 407.12 64.24 405.27 57.77 405.58 52.76 M 432.85 146.66 C 431.00 146.49 429.22 145.91 427.41 145.58 C 428.11 147.36 427.49 150.39 429.81 151.03 C 433.75 152.16 438.15 152.28 442.10 151.10 C 446.12 149.16 444.75 143.76 445.22 140.17 C 440.93 142.01 437.34 145.28 432.85 146.66 M 395.50 158.91 C 397.62 160.78 399.20 163.02 400.46 165.53 C 406.70 169.09 413.83 170.81 420.54 173.31 C 422.76 174.42 424.81 173.02 426.55 171.72 C 428.06 171.80 429.57 171.80 431.09 171.73 C 430.38 169.37 427.78 168.81 425.83 167.85 C 417.79 164.56 409.66 161.48 401.50 158.52 C 399.47 158.05 396.68 156.20 395.50 158.91 Z" />
		<path fill="#f0b58b" opacity="1.00"
			d=" M 608.46 72.41 C 610.19 71.04 611.92 69.53 614.08 68.89 C 616.48 68.90 618.52 70.44 620.59 71.49 C 628.23 76.01 636.41 79.52 644.09 83.97 C 639.65 85.31 635.38 87.18 630.90 88.38 C 627.92 89.21 624.63 89.16 621.99 90.93 C 624.17 94.24 628.79 92.65 632.07 92.57 C 640.10 90.81 647.83 87.72 656.04 86.69 C 657.84 86.42 659.57 87.19 661.31 87.62 C 651.86 95.60 639.33 98.41 629.06 105.11 C 623.06 108.16 619.13 114.32 612.58 116.38 C 608.09 118.04 603.14 118.16 598.63 116.55 C 592.99 114.56 588.26 119.11 583.76 121.75 C 570.24 129.97 558.05 140.15 544.81 148.77 C 543.72 149.29 542.75 150.02 541.93 150.89 C 540.28 152.34 538.53 153.72 536.61 154.79 C 536.20 155.12 535.36 155.77 534.94 156.09 C 534.63 156.28 534.00 156.64 533.68 156.83 C 532.53 157.30 531.53 158.06 530.71 158.98 C 530.49 159.16 530.05 159.52 529.83 159.70 C 528.79 160.31 527.86 161.09 527.09 162.01 C 526.82 162.23 526.27 162.69 525.99 162.91 C 525.03 163.22 524.26 163.79 523.69 164.61 C 504.64 180.74 484.18 195.39 462.20 207.29 C 466.79 195.66 465.44 182.52 461.15 171.02 C 459.70 166.86 457.00 163.34 454.38 159.87 C 457.46 154.17 460.10 148.24 462.45 142.21 C 471.03 142.12 479.19 139.19 486.99 135.89 C 512.56 124.47 538.11 112.95 562.90 99.91 C 571.24 95.53 579.87 91.72 588.07 87.06 C 595.54 83.20 602.03 77.77 608.46 72.41 Z" />
		<path fill="#f0b58b" opacity="1.00"
			d=" M 641.75 104.07 C 644.46 102.87 647.16 101.65 649.86 100.41 C 647.12 107.78 646.49 115.79 643.15 122.95 C 642.02 116.71 642.59 110.33 641.75 104.07 Z" />
		<path fill="#f0b58b" opacity="1.00"
			d=" M 271.15 284.28 C 273.44 280.02 278.78 276.78 283.61 278.62 C 292.40 281.26 300.33 286.02 308.04 290.90 C 296.10 287.05 283.64 285.06 271.15 284.28 Z" />
		<path fill="#f0b58b" opacity="1.00"
			d=" M 309.53 286.92 C 314.07 285.22 318.90 284.14 323.77 284.80 C 322.17 287.74 320.29 290.52 318.63 293.42 C 315.68 291.15 312.61 289.03 309.53 286.92 Z" />
		<path fill="#f0b58b" opacity="1.00"
			d=" M 264.43 291.46 C 265.88 288.13 270.01 288.60 272.99 288.59 C 284.23 289.44 295.48 291.21 306.20 294.81 C 309.43 295.94 312.82 297.24 315.14 299.89 C 317.65 302.70 319.60 305.95 321.45 309.22 C 315.75 306.78 309.56 302.13 303.14 304.47 C 308.87 307.61 315.28 309.71 320.29 314.04 C 315.88 315.01 311.47 313.80 307.18 312.83 C 296.45 310.41 285.87 307.17 274.94 305.73 C 270.40 305.27 265.76 305.09 261.29 306.17 C 262.17 306.68 263.10 307.09 264.07 307.42 C 276.55 310.03 289.18 313.77 299.57 321.45 C 304.64 325.26 310.20 328.97 313.23 334.75 C 301.92 332.68 293.38 323.38 281.91 321.76 C 277.90 321.17 273.47 322.56 271.10 325.99 C 269.36 328.43 267.58 332.13 270.12 334.68 C 272.16 331.51 273.98 327.37 278.06 326.49 C 282.97 325.55 287.54 328.20 291.91 330.04 C 284.02 338.86 275.10 346.76 265.41 353.55 C 261.96 356.18 256.74 353.14 253.82 356.77 C 244.78 365.55 233.56 371.56 222.61 377.61 C 214.17 381.90 205.60 386.57 196.08 387.85 C 186.36 389.56 176.43 388.97 166.66 388.13 C 160.69 387.32 154.43 386.83 148.99 384.04 C 146.12 382.51 145.76 378.90 145.74 376.01 C 145.61 369.27 148.60 363.09 150.79 356.88 C 152.70 351.48 155.55 346.50 158.45 341.59 C 162.76 333.29 172.54 330.14 181.17 328.71 C 190.30 326.95 199.42 329.42 208.19 331.77 C 221.10 334.61 234.81 333.34 247.16 328.73 C 245.24 331.14 243.19 333.58 242.46 336.66 C 246.56 335.02 249.40 331.46 252.37 328.35 C 257.02 322.82 253.59 314.86 256.77 308.74 C 259.60 303.10 261.92 297.23 264.43 291.46 M 268.18 297.91 C 268.59 298.28 269.41 299.02 269.82 299.39 C 275.39 301.20 281.31 301.35 287.06 302.12 C 291.70 302.65 296.35 303.82 301.03 303.08 C 296.52 299.56 290.48 299.77 285.15 298.47 C 279.59 297.75 273.62 295.75 268.18 297.91 Z" />
		<path fill="#f0b58b" opacity="1.00"
			d=" M 321.13 300.86 C 323.69 303.04 326.45 305.11 328.14 308.09 C 327.46 308.24 326.10 308.54 325.42 308.69 C 324.07 306.04 322.67 303.41 321.13 300.86 Z" />
		<path fill="#f0b58b" opacity="1.00"
			d=" M 594.20 615.32 C 603.16 599.43 614.47 584.88 627.22 571.86 C 634.09 579.63 641.61 586.80 648.45 594.60 C 657.00 604.03 666.05 612.99 674.60 622.42 C 679.10 627.26 681.51 633.66 682.43 640.13 C 684.32 653.06 688.28 665.68 694.08 677.39 C 680.04 675.72 665.56 678.58 652.96 684.89 C 646.56 688.18 640.58 692.65 636.71 698.81 C 630.57 689.48 624.12 679.63 614.45 673.61 C 603.27 667.65 590.86 663.26 578.06 663.30 C 581.82 646.84 585.75 630.12 594.20 615.32 Z" />
		<path fill="#f0b58b" opacity="1.00"
			d=" M 670.54 609.01 C 672.99 606.89 675.43 604.62 678.56 603.56 C 686.40 611.36 693.91 619.49 701.14 627.86 C 707.69 634.92 714.27 642.55 716.98 652.00 C 718.46 656.99 716.27 662.01 714.69 666.69 C 712.45 672.56 710.81 678.63 709.17 684.69 C 706.44 681.91 703.08 679.91 699.47 678.52 C 695.21 667.71 691.24 656.68 689.34 645.17 C 688.28 639.29 687.66 633.23 685.22 627.71 C 682.19 620.20 675.91 614.81 670.54 609.01 Z" />
	</g>
	<g id="#f11b27ff">
		<path fill="var(--shirt-color, grey)" opacity="1.00"
			d=" M 274.94 163.92 C 290.21 149.61 307.01 136.00 326.97 128.95 C 323.49 134.13 320.05 139.61 319.10 145.89 C 317.50 154.61 320.62 163.25 323.79 171.24 C 327.03 179.32 333.39 185.59 340.09 190.90 C 352.97 201.18 368.78 206.64 382.56 215.48 C 386.81 218.15 390.45 221.61 394.33 224.76 C 393.47 212.34 388.95 199.84 391.98 187.38 C 398.35 190.91 405.84 193.29 413.14 191.72 C 420.31 190.49 426.73 186.76 432.56 182.58 C 439.92 177.00 445.67 169.68 452.02 163.06 C 457.71 171.18 459.57 181.26 459.54 191.01 C 459.45 197.37 457.69 203.75 454.11 209.05 C 449.69 215.24 445.05 221.28 441.13 227.81 C 440.55 219.70 440.74 211.50 439.21 203.48 C 439.04 202.20 438.25 201.19 437.03 200.75 C 434.84 205.87 435.76 211.57 435.43 216.97 C 434.54 229.51 437.06 241.97 440.23 254.04 C 442.26 262.07 445.81 269.59 448.69 277.33 C 452.25 286.91 455.81 296.53 458.45 306.42 C 459.53 310.37 459.66 314.48 459.58 318.55 C 451.81 316.57 443.86 315.35 435.88 314.67 C 433.66 314.37 431.54 315.22 429.51 315.96 C 431.90 316.92 434.39 317.61 436.94 318.02 C 444.13 319.20 451.13 321.29 458.27 322.73 C 462.85 323.80 468.03 325.12 470.74 329.34 C 475.59 336.52 475.52 345.55 477.09 353.78 C 471.28 348.50 465.00 343.75 458.23 339.78 C 453.93 337.35 449.79 334.26 444.77 333.60 C 447.24 337.98 451.74 340.46 455.73 343.24 C 460.80 346.60 465.78 350.13 470.24 354.29 C 460.97 351.48 451.80 348.11 442.16 346.79 C 435.48 345.80 428.72 345.88 421.99 345.91 C 418.02 345.97 413.86 345.96 410.29 347.95 C 414.37 349.50 418.76 349.04 423.03 349.11 C 434.33 349.25 445.61 350.99 456.41 354.33 C 464.01 356.52 471.56 359.13 478.43 363.11 C 480.80 372.79 486.12 381.35 490.91 389.98 C 501.06 406.49 512.05 422.58 524.89 437.12 C 515.28 433.37 505.90 428.97 496.01 425.99 C 479.93 420.92 463.73 416.17 448.01 410.05 C 436.01 405.34 424.19 400.22 412.13 395.69 C 409.79 394.74 407.27 394.33 404.76 394.58 C 407.79 397.81 412.06 399.22 416.03 400.93 C 431.83 407.59 447.35 415.01 463.74 420.18 C 476.75 424.59 489.99 428.32 502.86 433.16 C 510.36 436.29 517.85 439.47 525.39 442.51 C 531.21 444.66 534.40 450.30 538.40 454.67 C 542.01 458.65 543.71 464.56 541.05 469.53 C 532.78 465.06 524.45 460.08 515.02 458.64 C 506.44 458.23 499.43 464.02 492.87 468.75 C 480.65 478.48 469.20 489.14 457.53 499.51 C 442.69 513.14 424.98 522.98 408.70 534.68 C 399.65 541.23 391.64 549.18 384.94 558.11 C 382.15 553.10 380.06 547.75 377.44 542.66 C 372.88 533.69 369.82 524.08 366.51 514.61 C 363.70 506.18 361.05 497.66 359.55 488.88 C 357.99 480.93 358.00 472.40 353.76 465.23 C 344.88 449.75 334.14 435.48 324.50 420.49 C 311.77 400.89 297.09 382.65 284.49 362.98 C 300.16 366.89 315.98 371.00 330.34 378.60 C 346.43 387.02 361.80 396.81 376.43 407.55 C 383.05 412.63 390.14 417.47 394.92 424.46 C 386.24 422.54 378.67 416.93 369.70 416.26 C 373.05 420.03 378.01 421.44 382.39 423.60 C 386.56 425.34 390.55 427.74 395.05 428.56 C 397.63 429.09 399.91 426.45 399.18 423.96 C 398.08 419.39 394.47 416.01 391.22 412.85 C 381.39 404.08 370.47 396.64 359.42 389.50 C 348.23 382.46 336.90 375.52 324.75 370.24 C 313.36 365.31 301.30 362.19 289.17 359.69 C 296.82 358.01 304.02 354.25 311.97 354.12 C 325.75 353.30 339.67 353.95 353.18 356.90 C 373.86 360.58 393.46 368.43 412.90 376.11 C 420.91 379.05 428.21 383.69 436.37 386.18 C 434.19 381.38 428.96 379.58 424.64 377.27 C 411.35 370.94 397.84 365.03 383.99 360.01 C 363.22 352.48 341.02 349.03 318.94 349.89 C 346.65 339.64 374.18 328.88 401.98 318.88 C 401.71 318.44 401.19 317.56 400.93 317.12 C 397.17 316.82 393.53 318.06 389.99 319.12 C 366.98 326.55 344.52 335.56 321.83 343.90 C 310.52 348.07 299.34 352.67 287.68 355.76 C 282.80 357.05 278.05 358.74 273.23 360.20 C 267.36 362.03 261.14 361.66 255.07 361.96 C 256.00 360.89 256.92 359.82 257.85 358.76 C 260.60 358.83 263.51 359.31 266.11 358.16 C 269.66 356.62 272.60 354.02 275.56 351.58 C 281.13 346.87 287.02 342.35 291.39 336.42 C 292.75 334.70 294.39 332.02 297.02 333.02 C 302.68 334.84 307.72 339.19 313.97 338.76 C 316.25 338.57 317.49 336.09 317.38 334.03 C 317.13 330.89 315.07 328.27 312.92 326.14 C 308.35 321.84 303.13 318.33 297.86 314.96 C 304.53 316.23 311.09 318.49 317.93 318.57 C 320.43 318.73 322.14 316.76 323.63 315.05 C 324.03 314.83 324.85 314.37 325.25 314.15 C 325.50 313.70 325.99 312.81 326.24 312.37 C 329.36 311.91 332.98 309.81 331.82 306.06 C 330.01 301.39 325.17 298.89 321.62 295.66 C 324.08 292.43 327.08 289.18 327.61 284.98 C 327.71 282.92 325.86 281.45 324.01 281.11 C 317.88 279.74 311.59 281.77 306.41 285.03 C 299.19 280.79 291.79 276.46 283.53 274.63 C 276.83 272.75 270.25 278.22 268.30 284.36 C 262.91 284.95 258.67 289.50 258.34 294.88 C 258.10 301.01 253.13 305.37 251.67 311.10 C 250.93 314.60 251.00 318.19 250.76 321.74 C 241.85 326.11 231.78 327.81 221.93 328.15 C 211.02 328.51 200.93 323.26 190.07 323.18 C 180.90 323.15 171.67 325.23 163.60 329.64 C 163.65 319.12 171.03 310.96 176.75 302.85 C 185.51 291.45 194.30 280.01 201.50 267.54 C 205.81 260.00 208.79 251.81 211.77 243.67 C 214.46 236.45 215.30 228.34 220.16 222.08 C 224.60 215.82 232.02 212.71 236.89 206.87 C 241.23 201.75 244.50 195.83 248.64 190.56 C 256.20 180.57 265.81 172.42 274.94 163.92 Z" />
	</g>
	<g id="#2b3dcdff">
		<path fill="var(--pants-color, grey)" opacity="1.00"
			d=" M 505.98 465.95 C 509.60 464.07 513.76 462.44 517.90 463.33 C 521.33 464.11 524.52 465.68 527.64 467.28 C 543.44 475.67 558.24 485.77 572.54 496.47 C 578.87 501.40 584.72 507.02 589.39 513.57 C 592.27 517.61 595.20 521.71 599.18 524.76 C 607.16 530.85 615.07 537.07 623.60 542.39 C 638.72 551.85 650.54 565.46 662.38 578.58 C 668.19 584.83 673.08 591.88 679.02 598.02 C 674.14 598.88 670.45 602.26 666.89 605.43 C 657.56 595.98 648.75 586.03 639.13 576.87 C 636.06 573.97 633.49 570.48 629.96 568.10 C 627.59 566.12 625.21 568.98 623.27 570.23 C 612.31 579.68 603.29 591.18 595.21 603.12 C 586.69 615.87 580.33 630.09 576.97 645.07 C 574.79 652.97 573.84 661.20 571.11 668.95 C 569.67 673.20 565.93 675.90 562.87 678.93 C 560.22 681.46 558.60 684.81 557.21 688.14 C 535.37 668.09 512.98 648.64 490.10 629.80 C 481.91 623.20 473.42 616.95 464.38 611.56 C 456.33 606.80 448.31 601.89 439.60 598.42 C 429.91 594.12 419.82 590.18 411.62 583.27 C 403.46 576.39 395.28 569.00 390.27 559.42 C 392.97 553.79 397.93 549.63 402.42 545.43 C 415.34 533.57 431.00 525.42 445.10 515.14 C 456.02 507.59 465.43 498.18 475.53 489.61 C 485.33 481.31 494.67 472.22 505.98 465.95 Z" />
		<path fill="var(--socks-color, grey)" opacity="1.00"
			d=" M 651.98 692.06 C 663.08 685.55 676.16 682.04 689.05 683.08 C 693.93 683.60 699.20 684.54 702.80 688.19 C 710.60 695.67 715.96 705.15 721.85 714.10 C 736.46 735.54 749.07 758.29 760.36 781.63 C 765.16 791.24 770.28 800.70 774.37 810.64 C 779.71 823.61 785.82 836.26 792.21 848.74 C 795.73 855.97 800.13 862.81 805.93 868.44 C 797.77 873.37 792.07 881.36 787.73 889.68 C 783.49 897.22 780.58 905.40 777.58 913.49 C 768.76 897.28 756.54 883.32 744.89 869.12 C 731.76 853.31 717.43 838.57 703.95 823.08 C 692.45 811.40 682.05 798.62 673.24 784.79 C 666.32 773.21 658.96 761.81 653.54 749.41 C 646.97 735.34 641.50 720.49 639.76 705.00 C 641.81 699.23 646.97 695.23 651.98 692.06 Z" />
		<path fill="var(--socks-color, grey)" opacity="1.00"
			d=" M 621.50 718.42 C 624.23 711.58 627.02 704.76 630.25 698.15 C 631.88 700.41 633.54 702.67 635.24 704.89 C 636.46 724.19 644.40 742.15 652.71 759.33 C 657.70 769.10 663.48 778.44 669.25 787.76 C 674.19 795.38 679.99 802.39 685.26 809.79 C 678.81 824.57 673.24 839.72 667.59 854.83 C 663.16 868.79 656.87 882.13 653.54 896.45 C 651.58 902.52 651.32 909.74 646.31 914.31 C 641.28 919.14 635.04 922.41 629.54 926.63 C 624.73 930.07 619.33 933.81 613.16 933.56 C 605.87 932.16 600.84 926.01 596.46 920.50 C 595.02 918.96 594.74 916.86 595.20 914.88 C 600.43 881.84 602.42 848.39 603.51 814.99 C 604.03 799.25 605.79 783.56 608.79 768.10 C 612.05 751.32 615.02 734.32 621.50 718.42 Z" />
	</g>
	<g id="#4d4d4dff">
		<path fill="#4d4d4d" opacity="1.00"
			d=" M 809.47 872.65 C 817.79 871.40 825.87 874.75 833.64 877.31 C 844.15 881.46 855.45 884.40 864.54 891.42 C 867.22 893.63 870.33 896.23 870.47 900.01 C 870.92 906.29 867.21 911.87 863.73 916.77 C 858.60 923.46 851.25 927.81 844.18 932.13 C 835.87 937.26 830.09 945.62 826.55 954.58 C 824.00 960.21 821.68 966.74 815.99 969.96 C 810.94 972.69 804.66 974.40 799.14 972.01 C 790.87 969.03 785.35 961.11 783.14 952.88 C 780.14 941.06 779.28 928.49 782.46 916.61 C 784.37 906.35 788.84 896.82 793.79 887.71 C 797.69 881.68 802.20 874.79 809.47 872.65 M 814.24 904.15 C 801.53 916.24 792.69 933.19 792.61 950.96 C 792.70 954.88 792.79 958.99 794.50 962.61 C 795.08 963.83 796.74 963.68 797.81 964.26 C 797.76 958.30 796.62 952.33 797.55 946.40 C 799.18 935.78 803.58 925.62 810.08 917.08 C 818.76 905.65 831.44 896.11 846.10 894.80 C 852.42 894.01 858.18 897.07 864.15 898.52 C 862.00 892.83 855.57 890.98 850.14 890.14 C 836.72 888.42 823.80 895.23 814.24 904.15 Z" />
		<path fill="#4d4d4d" opacity="1.00"
			d=" M 580.84 924.77 C 583.10 919.97 586.65 915.96 590.70 912.59 C 590.80 916.26 590.21 920.33 592.43 923.54 C 596.78 930.42 603.37 936.46 611.49 938.33 C 618.87 939.98 625.33 934.99 631.17 931.24 C 637.86 926.26 644.83 921.61 651.10 916.09 C 663.72 921.48 674.40 930.33 684.18 939.78 C 690.21 945.11 694.72 952.44 702.29 955.83 C 711.78 959.93 722.39 961.23 731.37 966.58 C 733.73 968.05 736.32 969.87 736.98 972.76 C 733.66 977.23 728.23 979.34 723.12 981.03 C 705.74 986.48 687.14 988.90 669.04 986.14 C 657.60 984.43 647.47 978.43 636.38 975.54 C 621.63 971.46 606.22 970.66 591.00 970.54 C 585.12 970.19 578.52 970.25 573.75 966.28 C 570.61 963.54 567.34 959.44 568.97 955.03 C 572.00 944.62 576.13 934.52 580.84 924.77 Z" />
	</g>
</svg>