<?xml version="1.0" encoding="UTF-8" ?>
<!DOCTYPE svg PUBLIC "-//W3C//DTD SVG 1.1//EN" "http://www.w3.org/Graphics/SVG/1.1/DTD/svg11.dtd">
<svg width="1000pt" height="1000pt" viewBox="0 0 1000 1000" version="1.1" xmlns="http://www.w3.org/2000/svg">
	<g id="#020202ff">
		<path fill="#020202" opacity="1.00"
			d=" M 530.46 18.50 C 544.51 8.78 562.08 4.64 579.03 6.20 C 593.37 6.82 607.02 13.89 616.76 24.25 C 629.37 38.54 631.01 58.95 629.43 77.12 C 627.08 90.19 632.56 102.78 636.21 115.05 C 637.00 117.07 635.40 118.88 633.72 119.75 C 629.58 122.01 624.94 123.07 620.37 124.03 C 616.56 134.28 613.90 144.89 610.37 155.22 C 609.29 158.39 607.15 162.91 602.99 161.61 C 592.12 159.28 583.74 151.31 575.58 144.28 C 571.34 150.99 567.66 158.14 565.81 165.91 C 569.18 167.07 569.77 170.65 570.60 173.65 C 575.39 190.65 580.23 207.66 583.82 224.97 C 586.07 236.49 586.51 248.28 586.16 259.99 C 585.77 272.93 582.21 285.55 577.51 297.54 C 575.67 302.16 574.01 306.84 572.83 311.68 C 572.15 314.75 570.32 317.34 568.16 319.55 C 567.64 322.34 567.14 325.14 566.67 327.94 C 573.60 332.31 580.16 337.28 586.24 342.78 C 593.00 349.05 599.06 356.60 607.90 360.05 C 615.54 363.64 625.30 363.89 630.80 371.09 C 637.04 379.42 641.55 390.41 638.60 400.86 C 636.23 408.51 630.82 414.71 625.40 420.40 C 623.38 422.27 621.50 424.54 618.87 425.52 C 616.20 426.46 614.11 424.15 612.16 422.75 C 607.35 423.27 602.33 423.76 597.63 422.32 C 594.58 421.28 594.42 417.57 593.70 414.95 C 592.04 407.38 590.78 398.83 584.59 393.46 C 577.90 387.61 570.16 383.10 563.61 377.07 C 563.27 391.06 566.09 405.04 564.18 419.00 C 563.46 426.38 561.08 433.55 561.22 441.01 C 561.25 445.73 561.38 450.75 559.17 455.06 C 557.88 457.63 555.21 458.95 552.93 460.48 C 553.96 462.62 554.78 464.91 556.29 466.79 C 567.54 478.91 571.38 495.67 574.60 511.40 C 577.25 511.95 580.85 512.02 581.77 515.18 C 583.50 520.70 583.25 526.78 585.91 532.04 C 593.72 547.55 605.29 561.38 609.59 578.50 C 610.81 582.66 610.73 587.07 609.67 591.26 C 607.61 591.49 605.55 591.68 603.50 591.88 C 605.51 600.93 612.22 607.79 615.86 616.13 C 619.12 622.92 621.31 631.05 618.20 638.31 C 613.86 648.24 605.35 655.35 598.72 663.67 C 593.15 671.88 589.62 681.24 585.18 690.06 C 580.44 699.97 574.77 709.42 570.71 719.64 C 568.14 726.27 564.96 732.79 563.98 739.91 C 560.53 760.87 555.60 781.55 549.83 801.99 C 546.45 814.56 542.13 826.86 538.62 839.39 C 532.58 861.33 527.80 883.78 527.07 906.60 C 535.36 910.79 537.16 921.22 544.66 926.32 C 548.09 928.48 552.26 928.72 556.09 929.81 C 571.58 933.70 584.57 944.56 593.44 957.57 C 597.36 963.71 601.18 970.57 601.00 978.08 C 600.48 982.49 595.58 983.85 591.98 984.87 C 574.69 989.82 556.67 986.91 539.03 986.73 C 533.99 986.58 528.75 986.24 524.24 983.77 C 509.15 975.84 492.66 970.89 475.90 968.03 C 469.27 966.32 461.12 965.30 457.20 958.94 C 452.74 952.08 453.84 943.50 455.02 935.86 C 456.40 927.81 459.35 920.16 462.03 912.49 C 448.68 906.74 440.40 894.25 432.22 882.89 C 428.57 877.19 421.90 875.06 416.60 871.34 C 409.47 866.57 403.34 859.59 401.45 851.03 C 398.95 840.46 402.29 829.22 408.50 820.54 C 413.90 812.88 422.65 808.11 431.72 806.29 C 434.39 797.41 439.00 789.33 442.98 781.01 C 452.16 763.07 459.40 743.90 471.84 727.83 C 475.68 723.08 479.63 718.27 484.76 714.85 C 487.48 706.74 489.66 698.45 492.69 690.44 C 494.64 685.00 496.98 679.66 498.14 673.98 C 499.33 668.88 496.01 664.36 494.08 659.92 C 490.53 653.27 486.59 645.63 478.96 643.03 C 472.21 640.31 464.96 642.32 458.00 642.54 C 452.88 642.83 448.33 639.25 446.32 634.73 C 442.16 625.83 440.39 616.08 437.39 606.78 C 434.95 598.90 429.57 592.47 425.86 585.20 C 420.07 575.13 416.51 564.00 412.83 553.04 C 406.93 533.18 402.19 512.38 404.30 491.54 C 401.19 490.30 397.60 488.65 396.83 485.01 C 395.72 479.40 397.05 473.70 397.55 468.10 C 398.45 458.42 399.49 448.71 399.24 438.98 C 399.19 432.48 398.49 425.80 400.51 419.49 C 403.77 409.27 402.64 398.25 400.13 387.99 C 395.28 383.47 390.35 379.05 385.81 374.22 C 380.79 368.91 373.61 364.87 371.80 357.26 C 369.42 350.23 372.38 343.03 375.80 336.93 C 381.00 326.91 389.06 318.56 393.11 307.92 C 394.98 303.03 396.96 298.15 399.75 293.70 C 399.20 293.26 398.11 292.37 397.56 291.93 C 397.88 285.29 400.32 279.03 403.09 273.07 C 409.38 260.13 418.51 248.52 430.02 239.82 C 430.67 234.17 431.99 228.62 432.44 222.95 C 433.39 209.12 437.88 195.83 443.13 183.10 C 446.10 175.73 448.96 168.18 453.66 161.70 C 460.50 151.89 470.25 144.66 480.19 138.26 C 487.58 133.14 495.29 128.54 503.01 123.96 C 508.46 120.84 514.96 121.34 521.00 121.38 C 523.26 117.37 528.24 112.78 525.07 107.94 C 520.73 100.72 514.81 94.55 510.89 87.04 C 504.99 76.88 503.97 64.51 506.08 53.12 C 509.03 38.85 518.64 26.67 530.46 18.50 M 602.56 37.55 C 600.02 41.75 602.28 46.60 602.28 51.09 C 598.80 53.72 594.15 54.03 589.96 54.47 C 586.95 54.83 584.29 53.25 581.98 51.55 C 580.81 60.54 579.83 69.64 580.50 78.71 C 576.19 79.25 571.86 79.62 567.52 79.81 C 564.93 74.19 563.18 67.76 558.46 63.49 C 554.23 60.60 549.58 65.24 547.81 68.94 C 542.95 78.72 544.47 91.29 551.35 99.75 C 553.62 102.50 555.00 105.83 555.55 109.34 C 545.22 108.67 534.69 106.62 525.58 101.50 C 527.97 105.60 531.94 110.43 529.48 115.38 C 525.70 122.05 518.00 126.04 515.91 133.77 C 513.82 139.63 515.55 146.01 519.22 150.82 C 526.21 161.00 534.85 169.86 542.62 179.43 C 546.78 184.49 551.45 189.88 558.26 191.14 C 560.73 184.75 561.47 177.84 561.56 171.04 C 561.86 160.30 566.59 150.23 572.88 141.72 C 568.03 137.02 563.20 132.25 559.15 126.82 C 557.59 124.85 556.84 122.42 556.16 120.05 C 560.25 122.88 563.07 127.05 566.55 130.52 C 574.33 138.44 582.54 146.02 591.59 152.48 C 595.63 155.44 600.23 157.49 604.96 159.08 C 608.17 147.11 611.05 135.01 615.41 123.38 C 616.09 121.96 616.57 120.01 618.30 119.54 C 622.90 118.47 627.45 117.17 631.82 115.37 C 628.90 107.08 626.36 98.64 624.77 89.99 C 623.71 83.38 625.47 76.79 625.91 70.20 C 623.37 72.34 620.64 74.24 618.26 76.54 C 616.65 80.78 616.78 85.57 614.65 89.64 C 612.88 90.25 611.30 89.02 609.81 88.27 C 601.99 83.68 593.76 79.80 586.15 74.84 C 592.47 69.86 600.40 67.46 607.96 65.02 C 614.16 62.97 620.82 64.82 625.86 68.72 C 625.43 59.74 623.26 50.99 620.75 42.40 C 618.84 45.69 616.84 49.10 613.50 51.14 C 612.70 45.25 615.11 37.45 609.59 33.31 C 606.42 30.84 603.85 35.06 602.56 37.55 M 503.03 129.01 C 495.87 133.01 489.34 138.02 482.52 142.56 C 473.09 148.87 463.65 155.69 456.97 165.02 C 451.46 172.54 448.79 181.59 445.22 190.08 C 441.06 200.97 437.23 212.20 436.27 223.89 C 435.89 228.13 434.90 232.29 433.78 236.39 C 435.61 234.33 438.03 232.54 438.83 229.79 C 441.21 221.90 442.42 213.55 446.23 206.17 C 448.06 212.14 445.08 217.99 443.92 223.78 C 446.79 217.72 449.62 211.63 452.74 205.68 C 453.92 203.35 455.50 201.24 457.38 199.43 C 457.44 204.86 454.22 209.43 452.20 214.25 C 449.69 219.42 448.26 225.14 444.91 229.87 C 439.45 237.34 432.30 243.30 425.52 249.52 C 414.05 261.01 405.25 275.46 401.23 291.26 C 405.32 293.17 409.56 294.97 412.99 298.00 C 418.68 303.00 423.71 308.78 429.97 313.12 C 435.74 317.33 442.59 321.27 450.02 320.22 C 455.80 318.75 460.32 314.35 463.49 309.47 C 470.79 299.53 477.82 289.27 486.75 280.70 C 498.85 268.95 509.94 255.87 518.01 241.02 C 523.57 231.18 523.02 219.62 522.28 208.74 C 522.34 207.22 521.60 205.27 523.11 204.18 C 525.44 206.90 525.88 210.55 526.10 213.99 C 526.54 221.47 527.07 229.23 524.48 236.42 C 519.81 250.42 509.95 261.80 500.69 272.99 C 504.76 277.97 508.76 283.04 513.39 287.54 C 516.83 291.12 520.89 294.18 523.53 298.46 C 520.70 297.59 518.05 296.19 515.87 294.19 C 509.41 288.52 503.28 282.38 498.37 275.29 C 495.91 277.74 493.44 280.19 490.95 282.62 C 491.78 290.27 492.98 297.89 494.32 305.48 C 497.49 323.36 504.46 340.22 510.79 357.15 C 511.32 358.65 511.72 360.21 511.90 361.80 C 509.27 363.01 508.17 359.72 507.13 357.97 C 502.12 346.82 497.97 335.29 494.11 323.70 C 490.07 311.62 488.46 298.93 487.21 286.31 C 480.41 293.25 474.71 301.14 468.98 308.96 C 470.56 324.66 477.06 339.19 483.58 353.36 C 486.41 359.90 489.50 366.82 488.84 374.12 C 488.87 376.32 486.19 378.13 484.33 376.65 C 480.62 374.42 478.46 370.46 476.12 366.96 C 474.11 363.99 472.82 360.59 472.74 356.97 C 477.38 360.91 479.93 366.66 484.29 370.88 C 482.90 360.58 477.54 351.53 474.04 341.89 C 470.77 332.51 466.82 323.19 465.70 313.23 C 462.85 317.55 459.06 321.11 454.67 323.84 C 449.19 328.80 444.84 334.99 441.55 341.59 C 455.09 356.09 464.74 373.60 474.06 390.97 C 477.48 397.64 481.36 404.08 485.93 410.03 C 491.80 417.73 497.13 426.03 504.53 432.39 C 509.30 436.69 515.82 437.73 521.80 439.36 C 529.05 441.25 537.24 440.92 543.53 445.52 C 546.96 448.70 548.86 453.12 551.33 457.02 C 553.04 455.17 555.29 453.55 556.00 451.00 C 556.93 447.75 556.80 444.34 556.80 441.00 C 556.64 433.47 559.02 426.22 559.79 418.79 C 561.10 409.24 560.14 399.61 559.49 390.05 C 558.62 378.38 559.64 366.70 559.62 355.03 C 559.97 343.71 561.10 332.36 564.26 321.45 C 557.26 324.10 549.65 325.59 542.18 324.62 C 541.16 324.15 537.94 323.60 539.62 321.95 C 548.46 320.98 557.70 320.11 565.50 315.38 C 567.69 313.90 568.11 311.08 568.83 308.73 C 569.97 303.88 571.79 299.24 573.52 294.58 C 577.76 283.46 580.89 271.78 581.47 259.85 C 581.97 248.54 581.56 237.14 579.46 226.00 C 575.44 206.90 570.46 188.02 565.73 169.09 C 563.98 176.29 564.46 183.90 562.10 190.96 C 561.48 193.14 559.34 194.73 557.03 194.33 C 550.06 193.75 544.90 188.39 540.57 183.42 C 533.31 174.68 525.51 166.38 518.65 157.30 C 515.05 152.50 511.26 147.31 510.84 141.11 C 510.34 135.71 512.10 130.45 514.56 125.71 C 510.62 126.42 506.54 126.94 503.03 129.01 M 403.32 296.36 C 401.02 300.87 399.17 305.58 397.29 310.28 C 393.19 320.23 385.78 328.26 380.72 337.69 C 378.07 342.69 374.87 348.08 375.74 353.98 C 376.44 358.78 379.88 362.55 383.08 365.96 C 388.00 371.01 392.78 376.20 398.02 380.92 C 413.02 394.58 427.44 408.84 442.55 422.37 C 455.54 433.85 468.01 445.98 481.98 456.29 C 484.06 456.25 486.15 456.30 488.22 456.64 C 486.42 458.04 484.54 459.33 482.66 460.61 C 489.39 469.45 497.84 477.08 507.58 482.47 C 514.75 486.59 522.74 489.01 530.76 490.88 C 523.64 483.72 515.61 477.57 507.67 471.37 C 505.53 469.74 503.60 467.84 502.08 465.62 C 504.56 466.37 506.89 467.54 508.98 469.08 C 515.98 474.04 522.80 479.25 529.49 484.63 C 532.07 486.74 535.20 487.99 538.28 489.20 C 531.98 481.06 524.20 474.26 516.96 467.00 C 513.87 463.80 510.05 461.05 508.37 456.77 C 510.60 457.62 512.80 458.68 514.60 460.29 C 521.46 466.11 527.92 472.38 534.68 478.31 C 538.22 481.35 541.38 484.88 545.34 487.41 C 542.26 482.96 538.45 479.10 534.78 475.14 C 529.60 469.65 524.54 464.05 519.08 458.83 C 516.71 456.43 513.85 454.21 512.92 450.81 C 515.92 452.00 518.53 453.94 520.89 456.11 C 528.37 462.97 536.17 469.49 543.15 476.87 C 546.31 480.07 548.77 484.13 553.00 486.09 C 547.36 476.38 539.22 468.47 531.89 460.07 C 528.52 456.03 524.01 453.01 521.23 448.49 C 522.98 448.60 524.97 448.27 526.37 449.61 C 537.04 457.87 546.71 467.46 554.78 478.29 C 554.96 476.84 556.11 475.26 555.24 473.86 C 550.68 465.74 547.34 456.85 541.42 449.56 C 538.06 446.51 533.31 445.90 529.03 445.00 C 522.00 443.87 515.08 442.04 508.42 439.56 C 500.52 435.91 495.16 428.70 489.98 422.00 C 484.50 414.46 478.59 407.19 474.13 398.97 C 468.63 388.85 463.28 378.65 457.17 368.87 C 447.92 353.63 435.65 340.40 422.02 328.98 C 419.70 327.06 417.39 325.02 416.04 322.26 C 417.88 322.85 419.67 323.63 421.25 324.76 C 427.34 329.03 433.55 333.23 438.67 338.69 C 440.77 333.52 443.67 328.70 447.34 324.49 C 438.29 323.94 430.30 319.09 423.45 313.51 C 416.55 308.01 411.18 300.65 403.32 296.36 M 566.00 331.24 C 564.01 344.62 564.31 358.16 563.76 371.64 C 568.31 375.68 572.97 379.60 577.99 383.06 C 583.44 387.16 589.49 391.08 592.77 397.28 C 596.27 403.94 597.29 411.50 598.81 418.77 C 603.06 419.58 607.41 419.72 611.71 419.19 C 612.72 412.47 615.89 406.37 619.31 400.59 C 611.43 397.49 604.16 392.84 597.93 387.11 C 592.59 382.38 589.32 375.60 588.39 368.59 C 591.48 368.54 592.26 372.20 593.86 374.19 C 597.46 380.37 602.80 385.32 608.73 389.22 C 612.94 391.96 617.26 394.87 622.31 395.72 C 619.84 387.86 613.06 382.13 611.23 374.02 C 615.32 375.05 617.32 379.11 619.87 382.09 C 622.63 386.10 626.64 389.90 626.94 395.04 C 627.22 397.61 625.01 399.23 623.31 400.72 C 621.11 407.96 614.89 414.38 616.47 422.39 C 623.45 415.95 630.60 408.99 634.19 400.00 C 637.55 391.20 633.30 381.90 628.50 374.55 C 624.25 368.04 615.87 367.53 609.30 364.76 C 601.67 362.17 595.02 357.36 589.51 351.55 C 582.36 344.02 574.17 337.61 566.00 331.24 M 405.82 393.11 C 406.67 399.50 407.39 405.97 406.69 412.41 C 405.92 418.67 402.82 424.55 403.29 430.99 C 404.08 447.73 401.97 464.40 400.87 481.07 C 400.47 483.64 401.82 487.25 404.97 486.82 C 411.94 486.45 418.76 484.65 425.43 482.67 C 435.13 479.47 445.02 476.93 454.72 473.73 C 463.85 470.72 473.28 468.64 482.82 467.37 C 480.46 464.77 478.76 461.63 479.19 458.01 C 471.83 452.81 464.80 447.18 458.02 441.25 C 446.44 443.01 435.76 448.51 424.09 449.73 C 420.51 450.13 415.22 449.36 414.58 444.99 C 414.08 440.87 417.93 438.22 421.39 437.14 C 420.22 439.82 418.89 442.42 417.61 445.04 C 421.06 445.74 424.66 445.98 428.10 445.03 C 436.87 442.91 445.28 439.41 454.22 437.96 C 437.65 423.49 421.67 408.36 405.82 393.11 M 443.97 482.94 C 432.26 486.10 420.79 490.64 408.56 491.27 C 406.81 512.91 411.49 534.45 418.08 554.95 C 421.35 564.35 424.38 573.94 429.38 582.62 C 433.11 590.05 438.62 596.54 441.39 604.45 C 444.56 613.55 446.25 623.15 450.08 632.03 C 451.29 634.87 453.59 637.87 456.98 637.87 C 467.12 638.02 476.55 633.92 486.16 631.31 C 496.61 628.37 506.47 623.71 516.87 620.65 C 524.60 618.38 532.25 615.78 540.14 614.08 C 548.14 612.43 556.20 610.10 564.45 611.12 C 559.12 602.46 554.24 593.54 549.14 584.74 C 542.73 573.63 534.29 563.82 525.00 555.03 C 518.24 548.66 512.32 541.43 507.66 533.39 C 503.02 541.00 500.76 549.63 497.47 557.81 C 496.12 545.67 502.52 534.48 508.52 524.44 C 511.92 519.33 515.26 513.99 520.06 510.06 C 521.23 508.97 524.22 508.18 524.64 510.37 C 524.60 512.22 522.81 513.37 521.78 514.73 C 517.36 519.18 513.57 524.19 510.10 529.40 C 515.75 538.02 522.70 545.69 529.99 552.95 C 536.90 559.82 543.04 567.42 548.55 575.45 C 553.31 582.73 557.25 590.51 561.33 598.19 C 568.87 593.40 577.61 591.12 586.19 589.01 C 592.75 587.42 599.56 587.17 606.27 587.71 C 606.11 583.89 605.75 580.05 604.50 576.42 C 599.72 560.97 589.13 548.36 582.13 533.97 C 579.53 528.52 578.99 522.43 577.92 516.56 C 575.86 516.09 573.63 516.10 571.72 515.15 C 570.79 513.95 570.53 512.41 570.17 510.99 C 567.79 499.47 564.60 488.05 559.66 477.35 C 558.80 478.86 557.93 480.37 557.06 481.89 C 557.31 483.79 558.05 485.74 557.67 487.68 C 557.02 489.96 554.32 489.52 552.53 489.95 C 551.69 491.04 550.99 492.26 549.96 493.19 C 548.25 493.14 546.58 492.75 544.92 492.44 C 541.87 495.29 537.97 493.92 534.61 492.47 C 532.96 493.24 531.18 494.06 529.33 493.52 C 520.38 491.54 511.32 489.28 503.37 484.56 C 497.63 481.44 492.57 477.24 488.00 472.61 C 472.78 472.93 458.43 478.78 443.97 482.94 M 562.98 600.98 C 565.51 605.28 568.21 609.53 569.87 614.26 C 567.68 614.89 565.46 615.38 563.24 615.81 C 563.77 618.76 563.83 621.88 565.25 624.60 C 570.24 633.28 576.51 641.29 580.50 650.52 C 583.70 657.71 582.58 665.76 580.76 673.16 C 583.22 673.13 587.43 674.70 588.17 671.19 C 592.38 656.84 606.69 649.01 612.60 635.65 C 615.19 629.19 612.46 622.27 609.65 616.38 C 605.89 608.48 599.50 601.29 599.60 592.08 C 587.07 593.25 574.66 596.28 562.98 600.98 M 522.03 625.02 C 508.09 628.78 495.03 635.29 480.87 638.29 C 485.13 640.41 489.05 643.29 491.51 647.45 C 495.75 654.31 501.25 660.83 502.56 669.03 C 503.64 675.06 501.24 680.90 499.39 686.52 C 502.96 696.10 512.81 701.33 522.21 703.63 C 536.65 707.20 552.83 705.39 565.19 696.72 C 569.19 683.86 577.94 671.97 576.76 657.90 C 575.18 647.96 568.20 640.15 563.44 631.59 C 559.95 627.07 558.28 621.40 559.40 615.72 C 546.64 617.43 534.28 621.20 522.03 625.02 M 571.93 693.91 C 569.46 700.99 568.83 708.53 567.59 715.88 C 572.91 703.12 579.58 690.98 585.32 678.41 C 583.27 678.14 581.23 677.87 579.21 677.59 C 577.24 683.23 574.31 688.45 571.93 693.91 M 478.29 779.96 C 476.60 796.63 478.72 813.39 477.47 830.08 C 476.88 842.70 475.68 855.28 474.41 867.85 C 473.46 878.96 471.61 890.11 472.71 901.28 C 473.08 904.26 473.43 907.37 474.97 910.02 C 478.06 914.54 483.55 917.06 488.99 916.75 C 496.91 916.70 503.29 911.51 509.98 908.00 C 514.03 905.75 518.69 905.04 523.27 905.15 C 522.01 872.83 531.04 841.30 540.58 810.76 C 550.67 775.36 560.47 739.52 563.41 702.70 C 551.50 709.94 536.80 711.20 523.31 708.66 C 513.15 706.62 502.66 702.09 496.94 692.99 C 487.23 721.08 480.45 750.28 478.29 779.96 M 456.94 764.92 C 451.98 776.09 446.56 787.05 441.16 798.02 C 437.49 805.47 435.04 813.64 435.14 822.01 C 435.11 826.47 435.73 831.54 439.27 834.69 C 445.58 840.31 454.68 841.92 462.85 840.51 C 466.82 839.63 471.92 837.48 472.39 832.87 C 473.67 817.25 472.16 801.59 472.57 785.96 C 473.66 765.03 476.75 744.18 482.27 723.94 C 471.14 735.72 463.51 750.24 456.94 764.92 M 415.72 820.73 C 408.52 828.48 403.93 839.63 406.67 850.23 C 408.35 857.51 413.86 863.17 419.95 867.14 C 424.90 870.49 430.95 872.49 434.70 877.38 C 438.50 882.27 441.52 887.72 445.30 892.63 C 450.19 899.26 456.40 904.80 463.22 909.38 C 465.56 900.04 468.02 890.62 468.30 880.95 C 469.44 868.76 470.69 856.58 471.63 844.37 C 459.38 850.64 443.21 847.03 434.53 836.46 C 429.32 829.55 429.74 820.31 430.39 812.13 C 425.05 814.08 419.62 816.42 415.72 820.73 M 461.31 930.31 C 459.39 937.94 457.43 946.27 460.08 953.95 C 462.19 960.08 469.41 960.86 474.80 962.31 C 490.79 965.51 506.90 969.21 521.56 976.58 C 525.42 978.53 529.25 980.96 533.70 981.20 C 541.10 981.71 548.54 981.30 555.95 981.77 C 569.70 982.59 584.01 982.67 597.00 977.48 C 591.53 959.13 577.71 943.09 559.59 936.44 C 553.79 934.17 547.21 934.35 541.74 931.23 C 535.49 927.39 532.37 920.48 528.28 914.70 C 525.98 910.98 521.02 910.59 517.12 911.30 C 511.28 912.66 506.66 916.77 501.27 919.17 C 495.14 922.05 487.82 922.93 481.38 920.57 C 475.51 917.92 470.78 912.82 468.82 906.66 C 466.62 914.64 463.66 922.38 461.31 930.31 Z" />
	</g>
	<g id="#f0b58bff">
		<path fill="#f0b58b" opacity="1.00"
			d=" M 602.56 37.55 C 603.85 35.06 606.42 30.84 609.59 33.31 C 615.11 37.45 612.70 45.25 613.50 51.14 C 616.84 49.10 618.84 45.69 620.75 42.40 C 623.26 50.99 625.43 59.74 625.86 68.72 C 620.82 64.82 614.16 62.97 607.96 65.02 C 600.40 67.46 592.47 69.86 586.15 74.84 C 593.76 79.80 601.99 83.68 609.81 88.27 C 611.30 89.02 612.88 90.25 614.65 89.64 C 616.78 85.57 616.65 80.78 618.26 76.54 C 620.64 74.24 623.37 72.34 625.91 70.20 C 625.47 76.79 623.71 83.38 624.77 89.99 C 626.36 98.64 628.90 107.08 631.82 115.37 C 627.45 117.17 622.90 118.47 618.30 119.54 C 616.57 120.01 616.09 121.96 615.41 123.38 C 611.05 135.01 608.17 147.11 604.96 159.08 C 600.23 157.49 595.63 155.44 591.59 152.48 C 582.54 146.02 574.33 138.44 566.55 130.52 C 563.07 127.05 560.25 122.88 556.16 120.05 C 556.84 122.42 557.59 124.85 559.15 126.82 C 563.20 132.25 568.03 137.02 572.88 141.72 C 566.59 150.23 561.86 160.30 561.56 171.04 C 561.47 177.84 560.73 184.75 558.26 191.14 C 551.45 189.88 546.78 184.49 542.62 179.43 C 534.85 169.86 526.21 161.00 519.22 150.82 C 515.55 146.01 513.82 139.63 515.91 133.77 C 518.00 126.04 525.70 122.05 529.48 115.38 C 531.94 110.43 527.97 105.60 525.58 101.50 C 534.69 106.62 545.22 108.67 555.55 109.34 C 555.00 105.83 553.62 102.50 551.35 99.75 C 544.47 91.29 542.95 78.72 547.81 68.94 C 549.58 65.24 554.23 60.60 558.46 63.49 C 563.18 67.76 564.93 74.19 567.52 79.81 C 571.86 79.62 576.19 79.25 580.50 78.71 C 579.83 69.64 580.81 60.54 581.98 51.55 C 584.29 53.25 586.95 54.83 589.96 54.47 C 594.15 54.03 598.80 53.72 602.28 51.09 C 602.28 46.60 600.02 41.75 602.56 37.55 Z" />
		<path fill="#f0b58b" opacity="1.00"
			d=" M 403.32 296.36 C 411.18 300.65 416.55 308.01 423.45 313.51 C 430.30 319.09 438.29 323.94 447.34 324.49 C 443.67 328.70 440.77 333.52 438.67 338.69 C 433.55 333.23 427.34 329.03 421.25 324.76 C 419.67 323.63 417.88 322.85 416.04 322.26 C 417.39 325.02 419.70 327.06 422.02 328.98 C 435.65 340.40 447.92 353.63 457.17 368.87 C 463.28 378.65 468.63 388.85 474.13 398.97 C 478.59 407.19 484.50 414.46 489.98 422.00 C 495.16 428.70 500.52 435.91 508.42 439.56 C 515.08 442.04 522.00 443.87 529.03 445.00 C 533.31 445.90 538.06 446.51 541.42 449.56 C 547.34 456.85 550.68 465.74 555.24 473.86 C 556.11 475.26 554.96 476.84 554.78 478.29 C 546.71 467.46 537.04 457.87 526.37 449.61 C 524.97 448.27 522.98 448.60 521.23 448.49 C 524.01 453.01 528.52 456.03 531.89 460.07 C 539.22 468.47 547.36 476.38 553.00 486.09 C 548.77 484.13 546.31 480.07 543.15 476.87 C 536.17 469.49 528.37 462.97 520.89 456.11 C 518.53 453.94 515.92 452.00 512.92 450.81 C 513.85 454.21 516.71 456.43 519.08 458.83 C 524.54 464.05 529.60 469.65 534.78 475.14 C 538.45 479.10 542.26 482.96 545.34 487.41 C 541.38 484.88 538.22 481.35 534.68 478.31 C 527.92 472.38 521.46 466.11 514.60 460.29 C 512.80 458.68 510.60 457.62 508.37 456.77 C 510.05 461.05 513.87 463.80 516.96 467.00 C 524.20 474.26 531.98 481.06 538.28 489.20 C 535.20 487.99 532.07 486.74 529.49 484.63 C 522.80 479.25 515.98 474.04 508.98 469.08 C 506.89 467.54 504.56 466.37 502.08 465.62 C 503.60 467.84 505.53 469.74 507.67 471.37 C 515.61 477.57 523.64 483.72 530.76 490.88 C 522.74 489.01 514.75 486.59 507.58 482.47 C 497.84 477.08 489.39 469.45 482.66 460.61 C 484.54 459.33 486.42 458.04 488.22 456.64 C 486.15 456.30 484.06 456.25 481.98 456.29 C 468.01 445.98 455.54 433.85 442.55 422.37 C 427.44 408.84 413.02 394.58 398.02 380.92 C 392.78 376.20 388.00 371.01 383.08 365.96 C 379.88 362.55 376.44 358.78 375.74 353.98 C 374.87 348.08 378.07 342.69 380.72 337.69 C 385.78 328.26 393.19 320.23 397.29 310.28 C 399.17 305.58 401.02 300.87 403.32 296.36 Z" />
		<path fill="#f0b58b" opacity="1.00"
			d=" M 566.00 331.24 C 574.17 337.61 582.36 344.02 589.51 351.55 C 595.02 357.36 601.67 362.17 609.30 364.76 C 615.87 367.53 624.25 368.04 628.50 374.55 C 633.30 381.90 637.55 391.20 634.19 400.00 C 630.60 408.99 623.45 415.95 616.47 422.39 C 614.89 414.38 621.11 407.96 623.31 400.72 C 625.01 399.23 627.22 397.61 626.94 395.04 C 626.64 389.90 622.63 386.10 619.87 382.09 C 617.32 379.11 615.32 375.05 611.23 374.02 C 613.06 382.13 619.84 387.86 622.31 395.72 C 617.26 394.87 612.94 391.96 608.73 389.22 C 602.80 385.32 597.46 380.37 593.86 374.19 C 592.26 372.20 591.48 368.54 588.39 368.59 C 589.32 375.60 592.59 382.38 597.93 387.11 C 604.16 392.84 611.43 397.49 619.31 400.59 C 615.89 406.37 612.72 412.47 611.71 419.19 C 607.41 419.72 603.06 419.58 598.81 418.77 C 597.29 411.50 596.27 403.94 592.77 397.28 C 589.49 391.08 583.44 387.16 577.99 383.06 C 572.97 379.60 568.31 375.68 563.76 371.64 C 564.31 358.16 564.01 344.62 566.00 331.24 Z" />
		<path fill="#f0b58b" opacity="1.00"
			d=" M 562.98 600.98 C 574.66 596.28 587.07 593.25 599.60 592.08 C 599.50 601.29 605.89 608.48 609.65 616.38 C 612.46 622.27 615.19 629.19 612.60 635.65 C 606.69 649.01 592.38 656.84 588.17 671.19 C 587.43 674.70 583.22 673.13 580.76 673.16 C 582.58 665.76 583.70 657.71 580.50 650.52 C 576.51 641.29 570.24 633.28 565.25 624.60 C 563.83 621.88 563.77 618.76 563.24 615.81 C 565.46 615.38 567.68 614.89 569.87 614.26 C 568.21 609.53 565.51 605.28 562.98 600.98 Z" />
		<path fill="#f0b58b" opacity="1.00"
			d=" M 522.03 625.02 C 534.28 621.20 546.64 617.43 559.40 615.72 C 558.28 621.40 559.95 627.07 563.44 631.59 C 568.20 640.15 575.18 647.96 576.76 657.90 C 577.94 671.97 569.19 683.86 565.19 696.72 C 552.83 705.39 536.65 707.20 522.21 703.63 C 512.81 701.33 502.96 696.10 499.39 686.52 C 501.24 680.90 503.64 675.06 502.56 669.03 C 501.25 660.83 495.75 654.31 491.51 647.45 C 489.05 643.29 485.13 640.41 480.87 638.29 C 495.03 635.29 508.09 628.78 522.03 625.02 Z" />
	</g>
	<g id="#f11b27ff">
		<path fill="var(--shirt-color, grey)" opacity="1.00"
			d=" M 503.03 129.01 C 506.54 126.94 510.62 126.42 514.56 125.71 C 512.10 130.45 510.34 135.71 510.84 141.11 C 511.26 147.31 515.05 152.50 518.65 157.30 C 525.51 166.38 533.31 174.68 540.57 183.42 C 544.90 188.39 550.06 193.75 557.03 194.33 C 559.34 194.73 561.48 193.14 562.10 190.96 C 564.46 183.90 563.98 176.29 565.73 169.09 C 570.46 188.02 575.44 206.90 579.46 226.00 C 581.56 237.14 581.97 248.54 581.47 259.85 C 580.89 271.78 577.76 283.46 573.52 294.58 C 571.79 299.24 569.97 303.88 568.83 308.73 C 568.11 311.08 567.69 313.90 565.50 315.38 C 557.70 320.11 548.46 320.98 539.62 321.95 C 537.94 323.60 541.16 324.15 542.18 324.62 C 549.65 325.59 557.26 324.10 564.26 321.45 C 561.10 332.36 559.97 343.71 559.62 355.03 C 559.64 366.70 558.62 378.38 559.49 390.05 C 560.14 399.61 561.10 409.24 559.79 418.79 C 559.02 426.22 556.64 433.47 556.80 441.00 C 556.80 444.34 556.93 447.75 556.00 451.00 C 555.29 453.55 553.04 455.17 551.33 457.02 C 548.86 453.12 546.96 448.70 543.53 445.52 C 537.24 440.92 529.05 441.25 521.80 439.36 C 515.82 437.73 509.30 436.69 504.53 432.39 C 497.13 426.03 491.80 417.73 485.93 410.03 C 481.36 404.08 477.48 397.64 474.06 390.97 C 464.74 373.60 455.09 356.09 441.55 341.59 C 444.84 334.99 449.19 328.80 454.67 323.84 C 459.06 321.11 462.85 317.55 465.70 313.23 C 466.82 323.19 470.77 332.51 474.04 341.89 C 477.54 351.53 482.90 360.58 484.29 370.88 C 479.93 366.66 477.38 360.91 472.74 356.97 C 472.82 360.59 474.11 363.99 476.12 366.96 C 478.46 370.46 480.62 374.42 484.33 376.65 C 486.19 378.13 488.87 376.32 488.84 374.12 C 489.50 366.82 486.41 359.90 483.58 353.36 C 477.06 339.19 470.56 324.66 468.98 308.96 C 474.71 301.14 480.41 293.25 487.21 286.31 C 488.46 298.93 490.07 311.62 494.11 323.70 C 497.97 335.29 502.12 346.82 507.13 357.97 C 508.17 359.72 509.27 363.01 511.90 361.80 C 511.72 360.21 511.32 358.65 510.79 357.15 C 504.46 340.22 497.49 323.36 494.32 305.48 C 492.98 297.89 491.78 290.27 490.95 282.62 C 493.44 280.19 495.91 277.74 498.37 275.29 C 503.28 282.38 509.41 288.52 515.87 294.19 C 518.05 296.19 520.70 297.59 523.53 298.46 C 520.89 294.18 516.83 291.12 513.39 287.54 C 508.76 283.04 504.76 277.97 500.69 272.99 C 509.95 261.80 519.81 250.42 524.48 236.42 C 527.07 229.23 526.54 221.47 526.10 213.99 C 525.88 210.55 525.44 206.90 523.11 204.18 C 521.60 205.27 522.34 207.22 522.28 208.74 C 523.02 219.62 523.57 231.18 518.01 241.02 C 509.94 255.87 498.85 268.95 486.75 280.70 C 477.82 289.27 470.79 299.53 463.49 309.47 C 460.32 314.35 455.80 318.75 450.02 320.22 C 442.59 321.27 435.74 317.33 429.97 313.12 C 423.71 308.78 418.68 303.00 412.99 298.00 C 409.56 294.97 405.32 293.17 401.23 291.26 C 405.25 275.46 414.05 261.01 425.52 249.52 C 432.30 243.30 439.45 237.34 444.91 229.87 C 448.26 225.14 449.69 219.42 452.20 214.25 C 454.22 209.43 457.44 204.86 457.38 199.43 C 455.50 201.24 453.92 203.35 452.74 205.68 C 449.62 211.63 446.79 217.72 443.92 223.78 C 445.08 217.99 448.06 212.14 446.23 206.17 C 442.42 213.55 441.21 221.90 438.83 229.79 C 438.03 232.54 435.61 234.33 433.78 236.39 C 434.90 232.29 435.89 228.13 436.27 223.89 C 437.23 212.20 441.06 200.97 445.22 190.08 C 448.79 181.59 451.46 172.54 456.97 165.02 C 463.65 155.69 473.09 148.87 482.52 142.56 C 489.34 138.02 495.87 133.01 503.03 129.01 Z" />
		<path fill="var(--shirt-color, grey)" opacity="1.00"
			d=" M 405.82 393.11 C 421.67 408.36 437.65 423.49 454.22 437.96 C 445.28 439.41 436.87 442.91 428.10 445.03 C 424.66 445.98 421.06 445.74 417.61 445.04 C 418.89 442.42 420.22 439.82 421.39 437.14 C 417.93 438.22 414.08 440.87 414.58 444.99 C 415.22 449.36 420.51 450.13 424.09 449.73 C 435.76 448.51 446.44 443.01 458.02 441.25 C 464.80 447.18 471.83 452.81 479.19 458.01 C 478.76 461.63 480.46 464.77 482.82 467.37 C 473.28 468.64 463.85 470.72 454.72 473.73 C 445.02 476.93 435.13 479.47 425.43 482.67 C 418.76 484.65 411.94 486.45 404.97 486.82 C 401.82 487.25 400.47 483.64 400.87 481.07 C 401.97 464.40 404.08 447.73 403.29 430.99 C 402.82 424.55 405.92 418.67 406.69 412.41 C 407.39 405.97 406.67 399.50 405.82 393.11 Z" />
	</g>
	<g id="#2b3dcdff">
		<path fill="var(--pants-color, grey)" opacity="1.00"
			d=" M 443.97 482.94 C 458.43 478.78 472.78 472.93 488.00 472.61 C 492.57 477.24 497.63 481.44 503.37 484.56 C 511.32 489.28 520.38 491.54 529.33 493.52 C 531.18 494.06 532.96 493.24 534.61 492.47 C 537.97 493.92 541.87 495.29 544.92 492.44 C 546.58 492.75 548.25 493.14 549.96 493.19 C 550.99 492.26 551.69 491.04 552.53 489.95 C 554.32 489.52 557.02 489.96 557.67 487.68 C 558.05 485.74 557.31 483.79 557.06 481.89 C 557.93 480.37 558.80 478.86 559.66 477.35 C 564.60 488.05 567.79 499.47 570.17 510.99 C 570.53 512.41 570.79 513.95 571.72 515.15 C 573.63 516.10 575.86 516.09 577.92 516.56 C 578.99 522.43 579.53 528.52 582.13 533.97 C 589.13 548.36 599.72 560.97 604.50 576.42 C 605.75 580.05 606.11 583.89 606.27 587.71 C 599.56 587.17 592.75 587.42 586.19 589.01 C 577.61 591.12 568.87 593.40 561.33 598.19 C 557.25 590.51 553.31 582.73 548.55 575.45 C 543.04 567.42 536.90 559.82 529.99 552.95 C 522.70 545.69 515.75 538.02 510.10 529.40 C 513.57 524.19 517.36 519.18 521.78 514.73 C 522.81 513.37 524.60 512.22 524.64 510.37 C 524.22 508.18 521.23 508.97 520.06 510.06 C 515.26 513.99 511.92 519.33 508.52 524.44 C 502.52 534.48 496.12 545.67 497.47 557.81 C 500.76 549.63 503.02 541.00 507.66 533.39 C 512.32 541.43 518.24 548.66 525.00 555.03 C 534.29 563.82 542.73 573.63 549.14 584.74 C 554.24 593.54 559.12 602.46 564.45 611.12 C 556.20 610.10 548.14 612.43 540.14 614.08 C 532.25 615.78 524.60 618.38 516.87 620.65 C 506.47 623.71 496.61 628.37 486.16 631.31 C 476.55 633.92 467.12 638.02 456.98 637.87 C 453.59 637.87 451.29 634.87 450.08 632.03 C 446.25 623.15 444.56 613.55 441.39 604.45 C 438.62 596.54 433.11 590.05 429.38 582.62 C 424.38 573.94 421.35 564.35 418.08 554.95 C 411.49 534.45 406.81 512.91 408.56 491.27 C 420.79 490.64 432.26 486.10 443.97 482.94 Z" />
		<path fill="var(--socks-color, grey)" opacity="1.00"
			d=" M 571.93 693.91 C 574.31 688.45 577.24 683.23 579.21 677.59 C 581.23 677.87 583.27 678.14 585.32 678.41 C 579.58 690.98 572.91 703.12 567.59 715.88 C 568.83 708.53 569.46 700.99 571.93 693.91 Z" />
		<path fill="var(--socks-color, grey)" opacity="1.00"
			d=" M 478.29 779.96 C 480.45 750.28 487.23 721.08 496.94 692.99 C 502.66 702.09 513.15 706.62 523.31 708.66 C 536.80 711.20 551.50 709.94 563.41 702.70 C 560.47 739.52 550.67 775.36 540.58 810.76 C 531.04 841.30 522.01 872.83 523.27 905.15 C 518.69 905.04 514.03 905.75 509.98 908.00 C 503.29 911.51 496.91 916.70 488.99 916.75 C 483.55 917.06 478.06 914.54 474.97 910.02 C 473.43 907.37 473.08 904.26 472.71 901.28 C 471.61 890.11 473.46 878.96 474.41 867.85 C 475.68 855.28 476.88 842.70 477.47 830.08 C 478.72 813.39 476.60 796.63 478.29 779.96 Z" />
		<path fill="var(--socks-color, grey)" opacity="1.00"
			d=" M 456.94 764.92 C 463.51 750.24 471.14 735.72 482.27 723.94 C 476.75 744.18 473.66 765.03 472.57 785.96 C 472.16 801.59 473.67 817.25 472.39 832.87 C 471.92 837.48 466.82 839.63 462.85 840.51 C 454.68 841.92 445.58 840.31 439.27 834.69 C 435.73 831.54 435.11 826.47 435.14 822.01 C 435.04 813.64 437.49 805.47 441.16 798.02 C 446.56 787.05 451.98 776.09 456.94 764.92 Z" />
	</g>
	<g id="#4d4d4dff">
		<path fill="#4d4d4d" opacity="1.00"
			d=" M 415.72 820.73 C 419.62 816.42 425.05 814.08 430.39 812.13 C 429.74 820.31 429.32 829.55 434.53 836.46 C 443.21 847.03 459.38 850.64 471.63 844.37 C 470.69 856.58 469.44 868.76 468.30 880.95 C 468.02 890.62 465.56 900.04 463.22 909.38 C 456.40 904.80 450.19 899.26 445.30 892.63 C 441.52 887.72 438.50 882.27 434.70 877.38 C 430.95 872.49 424.90 870.49 419.95 867.14 C 413.86 863.17 408.35 857.51 406.67 850.23 C 403.93 839.63 408.52 828.48 415.72 820.73 Z" />
		<path fill="#4d4d4d" opacity="1.00"
			d=" M 461.31 930.31 C 463.66 922.38 466.62 914.64 468.82 906.66 C 470.78 912.82 475.51 917.92 481.38 920.57 C 487.82 922.93 495.14 922.05 501.27 919.17 C 506.66 916.77 511.28 912.66 517.12 911.30 C 521.02 910.59 525.98 910.98 528.28 914.70 C 532.37 920.48 535.49 927.39 541.74 931.23 C 547.21 934.35 553.79 934.17 559.59 936.44 C 577.71 943.09 591.53 959.13 597.00 977.48 C 584.01 982.67 569.70 982.59 555.95 981.77 C 548.54 981.30 541.10 981.71 533.70 981.20 C 529.25 980.96 525.42 978.53 521.56 976.58 C 506.90 969.21 490.79 965.51 474.80 962.31 C 469.41 960.86 462.19 960.08 460.08 953.95 C 457.43 946.27 459.39 937.94 461.31 930.31 Z" />
	</g>
</svg>