<?xml version="1.0" encoding="UTF-8" ?>
<!DOCTYPE svg PUBLIC "-//W3C//DTD SVG 1.1//EN" "http://www.w3.org/Graphics/SVG/1.1/DTD/svg11.dtd">
<svg width="1000pt" height="1000pt" viewBox="0 0 1000 1000" version="1.1" xmlns="http://www.w3.org/2000/svg">
	<g id="#000000ff">
		<path fill="#000000" opacity="1.00"
			d=" M 478.72 1.89 C 485.74 0.92 492.95 0.44 499.96 1.79 C 504.98 2.72 510.22 2.27 515.12 3.92 C 525.52 7.17 533.28 16.24 536.73 26.36 C 540.32 36.81 540.73 48.01 543.90 58.58 C 542.47 58.85 541.04 59.11 539.62 59.38 C 540.97 68.72 536.45 77.71 537.93 87.02 C 538.80 94.23 539.73 101.56 538.44 108.79 C 536.61 119.00 533.62 129.00 529.78 138.63 C 525.75 148.74 519.57 160.37 507.79 162.46 C 512.55 165.91 518.03 168.33 523.88 169.18 C 531.27 170.27 538.80 171.24 545.73 174.22 C 551.08 176.51 555.31 180.67 559.32 184.77 C 563.21 188.74 566.42 193.41 568.47 198.59 C 573.43 210.52 574.38 223.57 578.02 235.89 C 581.22 246.80 584.66 258.07 591.87 267.10 C 593.94 269.71 597.64 272.37 595.42 276.05 C 607.54 275.46 618.99 279.98 630.85 281.60 C 649.43 284.84 668.12 280.89 686.60 278.96 C 685.73 272.47 689.67 266.99 692.92 261.80 C 698.13 253.76 702.71 245.24 709.06 238.02 C 710.52 236.52 711.99 234.66 714.16 234.28 C 716.07 234.05 717.16 235.99 718.53 236.96 C 723.30 235.77 728.19 235.16 732.95 233.89 C 734.36 233.57 735.93 232.91 737.26 233.88 C 737.86 236.06 736.81 238.17 736.32 240.25 C 736.84 240.66 737.88 241.47 738.39 241.88 C 737.05 248.18 732.51 253.00 729.71 258.64 C 722.68 270.67 722.34 284.99 718.16 298.00 C 715.64 306.39 707.91 313.12 699.06 313.72 C 689.05 314.66 679.74 318.59 670.19 321.41 C 662.24 323.78 654.63 327.13 646.80 329.83 C 639.16 332.56 630.97 332.69 622.97 333.31 C 608.79 334.00 594.45 334.02 580.44 331.50 C 579.35 333.68 578.20 335.83 576.98 337.94 C 582.19 342.61 583.25 349.72 584.93 356.14 C 588.61 357.42 592.64 358.62 595.17 361.81 C 599.91 367.68 602.95 374.76 605.01 381.98 C 607.03 389.45 609.26 397.28 607.82 405.08 C 607.30 408.26 604.97 410.64 602.72 412.75 C 608.17 417.82 612.69 424.00 615.16 431.06 C 620.15 430.21 626.03 428.03 630.38 431.83 C 638.81 438.93 643.43 449.59 645.95 460.11 C 646.86 463.33 646.88 467.07 649.36 469.61 C 654.33 475.06 657.12 482.33 663.09 486.88 C 666.16 489.24 670.35 489.31 673.43 491.64 C 681.77 499.44 686.20 510.65 695.35 517.67 C 706.32 529.45 713.69 543.93 722.94 557.00 C 733.04 572.09 743.06 588.32 744.56 606.87 C 744.87 610.00 745.04 614.91 740.84 615.35 C 741.16 624.56 744.99 633.04 748.56 641.36 C 754.67 655.91 762.68 669.55 769.06 683.98 C 771.98 690.86 774.45 698.39 773.21 705.96 C 772.47 711.31 768.98 715.75 767.92 721.02 C 766.77 726.26 766.59 731.66 766.05 736.99 C 765.13 752.85 763.05 768.69 759.12 784.11 C 755.60 798.82 751.41 813.43 745.33 827.30 C 740.04 839.33 734.86 851.51 727.70 862.58 C 728.57 865.42 728.55 868.90 730.99 870.99 C 733.37 873.30 735.75 875.67 737.43 878.58 C 740.25 883.61 745.18 886.81 749.15 890.84 C 755.69 897.26 761.47 904.95 763.77 913.96 C 765.36 919.86 763.48 926.22 759.80 930.95 C 764.24 938.33 769.63 945.09 775.37 951.50 C 779.79 956.44 785.38 960.28 789.37 965.63 C 792.19 969.56 793.24 975.79 789.41 979.45 C 785.54 983.22 780.03 984.48 775.03 986.05 C 764.59 988.69 753.72 990.03 742.97 989.48 C 730.68 988.65 721.76 978.73 710.00 976.23 C 705.72 975.19 701.24 975.20 697.01 974.00 C 692.58 972.34 691.92 967.00 691.60 962.94 C 691.01 950.90 692.76 938.91 693.45 926.92 C 693.62 925.10 692.57 923.53 691.96 921.92 C 688.23 913.78 686.74 904.85 683.17 896.65 C 682.41 894.63 680.56 893.37 678.88 892.19 C 671.93 887.58 664.75 883.01 659.36 876.55 C 653.84 869.90 651.19 860.61 653.44 852.15 C 654.17 849.34 655.18 846.61 656.12 843.87 C 648.18 828.32 638.16 813.85 631.34 797.72 C 624.95 782.82 623.16 766.55 622.21 750.52 C 620.43 733.91 619.67 716.89 614.00 701.02 C 610.97 692.54 605.95 684.79 599.34 678.66 C 588.11 667.44 575.82 657.20 562.20 649.00 C 560.34 652.88 558.81 656.92 556.86 660.76 C 555.80 662.76 554.44 665.01 552.06 665.55 C 549.38 665.22 547.13 663.57 545.02 662.02 C 539.81 657.98 535.01 653.35 531.24 647.92 C 527.02 641.88 522.89 635.61 517.10 630.93 C 511.16 625.73 503.87 622.39 498.00 617.09 C 489.53 609.55 481.45 601.57 473.59 593.41 C 469.09 588.59 463.71 584.59 459.93 579.14 C 456.56 574.55 453.18 569.93 449.13 565.92 C 443.65 560.37 440.74 552.97 436.49 546.55 C 428.88 534.93 428.15 520.62 424.05 507.70 C 419.86 502.05 419.41 494.77 419.34 487.99 C 419.33 482.37 421.37 477.03 423.77 472.03 C 419.31 463.42 417.10 453.28 419.81 443.77 C 421.82 436.82 418.73 429.81 415.18 423.95 C 408.13 411.94 396.60 403.09 390.70 390.33 C 387.45 383.26 389.29 375.34 388.71 367.87 C 387.95 359.16 382.44 351.94 380.14 343.68 C 377.77 335.53 377.17 326.71 372.72 319.29 C 366.88 309.87 361.70 299.96 358.38 289.35 C 346.26 298.67 338.08 311.98 331.62 325.61 C 329.19 330.46 325.71 337.02 319.19 335.71 C 312.11 342.95 305.85 351.49 303.95 361.65 C 310.14 368.55 316.22 376.06 324.63 380.35 C 333.55 384.09 343.52 385.22 351.93 390.23 C 355.49 392.11 356.15 396.40 356.76 399.99 C 357.74 407.25 356.97 414.61 357.59 421.90 C 359.37 426.18 363.28 429.93 362.79 434.90 C 362.76 437.16 360.19 438.92 358.13 437.78 C 347.75 432.79 341.34 422.80 333.70 414.63 C 336.72 419.16 339.74 423.70 342.95 428.11 C 347.12 433.57 351.71 438.75 355.29 444.64 C 357.14 447.64 358.25 451.41 357.10 454.87 C 356.57 456.48 354.81 457.67 353.11 457.08 C 349.93 455.96 347.53 453.41 345.22 451.07 C 346.97 453.80 349.00 458.32 345.63 460.71 C 341.23 462.77 336.78 459.30 333.38 456.78 C 330.46 460.42 325.66 458.85 322.39 456.64 C 315.83 452.37 310.09 446.97 304.39 441.65 C 298.99 436.28 293.24 430.63 290.90 423.17 C 289.65 419.33 290.16 415.22 291.18 411.40 C 288.69 406.48 283.86 403.60 279.72 400.24 C 269.84 392.21 256.95 387.17 250.50 375.53 C 244.78 366.50 246.94 355.30 249.74 345.67 C 253.58 333.65 259.35 322.32 265.80 311.50 C 263.20 310.07 260.15 309.03 258.27 306.61 C 258.92 300.89 262.22 295.90 265.11 291.06 C 274.03 277.79 287.24 268.46 299.04 257.98 C 304.98 253.19 307.12 245.52 309.69 238.66 C 313.57 227.94 314.64 216.46 318.63 205.79 C 321.55 197.74 325.76 190.01 331.95 184.00 C 340.93 174.99 353.07 170.34 364.61 165.57 C 374.68 161.35 385.78 160.28 395.72 155.71 C 401.08 153.31 405.44 149.15 410.85 146.85 C 418.28 143.58 426.52 142.91 434.10 140.18 C 440.78 133.13 445.34 123.94 445.86 114.14 C 442.85 110.80 439.68 107.57 437.24 103.78 C 433.00 97.26 430.60 89.69 429.45 82.04 C 427.85 70.69 430.42 59.35 430.91 48.01 C 431.42 41.24 431.71 33.75 436.21 28.24 C 437.81 26.06 440.28 24.85 442.67 23.75 C 445.30 19.16 448.90 15.16 453.42 12.37 C 461.15 7.49 469.55 3.19 478.72 1.89 M 521.11 41.35 C 522.72 49.22 526.28 56.55 527.72 64.44 C 519.48 57.72 510.15 52.46 502.20 45.37 C 503.57 51.72 505.31 58.07 505.48 64.60 C 499.15 60.00 493.72 54.28 489.69 47.56 C 488.26 52.56 487.45 57.71 486.16 62.74 C 480.25 57.66 475.12 51.75 469.33 46.54 C 472.21 51.92 474.47 57.66 475.35 63.72 C 472.10 61.89 469.23 59.51 466.35 57.17 C 468.22 61.80 467.90 66.90 469.49 71.61 C 475.94 72.50 482.48 72.51 488.91 71.47 C 495.49 71.00 503.40 70.46 508.45 75.57 C 510.87 77.76 508.14 80.87 505.85 81.75 C 497.37 85.51 487.76 85.64 478.73 84.23 C 475.18 83.91 471.13 82.81 467.95 84.98 C 465.13 87.01 462.78 89.60 460.47 92.18 C 462.04 96.19 465.20 99.57 465.71 103.98 C 466.36 108.77 465.18 114.29 461.00 117.21 C 460.19 112.18 459.94 107.05 458.58 102.13 C 457.75 98.78 456.06 95.63 455.95 92.14 C 455.61 86.83 455.70 81.00 452.42 76.50 C 450.62 74.09 448.30 71.29 445.00 71.40 C 441.41 72.92 440.71 77.58 441.45 81.00 C 442.35 87.84 447.91 92.68 449.83 99.14 C 451.67 104.18 452.99 110.67 448.87 114.98 C 449.03 127.71 442.31 139.66 432.91 147.89 C 430.77 150.31 427.70 152.57 427.31 155.97 C 428.01 159.89 430.35 163.27 432.36 166.63 C 437.83 175.30 447.19 180.16 455.65 185.39 C 460.61 188.42 466.50 188.74 472.13 189.14 C 480.71 189.64 487.57 195.74 496.00 196.93 C 496.80 195.07 497.54 193.17 497.79 191.16 C 499.24 181.29 500.05 171.32 502.24 161.57 C 492.84 158.79 485.18 152.40 477.88 146.14 C 474.95 143.24 471.19 140.53 470.55 136.16 C 472.38 136.44 473.97 137.40 475.19 138.77 C 479.78 143.59 485.14 147.57 490.47 151.53 C 495.40 154.92 500.90 158.10 507.01 158.47 C 513.12 158.48 517.68 153.44 520.71 148.65 C 527.57 137.48 531.09 124.64 534.17 112.00 C 536.15 104.57 535.90 96.73 534.52 89.22 C 531.33 85.39 526.19 84.01 521.51 82.98 C 522.31 87.66 523.71 92.21 525.28 96.69 C 525.95 98.74 526.85 100.89 526.24 103.08 C 524.46 104.82 523.71 101.94 523.15 100.83 C 520.92 94.42 518.17 87.89 518.51 80.98 C 518.39 79.00 519.66 77.33 520.92 75.95 C 524.82 71.89 530.41 69.69 536.01 69.68 C 536.48 66.09 536.74 62.47 536.71 58.84 C 533.14 55.06 531.39 49.98 527.75 46.26 C 525.85 44.23 523.52 42.69 521.11 41.35 M 413.71 149.76 C 408.73 151.78 404.73 155.49 400.04 158.03 C 393.16 161.85 385.42 163.65 377.85 165.56 C 369.46 167.65 361.45 171.01 353.58 174.54 C 343.41 178.86 333.82 185.43 328.10 195.09 C 318.09 210.83 317.91 230.17 310.70 247.03 C 316.48 241.86 320.92 235.27 327.10 230.57 C 326.78 235.07 323.36 238.31 320.68 241.62 C 313.32 249.90 305.33 257.64 296.92 264.85 C 289.74 271.03 282.15 276.78 275.77 283.82 C 269.80 289.88 265.29 297.20 262.02 305.03 C 270.60 308.37 279.53 310.94 287.69 315.30 C 299.22 320.92 310.07 328.09 322.46 331.79 C 326.76 326.28 329.08 319.60 332.53 313.59 C 336.32 306.92 340.67 300.53 345.92 294.92 C 355.23 284.86 367.55 277.43 380.97 274.44 C 383.75 274.10 387.79 272.71 389.34 276.01 C 382.65 277.58 376.05 279.59 369.84 282.55 C 375.45 297.12 384.60 310.45 396.92 320.13 C 400.81 323.23 405.70 324.47 410.16 326.48 C 410.30 326.89 410.57 327.72 410.70 328.13 C 405.50 330.06 400.09 326.82 395.54 324.49 C 381.58 315.00 371.50 300.37 366.11 284.48 C 364.75 285.29 363.39 286.11 362.04 286.92 C 365.76 297.31 370.81 307.13 376.33 316.66 C 382.22 326.63 382.02 338.70 386.91 349.06 C 389.65 355.04 392.94 361.16 392.74 367.94 C 392.66 375.05 391.19 382.73 394.73 389.29 C 399.65 398.33 406.93 405.74 413.39 413.67 C 418.58 420.51 423.64 428.09 424.65 436.84 C 425.36 441.99 423.03 446.89 422.91 452.00 C 422.84 457.47 424.53 462.79 426.68 467.76 C 438.33 450.23 457.75 439.94 477.14 433.19 C 491.56 426.89 505.38 419.31 519.63 412.62 C 524.30 410.63 528.76 406.93 534.13 407.69 C 530.29 411.93 524.87 414.15 520.03 417.01 C 508.79 422.86 497.48 428.60 486.07 434.12 C 478.80 437.79 470.85 439.85 463.61 443.57 C 447.83 450.97 432.95 462.37 425.73 478.66 C 422.57 485.63 423.77 493.45 425.28 500.67 C 453.18 485.32 485.27 478.46 516.98 478.39 C 530.35 478.05 543.62 480.71 557.00 480.03 C 579.15 479.16 601.40 477.45 623.01 472.24 C 630.01 470.45 637.20 469.50 644.14 467.45 C 642.06 458.70 639.86 449.72 634.75 442.18 C 632.12 438.27 629.08 433.71 624.07 432.87 C 619.15 432.44 614.62 434.89 609.93 435.94 C 594.91 439.65 579.55 443.19 566.03 451.01 C 557.26 456.06 547.26 458.50 537.22 459.23 C 525.56 460.05 513.73 460.67 502.12 459.01 C 503.21 458.07 504.34 456.99 505.90 457.05 C 512.26 456.23 518.67 457.06 525.05 456.67 C 534.66 456.13 544.45 455.82 553.70 452.89 C 560.99 450.66 567.23 446.12 574.24 443.24 C 586.55 438.11 599.57 435.03 612.46 431.74 C 608.92 424.48 604.08 417.73 597.58 412.83 C 598.93 409.85 602.54 408.89 603.91 405.95 C 605.49 402.38 605.11 398.32 604.72 394.55 C 603.29 385.57 600.81 376.65 596.38 368.67 C 594.50 365.33 592.16 361.86 588.39 360.51 C 582.31 358.18 575.84 357.18 569.55 355.61 C 559.09 353.34 549.23 348.97 539.72 344.16 C 535.18 341.64 530.19 339.56 526.69 335.57 C 527.44 335.64 528.95 335.78 529.70 335.85 C 536.69 339.31 543.33 343.50 550.63 346.36 C 560.27 350.90 570.71 353.19 581.09 355.32 C 579.46 349.94 578.82 343.60 574.16 339.82 C 571.08 337.37 567.58 335.39 565.16 332.22 C 568.35 333.37 571.44 334.79 574.54 336.18 C 578.78 326.55 580.55 315.68 579.36 305.22 C 577.98 296.15 571.65 288.67 570.76 279.49 C 569.35 265.33 571.23 250.29 564.93 237.04 C 563.32 232.96 560.42 229.23 560.42 224.67 C 564.09 228.83 566.88 233.72 569.09 238.79 C 574.32 251.90 572.89 266.31 574.50 280.05 C 574.99 283.80 576.78 287.18 578.31 290.59 C 582.41 284.39 587.56 279.02 592.44 273.46 C 582.36 262.89 578.11 248.50 574.28 234.78 C 570.29 220.33 569.61 204.50 561.30 191.60 C 556.12 184.79 549.55 178.34 541.08 176.00 C 529.44 172.15 515.46 173.86 506.00 164.77 C 503.26 174.80 503.65 185.36 501.18 195.44 C 500.39 198.11 498.11 201.05 495.01 200.62 C 489.33 199.91 484.16 197.30 478.99 195.01 C 472.85 192.32 465.90 193.52 459.59 191.48 C 453.64 189.64 448.64 185.81 443.42 182.56 C 434.35 176.95 426.99 168.24 423.80 157.99 C 422.24 152.66 426.81 148.65 429.94 145.06 C 424.50 146.51 418.95 147.66 413.71 149.76 M 721.16 240.37 C 720.40 245.38 718.34 250.15 715.20 254.12 C 713.94 255.94 712.08 257.61 711.98 259.97 C 711.57 267.01 712.96 274.12 711.80 281.13 C 711.55 283.07 709.90 284.34 708.10 284.79 C 708.51 276.56 708.14 268.32 708.33 260.09 C 708.35 256.47 710.98 253.76 712.89 250.94 C 715.07 247.89 716.37 244.33 717.33 240.74 C 716.38 239.68 715.44 238.63 714.51 237.59 C 705.02 246.92 698.98 258.96 692.11 270.19 C 690.35 272.70 690.09 275.75 690.49 278.71 C 692.19 278.79 693.88 278.86 695.61 278.98 C 691.92 282.39 686.40 281.33 681.85 282.49 C 660.11 286.39 637.50 288.54 615.82 283.12 C 607.88 280.87 599.62 280.10 591.39 280.36 C 587.52 284.85 583.71 289.40 580.17 294.16 C 585.51 305.01 584.01 317.52 581.14 328.83 C 599.71 330.13 618.40 330.56 636.94 328.56 C 643.75 327.72 650.04 324.82 656.45 322.52 C 665.37 319.08 674.63 316.60 683.61 313.33 C 688.74 311.46 694.22 311.12 699.58 310.34 C 706.73 309.32 712.92 303.86 715.10 297.01 C 718.70 286.36 719.42 274.92 723.45 264.39 C 726.14 257.11 730.81 250.83 734.57 244.11 C 728.83 248.09 724.77 254.18 718.53 257.44 C 717.75 254.05 721.04 252.14 723.07 250.09 C 727.16 246.05 732.61 242.81 733.97 236.81 C 729.84 238.45 725.52 239.52 721.16 240.37 M 257.28 337.27 C 253.57 346.33 250.19 356.12 251.35 366.03 C 253.69 376.95 263.23 384.18 272.23 389.71 C 279.66 394.65 287.29 399.63 293.27 406.34 C 294.20 403.05 292.97 398.64 296.12 396.37 C 298.09 401.99 296.18 407.81 294.37 413.18 C 292.41 418.96 294.70 425.14 298.12 429.87 C 303.11 436.78 309.66 442.33 315.96 448.01 C 320.13 451.58 324.42 455.64 330.10 456.47 C 326.12 448.07 318.25 442.57 312.60 435.41 C 308.89 430.89 304.85 426.12 303.85 420.17 C 306.94 422.40 308.78 425.82 311.23 428.66 C 316.93 435.96 323.93 442.09 329.81 449.23 C 333.88 453.03 338.24 457.47 344.14 457.86 C 343.46 455.46 342.32 453.22 340.72 451.30 C 333.49 442.21 325.14 433.99 318.77 424.23 C 317.90 422.80 316.74 421.10 317.79 419.44 C 318.95 419.76 320.02 420.27 320.99 420.99 C 329.08 427.95 335.22 436.76 342.59 444.41 C 346.16 448.14 349.67 452.09 354.24 454.62 C 354.24 452.15 354.04 449.58 352.59 447.49 C 347.26 438.93 340.28 431.55 334.92 423.02 C 332.94 419.76 330.18 416.80 329.25 413.02 C 328.66 410.62 331.56 409.18 333.42 410.47 C 336.71 412.44 338.94 415.69 341.44 418.53 C 346.61 424.81 352.23 431.04 359.60 434.80 C 358.96 432.45 358.16 430.14 356.89 428.06 C 351.62 419.22 344.78 411.42 339.51 402.59 C 338.85 401.40 337.44 398.33 340.05 398.49 C 345.63 403.12 348.44 410.23 353.14 415.70 C 353.22 408.76 353.37 401.52 350.98 394.91 C 348.32 392.50 344.57 391.96 341.32 390.70 C 333.32 387.80 324.43 386.77 317.47 381.52 C 307.82 374.92 301.79 364.53 292.84 357.16 C 289.36 354.25 285.76 351.38 281.63 349.46 C 278.43 347.95 274.85 347.50 271.63 346.07 C 270.57 342.94 274.25 344.12 276.04 344.31 C 285.43 346.10 293.42 351.86 300.45 358.06 C 302.72 348.63 308.47 340.51 315.59 334.10 C 306.73 330.93 298.78 325.82 290.42 321.60 C 283.43 317.98 276.04 315.22 268.67 312.50 C 264.99 320.81 261.07 329.02 257.28 337.27 M 625.05 476.24 C 602.14 481.87 578.51 483.46 555.01 484.23 C 543.32 484.61 531.74 482.51 520.06 482.57 C 488.07 482.31 455.52 488.76 427.30 504.19 C 430.74 516.26 432.26 529.01 437.59 540.46 C 441.74 547.31 445.59 554.36 450.09 560.98 C 454.39 565.67 458.68 570.39 462.37 575.60 C 466.25 581.30 471.83 585.48 476.54 590.45 C 484.46 598.56 492.45 606.63 500.99 614.10 C 506.74 619.14 513.72 622.51 519.47 627.56 C 525.23 632.21 529.47 638.35 533.65 644.39 C 538.37 651.33 544.53 657.18 551.23 662.20 C 555.20 655.63 557.39 648.15 561.72 641.77 C 572.63 624.22 586.65 608.78 596.67 590.66 C 601.36 582.91 606.82 575.62 613.03 569.03 C 615.20 566.86 617.40 564.52 620.29 563.34 C 621.50 562.72 622.75 563.50 623.57 564.38 C 630.14 571.13 637.28 577.33 643.23 584.68 C 655.11 598.81 666.94 613.94 671.85 632.07 C 678.69 625.58 687.29 621.46 695.98 618.04 C 710.43 612.14 726.38 609.37 741.92 611.68 C 740.50 592.71 731.56 575.40 721.32 559.74 C 712.51 546.88 704.81 533.20 694.69 521.28 C 691.96 518.35 688.48 516.20 686.04 512.99 C 681.50 507.18 677.65 500.82 672.64 495.38 C 669.86 492.27 665.18 492.53 661.94 490.11 C 654.82 485.24 651.63 476.86 645.89 470.69 C 639.28 473.68 632.00 474.42 625.05 476.24 M 595.95 599.96 C 591.37 607.86 585.56 614.93 580.38 622.43 C 574.89 629.98 569.69 637.74 564.35 645.40 C 578.92 654.48 592.43 665.31 604.36 677.65 C 615.00 689.23 620.19 704.66 622.93 719.88 C 643.00 723.45 663.86 717.43 680.87 706.73 C 679.72 703.95 678.23 701.13 678.43 698.05 C 678.72 691.65 681.14 685.50 680.96 679.06 C 680.77 672.41 680.35 665.53 677.47 659.42 C 675.11 654.20 671.18 649.68 669.91 644.00 C 668.84 639.01 668.39 633.88 666.84 629.00 C 662.35 615.53 653.91 603.88 645.13 592.90 C 637.89 583.61 629.39 575.45 621.07 567.17 C 610.97 576.62 602.78 587.98 595.95 599.96 M 695.65 621.74 C 687.17 625.21 678.56 629.37 672.56 636.53 C 673.19 640.03 673.54 643.66 675.11 646.91 C 677.04 650.89 679.71 654.48 681.42 658.58 C 684.32 665.31 684.87 672.76 685.06 680.01 C 685.14 686.77 682.23 693.19 682.44 699.95 C 683.64 704.96 687.30 708.85 689.63 713.35 C 692.99 718.83 695.28 724.89 698.39 730.49 C 713.93 744.96 738.88 750.15 758.08 740.08 C 759.89 738.78 763.04 737.79 762.85 735.10 C 762.83 729.40 762.62 723.61 764.17 718.07 C 765.32 713.59 768.20 709.71 768.79 705.07 C 769.68 699.24 767.98 693.44 766.00 688.02 C 760.50 674.02 753.08 660.89 746.91 647.19 C 742.35 636.58 736.89 625.89 736.86 614.06 C 722.75 613.53 708.62 616.18 695.65 621.74 M 662.91 720.16 C 650.26 724.11 636.59 726.41 623.45 723.59 C 626.02 740.30 626.23 757.26 628.72 773.97 C 631.60 792.21 640.85 808.40 649.72 824.29 C 656.15 834.98 661.38 846.34 667.99 856.93 C 675.15 868.00 680.98 879.88 685.99 892.06 C 690.89 903.54 693.20 915.95 698.70 927.20 C 701.72 927.81 705.64 930.04 708.12 927.12 C 711.50 923.42 713.72 918.80 717.31 915.25 C 722.65 909.39 730.34 906.15 738.15 905.32 C 733.42 895.96 729.85 886.05 726.94 875.98 C 722.27 860.67 720.60 844.69 717.90 828.97 C 715.44 814.31 712.96 799.62 708.86 785.30 C 703.89 768.32 699.74 751.11 694.72 734.14 C 691.70 725.79 688.18 717.55 683.18 710.16 C 676.91 714.39 670.12 717.85 662.91 720.16 M 699.83 736.25 C 702.58 747.12 705.67 757.91 708.30 768.81 C 712.30 783.81 716.94 798.68 719.41 814.04 C 722.29 828.65 724.36 843.40 726.91 858.06 C 731.25 849.87 735.31 841.52 738.90 832.97 C 752.00 804.39 759.66 773.38 762.04 742.06 C 756.67 745.27 750.71 747.49 744.49 748.24 C 728.84 750.22 712.24 746.17 699.83 736.25 M 659.22 849.62 C 658.11 854.87 657.11 860.53 659.24 865.68 C 662.76 874.94 671.47 880.57 678.97 886.38 C 673.74 873.44 666.77 861.33 659.22 849.62 M 741.82 904.79 C 743.81 905.77 745.96 906.80 746.99 908.91 C 750.59 915.05 753.73 921.45 757.67 927.39 C 759.12 924.14 760.80 920.60 759.83 916.96 C 757.20 905.71 749.44 896.50 740.82 889.19 C 737.11 886.15 734.28 882.26 731.88 878.16 C 734.34 887.33 737.84 896.18 741.82 904.79 M 721.02 916.98 C 716.44 921.22 714.19 927.45 709.28 931.34 C 705.49 934.11 700.63 932.08 696.74 930.64 C 696.83 942.12 694.79 953.58 695.93 965.04 C 696.02 967.92 697.78 971.11 701.02 971.14 C 707.36 971.72 713.84 972.48 719.58 975.49 C 727.83 979.42 735.38 985.85 744.95 986.06 C 754.59 986.22 764.29 985.05 773.65 982.71 C 778.90 981.24 784.87 979.20 787.53 974.02 C 787.82 968.75 783.43 965.25 779.90 962.10 C 771.87 955.08 764.91 946.87 759.00 938.02 C 755.63 931.86 751.12 926.44 747.86 920.23 C 745.75 916.44 743.81 912.55 741.99 908.62 C 734.31 908.78 726.47 911.41 721.02 916.98 Z" />
		<path fill="#000000" opacity="1.00"
			d=" M 519.96 110.97 C 522.40 109.60 523.67 107.07 525.07 104.78 C 526.73 107.07 528.99 109.87 527.82 112.89 C 526.69 115.67 523.26 116.01 520.74 116.75 C 518.59 117.00 515.77 118.38 514.34 116.04 C 514.72 113.18 518.05 112.62 519.96 110.97 Z" />
		<path fill="#000000" opacity="1.00"
			d=" M 491.35 131.70 C 492.46 131.17 493.54 130.40 494.82 130.35 C 500.53 129.74 506.29 129.97 512.02 129.88 C 516.45 129.94 520.97 129.52 525.30 130.73 C 523.10 132.59 521.24 135.49 518.10 135.68 C 511.75 136.28 505.29 136.88 498.95 135.99 C 496.89 135.74 495.67 133.88 494.24 132.60 C 493.52 132.38 492.07 131.92 491.35 131.70 Z" />
		<path fill="#000000" opacity="1.00"
			d=" M 459.39 325.39 C 462.78 321.32 465.93 317.04 469.35 312.99 C 470.37 316.47 467.97 319.43 466.12 322.11 C 452.16 341.68 433.85 358.37 412.47 369.50 C 408.39 371.66 404.34 373.96 399.90 375.33 C 399.87 371.82 403.57 370.60 405.95 368.89 C 414.54 363.95 423.30 359.24 431.12 353.10 C 441.45 344.86 451.18 335.78 459.39 325.39 Z" />
		<path fill="#000000" opacity="1.00"
			d=" M 494.56 317.46 C 495.40 316.21 496.99 316.31 498.29 315.97 C 496.30 322.43 492.01 327.79 488.35 333.37 C 478.91 347.60 467.42 360.32 455.68 372.65 C 446.78 382.56 433.29 387.52 426.07 399.05 C 429.59 399.29 433.32 398.56 436.69 399.88 C 436.00 402.40 433.09 402.47 431.02 403.03 C 428.34 403.45 425.03 404.32 422.79 402.25 C 420.58 400.03 422.03 396.73 423.56 394.58 C 431.45 383.67 444.16 377.92 453.21 368.18 C 464.79 356.31 475.72 343.74 485.17 330.10 C 488.33 325.91 491.16 321.46 494.56 317.46 Z" />
	</g>
	<g id="#f0b58bff">
		<path fill="#f0b58b" opacity="1.00"
			d=" M 521.11 41.35 C 523.52 42.69 525.85 44.23 527.75 46.26 C 531.39 49.98 533.14 55.06 536.71 58.84 C 536.74 62.47 536.48 66.09 536.01 69.68 C 530.41 69.69 524.82 71.89 520.92 75.95 C 519.66 77.33 518.39 79.00 518.51 80.98 C 518.17 87.89 520.92 94.42 523.15 100.83 C 523.71 101.94 524.46 104.82 526.24 103.08 C 526.85 100.89 525.95 98.74 525.28 96.69 C 523.71 92.21 522.31 87.66 521.51 82.98 C 526.19 84.01 531.33 85.39 534.52 89.22 C 535.90 96.73 536.15 104.57 534.17 112.00 C 531.09 124.64 527.57 137.48 520.71 148.65 C 517.68 153.44 513.12 158.48 507.01 158.47 C 500.90 158.10 495.40 154.92 490.47 151.53 C 485.14 147.57 479.78 143.59 475.19 138.77 C 473.97 137.40 472.38 136.44 470.55 136.16 C 471.19 140.53 474.95 143.24 477.88 146.14 C 485.18 152.40 492.84 158.79 502.24 161.57 C 500.05 171.32 499.24 181.29 497.79 191.16 C 497.54 193.17 496.80 195.07 496.00 196.93 C 487.57 195.74 480.71 189.64 472.13 189.14 C 466.50 188.74 460.61 188.42 455.65 185.39 C 447.19 180.16 437.83 175.30 432.36 166.63 C 430.35 163.27 428.01 159.89 427.31 155.97 C 427.70 152.57 430.77 150.31 432.91 147.89 C 442.31 139.66 449.03 127.71 448.87 114.98 C 452.99 110.67 451.67 104.18 449.83 99.14 C 447.91 92.68 442.35 87.84 441.45 81.00 C 440.71 77.58 441.41 72.92 445.00 71.40 C 448.30 71.29 450.62 74.09 452.42 76.50 C 455.70 81.00 455.61 86.83 455.95 92.14 C 456.06 95.63 457.75 98.78 458.58 102.13 C 459.94 107.05 460.19 112.18 461.00 117.21 C 465.18 114.29 466.36 108.77 465.71 103.98 C 465.20 99.57 462.04 96.19 460.47 92.18 C 462.78 89.60 465.13 87.01 467.95 84.98 C 471.13 82.81 475.18 83.91 478.73 84.23 C 487.76 85.64 497.37 85.51 505.85 81.75 C 508.14 80.87 510.87 77.76 508.45 75.57 C 503.40 70.46 495.49 71.00 488.91 71.47 C 482.48 72.51 475.94 72.50 469.49 71.61 C 467.90 66.90 468.22 61.80 466.35 57.17 C 469.23 59.51 472.10 61.89 475.35 63.72 C 474.47 57.66 472.21 51.92 469.33 46.54 C 475.12 51.75 480.25 57.66 486.16 62.74 C 487.45 57.71 488.26 52.56 489.69 47.56 C 493.72 54.28 499.15 60.00 505.48 64.60 C 505.31 58.07 503.57 51.72 502.20 45.37 C 510.15 52.46 519.48 57.72 527.72 64.44 C 526.28 56.55 522.72 49.22 521.11 41.35 M 519.96 110.97 C 518.05 112.62 514.72 113.18 514.34 116.04 C 515.77 118.38 518.59 117.00 520.74 116.75 C 523.26 116.01 526.69 115.67 527.82 112.89 C 528.99 109.87 526.73 107.07 525.07 104.78 C 523.67 107.07 522.40 109.60 519.96 110.97 M 491.35 131.70 C 492.07 131.92 493.52 132.38 494.24 132.60 C 495.67 133.88 496.89 135.74 498.95 135.99 C 505.29 136.88 511.75 136.28 518.10 135.68 C 521.24 135.49 523.10 132.59 525.30 130.73 C 520.97 129.52 516.45 129.94 512.02 129.88 C 506.29 129.97 500.53 129.74 494.82 130.35 C 493.54 130.40 492.46 131.17 491.35 131.70 Z" />
		<path fill="#f0b58b" opacity="1.00"
			d=" M 721.16 240.37 C 725.52 239.52 729.84 238.45 733.97 236.81 C 732.61 242.81 727.16 246.05 723.07 250.09 C 721.04 252.14 717.75 254.05 718.53 257.44 C 724.77 254.18 728.83 248.09 734.57 244.11 C 730.81 250.83 726.14 257.11 723.45 264.39 C 719.42 274.92 718.70 286.36 715.10 297.01 C 712.92 303.86 706.73 309.32 699.58 310.34 C 694.22 311.12 688.74 311.46 683.61 313.33 C 674.63 316.60 665.37 319.08 656.45 322.52 C 650.04 324.82 643.75 327.72 636.94 328.56 C 618.40 330.56 599.71 330.13 581.14 328.83 C 584.01 317.52 585.51 305.01 580.17 294.16 C 583.71 289.40 587.52 284.85 591.39 280.36 C 599.62 280.10 607.88 280.87 615.82 283.12 C 637.50 288.54 660.11 286.39 681.85 282.49 C 686.40 281.33 691.92 282.39 695.61 278.98 C 693.88 278.86 692.19 278.79 690.49 278.71 C 690.09 275.75 690.35 272.70 692.11 270.19 C 698.98 258.96 705.02 246.92 714.51 237.59 C 715.44 238.63 716.38 239.68 717.33 240.74 C 716.37 244.33 715.07 247.89 712.89 250.94 C 710.98 253.76 708.35 256.47 708.33 260.09 C 708.14 268.32 708.51 276.56 708.10 284.79 C 709.90 284.34 711.55 283.07 711.80 281.13 C 712.96 274.12 711.57 267.01 711.98 259.97 C 712.08 257.61 713.94 255.94 715.20 254.12 C 718.34 250.15 720.40 245.38 721.16 240.37 Z" />
		<path fill="#f0b58b" opacity="1.00"
			d=" M 257.28 337.27 C 261.07 329.02 264.99 320.81 268.67 312.50 C 276.04 315.22 283.43 317.98 290.42 321.60 C 298.78 325.82 306.73 330.93 315.59 334.10 C 308.47 340.51 302.72 348.63 300.45 358.06 C 293.42 351.86 285.43 346.10 276.04 344.31 C 274.25 344.12 270.57 342.94 271.63 346.07 C 274.85 347.50 278.43 347.95 281.63 349.46 C 285.76 351.38 289.36 354.25 292.84 357.16 C 301.79 364.53 307.82 374.92 317.47 381.52 C 324.43 386.77 333.32 387.80 341.32 390.70 C 344.57 391.96 348.32 392.50 350.98 394.91 C 353.37 401.52 353.22 408.76 353.14 415.70 C 348.44 410.23 345.63 403.12 340.05 398.49 C 337.44 398.33 338.85 401.40 339.51 402.59 C 344.78 411.42 351.62 419.22 356.89 428.06 C 358.16 430.14 358.96 432.45 359.60 434.80 C 352.23 431.04 346.61 424.81 341.44 418.53 C 338.94 415.69 336.71 412.44 333.42 410.47 C 331.56 409.18 328.66 410.62 329.25 413.02 C 330.18 416.80 332.94 419.76 334.92 423.02 C 340.28 431.55 347.26 438.93 352.59 447.49 C 354.04 449.58 354.24 452.15 354.24 454.62 C 349.67 452.09 346.16 448.14 342.59 444.41 C 335.22 436.76 329.08 427.95 320.99 420.99 C 320.02 420.27 318.95 419.76 317.79 419.44 C 316.74 421.10 317.90 422.80 318.77 424.23 C 325.14 433.99 333.49 442.21 340.72 451.30 C 342.32 453.22 343.46 455.46 344.14 457.86 C 338.24 457.47 333.88 453.03 329.81 449.23 C 323.93 442.09 316.93 435.96 311.23 428.66 C 308.78 425.82 306.94 422.40 303.85 420.17 C 304.85 426.12 308.89 430.89 312.60 435.41 C 318.25 442.57 326.12 448.07 330.10 456.47 C 324.42 455.64 320.13 451.58 315.96 448.01 C 309.66 442.33 303.11 436.78 298.12 429.87 C 294.70 425.14 292.41 418.96 294.37 413.18 C 296.18 407.81 298.09 401.99 296.12 396.37 C 292.97 398.64 294.20 403.05 293.27 406.34 C 287.29 399.63 279.66 394.65 272.23 389.71 C 263.23 384.18 253.69 376.95 251.35 366.03 C 250.19 356.12 253.57 346.33 257.28 337.27 Z" />
		<path fill="#f0b58b" opacity="1.00"
			d=" M 595.95 599.96 C 602.78 587.98 610.97 576.62 621.07 567.17 C 629.39 575.45 637.89 583.61 645.13 592.90 C 653.91 603.88 662.35 615.53 666.84 629.00 C 668.39 633.88 668.84 639.01 669.91 644.00 C 671.18 649.68 675.11 654.20 677.47 659.42 C 680.35 665.53 680.77 672.41 680.96 679.06 C 681.14 685.50 678.72 691.65 678.43 698.05 C 678.23 701.13 679.72 703.95 680.87 706.73 C 663.86 717.43 643.00 723.45 622.93 719.88 C 620.19 704.66 615.00 689.23 604.36 677.65 C 592.43 665.31 578.92 654.48 564.35 645.40 C 569.69 637.74 574.89 629.98 580.38 622.43 C 585.56 614.93 591.37 607.86 595.95 599.96 Z" />
		<path fill="#f0b58b" opacity="1.00"
			d=" M 695.65 621.74 C 708.62 616.18 722.75 613.53 736.86 614.06 C 736.89 625.89 742.35 636.58 746.91 647.19 C 753.08 660.89 760.50 674.02 766.00 688.02 C 767.98 693.44 769.68 699.24 768.79 705.07 C 768.20 709.71 765.32 713.59 764.17 718.07 C 762.62 723.61 762.83 729.40 762.85 735.10 C 763.04 737.79 759.89 738.78 758.08 740.08 C 738.88 750.15 713.93 744.96 698.39 730.49 C 695.28 724.89 692.99 718.83 689.63 713.35 C 687.30 708.85 683.64 704.96 682.44 699.95 C 682.23 693.19 685.14 686.77 685.06 680.01 C 684.87 672.76 684.32 665.31 681.42 658.58 C 679.71 654.48 677.04 650.89 675.11 646.91 C 673.54 643.66 673.19 640.03 672.56 636.53 C 678.56 629.37 687.17 625.21 695.65 621.74 Z" />
	</g>
	<g id="#f11b27ff">
		<path fill="var(--shirt-color, grey)" opacity="1.00"
			d=" M 413.71 149.76 C 418.95 147.66 424.50 146.51 429.94 145.06 C 426.81 148.65 422.24 152.66 423.80 157.99 C 426.99 168.24 434.35 176.95 443.42 182.56 C 448.64 185.81 453.64 189.64 459.59 191.48 C 465.90 193.52 472.85 192.32 478.99 195.01 C 484.16 197.30 489.33 199.91 495.01 200.62 C 498.11 201.05 500.39 198.11 501.18 195.44 C 503.65 185.36 503.26 174.80 506.00 164.77 C 515.46 173.86 529.44 172.15 541.08 176.00 C 549.55 178.34 556.12 184.79 561.30 191.60 C 569.61 204.50 570.29 220.33 574.28 234.78 C 578.11 248.50 582.36 262.89 592.44 273.46 C 587.56 279.02 582.41 284.39 578.31 290.59 C 576.78 287.18 574.99 283.80 574.50 280.05 C 572.89 266.31 574.32 251.90 569.09 238.79 C 566.88 233.72 564.09 228.83 560.42 224.67 C 560.42 229.23 563.32 232.96 564.93 237.04 C 571.23 250.29 569.35 265.33 570.76 279.49 C 571.65 288.67 577.98 296.15 579.36 305.22 C 580.55 315.68 578.78 326.55 574.54 336.18 C 571.44 334.79 568.35 333.37 565.16 332.22 C 567.58 335.39 571.08 337.37 574.16 339.82 C 578.82 343.60 579.46 349.94 581.09 355.32 C 570.71 353.19 560.27 350.90 550.63 346.36 C 543.33 343.50 536.69 339.31 529.70 335.85 C 528.95 335.78 527.44 335.64 526.69 335.57 C 530.19 339.56 535.18 341.64 539.72 344.16 C 549.23 348.97 559.09 353.34 569.55 355.61 C 575.84 357.18 582.31 358.18 588.39 360.51 C 592.16 361.86 594.50 365.33 596.38 368.67 C 600.81 376.65 603.29 385.57 604.72 394.55 C 605.11 398.32 605.49 402.38 603.91 405.95 C 602.54 408.89 598.93 409.85 597.58 412.83 C 604.08 417.73 608.92 424.48 612.46 431.74 C 599.57 435.03 586.55 438.11 574.24 443.24 C 567.23 446.12 560.99 450.66 553.70 452.89 C 544.45 455.82 534.66 456.13 525.05 456.67 C 518.67 457.06 512.26 456.23 505.90 457.05 C 504.34 456.99 503.21 458.07 502.12 459.01 C 513.73 460.67 525.56 460.05 537.22 459.23 C 547.26 458.50 557.26 456.06 566.03 451.01 C 579.55 443.19 594.91 439.65 609.93 435.94 C 614.62 434.89 619.15 432.44 624.07 432.87 C 629.08 433.71 632.12 438.27 634.75 442.18 C 639.86 449.72 642.06 458.70 644.14 467.45 C 637.20 469.50 630.01 470.45 623.01 472.24 C 601.40 477.45 579.15 479.16 557.00 480.03 C 543.62 480.71 530.35 478.05 516.98 478.39 C 485.27 478.46 453.18 485.32 425.28 500.67 C 423.77 493.45 422.57 485.63 425.73 478.66 C 432.95 462.37 447.83 450.97 463.61 443.57 C 470.85 439.85 478.80 437.79 486.07 434.12 C 497.48 428.60 508.79 422.86 520.03 417.01 C 524.87 414.15 530.29 411.93 534.13 407.69 C 528.76 406.93 524.30 410.63 519.63 412.62 C 505.38 419.31 491.56 426.89 477.14 433.19 C 457.75 439.94 438.33 450.23 426.68 467.76 C 424.53 462.79 422.84 457.47 422.91 452.00 C 423.03 446.89 425.36 441.99 424.65 436.84 C 423.64 428.09 418.58 420.51 413.39 413.67 C 406.93 405.74 399.65 398.33 394.73 389.29 C 391.19 382.73 392.66 375.05 392.74 367.94 C 392.94 361.16 389.65 355.04 386.91 349.06 C 382.02 338.70 382.22 326.63 376.33 316.66 C 370.81 307.13 365.76 297.31 362.04 286.92 C 363.39 286.11 364.75 285.29 366.11 284.48 C 371.50 300.37 381.58 315.00 395.54 324.49 C 400.09 326.82 405.50 330.06 410.70 328.13 C 410.57 327.72 410.30 326.89 410.16 326.48 C 405.70 324.47 400.81 323.23 396.92 320.13 C 384.60 310.45 375.45 297.12 369.84 282.55 C 376.05 279.59 382.65 277.58 389.34 276.01 C 387.79 272.71 383.75 274.10 380.97 274.44 C 367.55 277.43 355.23 284.86 345.92 294.92 C 340.67 300.53 336.32 306.92 332.53 313.59 C 329.08 319.60 326.76 326.28 322.46 331.79 C 310.07 328.09 299.22 320.92 287.69 315.30 C 279.53 310.94 270.60 308.37 262.02 305.03 C 265.29 297.20 269.80 289.88 275.77 283.82 C 282.15 276.78 289.74 271.03 296.92 264.85 C 305.33 257.64 313.32 249.90 320.68 241.62 C 323.36 238.31 326.78 235.07 327.10 230.57 C 320.92 235.27 316.48 241.86 310.70 247.03 C 317.91 230.17 318.09 210.83 328.10 195.09 C 333.82 185.43 343.41 178.86 353.58 174.54 C 361.45 171.01 369.46 167.65 377.85 165.56 C 385.42 163.65 393.16 161.85 400.04 158.03 C 404.73 155.49 408.73 151.78 413.71 149.76 M 459.39 325.39 C 451.18 335.78 441.45 344.86 431.12 353.10 C 423.30 359.24 414.54 363.95 405.95 368.89 C 403.57 370.60 399.87 371.82 399.90 375.33 C 404.34 373.96 408.39 371.66 412.47 369.50 C 433.85 358.37 452.16 341.68 466.12 322.11 C 467.97 319.43 470.37 316.47 469.35 312.99 C 465.93 317.04 462.78 321.32 459.39 325.39 M 494.56 317.46 C 491.16 321.46 488.33 325.91 485.17 330.10 C 475.72 343.74 464.79 356.31 453.21 368.18 C 444.16 377.92 431.45 383.67 423.56 394.58 C 422.03 396.73 420.58 400.03 422.79 402.25 C 425.03 404.32 428.34 403.45 431.02 403.03 C 433.09 402.47 436.00 402.40 436.69 399.88 C 433.32 398.56 429.59 399.29 426.07 399.05 C 433.29 387.52 446.78 382.56 455.68 372.65 C 467.42 360.32 478.91 347.60 488.35 333.37 C 492.01 327.79 496.30 322.43 498.29 315.97 C 496.99 316.31 495.40 316.21 494.56 317.46 Z" />
	</g>
	<g id="#2b3dcdff">
		<path fill="var(--pants-color, grey)" opacity="1.00"
			d=" M 625.05 476.24 C 632.00 474.42 639.28 473.68 645.89 470.69 C 651.63 476.86 654.82 485.24 661.94 490.11 C 665.18 492.53 669.86 492.27 672.64 495.38 C 677.65 500.82 681.50 507.18 686.04 512.99 C 688.48 516.20 691.96 518.35 694.69 521.28 C 704.81 533.20 712.51 546.88 721.32 559.74 C 731.56 575.40 740.50 592.71 741.92 611.68 C 726.38 609.37 710.43 612.14 695.98 618.04 C 687.29 621.46 678.69 625.58 671.85 632.07 C 666.94 613.94 655.11 598.81 643.23 584.68 C 637.28 577.33 630.14 571.13 623.57 564.38 C 622.75 563.50 621.50 562.72 620.29 563.34 C 617.40 564.52 615.20 566.86 613.03 569.03 C 606.82 575.62 601.36 582.91 596.67 590.66 C 586.65 608.78 572.63 624.22 561.72 641.77 C 557.39 648.15 555.20 655.63 551.23 662.20 C 544.53 657.18 538.37 651.33 533.65 644.39 C 529.47 638.35 525.23 632.21 519.47 627.56 C 513.72 622.51 506.74 619.14 500.99 614.10 C 492.45 606.63 484.46 598.56 476.54 590.45 C 471.83 585.48 466.25 581.30 462.37 575.60 C 458.68 570.39 454.39 565.67 450.09 560.98 C 445.59 554.36 441.74 547.31 437.59 540.46 C 432.26 529.01 430.74 516.26 427.30 504.19 C 455.52 488.76 488.07 482.31 520.06 482.57 C 531.74 482.51 543.32 484.61 555.01 484.23 C 578.51 483.46 602.14 481.87 625.05 476.24 Z" />
		<path fill="var(--socks-color, grey)" opacity="1.00"
			d=" M 662.91 720.16 C 670.12 717.85 676.91 714.39 683.18 710.16 C 688.18 717.55 691.70 725.79 694.72 734.14 C 699.74 751.11 703.89 768.32 708.86 785.30 C 712.96 799.62 715.44 814.31 717.90 828.97 C 720.60 844.69 722.27 860.67 726.94 875.98 C 729.85 886.05 733.42 895.96 738.15 905.32 C 730.34 906.15 722.65 909.39 717.31 915.25 C 713.72 918.80 711.50 923.42 708.12 927.12 C 705.64 930.04 701.72 927.81 698.70 927.20 C 693.20 915.95 690.89 903.54 685.99 892.06 C 680.98 879.88 675.15 868.00 667.99 856.93 C 661.38 846.34 656.15 834.98 649.72 824.29 C 640.85 808.40 631.60 792.21 628.72 773.97 C 626.23 757.26 626.02 740.30 623.45 723.59 C 636.59 726.41 650.26 724.11 662.91 720.16 Z" />
		<path fill="var(--socks-color, grey)" opacity="1.00"
			d=" M 699.83 736.25 C 712.24 746.17 728.84 750.22 744.49 748.24 C 750.71 747.49 756.67 745.27 762.04 742.06 C 759.66 773.38 752.00 804.39 738.90 832.97 C 735.31 841.52 731.25 849.87 726.91 858.06 C 724.36 843.40 722.29 828.65 719.41 814.04 C 716.94 798.68 712.30 783.81 708.30 768.81 C 705.67 757.91 702.58 747.12 699.83 736.25 Z" />
	</g>
	<g id="#4d4d4dff">
		<path fill="#4d4d4d" opacity="1.00"
			d=" M 659.22 849.62 C 666.77 861.33 673.74 873.44 678.97 886.38 C 671.47 880.57 662.76 874.94 659.24 865.68 C 657.11 860.53 658.11 854.87 659.22 849.62 Z" />
		<path fill="#4d4d4d" opacity="1.00"
			d=" M 741.82 904.79 C 737.84 896.18 734.34 887.33 731.88 878.16 C 734.28 882.26 737.11 886.15 740.82 889.19 C 749.44 896.50 757.20 905.71 759.83 916.96 C 760.80 920.60 759.12 924.14 757.67 927.39 C 753.73 921.45 750.59 915.05 746.99 908.91 C 745.96 906.80 743.81 905.77 741.82 904.79 Z" />
		<path fill="#4d4d4d" opacity="1.00"
			d=" M 721.02 916.98 C 726.47 911.41 734.31 908.78 741.99 908.62 C 743.81 912.55 745.75 916.44 747.86 920.23 C 751.12 926.44 755.63 931.86 759.00 938.02 C 764.91 946.87 771.87 955.08 779.90 962.10 C 783.43 965.25 787.82 968.75 787.53 974.02 C 784.87 979.20 778.90 981.24 773.65 982.71 C 764.29 985.05 754.59 986.22 744.95 986.06 C 735.38 985.85 727.83 979.42 719.58 975.49 C 713.84 972.48 707.36 971.72 701.02 971.14 C 697.78 971.11 696.02 967.92 695.93 965.04 C 694.79 953.58 696.83 942.12 696.74 930.64 C 700.63 932.08 705.49 934.11 709.28 931.34 C 714.19 927.45 716.44 921.22 721.02 916.98 Z" />
	</g>
</svg>