<?xml version="1.0" encoding="UTF-8" ?>
<!DOCTYPE svg PUBLIC "-//W3C//DTD SVG 1.1//EN" "http://www.w3.org/Graphics/SVG/1.1/DTD/svg11.dtd">
<svg width="1000pt" height="1000pt" viewBox="0 0 1000 1000" version="1.1" xmlns="http://www.w3.org/2000/svg">
	<g id="#020202ff">
		<path fill="#020202" opacity="1.00"
			d=" M 543.68 49.71 C 554.33 23.18 582.36 4.66 610.96 5.48 C 623.20 5.94 636.13 10.23 644.05 20.02 C 646.74 23.85 652.14 24.37 654.72 28.39 C 657.76 31.80 657.16 36.52 657.43 40.70 C 660.37 48.86 662.84 57.28 663.73 65.94 C 664.31 72.66 664.83 79.40 666.01 86.05 C 667.56 94.31 671.82 101.68 674.65 109.52 C 675.52 111.56 675.17 113.96 673.58 115.54 C 669.56 120.06 663.15 120.58 657.95 122.93 C 653.32 133.78 653.05 146.07 647.61 156.62 C 646.01 159.39 643.71 162.83 640.04 162.44 C 633.57 161.18 628.41 156.70 623.55 152.52 C 621.44 154.88 619.31 157.22 617.12 159.52 C 622.08 160.24 627.53 159.39 631.99 162.11 C 640.72 166.98 651.28 168.24 659.06 174.86 C 667.00 180.97 671.85 190.32 673.51 200.09 C 676.76 216.09 672.51 232.31 667.63 247.51 C 663.86 258.61 660.77 269.95 658.69 281.49 C 657.87 286.37 655.83 291.00 655.68 295.99 C 654.88 308.28 653.43 320.56 650.46 332.53 C 648.00 342.35 646.82 352.44 644.26 362.24 C 641.35 372.90 641.73 384.07 642.10 395.01 C 642.17 410.08 642.86 425.40 639.02 440.13 C 636.39 452.23 630.02 463.47 629.68 476.05 C 629.09 483.47 631.22 490.70 632.07 498.01 C 632.53 500.81 631.29 503.46 629.15 505.24 C 632.81 526.26 634.23 547.66 633.84 568.99 C 633.93 584.76 634.34 600.60 636.73 616.22 C 638.40 625.44 637.96 634.91 640.22 644.05 C 643.36 657.29 648.04 670.30 648.85 683.99 C 649.05 687.33 648.50 690.70 646.91 693.67 C 646.19 693.80 644.74 694.05 644.02 694.18 C 644.70 701.08 645.64 707.96 646.58 714.83 C 647.80 722.44 648.96 730.56 645.93 737.91 C 641.49 748.13 633.40 756.01 626.23 764.32 C 615.62 775.71 606.55 788.51 599.30 802.29 C 591.81 816.70 581.04 829.38 568.09 839.15 C 558.15 846.74 548.87 855.14 539.53 863.45 C 548.49 869.66 557.24 876.47 563.81 885.29 C 570.29 893.24 575.15 902.42 582.15 909.98 C 585.69 913.83 589.18 917.86 591.41 922.66 C 595.10 930.47 597.73 939.28 596.13 947.98 C 595.61 952.50 593.85 957.40 589.66 959.75 C 584.90 962.60 579.05 961.38 574.02 959.97 C 560.72 955.63 549.81 946.52 538.81 938.22 C 530.60 932.15 523.33 924.93 515.19 918.82 C 503.82 912.18 491.11 907.65 480.89 899.11 C 475.74 894.70 472.41 887.81 473.30 880.95 C 474.43 871.39 477.50 861.94 482.94 853.94 C 487.41 846.90 494.39 841.83 498.79 834.75 C 509.30 814.84 523.32 796.53 529.91 774.75 C 534.60 761.85 540.07 749.12 547.61 737.61 C 552.81 730.04 559.02 723.23 565.55 716.80 C 562.85 711.41 560.38 705.76 560.04 699.64 C 551.93 700.76 543.65 701.44 535.50 700.32 C 531.38 699.68 527.10 698.83 523.66 696.32 C 522.38 695.49 522.16 693.89 521.76 692.56 C 520.13 685.76 519.92 678.73 518.73 671.86 C 517.21 662.85 514.69 654.04 513.02 645.06 C 510.90 650.56 507.80 655.59 504.29 660.30 C 497.60 669.38 493.58 680.01 489.32 690.36 C 487.68 694.23 486.48 698.43 483.87 701.79 C 478.51 705.83 471.72 707.38 465.24 708.59 C 457.73 720.16 455.38 734.20 447.67 745.66 C 442.09 753.54 438.29 762.45 434.05 771.07 C 425.07 790.48 417.86 810.65 411.01 830.89 C 405.90 845.40 401.37 860.12 397.13 874.90 C 394.11 884.77 390.90 894.59 388.34 904.59 C 387.32 908.73 385.57 913.00 386.60 917.33 C 387.38 921.61 390.01 925.16 391.91 928.99 C 397.06 939.33 401.56 950.10 408.38 959.52 C 411.21 963.68 414.58 967.47 417.16 971.81 C 418.88 974.96 420.35 979.00 418.40 982.40 C 416.87 985.44 413.50 986.71 410.44 987.62 C 399.62 990.95 388.21 991.35 377.00 992.20 C 366.74 992.92 355.95 992.97 346.39 988.67 C 341.41 986.28 336.70 982.37 334.92 976.98 C 333.01 971.08 330.39 965.28 330.29 958.98 C 329.92 944.47 329.81 929.32 335.78 915.78 C 339.68 906.34 339.78 896.01 340.90 886.01 C 341.94 876.37 342.72 866.70 343.35 857.03 C 344.84 840.28 347.11 823.60 349.46 806.95 C 351.76 790.57 355.06 773.94 363.40 759.43 C 370.73 746.70 379.43 734.82 387.72 722.71 C 389.38 720.22 391.22 717.84 393.29 715.68 C 393.87 702.24 392.66 688.80 391.29 675.44 C 389.16 671.05 383.19 668.39 383.19 663.01 C 385.04 653.54 388.11 644.34 391.20 635.22 C 395.17 619.52 395.64 602.91 402.05 587.87 C 402.95 585.71 402.86 583.33 402.79 581.05 C 401.92 565.39 400.64 549.59 402.82 533.97 C 404.06 526.37 405.87 518.83 408.58 511.62 C 410.68 506.73 409.69 501.03 412.37 496.32 C 414.97 491.72 415.50 486.24 415.19 481.05 C 414.07 467.36 411.81 453.74 411.90 439.97 C 412.14 428.54 413.48 417.00 417.28 406.17 C 420.23 397.65 424.08 389.24 424.57 380.10 C 424.93 370.36 425.66 360.56 427.88 351.05 C 425.47 344.96 422.70 338.73 422.90 332.04 C 423.16 325.06 424.51 318.16 426.39 311.45 C 424.05 310.52 421.34 310.01 419.62 308.03 C 419.51 304.71 422.04 302.10 423.12 299.11 C 427.42 288.46 428.13 276.85 430.71 265.75 C 432.20 259.13 437.53 254.58 442.13 250.02 C 448.30 232.74 444.28 213.66 450.25 196.29 C 452.50 188.29 456.70 180.59 463.47 175.54 C 473.51 168.09 485.67 164.43 497.43 160.68 C 507.92 157.13 514.72 147.90 523.04 141.17 C 529.48 136.63 537.75 139.25 544.94 139.44 C 551.79 135.67 556.96 129.29 560.39 122.34 C 562.03 118.63 563.59 114.45 562.83 110.36 C 553.40 101.18 545.07 90.21 541.89 77.21 C 539.35 68.15 540.55 58.46 543.68 49.71 M 633.30 40.93 C 633.26 44.59 635.06 48.10 634.68 51.72 C 629.48 54.26 623.51 52.06 618.15 51.22 C 615.66 56.06 614.75 61.52 614.39 66.89 C 614.08 70.92 615.08 74.98 614.30 78.97 C 612.63 81.71 608.81 80.56 606.19 80.37 C 602.72 79.58 598.14 79.17 596.57 75.40 C 594.67 71.28 592.93 67.06 590.42 63.26 C 584.40 66.95 581.04 73.94 581.74 80.96 C 582.06 92.64 590.75 101.37 594.94 111.67 C 581.84 111.17 568.69 107.40 557.88 99.83 C 560.31 102.82 562.91 105.67 565.51 108.51 C 568.25 111.13 567.12 115.31 566.47 118.57 C 563.58 128.81 556.26 137.78 546.90 142.79 C 543.35 144.45 538.49 147.25 539.66 151.93 C 541.43 160.25 547.91 166.47 553.87 172.09 C 559.81 178.04 568.34 179.60 575.62 183.27 C 583.68 187.07 592.03 192.29 595.28 201.05 C 597.53 199.68 600.75 198.84 601.47 195.94 C 602.69 191.10 601.85 186.04 602.61 181.13 C 603.58 174.46 605.38 167.73 609.04 162.01 C 612.66 157.63 616.07 153.01 620.42 149.30 C 616.27 144.85 612.08 140.41 608.41 135.55 C 607.16 134.03 606.64 132.11 606.19 130.25 C 607.63 130.46 608.93 131.02 610.07 131.91 C 619.87 140.99 628.14 152.79 641.09 157.61 C 641.94 156.40 642.95 155.27 643.54 153.89 C 647.34 144.58 648.77 134.55 651.86 125.01 C 652.72 122.44 653.40 119.21 656.20 118.08 C 661.08 116.14 666.39 115.16 670.73 112.02 C 667.75 103.99 662.86 96.68 660.91 88.26 C 659.78 82.77 659.51 77.16 659.22 71.58 C 657.00 73.49 654.30 74.95 652.59 77.36 C 650.84 80.94 649.70 84.78 648.22 88.48 C 639.92 84.87 631.62 81.26 623.19 77.96 C 622.15 77.46 621.15 76.89 620.20 76.25 C 627.87 71.19 636.15 66.91 644.92 64.12 C 649.65 62.53 655.02 62.81 659.07 65.94 C 658.36 58.83 656.31 51.96 655.02 44.95 C 652.53 47.21 649.72 49.37 646.26 49.72 C 647.66 45.43 647.83 40.50 645.58 36.45 C 644.31 34.09 641.60 32.65 638.94 32.83 C 635.28 33.45 632.98 37.39 633.30 40.93 M 524.89 145.95 C 516.83 153.38 509.24 162.18 498.46 165.63 C 488.03 168.85 477.39 172.12 468.24 178.25 C 462.55 182.02 458.32 187.80 456.25 194.28 C 450.15 210.01 452.35 227.19 449.33 243.50 C 453.44 236.71 455.73 228.96 459.98 222.27 C 460.50 222.41 461.55 222.70 462.07 222.85 C 462.43 226.58 460.68 230.02 459.51 233.46 C 457.23 239.43 455.35 246.02 450.37 250.39 C 446.16 254.17 441.44 257.56 438.35 262.40 C 436.37 265.39 435.95 269.04 435.27 272.48 C 433.18 283.89 431.62 295.71 426.05 306.07 C 430.40 306.23 434.79 306.35 439.09 305.54 C 443.57 304.76 448.54 303.99 452.69 306.39 C 460.57 310.89 466.50 318.02 473.94 323.14 C 479.65 327.21 487.39 326.73 492.74 331.48 C 498.57 320.78 503.56 309.65 508.80 298.65 C 514.41 286.52 518.88 273.86 525.13 262.02 C 525.98 260.36 527.26 258.89 529.13 258.40 C 526.32 269.12 521.72 279.27 518.16 289.75 C 523.36 286.30 528.94 283.49 534.26 280.25 C 536.60 278.98 538.92 277.21 541.71 277.23 C 541.84 277.65 542.11 278.48 542.24 278.90 C 538.61 283.44 533.08 285.98 528.54 289.54 C 522.00 293.43 515.71 298.23 512.00 305.05 C 507.31 314.53 503.61 324.64 497.26 333.20 C 496.09 334.55 494.93 336.37 492.98 336.53 C 490.18 335.07 487.55 333.28 484.54 332.24 C 482.80 337.51 481.19 342.81 479.58 348.11 C 490.72 346.54 501.73 344.02 512.47 340.63 C 524.38 336.69 535.44 330.63 546.31 324.45 C 547.66 323.41 551.26 323.00 549.79 325.68 C 547.10 328.46 543.78 330.52 540.54 332.59 C 530.40 338.77 519.54 343.94 508.01 346.93 C 498.10 349.47 488.14 351.97 477.94 353.03 C 479.85 355.43 481.86 357.75 483.94 360.01 C 490.59 357.22 497.95 357.05 505.06 356.74 C 519.19 356.64 533.72 357.53 546.92 363.05 C 554.53 366.27 562.48 369.02 569.37 373.64 C 571.28 374.59 570.31 377.79 568.13 376.70 C 555.47 372.27 543.16 366.34 529.82 364.11 C 515.88 362.08 501.58 361.79 487.66 364.23 C 498.06 376.67 509.68 388.61 516.17 403.72 C 519.38 410.76 521.38 418.55 526.41 424.61 C 530.13 429.28 535.15 432.63 539.95 436.10 C 549.69 443.05 559.85 449.40 569.60 456.35 C 576.32 460.91 582.50 466.21 589.10 470.94 C 597.59 477.68 606.24 484.51 612.73 493.30 C 614.76 495.93 615.71 499.15 616.35 502.36 C 619.90 502.83 623.54 502.39 626.54 500.32 C 625.53 492.23 623.25 484.24 623.80 476.03 C 624.06 462.55 630.79 450.46 633.61 437.51 C 638.90 417.03 635.25 395.76 636.59 374.93 C 636.99 365.44 640.67 356.54 642.12 347.22 C 643.91 335.91 647.41 324.93 648.75 313.54 C 649.74 305.07 650.63 296.58 650.78 288.05 C 651.03 275.85 647.51 264.03 646.60 251.93 C 646.15 245.61 645.21 239.22 646.15 232.91 C 646.23 231.34 647.38 230.37 648.71 229.76 C 649.27 232.45 649.54 235.18 649.70 237.92 C 650.52 250.79 653.62 263.34 655.40 276.09 C 657.58 256.82 666.86 239.20 669.10 219.95 C 670.39 209.88 669.23 199.32 664.89 190.08 C 660.48 180.98 651.50 174.98 642.03 172.12 C 636.56 170.58 631.77 167.54 626.79 164.96 C 622.23 164.32 617.59 164.58 613.01 164.17 C 608.86 172.46 607.64 181.88 607.73 191.05 C 607.80 196.03 606.24 202.12 601.01 203.95 C 598.49 204.69 595.40 206.62 592.92 205.09 C 590.91 202.10 589.87 198.41 587.03 196.00 C 578.60 188.40 567.42 185.32 557.42 180.45 C 549.88 175.96 543.68 169.44 538.71 162.27 C 534.91 156.69 533.39 149.12 537.20 143.15 C 533.04 143.51 528.17 142.79 524.89 145.95 M 441.42 310.69 C 437.95 311.47 434.40 311.88 430.84 311.92 C 429.41 322.57 426.97 334.00 431.85 344.16 C 435.47 352.75 438.08 361.73 441.81 370.27 C 445.05 377.63 449.52 384.33 453.96 391.01 C 463.29 404.75 473.43 418.05 485.33 429.69 C 499.06 443.30 513.08 456.60 527.19 469.82 C 531.76 473.54 536.15 477.49 539.81 482.14 C 547.05 491.08 554.60 499.95 559.81 510.29 C 562.66 514.90 566.35 518.97 570.39 522.59 C 573.25 525.18 575.95 528.08 579.48 529.78 C 576.93 525.01 574.44 520.17 571.17 515.85 C 566.17 509.46 561.04 503.13 556.69 496.27 C 555.40 494.94 556.70 492.44 558.50 493.53 C 566.45 499.19 572.33 507.14 577.73 515.15 C 581.18 520.42 583.43 526.40 587.31 531.40 C 586.32 525.26 586.08 518.23 581.52 513.49 C 575.79 507.15 570.07 500.74 565.30 493.64 C 564.49 492.62 563.62 489.71 565.95 490.34 C 569.44 491.70 571.86 494.86 574.45 497.45 C 578.67 502.26 583.35 506.65 587.63 511.41 C 593.48 517.54 591.33 527.45 597.48 533.48 C 594.21 525.57 593.48 516.97 591.24 508.77 C 590.86 507.34 590.16 506.00 589.12 504.95 C 585.24 500.81 581.37 496.67 577.27 492.76 C 575.18 490.54 572.44 488.49 572.17 485.21 C 576.57 485.93 579.51 489.56 582.86 492.15 C 587.33 496.24 593.03 499.59 595.35 505.49 C 598.19 513.84 598.36 523.04 602.60 530.93 C 603.18 523.99 603.61 517.02 604.70 510.13 C 605.47 506.88 603.40 504.01 601.37 501.72 C 596.27 496.12 590.60 491.08 584.95 486.05 C 584.05 485.11 582.88 484.26 582.57 482.94 C 582.50 481.21 584.64 480.69 585.88 481.44 C 596.58 486.93 605.21 495.80 611.86 505.72 C 611.78 502.27 611.41 498.64 609.10 495.91 C 600.47 484.52 588.54 476.33 577.32 467.74 C 562.25 455.84 545.42 446.44 530.19 434.76 C 525.67 431.30 521.62 427.08 518.95 422.02 C 515.41 415.53 513.51 408.33 510.18 401.74 C 504.84 390.73 496.53 381.61 488.80 372.26 C 483.75 365.97 478.09 360.18 473.24 353.73 C 471.68 351.60 469.85 349.48 469.58 346.73 C 471.49 347.03 472.98 348.25 474.38 349.50 C 475.27 343.28 477.16 337.25 479.71 331.51 C 467.88 328.27 460.81 317.40 450.76 311.21 C 447.97 309.36 444.49 310.15 441.42 310.69 M 428.76 389.09 C 426.96 397.59 422.94 405.40 420.80 413.80 C 417.02 428.22 416.99 443.33 418.52 458.07 C 419.32 468.02 421.03 477.98 420.43 487.99 C 425.35 483.72 430.02 479.11 435.35 475.33 C 440.43 471.70 446.72 470.49 452.79 469.74 C 460.54 468.85 468.25 467.76 476.00 466.90 C 482.01 466.26 488.01 464.85 494.08 465.32 C 495.62 465.36 498.54 466.77 496.44 468.35 C 485.62 469.99 474.95 472.52 464.09 473.89 C 455.20 475.47 445.23 474.86 437.75 480.75 C 431.58 485.57 425.61 490.64 419.50 495.53 C 417.22 497.13 416.73 499.96 416.09 502.47 C 430.73 498.68 446.02 499.39 461.00 499.51 C 475.53 499.91 490.08 500.67 504.49 502.67 C 517.28 504.35 530.13 505.39 542.95 506.71 C 545.98 506.96 549.02 506.87 552.06 506.76 C 545.08 496.93 538.32 486.78 529.61 478.37 C 522.85 473.16 516.77 467.17 510.48 461.41 C 499.40 450.91 488.28 440.44 477.60 429.52 C 463.88 415.24 452.35 399.04 441.56 382.49 C 436.92 375.32 433.94 367.29 430.93 359.35 C 429.34 369.20 430.99 379.31 428.76 389.09 M 414.21 508.09 C 411.30 516.78 409.12 525.71 407.72 534.76 C 405.47 550.78 407.16 566.97 407.70 583.04 C 408.05 587.77 405.38 591.88 404.17 596.28 C 400.92 607.38 399.67 618.92 397.29 630.21 C 396.08 637.38 392.93 643.99 391.02 650.96 C 389.89 655.01 388.80 659.08 387.69 663.14 C 401.37 675.49 412.87 690.83 429.63 699.33 C 445.84 706.80 464.41 704.02 480.79 698.67 C 486.93 683.98 491.52 668.26 501.50 655.53 C 507.24 648.58 508.98 639.44 514.11 632.12 C 516.74 635.87 515.92 640.83 517.38 645.06 C 520.00 654.09 521.90 663.31 523.68 672.54 C 524.93 679.38 525.43 686.37 527.32 693.09 C 538.74 695.56 550.53 694.95 562.00 693.13 C 575.68 691.53 589.27 689.13 603.00 687.96 C 616.45 687.06 629.96 687.22 643.40 688.19 C 642.55 668.96 632.26 651.37 632.79 632.00 C 632.50 625.92 631.56 619.91 630.58 613.92 C 628.73 602.37 628.33 590.66 627.84 578.99 C 627.39 567.68 628.10 556.35 627.27 545.05 C 626.66 532.36 625.38 519.71 623.28 507.18 C 621.03 507.15 618.79 507.11 616.55 507.05 C 615.96 509.15 616.26 511.89 614.34 513.36 C 612.83 514.40 611.09 513.28 609.61 512.82 C 609.47 518.92 609.13 525.01 608.65 531.10 C 608.42 533.68 607.69 536.93 604.91 537.89 C 602.97 538.75 601.20 537.07 599.60 536.23 C 596.89 538.97 592.83 537.90 590.58 535.17 C 589.32 535.90 588.00 537.30 586.43 536.53 C 584.41 535.66 583.02 533.87 581.46 532.42 C 576.69 535.30 572.79 530.31 569.39 527.66 C 563.20 523.05 558.75 516.69 554.44 510.39 C 550.72 511.41 546.85 511.94 542.99 511.66 C 526.33 510.36 509.74 508.30 493.15 506.31 C 474.85 504.57 456.44 503.77 438.06 504.26 C 430.00 504.60 421.82 505.23 414.21 508.09 M 396.76 680.77 C 399.17 697.21 400.75 714.28 396.49 730.55 C 396.11 730.74 395.36 731.10 394.99 731.29 C 392.64 728.77 393.55 724.95 393.09 721.85 C 390.56 725.98 387.92 730.05 385.17 734.05 C 388.71 745.38 396.21 755.26 405.68 762.34 C 412.61 767.36 421.20 771.67 430.00 769.66 C 431.55 766.48 433.13 763.29 434.95 760.26 C 433.09 760.78 431.09 762.10 429.15 761.05 C 428.64 759.55 429.41 758.44 430.59 757.62 C 437.10 752.52 441.21 745.14 445.01 737.96 C 449.93 728.78 452.19 718.36 457.87 709.57 C 450.58 710.49 443.14 709.99 436.04 708.12 C 420.09 704.20 407.75 692.34 396.76 680.77 M 605.99 694.00 C 592.07 695.01 578.33 697.64 564.44 699.03 C 566.99 709.21 573.29 718.25 573.90 728.94 C 573.92 732.05 575.20 736.55 572.01 738.51 C 570.57 732.65 570.51 726.41 567.77 720.89 C 566.83 722.19 565.43 723.31 565.05 724.91 C 565.97 732.86 569.92 740.15 574.68 746.45 C 584.38 758.64 598.29 767.98 613.86 770.36 C 618.65 764.97 623.33 759.48 628.08 754.06 C 633.21 748.39 638.30 742.42 641.08 735.20 C 643.80 727.33 641.37 719.05 640.37 711.11 C 639.65 705.17 638.51 699.26 638.35 693.27 C 627.56 692.93 616.76 693.41 605.99 694.00 M 534.73 777.73 C 529.91 793.01 521.21 806.57 513.31 820.37 C 510.01 826.03 506.09 831.35 503.26 837.26 C 499.78 850.61 510.55 865.03 524.02 866.62 C 528.50 867.05 531.97 863.75 534.99 860.94 C 544.71 851.63 554.61 842.47 565.36 834.35 C 577.70 824.93 587.55 812.50 594.80 798.83 C 599.14 790.94 604.04 783.37 609.35 776.10 C 598.08 774.09 587.79 768.26 579.30 760.71 C 570.31 752.49 562.77 742.02 560.42 729.86 C 548.53 743.78 541.25 760.82 534.73 777.73 M 366.67 762.72 C 359.62 775.72 356.64 790.39 354.51 804.90 C 351.92 822.24 349.48 839.61 347.85 857.07 C 347.14 867.03 346.33 876.99 345.22 886.91 C 344.23 895.60 343.89 904.44 341.44 912.90 C 346.85 906.69 354.41 901.21 363.06 901.95 C 370.49 903.05 376.34 908.44 381.44 913.57 C 383.44 903.43 386.38 893.51 389.42 883.64 C 394.92 866.10 399.86 848.38 405.98 831.04 C 412.39 812.14 419.07 793.28 427.41 775.14 C 419.02 775.87 410.83 772.73 404.03 768.01 C 393.89 760.98 385.50 750.93 381.72 739.07 C 376.61 746.89 371.03 754.43 366.67 762.72 M 478.14 884.06 C 478.13 888.18 480.56 891.85 483.54 894.51 C 496.47 904.97 513.55 908.82 525.87 920.15 C 533.40 926.68 541.29 932.79 549.29 938.74 C 557.76 945.07 566.61 951.34 576.83 954.47 C 580.45 955.33 584.85 956.48 588.08 953.96 C 591.88 950.54 592.16 944.89 591.54 940.16 C 590.01 931.00 585.98 922.13 579.48 915.44 C 570.79 906.53 565.42 895.10 557.33 885.71 C 551.37 878.15 543.09 873.04 535.87 866.83 C 531.32 869.71 526.05 873.15 520.42 871.43 C 507.89 868.85 498.45 857.37 497.27 844.79 C 486.56 855.06 478.42 868.91 478.14 884.06 M 357.69 908.65 C 349.97 910.51 346.27 918.70 338.82 921.04 C 335.73 934.58 334.73 948.64 336.32 962.45 C 337.97 969.12 340.05 976.83 346.43 980.54 C 354.86 986.04 365.38 986.14 375.08 985.48 C 386.46 984.64 398.05 984.35 409.06 981.07 C 411.04 980.47 413.83 979.51 413.58 976.93 C 412.30 973.90 409.84 971.63 407.79 969.14 C 401.33 961.84 396.98 953.02 392.85 944.27 C 387.88 933.99 383.59 922.92 374.92 915.09 C 370.32 910.97 364.20 906.45 357.69 908.65 Z" />
	</g>
	<g id="#f0b58bff">
		<path fill="#f0b58b" opacity="1.00"
			d=" M 633.30 40.93 C 632.98 37.39 635.28 33.45 638.94 32.83 C 641.60 32.65 644.31 34.09 645.58 36.45 C 647.83 40.50 647.66 45.43 646.26 49.72 C 649.72 49.37 652.53 47.21 655.02 44.95 C 656.31 51.96 658.36 58.83 659.07 65.94 C 655.02 62.81 649.65 62.53 644.92 64.12 C 636.15 66.91 627.87 71.19 620.20 76.25 C 621.15 76.89 622.15 77.46 623.19 77.96 C 631.62 81.26 639.92 84.87 648.22 88.48 C 649.70 84.78 650.84 80.94 652.59 77.36 C 654.30 74.95 657.00 73.49 659.22 71.58 C 659.51 77.16 659.78 82.77 660.91 88.26 C 662.86 96.68 667.75 103.99 670.73 112.02 C 666.39 115.16 661.08 116.14 656.20 118.08 C 653.40 119.21 652.72 122.44 651.86 125.01 C 648.77 134.55 647.34 144.58 643.54 153.89 C 642.95 155.27 641.94 156.40 641.09 157.61 C 628.14 152.79 619.87 140.99 610.07 131.91 C 608.93 131.02 607.63 130.46 606.19 130.25 C 606.64 132.11 607.16 134.03 608.41 135.55 C 612.08 140.41 616.27 144.85 620.42 149.30 C 616.07 153.01 612.66 157.63 609.04 162.01 C 605.38 167.73 603.58 174.46 602.61 181.13 C 601.85 186.04 602.69 191.10 601.47 195.94 C 600.75 198.84 597.53 199.68 595.28 201.05 C 592.03 192.29 583.68 187.07 575.62 183.27 C 568.34 179.60 559.81 178.04 553.87 172.09 C 547.91 166.47 541.43 160.25 539.66 151.93 C 538.49 147.25 543.35 144.45 546.90 142.79 C 556.26 137.78 563.58 128.81 566.47 118.57 C 567.12 115.31 568.25 111.13 565.51 108.51 C 562.91 105.67 560.31 102.82 557.88 99.83 C 568.69 107.40 581.84 111.17 594.94 111.67 C 590.75 101.37 582.06 92.64 581.74 80.96 C 581.04 73.94 584.40 66.95 590.42 63.26 C 592.93 67.06 594.67 71.28 596.57 75.40 C 598.14 79.17 602.72 79.58 606.19 80.37 C 608.81 80.56 612.63 81.71 614.30 78.97 C 615.08 74.98 614.08 70.92 614.39 66.89 C 614.75 61.52 615.66 56.06 618.15 51.22 C 623.51 52.06 629.48 54.26 634.68 51.72 C 635.06 48.10 633.26 44.59 633.30 40.93 Z" />
		<path fill="#f0b58b" opacity="1.00"
			d=" M 441.42 310.69 C 444.49 310.15 447.97 309.36 450.76 311.21 C 460.81 317.40 467.88 328.27 479.71 331.51 C 477.16 337.25 475.27 343.28 474.38 349.50 C 472.98 348.25 471.49 347.03 469.58 346.73 C 469.85 349.48 471.68 351.60 473.24 353.73 C 478.09 360.18 483.75 365.97 488.80 372.26 C 496.53 381.61 504.84 390.73 510.18 401.74 C 513.51 408.33 515.41 415.53 518.95 422.02 C 521.62 427.08 525.67 431.30 530.19 434.76 C 545.42 446.44 562.25 455.84 577.32 467.74 C 588.54 476.33 600.47 484.52 609.10 495.91 C 611.41 498.64 611.78 502.27 611.86 505.72 C 605.21 495.80 596.58 486.93 585.88 481.44 C 584.64 480.69 582.50 481.21 582.57 482.94 C 582.88 484.26 584.05 485.11 584.95 486.05 C 590.60 491.08 596.27 496.12 601.37 501.72 C 603.40 504.01 605.47 506.88 604.70 510.13 C 603.61 517.02 603.18 523.99 602.60 530.93 C 598.36 523.04 598.19 513.84 595.35 505.49 C 593.03 499.59 587.33 496.24 582.86 492.15 C 579.51 489.56 576.57 485.93 572.17 485.21 C 572.44 488.49 575.18 490.54 577.27 492.76 C 581.37 496.67 585.24 500.81 589.12 504.95 C 590.16 506.00 590.86 507.34 591.24 508.77 C 593.48 516.97 594.21 525.57 597.48 533.48 C 591.33 527.45 593.48 517.54 587.63 511.41 C 583.35 506.65 578.67 502.26 574.45 497.45 C 571.86 494.86 569.44 491.70 565.95 490.34 C 563.62 489.71 564.49 492.62 565.30 493.64 C 570.07 500.74 575.79 507.15 581.52 513.49 C 586.08 518.23 586.32 525.26 587.31 531.40 C 583.43 526.40 581.18 520.42 577.73 515.15 C 572.33 507.14 566.45 499.19 558.50 493.53 C 556.70 492.44 555.40 494.94 556.69 496.27 C 561.04 503.13 566.17 509.46 571.17 515.85 C 574.44 520.17 576.93 525.01 579.48 529.78 C 575.95 528.08 573.25 525.18 570.39 522.59 C 566.35 518.97 562.66 514.90 559.81 510.29 C 554.60 499.95 547.05 491.08 539.81 482.14 C 536.15 477.49 531.76 473.54 527.19 469.82 C 513.08 456.60 499.06 443.30 485.33 429.69 C 473.43 418.05 463.29 404.75 453.96 391.01 C 449.52 384.33 445.05 377.63 441.81 370.27 C 438.08 361.73 435.47 352.75 431.85 344.16 C 426.97 334.00 429.41 322.57 430.84 311.92 C 434.40 311.88 437.95 311.47 441.42 310.69 Z" />
		<path fill="#f0b58b" opacity="1.00"
			d=" M 396.76 680.77 C 407.75 692.34 420.09 704.20 436.04 708.12 C 443.14 709.99 450.58 710.49 457.87 709.57 C 452.19 718.36 449.93 728.78 445.01 737.96 C 441.21 745.14 437.10 752.52 430.59 757.62 C 429.41 758.44 428.64 759.55 429.15 761.05 C 431.09 762.10 433.09 760.78 434.95 760.26 C 433.13 763.29 431.55 766.48 430.00 769.66 C 421.20 771.67 412.61 767.36 405.68 762.34 C 396.21 755.26 388.71 745.38 385.17 734.05 C 387.92 730.05 390.56 725.98 393.09 721.85 C 393.55 724.95 392.64 728.77 394.99 731.29 C 395.36 731.10 396.11 730.74 396.49 730.55 C 400.75 714.28 399.17 697.21 396.76 680.77 Z" />
		<path fill="#f0b58b" opacity="1.00"
			d=" M 605.99 694.00 C 616.76 693.41 627.56 692.93 638.35 693.27 C 638.51 699.26 639.65 705.17 640.37 711.11 C 641.37 719.05 643.80 727.33 641.08 735.20 C 638.30 742.42 633.21 748.39 628.08 754.06 C 623.33 759.48 618.65 764.97 613.86 770.36 C 598.29 767.98 584.38 758.64 574.68 746.45 C 569.92 740.15 565.97 732.86 565.05 724.91 C 565.43 723.31 566.83 722.19 567.77 720.89 C 570.51 726.41 570.57 732.65 572.01 738.51 C 575.20 736.55 573.92 732.05 573.90 728.94 C 573.29 718.25 566.99 709.21 564.44 699.03 C 578.33 697.64 592.07 695.01 605.99 694.00 Z" />
	</g>
	<g id="#f11b27ff">
		<path fill="var(--shirt-color, grey)" opacity="1.00"
			d=" M 524.89 145.95 C 528.17 142.79 533.04 143.51 537.20 143.15 C 533.39 149.12 534.91 156.69 538.71 162.27 C 543.68 169.44 549.88 175.96 557.42 180.45 C 567.42 185.32 578.60 188.40 587.03 196.00 C 589.87 198.41 590.91 202.10 592.92 205.09 C 595.40 206.62 598.49 204.69 601.01 203.95 C 606.24 202.12 607.80 196.03 607.73 191.05 C 607.64 181.88 608.86 172.46 613.01 164.17 C 617.59 164.58 622.23 164.32 626.79 164.96 C 631.77 167.54 636.56 170.58 642.03 172.12 C 651.50 174.98 660.48 180.98 664.89 190.08 C 669.23 199.32 670.39 209.88 669.10 219.95 C 666.86 239.20 657.58 256.82 655.40 276.09 C 653.62 263.34 650.52 250.79 649.70 237.92 C 649.54 235.18 649.27 232.45 648.71 229.76 C 647.38 230.37 646.23 231.34 646.15 232.91 C 645.21 239.22 646.15 245.61 646.60 251.93 C 647.51 264.03 651.03 275.85 650.78 288.05 C 650.63 296.58 649.74 305.07 648.75 313.54 C 647.41 324.93 643.91 335.91 642.12 347.22 C 640.67 356.54 636.99 365.44 636.59 374.93 C 635.25 395.76 638.90 417.03 633.61 437.51 C 630.79 450.46 624.06 462.55 623.80 476.03 C 623.25 484.24 625.53 492.23 626.54 500.32 C 623.54 502.39 619.90 502.83 616.35 502.36 C 615.71 499.15 614.76 495.93 612.73 493.30 C 606.24 484.51 597.59 477.68 589.10 470.94 C 582.50 466.21 576.32 460.91 569.60 456.35 C 559.85 449.40 549.69 443.05 539.95 436.10 C 535.15 432.63 530.13 429.28 526.41 424.61 C 521.38 418.55 519.38 410.76 516.17 403.72 C 509.68 388.61 498.06 376.67 487.66 364.23 C 501.58 361.79 515.88 362.08 529.82 364.11 C 543.16 366.34 555.47 372.27 568.13 376.70 C 570.31 377.79 571.28 374.59 569.37 373.64 C 562.48 369.02 554.53 366.27 546.92 363.05 C 533.72 357.53 519.19 356.64 505.06 356.74 C 497.95 357.05 490.59 357.22 483.94 360.01 C 481.86 357.75 479.85 355.43 477.94 353.03 C 488.14 351.97 498.10 349.47 508.01 346.93 C 519.54 343.94 530.40 338.77 540.54 332.59 C 543.78 330.52 547.10 328.46 549.79 325.68 C 551.26 323.00 547.66 323.41 546.31 324.45 C 535.44 330.63 524.38 336.69 512.47 340.63 C 501.73 344.02 490.72 346.54 479.58 348.11 C 481.19 342.81 482.80 337.51 484.54 332.24 C 487.55 333.28 490.18 335.07 492.98 336.53 C 494.93 336.37 496.09 334.55 497.26 333.20 C 503.61 324.64 507.31 314.53 512.00 305.05 C 515.71 298.23 522.00 293.43 528.54 289.54 C 533.08 285.98 538.61 283.44 542.24 278.90 C 542.11 278.48 541.84 277.65 541.71 277.23 C 538.92 277.21 536.60 278.98 534.26 280.25 C 528.94 283.49 523.36 286.30 518.16 289.75 C 521.72 279.27 526.32 269.12 529.13 258.40 C 527.26 258.89 525.98 260.36 525.13 262.02 C 518.88 273.86 514.41 286.52 508.80 298.65 C 503.56 309.65 498.57 320.78 492.74 331.48 C 487.39 326.73 479.65 327.21 473.94 323.14 C 466.50 318.02 460.57 310.89 452.69 306.39 C 448.54 303.99 443.57 304.76 439.09 305.54 C 434.79 306.35 430.40 306.23 426.05 306.07 C 431.62 295.71 433.18 283.89 435.27 272.48 C 435.95 269.04 436.37 265.39 438.35 262.40 C 441.44 257.56 446.16 254.17 450.37 250.39 C 455.35 246.02 457.23 239.43 459.51 233.46 C 460.68 230.02 462.43 226.58 462.07 222.85 C 461.55 222.70 460.50 222.41 459.98 222.27 C 455.73 228.96 453.44 236.71 449.33 243.50 C 452.35 227.19 450.15 210.01 456.25 194.28 C 458.32 187.80 462.55 182.02 468.24 178.25 C 477.39 172.12 488.03 168.85 498.46 165.63 C 509.24 162.18 516.83 153.38 524.89 145.95 Z" />
		<path fill="var(--shirt-color, grey)" opacity="1.00"
			d=" M 428.76 389.09 C 430.99 379.31 429.34 369.20 430.93 359.35 C 433.94 367.29 436.92 375.32 441.56 382.49 C 452.35 399.04 463.88 415.24 477.60 429.52 C 488.28 440.44 499.40 450.91 510.48 461.41 C 516.77 467.17 522.85 473.16 529.61 478.37 C 538.32 486.78 545.08 496.93 552.06 506.76 C 549.02 506.87 545.98 506.96 542.95 506.71 C 530.13 505.39 517.28 504.35 504.49 502.67 C 490.08 500.67 475.53 499.91 461.00 499.51 C 446.02 499.39 430.73 498.68 416.09 502.47 C 416.73 499.96 417.22 497.13 419.50 495.53 C 425.61 490.64 431.58 485.57 437.75 480.75 C 445.23 474.86 455.20 475.47 464.09 473.89 C 474.95 472.52 485.62 469.99 496.44 468.35 C 498.54 466.77 495.62 465.36 494.08 465.32 C 488.01 464.85 482.01 466.26 476.00 466.90 C 468.25 467.76 460.54 468.85 452.79 469.74 C 446.72 470.49 440.43 471.70 435.35 475.33 C 430.02 479.11 425.35 483.72 420.43 487.99 C 421.03 477.98 419.32 468.02 418.52 458.07 C 416.99 443.33 417.02 428.22 420.80 413.80 C 422.94 405.40 426.96 397.59 428.76 389.09 Z" />
	</g>
	<g id="#2b3dcdff">
		<path fill="var(--pants-color, grey)" opacity="1.00"
			d=" M 414.21 508.09 C 421.82 505.23 430.00 504.60 438.06 504.26 C 456.44 503.77 474.85 504.57 493.15 506.31 C 509.74 508.30 526.33 510.36 542.99 511.66 C 546.85 511.94 550.72 511.41 554.44 510.39 C 558.75 516.69 563.20 523.05 569.39 527.66 C 572.79 530.31 576.69 535.30 581.46 532.42 C 583.02 533.87 584.41 535.66 586.43 536.53 C 588.00 537.30 589.32 535.90 590.58 535.17 C 592.83 537.90 596.89 538.97 599.60 536.23 C 601.20 537.07 602.97 538.75 604.91 537.89 C 607.69 536.93 608.42 533.68 608.65 531.10 C 609.13 525.01 609.47 518.92 609.61 512.82 C 611.09 513.28 612.83 514.40 614.34 513.36 C 616.26 511.89 615.96 509.15 616.55 507.05 C 618.79 507.11 621.03 507.15 623.28 507.18 C 625.38 519.71 626.66 532.36 627.27 545.05 C 628.10 556.35 627.39 567.68 627.84 578.99 C 628.33 590.66 628.73 602.37 630.58 613.92 C 631.56 619.91 632.50 625.92 632.79 632.00 C 632.26 651.37 642.55 668.96 643.40 688.19 C 629.96 687.22 616.45 687.06 603.00 687.96 C 589.27 689.13 575.68 691.53 562.00 693.13 C 550.53 694.95 538.74 695.56 527.32 693.09 C 525.43 686.37 524.93 679.38 523.68 672.54 C 521.90 663.31 520.00 654.09 517.38 645.06 C 515.92 640.83 516.74 635.87 514.11 632.12 C 508.98 639.44 507.24 648.58 501.50 655.53 C 491.52 668.26 486.93 683.98 480.79 698.67 C 464.41 704.02 445.84 706.80 429.63 699.33 C 412.87 690.83 401.37 675.49 387.69 663.14 C 388.80 659.08 389.89 655.01 391.02 650.96 C 392.93 643.99 396.08 637.38 397.29 630.21 C 399.67 618.92 400.92 607.38 404.17 596.28 C 405.38 591.88 408.05 587.77 407.70 583.04 C 407.16 566.97 405.47 550.78 407.72 534.76 C 409.12 525.71 411.30 516.78 414.21 508.09 Z" />
		<path fill="var(--socks-color, grey)" opacity="1.00"
			d=" M 534.73 777.73 C 541.25 760.82 548.53 743.78 560.42 729.86 C 562.77 742.02 570.31 752.49 579.30 760.71 C 587.79 768.26 598.08 774.09 609.35 776.10 C 604.04 783.37 599.14 790.94 594.80 798.83 C 587.55 812.50 577.70 824.93 565.36 834.35 C 554.61 842.47 544.71 851.63 534.99 860.94 C 531.97 863.75 528.50 867.05 524.02 866.62 C 510.55 865.03 499.78 850.61 503.26 837.26 C 506.09 831.35 510.01 826.03 513.31 820.37 C 521.21 806.57 529.91 793.01 534.73 777.73 Z" />
		<path fill="var(--socks-color, grey)" opacity="1.00"
			d=" M 366.67 762.72 C 371.03 754.43 376.61 746.89 381.72 739.07 C 385.50 750.93 393.89 760.98 404.03 768.01 C 410.83 772.73 419.02 775.87 427.41 775.14 C 419.07 793.28 412.39 812.14 405.98 831.04 C 399.86 848.38 394.92 866.10 389.42 883.64 C 386.38 893.51 383.44 903.43 381.44 913.57 C 376.34 908.44 370.49 903.05 363.06 901.95 C 354.41 901.21 346.85 906.69 341.44 912.90 C 343.89 904.44 344.23 895.60 345.22 886.91 C 346.33 876.99 347.14 867.03 347.85 857.07 C 349.48 839.61 351.92 822.24 354.51 804.90 C 356.64 790.39 359.62 775.72 366.67 762.72 Z" />
	</g>
	<g id="#4d4d4dff">
		<path fill="#4d4d4d" opacity="1.00"
			d=" M 478.14 884.06 C 478.42 868.91 486.56 855.06 497.27 844.79 C 498.45 857.37 507.89 868.85 520.42 871.43 C 526.05 873.15 531.32 869.71 535.87 866.83 C 543.09 873.04 551.37 878.15 557.33 885.71 C 565.42 895.10 570.79 906.53 579.48 915.44 C 585.98 922.13 590.01 931.00 591.54 940.16 C 592.16 944.89 591.88 950.54 588.08 953.96 C 584.85 956.48 580.45 955.33 576.83 954.47 C 566.61 951.34 557.76 945.07 549.29 938.74 C 541.29 932.79 533.40 926.68 525.87 920.15 C 513.55 908.82 496.47 904.97 483.54 894.51 C 480.56 891.85 478.13 888.18 478.14 884.06 Z" />
		<path fill="#4d4d4d" opacity="1.00"
			d=" M 357.69 908.65 C 364.20 906.45 370.32 910.97 374.92 915.09 C 383.59 922.92 387.88 933.99 392.85 944.27 C 396.98 953.02 401.33 961.84 407.79 969.14 C 409.84 971.63 412.30 973.90 413.58 976.93 C 413.83 979.51 411.04 980.47 409.06 981.07 C 398.05 984.35 386.46 984.64 375.08 985.48 C 365.38 986.14 354.86 986.04 346.43 980.54 C 340.05 976.83 337.97 969.12 336.32 962.45 C 334.73 948.64 335.73 934.58 338.82 921.04 C 346.27 918.70 349.97 910.51 357.69 908.65 Z" />
	</g>
</svg>