<?xml version="1.0" encoding="UTF-8" ?>
<!DOCTYPE svg PUBLIC "-//W3C//DTD SVG 1.1//EN" "http://www.w3.org/Graphics/SVG/1.1/DTD/svg11.dtd">
<svg width="1000pt" height="1000pt" viewBox="0 0 1000 1000" version="1.1" xmlns="http://www.w3.org/2000/svg">
	<g id="#020202ff">
		<path fill="#020202" opacity="1.00"
			d=" M 428.45 5.81 C 446.89 3.23 467.38 7.52 480.77 21.18 C 487.75 28.53 495.42 36.46 496.94 46.94 C 498.14 51.95 496.80 56.97 496.16 61.93 C 496.51 66.63 497.83 71.23 497.69 75.98 C 498.00 84.79 494.63 93.16 494.34 101.92 C 493.17 111.13 496.79 119.93 497.62 128.98 C 498.08 132.54 496.63 136.55 493.24 138.17 C 489.28 140.49 484.59 139.28 480.34 138.72 C 476.59 146.56 473.00 154.47 469.51 162.43 C 467.38 167.30 465.01 172.33 460.85 175.81 C 456.19 179.85 449.14 179.56 443.74 177.29 C 438.06 174.94 434.46 169.77 430.20 165.63 C 428.47 163.73 425.44 164.43 423.52 165.65 C 421.47 166.91 420.89 169.40 419.98 171.46 C 427.73 181.13 436.17 190.29 445.49 198.47 C 451.96 204.36 458.12 210.75 462.65 218.29 C 467.04 225.58 468.95 233.96 471.88 241.87 C 476.86 255.88 481.70 269.95 487.27 283.74 C 490.70 294.80 495.25 305.48 500.03 316.02 C 501.35 319.06 503.90 321.68 504.45 324.98 C 503.57 327.64 501.03 329.29 499.22 331.30 C 504.41 334.85 508.73 339.49 512.39 344.58 C 519.32 354.12 526.98 363.26 532.11 373.96 C 535.88 380.89 537.54 388.73 541.31 395.66 C 547.14 406.62 555.76 415.93 565.52 423.52 C 569.48 426.91 573.08 430.74 577.42 433.67 C 591.34 443.59 604.54 454.47 617.45 465.65 C 625.88 473.21 634.18 481.28 639.57 491.37 C 642.68 497.39 646.83 503.11 647.98 509.92 C 649.22 517.84 644.91 525.14 644.33 532.91 C 643.75 536.66 644.21 540.83 642.17 544.20 C 640.17 547.11 635.81 547.56 633.45 544.82 C 631.39 546.98 627.83 547.94 625.68 545.33 C 621.06 539.79 624.02 532.01 625.42 525.78 C 620.68 524.81 615.81 524.38 611.20 522.92 C 609.00 522.10 606.21 520.66 606.15 517.99 C 606.12 515.62 608.69 514.91 610.29 513.82 C 602.06 507.79 594.85 500.53 587.37 493.63 C 584.49 490.84 581.36 488.18 579.25 484.73 C 576.99 481.05 577.20 476.15 573.89 473.09 C 570.16 469.49 566.11 466.23 562.09 462.97 C 546.76 452.68 530.17 444.43 514.83 434.17 C 502.53 425.77 490.66 416.03 482.91 403.10 C 475.08 390.00 467.72 376.59 458.89 364.12 C 456.48 360.83 454.05 357.56 451.82 354.15 C 451.17 352.96 449.99 352.29 448.88 351.62 C 449.98 359.69 450.88 367.86 449.96 376.00 C 449.49 381.31 447.68 386.57 448.59 391.94 C 449.32 398.05 452.48 403.79 451.86 410.06 C 451.46 416.44 448.49 422.91 450.61 429.28 C 453.71 437.63 459.84 444.38 463.69 452.35 C 465.78 456.27 463.53 460.43 462.09 464.13 C 466.45 467.11 470.54 471.01 471.89 476.31 C 473.50 482.67 475.10 489.09 478.18 494.94 C 480.31 499.72 483.74 503.72 486.47 508.13 C 486.41 508.61 486.29 509.57 486.23 510.05 C 483.51 509.85 480.82 509.31 478.14 508.89 C 480.87 520.47 489.87 528.96 498.70 536.26 C 513.89 548.27 533.07 553.10 550.02 561.95 C 560.64 567.64 571.38 573.53 580.08 582.00 C 583.17 584.89 585.59 588.52 589.20 590.84 C 596.05 595.50 602.40 601.30 606.17 608.79 C 611.45 618.96 612.31 630.63 613.72 641.80 C 614.29 645.79 616.36 649.31 618.18 652.84 C 622.65 661.34 626.25 670.35 631.71 678.31 C 641.07 692.22 651.98 705.08 660.26 719.72 C 670.39 735.77 678.21 753.22 689.43 768.58 C 695.23 776.64 700.78 785.15 708.60 791.43 C 721.09 797.61 735.45 797.22 749.04 797.06 C 764.78 796.90 780.43 795.13 796.07 793.51 C 801.41 793.54 807.96 792.83 811.99 797.07 C 814.96 801.73 813.82 807.71 812.64 812.79 C 810.61 821.72 803.95 828.55 797.07 834.14 C 790.71 839.14 783.63 843.65 775.60 845.33 C 767.33 847.09 758.75 847.59 750.78 850.59 C 740.05 854.61 729.33 859.90 721.78 868.79 C 717.08 873.26 712.30 880.03 704.91 878.85 C 696.40 877.37 688.74 872.35 683.20 865.80 C 677.49 859.21 672.82 851.02 672.88 842.07 C 673.03 835.24 673.68 827.86 670.54 821.59 C 663.41 813.97 654.79 807.95 646.86 801.22 C 632.22 788.85 617.51 776.50 604.01 762.88 C 591.78 750.68 579.17 738.39 570.88 723.03 C 562.35 708.94 557.48 693.13 550.87 678.14 C 545.64 664.99 536.06 653.73 524.12 646.16 C 517.52 649.61 510.99 653.47 505.64 658.71 C 504.08 659.99 504.49 662.20 504.42 663.99 C 504.93 673.12 508.01 681.82 510.80 690.44 C 508.58 691.04 506.32 691.45 504.04 691.70 C 507.00 705.43 509.05 720.30 503.71 733.73 C 500.90 741.55 494.98 747.54 490.28 754.21 C 486.04 759.94 484.56 767.10 483.31 773.97 C 480.31 793.29 475.31 812.41 467.23 830.25 C 459.58 847.35 451.74 864.60 447.84 883.02 C 445.00 893.80 442.43 904.79 442.56 916.02 C 442.72 919.94 441.50 924.46 444.11 927.84 C 450.27 935.87 458.74 941.74 467.57 946.50 C 478.61 952.41 490.12 957.54 502.13 961.17 C 508.57 963.53 515.39 964.74 521.75 967.34 C 525.45 968.76 528.94 972.57 527.59 976.80 C 525.71 982.75 519.95 986.14 514.60 988.58 C 508.22 991.69 501.03 992.17 494.08 992.78 C 472.27 994.44 450.65 990.18 429.09 987.64 C 415.40 985.94 401.66 987.73 387.98 988.54 C 382.54 988.67 376.78 988.69 371.77 986.29 C 365.35 983.29 362.54 975.69 362.63 969.00 C 363.13 960.04 364.71 951.12 367.34 942.54 C 369.37 936.70 371.85 930.16 377.75 927.23 C 378.81 918.90 381.32 910.88 382.87 902.65 C 384.54 894.43 386.98 886.40 388.63 878.19 C 391.65 863.59 395.61 849.15 397.23 834.30 C 401.19 805.70 400.94 776.13 410.87 748.67 C 413.54 740.83 417.14 733.24 418.47 724.99 C 420.18 716.13 418.37 707.13 416.75 698.40 C 408.03 699.19 399.43 702.03 390.61 701.12 C 388.22 681.08 383.77 661.39 379.41 641.72 C 377.15 632.46 374.28 623.30 370.21 614.67 C 368.80 611.09 364.65 610.53 361.49 609.30 C 349.34 605.34 336.78 600.69 327.63 591.40 C 319.70 582.87 313.95 572.61 308.51 562.41 C 302.30 547.08 299.32 529.60 303.98 513.44 C 301.01 513.37 297.05 514.81 294.84 512.10 C 293.04 505.24 294.23 498.02 293.32 491.03 C 292.37 474.44 289.14 458.09 287.77 441.54 C 286.02 426.07 285.16 410.53 284.61 394.98 C 283.72 365.23 273.79 336.07 276.81 306.18 C 275.07 304.88 273.33 303.59 271.59 302.30 C 264.69 311.72 261.46 323.40 261.36 335.00 C 261.48 344.54 258.23 353.63 257.01 363.00 C 256.31 367.41 258.55 371.50 260.76 375.13 C 263.64 380.01 267.39 384.43 269.37 389.80 C 271.79 396.27 273.48 403.07 273.81 409.99 C 273.87 416.17 271.90 422.09 270.51 428.05 C 269.79 430.60 269.29 433.62 266.92 435.22 C 264.23 435.93 261.80 433.65 260.66 431.43 C 258.09 425.27 259.52 418.19 256.85 412.06 C 256.03 410.04 254.15 408.80 252.49 407.54 C 251.78 413.03 252.92 418.55 252.31 424.03 C 252.14 426.43 249.78 428.85 247.29 427.71 C 243.20 425.22 241.42 420.41 239.33 416.36 C 241.03 423.32 243.88 429.97 245.20 437.02 C 246.00 439.62 243.90 442.73 241.03 442.21 C 236.81 441.31 234.56 437.17 232.40 433.83 C 232.85 438.21 233.67 442.62 233.28 447.04 C 233.22 449.53 230.78 452.07 228.19 451.05 C 224.90 449.60 223.47 446.06 222.17 442.97 C 221.04 445.52 219.58 449.22 216.16 448.88 C 213.11 448.41 212.39 444.81 211.78 442.31 C 210.70 435.16 210.94 427.83 211.85 420.68 C 212.71 414.14 216.35 408.46 220.37 403.40 C 219.91 399.73 219.27 395.89 220.54 392.31 C 221.37 389.82 223.49 388.12 225.29 386.35 C 222.24 379.64 220.75 372.40 218.77 365.34 C 216.11 355.68 214.71 345.74 212.98 335.89 C 211.28 325.21 210.93 313.73 215.75 303.77 C 219.36 296.53 223.70 289.50 229.56 283.84 C 227.46 279.87 231.23 276.24 232.54 272.64 C 241.70 251.78 250.52 230.74 258.39 209.35 C 263.53 197.85 267.79 185.14 277.51 176.57 C 288.60 167.67 301.02 160.63 312.98 153.00 C 320.15 149.34 327.01 144.79 334.93 142.88 C 339.41 141.77 343.98 140.57 347.78 137.81 C 352.16 135.03 357.45 131.39 362.78 133.80 C 367.60 129.94 371.83 125.35 374.93 120.00 C 377.56 115.69 380.47 110.54 378.73 105.37 C 375.90 101.87 371.79 99.50 369.45 95.55 C 364.11 87.10 362.11 76.90 361.76 67.04 C 361.35 55.80 367.76 45.95 374.40 37.45 C 387.85 20.94 407.31 9.08 428.45 5.81 M 474.08 43.11 C 469.72 48.36 469.70 55.53 468.72 61.96 C 462.56 61.60 457.00 58.77 451.12 57.30 C 442.60 63.78 442.74 75.70 441.53 85.37 C 437.11 84.28 432.35 83.36 428.80 80.29 C 424.32 76.53 422.43 70.65 418.18 66.69 C 416.39 65.22 413.31 64.65 411.63 66.57 C 408.56 69.67 405.60 73.39 405.17 77.89 C 403.75 86.83 407.32 95.42 410.50 103.56 C 412.06 107.81 413.12 113.55 409.33 116.95 C 406.68 114.75 404.03 112.31 400.56 111.53 C 394.78 110.02 388.58 110.11 383.15 107.33 C 383.15 110.51 382.97 113.75 381.78 116.73 C 377.62 127.47 368.96 135.81 359.22 141.62 C 360.62 143.90 362.11 146.14 363.99 148.05 C 373.97 158.41 383.33 169.34 393.30 179.70 C 400.27 187.20 406.28 195.56 411.72 204.21 C 412.04 192.23 412.92 180.06 416.34 168.51 C 417.49 163.75 422.00 160.84 426.62 160.16 C 422.35 153.25 417.41 146.08 416.79 137.74 C 418.25 139.09 419.64 140.57 420.53 142.37 C 424.79 150.46 429.20 158.78 436.06 165.00 C 438.60 167.45 440.87 170.28 443.98 172.07 C 447.41 174.24 451.76 174.36 455.63 173.57 C 460.16 171.58 462.46 166.79 464.50 162.57 C 468.14 154.49 471.73 146.39 475.47 138.36 C 476.33 136.80 477.12 134.72 479.09 134.32 C 483.32 133.67 487.75 135.84 491.86 134.12 C 494.04 133.43 493.93 130.82 493.72 128.99 C 492.66 119.67 489.32 110.50 490.55 101.01 C 490.72 92.91 493.74 85.17 493.67 77.05 C 493.68 70.79 492.73 64.55 491.15 58.50 C 487.81 60.51 484.38 62.33 480.87 64.02 C 482.55 57.24 485.05 49.35 481.06 42.93 C 479.58 40.16 475.66 40.82 474.08 43.11 M 341.33 145.18 C 336.20 146.50 331.02 147.76 326.26 150.15 C 312.88 156.57 300.78 165.25 288.56 173.57 C 283.36 177.23 277.89 180.92 274.51 186.46 C 268.80 195.58 264.41 205.47 260.45 215.45 C 255.15 230.14 248.89 244.45 242.84 258.84 C 239.80 265.81 237.15 272.97 233.42 279.61 C 247.38 280.94 260.23 287.55 271.46 295.64 C 277.30 299.79 283.25 303.94 287.91 309.46 C 294.86 300.33 302.14 291.39 310.62 283.63 C 317.44 277.21 324.91 271.24 333.65 267.66 C 335.98 266.79 338.87 265.69 340.99 267.66 C 335.43 270.39 330.03 273.44 325.05 277.13 C 339.46 282.28 352.13 291.35 363.16 301.82 C 372.21 310.44 379.33 320.93 384.82 332.12 C 386.46 335.97 388.88 340.54 386.27 344.56 C 382.09 334.47 376.69 324.81 369.49 316.55 C 356.48 301.15 340.93 287.18 321.93 279.72 C 312.49 287.97 303.34 296.66 295.61 306.56 C 293.49 309.28 291.40 312.04 289.15 314.67 C 286.58 313.34 284.10 311.82 281.75 310.13 C 285.53 321.53 288.50 333.17 291.43 344.81 C 294.13 355.36 298.08 365.58 300.40 376.23 C 302.09 392.43 302.57 408.75 304.54 424.94 C 304.83 431.83 306.21 438.63 306.31 445.53 C 303.09 440.96 303.14 435.19 301.91 429.94 C 298.11 412.61 298.31 394.76 296.33 377.20 C 293.87 366.35 289.66 355.97 287.01 345.16 C 284.76 335.90 282.28 326.69 280.14 317.40 C 281.09 344.16 288.73 370.18 289.27 396.96 C 289.69 411.31 290.48 425.65 292.05 439.92 C 293.47 457.26 296.70 474.41 297.52 491.81 C 306.96 484.60 319.01 482.44 330.47 480.70 C 343.55 478.96 356.80 477.91 370.00 478.65 C 372.12 478.60 374.07 479.48 375.39 481.17 C 372.65 481.79 369.84 482.04 367.05 482.18 C 351.20 482.96 335.28 484.06 319.74 487.47 C 312.20 489.34 304.47 491.63 298.42 496.74 C 298.76 500.99 298.96 505.25 298.90 509.52 C 310.12 507.16 321.51 505.76 332.98 505.38 C 342.67 505.07 352.32 504.10 362.03 503.98 C 385.69 503.66 409.35 502.74 433.02 502.93 C 448.27 502.89 463.68 501.31 478.77 504.41 C 473.59 497.10 469.89 488.77 468.02 480.00 C 466.76 473.98 461.70 467.80 455.05 468.17 C 440.36 467.47 425.70 469.95 411.01 468.59 C 398.81 468.27 387.01 464.89 375.38 461.50 C 365.25 458.68 356.65 452.21 348.76 445.50 C 352.28 443.64 355.41 447.11 358.41 448.56 C 368.48 455.47 380.68 457.67 392.31 460.52 C 401.06 462.68 410.10 463.01 419.06 463.32 C 431.77 463.74 444.49 461.35 457.16 463.12 C 458.10 460.14 460.97 456.99 459.16 453.83 C 454.82 445.67 448.42 438.51 445.66 429.56 C 443.17 420.71 449.38 411.95 446.62 403.16 C 445.53 399.15 444.16 395.18 443.80 391.01 C 443.10 385.53 444.90 380.21 445.46 374.81 C 446.25 367.93 445.64 360.98 444.56 354.17 C 442.77 342.84 441.35 331.45 440.08 320.05 C 439.71 315.54 439.00 310.79 440.68 306.45 C 442.61 302.09 446.57 299.19 449.53 295.60 C 451.37 293.61 452.76 290.82 455.70 290.30 C 454.19 296.93 449.26 301.74 444.78 306.50 C 449.90 303.29 455.85 300.87 462.00 301.16 C 463.60 301.05 466.01 303.23 463.62 304.15 C 456.61 306.19 449.68 308.64 443.45 312.54 C 444.42 324.60 446.44 336.56 448.23 348.52 C 468.21 347.68 486.34 337.07 500.89 324.00 C 498.41 320.74 496.13 317.32 494.42 313.60 C 490.23 304.49 486.21 295.27 483.29 285.66 C 477.23 270.71 472.09 255.40 466.74 240.18 C 464.40 233.64 462.81 226.73 459.20 220.72 C 453.28 210.66 444.21 203.11 435.79 195.24 C 430.19 189.45 424.50 183.68 419.61 177.26 C 418.01 187.78 417.58 198.43 417.38 209.06 C 417.08 211.12 417.55 214.42 414.94 215.08 C 413.25 215.67 412.19 213.75 411.39 212.61 C 405.65 202.64 399.12 193.07 391.43 184.49 C 380.72 173.20 370.38 161.56 359.75 150.19 C 356.65 146.99 354.69 142.89 353.89 138.53 C 349.95 141.18 346.01 144.06 341.33 145.18 M 234.55 283.79 C 228.29 290.41 223.26 298.14 219.42 306.39 C 214.47 317.67 216.55 330.33 218.58 342.03 C 220.28 354.00 223.33 365.71 226.36 377.40 C 227.27 380.70 228.94 383.76 229.62 387.13 C 229.24 390.03 225.65 390.85 224.49 393.37 C 222.79 397.08 224.81 401.15 224.12 404.97 C 222.45 407.93 219.98 410.36 218.41 413.39 C 215.66 418.09 215.16 423.64 214.88 428.96 C 214.70 434.52 214.49 440.31 216.75 445.53 C 217.54 443.75 218.43 441.96 218.51 439.98 C 218.85 432.97 218.03 425.89 219.04 418.92 C 219.28 418.54 219.76 417.80 220.00 417.42 C 222.95 416.65 222.64 420.00 222.80 421.91 C 223.45 430.56 223.61 440.11 229.24 447.25 C 229.66 437.03 226.89 427.09 225.35 417.08 C 225.06 414.32 224.72 411.40 225.70 408.74 C 226.55 407.12 228.97 407.66 229.19 409.41 C 230.98 419.71 233.05 431.23 241.34 438.47 C 239.75 430.54 236.31 423.11 234.92 415.13 C 233.94 409.74 232.83 403.62 236.03 398.73 C 236.52 399.07 237.52 399.76 238.01 400.10 C 239.51 408.28 243.09 416.07 248.07 422.70 C 248.18 415.19 247.54 407.55 249.40 400.19 C 250.16 396.95 251.59 393.49 254.68 391.83 C 256.08 391.03 259.18 390.07 258.42 392.83 C 255.99 396.19 253.45 399.59 252.85 403.83 C 255.42 404.78 258.09 405.99 259.59 408.43 C 264.19 415.05 261.82 423.75 265.21 430.83 C 266.95 424.34 268.66 417.76 269.17 411.04 C 269.10 403.71 267.37 396.36 264.20 389.75 C 259.89 381.75 252.79 374.52 252.45 364.97 C 252.84 355.19 256.53 345.82 256.58 335.99 C 256.89 323.10 260.16 310.08 267.65 299.44 C 257.67 292.31 246.53 286.65 234.55 283.79 M 455.02 352.27 C 468.07 366.80 477.01 384.32 487.20 400.83 C 494.46 412.64 505.41 421.51 516.57 429.44 C 533.90 441.68 553.89 449.98 569.93 464.07 C 574.54 467.80 579.80 471.64 581.32 477.72 C 582.14 481.36 584.48 484.34 587.28 486.71 C 594.89 493.46 602.38 500.34 610.11 506.95 C 614.34 510.22 618.74 513.75 624.18 514.64 C 620.51 505.99 614.62 498.58 609.81 490.58 C 613.91 489.62 616.51 493.51 618.88 496.14 C 623.33 501.87 628.16 507.75 629.86 514.97 C 631.32 511.06 633.28 507.28 633.98 503.14 C 633.55 499.30 630.51 496.48 628.74 493.21 C 630.17 493.13 631.76 493.03 632.80 494.27 C 636.01 497.10 639.36 501.29 638.11 505.86 C 635.35 516.49 628.84 525.98 627.66 537.06 C 627.27 539.21 628.16 541.25 629.00 543.19 C 634.83 535.51 635.35 525.24 640.14 517.01 C 641.32 525.78 637.62 534.19 635.11 542.42 C 636.25 542.21 637.39 541.93 638.50 541.57 C 640.08 536.59 639.52 531.22 640.92 526.19 C 642.15 520.22 644.97 514.06 643.01 507.92 C 639.60 498.48 634.73 489.51 628.14 481.90 C 618.49 470.84 606.96 461.64 595.74 452.25 C 583.54 442.00 570.09 433.38 557.94 423.08 C 546.94 413.33 537.56 401.34 532.78 387.30 C 529.69 377.82 524.82 369.01 518.93 361.00 C 511.78 351.55 505.28 341.53 496.61 333.36 C 484.51 342.76 470.50 350.67 455.02 352.27 M 383.01 508.47 C 371.10 508.69 359.17 508.26 347.28 509.07 C 334.33 510.01 321.29 510.19 308.47 512.36 C 304.59 528.91 307.35 546.40 314.21 561.78 C 319.54 571.99 324.60 582.79 333.48 590.47 C 342.05 597.56 352.74 601.26 363.20 604.55 C 366.72 605.81 370.86 606.57 373.24 609.76 C 375.82 613.17 377.08 617.31 378.64 621.24 C 384.03 635.11 386.54 649.83 389.64 664.32 C 391.75 675.05 393.11 685.92 393.71 696.84 C 409.31 693.62 425.10 691.50 440.88 689.33 C 462.66 686.81 484.85 684.09 506.68 687.56 C 502.46 679.72 498.22 671.11 499.34 661.92 C 499.80 657.74 502.70 654.38 505.90 651.89 C 515.41 644.41 526.70 639.81 537.41 634.37 C 550.60 627.58 562.46 618.38 572.60 607.58 C 577.26 602.89 581.70 597.76 584.05 591.48 C 574.74 580.49 561.89 573.34 549.42 566.51 C 531.28 556.89 510.46 551.98 494.52 538.49 C 485.33 530.65 475.79 521.24 474.43 508.57 C 458.97 507.00 443.44 508.51 427.94 508.03 C 412.96 507.63 397.98 508.16 383.01 508.47 M 610.13 518.17 C 615.42 520.49 621.27 520.57 626.84 521.78 C 627.26 520.80 627.69 519.83 628.13 518.87 C 623.70 520.96 618.91 519.26 614.99 516.93 C 613.35 517.30 611.73 517.71 610.13 518.17 M 587.13 595.31 C 585.04 599.63 582.68 603.90 579.41 607.46 C 574.32 613.04 569.15 618.58 563.22 623.28 C 552.96 632.21 540.79 638.62 528.40 644.04 C 532.77 646.72 537.41 649.18 540.95 652.99 C 544.77 656.75 547.44 661.44 550.18 666.01 C 550.93 667.57 552.72 668.02 554.21 668.63 C 569.00 673.95 586.48 671.49 599.02 661.92 C 604.06 657.86 608.52 652.40 609.62 645.87 C 607.65 633.51 607.59 620.17 600.83 609.20 C 597.50 603.49 592.30 599.26 587.13 595.31 M 612.55 651.99 C 608.67 661.36 600.66 668.51 591.45 672.47 C 579.81 677.58 566.18 678.24 554.26 673.62 C 563.94 691.72 569.43 711.87 581.08 728.95 C 587.78 739.02 596.39 747.58 604.84 756.17 C 623.60 775.51 644.55 792.53 665.18 809.81 C 670.30 814.02 674.63 819.06 679.07 823.95 C 681.35 826.16 684.08 829.00 687.54 828.60 C 689.75 827.52 690.96 825.14 691.59 822.87 C 694.24 812.41 695.55 800.95 702.50 792.24 C 697.35 788.51 693.40 783.47 689.63 778.42 C 683.65 770.27 677.80 761.97 673.06 753.02 C 667.57 742.56 662.19 732.05 655.93 722.03 C 647.13 706.29 635.04 692.77 625.48 677.52 C 620.60 669.31 617.00 660.43 612.55 651.99 M 456.07 693.71 C 444.50 694.52 433.03 696.30 421.54 697.80 C 423.32 707.10 424.88 716.80 422.70 726.18 C 421.01 734.56 417.39 742.34 414.57 750.36 C 421.65 747.30 429.32 745.77 437.01 745.45 C 449.63 744.78 462.56 746.55 474.08 751.91 C 477.18 753.32 479.92 755.37 482.46 757.62 C 486.98 748.12 495.96 741.42 499.48 731.37 C 504.20 718.52 501.49 704.54 498.97 691.52 C 484.65 691.18 470.26 691.61 456.07 693.71 M 412.51 756.78 C 407.17 775.40 405.74 794.80 404.04 814.01 C 402.49 831.83 399.99 849.59 395.65 866.95 C 392.64 881.86 388.62 896.53 385.52 911.42 C 383.48 920.71 379.44 930.55 383.02 940.00 C 384.49 945.36 390.26 947.54 395.16 948.68 C 402.83 950.34 410.04 946.24 416.40 942.47 C 424.26 938.14 429.90 930.70 438.10 926.90 C 437.98 920.93 437.77 914.96 437.91 909.00 C 438.41 896.19 442.56 883.96 445.38 871.55 C 448.73 860.87 452.49 850.29 457.02 840.05 C 463.97 825.23 470.12 809.97 473.87 794.01 C 476.70 783.65 477.79 772.92 480.72 762.60 C 474.25 756.09 465.14 753.29 456.30 751.89 C 441.67 749.56 425.99 750.08 412.51 756.78 M 696.83 824.01 C 695.54 828.18 692.61 832.53 688.04 833.39 C 683.61 834.00 680.01 830.85 676.86 828.23 C 678.41 835.95 676.09 844.22 679.51 851.57 C 684.32 862.18 693.48 871.50 705.16 873.99 C 707.61 874.61 710.00 873.46 711.83 871.90 C 718.62 866.37 723.82 858.98 731.45 854.47 C 740.86 848.92 751.10 844.46 761.94 842.69 C 768.99 841.39 776.42 841.13 782.96 837.91 C 788.35 835.26 793.26 831.72 797.72 827.72 C 802.54 823.28 807.15 818.06 808.61 811.49 C 809.42 807.68 810.05 803.37 808.22 799.78 C 804.87 797.00 800.06 797.61 796.02 797.85 C 778.73 799.90 761.42 802.42 743.96 802.17 C 731.37 802.26 718.13 801.79 706.90 795.42 C 701.02 803.88 699.59 814.31 696.83 824.01 M 421.62 945.70 C 414.53 950.15 406.73 954.71 398.07 954.35 C 391.47 954.27 385.30 950.80 381.16 945.78 C 378.17 942.16 377.72 937.32 377.14 932.85 C 371.21 942.92 368.87 954.60 367.51 966.07 C 366.86 971.49 367.44 978.23 372.76 981.19 C 380.49 985.35 389.63 983.50 398.00 983.21 C 411.66 982.42 425.43 982.37 438.97 984.60 C 460.79 987.76 483.08 990.70 505.04 987.07 C 510.73 985.92 516.33 983.50 520.69 979.62 C 522.29 977.96 524.60 974.79 521.94 973.03 C 516.57 969.65 510.04 969.04 504.15 966.94 C 491.71 963.69 479.92 958.46 468.63 952.38 C 460.56 948.05 451.97 944.16 445.52 937.47 C 443.66 935.64 442.28 933.28 440.06 931.88 C 433.06 935.25 428.18 941.65 421.62 945.70 Z" />
		<path fill="#020202" opacity="1.00"
			d=" M 451.47 82.45 C 454.85 78.73 460.24 77.94 464.95 77.06 C 473.93 75.98 483.74 75.70 491.93 80.12 C 490.68 82.46 489.58 84.93 487.90 87.00 C 485.54 88.46 482.26 88.31 480.32 90.36 C 478.93 93.68 479.24 97.46 478.29 100.92 C 474.58 98.49 471.30 95.24 466.93 94.02 C 464.86 93.76 464.12 91.68 463.10 90.19 C 459.87 89.45 456.56 89.12 453.38 88.20 C 450.95 87.61 451.21 84.38 451.47 82.45 Z" />
		<path fill="#020202" opacity="1.00"
			d=" M 345.90 362.05 C 345.77 359.53 346.08 357.00 346.95 354.63 C 349.29 359.14 348.83 364.35 349.81 369.20 C 350.85 375.69 355.15 380.93 359.02 385.99 C 365.85 394.81 374.52 401.89 382.90 409.16 C 393.94 418.98 406.03 427.54 418.32 435.71 C 423.86 439.19 429.63 442.55 435.99 444.23 C 440.12 445.82 442.24 440.75 446.02 440.29 C 445.07 442.96 443.98 445.89 441.43 447.44 C 438.69 449.13 435.28 448.41 432.39 447.55 C 422.79 444.37 414.29 438.71 406.13 432.88 C 394.68 425.20 384.02 416.44 373.77 407.24 C 364.01 398.65 354.47 389.31 348.48 377.62 C 345.93 372.84 346.10 367.30 345.90 362.05 Z" />
		<path fill="#020202" opacity="1.00"
			d=" M 412.28 361.19 C 415.41 362.27 418.21 364.12 420.50 366.51 C 426.89 372.99 431.66 380.81 436.55 388.44 C 438.88 392.36 441.72 396.28 442.04 401.01 C 440.64 399.33 439.37 397.56 438.25 395.71 C 432.29 385.97 425.37 376.80 417.44 368.59 C 415.39 366.38 412.78 364.36 412.28 361.19 Z" />
		<path fill="#020202" opacity="1.00"
			d=" M 423.48 387.32 C 425.88 387.48 427.41 389.38 428.99 390.94 C 433.63 395.65 438.21 400.41 442.99 404.98 C 444.51 406.35 445.64 408.11 446.20 410.10 C 442.25 407.68 438.80 404.55 435.10 401.78 C 430.25 397.92 425.22 393.51 423.48 387.32 Z" />
	</g>
	<g id="#f0b58bff">
		<path fill="#f0b58b" opacity="1.00"
			d=" M 474.08 43.11 C 475.66 40.82 479.58 40.16 481.06 42.93 C 485.05 49.35 482.55 57.24 480.87 64.02 C 484.38 62.33 487.81 60.51 491.15 58.50 C 492.73 64.55 493.68 70.79 493.67 77.05 C 493.74 85.17 490.72 92.91 490.55 101.01 C 489.32 110.50 492.66 119.67 493.72 128.99 C 493.93 130.82 494.04 133.43 491.86 134.12 C 487.75 135.84 483.32 133.67 479.09 134.32 C 477.12 134.72 476.33 136.80 475.47 138.36 C 471.73 146.39 468.14 154.49 464.50 162.57 C 462.46 166.79 460.16 171.58 455.63 173.57 C 451.76 174.36 447.41 174.24 443.98 172.07 C 440.87 170.28 438.60 167.45 436.06 165.00 C 429.20 158.78 424.79 150.46 420.53 142.37 C 419.64 140.57 418.25 139.09 416.79 137.74 C 417.41 146.08 422.35 153.25 426.62 160.16 C 422.00 160.84 417.49 163.75 416.34 168.51 C 412.92 180.06 412.04 192.23 411.72 204.21 C 406.28 195.56 400.27 187.20 393.30 179.70 C 383.33 169.34 373.97 158.41 363.99 148.05 C 362.11 146.14 360.62 143.90 359.22 141.62 C 368.96 135.81 377.62 127.47 381.78 116.73 C 382.97 113.75 383.15 110.51 383.15 107.33 C 388.58 110.11 394.78 110.02 400.56 111.53 C 404.03 112.31 406.68 114.75 409.33 116.95 C 413.12 113.55 412.06 107.81 410.50 103.56 C 407.32 95.42 403.75 86.83 405.17 77.89 C 405.60 73.39 408.56 69.67 411.63 66.57 C 413.31 64.65 416.39 65.22 418.18 66.69 C 422.43 70.65 424.32 76.53 428.80 80.29 C 432.35 83.36 437.11 84.28 441.53 85.37 C 442.74 75.70 442.60 63.78 451.12 57.30 C 457.00 58.77 462.56 61.60 468.72 61.96 C 469.70 55.53 469.72 48.36 474.08 43.11 M 451.47 82.45 C 451.21 84.38 450.95 87.61 453.38 88.20 C 456.56 89.12 459.87 89.45 463.10 90.19 C 464.12 91.68 464.86 93.76 466.93 94.02 C 471.30 95.24 474.58 98.49 478.29 100.92 C 479.24 97.46 478.93 93.68 480.32 90.36 C 482.26 88.31 485.54 88.46 487.90 87.00 C 489.58 84.93 490.68 82.46 491.93 80.12 C 483.74 75.70 473.93 75.98 464.95 77.06 C 460.24 77.94 454.85 78.73 451.47 82.45 Z" />
		<path fill="#f0b58b" opacity="1.00"
			d=" M 234.55 283.79 C 246.53 286.65 257.67 292.31 267.65 299.44 C 260.16 310.08 256.89 323.10 256.58 335.99 C 256.53 345.82 252.84 355.19 252.45 364.97 C 252.79 374.52 259.89 381.75 264.20 389.75 C 267.37 396.36 269.10 403.71 269.17 411.04 C 268.66 417.76 266.95 424.34 265.21 430.83 C 261.82 423.75 264.19 415.05 259.59 408.43 C 258.09 405.99 255.42 404.78 252.85 403.83 C 253.45 399.59 255.99 396.19 258.42 392.83 C 259.18 390.07 256.08 391.03 254.68 391.83 C 251.59 393.49 250.16 396.95 249.40 400.19 C 247.54 407.55 248.18 415.19 248.07 422.70 C 243.09 416.07 239.51 408.28 238.01 400.10 C 237.52 399.76 236.52 399.07 236.03 398.73 C 232.83 403.62 233.94 409.74 234.92 415.13 C 236.31 423.11 239.75 430.54 241.34 438.47 C 233.05 431.23 230.98 419.71 229.19 409.41 C 228.97 407.66 226.55 407.12 225.70 408.74 C 224.72 411.40 225.06 414.32 225.35 417.08 C 226.89 427.09 229.66 437.03 229.24 447.25 C 223.61 440.11 223.45 430.56 222.80 421.91 C 222.64 420.00 222.95 416.65 220.00 417.42 C 219.76 417.80 219.28 418.54 219.04 418.92 C 218.03 425.89 218.85 432.97 218.51 439.98 C 218.43 441.96 217.54 443.75 216.75 445.53 C 214.49 440.31 214.70 434.52 214.88 428.96 C 215.16 423.64 215.66 418.09 218.41 413.39 C 219.98 410.36 222.45 407.93 224.12 404.97 C 224.81 401.15 222.79 397.08 224.49 393.37 C 225.65 390.85 229.24 390.03 229.62 387.13 C 228.94 383.76 227.27 380.70 226.36 377.40 C 223.33 365.71 220.28 354.00 218.58 342.03 C 216.55 330.33 214.47 317.67 219.42 306.39 C 223.26 298.14 228.29 290.41 234.55 283.79 Z" />
		<path fill="#f0b58b" opacity="1.00"
			d=" M 455.02 352.27 C 470.50 350.67 484.51 342.76 496.61 333.36 C 505.28 341.53 511.78 351.55 518.93 361.00 C 524.82 369.01 529.69 377.82 532.78 387.30 C 537.56 401.34 546.94 413.33 557.94 423.08 C 570.09 433.38 583.54 442.00 595.74 452.25 C 606.96 461.64 618.49 470.84 628.14 481.90 C 634.73 489.51 639.60 498.48 643.01 507.92 C 644.97 514.06 642.15 520.22 640.92 526.19 C 639.52 531.22 640.08 536.59 638.50 541.57 C 637.39 541.93 636.25 542.21 635.11 542.42 C 637.62 534.19 641.32 525.78 640.14 517.01 C 635.35 525.24 634.83 535.51 629.00 543.19 C 628.16 541.25 627.27 539.21 627.66 537.06 C 628.84 525.98 635.35 516.49 638.11 505.86 C 639.36 501.29 636.01 497.10 632.80 494.27 C 631.76 493.03 630.17 493.13 628.74 493.21 C 630.51 496.48 633.55 499.30 633.98 503.14 C 633.28 507.28 631.32 511.06 629.86 514.97 C 628.16 507.75 623.33 501.87 618.88 496.14 C 616.51 493.51 613.91 489.62 609.81 490.58 C 614.62 498.58 620.51 505.99 624.18 514.64 C 618.74 513.75 614.34 510.22 610.11 506.95 C 602.38 500.34 594.89 493.46 587.28 486.71 C 584.48 484.34 582.14 481.36 581.32 477.72 C 579.80 471.64 574.54 467.80 569.93 464.07 C 553.89 449.98 533.90 441.68 516.57 429.44 C 505.41 421.51 494.46 412.64 487.20 400.83 C 477.01 384.32 468.07 366.80 455.02 352.27 Z" />
		<path fill="#f0b58b" opacity="1.00"
			d=" M 610.13 518.17 C 611.73 517.71 613.35 517.30 614.99 516.93 C 618.91 519.26 623.70 520.96 628.13 518.87 C 627.69 519.83 627.26 520.80 626.84 521.78 C 621.27 520.57 615.42 520.49 610.13 518.17 Z" />
		<path fill="#f0b58b" opacity="1.00"
			d=" M 587.13 595.31 C 592.30 599.26 597.50 603.49 600.83 609.20 C 607.59 620.17 607.65 633.51 609.62 645.87 C 608.52 652.40 604.06 657.86 599.02 661.92 C 586.48 671.49 569.00 673.95 554.21 668.63 C 552.72 668.02 550.93 667.57 550.18 666.01 C 547.44 661.44 544.77 656.75 540.95 652.99 C 537.41 649.18 532.77 646.72 528.40 644.04 C 540.79 638.62 552.96 632.21 563.22 623.28 C 569.15 618.58 574.32 613.04 579.41 607.46 C 582.68 603.90 585.04 599.63 587.13 595.31 Z" />
		<path fill="#f0b58b" opacity="1.00"
			d=" M 456.07 693.71 C 470.26 691.61 484.65 691.18 498.97 691.52 C 501.49 704.54 504.20 718.52 499.48 731.37 C 495.96 741.42 486.98 748.12 482.46 757.62 C 479.92 755.37 477.18 753.32 474.08 751.91 C 462.56 746.55 449.63 744.78 437.01 745.45 C 429.32 745.77 421.65 747.30 414.57 750.36 C 417.39 742.34 421.01 734.56 422.70 726.18 C 424.88 716.80 423.32 707.10 421.54 697.80 C 433.03 696.30 444.50 694.52 456.07 693.71 Z" />
	</g>
	<g id="#f11b27ff">
		<path fill="var(--shirt-color, grey)" opacity="1.00"
			d=" M 341.33 145.18 C 346.01 144.06 349.95 141.18 353.89 138.53 C 354.69 142.89 356.65 146.99 359.75 150.19 C 370.38 161.56 380.72 173.20 391.43 184.49 C 399.12 193.07 405.65 202.64 411.39 212.61 C 412.19 213.75 413.25 215.67 414.94 215.08 C 417.55 214.42 417.08 211.12 417.38 209.06 C 417.58 198.43 418.01 187.78 419.61 177.26 C 424.50 183.68 430.19 189.45 435.79 195.24 C 444.21 203.11 453.28 210.66 459.20 220.72 C 462.81 226.73 464.40 233.64 466.74 240.18 C 472.09 255.40 477.23 270.71 483.29 285.66 C 486.21 295.27 490.23 304.49 494.42 313.60 C 496.13 317.32 498.41 320.74 500.89 324.00 C 486.34 337.07 468.21 347.68 448.23 348.52 C 446.44 336.56 444.42 324.60 443.45 312.54 C 449.68 308.64 456.61 306.19 463.62 304.15 C 466.01 303.23 463.60 301.05 462.00 301.16 C 455.85 300.87 449.90 303.29 444.78 306.50 C 449.26 301.74 454.19 296.93 455.70 290.30 C 452.76 290.82 451.37 293.61 449.53 295.60 C 446.57 299.19 442.61 302.09 440.68 306.45 C 439.00 310.79 439.71 315.54 440.08 320.05 C 441.35 331.45 442.77 342.84 444.56 354.17 C 445.64 360.98 446.25 367.93 445.46 374.81 C 444.90 380.21 443.10 385.53 443.80 391.01 C 444.16 395.18 445.53 399.15 446.62 403.16 C 449.38 411.95 443.17 420.71 445.66 429.56 C 448.42 438.51 454.82 445.67 459.16 453.83 C 460.97 456.99 458.10 460.14 457.16 463.12 C 444.49 461.35 431.77 463.74 419.06 463.32 C 410.10 463.01 401.06 462.68 392.31 460.52 C 380.68 457.67 368.48 455.47 358.41 448.56 C 355.41 447.11 352.28 443.64 348.76 445.50 C 356.65 452.21 365.25 458.68 375.38 461.50 C 387.01 464.89 398.81 468.27 411.01 468.59 C 425.70 469.95 440.36 467.47 455.05 468.17 C 461.70 467.80 466.76 473.98 468.02 480.00 C 469.89 488.77 473.59 497.10 478.77 504.41 C 463.68 501.31 448.27 502.89 433.02 502.93 C 409.35 502.74 385.69 503.66 362.03 503.98 C 352.32 504.10 342.67 505.07 332.98 505.38 C 321.51 505.76 310.12 507.16 298.90 509.52 C 298.96 505.25 298.76 500.99 298.42 496.74 C 304.47 491.63 312.20 489.34 319.74 487.47 C 335.28 484.06 351.20 482.96 367.05 482.18 C 369.84 482.04 372.65 481.79 375.39 481.17 C 374.07 479.48 372.12 478.60 370.00 478.65 C 356.80 477.91 343.55 478.96 330.47 480.70 C 319.01 482.44 306.96 484.60 297.52 491.81 C 296.70 474.41 293.47 457.26 292.05 439.92 C 290.48 425.65 289.69 411.31 289.27 396.96 C 288.73 370.18 281.09 344.16 280.14 317.40 C 282.28 326.69 284.76 335.90 287.01 345.16 C 289.66 355.97 293.87 366.35 296.33 377.20 C 298.31 394.76 298.11 412.61 301.91 429.94 C 303.14 435.19 303.09 440.96 306.31 445.53 C 306.21 438.63 304.83 431.83 304.54 424.94 C 302.57 408.75 302.09 392.43 300.40 376.23 C 298.08 365.58 294.13 355.36 291.43 344.81 C 288.50 333.17 285.53 321.53 281.75 310.13 C 284.10 311.82 286.58 313.34 289.15 314.67 C 291.40 312.04 293.49 309.28 295.61 306.56 C 303.34 296.66 312.49 287.97 321.93 279.72 C 340.93 287.18 356.48 301.15 369.49 316.55 C 376.69 324.81 382.09 334.47 386.27 344.56 C 388.88 340.54 386.46 335.97 384.82 332.12 C 379.33 320.93 372.21 310.44 363.16 301.82 C 352.13 291.35 339.46 282.28 325.05 277.13 C 330.03 273.44 335.43 270.39 340.99 267.66 C 338.87 265.69 335.98 266.79 333.65 267.66 C 324.91 271.24 317.44 277.21 310.62 283.63 C 302.14 291.39 294.86 300.33 287.91 309.46 C 283.25 303.94 277.30 299.79 271.46 295.64 C 260.23 287.55 247.38 280.94 233.42 279.61 C 237.15 272.97 239.80 265.81 242.84 258.84 C 248.89 244.45 255.15 230.14 260.45 215.45 C 264.41 205.47 268.80 195.58 274.51 186.46 C 277.89 180.92 283.36 177.23 288.56 173.57 C 300.78 165.25 312.88 156.57 326.26 150.15 C 331.02 147.76 336.20 146.50 341.33 145.18 M 345.90 362.05 C 346.10 367.30 345.93 372.84 348.48 377.62 C 354.47 389.31 364.01 398.65 373.77 407.24 C 384.02 416.44 394.68 425.20 406.13 432.88 C 414.29 438.71 422.79 444.37 432.39 447.55 C 435.28 448.41 438.69 449.13 441.43 447.44 C 443.98 445.89 445.07 442.96 446.02 440.29 C 442.24 440.75 440.12 445.82 435.99 444.23 C 429.63 442.55 423.86 439.19 418.32 435.71 C 406.03 427.54 393.94 418.98 382.90 409.16 C 374.52 401.89 365.85 394.81 359.02 385.99 C 355.15 380.93 350.85 375.69 349.81 369.20 C 348.83 364.35 349.29 359.14 346.95 354.63 C 346.08 357.00 345.77 359.53 345.90 362.05 M 412.28 361.19 C 412.78 364.36 415.39 366.38 417.44 368.59 C 425.37 376.80 432.29 385.97 438.25 395.71 C 439.37 397.56 440.64 399.33 442.04 401.01 C 441.72 396.28 438.88 392.36 436.55 388.44 C 431.66 380.81 426.89 372.99 420.50 366.51 C 418.21 364.12 415.41 362.27 412.28 361.19 M 423.48 387.32 C 425.22 393.51 430.25 397.92 435.10 401.78 C 438.80 404.55 442.25 407.68 446.20 410.10 C 445.64 408.11 444.51 406.35 442.99 404.98 C 438.21 400.41 433.63 395.65 428.99 390.94 C 427.41 389.38 425.88 387.48 423.48 387.32 Z" />
	</g>
	<g id="#2b3dcdff">
		<path fill="var(--pants-color, grey)" opacity="1.00"
			d=" M 383.01 508.47 C 397.98 508.16 412.96 507.63 427.94 508.03 C 443.44 508.51 458.97 507.00 474.43 508.57 C 475.79 521.24 485.33 530.65 494.52 538.49 C 510.46 551.98 531.28 556.89 549.42 566.51 C 561.89 573.34 574.74 580.49 584.05 591.48 C 581.70 597.76 577.26 602.89 572.60 607.58 C 562.46 618.38 550.60 627.58 537.41 634.37 C 526.70 639.81 515.41 644.41 505.90 651.89 C 502.70 654.38 499.80 657.74 499.34 661.92 C 498.22 671.11 502.46 679.72 506.68 687.56 C 484.85 684.09 462.66 686.81 440.88 689.33 C 425.10 691.50 409.31 693.62 393.71 696.84 C 393.11 685.92 391.75 675.05 389.64 664.32 C 386.54 649.83 384.03 635.11 378.64 621.24 C 377.08 617.31 375.82 613.17 373.24 609.76 C 370.86 606.57 366.72 605.81 363.20 604.55 C 352.74 601.26 342.05 597.56 333.48 590.47 C 324.60 582.79 319.54 571.99 314.21 561.78 C 307.35 546.40 304.59 528.91 308.47 512.36 C 321.29 510.19 334.33 510.01 347.28 509.07 C 359.17 508.26 371.10 508.69 383.01 508.47 Z" />
		<path fill="var(--socks-color, grey)" opacity="1.00"
			d=" M 612.55 651.99 C 617.00 660.43 620.60 669.31 625.48 677.52 C 635.04 692.77 647.13 706.29 655.93 722.03 C 662.19 732.05 667.57 742.56 673.06 753.02 C 677.80 761.97 683.65 770.27 689.63 778.42 C 693.40 783.47 697.35 788.51 702.50 792.24 C 695.55 800.95 694.24 812.41 691.59 822.87 C 690.96 825.14 689.75 827.52 687.54 828.60 C 684.08 829.00 681.35 826.16 679.07 823.95 C 674.63 819.06 670.30 814.02 665.18 809.81 C 644.55 792.53 623.60 775.51 604.84 756.17 C 596.39 747.58 587.78 739.02 581.08 728.95 C 569.43 711.87 563.94 691.72 554.26 673.62 C 566.18 678.24 579.81 677.58 591.45 672.47 C 600.66 668.51 608.67 661.36 612.55 651.99 Z" />
		<path fill="var(--socks-color, grey)" opacity="1.00"
			d=" M 412.51 756.78 C 425.99 750.08 441.67 749.56 456.30 751.89 C 465.14 753.29 474.25 756.09 480.72 762.60 C 477.79 772.92 476.70 783.65 473.87 794.01 C 470.12 809.97 463.97 825.23 457.02 840.05 C 452.49 850.29 448.73 860.87 445.38 871.55 C 442.56 883.96 438.41 896.19 437.91 909.00 C 437.77 914.96 437.98 920.93 438.10 926.90 C 429.90 930.70 424.26 938.14 416.40 942.47 C 410.04 946.24 402.83 950.34 395.16 948.68 C 390.26 947.54 384.49 945.36 383.02 940.00 C 379.44 930.55 383.48 920.71 385.52 911.42 C 388.62 896.53 392.64 881.86 395.65 866.95 C 399.99 849.59 402.49 831.83 404.04 814.01 C 405.74 794.80 407.17 775.40 412.51 756.78 Z" />
	</g>
	<g id="#4d4d4dff">
		<path fill="#4d4d4d" opacity="1.00"
			d=" M 696.83 824.01 C 699.59 814.31 701.02 803.88 706.90 795.42 C 718.13 801.79 731.37 802.26 743.96 802.17 C 761.42 802.42 778.73 799.90 796.02 797.85 C 800.06 797.61 804.87 797.00 808.22 799.78 C 810.05 803.37 809.42 807.68 808.61 811.49 C 807.15 818.06 802.54 823.28 797.72 827.72 C 793.26 831.72 788.35 835.26 782.96 837.91 C 776.42 841.13 768.99 841.39 761.94 842.69 C 751.10 844.46 740.86 848.92 731.45 854.47 C 723.82 858.98 718.62 866.37 711.83 871.90 C 710.00 873.46 707.61 874.61 705.16 873.99 C 693.48 871.50 684.32 862.18 679.51 851.57 C 676.09 844.22 678.41 835.95 676.86 828.23 C 680.01 830.85 683.61 834.00 688.04 833.39 C 692.61 832.53 695.54 828.18 696.83 824.01 Z" />
		<path fill="#4d4d4d" opacity="1.00"
			d=" M 421.62 945.70 C 428.18 941.65 433.06 935.25 440.06 931.88 C 442.28 933.28 443.66 935.64 445.52 937.47 C 451.97 944.16 460.56 948.05 468.63 952.38 C 479.92 958.46 491.71 963.69 504.15 966.94 C 510.04 969.04 516.57 969.65 521.94 973.03 C 524.60 974.79 522.29 977.96 520.69 979.62 C 516.33 983.50 510.73 985.92 505.04 987.07 C 483.08 990.70 460.79 987.76 438.97 984.60 C 425.43 982.37 411.66 982.42 398.00 983.21 C 389.63 983.50 380.49 985.35 372.76 981.19 C 367.44 978.23 366.86 971.49 367.51 966.07 C 368.87 954.60 371.21 942.92 377.14 932.85 C 377.72 937.32 378.17 942.16 381.16 945.78 C 385.30 950.80 391.47 954.27 398.07 954.35 C 406.73 954.71 414.53 950.15 421.62 945.70 Z" />
	</g>
</svg>