<?xml version="1.0" encoding="UTF-8" ?>
<!DOCTYPE svg PUBLIC "-//W3C//DTD SVG 1.1//EN" "http://www.w3.org/Graphics/SVG/1.1/DTD/svg11.dtd">
<svg width="1000pt" height="1000pt" viewBox="0 0 1000 1000" version="1.1" xmlns="http://www.w3.org/2000/svg">
	<g id="#020202ff">
		<path fill="#020202" opacity="1.00"
			d=" M 334.58 15.49 C 349.48 6.90 366.86 2.23 384.10 3.48 C 392.71 4.06 401.29 6.65 408.39 11.64 C 412.51 14.47 415.78 18.29 419.12 21.97 C 423.40 26.81 427.38 32.07 429.77 38.14 C 431.19 41.83 430.59 45.86 430.94 49.71 C 431.94 52.99 433.67 55.99 434.84 59.20 C 437.87 66.73 438.44 74.96 438.41 82.98 C 438.46 89.26 436.17 95.63 438.22 101.81 C 440.64 109.71 444.68 117.53 443.83 126.04 C 443.19 129.05 441.26 132.32 438.05 133.02 C 435.43 133.55 432.74 133.46 430.09 133.57 C 423.19 145.34 423.13 159.51 417.87 171.90 C 416.20 175.88 412.04 178.18 407.98 178.99 C 402.40 179.66 397.15 176.99 392.19 174.81 C 388.13 173.10 384.94 169.95 381.08 167.93 C 376.75 168.12 372.15 169.95 369.79 173.78 C 366.08 179.87 365.11 188.33 369.75 194.20 C 372.57 196.73 376.37 198.21 378.44 201.55 C 381.78 206.42 382.30 212.44 383.07 218.12 C 384.17 221.76 386.31 224.98 387.51 228.60 C 393.60 245.53 397.51 263.17 400.60 280.88 C 403.37 295.46 400.40 310.26 400.55 324.93 C 400.33 344.63 406.92 364.42 402.07 383.98 C 399.46 397.90 387.78 408.86 388.35 423.56 C 395.37 426.44 401.81 430.57 407.46 435.65 C 414.70 441.73 420.92 449.63 423.11 458.99 C 424.40 464.06 422.00 468.93 421.07 473.81 C 422.21 478.17 425.15 481.76 427.35 485.62 C 431.54 492.84 437.15 499.11 442.90 505.12 C 446.14 508.53 449.99 511.45 452.57 515.44 C 454.65 519.33 454.55 523.91 456.03 528.01 C 458.16 535.15 462.97 540.97 466.71 547.29 C 474.66 560.99 483.20 574.41 493.42 586.55 C 498.16 593.11 504.63 598.93 506.80 606.97 C 507.18 614.47 501.12 621.51 493.68 622.55 C 500.16 635.31 507.08 647.93 515.56 659.48 C 520.41 666.57 529.23 670.05 532.99 677.99 C 536.79 686.15 534.82 695.41 534.62 704.06 C 534.37 708.22 536.16 712.16 538.44 715.55 C 551.11 732.98 565.85 748.75 580.33 764.65 C 589.99 774.69 599.56 784.85 607.75 796.15 C 616.01 807.60 624.05 819.20 632.40 830.58 C 638.31 838.64 643.31 847.41 650.39 854.56 C 653.39 858.20 657.87 859.95 662.04 861.87 C 673.82 867.24 686.66 869.48 699.14 872.61 C 711.90 876.46 724.21 882.10 735.09 889.85 C 738.79 892.33 742.72 895.42 743.66 900.06 C 744.63 906.26 744.63 913.37 740.38 918.45 C 733.51 926.75 724.83 934.21 714.22 937.04 C 708.20 938.67 702.01 937.23 696.04 936.14 C 689.69 934.96 683.30 933.91 677.06 932.24 C 664.01 928.88 650.48 927.57 637.02 927.86 C 630.93 928.04 624.44 927.35 619.42 923.58 C 610.95 917.19 606.53 906.48 606.37 896.03 C 606.00 892.82 606.92 889.08 604.62 886.43 C 595.32 874.10 583.08 864.43 570.77 855.27 C 560.02 847.21 548.09 840.83 537.71 832.27 C 525.62 822.50 514.09 811.99 503.58 800.53 C 491.04 785.99 480.69 769.20 475.63 750.55 C 474.23 744.66 470.34 739.90 466.68 735.25 C 466.47 740.16 467.03 745.07 466.88 749.99 C 465.84 771.20 459.96 791.82 452.55 811.62 C 447.12 825.97 439.87 839.52 433.19 853.31 C 423.67 873.02 417.27 894.03 412.12 915.26 C 424.96 926.60 434.24 941.86 449.05 950.99 C 459.07 957.77 470.80 961.95 479.83 970.17 C 482.27 973.02 485.63 976.53 484.57 980.60 C 482.74 984.33 478.94 986.61 475.29 988.29 C 467.06 991.62 458.26 993.32 449.45 994.21 C 441.32 995.02 433.03 995.69 424.94 994.10 C 417.17 992.70 410.11 989.04 402.83 986.17 C 387.29 980.35 370.39 980.22 354.02 980.86 C 347.75 981.10 340.73 983.60 335.01 979.90 C 330.43 976.92 330.13 970.88 330.12 965.98 C 330.29 955.60 331.82 944.62 338.12 936.04 C 341.78 931.21 346.78 926.76 347.20 920.29 C 348.86 897.83 358.83 877.14 362.04 854.98 C 365.51 831.39 364.92 807.41 368.55 783.85 C 371.27 766.39 378.01 749.82 386.49 734.42 C 391.18 726.01 394.99 717.15 399.70 708.76 C 401.61 705.29 403.40 701.25 401.86 697.28 C 398.24 685.45 390.95 675.25 384.99 664.53 C 379.79 667.66 375.16 671.60 371.07 676.08 C 368.26 678.68 364.16 682.38 360.19 679.86 C 355.57 676.41 353.02 671.01 349.23 666.77 C 342.64 659.01 338.64 649.54 332.72 641.33 C 322.93 627.51 313.14 613.67 302.36 600.60 C 291.73 587.61 279.08 576.27 269.78 562.19 C 264.16 553.54 258.77 544.72 252.57 536.46 C 247.93 529.91 242.40 524.04 237.86 517.41 C 237.72 541.24 239.73 565.31 235.31 588.89 C 234.40 592.97 233.44 597.41 230.42 600.51 C 228.17 602.72 224.14 602.24 222.44 599.59 C 219.96 595.70 219.18 591.02 218.74 586.51 C 217.98 577.19 217.92 567.83 217.53 558.49 C 214.24 562.84 211.11 567.33 207.35 571.29 C 204.95 573.70 201.80 576.23 198.17 575.62 C 195.31 575.01 194.57 571.77 193.42 569.54 C 189.63 574.63 185.72 580.19 179.86 583.04 C 177.02 584.54 173.25 582.73 172.59 579.61 C 170.97 573.18 174.52 567.05 177.80 561.79 C 174.49 564.06 170.53 567.32 166.28 565.67 C 163.58 564.18 164.44 560.61 165.40 558.32 C 169.58 548.86 176.93 541.26 184.51 534.41 C 187.08 532.01 191.00 530.02 191.14 526.04 C 191.44 520.22 190.87 514.29 192.41 508.60 C 194.40 501.25 197.22 493.75 202.89 488.42 C 200.06 479.68 197.44 470.87 194.67 462.11 C 190.53 447.62 185.66 433.33 182.59 418.56 C 178.67 401.63 176.20 384.40 174.46 367.13 C 173.56 358.18 172.50 349.13 173.56 340.16 C 174.27 333.79 177.57 328.17 180.82 322.80 C 185.39 315.69 191.12 309.42 196.86 303.24 C 194.14 299.02 196.60 294.35 198.46 290.34 C 205.05 276.48 213.25 263.45 219.39 249.37 C 226.97 233.48 233.34 217.07 239.31 200.52 C 243.95 188.76 249.50 176.68 259.40 168.38 C 267.47 161.81 276.80 156.67 283.72 148.76 C 287.76 143.99 292.51 138.95 299.00 137.96 C 303.92 136.48 308.19 140.04 312.18 142.33 C 314.97 138.20 318.19 134.02 318.88 128.94 C 319.53 123.38 316.08 118.42 312.24 114.77 C 303.97 106.65 296.94 96.94 293.38 85.81 C 291.09 78.22 292.00 70.01 294.50 62.59 C 298.46 50.75 305.89 40.35 314.51 31.45 C 320.67 25.52 327.11 19.73 334.58 15.49 M 405.74 41.99 C 404.84 47.43 406.34 52.88 406.43 58.32 C 399.03 59.96 391.72 57.25 384.61 55.52 C 378.06 64.59 379.39 76.24 380.42 86.70 C 370.26 84.28 362.63 76.49 354.96 69.89 C 353.30 68.34 350.81 67.49 348.70 68.66 C 344.26 71.00 341.20 75.89 341.22 80.94 C 341.24 89.03 344.01 96.92 348.26 103.73 C 350.79 107.77 353.35 111.89 354.60 116.53 C 355.22 118.97 355.31 122.00 353.03 123.64 C 349.13 121.74 344.97 120.47 340.62 120.16 C 332.23 119.48 324.13 116.57 317.02 112.11 C 321.20 116.71 324.45 122.68 324.01 129.07 C 323.39 135.14 319.99 140.52 315.95 144.93 C 331.76 156.73 347.91 168.21 362.57 181.46 C 362.53 173.02 368.92 165.40 377.33 164.22 C 370.96 157.34 364.01 149.97 362.07 140.49 C 362.52 140.45 363.43 140.38 363.89 140.34 C 370.18 148.80 375.93 158.02 384.43 164.55 C 389.98 169.14 396.50 172.55 403.48 174.39 C 407.38 175.52 412.16 173.61 413.81 169.81 C 418.76 157.51 419.02 143.52 426.12 132.06 C 428.56 127.81 434.09 130.08 437.99 129.02 C 439.35 128.02 440.44 126.55 440.85 124.89 C 441.03 113.67 431.76 104.49 433.13 93.11 C 434.13 85.44 434.13 77.64 432.89 70.01 C 431.69 62.06 427.61 55.01 424.75 47.61 C 422.44 52.44 421.98 57.84 420.13 62.81 C 417.63 57.13 416.54 51.02 415.66 44.92 C 415.15 41.57 413.90 37.34 410.02 36.69 C 407.49 37.05 406.19 39.74 405.74 41.99 M 296.03 144.14 C 291.21 147.23 288.35 152.42 284.08 156.13 C 274.48 165.20 261.23 170.40 254.16 182.02 C 245.46 195.29 241.30 210.77 235.27 225.29 C 228.19 242.39 220.55 259.31 211.40 275.41 C 207.20 282.88 203.07 290.42 199.86 298.38 C 210.99 296.39 222.16 299.95 232.06 304.79 C 245.90 311.96 258.86 322.37 265.80 336.62 C 280.82 319.93 298.09 305.30 316.80 292.91 C 321.37 290.03 325.98 286.98 331.20 285.42 C 332.79 284.78 334.31 285.72 335.78 286.23 C 330.76 289.49 325.32 292.07 320.42 295.54 C 302.33 308.06 285.68 322.64 270.78 338.82 C 268.87 340.79 266.87 342.90 264.10 343.56 C 261.61 338.75 258.96 334.02 255.53 329.79 C 251.59 332.49 247.42 334.86 243.57 337.69 C 241.54 339.02 241.17 341.55 240.97 343.77 C 239.39 363.46 239.19 383.25 239.71 402.99 C 240.13 427.02 237.81 450.97 237.54 474.98 C 237.48 485.73 237.48 496.49 237.77 507.24 C 249.86 498.78 264.43 494.62 279.04 493.67 C 290.86 493.33 302.68 495.82 314.47 494.23 C 320.89 493.42 326.71 490.39 332.34 487.36 C 337.95 484.16 343.26 480.38 347.91 475.87 C 354.10 470.02 360.21 463.63 368.27 460.37 C 376.43 457.19 385.29 456.39 393.98 456.23 C 402.20 456.35 410.49 456.75 418.55 458.52 C 413.91 445.91 403.15 436.63 391.64 430.36 C 379.88 425.39 368.48 419.61 356.98 414.05 C 339.20 404.99 321.32 396.06 304.12 385.92 C 302.03 384.26 298.26 383.04 298.59 379.81 C 301.42 380.09 304.06 381.21 306.58 382.48 C 316.50 387.43 326.00 393.19 335.98 398.02 C 351.09 405.92 366.52 413.18 381.80 420.74 C 378.36 417.32 375.40 413.45 371.87 410.13 C 368.14 407.18 364.11 404.62 360.60 401.40 C 345.19 387.48 329.73 373.60 314.77 359.20 C 310.32 354.72 305.37 350.48 302.54 344.71 C 308.02 347.59 312.04 352.40 316.64 356.41 C 331.32 370.01 346.86 382.65 361.33 396.49 C 354.44 387.32 347.59 378.11 341.78 368.20 C 339.01 363.18 334.44 358.73 334.11 352.72 C 339.55 354.82 341.88 360.56 345.22 364.89 C 358.14 383.13 370.40 401.90 385.09 418.79 C 385.86 405.08 395.90 394.35 398.03 381.00 C 401.23 365.71 397.23 350.32 396.23 335.03 C 394.90 320.66 397.49 306.31 397.14 291.93 C 397.01 285.59 395.63 279.37 394.45 273.17 C 392.06 260.77 389.11 248.48 385.34 236.44 C 383.43 230.16 380.61 224.19 379.08 217.80 C 377.89 213.51 377.15 208.99 374.83 205.12 C 372.59 201.34 367.87 200.19 365.24 196.78 C 362.81 193.27 362.93 188.41 359.65 185.42 C 349.14 175.43 337.30 167.00 325.84 158.16 C 319.29 152.97 312.61 147.91 305.57 143.40 C 302.70 141.29 298.80 142.40 296.03 144.14 M 203.44 302.07 C 197.17 309.26 190.64 316.27 185.21 324.14 C 181.78 329.63 178.26 335.45 177.83 342.07 C 176.95 353.04 178.64 363.99 179.62 374.90 C 181.15 390.11 183.73 405.20 187.14 420.10 C 189.96 433.26 194.21 446.05 197.82 459.01 C 200.69 469.21 204.37 479.22 206.39 489.65 C 201.08 495.66 198.15 503.38 196.62 511.16 C 195.49 517.01 196.90 523.07 195.51 528.87 C 193.75 534.57 187.88 537.02 183.99 541.00 C 177.55 547.25 170.86 553.97 168.05 562.73 C 173.25 560.84 177.19 556.82 181.13 553.10 C 186.30 547.89 191.88 543.09 197.49 538.37 C 198.97 536.58 202.16 537.38 201.68 540.01 C 197.62 545.71 191.94 550.00 187.57 555.45 C 183.46 560.58 179.58 566.04 177.02 572.13 C 175.84 574.69 176.10 577.55 176.71 580.22 C 182.95 577.20 186.55 570.99 190.71 565.75 C 195.58 559.59 200.07 553.12 205.20 547.17 C 206.80 545.72 208.55 543.00 211.02 544.31 C 211.79 545.93 210.84 547.51 209.80 548.74 C 205.19 554.33 200.94 560.20 196.45 565.88 C 197.13 567.92 197.90 569.94 198.83 571.89 C 201.16 570.65 203.31 569.08 204.91 566.96 C 209.36 561.36 213.22 555.25 218.45 550.30 C 219.42 549.19 220.88 548.85 222.27 548.65 C 223.21 551.05 221.71 553.22 220.73 555.31 C 222.29 561.40 221.63 567.75 222.02 573.97 C 222.51 582.28 221.72 591.24 226.16 598.70 C 228.35 597.33 229.72 595.08 230.27 592.59 C 232.88 582.60 233.10 572.20 233.71 561.95 C 233.98 534.65 232.88 507.36 232.87 480.06 C 232.94 451.37 236.12 422.73 234.90 394.03 C 234.71 377.30 234.74 360.54 236.28 343.88 C 236.57 340.64 237.29 337.08 239.99 334.96 C 244.03 331.79 248.66 329.48 253.08 326.89 C 240.16 313.28 222.69 302.33 203.44 302.07 M 372.17 464.19 C 364.05 466.89 357.94 473.17 351.84 478.87 C 345.11 485.40 337.13 490.56 328.62 494.47 C 314.53 502.14 298.17 498.41 282.99 497.91 C 275.88 497.68 268.88 499.22 262.00 500.83 C 253.68 502.77 246.06 506.86 238.95 511.49 C 246.72 520.94 255.30 529.75 262.04 540.01 C 268.28 548.59 272.93 558.23 279.53 566.56 C 287.54 576.78 297.02 585.73 305.10 595.89 C 316.77 610.40 327.29 625.77 338.01 640.98 C 341.59 645.96 344.04 651.61 347.20 656.85 C 351.50 664.18 356.83 670.91 362.92 676.83 C 368.63 672.96 372.66 667.17 378.40 663.34 C 384.70 658.61 392.21 655.96 398.88 651.87 C 406.52 646.66 411.98 638.70 420.30 634.39 C 437.56 624.97 457.41 622.21 476.58 619.23 C 473.69 612.65 471.24 605.34 465.44 600.67 C 460.77 596.93 455.62 593.84 451.01 590.03 C 440.04 580.99 428.98 572.06 418.27 562.72 C 412.12 557.49 406.41 551.76 399.95 546.91 C 397.76 545.36 397.07 542.61 396.94 540.08 C 396.66 533.39 397.93 526.70 397.15 520.00 C 396.90 510.58 394.31 501.47 393.42 492.13 C 395.39 494.46 397.16 497.05 397.89 500.06 C 401.72 513.90 401.97 528.39 402.66 542.63 C 404.78 545.40 407.76 547.36 410.31 549.72 C 417.70 556.34 425.36 562.65 433.01 568.96 C 444.73 578.32 455.96 588.36 468.74 596.31 C 476.76 601.13 478.22 611.03 482.37 618.68 C 486.76 618.17 491.21 618.01 495.57 617.20 C 498.70 616.62 501.33 614.12 502.04 611.00 C 503.37 607.62 500.95 604.47 499.28 601.73 C 493.99 594.13 487.78 587.23 482.16 579.88 C 476.29 572.23 471.22 564.00 466.15 555.81 C 461.18 546.90 454.06 539.23 450.48 529.55 C 449.01 525.99 448.92 522.01 447.38 518.49 C 445.15 514.88 441.79 512.17 439.01 509.01 C 433.34 502.62 427.64 496.12 423.47 488.61 C 420.86 483.87 417.35 479.40 416.35 473.98 C 416.69 470.04 418.55 466.39 419.12 462.47 C 411.88 460.82 404.41 460.83 397.02 460.76 C 388.65 460.84 380.17 461.59 372.17 464.19 M 475.05 624.54 C 479.83 638.85 485.53 653.09 486.87 668.25 C 488.39 683.33 489.87 699.09 484.74 713.68 C 482.40 721.39 476.26 727.08 470.02 731.78 C 472.52 734.11 474.66 736.80 476.53 739.66 C 479.39 731.37 485.56 724.64 492.72 719.77 C 503.71 712.32 516.89 707.56 530.29 708.04 C 529.76 699.93 531.03 691.65 529.13 683.67 C 526.95 676.27 519.57 672.64 514.48 667.50 C 507.46 659.84 502.57 650.59 497.20 641.76 C 493.50 635.88 491.16 629.31 487.80 623.25 C 483.53 623.34 479.29 624.04 475.05 624.54 M 422.18 639.14 C 415.63 642.68 410.90 648.56 405.23 653.24 C 400.37 657.40 394.32 659.68 388.69 662.57 C 396.67 672.65 403.46 683.88 407.62 696.09 C 409.94 702.06 407.25 708.23 403.92 713.20 C 409.14 717.71 414.77 721.76 420.78 725.17 C 432.92 731.95 445.79 738.38 459.90 739.40 C 463.62 738.13 462.27 733.21 464.78 730.79 C 469.50 725.19 476.21 721.00 478.95 713.90 C 485.00 698.27 482.63 681.17 480.87 664.97 C 479.73 654.11 475.63 643.93 472.61 633.53 C 471.75 630.69 470.26 628.11 468.92 625.49 C 452.92 628.18 436.49 631.09 422.18 639.14 M 502.25 720.25 C 493.57 725.06 484.91 731.65 481.24 741.20 C 479.10 746.11 481.28 751.27 482.99 755.94 C 489.72 774.18 500.62 790.88 514.74 804.27 C 527.41 816.39 540.39 828.40 555.22 837.86 C 564.35 843.61 573.51 849.36 581.89 856.19 C 591.12 863.49 600.13 871.38 606.68 881.27 C 607.93 875.01 608.82 867.36 615.01 863.91 C 622.61 858.75 632.14 860.39 640.77 860.26 C 642.67 858.98 644.57 857.73 646.50 856.49 C 642.73 852.87 639.22 848.98 636.16 844.75 C 627.69 832.96 618.64 821.58 610.44 809.59 C 601.78 797.11 592.44 785.07 581.70 774.29 C 568.23 759.76 554.63 745.30 542.25 729.82 C 538.07 724.27 533.26 719.03 530.65 712.49 C 520.78 713.10 510.98 715.53 502.25 720.25 M 401.10 716.70 C 397.87 724.09 394.32 731.34 390.45 738.42 C 382.53 752.94 376.55 768.65 373.99 785.04 C 370.31 808.56 371.04 832.53 367.18 856.03 C 364.03 876.56 355.27 895.78 352.57 916.40 C 352.08 921.12 351.65 926.39 354.41 930.55 C 355.42 932.70 358.22 931.73 359.97 931.19 C 367.17 928.18 372.23 921.92 378.40 917.37 C 386.60 910.78 398.28 908.35 408.18 912.35 C 412.33 886.56 421.79 861.84 433.70 838.68 C 440.15 825.98 446.10 812.98 450.48 799.40 C 456.31 781.69 461.11 763.27 460.96 744.50 C 456.70 743.99 452.45 743.44 448.23 742.69 C 439.38 740.92 431.26 736.79 423.28 732.72 C 415.15 728.51 407.38 723.42 401.10 716.70 M 640.99 865.10 C 633.07 865.67 624.42 863.95 617.23 868.22 C 612.57 870.66 612.58 876.55 611.76 881.07 C 610.84 890.31 609.91 900.25 614.10 908.89 C 616.97 915.53 622.41 922.05 630.09 922.72 C 639.02 923.48 648.03 922.68 656.94 923.86 C 669.53 924.93 681.55 929.08 693.97 931.11 C 700.52 932.17 707.28 934.47 713.90 932.58 C 722.56 930.12 729.60 924.03 735.56 917.51 C 737.80 914.96 740.12 911.67 739.33 908.09 C 738.81 905.71 735.96 905.72 734.04 905.45 C 722.27 904.85 710.61 907.36 699.35 910.52 C 694.62 911.83 689.53 912.52 684.75 911.11 C 679.86 909.64 675.38 907.13 670.65 905.25 C 663.14 902.12 655.16 900.13 647.06 899.44 C 639.41 898.59 631.67 899.23 624.06 898.01 C 625.15 896.90 626.22 895.51 627.97 895.68 C 635.01 895.19 642.10 894.93 649.16 895.34 C 658.36 895.85 667.34 898.46 675.73 902.20 C 679.24 903.72 682.65 905.54 686.38 906.51 C 690.63 907.55 695.03 906.56 699.17 905.45 C 712.43 901.72 726.40 899.35 740.16 901.48 C 738.21 898.59 735.94 895.89 732.97 894.02 C 724.88 888.28 716.07 883.60 706.83 880.02 C 696.30 875.63 684.83 874.45 674.03 870.93 C 665.28 868.54 657.27 864.24 649.14 860.33 C 646.72 862.33 644.39 865.05 640.99 865.10 M 388.70 917.75 C 377.44 922.27 370.49 934.51 358.06 936.61 C 353.53 937.78 350.54 933.92 348.45 930.57 C 345.16 935.27 341.25 939.64 339.06 945.01 C 336.47 951.32 335.62 958.20 335.43 964.97 C 335.48 968.34 335.34 971.95 336.85 975.06 C 338.42 977.36 341.67 976.78 344.06 976.78 C 361.89 974.60 380.28 974.70 397.72 979.37 C 405.95 981.51 413.24 986.14 421.38 988.52 C 427.09 990.21 433.10 990.64 439.02 990.42 C 450.41 989.96 461.95 988.68 472.63 984.49 C 475.46 983.31 478.43 981.80 480.00 979.04 C 478.05 974.25 473.46 971.41 469.27 968.79 C 457.06 961.44 443.51 955.91 433.19 945.81 C 424.25 938.02 417.50 928.15 409.03 919.91 C 403.73 914.53 395.20 915.27 388.70 917.75 Z" />
		<path fill="#020202" opacity="1.00"
			d=" M 412.44 70.61 C 414.52 69.95 416.73 69.35 418.91 69.96 C 423.06 70.87 427.34 70.54 431.55 71.07 C 431.58 74.13 432.20 77.33 431.35 80.32 C 427.97 82.20 423.99 82.51 420.31 83.53 C 420.95 87.89 422.16 92.28 421.65 96.72 C 417.09 96.72 412.90 94.62 408.64 93.29 C 406.01 92.68 405.37 89.76 403.80 87.96 C 400.13 85.96 395.77 86.30 391.85 85.19 C 390.90 83.59 390.36 81.80 389.71 80.07 C 396.47 75.18 404.66 73.22 412.44 70.61 Z" />
		<path fill="#020202" opacity="1.00"
			d=" M 330.04 267.08 C 336.05 264.08 341.35 259.92 347.09 256.51 C 350.48 255.52 349.13 259.34 347.61 260.59 C 342.71 265.23 336.82 268.65 331.01 272.00 C 316.57 280.01 302.75 289.28 290.53 300.44 C 287.10 303.37 284.11 307.09 279.67 308.53 C 281.11 302.23 286.86 298.53 291.11 294.18 C 302.52 283.09 316.09 274.57 330.04 267.08 Z" />
	</g>
	<g id="#f0b58bff">
		<path fill="#f0b58b" opacity="1.00"
			d=" M 405.74 41.99 C 406.19 39.74 407.49 37.05 410.02 36.69 C 413.90 37.34 415.15 41.57 415.66 44.92 C 416.54 51.02 417.63 57.13 420.13 62.81 C 421.98 57.84 422.44 52.44 424.75 47.61 C 427.61 55.01 431.69 62.06 432.89 70.01 C 434.13 77.64 434.13 85.44 433.13 93.11 C 431.76 104.49 441.03 113.67 440.85 124.89 C 440.44 126.55 439.35 128.02 437.99 129.02 C 434.09 130.08 428.56 127.81 426.12 132.06 C 419.02 143.52 418.76 157.51 413.81 169.81 C 412.16 173.61 407.38 175.52 403.48 174.39 C 396.50 172.55 389.98 169.14 384.43 164.55 C 375.93 158.02 370.18 148.80 363.89 140.34 C 363.43 140.38 362.52 140.45 362.07 140.49 C 364.01 149.97 370.96 157.34 377.33 164.22 C 368.92 165.40 362.53 173.02 362.57 181.46 C 347.91 168.21 331.76 156.73 315.95 144.93 C 319.99 140.52 323.39 135.14 324.01 129.07 C 324.45 122.68 321.20 116.71 317.02 112.11 C 324.13 116.57 332.23 119.48 340.62 120.16 C 344.97 120.47 349.13 121.74 353.03 123.64 C 355.31 122.00 355.22 118.97 354.60 116.53 C 353.35 111.89 350.79 107.77 348.26 103.73 C 344.01 96.92 341.24 89.03 341.22 80.94 C 341.20 75.89 344.26 71.00 348.70 68.66 C 350.81 67.49 353.30 68.34 354.96 69.89 C 362.63 76.49 370.26 84.28 380.42 86.70 C 379.39 76.24 378.06 64.59 384.61 55.52 C 391.72 57.25 399.03 59.96 406.43 58.32 C 406.34 52.88 404.84 47.43 405.74 41.99 M 412.44 70.61 C 404.66 73.22 396.47 75.18 389.71 80.07 C 390.36 81.80 390.90 83.59 391.85 85.19 C 395.77 86.30 400.13 85.96 403.80 87.96 C 405.37 89.76 406.01 92.68 408.64 93.29 C 412.90 94.62 417.09 96.72 421.65 96.72 C 422.16 92.28 420.95 87.89 420.31 83.53 C 423.99 82.51 427.97 82.20 431.35 80.32 C 432.20 77.33 431.58 74.13 431.55 71.07 C 427.34 70.54 423.06 70.87 418.91 69.96 C 416.73 69.35 414.52 69.95 412.44 70.61 Z" />
		<path fill="#f0b58b" opacity="1.00"
			d=" M 203.44 302.07 C 222.69 302.33 240.16 313.28 253.08 326.89 C 248.66 329.48 244.03 331.79 239.99 334.96 C 237.29 337.08 236.57 340.64 236.28 343.88 C 234.74 360.54 234.71 377.30 234.90 394.03 C 236.12 422.73 232.94 451.37 232.87 480.06 C 232.88 507.36 233.98 534.65 233.71 561.95 C 233.10 572.20 232.88 582.60 230.27 592.59 C 229.72 595.08 228.35 597.33 226.16 598.70 C 221.72 591.24 222.51 582.28 222.02 573.97 C 221.63 567.75 222.29 561.40 220.73 555.31 C 221.71 553.22 223.21 551.05 222.27 548.65 C 220.88 548.85 219.42 549.19 218.45 550.30 C 213.22 555.25 209.36 561.36 204.91 566.96 C 203.31 569.08 201.16 570.65 198.83 571.89 C 197.90 569.94 197.13 567.92 196.45 565.88 C 200.94 560.20 205.19 554.33 209.80 548.74 C 210.84 547.51 211.79 545.93 211.02 544.31 C 208.55 543.00 206.80 545.72 205.20 547.17 C 200.07 553.12 195.58 559.59 190.71 565.75 C 186.55 570.99 182.95 577.20 176.71 580.22 C 176.10 577.55 175.84 574.69 177.02 572.13 C 179.58 566.04 183.46 560.58 187.57 555.45 C 191.94 550.00 197.62 545.71 201.68 540.01 C 202.16 537.38 198.97 536.58 197.49 538.37 C 191.88 543.09 186.30 547.89 181.13 553.10 C 177.19 556.82 173.25 560.84 168.05 562.73 C 170.86 553.97 177.55 547.25 183.99 541.00 C 187.88 537.02 193.75 534.57 195.51 528.87 C 196.90 523.07 195.49 517.01 196.62 511.16 C 198.15 503.38 201.08 495.66 206.39 489.65 C 204.37 479.22 200.69 469.21 197.82 459.01 C 194.21 446.05 189.96 433.26 187.14 420.10 C 183.73 405.20 181.15 390.11 179.62 374.90 C 178.64 363.99 176.95 353.04 177.83 342.07 C 178.26 335.45 181.78 329.63 185.21 324.14 C 190.64 316.27 197.17 309.26 203.44 302.07 Z" />
		<path fill="#f0b58b" opacity="1.00"
			d=" M 475.05 624.54 C 479.29 624.04 483.53 623.34 487.80 623.25 C 491.16 629.31 493.50 635.88 497.20 641.76 C 502.57 650.59 507.46 659.84 514.48 667.50 C 519.57 672.64 526.95 676.27 529.13 683.67 C 531.03 691.65 529.76 699.93 530.29 708.04 C 516.89 707.56 503.71 712.32 492.72 719.77 C 485.56 724.64 479.39 731.37 476.53 739.66 C 474.66 736.80 472.52 734.11 470.02 731.78 C 476.26 727.08 482.40 721.39 484.74 713.68 C 489.87 699.09 488.39 683.33 486.87 668.25 C 485.53 653.09 479.83 638.85 475.05 624.54 Z" />
		<path fill="#f0b58b" opacity="1.00"
			d=" M 422.18 639.14 C 436.49 631.09 452.92 628.18 468.92 625.49 C 470.26 628.11 471.75 630.69 472.61 633.53 C 475.63 643.93 479.73 654.11 480.87 664.97 C 482.63 681.17 485.00 698.27 478.95 713.90 C 476.21 721.00 469.50 725.19 464.78 730.79 C 462.27 733.21 463.62 738.13 459.90 739.40 C 445.79 738.38 432.92 731.95 420.78 725.17 C 414.77 721.76 409.14 717.71 403.92 713.20 C 407.25 708.23 409.94 702.06 407.62 696.09 C 403.46 683.88 396.67 672.65 388.69 662.57 C 394.32 659.68 400.37 657.40 405.23 653.24 C 410.90 648.56 415.63 642.68 422.18 639.14 Z" />
	</g>
	<g id="#f11b27ff">
		<path fill="var(--shirt-color, grey)" opacity="1.00"
			d=" M 296.03 144.14 C 298.80 142.40 302.70 141.29 305.57 143.40 C 312.61 147.91 319.29 152.97 325.84 158.16 C 337.30 167.00 349.14 175.43 359.65 185.42 C 362.93 188.41 362.81 193.27 365.24 196.78 C 367.87 200.19 372.59 201.34 374.83 205.12 C 377.15 208.99 377.89 213.51 379.08 217.80 C 380.61 224.19 383.43 230.16 385.34 236.44 C 389.11 248.48 392.06 260.77 394.45 273.17 C 395.63 279.37 397.01 285.59 397.14 291.93 C 397.49 306.31 394.90 320.66 396.23 335.03 C 397.23 350.32 401.23 365.71 398.03 381.00 C 395.90 394.35 385.86 405.08 385.09 418.79 C 370.40 401.90 358.14 383.13 345.22 364.89 C 341.88 360.56 339.55 354.82 334.11 352.72 C 334.44 358.73 339.01 363.18 341.78 368.20 C 347.59 378.11 354.44 387.32 361.33 396.49 C 346.86 382.65 331.32 370.01 316.64 356.41 C 312.04 352.40 308.02 347.59 302.54 344.71 C 305.37 350.48 310.32 354.72 314.77 359.20 C 329.73 373.60 345.19 387.48 360.60 401.40 C 364.11 404.62 368.14 407.18 371.87 410.13 C 375.40 413.45 378.36 417.32 381.80 420.74 C 366.52 413.18 351.09 405.92 335.98 398.02 C 326.00 393.19 316.50 387.43 306.58 382.48 C 304.06 381.21 301.42 380.09 298.59 379.81 C 298.26 383.04 302.03 384.26 304.12 385.92 C 321.32 396.06 339.20 404.99 356.98 414.05 C 368.48 419.61 379.88 425.39 391.64 430.36 C 403.15 436.63 413.91 445.91 418.55 458.52 C 410.49 456.75 402.20 456.35 393.98 456.23 C 385.29 456.39 376.43 457.19 368.27 460.37 C 360.21 463.63 354.10 470.02 347.91 475.87 C 343.26 480.38 337.95 484.16 332.34 487.36 C 326.71 490.39 320.89 493.42 314.47 494.23 C 302.68 495.82 290.86 493.33 279.04 493.67 C 264.43 494.62 249.86 498.78 237.77 507.24 C 237.48 496.49 237.48 485.73 237.54 474.98 C 237.81 450.97 240.13 427.02 239.71 402.99 C 239.19 383.25 239.39 363.46 240.97 343.77 C 241.17 341.55 241.54 339.02 243.57 337.69 C 247.42 334.86 251.59 332.49 255.53 329.79 C 258.96 334.02 261.61 338.75 264.10 343.56 C 266.87 342.90 268.87 340.79 270.78 338.82 C 285.68 322.64 302.33 308.06 320.42 295.54 C 325.32 292.07 330.76 289.49 335.78 286.23 C 334.31 285.72 332.79 284.78 331.20 285.42 C 325.98 286.98 321.37 290.03 316.80 292.91 C 298.09 305.30 280.82 319.93 265.80 336.62 C 258.86 322.37 245.90 311.96 232.06 304.79 C 222.16 299.95 210.99 296.39 199.86 298.38 C 203.07 290.42 207.20 282.88 211.40 275.41 C 220.55 259.31 228.19 242.39 235.27 225.29 C 241.30 210.77 245.46 195.29 254.16 182.02 C 261.23 170.40 274.48 165.20 284.08 156.13 C 288.35 152.42 291.21 147.23 296.03 144.14 M 330.04 267.08 C 316.09 274.57 302.52 283.09 291.11 294.18 C 286.86 298.53 281.11 302.23 279.67 308.53 C 284.11 307.09 287.10 303.37 290.53 300.44 C 302.75 289.28 316.57 280.01 331.01 272.00 C 336.82 268.65 342.71 265.23 347.61 260.59 C 349.13 259.34 350.48 255.52 347.09 256.51 C 341.35 259.92 336.05 264.08 330.04 267.08 Z" />
	</g>
	<g id="#2b3dcdff">
		<path fill="var(--pants-color, grey)" opacity="1.00"
			d=" M 372.17 464.19 C 380.17 461.59 388.65 460.84 397.02 460.76 C 404.41 460.83 411.88 460.82 419.12 462.47 C 418.55 466.39 416.69 470.04 416.35 473.98 C 417.35 479.40 420.86 483.87 423.47 488.61 C 427.64 496.12 433.34 502.62 439.01 509.01 C 441.79 512.17 445.15 514.88 447.38 518.49 C 448.92 522.01 449.01 525.99 450.48 529.55 C 454.06 539.23 461.18 546.90 466.15 555.81 C 471.22 564.00 476.29 572.23 482.16 579.88 C 487.78 587.23 493.99 594.13 499.28 601.73 C 500.95 604.47 503.37 607.62 502.04 611.00 C 501.33 614.12 498.70 616.62 495.57 617.20 C 491.21 618.01 486.76 618.17 482.37 618.68 C 478.22 611.03 476.76 601.13 468.74 596.31 C 455.96 588.36 444.73 578.32 433.01 568.96 C 425.36 562.65 417.70 556.34 410.31 549.72 C 407.76 547.36 404.78 545.40 402.66 542.63 C 401.97 528.39 401.72 513.90 397.89 500.06 C 397.16 497.05 395.39 494.46 393.42 492.13 C 394.31 501.47 396.90 510.58 397.15 520.00 C 397.93 526.70 396.66 533.39 396.94 540.08 C 397.07 542.61 397.76 545.36 399.95 546.91 C 406.41 551.76 412.12 557.49 418.27 562.72 C 428.98 572.06 440.04 580.99 451.01 590.03 C 455.62 593.84 460.77 596.93 465.44 600.67 C 471.24 605.34 473.69 612.65 476.58 619.23 C 457.41 622.21 437.56 624.97 420.30 634.39 C 411.98 638.70 406.52 646.66 398.88 651.87 C 392.21 655.96 384.70 658.61 378.40 663.34 C 372.66 667.17 368.63 672.96 362.92 676.83 C 356.83 670.91 351.50 664.18 347.20 656.85 C 344.04 651.61 341.59 645.96 338.01 640.98 C 327.29 625.77 316.77 610.40 305.10 595.89 C 297.02 585.73 287.54 576.78 279.53 566.56 C 272.93 558.23 268.28 548.59 262.04 540.01 C 255.30 529.75 246.72 520.94 238.95 511.49 C 246.06 506.86 253.68 502.77 262.00 500.83 C 268.88 499.22 275.88 497.68 282.99 497.91 C 298.17 498.41 314.53 502.14 328.62 494.47 C 337.13 490.56 345.11 485.40 351.84 478.87 C 357.94 473.17 364.05 466.89 372.17 464.19 Z" />
		<path fill="var(--socks-color, grey)" opacity="1.00"
			d=" M 502.25 720.25 C 510.98 715.53 520.78 713.10 530.65 712.49 C 533.26 719.03 538.07 724.27 542.25 729.82 C 554.63 745.30 568.23 759.76 581.70 774.29 C 592.44 785.07 601.78 797.11 610.44 809.59 C 618.64 821.58 627.69 832.96 636.16 844.75 C 639.22 848.98 642.73 852.87 646.50 856.49 C 644.57 857.73 642.67 858.98 640.77 860.26 C 632.14 860.39 622.61 858.75 615.01 863.91 C 608.82 867.36 607.93 875.01 606.68 881.27 C 600.13 871.38 591.12 863.49 581.89 856.19 C 573.51 849.36 564.35 843.61 555.22 837.86 C 540.39 828.40 527.41 816.39 514.74 804.27 C 500.62 790.88 489.72 774.18 482.99 755.94 C 481.28 751.27 479.10 746.11 481.24 741.20 C 484.91 731.65 493.57 725.06 502.25 720.25 Z" />
		<path fill="var(--socks-color, grey)" opacity="1.00"
			d=" M 401.10 716.70 C 407.38 723.42 415.15 728.51 423.28 732.72 C 431.26 736.79 439.38 740.92 448.23 742.69 C 452.45 743.44 456.70 743.99 460.96 744.50 C 461.11 763.27 456.31 781.69 450.48 799.40 C 446.10 812.98 440.15 825.98 433.70 838.68 C 421.79 861.84 412.33 886.56 408.18 912.35 C 398.28 908.35 386.60 910.78 378.40 917.37 C 372.23 921.92 367.17 928.18 359.97 931.19 C 358.22 931.73 355.42 932.70 354.41 930.55 C 351.65 926.39 352.08 921.12 352.57 916.40 C 355.27 895.78 364.03 876.56 367.18 856.03 C 371.04 832.53 370.31 808.56 373.99 785.04 C 376.55 768.65 382.53 752.94 390.45 738.42 C 394.32 731.34 397.87 724.09 401.10 716.70 Z" />
	</g>
	<g id="#4d4d4dff">
		<path fill="#4d4d4d" opacity="1.00"
			d=" M 640.99 865.10 C 644.39 865.05 646.72 862.33 649.14 860.33 C 657.27 864.24 665.28 868.54 674.03 870.93 C 684.83 874.45 696.30 875.63 706.83 880.02 C 716.07 883.60 724.88 888.28 732.97 894.02 C 735.94 895.89 738.21 898.59 740.16 901.48 C 726.40 899.35 712.43 901.72 699.17 905.45 C 695.03 906.56 690.63 907.55 686.38 906.51 C 682.65 905.54 679.24 903.72 675.73 902.20 C 667.34 898.46 658.36 895.85 649.16 895.34 C 642.10 894.93 635.01 895.19 627.97 895.68 C 626.22 895.51 625.15 896.90 624.06 898.01 C 631.67 899.23 639.41 898.59 647.06 899.44 C 655.16 900.13 663.14 902.12 670.65 905.25 C 675.38 907.13 679.86 909.64 684.75 911.11 C 689.53 912.52 694.62 911.83 699.35 910.52 C 710.61 907.36 722.27 904.85 734.04 905.45 C 735.96 905.72 738.81 905.71 739.33 908.09 C 740.12 911.67 737.80 914.96 735.56 917.51 C 729.60 924.03 722.56 930.12 713.90 932.58 C 707.28 934.47 700.52 932.17 693.97 931.11 C 681.55 929.08 669.53 924.93 656.94 923.86 C 648.03 922.68 639.02 923.48 630.09 922.72 C 622.41 922.05 616.97 915.53 614.10 908.89 C 609.91 900.25 610.84 890.31 611.76 881.07 C 612.58 876.55 612.57 870.66 617.23 868.22 C 624.42 863.95 633.07 865.67 640.99 865.10 Z" />
		<path fill="#4d4d4d" opacity="1.00"
			d=" M 388.70 917.75 C 395.20 915.27 403.73 914.53 409.03 919.91 C 417.50 928.15 424.25 938.02 433.19 945.81 C 443.51 955.91 457.06 961.44 469.27 968.79 C 473.46 971.41 478.05 974.25 480.00 979.04 C 478.43 981.80 475.46 983.31 472.63 984.49 C 461.95 988.68 450.41 989.96 439.02 990.42 C 433.10 990.64 427.09 990.21 421.38 988.52 C 413.24 986.14 405.95 981.51 397.72 979.37 C 380.28 974.70 361.89 974.60 344.06 976.78 C 341.67 976.78 338.42 977.36 336.85 975.06 C 335.34 971.95 335.48 968.34 335.43 964.97 C 335.62 958.20 336.47 951.32 339.06 945.01 C 341.25 939.64 345.16 935.27 348.45 930.57 C 350.54 933.92 353.53 937.78 358.06 936.61 C 370.49 934.51 377.44 922.27 388.70 917.75 Z" />
	</g>
</svg>