<?xml version="1.0" encoding="UTF-8" ?>
<!DOCTYPE svg PUBLIC "-//W3C//DTD SVG 1.1//EN" "http://www.w3.org/Graphics/SVG/1.1/DTD/svg11.dtd">
<svg width="1000pt" height="1000pt" viewBox="0 0 1000 1000" version="1.1" xmlns="http://www.w3.org/2000/svg">
	<g id="#020202ff">
		<path fill="#020202" opacity="1.00"
			d=" M 789.41 64.46 C 806.36 55.17 826.29 50.79 845.51 53.73 C 859.45 55.91 873.19 62.92 881.16 74.87 C 883.52 78.14 884.67 82.04 886.37 85.64 C 888.52 88.74 891.86 91.24 892.55 95.16 C 893.70 99.01 892.40 102.95 890.57 106.35 C 891.41 112.20 892.60 118.10 892.07 124.05 C 891.61 131.39 887.11 137.57 885.41 144.59 C 881.55 157.42 884.13 170.89 883.26 184.01 C 883.42 188.21 878.95 191.08 875.09 190.33 C 870.78 190.03 865.89 188.59 861.95 191.01 C 856.50 196.20 853.75 203.44 849.78 209.71 C 854.69 216.54 861.26 221.94 866.43 228.56 C 869.88 232.95 870.33 238.69 871.04 244.02 C 871.88 250.83 875.20 257.12 875.44 264.03 C 875.48 268.78 874.20 273.41 872.74 277.89 C 867.95 292.48 864.24 307.62 863.96 323.04 C 863.62 331.74 864.33 340.54 862.72 349.15 C 862.48 351.63 860.10 352.98 858.88 354.95 C 858.47 358.61 859.20 362.27 859.44 365.92 C 860.57 379.86 861.71 394.05 859.01 407.89 C 858.03 414.26 856.14 420.56 856.37 427.05 C 856.24 430.20 859.42 431.77 861.68 433.25 C 871.08 438.48 881.20 442.28 890.72 447.27 C 896.93 450.47 901.78 456.03 904.45 462.45 C 905.70 465.26 905.69 468.68 907.91 471.01 C 912.94 476.73 917.87 482.59 922.01 489.01 C 923.41 491.26 924.93 494.10 923.72 496.78 C 922.78 498.90 920.08 499.30 918.09 498.70 C 914.57 497.64 911.65 495.29 908.69 493.23 C 911.02 497.27 913.68 501.87 912.65 506.72 C 911.98 509.40 908.54 509.74 906.55 508.36 C 901.28 505.29 897.63 500.23 893.49 495.89 C 895.69 502.40 898.39 509.06 898.02 516.06 C 897.92 518.75 896.10 521.97 893.04 521.71 C 888.97 521.03 885.81 517.78 883.77 514.37 C 880.00 508.04 879.15 500.53 876.19 493.87 C 875.17 491.21 872.37 490.14 870.05 488.93 C 862.98 485.30 855.56 482.35 848.65 478.40 C 844.72 476.18 841.15 473.07 839.02 469.04 C 837.42 465.77 836.84 462.15 835.97 458.66 C 830.63 454.61 827.14 448.76 824.05 442.94 C 819.00 433.14 812.32 424.30 807.48 414.38 C 801.06 401.45 794.68 387.81 794.18 373.14 C 792.56 372.07 790.97 371.00 789.38 369.91 C 784.72 381.92 777.00 392.30 770.07 403.04 C 764.55 410.58 759.53 418.47 753.89 425.91 C 749.04 432.23 745.15 439.20 740.99 445.97 C 736.04 454.08 731.18 462.45 728.78 471.72 C 727.53 476.42 727.36 481.50 724.85 485.79 C 719.04 496.08 712.95 506.25 705.71 515.61 C 702.64 519.80 699.26 523.98 694.57 526.43 C 690.57 528.44 687.11 531.29 683.82 534.30 C 690.37 544.16 695.69 555.81 694.22 567.93 C 691.54 582.97 685.03 597.42 674.87 608.89 C 663.83 623.70 653.72 639.36 646.50 656.42 C 638.39 675.44 632.60 695.31 625.76 714.80 C 616.57 740.83 605.97 766.62 590.72 789.75 C 582.49 801.98 574.55 814.40 566.27 826.59 C 568.75 826.94 571.59 826.61 573.71 828.18 C 576.47 832.43 577.56 837.53 579.84 842.05 C 586.12 854.79 595.71 865.43 604.77 876.24 C 610.25 883.04 616.16 889.49 622.19 895.81 C 627.25 901.06 632.00 907.49 632.28 915.06 C 631.25 920.35 625.84 923.22 621.32 925.22 C 612.27 928.43 602.33 929.17 592.86 927.72 C 582.31 926.08 573.09 920.35 564.18 914.81 C 552.44 907.54 539.41 902.83 526.95 897.04 C 516.83 892.50 506.65 887.16 499.37 878.56 C 496.43 875.07 496.06 870.21 496.41 865.85 C 497.21 858.35 500.22 851.29 503.52 844.59 C 506.95 837.39 512.04 831.18 517.67 825.61 C 521.23 811.45 524.13 797.08 528.03 782.99 C 533.06 765.00 537.10 746.76 541.40 728.60 C 534.20 734.65 527.15 741.06 521.94 748.97 C 514.89 759.60 506.82 769.66 497.03 777.90 C 490.79 783.08 483.36 787.29 475.16 788.09 C 464.91 789.28 453.90 789.31 444.81 794.83 C 434.04 800.92 423.37 807.21 413.18 814.23 C 399.86 823.34 384.57 828.94 369.07 833.06 C 339.73 840.92 311.21 852.07 281.11 856.90 C 266.92 859.21 252.01 858.21 238.48 863.68 C 231.61 866.59 225.69 871.21 219.56 875.36 C 220.04 880.21 219.69 885.13 218.53 889.86 C 215.97 899.91 212.12 909.58 209.48 919.61 C 208.57 925.14 207.25 931.41 210.40 936.51 C 214.00 942.53 218.15 948.20 221.96 954.08 C 224.01 957.24 225.44 961.62 223.07 965.02 C 219.71 969.78 213.60 971.42 208.09 971.94 C 195.86 972.74 183.80 968.17 173.89 961.22 C 166.11 955.65 159.41 948.25 155.67 939.36 C 153.51 934.17 151.02 929.09 149.58 923.64 C 147.64 916.88 147.02 909.80 144.76 903.13 C 141.60 893.34 136.42 884.40 131.75 875.28 C 127.72 867.53 127.77 858.01 131.05 850.02 C 135.38 841.61 143.50 835.80 151.93 831.94 C 159.23 828.53 167.52 827.69 175.41 829.17 C 190.01 820.89 205.37 813.71 221.62 809.34 C 234.45 805.80 247.00 801.36 259.45 796.70 C 268.79 793.42 278.12 789.83 286.59 784.63 C 298.55 776.82 307.23 765.08 318.89 756.87 C 333.00 745.99 350.52 741.12 367.65 737.42 C 379.95 734.52 392.47 732.71 404.96 730.83 C 413.17 729.43 421.80 728.47 428.96 723.86 C 436.33 719.78 439.84 711.71 443.53 704.58 C 448.43 695.10 452.18 685.09 455.66 675.03 C 450.09 666.53 447.00 656.06 448.28 645.88 C 449.31 634.51 456.24 624.83 463.25 616.25 C 469.10 608.49 475.14 600.88 481.39 593.44 C 486.38 587.39 491.94 581.74 495.82 574.86 C 500.59 567.71 503.44 559.55 507.38 551.97 C 507.14 545.30 505.59 538.55 507.58 531.95 C 504.98 527.74 501.60 524.05 499.30 519.67 C 494.41 510.62 493.90 500.08 493.27 490.04 C 493.36 484.81 488.51 481.25 488.20 476.11 C 487.13 469.17 491.05 462.95 494.83 457.52 C 493.99 446.48 498.03 436.01 501.77 425.85 C 504.97 417.56 509.27 408.95 517.13 404.17 C 524.79 399.58 532.70 395.39 541.01 392.10 C 553.24 387.71 561.20 376.90 569.39 367.45 C 584.09 350.08 593.57 329.16 602.09 308.27 C 588.81 310.08 575.29 311.96 561.92 309.91 C 556.74 309.05 551.12 307.57 547.68 303.30 C 541.24 295.41 542.80 283.77 547.35 275.35 C 554.10 263.56 562.89 253.12 570.19 241.69 C 568.10 241.56 566.04 241.42 563.98 241.22 C 565.40 235.61 569.19 231.10 572.40 226.42 C 576.75 220.19 581.39 214.11 587.02 208.96 C 599.14 197.66 613.95 189.96 627.43 180.49 C 635.39 175.17 643.12 169.52 650.83 163.85 C 656.95 159.67 663.51 155.44 671.05 154.62 C 689.79 152.92 708.42 161.55 727.04 156.86 C 731.05 156.06 734.95 154.73 738.99 154.06 C 742.13 153.32 744.60 155.80 746.91 157.48 C 753.56 149.84 759.03 140.31 759.41 130.01 C 756.75 119.62 754.93 108.47 758.22 97.98 C 760.56 91.31 763.48 84.65 768.35 79.41 C 774.08 72.82 781.66 68.27 789.41 64.46 M 870.83 98.89 C 867.50 103.12 867.64 108.76 865.70 113.53 C 858.70 115.34 850.89 111.98 846.92 105.98 C 844.01 109.47 841.02 112.96 838.87 116.98 C 836.42 121.70 835.08 126.88 833.15 131.81 C 829.41 130.34 825.80 128.55 821.99 127.26 C 821.01 122.61 820.06 117.73 817.07 113.90 C 815.27 111.55 812.04 110.05 809.16 111.18 C 803.58 113.07 799.07 117.95 797.77 123.71 C 796.41 129.37 796.60 135.25 796.93 141.01 C 797.20 146.04 798.75 150.92 798.76 155.97 C 793.65 154.71 788.82 152.43 784.46 149.52 C 778.86 145.99 773.57 141.82 769.59 136.50 C 766.16 132.26 764.05 127.19 761.40 122.48 C 763.09 130.12 766.07 137.39 768.08 144.94 C 769.51 150.34 771.57 155.82 770.74 161.50 C 768.94 159.40 768.59 156.60 767.82 154.05 C 766.34 148.60 764.20 143.36 762.27 138.07 C 760.82 145.06 758.33 152.07 753.65 157.59 C 750.59 161.25 746.33 163.55 742.22 165.82 C 746.82 178.37 752.26 190.60 758.50 202.42 C 766.34 217.38 773.65 232.62 780.81 247.92 C 783.79 237.98 786.61 227.83 791.76 218.75 C 795.74 212.78 799.41 206.46 804.83 201.64 C 802.96 199.33 800.97 197.09 799.43 194.53 C 798.57 193.65 797.88 190.40 800.03 191.42 C 802.03 192.47 803.35 194.42 804.91 196.02 C 811.10 203.18 818.52 209.09 825.59 215.34 C 828.90 218.07 832.31 221.59 836.95 221.48 C 841.16 216.97 843.79 211.25 847.13 206.10 C 851.23 199.66 854.07 192.03 860.20 187.16 C 865.95 183.15 873.03 187.71 878.99 185.37 C 878.57 170.11 876.34 154.36 881.51 139.60 C 878.37 141.24 875.15 142.80 871.68 143.54 C 870.82 146.59 870.03 149.80 868.00 152.32 C 865.71 152.66 864.14 150.70 862.43 149.56 C 855.30 143.83 847.80 138.20 842.48 130.65 C 850.00 127.91 857.94 126.01 866.00 126.34 C 872.68 126.51 878.92 129.76 883.77 134.23 C 887.78 126.98 887.53 118.56 887.33 110.54 C 883.95 113.19 879.81 114.56 875.55 114.82 C 878.33 109.19 883.09 102.64 879.69 96.22 C 876.55 94.41 872.59 95.93 870.83 98.89 M 650.99 170.05 C 640.77 177.97 630.08 185.26 619.20 192.22 C 607.88 199.31 596.16 206.15 586.84 215.86 C 580.49 222.26 575.96 230.13 570.37 237.14 C 582.16 236.86 594.32 239.89 603.51 247.56 C 607.07 250.41 609.33 254.43 612.00 258.05 C 614.67 261.55 618.98 263.30 623.24 263.85 C 628.13 264.50 632.92 265.98 637.85 266.19 C 642.58 264.74 646.87 262.20 651.05 259.60 C 649.80 245.84 642.15 233.74 633.82 223.12 C 631.76 220.20 628.66 217.74 628.13 214.01 C 634.52 217.33 638.30 223.77 642.85 229.09 C 648.62 235.90 652.84 244.00 654.59 252.79 C 656.03 244.22 654.93 235.47 652.62 227.16 C 651.50 222.67 649.19 218.45 649.23 213.73 C 652.83 215.28 654.15 219.19 655.48 222.56 C 658.96 232.37 660.98 243.08 658.42 253.37 C 664.97 244.77 668.71 234.44 672.17 224.31 C 675.63 214.11 677.48 203.49 680.02 193.06 C 683.29 196.19 682.01 200.90 681.46 204.84 C 678.38 221.15 674.48 237.94 664.74 251.71 C 659.76 258.85 652.54 264.22 644.57 267.57 C 650.69 268.40 656.81 269.30 662.97 269.89 C 667.83 263.71 670.76 255.99 676.89 250.87 C 680.00 248.21 684.24 248.02 688.09 247.42 C 692.50 246.85 695.74 243.47 699.67 241.73 C 702.22 240.65 705.33 240.78 707.69 242.30 C 714.71 246.86 721.70 251.49 728.23 256.74 C 731.34 259.36 735.17 261.45 737.23 265.08 C 738.45 269.83 732.14 269.53 729.13 269.25 C 731.69 271.77 734.22 274.56 735.31 278.06 C 736.15 280.28 734.23 282.64 732.00 282.78 C 727.58 283.20 723.35 281.51 719.22 280.16 C 718.26 282.43 716.84 284.85 714.06 284.94 C 705.62 285.89 697.12 283.42 689.56 279.78 C 694.34 284.96 699.89 289.92 702.39 296.69 C 703.58 299.70 703.03 304.67 698.99 304.88 C 692.10 305.10 686.23 300.78 680.75 297.16 C 677.74 299.83 674.31 302.57 670.09 302.65 C 664.41 302.88 658.73 302.26 653.06 302.62 C 637.83 303.43 622.72 305.64 607.60 307.56 C 603.40 315.66 600.84 324.49 596.62 332.60 C 587.05 353.35 573.50 372.24 556.99 388.04 C 549.50 395.14 539.15 397.42 530.35 402.35 C 525.29 405.18 519.75 407.42 515.50 411.47 C 510.27 416.87 507.70 424.13 505.03 431.01 C 502.64 437.80 499.89 444.54 498.74 451.70 C 510.50 442.72 522.88 434.30 536.58 428.57 C 545.56 424.77 555.39 423.79 565.05 423.70 C 577.70 423.23 590.26 425.91 602.20 429.89 C 614.62 433.98 625.89 441.90 633.28 452.76 C 637.46 459.46 644.32 463.68 649.73 469.26 C 657.04 476.63 664.10 484.26 671.01 492.01 C 679.10 501.69 687.98 511.38 691.96 523.61 C 695.25 521.02 698.22 518.01 700.56 514.53 C 707.90 504.63 714.36 494.11 720.44 483.39 C 722.45 479.87 722.62 475.73 723.58 471.87 C 726.10 461.21 731.73 451.66 737.40 442.41 C 741.47 435.86 745.33 429.15 750.02 423.01 C 755.81 415.40 761.06 407.42 766.68 399.69 C 773.32 389.45 780.75 379.54 785.05 368.00 C 786.10 364.95 786.06 361.54 787.79 358.72 C 790.07 354.80 793.12 351.41 795.70 347.69 C 799.25 342.61 802.72 337.45 806.81 332.76 C 817.47 320.45 827.18 307.27 839.08 296.09 C 842.64 292.91 845.78 288.75 850.63 287.51 C 849.61 289.76 848.10 291.72 846.33 293.42 C 831.84 307.44 820.07 323.89 806.86 339.05 C 815.65 333.78 824.24 328.13 833.42 323.53 C 837.37 321.65 842.07 319.73 846.35 321.79 C 841.83 323.72 837.14 325.29 832.93 327.87 C 823.65 333.42 814.01 338.34 804.61 343.69 C 802.28 344.95 800.84 347.23 799.32 349.30 C 795.86 354.25 791.46 358.56 788.75 364.03 C 792.87 367.64 797.81 370.30 803.13 371.64 C 807.76 372.81 812.53 371.55 816.95 370.12 C 831.11 365.07 843.93 357.12 857.15 350.11 C 859.38 349.36 859.12 346.82 859.39 344.94 C 860.18 332.96 859.01 320.86 860.99 308.96 C 862.56 298.26 865.27 287.76 868.60 277.48 C 869.97 273.11 871.37 268.62 871.25 263.99 C 870.84 258.17 868.20 252.84 867.22 247.14 C 866.46 243.26 866.56 239.24 865.44 235.44 C 864.28 231.72 861.37 228.98 858.73 226.28 C 854.70 222.24 850.96 217.91 847.54 213.33 C 844.85 217.29 842.76 221.87 838.98 224.94 C 835.13 227.02 830.73 224.67 827.44 222.55 C 820.20 217.40 813.50 211.45 807.59 204.81 C 799.03 212.20 793.57 222.51 790.19 233.18 C 787.68 240.30 785.60 247.57 783.77 254.89 C 783.55 257.60 779.55 257.55 779.07 254.99 C 775.14 245.46 770.34 236.33 765.97 226.99 C 758.37 210.98 749.45 195.60 742.81 179.15 C 740.14 172.59 736.65 166.01 737.14 158.71 C 730.92 160.58 724.57 162.31 718.05 162.64 C 702.93 162.88 688.18 158.20 673.05 158.65 C 664.36 159.01 657.62 165.15 650.99 170.05 M 741.03 161.37 C 742.44 162.49 744.58 160.10 743.27 158.82 C 741.83 157.67 739.80 160.09 741.03 161.37 M 553.24 275.32 C 548.83 281.62 548.22 289.61 548.96 297.05 C 549.68 301.26 554.06 303.28 557.79 304.18 C 566.36 306.13 575.26 305.81 583.97 305.14 C 598.09 303.76 612.14 301.68 626.25 300.18 C 638.78 298.83 651.36 297.33 663.98 298.00 C 668.69 298.80 673.28 297.48 676.93 294.44 C 675.21 292.50 672.69 290.74 672.63 287.91 C 673.97 285.17 676.41 287.97 677.98 288.99 C 684.07 293.31 690.43 297.66 697.70 299.71 C 694.39 291.51 687.40 285.74 681.89 279.08 C 679.60 276.19 676.50 273.61 675.40 270.01 C 675.45 267.44 678.14 268.98 679.18 269.85 C 689.56 275.77 701.14 280.89 713.37 280.08 C 706.47 273.88 697.16 271.22 690.28 265.03 C 690.43 264.54 690.71 263.55 690.86 263.06 C 697.46 263.37 703.23 267.15 708.96 270.07 C 715.37 274.37 722.69 277.39 730.38 278.34 C 726.40 271.94 719.30 268.79 713.22 264.82 C 709.14 262.11 704.70 259.74 701.31 256.15 C 701.45 255.62 701.72 254.57 701.85 254.04 C 707.26 254.34 711.67 258.21 716.28 260.70 C 720.90 264.01 726.53 265.30 732.11 265.68 C 723.79 259.00 714.77 253.22 706.58 246.36 C 705.55 245.66 704.40 244.37 703.02 244.97 C 698.54 246.39 695.25 250.32 690.59 251.36 C 686.85 252.24 682.50 251.78 679.50 254.59 C 673.59 260.08 670.77 267.91 666.05 274.27 C 662.31 274.58 658.58 273.91 654.88 273.58 C 642.85 272.07 630.86 270.21 618.96 267.94 C 614.48 267.11 611.29 263.58 607.31 261.65 C 599.48 257.38 590.69 255.55 582.30 252.78 C 579.97 252.67 581.12 249.58 582.93 249.68 C 590.07 250.10 596.97 252.36 603.71 254.66 C 595.78 247.29 585.49 242.51 574.65 241.79 C 569.23 253.99 560.32 264.11 553.24 275.32 M 821.01 373.98 C 813.79 376.82 805.56 378.17 798.19 375.05 C 801.57 388.70 807.03 401.77 813.86 414.06 C 818.62 423.20 824.75 431.56 829.09 440.94 C 831.10 445.39 834.04 449.30 837.45 452.77 C 840.38 457.47 839.81 463.54 842.72 468.29 C 844.64 471.31 847.50 473.64 850.64 475.31 C 858.74 479.72 867.44 482.95 875.36 487.71 C 877.23 488.80 878.56 490.62 879.40 492.60 C 882.37 499.50 883.44 507.19 887.50 513.61 C 888.90 515.90 891.24 517.35 893.49 518.72 C 895.44 515.00 894.40 510.76 893.54 506.90 C 892.25 501.98 891.01 497.04 889.59 492.16 C 887.98 487.77 882.37 485.26 882.60 480.23 C 887.67 483.48 890.85 488.79 895.05 492.98 C 899.76 497.69 903.53 503.84 909.93 506.46 C 909.79 501.75 907.82 497.40 905.52 493.40 C 902.08 486.09 893.07 483.72 889.43 476.53 C 895.73 478.05 900.21 483.11 905.41 486.65 C 910.39 490.00 914.91 494.53 920.94 495.89 C 920.53 494.15 920.07 492.42 919.11 490.92 C 915.31 484.70 910.62 479.11 906.34 473.24 C 905.41 475.93 904.31 481.97 900.25 479.78 C 893.90 474.63 888.66 468.22 883.16 462.20 C 884.86 462.38 886.55 462.88 887.89 464.01 C 892.87 467.87 896.94 472.74 901.84 476.70 C 904.16 469.57 900.93 462.11 896.30 456.70 C 892.20 451.69 885.94 449.39 880.20 446.85 C 872.69 444.06 865.15 441.08 858.49 436.56 C 856.05 434.74 853.23 432.76 852.57 429.59 C 851.95 426.38 852.40 423.09 852.83 419.90 C 854.28 410.64 856.41 401.42 856.41 392.01 C 856.37 380.26 855.45 368.54 855.12 356.79 C 844.09 363.17 832.91 369.35 821.01 373.98 M 551.75 428.79 C 535.64 431.86 521.62 441.11 508.44 450.41 C 501.82 454.85 496.84 461.43 493.83 468.76 C 492.18 472.98 493.14 477.70 495.69 481.34 C 498.85 485.90 497.89 491.66 498.56 496.86 C 499.43 504.08 500.33 511.57 504.01 517.99 C 506.37 522.52 510.41 526.10 512.03 531.03 C 512.21 534.38 510.97 537.63 511.14 540.99 C 511.10 545.01 512.53 549.01 511.87 553.03 C 510.71 556.54 508.46 559.56 507.07 562.98 C 502.37 574.20 495.62 584.53 487.38 593.47 C 480.11 601.88 473.22 610.61 466.53 619.48 C 459.60 627.93 452.80 637.67 452.59 649.03 C 451.92 656.27 455.04 663.04 457.70 669.58 C 460.36 662.97 463.04 656.36 465.88 649.83 C 468.58 643.82 471.46 637.71 476.17 632.97 C 481.56 633.41 486.96 634.52 491.75 637.15 C 502.85 642.86 512.31 651.18 521.39 659.63 C 532.07 669.73 542.36 680.31 551.31 691.99 C 558.01 668.71 563.86 644.68 576.86 623.92 C 584.89 611.15 594.07 597.88 608.16 591.29 C 608.39 589.86 608.68 588.45 608.80 587.02 C 602.61 583.14 596.13 579.70 589.70 576.23 C 577.74 570.27 565.55 564.12 552.15 562.29 C 547.36 561.34 542.27 562.08 537.69 560.18 C 539.54 557.21 543.10 555.88 545.08 552.99 C 549.44 546.82 552.42 539.82 556.30 533.35 C 560.35 526.78 564.25 520.10 568.81 513.87 C 576.94 503.57 587.33 495.10 598.92 488.98 C 609.60 483.34 622.07 481.94 633.96 483.19 C 641.36 483.97 649.55 485.35 654.82 491.12 C 660.64 497.89 665.08 505.70 669.53 513.41 C 673.09 519.56 677.22 525.36 681.48 531.05 C 683.68 528.76 686.07 526.66 688.58 524.71 C 686.42 517.79 682.09 511.88 677.75 506.18 C 668.57 494.50 658.22 483.82 648.00 473.07 C 642.20 466.88 634.58 462.37 630.11 454.99 C 623.99 445.68 614.62 438.73 604.21 434.89 C 587.53 428.81 569.39 426.11 551.75 428.79 M 605.13 492.07 C 593.12 497.49 582.50 505.87 574.18 516.06 C 569.75 521.84 566.21 528.22 562.25 534.31 C 557.30 541.86 554.30 550.78 547.75 557.21 C 559.50 557.25 571.05 560.30 581.55 565.50 C 591.35 569.83 600.77 575.04 609.49 581.28 C 609.66 573.95 609.78 566.22 606.69 559.41 C 603.61 555.86 599.30 553.76 595.65 550.90 C 596.48 550.61 598.14 550.03 598.97 549.74 C 604.97 550.65 609.63 555.13 613.57 559.44 C 617.27 563.94 621.16 568.52 623.28 574.02 C 624.25 575.88 622.98 577.69 622.12 579.29 C 619.52 574.69 616.70 570.22 613.30 566.16 C 615.11 576.18 615.34 586.77 612.03 596.51 C 623.17 606.44 637.27 613.18 652.04 615.38 C 658.14 616.73 663.26 612.23 667.52 608.53 C 676.82 600.48 682.82 589.40 687.06 578.01 C 689.16 572.22 690.55 565.89 689.15 559.77 C 686.71 546.34 677.87 535.49 670.46 524.46 C 663.95 514.90 658.80 504.44 651.65 495.31 C 649.10 491.95 645.02 490.30 641.02 489.47 C 629.15 487.09 616.37 487.13 605.13 492.07 M 575.84 634.91 C 567.01 651.68 562.44 670.19 557.19 688.28 C 551.92 707.52 546.39 726.71 542.17 746.22 C 537.34 767.97 530.92 789.34 526.04 811.08 C 523.81 820.24 521.63 829.45 520.57 838.83 C 535.18 837.61 547.72 828.38 562.28 826.80 C 565.34 816.73 571.91 808.33 577.40 799.52 C 584.57 788.84 591.80 778.16 597.69 766.71 C 607.45 747.79 615.20 727.90 621.90 707.72 C 627.92 690.28 633.23 672.56 640.53 655.60 C 646.07 642.49 653.29 630.07 662.05 618.85 C 654.68 620.61 647.00 619.53 639.84 617.38 C 627.08 613.45 614.91 606.60 606.13 596.40 C 592.57 606.00 583.69 620.60 575.84 634.91 M 465.55 662.60 C 459.84 676.66 455.69 691.35 448.84 704.94 C 445.10 712.40 441.48 720.45 434.59 725.58 C 430.67 729.01 425.92 731.25 420.99 732.82 C 418.95 737.56 418.00 742.79 418.80 747.94 C 420.39 759.54 425.94 770.49 433.79 779.13 C 437.53 782.93 441.82 786.82 447.18 787.97 C 456.57 786.17 465.94 784.11 475.46 783.10 C 487.09 780.71 495.77 771.82 503.62 763.52 C 512.53 754.28 517.97 742.24 527.49 733.54 C 532.34 728.93 537.53 724.63 543.30 721.22 C 545.52 712.89 547.77 704.56 550.12 696.27 C 536.76 681.21 522.80 666.61 507.49 653.52 C 498.32 646.12 488.25 638.26 475.97 637.64 C 471.72 645.63 468.89 654.23 465.55 662.60 M 339.12 752.17 C 324.32 758.15 312.87 769.65 301.60 780.54 C 291.22 790.61 277.72 796.50 264.23 801.15 C 252.30 805.41 240.42 809.88 228.24 813.37 C 220.36 815.61 212.42 817.74 204.84 820.90 C 195.29 824.86 185.83 829.02 176.39 833.25 C 178.21 837.40 180.28 841.47 182.93 845.17 C 191.44 857.16 202.55 867.68 216.01 873.87 C 220.62 867.01 227.93 862.62 235.30 859.25 C 249.90 853.12 266.07 854.13 281.43 851.64 C 304.87 847.76 327.43 840.15 350.06 833.12 C 365.38 828.27 381.28 824.88 395.76 817.73 C 402.13 814.65 408.12 810.86 413.97 806.91 C 422.72 800.99 431.95 795.81 441.41 791.12 C 430.40 786.20 422.59 776.12 417.67 765.38 C 413.41 755.85 410.97 744.77 414.35 734.58 C 389.15 739.72 363.08 742.24 339.12 752.17 M 561.37 832.61 C 551.25 834.43 542.18 839.58 532.32 842.27 C 528.02 843.37 523.11 845.23 518.86 843.03 C 515.19 840.52 516.78 835.38 516.62 831.66 C 509.42 840.91 503.73 851.55 501.34 863.09 C 500.60 867.50 500.25 872.84 503.66 876.30 C 507.18 879.92 511.59 882.53 515.95 885.04 C 530.84 893.26 547.21 898.43 561.93 906.99 C 572.59 913.33 583.05 921.32 595.81 922.59 C 605.33 923.37 615.97 924.05 624.17 918.22 C 626.08 916.82 628.92 914.89 627.94 912.13 C 626.00 906.07 621.34 901.46 616.98 897.05 C 610.94 891.04 605.32 884.64 599.91 878.07 C 591.83 868.68 583.82 859.11 577.64 848.33 C 574.42 842.86 572.59 836.76 570.24 830.90 C 567.28 831.46 564.32 832.00 561.37 832.61 M 139.04 847.01 C 132.69 854.43 132.89 865.91 138.12 873.92 C 143.07 882.94 148.07 892.07 150.98 902.00 C 152.96 908.51 153.38 915.36 155.11 921.93 C 156.88 929.64 160.23 936.88 164.17 943.70 C 166.78 948.27 170.16 952.46 174.44 955.55 C 183.04 961.88 193.23 966.55 203.99 967.23 C 208.82 967.34 214.04 966.93 218.20 964.26 C 220.34 962.58 219.44 959.77 218.01 957.98 C 213.38 951.59 208.27 945.49 204.50 938.54 C 201.40 932.83 202.48 926.09 203.60 920.01 C 206.95 905.85 214.22 892.54 214.64 877.75 C 207.01 874.87 200.20 870.20 194.24 864.69 C 184.79 855.87 176.14 845.34 172.78 832.62 C 160.14 832.27 147.56 837.70 139.04 847.01 Z" />
		<path fill="#020202" opacity="1.00"
			d=" M 804.15 320.17 C 806.53 317.86 809.18 315.71 812.44 314.78 C 811.18 317.00 809.69 319.08 807.90 320.90 C 794.86 334.20 781.59 347.28 767.87 359.88 C 757.47 369.30 746.52 378.17 734.66 385.70 C 725.13 391.75 715.12 396.99 705.05 402.07 C 701.87 403.52 698.75 405.60 695.11 405.42 C 697.46 402.14 701.30 400.64 704.69 398.73 C 718.22 391.21 731.70 383.48 744.07 374.12 C 765.67 357.97 784.50 338.56 804.15 320.17 Z" />
		<path fill="#020202" opacity="1.00"
			d=" M 650.29 329.95 C 650.63 326.31 650.56 322.05 653.59 319.45 C 655.07 325.86 654.03 332.46 654.22 338.96 C 654.34 364.31 653.79 389.68 654.52 415.02 C 654.83 418.32 654.49 422.35 657.29 424.71 C 660.25 427.23 664.20 428.00 667.92 428.70 C 678.91 430.39 690.04 430.92 701.08 432.23 C 702.70 432.29 704.17 433.00 705.54 433.84 C 698.72 434.58 691.85 434.14 685.01 434.30 C 676.17 433.68 666.96 433.85 658.64 430.39 C 654.27 428.64 650.88 424.64 650.57 419.84 C 649.20 406.94 649.52 393.93 649.47 380.98 C 649.64 363.97 649.31 346.94 650.29 329.95 Z" />
		<path fill="#020202" opacity="1.00"
			d=" M 608.18 339.98 C 610.70 340.32 611.18 343.02 611.88 345.00 C 614.24 353.07 614.91 361.55 614.78 369.94 C 614.79 377.94 613.57 386.08 615.49 393.97 C 617.41 401.75 621.40 408.80 625.22 415.77 C 625.91 417.15 626.85 418.67 626.24 420.29 C 624.54 420.79 623.29 419.84 622.31 418.61 C 615.47 410.94 607.05 403.97 596.89 401.44 C 591.35 399.88 585.86 402.25 580.33 402.41 C 582.03 398.72 586.38 398.06 589.95 397.45 C 600.14 395.98 609.43 401.94 616.97 408.11 C 614.74 403.57 612.61 398.91 611.70 393.90 C 609.79 384.35 611.69 374.62 611.36 364.99 C 611.50 356.53 609.85 348.22 608.18 339.98 Z" />
		<path fill="#020202" opacity="1.00"
			d=" M 561.93 416.95 C 571.88 415.15 581.94 413.79 592.05 413.32 C 597.02 413.09 602.36 413.43 606.57 416.40 C 612.01 420.21 616.56 425.14 621.76 429.28 C 623.64 431.14 626.40 432.68 626.87 435.51 C 626.44 435.63 625.59 435.87 625.17 435.99 C 620.93 433.69 617.28 430.46 613.47 427.53 C 608.52 423.58 603.86 418.07 597.05 417.81 C 587.71 417.24 578.39 418.64 569.14 419.69 C 562.84 420.30 556.60 422.14 550.23 421.42 C 553.36 418.37 557.84 417.78 561.93 416.95 Z" />
		<path fill="#020202" opacity="1.00"
			d=" M 851.09 435.33 C 852.90 434.39 854.55 435.81 856.05 436.71 C 862.14 440.91 868.28 445.61 871.81 452.28 C 873.46 455.49 877.03 457.16 878.65 460.38 C 879.75 464.17 875.45 467.15 872.03 466.86 C 865.99 466.63 860.80 463.04 854.98 461.84 C 852.66 460.94 849.55 461.18 848.03 458.93 C 851.72 456.92 856.19 458.02 860.05 458.99 C 864.98 460.23 869.72 464.11 875.01 462.14 C 872.49 459.59 869.60 457.32 867.83 454.15 C 864.46 448.33 858.99 444.26 853.93 440.01 C 852.61 438.74 850.55 437.46 851.09 435.33 Z" />
	</g>
	<g id="#f0b58bff">
		<path fill="#f0b58b" opacity="1.00"
			d=" M 870.83 98.89 C 872.59 95.93 876.55 94.41 879.69 96.22 C 883.09 102.64 878.33 109.19 875.55 114.82 C 879.81 114.56 883.95 113.19 887.33 110.54 C 887.53 118.56 887.78 126.98 883.77 134.23 C 878.92 129.76 872.68 126.51 866.00 126.34 C 857.94 126.01 850.00 127.91 842.48 130.65 C 847.80 138.20 855.30 143.83 862.43 149.56 C 864.14 150.70 865.71 152.66 868.00 152.32 C 870.03 149.80 870.82 146.59 871.68 143.54 C 875.15 142.80 878.37 141.24 881.51 139.60 C 876.34 154.36 878.57 170.11 878.99 185.37 C 873.03 187.71 865.95 183.15 860.20 187.16 C 854.07 192.03 851.23 199.66 847.13 206.10 C 843.79 211.25 841.16 216.97 836.95 221.48 C 832.31 221.59 828.90 218.07 825.59 215.34 C 818.52 209.09 811.10 203.18 804.91 196.02 C 803.35 194.42 802.03 192.47 800.03 191.42 C 797.88 190.40 798.57 193.65 799.43 194.53 C 800.97 197.09 802.96 199.33 804.83 201.64 C 799.41 206.46 795.74 212.78 791.76 218.75 C 786.61 227.83 783.79 237.98 780.81 247.92 C 773.65 232.62 766.34 217.38 758.50 202.42 C 752.26 190.60 746.82 178.37 742.22 165.82 C 746.33 163.55 750.59 161.25 753.65 157.59 C 758.33 152.07 760.82 145.06 762.27 138.07 C 764.20 143.36 766.34 148.60 767.82 154.05 C 768.59 156.60 768.94 159.40 770.74 161.50 C 771.57 155.82 769.51 150.34 768.08 144.94 C 766.07 137.39 763.09 130.12 761.40 122.48 C 764.05 127.19 766.16 132.26 769.59 136.50 C 773.57 141.82 778.86 145.99 784.46 149.52 C 788.82 152.43 793.65 154.71 798.76 155.97 C 798.75 150.92 797.20 146.04 796.93 141.01 C 796.60 135.25 796.41 129.37 797.77 123.71 C 799.07 117.95 803.58 113.07 809.16 111.18 C 812.04 110.05 815.27 111.55 817.07 113.90 C 820.06 117.73 821.01 122.61 821.99 127.26 C 825.80 128.55 829.41 130.34 833.15 131.81 C 835.08 126.88 836.42 121.70 838.87 116.98 C 841.02 112.96 844.01 109.47 846.92 105.98 C 850.89 111.98 858.70 115.34 865.70 113.53 C 867.64 108.76 867.50 103.12 870.83 98.89 Z" />
		<path fill="#f0b58b" opacity="1.00"
			d=" M 553.24 275.32 C 560.32 264.11 569.23 253.99 574.65 241.79 C 585.49 242.51 595.78 247.29 603.71 254.66 C 596.97 252.36 590.07 250.10 582.93 249.68 C 581.12 249.58 579.97 252.67 582.30 252.78 C 590.69 255.55 599.48 257.38 607.31 261.65 C 611.29 263.58 614.48 267.11 618.96 267.94 C 630.86 270.21 642.85 272.07 654.88 273.58 C 658.58 273.91 662.31 274.58 666.05 274.27 C 670.77 267.91 673.59 260.08 679.50 254.59 C 682.50 251.78 686.85 252.24 690.59 251.36 C 695.25 250.32 698.54 246.39 703.02 244.97 C 704.40 244.37 705.55 245.66 706.58 246.36 C 714.77 253.22 723.79 259.00 732.11 265.68 C 726.53 265.30 720.90 264.01 716.28 260.70 C 711.67 258.21 707.26 254.34 701.85 254.04 C 701.72 254.57 701.45 255.62 701.31 256.15 C 704.70 259.74 709.14 262.11 713.22 264.82 C 719.30 268.79 726.40 271.94 730.38 278.34 C 722.69 277.39 715.37 274.37 708.96 270.07 C 703.23 267.15 697.46 263.37 690.86 263.06 C 690.71 263.55 690.43 264.54 690.28 265.03 C 697.16 271.22 706.47 273.88 713.37 280.08 C 701.14 280.89 689.56 275.77 679.18 269.85 C 678.14 268.98 675.45 267.44 675.40 270.01 C 676.50 273.61 679.60 276.19 681.89 279.08 C 687.40 285.74 694.39 291.51 697.70 299.71 C 690.43 297.66 684.07 293.31 677.98 288.99 C 676.41 287.97 673.97 285.17 672.63 287.91 C 672.69 290.74 675.21 292.50 676.93 294.44 C 673.28 297.48 668.69 298.80 663.98 298.00 C 651.36 297.33 638.78 298.83 626.25 300.18 C 612.14 301.68 598.09 303.76 583.97 305.14 C 575.26 305.81 566.36 306.13 557.79 304.18 C 554.06 303.28 549.68 301.26 548.96 297.05 C 548.22 289.61 548.83 281.62 553.24 275.32 Z" />
		<path fill="#f0b58b" opacity="1.00"
			d=" M 821.01 373.98 C 832.91 369.35 844.09 363.17 855.12 356.79 C 855.45 368.54 856.37 380.26 856.41 392.01 C 856.41 401.42 854.28 410.64 852.83 419.90 C 852.40 423.09 851.95 426.38 852.57 429.59 C 853.23 432.76 856.05 434.74 858.49 436.56 C 865.15 441.08 872.69 444.06 880.20 446.85 C 885.94 449.39 892.20 451.69 896.30 456.70 C 900.93 462.11 904.16 469.57 901.84 476.70 C 896.94 472.74 892.87 467.87 887.89 464.01 C 886.55 462.88 884.86 462.38 883.16 462.20 C 888.66 468.22 893.90 474.63 900.25 479.78 C 904.31 481.97 905.41 475.93 906.34 473.24 C 910.62 479.11 915.31 484.70 919.11 490.92 C 920.07 492.42 920.53 494.15 920.94 495.89 C 914.91 494.53 910.39 490.00 905.41 486.65 C 900.21 483.11 895.73 478.05 889.43 476.53 C 893.07 483.72 902.08 486.09 905.52 493.40 C 907.82 497.40 909.79 501.75 909.93 506.46 C 903.53 503.84 899.76 497.69 895.05 492.98 C 890.85 488.79 887.67 483.48 882.60 480.23 C 882.37 485.26 887.98 487.77 889.59 492.16 C 891.01 497.04 892.25 501.98 893.54 506.90 C 894.40 510.76 895.44 515.00 893.49 518.72 C 891.24 517.35 888.90 515.90 887.50 513.61 C 883.44 507.19 882.37 499.50 879.40 492.60 C 878.56 490.62 877.23 488.80 875.36 487.71 C 867.44 482.95 858.74 479.72 850.64 475.31 C 847.50 473.64 844.64 471.31 842.72 468.29 C 839.81 463.54 840.38 457.47 837.45 452.77 C 834.04 449.30 831.10 445.39 829.09 440.94 C 824.75 431.56 818.62 423.20 813.86 414.06 C 807.03 401.77 801.57 388.70 798.19 375.05 C 805.56 378.17 813.79 376.82 821.01 373.98 M 851.09 435.33 C 850.55 437.46 852.61 438.74 853.93 440.01 C 858.99 444.26 864.46 448.33 867.83 454.15 C 869.60 457.32 872.49 459.59 875.01 462.14 C 869.72 464.11 864.98 460.23 860.05 458.99 C 856.19 458.02 851.72 456.92 848.03 458.93 C 849.55 461.18 852.66 460.94 854.98 461.84 C 860.80 463.04 865.99 466.63 872.03 466.86 C 875.45 467.15 879.75 464.17 878.65 460.38 C 877.03 457.16 873.46 455.49 871.81 452.28 C 868.28 445.61 862.14 440.91 856.05 436.71 C 854.55 435.81 852.90 434.39 851.09 435.33 Z" />
		<path fill="#f0b58b" opacity="1.00"
			d=" M 605.13 492.07 C 616.37 487.13 629.15 487.09 641.02 489.47 C 645.02 490.30 649.10 491.95 651.65 495.31 C 658.80 504.44 663.95 514.90 670.46 524.46 C 677.87 535.49 686.71 546.34 689.15 559.77 C 690.55 565.89 689.16 572.22 687.06 578.01 C 682.82 589.40 676.82 600.48 667.52 608.53 C 663.26 612.23 658.14 616.73 652.04 615.38 C 637.27 613.18 623.17 606.44 612.03 596.51 C 615.34 586.77 615.11 576.18 613.30 566.16 C 616.70 570.22 619.52 574.69 622.12 579.29 C 622.98 577.69 624.25 575.88 623.28 574.02 C 621.16 568.52 617.27 563.94 613.57 559.44 C 609.63 555.13 604.97 550.65 598.97 549.74 C 598.14 550.03 596.48 550.61 595.65 550.90 C 599.30 553.76 603.61 555.86 606.69 559.41 C 609.78 566.22 609.66 573.95 609.49 581.28 C 600.77 575.04 591.35 569.83 581.55 565.50 C 571.05 560.30 559.50 557.25 547.75 557.21 C 554.30 550.78 557.30 541.86 562.25 534.31 C 566.21 528.22 569.75 521.84 574.18 516.06 C 582.50 505.87 593.12 497.49 605.13 492.07 Z" />
		<path fill="#f0b58b" opacity="1.00"
			d=" M 465.55 662.60 C 468.89 654.23 471.72 645.63 475.97 637.64 C 488.25 638.26 498.32 646.12 507.49 653.52 C 522.80 666.61 536.76 681.21 550.12 696.27 C 547.77 704.56 545.52 712.89 543.30 721.22 C 537.53 724.63 532.34 728.93 527.49 733.54 C 517.97 742.24 512.53 754.28 503.62 763.52 C 495.77 771.82 487.09 780.71 475.46 783.10 C 465.94 784.11 456.57 786.17 447.18 787.97 C 441.82 786.82 437.53 782.93 433.79 779.13 C 425.94 770.49 420.39 759.54 418.80 747.94 C 418.00 742.79 418.95 737.56 420.99 732.82 C 425.92 731.25 430.67 729.01 434.59 725.58 C 441.48 720.45 445.10 712.40 448.84 704.94 C 455.69 691.35 459.84 676.66 465.55 662.60 Z" />
	</g>
	<g id="#f11b27ff">
		<path fill="var(--shirt-color, grey)" opacity="1.00"
			d=" M 650.99 170.05 C 657.62 165.15 664.36 159.01 673.05 158.65 C 688.18 158.20 702.93 162.88 718.05 162.64 C 724.57 162.31 730.92 160.58 737.14 158.71 C 736.65 166.01 740.14 172.59 742.81 179.15 C 749.45 195.60 758.37 210.98 765.97 226.99 C 770.34 236.33 775.14 245.46 779.07 254.99 C 779.55 257.55 783.55 257.60 783.77 254.89 C 785.60 247.57 787.68 240.30 790.19 233.18 C 793.57 222.51 799.03 212.20 807.59 204.81 C 813.50 211.45 820.20 217.40 827.44 222.55 C 830.73 224.67 835.13 227.02 838.98 224.94 C 842.76 221.87 844.85 217.29 847.54 213.33 C 850.96 217.91 854.70 222.24 858.73 226.28 C 861.37 228.98 864.28 231.72 865.44 235.44 C 866.56 239.24 866.46 243.26 867.22 247.14 C 868.20 252.84 870.84 258.17 871.25 263.99 C 871.37 268.62 869.97 273.11 868.60 277.48 C 865.27 287.76 862.56 298.26 860.99 308.96 C 859.01 320.86 860.18 332.96 859.39 344.94 C 859.12 346.82 859.38 349.36 857.15 350.11 C 843.93 357.12 831.11 365.07 816.95 370.12 C 812.53 371.55 807.76 372.81 803.13 371.64 C 797.81 370.30 792.87 367.64 788.75 364.03 C 791.46 358.56 795.86 354.25 799.32 349.30 C 800.84 347.23 802.28 344.95 804.61 343.69 C 814.01 338.34 823.65 333.42 832.93 327.87 C 837.14 325.29 841.83 323.72 846.35 321.79 C 842.07 319.73 837.37 321.65 833.42 323.53 C 824.24 328.13 815.65 333.78 806.86 339.05 C 820.07 323.89 831.84 307.44 846.33 293.42 C 848.10 291.72 849.61 289.76 850.63 287.51 C 845.78 288.75 842.64 292.91 839.08 296.09 C 827.18 307.27 817.47 320.45 806.81 332.76 C 802.72 337.45 799.25 342.61 795.70 347.69 C 793.12 351.41 790.07 354.80 787.79 358.72 C 786.06 361.54 786.10 364.95 785.05 368.00 C 780.75 379.54 773.32 389.45 766.68 399.69 C 761.06 407.42 755.81 415.40 750.02 423.01 C 745.33 429.15 741.47 435.86 737.40 442.41 C 731.73 451.66 726.10 461.21 723.58 471.87 C 722.62 475.73 722.45 479.87 720.44 483.39 C 714.36 494.11 707.90 504.63 700.56 514.53 C 698.22 518.01 695.25 521.02 691.96 523.61 C 687.98 511.38 679.10 501.69 671.01 492.01 C 664.10 484.26 657.04 476.63 649.73 469.26 C 644.32 463.68 637.46 459.46 633.28 452.76 C 625.89 441.90 614.62 433.98 602.20 429.89 C 590.26 425.91 577.70 423.23 565.05 423.70 C 555.39 423.79 545.56 424.77 536.58 428.57 C 522.88 434.30 510.50 442.72 498.74 451.70 C 499.89 444.54 502.64 437.80 505.03 431.01 C 507.70 424.13 510.27 416.87 515.50 411.47 C 519.75 407.42 525.29 405.18 530.35 402.35 C 539.15 397.42 549.50 395.14 556.99 388.04 C 573.50 372.24 587.05 353.35 596.62 332.60 C 600.84 324.49 603.40 315.66 607.60 307.56 C 622.72 305.64 637.83 303.43 653.06 302.62 C 658.73 302.26 664.41 302.88 670.09 302.65 C 674.31 302.57 677.74 299.83 680.75 297.16 C 686.23 300.78 692.10 305.10 698.99 304.88 C 703.03 304.67 703.58 299.70 702.39 296.69 C 699.89 289.92 694.34 284.96 689.56 279.78 C 697.12 283.42 705.62 285.89 714.06 284.94 C 716.84 284.85 718.26 282.43 719.22 280.16 C 723.35 281.51 727.58 283.20 732.00 282.78 C 734.23 282.64 736.15 280.28 735.31 278.06 C 734.22 274.56 731.69 271.77 729.13 269.25 C 732.14 269.53 738.45 269.83 737.23 265.08 C 735.17 261.45 731.34 259.36 728.23 256.74 C 721.70 251.49 714.71 246.86 707.69 242.30 C 705.33 240.78 702.22 240.65 699.67 241.73 C 695.74 243.47 692.50 246.85 688.09 247.42 C 684.24 248.02 680.00 248.21 676.89 250.87 C 670.76 255.99 667.83 263.71 662.97 269.89 C 656.81 269.30 650.69 268.40 644.57 267.57 C 652.54 264.22 659.76 258.85 664.74 251.71 C 674.48 237.94 678.38 221.15 681.46 204.84 C 682.01 200.90 683.29 196.19 680.02 193.06 C 677.48 203.49 675.63 214.11 672.17 224.31 C 668.71 234.44 664.97 244.77 658.42 253.37 C 660.98 243.08 658.96 232.37 655.48 222.56 C 654.15 219.19 652.83 215.28 649.23 213.73 C 649.19 218.45 651.50 222.67 652.62 227.16 C 654.93 235.47 656.03 244.22 654.59 252.79 C 652.84 244.00 648.62 235.90 642.85 229.09 C 638.30 223.77 634.52 217.33 628.13 214.01 C 628.66 217.74 631.76 220.20 633.82 223.12 C 642.15 233.74 649.80 245.84 651.05 259.60 C 646.87 262.20 642.58 264.74 637.85 266.19 C 632.92 265.98 628.13 264.50 623.24 263.85 C 618.98 263.30 614.67 261.55 612.00 258.05 C 609.33 254.43 607.07 250.41 603.51 247.56 C 594.32 239.89 582.16 236.86 570.37 237.14 C 575.96 230.13 580.49 222.26 586.84 215.86 C 596.16 206.15 607.88 199.31 619.20 192.22 C 630.08 185.26 640.77 177.97 650.99 170.05 M 804.15 320.17 C 784.50 338.56 765.67 357.97 744.07 374.12 C 731.70 383.48 718.22 391.21 704.69 398.73 C 701.30 400.64 697.46 402.14 695.11 405.42 C 698.75 405.60 701.87 403.52 705.05 402.07 C 715.12 396.99 725.13 391.75 734.66 385.70 C 746.52 378.17 757.47 369.30 767.87 359.88 C 781.59 347.28 794.86 334.20 807.90 320.90 C 809.69 319.08 811.18 317.00 812.44 314.78 C 809.18 315.71 806.53 317.86 804.15 320.17 M 650.29 329.95 C 649.31 346.94 649.64 363.97 649.47 380.98 C 649.52 393.93 649.20 406.94 650.57 419.84 C 650.88 424.64 654.27 428.64 658.64 430.39 C 666.96 433.85 676.17 433.68 685.01 434.30 C 691.85 434.14 698.72 434.58 705.54 433.84 C 704.17 433.00 702.70 432.29 701.08 432.23 C 690.04 430.92 678.91 430.39 667.92 428.70 C 664.20 428.00 660.25 427.23 657.29 424.71 C 654.49 422.35 654.83 418.32 654.52 415.02 C 653.79 389.68 654.34 364.31 654.22 338.96 C 654.03 332.46 655.07 325.86 653.59 319.45 C 650.56 322.05 650.63 326.31 650.29 329.95 M 608.18 339.98 C 609.85 348.22 611.50 356.53 611.36 364.99 C 611.69 374.62 609.79 384.35 611.70 393.90 C 612.61 398.91 614.74 403.57 616.97 408.11 C 609.43 401.94 600.14 395.98 589.95 397.45 C 586.38 398.06 582.03 398.72 580.33 402.41 C 585.86 402.25 591.35 399.88 596.89 401.44 C 607.05 403.97 615.47 410.94 622.31 418.61 C 623.29 419.84 624.54 420.79 626.24 420.29 C 626.85 418.67 625.91 417.15 625.22 415.77 C 621.40 408.80 617.41 401.75 615.49 393.97 C 613.57 386.08 614.79 377.94 614.78 369.94 C 614.91 361.55 614.24 353.07 611.88 345.00 C 611.18 343.02 610.70 340.32 608.18 339.98 M 561.93 416.95 C 557.84 417.78 553.36 418.37 550.23 421.42 C 556.60 422.14 562.84 420.30 569.14 419.69 C 578.39 418.64 587.71 417.24 597.05 417.81 C 603.86 418.07 608.52 423.58 613.47 427.53 C 617.28 430.46 620.93 433.69 625.17 435.99 C 625.59 435.87 626.44 435.63 626.87 435.51 C 626.40 432.68 623.64 431.14 621.76 429.28 C 616.56 425.14 612.01 420.21 606.57 416.40 C 602.36 413.43 597.02 413.09 592.05 413.32 C 581.94 413.79 571.88 415.15 561.93 416.95 Z" />
		<path fill="var(--shirt-color, grey)" opacity="1.00"
			d=" M 741.03 161.37 C 739.80 160.09 741.83 157.67 743.27 158.82 C 744.58 160.10 742.44 162.49 741.03 161.37 Z" />
	</g>
	<g id="#2b3dcdff">
		<path fill="var(--pants-color, grey)" opacity="1.00"
			d=" M 551.75 428.79 C 569.39 426.11 587.53 428.81 604.21 434.89 C 614.62 438.73 623.99 445.68 630.11 454.99 C 634.58 462.37 642.20 466.88 648.00 473.07 C 658.22 483.82 668.57 494.50 677.75 506.18 C 682.09 511.88 686.42 517.79 688.58 524.71 C 686.07 526.66 683.68 528.76 681.48 531.05 C 677.22 525.36 673.09 519.56 669.53 513.41 C 665.08 505.70 660.64 497.89 654.82 491.12 C 649.55 485.35 641.36 483.97 633.96 483.19 C 622.07 481.94 609.60 483.34 598.92 488.98 C 587.33 495.10 576.94 503.57 568.81 513.87 C 564.25 520.10 560.35 526.78 556.30 533.35 C 552.42 539.82 549.44 546.82 545.08 552.99 C 543.10 555.88 539.54 557.21 537.69 560.18 C 542.27 562.08 547.36 561.34 552.15 562.29 C 565.55 564.12 577.74 570.27 589.70 576.23 C 596.13 579.70 602.61 583.14 608.80 587.02 C 608.68 588.45 608.39 589.86 608.16 591.29 C 594.07 597.88 584.89 611.15 576.86 623.92 C 563.86 644.68 558.01 668.71 551.31 691.99 C 542.36 680.31 532.07 669.73 521.39 659.63 C 512.31 651.18 502.85 642.86 491.75 637.15 C 486.96 634.52 481.56 633.41 476.17 632.97 C 471.46 637.71 468.58 643.82 465.88 649.83 C 463.04 656.36 460.36 662.97 457.70 669.58 C 455.04 663.04 451.92 656.27 452.59 649.03 C 452.80 637.67 459.60 627.93 466.53 619.48 C 473.22 610.61 480.11 601.88 487.38 593.47 C 495.62 584.53 502.37 574.20 507.07 562.98 C 508.46 559.56 510.71 556.54 511.87 553.03 C 512.53 549.01 511.10 545.01 511.14 540.99 C 510.97 537.63 512.21 534.38 512.03 531.03 C 510.41 526.10 506.37 522.52 504.01 517.99 C 500.33 511.57 499.43 504.08 498.56 496.86 C 497.89 491.66 498.85 485.90 495.69 481.34 C 493.14 477.70 492.18 472.98 493.83 468.76 C 496.84 461.43 501.82 454.85 508.44 450.41 C 521.62 441.11 535.64 431.86 551.75 428.79 Z" />
		<path fill="var(--socks-color, grey)" opacity="1.00"
			d=" M 575.84 634.91 C 583.69 620.60 592.57 606.00 606.13 596.40 C 614.91 606.60 627.08 613.45 639.84 617.38 C 647.00 619.53 654.68 620.61 662.05 618.85 C 653.29 630.07 646.07 642.49 640.53 655.60 C 633.23 672.56 627.92 690.28 621.90 707.72 C 615.20 727.90 607.45 747.79 597.69 766.71 C 591.80 778.16 584.57 788.84 577.40 799.52 C 571.91 808.33 565.34 816.73 562.28 826.80 C 547.72 828.38 535.18 837.61 520.57 838.83 C 521.63 829.45 523.81 820.24 526.04 811.08 C 530.92 789.34 537.34 767.97 542.17 746.22 C 546.39 726.71 551.92 707.52 557.19 688.28 C 562.44 670.19 567.01 651.68 575.84 634.91 Z" />
		<path fill="var(--socks-color, grey)" opacity="1.00"
			d=" M 339.12 752.17 C 363.08 742.24 389.15 739.72 414.35 734.58 C 410.97 744.77 413.41 755.85 417.67 765.38 C 422.59 776.12 430.40 786.20 441.41 791.12 C 431.95 795.81 422.72 800.99 413.97 806.91 C 408.12 810.86 402.13 814.65 395.76 817.73 C 381.28 824.88 365.38 828.27 350.06 833.12 C 327.43 840.15 304.87 847.76 281.43 851.64 C 266.07 854.13 249.90 853.12 235.30 859.25 C 227.93 862.62 220.62 867.01 216.01 873.87 C 202.55 867.68 191.44 857.16 182.93 845.17 C 180.28 841.47 178.21 837.40 176.39 833.25 C 185.83 829.02 195.29 824.86 204.84 820.90 C 212.42 817.74 220.36 815.61 228.24 813.37 C 240.42 809.88 252.30 805.41 264.23 801.15 C 277.72 796.50 291.22 790.61 301.60 780.54 C 312.87 769.65 324.32 758.15 339.12 752.17 Z" />
	</g>
	<g id="#4d4d4dff">
		<path fill="#4d4d4d" opacity="1.00"
			d=" M 561.37 832.61 C 564.32 832.00 567.28 831.46 570.24 830.90 C 572.59 836.76 574.42 842.86 577.64 848.33 C 583.82 859.11 591.83 868.68 599.91 878.07 C 605.32 884.64 610.94 891.04 616.98 897.05 C 621.34 901.46 626.00 906.07 627.94 912.13 C 628.92 914.89 626.08 916.82 624.17 918.22 C 615.97 924.05 605.33 923.37 595.81 922.59 C 583.05 921.32 572.59 913.33 561.93 906.99 C 547.21 898.43 530.84 893.26 515.95 885.04 C 511.59 882.53 507.18 879.92 503.66 876.30 C 500.25 872.84 500.60 867.50 501.34 863.09 C 503.73 851.55 509.42 840.91 516.62 831.66 C 516.78 835.38 515.19 840.52 518.86 843.03 C 523.11 845.23 528.02 843.37 532.32 842.27 C 542.18 839.58 551.25 834.43 561.37 832.61 Z" />
		<path fill="#4d4d4d" opacity="1.00"
			d=" M 139.04 847.01 C 147.56 837.70 160.14 832.27 172.78 832.62 C 176.14 845.34 184.79 855.87 194.24 864.69 C 200.20 870.20 207.01 874.87 214.64 877.75 C 214.22 892.54 206.95 905.85 203.60 920.01 C 202.48 926.09 201.40 932.83 204.50 938.54 C 208.27 945.49 213.38 951.59 218.01 957.98 C 219.44 959.77 220.34 962.58 218.20 964.26 C 214.04 966.93 208.82 967.34 203.99 967.23 C 193.23 966.55 183.04 961.88 174.44 955.55 C 170.16 952.46 166.78 948.27 164.17 943.70 C 160.23 936.88 156.88 929.64 155.11 921.93 C 153.38 915.36 152.96 908.51 150.98 902.00 C 148.07 892.07 143.07 882.94 138.12 873.92 C 132.89 865.91 132.69 854.43 139.04 847.01 Z" />
	</g>
</svg>