<?xml version="1.0" encoding="UTF-8" ?>
<!DOCTYPE svg PUBLIC "-//W3C//DTD SVG 1.1//EN" "http://www.w3.org/Graphics/SVG/1.1/DTD/svg11.dtd">
<svg width="1000pt" height="1000pt" viewBox="0 0 1000 1000" version="1.1" xmlns="http://www.w3.org/2000/svg">
<g id="#020202ff">
<path fill="#020202" opacity="1.00" d=" M 572.96 24.02 C 589.63 16.60 608.95 13.97 626.66 19.12 C 640.11 23.24 652.65 32.51 658.41 45.62 C 660.08 48.95 659.87 52.75 659.22 56.31 C 664.14 62.11 665.58 69.79 666.40 77.12 C 668.20 90.41 664.72 104.02 668.02 117.13 C 670.54 124.90 673.00 132.79 673.50 140.99 C 673.54 142.46 673.38 144.28 671.89 145.04 C 667.74 147.18 662.69 146.25 658.54 148.30 C 654.82 159.47 652.05 171.02 647.08 181.76 C 656.56 190.19 661.13 202.77 662.44 215.12 C 664.21 229.84 662.06 244.79 657.94 258.95 C 656.22 265.22 653.69 271.34 653.25 277.89 C 652.85 282.70 653.76 287.50 654.98 292.13 C 657.44 301.44 660.94 310.43 664.32 319.43 C 671.33 339.08 678.82 358.58 684.56 378.65 C 687.03 387.61 690.71 396.17 694.28 404.74 C 696.88 411.57 700.27 418.49 699.80 426.00 C 699.87 429.15 698.88 432.18 697.22 434.83 C 699.28 438.20 701.18 441.67 703.20 445.07 C 711.47 448.79 713.03 458.61 717.27 465.70 C 721.46 474.04 728.31 480.63 735.56 486.34 C 741.23 490.78 746.41 496.20 749.02 503.03 C 752.19 511.11 754.61 519.46 757.31 527.70 C 759.16 534.00 761.39 540.35 761.29 547.00 C 761.22 554.37 759.75 561.62 759.08 568.95 C 758.12 577.24 757.38 585.92 753.18 593.33 C 751.79 595.97 749.14 598.20 746.00 597.98 C 743.21 598.11 741.24 595.88 739.25 594.30 C 738.19 597.85 737.20 601.74 734.29 604.29 C 731.77 606.55 727.85 608.24 724.66 606.34 C 720.70 604.00 719.93 599.04 718.87 594.96 C 715.67 595.27 712.18 594.56 710.46 591.57 C 706.65 585.22 707.78 577.38 708.30 570.36 C 705.97 570.32 702.93 570.95 701.50 568.57 C 697.72 562.35 700.57 554.99 702.34 548.61 C 703.45 543.78 705.58 538.09 702.57 533.52 C 697.38 526.43 690.30 520.91 685.28 513.69 C 681.05 507.38 682.31 499.10 678.24 492.73 C 675.12 487.04 670.53 482.37 666.92 477.01 C 664.34 473.23 663.90 468.51 664.69 464.10 C 660.62 460.70 657.07 456.73 654.05 452.38 C 650.11 452.55 645.70 452.22 642.99 448.96 C 635.21 440.41 630.26 429.79 623.58 420.42 C 614.56 406.02 603.52 392.67 597.28 376.71 C 594.34 370.20 596.51 362.07 591.54 356.44 C 585.16 348.43 583.10 337.99 582.33 328.02 C 574.28 333.42 566.97 339.90 558.43 344.55 C 551.54 348.66 551.40 357.43 547.85 363.80 C 545.93 367.58 541.61 369.35 539.68 373.08 C 538.84 379.19 543.09 384.44 544.05 390.32 C 547.76 391.94 551.33 393.95 554.31 396.72 C 563.63 405.09 571.05 415.31 580.29 423.76 C 590.36 432.66 600.99 440.97 610.31 450.68 C 617.15 458.04 623.45 466.00 628.15 474.92 C 631.67 481.53 635.33 488.12 640.15 493.90 C 643.45 498.20 647.95 501.48 650.77 506.16 C 648.45 508.16 645.75 509.63 643.00 510.94 C 644.66 517.39 647.56 523.43 650.81 529.21 C 658.40 542.71 666.92 555.65 675.33 568.64 C 679.50 575.18 684.41 581.30 687.50 588.47 C 689.80 593.41 690.84 598.78 692.19 604.03 C 695.14 614.40 694.20 625.30 694.41 635.94 C 694.10 655.00 692.81 674.09 689.83 692.93 C 687.71 707.19 683.23 720.94 678.85 734.64 C 672.83 754.63 668.86 775.25 666.99 796.05 C 666.62 800.81 665.66 805.66 666.42 810.43 C 670.62 825.15 679.97 837.68 689.84 849.12 C 698.38 859.31 708.88 867.57 719.02 876.10 C 726.43 882.32 734.23 889.15 737.26 898.69 C 738.37 901.87 737.28 905.56 734.72 907.74 C 724.81 915.08 711.95 916.18 700.03 915.27 C 687.22 914.84 674.47 911.28 663.58 904.48 C 656.25 899.92 650.04 893.79 642.60 889.39 C 632.39 882.95 619.95 881.57 609.60 875.41 C 599.43 869.51 591.50 859.45 588.75 847.98 C 587.23 833.66 593.21 819.27 602.35 808.43 C 604.44 806.15 604.58 802.90 605.43 800.08 C 609.10 785.73 613.65 770.83 610.61 755.92 C 606.71 735.53 605.52 714.62 607.35 693.93 C 608.56 677.98 611.12 662.10 610.87 646.06 C 610.67 637.41 612.25 628.31 608.84 620.08 C 607.79 617.24 605.00 615.79 602.62 614.24 C 592.00 607.79 582.56 599.65 572.56 592.34 C 561.75 584.57 550.72 577.11 540.23 568.92 C 538.12 570.50 535.85 572.31 533.05 572.05 C 522.37 571.77 512.71 566.47 503.57 561.47 C 487.46 552.43 474.91 538.07 466.06 522.03 C 462.29 515.44 458.56 508.25 451.81 504.24 C 444.73 499.50 435.81 499.50 428.33 495.69 C 424.44 493.93 421.09 491.21 418.28 488.03 C 415.08 491.76 410.87 494.54 406.00 495.50 C 404.64 502.59 400.70 509.36 394.05 512.66 C 395.21 515.64 396.65 518.79 395.97 522.06 C 394.45 530.12 389.29 536.80 386.56 544.42 C 385.04 548.34 386.22 553.31 382.65 556.27 C 381.45 565.46 381.04 574.72 380.76 583.97 C 380.25 603.57 371.53 622.26 359.14 637.17 C 348.38 649.89 337.18 662.51 329.27 677.29 C 321.75 691.27 312.78 704.46 302.53 716.59 C 293.91 727.24 285.21 737.84 276.11 748.09 C 270.70 753.78 265.93 760.06 261.80 766.74 C 243.77 795.23 225.54 823.63 209.08 853.06 C 205.85 858.47 204.59 864.75 204.00 870.95 C 203.21 878.15 199.07 884.66 199.28 892.01 C 199.83 901.47 203.95 910.17 206.53 919.17 C 208.56 926.03 207.47 933.40 204.95 939.98 C 203.24 943.82 199.41 946.15 195.70 947.77 C 185.68 951.89 174.61 952.28 163.94 951.48 C 154.96 950.87 145.42 949.59 138.04 944.02 C 130.09 937.22 126.23 926.85 124.29 916.85 C 122.21 898.36 124.43 879.50 129.76 861.71 C 131.96 855.06 134.82 848.57 138.76 842.76 C 142.74 836.76 149.70 833.61 153.52 827.49 C 163.16 813.05 171.42 797.74 179.40 782.35 C 189.17 763.75 198.43 744.84 206.19 725.30 C 209.13 718.20 211.43 710.83 214.92 703.96 C 221.63 690.42 229.37 677.39 237.78 664.83 C 245.67 653.30 254.85 642.69 264.72 632.82 C 269.14 628.23 275.10 624.97 278.01 619.06 C 285.59 604.86 287.09 588.03 284.74 572.29 C 283.36 562.36 278.86 553.16 277.91 543.15 C 275.58 543.57 273.25 544.06 270.90 544.30 C 269.33 544.69 267.60 543.49 267.53 541.87 C 266.74 535.57 267.02 529.17 266.13 522.88 C 265.89 519.41 262.96 517.11 260.80 514.73 C 256.97 523.24 255.84 532.67 255.28 541.90 C 255.10 548.50 254.46 555.45 257.25 561.65 C 259.39 567.26 263.28 572.64 262.71 578.91 C 262.10 583.43 258.01 586.76 253.44 586.41 C 252.00 589.99 249.52 593.40 245.71 594.66 C 242.59 595.96 239.31 594.60 236.40 593.40 C 233.89 594.91 231.07 596.68 228.00 595.90 C 223.72 595.19 220.70 591.78 218.01 588.68 C 214.21 588.32 210.27 587.30 207.61 584.38 C 203.85 580.99 203.20 575.73 202.51 571.02 C 197.85 566.61 196.55 560.08 195.84 553.97 C 194.37 540.35 197.15 526.74 200.43 513.58 C 202.26 506.48 204.49 499.42 208.18 493.05 C 214.58 482.47 214.77 469.64 219.68 458.46 C 221.47 453.26 225.64 449.06 226.30 443.46 C 226.69 441.16 226.81 438.82 226.97 436.50 C 225.15 435.08 222.36 433.79 222.70 431.02 C 222.84 424.51 226.03 418.63 227.28 412.32 C 230.77 398.67 229.84 384.29 233.68 370.71 C 237.98 354.23 248.21 339.86 251.24 322.98 C 253.69 312.05 259.36 301.40 268.66 294.84 C 273.78 291.04 279.86 288.84 284.98 285.06 C 296.62 275.53 302.79 260.96 314.44 251.41 C 323.55 243.89 335.12 240.43 344.81 233.83 C 351.68 229.45 357.76 223.96 364.74 219.74 C 371.66 215.89 377.56 210.55 384.02 206.00 C 390.69 201.14 397.08 195.85 402.76 189.84 C 412.96 179.29 423.58 168.80 436.44 161.51 C 447.79 154.93 460.09 149.65 473.14 147.67 C 481.52 146.42 489.81 144.57 497.92 142.08 C 504.60 140.15 511.10 137.40 518.04 136.49 C 523.39 135.82 528.60 138.07 533.94 137.47 C 539.30 136.44 543.66 132.91 548.23 130.16 C 536.75 120.16 528.68 106.05 526.22 91.00 C 523.72 74.71 530.94 58.45 541.67 46.50 C 550.38 36.95 561.24 29.41 572.96 24.02 M 635.35 60.94 C 634.36 64.17 637.49 68.80 633.73 70.81 C 628.19 74.26 621.17 73.37 615.34 71.15 C 612.37 77.37 609.76 84.02 609.70 91.00 C 609.44 92.42 610.12 94.54 608.43 95.25 C 604.25 97.07 599.48 97.36 594.97 97.19 C 592.64 97.25 592.78 94.64 592.28 93.06 C 591.56 89.81 590.51 86.23 587.57 84.30 C 584.98 82.45 581.43 83.34 579.06 85.11 C 575.46 87.77 573.68 92.07 572.22 96.14 C 568.10 107.42 570.48 120.31 576.73 130.34 C 577.59 131.73 578.43 133.31 577.83 134.99 C 569.22 137.01 559.64 136.75 551.69 132.49 C 546.44 137.82 539.44 141.70 531.91 142.33 C 529.11 146.96 528.72 152.57 529.68 157.81 C 531.35 166.85 534.44 175.57 538.23 183.94 C 542.22 192.95 542.53 203.02 545.91 212.23 C 549.50 221.72 554.07 230.85 559.52 239.41 C 561.57 242.63 562.90 246.21 564.34 249.73 C 566.14 240.04 566.27 228.98 572.48 220.54 C 582.11 207.44 594.06 196.23 606.69 186.08 C 594.72 184.39 584.79 176.81 576.43 168.55 C 574.83 167.10 573.89 165.12 573.36 163.05 C 574.81 163.71 576.36 164.33 577.63 165.36 C 583.74 170.28 589.72 175.57 596.82 179.06 C 602.37 181.13 608.42 181.21 614.08 182.94 C 622.23 184.90 629.78 188.81 638.02 190.45 C 645.22 177.09 649.47 162.44 653.90 148.01 C 656.12 141.65 664.10 143.11 669.37 141.77 C 668.79 129.57 662.72 118.32 663.13 106.02 C 663.14 93.70 664.91 81.19 662.07 69.03 C 661.47 65.37 659.78 62.04 657.77 58.97 C 655.18 61.93 652.71 65.41 648.89 66.81 C 645.66 67.28 646.94 63.38 647.73 61.67 C 648.98 58.52 650.24 53.10 646.05 51.69 C 640.49 50.49 636.40 56.13 635.35 60.94 M 507.30 144.08 C 500.34 146.52 493.28 148.67 486.12 150.40 C 477.26 152.66 468.03 153.36 459.43 156.62 C 447.03 161.14 435.21 167.57 425.13 176.14 C 416.90 182.90 409.88 190.92 402.38 198.42 C 396.66 204.23 389.88 208.79 383.32 213.56 C 392.38 213.39 402.00 209.99 410.69 213.92 C 405.68 215.66 400.33 215.49 395.14 216.17 C 383.95 217.57 372.47 220.43 363.31 227.32 C 355.97 232.72 348.81 238.45 340.71 242.69 C 331.89 247.37 322.04 250.67 314.76 257.77 C 305.75 266.63 300.29 278.44 291.02 287.06 C 283.90 293.63 273.91 296.05 267.10 303.03 C 260.91 309.19 257.26 317.52 255.88 326.07 C 252.90 342.79 242.41 356.92 238.26 373.30 C 234.91 385.60 235.83 398.57 232.90 410.96 C 231.63 417.92 228.53 424.33 226.63 431.11 C 236.04 432.41 245.66 432.92 254.70 436.08 C 260.39 437.91 265.35 441.32 270.37 444.45 C 272.23 440.12 273.10 435.49 274.12 430.93 C 275.55 424.40 280.03 419.12 281.88 412.75 C 285.03 402.36 287.12 391.58 291.68 381.66 C 294.55 375.25 298.05 369.02 299.58 362.10 C 299.97 359.91 300.29 357.53 299.41 355.42 C 296.19 348.28 290.46 342.71 284.44 337.89 C 285.87 335.66 288.77 335.98 290.68 337.33 C 296.59 341.08 301.01 346.78 304.23 352.91 C 307.05 350.60 310.05 348.54 313.09 346.54 C 308.20 336.96 298.75 331.06 292.44 322.58 C 290.97 320.81 290.68 318.47 290.47 316.27 C 293.71 317.57 295.94 320.29 298.27 322.75 C 305.14 330.25 314.67 335.67 318.55 345.54 C 328.68 341.46 339.41 338.95 349.29 334.20 C 357.43 330.47 364.89 325.43 371.91 319.91 C 377.21 315.60 381.83 310.54 387.02 306.11 C 392.81 301.01 399.94 297.58 407.36 295.60 C 414.96 293.48 423.05 294.67 430.62 292.36 C 436.88 290.45 443.01 287.97 448.67 284.66 C 452.45 282.51 455.59 279.44 459.37 277.31 C 459.15 282.39 454.76 285.43 450.96 288.01 C 443.85 292.99 435.70 296.42 427.21 298.21 C 433.24 300.66 439.32 303.69 445.98 303.69 C 457.43 303.84 467.98 298.64 479.09 296.82 C 475.68 302.02 469.12 303.00 463.68 304.90 C 456.25 306.82 448.75 309.73 440.95 308.99 C 431.88 308.00 424.62 301.85 416.11 299.22 C 410.51 298.64 405.08 300.88 400.04 303.06 C 390.27 307.35 383.56 315.94 375.62 322.69 C 367.93 328.91 359.74 334.61 350.69 338.68 C 341.65 343.03 331.94 345.67 322.45 348.80 C 321.85 353.55 321.84 358.57 324.00 362.96 C 327.81 371.66 336.23 376.78 343.12 382.80 C 349.81 388.14 355.47 394.68 362.46 399.66 C 378.07 410.61 395.39 418.90 413.20 425.59 C 422.67 428.58 432.09 431.74 441.59 434.66 C 449.96 437.08 458.60 440.18 467.44 438.64 C 476.82 436.83 485.52 432.49 493.59 427.50 C 507.85 418.83 518.80 405.99 531.98 395.91 C 534.02 393.99 537.02 392.77 538.17 390.11 C 537.00 384.57 534.04 379.41 534.33 373.58 C 523.47 376.18 512.21 376.72 501.42 379.65 C 491.11 382.55 481.12 386.47 470.89 389.62 C 461.52 392.48 451.58 391.67 442.07 390.08 C 437.65 389.29 433.10 388.74 428.97 386.91 C 427.58 386.47 427.18 385.04 426.99 383.78 C 429.38 383.48 431.77 383.93 434.13 384.36 C 442.98 386.00 452.01 387.03 461.03 386.52 C 468.80 386.07 475.95 382.76 483.19 380.20 C 491.31 377.31 499.36 374.01 507.86 372.38 C 515.94 370.65 524.22 370.04 532.26 368.15 C 537.20 366.96 542.08 364.07 544.25 359.29 C 546.20 354.87 547.68 350.23 550.11 346.03 C 540.75 346.39 531.23 346.64 522.20 349.39 C 517.20 350.64 512.57 353.01 507.56 354.21 C 508.71 352.23 509.98 350.16 512.13 349.13 C 518.01 346.02 524.51 344.35 530.89 342.56 C 537.45 340.78 544.30 341.01 551.03 340.70 C 556.20 340.54 560.44 337.23 564.48 334.38 C 570.96 329.52 577.30 324.43 584.29 320.31 C 591.27 316.17 599.21 312.99 604.41 306.48 C 611.99 297.42 613.62 285.41 617.70 274.70 C 619.16 271.01 620.16 266.74 623.61 264.33 C 624.22 271.36 621.13 277.90 619.42 284.55 C 626.32 278.70 632.83 272.32 637.77 264.69 C 639.20 267.41 638.69 270.52 636.99 272.98 C 632.08 280.63 625.10 286.74 617.59 291.75 C 615.28 299.27 611.77 306.57 606.36 312.36 C 602.05 316.95 596.32 319.78 591.00 323.00 C 598.72 323.30 606.52 323.22 614.11 321.61 C 620.55 320.49 626.71 318.29 633.02 316.66 C 631.40 319.63 628.30 321.09 625.25 322.12 C 613.04 326.29 599.91 329.13 587.02 326.68 C 587.91 334.88 588.89 343.44 593.22 350.65 C 594.17 351.91 594.98 353.94 596.88 353.83 C 608.10 354.20 618.51 349.31 628.45 344.71 C 627.39 349.18 623.12 351.41 619.28 353.15 C 612.82 355.95 606.06 358.29 599.00 358.92 C 600.04 364.75 600.16 370.84 602.59 376.35 C 605.53 383.10 609.39 389.40 613.34 395.60 C 622.61 409.16 631.70 422.84 640.13 436.94 C 642.59 440.66 644.70 444.82 648.24 447.64 C 659.76 446.92 670.76 442.70 681.28 438.19 C 685.44 436.29 689.85 434.44 693.07 431.08 C 695.42 426.94 694.67 421.79 693.34 417.44 C 690.11 407.94 685.62 398.92 682.38 389.43 C 680.15 383.23 678.59 376.83 676.59 370.57 C 669.59 348.69 661.37 327.22 653.65 305.59 C 650.10 294.76 646.02 283.25 648.77 271.75 C 651.10 261.89 654.51 252.26 655.69 242.14 C 658.26 223.08 656.46 202.35 645.20 186.15 C 643.72 188.86 642.63 192.05 640.04 193.92 C 630.62 193.54 621.87 189.44 612.75 187.41 C 608.68 192.44 603.57 196.45 598.91 200.89 C 593.00 206.35 587.54 212.27 582.34 218.40 C 578.76 222.55 574.99 226.80 573.29 232.12 C 570.61 240.20 569.24 248.63 567.92 257.02 C 567.65 258.91 566.91 260.67 566.15 262.40 C 563.38 258.21 562.53 253.16 560.24 248.75 C 557.50 243.07 553.39 238.21 550.44 232.65 C 547.39 226.88 544.47 221.02 542.04 214.96 C 538.30 205.67 537.96 195.39 533.78 186.25 C 530.85 179.91 528.32 173.38 526.57 166.62 C 524.09 158.19 523.03 148.58 527.67 140.67 C 520.66 139.69 513.80 141.71 507.30 144.08 M 232.31 436.92 C 232.15 439.44 231.86 441.96 231.43 444.45 C 242.30 444.48 253.41 445.09 263.82 448.50 C 263.84 447.91 263.90 446.74 263.93 446.15 C 254.60 439.85 243.28 438.02 232.31 436.92 M 658.52 451.50 C 661.24 454.51 664.02 457.47 666.86 460.38 C 674.88 451.67 686.28 446.06 698.09 445.09 C 696.32 442.61 694.68 440.04 693.24 437.36 C 682.57 443.95 670.77 448.74 658.52 451.50 M 267.87 449.74 C 268.96 452.38 270.62 454.90 270.72 457.85 C 271.10 464.53 270.52 471.27 271.75 477.89 C 272.73 467.94 273.15 457.93 274.19 447.98 C 272.10 448.63 269.99 449.19 267.87 449.74 M 229.48 449.10 C 227.26 453.10 224.89 457.03 223.23 461.30 C 220.37 468.63 219.23 476.46 216.98 483.98 C 214.78 491.81 209.44 498.30 207.24 506.14 C 203.03 520.03 199.64 534.49 200.25 549.10 C 200.63 555.07 201.22 561.33 204.54 566.49 C 207.24 570.38 207.01 575.44 209.50 579.42 C 211.18 582.05 213.94 583.67 216.43 585.42 C 215.61 578.31 214.23 571.15 215.02 563.98 C 215.13 562.08 216.07 560.25 217.98 559.65 C 220.87 568.16 218.80 578.13 224.15 585.85 C 226.01 588.87 229.51 589.98 232.82 590.54 C 230.89 584.00 226.38 576.98 229.43 570.09 C 232.02 575.48 232.86 581.68 236.39 586.61 C 238.05 588.99 240.93 591.06 243.99 590.32 C 246.43 589.55 247.78 587.16 249.39 585.34 C 243.35 578.25 240.06 568.58 240.96 559.29 C 246.43 566.46 245.63 577.66 253.94 582.76 C 257.25 582.34 258.79 578.45 257.63 575.57 C 255.32 568.38 250.67 561.89 250.30 554.14 C 249.65 542.57 250.64 530.84 253.66 519.64 C 254.70 516.42 255.79 512.56 259.08 510.97 C 261.79 509.90 264.30 512.08 266.08 513.88 C 272.04 520.24 277.11 527.54 284.06 532.91 C 286.67 534.80 289.65 536.58 292.97 536.63 C 294.65 536.70 296.64 535.75 296.81 533.90 C 297.31 529.78 295.58 525.81 293.87 522.17 C 288.91 512.50 282.63 503.59 276.21 494.86 C 271.90 488.83 267.60 482.37 266.54 474.87 C 265.66 468.17 265.83 461.40 265.44 454.67 C 254.20 449.59 241.56 449.71 229.48 449.10 M 673.43 460.45 C 671.21 462.41 668.79 464.83 668.66 467.97 C 669.15 471.57 671.31 474.65 673.50 477.46 C 677.39 482.36 681.33 487.33 684.02 493.02 C 686.85 499.03 686.21 506.27 690.13 511.84 C 693.34 516.26 697.35 520.01 700.93 524.13 C 704.45 528.08 708.75 532.24 708.86 537.92 C 709.80 547.75 702.57 556.59 705.01 566.46 C 709.87 563.74 712.72 558.86 716.33 554.84 C 717.67 561.21 711.63 565.81 712.11 572.00 C 712.24 577.96 712.74 584.14 715.71 589.46 C 718.16 583.11 720.02 576.53 721.40 569.87 C 722.10 566.29 723.22 562.79 725.13 559.66 C 725.76 562.02 726.49 564.44 726.26 566.93 C 725.62 574.46 723.83 581.83 722.59 589.28 C 722.38 593.85 724.18 598.55 727.25 601.94 C 730.74 601.46 732.45 598.04 733.24 594.98 C 735.45 587.10 736.31 578.91 737.40 570.82 C 737.99 566.82 738.01 562.55 740.08 558.96 C 740.54 559.08 741.47 559.33 741.93 559.45 C 742.62 562.24 742.36 565.15 742.26 568.00 C 741.87 574.21 741.82 580.47 740.72 586.62 C 742.38 588.72 744.15 590.74 746.02 592.68 C 750.67 585.30 751.36 576.44 752.59 568.02 C 753.41 561.64 754.72 555.33 755.32 548.92 C 756.13 541.00 753.24 533.40 751.08 525.93 C 748.64 518.44 746.72 510.75 743.49 503.55 C 741.13 498.20 736.56 494.37 732.11 490.81 C 726.92 486.75 722.02 482.26 718.02 477.01 C 711.71 468.89 708.96 458.77 703.67 450.05 C 692.62 449.07 681.92 453.68 673.43 460.45 M 613.32 514.55 C 603.32 517.91 596.39 526.41 587.17 531.19 C 580.02 534.94 572.41 538.00 566.11 543.18 C 557.74 549.95 549.57 557.08 542.67 565.38 C 550.70 570.96 558.65 576.66 566.66 582.27 C 579.93 591.23 592.07 601.79 605.66 610.30 C 614.95 616.43 625.43 622.43 629.99 633.17 C 630.84 634.57 630.85 638.77 628.47 636.43 C 624.06 631.36 620.00 625.84 614.42 621.92 C 614.97 624.69 615.47 627.50 615.84 630.32 C 630.81 642.10 650.51 648.33 669.49 645.27 C 676.97 643.92 684.93 640.58 688.93 633.77 C 689.48 629.92 689.06 626.00 689.26 622.13 C 687.58 625.60 685.96 630.02 681.54 630.58 C 683.00 626.30 685.42 622.36 686.25 617.87 C 688.84 606.11 685.95 593.63 679.46 583.61 C 669.01 568.21 659.14 552.42 649.64 536.42 C 645.23 528.68 640.57 520.75 639.18 511.82 C 630.59 513.08 621.64 511.57 613.32 514.55 M 302.44 534.54 C 301.30 537.42 299.91 540.66 296.74 541.78 C 292.20 544.04 287.41 540.98 282.71 541.69 C 284.40 553.05 289.87 563.49 290.86 574.99 C 292.78 592.10 290.65 610.89 280.06 625.02 C 282.36 635.72 288.56 645.16 296.07 652.95 C 304.24 661.59 314.81 668.46 326.77 670.14 C 334.80 656.19 345.32 643.90 355.26 631.31 C 365.87 617.87 373.18 601.27 373.56 583.98 C 373.90 573.58 374.79 563.11 377.80 553.10 C 355.79 538.84 328.82 529.31 302.44 534.54 M 652.51 819.44 C 648.54 824.86 647.50 831.93 643.09 837.07 C 639.83 840.77 634.35 840.01 629.97 839.66 C 620.92 838.26 611.28 835.01 605.65 827.33 C 603.21 824.29 603.03 820.28 602.56 816.60 C 597.05 826.57 591.71 837.93 593.64 849.59 C 597.04 858.51 604.16 865.83 612.33 870.61 C 621.78 875.95 632.75 877.67 642.30 882.80 C 649.78 886.64 656.10 892.25 662.86 897.17 C 672.75 904.43 684.83 908.40 697.04 909.12 C 706.89 909.67 717.29 910.51 726.62 906.58 C 728.63 905.56 731.62 904.60 731.88 902.00 C 731.56 897.70 728.86 894.02 726.20 890.82 C 718.29 882.33 708.72 875.62 700.12 867.88 C 689.78 859.18 681.02 848.76 673.28 837.72 C 667.82 829.89 663.91 821.08 661.49 811.86 C 658.27 814.08 654.88 816.25 652.51 819.44 M 170.04 844.01 C 164.85 848.82 160.44 854.92 153.71 857.70 C 151.41 858.90 148.29 857.66 147.79 855.03 C 147.13 850.36 148.33 845.69 148.55 841.03 C 142.32 846.94 138.56 854.86 135.94 862.92 C 131.88 876.55 129.77 890.75 129.81 904.98 C 129.49 915.87 131.98 927.01 137.79 936.31 C 141.56 942.54 149.10 944.76 155.89 945.75 C 166.77 946.98 178.02 947.55 188.66 944.49 C 193.50 943.07 198.98 941.16 201.49 936.42 C 204.02 929.27 202.28 921.42 199.47 914.62 C 195.84 904.96 191.70 894.50 194.37 884.06 C 196.42 876.10 199.90 868.05 198.29 859.67 C 196.27 849.83 187.41 840.81 176.95 841.05 C 174.30 840.89 171.89 842.22 170.04 844.01 Z" />
<path fill="#020202" opacity="1.00" d=" M 644.42 83.71 C 649.41 81.98 655.19 82.53 659.66 85.38 C 661.07 86.47 662.86 87.98 662.61 89.95 C 660.14 94.36 655.99 97.53 651.75 100.11 C 651.57 103.23 652.47 106.87 650.46 109.56 C 649.01 110.01 647.68 109.08 646.42 108.54 C 639.31 104.85 632.14 101.26 624.71 98.28 C 622.57 97.41 620.45 96.43 618.68 94.93 C 621.29 92.79 624.56 91.77 627.61 90.45 C 633.22 88.22 638.68 85.60 644.42 83.71 Z" />
<path fill="#020202" opacity="1.00" d=" M 502.59 198.93 C 505.07 200.47 507.74 202.32 508.56 205.32 C 510.22 210.82 507.77 216.46 505.37 221.35 C 501.86 227.61 499.00 234.20 495.47 240.44 C 492.02 246.52 489.79 253.63 484.15 258.16 C 481.40 260.63 477.85 262.06 474.14 262.10 C 476.55 259.11 480.14 257.45 482.67 254.59 C 487.10 249.82 488.77 243.36 491.69 237.70 C 494.64 231.94 496.92 225.85 500.12 220.20 C 502.10 216.40 504.22 212.39 504.28 208.00 C 503.98 204.93 502.94 201.99 502.59 198.93 Z" />
<path fill="#020202" opacity="1.00" d=" M 617.11 204.02 C 617.32 200.63 621.31 202.90 622.63 204.36 C 631.64 212.94 633.18 226.14 634.52 237.86 C 634.70 242.17 636.35 247.19 633.37 250.93 C 630.82 238.44 629.45 225.50 624.24 213.73 C 622.67 209.93 619.31 207.38 617.11 204.02 Z" />
</g>
<g id="#f0b58bff">
<path fill="#f0b58b" opacity="1.00" d=" M 635.35 60.94 C 636.40 56.13 640.49 50.49 646.05 51.69 C 650.24 53.10 648.98 58.52 647.73 61.67 C 646.94 63.38 645.66 67.28 648.89 66.81 C 652.71 65.41 655.18 61.93 657.77 58.97 C 659.78 62.04 661.47 65.37 662.07 69.03 C 664.91 81.19 663.14 93.70 663.13 106.02 C 662.72 118.32 668.79 129.57 669.37 141.77 C 664.10 143.11 656.12 141.65 653.90 148.01 C 649.47 162.44 645.22 177.09 638.02 190.45 C 629.78 188.81 622.23 184.90 614.08 182.94 C 608.42 181.21 602.37 181.13 596.82 179.06 C 589.72 175.57 583.74 170.28 577.63 165.36 C 576.36 164.33 574.81 163.71 573.36 163.05 C 573.89 165.12 574.83 167.10 576.43 168.55 C 584.79 176.81 594.72 184.39 606.69 186.08 C 594.06 196.23 582.11 207.44 572.48 220.54 C 566.27 228.98 566.14 240.04 564.34 249.73 C 562.90 246.21 561.57 242.63 559.52 239.41 C 554.07 230.85 549.50 221.72 545.91 212.23 C 542.53 203.02 542.22 192.95 538.23 183.94 C 534.44 175.57 531.35 166.85 529.68 157.81 C 528.72 152.57 529.11 146.96 531.91 142.33 C 539.44 141.70 546.44 137.82 551.69 132.49 C 559.64 136.75 569.22 137.01 577.83 134.99 C 578.43 133.31 577.59 131.73 576.73 130.34 C 570.48 120.31 568.10 107.42 572.22 96.14 C 573.68 92.07 575.46 87.77 579.06 85.11 C 581.43 83.34 584.98 82.45 587.57 84.30 C 590.51 86.23 591.56 89.81 592.28 93.06 C 592.78 94.64 592.64 97.25 594.97 97.19 C 599.48 97.36 604.25 97.07 608.43 95.25 C 610.12 94.54 609.44 92.42 609.70 91.00 C 609.76 84.02 612.37 77.37 615.34 71.15 C 621.17 73.37 628.19 74.26 633.73 70.81 C 637.49 68.80 634.36 64.17 635.35 60.94 M 644.42 83.71 C 638.68 85.60 633.22 88.22 627.61 90.45 C 624.56 91.77 621.29 92.79 618.68 94.93 C 620.45 96.43 622.57 97.41 624.71 98.28 C 632.14 101.26 639.31 104.85 646.42 108.54 C 647.68 109.08 649.01 110.01 650.46 109.56 C 652.47 106.87 651.57 103.23 651.75 100.11 C 655.99 97.53 660.14 94.36 662.61 89.95 C 662.86 87.98 661.07 86.47 659.66 85.38 C 655.19 82.53 649.41 81.98 644.42 83.71 Z" />
<path fill="#f0b58b" opacity="1.00" d=" M 232.31 436.92 C 243.28 438.02 254.60 439.85 263.93 446.15 C 263.90 446.74 263.84 447.91 263.82 448.50 C 253.41 445.09 242.30 444.48 231.43 444.45 C 231.86 441.96 232.15 439.44 232.31 436.92 Z" />
<path fill="#f0b58b" opacity="1.00" d=" M 658.52 451.50 C 670.77 448.74 682.57 443.95 693.24 437.36 C 694.68 440.04 696.32 442.61 698.09 445.09 C 686.28 446.06 674.88 451.67 666.86 460.38 C 664.02 457.47 661.24 454.51 658.52 451.50 Z" />
<path fill="#f0b58b" opacity="1.00" d=" M 613.32 514.55 C 621.64 511.57 630.59 513.08 639.18 511.82 C 640.57 520.75 645.23 528.68 649.64 536.42 C 659.14 552.42 669.01 568.21 679.46 583.61 C 685.95 593.63 688.84 606.11 686.25 617.87 C 685.42 622.36 683.00 626.30 681.54 630.58 C 685.96 630.02 687.58 625.60 689.26 622.13 C 689.06 626.00 689.48 629.92 688.93 633.77 C 684.93 640.58 676.97 643.92 669.49 645.27 C 650.51 648.33 630.81 642.10 615.84 630.32 C 615.47 627.50 614.97 624.69 614.42 621.92 C 620.00 625.84 624.06 631.36 628.47 636.43 C 630.85 638.77 630.84 634.57 629.99 633.17 C 625.43 622.43 614.95 616.43 605.66 610.30 C 592.07 601.79 579.93 591.23 566.66 582.27 C 558.65 576.66 550.70 570.96 542.67 565.38 C 549.57 557.08 557.74 549.95 566.11 543.18 C 572.41 538.00 580.02 534.94 587.17 531.19 C 596.39 526.41 603.32 517.91 613.32 514.55 Z" />
<path fill="#f0b58b" opacity="1.00" d=" M 302.44 534.54 C 328.82 529.31 355.79 538.84 377.80 553.10 C 374.79 563.11 373.90 573.58 373.56 583.98 C 373.18 601.27 365.87 617.87 355.26 631.31 C 345.32 643.90 334.80 656.19 326.77 670.14 C 314.81 668.46 304.24 661.59 296.07 652.95 C 288.56 645.16 282.36 635.72 280.06 625.02 C 290.65 610.89 292.78 592.10 290.86 574.99 C 289.87 563.49 284.40 553.05 282.71 541.69 C 287.41 540.98 292.20 544.04 296.74 541.78 C 299.91 540.66 301.30 537.42 302.44 534.54 Z" />
</g>
<g id="#f35e11ff">
<path fill="var(--shirt-color, grey)" opacity="1.00" d=" M 507.30 144.08 C 513.80 141.71 520.66 139.69 527.67 140.67 C 523.03 148.58 524.09 158.19 526.57 166.62 C 528.32 173.38 530.85 179.91 533.78 186.25 C 537.96 195.39 538.30 205.67 542.04 214.96 C 544.47 221.02 547.39 226.88 550.44 232.65 C 553.39 238.21 557.50 243.07 560.24 248.75 C 562.53 253.16 563.38 258.21 566.15 262.40 C 566.91 260.67 567.65 258.91 567.92 257.02 C 569.24 248.63 570.61 240.20 573.29 232.12 C 574.99 226.80 578.76 222.55 582.34 218.40 C 587.54 212.27 593.00 206.35 598.91 200.89 C 603.57 196.45 608.68 192.44 612.75 187.41 C 621.87 189.44 630.62 193.54 640.04 193.92 C 642.63 192.05 643.72 188.86 645.20 186.15 C 656.46 202.35 658.26 223.08 655.69 242.14 C 654.51 252.26 651.10 261.89 648.77 271.75 C 646.02 283.25 650.10 294.76 653.65 305.59 C 661.37 327.22 669.59 348.69 676.59 370.57 C 678.59 376.83 680.15 383.23 682.38 389.43 C 685.62 398.92 690.11 407.94 693.34 417.44 C 694.67 421.79 695.42 426.94 693.07 431.08 C 689.85 434.44 685.44 436.29 681.28 438.19 C 670.76 442.70 659.76 446.92 648.24 447.64 C 644.70 444.82 642.59 440.66 640.13 436.94 C 631.70 422.84 622.61 409.16 613.34 395.60 C 609.39 389.40 605.53 383.10 602.59 376.35 C 600.16 370.84 600.04 364.75 599.00 358.92 C 606.06 358.29 612.82 355.95 619.28 353.15 C 623.12 351.41 627.39 349.18 628.45 344.71 C 618.51 349.31 608.10 354.20 596.88 353.83 C 594.98 353.94 594.17 351.91 593.22 350.65 C 588.89 343.44 587.91 334.88 587.02 326.68 C 599.91 329.13 613.04 326.29 625.25 322.12 C 628.30 321.09 631.40 319.63 633.02 316.66 C 626.71 318.29 620.55 320.49 614.11 321.61 C 606.52 323.22 598.72 323.30 591.00 323.00 C 596.32 319.78 602.05 316.95 606.36 312.36 C 611.77 306.57 615.28 299.27 617.59 291.75 C 625.10 286.74 632.08 280.63 636.99 272.98 C 638.69 270.52 639.20 267.41 637.77 264.69 C 632.83 272.32 626.32 278.70 619.42 284.55 C 621.13 277.90 624.22 271.36 623.61 264.33 C 620.16 266.74 619.16 271.01 617.70 274.70 C 613.62 285.41 611.99 297.42 604.41 306.48 C 599.21 312.99 591.27 316.17 584.29 320.31 C 577.30 324.43 570.96 329.52 564.48 334.38 C 560.44 337.23 556.20 340.54 551.03 340.70 C 544.30 341.01 537.45 340.78 530.89 342.56 C 524.51 344.35 518.01 346.02 512.13 349.13 C 509.98 350.16 508.71 352.23 507.56 354.21 C 512.57 353.01 517.20 350.64 522.20 349.39 C 531.23 346.64 540.75 346.39 550.11 346.03 C 547.68 350.23 546.20 354.87 544.25 359.29 C 542.08 364.07 537.20 366.96 532.26 368.15 C 524.22 370.04 515.94 370.65 507.86 372.38 C 499.36 374.01 491.31 377.31 483.19 380.20 C 475.95 382.76 468.80 386.07 461.03 386.52 C 452.01 387.03 442.98 386.00 434.13 384.36 C 431.77 383.93 429.38 383.48 426.99 383.78 C 427.18 385.04 427.58 386.47 428.97 386.91 C 433.10 388.74 437.65 389.29 442.07 390.08 C 451.58 391.67 461.52 392.48 470.89 389.62 C 481.12 386.47 491.11 382.55 501.42 379.65 C 512.21 376.72 523.47 376.18 534.33 373.58 C 534.04 379.41 537.00 384.57 538.17 390.11 C 537.02 392.77 534.02 393.99 531.98 395.91 C 518.80 405.99 507.85 418.83 493.59 427.50 C 485.52 432.49 476.82 436.83 467.44 438.64 C 458.60 440.18 449.96 437.08 441.59 434.66 C 432.09 431.74 422.67 428.58 413.20 425.59 C 395.39 418.90 378.07 410.61 362.46 399.66 C 355.47 394.68 349.81 388.14 343.12 382.80 C 336.23 376.78 327.81 371.66 324.00 362.96 C 321.84 358.57 321.85 353.55 322.45 348.80 C 331.94 345.67 341.65 343.03 350.69 338.68 C 359.74 334.61 367.93 328.91 375.62 322.69 C 383.56 315.94 390.27 307.35 400.04 303.06 C 405.08 300.88 410.51 298.64 416.11 299.22 C 424.62 301.85 431.88 308.00 440.95 308.99 C 448.75 309.73 456.25 306.82 463.68 304.90 C 469.12 303.00 475.68 302.02 479.09 296.82 C 467.98 298.64 457.43 303.84 445.98 303.69 C 439.32 303.69 433.24 300.66 427.21 298.21 C 435.70 296.42 443.85 292.99 450.96 288.01 C 454.76 285.43 459.15 282.39 459.37 277.31 C 455.59 279.44 452.45 282.51 448.67 284.66 C 443.01 287.97 436.88 290.45 430.62 292.36 C 423.05 294.67 414.96 293.48 407.36 295.60 C 399.94 297.58 392.81 301.01 387.02 306.11 C 381.83 310.54 377.21 315.60 371.91 319.91 C 364.89 325.43 357.43 330.47 349.29 334.20 C 339.41 338.95 328.68 341.46 318.55 345.54 C 314.67 335.67 305.14 330.25 298.27 322.75 C 295.94 320.29 293.71 317.57 290.47 316.27 C 290.68 318.47 290.97 320.81 292.44 322.58 C 298.75 331.06 308.20 336.96 313.09 346.54 C 310.05 348.54 307.05 350.60 304.23 352.91 C 301.01 346.78 296.59 341.08 290.68 337.33 C 288.77 335.98 285.87 335.66 284.44 337.89 C 290.46 342.71 296.19 348.28 299.41 355.42 C 300.29 357.53 299.97 359.91 299.58 362.10 C 298.05 369.02 294.55 375.25 291.68 381.66 C 287.12 391.58 285.03 402.36 281.88 412.75 C 280.03 419.12 275.55 424.40 274.12 430.93 C 273.10 435.49 272.23 440.12 270.37 444.45 C 265.35 441.32 260.39 437.91 254.70 436.08 C 245.66 432.92 236.04 432.41 226.63 431.11 C 228.53 424.33 231.63 417.92 232.90 410.96 C 235.83 398.57 234.91 385.60 238.26 373.30 C 242.41 356.92 252.90 342.79 255.88 326.07 C 257.26 317.52 260.91 309.19 267.10 303.03 C 273.91 296.05 283.90 293.63 291.02 287.06 C 300.29 278.44 305.75 266.63 314.76 257.77 C 322.04 250.67 331.89 247.37 340.71 242.69 C 348.81 238.45 355.97 232.72 363.31 227.32 C 372.47 220.43 383.95 217.57 395.14 216.17 C 400.33 215.49 405.68 215.66 410.69 213.92 C 402.00 209.99 392.38 213.39 383.32 213.56 C 389.88 208.79 396.66 204.23 402.38 198.42 C 409.88 190.92 416.90 182.90 425.13 176.14 C 435.21 167.57 447.03 161.14 459.43 156.62 C 468.03 153.36 477.26 152.66 486.12 150.40 C 493.28 148.67 500.34 146.52 507.30 144.08 M 502.59 198.93 C 502.94 201.99 503.98 204.93 504.28 208.00 C 504.22 212.39 502.10 216.40 500.12 220.20 C 496.92 225.85 494.64 231.94 491.69 237.70 C 488.77 243.36 487.10 249.82 482.67 254.59 C 480.14 257.45 476.55 259.11 474.14 262.10 C 477.85 262.06 481.40 260.63 484.15 258.16 C 489.79 253.63 492.02 246.52 495.47 240.44 C 499.00 234.20 501.86 227.61 505.37 221.35 C 507.77 216.46 510.22 210.82 508.56 205.32 C 507.74 202.32 505.07 200.47 502.59 198.93 M 617.11 204.02 C 619.31 207.38 622.67 209.93 624.24 213.73 C 629.45 225.50 630.82 238.44 633.37 250.93 C 636.35 247.19 634.70 242.17 634.52 237.86 C 633.18 226.14 631.64 212.94 622.63 204.36 C 621.31 202.90 617.32 200.63 617.11 204.02 Z" />
</g>
<g id="#4d4d4dff">
<path fill="#4d4d4d" opacity="1.00" d=" M 229.48 449.10 C 241.56 449.71 254.20 449.59 265.44 454.67 C 265.83 461.40 265.66 468.17 266.54 474.87 C 267.60 482.37 271.90 488.83 276.21 494.86 C 282.63 503.59 288.91 512.50 293.87 522.17 C 295.58 525.81 297.31 529.78 296.81 533.90 C 296.64 535.75 294.65 536.70 292.97 536.63 C 289.65 536.58 286.67 534.80 284.06 532.91 C 277.11 527.54 272.04 520.24 266.08 513.88 C 264.30 512.08 261.79 509.90 259.08 510.97 C 255.79 512.56 254.70 516.42 253.66 519.64 C 250.64 530.84 249.65 542.57 250.30 554.14 C 250.67 561.89 255.32 568.38 257.63 575.57 C 258.79 578.45 257.25 582.34 253.94 582.76 C 245.63 577.66 246.43 566.46 240.96 559.29 C 240.06 568.58 243.35 578.25 249.39 585.34 C 247.78 587.16 246.43 589.55 243.99 590.32 C 240.93 591.06 238.05 588.99 236.39 586.61 C 232.86 581.68 232.02 575.48 229.43 570.09 C 226.38 576.98 230.89 584.00 232.82 590.54 C 229.51 589.98 226.01 588.87 224.15 585.85 C 218.80 578.13 220.87 568.16 217.98 559.65 C 216.07 560.25 215.13 562.08 215.02 563.98 C 214.23 571.15 215.61 578.31 216.43 585.42 C 213.94 583.67 211.18 582.05 209.50 579.42 C 207.01 575.44 207.24 570.38 204.54 566.49 C 201.22 561.33 200.63 555.07 200.25 549.10 C 199.64 534.49 203.03 520.03 207.24 506.14 C 209.44 498.30 214.78 491.81 216.98 483.98 C 219.23 476.46 220.37 468.63 223.23 461.30 C 224.89 457.03 227.26 453.10 229.48 449.10 Z" />
<path fill="#4d4d4d" opacity="1.00" d=" M 673.43 460.45 C 681.92 453.68 692.62 449.07 703.67 450.05 C 708.96 458.77 711.71 468.89 718.02 477.01 C 722.02 482.26 726.92 486.75 732.11 490.81 C 736.56 494.37 741.13 498.20 743.49 503.55 C 746.72 510.75 748.64 518.44 751.08 525.93 C 753.24 533.40 756.13 541.00 755.32 548.92 C 754.72 555.33 753.41 561.64 752.59 568.02 C 751.36 576.44 750.67 585.30 746.02 592.68 C 744.15 590.74 742.38 588.72 740.72 586.62 C 741.82 580.47 741.87 574.21 742.26 568.00 C 742.36 565.15 742.62 562.24 741.93 559.45 C 741.47 559.33 740.54 559.08 740.08 558.96 C 738.01 562.55 737.99 566.82 737.40 570.82 C 736.31 578.91 735.45 587.10 733.24 594.98 C 732.45 598.04 730.74 601.46 727.25 601.94 C 724.18 598.55 722.38 593.85 722.59 589.28 C 723.83 581.83 725.62 574.46 726.26 566.93 C 726.49 564.44 725.76 562.02 725.13 559.66 C 723.22 562.79 722.10 566.29 721.40 569.87 C 720.02 576.53 718.16 583.11 715.71 589.46 C 712.74 584.14 712.24 577.96 712.11 572.00 C 711.63 565.81 717.67 561.21 716.33 554.84 C 712.72 558.86 709.87 563.74 705.01 566.46 C 702.57 556.59 709.80 547.75 708.86 537.92 C 708.75 532.24 704.45 528.08 700.93 524.13 C 697.35 520.01 693.34 516.26 690.13 511.84 C 686.21 506.27 686.85 499.03 684.02 493.02 C 681.33 487.33 677.39 482.36 673.50 477.46 C 671.31 474.65 669.15 471.57 668.66 467.97 C 668.79 464.83 671.21 462.41 673.43 460.45 Z" />
<path fill="#4d4d4d" opacity="1.00" d=" M 652.51 819.44 C 654.88 816.25 658.27 814.08 661.49 811.86 C 663.91 821.08 667.82 829.89 673.28 837.72 C 681.02 848.76 689.78 859.18 700.12 867.88 C 708.72 875.62 718.29 882.33 726.20 890.82 C 728.86 894.02 731.56 897.70 731.88 902.00 C 731.62 904.60 728.63 905.56 726.62 906.58 C 717.29 910.51 706.89 909.67 697.04 909.12 C 684.83 908.40 672.75 904.43 662.86 897.17 C 656.10 892.25 649.78 886.64 642.30 882.80 C 632.75 877.67 621.78 875.95 612.33 870.61 C 604.16 865.83 597.04 858.51 593.64 849.59 C 591.71 837.93 597.05 826.57 602.56 816.60 C 603.03 820.28 603.21 824.29 605.65 827.33 C 611.28 835.01 620.92 838.26 629.97 839.66 C 634.35 840.01 639.83 840.77 643.09 837.07 C 647.50 831.93 648.54 824.86 652.51 819.44 Z" />
<path fill="#4d4d4d" opacity="1.00" d=" M 170.04 844.01 C 171.89 842.22 174.30 840.89 176.95 841.05 C 187.41 840.81 196.27 849.83 198.29 859.67 C 199.90 868.05 196.42 876.10 194.37 884.06 C 191.70 894.50 195.84 904.96 199.47 914.62 C 202.28 921.42 204.02 929.27 201.49 936.42 C 198.98 941.16 193.50 943.07 188.66 944.49 C 178.02 947.55 166.77 946.98 155.89 945.75 C 149.10 944.76 141.56 942.54 137.79 936.31 C 131.98 927.01 129.49 915.87 129.81 904.98 C 129.77 890.75 131.88 876.55 135.94 862.92 C 138.56 854.86 142.32 846.94 148.55 841.03 C 148.33 845.69 147.13 850.36 147.79 855.03 C 148.29 857.66 151.41 858.90 153.71 857.70 C 160.44 854.92 164.85 848.82 170.04 844.01 Z" />
</g>
</svg>
