<svg id="svg" version="1.1" xmlns="http://www.w3.org/2000/svg" xmlns:xlink="http://www.w3.org/1999/xlink" width="400" height="266.3484486873508" viewBox="0, 0, 400,266.3484486873508"><g id="svgg"><path id="path0" d="M0.799 17.722 L 0.799 34.910 200.000 34.910 L 399.201 34.910 399.201 17.722 L 399.201 0.533 200.000 0.533 L 0.799 0.533 0.799 17.722 " stroke="none" fill="#008c17" fill-rule="evenodd"></path><path id="path1" d="M0.850 35.643 C 0.934 36.078,1.751 36.114,12.861 36.179 L 24.782 36.248 24.850 102.801 L 24.917 169.354 79.880 169.421 C 124.616 169.476,134.843 169.552,134.843 169.833 C 134.843 170.548,139.601 176.167,143.476 180.027 C 177.261 213.685,234.672 209.351,263.687 170.953 L 264.694 169.620 319.489 169.487 L 374.284 169.354 374.351 102.798 L 374.418 36.243 386.809 36.243 C 399.023 36.243,399.201 36.235,399.201 35.710 C 399.201 35.177,399.023 35.177,199.980 35.177 C 10.391 35.177,0.765 35.199,0.850 35.643 M120.720 57.029 L 120.720 77.815 199.600 77.815 L 278.481 77.815 278.481 57.029 L 278.481 36.243 325.916 36.243 L 373.351 36.243 373.351 102.199 L 373.351 168.155 199.600 168.155 L 25.849 168.155 25.849 102.199 L 25.849 36.243 73.284 36.243 L 120.720 36.243 120.720 57.029 M277.415 56.496 L 277.415 76.749 199.600 76.749 L 121.785 76.749 121.785 56.496 L 121.785 36.243 199.600 36.243 L 277.415 36.243 277.415 56.496 M197.042 124.557 C 194.744 126.855,197.113 130.555,200.224 129.528 C 203.769 128.358,202.988 123.651,199.248 123.651 C 198.125 123.651,197.825 123.774,197.042 124.557 M263.131 169.820 C 261.963 171.857,254.782 179.477,250.976 182.719 C 219.346 209.658,171.815 207.678,143.221 178.228 C 140.311 175.231,136.784 171.104,136.148 169.953 C 135.903 169.510,139.004 169.487,199.607 169.487 C 250.504 169.487,263.284 169.554,263.131 169.820 " stroke="none" fill="#f0f8f2" fill-rule="evenodd"></path><path id="path2" d="M100.422 35.110 C 155.287 35.147,244.987 35.147,299.755 35.110 C 354.524 35.073,309.634 35.043,200.000 35.043 C 90.366 35.043,45.556 35.073,100.422 35.110 M0.799 151.033 L 0.799 265.956 200.000 265.956 L 399.201 265.956 399.201 151.099 L 399.201 36.243 386.809 36.243 L 374.418 36.243 374.351 102.798 L 374.284 169.354 319.489 169.487 L 264.694 169.620 263.687 170.953 C 234.672 209.351,177.261 213.685,143.476 180.027 C 139.601 176.167,134.843 170.548,134.843 169.833 C 134.843 169.552,124.616 169.476,79.880 169.421 L 24.917 169.354 24.850 102.803 L 24.782 36.253 12.791 36.181 L 0.799 36.109 0.799 151.033 M25.849 102.199 L 25.849 168.155 199.600 168.155 L 373.351 168.155 373.351 102.199 L 373.351 36.243 325.916 36.243 L 278.481 36.243 278.481 57.029 L 278.481 77.815 199.600 77.815 L 120.720 77.815 120.720 57.029 L 120.720 36.243 73.284 36.243 L 25.849 36.243 25.849 102.199 M121.785 56.496 L 121.785 76.749 199.600 76.749 L 277.415 76.749 277.415 56.496 L 277.415 36.243 199.600 36.243 L 121.785 36.243 121.785 56.496 M201.141 124.067 C 202.594 125.084,202.932 127.132,201.857 128.409 C 199.805 130.848,196.140 129.617,196.137 126.489 C 196.135 124.268,199.265 122.753,201.141 124.067 M136.148 169.953 C 136.784 171.104,140.311 175.231,143.221 178.228 C 171.815 207.678,219.346 209.658,250.976 182.719 C 254.782 179.477,261.963 171.857,263.131 169.820 C 263.284 169.554,250.504 169.487,199.607 169.487 C 139.004 169.487,135.903 169.510,136.148 169.953 " stroke="none" fill="#00a93a" fill-rule="evenodd"></path></g></svg>