<svg id="svg" version="1.1" xmlns="http://www.w3.org/2000/svg" xmlns:xlink="http://www.w3.org/1999/xlink" width="400" height="266.3484486873508" viewBox="0, 0, 400,266.3484486873508"><g id="svgg"><path id="path0" d="M0.799 17.722 L 0.799 34.910 200.000 34.910 L 399.201 34.910 399.201 17.722 L 399.201 0.533 200.000 0.533 L 0.799 0.533 0.799 17.722 " stroke="none" fill="#008c17" fill-rule="evenodd"></path><path id="path1" d="M0.850 35.643 C 0.935 36.083,2.683 36.113,32.449 36.177 C 49.778 36.214,63.957 36.346,63.957 36.470 C 63.957 36.680,63.496 38.271,61.549 44.770 C 61.132 46.163,59.997 50.000,59.026 53.298 C 58.055 56.596,57.037 60.013,56.763 60.893 C 56.489 61.772,55.708 64.410,55.028 66.755 C 54.347 69.101,53.509 71.919,53.164 73.018 C 52.819 74.117,51.676 77.955,50.622 81.546 C 49.569 85.137,48.117 90.053,47.397 92.472 C 45.185 99.895,44.215 103.158,43.438 105.796 C 43.027 107.189,42.263 109.767,41.739 111.526 C 41.215 113.284,40.055 117.182,39.161 120.187 C 38.268 123.191,37.196 126.789,36.780 128.181 C 36.363 129.574,35.283 133.231,34.379 136.309 C 33.475 139.387,32.512 142.625,32.240 143.504 C 31.967 144.384,30.826 148.221,29.704 152.032 C 27.557 159.320,26.506 162.852,25.401 166.496 C 25.033 167.709,24.800 168.878,24.883 169.094 C 25.015 169.439,31.812 169.487,79.938 169.487 C 125.451 169.487,134.843 169.548,134.843 169.841 C 134.843 170.524,140.407 177.112,143.672 180.296 C 170.053 206.016,210.543 210.177,242.329 190.436 C 249.216 186.158,258.808 177.534,263.034 171.820 L 264.757 169.490 319.438 169.489 C 350.353 169.488,374.182 169.386,374.263 169.254 C 374.342 169.126,373.617 166.278,372.651 162.925 C 371.686 159.572,370.682 156.049,370.421 155.097 C 370.160 154.144,369.144 150.606,368.164 147.235 C 367.183 143.864,365.020 136.369,363.356 130.580 C 356.185 105.632,355.129 101.966,352.420 92.605 C 350.851 87.182,349.354 81.965,349.094 81.013 C 348.834 80.060,347.820 76.522,346.841 73.151 C 345.861 69.780,343.920 63.065,342.527 58.228 C 341.134 53.391,339.211 46.736,338.253 43.438 C 337.296 40.140,336.452 37.172,336.379 36.842 L 336.247 36.243 367.724 36.243 C 399.023 36.243,399.201 36.239,399.201 35.710 C 399.201 35.177,399.023 35.177,199.980 35.177 C 10.391 35.177,0.765 35.199,0.850 35.643 M129.510 36.442 C 129.508 36.552,129.320 37.422,129.093 38.374 C 128.866 39.327,128.330 41.785,127.902 43.837 C 127.475 45.889,126.698 49.607,126.177 52.099 C 124.558 59.831,123.638 64.238,122.975 67.422 C 122.625 69.107,122.034 71.896,121.662 73.619 C 121.290 75.341,120.986 76.990,120.986 77.283 C 120.986 77.813,121.212 77.815,199.867 77.815 C 244.201 77.815,278.748 77.714,278.748 77.584 C 278.748 77.457,278.084 74.189,277.272 70.322 C 276.461 66.455,275.207 60.473,274.485 57.029 C 273.764 53.584,272.623 48.188,271.951 45.037 C 270.609 38.748,270.220 36.821,270.220 36.473 C 270.220 36.165,334.901 36.171,335.091 36.479 C 335.172 36.609,335.527 37.778,335.880 39.077 C 336.234 40.376,337.324 44.197,338.303 47.568 C 339.282 50.939,341.204 57.595,342.574 62.358 C 343.943 67.122,345.866 73.777,346.846 77.149 C 347.825 80.520,348.839 84.057,349.098 85.010 C 349.357 85.963,350.853 91.179,352.422 96.602 C 353.991 102.025,356.274 109.940,357.496 114.191 C 358.717 118.441,360.520 124.677,361.502 128.048 C 362.483 131.419,363.501 134.957,363.762 135.909 C 364.024 136.862,365.380 141.599,366.775 146.436 C 368.171 151.272,370.104 157.988,371.071 161.359 C 372.037 164.730,372.882 167.638,372.948 167.821 C 373.044 168.088,338.255 168.155,199.574 168.155 C 34.469 168.155,26.086 168.132,26.211 167.688 C 26.438 166.882,27.726 162.530,28.519 159.893 C 28.938 158.501,29.718 155.863,30.253 154.031 C 30.788 152.199,31.506 149.800,31.849 148.701 C 32.191 147.602,33.031 144.783,33.715 142.438 C 34.399 140.093,36.278 133.738,37.889 128.314 C 42.895 111.471,43.956 107.898,44.931 104.597 C 46.158 100.439,47.276 96.686,48.225 93.538 C 48.977 91.041,50.099 87.254,54.897 71.019 C 56.239 66.476,57.681 61.619,58.100 60.227 C 58.519 58.834,59.660 54.997,60.636 51.699 C 62.599 45.059,64.982 37.092,65.159 36.576 C 65.288 36.200,129.517 36.067,129.510 36.442 M269.176 37.175 C 269.274 37.615,270.085 41.452,270.978 45.703 C 271.871 49.953,273.448 57.448,274.483 62.358 C 275.518 67.268,276.600 72.408,276.890 73.780 C 277.179 75.152,277.415 76.381,277.415 76.512 C 277.415 76.650,244.993 76.749,199.867 76.749 C 126.188 76.749,122.319 76.726,122.321 76.282 C 122.324 75.842,122.551 74.708,124.445 65.690 C 124.876 63.638,125.655 59.920,126.177 57.428 C 128.106 48.208,130.186 38.334,130.485 36.975 L 130.646 36.241 199.823 36.309 L 268.999 36.376 269.176 37.175 M197.042 124.557 C 194.744 126.855,197.113 130.555,200.224 129.528 C 203.769 128.358,202.988 123.651,199.248 123.651 C 198.125 123.651,197.825 123.774,197.042 124.557 M262.727 170.353 C 260.782 173.157,254.758 179.488,251.033 182.644 C 216.372 212.010,164.338 206.792,137.092 171.219 C 136.643 170.633,136.186 170.003,136.077 169.820 C 135.918 169.554,148.695 169.487,199.603 169.487 L 263.327 169.487 262.727 170.353 " stroke="none" fill="#edf6ef" fill-rule="evenodd"></path><path id="path2" d="M100.422 35.110 C 155.287 35.147,244.987 35.147,299.755 35.110 C 354.524 35.073,309.634 35.043,200.000 35.043 C 90.366 35.043,45.556 35.073,100.422 35.110 M0.799 151.033 L 0.799 265.956 200.000 265.956 L 399.201 265.956 399.201 151.099 L 399.201 36.243 367.724 36.243 L 336.247 36.243 336.379 36.842 C 336.452 37.172,337.296 40.140,338.253 43.438 C 339.211 46.736,341.134 53.391,342.527 58.228 C 343.920 63.065,345.861 69.780,346.841 73.151 C 347.820 76.522,348.834 80.060,349.094 81.013 C 349.354 81.965,350.851 87.182,352.420 92.605 C 355.129 101.966,356.185 105.632,363.356 130.580 C 365.020 136.369,367.183 143.864,368.164 147.235 C 369.144 150.606,370.160 154.144,370.421 155.097 C 370.682 156.049,371.686 159.572,372.651 162.925 C 373.617 166.278,374.342 169.126,374.263 169.254 C 374.182 169.386,350.353 169.488,319.438 169.489 L 264.757 169.490 263.034 171.820 C 258.808 177.534,249.216 186.158,242.329 190.436 C 210.543 210.177,170.053 206.016,143.672 180.296 C 140.407 177.112,134.843 170.524,134.843 169.841 C 134.843 169.548,125.451 169.487,79.938 169.487 C 31.812 169.487,25.015 169.439,24.883 169.094 C 24.800 168.878,25.033 167.709,25.401 166.496 C 26.506 162.852,27.557 159.320,29.704 152.032 C 30.826 148.221,31.967 144.384,32.240 143.504 C 32.512 142.625,33.475 139.387,34.379 136.309 C 35.283 133.231,36.363 129.574,36.780 128.181 C 37.196 126.789,38.268 123.191,39.161 120.187 C 40.055 117.182,41.215 113.284,41.739 111.526 C 42.263 109.767,43.027 107.189,43.438 105.796 C 44.215 103.158,45.185 99.895,47.397 92.472 C 48.117 90.053,49.569 85.137,50.622 81.546 C 51.676 77.955,52.819 74.117,53.164 73.018 C 53.509 71.919,54.347 69.101,55.028 66.755 C 55.708 64.410,56.489 61.772,56.763 60.893 C 57.037 60.013,58.055 56.596,59.026 53.298 C 59.997 50.000,61.132 46.163,61.549 44.770 C 63.495 38.275,63.957 36.680,63.957 36.471 C 63.957 36.348,49.747 36.216,32.378 36.178 L 0.799 36.109 0.799 151.033 M65.159 36.576 C 64.982 37.092,62.599 45.059,60.636 51.699 C 59.660 54.997,58.519 58.834,58.100 60.227 C 57.681 61.619,56.239 66.476,54.897 71.019 C 50.099 87.254,48.977 91.041,48.225 93.538 C 47.276 96.686,46.158 100.439,44.931 104.597 C 43.956 107.898,42.895 111.471,37.889 128.314 C 36.278 133.738,34.399 140.093,33.715 142.438 C 33.031 144.783,32.191 147.602,31.849 148.701 C 31.506 149.800,30.788 152.199,30.253 154.031 C 29.718 155.863,28.938 158.501,28.519 159.893 C 27.726 162.530,26.438 166.882,26.211 167.688 C 26.086 168.132,34.469 168.155,199.574 168.155 C 338.255 168.155,373.044 168.088,372.948 167.821 C 372.882 167.638,372.037 164.730,371.071 161.359 C 370.104 157.988,368.171 151.272,366.775 146.436 C 365.380 141.599,364.024 136.862,363.762 135.909 C 363.501 134.957,362.483 131.419,361.502 128.048 C 360.520 124.677,358.717 118.441,357.496 114.191 C 356.274 109.940,353.991 102.025,352.422 96.602 C 350.853 91.179,349.357 85.963,349.098 85.010 C 348.839 84.057,347.825 80.520,346.846 77.149 C 345.866 73.777,343.943 67.122,342.574 62.358 C 341.204 57.595,339.282 50.939,338.303 47.568 C 337.324 44.197,336.234 40.376,335.880 39.077 C 335.527 37.778,335.172 36.609,335.091 36.479 C 334.901 36.171,270.220 36.165,270.220 36.473 C 270.220 36.821,270.609 38.748,271.951 45.037 C 272.623 48.188,273.764 53.584,274.485 57.029 C 275.207 60.473,276.461 66.455,277.272 70.322 C 278.084 74.189,278.748 77.457,278.748 77.584 C 278.748 77.714,244.201 77.815,199.867 77.815 C 121.212 77.815,120.986 77.813,120.986 77.283 C 120.986 76.990,121.290 75.341,121.662 73.619 C 122.034 71.896,122.625 69.107,122.975 67.422 C 123.638 64.238,124.558 59.831,126.177 52.099 C 126.698 49.607,127.475 45.889,127.902 43.837 C 128.330 41.785,128.866 39.327,129.093 38.374 C 129.320 37.422,129.508 36.552,129.510 36.442 C 129.517 36.067,65.288 36.200,65.159 36.576 M130.485 36.975 C 130.186 38.334,128.106 48.208,126.177 57.428 C 125.655 59.920,124.876 63.638,124.445 65.690 C 122.551 74.708,122.324 75.842,122.321 76.282 C 122.319 76.726,126.188 76.749,199.867 76.749 C 244.993 76.749,277.415 76.650,277.415 76.512 C 277.415 76.381,277.179 75.152,276.890 73.780 C 276.600 72.408,275.518 67.268,274.483 62.358 C 273.448 57.448,271.871 49.953,270.978 45.703 C 270.085 41.452,269.274 37.615,269.176 37.175 L 268.999 36.376 199.823 36.309 L 130.646 36.241 130.485 36.975 M201.141 124.067 C 202.594 125.084,202.932 127.132,201.857 128.409 C 199.805 130.848,196.140 129.617,196.137 126.489 C 196.135 124.268,199.265 122.753,201.141 124.067 M136.077 169.820 C 136.186 170.003,136.643 170.633,137.092 171.219 C 164.338 206.792,216.372 212.010,251.033 182.644 C 254.758 179.488,260.782 173.157,262.727 170.353 L 263.327 169.487 199.603 169.487 C 148.695 169.487,135.918 169.554,136.077 169.820 " stroke="none" fill="#00a93a" fill-rule="evenodd"></path></g></svg>