<svg id="svg" version="1.1" xmlns="http://www.w3.org/2000/svg" xmlns:xlink="http://www.w3.org/1999/xlink" width="400" height="266.9856459330144" viewBox="0, 0, 400,266.9856459330144"><g id="svgg"><path id="path0" d="M69.038 17.423 C 68.786 18.341,68.239 20.234,67.823 21.629 C 67.408 23.024,66.685 25.487,66.217 27.103 C 65.749 28.718,65.031 31.182,64.620 32.577 C 63.734 35.588,62.329 40.392,61.144 44.459 C 60.674 46.075,59.952 48.538,59.540 49.933 C 59.127 51.328,58.411 53.792,57.947 55.407 C 57.483 57.023,56.825 59.246,56.484 60.347 C 55.876 62.310,54.835 65.842,53.138 71.696 C 51.904 75.952,50.510 80.724,49.785 83.178 C 48.528 87.431,44.522 101.097,44.189 102.270 C 44.001 102.931,43.405 104.973,42.866 106.809 C 40.903 113.490,39.994 116.599,39.392 118.692 C 39.054 119.866,38.351 122.270,37.831 124.032 C 36.761 127.654,35.883 130.650,34.584 135.113 C 33.338 139.397,30.382 149.524,28.661 155.407 C 27.867 158.124,26.329 163.411,25.245 167.156 C 22.727 175.853,18.841 189.168,15.971 198.932 C 15.388 200.915,14.244 204.880,13.428 207.744 C 10.886 216.667,10.797 216.973,6.499 231.642 C 5.983 233.405,5.282 235.808,4.943 236.983 C 4.603 238.158,3.758 241.041,3.065 243.391 C 2.373 245.741,1.629 248.324,1.413 249.132 C 1.196 249.940,0.895 250.751,0.744 250.935 C 0.524 251.202,40.320 251.268,199.567 251.268 C 309.071 251.268,398.665 251.222,398.665 251.165 C 398.665 251.108,398.354 249.996,397.974 248.695 C 397.218 246.103,395.284 239.416,392.658 230.307 C 391.727 227.076,390.160 221.669,389.176 218.291 C 388.192 214.913,387.176 211.368,386.917 210.414 C 386.658 209.459,385.880 206.756,385.188 204.406 C 384.496 202.056,383.410 198.331,382.775 196.128 C 380.297 187.533,378.040 179.738,375.546 171.162 C 374.116 166.242,372.677 161.255,372.349 160.080 C 372.021 158.905,371.186 156.021,370.493 153.672 C 369.800 151.322,369.021 148.618,368.762 147.664 C 368.503 146.709,367.606 143.585,366.769 140.721 C 365.931 137.857,364.363 132.450,363.284 128.705 C 362.205 124.960,360.517 119.132,359.532 115.754 C 358.548 112.377,357.528 108.832,357.266 107.877 C 357.004 106.923,356.367 104.700,355.850 102.937 C 355.333 101.175,354.129 97.029,353.175 93.725 C 352.221 90.421,350.881 85.794,350.197 83.445 C 348.972 79.233,348.046 76.033,344.098 62.350 C 342.996 58.531,341.295 52.644,340.318 49.266 C 339.341 45.888,337.900 40.901,337.116 38.184 C 336.331 35.467,334.766 30.060,333.638 26.168 C 332.509 22.276,331.386 18.371,331.143 17.490 L 330.700 15.888 200.098 15.821 L 69.496 15.754 69.038 17.423 M73.431 16.917 C 73.431 17.553,72.238 18.593,70.940 19.089 C 69.377 19.686,69.340 19.647,69.885 17.943 L 70.329 16.555 71.880 16.555 C 73.007 16.555,73.431 16.654,73.431 16.917 M199.332 58.478 L 199.332 100.267 197.330 100.434 C 182.689 101.654,170.778 112.968,168.227 128.078 C 165.034 146.992,178.576 164.986,197.196 166.574 L 199.332 166.756 199.400 208.611 L 199.468 250.467 102.959 250.467 L 6.451 250.467 6.287 249.720 C 6.078 248.768,4.958 247.555,3.970 247.211 C 3.042 246.887,3.037 246.767,3.843 244.139 C 4.194 242.994,4.984 240.314,5.598 238.184 C 6.213 236.055,6.937 233.591,7.208 232.710 C 7.479 231.829,8.563 228.104,9.616 224.433 C 10.670 220.761,11.871 216.615,12.285 215.220 C 12.700 213.825,13.419 211.362,13.884 209.746 C 14.349 208.131,14.776 206.659,14.833 206.475 C 14.915 206.211,20.806 206.142,43.116 206.142 C 58.614 206.142,71.295 206.083,71.295 206.012 C 71.295 205.941,72.564 199.723,74.115 192.194 C 77.632 175.119,78.594 170.440,79.595 165.554 C 80.734 159.996,80.454 160.493,82.774 159.893 C 106.601 153.723,113.793 121.821,94.562 107.607 C 93.587 106.887,92.582 106.142,92.327 105.953 C 91.927 105.654,91.902 105.444,92.147 104.406 C 92.303 103.745,93.196 99.479,94.132 94.927 C 95.067 90.374,96.565 83.104,97.461 78.772 C 98.357 74.439,99.493 68.912,99.986 66.489 C 100.479 64.065,100.968 61.752,101.071 61.348 L 101.259 60.614 79.484 60.614 C 67.507 60.614,57.658 60.524,57.596 60.414 C 57.535 60.304,57.817 59.132,58.224 57.810 C 58.630 56.489,59.330 54.146,59.778 52.603 C 60.227 51.061,61.631 46.255,62.898 41.923 C 65.460 33.162,67.920 24.716,68.603 22.338 C 69.035 20.830,69.094 20.762,70.373 20.300 C 72.840 19.408,73.101 19.263,73.667 18.469 C 73.978 18.032,74.232 17.567,74.232 17.435 C 74.232 16.551,74.073 16.553,137.103 16.622 L 199.332 16.689 199.332 58.478 M324.297 17.082 C 324.738 18.473,327.059 19.774,329.800 20.167 C 330.976 20.335,331.041 20.391,331.303 21.453 C 331.563 22.509,332.824 26.886,336.853 40.721 C 337.837 44.099,338.856 47.644,339.117 48.598 C 339.379 49.553,340.267 52.642,341.092 55.462 C 341.916 58.283,342.590 60.656,342.590 60.736 C 342.590 60.816,332.677 60.881,320.561 60.881 C 303.377 60.881,298.531 60.953,298.531 61.208 C 298.531 61.387,299.257 65.082,300.145 69.419 C 301.633 76.691,302.263 79.735,304.012 88.117 C 307.234 103.564,307.688 106.077,307.296 106.296 C 291.010 115.410,289.175 138.609,303.620 152.751 C 307.450 156.501,314.639 160.463,317.639 160.478 C 318.886 160.484,318.970 160.768,321.754 174.366 C 324.839 189.439,324.913 189.794,326.344 196.662 C 326.926 199.453,327.597 202.787,327.835 204.072 L 328.268 206.409 356.358 206.409 C 378.514 206.409,384.502 206.479,384.705 206.742 C 384.846 206.926,385.512 208.999,386.184 211.348 C 387.631 216.406,390.899 227.729,392.966 234.846 C 393.776 237.637,394.853 241.362,395.359 243.124 C 395.864 244.887,396.338 246.525,396.412 246.765 C 396.503 247.063,396.338 247.253,395.890 247.365 C 394.964 247.598,393.720 248.712,393.327 249.661 L 392.993 250.467 296.629 250.467 L 200.265 250.467 200.333 208.611 L 200.401 166.756 202.555 166.577 C 216.777 165.397,228.681 154.344,231.409 139.786 C 235.032 120.449,221.497 102.089,202.403 100.440 L 200.401 100.267 200.333 58.411 L 200.265 16.555 262.197 16.555 C 323.604 16.555,324.131 16.560,324.297 17.082 M330.045 17.235 C 330.686 18.921,330.674 19.226,329.969 19.226 C 328.507 19.226,325.234 17.555,325.234 16.809 C 325.234 16.128,329.777 16.530,330.045 17.235 M99.866 61.883 C 99.866 61.994,99.319 64.727,98.649 67.958 C 97.979 71.189,97.143 75.274,96.790 77.036 C 96.437 78.798,95.660 82.583,95.063 85.447 C 94.467 88.311,93.690 92.096,93.338 93.858 C 92.718 96.959,87.220 123.667,85.862 130.174 C 85.494 131.936,84.825 135.180,84.375 137.383 C 83.924 139.586,83.257 142.830,82.892 144.593 C 82.526 146.355,80.612 155.668,78.638 165.287 C 76.664 174.907,74.748 184.219,74.380 185.981 C 74.012 187.744,73.343 190.988,72.892 193.191 C 72.441 195.394,71.696 198.969,71.237 201.135 L 70.401 205.073 42.782 205.073 C 16.580 205.073,15.173 205.049,15.364 204.606 C 15.475 204.349,15.835 203.178,16.164 202.003 C 16.493 200.828,17.189 198.425,17.710 196.662 C 18.768 193.082,19.634 190.124,20.956 185.581 C 21.448 183.892,22.659 179.746,23.647 176.368 C 24.636 172.991,25.702 169.326,26.016 168.224 L 26.587 166.222 36.636 166.088 C 42.163 166.015,46.733 165.895,46.791 165.821 C 46.849 165.748,48.233 160.340,49.865 153.805 C 51.498 147.270,55.185 132.555,58.059 121.107 C 60.933 109.658,63.284 100.197,63.284 100.082 C 63.284 99.968,59.395 99.842,54.642 99.803 L 46.000 99.733 46.775 97.063 C 47.202 95.594,47.842 93.431,48.197 92.256 C 48.757 90.408,50.624 83.997,55.041 68.758 C 55.637 66.702,56.363 64.269,56.655 63.351 L 57.186 61.682 78.526 61.682 C 90.263 61.682,99.866 61.773,99.866 61.883 M343.648 65.888 C 344.274 68.054,345.004 70.547,345.269 71.429 C 345.534 72.310,346.132 74.352,346.599 75.968 C 347.502 79.097,348.847 83.702,350.067 87.850 C 350.478 89.246,351.196 91.709,351.664 93.324 C 352.131 94.940,352.744 97.008,353.026 97.920 C 353.870 100.652,354.686 100.401,344.993 100.401 C 338.339 100.401,336.447 100.474,336.443 100.734 C 336.437 101.079,337.357 104.809,346.971 143.391 L 352.659 166.222 362.681 166.292 C 373.868 166.370,373.027 166.201,373.644 168.491 C 373.862 169.299,374.607 171.883,375.299 174.232 C 375.992 176.582,377.136 180.487,377.841 182.911 C 378.546 185.334,379.687 189.239,380.375 191.589 C 383.392 201.881,384.238 204.877,384.242 205.274 C 384.248 205.882,329.317 205.749,329.135 205.140 C 329.011 204.728,328.205 200.854,325.872 189.453 C 325.511 187.690,324.856 184.506,324.416 182.377 C 323.597 178.415,322.464 172.884,321.353 167.423 C 321.009 165.734,319.933 160.507,318.962 155.808 C 314.257 133.031,312.620 125.067,311.361 118.825 C 310.932 116.696,310.088 112.610,309.486 109.746 C 308.884 106.883,308.225 103.698,308.023 102.670 C 307.264 98.820,301.437 70.533,300.927 68.224 C 300.635 66.903,300.231 64.950,300.029 63.885 L 299.662 61.949 321.085 61.949 L 342.508 61.949 343.648 65.888 M61.949 101.247 C 61.949 101.418,61.143 104.753,60.158 108.656 C 59.173 112.560,55.595 126.809,52.206 140.320 L 46.045 164.887 36.842 164.957 C 31.781 164.996,27.502 164.974,27.333 164.909 C 27.126 164.830,27.580 162.905,28.736 158.965 C 29.677 155.760,30.738 152.116,31.096 150.868 C 32.155 147.165,32.985 144.311,34.315 139.786 C 35.005 137.437,36.166 133.471,36.894 130.975 C 37.622 128.478,38.641 124.993,39.159 123.231 C 39.677 121.469,40.377 119.065,40.716 117.891 C 43.355 108.733,44.946 103.281,45.294 102.203 L 45.704 100.935 53.827 100.935 C 59.845 100.935,61.949 101.015,61.949 101.247 M354.647 103.605 C 355.038 104.853,356.276 109.059,357.400 112.951 C 358.523 116.842,359.665 120.748,359.938 121.629 C 360.211 122.510,360.868 124.733,361.398 126.569 C 361.928 128.405,362.716 131.108,363.149 132.577 C 363.582 134.045,364.666 137.770,365.557 140.854 C 367.100 146.197,369.145 153.184,371.444 160.975 C 372.023 162.936,372.497 164.710,372.497 164.917 C 372.497 165.236,371.024 165.283,362.966 165.224 L 353.435 165.154 351.492 157.410 C 343.900 127.150,337.602 101.570,337.702 101.398 C 337.767 101.286,341.446 101.226,345.878 101.264 L 353.936 101.335 354.647 103.605 M199.466 116.222 L 199.466 130.975 198.531 131.720 C 197.095 132.867,197.258 134.757,198.867 135.615 L 199.470 135.936 199.401 150.797 L 199.332 165.658 197.730 165.586 C 180.348 164.808,166.749 147.575,169.041 129.232 C 170.893 114.408,184.077 101.691,197.797 101.493 L 199.466 101.469 199.466 116.222 M204.806 101.752 C 216.096 103.568,226.176 112.516,229.456 123.632 C 230.743 127.993,230.841 128.691,230.841 133.511 C 230.841 138.332,230.743 139.030,229.456 143.391 C 225.870 155.543,214.118 165.044,202.003 165.586 L 200.401 165.658 200.332 150.797 L 200.263 135.936 200.866 135.615 C 202.608 134.686,202.609 132.337,200.868 131.409 L 200.267 131.089 200.267 116.279 L 200.267 101.469 201.669 101.471 C 202.440 101.472,203.852 101.598,204.806 101.752 M93.725 108.243 C 107.728 118.429,108.530 138.213,95.468 151.276 C 90.867 155.878,80.247 161.246,81.008 158.586 C 81.109 158.233,81.477 156.502,81.826 154.740 C 82.176 152.977,83.801 145.047,85.439 137.116 C 89.330 118.271,90.032 114.873,90.940 110.499 C 91.417 108.199,91.802 106.906,91.977 107.010 C 92.131 107.101,92.917 107.656,93.725 108.243 M309.263 113.639 C 311.653 125.238,313.820 135.791,314.577 139.519 C 314.995 141.575,315.822 145.601,316.416 148.465 C 318.059 156.385,318.634 159.425,318.514 159.546 C 317.855 160.205,310.368 156.911,307.335 154.628 C 291.217 142.499,290.440 120.145,305.736 108.656 C 308.026 106.936,307.822 106.648,309.263 113.639 M61.034 132.596 C 60.498 133.132,60.498 133.891,61.034 134.427 C 62.174 135.567,64.051 134.180,63.175 132.844 C 62.673 132.076,61.669 131.960,61.034 132.596 M335.533 132.596 C 334.687 133.442,335.320 134.846,336.548 134.846 C 337.336 134.846,337.784 134.363,337.784 133.511 C 337.784 132.246,336.433 131.696,335.533 132.596 M199.466 133.511 C 199.466 134.667,199.121 134.897,198.665 134.045 C 198.462 133.666,198.462 133.357,198.665 132.977 C 199.121 132.125,199.466 132.356,199.466 133.511 M201.068 132.977 C 201.271 133.357,201.271 133.666,201.068 134.045 C 200.612 134.897,200.267 134.667,200.267 133.511 C 200.267 132.356,200.612 132.125,201.068 132.977 M4.924 249.190 C 5.670 250.256,5.471 250.467,3.717 250.467 L 2.094 250.467 2.280 249.599 C 2.700 247.643,3.729 247.484,4.924 249.190 M397.187 249.599 L 397.372 250.467 395.749 250.467 C 394.856 250.467,394.128 250.377,394.131 250.267 C 394.144 249.854,395.088 248.878,395.855 248.485 C 396.746 248.029,396.874 248.136,397.187 249.599 " stroke="none" fill="#f3f9f5" fill-rule="evenodd"></path><path id="path1" d="M0.555 125.567 C 0.569 208.822,0.665 250.333,0.842 249.800 C 0.988 249.359,1.212 248.758,1.340 248.465 C 1.469 248.171,1.892 246.789,2.281 245.394 C 3.213 242.052,4.005 239.311,5.213 235.247 C 5.758 233.411,6.596 230.527,7.075 228.838 C 7.554 227.150,8.325 224.506,8.789 222.964 C 9.253 221.422,9.974 218.959,10.392 217.490 C 10.810 216.021,11.538 213.498,12.010 211.883 C 12.482 210.267,13.209 207.744,13.626 206.275 C 14.771 202.242,15.909 198.311,16.833 195.194 C 17.883 191.647,19.232 186.971,20.134 183.748 C 20.519 182.373,20.904 181.134,20.990 180.994 C 21.076 180.855,21.482 179.517,21.890 178.021 C 22.299 176.525,23.020 173.979,23.491 172.363 C 23.962 170.748,24.642 168.344,25.003 167.023 C 25.364 165.701,25.768 164.379,25.901 164.085 C 26.034 163.792,26.435 162.470,26.792 161.148 C 27.553 158.332,28.338 155.578,29.228 152.603 C 29.579 151.429,30.305 148.965,30.841 147.130 C 31.796 143.858,32.105 142.801,34.007 136.315 C 34.523 134.553,35.079 132.570,35.241 131.909 C 35.403 131.248,35.645 130.467,35.778 130.174 C 35.911 129.880,36.315 128.558,36.677 127.236 C 37.039 125.915,37.778 123.331,38.319 121.495 C 40.131 115.353,41.902 109.248,42.817 105.991 C 43.170 104.733,43.703 102.931,44.002 101.986 C 45.552 97.081,46.040 95.413,47.904 88.652 C 48.289 87.256,48.719 85.874,48.859 85.581 C 49.000 85.287,49.346 84.146,49.628 83.044 C 49.911 81.943,50.589 79.539,51.135 77.704 C 53.292 70.457,53.740 68.927,54.456 66.355 C 54.865 64.887,55.445 62.904,55.745 61.949 C 56.299 60.188,56.851 58.334,58.608 52.336 C 59.145 50.501,59.870 48.037,60.217 46.862 C 61.082 43.937,61.871 41.215,62.770 38.051 C 63.187 36.582,63.906 34.119,64.369 32.577 C 65.173 29.894,66.453 25.470,67.568 21.517 C 67.855 20.501,68.342 18.878,68.652 17.912 C 68.962 16.946,69.259 16.005,69.312 15.821 C 69.390 15.555,95.778 15.487,200.104 15.487 L 330.799 15.487 330.984 16.355 C 331.086 16.832,331.259 17.343,331.369 17.490 C 331.478 17.637,331.844 18.899,332.182 20.294 C 332.520 21.689,332.892 23.011,333.008 23.231 C 333.124 23.451,333.602 25.013,334.071 26.702 C 334.539 28.391,335.220 30.794,335.583 32.043 C 335.946 33.291,336.586 35.514,337.006 36.983 C 338.337 41.643,339.587 45.974,340.436 48.865 C 340.889 50.407,341.565 52.810,341.938 54.206 C 342.311 55.601,342.726 56.983,342.861 57.276 C 342.995 57.570,343.420 58.952,343.805 60.347 C 344.190 61.742,344.869 64.146,345.313 65.688 C 346.738 70.634,347.632 73.772,348.318 76.235 C 348.686 77.557,349.284 79.599,349.647 80.774 C 350.009 81.949,350.681 84.232,351.138 85.848 C 351.596 87.463,352.255 89.746,352.603 90.921 C 352.950 92.096,353.731 94.800,354.339 96.929 C 354.946 99.059,355.667 101.522,355.942 102.403 C 356.216 103.284,356.574 104.546,356.738 105.207 C 356.902 105.868,357.321 107.370,357.670 108.545 C 358.019 109.720,358.744 112.183,359.280 114.019 C 359.816 115.854,360.440 117.957,360.668 118.692 C 360.895 119.426,361.429 121.288,361.855 122.830 C 362.960 126.838,364.004 130.477,365.149 134.312 C 365.697 136.148,366.318 138.311,366.529 139.119 C 366.740 139.927,367.199 141.549,367.549 142.724 C 367.899 143.899,368.617 146.362,369.145 148.198 C 369.673 150.033,370.301 152.136,370.540 152.870 C 370.779 153.605,371.252 155.227,371.591 156.475 C 372.202 158.721,373.254 162.398,374.916 168.091 C 375.388 169.706,376.124 172.230,376.551 173.698 C 376.979 175.167,377.627 177.510,377.991 178.905 C 378.356 180.300,378.764 181.682,378.899 181.976 C 379.033 182.270,379.459 183.652,379.846 185.047 C 380.232 186.442,380.913 188.845,381.360 190.387 C 381.807 191.929,382.507 194.415,382.916 195.911 C 383.325 197.407,383.725 198.738,383.806 198.869 C 383.886 198.999,384.312 200.418,384.751 202.023 C 385.190 203.627,385.921 206.202,386.376 207.744 C 386.830 209.286,387.545 211.749,387.964 213.218 C 388.382 214.686,389.112 217.210,389.586 218.825 C 390.397 221.591,390.866 223.221,392.813 230.034 C 393.253 231.576,393.958 234.093,394.378 235.628 C 394.798 237.162,395.212 238.532,395.298 238.671 C 395.384 238.811,395.770 240.050,396.154 241.425 C 396.539 242.800,397.267 245.367,397.773 247.130 C 398.278 248.892,398.760 250.604,398.843 250.935 L 398.994 251.535 199.764 251.535 L 0.534 251.535 0.534 259.012 L 0.534 266.489 200.000 266.489 L 399.466 266.489 399.466 133.511 L 399.466 0.534 200.000 0.534 L 0.534 0.534 0.555 125.567 " stroke="none" fill="#008c17" fill-rule="evenodd"></path><path id="path2" d="M69.251 15.899 C 69.164 16.126,69.168 16.386,69.259 16.478 C 69.351 16.569,69.426 16.444,69.426 16.199 C 69.426 15.783,78.227 15.758,200.134 15.821 C 272.023 15.858,330.841 15.798,330.841 15.688 C 330.841 15.241,69.422 15.453,69.251 15.899 M69.885 17.943 C 69.340 19.647,69.377 19.686,70.940 19.089 C 73.637 18.059,74.195 16.555,71.880 16.555 L 70.329 16.555 69.885 17.943 M74.553 16.875 C 74.377 17.052,74.232 17.304,74.232 17.435 C 74.232 17.567,73.978 18.032,73.667 18.469 C 73.101 19.263,72.840 19.408,70.373 20.300 C 69.094 20.762,69.035 20.830,68.603 22.338 C 67.920 24.716,65.460 33.162,62.898 41.923 C 61.631 46.255,60.227 51.061,59.778 52.603 C 59.330 54.146,58.630 56.489,58.224 57.810 C 57.817 59.132,57.535 60.304,57.596 60.414 C 57.658 60.524,67.507 60.614,79.484 60.614 L 101.259 60.614 101.071 61.348 C 100.968 61.752,100.479 64.065,99.986 66.489 C 99.493 68.912,98.357 74.439,97.461 78.772 C 96.565 83.104,95.067 90.374,94.132 94.927 C 93.196 99.479,92.303 103.745,92.147 104.406 C 91.902 105.444,91.927 105.654,92.327 105.953 C 92.582 106.142,93.587 106.887,94.562 107.607 C 113.793 121.821,106.601 153.723,82.774 159.893 C 80.454 160.493,80.734 159.996,79.595 165.554 C 78.594 170.440,77.632 175.119,74.115 192.194 C 72.564 199.723,71.295 205.941,71.295 206.012 C 71.295 206.083,58.614 206.142,43.116 206.142 C 20.806 206.142,14.915 206.211,14.833 206.475 C 14.776 206.659,14.349 208.131,13.884 209.746 C 13.419 211.362,12.700 213.825,12.285 215.220 C 11.871 216.615,10.670 220.761,9.616 224.433 C 8.563 228.104,7.479 231.829,7.208 232.710 C 6.937 233.591,6.213 236.055,5.598 238.184 C 4.984 240.314,4.194 242.994,3.843 244.139 C 3.037 246.767,3.042 246.887,3.970 247.211 C 4.958 247.555,6.078 248.768,6.287 249.720 L 6.451 250.467 102.959 250.467 L 199.468 250.467 199.400 208.611 L 199.332 166.756 197.196 166.574 C 178.576 164.986,165.034 146.992,168.227 128.078 C 170.778 112.968,182.689 101.654,197.330 100.434 L 199.332 100.267 199.332 58.478 L 199.332 16.689 137.103 16.622 C 88.924 16.569,74.802 16.627,74.553 16.875 M200.333 58.411 L 200.401 100.267 202.403 100.440 C 225.457 102.431,238.977 127.928,228.228 149.141 C 223.316 158.835,213.219 165.692,202.555 166.577 L 200.401 166.756 200.333 208.611 L 200.265 250.467 296.629 250.467 L 392.993 250.467 393.327 249.661 C 393.720 248.712,394.964 247.598,395.890 247.365 C 396.338 247.253,396.503 247.063,396.412 246.765 C 396.338 246.525,395.864 244.887,395.359 243.124 C 394.853 241.362,393.776 237.637,392.966 234.846 C 390.899 227.729,387.631 216.406,386.184 211.348 C 385.512 208.999,384.846 206.926,384.705 206.742 C 384.502 206.479,378.514 206.409,356.358 206.409 L 328.268 206.409 327.835 204.072 C 327.597 202.787,326.926 199.453,326.344 196.662 C 324.913 189.794,324.839 189.439,321.754 174.366 C 318.970 160.768,318.886 160.484,317.639 160.478 C 314.639 160.463,307.450 156.501,303.620 152.751 C 289.175 138.609,291.010 115.410,307.296 106.296 C 307.688 106.077,307.234 103.564,304.012 88.117 C 302.263 79.735,301.633 76.691,300.145 69.419 C 299.257 65.082,298.531 61.387,298.531 61.208 C 298.531 60.953,303.377 60.881,320.561 60.881 C 332.677 60.881,342.590 60.816,342.590 60.736 C 342.590 60.656,341.916 58.283,341.092 55.462 C 340.267 52.642,339.379 49.553,339.117 48.598 C 338.856 47.644,337.837 44.099,336.853 40.721 C 332.824 26.886,331.563 22.509,331.303 21.453 C 331.041 20.391,330.976 20.335,329.800 20.167 C 327.059 19.774,324.738 18.473,324.297 17.082 C 324.131 16.560,323.604 16.555,262.197 16.555 L 200.265 16.555 200.333 58.411 M325.234 16.809 C 325.234 17.555,328.507 19.226,329.969 19.226 C 330.674 19.226,330.686 18.921,330.045 17.235 C 329.777 16.530,325.234 16.128,325.234 16.809 M331.195 17.757 C 331.744 19.759,332.008 20.551,332.098 20.461 C 332.262 20.297,331.595 17.783,331.309 17.490 C 331.138 17.315,331.099 17.407,331.195 17.757 M68.254 19.125 C 68.018 19.820,67.836 20.578,67.850 20.809 C 67.865 21.039,68.106 20.518,68.387 19.651 C 68.667 18.783,68.849 18.025,68.790 17.967 C 68.732 17.909,68.491 18.430,68.254 19.125 M332.809 23.332 C 332.907 23.608,333.120 24.364,333.283 25.011 C 333.446 25.659,333.630 26.139,333.691 26.077 C 333.866 25.902,333.202 23.394,332.902 23.097 C 332.720 22.918,332.690 22.995,332.809 23.332 M66.649 24.604 C 66.072 26.641,65.856 27.658,66.032 27.499 C 66.257 27.298,67.302 23.421,67.168 23.288 C 67.106 23.225,66.872 23.817,66.649 24.604 M334.747 29.897 C 334.839 30.406,335.079 31.247,335.280 31.766 L 335.646 32.710 335.479 31.785 C 335.388 31.277,335.148 30.435,334.947 29.916 L 334.581 28.972 334.747 29.897 M64.811 30.975 C 64.089 33.469,64.048 34.153,64.747 32.043 C 65.112 30.941,65.371 29.920,65.323 29.773 C 65.275 29.626,65.045 30.167,64.811 30.975 M335.987 34.179 C 336.049 34.399,336.316 35.392,336.582 36.386 C 336.847 37.379,337.112 38.143,337.172 38.084 C 337.323 37.933,336.457 34.666,336.137 34.179 C 335.903 33.823,335.887 33.823,335.987 34.179 M63.335 35.915 C 62.786 37.950,62.762 38.577,63.294 36.998 C 63.588 36.125,63.782 35.283,63.726 35.128 C 63.670 34.973,63.494 35.327,63.335 35.915 M337.703 40.187 C 337.793 40.628,338.028 41.409,338.225 41.923 L 338.583 42.857 338.419 41.923 C 338.329 41.409,338.094 40.628,337.897 40.187 L 337.539 39.386 337.703 40.187 M61.590 41.970 C 61.001 44.022,60.784 45.013,60.959 44.856 C 61.174 44.662,62.232 40.781,62.104 40.653 C 62.046 40.595,61.815 41.188,61.590 41.970 M339.458 46.195 C 339.520 46.415,339.788 47.408,340.053 48.402 C 340.318 49.395,340.584 50.159,340.643 50.100 C 340.794 49.949,339.928 46.682,339.608 46.195 C 339.375 45.839,339.358 45.839,339.458 46.195 M59.938 47.655 C 59.695 48.489,59.550 49.226,59.616 49.291 C 59.682 49.357,59.931 48.725,60.169 47.886 C 60.408 47.048,60.552 46.311,60.491 46.250 C 60.429 46.188,60.180 46.820,59.938 47.655 M341.156 52.060 C 341.248 52.569,341.487 53.410,341.689 53.929 L 342.055 54.873 341.888 53.948 C 341.796 53.439,341.557 52.598,341.355 52.079 L 340.989 51.135 341.156 52.060 M58.094 53.955 C 57.842 54.854,57.688 55.641,57.753 55.705 C 57.817 55.770,58.076 55.087,58.328 54.189 C 58.580 53.291,58.734 52.503,58.669 52.439 C 58.605 52.374,58.346 53.057,58.094 53.955 M56.737 58.650 C 56.497 59.510,56.234 60.454,56.154 60.748 C 56.074 61.041,56.087 61.208,56.184 61.117 C 56.426 60.890,57.427 57.338,57.287 57.198 C 57.225 57.136,56.978 57.789,56.737 58.650 M342.656 57.424 C 342.735 57.652,343.010 58.586,343.266 59.501 C 343.523 60.415,343.781 61.115,343.840 61.056 C 344.004 60.892,343.068 57.579,342.773 57.276 C 342.601 57.101,342.561 57.151,342.656 57.424 M56.655 63.351 C 56.363 64.269,55.637 66.702,55.041 68.758 C 50.624 83.997,48.757 90.408,48.197 92.256 C 47.842 93.431,47.202 95.594,46.775 97.063 L 46.000 99.733 54.642 99.803 C 59.395 99.842,63.284 99.968,63.284 100.082 C 63.284 100.197,60.933 109.658,58.059 121.107 C 55.185 132.555,51.498 147.270,49.865 153.805 C 48.233 160.340,46.849 165.748,46.791 165.821 C 46.733 165.895,42.163 166.015,36.636 166.088 L 26.587 166.222 26.016 168.224 C 25.702 169.326,24.636 172.991,23.647 176.368 C 22.659 179.746,21.448 183.892,20.956 185.581 C 19.634 190.124,18.768 193.082,17.710 196.662 C 17.189 198.425,16.493 200.828,16.164 202.003 C 15.835 203.178,15.475 204.349,15.364 204.606 C 15.173 205.049,16.580 205.073,42.782 205.073 L 70.401 205.073 71.237 201.135 C 71.696 198.969,72.441 195.394,72.892 193.191 C 73.343 190.988,74.012 187.744,74.380 185.981 C 74.748 184.219,76.664 174.907,78.638 165.287 C 80.612 155.668,82.526 146.355,82.892 144.593 C 83.257 142.830,83.924 139.586,84.375 137.383 C 84.825 135.180,85.494 131.936,85.862 130.174 C 87.220 123.667,92.718 96.959,93.338 93.858 C 93.690 92.096,94.467 88.311,95.063 85.447 C 95.660 82.583,96.437 78.798,96.790 77.036 C 97.143 75.274,97.979 71.189,98.649 67.958 C 99.319 64.727,99.866 61.994,99.866 61.883 C 99.866 61.773,90.263 61.682,78.526 61.682 L 57.186 61.682 56.655 63.351 M300.029 63.885 C 300.231 64.950,300.635 66.903,300.927 68.224 C 301.437 70.533,307.264 98.820,308.023 102.670 C 308.225 103.698,308.884 106.883,309.486 109.746 C 310.088 112.610,310.932 116.696,311.361 118.825 C 312.620 125.067,314.257 133.031,318.962 155.808 C 319.933 160.507,321.009 165.734,321.353 167.423 C 322.464 172.884,323.597 178.415,324.416 182.377 C 324.856 184.506,325.511 187.690,325.872 189.453 C 328.205 200.854,329.011 204.728,329.135 205.140 C 329.317 205.749,384.248 205.882,384.242 205.274 C 384.238 204.877,383.392 201.881,380.375 191.589 C 379.687 189.239,378.546 185.334,377.841 182.911 C 377.136 180.487,375.992 176.582,375.299 174.232 C 374.607 171.883,373.862 169.299,373.644 168.491 C 373.027 166.201,373.868 166.370,362.681 166.292 L 352.659 166.222 346.971 143.391 C 337.357 104.809,336.437 101.079,336.443 100.734 C 336.447 100.474,338.339 100.401,344.993 100.401 C 354.686 100.401,353.870 100.652,353.026 97.920 C 352.744 97.008,352.131 94.940,351.664 93.324 C 351.196 91.709,350.478 89.246,350.067 87.850 C 348.847 83.702,347.502 79.097,346.599 75.968 C 346.132 74.352,345.534 72.310,345.269 71.429 C 345.004 70.547,344.274 68.054,343.648 65.888 L 342.508 61.949 321.085 61.949 L 299.662 61.949 300.029 63.885 M55.007 64.352 C 54.692 65.409,54.484 66.322,54.545 66.383 C 54.606 66.444,54.915 65.631,55.232 64.577 C 55.548 63.523,55.756 62.610,55.693 62.547 C 55.630 62.484,55.321 63.296,55.007 64.352 M344.200 62.573 C 344.185 62.985,345.343 66.762,345.451 66.654 C 345.588 66.517,344.752 63.277,344.443 62.750 C 344.314 62.530,344.205 62.450,344.200 62.573 M345.980 68.758 C 346.071 69.199,346.306 69.980,346.503 70.494 L 346.861 71.429 346.697 70.494 C 346.606 69.980,346.371 69.199,346.175 68.758 L 345.817 67.957 345.980 68.758 M53.262 70.352 C 53.020 71.186,52.875 71.922,52.940 71.988 C 53.006 72.054,53.255 71.421,53.494 70.583 C 53.732 69.745,53.877 69.008,53.815 68.946 C 53.754 68.885,53.505 69.517,53.262 70.352 M347.469 73.965 C 347.531 74.186,347.798 75.179,348.064 76.172 C 348.329 77.165,348.594 77.930,348.654 77.870 C 348.805 77.720,347.939 74.453,347.619 73.965 C 347.385 73.609,347.369 73.609,347.469 73.965 M51.727 75.567 C 51.009 78.051,50.972 78.752,51.671 76.636 C 52.035 75.534,52.293 74.513,52.243 74.366 C 52.193 74.219,51.961 74.760,51.727 75.567 M349.075 79.654 C 349.148 79.845,349.418 80.749,349.675 81.664 C 349.931 82.578,350.198 83.269,350.268 83.199 C 350.428 83.039,349.304 79.306,349.096 79.306 C 349.011 79.306,349.002 79.462,349.075 79.654 M49.970 81.626 C 49.663 82.756,49.458 83.726,49.514 83.782 C 49.609 83.877,50.189 82.042,50.613 80.307 C 51.023 78.630,50.485 79.735,49.970 81.626 M48.752 85.743 C 48.370 86.872,47.801 89.055,47.824 89.301 C 47.838 89.458,48.135 88.692,48.483 87.598 C 48.832 86.505,49.063 85.556,48.997 85.490 C 48.932 85.425,48.821 85.538,48.752 85.743 M351.036 86.239 C 351.127 86.748,351.367 87.589,351.568 88.108 L 351.934 89.052 351.768 88.127 C 351.676 87.618,351.437 86.777,351.235 86.258 L 350.869 85.314 351.036 86.239 M46.854 92.247 C 46.611 93.082,46.466 93.818,46.532 93.884 C 46.598 93.950,46.846 93.317,47.085 92.479 C 47.324 91.640,47.468 90.904,47.407 90.842 C 47.345 90.781,47.096 91.413,46.854 92.247 M352.474 91.255 C 352.476 91.365,352.715 92.176,353.006 93.057 C 353.521 94.619,353.506 94.066,352.979 92.056 C 352.745 91.163,352.464 90.718,352.474 91.255 M353.805 95.687 C 353.805 96.152,355.229 100.935,355.336 100.828 C 355.402 100.762,355.135 99.587,354.741 98.217 C 354.093 95.961,353.805 95.184,353.805 95.687 M45.146 98.133 C 44.842 99.117,44.605 100.060,44.619 100.228 C 44.634 100.397,44.931 99.639,45.279 98.546 C 45.628 97.453,45.864 96.510,45.805 96.451 C 45.747 96.392,45.450 97.149,45.146 98.133 M45.294 102.203 C 44.946 103.281,43.355 108.733,40.716 117.891 C 40.377 119.065,39.677 121.469,39.159 123.231 C 38.641 124.993,37.622 128.478,36.894 130.975 C 36.166 133.471,35.005 137.437,34.315 139.786 C 32.985 144.311,32.155 147.165,31.096 150.868 C 30.738 152.116,29.677 155.760,28.736 158.965 C 27.580 162.905,27.126 164.830,27.333 164.909 C 27.502 164.974,31.781 164.996,36.842 164.957 L 46.045 164.887 52.206 140.320 C 55.595 126.809,59.173 112.560,60.158 108.656 C 61.143 104.753,61.949 101.418,61.949 101.247 C 61.949 101.015,59.845 100.935,53.827 100.935 L 45.704 100.935 45.294 102.203 M337.702 101.398 C 337.602 101.570,343.900 127.150,351.492 157.410 L 353.435 165.154 362.966 165.224 C 371.024 165.283,372.497 165.236,372.497 164.917 C 372.497 164.710,372.023 162.936,371.444 160.975 C 369.145 153.184,367.100 146.197,365.557 140.854 C 364.666 137.770,363.582 134.045,363.149 132.577 C 362.716 131.108,361.928 128.405,361.398 126.569 C 360.868 124.733,360.211 122.510,359.938 121.629 C 359.665 120.748,358.523 116.842,357.400 112.951 C 356.276 109.059,355.038 104.853,354.647 103.605 L 353.936 101.335 345.878 101.264 C 341.446 101.226,337.767 101.286,337.702 101.398 M194.259 101.871 C 178.055 104.946,166.739 121.144,169.045 137.965 C 171.081 152.822,183.684 164.957,197.730 165.586 L 199.332 165.658 199.401 150.797 L 199.470 135.936 198.867 135.615 C 197.258 134.757,197.095 132.867,198.531 131.720 L 199.466 130.975 199.466 116.222 L 199.466 101.469 197.797 101.493 C 196.879 101.506,195.287 101.676,194.259 101.871 M200.267 116.279 L 200.267 131.089 200.868 131.409 C 202.609 132.337,202.608 134.686,200.866 135.615 L 200.263 135.936 200.332 150.797 L 200.401 165.658 202.003 165.586 C 214.118 165.044,225.870 155.543,229.456 143.391 C 230.743 139.030,230.841 138.332,230.841 133.511 C 230.841 128.691,230.743 127.993,229.456 123.632 C 225.847 111.401,213.416 101.488,201.669 101.471 L 200.267 101.469 200.267 116.279 M43.511 103.591 C 43.191 104.642,42.985 105.557,43.052 105.624 C 43.119 105.691,43.433 104.884,43.750 103.830 C 44.066 102.776,44.273 101.861,44.208 101.796 C 44.144 101.732,43.830 102.539,43.511 103.591 M355.780 102.670 C 356.185 104.320,356.805 106.301,356.890 106.217 C 357.029 106.077,356.209 103.017,355.903 102.537 C 355.703 102.222,355.677 102.251,355.780 102.670 M90.940 110.499 C 90.032 114.873,89.330 118.271,85.439 137.116 C 83.801 145.047,82.176 152.977,81.826 154.740 C 81.477 156.502,81.109 158.233,81.008 158.586 C 80.606 159.992,86.651 157.901,90.713 155.229 C 108.699 143.398,109.383 117.293,91.977 107.010 C 91.802 106.906,91.417 108.199,90.940 110.499 M305.736 108.656 C 290.440 120.145,291.217 142.499,307.335 154.628 C 310.368 156.911,317.855 160.205,318.514 159.546 C 318.634 159.425,318.059 156.385,316.416 148.465 C 315.822 145.601,314.995 141.575,314.577 139.519 C 313.820 135.791,311.653 125.238,309.263 113.639 C 307.822 106.648,308.026 106.936,305.736 108.656 M41.974 108.812 C 41.424 110.847,41.400 111.475,41.932 109.895 C 42.226 109.022,42.421 108.181,42.364 108.026 C 42.308 107.871,42.132 108.224,41.974 108.812 M357.462 108.545 C 357.553 108.985,357.788 109.766,357.985 110.280 L 358.343 111.215 358.179 110.280 C 358.088 109.766,357.853 108.985,357.657 108.545 L 357.299 107.744 357.462 108.545 M358.900 113.351 C 358.890 113.498,359.177 114.519,359.539 115.621 C 359.900 116.722,360.126 117.214,360.041 116.714 C 359.869 115.703,358.928 112.931,358.900 113.351 M40.178 114.944 C 39.935 115.779,39.797 116.522,39.870 116.595 C 39.944 116.668,40.202 116.046,40.445 115.211 C 40.688 114.377,40.826 113.634,40.753 113.561 C 40.679 113.487,40.421 114.110,40.178 114.944 M38.601 120.444 C 38.349 121.342,38.196 122.130,38.260 122.194 C 38.324 122.258,38.583 121.576,38.835 120.678 C 39.087 119.779,39.241 118.992,39.177 118.927 C 39.112 118.863,38.854 119.546,38.601 120.444 M360.583 119.226 C 361.039 121.124,361.640 123.095,361.734 123.001 C 361.884 122.851,361.032 119.596,360.711 119.092 C 360.509 118.777,360.482 118.805,360.583 119.226 M37.041 125.768 C 36.319 128.262,36.278 128.946,36.977 126.836 C 37.341 125.734,37.600 124.713,37.553 124.566 C 37.505 124.419,37.275 124.960,37.041 125.768 M362.378 125.501 C 362.385 125.721,362.560 126.322,362.768 126.836 L 363.146 127.770 362.984 126.836 C 362.801 125.776,362.357 124.798,362.378 125.501 M35.667 130.336 C 35.331 131.323,34.957 133.044,35.057 133.143 C 35.119 133.205,35.365 132.570,35.603 131.731 C 35.976 130.421,36.028 129.274,35.667 130.336 M363.952 130.953 C 363.952 131.397,365.112 135.111,365.217 135.005 C 365.345 134.877,364.321 131.121,364.097 130.897 C 364.017 130.817,363.952 130.843,363.952 130.953 M63.175 132.844 C 63.581 133.462,63.581 133.561,63.175 134.179 C 62.437 135.306,60.614 134.831,60.614 133.511 C 60.614 132.192,62.437 131.717,63.175 132.844 M337.463 132.497 C 338.264 133.297,337.660 134.846,336.548 134.846 C 335.824 134.846,335.113 134.185,335.113 133.511 C 335.113 132.430,336.708 131.742,337.463 132.497 M198.665 132.977 C 198.462 133.357,198.462 133.666,198.665 134.045 C 199.121 134.897,199.466 134.667,199.466 133.511 C 199.466 132.356,199.121 132.125,198.665 132.977 M200.267 133.511 C 200.267 134.667,200.612 134.897,201.068 134.045 C 201.271 133.666,201.271 133.357,201.068 132.977 C 200.612 132.125,200.267 132.356,200.267 133.511 M33.528 137.800 C 33.276 138.699,33.122 139.486,33.187 139.551 C 33.251 139.615,33.510 138.932,33.762 138.034 C 34.014 137.136,34.167 136.348,34.103 136.284 C 34.039 136.220,33.780 136.902,33.528 137.800 M365.704 136.849 C 365.776 137.290,366.069 138.371,366.356 139.252 C 366.642 140.134,366.804 140.434,366.715 139.920 C 366.627 139.406,366.334 138.324,366.064 137.517 C 365.793 136.709,365.631 136.409,365.704 136.849 M32.203 142.361 C 31.640 144.352,31.408 145.418,31.574 145.260 C 31.791 145.055,32.846 141.169,32.720 141.042 C 32.659 140.981,32.426 141.574,32.203 142.361 M367.299 142.486 C 367.657 143.962,368.210 145.412,368.051 144.459 C 367.965 143.945,367.730 143.164,367.528 142.724 C 367.327 142.283,367.223 142.176,367.299 142.486 M30.454 148.344 C 30.123 149.458,29.906 150.422,29.971 150.488 C 30.036 150.553,30.356 149.690,30.681 148.571 C 31.006 147.452,31.223 146.488,31.164 146.428 C 31.104 146.369,30.785 147.231,30.454 148.344 M368.924 148.172 C 369.013 148.672,369.312 149.693,369.588 150.442 C 369.958 151.443,370.048 151.562,369.928 150.893 C 369.839 150.393,369.540 149.372,369.264 148.624 C 368.894 147.623,368.804 147.503,368.924 148.172 M28.841 153.845 C 28.676 154.484,28.416 155.405,28.263 155.892 C 28.110 156.380,28.037 156.831,28.102 156.896 C 28.167 156.961,28.487 156.099,28.812 154.980 C 29.137 153.861,29.344 152.886,29.272 152.814 C 29.200 152.742,29.006 153.206,28.841 153.845 M370.463 153.405 C 370.919 155.303,371.520 157.274,371.614 157.180 C 371.764 157.030,370.912 153.775,370.590 153.271 C 370.389 152.956,370.362 152.984,370.463 153.405 M27.094 159.804 C 26.851 160.639,26.707 161.375,26.772 161.441 C 26.838 161.506,27.087 160.874,27.325 160.036 C 27.564 159.197,27.709 158.461,27.647 158.399 C 27.585 158.337,27.336 158.970,27.094 159.804 M372.065 159.012 C 372.521 160.911,373.122 162.881,373.216 162.787 C 373.366 162.637,372.514 159.382,372.193 158.879 C 371.991 158.563,371.964 158.591,372.065 159.012 M25.789 164.247 C 25.509 165.076,25.105 166.772,25.126 167.023 C 25.139 167.170,25.373 166.574,25.648 165.699 C 26.061 164.381,26.189 163.057,25.789 164.247 M373.904 165.287 C 373.966 165.507,374.234 166.500,374.499 167.494 C 374.764 168.487,375.030 169.252,375.089 169.192 C 375.240 169.041,374.374 165.775,374.054 165.287 C 373.821 164.931,373.804 164.931,373.904 165.287 M23.957 170.628 C 23.238 173.111,23.202 173.812,23.901 171.696 C 24.265 170.594,24.522 169.573,24.472 169.426 C 24.423 169.279,24.191 169.820,23.957 170.628 M375.188 169.693 C 375.178 169.840,375.466 170.861,375.827 171.963 C 376.189 173.064,376.415 173.556,376.329 173.056 C 376.157 172.045,375.216 169.273,375.188 169.693 M22.323 176.273 C 21.760 178.264,21.529 179.330,21.695 179.172 C 21.911 178.967,22.967 175.080,22.840 174.954 C 22.779 174.893,22.546 175.486,22.323 176.273 M377.182 176.826 C 377.286 177.298,377.537 178.109,377.741 178.629 C 378.159 179.693,378.077 179.000,377.545 176.969 C 377.225 175.748,376.919 175.628,377.182 176.826 M20.579 182.245 C 20.275 183.230,20.039 184.172,20.053 184.341 C 20.068 184.509,20.365 183.752,20.713 182.658 C 21.062 181.565,21.298 180.622,21.239 180.563 C 21.180 180.504,20.883 181.261,20.579 182.245 M378.737 182.211 C 378.835 182.487,379.048 183.242,379.211 183.890 C 379.374 184.537,379.558 185.017,379.619 184.956 C 379.794 184.781,379.130 182.273,378.830 181.976 C 378.648 181.797,378.618 181.873,378.737 182.211 M19.119 187.221 C 18.555 189.212,18.324 190.277,18.490 190.120 C 18.707 189.915,19.762 186.028,19.636 185.902 C 19.574 185.841,19.342 186.434,19.119 187.221 M380.323 187.583 C 380.404 187.877,380.676 188.872,380.927 189.794 C 381.178 190.716,381.436 191.417,381.501 191.352 C 381.645 191.208,380.601 187.450,380.352 187.216 C 380.254 187.125,380.241 187.290,380.323 187.583 M17.206 193.745 C 16.968 194.563,16.836 195.296,16.914 195.374 C 16.991 195.451,17.190 194.992,17.355 194.353 C 17.520 193.714,17.716 192.981,17.791 192.724 C 17.865 192.467,17.862 192.256,17.782 192.256 C 17.703 192.256,17.444 192.926,17.206 193.745 M381.915 193.057 C 381.977 193.278,382.244 194.271,382.510 195.264 C 382.775 196.258,383.040 197.022,383.100 196.963 C 383.250 196.812,382.385 193.545,382.065 193.057 C 381.831 192.701,381.815 192.701,381.915 193.057 M15.805 198.531 C 15.258 200.560,15.226 201.196,15.753 199.599 C 16.043 198.718,16.239 197.877,16.187 197.730 C 16.136 197.583,15.964 197.944,15.805 198.531 M383.541 198.865 C 384.113 200.883,384.625 202.380,384.713 202.292 C 384.852 202.153,383.729 198.398,383.549 198.398 C 383.472 198.398,383.468 198.608,383.541 198.865 M14.037 204.562 C 13.807 205.337,13.627 206.160,13.639 206.390 C 13.650 206.621,13.887 206.035,14.166 205.089 C 14.445 204.143,14.624 203.320,14.564 203.260 C 14.504 203.201,14.267 203.786,14.037 204.562 M385.500 205.474 C 385.590 205.915,385.825 206.696,386.022 207.210 L 386.380 208.144 386.216 207.210 C 386.126 206.696,385.891 205.915,385.694 205.474 L 385.336 204.673 385.500 205.474 M12.475 210.147 C 11.756 212.630,11.720 213.332,12.419 211.215 C 12.783 210.113,13.040 209.092,12.990 208.945 C 12.941 208.798,12.709 209.339,12.475 210.147 M387.062 211.005 C 387.166 211.477,387.417 212.288,387.621 212.808 C 388.039 213.872,387.957 213.179,387.425 211.148 C 387.105 209.927,386.799 209.807,387.062 211.005 M10.797 215.908 C 10.559 216.726,10.428 217.459,10.505 217.537 C 10.583 217.614,10.781 217.155,10.946 216.516 C 11.112 215.877,11.308 215.144,11.382 214.887 C 11.457 214.630,11.453 214.419,11.374 214.419 C 11.295 214.419,11.035 215.089,10.797 215.908 M388.518 215.866 C 388.518 216.281,389.674 220.028,389.772 219.930 C 389.891 219.811,388.865 216.012,388.658 215.805 C 388.581 215.728,388.518 215.756,388.518 215.866 M9.079 221.896 C 8.764 222.952,8.556 223.866,8.617 223.926 C 8.677 223.987,8.980 223.168,9.290 222.107 C 9.599 221.046,9.807 220.132,9.752 220.076 C 9.696 220.021,9.393 220.840,9.079 221.896 M390.125 221.562 C 390.128 221.672,390.429 222.664,390.794 223.765 C 391.158 224.866,391.391 225.407,391.311 224.967 C 390.962 223.043,390.100 220.569,390.125 221.562 M7.637 226.740 C 7.060 228.778,6.844 229.794,7.020 229.636 C 7.245 229.434,8.290 225.558,8.156 225.424 C 8.094 225.361,7.860 225.954,7.637 226.740 M391.908 227.637 C 391.999 228.077,392.234 228.858,392.431 229.372 L 392.789 230.307 392.625 229.372 C 392.534 228.858,392.299 228.077,392.102 227.637 L 391.744 226.836 391.908 227.637 M5.750 233.253 C 5.507 234.088,5.365 234.826,5.433 234.895 C 5.502 234.963,5.757 234.337,5.999 233.502 C 6.242 232.668,6.384 231.929,6.316 231.861 C 6.247 231.792,5.992 232.419,5.750 233.253 M393.430 232.977 C 393.835 234.627,394.455 236.608,394.540 236.524 C 394.679 236.384,393.859 233.324,393.554 232.844 C 393.354 232.529,393.327 232.558,393.430 232.977 M4.156 238.735 C 3.903 239.633,3.750 240.421,3.814 240.485 C 3.878 240.549,4.137 239.867,4.389 238.969 C 4.641 238.070,4.795 237.283,4.731 237.218 C 4.666 237.154,4.408 237.837,4.156 238.735 M395.003 238.532 C 395.076 238.723,395.346 239.628,395.603 240.542 C 395.859 241.456,396.126 242.147,396.196 242.078 C 396.356 241.917,395.232 238.184,395.024 238.184 C 394.939 238.184,394.929 238.341,395.003 238.532 M2.578 244.106 C 1.989 246.158,1.772 247.149,1.947 246.992 C 2.162 246.798,3.220 242.917,3.092 242.789 C 3.034 242.731,2.803 243.324,2.578 244.106 M396.631 243.925 C 397.087 245.824,397.688 247.795,397.783 247.700 C 397.932 247.550,397.080 244.295,396.759 243.792 C 396.557 243.476,396.530 243.505,396.631 243.925 M2.712 248.263 C 2.577 248.521,2.383 249.122,2.280 249.599 L 2.094 250.467 3.717 250.467 C 5.471 250.467,5.670 250.256,4.924 249.190 C 4.227 248.195,3.014 247.686,2.712 248.263 M395.855 248.485 C 395.088 248.878,394.144 249.854,394.131 250.267 C 394.128 250.377,394.856 250.467,395.749 250.467 L 397.372 250.467 397.187 249.599 C 396.874 248.136,396.746 248.029,395.855 248.485 M1.217 248.665 C 1.161 248.848,0.984 249.409,0.823 249.910 C 0.491 250.949,0.663 251.408,1.022 250.438 C 1.395 249.425,1.626 248.331,1.465 248.331 C 1.384 248.331,1.273 248.481,1.217 248.665 M398.515 250.534 L 398.675 251.268 199.538 251.335 L 0.401 251.402 199.666 251.469 C 389.292 251.532,398.932 251.513,398.928 251.068 C 398.926 250.811,398.796 250.421,398.639 250.200 C 398.420 249.892,398.391 249.969,398.515 250.534 " stroke="none" fill="#00a93a" fill-rule="evenodd"></path></g></svg>