<svg id="svg" version="1.1" xmlns="http://www.w3.org/2000/svg" xmlns:xlink="http://www.w3.org/1999/xlink" width="400" height="266.6666666666667" viewBox="0, 0, 400,266.6666666666667"><g id="svgg"><path id="path0" d="M90.878 24.269 C 90.791 24.442,90.213 26.271,89.592 28.333 C 88.972 30.396,88.175 33.021,87.823 34.167 C 87.100 36.513,85.526 41.694,84.885 43.833 C 84.652 44.612,84.323 45.700,84.154 46.250 C 83.484 48.430,80.624 57.834,80.225 59.167 C 79.992 59.946,79.660 61.033,79.487 61.583 C 79.314 62.133,78.606 64.458,77.912 66.750 C 77.219 69.042,76.434 71.629,76.168 72.500 C 75.284 75.394,72.655 84.062,72.225 85.500 C 71.992 86.279,71.660 87.367,71.487 87.917 C 71.314 88.467,70.456 91.279,69.581 94.167 C 66.885 103.062,65.061 109.062,63.983 112.583 C 63.618 113.775,63.138 115.350,62.916 116.083 C 62.290 118.152,55.557 140.314,54.738 143.000 C 53.630 146.634,51.231 154.533,50.892 155.667 C 50.659 156.446,50.327 157.533,50.154 158.083 C 49.868 158.994,47.893 165.494,46.913 168.750 C 46.579 169.859,43.762 179.126,42.252 184.083 C 40.230 190.721,38.580 196.145,38.248 197.250 C 38.027 197.983,37.127 200.946,36.248 203.833 C 35.369 206.721,34.468 209.683,34.247 210.417 C 34.026 211.150,33.126 214.112,32.246 217.000 C 31.367 219.887,30.457 222.887,30.224 223.667 C 29.992 224.446,29.512 226.021,29.158 227.167 C 28.804 228.313,27.947 231.125,27.253 233.417 C 25.362 239.664,25.234 240.086,24.574 242.250 C 24.238 243.350,23.953 244.315,23.940 244.394 C 23.912 244.565,65.369 244.547,161.833 244.335 C 200.471 244.250,264.952 244.129,305.125 244.066 C 371.149 243.963,378.167 243.927,378.167 243.692 C 378.167 243.549,377.822 242.191,377.401 240.674 C 376.615 237.839,376.106 235.999,374.752 231.083 C 373.224 225.537,372.815 224.057,372.242 222.000 C 371.923 220.854,371.294 218.567,370.844 216.917 C 370.395 215.267,369.416 211.704,368.669 209.000 C 367.923 206.296,367.013 202.996,366.647 201.667 C 366.282 200.338,365.693 198.200,365.339 196.917 C 364.985 195.633,364.385 193.458,364.006 192.083 C 363.627 190.708,363.016 188.496,362.650 187.167 C 362.283 185.838,361.693 183.700,361.340 182.417 C 360.986 181.133,360.343 178.808,359.912 177.250 C 359.481 175.692,359.071 174.192,359.000 173.917 C 358.929 173.642,358.629 172.554,358.333 171.500 C 358.038 170.446,357.738 169.358,357.667 169.083 C 357.543 168.602,356.421 164.539,355.550 161.417 C 355.320 160.592,355.073 159.692,355.001 159.417 C 354.930 159.142,354.519 157.642,354.088 156.083 C 353.329 153.340,352.774 151.331,351.328 146.083 C 350.038 141.404,349.306 138.753,348.637 136.333 C 348.269 135.004,347.681 132.867,347.329 131.583 C 346.978 130.300,346.340 127.975,345.912 126.417 C 345.483 124.858,345.075 123.358,345.004 123.083 C 344.934 122.808,344.604 121.608,344.271 120.417 C 343.939 119.225,343.511 117.688,343.321 117.000 C 343.131 116.313,342.837 115.263,342.669 114.667 C 342.501 114.071,342.163 112.833,341.918 111.917 C 341.673 111.000,341.374 109.912,341.252 109.500 C 341.131 109.087,340.829 108.000,340.583 107.083 C 340.336 106.167,339.885 104.517,339.579 103.417 C 339.274 102.317,338.675 100.142,338.247 98.583 C 337.820 97.025,337.220 94.850,336.914 93.750 C 336.608 92.650,336.008 90.475,335.580 88.917 C 335.153 87.358,334.553 85.183,334.247 84.083 C 333.941 82.983,333.341 80.808,332.914 79.250 C 332.486 77.692,331.886 75.517,331.580 74.417 C 331.275 73.317,330.675 71.142,330.247 69.583 C 329.820 68.025,329.221 65.850,328.918 64.750 C 328.614 63.650,328.090 61.737,327.753 60.500 C 327.020 57.808,326.302 55.209,325.266 51.500 C 324.844 49.987,324.119 47.362,323.656 45.667 C 322.443 41.230,320.495 34.155,318.285 26.167 L 317.894 24.750 283.905 24.641 C 265.211 24.581,219.392 24.449,182.083 24.349 C 144.775 24.249,109.027 24.119,102.643 24.061 C 91.384 23.958,91.031 23.965,90.878 24.269 M177.083 25.508 C 304.222 25.889,316.824 25.935,316.914 26.025 C 317.007 26.119,317.632 28.294,319.085 33.583 C 319.513 35.142,320.113 37.317,320.419 38.417 C 320.724 39.517,321.251 41.429,321.589 42.667 C 321.928 43.904,322.528 46.079,322.922 47.500 C 323.874 50.931,324.834 54.414,325.586 57.167 C 327.007 62.363,327.559 64.363,328.118 66.333 C 328.443 67.479,328.803 68.792,328.918 69.250 C 329.034 69.708,329.435 71.190,329.811 72.542 C 330.456 74.863,330.933 76.587,332.483 82.209 C 332.843 83.515,333.491 85.858,333.923 87.417 C 334.356 88.975,334.808 90.625,334.928 91.083 C 335.049 91.542,335.294 92.442,335.473 93.083 C 335.814 94.306,336.604 97.156,337.921 101.917 C 338.352 103.475,338.763 104.975,338.833 105.250 C 338.904 105.525,339.204 106.612,339.499 107.667 C 339.794 108.721,340.132 109.958,340.251 110.417 C 340.370 110.875,340.781 112.375,341.166 113.750 C 341.551 115.125,342.152 117.300,342.503 118.583 C 342.853 119.867,343.453 122.042,343.836 123.417 C 344.219 124.792,344.819 126.967,345.169 128.250 C 345.520 129.533,346.117 131.708,346.497 133.083 C 346.876 134.458,347.288 135.958,347.413 136.417 C 347.537 136.875,347.838 137.962,348.081 138.833 C 348.325 139.704,348.811 141.467,349.163 142.750 C 349.774 144.984,350.173 146.430,351.921 152.750 C 352.352 154.308,352.763 155.808,352.833 156.083 C 352.904 156.358,353.204 157.446,353.500 158.500 C 353.796 159.554,354.096 160.642,354.167 160.917 C 354.238 161.192,354.538 162.279,354.833 163.333 C 355.129 164.387,355.429 165.475,355.500 165.750 C 355.571 166.025,355.981 167.525,356.412 169.083 C 356.843 170.642,357.496 173.004,357.862 174.333 C 358.228 175.662,358.818 177.800,359.172 179.083 C 359.527 180.367,360.127 182.542,360.506 183.917 C 360.885 185.292,361.485 187.467,361.839 188.750 C 363.043 193.111,363.811 195.910,364.653 199.000 C 365.528 202.213,365.979 203.839,366.501 205.667 C 366.671 206.262,367.118 207.875,367.494 209.250 C 367.870 210.625,368.466 212.800,368.819 214.083 C 369.172 215.367,369.739 217.429,370.077 218.667 C 370.416 219.904,371.016 222.079,371.411 223.500 C 371.805 224.921,372.405 227.096,372.742 228.333 C 373.080 229.571,373.534 231.221,373.751 232.000 C 373.968 232.779,374.567 234.954,375.082 236.833 C 375.597 238.713,376.169 240.764,376.353 241.393 C 376.536 242.021,376.650 242.572,376.605 242.618 C 376.455 242.768,25.737 243.459,25.588 243.310 C 25.552 243.274,25.969 241.784,26.514 239.998 C 27.059 238.211,27.651 236.262,27.830 235.667 C 28.499 233.430,31.354 224.044,31.657 223.083 C 31.831 222.533,32.164 221.446,32.397 220.667 C 32.753 219.477,34.901 212.392,36.413 207.417 C 36.636 206.683,37.536 203.721,38.413 200.833 C 39.290 197.946,40.148 195.133,40.319 194.583 C 40.490 194.033,40.822 192.946,41.058 192.167 C 42.119 188.657,44.565 180.602,45.006 179.167 C 45.273 178.296,46.208 175.221,47.083 172.333 C 47.959 169.446,48.858 166.483,49.082 165.750 C 49.305 165.017,50.286 161.792,51.260 158.583 C 52.234 155.375,53.853 150.050,54.858 146.750 C 55.863 143.450,56.866 140.150,57.087 139.417 C 57.422 138.303,60.282 128.896,61.748 124.083 C 61.971 123.350,62.872 120.388,63.750 117.500 C 64.628 114.612,65.529 111.650,65.752 110.917 C 67.444 105.362,70.264 96.072,71.823 90.917 C 72.848 87.525,73.752 84.563,73.831 84.333 C 73.910 84.104,74.171 83.242,74.412 82.417 C 74.653 81.592,74.952 80.617,75.075 80.250 C 75.199 79.883,75.955 77.408,76.754 74.750 C 77.969 70.710,79.402 65.988,82.419 56.083 C 82.643 55.350,83.542 52.387,84.419 49.500 C 85.296 46.612,86.196 43.650,86.419 42.917 C 88.329 36.646,90.756 28.658,91.103 27.500 C 91.336 26.721,91.594 25.915,91.677 25.708 L 91.826 25.333 105.288 25.333 C 112.692 25.334,145.000 25.412,177.083 25.508 " stroke="none" fill="#ecf6ef" fill-rule="evenodd"></path><path id="path1" d="M90.776 23.958 C 90.705 24.072,97.898 24.070,107.167 23.955 C 109.138 23.930,106.273 23.893,100.802 23.872 C 95.330 23.851,90.818 23.890,90.776 23.958 M146.031 24.125 C 147.835 24.152,150.835 24.152,152.697 24.125 C 154.560 24.098,153.083 24.076,149.417 24.076 C 145.750 24.076,144.226 24.098,146.031 24.125 M208.792 24.291 C 210.740 24.318,213.927 24.318,215.875 24.291 C 217.823 24.265,216.229 24.243,212.333 24.243 C 208.438 24.243,206.844 24.265,208.792 24.291 M261.458 24.458 C 266.706 24.483,275.294 24.483,280.542 24.458 C 285.790 24.434,281.496 24.414,271.000 24.414 C 260.504 24.414,256.210 24.434,261.458 24.458 M310.250 24.617 C 314.421 24.735,318.129 24.739,318.058 24.625 C 318.015 24.556,315.866 24.516,313.282 24.535 C 310.698 24.554,309.333 24.592,310.250 24.617 M91.445 27.015 C 91.185 27.877,90.911 28.771,90.835 29.000 C 90.760 29.229,90.507 30.054,90.274 30.833 C 89.647 32.927,87.871 38.765,87.511 39.917 C 87.338 40.467,87.034 41.479,86.833 42.167 C 86.633 42.854,86.328 43.867,86.156 44.417 C 85.796 45.568,84.020 51.406,83.393 53.500 C 83.160 54.279,82.906 55.104,82.828 55.333 C 82.751 55.563,82.488 56.425,82.244 57.250 C 82.001 58.075,81.661 59.200,81.490 59.750 C 81.319 60.300,80.873 61.762,80.499 63.000 C 80.125 64.237,79.700 65.625,79.554 66.083 C 79.409 66.542,79.195 67.254,79.078 67.667 C 78.747 68.836,77.879 71.712,77.167 74.000 C 76.384 76.513,75.361 79.875,74.756 81.917 C 74.512 82.742,74.247 83.604,74.167 83.833 C 74.087 84.063,73.832 84.887,73.601 85.667 C 73.370 86.446,72.797 88.321,72.327 89.833 C 71.856 91.346,71.361 92.996,71.226 93.500 C 71.092 94.004,70.879 94.717,70.754 95.083 C 70.629 95.450,70.362 96.313,70.161 97.000 C 69.960 97.688,69.697 98.550,69.577 98.917 C 69.457 99.283,69.158 100.258,68.913 101.083 C 68.667 101.908,68.170 103.558,67.807 104.750 C 67.445 105.942,66.958 107.554,66.725 108.333 C 66.493 109.112,66.239 109.938,66.162 110.167 C 66.084 110.396,65.832 111.221,65.602 112.000 C 65.371 112.779,64.725 114.917,64.167 116.750 C 63.608 118.583,62.959 120.721,62.724 121.500 C 62.490 122.279,62.198 123.217,62.076 123.583 C 61.955 123.950,61.658 124.925,61.417 125.750 C 61.176 126.575,60.916 127.438,60.838 127.667 C 60.761 127.896,60.507 128.721,60.275 129.500 C 60.042 130.279,59.555 131.892,59.193 133.083 C 58.830 134.275,58.331 135.925,58.083 136.750 C 57.835 137.575,57.495 138.700,57.328 139.250 C 57.160 139.800,56.751 141.150,56.417 142.250 C 56.084 143.350,55.711 144.550,55.588 144.917 C 55.465 145.283,55.125 146.408,54.833 147.417 C 54.541 148.425,54.202 149.550,54.079 149.917 C 53.956 150.283,53.658 151.258,53.417 152.083 C 53.176 152.908,52.916 153.771,52.838 154.000 C 52.761 154.229,52.507 155.054,52.275 155.833 C 51.678 157.832,50.545 161.566,50.176 162.750 C 50.005 163.300,49.700 164.313,49.499 165.000 C 49.298 165.688,48.957 166.813,48.742 167.500 C 48.527 168.188,47.932 170.137,47.421 171.833 C 46.910 173.529,46.351 175.367,46.178 175.917 C 46.006 176.467,45.666 177.592,45.422 178.417 C 45.178 179.242,44.913 180.104,44.833 180.333 C 44.753 180.563,44.499 181.387,44.268 182.167 C 44.038 182.946,43.392 185.083,42.833 186.917 C 42.274 188.750,41.626 190.887,41.393 191.667 C 41.160 192.446,40.906 193.271,40.828 193.500 C 40.751 193.729,40.488 194.592,40.244 195.417 C 40.001 196.242,39.661 197.367,39.490 197.917 C 39.070 199.266,37.968 202.908,37.423 204.750 C 37.179 205.575,36.913 206.438,36.833 206.667 C 36.753 206.896,36.488 207.758,36.244 208.583 C 36.001 209.408,35.661 210.533,35.490 211.083 C 35.319 211.633,34.873 213.096,34.500 214.333 C 34.127 215.571,33.681 217.033,33.510 217.583 C 33.339 218.133,32.996 219.258,32.749 220.083 C 32.501 220.908,32.091 222.258,31.838 223.083 C 31.584 223.908,31.184 225.221,30.948 226.000 C 30.712 226.779,30.222 228.392,29.860 229.583 C 29.497 230.775,28.998 232.425,28.750 233.250 C 28.234 234.965,27.988 235.769,26.912 239.250 C 25.885 242.570,25.772 242.995,25.888 243.110 C 25.941 243.164,70.070 243.123,123.951 243.020 C 177.832 242.917,256.229 242.793,298.167 242.743 C 340.104 242.694,374.877 242.614,375.440 242.566 L 376.464 242.477 376.217 241.614 C 376.082 241.139,375.831 240.225,375.661 239.583 C 375.490 238.942,375.202 237.892,375.021 237.250 C 374.435 235.177,373.311 231.107,373.087 230.250 C 372.967 229.792,372.627 228.554,372.332 227.500 C 372.037 226.446,371.737 225.358,371.665 225.083 C 371.594 224.808,371.335 223.871,371.090 223.000 C 370.845 222.129,370.507 220.892,370.339 220.250 C 370.170 219.608,369.830 218.371,369.582 217.500 C 369.334 216.629,369.072 215.692,369.000 215.417 C 368.928 215.142,368.668 214.204,368.423 213.333 C 368.178 212.463,367.841 211.225,367.673 210.583 C 367.505 209.942,367.053 208.292,366.668 206.917 C 366.283 205.542,365.681 203.367,365.331 202.083 C 364.980 200.800,364.380 198.625,363.997 197.250 C 363.614 195.875,363.014 193.700,362.664 192.417 C 362.313 191.133,361.712 188.958,361.327 187.583 C 360.943 186.208,360.531 184.708,360.414 184.250 C 360.296 183.792,360.010 182.742,359.779 181.917 C 358.544 177.516,357.939 175.332,357.747 174.583 C 357.629 174.125,357.334 173.037,357.090 172.167 C 356.847 171.296,356.536 170.171,356.399 169.667 C 356.263 169.162,355.890 167.813,355.571 166.667 C 355.252 165.521,354.838 164.021,354.650 163.333 C 354.463 162.646,354.205 161.708,354.077 161.250 C 353.696 159.884,352.739 156.404,352.083 154.000 C 351.401 151.496,350.446 148.025,350.089 146.750 C 349.591 144.971,348.996 142.815,348.341 140.417 C 347.965 139.042,347.553 137.542,347.424 137.083 C 346.605 134.176,345.379 129.734,345.078 128.583 C 344.958 128.125,344.711 127.225,344.531 126.583 C 343.857 124.188,342.624 119.721,342.414 118.917 C 342.295 118.458,341.996 117.371,341.749 116.500 C 341.502 115.629,341.202 114.542,341.081 114.083 C 340.859 113.239,339.891 109.730,339.081 106.833 C 338.838 105.962,338.531 104.847,338.400 104.355 C 338.268 103.862,337.965 102.775,337.727 101.938 C 337.489 101.101,337.197 100.042,337.078 99.583 C 336.835 98.645,335.876 95.153,334.836 91.417 C 334.453 90.042,333.853 87.867,333.503 86.583 C 333.152 85.300,332.553 83.125,332.171 81.750 C 331.362 78.840,330.025 73.974,329.835 73.250 C 329.763 72.975,329.461 71.887,329.164 70.833 C 328.867 69.779,328.527 68.542,328.408 68.083 C 328.288 67.625,327.990 66.537,327.744 65.667 C 327.499 64.796,327.239 63.858,327.167 63.583 C 327.094 63.308,326.835 62.371,326.590 61.500 C 326.135 59.883,324.740 54.820,324.500 53.917 C 324.326 53.260,322.985 48.385,322.139 45.333 C 321.771 44.004,321.330 42.392,321.160 41.750 C 320.990 41.108,320.703 40.058,320.523 39.417 C 318.765 33.150,317.526 28.643,317.225 27.417 C 317.090 26.867,316.890 26.332,316.781 26.229 C 316.636 26.092,294.378 25.992,232.917 25.852 C 186.900 25.747,136.350 25.613,120.583 25.554 L 91.917 25.446 91.445 27.015 M378.333 243.806 C 378.333 243.951,375.491 244.010,366.958 244.040 L 355.583 244.081 366.907 244.125 C 377.615 244.167,378.846 244.124,378.447 243.725 C 378.385 243.662,378.333 243.699,378.333 243.806 M285.195 244.292 C 292.040 244.316,303.290 244.316,310.195 244.292 C 317.100 244.268,311.500 244.248,297.750 244.248 C 284.000 244.248,278.350 244.268,285.195 244.292 M23.710 244.500 C 23.769 244.719,25.048 244.750,33.931 244.752 L 44.083 244.754 34.009 244.709 C 26.215 244.674,23.901 244.617,23.788 244.457 C 23.680 244.305,23.659 244.316,23.710 244.500 M209.863 244.458 C 213.591 244.483,219.741 244.483,223.529 244.458 C 227.317 244.433,224.267 244.413,216.750 244.413 C 209.233 244.413,206.134 244.433,209.863 244.458 M105.708 244.625 C 108.160 244.651,112.173 244.651,114.625 244.625 C 117.077 244.599,115.071 244.578,110.167 244.578 C 105.263 244.578,103.256 244.599,105.708 244.625 " stroke="none" fill="#04ab3c" fill-rule="evenodd"></path><path id="path2" d="M0.000 133.333 L 0.000 266.667 200.000 266.667 L 400.000 266.667 400.000 133.333 L 400.000 0.000 200.000 0.000 L 0.000 0.000 0.000 133.333 M197.417 24.175 C 239.675 24.276,284.110 24.409,296.160 24.471 L 318.071 24.583 318.631 26.667 C 318.939 27.813,319.340 29.275,319.522 29.917 C 319.704 30.558,319.953 31.458,320.075 31.917 C 320.198 32.375,320.463 33.350,320.665 34.083 C 320.867 34.817,321.206 36.054,321.418 36.833 C 321.771 38.129,322.816 41.918,323.442 44.167 C 323.582 44.671,323.871 45.721,324.083 46.500 C 324.446 47.827,325.534 51.767,326.108 53.833 C 326.249 54.337,326.537 55.387,326.750 56.167 C 327.491 58.882,327.676 59.550,328.083 61.000 C 328.491 62.450,328.675 63.118,329.417 65.833 C 329.629 66.612,329.918 67.662,330.058 68.167 C 330.633 70.233,331.721 74.173,332.083 75.500 C 332.296 76.279,332.585 77.329,332.725 77.833 C 333.300 79.900,334.388 83.840,334.750 85.167 C 334.963 85.946,335.251 86.996,335.392 87.500 C 335.966 89.567,337.054 93.507,337.417 94.833 C 337.629 95.612,337.929 96.700,338.082 97.250 C 338.234 97.800,338.501 98.775,338.674 99.417 C 338.847 100.058,339.136 101.108,339.316 101.750 C 339.497 102.392,339.766 103.367,339.914 103.917 C 340.488 106.039,341.716 110.495,342.304 112.583 C 342.484 113.225,342.946 114.912,343.331 116.333 C 343.715 117.754,344.172 119.423,344.348 120.042 C 345.014 122.394,345.320 123.495,346.000 126.000 C 346.386 127.421,346.849 129.108,347.030 129.750 C 347.688 132.092,347.838 132.634,348.591 135.417 C 349.013 136.975,349.500 138.737,349.673 139.333 C 349.846 139.929,350.033 140.642,350.090 140.917 C 350.146 141.192,350.255 141.567,350.332 141.750 C 350.409 141.933,350.553 142.421,350.653 142.833 C 350.837 143.597,351.144 144.734,351.891 147.417 C 352.402 149.252,353.605 153.614,353.913 154.750 C 354.037 155.208,354.338 156.296,354.581 157.167 C 354.825 158.037,355.163 159.275,355.332 159.917 C 355.502 160.558,355.803 161.646,356.000 162.333 C 356.197 163.021,356.459 163.958,356.582 164.417 C 356.705 164.875,357.005 165.962,357.248 166.833 C 357.491 167.704,357.830 168.942,358.000 169.583 C 358.170 170.225,358.510 171.463,358.756 172.333 C 359.522 175.053,360.200 177.519,360.657 179.250 C 360.827 179.892,361.129 180.979,361.329 181.667 C 361.528 182.354,361.792 183.292,361.915 183.750 C 362.038 184.208,362.337 185.296,362.580 186.167 C 362.823 187.037,363.159 188.275,363.327 188.917 C 363.495 189.558,363.947 191.208,364.332 192.583 C 364.717 193.958,365.320 196.133,365.671 197.417 C 366.023 198.700,366.624 200.875,367.006 202.250 C 367.759 204.955,368.164 206.430,368.652 208.250 C 368.824 208.892,369.282 210.542,369.669 211.917 C 370.056 213.292,370.469 214.792,370.586 215.250 C 370.704 215.708,371.002 216.796,371.249 217.667 C 371.496 218.537,371.794 219.625,371.912 220.083 C 372.030 220.542,372.398 221.892,372.730 223.083 C 373.062 224.275,373.489 225.813,373.679 226.500 C 373.868 227.188,374.127 228.125,374.254 228.583 C 374.381 229.042,374.679 230.129,374.915 231.000 C 375.152 231.871,375.454 232.958,375.587 233.417 C 375.720 233.875,376.022 234.963,376.259 235.833 C 376.866 238.067,377.102 238.917,377.485 240.250 C 377.670 240.892,377.869 241.642,377.929 241.917 C 377.988 242.192,378.144 242.747,378.275 243.151 C 378.407 243.555,378.455 243.944,378.382 244.015 C 378.309 244.086,329.012 244.227,268.833 244.328 C 208.654 244.429,128.932 244.579,91.673 244.660 C 54.414 244.742,23.867 244.771,23.791 244.724 C 23.635 244.628,23.608 244.744,24.396 242.167 C 25.136 239.748,26.716 234.526,27.271 232.667 C 27.503 231.887,27.792 230.950,27.912 230.583 C 28.033 230.217,28.322 229.279,28.556 228.500 C 28.790 227.721,29.180 226.446,29.423 225.667 C 29.964 223.933,31.303 219.465,31.521 218.667 C 31.608 218.346,31.783 217.783,31.908 217.417 C 32.034 217.050,32.336 216.075,32.581 215.250 C 32.826 214.425,33.291 212.887,33.614 211.833 C 34.264 209.711,34.588 208.643,35.254 206.417 C 35.500 205.592,35.803 204.617,35.926 204.250 C 36.049 203.883,36.349 202.908,36.592 202.083 C 36.835 201.258,37.287 199.758,37.596 198.750 C 37.905 197.742,38.417 196.054,38.733 195.000 C 39.049 193.946,39.493 192.483,39.720 191.750 C 39.947 191.017,40.334 189.742,40.580 188.917 C 41.134 187.057,41.629 185.457,41.918 184.583 C 42.040 184.217,42.338 183.204,42.580 182.333 C 42.823 181.463,43.087 180.600,43.166 180.417 C 43.246 180.233,43.623 179.033,44.004 177.750 C 44.672 175.498,45.097 174.080,45.576 172.500 C 45.701 172.088,46.141 170.625,46.553 169.250 C 46.965 167.875,47.501 166.112,47.744 165.333 C 47.987 164.554,48.375 163.279,48.606 162.500 C 48.838 161.721,49.125 160.783,49.246 160.417 C 49.366 160.050,49.657 159.112,49.891 158.333 C 50.272 157.070,51.163 154.127,52.690 149.083 C 54.017 144.704,54.374 143.527,54.591 142.833 C 54.910 141.807,56.093 137.894,56.606 136.167 C 56.838 135.387,57.125 134.450,57.246 134.083 C 57.366 133.717,57.655 132.779,57.887 132.000 C 58.120 131.221,58.612 129.608,58.981 128.417 C 59.349 127.225,59.873 125.500,60.144 124.583 C 60.415 123.667,60.824 122.317,61.052 121.583 C 61.280 120.850,61.657 119.612,61.890 118.833 C 62.556 116.607,64.807 109.190,65.151 108.083 C 65.323 107.533,65.655 106.446,65.889 105.667 C 66.123 104.888,66.513 103.612,66.756 102.833 C 66.999 102.054,67.522 100.329,67.917 99.000 C 68.312 97.671,68.822 95.983,69.051 95.250 C 69.279 94.517,69.665 93.242,69.908 92.417 C 70.151 91.592,70.451 90.617,70.573 90.250 C 70.696 89.883,70.951 89.058,71.141 88.417 C 71.504 87.185,72.642 83.436,73.163 81.750 C 73.334 81.200,73.674 80.075,73.920 79.250 C 74.166 78.425,74.655 76.813,75.006 75.667 C 75.798 73.088,77.372 67.896,77.938 66.000 C 78.170 65.221,78.458 64.283,78.578 63.917 C 78.698 63.550,78.963 62.688,79.167 62.000 C 79.370 61.313,79.782 59.962,80.082 59.000 C 80.383 58.038,80.907 56.313,81.247 55.167 C 82.040 52.495,82.223 51.889,82.758 50.167 C 83.000 49.387,83.522 47.663,83.917 46.333 C 84.312 45.004,84.822 43.317,85.051 42.583 C 85.279 41.850,85.667 40.575,85.913 39.750 C 86.158 38.925,86.460 37.950,86.583 37.583 C 86.706 37.217,86.996 36.279,87.227 35.500 C 87.458 34.721,87.912 33.221,88.236 32.167 C 88.560 31.113,89.084 29.387,89.401 28.333 C 90.295 25.359,90.694 24.097,90.795 23.931 C 90.850 23.840,96.825 23.821,105.735 23.885 C 113.902 23.944,155.158 24.074,197.417 24.175 " stroke="none" fill="#048c14" fill-rule="evenodd"></path><path id="path3" d="M134.292 24.125 C 135.873 24.152,138.460 24.152,140.042 24.125 C 141.623 24.097,140.329 24.075,137.167 24.075 C 134.004 24.075,132.710 24.097,134.292 24.125 M191.542 24.292 C 194.085 24.317,198.248 24.317,200.792 24.292 C 203.335 24.266,201.254 24.245,196.167 24.245 C 191.079 24.245,188.998 24.266,191.542 24.292 M233.887 24.458 C 237.263 24.483,242.738 24.483,246.054 24.458 C 249.370 24.433,246.608 24.412,239.917 24.412 C 233.225 24.412,230.512 24.433,233.887 24.458 M298.625 24.625 C 300.481 24.652,303.519 24.652,305.375 24.625 C 307.231 24.598,305.712 24.576,302.000 24.576 C 298.287 24.576,296.769 24.598,298.625 24.625 M97.387 25.458 C 100.488 25.484,105.513 25.484,108.554 25.458 C 111.595 25.433,109.058 25.412,102.917 25.412 C 96.775 25.412,94.287 25.433,97.387 25.458 M139.138 25.625 C 145.035 25.649,154.635 25.649,160.471 25.625 C 166.308 25.601,161.483 25.581,149.750 25.581 C 138.017 25.581,133.241 25.601,139.138 25.625 M196.054 25.792 C 199.888 25.817,206.113 25.817,209.887 25.792 C 213.662 25.767,210.525 25.746,202.917 25.746 C 195.308 25.746,192.220 25.767,196.054 25.792 M263.625 25.958 C 266.948 25.984,272.385 25.984,275.708 25.958 C 279.031 25.933,276.313 25.912,269.667 25.912 C 263.021 25.912,260.302 25.933,263.625 25.958 M338.523 104.833 C 338.523 104.971,338.588 105.233,338.667 105.417 C 338.757 105.627,338.810 105.658,338.810 105.500 C 338.810 105.362,338.745 105.100,338.667 104.917 C 338.576 104.707,338.523 104.676,338.523 104.833 M343.857 124.167 C 343.857 124.304,343.921 124.567,344.000 124.750 C 344.090 124.960,344.143 124.991,344.143 124.833 C 344.143 124.696,344.079 124.433,344.000 124.250 C 343.910 124.040,343.857 124.009,343.857 124.167 M355.190 165.333 C 355.190 165.471,355.255 165.733,355.333 165.917 C 355.424 166.127,355.477 166.158,355.477 166.000 C 355.477 165.862,355.412 165.600,355.333 165.417 C 355.243 165.207,355.190 165.176,355.190 165.333 M375.708 242.615 C 375.869 242.657,376.131 242.657,376.292 242.615 C 376.452 242.573,376.321 242.539,376.000 242.539 C 375.679 242.539,375.548 242.573,375.708 242.615 M288.125 242.792 C 293.006 242.816,300.994 242.816,305.875 242.792 C 310.756 242.767,306.762 242.747,297.000 242.747 C 287.237 242.747,283.244 242.767,288.125 242.792 M25.669 243.042 C 25.667 243.317,26.398 243.331,39.042 243.293 L 52.417 243.252 39.176 243.208 C 28.838 243.174,25.906 243.119,25.803 242.957 C 25.710 242.810,25.671 242.835,25.669 243.042 M187.971 242.958 C 193.868 242.983,203.468 242.983,209.305 242.958 C 215.141 242.934,210.317 242.914,198.583 242.914 C 186.850 242.914,182.075 242.934,187.971 242.958 M102.875 243.125 C 112.019 243.149,126.981 243.149,136.125 243.125 C 145.269 243.101,137.787 243.082,119.500 243.082 C 101.212 243.082,93.731 243.101,102.875 243.125 M340.875 244.125 C 343.602 244.151,348.065 244.151,350.792 244.125 C 353.519 244.099,351.287 244.078,345.833 244.078 C 340.379 244.078,338.148 244.099,340.875 244.125 M249.971 244.292 C 254.217 244.316,261.117 244.316,265.304 244.292 C 269.491 244.267,266.017 244.247,257.583 244.247 C 249.150 244.247,245.724 244.267,249.971 244.292 M176.054 244.458 C 181.080 244.483,189.255 244.483,194.221 244.458 C 199.187 244.434,195.075 244.414,185.083 244.414 C 175.092 244.414,171.029 244.434,176.054 244.458 M77.542 244.625 C 81.919 244.650,89.081 244.650,93.458 244.625 C 97.835 244.600,94.254 244.580,85.500 244.580 C 76.746 244.580,73.165 244.600,77.542 244.625 " stroke="none" fill="#5bc782" fill-rule="evenodd"></path><path id="path4" d="M110.387 24.125 C 114.313 24.150,120.688 24.150,124.554 24.125 C 128.420 24.100,125.208 24.080,117.417 24.080 C 109.625 24.080,106.462 24.100,110.387 24.125 M160.279 24.292 C 165.153 24.316,173.178 24.316,178.112 24.292 C 183.046 24.267,179.058 24.247,169.250 24.247 C 159.442 24.247,155.405 24.267,160.279 24.292 M209.971 24.458 C 213.300 24.484,218.700 24.484,221.971 24.458 C 225.241 24.433,222.517 24.412,215.917 24.412 C 209.317 24.412,206.641 24.433,209.971 24.458 M277.042 24.625 C 280.410 24.650,285.923 24.650,289.292 24.625 C 292.660 24.600,289.904 24.579,283.167 24.579 C 276.429 24.579,273.673 24.600,277.042 24.625 M120.958 25.458 C 124.831 25.483,131.169 25.483,135.042 25.458 C 138.915 25.433,135.746 25.413,128.000 25.413 C 120.254 25.413,117.085 25.433,120.958 25.458 M179.388 25.625 C 184.047 25.650,191.622 25.650,196.221 25.625 C 200.820 25.600,197.008 25.580,187.750 25.580 C 178.492 25.580,174.729 25.600,179.388 25.625 M226.279 25.792 C 231.611 25.816,240.386 25.816,245.779 25.792 C 251.171 25.767,246.808 25.747,236.083 25.747 C 225.358 25.747,220.946 25.767,226.279 25.792 M288.971 25.958 C 293.034 25.983,299.634 25.983,303.638 25.958 C 307.641 25.933,304.317 25.913,296.250 25.913 C 288.183 25.913,284.908 25.933,288.971 25.958 M317.857 29.500 C 317.857 29.637,317.921 29.900,318.000 30.083 C 318.090 30.293,318.143 30.324,318.143 30.167 C 318.143 30.029,318.079 29.767,318.000 29.583 C 317.910 29.373,317.857 29.342,317.857 29.500 M319.190 34.333 C 319.190 34.471,319.255 34.733,319.333 34.917 C 319.424 35.127,319.477 35.158,319.477 35.000 C 319.477 34.862,319.412 34.600,319.333 34.417 C 319.243 34.207,319.190 34.176,319.190 34.333 M320.523 39.167 C 320.523 39.304,320.588 39.567,320.667 39.750 C 320.757 39.960,320.810 39.991,320.810 39.833 C 320.810 39.696,320.745 39.433,320.667 39.250 C 320.576 39.040,320.523 39.009,320.523 39.167 M321.857 44.000 C 321.857 44.137,321.921 44.400,322.000 44.583 C 322.090 44.793,322.143 44.824,322.143 44.667 C 322.143 44.529,322.079 44.267,322.000 44.083 C 321.910 43.873,321.857 43.842,321.857 44.000 M323.190 48.833 C 323.190 48.971,323.255 49.233,323.333 49.417 C 323.424 49.627,323.477 49.658,323.477 49.500 C 323.477 49.362,323.412 49.100,323.333 48.917 C 323.243 48.707,323.190 48.676,323.190 48.833 M324.523 53.667 C 324.523 53.804,324.588 54.067,324.667 54.250 C 324.757 54.460,324.810 54.491,324.810 54.333 C 324.810 54.196,324.745 53.933,324.667 53.750 C 324.576 53.540,324.523 53.509,324.523 53.667 M325.857 58.500 C 325.857 58.637,325.921 58.900,326.000 59.083 C 326.090 59.293,326.143 59.324,326.143 59.167 C 326.143 59.029,326.079 58.767,326.000 58.583 C 325.910 58.373,325.857 58.342,325.857 58.500 M328.523 68.167 C 328.523 68.304,328.588 68.567,328.667 68.750 C 328.757 68.960,328.810 68.991,328.810 68.833 C 328.810 68.696,328.745 68.433,328.667 68.250 C 328.576 68.040,328.523 68.009,328.523 68.167 M48.929 166.095 C 48.867 166.339,48.849 166.571,48.889 166.611 C 48.928 166.650,49.010 166.482,49.071 166.238 C 49.133 165.994,49.151 165.762,49.111 165.723 C 49.072 165.683,48.990 165.851,48.929 166.095 M361.023 186.167 C 361.023 186.304,361.088 186.567,361.167 186.750 C 361.257 186.960,361.310 186.991,361.310 186.833 C 361.310 186.696,361.245 186.433,361.167 186.250 C 361.076 186.040,361.023 186.009,361.023 186.167 M363.690 195.833 C 363.690 195.971,363.755 196.233,363.833 196.417 C 363.924 196.627,363.977 196.658,363.977 196.500 C 363.977 196.362,363.912 196.100,363.833 195.917 C 363.743 195.707,363.690 195.676,363.690 195.833 M36.262 207.762 C 36.201 208.006,36.183 208.238,36.222 208.277 C 36.261 208.317,36.343 208.149,36.405 207.905 C 36.466 207.661,36.484 207.429,36.445 207.389 C 36.406 207.350,36.323 207.518,36.262 207.762 M367.690 210.333 C 367.690 210.471,367.755 210.733,367.833 210.917 C 367.924 211.127,367.977 211.158,367.977 211.000 C 367.977 210.862,367.912 210.600,367.833 210.417 C 367.743 210.207,367.690 210.176,367.690 210.333 M28.262 234.095 C 28.201 234.339,28.183 234.571,28.222 234.611 C 28.261 234.650,28.343 234.482,28.405 234.238 C 28.466 233.994,28.484 233.762,28.445 233.723 C 28.406 233.683,28.323 233.851,28.262 234.095 M325.721 242.792 C 331.847 242.816,341.822 242.816,347.888 242.792 C 353.954 242.767,348.942 242.748,336.750 242.748 C 324.558 242.748,319.595 242.767,325.721 242.792 M234.972 242.958 C 243.343 242.982,256.993 242.982,265.305 242.958 C 273.616 242.934,266.767 242.915,250.083 242.915 C 233.400 242.915,226.600 242.934,234.972 242.958 M165.362 243.125 C 172.390 243.149,183.940 243.149,191.029 243.125 C 198.117 243.101,192.367 243.081,178.250 243.081 C 164.133 243.081,158.334 243.101,165.362 243.125 M63.555 243.292 C 69.772 243.316,79.897 243.316,86.055 243.292 C 92.212 243.267,87.125 243.248,74.750 243.248 C 62.375 243.248,57.337 243.267,63.555 243.292 M307.708 244.125 C 312.910 244.149,321.423 244.149,326.625 244.125 C 331.827 244.101,327.571 244.081,317.167 244.081 C 306.762 244.081,302.506 244.101,307.708 244.125 M211.221 244.292 C 216.980 244.316,226.355 244.316,232.055 244.292 C 237.754 244.267,233.042 244.247,221.583 244.247 C 210.125 244.247,205.462 244.267,211.221 244.292 M132.779 244.458 C 139.028 244.483,149.303 244.483,155.612 244.458 C 161.921 244.434,156.808 244.414,144.250 244.414 C 131.692 244.414,126.530 244.434,132.779 244.458 M39.375 244.625 C 44.944 244.649,54.056 244.649,59.625 244.625 C 65.194 244.601,60.638 244.581,49.500 244.581 C 38.362 244.581,33.806 244.601,39.375 244.625 " stroke="none" fill="#7cd49c" fill-rule="evenodd"></path></g></svg>