<svg id="svg" version="1.1" xmlns="http://www.w3.org/2000/svg" xmlns:xlink="http://www.w3.org/1999/xlink" width="400" height="266.6666666666667" viewBox="0, 0, 400,266.6666666666667"><g id="svgg"><path id="path0" d="M55.234 51.248 C 54.068 55.346,48.308 73.719,34.139 118.533 C 28.296 137.013,23.015 153.753,22.403 155.733 C 21.791 157.713,20.886 160.593,20.391 162.133 C 19.116 166.102,13.589 183.805,8.653 199.733 C 8.312 200.833,7.375 203.833,6.572 206.400 C 4.592 212.726,3.733 215.620,3.733 215.972 C 3.733 216.187,56.864 216.267,200.018 216.267 C 386.830 216.267,396.296 216.244,396.166 215.800 C 396.090 215.543,395.429 213.353,394.695 210.933 C 392.735 204.465,385.319 179.753,385.012 178.667 C 384.867 178.153,383.789 174.553,382.617 170.667 C 381.444 166.780,379.719 161.020,378.782 157.867 C 377.846 154.713,376.471 150.093,375.728 147.600 C 374.064 142.023,372.527 136.841,371.338 132.800 C 370.842 131.113,370.115 128.653,369.722 127.333 C 369.329 126.013,368.678 123.793,368.275 122.400 C 367.873 121.007,366.373 115.847,364.943 110.933 C 363.514 106.020,362.051 100.920,361.693 99.600 C 361.334 98.280,360.813 96.420,360.534 95.467 C 358.379 88.108,355.441 77.094,349.271 53.249 L 348.455 50.097 326.561 50.312 C 297.942 50.594,119.620 50.596,83.581 50.315 L 55.562 50.097 55.234 51.248 M57.717 50.906 C 57.908 51.215,56.046 52.860,55.728 52.663 C 55.513 52.530,55.750 51.554,56.157 50.895 C 56.344 50.593,57.528 50.601,57.717 50.906 M134.723 51.108 L 199.653 51.288 199.826 55.844 C 199.921 58.350,199.999 68.932,199.999 79.360 L 200.000 98.320 197.133 98.473 C 180.563 99.357,167.537 109.634,169.074 120.611 C 170.587 131.417,181.208 138.843,197.824 140.713 L 199.781 140.933 199.759 155.467 C 199.747 163.460,199.658 180.170,199.560 192.600 L 199.382 215.200 104.225 215.200 L 9.067 215.200 9.067 214.387 C 9.067 213.087,8.403 212.112,7.185 211.625 C 6.378 211.302,6.126 211.072,6.243 210.765 C 6.395 210.370,11.460 194.007,13.579 187.067 C 14.117 185.307,15.391 181.198,16.412 177.936 L 18.267 172.004 46.788 171.936 L 75.309 171.867 75.883 168.933 C 76.199 167.320,76.839 163.900,77.306 161.333 C 78.873 152.714,80.030 146.476,81.766 137.285 C 81.875 136.710,82.378 136.306,84.353 135.212 C 100.649 126.185,103.347 111.277,90.181 103.013 C 88.571 102.003,88.252 101.689,88.363 101.227 C 88.647 100.047,92.800 76.848,92.800 76.444 C 92.800 76.346,82.780 76.267,70.533 76.267 C 58.287 76.267,48.267 76.195,48.267 76.107 C 48.267 76.019,48.857 74.069,49.579 71.773 C 51.770 64.801,54.338 56.489,54.800 54.867 C 55.041 54.023,55.361 53.333,55.512 53.333 C 56.240 53.333,57.653 52.378,58.176 51.531 L 58.761 50.585 64.277 50.757 C 67.311 50.851,99.011 51.009,134.723 51.108 M345.834 51.479 C 346.164 51.926,346.877 52.493,347.417 52.738 C 347.958 52.983,348.440 53.208,348.490 53.238 C 348.539 53.267,348.677 53.691,348.795 54.179 C 349.354 56.482,352.409 68.289,353.348 71.773 C 353.926 73.921,354.400 75.827,354.400 76.009 C 354.400 76.269,349.625 76.313,331.731 76.216 C 319.263 76.149,309.022 76.134,308.972 76.183 C 308.923 76.233,309.093 77.562,309.349 79.137 C 309.606 80.711,310.259 84.760,310.799 88.133 C 311.339 91.507,312.070 95.876,312.424 97.843 C 312.777 99.811,313.067 101.510,313.067 101.620 C 313.067 101.731,312.317 102.242,311.400 102.757 C 297.459 110.592,300.713 127.867,317.667 136.030 C 318.363 136.365,318.933 136.739,318.933 136.861 C 318.933 136.983,319.467 140.229,320.118 144.074 C 322.313 157.024,324.258 168.387,324.600 170.267 L 324.940 172.133 353.529 172.201 L 382.117 172.269 382.810 174.601 C 383.192 175.884,383.731 177.653,384.009 178.533 C 384.286 179.413,384.744 180.973,385.027 182.000 C 385.309 183.027,386.140 185.847,386.873 188.267 C 387.606 190.687,388.589 193.987,389.059 195.600 C 389.528 197.213,390.196 199.433,390.542 200.533 C 393.616 210.291,393.867 211.558,392.813 211.995 C 391.900 212.373,391.348 213.120,391.080 214.338 L 390.891 215.201 295.779 215.134 L 200.667 215.067 200.767 178.133 C 200.822 157.820,200.942 141.121,201.033 141.025 C 201.125 140.929,202.520 140.714,204.133 140.548 C 230.511 137.832,241.565 116.341,222.851 104.159 C 218.156 101.103,210.650 98.817,204.176 98.472 C 202.439 98.379,201.250 98.201,201.198 98.025 C 201.150 97.865,201.042 87.263,200.958 74.467 L 200.804 51.200 245.402 51.162 C 284.136 51.129,339.825 50.879,343.883 50.720 C 345.107 50.672,345.289 50.743,345.834 51.479 M348.007 51.214 C 348.169 51.515,348.263 51.935,348.217 52.147 C 348.104 52.667,346.400 51.657,346.400 51.071 C 346.400 50.452,347.660 50.564,348.007 51.214 M91.733 77.334 C 91.733 77.837,88.937 93.504,87.715 99.848 C 87.406 101.451,86.934 104.031,86.665 105.581 C 86.396 107.131,85.574 111.580,84.839 115.467 C 84.104 119.353,83.009 125.233,82.406 128.533 C 81.803 131.833,81.079 135.673,80.798 137.067 C 80.517 138.460,79.436 144.220,78.397 149.867 C 77.357 155.513,76.220 161.573,75.869 163.333 C 75.517 165.093,75.101 167.313,74.942 168.267 C 74.784 169.220,74.595 170.270,74.522 170.600 L 74.390 171.200 46.528 171.200 C 27.925 171.200,18.667 171.110,18.667 170.930 C 18.667 170.665,20.116 165.824,20.901 163.467 C 21.121 162.807,21.741 160.827,22.279 159.067 C 22.817 157.307,24.325 152.475,25.629 148.330 C 26.933 144.185,28.000 140.735,28.000 140.664 C 28.000 140.592,31.710 140.533,36.245 140.533 L 44.491 140.533 44.677 139.667 C 44.869 138.771,46.528 132.502,48.786 124.133 C 49.499 121.493,50.528 117.653,51.074 115.600 C 51.619 113.547,52.831 109.056,53.766 105.622 C 54.701 102.187,55.467 99.217,55.467 99.022 C 55.467 98.735,54.104 98.667,48.400 98.667 C 44.059 98.667,41.333 98.568,41.333 98.410 C 41.333 98.270,42.460 94.580,43.838 90.210 C 45.216 85.841,46.719 81.037,47.179 79.533 L 48.016 76.800 69.874 76.800 C 91.566 76.800,91.733 76.804,91.733 77.334 M354.777 77.267 C 354.857 77.523,355.454 79.713,356.103 82.133 C 356.751 84.553,357.788 88.333,358.406 90.533 C 359.992 96.179,360.524 98.210,360.529 98.640 C 360.533 98.955,359.441 98.984,353.493 98.823 C 349.501 98.715,346.390 98.734,346.307 98.867 C 346.228 98.996,346.817 101.794,347.618 105.084 C 350.888 118.532,352.364 124.533,354.334 132.400 L 356.405 140.667 361.469 140.832 C 364.254 140.923,368.003 141.013,369.800 141.032 C 372.161 141.057,373.067 141.156,373.067 141.390 C 373.067 141.668,379.079 162.223,380.968 168.400 C 381.326 169.573,381.684 170.743,381.761 171.000 C 381.895 171.442,380.451 171.467,354.012 171.467 L 326.122 171.467 325.866 170.867 C 325.639 170.336,324.633 164.604,320.122 138.133 C 316.547 117.152,315.574 111.385,314.388 104.133 C 313.668 99.733,312.780 94.393,312.414 92.267 C 311.695 88.082,309.867 77.053,309.867 76.896 C 309.867 76.472,354.644 76.841,354.777 77.267 M200.000 107.873 L 200.000 116.813 199.350 117.061 C 197.929 117.601,197.925 119.270,199.344 119.627 L 200.006 119.793 199.937 129.830 L 199.867 139.867 197.333 139.790 C 182.951 139.355,170.079 129.590,170.017 119.067 C 169.953 108.366,182.580 99.491,198.600 98.978 L 200.000 98.933 200.000 107.873 M205.535 99.203 C 225.086 101.262,236.196 114.315,228.878 126.625 C 224.552 133.902,213.679 139.510,203.333 139.799 L 200.933 139.867 200.944 138.467 C 200.949 137.697,200.979 133.180,201.010 128.429 L 201.067 119.791 201.742 119.622 C 203.234 119.247,203.113 117.414,201.565 116.922 C 201.057 116.761,200.749 99.607,201.244 99.111 C 201.485 98.870,202.605 98.894,205.535 99.203 M54.400 99.793 C 54.400 100.077,53.638 102.920,51.058 112.267 C 50.714 113.513,49.451 118.193,48.252 122.667 C 47.053 127.140,45.516 132.810,44.836 135.267 L 43.600 139.734 36.100 139.896 C 31.808 139.989,28.538 139.956,28.454 139.821 C 28.373 139.690,28.769 138.147,29.334 136.392 C 29.899 134.636,32.055 127.800,34.125 121.200 C 36.195 114.600,38.416 107.520,39.061 105.467 C 39.707 103.413,40.381 101.223,40.560 100.600 L 40.884 99.467 47.642 99.467 C 52.794 99.467,54.400 99.544,54.400 99.793 M362.578 105.467 C 363.503 108.693,364.490 112.173,364.771 113.200 C 365.052 114.227,365.843 116.987,366.529 119.333 C 370.136 131.687,372.533 139.999,372.533 140.152 C 372.533 140.354,357.744 140.266,357.446 140.063 C 357.287 139.955,355.761 134.287,354.054 127.467 C 350.690 114.025,347.200 99.839,347.200 99.604 C 347.200 99.524,350.282 99.490,354.048 99.529 L 360.897 99.600 362.578 105.467 M315.022 113.668 C 316.024 119.717,317.252 127.059,317.750 129.983 C 318.737 135.766,318.738 135.705,317.668 135.221 C 306.860 130.329,300.867 118.602,304.977 110.386 C 306.348 107.646,311.545 102.660,313.022 102.668 C 313.120 102.668,314.020 107.618,315.022 113.668 M90.014 103.766 C 101.886 111.261,99.508 125.215,84.851 134.066 C 82.127 135.711,82.011 135.735,82.248 134.600 C 82.348 134.123,83.081 130.193,83.878 125.867 C 84.674 121.540,85.625 116.380,85.990 114.400 C 86.356 112.420,86.980 109.030,87.379 106.867 C 88.179 102.514,88.128 102.575,90.014 103.766 M67.696 118.116 C 67.098 118.606,67.090 118.656,67.529 119.102 C 68.101 119.684,69.408 119.334,69.557 118.560 C 69.744 117.591,68.654 117.331,67.696 118.116 M199.884 118.872 C 199.491 119.265,199.122 118.415,199.491 117.967 C 199.839 117.546,199.873 117.557,199.955 118.112 C 200.003 118.442,199.971 118.784,199.884 118.872 M201.733 118.267 C 201.733 118.536,201.583 118.806,201.400 118.867 C 201.189 118.937,201.067 118.717,201.067 118.267 C 201.067 117.816,201.189 117.596,201.400 117.667 C 201.583 117.728,201.733 117.998,201.733 118.267 M330.762 118.270 C 330.530 118.874,331.164 119.467,332.041 119.467 C 332.920 119.467,333.297 118.866,332.797 118.263 C 332.366 117.743,330.962 117.748,330.762 118.270 M7.180 213.000 C 8.404 213.999,8.053 215.056,6.467 215.147 C 4.920 215.236,4.888 215.191,5.376 213.564 C 5.721 212.412,6.254 212.245,7.180 213.000 M394.577 214.087 L 394.899 215.200 393.583 215.200 C 392.022 215.200,391.796 214.579,392.941 213.435 C 393.810 212.566,394.180 212.714,394.577 214.087 " stroke="none" fill="#e5f4ea" fill-rule="evenodd"></path><path id="path1" d="M57.133 50.064 C 58.123 50.116,59.743 50.116,60.733 50.064 C 61.723 50.013,60.913 49.971,58.933 49.971 C 56.953 49.971,56.143 50.013,57.133 50.064 M346.600 50.055 C 346.930 50.118,347.470 50.118,347.800 50.055 C 348.130 49.991,347.860 49.939,347.200 49.939 C 346.540 49.939,346.270 49.991,346.600 50.055 M87.933 50.333 C 93.103 50.374,101.563 50.374,106.733 50.333 C 111.903 50.293,107.673 50.260,97.333 50.260 C 86.993 50.260,82.763 50.293,87.933 50.333 M303.020 50.333 C 308.127 50.374,316.407 50.374,321.420 50.333 C 326.432 50.293,322.253 50.259,312.133 50.259 C 302.013 50.260,297.912 50.293,303.020 50.333 M348.700 50.933 C 348.793 51.447,348.974 52.107,349.103 52.400 C 349.263 52.766,349.283 52.641,349.167 52.000 C 349.074 51.487,348.892 50.827,348.764 50.533 C 348.604 50.167,348.584 50.293,348.700 50.933 M171.912 50.600 C 190.417 50.638,220.777 50.638,239.379 50.600 C 257.980 50.562,242.840 50.531,205.733 50.531 C 168.627 50.531,153.407 50.562,171.912 50.600 M56.157 50.895 C 55.750 51.554,55.513 52.530,55.728 52.663 C 56.046 52.860,57.908 51.215,57.717 50.906 C 57.528 50.601,56.344 50.593,56.157 50.895 M58.176 51.531 C 57.653 52.378,56.240 53.333,55.512 53.333 C 55.361 53.333,55.041 54.023,54.800 54.867 C 54.338 56.489,51.770 64.801,49.579 71.773 C 48.857 74.069,48.267 76.019,48.267 76.107 C 48.267 76.195,58.287 76.267,70.533 76.267 C 82.780 76.267,92.800 76.346,92.800 76.444 C 92.800 76.848,88.647 100.047,88.363 101.227 C 88.252 101.689,88.571 102.003,90.181 103.013 C 103.347 111.277,100.649 126.185,84.353 135.212 C 82.378 136.306,81.875 136.710,81.766 137.285 C 80.030 146.476,78.873 152.714,77.306 161.333 C 76.839 163.900,76.199 167.320,75.883 168.933 L 75.309 171.867 46.788 171.936 L 18.267 172.004 16.412 177.936 C 15.391 181.198,14.117 185.307,13.579 187.067 C 11.460 194.007,6.395 210.370,6.243 210.765 C 6.126 211.072,6.378 211.302,7.185 211.625 C 8.403 212.112,9.067 213.087,9.067 214.387 L 9.067 215.200 104.225 215.200 L 199.382 215.200 199.560 192.600 C 199.658 180.170,199.747 163.460,199.759 155.467 L 199.781 140.933 197.824 140.713 C 181.208 138.843,170.587 131.417,169.074 120.611 C 167.537 109.634,180.563 99.357,197.133 98.473 L 200.000 98.320 199.999 79.360 C 199.999 68.932,199.921 58.350,199.826 55.844 L 199.653 51.288 134.723 51.108 C 99.011 51.009,67.311 50.851,64.277 50.757 L 58.761 50.585 58.176 51.531 M316.267 50.948 C 301.820 51.045,269.931 51.141,245.402 51.162 L 200.804 51.200 200.958 74.467 C 201.042 87.263,201.150 97.865,201.198 98.025 C 201.250 98.201,202.439 98.379,204.176 98.472 C 207.567 98.653,211.719 99.449,215.024 100.552 C 242.657 109.777,235.148 137.354,204.133 140.548 C 202.520 140.714,201.125 140.929,201.033 141.025 C 200.942 141.121,200.822 157.820,200.767 178.133 L 200.667 215.067 295.779 215.134 L 390.891 215.201 391.080 214.338 C 391.348 213.120,391.900 212.373,392.813 211.995 C 393.867 211.558,393.616 210.291,390.542 200.533 C 390.196 199.433,389.528 197.213,389.059 195.600 C 388.589 193.987,387.606 190.687,386.873 188.267 C 386.140 185.847,385.309 183.027,385.027 182.000 C 384.744 180.973,384.286 179.413,384.009 178.533 C 383.731 177.653,383.192 175.884,382.810 174.601 L 382.117 172.269 353.529 172.201 L 324.940 172.133 324.600 170.267 C 324.258 168.387,322.313 157.024,320.118 144.074 C 319.467 140.229,318.933 136.983,318.933 136.861 C 318.933 136.739,318.363 136.365,317.667 136.030 C 300.713 127.867,297.459 110.592,311.400 102.757 C 312.317 102.242,313.067 101.731,313.067 101.620 C 313.067 101.510,312.777 99.811,312.424 97.843 C 312.070 95.876,311.339 91.507,310.799 88.133 C 310.259 84.760,309.606 80.711,309.349 79.137 C 309.093 77.562,308.923 76.233,308.972 76.183 C 309.022 76.134,319.263 76.149,331.731 76.216 C 349.625 76.313,354.400 76.269,354.400 76.009 C 354.400 75.827,353.926 73.921,353.348 71.773 C 352.409 68.289,349.354 56.482,348.795 54.179 C 348.677 53.691,348.539 53.267,348.490 53.238 C 348.440 53.208,347.958 52.983,347.417 52.738 C 346.877 52.493,346.164 51.926,345.834 51.479 C 345.289 50.743,345.107 50.672,343.883 50.720 C 343.141 50.749,330.713 50.852,316.267 50.948 M346.400 51.071 C 346.400 51.657,348.104 52.667,348.217 52.147 C 348.263 51.935,348.169 51.515,348.007 51.214 C 347.660 50.564,346.400 50.452,346.400 51.071 M54.133 54.133 C 53.819 55.188,53.612 56.100,53.672 56.161 C 53.732 56.221,54.035 55.404,54.344 54.344 C 54.653 53.284,54.861 52.372,54.805 52.316 C 54.750 52.261,54.447 53.079,54.133 54.133 M350.169 56.533 C 350.160 56.753,350.389 57.713,350.678 58.667 C 350.968 59.620,351.142 59.971,351.066 59.448 C 350.894 58.268,350.192 55.987,350.169 56.533 M52.409 59.609 C 51.836 61.581,52.030 61.775,52.640 59.840 C 52.898 59.022,53.050 58.295,52.979 58.223 C 52.908 58.152,52.651 58.776,52.409 59.609 M51.093 63.893 C 50.836 64.711,50.673 65.428,50.731 65.487 C 50.790 65.546,51.049 64.924,51.307 64.107 C 51.564 63.289,51.727 62.572,51.669 62.513 C 51.610 62.454,51.351 63.076,51.093 63.893 M351.900 63.467 C 351.993 63.980,352.174 64.640,352.303 64.933 C 352.463 65.299,352.483 65.174,352.367 64.533 C 352.274 64.020,352.092 63.360,351.964 63.067 C 351.804 62.701,351.784 62.826,351.900 63.467 M49.081 70.414 C 48.762 71.464,48.549 72.371,48.608 72.431 C 48.668 72.490,48.975 71.677,49.291 70.625 C 49.608 69.572,49.820 68.665,49.764 68.608 C 49.707 68.551,49.400 69.364,49.081 70.414 M353.604 70.067 C 353.606 70.177,353.845 70.987,354.135 71.867 C 354.649 73.426,354.635 72.874,354.108 70.867 C 353.875 69.975,353.594 69.530,353.604 70.067 M47.467 75.467 C 47.153 76.521,46.945 77.434,47.006 77.495 C 47.066 77.555,47.375 76.744,47.691 75.691 C 48.008 74.639,48.215 73.726,48.152 73.663 C 48.089 73.600,47.781 74.412,47.467 75.467 M355.367 76.533 C 355.460 77.047,355.641 77.707,355.769 78.000 C 355.929 78.366,355.950 78.241,355.833 77.600 C 355.740 77.087,355.559 76.427,355.431 76.133 C 355.271 75.767,355.250 75.893,355.367 76.533 M47.179 79.533 C 46.719 81.037,45.216 85.841,43.838 90.210 C 42.460 94.580,41.333 98.270,41.333 98.410 C 41.333 98.568,44.059 98.667,48.400 98.667 C 54.104 98.667,55.467 98.735,55.467 99.022 C 55.467 99.217,54.701 102.187,53.766 105.622 C 52.831 109.056,51.619 113.547,51.074 115.600 C 50.528 117.653,49.499 121.493,48.786 124.133 C 46.528 132.502,44.869 138.771,44.677 139.667 L 44.491 140.533 36.245 140.533 C 31.710 140.533,28.000 140.592,28.000 140.664 C 28.000 140.735,26.933 144.185,25.629 148.330 C 24.325 152.475,22.817 157.307,22.279 159.067 C 21.741 160.827,21.121 162.807,20.901 163.467 C 20.116 165.824,18.667 170.665,18.667 170.930 C 18.667 171.110,27.925 171.200,46.528 171.200 L 74.390 171.200 74.522 170.600 C 74.595 170.270,74.784 169.220,74.942 168.267 C 75.101 167.313,75.517 165.093,75.869 163.333 C 76.220 161.573,77.357 155.513,78.397 149.867 C 79.436 144.220,80.517 138.460,80.798 137.067 C 81.079 135.673,81.803 131.833,82.406 128.533 C 83.009 125.233,84.104 119.353,84.839 115.467 C 85.574 111.580,86.396 107.131,86.665 105.581 C 86.934 104.031,87.406 101.451,87.715 99.848 C 88.937 93.504,91.733 77.837,91.733 77.334 C 91.733 76.804,91.566 76.800,69.874 76.800 L 48.016 76.800 47.179 79.533 M309.867 76.896 C 309.867 77.053,311.695 88.082,312.414 92.267 C 312.780 94.393,313.668 99.733,314.388 104.133 C 315.574 111.385,316.547 117.152,320.122 138.133 C 324.633 164.604,325.639 170.336,325.866 170.867 L 326.122 171.467 354.012 171.467 C 380.451 171.467,381.895 171.442,381.761 171.000 C 381.684 170.743,381.326 169.573,380.968 168.400 C 379.079 162.223,373.067 141.668,373.067 141.390 C 373.067 141.156,372.161 141.057,369.800 141.032 C 368.003 141.013,364.254 140.923,361.469 140.832 L 356.405 140.667 354.334 132.400 C 352.364 124.533,350.888 118.532,347.618 105.084 C 346.817 101.794,346.228 98.996,346.307 98.867 C 346.390 98.734,349.501 98.715,353.493 98.823 C 359.441 98.984,360.533 98.955,360.529 98.640 C 360.524 98.210,359.992 96.179,358.406 90.533 C 357.788 88.333,356.751 84.553,356.103 82.133 C 355.454 79.713,354.857 77.523,354.777 77.267 C 354.644 76.841,309.867 76.472,309.867 76.896 M45.760 80.960 C 45.502 81.778,45.339 82.495,45.398 82.554 C 45.457 82.612,45.716 81.991,45.973 81.173 C 46.231 80.356,46.394 79.638,46.335 79.580 C 46.277 79.521,46.018 80.142,45.760 80.960 M356.683 81.467 C 356.755 81.907,357.048 82.987,357.334 83.867 C 357.619 84.747,357.781 85.047,357.693 84.533 C 357.605 84.020,357.312 82.940,357.042 82.133 C 356.772 81.327,356.610 81.027,356.683 81.467 M44.296 85.637 C 43.987 86.554,43.742 87.430,43.753 87.585 C 43.764 87.740,44.063 87.036,44.418 86.020 C 44.773 85.005,45.017 84.128,44.961 84.072 C 44.905 84.016,44.606 84.720,44.296 85.637 M358.472 88.000 C 358.534 88.220,358.801 89.212,359.066 90.204 C 359.331 91.196,359.596 91.959,359.656 91.900 C 359.806 91.749,358.942 88.487,358.622 88.000 C 358.389 87.644,358.372 87.644,358.472 88.000 M42.560 91.093 C 42.302 91.911,42.139 92.628,42.198 92.687 C 42.257 92.746,42.516 92.124,42.773 91.307 C 43.031 90.489,43.194 89.772,43.135 89.713 C 43.077 89.654,42.818 90.276,42.560 91.093 M360.168 94.124 C 360.259 94.632,360.499 95.472,360.700 95.990 L 361.065 96.933 360.899 96.010 C 360.807 95.501,360.568 94.661,360.367 94.143 L 360.002 93.200 360.168 94.124 M40.963 96.166 C 40.727 96.860,40.542 97.557,40.553 97.714 C 40.564 97.871,40.803 97.350,41.085 96.555 C 41.367 95.760,41.552 95.063,41.496 95.007 C 41.439 94.951,41.200 95.472,40.963 96.166 M196.133 99.121 C 174.094 101.144,162.933 117.467,174.894 130.182 C 180.140 135.758,188.966 139.537,197.333 139.790 L 199.867 139.867 199.937 129.830 L 200.006 119.793 199.344 119.627 C 197.925 119.270,197.929 117.601,199.350 117.061 L 200.000 116.813 200.000 107.873 L 200.000 98.933 198.600 98.978 C 197.830 99.003,196.720 99.067,196.133 99.121 M201.244 99.111 C 200.749 99.607,201.057 116.761,201.565 116.922 C 203.113 117.414,203.234 119.247,201.742 119.622 L 201.067 119.791 201.010 128.429 C 200.979 133.180,200.949 137.697,200.944 138.467 L 200.933 139.867 203.333 139.799 C 213.679 139.510,224.552 133.902,228.878 126.625 C 236.196 114.315,225.086 101.262,205.535 99.203 C 202.605 98.894,201.485 98.870,201.244 99.111 M361.682 99.600 C 361.764 99.893,362.036 100.887,362.286 101.807 C 362.536 102.728,362.794 103.428,362.859 103.363 C 363.003 103.219,361.960 99.467,361.711 99.233 C 361.614 99.142,361.601 99.307,361.682 99.600 M40.560 100.600 C 40.381 101.223,39.707 103.413,39.061 105.467 C 38.416 107.520,36.195 114.600,34.125 121.200 C 32.055 127.800,29.899 134.636,29.334 136.392 C 28.769 138.147,28.373 139.690,28.454 139.821 C 28.538 139.956,31.808 139.989,36.100 139.896 L 43.600 139.734 44.836 135.267 C 45.516 132.810,47.053 127.140,48.252 122.667 C 49.451 118.193,50.714 113.513,51.058 112.267 C 53.638 102.920,54.400 100.077,54.400 99.793 C 54.400 99.544,52.794 99.467,47.642 99.467 L 40.884 99.467 40.560 100.600 M347.200 99.604 C 347.200 99.839,350.690 114.025,354.054 127.467 C 355.761 134.287,357.287 139.955,357.446 140.063 C 357.744 140.266,372.533 140.354,372.533 140.152 C 372.533 139.999,370.136 131.687,366.529 119.333 C 365.843 116.987,365.052 114.227,364.771 113.200 C 364.490 112.173,363.503 108.693,362.578 105.467 L 360.897 99.600 354.048 99.529 C 350.282 99.490,347.200 99.524,347.200 99.604 M39.097 102.033 C 38.860 102.727,38.675 103.424,38.686 103.581 C 38.697 103.738,38.936 103.216,39.219 102.421 C 39.501 101.626,39.686 100.930,39.629 100.874 C 39.573 100.817,39.333 101.339,39.097 102.033 M310.851 104.000 C 299.680 111.472,301.430 124.534,314.800 133.464 C 317.058 134.972,318.320 135.636,318.530 135.426 C 318.600 135.356,318.249 132.906,317.750 129.983 C 317.252 127.059,316.024 119.717,315.022 113.668 C 314.020 107.618,313.120 102.668,313.022 102.668 C 312.925 102.667,311.947 103.267,310.851 104.000 M87.379 106.867 C 86.980 109.030,86.356 112.420,85.990 114.400 C 85.625 116.380,84.674 121.540,83.878 125.867 C 83.081 130.193,82.348 134.123,82.248 134.600 C 82.011 135.735,82.127 135.711,84.851 134.066 C 99.508 125.215,101.886 111.261,90.014 103.766 C 88.128 102.575,88.179 102.514,87.379 106.867 M37.493 107.093 C 37.236 107.911,37.073 108.628,37.131 108.687 C 37.190 108.746,37.449 108.124,37.707 107.307 C 37.964 106.489,38.127 105.772,38.069 105.713 C 38.010 105.654,37.751 106.276,37.493 107.093 M363.470 105.800 C 363.472 105.910,363.711 106.720,364.002 107.600 C 364.516 109.159,364.501 108.607,363.975 106.600 C 363.741 105.708,363.461 105.264,363.470 105.800 M35.893 112.160 C 35.636 112.978,35.473 113.695,35.531 113.754 C 35.590 113.812,35.849 113.191,36.107 112.373 C 36.364 111.556,36.527 110.838,36.469 110.780 C 36.410 110.721,36.151 111.342,35.893 112.160 M365.107 111.467 C 365.107 111.687,365.269 112.287,365.467 112.800 C 365.664 113.313,365.826 113.553,365.826 113.333 C 365.826 113.113,365.664 112.513,365.467 112.000 C 365.269 111.487,365.107 111.247,365.107 111.467 M34.163 117.637 C 33.853 118.554,33.609 119.430,33.620 119.585 C 33.631 119.740,33.930 119.036,34.285 118.020 C 34.639 117.005,34.884 116.128,34.828 116.072 C 34.772 116.016,34.472 116.720,34.163 117.637 M69.293 117.836 C 69.857 118.193,69.536 119.029,68.727 119.314 C 67.561 119.724,66.806 118.846,67.696 118.116 C 68.385 117.552,68.745 117.489,69.293 117.836 M199.491 117.967 C 199.210 118.308,199.192 118.499,199.420 118.727 C 199.824 119.131,200.064 118.855,199.955 118.112 C 199.873 117.557,199.839 117.546,199.491 117.967 M201.067 118.267 C 201.067 118.717,201.189 118.937,201.400 118.867 C 201.583 118.806,201.733 118.536,201.733 118.267 C 201.733 117.998,201.583 117.728,201.400 117.667 C 201.189 117.596,201.067 117.816,201.067 118.267 M366.974 117.867 C 366.974 118.087,367.136 118.687,367.333 119.200 C 367.531 119.713,367.693 119.953,367.693 119.733 C 367.693 119.513,367.531 118.913,367.333 118.400 C 367.136 117.887,366.974 117.647,366.974 117.867 M332.797 118.263 C 333.297 118.866,332.920 119.467,332.041 119.467 C 331.164 119.467,330.530 118.874,330.762 118.270 C 330.962 117.748,332.366 117.743,332.797 118.263 M32.427 123.093 C 32.169 123.911,32.006 124.628,32.065 124.687 C 32.123 124.746,32.382 124.124,32.640 123.307 C 32.898 122.489,33.061 121.772,33.002 121.713 C 32.943 121.654,32.684 122.276,32.427 123.093 M368.288 122.267 C 368.278 122.413,368.565 123.433,368.926 124.533 C 369.287 125.633,369.513 126.125,369.428 125.626 C 369.256 124.616,368.316 121.847,368.288 122.267 M30.827 128.160 C 30.569 128.978,30.406 129.695,30.465 129.754 C 30.523 129.812,30.782 129.191,31.040 128.373 C 31.298 127.556,31.461 126.838,31.402 126.780 C 31.343 126.721,31.084 127.342,30.827 128.160 M370.162 128.800 C 370.168 129.020,370.344 129.620,370.551 130.133 L 370.929 131.067 370.767 130.133 C 370.584 129.075,370.140 128.099,370.162 128.800 M29.230 133.233 C 28.993 133.927,28.809 134.624,28.819 134.781 C 28.830 134.938,29.070 134.416,29.352 133.621 C 29.634 132.826,29.819 132.130,29.762 132.074 C 29.706 132.017,29.466 132.539,29.230 133.233 M371.914 134.800 C 372.001 135.240,372.172 135.780,372.295 136.000 C 372.694 136.718,372.556 135.700,372.132 134.800 L 371.755 134.000 371.914 134.800 M372.571 136.800 C 372.571 137.020,372.674 137.440,372.800 137.733 C 372.944 138.070,373.029 138.119,373.029 137.867 C 373.029 137.647,372.926 137.227,372.800 136.933 C 372.656 136.597,372.571 136.548,372.571 136.800 M27.630 138.300 C 27.393 138.994,27.209 139.690,27.219 139.848 C 27.230 140.005,27.470 139.483,27.752 138.688 C 28.034 137.893,28.219 137.197,28.162 137.140 C 28.106 137.084,27.866 137.606,27.630 138.300 M373.501 139.990 C 373.593 140.499,373.832 141.339,374.033 141.857 L 374.398 142.800 374.232 141.876 C 374.141 141.368,373.901 140.528,373.700 140.010 L 373.335 139.067 373.501 139.990 M25.897 143.760 C 25.734 144.229,25.608 144.745,25.619 144.906 C 25.629 145.068,25.810 144.730,26.020 144.157 C 26.230 143.583,26.356 143.067,26.299 143.010 C 26.242 142.953,26.061 143.290,25.897 143.760 M375.241 145.867 C 375.241 146.087,375.402 146.687,375.600 147.200 C 375.798 147.713,375.959 147.953,375.959 147.733 C 375.959 147.513,375.798 146.913,375.600 146.400 C 375.402 145.887,375.241 145.647,375.241 145.867 M24.160 149.227 C 23.902 150.044,23.739 150.762,23.798 150.820 C 23.857 150.879,24.116 150.258,24.373 149.440 C 24.631 148.622,24.794 147.905,24.735 147.846 C 24.677 147.788,24.418 148.409,24.160 149.227 M376.575 150.400 C 376.575 150.620,376.796 151.400,377.067 152.133 C 377.337 152.867,377.559 153.287,377.559 153.067 C 377.559 152.847,377.337 152.067,377.067 151.333 C 376.796 150.600,376.575 150.180,376.575 150.400 M22.552 154.419 C 22.323 155.192,22.183 155.872,22.242 155.931 C 22.301 155.990,22.535 155.404,22.762 154.629 C 22.989 153.854,23.129 153.173,23.072 153.117 C 23.016 153.060,22.782 153.646,22.552 154.419 M378.441 156.533 C 378.441 156.753,378.602 157.353,378.800 157.867 C 378.998 158.380,379.159 158.620,379.159 158.400 C 379.159 158.180,378.998 157.580,378.800 157.067 C 378.602 156.553,378.441 156.313,378.441 156.533 M20.705 160.305 C 20.169 162.134,20.344 162.309,20.933 160.533 C 21.183 159.781,21.327 159.105,21.253 159.031 C 21.179 158.956,20.932 159.530,20.705 160.305 M379.237 159.200 C 379.237 159.420,379.341 159.840,379.467 160.133 C 379.611 160.470,379.696 160.519,379.696 160.267 C 379.696 160.047,379.593 159.627,379.467 159.333 C 379.322 158.997,379.237 158.948,379.237 159.200 M379.754 160.933 C 379.744 161.080,380.032 162.100,380.393 163.200 C 380.754 164.300,380.979 164.791,380.894 164.292 C 380.722 163.282,379.783 160.514,379.754 160.933 M19.076 165.476 C 18.833 166.309,18.685 167.040,18.745 167.101 C 18.806 167.162,19.051 166.526,19.289 165.689 C 19.527 164.852,19.676 164.120,19.619 164.063 C 19.562 164.007,19.318 164.642,19.076 165.476 M381.621 167.067 C 381.611 167.213,381.898 168.233,382.259 169.333 C 382.620 170.433,382.846 170.925,382.761 170.426 C 382.589 169.416,381.649 166.647,381.621 167.067 M17.493 170.560 C 17.236 171.378,17.073 172.095,17.131 172.154 C 17.190 172.212,17.449 171.591,17.707 170.773 C 17.964 169.956,18.127 169.238,18.069 169.180 C 18.010 169.121,17.751 169.742,17.493 170.560 M383.565 173.800 C 383.639 174.057,383.846 174.777,384.026 175.402 C 384.205 176.026,384.400 176.489,384.459 176.430 C 384.595 176.294,383.739 173.333,383.563 173.333 C 383.490 173.333,383.491 173.543,383.565 173.800 M15.897 175.633 C 15.660 176.327,15.475 177.024,15.486 177.181 C 15.497 177.338,15.736 176.816,16.019 176.021 C 16.301 175.226,16.486 174.530,16.429 174.474 C 16.373 174.417,16.133 174.939,15.897 175.633 M385.108 178.933 C 385.108 179.153,385.329 179.933,385.600 180.667 C 385.871 181.400,386.092 181.820,386.092 181.600 C 386.092 181.380,385.871 180.600,385.600 179.867 C 385.329 179.133,385.108 178.713,385.108 178.933 M14.297 180.700 C 14.060 181.394,13.875 182.090,13.886 182.248 C 13.897 182.405,14.136 181.883,14.419 181.088 C 14.701 180.293,14.886 179.597,14.829 179.540 C 14.773 179.484,14.533 180.006,14.297 180.700 M386.962 185.067 C 386.968 185.287,387.144 185.887,387.351 186.400 L 387.729 187.333 387.567 186.400 C 387.384 185.342,386.940 184.365,386.962 185.067 M12.409 186.809 C 11.836 188.781,12.030 188.975,12.640 187.040 C 12.898 186.222,13.050 185.495,12.979 185.423 C 12.908 185.352,12.651 185.976,12.409 186.809 M10.963 191.504 C 10.653 192.420,10.409 193.297,10.420 193.452 C 10.431 193.607,10.730 192.902,11.085 191.887 C 11.439 190.872,11.684 189.995,11.628 189.939 C 11.572 189.883,11.272 190.587,10.963 191.504 M388.574 190.400 C 388.574 190.620,388.736 191.220,388.933 191.733 C 389.131 192.247,389.293 192.487,389.293 192.267 C 389.293 192.047,389.131 191.447,388.933 190.933 C 388.736 190.420,388.574 190.180,388.574 190.400 M389.371 193.067 C 389.371 193.287,389.474 193.707,389.600 194.000 C 389.744 194.336,389.829 194.385,389.829 194.133 C 389.829 193.913,389.726 193.493,389.600 193.200 C 389.456 192.864,389.371 192.815,389.371 193.067 M9.244 196.978 C 9.006 197.815,8.858 198.547,8.914 198.603 C 8.971 198.660,9.216 198.024,9.458 197.191 C 9.700 196.358,9.849 195.626,9.788 195.566 C 9.727 195.505,9.483 196.140,9.244 196.978 M390.175 195.733 C 390.175 195.953,390.396 196.733,390.667 197.467 C 390.937 198.200,391.159 198.620,391.159 198.400 C 391.159 198.180,390.937 197.400,390.667 196.667 C 390.396 195.933,390.175 195.513,390.175 195.733 M391.774 201.067 C 391.774 201.287,391.936 201.887,392.133 202.400 C 392.331 202.913,392.493 203.153,392.493 202.933 C 392.493 202.713,392.331 202.113,392.133 201.600 C 391.936 201.087,391.774 200.847,391.774 201.067 M7.360 203.093 C 7.102 203.911,6.939 204.628,6.998 204.687 C 7.057 204.746,7.316 204.124,7.573 203.307 C 7.831 202.489,7.994 201.772,7.935 201.713 C 7.877 201.654,7.618 202.276,7.360 203.093 M393.361 206.267 C 393.348 206.413,393.624 207.433,393.975 208.533 C 394.326 209.633,394.625 210.413,394.639 210.267 C 394.652 210.120,394.376 209.100,394.025 208.000 C 393.674 206.900,393.375 206.120,393.361 206.267 M5.760 208.160 C 5.502 208.978,5.339 209.695,5.398 209.754 C 5.457 209.812,5.716 209.191,5.973 208.373 C 6.231 207.556,6.394 206.838,6.335 206.780 C 6.277 206.721,6.018 207.342,5.760 208.160 M395.108 212.267 C 395.411 213.468,396.035 214.935,395.856 214.029 C 395.773 213.606,395.532 212.886,395.322 212.429 C 395.034 211.806,394.981 211.765,395.108 212.267 M4.124 213.458 C 3.882 214.291,3.738 215.027,3.803 215.092 C 3.869 215.158,4.117 214.526,4.356 213.689 C 4.594 212.852,4.738 212.116,4.677 212.055 C 4.615 211.993,4.367 212.624,4.124 213.458 M5.376 213.564 C 4.888 215.191,4.920 215.236,6.467 215.147 C 7.841 215.068,7.866 215.052,7.809 214.267 C 7.682 212.496,5.854 211.968,5.376 213.564 M392.941 213.435 C 391.796 214.579,392.022 215.200,393.583 215.200 L 394.899 215.200 394.577 214.087 C 394.180 212.714,393.810 212.566,392.941 213.435 M3.498 215.933 L 3.467 216.533 199.851 216.533 C 307.862 216.533,396.291 216.443,396.359 216.333 C 396.427 216.223,308.123 216.163,200.127 216.200 C 13.257 216.264,3.767 216.245,3.651 215.800 C 3.559 215.448,3.521 215.481,3.498 215.933 " stroke="none" fill="#00aa3a" fill-rule="evenodd"></path><path id="path2" d="M0.000 133.334 L 0.000 266.667 199.933 266.600 L 399.867 266.533 399.934 133.267 L 400.001 0.000 200.000 0.000 L 0.000 0.000 0.000 133.334 M168.800 50.282 C 226.073 50.365,289.853 50.331,310.533 50.206 C 331.213 50.081,348.275 50.024,348.448 50.078 C 348.620 50.132,349.062 51.396,349.428 52.888 C 349.795 54.380,350.951 58.900,351.997 62.933 C 353.044 66.967,354.179 71.347,354.520 72.667 C 354.861 73.987,355.587 76.687,356.133 78.667 C 356.678 80.647,357.469 83.527,357.889 85.067 C 359.579 91.263,361.623 98.591,362.798 102.667 C 363.326 104.500,364.038 107.020,364.380 108.267 C 364.994 110.504,366.752 116.530,368.154 121.200 C 368.550 122.520,369.222 124.800,369.647 126.267 C 371.394 132.294,372.006 134.377,372.664 136.533 C 373.404 138.957,375.569 146.282,376.131 148.267 C 376.318 148.927,377.447 152.707,378.640 156.667 C 382.396 169.135,382.957 171.002,383.729 173.600 C 385.440 179.360,386.742 183.694,387.212 185.200 C 387.959 187.592,390.947 197.556,391.330 198.933 C 391.885 200.930,394.641 210.105,395.455 212.667 C 395.874 213.987,396.258 215.367,396.308 215.733 L 396.400 216.400 199.904 216.467 L 3.407 216.534 3.593 215.545 C 3.695 215.001,4.124 213.471,4.547 212.145 C 5.524 209.078,8.275 200.261,9.501 196.267 C 10.019 194.580,10.784 192.120,11.202 190.800 C 12.160 187.771,13.262 184.226,14.517 180.133 C 15.056 178.373,15.780 176.093,16.124 175.067 C 16.468 174.040,17.312 171.340,17.999 169.067 C 18.686 166.793,19.408 164.453,19.604 163.867 C 20.071 162.470,21.561 157.746,22.801 153.733 C 24.047 149.700,25.502 145.104,26.136 143.200 C 26.404 142.393,27.120 140.113,27.726 138.133 C 28.333 136.153,29.108 133.693,29.450 132.667 C 29.792 131.640,30.498 129.420,31.019 127.733 C 31.540 126.047,32.745 122.207,33.697 119.200 C 34.648 116.193,36.163 111.393,37.063 108.533 C 37.963 105.673,38.981 102.493,39.326 101.467 C 39.671 100.440,40.453 97.980,41.066 96.000 C 41.678 94.020,42.899 90.120,43.778 87.333 C 46.051 80.131,46.723 77.991,48.133 73.467 C 48.818 71.267,49.542 68.987,49.741 68.400 C 49.941 67.813,50.662 65.473,51.343 63.200 C 52.025 60.927,52.804 58.407,53.075 57.600 C 53.345 56.793,54.007 54.706,54.546 52.962 L 55.526 49.790 60.096 49.961 C 62.610 50.054,111.527 50.199,168.800 50.282 " stroke="none" fill="#008d17" fill-rule="evenodd"></path></g></svg>