<?xml version="1.0" encoding="utf-8"?>
<!-- Generator: Adobe Illustrator 23.0.4, SVG Export Plug-In . SVG Version: 6.00 Build 0)  -->
<svg version="1.1" id="Слой_1" xmlns="http://www.w3.org/2000/svg" xmlns:xlink="http://www.w3.org/1999/xlink" x="0px" y="0px"
	 viewBox="0 0 80 80" style="enable-background:new 0 0 80 80;" xml:space="preserve">
<style type="text/css">
	.st0{fill:#000105;}
	.st1{fill:#FFFFFF;}
</style>
<circle class="st0" cx="40.1" cy="40" r="37.6"/>
<path class="st1" d="M40.9,57.6c1.3,0.1,2.7,0,4.8-0.2c3.4-0.5,6.6-1.9,9.1-4.2c2.9-2.6,5-6.4,5.8-11.6h-0.2
	c-2.4,2.9-5.9,4.7-10.2,4.7c-7.8,0-12.9-5.9-12.9-13.3c0-8.2,6-15.5,14.9-15.5s14.4,7.2,14.4,18.3c0,9.6-3.2,16.3-7.5,20.4
	c-3.3,3.3-8,5.3-12.7,5.8c-2.1,0.3-4,0.4-5.4,0.3v-4.7L40.9,57.6 M43.1,32.6c0,5.4,3.3,9.2,8.4,9.2c4,0,7-1.9,8.6-4.6
	c0.3-0.5,0.5-1.2,0.5-2.1c0-7.4-2.7-13.1-8.9-13.1C46.6,22,43.1,26.4,43.1,32.6"/>
<path class="st1" d="M21.7,23.7h-0.1L14,27.8l-1.1-4.5l9.5-5.1h5v43.5h-5.7V23.7"/>
</svg>
