<?xml version="1.0" encoding="utf-8"?>
<!-- Generator: Adobe Illustrator 23.0.4, SVG Export Plug-In . SVG Version: 6.00 Build 0)  -->
<svg version="1.1" id="Слой_1" xmlns="http://www.w3.org/2000/svg" xmlns:xlink="http://www.w3.org/1999/xlink" x="0px" y="0px"
	 viewBox="0 0 80 80" style="enable-background:new 0 0 80 80;" xml:space="preserve">
<style type="text/css">
	.st0{fill:#000105;}
	.st1{fill:#FFFFFF;}
</style>
<circle class="st0" cx="40.1" cy="40" r="37.6"/>
<path class="st1" d="M26.4,61.8V49.9H6.2V46l19.4-27.8H32v27.1h6.1v4.6H32v11.9L26.4,61.8 M26.4,45.3V30.8c0-2.3,0.1-4.6,0.2-6.8
	h-0.2c-1.3,2.5-2.4,4.4-3.6,6.4L12.2,45.2v0.1H26.4"/>
<path class="st1" d="M70.5,39.6c0,14.6-5.5,22.6-15,22.6c-8.4,0-14.2-7.8-14.3-22c0-14.4,6.2-22.3,15-22.3
	C65.3,17.8,70.5,25.9,70.5,39.6 M47.1,40.2c0,11.2,3.5,17.5,8.8,17.5c6,0,8.9-6.9,8.9-17.9c0-10.6-2.7-17.5-8.8-17.5
	C50.8,22.3,47.1,28.5,47.1,40.2"/>
</svg>
