<svg xmlns="http://www.w3.org/2000/svg" viewBox="0 0 30 30" enable-background="new 0 0 30 30" width="30" height="30">
 <path transform="matrix(-.7071-.7071.7071-.7071 14.83 36.16)" fill="#f89521" d="m13.9-.1h2v30.2h-2z"/>
 <path fill="#fed0a0" d="m25 4.1l-9.2 9.3-3.7 3.6 13.3-12.4z"/>
 <path fill="#ba6e29" d="m26.1 4.8l.3.3c0 0-19 19-19.8 19.7-.8.9-2.5.4-2.7-.1.2-.2 2.7-2.7 2.7-2.7 2.3.9 19.5-17.2 19.5-17.2"/>
 <path transform="matrix(-.7071-.7071.7071-.7071 18.54 44.819)" fill="#f89521" d="m17.6 3.5h2v30.2h-2z"/>
 <path fill="#fed0a0" d="M28.6 7.7 19.3 17 15.7 20.6 29 8.1z"/>
 <path fill="#ba6e29" d="m29.6 8.3l.3.3c0 0-19 19.1-19.8 19.8-.8.9-2.5.4-2.7-.1.2-.2 2.7-2.7 2.7-2.7 2.3.8 19.5-17.2 19.5-17.3"/>
 <path transform="matrix(-.7071-.7071.7071-.7071 11.363 27.601)" fill="#f89521" d="m10.4-3.7h2v30.2h-2z"/>
 <path fill="#fed0a0" d="M21.5.6 12.2 9.8 8.6 13.5 21.9 1z"/>
 <path fill="#ba6e29" d="m22.5 1.2l.3.3c0 0-19 19-19.8 19.8-.8.9-2.5.4-2.7-.1.2-.2 2.7-2.7 2.7-2.7 2.3.8 19.5-17.3 19.5-17.3"/>
</svg>
