<svg xmlns="http://www.w3.org/2000/svg" viewBox="0 0 30 30" enable-background="new 0 0 30 30" width="30" height="30">
 <path transform="matrix(-.7071.7071-.7071-.7071 36.15 15.07)" fill="#f89521" d="m13.9-.1h2v30.2h-2z"/>
 <path fill="#fed0a0" d="m4.5 4.6l13.3 12.4-3.6-3.6-9.3-9.3z"/>
 <path fill="#ba6e29" d="m23.4 22c0 0 2.5 2.5 2.7 2.7-.2.5-1.9 1-2.7.1-.8-.7-19.8-19.7-19.8-19.7l.3-.3c-.1 0 17.2 18.1 19.5 17.2"/>
 <path transform="matrix(-.7071.7071-.7071-.7071 32.59 23.671)" fill="#f89521" d="m10.4 3.5h2v30.2h-2z"/>
 <path fill="#fed0a0" d="m.9 8.1l13.3 12.5-3.6-3.7-9.3-9.2z"/>
 <path fill="#ba6e29" d="m19.8 25.6c0 0 2.5 2.5 2.7 2.7-.2.5-1.9 1-2.7.1-.8-.8-19.8-19.8-19.8-19.8l.3-.3c0 0 17.2 18.1 19.5 17.3"/>
 <path transform="matrix(-.7071.7071-.7071-.7071 39.712 6.476)" fill="#f89521" d="m17.5-3.6h2v30.2h-2z"/>
 <path fill="#fed0a0" d="M8 1 21.4 13.5 17.7 9.8 8.5.6z"/>
 <path fill="#ba6e29" d="m26.9 18.4c0 0 2.5 2.5 2.7 2.7-.2.5-1.9 1-2.7.1-.8-.7-19.8-19.7-19.8-19.7l.3-.3c0 0 17.2 18.1 19.5 17.2"/>
</svg>
