<?xml version="1.0" encoding="UTF-8" ?>
<!DOCTYPE svg PUBLIC "-//W3C//DTD SVG 1.1//EN" "http://www.w3.org/Graphics/SVG/1.1/DTD/svg11.dtd">
<svg width="1000pt" height="1000pt" viewBox="0 0 1000 1000" version="1.1" xmlns="http://www.w3.org/2000/svg">
    <g id="#020202ff">
        <path fill="#020202" opacity="1.00"
            d=" M 398.00 37.18 C 403.65 36.94 407.64 32.05 413.20 31.45 C 420.21 30.54 427.23 32.58 433.65 35.28 C 442.77 39.15 450.89 45.93 461.09 46.77 C 463.14 47.31 466.04 46.77 467.22 48.96 C 467.64 52.43 464.13 54.21 461.80 55.95 C 467.65 60.04 473.33 64.66 477.27 70.69 C 481.15 76.54 483.98 83.04 486.20 89.68 C 486.79 92.03 487.69 94.95 486.01 97.05 C 484.64 98.17 482.88 98.65 481.30 99.38 C 485.68 109.97 486.42 121.90 484.11 133.07 C 482.55 139.95 475.98 143.52 471.15 147.93 C 470.22 163.16 469.06 178.88 462.74 192.99 C 472.87 192.30 483.88 193.26 492.11 199.83 C 497.11 203.45 499.84 209.68 505.65 212.25 C 513.18 215.33 521.75 215.06 529.01 218.96 C 533.50 221.26 536.94 225.09 540.00 229.02 C 544.05 234.30 549.38 238.48 555.05 241.90 C 560.74 245.39 567.75 244.72 573.83 247.11 C 584.25 250.89 591.64 260.23 595.91 270.13 C 599.98 280.14 603.49 290.84 611.21 298.75 C 615.64 303.54 620.98 308.99 620.91 315.96 C 621.08 318.33 618.23 318.44 616.70 319.36 C 621.58 327.47 620.02 337.51 617.18 346.04 C 614.43 355.70 609.48 364.54 603.73 372.71 C 591.24 391.85 577.08 409.95 560.76 425.98 C 562.89 434.26 566.15 442.26 570.48 449.63 C 574.23 456.07 579.74 461.43 582.54 468.42 C 584.81 475.06 583.31 482.15 583.02 488.98 C 582.47 497.92 584.51 506.98 582.40 515.83 C 581.74 519.52 579.73 522.75 578.46 526.23 C 577.94 532.46 578.93 538.75 578.24 544.99 C 577.24 552.96 577.15 561.12 574.62 568.83 C 569.13 586.66 563.91 604.57 558.52 622.44 C 554.62 635.83 552.52 649.65 550.77 663.46 C 549.83 668.70 549.78 674.08 550.75 679.32 C 551.92 689.93 555.58 700.04 560.65 709.39 C 556.20 713.87 549.67 714.94 543.80 716.42 C 532.44 718.45 520.76 718.72 509.27 717.75 C 508.71 722.96 508.40 728.22 508.65 733.47 C 516.80 732.09 524.95 734.21 532.77 736.35 C 545.16 740.21 557.31 744.99 568.63 751.38 C 586.33 761.23 603.08 772.67 619.45 784.57 C 629.05 791.42 638.52 798.58 649.00 804.04 C 655.31 806.92 661.98 809.70 669.02 809.77 C 677.71 809.42 686.35 807.79 695.08 808.20 C 700.17 808.37 705.35 810.38 708.84 814.16 C 712.36 818.26 712.13 824.02 711.76 829.09 C 710.92 837.15 709.51 845.15 707.73 853.07 C 706.15 860.46 703.72 867.67 702.77 875.20 C 701.56 882.75 702.36 890.40 702.45 898.00 C 702.71 908.65 702.23 919.41 699.74 929.80 C 698.31 935.09 696.36 940.50 692.51 944.53 C 689.47 947.65 684.50 949.70 680.36 947.57 C 675.88 945.20 673.21 940.64 670.53 936.55 C 664.03 926.21 660.66 914.41 655.73 903.34 C 653.51 897.93 651.33 892.51 648.83 887.23 C 646.80 883.02 645.50 878.27 642.04 874.94 C 636.15 868.93 628.05 865.97 620.70 862.21 C 607.48 855.77 594.46 848.89 580.97 843.02 C 553.38 830.97 525.72 818.63 500.33 802.31 C 502.33 823.83 502.42 845.46 502.61 867.05 C 502.09 880.94 504.29 895.10 510.29 907.71 C 513.66 914.84 516.62 922.29 521.45 928.60 C 527.56 937.23 529.88 948.22 528.48 958.64 C 527.56 962.30 523.90 964.23 520.59 965.34 C 511.36 968.36 501.58 968.93 492.00 970.11 C 482.91 971.19 473.99 973.47 465.38 976.55 C 459.19 978.76 452.52 979.78 445.97 978.91 C 436.66 977.65 427.12 975.84 419.00 970.85 C 414.90 968.37 415.57 962.33 417.72 958.75 C 422.63 952.00 430.38 948.24 437.64 944.59 C 444.98 940.58 452.17 935.92 457.66 929.52 C 460.49 926.24 463.54 922.67 463.71 918.11 C 459.93 913.66 457.93 908.10 454.79 903.24 C 446.25 888.42 439.55 872.57 434.60 856.20 C 429.26 839.01 425.79 821.32 421.67 803.82 C 418.83 791.25 415.68 778.61 409.94 767.01 C 407.16 761.27 403.09 756.22 400.71 750.28 C 397.68 743.59 396.24 736.33 395.29 729.09 C 394.32 720.47 394.88 711.70 392.89 703.19 C 390.17 703.65 387.45 704.13 384.73 704.52 C 382.76 695.79 383.68 686.79 384.40 677.98 C 386.20 663.29 389.78 648.69 396.45 635.42 C 399.45 630.10 398.89 623.80 400.01 617.99 C 403.03 601.88 403.92 585.05 399.94 569.02 C 399.19 565.06 395.42 562.89 393.32 559.72 C 389.16 553.87 386.06 546.51 387.50 539.22 C 388.29 534.91 389.41 530.68 389.98 526.33 C 383.28 523.51 377.10 519.64 370.69 516.24 C 367.84 514.59 364.62 513.16 362.68 510.37 C 360.65 507.13 359.68 503.38 358.39 499.81 C 356.92 495.36 354.95 491.08 353.64 486.58 C 351.35 478.95 352.08 470.79 349.64 463.20 C 345.92 451.42 341.09 439.98 338.06 427.99 C 335.56 416.22 333.62 403.90 335.84 391.94 C 328.27 388.04 321.82 382.12 316.70 375.36 C 313.18 370.91 312.75 364.87 313.71 359.48 C 315.88 348.68 319.02 338.01 324.18 328.24 C 326.89 323.26 329.02 317.79 328.90 312.03 C 328.76 301.65 326.40 291.40 326.60 281.00 C 326.85 270.29 327.40 259.47 330.16 249.08 C 334.64 234.10 345.77 222.02 358.76 213.77 C 363.22 210.93 367.61 207.55 373.00 206.80 C 365.58 199.03 359.91 189.58 356.82 179.28 C 355.07 172.62 352.32 166.24 348.50 160.51 C 345.74 156.95 341.60 154.54 339.68 150.33 C 336.57 144.91 338.55 138.08 335.23 132.74 C 331.91 127.35 328.48 121.53 328.67 114.96 C 329.13 105.55 333.43 96.94 337.54 88.66 C 338.54 83.64 339.18 78.41 341.86 73.92 C 344.15 69.36 348.22 66.09 352.62 63.67 C 350.03 61.70 347.74 59.36 345.87 56.70 C 349.23 54.59 353.31 55.12 357.08 54.59 C 362.39 54.12 367.39 51.85 371.62 48.65 C 379.40 42.96 388.13 37.73 398.00 37.18 M 392.83 107.27 C 389.75 107.29 387.71 109.80 385.57 111.64 C 381.34 115.78 375.18 116.89 370.69 120.67 C 368.53 122.28 367.08 124.58 365.81 126.91 C 362.59 132.82 358.41 138.18 353.64 142.92 C 354.24 145.15 354.83 147.39 355.43 149.62 C 367.17 146.34 379.06 143.64 390.95 140.99 C 392.63 140.89 395.31 139.60 396.05 141.87 C 399.70 152.24 398.91 163.51 402.18 173.98 C 400.03 174.93 398.49 173.07 397.91 171.22 C 396.11 166.06 395.53 160.59 394.51 155.26 C 383.14 158.84 371.85 162.74 360.24 165.49 C 362.04 171.91 363.74 178.39 366.31 184.55 C 369.90 192.43 375.05 199.64 381.58 205.36 C 388.38 211.38 395.33 217.35 403.33 221.73 C 408.77 224.70 414.54 228.00 420.97 227.48 C 425.69 225.83 429.76 222.73 433.67 219.67 C 443.56 211.03 452.17 200.78 458.14 189.04 C 461.38 182.08 462.36 174.37 463.40 166.84 C 464.31 160.12 464.62 153.33 464.62 146.55 C 451.76 147.79 438.84 148.14 425.96 148.87 C 424.08 148.81 420.92 149.39 420.40 146.90 C 419.87 143.34 419.64 139.67 420.06 136.09 C 420.35 133.80 423.08 133.62 424.85 133.24 C 434.71 131.71 444.55 129.94 454.48 128.93 C 449.10 124.89 444.35 120.10 439.80 115.19 C 435.92 110.80 431.63 106.75 428.34 101.87 C 427.27 104.94 426.28 108.38 423.48 110.35 C 421.81 111.50 419.88 113.41 417.69 112.47 C 415.36 108.27 416.30 102.42 411.84 99.50 C 407.01 104.84 399.83 106.96 392.83 107.27 M 455.08 204.99 C 455.30 218.39 451.63 231.98 444.12 243.14 C 439.36 250.19 432.25 256.11 423.72 257.72 C 416.31 259.16 408.52 256.01 403.49 250.54 C 396.65 243.27 393.70 233.19 393.14 223.40 C 386.72 219.28 380.91 214.31 375.35 209.10 C 371.79 213.47 366.49 215.71 361.94 218.85 C 352.95 224.63 344.66 231.78 338.75 240.76 C 336.54 243.85 334.78 247.29 333.96 251.01 C 331.77 260.85 331.41 270.97 331.25 281.01 C 331.24 291.39 333.48 301.60 333.85 311.96 C 334.11 318.58 331.74 324.92 328.57 330.63 C 323.52 340.06 320.46 350.41 318.38 360.86 C 317.98 363.48 317.55 366.21 318.28 368.81 C 320.03 371.30 322.72 372.96 324.76 375.22 C 330.08 380.69 336.26 386.37 344.20 387.22 C 352.02 387.89 359.94 388.02 367.72 386.83 C 367.43 381.94 366.10 376.96 367.37 372.12 C 368.03 369.39 369.57 367.01 371.04 364.66 C 361.35 355.34 351.40 345.73 345.68 333.34 C 341.80 324.98 338.30 315.64 339.96 306.30 C 342.61 305.16 342.48 308.34 343.06 310.00 C 345.73 323.50 352.16 336.15 361.13 346.55 C 353.95 328.59 354.47 308.92 355.00 289.93 C 354.98 287.37 355.75 284.93 357.11 282.78 C 360.12 286.90 358.71 292.31 359.24 297.05 C 360.21 315.46 360.52 334.61 368.22 351.72 C 370.34 357.23 375.56 360.46 379.14 364.91 C 389.44 377.13 398.31 390.46 407.38 403.61 C 410.91 409.08 414.75 414.37 418.00 420.03 C 419.20 422.17 420.51 424.62 419.59 427.14 C 418.22 426.80 416.95 426.10 416.18 424.89 C 412.87 420.47 409.89 415.81 406.52 411.44 C 394.94 396.93 385.44 380.85 373.19 366.86 C 372.34 370.50 371.34 374.25 372.01 378.01 C 372.49 382.63 374.26 387.81 371.29 391.97 C 376.08 402.71 378.61 414.31 379.94 425.96 C 381.13 434.75 381.39 443.83 384.72 452.18 C 386.76 458.57 391.91 463.20 394.86 469.12 C 396.26 471.66 396.88 474.84 399.50 476.50 C 423.23 494.92 452.87 503.20 481.92 508.75 C 488.80 510.29 495.88 510.72 502.73 512.42 C 500.73 513.74 498.36 514.29 495.98 514.11 C 487.49 513.80 479.12 512.17 470.79 510.63 C 457.79 508.00 444.67 505.55 432.25 500.78 C 419.12 495.70 406.41 488.94 396.06 479.29 C 393.88 480.32 391.62 481.94 389.07 481.34 C 383.57 480.29 379.15 476.61 374.55 473.69 C 377.32 479.79 381.73 484.93 386.62 489.45 C 390.61 493.54 395.69 497.85 395.86 504.02 C 396.16 506.25 394.50 507.86 393.14 509.37 C 399.11 518.93 396.48 530.76 394.05 541.01 C 392.80 551.06 400.16 559.09 405.99 566.35 C 414.52 566.07 422.54 562.98 430.71 560.86 C 445.59 557.02 459.86 551.10 474.95 548.02 C 493.63 544.03 511.94 538.06 531.00 536.09 C 540.29 535.03 549.65 534.65 558.89 533.26 C 565.40 532.45 571.19 528.09 574.18 522.31 C 577.43 516.13 578.19 508.92 577.39 502.06 C 576.47 494.35 576.60 486.56 577.32 478.84 C 577.57 475.43 577.69 471.85 576.27 468.66 C 573.88 463.37 569.89 459.07 566.70 454.28 C 561.88 447.20 558.56 439.20 556.27 430.98 C 551.65 436.20 546.96 441.45 543.59 447.60 C 538.23 456.82 534.06 466.86 526.91 474.93 C 520.78 482.01 511.69 485.52 502.91 487.98 C 498.16 489.42 494.75 485.31 492.49 481.80 C 490.02 480.72 486.97 480.03 485.62 477.44 C 482.80 472.15 483.25 465.89 483.68 460.11 C 481.47 459.94 478.80 460.72 477.01 459.04 C 475.04 456.86 475.81 453.68 476.41 451.12 C 478.40 443.54 481.21 435.55 487.55 430.51 C 494.64 425.06 503.66 423.60 512.01 421.07 C 518.00 419.08 523.49 415.41 527.30 410.34 C 531.64 404.65 535.75 398.78 539.69 392.81 C 545.14 384.62 549.29 375.66 553.53 366.80 C 552.61 362.07 552.12 357.25 550.79 352.62 C 539.22 355.73 526.96 356.57 515.13 354.53 C 506.87 352.55 499.22 348.68 491.30 345.72 C 486.86 343.64 481.13 342.06 479.46 336.87 C 484.04 337.84 488.16 340.13 492.53 341.69 C 497.65 343.63 502.93 345.05 508.17 346.62 C 519.36 350.44 531.49 349.80 542.99 347.95 C 534.08 340.74 522.62 336.79 515.18 327.74 C 514.20 326.68 513.28 324.43 515.05 323.63 C 518.26 325.38 520.87 328.02 523.93 330.01 C 532.32 335.65 541.42 340.21 549.42 346.44 C 554.43 345.15 559.39 343.66 564.32 342.10 C 571.16 340.09 576.74 335.48 582.64 331.68 C 592.37 324.09 603.42 317.80 615.64 315.39 C 612.87 307.15 605.14 302.37 600.78 295.16 C 595.96 288.02 593.25 279.79 590.08 271.86 C 586.36 262.98 579.72 254.46 570.18 251.56 C 560.07 248.33 549.35 250.36 538.97 250.33 C 528.74 250.82 518.72 248.19 509.04 245.19 C 505.41 243.96 501.64 242.76 498.58 240.37 C 497.34 239.59 496.92 238.22 497.15 236.82 C 498.49 237.03 499.81 237.44 501.08 237.95 C 509.11 241.23 517.61 243.19 526.11 244.84 C 533.93 246.39 541.93 245.50 549.82 245.08 C 545.17 241.89 540.44 238.61 536.92 234.13 C 533.84 230.25 530.80 226.05 526.27 223.76 C 518.52 219.85 509.25 220.63 501.61 216.43 C 495.66 213.14 493.07 206.26 487.47 202.53 C 479.77 197.01 469.98 196.52 460.85 196.21 C 458.95 199.15 457.01 202.07 455.08 204.99 M 431.64 227.71 C 427.42 230.16 422.98 232.94 417.96 233.06 C 410.79 232.16 404.06 229.21 397.63 226.06 C 399.74 234.92 403.39 244.49 411.64 249.35 C 418.01 253.22 426.37 251.60 431.99 247.11 C 443.12 238.62 448.55 224.66 450.16 211.12 C 444.54 217.21 438.75 223.32 431.64 227.71 M 586.62 335.58 C 581.00 339.85 575.22 344.05 568.82 347.09 C 564.50 356.72 560.08 366.29 555.84 375.95 C 549.76 389.70 541.10 402.07 532.06 414.01 C 527.27 420.50 520.01 424.83 512.33 427.03 C 504.84 429.13 496.66 430.35 490.48 435.47 C 484.62 440.69 482.89 448.68 480.41 455.80 C 485.24 453.79 490.04 451.44 493.88 447.82 C 496.03 446.15 497.84 443.23 500.88 443.37 C 505.77 444.13 509.04 451.47 505.01 455.07 C 501.34 457.67 496.46 456.97 492.46 455.59 C 490.82 456.47 489.17 457.33 487.53 458.20 C 487.69 463.70 487.52 469.67 490.46 474.56 C 492.28 475.86 494.60 476.29 496.41 477.64 C 497.93 479.19 498.90 481.20 500.44 482.74 C 505.53 482.41 510.14 479.79 514.74 477.78 C 525.89 472.07 530.83 459.90 536.56 449.52 C 543.50 435.54 555.03 424.74 565.15 413.11 C 579.34 397.01 591.92 379.56 603.56 361.55 C 608.13 353.90 611.56 345.53 613.57 336.86 C 614.87 331.47 614.05 325.57 610.43 321.25 C 601.88 324.88 593.60 329.39 586.62 335.58 M 555.78 351.19 C 556.55 353.72 557.12 356.31 557.60 358.92 C 559.55 355.39 561.69 351.97 563.94 348.62 C 561.22 349.51 558.50 350.37 555.78 351.19 M 338.66 393.15 C 338.95 406.56 339.91 420.14 343.83 433.05 C 346.64 442.03 349.79 450.91 353.45 459.59 C 356.14 465.75 356.13 472.58 357.20 479.11 C 357.98 484.30 360.21 489.09 362.01 493.97 C 363.53 497.85 364.59 501.91 366.29 505.73 C 367.36 508.51 370.15 509.94 372.53 511.45 C 378.52 514.90 384.28 518.73 390.07 522.50 C 389.75 517.96 388.51 513.53 386.22 509.60 C 378.42 508.18 369.78 504.48 366.40 496.82 C 368.31 495.19 370.12 497.30 371.75 498.24 C 377.70 502.70 385.39 505.28 392.82 503.69 C 391.43 500.44 389.34 497.56 386.75 495.17 C 381.26 489.96 375.44 484.83 371.80 478.08 C 370.50 475.58 369.21 472.82 369.60 469.95 C 369.75 467.95 371.95 466.67 373.80 467.27 C 380.44 469.61 385.23 476.45 392.74 476.35 C 390.92 469.89 386.56 464.58 382.75 459.19 C 380.49 455.81 376.66 454.22 373.10 452.62 C 375.15 450.41 378.09 451.31 380.58 452.02 C 377.19 444.19 376.52 435.60 375.45 427.23 C 374.03 415.53 371.47 403.90 366.85 393.03 C 357.55 394.55 347.96 394.75 338.66 393.15 M 497.25 451.57 C 498.78 451.45 500.33 451.34 501.87 451.21 C 501.36 450.20 500.86 449.19 500.36 448.20 C 499.31 449.31 498.27 450.44 497.25 451.57 M 556.52 538.71 C 543.61 540.26 530.58 540.97 517.81 543.49 C 510.14 545.05 502.53 546.92 494.98 549.00 C 483.12 552.06 471.09 554.55 459.42 558.34 C 449.57 561.43 439.71 564.55 429.63 566.82 C 421.58 568.56 413.52 571.08 405.18 570.52 C 409.34 586.09 408.61 602.56 405.71 618.28 C 409.95 611.37 414.49 604.64 418.49 597.58 C 420.98 593.52 422.88 588.75 427.17 586.20 C 422.49 604.47 409.67 619.04 402.13 636.07 C 392.12 655.78 388.74 678.10 388.91 700.02 C 400.64 695.19 413.46 694.94 425.95 694.93 C 439.22 696.23 451.89 700.73 464.99 702.96 C 475.86 704.60 485.86 698.32 494.21 692.12 C 498.43 685.61 498.02 677.48 498.63 670.05 C 499.81 658.31 501.88 646.51 506.52 635.59 C 509.40 628.88 512.53 622.26 515.80 615.74 C 518.19 611.24 520.30 606.34 524.46 603.15 C 524.14 605.36 523.79 607.61 522.86 609.67 C 515.06 626.85 506.31 644.07 503.86 663.01 C 502.13 671.78 503.32 681.15 499.46 689.44 C 504.16 689.00 508.62 690.64 512.78 692.62 C 518.35 665.47 529.07 639.72 540.69 614.67 C 547.49 599.71 557.92 586.80 564.99 571.98 C 572.24 559.73 573.97 545.17 574.06 531.19 C 568.86 534.92 562.98 538.04 556.52 538.71 M 551.75 606.82 C 542.86 622.65 536.21 639.58 529.49 656.41 C 523.90 670.56 520.81 685.66 514.47 699.51 C 510.15 697.37 505.92 694.51 500.99 694.15 C 497.23 695.21 494.18 697.82 490.95 699.91 C 486.97 702.76 482.50 704.81 477.97 706.63 C 491.21 709.31 504.47 712.32 518.04 712.70 C 530.91 712.85 544.04 712.10 556.23 707.60 C 552.52 701.96 549.28 695.92 547.85 689.27 C 544.55 677.04 545.64 664.24 547.49 651.88 C 549.19 639.26 551.95 626.79 555.84 614.66 C 558.98 604.97 561.48 595.07 564.80 585.43 C 560.61 592.65 555.79 599.50 551.75 606.82 M 397.11 702.05 C 400.74 711.96 399.45 722.71 401.48 732.93 C 402.67 740.84 405.24 748.62 409.62 755.36 C 411.72 758.56 413.65 761.87 415.43 765.26 C 423.12 767.12 431.10 767.97 438.99 767.02 C 452.28 765.52 465.94 761.50 476.09 752.40 C 471.57 745.47 466.89 738.47 464.54 730.45 C 462.38 722.94 459.99 715.17 461.02 707.27 C 448.92 705.05 437.19 700.89 424.92 699.70 C 415.63 700.19 406.23 699.92 397.11 702.05 M 465.23 707.93 C 467.11 720.60 470.46 733.46 477.81 744.14 C 487.77 758.95 496.03 775.27 499.05 793.01 C 509.19 776.24 515.13 757.37 521.05 738.80 C 516.42 737.64 511.67 737.26 506.92 737.36 C 505.47 737.62 504.65 736.06 504.44 734.90 C 503.18 729.01 503.90 722.97 503.96 717.02 C 493.24 715.56 482.58 713.26 472.50 709.29 C 470.20 708.29 467.69 708.09 465.23 707.93 M 503.90 797.10 C 540.11 820.28 581.25 833.83 619.11 853.85 C 628.49 858.69 638.49 863.08 645.80 870.97 C 653.03 866.47 658.12 859.24 661.68 851.64 C 666.83 840.28 666.12 826.84 660.95 815.62 C 641.89 810.43 626.61 797.38 610.50 786.64 C 597.01 776.94 583.25 767.60 569.00 759.04 C 555.43 750.84 540.62 744.91 525.56 740.08 C 521.62 760.05 515.32 780.07 503.90 797.10 M 454.59 769.55 C 442.53 772.69 429.52 773.57 417.49 769.86 C 420.55 777.44 422.99 785.26 424.93 793.20 C 430.18 814.54 433.93 836.28 440.60 857.26 C 446.23 876.52 455.82 894.22 465.19 911.85 C 466.81 914.56 469.31 917.74 472.90 917.09 C 483.09 915.85 492.60 920.73 501.06 925.80 C 505.47 928.59 510.88 928.53 515.80 927.35 C 511.09 918.91 505.74 910.75 502.26 901.68 C 498.70 892.21 496.81 882.12 496.83 872.00 C 496.90 859.00 496.56 846.00 496.36 833.00 C 495.67 816.57 495.58 799.87 491.13 783.91 C 488.62 774.29 483.93 765.44 478.97 756.90 C 472.10 763.15 463.50 767.17 454.59 769.55 M 666.39 816.64 C 670.62 826.14 671.85 837.06 669.17 847.16 C 666.27 858.75 658.93 869.22 648.84 875.68 C 655.99 884.30 659.69 894.98 663.73 905.26 C 668.37 916.84 671.73 929.38 679.91 939.11 C 681.41 940.59 683.37 943.13 685.73 941.82 C 689.70 939.98 691.33 935.45 692.72 931.61 C 697.85 915.18 694.96 897.83 695.27 880.97 C 695.98 865.95 701.18 851.65 703.54 836.88 C 704.37 830.81 706.34 824.46 704.51 818.41 C 703.51 815.23 699.72 814.92 696.95 814.57 C 686.71 813.84 676.62 816.53 666.39 816.64 M 468.23 922.02 C 462.87 936.35 449.51 945.66 436.40 952.39 C 430.16 955.84 423.33 959.37 419.73 965.85 C 429.48 971.63 440.77 974.51 452.07 974.64 C 460.38 974.74 467.78 970.48 475.60 968.34 C 489.12 964.15 503.51 964.62 517.16 961.10 C 519.76 960.22 523.61 959.41 523.89 956.08 C 524.88 947.61 521.42 939.54 518.04 932.00 C 514.13 933.01 510.09 934.04 506.03 933.46 C 498.42 932.63 492.71 926.89 485.57 924.65 C 480.09 922.24 474.06 922.52 468.23 922.02 Z" />
        <path fill="#020202" opacity="1.00"
            d=" M 416.74 180.74 C 418.21 178.99 419.36 177.01 420.59 175.10 C 418.88 179.76 417.73 184.84 414.75 188.89 C 409.86 188.65 405.77 185.46 401.61 183.22 C 402.00 181.26 400.64 178.12 402.94 177.14 C 406.48 178.46 409.55 180.78 413.08 182.14 C 414.54 183.10 415.89 181.84 416.74 180.74 Z" />
        <path fill="#020202" opacity="1.00"
            d=" M 417.44 193.71 C 421.51 193.27 425.75 191.59 429.80 192.91 C 429.64 195.73 429.42 200.07 425.87 200.55 C 420.01 202.12 413.98 203.37 407.89 203.37 C 405.73 203.56 405.27 201.06 404.31 199.69 C 402.77 199.18 399.05 200.50 399.57 197.84 C 405.22 195.45 411.49 195.04 417.44 193.71 Z" />
        <path fill="#020202" opacity="1.00"
            d=" M 458.74 239.01 C 459.05 236.93 458.37 233.57 461.22 233.21 C 462.65 235.51 462.50 238.31 462.77 240.90 C 463.55 252.60 465.51 264.51 470.99 275.01 C 476.60 286.18 486.76 293.93 494.95 303.08 C 496.27 304.42 496.58 306.31 496.94 308.07 C 492.22 306.60 488.78 302.97 485.18 299.81 C 479.77 294.91 474.05 290.17 470.11 283.94 C 461.49 270.71 458.59 254.58 458.74 239.01 Z" />
        <path fill="#020202" opacity="1.00"
            d=" M 533.91 364.93 C 536.15 363.22 538.52 361.69 541.12 360.58 C 540.80 362.26 540.63 364.11 539.39 365.41 C 530.39 375.89 517.93 382.29 506.32 389.38 C 504.18 390.53 501.98 392.17 499.41 391.84 C 498.35 389.35 501.33 388.20 502.85 386.90 C 513.52 380.04 523.73 372.49 533.91 364.93 Z" />
        <path fill="#020202" opacity="1.00"
            d=" M 462.32 574.28 C 464.61 571.12 465.72 567.17 468.58 564.42 C 469.85 569.32 467.85 574.12 465.20 578.16 C 457.87 589.53 448.06 599.01 438.62 608.60 C 434.06 612.82 430.25 618.00 424.93 621.31 C 424.47 621.11 423.56 620.71 423.10 620.51 C 423.39 617.63 425.67 615.58 427.38 613.44 C 433.34 606.73 439.15 599.87 445.51 593.54 C 451.52 587.50 457.44 581.29 462.32 574.28 Z" />
    </g>
    <g id="#f0b58bff">
        <path fill="#f0b58b" opacity="1.00"
            d=" M 392.83 107.27 C 399.83 106.96 407.01 104.84 411.84 99.50 C 416.30 102.42 415.36 108.27 417.69 112.47 C 419.88 113.41 421.81 111.50 423.48 110.35 C 426.28 108.38 427.27 104.94 428.34 101.87 C 431.63 106.75 435.92 110.80 439.80 115.19 C 444.35 120.10 449.10 124.89 454.48 128.93 C 444.55 129.94 434.71 131.71 424.85 133.24 C 423.08 133.62 420.35 133.80 420.06 136.09 C 419.64 139.67 419.87 143.34 420.40 146.90 C 420.92 149.39 424.08 148.81 425.96 148.87 C 438.84 148.14 451.76 147.79 464.62 146.55 C 464.62 153.33 464.31 160.12 463.40 166.84 C 462.36 174.37 461.38 182.08 458.14 189.04 C 452.17 200.78 443.56 211.03 433.67 219.67 C 429.76 222.73 425.69 225.83 420.97 227.48 C 414.54 228.00 408.77 224.70 403.33 221.73 C 395.33 217.35 388.38 211.38 381.58 205.36 C 375.05 199.64 369.90 192.43 366.31 184.55 C 363.74 178.39 362.04 171.91 360.24 165.49 C 371.85 162.74 383.14 158.84 394.51 155.26 C 395.53 160.59 396.11 166.06 397.91 171.22 C 398.49 173.07 400.03 174.93 402.18 173.98 C 398.91 163.51 399.70 152.24 396.05 141.87 C 395.31 139.60 392.63 140.89 390.95 140.99 C 379.06 143.64 367.17 146.34 355.43 149.62 C 354.83 147.39 354.24 145.15 353.64 142.92 C 358.41 138.18 362.59 132.82 365.81 126.91 C 367.08 124.58 368.53 122.28 370.69 120.67 C 375.18 116.89 381.34 115.78 385.57 111.64 C 387.71 109.80 389.75 107.29 392.83 107.27 M 416.74 180.74 C 415.89 181.84 414.54 183.10 413.08 182.14 C 409.55 180.78 406.48 178.46 402.94 177.14 C 400.64 178.12 402.00 181.26 401.61 183.22 C 405.77 185.46 409.86 188.65 414.75 188.89 C 417.73 184.84 418.88 179.76 420.59 175.10 C 419.36 177.01 418.21 178.99 416.74 180.74 M 417.44 193.71 C 411.49 195.04 405.22 195.45 399.57 197.84 C 399.05 200.50 402.77 199.18 404.31 199.69 C 405.27 201.06 405.73 203.56 407.89 203.37 C 413.98 203.37 420.01 202.12 425.87 200.55 C 429.42 200.07 429.64 195.73 429.80 192.91 C 425.75 191.59 421.51 193.27 417.44 193.71 Z" />
        <path fill="#f0b58b" opacity="1.00"
            d=" M 431.64 227.71 C 438.75 223.32 444.54 217.21 450.16 211.12 C 448.55 224.66 443.12 238.62 431.99 247.11 C 426.37 251.60 418.01 253.22 411.64 249.35 C 403.39 244.49 399.74 234.92 397.63 226.06 C 404.06 229.21 410.79 232.16 417.96 233.06 C 422.98 232.94 427.42 230.16 431.64 227.71 Z" />
        <path fill="#f0b58b" opacity="1.00"
            d=" M 586.62 335.58 C 593.60 329.39 601.88 324.88 610.43 321.25 C 614.05 325.57 614.87 331.47 613.57 336.86 C 611.56 345.53 608.13 353.90 603.56 361.55 C 591.92 379.56 579.34 397.01 565.15 413.11 C 555.03 424.74 543.50 435.54 536.56 449.52 C 530.83 459.90 525.89 472.07 514.74 477.78 C 510.14 479.79 505.53 482.41 500.44 482.74 C 498.90 481.20 497.93 479.19 496.41 477.64 C 494.60 476.29 492.28 475.86 490.46 474.56 C 487.52 469.67 487.69 463.70 487.53 458.20 C 489.17 457.33 490.82 456.47 492.46 455.59 C 496.46 456.97 501.34 457.67 505.01 455.07 C 509.04 451.47 505.77 444.13 500.88 443.37 C 497.84 443.23 496.03 446.15 493.88 447.82 C 490.04 451.44 485.24 453.79 480.41 455.80 C 482.89 448.68 484.62 440.69 490.48 435.47 C 496.66 430.35 504.84 429.13 512.33 427.03 C 520.01 424.83 527.27 420.50 532.06 414.01 C 541.10 402.07 549.76 389.70 555.84 375.95 C 560.08 366.29 564.50 356.72 568.82 347.09 C 575.22 344.05 581.00 339.85 586.62 335.58 Z" />
        <path fill="#f0b58b" opacity="1.00"
            d=" M 338.66 393.15 C 347.96 394.75 357.55 394.55 366.85 393.03 C 371.47 403.90 374.03 415.53 375.45 427.23 C 376.52 435.60 377.19 444.19 380.58 452.02 C 378.09 451.31 375.15 450.41 373.10 452.62 C 376.66 454.22 380.49 455.81 382.75 459.19 C 386.56 464.58 390.92 469.89 392.74 476.35 C 385.23 476.45 380.44 469.61 373.80 467.27 C 371.95 466.67 369.75 467.95 369.60 469.95 C 369.21 472.82 370.50 475.58 371.80 478.08 C 375.44 484.83 381.26 489.96 386.75 495.17 C 389.34 497.56 391.43 500.44 392.82 503.69 C 385.39 505.28 377.70 502.70 371.75 498.24 C 370.12 497.30 368.31 495.19 366.40 496.82 C 369.78 504.48 378.42 508.18 386.22 509.60 C 388.51 513.53 389.75 517.96 390.07 522.50 C 384.28 518.73 378.52 514.90 372.53 511.45 C 370.15 509.94 367.36 508.51 366.29 505.73 C 364.59 501.91 363.53 497.85 362.01 493.97 C 360.21 489.09 357.98 484.30 357.20 479.11 C 356.13 472.58 356.14 465.75 353.45 459.59 C 349.79 450.91 346.64 442.03 343.83 433.05 C 339.91 420.14 338.95 406.56 338.66 393.15 Z" />
        <path fill="#f0b58b" opacity="1.00"
            d=" M 397.11 702.05 C 406.23 699.92 415.63 700.19 424.92 699.70 C 437.19 700.89 448.92 705.05 461.02 707.27 C 459.99 715.17 462.38 722.94 464.54 730.45 C 466.89 738.47 471.57 745.47 476.09 752.40 C 465.94 761.50 452.28 765.52 438.99 767.02 C 431.10 767.97 423.12 767.12 415.43 765.26 C 413.65 761.87 411.72 758.56 409.62 755.36 C 405.24 748.62 402.67 740.84 401.48 732.93 C 399.45 722.71 400.74 711.96 397.11 702.05 Z" />
        <path fill="#f0b58b" opacity="1.00"
            d=" M 465.23 707.93 C 467.69 708.09 470.20 708.29 472.50 709.29 C 482.58 713.26 493.24 715.56 503.96 717.02 C 503.90 722.97 503.18 729.01 504.44 734.90 C 504.65 736.06 505.47 737.62 506.92 737.36 C 511.67 737.26 516.42 737.64 521.05 738.80 C 515.13 757.37 509.19 776.24 499.05 793.01 C 496.03 775.27 487.77 758.95 477.81 744.14 C 470.46 733.46 467.11 720.60 465.23 707.93 Z" />
    </g>
    <g id="#f11b27ff">
        <path fill="var(--shirt-color, grey)" opacity="1.00"
            d=" M 455.08 204.99 C 457.01 202.07 458.95 199.15 460.85 196.21 C 469.98 196.52 479.77 197.01 487.47 202.53 C 493.07 206.26 495.66 213.14 501.61 216.43 C 509.25 220.63 518.52 219.85 526.27 223.76 C 530.80 226.05 533.84 230.25 536.92 234.13 C 540.44 238.61 545.17 241.89 549.82 245.08 C 541.93 245.50 533.93 246.39 526.11 244.84 C 517.61 243.19 509.11 241.23 501.08 237.95 C 499.81 237.44 498.49 237.03 497.15 236.82 C 496.92 238.22 497.34 239.59 498.58 240.37 C 501.64 242.76 505.41 243.96 509.04 245.19 C 518.72 248.19 528.74 250.82 538.97 250.33 C 549.35 250.36 560.07 248.33 570.18 251.56 C 579.72 254.46 586.36 262.98 590.08 271.86 C 593.25 279.79 595.96 288.02 600.78 295.16 C 605.14 302.37 612.87 307.15 615.64 315.39 C 603.42 317.80 592.37 324.09 582.64 331.68 C 576.74 335.48 571.16 340.09 564.32 342.10 C 559.39 343.66 554.43 345.15 549.42 346.44 C 541.42 340.21 532.32 335.65 523.93 330.01 C 520.87 328.02 518.26 325.38 515.05 323.63 C 513.28 324.43 514.20 326.68 515.18 327.74 C 522.62 336.79 534.08 340.74 542.99 347.95 C 531.49 349.80 519.36 350.44 508.17 346.62 C 502.93 345.05 497.65 343.63 492.53 341.69 C 488.16 340.13 484.04 337.84 479.46 336.87 C 481.13 342.06 486.86 343.64 491.30 345.72 C 499.22 348.68 506.87 352.55 515.13 354.53 C 526.96 356.57 539.22 355.73 550.79 352.62 C 552.12 357.25 552.61 362.07 553.53 366.80 C 549.29 375.66 545.14 384.62 539.69 392.81 C 535.75 398.78 531.64 404.65 527.30 410.34 C 523.49 415.41 518.00 419.08 512.01 421.07 C 503.66 423.60 494.64 425.06 487.55 430.51 C 481.21 435.55 478.40 443.54 476.41 451.12 C 475.81 453.68 475.04 456.86 477.01 459.04 C 478.80 460.72 481.47 459.94 483.68 460.11 C 483.25 465.89 482.80 472.15 485.62 477.44 C 486.97 480.03 490.02 480.72 492.49 481.80 C 494.75 485.31 498.16 489.42 502.91 487.98 C 511.69 485.52 520.78 482.01 526.91 474.93 C 534.06 466.86 538.23 456.82 543.59 447.60 C 546.96 441.45 551.65 436.20 556.27 430.98 C 558.56 439.20 561.88 447.20 566.70 454.28 C 569.89 459.07 573.88 463.37 576.27 468.66 C 577.69 471.85 577.57 475.43 577.32 478.84 C 576.60 486.56 576.47 494.35 577.39 502.06 C 578.19 508.92 577.43 516.13 574.18 522.31 C 571.19 528.09 565.40 532.45 558.89 533.26 C 549.65 534.65 540.29 535.03 531.00 536.09 C 511.94 538.06 493.63 544.03 474.95 548.02 C 459.86 551.10 445.59 557.02 430.71 560.86 C 422.54 562.98 414.52 566.07 405.99 566.35 C 400.16 559.09 392.80 551.06 394.05 541.01 C 396.48 530.76 399.11 518.93 393.14 509.37 C 394.50 507.86 396.16 506.25 395.86 504.02 C 395.69 497.85 390.61 493.54 386.62 489.45 C 381.73 484.93 377.32 479.79 374.55 473.69 C 379.15 476.61 383.57 480.29 389.07 481.34 C 391.62 481.94 393.88 480.32 396.06 479.29 C 406.41 488.94 419.12 495.70 432.25 500.78 C 444.67 505.55 457.79 508.00 470.79 510.63 C 479.12 512.17 487.49 513.80 495.98 514.11 C 498.36 514.29 500.73 513.74 502.73 512.42 C 495.88 510.72 488.80 510.29 481.92 508.75 C 452.87 503.20 423.23 494.92 399.50 476.50 C 396.88 474.84 396.26 471.66 394.86 469.12 C 391.91 463.20 386.76 458.57 384.72 452.18 C 381.39 443.83 381.13 434.75 379.94 425.96 C 378.61 414.31 376.08 402.71 371.29 391.97 C 374.26 387.81 372.49 382.63 372.01 378.01 C 371.34 374.25 372.34 370.50 373.19 366.86 C 385.44 380.85 394.94 396.93 406.52 411.44 C 409.89 415.81 412.87 420.47 416.18 424.89 C 416.95 426.10 418.22 426.80 419.59 427.14 C 420.51 424.62 419.20 422.17 418.00 420.03 C 414.75 414.37 410.91 409.08 407.38 403.61 C 398.31 390.46 389.44 377.13 379.14 364.91 C 375.56 360.46 370.34 357.23 368.22 351.72 C 360.52 334.61 360.21 315.46 359.24 297.05 C 358.71 292.31 360.12 286.90 357.11 282.78 C 355.75 284.93 354.98 287.37 355.00 289.93 C 354.47 308.92 353.95 328.59 361.13 346.55 C 352.16 336.15 345.73 323.50 343.06 310.00 C 342.48 308.34 342.61 305.16 339.96 306.30 C 338.30 315.64 341.80 324.98 345.68 333.34 C 351.40 345.73 361.35 355.34 371.04 364.66 C 369.57 367.01 368.03 369.39 367.37 372.12 C 366.10 376.96 367.43 381.94 367.72 386.83 C 359.94 388.02 352.02 387.89 344.20 387.22 C 336.26 386.37 330.08 380.69 324.76 375.22 C 322.72 372.96 320.03 371.30 318.28 368.81 C 317.55 366.21 317.98 363.48 318.38 360.86 C 320.46 350.41 323.52 340.06 328.57 330.63 C 331.74 324.92 334.11 318.58 333.85 311.96 C 333.48 301.60 331.24 291.39 331.25 281.01 C 331.41 270.97 331.77 260.85 333.96 251.01 C 334.78 247.29 336.54 243.85 338.75 240.76 C 344.66 231.78 352.95 224.63 361.94 218.85 C 366.49 215.71 371.79 213.47 375.35 209.10 C 380.91 214.31 386.72 219.28 393.14 223.40 C 393.70 233.19 396.65 243.27 403.49 250.54 C 408.52 256.01 416.31 259.16 423.72 257.72 C 432.25 256.11 439.36 250.19 444.12 243.14 C 451.63 231.98 455.30 218.39 455.08 204.99 M 458.74 239.01 C 458.59 254.58 461.49 270.71 470.11 283.94 C 474.05 290.17 479.77 294.91 485.18 299.81 C 488.78 302.97 492.22 306.60 496.94 308.07 C 496.58 306.31 496.27 304.42 494.95 303.08 C 486.76 293.93 476.60 286.18 470.99 275.01 C 465.51 264.51 463.55 252.60 462.77 240.90 C 462.50 238.31 462.65 235.51 461.22 233.21 C 458.37 233.57 459.05 236.93 458.74 239.01 M 533.91 364.93 C 523.73 372.49 513.52 380.04 502.85 386.90 C 501.33 388.20 498.35 389.35 499.41 391.84 C 501.98 392.17 504.18 390.53 506.32 389.38 C 517.93 382.29 530.39 375.89 539.39 365.41 C 540.63 364.11 540.80 362.26 541.12 360.58 C 538.52 361.69 536.15 363.22 533.91 364.93 Z" />
        <path fill="var(--shirt-color, grey)" opacity="1.00"
            d=" M 497.25 451.57 C 498.27 450.44 499.31 449.31 500.36 448.20 C 500.86 449.19 501.36 450.20 501.87 451.21 C 500.33 451.34 498.78 451.45 497.25 451.57 Z" />
    </g>
    <g id="#2b3dcdff">
        <path fill="var(--pants-color, grey)" opacity="1.00"
            d=" M 556.52 538.71 C 562.98 538.04 568.86 534.92 574.06 531.19 C 573.97 545.17 572.24 559.73 564.99 571.98 C 557.92 586.80 547.49 599.71 540.69 614.67 C 529.07 639.72 518.35 665.47 512.78 692.62 C 508.62 690.64 504.16 689.00 499.46 689.44 C 503.32 681.15 502.13 671.78 503.86 663.01 C 506.31 644.07 515.06 626.85 522.86 609.67 C 523.79 607.61 524.14 605.36 524.46 603.15 C 520.30 606.34 518.19 611.24 515.80 615.74 C 512.53 622.26 509.40 628.88 506.52 635.59 C 501.88 646.51 499.81 658.31 498.63 670.05 C 498.02 677.48 498.43 685.61 494.21 692.12 C 485.86 698.32 475.86 704.60 464.99 702.96 C 451.89 700.73 439.22 696.23 425.95 694.93 C 413.46 694.94 400.64 695.19 388.91 700.02 C 388.74 678.10 392.12 655.78 402.13 636.07 C 409.67 619.04 422.49 604.47 427.17 586.20 C 422.88 588.75 420.98 593.52 418.49 597.58 C 414.49 604.64 409.95 611.37 405.71 618.28 C 408.61 602.56 409.34 586.09 405.18 570.52 C 413.52 571.08 421.58 568.56 429.63 566.82 C 439.71 564.55 449.57 561.43 459.42 558.34 C 471.09 554.55 483.12 552.06 494.98 549.00 C 502.53 546.92 510.14 545.05 517.81 543.49 C 530.58 540.97 543.61 540.26 556.52 538.71 M 462.32 574.28 C 457.44 581.29 451.52 587.50 445.51 593.54 C 439.15 599.87 433.34 606.73 427.38 613.44 C 425.67 615.58 423.39 617.63 423.10 620.51 C 423.56 620.71 424.47 621.11 424.93 621.31 C 430.25 618.00 434.06 612.82 438.62 608.60 C 448.06 599.01 457.87 589.53 465.20 578.16 C 467.85 574.12 469.85 569.32 468.58 564.42 C 465.72 567.17 464.61 571.12 462.32 574.28 Z" />
        <path fill="var(--pants-color, grey)" opacity="1.00"
            d=" M 551.75 606.82 C 555.79 599.50 560.61 592.65 564.80 585.43 C 561.48 595.07 558.98 604.97 555.84 614.66 C 551.95 626.79 549.19 639.26 547.49 651.88 C 545.64 664.24 544.55 677.04 547.85 689.27 C 549.28 695.92 552.52 701.96 556.23 707.60 C 544.04 712.10 530.91 712.85 518.04 712.70 C 504.47 712.32 491.21 709.31 477.97 706.63 C 482.50 704.81 486.97 702.76 490.95 699.91 C 494.18 697.82 497.23 695.21 500.99 694.15 C 505.92 694.51 510.15 697.37 514.47 699.51 C 520.81 685.66 523.90 670.56 529.49 656.41 C 536.21 639.58 542.86 622.65 551.75 606.82 Z" />
        <path fill="var(--socks-color, grey)" opacity="1.00"
            d=" M 503.90 797.10 C 515.32 780.07 521.62 760.05 525.56 740.08 C 540.62 744.91 555.43 750.84 569.00 759.04 C 583.25 767.60 597.01 776.94 610.50 786.64 C 626.61 797.38 641.89 810.43 660.95 815.62 C 666.12 826.84 666.83 840.28 661.68 851.64 C 658.12 859.24 653.03 866.47 645.80 870.97 C 638.49 863.08 628.49 858.69 619.11 853.85 C 581.25 833.83 540.11 820.28 503.90 797.10 Z" />
        <path fill="var(--socks-color, grey)" opacity="1.00"
            d=" M 454.59 769.55 C 463.50 767.17 472.10 763.15 478.97 756.90 C 483.93 765.44 488.62 774.29 491.13 783.91 C 495.58 799.87 495.67 816.57 496.36 833.00 C 496.56 846.00 496.90 859.00 496.83 872.00 C 496.81 882.12 498.70 892.21 502.26 901.68 C 505.74 910.75 511.09 918.91 515.80 927.35 C 510.88 928.53 505.47 928.59 501.06 925.80 C 492.60 920.73 483.09 915.85 472.90 917.09 C 469.31 917.74 466.81 914.56 465.19 911.85 C 455.82 894.22 446.23 876.52 440.60 857.26 C 433.93 836.28 430.18 814.54 424.93 793.20 C 422.99 785.26 420.55 777.44 417.49 769.86 C 429.52 773.57 442.53 772.69 454.59 769.55 Z" />
    </g>
    <g id="#4d4d4dff">
        <path fill="#4d4d4d" opacity="1.00"
            d=" M 666.39 816.64 C 676.62 816.53 686.71 813.84 696.95 814.57 C 699.72 814.92 703.51 815.23 704.51 818.41 C 706.34 824.46 704.37 830.81 703.54 836.88 C 701.18 851.65 695.98 865.95 695.27 880.97 C 694.96 897.83 697.85 915.18 692.72 931.61 C 691.33 935.45 689.70 939.98 685.73 941.82 C 683.37 943.13 681.41 940.59 679.91 939.11 C 671.73 929.38 668.37 916.84 663.73 905.26 C 659.69 894.98 655.99 884.30 648.84 875.68 C 658.93 869.22 666.27 858.75 669.17 847.16 C 671.85 837.06 670.62 826.14 666.39 816.64 Z" />
        <path fill="#4d4d4d" opacity="1.00"
            d=" M 468.23 922.02 C 474.06 922.52 480.09 922.24 485.57 924.65 C 492.71 926.89 498.42 932.63 506.03 933.46 C 510.09 934.04 514.13 933.01 518.04 932.00 C 521.42 939.54 524.88 947.61 523.89 956.08 C 523.61 959.41 519.76 960.22 517.16 961.10 C 503.51 964.62 489.12 964.15 475.60 968.34 C 467.78 970.48 460.38 974.74 452.07 974.64 C 440.77 974.51 429.48 971.63 419.73 965.85 C 423.33 959.37 430.16 955.84 436.40 952.39 C 449.51 945.66 462.87 936.35 468.23 922.02 Z" />
    </g>
</svg>