<?xml version="1.0" encoding="UTF-8" ?>
<!DOCTYPE svg PUBLIC "-//W3C//DTD SVG 1.1//EN" "http://www.w3.org/Graphics/SVG/1.1/DTD/svg11.dtd">
<svg width="1000pt" height="1000pt" viewBox="0 0 1000 1000" version="1.1" xmlns="http://www.w3.org/2000/svg">
    <g id="#020202ff">
        <path fill="#020202" opacity="1.00"
            d=" M 481.73 34.91 C 481.01 33.70 482.47 32.08 483.75 32.50 C 488.45 33.69 493.01 35.71 497.95 35.74 C 512.02 35.87 526.18 35.62 540.05 32.99 C 549.56 31.83 559.29 32.54 568.70 34.19 C 580.42 36.83 591.45 44.49 596.48 55.61 C 598.30 59.46 598.73 63.77 600.28 67.71 C 602.07 72.25 605.92 75.49 608.35 79.65 C 612.46 87.08 616.06 95.39 614.85 104.08 C 614.48 111.84 610.93 118.82 607.92 125.81 C 606.18 129.63 607.18 133.85 607.49 137.85 C 608.10 144.51 608.07 151.67 604.68 157.65 C 601.26 163.40 597.40 168.96 592.51 173.56 C 589.02 176.90 586.08 180.84 582.08 183.62 C 580.98 182.44 579.90 181.25 578.83 180.06 C 577.43 181.85 575.16 183.45 575.35 185.99 C 575.11 192.04 576.05 198.04 576.49 204.05 C 579.10 204.72 581.86 205.28 584.02 207.01 C 588.00 209.95 590.07 214.63 591.74 219.13 C 594.63 227.16 598.67 234.71 603.15 241.96 C 608.90 251.28 613.44 261.33 619.68 270.36 C 628.96 283.98 638.02 297.82 645.31 312.63 C 650.40 322.98 656.43 333.00 659.69 344.15 C 661.87 351.34 662.05 359.03 664.99 366.01 C 667.11 371.80 670.12 378.05 668.25 384.32 C 666.06 390.32 660.80 394.39 656.31 398.65 C 653.62 413.70 648.18 428.53 638.76 440.70 C 636.77 442.95 636.95 446.13 636.28 448.89 C 634.17 460.79 627.18 470.98 623.64 482.41 C 621.82 487.32 621.60 492.69 619.50 497.49 C 618.12 500.60 614.90 502.13 612.05 503.61 C 616.92 520.26 611.61 537.66 604.77 552.93 C 597.39 568.18 589.37 583.14 580.53 597.60 C 573.14 610.22 564.43 622.14 558.71 635.68 C 554.52 645.91 550.21 656.12 544.70 665.72 C 539.94 674.03 532.72 680.96 524.09 685.14 C 512.79 690.11 500.14 687.09 488.88 683.62 C 483.37 691.45 475.96 697.61 468.77 703.82 C 486.17 703.10 502.37 710.37 518.11 716.80 C 529.52 721.34 540.44 727.24 552.38 730.37 C 568.10 734.21 584.33 735.36 600.16 738.60 C 607.61 740.51 615.28 741.41 622.97 741.45 C 632.46 741.26 642.48 742.09 650.74 747.24 C 656.80 750.88 659.63 757.86 661.51 764.36 C 665.27 778.59 664.54 793.43 664.21 808.01 C 664.08 821.04 662.89 834.05 661.08 846.95 C 659.96 853.98 658.86 861.22 655.53 867.61 C 650.06 877.40 642.05 885.96 632.05 891.19 C 628.61 892.88 624.88 894.31 621.00 894.29 C 615.94 893.81 611.25 890.37 609.28 885.69 C 607.13 880.82 606.59 875.47 605.67 870.30 C 603.83 859.80 602.39 849.18 599.13 839.00 C 596.82 831.64 594.73 824.20 591.99 816.98 C 590.05 810.80 584.09 807.36 579.18 803.74 C 567.32 796.52 553.27 794.42 539.78 792.33 C 515.83 788.68 491.62 786.19 468.14 779.97 C 456.09 776.68 443.58 775.28 431.74 771.19 C 419.58 767.32 408.33 761.05 398.08 753.50 C 403.39 776.26 403.67 799.79 402.88 823.03 C 402.36 840.91 407.88 858.21 408.74 875.99 C 408.88 886.26 407.80 896.81 403.57 906.29 C 414.20 921.00 418.58 939.19 420.24 957.00 C 420.96 963.66 419.31 971.40 413.51 975.45 C 407.68 979.37 400.62 980.98 393.73 981.73 C 375.86 983.53 357.88 984.22 339.93 983.99 C 329.61 983.23 319.34 984.79 309.03 984.80 C 301.68 984.83 294.33 984.37 286.99 983.99 C 281.94 983.46 275.92 982.75 272.82 978.19 C 270.01 974.06 271.85 968.43 275.43 965.42 C 281.33 960.37 288.49 957.13 295.07 953.11 C 308.58 944.97 322.91 937.54 333.89 925.96 C 339.53 920.40 344.76 914.07 347.11 906.37 C 340.08 889.24 337.52 870.71 334.66 852.53 C 332.18 838.40 330.43 824.15 327.97 810.02 C 324.49 789.62 322.66 769.01 320.28 748.47 C 319.16 738.60 316.67 728.94 315.81 719.04 C 314.95 709.25 313.89 699.21 316.44 689.58 C 321.60 669.24 333.63 651.78 343.76 633.71 C 346.18 629.94 346.28 625.27 348.42 621.37 C 353.41 611.82 361.55 604.53 368.06 596.07 C 372.18 591.11 375.18 585.32 379.54 580.55 C 383.38 576.04 388.16 572.46 391.98 567.94 C 395.97 563.26 395.94 556.76 398.33 551.33 C 401.81 542.22 409.14 535.52 414.91 527.92 C 418.42 523.37 419.21 517.54 421.54 512.43 C 423.75 507.76 427.87 504.42 432.03 501.55 C 431.48 497.12 431.58 492.51 433.30 488.34 C 436.00 480.94 442.53 475.76 445.21 468.36 C 448.36 460.36 447.94 451.55 450.54 443.41 C 453.31 434.28 459.72 426.77 462.42 417.61 C 464.68 409.63 465.90 401.29 465.29 392.99 C 464.66 382.39 464.78 371.67 466.91 361.22 C 452.42 359.60 437.93 357.91 423.53 355.64 C 412.06 353.75 400.50 352.33 388.92 351.57 C 382.10 353.55 375.74 356.86 368.94 358.91 C 362.30 360.87 356.05 363.93 349.34 365.64 C 345.48 369.20 340.37 371.95 334.97 371.17 C 332.66 370.96 331.11 369.08 329.53 367.62 C 325.41 367.76 321.24 366.73 318.33 363.65 C 312.48 362.87 307.62 359.31 302.75 356.30 C 301.68 350.42 302.18 344.21 303.45 338.39 C 304.31 334.16 307.79 331.30 311.41 329.36 C 318.77 325.31 325.39 320.09 332.40 315.48 C 336.38 312.79 341.20 311.43 346.01 311.81 C 359.38 312.78 372.71 314.31 385.95 316.43 C 407.53 319.70 429.36 317.01 451.05 317.71 C 453.04 311.98 456.07 306.63 460.16 302.13 C 465.73 296.04 471.27 289.80 477.98 284.91 C 477.26 280.62 474.60 276.59 475.25 272.14 C 476.63 267.09 481.53 264.30 485.43 261.31 C 494.17 255.56 498.68 245.76 504.34 237.34 C 507.11 233.83 506.09 229.15 506.17 225.02 C 505.93 222.87 506.26 220.28 504.64 218.58 C 498.39 217.51 492.23 219.99 485.98 219.87 C 478.02 220.11 469.49 216.75 465.37 209.63 C 460.01 200.85 461.18 189.95 457.40 180.60 C 455.81 177.37 452.29 175.55 450.87 172.20 C 449.40 168.73 450.09 164.79 451.45 161.41 C 453.69 155.72 456.52 150.25 458.06 144.31 C 460.27 136.39 460.42 128.06 459.71 119.91 C 451.88 116.25 446.96 108.21 445.18 99.98 C 444.20 95.54 443.07 90.62 445.15 86.31 C 447.17 82.46 451.13 80.00 452.92 75.99 C 455.47 70.40 456.67 64.24 459.86 58.94 C 463.96 51.79 470.72 46.59 477.92 42.80 C 480.08 41.63 482.50 41.11 484.90 40.63 C 483.63 38.86 482.23 37.08 481.73 34.91 M 461.53 104.75 C 464.57 116.82 466.88 129.47 464.45 141.87 C 469.15 140.10 474.69 139.22 479.36 141.51 C 483.69 143.77 485.91 148.39 487.35 152.83 C 481.99 152.33 476.63 151.89 471.27 151.52 C 470.93 147.64 466.42 147.58 463.72 146.11 C 461.99 150.76 460.14 155.37 457.79 159.75 C 456.40 162.75 454.30 166.11 455.55 169.51 C 457.17 172.73 460.78 174.45 462.18 177.84 C 465.41 185.28 465.64 193.55 467.74 201.31 C 469.04 205.98 472.08 210.46 476.72 212.32 C 486.10 216.72 496.48 211.13 506.09 213.96 C 511.44 216.29 510.94 223.15 510.78 227.98 C 514.94 223.69 520.05 220.29 525.82 218.62 C 535.92 215.02 546.59 213.38 556.72 209.86 C 561.89 208.17 567.16 206.80 572.24 204.83 C 569.55 197.93 569.79 190.40 570.74 183.18 C 564.65 186.47 560.41 191.99 555.69 196.87 C 553.66 192.87 555.70 188.49 556.27 184.39 C 555.17 183.29 553.89 182.32 553.13 180.94 C 552.46 176.99 554.24 172.20 550.96 169.04 C 546.71 164.78 540.99 162.44 536.53 158.43 C 535.61 159.80 535.44 162.53 533.18 161.94 C 532.33 159.60 532.22 157.04 531.14 154.78 C 528.92 150.15 525.28 146.43 522.54 142.12 C 522.13 145.74 522.25 149.80 519.81 152.78 C 516.64 156.59 512.99 159.98 509.24 163.22 C 508.75 158.65 506.94 153.66 509.50 149.40 C 513.00 142.51 515.18 134.80 514.27 127.03 C 514.14 124.10 509.70 122.78 508.26 125.38 C 505.98 128.84 505.16 133.17 502.15 136.16 C 498.77 139.85 493.13 141.68 488.42 139.52 C 481.38 135.99 477.43 128.88 473.81 122.23 C 470.22 116.09 467.60 108.98 461.53 104.75 M 546.24 217.36 C 554.33 218.06 562.48 218.54 570.49 219.90 C 569.67 221.29 568.51 222.08 567.00 222.29 C 555.65 223.55 544.26 221.69 532.91 222.41 C 524.39 222.86 516.38 227.72 511.92 234.96 C 504.77 245.56 500.03 258.72 488.63 265.66 C 485.57 267.86 481.97 269.74 480.02 273.09 C 479.76 276.39 481.06 279.60 481.53 282.84 C 489.02 278.76 497.66 278.21 505.97 277.39 C 511.64 276.87 517.75 277.69 522.79 274.46 C 519.72 271.41 516.13 268.88 513.37 265.52 C 512.55 264.43 511.19 261.99 513.48 261.81 C 517.15 264.32 520.61 267.14 524.16 269.82 C 525.88 271.26 528.23 273.37 527.10 275.87 C 524.84 279.61 520.24 281.26 516.07 281.68 C 507.16 282.21 498.08 282.24 489.39 284.51 C 479.78 287.45 473.11 295.40 466.39 302.38 C 461.99 306.89 458.03 311.91 455.66 317.80 C 460.58 317.86 465.51 317.95 470.43 318.22 C 471.81 315.77 473.09 313.12 475.44 311.43 C 479.30 308.60 484.38 307.90 489.02 308.79 C 502.92 311.37 515.46 318.86 525.88 328.21 C 532.75 334.39 539.67 340.93 543.87 349.30 C 546.31 353.98 545.78 359.50 547.67 364.37 C 548.79 367.32 550.15 370.19 551.21 373.17 C 558.45 371.24 566.53 369.63 571.63 363.62 C 579.72 353.66 583.57 341.22 588.54 329.60 C 590.86 324.77 594.53 318.63 600.81 319.54 C 598.40 321.53 595.45 323.11 593.98 326.00 C 592.19 329.46 591.41 333.33 590.11 336.99 C 586.87 347.01 582.69 356.89 576.33 365.36 C 573.82 368.78 570.15 371.02 566.47 372.98 C 573.46 373.93 580.68 374.74 587.09 377.89 C 591.34 380.41 594.86 384.77 595.23 389.86 C 593.28 388.45 591.62 386.70 589.93 385.01 C 586.76 381.72 582.09 380.77 577.85 379.66 C 568.06 377.67 557.99 376.04 548.00 377.42 C 543.06 378.19 537.91 377.66 533.39 375.44 C 528.19 372.84 522.84 369.52 520.21 364.10 C 504.31 367.75 488.21 363.89 472.40 361.83 C 470.42 372.12 470.52 382.66 471.19 393.08 C 471.82 402.47 470.55 411.95 467.91 420.97 C 465.58 428.66 460.56 435.09 457.49 442.44 C 455.07 448.02 454.77 454.15 453.88 460.08 C 452.80 467.43 450.20 474.63 445.65 480.57 C 441.64 485.91 437.03 491.88 437.82 499.00 C 438.70 504.35 443.01 510.02 448.91 509.87 C 458.89 510.65 468.27 506.61 477.86 504.56 C 485.11 502.73 492.41 500.54 499.99 501.02 C 507.62 501.43 515.35 500.46 522.41 497.43 C 533.80 492.62 544.78 486.34 557.08 484.13 C 564.71 482.75 572.35 484.69 580.00 484.59 C 589.14 484.76 598.17 481.71 605.69 476.60 C 605.64 478.75 605.03 480.92 603.08 482.10 C 596.14 486.98 587.73 489.62 579.27 489.91 C 584.46 493.86 589.31 499.02 596.03 500.17 C 601.33 501.06 606.93 500.74 612.01 498.95 C 615.40 497.66 615.70 493.61 616.37 490.57 C 617.95 479.34 623.27 469.18 627.88 458.98 C 632.96 447.59 633.73 434.56 630.80 422.50 C 627.38 408.15 628.97 393.20 632.06 378.95 C 636.11 361.31 635.85 342.94 632.56 325.21 C 634.71 326.53 636.14 328.66 636.60 331.14 C 639.08 341.53 639.86 352.32 639.14 362.96 C 638.43 375.67 634.62 387.99 634.30 400.74 C 639.05 399.88 643.88 399.09 648.37 397.22 C 652.53 395.38 655.71 392.00 658.93 388.89 C 661.30 386.52 663.78 383.62 663.54 380.03 C 663.18 375.36 661.02 371.13 659.42 366.81 C 656.43 359.21 656.55 350.84 653.81 343.17 C 650.35 333.24 644.95 324.15 640.36 314.72 C 633.31 300.29 624.47 286.84 615.43 273.60 C 608.64 263.68 603.73 252.67 597.53 242.41 C 592.88 234.62 589.34 226.23 586.39 217.67 C 585.11 213.53 581.78 209.55 577.11 209.63 C 566.54 210.98 556.60 215.07 546.24 217.36 M 473.43 318.39 C 485.11 319.94 496.78 322.42 508.63 321.17 C 501.37 317.00 493.42 313.52 485.01 312.75 C 480.37 312.36 476.49 315.25 473.43 318.39 M 336.28 319.26 C 329.07 323.63 322.57 329.12 315.12 333.11 C 312.52 334.70 309.18 335.94 308.09 339.07 C 306.38 344.02 306.31 349.35 305.57 354.50 C 306.41 354.34 308.08 354.03 308.92 353.87 C 311.36 348.46 312.61 342.68 314.06 336.96 C 314.75 338.19 315.90 339.33 315.88 340.86 C 316.37 346.76 314.16 352.39 312.28 357.86 C 316.14 359.13 321.59 357.60 323.63 362.02 C 326.35 362.71 329.14 362.36 331.91 362.32 C 333.99 362.33 333.84 365.10 334.75 366.38 C 337.47 366.44 340.13 365.84 342.71 365.02 C 339.93 362.91 335.82 360.12 336.83 356.05 C 341.12 356.44 343.86 360.66 347.87 362.10 C 353.94 359.43 359.79 356.22 366.17 354.32 C 373.90 351.98 381.19 348.30 389.03 346.35 C 397.83 346.14 406.43 348.55 415.18 349.25 C 441.19 353.44 467.44 355.79 493.47 359.83 C 502.24 360.93 511.21 360.97 519.91 359.24 C 526.83 357.89 533.06 354.44 539.20 351.13 C 533.12 340.50 523.77 332.17 514.16 324.79 C 508.15 325.37 502.11 325.37 496.08 325.23 C 489.34 324.99 482.72 323.54 476.01 323.07 C 468.36 322.29 460.67 322.57 453.00 322.53 C 430.61 322.19 408.13 324.74 385.83 321.74 C 372.95 319.80 360.00 318.36 347.04 317.12 C 343.33 316.76 339.47 317.20 336.28 319.26 M 524.84 362.89 C 530.59 368.14 537.49 373.09 545.65 372.90 C 542.43 367.14 540.81 360.72 540.27 354.18 C 535.29 357.36 530.12 360.23 524.84 362.89 M 634.15 407.27 C 634.45 416.33 637.17 425.06 637.76 434.09 C 644.04 423.89 648.62 412.73 652.23 401.33 C 646.80 404.80 640.54 406.68 634.15 407.27 M 520.46 504.46 C 508.84 508.92 496.11 505.09 484.37 509.00 C 499.48 518.79 515.57 528.22 533.75 530.58 C 531.24 528.49 528.00 526.39 527.99 522.73 C 532.00 522.47 534.62 526.49 538.26 527.74 C 540.55 529.19 545.35 530.23 544.11 533.86 C 542.65 535.67 540.12 535.60 538.03 535.81 C 526.47 536.43 515.20 532.67 504.69 528.23 C 494.45 523.70 485.45 516.95 476.13 510.85 C 466.94 513.46 457.55 515.86 447.93 515.85 C 441.63 515.54 437.17 510.42 433.71 505.70 C 430.52 508.55 427.06 511.47 425.54 515.60 C 423.76 520.37 422.74 525.51 419.79 529.76 C 414.55 537.47 406.90 543.57 403.37 552.39 C 400.97 557.96 400.96 564.41 397.52 569.54 C 393.92 574.87 388.48 578.50 384.27 583.29 C 380.00 587.81 377.11 593.39 373.21 598.21 C 366.92 606.55 358.81 613.40 353.24 622.29 C 351.95 624.52 350.46 626.84 350.33 629.49 C 354.05 633.88 358.92 637.10 363.30 640.79 C 373.39 649.07 385.15 655.00 397.31 659.59 C 399.44 655.19 401.07 650.58 403.24 646.20 C 409.01 634.51 416.37 623.65 424.57 613.53 C 430.62 605.88 436.33 597.97 441.99 590.03 C 446.51 584.01 451.38 578.07 454.05 570.93 C 455.34 567.61 455.65 564.02 456.90 560.69 C 460.68 560.84 459.87 565.50 459.71 568.07 C 458.09 579.82 449.51 588.62 443.18 598.08 C 437.46 606.60 431.03 614.58 424.71 622.65 C 418.00 631.70 412.24 641.45 407.25 651.54 C 417.27 652.63 427.38 653.38 437.23 655.59 C 445.70 657.56 453.10 662.24 460.71 666.25 C 473.02 672.26 485.79 677.36 498.97 681.11 C 505.21 682.75 511.91 684.41 518.22 682.13 C 526.55 679.04 533.86 673.16 538.61 665.64 C 547.87 650.68 552.15 633.30 561.18 618.23 C 570.23 603.23 579.83 588.54 588.07 573.07 C 596.10 558.00 604.99 542.94 608.22 525.94 C 609.92 518.88 609.30 511.59 608.51 504.45 C 605.06 504.87 601.61 505.17 598.14 505.31 C 596.88 518.09 592.90 530.86 585.05 541.16 C 584.19 542.34 582.77 542.88 581.59 543.62 C 582.78 536.64 586.35 530.43 588.81 523.87 C 591.33 517.75 592.79 511.28 594.17 504.83 C 585.93 502.68 578.93 497.09 574.53 489.86 C 568.68 489.48 562.74 488.79 556.94 490.00 C 544.02 492.75 532.76 500.02 520.46 504.46 M 321.66 689.94 C 319.32 698.77 320.43 707.99 321.11 716.97 C 321.94 728.63 325.11 739.95 326.19 751.58 C 334.45 748.52 343.31 747.70 352.01 746.90 C 365.69 746.07 379.60 746.11 393.01 749.27 C 388.09 744.82 381.70 741.57 378.81 735.29 C 371.88 721.70 373.64 705.33 379.91 691.85 C 384.05 681.92 389.19 672.44 394.76 663.24 C 386.88 661.12 379.47 657.54 372.28 653.76 C 363.80 648.04 355.12 642.36 348.06 634.89 C 338.94 653.06 326.73 669.97 321.66 689.94 M 397.82 667.75 C 394.32 674.06 390.92 680.44 387.91 687.01 C 382.61 698.16 377.92 710.57 380.50 723.10 C 381.83 728.48 383.46 734.40 388.08 737.92 C 395.07 743.67 402.23 749.24 409.75 754.29 C 418.84 760.36 429.04 764.59 439.58 767.39 C 448.04 759.80 452.66 749.05 457.11 738.84 C 460.97 729.05 464.73 718.95 465.26 708.34 C 459.25 710.16 456.23 717.62 449.49 717.47 C 451.65 712.31 456.48 709.14 460.23 705.23 C 468.32 697.48 476.45 689.77 484.77 682.26 C 472.71 678.34 461.00 673.28 449.99 666.99 C 443.49 663.33 436.42 660.55 428.99 659.63 C 421.08 658.64 413.25 657.04 405.30 656.45 C 403.86 660.91 399.85 663.64 397.82 667.75 M 469.27 708.40 C 469.39 715.96 467.99 723.45 465.77 730.66 C 461.40 744.35 455.58 757.97 446.09 768.94 C 457.50 770.69 468.68 773.54 479.85 776.40 C 506.70 783.07 534.56 784.72 561.32 791.82 C 570.75 794.52 579.43 799.25 587.60 804.61 C 587.94 800.94 588.39 796.91 591.24 794.25 C 596.15 789.46 602.85 787.29 608.46 783.51 C 612.11 781.18 615.03 777.39 615.42 772.98 C 615.88 763.67 613.27 754.00 607.17 746.82 C 606.26 745.76 605.20 744.76 603.82 744.44 C 598.41 742.78 592.74 742.30 587.17 741.45 C 576.41 739.71 565.58 738.42 554.87 736.42 C 541.74 733.82 529.90 727.37 517.60 722.42 C 502.06 716.10 486.31 708.98 469.27 708.40 M 614.33 746.04 C 619.90 754.83 622.70 765.63 621.02 775.97 C 619.26 783.97 611.94 788.71 605.04 792.00 C 600.53 794.68 594.43 796.57 592.52 801.97 C 592.54 806.73 594.97 810.99 596.76 815.28 C 599.54 821.87 601.32 828.82 603.53 835.61 C 607.18 846.80 608.95 858.48 610.81 870.07 C 611.68 875.07 611.83 880.34 614.09 884.98 C 615.85 888.22 619.81 891.24 623.62 889.53 C 631.13 886.84 637.52 881.75 643.20 876.25 C 650.74 869.26 653.23 858.72 655.03 848.99 C 657.01 836.08 658.47 823.06 658.51 809.98 C 658.71 793.97 659.31 777.62 654.97 762.04 C 653.65 757.90 652.09 753.10 647.74 751.25 C 637.51 745.52 625.50 747.37 614.33 746.04 M 326.65 755.66 C 327.95 766.13 329.07 776.62 330.31 787.10 C 332.49 802.77 335.38 818.33 337.45 834.01 C 340.67 854.37 343.09 874.93 348.45 894.87 C 350.22 902.31 353.69 909.44 359.44 914.61 C 366.47 922.02 378.83 922.73 387.19 917.22 C 391.26 914.43 395.11 911.03 397.54 906.68 C 401.99 897.85 402.98 887.75 403.14 878.00 C 402.56 859.84 396.53 842.21 397.17 823.96 C 397.97 801.52 398.27 778.89 394.39 756.69 C 384.11 752.72 372.90 752.79 362.05 752.27 C 350.21 752.27 338.03 751.89 326.65 755.66 M 401.37 909.81 C 398.32 913.55 395.60 917.71 391.58 920.50 C 385.62 924.61 378.00 925.85 370.91 924.92 C 362.28 923.55 355.18 917.71 349.95 910.99 C 346.92 920.01 340.49 927.27 333.72 933.71 C 318.43 947.89 299.00 956.27 281.85 967.83 C 279.68 969.51 276.21 972.06 277.73 975.21 C 280.26 977.98 284.38 978.15 287.88 978.64 C 298.12 979.29 308.40 980.46 318.66 979.50 C 329.75 978.82 340.86 979.38 351.96 978.99 C 362.62 978.45 373.30 978.33 383.94 977.42 C 393.29 976.72 403.44 976.87 411.59 971.56 C 415.72 968.79 416.18 963.41 415.65 958.91 C 413.82 941.87 408.76 925.24 401.37 909.81 Z" />
        <path fill="#020202" opacity="1.00"
            d=" M 551.96 401.35 C 558.96 402.73 564.37 409.90 563.55 417.03 C 562.65 426.40 558.10 435.02 552.29 442.27 C 545.40 450.69 537.20 457.97 528.65 464.66 C 515.68 474.47 501.03 481.75 486.14 488.13 C 482.03 489.84 477.88 491.80 473.34 491.87 C 476.42 487.67 481.71 486.40 486.13 484.15 C 502.54 476.78 518.44 467.93 532.09 456.11 C 540.98 448.32 549.84 439.96 555.24 429.27 C 557.31 424.79 559.01 419.97 559.11 414.99 C 559.01 409.47 553.76 406.21 551.96 401.35 Z" />
        <path fill="#020202" opacity="1.00"
            d=" M 583.89 446.87 C 587.98 444.50 591.66 441.11 596.48 440.33 C 593.54 443.85 589.58 446.22 585.89 448.86 C 568.45 461.40 549.49 471.65 530.33 481.28 C 526.86 483.08 523.28 484.78 519.38 485.41 C 521.43 483.70 523.64 482.17 525.97 480.86 C 545.47 469.86 564.79 458.54 583.89 446.87 Z" />
        <path fill="#020202" opacity="1.00"
            d=" M 582.91 515.30 C 584.47 517.19 584.57 519.58 583.91 521.88 C 580.60 535.83 574.41 548.89 567.47 561.36 C 560.27 574.44 551.96 586.90 542.52 598.47 C 533.82 609.59 522.46 618.95 509.20 624.05 C 507.14 625.06 504.96 624.62 503.27 623.14 C 515.60 617.33 526.67 608.83 535.58 598.53 C 549.89 580.34 563.11 561.14 573.16 540.24 C 577.04 532.18 579.77 523.66 582.91 515.30 Z" />
        <path fill="#020202" opacity="1.00"
            d=" M 441.44 538.52 C 443.44 535.71 446.91 537.34 449.24 538.74 C 455.69 542.75 460.66 548.67 465.35 554.55 C 473.22 564.38 478.86 575.98 481.72 588.24 C 483.02 594.22 483.42 600.68 481.32 606.53 C 480.79 608.18 479.10 609.26 477.38 608.73 C 476.46 604.71 477.12 600.52 476.32 596.48 C 473.92 583.28 469.81 570.06 461.96 559.01 C 456.40 551.08 450.20 543.11 441.44 538.52 Z" />
    </g>
    <g id="#f0b58bff">
        <path fill="#f0b58b" opacity="1.00"
            d=" M 461.53 104.75 C 467.60 108.98 470.22 116.09 473.81 122.23 C 477.43 128.88 481.38 135.99 488.42 139.52 C 493.13 141.68 498.77 139.85 502.15 136.16 C 505.16 133.17 505.98 128.84 508.26 125.38 C 509.70 122.78 514.14 124.10 514.27 127.03 C 515.18 134.80 513.00 142.51 509.50 149.40 C 506.94 153.66 508.75 158.65 509.24 163.22 C 512.99 159.98 516.64 156.59 519.81 152.78 C 522.25 149.80 522.13 145.74 522.54 142.12 C 525.28 146.43 528.92 150.15 531.14 154.78 C 532.22 157.04 532.33 159.60 533.18 161.94 C 535.44 162.53 535.61 159.80 536.53 158.43 C 540.99 162.44 546.71 164.78 550.96 169.04 C 554.24 172.20 552.46 176.99 553.13 180.94 C 553.89 182.32 555.17 183.29 556.27 184.39 C 555.70 188.49 553.66 192.87 555.69 196.87 C 560.41 191.99 564.65 186.47 570.74 183.18 C 569.79 190.40 569.55 197.93 572.24 204.83 C 567.16 206.80 561.89 208.17 556.72 209.86 C 546.59 213.38 535.92 215.02 525.82 218.62 C 520.05 220.29 514.94 223.69 510.78 227.98 C 510.94 223.15 511.44 216.29 506.09 213.96 C 496.48 211.13 486.10 216.72 476.72 212.32 C 472.08 210.46 469.04 205.98 467.74 201.31 C 465.64 193.55 465.41 185.28 462.18 177.84 C 460.78 174.45 457.17 172.73 455.55 169.51 C 454.30 166.11 456.40 162.75 457.79 159.75 C 460.14 155.37 461.99 150.76 463.72 146.11 C 466.42 147.58 470.93 147.64 471.27 151.52 C 476.63 151.89 481.99 152.33 487.35 152.83 C 485.91 148.39 483.69 143.77 479.36 141.51 C 474.69 139.22 469.15 140.10 464.45 141.87 C 466.88 129.47 464.57 116.82 461.53 104.75 Z" />
        <path fill="#f0b58b" opacity="1.00"
            d=" M 336.28 319.26 C 339.47 317.20 343.33 316.76 347.04 317.12 C 360.00 318.36 372.95 319.80 385.83 321.74 C 408.13 324.74 430.61 322.19 453.00 322.53 C 460.67 322.57 468.36 322.29 476.01 323.07 C 482.72 323.54 489.34 324.99 496.08 325.23 C 502.11 325.37 508.15 325.37 514.16 324.79 C 523.77 332.17 533.12 340.50 539.20 351.13 C 533.06 354.44 526.83 357.89 519.91 359.24 C 511.21 360.97 502.24 360.93 493.47 359.83 C 467.44 355.79 441.19 353.44 415.18 349.25 C 406.43 348.55 397.83 346.14 389.03 346.35 C 381.19 348.30 373.90 351.98 366.17 354.32 C 359.79 356.22 353.94 359.43 347.87 362.10 C 343.86 360.66 341.12 356.44 336.83 356.05 C 335.82 360.12 339.93 362.91 342.71 365.02 C 340.13 365.84 337.47 366.44 334.75 366.38 C 333.84 365.10 333.99 362.33 331.91 362.32 C 329.14 362.36 326.35 362.71 323.63 362.02 C 321.59 357.60 316.14 359.13 312.28 357.86 C 314.16 352.39 316.37 346.76 315.88 340.86 C 315.90 339.33 314.75 338.19 314.06 336.96 C 312.61 342.68 311.36 348.46 308.92 353.87 C 308.08 354.03 306.41 354.34 305.57 354.50 C 306.31 349.35 306.38 344.02 308.09 339.07 C 309.18 335.94 312.52 334.70 315.12 333.11 C 322.57 329.12 329.07 323.63 336.28 319.26 Z" />
        <path fill="#f0b58b" opacity="1.00"
            d=" M 634.15 407.27 C 640.54 406.68 646.80 404.80 652.23 401.33 C 648.62 412.73 644.04 423.89 637.76 434.09 C 637.17 425.06 634.45 416.33 634.15 407.27 Z" />
        <path fill="#f0b58b" opacity="1.00"
            d=" M 321.66 689.94 C 326.73 669.97 338.94 653.06 348.06 634.89 C 355.12 642.36 363.80 648.04 372.28 653.76 C 379.47 657.54 386.88 661.12 394.76 663.24 C 389.19 672.44 384.05 681.92 379.91 691.85 C 373.64 705.33 371.88 721.70 378.81 735.29 C 381.70 741.57 388.09 744.82 393.01 749.27 C 379.60 746.11 365.69 746.07 352.01 746.90 C 343.31 747.70 334.45 748.52 326.19 751.58 C 325.11 739.95 321.94 728.63 321.11 716.97 C 320.43 707.99 319.32 698.77 321.66 689.94 Z" />
        <path fill="#f0b58b" opacity="1.00"
            d=" M 397.82 667.75 C 399.85 663.64 403.86 660.91 405.30 656.45 C 413.25 657.04 421.08 658.64 428.99 659.63 C 436.42 660.55 443.49 663.33 449.99 666.99 C 461.00 673.28 472.71 678.34 484.77 682.26 C 476.45 689.77 468.32 697.48 460.23 705.23 C 456.48 709.14 451.65 712.31 449.49 717.47 C 456.23 717.62 459.25 710.16 465.26 708.34 C 464.73 718.95 460.97 729.05 457.11 738.84 C 452.66 749.05 448.04 759.80 439.58 767.39 C 429.04 764.59 418.84 760.36 409.75 754.29 C 402.23 749.24 395.07 743.67 388.08 737.92 C 383.46 734.40 381.83 728.48 380.50 723.10 C 377.92 710.57 382.61 698.16 387.91 687.01 C 390.92 680.44 394.32 674.06 397.82 667.75 Z" />
    </g>
    <g id="#f11b27ff">
        <path fill="var(--shirt-color, grey)" opacity="1.00"
            d=" M 546.24 217.36 C 556.60 215.07 566.54 210.98 577.11 209.63 C 581.78 209.55 585.11 213.53 586.39 217.67 C 589.34 226.23 592.88 234.62 597.53 242.41 C 603.73 252.67 608.64 263.68 615.43 273.60 C 624.47 286.84 633.31 300.29 640.36 314.72 C 644.95 324.15 650.35 333.24 653.81 343.17 C 656.55 350.84 656.43 359.21 659.42 366.81 C 661.02 371.13 663.18 375.36 663.54 380.03 C 663.78 383.62 661.30 386.52 658.93 388.89 C 655.71 392.00 652.53 395.38 648.37 397.22 C 643.88 399.09 639.05 399.88 634.30 400.74 C 634.62 387.99 638.43 375.67 639.14 362.96 C 639.86 352.32 639.08 341.53 636.60 331.14 C 636.14 328.66 634.71 326.53 632.56 325.21 C 635.85 342.94 636.11 361.31 632.06 378.95 C 628.97 393.20 627.38 408.15 630.80 422.50 C 633.73 434.56 632.96 447.59 627.88 458.98 C 623.27 469.18 617.95 479.34 616.37 490.57 C 615.70 493.61 615.40 497.66 612.01 498.95 C 606.93 500.74 601.33 501.06 596.03 500.17 C 589.31 499.02 584.46 493.86 579.27 489.91 C 587.73 489.62 596.14 486.98 603.08 482.10 C 605.03 480.92 605.64 478.75 605.69 476.60 C 598.17 481.71 589.14 484.76 580.00 484.59 C 572.35 484.69 564.71 482.75 557.08 484.13 C 544.78 486.34 533.80 492.62 522.41 497.43 C 515.35 500.46 507.62 501.43 499.99 501.02 C 492.41 500.54 485.11 502.73 477.86 504.56 C 468.27 506.61 458.89 510.65 448.91 509.87 C 443.01 510.02 438.70 504.35 437.82 499.00 C 437.03 491.88 441.64 485.91 445.65 480.57 C 450.20 474.63 452.80 467.43 453.88 460.08 C 454.77 454.15 455.07 448.02 457.49 442.44 C 460.56 435.09 465.58 428.66 467.91 420.97 C 470.55 411.95 471.82 402.47 471.19 393.08 C 470.52 382.66 470.42 372.12 472.40 361.83 C 488.21 363.89 504.31 367.75 520.21 364.10 C 522.84 369.52 528.19 372.84 533.39 375.44 C 537.91 377.66 543.06 378.19 548.00 377.42 C 557.99 376.04 568.06 377.67 577.85 379.66 C 582.09 380.77 586.76 381.72 589.93 385.01 C 591.62 386.70 593.28 388.45 595.23 389.86 C 594.86 384.77 591.34 380.41 587.09 377.89 C 580.68 374.74 573.46 373.93 566.47 372.98 C 570.15 371.02 573.82 368.78 576.33 365.36 C 582.69 356.89 586.87 347.01 590.11 336.99 C 591.41 333.33 592.19 329.46 593.98 326.00 C 595.45 323.11 598.40 321.53 600.81 319.54 C 594.53 318.63 590.86 324.77 588.54 329.60 C 583.57 341.22 579.72 353.66 571.63 363.62 C 566.53 369.63 558.45 371.24 551.21 373.17 C 550.15 370.19 548.79 367.32 547.67 364.37 C 545.78 359.50 546.31 353.98 543.87 349.30 C 539.67 340.93 532.75 334.39 525.88 328.21 C 515.46 318.86 502.92 311.37 489.02 308.79 C 484.38 307.90 479.30 308.60 475.44 311.43 C 473.09 313.12 471.81 315.77 470.43 318.22 C 465.51 317.95 460.58 317.86 455.66 317.80 C 458.03 311.91 461.99 306.89 466.39 302.38 C 473.11 295.40 479.78 287.45 489.39 284.51 C 498.08 282.24 507.16 282.21 516.07 281.68 C 520.24 281.26 524.84 279.61 527.10 275.87 C 528.23 273.37 525.88 271.26 524.16 269.82 C 520.61 267.14 517.15 264.32 513.48 261.81 C 511.19 261.99 512.55 264.43 513.37 265.52 C 516.13 268.88 519.72 271.41 522.79 274.46 C 517.75 277.69 511.64 276.87 505.97 277.39 C 497.66 278.21 489.02 278.76 481.53 282.84 C 481.06 279.60 479.76 276.39 480.02 273.09 C 481.97 269.74 485.57 267.86 488.63 265.66 C 500.03 258.72 504.77 245.56 511.92 234.96 C 516.38 227.72 524.39 222.86 532.91 222.41 C 544.26 221.69 555.65 223.55 567.00 222.29 C 568.51 222.08 569.67 221.29 570.49 219.90 C 562.48 218.54 554.33 218.06 546.24 217.36 M 551.96 401.35 C 553.76 406.21 559.01 409.47 559.11 414.99 C 559.01 419.97 557.31 424.79 555.24 429.27 C 549.84 439.96 540.98 448.32 532.09 456.11 C 518.44 467.93 502.54 476.78 486.13 484.15 C 481.71 486.40 476.42 487.67 473.34 491.87 C 477.88 491.80 482.03 489.84 486.14 488.13 C 501.03 481.75 515.68 474.47 528.65 464.66 C 537.20 457.97 545.40 450.69 552.29 442.27 C 558.10 435.02 562.65 426.40 563.55 417.03 C 564.37 409.90 558.96 402.73 551.96 401.35 M 583.89 446.87 C 564.79 458.54 545.47 469.86 525.97 480.86 C 523.64 482.17 521.43 483.70 519.38 485.41 C 523.28 484.78 526.86 483.08 530.33 481.28 C 549.49 471.65 568.45 461.40 585.89 448.86 C 589.58 446.22 593.54 443.85 596.48 440.33 C 591.66 441.11 587.98 444.50 583.89 446.87 Z" />
        <path fill="var(--shirt-color, grey)" opacity="1.00"
            d=" M 473.43 318.39 C 476.49 315.25 480.37 312.36 485.01 312.75 C 493.42 313.52 501.37 317.00 508.63 321.17 C 496.78 322.42 485.11 319.94 473.43 318.39 Z" />
        <path fill="var(--shirt-color, grey)" opacity="1.00"
            d=" M 524.84 362.89 C 530.12 360.23 535.29 357.36 540.27 354.18 C 540.81 360.72 542.43 367.14 545.65 372.90 C 537.49 373.09 530.59 368.14 524.84 362.89 Z" />
    </g>
    <g id="#2b3dcdff">
        <path fill="var(--pants-color, grey)" opacity="1.00"
            d=" M 520.46 504.46 C 532.76 500.02 544.02 492.75 556.94 490.00 C 562.74 488.79 568.68 489.48 574.53 489.86 C 578.93 497.09 585.93 502.68 594.17 504.83 C 592.79 511.28 591.33 517.75 588.81 523.87 C 586.35 530.43 582.78 536.64 581.59 543.62 C 582.77 542.88 584.19 542.34 585.05 541.16 C 592.90 530.86 596.88 518.09 598.14 505.31 C 601.61 505.17 605.06 504.87 608.51 504.45 C 609.30 511.59 609.92 518.88 608.22 525.94 C 604.99 542.94 596.10 558.00 588.07 573.07 C 579.83 588.54 570.23 603.23 561.18 618.23 C 552.15 633.30 547.87 650.68 538.61 665.64 C 533.86 673.16 526.55 679.04 518.22 682.13 C 511.91 684.41 505.21 682.75 498.97 681.11 C 485.79 677.36 473.02 672.26 460.71 666.25 C 453.10 662.24 445.70 657.56 437.23 655.59 C 427.38 653.38 417.27 652.63 407.25 651.54 C 412.24 641.45 418.00 631.70 424.71 622.65 C 431.03 614.58 437.46 606.60 443.18 598.08 C 449.51 588.62 458.09 579.82 459.71 568.07 C 459.87 565.50 460.68 560.84 456.90 560.69 C 455.65 564.02 455.34 567.61 454.05 570.93 C 451.38 578.07 446.51 584.01 441.99 590.03 C 436.33 597.97 430.62 605.88 424.57 613.53 C 416.37 623.65 409.01 634.51 403.24 646.20 C 401.07 650.58 399.44 655.19 397.31 659.59 C 385.15 655.00 373.39 649.07 363.30 640.79 C 358.92 637.10 354.05 633.88 350.33 629.49 C 350.46 626.84 351.95 624.52 353.24 622.29 C 358.81 613.40 366.92 606.55 373.21 598.21 C 377.11 593.39 380.00 587.81 384.27 583.29 C 388.48 578.50 393.92 574.87 397.52 569.54 C 400.96 564.41 400.97 557.96 403.37 552.39 C 406.90 543.57 414.55 537.47 419.79 529.76 C 422.74 525.51 423.76 520.37 425.54 515.60 C 427.06 511.47 430.52 508.55 433.71 505.70 C 437.17 510.42 441.63 515.54 447.93 515.85 C 457.55 515.86 466.94 513.46 476.13 510.85 C 485.45 516.95 494.45 523.70 504.69 528.23 C 515.20 532.67 526.47 536.43 538.03 535.81 C 540.12 535.60 542.65 535.67 544.11 533.86 C 545.35 530.23 540.55 529.19 538.26 527.74 C 534.62 526.49 532.00 522.47 527.99 522.73 C 528.00 526.39 531.24 528.49 533.75 530.58 C 515.57 528.22 499.48 518.79 484.37 509.00 C 496.11 505.09 508.84 508.92 520.46 504.46 M 582.91 515.30 C 579.77 523.66 577.04 532.18 573.16 540.24 C 563.11 561.14 549.89 580.34 535.58 598.53 C 526.67 608.83 515.60 617.33 503.27 623.14 C 504.96 624.62 507.14 625.06 509.20 624.05 C 522.46 618.95 533.82 609.59 542.52 598.47 C 551.96 586.90 560.27 574.44 567.47 561.36 C 574.41 548.89 580.60 535.83 583.91 521.88 C 584.57 519.58 584.47 517.19 582.91 515.30 M 441.44 538.52 C 450.20 543.11 456.40 551.08 461.96 559.01 C 469.81 570.06 473.92 583.28 476.32 596.48 C 477.12 600.52 476.46 604.71 477.38 608.73 C 479.10 609.26 480.79 608.18 481.32 606.53 C 483.42 600.68 483.02 594.22 481.72 588.24 C 478.86 575.98 473.22 564.38 465.35 554.55 C 460.66 548.67 455.69 542.75 449.24 538.74 C 446.91 537.34 443.44 535.71 441.44 538.52 Z" />
        <path fill="var(--socks-color, grey)" opacity="1.00"
            d=" M 469.27 708.40 C 486.31 708.98 502.06 716.10 517.60 722.42 C 529.90 727.37 541.74 733.82 554.87 736.42 C 565.58 738.42 576.41 739.71 587.17 741.45 C 592.74 742.30 598.41 742.78 603.82 744.44 C 605.20 744.76 606.26 745.76 607.17 746.82 C 613.27 754.00 615.88 763.67 615.42 772.98 C 615.03 777.39 612.11 781.18 608.46 783.51 C 602.85 787.29 596.15 789.46 591.24 794.25 C 588.39 796.91 587.94 800.94 587.60 804.61 C 579.43 799.25 570.75 794.52 561.32 791.82 C 534.56 784.72 506.70 783.07 479.85 776.40 C 468.68 773.54 457.50 770.69 446.09 768.94 C 455.58 757.97 461.40 744.35 465.77 730.66 C 467.99 723.45 469.39 715.96 469.27 708.40 Z" />
        <path fill="var(--socks-color, grey)" opacity="1.00"
            d=" M 326.65 755.66 C 338.03 751.89 350.21 752.27 362.05 752.27 C 372.90 752.79 384.11 752.72 394.39 756.69 C 398.27 778.89 397.97 801.52 397.17 823.96 C 396.53 842.21 402.56 859.84 403.14 878.00 C 402.98 887.75 401.99 897.85 397.54 906.68 C 395.11 911.03 391.26 914.43 387.19 917.22 C 378.83 922.73 366.47 922.02 359.44 914.61 C 353.69 909.44 350.22 902.31 348.45 894.87 C 343.09 874.93 340.67 854.37 337.45 834.01 C 335.38 818.33 332.49 802.77 330.31 787.10 C 329.07 776.62 327.95 766.13 326.65 755.66 Z" />
    </g>
    <g id="#4d4d4dff">
        <path fill="#4d4d4d" opacity="1.00"
            d=" M 614.33 746.04 C 625.50 747.37 637.51 745.52 647.74 751.25 C 652.09 753.10 653.65 757.90 654.97 762.04 C 659.31 777.62 658.71 793.97 658.51 809.98 C 658.47 823.06 657.01 836.08 655.03 848.99 C 653.23 858.72 650.74 869.26 643.20 876.25 C 637.52 881.75 631.13 886.84 623.62 889.53 C 619.81 891.24 615.85 888.22 614.09 884.98 C 611.83 880.34 611.68 875.07 610.81 870.07 C 608.95 858.48 607.18 846.80 603.53 835.61 C 601.32 828.82 599.54 821.87 596.76 815.28 C 594.97 810.99 592.54 806.73 592.52 801.97 C 594.43 796.57 600.53 794.68 605.04 792.00 C 611.94 788.71 619.26 783.97 621.02 775.97 C 622.70 765.63 619.90 754.83 614.33 746.04 Z" />
        <path fill="#4d4d4d" opacity="1.00"
            d=" M 401.37 909.81 C 408.76 925.24 413.82 941.87 415.65 958.91 C 416.18 963.41 415.72 968.79 411.59 971.56 C 403.44 976.87 393.29 976.72 383.94 977.42 C 373.30 978.33 362.62 978.45 351.96 978.99 C 340.86 979.38 329.75 978.82 318.66 979.50 C 308.40 980.46 298.12 979.29 287.88 978.64 C 284.38 978.15 280.26 977.98 277.73 975.21 C 276.21 972.06 279.68 969.51 281.85 967.83 C 299.00 956.27 318.43 947.89 333.72 933.71 C 340.49 927.27 346.92 920.01 349.95 910.99 C 355.18 917.71 362.28 923.55 370.91 924.92 C 378.00 925.85 385.62 924.61 391.58 920.50 C 395.60 917.71 398.32 913.55 401.37 909.81 Z" />
    </g>
</svg>