<?xml version="1.0" encoding="UTF-8" ?>
<!DOCTYPE svg PUBLIC "-//W3C//DTD SVG 1.1//EN" "http://www.w3.org/Graphics/SVG/1.1/DTD/svg11.dtd">
<svg width="1000pt" height="1000pt" viewBox="0 0 1000 1000" version="1.1" xmlns="http://www.w3.org/2000/svg">
    <g id="#020202ff">
        <path fill="#020202" opacity="1.00"
            d=" M 239.87 47.91 C 252.83 37.76 269.78 34.07 285.96 34.53 C 295.57 34.77 304.03 39.91 311.56 45.42 C 316.76 48.96 318.54 55.87 324.41 58.64 C 334.29 63.90 342.97 71.54 348.75 81.18 C 352.66 87.56 354.85 94.78 356.71 101.97 C 358.01 107.48 359.11 113.82 355.67 118.81 C 356.26 122.15 357.13 125.64 356.09 128.99 C 354.21 135.26 351.25 141.19 347.61 146.62 C 345.01 150.03 346.04 154.59 344.67 158.44 C 341.92 166.23 336.41 172.69 330.30 178.09 C 329.55 183.97 328.67 190.17 324.62 194.82 C 324.74 195.61 324.98 197.17 325.10 197.96 C 327.64 196.62 330.61 194.81 333.44 196.54 C 344.04 202.12 353.15 210.09 361.97 218.11 C 368.75 224.63 375.65 231.12 381.31 238.67 C 384.52 243.12 389.13 246.20 392.98 250.04 C 398.43 255.68 405.16 259.83 410.91 265.14 C 423.72 275.48 438.11 284.65 447.59 298.41 C 452.20 304.69 451.09 313.13 447.77 319.70 C 444.88 325.23 442.33 330.91 439.88 336.64 C 442.55 338.82 445.40 341.03 446.88 344.25 C 449.62 350.15 451.62 356.38 453.21 362.69 C 454.24 366.92 456.69 370.68 457.25 375.04 C 458.27 379.60 458.14 384.83 461.46 388.49 C 464.25 391.71 467.18 394.81 470.03 397.99 C 476.04 405.02 484.72 409.39 489.69 417.37 C 494.91 425.65 500.71 434.81 499.56 445.04 C 498.47 452.34 494.39 458.84 489.70 464.39 C 495.85 469.92 501.51 476.00 506.54 482.57 C 510.65 487.98 513.79 494.28 514.81 501.05 C 515.36 504.41 515.35 507.84 515.89 511.20 C 516.40 514.69 519.06 517.24 521.18 519.86 C 526.30 525.76 530.42 532.61 532.57 540.15 C 535.07 548.88 536.71 557.85 537.80 566.86 C 538.72 573.25 537.08 579.98 539.57 586.13 C 545.52 601.84 552.51 617.33 555.57 633.96 C 556.49 639.57 558.07 645.36 556.54 651.02 C 554.38 650.01 552.23 648.96 550.09 647.91 C 552.78 658.08 553.60 668.60 554.90 679.00 C 555.69 684.96 555.58 691.25 558.16 696.81 C 559.69 700.00 563.60 700.50 566.65 701.35 C 583.87 705.11 601.36 709.36 616.70 718.38 C 628.07 724.83 637.68 733.87 646.47 743.46 C 653.15 750.81 658.87 759.00 665.93 766.01 C 670.07 770.30 674.59 774.20 679.00 778.21 C 683.98 773.81 690.33 770.98 697.02 770.76 C 708.12 769.70 718.95 775.70 725.39 784.52 C 728.87 789.01 730.35 794.57 732.24 799.82 C 735.20 808.22 736.83 817.04 737.67 825.90 C 738.37 833.71 740.06 841.50 743.35 848.66 C 748.46 859.83 754.95 870.38 759.13 881.97 C 763.49 893.70 765.72 906.66 762.84 919.02 C 760.68 930.16 753.82 940.06 744.83 946.84 C 739.62 950.24 733.30 952.68 727.03 952.29 C 716.40 949.35 706.99 941.79 702.22 931.77 C 696.48 919.94 696.04 906.46 691.66 894.16 C 686.66 878.16 675.50 865.07 669.82 849.35 C 668.69 846.78 668.22 843.83 666.46 841.61 C 657.02 834.01 646.94 827.21 637.55 819.54 C 624.68 809.29 610.60 800.69 596.20 792.79 C 581.67 785.00 566.93 777.56 551.58 771.51 C 542.77 767.91 533.52 765.40 525.05 761.00 C 515.30 755.79 507.38 747.43 502.47 737.55 C 491.99 717.89 480.79 698.63 469.48 679.44 C 463.90 670.00 458.54 660.40 454.30 650.28 C 452.02 653.78 450.13 657.53 447.68 660.93 C 445.87 661.15 445.49 659.22 444.94 657.95 C 443.02 652.28 442.03 646.27 439.16 640.96 C 434.98 633.11 428.06 627.13 420.82 622.17 C 411.88 616.16 400.93 614.93 390.67 612.64 C 376.06 620.17 362.90 630.65 352.58 643.46 C 350.04 646.32 347.90 649.53 345.19 652.23 C 343.52 653.86 341.01 652.49 338.99 652.53 C 334.30 655.10 330.22 658.72 326.86 662.87 C 323.23 667.41 323.86 673.65 324.58 679.04 C 326.47 688.68 330.42 697.89 335.94 706.01 C 343.61 717.85 349.73 730.68 353.81 744.21 C 360.38 760.85 364.22 778.36 367.40 795.92 C 370.23 813.47 378.94 829.25 387.52 844.55 C 393.81 855.59 400.58 866.45 409.24 875.81 C 415.94 883.86 422.96 892.34 425.15 902.86 C 428.48 913.90 425.26 926.30 417.88 934.98 C 411.94 942.25 402.87 945.86 394.04 948.17 C 381.04 951.65 367.45 950.88 354.22 952.64 C 341.36 955.12 329.18 960.60 316.05 961.76 C 306.38 962.80 296.07 961.50 287.67 956.34 C 283.94 954.09 280.49 950.56 280.09 946.03 C 279.97 941.47 282.10 937.25 284.62 933.60 C 289.52 926.59 295.96 920.86 302.47 915.38 C 315.95 903.62 329.06 891.45 341.52 878.62 C 340.99 870.85 338.45 863.46 335.84 856.19 C 329.85 840.23 322.04 825.05 314.09 810.00 C 309.18 801.57 304.84 792.79 299.33 784.72 C 288.69 768.92 279.44 752.23 270.52 735.42 C 265.09 725.15 259.93 714.68 256.18 703.66 C 252.36 692.83 244.21 684.12 241.00 673.03 C 236.92 661.07 239.24 648.13 243.77 636.67 C 247.45 624.41 253.20 612.97 258.28 601.26 C 259.85 597.72 261.59 594.24 263.47 590.85 C 263.07 587.15 262.86 583.34 263.84 579.71 C 265.61 572.95 269.75 567.22 273.22 561.27 C 276.81 555.40 280.66 549.47 286.21 545.25 C 290.16 542.66 288.22 537.15 290.52 533.54 C 291.58 531.06 294.46 530.89 296.74 530.39 C 295.77 521.76 291.77 513.37 293.43 504.57 C 294.74 498.60 299.93 494.73 304.54 491.25 C 302.57 489.68 300.04 488.40 299.15 485.89 C 296.99 480.50 299.29 474.62 297.96 469.13 C 295.79 463.02 290.93 458.19 289.26 451.84 C 286.90 444.21 289.29 436.07 287.55 428.39 C 284.65 423.16 280.09 419.02 277.35 413.66 C 275.36 410.25 274.24 406.45 273.24 402.66 C 271.07 403.58 268.90 404.52 266.74 405.48 C 264.74 412.64 261.97 419.65 257.77 425.83 C 254.53 430.66 251.25 435.47 248.62 440.67 C 246.69 444.58 242.60 447.35 242.21 451.98 C 240.61 461.74 237.48 471.22 232.92 479.99 C 231.41 482.10 228.22 480.99 227.06 479.07 C 225.04 475.89 224.76 472.00 223.95 468.40 C 222.48 467.78 221.02 467.13 219.58 466.45 C 216.03 468.32 212.40 466.45 209.33 464.58 C 203.78 466.17 199.74 460.48 198.12 455.94 C 195.74 442.07 200.16 427.61 208.31 416.33 C 215.92 404.01 225.94 393.31 237.17 384.22 C 244.12 378.65 251.14 373.18 257.85 367.32 C 254.67 363.39 252.13 358.99 249.02 355.00 C 241.52 345.00 233.51 335.14 228.48 323.58 C 225.37 316.58 224.14 308.98 222.75 301.50 C 220.76 290.07 217.34 278.72 217.88 266.99 C 218.14 261.37 219.05 255.29 222.94 250.94 C 226.21 247.42 230.23 244.61 234.66 242.75 C 239.91 240.69 243.18 235.83 246.75 231.74 C 234.69 228.12 225.43 218.56 218.82 208.20 C 211.92 197.15 211.24 183.57 212.98 170.99 C 214.18 163.75 210.96 156.97 208.76 150.27 C 207.46 146.63 206.77 142.68 204.47 139.49 C 201.32 134.97 198.60 130.08 197.22 124.72 C 196.33 120.90 194.25 117.43 193.83 113.50 C 192.88 103.86 192.20 93.20 197.80 84.72 C 202.96 77.68 208.57 70.86 215.39 65.35 C 223.12 58.93 232.06 54.21 239.87 47.91 M 205.52 119.87 C 207.46 132.79 212.20 145.00 216.68 157.20 C 218.48 161.87 219.25 166.92 218.67 171.92 C 217.81 180.93 217.81 190.31 221.16 198.86 C 225.69 210.33 234.74 219.44 245.06 225.91 C 246.42 226.71 247.99 227.02 249.50 227.47 C 251.86 223.96 254.45 220.34 258.36 218.42 C 271.24 211.99 285.84 210.82 299.96 209.62 C 292.41 204.90 284.91 199.82 279.14 192.93 C 274.07 186.44 270.91 178.65 269.09 170.66 C 268.39 172.57 268.46 175.02 266.91 176.43 C 260.78 175.51 257.72 169.12 254.09 164.77 C 254.51 171.82 253.34 179.88 247.37 184.48 C 249.11 177.83 251.45 170.94 250.15 163.98 C 249.32 159.77 248.50 154.95 244.86 152.19 C 244.20 160.70 244.34 169.44 246.58 177.73 C 243.06 178.54 241.06 175.07 239.47 172.57 C 236.96 168.09 234.22 163.76 231.50 159.42 C 229.35 156.15 229.04 151.69 225.61 149.34 C 218.69 144.02 214.26 135.75 213.33 127.10 C 212.83 123.61 213.05 119.65 210.19 117.08 C 208.62 117.99 207.06 118.91 205.52 119.87 M 325.94 207.99 C 325.36 210.50 322.78 211.66 320.59 212.48 C 311.09 215.87 300.85 214.87 291.03 216.45 C 280.99 217.49 270.82 219.20 261.65 223.63 C 258.81 224.95 256.82 227.46 255.13 230.01 C 250.92 236.30 246.25 242.58 239.81 246.75 C 235.38 249.56 230.50 251.96 227.06 256.03 C 224.35 259.72 224.02 264.52 223.88 268.94 C 223.86 278.86 226.56 288.49 228.49 298.15 C 230.06 305.24 230.80 312.58 233.66 319.32 C 236.88 327.02 241.50 334.04 246.12 340.96 C 251.24 348.69 257.60 355.65 261.44 364.18 C 268.57 357.73 275.18 350.59 280.28 342.40 C 283.93 336.49 288.23 331.04 292.68 325.72 C 302.11 314.55 313.33 303.85 327.61 299.43 C 329.46 298.86 331.17 297.90 332.58 296.57 C 337.62 292.04 343.40 288.35 349.56 285.56 C 356.29 282.69 363.31 280.01 370.73 279.97 C 365.87 276.18 361.04 272.31 355.61 269.38 C 340.10 261.05 324.03 253.81 308.56 245.42 C 304.66 242.77 299.22 240.15 298.89 234.82 C 302.95 237.58 306.87 240.61 311.38 242.61 C 327.69 250.14 344.30 257.12 359.96 265.97 C 365.29 269.16 370.26 272.93 375.03 276.89 C 380.43 281.35 384.30 287.93 384.75 294.98 C 384.94 300.36 380.90 304.50 377.26 307.92 C 381.96 315.31 379.55 324.93 374.45 331.45 C 363.71 345.88 350.12 357.91 336.02 368.96 C 318.46 382.91 298.75 394.36 277.42 401.45 C 279.61 406.95 282.64 412.09 286.53 416.57 C 289.40 420.30 293.39 423.58 294.32 428.43 C 295.48 434.91 294.65 441.55 295.49 448.07 C 296.68 456.74 304.86 462.93 304.75 471.94 C 304.56 476.84 304.17 481.79 305.30 486.62 C 311.71 490.50 319.25 487.75 326.14 489.49 C 335.63 491.43 345.52 492.47 355.10 490.51 C 363.50 488.77 371.16 484.69 378.58 480.53 C 390.36 473.63 401.76 466.02 412.27 457.29 C 420.71 450.43 428.28 442.46 437.43 436.50 C 442.34 433.36 447.35 429.86 453.28 429.13 C 453.47 429.63 453.83 430.63 454.01 431.12 C 448.21 433.10 443.57 437.21 438.61 440.65 C 431.82 445.46 425.88 451.30 419.61 456.75 C 428.62 454.06 437.45 450.42 446.88 449.45 C 461.05 447.71 476.31 450.81 487.49 460.03 C 490.10 453.78 495.21 448.15 494.82 441.00 C 494.35 433.24 489.94 426.47 485.93 420.06 C 481.21 412.50 472.92 408.44 467.12 401.89 C 463.78 398.23 460.27 394.72 457.12 390.89 C 452.70 385.46 453.79 377.91 451.17 371.74 C 447.18 363.31 446.02 353.76 441.31 345.64 C 438.76 342.26 434.69 340.22 432.66 336.39 C 429.02 329.95 427.02 322.75 423.82 316.10 C 415.39 297.99 404.92 280.89 393.18 264.74 C 384.28 252.73 376.43 239.80 365.61 229.35 C 354.67 218.35 343.38 207.40 329.90 199.53 C 327.14 201.56 326.76 204.93 325.94 207.99 M 301.70 201.34 C 303.07 203.91 304.16 206.60 305.09 209.36 C 310.28 208.83 315.70 208.55 320.53 206.42 C 320.95 205.72 321.80 204.32 322.22 203.62 C 315.48 201.54 308.06 204.89 301.70 201.34 M 427.62 310.43 C 431.20 317.76 433.73 325.54 437.08 332.97 C 439.36 325.39 444.43 318.85 445.77 310.98 C 446.98 305.00 442.80 299.99 439.10 295.86 C 431.46 287.81 422.71 280.93 413.84 274.29 C 408.37 270.28 403.43 265.62 398.09 261.44 C 409.46 276.79 419.30 293.24 427.62 310.43 M 354.17 288.97 C 361.17 293.77 368.34 298.46 374.32 304.56 C 376.27 301.56 379.33 298.80 379.44 295.00 C 379.05 291.31 377.68 287.56 375.14 284.81 C 367.86 283.19 360.79 286.36 354.17 288.97 M 340.30 297.01 C 342.48 297.72 347.05 297.56 346.29 301.01 C 337.09 301.94 327.83 304.03 319.83 308.88 C 308.86 315.55 300.31 325.38 292.19 335.17 C 287.01 341.15 283.72 348.48 278.65 354.54 C 264.96 370.99 247.38 383.43 231.04 397.02 C 220.98 405.45 213.32 416.35 206.82 427.65 C 202.48 434.96 202.38 443.77 202.65 452.01 C 202.57 454.57 204.33 456.53 205.71 458.49 C 206.69 452.40 205.24 445.27 209.12 440.06 C 210.99 445.71 209.37 451.77 210.75 457.49 C 211.49 459.61 213.53 460.86 215.09 462.33 C 215.18 456.24 213.17 449.11 217.06 443.83 C 217.64 445.14 218.50 446.44 218.40 447.95 C 218.41 452.55 218.74 457.15 219.54 461.69 C 220.51 462.27 221.48 462.85 222.46 463.44 C 223.13 457.17 223.27 450.64 225.86 444.79 C 226.48 444.40 227.71 443.61 228.33 443.21 C 228.96 448.82 227.68 454.37 227.45 459.95 C 227.90 465.29 229.56 470.44 230.84 475.63 C 236.08 467.60 237.30 457.96 238.79 448.70 C 239.31 444.37 243.38 441.85 244.95 437.96 C 247.81 431.77 251.96 426.33 255.60 420.59 C 259.31 414.24 261.94 407.21 263.07 399.94 C 263.51 397.93 263.55 395.08 266.09 394.60 C 267.21 396.05 267.49 397.88 267.85 399.63 C 272.08 397.43 276.68 396.11 281.11 394.40 C 298.61 387.75 314.88 378.13 329.69 366.73 C 345.37 354.62 360.69 341.56 372.63 325.64 C 376.32 321.48 374.63 315.32 371.89 311.14 C 367.29 304.78 360.81 300.21 355.01 295.04 C 353.38 293.65 351.84 292.14 350.01 291.02 C 346.47 292.48 343.44 294.88 340.30 297.01 M 419.95 461.88 C 412.60 465.85 404.70 468.90 398.04 474.03 C 387.07 481.44 375.74 488.60 363.29 493.26 C 353.65 496.84 343.14 497.42 333.02 496.03 C 328.01 495.42 323.11 493.97 318.04 493.95 C 314.76 493.91 311.48 493.67 308.25 493.09 C 304.37 496.39 299.66 499.68 298.34 504.88 C 297.04 513.43 301.45 521.43 301.69 529.90 C 301.64 532.73 302.76 536.55 300.01 538.49 C 297.64 538.78 296.12 536.64 294.37 535.44 C 293.36 539.75 294.42 545.40 290.38 548.35 C 283.00 553.82 278.62 562.10 273.73 569.65 C 269.67 575.84 266.08 583.36 268.19 590.90 C 270.57 594.99 274.59 597.77 277.81 601.15 C 283.20 606.25 286.86 612.79 291.65 618.40 C 297.77 625.57 303.88 632.92 311.54 638.52 C 320.67 645.25 332.37 646.01 342.73 649.88 C 353.93 632.98 369.21 618.81 387.05 609.15 C 394.28 605.26 402.30 602.86 408.98 597.98 C 421.15 589.25 430.13 577.03 439.63 565.64 C 440.86 564.02 442.71 563.12 444.56 562.36 C 444.57 568.21 439.75 572.20 436.72 576.68 C 426.46 590.53 413.86 603.54 397.35 609.62 C 406.16 611.20 415.18 613.28 422.74 618.31 C 430.43 623.36 437.70 629.58 442.15 637.77 C 445.06 642.99 446.31 648.90 447.55 654.69 C 450.83 647.48 455.48 640.60 462.40 636.45 C 475.76 628.11 492.04 623.39 507.79 626.12 C 524.61 628.76 539.51 637.70 553.88 646.33 C 552.68 639.95 551.50 633.57 549.77 627.32 C 545.83 613.27 539.87 599.92 534.70 586.31 C 532.02 579.40 533.42 571.86 532.13 564.71 C 530.51 554.73 528.89 544.57 524.82 535.25 C 522.08 529.01 517.32 524.07 513.25 518.73 C 508.49 512.29 511.42 503.71 508.50 496.61 C 503.36 482.63 490.91 473.47 481.48 462.54 C 478.75 458.75 473.78 458.13 469.70 456.56 C 465.95 458.81 463.04 462.16 460.95 465.97 C 455.02 476.40 449.55 487.19 445.93 498.66 C 444.48 502.86 443.76 507.48 440.82 511.00 C 440.03 504.78 442.39 498.83 444.05 492.96 C 447.16 482.31 451.88 472.17 457.83 462.82 C 459.64 459.93 462.12 457.57 464.70 455.39 C 449.51 453.38 434.21 456.85 419.95 461.88 M 265.98 595.21 C 262.53 603.63 259.19 612.09 255.40 620.37 C 251.92 627.91 249.60 635.91 246.79 643.71 C 242.84 655.43 242.40 669.11 248.86 680.03 C 253.29 687.51 258.46 694.65 261.43 702.89 C 264.04 710.17 267.10 717.28 270.42 724.27 C 273.50 717.15 279.62 712.01 286.15 708.16 C 297.83 701.45 311.23 697.19 324.80 697.61 C 320.80 687.66 316.84 676.89 319.02 666.03 C 320.57 659.39 326.06 654.82 331.17 650.78 C 322.63 649.05 313.92 646.56 307.14 640.83 C 296.40 631.92 287.45 621.06 279.17 609.89 C 275.13 604.68 270.18 600.27 265.98 595.21 M 472.97 636.09 C 467.07 638.38 461.61 641.80 457.16 646.32 C 461.85 656.75 467.75 666.57 473.62 676.36 C 483.22 692.21 492.61 708.18 501.66 724.35 C 504.86 730.13 507.85 736.04 511.48 741.58 C 515.89 747.81 521.86 752.97 528.75 756.30 C 536.47 760.37 544.99 762.50 553.10 765.64 C 551.38 745.05 559.01 722.75 575.69 709.87 C 570.33 708.42 564.84 707.34 559.69 705.25 C 556.76 704.10 554.31 701.79 553.17 698.84 C 550.39 691.94 550.36 684.38 549.48 677.09 C 548.42 666.63 546.77 656.25 545.88 645.77 C 532.80 639.41 519.61 632.22 504.89 630.75 C 493.97 629.33 483.09 632.21 472.97 636.09 M 304.14 705.24 C 293.49 709.13 283.01 714.85 275.87 723.87 C 273.20 726.82 273.54 731.19 275.67 734.35 C 284.38 749.26 291.70 765.03 302.00 778.98 C 308.39 787.62 313.12 797.29 318.51 806.56 C 323.69 815.78 328.65 825.13 333.29 834.64 C 339.37 848.22 345.29 862.26 346.66 877.22 C 350.75 882.66 353.94 888.68 357.71 894.34 C 360.05 897.47 363.04 900.60 366.99 901.53 C 371.45 901.62 373.86 897.05 375.63 893.61 C 378.81 886.95 382.62 879.99 389.21 876.16 C 392.57 874.06 396.51 873.28 400.38 872.69 C 387.18 854.54 374.99 835.46 366.43 814.64 C 361.90 803.22 360.62 790.89 357.76 779.01 C 354.59 763.68 348.93 749.06 343.73 734.34 C 339.44 722.51 332.46 711.95 326.40 701.00 C 318.80 701.21 311.28 702.68 304.14 705.24 M 568.81 724.98 C 561.35 737.87 557.38 753.06 559.14 767.97 C 571.60 773.05 583.50 779.33 595.42 785.54 C 610.52 793.73 625.36 802.55 638.83 813.25 C 647.52 820.40 656.65 826.99 665.03 834.51 C 663.16 825.59 662.90 816.24 665.54 807.44 C 668.10 798.31 671.55 789.35 676.65 781.31 C 668.66 775.77 661.16 769.51 654.87 762.08 C 645.09 750.62 635.11 739.14 623.01 730.05 C 610.63 720.69 595.87 715.25 581.00 711.32 C 576.09 715.02 571.86 719.62 568.81 724.98 M 693.43 775.59 C 689.90 776.15 686.40 777.38 683.53 779.55 C 680.25 782.12 678.45 786.03 676.68 789.70 C 673.32 797.16 670.51 804.92 668.99 812.98 C 667.13 823.10 669.52 833.43 673.01 842.93 C 676.97 854.22 683.27 864.45 689.19 874.78 C 695.98 886.60 699.43 899.93 701.85 913.24 C 703.79 923.81 707.51 934.81 716.14 941.82 C 719.96 944.68 724.07 948.09 729.05 948.22 C 737.62 947.23 744.65 941.33 749.69 934.67 C 756.87 925.73 759.51 913.76 758.37 902.49 C 757.07 890.34 752.22 878.94 746.82 868.10 C 742.38 859.04 737.22 850.19 734.69 840.34 C 732.17 830.90 732.56 820.98 730.30 811.49 C 727.90 800.84 724.46 789.52 715.90 782.15 C 709.89 776.70 701.42 774.29 693.43 775.59 M 385.51 887.44 C 381.46 893.43 380.05 901.43 373.73 905.68 C 369.87 908.60 364.32 908.39 360.56 905.42 C 352.38 900.30 349.08 890.86 344.30 882.98 C 333.14 894.61 321.29 905.55 309.20 916.20 C 300.19 923.81 290.51 931.31 284.87 941.92 C 283.45 944.27 282.80 947.84 285.42 949.64 C 291.67 954.83 300.07 956.55 308.01 956.80 C 325.97 957.11 342.10 947.27 359.92 946.50 C 377.70 945.46 397.14 945.18 412.04 934.02 C 419.93 928.47 421.70 917.98 421.09 908.98 C 419.72 898.62 413.06 890.11 407.21 881.83 C 405.74 880.14 404.58 877.49 402.02 877.47 C 395.15 877.20 389.04 881.84 385.51 887.44 Z" />
        <path fill="#020202" opacity="1.00"
            d=" M 309.52 502.35 L 309.79 501.59 L 311.03 501.29 C 313.29 505.27 314.16 510.13 317.66 513.33 C 323.43 518.74 331.41 520.84 339.05 521.88 C 354.03 523.61 369.09 524.62 384.02 526.75 C 385.96 527.25 389.33 527.35 389.45 530.02 C 387.76 531.67 385.08 530.76 382.97 530.90 C 368.61 529.68 354.16 529.45 339.87 527.52 C 330.68 526.23 320.93 523.58 314.47 516.48 C 311.17 512.65 309.04 507.42 309.52 502.35 Z" />
        <path fill="#020202" opacity="1.00"
            d=" M 506.76 534.81 C 509.44 533.28 512.47 532.51 515.56 532.78 C 513.35 536.31 509.36 537.85 505.98 539.96 C 492.07 548.28 479.03 557.94 465.56 566.92 C 478.61 561.41 492.31 557.61 506.14 554.69 C 511.25 553.61 516.60 551.91 521.77 553.71 C 517.98 556.36 513.31 556.86 508.99 558.10 C 497.26 561.12 485.96 565.55 474.63 569.79 C 465.44 573.38 456.12 576.76 447.47 581.55 C 445.11 582.69 442.69 584.44 439.93 583.87 C 440.39 581.38 442.44 579.77 444.15 578.11 C 462.69 560.60 484.32 546.74 506.76 534.81 Z" />
        <path fill="#020202" opacity="1.00"
            d=" M 301.24 547.40 C 309.67 551.60 317.37 557.20 326.11 560.85 C 341.10 567.56 357.98 566.93 374.01 565.91 C 379.07 565.63 384.04 564.65 389.06 563.97 C 389.80 564.69 389.96 565.53 389.55 566.48 C 387.54 567.88 385.04 568.21 382.71 568.69 C 368.20 571.06 353.20 572.31 338.70 569.21 C 328.74 567.10 319.67 562.19 311.19 556.70 C 307.44 554.14 303.21 551.72 301.24 547.40 Z" />
        <path fill="#020202" opacity="1.00"
            d=" M 293.20 557.40 C 298.16 558.66 301.93 562.28 306.34 564.66 C 311.04 567.51 316.12 569.66 320.80 572.54 C 320.84 572.95 320.94 573.79 320.98 574.21 C 317.29 574.77 313.93 572.74 310.70 571.29 C 304.07 567.88 297.40 563.74 293.20 557.40 Z" />
        <path fill="#020202" opacity="1.00"
            d=" M 695.47 786.40 C 696.42 784.49 698.44 783.61 700.22 782.65 C 695.34 792.14 695.33 803.64 699.55 813.37 C 705.65 826.81 713.15 839.87 716.40 854.40 C 719.43 868.24 716.19 882.25 714.13 895.96 C 712.49 906.45 714.08 917.00 714.23 927.52 C 713.06 926.71 711.61 926.05 711.43 924.49 C 708.04 911.66 708.66 898.11 710.77 885.12 C 712.57 873.86 713.33 862.11 710.05 851.04 C 706.35 838.51 700.10 826.96 695.00 814.99 C 691.34 805.98 690.27 795.04 695.47 786.40 Z" />
    </g>
    <g id="#f0b58bff">
        <path fill="#f0b58b" opacity="1.00"
            d=" M 205.52 119.87 C 207.06 118.91 208.62 117.99 210.19 117.08 C 213.05 119.65 212.83 123.61 213.33 127.10 C 214.26 135.75 218.69 144.02 225.61 149.34 C 229.04 151.69 229.35 156.15 231.50 159.42 C 234.22 163.76 236.96 168.09 239.47 172.57 C 241.06 175.07 243.06 178.54 246.58 177.73 C 244.34 169.44 244.20 160.70 244.86 152.19 C 248.50 154.95 249.32 159.77 250.15 163.98 C 251.45 170.94 249.11 177.83 247.37 184.48 C 253.34 179.88 254.51 171.82 254.09 164.77 C 257.72 169.12 260.78 175.51 266.91 176.43 C 268.46 175.02 268.39 172.57 269.09 170.66 C 270.91 178.65 274.07 186.44 279.14 192.93 C 284.91 199.82 292.41 204.90 299.96 209.62 C 285.84 210.82 271.24 211.99 258.36 218.42 C 254.45 220.34 251.86 223.96 249.50 227.47 C 247.99 227.02 246.42 226.71 245.06 225.91 C 234.74 219.44 225.69 210.33 221.16 198.86 C 217.81 190.31 217.81 180.93 218.67 171.92 C 219.25 166.92 218.48 161.87 216.68 157.20 C 212.20 145.00 207.46 132.79 205.52 119.87 Z" />
        <path fill="#f0b58b" opacity="1.00"
            d=" M 301.70 201.34 C 308.06 204.89 315.48 201.54 322.22 203.62 C 321.80 204.32 320.95 205.72 320.53 206.42 C 315.70 208.55 310.28 208.83 305.09 209.36 C 304.16 206.60 303.07 203.91 301.70 201.34 Z" />
        <path fill="#f0b58b" opacity="1.00"
            d=" M 340.30 297.01 C 343.44 294.88 346.47 292.48 350.01 291.02 C 351.84 292.14 353.38 293.65 355.01 295.04 C 360.81 300.21 367.29 304.78 371.89 311.14 C 374.63 315.32 376.32 321.48 372.63 325.64 C 360.69 341.56 345.37 354.62 329.69 366.73 C 314.88 378.13 298.61 387.75 281.11 394.40 C 276.68 396.11 272.08 397.43 267.85 399.63 C 267.49 397.88 267.21 396.05 266.09 394.60 C 263.55 395.08 263.51 397.93 263.07 399.94 C 261.94 407.21 259.31 414.24 255.60 420.59 C 251.96 426.33 247.81 431.77 244.95 437.96 C 243.38 441.85 239.31 444.37 238.79 448.70 C 237.30 457.96 236.08 467.60 230.84 475.63 C 229.56 470.44 227.90 465.29 227.45 459.95 C 227.68 454.37 228.96 448.82 228.33 443.21 C 227.71 443.61 226.48 444.40 225.86 444.79 C 223.27 450.64 223.13 457.17 222.46 463.44 C 221.48 462.85 220.51 462.27 219.54 461.69 C 218.74 457.15 218.41 452.55 218.40 447.95 C 218.50 446.44 217.64 445.14 217.06 443.83 C 213.17 449.11 215.18 456.24 215.09 462.33 C 213.53 460.86 211.49 459.61 210.75 457.49 C 209.37 451.77 210.99 445.71 209.12 440.06 C 205.24 445.27 206.69 452.40 205.71 458.49 C 204.33 456.53 202.57 454.57 202.65 452.01 C 202.38 443.77 202.48 434.96 206.82 427.65 C 213.32 416.35 220.98 405.45 231.04 397.02 C 247.38 383.43 264.96 370.99 278.65 354.54 C 283.72 348.48 287.01 341.15 292.19 335.17 C 300.31 325.38 308.86 315.55 319.83 308.88 C 327.83 304.03 337.09 301.94 346.29 301.01 C 347.05 297.56 342.48 297.72 340.30 297.01 Z" />
        <path fill="#f0b58b" opacity="1.00"
            d=" M 265.98 595.21 C 270.18 600.27 275.13 604.68 279.17 609.89 C 287.45 621.06 296.40 631.92 307.14 640.83 C 313.92 646.56 322.63 649.05 331.17 650.78 C 326.06 654.82 320.57 659.39 319.02 666.03 C 316.84 676.89 320.80 687.66 324.80 697.61 C 311.23 697.19 297.83 701.45 286.15 708.16 C 279.62 712.01 273.50 717.15 270.42 724.27 C 267.10 717.28 264.04 710.17 261.43 702.89 C 258.46 694.65 253.29 687.51 248.86 680.03 C 242.40 669.11 242.84 655.43 246.79 643.71 C 249.60 635.91 251.92 627.91 255.40 620.37 C 259.19 612.09 262.53 603.63 265.98 595.21 Z" />
        <path fill="#f0b58b" opacity="1.00"
            d=" M 472.97 636.09 C 483.09 632.21 493.97 629.33 504.89 630.75 C 519.61 632.22 532.80 639.41 545.88 645.77 C 546.77 656.25 548.42 666.63 549.48 677.09 C 550.36 684.38 550.39 691.94 553.17 698.84 C 554.31 701.79 556.76 704.10 559.69 705.25 C 564.84 707.34 570.33 708.42 575.69 709.87 C 559.01 722.75 551.38 745.05 553.10 765.64 C 544.99 762.50 536.47 760.37 528.75 756.30 C 521.86 752.97 515.89 747.81 511.48 741.58 C 507.85 736.04 504.86 730.13 501.66 724.35 C 492.61 708.18 483.22 692.21 473.62 676.36 C 467.75 666.57 461.85 656.75 457.16 646.32 C 461.61 641.80 467.07 638.38 472.97 636.09 Z" />
    </g>
    <g id="#f11b27ff">
        <path fill="var(--shirt-color, grey)" opacity="1.00"
            d=" M 325.94 207.99 C 326.76 204.93 327.14 201.56 329.90 199.53 C 343.38 207.40 354.67 218.35 365.61 229.35 C 376.43 239.80 384.28 252.73 393.18 264.74 C 404.92 280.89 415.39 297.99 423.82 316.10 C 427.02 322.75 429.02 329.95 432.66 336.39 C 434.69 340.22 438.76 342.26 441.31 345.64 C 446.02 353.76 447.18 363.31 451.17 371.74 C 453.79 377.91 452.70 385.46 457.12 390.89 C 460.27 394.72 463.78 398.23 467.12 401.89 C 472.92 408.44 481.21 412.50 485.93 420.06 C 489.94 426.47 494.35 433.24 494.82 441.00 C 495.21 448.15 490.10 453.78 487.49 460.03 C 476.31 450.81 461.05 447.71 446.88 449.45 C 437.45 450.42 428.62 454.06 419.61 456.75 C 425.88 451.30 431.82 445.46 438.61 440.65 C 443.57 437.21 448.21 433.10 454.01 431.12 C 453.83 430.63 453.47 429.63 453.28 429.13 C 447.35 429.86 442.34 433.36 437.43 436.50 C 428.28 442.46 420.71 450.43 412.27 457.29 C 401.76 466.02 390.36 473.63 378.58 480.53 C 371.16 484.69 363.50 488.77 355.10 490.51 C 345.52 492.47 335.63 491.43 326.14 489.49 C 319.25 487.75 311.71 490.50 305.30 486.62 C 304.17 481.79 304.56 476.84 304.75 471.94 C 304.86 462.93 296.68 456.74 295.49 448.07 C 294.65 441.55 295.48 434.91 294.32 428.43 C 293.39 423.58 289.40 420.30 286.53 416.57 C 282.64 412.09 279.61 406.95 277.42 401.45 C 298.75 394.36 318.46 382.91 336.02 368.96 C 350.12 357.91 363.71 345.88 374.45 331.45 C 379.55 324.93 381.96 315.31 377.26 307.92 C 380.90 304.50 384.94 300.36 384.75 294.98 C 384.30 287.93 380.43 281.35 375.03 276.89 C 370.26 272.93 365.29 269.16 359.96 265.97 C 344.30 257.12 327.69 250.14 311.38 242.61 C 306.87 240.61 302.95 237.58 298.89 234.82 C 299.22 240.15 304.66 242.77 308.56 245.42 C 324.03 253.81 340.10 261.05 355.61 269.38 C 361.04 272.31 365.87 276.18 370.73 279.97 C 363.31 280.01 356.29 282.69 349.56 285.56 C 343.40 288.35 337.62 292.04 332.58 296.57 C 331.17 297.90 329.46 298.86 327.61 299.43 C 313.33 303.85 302.11 314.55 292.68 325.72 C 288.23 331.04 283.93 336.49 280.28 342.40 C 275.18 350.59 268.57 357.73 261.44 364.18 C 257.60 355.65 251.24 348.69 246.12 340.96 C 241.50 334.04 236.88 327.02 233.66 319.32 C 230.80 312.58 230.06 305.24 228.49 298.15 C 226.56 288.49 223.86 278.86 223.88 268.94 C 224.02 264.52 224.35 259.72 227.06 256.03 C 230.50 251.96 235.38 249.56 239.81 246.75 C 246.25 242.58 250.92 236.30 255.13 230.01 C 256.82 227.46 258.81 224.95 261.65 223.63 C 270.82 219.20 280.99 217.49 291.03 216.45 C 300.85 214.87 311.09 215.87 320.59 212.48 C 322.78 211.66 325.36 210.50 325.94 207.99 Z" />
        <path fill="var(--shirt-color, grey)" opacity="1.00"
            d=" M 427.62 310.43 C 419.30 293.24 409.46 276.79 398.09 261.44 C 403.43 265.62 408.37 270.28 413.84 274.29 C 422.71 280.93 431.46 287.81 439.10 295.86 C 442.80 299.99 446.98 305.00 445.77 310.98 C 444.43 318.85 439.36 325.39 437.08 332.97 C 433.73 325.54 431.20 317.76 427.62 310.43 Z" />
        <path fill="var(--shirt-color, grey)" opacity="1.00"
            d=" M 354.17 288.97 C 360.79 286.36 367.86 283.19 375.14 284.81 C 377.68 287.56 379.05 291.31 379.44 295.00 C 379.33 298.80 376.27 301.56 374.32 304.56 C 368.34 298.46 361.17 293.77 354.17 288.97 Z" />
    </g>
    <g id="#2b3dcdff">
        <path fill="var(--pants-color, grey)" opacity="1.00"
            d=" M 419.95 461.88 C 434.21 456.85 449.51 453.38 464.70 455.39 C 462.12 457.57 459.64 459.93 457.83 462.82 C 451.88 472.17 447.16 482.31 444.05 492.96 C 442.39 498.83 440.03 504.78 440.82 511.00 C 443.76 507.48 444.48 502.86 445.93 498.66 C 449.55 487.19 455.02 476.40 460.95 465.97 C 463.04 462.16 465.95 458.81 469.70 456.56 C 473.78 458.13 478.75 458.75 481.48 462.54 C 490.91 473.47 503.36 482.63 508.50 496.61 C 511.42 503.71 508.49 512.29 513.25 518.73 C 517.32 524.07 522.08 529.01 524.82 535.25 C 528.89 544.57 530.51 554.73 532.13 564.71 C 533.42 571.86 532.02 579.40 534.70 586.31 C 539.87 599.92 545.83 613.27 549.77 627.32 C 551.50 633.57 552.68 639.95 553.88 646.33 C 539.51 637.70 524.61 628.76 507.79 626.12 C 492.04 623.39 475.76 628.11 462.40 636.45 C 455.48 640.60 450.83 647.48 447.55 654.69 C 446.31 648.90 445.06 642.99 442.15 637.77 C 437.70 629.58 430.43 623.36 422.74 618.31 C 415.18 613.28 406.16 611.20 397.35 609.62 C 413.86 603.54 426.46 590.53 436.72 576.68 C 439.75 572.20 444.57 568.21 444.56 562.36 C 442.71 563.12 440.86 564.02 439.63 565.64 C 430.13 577.03 421.15 589.25 408.98 597.98 C 402.30 602.86 394.28 605.26 387.05 609.15 C 369.21 618.81 353.93 632.98 342.73 649.88 C 332.37 646.01 320.67 645.25 311.54 638.52 C 303.88 632.92 297.77 625.57 291.65 618.40 C 286.86 612.79 283.20 606.25 277.81 601.15 C 274.59 597.77 270.57 594.99 268.19 590.90 C 266.08 583.36 269.67 575.84 273.73 569.65 C 278.62 562.10 283.00 553.82 290.38 548.35 C 294.42 545.40 293.36 539.75 294.37 535.44 C 296.12 536.64 297.64 538.78 300.01 538.49 C 302.76 536.55 301.64 532.73 301.69 529.90 C 301.45 521.43 297.04 513.43 298.34 504.88 C 299.66 499.68 304.37 496.39 308.25 493.09 C 311.48 493.67 314.76 493.91 318.04 493.95 C 323.11 493.97 328.01 495.42 333.02 496.03 C 343.14 497.42 353.65 496.84 363.29 493.26 C 375.74 488.60 387.07 481.44 398.04 474.03 C 404.70 468.90 412.60 465.85 419.95 461.88 M 309.52 502.35 C 309.04 507.42 311.17 512.65 314.47 516.48 C 320.93 523.58 330.68 526.23 339.87 527.52 C 354.16 529.45 368.61 529.68 382.97 530.90 C 385.08 530.76 387.76 531.67 389.45 530.02 C 389.33 527.35 385.96 527.25 384.02 526.75 C 369.09 524.62 354.03 523.61 339.05 521.88 C 331.41 520.84 323.43 518.74 317.66 513.33 C 314.16 510.13 313.29 505.27 311.03 501.29 L 309.79 501.59 L 309.52 502.35 M 506.76 534.81 C 484.32 546.74 462.69 560.60 444.15 578.11 C 442.44 579.77 440.39 581.38 439.93 583.87 C 442.69 584.44 445.11 582.69 447.47 581.55 C 456.12 576.76 465.44 573.38 474.63 569.79 C 485.96 565.55 497.26 561.12 508.99 558.10 C 513.31 556.86 517.98 556.36 521.77 553.71 C 516.60 551.91 511.25 553.61 506.14 554.69 C 492.31 557.61 478.61 561.41 465.56 566.92 C 479.03 557.94 492.07 548.28 505.98 539.96 C 509.36 537.85 513.35 536.31 515.56 532.78 C 512.47 532.51 509.44 533.28 506.76 534.81 M 301.24 547.40 C 303.21 551.72 307.44 554.14 311.19 556.70 C 319.67 562.19 328.74 567.10 338.70 569.21 C 353.20 572.31 368.20 571.06 382.71 568.69 C 385.04 568.21 387.54 567.88 389.55 566.48 C 389.96 565.53 389.80 564.69 389.06 563.97 C 384.04 564.65 379.07 565.63 374.01 565.91 C 357.98 566.93 341.10 567.56 326.11 560.85 C 317.37 557.20 309.67 551.60 301.24 547.40 M 293.20 557.40 C 297.40 563.74 304.07 567.88 310.70 571.29 C 313.93 572.74 317.29 574.77 320.98 574.21 C 320.94 573.79 320.84 572.95 320.80 572.54 C 316.12 569.66 311.04 567.51 306.34 564.66 C 301.93 562.28 298.16 558.66 293.20 557.40 Z" />
        <path fill="var(--socks-color, grey)" opacity="1.00"
            d=" M 304.14 705.24 C 311.28 702.68 318.80 701.21 326.40 701.00 C 332.46 711.95 339.44 722.51 343.73 734.34 C 348.93 749.06 354.59 763.68 357.76 779.01 C 360.62 790.89 361.90 803.22 366.43 814.64 C 374.99 835.46 387.18 854.54 400.38 872.69 C 396.51 873.28 392.57 874.06 389.21 876.16 C 382.62 879.99 378.81 886.95 375.63 893.61 C 373.86 897.05 371.45 901.62 366.99 901.53 C 363.04 900.60 360.05 897.47 357.71 894.34 C 353.94 888.68 350.75 882.66 346.66 877.22 C 345.29 862.26 339.37 848.22 333.29 834.64 C 328.65 825.13 323.69 815.78 318.51 806.56 C 313.12 797.29 308.39 787.62 302.00 778.98 C 291.70 765.03 284.38 749.26 275.67 734.35 C 273.54 731.19 273.20 726.82 275.87 723.87 C 283.01 714.85 293.49 709.13 304.14 705.24 Z" />
        <path fill="var(--socks-color, grey)" opacity="1.00"
            d=" M 568.81 724.98 C 571.86 719.62 576.09 715.02 581.00 711.32 C 595.87 715.25 610.63 720.69 623.01 730.05 C 635.11 739.14 645.09 750.62 654.87 762.08 C 661.16 769.51 668.66 775.77 676.65 781.31 C 671.55 789.35 668.10 798.31 665.54 807.44 C 662.90 816.24 663.16 825.59 665.03 834.51 C 656.65 826.99 647.52 820.40 638.83 813.25 C 625.36 802.55 610.52 793.73 595.42 785.54 C 583.50 779.33 571.60 773.05 559.14 767.97 C 557.38 753.06 561.35 737.87 568.81 724.98 Z" />
    </g>
    <g id="#4d4d4dff">
        <path fill="#4d4d4d" opacity="1.00"
            d=" M 693.43 775.59 C 701.42 774.29 709.89 776.70 715.90 782.15 C 724.46 789.52 727.90 800.84 730.30 811.49 C 732.56 820.98 732.17 830.90 734.69 840.34 C 737.22 850.19 742.38 859.04 746.82 868.10 C 752.22 878.94 757.07 890.34 758.37 902.49 C 759.51 913.76 756.87 925.73 749.69 934.67 C 744.65 941.33 737.62 947.23 729.05 948.22 C 724.07 948.09 719.96 944.68 716.14 941.82 C 707.51 934.81 703.79 923.81 701.85 913.24 C 699.43 899.93 695.98 886.60 689.19 874.78 C 683.27 864.45 676.97 854.22 673.01 842.93 C 669.52 833.43 667.13 823.10 668.99 812.98 C 670.51 804.92 673.32 797.16 676.68 789.70 C 678.45 786.03 680.25 782.12 683.53 779.55 C 686.40 777.38 689.90 776.15 693.43 775.59 M 695.47 786.40 C 690.27 795.04 691.34 805.98 695.00 814.99 C 700.10 826.96 706.35 838.51 710.05 851.04 C 713.33 862.11 712.57 873.86 710.77 885.12 C 708.66 898.11 708.04 911.66 711.43 924.49 C 711.61 926.05 713.06 926.71 714.23 927.52 C 714.08 917.00 712.49 906.45 714.13 895.96 C 716.19 882.25 719.43 868.24 716.40 854.40 C 713.15 839.87 705.65 826.81 699.55 813.37 C 695.33 803.64 695.34 792.14 700.22 782.65 C 698.44 783.61 696.42 784.49 695.47 786.40 Z" />
        <path fill="#4d4d4d" opacity="1.00"
            d=" M 385.51 887.44 C 389.04 881.84 395.15 877.20 402.02 877.47 C 404.58 877.49 405.74 880.14 407.21 881.83 C 413.06 890.11 419.72 898.62 421.09 908.98 C 421.70 917.98 419.93 928.47 412.04 934.02 C 397.14 945.18 377.70 945.46 359.92 946.50 C 342.10 947.27 325.97 957.11 308.01 956.80 C 300.07 956.55 291.67 954.83 285.42 949.64 C 282.80 947.84 283.45 944.27 284.87 941.92 C 290.51 931.31 300.19 923.81 309.20 916.20 C 321.29 905.55 333.14 894.61 344.30 882.98 C 349.08 890.86 352.38 900.30 360.56 905.42 C 364.32 908.39 369.87 908.60 373.73 905.68 C 380.05 901.43 381.46 893.43 385.51 887.44 Z" />
    </g>
</svg>