<?xml version="1.0" encoding="UTF-8" ?>
<!DOCTYPE svg PUBLIC "-//W3C//DTD SVG 1.1//EN" "http://www.w3.org/Graphics/SVG/1.1/DTD/svg11.dtd">
<svg width="1000pt" height="1000pt" viewBox="0 0 1000 1000" version="1.1" xmlns="http://www.w3.org/2000/svg">
    <g id="#020202ff">
        <path fill="#020202" opacity="1.00"
            d=" M 433.09 41.09 C 440.88 38.31 448.70 34.78 457.17 35.11 C 458.28 36.89 456.39 38.83 456.05 40.61 C 461.35 39.52 466.26 37.22 471.32 35.39 C 469.28 39.84 466.05 43.57 462.47 46.86 C 467.63 48.02 472.94 48.94 477.70 51.36 C 491.68 58.42 503.22 70.55 508.71 85.31 C 514.73 101.23 516.94 118.26 520.12 134.88 C 521.01 139.12 524.28 142.84 523.55 147.35 C 518.65 143.20 514.60 138.17 510.91 132.94 C 511.43 138.96 512.57 144.92 514.37 150.70 C 523.93 149.66 534.22 148.47 543.19 152.84 C 552.81 156.99 559.98 164.91 568.96 170.09 C 578.33 175.82 585.11 184.77 591.40 193.58 C 596.00 199.92 601.32 205.68 606.60 211.46 C 612.60 218.00 617.52 225.47 621.69 233.29 C 627.63 244.39 633.96 255.29 639.25 266.72 C 645.80 281.02 653.99 294.69 658.17 309.97 C 660.62 317.73 661.79 325.84 664.63 333.49 C 666.56 338.85 667.20 344.59 669.11 349.94 C 674.77 357.85 679.28 366.49 684.05 374.96 C 694.07 392.96 703.75 411.15 714.13 428.96 C 724.64 446.84 736.42 464.34 742.73 484.28 C 744.18 488.77 745.51 493.56 748.97 496.99 C 755.62 503.85 761.96 511.22 766.12 519.90 C 768.97 525.57 770.72 531.71 773.50 537.40 C 776.32 543.29 781.34 547.65 784.95 553.00 C 788.27 557.85 791.86 562.63 794.18 568.07 C 795.18 570.01 794.04 572.52 791.92 573.05 C 789.16 573.98 786.50 572.37 784.05 571.32 C 786.33 574.92 788.62 578.71 789.29 583.00 C 789.76 585.45 787.33 587.43 785.04 587.37 C 781.67 587.43 778.79 585.44 776.05 583.73 C 776.59 586.17 778.12 589.10 776.29 591.38 C 774.69 593.31 771.78 593.17 769.69 592.22 C 766.01 590.58 762.90 587.96 759.72 585.54 C 761.44 589.89 763.33 594.32 763.52 599.07 C 763.79 601.51 761.45 603.73 759.02 603.27 C 756.53 602.69 754.77 600.70 752.98 599.04 C 748.25 594.22 743.18 589.72 739.06 584.35 C 736.35 584.37 733.06 584.28 731.62 581.56 C 727.98 575.24 730.90 567.73 729.95 560.91 C 728.81 550.28 722.02 541.39 719.88 531.01 C 717.59 523.81 719.59 516.06 717.15 508.91 C 714.39 500.01 707.75 493.15 702.21 485.90 C 697.39 479.66 692.11 473.80 687.22 467.62 C 685.63 487.76 683.76 507.91 680.43 527.85 C 679.83 531.90 677.83 536.19 673.71 537.66 C 664.47 541.23 654.32 541.04 644.56 541.43 C 643.36 550.38 639.17 558.44 635.55 566.58 C 632.88 572.21 631.61 578.36 629.07 584.05 C 621.50 601.77 612.53 619.08 608.18 637.99 C 604.55 651.78 603.69 666.68 596.16 679.14 C 592.86 684.81 586.71 688.84 580.07 688.91 C 570.26 689.53 561.35 684.83 552.52 681.29 C 549.30 685.35 545.33 689.28 539.76 689.30 C 549.62 699.06 557.20 710.84 564.38 722.63 C 581.55 751.77 594.04 783.50 603.03 816.04 C 609.47 840.16 614.14 864.99 613.95 890.03 C 614.11 895.57 614.54 901.48 617.87 906.15 C 621.47 911.38 624.84 916.78 627.50 922.57 C 632.37 933.20 638.25 944.02 638.21 956.04 C 638.20 963.88 632.26 970.19 625.76 973.76 C 621.34 976.45 615.98 976.84 610.99 975.87 C 598.11 973.57 584.84 973.14 571.90 975.25 C 556.15 977.63 540.68 981.46 525.08 984.60 C 516.16 986.36 507.21 988.51 498.07 988.47 C 494.15 988.45 489.72 986.78 488.28 982.83 C 485.80 976.33 489.34 969.40 493.42 964.41 C 501.34 955.36 512.78 950.73 523.14 945.17 C 533.19 940.12 541.84 932.63 549.11 924.12 C 554.00 918.00 559.02 911.50 560.38 903.58 C 561.25 897.67 562.39 891.14 559.43 885.63 C 554.89 875.59 550.86 865.33 547.05 854.99 C 544.24 846.93 539.58 839.71 535.87 832.07 C 515.29 791.63 494.51 751.27 474.84 710.37 C 473.59 715.18 472.09 719.96 471.52 724.91 C 470.14 738.60 471.77 752.47 469.54 766.09 C 466.78 783.22 461.00 799.78 453.50 815.39 C 449.66 823.56 444.56 831.05 439.67 838.62 C 436.15 844.12 432.01 849.29 429.43 855.34 C 425.61 863.88 423.19 872.97 421.53 882.15 C 420.69 888.66 423.63 894.79 425.41 900.89 C 428.90 911.95 431.09 924.09 427.62 935.45 C 425.82 941.09 423.62 947.01 419.06 951.05 C 414.65 954.93 408.94 957.29 403.08 957.74 C 394.43 958.50 385.71 958.37 377.11 959.64 C 361.82 962.46 347.37 968.69 331.98 971.09 C 321.04 972.77 309.96 974.95 298.86 973.55 C 289.56 972.34 280.16 971.35 271.14 968.66 C 265.31 966.98 259.82 963.84 255.72 959.35 C 250.79 953.87 250.75 944.44 256.27 939.35 C 261.50 934.44 268.27 931.69 274.64 928.61 C 287.29 923.02 299.57 916.63 312.35 911.33 C 323.58 906.38 334.77 901.31 345.65 895.60 C 352.79 891.88 359.80 887.05 364.01 880.02 C 370.99 866.47 377.85 852.74 382.11 838.06 C 385.96 825.92 387.75 813.28 389.74 800.74 C 392.69 778.85 397.76 757.19 398.60 735.05 C 399.26 720.28 395.10 705.77 395.93 691.01 C 396.81 678.54 399.29 666.15 403.49 654.37 C 405.46 648.57 407.04 642.64 409.13 636.89 C 406.91 630.80 405.74 623.86 408.81 617.84 C 416.19 602.38 425.80 588.00 431.93 571.93 C 436.03 562.04 438.55 551.61 441.26 541.29 C 442.83 536.04 444.04 530.57 446.81 525.79 C 448.24 523.19 450.94 521.79 453.36 520.28 C 454.99 513.30 457.95 506.65 462.16 500.85 C 458.91 495.63 455.77 489.46 457.27 483.13 C 458.31 478.46 462.14 475.28 464.44 471.29 C 463.60 465.44 461.89 459.45 463.42 453.56 C 464.40 449.02 467.31 445.30 470.28 441.88 C 468.44 435.37 466.76 428.75 466.56 421.96 C 466.46 415.98 468.15 410.19 469.60 404.45 C 470.32 402.29 469.49 400.08 468.87 398.01 C 464.78 385.20 460.58 372.37 458.26 359.09 C 455.30 342.91 455.49 326.40 454.93 310.02 C 454.91 285.04 455.82 260.07 457.22 235.13 C 454.46 237.50 450.55 239.05 447.10 237.10 C 435.74 230.91 426.49 221.68 416.74 213.33 C 412.11 209.29 406.45 205.92 403.91 200.05 C 400.28 191.77 397.28 183.16 392.64 175.35 C 388.94 168.99 383.91 163.26 381.95 156.02 C 374.48 158.74 365.70 161.57 358.19 157.49 C 360.30 154.03 362.10 150.37 362.92 146.37 C 359.76 149.21 356.95 152.43 353.52 154.97 C 353.25 145.27 360.32 137.64 363.16 128.78 C 358.50 126.75 356.04 121.88 355.78 116.99 C 355.05 106.73 359.47 97.05 364.15 88.20 C 369.01 79.76 375.10 71.40 383.98 66.87 C 387.14 65.16 390.70 64.38 393.96 62.88 C 396.47 61.15 398.18 58.43 400.84 56.85 C 406.89 53.07 413.98 51.51 420.32 48.33 C 424.75 46.21 428.50 42.90 433.09 41.09 M 408.25 136.33 C 407.91 144.70 400.43 150.15 393.59 153.51 C 391.54 154.58 390.37 152.19 389.27 150.95 C 388.13 151.81 386.97 152.67 385.83 153.53 C 387.86 158.97 390.92 163.91 394.23 168.66 C 400.09 177.15 403.96 186.77 407.70 196.32 C 409.15 200.17 411.96 203.29 415.23 205.71 C 426.72 214.53 436.51 225.60 449.18 232.84 C 453.12 235.12 455.30 229.88 457.48 227.54 C 458.38 214.02 457.89 200.39 459.93 186.96 C 460.71 181.85 462.08 176.55 465.64 172.61 C 470.32 167.21 475.94 162.49 482.50 159.56 C 490.93 155.41 500.28 153.90 509.29 151.51 C 506.49 148.55 502.70 147.05 499.19 145.16 C 497.92 148.26 496.80 151.47 494.93 154.27 C 491.14 156.00 493.32 150.44 493.00 148.50 C 489.26 152.72 484.94 156.57 479.79 158.97 C 479.61 158.51 479.26 157.57 479.08 157.11 C 481.47 152.25 484.10 147.44 485.27 142.10 C 481.64 149.17 477.48 156.20 471.56 161.60 C 466.45 165.15 460.95 168.41 454.92 170.09 C 451.59 171.14 448.22 169.75 445.50 167.87 C 444.20 168.62 442.89 169.35 441.58 170.08 C 441.08 166.51 440.51 162.96 439.66 159.46 C 437.89 160.34 436.10 161.14 434.32 161.96 C 433.24 158.41 432.76 154.59 430.66 151.45 C 429.31 149.47 427.82 147.60 426.34 145.73 C 427.34 153.03 429.32 160.78 426.57 167.94 C 423.18 156.78 420.23 145.33 414.41 135.11 C 412.46 136.01 410.40 136.57 408.25 136.33 M 496.75 159.76 C 488.22 161.80 479.63 165.04 473.21 171.22 C 469.76 174.59 465.79 178.06 464.92 183.06 C 462.44 194.18 462.76 205.67 462.31 216.99 C 461.32 253.33 458.45 289.66 459.98 326.03 C 460.31 338.12 460.95 350.26 463.36 362.14 C 465.56 373.83 469.42 385.10 472.30 396.61 C 476.75 385.05 482.11 373.85 486.26 362.17 C 488.51 355.93 489.23 349.19 492.13 343.18 C 492.91 344.66 494.05 346.16 493.66 347.96 C 493.18 353.28 491.71 358.45 490.48 363.64 C 486.45 381.78 475.23 397.50 472.18 415.93 C 470.67 424.06 473.09 432.21 475.45 439.94 C 484.67 443.21 495.38 446.66 504.68 441.73 C 516.22 434.67 524.26 423.06 529.56 410.82 C 521.20 415.88 512.86 422.04 502.96 423.46 C 501.29 423.85 497.32 422.79 499.36 420.62 C 502.92 419.45 506.65 418.74 509.98 416.95 C 517.89 412.82 525.58 408.14 532.29 402.21 C 533.54 400.69 536.36 401.02 536.70 403.12 C 536.87 406.82 535.07 410.27 533.81 413.66 C 528.19 426.66 519.63 439.00 507.36 446.49 C 497.17 452.02 485.07 449.30 474.90 445.21 C 472.30 448.42 469.44 451.77 468.83 456.01 C 468.08 461.09 469.42 466.19 470.69 471.09 C 471.07 473.48 473.64 474.40 475.42 475.64 C 487.92 482.45 501.30 488.03 515.42 490.38 C 524.27 491.92 533.34 491.11 542.14 489.58 C 546.89 488.81 551.35 486.84 556.12 486.14 C 554.87 490.87 549.74 492.14 545.64 493.35 C 535.43 495.94 524.74 497.13 514.25 495.82 C 505.75 494.50 497.53 491.68 489.71 488.15 C 482.47 484.76 475.24 481.14 469.02 476.06 C 466.42 479.62 462.48 483.21 463.13 488.06 C 463.98 495.82 469.81 501.67 475.16 506.83 C 482.51 513.96 492.12 517.86 500.60 523.36 C 508.97 528.31 517.29 533.97 526.98 535.91 C 540.52 538.63 554.36 536.01 568.00 537.28 C 575.73 537.79 583.25 539.75 590.87 540.98 C 586.79 527.93 589.99 514.25 591.49 501.06 C 589.46 500.05 587.13 499.21 585.88 497.19 C 582.34 491.86 582.18 485.20 582.38 479.03 C 582.81 470.23 583.04 461.25 585.84 452.81 C 588.25 445.41 593.25 439.21 595.77 431.85 C 600.20 420.83 600.48 408.63 598.82 397.00 C 597.75 389.98 594.53 383.57 592.09 376.98 C 587.67 365.38 586.14 352.98 583.69 340.88 C 581.97 332.43 580.27 323.98 578.59 315.52 C 577.78 311.85 577.12 308.04 575.16 304.78 C 573.55 302.10 570.89 300.34 568.58 298.33 C 565.76 296.01 563.43 293.19 561.05 290.45 C 558.27 307.16 558.48 324.29 554.45 340.81 C 551.14 354.49 546.03 367.66 540.75 380.68 C 539.17 384.23 537.95 388.38 534.31 390.38 C 534.23 387.46 534.84 384.59 535.92 381.89 C 542.05 365.31 547.92 348.52 550.97 331.05 C 553.31 318.18 553.70 305.04 556.39 292.23 C 548.92 300.03 542.33 308.72 537.20 318.24 C 536.29 319.73 535.52 321.41 534.05 322.43 C 532.62 322.29 531.24 321.85 530.01 321.14 C 522.87 316.79 516.11 310.98 513.06 302.96 C 511.06 297.19 507.77 292.04 505.06 286.60 C 503.93 292.51 501.11 297.85 497.86 302.85 C 493.27 310.10 491.44 318.53 488.84 326.58 C 487.51 324.57 486.58 322.24 487.21 319.80 C 488.74 310.47 492.88 301.79 497.49 293.62 C 500.55 287.47 502.87 279.86 499.71 273.29 C 496.82 265.76 491.93 259.27 487.17 252.85 C 484.47 249.13 481.28 245.53 480.28 240.90 C 482.31 242.07 484.16 243.55 485.65 245.38 C 490.55 251.21 495.60 256.98 499.62 263.48 C 503.44 269.61 505.47 276.60 508.43 283.14 C 507.43 269.29 504.61 255.60 499.70 242.60 C 497.97 236.52 494.36 230.98 493.69 224.63 C 496.63 224.13 497.47 227.34 498.64 229.32 C 503.98 241.18 509.73 253.09 511.82 266.05 C 513.97 276.34 513.53 287.07 516.67 297.15 C 519.46 305.82 525.75 312.88 533.31 317.78 C 539.73 303.98 549.17 291.61 560.61 281.60 C 571.27 272.38 584.54 266.91 597.92 262.96 C 606.71 260.78 615.93 260.35 624.90 261.55 C 612.34 250.22 597.86 241.08 586.34 228.60 C 579.30 221.25 573.44 212.90 566.60 205.38 C 562.09 200.20 557.11 195.31 553.69 189.29 C 554.96 189.53 556.52 189.28 557.52 190.34 C 561.27 193.60 564.59 197.33 568.17 200.78 C 576.68 209.33 583.83 219.13 592.45 227.59 C 603.85 239.36 617.68 248.34 629.61 259.50 C 625.44 251.70 620.87 244.13 616.66 236.36 C 612.53 228.77 607.71 221.50 601.75 215.22 C 596.37 209.55 591.06 203.79 586.49 197.43 C 582.13 191.29 577.76 185.02 572.12 179.96 C 567.24 176.16 562.01 172.80 557.38 168.68 C 549.42 162.24 540.78 154.91 530.01 154.64 C 518.70 154.29 507.66 157.18 496.75 159.76 M 590.80 270.85 C 580.60 274.23 570.97 279.31 562.75 286.27 C 566.64 291.42 571.67 295.44 576.73 299.37 C 575.97 293.75 574.83 288.04 575.91 282.39 C 576.98 283.30 578.15 284.27 578.19 285.82 C 579.47 292.83 580.27 299.93 581.64 306.93 C 584.26 317.90 586.15 329.03 588.43 340.08 C 591.01 353.69 592.97 367.59 598.55 380.39 C 606.57 398.59 606.62 420.23 598.45 438.38 C 596.07 443.88 592.35 448.70 590.25 454.33 C 586.90 462.14 588.63 470.78 587.97 478.99 C 587.65 485.07 587.32 491.99 591.72 496.82 C 593.08 489.96 593.15 482.86 594.98 476.11 C 597.70 474.91 597.85 478.06 597.90 479.92 C 598.06 489.95 597.29 500.00 595.84 509.93 C 594.52 520.21 592.77 531.02 596.00 541.12 C 599.69 539.66 602.60 536.66 603.88 532.90 C 610.68 516.35 606.81 498.17 609.01 480.90 C 609.22 479.19 609.71 476.48 612.06 476.78 C 613.43 477.75 613.21 479.51 613.28 480.99 C 613.13 492.37 614.34 503.73 613.75 515.12 C 613.36 517.86 617.82 519.98 619.25 517.25 C 623.83 510.61 623.11 502.07 624.69 494.48 C 625.13 492.87 625.14 490.63 626.98 489.91 C 628.36 489.18 630.06 490.50 630.12 491.96 C 630.53 496.65 629.87 501.38 630.35 506.08 C 630.29 510.43 637.49 512.61 639.45 508.47 C 642.23 502.65 641.30 495.95 642.90 489.84 C 643.34 487.70 646.81 487.80 647.17 489.97 C 647.79 494.92 646.49 500.11 648.13 504.93 C 648.69 506.83 652.09 508.46 652.98 506.01 C 657.74 497.98 657.96 488.10 656.41 479.13 C 653.83 466.19 653.78 452.90 651.02 439.99 C 649.03 429.11 644.80 418.84 641.87 408.22 C 639.17 394.97 640.21 381.35 640.39 367.93 C 640.68 352.56 639.58 337.17 637.17 321.99 C 634.73 302.39 630.47 282.38 619.23 265.77 C 609.51 265.47 599.81 267.20 590.80 270.85 M 623.68 266.50 C 634.04 280.62 638.49 297.97 641.13 315.02 C 642.62 325.49 644.25 335.97 644.76 346.55 C 645.70 359.69 645.13 372.86 644.91 386.01 C 645.10 394.18 645.10 402.52 647.48 410.42 C 651.00 421.78 654.94 433.09 656.74 444.91 C 658.66 455.94 658.86 467.18 660.89 478.20 C 662.44 485.99 661.22 493.96 659.43 501.60 C 658.28 504.99 657.14 508.98 653.85 510.91 C 650.60 512.54 647.31 510.34 644.92 508.24 C 643.58 510.96 642.06 514.12 638.85 514.96 C 634.77 516.54 630.66 514.40 627.49 511.93 C 626.00 515.83 624.60 520.45 620.68 522.60 C 618.13 523.97 615.33 522.77 612.86 521.90 C 611.68 527.72 609.76 533.40 606.85 538.60 C 611.89 538.25 616.92 537.80 621.94 537.16 C 632.89 535.66 643.96 536.96 654.96 536.38 C 662.04 535.96 669.62 535.91 675.79 531.93 C 679.09 511.73 681.01 491.33 682.52 470.93 C 683.66 455.64 685.44 440.26 683.84 424.94 C 682.73 411.53 675.34 399.88 671.64 387.18 C 667.92 374.32 666.15 361.02 663.55 347.91 C 661.05 335.34 656.98 323.17 653.15 310.96 C 648.31 295.10 639.79 280.79 632.89 265.81 C 629.84 266.33 626.76 266.56 623.68 266.50 M 670.71 359.49 C 672.13 368.06 673.75 376.61 676.02 385.00 C 679.57 397.84 686.84 409.59 688.18 423.03 C 689.61 435.63 688.74 448.35 687.77 460.95 C 699.53 473.76 712.07 486.46 719.62 502.35 C 722.19 507.12 722.01 512.65 722.60 517.89 C 723.17 524.14 724.98 530.19 727.12 536.07 C 729.48 542.75 733.28 548.91 734.75 555.92 C 736.21 561.87 735.34 568.01 735.10 574.04 C 734.90 576.03 735.65 577.93 736.50 579.70 C 740.62 577.73 744.75 574.73 746.24 570.22 C 748.42 561.15 745.29 551.31 748.93 542.53 C 751.40 543.71 750.74 546.76 751.04 548.98 C 751.06 556.73 751.83 564.54 750.52 572.23 C 758.46 577.32 764.24 585.64 773.32 588.97 C 771.97 584.10 769.18 579.82 766.08 575.90 C 763.57 572.74 760.05 570.54 757.74 567.23 C 756.29 565.38 758.89 562.49 760.81 564.15 C 764.53 567.05 767.85 570.46 771.47 573.50 C 775.90 577.21 779.85 581.91 785.59 583.58 C 783.60 576.34 779.20 570.08 774.69 564.20 C 769.33 558.75 763.18 553.38 760.62 545.95 C 760.96 545.74 761.66 545.33 762.01 545.13 C 765.52 547.89 767.89 551.82 771.31 554.72 C 777.33 559.92 782.63 566.31 790.17 569.41 C 785.85 561.22 780.26 553.78 774.14 546.86 C 768.22 540.20 766.29 531.27 762.58 523.40 C 759.50 516.57 754.96 510.52 749.96 505.00 C 746.77 501.49 742.90 498.38 741.08 493.87 C 739.17 489.30 737.98 484.48 736.21 479.86 C 732.73 469.94 727.48 460.79 722.31 451.69 C 703.80 421.70 687.64 390.37 670.71 359.49 M 457.46 522.16 C 462.04 527.33 466.94 532.28 472.60 536.29 C 483.38 544.09 495.46 550.93 508.87 552.53 C 512.49 553.17 516.42 552.76 519.73 554.63 C 510.97 556.32 501.93 554.55 493.40 552.43 C 478.18 547.38 463.60 538.31 454.83 524.57 C 452.65 526.06 450.40 527.73 449.55 530.36 C 444.73 542.91 442.89 556.37 438.13 568.94 C 432.46 585.27 423.46 600.11 415.40 615.32 C 413.27 619.53 410.82 624.16 411.88 629.04 C 414.53 642.55 423.01 653.90 432.16 663.80 C 438.75 670.43 446.88 675.56 455.83 678.33 C 471.07 683.35 487.27 680.65 502.97 681.81 C 514.71 682.19 526.29 684.39 538.01 684.97 C 540.47 684.89 543.40 685.35 545.43 683.64 C 553.72 672.10 560.35 659.48 566.95 646.92 C 572.51 636.01 577.82 624.92 584.83 614.84 C 595.38 599.05 610.56 587.26 622.82 572.93 C 626.81 568.16 631.13 563.47 633.60 557.68 C 635.90 552.33 637.97 546.88 640.13 541.47 C 628.06 540.99 616.08 542.45 604.11 543.70 C 600.38 544.26 596.85 546.06 593.01 545.79 C 585.57 545.42 578.44 543.02 571.06 542.23 C 554.94 539.97 538.33 543.84 522.46 539.41 C 512.02 536.25 502.93 529.99 493.66 524.44 C 487.89 520.75 481.54 518.03 476.00 513.97 C 471.87 511.09 468.35 507.47 464.82 503.91 C 461.34 509.51 458.35 515.55 457.46 522.16 M 585.35 623.38 C 574.53 641.25 566.48 660.71 554.81 678.09 C 560.69 680.51 566.72 682.72 572.95 684.05 C 578.99 685.28 586.32 684.59 590.35 679.38 C 594.54 673.81 596.59 666.97 598.28 660.30 C 600.99 648.18 603.02 635.86 607.02 624.07 C 612.47 607.20 621.09 591.61 627.55 575.15 C 613.83 591.54 596.46 604.87 585.35 623.38 M 742.70 582.22 C 748.40 587.75 753.64 593.74 759.54 599.07 C 758.03 590.56 754.21 582.55 749.01 575.69 C 747.11 578.06 744.98 580.22 742.70 582.22 M 412.09 643.57 C 410.23 651.14 407.35 658.39 405.31 665.90 C 402.20 679.06 399.95 692.76 402.04 706.26 C 402.24 707.69 403.63 708.49 404.61 709.40 C 411.95 715.08 420.89 718.31 429.92 720.12 C 442.39 722.42 455.81 722.17 467.47 716.74 C 470.61 705.81 474.17 694.75 480.73 685.33 C 467.78 685.18 454.53 683.13 443.06 676.83 C 429.58 669.36 418.98 657.26 412.09 643.57 M 485.12 685.33 C 481.64 691.60 478.61 698.14 476.52 705.01 C 480.34 709.82 482.67 715.57 485.49 720.97 C 490.08 714.29 497.45 710.21 505.05 707.88 C 519.66 703.50 535.59 703.63 550.23 707.85 C 545.75 701.31 540.41 695.43 535.87 688.96 C 518.96 687.62 502.15 684.61 485.12 685.33 M 501.68 714.74 C 496.41 717.11 490.37 720.11 488.26 725.87 C 508.62 766.80 529.72 807.42 549.36 848.72 C 553.97 859.79 558.18 871.02 563.10 881.96 C 566.04 888.45 568.90 895.10 573.30 900.77 C 575.54 903.72 579.15 905.88 582.97 905.34 C 593.08 904.46 600.06 895.27 610.22 894.54 C 610.79 861.73 603.44 829.31 593.58 798.19 C 583.66 768.15 570.70 738.94 553.37 712.40 C 536.53 707.16 518.04 708.48 501.68 714.74 M 402.85 713.28 C 406.76 735.27 401.79 757.34 398.58 779.07 C 396.20 792.69 394.71 806.47 392.00 820.04 C 389.32 835.66 384.14 850.83 376.96 864.94 C 372.80 872.75 370.36 881.52 364.63 888.43 C 372.11 893.35 381.13 895.01 389.92 895.62 C 397.62 896.11 405.71 894.55 412.11 890.09 C 416.11 887.29 416.63 882.06 417.75 877.72 C 420.07 866.20 423.38 854.67 429.61 844.61 C 435.29 835.59 441.27 826.74 446.39 817.38 C 454.38 801.87 460.30 785.23 463.50 768.06 C 466.44 753.23 464.43 738.03 466.06 723.08 C 457.77 726.26 448.78 727.11 439.96 726.51 C 426.78 725.49 413.12 722.02 402.85 713.28 M 330.02 909.09 C 317.64 914.81 304.88 919.66 292.59 925.60 C 284.21 929.60 275.63 933.18 267.34 937.36 C 263.80 939.28 259.95 941.23 257.74 944.74 C 255.34 948.99 256.46 954.74 260.13 957.92 C 267.57 965.05 278.29 966.31 288.00 967.86 C 296.32 968.99 304.69 970.61 313.12 969.64 C 325.18 968.19 337.32 966.57 348.96 962.96 C 361.51 959.47 373.93 954.70 387.12 954.44 C 395.18 953.61 403.82 954.99 411.34 951.34 C 419.21 947.34 422.59 938.39 424.27 930.24 C 426.60 917.16 421.78 904.40 417.89 892.13 C 412.40 897.21 405.18 900.13 397.77 900.75 C 384.94 901.56 371.24 899.84 360.69 891.92 C 351.74 899.67 340.65 904.17 330.02 909.09 M 600.31 903.31 C 594.05 907.15 586.86 910.59 579.32 909.74 C 573.21 908.91 569.14 903.81 566.03 898.96 C 565.46 911.39 557.66 921.69 549.71 930.62 C 541.62 939.55 531.59 946.54 520.68 951.60 C 510.61 956.94 499.01 961.86 493.27 972.35 C 491.57 975.57 490.05 980.79 493.74 983.21 C 497.73 984.67 502.12 983.70 506.23 983.27 C 529.28 979.43 551.80 972.78 575.01 969.86 C 587.63 968.29 600.43 969.22 612.90 971.56 C 619.87 973.07 626.38 968.72 630.68 963.63 C 632.97 961.01 633.92 957.43 633.48 954.01 C 632.31 942.59 626.55 932.45 621.70 922.28 C 618.06 914.41 611.42 907.92 610.16 899.04 C 606.70 900.01 603.35 901.38 600.31 903.31 Z" />
        <path fill="#020202" opacity="1.00"
            d=" M 452.46 535.49 C 456.43 537.75 459.21 541.45 462.59 544.42 C 471.85 552.79 483.18 558.32 494.33 563.70 C 501.06 566.83 507.85 569.93 514.96 572.11 C 519.83 573.61 524.94 574.10 529.86 575.39 C 528.68 576.02 527.55 577.06 526.11 576.92 C 510.23 576.65 495.83 569.16 481.98 562.19 C 471.75 556.94 462.12 550.12 454.98 541.01 C 453.66 539.42 452.98 537.44 452.46 535.49 Z" />
        <path fill="#020202" opacity="1.00"
            d=" M 579.18 601.16 C 582.69 598.51 585.65 595.08 589.68 593.16 C 588.96 595.67 587.88 598.13 585.97 599.98 C 580.02 606.13 572.99 611.09 566.02 616.01 C 548.27 628.41 530.72 641.22 511.59 651.49 C 506.26 654.14 500.97 657.94 494.72 657.56 C 496.96 655.38 499.59 653.70 502.36 652.28 C 518.54 643.61 533.48 632.92 548.43 622.34 C 558.55 615.09 569.34 608.80 579.18 601.16 Z" />
    </g>
    <g id="#f0b58bff">
        <path fill="#f0b58b" opacity="1.00"
            d=" M 408.25 136.33 C 410.40 136.57 412.46 136.01 414.41 135.11 C 420.23 145.33 423.18 156.78 426.57 167.94 C 429.32 160.78 427.34 153.03 426.34 145.73 C 427.82 147.60 429.31 149.47 430.66 151.45 C 432.76 154.59 433.24 158.41 434.32 161.96 C 436.10 161.14 437.89 160.34 439.66 159.46 C 440.51 162.96 441.08 166.51 441.58 170.08 C 442.89 169.35 444.20 168.62 445.50 167.87 C 448.22 169.75 451.59 171.14 454.92 170.09 C 460.95 168.41 466.45 165.15 471.56 161.60 C 477.48 156.20 481.64 149.17 485.27 142.10 C 484.10 147.44 481.47 152.25 479.08 157.11 C 479.26 157.57 479.61 158.51 479.79 158.97 C 484.94 156.57 489.26 152.72 493.00 148.50 C 493.32 150.44 491.14 156.00 494.93 154.27 C 496.80 151.47 497.92 148.26 499.19 145.16 C 502.70 147.05 506.49 148.55 509.29 151.51 C 500.28 153.90 490.93 155.41 482.50 159.56 C 475.94 162.49 470.32 167.21 465.64 172.61 C 462.08 176.55 460.71 181.85 459.93 186.96 C 457.89 200.39 458.38 214.02 457.48 227.54 C 455.30 229.88 453.12 235.12 449.18 232.84 C 436.51 225.60 426.72 214.53 415.23 205.71 C 411.96 203.29 409.15 200.17 407.70 196.32 C 403.96 186.77 400.09 177.15 394.23 168.66 C 390.92 163.91 387.86 158.97 385.83 153.53 C 386.97 152.67 388.13 151.81 389.27 150.95 C 390.37 152.19 391.54 154.58 393.59 153.51 C 400.43 150.15 407.91 144.70 408.25 136.33 Z" />
        <path fill="#f0b58b" opacity="1.00"
            d=" M 590.80 270.85 C 599.81 267.20 609.51 265.47 619.23 265.77 C 630.47 282.38 634.73 302.39 637.17 321.99 C 639.58 337.17 640.68 352.56 640.39 367.93 C 640.21 381.35 639.17 394.97 641.87 408.22 C 644.80 418.84 649.03 429.11 651.02 439.99 C 653.78 452.90 653.83 466.19 656.41 479.13 C 657.96 488.10 657.74 497.98 652.98 506.01 C 652.09 508.46 648.69 506.83 648.13 504.93 C 646.49 500.11 647.79 494.92 647.17 489.97 C 646.81 487.80 643.34 487.70 642.90 489.84 C 641.30 495.95 642.23 502.65 639.45 508.47 C 637.49 512.61 630.29 510.43 630.35 506.08 C 629.87 501.38 630.53 496.65 630.12 491.96 C 630.06 490.50 628.36 489.18 626.98 489.91 C 625.14 490.63 625.13 492.87 624.69 494.48 C 623.11 502.07 623.83 510.61 619.25 517.25 C 617.82 519.98 613.36 517.86 613.75 515.12 C 614.34 503.73 613.13 492.37 613.28 480.99 C 613.21 479.51 613.43 477.75 612.06 476.78 C 609.71 476.48 609.22 479.19 609.01 480.90 C 606.81 498.17 610.68 516.35 603.88 532.90 C 602.60 536.66 599.69 539.66 596.00 541.12 C 592.77 531.02 594.52 520.21 595.84 509.93 C 597.29 500.00 598.06 489.95 597.90 479.92 C 597.85 478.06 597.70 474.91 594.98 476.11 C 593.15 482.86 593.08 489.96 591.72 496.82 C 587.32 491.99 587.65 485.07 587.97 478.99 C 588.63 470.78 586.90 462.14 590.25 454.33 C 592.35 448.70 596.07 443.88 598.45 438.38 C 606.62 420.23 606.57 398.59 598.55 380.39 C 592.97 367.59 591.01 353.69 588.43 340.08 C 586.15 329.03 584.26 317.90 581.64 306.93 C 580.27 299.93 579.47 292.83 578.19 285.82 C 578.15 284.27 576.98 283.30 575.91 282.39 C 574.83 288.04 575.97 293.75 576.73 299.37 C 571.67 295.44 566.64 291.42 562.75 286.27 C 570.97 279.31 580.60 274.23 590.80 270.85 Z" />
        <path fill="#f0b58b" opacity="1.00"
            d=" M 670.71 359.49 C 687.64 390.37 703.80 421.70 722.31 451.69 C 727.48 460.79 732.73 469.94 736.21 479.86 C 737.98 484.48 739.17 489.30 741.08 493.87 C 742.90 498.38 746.77 501.49 749.96 505.00 C 754.96 510.52 759.50 516.57 762.58 523.40 C 766.29 531.27 768.22 540.20 774.14 546.86 C 780.26 553.78 785.85 561.22 790.17 569.41 C 782.63 566.31 777.33 559.92 771.31 554.72 C 767.89 551.82 765.52 547.89 762.01 545.13 C 761.66 545.33 760.96 545.74 760.62 545.95 C 763.18 553.38 769.33 558.75 774.69 564.20 C 779.20 570.08 783.60 576.34 785.59 583.58 C 779.85 581.91 775.90 577.21 771.47 573.50 C 767.85 570.46 764.53 567.05 760.81 564.15 C 758.89 562.49 756.29 565.38 757.74 567.23 C 760.05 570.54 763.57 572.74 766.08 575.90 C 769.18 579.82 771.97 584.10 773.32 588.97 C 764.24 585.64 758.46 577.32 750.52 572.23 C 751.83 564.54 751.06 556.73 751.04 548.98 C 750.74 546.76 751.40 543.71 748.93 542.53 C 745.29 551.31 748.42 561.15 746.24 570.22 C 744.75 574.73 740.62 577.73 736.50 579.70 C 735.65 577.93 734.90 576.03 735.10 574.04 C 735.34 568.01 736.21 561.87 734.75 555.92 C 733.28 548.91 729.48 542.75 727.12 536.07 C 724.98 530.19 723.17 524.14 722.60 517.89 C 722.01 512.65 722.19 507.12 719.62 502.35 C 712.07 486.46 699.53 473.76 687.77 460.95 C 688.74 448.35 689.61 435.63 688.18 423.03 C 686.84 409.59 679.57 397.84 676.02 385.00 C 673.75 376.61 672.13 368.06 670.71 359.49 Z" />
        <path fill="#f0b58b" opacity="1.00"
            d=" M 742.70 582.22 C 744.98 580.22 747.11 578.06 749.01 575.69 C 754.21 582.55 758.03 590.56 759.54 599.07 C 753.64 593.74 748.40 587.75 742.70 582.22 Z" />
        <path fill="#f0b58b" opacity="1.00"
            d=" M 412.09 643.57 C 418.98 657.26 429.58 669.36 443.06 676.83 C 454.53 683.13 467.78 685.18 480.73 685.33 C 474.17 694.75 470.61 705.81 467.47 716.74 C 455.81 722.17 442.39 722.42 429.92 720.12 C 420.89 718.31 411.95 715.08 404.61 709.40 C 403.63 708.49 402.24 707.69 402.04 706.26 C 399.95 692.76 402.20 679.06 405.31 665.90 C 407.35 658.39 410.23 651.14 412.09 643.57 Z" />
        <path fill="#f0b58b" opacity="1.00"
            d=" M 485.12 685.33 C 502.15 684.61 518.96 687.62 535.87 688.96 C 540.41 695.43 545.75 701.31 550.23 707.85 C 535.59 703.63 519.66 703.50 505.05 707.88 C 497.45 710.21 490.08 714.29 485.49 720.97 C 482.67 715.57 480.34 709.82 476.52 705.01 C 478.61 698.14 481.64 691.60 485.12 685.33 Z" />
    </g>
    <g id="#f11b27ff">
        <path fill="var(--shirt-color, grey)" opacity="1.00"
            d=" M 496.75 159.76 C 507.66 157.18 518.70 154.29 530.01 154.64 C 540.78 154.91 549.42 162.24 557.38 168.68 C 562.01 172.80 567.24 176.16 572.12 179.96 C 577.76 185.02 582.13 191.29 586.49 197.43 C 591.06 203.79 596.37 209.55 601.75 215.22 C 607.71 221.50 612.53 228.77 616.66 236.36 C 620.87 244.13 625.44 251.70 629.61 259.50 C 617.68 248.34 603.85 239.36 592.45 227.59 C 583.83 219.13 576.68 209.33 568.17 200.78 C 564.59 197.33 561.27 193.60 557.52 190.34 C 556.52 189.28 554.96 189.53 553.69 189.29 C 557.11 195.31 562.09 200.20 566.60 205.38 C 573.44 212.90 579.30 221.25 586.34 228.60 C 597.86 241.08 612.34 250.22 624.90 261.55 C 615.93 260.35 606.71 260.78 597.92 262.96 C 584.54 266.91 571.27 272.38 560.61 281.60 C 549.17 291.61 539.73 303.98 533.31 317.78 C 525.75 312.88 519.46 305.82 516.67 297.15 C 513.53 287.07 513.97 276.34 511.82 266.05 C 509.73 253.09 503.98 241.18 498.64 229.32 C 497.47 227.34 496.63 224.13 493.69 224.63 C 494.36 230.98 497.97 236.52 499.70 242.60 C 504.61 255.60 507.43 269.29 508.43 283.14 C 505.47 276.60 503.44 269.61 499.62 263.48 C 495.60 256.98 490.55 251.21 485.65 245.38 C 484.16 243.55 482.31 242.07 480.28 240.90 C 481.28 245.53 484.47 249.13 487.17 252.85 C 491.93 259.27 496.82 265.76 499.71 273.29 C 502.87 279.86 500.55 287.47 497.49 293.62 C 492.88 301.79 488.74 310.47 487.21 319.80 C 486.58 322.24 487.51 324.57 488.84 326.58 C 491.44 318.53 493.27 310.10 497.86 302.85 C 501.11 297.85 503.93 292.51 505.06 286.60 C 507.77 292.04 511.06 297.19 513.06 302.96 C 516.11 310.98 522.87 316.79 530.01 321.14 C 531.24 321.85 532.62 322.29 534.05 322.43 C 535.52 321.41 536.29 319.73 537.20 318.24 C 542.33 308.72 548.92 300.03 556.39 292.23 C 553.70 305.04 553.31 318.18 550.97 331.05 C 547.92 348.52 542.05 365.31 535.92 381.89 C 534.84 384.59 534.23 387.46 534.31 390.38 C 537.95 388.38 539.17 384.23 540.75 380.68 C 546.03 367.66 551.14 354.49 554.45 340.81 C 558.48 324.29 558.27 307.16 561.05 290.45 C 563.43 293.19 565.76 296.01 568.58 298.33 C 570.89 300.34 573.55 302.10 575.16 304.78 C 577.12 308.04 577.78 311.85 578.59 315.52 C 580.27 323.98 581.97 332.43 583.69 340.88 C 586.14 352.98 587.67 365.38 592.09 376.98 C 594.53 383.57 597.75 389.98 598.82 397.00 C 600.48 408.63 600.20 420.83 595.77 431.85 C 593.25 439.21 588.25 445.41 585.84 452.81 C 583.04 461.25 582.81 470.23 582.38 479.03 C 582.18 485.20 582.34 491.86 585.88 497.19 C 587.13 499.21 589.46 500.05 591.49 501.06 C 589.99 514.25 586.79 527.93 590.87 540.98 C 583.25 539.75 575.73 537.79 568.00 537.28 C 554.36 536.01 540.52 538.63 526.98 535.91 C 517.29 533.97 508.97 528.31 500.60 523.36 C 492.12 517.86 482.51 513.96 475.16 506.83 C 469.81 501.67 463.98 495.82 463.13 488.06 C 462.48 483.21 466.42 479.62 469.02 476.06 C 475.24 481.14 482.47 484.76 489.71 488.15 C 497.53 491.68 505.75 494.50 514.25 495.82 C 524.74 497.13 535.43 495.94 545.64 493.35 C 549.74 492.14 554.87 490.87 556.12 486.14 C 551.35 486.84 546.89 488.81 542.14 489.58 C 533.34 491.11 524.27 491.92 515.42 490.38 C 501.30 488.03 487.92 482.45 475.42 475.64 C 473.64 474.40 471.07 473.48 470.69 471.09 C 469.42 466.19 468.08 461.09 468.83 456.01 C 469.44 451.77 472.30 448.42 474.90 445.21 C 485.07 449.30 497.17 452.02 507.36 446.49 C 519.63 439.00 528.19 426.66 533.81 413.66 C 535.07 410.27 536.87 406.82 536.70 403.12 C 536.36 401.02 533.54 400.69 532.29 402.21 C 525.58 408.14 517.89 412.82 509.98 416.95 C 506.65 418.74 502.92 419.45 499.36 420.62 C 497.32 422.79 501.29 423.85 502.96 423.46 C 512.86 422.04 521.20 415.88 529.56 410.82 C 524.26 423.06 516.22 434.67 504.68 441.73 C 495.38 446.66 484.67 443.21 475.45 439.94 C 473.09 432.21 470.67 424.06 472.18 415.93 C 475.23 397.50 486.45 381.78 490.48 363.64 C 491.71 358.45 493.18 353.28 493.66 347.96 C 494.05 346.16 492.91 344.66 492.13 343.18 C 489.23 349.19 488.51 355.93 486.26 362.17 C 482.11 373.85 476.75 385.05 472.30 396.61 C 469.42 385.10 465.56 373.83 463.36 362.14 C 460.95 350.26 460.31 338.12 459.98 326.03 C 458.45 289.66 461.32 253.33 462.31 216.99 C 462.76 205.67 462.44 194.18 464.92 183.06 C 465.79 178.06 469.76 174.59 473.21 171.22 C 479.63 165.04 488.22 161.80 496.75 159.76 Z" />
        <path fill="var(--shirt-color, grey)" opacity="1.00"
            d=" M 623.68 266.50 C 626.76 266.56 629.84 266.33 632.89 265.81 C 639.79 280.79 648.31 295.10 653.15 310.96 C 656.98 323.17 661.05 335.34 663.55 347.91 C 666.15 361.02 667.92 374.32 671.64 387.18 C 675.34 399.88 682.73 411.53 683.84 424.94 C 685.44 440.26 683.66 455.64 682.52 470.93 C 681.01 491.33 679.09 511.73 675.79 531.93 C 669.62 535.91 662.04 535.96 654.96 536.38 C 643.96 536.96 632.89 535.66 621.94 537.16 C 616.92 537.80 611.89 538.25 606.85 538.60 C 609.76 533.40 611.68 527.72 612.86 521.90 C 615.33 522.77 618.13 523.97 620.68 522.60 C 624.60 520.45 626.00 515.83 627.49 511.93 C 630.66 514.40 634.77 516.54 638.85 514.96 C 642.06 514.12 643.58 510.96 644.92 508.24 C 647.31 510.34 650.60 512.54 653.85 510.91 C 657.14 508.98 658.28 504.99 659.43 501.60 C 661.22 493.96 662.44 485.99 660.89 478.20 C 658.86 467.18 658.66 455.94 656.74 444.91 C 654.94 433.09 651.00 421.78 647.48 410.42 C 645.10 402.52 645.10 394.18 644.91 386.01 C 645.13 372.86 645.70 359.69 644.76 346.55 C 644.25 335.97 642.62 325.49 641.13 315.02 C 638.49 297.97 634.04 280.62 623.68 266.50 Z" />
    </g>
    <g id="#2b3dcdff">
        <path fill="var(--pants-color, grey)" opacity="1.00"
            d=" M 457.46 522.16 C 458.35 515.55 461.34 509.51 464.82 503.91 C 468.35 507.47 471.87 511.09 476.00 513.97 C 481.54 518.03 487.89 520.75 493.66 524.44 C 502.93 529.99 512.02 536.25 522.46 539.41 C 538.33 543.84 554.94 539.97 571.06 542.23 C 578.44 543.02 585.57 545.42 593.01 545.79 C 596.85 546.06 600.38 544.26 604.11 543.70 C 616.08 542.45 628.06 540.99 640.13 541.47 C 637.97 546.88 635.90 552.33 633.60 557.68 C 631.13 563.47 626.81 568.16 622.82 572.93 C 610.56 587.26 595.38 599.05 584.83 614.84 C 577.82 624.92 572.51 636.01 566.95 646.92 C 560.35 659.48 553.72 672.10 545.43 683.64 C 543.40 685.35 540.47 684.89 538.01 684.97 C 526.29 684.39 514.71 682.19 502.97 681.81 C 487.27 680.65 471.07 683.35 455.83 678.33 C 446.88 675.56 438.75 670.43 432.16 663.80 C 423.01 653.90 414.53 642.55 411.88 629.04 C 410.82 624.16 413.27 619.53 415.40 615.32 C 423.46 600.11 432.46 585.27 438.13 568.94 C 442.89 556.37 444.73 542.91 449.55 530.36 C 450.40 527.73 452.65 526.06 454.83 524.57 C 463.60 538.31 478.18 547.38 493.40 552.43 C 501.93 554.55 510.97 556.32 519.73 554.63 C 516.42 552.76 512.49 553.17 508.87 552.53 C 495.46 550.93 483.38 544.09 472.60 536.29 C 466.94 532.28 462.04 527.33 457.46 522.16 M 452.46 535.49 C 452.98 537.44 453.66 539.42 454.98 541.01 C 462.12 550.12 471.75 556.94 481.98 562.19 C 495.83 569.16 510.23 576.65 526.11 576.92 C 527.55 577.06 528.68 576.02 529.86 575.39 C 524.94 574.10 519.83 573.61 514.96 572.11 C 507.85 569.93 501.06 566.83 494.33 563.70 C 483.18 558.32 471.85 552.79 462.59 544.42 C 459.21 541.45 456.43 537.75 452.46 535.49 M 579.18 601.16 C 569.34 608.80 558.55 615.09 548.43 622.34 C 533.48 632.92 518.54 643.61 502.36 652.28 C 499.59 653.70 496.96 655.38 494.72 657.56 C 500.97 657.94 506.26 654.14 511.59 651.49 C 530.72 641.22 548.27 628.41 566.02 616.01 C 572.99 611.09 580.02 606.13 585.97 599.98 C 587.88 598.13 588.96 595.67 589.68 593.16 C 585.65 595.08 582.69 598.51 579.18 601.16 Z" />
        <path fill="var(--pants-color, grey)" opacity="1.00"
            d=" M 585.35 623.38 C 596.46 604.87 613.83 591.54 627.55 575.15 C 621.09 591.61 612.47 607.20 607.02 624.07 C 603.02 635.86 600.99 648.18 598.28 660.30 C 596.59 666.97 594.54 673.81 590.35 679.38 C 586.32 684.59 578.99 685.28 572.95 684.05 C 566.72 682.72 560.69 680.51 554.81 678.09 C 566.48 660.71 574.53 641.25 585.35 623.38 Z" />
        <path fill="var(--socks-color, grey)" opacity="1.00"
            d=" M 501.68 714.74 C 518.04 708.48 536.53 707.16 553.37 712.40 C 570.70 738.94 583.66 768.15 593.58 798.19 C 603.44 829.31 610.79 861.73 610.22 894.54 C 600.06 895.27 593.08 904.46 582.97 905.34 C 579.15 905.88 575.54 903.72 573.30 900.77 C 568.90 895.10 566.04 888.45 563.10 881.96 C 558.18 871.02 553.97 859.79 549.36 848.72 C 529.72 807.42 508.62 766.80 488.26 725.87 C 490.37 720.11 496.41 717.11 501.68 714.74 Z" />
        <path fill="var(--socks-color, grey)" opacity="1.00"
            d=" M 402.85 713.28 C 413.12 722.02 426.78 725.49 439.96 726.51 C 448.78 727.11 457.77 726.26 466.06 723.08 C 464.43 738.03 466.44 753.23 463.50 768.06 C 460.30 785.23 454.38 801.87 446.39 817.38 C 441.27 826.74 435.29 835.59 429.61 844.61 C 423.38 854.67 420.07 866.20 417.75 877.72 C 416.63 882.06 416.11 887.29 412.11 890.09 C 405.71 894.55 397.62 896.11 389.92 895.62 C 381.13 895.01 372.11 893.35 364.63 888.43 C 370.36 881.52 372.80 872.75 376.96 864.94 C 384.14 850.83 389.32 835.66 392.00 820.04 C 394.71 806.47 396.20 792.69 398.58 779.07 C 401.79 757.34 406.76 735.27 402.85 713.28 Z" />
    </g>
    <g id="#4d4d4dff">
        <path fill="#4d4d4d" opacity="1.00"
            d=" M 330.02 909.09 C 340.65 904.17 351.74 899.67 360.69 891.92 C 371.24 899.84 384.94 901.56 397.77 900.75 C 405.18 900.13 412.40 897.21 417.89 892.13 C 421.78 904.40 426.60 917.16 424.27 930.24 C 422.59 938.39 419.21 947.34 411.34 951.34 C 403.82 954.99 395.18 953.61 387.12 954.44 C 373.93 954.70 361.51 959.47 348.96 962.96 C 337.32 966.57 325.18 968.19 313.12 969.64 C 304.69 970.61 296.32 968.99 288.00 967.86 C 278.29 966.31 267.57 965.05 260.13 957.92 C 256.46 954.74 255.34 948.99 257.74 944.74 C 259.95 941.23 263.80 939.28 267.34 937.36 C 275.63 933.18 284.21 929.60 292.59 925.60 C 304.88 919.66 317.64 914.81 330.02 909.09 Z" />
        <path fill="#4d4d4d" opacity="1.00"
            d=" M 600.31 903.31 C 603.35 901.38 606.70 900.01 610.16 899.04 C 611.42 907.92 618.06 914.41 621.70 922.28 C 626.55 932.45 632.31 942.59 633.48 954.01 C 633.92 957.43 632.97 961.01 630.68 963.63 C 626.38 968.72 619.87 973.07 612.90 971.56 C 600.43 969.22 587.63 968.29 575.01 969.86 C 551.80 972.78 529.28 979.43 506.23 983.27 C 502.12 983.70 497.73 984.67 493.74 983.21 C 490.05 980.79 491.57 975.57 493.27 972.35 C 499.01 961.86 510.61 956.94 520.68 951.60 C 531.59 946.54 541.62 939.55 549.71 930.62 C 557.66 921.69 565.46 911.39 566.03 898.96 C 569.14 903.81 573.21 908.91 579.32 909.74 C 586.86 910.59 594.05 907.15 600.31 903.31 Z" />
    </g>
</svg>