<?xml version="1.0" encoding="UTF-8" ?>
<!DOCTYPE svg PUBLIC "-//W3C//DTD SVG 1.1//EN" "http://www.w3.org/Graphics/SVG/1.1/DTD/svg11.dtd">
<svg width="1000pt" height="1000pt" viewBox="0 0 1000 1000" version="1.1" xmlns="http://www.w3.org/2000/svg">
    <g id="#020202ff">
        <path fill="#020202" opacity="1.00"
            d=" M 431.52 61.21 C 431.50 58.29 432.12 55.34 434.51 53.42 C 436.76 54.76 439.15 56.07 441.87 55.92 C 453.17 56.05 464.81 54.55 475.77 58.08 C 481.09 59.63 485.41 63.21 489.89 66.31 C 494.02 66.04 498.46 66.45 501.72 69.28 C 508.72 74.44 511.65 82.92 515.79 90.21 C 518.56 95.09 523.43 98.10 527.79 101.38 C 527.27 104.56 522.61 103.16 520.33 103.91 C 524.60 111.92 526.01 121.02 526.69 129.96 C 526.84 135.23 526.88 140.78 524.49 145.62 C 523.08 148.22 522.88 151.18 522.47 154.04 C 521.25 162.52 515.80 170.09 508.65 174.63 C 505.20 176.86 500.57 178.04 498.60 181.97 C 498.15 190.77 499.08 199.99 503.14 207.96 C 508.94 208.78 513.98 212.02 518.45 215.63 C 523.53 219.80 527.40 225.24 532.55 229.33 C 546.24 240.21 563.09 246.22 576.65 257.28 C 583.18 262.55 586.30 270.55 590.44 277.60 C 596.43 288.12 597.63 300.46 602.65 311.39 C 607.00 322.07 614.05 331.30 619.46 341.42 C 624.98 352.33 630.93 363.04 637.87 373.12 C 639.98 376.41 642.27 379.95 642.24 384.01 C 642.16 387.46 639.94 390.28 638.07 392.99 C 644.22 416.88 649.75 440.92 655.00 465.02 C 657.09 475.21 658.33 485.54 659.69 495.84 C 661.34 508.14 662.62 520.53 662.83 532.95 C 662.72 540.71 662.69 548.91 658.95 555.94 C 655.78 562.59 650.96 569.09 643.87 571.80 C 635.37 574.15 626.59 571.62 618.00 571.23 C 615.10 570.88 611.97 571.14 609.34 569.72 C 606.75 567.86 608.15 563.95 610.40 562.44 C 613.59 560.29 617.58 560.13 621.27 559.60 C 620.26 552.01 621.49 544.42 622.36 536.89 C 623.53 527.38 625.65 518.00 628.57 508.88 C 630.41 503.05 630.69 496.59 628.25 490.90 C 620.62 472.02 611.77 453.65 604.52 434.62 C 601.48 427.56 598.99 420.27 597.03 412.84 C 591.85 413.07 586.16 414.09 581.36 411.62 C 579.01 409.08 579.27 405.31 578.68 402.13 C 572.77 396.81 566.20 391.94 562.25 384.86 C 560.21 381.61 558.90 377.99 557.79 374.34 C 555.28 380.39 552.39 386.41 551.50 392.98 C 550.23 403.58 551.02 414.28 552.31 424.84 C 553.29 432.31 555.99 439.38 558.71 446.36 C 561.92 456.42 565.18 466.58 566.28 477.13 C 567.00 483.06 567.66 489.20 566.02 495.04 C 565.36 497.68 564.02 500.25 564.39 503.05 C 564.95 508.41 568.06 513.00 569.87 517.97 C 571.49 522.43 572.51 527.25 571.96 532.01 C 571.43 536.00 568.47 538.97 565.86 541.79 C 566.78 550.84 567.57 559.92 567.06 569.02 C 566.65 578.86 566.37 588.85 563.65 598.38 C 560.67 608.89 554.88 618.37 552.18 628.97 C 549.01 641.18 546.72 653.61 544.91 666.09 C 543.25 676.00 541.35 685.96 541.65 696.06 C 541.95 699.46 537.55 700.04 535.05 700.60 C 521.78 701.63 508.58 698.16 496.38 693.16 C 493.21 702.43 492.62 712.32 492.43 722.04 C 492.26 727.92 493.33 733.73 494.56 739.46 C 507.53 742.66 518.51 750.94 528.35 759.65 C 541.22 771.26 550.58 786.04 562.67 798.38 C 567.28 803.34 572.50 807.66 577.44 812.28 C 583.67 805.69 593.48 804.64 602.05 805.05 C 611.25 806.31 621.94 811.16 624.26 821.05 C 627.40 835.57 632.02 849.71 636.14 863.97 C 638.73 873.52 639.83 883.39 641.44 893.13 C 642.88 905.02 645.48 916.93 644.18 928.96 C 643.40 936.29 642.99 944.82 637.00 950.05 C 631.98 954.70 624.16 953.64 618.66 950.45 C 612.62 946.84 608.67 940.77 604.94 934.99 C 597.76 922.95 591.48 910.35 586.77 897.14 C 583.65 889.90 582.05 881.53 575.81 876.14 C 562.35 863.21 548.26 850.87 533.28 839.73 C 524.12 832.77 514.01 827.05 505.60 819.15 C 504.68 837.21 502.01 855.13 499.22 872.98 C 496.43 890.75 496.60 908.92 498.29 926.76 C 502.61 934.43 507.32 942.20 508.42 951.13 C 509.32 957.72 509.34 965.34 504.66 970.61 C 500.50 975.54 493.96 977.33 487.84 978.36 C 476.31 980.18 464.60 979.79 452.97 979.57 C 444.97 979.38 436.99 980.15 429.00 979.89 C 420.19 979.76 411.56 977.88 402.90 976.55 C 398.22 975.78 392.99 973.13 392.04 968.04 C 391.06 962.00 393.60 955.38 398.52 951.67 C 405.33 946.63 414.01 945.61 421.81 942.81 C 433.66 939.01 443.38 930.42 450.76 920.62 C 451.41 919.42 452.76 918.29 452.59 916.85 C 447.68 897.33 444.81 877.24 444.24 857.10 C 443.85 842.72 444.44 828.34 445.06 813.98 C 445.72 799.18 447.71 784.22 445.40 769.48 C 442.81 768.03 439.90 767.19 437.44 765.51 C 431.84 761.76 427.64 756.26 424.59 750.32 C 419.53 740.44 416.29 729.52 416.02 718.39 C 413.93 717.42 410.84 716.86 410.68 714.02 C 408.46 701.66 407.51 689.03 403.86 676.96 C 399.76 661.20 394.23 645.83 390.46 629.98 C 388.47 621.84 388.72 613.25 390.64 605.12 C 391.91 599.52 394.10 593.87 393.06 588.04 C 391.19 577.27 389.64 566.22 391.38 555.33 C 387.88 553.44 383.89 550.58 384.20 546.09 C 384.72 538.31 386.85 530.74 387.87 523.03 C 388.74 515.67 387.85 508.19 385.67 501.13 C 380.77 484.16 374.82 466.96 375.60 449.05 C 376.91 435.03 380.96 421.06 378.55 406.91 C 375.66 390.88 370.27 375.30 369.00 358.98 C 368.61 353.48 368.84 347.96 368.92 342.46 C 358.43 342.76 348.08 345.72 338.98 350.93 C 334.39 353.62 330.32 357.11 325.64 359.65 C 322.86 357.19 322.10 353.44 320.76 350.15 C 318.37 343.97 314.95 338.26 311.09 332.91 C 307.36 336.73 303.54 340.54 299.01 343.41 C 297.73 351.18 294.87 358.82 289.87 364.98 C 287.51 367.83 285.07 370.63 282.99 373.70 C 286.27 377.40 290.77 380.73 291.64 385.91 C 292.71 393.25 290.02 400.73 285.60 406.55 C 285.54 411.89 286.53 418.87 280.85 421.83 C 280.78 425.28 281.47 429.28 279.09 432.17 C 277.73 434.06 274.88 434.47 273.03 433.05 C 270.15 430.91 268.76 427.46 267.14 424.38 C 261.79 425.64 257.01 422.31 253.70 418.45 C 251.21 420.69 247.55 421.50 244.76 419.27 C 240.45 415.94 236.30 411.99 233.79 407.10 C 230.72 398.73 231.65 389.41 233.90 380.96 C 235.73 374.18 242.08 370.39 246.63 365.57 C 250.42 361.64 250.45 355.87 251.31 350.81 C 252.10 344.69 253.80 338.54 257.39 333.43 C 261.25 327.69 267.62 324.24 271.30 318.35 C 275.52 311.96 281.71 307.38 287.29 302.28 C 296.68 292.35 307.48 283.87 316.68 273.75 C 321.62 268.13 325.14 261.48 329.23 255.26 C 333.51 248.65 340.41 244.24 344.44 237.45 C 346.85 233.37 349.66 229.43 353.51 226.59 C 359.95 221.78 367.55 218.88 374.97 215.96 C 386.80 211.69 398.57 207.24 410.45 203.12 C 405.16 195.53 402.24 186.57 400.76 177.50 C 398.84 165.62 396.03 153.89 394.57 141.93 C 392.54 143.67 390.79 146.34 387.89 146.49 C 385.71 145.79 386.47 143.42 386.78 141.76 C 387.63 138.25 387.89 134.63 387.84 131.02 C 385.94 128.69 383.80 126.18 383.74 123.01 C 383.37 119.14 385.65 115.82 387.78 112.83 C 385.93 104.54 388.70 96.07 393.02 89.02 C 399.19 79.02 408.37 71.10 418.61 65.47 C 422.60 63.22 427.01 61.90 431.52 61.21 M 448.11 124.47 C 442.18 127.89 435.81 130.85 429.02 132.02 C 426.76 132.57 424.54 131.94 422.43 131.17 C 415.69 136.85 406.33 137.63 398.01 135.73 C 398.09 144.25 401.38 152.29 403.03 160.56 C 408.73 159.90 414.42 158.91 420.17 158.86 C 420.47 159.05 421.08 159.44 421.38 159.64 C 422.55 163.98 422.23 168.55 422.64 172.99 C 422.66 176.35 423.52 180.23 421.02 182.97 C 419.43 179.12 419.08 174.96 418.82 170.85 C 414.37 171.43 409.92 171.90 405.47 172.42 C 407.30 183.54 410.34 195.03 418.16 203.55 C 423.30 200.75 429.22 200.19 434.84 198.90 C 439.24 198.13 443.59 196.84 448.08 196.71 C 451.69 198.10 447.96 201.74 446.49 203.43 C 439.15 205.74 431.50 207.25 423.90 208.39 C 422.39 207.32 421.12 205.96 419.70 204.79 C 423.36 210.54 427.92 215.66 431.51 221.46 C 434.02 225.05 436.54 229.49 441.11 230.62 C 445.17 231.20 449.27 230.14 453.15 229.02 C 462.10 225.53 470.64 220.00 475.72 211.64 C 478.98 207.47 480.27 201.99 484.20 198.33 C 484.84 207.28 479.51 215.36 473.71 221.71 C 465.06 229.92 453.74 235.75 441.65 236.19 C 446.29 245.62 452.40 255.53 462.54 259.71 C 470.04 262.76 478.60 259.62 484.05 254.08 C 495.00 243.43 498.87 227.82 500.97 213.19 C 494.72 205.68 493.65 195.42 494.02 186.02 C 494.40 180.25 495.35 173.99 499.10 169.37 C 501.91 168.74 505.08 168.50 507.14 166.21 C 512.13 160.93 516.30 153.68 514.80 146.16 C 514.38 143.10 511.27 140.31 508.10 141.46 C 504.11 142.46 502.49 146.69 501.14 150.13 C 498.19 158.57 491.71 165.27 484.82 170.68 C 482.99 166.29 487.89 162.46 487.94 158.02 C 488.15 151.53 482.25 147.45 479.49 142.15 C 478.72 144.30 479.04 148.14 475.87 148.21 C 474.13 145.78 473.45 142.74 471.45 140.47 C 466.89 135.11 462.29 129.52 459.99 122.76 C 456.40 124.53 451.52 128.62 448.11 124.47 M 375.30 221.28 C 368.67 224.06 361.74 226.57 356.06 231.10 C 351.45 234.74 349.61 240.58 345.84 244.92 C 342.52 248.87 338.38 252.05 335.17 256.11 C 332.96 258.87 331.19 261.93 329.32 264.92 C 340.24 265.62 349.40 276.18 348.26 287.13 C 347.81 288.79 346.34 289.52 345.39 287.77 C 343.18 282.57 340.99 277.16 336.80 273.18 C 334.26 270.36 330.39 269.59 326.84 268.88 C 322.59 276.06 316.48 281.80 310.55 287.56 C 303.09 294.21 295.75 300.99 288.61 307.98 C 307.09 316.78 322.06 333.22 327.89 352.97 C 339.36 342.99 354.52 337.31 369.76 337.76 C 370.42 332.50 370.93 327.14 369.91 321.89 C 367.49 308.62 363.08 295.79 360.74 282.50 C 360.00 277.13 359.58 271.30 361.86 266.24 C 364.58 267.21 364.04 270.52 364.61 272.81 C 366.31 289.90 372.96 305.98 375.54 322.90 C 376.92 331.65 373.85 340.24 374.17 349.00 C 373.72 368.88 380.58 387.81 384.40 407.08 C 387.10 422.53 391.91 438.03 401.18 450.86 C 406.53 457.90 413.08 465.03 422.04 467.11 C 426.76 468.46 431.40 466.21 436.00 465.43 C 435.40 467.43 434.57 469.63 432.40 470.38 C 424.33 474.47 414.74 471.22 407.98 466.05 C 395.82 456.51 388.35 442.35 383.51 427.94 C 383.01 436.65 381.03 445.25 381.19 454.00 C 381.77 466.40 385.11 478.47 388.81 490.25 C 391.31 498.66 394.41 507.10 394.36 516.00 C 394.72 526.58 390.94 536.68 389.77 547.07 C 390.76 549.48 393.45 550.37 395.62 551.40 C 410.37 556.89 424.47 565.00 440.46 566.35 C 458.60 568.81 476.04 562.09 493.06 556.84 C 512.60 549.85 533.61 548.65 553.36 542.44 C 558.59 540.51 564.04 537.29 566.34 531.98 C 567.70 523.27 562.56 515.53 560.28 507.46 C 556.28 512.40 551.51 516.68 546.22 520.19 C 534.00 528.35 520.38 534.45 506.08 537.83 C 504.10 538.17 500.79 539.18 501.33 535.95 C 503.54 533.69 506.66 532.81 509.50 531.64 C 524.63 525.78 539.81 518.94 551.88 507.83 C 558.65 501.65 563.23 492.36 561.99 483.06 C 560.79 467.77 555.77 453.12 550.30 438.91 C 546.12 425.74 545.53 411.70 545.86 397.98 C 545.96 388.85 549.16 380.16 552.91 371.96 C 555.04 366.81 558.09 361.77 558.15 356.04 C 558.43 346.70 558.30 337.36 558.69 328.02 C 559.07 318.66 558.17 309.32 558.12 299.96 C 558.18 298.26 557.82 295.96 560.04 295.53 C 561.54 296.45 561.86 298.21 562.10 299.81 C 563.74 312.31 563.70 324.95 563.58 337.53 C 568.73 325.95 572.18 313.72 574.39 301.27 C 574.77 301.25 575.53 301.22 575.90 301.20 C 577.19 305.52 576.31 310.07 575.58 314.41 C 574.07 322.18 572.70 330.10 569.25 337.30 C 567.37 341.49 564.43 345.32 563.84 349.98 C 563.82 358.00 561.13 366.09 563.63 373.99 C 565.84 382.89 572.19 389.93 578.69 396.07 C 579.19 388.02 580.46 380.04 581.04 371.99 C 581.49 366.46 580.75 360.92 580.91 355.39 C 585.24 357.03 584.98 362.24 585.47 366.05 C 586.91 380.03 581.79 393.96 584.61 407.86 C 600.08 408.86 616.90 405.46 628.49 394.53 C 631.41 391.75 634.62 389.06 636.51 385.43 C 637.74 382.94 635.94 380.39 634.76 378.28 C 628.06 368.15 621.48 357.89 616.20 346.94 C 612.58 339.71 608.17 332.92 604.09 325.96 C 598.24 315.98 593.72 305.21 591.04 293.95 C 588.71 284.08 583.84 275.07 578.41 266.60 C 576.60 263.78 574.39 261.19 571.61 259.29 C 555.42 248.06 535.51 241.96 522.08 226.95 C 517.48 221.70 512.16 217.15 506.48 213.10 C 505.61 223.06 503.34 232.98 498.97 242.01 C 494.58 251.24 488.20 260.28 478.61 264.60 C 470.96 268.21 461.58 267.06 454.71 262.26 C 445.56 256.04 440.33 245.61 437.48 235.21 C 432.25 232.30 428.78 227.34 425.66 222.41 C 421.93 217.02 417.82 211.89 413.72 206.79 C 400.96 211.75 388.11 216.46 375.30 221.28 M 274.11 323.03 C 269.94 329.12 262.86 332.80 259.69 339.65 C 255.74 347.21 256.88 356.14 253.85 363.97 C 250.83 371.46 242.02 374.49 239.00 381.95 C 237.44 387.47 237.26 393.31 237.57 399.01 C 238.33 406.15 242.25 413.49 249.23 416.23 C 249.77 414.72 251.14 413.20 250.27 411.54 C 247.69 403.14 246.16 394.17 247.25 385.41 C 247.71 385.31 248.63 385.10 249.09 385.00 C 252.19 393.45 252.78 402.67 255.82 411.16 C 257.36 415.45 260.71 418.99 265.13 420.33 C 266.12 419.25 264.78 417.83 264.71 416.64 C 262.60 407.16 259.55 397.69 260.03 387.86 C 260.02 386.24 261.40 385.11 262.12 383.81 C 262.99 385.77 263.55 387.85 263.90 389.97 C 265.17 397.41 268.02 404.46 269.56 411.84 C 270.75 417.42 272.20 423.08 275.39 427.89 C 275.97 423.20 275.79 418.37 273.92 413.97 C 271.38 404.37 267.52 394.09 271.00 384.20 C 274.04 386.31 272.66 390.45 273.69 393.53 C 275.54 400.96 277.37 408.42 279.67 415.72 C 280.99 404.61 279.09 393.13 281.97 382.24 C 285.78 385.70 284.32 391.42 285.48 395.97 C 286.25 392.75 287.45 389.36 286.54 386.04 C 284.84 381.22 278.63 379.28 277.81 374.05 C 278.23 369.64 281.64 366.40 284.15 363.03 C 288.66 357.73 291.59 351.30 293.48 344.65 C 294.57 341.13 293.30 337.46 293.82 333.88 C 296.32 332.26 297.38 335.13 298.65 336.75 C 301.52 333.97 304.56 331.39 307.59 328.79 C 300.83 321.61 292.74 315.79 283.87 311.51 C 280.43 315.19 277.00 318.89 274.11 323.03 M 601.28 412.47 C 605.58 424.09 610.37 435.51 614.99 447.00 C 621.20 461.12 627.85 475.05 633.56 489.38 C 636.53 496.66 635.50 504.78 632.97 512.02 C 629.70 522.04 627.67 532.44 626.72 542.93 C 626.17 548.60 625.49 554.33 626.42 560.00 C 627.93 559.07 629.93 558.62 630.96 557.04 C 633.89 552.14 635.07 546.49 636.97 541.17 C 637.34 541.48 638.08 542.10 638.45 542.41 C 639.09 546.71 638.29 551.21 637.17 555.39 C 635.83 560.24 631.11 563.79 626.09 563.81 C 621.17 563.84 615.94 563.58 611.59 566.28 C 618.76 566.78 625.92 567.41 633.07 568.23 C 636.90 568.85 639.99 565.86 642.21 563.14 C 646.51 556.89 646.91 549.06 648.98 541.99 C 649.41 542.05 650.27 542.19 650.70 542.25 C 651.60 549.82 650.86 557.81 647.18 564.61 C 650.30 561.55 653.40 558.33 655.24 554.30 C 658.89 547.50 658.48 539.53 658.57 532.05 C 657.95 512.89 654.95 493.92 652.08 475.00 C 649.94 461.62 646.45 448.51 643.72 435.25 C 640.99 422.16 637.09 409.32 635.04 396.10 C 626.26 405.45 613.94 411.03 601.28 412.47 M 533.09 552.98 C 523.23 555.32 513.11 556.47 503.34 559.22 C 492.81 562.40 482.34 565.78 471.76 568.79 C 453.18 574.17 432.67 572.89 415.02 564.92 C 408.43 561.83 401.90 558.55 394.94 556.36 C 394.36 565.95 394.91 575.65 396.97 585.04 C 398.23 590.64 397.56 596.44 395.95 601.89 C 393.46 610.75 392.49 620.23 394.81 629.25 C 399.48 648.03 406.55 666.16 410.49 685.14 C 412.23 694.43 413.37 703.83 415.04 713.14 C 418.98 713.65 422.92 714.17 426.84 714.81 C 428.26 706.24 430.44 697.63 429.76 688.86 C 429.66 685.47 424.20 685.57 424.04 682.18 C 424.21 674.99 426.24 668.02 427.38 660.96 C 429.26 650.12 432.82 639.65 434.94 628.89 C 434.54 621.02 429.73 614.08 424.44 608.56 C 421.32 605.05 416.51 603.95 413.06 600.87 C 416.62 600.38 420.41 600.62 423.58 602.47 C 429.92 606.11 434.28 612.25 437.77 618.52 C 438.56 614.04 439.93 609.56 439.55 604.97 C 438.42 597.92 433.52 592.29 431.54 585.56 C 434.89 585.90 436.80 588.94 438.63 591.40 C 441.97 596.57 445.00 602.62 444.04 608.97 C 442.66 619.17 440.13 629.17 437.60 639.13 C 445.37 624.97 456.69 613.32 468.03 602.00 C 469.70 600.22 472.03 599.39 474.37 598.91 C 473.64 600.84 472.75 602.76 471.35 604.31 C 459.67 617.78 446.58 630.47 438.56 646.62 C 435.88 652.19 432.88 657.77 431.90 663.96 C 430.86 669.57 429.86 675.19 429.03 680.84 C 438.66 679.06 448.13 675.75 458.02 675.86 C 472.95 676.62 486.66 683.16 500.20 688.88 C 511.64 693.77 524.11 695.72 536.50 695.79 C 536.43 683.93 538.76 672.27 540.36 660.58 C 541.90 649.92 544.02 639.36 546.57 628.90 C 549.07 618.48 554.16 608.97 557.58 598.87 C 561.08 588.42 560.93 577.28 561.63 566.42 C 562.09 559.25 561.61 552.08 561.67 544.92 C 552.74 549.41 542.72 550.72 533.09 552.98 M 434.54 684.75 C 436.17 694.17 433.94 703.62 432.26 712.86 C 432.39 721.51 434.15 730.18 437.57 738.14 C 440.84 746.88 446.12 754.68 449.52 763.37 C 453.61 760.84 458.11 758.96 462.87 758.20 C 473.66 756.32 485.25 756.84 495.20 761.78 C 492.81 750.84 488.64 740.29 487.48 729.09 C 486.81 721.10 487.49 713.06 488.58 705.14 C 489.22 700.42 490.70 695.83 492.88 691.60 C 482.29 687.19 471.53 682.52 459.97 681.54 C 451.35 680.84 442.99 683.54 434.54 684.75 M 420.41 718.32 C 420.75 726.50 422.78 734.53 425.80 742.12 C 429.39 751.12 435.10 759.68 443.82 764.38 C 442.55 761.32 441.15 758.32 439.62 755.39 C 433.53 743.92 428.21 731.56 427.75 718.39 C 425.30 718.41 422.85 718.37 420.41 718.32 M 495.79 743.75 C 497.22 749.16 498.75 754.54 499.92 760.02 C 503.45 777.48 507.00 795.17 505.85 813.08 C 509.78 817.28 514.27 820.90 519.03 824.11 C 531.28 832.25 543.27 840.82 554.25 850.63 C 564.15 859.60 574.64 868.10 583.06 878.54 C 584.14 875.45 585.48 872.30 588.10 870.19 C 590.90 867.47 594.72 866.44 598.14 864.78 C 598.62 862.88 598.42 860.91 598.31 859.00 C 597.54 850.67 596.62 842.02 592.39 834.63 C 587.67 825.93 579.04 820.58 572.01 813.98 C 563.97 807.02 556.74 799.21 549.66 791.31 C 542.95 783.38 536.84 774.93 529.54 767.52 C 519.86 757.68 508.76 748.80 495.79 743.75 M 450.82 767.05 C 452.17 775.95 452.29 785.01 451.93 794.00 C 450.03 821.59 448.21 849.35 450.81 876.96 C 452.17 889.77 454.18 902.53 456.87 915.12 C 461.61 915.68 466.50 916.60 470.42 919.53 C 475.40 922.60 479.24 927.68 485.04 929.26 C 487.91 929.70 492.73 929.80 493.12 925.97 C 493.69 922.35 492.83 918.72 492.69 915.10 C 492.30 905.42 491.95 895.70 492.92 886.03 C 493.74 875.01 495.92 864.17 497.28 853.22 C 499.62 836.24 501.50 819.13 501.12 801.98 C 500.94 790.71 498.49 779.67 496.52 768.63 C 493.30 766.55 489.88 764.67 486.09 763.91 C 474.39 761.32 461.85 762.32 450.82 767.05 M 581.20 815.28 C 586.12 819.87 591.44 824.19 595.10 829.92 C 600.41 837.88 601.85 847.62 602.86 856.94 C 603.01 860.46 603.73 864.54 601.49 867.58 C 598.92 869.96 595.21 870.43 592.37 872.41 C 587.86 875.12 586.32 880.97 586.81 885.89 C 594.51 903.97 601.89 922.48 613.43 938.55 C 617.22 943.86 622.94 949.03 629.96 948.29 C 634.84 947.59 637.42 942.59 638.20 938.19 C 640.03 928.27 640.14 918.02 638.51 908.07 C 637.06 897.19 635.46 886.34 633.66 875.52 C 631.57 863.89 627.31 852.82 624.37 841.41 C 622.49 835.11 621.18 828.67 619.48 822.34 C 618.15 817.21 613.42 814.02 608.72 812.28 C 599.82 808.51 589.18 810.00 581.20 815.28 M 457.49 919.95 C 451.61 930.55 442.36 939.09 431.67 944.72 C 423.45 948.90 414.16 950.12 405.71 953.68 C 400.68 955.58 396.72 960.48 397.03 966.02 C 397.05 970.03 401.65 971.35 404.88 971.87 C 415.52 973.35 426.20 975.26 436.99 974.74 C 445.97 974.31 454.95 974.35 463.93 974.43 C 474.31 974.25 485.00 974.31 494.91 970.81 C 498.60 969.33 502.94 967.09 503.65 962.76 C 505.74 951.88 501.40 941.19 496.22 931.85 C 492.02 934.15 486.98 935.09 482.38 933.45 C 476.22 931.17 471.80 926.05 466.31 922.67 C 463.67 920.98 460.50 920.53 457.49 919.95 Z" />
        <path fill="#020202" opacity="1.00"
            d=" M 451.05 154.00 C 455.38 153.42 459.70 152.41 464.09 152.53 C 465.57 156.05 465.98 159.88 466.54 163.62 C 458.26 165.94 449.57 166.21 441.12 167.70 C 437.69 167.89 434.08 169.35 430.73 168.31 C 429.91 164.76 429.62 161.01 430.22 157.41 C 437.04 155.65 444.12 155.24 451.05 154.00 Z" />
        <path fill="#020202" opacity="1.00"
            d=" M 430.92 186.16 C 432.94 184.50 435.02 182.86 437.52 181.96 C 436.90 185.63 434.61 188.65 432.27 191.42 C 431.04 193.24 428.68 192.15 426.94 192.03 C 424.98 191.53 422.71 191.23 421.25 189.71 C 420.46 187.91 421.15 185.86 421.16 183.97 C 424.56 183.91 427.81 184.91 430.92 186.16 Z" />
        <path fill="#020202" opacity="1.00"
            d=" M 391.50 245.55 C 392.96 246.29 394.84 246.64 395.76 248.15 C 399.71 254.06 401.58 261.06 403.08 267.94 C 404.87 276.23 408.28 284.11 412.56 291.42 C 419.42 302.89 429.68 311.68 437.99 322.02 C 442.98 328.15 448.52 334.67 449.22 342.91 C 445.70 341.48 444.12 337.90 441.97 335.06 C 429.48 319.25 412.84 306.48 403.97 288.00 C 399.52 279.56 397.11 270.25 395.53 260.89 C 394.83 255.60 392.15 250.84 391.50 245.55 Z" />
        <path fill="#020202" opacity="1.00"
            d=" M 529.51 381.47 C 529.81 379.67 532.23 381.76 531.75 382.90 C 531.39 394.72 528.31 406.31 524.60 417.50 C 518.58 435.95 511.66 454.46 500.39 470.42 C 493.92 479.79 485.67 487.95 475.99 493.98 C 463.11 502.29 448.99 508.41 434.74 513.92 C 433.34 514.22 430.39 515.51 430.34 512.97 C 432.69 510.53 435.96 509.37 438.94 507.92 C 455.64 500.04 472.93 492.36 486.61 479.63 C 499.20 467.53 506.92 451.50 513.55 435.60 C 518.01 423.54 522.61 411.47 525.58 398.93 C 527.15 393.18 527.28 387.02 529.51 381.47 Z" />
        <path fill="#020202" opacity="1.00"
            d=" M 520.69 441.67 C 521.73 439.43 523.07 437.24 525.43 436.18 C 525.54 439.05 524.80 441.85 523.52 444.41 C 516.25 459.54 508.56 474.73 497.45 487.47 C 494.02 491.24 491.43 496.07 486.71 498.42 C 489.08 493.16 493.03 488.88 496.09 484.04 C 505.55 470.69 513.29 456.24 520.69 441.67 Z" />
        <path fill="#020202" opacity="1.00"
            d=" M 533.64 610.57 C 536.62 607.06 538.98 602.79 543.18 600.57 C 542.06 605.87 538.80 610.31 535.74 614.65 C 531.50 620.36 527.11 626.02 521.85 630.82 C 517.27 635.04 511.71 637.97 506.91 641.90 C 502.31 645.59 498.25 649.90 494.37 654.32 C 492.82 655.89 491.20 658.18 488.67 657.28 C 488.59 655.70 489.03 654.19 489.91 652.91 C 493.74 646.93 498.55 641.58 504.16 637.21 C 509.18 633.13 515.09 630.26 519.85 625.85 C 524.92 621.20 529.26 615.84 533.64 610.57 Z" />
    </g>
    <g id="#f0b58bff">
        <path fill="#f0b58b" opacity="1.00"
            d=" M 448.11 124.47 C 451.52 128.62 456.40 124.53 459.99 122.76 C 462.29 129.52 466.89 135.11 471.45 140.47 C 473.45 142.74 474.13 145.78 475.87 148.21 C 479.04 148.14 478.72 144.30 479.49 142.15 C 482.25 147.45 488.15 151.53 487.94 158.02 C 487.89 162.46 482.99 166.29 484.82 170.68 C 491.71 165.27 498.19 158.57 501.14 150.13 C 502.49 146.69 504.11 142.46 508.10 141.46 C 511.27 140.31 514.38 143.10 514.80 146.16 C 516.30 153.68 512.13 160.93 507.14 166.21 C 505.08 168.50 501.91 168.74 499.10 169.37 C 495.35 173.99 494.40 180.25 494.02 186.02 C 493.65 195.42 494.72 205.68 500.97 213.19 C 498.87 227.82 495.00 243.43 484.05 254.08 C 478.60 259.62 470.04 262.76 462.54 259.71 C 452.40 255.53 446.29 245.62 441.65 236.19 C 453.74 235.75 465.06 229.92 473.71 221.71 C 479.51 215.36 484.84 207.28 484.20 198.33 C 480.27 201.99 478.98 207.47 475.72 211.64 C 470.64 220.00 462.10 225.53 453.15 229.02 C 449.27 230.14 445.17 231.20 441.11 230.62 C 436.54 229.49 434.02 225.05 431.51 221.46 C 427.92 215.66 423.36 210.54 419.70 204.79 C 421.12 205.96 422.39 207.32 423.90 208.39 C 431.50 207.25 439.15 205.74 446.49 203.43 C 447.96 201.74 451.69 198.10 448.08 196.71 C 443.59 196.84 439.24 198.13 434.84 198.90 C 429.22 200.19 423.30 200.75 418.16 203.55 C 410.34 195.03 407.30 183.54 405.47 172.42 C 409.92 171.90 414.37 171.43 418.82 170.85 C 419.08 174.96 419.43 179.12 421.02 182.97 C 423.52 180.23 422.66 176.35 422.64 172.99 C 422.23 168.55 422.55 163.98 421.38 159.64 C 421.08 159.44 420.47 159.05 420.17 158.86 C 414.42 158.91 408.73 159.90 403.03 160.56 C 401.38 152.29 398.09 144.25 398.01 135.73 C 406.33 137.63 415.69 136.85 422.43 131.17 C 424.54 131.94 426.76 132.57 429.02 132.02 C 435.81 130.85 442.18 127.89 448.11 124.47 M 451.05 154.00 C 444.12 155.24 437.04 155.65 430.22 157.41 C 429.62 161.01 429.91 164.76 430.73 168.31 C 434.08 169.35 437.69 167.89 441.12 167.70 C 449.57 166.21 458.26 165.94 466.54 163.62 C 465.98 159.88 465.57 156.05 464.09 152.53 C 459.70 152.41 455.38 153.42 451.05 154.00 M 430.92 186.16 C 427.81 184.91 424.56 183.91 421.16 183.97 C 421.15 185.86 420.46 187.91 421.25 189.71 C 422.71 191.23 424.98 191.53 426.94 192.03 C 428.68 192.15 431.04 193.24 432.27 191.42 C 434.61 188.65 436.90 185.63 437.52 181.96 C 435.02 182.86 432.94 184.50 430.92 186.16 Z" />
        <path fill="#f0b58b" opacity="1.00"
            d=" M 274.11 323.03 C 277.00 318.89 280.43 315.19 283.87 311.51 C 292.74 315.79 300.83 321.61 307.59 328.79 C 304.56 331.39 301.52 333.97 298.65 336.75 C 297.38 335.13 296.32 332.26 293.82 333.88 C 293.30 337.46 294.57 341.13 293.48 344.65 C 291.59 351.30 288.66 357.73 284.15 363.03 C 281.64 366.40 278.23 369.64 277.81 374.05 C 278.63 379.28 284.84 381.22 286.54 386.04 C 287.45 389.36 286.25 392.75 285.48 395.97 C 284.32 391.42 285.78 385.70 281.97 382.24 C 279.09 393.13 280.99 404.61 279.67 415.72 C 277.37 408.42 275.54 400.96 273.69 393.53 C 272.66 390.45 274.04 386.31 271.00 384.20 C 267.52 394.09 271.38 404.37 273.92 413.97 C 275.79 418.37 275.97 423.20 275.39 427.89 C 272.20 423.08 270.75 417.42 269.56 411.84 C 268.02 404.46 265.17 397.41 263.90 389.97 C 263.55 387.85 262.99 385.77 262.12 383.81 C 261.40 385.11 260.02 386.24 260.03 387.86 C 259.55 397.69 262.60 407.16 264.71 416.64 C 264.78 417.83 266.12 419.25 265.13 420.33 C 260.71 418.99 257.36 415.45 255.82 411.16 C 252.78 402.67 252.19 393.45 249.09 385.00 C 248.63 385.10 247.71 385.31 247.25 385.41 C 246.16 394.17 247.69 403.14 250.27 411.54 C 251.14 413.20 249.77 414.72 249.23 416.23 C 242.25 413.49 238.33 406.15 237.57 399.01 C 237.26 393.31 237.44 387.47 239.00 381.95 C 242.02 374.49 250.83 371.46 253.85 363.97 C 256.88 356.14 255.74 347.21 259.69 339.65 C 262.86 332.80 269.94 329.12 274.11 323.03 Z" />
        <path fill="#f0b58b" opacity="1.00"
            d=" M 601.28 412.47 C 613.94 411.03 626.26 405.45 635.04 396.10 C 637.09 409.32 640.99 422.16 643.72 435.25 C 646.45 448.51 649.94 461.62 652.08 475.00 C 654.95 493.92 657.95 512.89 658.57 532.05 C 658.48 539.53 658.89 547.50 655.24 554.30 C 653.40 558.33 650.30 561.55 647.18 564.61 C 650.86 557.81 651.60 549.82 650.70 542.25 C 650.27 542.19 649.41 542.05 648.98 541.99 C 646.91 549.06 646.51 556.89 642.21 563.14 C 639.99 565.86 636.90 568.85 633.07 568.23 C 625.92 567.41 618.76 566.78 611.59 566.28 C 615.94 563.58 621.17 563.84 626.09 563.81 C 631.11 563.79 635.83 560.24 637.17 555.39 C 638.29 551.21 639.09 546.71 638.45 542.41 C 638.08 542.10 637.34 541.48 636.97 541.17 C 635.07 546.49 633.89 552.14 630.96 557.04 C 629.93 558.62 627.93 559.07 626.42 560.00 C 625.49 554.33 626.17 548.60 626.72 542.93 C 627.67 532.44 629.70 522.04 632.97 512.02 C 635.50 504.78 636.53 496.66 633.56 489.38 C 627.85 475.05 621.20 461.12 614.99 447.00 C 610.37 435.51 605.58 424.09 601.28 412.47 Z" />
        <path fill="#f0b58b" opacity="1.00"
            d=" M 434.54 684.75 C 442.99 683.54 451.35 680.84 459.97 681.54 C 471.53 682.52 482.29 687.19 492.88 691.60 C 490.70 695.83 489.22 700.42 488.58 705.14 C 487.49 713.06 486.81 721.10 487.48 729.09 C 488.64 740.29 492.81 750.84 495.20 761.78 C 485.25 756.84 473.66 756.32 462.87 758.20 C 458.11 758.96 453.61 760.84 449.52 763.37 C 446.12 754.68 440.84 746.88 437.57 738.14 C 434.15 730.18 432.39 721.51 432.26 712.86 C 433.94 703.62 436.17 694.17 434.54 684.75 Z" />
        <path fill="#f0b58b" opacity="1.00"
            d=" M 420.41 718.32 C 422.85 718.37 425.30 718.41 427.75 718.39 C 428.21 731.56 433.53 743.92 439.62 755.39 C 441.15 758.32 442.55 761.32 443.82 764.38 C 435.10 759.68 429.39 751.12 425.80 742.12 C 422.78 734.53 420.75 726.50 420.41 718.32 Z" />
    </g>
    <g id="#f11b27ff">
        <path fill="var(--shirt-color, grey)" opacity="1.00"
            d=" M 375.30 221.28 C 388.11 216.46 400.96 211.75 413.72 206.79 C 417.82 211.89 421.93 217.02 425.66 222.41 C 428.78 227.34 432.25 232.30 437.48 235.21 C 440.33 245.61 445.56 256.04 454.71 262.26 C 461.58 267.06 470.96 268.21 478.61 264.60 C 488.20 260.28 494.58 251.24 498.97 242.01 C 503.34 232.98 505.61 223.06 506.48 213.10 C 512.16 217.15 517.48 221.70 522.08 226.95 C 535.51 241.96 555.42 248.06 571.61 259.29 C 574.39 261.19 576.60 263.78 578.41 266.60 C 583.84 275.07 588.71 284.08 591.04 293.95 C 593.72 305.21 598.24 315.98 604.09 325.96 C 608.17 332.92 612.58 339.71 616.20 346.94 C 621.48 357.89 628.06 368.15 634.76 378.28 C 635.94 380.39 637.74 382.94 636.51 385.43 C 634.62 389.06 631.41 391.75 628.49 394.53 C 616.90 405.46 600.08 408.86 584.61 407.86 C 581.79 393.96 586.91 380.03 585.47 366.05 C 584.98 362.24 585.24 357.03 580.91 355.39 C 580.75 360.92 581.49 366.46 581.04 371.99 C 580.46 380.04 579.19 388.02 578.69 396.07 C 572.19 389.93 565.84 382.89 563.63 373.99 C 561.13 366.09 563.82 358.00 563.84 349.98 C 564.43 345.32 567.37 341.49 569.25 337.30 C 572.70 330.10 574.07 322.18 575.58 314.41 C 576.31 310.07 577.19 305.52 575.90 301.20 C 575.53 301.22 574.77 301.25 574.39 301.27 C 572.18 313.72 568.73 325.95 563.58 337.53 C 563.70 324.95 563.74 312.31 562.10 299.81 C 561.86 298.21 561.54 296.45 560.04 295.53 C 557.82 295.96 558.18 298.26 558.12 299.96 C 558.17 309.32 559.07 318.66 558.69 328.02 C 558.30 337.36 558.43 346.70 558.15 356.04 C 558.09 361.77 555.04 366.81 552.91 371.96 C 549.16 380.16 545.96 388.85 545.86 397.98 C 545.53 411.70 546.12 425.74 550.30 438.91 C 555.77 453.12 560.79 467.77 561.99 483.06 C 563.23 492.36 558.65 501.65 551.88 507.83 C 539.81 518.94 524.63 525.78 509.50 531.64 C 506.66 532.81 503.54 533.69 501.33 535.95 C 500.79 539.18 504.10 538.17 506.08 537.83 C 520.38 534.45 534.00 528.35 546.22 520.19 C 551.51 516.68 556.28 512.40 560.28 507.46 C 562.56 515.53 567.70 523.27 566.34 531.98 C 564.04 537.29 558.59 540.51 553.36 542.44 C 533.61 548.65 512.60 549.85 493.06 556.84 C 476.04 562.09 458.60 568.81 440.46 566.35 C 424.47 565.00 410.37 556.89 395.62 551.40 C 393.45 550.37 390.76 549.48 389.77 547.07 C 390.94 536.68 394.72 526.58 394.36 516.00 C 394.41 507.10 391.31 498.66 388.81 490.25 C 385.11 478.47 381.77 466.40 381.19 454.00 C 381.03 445.25 383.01 436.65 383.51 427.94 C 388.35 442.35 395.82 456.51 407.98 466.05 C 414.74 471.22 424.33 474.47 432.40 470.38 C 434.57 469.63 435.40 467.43 436.00 465.43 C 431.40 466.21 426.76 468.46 422.04 467.11 C 413.08 465.03 406.53 457.90 401.18 450.86 C 391.91 438.03 387.10 422.53 384.40 407.08 C 380.58 387.81 373.72 368.88 374.17 349.00 C 373.85 340.24 376.92 331.65 375.54 322.90 C 372.96 305.98 366.31 289.90 364.61 272.81 C 364.04 270.52 364.58 267.21 361.86 266.24 C 359.58 271.30 360.00 277.13 360.74 282.50 C 363.08 295.79 367.49 308.62 369.91 321.89 C 370.93 327.14 370.42 332.50 369.76 337.76 C 354.52 337.31 339.36 342.99 327.89 352.97 C 322.06 333.22 307.09 316.78 288.61 307.98 C 295.75 300.99 303.09 294.21 310.55 287.56 C 316.48 281.80 322.59 276.06 326.84 268.88 C 330.39 269.59 334.26 270.36 336.80 273.18 C 340.99 277.16 343.18 282.57 345.39 287.77 C 346.34 289.52 347.81 288.79 348.26 287.13 C 349.40 276.18 340.24 265.62 329.32 264.92 C 331.19 261.93 332.96 258.87 335.17 256.11 C 338.38 252.05 342.52 248.87 345.84 244.92 C 349.61 240.58 351.45 234.74 356.06 231.10 C 361.74 226.57 368.67 224.06 375.30 221.28 M 391.50 245.55 C 392.15 250.84 394.83 255.60 395.53 260.89 C 397.11 270.25 399.52 279.56 403.97 288.00 C 412.84 306.48 429.48 319.25 441.97 335.06 C 444.12 337.90 445.70 341.48 449.22 342.91 C 448.52 334.67 442.98 328.15 437.99 322.02 C 429.68 311.68 419.42 302.89 412.56 291.42 C 408.28 284.11 404.87 276.23 403.08 267.94 C 401.58 261.06 399.71 254.06 395.76 248.15 C 394.84 246.64 392.96 246.29 391.50 245.55 M 529.51 381.47 C 527.28 387.02 527.15 393.18 525.58 398.93 C 522.61 411.47 518.01 423.54 513.55 435.60 C 506.92 451.50 499.20 467.53 486.61 479.63 C 472.93 492.36 455.64 500.04 438.94 507.92 C 435.96 509.37 432.69 510.53 430.34 512.97 C 430.39 515.51 433.34 514.22 434.74 513.92 C 448.99 508.41 463.11 502.29 475.99 493.98 C 485.67 487.95 493.92 479.79 500.39 470.42 C 511.66 454.46 518.58 435.95 524.60 417.50 C 528.31 406.31 531.39 394.72 531.75 382.90 C 532.23 381.76 529.81 379.67 529.51 381.47 M 520.69 441.67 C 513.29 456.24 505.55 470.69 496.09 484.04 C 493.03 488.88 489.08 493.16 486.71 498.42 C 491.43 496.07 494.02 491.24 497.45 487.47 C 508.56 474.73 516.25 459.54 523.52 444.41 C 524.80 441.85 525.54 439.05 525.43 436.18 C 523.07 437.24 521.73 439.43 520.69 441.67 Z" />
    </g>
    <g id="#2b3dcdff">
        <path fill="var(--pants-color, grey)" opacity="1.00"
            d=" M 533.09 552.98 C 542.72 550.72 552.74 549.41 561.67 544.92 C 561.61 552.08 562.09 559.25 561.63 566.42 C 560.93 577.28 561.08 588.42 557.58 598.87 C 554.16 608.97 549.07 618.48 546.57 628.90 C 544.02 639.36 541.90 649.92 540.36 660.58 C 538.76 672.27 536.43 683.93 536.50 695.79 C 524.11 695.72 511.64 693.77 500.20 688.88 C 486.66 683.16 472.95 676.62 458.02 675.86 C 448.13 675.75 438.66 679.06 429.03 680.84 C 429.86 675.19 430.86 669.57 431.90 663.96 C 432.88 657.77 435.88 652.19 438.56 646.62 C 446.58 630.47 459.67 617.78 471.35 604.31 C 472.75 602.76 473.64 600.84 474.37 598.91 C 472.03 599.39 469.70 600.22 468.03 602.00 C 456.69 613.32 445.37 624.97 437.60 639.13 C 440.13 629.17 442.66 619.17 444.04 608.97 C 445.00 602.62 441.97 596.57 438.63 591.40 C 436.80 588.94 434.89 585.90 431.54 585.56 C 433.52 592.29 438.42 597.92 439.55 604.97 C 439.93 609.56 438.56 614.04 437.77 618.52 C 434.28 612.25 429.92 606.11 423.58 602.47 C 420.41 600.62 416.62 600.38 413.06 600.87 C 416.51 603.95 421.32 605.05 424.44 608.56 C 429.73 614.08 434.54 621.02 434.94 628.89 C 432.82 639.65 429.26 650.12 427.38 660.96 C 426.24 668.02 424.21 674.99 424.04 682.18 C 424.20 685.57 429.66 685.47 429.76 688.86 C 430.44 697.63 428.26 706.24 426.84 714.81 C 422.92 714.17 418.98 713.65 415.04 713.14 C 413.37 703.83 412.23 694.43 410.49 685.14 C 406.55 666.16 399.48 648.03 394.81 629.25 C 392.49 620.23 393.46 610.75 395.95 601.89 C 397.56 596.44 398.23 590.64 396.97 585.04 C 394.91 575.65 394.36 565.95 394.94 556.36 C 401.90 558.55 408.43 561.83 415.02 564.92 C 432.67 572.89 453.18 574.17 471.76 568.79 C 482.34 565.78 492.81 562.40 503.34 559.22 C 513.11 556.47 523.23 555.32 533.09 552.98 M 533.64 610.57 C 529.26 615.84 524.92 621.20 519.85 625.85 C 515.09 630.26 509.18 633.13 504.16 637.21 C 498.55 641.58 493.74 646.93 489.91 652.91 C 489.03 654.19 488.59 655.70 488.67 657.28 C 491.20 658.18 492.82 655.89 494.37 654.32 C 498.25 649.90 502.31 645.59 506.91 641.90 C 511.71 637.97 517.27 635.04 521.85 630.82 C 527.11 626.02 531.50 620.36 535.74 614.65 C 538.80 610.31 542.06 605.87 543.18 600.57 C 538.98 602.79 536.62 607.06 533.64 610.57 Z" />
        <path fill="var(--socks-color, grey)" opacity="1.00"
            d=" M 495.79 743.75 C 508.76 748.80 519.86 757.68 529.54 767.52 C 536.84 774.93 542.95 783.38 549.66 791.31 C 556.74 799.21 563.97 807.02 572.01 813.98 C 579.04 820.58 587.67 825.93 592.39 834.63 C 596.62 842.02 597.54 850.67 598.31 859.00 C 598.42 860.91 598.62 862.88 598.14 864.78 C 594.72 866.44 590.90 867.47 588.10 870.19 C 585.48 872.30 584.14 875.45 583.06 878.54 C 574.64 868.10 564.15 859.60 554.25 850.63 C 543.27 840.82 531.28 832.25 519.03 824.11 C 514.27 820.90 509.78 817.28 505.85 813.08 C 507.00 795.17 503.45 777.48 499.92 760.02 C 498.75 754.54 497.22 749.16 495.79 743.75 Z" />
        <path fill="var(--socks-color, grey)" opacity="1.00"
            d=" M 450.82 767.05 C 461.85 762.32 474.39 761.32 486.09 763.91 C 489.88 764.67 493.30 766.55 496.52 768.63 C 498.49 779.67 500.94 790.71 501.12 801.98 C 501.50 819.13 499.62 836.24 497.28 853.22 C 495.92 864.17 493.74 875.01 492.92 886.03 C 491.95 895.70 492.30 905.42 492.69 915.10 C 492.83 918.72 493.69 922.35 493.12 925.97 C 492.73 929.80 487.91 929.70 485.04 929.26 C 479.24 927.68 475.40 922.60 470.42 919.53 C 466.50 916.60 461.61 915.68 456.87 915.12 C 454.18 902.53 452.17 889.77 450.81 876.96 C 448.21 849.35 450.03 821.59 451.93 794.00 C 452.29 785.01 452.17 775.95 450.82 767.05 Z" />
    </g>
    <g id="#4d4d4dff">
        <path fill="#4d4d4d" opacity="1.00"
            d=" M 581.20 815.28 C 589.18 810.00 599.82 808.51 608.72 812.28 C 613.42 814.02 618.15 817.21 619.48 822.34 C 621.18 828.67 622.49 835.11 624.37 841.41 C 627.31 852.82 631.57 863.89 633.66 875.52 C 635.46 886.34 637.06 897.19 638.51 908.07 C 640.14 918.02 640.03 928.27 638.20 938.19 C 637.42 942.59 634.84 947.59 629.96 948.29 C 622.94 949.03 617.22 943.86 613.43 938.55 C 601.89 922.48 594.51 903.97 586.81 885.89 C 586.32 880.97 587.86 875.12 592.37 872.41 C 595.21 870.43 598.92 869.96 601.49 867.58 C 603.73 864.54 603.01 860.46 602.86 856.94 C 601.85 847.62 600.41 837.88 595.10 829.92 C 591.44 824.19 586.12 819.87 581.20 815.28 Z" />
        <path fill="#4d4d4d" opacity="1.00"
            d=" M 457.49 919.95 C 460.50 920.53 463.67 920.98 466.31 922.67 C 471.80 926.05 476.22 931.17 482.38 933.45 C 486.98 935.09 492.02 934.15 496.22 931.85 C 501.40 941.19 505.74 951.88 503.65 962.76 C 502.94 967.09 498.60 969.33 494.91 970.81 C 485.00 974.31 474.31 974.25 463.93 974.43 C 454.95 974.35 445.97 974.31 436.99 974.74 C 426.20 975.26 415.52 973.35 404.88 971.87 C 401.65 971.35 397.05 970.03 397.03 966.02 C 396.72 960.48 400.68 955.58 405.71 953.68 C 414.16 950.12 423.45 948.90 431.67 944.72 C 442.36 939.09 451.61 930.55 457.49 919.95 Z" />
    </g>
</svg>