<?xml version="1.0" encoding="UTF-8" ?>
<!DOCTYPE svg PUBLIC "-//W3C//DTD SVG 1.1//EN" "http://www.w3.org/Graphics/SVG/1.1/DTD/svg11.dtd">
<svg width="1000pt" height="1000pt" viewBox="0 0 1000 1000" version="1.1" xmlns="http://www.w3.org/2000/svg">
    <g id="#020202ff">
        <path fill="#020202" opacity="1.00"
            d=" M 569.96 43.58 C 570.90 42.25 571.54 40.57 573.02 39.73 C 574.69 39.42 576.04 40.69 577.45 41.37 C 582.27 42.15 583.83 47.35 586.20 50.92 C 591.95 59.27 591.97 70.39 588.92 79.75 C 587.35 85.04 583.80 89.38 581.57 94.36 C 580.37 96.64 581.72 99.06 582.98 100.98 C 586.29 105.92 590.76 109.92 594.60 114.44 C 599.97 120.42 604.99 126.70 609.92 133.04 C 617.60 142.24 624.82 151.88 630.79 162.29 C 636.67 172.82 637.74 185.30 636.51 197.11 C 634.29 212.66 632.11 228.28 627.58 243.36 C 624.24 252.87 628.36 262.77 631.17 271.87 C 633.90 278.29 631.67 285.32 629.50 291.55 C 620.49 316.06 609.46 339.86 596.16 362.34 C 593.82 365.74 594.22 369.97 594.61 373.86 C 596.04 388.54 595.82 403.37 594.17 418.02 C 593.67 431.68 592.85 445.35 593.37 459.03 C 593.58 465.36 593.27 472.03 596.10 477.89 C 600.75 488.05 606.52 497.90 608.61 509.01 C 610.42 518.73 611.41 528.87 609.38 538.63 C 609.06 541.00 607.29 542.57 605.00 543.04 C 613.03 555.37 614.53 570.74 613.59 585.09 C 612.52 599.52 609.55 613.70 607.40 627.99 C 604.81 646.59 604.27 665.39 602.17 684.04 C 602.25 686.08 600.60 687.39 599.33 688.74 C 599.45 696.32 601.54 703.66 602.44 711.16 C 604.19 725.25 610.36 738.16 614.68 751.54 C 618.95 765.33 622.44 779.37 625.34 793.52 C 629.07 812.90 631.09 832.56 632.75 852.22 C 634.57 872.90 635.21 893.68 634.66 914.43 C 641.38 924.18 642.37 936.68 640.76 948.11 C 639.76 953.92 637.76 960.12 632.91 963.87 C 627.55 968.03 620.58 968.88 614.07 969.78 C 601.36 970.81 588.58 970.47 575.86 969.68 C 572.22 969.43 568.47 967.64 566.68 964.35 C 565.03 961.24 565.72 957.57 566.67 954.36 C 569.27 946.13 574.36 939.06 578.71 931.71 C 582.97 923.89 586.05 915.41 591.20 908.08 C 587.60 890.52 582.17 873.42 576.35 856.49 C 572.10 844.33 567.90 832.08 565.81 819.33 C 562.23 799.35 559.93 779.18 557.29 759.07 C 556.61 751.17 550.80 745.20 548.12 738.00 C 540.82 723.36 539.27 706.83 534.72 691.29 C 533.86 691.82 533.00 692.36 532.15 692.92 C 536.23 706.12 536.19 720.20 534.80 733.83 C 533.83 739.84 533.37 745.99 534.33 752.04 C 537.90 774.84 541.22 797.90 539.80 821.04 C 538.39 847.39 535.73 873.66 534.62 900.03 C 534.50 904.70 534.17 909.45 535.35 914.03 C 537.00 921.01 537.95 928.11 538.87 935.21 C 540.47 943.93 541.42 953.37 537.72 961.70 C 534.65 968.38 526.90 971.14 520.04 971.62 C 511.34 971.95 502.60 970.95 493.92 971.98 C 486.91 972.53 480.08 974.66 473.01 974.61 C 463.98 974.60 455.10 976.96 446.05 976.46 C 436.27 975.94 426.49 974.18 417.35 970.59 C 415.63 969.89 413.56 969.01 413.27 966.93 C 412.12 960.35 416.19 954.12 421.60 950.73 C 427.24 946.31 435.01 946.87 440.85 942.89 C 452.81 935.07 463.68 925.76 475.00 917.08 C 477.84 914.81 480.98 912.95 484.35 911.58 C 484.03 898.38 483.58 885.19 483.25 871.99 C 482.92 857.94 481.13 843.99 480.16 829.98 C 479.42 820.34 479.27 810.67 478.84 801.01 C 478.54 786.66 477.76 772.30 478.29 757.94 C 478.65 753.74 476.24 750.10 474.51 746.49 C 471.61 741.05 468.63 735.55 467.37 729.47 C 464.94 718.38 465.35 706.95 464.50 695.70 C 457.16 694.62 449.47 693.10 443.49 688.42 C 441.41 686.95 441.95 684.16 441.87 681.98 C 442.58 665.96 443.17 649.92 442.81 633.89 C 441.69 615.31 437.61 597.08 436.23 578.52 C 434.97 568.26 435.04 557.59 438.98 547.88 C 437.11 546.54 435.03 545.39 433.53 543.63 C 432.73 540.14 433.26 536.52 433.17 532.98 C 433.14 508.95 435.82 485.01 435.67 460.98 C 435.79 449.55 433.12 438.37 432.03 427.04 C 431.24 419.01 429.94 411.03 429.54 402.96 C 428.84 385.96 430.74 368.99 430.65 351.99 C 430.65 347.05 431.28 342.15 431.68 337.23 C 428.23 333.38 424.89 329.42 421.18 325.80 C 415.41 319.87 408.64 314.48 405.25 306.70 C 401.21 297.11 401.69 286.52 401.93 276.35 C 392.97 269.62 385.43 261.27 377.07 253.85 C 371.66 248.60 365.67 244.01 360.17 238.85 C 349.11 229.28 341.35 215.00 342.44 200.07 C 343.78 188.90 349.29 178.70 355.68 169.61 C 362.46 159.60 370.63 150.64 378.57 141.54 C 394.62 122.94 411.31 104.93 427.64 86.58 C 432.68 80.89 437.08 74.69 441.68 68.64 C 447.87 60.62 452.79 51.31 461.16 45.23 C 463.26 43.80 466.47 42.26 468.64 44.39 C 470.47 46.03 469.58 48.68 469.54 50.80 C 472.26 50.97 473.95 52.75 474.19 55.42 C 476.14 54.31 479.09 52.81 480.50 55.50 C 482.25 60.23 478.92 64.96 477.27 69.28 C 480.62 67.23 483.99 64.56 488.07 64.41 C 490.42 64.24 492.10 66.84 491.16 68.96 C 487.05 80.36 474.68 86.10 470.33 97.37 C 476.50 96.95 482.85 93.78 488.95 96.18 C 492.22 97.96 490.35 102.37 488.51 104.56 C 483.36 111.27 474.53 112.31 467.10 115.01 C 462.53 116.47 459.00 120.34 454.11 120.93 C 451.81 121.54 448.81 121.09 447.38 123.41 C 441.85 130.93 436.22 138.40 431.40 146.40 C 425.30 156.47 418.57 166.13 411.83 175.77 C 406.56 183.58 400.42 190.88 392.87 196.58 C 400.42 203.12 406.30 211.30 412.08 219.37 C 417.47 217.32 423.34 216.82 429.05 217.29 C 434.94 218.14 439.08 222.96 443.00 227.00 C 448.69 233.81 454.06 240.90 459.14 248.18 C 461.03 247.90 462.92 247.64 464.82 247.38 C 461.62 235.33 463.59 222.77 464.77 210.58 C 465.32 205.89 463.65 201.35 463.29 196.71 C 462.86 198.84 462.36 200.95 461.76 203.04 C 458.83 197.87 457.27 191.57 458.92 185.72 C 459.69 182.45 461.82 179.77 463.12 176.73 C 463.33 174.19 462.83 171.61 463.33 169.09 C 463.96 166.50 465.48 164.24 467.13 162.18 C 473.00 155.18 480.45 149.59 488.62 145.55 C 497.40 140.76 507.90 138.07 517.79 140.64 C 528.67 143.31 540.25 142.89 550.70 147.27 C 556.20 149.52 561.85 151.76 566.46 155.61 C 578.13 164.70 584.19 179.07 587.38 193.15 C 588.86 199.39 586.41 205.58 586.16 211.82 C 587.60 203.91 589.36 196.06 590.59 188.12 C 591.17 183.81 591.98 178.76 588.87 175.16 C 581.45 166.16 576.31 155.62 570.49 145.58 C 562.83 132.04 556.66 117.60 552.78 102.53 C 550.10 91.82 555.37 81.54 556.00 70.96 C 556.60 63.62 555.13 56.25 555.96 48.92 C 556.21 46.97 556.67 44.69 558.48 43.57 C 559.98 42.70 561.48 44.06 562.92 44.40 C 563.70 43.67 564.50 42.95 565.32 42.25 C 567.01 41.49 568.47 43.03 569.96 43.58 M 573.80 44.95 C 573.53 46.87 572.81 48.83 573.38 50.76 C 575.05 57.34 576.49 64.14 575.97 70.97 C 575.92 72.79 573.25 73.10 572.96 71.23 C 570.51 63.02 570.61 54.01 566.40 46.35 C 564.96 54.69 570.18 63.19 567.15 71.44 L 565.85 71.38 C 563.55 63.71 563.91 55.35 560.29 48.03 C 559.16 56.66 561.53 65.31 560.26 73.94 C 559.47 82.69 555.30 91.20 557.11 100.09 C 558.54 107.33 561.35 114.20 563.78 121.14 C 568.24 133.84 575.46 145.25 582.27 156.76 C 586.06 163.23 591.32 168.77 594.53 175.57 C 596.74 180.12 596.12 185.31 595.51 190.14 C 594.03 200.86 591.28 211.35 589.13 221.94 C 588.32 224.76 589.25 227.60 589.90 230.34 C 592.43 240.37 597.18 249.68 602.63 258.41 C 605.97 263.75 610.01 268.69 615.06 272.50 C 619.30 258.78 622.72 244.83 626.27 230.92 C 628.66 219.97 630.03 208.83 631.73 197.76 C 633.06 186.72 632.33 174.96 626.94 165.01 C 619.33 151.43 609.05 139.65 599.44 127.49 C 594.20 121.11 588.51 115.12 583.03 108.96 C 580.36 105.67 577.47 102.23 576.53 98.00 C 575.79 93.47 578.78 89.60 580.82 85.86 C 584.54 79.95 586.81 73.06 586.79 66.05 C 587.26 59.20 582.36 53.75 579.77 47.80 C 580.83 54.16 582.57 60.56 581.98 67.06 C 581.58 68.62 580.72 68.94 579.41 68.01 C 576.79 60.52 576.74 52.36 573.80 44.95 M 453.17 62.10 C 448.39 69.52 442.94 76.48 437.59 83.49 C 429.58 93.79 420.25 102.95 411.89 112.96 C 397.41 128.78 383.67 145.26 369.69 161.52 C 361.73 171.56 353.56 181.99 349.75 194.42 C 346.92 203.24 348.89 212.88 353.07 220.93 C 357.96 229.75 365.99 236.08 373.40 242.66 C 383.82 251.64 392.95 261.95 402.29 272.01 C 404.70 255.97 405.16 239.66 408.53 223.76 C 402.16 215.47 396.26 206.79 389.15 199.10 C 387.26 200.01 385.50 201.60 383.33 201.65 C 381.06 201.07 382.66 198.70 383.88 197.88 C 391.10 191.85 398.38 185.68 403.86 177.94 C 411.81 166.75 419.56 155.40 426.74 143.69 C 432.07 135.20 438.28 127.31 444.33 119.33 C 447.46 115.24 453.32 116.90 457.29 114.25 C 460.93 111.93 464.84 110.00 469.03 108.87 C 475.36 107.20 482.40 105.59 486.30 99.77 C 481.08 99.36 476.13 101.41 470.99 101.59 C 467.62 101.58 465.30 97.75 466.74 94.74 C 470.92 84.07 481.89 78.27 487.15 68.25 C 479.16 71.47 471.97 76.88 466.98 83.92 C 465.53 85.87 463.99 87.91 461.50 88.51 C 461.76 86.16 462.63 83.93 463.98 82.00 C 468.56 74.98 473.47 67.98 475.93 59.86 C 473.68 61.59 471.02 63.05 469.62 65.62 C 466.71 70.64 463.96 75.79 460.51 80.48 C 459.41 81.76 458.10 84.17 456.28 82.39 C 458.10 72.79 464.99 65.18 468.53 56.22 C 460.94 61.25 459.25 71.51 451.97 76.75 C 451.77 72.16 454.70 68.42 456.45 64.42 C 458.66 59.52 461.31 54.85 463.71 50.05 C 459.65 53.55 456.06 57.59 453.17 62.10 M 472.85 186.59 C 471.51 194.77 470.41 203.00 469.73 211.26 C 478.49 211.06 487.29 210.56 496.04 211.28 C 496.51 220.89 493.04 230.20 489.87 239.13 C 489.59 238.61 489.03 237.56 488.76 237.03 C 488.84 232.27 490.31 227.64 491.24 222.99 C 483.88 222.19 476.51 221.67 469.14 221.02 C 468.44 228.92 467.97 237.04 470.19 244.76 C 472.20 252.41 476.43 259.16 479.65 266.32 C 481.99 271.20 485.91 276.75 492.05 276.26 C 503.33 275.99 513.69 270.87 523.88 266.56 C 528.51 264.69 532.53 261.60 536.13 258.18 C 538.91 255.52 540.34 251.76 543.24 249.19 C 543.52 249.36 544.09 249.69 544.38 249.85 C 544.89 254.50 542.10 258.77 538.93 261.90 C 535.58 264.96 532.18 268.08 528.09 270.12 C 517.94 274.93 507.56 279.62 496.40 281.49 C 500.25 283.92 504.23 287.11 509.00 287.04 C 517.26 285.77 524.85 281.54 531.00 275.99 C 538.56 269.75 545.13 262.45 552.41 255.91 C 552.03 253.28 552.44 250.40 551.00 248.04 C 549.75 245.56 548.20 242.83 548.81 239.97 C 551.06 237.85 554.81 237.21 555.97 234.06 C 557.85 229.20 558.86 223.83 557.53 218.69 C 551.12 225.06 546.06 232.73 538.96 238.43 C 538.95 237.73 538.91 236.34 538.90 235.64 C 537.71 237.64 536.27 239.49 534.47 240.98 C 535.53 235.77 537.08 230.67 538.07 225.44 C 529.53 224.68 520.97 224.08 512.44 223.32 C 511.18 223.05 509.64 223.24 508.67 222.28 C 507.87 218.74 508.47 215.09 508.76 211.53 C 518.98 211.91 529.15 213.13 539.32 214.24 C 538.85 208.71 536.28 203.73 533.63 198.97 C 532.25 197.80 531.04 196.46 529.97 195.01 C 528.02 194.36 526.08 193.66 524.28 192.66 C 513.17 194.58 501.78 192.62 491.39 188.54 C 488.44 187.32 485.28 185.72 484.39 182.36 C 480.36 183.21 476.42 184.49 472.85 186.59 M 571.97 247.08 C 569.52 267.27 568.11 287.63 568.75 307.98 C 568.78 314.16 569.52 320.37 568.57 326.53 C 565.75 324.67 566.00 320.97 565.50 318.03 C 563.55 295.45 562.95 272.45 567.78 250.16 C 559.46 256.58 551.17 263.32 544.80 271.75 C 541.01 276.64 538.82 282.47 535.97 287.90 C 528.48 302.34 522.52 317.67 513.13 331.05 C 511.46 333.24 509.84 335.95 506.92 336.54 C 504.54 335.18 506.88 333.22 507.67 331.63 C 518.68 315.09 525.88 296.47 535.26 279.04 C 528.04 285.74 518.93 290.95 509.00 291.90 C 502.02 291.72 496.16 286.81 491.84 281.72 C 488.19 281.37 484.58 280.48 481.60 278.26 C 480.63 297.41 479.79 316.66 482.18 335.75 C 482.67 341.93 484.29 347.98 484.33 354.20 C 480.95 349.88 480.46 344.26 479.46 339.07 C 476.11 317.82 474.80 296.02 478.23 274.70 C 477.48 273.50 476.74 272.30 476.00 271.11 C 468.36 292.15 464.88 314.58 464.57 336.92 C 464.74 338.12 464.26 338.79 463.12 338.94 C 460.64 334.03 461.38 328.31 461.41 323.00 C 462.44 303.88 464.62 284.07 473.80 266.93 C 471.33 261.48 468.06 256.42 465.96 250.80 C 463.87 251.43 461.79 252.03 459.71 252.66 C 457.61 263.48 453.52 273.73 450.21 284.19 C 449.32 286.03 448.88 289.46 446.12 288.88 C 445.63 284.07 447.67 279.53 448.83 274.96 C 451.40 266.78 453.01 258.33 455.76 250.21 C 447.97 241.97 442.14 231.96 433.43 224.60 C 429.79 221.18 424.47 222.13 419.97 222.54 C 417.67 222.96 414.60 223.04 413.40 225.41 C 412.31 228.18 412.15 231.20 411.71 234.12 C 409.76 247.32 408.91 260.66 406.77 273.83 C 406.10 286.29 404.77 300.52 413.06 310.95 C 419.00 318.15 426.47 323.96 431.99 331.54 C 432.14 323.00 433.38 314.53 433.49 306.00 C 433.67 303.67 432.58 300.78 434.90 299.18 C 437.52 304.75 437.13 311.02 436.99 317.00 C 436.75 323.33 436.58 329.66 436.47 335.99 C 436.37 341.34 435.15 346.62 435.53 351.98 C 435.92 359.68 434.81 367.34 434.78 375.03 C 434.58 386.68 433.93 398.37 435.23 409.99 C 436.56 421.61 437.91 433.24 439.60 444.82 C 441.50 457.46 440.74 470.27 440.21 482.98 C 439.45 495.28 438.83 507.60 437.93 519.90 C 437.40 526.80 437.51 533.76 436.34 540.61 C 442.29 544.53 448.46 548.13 454.97 551.04 C 470.09 558.47 487.55 560.30 504.02 557.11 C 520.89 554.48 536.16 546.44 552.41 541.66 C 563.20 538.00 574.56 535.44 586.02 536.23 C 592.74 536.77 599.46 537.69 606.05 539.20 C 607.81 523.35 605.79 506.76 598.53 492.43 C 596.01 486.75 592.68 481.44 590.64 475.56 C 588.64 468.57 589.29 461.21 589.06 454.03 C 587.60 460.01 586.47 466.52 582.44 471.40 C 579.92 474.30 576.52 471.04 575.64 468.37 C 572.43 460.57 573.08 451.60 574.92 443.55 C 575.44 443.57 576.48 443.59 577.00 443.61 C 578.19 450.33 577.16 457.29 578.65 463.98 C 579.10 464.95 578.90 466.86 580.34 466.94 C 585.84 454.44 585.60 440.45 587.65 427.16 C 590.52 408.99 590.94 390.47 589.18 372.17 C 588.74 368.29 588.73 364.17 590.73 360.68 C 596.94 349.14 603.24 337.64 608.63 325.68 C 615.03 311.17 621.83 296.82 627.29 281.92 C 620.58 281.84 614.07 279.20 608.99 274.86 C 600.40 267.39 594.77 257.18 589.97 247.01 C 585.52 237.86 583.78 227.76 582.25 217.78 C 576.46 226.60 575.53 237.37 571.97 247.08 M 539.33 234.31 C 539.85 234.87 539.85 234.87 539.33 234.31 M 623.32 262.25 C 622.42 266.58 621.16 270.83 619.94 275.08 C 622.38 275.59 624.82 276.05 627.28 276.48 C 625.93 271.74 624.43 267.04 623.32 262.25 M 570.85 541.35 C 555.55 544.11 541.04 549.97 526.59 555.55 C 510.57 561.77 493.02 564.42 475.94 562.14 C 464.29 560.57 453.46 555.70 443.16 550.26 C 440.40 559.52 440.41 569.29 441.60 578.81 C 443.07 598.27 447.38 617.45 447.87 636.99 C 447.87 652.69 447.00 668.40 445.15 684.00 C 456.70 691.35 470.85 690.94 484.01 691.54 C 493.32 692.07 502.71 691.27 511.71 688.75 C 509.16 687.21 504.54 686.03 505.73 682.09 C 511.12 651.76 497.09 622.06 501.12 591.69 C 504.28 592.66 503.68 596.37 504.00 598.93 C 504.20 615.40 508.04 631.48 510.74 647.64 C 512.62 636.38 514.25 625.05 517.22 614.01 C 520.29 602.43 523.07 590.54 529.09 580.06 C 529.93 578.24 531.80 577.46 533.70 577.18 C 528.43 589.42 526.09 602.59 522.23 615.30 C 518.55 627.73 516.87 640.64 513.11 653.05 C 512.27 655.60 511.93 658.28 512.12 660.98 C 512.48 668.19 512.27 675.45 511.07 682.58 C 515.73 684.67 520.01 687.68 524.99 688.98 C 528.34 689.95 531.06 687.26 533.77 685.76 C 544.87 679.04 558.09 675.84 571.05 677.00 C 580.18 677.54 589.61 678.71 597.70 683.32 C 599.30 663.95 599.99 644.48 602.71 625.22 C 604.78 612.18 607.37 599.20 608.54 586.03 C 609.67 572.13 608.57 557.50 601.92 544.98 C 601.15 543.90 600.60 542.14 599.04 542.09 C 589.73 540.70 580.21 539.80 570.85 541.35 M 537.20 689.00 C 540.66 694.23 541.60 700.51 543.35 706.41 C 545.92 715.12 547.48 724.20 551.60 732.39 C 554.36 739.48 558.76 745.76 561.64 752.80 C 566.39 753.89 571.31 753.61 576.07 752.73 C 586.51 750.68 596.95 746.93 605.24 740.07 C 598.10 723.34 596.65 705.08 594.86 687.20 C 591.20 686.23 587.56 685.17 583.84 684.53 C 568.30 682.06 551.56 681.61 537.20 689.00 M 468.50 696.04 C 470.94 708.52 470.08 721.54 474.15 733.70 C 476.34 740.38 478.77 747.28 483.22 752.81 C 489.64 754.82 496.54 754.24 503.13 753.51 C 511.96 752.23 520.91 750.26 528.69 745.71 C 528.63 738.42 530.22 731.25 530.34 723.97 C 530.84 714.10 530.32 704.19 528.57 694.46 C 524.30 694.62 520.21 693.33 516.48 691.34 C 501.61 698.71 484.50 696.97 468.50 696.04 M 587.77 755.79 C 579.77 758.49 571.21 760.34 562.76 758.95 C 564.96 773.63 566.46 788.40 568.30 803.13 C 570.23 818.76 573.82 834.18 579.01 849.05 C 585.11 867.30 591.69 885.52 594.97 904.54 C 601.49 899.51 610.48 898.21 618.25 900.80 C 623.28 902.57 627.15 906.41 630.81 910.13 C 630.73 907.60 630.64 905.08 630.59 902.56 C 630.58 868.18 627.75 833.75 621.68 799.90 C 617.83 781.34 613.57 762.78 607.08 744.94 C 601.56 749.97 594.80 753.41 587.77 755.79 M 496.97 759.45 C 492.25 759.83 487.52 759.30 482.92 758.25 C 483.34 789.50 483.53 820.82 486.63 851.95 C 488.52 872.01 487.78 892.18 488.29 912.30 C 498.01 915.41 507.07 920.40 517.00 922.86 C 521.81 924.26 527.18 922.90 530.29 918.86 C 529.08 883.17 534.48 847.71 535.10 812.07 C 535.28 791.42 532.11 770.94 529.04 750.57 C 519.40 756.40 508.08 758.70 496.97 759.45 M 602.40 905.64 C 593.71 908.31 590.90 917.83 587.07 925.04 C 582.33 936.55 572.87 945.76 569.94 958.05 C 568.47 962.52 572.89 966.01 577.00 966.01 C 592.76 967.51 608.99 967.63 624.35 963.30 C 628.82 962.06 632.86 958.95 634.47 954.50 C 637.85 945.85 637.54 936.10 635.57 927.16 C 633.83 918.73 627.78 911.96 620.93 907.13 C 615.58 903.31 608.40 904.04 602.40 905.64 M 443.81 947.75 C 439.98 950.49 435.34 951.53 430.84 952.57 C 425.31 953.82 419.79 957.09 417.33 962.37 C 416.12 964.33 418.00 966.51 419.92 967.01 C 432.35 971.56 445.94 972.32 459.02 970.93 C 465.34 970.28 471.76 970.53 477.98 969.07 C 487.48 966.87 497.24 965.81 506.99 966.08 C 513.06 966.03 519.29 966.81 525.21 965.09 C 528.95 964.02 532.58 961.45 533.46 957.45 C 536.51 946.25 532.31 934.92 532.18 923.63 C 528.55 927.39 523.26 929.27 518.07 928.28 C 506.11 926.47 495.63 919.81 484.11 916.43 C 470.53 926.67 457.77 938.00 443.81 947.75 Z" />
        <path fill="#020202" opacity="1.00"
            d=" M 488.90 239.77 C 491.10 241.30 493.24 243.34 496.01 243.66 C 498.77 243.11 501.19 241.56 503.84 240.64 C 501.79 244.55 497.95 247.04 494.52 249.62 C 491.57 250.25 489.51 246.77 487.61 244.97 C 487.70 243.17 488.40 241.48 488.90 239.77 Z" />
        <path fill="#020202" opacity="1.00"
            d=" M 481.19 252.88 C 486.99 251.56 493.01 252.79 498.91 252.61 C 502.44 252.94 506.34 252.14 509.57 253.90 C 509.95 255.98 508.07 256.45 506.57 257.06 C 506.47 257.67 506.29 258.88 506.19 259.48 C 499.93 261.00 493.42 259.74 487.09 259.41 C 485.08 259.40 484.86 257.19 484.22 255.78 C 483.18 254.90 478.75 254.84 481.19 252.88 Z" />
        <path fill="#020202" opacity="1.00"
            d=" M 557.54 263.76 C 558.19 261.82 559.03 259.96 560.01 258.16 C 562.69 263.19 559.82 268.78 559.03 273.94 C 552.15 301.01 551.48 329.39 555.46 356.96 C 556.00 360.45 556.50 363.99 556.24 367.54 C 552.87 365.99 552.41 362.12 551.70 358.93 C 548.32 341.19 546.06 323.03 548.08 304.99 C 549.38 290.89 553.22 277.19 557.54 263.76 Z" />
        <path fill="#020202" opacity="1.00"
            d=" M 572.68 359.32 C 577.44 361.61 576.24 367.64 576.47 371.95 C 575.49 394.56 574.85 417.51 568.65 439.43 C 564.45 453.59 559.45 467.50 554.23 481.31 C 552.85 484.92 551.56 488.79 548.48 491.34 C 548.09 488.08 548.95 484.91 550.10 481.89 C 556.66 462.86 563.46 443.79 567.06 423.92 C 569.43 411.25 570.23 398.36 571.32 385.53 C 571.97 376.81 573.46 368.10 572.68 359.32 Z" />
        <path fill="#020202" opacity="1.00"
            d=" M 547.36 577.38 C 548.25 575.94 549.99 575.71 551.45 575.17 C 550.52 579.75 547.71 583.55 545.65 587.64 C 541.76 595.27 538.56 603.27 536.46 611.58 C 533.24 624.21 530.01 636.85 526.17 649.31 C 524.59 653.79 523.49 658.79 519.74 662.04 C 519.39 657.30 521.19 652.85 522.31 648.34 C 525.23 636.89 528.13 625.44 530.81 613.94 C 532.66 606.02 534.85 598.08 538.90 590.98 C 541.59 586.37 544.08 581.60 547.36 577.38 Z" />
    </g>
    <g id="#f0b58bff">
        <path fill="#f0b58b" opacity="1.00"
            d=" M 573.80 44.95 C 576.74 52.36 576.79 60.52 579.41 68.01 C 580.72 68.94 581.58 68.62 581.98 67.06 C 582.57 60.56 580.83 54.16 579.77 47.80 C 582.36 53.75 587.26 59.20 586.79 66.05 C 586.81 73.06 584.54 79.95 580.82 85.86 C 578.78 89.60 575.79 93.47 576.53 98.00 C 577.47 102.23 580.36 105.67 583.03 108.96 C 588.51 115.12 594.20 121.11 599.44 127.49 C 609.05 139.65 619.33 151.43 626.94 165.01 C 632.33 174.96 633.06 186.72 631.73 197.76 C 630.03 208.83 628.66 219.97 626.27 230.92 C 622.72 244.83 619.30 258.78 615.06 272.50 C 610.01 268.69 605.97 263.75 602.63 258.41 C 597.18 249.68 592.43 240.37 589.90 230.34 C 589.25 227.60 588.32 224.76 589.13 221.94 C 591.28 211.35 594.03 200.86 595.51 190.14 C 596.12 185.31 596.74 180.12 594.53 175.57 C 591.32 168.77 586.06 163.23 582.27 156.76 C 575.46 145.25 568.24 133.84 563.78 121.14 C 561.35 114.20 558.54 107.33 557.11 100.09 C 555.30 91.20 559.47 82.69 560.26 73.94 C 561.53 65.31 559.16 56.66 560.29 48.03 C 563.91 55.35 563.55 63.71 565.85 71.38 L 567.15 71.44 C 570.18 63.19 564.96 54.69 566.40 46.35 C 570.61 54.01 570.51 63.02 572.96 71.23 C 573.25 73.10 575.92 72.79 575.97 70.97 C 576.49 64.14 575.05 57.34 573.38 50.76 C 572.81 48.83 573.53 46.87 573.80 44.95 Z" />
        <path fill="#f0b58b" opacity="1.00"
            d=" M 453.17 62.10 C 456.06 57.59 459.65 53.55 463.71 50.05 C 461.31 54.85 458.66 59.52 456.45 64.42 C 454.70 68.42 451.77 72.16 451.97 76.75 C 459.25 71.51 460.94 61.25 468.53 56.22 C 464.99 65.18 458.10 72.79 456.28 82.39 C 458.10 84.17 459.41 81.76 460.51 80.48 C 463.96 75.79 466.71 70.64 469.62 65.62 C 471.02 63.05 473.68 61.59 475.93 59.86 C 473.47 67.98 468.56 74.98 463.98 82.00 C 462.63 83.93 461.76 86.16 461.50 88.51 C 463.99 87.91 465.53 85.87 466.98 83.92 C 471.97 76.88 479.16 71.47 487.15 68.25 C 481.89 78.27 470.92 84.07 466.74 94.74 C 465.30 97.75 467.62 101.58 470.99 101.59 C 476.13 101.41 481.08 99.36 486.30 99.77 C 482.40 105.59 475.36 107.20 469.03 108.87 C 464.84 110.00 460.93 111.93 457.29 114.25 C 453.32 116.90 447.46 115.24 444.33 119.33 C 438.28 127.31 432.07 135.20 426.74 143.69 C 419.56 155.40 411.81 166.75 403.86 177.94 C 398.38 185.68 391.10 191.85 383.88 197.88 C 382.66 198.70 381.06 201.07 383.33 201.65 C 385.50 201.60 387.26 200.01 389.15 199.10 C 396.26 206.79 402.16 215.47 408.53 223.76 C 405.16 239.66 404.70 255.97 402.29 272.01 C 392.95 261.95 383.82 251.64 373.40 242.66 C 365.99 236.08 357.96 229.75 353.07 220.93 C 348.89 212.88 346.92 203.24 349.75 194.42 C 353.56 181.99 361.73 171.56 369.69 161.52 C 383.67 145.26 397.41 128.78 411.89 112.96 C 420.25 102.95 429.58 93.79 437.59 83.49 C 442.94 76.48 448.39 69.52 453.17 62.10 Z" />
        <path fill="#f0b58b" opacity="1.00"
            d=" M 472.85 186.59 C 476.42 184.49 480.36 183.21 484.39 182.36 C 485.28 185.72 488.44 187.32 491.39 188.54 C 501.78 192.62 513.17 194.58 524.28 192.66 C 526.08 193.66 528.02 194.36 529.97 195.01 C 531.04 196.46 532.25 197.80 533.63 198.97 C 536.28 203.73 538.85 208.71 539.32 214.24 C 529.15 213.13 518.98 211.91 508.76 211.53 C 508.47 215.09 507.87 218.74 508.67 222.28 C 509.64 223.24 511.18 223.05 512.44 223.32 C 520.97 224.08 529.53 224.68 538.07 225.44 C 537.08 230.67 535.53 235.77 534.47 240.98 C 536.27 239.49 537.71 237.64 538.90 235.64 C 538.91 236.34 538.95 237.73 538.96 238.43 C 546.06 232.73 551.12 225.06 557.53 218.69 C 558.86 223.83 557.85 229.20 555.97 234.06 C 554.81 237.21 551.06 237.85 548.81 239.97 C 548.20 242.83 549.75 245.56 551.00 248.04 C 552.44 250.40 552.03 253.28 552.41 255.91 C 545.13 262.45 538.56 269.75 531.00 275.99 C 524.85 281.54 517.26 285.77 509.00 287.04 C 504.23 287.11 500.25 283.92 496.40 281.49 C 507.56 279.62 517.94 274.93 528.09 270.12 C 532.18 268.08 535.58 264.96 538.93 261.90 C 542.10 258.77 544.89 254.50 544.38 249.85 C 544.09 249.69 543.52 249.36 543.24 249.19 C 540.34 251.76 538.91 255.52 536.13 258.18 C 532.53 261.60 528.51 264.69 523.88 266.56 C 513.69 270.87 503.33 275.99 492.05 276.26 C 485.91 276.75 481.99 271.20 479.65 266.32 C 476.43 259.16 472.20 252.41 470.19 244.76 C 467.97 237.04 468.44 228.92 469.14 221.02 C 476.51 221.67 483.88 222.19 491.24 222.99 C 490.31 227.64 488.84 232.27 488.76 237.03 C 489.03 237.56 489.59 238.61 489.87 239.13 C 493.04 230.20 496.51 220.89 496.04 211.28 C 487.29 210.56 478.49 211.06 469.73 211.26 C 470.41 203.00 471.51 194.77 472.85 186.59 M 488.90 239.77 C 488.40 241.48 487.70 243.17 487.61 244.97 C 489.51 246.77 491.57 250.25 494.52 249.62 C 497.95 247.04 501.79 244.55 503.84 240.64 C 501.19 241.56 498.77 243.11 496.01 243.66 C 493.24 243.34 491.10 241.30 488.90 239.77 M 481.19 252.88 C 478.75 254.84 483.18 254.90 484.22 255.78 C 484.86 257.19 485.08 259.40 487.09 259.41 C 493.42 259.74 499.93 261.00 506.19 259.48 C 506.29 258.88 506.47 257.67 506.57 257.06 C 508.07 256.45 509.95 255.98 509.57 253.90 C 506.34 252.14 502.44 252.94 498.91 252.61 C 493.01 252.79 486.99 251.56 481.19 252.88 Z" />
        <path fill="#f0b58b" opacity="1.00"
            d=" M 537.20 689.00 C 551.56 681.61 568.30 682.06 583.84 684.53 C 587.56 685.17 591.20 686.23 594.86 687.20 C 596.65 705.08 598.10 723.34 605.24 740.07 C 596.95 746.93 586.51 750.68 576.07 752.73 C 571.31 753.61 566.39 753.89 561.64 752.80 C 558.76 745.76 554.36 739.48 551.60 732.39 C 547.48 724.20 545.92 715.12 543.35 706.41 C 541.60 700.51 540.66 694.23 537.20 689.00 Z" />
        <path fill="#f0b58b" opacity="1.00"
            d=" M 468.50 696.04 C 484.50 696.97 501.61 698.71 516.48 691.34 C 520.21 693.33 524.30 694.62 528.57 694.46 C 530.32 704.19 530.84 714.10 530.34 723.97 C 530.22 731.25 528.63 738.42 528.69 745.71 C 520.91 750.26 511.96 752.23 503.13 753.51 C 496.54 754.24 489.64 754.82 483.22 752.81 C 478.77 747.28 476.34 740.38 474.15 733.70 C 470.08 721.54 470.94 708.52 468.50 696.04 Z" />
    </g>
    <g id="#f11b27ff">
        <path fill="var(--shirt-color, grey)" opacity="1.00"
            d=" M 571.97 247.08 C 575.53 237.37 576.46 226.60 582.25 217.78 C 583.78 227.76 585.52 237.86 589.97 247.01 C 594.77 257.18 600.40 267.39 608.99 274.86 C 614.07 279.20 620.58 281.84 627.29 281.92 C 621.83 296.82 615.03 311.17 608.63 325.68 C 603.24 337.64 596.94 349.14 590.73 360.68 C 588.73 364.17 588.74 368.29 589.18 372.17 C 590.94 390.47 590.52 408.99 587.65 427.16 C 585.60 440.45 585.84 454.44 580.34 466.94 C 578.90 466.86 579.10 464.95 578.65 463.98 C 577.16 457.29 578.19 450.33 577.00 443.61 C 576.48 443.59 575.44 443.57 574.92 443.55 C 573.08 451.60 572.43 460.57 575.64 468.37 C 576.52 471.04 579.92 474.30 582.44 471.40 C 586.47 466.52 587.60 460.01 589.06 454.03 C 589.29 461.21 588.64 468.57 590.64 475.56 C 592.68 481.44 596.01 486.75 598.53 492.43 C 605.79 506.76 607.81 523.35 606.05 539.20 C 599.46 537.69 592.74 536.77 586.02 536.23 C 574.56 535.44 563.20 538.00 552.41 541.66 C 536.16 546.44 520.89 554.48 504.02 557.11 C 487.55 560.30 470.09 558.47 454.97 551.04 C 448.46 548.13 442.29 544.53 436.34 540.61 C 437.51 533.76 437.40 526.80 437.93 519.90 C 438.83 507.60 439.45 495.28 440.21 482.98 C 440.74 470.27 441.50 457.46 439.60 444.82 C 437.91 433.24 436.56 421.61 435.23 409.99 C 433.93 398.37 434.58 386.68 434.78 375.03 C 434.81 367.34 435.92 359.68 435.53 351.98 C 435.15 346.62 436.37 341.34 436.47 335.99 C 436.58 329.66 436.75 323.33 436.99 317.00 C 437.13 311.02 437.52 304.75 434.90 299.18 C 432.58 300.78 433.67 303.67 433.49 306.00 C 433.38 314.53 432.14 323.00 431.99 331.54 C 426.47 323.96 419.00 318.15 413.06 310.95 C 404.77 300.52 406.10 286.29 406.77 273.83 C 408.91 260.66 409.76 247.32 411.71 234.12 C 412.15 231.20 412.31 228.18 413.40 225.41 C 414.60 223.04 417.67 222.96 419.97 222.54 C 424.47 222.13 429.79 221.18 433.43 224.60 C 442.14 231.96 447.97 241.97 455.76 250.21 C 453.01 258.33 451.40 266.78 448.83 274.96 C 447.67 279.53 445.63 284.07 446.12 288.88 C 448.88 289.46 449.32 286.03 450.21 284.19 C 453.52 273.73 457.61 263.48 459.71 252.66 C 461.79 252.03 463.87 251.43 465.96 250.80 C 468.06 256.42 471.33 261.48 473.80 266.93 C 464.62 284.07 462.44 303.88 461.41 323.00 C 461.38 328.31 460.64 334.03 463.12 338.94 C 464.26 338.79 464.74 338.12 464.57 336.92 C 464.88 314.58 468.36 292.15 476.00 271.11 C 476.74 272.30 477.48 273.50 478.23 274.70 C 474.80 296.02 476.11 317.82 479.46 339.07 C 480.46 344.26 480.95 349.88 484.33 354.20 C 484.29 347.98 482.67 341.93 482.18 335.75 C 479.79 316.66 480.63 297.41 481.60 278.26 C 484.58 280.48 488.19 281.37 491.84 281.72 C 496.16 286.81 502.02 291.72 509.00 291.90 C 518.93 290.95 528.04 285.74 535.26 279.04 C 525.88 296.47 518.68 315.09 507.67 331.63 C 506.88 333.22 504.54 335.18 506.92 336.54 C 509.84 335.95 511.46 333.24 513.13 331.05 C 522.52 317.67 528.48 302.34 535.97 287.90 C 538.82 282.47 541.01 276.64 544.80 271.75 C 551.17 263.32 559.46 256.58 567.78 250.16 C 562.95 272.45 563.55 295.45 565.50 318.03 C 566.00 320.97 565.75 324.67 568.57 326.53 C 569.52 320.37 568.78 314.16 568.75 307.98 C 568.11 287.63 569.52 267.27 571.97 247.08 M 557.54 263.76 C 553.22 277.19 549.38 290.89 548.08 304.99 C 546.06 323.03 548.32 341.19 551.70 358.93 C 552.41 362.12 552.87 365.99 556.24 367.54 C 556.50 363.99 556.00 360.45 555.46 356.96 C 551.48 329.39 552.15 301.01 559.03 273.94 C 559.82 268.78 562.69 263.19 560.01 258.16 C 559.03 259.96 558.19 261.82 557.54 263.76 M 572.68 359.32 C 573.46 368.10 571.97 376.81 571.32 385.53 C 570.23 398.36 569.43 411.25 567.06 423.92 C 563.46 443.79 556.66 462.86 550.10 481.89 C 548.95 484.91 548.09 488.08 548.48 491.34 C 551.56 488.79 552.85 484.92 554.23 481.31 C 559.45 467.50 564.45 453.59 568.65 439.43 C 574.85 417.51 575.49 394.56 576.47 371.95 C 576.24 367.64 577.44 361.61 572.68 359.32 Z" />
        <path fill="var(--shirt-color, grey)" opacity="1.00"
            d=" M 623.32 262.25 C 624.43 267.04 625.93 271.74 627.28 276.48 C 624.82 276.05 622.38 275.59 619.94 275.08 C 621.16 270.83 622.42 266.58 623.32 262.25 Z" />
    </g>
    <g id="#2b3dcdff">
        <path fill="var(--pants-color, grey)" opacity="1.00"
            d=" M 570.85 541.35 C 580.21 539.80 589.73 540.70 599.04 542.09 C 600.60 542.14 601.15 543.90 601.92 544.98 C 608.57 557.50 609.67 572.13 608.54 586.03 C 607.37 599.20 604.78 612.18 602.71 625.22 C 599.99 644.48 599.30 663.95 597.70 683.32 C 589.61 678.71 580.18 677.54 571.05 677.00 C 558.09 675.84 544.87 679.04 533.77 685.76 C 531.06 687.26 528.34 689.95 524.99 688.98 C 520.01 687.68 515.73 684.67 511.07 682.58 C 512.27 675.45 512.48 668.19 512.12 660.98 C 511.93 658.28 512.27 655.60 513.11 653.05 C 516.87 640.64 518.55 627.73 522.23 615.30 C 526.09 602.59 528.43 589.42 533.70 577.18 C 531.80 577.46 529.93 578.24 529.09 580.06 C 523.07 590.54 520.29 602.43 517.22 614.01 C 514.25 625.05 512.62 636.38 510.74 647.64 C 508.04 631.48 504.20 615.40 504.00 598.93 C 503.68 596.37 504.28 592.66 501.12 591.69 C 497.09 622.06 511.12 651.76 505.73 682.09 C 504.54 686.03 509.16 687.21 511.71 688.75 C 502.71 691.27 493.32 692.07 484.01 691.54 C 470.85 690.94 456.70 691.35 445.15 684.00 C 447.00 668.40 447.87 652.69 447.87 636.99 C 447.38 617.45 443.07 598.27 441.60 578.81 C 440.41 569.29 440.40 559.52 443.16 550.26 C 453.46 555.70 464.29 560.57 475.94 562.14 C 493.02 564.42 510.57 561.77 526.59 555.55 C 541.04 549.97 555.55 544.11 570.85 541.35 M 547.36 577.38 C 544.08 581.60 541.59 586.37 538.90 590.98 C 534.85 598.08 532.66 606.02 530.81 613.94 C 528.13 625.44 525.23 636.89 522.31 648.34 C 521.19 652.85 519.39 657.30 519.74 662.04 C 523.49 658.79 524.59 653.79 526.17 649.31 C 530.01 636.85 533.24 624.21 536.46 611.58 C 538.56 603.27 541.76 595.27 545.65 587.64 C 547.71 583.55 550.52 579.75 551.45 575.17 C 549.99 575.71 548.25 575.94 547.36 577.38 Z" />
        <path fill="var(--socks-color, grey)" opacity="1.00"
            d=" M 587.77 755.79 C 594.80 753.41 601.56 749.97 607.08 744.94 C 613.57 762.78 617.83 781.34 621.68 799.90 C 627.75 833.75 630.58 868.18 630.59 902.56 C 630.64 905.08 630.73 907.60 630.81 910.13 C 627.15 906.41 623.28 902.57 618.25 900.80 C 610.48 898.21 601.49 899.51 594.97 904.54 C 591.69 885.52 585.11 867.30 579.01 849.05 C 573.82 834.18 570.23 818.76 568.30 803.13 C 566.46 788.40 564.96 773.63 562.76 758.95 C 571.21 760.34 579.77 758.49 587.77 755.79 Z" />
        <path fill="var(--socks-color, grey)" opacity="1.00"
            d=" M 496.97 759.45 C 508.08 758.70 519.40 756.40 529.04 750.57 C 532.11 770.94 535.28 791.42 535.10 812.07 C 534.48 847.71 529.08 883.17 530.29 918.86 C 527.18 922.90 521.81 924.26 517.00 922.86 C 507.07 920.40 498.01 915.41 488.29 912.30 C 487.78 892.18 488.52 872.01 486.63 851.95 C 483.53 820.82 483.34 789.50 482.92 758.25 C 487.52 759.30 492.25 759.83 496.97 759.45 Z" />
    </g>
    <g id="#4d4d4dff">
        <path fill="#4d4d4d" opacity="1.00"
            d=" M 602.40 905.64 C 608.40 904.04 615.58 903.31 620.93 907.13 C 627.78 911.96 633.83 918.73 635.57 927.16 C 637.54 936.10 637.85 945.85 634.47 954.50 C 632.86 958.95 628.82 962.06 624.35 963.30 C 608.99 967.63 592.76 967.51 577.00 966.01 C 572.89 966.01 568.47 962.52 569.94 958.05 C 572.87 945.76 582.33 936.55 587.07 925.04 C 590.90 917.83 593.71 908.31 602.40 905.64 Z" />
        <path fill="#4d4d4d" opacity="1.00"
            d=" M 443.81 947.75 C 457.77 938.00 470.53 926.67 484.11 916.43 C 495.63 919.81 506.11 926.47 518.07 928.28 C 523.26 929.27 528.55 927.39 532.18 923.63 C 532.31 934.92 536.51 946.25 533.46 957.45 C 532.58 961.45 528.95 964.02 525.21 965.09 C 519.29 966.81 513.06 966.03 506.99 966.08 C 497.24 965.81 487.48 966.87 477.98 969.07 C 471.76 970.53 465.34 970.28 459.02 970.93 C 445.94 972.32 432.35 971.56 419.92 967.01 C 418.00 966.51 416.12 964.33 417.33 962.37 C 419.79 957.09 425.31 953.82 430.84 952.57 C 435.34 951.53 439.98 950.49 443.81 947.75 Z" />
    </g>
</svg>