<?xml version="1.0" encoding="UTF-8" ?>
<!DOCTYPE svg PUBLIC "-//W3C//DTD SVG 1.1//EN" "http://www.w3.org/Graphics/SVG/1.1/DTD/svg11.dtd">
<svg width="1000pt" height="1000pt" viewBox="0 0 1000 1000" version="1.1" xmlns="http://www.w3.org/2000/svg">
    <g id="#020202ff">
        <path fill="#020202" opacity="1.00"
            d=" M 370.84 67.83 C 378.22 64.53 386.69 65.25 394.23 67.60 C 402.44 69.59 411.10 68.68 419.29 70.88 C 430.08 73.71 440.78 79.65 446.49 89.57 C 450.43 96.18 452.26 103.91 457.05 110.04 C 459.41 112.69 458.89 116.36 459.56 119.59 C 461.44 124.53 464.38 129.05 465.80 134.17 C 464.26 135.94 462.34 134.50 460.63 133.94 C 461.86 142.25 461.73 150.66 462.04 159.03 C 462.25 166.35 460.31 175.57 452.92 178.82 C 450.77 184.43 448.77 190.30 444.76 194.91 C 442.72 197.28 440.62 199.60 438.60 201.99 C 440.05 208.10 442.00 214.19 445.44 219.51 C 447.61 222.83 450.01 225.99 452.33 229.20 C 462.99 226.47 474.17 226.67 484.92 228.71 C 500.94 232.55 515.44 241.37 527.34 252.62 C 537.16 261.51 544.73 272.62 555.03 280.99 C 568.46 291.97 583.26 301.21 596.22 312.77 C 602.76 318.17 607.72 325.37 610.88 333.21 C 614.30 341.86 612.48 351.37 610.03 360.02 C 607.22 370.51 603.08 380.62 598.21 390.31 C 592.64 400.39 582.09 406.37 571.54 410.07 C 571.19 422.06 573.22 434.01 572.18 446.00 C 571.59 457.10 569.66 468.39 564.09 478.16 C 568.06 486.12 571.53 494.33 575.90 502.09 C 585.42 517.88 594.02 534.73 597.08 553.10 C 598.40 560.32 599.73 567.60 602.49 574.44 C 606.81 585.66 613.92 595.52 618.47 606.63 C 623.00 617.91 623.36 630.21 624.88 642.11 C 625.64 648.83 627.82 655.25 629.42 661.79 C 630.91 668.49 634.23 674.92 633.53 681.97 C 632.38 684.94 629.28 686.42 626.84 688.19 C 630.68 696.38 633.94 705.06 639.94 711.98 C 646.05 719.27 653.93 724.72 660.93 731.09 C 671.89 741.72 679.02 755.45 686.22 768.73 C 698.98 792.03 709.13 816.62 720.45 840.62 C 724.01 848.39 727.59 856.16 730.42 864.23 C 735.95 865.76 742.38 867.10 745.77 872.23 C 751.83 880.87 752.73 891.84 753.20 902.06 C 753.16 911.54 754.28 921.17 752.21 930.52 C 750.40 938.62 745.96 946.22 739.44 951.41 C 733.33 956.02 725.24 955.73 717.98 955.92 C 709.42 955.84 700.15 956.03 692.68 951.21 C 687.60 948.20 685.95 941.58 686.95 936.08 C 687.93 929.73 694.48 926.19 695.65 919.91 C 697.40 914.11 694.26 908.57 692.88 903.08 C 690.20 893.86 686.29 883.89 690.05 874.38 C 682.48 865.75 674.74 857.26 668.11 847.88 C 659.47 836.68 651.80 824.79 643.86 813.11 C 636.01 802.38 627.89 791.85 619.70 781.39 C 613.69 774.03 607.02 767.07 599.02 761.88 C 590.34 756.10 582.52 749.01 576.56 740.41 C 566.28 725.64 558.52 709.24 551.69 692.65 C 547.43 692.28 543.20 692.90 538.98 693.29 C 536.09 693.65 534.61 690.83 533.25 688.82 C 528.72 681.15 525.45 672.82 522.90 664.31 C 516.99 647.61 513.78 629.98 506.19 613.88 C 503.43 607.26 499.44 601.29 495.15 595.59 C 492.43 595.15 489.58 595.59 487.45 597.44 C 479.79 603.83 475.44 613.24 472.84 622.69 C 470.61 629.81 469.05 637.12 467.50 644.42 C 466.72 647.96 465.27 651.78 462.01 653.75 C 457.82 654.03 454.31 651.05 450.71 649.33 C 447.47 655.70 445.25 662.77 445.57 669.98 C 458.56 676.60 468.42 687.73 476.17 699.85 C 486.50 715.67 493.75 733.23 503.60 749.34 C 509.80 759.85 516.76 769.97 525.03 778.98 C 530.66 785.28 536.92 791.05 541.97 797.85 C 549.05 798.41 557.14 799.07 562.04 804.95 C 567.12 811.38 567.95 820.06 568.10 827.98 C 568.13 838.44 561.35 847.22 554.09 854.06 C 549.98 858.27 544.11 860.87 541.50 866.41 C 538.38 872.79 535.24 879.24 530.76 884.81 C 523.50 894.05 516.63 904.28 506.08 910.06 C 500.04 913.62 492.79 913.70 486.00 913.70 C 479.43 913.78 472.95 911.87 467.18 908.81 C 462.33 906.17 458.75 900.71 459.55 895.05 C 460.33 888.59 465.14 883.80 469.11 879.05 C 474.05 873.23 479.27 867.45 482.43 860.42 C 486.87 850.68 488.38 840.00 490.69 829.65 C 491.36 826.38 492.79 823.36 494.42 820.48 C 478.96 807.00 465.27 791.66 451.30 776.69 C 439.56 763.76 424.98 753.77 413.54 740.56 C 406.91 732.70 400.25 724.73 395.44 715.58 C 393.14 711.38 389.27 708.41 386.21 704.81 C 373.41 690.59 367.25 671.29 367.20 652.34 C 365.47 652.58 363.74 652.81 362.01 653.01 C 358.94 644.64 357.52 635.77 356.10 627.00 C 355.24 620.37 353.37 613.71 354.42 606.98 C 354.94 602.61 356.85 598.60 358.64 594.63 C 360.70 590.05 360.66 584.91 360.81 579.99 C 360.86 572.41 361.26 564.71 363.54 557.44 C 365.50 551.41 370.24 546.93 374.77 542.74 C 378.00 540.12 377.76 535.64 378.49 531.94 C 379.36 525.56 381.69 519.52 384.33 513.69 C 381.57 512.66 378.71 511.54 376.70 509.29 C 372.90 505.23 372.10 499.34 372.26 494.00 C 372.75 483.69 372.60 473.34 371.46 463.07 C 370.86 454.60 369.88 446.04 366.88 438.04 C 364.95 432.56 361.57 427.73 359.79 422.20 C 356.12 411.31 351.93 400.57 346.71 390.33 C 344.41 385.67 341.16 381.56 337.38 378.01 C 335.12 385.81 335.24 393.99 333.93 401.95 C 333.25 406.37 331.11 410.63 327.46 413.32 C 322.99 416.56 318.07 419.12 313.19 421.68 C 312.68 427.78 312.19 433.89 311.95 440.00 C 311.65 449.35 314.96 458.79 321.17 465.79 C 325.51 470.54 330.49 475.28 332.22 481.69 C 334.06 488.69 332.90 497.25 327.08 502.09 C 325.35 503.69 322.93 503.86 320.73 504.26 C 320.44 507.07 320.70 510.38 318.48 512.50 C 313.70 517.21 306.43 518.14 300.05 517.26 C 295.94 516.57 293.43 512.99 290.58 510.36 C 288.31 508.17 285.15 507.30 282.80 505.23 C 278.87 501.55 275.85 496.53 275.81 491.02 C 275.47 478.95 282.99 468.10 281.99 455.96 C 281.24 448.66 280.63 441.34 279.65 434.07 C 276.04 433.17 272.97 430.68 272.00 426.99 C 270.30 420.84 269.30 414.51 267.79 408.30 C 265.81 400.56 268.73 392.83 268.77 385.05 C 269.68 371.64 265.85 357.96 269.61 344.77 C 271.32 337.45 276.51 331.54 278.07 324.17 C 279.85 316.20 281.63 308.02 286.02 301.01 C 294.20 288.27 306.83 279.23 319.68 271.67 C 334.99 263.50 350.65 255.82 364.86 245.78 C 360.62 241.07 356.40 236.22 353.51 230.53 C 349.29 222.24 347.30 213.07 345.64 203.98 C 342.46 189.62 333.86 176.28 335.25 161.09 C 332.07 163.66 328.73 166.02 325.41 168.40 C 324.61 160.97 321.77 154.01 318.77 147.24 C 316.93 143.43 317.22 139.08 317.53 134.99 C 318.65 123.78 323.10 112.40 332.01 105.14 C 334.32 96.94 339.23 89.74 345.70 84.25 C 344.19 81.96 342.51 79.39 343.61 76.55 C 353.50 77.44 362.16 71.62 370.84 67.83 M 382.19 133.92 C 379.66 136.19 377.07 139.27 373.28 138.66 C 372.28 140.14 371.49 141.83 370.05 142.94 C 364.22 147.49 357.48 150.62 350.93 153.95 C 347.32 155.65 343.77 157.92 339.64 157.91 C 339.27 164.37 340.12 170.80 342.17 176.93 C 347.47 176.30 352.76 175.37 358.11 175.56 C 359.92 179.12 361.18 182.95 361.66 186.92 C 362.10 190.70 363.03 194.80 360.98 198.30 C 358.23 195.48 358.72 191.33 358.12 187.75 C 354.42 188.28 350.71 188.78 347.02 189.32 C 352.36 200.35 352.41 212.98 357.45 224.12 C 366.54 221.80 375.81 220.27 385.00 218.42 C 387.34 218.05 389.72 217.31 392.10 217.74 C 393.55 219.42 391.90 220.89 390.38 221.57 C 390.35 222.73 390.28 223.88 390.18 225.04 C 389.61 226.89 387.41 226.82 385.90 227.30 C 377.86 228.96 369.80 230.50 361.73 232.01 C 364.93 236.16 367.97 240.58 372.10 243.88 C 377.02 247.16 382.80 250.15 388.91 249.38 C 396.41 248.10 403.67 245.24 409.86 240.79 C 412.35 239.21 414.52 236.68 417.67 236.56 C 418.42 239.08 416.24 241.06 414.63 242.64 C 406.41 250.02 395.81 255.62 384.50 255.24 C 388.83 264.23 394.36 274.55 404.96 276.95 C 414.39 278.04 421.85 271.11 427.84 264.78 C 436.09 256.12 444.06 246.96 449.40 236.17 C 447.11 233.25 444.82 230.32 442.73 227.25 C 437.00 219.48 434.10 209.58 434.74 199.96 C 438.36 189.23 445.98 179.68 446.34 167.97 C 445.84 164.65 441.55 164.28 439.55 166.47 C 433.49 171.83 428.75 179.01 420.87 181.96 C 420.47 180.37 420.39 178.72 420.50 177.08 C 419.43 177.80 418.37 178.52 417.32 179.25 C 417.29 171.61 416.34 163.01 410.64 157.33 C 407.85 154.37 405.83 150.76 404.39 146.97 C 404.28 148.65 403.84 150.28 403.22 151.84 C 397.15 144.88 389.97 138.89 382.19 133.92 M 455.82 234.18 C 455.54 236.77 454.92 239.34 453.54 241.58 C 448.51 250.51 442.28 258.79 434.93 265.94 C 429.55 271.28 424.33 277.16 417.38 280.49 C 411.96 282.65 405.44 283.92 400.06 280.99 C 389.48 276.08 383.09 265.23 380.03 254.39 C 375.99 252.92 372.08 251.12 368.43 248.87 C 358.08 257.62 345.72 263.43 333.98 270.00 C 323.86 276.09 313.14 281.41 304.27 289.32 C 297.59 295.41 291.06 302.23 288.03 310.93 C 284.75 319.97 284.55 330.06 279.15 338.31 C 270.98 351.95 275.35 368.18 274.82 383.10 C 277.21 376.58 279.59 370.06 281.62 363.42 C 282.71 360.52 283.13 356.93 286.11 355.26 C 287.02 362.78 283.32 369.79 281.79 377.00 C 280.43 383.49 277.55 389.48 274.00 395.04 C 271.37 398.80 271.96 403.55 272.68 407.81 C 273.56 412.70 274.50 417.58 275.70 422.41 C 276.35 424.51 276.95 427.04 279.05 428.18 C 281.54 429.10 284.26 428.48 286.72 427.75 C 295.82 424.86 303.91 419.69 312.43 415.50 C 316.51 413.28 320.71 411.18 324.48 408.45 C 328.10 405.84 328.68 401.09 329.12 396.99 C 329.79 389.52 330.41 381.90 333.39 374.93 C 329.88 372.82 326.15 371.14 322.33 369.69 C 320.10 368.69 316.90 367.90 316.96 364.85 C 322.71 365.72 328.55 366.69 333.82 369.28 C 329.53 362.91 325.50 356.33 320.43 350.54 C 317.97 347.41 314.80 344.69 313.43 340.84 C 314.89 341.11 316.55 341.18 317.68 342.31 C 322.71 346.65 326.91 351.85 331.16 356.92 C 336.52 363.20 339.77 370.86 344.40 377.62 C 351.63 386.50 355.71 397.32 360.03 407.78 C 362.83 414.80 364.43 422.32 368.17 428.95 C 372.53 437.08 374.67 446.19 375.71 455.30 C 376.53 463.84 377.70 472.36 377.76 480.96 C 378.18 487.00 377.42 493.06 378.01 499.08 C 378.44 502.69 380.05 507.01 383.95 508.04 C 390.25 509.94 396.55 511.88 402.70 514.23 C 416.82 519.49 431.96 522.62 447.08 521.50 C 459.21 520.58 470.41 515.38 481.29 510.30 C 497.11 502.26 513.71 495.23 531.30 492.30 C 539.38 490.89 548.12 489.18 554.13 483.14 C 559.52 477.33 563.07 469.84 564.63 462.10 C 566.27 451.99 566.60 441.68 566.13 431.45 C 564.31 436.46 562.31 441.64 558.58 445.57 C 556.87 447.51 553.75 447.80 551.66 446.30 C 549.87 445.15 549.38 442.93 548.60 441.11 C 546.69 445.97 545.27 451.56 541.01 454.97 C 538.70 456.93 534.63 455.96 533.93 452.86 C 532.80 448.01 533.79 442.97 534.76 438.17 C 533.31 441.77 531.82 445.42 529.50 448.57 C 527.93 451.00 524.97 452.76 522.07 451.65 C 519.55 451.07 518.67 448.49 518.02 446.32 C 516.51 446.54 514.85 447.37 513.41 446.48 C 510.89 445.00 510.43 441.77 510.23 439.12 C 509.95 433.19 510.74 427.27 511.76 421.45 C 512.84 416.23 514.05 410.76 517.52 406.54 C 520.89 402.08 525.84 399.29 530.55 396.47 C 538.23 392.07 544.93 386.13 550.92 379.65 C 542.45 375.29 535.40 368.14 532.24 359.04 C 520.38 354.55 511.36 345.10 503.29 335.66 C 501.23 333.10 498.45 330.36 499.27 326.75 C 502.96 328.97 505.46 332.56 508.54 335.49 C 515.47 342.19 522.48 348.93 530.74 354.01 C 529.37 348.77 528.24 343.37 525.54 338.63 C 522.81 333.82 519.31 329.45 515.15 325.81 C 513.25 324.05 510.81 322.49 510.40 319.70 C 514.60 319.79 517.69 322.85 520.83 325.24 C 524.76 328.26 528.46 331.73 530.83 336.15 C 535.96 344.87 535.40 355.72 540.75 364.35 C 543.76 369.40 548.55 372.99 553.39 376.15 C 554.70 373.86 556.07 371.61 557.35 369.31 C 559.97 364.91 560.46 359.63 563.15 355.26 C 571.23 341.10 582.78 328.32 597.81 321.47 C 584.47 308.05 568.12 298.33 553.47 286.50 C 545.12 279.89 538.42 271.56 530.79 264.20 C 521.30 254.84 511.15 245.81 499.04 240.00 C 492.09 236.72 484.84 233.57 477.07 233.07 C 470.00 232.57 462.66 231.83 455.82 234.18 M 577.04 345.10 C 580.82 344.10 585.54 343.74 588.28 347.12 C 583.93 348.35 578.88 348.00 575.50 351.53 C 564.83 361.59 562.00 377.27 551.38 387.40 C 545.22 393.00 538.80 398.48 531.27 402.16 C 525.73 404.94 520.07 408.93 518.25 415.18 C 515.88 423.24 515.76 431.78 515.95 440.12 C 519.27 433.40 521.18 426.11 524.17 419.25 C 525.49 416.61 526.59 413.62 529.03 411.79 C 532.00 411.61 530.63 414.45 530.11 416.14 C 527.27 424.03 524.43 431.93 521.72 439.86 C 521.59 442.35 520.79 447.18 524.16 447.65 C 525.70 445.99 526.69 443.92 527.56 441.86 C 530.63 434.39 533.40 426.65 538.08 420.00 C 539.36 418.50 540.60 416.38 542.84 416.43 C 544.89 417.02 543.82 419.60 543.81 421.09 C 542.31 430.61 539.14 439.90 539.10 449.61 C 544.35 440.30 545.86 429.37 551.22 420.13 C 552.16 417.55 556.50 418.01 556.36 420.93 C 555.19 427.88 552.87 435.03 554.85 442.08 C 561.96 433.17 562.26 421.23 562.80 410.38 C 562.89 406.46 567.24 405.44 570.22 404.33 C 580.74 400.86 591.20 394.44 596.00 384.05 C 601.54 373.07 605.48 361.28 607.72 349.19 C 609.17 341.27 606.76 333.09 602.12 326.63 C 592.40 330.67 583.90 337.16 577.04 345.10 M 284.82 433.96 C 285.44 441.68 286.66 449.35 287.23 457.07 C 287.80 466.57 283.66 475.37 281.64 484.46 C 280.55 489.12 280.29 494.58 283.60 498.45 C 286.53 503.07 292.69 503.69 295.83 508.15 C 300.27 514.63 310.35 513.43 315.59 508.62 C 317.95 503.58 314.50 497.58 316.92 492.57 C 320.35 492.97 319.39 498.00 320.39 500.47 C 326.20 499.05 328.28 492.29 328.14 486.98 C 328.10 480.13 323.01 475.04 318.65 470.37 C 312.96 464.40 309.30 456.65 307.75 448.58 C 306.40 440.48 307.68 432.27 308.29 424.15 C 300.81 428.15 293.17 432.13 284.82 433.96 M 552.27 491.23 C 543.22 496.66 532.42 497.16 522.42 499.70 C 507.31 503.63 493.07 510.21 479.21 517.29 C 486.42 526.95 496.22 534.20 506.11 540.91 C 521.42 551.47 539.48 556.73 556.45 563.88 C 556.67 564.16 557.13 564.72 557.36 565.00 C 555.85 568.04 551.91 566.19 549.36 565.82 C 534.15 561.29 518.84 556.18 505.31 547.71 C 493.75 539.81 481.70 531.57 474.11 519.50 C 470.15 521.14 466.17 522.74 462.07 523.96 C 448.15 528.39 433.15 527.77 419.01 524.77 C 408.51 522.42 398.56 518.21 388.32 515.00 C 384.59 521.95 382.79 529.70 382.07 537.52 C 395.69 533.97 410.75 536.90 422.44 544.64 C 431.09 549.96 439.43 555.79 448.43 560.52 C 458.37 566.03 469.55 569.01 479.25 574.98 C 477.76 576.83 475.43 576.07 473.54 575.67 C 467.59 574.15 461.97 571.61 456.18 569.60 C 442.29 564.62 430.15 556.05 417.68 548.38 C 409.44 543.29 399.53 541.61 389.98 541.97 C 385.77 542.41 380.89 542.53 377.88 545.96 C 374.10 549.80 369.66 553.47 367.84 558.73 C 365.70 565.82 365.81 573.31 365.62 580.65 C 374.10 570.76 387.98 569.52 400.08 568.19 C 405.76 567.88 412.01 565.97 417.27 569.00 C 414.06 572.24 409.21 571.75 405.08 572.68 C 395.00 574.56 384.65 576.04 375.19 580.19 C 368.33 583.11 365.47 590.52 362.90 596.95 C 360.32 602.20 358.18 607.92 358.74 613.88 C 360.05 625.49 361.78 637.05 364.12 648.50 C 370.79 641.04 379.09 635.04 388.33 631.19 C 399.92 626.41 413.02 627.02 424.95 630.12 C 437.69 633.36 448.27 641.51 459.73 647.56 C 462.63 634.76 464.94 621.64 470.64 609.70 C 475.12 601.32 481.61 592.95 491.28 590.51 C 489.20 588.45 487.00 586.45 485.48 583.92 C 485.75 583.51 486.29 582.68 486.56 582.27 C 490.16 582.48 492.83 585.45 495.49 587.58 C 502.81 595.24 509.23 603.95 513.20 613.84 C 520.38 629.83 523.47 647.19 529.21 663.68 C 531.30 672.03 534.65 679.99 538.82 687.51 C 547.27 684.57 556.26 686.37 564.85 687.59 C 573.81 689.03 582.91 689.27 591.98 689.37 C 604.43 689.06 617.17 687.50 628.42 681.81 C 628.02 678.94 627.73 676.05 626.88 673.28 C 624.33 665.77 622.40 658.08 620.42 650.41 C 617.72 637.38 617.96 623.80 613.87 611.05 C 610.27 600.75 603.46 592.04 598.82 582.25 C 594.69 573.75 592.62 564.47 590.94 555.23 C 587.90 538.04 580.86 521.82 572.21 506.75 C 567.81 499.05 564.54 490.81 561.33 482.57 C 558.81 485.92 555.98 489.17 552.27 491.23 M 372.41 647.82 C 373.14 657.20 373.35 666.77 376.30 675.80 C 378.51 683.73 382.16 691.26 387.31 697.71 C 391.46 703.21 397.39 707.22 400.69 713.38 C 408.33 713.02 415.67 710.22 422.07 706.11 C 433.10 699.05 442.33 688.42 445.68 675.56 C 441.17 672.74 436.31 670.55 431.71 667.90 C 431.72 667.38 431.72 666.34 431.73 665.82 C 434.67 664.97 437.51 666.56 440.22 667.49 C 439.84 660.12 442.00 652.85 445.48 646.41 C 433.67 639.05 420.14 633.93 406.03 634.42 C 393.53 634.15 381.96 640.22 372.41 647.82 M 450.29 678.68 C 447.62 688.03 441.99 696.32 434.95 702.94 C 426.26 711.08 415.06 717.14 402.97 717.64 C 410.03 727.83 417.87 737.53 426.79 746.15 C 436.20 755.10 446.49 763.13 455.24 772.77 C 469.04 787.81 482.98 802.74 497.50 817.10 C 502.75 812.70 508.98 809.06 515.91 808.38 C 521.93 807.72 527.97 809.15 533.98 808.47 C 536.75 808.24 538.93 806.41 540.81 804.53 C 535.03 795.43 527.04 788.12 519.91 780.14 C 510.07 769.22 502.04 756.82 494.83 744.05 C 485.91 728.37 479.14 711.36 467.92 697.09 C 462.98 690.13 457.25 683.68 450.29 678.68 M 557.58 693.30 C 560.05 698.82 562.65 704.29 565.48 709.64 C 571.95 722.29 578.43 735.25 588.28 745.68 C 595.14 753.14 604.52 757.55 611.90 764.42 C 616.34 763.78 620.26 761.47 623.68 758.68 C 634.09 750.24 642.97 739.36 647.18 726.48 C 641.90 721.87 636.63 717.11 632.68 711.27 C 628.23 704.83 625.47 697.43 622.99 690.06 C 602.19 698.04 579.19 696.54 557.58 693.30 M 651.08 729.66 C 649.63 735.70 647.00 741.40 643.71 746.65 C 637.38 756.66 628.61 766.03 616.92 769.44 C 624.41 777.58 630.99 786.49 637.79 795.20 C 643.63 802.76 649.49 810.31 654.65 818.35 C 662.54 830.34 670.92 842.00 679.34 853.62 C 683.79 859.95 689.27 865.48 693.56 871.94 C 698.94 867.37 702.81 860.43 710.04 858.53 C 716.61 857.99 721.27 863.43 726.58 866.34 C 722.78 856.19 717.86 846.51 713.32 836.68 C 702.70 813.83 692.60 790.71 680.38 768.65 C 672.49 754.44 664.41 739.53 651.08 729.66 M 547.17 804.38 C 546.06 809.35 541.51 812.50 536.91 813.91 C 528.53 815.95 519.61 812.25 511.41 815.45 C 504.95 817.95 498.19 822.35 496.54 829.55 C 493.88 840.98 492.73 852.92 487.65 863.66 C 484.29 870.86 478.90 876.79 473.73 882.72 C 470.64 886.48 466.74 890.03 465.67 894.98 C 464.92 898.32 467.17 901.54 469.98 903.14 C 477.61 907.54 486.82 907.45 495.29 906.25 C 503.70 904.88 510.14 898.65 515.55 892.52 C 521.48 885.63 527.18 878.43 531.36 870.32 C 533.34 866.68 534.86 862.77 537.29 859.39 C 540.70 854.74 545.88 851.89 549.79 847.72 C 553.96 843.34 558.16 838.51 559.62 832.49 C 560.87 825.79 559.86 818.76 557.61 812.38 C 556.00 807.90 551.38 805.73 547.17 804.38 M 709.58 863.57 C 706.39 866.04 703.99 869.34 701.14 872.17 C 698.91 874.58 696.25 876.63 694.49 879.44 C 692.71 882.93 693.55 887.01 694.35 890.66 C 696.23 897.55 698.63 904.29 700.57 911.16 C 702.59 918.70 699.29 926.64 694.09 932.11 C 690.46 935.88 689.80 942.56 693.50 946.51 C 697.50 949.91 702.92 950.91 708.02 951.17 C 715.21 951.54 722.47 951.47 729.60 950.37 C 736.32 949.36 740.94 943.62 744.08 938.04 C 749.41 928.24 748.01 916.72 748.07 906.00 C 747.70 895.73 747.64 884.75 742.38 875.59 C 740.15 871.39 735.26 870.15 731.12 868.70 C 729.52 869.44 727.92 870.78 726.04 870.28 C 721.44 869.00 718.09 865.22 713.66 863.54 C 712.33 863.07 710.73 862.34 709.58 863.57 Z" />
        <path fill="#020202" opacity="1.00"
            d=" M 390.55 168.76 C 394.12 168.68 398.26 166.42 401.50 168.37 C 402.61 171.82 404.54 175.82 403.29 179.39 C 396.23 182.14 388.46 182.48 381.06 183.96 C 378.29 184.16 375.27 185.53 372.62 184.31 C 370.82 181.27 370.82 177.43 370.47 173.98 C 370.24 172.37 372.18 171.97 373.32 171.62 C 379.03 170.51 384.79 169.64 390.55 168.76 Z" />
        <path fill="#020202" opacity="1.00"
            d=" M 368.17 204.99 C 371.59 202.36 374.98 199.69 378.34 196.99 C 374.72 202.15 371.14 207.35 368.16 212.91 C 365.75 212.24 363.05 212.14 360.92 210.72 C 360.04 208.06 360.58 205.13 361.40 202.51 C 363.67 203.29 365.94 204.08 368.17 204.99 Z" />
        <path fill="#020202" opacity="1.00"
            d=" M 468.39 264.51 C 469.21 263.27 470.76 265.14 470.69 266.15 C 470.57 269.00 469.50 271.71 468.64 274.41 C 462.14 292.90 456.18 311.70 447.18 329.18 C 446.05 331.09 445.24 333.48 443.10 334.50 C 440.44 334.01 442.25 331.16 442.71 329.65 C 450.22 312.35 455.55 294.22 462.87 276.85 C 464.76 272.78 465.67 268.11 468.39 264.51 Z" />
        <path fill="#020202" opacity="1.00"
            d=" M 344.24 345.46 C 345.85 345.36 346.60 347.36 347.56 348.38 C 364.33 373.28 382.11 398.45 406.74 416.22 C 420.84 426.37 437.18 432.62 453.30 438.73 C 454.91 439.57 458.72 440.39 456.45 442.70 C 452.80 442.62 449.45 440.95 446.02 439.89 C 428.84 434.11 411.96 426.62 397.66 415.30 C 380.56 401.73 365.92 385.12 354.27 366.67 C 350.54 360.73 346.35 355.00 343.46 348.60 C 343.02 347.69 342.69 345.29 344.24 345.46 Z" />
        <path fill="#020202" opacity="1.00"
            d=" M 378.56 435.53 C 381.87 437.47 384.84 439.93 388.05 442.03 C 396.49 447.62 405.76 451.77 414.91 456.05 C 422.43 459.42 430.02 462.92 438.17 464.50 C 451.94 467.34 466.09 466.49 480.02 465.71 C 482.64 465.72 485.52 464.60 487.99 465.86 C 487.63 468.58 484.42 468.64 482.35 469.20 C 468.00 471.65 453.15 472.24 438.79 469.56 C 428.70 467.71 419.38 463.21 410.23 458.76 C 400.73 453.93 391.11 449.04 382.92 442.13 C 381.01 440.30 378.35 438.52 378.56 435.53 Z" />
    </g>
    <g id="#f0b58bff">
        <path fill="#f0b58b" opacity="1.00"
            d=" M 382.19 133.92 C 389.97 138.89 397.15 144.88 403.22 151.84 C 403.84 150.28 404.28 148.65 404.39 146.97 C 405.83 150.76 407.85 154.37 410.64 157.33 C 416.34 163.01 417.29 171.61 417.32 179.25 C 418.37 178.52 419.43 177.80 420.50 177.08 C 420.39 178.72 420.47 180.37 420.87 181.96 C 428.75 179.01 433.49 171.83 439.55 166.47 C 441.55 164.28 445.84 164.65 446.34 167.97 C 445.98 179.68 438.36 189.23 434.74 199.96 C 434.10 209.58 437.00 219.48 442.73 227.25 C 444.82 230.32 447.11 233.25 449.40 236.17 C 444.06 246.96 436.09 256.12 427.84 264.78 C 421.85 271.11 414.39 278.04 404.96 276.95 C 394.36 274.55 388.83 264.23 384.50 255.24 C 395.81 255.62 406.41 250.02 414.63 242.64 C 416.24 241.06 418.42 239.08 417.67 236.56 C 414.52 236.68 412.35 239.21 409.86 240.79 C 403.67 245.24 396.41 248.10 388.91 249.38 C 382.80 250.15 377.02 247.16 372.10 243.88 C 367.97 240.58 364.93 236.16 361.73 232.01 C 369.80 230.50 377.86 228.96 385.90 227.30 C 387.41 226.82 389.61 226.89 390.18 225.04 C 390.28 223.88 390.35 222.73 390.38 221.57 C 391.90 220.89 393.55 219.42 392.10 217.74 C 389.72 217.31 387.34 218.05 385.00 218.42 C 375.81 220.27 366.54 221.80 357.45 224.12 C 352.41 212.98 352.36 200.35 347.02 189.32 C 350.71 188.78 354.42 188.28 358.12 187.75 C 358.72 191.33 358.23 195.48 360.98 198.30 C 363.03 194.80 362.10 190.70 361.66 186.92 C 361.18 182.95 359.92 179.12 358.11 175.56 C 352.76 175.37 347.47 176.30 342.17 176.93 C 340.12 170.80 339.27 164.37 339.64 157.91 C 343.77 157.92 347.32 155.65 350.93 153.95 C 357.48 150.62 364.22 147.49 370.05 142.94 C 371.49 141.83 372.28 140.14 373.28 138.66 C 377.07 139.27 379.66 136.19 382.19 133.92 M 390.55 168.76 C 384.79 169.64 379.03 170.51 373.32 171.62 C 372.18 171.97 370.24 172.37 370.47 173.98 C 370.82 177.43 370.82 181.27 372.62 184.31 C 375.27 185.53 378.29 184.16 381.06 183.96 C 388.46 182.48 396.23 182.14 403.29 179.39 C 404.54 175.82 402.61 171.82 401.50 168.37 C 398.26 166.42 394.12 168.68 390.55 168.76 M 368.17 204.99 C 365.94 204.08 363.67 203.29 361.40 202.51 C 360.58 205.13 360.04 208.06 360.92 210.72 C 363.05 212.14 365.75 212.24 368.16 212.91 C 371.14 207.35 374.72 202.15 378.34 196.99 C 374.98 199.69 371.59 202.36 368.17 204.99 Z" />
        <path fill="#f0b58b" opacity="1.00"
            d=" M 577.04 345.10 C 583.90 337.16 592.40 330.67 602.12 326.63 C 606.76 333.09 609.17 341.27 607.72 349.19 C 605.48 361.28 601.54 373.07 596.00 384.05 C 591.20 394.44 580.74 400.86 570.22 404.33 C 567.24 405.44 562.89 406.46 562.80 410.38 C 562.26 421.23 561.96 433.17 554.85 442.08 C 552.87 435.03 555.19 427.88 556.36 420.93 C 556.50 418.01 552.16 417.55 551.22 420.13 C 545.86 429.37 544.35 440.30 539.10 449.61 C 539.14 439.90 542.31 430.61 543.81 421.09 C 543.82 419.60 544.89 417.02 542.84 416.43 C 540.60 416.38 539.36 418.50 538.08 420.00 C 533.40 426.65 530.63 434.39 527.56 441.86 C 526.69 443.92 525.70 445.99 524.16 447.65 C 520.79 447.18 521.59 442.35 521.72 439.86 C 524.43 431.93 527.27 424.03 530.11 416.14 C 530.63 414.45 532.00 411.61 529.03 411.79 C 526.59 413.62 525.49 416.61 524.17 419.25 C 521.18 426.11 519.27 433.40 515.95 440.12 C 515.76 431.78 515.88 423.24 518.25 415.18 C 520.07 408.93 525.73 404.94 531.27 402.16 C 538.80 398.48 545.22 393.00 551.38 387.40 C 562.00 377.27 564.83 361.59 575.50 351.53 C 578.88 348.00 583.93 348.35 588.28 347.12 C 585.54 343.74 580.82 344.10 577.04 345.10 Z" />
        <path fill="#f0b58b" opacity="1.00"
            d=" M 284.82 433.96 C 293.17 432.13 300.81 428.15 308.29 424.15 C 307.68 432.27 306.40 440.48 307.75 448.58 C 309.30 456.65 312.96 464.40 318.65 470.37 C 323.01 475.04 328.10 480.13 328.14 486.98 C 328.28 492.29 326.20 499.05 320.39 500.47 C 319.39 498.00 320.35 492.97 316.92 492.57 C 314.50 497.58 317.95 503.58 315.59 508.62 C 310.35 513.43 300.27 514.63 295.83 508.15 C 292.69 503.69 286.53 503.07 283.60 498.45 C 280.29 494.58 280.55 489.12 281.64 484.46 C 283.66 475.37 287.80 466.57 287.23 457.07 C 286.66 449.35 285.44 441.68 284.82 433.96 Z" />
        <path fill="#f0b58b" opacity="1.00"
            d=" M 372.41 647.82 C 381.96 640.22 393.53 634.15 406.03 634.42 C 420.14 633.93 433.67 639.05 445.48 646.41 C 442.00 652.85 439.84 660.12 440.22 667.49 C 437.51 666.56 434.67 664.97 431.73 665.82 C 431.72 666.34 431.72 667.38 431.71 667.90 C 436.31 670.55 441.17 672.74 445.68 675.56 C 442.33 688.42 433.10 699.05 422.07 706.11 C 415.67 710.22 408.33 713.02 400.69 713.38 C 397.39 707.22 391.46 703.21 387.31 697.71 C 382.16 691.26 378.51 683.73 376.30 675.80 C 373.35 666.77 373.14 657.20 372.41 647.82 Z" />
        <path fill="#f0b58b" opacity="1.00"
            d=" M 557.58 693.30 C 579.19 696.54 602.19 698.04 622.99 690.06 C 625.47 697.43 628.23 704.83 632.68 711.27 C 636.63 717.11 641.90 721.87 647.18 726.48 C 642.97 739.36 634.09 750.24 623.68 758.68 C 620.26 761.47 616.34 763.78 611.90 764.42 C 604.52 757.55 595.14 753.14 588.28 745.68 C 578.43 735.25 571.95 722.29 565.48 709.64 C 562.65 704.29 560.05 698.82 557.58 693.30 Z" />
    </g>
    <g id="#f11b27ff">
        <path fill="var(--shirt-color, grey)" opacity="1.00"
            d=" M 455.82 234.18 C 462.66 231.83 470.00 232.57 477.07 233.07 C 484.84 233.57 492.09 236.72 499.04 240.00 C 511.15 245.81 521.30 254.84 530.79 264.20 C 538.42 271.56 545.12 279.89 553.47 286.50 C 568.12 298.33 584.47 308.05 597.81 321.47 C 582.78 328.32 571.23 341.10 563.15 355.26 C 560.46 359.63 559.97 364.91 557.35 369.31 C 556.07 371.61 554.70 373.86 553.39 376.15 C 548.55 372.99 543.76 369.40 540.75 364.35 C 535.40 355.72 535.96 344.87 530.83 336.15 C 528.46 331.73 524.76 328.26 520.83 325.24 C 517.69 322.85 514.60 319.79 510.40 319.70 C 510.81 322.49 513.25 324.05 515.15 325.81 C 519.31 329.45 522.81 333.82 525.54 338.63 C 528.24 343.37 529.37 348.77 530.74 354.01 C 522.48 348.93 515.47 342.19 508.54 335.49 C 505.46 332.56 502.96 328.97 499.27 326.75 C 498.45 330.36 501.23 333.10 503.29 335.66 C 511.36 345.10 520.38 354.55 532.24 359.04 C 535.40 368.14 542.45 375.29 550.92 379.65 C 544.93 386.13 538.23 392.07 530.55 396.47 C 525.84 399.29 520.89 402.08 517.52 406.54 C 514.05 410.76 512.84 416.23 511.76 421.45 C 510.74 427.27 509.95 433.19 510.23 439.12 C 510.43 441.77 510.89 445.00 513.41 446.48 C 514.85 447.37 516.51 446.54 518.02 446.32 C 518.67 448.49 519.55 451.07 522.07 451.65 C 524.97 452.76 527.93 451.00 529.50 448.57 C 531.82 445.42 533.31 441.77 534.76 438.17 C 533.79 442.97 532.80 448.01 533.93 452.86 C 534.63 455.96 538.70 456.93 541.01 454.97 C 545.27 451.56 546.69 445.97 548.60 441.11 C 549.38 442.93 549.87 445.15 551.66 446.30 C 553.75 447.80 556.87 447.51 558.58 445.57 C 562.31 441.64 564.31 436.46 566.13 431.45 C 566.60 441.68 566.27 451.99 564.63 462.10 C 563.07 469.84 559.52 477.33 554.13 483.14 C 548.12 489.18 539.38 490.89 531.30 492.30 C 513.71 495.23 497.11 502.26 481.29 510.30 C 470.41 515.38 459.21 520.58 447.08 521.50 C 431.96 522.62 416.82 519.49 402.70 514.23 C 396.55 511.88 390.25 509.94 383.95 508.04 C 380.05 507.01 378.44 502.69 378.01 499.08 C 377.42 493.06 378.18 487.00 377.76 480.96 C 377.70 472.36 376.53 463.84 375.71 455.30 C 374.67 446.19 372.53 437.08 368.17 428.95 C 364.43 422.32 362.83 414.80 360.03 407.78 C 355.71 397.32 351.63 386.50 344.40 377.62 C 339.77 370.86 336.52 363.20 331.16 356.92 C 326.91 351.85 322.71 346.65 317.68 342.31 C 316.55 341.18 314.89 341.11 313.43 340.84 C 314.80 344.69 317.97 347.41 320.43 350.54 C 325.50 356.33 329.53 362.91 333.82 369.28 C 328.55 366.69 322.71 365.72 316.96 364.85 C 316.90 367.90 320.10 368.69 322.33 369.69 C 326.15 371.14 329.88 372.82 333.39 374.93 C 330.41 381.90 329.79 389.52 329.12 396.99 C 328.68 401.09 328.10 405.84 324.48 408.45 C 320.71 411.18 316.51 413.28 312.43 415.50 C 303.91 419.69 295.82 424.86 286.72 427.75 C 284.26 428.48 281.54 429.10 279.05 428.18 C 276.95 427.04 276.35 424.51 275.70 422.41 C 274.50 417.58 273.56 412.70 272.68 407.81 C 271.96 403.55 271.37 398.80 274.00 395.04 C 277.55 389.48 280.43 383.49 281.79 377.00 C 283.32 369.79 287.02 362.78 286.11 355.26 C 283.13 356.93 282.71 360.52 281.62 363.42 C 279.59 370.06 277.21 376.58 274.82 383.10 C 275.35 368.18 270.98 351.95 279.15 338.31 C 284.55 330.06 284.75 319.97 288.03 310.93 C 291.06 302.23 297.59 295.41 304.27 289.32 C 313.14 281.41 323.86 276.09 333.98 270.00 C 345.72 263.43 358.08 257.62 368.43 248.87 C 372.08 251.12 375.99 252.92 380.03 254.39 C 383.09 265.23 389.48 276.08 400.06 280.99 C 405.44 283.92 411.96 282.65 417.38 280.49 C 424.33 277.16 429.55 271.28 434.93 265.94 C 442.28 258.79 448.51 250.51 453.54 241.58 C 454.92 239.34 455.54 236.77 455.82 234.18 M 468.39 264.51 C 465.67 268.11 464.76 272.78 462.87 276.85 C 455.55 294.22 450.22 312.35 442.71 329.65 C 442.25 331.16 440.44 334.01 443.10 334.50 C 445.24 333.48 446.05 331.09 447.18 329.18 C 456.18 311.70 462.14 292.90 468.64 274.41 C 469.50 271.71 470.57 269.00 470.69 266.15 C 470.76 265.14 469.21 263.27 468.39 264.51 M 344.24 345.46 C 342.69 345.29 343.02 347.69 343.46 348.60 C 346.35 355.00 350.54 360.73 354.27 366.67 C 365.92 385.12 380.56 401.73 397.66 415.30 C 411.96 426.62 428.84 434.11 446.02 439.89 C 449.45 440.95 452.80 442.62 456.45 442.70 C 458.72 440.39 454.91 439.57 453.30 438.73 C 437.18 432.62 420.84 426.37 406.74 416.22 C 382.11 398.45 364.33 373.28 347.56 348.38 C 346.60 347.36 345.85 345.36 344.24 345.46 M 378.56 435.53 C 378.35 438.52 381.01 440.30 382.92 442.13 C 391.11 449.04 400.73 453.93 410.23 458.76 C 419.38 463.21 428.70 467.71 438.79 469.56 C 453.15 472.24 468.00 471.65 482.35 469.20 C 484.42 468.64 487.63 468.58 487.99 465.86 C 485.52 464.60 482.64 465.72 480.02 465.71 C 466.09 466.49 451.94 467.34 438.17 464.50 C 430.02 462.92 422.43 459.42 414.91 456.05 C 405.76 451.77 396.49 447.62 388.05 442.03 C 384.84 439.93 381.87 437.47 378.56 435.53 Z" />
    </g>
    <g id="#2b3dcdff">
        <path fill="var(--pants-color, grey)" opacity="1.00"
            d=" M 552.27 491.23 C 555.98 489.17 558.81 485.92 561.33 482.57 C 564.54 490.81 567.81 499.05 572.21 506.75 C 580.86 521.82 587.90 538.04 590.94 555.23 C 592.62 564.47 594.69 573.75 598.82 582.25 C 603.46 592.04 610.27 600.75 613.87 611.05 C 617.96 623.80 617.72 637.38 620.42 650.41 C 622.40 658.08 624.33 665.77 626.88 673.28 C 627.73 676.05 628.02 678.94 628.42 681.81 C 617.17 687.50 604.43 689.06 591.98 689.37 C 582.91 689.27 573.81 689.03 564.85 687.59 C 556.26 686.37 547.27 684.57 538.82 687.51 C 534.65 679.99 531.30 672.03 529.21 663.68 C 523.47 647.19 520.38 629.83 513.20 613.84 C 509.23 603.95 502.81 595.24 495.49 587.58 C 492.83 585.45 490.16 582.48 486.56 582.27 C 486.29 582.68 485.75 583.51 485.48 583.92 C 487.00 586.45 489.20 588.45 491.28 590.51 C 481.61 592.95 475.12 601.32 470.64 609.70 C 464.94 621.64 462.63 634.76 459.73 647.56 C 448.27 641.51 437.69 633.36 424.95 630.12 C 413.02 627.02 399.92 626.41 388.33 631.19 C 379.09 635.04 370.79 641.04 364.12 648.50 C 361.78 637.05 360.05 625.49 358.74 613.88 C 358.18 607.92 360.32 602.20 362.90 596.95 C 365.47 590.52 368.33 583.11 375.19 580.19 C 384.65 576.04 395.00 574.56 405.08 572.68 C 409.21 571.75 414.06 572.24 417.27 569.00 C 412.01 565.97 405.76 567.88 400.08 568.19 C 387.98 569.52 374.10 570.76 365.62 580.65 C 365.81 573.31 365.70 565.82 367.84 558.73 C 369.66 553.47 374.10 549.80 377.88 545.96 C 380.89 542.53 385.77 542.41 389.98 541.97 C 399.53 541.61 409.44 543.29 417.68 548.38 C 430.15 556.05 442.29 564.62 456.18 569.60 C 461.97 571.61 467.59 574.15 473.54 575.67 C 475.43 576.07 477.76 576.83 479.25 574.98 C 469.55 569.01 458.37 566.03 448.43 560.52 C 439.43 555.79 431.09 549.96 422.44 544.64 C 410.75 536.90 395.69 533.97 382.07 537.52 C 382.79 529.70 384.59 521.95 388.32 515.00 C 398.56 518.21 408.51 522.42 419.01 524.77 C 433.15 527.77 448.15 528.39 462.07 523.96 C 466.17 522.74 470.15 521.14 474.11 519.50 C 481.70 531.57 493.75 539.81 505.31 547.71 C 518.84 556.18 534.15 561.29 549.36 565.82 C 551.91 566.19 555.85 568.04 557.36 565.00 C 557.13 564.72 556.67 564.16 556.45 563.88 C 539.48 556.73 521.42 551.47 506.11 540.91 C 496.22 534.20 486.42 526.95 479.21 517.29 C 493.07 510.21 507.31 503.63 522.42 499.70 C 532.42 497.16 543.22 496.66 552.27 491.23 Z" />
        <path fill="var(--socks-color, grey)" opacity="1.00"
            d=" M 450.29 678.68 C 457.25 683.68 462.98 690.13 467.92 697.09 C 479.14 711.36 485.91 728.37 494.83 744.05 C 502.04 756.82 510.07 769.22 519.91 780.14 C 527.04 788.12 535.03 795.43 540.81 804.53 C 538.93 806.41 536.75 808.24 533.98 808.47 C 527.97 809.15 521.93 807.72 515.91 808.38 C 508.98 809.06 502.75 812.70 497.50 817.10 C 482.98 802.74 469.04 787.81 455.24 772.77 C 446.49 763.13 436.20 755.10 426.79 746.15 C 417.87 737.53 410.03 727.83 402.97 717.64 C 415.06 717.14 426.26 711.08 434.95 702.94 C 441.99 696.32 447.62 688.03 450.29 678.68 Z" />
        <path fill="var(--socks-color, grey)" opacity="1.00"
            d=" M 651.08 729.66 C 664.41 739.53 672.49 754.44 680.38 768.65 C 692.60 790.71 702.70 813.83 713.32 836.68 C 717.86 846.51 722.78 856.19 726.58 866.34 C 721.27 863.43 716.61 857.99 710.04 858.53 C 702.81 860.43 698.94 867.37 693.56 871.94 C 689.27 865.48 683.79 859.95 679.34 853.62 C 670.92 842.00 662.54 830.34 654.65 818.35 C 649.49 810.31 643.63 802.76 637.79 795.20 C 630.99 786.49 624.41 777.58 616.92 769.44 C 628.61 766.03 637.38 756.66 643.71 746.65 C 647.00 741.40 649.63 735.70 651.08 729.66 Z" />
    </g>
    <g id="#4d4d4dff">
        <path fill="#4d4d4d" opacity="1.00"
            d=" M 547.17 804.38 C 551.38 805.73 556.00 807.90 557.61 812.38 C 559.86 818.76 560.87 825.79 559.62 832.49 C 558.16 838.51 553.96 843.34 549.79 847.72 C 545.88 851.89 540.70 854.74 537.29 859.39 C 534.86 862.77 533.34 866.68 531.36 870.32 C 527.18 878.43 521.48 885.63 515.55 892.52 C 510.14 898.65 503.70 904.88 495.29 906.25 C 486.82 907.45 477.61 907.54 469.98 903.14 C 467.17 901.54 464.92 898.32 465.67 894.98 C 466.74 890.03 470.64 886.48 473.73 882.72 C 478.90 876.79 484.29 870.86 487.65 863.66 C 492.73 852.92 493.88 840.98 496.54 829.55 C 498.19 822.35 504.95 817.95 511.41 815.45 C 519.61 812.25 528.53 815.95 536.91 813.91 C 541.51 812.50 546.06 809.35 547.17 804.38 Z" />
        <path fill="#4d4d4d" opacity="1.00"
            d=" M 709.58 863.57 C 710.73 862.34 712.33 863.07 713.66 863.54 C 718.09 865.22 721.44 869.00 726.04 870.28 C 727.92 870.78 729.52 869.44 731.12 868.70 C 735.26 870.15 740.15 871.39 742.38 875.59 C 747.64 884.75 747.70 895.73 748.07 906.00 C 748.01 916.72 749.41 928.24 744.08 938.04 C 740.94 943.62 736.32 949.36 729.60 950.37 C 722.47 951.47 715.21 951.54 708.02 951.17 C 702.92 950.91 697.50 949.91 693.50 946.51 C 689.80 942.56 690.46 935.88 694.09 932.11 C 699.29 926.64 702.59 918.70 700.57 911.16 C 698.63 904.29 696.23 897.55 694.35 890.66 C 693.55 887.01 692.71 882.93 694.49 879.44 C 696.25 876.63 698.91 874.58 701.14 872.17 C 703.99 869.34 706.39 866.04 709.58 863.57 Z" />
    </g>
</svg>