<?xml version="1.0" encoding="UTF-8" ?>
<!DOCTYPE svg PUBLIC "-//W3C//DTD SVG 1.1//EN" "http://www.w3.org/Graphics/SVG/1.1/DTD/svg11.dtd">
<svg width="1000pt" height="1000pt" viewBox="0 0 1000 1000" version="1.1" xmlns="http://www.w3.org/2000/svg">
    <g id="#020202ff">
        <path fill="#020202" opacity="1.00"
            d=" M 496.97 81.92 C 507.65 78.89 517.27 72.89 528.14 70.46 C 535.70 68.84 542.95 72.00 550.02 74.20 C 557.47 76.62 565.39 74.53 572.96 76.13 C 584.65 78.35 595.02 85.39 602.53 94.45 C 605.99 98.89 609.37 103.62 610.75 109.16 C 612.11 114.05 612.35 119.37 615.12 123.77 C 617.26 127.18 619.47 130.76 619.80 134.89 C 620.52 141.90 620.33 149.06 619.05 155.99 C 618.13 161.19 614.78 165.62 614.15 170.89 C 613.32 177.50 613.48 184.44 610.56 190.60 C 607.56 196.84 602.72 202.15 597.01 206.03 C 594.52 207.80 591.74 209.33 589.91 211.85 C 587.59 215.06 586.37 218.90 584.16 222.17 C 582.54 224.65 579.72 225.87 577.27 227.35 C 577.12 230.55 576.95 233.74 576.81 236.94 C 585.02 239.38 593.31 241.92 600.80 246.17 C 606.57 249.50 612.90 251.77 618.46 255.48 C 631.23 264.06 642.66 274.60 652.27 286.61 C 664.47 301.87 676.18 317.50 687.94 333.09 C 697.29 345.46 706.89 357.65 715.47 370.57 C 719.44 376.57 722.32 383.29 723.78 390.34 C 727.34 407.04 729.40 424.00 731.70 440.91 C 732.95 451.19 735.24 461.50 734.35 471.91 C 733.95 475.87 733.24 480.27 730.11 483.07 C 727.12 485.88 722.83 486.22 719.00 486.93 C 721.17 501.24 723.97 515.47 724.95 529.93 C 725.30 536.73 725.99 544.64 721.21 550.17 C 716.34 555.63 708.70 556.57 701.94 557.92 C 705.52 565.46 707.17 573.69 709.04 581.77 C 710.69 589.46 712.40 597.16 713.19 605.00 C 714.12 614.21 712.79 623.53 710.20 632.37 C 707.69 641.25 702.77 649.50 702.29 658.89 C 700.87 671.64 706.09 684.12 704.51 696.84 C 702.80 705.96 693.91 710.62 686.93 715.40 C 687.98 719.86 688.26 725.55 692.81 728.00 C 698.20 730.57 704.35 730.31 710.11 731.49 C 727.06 734.17 742.93 741.51 757.19 750.86 C 773.26 760.92 789.01 772.08 801.25 786.74 C 806.46 793.01 812.54 799.35 820.73 801.41 C 828.70 803.32 836.78 804.83 844.65 807.19 C 853.76 809.97 863.30 813.89 868.91 822.03 C 874.45 829.45 875.05 839.22 873.68 848.09 C 871.80 860.87 873.43 873.78 875.25 886.46 C 876.78 896.90 875.80 907.45 875.23 917.92 C 874.42 927.89 872.54 937.96 868.01 946.97 C 864.27 954.50 859.99 961.94 853.97 967.90 C 850.12 971.64 844.75 974.97 839.17 973.49 C 833.62 971.98 830.39 966.60 828.45 961.57 C 824.49 951.83 824.75 941.14 822.47 931.00 C 820.60 920.43 817.85 910.02 813.94 900.02 C 807.93 882.68 797.64 866.06 781.96 855.97 C 762.13 842.65 739.55 834.44 718.31 823.76 C 705.70 817.63 693.11 811.41 681.34 803.76 C 671.70 797.38 660.84 792.97 649.66 790.18 C 639.35 787.28 628.78 782.72 622.21 773.89 C 616.24 765.67 614.37 755.44 610.99 746.05 C 607.25 736.10 604.81 725.73 602.33 715.41 C 596.86 711.81 591.80 707.57 587.79 702.37 C 579.64 708.37 570.84 713.43 561.73 717.82 C 556.41 720.30 550.88 722.62 544.99 723.24 C 537.66 724.01 530.32 723.02 523.00 722.81 C 512.36 722.27 501.69 722.74 491.07 721.93 C 489.01 726.10 486.26 730.15 485.63 734.85 C 486.93 738.43 489.17 741.56 491.14 744.81 C 499.77 758.01 506.29 772.60 510.41 787.83 C 515.39 806.83 513.81 826.60 513.86 846.02 C 513.61 860.58 515.92 875.24 520.91 888.94 C 523.02 894.51 523.36 900.61 525.90 906.04 C 531.23 917.63 539.32 928.04 542.53 940.55 C 544.83 948.93 544.80 958.43 539.93 965.93 C 534.78 973.59 526.72 979.16 517.95 981.91 C 507.49 985.19 496.30 982.96 486.05 979.97 C 475.28 976.62 465.05 971.72 454.21 968.57 C 445.29 965.96 436.01 964.96 426.98 962.79 C 421.05 961.33 414.90 958.77 411.30 953.58 C 406.95 947.32 408.00 938.41 412.70 932.63 C 423.87 918.84 442.57 914.31 459.58 913.97 C 457.89 905.11 458.27 895.93 455.63 887.26 C 451.61 873.23 445.69 859.87 440.79 846.15 C 432.09 824.07 426.06 801.07 420.97 777.93 C 416.44 757.07 409.39 736.53 408.83 715.01 C 408.67 705.45 409.71 693.62 418.86 688.22 C 413.98 682.72 411.45 675.67 410.04 668.56 C 414.48 667.46 419.11 666.61 422.97 663.99 C 429.76 659.31 435.61 653.37 440.77 646.96 C 444.10 642.75 446.07 637.70 447.72 632.65 C 453.08 616.36 462.53 601.65 474.15 589.12 C 475.67 587.10 478.63 585.16 477.53 582.27 C 476.29 577.68 475.95 572.89 477.29 568.29 C 471.42 562.03 471.56 553.00 470.06 545.08 C 468.04 534.70 465.88 524.00 460.07 514.98 C 456.78 509.74 453.22 504.58 451.24 498.66 C 446.67 486.13 448.57 472.56 446.59 459.59 C 445.17 450.33 443.10 441.09 439.82 432.31 C 439.01 429.33 435.59 428.98 433.17 427.95 C 423.21 424.22 412.43 423.96 401.93 423.54 C 391.76 423.12 381.66 424.46 371.55 425.25 C 354.32 425.89 337.36 430.90 320.03 429.22 C 317.04 428.85 313.84 428.51 311.28 426.77 C 303.16 419.01 300.30 407.70 298.20 397.05 C 281.70 398.13 264.99 396.59 249.11 391.89 C 234.36 388.11 221.10 380.39 207.90 373.06 C 199.36 369.28 191.47 363.31 181.88 362.56 C 174.53 361.76 167.32 359.63 160.78 356.18 C 154.44 352.70 150.95 346.05 145.63 341.38 C 141.16 336.98 135.71 333.84 130.61 330.28 C 128.32 328.69 125.62 326.16 126.80 323.07 C 128.13 318.24 127.21 312.93 129.39 308.34 C 132.11 303.14 138.35 301.40 141.83 296.86 C 145.19 292.86 141.49 286.35 145.84 282.86 C 150.10 279.58 155.72 278.43 161.01 278.64 C 169.92 279.55 178.64 283.62 184.60 290.40 C 190.18 296.14 193.89 303.27 198.10 309.99 C 201.88 316.08 209.10 318.87 215.92 319.76 C 223.91 320.73 231.97 321.37 240.03 321.03 C 247.38 320.71 254.76 321.26 262.09 320.51 C 265.94 320.20 269.26 318.03 272.93 317.03 C 277.51 315.74 282.32 315.35 286.83 313.76 C 297.23 310.24 307.92 306.93 318.99 306.74 C 327.11 306.55 334.63 310.02 341.95 313.09 C 347.20 306.80 355.00 303.83 361.98 299.96 C 374.38 293.16 387.02 286.71 398.75 278.77 C 404.86 274.88 410.53 270.29 417.01 267.02 C 425.51 262.81 435.31 263.37 444.19 260.43 C 451.70 258.28 458.67 254.64 465.09 250.23 C 459.64 246.04 456.73 239.52 455.56 232.89 C 453.16 218.72 450.53 204.58 449.27 190.25 C 446.26 191.36 443.32 193.02 440.04 193.11 C 436.85 192.48 436.61 188.69 436.29 186.10 C 435.48 174.68 435.93 163.15 437.87 151.87 C 438.82 146.40 439.02 140.66 441.52 135.59 C 445.94 126.36 454.36 119.33 463.89 115.82 C 467.86 114.22 472.31 112.48 474.49 108.53 C 476.72 103.68 476.19 97.86 479.32 93.36 C 483.23 87.16 490.08 83.73 496.97 81.92 M 456.72 205.04 C 458.47 214.35 460.31 223.64 462.47 232.86 C 463.72 238.19 466.80 242.88 471.01 246.35 C 474.76 244.59 478.80 243.35 482.98 243.41 C 489.47 243.11 496.30 245.10 502.49 242.33 C 510.09 239.12 517.04 234.29 525.18 232.38 C 540.79 227.94 557.03 232.15 572.35 235.80 C 572.18 233.04 572.08 230.29 572.02 227.54 C 562.04 228.94 551.60 229.26 541.94 225.98 C 537.94 224.76 534.23 222.52 530.03 222.08 C 527.34 221.72 525.16 223.61 523.33 225.30 C 514.93 233.99 501.21 237.68 489.77 233.32 C 483.71 231.02 477.76 228.27 472.36 224.67 C 465.22 219.92 461.22 212.07 456.72 205.04 M 517.00 242.03 C 511.69 244.53 506.61 247.68 500.86 249.09 C 493.02 251.11 484.81 247.63 477.03 250.07 C 471.97 251.94 467.75 255.42 463.21 258.23 C 454.41 263.91 444.18 267.18 433.82 268.46 C 428.32 269.20 422.60 269.88 417.71 272.72 C 410.80 276.62 404.53 281.54 397.80 285.75 C 387.34 292.56 376.21 298.25 365.23 304.15 C 358.72 307.60 351.84 310.48 346.01 315.08 C 357.46 322.07 370.91 324.25 383.98 325.99 C 386.83 326.21 389.49 327.30 391.57 329.31 C 389.05 329.74 386.50 330.09 383.94 329.87 C 373.19 329.09 362.29 327.90 352.12 324.13 C 342.14 320.00 332.70 313.97 321.83 312.47 C 310.18 311.68 298.93 315.60 287.98 319.06 C 281.52 321.18 274.55 320.70 268.10 322.87 C 273.08 334.31 281.42 343.78 287.40 354.65 C 293.34 365.06 298.64 375.88 302.70 387.18 C 305.45 394.72 305.92 402.86 308.56 410.43 C 309.95 414.51 312.39 418.09 314.71 421.69 C 327.74 423.72 340.91 421.66 353.84 419.84 C 362.80 418.31 371.92 418.25 380.94 417.31 C 393.93 415.87 407.06 416.16 420.03 417.60 C 425.73 418.20 431.15 420.24 436.86 420.78 C 440.56 421.19 444.26 421.74 447.91 422.49 C 458.40 424.62 469.15 425.14 479.56 427.69 C 490.32 430.32 501.08 433.02 511.67 436.27 C 518.91 438.47 526.23 440.61 533.03 443.98 C 534.89 444.73 535.71 446.65 536.61 448.29 C 529.11 446.94 521.97 444.19 514.55 442.49 C 501.79 439.06 488.96 435.88 476.04 433.07 C 467.88 431.32 459.54 430.58 451.33 429.11 C 458.39 432.95 464.57 438.12 470.19 443.83 C 481.96 455.56 497.20 463.09 512.87 468.15 C 518.30 470.07 523.97 471.50 528.98 474.45 C 527.21 475.40 525.22 476.05 523.23 475.42 C 515.14 473.65 507.28 470.94 499.40 468.41 C 489.30 465.20 479.77 460.19 471.52 453.53 C 467.22 450.14 463.32 446.30 459.20 442.71 C 454.99 438.99 449.96 436.41 445.22 433.47 C 449.48 444.16 452.52 455.42 453.16 466.95 C 453.85 476.76 453.34 486.91 456.77 496.30 C 459.18 503.32 464.05 509.06 467.50 515.55 C 470.89 521.78 472.95 528.62 474.50 535.51 C 476.27 543.33 476.26 551.40 477.87 559.25 C 479.57 560.39 481.09 561.95 483.09 562.59 C 486.36 563.09 489.70 562.84 492.99 562.49 C 498.88 561.85 503.97 558.57 509.29 556.23 C 528.13 547.14 549.54 547.20 569.98 545.99 C 589.00 545.25 608.02 546.43 627.04 546.46 C 635.36 546.26 643.64 545.13 651.98 545.51 C 640.75 540.57 629.35 535.98 618.36 530.53 C 600.47 521.76 582.30 513.37 563.16 507.70 C 560.12 506.72 556.77 506.19 554.32 503.97 C 555.31 502.98 556.46 501.92 558.00 502.17 C 562.77 502.34 567.35 503.90 571.92 505.15 C 580.95 507.89 590.03 510.55 598.79 514.08 C 610.59 518.71 621.88 524.51 633.47 529.61 C 648.05 535.75 662.48 542.26 676.77 549.03 C 684.54 551.56 692.80 554.96 701.07 552.83 C 706.58 551.69 712.69 550.96 717.01 546.99 C 720.70 543.00 720.11 537.03 720.03 532.01 C 719.23 517.68 716.65 503.54 714.36 489.39 C 712.25 477.06 712.40 464.48 710.79 452.09 C 709.72 445.55 705.16 440.38 702.82 434.31 C 699.32 426.66 699.06 418.13 698.56 409.88 C 697.97 400.88 695.77 392.01 692.41 383.65 C 690.75 379.48 688.29 375.65 686.98 371.33 C 689.52 370.16 691.13 372.84 692.37 374.60 C 698.47 384.47 702.33 395.71 703.38 407.27 C 704.13 415.53 703.95 424.09 707.15 431.90 C 709.53 438.48 714.36 444.09 715.39 451.16 C 716.72 461.81 717.22 472.54 718.42 483.21 C 721.86 481.84 726.76 481.40 728.05 477.28 C 729.66 471.67 729.10 465.72 728.54 460.00 C 725.56 438.66 723.13 417.23 719.21 396.03 C 718.00 388.21 715.54 380.51 711.13 373.89 C 701.36 358.90 690.07 344.99 679.35 330.68 C 668.76 316.88 658.61 302.75 647.79 289.13 C 639.00 277.99 628.41 268.34 616.72 260.31 C 609.30 255.31 600.76 252.40 592.93 248.14 C 586.14 244.38 578.48 242.79 571.02 240.98 C 563.07 239.14 555.01 237.83 546.93 236.79 C 536.72 235.46 526.21 237.52 517.00 242.03 M 148.91 287.22 C 148.32 291.08 149.27 295.42 146.82 298.81 C 143.93 303.68 138.31 305.68 134.53 309.65 C 131.72 314.23 133.60 320.10 131.39 324.98 C 137.60 329.20 144.19 332.98 149.58 338.28 C 154.24 342.28 157.31 347.98 162.63 351.23 C 169.18 354.84 176.56 356.60 183.96 357.38 C 192.47 358.37 199.72 363.19 207.29 366.76 C 214.26 369.98 220.64 374.30 227.66 377.40 C 248.93 388.11 273.04 392.40 296.74 391.78 C 291.83 377.98 285.20 364.86 277.88 352.19 C 272.63 343.20 265.75 334.76 263.45 324.39 C 259.00 325.14 254.51 325.57 250.00 325.68 C 241.31 325.86 232.61 326.59 223.92 325.82 C 215.49 325.40 206.47 324.77 199.40 319.62 C 194.23 316.27 191.69 310.48 188.51 305.46 C 183.78 297.53 177.60 289.71 168.66 286.42 C 162.44 283.67 154.71 283.26 148.91 287.22 M 623.00 553.83 C 601.67 554.10 580.35 552.24 559.04 553.64 C 545.45 554.42 531.54 554.98 518.65 559.78 C 512.72 561.93 507.25 565.12 501.39 567.42 C 494.85 569.96 487.68 569.57 480.83 569.00 C 480.97 574.52 482.63 579.79 484.37 584.98 C 492.67 584.44 501.01 584.79 509.27 585.76 C 523.03 587.38 536.97 586.59 550.67 584.78 C 553.52 584.41 556.40 584.45 559.28 584.61 C 555.80 586.55 551.93 587.62 548.01 588.17 C 535.47 590.09 522.73 591.08 510.05 590.32 C 501.23 589.63 492.39 589.08 483.54 588.84 C 487.96 595.50 493.63 601.32 500.38 605.63 C 514.26 614.61 530.53 618.71 546.44 622.51 C 552.66 624.12 559.28 624.34 565.13 627.23 C 560.16 630.14 554.34 628.72 549.01 628.00 C 537.05 625.93 525.19 623.11 513.70 619.21 C 499.77 614.36 486.73 605.21 479.98 591.79 C 468.69 604.66 458.91 619.18 453.55 635.57 C 451.28 642.83 447.31 649.51 442.06 655.02 C 434.70 662.89 426.48 670.98 415.61 673.47 C 418.30 678.84 422.13 683.48 426.04 688.01 C 434.96 700.39 449.80 706.34 463.74 711.11 C 474.37 713.12 485.12 714.71 495.89 715.66 C 508.97 715.73 522.05 715.84 535.11 716.66 C 537.09 707.23 541.84 698.77 546.42 690.41 C 551.06 682.31 556.07 674.30 562.54 667.51 C 564.69 665.16 567.54 663.63 570.44 662.38 C 568.13 668.03 563.60 672.21 560.29 677.21 C 552.06 689.62 544.73 702.76 539.82 716.86 C 545.39 716.61 550.87 715.30 555.94 712.97 C 565.96 708.39 575.71 703.15 584.67 696.71 C 595.08 690.10 605.83 683.88 617.26 679.19 C 619.22 678.51 622.64 677.05 623.34 680.04 C 622.35 681.87 620.45 682.85 618.73 683.85 C 609.11 688.97 599.78 694.63 590.55 700.43 C 605.23 713.26 624.53 720.57 644.02 720.62 C 660.62 720.67 678.03 716.82 691.14 706.13 C 694.66 703.16 699.17 700.08 699.41 695.01 C 700.00 683.90 695.90 673.13 696.34 662.02 C 696.34 654.46 698.12 647.03 701.08 640.11 C 705.56 629.36 708.28 617.66 707.13 605.97 C 705.56 590.09 700.51 574.85 697.75 559.18 C 692.83 559.48 687.87 559.29 683.08 558.11 C 674.06 555.94 665.05 553.57 655.81 552.56 C 644.84 551.48 633.96 553.90 623.00 553.83 M 415.86 707.01 C 414.69 721.04 417.62 734.97 420.79 748.55 C 428.38 741.89 438.15 738.53 447.72 735.86 C 458.16 733.23 469.04 731.33 479.82 732.72 C 481.22 728.59 483.02 724.59 485.57 721.04 C 475.54 719.09 465.00 718.90 455.54 714.69 C 443.39 709.66 430.92 703.58 422.65 692.98 C 417.61 695.70 416.40 701.80 415.86 707.01 M 608.85 718.99 C 611.58 727.66 613.76 736.51 617.00 745.03 C 620.52 755.16 622.02 767.05 630.62 774.43 C 639.64 782.31 651.79 784.19 662.79 787.83 C 661.00 778.84 662.38 769.56 665.12 760.91 C 668.89 749.17 675.07 737.43 685.52 730.35 C 683.17 726.79 681.79 722.72 681.26 718.51 C 658.93 730.01 631.42 729.59 608.85 718.99 M 672.51 760.56 C 669.60 769.18 667.12 778.64 669.47 787.69 C 670.39 791.91 675.14 792.72 678.33 794.66 C 685.79 798.87 692.97 803.57 700.60 807.51 C 715.02 815.01 729.87 821.65 744.59 828.54 C 762.41 836.73 780.65 844.88 795.73 857.69 C 794.18 847.42 794.03 836.90 795.85 826.65 C 797.43 817.61 800.89 808.21 808.63 802.65 C 800.78 797.09 795.56 788.84 788.70 782.24 C 778.48 772.25 766.79 763.88 754.61 756.47 C 742.19 748.59 728.78 741.84 714.30 738.80 C 706.53 736.98 698.42 736.88 690.84 734.25 C 681.41 740.10 676.41 750.59 672.51 760.56 M 439.80 744.58 C 433.37 747.04 426.67 749.87 422.37 755.52 C 428.86 780.52 433.30 806.06 441.61 830.58 C 447.55 849.17 455.78 866.97 461.19 885.74 C 464.44 896.33 463.15 907.69 466.57 918.25 C 468.01 922.90 470.03 928.36 474.97 930.26 C 477.75 930.42 479.54 927.83 480.51 925.57 C 483.22 919.06 483.61 911.83 486.43 905.36 C 488.01 901.66 491.91 899.40 495.86 899.31 C 503.74 898.41 511.37 900.89 518.81 903.13 C 517.41 893.17 512.58 884.15 510.75 874.31 C 508.97 864.65 507.55 854.84 508.04 844.98 C 508.05 826.97 509.03 808.69 504.78 791.03 C 502.55 781.48 498.67 772.43 494.54 763.59 C 490.42 754.65 484.45 746.73 480.16 737.88 C 466.43 737.37 452.68 739.87 439.80 744.58 M 813.50 806.52 C 809.02 808.16 806.73 812.85 805.12 817.02 C 800.67 829.62 800.81 843.23 801.34 856.41 C 801.60 859.78 801.51 863.51 803.72 866.32 C 818.47 884.99 825.05 908.73 828.03 931.99 C 829.58 942.51 828.94 953.93 834.70 963.33 C 836.44 966.38 840.00 969.24 843.68 967.63 C 849.97 965.05 853.95 959.07 857.63 953.63 C 861.97 946.26 866.77 938.78 868.13 930.18 C 869.57 921.53 869.44 912.74 869.75 904.01 C 870.26 890.20 866.16 876.76 866.06 862.98 C 865.66 854.92 867.67 847.02 867.79 838.99 C 867.89 830.56 862.73 822.58 855.36 818.68 C 844.18 812.68 831.40 811.04 819.35 807.55 C 817.42 807.10 815.49 806.30 813.50 806.52 M 491.79 907.66 C 488.33 915.37 488.77 924.60 483.60 931.58 C 480.93 935.38 475.45 937.26 471.25 934.87 C 465.37 931.69 462.78 925.14 460.80 919.14 C 453.13 920.93 445.16 921.22 437.65 923.68 C 429.96 926.05 422.48 930.05 417.39 936.42 C 414.20 940.32 413.22 946.45 416.44 950.64 C 419.65 954.64 424.85 956.15 429.64 957.34 C 440.54 959.83 451.79 960.91 462.38 964.71 C 476.03 969.52 489.35 976.26 504.03 977.27 C 515.16 978.26 526.36 972.92 533.29 964.29 C 537.53 959.00 538.25 951.74 536.79 945.30 C 534.04 931.99 525.10 921.20 520.52 908.58 C 512.90 907.76 505.72 904.10 497.94 904.80 C 495.69 904.95 492.72 905.18 491.79 907.66 Z" />
        <path fill="#020202" opacity="1.00"
            d=" M 584.33 300.27 C 588.62 303.03 592.16 306.72 595.66 310.39 C 608.65 324.10 621.06 338.35 633.25 352.77 C 648.28 370.42 664.33 387.21 678.68 405.43 C 682.90 410.99 687.19 416.73 689.43 423.42 C 690.21 425.90 690.47 429.34 687.97 430.95 C 685.46 432.58 682.34 431.38 679.98 430.08 C 674.83 427.11 670.75 422.68 666.82 418.30 C 659.79 410.25 652.95 402.03 646.58 393.45 C 643.53 389.21 639.90 385.05 639.18 379.66 C 643.72 381.74 646.06 386.29 649.12 389.95 C 657.24 400.07 665.41 410.22 674.76 419.25 C 677.58 422.04 680.88 424.29 684.37 426.18 C 681.63 418.70 676.75 412.33 671.82 406.18 C 659.02 390.38 645.29 375.37 632.15 359.87 C 621.16 346.54 610.13 333.25 598.92 320.11 C 593.71 313.77 587.46 308.04 584.33 300.27 Z" />
        <path fill="#020202" opacity="1.00"
            d=" M 325.75 321.91 C 327.92 322.02 329.79 323.20 331.51 324.43 C 346.64 335.82 363.22 345.10 379.80 354.19 C 389.08 359.06 398.39 363.90 408.00 368.11 C 410.61 369.23 413.01 370.78 415.30 372.45 C 413.37 373.12 411.34 374.10 409.26 373.45 C 402.31 371.79 395.89 368.52 389.43 365.57 C 367.62 355.03 345.96 343.33 328.01 326.83 C 326.63 325.55 325.20 323.95 325.75 321.91 Z" />
        <path fill="#020202" opacity="1.00"
            d=" M 513.06 391.51 C 518.98 391.16 524.10 394.49 529.29 396.79 C 542.88 403.15 554.71 412.47 566.76 421.25 C 578.21 429.72 588.89 439.15 600.23 447.76 C 615.32 459.30 631.21 469.80 647.69 479.27 C 653.70 482.67 659.71 486.13 666.08 488.84 C 668.75 489.97 671.24 491.47 673.65 493.11 C 667.07 495.81 660.57 492.01 654.70 489.33 C 637.85 480.75 621.76 470.66 606.56 459.41 C 593.34 449.75 581.15 438.80 568.31 428.65 C 555.26 418.85 542.39 408.60 527.79 401.17 C 522.69 398.27 516.76 396.33 513.06 391.51 Z" />
        <path fill="#020202" opacity="1.00"
            d=" M 848.27 831.29 C 850.94 827.81 853.79 823.12 858.74 823.13 C 859.51 825.03 857.96 826.58 857.01 828.07 C 851.55 835.29 846.91 843.19 843.74 851.68 C 841.59 857.38 840.85 863.70 842.34 869.66 C 844.64 879.36 850.52 887.99 851.33 898.09 C 852.20 908.11 850.35 918.19 847.58 927.80 C 844.95 936.38 840.64 944.32 836.77 952.39 C 835.81 950.59 834.62 948.68 835.43 946.60 C 837.44 939.09 841.00 932.06 842.63 924.42 C 845.22 912.93 847.08 900.46 842.76 889.14 C 839.52 880.35 834.92 871.62 835.38 861.98 C 835.57 850.50 842.13 840.53 848.27 831.29 Z" />
    </g>
    <g id="#f0b58bff">
        <path fill="#f0b58b" opacity="1.00"
            d=" M 456.72 205.04 C 461.22 212.07 465.22 219.92 472.36 224.67 C 477.76 228.27 483.71 231.02 489.77 233.32 C 501.21 237.68 514.93 233.99 523.33 225.30 C 525.16 223.61 527.34 221.72 530.03 222.08 C 534.23 222.52 537.94 224.76 541.94 225.98 C 551.60 229.26 562.04 228.94 572.02 227.54 C 572.08 230.29 572.18 233.04 572.35 235.80 C 557.03 232.15 540.79 227.94 525.18 232.38 C 517.04 234.29 510.09 239.12 502.49 242.33 C 496.30 245.10 489.47 243.11 482.98 243.41 C 478.80 243.35 474.76 244.59 471.01 246.35 C 466.80 242.88 463.72 238.19 462.47 232.86 C 460.31 223.64 458.47 214.35 456.72 205.04 Z" />
        <path fill="#f0b58b" opacity="1.00"
            d=" M 148.91 287.22 C 154.71 283.26 162.44 283.67 168.66 286.42 C 177.60 289.71 183.78 297.53 188.51 305.46 C 191.69 310.48 194.23 316.27 199.40 319.62 C 206.47 324.77 215.49 325.40 223.92 325.82 C 232.61 326.59 241.31 325.86 250.00 325.68 C 254.51 325.57 259.00 325.14 263.45 324.39 C 265.75 334.76 272.63 343.20 277.88 352.19 C 285.20 364.86 291.83 377.98 296.74 391.78 C 273.04 392.40 248.93 388.11 227.66 377.40 C 220.64 374.30 214.26 369.98 207.29 366.76 C 199.72 363.19 192.47 358.37 183.96 357.38 C 176.56 356.60 169.18 354.84 162.63 351.23 C 157.31 347.98 154.24 342.28 149.58 338.28 C 144.19 332.98 137.60 329.20 131.39 324.98 C 133.60 320.10 131.72 314.23 134.53 309.65 C 138.31 305.68 143.93 303.68 146.82 298.81 C 149.27 295.42 148.32 291.08 148.91 287.22 Z" />
        <path fill="#f0b58b" opacity="1.00"
            d=" M 415.86 707.01 C 416.40 701.80 417.61 695.70 422.65 692.98 C 430.92 703.58 443.39 709.66 455.54 714.69 C 465.00 718.90 475.54 719.09 485.57 721.04 C 483.02 724.59 481.22 728.59 479.82 732.72 C 469.04 731.33 458.16 733.23 447.72 735.86 C 438.15 738.53 428.38 741.89 420.79 748.55 C 417.62 734.97 414.69 721.04 415.86 707.01 Z" />
        <path fill="#f0b58b" opacity="1.00"
            d=" M 608.85 718.99 C 631.42 729.59 658.93 730.01 681.26 718.51 C 681.79 722.72 683.17 726.79 685.52 730.35 C 675.07 737.43 668.89 749.17 665.12 760.91 C 662.38 769.56 661.00 778.84 662.79 787.83 C 651.79 784.19 639.64 782.31 630.62 774.43 C 622.02 767.05 620.52 755.16 617.00 745.03 C 613.76 736.51 611.58 727.66 608.85 718.99 Z" />
    </g>
    <g id="#f11b27ff">
        <path fill="var(--shirt-color, grey)" opacity="1.00"
            d=" M 517.00 242.03 C 526.21 237.52 536.72 235.46 546.93 236.79 C 555.01 237.83 563.07 239.14 571.02 240.98 C 578.48 242.79 586.14 244.38 592.93 248.14 C 600.76 252.40 609.30 255.31 616.72 260.31 C 628.41 268.34 639.00 277.99 647.79 289.13 C 658.61 302.75 668.76 316.88 679.35 330.68 C 690.07 344.99 701.36 358.90 711.13 373.89 C 715.54 380.51 718.00 388.21 719.21 396.03 C 723.13 417.23 725.56 438.66 728.54 460.00 C 729.10 465.72 729.66 471.67 728.05 477.28 C 726.76 481.40 721.86 481.84 718.42 483.21 C 717.22 472.54 716.72 461.81 715.39 451.16 C 714.36 444.09 709.53 438.48 707.15 431.90 C 703.95 424.09 704.13 415.53 703.38 407.27 C 702.33 395.71 698.47 384.47 692.37 374.60 C 691.13 372.84 689.52 370.16 686.98 371.33 C 688.29 375.65 690.75 379.48 692.41 383.65 C 695.77 392.01 697.97 400.88 698.56 409.88 C 699.06 418.13 699.32 426.66 702.82 434.31 C 705.16 440.38 709.72 445.55 710.79 452.09 C 712.40 464.48 712.25 477.06 714.36 489.39 C 716.65 503.54 719.23 517.68 720.03 532.01 C 720.11 537.03 720.70 543.00 717.01 546.99 C 712.69 550.96 706.58 551.69 701.07 552.83 C 692.80 554.96 684.54 551.56 676.77 549.03 C 662.48 542.26 648.05 535.75 633.47 529.61 C 621.88 524.51 610.59 518.71 598.79 514.08 C 590.03 510.55 580.95 507.89 571.92 505.15 C 567.35 503.90 562.77 502.34 558.00 502.17 C 556.46 501.92 555.31 502.98 554.32 503.97 C 556.77 506.19 560.12 506.72 563.16 507.70 C 582.30 513.37 600.47 521.76 618.36 530.53 C 629.35 535.98 640.75 540.57 651.98 545.51 C 643.64 545.13 635.36 546.26 627.04 546.46 C 608.02 546.43 589.00 545.25 569.98 545.99 C 549.54 547.20 528.13 547.14 509.29 556.23 C 503.97 558.57 498.88 561.85 492.99 562.49 C 489.70 562.84 486.36 563.09 483.09 562.59 C 481.09 561.95 479.57 560.39 477.87 559.25 C 476.26 551.40 476.27 543.33 474.50 535.51 C 472.95 528.62 470.89 521.78 467.50 515.55 C 464.05 509.06 459.18 503.32 456.77 496.30 C 453.34 486.91 453.85 476.76 453.16 466.95 C 452.52 455.42 449.48 444.16 445.22 433.47 C 449.96 436.41 454.99 438.99 459.20 442.71 C 463.32 446.30 467.22 450.14 471.52 453.53 C 479.77 460.19 489.30 465.20 499.40 468.41 C 507.28 470.94 515.14 473.65 523.23 475.42 C 525.22 476.05 527.21 475.40 528.98 474.45 C 523.97 471.50 518.30 470.07 512.87 468.15 C 497.20 463.09 481.96 455.56 470.19 443.83 C 464.57 438.12 458.39 432.95 451.33 429.11 C 459.54 430.58 467.88 431.32 476.04 433.07 C 488.96 435.88 501.79 439.06 514.55 442.49 C 521.97 444.19 529.11 446.94 536.61 448.29 C 535.71 446.65 534.89 444.73 533.03 443.98 C 526.23 440.61 518.91 438.47 511.67 436.27 C 501.08 433.02 490.32 430.32 479.56 427.69 C 469.15 425.14 458.40 424.62 447.91 422.49 C 444.26 421.74 440.56 421.19 436.86 420.78 C 431.15 420.24 425.73 418.20 420.03 417.60 C 407.06 416.16 393.93 415.87 380.94 417.31 C 371.92 418.25 362.80 418.31 353.84 419.84 C 340.91 421.66 327.74 423.72 314.71 421.69 C 312.39 418.09 309.95 414.51 308.56 410.43 C 305.92 402.86 305.45 394.72 302.70 387.18 C 298.64 375.88 293.34 365.06 287.40 354.65 C 281.42 343.78 273.08 334.31 268.10 322.87 C 274.55 320.70 281.52 321.18 287.98 319.06 C 298.93 315.60 310.18 311.68 321.83 312.47 C 332.70 313.97 342.14 320.00 352.12 324.13 C 362.29 327.90 373.19 329.09 383.94 329.87 C 386.50 330.09 389.05 329.74 391.57 329.31 C 389.49 327.30 386.83 326.21 383.98 325.99 C 370.91 324.25 357.46 322.07 346.01 315.08 C 351.84 310.48 358.72 307.60 365.23 304.15 C 376.21 298.25 387.34 292.56 397.80 285.75 C 404.53 281.54 410.80 276.62 417.71 272.72 C 422.60 269.88 428.32 269.20 433.82 268.46 C 444.18 267.18 454.41 263.91 463.21 258.23 C 467.75 255.42 471.97 251.94 477.03 250.07 C 484.81 247.63 493.02 251.11 500.86 249.09 C 506.61 247.68 511.69 244.53 517.00 242.03 M 584.33 300.27 C 587.46 308.04 593.71 313.77 598.92 320.11 C 610.13 333.25 621.16 346.54 632.15 359.87 C 645.29 375.37 659.02 390.38 671.82 406.18 C 676.75 412.33 681.63 418.70 684.37 426.18 C 680.88 424.29 677.58 422.04 674.76 419.25 C 665.41 410.22 657.24 400.07 649.12 389.95 C 646.06 386.29 643.72 381.74 639.18 379.66 C 639.90 385.05 643.53 389.21 646.58 393.45 C 652.95 402.03 659.79 410.25 666.82 418.30 C 670.75 422.68 674.83 427.11 679.98 430.08 C 682.34 431.38 685.46 432.58 687.97 430.95 C 690.47 429.34 690.21 425.90 689.43 423.42 C 687.19 416.73 682.90 410.99 678.68 405.43 C 664.33 387.21 648.28 370.42 633.25 352.77 C 621.06 338.35 608.65 324.10 595.66 310.39 C 592.16 306.72 588.62 303.03 584.33 300.27 M 325.75 321.91 C 325.20 323.95 326.63 325.55 328.01 326.83 C 345.96 343.33 367.62 355.03 389.43 365.57 C 395.89 368.52 402.31 371.79 409.26 373.45 C 411.34 374.10 413.37 373.12 415.30 372.45 C 413.01 370.78 410.61 369.23 408.00 368.11 C 398.39 363.90 389.08 359.06 379.80 354.19 C 363.22 345.10 346.64 335.82 331.51 324.43 C 329.79 323.20 327.92 322.02 325.75 321.91 M 513.06 391.51 C 516.76 396.33 522.69 398.27 527.79 401.17 C 542.39 408.60 555.26 418.85 568.31 428.65 C 581.15 438.80 593.34 449.75 606.56 459.41 C 621.76 470.66 637.85 480.75 654.70 489.33 C 660.57 492.01 667.07 495.81 673.65 493.11 C 671.24 491.47 668.75 489.97 666.08 488.84 C 659.71 486.13 653.70 482.67 647.69 479.27 C 631.21 469.80 615.32 459.30 600.23 447.76 C 588.89 439.15 578.21 429.72 566.76 421.25 C 554.71 412.47 542.88 403.15 529.29 396.79 C 524.10 394.49 518.98 391.16 513.06 391.51 Z" />
    </g>
    <g id="#2b3dcdff">
        <path fill="var(--pants-color, grey)" opacity="1.00"
            d=" M 623.00 553.83 C 633.96 553.90 644.84 551.48 655.81 552.56 C 665.05 553.57 674.06 555.94 683.08 558.11 C 687.87 559.29 692.83 559.48 697.75 559.18 C 700.51 574.85 705.56 590.09 707.13 605.97 C 708.28 617.66 705.56 629.36 701.08 640.11 C 698.12 647.03 696.34 654.46 696.34 662.02 C 695.90 673.13 700.00 683.90 699.41 695.01 C 699.17 700.08 694.66 703.16 691.14 706.13 C 678.03 716.82 660.62 720.67 644.02 720.62 C 624.53 720.57 605.23 713.26 590.55 700.43 C 599.78 694.63 609.11 688.97 618.73 683.85 C 620.45 682.85 622.35 681.87 623.34 680.04 C 622.64 677.05 619.22 678.51 617.26 679.19 C 605.83 683.88 595.08 690.10 584.67 696.71 C 575.71 703.15 565.96 708.39 555.94 712.97 C 550.87 715.30 545.39 716.61 539.82 716.86 C 544.73 702.76 552.06 689.62 560.29 677.21 C 563.60 672.21 568.13 668.03 570.44 662.38 C 567.54 663.63 564.69 665.16 562.54 667.51 C 556.07 674.30 551.06 682.31 546.42 690.41 C 541.84 698.77 537.09 707.23 535.11 716.66 C 522.05 715.84 508.97 715.73 495.89 715.66 C 485.12 714.71 474.37 713.12 463.74 711.11 C 449.80 706.34 434.96 700.39 426.04 688.01 C 422.13 683.48 418.30 678.84 415.61 673.47 C 426.48 670.98 434.70 662.89 442.06 655.02 C 447.31 649.51 451.28 642.83 453.55 635.57 C 458.91 619.18 468.69 604.66 479.98 591.79 C 486.73 605.21 499.77 614.36 513.70 619.21 C 525.19 623.11 537.05 625.93 549.01 628.00 C 554.34 628.72 560.16 630.14 565.13 627.23 C 559.28 624.34 552.66 624.12 546.44 622.51 C 530.53 618.71 514.26 614.61 500.38 605.63 C 493.63 601.32 487.96 595.50 483.54 588.84 C 492.39 589.08 501.23 589.63 510.05 590.32 C 522.73 591.08 535.47 590.09 548.01 588.17 C 551.93 587.62 555.80 586.55 559.28 584.61 C 556.40 584.45 553.52 584.41 550.67 584.78 C 536.97 586.59 523.03 587.38 509.27 585.76 C 501.01 584.79 492.67 584.44 484.37 584.98 C 482.63 579.79 480.97 574.52 480.83 569.00 C 487.68 569.57 494.85 569.96 501.39 567.42 C 507.25 565.12 512.72 561.93 518.65 559.78 C 531.54 554.98 545.45 554.42 559.04 553.64 C 580.35 552.24 601.67 554.10 623.00 553.83 Z" />
        <path fill="var(--socks-color, grey)" opacity="1.00"
            d=" M 672.51 760.56 C 676.41 750.59 681.41 740.10 690.84 734.25 C 698.42 736.88 706.53 736.98 714.30 738.80 C 728.78 741.84 742.19 748.59 754.61 756.47 C 766.79 763.88 778.48 772.25 788.70 782.24 C 795.56 788.84 800.78 797.09 808.63 802.65 C 800.89 808.21 797.43 817.61 795.85 826.65 C 794.03 836.90 794.18 847.42 795.73 857.69 C 780.65 844.88 762.41 836.73 744.59 828.54 C 729.87 821.65 715.02 815.01 700.60 807.51 C 692.97 803.57 685.79 798.87 678.33 794.66 C 675.14 792.72 670.39 791.91 669.47 787.69 C 667.12 778.64 669.60 769.18 672.51 760.56 Z" />
        <path fill="var(--socks-color, grey)" opacity="1.00"
            d=" M 439.80 744.58 C 452.68 739.87 466.43 737.37 480.16 737.88 C 484.45 746.73 490.42 754.65 494.54 763.59 C 498.67 772.43 502.55 781.48 504.78 791.03 C 509.03 808.69 508.05 826.97 508.04 844.98 C 507.55 854.84 508.97 864.65 510.75 874.31 C 512.58 884.15 517.41 893.17 518.81 903.13 C 511.37 900.89 503.74 898.41 495.86 899.31 C 491.91 899.40 488.01 901.66 486.43 905.36 C 483.61 911.83 483.22 919.06 480.51 925.57 C 479.54 927.83 477.75 930.42 474.97 930.26 C 470.03 928.36 468.01 922.90 466.57 918.25 C 463.15 907.69 464.44 896.33 461.19 885.74 C 455.78 866.97 447.55 849.17 441.61 830.58 C 433.30 806.06 428.86 780.52 422.37 755.52 C 426.67 749.87 433.37 747.04 439.80 744.58 Z" />
    </g>
    <g id="#4d4d4dff">
        <path fill="#4d4d4d" opacity="1.00"
            d=" M 813.50 806.52 C 815.49 806.30 817.42 807.10 819.35 807.55 C 831.40 811.04 844.18 812.68 855.36 818.68 C 862.73 822.58 867.89 830.56 867.79 838.99 C 867.67 847.02 865.66 854.92 866.06 862.98 C 866.16 876.76 870.26 890.20 869.75 904.01 C 869.44 912.74 869.57 921.53 868.13 930.18 C 866.77 938.78 861.97 946.26 857.63 953.63 C 853.95 959.07 849.97 965.05 843.68 967.63 C 840.00 969.24 836.44 966.38 834.70 963.33 C 828.94 953.93 829.58 942.51 828.03 931.99 C 825.05 908.73 818.47 884.99 803.72 866.32 C 801.51 863.51 801.60 859.78 801.34 856.41 C 800.81 843.23 800.67 829.62 805.12 817.02 C 806.73 812.85 809.02 808.16 813.50 806.52 M 848.27 831.29 C 842.13 840.53 835.57 850.50 835.38 861.98 C 834.92 871.62 839.52 880.35 842.76 889.14 C 847.08 900.46 845.22 912.93 842.63 924.42 C 841.00 932.06 837.44 939.09 835.43 946.60 C 834.62 948.68 835.81 950.59 836.77 952.39 C 840.64 944.32 844.95 936.38 847.58 927.80 C 850.35 918.19 852.20 908.11 851.33 898.09 C 850.52 887.99 844.64 879.36 842.34 869.66 C 840.85 863.70 841.59 857.38 843.74 851.68 C 846.91 843.19 851.55 835.29 857.01 828.07 C 857.96 826.58 859.51 825.03 858.74 823.13 C 853.79 823.12 850.94 827.81 848.27 831.29 Z" />
        <path fill="#4d4d4d" opacity="1.00"
            d=" M 491.79 907.66 C 492.72 905.18 495.69 904.95 497.94 904.80 C 505.72 904.10 512.90 907.76 520.52 908.58 C 525.10 921.20 534.04 931.99 536.79 945.30 C 538.25 951.74 537.53 959.00 533.29 964.29 C 526.36 972.92 515.16 978.26 504.03 977.27 C 489.35 976.26 476.03 969.52 462.38 964.71 C 451.79 960.91 440.54 959.83 429.64 957.34 C 424.85 956.15 419.65 954.64 416.44 950.64 C 413.22 946.45 414.20 940.32 417.39 936.42 C 422.48 930.05 429.96 926.05 437.65 923.68 C 445.16 921.22 453.13 920.93 460.80 919.14 C 462.78 925.14 465.37 931.69 471.25 934.87 C 475.45 937.26 480.93 935.38 483.60 931.58 C 488.77 924.60 488.33 915.37 491.79 907.66 Z" />
    </g>
</svg>