<?xml version="1.0" encoding="UTF-8" ?>
<!DOCTYPE svg PUBLIC "-//W3C//DTD SVG 1.1//EN" "http://www.w3.org/Graphics/SVG/1.1/DTD/svg11.dtd">
<svg width="1000pt" height="1000pt" viewBox="0 0 1000 1000" version="1.1" xmlns="http://www.w3.org/2000/svg">
    <g id="#020202ff">
        <path fill="#020202" opacity="1.00"
            d=" M 413.00 19.15 C 420.57 18.68 428.34 15.61 435.82 18.25 C 440.59 19.89 445.42 21.59 449.73 24.27 C 454.25 27.01 456.71 31.91 460.52 35.41 C 463.77 38.57 468.52 39.32 472.00 42.16 C 484.26 51.23 490.70 66.16 493.00 80.88 C 494.06 88.55 495.45 96.18 497.12 103.74 C 497.69 107.09 498.45 110.79 497.00 114.01 C 494.91 117.44 490.43 117.18 486.95 117.11 C 487.75 121.84 489.04 126.88 487.40 131.58 C 484.06 138.21 477.28 142.04 473.01 147.96 C 480.56 150.13 486.84 155.04 494.07 157.90 C 512.77 159.24 529.32 146.23 548.10 148.21 C 558.45 148.81 567.57 155.12 578.02 155.09 C 584.11 154.93 589.99 153.18 595.94 152.06 C 609.52 149.79 623.69 147.45 637.27 150.98 C 647.70 153.59 658.00 156.76 668.59 158.71 C 677.04 160.21 685.44 162.02 693.65 164.52 C 695.10 165.11 697.07 165.49 697.76 167.09 C 697.94 168.82 697.79 170.55 697.78 172.28 C 705.42 178.37 706.71 188.85 706.61 197.98 C 706.22 211.68 704.21 225.28 703.33 238.96 C 701.94 261.37 698.82 283.63 696.52 305.96 C 696.19 309.51 696.21 313.21 697.48 316.59 C 699.19 320.08 702.05 323.06 702.79 327.00 C 703.98 333.02 703.46 339.26 704.93 345.25 C 705.46 347.52 706.34 350.02 705.09 352.23 C 703.93 355.13 700.71 356.07 698.18 357.39 C 695.88 361.74 691.08 363.26 686.42 363.11 C 684.35 366.54 680.39 367.14 676.71 367.19 C 676.24 369.26 675.97 371.81 673.68 372.67 C 667.10 376.01 659.11 377.34 651.99 375.01 C 647.60 373.44 646.93 368.22 645.51 364.41 C 643.03 357.54 641.60 349.96 643.87 342.82 C 645.67 335.27 650.17 328.80 655.16 323.00 C 658.74 319.17 657.60 313.58 657.14 308.87 C 655.08 297.02 654.50 284.99 652.90 273.08 C 652.02 261.38 650.91 249.63 651.34 237.89 C 643.24 240.82 635.88 245.65 629.91 251.84 C 625.65 256.31 621.25 260.64 617.17 265.27 C 613.51 269.33 612.29 274.86 611.05 280.02 C 608.05 294.77 609.45 310.04 612.17 324.71 C 614.59 335.97 616.45 347.38 619.87 358.39 C 620.28 360.07 621.82 361.05 622.99 362.19 C 630.23 368.41 635.30 376.63 640.69 384.40 C 646.52 392.74 650.18 402.77 650.21 413.01 C 650.29 417.13 648.43 420.90 646.27 424.28 C 657.52 437.86 666.36 453.76 669.94 471.15 C 670.95 475.83 671.18 480.94 674.04 484.99 C 679.62 491.52 684.84 498.42 689.23 505.81 C 698.61 523.87 707.20 542.33 714.97 561.14 C 718.55 568.97 721.18 577.98 717.98 586.41 C 726.48 599.85 736.11 612.54 745.88 625.08 C 750.15 630.79 756.79 633.66 762.80 637.09 C 776.59 644.42 787.13 656.66 794.92 670.00 C 800.25 679.17 806.81 687.52 812.66 696.35 C 818.01 704.21 823.34 712.16 829.79 719.18 C 842.98 733.50 855.41 748.55 866.39 764.64 C 877.25 767.00 887.72 770.75 898.02 774.89 C 905.68 778.04 912.75 782.42 920.38 785.64 C 930.57 790.84 941.12 795.61 950.11 802.81 C 955.20 806.46 958.80 811.69 962.21 816.86 C 967.81 825.53 968.28 836.93 964.53 846.42 C 961.92 852.97 956.90 858.99 950.00 861.15 C 941.81 864.08 932.94 862.32 924.77 860.26 C 916.76 858.01 908.64 855.73 901.31 851.70 C 892.67 847.02 884.51 841.35 875.29 837.82 C 868.74 835.37 861.64 836.09 854.84 835.09 C 839.88 832.14 826.00 823.29 817.50 810.58 C 812.11 800.86 806.28 791.34 799.43 782.56 C 792.89 773.83 784.52 766.75 776.45 759.51 C 764.28 749.00 752.16 738.45 740.19 727.72 C 727.59 716.05 715.80 702.77 709.31 686.65 C 707.45 681.89 703.42 678.52 699.61 675.34 C 693.48 670.51 686.99 666.11 681.38 660.65 C 672.70 652.39 663.31 644.67 656.34 634.82 C 648.94 635.59 641.49 635.71 634.07 635.41 C 628.99 635.19 624.22 632.91 620.48 629.56 C 614.83 624.54 610.16 618.56 604.58 613.47 C 599.56 608.13 594.05 603.29 588.87 598.12 C 584.02 593.30 580.34 587.45 575.42 582.70 C 569.18 576.44 561.50 571.92 554.54 566.54 C 547.92 569.35 541.12 572.00 535.29 576.30 C 527.38 582.02 521.61 590.04 514.92 597.03 C 507.02 605.77 497.96 613.33 489.36 621.34 C 482.83 626.85 476.77 633.16 469.07 637.06 C 465.99 638.38 462.54 640.42 459.18 638.81 C 448.52 635.05 437.77 631.26 426.48 629.90 C 416.26 640.89 406.61 652.43 395.60 662.66 C 387.76 669.79 381.15 678.13 373.44 685.39 C 376.23 697.75 378.34 710.34 378.66 723.03 C 378.84 741.53 375.14 759.74 372.17 777.92 C 369.02 796.01 364.08 813.74 360.84 831.80 C 359.21 847.22 360.68 862.80 359.13 878.24 C 358.23 891.32 355.28 904.12 352.41 916.88 C 350.95 926.76 349.33 936.63 347.78 946.50 C 346.00 956.29 342.67 966.32 335.62 973.63 C 330.68 978.80 324.12 982.59 317.01 983.67 C 311.10 984.55 305.30 982.44 300.06 979.92 C 290.47 975.30 283.84 966.27 274.06 961.95 C 261.80 956.01 247.95 955.19 235.16 950.92 C 228.42 948.65 222.52 944.45 217.42 939.59 C 208.80 931.40 201.33 922.05 195.01 911.99 C 191.15 905.89 186.74 899.47 186.45 892.02 C 186.56 885.70 192.61 881.82 198.10 880.36 C 207.20 878.51 216.44 880.58 225.40 882.25 C 237.47 884.45 249.68 885.78 261.90 886.78 C 270.40 887.41 279.01 887.55 287.36 889.50 C 285.48 881.46 285.79 873.18 285.83 865.00 C 286.12 838.30 287.26 811.63 288.51 784.96 C 289.76 765.97 291.34 746.97 294.56 728.20 C 296.81 716.10 299.99 704.19 302.23 692.09 C 303.91 684.01 300.64 676.06 300.78 667.98 C 300.82 656.41 304.50 645.07 310.02 634.98 C 317.75 620.51 327.29 607.12 336.72 593.73 C 339.98 590.10 337.96 584.90 339.92 580.74 C 344.65 569.66 353.76 561.37 360.79 551.79 C 365.48 545.96 369.24 539.50 373.16 533.15 C 377.73 525.54 385.52 520.84 391.16 514.15 C 395.63 509.49 399.05 504.02 402.66 498.71 C 406.16 493.52 411.03 489.09 413.06 483.02 C 414.99 477.48 417.22 472.06 419.92 466.85 C 415.16 463.65 411.71 458.97 409.04 453.96 C 404.01 444.74 397.45 436.37 389.72 429.25 C 382.87 422.73 373.97 418.45 368.32 410.69 C 357.60 396.16 359.14 375.80 346.85 362.16 C 338.55 353.71 328.14 347.57 320.21 338.70 C 315.05 333.03 310.83 326.56 307.33 319.74 C 299.54 319.10 291.68 318.30 283.87 319.20 C 267.02 321.14 251.03 327.98 233.99 328.57 C 220.16 329.37 205.41 327.44 193.91 319.13 C 189.57 316.01 186.70 311.43 184.14 306.84 C 174.90 310.67 165.50 314.10 155.94 317.06 C 143.89 320.58 131.96 324.54 119.72 327.33 C 125.18 330.04 129.09 335.29 130.48 341.19 C 131.05 343.92 130.69 347.40 128.03 348.94 C 125.03 350.69 121.45 351.73 117.97 351.38 C 115.26 350.76 114.83 347.47 113.54 345.46 C 110.78 350.30 107.23 356.29 101.11 356.85 C 96.18 356.19 95.39 350.31 95.71 346.29 C 92.93 349.64 89.76 352.88 85.71 354.65 C 83.18 355.98 80.24 354.14 79.24 351.73 C 77.75 348.40 78.01 344.63 77.81 341.07 C 69.56 341.53 61.28 341.42 53.04 342.09 C 48.84 342.21 43.79 342.66 40.60 339.36 C 38.38 337.10 39.50 333.53 41.79 331.82 C 48.50 326.13 56.92 323.12 64.98 319.92 C 70.96 317.63 76.30 314.06 81.71 310.72 C 90.03 305.58 97.09 298.72 105.02 293.02 C 112.87 287.37 120.82 281.68 129.72 277.78 C 136.42 274.86 143.27 272.23 149.67 268.68 C 157.97 264.09 166.58 259.60 176.05 258.11 C 175.94 255.80 175.24 253.00 177.24 251.26 C 181.06 247.66 186.55 247.06 191.22 245.06 C 199.89 241.35 208.54 237.49 216.66 232.67 C 222.08 229.51 227.69 226.24 234.02 225.39 C 238.29 224.77 242.67 225.36 246.91 224.51 C 250.64 223.02 253.26 219.80 256.22 217.24 C 263.26 210.68 272.28 206.58 281.58 204.42 C 293.60 201.47 306.19 201.67 318.08 198.13 C 322.85 196.64 327.53 194.56 331.34 191.26 C 338.03 185.67 344.86 180.16 350.65 173.61 C 353.91 169.96 356.99 166.14 360.17 162.42 C 356.71 157.85 353.69 152.92 351.30 147.70 C 348.42 141.01 349.19 133.28 352.25 126.80 C 351.37 115.69 344.18 106.20 343.78 95.02 C 343.30 88.38 345.03 81.78 347.89 75.83 C 349.98 72.19 350.08 68.00 349.75 63.93 C 349.39 58.32 352.31 53.07 356.56 49.58 C 355.23 49.06 353.24 49.05 353.35 47.13 C 358.55 37.07 367.82 29.04 378.72 25.76 C 383.46 24.60 385.79 18.98 390.93 18.98 C 398.28 18.80 405.65 20.02 413.00 19.15 M 469.42 129.42 C 466.07 134.48 464.60 140.47 462.71 146.16 C 464.73 146.42 466.76 146.70 468.78 147.00 C 470.41 142.56 473.58 139.01 475.88 134.96 C 477.73 131.76 477.18 127.95 476.16 124.58 C 473.58 125.65 470.96 126.99 469.42 129.42 M 355.52 146.36 C 357.51 150.93 359.93 155.30 362.40 159.62 C 363.99 157.88 365.58 156.13 367.20 154.42 C 362.16 148.34 358.35 141.42 354.60 134.51 C 354.15 138.46 353.93 142.62 355.52 146.36 M 425.53 155.30 C 410.21 158.53 394.49 157.24 378.98 157.10 C 376.07 157.27 372.62 157.12 370.39 159.33 C 366.60 163.27 363.43 167.75 359.82 171.86 C 351.05 182.71 340.14 191.63 328.52 199.28 C 340.75 199.97 352.81 202.45 365.04 203.13 C 368.22 203.37 371.73 202.79 374.43 204.93 C 369.59 207.20 364.14 206.79 358.95 206.61 C 343.97 206.25 328.96 202.37 314.01 205.24 C 310.71 206.03 307.40 206.91 303.98 207.04 C 290.95 207.36 277.38 209.24 266.02 216.06 C 259.78 219.71 255.24 225.79 248.43 228.54 C 242.63 231.75 235.66 230.17 229.68 232.74 C 225.78 234.31 222.23 236.58 218.63 238.71 C 210.93 243.35 202.70 247.01 194.40 250.40 C 189.78 252.32 184.65 252.89 180.28 255.40 C 179.95 258.62 180.75 261.81 180.90 265.01 C 181.95 278.77 182.19 293.39 189.42 305.62 C 191.89 310.56 195.55 315.08 200.62 317.52 C 211.38 323.47 224.05 324.24 236.08 323.62 C 255.11 322.86 272.89 313.96 292.05 314.25 C 306.16 314.64 320.41 316.09 334.01 319.97 C 333.86 320.42 333.57 321.32 333.43 321.77 C 326.81 322.59 320.19 320.93 313.59 320.42 C 319.03 327.54 324.38 334.86 331.36 340.58 C 339.84 348.06 350.18 353.83 356.37 363.58 C 363.44 374.37 364.86 387.54 369.70 399.28 C 371.87 404.62 375.39 409.39 379.95 412.93 C 385.20 417.01 390.78 420.71 395.50 425.44 C 401.39 431.36 406.80 437.87 410.80 445.24 C 414.10 450.88 416.36 457.32 421.21 461.90 C 423.25 463.96 426.42 463.32 428.97 462.83 C 442.76 459.51 455.26 452.57 468.39 447.42 C 484.81 440.62 500.60 432.38 517.29 426.21 C 534.29 419.78 551.51 413.18 569.65 410.91 C 550.70 405.79 531.93 399.97 513.46 393.33 C 497.36 387.73 481.64 381.11 465.55 375.49 C 450.25 369.93 434.34 365.30 417.98 364.71 C 411.62 364.33 405.50 366.20 399.32 367.31 C 401.54 364.69 404.51 362.73 407.92 362.11 C 419.94 359.43 432.34 361.55 444.22 363.93 C 459.91 367.46 474.95 373.31 489.98 378.93 C 509.43 386.59 529.20 393.44 549.19 399.59 C 565.91 404.95 583.15 408.79 599.35 415.68 C 608.83 419.79 618.56 423.87 628.92 424.96 C 633.79 425.42 639.65 425.10 642.82 420.79 C 646.96 415.71 645.64 408.69 644.16 402.87 C 642.03 394.11 636.28 386.97 631.27 379.70 C 626.77 373.37 622.08 366.81 615.28 362.77 C 609.76 359.50 603.83 356.39 600.09 350.98 C 592.91 340.49 587.28 328.84 578.56 319.47 C 568.66 309.22 555.36 302.55 541.41 299.96 C 545.50 298.46 549.95 298.63 554.08 299.95 C 562.36 302.52 570.14 306.72 577.00 312.03 C 588.75 321.38 595.45 335.16 603.56 347.45 C 606.40 351.78 610.92 354.48 615.29 357.04 C 611.48 347.33 609.43 337.06 607.15 326.91 C 604.00 310.10 602.38 292.37 607.24 275.72 C 603.02 279.80 598.31 283.39 593.17 286.24 C 591.43 287.14 589.40 288.29 587.44 287.28 C 586.56 285.48 588.84 284.73 589.75 283.68 C 598.19 277.60 605.18 269.83 612.24 262.26 C 622.17 251.48 631.96 239.76 645.62 233.60 C 649.77 231.48 655.28 232.43 658.50 228.53 C 674.17 211.51 684.94 190.67 694.22 169.66 C 679.19 165.19 663.48 163.75 648.43 159.37 C 640.68 157.41 633.00 154.73 624.93 154.54 C 617.77 154.26 610.60 155.47 603.79 157.67 C 595.59 160.34 588.15 164.79 580.40 168.48 C 573.57 171.74 566.36 174.26 558.90 175.59 C 552.59 176.70 546.08 177.80 539.71 176.46 C 539.61 175.92 539.43 174.84 539.34 174.30 C 548.83 174.10 558.15 171.82 567.13 168.85 C 574.77 166.31 581.80 162.35 589.07 158.94 C 583.80 160.10 578.36 161.03 572.98 160.11 C 563.98 159.19 556.00 154.06 546.92 153.53 C 539.42 152.90 532.02 154.80 524.93 157.05 C 517.96 159.26 510.81 160.93 503.54 161.82 C 506.70 162.74 510.00 163.35 512.96 164.88 C 512.75 165.42 512.31 166.52 512.10 167.06 C 504.03 168.42 495.84 165.95 488.70 162.27 C 482.98 159.61 477.19 157.09 471.43 154.53 C 466.27 152.23 460.53 151.97 454.97 152.08 C 445.09 152.39 435.22 153.32 425.53 155.30 M 696.73 175.57 C 690.07 192.39 682.37 209.01 671.33 223.45 C 666.95 228.99 662.62 235.16 655.84 237.92 C 656.17 256.04 658.18 274.08 660.26 292.07 C 660.81 300.82 663.58 309.37 663.08 318.18 C 662.86 323.64 658.48 327.37 655.49 331.47 C 650.33 338.29 646.61 347.13 648.58 355.78 C 649.93 360.53 650.96 365.49 653.17 369.92 C 658.91 372.40 665.39 370.81 671.10 369.00 C 667.16 367.64 663.06 366.94 658.92 366.61 C 655.91 366.50 653.26 364.09 653.10 361.05 C 652.50 354.71 652.65 348.28 653.33 341.95 C 653.79 338.37 655.31 334.15 659.08 332.95 C 661.68 332.06 663.67 334.26 665.44 335.79 C 666.43 333.50 667.38 330.62 670.11 329.91 C 672.71 328.68 675.17 330.43 677.32 331.73 C 678.45 329.30 679.51 326.36 682.22 325.28 C 684.30 324.11 686.21 325.97 687.98 326.87 C 689.91 324.73 692.51 323.64 695.43 323.85 C 691.34 317.72 690.69 310.09 691.53 302.95 C 692.54 290.99 693.72 279.05 695.02 267.12 C 696.88 249.47 697.45 231.72 699.57 214.10 C 700.82 201.34 703.44 187.32 696.73 175.57 M 155.24 271.12 C 148.10 275.42 140.36 278.54 132.69 281.75 C 123.26 285.71 114.94 291.74 106.67 297.66 C 98.72 303.40 91.44 310.11 82.79 314.82 C 76.14 318.98 69.29 322.82 62.12 326.01 C 55.90 328.73 49.78 331.86 44.58 336.28 C 51.33 337.52 58.15 336.06 64.94 336.15 C 78.33 336.04 91.92 334.43 105.15 337.28 C 108.90 338.02 112.95 338.56 116.00 341.07 C 117.98 342.58 118.77 345.04 119.75 347.24 C 121.88 346.09 126.58 346.30 126.01 342.98 C 125.25 339.10 123.18 335.36 120.14 332.82 C 116.62 329.98 110.85 332.22 108.23 328.05 C 113.35 323.23 120.76 322.60 127.17 320.44 C 145.55 314.87 164.15 309.83 181.94 302.51 C 176.98 289.90 176.71 276.10 176.71 262.73 C 168.95 263.50 162.04 267.60 155.24 271.12 M 689.60 335.71 C 689.49 337.13 687.62 336.69 686.70 336.52 C 685.55 333.96 684.96 331.19 683.90 328.60 C 681.76 331.61 681.23 335.27 680.57 338.80 C 680.30 340.44 678.49 341.13 677.14 340.21 C 675.35 338.09 673.99 335.65 672.21 333.53 C 668.92 337.22 669.93 342.34 669.65 346.83 C 669.51 348.78 666.35 349.39 665.46 347.69 C 663.45 344.55 662.47 340.87 660.34 337.80 C 658.40 338.83 658.11 341.22 657.77 343.17 C 657.17 348.43 657.06 353.75 657.38 359.04 C 657.58 360.06 657.41 362.03 658.96 361.99 C 663.40 362.46 667.87 362.84 672.10 364.39 C 672.13 362.41 672.04 360.43 672.29 358.47 C 675.24 357.71 674.85 362.05 675.85 363.82 C 677.59 363.42 679.34 363.03 681.09 362.62 C 681.70 361.12 682.08 359.45 683.17 358.20 C 685.72 358.00 688.34 358.72 690.86 358.06 C 692.86 357.11 693.68 354.82 695.34 353.45 C 697.18 352.52 699.15 351.85 701.05 351.01 C 697.68 343.65 699.47 334.39 693.68 328.16 C 690.36 328.90 690.75 333.20 689.60 335.71 M 80.57 341.17 C 81.02 344.62 81.69 348.06 83.07 351.27 C 87.69 348.87 91.20 344.95 94.36 340.91 C 89.76 340.82 85.16 340.90 80.57 341.17 M 101.21 341.82 C 100.43 345.44 99.59 349.22 100.83 352.85 C 104.93 350.87 107.62 347.14 110.20 343.55 C 107.21 342.93 104.21 342.37 101.21 341.82 M 570.88 415.91 C 559.84 417.20 549.10 420.29 538.61 423.88 C 524.46 428.98 510.39 434.42 496.78 440.84 C 481.64 448.37 465.94 454.65 450.35 461.17 C 441.72 464.35 432.96 468.10 423.60 467.99 C 422.71 471.89 421.44 475.68 420.12 479.45 C 427.82 484.19 437.13 482.22 445.37 480.25 C 457.47 477.19 469.68 474.59 481.96 472.34 C 483.75 472.24 487.07 471.15 486.38 474.19 C 483.51 476.11 480.08 476.86 476.87 478.01 C 465.61 481.92 453.90 484.35 442.20 486.55 C 434.34 487.99 425.52 488.17 418.88 483.02 C 416.25 492.11 408.89 498.51 404.18 506.46 C 410.75 508.63 417.71 507.45 424.07 505.17 C 439.28 499.94 454.93 496.12 469.97 490.39 C 469.86 492.99 468.17 494.93 465.83 495.88 C 454.14 501.78 441.46 505.22 428.98 508.99 C 423.43 510.55 417.73 512.28 411.90 511.79 C 408.64 511.53 405.61 510.22 402.61 509.05 C 397.47 516.32 391.38 522.85 384.69 528.72 C 377.25 535.09 374.32 544.79 368.31 552.28 C 361.56 561.76 352.82 569.67 346.48 579.45 C 344.17 583.01 342.05 587.38 343.38 591.71 C 345.51 595.45 349.37 597.77 352.75 600.28 C 365.86 608.97 379.32 618.18 395.01 621.36 C 406.21 623.24 417.62 623.29 428.89 624.73 C 439.35 625.91 449.58 628.78 459.33 632.73 C 461.90 633.71 464.85 635.30 467.51 633.59 C 471.67 631.25 475.03 627.77 478.51 624.55 C 488.00 615.36 497.90 606.59 507.19 597.18 C 516.55 587.89 523.97 576.44 535.30 569.29 C 545.03 563.23 556.07 559.86 566.64 555.62 C 570.59 554.07 574.30 551.67 578.57 551.11 C 580.10 553.29 577.54 554.81 576.01 555.94 C 570.41 559.40 564.38 562.09 558.44 564.91 C 568.94 569.99 578.43 577.17 585.71 586.33 C 592.62 594.99 601.16 602.12 609.07 609.83 C 615.77 615.18 621.14 621.96 627.77 627.38 C 626.64 619.58 623.80 612.18 622.31 604.46 C 621.17 598.66 620.17 592.75 617.62 587.37 C 611.53 574.29 602.51 562.81 592.61 552.42 C 591.06 550.79 589.87 548.86 588.73 546.95 C 591.24 547.61 593.78 548.49 595.75 550.27 C 601.66 555.38 606.61 561.47 611.60 567.46 C 619.41 576.72 625.34 587.86 627.09 599.96 C 628.42 609.76 632.12 619.21 631.92 629.20 C 645.84 630.52 660.37 630.91 673.55 625.51 C 685.15 620.15 694.10 610.37 700.46 599.46 C 703.79 593.63 708.52 588.86 713.07 584.00 C 715.65 581.58 715.45 577.72 714.26 574.66 C 708.08 557.42 700.93 540.53 692.95 524.04 C 688.35 514.58 684.75 504.34 677.50 496.49 C 669.87 488.52 661.15 481.31 650.91 476.98 C 647.04 475.45 643.46 472.78 642.17 468.66 C 650.36 472.67 659.29 475.14 666.92 480.29 C 665.73 474.83 664.70 469.32 662.97 464.00 C 658.78 450.67 651.75 438.44 643.61 427.16 C 636.79 430.85 628.68 430.36 621.35 428.71 C 607.10 425.56 594.34 418.07 580.32 414.15 C 577.22 414.98 574.06 415.53 570.88 415.91 M 704.27 603.32 C 697.89 613.88 689.17 623.33 678.19 629.17 C 672.98 631.96 667.14 633.14 661.39 634.24 C 668.94 642.51 677.56 649.68 685.72 657.33 C 694.64 665.72 706.00 671.79 712.49 682.54 C 715.65 660.69 734.89 642.05 756.88 639.80 C 749.53 637.39 743.35 632.42 738.70 626.32 C 729.82 614.80 720.56 603.41 713.97 590.37 C 710.29 594.33 707.07 598.69 704.27 603.32 M 325.16 621.21 C 317.39 633.56 309.03 646.25 306.88 661.00 C 305.45 668.37 307.18 675.77 308.20 683.07 C 309.02 688.47 307.71 693.87 306.74 699.17 C 315.94 693.06 327.08 690.67 337.97 690.19 C 349.20 689.76 361.01 691.58 370.41 698.10 C 369.25 690.26 367.30 682.58 365.35 674.93 C 368.74 671.16 370.92 677.23 371.93 679.81 C 375.49 675.42 379.50 671.44 383.29 667.25 C 389.28 660.58 396.34 655.02 402.62 648.64 C 409.23 642.33 415.25 635.42 422.06 629.31 C 408.49 627.90 394.35 627.86 381.64 622.28 C 373.93 619.09 366.73 614.78 359.85 610.07 C 353.57 605.77 347.16 601.49 342.03 595.80 C 336.84 604.55 330.52 612.56 325.16 621.21 M 717.53 689.01 C 717.28 692.86 719.78 696.00 721.81 699.01 C 730.17 710.86 740.79 720.88 751.88 730.14 C 763.12 740.22 774.78 749.83 785.84 760.10 C 795.57 768.86 804.13 778.96 810.45 790.47 C 810.00 782.36 811.71 773.56 817.57 767.59 C 822.76 762.60 830.41 762.17 837.19 761.61 C 844.78 760.92 852.41 761.55 859.83 763.26 C 855.99 759.05 852.41 754.61 849.08 750.00 C 841.02 739.76 832.05 730.29 823.71 720.28 C 815.15 710.32 808.35 699.04 800.62 688.46 C 791.34 676.26 785.13 661.75 773.65 651.26 C 769.46 646.02 762.17 645.80 756.04 646.21 C 735.19 648.65 717.77 668.02 717.53 689.01 M 310.61 701.60 C 308.43 702.88 305.48 704.02 305.06 706.87 C 303.72 712.48 302.67 718.16 301.44 723.81 C 297.36 744.62 296.09 765.85 294.77 786.98 C 293.60 813.65 292.74 840.33 292.04 867.01 C 291.82 875.02 291.31 883.29 293.85 891.02 C 295.85 897.09 300.34 901.85 304.84 906.20 C 308.75 910.07 313.12 913.71 318.31 915.67 C 323.74 917.26 329.50 916.94 335.09 916.71 C 339.15 916.36 343.82 915.91 346.65 912.59 C 349.04 910.02 349.77 906.48 350.48 903.18 C 353.39 888.65 354.89 873.84 354.83 859.03 C 354.95 851.36 354.62 843.67 355.12 836.01 C 355.61 827.74 357.93 819.74 359.47 811.63 C 362.11 799.13 365.02 786.68 366.99 774.05 C 370.79 751.09 374.89 727.67 371.30 704.39 C 366.35 701.16 361.17 698.10 355.31 696.88 C 340.48 693.54 324.27 694.62 310.61 701.60 M 834.47 767.60 C 829.41 768.17 823.42 768.76 820.29 773.35 C 815.01 780.73 815.66 790.61 818.41 798.83 C 823.14 812.81 835.85 822.93 849.60 827.33 C 858.00 830.37 867.23 828.45 875.69 831.30 C 885.33 834.53 893.73 840.44 902.46 845.50 C 910.79 850.40 920.17 853.06 929.40 855.67 C 935.59 857.12 942.33 858.70 948.53 856.50 C 955.81 852.74 960.41 844.96 961.63 837.01 C 962.32 831.85 962.30 826.17 959.29 821.69 C 955.80 816.35 951.99 811.04 946.83 807.19 C 933.15 796.54 916.81 790.32 901.53 782.47 C 893.15 778.55 884.41 775.48 875.60 772.71 C 862.20 769.29 848.40 765.73 834.47 767.60 M 191.88 888.84 C 189.65 892.83 192.57 897.13 194.33 900.70 C 201.99 913.87 211.06 926.37 222.31 936.72 C 227.55 941.60 234.01 945.14 240.99 946.80 C 254.05 950.00 267.84 951.55 279.73 958.31 C 289.65 963.75 296.11 974.20 307.06 977.94 C 315.63 981.13 325.16 977.44 331.55 971.47 C 338.79 964.83 341.68 954.96 343.35 945.59 C 344.70 936.85 346.32 928.16 348.03 919.49 C 340.65 923.23 332.19 923.91 324.07 923.27 C 315.29 922.55 308.10 916.78 301.57 911.39 C 296.66 907.43 294.08 901.53 290.03 896.87 C 286.24 894.30 281.36 894.35 276.97 893.76 C 260.09 892.53 243.15 891.38 226.48 888.31 C 218.70 886.92 211.01 884.57 203.05 884.68 C 199.07 884.83 194.62 885.70 191.88 888.84 Z" />
        <path fill="#020202" opacity="1.00"
            d=" M 633.76 194.74 C 636.03 192.89 638.75 191.74 641.66 191.37 C 636.78 197.27 630.11 201.29 624.77 206.74 C 610.76 219.20 599.84 234.53 587.81 248.78 C 580.63 257.59 572.56 265.63 565.67 274.66 C 562.67 278.49 560.41 283.02 556.40 285.94 C 556.54 283.86 556.88 281.77 557.90 279.93 C 563.37 269.25 571.94 260.68 579.58 251.57 C 589.02 240.64 597.74 229.11 607.29 218.26 C 615.11 209.36 624.41 201.95 633.76 194.74 Z" />
        <path fill="#020202" opacity="1.00"
            d=" M 502.86 227.81 C 506.37 226.13 509.86 224.29 513.73 223.54 C 510.52 228.25 505.13 230.56 500.29 233.18 C 472.67 247.07 441.77 253.83 410.96 254.58 C 406.05 254.53 400.40 254.83 396.82 250.82 C 417.08 252.30 437.45 249.13 457.06 244.12 C 472.76 240.06 488.24 234.90 502.86 227.81 Z" />
        <path fill="#020202" opacity="1.00"
            d=" M 593.35 252.35 C 598.58 247.43 603.82 241.22 611.47 240.52 C 608.33 244.08 604.22 246.54 600.71 249.68 C 594.16 255.02 588.84 261.67 582.39 267.08 C 583.88 260.86 589.22 256.84 593.35 252.35 Z" />
        <path fill="#020202" opacity="1.00"
            d=" M 384.64 300.75 C 387.14 299.79 389.82 299.86 392.36 300.61 C 410.56 305.13 428.08 312.33 444.28 321.75 C 459.88 330.61 477.03 336.31 494.35 340.73 C 519.12 346.67 543.11 355.45 568.03 360.77 C 572.32 361.83 576.82 362.78 580.38 365.59 C 576.53 365.98 572.78 364.94 569.05 364.21 C 560.09 362.30 551.03 360.95 542.12 358.87 C 534.13 357.03 526.30 354.65 518.40 352.49 C 501.06 347.49 483.21 344.27 466.32 337.77 C 449.71 332.05 435.45 321.45 419.37 314.59 C 412.03 311.38 404.62 308.28 396.98 305.85 C 392.75 304.48 388.42 303.19 384.64 300.75 Z" />
        <path fill="#020202" opacity="1.00"
            d=" M 483.75 553.76 C 485.15 551.42 488.10 551.34 490.43 550.57 C 488.32 552.43 486.26 554.42 485.10 557.03 C 474.91 578.11 465.15 599.58 451.82 618.93 C 450.61 621.00 448.62 622.44 446.13 621.68 C 448.77 616.01 452.40 610.88 455.44 605.43 C 462.34 593.26 469.06 580.98 475.49 568.55 C 478.20 563.60 480.50 558.39 483.75 553.76 Z" />
        <path fill="#020202" opacity="1.00"
            d=" M 838.68 800.72 C 845.19 792.60 855.67 788.26 865.97 788.43 C 874.12 788.77 881.56 792.53 888.67 796.20 C 904.74 804.58 918.62 817.26 936.21 822.58 C 942.83 824.86 949.89 824.69 956.80 824.81 C 953.97 830.30 946.99 829.30 941.88 828.88 C 921.79 826.29 905.79 812.83 888.65 803.28 C 881.20 799.41 873.54 794.96 864.94 794.62 C 858.81 794.65 852.64 796.29 847.32 799.35 C 841.71 802.63 838.23 808.28 834.26 813.23 C 831.67 808.51 835.92 804.18 838.68 800.72 Z" />
        <path fill="#020202" opacity="1.00"
            d=" M 201.02 896.35 C 207.86 897.82 213.55 902.08 219.52 905.49 C 226.88 909.74 233.03 916.42 241.59 918.30 C 251.12 920.53 260.82 922.01 270.23 924.74 C 281.96 928.14 293.79 931.65 304.68 937.28 C 313.01 941.54 319.85 948.22 325.32 955.72 C 326.90 957.88 327.83 960.41 328.68 962.94 C 326.31 962.40 324.35 960.95 322.89 959.05 C 318.38 953.54 312.89 948.91 306.99 944.96 C 299.95 940.27 291.86 937.54 283.92 934.82 C 274.20 931.68 264.46 928.55 254.44 926.52 C 249.26 925.41 244.02 924.56 238.91 923.14 C 229.55 920.62 223.02 912.95 215.04 907.94 C 210.29 904.20 203.71 902.19 201.02 896.35 Z" />
    </g>
    <g id="#f0b58bff">
        <path fill="#f0b58b" opacity="1.00"
            d=" M 469.42 129.42 C 470.96 126.99 473.58 125.65 476.16 124.58 C 477.18 127.95 477.73 131.76 475.88 134.96 C 473.58 139.01 470.41 142.56 468.78 147.00 C 466.76 146.70 464.73 146.42 462.71 146.16 C 464.60 140.47 466.07 134.48 469.42 129.42 Z" />
        <path fill="#f0b58b" opacity="1.00"
            d=" M 355.52 146.36 C 353.93 142.62 354.15 138.46 354.60 134.51 C 358.35 141.42 362.16 148.34 367.20 154.42 C 365.58 156.13 363.99 157.88 362.40 159.62 C 359.93 155.30 357.51 150.93 355.52 146.36 Z" />
        <path fill="#f0b58b" opacity="1.00"
            d=" M 696.73 175.57 C 703.44 187.32 700.82 201.34 699.57 214.10 C 697.45 231.72 696.88 249.47 695.02 267.12 C 693.72 279.05 692.54 290.99 691.53 302.95 C 690.69 310.09 691.34 317.72 695.43 323.85 C 692.51 323.64 689.91 324.73 687.98 326.87 C 686.21 325.97 684.30 324.11 682.22 325.28 C 679.51 326.36 678.45 329.30 677.32 331.73 C 675.17 330.43 672.71 328.68 670.11 329.91 C 667.38 330.62 666.43 333.50 665.44 335.79 C 663.67 334.26 661.68 332.06 659.08 332.95 C 655.31 334.15 653.79 338.37 653.33 341.95 C 652.65 348.28 652.50 354.71 653.10 361.05 C 653.26 364.09 655.91 366.50 658.92 366.61 C 663.06 366.94 667.16 367.64 671.10 369.00 C 665.39 370.81 658.91 372.40 653.17 369.92 C 650.96 365.49 649.93 360.53 648.58 355.78 C 646.61 347.13 650.33 338.29 655.49 331.47 C 658.48 327.37 662.86 323.64 663.08 318.18 C 663.58 309.37 660.81 300.82 660.26 292.07 C 658.18 274.08 656.17 256.04 655.84 237.92 C 662.62 235.16 666.95 228.99 671.33 223.45 C 682.37 209.01 690.07 192.39 696.73 175.57 Z" />
        <path fill="#f0b58b" opacity="1.00"
            d=" M 155.24 271.12 C 162.04 267.60 168.95 263.50 176.71 262.73 C 176.71 276.10 176.98 289.90 181.94 302.51 C 164.15 309.83 145.55 314.87 127.17 320.44 C 120.76 322.60 113.35 323.23 108.23 328.05 C 110.85 332.22 116.62 329.98 120.14 332.82 C 123.18 335.36 125.25 339.10 126.01 342.98 C 126.58 346.30 121.88 346.09 119.75 347.24 C 118.77 345.04 117.98 342.58 116.00 341.07 C 112.95 338.56 108.90 338.02 105.15 337.28 C 91.92 334.43 78.33 336.04 64.94 336.15 C 58.15 336.06 51.33 337.52 44.58 336.28 C 49.78 331.86 55.90 328.73 62.12 326.01 C 69.29 322.82 76.14 318.98 82.79 314.82 C 91.44 310.11 98.72 303.40 106.67 297.66 C 114.94 291.74 123.26 285.71 132.69 281.75 C 140.36 278.54 148.10 275.42 155.24 271.12 Z" />
        <path fill="#f0b58b" opacity="1.00"
            d=" M 689.60 335.71 C 690.75 333.20 690.36 328.90 693.68 328.16 C 699.47 334.39 697.68 343.65 701.05 351.01 C 699.15 351.85 697.18 352.52 695.34 353.45 C 693.68 354.82 692.86 357.11 690.86 358.06 C 688.34 358.72 685.72 358.00 683.17 358.20 C 682.08 359.45 681.70 361.12 681.09 362.62 C 679.34 363.03 677.59 363.42 675.85 363.82 C 674.85 362.05 675.24 357.71 672.29 358.47 C 672.04 360.43 672.13 362.41 672.10 364.39 C 667.87 362.84 663.40 362.46 658.96 361.99 C 657.41 362.03 657.58 360.06 657.38 359.04 C 657.06 353.75 657.17 348.43 657.77 343.17 C 658.11 341.22 658.40 338.83 660.34 337.80 C 662.47 340.87 663.45 344.55 665.46 347.69 C 666.35 349.39 669.51 348.78 669.65 346.83 C 669.93 342.34 668.92 337.22 672.21 333.53 C 673.99 335.65 675.35 338.09 677.14 340.21 C 678.49 341.13 680.30 340.44 680.57 338.80 C 681.23 335.27 681.76 331.61 683.90 328.60 C 684.96 331.19 685.55 333.96 686.70 336.52 C 687.62 336.69 689.49 337.13 689.60 335.71 Z" />
        <path fill="#f0b58b" opacity="1.00"
            d=" M 80.57 341.17 C 85.16 340.90 89.76 340.82 94.36 340.91 C 91.20 344.95 87.69 348.87 83.07 351.27 C 81.69 348.06 81.02 344.62 80.57 341.17 Z" />
        <path fill="#f0b58b" opacity="1.00"
            d=" M 101.21 341.82 C 104.21 342.37 107.21 342.93 110.20 343.55 C 107.62 347.14 104.93 350.87 100.83 352.85 C 99.59 349.22 100.43 345.44 101.21 341.82 Z" />
        <path fill="#f0b58b" opacity="1.00"
            d=" M 704.27 603.32 C 707.07 598.69 710.29 594.33 713.97 590.37 C 720.56 603.41 729.82 614.80 738.70 626.32 C 743.35 632.42 749.53 637.39 756.88 639.80 C 734.89 642.05 715.65 660.69 712.49 682.54 C 706.00 671.79 694.64 665.72 685.72 657.33 C 677.56 649.68 668.94 642.51 661.39 634.24 C 667.14 633.14 672.98 631.96 678.19 629.17 C 689.17 623.33 697.89 613.88 704.27 603.32 Z" />
        <path fill="#f0b58b" opacity="1.00"
            d=" M 325.16 621.21 C 330.52 612.56 336.84 604.55 342.03 595.80 C 347.16 601.49 353.57 605.77 359.85 610.07 C 366.73 614.78 373.93 619.09 381.64 622.28 C 394.35 627.86 408.49 627.90 422.06 629.31 C 415.25 635.42 409.23 642.33 402.62 648.64 C 396.34 655.02 389.28 660.58 383.29 667.25 C 379.50 671.44 375.49 675.42 371.93 679.81 C 370.92 677.23 368.74 671.16 365.35 674.93 C 367.30 682.58 369.25 690.26 370.41 698.10 C 361.01 691.58 349.20 689.76 337.97 690.19 C 327.08 690.67 315.94 693.06 306.74 699.17 C 307.71 693.87 309.02 688.47 308.20 683.07 C 307.18 675.77 305.45 668.37 306.88 661.00 C 309.03 646.25 317.39 633.56 325.16 621.21 Z" />
    </g>
    <g id="#f11b27ff">
        <path fill="var(--shirt-color, grey)" opacity="1.00"
            d=" M 425.53 155.30 C 435.22 153.32 445.09 152.39 454.97 152.08 C 460.53 151.97 466.27 152.23 471.43 154.53 C 477.19 157.09 482.98 159.61 488.70 162.27 C 495.84 165.95 504.03 168.42 512.10 167.06 C 512.31 166.52 512.75 165.42 512.96 164.88 C 510.00 163.35 506.70 162.74 503.54 161.82 C 510.81 160.93 517.96 159.26 524.93 157.05 C 532.02 154.80 539.42 152.90 546.92 153.53 C 556.00 154.06 563.98 159.19 572.98 160.11 C 578.36 161.03 583.80 160.10 589.07 158.94 C 581.80 162.35 574.77 166.31 567.13 168.85 C 558.15 171.82 548.83 174.10 539.34 174.30 C 539.43 174.84 539.61 175.92 539.71 176.46 C 546.08 177.80 552.59 176.70 558.90 175.59 C 566.36 174.26 573.57 171.74 580.40 168.48 C 588.15 164.79 595.59 160.34 603.79 157.67 C 610.60 155.47 617.77 154.26 624.93 154.54 C 633.00 154.73 640.68 157.41 648.43 159.37 C 663.48 163.75 679.19 165.19 694.22 169.66 C 684.94 190.67 674.17 211.51 658.50 228.53 C 655.28 232.43 649.77 231.48 645.62 233.60 C 631.96 239.76 622.17 251.48 612.24 262.26 C 605.18 269.83 598.19 277.60 589.75 283.68 C 588.84 284.73 586.56 285.48 587.44 287.28 C 589.40 288.29 591.43 287.14 593.17 286.24 C 598.31 283.39 603.02 279.80 607.24 275.72 C 602.38 292.37 604.00 310.10 607.15 326.91 C 609.43 337.06 611.48 347.33 615.29 357.04 C 610.92 354.48 606.40 351.78 603.56 347.45 C 595.45 335.16 588.75 321.38 577.00 312.03 C 570.14 306.72 562.36 302.52 554.08 299.95 C 549.95 298.63 545.50 298.46 541.41 299.96 C 555.36 302.55 568.66 309.22 578.56 319.47 C 587.28 328.84 592.91 340.49 600.09 350.98 C 603.83 356.39 609.76 359.50 615.28 362.77 C 622.08 366.81 626.77 373.37 631.27 379.70 C 636.28 386.97 642.03 394.11 644.16 402.87 C 645.64 408.69 646.96 415.71 642.82 420.79 C 639.65 425.10 633.79 425.42 628.92 424.96 C 618.56 423.87 608.83 419.79 599.35 415.68 C 583.15 408.79 565.91 404.95 549.19 399.59 C 529.20 393.44 509.43 386.59 489.98 378.93 C 474.95 373.31 459.91 367.46 444.22 363.93 C 432.34 361.55 419.94 359.43 407.92 362.11 C 404.51 362.73 401.54 364.69 399.32 367.31 C 405.50 366.20 411.62 364.33 417.98 364.71 C 434.34 365.30 450.25 369.93 465.55 375.49 C 481.64 381.11 497.36 387.73 513.46 393.33 C 531.93 399.97 550.70 405.79 569.65 410.91 C 551.51 413.18 534.29 419.78 517.29 426.21 C 500.60 432.38 484.81 440.62 468.39 447.42 C 455.26 452.57 442.76 459.51 428.97 462.83 C 426.42 463.32 423.25 463.96 421.21 461.90 C 416.36 457.32 414.10 450.88 410.80 445.24 C 406.80 437.87 401.39 431.36 395.50 425.44 C 390.78 420.71 385.20 417.01 379.95 412.93 C 375.39 409.39 371.87 404.62 369.70 399.28 C 364.86 387.54 363.44 374.37 356.37 363.58 C 350.18 353.83 339.84 348.06 331.36 340.58 C 324.38 334.86 319.03 327.54 313.59 320.42 C 320.19 320.93 326.81 322.59 333.43 321.77 C 333.57 321.32 333.86 320.42 334.01 319.97 C 320.41 316.09 306.16 314.64 292.05 314.25 C 272.89 313.96 255.11 322.86 236.08 323.62 C 224.05 324.24 211.38 323.47 200.62 317.52 C 195.55 315.08 191.89 310.56 189.42 305.62 C 182.19 293.39 181.95 278.77 180.90 265.01 C 180.75 261.81 179.95 258.62 180.28 255.40 C 184.65 252.89 189.78 252.32 194.40 250.40 C 202.70 247.01 210.93 243.35 218.63 238.71 C 222.23 236.58 225.78 234.31 229.68 232.74 C 235.66 230.17 242.63 231.75 248.43 228.54 C 255.24 225.79 259.78 219.71 266.02 216.06 C 277.38 209.24 290.95 207.36 303.98 207.04 C 307.40 206.91 310.71 206.03 314.01 205.24 C 328.96 202.37 343.97 206.25 358.95 206.61 C 364.14 206.79 369.59 207.20 374.43 204.93 C 371.73 202.79 368.22 203.37 365.04 203.13 C 352.81 202.45 340.75 199.97 328.52 199.28 C 340.14 191.63 351.05 182.71 359.82 171.86 C 363.43 167.75 366.60 163.27 370.39 159.33 C 372.62 157.12 376.07 157.27 378.98 157.10 C 394.49 157.24 410.21 158.53 425.53 155.30 M 633.76 194.74 C 624.41 201.95 615.11 209.36 607.29 218.26 C 597.74 229.11 589.02 240.64 579.58 251.57 C 571.94 260.68 563.37 269.25 557.90 279.93 C 556.88 281.77 556.54 283.86 556.40 285.94 C 560.41 283.02 562.67 278.49 565.67 274.66 C 572.56 265.63 580.63 257.59 587.81 248.78 C 599.84 234.53 610.76 219.20 624.77 206.74 C 630.11 201.29 636.78 197.27 641.66 191.37 C 638.75 191.74 636.03 192.89 633.76 194.74 M 502.86 227.81 C 488.24 234.90 472.76 240.06 457.06 244.12 C 437.45 249.13 417.08 252.30 396.82 250.82 C 400.40 254.83 406.05 254.53 410.96 254.58 C 441.77 253.83 472.67 247.07 500.29 233.18 C 505.13 230.56 510.52 228.25 513.73 223.54 C 509.86 224.29 506.37 226.13 502.86 227.81 M 593.35 252.35 C 589.22 256.84 583.88 260.86 582.39 267.08 C 588.84 261.67 594.16 255.02 600.71 249.68 C 604.22 246.54 608.33 244.08 611.47 240.52 C 603.82 241.22 598.58 247.43 593.35 252.35 M 384.64 300.75 C 388.42 303.19 392.75 304.48 396.98 305.85 C 404.62 308.28 412.03 311.38 419.37 314.59 C 435.45 321.45 449.71 332.05 466.32 337.77 C 483.21 344.27 501.06 347.49 518.40 352.49 C 526.30 354.65 534.13 357.03 542.12 358.87 C 551.03 360.95 560.09 362.30 569.05 364.21 C 572.78 364.94 576.53 365.98 580.38 365.59 C 576.82 362.78 572.32 361.83 568.03 360.77 C 543.11 355.45 519.12 346.67 494.35 340.73 C 477.03 336.31 459.88 330.61 444.28 321.75 C 428.08 312.33 410.56 305.13 392.36 300.61 C 389.82 299.86 387.14 299.79 384.64 300.75 Z" />
    </g>
    <g id="#2b3dcdff">
        <path fill="var(--pants-color, grey)" opacity="1.00"
            d=" M 570.88 415.91 C 574.06 415.53 577.22 414.98 580.32 414.15 C 594.34 418.07 607.10 425.56 621.35 428.71 C 628.68 430.36 636.79 430.85 643.61 427.16 C 651.75 438.44 658.78 450.67 662.97 464.00 C 664.70 469.32 665.73 474.83 666.92 480.29 C 659.29 475.14 650.36 472.67 642.17 468.66 C 643.46 472.78 647.04 475.45 650.91 476.98 C 661.15 481.31 669.87 488.52 677.50 496.49 C 684.75 504.34 688.35 514.58 692.95 524.04 C 700.93 540.53 708.08 557.42 714.26 574.66 C 715.45 577.72 715.65 581.58 713.07 584.00 C 708.52 588.86 703.79 593.63 700.46 599.46 C 694.10 610.37 685.15 620.15 673.55 625.51 C 660.37 630.91 645.84 630.52 631.92 629.20 C 632.12 619.21 628.42 609.76 627.09 599.96 C 625.34 587.86 619.41 576.72 611.60 567.46 C 606.61 561.47 601.66 555.38 595.75 550.27 C 593.78 548.49 591.24 547.61 588.73 546.95 C 589.87 548.86 591.06 550.79 592.61 552.42 C 602.51 562.81 611.53 574.29 617.62 587.37 C 620.17 592.75 621.17 598.66 622.31 604.46 C 623.80 612.18 626.64 619.58 627.77 627.38 C 621.14 621.96 615.77 615.18 609.07 609.83 C 601.16 602.12 592.62 594.99 585.71 586.33 C 578.43 577.17 568.94 569.99 558.44 564.91 C 564.38 562.09 570.41 559.40 576.01 555.94 C 577.54 554.81 580.10 553.29 578.57 551.11 C 574.30 551.67 570.59 554.07 566.64 555.62 C 556.07 559.86 545.03 563.23 535.30 569.29 C 523.97 576.44 516.55 587.89 507.19 597.18 C 497.90 606.59 488.00 615.36 478.51 624.55 C 475.03 627.77 471.67 631.25 467.51 633.59 C 464.85 635.30 461.90 633.71 459.33 632.73 C 449.58 628.78 439.35 625.91 428.89 624.73 C 417.62 623.29 406.21 623.24 395.01 621.36 C 379.32 618.18 365.86 608.97 352.75 600.28 C 349.37 597.77 345.51 595.45 343.38 591.71 C 342.05 587.38 344.17 583.01 346.48 579.45 C 352.82 569.67 361.56 561.76 368.31 552.28 C 374.32 544.79 377.25 535.09 384.69 528.72 C 391.38 522.85 397.47 516.32 402.61 509.05 C 405.61 510.22 408.64 511.53 411.90 511.79 C 417.73 512.28 423.43 510.55 428.98 508.99 C 441.46 505.22 454.14 501.78 465.83 495.88 C 468.17 494.93 469.86 492.99 469.97 490.39 C 454.93 496.12 439.28 499.94 424.07 505.17 C 417.71 507.45 410.75 508.63 404.18 506.46 C 408.89 498.51 416.25 492.11 418.88 483.02 C 425.52 488.17 434.34 487.99 442.20 486.55 C 453.90 484.35 465.61 481.92 476.87 478.01 C 480.08 476.86 483.51 476.11 486.38 474.19 C 487.07 471.15 483.75 472.24 481.96 472.34 C 469.68 474.59 457.47 477.19 445.37 480.25 C 437.13 482.22 427.82 484.19 420.12 479.45 C 421.44 475.68 422.71 471.89 423.60 467.99 C 432.96 468.10 441.72 464.35 450.35 461.17 C 465.94 454.65 481.64 448.37 496.78 440.84 C 510.39 434.42 524.46 428.98 538.61 423.88 C 549.10 420.29 559.84 417.20 570.88 415.91 M 483.75 553.76 C 480.50 558.39 478.20 563.60 475.49 568.55 C 469.06 580.98 462.34 593.26 455.44 605.43 C 452.40 610.88 448.77 616.01 446.13 621.68 C 448.62 622.44 450.61 621.00 451.82 618.93 C 465.15 599.58 474.91 578.11 485.10 557.03 C 486.26 554.42 488.32 552.43 490.43 550.57 C 488.10 551.34 485.15 551.42 483.75 553.76 Z" />
        <path fill="var(--socks-color, grey)" opacity="1.00"
            d=" M 717.53 689.01 C 717.77 668.02 735.19 648.65 756.04 646.21 C 762.17 645.80 769.46 646.02 773.65 651.26 C 785.13 661.75 791.34 676.26 800.62 688.46 C 808.35 699.04 815.15 710.32 823.71 720.28 C 832.05 730.29 841.02 739.76 849.08 750.00 C 852.41 754.61 855.99 759.05 859.83 763.26 C 852.41 761.55 844.78 760.92 837.19 761.61 C 830.41 762.17 822.76 762.60 817.57 767.59 C 811.71 773.56 810.00 782.36 810.45 790.47 C 804.13 778.96 795.57 768.86 785.84 760.10 C 774.78 749.83 763.12 740.22 751.88 730.14 C 740.79 720.88 730.17 710.86 721.81 699.01 C 719.78 696.00 717.28 692.86 717.53 689.01 Z" />
        <path fill="var(--socks-color, grey)" opacity="1.00"
            d=" M 310.61 701.60 C 324.27 694.62 340.48 693.54 355.31 696.88 C 361.17 698.10 366.35 701.16 371.30 704.39 C 374.89 727.67 370.79 751.09 366.99 774.05 C 365.02 786.68 362.11 799.13 359.47 811.63 C 357.93 819.74 355.61 827.74 355.12 836.01 C 354.62 843.67 354.95 851.36 354.83 859.03 C 354.89 873.84 353.39 888.65 350.48 903.18 C 349.77 906.48 349.04 910.02 346.65 912.59 C 343.82 915.91 339.15 916.36 335.09 916.71 C 329.50 916.94 323.74 917.26 318.31 915.67 C 313.12 913.71 308.75 910.07 304.84 906.20 C 300.34 901.85 295.85 897.09 293.85 891.02 C 291.31 883.29 291.82 875.02 292.04 867.01 C 292.74 840.33 293.60 813.65 294.77 786.98 C 296.09 765.85 297.36 744.62 301.44 723.81 C 302.67 718.16 303.72 712.48 305.06 706.87 C 305.48 704.02 308.43 702.88 310.61 701.60 Z" />
    </g>
    <g id="#4d4d4dff">
        <path fill="#4d4d4d" opacity="1.00"
            d=" M 834.47 767.60 C 848.40 765.73 862.20 769.29 875.60 772.71 C 884.41 775.48 893.15 778.55 901.53 782.47 C 916.81 790.32 933.15 796.54 946.83 807.19 C 951.99 811.04 955.80 816.35 959.29 821.69 C 962.30 826.17 962.32 831.85 961.63 837.01 C 960.41 844.96 955.81 852.74 948.53 856.50 C 942.33 858.70 935.59 857.12 929.40 855.67 C 920.17 853.06 910.79 850.40 902.46 845.50 C 893.73 840.44 885.33 834.53 875.69 831.30 C 867.23 828.45 858.00 830.37 849.60 827.33 C 835.85 822.93 823.14 812.81 818.41 798.83 C 815.66 790.61 815.01 780.73 820.29 773.35 C 823.42 768.76 829.41 768.17 834.47 767.60 M 838.68 800.72 C 835.92 804.18 831.67 808.51 834.26 813.23 C 838.23 808.28 841.71 802.63 847.32 799.35 C 852.64 796.29 858.81 794.65 864.94 794.62 C 873.54 794.96 881.20 799.41 888.65 803.28 C 905.79 812.83 921.79 826.29 941.88 828.88 C 946.99 829.30 953.97 830.30 956.80 824.81 C 949.89 824.69 942.83 824.86 936.21 822.58 C 918.62 817.26 904.74 804.58 888.67 796.20 C 881.56 792.53 874.12 788.77 865.97 788.43 C 855.67 788.26 845.19 792.60 838.68 800.72 Z" />
        <path fill="#4d4d4d" opacity="1.00"
            d=" M 191.88 888.84 C 194.62 885.70 199.07 884.83 203.05 884.68 C 211.01 884.57 218.70 886.92 226.48 888.31 C 243.15 891.38 260.09 892.53 276.97 893.76 C 281.36 894.35 286.24 894.30 290.03 896.87 C 294.08 901.53 296.66 907.43 301.57 911.39 C 308.10 916.78 315.29 922.55 324.07 923.27 C 332.19 923.91 340.65 923.23 348.03 919.49 C 346.32 928.16 344.70 936.85 343.35 945.59 C 341.68 954.96 338.79 964.83 331.55 971.47 C 325.16 977.44 315.63 981.13 307.06 977.94 C 296.11 974.20 289.65 963.75 279.73 958.31 C 267.84 951.55 254.05 950.00 240.99 946.80 C 234.01 945.14 227.55 941.60 222.31 936.72 C 211.06 926.37 201.99 913.87 194.33 900.70 C 192.57 897.13 189.65 892.83 191.88 888.84 M 201.02 896.35 C 203.71 902.19 210.29 904.20 215.04 907.94 C 223.02 912.95 229.55 920.62 238.91 923.14 C 244.02 924.56 249.26 925.41 254.44 926.52 C 264.46 928.55 274.20 931.68 283.92 934.82 C 291.86 937.54 299.95 940.27 306.99 944.96 C 312.89 948.91 318.38 953.54 322.89 959.05 C 324.35 960.95 326.31 962.40 328.68 962.94 C 327.83 960.41 326.90 957.88 325.32 955.72 C 319.85 948.22 313.01 941.54 304.68 937.28 C 293.79 931.65 281.96 928.14 270.23 924.74 C 260.82 922.01 251.12 920.53 241.59 918.30 C 233.03 916.42 226.88 909.74 219.52 905.49 C 213.55 902.08 207.86 897.82 201.02 896.35 Z" />
    </g>
</svg>