<?xml version="1.0" encoding="UTF-8" ?>
<!DOCTYPE svg PUBLIC "-//W3C//DTD SVG 1.1//EN" "http://www.w3.org/Graphics/SVG/1.1/DTD/svg11.dtd">
<svg width="1000pt" height="1000pt" viewBox="0 0 1000 1000" version="1.1" xmlns="http://www.w3.org/2000/svg">
    <g id="#020202ff">
        <path fill="#020202" opacity="1.00"
            d=" M 444.31 26.18 C 456.63 18.19 472.25 18.59 486.21 20.79 C 489.84 21.76 494.89 22.00 496.53 26.02 C 495.05 29.02 490.88 28.41 488.17 29.54 C 500.90 34.74 512.83 43.01 520.22 54.81 C 523.21 60.11 525.62 65.93 526.20 72.02 C 525.36 72.77 524.49 73.48 523.58 74.13 C 525.85 83.95 528.12 93.94 527.86 104.07 C 527.69 112.10 523.80 119.77 517.76 125.00 C 517.19 130.66 516.46 136.33 516.50 142.03 C 516.61 154.39 515.52 166.72 514.45 179.02 C 514.12 183.31 513.11 187.50 511.86 191.60 C 521.19 193.04 530.66 193.00 540.02 194.16 C 561.00 196.44 582.52 197.71 602.34 205.59 C 614.38 210.51 626.52 215.46 637.50 222.53 C 652.63 232.02 667.12 242.75 683.43 250.19 C 694.92 252.33 706.98 253.12 717.66 258.33 C 722.14 260.97 726.65 264.02 729.79 268.23 C 729.66 273.87 725.05 278.30 722.41 283.05 C 727.70 287.41 733.26 291.52 739.37 294.69 C 747.27 298.97 755.93 301.66 763.66 306.27 C 776.20 313.65 789.11 320.47 800.82 329.16 C 809.03 334.87 816.41 341.72 825.01 346.87 C 841.05 356.50 858.33 363.99 876.17 369.60 C 882.45 371.42 888.93 372.56 895.09 374.80 C 899.46 376.39 904.17 377.89 907.41 381.43 C 909.86 384.01 910.76 387.56 912.55 390.56 C 914.15 392.34 916.43 393.31 918.32 394.76 C 923.47 398.40 926.92 403.99 928.88 409.91 C 930.12 413.80 933.13 416.91 933.93 420.97 C 934.57 424.54 935.13 428.33 934.08 431.87 C 933.40 434.22 930.65 435.72 928.38 434.61 C 923.75 432.55 919.78 429.30 915.93 426.08 C 907.02 418.13 894.90 413.93 883.01 414.27 C 887.43 420.14 894.06 423.69 899.01 429.02 C 900.56 430.59 901.67 433.21 900.23 435.23 C 897.83 438.23 893.55 438.52 890.03 437.97 C 883.00 436.88 876.26 434.34 870.00 431.01 C 864.49 428.08 858.85 425.07 854.58 420.41 C 849.81 415.57 846.30 409.72 843.13 403.76 C 841.14 399.96 838.36 396.52 834.66 394.28 C 811.06 379.33 784.80 369.37 758.89 359.25 C 740.47 352.87 721.81 346.75 704.66 337.33 C 700.53 334.91 696.74 331.98 693.01 328.99 C 690.02 330.99 686.83 333.19 683.07 333.08 C 669.36 333.38 656.57 327.12 642.95 326.57 C 637.85 326.34 632.73 326.48 627.63 326.51 C 629.56 337.51 625.22 348.39 619.69 357.68 C 615.31 365.09 608.34 371.76 608.08 380.90 C 607.25 389.23 611.94 396.74 612.12 404.97 C 612.52 416.16 609.13 427.00 607.77 438.03 C 607.37 441.15 608.24 444.34 610.00 446.94 C 616.24 456.63 622.45 466.37 629.36 475.61 C 635.03 482.68 640.22 490.12 645.37 497.58 C 648.18 501.83 651.54 505.98 652.79 511.02 C 653.74 515.78 649.31 518.97 646.47 522.03 C 650.61 526.42 656.07 529.46 659.51 534.51 C 662.99 539.17 664.94 544.71 666.61 550.21 C 668.35 556.18 673.37 560.19 676.98 564.99 C 679.66 568.30 681.53 572.16 683.10 576.10 C 689.97 574.08 697.16 575.11 704.05 576.46 C 717.25 579.06 730.53 581.61 743.34 585.79 C 761.43 592.85 780.07 600.09 794.68 613.30 C 802.45 620.32 808.64 630.22 807.92 641.07 C 807.98 649.32 802.77 656.56 796.44 661.40 C 790.49 666.10 782.74 667.16 775.50 668.42 C 768.37 669.69 761.10 668.98 753.93 668.48 C 747.26 667.47 740.54 664.52 736.66 658.76 C 732.35 671.14 726.95 683.11 722.44 695.40 C 722.01 700.80 722.86 706.45 720.64 711.60 C 716.26 724.33 703.58 731.91 691.15 735.10 C 682.53 736.97 673.48 738.36 664.75 736.37 C 652.41 733.53 641.32 726.40 632.81 717.14 C 625.50 709.83 618.88 701.78 613.77 692.77 C 612.61 694.09 612.22 696.88 610.01 696.77 C 603.57 696.48 599.29 690.86 596.12 685.88 C 587.33 671.80 580.76 656.50 573.17 641.77 C 567.54 630.97 557.65 623.10 547.00 617.59 C 554.28 625.46 559.77 634.98 562.86 645.26 C 564.67 651.40 564.84 657.83 565.99 664.10 C 567.35 671.52 571.31 678.06 573.95 685.05 C 575.92 690.26 577.48 695.64 578.65 701.10 C 579.15 703.92 579.85 706.97 578.65 709.73 C 575.46 710.60 572.34 708.79 569.30 708.13 C 572.64 716.81 575.00 725.84 578.55 734.45 C 582.48 744.05 589.89 752.08 598.92 757.13 C 605.53 760.79 612.24 764.29 618.76 768.14 C 631.02 775.54 640.96 786.25 649.01 798.00 C 657.54 810.31 662.92 824.74 673.21 835.83 C 679.75 843.75 688.65 849.07 696.45 855.60 C 702.24 860.47 708.67 864.59 714.05 869.97 C 717.31 873.28 721.82 874.81 725.63 877.35 C 733.97 882.82 742.29 888.63 748.69 896.38 C 755.95 905.04 762.01 914.85 765.66 925.59 C 767.69 931.54 768.18 938.41 765.10 944.10 C 761.71 950.19 756.06 955.14 749.34 957.18 C 738.81 960.52 727.84 962.29 716.87 963.34 C 710.00 963.98 704.50 968.44 698.59 971.52 C 691.33 975.73 683.44 979.08 675.06 980.11 C 662.42 981.79 649.62 982.23 636.89 981.62 C 631.56 981.32 626.10 979.53 622.18 975.81 C 617.89 971.41 619.00 964.43 621.23 959.29 C 624.59 952.32 631.20 947.79 636.80 942.72 C 643.62 936.95 650.52 930.98 655.24 923.28 C 658.84 918.08 660.92 911.91 665.26 907.23 C 666.06 906.22 667.00 905.31 667.64 904.19 C 667.62 904.03 667.56 903.69 667.54 903.52 C 650.90 888.59 631.40 877.40 612.84 865.10 C 600.32 856.80 587.86 848.38 576.37 838.69 C 558.66 825.59 542.85 809.98 529.25 792.67 C 525.40 787.62 521.88 782.18 516.71 778.34 C 502.97 767.67 490.91 754.44 483.32 738.68 C 479.21 729.50 475.49 720.12 472.66 710.47 C 471.07 714.13 469.97 717.99 469.02 721.86 C 458.83 717.09 457.49 704.69 453.34 695.48 C 447.65 678.51 436.83 664.07 428.69 648.30 C 425.02 641.22 421.36 633.95 419.95 626.03 C 418.03 616.47 419.09 606.59 416.93 597.06 C 414.19 585.69 412.48 574.08 409.40 562.80 C 408.35 557.94 402.50 555.31 402.96 549.98 C 402.80 545.77 405.94 542.70 408.44 539.74 C 406.29 536.42 403.63 533.16 403.12 529.11 C 402.46 523.14 404.88 517.50 406.77 511.98 C 402.25 507.83 400.76 501.87 398.66 496.36 C 393.36 486.22 392.57 474.61 390.69 463.52 C 389.79 456.01 385.35 449.63 383.34 442.44 C 380.90 434.14 379.48 425.57 377.89 417.08 C 376.66 410.11 376.84 402.95 375.21 396.05 C 373.98 389.63 371.30 383.57 370.26 377.11 C 369.69 373.78 370.41 370.18 368.83 367.07 C 366.71 362.47 362.09 359.86 359.24 355.79 C 353.50 348.25 346.98 341.17 339.01 335.94 C 329.24 329.53 317.56 326.31 305.94 325.92 C 300.84 325.65 295.61 325.87 290.70 324.27 C 286.45 322.65 284.16 318.43 281.51 315.02 C 273.96 319.25 265.38 321.07 256.89 322.23 C 247.01 323.53 236.52 321.54 228.29 315.78 C 219.51 309.69 212.63 301.33 206.23 292.88 C 196.49 278.89 189.06 263.46 180.10 248.98 C 176.22 242.80 172.75 236.37 168.73 230.28 C 162.24 220.65 156.04 210.80 150.44 200.62 C 145.74 192.35 141.08 183.53 133.24 177.79 C 125.42 171.71 117.59 165.27 111.91 157.06 C 107.80 149.78 104.51 141.53 105.19 133.02 C 105.45 128.70 105.56 123.92 108.34 120.35 C 109.98 118.11 112.96 117.96 115.43 117.34 C 115.34 114.54 114.95 111.28 117.11 109.08 C 119.51 106.40 123.45 106.92 126.68 107.05 C 127.55 104.43 128.33 101.39 130.94 99.94 C 134.31 97.63 138.57 98.24 142.34 98.95 C 143.94 96.46 145.66 93.65 148.70 92.81 C 154.00 90.95 159.62 93.88 163.06 97.86 C 167.06 102.20 168.96 107.97 169.68 113.73 C 175.04 118.56 178.61 125.63 178.52 132.93 C 178.56 141.69 175.94 150.24 176.14 159.01 C 176.29 165.78 176.38 173.05 180.15 178.95 C 184.22 185.37 189.36 191.01 194.52 196.56 C 208.04 211.38 224.28 223.32 238.94 236.94 C 246.73 244.11 252.94 252.73 258.83 261.47 C 258.76 256.04 259.28 249.61 264.36 246.40 C 275.94 238.37 290.80 239.62 303.83 235.71 C 313.79 232.39 323.39 227.44 331.01 220.11 C 335.09 216.15 339.52 212.56 343.66 208.67 C 347.57 205.04 351.95 201.67 357.17 200.22 C 366.51 197.23 376.39 197.74 386.04 196.95 C 392.31 196.53 398.59 196.29 404.84 195.56 C 402.03 188.72 399.16 181.90 395.85 175.29 C 393.91 171.48 392.68 167.28 390.10 163.82 C 385.47 157.77 382.84 150.46 381.21 143.09 C 380.57 140.08 378.33 137.83 376.74 135.31 C 372.56 128.97 369.07 121.74 369.04 113.99 C 368.79 109.33 369.76 104.73 371.12 100.30 C 369.52 101.46 368.04 103.00 366.04 103.38 C 363.54 102.86 364.38 100.02 364.57 98.22 C 365.88 91.41 368.44 84.91 371.49 78.71 C 370.87 77.53 369.45 76.58 369.65 75.12 C 372.70 60.55 381.72 47.43 394.04 39.10 C 408.31 28.73 426.75 23.26 444.31 26.18 M 149.70 98.83 C 148.39 100.74 148.27 103.16 147.31 105.23 C 145.64 107.52 143.15 105.40 141.31 104.57 C 138.98 103.24 135.79 102.89 133.56 104.61 C 131.52 107.15 133.88 111.22 131.31 113.47 C 128.06 114.48 125.45 110.26 122.06 111.65 C 119.24 112.09 121.03 115.90 121.28 117.73 C 128.56 120.15 135.88 125.34 137.58 133.24 C 138.61 137.21 135.31 141.84 131.01 141.19 C 125.52 140.33 120.84 136.72 117.05 132.84 C 115.72 131.81 115.61 128.59 117.92 129.18 C 122.70 131.16 126.85 134.63 132.06 135.62 C 130.56 129.90 125.90 125.56 120.67 123.16 C 118.18 122.21 115.17 121.43 112.66 122.69 C 110.78 125.39 111.13 128.89 110.89 132.01 C 110.56 137.78 111.71 143.54 114.02 148.82 C 117.70 159.56 127.61 166.07 136.03 172.90 C 143.64 178.17 148.38 186.33 152.88 194.20 C 158.29 204.24 164.14 214.04 170.41 223.57 C 176.57 232.33 181.27 242.00 187.06 251.00 C 194.98 264.06 202.01 277.71 210.67 290.32 C 218.03 299.78 225.60 310.13 236.95 315.01 C 250.76 320.22 265.50 315.31 278.88 311.11 C 270.97 297.60 263.37 283.60 260.11 268.14 C 255.81 265.73 253.34 261.35 250.55 257.47 C 244.21 248.29 236.16 240.45 227.64 233.32 C 209.53 217.89 190.82 202.61 176.77 183.21 C 170.74 175.19 170.59 164.67 170.70 155.07 C 170.75 145.66 174.22 136.38 172.79 126.97 C 171.59 122.79 169.85 117.30 164.85 116.59 C 156.27 115.02 147.63 118.74 140.71 123.59 C 146.97 124.52 153.67 122.93 159.57 125.75 C 159.34 129.65 156.26 132.19 154.29 135.26 C 151.59 139.31 149.42 143.98 149.41 148.95 C 149.33 151.18 149.77 153.48 149.04 155.65 C 146.17 156.62 145.82 152.96 145.35 151.02 C 143.74 142.51 148.30 134.63 153.32 128.18 C 148.10 127.84 142.14 129.82 137.54 126.51 C 135.37 125.11 135.07 121.77 137.30 120.27 C 145.06 113.81 155.67 110.42 165.71 112.26 C 163.82 107.33 161.41 102.16 156.82 99.19 C 154.76 97.79 151.78 97.10 149.70 98.83 M 466.08 118.09 C 461.38 120.55 457.12 123.73 453.05 127.11 C 452.96 124.22 452.79 121.34 452.84 118.46 C 448.48 120.72 443.36 121.93 438.74 119.63 C 435.37 124.96 432.31 130.53 430.71 136.67 C 426.38 128.69 423.42 119.93 423.03 110.80 C 417.27 116.64 413.09 123.72 408.26 130.28 C 405.77 133.67 403.71 137.34 401.49 140.91 C 399.17 136.08 398.28 130.78 397.26 125.57 C 394.29 131.85 391.43 138.35 390.45 145.28 C 390.72 150.14 392.64 154.71 394.11 159.31 C 406.32 156.85 418.69 155.34 431.03 153.78 C 433.85 153.68 437.71 152.38 439.47 155.42 C 441.05 158.74 441.90 162.44 442.10 166.10 C 441.83 168.10 439.61 168.23 438.06 168.62 C 425.73 170.80 413.36 172.77 401.00 174.81 C 405.12 183.21 408.24 192.05 412.49 200.39 C 416.02 208.25 421.66 215.28 428.97 219.93 C 436.08 224.69 443.34 229.26 450.96 233.14 C 456.63 235.50 463.29 237.69 469.25 235.08 C 477.89 231.43 484.58 224.49 490.30 217.26 C 495.92 209.47 501.69 201.67 505.58 192.83 C 510.65 181.88 509.31 169.49 510.85 157.82 C 497.77 160.29 484.54 161.90 471.32 163.37 C 472.26 168.24 473.23 173.13 473.74 178.08 C 474.03 179.71 472.71 180.98 472.05 182.31 C 470.14 179.75 469.20 176.70 468.22 173.72 C 465.71 166.71 463.66 159.37 463.71 151.87 C 463.46 149.04 466.44 148.06 468.69 147.82 C 482.79 145.69 496.92 143.69 511.09 142.17 C 510.00 141.07 508.92 139.98 507.82 138.92 C 504.51 140.31 501.71 137.63 499.36 135.69 C 494.68 131.35 489.82 126.95 486.72 121.29 C 484.68 117.70 484.09 113.56 483.34 109.57 C 477.00 111.12 471.80 115.18 466.08 118.09 M 509.97 196.08 C 509.12 197.76 508.26 199.44 507.42 201.13 C 511.86 209.85 511.94 220.40 508.42 229.45 C 500.97 249.65 478.36 262.45 457.20 259.28 C 445.22 257.67 433.97 250.56 428.02 239.95 C 424.64 234.32 423.81 227.72 422.56 221.40 C 415.76 215.71 410.47 208.44 407.09 200.26 C 399.47 201.52 391.73 201.81 384.03 202.33 C 375.40 202.95 366.51 202.50 358.21 205.38 C 352.14 207.28 347.88 212.25 343.19 216.24 C 336.83 221.57 331.18 227.79 324.05 232.14 C 314.90 237.72 304.74 241.81 294.06 243.16 C 285.29 244.75 275.87 245.34 268.15 250.22 C 265.00 251.90 264.33 255.74 264.74 258.99 C 266.36 276.86 275.19 292.85 283.88 308.16 C 286.22 311.73 288.33 315.60 291.56 318.46 C 294.43 319.98 297.88 319.39 301.02 319.58 C 312.24 319.26 323.57 321.35 333.74 326.18 C 346.46 332.11 356.54 342.63 363.71 354.54 C 362.83 348.40 363.67 342.13 362.30 336.05 C 360.57 327.44 356.28 319.66 351.77 312.22 C 349.46 308.28 346.49 304.61 345.49 300.05 C 348.70 301.94 351.09 304.84 353.12 307.91 C 358.81 316.45 364.69 325.27 366.61 335.54 C 368.36 342.61 366.59 350.08 368.82 357.07 C 369.93 361.74 374.31 365.03 374.65 369.95 C 374.86 373.65 374.96 377.38 375.93 380.99 C 377.45 388.90 381.65 396.08 382.47 404.16 C 383.68 415.79 386.10 427.24 388.62 438.64 C 390.31 446.28 394.56 453.12 395.74 460.89 C 396.89 468.73 397.96 476.59 399.69 484.33 C 401.13 489.93 403.48 495.23 405.41 500.67 C 409.03 508.22 417.19 512.07 424.90 514.13 C 444.73 519.24 464.72 523.70 484.60 528.65 C 495.28 531.18 505.90 535.98 517.11 534.45 C 526.38 533.24 535.36 530.42 544.19 527.42 C 560.30 521.53 576.76 515.98 593.96 514.46 C 604.87 514.01 615.98 513.58 626.68 516.21 C 631.69 517.44 636.71 518.71 641.87 519.12 C 644.02 516.94 647.26 515.28 648.06 512.14 C 646.87 507.76 644.00 504.11 641.55 500.38 C 636.53 493.11 631.61 485.76 626.03 478.91 C 618.94 470.42 613.46 460.78 607.35 451.60 C 602.01 443.64 598.34 434.73 593.60 426.43 C 589.75 419.83 588.44 412.08 584.30 405.63 C 579.84 398.29 572.89 392.97 567.91 386.03 C 564.35 381.16 562.11 375.52 560.03 369.91 C 558.27 365.03 556.13 360.19 555.64 354.98 C 555.65 353.30 555.04 350.77 557.17 350.06 C 559.61 353.57 560.37 357.89 562.05 361.77 C 565.41 369.84 567.97 378.50 573.70 385.31 C 578.71 391.29 584.63 396.59 588.52 403.44 C 592.25 409.56 593.72 416.70 597.14 422.97 C 599.30 427.03 601.52 431.06 603.62 435.15 C 604.84 422.40 609.39 409.27 605.24 396.62 C 603.18 390.33 601.70 383.60 603.12 377.00 C 604.46 369.01 610.16 362.91 614.46 356.38 C 620.33 347.63 624.10 337.33 623.91 326.70 C 618.03 327.26 612.14 328.32 606.75 330.83 C 603.25 332.18 599.91 334.65 595.98 334.28 C 596.10 330.96 599.45 329.48 601.74 327.73 C 612.90 320.07 627.01 320.12 640.00 319.89 C 654.42 319.60 667.88 325.59 682.04 327.25 C 684.08 327.33 686.55 327.80 688.16 326.21 C 694.58 320.45 699.84 313.40 703.62 305.65 C 706.20 300.45 707.27 294.51 710.87 289.82 C 715.90 283.10 720.98 276.41 725.63 269.40 C 719.53 265.86 713.20 262.57 706.33 260.82 C 688.68 256.11 670.15 255.73 652.60 250.51 C 646.74 248.76 640.82 246.68 635.83 243.06 C 634.65 242.37 633.28 240.34 634.95 239.37 C 638.72 240.25 642.18 242.08 645.87 243.25 C 654.57 246.08 663.61 247.69 672.66 248.92 C 651.88 239.12 634.08 223.86 612.60 215.43 C 598.18 208.84 582.91 203.94 567.10 202.30 C 554.10 200.64 541.07 199.22 528.01 198.13 C 521.96 197.77 515.91 197.33 509.97 196.08 M 479.31 235.29 C 473.80 239.00 467.18 242.53 460.33 240.76 C 447.97 238.91 437.92 230.96 427.51 224.66 C 428.98 231.51 431.62 238.33 436.60 243.42 C 444.33 251.51 455.98 255.27 467.02 254.21 C 481.36 253.08 494.80 244.24 501.50 231.52 C 505.83 223.46 506.82 213.95 505.21 205.02 C 497.56 215.87 490.23 227.39 479.31 235.29 M 711.62 300.41 C 708.61 310.22 702.42 318.67 695.48 326.08 C 701.55 330.72 707.94 335.00 715.05 337.90 C 732.84 346.54 752.11 351.37 770.38 358.81 C 793.85 367.93 817.37 377.57 838.48 391.50 C 844.29 395.29 846.91 401.92 850.32 407.66 C 854.54 414.88 860.73 420.93 868.16 424.82 C 876.76 429.61 886.41 435.15 896.62 433.15 C 892.65 428.82 887.70 425.57 883.50 421.49 C 881.42 419.36 879.21 416.99 878.70 413.95 C 878.29 411.91 880.02 410.22 881.96 410.09 C 890.27 408.52 898.48 411.72 906.14 414.59 C 915.22 418.17 921.18 426.45 929.91 430.61 C 929.77 425.55 929.84 419.75 925.96 415.92 C 919.75 409.77 911.46 406.47 904.21 401.80 C 901.57 400.05 898.20 398.69 897.22 395.36 C 902.25 396.08 906.49 399.03 910.97 401.20 C 915.36 403.33 919.66 405.64 923.90 408.07 C 921.70 404.71 919.38 401.30 916.00 399.03 C 913.64 397.33 910.84 396.31 908.67 394.38 C 905.98 390.91 905.76 385.64 901.64 383.30 C 893.16 378.75 883.61 376.89 874.41 374.40 C 854.61 368.06 835.43 359.48 818.12 347.90 C 812.09 343.99 806.80 339.11 800.97 334.94 C 792.94 328.80 784.46 323.27 775.67 318.29 C 767.33 313.58 759.31 308.19 750.42 304.53 C 744.87 302.25 739.38 299.79 734.21 296.76 C 729.11 293.79 724.58 289.98 719.77 286.59 C 716.58 290.88 713.03 295.12 711.62 300.41 M 410.00 514.70 C 408.81 519.05 406.92 523.39 407.16 527.99 C 407.42 532.59 411.83 535.58 412.48 540.01 C 411.74 543.78 407.35 545.96 407.29 550.01 C 407.12 552.33 409.09 553.98 410.24 555.78 C 412.59 553.31 414.80 550.38 418.21 549.37 C 425.68 546.92 433.52 549.41 440.82 551.30 C 460.28 556.54 479.28 563.38 497.85 571.19 C 509.85 575.76 521.70 581.01 532.50 588.00 C 532.31 588.45 531.94 589.37 531.75 589.83 C 527.68 589.57 524.19 587.20 520.60 585.52 C 513.57 581.81 506.13 578.99 498.69 576.24 C 479.95 568.88 461.00 561.95 441.57 556.63 C 434.96 555.04 428.25 552.60 421.36 553.55 C 417.78 553.92 415.43 556.84 413.10 559.25 C 418.17 570.72 419.73 583.28 422.78 595.35 C 425.11 604.60 424.22 614.22 425.67 623.58 C 426.99 632.30 431.19 640.17 435.16 647.92 C 441.40 660.24 449.27 671.73 454.40 684.60 C 458.42 694.45 461.27 704.82 466.61 714.09 C 470.25 703.52 476.25 692.48 487.22 688.17 C 496.67 683.56 507.13 687.20 516.98 688.03 C 528.95 688.94 540.54 692.29 551.90 696.01 C 560.00 698.69 567.41 703.00 575.45 705.84 C 573.53 698.88 571.41 691.96 568.50 685.35 C 566.09 679.84 562.98 674.61 561.40 668.77 C 559.25 661.12 559.89 652.97 557.41 645.40 C 555.12 638.32 551.65 631.63 547.51 625.46 C 545.47 622.32 542.67 619.60 541.43 616.00 C 543.05 612.50 547.48 613.66 550.32 614.74 C 562.74 619.89 573.30 629.62 579.24 641.71 C 582.90 648.83 586.13 656.17 589.82 663.28 C 594.86 673.05 599.54 683.26 607.20 691.32 C 610.27 685.04 615.34 680.10 620.21 675.21 C 631.61 663.56 645.99 655.26 660.83 648.79 C 673.78 643.31 688.25 638.86 702.31 642.55 C 700.95 633.25 693.29 627.07 688.12 619.84 C 683.13 612.17 680.24 603.16 679.60 594.05 C 679.09 587.52 679.15 580.71 676.29 574.67 C 673.49 568.49 668.16 564.05 664.40 558.52 C 661.70 554.62 660.91 549.86 659.30 545.49 C 657.35 540.07 653.98 535.09 649.32 531.66 C 646.36 529.45 643.67 526.91 641.39 524.01 C 636.70 523.59 632.08 522.68 627.52 521.51 C 616.19 518.59 604.29 518.28 592.71 519.72 C 584.60 520.45 576.84 523.04 569.02 525.13 C 551.44 530.42 534.58 538.75 516.10 540.57 C 508.70 541.32 501.38 539.66 494.28 537.76 C 476.64 532.95 458.66 529.52 440.93 525.04 C 430.39 522.42 419.29 520.71 410.00 514.70 M 684.18 579.81 C 684.96 586.18 685.00 592.62 686.05 598.96 C 686.93 604.43 689.15 609.56 691.62 614.49 C 695.74 609.67 699.59 604.56 704.21 600.20 C 707.57 596.90 712.40 599.57 716.12 600.76 C 726.53 604.51 737.76 609.84 742.46 620.57 C 744.85 629.07 742.77 638.10 740.46 646.41 C 739.68 649.72 737.42 653.75 740.42 656.60 C 747.34 664.95 759.24 664.27 769.05 664.49 C 778.39 663.66 788.92 662.87 796.00 655.95 C 800.44 651.90 803.68 646.21 803.44 640.06 C 803.63 630.77 798.02 622.59 791.38 616.60 C 779.72 606.27 765.43 599.56 751.11 593.77 C 736.11 587.23 719.93 584.17 704.01 580.71 C 697.52 579.27 690.75 578.11 684.18 579.81 M 693.86 617.63 C 698.84 623.25 704.22 628.97 706.59 636.26 C 707.87 639.59 706.53 643.02 705.17 646.07 C 713.29 658.13 718.70 671.93 721.06 686.27 C 727.38 669.10 735.53 652.33 738.09 634.04 C 738.58 629.07 739.17 623.37 735.81 619.21 C 729.30 610.02 717.81 607.05 707.81 603.32 C 703.14 608.07 698.55 612.90 693.86 617.63 M 652.44 659.44 C 638.61 665.94 626.39 675.64 616.48 687.21 C 624.57 698.67 633.09 709.97 643.55 719.41 C 653.65 727.71 666.68 734.08 680.07 732.05 C 691.57 731.20 703.53 727.19 711.24 718.23 C 715.84 712.56 718.79 705.09 717.72 697.72 C 715.68 679.53 709.80 661.53 699.26 646.45 C 682.68 645.56 667.06 652.44 652.44 659.44 M 490.82 692.61 C 484.69 694.59 479.90 699.20 476.14 704.27 C 476.67 713.28 481.21 721.26 484.50 729.47 C 487.88 737.86 492.52 745.72 498.18 752.77 C 505.36 762.27 514.69 769.80 523.87 777.25 C 529.19 779.25 535.15 778.42 540.59 777.29 C 556.84 773.51 571.66 763.05 579.87 748.43 C 571.00 735.86 568.47 720.33 563.79 705.98 C 553.18 701.38 542.09 698.05 530.84 695.48 C 523.32 693.80 515.60 693.54 508.00 692.38 C 502.33 691.57 496.32 690.33 490.82 692.61 M 583.49 752.74 C 579.07 761.15 572.36 768.24 564.46 773.49 C 553.96 780.46 541.27 784.95 528.54 783.20 C 542.72 802.78 559.65 820.45 579.12 834.84 C 600.41 852.82 624.69 866.66 647.58 882.40 C 656.38 888.61 665.35 894.84 672.51 902.98 C 689.89 903.22 708.20 891.59 711.46 873.77 C 701.51 866.69 691.81 859.29 682.13 851.85 C 674.80 846.65 668.61 840.01 663.16 832.90 C 656.26 823.41 651.62 812.54 645.21 802.74 C 637.03 789.88 625.97 778.62 612.41 771.46 C 602.48 765.70 591.39 761.38 583.49 752.74 M 716.10 878.30 C 711.90 896.72 691.87 909.56 673.40 906.61 C 666.34 911.35 664.66 920.24 659.86 926.79 C 652.49 938.95 639.99 946.36 630.05 956.12 C 626.48 959.63 623.55 964.81 624.80 969.93 C 625.76 972.65 628.15 974.78 631.05 975.17 C 641.93 977.40 653.14 976.50 664.05 974.88 C 673.47 973.41 683.27 973.11 692.13 969.19 C 697.88 966.91 702.81 963.04 708.43 960.49 C 714.37 957.86 721.02 958.32 727.30 957.21 C 734.17 955.99 741.07 954.79 747.74 952.74 C 752.84 951.21 757.57 947.93 760.17 943.21 C 762.73 938.17 761.65 932.23 759.75 927.16 C 755.38 915.59 748.60 904.89 739.92 896.07 C 732.71 889.25 724.53 883.51 716.10 878.30 Z" />
        <path fill="#020202" opacity="1.00"
            d=" M 466.01 188.74 C 468.15 187.17 470.38 185.71 472.82 184.63 C 474.27 186.93 477.94 189.61 475.67 192.51 C 473.74 194.70 471.77 198.88 468.22 197.47 C 462.52 195.43 456.34 193.80 451.49 190.06 C 451.59 189.49 451.79 188.34 451.88 187.76 C 456.59 187.06 461.28 188.73 466.01 188.74 Z" />
        <path fill="#020202" opacity="1.00"
            d=" M 447.04 204.46 C 457.36 203.36 467.70 202.45 478.05 201.74 C 479.97 201.70 482.16 201.29 483.72 202.75 C 483.83 204.98 481.07 204.86 479.67 205.69 C 478.95 207.14 479.00 209.57 476.94 209.73 C 468.41 211.47 459.68 212.09 451.01 212.58 C 448.38 212.98 446.12 211.95 445.00 209.52 C 443.69 208.89 442.15 208.47 441.46 207.06 C 442.20 204.63 445.02 204.85 447.04 204.46 Z" />
        <path fill="#020202" opacity="1.00"
            d=" M 438.70 435.74 C 440.25 435.47 441.48 436.54 442.62 437.38 C 454.88 447.33 467.72 456.53 480.96 465.12 C 491.48 472.20 502.29 479.01 514.10 483.75 C 529.27 489.51 544.29 495.85 560.00 500.02 C 560.70 503.05 557.00 502.71 555.06 502.58 C 549.79 501.91 544.80 499.96 539.76 498.41 C 530.35 495.31 521.00 492.00 511.77 488.40 C 495.34 481.90 480.93 471.50 466.36 461.71 C 458.62 456.19 450.94 450.51 444.06 443.94 C 441.87 441.54 438.85 439.27 438.70 435.74 Z" />
        <path fill="#020202" opacity="1.00"
            d=" M 497.41 451.64 C 495.36 448.94 499.27 449.33 500.87 449.89 C 511.31 453.50 521.55 457.68 532.10 461.00 C 552.80 467.42 573.54 474.16 595.02 477.49 C 598.67 478.14 603.36 479.78 603.91 484.04 C 603.90 487.78 602.15 493.20 597.50 492.82 C 598.35 490.07 599.84 487.39 599.69 484.44 C 598.32 483.28 596.54 482.86 594.82 482.60 C 574.65 480.66 555.32 474.17 536.08 468.16 C 522.69 463.98 509.51 458.74 497.41 451.64 Z" />
        <path fill="#020202" opacity="1.00"
            d=" M 618.38 564.60 C 620.53 564.05 623.07 563.12 624.93 564.90 C 624.15 567.47 621.37 568.21 619.25 569.30 C 610.51 572.97 602.57 578.28 595.12 584.09 C 588.43 589.38 583.19 596.20 576.98 602.00 C 571.89 606.72 564.48 606.17 558.04 606.60 C 553.06 606.57 547.69 607.41 543.07 605.11 C 543.08 604.56 543.09 603.47 543.09 602.93 C 551.45 601.81 560.05 602.26 568.28 600.12 C 571.36 599.34 573.48 596.81 575.51 594.54 C 581.20 587.95 586.86 581.18 594.02 576.11 C 601.31 570.75 609.83 567.38 618.38 564.60 Z" />
        <path fill="#020202" opacity="1.00"
            d=" M 456.08 568.65 C 461.67 569.49 466.74 572.08 471.97 574.06 C 482.76 578.17 493.61 582.42 503.43 588.58 C 514.37 595.65 524.14 604.54 532.05 614.90 C 527.29 614.02 524.20 610.15 520.64 607.27 C 511.30 599.26 500.94 592.38 489.68 587.36 C 479.57 582.87 469.63 578.00 459.67 573.20 C 457.67 572.42 456.39 570.77 456.08 568.65 Z" />
    </g>
    <g id="#f0b58bff">
        <path fill="#f0b58b" opacity="1.00"
            d=" M 149.70 98.83 C 151.78 97.10 154.76 97.79 156.82 99.19 C 161.41 102.16 163.82 107.33 165.71 112.26 C 155.67 110.42 145.06 113.81 137.30 120.27 C 135.07 121.77 135.37 125.11 137.54 126.51 C 142.14 129.82 148.10 127.84 153.32 128.18 C 148.30 134.63 143.74 142.51 145.35 151.02 C 145.82 152.96 146.17 156.62 149.04 155.65 C 149.77 153.48 149.33 151.18 149.41 148.95 C 149.42 143.98 151.59 139.31 154.29 135.26 C 156.26 132.19 159.34 129.65 159.57 125.75 C 153.67 122.93 146.97 124.52 140.71 123.59 C 147.63 118.74 156.27 115.02 164.85 116.59 C 169.85 117.30 171.59 122.79 172.79 126.97 C 174.22 136.38 170.75 145.66 170.70 155.07 C 170.59 164.67 170.74 175.19 176.77 183.21 C 190.82 202.61 209.53 217.89 227.64 233.32 C 236.16 240.45 244.21 248.29 250.55 257.47 C 253.34 261.35 255.81 265.73 260.11 268.14 C 263.37 283.60 270.97 297.60 278.88 311.11 C 265.50 315.31 250.76 320.22 236.95 315.01 C 225.60 310.13 218.03 299.78 210.67 290.32 C 202.01 277.71 194.98 264.06 187.06 251.00 C 181.27 242.00 176.57 232.33 170.41 223.57 C 164.14 214.04 158.29 204.24 152.88 194.20 C 148.38 186.33 143.64 178.17 136.03 172.90 C 127.61 166.07 117.70 159.56 114.02 148.82 C 111.71 143.54 110.56 137.78 110.89 132.01 C 111.13 128.89 110.78 125.39 112.66 122.69 C 115.17 121.43 118.18 122.21 120.67 123.16 C 125.90 125.56 130.56 129.90 132.06 135.62 C 126.85 134.63 122.70 131.16 117.92 129.18 C 115.61 128.59 115.72 131.81 117.05 132.84 C 120.84 136.72 125.52 140.33 131.01 141.19 C 135.31 141.84 138.61 137.21 137.58 133.24 C 135.88 125.34 128.56 120.15 121.28 117.73 C 121.03 115.90 119.24 112.09 122.06 111.65 C 125.45 110.26 128.06 114.48 131.31 113.47 C 133.88 111.22 131.52 107.15 133.56 104.61 C 135.79 102.89 138.98 103.24 141.31 104.57 C 143.15 105.40 145.64 107.52 147.31 105.23 C 148.27 103.16 148.39 100.74 149.70 98.83 Z" />
        <path fill="#f0b58b" opacity="1.00"
            d=" M 466.08 118.09 C 471.80 115.18 477.00 111.12 483.34 109.57 C 484.09 113.56 484.68 117.70 486.72 121.29 C 489.82 126.95 494.68 131.35 499.36 135.69 C 501.71 137.63 504.51 140.31 507.82 138.92 C 508.92 139.98 510.00 141.07 511.09 142.17 C 496.92 143.69 482.79 145.69 468.69 147.82 C 466.44 148.06 463.46 149.04 463.71 151.87 C 463.66 159.37 465.71 166.71 468.22 173.72 C 469.20 176.70 470.14 179.75 472.05 182.31 C 472.71 180.98 474.03 179.71 473.74 178.08 C 473.23 173.13 472.26 168.24 471.32 163.37 C 484.54 161.90 497.77 160.29 510.85 157.82 C 509.31 169.49 510.65 181.88 505.58 192.83 C 501.69 201.67 495.92 209.47 490.30 217.26 C 484.58 224.49 477.89 231.43 469.25 235.08 C 463.29 237.69 456.63 235.50 450.96 233.14 C 443.34 229.26 436.08 224.69 428.97 219.93 C 421.66 215.28 416.02 208.25 412.49 200.39 C 408.24 192.05 405.12 183.21 401.00 174.81 C 413.36 172.77 425.73 170.80 438.06 168.62 C 439.61 168.23 441.83 168.10 442.10 166.10 C 441.90 162.44 441.05 158.74 439.47 155.42 C 437.71 152.38 433.85 153.68 431.03 153.78 C 418.69 155.34 406.32 156.85 394.11 159.31 C 392.64 154.71 390.72 150.14 390.45 145.28 C 391.43 138.35 394.29 131.85 397.26 125.57 C 398.28 130.78 399.17 136.08 401.49 140.91 C 403.71 137.34 405.77 133.67 408.26 130.28 C 413.09 123.72 417.27 116.64 423.03 110.80 C 423.42 119.93 426.38 128.69 430.71 136.67 C 432.31 130.53 435.37 124.96 438.74 119.63 C 443.36 121.93 448.48 120.72 452.84 118.46 C 452.79 121.34 452.96 124.22 453.05 127.11 C 457.12 123.73 461.38 120.55 466.08 118.09 M 466.01 188.74 C 461.28 188.73 456.59 187.06 451.88 187.76 C 451.79 188.34 451.59 189.49 451.49 190.06 C 456.34 193.80 462.52 195.43 468.22 197.47 C 471.77 198.88 473.74 194.70 475.67 192.51 C 477.94 189.61 474.27 186.93 472.82 184.63 C 470.38 185.71 468.15 187.17 466.01 188.74 M 447.04 204.46 C 445.02 204.85 442.20 204.63 441.46 207.06 C 442.15 208.47 443.69 208.89 445.00 209.52 C 446.12 211.95 448.38 212.98 451.01 212.58 C 459.68 212.09 468.41 211.47 476.94 209.73 C 479.00 209.57 478.95 207.14 479.67 205.69 C 481.07 204.86 483.83 204.98 483.72 202.75 C 482.16 201.29 479.97 201.70 478.05 201.74 C 467.70 202.45 457.36 203.36 447.04 204.46 Z" />
        <path fill="#f0b58b" opacity="1.00"
            d=" M 479.31 235.29 C 490.23 227.39 497.56 215.87 505.21 205.02 C 506.82 213.95 505.83 223.46 501.50 231.52 C 494.80 244.24 481.36 253.08 467.02 254.21 C 455.98 255.27 444.33 251.51 436.60 243.42 C 431.62 238.33 428.98 231.51 427.51 224.66 C 437.92 230.96 447.97 238.91 460.33 240.76 C 467.18 242.53 473.80 239.00 479.31 235.29 Z" />
        <path fill="#f0b58b" opacity="1.00"
            d=" M 711.62 300.41 C 713.03 295.12 716.58 290.88 719.77 286.59 C 724.58 289.98 729.11 293.79 734.21 296.76 C 739.38 299.79 744.87 302.25 750.42 304.53 C 759.31 308.19 767.33 313.58 775.67 318.29 C 784.46 323.27 792.94 328.80 800.97 334.94 C 806.80 339.11 812.09 343.99 818.12 347.90 C 835.43 359.48 854.61 368.06 874.41 374.40 C 883.61 376.89 893.16 378.75 901.64 383.30 C 905.76 385.64 905.98 390.91 908.67 394.38 C 910.84 396.31 913.64 397.33 916.00 399.03 C 919.38 401.30 921.70 404.71 923.90 408.07 C 919.66 405.64 915.36 403.33 910.97 401.20 C 906.49 399.03 902.25 396.08 897.22 395.36 C 898.20 398.69 901.57 400.05 904.21 401.80 C 911.46 406.47 919.75 409.77 925.96 415.92 C 929.84 419.75 929.77 425.55 929.91 430.61 C 921.18 426.45 915.22 418.17 906.14 414.59 C 898.48 411.72 890.27 408.52 881.96 410.09 C 880.02 410.22 878.29 411.91 878.70 413.95 C 879.21 416.99 881.42 419.36 883.50 421.49 C 887.70 425.57 892.65 428.82 896.62 433.15 C 886.41 435.15 876.76 429.61 868.16 424.82 C 860.73 420.93 854.54 414.88 850.32 407.66 C 846.91 401.92 844.29 395.29 838.48 391.50 C 817.37 377.57 793.85 367.93 770.38 358.81 C 752.11 351.37 732.84 346.54 715.05 337.90 C 707.94 335.00 701.55 330.72 695.48 326.08 C 702.42 318.67 708.61 310.22 711.62 300.41 Z" />
        <path fill="#f0b58b" opacity="1.00"
            d=" M 652.44 659.44 C 667.06 652.44 682.68 645.56 699.26 646.45 C 709.80 661.53 715.68 679.53 717.72 697.72 C 718.79 705.09 715.84 712.56 711.24 718.23 C 703.53 727.19 691.57 731.20 680.07 732.05 C 666.68 734.08 653.65 727.71 643.55 719.41 C 633.09 709.97 624.57 698.67 616.48 687.21 C 626.39 675.64 638.61 665.94 652.44 659.44 Z" />
        <path fill="#f0b58b" opacity="1.00"
            d=" M 490.82 692.61 C 496.32 690.33 502.33 691.57 508.00 692.38 C 515.60 693.54 523.32 693.80 530.84 695.48 C 542.09 698.05 553.18 701.38 563.79 705.98 C 568.47 720.33 571.00 735.86 579.87 748.43 C 571.66 763.05 556.84 773.51 540.59 777.29 C 535.15 778.42 529.19 779.25 523.87 777.25 C 514.69 769.80 505.36 762.27 498.18 752.77 C 492.52 745.72 487.88 737.86 484.50 729.47 C 481.21 721.26 476.67 713.28 476.14 704.27 C 479.90 699.20 484.69 694.59 490.82 692.61 Z" />
    </g>
    <g id="#f11b27ff">
        <path fill="var(--shirt-color, grey)" opacity="1.00"
            d=" M 509.97 196.08 C 515.91 197.33 521.96 197.77 528.01 198.13 C 541.07 199.22 554.10 200.64 567.10 202.30 C 582.91 203.94 598.18 208.84 612.60 215.43 C 634.08 223.86 651.88 239.12 672.66 248.92 C 663.61 247.69 654.57 246.08 645.87 243.25 C 642.18 242.08 638.72 240.25 634.95 239.37 C 633.28 240.34 634.65 242.37 635.83 243.06 C 640.82 246.68 646.74 248.76 652.60 250.51 C 670.15 255.73 688.68 256.11 706.33 260.82 C 713.20 262.57 719.53 265.86 725.63 269.40 C 720.98 276.41 715.90 283.10 710.87 289.82 C 707.27 294.51 706.20 300.45 703.62 305.65 C 699.84 313.40 694.58 320.45 688.16 326.21 C 686.55 327.80 684.08 327.33 682.04 327.25 C 667.88 325.59 654.42 319.60 640.00 319.89 C 627.01 320.12 612.90 320.07 601.74 327.73 C 599.45 329.48 596.10 330.96 595.98 334.28 C 599.91 334.65 603.25 332.18 606.75 330.83 C 612.14 328.32 618.03 327.26 623.91 326.70 C 624.10 337.33 620.33 347.63 614.46 356.38 C 610.16 362.91 604.46 369.01 603.12 377.00 C 601.70 383.60 603.18 390.33 605.24 396.62 C 609.39 409.27 604.84 422.40 603.62 435.15 C 601.52 431.06 599.30 427.03 597.14 422.97 C 593.72 416.70 592.25 409.56 588.52 403.44 C 584.63 396.59 578.71 391.29 573.70 385.31 C 567.97 378.50 565.41 369.84 562.05 361.77 C 560.37 357.89 559.61 353.57 557.17 350.06 C 555.04 350.77 555.65 353.30 555.64 354.98 C 556.13 360.19 558.27 365.03 560.03 369.91 C 562.11 375.52 564.35 381.16 567.91 386.03 C 572.89 392.97 579.84 398.29 584.30 405.63 C 588.44 412.08 589.75 419.83 593.60 426.43 C 598.34 434.73 602.01 443.64 607.35 451.60 C 613.46 460.78 618.94 470.42 626.03 478.91 C 631.61 485.76 636.53 493.11 641.55 500.38 C 644.00 504.11 646.87 507.76 648.06 512.14 C 647.26 515.28 644.02 516.94 641.87 519.12 C 636.71 518.71 631.69 517.44 626.68 516.21 C 615.98 513.58 604.87 514.01 593.96 514.46 C 576.76 515.98 560.30 521.53 544.19 527.42 C 535.36 530.42 526.38 533.24 517.11 534.45 C 505.90 535.98 495.28 531.18 484.60 528.65 C 464.72 523.70 444.73 519.24 424.90 514.13 C 417.19 512.07 409.03 508.22 405.41 500.67 C 403.48 495.23 401.13 489.93 399.69 484.33 C 397.96 476.59 396.89 468.73 395.74 460.89 C 394.56 453.12 390.31 446.28 388.62 438.64 C 386.10 427.24 383.68 415.79 382.47 404.16 C 381.65 396.08 377.45 388.90 375.93 380.99 C 374.96 377.38 374.86 373.65 374.65 369.95 C 374.31 365.03 369.93 361.74 368.82 357.07 C 366.59 350.08 368.36 342.61 366.61 335.54 C 364.69 325.27 358.81 316.45 353.12 307.91 C 351.09 304.84 348.70 301.94 345.49 300.05 C 346.49 304.61 349.46 308.28 351.77 312.22 C 356.28 319.66 360.57 327.44 362.30 336.05 C 363.67 342.13 362.83 348.40 363.71 354.54 C 356.54 342.63 346.46 332.11 333.74 326.18 C 323.57 321.35 312.24 319.26 301.02 319.58 C 297.88 319.39 294.43 319.98 291.56 318.46 C 288.33 315.60 286.22 311.73 283.88 308.16 C 275.19 292.85 266.36 276.86 264.74 258.99 C 264.33 255.74 265.00 251.90 268.15 250.22 C 275.87 245.34 285.29 244.75 294.06 243.16 C 304.74 241.81 314.90 237.72 324.05 232.14 C 331.18 227.79 336.83 221.57 343.19 216.24 C 347.88 212.25 352.14 207.28 358.21 205.38 C 366.51 202.50 375.40 202.95 384.03 202.33 C 391.73 201.81 399.47 201.52 407.09 200.26 C 410.47 208.44 415.76 215.71 422.56 221.40 C 423.81 227.72 424.64 234.32 428.02 239.95 C 433.97 250.56 445.22 257.67 457.20 259.28 C 478.36 262.45 500.97 249.65 508.42 229.45 C 511.94 220.40 511.86 209.85 507.42 201.13 C 508.26 199.44 509.12 197.76 509.97 196.08 M 438.70 435.74 C 438.85 439.27 441.87 441.54 444.06 443.94 C 450.94 450.51 458.62 456.19 466.36 461.71 C 480.93 471.50 495.34 481.90 511.77 488.40 C 521.00 492.00 530.35 495.31 539.76 498.41 C 544.80 499.96 549.79 501.91 555.06 502.58 C 557.00 502.71 560.70 503.05 560.00 500.02 C 544.29 495.85 529.27 489.51 514.10 483.75 C 502.29 479.01 491.48 472.20 480.96 465.12 C 467.72 456.53 454.88 447.33 442.62 437.38 C 441.48 436.54 440.25 435.47 438.70 435.74 M 497.41 451.64 C 509.51 458.74 522.69 463.98 536.08 468.16 C 555.32 474.17 574.65 480.66 594.82 482.60 C 596.54 482.86 598.32 483.28 599.69 484.44 C 599.84 487.39 598.35 490.07 597.50 492.82 C 602.15 493.20 603.90 487.78 603.91 484.04 C 603.36 479.78 598.67 478.14 595.02 477.49 C 573.54 474.16 552.80 467.42 532.10 461.00 C 521.55 457.68 511.31 453.50 500.87 449.89 C 499.27 449.33 495.36 448.94 497.41 451.64 Z" />
    </g>
    <g id="#2b3dcdff">
        <path fill="var(--pants-color, grey)" opacity="1.00"
            d=" M 410.00 514.70 C 419.29 520.71 430.39 522.42 440.93 525.04 C 458.66 529.52 476.64 532.95 494.28 537.76 C 501.38 539.66 508.70 541.32 516.10 540.57 C 534.58 538.75 551.44 530.42 569.02 525.13 C 576.84 523.04 584.60 520.45 592.71 519.72 C 604.29 518.28 616.19 518.59 627.52 521.51 C 632.08 522.68 636.70 523.59 641.39 524.01 C 643.67 526.91 646.36 529.45 649.32 531.66 C 653.98 535.09 657.35 540.07 659.30 545.49 C 660.91 549.86 661.70 554.62 664.40 558.52 C 668.16 564.05 673.49 568.49 676.29 574.67 C 679.15 580.71 679.09 587.52 679.60 594.05 C 680.24 603.16 683.13 612.17 688.12 619.84 C 693.29 627.07 700.95 633.25 702.31 642.55 C 688.25 638.86 673.78 643.31 660.83 648.79 C 645.99 655.26 631.61 663.56 620.21 675.21 C 615.34 680.10 610.27 685.04 607.20 691.32 C 599.54 683.26 594.86 673.05 589.82 663.28 C 586.13 656.17 582.90 648.83 579.24 641.71 C 573.30 629.62 562.74 619.89 550.32 614.74 C 547.48 613.66 543.05 612.50 541.43 616.00 C 542.67 619.60 545.47 622.32 547.51 625.46 C 551.65 631.63 555.12 638.32 557.41 645.40 C 559.89 652.97 559.25 661.12 561.40 668.77 C 562.98 674.61 566.09 679.84 568.50 685.35 C 571.41 691.96 573.53 698.88 575.45 705.84 C 567.41 703.00 560.00 698.69 551.90 696.01 C 540.54 692.29 528.95 688.94 516.98 688.03 C 507.13 687.20 496.67 683.56 487.22 688.17 C 476.25 692.48 470.25 703.52 466.61 714.09 C 461.27 704.82 458.42 694.45 454.40 684.60 C 449.27 671.73 441.40 660.24 435.16 647.92 C 431.19 640.17 426.99 632.30 425.67 623.58 C 424.22 614.22 425.11 604.60 422.78 595.35 C 419.73 583.28 418.17 570.72 413.10 559.25 C 415.43 556.84 417.78 553.92 421.36 553.55 C 428.25 552.60 434.96 555.04 441.57 556.63 C 461.00 561.95 479.95 568.88 498.69 576.24 C 506.13 578.99 513.57 581.81 520.60 585.52 C 524.19 587.20 527.68 589.57 531.75 589.83 C 531.94 589.37 532.31 588.45 532.50 588.00 C 521.70 581.01 509.85 575.76 497.85 571.19 C 479.28 563.38 460.28 556.54 440.82 551.30 C 433.52 549.41 425.68 546.92 418.21 549.37 C 414.80 550.38 412.59 553.31 410.24 555.78 C 409.09 553.98 407.12 552.33 407.29 550.01 C 407.35 545.96 411.74 543.78 412.48 540.01 C 411.83 535.58 407.42 532.59 407.16 527.99 C 406.92 523.39 408.81 519.05 410.00 514.70 M 618.38 564.60 C 609.83 567.38 601.31 570.75 594.02 576.11 C 586.86 581.18 581.20 587.95 575.51 594.54 C 573.48 596.81 571.36 599.34 568.28 600.12 C 560.05 602.26 551.45 601.81 543.09 602.93 C 543.09 603.47 543.08 604.56 543.07 605.11 C 547.69 607.41 553.06 606.57 558.04 606.60 C 564.48 606.17 571.89 606.72 576.98 602.00 C 583.19 596.20 588.43 589.38 595.12 584.09 C 602.57 578.28 610.51 572.97 619.25 569.30 C 621.37 568.21 624.15 567.47 624.93 564.90 C 623.07 563.12 620.53 564.05 618.38 564.60 M 456.08 568.65 C 456.39 570.77 457.67 572.42 459.67 573.20 C 469.63 578.00 479.57 582.87 489.68 587.36 C 500.94 592.38 511.30 599.26 520.64 607.27 C 524.20 610.15 527.29 614.02 532.05 614.90 C 524.14 604.54 514.37 595.65 503.43 588.58 C 493.61 582.42 482.76 578.17 471.97 574.06 C 466.74 572.08 461.67 569.49 456.08 568.65 Z" />
        <path fill="var(--socks-color, grey)" opacity="1.00"
            d=" M 693.86 617.63 C 698.55 612.90 703.14 608.07 707.81 603.32 C 717.81 607.05 729.30 610.02 735.81 619.21 C 739.17 623.37 738.58 629.07 738.09 634.04 C 735.53 652.33 727.38 669.10 721.06 686.27 C 718.70 671.93 713.29 658.13 705.17 646.07 C 706.53 643.02 707.87 639.59 706.59 636.26 C 704.22 628.97 698.84 623.25 693.86 617.63 Z" />
        <path fill="var(--socks-color, grey)" opacity="1.00"
            d=" M 583.49 752.74 C 591.39 761.38 602.48 765.70 612.41 771.46 C 625.97 778.62 637.03 789.88 645.21 802.74 C 651.62 812.54 656.26 823.41 663.16 832.90 C 668.61 840.01 674.80 846.65 682.13 851.85 C 691.81 859.29 701.51 866.69 711.46 873.77 C 708.20 891.59 689.89 903.22 672.51 902.98 C 665.35 894.84 656.38 888.61 647.58 882.40 C 624.69 866.66 600.41 852.82 579.12 834.84 C 559.65 820.45 542.72 802.78 528.54 783.20 C 541.27 784.95 553.96 780.46 564.46 773.49 C 572.36 768.24 579.07 761.15 583.49 752.74 Z" />
    </g>
    <g id="#4d4d4dff">
        <path fill="#4d4d4d" opacity="1.00"
            d=" M 684.18 579.81 C 690.75 578.11 697.52 579.27 704.01 580.71 C 719.93 584.17 736.11 587.23 751.11 593.77 C 765.43 599.56 779.72 606.27 791.38 616.60 C 798.02 622.59 803.63 630.77 803.44 640.06 C 803.68 646.21 800.44 651.90 796.00 655.95 C 788.92 662.87 778.39 663.66 769.05 664.49 C 759.24 664.27 747.34 664.95 740.42 656.60 C 737.42 653.75 739.68 649.72 740.46 646.41 C 742.77 638.10 744.85 629.07 742.46 620.57 C 737.76 609.84 726.53 604.51 716.12 600.76 C 712.40 599.57 707.57 596.90 704.21 600.20 C 699.59 604.56 695.74 609.67 691.62 614.49 C 689.15 609.56 686.93 604.43 686.05 598.96 C 685.00 592.62 684.96 586.18 684.18 579.81 Z" />
        <path fill="#4d4d4d" opacity="1.00"
            d=" M 716.10 878.30 C 724.53 883.51 732.71 889.25 739.92 896.07 C 748.60 904.89 755.38 915.59 759.75 927.16 C 761.65 932.23 762.73 938.17 760.17 943.21 C 757.57 947.93 752.84 951.21 747.74 952.74 C 741.07 954.79 734.17 955.99 727.30 957.21 C 721.02 958.32 714.37 957.86 708.43 960.49 C 702.81 963.04 697.88 966.91 692.13 969.19 C 683.27 973.11 673.47 973.41 664.05 974.88 C 653.14 976.50 641.93 977.40 631.05 975.17 C 628.15 974.78 625.76 972.65 624.80 969.93 C 623.55 964.81 626.48 959.63 630.05 956.12 C 639.99 946.36 652.49 938.95 659.86 926.79 C 664.66 920.24 666.34 911.35 673.40 906.61 C 691.87 909.56 711.90 896.72 716.10 878.30 Z" />
    </g>
</svg>