<?xml version="1.0" encoding="UTF-8" ?>
<!DOCTYPE svg PUBLIC "-//W3C//DTD SVG 1.1//EN" "http://www.w3.org/Graphics/SVG/1.1/DTD/svg11.dtd">
<svg width="1000pt" height="1000pt" viewBox="0 0 1000 1000" version="1.1" xmlns="http://www.w3.org/2000/svg">
    <g id="#020202ff">
        <path fill="#020202" opacity="1.00"
            d=" M 451.50 31.59 C 462.93 29.54 474.73 32.66 484.71 38.29 C 487.31 39.66 489.87 41.56 492.95 41.53 C 502.06 41.54 511.23 43.48 519.39 47.57 C 526.95 51.38 532.15 58.30 537.22 64.84 C 544.51 74.12 549.51 85.25 551.49 96.90 C 553.05 107.90 553.24 119.06 552.68 130.14 C 552.50 135.27 550.68 140.11 549.24 144.98 C 550.77 146.02 552.52 147.09 552.86 149.09 C 554.40 154.41 556.24 159.63 557.99 164.89 C 566.32 164.21 574.70 164.56 583.03 165.08 C 590.39 165.68 598.07 165.81 604.85 169.12 C 610.54 171.73 615.09 176.14 619.35 180.61 C 628.81 190.55 637.87 200.89 647.98 210.18 C 660.96 222.34 672.95 235.84 681.38 251.60 C 686.46 260.66 689.99 270.45 694.07 279.97 C 696.64 286.01 698.68 292.26 700.52 298.56 C 706.45 302.49 711.45 307.60 716.96 312.06 C 730.51 323.15 744.46 334.40 760.96 340.74 C 764.78 340.70 766.58 336.43 768.94 334.01 C 772.88 328.45 779.62 326.04 786.07 324.89 C 790.93 324.08 795.60 322.44 800.38 321.26 C 802.08 320.74 804.04 321.90 803.66 323.86 C 802.85 329.17 799.38 333.49 795.68 337.16 C 801.58 336.85 808.51 337.51 812.46 342.52 C 818.89 351.07 821.69 361.70 823.49 372.07 C 824.24 375.18 821.10 376.52 818.88 377.62 C 815.27 384.13 810.60 390.13 804.66 394.67 C 802.14 396.46 799.02 395.54 796.44 394.43 C 794.51 399.16 788.59 402.71 783.71 400.24 C 779.17 397.41 778.93 391.28 775.48 387.56 C 771.84 385.17 767.31 384.67 763.66 382.28 C 753.76 377.08 745.99 367.62 734.58 365.60 C 725.99 364.26 717.48 362.45 709.03 360.43 C 712.47 377.97 714.52 395.79 718.97 413.14 C 721.19 422.42 723.84 431.59 725.65 440.97 C 729.10 456.04 729.17 471.64 728.18 487.00 C 727.63 493.90 727.92 500.82 727.87 507.73 C 723.65 508.09 719.51 507.20 715.48 506.10 C 713.38 527.11 699.20 544.47 683.51 557.51 C 674.98 564.85 664.45 569.19 655.10 575.27 C 644.42 587.50 637.29 602.33 631.50 617.38 C 628.24 625.70 627.27 634.71 623.94 643.00 C 622.73 646.08 619.60 647.74 616.61 648.69 C 612.89 649.62 609.15 650.45 605.48 651.53 C 600.16 668.09 595.19 685.40 596.78 702.98 C 598.20 718.28 607.01 731.29 612.93 745.08 C 621.98 762.76 624.08 782.76 627.40 802.06 C 630.48 821.91 629.38 842.04 629.56 862.04 C 630.08 877.33 630.15 892.75 633.18 907.81 C 634.33 912.82 633.97 918.47 637.25 922.75 C 643.22 931.39 648.91 940.31 652.96 950.03 C 656.59 958.62 657.62 968.59 654.50 977.49 C 652.57 983.29 647.10 987.81 640.96 988.28 C 630.31 989.28 619.74 986.83 609.09 987.07 C 599.46 987.26 589.83 987.77 580.25 988.78 C 572.77 989.55 565.59 992.13 558.07 992.56 C 541.78 993.78 525.78 989.86 509.88 986.99 C 503.70 985.66 497.14 983.97 492.49 979.42 C 489.15 975.95 486.33 971.13 487.41 966.15 C 488.49 961.99 492.67 959.87 496.32 958.33 C 507.51 953.79 519.49 951.70 530.84 947.61 C 540.69 944.00 550.86 940.63 559.46 934.44 C 565.76 930.19 571.62 925.16 575.97 918.87 C 573.66 905.70 572.93 892.30 570.81 879.10 C 568.33 863.02 565.00 847.09 562.08 831.09 C 558.21 810.46 550.87 790.68 546.99 770.05 C 544.22 756.79 545.87 742.98 542.43 729.83 C 539.64 720.22 530.94 714.11 526.61 705.34 C 522.20 696.97 521.64 687.32 521.10 678.07 C 520.57 670.14 521.42 662.23 522.28 654.37 C 509.33 660.16 499.25 670.61 489.91 681.01 C 481.10 690.85 472.11 700.56 463.84 710.87 C 457.18 718.60 453.28 728.15 447.69 736.59 C 440.04 747.16 429.99 755.68 419.94 763.87 C 404.57 776.23 387.15 785.67 369.69 794.71 C 352.68 803.57 334.96 811.01 318.06 820.12 C 308.51 824.94 299.56 830.88 289.84 835.36 C 290.25 848.10 283.84 859.62 276.48 869.53 C 269.77 878.04 262.56 886.14 255.13 894.02 C 249.98 899.37 244.38 904.54 237.46 907.50 C 228.22 912.02 217.77 915.14 207.43 913.27 C 196.75 910.84 187.12 903.47 182.63 893.39 C 177.70 884.67 181.32 874.04 186.01 866.03 C 194.25 853.22 207.15 844.38 216.27 832.26 C 223.44 822.65 230.28 812.09 241.07 806.15 C 246.71 802.58 253.80 802.22 259.17 798.17 C 266.28 793.03 272.71 787.05 279.54 781.57 C 292.61 771.03 305.48 760.23 318.56 749.70 C 332.79 737.84 347.67 726.79 361.76 714.77 C 375.14 704.12 387.32 691.92 401.75 682.65 C 405.98 679.09 408.86 674.05 410.63 668.86 C 412.78 661.06 414.04 652.93 417.53 645.57 C 420.37 639.75 425.59 635.68 430.47 631.63 C 440.06 623.98 449.03 615.53 457.24 606.42 C 454.99 601.46 456.24 595.95 457.87 591.02 C 462.28 579.06 469.85 568.64 477.89 558.89 C 483.64 552.08 486.79 543.26 493.66 537.40 C 493.37 531.96 493.82 526.11 497.87 522.03 C 491.95 515.61 487.37 507.92 480.41 502.52 C 480.62 496.10 482.84 490.03 485.10 484.10 C 492.04 465.32 504.63 449.45 516.79 433.82 C 523.29 425.36 530.96 417.93 538.35 410.27 C 541.03 407.61 543.16 403.95 542.20 400.04 C 539.87 386.53 533.81 374.09 529.85 361.04 C 526.56 350.51 525.13 339.53 522.36 328.87 C 514.91 329.93 507.38 328.79 500.07 327.30 C 490.48 325.18 480.90 322.98 471.42 320.40 C 464.16 318.40 456.61 317.25 449.08 317.64 C 444.70 317.89 440.43 319.04 436.05 319.12 C 429.60 319.18 423.37 317.09 416.94 316.90 C 413.75 316.90 411.13 318.96 408.27 320.07 C 403.55 322.11 397.52 320.63 394.36 316.56 C 392.60 314.22 392.59 311.15 392.16 308.38 C 388.84 307.30 384.95 306.27 383.23 302.90 C 381.66 300.24 382.42 297.08 382.86 294.22 C 377.31 291.19 376.93 283.58 380.60 278.92 C 378.67 277.62 375.86 276.63 375.58 273.96 C 374.85 269.55 376.80 264.99 380.18 262.14 C 384.49 258.40 390.19 255.83 395.99 256.27 C 398.91 256.72 401.35 258.54 404.14 259.40 C 408.86 257.49 413.66 254.29 419.00 255.81 C 428.04 257.21 433.38 265.98 442.15 267.98 C 463.67 273.89 486.30 272.74 508.07 277.25 C 505.41 272.40 502.98 267.35 501.81 261.91 C 499.50 251.70 498.13 241.22 498.56 230.73 C 492.84 227.25 487.98 222.61 483.28 217.90 C 475.50 223.45 465.29 224.03 456.14 222.50 C 450.07 221.49 444.44 218.12 440.99 212.98 C 435.81 205.54 431.49 197.36 425.11 190.84 C 423.29 189.85 420.96 190.60 418.95 190.33 C 415.38 190.35 411.28 187.95 410.93 184.11 C 410.73 176.81 412.60 169.34 410.65 162.16 C 407.66 152.46 401.71 144.11 396.38 135.59 C 394.80 132.50 391.18 131.55 388.90 129.14 C 383.34 123.56 380.65 115.71 379.79 108.02 C 378.65 96.82 383.11 85.62 390.32 77.17 C 388.29 76.05 383.96 76.28 384.67 73.00 C 390.65 70.37 396.89 68.15 402.05 63.98 C 397.72 63.19 392.33 62.20 390.53 57.55 C 405.30 55.49 415.64 43.65 428.73 37.70 C 435.79 34.02 443.68 32.57 451.50 31.59 M 449.63 125.48 C 449.36 127.35 449.11 129.23 448.85 131.11 C 447.94 139.66 443.50 147.20 439.99 154.87 C 436.19 150.16 432.91 144.58 427.31 141.79 C 422.18 139.28 416.39 138.74 411.03 136.89 C 407.71 135.85 404.85 133.82 401.81 132.19 C 402.35 134.18 402.45 136.40 403.70 138.12 C 409.20 145.37 414.25 153.24 416.62 162.11 C 418.15 169.35 416.08 176.71 416.06 183.99 C 419.92 186.61 425.62 183.26 428.99 187.02 C 434.86 193.32 439.54 200.61 444.14 207.86 C 446.31 211.28 449.18 214.50 453.15 215.80 C 461.86 218.76 471.64 217.83 479.99 214.12 C 477.09 209.45 472.19 204.73 473.19 198.78 C 475.99 198.37 477.05 201.66 478.66 203.34 C 484.35 211.55 492.33 217.69 499.19 224.84 C 500.93 214.72 500.90 203.67 506.79 194.83 C 509.11 191.09 511.09 187.15 513.39 183.40 C 518.23 175.73 521.40 167.01 527.40 160.08 C 527.32 158.72 527.25 157.35 527.19 155.99 C 521.92 157.83 516.28 158.13 511.00 159.93 C 509.35 160.43 507.71 161.01 506.00 161.21 C 504.48 160.51 503.63 158.98 502.57 157.78 C 501.38 160.57 499.60 164.74 496.02 164.52 C 491.38 161.01 488.44 155.79 484.25 151.80 C 479.72 146.96 473.72 144.00 467.91 141.01 C 466.84 149.14 463.89 157.86 456.65 162.52 C 458.83 156.91 461.88 151.18 461.30 144.99 C 459.67 137.34 453.52 131.97 449.63 125.48 M 524.35 174.37 C 518.74 186.80 508.53 197.11 506.03 210.88 C 504.00 222.47 502.71 234.36 504.26 246.10 C 505.48 255.48 506.80 265.15 511.50 273.54 C 514.94 279.62 518.83 285.59 524.16 290.20 C 520.13 293.32 516.39 287.84 513.81 285.23 C 516.35 294.68 517.33 304.59 521.44 313.58 C 524.84 320.83 528.44 328.13 529.81 336.10 C 531.54 345.89 533.51 355.68 536.75 365.11 C 540.49 375.90 544.66 386.67 546.38 398.02 C 547.71 405.71 542.76 412.50 537.52 417.53 C 524.86 430.07 514.15 444.39 504.06 459.03 C 495.08 471.75 487.83 485.84 483.94 500.97 C 489.52 503.85 493.61 508.67 497.41 513.53 C 503.31 521.14 510.89 527.80 520.04 531.12 C 527.74 533.71 536.00 534.74 544.09 533.99 C 556.57 532.43 568.08 526.95 579.90 522.96 C 600.23 514.85 622.02 511.79 643.30 507.25 C 652.15 505.48 661.08 504.17 670.03 503.08 C 683.97 501.36 698.07 499.56 712.11 501.19 C 715.78 501.62 719.29 502.85 722.73 504.17 C 722.75 487.74 724.84 471.24 722.65 454.86 C 719.65 432.60 711.82 411.30 709.03 389.00 C 707.11 379.27 706.40 369.39 705.31 359.55 C 694.04 356.87 683.23 352.68 672.34 348.79 C 664.39 345.86 656.46 342.79 648.86 339.04 C 644.45 342.90 638.75 344.80 633.01 345.50 C 621.01 347.21 608.25 345.65 597.02 351.05 C 595.15 351.78 593.00 353.77 591.14 351.92 C 585.27 346.95 582.41 339.41 576.98 334.06 C 572.15 330.99 566.47 329.49 560.88 328.52 C 554.69 327.34 548.25 327.90 542.20 326.02 C 544.08 325.39 546.03 324.81 548.05 324.81 C 556.34 324.78 564.82 325.34 572.56 328.57 C 566.98 323.12 561.31 317.73 555.01 313.11 C 549.39 309.04 543.83 304.38 536.80 303.09 C 543.28 300.17 549.39 305.18 554.76 308.27 C 569.75 317.92 582.97 330.56 592.18 345.92 C 595.89 341.98 600.66 339.31 604.65 335.70 C 613.51 326.79 620.96 316.37 625.69 304.68 C 630.71 293.37 636.86 281.08 648.66 275.59 C 637.20 267.87 623.79 263.88 610.86 259.39 C 597.92 255.63 584.04 252.52 573.72 243.26 C 571.88 241.92 572.02 239.59 572.16 237.58 C 575.27 239.87 578.22 242.43 581.70 244.19 C 591.62 249.69 602.96 251.48 613.63 254.98 C 610.10 251.64 606.69 248.08 602.54 245.49 C 596.29 241.55 589.10 239.59 582.46 236.49 C 576.57 233.76 570.82 230.74 564.87 228.16 C 561.08 226.36 556.87 225.11 553.85 222.05 C 560.45 222.00 566.33 225.38 572.37 227.57 C 582.94 232.03 594.17 235.13 604.01 241.15 C 610.70 245.25 615.22 251.78 620.00 257.81 C 619.59 251.81 616.58 246.48 613.35 241.57 C 605.31 228.89 593.73 219.14 582.57 209.35 C 579.38 206.45 575.71 203.88 573.73 199.94 C 578.86 202.25 582.87 206.28 587.26 209.71 C 595.74 216.87 605.06 223.29 611.74 232.32 C 617.40 240.00 623.70 248.45 623.22 258.52 C 634.89 263.07 647.88 267.27 655.57 277.86 C 655.41 278.64 655.10 280.22 654.94 281.01 C 667.88 286.51 681.63 289.79 694.60 295.18 C 691.15 285.30 686.71 275.82 682.82 266.11 C 674.15 245.72 659.79 228.31 643.38 213.63 C 631.61 203.09 621.46 190.95 610.15 179.96 C 605.55 175.43 599.52 172.33 593.11 171.48 C 582.12 169.92 571.03 169.33 559.95 169.04 C 557.92 168.83 555.27 169.08 554.19 166.92 C 551.25 161.75 549.94 155.83 548.77 150.05 C 538.70 155.85 529.46 163.72 524.35 174.37 M 382.19 266.28 C 380.26 268.18 379.17 270.91 379.34 273.62 C 380.64 275.79 383.46 276.10 385.54 277.21 C 385.28 280.72 381.26 283.20 382.17 287.01 C 381.88 290.16 385.47 290.41 387.46 291.75 C 388.22 294.74 385.51 297.88 387.10 300.83 C 388.85 304.03 393.33 303.07 395.83 305.19 C 397.51 307.76 396.43 311.25 397.96 313.91 C 399.58 315.92 402.43 316.87 404.96 316.42 C 408.45 315.44 411.23 312.64 414.91 312.19 C 419.19 311.74 423.45 312.65 427.67 313.33 C 429.76 309.84 431.90 306.14 432.26 302.01 C 432.02 299.27 429.98 297.23 428.38 295.17 C 426.85 295.25 425.21 296.01 423.74 295.35 C 421.99 293.26 421.65 290.41 420.51 288.00 C 417.81 288.61 414.35 290.51 412.10 287.94 C 406.40 281.38 404.38 272.61 402.84 264.28 C 400.65 262.95 398.54 261.52 396.50 259.99 C 391.28 260.67 385.97 262.49 382.19 266.28 M 406.40 265.78 C 408.74 272.37 411.44 278.88 415.53 284.60 C 418.07 280.13 418.54 274.96 420.06 270.15 C 420.55 270.16 421.51 270.19 421.99 270.20 C 423.87 274.26 422.51 278.97 421.13 282.99 C 423.89 284.41 425.50 287.06 426.71 289.81 C 431.90 289.86 434.88 294.82 436.51 299.12 C 437.99 304.64 434.60 309.89 431.46 314.14 C 438.39 314.68 445.06 312.14 451.98 312.40 C 457.50 312.32 463.02 312.97 468.37 314.37 C 485.82 318.97 503.30 323.81 521.30 325.73 C 519.04 320.35 516.22 315.19 514.59 309.57 C 511.93 300.78 510.33 291.68 509.57 282.55 C 491.20 279.26 472.48 278.73 454.06 275.87 C 446.16 274.11 437.67 273.03 431.02 268.03 C 426.49 264.77 421.81 260.80 415.98 260.48 C 412.27 260.86 408.45 262.53 406.40 265.78 M 625.26 319.94 C 633.51 323.14 640.68 328.42 648.43 332.58 C 657.37 337.57 666.97 341.19 676.57 344.66 C 685.81 347.90 694.96 351.54 704.56 353.67 C 714.19 355.81 723.82 358.02 733.55 359.69 C 739.30 360.65 744.73 363.13 749.37 366.64 C 755.97 371.69 763.18 375.97 770.84 379.20 C 773.74 380.46 776.61 381.88 779.07 383.89 C 783.05 387.21 782.83 393.47 786.87 396.62 C 790.31 396.74 792.96 394.39 793.96 391.24 C 790.65 386.02 788.82 379.86 789.08 373.67 C 790.43 373.38 791.38 373.83 791.92 375.03 C 794.57 379.86 795.35 385.68 799.00 389.94 C 800.94 392.50 804.79 389.81 804.49 387.07 C 803.58 380.90 801.78 374.88 799.98 368.91 C 799.44 367.37 799.74 364.72 801.95 365.88 C 806.22 370.68 807.45 377.14 808.69 383.23 C 810.60 380.22 813.64 377.61 814.29 374.00 C 813.36 367.49 806.27 363.92 805.02 357.46 C 805.50 357.28 806.46 356.91 806.94 356.73 C 810.39 359.29 812.89 362.87 815.82 365.99 C 814.09 359.08 811.74 352.21 807.80 346.23 C 804.41 341.78 798.06 341.76 792.99 341.83 C 788.26 341.36 785.77 346.04 781.85 347.67 C 780.43 345.03 782.86 342.41 784.36 340.40 C 788.58 336.31 793.19 332.57 796.84 327.91 C 791.20 329.85 785.15 330.30 779.60 332.51 C 772.94 334.85 770.75 343.04 764.02 345.24 C 759.49 346.12 755.63 342.98 751.71 341.30 C 737.72 335.12 725.88 325.25 713.98 315.86 C 707.82 311.06 702.40 305.29 695.61 301.36 C 687.91 296.63 678.95 294.78 670.63 291.50 C 662.93 289.00 655.86 285.00 648.28 282.22 C 635.81 291.32 632.76 307.32 625.26 319.94 M 603.86 344.05 C 616.87 340.08 631.19 342.14 643.69 336.29 C 636.75 332.15 629.86 327.90 622.60 324.31 C 617.17 331.56 611.58 339.08 603.86 344.05 M 655.85 510.52 C 638.13 513.75 620.39 516.92 602.85 521.00 C 585.66 525.01 569.69 532.86 552.67 537.39 C 541.61 540.25 529.82 539.39 518.98 535.99 C 512.11 533.81 506.11 529.66 500.70 525.00 C 497.87 529.50 498.34 534.84 498.43 539.91 C 504.29 545.20 511.89 548.90 519.94 548.55 C 526.98 548.19 534.03 547.85 541.09 547.96 C 542.58 548.11 545.06 547.85 544.74 550.08 C 541.17 551.85 537.07 551.67 533.22 552.22 C 525.92 552.82 518.40 554.99 511.19 552.69 C 504.84 551.23 499.67 547.15 495.12 542.70 C 491.85 547.14 489.27 552.02 486.41 556.73 C 501.86 558.44 517.59 559.49 532.52 564.15 C 531.71 565.01 531.51 566.90 530.01 566.82 C 525.73 567.11 521.48 566.28 517.27 565.69 C 506.17 563.91 495.04 562.30 483.91 560.71 C 475.91 571.33 467.19 581.77 462.51 594.39 C 461.26 597.90 460.28 602.04 462.54 605.38 C 469.24 617.76 476.42 630.51 487.54 639.48 C 496.00 645.81 506.67 647.97 516.96 649.11 C 524.03 649.95 531.11 650.83 538.24 651.03 C 540.96 646.56 543.57 641.95 547.08 638.04 C 552.18 632.47 558.05 627.67 564.00 623.04 C 575.60 614.41 587.65 606.37 600.37 599.48 C 615.49 591.40 630.03 582.30 644.93 573.84 C 654.26 568.12 664.02 563.13 673.21 557.17 C 685.16 548.69 695.81 538.14 703.48 525.59 C 707.28 519.32 709.55 512.30 712.56 505.65 C 693.51 504.54 674.63 507.90 655.85 510.52 M 600.17 606.17 C 589.79 611.82 580.02 618.47 570.43 625.35 C 564.34 629.84 558.40 634.57 553.22 640.11 C 558.96 643.29 564.50 647.08 570.92 648.80 C 576.17 650.34 581.72 649.81 587.06 649.10 C 596.15 647.98 605.08 645.91 613.99 643.87 C 615.80 643.24 618.38 643.05 619.07 640.92 C 620.80 636.43 621.58 631.65 622.80 627.01 C 624.47 619.26 627.33 611.82 630.69 604.65 C 634.75 596.26 639.19 587.96 645.16 580.75 C 630.25 589.37 615.37 598.06 600.17 606.17 M 433.91 634.83 C 429.36 638.61 424.28 642.19 421.53 647.59 C 416.27 658.24 416.92 671.43 408.59 680.60 C 420.48 696.45 434.98 710.43 451.28 721.69 C 455.84 710.89 464.13 702.34 471.58 693.51 C 484.44 679.47 496.32 663.93 512.86 653.97 C 505.45 652.83 498.04 651.05 491.32 647.61 C 483.80 643.95 477.75 637.90 472.68 631.35 C 467.56 624.51 462.88 617.31 459.14 609.61 C 452.22 619.37 443.28 627.48 433.91 634.83 M 543.88 653.83 C 538.92 656.77 532.87 655.41 527.42 655.43 C 525.66 669.01 525.79 682.95 528.83 696.34 C 531.26 706.84 540.47 713.48 545.39 722.64 C 548.02 727.38 548.79 732.82 549.65 738.09 C 566.60 738.30 583.33 733.10 598.27 725.33 C 594.41 716.72 591.77 707.45 591.67 697.96 C 591.38 682.50 595.23 667.31 599.71 652.62 C 591.58 654.00 583.39 655.90 575.10 655.42 C 565.61 654.69 557.68 648.96 549.83 644.15 C 547.71 647.28 546.39 650.99 543.88 653.83 M 362.62 720.63 C 350.41 731.15 337.48 740.81 325.09 751.12 C 310.45 763.14 295.94 775.30 281.32 787.33 C 274.07 793.22 267.30 799.74 259.45 804.85 C 264.45 805.01 269.70 805.20 274.17 807.72 C 282.35 812.29 289.01 820.40 289.74 830.02 C 301.40 822.30 313.53 815.30 325.95 808.88 C 357.61 792.36 391.16 778.64 419.44 756.39 C 430.79 747.20 442.44 737.56 449.67 724.63 C 445.09 722.27 440.79 719.43 436.80 716.19 C 425.40 706.97 414.70 696.72 405.89 684.97 C 390.50 695.65 377.16 708.87 362.62 720.63 M 577.29 739.16 C 568.47 741.67 559.29 743.57 550.07 742.75 C 551.01 751.18 550.71 759.75 552.42 768.10 C 554.53 778.81 557.27 789.38 560.38 799.83 C 564.43 813.60 567.63 827.60 570.07 841.75 C 573.83 861.25 577.86 880.75 579.69 900.55 C 580.68 907.58 580.24 915.05 583.29 921.62 C 585.43 926.25 590.56 928.02 594.60 930.58 C 600.33 933.73 606.30 937.50 613.08 937.38 C 621.38 934.74 627.78 927.76 631.55 920.09 C 629.24 911.50 627.00 902.85 625.85 894.03 C 624.93 884.06 624.41 874.05 624.18 864.04 C 623.81 843.35 625.59 822.55 622.59 801.98 C 620.07 785.83 618.00 769.39 611.89 754.11 C 608.28 745.55 604.18 737.21 599.98 728.94 C 593.15 733.78 585.26 736.81 577.29 739.16 M 247.43 809.76 C 237.00 813.73 230.12 823.14 223.94 831.95 C 217.41 841.54 208.81 849.41 200.69 857.61 C 193.34 864.80 186.52 873.52 185.25 884.06 C 184.37 889.15 188.26 893.21 191.13 896.92 C 198.35 906.01 210.76 910.41 222.11 908.04 C 229.53 906.38 237.22 904.15 243.03 899.00 C 250.85 892.49 257.35 884.63 264.12 877.10 C 271.36 868.95 277.97 860.03 282.14 849.89 C 284.77 843.63 284.87 836.69 284.50 830.01 C 284.27 821.72 277.88 814.71 270.66 811.38 C 263.20 809.22 255.09 808.09 247.43 809.76 M 577.34 922.95 C 567.64 937.16 551.62 945.41 535.69 950.72 C 523.32 955.45 510.21 957.88 497.93 962.84 C 495.62 963.98 492.42 965.06 491.91 967.96 C 491.88 972.58 495.17 976.67 498.97 979.00 C 505.67 982.84 513.54 983.44 520.98 984.87 C 536.39 987.77 552.48 990.74 568.00 986.90 C 577.50 984.49 587.30 983.89 597.06 983.48 C 610.71 983.05 624.39 983.03 638.04 983.59 C 643.20 983.85 649.07 981.15 650.60 975.88 C 652.74 967.81 651.87 959.02 648.57 951.38 C 644.60 942.02 639.26 933.34 634.24 924.53 C 630.33 931.00 624.94 936.80 617.99 939.99 C 614.52 941.60 610.49 942.25 606.79 941.07 C 598.83 938.66 591.32 934.97 584.18 930.76 C 581.09 928.97 579.16 925.90 577.34 922.95 Z" />
        <path fill="#020202" opacity="1.00"
            d=" M 565.81 389.95 C 567.03 385.50 566.77 380.68 568.74 376.44 C 571.15 380.80 570.14 385.86 569.32 390.51 C 567.22 401.21 564.03 411.87 558.13 421.14 C 549.87 434.04 541.35 446.80 531.80 458.79 C 524.16 468.61 515.78 478.01 510.15 489.21 C 507.91 492.81 506.77 497.65 502.58 499.54 C 503.36 493.61 506.44 488.36 508.98 483.06 C 515.81 470.10 526.35 459.68 534.80 447.82 C 540.81 439.73 546.22 431.21 551.79 422.80 C 558.50 412.88 562.96 401.55 565.81 389.95 Z" />
        <path fill="#020202" opacity="1.00"
            d=" M 620.61 410.67 C 621.82 409.51 623.09 408.17 624.88 408.06 C 625.12 410.73 622.98 412.61 621.46 414.50 C 610.97 426.39 598.23 435.98 585.90 445.87 C 574.23 454.78 563.67 465.10 554.29 476.38 C 551.22 480.00 548.62 484.02 546.90 488.47 C 558.03 485.77 568.86 481.14 580.38 480.54 C 575.65 484.26 569.46 484.82 563.96 486.83 C 558.18 488.39 552.92 491.64 546.98 492.57 C 544.01 492.97 542.20 489.61 543.03 487.06 C 544.38 481.25 548.32 476.53 551.97 471.99 C 560.42 462.13 569.54 452.78 579.79 444.80 C 593.63 433.72 608.15 423.35 620.61 410.67 Z" />
        <path fill="#020202" opacity="1.00"
            d=" M 619.92 579.86 C 623.58 578.12 627.32 576.45 631.33 575.70 C 630.13 578.97 626.76 580.28 623.97 581.87 C 609.46 589.56 594.76 596.89 579.93 603.97 C 568.42 609.41 556.36 613.68 544.01 616.78 C 538.75 617.99 533.41 620.13 527.93 619.17 C 528.00 618.69 528.13 617.71 528.19 617.22 C 544.27 612.70 560.11 607.23 575.38 600.44 C 590.30 593.75 605.11 586.80 619.92 579.86 Z" />
    </g>
    <g id="#f0b58bff">
        <path fill="#f0b58b" opacity="1.00"
            d=" M 449.63 125.48 C 453.52 131.97 459.67 137.34 461.30 144.99 C 461.88 151.18 458.83 156.91 456.65 162.52 C 463.89 157.86 466.84 149.14 467.91 141.01 C 473.72 144.00 479.72 146.96 484.25 151.80 C 488.44 155.79 491.38 161.01 496.02 164.52 C 499.60 164.74 501.38 160.57 502.57 157.78 C 503.63 158.98 504.48 160.51 506.00 161.21 C 507.71 161.01 509.35 160.43 511.00 159.93 C 516.28 158.13 521.92 157.83 527.19 155.99 C 527.25 157.35 527.32 158.72 527.40 160.08 C 521.40 167.01 518.23 175.73 513.39 183.40 C 511.09 187.15 509.11 191.09 506.79 194.83 C 500.90 203.67 500.93 214.72 499.19 224.84 C 492.33 217.69 484.35 211.55 478.66 203.34 C 477.05 201.66 475.99 198.37 473.19 198.78 C 472.19 204.73 477.09 209.45 479.99 214.12 C 471.64 217.83 461.86 218.76 453.15 215.80 C 449.18 214.50 446.31 211.28 444.14 207.86 C 439.54 200.61 434.86 193.32 428.99 187.02 C 425.62 183.26 419.92 186.61 416.06 183.99 C 416.08 176.71 418.15 169.35 416.62 162.11 C 414.25 153.24 409.20 145.37 403.70 138.12 C 402.45 136.40 402.35 134.18 401.81 132.19 C 404.85 133.82 407.71 135.85 411.03 136.89 C 416.39 138.74 422.18 139.28 427.31 141.79 C 432.91 144.58 436.19 150.16 439.99 154.87 C 443.50 147.20 447.94 139.66 448.85 131.11 C 449.11 129.23 449.36 127.35 449.63 125.48 Z" />
        <path fill="#f0b58b" opacity="1.00"
            d=" M 382.19 266.28 C 385.97 262.49 391.28 260.67 396.50 259.99 C 398.54 261.52 400.65 262.95 402.84 264.28 C 404.38 272.61 406.40 281.38 412.10 287.94 C 414.35 290.51 417.81 288.61 420.51 288.00 C 421.65 290.41 421.99 293.26 423.74 295.35 C 425.21 296.01 426.85 295.25 428.38 295.17 C 429.98 297.23 432.02 299.27 432.26 302.01 C 431.90 306.14 429.76 309.84 427.67 313.33 C 423.45 312.65 419.19 311.74 414.91 312.19 C 411.23 312.64 408.45 315.44 404.96 316.42 C 402.43 316.87 399.58 315.92 397.96 313.91 C 396.43 311.25 397.51 307.76 395.83 305.19 C 393.33 303.07 388.85 304.03 387.10 300.83 C 385.51 297.88 388.22 294.74 387.46 291.75 C 385.47 290.41 381.88 290.16 382.17 287.01 C 381.26 283.20 385.28 280.72 385.54 277.21 C 383.46 276.10 380.64 275.79 379.34 273.62 C 379.17 270.91 380.26 268.18 382.19 266.28 Z" />
        <path fill="#f0b58b" opacity="1.00"
            d=" M 406.40 265.78 C 408.45 262.53 412.27 260.86 415.98 260.48 C 421.81 260.80 426.49 264.77 431.02 268.03 C 437.67 273.03 446.16 274.11 454.06 275.87 C 472.48 278.73 491.20 279.26 509.57 282.55 C 510.33 291.68 511.93 300.78 514.59 309.57 C 516.22 315.19 519.04 320.35 521.30 325.73 C 503.30 323.81 485.82 318.97 468.37 314.37 C 463.02 312.97 457.50 312.32 451.98 312.40 C 445.06 312.14 438.39 314.68 431.46 314.14 C 434.60 309.89 437.99 304.64 436.51 299.12 C 434.88 294.82 431.90 289.86 426.71 289.81 C 425.50 287.06 423.89 284.41 421.13 282.99 C 422.51 278.97 423.87 274.26 421.99 270.20 C 421.51 270.19 420.55 270.16 420.06 270.15 C 418.54 274.96 418.07 280.13 415.53 284.60 C 411.44 278.88 408.74 272.37 406.40 265.78 Z" />
        <path fill="#f0b58b" opacity="1.00"
            d=" M 625.26 319.94 C 632.76 307.32 635.81 291.32 648.28 282.22 C 655.86 285.00 662.93 289.00 670.63 291.50 C 678.95 294.78 687.91 296.63 695.61 301.36 C 702.40 305.29 707.82 311.06 713.98 315.86 C 725.88 325.25 737.72 335.12 751.71 341.30 C 755.63 342.98 759.49 346.12 764.02 345.24 C 770.75 343.04 772.94 334.85 779.60 332.51 C 785.15 330.30 791.20 329.85 796.84 327.91 C 793.19 332.57 788.58 336.31 784.36 340.40 C 782.86 342.41 780.43 345.03 781.85 347.67 C 785.77 346.04 788.26 341.36 792.99 341.83 C 798.06 341.76 804.41 341.78 807.80 346.23 C 811.74 352.21 814.09 359.08 815.82 365.99 C 812.89 362.87 810.39 359.29 806.94 356.73 C 806.46 356.91 805.50 357.28 805.02 357.46 C 806.27 363.92 813.36 367.49 814.29 374.00 C 813.64 377.61 810.60 380.22 808.69 383.23 C 807.45 377.14 806.22 370.68 801.95 365.88 C 799.74 364.72 799.44 367.37 799.98 368.91 C 801.78 374.88 803.58 380.90 804.49 387.07 C 804.79 389.81 800.94 392.50 799.00 389.94 C 795.35 385.68 794.57 379.86 791.92 375.03 C 791.38 373.83 790.43 373.38 789.08 373.67 C 788.82 379.86 790.65 386.02 793.96 391.24 C 792.96 394.39 790.31 396.74 786.87 396.62 C 782.83 393.47 783.05 387.21 779.07 383.89 C 776.61 381.88 773.74 380.46 770.84 379.20 C 763.18 375.97 755.97 371.69 749.37 366.64 C 744.73 363.13 739.30 360.65 733.55 359.69 C 723.82 358.02 714.19 355.81 704.56 353.67 C 694.96 351.54 685.81 347.90 676.57 344.66 C 666.97 341.19 657.37 337.57 648.43 332.58 C 640.68 328.42 633.51 323.14 625.26 319.94 Z" />
        <path fill="#f0b58b" opacity="1.00"
            d=" M 433.91 634.83 C 443.28 627.48 452.22 619.37 459.14 609.61 C 462.88 617.31 467.56 624.51 472.68 631.35 C 477.75 637.90 483.80 643.95 491.32 647.61 C 498.04 651.05 505.45 652.83 512.86 653.97 C 496.32 663.93 484.44 679.47 471.58 693.51 C 464.13 702.34 455.84 710.89 451.28 721.69 C 434.98 710.43 420.48 696.45 408.59 680.60 C 416.92 671.43 416.27 658.24 421.53 647.59 C 424.28 642.19 429.36 638.61 433.91 634.83 Z" />
        <path fill="#f0b58b" opacity="1.00"
            d=" M 543.88 653.83 C 546.39 650.99 547.71 647.28 549.83 644.15 C 557.68 648.96 565.61 654.69 575.10 655.42 C 583.39 655.90 591.58 654.00 599.71 652.62 C 595.23 667.31 591.38 682.50 591.67 697.96 C 591.77 707.45 594.41 716.72 598.27 725.33 C 583.33 733.10 566.60 738.30 549.65 738.09 C 548.79 732.82 548.02 727.38 545.39 722.64 C 540.47 713.48 531.26 706.84 528.83 696.34 C 525.79 682.95 525.66 669.01 527.42 655.43 C 532.87 655.41 538.92 656.77 543.88 653.83 Z" />
    </g>
    <g id="#f11b27ff">
        <path fill="var(--shirt-color, grey)" opacity="1.00"
            d=" M 524.35 174.37 C 529.46 163.72 538.70 155.85 548.77 150.05 C 549.94 155.83 551.25 161.75 554.19 166.92 C 555.27 169.08 557.92 168.83 559.95 169.04 C 571.03 169.33 582.12 169.92 593.11 171.48 C 599.52 172.33 605.55 175.43 610.15 179.96 C 621.46 190.95 631.61 203.09 643.38 213.63 C 659.79 228.31 674.15 245.72 682.82 266.11 C 686.71 275.82 691.15 285.30 694.60 295.18 C 681.63 289.79 667.88 286.51 654.94 281.01 C 655.10 280.22 655.41 278.64 655.57 277.86 C 647.88 267.27 634.89 263.07 623.22 258.52 C 623.70 248.45 617.40 240.00 611.74 232.32 C 605.06 223.29 595.74 216.87 587.26 209.71 C 582.87 206.28 578.86 202.25 573.73 199.94 C 575.71 203.88 579.38 206.45 582.57 209.35 C 593.73 219.14 605.31 228.89 613.35 241.57 C 616.58 246.48 619.59 251.81 620.00 257.81 C 615.22 251.78 610.70 245.25 604.01 241.15 C 594.17 235.13 582.94 232.03 572.37 227.57 C 566.33 225.38 560.45 222.00 553.85 222.05 C 556.87 225.11 561.08 226.36 564.87 228.16 C 570.82 230.74 576.57 233.76 582.46 236.49 C 589.10 239.59 596.29 241.55 602.54 245.49 C 606.69 248.08 610.10 251.64 613.63 254.98 C 602.96 251.48 591.62 249.69 581.70 244.19 C 578.22 242.43 575.27 239.87 572.16 237.58 C 572.02 239.59 571.88 241.92 573.72 243.26 C 584.04 252.52 597.92 255.63 610.86 259.39 C 623.79 263.88 637.20 267.87 648.66 275.59 C 636.86 281.08 630.71 293.37 625.69 304.68 C 620.96 316.37 613.51 326.79 604.65 335.70 C 600.66 339.31 595.89 341.98 592.18 345.92 C 582.97 330.56 569.75 317.92 554.76 308.27 C 549.39 305.18 543.28 300.17 536.80 303.09 C 543.83 304.38 549.39 309.04 555.01 313.11 C 561.31 317.73 566.98 323.12 572.56 328.57 C 564.82 325.34 556.34 324.78 548.05 324.81 C 546.03 324.81 544.08 325.39 542.20 326.02 C 548.25 327.90 554.69 327.34 560.88 328.52 C 566.47 329.49 572.15 330.99 576.98 334.06 C 582.41 339.41 585.27 346.95 591.14 351.92 C 593.00 353.77 595.15 351.78 597.02 351.05 C 608.25 345.65 621.01 347.21 633.01 345.50 C 638.75 344.80 644.45 342.90 648.86 339.04 C 656.46 342.79 664.39 345.86 672.34 348.79 C 683.23 352.68 694.04 356.87 705.31 359.55 C 706.40 369.39 707.11 379.27 709.03 389.00 C 711.82 411.30 719.65 432.60 722.65 454.86 C 724.84 471.24 722.75 487.74 722.73 504.17 C 719.29 502.85 715.78 501.62 712.11 501.19 C 698.07 499.56 683.97 501.36 670.03 503.08 C 661.08 504.17 652.15 505.48 643.30 507.25 C 622.02 511.79 600.23 514.85 579.90 522.96 C 568.08 526.95 556.57 532.43 544.09 533.99 C 536.00 534.74 527.74 533.71 520.04 531.12 C 510.89 527.80 503.31 521.14 497.41 513.53 C 493.61 508.67 489.52 503.85 483.94 500.97 C 487.83 485.84 495.08 471.75 504.06 459.03 C 514.15 444.39 524.86 430.07 537.52 417.53 C 542.76 412.50 547.71 405.71 546.38 398.02 C 544.66 386.67 540.49 375.90 536.75 365.11 C 533.51 355.68 531.54 345.89 529.81 336.10 C 528.44 328.13 524.84 320.83 521.44 313.58 C 517.33 304.59 516.35 294.68 513.81 285.23 C 516.39 287.84 520.13 293.32 524.16 290.20 C 518.83 285.59 514.94 279.62 511.50 273.54 C 506.80 265.15 505.48 255.48 504.26 246.10 C 502.71 234.36 504.00 222.47 506.03 210.88 C 508.53 197.11 518.74 186.80 524.35 174.37 M 565.81 389.95 C 562.96 401.55 558.50 412.88 551.79 422.80 C 546.22 431.21 540.81 439.73 534.80 447.82 C 526.35 459.68 515.81 470.10 508.98 483.06 C 506.44 488.36 503.36 493.61 502.58 499.54 C 506.77 497.65 507.91 492.81 510.15 489.21 C 515.78 478.01 524.16 468.61 531.80 458.79 C 541.35 446.80 549.87 434.04 558.13 421.14 C 564.03 411.87 567.22 401.21 569.32 390.51 C 570.14 385.86 571.15 380.80 568.74 376.44 C 566.77 380.68 567.03 385.50 565.81 389.95 M 620.61 410.67 C 608.15 423.35 593.63 433.72 579.79 444.80 C 569.54 452.78 560.42 462.13 551.97 471.99 C 548.32 476.53 544.38 481.25 543.03 487.06 C 542.20 489.61 544.01 492.97 546.98 492.57 C 552.92 491.64 558.18 488.39 563.96 486.83 C 569.46 484.82 575.65 484.26 580.38 480.54 C 568.86 481.14 558.03 485.77 546.90 488.47 C 548.62 484.02 551.22 480.00 554.29 476.38 C 563.67 465.10 574.23 454.78 585.90 445.87 C 598.23 435.98 610.97 426.39 621.46 414.50 C 622.98 412.61 625.12 410.73 624.88 408.06 C 623.09 408.17 621.82 409.51 620.61 410.67 Z" />
        <path fill="var(--shirt-color, grey)" opacity="1.00"
            d=" M 603.86 344.05 C 611.58 339.08 617.17 331.56 622.60 324.31 C 629.86 327.90 636.75 332.15 643.69 336.29 C 631.19 342.14 616.87 340.08 603.86 344.05 Z" />
    </g>
    <g id="#2b3dcdff">
        <path fill="var(--pants-color, grey)" opacity="1.00"
            d=" M 655.85 510.52 C 674.63 507.90 693.51 504.54 712.56 505.65 C 709.55 512.30 707.28 519.32 703.48 525.59 C 695.81 538.14 685.16 548.69 673.21 557.17 C 664.02 563.13 654.26 568.12 644.93 573.84 C 630.03 582.30 615.49 591.40 600.37 599.48 C 587.65 606.37 575.60 614.41 564.00 623.04 C 558.05 627.67 552.18 632.47 547.08 638.04 C 543.57 641.95 540.96 646.56 538.24 651.03 C 531.11 650.83 524.03 649.95 516.96 649.11 C 506.67 647.97 496.00 645.81 487.54 639.48 C 476.42 630.51 469.24 617.76 462.54 605.38 C 460.28 602.04 461.26 597.90 462.51 594.39 C 467.19 581.77 475.91 571.33 483.91 560.71 C 495.04 562.30 506.17 563.91 517.27 565.69 C 521.48 566.28 525.73 567.11 530.01 566.82 C 531.51 566.90 531.71 565.01 532.52 564.15 C 517.59 559.49 501.86 558.44 486.41 556.73 C 489.27 552.02 491.85 547.14 495.12 542.70 C 499.67 547.15 504.84 551.23 511.19 552.69 C 518.40 554.99 525.92 552.82 533.22 552.22 C 537.07 551.67 541.17 551.85 544.74 550.08 C 545.06 547.85 542.58 548.11 541.09 547.96 C 534.03 547.85 526.98 548.19 519.94 548.55 C 511.89 548.90 504.29 545.20 498.43 539.91 C 498.34 534.84 497.87 529.50 500.70 525.00 C 506.11 529.66 512.11 533.81 518.98 535.99 C 529.82 539.39 541.61 540.25 552.67 537.39 C 569.69 532.86 585.66 525.01 602.85 521.00 C 620.39 516.92 638.13 513.75 655.85 510.52 M 619.92 579.86 C 605.11 586.80 590.30 593.75 575.38 600.44 C 560.11 607.23 544.27 612.70 528.19 617.22 C 528.13 617.71 528.00 618.69 527.93 619.17 C 533.41 620.13 538.75 617.99 544.01 616.78 C 556.36 613.68 568.42 609.41 579.93 603.97 C 594.76 596.89 609.46 589.56 623.97 581.87 C 626.76 580.28 630.13 578.97 631.33 575.70 C 627.32 576.45 623.58 578.12 619.92 579.86 Z" />
        <path fill="var(--pants-color, grey)" opacity="1.00"
            d=" M 600.17 606.17 C 615.37 598.06 630.25 589.37 645.16 580.75 C 639.19 587.96 634.75 596.26 630.69 604.65 C 627.33 611.82 624.47 619.26 622.80 627.01 C 621.58 631.65 620.80 636.43 619.07 640.92 C 618.38 643.05 615.80 643.24 613.99 643.87 C 605.08 645.91 596.15 647.98 587.06 649.10 C 581.72 649.81 576.17 650.34 570.92 648.80 C 564.50 647.08 558.96 643.29 553.22 640.11 C 558.40 634.57 564.34 629.84 570.43 625.35 C 580.02 618.47 589.79 611.82 600.17 606.17 Z" />
        <path fill="var(--socks-color, grey)" opacity="1.00"
            d=" M 362.62 720.63 C 377.16 708.87 390.50 695.65 405.89 684.97 C 414.70 696.72 425.40 706.97 436.80 716.19 C 440.79 719.43 445.09 722.27 449.67 724.63 C 442.44 737.56 430.79 747.20 419.44 756.39 C 391.16 778.64 357.61 792.36 325.95 808.88 C 313.53 815.30 301.40 822.30 289.74 830.02 C 289.01 820.40 282.35 812.29 274.17 807.72 C 269.70 805.20 264.45 805.01 259.45 804.85 C 267.30 799.74 274.07 793.22 281.32 787.33 C 295.94 775.30 310.45 763.14 325.09 751.12 C 337.48 740.81 350.41 731.15 362.62 720.63 Z" />
        <path fill="var(--socks-color, grey)" opacity="1.00"
            d=" M 577.29 739.16 C 585.26 736.81 593.15 733.78 599.98 728.94 C 604.18 737.21 608.28 745.55 611.89 754.11 C 618.00 769.39 620.07 785.83 622.59 801.98 C 625.59 822.55 623.81 843.35 624.18 864.04 C 624.41 874.05 624.93 884.06 625.85 894.03 C 627.00 902.85 629.24 911.50 631.55 920.09 C 627.78 927.76 621.38 934.74 613.08 937.38 C 606.30 937.50 600.33 933.73 594.60 930.58 C 590.56 928.02 585.43 926.25 583.29 921.62 C 580.24 915.05 580.68 907.58 579.69 900.55 C 577.86 880.75 573.83 861.25 570.07 841.75 C 567.63 827.60 564.43 813.60 560.38 799.83 C 557.27 789.38 554.53 778.81 552.42 768.10 C 550.71 759.75 551.01 751.18 550.07 742.75 C 559.29 743.57 568.47 741.67 577.29 739.16 Z" />
    </g>
    <g id="#4d4d4dff">
        <path fill="#4d4d4d" opacity="1.00"
            d=" M 247.43 809.76 C 255.09 808.09 263.20 809.22 270.66 811.38 C 277.88 814.71 284.27 821.72 284.50 830.01 C 284.87 836.69 284.77 843.63 282.14 849.89 C 277.97 860.03 271.36 868.95 264.12 877.10 C 257.35 884.63 250.85 892.49 243.03 899.00 C 237.22 904.15 229.53 906.38 222.11 908.04 C 210.76 910.41 198.35 906.01 191.13 896.92 C 188.26 893.21 184.37 889.15 185.25 884.06 C 186.52 873.52 193.34 864.80 200.69 857.61 C 208.81 849.41 217.41 841.54 223.94 831.95 C 230.12 823.14 237.00 813.73 247.43 809.76 Z" />
        <path fill="#4d4d4d" opacity="1.00"
            d=" M 577.34 922.95 C 579.16 925.90 581.09 928.97 584.18 930.76 C 591.32 934.97 598.83 938.66 606.79 941.07 C 610.49 942.25 614.52 941.60 617.99 939.99 C 624.94 936.80 630.33 931.00 634.24 924.53 C 639.26 933.34 644.60 942.02 648.57 951.38 C 651.87 959.02 652.74 967.81 650.60 975.88 C 649.07 981.15 643.20 983.85 638.04 983.59 C 624.39 983.03 610.71 983.05 597.06 983.48 C 587.30 983.89 577.50 984.49 568.00 986.90 C 552.48 990.74 536.39 987.77 520.98 984.87 C 513.54 983.44 505.67 982.84 498.97 979.00 C 495.17 976.67 491.88 972.58 491.91 967.96 C 492.42 965.06 495.62 963.98 497.93 962.84 C 510.21 957.88 523.32 955.45 535.69 950.72 C 551.62 945.41 567.64 937.16 577.34 922.95 Z" />
    </g>
</svg>