<?xml version="1.0" encoding="UTF-8" ?>
<!DOCTYPE svg PUBLIC "-//W3C//DTD SVG 1.1//EN" "http://www.w3.org/Graphics/SVG/1.1/DTD/svg11.dtd">
<svg width="1000pt" height="1000pt" viewBox="0 0 1000 1000" version="1.1" xmlns="http://www.w3.org/2000/svg">
    <g id="#020202ff">
        <path fill="#020202" opacity="1.00"
            d=" M 495.49 17.43 C 496.93 16.96 498.11 18.04 499.30 18.67 C 504.20 21.81 510.17 22.28 515.75 23.33 C 518.14 21.23 519.76 17.96 522.93 16.94 C 528.12 16.34 532.99 19.13 536.97 22.18 C 540.72 24.95 543.96 29.02 548.91 29.50 C 559.76 30.94 569.13 37.68 575.84 46.06 C 580.85 52.03 585.23 58.67 587.99 65.98 C 590.37 72.07 590.17 78.75 592.06 84.96 C 593.39 89.74 595.48 94.27 596.69 99.09 C 599.81 110.45 599.48 122.34 599.80 134.01 C 600.33 139.93 596.16 145.09 596.99 151.02 C 597.02 156.26 598.93 162.63 594.73 166.80 C 590.36 171.02 591.22 177.57 591.85 183.03 C 592.02 186.03 595.15 187.42 597.66 188.14 C 606.55 190.41 615.82 191.79 624.10 195.97 C 633.60 200.49 641.23 208.06 647.81 216.12 C 651.61 220.64 654.86 225.77 659.74 229.25 C 666.65 234.27 674.46 237.83 681.79 242.17 C 701.33 253.55 722.05 263.64 738.55 279.42 C 744.49 285.20 750.68 290.97 754.88 298.20 C 756.77 301.31 757.58 305.10 760.23 307.74 C 771.01 318.30 778.38 331.74 784.78 345.26 C 790.46 357.24 794.22 369.99 797.35 382.83 C 799.53 391.44 801.29 400.17 802.30 409.00 C 803.19 416.76 802.98 424.67 804.83 432.30 C 808.16 445.81 813.62 458.70 820.03 471.02 C 823.02 476.56 823.85 483.04 822.59 489.19 C 820.77 497.53 820.74 507.03 814.79 513.76 C 812.60 516.38 809.08 516.19 806.06 515.61 C 803.58 517.25 800.69 517.85 797.76 517.77 C 794.12 520.77 789.38 521.38 785.06 522.86 C 783.77 526.84 781.69 530.91 777.71 532.77 C 774.93 534.44 770.81 533.65 769.42 530.57 C 767.35 526.16 767.83 521.14 768.02 516.42 C 765.42 515.42 762.58 514.56 760.67 512.40 C 756.84 508.15 755.80 502.31 754.70 496.90 C 753.59 490.77 752.36 484.49 753.29 478.26 C 755.01 469.37 760.27 461.72 765.80 454.77 C 768.07 451.96 770.05 448.72 770.25 445.02 C 771.48 430.25 768.03 415.54 763.32 401.63 C 756.75 381.96 744.52 364.78 731.20 349.13 C 725.75 353.69 721.76 359.75 716.12 364.09 C 712.73 366.84 708.24 367.39 704.02 367.18 C 691.64 366.81 679.27 367.42 666.91 368.01 C 663.20 367.84 660.62 370.93 658.65 373.65 C 653.92 380.40 653.77 389.03 650.18 396.30 C 646.53 403.79 641.57 410.59 638.38 418.32 C 630.32 437.70 626.02 459.13 629.10 480.07 C 629.82 485.42 630.70 490.74 631.27 496.11 C 632.44 507.49 635.69 518.56 636.53 529.98 C 636.92 536.00 635.94 542.92 631.01 546.99 C 625.94 551.10 618.99 551.13 612.80 551.13 C 609.39 559.38 607.08 568.06 603.07 576.06 C 594.76 594.27 583.88 611.47 569.74 625.73 C 557.44 637.83 544.38 649.17 530.66 659.64 C 514.57 672.04 496.67 681.92 481.04 694.93 C 471.02 704.58 461.86 715.37 455.56 727.85 C 466.93 730.28 478.58 732.52 488.91 738.11 C 507.92 748.11 523.59 763.49 536.39 780.56 C 546.22 792.78 553.00 807.55 565.01 817.94 C 572.26 823.99 580.42 828.83 588.79 833.16 C 595.62 836.66 602.23 840.58 609.20 843.79 C 615.88 847.19 623.22 849.30 629.34 853.73 C 633.92 857.06 638.91 860.09 642.33 864.71 C 646.43 870.56 647.78 878.81 644.16 885.21 C 638.92 895.05 629.45 901.51 620.18 907.18 C 610.27 913.07 603.58 922.71 596.37 931.43 C 587.58 942.84 577.73 953.69 565.57 961.59 C 560.65 964.66 555.14 966.82 549.39 967.64 C 537.74 969.21 525.82 968.99 514.29 966.66 C 507.31 965.03 499.65 962.83 495.11 956.86 C 493.26 954.53 495.16 951.66 496.82 949.88 C 501.71 944.77 507.29 940.34 511.94 934.99 C 520.73 924.99 529.57 914.84 536.20 903.23 C 540.29 896.38 543.29 888.74 548.89 882.91 C 534.47 874.72 520.23 866.19 505.69 858.20 C 494.55 852.33 483.62 846.02 473.45 838.57 C 455.95 826.47 438.65 813.15 426.78 795.20 C 421.27 786.91 414.66 779.21 406.45 773.50 C 401.58 770.18 396.48 766.68 390.47 766.02 C 388.31 775.00 386.22 783.99 384.23 793.01 C 379.49 810.17 373.33 827.06 364.49 842.55 C 359.20 850.29 354.07 858.16 348.27 865.53 C 342.62 871.79 337.27 878.32 331.54 884.50 C 320.32 895.80 309.73 907.75 297.81 918.35 C 299.34 920.39 301.13 922.45 301.51 925.09 C 302.28 930.06 301.10 935.05 300.22 939.94 C 299.00 945.56 300.55 951.40 299.02 957.00 C 297.63 962.90 294.31 969.23 288.28 971.40 C 279.71 974.39 270.83 968.99 262.16 971.46 C 253.83 973.76 245.30 976.98 236.51 975.25 C 219.07 971.99 201.69 965.71 187.95 954.17 C 183.55 950.31 179.28 945.22 179.39 939.04 C 179.17 933.12 182.95 927.97 187.47 924.54 C 206.70 910.01 229.57 901.73 251.62 892.56 C 256.58 890.76 258.53 885.41 261.28 881.37 C 266.99 872.60 271.10 862.95 275.42 853.45 C 279.25 844.01 283.62 834.80 287.25 825.29 C 290.59 817.95 294.40 810.83 297.57 803.42 C 307.26 783.91 319.17 765.25 324.82 744.01 C 329.60 725.53 332.38 706.54 338.07 688.29 C 340.46 680.54 344.24 673.14 349.84 667.21 C 346.26 664.43 342.56 661.81 339.07 658.92 C 336.70 657.23 336.38 653.82 337.42 651.29 C 340.69 642.69 347.61 636.33 354.31 630.35 C 358.83 626.14 364.81 623.60 368.46 618.45 C 371.81 613.65 375.59 609.00 377.57 603.41 C 380.32 597.20 380.32 590.20 383.02 583.98 C 386.77 575.26 391.50 567.02 395.37 558.36 C 399.30 550.20 402.21 541.55 406.79 533.71 C 411.02 525.94 417.17 519.52 422.93 512.90 C 422.09 496.83 427.60 480.87 436.76 467.79 C 441.60 459.60 448.04 452.32 451.69 443.46 C 455.95 431.51 456.42 418.72 458.05 406.26 C 443.63 406.37 429.24 405.13 414.91 403.62 C 395.25 401.41 376.68 394.14 358.66 386.34 C 351.71 383.61 344.67 380.19 337.02 380.37 C 330.17 379.98 323.82 382.93 317.69 385.57 C 307.91 389.66 298.57 394.72 288.74 398.70 C 283.98 400.66 278.77 400.90 273.70 400.70 C 273.51 403.87 274.43 408.43 270.86 410.10 C 265.19 412.33 257.47 413.06 253.07 407.99 C 249.07 402.56 248.83 395.50 247.43 389.14 C 246.46 382.99 245.02 375.70 249.42 370.49 C 255.60 363.07 261.54 354.71 270.63 350.66 C 281.82 345.94 294.35 346.56 306.15 347.95 C 320.15 348.74 333.95 351.45 347.94 352.34 C 370.94 353.74 393.90 356.62 416.98 355.82 C 423.24 355.57 429.42 354.30 435.42 352.52 C 440.56 350.92 446.38 351.20 450.97 348.05 C 453.93 345.98 456.74 343.72 459.78 341.75 C 458.05 336.98 456.04 332.22 452.84 328.23 C 450.33 325.05 447.07 322.47 445.08 318.90 C 443.55 316.08 443.56 312.23 445.67 309.71 C 453.61 300.86 465.61 297.29 473.82 288.76 C 477.11 285.70 480.03 281.71 479.94 277.01 C 480.47 266.27 482.93 255.76 485.62 245.39 C 487.26 239.27 490.25 233.62 493.73 228.35 C 489.93 226.70 486.37 224.41 483.85 221.09 C 478.02 213.74 473.66 205.36 469.41 197.03 C 464.69 197.47 459.90 198.15 455.17 197.44 C 452.64 197.06 451.18 194.67 450.83 192.32 C 449.72 186.47 449.17 180.46 447.03 174.85 C 442.84 162.09 432.63 152.41 428.32 139.69 C 426.84 135.45 426.45 130.93 426.47 126.47 C 423.11 125.75 419.97 124.24 417.67 121.64 C 419.63 119.56 421.57 117.47 423.52 115.38 C 421.33 114.08 418.26 113.41 417.24 110.79 C 415.67 106.89 416.06 102.48 417.32 98.55 C 419.51 91.51 421.92 84.53 423.61 77.34 C 424.52 73.29 427.42 70.15 430.38 67.42 C 434.45 63.66 438.09 59.48 442.14 55.70 C 438.52 54.41 433.26 52.65 433.05 48.11 C 436.58 46.60 440.54 46.61 444.16 45.33 C 453.89 42.64 461.80 36.10 470.60 31.46 C 477.70 27.62 485.24 23.49 493.61 24.23 C 494.10 21.93 494.36 19.53 495.49 17.43 M 429.55 126.45 C 430.73 130.52 431.61 134.72 433.43 138.58 C 437.43 147.24 443.87 154.39 448.89 162.43 C 460.65 158.11 474.43 158.18 485.46 164.54 C 481.76 168.51 477.33 171.66 473.31 175.27 C 469.74 178.46 466.03 181.52 461.87 183.91 C 462.05 181.06 462.21 178.20 462.69 175.38 C 459.52 174.57 456.41 173.55 453.38 172.34 C 455.51 178.54 456.38 185.05 457.30 191.51 C 461.53 191.73 465.77 191.32 470.00 191.59 C 474.30 191.84 475.47 196.60 477.38 199.64 C 481.38 206.23 484.61 213.41 489.77 219.22 C 493.83 223.83 500.57 223.56 506.13 222.78 C 513.80 221.20 521.24 217.55 526.39 211.54 C 530.71 206.25 535.08 200.99 538.79 195.24 C 534.64 206.29 526.54 215.50 523.20 226.91 C 522.76 231.08 521.55 236.47 525.00 239.70 C 532.40 239.01 538.66 234.43 545.08 231.07 C 555.48 225.36 565.36 218.78 575.25 212.25 C 582.08 207.46 588.80 202.30 594.15 195.85 C 592.38 193.31 590.58 190.79 588.63 188.39 C 585.09 183.86 583.65 178.15 582.58 172.62 C 577.24 172.30 571.94 174.49 568.15 178.20 C 566.73 180.19 564.70 178.06 563.09 177.54 C 561.07 180.09 559.43 182.98 557.10 185.27 C 556.33 186.28 554.17 185.43 554.71 184.11 C 555.37 178.61 555.44 172.95 553.26 167.75 C 549.65 171.71 545.99 177.49 539.90 177.09 C 537.27 177.17 535.69 174.92 534.24 173.10 C 538.32 169.97 543.08 167.05 544.98 162.00 C 547.91 154.62 548.54 145.96 545.48 138.52 C 544.01 134.81 539.26 133.07 535.66 134.68 C 530.36 136.84 527.65 142.25 524.92 146.92 C 520.68 154.93 514.31 162.04 506.08 166.05 C 503.98 167.26 501.65 168.03 499.22 167.97 C 502.39 162.64 503.86 155.89 500.41 150.29 C 497.21 150.82 493.81 151.33 490.69 150.11 C 489.25 147.59 488.66 144.60 486.67 142.40 C 483.98 139.39 480.35 137.34 477.99 134.02 C 476.52 132.02 475.65 129.68 474.69 127.42 C 464.68 132.24 452.82 134.37 442.08 130.88 C 438.65 129.81 437.28 126.31 436.87 123.05 C 434.57 124.46 432.09 125.56 429.55 126.45 M 598.69 193.74 C 598.41 196.33 598.02 199.09 596.16 201.09 C 590.24 207.96 582.65 213.12 575.10 218.02 C 566.69 223.37 558.32 228.79 549.58 233.57 C 543.05 237.11 536.70 241.21 529.50 243.27 C 526.48 244.14 522.58 244.31 520.52 241.48 C 516.94 235.91 516.98 228.36 520.39 222.70 C 513.85 227.15 505.98 229.26 498.10 228.88 C 496.00 233.61 493.79 238.31 492.30 243.28 C 487.70 260.74 485.67 278.89 486.76 296.94 C 487.48 307.36 487.72 317.89 486.16 328.26 C 485.06 335.43 482.58 342.28 480.42 349.19 C 478.23 356.09 477.61 363.34 476.87 370.51 C 483.65 362.34 490.82 354.36 495.93 344.99 C 497.71 341.74 498.54 338.09 499.99 334.70 C 501.40 337.17 501.93 340.05 500.86 342.76 C 496.79 355.38 487.53 365.27 479.28 375.32 C 475.63 379.99 471.39 384.29 468.62 389.59 C 465.74 394.95 463.67 400.82 463.19 406.92 C 462.15 419.03 461.26 431.26 457.97 443.01 C 455.39 451.81 449.28 458.85 444.43 466.44 C 440.91 471.98 436.99 477.30 434.26 483.30 C 430.50 491.37 428.01 500.13 427.86 509.07 C 427.79 514.29 429.58 519.86 433.87 523.12 C 439.01 527.03 445.70 527.74 451.89 528.59 C 466.26 529.55 480.65 528.20 495.02 527.83 C 508.70 527.77 522.38 527.05 536.06 527.21 C 553.76 528.00 571.67 531.30 587.62 539.28 C 591.16 540.82 594.84 542.04 598.43 543.50 C 604.31 545.90 610.75 546.11 617.02 546.23 C 620.63 546.23 624.67 546.09 627.49 543.52 C 630.39 540.88 631.10 536.75 631.20 533.03 C 631.12 522.86 627.84 513.13 626.42 503.14 C 625.64 497.08 624.98 491.01 624.02 484.98 C 621.92 471.67 622.04 458.14 620.70 444.75 C 619.64 434.87 620.80 424.96 621.78 415.12 C 622.28 411.29 622.39 406.92 625.54 404.18 C 626.78 410.42 625.57 416.74 625.55 423.02 C 625.31 430.45 625.92 437.87 626.46 445.28 C 628.70 428.99 634.78 413.39 643.45 399.47 C 649.50 390.18 649.12 378.29 655.61 369.22 C 651.56 369.57 647.22 371.27 643.31 369.44 C 643.23 368.28 643.15 366.92 644.49 366.47 C 647.68 364.69 651.47 364.68 655.01 364.10 C 669.02 361.99 683.21 361.61 697.35 361.42 C 684.50 348.93 673.92 334.36 661.61 321.37 C 654.55 314.31 646.55 308.32 638.47 302.48 C 640.48 301.87 642.72 301.19 644.70 302.35 C 650.95 305.39 656.23 310.06 661.50 314.52 C 667.87 319.84 672.65 326.70 678.36 332.68 C 684.86 339.19 690.31 346.63 696.52 353.40 C 698.54 349.61 700.91 345.97 704.01 342.97 C 714.66 332.33 728.03 325.09 741.25 318.16 C 746.23 315.52 751.67 313.98 757.00 312.22 C 754.28 302.69 748.60 294.35 741.27 287.75 C 723.29 269.50 699.58 258.97 677.70 246.37 C 670.38 242.04 662.63 238.39 655.84 233.24 C 651.01 229.65 647.91 224.39 644.05 219.89 C 638.41 213.25 632.62 206.35 624.80 202.21 C 616.67 197.86 607.48 196.22 598.69 193.74 M 473.00 295.97 C 466.23 302.57 456.84 305.66 450.21 312.45 C 448.98 313.53 449.17 315.49 450.19 316.66 C 453.21 320.95 457.59 324.13 460.28 328.70 C 466.72 338.31 467.30 350.22 471.39 360.79 C 472.44 348.16 478.95 336.77 479.84 324.12 C 481.03 312.57 479.64 300.99 479.49 289.43 C 477.41 291.69 475.26 293.88 473.00 295.97 M 724.34 334.10 C 732.74 341.22 739.96 349.61 746.31 358.58 C 755.23 371.29 763.16 384.88 768.08 399.67 C 773.39 414.79 776.56 430.91 775.28 446.97 C 774.79 450.85 772.76 454.29 770.30 457.25 C 765.04 464.05 759.42 471.25 758.00 479.97 C 757.37 487.50 759.40 494.93 760.80 502.27 C 761.65 506.79 764.01 511.09 768.35 513.07 C 768.84 505.76 768.65 498.40 769.61 491.14 C 769.58 489.68 770.66 489.10 772.02 489.07 C 773.14 491.56 773.06 494.35 773.20 497.03 C 773.32 502.71 774.12 508.38 773.66 514.06 C 773.27 518.86 772.97 523.76 774.47 528.41 C 776.44 526.80 778.68 525.19 779.39 522.60 C 781.39 516.54 782.28 510.18 783.50 503.93 C 784.68 497.98 784.75 491.77 787.03 486.08 C 787.75 487.23 788.95 488.34 788.79 489.86 C 788.95 499.34 787.22 508.71 785.75 518.04 C 788.38 516.77 791.97 516.45 793.44 513.60 C 797.51 506.06 797.12 496.78 801.87 489.57 C 802.36 489.65 803.34 489.80 803.83 489.88 C 803.69 498.25 802.49 506.67 799.84 514.64 C 805.82 510.07 805.65 501.63 809.46 495.58 C 810.23 493.90 812.95 489.39 814.08 493.01 C 812.80 499.99 810.31 506.70 807.66 513.27 C 809.16 512.31 811.01 511.61 811.93 509.97 C 814.79 505.09 815.70 499.43 817.03 494.02 C 817.93 490.41 817.93 486.64 817.77 482.95 C 817.62 478.20 815.02 474.09 813.03 469.95 C 807.29 458.87 802.97 447.05 800.01 434.94 C 798.16 427.74 798.35 420.28 797.69 412.94 C 796.60 399.55 793.34 386.48 789.67 373.60 C 788.19 366.81 785.91 360.21 783.12 353.85 C 777.22 340.60 769.83 327.89 760.72 316.60 C 747.84 320.62 735.76 326.94 724.34 334.10 M 702.62 353.66 C 701.00 355.93 701.03 358.80 700.78 361.46 C 705.06 361.46 709.88 362.36 713.58 359.62 C 719.01 355.71 723.36 350.44 729.21 347.07 C 726.04 343.77 722.80 340.54 719.40 337.48 C 713.17 342.13 706.86 347.03 702.62 353.66 M 448.19 354.34 C 443.71 355.58 439.02 355.92 434.57 357.33 C 426.62 359.77 418.31 360.73 410.01 360.76 C 389.28 360.97 368.63 358.68 347.95 357.63 C 334.21 357.03 320.66 354.40 306.93 353.80 C 297.19 352.73 287.19 351.62 277.50 353.74 C 268.54 355.54 261.68 362.31 256.22 369.24 C 253.94 372.38 250.64 375.74 251.74 379.99 C 253.05 387.36 253.88 394.87 256.02 402.06 C 257.99 406.92 264.27 406.22 268.52 405.88 C 268.53 403.78 268.52 401.69 268.51 399.59 C 266.69 398.11 264.34 396.89 263.53 394.53 C 262.86 392.60 263.78 390.55 265.12 389.16 C 271.11 382.86 278.53 378.16 286.06 373.93 C 286.65 373.87 287.81 373.74 288.40 373.68 C 288.19 376.70 285.57 378.52 283.46 380.32 C 278.12 384.36 272.46 388.05 267.87 392.98 C 274.33 396.20 282.14 395.22 288.61 392.51 C 300.40 387.47 311.71 381.31 323.70 376.73 C 333.71 372.90 345.02 374.06 354.64 378.46 C 374.05 386.72 393.62 395.71 414.82 398.07 C 429.49 399.55 444.19 400.58 458.92 401.24 C 461.29 392.36 465.45 383.93 471.63 377.07 C 471.45 374.39 470.93 371.73 470.86 369.04 C 463.75 363.47 463.03 353.79 460.71 345.71 C 456.88 349.01 453.25 352.99 448.19 354.34 M 412.91 533.98 C 407.70 542.91 404.50 552.77 400.04 562.06 C 396.46 569.97 392.00 577.45 388.35 585.33 C 385.67 591.06 385.22 597.44 384.23 603.60 C 388.39 601.54 392.91 599.57 395.70 595.67 C 400.13 589.60 402.78 582.43 407.50 576.54 C 412.34 569.71 419.13 564.75 425.61 559.60 C 430.29 556.01 434.32 551.29 440.08 549.38 C 438.96 551.42 437.80 553.48 436.12 555.13 C 427.52 563.83 417.04 570.78 410.09 581.02 C 405.40 587.52 402.92 595.46 397.37 601.36 C 393.29 605.63 387.63 607.68 382.59 610.54 C 379.09 612.40 377.35 616.14 375.30 619.32 C 373.24 622.76 370.61 625.87 367.39 628.26 C 357.04 635.68 346.21 643.46 340.08 654.96 C 355.03 664.44 370.17 674.91 379.89 690.07 C 386.64 700.68 396.93 708.69 408.37 713.73 C 421.73 720.85 436.42 725.39 451.51 726.79 C 454.13 720.62 457.77 715.01 461.47 709.46 C 464.83 704.27 469.77 700.43 473.63 695.65 C 477.28 691.26 482.54 688.59 486.12 684.18 C 493.30 673.20 499.73 661.74 506.69 650.62 C 513.28 640.13 521.40 630.75 529.26 621.23 C 533.06 616.74 536.22 611.71 540.57 607.70 C 539.38 612.24 536.50 615.99 533.74 619.68 C 528.42 626.73 523.09 633.77 517.77 640.83 C 508.44 653.14 501.56 667.03 493.11 679.92 C 503.06 673.36 512.77 666.46 522.44 659.51 C 537.18 648.39 551.12 636.26 564.41 623.45 C 577.63 610.48 588.36 595.08 596.49 578.47 C 600.93 569.40 605.37 560.26 608.32 550.57 C 600.46 550.11 593.32 546.62 586.08 543.89 C 568.00 535.53 547.88 532.05 528.03 532.61 C 510.02 533.06 492.01 533.03 474.01 533.78 C 463.02 533.72 451.78 533.99 441.17 530.70 C 434.12 528.59 427.22 524.38 424.26 517.33 C 420.32 522.77 416.02 527.99 412.91 533.98 M 340.68 693.79 C 337.18 707.46 334.73 721.38 331.77 735.17 C 331.24 736.64 332.15 738.02 332.74 739.32 C 338.65 750.47 350.36 758.66 363.10 759.29 C 372.64 759.92 382.03 756.43 389.66 750.83 C 391.46 745.08 393.38 739.34 395.87 733.85 C 398.32 728.15 401.00 722.25 405.92 718.24 C 394.04 713.02 383.21 704.89 376.07 693.93 C 369.99 684.19 361.72 675.96 352.56 669.09 C 346.50 676.13 343.01 684.90 340.68 693.79 M 399.18 737.22 C 395.51 745.34 393.23 753.96 391.05 762.57 C 393.72 762.66 396.45 762.90 398.90 764.09 C 407.63 768.16 415.62 773.84 422.28 780.81 C 438.53 779.15 452.20 766.32 457.08 751.07 C 458.96 745.40 459.08 739.26 457.44 733.52 C 455.35 732.92 453.28 732.25 451.12 731.98 C 436.59 731.00 422.33 726.82 409.40 720.14 C 404.09 724.48 401.92 731.19 399.18 737.22 M 462.07 734.78 C 466.53 757.67 447.78 781.58 424.77 783.66 C 429.59 789.39 433.55 795.78 438.41 801.49 C 451.40 817.11 468.37 828.57 484.78 840.25 C 498.14 849.26 512.78 856.12 526.58 864.41 C 541.35 872.72 555.89 881.46 571.03 889.08 C 574.45 890.65 578.35 891.03 582.07 890.59 C 587.14 889.94 591.54 885.87 592.68 880.90 C 594.68 871.73 588.23 862.65 591.45 853.59 C 592.50 849.90 595.53 847.38 598.75 845.57 C 589.17 840.46 579.28 835.84 570.31 829.68 C 558.71 822.05 549.94 811.04 542.30 799.63 C 528.55 778.94 511.96 759.56 490.75 746.24 C 482.01 740.62 472.07 737.32 462.07 734.78 M 329.91 742.58 C 327.99 750.08 325.36 757.38 322.51 764.58 C 317.71 776.28 311.05 787.07 305.31 798.30 C 301.27 805.80 298.11 813.73 294.18 821.28 C 291.84 825.77 290.03 830.50 288.07 835.16 C 279.85 853.27 273.22 872.36 261.52 888.65 C 266.44 887.86 271.79 887.23 276.40 889.60 C 282.34 892.55 285.20 899.66 284.69 906.04 C 284.28 911.68 283.21 917.58 285.71 922.94 C 299.64 912.63 311.08 899.46 323.24 887.21 C 331.04 879.60 337.77 871.02 345.08 862.96 C 350.63 856.08 355.43 848.62 360.51 841.38 C 369.18 826.88 374.60 810.74 379.40 794.63 C 382.48 781.78 385.11 768.83 388.31 756.01 C 378.28 763.07 365.09 765.59 353.33 761.77 C 343.29 758.85 335.07 751.53 329.91 742.58 M 595.75 858.05 C 595.22 865.47 598.80 872.56 598.07 880.01 C 597.47 888.55 589.69 896.04 581.04 895.86 C 570.96 895.72 561.66 891.07 553.18 886.02 C 545.99 894.66 541.92 905.29 535.48 914.43 C 529.35 923.16 522.49 931.38 515.13 939.09 C 509.75 944.81 503.34 949.42 497.85 955.02 C 506.97 962.04 518.98 962.70 530.01 963.43 C 541.20 963.43 553.12 962.87 562.93 956.86 C 576.22 949.23 585.85 937.01 595.09 925.09 C 601.56 917.31 607.74 908.89 616.59 903.62 C 625.46 898.18 634.94 892.45 640.00 882.97 C 643.43 877.04 641.22 869.08 636.16 864.80 C 629.39 858.91 620.78 855.89 612.71 852.29 C 609.52 851.04 606.51 848.94 603.02 848.75 C 598.79 849.56 596.36 854.11 595.75 858.05 M 254.30 897.21 C 235.18 905.44 215.50 912.70 197.68 923.62 C 192.72 926.76 186.30 929.42 184.71 935.70 C 182.53 941.12 186.48 946.21 190.16 949.79 C 198.29 957.39 208.39 962.65 218.93 966.06 C 226.70 968.64 234.76 970.82 242.99 970.89 C 250.07 971.04 256.37 967.21 263.29 966.31 C 268.55 965.28 273.86 966.38 279.07 967.14 C 282.71 967.65 287.02 967.67 289.78 964.85 C 294.20 960.47 294.76 953.84 294.73 947.96 C 294.63 941.46 296.87 935.28 297.82 928.92 C 292.63 929.36 286.59 930.29 282.14 926.92 C 277.02 921.62 278.03 913.71 278.68 907.02 C 279.27 902.21 277.71 896.17 272.74 894.30 C 266.51 892.31 260.05 894.85 254.30 897.21 M 294.72 920.62 C 293.54 921.84 292.35 923.06 291.15 924.29 C 292.73 924.07 294.30 923.81 295.86 923.51 C 295.57 922.51 295.11 921.56 294.72 920.62 Z" />
        <path fill="#020202" opacity="1.00"
            d=" M 579.40 276.50 C 581.40 275.83 583.00 277.50 584.29 278.78 C 587.68 282.45 590.30 286.74 593.24 290.76 C 603.04 305.14 613.49 319.07 624.60 332.47 C 627.57 336.50 631.69 339.67 634.10 344.09 C 634.01 344.56 633.84 345.51 633.75 345.99 C 629.12 344.58 625.97 340.62 622.64 337.35 C 613.90 327.69 605.71 317.51 598.06 306.96 C 590.86 297.24 585.81 286.12 578.22 276.68 L 579.40 276.50 Z" />
        <path fill="#020202" opacity="1.00"
            d=" M 563.45 312.34 C 568.41 312.83 572.09 316.39 575.99 319.10 C 587.55 327.61 600.44 334.19 613.88 339.18 C 621.77 341.95 628.81 346.64 635.30 351.83 C 633.63 352.08 631.86 352.79 630.33 351.76 C 625.61 349.54 621.36 346.38 616.41 344.62 C 606.59 341.12 596.67 337.62 587.62 332.36 C 582.24 329.25 577.45 325.27 572.57 321.45 C 569.20 318.78 565.66 316.12 563.45 312.34 Z" />
        <path fill="#020202" opacity="1.00"
            d=" M 609.28 390.34 C 612.96 386.54 616.02 382.14 620.12 378.75 C 619.24 384.08 615.42 388.11 612.07 392.06 C 599.68 406.05 585.60 418.43 571.11 430.17 C 557.81 441.11 543.25 450.33 529.14 460.15 C 512.97 471.21 495.05 479.26 477.30 487.37 C 468.96 490.52 460.34 493.66 451.36 493.97 C 458.97 488.91 468.29 487.55 476.35 483.37 C 489.40 476.72 503.04 471.20 515.56 463.53 C 526.57 457.07 536.83 449.48 547.44 442.41 C 562.52 432.51 576.08 420.55 589.49 408.55 C 596.22 402.63 603.22 396.97 609.28 390.34 Z" />
        <path fill="#020202" opacity="1.00"
            d=" M 594.76 457.71 C 597.38 454.63 599.32 451.01 602.21 448.14 C 603.18 451.62 602.07 455.14 599.99 457.97 C 594.29 466.11 587.58 473.50 580.56 480.52 C 577.91 483.40 574.82 486.19 573.59 490.02 C 572.70 492.66 574.82 494.98 577.11 495.92 C 583.81 498.95 591.60 497.07 598.31 500.13 C 594.95 502.41 590.78 501.65 586.97 501.80 C 581.57 501.78 575.59 501.42 571.32 497.71 C 565.61 492.92 568.66 484.58 573.13 480.08 C 579.85 472.15 588.15 465.74 594.76 457.71 Z" />
        <path fill="#020202" opacity="1.00"
            d=" M 522.06 561.15 C 527.14 560.39 532.23 558.82 537.42 559.67 C 532.84 563.67 526.53 563.96 520.89 565.28 C 502.20 568.74 483.43 572.26 465.42 578.47 C 454.32 582.32 443.31 586.44 432.23 590.32 C 426.39 592.30 420.91 595.34 414.83 596.56 C 415.54 595.42 415.89 593.91 417.28 593.38 C 423.28 590.08 429.64 587.46 435.99 584.93 C 451.60 578.89 467.07 572.32 483.33 568.20 C 496.05 564.90 509.14 563.43 522.06 561.15 Z" />
        <path fill="#020202" opacity="1.00"
            d=" M 454.88 684.87 C 457.01 683.61 459.18 681.40 461.87 682.12 C 461.94 683.38 461.56 684.64 460.56 685.48 C 452.21 693.35 442.19 699.25 431.56 703.49 C 426.11 705.54 420.47 708.87 414.45 707.24 C 418.19 703.56 423.35 702.20 427.98 700.04 C 437.42 695.89 446.50 690.89 454.88 684.87 Z" />
    </g>
    <g id="#f0b58bff">
        <path fill="#f0b58b" opacity="1.00"
            d=" M 429.55 126.45 C 432.09 125.56 434.57 124.46 436.87 123.05 C 437.28 126.31 438.65 129.81 442.08 130.88 C 452.82 134.37 464.68 132.24 474.69 127.42 C 475.65 129.68 476.52 132.02 477.99 134.02 C 480.35 137.34 483.98 139.39 486.67 142.40 C 488.66 144.60 489.25 147.59 490.69 150.11 C 493.81 151.33 497.21 150.82 500.41 150.29 C 503.86 155.89 502.39 162.64 499.22 167.97 C 501.65 168.03 503.98 167.26 506.08 166.05 C 514.31 162.04 520.68 154.93 524.92 146.92 C 527.65 142.25 530.36 136.84 535.66 134.68 C 539.26 133.07 544.01 134.81 545.48 138.52 C 548.54 145.96 547.91 154.62 544.98 162.00 C 543.08 167.05 538.32 169.97 534.24 173.10 C 535.69 174.92 537.27 177.17 539.90 177.09 C 545.99 177.49 549.65 171.71 553.26 167.75 C 555.44 172.95 555.37 178.61 554.71 184.11 C 554.17 185.43 556.33 186.28 557.10 185.27 C 559.43 182.98 561.07 180.09 563.09 177.54 C 564.70 178.06 566.73 180.19 568.15 178.20 C 571.94 174.49 577.24 172.30 582.58 172.62 C 583.65 178.15 585.09 183.86 588.63 188.39 C 590.58 190.79 592.38 193.31 594.15 195.85 C 588.80 202.30 582.08 207.46 575.25 212.25 C 565.36 218.78 555.48 225.36 545.08 231.07 C 538.66 234.43 532.40 239.01 525.00 239.70 C 521.55 236.47 522.76 231.08 523.20 226.91 C 526.54 215.50 534.64 206.29 538.79 195.24 C 535.08 200.99 530.71 206.25 526.39 211.54 C 521.24 217.55 513.80 221.20 506.13 222.78 C 500.57 223.56 493.83 223.83 489.77 219.22 C 484.61 213.41 481.38 206.23 477.38 199.64 C 475.47 196.60 474.30 191.84 470.00 191.59 C 465.77 191.32 461.53 191.73 457.30 191.51 C 456.38 185.05 455.51 178.54 453.38 172.34 C 456.41 173.55 459.52 174.57 462.69 175.38 C 462.21 178.20 462.05 181.06 461.87 183.91 C 466.03 181.52 469.74 178.46 473.31 175.27 C 477.33 171.66 481.76 168.51 485.46 164.54 C 474.43 158.18 460.65 158.11 448.89 162.43 C 443.87 154.39 437.43 147.24 433.43 138.58 C 431.61 134.72 430.73 130.52 429.55 126.45 Z" />
        <path fill="#f0b58b" opacity="1.00"
            d=" M 724.34 334.10 C 735.76 326.94 747.84 320.62 760.72 316.60 C 769.83 327.89 777.22 340.60 783.12 353.85 C 785.91 360.21 788.19 366.81 789.67 373.60 C 793.34 386.48 796.60 399.55 797.69 412.94 C 798.35 420.28 798.16 427.74 800.01 434.94 C 802.97 447.05 807.29 458.87 813.03 469.95 C 815.02 474.09 817.62 478.20 817.77 482.95 C 817.93 486.64 817.93 490.41 817.03 494.02 C 815.70 499.43 814.79 505.09 811.93 509.97 C 811.01 511.61 809.16 512.31 807.66 513.27 C 810.31 506.70 812.80 499.99 814.08 493.01 C 812.95 489.39 810.23 493.90 809.46 495.58 C 805.65 501.63 805.82 510.07 799.84 514.64 C 802.49 506.67 803.69 498.25 803.83 489.88 C 803.34 489.80 802.36 489.65 801.87 489.57 C 797.12 496.78 797.51 506.06 793.44 513.60 C 791.97 516.45 788.38 516.77 785.75 518.04 C 787.22 508.71 788.95 499.34 788.79 489.86 C 788.95 488.34 787.75 487.23 787.03 486.08 C 784.75 491.77 784.68 497.98 783.50 503.93 C 782.28 510.18 781.39 516.54 779.39 522.60 C 778.68 525.19 776.44 526.80 774.47 528.41 C 772.97 523.76 773.27 518.86 773.66 514.06 C 774.12 508.38 773.32 502.71 773.20 497.03 C 773.06 494.35 773.14 491.56 772.02 489.07 C 770.66 489.10 769.58 489.68 769.61 491.14 C 768.65 498.40 768.84 505.76 768.35 513.07 C 764.01 511.09 761.65 506.79 760.80 502.27 C 759.40 494.93 757.37 487.50 758.00 479.97 C 759.42 471.25 765.04 464.05 770.30 457.25 C 772.76 454.29 774.79 450.85 775.28 446.97 C 776.56 430.91 773.39 414.79 768.08 399.67 C 763.16 384.88 755.23 371.29 746.31 358.58 C 739.96 349.61 732.74 341.22 724.34 334.10 Z" />
        <path fill="#f0b58b" opacity="1.00"
            d=" M 448.19 354.34 C 453.25 352.99 456.88 349.01 460.71 345.71 C 463.03 353.79 463.75 363.47 470.86 369.04 C 470.93 371.73 471.45 374.39 471.63 377.07 C 465.45 383.93 461.29 392.36 458.92 401.24 C 444.19 400.58 429.49 399.55 414.82 398.07 C 393.62 395.71 374.05 386.72 354.64 378.46 C 345.02 374.06 333.71 372.90 323.70 376.73 C 311.71 381.31 300.40 387.47 288.61 392.51 C 282.14 395.22 274.33 396.20 267.87 392.98 C 272.46 388.05 278.12 384.36 283.46 380.32 C 285.57 378.52 288.19 376.70 288.40 373.68 C 287.81 373.74 286.65 373.87 286.06 373.93 C 278.53 378.16 271.11 382.86 265.12 389.16 C 263.78 390.55 262.86 392.60 263.53 394.53 C 264.34 396.89 266.69 398.11 268.51 399.59 C 268.52 401.69 268.53 403.78 268.52 405.88 C 264.27 406.22 257.99 406.92 256.02 402.06 C 253.88 394.87 253.05 387.36 251.74 379.99 C 250.64 375.74 253.94 372.38 256.22 369.24 C 261.68 362.31 268.54 355.54 277.50 353.74 C 287.19 351.62 297.19 352.73 306.93 353.80 C 320.66 354.40 334.21 357.03 347.95 357.63 C 368.63 358.68 389.28 360.97 410.01 360.76 C 418.31 360.73 426.62 359.77 434.57 357.33 C 439.02 355.92 443.71 355.58 448.19 354.34 Z" />
        <path fill="#f0b58b" opacity="1.00"
            d=" M 340.68 693.79 C 343.01 684.90 346.50 676.13 352.56 669.09 C 361.72 675.96 369.99 684.19 376.07 693.93 C 383.21 704.89 394.04 713.02 405.92 718.24 C 401.00 722.25 398.32 728.15 395.87 733.85 C 393.38 739.34 391.46 745.08 389.66 750.83 C 382.03 756.43 372.64 759.92 363.10 759.29 C 350.36 758.66 338.65 750.47 332.74 739.32 C 332.15 738.02 331.24 736.64 331.77 735.17 C 334.73 721.38 337.18 707.46 340.68 693.79 Z" />
        <path fill="#f0b58b" opacity="1.00"
            d=" M 399.18 737.22 C 401.92 731.19 404.09 724.48 409.40 720.14 C 422.33 726.82 436.59 731.00 451.12 731.98 C 453.28 732.25 455.35 732.92 457.44 733.52 C 459.08 739.26 458.96 745.40 457.08 751.07 C 452.20 766.32 438.53 779.15 422.28 780.81 C 415.62 773.84 407.63 768.16 398.90 764.09 C 396.45 762.90 393.72 762.66 391.05 762.57 C 393.23 753.96 395.51 745.34 399.18 737.22 Z" />
    </g>
    <g id="#f11b27ff">
        <path fill="var(--shirt-color, grey)" opacity="1.00"
            d=" M 598.69 193.74 C 607.48 196.22 616.67 197.86 624.80 202.21 C 632.62 206.35 638.41 213.25 644.05 219.89 C 647.91 224.39 651.01 229.65 655.84 233.24 C 662.63 238.39 670.38 242.04 677.70 246.37 C 699.58 258.97 723.29 269.50 741.27 287.75 C 748.60 294.35 754.28 302.69 757.00 312.22 C 751.67 313.98 746.23 315.52 741.25 318.16 C 728.03 325.09 714.66 332.33 704.01 342.97 C 700.91 345.97 698.54 349.61 696.52 353.40 C 690.31 346.63 684.86 339.19 678.36 332.68 C 672.65 326.70 667.87 319.84 661.50 314.52 C 656.23 310.06 650.95 305.39 644.70 302.35 C 642.72 301.19 640.48 301.87 638.47 302.48 C 646.55 308.32 654.55 314.31 661.61 321.37 C 673.92 334.36 684.50 348.93 697.35 361.42 C 683.21 361.61 669.02 361.99 655.01 364.10 C 651.47 364.68 647.68 364.69 644.49 366.47 C 643.15 366.92 643.23 368.28 643.31 369.44 C 647.22 371.27 651.56 369.57 655.61 369.22 C 649.12 378.29 649.50 390.18 643.45 399.47 C 634.78 413.39 628.70 428.99 626.46 445.28 C 625.92 437.87 625.31 430.45 625.55 423.02 C 625.57 416.74 626.78 410.42 625.54 404.18 C 622.39 406.92 622.28 411.29 621.78 415.12 C 620.80 424.96 619.64 434.87 620.70 444.75 C 622.04 458.14 621.92 471.67 624.02 484.98 C 624.98 491.01 625.64 497.08 626.42 503.14 C 627.84 513.13 631.12 522.86 631.20 533.03 C 631.10 536.75 630.39 540.88 627.49 543.52 C 624.67 546.09 620.63 546.23 617.02 546.23 C 610.75 546.11 604.31 545.90 598.43 543.50 C 594.84 542.04 591.16 540.82 587.62 539.28 C 571.67 531.30 553.76 528.00 536.06 527.21 C 522.38 527.05 508.70 527.77 495.02 527.83 C 480.65 528.20 466.26 529.55 451.89 528.59 C 445.70 527.74 439.01 527.03 433.87 523.12 C 429.58 519.86 427.79 514.29 427.86 509.07 C 428.01 500.13 430.50 491.37 434.26 483.30 C 436.99 477.30 440.91 471.98 444.43 466.44 C 449.28 458.85 455.39 451.81 457.97 443.01 C 461.26 431.26 462.15 419.03 463.19 406.92 C 463.67 400.82 465.74 394.95 468.62 389.59 C 471.39 384.29 475.63 379.99 479.28 375.32 C 487.53 365.27 496.79 355.38 500.86 342.76 C 501.93 340.05 501.40 337.17 499.99 334.70 C 498.54 338.09 497.71 341.74 495.93 344.99 C 490.82 354.36 483.65 362.34 476.87 370.51 C 477.61 363.34 478.23 356.09 480.42 349.19 C 482.58 342.28 485.06 335.43 486.16 328.26 C 487.72 317.89 487.48 307.36 486.76 296.94 C 485.67 278.89 487.70 260.74 492.30 243.28 C 493.79 238.31 496.00 233.61 498.10 228.88 C 505.98 229.26 513.85 227.15 520.39 222.70 C 516.98 228.36 516.94 235.91 520.52 241.48 C 522.58 244.31 526.48 244.14 529.50 243.27 C 536.70 241.21 543.05 237.11 549.58 233.57 C 558.32 228.79 566.69 223.37 575.10 218.02 C 582.65 213.12 590.24 207.96 596.16 201.09 C 598.02 199.09 598.41 196.33 598.69 193.74 M 579.40 276.50 L 578.22 276.68 C 585.81 286.12 590.86 297.24 598.06 306.96 C 605.71 317.51 613.90 327.69 622.64 337.35 C 625.97 340.62 629.12 344.58 633.75 345.99 C 633.84 345.51 634.01 344.56 634.10 344.09 C 631.69 339.67 627.57 336.50 624.60 332.47 C 613.49 319.07 603.04 305.14 593.24 290.76 C 590.30 286.74 587.68 282.45 584.29 278.78 C 583.00 277.50 581.40 275.83 579.40 276.50 M 563.45 312.34 C 565.66 316.12 569.20 318.78 572.57 321.45 C 577.45 325.27 582.24 329.25 587.62 332.36 C 596.67 337.62 606.59 341.12 616.41 344.62 C 621.36 346.38 625.61 349.54 630.33 351.76 C 631.86 352.79 633.63 352.08 635.30 351.83 C 628.81 346.64 621.77 341.95 613.88 339.18 C 600.44 334.19 587.55 327.61 575.99 319.10 C 572.09 316.39 568.41 312.83 563.45 312.34 M 609.28 390.34 C 603.22 396.97 596.22 402.63 589.49 408.55 C 576.08 420.55 562.52 432.51 547.44 442.41 C 536.83 449.48 526.57 457.07 515.56 463.53 C 503.04 471.20 489.40 476.72 476.35 483.37 C 468.29 487.55 458.97 488.91 451.36 493.97 C 460.34 493.66 468.96 490.52 477.30 487.37 C 495.05 479.26 512.97 471.21 529.14 460.15 C 543.25 450.33 557.81 441.11 571.11 430.17 C 585.60 418.43 599.68 406.05 612.07 392.06 C 615.42 388.11 619.24 384.08 620.12 378.75 C 616.02 382.14 612.96 386.54 609.28 390.34 M 594.76 457.71 C 588.15 465.74 579.85 472.15 573.13 480.08 C 568.66 484.58 565.61 492.92 571.32 497.71 C 575.59 501.42 581.57 501.78 586.97 501.80 C 590.78 501.65 594.95 502.41 598.31 500.13 C 591.60 497.07 583.81 498.95 577.11 495.92 C 574.82 494.98 572.70 492.66 573.59 490.02 C 574.82 486.19 577.91 483.40 580.56 480.52 C 587.58 473.50 594.29 466.11 599.99 457.97 C 602.07 455.14 603.18 451.62 602.21 448.14 C 599.32 451.01 597.38 454.63 594.76 457.71 Z" />
        <path fill="var(--shirt-color, grey)" opacity="1.00"
            d=" M 473.00 295.97 C 475.26 293.88 477.41 291.69 479.49 289.43 C 479.64 300.99 481.03 312.57 479.84 324.12 C 478.95 336.77 472.44 348.16 471.39 360.79 C 467.30 350.22 466.72 338.31 460.28 328.70 C 457.59 324.13 453.21 320.95 450.19 316.66 C 449.17 315.49 448.98 313.53 450.21 312.45 C 456.84 305.66 466.23 302.57 473.00 295.97 Z" />
        <path fill="var(--shirt-color, grey)" opacity="1.00"
            d=" M 702.62 353.66 C 706.86 347.03 713.17 342.13 719.40 337.48 C 722.80 340.54 726.04 343.77 729.21 347.07 C 723.36 350.44 719.01 355.71 713.58 359.62 C 709.88 362.36 705.06 361.46 700.78 361.46 C 701.03 358.80 701.00 355.93 702.62 353.66 Z" />
    </g>
    <g id="#2b3dcdff">
        <path fill="var(--pants-color, grey)" opacity="1.00"
            d=" M 412.91 533.98 C 416.02 527.99 420.32 522.77 424.26 517.33 C 427.22 524.38 434.12 528.59 441.17 530.70 C 451.78 533.99 463.02 533.72 474.01 533.78 C 492.01 533.03 510.02 533.06 528.03 532.61 C 547.88 532.05 568.00 535.53 586.08 543.89 C 593.32 546.62 600.46 550.11 608.32 550.57 C 605.37 560.26 600.93 569.40 596.49 578.47 C 588.36 595.08 577.63 610.48 564.41 623.45 C 551.12 636.26 537.18 648.39 522.44 659.51 C 512.77 666.46 503.06 673.36 493.11 679.92 C 501.56 667.03 508.44 653.14 517.77 640.83 C 523.09 633.77 528.42 626.73 533.74 619.68 C 536.50 615.99 539.38 612.24 540.57 607.70 C 536.22 611.71 533.06 616.74 529.26 621.23 C 521.40 630.75 513.28 640.13 506.69 650.62 C 499.73 661.74 493.30 673.20 486.12 684.18 C 482.54 688.59 477.28 691.26 473.63 695.65 C 469.77 700.43 464.83 704.27 461.47 709.46 C 457.77 715.01 454.13 720.62 451.51 726.79 C 436.42 725.39 421.73 720.85 408.37 713.73 C 396.93 708.69 386.64 700.68 379.89 690.07 C 370.17 674.91 355.03 664.44 340.08 654.96 C 346.21 643.46 357.04 635.68 367.39 628.26 C 370.61 625.87 373.24 622.76 375.30 619.32 C 377.35 616.14 379.09 612.40 382.59 610.54 C 387.63 607.68 393.29 605.63 397.37 601.36 C 402.92 595.46 405.40 587.52 410.09 581.02 C 417.04 570.78 427.52 563.83 436.12 555.13 C 437.80 553.48 438.96 551.42 440.08 549.38 C 434.32 551.29 430.29 556.01 425.61 559.60 C 419.13 564.75 412.34 569.71 407.50 576.54 C 402.78 582.43 400.13 589.60 395.70 595.67 C 392.91 599.57 388.39 601.54 384.23 603.60 C 385.22 597.44 385.67 591.06 388.35 585.33 C 392.00 577.45 396.46 569.97 400.04 562.06 C 404.50 552.77 407.70 542.91 412.91 533.98 M 522.06 561.15 C 509.14 563.43 496.05 564.90 483.33 568.20 C 467.07 572.32 451.60 578.89 435.99 584.93 C 429.64 587.46 423.28 590.08 417.28 593.38 C 415.89 593.91 415.54 595.42 414.83 596.56 C 420.91 595.34 426.39 592.30 432.23 590.32 C 443.31 586.44 454.32 582.32 465.42 578.47 C 483.43 572.26 502.20 568.74 520.89 565.28 C 526.53 563.96 532.84 563.67 537.42 559.67 C 532.23 558.82 527.14 560.39 522.06 561.15 M 454.88 684.87 C 446.50 690.89 437.42 695.89 427.98 700.04 C 423.35 702.20 418.19 703.56 414.45 707.24 C 420.47 708.87 426.11 705.54 431.56 703.49 C 442.19 699.25 452.21 693.35 460.56 685.48 C 461.56 684.64 461.94 683.38 461.87 682.12 C 459.18 681.40 457.01 683.61 454.88 684.87 Z" />
        <path fill="var(--socks-color, grey)" opacity="1.00"
            d=" M 462.07 734.78 C 472.07 737.32 482.01 740.62 490.75 746.24 C 511.96 759.56 528.55 778.94 542.30 799.63 C 549.94 811.04 558.71 822.05 570.31 829.68 C 579.28 835.84 589.17 840.46 598.75 845.57 C 595.53 847.38 592.50 849.90 591.45 853.59 C 588.23 862.65 594.68 871.73 592.68 880.90 C 591.54 885.87 587.14 889.94 582.07 890.59 C 578.35 891.03 574.45 890.65 571.03 889.08 C 555.89 881.46 541.35 872.72 526.58 864.41 C 512.78 856.12 498.14 849.26 484.78 840.25 C 468.37 828.57 451.40 817.11 438.41 801.49 C 433.55 795.78 429.59 789.39 424.77 783.66 C 447.78 781.58 466.53 757.67 462.07 734.78 Z" />
        <path fill="var(--socks-color, grey)" opacity="1.00"
            d=" M 329.91 742.58 C 335.07 751.53 343.29 758.85 353.33 761.77 C 365.09 765.59 378.28 763.07 388.31 756.01 C 385.11 768.83 382.48 781.78 379.40 794.63 C 374.60 810.74 369.18 826.88 360.51 841.38 C 355.43 848.62 350.63 856.08 345.08 862.96 C 337.77 871.02 331.04 879.60 323.24 887.21 C 311.08 899.46 299.64 912.63 285.71 922.94 C 283.21 917.58 284.28 911.68 284.69 906.04 C 285.20 899.66 282.34 892.55 276.40 889.60 C 271.79 887.23 266.44 887.86 261.52 888.65 C 273.22 872.36 279.85 853.27 288.07 835.16 C 290.03 830.50 291.84 825.77 294.18 821.28 C 298.11 813.73 301.27 805.80 305.31 798.30 C 311.05 787.07 317.71 776.28 322.51 764.58 C 325.36 757.38 327.99 750.08 329.91 742.58 Z" />
    </g>
    <g id="#4d4d4dff">
        <path fill="#4d4d4d" opacity="1.00"
            d=" M 595.75 858.05 C 596.36 854.11 598.79 849.56 603.02 848.75 C 606.51 848.94 609.52 851.04 612.71 852.29 C 620.78 855.89 629.39 858.91 636.16 864.80 C 641.22 869.08 643.43 877.04 640.00 882.97 C 634.94 892.45 625.46 898.18 616.59 903.62 C 607.74 908.89 601.56 917.31 595.09 925.09 C 585.85 937.01 576.22 949.23 562.93 956.86 C 553.12 962.87 541.20 963.43 530.01 963.43 C 518.98 962.70 506.97 962.04 497.85 955.02 C 503.34 949.42 509.75 944.81 515.13 939.09 C 522.49 931.38 529.35 923.16 535.48 914.43 C 541.92 905.29 545.99 894.66 553.18 886.02 C 561.66 891.07 570.96 895.72 581.04 895.86 C 589.69 896.04 597.47 888.55 598.07 880.01 C 598.80 872.56 595.22 865.47 595.75 858.05 Z" />
        <path fill="#4d4d4d" opacity="1.00"
            d=" M 254.30 897.21 C 260.05 894.85 266.51 892.31 272.74 894.30 C 277.71 896.17 279.27 902.21 278.68 907.02 C 278.03 913.71 277.02 921.62 282.14 926.92 C 286.59 930.29 292.63 929.36 297.82 928.92 C 296.87 935.28 294.63 941.46 294.73 947.96 C 294.76 953.84 294.20 960.47 289.78 964.85 C 287.02 967.67 282.71 967.65 279.07 967.14 C 273.86 966.38 268.55 965.28 263.29 966.31 C 256.37 967.21 250.07 971.04 242.99 970.89 C 234.76 970.82 226.70 968.64 218.93 966.06 C 208.39 962.65 198.29 957.39 190.16 949.79 C 186.48 946.21 182.53 941.12 184.71 935.70 C 186.30 929.42 192.72 926.76 197.68 923.62 C 215.50 912.70 235.18 905.44 254.30 897.21 Z" />
    </g>
    <g id="#363636ff">
        <path fill="#363636" opacity="1.00"
            d=" M 294.72 920.62 C 295.11 921.56 295.57 922.51 295.86 923.51 C 294.30 923.81 292.73 924.07 291.15 924.29 C 292.35 923.06 293.54 921.84 294.72 920.62 Z" />
    </g>
</svg>