<svg xmlns="http://www.w3.org/2000/svg" viewBox="0 0 51 51" enable-background="new 0 0 51 51">
 <g fill="none" stroke="#fff" stroke-miterlimit="10">
  <g stroke-width=".25">
   <line x1="6.4" y1="39.1" x2="15.8" y2="48.5"/>
   <line x1="8.6" y1="36.9" x2="18" y2="46.3"/>
   <line x1="10.8" y1="34.8" x2="20.2" y2="44.2"/>
   <line x1="13.1" y1="32.5" x2="22.5" y2="41.9"/>
   <line x1="15.1" y1="30.4" x2="24.5" y2="39.8"/>
   <line x1="17.3" y1="28.3" x2="26.7" y2="37.7"/>
   <line x1="19.4" y1="26.1" x2="28.8" y2="35.5"/>
   <line x1="21.8" y1="23.7" x2="31.2" y2="33.2"/>
   <line x1="23.8" y1="21.8" x2="33.2" y2="31.2"/>
   <line x1="25.9" y1="19.6" x2="35.3" y2="29"/>
   <line x1="28.3" y1="17.2" x2="37.7" y2="26.6"/>
   <line x1="30.5" y1="15.1" x2="39.9" y2="24.5"/>
   <line x1="32.5" y1="13" x2="41.9" y2="22.4"/>
   <line x1="34.7" y1="10.9" x2="44.1" y2="20.3"/>
   <line x1="37" y1="8.6" x2="46.4" y2="18"/>
   <line x1="39.1" y1="6.4" x2="48.5" y2="15.8"/>
   <line x1="5.3" y1="44.3" x2="44.2" y2="5.4"/>
   <line x1="7" y1="45" x2="45.3" y2="6.8"/>
   <line x1="4.7" y1="43.2" x2="43.4" y2="4.4"/>
   <line x1="8.2" y1="45.9" x2="46.2" y2="7.9"/>
   <line x1="9.2" y1="47.1" x2="47.1" y2="9.2"/>
   <line x1="10.7" y1="48.1" x2="48.1" y2="10.7"/>
   <line x1="11.9" y1="48.9" x2="48.8" y2="12"/>
   <line x1="13.6" y1="49.6" x2="50" y2="13.2"/>
  </g>
  <path stroke-width="2" d="m37 .9l4 .5.1.1c.4.7.1 1.9-.4 2.4l-36.6 36.7c-.5.5-1.7.8-2.3.2l-.6-3.8"/>
  <polyline points="1.2,37 14,50.1 50.1,14 37,0.9 	"/>
  <path d="m1.9 40.8c5.5 4.8 12.4 9.3 12.4 9.3"/>
  <path d="m41 1.4c5.2 5.9 9.3 12.7 9.3 12.7"/>
 </g>
</svg>
