<svg xmlns="http://www.w3.org/2000/svg" viewBox="0 0 30 30" enable-background="new 0 0 30 30" width="30" height="30">
 <path fill="#fbb042" d="m1.5 20.3l9.6 9.6c.3.3.7.3 1 0l.6-.6c.3-.3.3-.7 0-1l-6.5-6.5c-.3-.3-.2-.6.1-.9l14.4-14.7c.2-.2.6-.2.8 0l6.5 6.5c.3.3.7.3 1 0l.6-.6c.3-.3.4-.8.1-1.1l-9.6-9.6-1.6 1.6 1 1-15.3 15.5-1-1-1.7 1.8"/>
 <g fill="#c4802a">
  <path d="m4.2 19.5l-2.5-2.4-1.6 1.6 3.6 3.6-.4-.4c-.4-.4-.4-1.1.1-1.6l.8-.8"/>
  <path d="m19.6 4.2l-2.5-2.4 1.6-1.6 3.6 3.6-.4-.4c-.4-.4-1.1-.4-1.6.1l-.7.7"/>
 </g>
 <g fill="#ffe8cf">
  <path d="m13 11.1c0 0 6.8-7.5 7.8-7.7.8-.1.3.4.3.4s-7.6 7.4-7.8 7.3c-.3 0-.3 0-.3 0"/>
  <path d="m25.9 8.4c0 0 3.4 2.5 3.6 2.9s-.3.1-.3.1-3.3-2.8-3.3-3"/>
  <path d="m8.7 25.2c0 0 3.4 2.5 3.6 2.9.1.5-.3.1-.3.1s-3.3-2.8-3.3-3"/>
 </g>
 <g fill="#c4802a">
  <path d="m29.2 12.7l.6-.6c0 0-.7 1.6-9.4-7 .6.6 7.8 7.7 7.8 7.7.2.2.7.2 1-.1"/>
  <path d="m12.1 29.8l.6-.6c0 0-.6 1.5-9.4-7 .6.5 7.8 7.6 7.8 7.6.3.2.7.2 1 0"/>
  <path d="m20.7 6.2l-14.5 14.5c-.3.3-.3.7 0 1l1 1-1.6-1.1c-.4-.3-.5-.9 0-1.3l15.1-14.1"/>
 </g>
</svg>
