<svg xmlns="http://www.w3.org/2000/svg" viewBox="0 0 40 40" enable-background="new 0 0 40 40">
 <circle fill="#ed1c24" cx="35" cy="5.6" r="5"/>
 <path fill="#ed5f69" d="m39.4 6.3l-4.4-.7 2 3.9c0 0 1.5-.5 2.4-3.2"/>
 <path fill="#8c191f" d="m39.2 4.2l-4.2 1.3v4.5c0 0-4.1-.1-4.4-4.3-.2-4.1 4.7-4.8 5.5-4.5.8.4 2.8 2 3.1 3"/>
 <circle fill="#ed1c24" cx="35" cy="34.3" r="5"/>
 <path fill="#ed5f69" d="m39.4 34.9l-4.4-.6 2.1 3.9c-.1 0 1.4-.5 2.3-3.3"/>
 <path fill="#8c191f" d="m39.2 32.9l-4.2 1.3v4.6c0 0-4.1-.1-4.4-4.3s4.7-4.8 5.5-4.5c.8.3 2.8 1.8 3.1 2.9"/>
 <rect x="34.1" fill="#171112" width="1.5" height="40"/>
 <circle fill="#ed1c24" cx="19.9" cy="5.6" r="5"/>
 <path fill="#ed5f69" d="m24.3 6.3l-4.4-.6 2.1 3.9c-.1-.1 1.4-.6 2.3-3.3"/>
 <path fill="#8c191f" d="m24 4.2l-4.2 1.2v4.6c0 0-4.1-.1-4.4-4.3-.1-4.1 4.8-4.7 5.6-4.4s2.8 1.9 3 2.9"/>
 <circle fill="#ed1c24" cx="19.9" cy="34.3" r="5"/>
 <path fill="#ed5f69" d="m24.3 34.9l-4.4-.6 2.1 3.9c-.1 0 1.4-.5 2.3-3.3"/>
 <path fill="#8c191f" d="m24.1 32.9l-4.2 1.2v4.6c0 0-4.1-.1-4.4-4.3-.2-4.1 4.7-4.8 5.5-4.5.8.4 2.8 1.9 3.1 3"/>
 <rect x="19" fill="#171112" width="1.5" height="40"/>
 <circle fill="#ed1c24" cx="5" cy="5.6" r="5"/>
 <path fill="#ed5f69" d="m9.5 6.3l-4.5-.7 2.1 3.9c0 0 1.4-.5 2.4-3.2"/>
 <path fill="#8c191f" d="M9.2,4.2L5,5.5V10c0,0-4.1-0.1-4.4-4.3S5.3,1,6.1,1.3S9,3.2,9.2,4.2z"/>
 <circle fill="#ed1c24" cx="5" cy="34.3" r="5"/>
 <path fill="#ed5f69" d="m9.5 34.9l-4.5-.6 2.1 3.9c0 0 1.4-.5 2.4-3.3"/>
 <path fill="#8c191f" d="m9.2 32.9l-4.2 1.3v4.6c0 0-4.1-.1-4.4-4.3s4.7-4.8 5.5-4.5c.9.3 2.9 1.8 3.1 2.9"/>
 <rect x="4.1" fill="#171112" width="1.5" height="40"/>
</svg>
