<?xml version="1.0" encoding="UTF-8" ?>
<!DOCTYPE svg PUBLIC "-//W3C//DTD SVG 1.1//EN" "http://www.w3.org/Graphics/SVG/1.1/DTD/svg11.dtd">
<svg width="1000pt" height="1000pt" viewBox="0 0 1000 1000" version="1.1" xmlns="http://www.w3.org/2000/svg">
	<g id="#020202ff">
		<path fill="#020202" opacity="1.00"
			d=" M 504.87 35.86 C 514.95 25.74 528.70 19.08 543.06 18.49 C 556.11 18.10 569.32 22.34 579.47 30.61 C 593.19 41.66 601.44 58.56 603.63 75.87 C 604.62 82.87 604.15 89.93 604.15 96.97 C 603.69 110.80 599.01 124.58 590.65 135.64 C 581.18 147.23 576.21 162.22 575.88 177.10 C 575.34 181.35 580.54 182.66 583.43 184.49 C 591.33 185.15 599.36 184.57 607.26 185.80 C 625.77 188.53 644.73 193.54 659.70 205.29 C 668.32 211.64 673.67 221.25 681.68 228.25 C 688.34 233.96 694.37 240.54 701.99 245.01 C 709.03 249.28 717.44 250.47 724.59 254.50 C 727.38 255.97 728.41 259.07 729.19 261.92 C 732.19 263.73 735.70 265.72 739.31 264.36 C 746.31 261.93 752.17 257.17 758.70 253.75 C 777.54 242.69 798.19 234.78 816.09 222.10 C 834.09 209.04 849.77 193.08 864.42 176.42 C 868.34 171.85 873.54 167.17 880.04 167.78 C 887.60 168.23 892.91 174.24 897.52 179.57 C 901.42 184.64 909.65 182.25 913.15 187.81 C 919.34 198.39 918.10 212.82 910.29 222.26 C 904.09 228.48 895.48 232.13 886.76 232.82 C 880.61 233.65 873.67 233.44 868.59 237.56 C 864.28 241.30 861.42 246.36 857.49 250.47 C 850.36 258.05 843.83 266.15 837.17 274.13 C 831.04 281.34 825.77 289.30 818.71 295.67 C 813.39 300.90 806.91 304.64 800.65 308.60 C 786.23 317.34 771.97 326.88 755.70 331.85 C 746.78 334.25 737.28 335.46 728.16 333.46 C 723.81 332.68 719.78 330.77 715.51 329.73 C 710.51 328.86 705.34 329.82 700.43 328.40 C 689.02 325.23 677.98 320.61 666.21 318.88 C 655.62 317.32 645.00 315.78 634.30 315.32 C 632.93 331.62 632.35 347.97 631.32 364.29 C 630.66 381.53 631.46 398.78 632.58 415.99 C 632.96 425.02 634.33 434.18 632.46 443.15 C 631.29 449.14 628.66 454.69 626.19 460.23 C 622.68 467.96 619.65 475.91 617.17 484.02 C 613.23 496.85 613.71 510.44 611.30 523.54 C 609.55 532.35 607.67 541.69 601.97 548.90 C 598.00 552.58 597.00 558.11 594.85 562.86 C 591.15 571.17 586.97 579.29 584.06 587.94 C 580.51 597.30 578.61 607.15 575.84 616.75 C 572.63 628.79 571.56 641.36 567.42 653.16 C 563.86 663.89 559.55 675.22 550.42 682.48 C 545.23 686.69 541.89 692.64 538.12 698.06 C 534.17 704.34 532.72 711.76 529.37 718.34 C 526.04 725.47 520.88 731.65 518.18 739.10 C 511.56 756.89 506.18 775.27 496.97 791.97 C 483.64 815.90 465.36 836.73 444.97 854.89 C 432.42 866.37 419.19 877.09 406.81 888.78 C 400.46 894.51 394.28 900.82 390.69 908.71 C 389.15 911.99 390.12 915.87 392.32 918.61 C 399.55 928.03 410.27 934.09 417.42 943.57 C 420.44 947.33 418.85 952.37 417.13 956.33 C 414.96 960.67 410.02 962.43 405.70 963.87 C 397.70 966.22 389.30 967.08 380.98 967.13 C 366.94 966.99 354.68 958.97 340.95 957.16 C 333.25 955.86 325.38 958.11 317.73 956.19 C 311.85 954.77 305.57 952.12 302.31 946.74 C 299.11 941.36 301.44 934.91 303.55 929.59 C 310.31 914.09 323.31 902.75 334.83 890.85 C 339.86 885.18 345.51 879.94 349.36 873.34 C 355.33 864.29 362.43 855.88 366.91 845.92 C 374.34 829.50 380.04 812.33 388.26 796.26 C 395.34 781.46 404.82 767.93 415.45 755.49 C 424.64 744.69 434.69 734.59 442.91 722.99 C 450.24 712.75 457.11 701.85 460.49 689.59 C 461.03 687.20 461.11 684.50 459.68 682.40 C 455.34 675.43 452.63 667.63 450.03 659.89 C 445.11 644.93 439.83 630.07 436.04 614.77 C 425.69 625.99 413.20 634.93 401.17 644.24 C 390.69 652.10 379.93 659.60 369.60 667.67 C 366.45 669.90 363.46 672.50 359.85 673.96 C 357.27 674.04 357.09 670.73 355.72 669.16 C 354.12 665.82 350.09 665.62 346.88 665.36 C 342.73 671.88 337.16 677.30 332.20 683.17 C 324.25 692.22 315.91 700.90 307.51 709.53 C 300.56 716.65 293.17 723.56 284.35 728.32 C 277.66 731.74 269.89 732.60 262.49 731.76 C 255.94 731.11 249.69 728.62 243.08 728.50 C 227.23 727.73 212.68 717.86 204.74 704.35 C 199.74 695.58 196.83 685.59 196.36 675.50 C 185.56 681.05 173.00 682.86 161.07 680.71 C 154.81 679.23 149.19 673.68 148.85 667.06 C 148.39 660.21 150.77 653.59 153.50 647.43 C 157.44 638.41 163.51 630.30 171.23 624.17 C 180.20 616.04 191.84 610.84 203.94 609.92 C 214.87 608.47 226.00 608.65 236.84 606.55 C 248.38 603.08 259.48 597.62 271.66 596.68 C 276.77 585.70 283.98 575.86 291.19 566.19 C 299.71 554.77 310.20 544.98 318.72 533.57 C 323.95 525.50 328.69 517.03 332.09 508.02 C 333.46 504.56 335.22 501.29 336.97 498.03 C 338.89 494.56 338.83 490.36 340.95 486.98 C 342.77 483.95 345.81 481.79 347.26 478.53 C 348.37 474.54 348.13 470.34 348.65 466.26 C 349.34 458.78 351.91 451.47 356.26 445.33 C 358.93 441.36 362.30 437.93 365.12 434.07 C 367.72 430.62 366.80 426.00 368.04 422.06 C 372.43 405.70 381.34 391.13 389.17 376.26 C 400.52 352.98 406.09 327.28 408.31 301.58 C 395.49 308.45 383.38 316.82 373.19 327.24 C 371.13 329.43 368.18 331.01 365.10 330.38 C 360.44 330.17 355.44 327.32 351.03 330.02 C 334.38 339.13 317.55 347.92 300.63 356.52 C 293.55 359.91 286.34 363.06 279.05 365.98 C 263.98 371.43 248.04 374.52 232.02 375.05 C 210.19 375.82 188.29 377.58 166.92 382.27 C 158.96 383.95 150.90 385.18 143.01 387.20 C 140.06 387.75 138.28 390.36 136.00 392.05 C 130.18 396.66 122.74 398.15 115.78 400.17 C 116.77 403.55 119.57 408.39 115.93 411.11 C 110.34 412.57 105.20 408.60 99.81 407.69 C 98.23 411.30 97.06 415.33 94.19 418.17 C 92.27 420.08 88.79 420.12 87.02 417.98 C 85.04 415.65 84.92 412.43 84.39 409.56 C 82.94 411.37 80.64 414.01 78.17 412.11 C 74.17 408.46 74.61 402.42 74.76 397.49 C 73.06 398.91 71.47 401.16 68.97 400.91 C 64.78 400.98 61.43 397.02 61.38 392.99 C 61.27 384.87 63.06 376.86 65.39 369.12 C 67.21 362.96 69.29 356.55 73.97 351.91 C 81.52 343.82 93.20 340.56 104.00 342.00 C 117.80 343.78 131.96 343.68 145.54 340.43 C 159.97 336.97 173.79 331.46 187.95 327.08 C 205.39 321.22 223.41 317.17 240.61 310.58 C 251.28 306.62 259.56 298.19 270.37 294.50 C 281.02 290.10 293.02 291.10 303.62 286.55 C 309.90 283.97 314.93 279.29 320.33 275.33 C 323.05 273.58 324.10 270.42 326.09 268.03 C 334.97 257.91 344.62 248.50 353.58 238.45 C 359.01 232.50 363.11 225.51 368.39 219.45 C 372.49 214.83 375.47 209.26 380.24 205.25 C 392.13 195.07 406.03 187.55 420.31 181.31 C 432.86 175.92 446.09 171.70 459.78 170.73 C 467.78 170.03 476.01 170.42 483.70 167.75 C 489.29 165.75 494.97 164.01 500.79 162.80 C 501.51 152.49 501.54 140.82 494.73 132.34 C 474.94 103.15 479.94 60.51 504.87 35.86 M 504.46 143.63 C 505.79 149.71 506.13 155.99 505.14 162.16 C 528.25 158.89 551.46 166.17 571.46 177.40 C 570.88 167.09 574.32 157.19 578.54 147.95 C 569.01 155.24 557.05 159.62 544.97 158.95 C 530.19 159.57 514.69 154.62 504.46 143.63 M 501.47 167.73 C 495.37 168.78 489.54 170.91 483.69 172.88 C 473.35 176.20 462.32 174.98 451.74 176.88 C 434.13 179.84 417.82 187.69 402.38 196.37 C 394.28 201.37 385.31 205.70 379.35 213.38 C 374.71 218.75 369.77 223.89 365.78 229.78 C 356.70 243.40 344.42 254.39 333.66 266.61 C 331.16 269.74 326.00 272.34 327.77 277.07 C 329.63 285.39 328.40 294.92 334.02 301.97 C 338.85 308.38 344.18 314.45 350.14 319.83 C 354.69 324.35 361.44 325.27 367.54 325.52 C 369.72 324.10 371.35 322.01 373.27 320.29 C 383.50 311.08 395.14 303.50 407.53 297.52 C 413.98 294.64 420.84 292.21 427.97 291.95 C 431.64 292.08 435.82 292.50 438.40 295.46 C 435.58 295.59 432.78 295.27 429.97 295.15 C 425.72 294.96 421.65 296.41 417.62 297.53 C 430.77 302.70 439.96 314.32 446.80 326.23 C 448.01 328.67 450.06 331.02 449.83 333.91 C 447.70 335.46 445.53 333.29 443.66 332.36 C 435.38 326.82 426.83 321.32 417.05 318.89 C 418.57 318.03 420.18 316.97 421.99 317.77 C 429.13 319.59 435.49 323.53 441.81 327.19 C 436.01 318.84 429.89 310.42 421.62 304.33 C 418.96 302.28 415.79 301.04 412.52 300.39 C 411.60 314.50 410.00 328.66 406.15 342.31 C 402.72 356.92 397.48 371.13 390.26 384.30 C 386.22 391.67 382.25 399.07 378.66 406.67 C 375.22 414.57 371.81 422.74 371.55 431.49 C 378.62 428.51 386.26 427.39 393.83 426.48 C 409.70 424.90 425.83 422.88 440.59 416.48 C 444.20 414.85 447.60 412.68 451.51 411.79 C 449.95 415.30 446.97 417.85 443.56 419.48 C 434.64 424.05 424.90 426.74 415.20 429.05 C 403.32 431.85 391.00 431.60 379.03 433.80 C 374.61 434.77 369.77 436.13 366.89 439.90 C 362.42 445.28 357.93 450.90 355.78 457.67 C 353.52 464.12 353.60 471.03 352.63 477.72 C 352.11 481.75 349.06 484.65 346.40 487.44 C 344.11 489.66 343.13 492.77 341.99 495.66 C 352.52 489.43 364.90 487.06 376.96 486.21 C 388.32 485.42 398.62 491.13 407.72 497.25 C 421.93 507.05 438.41 514.89 455.98 515.11 C 467.31 515.50 478.66 515.28 490.00 515.10 C 511.38 514.14 532.92 510.43 554.25 513.88 C 564.63 515.54 574.53 519.73 582.90 526.10 C 589.77 531.04 595.18 537.60 600.68 543.94 C 604.03 538.67 605.77 532.55 606.68 526.42 C 607.10 522.13 605.87 517.91 605.02 513.75 C 602.62 502.91 598.86 492.44 594.87 482.10 C 588.71 465.57 583.65 448.66 578.41 431.82 C 576.72 425.38 573.93 418.91 574.90 412.11 C 577.76 416.46 578.69 421.65 580.36 426.50 C 584.08 437.85 587.78 449.21 591.65 460.52 C 597.39 478.06 605.23 495.01 608.34 513.33 C 609.09 504.87 609.28 496.32 611.09 488.00 C 613.92 475.59 618.96 463.83 624.24 452.30 C 627.44 445.36 628.82 437.66 628.39 430.03 C 627.17 405.73 625.44 381.35 627.19 357.03 C 628.05 343.10 628.54 329.15 629.74 315.24 C 624.11 315.35 618.58 316.35 613.03 317.18 C 613.50 314.99 615.03 313.44 617.25 313.09 C 632.88 308.89 649.20 311.69 664.95 313.66 C 678.42 315.35 690.99 320.66 704.03 324.07 C 708.05 324.60 713.82 325.34 716.05 321.02 C 719.41 313.99 722.50 306.66 723.48 298.86 C 724.89 287.59 724.18 276.21 723.80 264.91 C 723.51 262.94 723.81 260.33 721.90 259.10 C 714.64 254.71 705.76 254.00 698.62 249.34 C 690.59 244.63 684.41 237.55 677.54 231.41 C 671.53 226.01 667.68 218.69 661.52 213.45 C 657.52 209.73 653.50 205.97 648.65 203.38 C 633.49 195.03 616.14 191.57 599.03 190.35 C 582.69 189.51 566.27 189.90 550.00 188.01 C 546.82 187.50 543.48 187.29 540.56 185.86 C 540.45 185.36 540.22 184.35 540.11 183.84 C 543.38 183.32 546.69 183.66 549.98 183.88 C 558.79 184.58 567.65 184.52 576.48 184.77 C 566.78 179.48 556.53 175.29 546.15 171.56 C 531.93 166.48 516.35 164.78 501.47 167.73 M 868.43 179.44 C 848.13 202.51 826.13 225.09 798.60 239.45 C 782.24 248.10 765.61 256.23 749.60 265.54 C 743.59 269.24 735.73 271.48 729.34 267.30 C 730.07 278.03 730.44 288.83 729.33 299.56 C 728.26 309.00 724.54 317.90 720.25 326.29 C 732.98 331.29 747.48 330.01 760.01 325.03 C 775.54 318.81 789.33 309.19 803.53 300.52 C 811.97 295.58 819.02 288.60 824.96 280.89 C 830.99 273.00 837.48 265.46 843.72 257.73 C 848.44 251.79 854.00 246.58 858.62 240.55 C 861.63 236.67 864.96 232.75 869.55 230.69 C 878.23 226.72 888.36 229.11 897.00 225.00 C 900.87 223.13 904.94 221.09 907.48 217.48 C 912.51 209.97 913.03 199.84 909.14 191.73 C 908.64 190.76 908.00 189.71 906.87 189.46 C 902.67 188.16 897.83 187.76 894.69 184.31 C 890.64 180.06 887.16 174.43 881.03 173.05 C 875.82 171.76 871.59 175.90 868.43 179.44 M 304.01 291.00 C 297.02 293.84 289.43 294.36 282.07 295.70 C 272.90 297.32 264.27 301.35 256.75 306.80 C 245.91 314.62 232.87 318.23 220.32 322.25 C 204.63 326.66 189.14 331.69 173.71 336.91 C 163.96 340.28 154.19 343.73 144.08 345.90 C 132.33 348.48 120.13 348.89 108.19 347.49 C 101.61 346.59 94.69 345.78 88.33 348.24 C 80.60 350.71 74.18 356.90 71.70 364.65 C 68.40 374.74 64.51 385.12 65.56 395.92 C 66.66 397.39 69.07 397.93 70.35 396.41 C 77.93 391.28 79.19 380.92 86.71 375.71 C 86.12 379.57 83.73 382.75 82.22 386.27 C 78.80 393.37 76.89 401.88 80.02 409.44 C 84.01 402.83 86.61 395.47 90.87 389.01 C 93.07 385.66 94.94 381.87 98.45 379.66 C 97.57 384.19 94.71 387.93 92.92 392.11 C 91.15 396.27 88.27 400.22 88.35 404.93 C 88.02 408.82 88.55 412.74 90.11 416.33 C 94.92 411.66 95.09 404.51 97.34 398.56 C 97.96 396.67 98.87 393.38 101.54 394.41 C 103.74 396.73 101.28 399.87 100.80 402.44 C 104.84 404.65 109.37 405.59 113.84 406.52 C 112.58 403.62 110.49 399.14 113.95 396.93 C 119.80 394.30 126.53 393.73 131.94 390.05 C 135.19 388.28 137.01 384.44 140.79 383.58 C 148.76 381.37 156.95 380.08 165.05 378.43 C 186.70 373.68 208.86 371.52 231.00 370.90 C 246.47 370.53 261.90 367.76 276.51 362.66 C 283.60 359.91 290.55 356.82 297.40 353.54 C 314.84 344.51 331.99 334.92 349.31 325.66 C 344.21 321.84 339.75 317.26 335.54 312.50 C 331.13 307.35 326.49 301.87 325.14 295.03 C 324.08 289.47 323.66 283.81 323.03 278.20 C 317.18 283.11 311.33 288.39 304.01 291.00 M 340.80 500.55 C 337.24 506.68 335.25 513.54 331.89 519.77 C 327.51 527.60 323.47 535.75 317.35 542.43 C 305.25 556.09 292.66 569.49 282.98 585.06 C 280.60 589.07 278.58 593.29 276.27 597.35 C 279.50 598.64 282.42 600.67 284.61 603.40 C 289.44 609.15 293.64 616.21 293.29 623.98 C 293.07 631.57 289.57 638.55 285.41 644.72 C 288.28 648.74 291.52 652.55 295.57 655.44 C 305.32 662.52 317.54 667.34 329.74 665.31 C 336.96 664.56 343.54 659.95 351.00 661.30 C 355.64 661.75 359.08 665.53 360.63 669.71 C 371.12 661.85 381.34 653.64 391.96 645.94 C 406.39 634.76 421.58 624.30 434.02 610.82 C 434.86 609.97 435.88 609.33 436.86 608.65 C 443.33 616.07 444.27 626.28 447.61 635.20 C 452.90 650.09 456.88 665.57 464.45 679.54 C 466.94 684.21 470.88 688.13 475.85 690.10 C 489.18 695.58 504.21 694.40 517.93 691.03 C 527.03 688.74 536.33 686.28 544.39 681.31 C 554.01 675.32 558.97 664.55 562.37 654.17 C 566.10 644.17 567.53 633.56 569.60 623.14 C 570.65 616.75 572.84 610.63 574.12 604.30 C 576.96 590.92 581.88 578.05 588.06 565.87 C 591.33 559.76 593.48 553.07 597.47 547.35 C 589.89 538.66 582.14 529.69 571.65 524.45 C 562.82 519.62 552.68 517.88 542.74 517.29 C 529.46 516.70 516.17 517.71 502.96 519.01 C 491.67 520.09 480.32 520.20 468.99 520.46 C 458.35 520.46 447.43 521.02 437.17 517.69 C 426.32 514.66 416.23 509.41 406.96 503.09 C 398.01 497.03 388.30 490.37 376.97 490.91 C 364.45 491.62 351.74 494.21 340.80 500.55 M 264.47 602.70 C 256.92 604.67 249.67 607.59 242.31 610.13 C 234.33 612.99 225.75 612.86 217.43 613.69 C 207.50 614.63 197.14 614.61 187.92 618.93 C 179.89 622.29 173.37 628.29 167.54 634.61 C 159.50 643.48 154.20 655.05 153.52 667.06 C 152.73 671.65 157.20 674.91 161.18 675.79 C 166.14 676.62 171.21 676.21 176.18 675.70 C 184.69 674.75 192.44 670.86 199.97 667.03 C 214.58 659.63 231.24 658.88 246.97 655.29 C 257.01 652.89 267.68 651.34 276.39 645.41 C 282.90 641.08 286.44 633.55 287.85 626.07 C 289.59 617.95 284.73 610.24 279.26 604.70 C 275.42 600.66 269.34 601.37 264.47 602.70 M 275.00 652.94 C 277.54 657.23 280.32 661.42 282.11 666.11 C 287.36 679.05 287.07 694.21 280.76 706.73 C 276.30 715.83 268.16 722.86 258.72 726.43 C 266.51 727.48 274.84 727.73 282.04 724.07 C 293.25 718.12 301.86 708.57 310.68 699.68 C 321.53 688.87 331.83 677.52 342.48 666.51 C 336.55 668.76 330.30 670.31 323.93 670.29 C 313.86 670.44 304.21 666.55 295.83 661.23 C 290.44 657.73 285.34 653.37 282.36 647.57 C 280.04 649.54 277.60 651.35 275.00 652.94 M 237.49 662.68 C 225.26 665.14 212.67 667.05 201.46 672.89 C 201.19 680.29 201.60 687.84 204.24 694.83 C 209.47 708.31 221.02 719.56 235.20 723.10 C 245.40 725.70 256.74 723.61 265.19 717.27 C 275.16 709.84 280.88 697.33 280.55 684.96 C 280.58 674.14 276.47 663.64 270.11 654.99 C 259.46 658.39 248.39 660.26 237.49 662.68 M 465.54 688.73 C 461.84 704.15 452.91 717.57 443.42 730.01 C 466.00 720.83 494.70 724.41 511.90 742.51 C 515.23 729.83 524.29 719.85 528.59 707.57 C 531.06 700.56 535.14 694.25 540.13 688.77 C 528.57 693.36 516.40 696.46 504.04 697.86 C 490.76 699.03 476.17 697.56 465.54 688.73 M 438.96 735.86 C 425.65 750.99 411.68 765.75 400.95 782.91 C 391.37 798.36 384.56 815.29 377.89 832.14 C 373.71 841.61 370.14 851.51 364.00 859.95 C 358.95 867.55 353.26 874.72 348.70 882.65 C 353.79 885.08 358.50 888.50 361.77 893.18 C 364.99 897.40 366.30 902.98 370.48 906.49 C 374.43 909.72 378.73 913.03 383.96 913.70 C 385.50 909.79 386.79 905.71 389.20 902.22 C 394.90 892.85 403.66 886.03 411.51 878.58 C 425.83 865.91 440.57 853.69 454.17 840.22 C 467.67 827.12 479.51 812.33 489.45 796.35 C 498.83 781.17 504.60 764.15 510.21 747.32 C 492.67 727.94 461.74 724.15 438.96 735.86 M 310.73 926.76 C 308.25 931.10 305.75 935.85 305.98 940.99 C 306.56 945.63 311.09 948.25 314.89 950.14 C 323.14 953.98 332.34 950.90 340.99 952.20 C 355.44 953.75 368.26 962.71 383.04 962.19 C 391.14 961.81 399.37 960.87 406.99 957.98 C 410.60 956.66 414.01 953.97 414.75 950.01 C 413.31 946.21 410.14 943.51 407.33 940.74 C 399.75 933.12 389.82 926.98 385.92 916.48 C 378.61 918.15 372.06 913.77 366.76 909.29 C 361.90 905.14 360.41 898.51 356.09 893.92 C 353.22 890.67 349.45 888.44 345.72 886.34 C 334.16 899.89 320.03 911.38 310.73 926.76 Z" />
		<path fill="#020202" opacity="1.00"
			d=" M 576.37 341.11 C 576.32 338.46 575.48 335.59 576.83 333.14 C 579.92 335.01 579.70 338.97 580.41 342.06 C 583.56 363.23 588.55 384.07 594.17 404.71 C 598.00 418.52 600.20 432.70 603.52 446.63 C 604.61 451.56 606.17 456.46 606.17 461.57 C 602.65 459.35 602.03 455.01 600.81 451.37 C 596.46 436.11 592.68 420.70 588.72 405.33 C 583.00 384.28 578.52 362.83 576.37 341.11 Z" />
	</g>
	<g id="#f0b58bff">
		<path fill="#f0b58b" opacity="1.00"
			d=" M 504.46 143.63 C 514.69 154.62 530.19 159.57 544.97 158.95 C 557.05 159.62 569.01 155.24 578.54 147.95 C 574.32 157.19 570.88 167.09 571.46 177.40 C 551.46 166.17 528.25 158.89 505.14 162.16 C 506.13 155.99 505.79 149.71 504.46 143.63 Z" />
		<path fill="#f0b58b" opacity="1.00"
			d=" M 868.43 179.44 C 871.59 175.90 875.82 171.76 881.03 173.05 C 887.16 174.43 890.64 180.06 894.69 184.31 C 897.83 187.76 902.67 188.16 906.87 189.46 C 908.00 189.71 908.64 190.76 909.14 191.73 C 913.03 199.84 912.51 209.97 907.48 217.48 C 904.94 221.09 900.87 223.13 897.00 225.00 C 888.36 229.11 878.23 226.72 869.55 230.69 C 864.96 232.75 861.63 236.67 858.62 240.55 C 854.00 246.58 848.44 251.79 843.72 257.73 C 837.48 265.46 830.99 273.00 824.96 280.89 C 819.02 288.60 811.97 295.58 803.53 300.52 C 789.33 309.19 775.54 318.81 760.01 325.03 C 747.48 330.01 732.98 331.29 720.25 326.29 C 724.54 317.90 728.26 309.00 729.33 299.56 C 730.44 288.83 730.07 278.03 729.34 267.30 C 735.73 271.48 743.59 269.24 749.60 265.54 C 765.61 256.23 782.24 248.10 798.60 239.45 C 826.13 225.09 848.13 202.51 868.43 179.44 Z" />
		<path fill="#f0b58b" opacity="1.00"
			d=" M 304.01 291.00 C 311.33 288.39 317.18 283.11 323.03 278.20 C 323.66 283.81 324.08 289.47 325.14 295.03 C 326.49 301.87 331.13 307.35 335.54 312.50 C 339.75 317.26 344.21 321.84 349.31 325.66 C 331.99 334.92 314.84 344.51 297.40 353.54 C 290.55 356.82 283.60 359.91 276.51 362.66 C 261.90 367.76 246.47 370.53 231.00 370.90 C 208.86 371.52 186.70 373.68 165.05 378.43 C 156.95 380.08 148.76 381.37 140.79 383.58 C 137.01 384.44 135.19 388.28 131.94 390.05 C 126.53 393.73 119.80 394.30 113.95 396.93 C 110.49 399.14 112.58 403.62 113.84 406.52 C 109.37 405.59 104.84 404.65 100.80 402.44 C 101.28 399.87 103.74 396.73 101.54 394.41 C 98.87 393.38 97.96 396.67 97.34 398.56 C 95.09 404.51 94.92 411.66 90.11 416.33 C 88.55 412.74 88.02 408.82 88.35 404.93 C 88.27 400.22 91.15 396.27 92.92 392.11 C 94.71 387.93 97.57 384.19 98.45 379.66 C 94.94 381.87 93.07 385.66 90.87 389.01 C 86.61 395.47 84.01 402.83 80.02 409.44 C 76.89 401.88 78.80 393.37 82.22 386.27 C 83.73 382.75 86.12 379.57 86.71 375.71 C 79.19 380.92 77.93 391.28 70.35 396.41 C 69.07 397.93 66.66 397.39 65.56 395.92 C 64.51 385.12 68.40 374.74 71.70 364.65 C 74.18 356.90 80.60 350.71 88.33 348.24 C 94.69 345.78 101.61 346.59 108.19 347.49 C 120.13 348.89 132.33 348.48 144.08 345.90 C 154.19 343.73 163.96 340.28 173.71 336.91 C 189.14 331.69 204.63 326.66 220.32 322.25 C 232.87 318.23 245.91 314.62 256.75 306.80 C 264.27 301.35 272.90 297.32 282.07 295.70 C 289.43 294.36 297.02 293.84 304.01 291.00 Z" />
		<path fill="#f0b58b" opacity="1.00"
			d=" M 275.00 652.94 C 277.60 651.35 280.04 649.54 282.36 647.57 C 285.34 653.37 290.44 657.73 295.83 661.23 C 304.21 666.55 313.86 670.44 323.93 670.29 C 330.30 670.31 336.55 668.76 342.48 666.51 C 331.83 677.52 321.53 688.87 310.68 699.68 C 301.86 708.57 293.25 718.12 282.04 724.07 C 274.84 727.73 266.51 727.48 258.72 726.43 C 268.16 722.86 276.30 715.83 280.76 706.73 C 287.07 694.21 287.36 679.05 282.11 666.11 C 280.32 661.42 277.54 657.23 275.00 652.94 Z" />
		<path fill="#f0b58b" opacity="1.00"
			d=" M 465.54 688.73 C 476.17 697.56 490.76 699.03 504.04 697.86 C 516.40 696.46 528.57 693.36 540.13 688.77 C 535.14 694.25 531.06 700.56 528.59 707.57 C 524.29 719.85 515.23 729.83 511.90 742.51 C 494.70 724.41 466.00 720.83 443.42 730.01 C 452.91 717.57 461.84 704.15 465.54 688.73 Z" />
	</g>
	<g id="#f11b27ff">
		<path fill="var(--shirt-color, grey)" opacity="1.00"
			d=" M 501.47 167.73 C 516.35 164.78 531.93 166.48 546.15 171.56 C 556.53 175.29 566.78 179.48 576.48 184.77 C 567.65 184.52 558.79 184.58 549.98 183.88 C 546.69 183.66 543.38 183.32 540.11 183.84 C 540.22 184.35 540.45 185.36 540.56 185.86 C 543.48 187.29 546.82 187.50 550.00 188.01 C 566.27 189.90 582.69 189.51 599.03 190.35 C 616.14 191.57 633.49 195.03 648.65 203.38 C 653.50 205.97 657.52 209.73 661.52 213.45 C 667.68 218.69 671.53 226.01 677.54 231.41 C 684.41 237.55 690.59 244.63 698.62 249.34 C 705.76 254.00 714.64 254.71 721.90 259.10 C 723.81 260.33 723.51 262.94 723.80 264.91 C 724.18 276.21 724.89 287.59 723.48 298.86 C 722.50 306.66 719.41 313.99 716.05 321.02 C 713.82 325.34 708.05 324.60 704.03 324.07 C 690.99 320.66 678.42 315.35 664.95 313.66 C 649.20 311.69 632.88 308.89 617.25 313.09 C 615.03 313.44 613.50 314.99 613.03 317.18 C 618.58 316.35 624.11 315.35 629.74 315.24 C 628.54 329.15 628.05 343.10 627.19 357.03 C 625.44 381.35 627.17 405.73 628.39 430.03 C 628.82 437.66 627.44 445.36 624.24 452.30 C 618.96 463.83 613.92 475.59 611.09 488.00 C 609.28 496.32 609.09 504.87 608.34 513.33 C 605.23 495.01 597.39 478.06 591.65 460.52 C 587.78 449.21 584.08 437.85 580.36 426.50 C 578.69 421.65 577.76 416.46 574.90 412.11 C 573.93 418.91 576.72 425.38 578.41 431.82 C 583.65 448.66 588.71 465.57 594.87 482.10 C 598.86 492.44 602.62 502.91 605.02 513.75 C 605.87 517.91 607.10 522.13 606.68 526.42 C 605.77 532.55 604.03 538.67 600.68 543.94 C 595.18 537.60 589.77 531.04 582.90 526.10 C 574.53 519.73 564.63 515.54 554.25 513.88 C 532.92 510.43 511.38 514.14 490.00 515.10 C 478.66 515.28 467.31 515.50 455.98 515.11 C 438.41 514.89 421.93 507.05 407.72 497.25 C 398.62 491.13 388.32 485.42 376.96 486.21 C 364.90 487.06 352.52 489.43 341.99 495.66 C 343.13 492.77 344.11 489.66 346.40 487.44 C 349.06 484.65 352.11 481.75 352.63 477.72 C 353.60 471.03 353.52 464.12 355.78 457.67 C 357.93 450.90 362.42 445.28 366.89 439.90 C 369.77 436.13 374.61 434.77 379.03 433.80 C 391.00 431.60 403.32 431.85 415.20 429.05 C 424.90 426.74 434.64 424.05 443.56 419.48 C 446.97 417.85 449.95 415.30 451.51 411.79 C 447.60 412.68 444.20 414.85 440.59 416.48 C 425.83 422.88 409.70 424.90 393.83 426.48 C 386.26 427.39 378.62 428.51 371.55 431.49 C 371.81 422.74 375.22 414.57 378.66 406.67 C 382.25 399.07 386.22 391.67 390.26 384.30 C 397.48 371.13 402.72 356.92 406.15 342.31 C 410.00 328.66 411.60 314.50 412.52 300.39 C 415.79 301.04 418.96 302.28 421.62 304.33 C 429.89 310.42 436.01 318.84 441.81 327.19 C 435.49 323.53 429.13 319.59 421.99 317.77 C 420.18 316.97 418.57 318.03 417.05 318.89 C 426.83 321.32 435.38 326.82 443.66 332.36 C 445.53 333.29 447.70 335.46 449.83 333.91 C 450.06 331.02 448.01 328.67 446.80 326.23 C 439.96 314.32 430.77 302.70 417.62 297.53 C 421.65 296.41 425.72 294.96 429.97 295.15 C 432.78 295.27 435.58 295.59 438.40 295.46 C 435.82 292.50 431.64 292.08 427.97 291.95 C 420.84 292.21 413.98 294.64 407.53 297.52 C 395.14 303.50 383.50 311.08 373.27 320.29 C 371.35 322.01 369.72 324.10 367.54 325.52 C 361.44 325.27 354.69 324.35 350.14 319.83 C 344.18 314.45 338.85 308.38 334.02 301.97 C 328.40 294.92 329.63 285.39 327.77 277.07 C 326.00 272.34 331.16 269.74 333.66 266.61 C 344.42 254.39 356.70 243.40 365.78 229.78 C 369.77 223.89 374.71 218.75 379.35 213.38 C 385.31 205.70 394.28 201.37 402.38 196.37 C 417.82 187.69 434.13 179.84 451.74 176.88 C 462.32 174.98 473.35 176.20 483.69 172.88 C 489.54 170.91 495.37 168.78 501.47 167.73 M 576.37 341.11 C 578.52 362.83 583.00 384.28 588.72 405.33 C 592.68 420.70 596.46 436.11 600.81 451.37 C 602.03 455.01 602.65 459.35 606.17 461.57 C 606.17 456.46 604.61 451.56 603.52 446.63 C 600.20 432.70 598.00 418.52 594.17 404.71 C 588.55 384.07 583.56 363.23 580.41 342.06 C 579.70 338.97 579.92 335.01 576.83 333.14 C 575.48 335.59 576.32 338.46 576.37 341.11 Z" />
	</g>
	<g id="#ffffffff">
		<path fill="var(--pants-color, grey)" opacity="1.00"
			d=" M 340.80 500.55 C 351.74 494.21 364.45 491.62 376.97 490.91 C 388.30 490.37 398.01 497.03 406.96 503.09 C 416.23 509.41 426.32 514.66 437.17 517.69 C 447.43 521.02 458.35 520.46 468.99 520.46 C 480.32 520.20 491.67 520.09 502.96 519.01 C 516.17 517.71 529.46 516.70 542.74 517.29 C 552.68 517.88 562.82 519.62 571.65 524.45 C 582.14 529.69 589.89 538.66 597.47 547.35 C 593.48 553.07 591.33 559.76 588.06 565.87 C 581.88 578.05 576.96 590.92 574.12 604.30 C 572.84 610.63 570.65 616.75 569.60 623.14 C 567.53 633.56 566.10 644.17 562.37 654.17 C 558.97 664.55 554.01 675.32 544.39 681.31 C 536.33 686.28 527.03 688.74 517.93 691.03 C 504.21 694.40 489.18 695.58 475.85 690.10 C 470.88 688.13 466.94 684.21 464.45 679.54 C 456.88 665.57 452.90 650.09 447.61 635.20 C 444.27 626.28 443.33 616.07 436.86 608.65 C 435.88 609.33 434.86 609.97 434.02 610.82 C 421.58 624.30 406.39 634.76 391.96 645.94 C 381.34 653.64 371.12 661.85 360.63 669.71 C 359.08 665.53 355.64 661.75 351.00 661.30 C 343.54 659.95 336.96 664.56 329.74 665.31 C 317.54 667.34 305.32 662.52 295.57 655.44 C 291.52 652.55 288.28 648.74 285.41 644.72 C 289.57 638.55 293.07 631.57 293.29 623.98 C 293.64 616.21 289.44 609.15 284.61 603.40 C 282.42 600.67 279.50 598.64 276.27 597.35 C 278.58 593.29 280.60 589.07 282.98 585.06 C 292.66 569.49 305.25 556.09 317.35 542.43 C 323.47 535.75 327.51 527.60 331.89 519.77 C 335.25 513.54 337.24 506.68 340.80 500.55 Z" />
		<path fill="var(--socks-color, grey)" opacity="1.00"
			d=" M 237.49 662.68 C 248.39 660.26 259.46 658.39 270.11 654.99 C 276.47 663.64 280.58 674.14 280.55 684.96 C 280.88 697.33 275.16 709.84 265.19 717.27 C 256.74 723.61 245.40 725.70 235.20 723.10 C 221.02 719.56 209.47 708.31 204.24 694.83 C 201.60 687.84 201.19 680.29 201.46 672.89 C 212.67 667.05 225.26 665.14 237.49 662.68 Z" />
		<path fill="var(--socks-color, grey)" opacity="1.00"
			d=" M 438.96 735.86 C 461.74 724.15 492.67 727.94 510.21 747.32 C 504.60 764.15 498.83 781.17 489.45 796.35 C 479.51 812.33 467.67 827.12 454.17 840.22 C 440.57 853.69 425.83 865.91 411.51 878.58 C 403.66 886.03 394.90 892.85 389.20 902.22 C 386.79 905.71 385.50 909.79 383.96 913.70 C 378.73 913.03 374.43 909.72 370.48 906.49 C 366.30 902.98 364.99 897.40 361.77 893.18 C 358.50 888.50 353.79 885.08 348.70 882.65 C 353.26 874.72 358.95 867.55 364.00 859.95 C 370.14 851.51 373.71 841.61 377.89 832.14 C 384.56 815.29 391.37 798.36 400.95 782.91 C 411.68 765.75 425.65 750.99 438.96 735.86 Z" />
	</g>
	<g id="#4d4d4dff">
		<path fill="#4d4d4d" opacity="1.00"
			d=" M 264.47 602.70 C 269.34 601.37 275.42 600.66 279.26 604.70 C 284.73 610.24 289.59 617.95 287.85 626.07 C 286.44 633.55 282.90 641.08 276.39 645.41 C 267.68 651.34 257.01 652.89 246.97 655.29 C 231.24 658.88 214.58 659.63 199.97 667.03 C 192.44 670.86 184.69 674.75 176.18 675.70 C 171.21 676.21 166.14 676.62 161.18 675.79 C 157.20 674.91 152.73 671.65 153.52 667.06 C 154.20 655.05 159.50 643.48 167.54 634.61 C 173.37 628.29 179.89 622.29 187.92 618.93 C 197.14 614.61 207.50 614.63 217.43 613.69 C 225.75 612.86 234.33 612.99 242.31 610.13 C 249.67 607.59 256.92 604.67 264.47 602.70 Z" />
		<path fill="#4d4d4d" opacity="1.00"
			d=" M 310.73 926.76 C 320.03 911.38 334.16 899.89 345.72 886.34 C 349.45 888.44 353.22 890.67 356.09 893.92 C 360.41 898.51 361.90 905.14 366.76 909.29 C 372.06 913.77 378.61 918.15 385.92 916.48 C 389.82 926.98 399.75 933.12 407.33 940.74 C 410.14 943.51 413.31 946.21 414.75 950.01 C 414.01 953.97 410.60 956.66 406.99 957.98 C 399.37 960.87 391.14 961.81 383.04 962.19 C 368.26 962.71 355.44 953.75 340.99 952.20 C 332.34 950.90 323.14 953.98 314.89 950.14 C 311.09 948.25 306.56 945.63 305.98 940.99 C 305.75 935.85 308.25 931.10 310.73 926.76 Z" />
	</g>
</svg>