<?xml version="1.0" encoding="UTF-8" ?>
<!DOCTYPE svg PUBLIC "-//W3C//DTD SVG 1.1//EN" "http://www.w3.org/Graphics/SVG/1.1/DTD/svg11.dtd">
<svg width="1000pt" height="1000pt" viewBox="0 0 1000 1000" version="1.1" xmlns="http://www.w3.org/2000/svg">
	<g id="#020202ff">
		<path fill="#020202" opacity="1.00"
			d=" M 405.63 34.63 C 416.05 22.53 431.83 14.57 448.00 15.49 C 463.16 16.16 477.27 24.62 486.28 36.62 C 502.73 58.10 505.18 88.62 494.14 113.06 C 491.36 119.45 486.97 125.02 484.57 131.59 C 480.81 141.60 477.00 152.00 477.45 162.87 C 484.39 164.76 491.15 167.31 497.60 170.50 C 500.94 172.09 504.24 174.00 507.96 174.50 C 518.03 175.81 528.22 176.31 538.17 178.44 C 545.64 179.99 553.86 180.91 559.82 186.18 C 567.94 193.48 573.75 203.04 577.77 213.13 C 581.46 222.07 583.35 231.60 585.48 241.00 C 589.28 259.48 594.21 277.72 597.92 296.23 C 599.47 302.80 598.90 309.69 600.90 316.19 C 602.39 321.45 606.31 325.48 608.62 330.34 C 614.44 341.41 614.16 354.39 613.29 366.53 C 612.14 377.47 610.72 388.38 609.32 399.30 C 612.67 399.67 615.96 401.22 617.52 404.37 C 623.23 414.45 620.95 427.09 616.19 437.08 C 611.92 446.70 599.45 451.56 589.88 447.10 C 585.98 444.97 582.34 441.85 580.57 437.69 C 579.36 433.95 579.72 429.93 578.73 426.15 C 577.32 420.35 574.18 415.03 573.67 409.02 C 573.33 405.16 574.33 401.34 575.79 397.81 C 567.47 387.30 562.33 374.49 560.82 361.19 C 559.99 352.57 558.31 343.87 559.74 335.22 C 557.66 331.98 555.99 328.47 553.53 325.50 C 552.83 325.54 551.42 325.62 550.72 325.66 C 551.82 335.93 552.05 346.27 553.27 356.52 C 555.75 377.24 556.45 398.26 561.53 418.60 C 564.21 429.52 567.39 440.35 569.19 451.47 C 569.95 457.05 569.14 463.36 572.82 468.10 C 575.56 471.09 579.19 473.40 580.87 477.27 C 584.11 484.36 585.40 492.14 587.70 499.56 C 589.11 503.92 592.47 508.10 591.23 512.93 C 590.36 513.91 589.44 514.84 588.47 515.72 C 598.63 525.89 601.45 540.53 605.23 553.83 C 607.01 560.40 615.42 561.13 617.82 567.20 C 619.63 571.51 616.71 576.55 619.36 580.66 C 623.05 586.89 625.77 593.61 628.76 600.19 C 630.62 604.43 632.21 609.12 631.45 613.81 C 630.22 618.72 627.58 623.11 625.15 627.50 C 628.66 645.43 629.85 663.70 632.28 681.79 C 633.77 692.90 635.44 703.98 637.12 715.06 C 640.89 736.82 648.47 757.69 652.34 779.43 C 654.92 792.79 655.86 806.39 656.29 819.97 C 657.01 839.31 658.13 858.63 659.10 877.96 C 659.49 888.07 661.22 898.08 661.62 908.20 C 668.16 913.41 675.36 917.94 683.30 920.70 C 689.65 922.95 696.70 922.95 702.69 926.26 C 706.67 928.36 710.70 931.42 711.90 935.99 C 713.89 943.07 709.14 950.95 702.34 953.35 C 693.76 957.38 684.08 956.07 674.97 957.39 C 665.39 958.75 657.59 965.41 648.04 966.91 C 637.14 968.92 626.20 965.92 615.71 963.16 C 613.14 962.44 610.37 961.46 609.01 958.99 C 606.49 954.82 605.56 949.83 605.47 945.01 C 605.93 934.14 608.54 923.53 611.16 913.02 C 611.95 909.72 613.31 906.41 612.67 902.97 C 611.05 891.12 608.91 879.13 603.72 868.26 C 601.02 862.41 598.39 856.52 596.46 850.37 C 592.47 839.48 588.16 828.72 584.12 817.86 C 580.92 809.52 579.05 800.76 576.85 792.12 C 575.17 784.17 573.46 776.16 573.24 768.01 C 572.62 755.35 575.55 742.63 573.36 730.03 C 572.17 722.66 569.11 715.77 565.92 709.08 C 562.94 702.85 558.64 697.39 555.31 691.36 C 551.77 692.35 548.23 693.33 544.85 694.78 C 540.50 696.55 536.54 699.22 531.98 700.46 C 526.47 693.09 522.97 684.53 518.24 676.68 C 513.31 668.38 508.87 659.72 502.77 652.20 C 497.08 645.31 496.70 636.03 493.86 627.90 C 491.98 621.86 488.42 616.56 485.72 610.89 C 481.68 619.88 478.45 629.26 476.46 638.93 C 473.48 652.73 473.74 667.11 469.75 680.71 C 467.64 689.15 463.71 697.05 462.01 705.59 C 459.14 704.85 456.47 703.57 453.98 701.98 C 454.95 710.65 454.17 719.36 454.34 728.05 C 454.49 740.40 454.83 752.82 452.83 765.05 C 451.17 776.79 446.76 787.85 443.00 799.02 C 438.62 812.71 433.47 826.45 432.96 840.98 C 432.82 853.02 434.53 864.97 434.92 876.99 C 437.61 899.39 436.48 921.98 435.13 944.43 C 434.61 951.34 433.97 958.27 432.56 965.07 C 430.96 974.20 424.94 982.33 417.05 987.07 C 413.24 989.49 407.97 989.49 404.50 986.44 C 397.90 980.68 391.36 974.33 387.80 966.17 C 383.78 957.71 380.99 948.47 381.28 939.03 C 381.90 921.85 387.02 905.16 393.82 889.48 C 393.52 887.67 393.23 885.86 393.26 884.04 C 393.62 869.12 395.18 854.08 392.90 839.24 C 391.27 829.14 390.08 818.89 386.76 809.17 C 380.94 791.68 377.59 773.39 376.74 754.98 C 375.99 743.55 377.08 732.08 379.19 720.85 C 380.76 712.51 383.42 704.26 387.91 697.01 C 389.88 693.84 391.72 690.61 393.53 687.36 C 388.69 686.05 383.20 686.67 378.80 684.14 C 380.64 666.94 381.64 649.53 379.74 632.28 C 377.26 610.52 373.30 588.95 368.77 567.53 C 366.67 555.44 363.55 542.47 368.40 530.62 C 364.99 528.57 360.49 525.72 361.55 521.03 C 363.02 515.08 364.04 509.05 364.98 503.00 C 367.11 486.05 364.81 469.00 364.81 452.01 C 364.74 443.39 364.07 434.79 364.04 426.17 C 359.56 426.30 354.78 425.77 351.21 422.81 C 345.94 419.07 343.26 411.86 336.47 410.43 C 326.66 407.78 316.29 408.82 306.46 406.24 C 298.07 404.30 290.49 400.05 282.94 396.09 C 275.78 392.22 268.65 386.17 267.26 377.72 C 265.02 365.94 266.02 353.81 268.45 342.14 C 271.99 327.90 278.80 314.77 286.20 302.19 C 289.71 296.31 293.63 290.63 296.38 284.33 C 299.51 277.05 298.28 268.86 300.63 261.39 C 303.95 249.75 310.97 239.67 317.81 229.86 C 325.12 220.29 332.40 210.29 342.42 203.37 C 353.44 196.35 365.82 191.94 377.70 186.63 C 385.69 182.69 391.40 175.54 398.80 170.74 C 401.70 168.78 404.75 167.06 407.85 165.44 C 408.81 151.85 406.16 138.03 400.48 125.68 C 381.91 98.67 384.16 59.38 405.63 34.63 M 408.20 134.84 C 411.59 143.93 412.65 153.75 412.27 163.41 C 422.27 159.14 433.25 158.04 444.02 157.76 C 453.67 157.58 463.07 160.09 472.47 161.91 C 472.25 152.77 475.13 143.95 478.33 135.51 C 470.15 142.89 459.86 148.17 448.83 149.38 C 433.98 151.22 418.65 145.43 408.20 134.84 M 425.03 164.01 C 416.44 165.61 408.42 169.44 401.10 174.12 C 395.44 177.67 390.97 182.76 385.40 186.43 C 376.84 192.40 366.41 194.52 357.24 199.29 C 351.07 202.56 344.59 205.55 339.46 210.40 C 331.96 217.38 325.88 225.70 319.91 233.98 C 314.01 242.77 307.95 251.72 304.85 261.95 C 302.59 268.63 303.52 275.88 301.48 282.62 C 299.62 288.80 296.02 294.23 292.73 299.72 C 285.48 311.45 278.65 323.55 274.04 336.59 C 279.18 335.32 284.54 335.28 289.73 336.26 C 302.73 338.66 314.97 344.57 325.31 352.76 C 330.61 339.53 339.36 327.88 348.99 317.49 C 348.16 306.30 345.97 294.33 338.18 285.74 C 335.32 282.39 331.09 280.73 327.90 277.79 C 327.76 277.29 327.48 276.29 327.34 275.79 C 334.79 277.21 341.20 281.90 345.48 288.06 C 343.47 280.76 341.26 273.50 338.49 266.45 C 337.65 264.43 337.19 262.28 336.99 260.12 C 340.50 263.23 342.19 267.74 344.01 271.94 C 349.94 286.21 351.97 301.68 353.72 316.92 C 354.54 330.06 358.47 342.73 362.97 355.02 C 365.94 362.58 369.12 370.27 374.44 376.52 C 377.71 380.44 382.15 383.14 386.69 385.33 C 388.74 386.40 391.04 387.20 392.58 389.03 C 392.45 391.38 389.52 390.15 388.15 389.93 C 382.04 387.94 376.19 384.86 371.47 380.45 C 371.26 396.35 368.51 412.12 368.81 428.04 C 368.71 436.70 369.46 445.33 369.53 453.98 C 369.67 470.68 371.94 487.43 369.74 504.08 C 368.70 510.42 367.62 516.76 365.85 522.94 C 372.13 528.04 379.43 531.75 386.78 535.05 C 404.84 541.98 423.53 548.43 443.04 549.13 C 455.48 549.57 467.90 548.00 480.14 545.90 C 497.35 543.01 513.57 536.30 530.56 532.46 C 550.24 527.92 569.52 521.67 587.94 513.36 C 587.70 507.59 583.88 502.91 582.78 497.36 C 580.57 489.76 579.65 481.12 573.76 475.28 C 568.79 469.96 561.04 469.87 554.67 467.30 C 543.91 463.44 535.93 454.73 529.08 445.93 C 526.69 442.64 523.75 439.20 524.04 434.85 C 525.69 435.44 527.03 436.58 528.02 438.03 C 533.93 446.00 540.99 453.20 549.29 458.70 C 554.65 462.27 561.00 463.70 566.93 465.99 C 565.66 461.35 565.70 456.52 565.13 451.79 C 562.61 436.64 557.33 422.11 554.85 406.95 C 552.43 394.05 551.60 380.93 550.38 367.87 C 549.21 354.06 547.27 340.24 547.59 326.36 C 542.93 326.42 536.77 327.95 533.70 323.37 C 530.00 319.04 530.42 313.03 531.48 307.82 C 532.44 297.05 530.59 286.12 526.93 275.97 C 523.69 266.50 518.75 257.78 514.35 248.85 C 519.21 252.15 521.52 257.79 524.22 262.78 C 529.07 272.72 533.40 283.10 534.65 294.19 C 536.31 283.31 537.71 272.27 536.14 261.28 C 538.30 262.13 539.11 264.27 539.35 266.41 C 541.62 282.69 538.33 299.02 534.56 314.81 C 541.35 306.26 552.91 305.61 562.90 304.44 C 573.59 302.99 584.43 303.41 595.10 304.89 C 590.67 283.48 584.94 262.37 580.33 241.00 C 577.20 226.50 573.46 211.65 564.64 199.44 C 560.52 193.98 555.99 187.92 549.01 186.14 C 535.98 182.61 522.44 181.93 509.09 180.34 C 502.93 179.86 497.83 176.15 492.43 173.55 C 485.94 170.16 479.02 167.60 471.87 165.98 C 462.40 163.81 452.75 161.67 442.98 162.20 C 436.97 162.50 430.94 162.84 425.03 164.01 M 549.78 310.97 C 553.69 316.86 557.09 323.08 561.19 328.85 C 562.38 330.85 564.20 332.62 564.67 334.96 C 564.14 352.14 565.56 370.11 573.43 385.69 C 578.30 393.95 585.30 401.61 586.13 411.62 C 581.59 411.02 581.01 405.28 578.53 402.19 C 575.85 411.61 582.73 419.79 583.52 428.90 C 584.03 432.00 583.54 435.60 585.74 438.16 C 588.53 441.42 592.46 444.08 596.89 444.12 C 602.66 444.52 608.55 441.50 611.39 436.43 C 615.12 429.66 616.99 421.78 616.42 414.06 C 615.83 409.31 614.24 403.51 609.01 402.04 C 608.10 407.37 607.33 412.73 606.66 418.10 C 605.39 417.98 604.35 417.29 604.35 415.93 C 603.63 408.96 604.45 401.95 605.43 395.04 C 607.48 377.82 611.37 360.43 608.50 343.06 C 607.47 336.28 604.14 330.18 600.55 324.44 C 597.60 319.69 596.64 314.07 596.24 308.57 C 591.83 308.68 587.44 308.34 583.04 308.18 C 571.89 307.68 560.75 309.07 549.78 310.97 M 537.69 320.06 C 541.26 323.89 547.28 321.99 551.91 322.23 C 550.08 318.75 548.32 315.25 546.62 311.72 C 543.01 313.51 538.25 315.53 537.69 320.06 M 332.76 347.68 C 330.31 352.60 327.79 358.04 328.23 363.65 C 331.08 367.32 335.15 369.77 338.40 373.06 C 346.98 371.98 355.36 369.15 364.12 369.90 C 356.79 354.80 351.46 338.56 349.35 321.88 C 343.73 330.42 337.78 338.76 332.76 347.68 M 272.76 340.69 C 270.01 352.46 268.02 364.84 270.96 376.78 C 273.11 383.89 278.77 389.38 285.37 392.52 C 293.82 396.83 302.42 401.44 311.94 402.76 C 321.28 404.39 331.01 403.84 340.06 406.98 C 347.40 409.42 349.87 418.06 356.66 421.33 C 358.92 422.40 361.42 422.78 363.85 423.31 C 364.27 410.51 365.66 397.79 366.66 385.04 C 366.89 381.25 367.39 377.41 366.65 373.64 C 358.29 373.93 349.93 374.73 341.73 376.42 C 344.08 379.45 346.85 382.47 347.33 386.45 C 345.95 386.02 344.39 385.79 343.42 384.61 C 340.47 381.53 337.75 378.23 334.51 375.45 C 331.27 372.35 327.35 369.94 324.63 366.34 C 322.72 363.84 323.62 360.57 323.88 357.73 C 318.19 352.99 311.86 349.02 305.11 345.97 C 295.06 341.63 283.74 337.70 272.76 340.69 M 510.60 542.41 C 489.53 549.59 467.30 553.58 445.01 553.43 C 426.52 553.18 408.61 547.79 391.42 541.40 C 384.51 538.96 377.85 535.88 371.50 532.23 C 368.49 545.22 372.03 558.32 374.89 570.98 C 378.09 584.14 380.82 597.41 382.76 610.82 C 385.57 629.12 387.02 647.77 384.85 666.23 C 384.02 671.49 384.40 676.80 384.43 682.10 C 392.76 682.31 401.06 683.26 409.24 684.82 C 422.45 687.23 435.88 689.10 448.59 693.61 C 452.84 695.05 456.51 697.70 459.98 700.49 C 462.53 690.09 466.71 680.09 468.16 669.43 C 468.89 663.95 469.48 658.45 470.18 652.97 C 472.11 633.53 478.24 614.32 489.07 597.98 C 489.99 597.02 490.64 594.83 492.42 595.76 C 491.63 600.01 488.80 603.54 487.21 607.51 C 490.61 611.96 493.69 616.69 496.22 621.69 C 499.45 628.14 500.59 635.32 502.66 642.16 C 504.25 647.71 508.61 651.72 511.56 656.52 C 519.48 669.27 526.92 682.34 532.92 696.12 C 537.68 693.40 542.42 690.53 547.68 688.85 C 554.47 686.47 561.89 685.81 568.21 682.17 C 575.84 677.81 582.47 671.92 588.60 665.67 C 599.47 654.40 608.94 641.89 618.39 629.43 C 622.55 623.43 626.61 617.08 628.45 609.93 C 624.45 603.17 621.62 595.82 618.02 588.86 C 615.94 584.74 612.18 581.00 612.78 576.02 C 612.72 573.01 614.93 569.19 612.02 566.88 C 608.98 564.67 605.36 563.15 603.09 560.02 C 600.09 556.57 599.40 551.91 598.21 547.66 C 595.65 536.96 591.94 526.29 585.25 517.43 C 561.90 529.90 535.70 534.82 510.60 542.41 M 590.31 670.42 C 581.47 679.04 571.56 687.43 559.29 690.45 C 572.39 705.19 580.72 724.99 579.07 744.92 C 583.69 740.74 589.40 738.02 595.29 736.13 C 608.56 732.10 623.06 730.61 636.58 734.30 C 632.39 719.14 630.74 703.46 628.40 687.96 C 625.60 669.54 623.85 651.00 621.92 632.49 C 612.11 645.71 602.04 658.82 590.31 670.42 M 398.39 688.14 C 395.42 692.42 393.16 697.13 390.46 701.58 C 398.21 698.32 406.94 698.82 415.02 700.42 C 428.03 703.15 440.58 709.04 450.24 718.28 C 450.58 712.13 450.73 705.98 450.59 699.82 C 444.61 697.45 438.40 695.67 432.08 694.50 C 420.83 692.45 409.62 690.27 398.39 688.14 M 390.24 705.32 C 387.54 706.15 387.24 709.27 386.35 711.53 C 378.84 736.85 380.70 763.94 386.38 789.43 C 389.18 802.36 394.88 814.57 396.04 827.86 C 398.96 845.38 398.84 863.19 398.46 880.89 C 402.17 873.99 406.00 865.97 413.87 863.09 C 419.40 860.54 426.18 861.60 430.29 866.22 C 428.86 854.17 427.36 841.88 429.46 829.82 C 433.42 805.19 446.74 782.97 448.96 757.97 C 450.34 746.59 449.53 735.10 450.10 723.68 C 441.10 713.62 428.14 708.06 415.29 704.83 C 407.12 703.11 398.12 701.82 390.24 705.32 M 591.49 741.39 C 586.84 743.33 581.89 745.62 578.92 749.87 C 576.16 771.57 580.39 793.66 587.95 814.03 C 591.24 827.05 597.37 839.10 601.44 851.87 C 604.25 860.70 609.27 868.67 611.70 877.65 C 614.75 888.20 617.06 899.05 617.54 910.05 C 617.69 912.62 618.86 915.70 621.92 915.67 C 630.11 916.52 636.82 921.90 641.94 928.00 C 643.30 930.18 645.90 928.56 647.44 927.47 C 652.04 923.90 656.49 919.16 657.13 913.10 C 657.88 905.96 656.52 898.84 655.80 891.76 C 653.94 875.23 653.70 858.59 652.52 842.01 C 651.67 821.67 651.95 801.16 648.06 781.09 C 645.62 766.59 641.17 752.57 637.53 738.36 C 622.43 734.09 606.05 736.05 591.49 741.39 M 417.41 866.47 C 411.17 868.18 406.87 873.58 404.15 879.18 C 394.57 895.62 388.17 914.02 386.09 932.97 C 383.93 949.85 390.20 967.74 402.81 979.25 C 405.48 981.70 408.41 985.64 412.55 984.49 C 417.81 982.66 421.81 978.34 424.92 973.87 C 428.53 968.63 429.06 962.10 429.92 955.98 C 431.51 943.71 431.48 931.33 431.99 918.99 C 432.25 909.98 432.48 900.96 431.72 891.98 C 431.17 884.24 431.92 875.56 426.87 869.06 C 424.77 866.08 420.72 865.40 417.41 866.47 M 649.01 932.00 C 646.33 933.70 642.36 934.63 639.82 932.20 C 636.44 928.92 633.58 925.00 629.38 922.69 C 624.90 919.73 618.79 920.82 614.83 916.88 C 612.88 928.45 608.59 940.19 611.19 952.00 C 611.84 955.57 613.99 959.49 617.98 959.92 C 626.86 961.72 635.97 963.31 645.06 962.55 C 653.92 961.79 661.14 956.06 669.44 953.50 C 680.02 949.81 691.89 954.12 702.15 949.06 C 707.09 946.68 710.60 939.25 706.29 934.80 C 702.02 929.69 695.35 928.00 689.10 926.81 C 678.87 924.58 669.35 919.41 661.61 912.39 C 660.99 920.56 655.69 927.61 649.01 932.00 Z" />
		<path fill="#020202" opacity="1.00"
			d=" M 570.87 346.23 C 570.35 344.67 569.50 342.48 571.43 341.55 C 574.53 347.71 579.05 352.94 583.10 358.46 C 583.03 360.72 580.42 359.75 579.34 358.80 C 575.48 355.45 572.70 350.96 570.87 346.23 Z" />
		<path fill="#020202" opacity="1.00"
			d=" M 308.14 367.18 C 308.98 366.15 311.48 364.63 311.78 367.02 C 309.76 372.37 305.23 376.27 301.74 380.67 C 297.44 385.33 293.47 391.30 286.97 392.87 C 287.17 390.04 289.21 388.04 291.01 386.08 C 296.82 379.87 302.23 373.29 308.14 367.18 Z" />
	</g>
	<g id="#f0b58bff">
		<path fill="#f0b58b" opacity="1.00"
			d=" M 408.20 134.84 C 418.65 145.43 433.98 151.22 448.83 149.38 C 459.86 148.17 470.15 142.89 478.33 135.51 C 475.13 143.95 472.25 152.77 472.47 161.91 C 463.07 160.09 453.67 157.58 444.02 157.76 C 433.25 158.04 422.27 159.14 412.27 163.41 C 412.65 153.75 411.59 143.93 408.20 134.84 Z" />
		<path fill="#f0b58b" opacity="1.00"
			d=" M 549.78 310.97 C 560.75 309.07 571.89 307.68 583.04 308.18 C 587.44 308.34 591.83 308.68 596.24 308.57 C 596.64 314.07 597.60 319.69 600.55 324.44 C 604.14 330.18 607.47 336.28 608.50 343.06 C 611.37 360.43 607.48 377.82 605.43 395.04 C 604.45 401.95 603.63 408.96 604.35 415.93 C 604.35 417.29 605.39 417.98 606.66 418.10 C 607.33 412.73 608.10 407.37 609.01 402.04 C 614.24 403.51 615.83 409.31 616.42 414.06 C 616.99 421.78 615.12 429.66 611.39 436.43 C 608.55 441.50 602.66 444.52 596.89 444.12 C 592.46 444.08 588.53 441.42 585.74 438.16 C 583.54 435.60 584.03 432.00 583.52 428.90 C 582.73 419.79 575.85 411.61 578.53 402.19 C 581.01 405.28 581.59 411.02 586.13 411.62 C 585.30 401.61 578.30 393.95 573.43 385.69 C 565.56 370.11 564.14 352.14 564.67 334.96 C 564.20 332.62 562.38 330.85 561.19 328.85 C 557.09 323.08 553.69 316.86 549.78 310.97 M 570.87 346.23 C 572.70 350.96 575.48 355.45 579.34 358.80 C 580.42 359.75 583.03 360.72 583.10 358.46 C 579.05 352.94 574.53 347.71 571.43 341.55 C 569.50 342.48 570.35 344.67 570.87 346.23 Z" />
		<path fill="#f0b58b" opacity="1.00"
			d=" M 272.76 340.69 C 283.74 337.70 295.06 341.63 305.11 345.97 C 311.86 349.02 318.19 352.99 323.88 357.73 C 323.62 360.57 322.72 363.84 324.63 366.34 C 327.35 369.94 331.27 372.35 334.51 375.45 C 337.75 378.23 340.47 381.53 343.42 384.61 C 344.39 385.79 345.95 386.02 347.33 386.45 C 346.85 382.47 344.08 379.45 341.73 376.42 C 349.93 374.73 358.29 373.93 366.65 373.64 C 367.39 377.41 366.89 381.25 366.66 385.04 C 365.66 397.79 364.27 410.51 363.85 423.31 C 361.42 422.78 358.92 422.40 356.66 421.33 C 349.87 418.06 347.40 409.42 340.06 406.98 C 331.01 403.84 321.28 404.39 311.94 402.76 C 302.42 401.44 293.82 396.83 285.37 392.52 C 278.77 389.38 273.11 383.89 270.96 376.78 C 268.02 364.84 270.01 352.46 272.76 340.69 M 308.14 367.18 C 302.23 373.29 296.82 379.87 291.01 386.08 C 289.21 388.04 287.17 390.04 286.97 392.87 C 293.47 391.30 297.44 385.33 301.74 380.67 C 305.23 376.27 309.76 372.37 311.78 367.02 C 311.48 364.63 308.98 366.15 308.14 367.18 Z" />
		<path fill="#f0b58b" opacity="1.00"
			d=" M 590.31 670.42 C 602.04 658.82 612.11 645.71 621.92 632.49 C 623.85 651.00 625.60 669.54 628.40 687.96 C 630.74 703.46 632.39 719.14 636.58 734.30 C 623.06 730.61 608.56 732.10 595.29 736.13 C 589.40 738.02 583.69 740.74 579.07 744.92 C 580.72 724.99 572.39 705.19 559.29 690.45 C 571.56 687.43 581.47 679.04 590.31 670.42 Z" />
		<path fill="#f0b58b" opacity="1.00"
			d=" M 398.39 688.14 C 409.62 690.27 420.83 692.45 432.08 694.50 C 438.40 695.67 444.61 697.45 450.59 699.82 C 450.73 705.98 450.58 712.13 450.24 718.28 C 440.58 709.04 428.03 703.15 415.02 700.42 C 406.94 698.82 398.21 698.32 390.46 701.58 C 393.16 697.13 395.42 692.42 398.39 688.14 Z" />
	</g>
	<g id="#f11b27ff">
		<path fill="var(--shirt-color, grey)" opacity="1.00"
			d=" M 425.03 164.01 C 430.94 162.84 436.97 162.50 442.98 162.20 C 452.75 161.67 462.40 163.81 471.87 165.98 C 479.02 167.60 485.94 170.16 492.43 173.55 C 497.83 176.15 502.93 179.86 509.09 180.34 C 522.44 181.93 535.98 182.61 549.01 186.14 C 555.99 187.92 560.52 193.98 564.64 199.44 C 573.46 211.65 577.20 226.50 580.33 241.00 C 584.94 262.37 590.67 283.48 595.10 304.89 C 584.43 303.41 573.59 302.99 562.90 304.44 C 552.91 305.61 541.35 306.26 534.56 314.81 C 538.33 299.02 541.62 282.69 539.35 266.41 C 539.11 264.27 538.30 262.13 536.14 261.28 C 537.71 272.27 536.31 283.31 534.65 294.19 C 533.40 283.10 529.07 272.72 524.22 262.78 C 521.52 257.79 519.21 252.15 514.35 248.85 C 518.75 257.78 523.69 266.50 526.93 275.97 C 530.59 286.12 532.44 297.05 531.48 307.82 C 530.42 313.03 530.00 319.04 533.70 323.37 C 536.77 327.95 542.93 326.42 547.59 326.36 C 547.27 340.24 549.21 354.06 550.38 367.87 C 551.60 380.93 552.43 394.05 554.85 406.95 C 557.33 422.11 562.61 436.64 565.13 451.79 C 565.70 456.52 565.66 461.35 566.93 465.99 C 561.00 463.70 554.65 462.27 549.29 458.70 C 540.99 453.20 533.93 446.00 528.02 438.03 C 527.03 436.58 525.69 435.44 524.04 434.85 C 523.75 439.20 526.69 442.64 529.08 445.93 C 535.93 454.73 543.91 463.44 554.67 467.30 C 561.04 469.87 568.79 469.96 573.76 475.28 C 579.65 481.12 580.57 489.76 582.78 497.36 C 583.88 502.91 587.70 507.59 587.94 513.36 C 569.52 521.67 550.24 527.92 530.56 532.46 C 513.57 536.30 497.35 543.01 480.14 545.90 C 467.90 548.00 455.48 549.57 443.04 549.13 C 423.53 548.43 404.84 541.98 386.78 535.05 C 379.43 531.75 372.13 528.04 365.85 522.94 C 367.62 516.76 368.70 510.42 369.74 504.08 C 371.94 487.43 369.67 470.68 369.53 453.98 C 369.46 445.33 368.71 436.70 368.81 428.04 C 368.51 412.12 371.26 396.35 371.47 380.45 C 376.19 384.86 382.04 387.94 388.15 389.93 C 389.52 390.15 392.45 391.38 392.58 389.03 C 391.04 387.20 388.74 386.40 386.69 385.33 C 382.15 383.14 377.71 380.44 374.44 376.52 C 369.12 370.27 365.94 362.58 362.97 355.02 C 358.47 342.73 354.54 330.06 353.72 316.92 C 351.97 301.68 349.94 286.21 344.01 271.94 C 342.19 267.74 340.50 263.23 336.99 260.12 C 337.19 262.28 337.65 264.43 338.49 266.45 C 341.26 273.50 343.47 280.76 345.48 288.06 C 341.20 281.90 334.79 277.21 327.34 275.79 C 327.48 276.29 327.76 277.29 327.90 277.79 C 331.09 280.73 335.32 282.39 338.18 285.74 C 345.97 294.33 348.16 306.30 348.99 317.49 C 339.36 327.88 330.61 339.53 325.31 352.76 C 314.97 344.57 302.73 338.66 289.73 336.26 C 284.54 335.28 279.18 335.32 274.04 336.59 C 278.65 323.55 285.48 311.45 292.73 299.72 C 296.02 294.23 299.62 288.80 301.48 282.62 C 303.52 275.88 302.59 268.63 304.85 261.95 C 307.95 251.72 314.01 242.77 319.91 233.98 C 325.88 225.70 331.96 217.38 339.46 210.40 C 344.59 205.55 351.07 202.56 357.24 199.29 C 366.41 194.52 376.84 192.40 385.40 186.43 C 390.97 182.76 395.44 177.67 401.10 174.12 C 408.42 169.44 416.44 165.61 425.03 164.01 Z" />
		<path fill="var(--shirt-color, grey)" opacity="1.00"
			d=" M 537.69 320.06 C 538.25 315.53 543.01 313.51 546.62 311.72 C 548.32 315.25 550.08 318.75 551.91 322.23 C 547.28 321.99 541.26 323.89 537.69 320.06 Z" />
	</g>
	<g id="#ffffffff">
		<path fill="var(--pants-color, grey)" opacity="1.00"
			d=" M 510.60 542.41 C 535.70 534.82 561.90 529.90 585.25 517.43 C 591.94 526.29 595.65 536.96 598.21 547.66 C 599.40 551.91 600.09 556.57 603.09 560.02 C 605.36 563.15 608.98 564.67 612.02 566.88 C 614.93 569.19 612.72 573.01 612.78 576.02 C 612.18 581.00 615.94 584.74 618.02 588.86 C 621.62 595.82 624.45 603.17 628.45 609.93 C 626.61 617.08 622.55 623.43 618.39 629.43 C 608.94 641.89 599.47 654.40 588.60 665.67 C 582.47 671.92 575.84 677.81 568.21 682.17 C 561.89 685.81 554.47 686.47 547.68 688.85 C 542.42 690.53 537.68 693.40 532.92 696.12 C 526.92 682.34 519.48 669.27 511.56 656.52 C 508.61 651.72 504.25 647.71 502.66 642.16 C 500.59 635.32 499.45 628.14 496.22 621.69 C 493.69 616.69 490.61 611.96 487.21 607.51 C 488.80 603.54 491.63 600.01 492.42 595.76 C 490.64 594.83 489.99 597.02 489.07 597.98 C 478.24 614.32 472.11 633.53 470.18 652.97 C 469.48 658.45 468.89 663.95 468.16 669.43 C 466.71 680.09 462.53 690.09 459.98 700.49 C 456.51 697.70 452.84 695.05 448.59 693.61 C 435.88 689.10 422.45 687.23 409.24 684.82 C 401.06 683.26 392.76 682.31 384.43 682.10 C 384.40 676.80 384.02 671.49 384.85 666.23 C 387.02 647.77 385.57 629.12 382.76 610.82 C 380.82 597.41 378.09 584.14 374.89 570.98 C 372.03 558.32 368.49 545.22 371.50 532.23 C 377.85 535.88 384.51 538.96 391.42 541.40 C 408.61 547.79 426.52 553.18 445.01 553.43 C 467.30 553.58 489.53 549.59 510.60 542.41 Z" />
		<path fill="var(--socks-color, grey)" opacity="1.00"
			d=" M 390.24 705.32 C 398.12 701.82 407.12 703.11 415.29 704.83 C 428.14 708.06 441.10 713.62 450.10 723.68 C 449.53 735.10 450.34 746.59 448.96 757.97 C 446.74 782.97 433.42 805.19 429.46 829.82 C 427.36 841.88 428.86 854.17 430.29 866.22 C 426.18 861.60 419.40 860.54 413.87 863.09 C 406.00 865.97 402.17 873.99 398.46 880.89 C 398.84 863.19 398.96 845.38 396.04 827.86 C 394.88 814.57 389.18 802.36 386.38 789.43 C 380.70 763.94 378.84 736.85 386.35 711.53 C 387.24 709.27 387.54 706.15 390.24 705.32 Z" />
		<path fill="var(--socks-color, grey)" opacity="1.00"
			d=" M 591.49 741.39 C 606.05 736.05 622.43 734.09 637.53 738.36 C 641.17 752.57 645.62 766.59 648.06 781.09 C 651.95 801.16 651.67 821.67 652.52 842.01 C 653.70 858.59 653.94 875.23 655.80 891.76 C 656.52 898.84 657.88 905.96 657.13 913.10 C 656.49 919.16 652.04 923.90 647.44 927.47 C 645.90 928.56 643.30 930.18 641.94 928.00 C 636.82 921.90 630.11 916.52 621.92 915.67 C 618.86 915.70 617.69 912.62 617.54 910.05 C 617.06 899.05 614.75 888.20 611.70 877.65 C 609.27 868.67 604.25 860.70 601.44 851.87 C 597.37 839.10 591.24 827.05 587.95 814.03 C 580.39 793.66 576.16 771.57 578.92 749.87 C 581.89 745.62 586.84 743.33 591.49 741.39 Z" />
	</g>
	<g id="#4d4d4dff">
		<path fill="#4d4d4d" opacity="1.00"
			d=" M 417.41 866.47 C 420.72 865.40 424.77 866.08 426.87 869.06 C 431.92 875.56 431.17 884.24 431.72 891.98 C 432.48 900.96 432.25 909.98 431.99 918.99 C 431.48 931.33 431.51 943.71 429.92 955.98 C 429.06 962.10 428.53 968.63 424.92 973.87 C 421.81 978.34 417.81 982.66 412.55 984.49 C 408.41 985.64 405.48 981.70 402.81 979.25 C 390.20 967.74 383.93 949.85 386.09 932.97 C 388.17 914.02 394.57 895.62 404.15 879.18 C 406.87 873.58 411.17 868.18 417.41 866.47 Z" />
		<path fill="#4d4d4d" opacity="1.00"
			d=" M 649.01 932.00 C 655.69 927.61 660.99 920.56 661.61 912.39 C 669.35 919.41 678.87 924.58 689.10 926.81 C 695.35 928.00 702.02 929.69 706.29 934.80 C 710.60 939.25 707.09 946.68 702.15 949.06 C 691.89 954.12 680.02 949.81 669.44 953.50 C 661.14 956.06 653.92 961.79 645.06 962.55 C 635.97 963.31 626.86 961.72 617.98 959.92 C 613.99 959.49 611.84 955.57 611.19 952.00 C 608.59 940.19 612.88 928.45 614.83 916.88 C 618.79 920.82 624.90 919.73 629.38 922.69 C 633.58 925.00 636.44 928.92 639.82 932.20 C 642.36 934.63 646.33 933.70 649.01 932.00 Z" />
	</g>
</svg>