<?xml version="1.0" encoding="UTF-8" ?>
<!DOCTYPE svg PUBLIC "-//W3C//DTD SVG 1.1//EN" "http://www.w3.org/Graphics/SVG/1.1/DTD/svg11.dtd">
<svg width="1000pt" height="1000pt" viewBox="0 0 1000 1000" version="1.1" xmlns="http://www.w3.org/2000/svg">
	<g id="#020202ff">
		<path fill="#020202" opacity="1.00"
			d=" M 451.31 23.29 C 466.26 13.29 485.53 9.39 503.01 14.16 C 510.02 15.99 516.21 19.88 522.14 23.90 C 535.38 33.03 544.64 47.97 546.21 64.05 C 547.26 75.00 544.84 86.45 538.62 95.61 C 537.33 97.49 536.50 99.63 536.18 101.89 C 534.91 109.12 533.81 116.44 531.20 123.34 C 527.67 133.00 521.39 141.26 515.40 149.49 C 511.63 154.51 507.70 159.42 503.46 164.04 C 508.11 169.39 512.52 175.25 518.58 179.09 C 526.74 182.03 536.98 182.81 541.95 190.98 C 550.66 206.36 551.55 224.81 549.97 242.05 C 549.23 255.05 546.13 268.06 548.14 281.09 C 549.26 289.25 552.76 296.86 554.05 304.98 C 554.35 308.78 550.25 310.55 547.37 311.85 C 547.33 322.93 547.78 334.12 545.62 345.04 C 544.24 352.33 540.05 358.76 535.20 364.23 C 532.35 368.05 527.21 365.57 523.57 364.42 C 515.50 360.91 506.79 357.84 500.56 351.36 C 501.09 363.13 499.55 374.95 497.41 386.52 C 503.56 387.27 509.83 387.08 515.90 388.39 C 520.24 389.36 523.44 393.04 524.78 397.16 C 527.37 405.03 528.95 413.37 528.29 421.69 C 536.91 423.87 543.42 430.86 547.65 438.37 C 549.03 440.48 548.97 443.04 548.97 445.46 C 548.20 445.68 546.67 446.12 545.90 446.34 C 549.63 448.70 553.46 451.20 555.95 454.95 C 559.15 459.38 559.04 465.30 562.26 469.73 C 566.36 475.57 571.56 480.59 575.21 486.76 C 578.48 492.33 581.48 498.15 583.34 504.36 C 585.13 510.26 584.93 516.70 587.70 522.32 C 591.07 529.26 595.40 535.77 597.95 543.09 C 598.49 547.16 595.00 550.11 592.28 552.55 C 595.45 566.64 598.63 580.79 603.54 594.42 C 606.07 602.13 609.94 609.67 609.80 617.99 C 609.67 620.51 610.47 622.96 612.10 624.90 C 618.69 633.60 623.01 643.69 627.44 653.58 C 640.81 682.46 650.04 712.99 658.66 743.56 C 664.19 761.95 668.81 780.61 674.05 799.09 C 677.19 809.47 681.74 819.84 689.40 827.68 C 705.76 839.44 723.54 849.17 739.52 861.50 C 745.17 865.96 751.07 871.02 753.48 878.03 C 752.96 884.15 748.38 889.22 743.46 892.52 C 736.22 897.20 727.65 900.53 718.90 899.86 C 712.39 899.44 706.56 896.20 700.95 893.17 C 693.00 888.72 684.13 885.69 675.01 885.11 C 668.42 884.73 661.31 884.31 655.82 880.20 C 648.38 875.11 645.43 865.63 645.53 856.97 C 645.74 848.06 645.85 839.11 644.78 830.25 C 644.26 825.63 640.50 822.38 638.50 818.39 C 633.50 810.77 630.54 802.06 625.56 794.45 C 615.04 778.02 601.91 763.52 589.73 748.34 C 583.95 741.01 577.64 734.00 573.24 725.71 C 559.76 700.67 550.83 673.47 544.03 645.95 C 542.95 641.88 542.92 637.30 540.08 633.95 C 531.82 623.43 521.37 614.94 512.44 605.02 C 510.61 605.17 508.78 605.31 506.95 605.44 C 509.11 613.51 510.65 621.75 511.44 630.06 C 511.81 632.89 511.27 635.69 510.66 638.44 C 508.38 638.01 506.13 637.56 503.87 637.08 C 510.53 656.17 515.04 675.96 522.20 694.88 C 526.16 703.15 532.12 710.25 537.26 717.80 C 546.20 730.07 552.06 744.18 557.99 758.06 C 562.44 768.49 565.37 779.47 568.80 790.26 C 570.99 797.21 572.95 804.23 574.79 811.29 C 578.92 829.61 584.19 848.00 593.66 864.35 C 598.65 873.10 605.46 880.62 611.07 888.96 C 613.34 892.37 614.80 896.31 617.63 899.34 C 623.81 906.17 630.59 912.49 636.13 919.88 C 644.32 931.00 647.67 944.74 649.72 958.17 C 650.94 966.24 651.19 974.74 648.31 982.51 C 645.82 989.00 639.11 993.88 632.02 993.27 C 624.25 992.55 616.12 991.09 609.78 986.22 C 601.84 980.21 597.11 971.17 592.48 962.59 C 587.69 953.43 582.31 944.43 575.14 936.92 C 568.57 930.14 559.25 925.61 555.52 916.44 C 552.28 910.06 553.95 902.84 554.65 896.10 C 555.28 892.07 553.32 888.37 552.08 884.67 C 545.54 866.86 531.98 853.04 520.92 838.02 C 511.80 827.12 501.99 816.73 494.26 804.75 C 483.08 787.84 473.97 769.51 468.05 750.10 C 462.13 732.60 459.58 714.01 451.82 697.13 C 445.12 680.91 435.08 666.35 424.50 652.46 C 416.06 654.48 407.87 658.25 399.08 658.29 C 397.29 650.64 397.20 642.66 394.67 635.20 C 388.81 616.56 379.08 599.50 369.13 582.80 C 361.54 570.53 355.86 557.12 351.77 543.31 C 347.03 525.87 349.39 507.31 344.18 489.95 C 342.43 484.24 339.89 478.75 339.20 472.76 C 338.81 467.38 335.53 462.84 334.79 457.55 C 333.85 453.92 334.29 449.49 331.16 446.85 C 327.22 443.00 323.40 438.49 322.57 432.85 C 321.55 424.57 323.98 416.32 323.55 408.03 C 322.92 403.93 320.93 400.18 320.32 396.07 C 319.40 391.63 319.98 387.10 320.76 382.70 C 321.68 377.83 320.11 372.98 318.57 368.42 C 316.14 361.83 313.43 355.34 311.23 348.67 C 307.25 336.41 302.64 324.06 302.40 311.00 C 302.07 290.56 304.90 270.23 308.30 250.12 C 302.61 249.44 297.27 247.27 292.18 244.76 C 282.90 252.80 271.73 258.12 260.98 263.85 C 252.67 267.98 244.48 273.16 235.04 274.09 C 230.17 274.56 224.39 274.04 221.18 269.84 C 216.29 263.32 211.33 256.80 207.35 249.67 C 205.84 247.22 204.66 244.51 202.73 242.36 C 198.65 240.38 194.11 239.31 190.37 236.64 C 186.63 234.52 183.86 231.16 180.42 228.66 C 175.99 227.24 170.65 226.22 168.32 221.63 C 165.39 216.83 167.32 211.02 170.28 206.76 C 167.45 199.06 169.65 190.25 175.39 184.50 C 176.28 181.93 176.86 178.96 179.13 177.19 C 182.82 174.30 187.63 173.70 192.11 172.92 C 193.62 170.99 195.04 168.04 197.98 168.44 C 203.21 169.54 206.96 173.79 210.33 177.64 C 215.77 184.28 221.03 191.09 225.72 198.28 C 227.46 200.67 227.53 203.66 227.54 206.50 C 231.93 206.57 236.31 206.96 240.64 207.68 C 243.64 203.98 247.08 200.62 251.09 198.01 C 248.80 191.58 252.45 185.28 256.58 180.55 C 263.08 172.95 271.26 167.04 279.64 161.69 C 289.78 155.59 295.33 144.71 303.34 136.37 C 311.20 127.65 322.49 122.40 334.03 120.82 C 344.08 119.73 354.21 120.92 364.16 122.43 C 376.04 124.14 388.35 124.31 400.03 121.22 C 406.56 119.45 413.20 117.81 419.98 117.43 C 424.63 117.54 428.08 121.10 431.52 123.77 C 434.08 119.95 436.23 115.71 436.62 111.06 C 437.42 107.44 434.89 104.38 433.82 101.12 C 429.86 90.57 428.26 79.24 427.90 68.01 C 427.92 61.43 428.41 54.71 430.68 48.48 C 434.60 38.13 442.14 29.40 451.31 23.29 M 523.84 97.85 C 521.09 102.21 519.94 107.33 518.94 112.32 C 516.85 106.26 514.51 100.24 511.34 94.65 C 509.38 91.45 506.82 88.07 503.01 87.09 C 501.78 87.08 500.19 87.24 499.81 88.64 C 496.44 98.12 503.79 108.10 499.58 117.47 C 495.72 122.42 488.70 122.58 482.96 122.97 C 471.62 123.10 460.19 121.99 449.13 119.45 C 445.34 118.77 442.46 116.10 440.08 113.25 C 439.45 117.98 437.45 122.37 434.65 126.20 C 442.18 131.60 450.08 136.49 458.35 140.69 C 465.14 144.15 472.40 146.52 479.53 149.17 C 476.81 144.32 473.65 139.66 471.72 134.41 C 473.59 135.40 475.20 136.80 476.35 138.59 C 479.50 143.18 483.30 147.26 486.56 151.77 C 491.70 153.64 498.15 154.38 500.65 160.03 C 508.36 149.86 516.24 139.73 522.49 128.56 C 530.22 115.22 529.85 99.25 534.88 84.95 C 530.62 88.71 526.90 93.07 523.84 97.85 M 401.28 125.16 C 389.25 128.44 376.56 128.42 364.28 126.70 C 353.69 125.18 342.83 123.75 332.18 125.57 C 323.93 127.30 315.88 130.84 309.63 136.59 C 302.99 143.07 297.91 150.90 292.01 158.01 C 287.66 163.18 281.65 166.44 276.18 170.24 C 267.28 176.45 258.73 183.71 253.40 193.33 C 258.31 206.32 267.68 216.87 277.38 226.53 C 286.17 235.32 296.45 243.58 309.04 245.79 C 310.27 238.86 311.52 231.93 312.50 224.95 C 313.66 217.42 311.99 209.86 310.69 202.46 C 310.10 198.71 308.82 194.70 310.68 191.10 C 312.36 196.54 313.21 202.18 314.51 207.72 C 315.35 200.45 315.98 193.15 316.86 185.89 C 316.94 184.08 317.87 182.52 318.87 181.07 C 320.13 190.36 318.16 199.68 317.90 208.98 C 316.84 232.88 310.84 256.16 308.34 279.88 C 307.58 290.56 306.54 301.28 307.02 311.99 C 307.53 324.68 312.46 336.52 316.36 348.43 C 318.57 355.08 321.43 361.49 323.68 368.12 C 326.81 377.53 325.36 387.55 324.59 397.21 C 325.30 399.87 327.11 402.09 328.76 404.25 C 334.73 411.57 341.78 417.90 348.85 424.14 C 350.79 425.83 352.50 427.76 354.04 429.82 C 351.94 429.09 349.85 428.27 348.16 426.81 C 340.96 421.01 333.25 415.68 327.35 408.47 C 327.53 417.02 325.01 425.70 326.96 434.14 C 328.63 441.07 337.19 443.71 337.86 451.00 C 338.78 456.49 339.96 461.96 342.04 467.15 C 350.69 469.19 359.36 471.20 368.17 472.49 C 381.66 474.55 395.42 477.32 409.07 475.12 C 427.50 471.72 445.03 464.93 462.99 459.79 C 480.05 455.17 497.22 450.92 514.50 447.18 C 524.66 445.14 534.80 442.30 545.25 442.47 C 541.61 435.60 536.72 428.38 528.64 426.50 C 519.20 424.59 509.54 426.72 500.00 426.20 C 495.53 425.87 490.30 426.32 486.83 422.92 C 490.54 422.60 494.27 422.82 498.00 422.71 C 507.36 422.55 516.67 421.14 526.05 421.44 C 525.74 414.16 524.04 407.04 521.86 400.12 C 520.94 397.38 519.63 394.45 516.95 393.04 C 514.51 391.80 511.71 391.69 509.04 391.48 C 502.67 391.14 496.32 390.49 489.96 390.15 C 473.15 389.28 456.50 386.48 440.08 382.90 C 435.86 381.78 431.07 381.29 428.00 377.82 C 433.48 377.55 438.73 379.29 444.08 380.16 C 460.70 383.16 477.48 385.36 494.34 386.28 C 495.15 374.87 495.93 363.44 495.97 352.00 C 496.11 345.21 494.11 338.60 491.74 332.31 C 489.12 325.38 487.46 318.13 486.05 310.87 C 481.90 307.81 476.15 304.91 475.94 299.03 C 474.68 287.02 473.31 275.02 471.60 263.07 C 471.03 258.28 469.78 253.42 470.91 248.61 C 472.10 250.63 473.16 252.77 473.51 255.11 C 475.52 266.21 477.03 277.39 478.54 288.56 C 478.99 279.04 479.47 269.52 480.59 260.06 C 481.28 254.71 481.46 249.11 484.07 244.25 C 484.67 245.44 486.00 246.42 485.97 247.87 C 486.07 252.28 485.42 256.67 485.09 261.07 C 484.18 270.65 484.42 280.32 483.32 289.89 C 482.97 293.61 481.65 297.16 481.27 300.87 C 486.75 306.38 494.05 309.71 500.99 313.03 C 505.87 315.58 511.40 314.19 516.52 313.38 C 527.89 311.24 539.30 309.25 550.44 306.10 C 548.42 299.09 546.12 292.17 544.48 285.07 C 541.45 271.55 544.21 257.75 545.22 244.17 C 546.79 227.36 546.67 209.47 538.90 194.06 C 536.41 188.58 530.34 186.45 524.87 185.33 C 505.53 181.21 485.96 178.03 467.03 172.21 C 461.59 170.37 455.28 169.35 451.47 164.62 C 453.68 164.90 455.91 165.22 458.07 165.84 C 474.63 171.07 491.99 172.86 508.81 177.07 C 504.08 172.07 499.43 166.92 495.79 161.05 C 494.75 158.83 492.17 158.46 490.11 157.71 C 483.32 155.74 476.78 153.04 470.11 150.73 C 455.50 145.62 442.06 137.55 429.92 128.03 C 426.96 125.83 424.53 122.69 420.98 121.44 C 414.26 121.59 407.71 123.33 401.28 125.16 M 197.28 171.94 C 196.35 173.41 195.94 175.26 194.68 176.49 C 190.28 177.77 185.21 177.51 181.43 180.45 C 179.35 182.19 180.35 185.51 178.49 187.40 C 175.70 190.28 173.44 193.83 173.01 197.90 C 172.31 201.09 173.80 204.08 174.66 207.07 C 173.73 210.19 170.59 212.50 170.71 216.00 C 170.43 219.77 173.56 222.96 177.10 223.66 C 179.88 224.34 182.97 224.79 184.89 227.15 C 189.22 231.90 194.65 235.50 200.55 237.97 C 197.76 232.30 195.03 226.52 193.71 220.31 C 195.43 220.20 196.84 220.99 197.52 222.60 C 204.74 235.00 210.92 248.06 219.11 259.88 C 221.83 263.45 224.39 268.05 229.26 268.82 C 236.24 269.96 243.12 267.22 249.28 264.20 C 262.67 257.25 276.27 250.69 289.24 242.94 C 282.34 238.25 276.26 232.51 270.52 226.49 C 263.33 218.93 256.43 210.79 252.24 201.13 C 242.91 210.02 237.52 221.87 231.03 232.77 C 230.67 232.35 229.95 231.50 229.59 231.08 C 230.58 223.88 234.16 217.39 238.03 211.36 C 229.49 210.05 220.87 210.10 212.26 210.45 C 214.85 206.80 219.69 207.30 223.59 206.55 C 223.32 204.31 223.47 201.88 222.15 199.93 C 218.78 194.68 214.98 189.71 211.19 184.76 C 207.28 179.80 203.31 174.43 197.28 171.94 M 509.04 319.63 C 502.34 320.56 496.49 316.47 490.76 313.68 C 492.42 321.70 494.84 329.54 497.87 337.14 C 499.61 341.42 501.33 346.01 505.01 349.03 C 512.60 355.14 521.73 358.76 530.67 362.36 C 536.04 358.62 539.04 352.30 541.07 346.26 C 543.51 335.31 543.42 324.00 543.58 312.84 C 532.25 315.92 520.69 318.23 509.04 319.63 M 463.91 464.88 C 449.64 469.01 435.64 474.07 421.19 477.55 C 413.94 479.33 406.56 480.88 399.06 480.78 C 387.28 480.60 375.68 478.35 364.10 476.43 C 356.86 475.08 349.57 473.70 342.63 471.16 C 343.57 476.46 345.60 481.44 347.49 486.45 C 352.60 501.60 351.81 517.80 353.87 533.47 C 355.43 544.20 359.55 554.32 363.77 564.23 C 367.74 573.56 373.48 581.96 378.35 590.82 C 387.09 605.92 395.09 621.73 399.22 638.78 C 400.25 644.03 400.41 649.41 401.03 654.72 C 426.63 647.87 451.69 638.86 477.84 634.27 C 487.92 633.18 498.35 632.55 508.25 635.17 C 507.31 625.66 505.49 616.26 503.63 606.90 C 501.58 596.57 496.69 587.17 492.20 577.75 C 484.03 561.20 475.50 544.80 466.09 528.91 C 465.36 527.58 464.97 526.11 464.53 524.69 C 466.78 525.96 468.70 527.75 470.11 529.92 C 476.03 538.52 480.94 547.76 486.03 556.86 C 493.72 571.08 501.68 585.44 505.71 601.21 C 513.99 600.38 522.06 598.12 530.06 595.91 C 540.69 592.42 551.76 588.83 560.39 581.41 C 569.79 572.63 575.48 560.64 584.91 551.87 C 587.87 549.29 591.32 547.32 594.14 544.56 C 591.34 537.70 587.50 531.34 583.98 524.84 C 580.31 518.24 581.13 510.33 578.43 503.41 C 575.37 495.45 571.36 487.76 565.78 481.26 C 562.51 477.15 558.68 473.33 556.56 468.44 C 554.81 464.62 554.91 460.09 552.32 456.65 C 549.19 452.40 544.71 449.42 540.32 446.63 C 514.58 451.46 489.19 458.07 463.91 464.88 M 567.76 580.77 C 563.01 586.20 556.82 590.14 550.36 593.24 C 539.72 598.38 528.35 601.93 516.76 604.11 C 525.01 611.91 533.58 619.46 540.74 628.31 C 540.71 626.20 539.93 623.94 540.90 621.95 C 541.31 622.10 542.13 622.41 542.54 622.57 C 546.03 632.03 546.86 642.26 549.91 651.88 C 555.41 645.54 563.34 642.09 571.12 639.44 C 584.97 635.12 599.95 632.95 614.27 636.11 C 611.41 630.02 604.69 625.40 605.38 618.03 C 605.42 610.73 602.07 604.10 599.86 597.30 C 595.15 583.40 591.19 569.13 589.56 554.50 C 581.40 562.49 575.29 572.23 567.76 580.77 M 471.02 639.76 C 456.87 642.58 443.18 647.19 429.30 651.03 C 434.14 656.57 438.16 662.77 442.00 669.04 C 450.80 683.12 457.89 698.30 462.51 714.27 C 468.45 709.26 475.79 706.36 483.06 703.86 C 494.74 700.00 507.00 697.64 519.34 697.89 C 511.67 677.97 507.58 656.89 500.14 636.90 C 490.37 636.67 480.49 637.23 471.02 639.76 M 577.08 642.47 C 567.63 644.88 558.10 648.40 550.90 655.23 C 556.18 674.60 562.51 693.75 571.17 711.90 C 575.16 720.50 579.57 729.00 585.66 736.33 C 600.30 755.32 617.05 772.73 629.87 793.07 C 633.99 799.23 636.38 806.34 640.41 812.56 C 643.15 816.83 645.39 821.50 648.88 825.25 C 650.06 826.93 652.27 826.34 654.01 826.51 C 662.43 826.30 669.98 830.70 678.09 832.27 C 680.75 832.96 683.14 831.25 685.53 830.35 C 682.11 825.14 678.30 820.17 675.50 814.59 C 670.09 802.75 667.36 789.97 663.77 777.52 C 659.78 762.11 655.16 746.87 650.67 731.59 C 642.05 700.62 631.00 670.31 616.97 641.37 C 603.89 637.99 590.07 639.34 577.08 642.47 M 492.03 706.21 C 482.05 708.75 472.15 712.14 463.49 717.83 C 467.15 732.61 470.94 747.40 476.48 761.61 C 482.93 778.35 491.85 794.08 502.35 808.60 C 510.05 819.44 519.78 828.62 527.78 839.22 C 536.63 850.86 546.46 861.96 553.01 875.14 C 555.30 879.83 556.65 884.89 558.26 889.84 C 563.09 887.13 568.20 883.98 574.01 884.64 C 586.78 885.90 597.80 893.62 610.32 895.90 C 605.16 885.73 596.71 877.73 591.10 867.83 C 582.82 854.45 578.07 839.31 573.88 824.25 C 571.85 814.67 569.41 805.19 566.45 795.85 C 562.00 782.29 558.35 768.43 552.51 755.37 C 548.11 745.13 543.72 734.81 537.73 725.37 C 532.60 717.68 526.93 710.35 521.99 702.54 C 511.87 702.00 501.81 703.77 492.03 706.21 M 649.01 831.08 C 649.92 838.21 650.08 845.41 649.89 852.59 C 654.48 850.14 659.77 849.21 664.92 850.21 C 677.69 852.05 687.27 861.63 699.17 865.82 C 704.51 867.92 710.34 868.20 716.02 867.95 C 725.18 867.56 734.41 868.15 743.36 870.19 C 726.37 855.54 706.23 845.24 687.99 832.33 C 685.22 834.13 682.56 836.70 679.06 836.74 C 672.90 836.73 667.24 833.95 661.42 832.32 C 657.40 831.08 653.16 831.17 649.01 831.08 M 654.82 855.60 C 652.17 856.46 649.63 858.91 650.15 861.94 C 650.71 867.42 652.97 873.20 657.79 876.29 C 662.74 879.96 669.12 880.27 675.03 880.47 C 685.75 880.64 696.14 884.33 705.32 889.71 C 711.27 893.15 718.13 896.04 725.14 894.56 C 734.98 892.41 745.12 887.02 749.20 877.30 C 740.96 872.57 731.25 872.17 721.99 872.07 C 714.19 872.07 706.11 873.15 698.60 870.44 C 690.04 867.74 682.87 862.23 674.98 858.18 C 668.81 855.21 661.51 853.32 654.82 855.60 M 559.19 893.80 C 558.99 896.66 558.75 899.52 558.49 902.39 C 562.43 900.76 566.69 899.23 571.03 900.04 C 576.29 900.97 581.22 903.36 585.61 906.35 C 593.69 912.01 598.65 920.78 604.53 928.48 C 612.80 939.30 624.22 946.99 635.03 955.02 C 639.17 957.79 643.22 960.80 646.23 964.84 C 644.41 952.99 642.47 940.87 637.00 930.07 C 631.13 918.23 620.15 910.22 612.78 899.44 C 610.73 899.55 608.65 899.83 606.62 899.48 C 595.47 896.52 585.41 890.10 573.99 888.11 C 568.30 886.92 563.07 889.91 559.19 893.80 M 564.39 904.56 C 562.04 905.24 557.89 905.87 558.14 909.05 C 558.62 916.37 563.91 922.19 569.56 926.33 C 575.88 930.97 581.55 936.50 585.94 943.02 C 593.92 953.58 598.10 966.44 606.08 976.99 C 611.16 983.88 619.28 988.88 628.00 988.89 C 631.91 988.89 636.24 989.05 639.58 986.66 C 644.65 983.01 646.02 975.71 644.08 970.03 C 641.68 963.68 635.30 960.58 630.16 956.81 C 620.24 949.55 610.05 942.32 602.25 932.69 C 596.15 925.18 591.35 916.42 583.62 910.39 C 578.11 906.47 571.31 903.20 564.39 904.56 Z" />
		<path fill="#020202" opacity="1.00"
			d=" M 370.98 251.99 C 370.17 249.50 368.44 246.73 369.90 244.15 C 372.76 246.18 373.68 249.78 375.32 252.71 C 380.65 262.99 383.74 274.21 386.80 285.32 C 387.61 288.93 389.27 292.85 387.30 296.40 C 384.70 291.95 383.69 286.87 382.13 282.03 C 379.11 271.77 375.10 261.84 370.98 251.99 Z" />
		<path fill="#020202" opacity="1.00"
			d=" M 389.56 254.51 C 388.67 252.59 388.72 250.47 388.74 248.42 C 396.31 260.90 403.30 273.71 410.50 286.40 C 420.54 304.47 428.00 324.02 440.14 340.88 C 443.32 345.56 447.12 349.79 450.27 354.49 C 448.23 353.83 446.14 353.05 444.76 351.32 C 434.50 339.74 426.10 326.61 419.34 312.71 C 414.32 302.49 409.29 292.27 403.81 282.29 C 398.89 273.12 393.53 264.14 389.56 254.51 Z" />
	</g>
	<g id="#f0b58bff">
		<path fill="#f0b58b" opacity="1.00"
			d=" M 523.84 97.85 C 526.90 93.07 530.62 88.71 534.88 84.95 C 529.85 99.25 530.22 115.22 522.49 128.56 C 516.24 139.73 508.36 149.86 500.65 160.03 C 498.15 154.38 491.70 153.64 486.56 151.77 C 483.30 147.26 479.50 143.18 476.35 138.59 C 475.20 136.80 473.59 135.40 471.72 134.41 C 473.65 139.66 476.81 144.32 479.53 149.17 C 472.40 146.52 465.14 144.15 458.35 140.69 C 450.08 136.49 442.18 131.60 434.65 126.20 C 437.45 122.37 439.45 117.98 440.08 113.25 C 442.46 116.10 445.34 118.77 449.13 119.45 C 460.19 121.99 471.62 123.10 482.96 122.97 C 488.70 122.58 495.72 122.42 499.58 117.47 C 503.79 108.10 496.44 98.12 499.81 88.64 C 500.19 87.24 501.78 87.08 503.01 87.09 C 506.82 88.07 509.38 91.45 511.34 94.65 C 514.51 100.24 516.85 106.26 518.94 112.32 C 519.94 107.33 521.09 102.21 523.84 97.85 Z" />
		<path fill="#f0b58b" opacity="1.00"
			d=" M 197.28 171.94 C 203.31 174.43 207.28 179.80 211.19 184.76 C 214.98 189.71 218.78 194.68 222.15 199.93 C 223.47 201.88 223.32 204.31 223.59 206.55 C 219.69 207.30 214.85 206.80 212.26 210.45 C 220.87 210.10 229.49 210.05 238.03 211.36 C 234.16 217.39 230.58 223.88 229.59 231.08 C 229.95 231.50 230.67 232.35 231.03 232.77 C 237.52 221.87 242.91 210.02 252.24 201.13 C 256.43 210.79 263.33 218.93 270.52 226.49 C 276.26 232.51 282.34 238.25 289.24 242.94 C 276.27 250.69 262.67 257.25 249.28 264.20 C 243.12 267.22 236.24 269.96 229.26 268.82 C 224.39 268.05 221.83 263.45 219.11 259.88 C 210.92 248.06 204.74 235.00 197.52 222.60 C 196.84 220.99 195.43 220.20 193.71 220.31 C 195.03 226.52 197.76 232.30 200.55 237.97 C 194.65 235.50 189.22 231.90 184.89 227.15 C 182.97 224.79 179.88 224.34 177.10 223.66 C 173.56 222.96 170.43 219.77 170.71 216.00 C 170.59 212.50 173.73 210.19 174.66 207.07 C 173.80 204.08 172.31 201.09 173.01 197.90 C 173.44 193.83 175.70 190.28 178.49 187.40 C 180.35 185.51 179.35 182.19 181.43 180.45 C 185.21 177.51 190.28 177.77 194.68 176.49 C 195.94 175.26 196.35 173.41 197.28 171.94 Z" />
		<path fill="#f0b58b" opacity="1.00"
			d=" M 509.04 319.63 C 520.69 318.23 532.25 315.92 543.58 312.84 C 543.42 324.00 543.51 335.31 541.07 346.26 C 539.04 352.30 536.04 358.62 530.67 362.36 C 521.73 358.76 512.60 355.14 505.01 349.03 C 501.33 346.01 499.61 341.42 497.87 337.14 C 494.84 329.54 492.42 321.70 490.76 313.68 C 496.49 316.47 502.34 320.56 509.04 319.63 Z" />
		<path fill="#f0b58b" opacity="1.00"
			d=" M 567.76 580.77 C 575.29 572.23 581.40 562.49 589.56 554.50 C 591.19 569.13 595.15 583.40 599.86 597.30 C 602.07 604.10 605.42 610.73 605.38 618.03 C 604.69 625.40 611.41 630.02 614.27 636.11 C 599.95 632.95 584.97 635.12 571.12 639.44 C 563.34 642.09 555.41 645.54 549.91 651.88 C 546.86 642.26 546.03 632.03 542.54 622.57 C 542.13 622.41 541.31 622.10 540.90 621.95 C 539.93 623.94 540.71 626.20 540.74 628.31 C 533.58 619.46 525.01 611.91 516.76 604.11 C 528.35 601.93 539.72 598.38 550.36 593.24 C 556.82 590.14 563.01 586.20 567.76 580.77 Z" />
		<path fill="#f0b58b" opacity="1.00"
			d=" M 471.02 639.76 C 480.49 637.23 490.37 636.67 500.14 636.90 C 507.58 656.89 511.67 677.97 519.34 697.89 C 507.00 697.64 494.74 700.00 483.06 703.86 C 475.79 706.36 468.45 709.26 462.51 714.27 C 457.89 698.30 450.80 683.12 442.00 669.04 C 438.16 662.77 434.14 656.57 429.30 651.03 C 443.18 647.19 456.87 642.58 471.02 639.76 Z" />
	</g>
	<g id="#f11b27ff">
		<path fill="var(--shirt-color, grey)" opacity="1.00"
			d=" M 401.28 125.16 C 407.71 123.33 414.26 121.59 420.98 121.44 C 424.53 122.69 426.96 125.83 429.92 128.03 C 442.06 137.55 455.50 145.62 470.11 150.73 C 476.78 153.04 483.32 155.74 490.11 157.71 C 492.17 158.46 494.75 158.83 495.79 161.05 C 499.43 166.92 504.08 172.07 508.81 177.07 C 491.99 172.86 474.63 171.07 458.07 165.84 C 455.91 165.22 453.68 164.90 451.47 164.62 C 455.28 169.35 461.59 170.37 467.03 172.21 C 485.96 178.03 505.53 181.21 524.87 185.33 C 530.34 186.45 536.41 188.58 538.90 194.06 C 546.67 209.47 546.79 227.36 545.22 244.17 C 544.21 257.75 541.45 271.55 544.48 285.07 C 546.12 292.17 548.42 299.09 550.44 306.10 C 539.30 309.25 527.89 311.24 516.52 313.38 C 511.40 314.19 505.87 315.58 500.99 313.03 C 494.05 309.71 486.75 306.38 481.27 300.87 C 481.65 297.16 482.97 293.61 483.32 289.89 C 484.42 280.32 484.18 270.65 485.09 261.07 C 485.42 256.67 486.07 252.28 485.97 247.87 C 486.00 246.42 484.67 245.44 484.07 244.25 C 481.46 249.11 481.28 254.71 480.59 260.06 C 479.47 269.52 478.99 279.04 478.54 288.56 C 477.03 277.39 475.52 266.21 473.51 255.11 C 473.16 252.77 472.10 250.63 470.91 248.61 C 469.78 253.42 471.03 258.28 471.60 263.07 C 473.31 275.02 474.68 287.02 475.94 299.03 C 476.15 304.91 481.90 307.81 486.05 310.87 C 487.46 318.13 489.12 325.38 491.74 332.31 C 494.11 338.60 496.11 345.21 495.97 352.00 C 495.93 363.44 495.15 374.87 494.34 386.28 C 477.48 385.36 460.70 383.16 444.08 380.16 C 438.73 379.29 433.48 377.55 428.00 377.82 C 431.07 381.29 435.86 381.78 440.08 382.90 C 456.50 386.48 473.15 389.28 489.96 390.15 C 496.32 390.49 502.67 391.14 509.04 391.48 C 511.71 391.69 514.51 391.80 516.95 393.04 C 519.63 394.45 520.94 397.38 521.86 400.12 C 524.04 407.04 525.74 414.16 526.05 421.44 C 516.67 421.14 507.36 422.55 498.00 422.71 C 494.27 422.82 490.54 422.60 486.83 422.92 C 490.30 426.32 495.53 425.87 500.00 426.20 C 509.54 426.72 519.20 424.59 528.64 426.50 C 536.72 428.38 541.61 435.60 545.25 442.47 C 534.80 442.30 524.66 445.14 514.50 447.18 C 497.22 450.92 480.05 455.17 462.99 459.79 C 445.03 464.93 427.50 471.72 409.07 475.12 C 395.42 477.32 381.66 474.55 368.17 472.49 C 359.36 471.20 350.69 469.19 342.04 467.15 C 339.96 461.96 338.78 456.49 337.86 451.00 C 337.19 443.71 328.63 441.07 326.96 434.14 C 325.01 425.70 327.53 417.02 327.35 408.47 C 333.25 415.68 340.96 421.01 348.16 426.81 C 349.85 428.27 351.94 429.09 354.04 429.82 C 352.50 427.76 350.79 425.83 348.85 424.14 C 341.78 417.90 334.73 411.57 328.76 404.25 C 327.11 402.09 325.30 399.87 324.59 397.21 C 325.36 387.55 326.81 377.53 323.68 368.12 C 321.43 361.49 318.57 355.08 316.36 348.43 C 312.46 336.52 307.53 324.68 307.02 311.99 C 306.54 301.28 307.58 290.56 308.34 279.88 C 310.84 256.16 316.84 232.88 317.90 208.98 C 318.16 199.68 320.13 190.36 318.87 181.07 C 317.87 182.52 316.94 184.08 316.86 185.89 C 315.98 193.15 315.35 200.45 314.51 207.72 C 313.21 202.18 312.36 196.54 310.68 191.10 C 308.82 194.70 310.10 198.71 310.69 202.46 C 311.99 209.86 313.66 217.42 312.50 224.95 C 311.52 231.93 310.27 238.86 309.04 245.79 C 296.45 243.58 286.17 235.32 277.38 226.53 C 267.68 216.87 258.31 206.32 253.40 193.33 C 258.73 183.71 267.28 176.45 276.18 170.24 C 281.65 166.44 287.66 163.18 292.01 158.01 C 297.91 150.90 302.99 143.07 309.63 136.59 C 315.88 130.84 323.93 127.30 332.18 125.57 C 342.83 123.75 353.69 125.18 364.28 126.70 C 376.56 128.42 389.25 128.44 401.28 125.16 M 370.98 251.99 C 375.10 261.84 379.11 271.77 382.13 282.03 C 383.69 286.87 384.70 291.95 387.30 296.40 C 389.27 292.85 387.61 288.93 386.80 285.32 C 383.74 274.21 380.65 262.99 375.32 252.71 C 373.68 249.78 372.76 246.18 369.90 244.15 C 368.44 246.73 370.17 249.50 370.98 251.99 M 389.56 254.51 C 393.53 264.14 398.89 273.12 403.81 282.29 C 409.29 292.27 414.32 302.49 419.34 312.71 C 426.10 326.61 434.50 339.74 444.76 351.32 C 446.14 353.05 448.23 353.83 450.27 354.49 C 447.12 349.79 443.32 345.56 440.14 340.88 C 428.00 324.02 420.54 304.47 410.50 286.40 C 403.30 273.71 396.31 260.90 388.74 248.42 C 388.72 250.47 388.67 252.59 389.56 254.51 Z" />
	</g>
	<g id="#ffffffff">
		<path fill="var(--pants-color, grey)" opacity="1.00"
			d=" M 463.91 464.88 C 489.19 458.07 514.58 451.46 540.32 446.63 C 544.71 449.42 549.19 452.40 552.32 456.65 C 554.91 460.09 554.81 464.62 556.56 468.44 C 558.68 473.33 562.51 477.15 565.78 481.26 C 571.36 487.76 575.37 495.45 578.43 503.41 C 581.13 510.33 580.31 518.24 583.98 524.84 C 587.50 531.34 591.34 537.70 594.14 544.56 C 591.32 547.32 587.87 549.29 584.91 551.87 C 575.48 560.64 569.79 572.63 560.39 581.41 C 551.76 588.83 540.69 592.42 530.06 595.91 C 522.06 598.12 513.99 600.38 505.71 601.21 C 501.68 585.44 493.72 571.08 486.03 556.86 C 480.94 547.76 476.03 538.52 470.11 529.92 C 468.70 527.75 466.78 525.96 464.53 524.69 C 464.97 526.11 465.36 527.58 466.09 528.91 C 475.50 544.80 484.03 561.20 492.20 577.75 C 496.69 587.17 501.58 596.57 503.63 606.90 C 505.49 616.26 507.31 625.66 508.25 635.17 C 498.35 632.55 487.92 633.18 477.84 634.27 C 451.69 638.86 426.63 647.87 401.03 654.72 C 400.41 649.41 400.25 644.03 399.22 638.78 C 395.09 621.73 387.09 605.92 378.35 590.82 C 373.48 581.96 367.74 573.56 363.77 564.23 C 359.55 554.32 355.43 544.20 353.87 533.47 C 351.81 517.80 352.60 501.60 347.49 486.45 C 345.60 481.44 343.57 476.46 342.63 471.16 C 349.57 473.70 356.86 475.08 364.10 476.43 C 375.68 478.35 387.28 480.60 399.06 480.78 C 406.56 480.88 413.94 479.33 421.19 477.55 C 435.64 474.07 449.64 469.01 463.91 464.88 Z" />
		<path fill="var(--socks-color, grey)" opacity="1.00"
			d=" M 577.08 642.47 C 590.07 639.34 603.89 637.99 616.97 641.37 C 631.00 670.31 642.05 700.62 650.67 731.59 C 655.16 746.87 659.78 762.11 663.77 777.52 C 667.36 789.97 670.09 802.75 675.50 814.59 C 678.30 820.17 682.11 825.14 685.53 830.35 C 683.14 831.25 680.75 832.96 678.09 832.27 C 669.98 830.70 662.43 826.30 654.01 826.51 C 652.27 826.34 650.06 826.93 648.88 825.25 C 645.39 821.50 643.15 816.83 640.41 812.56 C 636.38 806.34 633.99 799.23 629.87 793.07 C 617.05 772.73 600.30 755.32 585.66 736.33 C 579.57 729.00 575.16 720.50 571.17 711.90 C 562.51 693.75 556.18 674.60 550.90 655.23 C 558.10 648.40 567.63 644.88 577.08 642.47 Z" />
		<path fill="var(--socks-color, grey)" opacity="1.00"
			d=" M 492.03 706.21 C 501.81 703.77 511.87 702.00 521.99 702.54 C 526.93 710.35 532.60 717.68 537.73 725.37 C 543.72 734.81 548.11 745.13 552.51 755.37 C 558.35 768.43 562.00 782.29 566.45 795.85 C 569.41 805.19 571.85 814.67 573.88 824.25 C 578.07 839.31 582.82 854.45 591.10 867.83 C 596.71 877.73 605.16 885.73 610.32 895.90 C 597.80 893.62 586.78 885.90 574.01 884.64 C 568.20 883.98 563.09 887.13 558.26 889.84 C 556.65 884.89 555.30 879.83 553.01 875.14 C 546.46 861.96 536.63 850.86 527.78 839.22 C 519.78 828.62 510.05 819.44 502.35 808.60 C 491.85 794.08 482.93 778.35 476.48 761.61 C 470.94 747.40 467.15 732.61 463.49 717.83 C 472.15 712.14 482.05 708.75 492.03 706.21 Z" />
	</g>
	<g id="#4d4d4dff">
		<path fill="#4d4d4d" opacity="1.00"
			d=" M 649.01 831.08 C 653.16 831.17 657.40 831.08 661.42 832.32 C 667.24 833.95 672.90 836.73 679.06 836.74 C 682.56 836.70 685.22 834.13 687.99 832.33 C 706.23 845.24 726.37 855.54 743.36 870.19 C 734.41 868.15 725.18 867.56 716.02 867.95 C 710.34 868.20 704.51 867.92 699.17 865.82 C 687.27 861.63 677.69 852.05 664.92 850.21 C 659.77 849.21 654.48 850.14 649.89 852.59 C 650.08 845.41 649.92 838.21 649.01 831.08 Z" />
		<path fill="#4d4d4d" opacity="1.00"
			d=" M 654.82 855.60 C 661.51 853.32 668.81 855.21 674.98 858.18 C 682.87 862.23 690.04 867.74 698.60 870.44 C 706.11 873.15 714.19 872.07 721.99 872.07 C 731.25 872.17 740.96 872.57 749.20 877.30 C 745.12 887.02 734.98 892.41 725.14 894.56 C 718.13 896.04 711.27 893.15 705.32 889.71 C 696.14 884.33 685.75 880.64 675.03 880.47 C 669.12 880.27 662.74 879.96 657.79 876.29 C 652.97 873.20 650.71 867.42 650.15 861.94 C 649.63 858.91 652.17 856.46 654.82 855.60 Z" />
		<path fill="#4d4d4d" opacity="1.00"
			d=" M 559.19 893.80 C 563.07 889.91 568.30 886.92 573.99 888.11 C 585.41 890.10 595.47 896.52 606.62 899.48 C 608.65 899.83 610.73 899.55 612.78 899.44 C 620.15 910.22 631.13 918.23 637.00 930.07 C 642.47 940.87 644.41 952.99 646.23 964.84 C 643.22 960.80 639.17 957.79 635.03 955.02 C 624.22 946.99 612.80 939.30 604.53 928.48 C 598.65 920.78 593.69 912.01 585.61 906.35 C 581.22 903.36 576.29 900.97 571.03 900.04 C 566.69 899.23 562.43 900.76 558.49 902.39 C 558.75 899.52 558.99 896.66 559.19 893.80 Z" />
		<path fill="#4d4d4d" opacity="1.00"
			d=" M 564.39 904.56 C 571.31 903.20 578.11 906.47 583.62 910.39 C 591.35 916.42 596.15 925.18 602.25 932.69 C 610.05 942.32 620.24 949.55 630.16 956.81 C 635.30 960.58 641.68 963.68 644.08 970.03 C 646.02 975.71 644.65 983.01 639.58 986.66 C 636.24 989.05 631.91 988.89 628.00 988.89 C 619.28 988.88 611.16 983.88 606.08 976.99 C 598.10 966.44 593.92 953.58 585.94 943.02 C 581.55 936.50 575.88 930.97 569.56 926.33 C 563.91 922.19 558.62 916.37 558.14 909.05 C 557.89 905.87 562.04 905.24 564.39 904.56 Z" />
	</g>
</svg>