<?xml version="1.0" encoding="UTF-8" ?>
<!DOCTYPE svg PUBLIC "-//W3C//DTD SVG 1.1//EN" "http://www.w3.org/Graphics/SVG/1.1/DTD/svg11.dtd">
<svg width="1000pt" height="1000pt" viewBox="0 0 1000 1000" version="1.1" xmlns="http://www.w3.org/2000/svg">
<g id="#020202ff">
<path fill="#020202" opacity="1.00" d=" M 549.81 24.09 C 550.08 21.27 549.43 18.16 550.93 15.60 C 553.50 15.51 555.49 17.37 557.67 18.45 C 567.90 24.00 580.54 21.34 590.56 27.44 C 595.31 30.40 597.42 35.92 601.44 39.61 C 606.73 42.26 612.54 44.01 617.30 47.69 C 623.38 51.83 626.25 58.86 630.27 64.75 C 632.07 67.53 634.45 69.87 636.31 72.62 C 637.24 73.86 636.55 75.83 635.00 76.15 C 632.51 76.50 630.01 76.01 627.55 75.79 C 634.35 86.29 636.71 99.80 632.77 111.80 C 629.34 122.58 622.00 131.42 615.28 140.30 C 610.11 147.02 609.56 155.93 605.06 163.00 C 600.33 170.41 593.75 176.69 585.93 180.77 C 586.36 184.68 586.97 188.57 587.65 192.45 C 590.42 194.68 593.21 196.90 595.94 199.18 C 604.90 206.56 610.74 216.97 619.74 224.31 C 627.28 230.90 636.59 235.20 643.65 242.36 C 648.82 247.61 651.43 254.71 653.21 261.71 C 655.40 270.66 656.57 279.81 657.55 288.96 C 660.73 313.14 661.18 337.64 659.58 361.96 C 659.40 367.94 658.43 373.92 658.88 379.91 C 662.92 416.65 655.63 453.29 654.82 489.99 C 654.23 505.70 651.85 521.29 651.61 537.02 C 651.25 545.04 652.64 553.35 650.01 561.11 C 649.39 563.25 647.26 564.30 645.66 565.62 C 650.58 578.48 649.64 592.67 647.33 605.99 C 644.89 618.90 641.77 631.77 641.12 644.95 C 640.24 657.30 642.17 669.64 641.75 682.00 C 641.48 691.71 641.62 702.39 635.47 710.51 C 627.96 714.13 619.25 712.25 611.23 712.34 C 612.25 731.15 626.55 745.41 630.19 763.46 C 634.16 782.48 631.83 802.10 628.53 821.04 C 622.84 853.72 610.87 884.77 600.29 916.07 C 606.73 925.05 608.34 936.23 609.62 946.92 C 609.93 952.12 610.57 957.48 609.38 962.61 C 607.97 967.05 602.43 966.41 598.73 966.80 C 585.81 966.91 572.91 967.11 560.00 967.18 C 549.67 966.99 539.35 966.50 529.02 966.52 C 518.67 966.09 508.31 967.34 497.97 966.47 C 491.07 965.95 483.25 966.16 478.02 960.85 C 470.03 961.18 462.03 961.52 454.04 961.78 C 441.70 962.17 429.39 963.83 417.02 963.23 C 407.95 962.79 398.78 962.22 389.97 959.88 C 385.79 958.80 381.38 956.56 379.73 952.32 C 378.33 949.01 379.51 945.25 381.61 942.54 C 384.82 938.36 389.28 935.38 393.78 932.75 C 408.45 924.24 424.73 919.17 440.03 911.98 C 447.13 908.54 454.69 905.79 461.04 900.99 C 463.89 898.94 465.72 895.88 467.35 892.84 C 465.86 888.05 464.90 883.10 464.73 878.09 C 463.46 852.08 463.27 826.03 464.04 800.01 C 464.32 789.02 464.30 777.97 466.08 767.10 C 466.94 759.71 468.57 752.20 467.12 744.78 C 464.47 731.64 460.60 718.22 462.60 704.72 C 457.80 703.94 452.87 703.40 448.36 701.48 C 445.93 700.47 446.59 697.21 446.22 695.11 C 446.15 679.88 446.08 664.59 444.28 649.44 C 443.23 639.86 441.28 630.40 440.46 620.80 C 440.49 628.15 440.12 636.33 435.29 642.31 C 432.75 645.68 427.67 644.66 424.98 642.04 C 413.30 630.84 408.83 614.81 404.33 599.80 C 400.37 586.25 397.41 572.23 397.83 558.04 C 397.97 546.90 401.81 536.18 401.80 525.04 C 401.58 517.12 401.43 509.07 403.57 501.37 C 405.25 494.89 409.58 489.02 415.74 486.19 C 416.28 477.78 416.57 469.36 417.14 460.95 C 417.85 450.32 417.25 439.68 417.16 429.04 C 417.00 416.72 415.94 404.31 417.70 392.05 C 418.82 382.87 423.71 374.80 426.12 365.97 C 431.51 347.42 435.36 328.31 436.13 308.97 C 436.37 304.51 436.62 300.01 437.79 295.67 C 439.38 289.22 442.80 283.24 443.28 276.52 C 443.82 270.01 444.44 263.37 447.18 257.36 C 449.82 251.86 452.36 246.11 456.84 241.81 C 472.39 226.30 492.99 217.63 510.36 204.55 C 500.95 203.64 493.51 196.87 488.91 189.03 C 482.85 178.73 475.76 168.66 472.69 156.97 C 471.34 145.06 478.14 133.45 475.27 121.55 C 471.75 114.68 468.00 107.64 467.18 99.83 C 466.04 86.84 467.42 72.93 474.83 61.83 C 477.06 58.07 480.95 55.50 482.59 51.37 C 485.81 44.20 493.92 41.48 500.71 38.81 C 506.33 37.25 508.86 31.32 513.93 28.84 C 524.89 22.77 537.81 24.54 549.81 24.09 M 480.17 100.39 C 479.00 103.45 477.54 106.59 477.76 109.95 C 478.00 115.28 479.73 120.38 480.42 125.65 C 485.88 125.77 491.44 125.12 496.82 126.15 C 499.80 129.42 499.26 134.50 498.21 138.50 C 497.20 141.67 496.65 145.33 494.07 147.67 L 492.82 147.02 C 492.40 143.91 493.75 140.87 494.28 137.84 C 489.49 137.40 484.70 136.94 479.92 136.51 C 478.94 142.35 477.46 148.14 477.25 154.08 C 477.71 159.76 480.89 164.71 483.33 169.72 C 493.22 169.37 503.12 169.61 513.02 169.78 C 514.96 169.88 517.75 169.66 518.37 172.07 C 517.65 173.13 516.60 173.88 515.64 174.69 C 514.37 176.42 512.92 178.20 510.72 178.71 C 503.67 180.73 496.21 179.74 488.99 179.53 C 493.51 187.32 498.43 196.71 507.98 198.93 C 514.67 200.89 520.82 196.93 527.03 195.14 C 531.98 193.67 536.66 191.46 541.58 189.87 C 540.08 193.65 536.04 195.02 532.67 196.57 C 528.08 198.49 523.70 200.84 519.24 203.02 C 521.05 216.98 518.88 231.05 518.34 245.03 C 518.48 246.40 518.12 248.74 519.94 249.13 C 523.39 249.37 526.67 247.93 529.87 246.83 C 539.26 243.19 548.62 238.92 556.35 232.35 C 561.92 227.58 566.89 222.12 571.21 216.19 C 575.30 210.52 579.83 205.08 582.99 198.80 C 584.90 195.34 582.63 191.70 582.00 188.23 C 580.23 179.51 578.52 170.49 580.32 161.63 C 580.92 159.31 580.49 156.33 582.67 154.78 C 588.13 150.33 592.85 144.30 593.80 137.12 C 594.40 132.99 594.19 128.11 591.07 124.97 C 588.69 122.80 585.12 124.08 582.89 125.82 C 578.18 129.24 575.87 134.84 571.70 138.77 C 569.57 140.84 566.42 140.80 563.79 141.79 C 561.61 145.38 561.48 149.81 559.43 153.45 C 558.16 154.36 556.13 153.58 556.33 151.88 C 556.15 145.01 560.81 138.83 559.61 131.87 C 558.43 123.48 554.11 114.87 546.51 110.62 C 546.18 113.23 547.72 116.77 545.10 118.53 C 541.07 117.58 538.65 113.71 535.44 111.33 C 535.17 113.59 535.88 116.36 534.09 118.14 C 531.51 119.45 528.64 117.72 525.96 117.61 C 518.98 116.93 511.30 117.01 505.46 112.51 C 501.22 108.91 498.57 103.79 494.13 100.36 C 494.18 104.57 495.08 108.81 494.40 113.01 C 494.10 113.35 493.48 114.03 493.17 114.37 C 490.19 114.94 489.89 110.99 489.02 109.03 C 488.09 104.60 484.22 101.79 480.17 100.39 M 589.48 198.65 C 586.35 204.60 582.88 210.40 578.59 215.59 C 570.97 226.45 561.96 236.68 550.44 243.50 C 543.03 247.87 535.12 251.44 526.90 253.98 C 523.10 254.99 518.33 255.87 515.16 252.92 C 512.00 249.89 512.37 245.09 512.63 241.09 C 513.68 229.70 514.42 218.28 515.26 206.86 C 512.02 210.15 508.51 213.17 504.65 215.71 C 492.07 224.17 478.77 231.57 466.60 240.65 C 461.15 244.53 457.07 249.99 453.50 255.57 C 449.38 262.09 448.71 269.97 448.23 277.47 C 447.83 285.04 443.54 291.57 442.09 298.89 C 441.20 303.19 441.23 307.61 440.99 311.98 C 440.39 329.96 436.97 347.75 432.15 365.05 C 430.23 372.11 427.17 378.77 424.73 385.65 C 423.86 388.85 422.30 392.52 424.26 395.63 C 426.10 398.88 428.21 402.74 432.00 403.93 C 436.94 403.87 439.20 398.75 441.18 395.05 C 443.40 400.65 438.76 407.51 433.00 408.33 C 427.84 408.59 424.86 403.71 422.38 399.96 C 422.30 404.24 422.30 408.52 422.44 412.80 C 430.04 413.87 435.41 419.88 440.05 425.46 C 438.44 425.68 436.74 425.76 435.48 424.57 C 431.51 421.57 427.49 418.50 422.67 416.98 C 422.94 439.91 423.69 463.12 419.02 485.71 C 424.16 486.07 429.31 486.61 434.33 487.79 C 436.46 488.24 438.02 489.86 439.64 491.20 C 440.23 488.61 440.90 486.05 441.63 483.50 C 447.42 463.69 448.43 442.95 450.78 422.55 C 453.11 404.73 457.41 387.07 457.28 369.00 C 457.46 355.89 454.12 342.97 448.95 331.00 C 446.35 325.09 445.43 318.44 446.54 312.07 C 446.65 310.41 448.17 309.60 449.42 308.83 C 449.50 312.46 449.30 316.14 450.17 319.70 C 451.82 326.84 455.83 333.12 457.86 340.13 C 456.77 327.19 457.36 314.01 460.47 301.38 C 461.62 297.60 462.35 293.47 465.02 290.41 C 465.38 290.79 466.10 291.55 466.46 291.92 C 465.47 300.14 463.79 308.29 462.80 316.52 C 460.82 329.91 461.86 343.47 461.93 356.94 C 464.05 375.07 461.02 393.22 457.89 411.05 C 453.78 435.52 453.85 460.77 446.37 484.62 C 443.69 493.05 441.52 501.68 440.79 510.52 C 439.86 522.46 439.21 534.54 440.97 546.44 C 458.29 552.11 476.77 555.22 494.99 553.01 C 511.58 550.85 528.28 549.55 545.02 549.18 C 555.67 548.91 564.27 541.57 570.67 533.72 C 575.86 526.91 578.78 518.79 581.79 510.88 C 583.37 507.20 584.54 502.65 588.67 501.03 C 586.27 493.94 586.47 486.37 586.60 478.99 C 587.22 463.77 588.99 448.61 590.83 433.50 C 584.72 450.60 570.03 462.51 555.74 472.76 C 550.98 475.56 546.69 479.69 541.04 480.51 C 545.11 476.00 550.54 473.07 555.07 469.07 C 568.17 458.17 582.16 446.48 587.81 429.78 C 591.23 418.35 592.99 406.50 595.28 394.80 C 588.58 402.88 580.88 410.26 572.20 416.19 C 562.64 422.64 550.46 423.71 539.40 421.31 C 538.56 420.89 537.85 420.28 537.30 419.49 C 544.54 419.40 551.97 420.31 559.00 418.03 C 571.91 414.13 581.26 403.71 590.30 394.29 C 592.61 391.01 597.26 387.32 595.20 382.92 C 591.41 373.99 589.90 364.32 588.66 354.77 C 586.90 340.37 586.46 325.48 590.48 311.41 C 590.77 309.85 592.01 308.84 593.31 308.07 C 590.69 332.48 591.64 357.53 598.14 381.29 C 599.12 373.90 599.46 366.43 600.54 359.05 C 602.04 347.68 604.59 336.44 605.18 324.97 C 605.39 321.87 605.29 318.62 606.84 315.82 C 607.75 318.45 608.21 321.22 608.17 324.02 C 608.10 334.89 607.05 345.72 605.74 356.51 C 604.28 368.47 604.43 380.68 601.23 392.37 C 598.70 401.32 597.18 410.50 595.60 419.64 C 599.00 413.53 602.25 407.30 604.66 400.72 C 606.43 395.94 607.11 390.86 608.76 386.05 C 609.44 387.22 610.42 388.43 610.14 389.91 C 609.39 399.27 607.67 408.74 603.12 417.07 C 601.07 421.40 597.62 425.13 596.80 429.99 C 594.90 439.21 594.78 448.66 593.65 457.98 C 592.42 472.38 590.55 487.06 593.30 501.39 C 598.67 501.80 604.10 502.20 609.28 503.82 C 616.19 505.87 622.40 509.67 628.21 513.87 C 630.36 508.80 631.06 503.32 632.24 497.98 C 635.03 486.06 636.84 473.94 639.10 461.91 C 641.65 447.61 643.22 433.12 646.79 419.01 C 651.70 400.05 654.35 380.55 655.22 361.00 C 656.95 338.00 655.91 314.87 652.97 292.01 C 651.40 278.79 650.31 265.17 645.20 252.74 C 640.82 242.70 630.07 238.42 621.89 232.15 C 613.75 226.39 607.37 218.61 601.28 210.80 C 597.81 206.32 593.58 202.53 589.48 198.65 M 656.63 393.63 C 654.81 409.02 649.92 423.79 647.55 439.07 C 644.11 461.33 640.46 483.58 635.44 505.55 C 634.79 509.40 633.56 513.15 631.47 516.47 C 632.58 518.45 633.69 520.55 633.72 522.90 C 634.36 535.27 628.72 546.62 625.22 558.18 C 631.91 558.72 638.47 560.35 645.18 560.79 C 648.33 552.53 646.49 543.63 646.96 535.05 C 647.10 522.97 648.72 510.98 649.66 498.96 C 650.65 487.95 650.60 476.89 651.63 465.88 C 653.77 441.84 656.68 417.81 656.63 393.63 M 410.13 497.19 C 405.90 505.77 406.41 515.65 406.55 524.95 C 406.78 534.77 403.78 544.25 402.95 553.97 C 401.31 571.75 405.61 589.31 410.71 606.20 C 412.98 614.83 416.94 622.90 421.47 630.55 C 423.38 633.55 425.25 636.73 428.11 638.95 C 429.34 639.98 431.75 640.44 432.39 638.52 C 436.19 631.72 436.18 623.43 434.86 615.94 C 432.36 601.62 430.07 586.99 432.03 572.45 C 428.57 578.51 425.57 584.86 421.60 590.62 C 420.30 592.57 418.00 594.86 415.48 593.51 C 413.07 591.79 412.61 588.56 412.06 585.87 C 410.89 577.31 411.74 568.36 415.06 560.35 C 417.79 563.69 416.44 568.11 416.21 572.01 C 415.39 577.77 415.67 583.66 417.13 589.30 C 422.57 581.71 426.54 573.21 430.85 564.96 C 433.32 560.33 435.22 555.32 435.55 550.04 C 436.40 535.51 434.84 520.96 435.67 506.44 C 435.68 501.94 436.79 497.19 435.19 492.86 C 430.41 490.82 425.08 490.35 419.94 490.13 C 415.45 489.88 412.11 493.59 410.13 497.19 M 588.28 505.56 C 584.30 520.09 579.92 535.82 567.77 545.78 C 557.41 555.17 546.13 563.46 535.24 572.23 C 531.47 575.42 527.41 578.53 524.88 582.86 C 522.33 587.33 522.30 593.96 526.79 597.23 C 531.36 600.48 537.31 598.28 541.60 595.65 C 549.80 590.36 556.42 583.05 564.15 577.17 C 565.47 576.15 567.11 575.78 568.66 575.25 C 567.08 580.63 562.59 584.33 560.22 589.29 C 554.74 600.32 549.10 611.29 544.85 622.87 C 542.76 628.47 539.91 633.99 539.68 640.07 C 539.53 642.95 541.00 646.29 544.02 647.07 C 548.91 647.22 553.73 644.56 556.41 640.48 C 563.51 630.53 570.83 620.72 577.24 610.30 C 578.39 608.29 580.07 606.66 582.12 605.57 C 581.51 609.05 580.25 612.38 578.50 615.45 C 574.06 623.45 568.51 630.76 563.31 638.27 C 560.73 642.13 557.24 645.53 555.75 650.02 C 557.99 654.15 562.83 655.91 567.06 657.27 C 571.31 658.74 574.93 655.40 577.96 652.93 C 579.23 645.46 582.95 638.78 585.96 631.92 C 588.26 627.13 590.14 621.92 594.04 618.15 C 594.44 618.54 595.25 619.32 595.65 619.71 C 592.91 630.21 587.25 639.64 583.71 649.85 C 583.35 651.60 582.23 654.55 584.59 655.30 C 589.18 657.67 595.11 656.31 598.57 652.59 C 602.69 648.38 603.12 642.19 604.54 636.77 C 606.68 627.99 607.46 618.74 611.16 610.43 C 613.99 608.72 613.47 612.02 613.37 613.84 C 611.88 625.71 608.53 637.25 606.74 649.06 C 611.34 645.23 613.51 639.50 615.10 633.91 C 619.36 618.35 622.09 602.21 621.26 586.03 C 621.12 578.34 619.88 570.71 619.79 563.02 C 619.66 555.75 623.28 549.25 625.68 542.61 C 628.14 536.28 629.61 529.63 630.45 522.91 C 625.55 516.69 618.59 512.54 611.41 509.48 C 604.10 506.41 596.08 506.09 588.28 505.56 M 437.70 606.47 C 437.22 599.66 436.32 592.86 436.40 586.02 C 436.16 578.16 437.04 570.32 436.71 562.47 C 434.41 577.08 435.55 591.91 437.70 606.47 M 503.72 704.88 C 491.45 707.25 478.86 706.07 466.50 705.20 C 466.06 712.56 467.67 719.81 468.94 727.02 C 470.64 736.36 474.21 745.52 473.40 755.17 C 479.34 757.50 485.86 757.11 492.07 756.45 C 505.10 754.77 518.05 750.61 528.74 742.79 C 528.66 728.04 528.21 713.00 523.31 698.93 C 517.09 701.83 510.38 703.40 503.72 704.88 M 530.82 708.99 C 534.61 724.71 534.08 741.02 534.17 757.07 C 534.24 767.40 535.70 777.71 534.90 788.04 C 533.70 804.50 530.33 820.71 527.31 836.91 C 524.38 851.21 521.84 865.59 519.53 880.00 C 517.57 889.74 516.82 899.74 513.77 909.23 C 515.88 913.06 518.72 916.40 521.51 919.75 C 530.47 913.31 540.41 908.40 549.50 902.16 C 551.77 883.52 552.06 864.73 551.77 845.98 C 551.23 826.62 553.20 807.30 553.12 787.95 C 553.04 779.30 554.08 770.68 554.08 762.04 C 554.10 754.81 550.50 748.36 548.23 741.69 C 546.01 736.09 544.75 730.19 543.67 724.28 C 541.70 717.67 536.74 712.35 530.82 708.99 M 565.80 712.95 C 559.09 713.84 553.62 718.03 547.87 721.22 C 549.94 730.14 553.02 738.77 556.63 747.19 C 564.14 750.98 572.66 751.97 580.97 752.17 C 589.89 752.28 598.94 751.44 607.45 748.63 C 610.56 747.66 613.39 745.94 615.65 743.58 C 610.66 733.86 605.72 723.35 606.90 712.11 C 593.21 711.57 579.40 710.93 565.80 712.95 M 469.49 897.64 C 465.36 906.54 455.89 910.54 447.63 914.65 C 434.71 921.13 421.16 926.15 407.93 931.90 C 400.68 935.37 393.12 938.72 387.20 944.29 C 385.42 946.03 383.16 948.70 384.69 951.29 C 387.01 954.54 391.37 955.04 394.99 955.89 C 407.85 958.06 420.98 958.73 434.01 957.88 C 448.19 956.83 462.42 956.81 476.62 956.16 C 477.77 952.77 479.19 949.35 481.84 946.85 C 492.22 936.53 505.44 929.91 517.75 922.27 C 515.34 919.76 513.14 917.06 511.25 914.15 C 508.82 917.05 506.05 920.40 501.99 920.71 C 495.69 920.98 490.12 917.37 485.31 913.72 C 479.49 908.96 473.33 904.26 469.49 897.64 M 551.26 906.27 C 542.99 912.18 533.75 916.54 525.38 922.29 C 512.16 931.50 496.96 937.94 485.27 949.25 C 483.26 951.31 481.19 953.80 481.18 956.84 C 481.72 959.48 484.71 960.48 487.04 960.96 C 501.93 963.33 517.03 961.46 532.01 962.08 C 545.36 962.09 558.68 963.08 572.03 962.69 C 582.99 962.31 593.98 963.03 604.92 962.00 C 606.17 957.08 607.00 951.93 605.80 946.92 C 604.03 938.83 603.03 930.37 599.09 922.96 C 596.11 917.16 590.53 913.47 585.89 909.13 C 580.41 904.48 574.48 899.33 567.04 898.58 C 560.92 898.77 556.09 903.02 551.26 906.27 Z" />
<path fill="#020202" opacity="1.00" d=" M 508.42 124.86 C 519.31 124.67 530.20 125.04 541.10 125.13 C 542.58 125.30 544.83 124.88 545.27 126.83 C 545.67 130.20 545.64 133.66 545.13 137.02 C 543.52 139.24 540.31 138.21 537.98 138.55 C 527.83 138.30 517.58 139.22 507.52 137.64 C 507.68 133.37 508.02 129.11 508.42 124.86 Z" />
<path fill="#020202" opacity="1.00" d=" M 497.57 154.99 C 501.05 152.95 504.49 150.85 507.94 148.76 C 505.20 153.32 502.08 157.65 498.52 161.61 C 497.90 162.38 496.44 163.53 495.58 162.48 C 493.20 159.67 492.12 155.98 491.25 152.46 C 493.42 153.12 495.52 154.00 497.57 154.99 Z" />
</g>
<g id="#f0b58bff">
<path fill="#f0b58b" opacity="1.00" d=" M 480.17 100.39 C 484.22 101.79 488.09 104.60 489.02 109.03 C 489.89 110.99 490.19 114.94 493.17 114.37 C 493.48 114.03 494.10 113.35 494.40 113.01 C 495.08 108.81 494.18 104.57 494.13 100.36 C 498.57 103.79 501.22 108.91 505.46 112.51 C 511.30 117.01 518.98 116.93 525.96 117.61 C 528.64 117.72 531.51 119.45 534.09 118.14 C 535.88 116.36 535.17 113.59 535.44 111.33 C 538.65 113.71 541.07 117.58 545.10 118.53 C 547.72 116.77 546.18 113.23 546.51 110.62 C 554.11 114.87 558.43 123.48 559.61 131.87 C 560.81 138.83 556.15 145.01 556.33 151.88 C 556.13 153.58 558.16 154.36 559.43 153.45 C 561.48 149.81 561.61 145.38 563.79 141.79 C 566.42 140.80 569.57 140.84 571.70 138.77 C 575.87 134.84 578.18 129.24 582.89 125.82 C 585.12 124.08 588.69 122.80 591.07 124.97 C 594.19 128.11 594.40 132.99 593.80 137.12 C 592.85 144.30 588.13 150.33 582.67 154.78 C 580.49 156.33 580.92 159.31 580.32 161.63 C 578.52 170.49 580.23 179.51 582.00 188.23 C 582.63 191.70 584.90 195.34 582.99 198.80 C 579.83 205.08 575.30 210.52 571.21 216.19 C 566.89 222.12 561.92 227.58 556.35 232.35 C 548.62 238.92 539.26 243.19 529.87 246.83 C 526.67 247.93 523.39 249.37 519.94 249.13 C 518.12 248.74 518.48 246.40 518.34 245.03 C 518.88 231.05 521.05 216.98 519.24 203.02 C 523.70 200.84 528.08 198.49 532.67 196.57 C 536.04 195.02 540.08 193.65 541.58 189.87 C 536.66 191.46 531.98 193.67 527.03 195.14 C 520.82 196.93 514.67 200.89 507.98 198.93 C 498.43 196.71 493.51 187.32 488.99 179.53 C 496.21 179.74 503.67 180.73 510.72 178.71 C 512.92 178.20 514.37 176.42 515.64 174.69 C 516.60 173.88 517.65 173.13 518.37 172.07 C 517.75 169.66 514.96 169.88 513.02 169.78 C 503.12 169.61 493.22 169.37 483.33 169.72 C 480.89 164.71 477.71 159.76 477.25 154.08 C 477.46 148.14 478.94 142.35 479.92 136.51 C 484.70 136.94 489.49 137.40 494.28 137.84 C 493.75 140.87 492.40 143.91 492.82 147.02 L 494.07 147.67 C 496.65 145.33 497.20 141.67 498.21 138.50 C 499.26 134.50 499.80 129.42 496.82 126.15 C 491.44 125.12 485.88 125.77 480.42 125.65 C 479.73 120.38 478.00 115.28 477.76 109.95 C 477.54 106.59 479.00 103.45 480.17 100.39 M 508.42 124.86 C 508.02 129.11 507.68 133.37 507.52 137.64 C 517.58 139.22 527.83 138.30 537.98 138.55 C 540.31 138.21 543.52 139.24 545.13 137.02 C 545.64 133.66 545.67 130.20 545.27 126.83 C 544.83 124.88 542.58 125.30 541.10 125.13 C 530.20 125.04 519.31 124.67 508.42 124.86 M 497.57 154.99 C 495.52 154.00 493.42 153.12 491.25 152.46 C 492.12 155.98 493.20 159.67 495.58 162.48 C 496.44 163.53 497.90 162.38 498.52 161.61 C 502.08 157.65 505.20 153.32 507.94 148.76 C 504.49 150.85 501.05 152.95 497.57 154.99 Z" />
<path fill="#f0b58b" opacity="1.00" d=" M 503.72 704.88 C 510.38 703.40 517.09 701.83 523.31 698.93 C 528.21 713.00 528.66 728.04 528.74 742.79 C 518.05 750.61 505.10 754.77 492.07 756.45 C 485.86 757.11 479.34 757.50 473.40 755.17 C 474.21 745.52 470.64 736.36 468.94 727.02 C 467.67 719.81 466.06 712.56 466.50 705.20 C 478.86 706.07 491.45 707.25 503.72 704.88 Z" />
<path fill="#f0b58b" opacity="1.00" d=" M 565.80 712.95 C 579.40 710.93 593.21 711.57 606.90 712.11 C 605.72 723.35 610.66 733.86 615.65 743.58 C 613.39 745.94 610.56 747.66 607.45 748.63 C 598.94 751.44 589.89 752.28 580.97 752.17 C 572.66 751.97 564.14 750.98 556.63 747.19 C 553.02 738.77 549.94 730.14 547.87 721.22 C 553.62 718.03 559.09 713.84 565.80 712.95 Z" />
</g>
<g id="#f35e11ff">
<path fill="var(--shirt-color, grey)" opacity="1.00" d=" M 589.48 198.65 C 593.58 202.53 597.81 206.32 601.28 210.80 C 607.37 218.61 613.75 226.39 621.89 232.15 C 630.07 238.42 640.82 242.70 645.20 252.74 C 650.31 265.17 651.40 278.79 652.97 292.01 C 655.91 314.87 656.95 338.00 655.22 361.00 C 654.35 380.55 651.70 400.05 646.79 419.01 C 643.22 433.12 641.65 447.61 639.10 461.91 C 636.84 473.94 635.03 486.06 632.24 497.98 C 631.06 503.32 630.36 508.80 628.21 513.87 C 622.40 509.67 616.19 505.87 609.28 503.82 C 604.10 502.20 598.67 501.80 593.30 501.39 C 590.55 487.06 592.42 472.38 593.65 457.98 C 594.78 448.66 594.90 439.21 596.80 429.99 C 597.62 425.13 601.07 421.40 603.12 417.07 C 607.67 408.74 609.39 399.27 610.14 389.91 C 610.42 388.43 609.44 387.22 608.76 386.05 C 607.11 390.86 606.43 395.94 604.66 400.72 C 602.25 407.30 599.00 413.53 595.60 419.64 C 597.18 410.50 598.70 401.32 601.23 392.37 C 604.43 380.68 604.28 368.47 605.74 356.51 C 607.05 345.72 608.10 334.89 608.17 324.02 C 608.21 321.22 607.75 318.45 606.84 315.82 C 605.29 318.62 605.39 321.87 605.18 324.97 C 604.59 336.44 602.04 347.68 600.54 359.05 C 599.46 366.43 599.12 373.90 598.14 381.29 C 591.64 357.53 590.69 332.48 593.31 308.07 C 592.01 308.84 590.77 309.85 590.48 311.41 C 586.46 325.48 586.90 340.37 588.66 354.77 C 589.90 364.32 591.41 373.99 595.20 382.92 C 597.26 387.32 592.61 391.01 590.30 394.29 C 581.26 403.71 571.91 414.13 559.00 418.03 C 551.97 420.31 544.54 419.40 537.30 419.49 C 537.85 420.28 538.56 420.89 539.40 421.31 C 550.46 423.71 562.64 422.64 572.20 416.19 C 580.88 410.26 588.58 402.88 595.28 394.80 C 592.99 406.50 591.23 418.35 587.81 429.78 C 582.16 446.48 568.17 458.17 555.07 469.07 C 550.54 473.07 545.11 476.00 541.04 480.51 C 546.69 479.69 550.98 475.56 555.74 472.76 C 570.03 462.51 584.72 450.60 590.83 433.50 C 588.99 448.61 587.22 463.77 586.60 478.99 C 586.47 486.37 586.27 493.94 588.67 501.03 C 584.54 502.65 583.37 507.20 581.79 510.88 C 578.78 518.79 575.86 526.91 570.67 533.72 C 564.27 541.57 555.67 548.91 545.02 549.18 C 528.28 549.55 511.58 550.85 494.99 553.01 C 476.77 555.22 458.29 552.11 440.97 546.44 C 439.21 534.54 439.86 522.46 440.79 510.52 C 441.52 501.68 443.69 493.05 446.37 484.62 C 453.85 460.77 453.78 435.52 457.89 411.05 C 461.02 393.22 464.05 375.07 461.93 356.94 C 461.86 343.47 460.82 329.91 462.80 316.52 C 463.79 308.29 465.47 300.14 466.46 291.92 C 466.10 291.55 465.38 290.79 465.02 290.41 C 462.35 293.47 461.62 297.60 460.47 301.38 C 457.36 314.01 456.77 327.19 457.86 340.13 C 455.83 333.12 451.82 326.84 450.17 319.70 C 449.30 316.14 449.50 312.46 449.42 308.83 C 448.17 309.60 446.65 310.41 446.54 312.07 C 445.43 318.44 446.35 325.09 448.95 331.00 C 454.12 342.97 457.46 355.89 457.28 369.00 C 457.41 387.07 453.11 404.73 450.78 422.55 C 448.43 442.95 447.42 463.69 441.63 483.50 C 440.90 486.05 440.23 488.61 439.64 491.20 C 438.02 489.86 436.46 488.24 434.33 487.79 C 429.31 486.61 424.16 486.07 419.02 485.71 C 423.69 463.12 422.94 439.91 422.67 416.98 C 427.49 418.50 431.51 421.57 435.48 424.57 C 436.74 425.76 438.44 425.68 440.05 425.46 C 435.41 419.88 430.04 413.87 422.44 412.80 C 422.30 408.52 422.30 404.24 422.38 399.96 C 424.86 403.71 427.84 408.59 433.00 408.33 C 438.76 407.51 443.40 400.65 441.18 395.05 C 439.20 398.75 436.94 403.87 432.00 403.93 C 428.21 402.74 426.10 398.88 424.26 395.63 C 422.30 392.52 423.86 388.85 424.73 385.65 C 427.17 378.77 430.23 372.11 432.15 365.05 C 436.97 347.75 440.39 329.96 440.99 311.98 C 441.23 307.61 441.20 303.19 442.09 298.89 C 443.54 291.57 447.83 285.04 448.23 277.47 C 448.71 269.97 449.38 262.09 453.50 255.57 C 457.07 249.99 461.15 244.53 466.60 240.65 C 478.77 231.57 492.07 224.17 504.65 215.71 C 508.51 213.17 512.02 210.15 515.26 206.86 C 514.42 218.28 513.68 229.70 512.63 241.09 C 512.37 245.09 512.00 249.89 515.16 252.92 C 518.33 255.87 523.10 254.99 526.90 253.98 C 535.12 251.44 543.03 247.87 550.44 243.50 C 561.96 236.68 570.97 226.45 578.59 215.59 C 582.88 210.40 586.35 204.60 589.48 198.65 Z" />
<path fill="var(--shirt-color, grey)" opacity="1.00" d=" M 656.63 393.63 C 656.68 417.81 653.77 441.84 651.63 465.88 C 650.60 476.89 650.65 487.95 649.66 498.96 C 648.72 510.98 647.10 522.97 646.96 535.05 C 646.49 543.63 648.33 552.53 645.18 560.79 C 638.47 560.35 631.91 558.72 625.22 558.18 C 628.72 546.62 634.36 535.27 633.72 522.90 C 633.69 520.55 632.58 518.45 631.47 516.47 C 633.56 513.15 634.79 509.40 635.44 505.55 C 640.46 483.58 644.11 461.33 647.55 439.07 C 649.92 423.79 654.81 409.02 656.63 393.63 Z" />
</g>
<g id="#4d4d4dff">
<path fill="#4d4d4d" opacity="1.00" d=" M 410.13 497.19 C 412.11 493.59 415.45 489.88 419.94 490.13 C 425.08 490.35 430.41 490.82 435.19 492.86 C 436.79 497.19 435.68 501.94 435.67 506.44 C 434.84 520.96 436.40 535.51 435.55 550.04 C 435.22 555.32 433.32 560.33 430.85 564.96 C 426.54 573.21 422.57 581.71 417.13 589.30 C 415.67 583.66 415.39 577.77 416.21 572.01 C 416.44 568.11 417.79 563.69 415.06 560.35 C 411.74 568.36 410.89 577.31 412.06 585.87 C 412.61 588.56 413.07 591.79 415.48 593.51 C 418.00 594.86 420.30 592.57 421.60 590.62 C 425.57 584.86 428.57 578.51 432.03 572.45 C 430.07 586.99 432.36 601.62 434.86 615.94 C 436.18 623.43 436.19 631.72 432.39 638.52 C 431.75 640.44 429.34 639.98 428.11 638.95 C 425.25 636.73 423.38 633.55 421.47 630.55 C 416.94 622.90 412.98 614.83 410.71 606.20 C 405.61 589.31 401.31 571.75 402.95 553.97 C 403.78 544.25 406.78 534.77 406.55 524.95 C 406.41 515.65 405.90 505.77 410.13 497.19 Z" />
<path fill="#4d4d4d" opacity="1.00" d=" M 588.28 505.56 C 596.08 506.09 604.10 506.41 611.41 509.48 C 618.59 512.54 625.55 516.69 630.45 522.91 C 629.61 529.63 628.14 536.28 625.68 542.61 C 623.28 549.25 619.66 555.75 619.79 563.02 C 619.88 570.71 621.12 578.34 621.26 586.03 C 622.09 602.21 619.36 618.35 615.10 633.91 C 613.51 639.50 611.34 645.23 606.74 649.06 C 608.53 637.25 611.88 625.71 613.37 613.84 C 613.47 612.02 613.99 608.72 611.16 610.43 C 607.46 618.74 606.68 627.99 604.54 636.77 C 603.12 642.19 602.69 648.38 598.57 652.59 C 595.11 656.31 589.18 657.67 584.59 655.30 C 582.23 654.55 583.35 651.60 583.71 649.85 C 587.25 639.64 592.91 630.21 595.65 619.71 C 595.25 619.32 594.44 618.54 594.04 618.15 C 590.14 621.92 588.26 627.13 585.96 631.92 C 582.95 638.78 579.23 645.46 577.96 652.93 C 574.93 655.40 571.31 658.74 567.06 657.27 C 562.83 655.91 557.99 654.15 555.75 650.02 C 557.24 645.53 560.73 642.13 563.31 638.27 C 568.51 630.76 574.06 623.45 578.50 615.45 C 580.25 612.38 581.51 609.05 582.12 605.57 C 580.07 606.66 578.39 608.29 577.24 610.30 C 570.83 620.72 563.51 630.53 556.41 640.48 C 553.73 644.56 548.91 647.22 544.02 647.07 C 541.00 646.29 539.53 642.95 539.68 640.07 C 539.91 633.99 542.76 628.47 544.85 622.87 C 549.10 611.29 554.74 600.32 560.22 589.29 C 562.59 584.33 567.08 580.63 568.66 575.25 C 567.11 575.78 565.47 576.15 564.15 577.17 C 556.42 583.05 549.80 590.36 541.60 595.65 C 537.31 598.28 531.36 600.48 526.79 597.23 C 522.30 593.96 522.33 587.33 524.88 582.86 C 527.41 578.53 531.47 575.42 535.24 572.23 C 546.13 563.46 557.41 555.17 567.77 545.78 C 579.92 535.82 584.30 520.09 588.28 505.56 Z" />
<path fill="#4d4d4d" opacity="1.00" d=" M 469.49 897.64 C 473.33 904.26 479.49 908.96 485.31 913.72 C 490.12 917.37 495.69 920.98 501.99 920.71 C 506.05 920.40 508.82 917.05 511.25 914.15 C 513.14 917.06 515.34 919.76 517.75 922.27 C 505.44 929.91 492.22 936.53 481.84 946.85 C 479.19 949.35 477.77 952.77 476.62 956.16 C 462.42 956.81 448.19 956.83 434.01 957.88 C 420.98 958.73 407.85 958.06 394.99 955.89 C 391.37 955.04 387.01 954.54 384.69 951.29 C 383.16 948.70 385.42 946.03 387.20 944.29 C 393.12 938.72 400.68 935.37 407.93 931.90 C 421.16 926.15 434.71 921.13 447.63 914.65 C 455.89 910.54 465.36 906.54 469.49 897.64 Z" />
<path fill="#4d4d4d" opacity="1.00" d=" M 551.26 906.27 C 556.09 903.02 560.92 898.77 567.04 898.58 C 574.48 899.33 580.41 904.48 585.89 909.13 C 590.53 913.47 596.11 917.16 599.09 922.96 C 603.03 930.37 604.03 938.83 605.80 946.92 C 607.00 951.93 606.17 957.08 604.92 962.00 C 593.98 963.03 582.99 962.31 572.03 962.69 C 558.68 963.08 545.36 962.09 532.01 962.08 C 517.03 961.46 501.93 963.33 487.04 960.96 C 484.71 960.48 481.72 959.48 481.18 956.84 C 481.19 953.80 483.26 951.31 485.27 949.25 C 496.96 937.94 512.16 931.50 525.38 922.29 C 533.75 916.54 542.99 912.18 551.26 906.27 Z" />
</g>
</svg>
