<?xml version="1.0" encoding="UTF-8" ?>
<!DOCTYPE svg PUBLIC "-//W3C//DTD SVG 1.1//EN" "http://www.w3.org/Graphics/SVG/1.1/DTD/svg11.dtd">
<svg width="1000pt" height="1000pt" viewBox="0 0 1000 1000" version="1.1" xmlns="http://www.w3.org/2000/svg">
<g id="#020202ff">
<path fill="#020202" opacity="1.00" d=" M 468.05 35.15 C 472.39 35.47 476.57 37.19 480.99 36.77 C 489.82 36.27 499.13 35.83 507.42 39.49 C 512.18 41.55 515.58 45.62 518.51 49.76 C 527.68 50.51 534.46 57.85 538.10 65.76 C 540.23 72.06 542.62 78.32 543.72 84.90 C 546.23 99.57 544.39 114.92 538.53 128.60 C 537.14 132.11 534.90 135.26 533.90 138.93 C 533.08 141.74 532.51 144.63 531.30 147.31 C 529.33 151.76 525.82 155.38 524.13 159.97 C 523.10 168.33 524.00 176.78 523.73 185.17 C 533.95 189.26 542.77 195.99 551.49 202.57 C 564.01 213.03 575.72 224.41 587.99 235.16 C 600.35 246.32 611.48 259.18 618.74 274.28 C 623.13 282.94 625.65 292.36 628.25 301.67 C 631.21 312.30 638.24 321.04 643.14 330.78 C 651.71 345.13 654.08 361.92 657.65 377.96 C 661.22 394.63 665.33 411.20 668.03 428.05 C 668.87 437.52 668.03 447.13 669.82 456.53 C 670.94 462.05 671.21 467.69 670.84 473.30 C 672.09 473.95 673.44 474.51 674.61 475.36 C 675.50 477.77 675.48 480.40 675.73 482.94 C 676.43 493.62 676.77 504.31 677.48 514.98 C 677.87 524.63 679.22 534.30 678.23 543.95 C 677.63 550.12 675.13 555.87 672.22 561.27 C 668.22 569.10 662.37 576.08 654.98 580.92 C 649.71 584.41 644.11 587.38 638.81 590.82 C 635.79 592.70 632.61 594.73 628.96 594.88 C 624.70 595.14 620.57 591.36 620.76 587.04 C 620.63 580.50 625.27 575.31 629.87 571.25 C 628.02 565.63 629.08 559.69 628.48 553.92 C 627.86 546.29 627.91 538.61 626.92 531.01 C 626.27 525.92 626.28 520.50 628.85 515.90 C 631.35 510.49 636.80 505.51 634.99 499.01 C 633.08 491.71 631.46 483.08 636.50 476.63 C 634.18 472.26 632.03 467.82 629.54 463.55 C 625.89 457.26 623.46 450.36 619.87 444.04 C 615.88 436.55 610.67 429.46 608.93 421.00 C 607.31 413.37 607.61 405.52 607.03 397.79 C 603.78 396.58 599.70 395.36 598.60 391.63 C 596.82 384.90 597.51 377.81 597.46 370.92 C 591.80 366.41 586.19 361.75 582.01 355.78 C 579.05 367.62 576.40 379.69 576.76 391.96 C 576.87 397.70 577.73 403.54 576.41 409.20 C 574.23 417.65 570.91 426.06 564.80 432.47 C 568.62 440.84 572.38 449.23 576.57 457.43 C 580.41 467.11 584.46 476.87 586.34 487.16 C 587.28 492.51 586.89 498.21 583.90 502.88 C 592.87 515.76 591.29 532.39 597.41 546.38 C 599.85 555.01 599.80 564.10 599.87 573.00 C 600.01 581.26 602.06 589.30 603.75 597.33 C 605.83 607.24 609.54 616.71 613.61 625.95 C 611.93 627.71 610.20 629.42 608.40 631.06 C 614.98 642.40 617.88 655.41 620.54 668.11 C 622.61 681.75 623.35 695.64 626.87 709.03 C 631.47 724.85 640.50 738.79 647.36 753.65 C 654.83 767.30 658.79 782.46 662.30 797.52 C 669.17 829.26 667.29 861.91 669.74 894.11 C 681.60 901.40 690.67 912.42 697.60 924.35 C 703.54 934.65 709.50 945.32 711.52 957.18 C 712.30 961.40 711.23 966.06 708.27 969.24 C 704.06 973.21 698.59 975.80 692.81 976.36 C 680.10 977.73 667.15 977.00 654.67 974.25 C 648.37 972.94 642.29 967.82 641.85 961.09 C 641.29 957.33 641.38 953.42 640.04 949.82 C 636.25 940.80 632.45 931.67 630.56 922.04 C 629.38 916.51 630.73 910.98 631.56 905.53 C 629.52 894.94 625.45 884.87 622.19 874.62 C 616.91 860.14 609.81 846.44 603.61 832.35 C 596.44 818.15 591.34 803.02 587.19 787.69 C 583.65 776.30 581.30 764.61 578.74 752.98 C 574.58 734.66 564.75 718.46 555.76 702.21 C 545.95 686.49 537.89 669.78 529.90 653.09 C 527.87 649.12 525.84 645.14 524.31 640.95 C 520.92 640.79 517.51 641.07 514.14 640.65 C 512.03 640.28 510.85 638.35 510.31 636.46 C 507.82 629.10 505.31 621.75 502.36 614.57 C 497.80 603.35 493.20 591.89 485.69 582.27 C 482.17 577.65 476.99 574.81 471.79 572.48 C 461.71 582.16 451.21 591.73 443.74 603.69 C 441.28 607.75 439.24 612.21 438.70 616.98 C 438.21 621.13 440.42 624.97 440.45 629.08 C 438.33 631.42 435.08 629.01 432.71 628.28 C 425.23 624.49 417.10 622.34 408.79 621.36 C 403.78 628.49 398.47 635.43 394.16 643.02 C 389.01 652.19 383.57 661.29 380.22 671.31 C 377.65 678.35 376.16 685.72 375.01 693.11 C 370.73 713.70 373.28 734.91 370.73 755.69 C 368.01 772.31 363.14 788.54 357.06 804.24 C 353.00 814.90 349.18 825.75 347.54 837.08 C 344.90 853.93 341.90 870.90 342.60 888.01 C 342.26 894.05 342.28 900.11 343.13 906.11 C 343.87 912.71 345.71 919.27 345.26 925.96 C 344.67 931.15 342.10 936.94 337.00 939.05 C 322.55 942.38 307.61 941.20 292.97 942.84 C 282.99 943.87 272.98 945.04 262.94 944.59 C 257.71 944.19 252.42 942.78 248.00 939.89 C 243.96 937.21 241.56 931.80 243.43 927.12 C 245.31 920.66 251.41 916.95 257.00 914.00 C 265.27 909.84 273.55 905.58 280.90 899.90 C 290.38 893.26 295.67 882.22 305.48 875.94 C 304.05 865.81 304.82 855.58 304.41 845.40 C 303.70 831.28 303.43 817.14 302.95 803.01 C 302.91 781.34 300.97 759.69 302.03 738.02 C 301.82 728.87 302.63 719.75 303.77 710.68 C 305.12 701.43 308.18 692.35 307.70 682.90 C 307.16 673.96 304.49 665.08 305.83 656.09 C 307.58 642.74 313.67 630.50 319.53 618.56 C 322.08 612.89 325.09 607.46 328.06 602.02 C 325.21 601.37 322.39 600.60 319.58 599.83 C 319.31 593.09 321.48 586.61 323.33 580.23 C 326.51 569.63 332.04 559.99 337.34 550.35 C 343.95 538.76 350.70 527.19 358.92 516.64 C 352.51 509.87 350.06 500.53 347.78 491.76 C 347.88 501.88 347.41 512.02 346.74 522.12 C 346.37 528.81 343.99 536.31 337.65 539.60 C 335.09 541.06 332.19 540.08 329.59 539.32 C 327.55 539.82 325.30 540.85 323.29 539.70 C 321.02 538.78 319.97 536.40 318.71 534.49 C 312.82 534.73 308.90 529.53 307.39 524.41 C 305.29 517.16 304.30 509.59 304.32 502.04 C 304.29 492.70 303.93 483.32 304.85 474.01 C 305.47 467.46 308.34 461.35 312.16 456.07 C 316.21 450.49 320.24 444.89 324.19 439.22 C 329.45 431.64 333.79 423.44 339.22 415.97 C 336.45 403.82 338.94 391.11 343.60 379.75 C 345.67 373.94 345.50 367.67 346.95 361.73 C 349.30 352.58 353.78 343.80 360.76 337.32 C 357.57 331.05 357.57 323.87 357.16 317.02 C 356.57 304.99 356.75 292.82 359.20 281.00 C 360.68 273.91 363.99 267.42 366.90 260.85 C 368.88 256.53 368.53 251.66 368.89 247.04 C 369.27 237.64 370.81 227.92 375.76 219.75 C 382.33 209.12 393.54 202.45 404.86 197.86 C 417.69 192.37 431.48 189.76 444.99 186.54 C 441.81 180.85 438.69 175.12 435.85 169.24 C 433.10 163.52 429.98 157.86 428.61 151.61 C 426.64 141.24 427.61 130.64 426.72 120.18 C 420.77 117.71 417.20 111.27 416.94 105.03 C 417.05 97.40 420.49 90.36 424.05 83.78 C 421.90 82.64 419.27 81.57 418.55 78.99 C 418.38 76.19 421.01 74.43 422.56 72.45 C 431.14 62.70 440.75 53.75 451.79 46.85 C 457.02 43.64 462.62 40.97 468.60 39.52 C 468.13 38.10 467.25 36.63 468.05 35.15 M 487.86 102.45 C 480.21 103.29 472.56 104.68 465.28 107.21 C 461.58 108.50 459.00 111.55 455.88 113.74 C 455.61 113.65 455.06 113.47 454.78 113.38 C 452.52 109.31 449.86 105.32 448.84 100.71 C 444.50 101.58 440.21 102.72 436.18 104.57 C 435.52 108.37 435.05 112.26 433.51 115.84 C 432.55 118.13 431.01 120.33 431.26 122.95 C 431.53 133.07 431.06 143.42 433.76 153.28 C 438.39 165.65 445.35 176.96 451.53 188.59 C 455.47 195.02 460.17 202.14 467.90 204.21 C 474.93 206.26 482.13 203.93 489.17 203.46 C 487.58 205.11 485.91 206.86 483.65 207.54 C 476.80 209.73 469.23 209.84 462.47 207.25 C 463.59 211.63 464.64 216.15 467.14 219.99 C 469.95 224.50 474.66 227.91 480.00 228.61 C 487.28 229.62 494.53 226.66 500.19 222.22 C 512.14 212.94 519.00 197.95 519.34 182.94 C 519.62 169.59 518.41 156.15 520.78 142.92 C 518.92 144.57 517.14 146.35 514.95 147.54 C 514.54 147.20 513.72 146.54 513.31 146.21 C 515.08 141.65 516.84 136.95 516.59 131.97 C 516.75 120.18 510.45 109.86 506.95 98.96 C 500.84 101.26 494.27 101.62 487.86 102.45 M 523.31 189.58 C 521.11 207.15 510.09 224.42 493.31 231.20 C 486.44 233.97 478.25 234.09 471.74 230.27 C 463.55 225.49 458.92 215.42 460.31 206.08 C 454.73 202.00 450.60 196.38 447.02 190.55 C 429.93 195.45 411.81 198.05 396.29 207.24 C 386.52 212.62 378.45 221.52 375.57 232.45 C 372.68 240.91 373.74 250.05 371.43 258.61 C 368.57 266.36 365.39 274.05 363.44 282.09 C 360.65 296.72 361.07 311.78 362.62 326.53 C 363.11 334.35 368.53 340.47 371.39 347.47 C 372.17 348.46 371.92 351.73 369.99 350.28 C 366.67 348.05 365.08 344.11 362.92 340.88 C 359.30 345.75 355.43 350.58 353.34 356.36 C 350.94 361.99 350.43 368.13 349.74 374.14 C 349.14 380.18 346.18 385.59 344.84 391.45 C 343.06 398.91 342.17 406.71 343.42 414.33 C 351.56 414.38 360.11 415.87 366.65 421.05 C 375.18 409.56 385.18 399.27 393.71 387.77 C 396.69 383.48 401.17 379.59 401.51 374.04 C 401.80 366.39 401.20 358.73 400.30 351.13 C 393.99 347.94 389.12 342.54 385.34 336.68 C 383.35 333.35 381.07 329.49 382.52 325.49 C 387.24 333.30 392.74 340.67 399.78 346.58 C 398.47 338.28 396.14 330.20 393.68 322.18 C 392.36 318.07 390.90 313.96 390.66 309.61 C 395.01 313.92 396.16 320.17 398.28 325.69 C 402.57 337.64 404.96 350.22 405.45 362.90 C 405.84 376.07 405.89 389.67 401.36 402.23 C 398.79 409.49 398.44 417.23 396.86 424.70 C 391.09 441.06 385.42 457.71 383.97 475.10 C 383.80 477.44 385.10 479.79 387.37 480.58 C 393.87 483.51 400.47 486.21 407.06 488.93 C 423.01 494.62 438.60 501.33 454.77 506.41 C 469.66 511.01 485.59 513.18 501.01 510.07 C 525.23 505.28 550.02 505.97 574.54 504.24 C 579.27 503.92 582.82 499.59 583.21 495.03 C 583.70 488.61 581.49 482.40 579.55 476.38 C 576.87 468.65 574.33 460.82 570.50 453.57 C 567.33 447.52 564.86 441.14 562.44 434.76 C 554.18 441.89 550.50 452.57 548.08 462.86 C 546.43 465.21 545.99 461.27 545.92 460.06 C 546.34 453.53 548.21 447.07 551.31 441.31 C 554.09 435.97 559.03 432.33 562.82 427.77 C 567.14 422.77 569.42 416.42 571.44 410.23 C 572.98 405.66 572.51 400.77 572.19 396.06 C 571.07 383.95 572.99 371.77 576.04 360.07 C 578.67 350.21 579.96 340.08 581.06 329.96 C 582.07 321.94 581.83 313.67 584.28 305.89 C 586.12 308.20 585.78 311.22 585.79 313.99 C 585.64 326.43 584.78 338.90 582.83 351.19 C 587.76 356.41 592.72 361.62 597.95 366.55 C 598.51 361.23 597.77 355.93 597.46 350.63 C 601.54 354.23 601.73 359.96 601.74 365.00 C 601.59 373.10 601.14 381.33 602.76 389.32 C 603.32 392.16 606.67 392.50 608.89 393.47 C 615.05 385.64 618.72 376.29 622.43 367.15 C 624.66 361.78 625.73 355.98 628.26 350.73 C 629.89 357.66 627.05 364.42 624.78 370.83 C 621.67 378.76 618.51 386.80 613.66 393.87 C 620.51 393.70 626.81 390.97 632.46 387.27 C 631.78 388.88 631.44 390.81 629.96 391.94 C 624.84 396.12 618.12 397.83 611.59 397.56 C 612.35 406.82 611.59 416.44 614.80 425.31 C 618.39 434.01 624.15 441.62 627.81 450.31 C 631.35 459.04 636.24 467.12 640.47 475.52 C 649.41 473.87 658.52 473.76 667.58 473.37 C 667.44 467.91 667.30 462.43 666.14 457.08 C 664.19 447.57 665.09 437.81 664.27 428.21 C 661.80 414.11 658.51 400.17 655.36 386.21 C 652.52 373.38 650.11 360.41 646.27 347.83 C 641.74 333.39 631.66 321.63 626.02 307.71 C 622.64 298.07 620.80 287.89 616.41 278.60 C 609.50 262.70 597.69 249.57 584.89 238.14 C 572.38 227.32 560.51 215.75 547.70 205.29 C 539.80 199.72 532.10 193.71 523.31 189.58 M 367.69 425.08 C 366.39 433.71 364.09 442.23 363.86 451.00 C 363.75 456.13 365.77 460.92 367.26 465.72 C 370.30 475.26 370.36 485.38 371.05 495.27 C 373.91 489.87 376.78 484.47 380.27 479.45 C 379.61 472.26 381.16 465.18 382.54 458.19 C 384.65 446.93 388.44 436.09 392.34 425.35 C 393.93 421.07 393.76 416.43 394.61 411.99 C 395.94 403.09 400.15 394.89 400.91 385.88 C 390.70 399.65 379.50 412.67 367.69 425.08 M 342.14 418.00 C 337.12 424.89 333.30 432.54 328.49 439.57 C 324.04 446.07 319.59 452.57 315.08 459.03 C 311.81 463.75 309.30 469.16 308.86 474.96 C 308.17 482.96 308.70 490.99 308.77 499.01 C 308.82 507.53 309.23 516.19 311.75 524.38 C 312.64 527.45 315.12 529.60 317.43 531.63 C 313.86 519.76 312.07 507.39 312.03 495.01 C 311.96 491.43 312.63 487.88 314.12 484.62 C 315.15 490.45 314.93 496.41 315.79 502.26 C 317.32 512.70 318.40 523.46 322.93 533.14 C 323.70 534.98 325.59 535.86 327.10 537.01 C 322.69 521.11 321.30 504.33 323.14 487.93 C 324.60 490.75 325.21 493.88 325.28 497.04 C 325.67 508.22 327.33 519.35 329.80 530.25 C 330.49 532.79 331.56 536.72 334.98 536.24 C 339.76 534.54 341.82 529.20 342.46 524.55 C 343.55 516.08 343.46 507.52 343.84 499.00 C 344.11 493.97 343.38 488.79 344.78 483.90 C 345.34 481.20 349.13 481.93 349.58 484.33 C 353.28 494.57 354.17 506.89 362.81 514.55 C 365.30 511.17 367.39 507.30 367.28 502.98 C 367.46 493.42 366.68 483.83 365.29 474.37 C 364.16 466.44 359.77 459.18 360.04 451.01 C 360.25 442.09 362.27 433.34 364.04 424.63 C 357.84 419.71 349.97 417.67 342.14 418.00 M 644.91 480.30 C 642.56 480.71 638.93 480.26 638.32 483.30 C 636.29 489.50 639.27 495.77 639.61 501.97 C 639.77 509.74 632.19 514.64 631.22 522.11 C 630.60 527.76 631.81 533.39 631.90 539.05 C 632.04 547.39 633.04 555.70 633.00 564.06 C 632.92 566.76 633.60 569.73 636.03 571.30 C 639.98 571.18 642.63 567.70 644.61 564.69 C 649.61 555.95 649.87 545.47 654.02 536.40 C 656.72 539.96 655.45 544.44 654.71 548.44 C 652.92 557.77 650.19 568.19 641.80 573.79 C 639.08 575.87 635.59 575.25 632.50 574.64 C 629.18 578.08 625.25 581.87 625.12 586.98 C 624.83 589.07 626.97 590.94 629.00 590.64 C 632.72 590.05 635.81 587.73 638.98 585.86 C 644.29 582.50 649.87 579.55 654.90 575.78 C 663.29 569.41 668.90 560.02 672.23 550.16 C 674.77 542.05 673.89 533.43 673.36 525.11 C 672.26 509.50 671.57 493.88 670.86 478.25 C 662.25 479.49 653.57 479.74 644.91 480.30 M 331.27 603.17 C 328.47 608.14 325.72 613.14 323.41 618.36 C 317.96 629.86 312.05 641.43 309.76 654.06 C 307.64 664.66 311.11 675.22 311.44 685.81 C 317.11 692.43 325.99 694.63 334.17 696.37 C 346.52 698.50 360.16 697.99 371.04 691.11 C 372.96 680.63 375.29 670.16 379.27 660.24 C 385.35 646.26 392.98 632.95 402.23 620.82 C 390.79 619.90 379.21 619.98 367.94 617.58 C 354.93 615.09 342.95 609.18 331.27 603.17 M 605.70 633.16 C 597.12 639.39 588.21 646.93 577.03 647.10 C 560.79 647.12 545.02 642.58 528.85 641.62 C 533.87 650.66 538.11 660.09 542.76 669.32 C 550.41 686.12 560.82 701.45 569.03 717.96 C 573.47 725.85 577.17 734.15 580.00 742.76 C 587.30 744.01 594.81 744.13 602.10 742.72 C 612.00 740.75 622.42 737.27 629.02 729.17 C 626.38 723.92 624.36 718.39 622.45 712.86 C 617.29 694.52 617.53 675.20 613.02 656.73 C 611.02 648.75 609.00 640.72 605.70 633.16 M 305.56 881.59 C 299.65 886.35 295.37 892.72 290.18 898.19 C 280.89 907.23 269.01 912.77 257.64 918.68 C 253.08 921.25 247.71 924.40 246.63 929.97 C 246.49 934.11 250.52 936.64 253.86 938.14 C 264.36 942.73 276.03 940.42 287.01 939.49 C 299.95 937.81 313.02 937.90 326.02 937.09 C 329.39 936.71 333.00 936.67 336.05 935.01 C 340.32 931.79 341.23 925.89 340.62 920.89 C 339.78 913.49 338.36 906.12 338.66 898.64 C 336.02 898.08 332.94 898.21 330.87 896.22 C 325.31 891.08 322.31 883.30 315.43 879.61 C 312.11 877.78 308.27 879.44 305.56 881.59 M 649.20 895.08 C 645.95 895.75 642.47 896.63 640.12 899.14 C 636.30 903.08 634.92 908.66 634.33 913.96 C 633.48 922.17 636.76 929.98 639.46 937.55 C 641.46 943.34 644.98 948.73 645.25 955.00 C 645.70 958.38 645.30 962.04 646.86 965.18 C 649.30 968.47 653.56 969.52 657.34 970.44 C 668.42 972.49 679.80 973.11 691.02 972.01 C 695.87 971.46 701.07 970.22 704.56 966.56 C 708.35 961.83 707.19 955.18 705.00 950.01 C 698.52 933.84 689.79 918.08 676.96 906.07 C 669.48 899.35 659.72 893.02 649.20 895.08 Z" />
<path fill="#020202" opacity="1.00" d=" M 472.91 132.64 C 483.61 132.31 494.32 131.99 505.02 131.47 C 505.10 134.72 505.13 137.96 505.15 141.21 C 494.47 141.47 483.80 141.72 473.12 141.98 C 473.04 138.87 472.97 135.75 472.91 132.64 Z" />
<path fill="#020202" opacity="1.00" d=" M 432.37 133.21 C 441.91 133.13 451.46 133.09 461.01 132.84 C 462.47 132.95 464.18 132.52 465.43 133.53 C 466.05 139.82 465.22 146.21 464.18 152.42 C 462.84 149.21 463.08 145.67 463.08 142.27 C 453.15 142.57 443.21 142.73 433.30 143.37 C 432.77 140.00 432.50 136.61 432.37 133.21 Z" />
<path fill="#020202" opacity="1.00" d=" M 467.01 158.19 C 471.11 156.60 474.97 154.47 478.99 152.71 C 476.01 157.19 471.77 160.59 467.84 164.18 C 465.60 162.11 463.72 159.68 462.49 156.89 C 463.99 157.31 465.51 157.75 467.01 158.19 Z" />
<path fill="#020202" opacity="1.00" d=" M 464.95 169.12 C 471.61 168.73 478.28 167.98 484.96 168.19 C 486.18 168.16 486.84 168.79 486.93 170.07 C 486.15 170.85 485.22 171.46 484.34 172.11 C 483.74 173.55 483.27 175.05 482.47 176.39 C 475.03 177.43 467.44 177.57 459.94 177.55 C 458.79 176.31 457.93 174.85 457.00 173.45 C 455.78 173.07 452.47 171.34 455.12 170.37 C 458.27 169.32 461.67 169.47 464.95 169.12 Z" />
<path fill="#020202" opacity="1.00" d=" M 439.54 302.98 C 439.75 299.41 438.96 295.59 440.83 292.31 C 442.01 294.35 443.13 296.53 443.21 298.95 C 444.15 312.80 441.62 327.24 434.07 339.08 C 429.65 346.08 422.70 351.57 414.70 353.81 C 413.31 354.37 412.28 353.17 411.24 352.52 C 417.65 348.74 424.41 344.99 428.92 338.87 C 436.50 328.59 439.41 315.58 439.54 302.98 Z" />
<path fill="#020202" opacity="1.00" d=" M 369.45 334.59 C 368.67 332.96 369.45 331.23 369.78 329.61 C 372.70 333.30 375.12 337.34 377.66 341.29 C 383.68 350.68 386.31 361.98 386.36 373.05 L 384.82 373.53 C 381.38 366.52 380.67 358.55 377.71 351.35 C 375.58 345.46 371.72 340.40 369.45 334.59 Z" />
<path fill="#020202" opacity="1.00" d=" M 555.30 389.17 C 555.76 389.20 556.67 389.27 557.12 389.30 C 557.83 392.64 556.00 395.77 554.79 398.76 C 547.68 413.48 540.32 428.26 529.83 440.92 C 518.84 455.50 503.39 467.80 485.16 471.41 C 475.06 473.59 464.54 471.42 455.07 467.73 C 456.18 466.81 457.35 465.70 458.94 466.15 C 465.91 466.80 472.91 468.18 479.93 467.14 C 494.51 465.92 507.33 457.49 517.64 447.61 C 528.42 436.08 537.87 423.20 544.81 408.98 C 548.44 402.45 551.73 395.73 555.30 389.17 Z" />
</g>
<g id="#f0b58bff">
<path fill="#f0b58b" opacity="1.00" d=" M 487.86 102.45 C 494.27 101.62 500.84 101.26 506.95 98.96 C 510.45 109.86 516.75 120.18 516.59 131.97 C 516.84 136.95 515.08 141.65 513.31 146.21 C 513.72 146.54 514.54 147.20 514.95 147.54 C 517.14 146.35 518.92 144.57 520.78 142.92 C 518.41 156.15 519.62 169.59 519.34 182.94 C 519.00 197.95 512.14 212.94 500.19 222.22 C 494.53 226.66 487.28 229.62 480.00 228.61 C 474.66 227.91 469.95 224.50 467.14 219.99 C 464.64 216.15 463.59 211.63 462.47 207.25 C 469.23 209.84 476.80 209.73 483.65 207.54 C 485.91 206.86 487.58 205.11 489.17 203.46 C 482.13 203.93 474.93 206.26 467.90 204.21 C 460.17 202.14 455.47 195.02 451.53 188.59 C 445.35 176.96 438.39 165.65 433.76 153.28 C 431.06 143.42 431.53 133.07 431.26 122.95 C 431.01 120.33 432.55 118.13 433.51 115.84 C 435.05 112.26 435.52 108.37 436.18 104.57 C 440.21 102.72 444.50 101.58 448.84 100.71 C 449.86 105.32 452.52 109.31 454.78 113.38 C 455.06 113.47 455.61 113.65 455.88 113.74 C 459.00 111.55 461.58 108.50 465.28 107.21 C 472.56 104.68 480.21 103.29 487.86 102.45 M 472.91 132.64 C 472.97 135.75 473.04 138.87 473.12 141.98 C 483.80 141.72 494.47 141.47 505.15 141.21 C 505.13 137.96 505.10 134.72 505.02 131.47 C 494.32 131.99 483.61 132.31 472.91 132.64 M 432.37 133.21 C 432.50 136.61 432.77 140.00 433.30 143.37 C 443.21 142.73 453.15 142.57 463.08 142.27 C 463.08 145.67 462.84 149.21 464.18 152.42 C 465.22 146.21 466.05 139.82 465.43 133.53 C 464.18 132.52 462.47 132.95 461.01 132.84 C 451.46 133.09 441.91 133.13 432.37 133.21 M 467.01 158.19 C 465.51 157.75 463.99 157.31 462.49 156.89 C 463.72 159.68 465.60 162.11 467.84 164.18 C 471.77 160.59 476.01 157.19 478.99 152.71 C 474.97 154.47 471.11 156.60 467.01 158.19 M 464.95 169.12 C 461.67 169.47 458.27 169.32 455.12 170.37 C 452.47 171.34 455.78 173.07 457.00 173.45 C 457.93 174.85 458.79 176.31 459.94 177.55 C 467.44 177.57 475.03 177.43 482.47 176.39 C 483.27 175.05 483.74 173.55 484.34 172.11 C 485.22 171.46 486.15 170.85 486.93 170.07 C 486.84 168.79 486.18 168.16 484.96 168.19 C 478.28 167.98 471.61 168.73 464.95 169.12 Z" />
<path fill="#f0b58b" opacity="1.00" d=" M 331.27 603.17 C 342.95 609.18 354.93 615.09 367.94 617.58 C 379.21 619.98 390.79 619.90 402.23 620.82 C 392.98 632.95 385.35 646.26 379.27 660.24 C 375.29 670.16 372.96 680.63 371.04 691.11 C 360.16 697.99 346.52 698.50 334.17 696.37 C 325.99 694.63 317.11 692.43 311.44 685.81 C 311.11 675.22 307.64 664.66 309.76 654.06 C 312.05 641.43 317.96 629.86 323.41 618.36 C 325.72 613.14 328.47 608.14 331.27 603.17 Z" />
<path fill="#f0b58b" opacity="1.00" d=" M 605.70 633.16 C 609.00 640.72 611.02 648.75 613.02 656.73 C 617.53 675.20 617.29 694.52 622.45 712.86 C 624.36 718.39 626.38 723.92 629.02 729.17 C 622.42 737.27 612.00 740.75 602.10 742.72 C 594.81 744.13 587.30 744.01 580.00 742.76 C 577.17 734.15 573.47 725.85 569.03 717.96 C 560.82 701.45 550.41 686.12 542.76 669.32 C 538.11 660.09 533.87 650.66 528.85 641.62 C 545.02 642.58 560.79 647.12 577.03 647.10 C 588.21 646.93 597.12 639.39 605.70 633.16 Z" />
</g>
<g id="#f35e11ff">
<path fill="var(--shirt-color, grey)" opacity="1.00" d=" M 523.31 189.58 C 532.10 193.71 539.80 199.72 547.70 205.29 C 560.51 215.75 572.38 227.32 584.89 238.14 C 597.69 249.57 609.50 262.70 616.41 278.60 C 620.80 287.89 622.64 298.07 626.02 307.71 C 631.66 321.63 641.74 333.39 646.27 347.83 C 650.11 360.41 652.52 373.38 655.36 386.21 C 658.51 400.17 661.80 414.11 664.27 428.21 C 665.09 437.81 664.19 447.57 666.14 457.08 C 667.30 462.43 667.44 467.91 667.58 473.37 C 658.52 473.76 649.41 473.87 640.47 475.52 C 636.24 467.12 631.35 459.04 627.81 450.31 C 624.15 441.62 618.39 434.01 614.80 425.31 C 611.59 416.44 612.35 406.82 611.59 397.56 C 618.12 397.83 624.84 396.12 629.96 391.94 C 631.44 390.81 631.78 388.88 632.46 387.27 C 626.81 390.97 620.51 393.70 613.66 393.87 C 618.51 386.80 621.67 378.76 624.78 370.83 C 627.05 364.42 629.89 357.66 628.26 350.73 C 625.73 355.98 624.66 361.78 622.43 367.15 C 618.72 376.29 615.05 385.64 608.89 393.47 C 606.67 392.50 603.32 392.16 602.76 389.32 C 601.14 381.33 601.59 373.10 601.74 365.00 C 601.73 359.96 601.54 354.23 597.46 350.63 C 597.77 355.93 598.51 361.23 597.95 366.55 C 592.72 361.62 587.76 356.41 582.83 351.19 C 584.78 338.90 585.64 326.43 585.79 313.99 C 585.78 311.22 586.12 308.20 584.28 305.89 C 581.83 313.67 582.07 321.94 581.06 329.96 C 579.96 340.08 578.67 350.21 576.04 360.07 C 572.99 371.77 571.07 383.95 572.19 396.06 C 572.51 400.77 572.98 405.66 571.44 410.23 C 569.42 416.42 567.14 422.77 562.82 427.77 C 559.03 432.33 554.09 435.97 551.31 441.31 C 548.21 447.07 546.34 453.53 545.92 460.06 C 545.99 461.27 546.43 465.21 548.08 462.86 C 550.50 452.57 554.18 441.89 562.44 434.76 C 564.86 441.14 567.33 447.52 570.50 453.57 C 574.33 460.82 576.87 468.65 579.55 476.38 C 581.49 482.40 583.70 488.61 583.21 495.03 C 582.82 499.59 579.27 503.92 574.54 504.24 C 550.02 505.97 525.23 505.28 501.01 510.07 C 485.59 513.18 469.66 511.01 454.77 506.41 C 438.60 501.33 423.01 494.62 407.06 488.93 C 400.47 486.21 393.87 483.51 387.37 480.58 C 385.10 479.79 383.80 477.44 383.97 475.10 C 385.42 457.71 391.09 441.06 396.86 424.70 C 398.44 417.23 398.79 409.49 401.36 402.23 C 405.89 389.67 405.84 376.07 405.45 362.90 C 404.96 350.22 402.57 337.64 398.28 325.69 C 396.16 320.17 395.01 313.92 390.66 309.61 C 390.90 313.96 392.36 318.07 393.68 322.18 C 396.14 330.20 398.47 338.28 399.78 346.58 C 392.74 340.67 387.24 333.30 382.52 325.49 C 381.07 329.49 383.35 333.35 385.34 336.68 C 389.12 342.54 393.99 347.94 400.30 351.13 C 401.20 358.73 401.80 366.39 401.51 374.04 C 401.17 379.59 396.69 383.48 393.71 387.77 C 385.18 399.27 375.18 409.56 366.65 421.05 C 360.11 415.87 351.56 414.38 343.42 414.33 C 342.17 406.71 343.06 398.91 344.84 391.45 C 346.18 385.59 349.14 380.18 349.74 374.14 C 350.43 368.13 350.94 361.99 353.34 356.36 C 355.43 350.58 359.30 345.75 362.92 340.88 C 365.08 344.11 366.67 348.05 369.99 350.28 C 371.92 351.73 372.17 348.46 371.39 347.47 C 368.53 340.47 363.11 334.35 362.62 326.53 C 361.07 311.78 360.65 296.72 363.44 282.09 C 365.39 274.05 368.57 266.36 371.43 258.61 C 373.74 250.05 372.68 240.91 375.57 232.45 C 378.45 221.52 386.52 212.62 396.29 207.24 C 411.81 198.05 429.93 195.45 447.02 190.55 C 450.60 196.38 454.73 202.00 460.31 206.08 C 458.92 215.42 463.55 225.49 471.74 230.27 C 478.25 234.09 486.44 233.97 493.31 231.20 C 510.09 224.42 521.11 207.15 523.31 189.58 M 439.54 302.98 C 439.41 315.58 436.50 328.59 428.92 338.87 C 424.41 344.99 417.65 348.74 411.24 352.52 C 412.28 353.17 413.31 354.37 414.70 353.81 C 422.70 351.57 429.65 346.08 434.07 339.08 C 441.62 327.24 444.15 312.80 443.21 298.95 C 443.13 296.53 442.01 294.35 440.83 292.31 C 438.96 295.59 439.75 299.41 439.54 302.98 M 369.45 334.59 C 371.72 340.40 375.58 345.46 377.71 351.35 C 380.67 358.55 381.38 366.52 384.82 373.53 L 386.36 373.05 C 386.31 361.98 383.68 350.68 377.66 341.29 C 375.12 337.34 372.70 333.30 369.78 329.61 C 369.45 331.23 368.67 332.96 369.45 334.59 M 555.30 389.17 C 551.73 395.73 548.44 402.45 544.81 408.98 C 537.87 423.20 528.42 436.08 517.64 447.61 C 507.33 457.49 494.51 465.92 479.93 467.14 C 472.91 468.18 465.91 466.80 458.94 466.15 C 457.35 465.70 456.18 466.81 455.07 467.73 C 464.54 471.42 475.06 473.59 485.16 471.41 C 503.39 467.80 518.84 455.50 529.83 440.92 C 540.32 428.26 547.68 413.48 554.79 398.76 C 556.00 395.77 557.83 392.64 557.12 389.30 C 556.67 389.27 555.76 389.20 555.30 389.17 Z" />
</g>
<g id="#4d4d4dff">
<path fill="#4d4d4d" opacity="1.00" d=" M 342.14 418.00 C 349.97 417.67 357.84 419.71 364.04 424.63 C 362.27 433.34 360.25 442.09 360.04 451.01 C 359.77 459.18 364.16 466.44 365.29 474.37 C 366.68 483.83 367.46 493.42 367.28 502.98 C 367.39 507.30 365.30 511.17 362.81 514.55 C 354.17 506.89 353.28 494.57 349.58 484.33 C 349.13 481.93 345.34 481.20 344.78 483.90 C 343.38 488.79 344.11 493.97 343.84 499.00 C 343.46 507.52 343.55 516.08 342.46 524.55 C 341.82 529.20 339.76 534.54 334.98 536.24 C 331.56 536.72 330.49 532.79 329.80 530.25 C 327.33 519.35 325.67 508.22 325.28 497.04 C 325.21 493.88 324.60 490.75 323.14 487.93 C 321.30 504.33 322.69 521.11 327.10 537.01 C 325.59 535.86 323.70 534.98 322.93 533.14 C 318.40 523.46 317.32 512.70 315.79 502.26 C 314.93 496.41 315.15 490.45 314.12 484.62 C 312.63 487.88 311.96 491.43 312.03 495.01 C 312.07 507.39 313.86 519.76 317.43 531.63 C 315.12 529.60 312.64 527.45 311.75 524.38 C 309.23 516.19 308.82 507.53 308.77 499.01 C 308.70 490.99 308.17 482.96 308.86 474.96 C 309.30 469.16 311.81 463.75 315.08 459.03 C 319.59 452.57 324.04 446.07 328.49 439.57 C 333.30 432.54 337.12 424.89 342.14 418.00 Z" />
<path fill="#4d4d4d" opacity="1.00" d=" M 644.91 480.30 C 653.57 479.74 662.25 479.49 670.86 478.25 C 671.57 493.88 672.26 509.50 673.36 525.11 C 673.89 533.43 674.77 542.05 672.23 550.16 C 668.90 560.02 663.29 569.41 654.90 575.78 C 649.87 579.55 644.29 582.50 638.98 585.86 C 635.81 587.73 632.72 590.05 629.00 590.64 C 626.97 590.94 624.83 589.07 625.12 586.98 C 625.25 581.87 629.18 578.08 632.50 574.64 C 635.59 575.25 639.08 575.87 641.80 573.79 C 650.19 568.19 652.92 557.77 654.71 548.44 C 655.45 544.44 656.72 539.96 654.02 536.40 C 649.87 545.47 649.61 555.95 644.61 564.69 C 642.63 567.70 639.98 571.18 636.03 571.30 C 633.60 569.73 632.92 566.76 633.00 564.06 C 633.04 555.70 632.04 547.39 631.90 539.05 C 631.81 533.39 630.60 527.76 631.22 522.11 C 632.19 514.64 639.77 509.74 639.61 501.97 C 639.27 495.77 636.29 489.50 638.32 483.30 C 638.93 480.26 642.56 480.71 644.91 480.30 Z" />
<path fill="#4d4d4d" opacity="1.00" d=" M 305.56 881.59 C 308.27 879.44 312.11 877.78 315.43 879.61 C 322.31 883.30 325.31 891.08 330.87 896.22 C 332.94 898.21 336.02 898.08 338.66 898.64 C 338.36 906.12 339.78 913.49 340.62 920.89 C 341.23 925.89 340.32 931.79 336.05 935.01 C 333.00 936.67 329.39 936.71 326.02 937.09 C 313.02 937.90 299.95 937.81 287.01 939.49 C 276.03 940.42 264.36 942.73 253.86 938.14 C 250.52 936.64 246.49 934.11 246.63 929.97 C 247.71 924.40 253.08 921.25 257.64 918.68 C 269.01 912.77 280.89 907.23 290.18 898.19 C 295.37 892.72 299.65 886.35 305.56 881.59 Z" />
<path fill="#4d4d4d" opacity="1.00" d=" M 649.20 895.08 C 659.72 893.02 669.48 899.35 676.96 906.07 C 689.79 918.08 698.52 933.84 705.00 950.01 C 707.19 955.18 708.35 961.83 704.56 966.56 C 701.07 970.22 695.87 971.46 691.02 972.01 C 679.80 973.11 668.42 972.49 657.34 970.44 C 653.56 969.52 649.30 968.47 646.86 965.18 C 645.30 962.04 645.70 958.38 645.25 955.00 C 644.98 948.73 641.46 943.34 639.46 937.55 C 636.76 929.98 633.48 922.17 634.33 913.96 C 634.92 908.66 636.30 903.08 640.12 899.14 C 642.47 896.63 645.95 895.75 649.20 895.08 Z" />
</g>
</svg>
