<?xml version="1.0" encoding="UTF-8" ?>
<!DOCTYPE svg PUBLIC "-//W3C//DTD SVG 1.1//EN" "http://www.w3.org/Graphics/SVG/1.1/DTD/svg11.dtd">
<svg width="1000pt" height="1000pt" viewBox="0 0 1000 1000" version="1.1" xmlns="http://www.w3.org/2000/svg">
<g id="#020202ff">
<path fill="#020202" opacity="1.00" d=" M 458.34 83.60 C 457.30 81.88 459.39 81.02 460.81 80.98 C 478.70 79.71 497.81 86.94 508.40 101.84 C 517.62 99.69 528.09 100.38 536.00 106.01 C 539.20 108.12 542.12 110.68 544.47 113.72 C 538.33 113.34 532.02 112.34 526.14 114.84 C 539.45 122.09 549.78 134.55 554.31 149.00 C 555.03 157.34 553.57 165.77 551.87 173.93 C 550.31 181.95 544.20 188.60 544.32 197.00 C 544.20 201.46 546.00 205.63 546.75 209.96 C 547.38 212.98 545.61 215.67 543.97 218.02 C 541.53 221.46 539.49 225.47 535.67 227.61 C 531.48 230.00 527.16 232.27 523.71 235.71 C 523.80 237.05 523.88 238.40 523.98 239.75 C 532.04 243.51 539.42 248.89 548.04 251.36 C 562.40 252.89 576.72 247.93 591.08 250.20 C 609.49 253.70 626.90 261.84 641.70 273.31 C 654.61 282.59 664.32 295.31 675.38 306.55 C 683.13 314.18 689.65 323.15 698.65 329.44 C 711.73 338.81 726.48 346.48 736.79 359.17 C 740.37 364.11 744.09 369.18 745.97 375.05 C 747.63 382.00 747.11 389.31 748.99 396.24 C 750.62 402.03 752.12 407.89 754.54 413.43 C 756.43 418.12 758.85 422.81 759.06 427.96 C 759.19 432.97 755.90 437.14 755.11 441.97 C 752.68 455.22 751.68 468.69 749.13 481.92 C 748.09 485.73 750.10 489.36 750.80 493.04 C 755.94 512.81 758.11 533.21 763.13 553.00 C 766.28 566.09 775.13 577.06 777.68 590.35 C 778.52 595.33 778.67 600.73 776.52 605.41 C 772.72 613.13 765.35 619.18 756.77 620.61 C 754.62 620.90 752.54 620.05 750.50 619.58 C 747.90 621.36 745.24 623.41 741.99 623.74 C 738.75 624.11 735.70 622.72 732.68 621.79 C 729.58 625.86 725.73 629.37 720.94 631.33 C 721.69 639.50 722.56 647.75 722.01 655.95 C 720.21 664.25 712.26 668.93 705.81 673.48 C 706.89 681.67 706.97 690.42 711.35 697.70 C 717.37 708.33 725.05 718.11 729.28 729.69 C 739.45 756.33 741.37 785.07 747.12 812.79 C 750.28 828.79 752.29 844.99 755.10 861.05 C 756.60 870.80 759.04 880.36 761.03 890.01 C 761.93 893.77 761.37 898.46 764.62 901.21 C 767.68 903.28 771.21 904.62 774.06 907.04 C 778.44 910.72 781.17 916.21 781.82 921.88 C 783.63 934.45 783.61 947.34 781.38 959.86 C 780.50 966.25 775.09 970.90 769.61 973.60 C 761.44 977.10 752.53 978.32 743.78 979.45 C 729.85 981.03 715.73 981.34 701.77 980.03 C 695.69 979.19 689.19 978.59 684.01 975.02 C 680.75 972.00 681.24 966.95 682.00 962.99 C 684.54 951.76 689.74 941.33 695.51 931.44 C 700.03 924.12 704.12 916.45 709.83 909.95 C 709.60 901.19 706.17 893.00 703.06 884.95 C 698.94 874.75 694.65 864.61 690.69 854.34 C 684.27 839.00 677.19 823.96 669.98 808.99 C 660.03 788.96 650.94 768.32 645.54 746.56 C 643.15 735.46 641.71 724.16 638.66 713.20 C 636.91 707.25 635.97 700.26 630.70 696.25 C 626.10 692.48 622.50 687.69 619.61 682.53 C 617.49 682.34 615.32 682.37 613.28 681.72 C 610.82 679.42 610.19 675.86 608.85 672.88 C 603.13 658.74 597.32 644.56 589.69 631.32 C 585.03 623.29 578.76 616.37 572.73 609.36 C 552.70 628.13 534.60 649.35 521.54 673.60 C 519.53 677.11 518.57 681.16 516.24 684.48 C 511.89 684.00 508.14 681.59 504.36 679.59 C 496.00 674.92 488.06 669.55 479.55 665.14 C 476.23 670.34 472.63 675.40 469.95 680.98 C 467.89 685.09 470.13 689.60 471.19 693.67 C 474.97 705.03 476.38 717.07 476.15 729.01 C 475.89 742.73 475.41 756.51 472.86 770.03 C 468.98 791.27 464.58 812.47 458.12 833.10 C 453.02 848.91 447.02 864.40 441.84 880.18 C 449.36 889.42 456.24 899.88 457.87 911.95 C 458.95 919.53 457.81 928.40 451.57 933.59 C 444.47 940.19 434.16 940.44 425.03 940.28 C 414.66 940.22 404.31 938.61 393.95 939.55 C 387.67 940.05 381.84 942.77 375.58 943.41 C 356.03 945.59 336.29 941.28 318.28 933.79 C 314.43 932.15 309.80 929.74 309.28 925.09 C 308.48 920.28 311.68 916.12 315.00 913.07 C 323.81 905.01 335.15 900.82 345.67 895.58 C 356.65 890.11 367.17 883.78 377.99 878.00 C 384.84 874.44 390.32 868.89 396.51 864.38 C 398.19 842.59 396.47 820.69 394.11 799.01 C 392.32 788.76 391.59 778.37 390.24 768.06 C 389.32 758.38 388.54 748.67 388.60 738.95 C 388.66 728.20 392.31 717.62 390.58 706.85 C 388.26 691.69 386.44 676.25 388.19 660.93 C 388.94 654.65 391.26 648.71 393.87 642.99 C 393.08 640.40 392.24 637.65 393.13 634.98 C 397.05 620.73 406.37 608.94 412.93 595.92 C 416.35 589.52 416.40 581.70 420.90 575.84 C 423.44 572.33 427.23 569.57 428.40 565.21 C 429.70 560.96 431.46 556.80 434.31 553.34 C 437.38 549.72 438.49 544.98 441.19 541.13 C 442.58 539.21 443.03 536.87 443.82 534.69 C 445.16 530.88 449.46 528.90 450.33 524.85 C 451.40 519.80 450.89 514.29 453.75 509.74 C 457.75 503.12 462.81 497.04 468.88 492.21 C 462.59 483.97 458.70 474.11 451.79 466.31 C 447.99 461.87 443.04 458.67 438.10 455.65 C 437.33 463.63 432.70 470.44 427.60 476.33 C 429.34 481.16 428.30 486.40 425.78 490.75 C 422.35 497.69 415.49 502.05 411.89 508.87 C 409.89 512.63 407.94 516.45 405.22 519.76 C 405.78 525.15 405.72 530.95 402.80 535.72 C 396.25 547.14 384.60 554.59 378.18 566.12 C 374.50 574.44 374.59 584.02 370.09 592.04 C 368.04 596.02 365.00 599.39 361.45 602.07 C 362.09 609.33 361.74 619.23 353.83 622.45 C 355.36 625.19 357.15 627.90 357.86 631.02 C 358.80 634.76 355.85 638.88 352.01 639.21 C 348.83 639.63 345.96 637.95 343.30 636.46 C 343.54 639.02 343.86 641.95 341.89 643.98 C 340.32 645.99 337.55 645.62 335.31 645.84 C 331.33 647.91 326.44 648.97 322.27 646.80 C 315.24 643.29 310.65 636.27 307.88 629.13 C 305.47 622.95 302.29 616.83 302.10 610.07 C 301.74 600.60 303.56 591.24 305.17 581.97 C 306.78 574.89 308.45 567.78 310.98 560.97 C 312.95 555.44 317.49 551.52 321.56 547.53 C 328.65 540.80 334.74 532.98 339.34 524.36 C 343.99 516.21 348.04 507.28 355.75 501.50 C 354.99 484.68 354.52 467.67 357.00 450.97 C 357.71 444.52 361.30 438.84 366.15 434.68 C 362.38 427.49 366.46 419.63 370.79 413.75 C 369.23 405.25 369.32 396.59 368.74 387.99 C 367.89 376.31 367.97 364.58 368.23 352.88 C 368.99 340.93 369.45 328.85 372.44 317.20 C 373.91 311.98 376.12 306.87 379.67 302.72 C 387.53 294.06 396.73 286.77 406.50 280.39 C 403.56 277.71 400.70 274.90 398.44 271.62 C 392.83 263.55 387.14 255.34 383.87 245.99 C 381.11 238.31 380.93 230.04 380.77 221.97 C 380.62 209.30 380.19 196.62 380.10 183.95 C 380.29 179.28 376.98 175.59 375.72 171.29 C 371.14 160.23 372.53 147.63 376.74 136.68 C 374.07 135.05 374.53 131.71 374.65 129.05 C 374.99 125.75 375.51 122.24 377.52 119.49 C 380.02 116.52 384.26 116.38 387.40 114.40 C 389.14 113.16 390.47 111.45 391.87 109.86 C 397.37 103.14 404.82 98.29 412.65 94.73 C 428.41 87.47 446.49 85.65 463.50 88.77 C 461.75 87.09 459.79 85.57 458.34 83.60 M 448.18 158.58 C 440.38 163.07 431.92 167.00 422.89 167.97 C 421.10 168.21 421.05 166.72 421.24 165.38 C 425.32 162.71 430.24 160.97 433.00 156.68 C 431.31 156.56 429.55 156.22 427.92 156.82 C 419.30 159.84 410.37 163.07 401.10 162.54 C 397.39 162.42 396.39 158.33 396.04 155.35 C 390.69 159.68 387.00 165.72 384.64 172.11 C 384.44 179.35 385.33 186.62 385.20 193.89 C 393.46 193.57 401.74 193.27 410.01 193.31 C 412.14 193.01 413.04 195.21 412.93 196.97 C 412.90 203.14 412.53 209.36 411.30 215.41 C 410.15 213.41 410.03 211.08 409.82 208.85 C 401.80 208.67 393.78 208.71 385.76 208.55 C 385.97 218.40 385.92 228.32 387.26 238.10 C 389.19 248.96 395.81 258.12 401.96 266.99 C 406.31 273.58 412.47 278.79 419.05 283.04 C 425.52 287.27 433.69 286.65 440.97 285.41 C 449.99 283.38 458.82 280.31 467.08 276.12 C 480.35 269.23 490.98 257.74 497.54 244.38 C 498.49 245.64 499.44 247.14 498.62 248.76 C 495.61 257.19 490.40 264.80 483.86 270.88 C 472.16 281.35 457.08 287.24 441.94 290.65 C 449.12 294.54 456.04 299.55 460.29 306.68 C 463.57 312.19 467.09 318.18 473.08 321.08 C 476.05 321.15 478.97 319.98 481.44 318.39 C 487.14 314.18 490.92 307.87 493.12 301.22 C 496.41 292.91 498.24 284.09 501.82 275.89 C 506.30 265.75 516.20 259.40 520.65 249.22 C 520.21 243.13 519.06 237.04 519.36 230.94 C 521.60 222.04 526.38 213.48 525.57 204.03 C 525.54 201.26 522.32 200.23 520.03 200.58 C 510.30 202.19 502.25 208.64 496.06 216.01 C 493.87 218.34 492.27 221.68 488.83 222.33 C 489.76 216.37 491.99 210.72 493.04 204.78 C 491.40 207.30 490.14 210.11 488.05 212.30 C 487.57 212.12 486.62 211.76 486.15 211.58 C 485.49 208.01 486.04 204.38 486.24 200.80 C 486.95 192.63 486.92 184.41 487.95 176.27 C 483.28 175.01 478.53 173.49 474.79 170.31 C 469.46 165.86 464.26 160.14 463.82 152.86 C 459.31 156.12 454.06 159.92 448.18 158.58 M 526.56 245.20 C 525.06 251.13 522.03 256.53 518.38 261.39 C 515.18 265.49 511.27 269.03 508.51 273.48 C 503.79 280.78 502.41 289.51 499.52 297.57 C 497.53 303.06 496.03 308.85 492.74 313.75 C 488.71 319.84 482.66 325.36 475.05 325.95 C 469.85 326.72 466.22 322.28 462.95 319.00 C 456.97 312.93 452.57 305.50 446.42 299.61 C 440.84 295.19 434.31 291.31 427.01 291.02 C 420.74 290.62 415.63 286.62 410.46 283.50 C 403.90 287.78 397.58 292.47 391.89 297.86 C 387.60 301.92 382.75 305.71 380.21 311.19 C 375.46 321.08 374.80 332.28 373.98 343.05 C 372.18 363.68 373.49 384.40 374.72 405.01 C 374.95 408.30 375.97 411.55 375.67 414.87 C 373.80 419.08 370.15 422.49 369.42 427.21 C 368.55 430.59 372.29 432.84 372.40 436.05 C 370.64 438.70 367.65 440.19 365.67 442.66 C 362.62 446.00 361.79 450.60 361.13 454.91 C 358.99 469.75 359.91 484.79 359.11 499.71 C 374.83 492.88 395.27 499.11 403.53 514.37 C 406.10 508.61 408.49 502.55 413.15 498.11 C 417.81 493.62 422.12 488.45 423.58 481.98 C 416.78 471.88 405.25 466.53 394.58 461.49 C 389.68 459.05 384.11 458.08 379.55 454.95 C 385.48 453.13 391.25 456.16 396.68 458.20 C 405.94 462.35 415.58 466.24 423.27 473.06 C 428.54 467.72 433.13 461.28 434.12 453.66 C 428.93 451.57 423.48 450.25 418.01 449.18 C 408.38 447.33 398.95 443.07 392.13 435.89 C 390.82 434.66 390.53 432.79 389.99 431.17 C 395.43 433.32 399.33 438.01 404.74 440.23 C 413.44 444.78 423.43 445.30 432.59 448.49 C 439.84 451.25 446.54 455.48 452.17 460.82 C 459.14 467.56 463.49 476.34 468.57 484.46 C 472.26 490.35 477.18 495.40 480.62 501.45 C 476.78 500.97 473.97 498.26 471.38 495.66 C 466.18 500.46 461.75 506.10 458.15 512.18 C 455.12 517.31 456.90 523.82 453.85 528.93 C 452.43 531.38 449.90 532.96 448.55 535.44 C 447.72 537.65 449.40 539.77 451.27 540.76 C 459.39 545.59 468.93 546.89 478.10 548.41 C 490.97 550.39 503.96 552.04 517.02 551.89 C 539.21 551.45 561.32 549.20 583.31 546.30 C 605.94 543.25 628.00 536.71 649.14 528.16 C 662.42 522.91 674.59 515.14 685.26 505.68 C 685.70 497.58 686.86 488.89 692.38 482.53 C 692.46 480.71 692.61 478.88 692.47 477.06 C 690.58 466.23 686.89 455.79 682.01 445.95 C 677.05 436.42 675.14 425.67 674.44 415.05 C 668.94 413.79 663.60 411.93 658.03 411.03 C 654.70 410.34 651.03 409.95 648.40 407.58 C 645.03 404.64 643.07 400.54 641.01 396.67 C 640.82 402.33 639.89 408.08 637.11 413.08 C 629.20 428.67 613.87 439.47 597.31 444.22 C 587.83 447.02 577.86 447.27 568.05 447.19 C 564.95 447.06 561.74 447.11 558.82 445.92 C 558.64 445.39 558.28 444.33 558.10 443.81 C 566.09 443.05 574.19 443.73 582.18 442.72 C 597.89 441.22 613.38 434.80 624.55 423.49 C 632.09 415.61 638.12 405.20 637.16 393.92 C 621.52 389.87 607.86 380.59 595.75 370.17 C 591.38 366.18 587.00 361.96 584.36 356.58 C 589.14 358.39 592.23 362.68 596.15 365.75 C 604.92 372.85 614.31 379.24 624.51 384.14 C 620.16 375.07 619.84 364.83 618.64 355.03 C 618.23 347.91 616.73 340.52 619.04 333.57 C 621.63 338.30 621.27 343.84 621.96 349.03 C 623.01 357.95 623.92 366.94 626.17 375.65 C 627.33 379.74 628.67 384.16 632.01 387.02 C 636.37 389.26 642.42 389.16 645.18 393.84 C 647.86 397.82 649.75 403.62 655.14 404.54 C 662.45 405.73 669.48 408.00 676.60 409.96 C 680.34 405.96 685.06 403.02 690.20 401.18 C 697.29 398.62 704.47 395.83 712.04 395.12 C 714.08 394.65 715.81 395.93 717.45 396.94 C 705.28 400.47 692.48 403.40 682.25 411.34 C 687.76 411.80 693.37 412.03 698.71 413.60 C 700.16 413.92 700.99 415.27 702.07 416.19 C 694.59 416.33 687.17 414.91 679.68 415.32 C 680.57 423.93 681.69 432.73 685.43 440.63 C 687.54 445.24 689.57 449.90 691.46 454.61 C 694.39 462.07 695.89 469.97 697.51 477.79 C 706.44 473.73 716.59 473.91 726.12 475.31 C 732.72 476.12 738.73 479.04 744.72 481.75 C 747.40 467.56 748.14 453.04 751.62 439.00 C 752.44 435.32 753.52 431.69 754.20 427.98 C 754.83 424.79 753.06 421.82 751.99 418.93 C 748.22 410.76 745.46 402.12 743.76 393.29 C 742.51 386.23 743.95 378.36 739.87 372.05 C 736.36 366.38 732.73 360.69 727.73 356.20 C 715.46 344.39 699.01 338.13 686.94 326.08 C 682.00 321.33 677.67 316.00 672.82 311.15 C 661.95 300.37 652.74 287.86 640.44 278.57 C 625.49 266.73 607.78 258.15 588.94 254.88 C 579.26 253.85 569.63 255.94 559.99 256.54 C 554.62 256.49 548.91 257.47 543.86 255.14 C 537.80 252.38 532.18 248.75 526.56 245.20 M 696.78 484.84 C 691.46 491.60 690.55 500.54 690.34 508.83 C 689.98 520.08 688.61 531.28 686.15 542.27 C 683.04 556.27 682.80 570.70 683.26 584.97 C 683.48 590.73 684.96 596.32 685.91 601.98 C 687.18 609.50 684.78 617.20 686.65 624.66 C 687.59 628.38 691.12 631.05 694.95 631.12 C 697.57 631.37 701.50 631.40 702.39 628.25 C 705.60 618.34 702.46 607.99 702.03 597.93 C 701.72 595.91 702.89 594.23 703.90 592.63 C 707.57 603.06 709.67 614.26 708.84 625.35 C 712.23 627.00 716.05 628.30 719.79 626.91 C 725.01 625.94 726.89 620.30 731.05 617.75 C 735.32 616.91 739.55 621.10 743.77 618.92 C 749.46 616.03 752.56 610.19 756.23 605.28 C 756.67 605.25 757.56 605.19 758.01 605.16 C 758.72 609.68 755.60 613.39 753.45 617.01 C 757.22 615.93 761.14 614.81 764.23 612.26 C 769.14 608.30 773.95 602.78 773.25 596.00 C 772.53 582.70 763.09 572.21 759.28 559.84 C 752.80 538.72 751.20 516.54 747.22 494.91 C 746.30 491.56 746.07 487.22 742.53 485.50 C 732.69 479.95 721.03 478.49 709.90 479.25 C 705.12 479.65 699.88 480.87 696.78 484.84 M 360.84 503.73 C 356.78 504.98 353.89 508.29 351.78 511.83 C 345.82 521.21 341.46 531.63 334.32 540.25 C 329.90 546.15 324.33 551.00 319.21 556.25 C 314.97 560.49 313.71 566.55 312.26 572.14 C 309.34 582.87 307.64 593.93 306.93 605.02 C 306.53 610.22 307.69 615.39 309.76 620.14 C 312.51 626.51 314.43 633.53 319.34 638.68 C 322.36 642.49 327.08 644.25 331.87 644.27 C 326.21 638.76 321.89 632.12 317.29 625.75 C 314.58 621.99 312.06 617.94 311.48 613.25 C 319.46 620.81 324.75 630.74 332.35 638.65 C 334.19 640.70 336.96 641.22 339.51 641.81 C 339.68 638.95 338.96 636.12 337.20 633.85 C 331.43 625.69 325.27 617.81 318.71 610.28 C 316.53 607.84 314.96 604.94 313.91 601.86 C 315.83 602.91 317.84 603.96 319.38 605.58 C 325.64 612.09 331.26 619.18 336.51 626.52 C 339.58 631.04 344.52 634.39 349.97 635.10 C 352.15 635.43 354.69 633.23 353.31 631.04 C 350.98 624.59 346.39 619.24 341.58 614.48 C 335.73 608.98 330.22 603.12 324.10 597.91 C 322.47 596.34 320.16 594.79 320.40 592.22 C 325.19 592.26 328.46 596.26 331.77 599.17 C 338.50 605.85 345.87 611.93 351.74 619.41 C 356.99 616.21 356.60 609.51 356.75 604.16 C 353.30 603.58 349.11 603.21 347.23 599.77 C 341.25 590.91 342.57 579.27 347.17 570.13 C 348.82 576.93 345.59 584.05 348.16 590.70 C 349.26 593.39 350.19 596.45 352.50 598.35 C 357.08 600.39 361.33 596.38 363.96 593.04 C 371.92 583.33 369.48 569.13 377.35 559.38 C 382.21 553.27 387.06 547.12 392.57 541.58 C 395.87 538.17 399.12 534.35 400.26 529.63 C 401.52 523.75 400.66 517.05 396.65 512.37 C 387.50 503.26 373.14 499.53 360.84 503.73 M 400.08 641.66 C 397.57 648.01 394.26 654.16 393.48 661.05 C 392.06 672.90 393.06 684.89 394.77 696.66 C 399.13 699.46 403.77 701.87 408.77 703.34 C 422.53 707.55 437.31 708.83 451.53 706.37 C 457.38 705.38 463.08 703.04 467.34 698.81 C 465.79 692.68 462.12 686.13 464.77 679.80 C 467.52 673.75 471.26 668.18 475.33 662.95 C 467.00 658.83 458.65 654.77 450.26 650.80 C 434.58 643.99 417.31 638.88 400.08 641.66 M 689.27 680.21 C 668.44 686.04 646.63 682.96 625.37 682.47 C 627.91 686.23 630.90 689.71 634.43 692.60 C 640.73 697.40 641.96 705.75 644.06 712.89 C 657.70 720.58 674.38 720.50 689.32 717.28 C 696.97 715.21 706.15 712.36 709.22 704.20 C 706.84 699.99 704.27 695.77 703.25 690.99 C 702.18 685.99 701.84 680.87 701.72 675.77 C 697.65 677.46 693.53 679.08 689.27 680.21 M 409.77 862.54 C 398.61 866.48 391.38 876.60 381.22 882.23 C 370.73 888.12 360.38 894.27 349.54 899.51 C 338.76 904.89 326.99 908.82 317.73 916.77 C 315.06 918.86 313.64 922.59 315.08 925.81 C 317.88 928.75 322.04 929.73 325.69 931.25 C 340.71 937.05 356.95 940.22 373.07 938.84 C 380.23 938.33 386.78 934.94 393.90 934.26 C 405.26 933.01 416.61 935.13 427.98 934.86 C 434.03 934.69 440.42 934.65 445.98 931.96 C 451.59 928.91 453.60 922.04 453.38 916.04 C 452.98 904.96 447.09 895.08 440.68 886.40 C 437.92 885.38 434.71 884.66 432.93 882.10 C 429.92 877.72 429.21 872.17 426.07 867.86 C 422.46 862.95 415.62 860.24 409.77 862.54 M 736.67 899.67 C 724.31 903.36 714.12 912.59 707.57 923.52 C 702.95 931.28 697.99 938.86 694.17 947.06 C 690.48 954.96 686.32 963.07 686.38 972.02 C 690.46 973.25 694.62 974.27 698.87 974.70 C 715.73 976.62 732.85 975.96 749.62 973.46 C 756.91 972.11 764.59 970.95 770.96 966.89 C 776.18 963.67 775.96 956.85 776.70 951.50 C 777.29 940.68 778.23 929.61 775.99 918.92 C 774.26 910.92 765.89 907.67 759.15 904.89 C 751.95 902.32 744.58 897.73 736.67 899.67 Z" />
<path fill="#020202" opacity="1.00" d=" M 423.70 193.66 C 425.08 193.32 426.51 193.26 427.93 193.30 C 440.00 193.67 452.07 194.19 464.14 194.34 C 465.40 194.38 467.40 194.40 467.51 196.10 C 467.90 200.57 467.43 205.07 467.22 209.54 C 454.81 209.97 442.39 208.83 429.98 208.69 C 427.85 208.44 425.43 208.87 423.56 207.64 C 423.09 203.02 423.20 198.28 423.70 193.66 Z" />
<path fill="#020202" opacity="1.00" d=" M 407.96 222.32 C 410.95 223.46 413.80 224.92 416.62 226.42 C 421.29 225.40 425.75 223.63 430.39 222.54 C 425.92 227.01 420.95 230.97 415.94 234.83 C 413.23 230.69 410.50 226.57 407.96 222.32 Z" />
<path fill="#020202" opacity="1.00" d=" M 400.80 244.47 C 413.54 244.97 426.28 245.44 439.03 245.72 C 438.95 246.20 438.80 247.15 438.72 247.63 C 438.16 247.78 437.03 248.08 436.46 248.23 C 436.45 250.04 436.41 251.86 436.33 253.68 C 425.78 253.71 415.27 252.29 404.71 252.43 C 403.34 249.81 402.30 247.02 400.80 244.47 Z" />
<path fill="#020202" opacity="1.00" d=" M 487.58 502.65 C 490.91 502.13 494.06 503.60 497.18 504.56 C 522.79 513.11 550.37 512.54 576.88 509.49 C 586.69 508.44 596.27 506.05 605.91 504.06 C 605.22 507.34 601.76 508.08 599.04 508.99 C 581.21 514.29 562.52 515.55 544.02 515.89 C 526.86 515.77 509.42 513.93 493.33 507.67 C 491.11 506.53 487.72 505.66 487.58 502.65 Z" />
<path fill="#020202" opacity="1.00" d=" M 466.82 518.60 C 470.00 518.35 473.09 519.28 476.16 519.98 C 501.23 526.10 527.18 529.17 552.98 527.15 C 560.83 526.90 568.51 525.06 576.31 524.32 C 575.21 525.75 573.88 526.99 572.11 527.46 C 564.62 529.86 556.73 530.60 548.92 531.13 C 524.43 532.78 499.79 529.94 476.01 524.04 C 472.74 523.12 469.31 522.27 466.59 520.15 L 466.82 518.60 Z" />
</g>
<g id="#f0b58bff">
<path fill="#f0b58b" opacity="1.00" d=" M 448.18 158.58 C 454.06 159.92 459.31 156.12 463.82 152.86 C 464.26 160.14 469.46 165.86 474.79 170.31 C 478.53 173.49 483.28 175.01 487.95 176.27 C 486.92 184.41 486.95 192.63 486.24 200.80 C 486.04 204.38 485.49 208.01 486.15 211.58 C 486.62 211.76 487.57 212.12 488.05 212.30 C 490.14 210.11 491.40 207.30 493.04 204.78 C 491.99 210.72 489.76 216.37 488.83 222.33 C 492.27 221.68 493.87 218.34 496.06 216.01 C 502.25 208.64 510.30 202.19 520.03 200.58 C 522.32 200.23 525.54 201.26 525.57 204.03 C 526.38 213.48 521.60 222.04 519.36 230.94 C 519.06 237.04 520.21 243.13 520.65 249.22 C 516.20 259.40 506.30 265.75 501.82 275.89 C 498.24 284.09 496.41 292.91 493.12 301.22 C 490.92 307.87 487.14 314.18 481.44 318.39 C 478.97 319.98 476.05 321.15 473.08 321.08 C 467.09 318.18 463.57 312.19 460.29 306.68 C 456.04 299.55 449.12 294.54 441.94 290.65 C 457.08 287.24 472.16 281.35 483.86 270.88 C 490.40 264.80 495.61 257.19 498.62 248.76 C 499.44 247.14 498.49 245.64 497.54 244.38 C 490.98 257.74 480.35 269.23 467.08 276.12 C 458.82 280.31 449.99 283.38 440.97 285.41 C 433.69 286.65 425.52 287.27 419.05 283.04 C 412.47 278.79 406.31 273.58 401.96 266.99 C 395.81 258.12 389.19 248.96 387.26 238.10 C 385.92 228.32 385.97 218.40 385.76 208.55 C 393.78 208.71 401.80 208.67 409.82 208.85 C 410.03 211.08 410.15 213.41 411.30 215.41 C 412.53 209.36 412.90 203.14 412.93 196.97 C 413.04 195.21 412.14 193.01 410.01 193.31 C 401.74 193.27 393.46 193.57 385.20 193.89 C 385.33 186.62 384.44 179.35 384.64 172.11 C 387.00 165.72 390.69 159.68 396.04 155.35 C 396.39 158.33 397.39 162.42 401.10 162.54 C 410.37 163.07 419.30 159.84 427.92 156.82 C 429.55 156.22 431.31 156.56 433.00 156.68 C 430.24 160.97 425.32 162.71 421.24 165.38 C 421.05 166.72 421.10 168.21 422.89 167.97 C 431.92 167.00 440.38 163.07 448.18 158.58 M 423.70 193.66 C 423.20 198.28 423.09 203.02 423.56 207.64 C 425.43 208.87 427.85 208.44 429.98 208.69 C 442.39 208.83 454.81 209.97 467.22 209.54 C 467.43 205.07 467.90 200.57 467.51 196.10 C 467.40 194.40 465.40 194.38 464.14 194.34 C 452.07 194.19 440.00 193.67 427.93 193.30 C 426.51 193.26 425.08 193.32 423.70 193.66 M 407.96 222.32 C 410.50 226.57 413.23 230.69 415.94 234.83 C 420.95 230.97 425.92 227.01 430.39 222.54 C 425.75 223.63 421.29 225.40 416.62 226.42 C 413.80 224.92 410.95 223.46 407.96 222.32 M 400.80 244.47 C 402.30 247.02 403.34 249.81 404.71 252.43 C 415.27 252.29 425.78 253.71 436.33 253.68 C 436.41 251.86 436.45 250.04 436.46 248.23 C 437.03 248.08 438.16 247.78 438.72 247.63 C 438.80 247.15 438.95 246.20 439.03 245.72 C 426.28 245.44 413.54 244.97 400.80 244.47 Z" />
<path fill="#f0b58b" opacity="1.00" d=" M 400.08 641.66 C 417.31 638.88 434.58 643.99 450.26 650.80 C 458.65 654.77 467.00 658.83 475.33 662.95 C 471.26 668.18 467.52 673.75 464.77 679.80 C 462.12 686.13 465.79 692.68 467.34 698.81 C 463.08 703.04 457.38 705.38 451.53 706.37 C 437.31 708.83 422.53 707.55 408.77 703.34 C 403.77 701.87 399.13 699.46 394.77 696.66 C 393.06 684.89 392.06 672.90 393.48 661.05 C 394.26 654.16 397.57 648.01 400.08 641.66 Z" />
<path fill="#f0b58b" opacity="1.00" d=" M 689.27 680.21 C 693.53 679.08 697.65 677.46 701.72 675.77 C 701.84 680.87 702.18 685.99 703.25 690.99 C 704.27 695.77 706.84 699.99 709.22 704.20 C 706.15 712.36 696.97 715.21 689.32 717.28 C 674.38 720.50 657.70 720.58 644.06 712.89 C 641.96 705.75 640.73 697.40 634.43 692.60 C 630.90 689.71 627.91 686.23 625.37 682.47 C 646.63 682.96 668.44 686.04 689.27 680.21 Z" />
</g>
<g id="#f35e11ff">
<path fill="var(--shirt-color, grey)" opacity="1.00" d=" M 526.56 245.20 C 532.18 248.75 537.80 252.38 543.86 255.14 C 548.91 257.47 554.62 256.49 559.99 256.54 C 569.63 255.94 579.26 253.85 588.94 254.88 C 607.78 258.15 625.49 266.73 640.44 278.57 C 652.74 287.86 661.95 300.37 672.82 311.15 C 677.67 316.00 682.00 321.33 686.94 326.08 C 699.01 338.13 715.46 344.39 727.73 356.20 C 732.73 360.69 736.36 366.38 739.87 372.05 C 743.95 378.36 742.51 386.23 743.76 393.29 C 745.46 402.12 748.22 410.76 751.99 418.93 C 753.06 421.82 754.83 424.79 754.20 427.98 C 753.52 431.69 752.44 435.32 751.62 439.00 C 748.14 453.04 747.40 467.56 744.72 481.75 C 738.73 479.04 732.72 476.12 726.12 475.31 C 716.59 473.91 706.44 473.73 697.51 477.79 C 695.89 469.97 694.39 462.07 691.46 454.61 C 689.57 449.90 687.54 445.24 685.43 440.63 C 681.69 432.73 680.57 423.93 679.68 415.32 C 687.17 414.91 694.59 416.33 702.07 416.19 C 700.99 415.27 700.16 413.92 698.71 413.60 C 693.37 412.03 687.76 411.80 682.25 411.34 C 692.48 403.40 705.28 400.47 717.45 396.94 C 715.81 395.93 714.08 394.65 712.04 395.12 C 704.47 395.83 697.29 398.62 690.20 401.18 C 685.06 403.02 680.34 405.96 676.60 409.96 C 669.48 408.00 662.45 405.73 655.14 404.54 C 649.75 403.62 647.86 397.82 645.18 393.84 C 642.42 389.16 636.37 389.26 632.01 387.02 C 628.67 384.16 627.33 379.74 626.17 375.65 C 623.92 366.94 623.01 357.95 621.96 349.03 C 621.27 343.84 621.63 338.30 619.04 333.57 C 616.73 340.52 618.23 347.91 618.64 355.03 C 619.84 364.83 620.16 375.07 624.51 384.14 C 614.31 379.24 604.92 372.85 596.15 365.75 C 592.23 362.68 589.14 358.39 584.36 356.58 C 587.00 361.96 591.38 366.18 595.75 370.17 C 607.86 380.59 621.52 389.87 637.16 393.92 C 638.12 405.20 632.09 415.61 624.55 423.49 C 613.38 434.80 597.89 441.22 582.18 442.72 C 574.19 443.73 566.09 443.05 558.10 443.81 C 558.28 444.33 558.64 445.39 558.82 445.92 C 561.74 447.11 564.95 447.06 568.05 447.19 C 577.86 447.27 587.83 447.02 597.31 444.22 C 613.87 439.47 629.20 428.67 637.11 413.08 C 639.89 408.08 640.82 402.33 641.01 396.67 C 643.07 400.54 645.03 404.64 648.40 407.58 C 651.03 409.95 654.70 410.34 658.03 411.03 C 663.60 411.93 668.94 413.79 674.44 415.05 C 675.14 425.67 677.05 436.42 682.01 445.95 C 686.89 455.79 690.58 466.23 692.47 477.06 C 692.61 478.88 692.46 480.71 692.38 482.53 C 686.86 488.89 685.70 497.58 685.26 505.68 C 674.59 515.14 662.42 522.91 649.14 528.16 C 628.00 536.71 605.94 543.25 583.31 546.30 C 561.32 549.20 539.21 551.45 517.02 551.89 C 503.96 552.04 490.97 550.39 478.10 548.41 C 468.93 546.89 459.39 545.59 451.27 540.76 C 449.40 539.77 447.72 537.65 448.55 535.44 C 449.90 532.96 452.43 531.38 453.85 528.93 C 456.90 523.82 455.12 517.31 458.15 512.18 C 461.75 506.10 466.18 500.46 471.38 495.66 C 473.97 498.26 476.78 500.97 480.62 501.45 C 477.18 495.40 472.26 490.35 468.57 484.46 C 463.49 476.34 459.14 467.56 452.17 460.82 C 446.54 455.48 439.84 451.25 432.59 448.49 C 423.43 445.30 413.44 444.78 404.74 440.23 C 399.33 438.01 395.43 433.32 389.99 431.17 C 390.53 432.79 390.82 434.66 392.13 435.89 C 398.95 443.07 408.38 447.33 418.01 449.18 C 423.48 450.25 428.93 451.57 434.12 453.66 C 433.13 461.28 428.54 467.72 423.27 473.06 C 415.58 466.24 405.94 462.35 396.68 458.20 C 391.25 456.16 385.48 453.13 379.55 454.95 C 384.11 458.08 389.68 459.05 394.58 461.49 C 405.25 466.53 416.78 471.88 423.58 481.98 C 422.12 488.45 417.81 493.62 413.15 498.11 C 408.49 502.55 406.10 508.61 403.53 514.37 C 395.27 499.11 374.83 492.88 359.11 499.71 C 359.91 484.79 358.99 469.75 361.13 454.91 C 361.79 450.60 362.62 446.00 365.67 442.66 C 367.65 440.19 370.64 438.70 372.40 436.05 C 372.29 432.84 368.55 430.59 369.42 427.21 C 370.15 422.49 373.80 419.08 375.67 414.87 C 375.97 411.55 374.95 408.30 374.72 405.01 C 373.49 384.40 372.18 363.68 373.98 343.05 C 374.80 332.28 375.46 321.08 380.21 311.19 C 382.75 305.71 387.60 301.92 391.89 297.86 C 397.58 292.47 403.90 287.78 410.46 283.50 C 415.63 286.62 420.74 290.62 427.01 291.02 C 434.31 291.31 440.84 295.19 446.42 299.61 C 452.57 305.50 456.97 312.93 462.95 319.00 C 466.22 322.28 469.85 326.72 475.05 325.95 C 482.66 325.36 488.71 319.84 492.74 313.75 C 496.03 308.85 497.53 303.06 499.52 297.57 C 502.41 289.51 503.79 280.78 508.51 273.48 C 511.27 269.03 515.18 265.49 518.38 261.39 C 522.03 256.53 525.06 251.13 526.56 245.20 M 487.58 502.65 C 487.72 505.66 491.11 506.53 493.33 507.67 C 509.42 513.93 526.86 515.77 544.02 515.89 C 562.52 515.55 581.21 514.29 599.04 508.99 C 601.76 508.08 605.22 507.34 605.91 504.06 C 596.27 506.05 586.69 508.44 576.88 509.49 C 550.37 512.54 522.79 513.11 497.18 504.56 C 494.06 503.60 490.91 502.13 487.58 502.65 M 466.82 518.60 L 466.59 520.15 C 469.31 522.27 472.74 523.12 476.01 524.04 C 499.79 529.94 524.43 532.78 548.92 531.13 C 556.73 530.60 564.62 529.86 572.11 527.46 C 573.88 526.99 575.21 525.75 576.31 524.32 C 568.51 525.06 560.83 526.90 552.98 527.15 C 527.18 529.17 501.23 526.10 476.16 519.98 C 473.09 519.28 470.00 518.35 466.82 518.60 Z" />
</g>
<g id="#4d4d4dff">
<path fill="#4d4d4d" opacity="1.00" d=" M 696.78 484.84 C 699.88 480.87 705.12 479.65 709.90 479.25 C 721.03 478.49 732.69 479.95 742.53 485.50 C 746.07 487.22 746.30 491.56 747.22 494.91 C 751.20 516.54 752.80 538.72 759.28 559.84 C 763.09 572.21 772.53 582.70 773.25 596.00 C 773.95 602.78 769.14 608.30 764.23 612.26 C 761.14 614.81 757.22 615.93 753.45 617.01 C 755.60 613.39 758.72 609.68 758.01 605.16 C 757.56 605.19 756.67 605.25 756.23 605.28 C 752.56 610.19 749.46 616.03 743.77 618.92 C 739.55 621.10 735.32 616.91 731.05 617.75 C 726.89 620.30 725.01 625.94 719.79 626.91 C 716.05 628.30 712.23 627.00 708.84 625.35 C 709.67 614.26 707.57 603.06 703.90 592.63 C 702.89 594.23 701.72 595.91 702.03 597.93 C 702.46 607.99 705.60 618.34 702.39 628.25 C 701.50 631.40 697.57 631.37 694.95 631.12 C 691.12 631.05 687.59 628.38 686.65 624.66 C 684.78 617.20 687.18 609.50 685.91 601.98 C 684.96 596.32 683.48 590.73 683.26 584.97 C 682.80 570.70 683.04 556.27 686.15 542.27 C 688.61 531.28 689.98 520.08 690.34 508.83 C 690.55 500.54 691.46 491.60 696.78 484.84 Z" />
<path fill="#4d4d4d" opacity="1.00" d=" M 360.84 503.73 C 373.14 499.53 387.50 503.26 396.65 512.37 C 400.66 517.05 401.52 523.75 400.26 529.63 C 399.12 534.35 395.87 538.17 392.57 541.58 C 387.06 547.12 382.21 553.27 377.35 559.38 C 369.48 569.13 371.92 583.33 363.96 593.04 C 361.33 596.38 357.08 600.39 352.50 598.35 C 350.19 596.45 349.26 593.39 348.16 590.70 C 345.59 584.05 348.82 576.93 347.17 570.13 C 342.57 579.27 341.25 590.91 347.23 599.77 C 349.11 603.21 353.30 603.58 356.75 604.16 C 356.60 609.51 356.99 616.21 351.74 619.41 C 345.87 611.93 338.50 605.85 331.77 599.17 C 328.46 596.26 325.19 592.26 320.40 592.22 C 320.16 594.79 322.47 596.34 324.10 597.91 C 330.22 603.12 335.73 608.98 341.58 614.48 C 346.39 619.24 350.98 624.59 353.31 631.04 C 354.69 633.23 352.15 635.43 349.97 635.10 C 344.52 634.39 339.58 631.04 336.51 626.52 C 331.26 619.18 325.64 612.09 319.38 605.58 C 317.84 603.96 315.83 602.91 313.91 601.86 C 314.96 604.94 316.53 607.84 318.71 610.28 C 325.27 617.81 331.43 625.69 337.20 633.85 C 338.96 636.12 339.68 638.95 339.51 641.81 C 336.96 641.22 334.19 640.70 332.35 638.65 C 324.75 630.74 319.46 620.81 311.48 613.25 C 312.06 617.94 314.58 621.99 317.29 625.75 C 321.89 632.12 326.21 638.76 331.87 644.27 C 327.08 644.25 322.36 642.49 319.34 638.68 C 314.43 633.53 312.51 626.51 309.76 620.14 C 307.69 615.39 306.53 610.22 306.93 605.02 C 307.64 593.93 309.34 582.87 312.26 572.14 C 313.71 566.55 314.97 560.49 319.21 556.25 C 324.33 551.00 329.90 546.15 334.32 540.25 C 341.46 531.63 345.82 521.21 351.78 511.83 C 353.89 508.29 356.78 504.98 360.84 503.73 Z" />
<path fill="#4d4d4d" opacity="1.00" d=" M 409.77 862.54 C 415.62 860.24 422.46 862.95 426.07 867.86 C 429.21 872.17 429.92 877.72 432.93 882.10 C 434.71 884.66 437.92 885.38 440.68 886.40 C 447.09 895.08 452.98 904.96 453.38 916.04 C 453.60 922.04 451.59 928.91 445.98 931.96 C 440.42 934.65 434.03 934.69 427.98 934.86 C 416.61 935.13 405.26 933.01 393.90 934.26 C 386.78 934.94 380.23 938.33 373.07 938.84 C 356.95 940.22 340.71 937.05 325.69 931.25 C 322.04 929.73 317.88 928.75 315.08 925.81 C 313.64 922.59 315.06 918.86 317.73 916.77 C 326.99 908.82 338.76 904.89 349.54 899.51 C 360.38 894.27 370.73 888.12 381.22 882.23 C 391.38 876.60 398.61 866.48 409.77 862.54 Z" />
<path fill="#4d4d4d" opacity="1.00" d=" M 736.67 899.67 C 744.58 897.73 751.95 902.32 759.15 904.89 C 765.89 907.67 774.26 910.92 775.99 918.92 C 778.23 929.61 777.29 940.68 776.70 951.50 C 775.96 956.85 776.18 963.67 770.96 966.89 C 764.59 970.95 756.91 972.11 749.62 973.46 C 732.85 975.96 715.73 976.62 698.87 974.70 C 694.62 974.27 690.46 973.25 686.38 972.02 C 686.32 963.07 690.48 954.96 694.17 947.06 C 697.99 938.86 702.95 931.28 707.57 923.52 C 714.12 912.59 724.31 903.36 736.67 899.67 Z" />
</g>
</svg>
