<?xml version="1.0" encoding="UTF-8" ?>
<!DOCTYPE svg PUBLIC "-//W3C//DTD SVG 1.1//EN" "http://www.w3.org/Graphics/SVG/1.1/DTD/svg11.dtd">
<svg width="1000pt" height="1000pt" viewBox="0 0 1000 1000" version="1.1" xmlns="http://www.w3.org/2000/svg">
<g id="#020202ff">
<path fill="#020202" opacity="1.00" d=" M 425.09 171.89 C 434.55 162.02 449.62 158.27 462.80 161.32 C 475.73 164.28 488.04 171.13 496.43 181.52 C 503.21 189.74 503.93 200.85 505.89 210.88 C 506.10 212.53 507.74 213.29 508.85 214.29 C 515.29 218.79 518.75 227.04 517.86 234.80 C 517.27 240.75 517.67 246.94 515.32 252.58 C 513.95 256.85 510.89 260.22 508.89 264.15 C 507.71 267.55 507.71 271.22 506.88 274.70 C 523.33 274.81 540.50 277.42 554.61 286.42 C 563.47 291.64 570.50 299.31 579.01 305.02 C 587.39 310.78 596.50 315.38 604.99 320.97 C 611.73 325.43 617.95 330.64 623.79 336.21 C 628.51 340.82 633.65 345.02 637.85 350.15 C 649.67 363.57 658.20 379.39 667.40 394.62 C 671.29 401.21 677.47 405.89 682.73 411.31 C 690.85 419.66 698.86 428.56 703.67 439.30 C 709.15 452.10 709.03 466.29 709.72 479.95 C 709.83 485.21 710.47 490.68 708.61 495.73 C 710.75 505.53 709.35 515.61 710.13 525.53 C 710.85 535.07 711.72 544.85 709.13 554.21 C 706.90 564.55 701.98 574.29 701.32 584.96 C 701.08 594.43 701.44 603.97 700.54 613.41 C 698.56 615.72 696.77 612.59 696.26 610.77 C 692.76 600.25 688.11 590.09 681.94 580.85 C 675.95 591.30 669.93 601.73 664.18 612.30 C 659.58 622.00 654.07 631.44 651.72 642.02 C 649.19 652.49 649.73 663.34 649.98 674.02 C 650.24 687.22 655.02 699.83 655.50 713.01 C 656.57 734.57 655.39 756.21 652.35 777.57 C 649.75 794.93 647.33 812.42 642.15 829.24 C 636.61 845.78 629.56 861.87 626.00 879.02 C 633.58 891.02 636.00 905.28 642.01 918.00 C 646.18 927.33 651.91 935.97 655.15 945.72 C 656.86 951.58 655.63 958.24 652.33 963.32 C 648.21 968.47 641.19 969.70 635.00 970.27 C 624.88 971.01 614.72 969.92 604.76 968.16 C 597.77 966.74 590.49 964.87 584.97 960.08 C 580.55 956.41 577.41 951.54 574.04 946.96 C 570.36 941.43 561.42 941.18 559.84 933.98 C 558.76 921.68 561.65 909.19 567.22 898.24 C 569.38 893.63 574.80 890.69 574.67 885.14 C 576.22 869.13 575.35 853.02 574.91 836.99 C 574.34 813.24 568.43 789.74 570.59 765.92 C 571.71 748.05 576.40 730.62 583.01 714.05 C 586.35 707.03 583.58 699.30 582.84 692.04 C 581.14 677.79 575.95 664.19 575.06 649.82 C 569.87 662.21 563.72 674.20 556.59 685.58 C 554.50 689.10 551.03 691.91 550.41 696.17 C 548.38 705.48 545.47 714.55 542.36 723.55 C 537.19 740.17 531.05 756.47 524.54 772.61 C 523.45 775.70 523.58 779.02 523.17 782.24 C 522.30 789.31 521.01 796.46 517.82 802.90 C 514.39 810.12 510.72 817.96 503.50 822.12 C 503.39 824.67 503.59 827.60 501.60 829.56 C 495.76 835.65 484.44 835.47 479.16 828.67 C 476.15 833.77 470.13 837.66 464.09 835.73 C 458.33 834.29 455.15 828.80 453.26 823.62 C 451.24 828.83 448.96 834.86 443.53 837.36 C 439.19 839.25 434.41 836.72 431.90 833.10 C 427.36 826.73 426.16 818.73 425.37 811.14 C 424.59 801.41 423.66 791.60 424.80 781.87 C 418.95 780.04 416.89 773.62 416.16 768.16 C 414.56 757.30 419.29 746.86 424.56 737.67 C 431.20 725.77 440.78 715.81 447.25 703.81 C 442.44 689.77 441.73 674.77 440.57 660.10 C 433.95 672.66 423.80 682.82 413.47 692.37 C 405.32 699.63 397.06 706.84 387.98 712.93 C 383.50 715.66 381.29 720.94 380.18 725.84 C 380.99 734.23 380.73 742.75 382.68 751.00 C 386.15 767.39 385.80 784.36 383.35 800.86 C 386.55 806.36 388.10 812.65 389.54 818.80 C 391.72 830.61 386.59 842.24 379.35 851.32 C 368.92 866.68 353.69 877.68 341.21 891.23 C 331.38 901.93 320.71 912.61 306.90 917.98 C 300.29 920.83 292.87 920.07 285.97 918.92 C 277.74 917.33 272.08 909.70 270.10 901.95 C 268.12 891.81 270.93 881.36 275.15 872.14 C 283.16 855.19 296.99 842.08 310.37 829.34 C 317.80 822.21 326.21 816.23 334.29 809.88 C 328.83 799.62 325.15 788.55 319.82 778.23 C 314.48 767.69 308.86 757.01 306.80 745.26 C 305.42 737.14 307.06 729.01 308.73 721.08 C 310.17 704.91 316.55 689.61 324.77 675.77 C 333.49 660.74 343.44 646.48 352.71 631.81 C 360.14 620.54 368.24 609.73 376.65 599.18 C 377.49 593.46 381.08 588.78 384.07 584.01 C 393.39 569.36 404.96 556.14 418.15 544.86 C 409.47 531.35 401.18 517.52 390.95 505.09 C 378.74 489.77 367.11 473.64 359.62 455.42 C 355.49 443.61 351.41 431.57 350.57 419.00 C 349.57 404.93 351.84 390.51 357.58 377.61 C 360.05 372.29 363.01 367.05 367.49 363.15 C 356.08 351.33 344.55 337.31 343.95 320.10 C 344.17 312.96 340.46 306.47 336.09 301.15 C 330.64 297.74 324.25 295.07 320.77 289.35 C 316.65 282.37 314.54 274.20 314.70 266.10 C 315.24 254.66 318.33 243.53 321.86 232.69 C 325.62 221.52 331.04 210.70 339.09 201.98 C 348.31 192.37 359.62 184.27 372.60 180.72 C 379.46 178.76 386.72 179.18 393.62 177.46 C 398.40 175.96 402.44 172.58 407.46 171.71 C 413.30 170.74 419.23 171.57 425.09 171.89 M 389.63 266.35 C 386.93 266.96 383.92 268.06 381.25 266.83 C 380.17 265.86 379.42 264.60 378.56 263.47 C 373.97 265.80 368.49 270.63 363.27 267.32 C 357.86 270.83 351.99 273.61 346.01 275.99 C 341.47 277.80 336.51 277.59 331.75 277.11 C 334.24 286.65 338.99 295.41 344.53 303.50 C 347.02 307.02 348.69 311.05 349.67 315.24 C 354.49 314.32 359.21 312.44 364.16 312.42 C 366.62 316.98 367.88 322.06 369.17 327.04 C 369.78 329.88 370.96 333.06 369.21 335.75 C 365.31 333.62 365.76 328.64 364.72 324.92 C 360.10 325.46 355.48 326.07 350.88 326.73 C 353.94 340.03 363.33 350.45 372.56 359.96 C 382.12 354.79 392.11 350.49 401.89 345.77 C 403.63 345.02 405.40 343.93 407.37 344.20 C 410.01 346.53 406.17 347.95 404.54 349.25 C 406.19 353.62 401.97 356.11 398.70 357.73 C 392.35 360.94 385.91 363.96 379.42 366.85 C 387.19 374.29 398.45 377.82 409.04 375.70 C 413.55 374.60 417.50 371.98 421.15 369.20 C 429.67 362.46 437.48 354.76 443.90 345.99 C 444.72 344.90 445.76 344.02 446.80 343.15 C 447.15 348.18 443.57 352.07 440.84 355.86 C 435.84 362.58 429.45 368.06 422.96 373.28 C 426.30 376.54 429.56 379.89 432.35 383.64 C 434.26 386.01 436.22 388.71 439.20 389.78 C 442.20 389.90 444.80 387.91 446.78 385.85 C 451.09 381.03 454.96 375.75 457.89 369.97 C 460.65 363.71 460.84 356.76 461.67 350.07 C 463.21 337.74 464.44 325.36 465.89 313.02 C 464.15 311.77 460.60 311.02 461.44 308.18 C 463.23 303.97 466.86 300.83 468.74 296.64 C 472.36 290.09 472.29 282.33 471.40 275.11 C 471.11 272.49 469.59 270.27 467.93 268.31 C 462.73 274.28 460.65 282.30 455.20 288.09 C 451.60 292.26 447.03 295.38 442.54 298.49 C 444.39 295.94 445.99 293.22 447.55 290.48 C 444.79 292.16 441.56 295.49 438.17 294.19 C 434.39 289.87 430.49 285.62 427.06 281.00 C 422.47 274.95 416.19 270.47 411.29 264.69 C 409.44 262.54 409.01 259.66 408.37 257.00 C 402.68 261.09 396.33 264.29 389.63 266.35 M 488.55 284.34 C 487.18 289.40 483.93 293.74 479.38 296.37 C 477.03 301.45 474.52 306.52 470.84 310.79 C 470.91 314.87 470.58 318.95 470.01 322.99 C 468.88 331.31 468.33 339.69 467.14 348.00 C 466.06 355.68 465.71 363.60 462.96 370.93 C 460.14 377.38 455.84 383.06 451.26 388.36 C 448.39 391.62 444.46 394.38 439.98 394.51 C 435.44 394.37 432.40 390.43 429.98 387.06 C 427.24 382.78 423.99 378.88 420.68 375.04 C 416.48 377.58 412.12 380.23 407.13 380.71 C 399.06 381.52 390.58 380.50 383.36 376.61 C 378.43 373.98 374.53 369.91 370.38 366.26 C 361.63 374.90 357.68 387.18 355.62 399.02 C 352.88 414.26 355.88 429.84 360.84 444.30 C 365.02 458.86 373.30 471.75 381.92 484.04 C 387.83 491.57 393.00 499.64 398.66 507.35 C 409.06 520.94 418.62 535.22 426.48 550.43 C 430.70 558.57 435.37 566.49 439.29 574.79 C 441.88 579.93 440.37 585.79 440.26 591.26 C 447.41 583.83 456.29 578.46 464.79 572.73 C 467.23 571.06 469.83 569.62 472.63 568.64 C 471.16 572.87 467.14 575.17 463.77 577.73 C 455.65 583.53 447.37 589.21 440.38 596.39 C 441.09 599.48 442.01 602.52 443.06 605.53 C 448.16 601.29 453.69 597.54 459.72 594.74 C 464.19 592.71 468.74 590.41 473.76 590.24 C 472.37 592.11 470.46 593.46 468.37 594.44 C 459.80 598.70 451.29 603.18 443.75 609.12 C 444.02 617.15 443.59 625.20 444.12 633.22 C 444.95 645.63 444.64 658.09 445.88 670.47 C 447.01 680.83 447.52 691.31 449.97 701.48 C 463.55 696.58 477.79 692.53 492.38 693.42 C 493.50 680.92 494.46 668.41 495.48 655.91 C 498.48 630.41 504.20 605.21 505.04 579.48 C 501.67 589.70 496.55 599.36 489.80 607.74 C 484.74 614.00 478.54 619.20 472.45 624.42 C 469.32 627.02 466.14 629.94 461.95 630.59 C 467.42 623.88 474.75 618.95 480.37 612.34 C 491.66 600.78 499.11 586.09 504.35 570.96 C 504.36 564.29 502.09 557.83 499.03 551.98 C 494.68 543.61 491.30 534.79 487.91 526.01 C 482.53 510.94 475.53 496.25 465.62 483.61 C 460.28 484.77 455.11 486.59 449.85 488.02 C 441.58 490.19 432.95 488.42 424.93 486.06 C 420.60 484.66 416.21 483.13 412.42 480.56 C 410.54 479.42 410.12 477.12 409.44 475.23 C 412.82 477.07 416.11 479.24 419.92 480.12 C 426.53 481.77 433.17 483.51 439.97 484.07 C 447.89 484.74 455.25 481.18 462.97 480.19 C 461.69 479.37 460.43 478.53 459.10 477.81 C 453.98 474.63 447.70 475.91 442.01 475.30 C 430.01 475.21 417.92 470.21 410.15 460.94 C 408.71 459.39 408.49 457.24 408.17 455.26 C 412.94 459.50 417.63 464.01 423.63 466.51 C 431.52 470.75 440.56 471.33 449.30 472.11 C 434.09 464.89 420.71 454.52 406.60 445.43 C 400.58 441.07 394.01 437.48 388.13 432.95 L 388.87 431.45 C 393.81 432.40 398.20 435.06 402.52 437.51 C 416.59 446.34 429.69 456.62 443.68 465.57 C 440.90 461.63 438.03 457.76 434.81 454.18 C 431.54 450.32 427.58 446.72 426.29 441.63 C 431.67 445.53 435.88 450.72 440.67 455.26 C 444.87 459.15 447.46 464.50 451.96 468.09 C 460.30 474.05 470.24 477.01 479.92 480.03 C 490.90 483.38 500.64 489.66 510.16 495.91 C 515.18 499.13 519.73 503.02 523.97 507.21 C 523.87 502.45 523.81 497.69 523.75 492.93 C 507.53 478.17 485.74 471.26 469.75 456.18 C 468.93 455.30 468.29 454.27 467.69 453.26 C 469.46 452.96 471.25 453.22 472.73 454.30 C 482.41 460.27 492.09 466.25 501.83 472.11 C 509.44 476.88 517.33 481.41 523.81 487.72 C 523.55 479.14 524.40 470.60 524.94 462.05 C 525.61 453.79 518.60 446.77 521.10 438.40 C 519.07 434.42 516.64 430.65 513.72 427.27 C 508.23 420.78 504.14 413.26 500.40 405.66 C 496.62 397.61 492.40 388.96 494.05 379.80 C 495.63 385.15 496.79 390.67 499.28 395.70 C 504.40 406.54 510.21 417.22 518.22 426.22 C 515.81 410.79 520.06 395.17 526.95 381.44 C 527.03 390.16 523.03 398.19 521.93 406.74 C 520.46 415.19 521.40 423.81 523.27 432.12 C 526.61 422.94 529.50 413.57 531.37 403.97 C 532.16 399.99 532.47 395.91 533.88 392.07 C 534.81 394.26 535.37 396.62 535.16 399.02 C 534.52 408.66 532.84 418.28 529.62 427.41 C 528.10 432.01 526.12 436.46 524.98 441.17 C 523.95 444.83 525.67 448.41 526.65 451.87 C 529.36 447.68 533.99 445.63 538.76 444.82 C 537.45 449.71 530.98 450.75 530.17 455.93 C 527.54 471.37 528.02 487.12 528.30 502.73 C 528.49 515.53 530.36 528.30 529.59 541.12 C 529.23 552.10 527.82 563.00 526.37 573.88 C 523.07 601.12 524.01 628.60 523.38 655.97 C 523.42 658.50 523.58 661.49 525.64 663.28 C 529.06 666.01 533.74 666.82 536.74 670.14 C 541.76 675.56 544.77 682.42 549.29 688.23 C 557.98 674.94 565.59 660.91 571.43 646.13 C 574.17 638.66 575.65 630.81 578.27 623.30 C 582.23 612.73 587.39 602.57 590.36 591.64 C 593.87 576.41 593.80 560.50 591.53 545.09 C 590.90 539.41 591.30 533.70 591.21 528.01 C 591.23 520.34 590.35 512.45 593.02 505.08 C 597.40 490.74 594.89 475.67 593.37 461.10 C 590.55 438.84 588.51 416.32 590.39 393.89 C 590.62 390.76 591.32 387.63 593.08 384.97 C 593.46 388.99 593.16 393.01 593.12 397.04 C 593.16 415.28 594.27 433.51 596.39 451.63 C 605.04 439.85 615.13 429.09 622.46 416.37 C 623.71 414.19 625.16 412.11 626.95 410.32 C 621.58 428.06 608.60 441.97 596.98 455.90 C 597.30 458.80 597.63 461.71 597.95 464.62 C 602.86 459.27 607.68 453.85 612.25 448.21 C 614.76 445.15 617.16 441.82 620.79 439.99 C 619.29 444.37 616.20 447.87 613.55 451.57 C 609.19 457.46 604.66 463.54 598.24 467.32 C 599.62 480.14 600.70 493.39 596.85 505.92 C 594.06 513.83 595.25 522.29 595.17 530.49 C 606.35 524.15 616.28 515.88 627.34 509.35 C 641.90 500.43 657.69 492.27 674.98 490.83 C 685.06 489.81 695.13 491.28 705.13 492.38 C 705.24 484.55 704.68 476.73 704.28 468.92 C 703.66 458.96 702.77 448.72 698.28 439.65 C 691.95 427.01 680.93 417.70 671.01 407.97 C 663.15 400.33 658.72 390.14 653.03 380.96 C 648.10 373.02 644.03 364.34 637.21 357.78 C 628.85 349.46 621.53 340.04 612.04 332.92 C 601.51 324.36 589.22 318.44 577.80 311.24 C 568.27 305.33 560.66 296.89 551.21 290.89 C 537.60 281.92 520.96 279.24 504.97 278.64 C 501.35 284.01 494.54 285.03 488.55 284.34 M 469.03 481.85 C 473.48 487.57 477.64 493.54 481.06 499.95 C 489.64 514.80 494.03 531.54 501.46 546.94 C 509.06 547.39 516.66 548.08 524.20 549.23 C 525.38 537.11 524.85 524.93 524.13 512.81 C 515.07 503.83 504.03 497.25 493.00 491.03 C 485.53 486.76 477.22 484.34 469.03 481.85 M 596.80 558.42 C 597.41 567.59 597.72 576.83 596.23 585.94 C 593.90 603.60 583.12 618.69 579.65 636.03 C 579.81 646.97 580.66 658.02 583.59 668.60 C 587.21 681.55 589.35 695.01 589.10 708.47 C 595.96 715.95 607.11 716.02 616.42 714.66 C 628.66 712.51 641.54 707.55 649.01 697.10 C 647.57 691.24 645.56 685.50 644.91 679.48 C 643.56 662.77 642.64 645.21 649.39 629.43 C 654.32 618.32 659.75 607.40 666.14 597.05 C 670.29 590.24 673.88 583.01 679.09 576.90 C 670.21 565.39 658.07 555.96 643.81 552.35 C 628.06 548.07 611.24 551.41 596.80 558.42 M 336.81 665.75 C 329.95 676.86 322.76 687.90 318.23 700.22 C 315.09 708.78 312.30 717.86 313.39 727.09 C 314.14 735.48 319.24 743.21 326.42 747.55 C 333.81 751.98 342.48 754.22 351.08 754.24 C 358.65 754.33 364.90 748.78 368.72 742.70 C 373.24 736.26 373.40 728.10 376.32 720.98 C 372.64 723.43 369.06 726.05 365.23 728.27 C 363.10 729.43 360.77 730.66 358.27 730.24 C 357.79 728.73 358.05 727.30 359.49 726.53 C 374.96 716.57 390.56 706.58 404.36 694.33 C 417.08 683.40 429.50 671.66 438.16 657.14 C 441.55 653.13 439.81 647.64 439.85 642.89 C 439.87 638.99 436.48 636.49 433.84 634.17 C 418.27 620.55 401.50 607.57 381.85 600.45 C 365.18 621.04 351.21 643.57 336.81 665.75 M 497.04 689.25 C 503.43 679.90 510.39 670.24 520.82 665.09 C 519.95 661.38 519.70 657.58 519.55 653.79 C 513.06 654.60 506.71 652.72 500.68 650.56 C 499.09 663.42 498.45 676.37 497.04 689.25 M 508.35 683.43 C 500.36 694.37 493.62 706.31 484.04 716.03 C 475.57 724.92 465.28 731.89 457.11 741.10 C 452.85 745.97 449.05 751.29 446.13 757.08 C 444.25 761.00 442.62 765.53 443.87 769.90 C 444.44 772.24 446.38 774.50 448.99 774.39 C 452.77 774.38 456.14 772.33 459.12 770.21 C 467.36 764.15 474.05 756.34 480.78 748.73 C 486.34 742.45 491.24 735.48 497.90 730.27 C 499.26 737.22 496.54 744.22 493.13 750.17 C 483.63 764.65 466.84 772.09 456.68 785.97 C 460.45 786.72 464.34 787.20 468.18 786.64 C 481.93 784.67 495.50 778.29 504.19 767.19 C 505.65 765.73 506.91 763.35 509.32 763.56 C 508.72 769.23 505.50 774.09 502.88 779.00 C 498.64 786.83 492.47 793.37 487.95 801.01 C 486.08 804.02 485.41 807.54 485.01 811.02 C 488.14 811.02 491.57 811.26 494.22 809.25 C 500.48 804.94 506.09 799.45 509.84 792.79 C 516.98 780.26 522.47 766.88 527.44 753.36 C 534.95 732.86 541.84 712.14 547.82 691.14 C 542.44 686.65 539.66 680.08 535.25 674.79 C 532.38 671.20 527.92 669.67 523.93 667.72 C 518.17 672.36 512.62 677.33 508.35 683.43 M 451.63 705.59 C 449.39 713.22 444.47 719.58 440.04 726.03 C 433.61 735.02 427.27 744.30 423.59 754.80 C 421.04 761.65 421.44 769.19 423.33 776.15 C 429.32 776.03 433.98 772.15 438.02 768.17 C 438.22 757.60 444.15 748.44 450.30 740.30 C 457.08 731.41 466.23 724.82 474.48 717.41 C 480.63 711.88 485.76 705.36 490.52 698.63 C 477.12 697.75 464.37 702.23 451.63 705.59 M 474.97 761.23 C 482.84 755.23 489.40 747.56 493.34 738.43 C 487.41 746.19 481.17 753.70 474.97 761.23 M 428.49 781.21 C 429.90 793.08 429.92 805.09 431.57 816.94 C 432.63 822.51 433.55 829.11 438.46 832.72 C 441.45 834.81 444.67 831.76 446.22 829.30 C 449.09 824.65 451.93 819.20 450.70 813.57 C 449.34 806.42 447.80 799.28 447.33 792.01 C 447.11 789.62 447.59 787.21 448.86 785.16 C 450.98 786.93 452.20 789.48 452.70 792.16 C 454.95 803.16 455.43 814.70 459.87 825.15 C 461.59 829.53 466.85 832.87 471.37 830.29 C 476.44 828.03 476.48 821.86 476.38 817.14 C 473.84 814.76 470.50 812.01 471.30 808.08 C 472.71 799.56 479.37 793.36 484.92 787.26 C 476.99 790.25 468.62 792.98 460.04 792.31 C 456.73 792.03 452.77 790.57 451.86 786.99 C 451.09 783.35 453.85 780.33 455.78 777.59 C 452.43 778.54 448.79 779.85 445.33 778.59 C 442.42 777.54 440.80 774.71 438.99 772.41 C 436.09 776.00 432.53 778.99 428.49 781.21 M 510.18 800.15 C 506.53 805.25 501.71 809.33 496.89 813.28 C 498.11 814.85 499.18 816.64 500.95 817.70 C 504.18 816.71 506.51 814.10 508.35 811.39 C 513.95 802.92 518.11 793.44 519.81 783.38 C 516.62 788.98 513.96 794.90 510.18 800.15 M 476.96 808.07 C 475.94 810.69 479.11 811.99 480.49 813.68 C 480.45 810.46 479.99 807.16 480.94 804.03 C 481.89 800.84 483.55 797.93 484.95 794.94 C 481.86 798.99 478.13 802.95 476.96 808.07 M 382.23 807.47 C 380.31 815.54 377.06 824.19 369.83 828.94 C 364.42 832.57 357.41 831.37 351.66 829.26 C 344.91 826.66 340.52 820.57 336.80 814.69 C 319.69 827.72 303.53 842.16 289.95 858.88 C 282.00 869.02 275.26 880.85 274.15 893.91 C 273.35 901.15 277.28 908.69 283.69 912.14 C 289.04 914.57 295.13 914.91 300.91 914.37 C 306.50 913.92 311.41 910.93 315.99 907.92 C 327.84 900.03 336.46 888.47 346.88 878.93 C 360.49 866.19 375.45 853.54 382.98 836.03 C 387.09 826.84 384.81 816.71 382.23 807.47 M 481.44 817.85 C 482.58 821.12 483.02 824.99 485.69 827.47 C 488.50 829.45 492.30 829.22 495.50 828.45 C 498.13 827.89 499.34 825.32 500.61 823.25 C 497.07 821.58 494.08 819.02 492.13 815.61 C 488.58 816.41 485.01 817.17 481.44 817.85 M 592.45 887.48 C 588.50 890.94 582.96 891.12 578.49 893.57 C 575.28 895.65 573.17 899.01 571.41 902.33 C 566.50 912.61 564.63 924.31 566.07 935.62 C 570.02 937.57 574.37 939.24 577.25 942.75 C 581.18 947.45 584.17 953.02 589.08 956.84 C 594.70 961.35 602.06 962.54 608.98 963.59 C 619.11 964.88 629.44 966.00 639.60 964.39 C 643.62 963.60 648.32 962.37 650.31 958.38 C 653.20 953.26 651.57 947.08 648.91 942.24 C 643.76 932.26 637.64 922.71 633.97 912.03 C 630.25 902.18 627.79 891.76 622.47 882.60 C 619.50 877.95 614.03 872.99 608.11 874.96 C 601.44 877.02 597.55 883.19 592.45 887.48 Z" />
<path fill="#020202" opacity="1.00" d=" M 414.42 291.63 C 415.93 291.10 417.48 290.62 419.09 290.49 C 421.28 293.97 422.78 297.93 423.72 301.92 C 424.11 303.78 421.93 304.09 420.71 304.75 C 410.25 308.72 399.72 312.50 389.19 316.26 C 387.46 316.85 385.69 317.42 383.86 317.52 C 381.71 313.62 380.30 309.08 380.33 304.61 C 381.39 303.88 382.58 303.36 383.79 302.90 C 393.98 299.11 404.23 295.44 414.42 291.63 Z" />
<path fill="#020202" opacity="1.00" d=" M 378.18 339.80 C 381.82 336.59 385.04 332.84 389.25 330.32 C 386.54 336.31 383.84 342.51 379.58 347.55 C 376.65 348.47 372.79 347.67 370.30 345.73 C 369.67 343.41 369.80 340.98 369.75 338.61 C 372.58 338.82 375.38 339.33 378.18 339.80 Z" />
<path fill="#020202" opacity="1.00" d=" M 564.48 397.14 C 564.65 395.11 565.91 393.49 567.14 391.97 C 568.11 409.76 563.62 427.37 556.51 443.57 C 553.70 449.15 550.81 454.91 546.20 459.27 C 546.39 454.98 549.02 451.45 550.78 447.71 C 554.99 439.06 557.83 429.83 560.43 420.60 C 562.62 412.94 563.29 404.98 564.48 397.14 Z" />
</g>
<g id="#f0b58bff">
<path fill="#f0b58b" opacity="1.00" d=" M 389.63 266.35 C 396.33 264.29 402.68 261.09 408.37 257.00 C 409.01 259.66 409.44 262.54 411.29 264.69 C 416.19 270.47 422.47 274.95 427.06 281.00 C 430.49 285.62 434.39 289.87 438.17 294.19 C 441.56 295.49 444.79 292.16 447.55 290.48 C 445.99 293.22 444.39 295.94 442.54 298.49 C 447.03 295.38 451.60 292.26 455.20 288.09 C 460.65 282.30 462.73 274.28 467.93 268.31 C 469.59 270.27 471.11 272.49 471.40 275.11 C 472.29 282.33 472.36 290.09 468.74 296.64 C 466.86 300.83 463.23 303.97 461.44 308.18 C 460.60 311.02 464.15 311.77 465.89 313.02 C 464.44 325.36 463.21 337.74 461.67 350.07 C 460.84 356.76 460.65 363.71 457.89 369.97 C 454.96 375.75 451.09 381.03 446.78 385.85 C 444.80 387.91 442.20 389.90 439.20 389.78 C 436.22 388.71 434.26 386.01 432.35 383.64 C 429.56 379.89 426.30 376.54 422.96 373.28 C 429.45 368.06 435.84 362.58 440.84 355.86 C 443.57 352.07 447.15 348.18 446.80 343.15 C 445.76 344.02 444.72 344.90 443.90 345.99 C 437.48 354.76 429.67 362.46 421.15 369.20 C 417.50 371.98 413.55 374.60 409.04 375.70 C 398.45 377.82 387.19 374.29 379.42 366.85 C 385.91 363.96 392.35 360.94 398.70 357.73 C 401.97 356.11 406.19 353.62 404.54 349.25 C 406.17 347.95 410.01 346.53 407.37 344.20 C 405.40 343.93 403.63 345.02 401.89 345.77 C 392.11 350.49 382.12 354.79 372.56 359.96 C 363.33 350.45 353.94 340.03 350.88 326.73 C 355.48 326.07 360.10 325.46 364.72 324.92 C 365.76 328.64 365.31 333.62 369.21 335.75 C 370.96 333.06 369.78 329.88 369.17 327.04 C 367.88 322.06 366.62 316.98 364.16 312.42 C 359.21 312.44 354.49 314.32 349.67 315.24 C 348.69 311.05 347.02 307.02 344.53 303.50 C 338.99 295.41 334.24 286.65 331.75 277.11 C 336.51 277.59 341.47 277.80 346.01 275.99 C 351.99 273.61 357.86 270.83 363.27 267.32 C 368.49 270.63 373.97 265.80 378.56 263.47 C 379.42 264.60 380.17 265.86 381.25 266.83 C 383.92 268.06 386.93 266.96 389.63 266.35 M 414.42 291.63 C 404.23 295.44 393.98 299.11 383.79 302.90 C 382.58 303.36 381.39 303.88 380.33 304.61 C 380.30 309.08 381.71 313.62 383.86 317.52 C 385.69 317.42 387.46 316.85 389.19 316.26 C 399.72 312.50 410.25 308.72 420.71 304.75 C 421.93 304.09 424.11 303.78 423.72 301.92 C 422.78 297.93 421.28 293.97 419.09 290.49 C 417.48 290.62 415.93 291.10 414.42 291.63 M 378.18 339.80 C 375.38 339.33 372.58 338.82 369.75 338.61 C 369.80 340.98 369.67 343.41 370.30 345.73 C 372.79 347.67 376.65 348.47 379.58 347.55 C 383.84 342.51 386.54 336.31 389.25 330.32 C 385.04 332.84 381.82 336.59 378.18 339.80 Z" />
<path fill="#f0b58b" opacity="1.00" d=" M 596.80 558.42 C 611.24 551.41 628.06 548.07 643.81 552.35 C 658.07 555.96 670.21 565.39 679.09 576.90 C 673.88 583.01 670.29 590.24 666.14 597.05 C 659.75 607.40 654.32 618.32 649.39 629.43 C 642.64 645.21 643.56 662.77 644.91 679.48 C 645.56 685.50 647.57 691.24 649.01 697.10 C 641.54 707.55 628.66 712.51 616.42 714.66 C 607.11 716.02 595.96 715.95 589.10 708.47 C 589.35 695.01 587.21 681.55 583.59 668.60 C 580.66 658.02 579.81 646.97 579.65 636.03 C 583.12 618.69 593.90 603.60 596.23 585.94 C 597.72 576.83 597.41 567.59 596.80 558.42 Z" />
<path fill="#f0b58b" opacity="1.00" d=" M 336.81 665.75 C 351.21 643.57 365.18 621.04 381.85 600.45 C 401.50 607.57 418.27 620.55 433.84 634.17 C 436.48 636.49 439.87 638.99 439.85 642.89 C 439.81 647.64 441.55 653.13 438.16 657.14 C 429.50 671.66 417.08 683.40 404.36 694.33 C 390.56 706.58 374.96 716.57 359.49 726.53 C 358.05 727.30 357.79 728.73 358.27 730.24 C 360.77 730.66 363.10 729.43 365.23 728.27 C 369.06 726.05 372.64 723.43 376.32 720.98 C 373.40 728.10 373.24 736.26 368.72 742.70 C 364.90 748.78 358.65 754.33 351.08 754.24 C 342.48 754.22 333.81 751.98 326.42 747.55 C 319.24 743.21 314.14 735.48 313.39 727.09 C 312.30 717.86 315.09 708.78 318.23 700.22 C 322.76 687.90 329.95 676.86 336.81 665.75 Z" />
</g>
<g id="#f25e11ff">
<path fill="var(--shirt-color, grey)" opacity="1.00" d=" M 488.55 284.34 C 494.54 285.03 501.35 284.01 504.97 278.64 C 520.96 279.24 537.60 281.92 551.21 290.89 C 560.66 296.89 568.27 305.33 577.80 311.24 C 589.22 318.44 601.51 324.36 612.04 332.92 C 621.53 340.04 628.85 349.46 637.21 357.78 C 644.03 364.34 648.10 373.02 653.03 380.96 C 658.72 390.14 663.15 400.33 671.01 407.97 C 680.93 417.70 691.95 427.01 698.28 439.65 C 702.77 448.72 703.66 458.96 704.28 468.92 C 704.68 476.73 705.24 484.55 705.13 492.38 C 695.13 491.28 685.06 489.81 674.98 490.83 C 657.69 492.27 641.90 500.43 627.34 509.35 C 616.28 515.88 606.35 524.15 595.17 530.49 C 595.25 522.29 594.06 513.83 596.85 505.92 C 600.70 493.39 599.62 480.14 598.24 467.32 C 604.66 463.54 609.19 457.46 613.55 451.57 C 616.20 447.87 619.29 444.37 620.79 439.99 C 617.16 441.82 614.76 445.15 612.25 448.21 C 607.68 453.85 602.86 459.27 597.95 464.62 C 597.63 461.71 597.30 458.80 596.98 455.90 C 608.60 441.97 621.58 428.06 626.95 410.32 C 625.16 412.11 623.71 414.19 622.46 416.37 C 615.13 429.09 605.04 439.85 596.39 451.63 C 594.27 433.51 593.16 415.28 593.12 397.04 C 593.16 393.01 593.46 388.99 593.08 384.97 C 591.32 387.63 590.62 390.76 590.39 393.89 C 588.51 416.32 590.55 438.84 593.37 461.10 C 594.89 475.67 597.40 490.74 593.02 505.08 C 590.35 512.45 591.23 520.34 591.21 528.01 C 591.30 533.70 590.90 539.41 591.53 545.09 C 593.80 560.50 593.87 576.41 590.36 591.64 C 587.39 602.57 582.23 612.73 578.27 623.30 C 575.65 630.81 574.17 638.66 571.43 646.13 C 565.59 660.91 557.98 674.94 549.29 688.23 C 544.77 682.42 541.76 675.56 536.74 670.14 C 533.74 666.82 529.06 666.01 525.64 663.28 C 523.58 661.49 523.42 658.50 523.38 655.97 C 524.01 628.60 523.07 601.12 526.37 573.88 C 527.82 563.00 529.23 552.10 529.59 541.12 C 530.36 528.30 528.49 515.53 528.30 502.73 C 528.02 487.12 527.54 471.37 530.17 455.93 C 530.98 450.75 537.45 449.71 538.76 444.82 C 533.99 445.63 529.36 447.68 526.65 451.87 C 525.67 448.41 523.95 444.83 524.98 441.17 C 526.12 436.46 528.10 432.01 529.62 427.41 C 532.84 418.28 534.52 408.66 535.16 399.02 C 535.37 396.62 534.81 394.26 533.88 392.07 C 532.47 395.91 532.16 399.99 531.37 403.97 C 529.50 413.57 526.61 422.94 523.27 432.12 C 521.40 423.81 520.46 415.19 521.93 406.74 C 523.03 398.19 527.03 390.16 526.95 381.44 C 520.06 395.17 515.81 410.79 518.22 426.22 C 510.21 417.22 504.40 406.54 499.28 395.70 C 496.79 390.67 495.63 385.15 494.05 379.80 C 492.40 388.96 496.62 397.61 500.40 405.66 C 504.14 413.26 508.23 420.78 513.72 427.27 C 516.64 430.65 519.07 434.42 521.10 438.40 C 518.60 446.77 525.61 453.79 524.94 462.05 C 524.40 470.60 523.55 479.14 523.81 487.72 C 517.33 481.41 509.44 476.88 501.83 472.11 C 492.09 466.25 482.41 460.27 472.73 454.30 C 471.25 453.22 469.46 452.96 467.69 453.26 C 468.29 454.27 468.93 455.30 469.75 456.18 C 485.74 471.26 507.53 478.17 523.75 492.93 C 523.81 497.69 523.87 502.45 523.97 507.21 C 519.73 503.02 515.18 499.13 510.16 495.91 C 500.64 489.66 490.90 483.38 479.92 480.03 C 470.24 477.01 460.30 474.05 451.96 468.09 C 447.46 464.50 444.87 459.15 440.67 455.26 C 435.88 450.72 431.67 445.53 426.29 441.63 C 427.58 446.72 431.54 450.32 434.81 454.18 C 438.03 457.76 440.90 461.63 443.68 465.57 C 429.69 456.62 416.59 446.34 402.52 437.51 C 398.20 435.06 393.81 432.40 388.87 431.45 L 388.13 432.95 C 394.01 437.48 400.58 441.07 406.60 445.43 C 420.71 454.52 434.09 464.89 449.30 472.11 C 440.56 471.33 431.52 470.75 423.63 466.51 C 417.63 464.01 412.94 459.50 408.17 455.26 C 408.49 457.24 408.71 459.39 410.15 460.94 C 417.92 470.21 430.01 475.21 442.01 475.30 C 447.70 475.91 453.98 474.63 459.10 477.81 C 460.43 478.53 461.69 479.37 462.97 480.19 C 455.25 481.18 447.89 484.74 439.97 484.07 C 433.17 483.51 426.53 481.77 419.92 480.12 C 416.11 479.24 412.82 477.07 409.44 475.23 C 410.12 477.12 410.54 479.42 412.42 480.56 C 416.21 483.13 420.60 484.66 424.93 486.06 C 432.95 488.42 441.58 490.19 449.85 488.02 C 455.11 486.59 460.28 484.77 465.62 483.61 C 475.53 496.25 482.53 510.94 487.91 526.01 C 491.30 534.79 494.68 543.61 499.03 551.98 C 502.09 557.83 504.36 564.29 504.35 570.96 C 499.11 586.09 491.66 600.78 480.37 612.34 C 474.75 618.95 467.42 623.88 461.95 630.59 C 466.14 629.94 469.32 627.02 472.45 624.42 C 478.54 619.20 484.74 614.00 489.80 607.74 C 496.55 599.36 501.67 589.70 505.04 579.48 C 504.20 605.21 498.48 630.41 495.48 655.91 C 494.46 668.41 493.50 680.92 492.38 693.42 C 477.79 692.53 463.55 696.58 449.97 701.48 C 447.52 691.31 447.01 680.83 445.88 670.47 C 444.64 658.09 444.95 645.63 444.12 633.22 C 443.59 625.20 444.02 617.15 443.75 609.12 C 451.29 603.18 459.80 598.70 468.37 594.44 C 470.46 593.46 472.37 592.11 473.76 590.24 C 468.74 590.41 464.19 592.71 459.72 594.74 C 453.69 597.54 448.16 601.29 443.06 605.53 C 442.01 602.52 441.09 599.48 440.38 596.39 C 447.37 589.21 455.65 583.53 463.77 577.73 C 467.14 575.17 471.16 572.87 472.63 568.64 C 469.83 569.62 467.23 571.06 464.79 572.73 C 456.29 578.46 447.41 583.83 440.26 591.26 C 440.37 585.79 441.88 579.93 439.29 574.79 C 435.37 566.49 430.70 558.57 426.48 550.43 C 418.62 535.22 409.06 520.94 398.66 507.35 C 393.00 499.64 387.83 491.57 381.92 484.04 C 373.30 471.75 365.02 458.86 360.84 444.30 C 355.88 429.84 352.88 414.26 355.62 399.02 C 357.68 387.18 361.63 374.90 370.38 366.26 C 374.53 369.91 378.43 373.98 383.36 376.61 C 390.58 380.50 399.06 381.52 407.13 380.71 C 412.12 380.23 416.48 377.58 420.68 375.04 C 423.99 378.88 427.24 382.78 429.98 387.06 C 432.40 390.43 435.44 394.37 439.98 394.51 C 444.46 394.38 448.39 391.62 451.26 388.36 C 455.84 383.06 460.14 377.38 462.96 370.93 C 465.71 363.60 466.06 355.68 467.14 348.00 C 468.33 339.69 468.88 331.31 470.01 322.99 C 470.58 318.95 470.91 314.87 470.84 310.79 C 474.52 306.52 477.03 301.45 479.38 296.37 C 483.93 293.74 487.18 289.40 488.55 284.34 M 564.48 397.14 C 563.29 404.98 562.62 412.94 560.43 420.60 C 557.83 429.83 554.99 439.06 550.78 447.71 C 549.02 451.45 546.39 454.98 546.20 459.27 C 550.81 454.91 553.70 449.15 556.51 443.57 C 563.62 427.37 568.11 409.76 567.14 391.97 C 565.91 393.49 564.65 395.11 564.48 397.14 Z" />
<path fill="#f25e11" opacity="1.00" d=" M 469.03 481.85 C 477.22 484.34 485.53 486.76 493.00 491.03 C 504.03 497.25 515.07 503.83 524.13 512.81 C 524.85 524.93 525.38 537.11 524.20 549.23 C 516.66 548.08 509.06 547.39 501.46 546.94 C 494.03 531.54 489.64 514.80 481.06 499.95 C 477.64 493.54 473.48 487.57 469.03 481.85 Z" />
</g>
<g id="#4d4d4dff">
<path fill="#4d4d4d" opacity="1.00" d=" M 508.35 683.43 C 512.62 677.33 518.17 672.36 523.93 667.72 C 527.92 669.67 532.38 671.20 535.25 674.79 C 539.66 680.08 542.44 686.65 547.82 691.14 C 541.84 712.14 534.95 732.86 527.44 753.36 C 522.47 766.88 516.98 780.26 509.84 792.79 C 506.09 799.45 500.48 804.94 494.22 809.25 C 491.57 811.26 488.14 811.02 485.01 811.02 C 485.41 807.54 486.08 804.02 487.95 801.01 C 492.47 793.37 498.64 786.83 502.88 779.00 C 505.50 774.09 508.72 769.23 509.32 763.56 C 506.91 763.35 505.65 765.73 504.19 767.19 C 495.50 778.29 481.93 784.67 468.18 786.64 C 464.34 787.20 460.45 786.72 456.68 785.97 C 466.84 772.09 483.63 764.65 493.13 750.17 C 496.54 744.22 499.26 737.22 497.90 730.27 C 491.24 735.48 486.34 742.45 480.78 748.73 C 474.05 756.34 467.36 764.15 459.12 770.21 C 456.14 772.33 452.77 774.38 448.99 774.39 C 446.38 774.50 444.44 772.24 443.87 769.90 C 442.62 765.53 444.25 761.00 446.13 757.08 C 449.05 751.29 452.85 745.97 457.11 741.10 C 465.28 731.89 475.57 724.92 484.04 716.03 C 493.62 706.31 500.36 694.37 508.35 683.43 Z" />
<path fill="#4d4d4d" opacity="1.00" d=" M 451.63 705.59 C 464.37 702.23 477.12 697.75 490.52 698.63 C 485.76 705.36 480.63 711.88 474.48 717.41 C 466.23 724.82 457.08 731.41 450.30 740.30 C 444.15 748.44 438.22 757.60 438.02 768.17 C 433.98 772.15 429.32 776.03 423.33 776.15 C 421.44 769.19 421.04 761.65 423.59 754.80 C 427.27 744.30 433.61 735.02 440.04 726.03 C 444.47 719.58 449.39 713.22 451.63 705.59 Z" />
<path fill="#4d4d4d" opacity="1.00" d=" M 474.97 761.23 C 481.17 753.70 487.41 746.19 493.34 738.43 C 489.40 747.56 482.84 755.23 474.97 761.23 Z" />
<path fill="#4d4d4d" opacity="1.00" d=" M 428.49 781.21 C 432.53 778.99 436.09 776.00 438.99 772.41 C 440.80 774.71 442.42 777.54 445.33 778.59 C 448.79 779.85 452.43 778.54 455.78 777.59 C 453.85 780.33 451.09 783.35 451.86 786.99 C 452.77 790.57 456.73 792.03 460.04 792.31 C 468.62 792.98 476.99 790.25 484.92 787.26 C 479.37 793.36 472.71 799.56 471.30 808.08 C 470.50 812.01 473.84 814.76 476.38 817.14 C 476.48 821.86 476.44 828.03 471.37 830.29 C 466.85 832.87 461.59 829.53 459.87 825.15 C 455.43 814.70 454.95 803.16 452.70 792.16 C 452.20 789.48 450.98 786.93 448.86 785.16 C 447.59 787.21 447.11 789.62 447.33 792.01 C 447.80 799.28 449.34 806.42 450.70 813.57 C 451.93 819.20 449.09 824.65 446.22 829.30 C 444.67 831.76 441.45 834.81 438.46 832.72 C 433.55 829.11 432.63 822.51 431.57 816.94 C 429.92 805.09 429.90 793.08 428.49 781.21 Z" />
<path fill="#4d4d4d" opacity="1.00" d=" M 510.18 800.15 C 513.96 794.90 516.62 788.98 519.81 783.38 C 518.11 793.44 513.95 802.92 508.35 811.39 C 506.51 814.10 504.18 816.71 500.95 817.70 C 499.18 816.64 498.11 814.85 496.89 813.28 C 501.71 809.33 506.53 805.25 510.18 800.15 Z" />
<path fill="#4d4d4d" opacity="1.00" d=" M 476.96 808.07 C 478.13 802.95 481.86 798.99 484.95 794.94 C 483.55 797.93 481.89 800.84 480.94 804.03 C 479.99 807.16 480.45 810.46 480.49 813.68 C 479.11 811.99 475.94 810.69 476.96 808.07 Z" />
<path fill="#4d4d4d" opacity="1.00" d=" M 382.23 807.47 C 384.81 816.71 387.09 826.84 382.98 836.03 C 375.45 853.54 360.49 866.19 346.88 878.93 C 336.46 888.47 327.84 900.03 315.99 907.92 C 311.41 910.93 306.50 913.92 300.91 914.37 C 295.13 914.91 289.04 914.57 283.69 912.14 C 277.28 908.69 273.35 901.15 274.15 893.91 C 275.26 880.85 282.00 869.02 289.95 858.88 C 303.53 842.16 319.69 827.72 336.80 814.69 C 340.52 820.57 344.91 826.66 351.66 829.26 C 357.41 831.37 364.42 832.57 369.83 828.94 C 377.06 824.19 380.31 815.54 382.23 807.47 Z" />
<path fill="#4d4d4d" opacity="1.00" d=" M 481.44 817.85 C 485.01 817.17 488.58 816.41 492.13 815.61 C 494.08 819.02 497.07 821.58 500.61 823.25 C 499.34 825.32 498.13 827.89 495.50 828.45 C 492.30 829.22 488.50 829.45 485.69 827.47 C 483.02 824.99 482.58 821.12 481.44 817.85 Z" />
<path fill="#4d4d4d" opacity="1.00" d=" M 592.45 887.48 C 597.55 883.19 601.44 877.02 608.11 874.96 C 614.03 872.99 619.50 877.95 622.47 882.60 C 627.79 891.76 630.25 902.18 633.97 912.03 C 637.64 922.71 643.76 932.26 648.91 942.24 C 651.57 947.08 653.20 953.26 650.31 958.38 C 648.32 962.37 643.62 963.60 639.60 964.39 C 629.44 966.00 619.11 964.88 608.98 963.59 C 602.06 962.54 594.70 961.35 589.08 956.84 C 584.17 953.02 581.18 947.45 577.25 942.75 C 574.37 939.24 570.02 937.57 566.07 935.62 C 564.63 924.31 566.50 912.61 571.41 902.33 C 573.17 899.01 575.28 895.65 578.49 893.57 C 582.96 891.12 588.50 890.94 592.45 887.48 Z" />
</g>
</svg>
