<?xml version="1.0" encoding="UTF-8" ?>
<!DOCTYPE svg PUBLIC "-//W3C//DTD SVG 1.1//EN" "http://www.w3.org/Graphics/SVG/1.1/DTD/svg11.dtd">
<svg width="1000pt" height="1000pt" viewBox="0 0 1000 1000" version="1.1" xmlns="http://www.w3.org/2000/svg">
<g id="#020202ff">
<path fill="#020202" opacity="1.00" d=" M 449.23 53.29 C 459.61 50.62 470.29 49.12 481.00 48.81 C 491.25 48.44 501.35 50.67 511.32 52.76 C 528.75 57.72 545.71 66.47 557.70 80.35 C 568.83 93.35 574.78 109.90 578.26 126.44 C 581.83 143.04 581.59 160.09 581.75 176.97 C 581.72 184.25 583.49 191.52 587.19 197.82 C 590.75 204.01 592.91 210.89 593.90 217.95 C 608.21 216.33 621.82 222.41 634.26 228.75 C 649.57 237.00 665.81 243.30 681.70 250.30 C 703.19 259.56 724.99 268.24 745.69 279.21 C 757.87 286.56 770.16 294.74 778.28 306.69 C 789.32 322.96 796.06 341.83 799.94 361.02 C 804.39 384.96 806.60 409.26 807.86 433.57 C 812.55 435.64 815.47 440.15 817.19 444.80 C 821.71 456.86 825.90 469.14 827.89 481.91 C 829.78 495.41 836.12 507.74 838.77 521.06 C 840.98 531.06 840.52 541.63 837.62 551.44 C 835.56 558.22 830.91 564.20 825.01 568.08 C 821.31 570.43 817.03 568.23 814.93 564.87 C 812.11 570.08 808.33 575.45 802.54 577.54 C 797.86 578.86 794.32 574.35 793.29 570.31 C 790.04 573.76 786.06 577.67 780.93 577.24 C 777.43 577.05 775.39 573.95 773.68 571.32 C 771.57 573.95 768.81 577.27 764.99 576.34 C 761.35 575.01 759.78 571.00 758.77 567.58 C 757.15 560.49 757.65 553.14 758.21 545.97 C 755.67 546.43 752.94 547.45 750.41 546.39 C 747.60 545.26 746.35 542.24 745.33 539.62 C 742.49 531.73 740.57 523.56 738.43 515.47 C 736.83 509.19 735.60 502.07 739.16 496.20 C 745.10 486.02 749.39 474.81 751.05 463.10 C 752.04 457.56 751.97 451.82 753.71 446.43 C 755.40 442.65 759.12 440.39 762.35 438.06 C 761.24 426.11 761.46 413.91 757.87 402.32 C 753.70 388.12 746.42 373.57 733.31 365.70 C 730.71 364.15 728.14 362.22 725.04 361.90 C 721.04 361.27 716.65 361.23 713.24 358.79 C 711.32 357.62 711.51 355.14 710.99 353.26 C 696.71 354.79 682.34 355.20 668.01 355.90 C 669.52 364.74 669.10 373.73 669.73 382.62 C 675.66 392.37 681.49 402.37 689.19 410.89 C 692.89 415.15 696.87 419.14 700.94 423.05 C 707.74 429.47 713.10 437.33 717.16 445.73 C 722.83 458.30 723.05 472.47 722.17 485.99 C 721.65 492.13 722.59 498.34 721.48 504.44 C 725.65 511.89 729.14 519.78 734.36 526.61 C 738.86 532.60 743.88 538.52 745.95 545.88 C 748.94 556.35 750.90 567.07 753.63 577.60 C 756.81 589.99 758.94 602.61 760.74 615.26 C 767.34 621.59 772.70 629.14 776.80 637.30 C 780.23 643.62 782.70 650.42 786.23 656.70 C 793.52 669.58 801.41 682.10 809.45 694.53 C 818.40 708.22 825.78 722.88 832.04 737.99 C 837.07 749.53 840.44 761.72 845.79 773.12 C 855.50 795.18 863.33 818.24 876.23 838.74 C 877.33 840.90 879.24 842.44 881.24 843.75 C 893.82 852.43 900.74 867.02 913.47 875.54 C 919.58 880.21 926.85 883.16 932.57 888.37 C 937.83 893.05 943.97 897.12 947.50 903.40 C 949.97 907.52 950.13 912.64 949.11 917.23 C 947.54 923.03 941.93 926.28 936.93 928.82 C 925.39 934.30 913.27 938.54 900.85 941.56 C 893.08 943.71 884.95 944.32 876.92 943.73 C 869.14 942.76 861.70 939.40 855.76 934.28 C 842.86 923.11 832.51 908.54 828.09 891.92 C 825.12 882.21 824.94 871.95 825.52 861.91 C 819.21 857.22 815.91 849.87 810.85 844.06 C 796.59 827.04 780.60 811.44 767.75 793.26 C 758.88 780.78 751.33 767.42 744.13 753.93 C 736.14 739.02 729.86 723.24 721.40 708.57 C 712.83 694.09 701.80 681.30 692.40 667.38 C 684.45 671.34 676.01 674.13 667.41 676.24 C 660.12 678.31 652.49 679.47 644.92 678.75 C 641.25 678.30 638.46 675.59 635.84 673.23 C 627.22 665.49 622.41 654.67 617.79 644.29 C 610.49 627.35 602.60 610.64 593.25 594.73 C 589.69 588.86 585.53 583.39 581.32 577.99 C 572.13 582.57 562.98 587.44 555.18 594.20 C 545.12 602.80 536.46 612.87 527.36 622.44 C 515.67 634.74 505.30 648.25 493.04 660.01 C 488.56 664.91 482.96 668.70 479.00 674.08 C 476.72 677.16 472.86 678.31 469.29 679.11 C 461.26 680.81 453.01 679.13 445.28 676.80 C 430.42 672.15 415.60 666.85 402.24 658.71 C 380.84 672.41 359.84 686.93 340.70 703.70 C 319.51 722.47 311.39 750.74 295.26 773.25 C 285.73 785.30 275.58 796.85 265.64 808.57 C 258.89 816.59 252.71 825.07 246.49 833.52 C 235.36 847.89 224.85 862.74 214.95 877.98 C 209.85 884.65 205.51 892.39 197.96 896.63 C 200.86 908.60 201.16 921.40 197.16 933.15 C 194.28 940.24 186.62 943.42 179.87 945.72 C 159.63 952.11 138.09 952.29 117.07 951.52 C 97.59 950.04 77.56 953.22 58.53 947.60 C 47.99 944.75 37.03 940.72 29.79 932.11 C 27.06 929.21 27.88 924.67 29.46 921.41 C 33.14 914.61 40.45 911.05 47.27 908.17 C 65.73 900.50 84.59 893.67 102.36 884.45 C 120.75 874.47 138.85 863.34 159.23 857.85 C 160.56 849.47 164.55 841.86 168.18 834.29 C 175.67 819.75 183.46 805.36 190.48 790.59 C 199.00 773.55 206.69 756.11 214.93 738.94 C 221.73 724.68 229.87 711.04 239.67 698.64 C 249.44 685.49 261.24 673.83 269.58 659.65 C 274.00 651.55 278.29 643.30 284.10 636.08 C 294.95 623.19 308.99 613.65 321.44 602.45 C 327.70 596.96 332.11 589.82 337.85 583.83 C 341.39 580.14 344.32 575.92 347.09 571.63 C 338.08 569.30 328.91 565.53 322.87 558.15 C 320.11 554.90 318.58 550.20 320.23 546.10 C 321.33 543.92 323.31 542.39 324.72 540.42 C 324.47 537.14 322.39 534.30 321.94 531.04 C 321.16 524.73 323.69 518.46 327.77 513.73 C 327.76 510.11 327.72 506.13 330.13 503.17 C 333.29 498.87 338.43 496.82 343.35 495.27 C 343.69 492.70 343.73 490.03 344.69 487.61 C 346.50 484.03 350.54 482.65 353.96 481.14 C 354.77 477.19 356.21 473.13 355.11 469.09 C 353.17 460.38 349.82 451.29 352.40 442.36 C 353.43 437.20 354.81 432.10 355.58 426.89 C 356.63 419.48 348.86 414.35 349.45 407.01 C 349.79 399.50 352.93 392.46 353.38 384.95 C 354.33 377.27 352.68 369.58 353.46 361.89 C 354.30 352.13 356.54 342.55 359.47 333.21 C 362.67 325.77 360.47 317.57 361.99 309.82 C 363.34 301.51 367.39 293.93 372.10 287.06 C 381.60 273.28 394.19 261.88 408.01 252.55 C 400.65 249.22 395.07 243.21 390.87 236.45 C 388.69 237.59 386.54 239.52 383.91 239.17 C 381.16 238.67 380.37 235.65 379.88 233.32 C 377.61 221.39 376.36 209.02 371.11 197.92 C 368.94 193.34 364.82 190.11 362.31 185.76 C 360.10 181.90 359.72 177.36 359.81 173.01 C 358.30 174.59 356.19 177.14 353.87 175.22 C 351.76 172.94 353.72 169.98 354.57 167.60 C 357.15 161.74 359.01 154.54 355.33 148.72 C 352.05 143.46 351.58 136.84 354.07 131.16 C 356.98 121.19 364.46 113.69 371.79 106.75 C 384.61 95.22 397.79 84.10 411.11 73.15 C 422.24 63.98 435.21 56.86 449.23 53.29 M 409.31 133.75 C 408.42 139.70 407.40 145.63 406.61 151.60 C 417.04 151.24 427.50 150.98 437.93 151.28 C 441.22 151.55 440.76 155.53 441.02 157.89 C 441.02 164.81 441.75 171.93 439.72 178.65 C 437.05 175.10 438.66 170.35 438.24 166.25 C 427.32 165.97 416.39 166.12 405.47 166.19 C 405.86 173.02 406.07 180.06 408.64 186.50 C 410.12 190.33 413.21 193.14 415.71 196.29 C 418.65 199.95 420.39 204.36 422.24 208.64 C 426.67 219.39 433.18 229.33 441.62 237.37 C 445.76 241.38 452.16 239.90 457.00 238.09 C 471.64 232.32 485.59 224.98 499.31 217.31 C 502.28 215.80 505.36 213.39 508.90 214.49 C 506.79 219.09 501.96 221.21 498.03 223.94 C 487.95 230.09 478.00 236.61 466.99 240.99 C 461.04 243.40 454.82 245.48 448.33 245.42 C 449.06 251.34 449.57 257.42 451.92 262.97 C 453.17 266.22 456.31 268.10 459.06 269.95 C 466.02 274.12 473.63 277.92 481.92 278.14 C 493.28 278.48 504.93 275.70 514.55 269.53 C 522.20 264.69 527.03 256.36 528.84 247.63 C 525.08 240.91 521.45 233.94 519.92 226.33 C 517.86 217.69 518.44 208.71 519.07 199.94 C 519.60 196.55 519.34 192.84 521.12 189.79 C 524.23 189.08 527.84 190.82 530.55 188.55 C 536.78 184.11 538.67 176.12 541.25 169.34 C 543.20 164.59 543.85 159.42 543.19 154.34 C 534.75 160.82 529.58 170.73 520.69 176.74 C 519.43 177.60 517.64 177.32 516.84 175.99 C 516.72 173.24 517.66 170.60 518.24 167.95 C 519.80 161.61 519.93 155.03 519.89 148.54 C 514.53 146.14 509.18 143.74 504.01 140.95 C 497.70 137.56 490.25 136.78 484.27 132.70 C 476.68 127.55 471.58 119.46 468.69 110.87 C 461.34 120.06 451.78 127.08 443.95 135.79 C 442.42 134.67 442.28 132.73 441.78 131.07 C 440.84 127.24 438.16 124.21 435.87 121.12 C 431.71 115.70 428.02 109.89 425.36 103.58 C 418.53 112.66 410.58 122.02 409.31 133.75 M 594.15 220.51 C 594.06 228.13 593.88 235.84 592.17 243.29 C 591.05 246.69 589.64 250.82 586.05 252.26 C 583.11 251.52 583.74 247.81 582.87 245.57 C 581.11 249.55 579.85 253.81 577.37 257.43 C 576.13 259.09 574.32 260.99 572.03 260.27 C 570.74 257.82 570.67 254.97 570.08 252.32 C 565.23 256.43 560.89 261.66 554.77 263.87 C 552.06 265.06 549.80 263.18 548.15 261.26 C 542.52 259.72 537.12 257.28 532.97 253.08 C 530.96 260.14 527.40 266.94 521.77 271.78 C 511.99 280.33 498.74 283.85 485.99 284.49 C 474.95 285.11 464.20 280.95 455.22 274.77 C 449.27 270.57 446.96 263.34 444.86 256.72 C 434.16 256.91 423.21 257.78 412.82 254.58 C 401.08 263.81 389.10 273.02 380.02 285.03 C 374.28 292.44 369.10 300.68 367.28 310.01 C 366.15 315.30 366.45 320.73 366.05 326.08 C 365.58 332.72 361.83 338.48 360.48 344.90 C 359.44 349.89 358.59 354.93 358.04 360.00 C 356.99 368.67 358.94 377.38 358.02 386.07 C 357.66 393.22 354.72 399.92 354.14 407.03 C 353.83 409.40 354.87 411.60 355.68 413.76 C 363.97 411.80 373.33 412.53 380.18 418.00 C 380.03 418.47 379.75 419.39 379.61 419.86 C 372.57 419.65 365.71 417.31 358.59 417.87 C 361.01 423.81 359.70 430.26 357.55 436.06 C 367.01 430.72 379.56 430.01 388.91 435.92 C 388.85 436.49 388.74 437.63 388.69 438.20 C 379.64 438.04 369.87 435.96 361.42 440.37 C 358.53 441.70 356.95 444.78 356.91 447.88 C 356.72 456.06 359.67 463.87 360.52 471.95 C 373.18 466.49 388.23 466.65 400.73 472.53 C 405.42 462.40 407.20 451.17 406.89 440.07 C 406.61 433.18 407.12 426.16 409.70 419.70 C 411.73 413.08 416.20 407.27 416.78 400.23 C 414.11 396.94 412.36 392.81 409.16 390.01 C 395.96 386.41 384.34 378.58 374.21 369.57 C 377.07 367.08 380.05 369.85 382.56 371.39 C 390.52 376.50 398.65 381.69 407.84 384.30 C 403.64 377.28 399.84 370.04 396.42 362.62 C 393.36 355.93 389.63 349.57 386.67 342.83 C 388.57 343.06 390.38 343.85 391.27 345.64 C 396.92 354.56 401.37 364.18 406.51 373.40 C 413.66 386.74 422.44 399.18 432.63 410.38 C 440.47 420.44 447.66 431.07 453.59 442.38 C 455.49 445.94 458.05 449.47 461.99 450.92 C 468.83 453.55 476.63 452.86 483.44 450.48 C 492.30 446.61 498.33 438.37 502.83 430.10 C 504.62 434.55 501.52 438.62 499.02 442.03 C 494.81 447.42 490.22 453.11 483.59 455.53 C 473.76 459.10 461.63 459.11 453.38 451.92 C 451.14 455.48 448.35 458.62 445.72 461.89 C 444.04 463.79 443.92 466.72 445.01 468.94 C 446.94 472.73 450.58 475.60 454.78 476.43 C 461.70 478.11 468.84 478.96 475.97 479.13 C 493.74 479.08 510.95 473.63 527.33 467.18 C 541.04 462.08 552.57 452.79 564.02 443.96 C 565.39 442.71 567.19 442.34 569.00 442.38 C 566.47 446.33 562.64 449.12 559.08 452.08 C 550.64 458.93 541.82 465.53 531.75 469.79 C 514.12 477.43 495.37 483.56 475.98 483.80 C 467.61 484.03 459.39 482.18 451.15 481.01 C 447.11 480.53 443.93 477.86 441.12 475.13 C 440.01 477.60 438.72 480.16 439.12 482.96 C 439.07 486.18 440.50 490.19 437.75 492.70 C 434.05 495.75 429.02 497.06 426.04 501.00 C 423.77 503.89 424.26 507.77 424.15 511.20 C 432.02 515.35 440.61 517.83 449.22 519.92 C 465.82 523.78 482.93 526.06 499.99 524.90 C 521.20 523.69 541.88 518.65 562.71 514.88 C 583.92 510.70 605.44 508.22 627.03 507.03 C 652.68 505.83 678.34 504.93 704.02 504.67 C 708.51 504.87 712.75 503.26 716.92 501.80 C 716.28 493.54 716.69 485.26 717.05 476.99 C 717.08 465.93 715.86 454.40 710.39 444.57 C 706.55 437.70 701.90 431.23 696.18 425.78 C 685.34 415.17 675.70 403.06 669.61 389.06 C 670.06 401.72 669.56 414.41 670.19 427.06 C 670.10 429.52 671.39 432.21 670.16 434.52 C 667.05 434.87 666.72 431.31 666.30 429.07 C 663.28 404.84 665.39 380.38 664.81 356.05 C 655.83 356.29 646.88 357.24 638.06 358.90 C 633.48 359.74 628.91 360.75 624.24 360.95 C 626.22 357.39 630.46 356.95 633.99 355.94 C 643.11 353.50 652.49 352.16 661.91 351.60 C 676.96 350.68 692.02 349.94 707.07 349.03 C 712.10 348.80 716.85 346.91 721.81 346.33 C 723.34 346.10 723.93 347.64 723.98 348.90 C 722.26 352.13 717.59 352.15 715.82 355.31 C 720.29 357.04 725.15 357.24 729.89 357.61 C 736.94 358.06 743.96 359.08 750.86 360.59 C 751.84 361.08 755.36 361.45 752.90 363.13 C 747.23 364.46 741.22 362.70 735.46 362.45 C 747.18 368.69 754.89 380.26 759.80 392.27 C 765.37 406.22 767.72 421.63 765.75 436.57 C 777.85 432.34 790.94 431.66 803.60 433.20 C 799.49 402.60 799.09 371.19 789.50 341.59 C 785.27 329.33 779.90 317.30 772.13 306.86 C 764.85 297.30 754.52 290.81 744.47 284.55 C 730.16 276.67 715.01 270.51 700.03 264.07 C 683.27 257.36 666.76 250.08 650.31 242.67 C 638.23 237.37 627.20 229.91 614.83 225.23 C 608.20 222.65 601.14 221.56 594.15 220.51 M 420.71 405.34 C 419.92 415.01 412.93 423.09 413.10 432.98 C 413.27 445.69 413.10 458.90 407.94 470.76 C 407.12 472.99 405.68 475.28 406.38 477.76 C 407.48 484.13 408.78 490.59 408.08 497.08 C 407.63 501.38 405.48 505.20 403.99 509.20 C 409.38 505.91 414.33 501.89 420.29 499.62 C 423.64 494.57 428.99 491.55 434.28 488.91 C 434.18 484.99 433.55 480.88 435.08 477.14 C 435.95 474.80 437.74 473.01 439.36 471.19 C 438.88 467.63 438.08 463.60 440.37 460.46 C 443.52 456.14 447.79 452.75 450.68 448.20 C 446.17 439.89 442.19 431.21 436.59 423.54 C 431.32 417.46 425.56 411.78 420.71 405.34 M 759.05 444.84 C 757.27 453.51 757.04 462.42 755.07 471.06 C 753.00 480.41 749.27 489.33 744.63 497.69 C 742.65 501.08 742.05 505.11 742.82 508.96 C 744.22 517.17 746.75 525.14 748.88 533.19 C 749.92 536.25 750.44 539.77 752.76 542.18 C 754.62 542.64 756.56 542.66 758.48 542.81 C 759.83 527.65 761.30 512.46 764.54 497.56 C 764.93 495.82 766.18 494.46 767.15 493.02 C 767.83 500.39 766.15 507.68 765.86 515.03 C 764.96 529.40 762.18 543.59 761.70 557.99 C 761.73 563.31 761.73 569.61 766.04 573.44 C 768.92 572.76 771.66 570.73 772.70 567.91 C 773.31 564.32 773.07 560.66 773.50 557.06 C 774.47 547.90 777.47 539.13 779.11 530.10 C 780.30 524.03 780.64 517.81 782.26 511.83 C 785.01 516.09 783.28 521.32 783.18 526.03 C 782.43 539.58 776.65 552.46 777.15 566.13 C 777.25 569.13 778.29 573.28 781.82 573.77 C 785.41 573.70 788.37 571.16 790.91 568.86 C 794.81 565.32 795.29 559.78 797.03 555.10 C 800.24 546.01 802.59 536.60 803.47 526.98 C 804.03 522.43 803.89 517.77 805.03 513.31 C 805.54 513.26 806.56 513.16 807.07 513.11 C 808.62 520.96 807.88 529.12 806.70 536.98 C 805.27 546.53 801.45 555.46 798.81 564.68 C 798.11 567.66 797.11 571.92 800.46 573.69 C 804.10 573.60 806.67 570.39 808.94 567.91 C 815.09 560.83 815.80 551.16 818.68 542.61 C 821.51 533.80 821.47 524.50 822.11 515.37 C 823.30 517.02 824.48 518.83 824.38 520.97 C 824.75 529.30 824.15 537.74 822.03 545.83 C 820.86 550.84 819.14 555.82 819.09 561.01 C 818.95 562.65 819.86 565.16 821.93 564.69 C 825.70 563.72 828.40 560.39 829.93 556.96 C 835.08 545.40 836.54 532.05 833.16 519.78 C 830.15 507.65 823.74 496.52 822.07 484.03 C 820.22 470.21 815.92 456.87 811.15 443.81 C 809.96 439.90 805.95 437.99 802.10 438.00 C 787.62 436.99 771.72 436.67 759.05 444.84 M 364.21 475.06 C 361.25 475.64 358.93 477.57 357.35 480.09 C 366.72 479.09 376.95 476.70 385.77 481.23 C 393.48 485.67 398.23 493.58 402.43 501.15 C 403.51 494.05 402.29 486.95 401.01 479.97 C 390.08 473.49 376.45 471.32 364.21 475.06 M 359.80 485.43 C 356.44 486.17 352.79 486.82 350.13 489.17 C 348.36 492.21 349.75 496.54 347.26 499.26 C 343.39 501.52 338.34 501.70 335.21 505.23 C 332.19 507.91 333.89 512.28 332.86 515.71 C 331.08 518.94 328.13 521.62 327.54 525.42 C 326.41 529.75 328.77 533.83 329.47 538.01 C 330.83 543.26 322.94 545.69 324.63 550.98 C 326.20 555.75 330.68 558.75 334.82 561.17 C 345.38 567.13 357.97 567.48 369.75 566.48 C 366.61 561.66 362.81 557.26 358.30 553.67 C 352.94 548.90 346.22 545.30 342.43 539.02 C 342.82 538.69 343.60 538.02 343.99 537.68 C 351.06 540.53 356.56 546.03 362.83 550.18 C 367.20 552.38 372.23 552.81 377.03 553.32 C 381.81 553.93 386.69 552.63 390.04 549.05 C 379.82 539.78 367.76 532.83 355.59 526.45 C 353.74 525.26 350.86 524.36 351.30 521.61 C 361.54 522.93 370.31 529.01 379.15 533.89 C 384.97 536.31 391.64 536.11 397.50 533.91 C 394.78 526.45 388.42 521.36 382.62 516.33 C 379.39 513.47 375.46 511.03 373.55 507.01 C 373.92 504.20 376.97 505.37 378.53 506.40 C 384.87 510.64 390.26 516.11 395.73 521.40 C 397.00 519.41 398.78 517.53 398.80 515.03 C 399.47 507.78 395.46 501.22 391.46 495.53 C 387.85 490.70 383.41 485.47 377.03 484.71 C 371.30 484.04 365.47 484.47 359.80 485.43 M 285.96 643.01 C 279.27 652.06 275.47 662.85 268.69 671.85 C 274.53 681.43 284.14 687.87 293.74 693.24 C 303.83 698.51 314.59 703.11 326.03 704.23 C 328.90 704.28 332.33 704.81 334.65 702.70 C 351.95 686.65 371.30 673.01 390.83 659.85 C 407.11 649.48 423.20 638.70 440.50 630.05 C 425.71 621.80 408.60 620.49 392.40 616.79 C 379.12 613.73 365.81 610.84 352.42 608.30 C 344.85 606.85 337.19 605.16 330.32 601.54 C 316.47 616.34 298.14 626.56 285.96 643.01 M 698.27 615.17 C 690.12 617.31 682.68 621.44 675.90 626.36 C 677.90 632.91 680.63 639.21 683.70 645.33 C 687.78 654.10 694.48 661.23 699.76 669.24 C 707.03 680.02 715.42 689.98 722.72 700.73 C 735.61 701.60 747.63 695.19 757.59 687.60 C 768.18 679.22 777.95 667.84 779.10 653.82 C 774.07 642.18 768.73 630.41 760.12 620.92 C 757.25 617.21 752.12 617.17 748.01 615.76 C 731.88 611.03 714.52 611.04 698.27 615.17 M 855.35 842.52 C 852.42 843.62 850.46 846.23 848.05 848.11 C 844.82 850.90 840.44 851.64 836.88 853.88 C 833.56 856.19 831.89 860.23 831.60 864.16 C 831.17 870.05 831.32 876.01 832.10 881.87 C 835.13 900.63 845.91 917.51 860.20 929.79 C 868.03 936.43 878.79 939.73 888.98 938.07 C 895.19 936.83 901.26 934.97 907.36 933.27 C 918.36 929.80 929.54 926.30 939.60 920.58 C 943.90 918.40 945.00 913.38 944.95 908.97 C 945.59 904.07 941.17 900.88 937.95 898.03 C 932.01 893.59 926.21 888.88 919.59 885.50 C 910.48 880.69 902.19 874.25 895.74 866.19 C 889.64 859.34 884.18 851.40 875.84 847.08 C 869.66 843.71 862.48 840.83 855.35 842.52 M 151.19 866.21 C 134.29 872.23 119.13 881.96 103.36 890.33 C 86.26 899.02 68.17 905.48 50.27 912.30 C 43.59 915.04 35.95 917.82 32.24 924.49 C 32.18 927.16 34.42 929.05 36.19 930.75 C 43.98 937.82 54.25 941.06 64.21 943.70 C 75.24 946.58 86.74 945.73 98.02 946.19 C 120.70 945.47 143.50 945.92 166.03 942.89 C 173.83 941.59 182.09 940.36 188.72 935.74 C 193.74 932.23 194.25 925.63 195.14 920.10 C 196.32 912.91 195.32 905.65 194.39 898.50 C 192.00 898.34 189.61 898.20 187.22 898.08 C 185.44 891.14 187.94 883.41 184.06 877.02 C 180.72 870.16 174.47 864.62 167.02 862.77 C 161.50 861.85 156.28 864.48 151.19 866.21 Z" />
<path fill="#020202" opacity="1.00" d=" M 456.33 151.45 C 457.78 150.83 459.41 151.00 460.96 150.91 C 472.38 150.88 483.82 150.23 495.23 150.74 C 496.20 155.09 496.25 159.65 495.90 164.08 C 495.30 166.16 492.63 165.23 491.04 165.61 C 479.56 165.62 468.00 166.42 456.57 165.43 C 455.42 161.05 454.11 155.54 456.33 151.45 Z" />
<path fill="#020202" opacity="1.00" d=" M 444.35 185.94 C 448.23 183.77 451.84 181.06 456.09 179.61 C 453.41 183.71 450.25 187.47 447.13 191.24 C 445.93 192.57 444.08 194.17 442.21 193.10 C 439.60 191.11 437.53 188.46 435.72 185.75 C 435.91 185.38 436.29 184.63 436.49 184.26 C 439.16 184.52 441.74 185.31 444.35 185.94 Z" />
<path fill="#020202" opacity="1.00" d=" M 434.93 202.10 C 446.31 201.30 457.68 199.84 469.10 199.94 C 469.16 202.25 467.34 203.03 465.43 203.51 C 465.22 205.52 465.14 207.57 464.50 209.51 C 455.81 211.40 446.79 211.15 437.96 212.12 C 436.36 211.97 433.93 212.99 433.18 210.99 C 432.29 209.27 431.88 207.36 431.32 205.53 C 429.98 205.32 428.65 205.10 427.32 204.86 C 428.68 201.87 432.29 202.57 434.93 202.10 Z" />
<path fill="#020202" opacity="1.00" d=" M 624.56 328.35 C 654.18 321.44 684.73 320.50 715.00 319.59 C 717.62 319.44 720.29 319.63 722.67 320.89 C 717.31 323.88 711.02 323.72 705.10 324.35 C 682.34 326.00 659.60 328.06 636.98 331.08 C 630.48 331.66 623.99 333.13 617.45 332.75 C 617.21 332.28 616.73 331.36 616.50 330.90 C 618.81 329.13 621.83 329.03 624.56 328.35 Z" />
<path fill="#020202" opacity="1.00" d=" M 667.55 460.38 C 670.50 459.46 673.58 459.05 676.67 459.12 C 672.68 463.05 666.92 463.88 661.94 465.98 C 642.43 473.42 622.47 479.54 602.96 486.97 C 585.35 493.26 567.94 500.58 549.40 503.76 C 527.66 508.28 505.20 507.96 483.29 504.86 C 472.13 503.22 460.86 501.97 449.92 499.19 C 448.00 498.92 447.00 497.22 446.13 495.72 C 448.39 495.64 450.67 495.68 452.92 495.99 C 473.83 498.98 494.87 501.50 516.01 501.86 C 539.17 502.04 562.26 497.24 583.79 488.81 C 599.06 483.34 614.21 477.53 629.70 472.72 C 642.35 468.69 654.83 464.15 667.55 460.38 Z" />
</g>
<g id="#f0b58bff">
<path fill="#f0b58b" opacity="1.00" d=" M 409.31 133.75 C 410.58 122.02 418.53 112.66 425.36 103.58 C 428.02 109.89 431.71 115.70 435.87 121.12 C 438.16 124.21 440.84 127.24 441.78 131.07 C 442.28 132.73 442.42 134.67 443.95 135.79 C 451.78 127.08 461.34 120.06 468.69 110.87 C 471.58 119.46 476.68 127.55 484.27 132.70 C 490.25 136.78 497.70 137.56 504.01 140.95 C 509.18 143.74 514.53 146.14 519.89 148.54 C 519.93 155.03 519.80 161.61 518.24 167.95 C 517.66 170.60 516.72 173.24 516.84 175.99 C 517.64 177.32 519.43 177.60 520.69 176.74 C 529.58 170.73 534.75 160.82 543.19 154.34 C 543.85 159.42 543.20 164.59 541.25 169.34 C 538.67 176.12 536.78 184.11 530.55 188.55 C 527.84 190.82 524.23 189.08 521.12 189.79 C 519.34 192.84 519.60 196.55 519.07 199.94 C 518.44 208.71 517.86 217.69 519.92 226.33 C 521.45 233.94 525.08 240.91 528.84 247.63 C 527.03 256.36 522.20 264.69 514.55 269.53 C 504.93 275.70 493.28 278.48 481.92 278.14 C 473.63 277.92 466.02 274.12 459.06 269.95 C 456.31 268.10 453.17 266.22 451.92 262.97 C 449.57 257.42 449.06 251.34 448.33 245.42 C 454.82 245.48 461.04 243.40 466.99 240.99 C 478.00 236.61 487.95 230.09 498.03 223.94 C 501.96 221.21 506.79 219.09 508.90 214.49 C 505.36 213.39 502.28 215.80 499.31 217.31 C 485.59 224.98 471.64 232.32 457.00 238.09 C 452.16 239.90 445.76 241.38 441.62 237.37 C 433.18 229.33 426.67 219.39 422.24 208.64 C 420.39 204.36 418.65 199.95 415.71 196.29 C 413.21 193.14 410.12 190.33 408.64 186.50 C 406.07 180.06 405.86 173.02 405.47 166.19 C 416.39 166.12 427.32 165.97 438.24 166.25 C 438.66 170.35 437.05 175.10 439.72 178.65 C 441.75 171.93 441.02 164.81 441.02 157.89 C 440.76 155.53 441.22 151.55 437.93 151.28 C 427.50 150.98 417.04 151.24 406.61 151.60 C 407.40 145.63 408.42 139.70 409.31 133.75 M 456.33 151.45 C 454.11 155.54 455.42 161.05 456.57 165.43 C 468.00 166.42 479.56 165.62 491.04 165.61 C 492.63 165.23 495.30 166.16 495.90 164.08 C 496.25 159.65 496.20 155.09 495.23 150.74 C 483.82 150.23 472.38 150.88 460.96 150.91 C 459.41 151.00 457.78 150.83 456.33 151.45 M 444.35 185.94 C 441.74 185.31 439.16 184.52 436.49 184.26 C 436.29 184.63 435.91 185.38 435.72 185.75 C 437.53 188.46 439.60 191.11 442.21 193.10 C 444.08 194.17 445.93 192.57 447.13 191.24 C 450.25 187.47 453.41 183.71 456.09 179.61 C 451.84 181.06 448.23 183.77 444.35 185.94 M 434.93 202.10 C 432.29 202.57 428.68 201.87 427.32 204.86 C 428.65 205.10 429.98 205.32 431.32 205.53 C 431.88 207.36 432.29 209.27 433.18 210.99 C 433.93 212.99 436.36 211.97 437.96 212.12 C 446.79 211.15 455.81 211.40 464.50 209.51 C 465.14 207.57 465.22 205.52 465.43 203.51 C 467.34 203.03 469.16 202.25 469.10 199.94 C 457.68 199.84 446.31 201.30 434.93 202.10 Z" />
<path fill="#f0b58b" opacity="1.00" d=" M 285.96 643.01 C 298.14 626.56 316.47 616.34 330.32 601.54 C 337.19 605.16 344.85 606.85 352.42 608.30 C 365.81 610.84 379.12 613.73 392.40 616.79 C 408.60 620.49 425.71 621.80 440.50 630.05 C 423.20 638.70 407.11 649.48 390.83 659.85 C 371.30 673.01 351.95 686.65 334.65 702.70 C 332.33 704.81 328.90 704.28 326.03 704.23 C 314.59 703.11 303.83 698.51 293.74 693.24 C 284.14 687.87 274.53 681.43 268.69 671.85 C 275.47 662.85 279.27 652.06 285.96 643.01 Z" />
<path fill="#f0b58b" opacity="1.00" d=" M 698.27 615.17 C 714.52 611.04 731.88 611.03 748.01 615.76 C 752.12 617.17 757.25 617.21 760.12 620.92 C 768.73 630.41 774.07 642.18 779.10 653.82 C 777.95 667.84 768.18 679.22 757.59 687.60 C 747.63 695.19 735.61 701.60 722.72 700.73 C 715.42 689.98 707.03 680.02 699.76 669.24 C 694.48 661.23 687.78 654.10 683.70 645.33 C 680.63 639.21 677.90 632.91 675.90 626.36 C 682.68 621.44 690.12 617.31 698.27 615.17 Z" />
</g>
<g id="#f35e11ff">
<path fill="var(--shirt-color, grey)" opacity="1.00" d=" M 594.15 220.51 C 601.14 221.56 608.20 222.65 614.83 225.23 C 627.20 229.91 638.23 237.37 650.31 242.67 C 666.76 250.08 683.27 257.36 700.03 264.07 C 715.01 270.51 730.16 276.67 744.47 284.55 C 754.52 290.81 764.85 297.30 772.13 306.86 C 779.90 317.30 785.27 329.33 789.50 341.59 C 799.09 371.19 799.49 402.60 803.60 433.20 C 790.94 431.66 777.85 432.34 765.75 436.57 C 767.72 421.63 765.37 406.22 759.80 392.27 C 754.89 380.26 747.18 368.69 735.46 362.45 C 741.22 362.70 747.23 364.46 752.90 363.13 C 755.36 361.45 751.84 361.08 750.86 360.59 C 743.96 359.08 736.94 358.06 729.89 357.61 C 725.15 357.24 720.29 357.04 715.82 355.31 C 717.59 352.15 722.26 352.13 723.98 348.90 C 723.93 347.64 723.34 346.10 721.81 346.33 C 716.85 346.91 712.10 348.80 707.07 349.03 C 692.02 349.94 676.96 350.68 661.91 351.60 C 652.49 352.16 643.11 353.50 633.99 355.94 C 630.46 356.95 626.22 357.39 624.24 360.95 C 628.91 360.75 633.48 359.74 638.06 358.90 C 646.88 357.24 655.83 356.29 664.81 356.05 C 665.39 380.38 663.28 404.84 666.30 429.07 C 666.72 431.31 667.05 434.87 670.16 434.52 C 671.39 432.21 670.10 429.52 670.19 427.06 C 669.56 414.41 670.06 401.72 669.61 389.06 C 675.70 403.06 685.34 415.17 696.18 425.78 C 701.90 431.23 706.55 437.70 710.39 444.57 C 715.86 454.40 717.08 465.93 717.05 476.99 C 716.69 485.26 716.28 493.54 716.92 501.80 C 712.75 503.26 708.51 504.87 704.02 504.67 C 678.34 504.93 652.68 505.83 627.03 507.03 C 605.44 508.22 583.92 510.70 562.71 514.88 C 541.88 518.65 521.20 523.69 499.99 524.90 C 482.93 526.06 465.82 523.78 449.22 519.92 C 440.61 517.83 432.02 515.35 424.15 511.20 C 424.26 507.77 423.77 503.89 426.04 501.00 C 429.02 497.06 434.05 495.75 437.75 492.70 C 440.50 490.19 439.07 486.18 439.12 482.96 C 438.72 480.16 440.01 477.60 441.12 475.13 C 443.93 477.86 447.11 480.53 451.15 481.01 C 459.39 482.18 467.61 484.03 475.98 483.80 C 495.37 483.56 514.12 477.43 531.75 469.79 C 541.82 465.53 550.64 458.93 559.08 452.08 C 562.64 449.12 566.47 446.33 569.00 442.38 C 567.19 442.34 565.39 442.71 564.02 443.96 C 552.57 452.79 541.04 462.08 527.33 467.18 C 510.95 473.63 493.74 479.08 475.97 479.13 C 468.84 478.96 461.70 478.11 454.78 476.43 C 450.58 475.60 446.94 472.73 445.01 468.94 C 443.92 466.72 444.04 463.79 445.72 461.89 C 448.35 458.62 451.14 455.48 453.38 451.92 C 461.63 459.11 473.76 459.10 483.59 455.53 C 490.22 453.11 494.81 447.42 499.02 442.03 C 501.52 438.62 504.62 434.55 502.83 430.10 C 498.33 438.37 492.30 446.61 483.44 450.48 C 476.63 452.86 468.83 453.55 461.99 450.92 C 458.05 449.47 455.49 445.94 453.59 442.38 C 447.66 431.07 440.47 420.44 432.63 410.38 C 422.44 399.18 413.66 386.74 406.51 373.40 C 401.37 364.18 396.92 354.56 391.27 345.64 C 390.38 343.85 388.57 343.06 386.67 342.83 C 389.63 349.57 393.36 355.93 396.42 362.62 C 399.84 370.04 403.64 377.28 407.84 384.30 C 398.65 381.69 390.52 376.50 382.56 371.39 C 380.05 369.85 377.07 367.08 374.21 369.57 C 384.34 378.58 395.96 386.41 409.16 390.01 C 412.36 392.81 414.11 396.94 416.78 400.23 C 416.20 407.27 411.73 413.08 409.70 419.70 C 407.12 426.16 406.61 433.18 406.89 440.07 C 407.20 451.17 405.42 462.40 400.73 472.53 C 388.23 466.65 373.18 466.49 360.52 471.95 C 359.67 463.87 356.72 456.06 356.91 447.88 C 356.95 444.78 358.53 441.70 361.42 440.37 C 369.87 435.96 379.64 438.04 388.69 438.20 C 388.74 437.63 388.85 436.49 388.91 435.92 C 379.56 430.01 367.01 430.72 357.55 436.06 C 359.70 430.26 361.01 423.81 358.59 417.87 C 365.71 417.31 372.57 419.65 379.61 419.86 C 379.75 419.39 380.03 418.47 380.18 418.00 C 373.33 412.53 363.97 411.80 355.68 413.76 C 354.87 411.60 353.83 409.40 354.14 407.03 C 354.72 399.92 357.66 393.22 358.02 386.07 C 358.94 377.38 356.99 368.67 358.04 360.00 C 358.59 354.93 359.44 349.89 360.48 344.90 C 361.83 338.48 365.58 332.72 366.05 326.08 C 366.45 320.73 366.15 315.30 367.28 310.01 C 369.10 300.68 374.28 292.44 380.02 285.03 C 389.10 273.02 401.08 263.81 412.82 254.58 C 423.21 257.78 434.16 256.91 444.86 256.72 C 446.96 263.34 449.27 270.57 455.22 274.77 C 464.20 280.95 474.95 285.11 485.99 284.49 C 498.74 283.85 511.99 280.33 521.77 271.78 C 527.40 266.94 530.96 260.14 532.97 253.08 C 537.12 257.28 542.52 259.72 548.15 261.26 C 549.80 263.18 552.06 265.06 554.77 263.87 C 560.89 261.66 565.23 256.43 570.08 252.32 C 570.67 254.97 570.74 257.82 572.03 260.27 C 574.32 260.99 576.13 259.09 577.37 257.43 C 579.85 253.81 581.11 249.55 582.87 245.57 C 583.74 247.81 583.11 251.52 586.05 252.26 C 589.64 250.82 591.05 246.69 592.17 243.29 C 593.88 235.84 594.06 228.13 594.15 220.51 M 624.56 328.35 C 621.83 329.03 618.81 329.13 616.50 330.90 C 616.73 331.36 617.21 332.28 617.45 332.75 C 623.99 333.13 630.48 331.66 636.98 331.08 C 659.60 328.06 682.34 326.00 705.10 324.35 C 711.02 323.72 717.31 323.88 722.67 320.89 C 720.29 319.63 717.62 319.44 715.00 319.59 C 684.73 320.50 654.18 321.44 624.56 328.35 M 667.55 460.38 C 654.83 464.15 642.35 468.69 629.70 472.72 C 614.21 477.53 599.06 483.34 583.79 488.81 C 562.26 497.24 539.17 502.04 516.01 501.86 C 494.87 501.50 473.83 498.98 452.92 495.99 C 450.67 495.68 448.39 495.64 446.13 495.72 C 447.00 497.22 448.00 498.92 449.92 499.19 C 460.86 501.97 472.13 503.22 483.29 504.86 C 505.20 507.96 527.66 508.28 549.40 503.76 C 567.94 500.58 585.35 493.26 602.96 486.97 C 622.47 479.54 642.43 473.42 661.94 465.98 C 666.92 463.88 672.68 463.05 676.67 459.12 C 673.58 459.05 670.50 459.46 667.55 460.38 Z" />
</g>
<g id="#4d4d4dff">
<path fill="#4d4d4d" opacity="1.00" d=" M 759.05 444.84 C 771.72 436.67 787.62 436.99 802.10 438.00 C 805.95 437.99 809.96 439.90 811.15 443.81 C 815.92 456.87 820.22 470.21 822.07 484.03 C 823.74 496.52 830.15 507.65 833.16 519.78 C 836.54 532.05 835.08 545.40 829.93 556.96 C 828.40 560.39 825.70 563.72 821.93 564.69 C 819.86 565.16 818.95 562.65 819.09 561.01 C 819.14 555.82 820.86 550.84 822.03 545.83 C 824.15 537.74 824.75 529.30 824.38 520.97 C 824.48 518.83 823.30 517.02 822.11 515.37 C 821.47 524.50 821.51 533.80 818.68 542.61 C 815.80 551.16 815.09 560.83 808.94 567.91 C 806.67 570.39 804.10 573.60 800.46 573.69 C 797.11 571.92 798.11 567.66 798.81 564.68 C 801.45 555.46 805.27 546.53 806.70 536.98 C 807.88 529.12 808.62 520.96 807.07 513.11 C 806.56 513.16 805.54 513.26 805.03 513.31 C 803.89 517.77 804.03 522.43 803.47 526.98 C 802.59 536.60 800.24 546.01 797.03 555.10 C 795.29 559.78 794.81 565.32 790.91 568.86 C 788.37 571.16 785.41 573.70 781.82 573.77 C 778.29 573.28 777.25 569.13 777.15 566.13 C 776.65 552.46 782.43 539.58 783.18 526.03 C 783.28 521.32 785.01 516.09 782.26 511.83 C 780.64 517.81 780.30 524.03 779.11 530.10 C 777.47 539.13 774.47 547.90 773.50 557.06 C 773.07 560.66 773.31 564.32 772.70 567.91 C 771.66 570.73 768.92 572.76 766.04 573.44 C 761.73 569.61 761.73 563.31 761.70 557.99 C 762.18 543.59 764.96 529.40 765.86 515.03 C 766.15 507.68 767.83 500.39 767.15 493.02 C 766.18 494.46 764.93 495.82 764.54 497.56 C 761.30 512.46 759.83 527.65 758.48 542.81 C 756.56 542.66 754.62 542.64 752.76 542.18 C 750.44 539.77 749.92 536.25 748.88 533.19 C 746.75 525.14 744.22 517.17 742.82 508.96 C 742.05 505.11 742.65 501.08 744.63 497.69 C 749.27 489.33 753.00 480.41 755.07 471.06 C 757.04 462.42 757.27 453.51 759.05 444.84 Z" />
<path fill="#4d4d4d" opacity="1.00" d=" M 364.21 475.06 C 376.45 471.32 390.08 473.49 401.01 479.97 C 402.29 486.95 403.51 494.05 402.43 501.15 C 398.23 493.58 393.48 485.67 385.77 481.23 C 376.95 476.70 366.72 479.09 357.35 480.09 C 358.93 477.57 361.25 475.64 364.21 475.06 Z" />
<path fill="#4d4d4d" opacity="1.00" d=" M 359.80 485.43 C 365.47 484.47 371.30 484.04 377.03 484.71 C 383.41 485.47 387.85 490.70 391.46 495.53 C 395.46 501.22 399.47 507.78 398.80 515.03 C 398.78 517.53 397.00 519.41 395.73 521.40 C 390.26 516.11 384.87 510.64 378.53 506.40 C 376.97 505.37 373.92 504.20 373.55 507.01 C 375.46 511.03 379.39 513.47 382.62 516.33 C 388.42 521.36 394.78 526.45 397.50 533.91 C 391.64 536.11 384.97 536.31 379.15 533.89 C 370.31 529.01 361.54 522.93 351.30 521.61 C 350.86 524.36 353.74 525.26 355.59 526.45 C 367.76 532.83 379.82 539.78 390.04 549.05 C 386.69 552.63 381.81 553.93 377.03 553.32 C 372.23 552.81 367.20 552.38 362.83 550.18 C 356.56 546.03 351.06 540.53 343.99 537.68 C 343.60 538.02 342.82 538.69 342.43 539.02 C 346.22 545.30 352.94 548.90 358.30 553.67 C 362.81 557.26 366.61 561.66 369.75 566.48 C 357.97 567.48 345.38 567.13 334.82 561.17 C 330.68 558.75 326.20 555.75 324.63 550.98 C 322.94 545.69 330.83 543.26 329.47 538.01 C 328.77 533.83 326.41 529.75 327.54 525.42 C 328.13 521.62 331.08 518.94 332.86 515.71 C 333.89 512.28 332.19 507.91 335.21 505.23 C 338.34 501.70 343.39 501.52 347.26 499.26 C 349.75 496.54 348.36 492.21 350.13 489.17 C 352.79 486.82 356.44 486.17 359.80 485.43 Z" />
<path fill="#4d4d4d" opacity="1.00" d=" M 855.35 842.52 C 862.48 840.83 869.66 843.71 875.84 847.08 C 884.18 851.40 889.64 859.34 895.74 866.19 C 902.19 874.25 910.48 880.69 919.59 885.50 C 926.21 888.88 932.01 893.59 937.95 898.03 C 941.17 900.88 945.59 904.07 944.95 908.97 C 945.00 913.38 943.90 918.40 939.60 920.58 C 929.54 926.30 918.36 929.80 907.36 933.27 C 901.26 934.97 895.19 936.83 888.98 938.07 C 878.79 939.73 868.03 936.43 860.20 929.79 C 845.91 917.51 835.13 900.63 832.10 881.87 C 831.32 876.01 831.17 870.05 831.60 864.16 C 831.89 860.23 833.56 856.19 836.88 853.88 C 840.44 851.64 844.82 850.90 848.05 848.11 C 850.46 846.23 852.42 843.62 855.35 842.52 Z" />
<path fill="#4d4d4d" opacity="1.00" d=" M 151.19 866.21 C 156.28 864.48 161.50 861.85 167.02 862.77 C 174.47 864.62 180.72 870.16 184.06 877.02 C 187.94 883.41 185.44 891.14 187.22 898.08 C 189.61 898.20 192.00 898.34 194.39 898.50 C 195.32 905.65 196.32 912.91 195.14 920.10 C 194.25 925.63 193.74 932.23 188.72 935.74 C 182.09 940.36 173.83 941.59 166.03 942.89 C 143.50 945.92 120.70 945.47 98.02 946.19 C 86.74 945.73 75.24 946.58 64.21 943.70 C 54.25 941.06 43.98 937.82 36.19 930.75 C 34.42 929.05 32.18 927.16 32.24 924.49 C 35.95 917.82 43.59 915.04 50.27 912.30 C 68.17 905.48 86.26 899.02 103.36 890.33 C 119.13 881.96 134.29 872.23 151.19 866.21 Z" />
</g>
</svg>
