<?xml version="1.0" encoding="UTF-8" ?>
<!DOCTYPE svg PUBLIC "-//W3C//DTD SVG 1.1//EN" "http://www.w3.org/Graphics/SVG/1.1/DTD/svg11.dtd">
<svg width="1000pt" height="1000pt" viewBox="0 0 1000 1000" version="1.1" xmlns="http://www.w3.org/2000/svg">
<g id="#020202ff">
<path fill="#020202" opacity="1.00" d=" M 420.40 51.39 C 438.39 42.85 459.20 39.09 478.82 43.63 C 491.80 46.19 502.91 54.94 510.46 65.54 C 512.37 69.15 516.25 73.66 513.23 77.66 C 524.58 92.61 531.03 111.23 531.36 129.99 C 531.59 139.84 525.41 148.18 518.86 154.90 C 514.41 158.96 514.98 165.40 513.72 170.80 C 512.90 174.25 512.23 178.68 508.20 179.75 C 510.29 179.59 512.50 179.44 514.42 180.50 C 526.13 186.12 535.14 195.79 543.90 205.12 C 556.03 218.46 565.78 233.75 574.53 249.46 C 591.86 280.74 606.97 313.21 624.82 344.21 C 636.58 364.75 649.43 384.68 660.15 405.82 C 667.44 420.33 675.05 434.74 680.87 449.93 C 685.35 463.25 689.48 477.62 686.69 491.73 C 690.58 504.49 688.66 517.95 687.15 530.93 C 684.84 555.93 680.71 580.83 680.84 605.99 C 680.82 619.65 681.14 633.31 680.29 646.95 C 679.82 654.39 679.87 661.95 678.11 669.23 C 676.92 673.54 671.72 673.97 668.12 674.99 C 680.63 683.40 693.19 691.91 706.94 698.20 C 717.71 703.32 729.03 707.45 739.05 714.01 C 756.62 725.87 769.84 742.76 782.75 759.30 C 790.10 768.69 796.95 778.47 804.22 787.93 C 813.11 799.68 822.42 811.56 827.16 825.70 C 833.59 831.64 842.28 834.18 849.96 838.08 C 860.56 842.97 870.53 850.42 875.87 861.05 C 879.65 868.56 880.27 878.20 875.35 885.36 C 868.79 895.23 857.38 900.55 846.11 903.01 C 834.64 906.21 822.65 905.45 810.90 906.31 C 800.63 907.23 791.62 912.63 783.20 918.15 C 775.11 922.59 767.27 927.98 758.12 929.98 C 754.36 930.82 750.15 931.33 746.62 929.44 C 740.63 926.30 737.53 919.39 736.83 912.94 C 736.44 902.19 740.77 891.67 747.27 883.27 C 752.69 876.07 760.07 870.72 766.05 864.04 C 771.68 857.79 776.47 850.51 778.36 842.22 C 757.51 828.31 741.07 809.12 723.75 791.26 C 712.62 780.10 700.07 770.36 686.43 762.46 C 671.14 753.59 656.11 744.27 641.15 734.85 C 626.16 725.30 612.06 714.16 600.10 700.97 C 595.10 695.12 590.11 688.83 587.96 681.31 C 575.93 681.25 563.78 681.76 551.91 679.50 C 544.52 678.03 537.28 674.41 532.29 668.70 C 530.19 664.52 530.91 659.55 530.43 655.01 C 514.35 650.98 497.97 648.28 481.59 645.81 C 484.32 670.76 487.21 695.84 485.96 720.99 C 485.00 745.87 482.68 770.74 477.64 795.15 C 476.03 802.76 474.69 810.43 472.84 817.99 C 470.24 828.46 467.92 839.14 463.11 848.88 C 468.44 857.63 477.28 863.63 482.33 872.60 C 487.52 881.66 489.49 892.99 485.92 902.98 C 483.25 910.02 477.00 915.46 469.86 917.66 C 460.31 921.35 450.12 922.81 440.12 924.72 C 432.50 926.27 424.67 925.76 417.02 926.98 C 403.77 928.84 390.39 929.46 377.02 929.49 C 367.71 929.45 357.97 928.90 349.57 924.48 C 345.59 922.42 341.90 918.76 341.67 914.05 C 341.41 908.20 345.06 903.04 349.23 899.30 C 354.98 894.09 362.40 891.45 369.42 888.44 C 384.12 882.19 396.45 871.76 408.52 861.54 C 413.97 857.06 418.95 851.87 425.31 848.66 C 419.65 836.62 418.45 823.12 418.00 810.00 C 417.80 802.34 417.34 794.69 417.46 787.03 C 417.70 770.69 416.94 754.35 417.28 738.01 C 417.61 724.68 417.67 711.33 417.15 698.01 C 415.74 674.50 420.63 651.28 423.89 628.12 C 420.51 625.88 416.58 624.15 413.99 620.94 C 412.67 618.12 414.42 615.05 415.34 612.37 C 423.02 595.65 430.19 578.60 440.14 563.06 C 445.93 554.16 452.08 545.24 460.52 538.62 C 455.64 526.49 459.60 513.33 464.42 501.87 C 460.77 496.95 457.07 491.98 454.75 486.27 C 451.25 478.37 450.16 469.61 450.63 461.04 C 450.62 457.56 451.53 453.65 449.28 450.64 C 438.60 434.87 432.45 416.48 428.73 397.93 C 427.34 391.83 426.97 385.58 427.20 379.34 C 415.45 383.51 404.12 388.81 392.16 392.40 C 372.35 398.69 351.59 401.08 330.98 402.94 C 321.04 403.88 311.01 403.70 301.16 402.05 C 282.10 413.44 260.70 419.83 240.31 428.31 C 228.43 434.12 215.49 437.15 202.83 440.70 C 198.37 441.80 193.40 442.74 189.04 440.81 C 186.18 439.57 185.04 435.94 186.21 433.14 C 188.33 427.61 193.55 424.16 198.43 421.25 C 191.15 422.13 183.22 424.00 176.30 420.64 C 173.02 419.19 171.03 414.63 173.68 411.69 C 177.42 407.76 182.81 406.10 187.73 404.15 C 181.03 403.25 173.51 402.49 168.42 397.56 C 165.82 395.20 165.31 390.52 168.40 388.35 C 173.24 385.02 179.41 384.82 185.05 384.15 C 181.91 382.79 179.04 380.83 177.01 378.04 C 169.52 380.24 161.23 381.78 153.66 379.18 C 150.76 378.17 150.02 375.03 150.15 372.29 C 143.71 372.47 136.95 371.93 131.20 368.78 C 128.98 367.63 127.63 364.86 128.62 362.46 C 129.96 359.05 133.70 357.73 136.75 356.27 C 128.78 355.63 120.11 354.64 113.74 349.33 C 111.21 347.44 110.43 343.21 113.21 341.19 C 118.49 337.55 125.14 336.78 131.34 335.86 C 126.52 334.38 121.23 333.08 117.66 329.28 C 115.70 327.28 115.59 323.67 117.86 321.86 C 120.87 319.45 124.75 318.60 128.38 317.59 C 140.26 314.77 152.50 313.46 164.71 313.85 C 157.89 310.22 150.96 305.90 146.85 299.15 C 144.66 295.50 143.78 290.29 146.80 286.84 C 149.84 283.51 154.85 283.83 158.90 284.56 C 169.62 286.82 179.07 292.81 187.69 299.34 C 192.31 302.88 197.16 306.17 202.53 308.46 C 209.60 311.49 216.94 314.02 223.47 318.19 C 226.30 316.25 229.44 314.83 232.72 313.84 C 248.08 309.00 263.47 304.14 279.15 300.41 C 289.31 297.86 299.28 294.59 309.18 291.20 C 319.91 287.70 330.76 284.24 340.57 278.54 C 356.44 269.15 370.47 257.05 385.71 246.72 C 391.75 242.70 398.77 240.37 405.91 239.29 C 413.80 238.18 421.66 236.84 429.57 235.90 C 421.97 230.95 417.16 223.07 412.72 215.40 C 408.69 208.31 405.74 200.63 401.27 193.79 C 397.90 188.75 392.67 185.46 387.93 181.85 C 386.33 180.57 384.45 179.10 384.28 176.89 C 384.01 171.58 385.96 166.39 385.43 161.07 C 384.64 152.99 380.59 145.77 378.74 137.95 C 377.31 132.17 377.03 126.16 377.71 120.25 C 375.51 123.60 373.10 126.89 371.85 130.74 C 371.09 132.38 371.04 134.78 368.95 135.32 C 366.33 134.90 366.67 131.98 366.60 130.01 C 366.65 121.35 367.17 112.51 370.22 104.33 C 372.57 97.95 376.36 92.17 380.96 87.19 C 377.25 86.88 372.74 86.96 370.20 83.75 C 368.83 81.98 370.55 80.02 372.14 79.22 C 377.37 76.29 383.21 74.55 388.29 71.33 C 397.97 65.05 408.45 60.02 419.35 56.25 C 418.62 54.48 418.06 52.15 420.40 51.39 M 384.57 114.73 C 380.77 122.21 382.39 131.05 384.39 138.84 C 395.46 130.27 413.51 132.98 421.80 144.09 C 416.92 146.85 411.38 148.08 406.05 149.65 C 403.76 150.14 401.46 151.15 399.10 150.86 C 397.88 149.92 397.10 148.56 396.18 147.37 C 393.54 148.10 390.88 148.78 388.22 149.46 C 389.19 152.89 390.28 156.33 390.62 159.90 C 391.26 165.38 389.67 170.77 389.26 176.21 C 394.63 180.30 400.66 183.81 404.76 189.31 C 409.76 196.37 412.87 204.49 416.96 212.06 C 421.69 220.35 426.83 229.28 435.89 233.46 C 440.96 231.35 446.86 230.00 450.46 225.52 C 455.90 219.23 462.41 214.01 468.51 208.40 C 476.51 200.73 484.61 193.12 493.34 186.28 C 489.05 187.03 484.50 188.22 480.24 186.76 C 477.88 185.77 479.07 183.19 479.38 181.33 C 474.67 181.27 469.86 181.66 465.26 180.50 C 462.46 179.76 460.42 176.97 460.78 174.05 C 461.57 164.73 465.92 156.17 467.09 146.91 C 467.91 140.49 467.83 133.71 465.44 127.62 C 464.08 123.93 459.63 122.49 456.06 123.44 C 451.35 124.55 447.02 127.16 443.71 130.65 C 439.17 135.40 436.89 141.64 434.15 147.48 C 431.21 143.40 430.37 138.32 428.38 133.80 C 426.23 128.79 424.06 123.64 420.52 119.43 C 417.65 115.76 412.50 117.02 408.48 116.23 C 403.86 115.78 400.32 112.58 396.41 110.45 C 392.28 111.14 388.21 112.65 384.57 114.73 M 500.86 187.88 C 487.42 197.19 476.51 209.52 464.05 220.01 C 454.67 228.08 446.77 237.84 440.69 248.61 C 436.97 255.19 434.56 262.40 431.01 269.07 C 426.23 278.51 419.69 286.89 413.59 295.49 C 409.23 303.90 404.80 312.37 398.72 319.70 C 392.53 327.14 385.72 334.13 378.12 340.15 C 373.61 343.53 368.76 347.18 362.87 347.33 C 366.53 343.38 371.46 340.98 375.47 337.44 C 383.33 330.64 390.68 323.16 396.78 314.73 C 387.48 322.81 376.89 329.54 365.16 333.45 C 354.67 337.15 343.50 338.32 333.01 341.98 C 319.43 346.46 307.10 354.23 296.56 363.82 C 299.27 367.74 301.79 371.87 303.38 376.39 C 305.58 382.78 304.42 389.64 304.62 396.25 C 319.31 398.45 334.14 396.33 348.78 394.74 C 366.23 392.81 383.61 389.37 400.09 383.20 C 408.58 380.11 416.82 376.36 425.39 373.49 C 431.62 371.35 438.34 371.46 444.60 369.43 C 453.21 366.76 461.57 363.34 469.90 359.90 C 471.85 359.32 472.88 357.49 473.94 355.91 C 478.04 349.46 482.86 343.51 487.60 337.52 C 494.16 329.49 501.28 321.63 510.26 316.26 C 516.32 312.64 522.57 309.32 528.42 305.36 C 532.35 302.76 535.47 299.13 539.47 296.63 C 538.52 299.38 537.22 302.08 535.09 304.11 C 527.79 311.49 518.15 315.82 510.05 322.18 C 497.83 331.55 488.74 344.16 479.15 356.05 C 484.95 353.60 490.64 350.90 496.44 348.45 C 498.61 347.44 501.02 347.20 503.39 347.13 C 502.20 348.98 500.72 350.68 498.72 351.67 C 489.75 356.55 480.40 360.67 471.29 365.27 C 458.75 371.11 445.79 376.71 431.90 378.14 C 431.00 386.50 433.61 394.58 435.61 402.57 C 440.00 419.13 446.30 435.39 456.23 449.47 C 462.67 446.94 468.25 442.76 474.00 439.00 C 489.32 428.77 504.36 417.54 515.89 403.01 C 520.73 397.06 523.88 389.90 529.15 384.29 C 526.95 393.47 521.62 401.52 515.84 408.84 C 505.10 421.82 491.67 432.20 478.16 442.12 C 471.53 446.59 465.07 451.78 457.19 453.84 C 456.97 462.24 456.27 470.87 458.83 479.02 C 460.95 486.99 466.11 493.52 470.36 500.41 C 482.79 501.00 494.94 496.65 505.60 490.56 C 521.87 481.14 535.74 467.81 546.48 452.42 C 554.45 440.55 561.45 427.96 566.74 414.67 C 568.82 409.44 569.83 403.81 572.60 398.87 C 574.98 404.02 573.03 409.74 571.56 414.87 C 566.60 430.23 558.77 444.50 550.09 458.04 C 539.32 474.66 524.24 488.45 506.71 497.66 C 495.21 503.58 482.14 507.86 469.07 506.04 C 467.11 511.57 464.93 517.14 464.50 523.05 C 464.05 528.71 464.96 534.36 465.83 539.93 C 478.72 548.51 494.88 549.78 509.94 549.60 C 522.75 549.61 535.54 548.44 548.15 546.18 C 560.95 543.93 573.01 538.85 584.95 533.91 C 601.97 526.39 619.73 520.76 637.12 514.19 C 645.14 511.07 653.44 508.69 661.40 505.40 C 669.67 501.98 676.29 495.69 682.28 489.21 C 682.04 480.57 680.88 471.95 678.54 463.63 C 674.81 448.95 667.70 435.51 661.08 421.99 C 651.52 402.61 641.03 383.68 629.83 365.19 C 609.54 331.43 592.20 296.04 573.97 261.16 C 576.30 271.99 577.93 282.98 578.27 294.07 C 578.89 314.75 578.49 335.57 575.02 356.01 C 574.02 361.12 573.21 366.71 569.27 370.51 C 573.21 355.01 574.20 338.97 574.31 323.02 C 574.88 298.65 575.20 273.68 567.84 250.18 C 553.85 224.28 534.72 200.83 510.83 183.47 C 507.32 184.46 503.82 185.70 500.86 187.88 M 427.59 241.48 C 418.06 243.75 408.02 243.45 398.72 246.80 C 391.24 249.25 385.22 254.49 378.96 259.04 C 366.81 267.93 355.06 277.51 341.89 284.90 C 330.15 291.41 317.17 295.06 304.57 299.48 C 293.82 303.22 282.82 306.12 271.76 308.71 C 257.44 312.65 243.11 316.62 229.07 321.46 C 236.34 329.36 242.88 339.06 242.52 350.27 C 252.03 351.09 261.57 352.35 270.71 355.20 C 278.51 357.61 286.38 359.80 294.36 361.52 C 304.48 349.38 318.59 341.10 333.53 336.34 C 342.00 333.50 350.88 332.25 359.40 329.59 C 371.76 325.93 383.36 319.52 392.79 310.70 C 398.35 305.22 403.39 299.24 408.19 293.10 C 416.00 282.97 423.51 272.44 428.79 260.73 C 432.37 252.94 435.45 244.70 441.13 238.13 C 436.64 239.35 432.12 240.44 427.59 241.48 M 150.51 291.91 C 150.56 294.91 152.48 297.43 154.42 299.55 C 159.72 305.21 166.98 308.31 173.19 312.77 C 178.07 316.55 184.85 315.65 189.92 319.05 C 191.24 319.89 191.71 321.49 190.58 322.73 C 187.24 322.85 184.02 321.77 180.74 321.29 C 164.88 318.81 148.63 319.77 132.93 322.91 C 129.59 323.55 126.33 324.59 123.17 325.85 C 131.70 330.37 141.52 330.91 150.92 331.91 C 159.29 332.66 167.62 333.82 176.01 334.30 C 178.60 334.56 181.41 334.40 183.69 335.88 C 183.89 338.57 181.06 338.67 179.11 338.92 C 168.45 339.83 157.76 338.33 147.09 338.73 C 137.19 339.78 127.01 340.79 117.83 344.93 C 125.12 349.21 133.75 349.68 141.98 350.10 C 153.98 350.50 165.99 350.16 178.00 350.21 C 182.97 350.32 187.97 349.38 192.93 350.10 C 195.02 353.27 190.15 354.05 187.98 354.38 C 176.41 356.09 164.70 356.67 153.01 356.59 C 145.81 356.20 138.86 359.35 133.31 363.74 C 140.47 366.85 148.53 367.18 156.13 365.78 C 164.02 364.37 171.99 363.31 180.02 363.11 C 180.25 363.61 180.73 364.60 180.97 365.10 C 175.45 367.21 169.57 368.07 163.87 369.51 C 160.63 370.42 156.76 370.48 154.39 373.22 C 155.61 375.09 158.09 374.88 160.03 375.22 C 166.97 375.83 174.46 375.21 180.41 371.28 C 184.70 368.48 189.83 367.56 194.80 366.77 C 204.62 365.39 214.59 365.03 224.47 365.89 C 222.20 362.69 220.03 358.27 222.56 354.60 C 225.83 350.38 231.75 350.47 236.56 349.94 C 236.36 342.90 233.35 336.37 229.16 330.83 C 226.68 327.72 224.52 324.01 220.78 322.26 C 213.17 318.57 204.91 316.43 197.26 312.85 C 188.67 308.86 181.93 301.99 173.84 297.19 C 168.04 293.73 161.77 290.57 154.96 289.82 C 153.31 289.76 150.56 289.58 150.51 291.91 M 226.15 357.78 C 227.34 359.87 228.52 362.18 230.80 363.28 C 237.19 366.72 244.47 367.96 251.08 370.87 C 252.69 371.41 253.47 373.00 254.49 374.23 C 249.63 375.45 244.85 373.50 240.14 372.54 C 229.32 369.75 218.00 369.61 206.92 370.39 C 200.11 370.98 193.22 371.67 186.72 373.88 C 185.37 374.48 183.57 374.88 183.05 376.46 C 190.23 380.85 198.80 381.69 206.95 382.89 C 218.23 384.60 229.69 384.15 241.05 383.88 C 242.66 384.07 244.89 383.32 245.90 385.04 C 244.18 387.65 240.70 387.76 237.94 388.45 C 226.39 389.97 214.60 390.04 203.07 388.29 C 197.75 387.39 192.32 387.25 186.97 387.98 C 181.34 388.80 175.20 389.17 170.56 392.85 C 172.81 394.51 175.17 396.16 177.95 396.80 C 184.80 398.56 191.90 398.98 198.92 399.58 C 215.87 401.06 232.53 396.69 249.23 394.74 C 249.28 395.31 249.37 396.45 249.41 397.03 C 245.76 399.75 241.17 400.70 236.86 401.90 C 226.76 404.21 216.43 405.93 206.03 405.75 C 202.10 405.73 198.04 404.91 194.22 406.23 C 188.06 408.31 181.76 410.63 176.87 415.07 C 181.84 417.94 187.71 416.98 193.10 416.22 C 201.10 414.92 209.28 414.99 217.23 413.28 C 223.52 412.13 229.68 409.88 236.12 409.86 C 238.14 409.39 238.66 412.16 237.02 412.93 C 227.77 417.99 217.07 419.09 206.88 420.96 C 200.04 424.13 192.05 428.41 190.10 436.33 C 193.40 436.77 196.81 436.93 200.03 435.94 C 208.52 433.55 217.01 431.15 225.34 428.27 C 232.62 425.89 239.43 422.30 246.67 419.78 C 264.32 413.41 282.03 406.96 298.49 397.84 C 298.42 393.23 298.59 388.63 298.49 384.02 C 298.45 377.42 294.52 371.84 292.33 365.83 C 281.73 364.75 271.72 360.97 261.42 358.51 C 252.73 356.81 243.90 355.42 235.03 355.50 C 231.91 355.43 228.88 356.31 226.15 357.78 M 428.85 630.88 C 427.11 644.96 424.85 658.98 423.43 673.11 C 443.22 669.53 463.92 675.68 480.16 687.12 C 479.31 673.10 477.56 659.16 476.58 645.15 C 460.21 642.20 443.76 638.52 428.85 630.88 M 592.72 681.28 C 600.01 694.99 611.74 705.51 623.54 715.29 C 635.32 724.79 648.40 732.49 661.22 740.50 C 667.73 722.19 684.16 708.22 702.72 703.13 C 693.88 699.02 685.52 693.97 677.36 688.66 C 671.22 684.71 665.72 679.76 659.20 676.42 C 637.14 679.08 614.96 681.04 592.72 681.28 M 827.74 831.75 C 827.07 835.77 825.88 839.96 822.65 842.71 C 816.95 847.69 809.69 851.42 801.99 851.54 C 794.97 851.51 788.63 847.99 782.58 844.83 C 780.36 858.12 771.15 868.72 761.55 877.55 C 752.72 885.62 745.06 895.93 743.55 908.12 C 742.66 913.17 743.94 918.66 747.38 922.53 C 749.33 924.56 752.41 924.75 754.98 924.00 C 763.48 921.67 771.00 916.96 778.70 912.85 C 788.85 908.21 798.73 902.24 810.04 900.94 C 819.68 899.92 829.50 900.83 839.05 898.83 C 847.81 897.02 856.91 894.78 864.00 889.01 C 868.67 885.43 872.73 880.17 872.69 874.03 C 872.84 864.76 866.70 856.85 859.97 851.13 C 850.35 842.85 837.63 839.60 827.74 831.75 M 425.88 854.93 C 420.04 859.33 414.96 864.66 409.39 869.39 C 398.99 878.19 388.48 887.26 376.04 893.07 C 368.46 896.73 359.87 898.69 353.43 904.38 C 350.71 906.83 347.99 910.04 348.10 913.92 C 348.32 916.77 351.08 918.45 353.38 919.63 C 360.76 923.02 369.07 923.14 377.04 923.24 C 397.99 923.22 419.15 923.13 439.71 918.62 C 451.20 916.06 463.27 915.10 474.02 910.03 C 482.36 904.01 483.28 891.98 480.29 882.86 C 476.94 871.43 466.68 864.33 460.64 854.52 C 458.60 855.81 456.46 857.13 453.97 857.23 C 448.06 857.73 442.04 857.72 436.19 856.73 C 432.74 856.19 429.24 852.13 425.88 854.93 Z" />
</g>
<g id="#f0b58bff">
<path fill="#f0b58b" opacity="1.00" d=" M 384.57 114.73 C 388.21 112.65 392.28 111.14 396.41 110.45 C 400.32 112.58 403.86 115.78 408.48 116.23 C 412.50 117.02 417.65 115.76 420.52 119.43 C 424.06 123.64 426.23 128.79 428.38 133.80 C 430.37 138.32 431.21 143.40 434.15 147.48 C 436.89 141.64 439.17 135.40 443.71 130.65 C 447.02 127.16 451.35 124.55 456.06 123.44 C 459.63 122.49 464.08 123.93 465.44 127.62 C 467.83 133.71 467.91 140.49 467.09 146.91 C 465.92 156.17 461.57 164.73 460.78 174.05 C 460.42 176.97 462.46 179.76 465.26 180.50 C 469.86 181.66 474.67 181.27 479.38 181.33 C 479.07 183.19 477.88 185.77 480.24 186.76 C 484.50 188.22 489.05 187.03 493.34 186.28 C 484.61 193.12 476.51 200.73 468.51 208.40 C 462.41 214.01 455.90 219.23 450.46 225.52 C 446.86 230.00 440.96 231.35 435.89 233.46 C 426.83 229.28 421.69 220.35 416.96 212.06 C 412.87 204.49 409.76 196.37 404.76 189.31 C 400.66 183.81 394.63 180.30 389.26 176.21 C 389.67 170.77 391.26 165.38 390.62 159.90 C 390.28 156.33 389.19 152.89 388.22 149.46 C 390.88 148.78 393.54 148.10 396.18 147.37 C 397.10 148.56 397.88 149.92 399.10 150.86 C 401.46 151.15 403.76 150.14 406.05 149.65 C 411.38 148.08 416.92 146.85 421.80 144.09 C 413.51 132.98 395.46 130.27 384.39 138.84 C 382.39 131.05 380.77 122.21 384.57 114.73 Z" />
<path fill="#f0b58b" opacity="1.00" d=" M 428.85 630.88 C 443.76 638.52 460.21 642.20 476.58 645.15 C 477.56 659.16 479.31 673.10 480.16 687.12 C 463.92 675.68 443.22 669.53 423.43 673.11 C 424.85 658.98 427.11 644.96 428.85 630.88 Z" />
<path fill="#f0b58b" opacity="1.00" d=" M 592.72 681.28 C 614.96 681.04 637.14 679.08 659.20 676.42 C 665.72 679.76 671.22 684.71 677.36 688.66 C 685.52 693.97 693.88 699.02 702.72 703.13 C 684.16 708.22 667.73 722.19 661.22 740.50 C 648.40 732.49 635.32 724.79 623.54 715.29 C 611.74 705.51 600.01 694.99 592.72 681.28 Z" />
</g>
<g id="#f35e11ff">
<path fill="var(--shirt-color, grey)" opacity="1.00" d=" M 500.86 187.88 C 503.82 185.70 507.32 184.46 510.83 183.47 C 534.72 200.83 553.85 224.28 567.84 250.18 C 575.20 273.68 574.88 298.65 574.31 323.02 C 574.20 338.97 573.21 355.01 569.27 370.51 C 573.21 366.71 574.02 361.12 575.02 356.01 C 578.49 335.57 578.89 314.75 578.27 294.07 C 577.93 282.98 576.30 271.99 573.97 261.16 C 592.20 296.04 609.54 331.43 629.83 365.19 C 641.03 383.68 651.52 402.61 661.08 421.99 C 667.70 435.51 674.81 448.95 678.54 463.63 C 680.88 471.95 682.04 480.57 682.28 489.21 C 676.29 495.69 669.67 501.98 661.40 505.40 C 653.44 508.69 645.14 511.07 637.12 514.19 C 619.73 520.76 601.97 526.39 584.95 533.91 C 573.01 538.85 560.95 543.93 548.15 546.18 C 535.54 548.44 522.75 549.61 509.94 549.60 C 494.88 549.78 478.72 548.51 465.83 539.93 C 464.96 534.36 464.05 528.71 464.50 523.05 C 464.93 517.14 467.11 511.57 469.07 506.04 C 482.14 507.86 495.21 503.58 506.71 497.66 C 524.24 488.45 539.32 474.66 550.09 458.04 C 558.77 444.50 566.60 430.23 571.56 414.87 C 573.03 409.74 574.98 404.02 572.60 398.87 C 569.83 403.81 568.82 409.44 566.74 414.67 C 561.45 427.96 554.45 440.55 546.48 452.42 C 535.74 467.81 521.87 481.14 505.60 490.56 C 494.94 496.65 482.79 501.00 470.36 500.41 C 466.11 493.52 460.95 486.99 458.83 479.02 C 456.27 470.87 456.97 462.24 457.19 453.84 C 465.07 451.78 471.53 446.59 478.16 442.12 C 491.67 432.20 505.10 421.82 515.84 408.84 C 521.62 401.52 526.95 393.47 529.15 384.29 C 523.88 389.90 520.73 397.06 515.89 403.01 C 504.36 417.54 489.32 428.77 474.00 439.00 C 468.25 442.76 462.67 446.94 456.23 449.47 C 446.30 435.39 440.00 419.13 435.61 402.57 C 433.61 394.58 431.00 386.50 431.90 378.14 C 445.79 376.71 458.75 371.11 471.29 365.27 C 480.40 360.67 489.75 356.55 498.72 351.67 C 500.72 350.68 502.20 348.98 503.39 347.13 C 501.02 347.20 498.61 347.44 496.44 348.45 C 490.64 350.90 484.95 353.60 479.15 356.05 C 488.74 344.16 497.83 331.55 510.05 322.18 C 518.15 315.82 527.79 311.49 535.09 304.11 C 537.22 302.08 538.52 299.38 539.47 296.63 C 535.47 299.13 532.35 302.76 528.42 305.36 C 522.57 309.32 516.32 312.64 510.26 316.26 C 501.28 321.63 494.16 329.49 487.60 337.52 C 482.86 343.51 478.04 349.46 473.94 355.91 C 472.88 357.49 471.85 359.32 469.90 359.90 C 461.57 363.34 453.21 366.76 444.60 369.43 C 438.34 371.46 431.62 371.35 425.39 373.49 C 416.82 376.36 408.58 380.11 400.09 383.20 C 383.61 389.37 366.23 392.81 348.78 394.74 C 334.14 396.33 319.31 398.45 304.62 396.25 C 304.42 389.64 305.58 382.78 303.38 376.39 C 301.79 371.87 299.27 367.74 296.56 363.82 C 307.10 354.23 319.43 346.46 333.01 341.98 C 343.50 338.32 354.67 337.15 365.16 333.45 C 376.89 329.54 387.48 322.81 396.78 314.73 C 390.68 323.16 383.33 330.64 375.47 337.44 C 371.46 340.98 366.53 343.38 362.87 347.33 C 368.76 347.18 373.61 343.53 378.12 340.15 C 385.72 334.13 392.53 327.14 398.72 319.70 C 404.80 312.37 409.23 303.90 413.59 295.49 C 419.69 286.89 426.23 278.51 431.01 269.07 C 434.56 262.40 436.97 255.19 440.69 248.61 C 446.77 237.84 454.67 228.08 464.05 220.01 C 476.51 209.52 487.42 197.19 500.86 187.88 Z" />
<path fill="var(--shirt-color, grey)" opacity="1.00" d=" M 427.59 241.48 C 432.12 240.44 436.64 239.35 441.13 238.13 C 435.45 244.70 432.37 252.94 428.79 260.73 C 423.51 272.44 416.00 282.97 408.19 293.10 C 403.39 299.24 398.35 305.22 392.79 310.70 C 383.36 319.52 371.76 325.93 359.40 329.59 C 350.88 332.25 342.00 333.50 333.53 336.34 C 318.59 341.10 304.48 349.38 294.36 361.52 C 286.38 359.80 278.51 357.61 270.71 355.20 C 261.57 352.35 252.03 351.09 242.52 350.27 C 242.88 339.06 236.34 329.36 229.07 321.46 C 243.11 316.62 257.44 312.65 271.76 308.71 C 282.82 306.12 293.82 303.22 304.57 299.48 C 317.17 295.06 330.15 291.41 341.89 284.90 C 355.06 277.51 366.81 267.93 378.96 259.04 C 385.22 254.49 391.24 249.25 398.72 246.80 C 408.02 243.45 418.06 243.75 427.59 241.48 Z" />
</g>
<g id="#4d4d4dff">
<path fill="#4d4d4d" opacity="1.00" d=" M 150.51 291.91 C 150.56 289.58 153.31 289.76 154.96 289.82 C 161.77 290.57 168.04 293.73 173.84 297.19 C 181.93 301.99 188.67 308.86 197.26 312.85 C 204.91 316.43 213.17 318.57 220.78 322.26 C 224.52 324.01 226.68 327.72 229.16 330.83 C 233.35 336.37 236.36 342.90 236.56 349.94 C 231.75 350.47 225.83 350.38 222.56 354.60 C 220.03 358.27 222.20 362.69 224.47 365.89 C 214.59 365.03 204.62 365.39 194.80 366.77 C 189.83 367.56 184.70 368.48 180.41 371.28 C 174.46 375.21 166.97 375.83 160.03 375.22 C 158.09 374.88 155.61 375.09 154.39 373.22 C 156.76 370.48 160.63 370.42 163.87 369.51 C 169.57 368.07 175.45 367.21 180.97 365.10 C 180.73 364.60 180.25 363.61 180.02 363.11 C 171.99 363.31 164.02 364.37 156.13 365.78 C 148.53 367.18 140.47 366.85 133.31 363.74 C 138.86 359.35 145.81 356.20 153.01 356.59 C 164.70 356.67 176.41 356.09 187.98 354.38 C 190.15 354.05 195.02 353.27 192.93 350.10 C 187.97 349.38 182.97 350.32 178.00 350.21 C 165.99 350.16 153.98 350.50 141.98 350.10 C 133.75 349.68 125.12 349.21 117.83 344.93 C 127.01 340.79 137.19 339.78 147.09 338.73 C 157.76 338.33 168.45 339.83 179.11 338.92 C 181.06 338.67 183.89 338.57 183.69 335.88 C 181.41 334.40 178.60 334.56 176.01 334.30 C 167.62 333.82 159.29 332.66 150.92 331.91 C 141.52 330.91 131.70 330.37 123.17 325.85 C 126.33 324.59 129.59 323.55 132.93 322.91 C 148.63 319.77 164.88 318.81 180.74 321.29 C 184.02 321.77 187.24 322.85 190.58 322.73 C 191.71 321.49 191.24 319.89 189.92 319.05 C 184.85 315.65 178.07 316.55 173.19 312.77 C 166.98 308.31 159.72 305.21 154.42 299.55 C 152.48 297.43 150.56 294.91 150.51 291.91 Z" />
<path fill="#4d4d4d" opacity="1.00" d=" M 226.15 357.78 C 228.88 356.31 231.91 355.43 235.03 355.50 C 243.90 355.42 252.73 356.81 261.42 358.51 C 271.72 360.97 281.73 364.75 292.33 365.83 C 294.52 371.84 298.45 377.42 298.49 384.02 C 298.59 388.63 298.42 393.23 298.49 397.84 C 282.03 406.96 264.32 413.41 246.67 419.78 C 239.43 422.30 232.62 425.89 225.34 428.27 C 217.01 431.15 208.52 433.55 200.03 435.94 C 196.81 436.93 193.40 436.77 190.10 436.33 C 192.05 428.41 200.04 424.13 206.88 420.96 C 217.07 419.09 227.77 417.99 237.02 412.93 C 238.66 412.16 238.14 409.39 236.12 409.86 C 229.68 409.88 223.52 412.13 217.23 413.28 C 209.28 414.99 201.10 414.92 193.10 416.22 C 187.71 416.98 181.84 417.94 176.87 415.07 C 181.76 410.63 188.06 408.31 194.22 406.23 C 198.04 404.91 202.10 405.73 206.03 405.75 C 216.43 405.93 226.76 404.21 236.86 401.90 C 241.17 400.70 245.76 399.75 249.41 397.03 C 249.37 396.45 249.28 395.31 249.23 394.74 C 232.53 396.69 215.87 401.06 198.92 399.58 C 191.90 398.98 184.80 398.56 177.95 396.80 C 175.17 396.16 172.81 394.51 170.56 392.85 C 175.20 389.17 181.34 388.80 186.97 387.98 C 192.32 387.25 197.75 387.39 203.07 388.29 C 214.60 390.04 226.39 389.97 237.94 388.45 C 240.70 387.76 244.18 387.65 245.90 385.04 C 244.89 383.32 242.66 384.07 241.05 383.88 C 229.69 384.15 218.23 384.60 206.95 382.89 C 198.80 381.69 190.23 380.85 183.05 376.46 C 183.57 374.88 185.37 374.48 186.72 373.88 C 193.22 371.67 200.11 370.98 206.92 370.39 C 218.00 369.61 229.32 369.75 240.14 372.54 C 244.85 373.50 249.63 375.45 254.49 374.23 C 253.47 373.00 252.69 371.41 251.08 370.87 C 244.47 367.96 237.19 366.72 230.80 363.28 C 228.52 362.18 227.34 359.87 226.15 357.78 Z" />
<path fill="#4d4d4d" opacity="1.00" d=" M 827.74 831.75 C 837.63 839.60 850.35 842.85 859.97 851.13 C 866.70 856.85 872.84 864.76 872.69 874.03 C 872.73 880.17 868.67 885.43 864.00 889.01 C 856.91 894.78 847.81 897.02 839.05 898.83 C 829.50 900.83 819.68 899.92 810.04 900.94 C 798.73 902.24 788.85 908.21 778.70 912.85 C 771.00 916.96 763.48 921.67 754.98 924.00 C 752.41 924.75 749.33 924.56 747.38 922.53 C 743.94 918.66 742.66 913.17 743.55 908.12 C 745.06 895.93 752.72 885.62 761.55 877.55 C 771.15 868.72 780.36 858.12 782.58 844.83 C 788.63 847.99 794.97 851.51 801.99 851.54 C 809.69 851.42 816.95 847.69 822.65 842.71 C 825.88 839.96 827.07 835.77 827.74 831.75 Z" />
<path fill="#4d4d4d" opacity="1.00" d=" M 425.88 854.93 C 429.24 852.13 432.74 856.19 436.19 856.73 C 442.04 857.72 448.06 857.73 453.97 857.23 C 456.46 857.13 458.60 855.81 460.64 854.52 C 466.68 864.33 476.94 871.43 480.29 882.86 C 483.28 891.98 482.36 904.01 474.02 910.03 C 463.27 915.10 451.20 916.06 439.71 918.62 C 419.15 923.13 397.99 923.22 377.04 923.24 C 369.07 923.14 360.76 923.02 353.38 919.63 C 351.08 918.45 348.32 916.77 348.10 913.92 C 347.99 910.04 350.71 906.83 353.43 904.38 C 359.87 898.69 368.46 896.73 376.04 893.07 C 388.48 887.26 398.99 878.19 409.39 869.39 C 414.96 864.66 420.04 859.33 425.88 854.93 Z" />
</g>
</svg>
