<?xml version="1.0" encoding="UTF-8" ?>
<!DOCTYPE svg PUBLIC "-//W3C//DTD SVG 1.1//EN" "http://www.w3.org/Graphics/SVG/1.1/DTD/svg11.dtd">
<svg width="1000pt" height="1000pt" viewBox="0 0 1000 1000" version="1.1" xmlns="http://www.w3.org/2000/svg">
<g id="#020202ff">
<path fill="#020202" opacity="1.00" d=" M 649.63 56.42 C 666.60 52.80 684.41 50.25 701.54 54.46 C 718.78 58.71 734.91 67.92 746.79 81.18 C 750.83 85.62 753.85 90.82 757.40 95.64 C 763.83 104.48 768.04 114.65 772.09 124.74 C 773.60 129.26 776.10 133.98 775.12 138.86 C 772.31 142.38 769.22 137.35 767.10 135.48 C 768.66 156.40 766.92 177.74 760.77 197.85 C 759.83 200.22 758.38 205.32 755.04 203.17 C 753.36 199.23 753.82 194.79 753.41 190.62 C 749.39 204.76 742.34 218.50 730.82 227.97 C 739.04 233.65 746.54 240.51 752.24 248.76 C 759.26 259.03 764.39 270.45 768.91 282.00 C 777.09 302.92 781.03 325.12 786.02 346.94 C 789.73 362.04 794.22 376.95 799.15 391.70 C 803.81 405.04 809.30 418.20 811.86 432.17 C 815.49 452.35 822.53 471.70 826.65 491.77 C 829.28 505.43 831.68 519.15 833.72 532.91 C 834.60 540.55 836.19 548.27 835.24 555.98 C 834.63 560.78 830.05 563.31 826.35 565.60 C 828.79 574.36 827.02 583.60 823.88 591.94 C 821.06 601.26 817.22 610.29 815.30 619.87 C 812.96 631.60 811.54 643.50 809.39 655.27 C 807.74 664.17 802.71 672.02 796.56 678.52 C 791.05 684.72 784.20 689.49 778.32 695.31 C 775.29 698.30 771.80 701.19 770.41 705.36 C 767.20 714.77 766.21 724.92 761.88 733.96 C 760.97 735.64 759.62 738.18 757.31 737.51 C 742.29 734.93 728.33 728.38 713.43 725.30 C 713.65 730.19 714.60 735.09 714.01 740.00 C 713.31 744.74 711.77 749.32 709.75 753.66 C 718.94 753.47 727.85 756.00 736.69 758.20 C 750.23 761.62 763.35 766.50 776.28 771.77 C 790.11 777.73 804.10 783.43 817.31 790.73 C 829.01 797.19 840.52 804.00 851.79 811.19 C 856.97 814.61 862.26 817.94 866.87 822.14 C 873.38 828.38 882.12 831.35 890.31 834.70 C 900.22 838.13 908.74 844.60 916.40 851.61 C 921.36 856.46 926.13 863.25 924.44 870.55 C 921.94 877.91 916.70 883.96 911.50 889.58 C 895.97 905.65 877.76 918.82 859.21 931.17 C 850.46 937.26 841.71 943.47 831.94 947.84 C 824.66 951.58 816.18 953.22 808.10 951.63 C 803.59 950.73 799.10 947.68 798.25 942.90 C 796.85 934.98 799.52 927.01 802.84 919.91 C 809.26 906.09 820.01 894.52 824.62 879.83 C 826.45 874.33 825.94 868.47 826.43 862.80 C 812.19 862.57 798.15 859.88 784.06 858.09 C 762.23 855.46 740.61 851.02 719.56 844.67 C 703.66 840.23 688.04 834.80 671.93 831.14 C 657.34 827.25 642.38 824.42 628.42 818.51 C 614.62 812.98 600.92 805.04 592.73 792.23 C 587.85 784.84 587.06 775.60 587.97 767.00 C 589.64 751.75 593.82 736.94 597.96 722.23 C 596.59 722.03 595.23 721.85 593.87 721.68 C 592.04 700.74 591.36 679.62 592.95 658.64 C 584.61 658.77 576.26 658.49 567.97 657.59 C 564.00 657.17 559.82 656.03 557.10 652.91 C 554.17 649.48 552.61 645.13 551.44 640.85 C 548.02 627.38 546.21 613.57 544.75 599.77 C 535.33 602.43 525.20 602.85 515.63 600.71 C 516.04 622.54 518.99 644.21 521.58 665.86 C 523.86 684.26 525.59 702.73 527.39 721.19 C 529.01 737.81 531.32 754.37 532.24 771.05 C 532.70 775.84 532.80 780.73 533.89 785.44 C 541.36 796.58 549.02 807.67 555.66 819.35 C 560.00 827.66 563.81 836.57 564.49 846.02 C 564.48 853.35 562.47 861.74 555.67 865.70 C 544.19 872.86 530.03 872.75 516.96 872.74 C 498.27 871.76 479.58 873.18 460.96 874.60 C 449.29 875.56 437.38 875.72 425.95 872.86 C 416.44 870.38 407.58 865.83 399.40 860.45 C 393.56 856.53 387.69 852.18 384.11 845.97 C 381.31 841.26 376.91 836.91 377.08 831.03 C 376.80 826.81 379.83 823.25 383.40 821.43 C 391.16 817.36 400.01 815.96 407.74 811.81 C 421.95 804.32 435.08 794.79 446.84 783.86 C 453.87 777.00 461.69 770.84 470.69 766.78 C 463.01 753.89 456.66 740.20 452.31 725.82 C 445.09 702.56 440.14 678.69 434.24 655.08 C 425.19 616.25 420.13 575.55 427.92 536.05 C 430.40 525.30 433.92 513.96 442.25 506.25 C 449.76 499.49 460.40 498.60 470.04 498.48 C 484.01 498.06 497.65 501.49 511.19 504.47 C 523.90 507.38 536.90 509.46 549.97 509.19 C 560.02 509.37 570.06 509.92 580.08 510.60 C 593.19 511.59 606.48 512.96 618.90 517.56 C 617.38 508.11 616.33 498.59 616.09 489.02 C 615.33 474.95 612.36 461.14 609.80 447.33 C 606.83 429.32 601.06 411.89 593.83 395.18 C 588.02 380.73 581.40 366.40 571.90 353.98 C 569.46 350.24 564.69 351.02 560.87 350.56 C 545.80 349.20 531.79 342.93 518.07 336.98 C 498.33 328.02 479.65 316.97 460.91 306.15 C 454.28 301.91 446.77 298.42 442.11 291.83 C 437.88 288.47 432.34 287.55 427.42 285.57 C 390.11 272.27 351.46 263.38 313.46 252.37 C 309.32 251.24 305.34 249.46 301.07 248.89 C 274.26 246.11 248.57 235.09 227.29 218.69 C 222.66 215.03 218.11 211.19 214.39 206.57 C 213.01 205.01 211.82 203.08 209.76 202.36 C 197.48 197.53 186.62 189.82 176.50 181.48 C 170.86 176.82 165.37 171.76 161.44 165.53 C 158.98 161.62 158.35 155.50 162.37 152.38 C 166.26 149.70 171.25 151.34 175.43 152.34 C 171.73 147.63 167.72 142.77 166.34 136.80 C 165.58 132.56 165.90 127.35 169.46 124.39 C 171.77 122.35 174.97 123.30 177.67 123.75 C 176.41 118.59 176.05 113.23 176.28 107.94 C 176.64 103.38 178.88 98.26 183.48 96.63 C 187.31 95.49 190.88 98.01 194.13 99.68 C 196.57 95.31 200.83 91.47 206.06 91.31 C 211.46 91.25 216.01 94.71 220.04 97.92 C 234.89 110.31 245.09 127.00 256.76 142.18 C 272.21 163.29 289.47 183.26 309.95 199.66 C 321.22 200.26 332.14 203.46 343.41 204.10 C 338.11 197.44 332.12 190.91 329.48 182.65 C 328.16 178.57 328.48 173.06 332.57 170.66 C 337.48 167.91 343.18 170.16 347.93 172.15 C 342.63 166.89 337.21 161.19 334.91 153.91 C 333.30 149.16 334.80 142.87 339.59 140.60 C 343.07 139.16 346.70 140.90 349.90 142.25 C 347.36 137.78 344.28 133.26 343.92 127.98 C 343.61 123.17 348.36 118.99 353.10 120.05 C 360.74 121.41 366.23 127.48 371.83 132.36 C 371.46 129.10 370.08 125.21 372.27 122.31 C 374.56 119.56 378.57 120.46 381.47 121.58 C 392.46 125.92 401.08 134.40 409.20 142.71 C 418.03 151.65 425.96 161.41 433.80 171.22 C 435.92 174.12 437.54 177.35 439.67 180.25 C 449.78 194.32 457.70 209.79 465.22 225.36 C 484.20 227.94 503.09 231.13 522.11 233.44 C 532.85 235.09 543.59 236.93 554.14 239.57 C 565.88 242.63 577.60 245.80 589.57 247.89 C 594.83 249.46 600.30 248.36 605.53 247.27 C 602.89 244.24 600.44 240.99 598.84 237.28 C 594.75 228.40 594.62 218.46 592.87 208.99 C 591.74 201.23 589.11 193.82 586.90 186.33 C 585.75 182.82 585.83 178.92 587.62 175.64 C 592.87 165.36 598.56 154.77 599.15 142.98 C 599.88 138.04 596.89 133.72 595.83 129.06 C 593.98 121.91 592.83 114.38 593.83 107.00 C 594.85 99.52 599.30 92.88 605.24 88.34 C 601.88 89.75 598.58 91.53 594.94 92.02 C 593.18 92.03 591.92 89.73 593.52 88.56 C 597.62 83.94 602.68 80.30 607.47 76.43 C 619.79 66.69 634.41 60.11 649.63 56.42 M 196.80 101.62 C 213.11 115.77 225.08 133.97 237.88 151.15 C 240.42 154.40 242.58 157.98 243.65 162.00 C 241.14 160.34 238.82 158.40 236.88 156.10 C 224.44 141.53 213.40 125.76 200.05 111.98 C 195.63 107.90 191.13 103.16 185.05 101.77 C 181.88 103.61 180.42 107.41 180.48 110.95 C 180.43 119.38 184.31 127.18 188.95 133.99 C 193.94 141.31 199.23 148.43 204.74 155.36 C 207.96 159.59 212.75 162.83 214.16 168.21 C 207.75 164.80 202.71 159.46 197.62 154.38 C 190.21 146.33 183.40 137.53 178.88 127.50 C 176.49 127.60 172.77 125.94 171.88 129.15 C 170.25 134.13 172.98 139.14 175.89 143.05 C 187.11 158.09 201.85 169.96 216.49 181.48 C 210.34 179.59 204.11 177.65 198.50 174.44 C 192.41 170.35 187.29 165.03 182.09 159.91 C 178.20 155.96 172.28 154.58 166.92 155.00 C 163.59 154.95 163.66 159.12 164.71 161.33 C 166.92 165.82 170.72 169.24 174.28 172.65 C 184.62 181.77 195.90 189.87 208.11 196.34 C 208.65 193.54 208.47 189.97 211.14 188.18 C 214.59 185.89 219.02 186.51 222.82 187.40 C 233.12 190.04 242.11 196.17 249.94 203.17 C 257.78 210.15 266.27 216.34 274.13 223.29 C 265.75 219.50 257.92 214.64 250.15 209.76 C 243.59 205.75 238.05 200.20 231.05 196.88 C 225.82 194.05 219.94 192.55 213.98 192.62 C 214.79 195.92 215.78 199.30 218.04 201.94 C 223.87 209.15 231.41 214.71 238.93 220.04 C 247.62 225.98 256.53 231.77 266.39 235.59 C 276.74 240.22 287.94 242.26 299.06 244.03 C 301.02 238.27 302.86 232.46 304.39 226.57 C 306.35 219.21 306.44 211.54 307.39 204.02 C 283.33 187.13 264.80 163.86 247.75 140.22 C 238.00 126.81 228.97 112.53 216.15 101.77 C 213.21 99.44 209.96 96.89 206.04 96.78 C 202.32 96.70 199.52 99.49 196.80 101.62 M 611.66 109.63 C 607.62 113.25 605.72 118.74 604.47 123.88 C 604.67 132.12 605.33 140.39 604.63 148.65 C 608.72 146.47 613.39 145.12 618.04 146.02 C 630.76 148.22 642.31 156.73 648.23 168.18 C 649.54 170.80 646.18 172.13 644.11 171.42 C 635.38 169.94 626.56 168.91 617.94 166.90 C 616.39 166.44 614.49 166.06 613.68 164.51 C 612.93 162.50 612.93 160.31 612.65 158.21 C 609.57 157.11 606.49 156.00 603.42 154.87 C 601.05 163.10 597.33 170.84 593.30 178.36 C 592.23 180.13 592.11 182.26 592.82 184.18 C 595.62 193.30 598.40 202.48 599.56 211.98 C 600.88 220.16 600.90 228.76 604.60 236.35 C 606.18 239.91 609.04 242.65 610.96 246.01 C 625.68 241.83 640.28 237.18 655.06 233.18 C 666.08 230.25 676.97 226.69 688.25 224.81 C 687.13 220.31 686.54 215.69 686.84 211.06 C 687.16 204.26 687.01 196.90 690.86 190.96 C 694.70 184.95 699.05 178.97 700.52 171.85 C 701.55 166.75 701.40 160.99 698.42 156.53 C 695.11 151.78 688.45 150.37 683.14 152.10 C 679.17 153.32 676.10 156.46 674.14 160.02 C 670.70 166.35 668.65 173.32 667.12 180.33 C 663.86 176.75 661.59 172.37 660.67 167.61 C 658.06 155.38 657.44 142.79 657.65 130.32 C 652.48 131.85 646.76 133.68 641.50 131.50 C 636.37 129.23 633.50 124.00 631.19 119.17 C 634.83 118.48 638.56 118.45 642.24 117.97 C 635.86 115.84 629.63 113.29 623.53 110.49 C 619.89 108.96 615.22 106.76 611.66 109.63 M 349.65 125.53 C 348.26 128.07 349.56 130.91 350.62 133.31 C 354.62 141.50 359.96 149.13 366.79 155.21 C 377.30 164.69 386.92 175.09 396.50 185.49 C 399.35 188.60 402.93 191.84 402.63 196.47 C 393.53 190.00 386.64 180.98 377.95 174.00 C 372.10 169.57 367.67 163.63 362.17 158.82 C 355.90 153.29 349.42 147.67 341.44 144.79 C 339.94 147.77 338.68 151.22 340.47 154.39 C 345.15 164.43 353.99 171.59 361.23 179.72 C 368.56 188.07 377.04 195.30 384.47 203.54 C 386.50 205.59 387.48 208.33 387.95 211.12 C 382.10 207.83 377.86 202.53 372.81 198.23 C 364.39 190.87 355.83 183.46 345.94 178.13 C 342.55 176.18 338.62 175.69 334.78 175.56 C 334.91 183.34 339.77 189.70 344.44 195.49 C 351.08 203.52 357.28 211.94 364.62 219.36 C 382.74 237.64 401.70 255.14 421.94 271.05 C 429.44 277.00 438.31 281.40 444.39 288.99 C 454.28 275.20 462.64 260.20 468.68 244.32 C 465.88 240.63 463.34 236.72 461.52 232.45 C 457.34 222.85 452.58 213.53 447.62 204.32 C 440.28 190.75 431.37 178.12 422.43 165.58 C 418.60 160.17 413.89 155.47 409.26 150.75 C 399.34 140.85 389.63 129.34 375.72 125.19 C 376.78 132.51 379.47 139.86 384.87 145.10 C 392.78 152.88 399.91 161.38 407.34 169.60 C 409.15 171.59 410.62 173.90 411.32 176.52 C 409.60 176.11 407.89 175.55 406.50 174.43 C 398.93 168.78 392.68 161.63 386.25 154.76 C 377.96 146.07 369.56 137.44 360.40 129.66 C 357.40 127.30 353.72 124.27 349.65 125.53 M 311.91 204.14 C 311.01 211.24 311.19 218.48 309.58 225.48 C 308.01 231.95 306.01 238.30 303.86 244.59 C 318.80 249.70 334.19 253.36 349.34 257.78 C 376.40 265.17 403.45 272.73 429.74 282.59 C 404.66 261.29 377.66 242.03 355.35 217.67 C 352.71 214.92 350.46 211.77 347.56 209.27 C 345.16 208.44 342.56 208.49 340.06 208.18 C 330.59 207.48 321.38 204.89 311.91 204.14 M 668.98 235.97 C 652.73 240.62 636.51 245.34 620.30 250.12 C 609.18 253.50 597.67 255.48 586.11 256.63 C 572.66 257.97 559.23 255.77 545.96 253.86 C 554.01 258.05 563.44 260.02 570.19 266.39 C 564.08 266.00 558.65 263.00 553.02 260.93 C 546.66 258.32 540.12 256.15 533.99 253.02 C 531.31 251.58 528.22 251.34 525.28 250.81 C 537.96 259.28 550.12 268.86 564.36 274.63 C 574.01 278.77 584.24 281.19 594.55 282.96 C 592.31 284.46 589.73 285.54 586.98 285.10 C 577.19 284.24 567.88 280.71 558.74 277.32 C 544.73 272.05 533.24 262.24 520.98 253.98 C 513.07 248.50 503.62 245.82 494.21 244.38 C 487.72 243.45 481.13 242.14 474.58 243.22 C 472.09 252.78 468.21 261.93 463.55 270.63 C 458.95 278.84 454.04 287.20 446.55 293.14 C 452.99 296.85 459.43 300.56 465.99 304.05 C 484.37 313.81 502.51 324.10 521.62 332.38 C 535.14 338.05 549.06 343.87 563.90 344.52 C 579.65 344.94 595.30 346.93 611.06 347.26 C 641.74 348.08 672.58 347.81 703.05 343.73 C 708.26 343.11 713.34 341.60 718.58 341.24 C 717.81 342.78 717.18 344.68 715.36 345.27 C 709.65 347.61 703.47 348.43 697.45 349.56 C 683.75 351.70 669.96 353.29 656.15 354.50 C 664.01 357.20 671.94 359.68 679.80 362.36 C 694.17 366.91 707.74 373.58 722.10 378.13 C 723.97 378.65 725.60 379.72 726.99 381.07 C 722.51 382.20 718.05 380.75 713.81 379.43 C 692.14 372.38 670.90 364.08 649.28 356.86 C 643.78 354.83 637.87 354.74 632.09 354.95 C 645.29 361.08 657.74 368.76 669.25 377.68 C 684.30 389.18 698.90 401.70 716.26 409.68 C 719.68 411.15 723.25 412.28 726.51 414.13 C 720.30 416.34 714.15 413.15 708.66 410.51 C 692.97 402.45 678.71 391.95 664.75 381.24 C 653.78 372.84 642.24 365.10 629.72 359.18 C 625.06 357.08 620.37 354.46 615.14 354.32 C 601.70 353.45 588.26 352.62 574.86 351.29 C 588.60 366.30 596.27 385.43 604.15 403.88 C 609.94 417.93 614.09 432.65 616.59 447.63 C 619.28 461.63 622.26 475.68 622.58 489.99 C 622.66 499.41 623.56 508.80 624.88 518.12 C 625.86 524.48 629.68 530.87 635.95 533.20 C 646.46 537.33 657.73 539.28 668.92 540.54 C 672.23 540.64 675.91 541.74 678.94 539.87 C 689.75 533.72 700.10 526.73 709.51 518.58 C 715.75 513.19 722.48 507.80 730.72 505.98 C 742.97 503.18 755.62 504.89 768.01 505.46 C 772.92 505.82 777.82 505.10 782.73 505.42 C 780.11 507.59 776.98 509.20 773.53 509.35 C 759.62 510.32 745.32 507.74 731.72 511.83 C 723.87 514.03 717.75 519.65 711.51 524.60 C 703.42 531.12 694.81 537.01 685.51 541.68 C 709.81 542.36 732.68 552.36 756.96 553.07 C 765.30 553.34 773.67 552.33 782.00 553.15 C 796.61 554.44 810.49 559.70 824.99 561.62 C 826.55 560.15 828.10 558.67 829.62 557.15 C 828.23 542.76 816.93 532.25 806.22 523.84 C 808.61 523.45 811.26 523.09 813.35 524.65 C 819.31 528.41 823.94 533.88 828.57 539.12 C 826.77 526.73 824.22 514.48 822.07 502.17 C 819.04 484.97 813.95 468.25 809.41 451.42 C 806.49 440.72 805.24 429.62 801.85 419.05 C 798.43 408.10 793.90 397.54 790.50 386.59 C 785.34 370.35 780.73 353.92 777.35 337.22 C 773.37 318.65 769.55 299.92 762.62 282.17 C 756.95 267.64 750.16 253.11 739.27 241.70 C 734.20 236.30 728.55 230.92 721.28 228.74 C 717.90 227.93 714.40 228.22 710.97 228.27 C 696.67 228.61 682.60 231.77 668.98 235.97 M 466.81 229.14 C 468.41 232.68 470.04 236.21 471.51 239.81 C 486.34 238.25 501.28 240.60 515.80 243.54 C 527.95 245.93 540.32 246.91 552.57 248.64 C 561.35 249.97 570.23 250.86 579.12 250.68 C 567.23 247.80 555.46 244.41 543.50 241.80 C 518.13 236.43 492.11 234.84 466.81 229.14 M 447.11 509.16 C 444.44 510.84 442.98 513.75 441.34 516.34 C 435.92 525.29 433.96 535.76 432.65 545.99 C 431.56 555.67 430.83 565.40 430.59 575.14 C 442.87 571.12 456.01 570.43 468.80 571.79 C 483.46 573.48 498.32 578.33 509.35 588.49 C 508.12 580.02 506.81 571.53 504.54 563.26 C 503.93 561.16 503.55 559.00 503.50 556.83 C 506.78 559.11 508.21 562.94 509.21 566.64 C 511.56 575.33 513.30 584.20 513.97 593.19 C 516.53 594.07 519.16 594.82 521.89 594.86 C 529.28 595.05 536.72 594.74 543.99 593.39 C 541.44 574.67 539.73 555.86 537.49 537.11 C 536.64 529.19 535.25 521.27 535.61 513.27 C 520.84 513.40 506.62 509.02 492.21 506.41 C 482.94 504.57 473.44 503.98 464.01 504.51 C 458.16 504.89 452.10 505.90 447.11 509.16 M 601.23 722.48 C 600.25 733.10 596.98 743.30 595.34 753.81 C 593.37 764.87 591.07 777.12 596.41 787.60 C 603.22 799.87 616.02 807.21 628.58 812.45 C 644.76 819.40 662.26 822.16 679.18 826.69 C 684.29 823.67 687.47 818.57 690.93 813.93 C 696.88 805.83 700.99 796.53 704.30 787.09 C 707.05 778.26 708.29 768.45 704.88 759.62 C 695.25 760.98 685.73 763.04 676.35 765.61 C 672.36 766.65 668.41 768.22 664.21 767.94 C 666.00 765.21 669.00 763.85 671.99 762.88 C 682.45 759.35 693.11 756.20 704.07 754.71 C 707.40 748.38 709.56 741.30 709.32 734.10 C 709.15 730.86 709.36 727.62 709.71 724.40 C 697.95 722.11 685.88 722.05 673.98 722.97 C 649.76 724.67 625.42 724.67 601.23 722.48 M 471.72 773.61 C 462.74 777.78 455.65 784.89 448.22 791.24 C 437.27 800.66 425.23 808.82 412.32 815.32 C 403.28 819.97 392.49 820.92 384.38 827.39 C 382.41 828.79 383.02 831.43 383.72 833.37 C 384.75 836.20 388.30 836.15 390.79 836.61 C 402.33 837.51 413.98 837.40 425.44 835.64 C 434.33 834.26 443.19 832.64 452.12 831.51 C 471.25 828.84 490.65 828.65 509.92 829.52 C 525.04 830.30 541.07 834.85 551.28 846.71 C 553.69 849.15 554.55 852.55 554.71 855.89 C 550.04 850.32 544.85 845.04 538.29 841.72 C 523.58 833.70 506.27 834.43 490.04 834.63 C 469.28 834.83 448.68 837.65 428.27 841.20 C 413.93 843.76 399.12 843.46 385.00 839.82 C 388.39 843.82 392.04 847.64 396.33 850.69 C 408.03 859.14 421.12 866.61 435.70 868.29 C 447.48 869.95 459.36 868.41 471.15 867.64 C 479.07 867.02 487.00 866.61 494.93 866.40 C 507.66 865.83 520.40 867.51 533.11 866.27 C 541.16 865.39 549.94 863.84 555.97 857.97 C 559.71 854.48 559.22 848.96 558.42 844.39 C 556.44 834.90 552.50 825.87 547.37 817.67 C 543.87 811.90 539.68 806.57 536.42 800.66 C 534.17 796.73 532.05 792.44 528.18 789.85 C 524.10 787.12 519.21 786.12 514.61 784.63 C 505.42 781.79 496.84 777.39 487.81 774.15 C 482.70 772.38 476.81 771.18 471.72 773.61 M 874.23 833.89 C 873.30 839.42 870.02 844.28 865.28 847.25 C 856.57 852.82 847.40 858.10 837.18 860.28 C 835.48 861.01 832.62 860.84 832.21 863.09 C 831.75 866.69 832.45 870.33 832.32 873.95 C 832.22 880.09 829.90 885.90 827.35 891.40 C 820.78 905.12 809.33 916.25 805.06 931.12 C 804.06 935.07 802.98 939.52 804.68 943.42 C 807.04 946.45 811.40 946.66 814.92 946.17 C 826.00 944.88 835.74 938.93 844.74 932.72 C 865.18 917.96 886.99 904.83 905.26 887.28 C 910.51 882.09 915.75 876.51 918.65 869.61 C 920.15 866.21 918.64 862.39 916.21 859.87 C 910.72 853.93 904.74 848.18 897.37 844.63 C 889.74 840.88 881.58 838.24 874.23 833.89 Z" />
</g>
<g id="#4d4d4dff">
<path fill="#4d4d4d" opacity="1.00" d=" M 196.80 101.62 C 199.52 99.49 202.32 96.70 206.04 96.78 C 209.96 96.89 213.21 99.44 216.15 101.77 C 228.97 112.53 238.00 126.81 247.75 140.22 C 264.80 163.86 283.33 187.13 307.39 204.02 C 306.44 211.54 306.35 219.21 304.39 226.57 C 302.86 232.46 301.02 238.27 299.06 244.03 C 287.94 242.26 276.74 240.22 266.39 235.59 C 256.53 231.77 247.62 225.98 238.93 220.04 C 231.41 214.71 223.87 209.15 218.04 201.94 C 215.78 199.30 214.79 195.92 213.98 192.62 C 219.94 192.55 225.82 194.05 231.05 196.88 C 238.05 200.20 243.59 205.75 250.15 209.76 C 257.92 214.64 265.75 219.50 274.13 223.29 C 266.27 216.34 257.78 210.15 249.94 203.17 C 242.11 196.17 233.12 190.04 222.82 187.40 C 219.02 186.51 214.59 185.89 211.14 188.18 C 208.47 189.97 208.65 193.54 208.11 196.34 C 195.90 189.87 184.62 181.77 174.28 172.65 C 170.72 169.24 166.92 165.82 164.71 161.33 C 163.66 159.12 163.59 154.95 166.92 155.00 C 172.28 154.58 178.20 155.96 182.09 159.91 C 187.29 165.03 192.41 170.35 198.50 174.44 C 204.11 177.65 210.34 179.59 216.49 181.48 C 201.85 169.96 187.11 158.09 175.89 143.05 C 172.98 139.14 170.25 134.13 171.88 129.15 C 172.77 125.94 176.49 127.60 178.88 127.50 C 183.40 137.53 190.21 146.33 197.62 154.38 C 202.71 159.46 207.75 164.80 214.16 168.21 C 212.75 162.83 207.96 159.59 204.74 155.36 C 199.23 148.43 193.94 141.31 188.95 133.99 C 184.31 127.18 180.43 119.38 180.48 110.95 C 180.42 107.41 181.88 103.61 185.05 101.77 C 191.13 103.16 195.63 107.90 200.05 111.98 C 213.40 125.76 224.44 141.53 236.88 156.10 C 238.82 158.40 241.14 160.34 243.65 162.00 C 242.58 157.98 240.42 154.40 237.88 151.15 C 225.08 133.97 213.11 115.77 196.80 101.62 Z" />
<path fill="#4d4d4d" opacity="1.00" d=" M 349.65 125.53 C 353.72 124.27 357.40 127.30 360.40 129.66 C 369.56 137.44 377.96 146.07 386.25 154.76 C 392.68 161.63 398.93 168.78 406.50 174.43 C 407.89 175.55 409.60 176.11 411.32 176.52 C 410.62 173.90 409.15 171.59 407.34 169.60 C 399.91 161.38 392.78 152.88 384.87 145.10 C 379.47 139.86 376.78 132.51 375.72 125.19 C 389.63 129.34 399.34 140.85 409.26 150.75 C 413.89 155.47 418.60 160.17 422.43 165.58 C 431.37 178.12 440.28 190.75 447.62 204.32 C 452.58 213.53 457.34 222.85 461.52 232.45 C 463.34 236.72 465.88 240.63 468.68 244.32 C 462.64 260.20 454.28 275.20 444.39 288.99 C 438.31 281.40 429.44 277.00 421.94 271.05 C 401.70 255.14 382.74 237.64 364.62 219.36 C 357.28 211.94 351.08 203.52 344.44 195.49 C 339.77 189.70 334.91 183.34 334.78 175.56 C 338.62 175.69 342.55 176.18 345.94 178.13 C 355.83 183.46 364.39 190.87 372.81 198.23 C 377.86 202.53 382.10 207.83 387.95 211.12 C 387.48 208.33 386.50 205.59 384.47 203.54 C 377.04 195.30 368.56 188.07 361.23 179.72 C 353.99 171.59 345.15 164.43 340.47 154.39 C 338.68 151.22 339.94 147.77 341.44 144.79 C 349.42 147.67 355.90 153.29 362.17 158.82 C 367.67 163.63 372.10 169.57 377.95 174.00 C 386.64 180.98 393.53 190.00 402.63 196.47 C 402.93 191.84 399.35 188.60 396.50 185.49 C 386.92 175.09 377.30 164.69 366.79 155.21 C 359.96 149.13 354.62 141.50 350.62 133.31 C 349.56 130.91 348.26 128.07 349.65 125.53 Z" />
<path fill="#4d4d4d" opacity="1.00" d=" M 471.72 773.61 C 476.81 771.18 482.70 772.38 487.81 774.15 C 496.84 777.39 505.42 781.79 514.61 784.63 C 519.21 786.12 524.10 787.12 528.18 789.85 C 532.05 792.44 534.17 796.73 536.42 800.66 C 539.68 806.57 543.87 811.90 547.37 817.67 C 552.50 825.87 556.44 834.90 558.42 844.39 C 559.22 848.96 559.71 854.48 555.97 857.97 C 549.94 863.84 541.16 865.39 533.11 866.27 C 520.40 867.51 507.66 865.83 494.93 866.40 C 487.00 866.61 479.07 867.02 471.15 867.64 C 459.36 868.41 447.48 869.95 435.70 868.29 C 421.12 866.61 408.03 859.14 396.33 850.69 C 392.04 847.64 388.39 843.82 385.00 839.82 C 399.12 843.46 413.93 843.76 428.27 841.20 C 448.68 837.65 469.28 834.83 490.04 834.63 C 506.27 834.43 523.58 833.70 538.29 841.72 C 544.85 845.04 550.04 850.32 554.71 855.89 C 554.55 852.55 553.69 849.15 551.28 846.71 C 541.07 834.85 525.04 830.30 509.92 829.52 C 490.65 828.65 471.25 828.84 452.12 831.51 C 443.19 832.64 434.33 834.26 425.44 835.64 C 413.98 837.40 402.33 837.51 390.79 836.61 C 388.30 836.15 384.75 836.20 383.72 833.37 C 383.02 831.43 382.41 828.79 384.38 827.39 C 392.49 820.92 403.28 819.97 412.32 815.32 C 425.23 808.82 437.27 800.66 448.22 791.24 C 455.65 784.89 462.74 777.78 471.72 773.61 Z" />
<path fill="#4d4d4d" opacity="1.00" d=" M 874.23 833.89 C 881.58 838.24 889.74 840.88 897.37 844.63 C 904.74 848.18 910.72 853.93 916.21 859.87 C 918.64 862.39 920.15 866.21 918.65 869.61 C 915.75 876.51 910.51 882.09 905.26 887.28 C 886.99 904.83 865.18 917.96 844.74 932.72 C 835.74 938.93 826.00 944.88 814.92 946.17 C 811.40 946.66 807.04 946.45 804.68 943.42 C 802.98 939.52 804.06 935.07 805.06 931.12 C 809.33 916.25 820.78 905.12 827.35 891.40 C 829.90 885.90 832.22 880.09 832.32 873.95 C 832.45 870.33 831.75 866.69 832.21 863.09 C 832.62 860.84 835.48 861.01 837.18 860.28 C 847.40 858.10 856.57 852.82 865.28 847.25 C 870.02 844.28 873.30 839.42 874.23 833.89 Z" />
</g>
<g id="#f0b58bff">
<path fill="#f0b58b" opacity="1.00" d=" M 611.66 109.63 C 615.22 106.76 619.89 108.96 623.53 110.49 C 629.63 113.29 635.86 115.84 642.24 117.97 C 638.56 118.45 634.83 118.48 631.19 119.17 C 633.50 124.00 636.37 129.23 641.50 131.50 C 646.76 133.68 652.48 131.85 657.65 130.32 C 657.44 142.79 658.06 155.38 660.67 167.61 C 661.59 172.37 663.86 176.75 667.12 180.33 C 668.65 173.32 670.70 166.35 674.14 160.02 C 676.10 156.46 679.17 153.32 683.14 152.10 C 688.45 150.37 695.11 151.78 698.42 156.53 C 701.40 160.99 701.55 166.75 700.52 171.85 C 699.05 178.97 694.70 184.95 690.86 190.96 C 687.01 196.90 687.16 204.26 686.84 211.06 C 686.54 215.69 687.13 220.31 688.25 224.81 C 676.97 226.69 666.08 230.25 655.06 233.18 C 640.28 237.18 625.68 241.83 610.96 246.01 C 609.04 242.65 606.18 239.91 604.60 236.35 C 600.90 228.76 600.88 220.16 599.56 211.98 C 598.40 202.48 595.62 193.30 592.82 184.18 C 592.11 182.26 592.23 180.13 593.30 178.36 C 597.33 170.84 601.05 163.10 603.42 154.87 C 606.49 156.00 609.57 157.11 612.65 158.21 C 612.93 160.31 612.93 162.50 613.68 164.51 C 614.49 166.06 616.39 166.44 617.94 166.90 C 626.56 168.91 635.38 169.94 644.11 171.42 C 646.18 172.13 649.54 170.80 648.23 168.18 C 642.31 156.73 630.76 148.22 618.04 146.02 C 613.39 145.12 608.72 146.47 604.63 148.65 C 605.33 140.39 604.67 132.12 604.47 123.88 C 605.72 118.74 607.62 113.25 611.66 109.63 Z" />
<path fill="#f0b58b" opacity="1.00" d=" M 447.11 509.16 C 452.10 505.90 458.16 504.89 464.01 504.51 C 473.44 503.98 482.94 504.57 492.21 506.41 C 506.62 509.02 520.84 513.40 535.61 513.27 C 535.25 521.27 536.64 529.19 537.49 537.11 C 539.73 555.86 541.44 574.67 543.99 593.39 C 536.72 594.74 529.28 595.05 521.89 594.86 C 519.16 594.82 516.53 594.07 513.97 593.19 C 513.30 584.20 511.56 575.33 509.21 566.64 C 508.21 562.94 506.78 559.11 503.50 556.83 C 503.55 559.00 503.93 561.16 504.54 563.26 C 506.81 571.53 508.12 580.02 509.35 588.49 C 498.32 578.33 483.46 573.48 468.80 571.79 C 456.01 570.43 442.87 571.12 430.59 575.14 C 430.83 565.40 431.56 555.67 432.65 545.99 C 433.96 535.76 435.92 525.29 441.34 516.34 C 442.98 513.75 444.44 510.84 447.11 509.16 Z" />
<path fill="#f0b58b" opacity="1.00" d=" M 601.23 722.48 C 625.42 724.67 649.76 724.67 673.98 722.97 C 685.88 722.05 697.95 722.11 709.71 724.40 C 709.36 727.62 709.15 730.86 709.32 734.10 C 709.56 741.30 707.40 748.38 704.07 754.71 C 693.11 756.20 682.45 759.35 671.99 762.88 C 669.00 763.85 666.00 765.21 664.21 767.94 C 668.41 768.22 672.36 766.65 676.35 765.61 C 685.73 763.04 695.25 760.98 704.88 759.62 C 708.29 768.45 707.05 778.26 704.30 787.09 C 700.99 796.53 696.88 805.83 690.93 813.93 C 687.47 818.57 684.29 823.67 679.18 826.69 C 662.26 822.16 644.76 819.40 628.58 812.45 C 616.02 807.21 603.22 799.87 596.41 787.60 C 591.07 777.12 593.37 764.87 595.34 753.81 C 596.98 743.30 600.25 733.10 601.23 722.48 Z" />
</g>
<g id="#f35e11ff">
<path fill="var(--shirt-color, grey)" opacity="1.00" d=" M 311.91 204.14 C 321.38 204.89 330.59 207.48 340.06 208.18 C 342.56 208.49 345.16 208.44 347.56 209.27 C 350.46 211.77 352.71 214.92 355.35 217.67 C 377.66 242.03 404.66 261.29 429.74 282.59 C 403.45 272.73 376.40 265.17 349.34 257.78 C 334.19 253.36 318.80 249.70 303.86 244.59 C 306.01 238.30 308.01 231.95 309.58 225.48 C 311.19 218.48 311.01 211.24 311.91 204.14 Z" />
<path fill="var(--shirt-color, grey)" opacity="1.00" d=" M 668.98 235.97 C 682.60 231.77 696.67 228.61 710.97 228.27 C 714.40 228.22 717.90 227.93 721.28 228.74 C 728.55 230.92 734.20 236.30 739.27 241.70 C 750.16 253.11 756.95 267.64 762.62 282.17 C 769.55 299.92 773.37 318.65 777.35 337.22 C 780.73 353.92 785.34 370.35 790.50 386.59 C 793.90 397.54 798.43 408.10 801.85 419.05 C 805.24 429.62 806.49 440.72 809.41 451.42 C 813.95 468.25 819.04 484.97 822.07 502.17 C 824.22 514.48 826.77 526.73 828.57 539.12 C 823.94 533.88 819.31 528.41 813.35 524.65 C 811.26 523.09 808.61 523.45 806.22 523.84 C 816.93 532.25 828.23 542.76 829.62 557.15 C 828.10 558.67 826.55 560.15 824.99 561.62 C 810.49 559.70 796.61 554.44 782.00 553.15 C 773.67 552.33 765.30 553.34 756.96 553.07 C 732.68 552.36 709.81 542.36 685.51 541.68 C 694.81 537.01 703.42 531.12 711.51 524.60 C 717.75 519.65 723.87 514.03 731.72 511.83 C 745.32 507.74 759.62 510.32 773.53 509.35 C 776.98 509.20 780.11 507.59 782.73 505.42 C 777.82 505.10 772.92 505.82 768.01 505.46 C 755.62 504.89 742.97 503.18 730.72 505.98 C 722.48 507.80 715.75 513.19 709.51 518.58 C 700.10 526.73 689.75 533.72 678.94 539.87 C 675.91 541.74 672.23 540.64 668.92 540.54 C 657.73 539.28 646.46 537.33 635.95 533.20 C 629.68 530.87 625.86 524.48 624.88 518.12 C 623.56 508.80 622.66 499.41 622.58 489.99 C 622.26 475.68 619.28 461.63 616.59 447.63 C 614.09 432.65 609.94 417.93 604.15 403.88 C 596.27 385.43 588.60 366.30 574.86 351.29 C 588.26 352.62 601.70 353.45 615.14 354.32 C 620.37 354.46 625.06 357.08 629.72 359.18 C 642.24 365.10 653.78 372.84 664.75 381.24 C 678.71 391.95 692.97 402.45 708.66 410.51 C 714.15 413.15 720.30 416.34 726.51 414.13 C 723.25 412.28 719.68 411.15 716.26 409.68 C 698.90 401.70 684.30 389.18 669.25 377.68 C 657.74 368.76 645.29 361.08 632.09 354.95 C 637.87 354.74 643.78 354.83 649.28 356.86 C 670.90 364.08 692.14 372.38 713.81 379.43 C 718.05 380.75 722.51 382.20 726.99 381.07 C 725.60 379.72 723.97 378.65 722.10 378.13 C 707.74 373.58 694.17 366.91 679.80 362.36 C 671.94 359.68 664.01 357.20 656.15 354.50 C 669.96 353.29 683.75 351.70 697.45 349.56 C 703.47 348.43 709.65 347.61 715.36 345.27 C 717.18 344.68 717.81 342.78 718.58 341.24 C 713.34 341.60 708.26 343.11 703.05 343.73 C 672.58 347.81 641.74 348.08 611.06 347.26 C 595.30 346.93 579.65 344.94 563.90 344.52 C 549.06 343.87 535.14 338.05 521.62 332.38 C 502.51 324.10 484.37 313.81 465.99 304.05 C 459.43 300.56 452.99 296.85 446.55 293.14 C 454.04 287.20 458.95 278.84 463.55 270.63 C 468.21 261.93 472.09 252.78 474.58 243.22 C 481.13 242.14 487.72 243.45 494.21 244.38 C 503.62 245.82 513.07 248.50 520.98 253.98 C 533.24 262.24 544.73 272.05 558.74 277.32 C 567.88 280.71 577.19 284.24 586.98 285.10 C 589.73 285.54 592.31 284.46 594.55 282.96 C 584.24 281.19 574.01 278.77 564.36 274.63 C 550.12 268.86 537.96 259.28 525.28 250.81 C 528.22 251.34 531.31 251.58 533.99 253.02 C 540.12 256.15 546.66 258.32 553.02 260.93 C 558.65 263.00 564.08 266.00 570.19 266.39 C 563.44 260.02 554.01 258.05 545.96 253.86 C 559.23 255.77 572.66 257.97 586.11 256.63 C 597.67 255.48 609.18 253.50 620.30 250.12 C 636.51 245.34 652.73 240.62 668.98 235.97 Z" />
<path fill="var(--shirt-color, grey)" opacity="1.00" d=" M 466.81 229.14 C 492.11 234.84 518.13 236.43 543.50 241.80 C 555.46 244.41 567.23 247.80 579.12 250.68 C 570.23 250.86 561.35 249.97 552.57 248.64 C 540.32 246.91 527.95 245.93 515.80 243.54 C 501.28 240.60 486.34 238.25 471.51 239.81 C 470.04 236.21 468.41 232.68 466.81 229.14 Z" />
</g>
</svg>
