<?xml version="1.0" encoding="UTF-8" ?>
<!DOCTYPE svg PUBLIC "-//W3C//DTD SVG 1.1//EN" "http://www.w3.org/Graphics/SVG/1.1/DTD/svg11.dtd">
<svg width="1000pt" height="1000pt" viewBox="0 0 1000 1000" version="1.1" xmlns="http://www.w3.org/2000/svg">
    <g id="#020202ff">
        <path fill="#020202" opacity="1.00"
            d=" M 240.07 31.12 C 252.99 25.89 267.06 22.29 281.08 24.25 C 287.13 24.59 292.68 27.15 298.46 28.63 C 310.78 27.48 323.04 30.62 334.68 34.40 C 342.37 37.05 346.68 44.34 352.58 49.41 C 356.90 53.39 362.00 56.36 367.14 59.13 C 365.45 62.14 362.02 62.70 358.87 63.01 C 366.31 76.66 369.85 92.41 369.11 107.93 C 368.83 114.82 366.66 121.41 364.85 128.00 C 363.41 126.03 361.97 124.05 360.40 122.19 C 359.54 130.83 359.47 140.09 354.69 147.69 C 350.59 154.86 343.06 160.07 341.35 168.53 C 339.13 174.98 345.35 179.73 347.40 185.31 C 355.05 183.01 363.11 182.57 371.05 182.53 C 381.84 182.70 392.69 183.92 403.06 187.01 C 413.50 190.14 422.21 197.27 429.24 205.41 C 453.65 205.65 477.66 210.99 500.95 217.93 C 516.15 222.52 531.40 227.29 545.61 234.46 C 556.32 239.87 566.18 246.87 575.05 254.94 C 579.79 259.22 584.43 263.89 587.19 269.74 C 588.84 273.26 589.57 277.50 588.11 281.20 C 586.11 284.54 581.99 285.43 578.60 286.68 C 580.87 302.99 576.81 319.25 572.65 334.91 C 568.93 348.40 565.43 362.03 563.94 375.97 C 563.41 381.45 563.04 387.05 564.18 392.49 C 565.51 399.30 568.08 405.98 567.80 413.02 C 567.66 418.24 566.31 423.68 568.24 428.74 C 570.33 435.33 573.43 442.20 572.24 449.25 C 571.24 453.60 566.19 453.98 562.62 453.00 C 561.90 455.78 561.59 459.28 558.74 460.79 C 556.90 461.98 554.67 461.21 552.65 461.12 C 552.18 464.33 551.88 467.98 549.32 470.32 C 547.17 472.40 543.76 472.14 541.24 470.94 C 540.76 470.15 539.12 468.40 538.59 470.06 C 538.81 471.28 539.58 471.79 540.88 471.58 C 543.04 477.22 546.26 482.43 547.87 488.29 C 551.42 500.33 554.41 512.60 555.55 525.13 C 555.67 527.04 556.98 528.53 558.01 530.05 C 563.45 537.40 566.90 545.93 570.87 554.10 C 575.75 564.62 581.35 574.83 585.19 585.80 C 587.00 590.73 588.58 595.75 590.54 600.63 C 594.06 609.17 600.19 616.21 605.22 623.85 C 611.15 633.02 616.96 642.28 622.06 651.95 C 623.59 654.88 625.27 657.74 627.18 660.45 C 625.76 661.95 624.32 663.42 622.88 664.90 C 630.64 676.58 643.94 682.29 655.32 689.67 C 678.47 704.84 702.04 719.69 722.58 738.38 C 732.65 747.30 742.75 756.26 751.76 766.28 C 761.62 776.95 770.60 788.39 779.60 799.78 C 791.70 798.71 803.78 796.51 815.96 796.90 C 826.38 797.18 837.15 802.62 841.57 812.43 C 848.09 826.67 840.77 842.98 846.54 857.42 C 849.82 864.50 855.51 870.10 859.07 877.03 C 865.02 888.34 868.54 901.21 867.58 914.05 C 866.89 924.96 864.89 935.80 861.27 946.12 C 859.04 952.47 856.81 959.10 852.29 964.24 C 849.01 968.20 842.60 968.41 838.69 965.29 C 834.42 962.02 831.65 957.23 829.67 952.33 C 826.88 945.23 824.04 938.15 820.71 931.29 C 816.77 922.75 811.00 915.23 804.82 908.21 C 799.96 902.74 795.87 896.63 790.66 891.48 C 784.55 885.53 778.39 879.62 771.91 874.09 C 761.58 865.27 753.88 853.98 745.73 843.25 C 741.22 837.20 734.59 833.42 728.06 829.96 C 714.38 822.92 700.10 817.15 686.06 810.89 C 675.49 806.33 665.29 800.80 656.10 793.83 C 644.35 785.03 634.82 773.71 625.71 762.29 C 622.48 758.19 618.81 754.28 614.08 751.90 C 608.36 748.97 602.89 745.55 597.04 742.89 C 590.76 739.96 583.67 739.01 577.80 735.20 C 570.14 730.31 564.46 723.06 558.90 716.02 C 550.29 704.85 542.17 693.32 533.66 682.07 C 522.21 681.19 510.43 681.04 499.28 684.21 C 492.33 686.21 485.40 688.25 478.48 690.35 C 475.76 691.52 473.81 688.64 472.18 686.95 C 462.98 675.57 457.90 661.62 452.74 648.11 C 449.06 638.54 442.67 630.43 437.48 621.68 C 434.01 625.80 430.84 630.23 426.82 633.84 C 425.53 635.10 423.69 635.33 421.98 635.46 C 400.85 636.40 379.44 636.30 358.76 631.29 C 356.66 633.03 354.51 634.72 352.19 636.15 C 341.25 642.73 329.97 648.72 318.77 654.84 C 316.00 656.02 315.56 659.32 315.53 661.98 C 315.67 670.13 318.51 677.92 321.66 685.34 C 327.41 698.58 334.11 711.40 339.04 724.99 C 346.66 746.21 352.02 768.36 353.39 790.92 C 354.98 815.77 358.79 840.72 367.90 864.01 C 370.56 871.08 373.36 878.34 373.29 886.01 C 373.07 892.30 374.80 898.42 376.46 904.43 C 379.95 916.70 384.59 928.63 387.77 940.99 C 389.55 946.97 388.90 953.44 385.92 958.93 C 382.18 967.34 372.84 971.43 364.06 971.71 C 351.26 972.13 338.73 968.79 326.05 967.54 C 303.06 965.31 279.72 969.67 256.91 965.05 C 245.43 962.83 234.09 959.15 224.06 953.04 C 218.61 949.64 213.29 945.15 211.16 938.89 C 209.55 934.26 211.42 929.10 214.77 925.76 C 217.72 922.59 221.91 921.04 226.01 919.99 C 237.81 916.97 249.99 915.45 261.55 911.51 C 278.00 905.98 290.29 892.72 306.30 886.29 C 300.92 876.02 297.37 864.93 292.79 854.30 C 286.64 839.92 279.92 825.75 274.86 810.92 C 266.54 788.64 261.07 765.43 256.35 742.16 C 254.75 733.50 253.06 724.82 252.76 716.00 C 252.44 707.21 252.14 698.35 250.15 689.75 C 249.13 684.00 244.07 680.40 241.47 675.43 C 237.08 667.29 231.37 658.60 233.21 648.89 C 236.17 629.59 249.41 614.40 259.14 598.17 C 261.86 593.57 264.97 589.17 267.07 584.24 C 269.42 578.87 267.01 572.74 269.36 567.37 C 272.59 559.24 279.44 553.41 285.83 547.76 C 293.80 540.75 301.57 533.42 307.92 524.87 C 314.87 515.53 323.35 507.11 333.68 501.56 C 328.76 493.48 328.53 483.57 329.63 474.45 C 330.69 467.24 332.00 459.88 335.49 453.39 C 337.34 449.63 339.84 446.10 340.81 441.97 C 339.98 438.36 337.38 435.51 335.61 432.35 C 331.87 426.00 327.67 419.76 325.57 412.63 C 323.82 406.78 327.14 401.02 326.42 395.15 C 325.93 389.66 324.15 384.40 322.27 379.26 C 320.05 390.80 320.28 402.76 317.03 414.10 C 316.29 415.95 315.91 418.34 314.08 419.44 C 309.24 419.92 304.84 417.46 300.84 415.06 C 300.36 422.26 298.48 429.91 293.17 435.13 C 287.70 440.18 280.13 441.98 272.96 443.03 C 256.23 445.44 239.14 443.30 222.52 446.72 C 213.57 448.20 204.70 452.05 195.49 450.32 C 191.24 449.36 187.19 451.41 183.03 451.91 C 174.97 453.42 165.93 453.79 158.71 449.30 C 154.32 446.53 153.95 440.61 154.96 436.01 C 152.89 430.42 153.38 424.04 157.32 419.39 C 154.52 413.15 155.72 405.43 160.94 400.83 C 160.39 397.49 160.50 393.66 163.26 391.28 C 169.34 385.71 179.08 386.82 185.45 391.32 C 187.28 389.42 189.18 387.21 191.98 386.87 C 196.87 385.95 201.43 388.88 204.86 392.06 C 209.11 396.08 212.45 400.93 215.90 405.62 C 222.78 401.59 230.89 401.37 238.46 399.55 C 241.47 398.85 244.44 397.99 247.43 397.19 C 247.54 391.54 248.51 385.94 250.24 380.56 C 246.60 380.14 242.94 379.67 239.46 378.44 C 239.44 367.55 243.00 357.14 245.80 346.75 C 248.20 335.96 249.19 324.92 250.92 314.01 C 252.81 298.31 256.58 282.82 257.15 266.97 C 257.41 254.46 257.03 240.06 266.19 230.28 C 273.77 222.68 281.36 214.97 290.17 208.78 C 289.79 207.41 289.41 206.04 289.05 204.67 C 281.15 209.61 272.60 214.97 262.95 214.79 C 257.54 214.82 253.04 211.00 250.40 206.56 C 246.07 199.74 243.77 191.91 241.51 184.23 C 236.18 185.91 229.16 186.43 225.16 181.81 C 223.76 177.38 225.90 172.65 225.81 168.08 C 226.94 155.45 221.08 143.82 215.94 132.71 C 210.92 131.88 206.16 129.81 201.98 126.94 C 198.32 124.21 197.27 119.34 197.36 115.01 C 197.65 106.88 198.48 98.51 202.17 91.13 C 204.38 86.46 208.47 82.81 209.79 77.70 C 211.05 73.15 212.02 68.46 214.26 64.26 C 221.21 51.10 233.12 41.04 246.69 35.16 C 242.58 34.98 238.47 34.98 234.38 34.67 C 236.17 33.33 238.00 32.02 240.07 31.12 M 229.51 106.37 C 228.86 109.64 228.77 112.98 228.16 116.25 C 224.79 117.78 221.71 114.28 219.03 112.63 C 219.29 116.08 219.29 119.53 219.22 122.99 C 218.54 129.10 223.24 133.75 225.10 139.21 C 229.62 132.72 237.34 129.19 245.07 128.54 C 253.57 127.93 262.06 129.97 269.78 133.45 C 260.87 139.25 251.04 143.48 241.58 148.30 C 240.48 146.67 239.42 145.01 238.33 143.37 C 234.68 143.71 231.06 144.32 227.45 144.90 C 231.93 155.88 231.75 168.00 229.78 179.51 C 232.41 180.31 235.15 181.00 237.89 180.28 C 240.36 179.98 244.16 178.68 245.36 181.81 C 248.72 190.36 250.93 199.78 257.22 206.79 C 260.48 210.51 265.95 209.70 270.14 208.32 C 279.52 204.83 288.22 199.40 295.13 192.11 C 298.37 189.40 300.51 185.12 304.81 183.93 C 304.19 186.06 303.80 188.43 302.14 190.05 C 298.69 193.92 295.40 197.93 292.22 202.03 C 294.99 206.45 295.38 211.72 296.23 216.73 C 298.19 225.94 298.83 235.58 302.77 244.24 C 307.81 242.00 310.68 237.09 313.83 232.84 C 318.33 226.71 322.33 220.17 327.62 214.66 C 331.93 209.97 337.18 206.10 340.67 200.69 C 343.21 197.05 344.17 192.41 343.69 188.04 C 342.50 184.38 339.65 181.61 337.74 178.34 C 335.91 175.59 335.15 172.33 333.62 169.44 C 331.34 166.38 327.92 164.39 325.69 161.29 C 322.88 157.51 322.26 152.55 322.67 147.97 C 322.68 144.95 325.36 143.17 327.01 141.00 C 330.77 136.09 331.79 129.37 330.31 123.44 C 329.09 119.50 324.16 118.41 320.59 119.40 C 315.39 120.93 311.38 124.96 308.24 129.20 C 304.50 134.19 302.99 140.36 300.00 145.76 C 296.51 143.40 296.30 138.93 294.55 135.45 C 290.97 127.57 283.92 122.18 278.01 116.13 C 279.04 118.86 280.61 121.33 281.82 123.97 C 282.21 125.52 280.65 126.90 279.17 126.42 C 261.43 123.36 244.80 115.66 229.51 106.37 M 348.04 188.60 C 347.65 192.39 347.58 196.36 345.85 199.85 C 342.89 205.91 337.71 210.38 332.94 214.97 C 324.41 223.03 319.08 233.68 311.54 242.55 C 309.13 245.20 306.02 248.19 302.13 247.73 C 298.96 247.04 298.01 243.41 297.08 240.76 C 294.44 231.44 293.72 221.70 291.08 212.37 C 285.54 217.39 280.00 222.42 274.73 227.72 C 271.22 231.28 267.25 234.64 265.22 239.32 C 261.61 247.36 261.39 256.36 261.44 265.02 C 261.44 282.52 257.25 299.61 255.11 316.89 C 253.29 327.99 252.41 339.29 249.31 350.14 C 246.57 358.61 244.21 367.22 242.87 376.04 C 249.48 375.69 256.17 376.82 262.05 379.95 C 272.09 385.19 281.87 391.15 290.42 398.63 C 297.24 404.69 303.84 411.09 311.70 415.83 C 314.80 402.49 315.76 388.66 320.45 375.70 C 317.02 369.93 312.23 365.19 308.06 359.99 C 301.94 352.45 294.13 346.41 288.75 338.27 C 286.49 334.72 283.25 331.18 283.48 326.70 C 285.71 326.35 286.53 328.91 287.74 330.25 C 291.61 336.31 296.73 341.40 301.83 346.40 C 297.42 335.07 295.64 322.98 293.99 311.01 C 293.67 308.70 293.68 306.36 293.81 304.04 C 294.78 305.03 296.18 305.86 296.42 307.36 C 299.47 320.28 301.21 333.56 305.58 346.14 C 308.71 355.51 316.86 361.72 322.33 369.61 C 326.52 375.40 329.04 382.22 330.62 389.14 C 331.49 393.33 332.09 397.73 331.07 401.97 C 330.41 405.21 329.27 408.61 330.43 411.89 C 333.77 421.92 341.13 429.91 345.54 439.39 C 347.11 446.81 340.87 452.80 338.53 459.41 C 334.05 472.13 331.33 486.57 336.30 499.58 C 341.65 501.48 347.31 502.55 353.01 502.15 C 363.95 501.46 374.59 498.61 385.23 496.17 C 393.35 494.29 401.71 493.85 410.01 493.58 C 422.01 493.44 434.02 493.32 446.02 493.38 C 466.12 493.25 486.84 492.45 505.66 484.63 C 512.47 481.59 519.39 478.00 524.13 472.05 C 520.99 468.32 518.19 464.24 516.50 459.64 C 512.60 449.13 514.83 437.75 516.01 426.95 C 517.12 419.29 517.96 410.65 513.15 404.02 C 507.94 398.15 503.27 391.81 499.19 385.11 C 495.88 401.77 486.44 416.22 476.78 429.86 C 474.22 433.17 471.86 437.46 467.28 438.08 C 467.83 436.41 468.34 434.72 469.27 433.21 C 478.21 419.77 487.22 406.12 492.98 390.93 C 494.91 385.19 497.12 379.21 496.44 373.05 C 495.69 364.04 495.52 355.00 495.63 345.97 C 495.51 343.13 495.80 340.08 494.50 337.46 C 491.74 333.93 487.16 331.98 485.30 327.70 C 482.53 321.39 483.31 314.11 485.47 307.73 C 479.81 305.95 474.01 304.26 468.02 304.31 C 463.82 304.24 459.74 305.36 455.57 305.52 C 460.99 299.71 469.80 300.16 477.03 301.03 C 490.74 303.49 504.29 310.02 513.14 321.03 C 519.93 315.85 526.83 310.81 533.45 305.41 C 539.96 299.52 546.26 293.09 554.36 289.39 C 563.97 285.02 574.30 282.46 584.68 280.66 C 584.67 271.62 578.54 264.44 572.04 258.91 C 563.09 250.90 553.30 243.69 542.41 238.54 C 527.30 231.16 511.03 226.66 494.99 221.83 C 473.26 215.32 450.72 211.78 428.09 210.72 C 416.16 209.77 403.94 210.62 392.28 207.56 C 389.97 205.76 393.36 204.26 395.03 204.56 C 404.37 204.82 413.72 205.28 423.07 205.18 C 418.57 201.52 414.24 197.54 409.08 194.80 C 404.73 192.41 399.92 191.01 395.08 190.01 C 379.63 186.86 363.65 186.45 348.04 188.60 M 554.24 295.23 C 548.73 298.13 544.09 302.38 539.52 306.55 C 535.43 310.28 530.93 313.52 526.49 316.81 C 527.46 333.18 526.53 349.58 526.20 365.96 C 525.26 383.70 523.52 401.38 522.41 419.11 C 521.81 428.76 519.98 438.34 520.18 448.04 C 520.36 457.18 524.78 466.52 532.63 471.50 C 533.73 470.16 535.11 468.84 535.28 467.00 C 536.06 463.90 533.44 461.37 533.31 458.37 C 533.65 456.57 535.97 456.93 536.64 458.27 C 539.46 461.83 541.36 466.62 546.12 468.02 C 547.44 465.92 548.88 463.60 548.40 460.99 C 548.25 457.23 545.17 454.53 544.32 451.03 C 543.82 449.11 546.44 447.81 547.93 449.00 C 549.73 451.22 550.73 454.13 553.15 455.81 C 554.44 456.58 556.17 458.06 557.45 456.45 C 558.57 454.59 558.21 452.34 558.30 450.28 C 555.87 447.93 550.86 445.53 552.42 441.46 C 554.67 439.16 557.76 441.72 559.28 443.64 C 561.14 446.53 564.05 448.39 567.45 448.95 C 567.93 441.84 564.55 435.32 562.35 428.77 C 560.03 421.61 563.23 414.12 561.67 406.87 C 560.33 399.60 557.52 392.54 557.63 385.05 C 557.72 372.83 560.13 360.78 562.86 348.91 C 567.85 328.80 574.99 308.75 574.38 287.74 C 567.54 289.85 560.61 291.88 554.24 295.23 M 488.39 308.91 C 487.64 314.37 487.28 320.24 489.69 325.37 C 491.84 329.71 496.97 331.60 498.98 336.04 C 500.43 339.47 500.46 343.28 500.60 346.95 C 500.78 355.32 500.91 363.69 501.48 372.04 C 501.80 376.03 502.16 380.18 504.13 383.76 C 508.02 390.92 513.45 397.05 518.04 403.74 C 521.23 375.97 522.04 347.99 522.12 320.05 C 518.89 322.35 515.57 324.51 512.10 326.41 C 509.73 324.26 507.58 321.91 505.33 319.66 C 500.50 314.92 494.42 311.81 488.39 308.91 M 254.16 381.60 C 253.30 386.45 252.88 391.36 252.28 396.25 C 256.35 396.07 260.63 395.79 264.46 397.49 C 267.42 398.81 271.37 400.59 270.67 404.57 C 267.07 403.72 263.65 402.17 259.95 401.76 C 254.22 401.04 248.57 402.75 243.14 404.39 C 235.07 406.83 226.49 406.67 218.39 408.98 C 219.38 411.41 222.16 413.60 221.52 416.45 C 219.04 417.66 216.82 415.34 215.10 413.85 C 208.67 407.00 204.58 397.62 196.09 392.92 C 193.66 391.38 190.83 392.65 189.33 394.83 C 194.53 401.73 199.87 409.19 201.17 417.94 C 201.88 421.10 199.70 423.60 197.14 425.04 C 198.49 428.07 200.49 431.49 199.12 434.87 C 198.20 437.09 195.75 437.80 193.75 438.69 C 196.55 440.48 197.29 443.66 195.87 446.67 C 205.48 447.33 214.45 443.39 223.77 441.87 C 241.05 438.69 258.80 441.01 276.09 437.92 C 281.68 436.81 287.59 434.96 291.45 430.53 C 295.64 425.51 296.57 418.85 298.04 412.70 C 291.92 407.95 286.81 402.05 280.59 397.42 C 272.31 391.34 263.63 385.65 254.16 381.60 M 165.09 395.22 C 163.26 397.60 166.64 400.25 165.65 402.64 C 163.53 405.20 160.35 407.31 160.11 410.95 C 159.09 414.19 161.56 416.90 162.08 419.95 C 160.75 422.95 158.10 425.55 158.28 429.06 C 158.24 432.12 160.73 435.13 159.04 438.10 C 157.51 440.56 158.31 443.73 160.67 445.36 C 165.85 448.79 172.54 448.91 178.46 447.69 C 183.01 446.66 188.14 446.79 191.87 443.56 C 185.56 440.66 178.52 440.50 171.85 439.03 C 170.10 438.79 168.72 437.68 167.39 436.62 C 173.34 435.28 179.49 436.00 185.46 436.83 C 181.04 434.24 177.21 430.83 173.27 427.61 C 171.72 426.71 171.27 425.12 171.49 423.43 C 176.56 425.53 181.23 428.42 185.95 431.17 C 188.67 432.82 191.86 433.39 195.02 433.20 C 194.87 429.80 193.94 426.09 191.05 423.97 C 186.66 420.71 183.66 416.07 179.88 412.19 C 177.87 410.09 175.80 408.00 174.38 405.44 C 183.52 407.37 187.38 418.20 196.43 420.49 C 196.31 415.95 194.28 411.83 192.05 407.99 C 188.23 401.72 183.74 394.41 175.98 392.83 C 172.35 392.39 167.35 391.52 165.09 395.22 M 526.29 473.87 C 524.71 476.95 522.45 479.64 519.53 481.53 C 509.66 488.59 497.92 492.44 486.10 494.70 C 463.96 498.71 441.39 497.25 419.02 497.65 C 405.97 497.61 392.78 498.08 380.12 501.55 C 366.56 504.48 352.24 508.48 338.50 504.36 C 329.66 508.74 322.32 515.53 315.95 522.96 C 312.49 527.17 309.41 531.67 305.83 535.78 C 298.15 544.79 288.50 551.80 280.27 560.25 C 276.68 564.29 272.72 569.28 273.45 575.02 C 275.41 578.32 278.98 580.10 282.17 582.00 C 292.18 587.42 302.27 592.80 311.55 599.44 C 318.52 604.10 324.95 609.51 331.97 614.10 C 340.97 620.39 351.57 623.85 362.13 626.47 C 372.31 628.66 382.66 630.24 393.09 630.56 C 403.81 631.16 414.56 630.45 425.28 631.11 C 434.66 618.72 443.55 605.66 455.66 595.71 C 464.68 588.23 475.12 582.65 483.93 574.89 C 496.35 564.02 508.43 552.76 520.25 541.25 C 522.14 539.38 524.06 537.52 526.38 536.18 C 526.51 537.93 526.28 539.72 525.00 541.04 C 520.64 546.29 515.62 550.95 510.86 555.84 C 497.89 568.70 484.92 581.84 469.27 591.48 C 477.75 593.79 486.26 595.99 494.88 597.70 C 499.84 598.67 504.86 599.94 509.96 599.36 C 508.40 597.45 506.73 595.59 504.58 594.35 C 502.41 592.90 499.55 592.25 498.30 589.74 C 502.94 588.76 507.27 591.53 510.82 594.20 C 513.32 596.00 515.46 599.59 513.46 602.54 C 511.29 605.42 507.25 605.31 504.01 605.19 C 490.13 604.02 476.85 599.48 463.72 595.13 C 460.45 597.51 457.34 600.11 454.25 602.72 C 462.00 604.22 469.35 607.15 476.88 609.45 C 487.66 612.83 498.46 616.18 509.09 620.05 C 524.08 625.57 539.40 630.15 554.34 635.82 C 556.36 636.84 560.62 636.97 559.36 640.22 C 552.97 640.69 546.85 637.96 540.63 636.78 C 518.63 631.70 497.86 622.76 476.67 615.19 C 468.12 612.09 459.88 608.09 451.07 605.77 C 447.36 609.39 444.12 613.44 440.85 617.46 C 446.45 626.43 453.05 634.90 457.05 644.78 C 462.42 659.30 467.61 674.28 477.29 686.61 C 480.51 684.90 483.93 683.59 487.41 682.53 C 494.85 680.25 502.23 677.46 510.05 676.82 C 522.30 675.73 534.77 676.29 546.76 679.14 C 553.08 680.56 559.57 681.69 566.07 681.00 C 586.11 678.92 605.26 671.34 622.17 660.55 C 616.37 650.79 610.98 640.77 604.73 631.28 C 600.08 623.42 594.01 616.50 589.47 608.57 C 585.78 602.31 583.90 595.23 581.34 588.48 C 577.54 577.29 571.71 566.98 566.72 556.32 C 562.58 547.91 559.19 539.01 553.43 531.52 C 550.12 527.76 551.14 522.42 550.12 517.88 C 547.39 502.84 544.47 487.54 537.59 473.75 C 536.15 474.64 534.82 475.86 533.11 476.21 C 530.57 476.59 528.40 475.00 526.29 473.87 M 273.36 581.19 C 272.49 584.99 271.03 588.64 269.04 592.00 C 264.47 599.70 259.76 607.32 254.72 614.73 C 247.72 625.56 240.36 636.86 238.43 649.88 C 236.99 657.41 241.31 664.16 244.27 670.72 C 245.62 673.86 248.02 676.33 250.01 679.05 C 254.03 684.43 255.45 691.16 256.40 697.67 C 262.49 691.34 270.65 687.44 279.02 685.12 C 291.29 681.70 304.64 681.38 316.78 685.54 C 313.37 676.96 310.71 667.63 312.34 658.34 C 308.38 660.42 304.64 663.33 300.14 664.11 C 296.62 663.58 300.55 660.81 301.86 659.78 C 318.53 649.30 335.52 639.35 352.62 629.60 C 342.23 626.63 332.56 621.59 323.97 615.06 C 314.17 607.72 304.35 600.34 293.74 594.19 C 286.94 589.87 279.57 586.39 273.36 581.19 M 569.43 685.68 C 559.46 687.30 549.54 684.84 539.82 682.84 C 548.08 693.11 555.68 703.89 563.78 714.29 C 568.58 720.34 573.49 726.54 580.01 730.84 C 585.50 734.46 592.21 735.22 598.13 737.89 C 604.20 740.24 609.45 744.21 615.40 746.80 C 620.21 746.87 624.69 744.27 628.65 741.72 C 639.30 734.27 647.80 723.54 652.25 711.31 C 654.44 705.60 654.33 699.17 651.45 693.73 C 639.91 686.20 626.12 679.90 619.72 666.93 C 604.78 677.13 587.22 682.99 569.43 685.68 M 257.14 703.46 C 256.72 717.78 259.07 732.01 262.00 745.98 C 266.52 766.92 271.61 787.80 278.95 807.96 C 283.66 821.71 289.63 834.96 295.63 848.18 C 301.05 859.94 304.95 872.39 311.03 883.85 C 317.13 882.30 323.65 881.25 329.81 883.09 C 338.05 885.94 344.40 892.82 353.10 894.57 C 357.88 895.75 363.92 895.43 367.22 891.30 C 370.47 884.09 367.12 876.21 364.91 869.21 C 356.61 848.35 351.57 826.29 349.78 803.92 C 348.21 782.66 345.44 761.36 339.02 740.97 C 334.31 724.06 326.80 708.16 319.53 692.24 C 313.00 688.61 305.43 687.22 298.01 687.56 C 283.17 688.15 268.25 693.46 257.14 703.46 M 658.44 698.22 C 660.31 708.55 655.82 718.73 650.24 727.18 C 643.21 737.52 633.53 746.73 621.46 750.73 C 625.76 754.41 629.18 758.94 632.77 763.28 C 641.93 774.68 651.92 785.71 664.20 793.83 C 677.79 803.33 693.59 808.75 708.62 815.45 C 719.24 820.22 730.13 824.66 739.83 831.18 C 741.61 832.48 743.89 832.05 745.96 832.11 C 756.18 831.90 765.91 836.20 776.14 835.88 C 780.32 835.87 783.01 832.15 784.96 828.94 C 787.72 823.81 785.07 818.00 782.71 813.29 C 777.08 803.85 769.69 795.66 762.84 787.12 C 753.31 775.43 743.13 764.24 731.99 754.06 C 719.54 742.75 707.01 731.44 693.20 721.77 C 681.94 713.43 669.93 706.22 658.44 698.22 M 782.09 803.30 C 787.43 810.70 793.19 819.88 790.37 829.36 C 788.36 836.79 780.48 841.25 773.05 840.53 C 763.93 839.69 755.12 836.67 745.89 836.75 C 756.23 847.25 763.73 860.30 774.98 869.96 C 783.91 877.69 792.17 886.16 800.00 895.00 C 805.99 901.38 811.85 907.92 817.09 914.93 C 823.39 923.34 827.29 933.19 830.99 942.95 C 833.48 949.34 835.54 956.42 840.91 961.08 C 842.84 962.93 846.35 963.52 848.32 961.41 C 851.58 957.95 853.40 953.42 855.21 949.09 C 859.74 937.93 862.06 925.97 862.88 913.99 C 863.77 902.14 860.53 890.28 855.16 879.80 C 850.47 870.69 841.50 863.68 840.07 853.06 C 837.69 841.17 842.42 828.90 838.77 817.20 C 836.04 808.21 827.02 802.58 817.97 801.83 C 805.99 800.79 794.08 803.54 782.09 803.30 M 310.64 889.64 C 297.30 894.61 286.81 904.72 274.44 911.50 C 259.24 920.05 241.50 921.28 224.98 925.85 C 220.42 927.07 215.27 930.69 215.88 936.01 C 217.04 941.11 221.46 944.60 225.57 947.43 C 235.33 953.73 246.56 957.43 257.92 959.53 C 275.08 963.01 292.63 960.71 309.98 961.13 C 323.64 960.57 337.05 963.36 350.48 965.33 C 358.26 966.34 366.61 967.33 374.00 964.04 C 381.22 960.63 386.08 951.96 384.01 944.04 C 380.24 927.75 372.97 912.37 370.49 895.76 C 367.43 897.99 363.92 899.72 360.09 900.01 C 353.12 900.92 346.52 897.76 340.64 894.40 C 336.37 892.01 332.44 888.73 327.57 887.65 C 321.88 886.72 316.05 887.82 310.64 889.64 Z" />
        <path fill="#020202" opacity="1.00"
            d=" M 380.37 225.91 C 401.66 224.76 422.87 227.92 443.95 230.48 C 445.73 230.96 448.70 230.52 448.60 233.16 C 444.93 234.77 440.80 233.62 436.95 233.47 C 420.65 231.52 404.36 229.32 387.94 228.70 C 385.31 228.28 381.49 229.14 380.37 225.91 Z" />
        <path fill="#020202" opacity="1.00"
            d=" M 391.45 273.57 C 390.10 272.02 389.23 270.08 389.47 268.00 C 394.32 271.58 398.14 276.31 402.56 280.38 C 413.28 291.10 425.95 299.63 436.55 310.48 C 446.21 320.29 455.65 330.33 465.02 340.43 C 462.81 341.66 460.72 340.42 459.16 338.86 C 448.00 328.66 437.68 317.57 426.45 307.44 C 414.26 296.71 401.80 286.14 391.45 273.57 Z" />
        <path fill="#020202" opacity="1.00"
            d=" M 537.35 271.33 C 538.86 270.07 541.35 272.15 540.20 273.92 C 537.79 278.97 533.61 282.88 529.95 287.02 C 525.12 291.74 519.54 296.82 512.43 297.23 C 513.37 294.65 515.90 293.49 518.00 292.03 C 522.69 288.97 526.05 284.41 529.88 280.41 C 521.91 284.01 513.40 286.20 504.87 287.97 C 502.02 288.61 499.08 288.52 496.25 287.89 C 505.70 283.93 516.10 282.77 525.44 278.45 C 529.79 276.75 533.44 273.81 537.35 271.33 Z" />
        <path fill="#020202" opacity="1.00"
            d=" M 430.71 352.67 C 431.38 350.93 432.20 349.25 433.07 347.60 C 435.62 352.38 432.94 357.67 431.22 362.26 C 424.06 377.89 413.02 392.24 398.18 401.25 C 390.74 405.63 381.79 408.99 373.11 406.67 C 367.37 405.07 362.32 401.75 357.19 398.84 C 354.90 397.28 351.62 395.88 351.72 392.62 C 355.14 392.46 358.02 394.58 361.01 395.93 C 367.70 399.27 375.27 402.42 382.87 400.50 C 394.77 397.65 404.77 389.74 412.92 380.90 C 420.31 372.56 426.93 363.24 430.71 352.67 Z" />
        <path fill="#020202" opacity="1.00"
            d=" M 471.06 376.22 C 471.53 376.23 472.47 376.24 472.93 376.24 C 473.05 380.66 471.34 384.83 469.80 388.89 C 464.38 402.59 455.42 414.74 444.44 424.50 C 430.57 436.75 414.47 446.43 397.26 453.21 C 390.35 455.91 383.60 459.04 376.55 461.35 C 374.64 462.07 372.58 461.77 370.66 461.24 C 372.28 459.94 373.97 458.70 375.85 457.81 C 394.84 449.22 413.64 439.85 430.57 427.60 C 445.45 416.89 458.72 403.18 466.22 386.26 C 467.82 382.91 468.66 379.12 471.06 376.22 Z" />
        <path fill="#020202" opacity="1.00"
            d=" M 427.03 449.96 C 431.19 448.14 435.00 445.65 439.07 443.66 C 438.88 447.29 435.44 449.04 432.78 450.80 C 422.14 457.20 410.16 460.85 398.30 464.23 C 405.82 464.54 413.38 464.33 420.85 463.34 C 425.55 462.75 430.19 461.58 434.96 461.57 C 428.59 465.75 420.77 466.33 413.42 467.26 C 406.94 467.71 400.38 468.55 393.91 467.63 C 391.98 467.27 389.28 466.61 389.24 464.19 C 389.46 461.88 392.20 461.53 393.95 460.87 C 405.16 457.83 416.42 454.73 427.03 449.96 Z" />
        <path fill="#020202" opacity="1.00"
            d=" M 510.89 525.63 C 514.87 524.40 518.42 521.81 522.67 521.52 C 521.98 522.80 521.38 524.28 520.00 525.00 C 509.07 531.88 496.35 534.98 483.93 537.95 C 463.00 543.04 441.49 545.11 420.05 546.57 C 412.38 546.80 404.59 547.39 397.00 546.04 C 398.40 544.88 400.05 544.07 401.90 544.09 C 421.00 542.96 440.00 540.59 458.94 538.00 C 476.51 535.10 494.01 531.38 510.89 525.63 Z" />
        <path fill="#020202" opacity="1.00"
            d=" M 489.48 545.67 C 491.06 544.98 493.50 544.03 493.13 546.80 C 476.36 559.52 455.58 566.07 434.85 568.50 C 417.99 570.38 400.90 571.02 384.02 568.99 C 379.04 568.34 373.95 567.44 369.45 565.11 C 369.26 562.33 372.45 563.93 373.94 563.84 C 388.14 566.35 402.69 565.90 417.03 565.14 C 432.53 564.07 448.18 562.31 462.92 557.16 C 472.09 554.10 480.81 549.89 489.48 545.67 Z" />
    </g>
    <g id="#f0b58bff">
        <path fill="#f0b58b" opacity="1.00"
            d=" M 229.51 106.37 C 244.80 115.66 261.43 123.36 279.17 126.42 C 280.65 126.90 282.21 125.52 281.82 123.97 C 280.61 121.33 279.04 118.86 278.01 116.13 C 283.92 122.18 290.97 127.57 294.55 135.45 C 296.30 138.93 296.51 143.40 300.00 145.76 C 302.99 140.36 304.50 134.19 308.24 129.20 C 311.38 124.96 315.39 120.93 320.59 119.40 C 324.16 118.41 329.09 119.50 330.31 123.44 C 331.79 129.37 330.77 136.09 327.01 141.00 C 325.36 143.17 322.68 144.95 322.67 147.97 C 322.26 152.55 322.88 157.51 325.69 161.29 C 327.92 164.39 331.34 166.38 333.62 169.44 C 335.15 172.33 335.91 175.59 337.74 178.34 C 339.65 181.61 342.50 184.38 343.69 188.04 C 344.17 192.41 343.21 197.05 340.67 200.69 C 337.18 206.10 331.93 209.97 327.62 214.66 C 322.33 220.17 318.33 226.71 313.83 232.84 C 310.68 237.09 307.81 242.00 302.77 244.24 C 298.83 235.58 298.19 225.94 296.23 216.73 C 295.38 211.72 294.99 206.45 292.22 202.03 C 295.40 197.93 298.69 193.92 302.14 190.05 C 303.80 188.43 304.19 186.06 304.81 183.93 C 300.51 185.12 298.37 189.40 295.13 192.11 C 288.22 199.40 279.52 204.83 270.14 208.32 C 265.95 209.70 260.48 210.51 257.22 206.79 C 250.93 199.78 248.72 190.36 245.36 181.81 C 244.16 178.68 240.36 179.98 237.89 180.28 C 235.15 181.00 232.41 180.31 229.78 179.51 C 231.75 168.00 231.93 155.88 227.45 144.90 C 231.06 144.32 234.68 143.71 238.33 143.37 C 239.42 145.01 240.48 146.67 241.58 148.30 C 251.04 143.48 260.87 139.25 269.78 133.45 C 262.06 129.97 253.57 127.93 245.07 128.54 C 237.34 129.19 229.62 132.72 225.10 139.21 C 223.24 133.75 218.54 129.10 219.22 122.99 C 219.29 119.53 219.29 116.08 219.03 112.63 C 221.71 114.28 224.79 117.78 228.16 116.25 C 228.77 112.98 228.86 109.64 229.51 106.37 Z" />
        <path fill="#f0b58b" opacity="1.00"
            d=" M 554.24 295.23 C 560.61 291.88 567.54 289.85 574.38 287.74 C 574.99 308.75 567.85 328.80 562.86 348.91 C 560.13 360.78 557.72 372.83 557.63 385.05 C 557.52 392.54 560.33 399.60 561.67 406.87 C 563.23 414.12 560.03 421.61 562.35 428.77 C 564.55 435.32 567.93 441.84 567.45 448.95 C 564.05 448.39 561.14 446.53 559.28 443.64 C 557.76 441.72 554.67 439.16 552.42 441.46 C 550.86 445.53 555.87 447.93 558.30 450.28 C 558.21 452.34 558.57 454.59 557.45 456.45 C 556.17 458.06 554.44 456.58 553.15 455.81 C 550.73 454.13 549.73 451.22 547.93 449.00 C 546.44 447.81 543.82 449.11 544.32 451.03 C 545.17 454.53 548.25 457.23 548.40 460.99 C 548.88 463.60 547.44 465.92 546.12 468.02 C 541.36 466.62 539.46 461.83 536.64 458.27 C 535.97 456.93 533.65 456.57 533.31 458.37 C 533.44 461.37 536.06 463.90 535.28 467.00 C 535.11 468.84 533.73 470.16 532.63 471.50 C 524.78 466.52 520.36 457.18 520.18 448.04 C 519.98 438.34 521.81 428.76 522.41 419.11 C 523.52 401.38 525.26 383.70 526.20 365.96 C 526.53 349.58 527.46 333.18 526.49 316.81 C 530.93 313.52 535.43 310.28 539.52 306.55 C 544.09 302.38 548.73 298.13 554.24 295.23 Z" />
        <path fill="#f0b58b" opacity="1.00"
            d=" M 254.16 381.60 C 263.63 385.65 272.31 391.34 280.59 397.42 C 286.81 402.05 291.92 407.95 298.04 412.70 C 296.57 418.85 295.64 425.51 291.45 430.53 C 287.59 434.96 281.68 436.81 276.09 437.92 C 258.80 441.01 241.05 438.69 223.77 441.87 C 214.45 443.39 205.48 447.33 195.87 446.67 C 197.29 443.66 196.55 440.48 193.75 438.69 C 195.75 437.80 198.20 437.09 199.12 434.87 C 200.49 431.49 198.49 428.07 197.14 425.04 C 199.70 423.60 201.88 421.10 201.17 417.94 C 199.87 409.19 194.53 401.73 189.33 394.83 C 190.83 392.65 193.66 391.38 196.09 392.92 C 204.58 397.62 208.67 407.00 215.10 413.85 C 216.82 415.34 219.04 417.66 221.52 416.45 C 222.16 413.60 219.38 411.41 218.39 408.98 C 226.49 406.67 235.07 406.83 243.14 404.39 C 248.57 402.75 254.22 401.04 259.95 401.76 C 263.65 402.17 267.07 403.72 270.67 404.57 C 271.37 400.59 267.42 398.81 264.46 397.49 C 260.63 395.79 256.35 396.07 252.28 396.25 C 252.88 391.36 253.30 386.45 254.16 381.60 Z" />
        <path fill="#f0b58b" opacity="1.00"
            d=" M 165.09 395.22 C 167.35 391.52 172.35 392.39 175.98 392.83 C 183.74 394.41 188.23 401.72 192.05 407.99 C 194.28 411.83 196.31 415.95 196.43 420.49 C 187.38 418.20 183.52 407.37 174.38 405.44 C 175.80 408.00 177.87 410.09 179.88 412.19 C 183.66 416.07 186.66 420.71 191.05 423.97 C 193.94 426.09 194.87 429.80 195.02 433.20 C 191.86 433.39 188.67 432.82 185.95 431.17 C 181.23 428.42 176.56 425.53 171.49 423.43 C 171.27 425.12 171.72 426.71 173.27 427.61 C 177.21 430.83 181.04 434.24 185.46 436.83 C 179.49 436.00 173.34 435.28 167.39 436.62 C 168.72 437.68 170.10 438.79 171.85 439.03 C 178.52 440.50 185.56 440.66 191.87 443.56 C 188.14 446.79 183.01 446.66 178.46 447.69 C 172.54 448.91 165.85 448.79 160.67 445.36 C 158.31 443.73 157.51 440.56 159.04 438.10 C 160.73 435.13 158.24 432.12 158.28 429.06 C 158.10 425.55 160.75 422.95 162.08 419.95 C 161.56 416.90 159.09 414.19 160.11 410.95 C 160.35 407.31 163.53 405.20 165.65 402.64 C 166.64 400.25 163.26 397.60 165.09 395.22 Z" />
        <path fill="#f0b58b" opacity="1.00"
            d=" M 273.36 581.19 C 279.57 586.39 286.94 589.87 293.74 594.19 C 304.35 600.34 314.17 607.72 323.97 615.06 C 332.56 621.59 342.23 626.63 352.62 629.60 C 335.52 639.35 318.53 649.30 301.86 659.78 C 300.55 660.81 296.62 663.58 300.14 664.11 C 304.64 663.33 308.38 660.42 312.34 658.34 C 310.71 667.63 313.37 676.96 316.78 685.54 C 304.64 681.38 291.29 681.70 279.02 685.12 C 270.65 687.44 262.49 691.34 256.40 697.67 C 255.45 691.16 254.03 684.43 250.01 679.05 C 248.02 676.33 245.62 673.86 244.27 670.72 C 241.31 664.16 236.99 657.41 238.43 649.88 C 240.36 636.86 247.72 625.56 254.72 614.73 C 259.76 607.32 264.47 599.70 269.04 592.00 C 271.03 588.64 272.49 584.99 273.36 581.19 Z" />
        <path fill="#f0b58b" opacity="1.00"
            d=" M 569.43 685.68 C 587.22 682.99 604.78 677.13 619.72 666.93 C 626.12 679.90 639.91 686.20 651.45 693.73 C 654.33 699.17 654.44 705.60 652.25 711.31 C 647.80 723.54 639.30 734.27 628.65 741.72 C 624.69 744.27 620.21 746.87 615.40 746.80 C 609.45 744.21 604.20 740.24 598.13 737.89 C 592.21 735.22 585.50 734.46 580.01 730.84 C 573.49 726.54 568.58 720.34 563.78 714.29 C 555.68 703.89 548.08 693.11 539.82 682.84 C 549.54 684.84 559.46 687.30 569.43 685.68 Z" />
    </g>
    <g id="#f11b27ff">
        <path fill="var(--shirt-color, grey)" opacity="1.00"
            d=" M 348.04 188.60 C 363.65 186.45 379.63 186.86 395.08 190.01 C 399.92 191.01 404.73 192.41 409.08 194.80 C 414.24 197.54 418.57 201.52 423.07 205.18 C 413.72 205.28 404.37 204.82 395.03 204.56 C 393.36 204.26 389.97 205.76 392.28 207.56 C 403.94 210.62 416.16 209.77 428.09 210.72 C 450.72 211.78 473.26 215.32 494.99 221.83 C 511.03 226.66 527.30 231.16 542.41 238.54 C 553.30 243.69 563.09 250.90 572.04 258.91 C 578.54 264.44 584.67 271.62 584.68 280.66 C 574.30 282.46 563.97 285.02 554.36 289.39 C 546.26 293.09 539.96 299.52 533.45 305.41 C 526.83 310.81 519.93 315.85 513.14 321.03 C 504.29 310.02 490.74 303.49 477.03 301.03 C 469.80 300.16 460.99 299.71 455.57 305.52 C 459.74 305.36 463.82 304.24 468.02 304.31 C 474.01 304.26 479.81 305.95 485.47 307.73 C 483.31 314.11 482.53 321.39 485.30 327.70 C 487.16 331.98 491.74 333.93 494.50 337.46 C 495.80 340.08 495.51 343.13 495.63 345.97 C 495.52 355.00 495.69 364.04 496.44 373.05 C 497.12 379.21 494.91 385.19 492.98 390.93 C 487.22 406.12 478.21 419.77 469.27 433.21 C 468.34 434.72 467.83 436.41 467.28 438.08 C 471.86 437.46 474.22 433.17 476.78 429.86 C 486.44 416.22 495.88 401.77 499.19 385.11 C 503.27 391.81 507.94 398.15 513.15 404.02 C 517.96 410.65 517.12 419.29 516.01 426.95 C 514.83 437.75 512.60 449.13 516.50 459.64 C 518.19 464.24 520.99 468.32 524.13 472.05 C 519.39 478.00 512.47 481.59 505.66 484.63 C 486.84 492.45 466.12 493.25 446.02 493.38 C 434.02 493.32 422.01 493.44 410.01 493.58 C 401.71 493.85 393.35 494.29 385.23 496.17 C 374.59 498.61 363.95 501.46 353.01 502.15 C 347.31 502.55 341.65 501.48 336.30 499.58 C 331.33 486.57 334.05 472.13 338.53 459.41 C 340.87 452.80 347.11 446.81 345.54 439.39 C 341.13 429.91 333.77 421.92 330.43 411.89 C 329.27 408.61 330.41 405.21 331.07 401.97 C 332.09 397.73 331.49 393.33 330.62 389.14 C 329.04 382.22 326.52 375.40 322.33 369.61 C 316.86 361.72 308.71 355.51 305.58 346.14 C 301.21 333.56 299.47 320.28 296.42 307.36 C 296.18 305.86 294.78 305.03 293.81 304.04 C 293.68 306.36 293.67 308.70 293.99 311.01 C 295.64 322.98 297.42 335.07 301.83 346.40 C 296.73 341.40 291.61 336.31 287.74 330.25 C 286.53 328.91 285.71 326.35 283.48 326.70 C 283.25 331.18 286.49 334.72 288.75 338.27 C 294.13 346.41 301.94 352.45 308.06 359.99 C 312.23 365.19 317.02 369.93 320.45 375.70 C 315.76 388.66 314.80 402.49 311.70 415.83 C 303.84 411.09 297.24 404.69 290.42 398.63 C 281.87 391.15 272.09 385.19 262.05 379.95 C 256.17 376.82 249.48 375.69 242.87 376.04 C 244.21 367.22 246.57 358.61 249.31 350.14 C 252.41 339.29 253.29 327.99 255.11 316.89 C 257.25 299.61 261.44 282.52 261.44 265.02 C 261.39 256.36 261.61 247.36 265.22 239.32 C 267.25 234.64 271.22 231.28 274.73 227.72 C 280.00 222.42 285.54 217.39 291.08 212.37 C 293.72 221.70 294.44 231.44 297.08 240.76 C 298.01 243.41 298.96 247.04 302.13 247.73 C 306.02 248.19 309.13 245.20 311.54 242.55 C 319.08 233.68 324.41 223.03 332.94 214.97 C 337.71 210.38 342.89 205.91 345.85 199.85 C 347.58 196.36 347.65 192.39 348.04 188.60 M 380.37 225.91 C 381.49 229.14 385.31 228.28 387.94 228.70 C 404.36 229.32 420.65 231.52 436.95 233.47 C 440.80 233.62 444.93 234.77 448.60 233.16 C 448.70 230.52 445.73 230.96 443.95 230.48 C 422.87 227.92 401.66 224.76 380.37 225.91 M 391.45 273.57 C 401.80 286.14 414.26 296.71 426.45 307.44 C 437.68 317.57 448.00 328.66 459.16 338.86 C 460.72 340.42 462.81 341.66 465.02 340.43 C 455.65 330.33 446.21 320.29 436.55 310.48 C 425.95 299.63 413.28 291.10 402.56 280.38 C 398.14 276.31 394.32 271.58 389.47 268.00 C 389.23 270.08 390.10 272.02 391.45 273.57 M 537.35 271.33 C 533.44 273.81 529.79 276.75 525.44 278.45 C 516.10 282.77 505.70 283.93 496.25 287.89 C 499.08 288.52 502.02 288.61 504.87 287.97 C 513.40 286.20 521.91 284.01 529.88 280.41 C 526.05 284.41 522.69 288.97 518.00 292.03 C 515.90 293.49 513.37 294.65 512.43 297.23 C 519.54 296.82 525.12 291.74 529.95 287.02 C 533.61 282.88 537.79 278.97 540.20 273.92 C 541.35 272.15 538.86 270.07 537.35 271.33 M 430.71 352.67 C 426.93 363.24 420.31 372.56 412.92 380.90 C 404.77 389.74 394.77 397.65 382.87 400.50 C 375.27 402.42 367.70 399.27 361.01 395.93 C 358.02 394.58 355.14 392.46 351.72 392.62 C 351.62 395.88 354.90 397.28 357.19 398.84 C 362.32 401.75 367.37 405.07 373.11 406.67 C 381.79 408.99 390.74 405.63 398.18 401.25 C 413.02 392.24 424.06 377.89 431.22 362.26 C 432.94 357.67 435.62 352.38 433.07 347.60 C 432.20 349.25 431.38 350.93 430.71 352.67 M 471.06 376.22 C 468.66 379.12 467.82 382.91 466.22 386.26 C 458.72 403.18 445.45 416.89 430.57 427.60 C 413.64 439.85 394.84 449.22 375.85 457.81 C 373.97 458.70 372.28 459.94 370.66 461.24 C 372.58 461.77 374.64 462.07 376.55 461.35 C 383.60 459.04 390.35 455.91 397.26 453.21 C 414.47 446.43 430.57 436.75 444.44 424.50 C 455.42 414.74 464.38 402.59 469.80 388.89 C 471.34 384.83 473.05 380.66 472.93 376.24 C 472.47 376.24 471.53 376.23 471.06 376.22 M 427.03 449.96 C 416.42 454.73 405.16 457.83 393.95 460.87 C 392.20 461.53 389.46 461.88 389.24 464.19 C 389.28 466.61 391.98 467.27 393.91 467.63 C 400.38 468.55 406.94 467.71 413.42 467.26 C 420.77 466.33 428.59 465.75 434.96 461.57 C 430.19 461.58 425.55 462.75 420.85 463.34 C 413.38 464.33 405.82 464.54 398.30 464.23 C 410.16 460.85 422.14 457.20 432.78 450.80 C 435.44 449.04 438.88 447.29 439.07 443.66 C 435.00 445.65 431.19 448.14 427.03 449.96 Z" />
    </g>
    <g id="#ffffffff">
        <path fill="var(--pants-color, grey)" opacity="1.00"
            d=" M 526.29 473.87 C 528.40 475.00 530.57 476.59 533.11 476.21 C 534.82 475.86 536.15 474.64 537.59 473.75 C 544.47 487.54 547.39 502.84 550.12 517.88 C 551.14 522.42 550.12 527.76 553.43 531.52 C 559.19 539.01 562.58 547.91 566.72 556.32 C 571.71 566.98 577.54 577.29 581.34 588.48 C 583.90 595.23 585.78 602.31 589.47 608.57 C 594.01 616.50 600.08 623.42 604.73 631.28 C 610.98 640.77 616.37 650.79 622.17 660.55 C 605.26 671.34 586.11 678.92 566.07 681.00 C 559.57 681.69 553.08 680.56 546.76 679.14 C 534.77 676.29 522.30 675.73 510.05 676.82 C 502.23 677.46 494.85 680.25 487.41 682.53 C 483.93 683.59 480.51 684.90 477.29 686.61 C 467.61 674.28 462.42 659.30 457.05 644.78 C 453.05 634.90 446.45 626.43 440.85 617.46 C 444.12 613.44 447.36 609.39 451.07 605.77 C 459.88 608.09 468.12 612.09 476.67 615.19 C 497.86 622.76 518.63 631.70 540.63 636.78 C 546.85 637.96 552.97 640.69 559.36 640.22 C 560.62 636.97 556.36 636.84 554.34 635.82 C 539.40 630.15 524.08 625.57 509.09 620.05 C 498.46 616.18 487.66 612.83 476.88 609.45 C 469.35 607.15 462.00 604.22 454.25 602.72 C 457.34 600.11 460.45 597.51 463.72 595.13 C 476.85 599.48 490.13 604.02 504.01 605.19 C 507.25 605.31 511.29 605.42 513.46 602.54 C 515.46 599.59 513.32 596.00 510.82 594.20 C 507.27 591.53 502.94 588.76 498.30 589.74 C 499.55 592.25 502.41 592.90 504.58 594.35 C 506.73 595.59 508.40 597.45 509.96 599.36 C 504.86 599.94 499.84 598.67 494.88 597.70 C 486.26 595.99 477.75 593.79 469.27 591.48 C 484.92 581.84 497.89 568.70 510.86 555.84 C 515.62 550.95 520.64 546.29 525.00 541.04 C 526.28 539.72 526.51 537.93 526.38 536.18 C 524.06 537.52 522.14 539.38 520.25 541.25 C 508.43 552.76 496.35 564.02 483.93 574.89 C 475.12 582.65 464.68 588.23 455.66 595.71 C 443.55 605.66 434.66 618.72 425.28 631.11 C 414.56 630.45 403.81 631.16 393.09 630.56 C 382.66 630.24 372.31 628.66 362.13 626.47 C 351.57 623.85 340.97 620.39 331.97 614.10 C 324.95 609.51 318.52 604.10 311.55 599.44 C 302.27 592.80 292.18 587.42 282.17 582.00 C 278.98 580.10 275.41 578.32 273.45 575.02 C 272.72 569.28 276.68 564.29 280.27 560.25 C 288.50 551.80 298.15 544.79 305.83 535.78 C 309.41 531.67 312.49 527.17 315.95 522.96 C 322.32 515.53 329.66 508.74 338.50 504.36 C 352.24 508.48 366.56 504.48 380.12 501.55 C 392.78 498.08 405.97 497.61 419.02 497.65 C 441.39 497.25 463.96 498.71 486.10 494.70 C 497.92 492.44 509.66 488.59 519.53 481.53 C 522.45 479.64 524.71 476.95 526.29 473.87 M 510.89 525.63 C 494.01 531.38 476.51 535.10 458.94 538.00 C 440.00 540.59 421.00 542.96 401.90 544.09 C 400.05 544.07 398.40 544.88 397.00 546.04 C 404.59 547.39 412.38 546.80 420.05 546.57 C 441.49 545.11 463.00 543.04 483.93 537.95 C 496.35 534.98 509.07 531.88 520.00 525.00 C 521.38 524.28 521.98 522.80 522.67 521.52 C 518.42 521.81 514.87 524.40 510.89 525.63 M 489.48 545.67 C 480.81 549.89 472.09 554.10 462.92 557.16 C 448.18 562.31 432.53 564.07 417.03 565.14 C 402.69 565.90 388.14 566.35 373.94 563.84 C 372.45 563.93 369.26 562.33 369.45 565.11 C 373.95 567.44 379.04 568.34 384.02 568.99 C 400.90 571.02 417.99 570.38 434.85 568.50 C 455.58 566.07 476.36 559.52 493.13 546.80 C 493.50 544.03 491.06 544.98 489.48 545.67 Z" />
        <path fill="var(--socks-color, grey)" opacity="1.00"
            d=" M 257.14 703.46 C 268.25 693.46 283.17 688.15 298.01 687.56 C 305.43 687.22 313.00 688.61 319.53 692.24 C 326.80 708.16 334.31 724.06 339.02 740.97 C 345.44 761.36 348.21 782.66 349.78 803.92 C 351.57 826.29 356.61 848.35 364.91 869.21 C 367.12 876.21 370.47 884.09 367.22 891.30 C 363.92 895.43 357.88 895.75 353.10 894.57 C 344.40 892.82 338.05 885.94 329.81 883.09 C 323.65 881.25 317.13 882.30 311.03 883.85 C 304.95 872.39 301.05 859.94 295.63 848.18 C 289.63 834.96 283.66 821.71 278.95 807.96 C 271.61 787.80 266.52 766.92 262.00 745.98 C 259.07 732.01 256.72 717.78 257.14 703.46 Z" />
        <path fill="var(--socks-color, grey)" opacity="1.00"
            d=" M 658.44 698.22 C 669.93 706.22 681.94 713.43 693.20 721.77 C 707.01 731.44 719.54 742.75 731.99 754.06 C 743.13 764.24 753.31 775.43 762.84 787.12 C 769.69 795.66 777.08 803.85 782.71 813.29 C 785.07 818.00 787.72 823.81 784.96 828.94 C 783.01 832.15 780.32 835.87 776.14 835.88 C 765.91 836.20 756.18 831.90 745.96 832.11 C 743.89 832.05 741.61 832.48 739.83 831.18 C 730.13 824.66 719.24 820.22 708.62 815.45 C 693.59 808.75 677.79 803.33 664.20 793.83 C 651.92 785.71 641.93 774.68 632.77 763.28 C 629.18 758.94 625.76 754.41 621.46 750.73 C 633.53 746.73 643.21 737.52 650.24 727.18 C 655.82 718.73 660.31 708.55 658.44 698.22 Z" />
    </g>
    <g id="#4d4d4dff">
        <path fill="#4d4d4d" opacity="1.00"
            d=" M 782.09 803.30 C 794.08 803.54 805.99 800.79 817.97 801.83 C 827.02 802.58 836.04 808.21 838.77 817.20 C 842.42 828.90 837.69 841.17 840.07 853.06 C 841.50 863.68 850.47 870.69 855.16 879.80 C 860.53 890.28 863.77 902.14 862.88 913.99 C 862.06 925.97 859.74 937.93 855.21 949.09 C 853.40 953.42 851.58 957.95 848.32 961.41 C 846.35 963.52 842.84 962.93 840.91 961.08 C 835.54 956.42 833.48 949.34 830.99 942.95 C 827.29 933.19 823.39 923.34 817.09 914.93 C 811.85 907.92 805.99 901.38 800.00 895.00 C 792.17 886.16 783.91 877.69 774.98 869.96 C 763.73 860.30 756.23 847.25 745.89 836.75 C 755.12 836.67 763.93 839.69 773.05 840.53 C 780.48 841.25 788.36 836.79 790.37 829.36 C 793.19 819.88 787.43 810.70 782.09 803.30 Z" />
        <path fill="#4d4d4d" opacity="1.00"
            d=" M 310.64 889.64 C 316.05 887.82 321.88 886.72 327.57 887.65 C 332.44 888.73 336.37 892.01 340.64 894.40 C 346.52 897.76 353.12 900.92 360.09 900.01 C 363.92 899.72 367.43 897.99 370.49 895.76 C 372.97 912.37 380.24 927.75 384.01 944.04 C 386.08 951.96 381.22 960.63 374.00 964.04 C 366.61 967.33 358.26 966.34 350.48 965.33 C 337.05 963.36 323.64 960.57 309.98 961.13 C 292.63 960.71 275.08 963.01 257.92 959.53 C 246.56 957.43 235.33 953.73 225.57 947.43 C 221.46 944.60 217.04 941.11 215.88 936.01 C 215.27 930.69 220.42 927.07 224.98 925.85 C 241.50 921.28 259.24 920.05 274.44 911.50 C 286.81 904.72 297.30 894.61 310.64 889.64 Z" />
    </g>
</svg>