<?xml version="1.0" encoding="UTF-8" ?>
<!DOCTYPE svg PUBLIC "-//W3C//DTD SVG 1.1//EN" "http://www.w3.org/Graphics/SVG/1.1/DTD/svg11.dtd">
<svg width="1000pt" height="1000pt" viewBox="0 0 1000 1000" version="1.1" xmlns="http://www.w3.org/2000/svg">
    <g id="#020202ff">
        <path fill="#020202" opacity="1.00"
            d=" M 466.76 63.97 C 467.30 61.97 469.69 61.98 471.17 62.87 C 475.41 65.14 480.19 66.40 484.99 66.59 C 490.01 66.11 494.95 63.69 500.07 65.05 C 505.38 65.51 510.05 68.26 515.10 69.62 C 524.45 70.77 534.41 71.17 542.63 76.34 C 554.45 83.63 560.88 97.41 561.78 110.96 C 561.75 113.63 561.05 116.35 561.79 118.98 C 563.65 123.49 566.89 127.25 570.48 130.47 C 572.69 133.56 569.63 136.61 567.06 138.09 C 566.57 146.24 570.05 155.09 565.69 162.66 C 559.48 170.26 558.32 180.26 556.20 189.50 C 554.59 196.73 550.69 203.24 549.39 210.56 C 547.93 215.84 546.36 221.12 544.16 226.15 C 545.76 226.47 547.31 227.50 549.00 227.24 C 561.07 225.30 573.10 228.55 584.76 231.34 C 589.85 232.76 594.55 229.66 599.39 228.58 C 606.07 226.42 613.30 227.80 619.65 230.36 C 635.76 238.10 653.20 243.01 670.95 245.03 C 679.24 245.83 687.38 247.93 695.15 250.87 C 698.25 252.53 702.10 253.15 704.35 256.08 C 710.57 252.15 717.97 251.04 725.03 249.53 C 759.10 242.87 793.88 241.26 828.46 239.30 C 841.14 238.47 853.00 233.66 865.14 230.34 C 875.29 227.48 885.66 225.51 895.99 223.40 C 904.11 222.29 912.81 221.86 920.38 225.59 C 925.19 228.20 930.73 230.34 933.79 235.18 C 935.21 237.29 934.83 240.08 933.30 242.03 C 936.56 244.25 939.56 247.84 939.33 252.01 C 938.96 255.74 935.55 257.85 932.94 260.05 C 935.25 265.22 930.47 269.19 926.30 271.14 C 926.17 274.10 924.15 277.09 921.05 277.44 C 916.13 278.07 911.91 274.43 907.00 274.94 C 896.17 275.36 884.93 275.44 874.75 271.18 C 870.71 269.25 866.13 269.63 861.86 270.31 C 839.24 273.16 817.15 278.84 794.84 283.32 C 772.92 287.76 751.21 293.40 728.97 296.07 C 719.16 297.34 709.29 297.86 699.43 298.57 C 697.91 306.17 696.38 313.77 695.30 321.45 C 694.51 324.80 694.59 328.82 691.89 331.35 C 689.69 332.52 687.30 330.60 684.99 331.18 C 670.25 333.08 654.86 335.71 642.43 344.42 C 640.72 345.67 638.44 346.60 638.00 348.92 C 634.86 359.34 635.37 370.40 633.60 381.06 C 631.28 393.33 626.01 404.76 620.91 416.07 C 621.43 425.33 622.85 434.92 619.93 443.94 C 617.75 451.92 614.65 459.59 610.99 466.99 C 606.61 478.79 599.73 489.82 590.02 497.96 C 583.83 502.73 576.23 505.26 568.62 506.70 C 574.98 516.51 576.77 528.76 575.77 540.24 C 575.56 543.17 575.08 546.10 575.15 549.05 C 579.04 550.29 582.72 552.70 584.37 556.59 C 587.97 564.62 586.85 573.69 585.90 582.17 C 590.02 583.81 594.25 585.51 597.58 588.54 C 604.45 594.70 608.04 603.46 611.05 611.97 C 615.90 626.33 618.17 641.88 615.64 656.92 C 613.44 657.94 611.20 656.37 609.06 655.90 C 613.51 678.73 616.21 701.85 618.20 725.01 C 618.52 730.77 618.67 736.65 617.12 742.27 C 615.17 749.66 610.79 756.14 605.72 761.75 C 596.10 772.22 587.45 783.52 578.32 794.40 C 567.29 808.92 555.61 822.93 543.38 836.45 C 532.83 847.55 521.55 857.91 510.28 868.27 C 500.20 877.27 489.83 886.03 478.50 893.44 C 480.53 897.02 482.21 900.88 485.10 903.90 C 491.04 910.46 499.24 914.12 507.08 917.85 C 516.75 923.01 526.73 928.85 532.76 938.33 C 534.30 940.88 536.14 943.87 535.23 946.97 C 534.51 949.04 532.42 950.15 530.39 950.56 C 524.98 951.77 519.44 950.74 513.98 950.63 C 504.54 950.26 495.73 946.49 486.52 944.81 C 469.59 940.74 452.18 939.33 435.10 936.10 C 428.37 935.12 421.54 933.06 416.13 928.83 C 410.21 921.36 412.17 910.92 415.81 902.87 C 421.10 891.85 429.08 882.30 438.18 874.22 C 444.75 866.95 450.16 858.72 455.58 850.59 C 463.39 837.76 470.04 824.18 479.11 812.15 C 490.88 796.15 505.06 782.14 519.14 768.19 C 524.89 762.53 530.47 756.58 534.59 749.61 C 536.49 746.38 537.33 742.63 537.47 738.93 C 537.80 726.32 533.85 714.22 531.14 702.05 C 529.62 693.19 526.61 684.66 525.06 675.81 C 518.38 679.76 510.68 681.49 503.08 682.60 C 500.86 682.58 497.37 683.25 496.62 680.41 C 495.58 678.50 495.28 676.34 494.88 674.25 C 492.85 662.30 489.19 650.50 483.02 640.02 C 480.22 635.33 477.56 630.26 472.98 627.04 C 466.09 635.47 459.25 643.96 451.80 651.92 C 447.93 655.97 444.33 660.50 439.37 663.29 C 436.25 665.03 433.20 666.88 430.05 668.56 C 425.06 667.65 421.41 663.96 417.63 660.91 C 411.95 669.34 403.99 675.78 396.74 682.79 C 384.31 694.68 374.03 708.70 360.85 719.81 C 354.74 724.94 347.64 729.21 339.70 730.65 C 323.56 733.86 307.05 731.15 291.06 728.30 C 264.46 722.98 238.59 714.58 212.00 709.21 C 198.48 705.89 184.75 703.45 171.15 700.52 C 168.30 700.18 165.78 698.69 163.04 698.07 C 155.71 697.79 148.37 696.73 141.05 697.60 C 129.30 698.91 117.98 702.94 107.61 708.55 C 95.90 714.42 81.64 718.21 69.00 713.00 C 64.04 711.21 60.93 706.48 59.50 701.62 C 57.76 692.68 60.94 683.47 66.21 676.28 C 77.64 661.58 93.27 650.23 110.80 643.91 C 128.40 636.94 147.66 636.00 165.39 629.45 C 173.42 626.69 182.06 623.58 190.62 625.57 C 199.57 627.80 203.55 638.68 201.15 646.94 C 223.44 646.47 245.71 644.25 268.01 645.25 C 284.44 645.77 301.00 649.09 315.88 656.19 C 316.98 655.19 317.98 654.08 318.75 652.81 C 325.05 643.02 332.95 634.41 340.95 626.01 C 337.89 625.36 334.76 625.05 331.75 624.21 C 329.54 622.02 331.13 618.63 332.25 616.26 C 337.34 607.08 344.10 598.78 347.86 588.88 C 350.82 581.90 350.68 574.14 352.85 566.95 C 355.40 558.01 360.26 549.45 367.76 543.78 C 371.55 540.59 376.80 538.65 378.81 533.77 C 381.70 528.27 381.71 521.86 384.32 516.27 C 387.98 508.06 393.63 500.99 398.35 493.40 C 400.58 490.24 402.05 486.60 404.58 483.65 C 397.54 482.83 390.99 477.20 390.61 469.86 C 388.64 460.02 393.53 450.68 398.48 442.56 C 401.75 436.82 406.84 432.29 409.28 426.07 C 408.42 424.48 407.50 422.83 407.49 420.99 C 407.22 414.34 408.45 407.67 410.75 401.44 C 413.63 394.71 416.08 387.74 417.83 380.62 C 418.67 375.90 418.36 371.06 417.97 366.31 C 407.78 364.96 397.44 363.53 387.15 364.63 C 379.62 365.48 372.60 368.52 365.27 370.21 C 358.57 371.42 351.60 372.74 344.85 371.12 C 342.26 370.36 343.33 366.87 341.95 365.07 C 338.88 360.55 334.02 357.67 330.72 353.34 C 323.76 356.54 317.01 360.21 309.86 362.95 C 293.04 368.87 275.42 371.89 258.13 376.05 C 246.50 379.34 235.03 383.14 223.42 386.52 C 200.57 393.17 178.62 403.18 154.97 406.91 C 147.78 408.55 140.35 408.59 133.02 408.26 C 125.94 407.46 119.09 405.33 112.29 403.27 C 111.83 405.72 110.86 408.36 108.35 409.37 C 104.64 410.91 101.02 413.17 96.97 413.53 C 93.66 413.89 92.11 410.50 91.01 408.00 C 89.15 403.15 87.74 398.10 86.84 392.99 C 85.85 385.00 91.49 377.93 97.98 374.01 C 105.89 369.29 114.58 364.90 124.04 365.16 C 130.80 364.94 136.92 368.12 143.42 369.39 C 148.19 370.35 152.89 372.92 157.86 371.49 C 169.93 368.36 181.62 363.91 193.11 359.09 C 204.58 354.22 216.46 350.31 227.59 344.65 C 231.80 342.46 236.25 340.78 240.38 338.47 C 255.52 329.67 270.67 319.96 288.02 316.23 C 294.23 314.33 300.27 311.94 306.51 310.15 C 305.29 304.58 305.02 298.73 306.25 293.14 C 307.18 291.41 309.51 292.37 311.05 292.09 C 318.33 291.03 325.49 288.79 331.63 284.63 C 345.65 275.71 361.71 269.61 373.64 257.71 C 378.74 253.45 383.42 248.58 389.28 245.31 C 402.75 237.26 418.68 235.44 433.95 233.53 C 443.20 232.08 452.54 231.32 461.77 229.72 C 457.70 222.92 454.65 215.53 452.16 208.03 C 450.54 199.89 447.86 192.02 445.79 183.99 C 442.76 182.92 439.34 183.50 436.66 181.39 C 430.31 178.74 425.16 173.58 422.62 167.17 C 420.03 160.50 425.57 154.38 425.72 147.73 C 426.44 135.96 425.68 123.66 430.51 112.58 C 433.02 105.67 438.16 100.24 443.31 95.19 C 439.45 91.68 444.19 88.13 446.36 85.35 C 451.76 78.08 460.11 72.65 469.36 72.47 C 467.70 69.99 466.35 67.00 466.76 63.97 M 510.93 149.69 C 509.00 150.18 507.01 149.36 505.10 149.81 C 501.26 151.50 498.55 154.93 494.84 156.83 C 487.37 160.76 479.18 163.33 470.78 164.21 C 467.80 164.50 464.58 165.53 461.72 164.20 C 459.65 163.29 460.19 160.61 460.95 159.00 C 459.15 160.01 455.14 161.37 455.01 158.08 C 456.34 154.82 458.17 151.76 459.07 148.33 C 455.00 151.89 451.11 155.77 447.92 160.15 C 445.74 167.51 451.07 174.70 449.23 182.03 C 461.13 180.96 473.07 180.32 485.01 179.67 C 486.45 179.51 487.68 180.61 487.99 181.98 C 491.09 188.89 490.90 196.65 491.27 204.07 C 491.21 207.18 491.57 210.58 489.99 213.41 C 489.59 213.24 488.78 212.89 488.38 212.72 C 486.73 207.33 487.68 201.59 487.31 196.05 C 476.74 196.46 466.19 197.27 455.64 197.94 C 458.40 207.91 462.04 217.72 467.30 226.65 C 472.95 234.31 479.16 241.54 485.15 248.93 C 488.72 253.30 491.63 259.59 497.96 260.23 C 502.75 260.07 506.19 256.42 509.80 253.74 C 515.83 248.80 522.25 244.35 528.09 239.17 C 531.69 236.09 535.54 232.88 537.26 228.32 C 542.93 216.68 545.31 203.86 549.64 191.72 C 537.38 192.46 525.13 193.43 512.86 193.78 C 511.26 191.89 511.44 189.14 510.71 186.87 C 510.30 184.03 508.89 181.19 509.36 178.31 C 510.80 177.67 512.40 177.71 513.95 177.61 C 523.08 177.15 532.21 176.65 541.36 176.58 C 540.22 170.54 539.05 164.42 536.11 158.95 C 535.17 157.52 534.84 155.29 533.12 154.64 C 530.21 156.32 527.36 161.54 523.62 158.39 C 521.10 154.29 520.26 149.23 516.94 145.58 C 515.17 147.24 513.48 149.32 510.93 149.69 M 903.34 226.51 C 905.77 228.81 908.38 230.91 910.75 233.27 C 914.49 232.48 918.32 232.28 922.13 231.94 L 922.72 232.99 C 921.50 234.63 919.42 234.89 917.58 235.28 C 914.11 235.88 910.67 236.59 907.20 237.07 C 910.43 241.89 916.99 240.87 922.01 241.26 C 925.05 240.99 929.41 242.25 931.24 239.00 C 931.69 236.76 929.42 235.22 928.01 233.86 C 920.80 228.97 912.23 225.40 903.34 226.51 M 865.37 234.56 C 853.43 238.05 841.66 242.65 829.14 243.56 C 793.91 245.69 758.54 247.73 723.82 254.37 C 717.65 255.63 711.27 256.67 705.75 259.87 C 705.98 262.61 705.91 265.39 705.41 268.11 C 703.88 276.83 701.73 285.43 700.27 294.17 C 709.79 292.87 719.42 292.41 728.96 291.12 C 752.24 288.30 774.93 282.17 797.86 277.47 C 820.17 273.02 842.25 267.05 864.97 265.07 C 870.46 264.55 875.84 266.19 880.93 268.05 C 888.24 270.62 896.06 271.01 903.74 271.11 C 901.56 269.34 898.91 267.71 897.93 264.95 C 897.19 262.83 899.23 261.47 900.57 260.25 C 899.33 258.41 898.08 256.57 897.32 254.48 C 891.36 253.34 885.38 251.74 879.97 248.98 C 878.09 248.36 877.43 245.07 879.94 244.83 C 887.61 245.83 894.90 250.09 902.71 249.51 C 901.47 248.27 900.04 246.92 900.08 245.02 C 899.91 242.18 902.60 240.50 904.68 239.14 C 902.74 236.74 904.69 233.84 907.48 233.65 C 904.65 231.59 901.42 229.75 899.54 226.71 C 888.05 228.84 876.59 231.29 865.37 234.56 M 542.41 230.53 C 539.96 236.30 535.36 240.72 530.68 244.72 C 523.98 250.83 516.04 255.36 509.08 261.15 C 505.89 263.55 502.50 266.04 498.42 266.52 C 502.18 269.58 506.18 272.54 510.79 274.19 C 514.95 275.19 519.39 275.17 523.60 274.42 C 531.37 271.15 539.00 266.96 544.64 260.55 C 548.72 256.18 550.79 250.00 550.29 244.07 C 549.23 238.89 547.05 233.47 542.41 230.53 M 550.32 231.15 C 554.19 236.58 557.13 243.21 556.03 250.02 C 554.85 262.17 544.93 271.92 533.82 275.89 C 526.10 280.01 516.75 281.49 508.32 278.76 C 500.93 275.81 493.99 270.96 489.91 263.99 C 485.16 260.42 481.95 255.34 478.20 250.82 C 473.42 245.09 469.06 239.04 464.32 233.29 C 448.14 237.14 431.35 237.58 415.07 240.91 C 406.25 242.41 397.50 245.06 389.88 249.83 C 384.57 253.05 380.34 257.65 375.68 261.68 C 364.62 273.49 349.19 279.35 335.73 287.79 C 327.82 292.84 318.79 297.23 309.18 296.70 C 309.78 311.11 317.53 323.59 324.11 335.95 C 328.14 343.79 333.61 350.94 340.33 356.67 C 343.52 359.54 346.76 362.99 347.09 367.52 C 354.52 367.81 361.81 365.74 368.85 363.56 C 379.05 359.65 390.00 357.31 400.97 358.43 C 394.22 355.52 387.63 352.23 381.05 348.95 C 379.19 347.87 376.81 347.07 376.04 344.84 C 378.00 343.22 380.36 345.09 382.33 345.72 C 393.75 351.09 405.73 355.19 416.91 361.10 C 415.38 354.97 412.92 349.08 411.41 342.96 L 411.90 341.77 C 413.00 342.06 413.76 342.73 414.18 343.78 C 419.22 353.40 422.95 364.01 422.67 375.01 C 423.02 390.82 411.57 404.22 412.18 420.07 C 411.95 423.75 415.95 425.56 419.04 425.93 C 433.72 426.81 447.87 421.12 460.82 414.79 C 463.01 413.56 465.50 411.81 465.39 408.99 C 463.11 408.03 460.74 407.28 458.59 406.06 C 458.13 404.09 460.03 402.35 461.94 402.98 C 464.50 403.80 467.68 404.55 469.03 407.13 C 470.55 410.62 468.54 414.59 465.75 416.78 C 461.42 420.13 456.25 422.10 451.26 424.24 C 443.53 427.29 435.52 430.07 427.15 430.48 C 422.56 430.92 417.79 431.10 413.46 429.24 C 411.81 434.75 407.57 438.83 404.67 443.66 C 400.67 449.97 396.18 456.39 394.97 463.93 C 394.42 468.24 394.66 473.65 398.70 476.27 C 405.07 479.05 412.20 479.03 419.03 478.65 C 426.44 478.33 433.52 475.35 441.00 475.77 C 447.35 476.04 453.65 477.17 459.85 478.53 C 475.36 482.21 490.58 487.03 505.58 492.39 C 512.80 494.95 519.87 497.97 527.34 499.77 C 539.00 502.48 551.17 503.86 563.09 502.04 C 573.33 500.54 584.42 497.64 591.27 489.28 C 599.84 480.26 604.28 468.50 609.39 457.40 C 611.40 451.72 613.30 445.99 615.21 440.27 C 617.24 434.38 616.37 428.09 616.88 421.99 C 610.24 429.91 603.08 437.38 595.40 444.29 C 588.02 451.68 580.58 459.02 572.83 466.02 C 572.48 465.90 571.78 465.66 571.43 465.54 C 570.66 462.53 573.62 460.40 575.22 458.26 C 582.27 450.94 588.59 442.94 596.05 436.02 C 601.93 430.55 607.13 424.43 612.49 418.46 C 617.16 413.18 619.22 406.31 622.00 399.97 C 625.27 392.68 627.87 385.02 628.97 377.08 C 629.87 368.99 630.02 360.80 631.62 352.79 C 627.12 355.59 623.75 360.20 618.84 362.24 C 617.74 360.71 619.26 359.19 620.12 358.03 C 624.88 352.78 630.55 348.53 635.73 343.74 C 650.43 331.45 670.12 327.97 688.65 326.42 C 691.25 309.57 693.73 292.64 698.02 276.11 C 699.32 270.49 701.29 264.91 700.90 259.06 C 699.46 257.05 696.58 256.75 694.56 255.45 C 686.42 252.07 677.67 250.22 668.90 249.54 C 651.92 247.74 635.13 243.44 619.67 236.13 C 615.09 233.99 610.05 232.43 604.95 232.83 C 600.07 233.48 595.64 235.78 590.94 237.08 C 587.79 237.99 584.53 237.14 581.45 236.44 C 571.27 233.74 560.91 231.17 550.32 231.15 M 903.50 244.96 C 904.60 246.76 907.20 248.14 906.64 250.59 C 905.99 253.10 902.99 252.96 900.99 253.48 C 902.67 256.88 906.48 261.40 902.05 264.52 C 905.53 267.73 909.69 270.12 914.02 271.99 C 916.59 272.78 919.51 274.54 922.14 273.02 C 922.70 271.54 922.11 269.63 923.47 268.49 C 925.47 266.80 928.23 266.00 929.74 263.73 C 929.65 262.45 929.14 261.25 928.93 260.00 C 929.47 255.81 935.31 255.17 935.86 251.03 C 935.43 248.01 933.22 245.61 930.94 243.77 C 927.39 244.80 923.66 244.35 920.02 244.43 C 915.69 244.14 911.04 244.03 907.28 241.61 C 905.90 242.60 904.46 243.54 903.50 244.96 M 298.11 317.44 C 290.50 320.29 282.28 321.30 274.89 324.79 C 264.18 329.32 254.08 335.14 244.16 341.17 C 239.75 343.94 234.86 345.76 230.26 348.16 C 218.56 354.20 206.13 358.65 194.08 363.93 C 182.65 368.89 170.95 373.36 158.88 376.47 C 152.78 378.30 146.93 375.31 141.05 374.13 C 135.97 373.17 131.21 370.80 126.00 370.56 C 116.94 370.07 108.00 373.48 100.76 378.77 C 96.82 382.17 91.66 386.05 92.59 391.98 C 93.70 397.43 95.19 402.86 97.27 408.04 C 100.34 406.80 103.36 405.44 106.43 404.20 C 106.76 403.64 107.43 402.54 107.76 401.98 C 103.94 400.76 99.30 399.55 97.36 395.67 C 96.14 391.89 99.99 389.25 102.95 387.95 C 107.96 385.66 113.24 382.50 118.83 382.83 C 113.83 387.78 106.28 389.08 101.26 393.99 C 103.18 395.58 105.60 396.31 107.97 396.91 C 113.57 398.32 119.13 399.88 124.62 401.67 C 132.44 404.05 140.74 403.86 148.81 403.33 C 155.85 402.04 162.91 400.65 169.82 398.75 C 178.64 395.39 187.77 392.95 196.64 389.73 C 213.48 383.61 230.65 378.48 247.66 372.87 C 259.12 369.02 270.98 366.63 282.73 363.91 C 293.52 361.27 304.55 359.20 314.82 354.84 C 319.15 352.98 323.56 351.26 328.14 350.13 C 323.48 344.75 320.28 338.36 316.69 332.26 C 313.31 326.36 310.14 320.32 307.65 313.98 C 304.31 314.67 301.24 316.15 298.11 317.44 M 419.93 483.39 C 416.38 483.58 412.82 483.56 409.28 483.78 C 407.97 485.68 406.61 487.58 405.71 489.72 C 400.69 499.47 393.30 507.85 388.78 517.87 C 386.46 522.72 386.57 528.27 384.46 533.20 C 395.20 526.16 407.69 522.34 418.50 515.39 C 420.87 514.29 422.93 511.80 425.72 512.16 C 425.69 512.51 425.63 513.21 425.59 513.55 C 415.92 523.79 402.04 528.17 390.21 535.27 C 382.27 540.59 373.30 544.57 366.61 551.59 C 359.40 559.36 356.59 569.99 355.21 580.24 C 352.89 595.81 341.69 607.63 334.07 620.76 C 341.06 620.90 347.93 622.36 354.66 624.17 C 364.23 626.72 373.86 629.20 383.12 632.77 C 400.50 639.75 415.10 651.82 428.89 664.22 C 435.25 661.65 440.45 656.90 444.52 651.46 C 453.72 641.26 462.32 630.57 471.09 620.01 C 481.29 607.70 494.29 598.17 507.57 589.46 C 512.09 586.78 516.76 583.89 522.07 583.21 C 522.51 583.39 523.40 583.75 523.85 583.94 C 523.72 586.89 519.57 586.94 517.75 588.72 C 502.79 598.95 487.74 609.58 475.95 623.50 C 479.40 625.42 482.19 628.29 484.52 631.45 C 494.22 644.39 500.23 660.10 501.69 676.20 C 506.52 675.91 511.50 676.06 516.10 674.36 C 522.22 672.27 527.20 668.01 532.59 664.60 C 544.23 656.66 556.86 649.46 570.92 647.02 C 584.93 644.69 599.53 647.02 612.42 652.83 C 611.87 635.51 609.60 617.80 601.89 602.07 C 598.81 595.85 594.00 590.05 587.22 587.78 C 584.50 586.88 580.81 585.53 581.13 581.98 C 581.45 574.10 583.08 565.67 579.63 558.21 C 578.33 555.08 574.83 554.36 572.08 553.07 C 565.27 560.19 555.82 563.76 547.26 568.25 C 543.49 569.68 539.94 572.72 535.71 572.06 C 535.74 570.37 537.05 569.17 538.37 568.35 C 548.88 561.86 560.82 557.48 570.08 549.10 C 569.98 546.00 570.39 542.93 570.66 539.86 C 571.69 528.82 570.30 517.01 564.51 507.37 C 550.03 509.34 535.16 507.83 521.18 503.67 C 512.18 500.84 503.45 497.25 494.49 494.33 C 477.67 488.75 460.73 482.85 443.01 480.96 C 435.18 480.04 427.69 483.17 419.93 483.39 M 337.57 637.48 C 333.70 642.00 329.70 646.42 326.28 651.29 C 323.42 654.72 321.62 659.62 317.02 661.11 C 313.39 661.85 310.45 658.98 307.11 658.11 C 303.69 663.55 301.38 669.62 300.02 675.88 C 297.22 689.46 297.12 704.09 302.11 717.18 C 303.83 720.79 306.11 725.82 310.89 725.41 C 320.76 726.54 330.93 726.82 340.63 724.35 C 346.36 722.91 351.44 719.67 355.99 715.99 C 368.45 705.79 378.00 692.65 389.51 681.47 C 397.58 673.51 406.70 666.62 414.21 658.09 C 404.65 649.83 393.81 642.97 382.22 637.96 C 370.50 633.44 358.30 630.29 346.14 627.19 C 343.92 631.12 340.57 634.18 337.57 637.48 M 167.88 633.97 C 156.07 638.38 143.66 640.81 131.39 643.60 C 114.28 647.71 97.16 654.03 83.74 665.77 C 75.34 673.20 66.89 681.84 64.34 693.14 C 63.68 697.85 63.45 703.95 68.09 706.79 C 75.63 711.17 84.92 710.15 92.96 707.81 C 101.39 705.75 108.65 700.80 116.62 697.59 C 129.67 692.45 144.01 690.48 157.92 692.68 C 153.54 683.13 154.17 670.57 161.76 662.80 C 166.38 658.32 171.20 653.67 177.40 651.49 C 183.33 649.55 189.46 648.29 195.64 647.42 C 198.17 641.30 196.08 631.73 188.70 630.34 C 181.57 629.22 174.54 631.69 167.88 633.97 M 209.02 651.45 C 198.19 651.54 186.80 651.72 177.02 656.96 C 170.94 661.81 163.20 666.20 161.14 674.29 C 160.09 679.50 159.67 685.21 161.78 690.22 C 163.32 693.92 167.88 693.79 171.08 695.13 C 181.73 697.67 192.57 699.37 203.25 701.81 C 213.41 704.25 223.72 706.02 233.86 708.55 C 255.88 713.68 277.60 720.21 299.94 723.91 C 292.75 713.88 291.55 700.95 291.86 688.97 C 292.68 677.59 294.68 665.55 301.83 656.29 C 293.34 653.95 284.75 651.71 275.93 651.08 C 253.66 649.24 231.29 650.21 209.02 651.45 M 529.43 673.00 C 531.44 675.80 532.32 679.17 533.44 682.38 C 536.84 693.80 538.77 705.57 541.51 717.16 C 543.68 728.14 545.85 740.09 541.47 750.81 C 545.08 758.36 551.65 764.02 558.67 768.34 C 566.74 773.19 576.14 776.89 585.72 775.42 C 590.51 769.34 595.45 763.38 600.65 757.64 C 606.12 751.63 610.72 744.35 611.64 736.11 C 612.48 727.36 611.08 718.63 610.36 709.92 C 608.85 691.31 605.68 672.88 604.12 654.28 C 594.77 651.13 584.67 650.85 574.96 652.15 C 558.17 654.69 543.44 663.95 529.43 673.00 M 500.26 796.28 C 487.61 809.62 476.81 824.66 468.02 840.80 C 461.24 853.53 453.05 865.53 443.47 876.32 C 448.96 878.04 453.65 881.52 458.61 884.35 C 463.41 887.43 469.12 888.50 474.54 890.03 C 492.88 877.20 509.35 861.97 525.47 846.51 C 536.32 836.26 546.04 824.93 555.61 813.51 C 564.86 803.11 572.47 791.40 581.44 780.77 C 575.68 780.90 570.05 779.30 564.80 777.07 C 554.42 772.37 544.56 765.15 539.07 754.96 C 528.46 770.78 512.63 781.97 500.26 796.28 M 422.45 905.40 C 420.08 910.50 417.90 916.24 419.06 921.95 C 419.35 924.26 421.63 925.39 423.24 926.75 C 428.78 931.35 436.36 930.95 443.04 932.38 C 462.03 934.94 481.16 937.07 499.65 942.30 C 509.71 945.34 520.38 947.35 530.87 945.48 C 525.62 934.26 514.12 927.95 503.58 922.51 C 492.39 917.63 480.64 911.18 475.26 899.61 C 471.17 893.10 462.51 893.53 456.61 889.51 C 451.19 886.76 446.32 882.14 440.16 881.42 C 432.88 888.28 426.95 896.49 422.45 905.40 Z" />
        <path fill="#020202" opacity="1.00"
            d=" M 496.08 219.20 C 498.49 217.83 500.67 216.06 503.16 214.81 L 504.17 215.32 C 504.22 215.76 504.32 216.62 504.37 217.05 C 501.43 220.23 498.19 223.26 494.61 225.67 C 491.82 225.53 487.81 225.04 486.59 222.11 C 486.92 219.84 487.42 217.43 489.00 215.67 C 491.51 216.52 493.80 217.86 496.08 219.20 Z" />
        <path fill="#020202" opacity="1.00"
            d=" M 485.08 231.11 C 493.34 229.71 501.76 229.43 510.09 228.55 C 511.61 228.51 513.41 227.82 514.67 229.07 C 515.15 230.64 513.94 231.53 512.54 231.73 C 512.56 233.82 511.01 235.48 508.91 235.58 C 502.94 235.99 497.02 237.29 491.03 237.30 C 488.93 237.45 486.99 236.05 487.08 233.84 C 485.09 234.68 482.20 232.07 485.08 231.11 Z" />
        <path fill="#020202" opacity="1.00"
            d=" M 622.64 284.53 C 622.98 284.16 623.65 283.40 623.99 283.03 C 626.36 285.18 624.91 288.41 624.19 290.98 C 620.98 300.07 616.55 308.68 612.17 317.25 C 601.34 338.35 586.77 357.34 570.34 374.38 C 565.19 379.58 560.58 385.42 554.67 389.79 C 552.86 390.71 551.59 388.40 552.93 387.12 C 560.80 376.69 570.02 367.38 578.25 357.25 C 596.18 335.16 612.22 311.12 622.64 284.53 Z" />
        <path fill="#020202" opacity="1.00"
            d=" M 588.48 385.37 C 590.01 382.78 593.45 385.38 591.57 387.61 C 581.99 401.07 572.23 414.74 559.48 425.41 C 548.08 434.27 534.90 440.60 521.44 445.65 C 502.27 452.73 481.50 454.85 461.20 453.34 C 459.73 453.25 458.17 453.04 457.11 451.93 C 457.49 451.65 458.25 451.10 458.64 450.83 C 469.10 449.90 479.67 450.23 490.10 448.65 C 505.18 446.83 519.81 442.14 533.42 435.43 C 542.08 431.14 550.71 426.50 558.05 420.13 C 569.65 409.89 578.49 397.07 588.48 385.37 Z" />
        <path fill="#020202" opacity="1.00"
            d=" M 522.47 531.44 C 522.92 531.31 523.82 531.03 524.27 530.90 C 524.94 532.74 523.75 534.34 522.85 535.83 C 517.51 543.69 510.42 550.23 502.43 555.33 C 495.54 559.80 487.78 564.76 479.17 563.50 C 471.84 562.62 467.21 554.70 467.93 547.79 C 469.71 547.11 470.14 549.29 470.76 550.38 C 472.12 553.69 473.92 557.33 477.50 558.66 C 482.69 560.47 488.23 558.37 492.79 555.85 C 499.46 552.04 505.72 547.53 511.68 542.70 C 515.79 539.47 518.90 535.21 522.47 531.44 Z" />
        <path fill="#020202" opacity="1.00"
            d=" M 437.41 547.34 C 439.35 547.14 441.08 548.48 442.85 549.15 C 455.25 555.60 465.49 566.32 470.96 579.23 C 473.07 584.36 474.41 590.07 473.46 595.61 C 473.41 597.92 469.46 598.40 469.64 595.85 C 468.20 578.85 457.56 563.72 443.84 554.10 C 441.59 552.24 438.69 551.20 436.72 549.02 C 436.90 548.60 437.24 547.76 437.41 547.34 Z" />
        <path fill="#020202" opacity="1.00"
            d=" M 507.21 607.97 C 521.25 600.46 537.67 599.81 553.23 600.61 C 559.69 601.16 566.20 601.43 572.57 602.73 C 574.17 602.96 575.10 604.53 574.11 605.99 C 571.85 606.82 569.41 606.20 567.09 606.23 C 555.06 605.42 542.99 605.79 530.99 606.75 C 523.61 607.52 516.12 608.36 509.17 611.10 C 507.57 611.49 506.11 613.18 504.41 612.39 C 503.39 610.27 505.77 608.93 507.21 607.97 Z" />
    </g>
    <g id="#f0b58bff">
        <path fill="#f0b58b" opacity="1.00"
            d=" M 510.93 149.69 C 513.48 149.32 515.17 147.24 516.94 145.58 C 520.26 149.23 521.10 154.29 523.62 158.39 C 527.36 161.54 530.21 156.32 533.12 154.64 C 534.84 155.29 535.17 157.52 536.11 158.95 C 539.05 164.42 540.22 170.54 541.36 176.58 C 532.21 176.65 523.08 177.15 513.95 177.61 C 512.40 177.71 510.80 177.67 509.36 178.31 C 508.89 181.19 510.30 184.03 510.71 186.87 C 511.44 189.14 511.26 191.89 512.86 193.78 C 525.13 193.43 537.38 192.46 549.64 191.72 C 545.31 203.86 542.93 216.68 537.26 228.32 C 535.54 232.88 531.69 236.09 528.09 239.17 C 522.25 244.35 515.83 248.80 509.80 253.74 C 506.19 256.42 502.75 260.07 497.96 260.23 C 491.63 259.59 488.72 253.30 485.15 248.93 C 479.16 241.54 472.95 234.31 467.30 226.65 C 462.04 217.72 458.40 207.91 455.64 197.94 C 466.19 197.27 476.74 196.46 487.31 196.05 C 487.68 201.59 486.73 207.33 488.38 212.72 C 488.78 212.89 489.59 213.24 489.99 213.41 C 491.57 210.58 491.21 207.18 491.27 204.07 C 490.90 196.65 491.09 188.89 487.99 181.98 C 487.68 180.61 486.45 179.51 485.01 179.67 C 473.07 180.32 461.13 180.96 449.23 182.03 C 451.07 174.70 445.74 167.51 447.92 160.15 C 451.11 155.77 455.00 151.89 459.07 148.33 C 458.17 151.76 456.34 154.82 455.01 158.08 C 455.14 161.37 459.15 160.01 460.95 159.00 C 460.19 160.61 459.65 163.29 461.72 164.20 C 464.58 165.53 467.80 164.50 470.78 164.21 C 479.18 163.33 487.37 160.76 494.84 156.83 C 498.55 154.93 501.26 151.50 505.10 149.81 C 507.01 149.36 509.00 150.18 510.93 149.69 M 496.08 219.20 C 493.80 217.86 491.51 216.52 489.00 215.67 C 487.42 217.43 486.92 219.84 486.59 222.11 C 487.81 225.04 491.82 225.53 494.61 225.67 C 498.19 223.26 501.43 220.23 504.37 217.05 C 504.32 216.62 504.22 215.76 504.17 215.32 L 503.16 214.81 C 500.67 216.06 498.49 217.83 496.08 219.20 M 485.08 231.11 C 482.20 232.07 485.09 234.68 487.08 233.84 C 486.99 236.05 488.93 237.45 491.03 237.30 C 497.02 237.29 502.94 235.99 508.91 235.58 C 511.01 235.48 512.56 233.82 512.54 231.73 C 513.94 231.53 515.15 230.64 514.67 229.07 C 513.41 227.82 511.61 228.51 510.09 228.55 C 501.76 229.43 493.34 229.71 485.08 231.11 Z" />
        <path fill="#f0b58b" opacity="1.00"
            d=" M 903.34 226.51 C 912.23 225.40 920.80 228.97 928.01 233.86 C 929.42 235.22 931.69 236.76 931.24 239.00 C 929.41 242.25 925.05 240.99 922.01 241.26 C 916.99 240.87 910.43 241.89 907.20 237.07 C 910.67 236.59 914.11 235.88 917.58 235.28 C 919.42 234.89 921.50 234.63 922.72 232.99 L 922.13 231.94 C 918.32 232.28 914.49 232.48 910.75 233.27 C 908.38 230.91 905.77 228.81 903.34 226.51 Z" />
        <path fill="#f0b58b" opacity="1.00"
            d=" M 865.37 234.56 C 876.59 231.29 888.05 228.84 899.54 226.71 C 901.42 229.75 904.65 231.59 907.48 233.65 C 904.69 233.84 902.74 236.74 904.68 239.14 C 902.60 240.50 899.91 242.18 900.08 245.02 C 900.04 246.92 901.47 248.27 902.71 249.51 C 894.90 250.09 887.61 245.83 879.94 244.83 C 877.43 245.07 878.09 248.36 879.97 248.98 C 885.38 251.74 891.36 253.34 897.32 254.48 C 898.08 256.57 899.33 258.41 900.57 260.25 C 899.23 261.47 897.19 262.83 897.93 264.95 C 898.91 267.71 901.56 269.34 903.74 271.11 C 896.06 271.01 888.24 270.62 880.93 268.05 C 875.84 266.19 870.46 264.55 864.97 265.07 C 842.25 267.05 820.17 273.02 797.86 277.47 C 774.93 282.17 752.24 288.30 728.96 291.12 C 719.42 292.41 709.79 292.87 700.27 294.17 C 701.73 285.43 703.88 276.83 705.41 268.11 C 705.91 265.39 705.98 262.61 705.75 259.87 C 711.27 256.67 717.65 255.63 723.82 254.37 C 758.54 247.73 793.91 245.69 829.14 243.56 C 841.66 242.65 853.43 238.05 865.37 234.56 Z" />
        <path fill="#f0b58b" opacity="1.00"
            d=" M 542.41 230.53 C 547.05 233.47 549.23 238.89 550.29 244.07 C 550.79 250.00 548.72 256.18 544.64 260.55 C 539.00 266.96 531.37 271.15 523.60 274.42 C 519.39 275.17 514.95 275.19 510.79 274.19 C 506.18 272.54 502.18 269.58 498.42 266.52 C 502.50 266.04 505.89 263.55 509.08 261.15 C 516.04 255.36 523.98 250.83 530.68 244.72 C 535.36 240.72 539.96 236.30 542.41 230.53 Z" />
        <path fill="#f0b58b" opacity="1.00"
            d=" M 903.50 244.96 C 904.46 243.54 905.90 242.60 907.28 241.61 C 911.04 244.03 915.69 244.14 920.02 244.43 C 923.66 244.35 927.39 244.80 930.94 243.77 C 933.22 245.61 935.43 248.01 935.86 251.03 C 935.31 255.17 929.47 255.81 928.93 260.00 C 929.14 261.25 929.65 262.45 929.74 263.73 C 928.23 266.00 925.47 266.80 923.47 268.49 C 922.11 269.63 922.70 271.54 922.14 273.02 C 919.51 274.54 916.59 272.78 914.02 271.99 C 909.69 270.12 905.53 267.73 902.05 264.52 C 906.48 261.40 902.67 256.88 900.99 253.48 C 902.99 252.96 905.99 253.10 906.64 250.59 C 907.20 248.14 904.60 246.76 903.50 244.96 Z" />
        <path fill="#f0b58b" opacity="1.00"
            d=" M 298.11 317.44 C 301.24 316.15 304.31 314.67 307.65 313.98 C 310.14 320.32 313.31 326.36 316.69 332.26 C 320.28 338.36 323.48 344.75 328.14 350.13 C 323.56 351.26 319.15 352.98 314.82 354.84 C 304.55 359.20 293.52 361.27 282.73 363.91 C 270.98 366.63 259.12 369.02 247.66 372.87 C 230.65 378.48 213.48 383.61 196.64 389.73 C 187.77 392.95 178.64 395.39 169.82 398.75 C 162.91 400.65 155.85 402.04 148.81 403.33 C 140.74 403.86 132.44 404.05 124.62 401.67 C 119.13 399.88 113.57 398.32 107.97 396.91 C 105.60 396.31 103.18 395.58 101.26 393.99 C 106.28 389.08 113.83 387.78 118.83 382.83 C 113.24 382.50 107.96 385.66 102.95 387.95 C 99.99 389.25 96.14 391.89 97.36 395.67 C 99.30 399.55 103.94 400.76 107.76 401.98 C 107.43 402.54 106.76 403.64 106.43 404.20 C 103.36 405.44 100.34 406.80 97.27 408.04 C 95.19 402.86 93.70 397.43 92.59 391.98 C 91.66 386.05 96.82 382.17 100.76 378.77 C 108.00 373.48 116.94 370.07 126.00 370.56 C 131.21 370.80 135.97 373.17 141.05 374.13 C 146.93 375.31 152.78 378.30 158.88 376.47 C 170.95 373.36 182.65 368.89 194.08 363.93 C 206.13 358.65 218.56 354.20 230.26 348.16 C 234.86 345.76 239.75 343.94 244.16 341.17 C 254.08 335.14 264.18 329.32 274.89 324.79 C 282.28 321.30 290.50 320.29 298.11 317.44 Z" />
        <path fill="#f0b58b" opacity="1.00"
            d=" M 337.57 637.48 C 340.57 634.18 343.92 631.12 346.14 627.19 C 358.30 630.29 370.50 633.44 382.22 637.96 C 393.81 642.97 404.65 649.83 414.21 658.09 C 406.70 666.62 397.58 673.51 389.51 681.47 C 378.00 692.65 368.45 705.79 355.99 715.99 C 351.44 719.67 346.36 722.91 340.63 724.35 C 330.93 726.82 320.76 726.54 310.89 725.41 C 306.11 725.82 303.83 720.79 302.11 717.18 C 297.12 704.09 297.22 689.46 300.02 675.88 C 301.38 669.62 303.69 663.55 307.11 658.11 C 310.45 658.98 313.39 661.85 317.02 661.11 C 321.62 659.62 323.42 654.72 326.28 651.29 C 329.70 646.42 333.70 642.00 337.57 637.48 Z" />
        <path fill="#f0b58b" opacity="1.00"
            d=" M 529.43 673.00 C 543.44 663.95 558.17 654.69 574.96 652.15 C 584.67 650.85 594.77 651.13 604.12 654.28 C 605.68 672.88 608.85 691.31 610.36 709.92 C 611.08 718.63 612.48 727.36 611.64 736.11 C 610.72 744.35 606.12 751.63 600.65 757.64 C 595.45 763.38 590.51 769.34 585.72 775.42 C 576.14 776.89 566.74 773.19 558.67 768.34 C 551.65 764.02 545.08 758.36 541.47 750.81 C 545.85 740.09 543.68 728.14 541.51 717.16 C 538.77 705.57 536.84 693.80 533.44 682.38 C 532.32 679.17 531.44 675.80 529.43 673.00 Z" />
    </g>
    <g id="#f11b27ff">
        <path fill="var(--shirt-color, grey)" opacity="1.00"
            d=" M 550.32 231.15 C 560.91 231.17 571.27 233.74 581.45 236.44 C 584.53 237.14 587.79 237.99 590.94 237.08 C 595.64 235.78 600.07 233.48 604.95 232.83 C 610.05 232.43 615.09 233.99 619.67 236.13 C 635.13 243.44 651.92 247.74 668.90 249.54 C 677.67 250.22 686.42 252.07 694.56 255.45 C 696.58 256.75 699.46 257.05 700.90 259.06 C 701.29 264.91 699.32 270.49 698.02 276.11 C 693.73 292.64 691.25 309.57 688.65 326.42 C 670.12 327.97 650.43 331.45 635.73 343.74 C 630.55 348.53 624.88 352.78 620.12 358.03 C 619.26 359.19 617.74 360.71 618.84 362.24 C 623.75 360.20 627.12 355.59 631.62 352.79 C 630.02 360.80 629.87 368.99 628.97 377.08 C 627.87 385.02 625.27 392.68 622.00 399.97 C 619.22 406.31 617.16 413.18 612.49 418.46 C 607.13 424.43 601.93 430.55 596.05 436.02 C 588.59 442.94 582.27 450.94 575.22 458.26 C 573.62 460.40 570.66 462.53 571.43 465.54 C 571.78 465.66 572.48 465.90 572.83 466.02 C 580.58 459.02 588.02 451.68 595.40 444.29 C 603.08 437.38 610.24 429.91 616.88 421.99 C 616.37 428.09 617.24 434.38 615.21 440.27 C 613.30 445.99 611.40 451.72 609.39 457.40 C 604.28 468.50 599.84 480.26 591.27 489.28 C 584.42 497.64 573.33 500.54 563.09 502.04 C 551.17 503.86 539.00 502.48 527.34 499.77 C 519.87 497.97 512.80 494.95 505.58 492.39 C 490.58 487.03 475.36 482.21 459.85 478.53 C 453.65 477.17 447.35 476.04 441.00 475.77 C 433.52 475.35 426.44 478.33 419.03 478.65 C 412.20 479.03 405.07 479.05 398.70 476.27 C 394.66 473.65 394.42 468.24 394.97 463.93 C 396.18 456.39 400.67 449.97 404.67 443.66 C 407.57 438.83 411.81 434.75 413.46 429.24 C 417.79 431.10 422.56 430.92 427.15 430.48 C 435.52 430.07 443.53 427.29 451.26 424.24 C 456.25 422.10 461.42 420.13 465.75 416.78 C 468.54 414.59 470.55 410.62 469.03 407.13 C 467.68 404.55 464.50 403.80 461.94 402.98 C 460.03 402.35 458.13 404.09 458.59 406.06 C 460.74 407.28 463.11 408.03 465.39 408.99 C 465.50 411.81 463.01 413.56 460.82 414.79 C 447.87 421.12 433.72 426.81 419.04 425.93 C 415.95 425.56 411.95 423.75 412.18 420.07 C 411.57 404.22 423.02 390.82 422.67 375.01 C 422.95 364.01 419.22 353.40 414.18 343.78 C 413.76 342.73 413.00 342.06 411.90 341.77 L 411.41 342.96 C 412.92 349.08 415.38 354.97 416.91 361.10 C 405.73 355.19 393.75 351.09 382.33 345.72 C 380.36 345.09 378.00 343.22 376.04 344.84 C 376.81 347.07 379.19 347.87 381.05 348.95 C 387.63 352.23 394.22 355.52 400.97 358.43 C 390.00 357.31 379.05 359.65 368.85 363.56 C 361.81 365.74 354.52 367.81 347.09 367.52 C 346.76 362.99 343.52 359.54 340.33 356.67 C 333.61 350.94 328.14 343.79 324.11 335.95 C 317.53 323.59 309.78 311.11 309.18 296.70 C 318.79 297.23 327.82 292.84 335.73 287.79 C 349.19 279.35 364.62 273.49 375.68 261.68 C 380.34 257.65 384.57 253.05 389.88 249.83 C 397.50 245.06 406.25 242.41 415.07 240.91 C 431.35 237.58 448.14 237.14 464.32 233.29 C 469.06 239.04 473.42 245.09 478.20 250.82 C 481.95 255.34 485.16 260.42 489.91 263.99 C 493.99 270.96 500.93 275.81 508.32 278.76 C 516.75 281.49 526.10 280.01 533.82 275.89 C 544.93 271.92 554.85 262.17 556.03 250.02 C 557.13 243.21 554.19 236.58 550.32 231.15 M 622.64 284.53 C 612.22 311.12 596.18 335.16 578.25 357.25 C 570.02 367.38 560.80 376.69 552.93 387.12 C 551.59 388.40 552.86 390.71 554.67 389.79 C 560.58 385.42 565.19 379.58 570.34 374.38 C 586.77 357.34 601.34 338.35 612.17 317.25 C 616.55 308.68 620.98 300.07 624.19 290.98 C 624.91 288.41 626.36 285.18 623.99 283.03 C 623.65 283.40 622.98 284.16 622.64 284.53 M 588.48 385.37 C 578.49 397.07 569.65 409.89 558.05 420.13 C 550.71 426.50 542.08 431.14 533.42 435.43 C 519.81 442.14 505.18 446.83 490.10 448.65 C 479.67 450.23 469.10 449.90 458.64 450.83 C 458.25 451.10 457.49 451.65 457.11 451.93 C 458.17 453.04 459.73 453.25 461.20 453.34 C 481.50 454.85 502.27 452.73 521.44 445.65 C 534.90 440.60 548.08 434.27 559.48 425.41 C 572.23 414.74 581.99 401.07 591.57 387.61 C 593.45 385.38 590.01 382.78 588.48 385.37 Z" />
        <path fill="var(--shirt-color, grey)" opacity="1.00"
            d=" M 410.75 401.44 C 412.75 394.38 414.95 387.37 417.83 380.62 C 416.08 387.74 413.63 394.71 410.75 401.44 Z" />
    </g>
    <g id="#ffffffff">
        <path fill="var(--pants-color, grey)" opacity="1.00"
            d=" M 419.93 483.39 C 427.69 483.17 435.18 480.04 443.01 480.96 C 460.73 482.85 477.67 488.75 494.49 494.33 C 503.45 497.25 512.18 500.84 521.18 503.67 C 535.16 507.83 550.03 509.34 564.51 507.37 C 570.30 517.01 571.69 528.82 570.66 539.86 C 570.39 542.93 569.98 546.00 570.08 549.10 C 560.82 557.48 548.88 561.86 538.37 568.35 C 537.05 569.17 535.74 570.37 535.71 572.06 C 539.94 572.72 543.49 569.68 547.26 568.25 C 555.82 563.76 565.27 560.19 572.08 553.07 C 574.83 554.36 578.33 555.08 579.63 558.21 C 583.08 565.67 581.45 574.10 581.13 581.98 C 580.81 585.53 584.50 586.88 587.22 587.78 C 594.00 590.05 598.81 595.85 601.89 602.07 C 609.60 617.80 611.87 635.51 612.42 652.83 C 599.53 647.02 584.93 644.69 570.92 647.02 C 556.86 649.46 544.23 656.66 532.59 664.60 C 527.20 668.01 522.22 672.27 516.10 674.36 C 511.50 676.06 506.52 675.91 501.69 676.20 C 500.23 660.10 494.22 644.39 484.52 631.45 C 482.19 628.29 479.40 625.42 475.95 623.50 C 487.74 609.58 502.79 598.95 517.75 588.72 C 519.57 586.94 523.72 586.89 523.85 583.94 C 523.40 583.75 522.51 583.39 522.07 583.21 C 516.76 583.89 512.09 586.78 507.57 589.46 C 494.29 598.17 481.29 607.70 471.09 620.01 C 462.32 630.57 453.72 641.26 444.52 651.46 C 440.45 656.90 435.25 661.65 428.89 664.22 C 415.10 651.82 400.50 639.75 383.12 632.77 C 373.86 629.20 364.23 626.72 354.66 624.17 C 347.93 622.36 341.06 620.90 334.07 620.76 C 341.69 607.63 352.89 595.81 355.21 580.24 C 356.59 569.99 359.40 559.36 366.61 551.59 C 373.30 544.57 382.27 540.59 390.21 535.27 C 402.04 528.17 415.92 523.79 425.59 513.55 C 425.63 513.21 425.69 512.51 425.72 512.16 C 422.93 511.80 420.87 514.29 418.50 515.39 C 407.69 522.34 395.20 526.16 384.46 533.20 C 386.57 528.27 386.46 522.72 388.78 517.87 C 393.30 507.85 400.69 499.47 405.71 489.72 C 406.61 487.58 407.97 485.68 409.28 483.78 C 412.82 483.56 416.38 483.58 419.93 483.39 M 522.47 531.44 C 518.90 535.21 515.79 539.47 511.68 542.70 C 505.72 547.53 499.46 552.04 492.79 555.85 C 488.23 558.37 482.69 560.47 477.50 558.66 C 473.92 557.33 472.12 553.69 470.76 550.38 C 470.14 549.29 469.71 547.11 467.93 547.79 C 467.21 554.70 471.84 562.62 479.17 563.50 C 487.78 564.76 495.54 559.80 502.43 555.33 C 510.42 550.23 517.51 543.69 522.85 535.83 C 523.75 534.34 524.94 532.74 524.27 530.90 C 523.82 531.03 522.92 531.31 522.47 531.44 M 437.41 547.34 C 437.24 547.76 436.90 548.60 436.72 549.02 C 438.69 551.20 441.59 552.24 443.84 554.10 C 457.56 563.72 468.20 578.85 469.64 595.85 C 469.46 598.40 473.41 597.92 473.46 595.61 C 474.41 590.07 473.07 584.36 470.96 579.23 C 465.49 566.32 455.25 555.60 442.85 549.15 C 441.08 548.48 439.35 547.14 437.41 547.34 M 507.21 607.97 C 505.77 608.93 503.39 610.27 504.41 612.39 C 506.11 613.18 507.57 611.49 509.17 611.10 C 516.12 608.36 523.61 607.52 530.99 606.75 C 542.99 605.79 555.06 605.42 567.09 606.23 C 569.41 606.20 571.85 606.82 574.11 605.99 C 575.10 604.53 574.17 602.96 572.57 602.73 C 566.20 601.43 559.69 601.16 553.23 600.61 C 537.67 599.81 521.25 600.46 507.21 607.97 Z" />
        <path fill="var(--socks-color, grey)" opacity="1.00"
            d=" M 209.02 651.45 C 231.29 650.21 253.66 649.24 275.93 651.08 C 284.75 651.71 293.34 653.95 301.83 656.29 C 294.68 665.55 292.68 677.59 291.86 688.97 C 291.55 700.95 292.75 713.88 299.94 723.91 C 277.60 720.21 255.88 713.68 233.86 708.55 C 223.72 706.02 213.41 704.25 203.25 701.81 C 192.57 699.37 181.73 697.67 171.08 695.13 C 167.88 693.79 163.32 693.92 161.78 690.22 C 159.67 685.21 160.09 679.50 161.14 674.29 C 163.20 666.20 170.94 661.81 177.02 656.96 C 186.80 651.72 198.19 651.54 209.02 651.45 Z" />
        <path fill="var(--socks-color, grey)" opacity="1.00"
            d=" M 500.26 796.28 C 512.63 781.97 528.46 770.78 539.07 754.96 C 544.56 765.15 554.42 772.37 564.80 777.07 C 570.05 779.30 575.68 780.90 581.44 780.77 C 572.47 791.40 564.86 803.11 555.61 813.51 C 546.04 824.93 536.32 836.26 525.47 846.51 C 509.35 861.97 492.88 877.20 474.54 890.03 C 469.12 888.50 463.41 887.43 458.61 884.35 C 453.65 881.52 448.96 878.04 443.47 876.32 C 453.05 865.53 461.24 853.53 468.02 840.80 C 476.81 824.66 487.61 809.62 500.26 796.28 Z" />
    </g>
    <g id="#4d4d4dff">
        <path fill="#4d4d4d" opacity="1.00"
            d=" M 167.88 633.97 C 174.54 631.69 181.57 629.22 188.70 630.34 C 196.08 631.73 198.17 641.30 195.64 647.42 C 189.46 648.29 183.33 649.55 177.40 651.49 C 171.20 653.67 166.38 658.32 161.76 662.80 C 154.17 670.57 153.54 683.13 157.92 692.68 C 144.01 690.48 129.67 692.45 116.62 697.59 C 108.65 700.80 101.39 705.75 92.96 707.81 C 84.92 710.15 75.63 711.17 68.09 706.79 C 63.45 703.95 63.68 697.85 64.34 693.14 C 66.89 681.84 75.34 673.20 83.74 665.77 C 97.16 654.03 114.28 647.71 131.39 643.60 C 143.66 640.81 156.07 638.38 167.88 633.97 Z" />
        <path fill="#4d4d4d" opacity="1.00"
            d=" M 422.45 905.40 C 426.95 896.49 432.88 888.28 440.16 881.42 C 446.32 882.14 451.19 886.76 456.61 889.51 C 462.51 893.53 471.17 893.10 475.26 899.61 C 480.64 911.18 492.39 917.63 503.58 922.51 C 514.12 927.95 525.62 934.26 530.87 945.48 C 520.38 947.35 509.71 945.34 499.65 942.30 C 481.16 937.07 462.03 934.94 443.04 932.38 C 436.36 930.95 428.78 931.35 423.24 926.75 C 421.63 925.39 419.35 924.26 419.06 921.95 C 417.90 916.24 420.08 910.50 422.45 905.40 Z" />
    </g>
</svg>