<?xml version="1.0" encoding="UTF-8" ?>
<!DOCTYPE svg PUBLIC "-//W3C//DTD SVG 1.1//EN" "http://www.w3.org/Graphics/SVG/1.1/DTD/svg11.dtd">
<svg width="1000pt" height="1000pt" viewBox="0 0 1000 1000" version="1.1" xmlns="http://www.w3.org/2000/svg">
    <g id="#020202ff">
        <path fill="#020202" opacity="1.00"
            d=" M 584.02 44.84 C 593.25 43.19 602.69 42.92 612.05 43.23 C 618.94 43.62 625.98 44.00 632.54 46.37 C 638.81 48.62 644.38 52.46 649.43 56.75 C 653.72 60.41 658.41 63.59 662.72 67.23 C 666.91 70.75 671.82 73.52 675.13 77.99 C 678.17 81.89 678.43 87.38 682.11 90.86 C 685.01 93.71 687.73 96.86 689.20 100.71 C 692.48 108.92 693.94 118.42 690.74 126.89 C 688.57 132.67 686.59 138.70 682.69 143.60 C 680.25 146.80 677.06 149.29 674.01 151.88 C 671.20 154.16 669.83 157.65 667.24 160.14 C 664.89 172.59 660.31 184.54 658.55 197.12 C 657.54 204.20 656.57 211.56 652.78 217.78 C 649.04 223.73 644.39 229.03 639.94 234.43 C 652.28 243.68 666.04 252.97 672.29 267.69 C 676.33 276.61 675.93 286.56 677.20 296.06 C 678.05 303.57 682.13 310.08 684.57 317.10 C 686.75 322.80 688.07 328.84 688.27 334.95 C 688.63 349.33 688.68 363.76 690.51 378.05 C 692.19 391.70 695.36 405.18 695.81 418.96 C 695.95 422.00 695.00 424.93 694.64 427.92 C 695.22 430.53 696.45 432.94 697.48 435.40 C 700.75 442.93 702.81 450.90 705.67 458.58 C 709.91 470.12 713.96 481.76 719.06 492.96 C 723.17 501.91 727.50 510.77 731.04 519.97 C 733.28 525.78 733.76 532.46 731.26 538.27 C 727.27 548.00 722.38 557.54 715.47 565.54 C 713.10 568.09 710.69 571.15 707.05 571.77 C 697.14 573.70 686.93 573.80 676.89 572.96 C 668.81 571.85 661.55 562.27 665.45 554.35 C 669.14 545.68 673.00 537.02 678.16 529.11 C 680.02 525.97 682.22 523.02 683.69 519.68 C 684.75 517.23 683.63 514.57 682.76 512.26 C 677.50 500.18 669.73 489.45 663.60 477.84 C 663.19 487.46 659.59 496.56 658.64 506.10 C 657.51 516.03 657.35 526.04 657.51 536.02 L 657.49 536.24 C 657.02 541.85 657.95 547.46 657.93 553.09 C 658.59 566.34 661.17 579.65 659.21 592.92 C 658.39 599.69 655.00 605.91 650.15 610.64 C 654.98 617.76 656.64 626.48 657.57 634.88 C 658.74 644.67 655.08 654.20 655.70 663.98 C 656.11 677.94 664.14 690.98 661.74 705.13 C 660.20 713.67 658.30 722.16 655.64 730.42 C 653.08 739.44 651.32 748.68 650.16 757.97 C 649.07 773.96 649.56 790.05 647.82 806.00 C 645.40 824.14 640.53 841.89 634.42 859.12 C 629.82 873.81 622.24 887.31 614.58 900.58 C 612.86 903.60 610.83 906.42 608.70 909.17 C 617.48 915.79 617.14 928.03 623.81 936.13 C 629.69 943.71 637.97 948.87 645.43 954.74 C 650.32 958.67 656.38 962.08 658.73 968.25 C 660.03 972.04 661.38 976.52 659.14 980.24 C 656.70 984.60 651.53 986.13 646.98 987.22 C 630.91 990.64 614.18 989.38 598.27 985.71 C 592.63 984.40 586.86 982.47 582.55 978.46 C 580.13 976.25 579.51 972.90 577.90 970.19 C 573.81 966.62 568.14 966.19 562.97 965.88 C 552.16 965.54 542.32 955.97 542.20 945.06 C 542.31 936.50 543.63 927.79 546.94 919.86 C 549.37 915.17 550.26 909.92 552.05 905.00 C 555.50 894.51 560.04 884.18 560.99 873.07 C 561.51 868.05 560.50 863.05 560.71 858.03 C 560.95 849.67 561.02 841.31 561.37 832.95 C 562.45 817.95 564.91 802.96 569.71 788.68 C 574.06 777.86 580.26 767.85 584.27 756.89 C 584.89 752.07 582.70 747.36 581.13 742.89 C 577.64 734.83 574.18 726.72 569.86 719.07 C 565.00 721.75 560.47 725.01 555.50 727.46 C 552.36 729.39 548.98 725.98 548.71 722.88 C 547.72 713.52 542.64 705.37 538.94 696.92 C 537.98 694.56 537.69 692.02 537.30 689.53 C 534.85 695.27 534.56 701.81 531.15 707.14 C 523.96 719.85 516.69 732.90 505.83 742.90 C 501.90 746.66 497.09 749.44 491.95 751.18 C 486.41 752.86 480.51 752.27 474.88 751.42 C 470.49 758.96 466.02 766.60 459.96 772.96 C 455.59 777.45 449.24 779.85 442.99 779.16 C 433.38 778.16 423.72 777.50 414.05 777.88 C 404.35 778.94 395.76 784.23 386.15 785.73 C 378.46 787.27 370.50 786.94 362.87 785.23 C 356.84 789.30 351.43 794.21 346.47 799.52 C 336.80 810.33 332.19 825.45 319.86 833.87 C 314.52 837.84 307.13 837.48 301.38 834.63 C 295.54 831.53 292.23 825.25 290.54 819.09 C 287.55 807.90 288.32 795.88 292.08 784.97 C 295.43 774.84 300.01 765.18 304.82 755.68 C 308.45 748.62 313.33 742.31 318.07 735.98 C 324.73 726.87 331.36 717.51 340.03 710.18 C 346.34 704.90 357.47 704.17 362.87 711.10 C 365.64 714.35 365.97 718.77 366.65 722.81 C 373.86 717.44 380.65 710.70 389.71 708.69 C 398.94 706.39 408.05 710.50 417.31 710.32 C 417.68 702.22 417.30 693.54 422.25 686.60 C 418.65 682.91 414.84 679.35 412.02 675.01 C 409.89 671.66 410.92 667.50 411.89 663.95 C 415.69 651.63 422.28 640.47 428.02 629.00 C 431.76 620.93 435.31 612.68 437.46 604.02 C 439.54 595.80 437.21 587.30 438.81 579.03 C 439.36 574.34 440.79 569.31 445.15 566.78 C 440.93 562.41 436.10 558.01 434.52 551.90 C 432.08 543.34 434.41 534.43 436.21 525.99 C 440.94 511.95 440.70 496.90 444.37 482.62 C 448.69 468.00 451.88 453.06 454.86 438.11 C 445.77 437.70 436.73 438.73 427.69 439.53 C 423.47 451.98 423.90 465.28 423.05 478.23 C 421.95 496.16 418.06 514.04 410.19 530.26 C 406.26 538.75 400.32 546.13 393.80 552.76 C 389.39 557.05 383.45 560.85 377.02 559.62 C 371.24 560.02 368.48 554.22 365.90 550.10 C 361.47 547.02 355.94 544.31 354.34 538.67 C 353.02 533.09 347.32 529.78 346.67 523.94 C 345.31 517.70 349.70 512.51 352.29 507.29 C 354.20 503.56 356.54 499.03 361.15 498.35 C 365.65 498.05 368.69 502.00 370.52 505.60 C 375.33 501.37 379.70 496.68 384.36 492.29 C 386.66 490.22 386.55 486.87 386.71 484.04 C 386.69 471.21 385.87 458.38 386.36 445.55 C 386.94 425.46 386.11 405.18 389.73 385.34 C 388.58 379.87 385.78 374.68 386.04 368.97 C 386.04 366.55 387.38 364.46 388.41 362.38 C 396.92 345.23 407.81 329.43 418.86 313.85 C 424.52 305.85 429.47 297.34 433.29 288.30 C 437.74 278.62 441.24 268.32 447.65 259.70 C 453.52 253.03 460.73 247.24 469.13 244.12 C 478.71 240.45 488.39 236.74 497.03 231.10 C 504.09 226.75 510.96 221.95 518.67 218.76 C 524.02 216.46 530.21 216.25 535.64 218.46 C 539.86 212.23 543.27 205.33 544.92 197.96 C 545.89 194.67 543.67 191.65 542.06 188.98 C 533.41 175.41 523.01 162.09 520.32 145.79 C 518.32 136.52 520.20 126.75 524.57 118.43 C 528.47 111.88 532.18 105.21 536.43 98.87 C 533.70 98.57 528.63 99.07 528.85 94.97 C 530.93 87.76 537.74 83.48 540.86 76.84 C 549.30 60.20 566.21 49.15 584.02 44.84 M 586.41 125.40 C 583.55 130.19 583.46 135.92 582.77 141.31 C 579.33 140.69 575.58 140.46 572.62 142.65 C 567.23 145.38 565.56 151.67 564.10 157.04 C 562.09 164.58 563.75 172.43 562.76 180.07 C 561.31 181.44 560.43 179.11 559.97 178.11 C 555.27 166.67 551.33 154.81 544.74 144.27 C 542.71 141.42 537.89 142.76 537.24 146.06 C 536.15 151.04 537.51 156.15 538.97 160.92 C 541.86 169.12 545.13 177.20 548.87 185.06 C 549.79 187.27 551.02 189.48 551.13 191.93 C 550.46 203.40 545.79 214.57 537.86 222.93 C 545.87 243.88 560.79 262.52 580.57 273.40 C 587.61 277.14 595.94 280.07 603.91 277.82 C 609.29 276.24 612.53 270.87 613.32 265.57 C 614.64 259.33 612.09 253.30 610.94 247.26 C 603.30 245.41 596.30 241.52 589.87 237.10 C 586.15 234.42 581.89 231.23 581.69 226.20 C 584.16 226.80 585.59 229.00 587.47 230.52 C 592.66 234.88 599.16 237.09 605.26 239.82 C 614.01 243.92 624.48 240.53 631.58 234.65 C 637.53 229.56 642.38 223.31 646.92 216.96 C 650.32 212.27 651.65 206.51 652.45 200.87 C 653.44 193.98 654.58 187.11 656.39 180.39 C 647.49 178.89 638.60 176.81 630.16 173.59 C 629.44 179.66 630.38 185.70 631.06 191.72 C 628.34 190.89 628.38 187.71 627.72 185.44 C 626.31 178.77 625.76 170.93 630.23 165.24 C 631.95 162.70 635.32 163.47 637.92 163.59 C 645.33 164.52 652.69 165.75 660.02 167.13 C 663.47 156.81 662.60 145.74 665.74 135.36 C 659.91 135.86 657.31 143.62 650.97 142.76 C 640.17 141.73 632.68 132.69 623.12 128.51 C 622.42 130.23 622.26 132.84 619.99 133.22 C 612.69 134.69 605.46 131.43 599.42 127.62 C 594.84 124.89 593.58 119.41 591.28 115.00 C 589.93 118.59 588.43 122.13 586.41 125.40 M 519.59 223.46 C 511.03 227.62 503.42 233.41 495.24 238.23 C 490.04 241.24 484.45 243.49 478.91 245.76 C 473.05 248.16 466.73 249.76 461.62 253.65 C 456.91 257.20 452.22 261.08 449.26 266.27 C 444.22 274.99 440.91 284.55 436.72 293.68 C 432.31 303.76 426.22 312.98 419.76 321.85 C 409.46 336.18 399.97 351.10 391.61 366.65 C 390.66 368.33 391.36 370.28 391.77 372.00 C 393.35 377.31 395.61 382.39 397.28 387.68 C 400.81 397.52 400.44 408.41 405.08 417.93 C 407.95 423.81 411.43 430.81 418.41 432.42 C 430.74 436.42 443.42 430.36 455.95 432.55 C 457.44 426.01 458.91 419.46 460.94 413.07 C 463.72 404.35 463.17 395.07 464.72 386.12 C 465.63 378.66 468.51 371.62 472.14 365.09 C 474.55 360.89 477.48 356.72 481.89 354.43 C 480.49 358.81 477.17 362.16 475.21 366.26 C 469.38 376.92 468.88 389.26 467.21 401.01 C 471.03 397.21 474.94 393.42 477.84 388.83 C 485.07 377.41 492.31 365.66 495.62 352.40 C 497.60 345.49 497.81 338.23 499.55 331.28 C 499.77 329.62 502.51 330.15 502.28 331.78 C 502.52 347.24 499.19 362.94 491.39 376.39 C 486.03 385.45 481.12 395.05 473.29 402.28 C 469.39 405.82 467.37 410.82 465.86 415.74 C 462.92 426.07 461.01 436.66 459.22 447.24 C 456.49 458.83 454.66 470.67 450.95 482.01 C 446.86 495.47 446.93 509.76 443.11 523.27 C 441.07 529.06 440.26 535.17 439.15 541.18 C 438.42 545.88 438.80 551.21 441.91 555.05 C 449.75 565.28 462.19 570.77 469.57 581.45 C 473.82 586.32 473.93 593.24 477.54 598.44 C 479.21 600.82 482.40 600.25 484.91 600.24 C 494.92 599.52 504.60 596.65 514.29 594.24 C 525.02 591.47 534.91 586.00 545.94 584.33 C 556.76 582.60 566.40 577.09 575.80 571.77 C 581.90 568.34 587.68 564.40 593.53 560.56 C 597.39 558.09 601.22 555.12 605.97 554.78 C 604.61 558.55 600.88 560.41 597.92 562.76 C 585.31 571.89 572.81 581.67 558.09 587.19 C 551.24 589.76 543.87 590.29 536.82 592.13 C 554.93 592.42 571.98 599.00 589.54 602.54 C 601.88 604.97 614.34 607.57 626.99 607.23 C 633.42 607.38 639.96 606.37 646.28 607.97 C 650.08 603.08 652.84 597.20 653.19 590.94 C 654.23 576.89 650.93 563.01 650.82 548.99 C 650.68 533.62 650.26 518.15 652.50 502.89 C 653.77 494.17 657.21 485.80 657.17 476.89 C 657.85 468.55 656.28 460.18 657.51 451.88 C 658.22 446.94 657.42 441.95 657.87 437.00 C 658.52 427.49 661.40 418.33 662.32 408.86 C 664.33 392.29 663.12 375.59 662.31 358.99 C 662.19 356.81 662.58 354.64 663.02 352.52 C 666.51 355.22 666.22 360.05 666.86 363.98 C 668.06 377.95 669.54 392.03 667.98 406.03 C 667.18 417.91 663.26 429.32 662.64 441.22 C 672.76 436.71 683.02 431.90 691.11 424.16 C 691.09 410.89 687.99 397.90 686.11 384.83 C 683.21 367.70 683.30 350.30 682.16 333.02 C 681.39 324.14 677.58 315.98 674.11 307.91 C 668.91 296.08 672.44 282.49 667.32 270.63 C 664.25 262.46 657.75 256.33 651.35 250.69 C 646.47 246.33 640.64 242.99 636.62 237.72 C 630.72 242.97 623.37 246.60 615.42 247.24 C 617.48 254.89 619.30 263.11 617.00 270.92 C 615.45 276.57 611.17 281.46 605.57 283.35 C 597.56 286.13 588.86 283.88 581.39 280.55 C 567.42 274.16 556.16 263.10 546.93 251.03 C 540.04 242.05 534.93 231.82 531.80 220.95 C 527.60 220.92 523.37 221.55 519.59 223.46 M 392.44 393.67 C 391.06 408.08 391.70 422.56 391.34 437.01 C 391.05 449.01 391.21 461.02 391.75 473.02 C 391.67 479.23 392.48 485.62 390.77 491.69 C 389.65 495.80 385.70 498.02 383.02 501.02 C 378.01 506.41 371.11 509.83 366.85 515.95 C 365.72 517.19 365.09 519.60 362.95 518.88 C 362.68 514.46 366.15 511.14 368.50 507.78 C 366.39 505.73 364.61 502.02 361.14 502.55 C 358.23 504.36 357.28 507.86 355.66 510.67 C 353.72 514.55 350.51 518.42 351.29 523.05 C 351.76 526.50 354.55 528.85 356.42 531.59 C 358.09 533.93 358.47 536.88 359.73 539.43 C 362.36 543.87 368.87 544.13 370.84 549.09 C 371.88 550.97 372.77 553.08 374.55 554.41 C 376.62 555.28 378.95 555.22 381.11 555.81 C 386.16 552.82 390.13 548.41 393.86 543.96 C 402.75 533.75 408.25 521.11 412.24 508.30 C 415.38 497.87 416.38 486.96 417.28 476.15 C 418.30 463.68 417.47 450.84 421.51 438.81 C 417.76 438.07 413.77 437.74 410.44 435.69 C 404.79 432.13 401.58 425.95 398.87 420.06 C 395.06 411.74 394.17 402.56 392.44 393.67 M 663.52 446.04 C 663.70 450.98 663.52 455.93 663.65 460.87 C 664.13 468.49 669.92 474.04 673.72 480.20 C 678.94 488.71 683.80 497.51 687.38 506.86 C 688.73 511.02 690.37 515.46 689.33 519.89 C 688.28 523.87 685.87 527.29 683.87 530.84 C 679.09 538.77 674.85 547.01 670.59 555.23 C 678.94 549.56 687.07 543.47 696.17 539.04 C 697.61 538.14 698.71 538.46 699.49 539.99 C 697.85 543.08 694.70 544.86 692.10 547.03 C 685.08 552.25 678.37 557.88 671.06 562.69 C 673.19 564.90 675.58 567.38 678.91 567.38 C 687.86 567.85 696.91 567.83 705.81 566.68 C 709.89 565.18 712.39 561.30 714.84 557.93 C 719.80 551.10 723.20 543.33 726.72 535.69 C 728.85 531.17 727.40 526.01 725.71 521.59 C 721.62 511.76 716.68 502.32 712.27 492.65 C 707.79 482.88 704.34 472.69 700.64 462.61 C 697.04 452.95 694.55 442.90 690.60 433.36 C 682.46 439.22 673.20 443.47 663.52 446.04 M 444.46 581.10 C 443.55 587.66 445.51 594.20 444.64 600.77 C 443.62 610.28 439.59 619.11 435.94 627.84 C 429.49 642.51 419.67 655.91 416.47 671.86 C 421.33 677.26 427.10 681.76 431.64 687.46 C 441.03 698.24 448.47 710.50 457.25 721.75 C 462.68 728.77 466.45 737.02 472.73 743.39 C 474.48 745.24 476.56 746.92 479.07 747.60 C 486.37 748.60 493.81 746.10 499.32 741.29 C 511.44 730.60 519.40 716.29 527.55 702.56 C 529.52 698.74 529.88 694.34 531.64 690.43 C 536.15 678.64 547.15 671.32 554.22 661.28 C 558.78 653.54 562.99 645.18 562.97 635.98 C 564.03 637.11 565.26 638.29 565.17 640.01 C 566.03 647.29 562.33 653.93 559.54 660.39 C 556.29 667.69 549.89 672.85 545.28 679.14 C 548.84 676.34 552.75 674.03 556.44 671.42 C 563.16 666.89 569.48 661.75 576.54 657.73 C 586.48 651.97 597.64 648.64 608.85 646.44 C 615.91 645.46 624.15 644.41 630.20 649.07 C 629.67 649.32 628.59 649.82 628.06 650.08 C 615.89 647.79 603.84 651.76 592.40 655.51 C 573.51 661.85 558.85 676.20 540.91 684.43 C 540.58 688.42 540.76 692.62 542.82 696.18 C 547.56 704.48 551.81 713.25 553.19 722.80 C 566.60 714.35 580.05 705.58 595.13 700.37 C 607.54 696.02 620.72 692.29 634.00 694.02 C 642.07 695.12 650.79 695.86 657.50 700.98 C 657.43 692.10 654.41 683.67 652.40 675.13 C 650.34 666.60 650.43 657.68 652.04 649.08 C 654.16 637.23 652.10 624.86 647.09 614.00 C 644.23 611.81 640.41 612.51 637.08 612.66 C 625.64 613.62 614.05 613.19 602.82 610.69 C 591.38 608.88 580.18 605.92 569.00 602.98 C 557.66 609.05 545.14 612.29 533.42 617.50 C 522.50 621.95 512.25 627.85 502.43 634.35 C 502.13 634.28 501.53 634.14 501.23 634.07 C 503.03 630.95 506.11 628.99 508.99 626.98 C 517.27 621.38 525.78 615.98 535.09 612.23 C 544.55 608.06 554.60 605.46 564.13 601.47 C 556.25 599.29 548.17 597.74 540.01 597.21 C 532.25 596.89 524.66 598.89 516.94 599.33 C 504.03 601.63 490.99 606.89 477.72 604.22 C 473.00 603.53 471.22 598.75 470.16 594.74 C 467.35 583.42 457.21 576.34 448.54 569.54 C 445.10 572.36 444.92 577.02 444.46 581.10 M 424.60 689.50 C 421.28 698.34 422.73 707.96 420.76 717.07 C 419.57 722.26 418.63 727.93 415.15 732.14 C 414.20 733.52 412.67 732.63 411.36 732.59 C 415.30 726.99 416.25 720.05 416.98 713.41 C 414.77 713.83 412.39 714.00 410.55 715.43 C 403.93 719.83 400.44 727.57 398.81 735.11 C 396.07 748.29 398.90 762.86 407.49 773.40 C 418.26 772.51 429.13 770.99 439.92 772.45 C 445.01 773.10 450.78 773.43 454.99 769.92 C 461.47 764.35 465.62 756.72 470.58 749.89 C 465.94 745.61 462.11 740.55 458.76 735.22 C 453.56 726.88 447.17 719.38 441.79 711.17 C 436.41 703.68 431.03 696.13 424.60 689.50 M 600.37 704.52 C 591.55 707.30 583.15 711.25 575.14 715.85 C 579.90 722.86 583.08 730.77 586.40 738.52 C 588.23 742.62 588.97 747.06 589.89 751.43 C 591.94 753.83 595.20 754.83 598.06 756.03 C 608.93 759.68 620.59 761.07 632.02 760.05 C 636.44 759.70 640.71 758.35 644.70 756.43 C 646.24 747.02 647.92 737.60 650.62 728.44 C 653.25 720.89 654.93 713.05 656.75 705.28 C 649.89 700.28 641.15 699.79 633.01 698.96 C 621.83 697.89 610.91 701.23 600.37 704.52 M 341.38 715.26 C 334.76 721.75 328.79 728.91 323.40 736.45 C 318.46 743.24 313.11 749.78 309.24 757.28 C 304.27 767.00 299.50 776.88 296.08 787.28 C 293.33 795.52 292.43 804.43 293.94 813.01 C 294.85 818.77 296.71 824.77 301.04 828.91 C 304.74 832.51 311.08 833.58 315.35 830.36 C 323.52 824.64 327.80 815.25 332.92 807.01 C 338.18 797.64 345.55 789.50 354.31 783.28 C 350.04 781.18 345.39 779.47 342.12 775.86 C 331.90 765.07 332.23 746.77 341.29 735.40 C 346.36 729.10 354.52 726.93 362.03 725.06 C 361.03 720.40 360.97 714.40 356.16 711.88 C 351.13 709.77 345.10 711.38 341.38 715.26 M 389.19 714.56 C 378.53 718.01 372.11 728.94 360.97 731.35 C 354.15 733.19 346.00 734.56 341.84 740.93 C 338.48 748.33 339.46 756.93 341.66 764.54 C 343.66 770.66 349.13 775.12 355.20 776.89 C 363.48 779.42 372.20 781.50 380.90 780.27 C 388.09 779.58 394.89 777.01 401.75 774.91 C 393.32 764.73 390.36 750.80 392.26 737.88 C 393.59 728.59 397.89 719.40 405.55 713.68 C 400.10 712.99 394.47 712.88 389.19 714.56 M 589.39 758.38 C 585.69 768.34 580.84 777.79 576.24 787.34 C 571.85 798.02 570.21 809.57 568.62 820.93 C 567.02 832.24 567.36 843.68 566.70 855.05 C 565.93 862.62 567.63 870.24 566.19 877.78 C 563.71 892.13 557.19 905.33 552.27 918.93 C 557.12 920.01 562.14 920.02 567.09 919.84 C 572.42 919.42 576.41 915.49 580.82 912.93 C 587.62 908.32 596.05 905.29 604.29 907.33 C 607.14 903.68 610.03 900.00 612.10 895.83 C 618.54 883.25 625.34 870.74 629.36 857.12 C 635.49 840.19 639.95 822.62 642.17 804.74 C 643.50 790.89 643.37 776.97 644.25 763.10 C 635.71 766.79 626.17 767.02 617.03 766.38 C 607.45 765.55 597.63 763.61 589.39 758.38 M 568.95 925.28 C 562.84 925.81 556.67 925.15 550.65 924.10 C 548.78 932.02 546.74 940.34 548.33 948.48 C 550.50 955.03 557.10 960.18 564.09 960.28 C 569.97 960.66 576.08 961.68 581.05 965.04 C 584.14 967.20 584.70 971.27 586.94 974.12 C 589.94 976.98 594.13 978.08 598.08 978.97 C 613.51 982.07 629.60 983.83 645.15 980.47 C 647.71 979.80 650.43 979.28 652.68 977.80 C 655.02 975.98 654.82 972.61 654.01 970.07 C 653.15 967.19 650.49 965.47 648.26 963.73 C 640.02 957.67 631.59 951.83 624.01 944.94 C 618.80 940.12 615.12 933.80 612.92 927.09 C 611.36 922.91 610.17 918.28 606.88 915.08 C 603.59 912.50 599.01 912.40 595.07 913.11 C 585.38 914.95 578.75 923.83 568.95 925.28 Z" />
        <path fill="#020202" opacity="1.00"
            d=" M 586.31 157.23 C 587.70 156.38 589.43 156.78 590.99 156.68 C 599.22 156.98 607.52 157.77 615.54 159.70 C 620.42 161.00 618.52 166.97 618.42 170.62 C 618.29 172.95 615.61 172.88 613.93 172.54 C 605.24 171.32 596.57 169.90 587.91 168.50 C 586.33 167.96 583.59 168.15 583.33 166.00 C 583.08 162.89 584.10 159.45 586.31 157.23 Z" />
        <path fill="#020202" opacity="1.00"
            d=" M 614.34 191.26 C 618.12 192.01 621.63 193.60 625.22 194.93 C 626.79 195.82 628.38 194.53 629.88 194.10 C 631.25 196.11 632.50 198.20 633.71 200.31 C 630.47 203.21 625.79 202.35 621.81 203.11 C 619.09 199.32 616.42 195.45 614.34 191.26 Z" />
        <path fill="#020202" opacity="1.00"
            d=" M 598.40 206.95 C 599.13 205.64 600.03 203.74 601.89 204.60 C 611.94 207.13 621.98 209.84 631.81 213.13 C 633.35 213.62 636.02 214.88 635.01 216.88 C 634.40 219.09 631.68 218.06 630.07 218.19 C 629.51 219.56 629.08 222.07 627.03 221.65 C 623.28 221.40 619.70 220.13 616.05 219.33 C 611.50 218.15 606.79 217.45 602.48 215.52 C 601.23 213.61 601.96 211.22 601.89 209.09 C 600.71 208.40 599.54 207.68 598.40 206.95 Z" />
        <path fill="#020202" opacity="1.00"
            d=" M 479.81 280.86 C 480.11 280.33 480.72 279.27 481.03 278.73 C 484.07 283.64 484.67 289.51 485.52 295.08 C 486.53 302.51 486.55 310.12 484.63 317.40 C 483.50 321.13 483.62 325.50 481.11 328.66 C 480.63 328.53 479.66 328.27 479.17 328.14 C 478.07 322.79 479.80 317.39 480.64 312.13 C 482.51 301.75 480.59 291.23 479.81 280.86 Z" />
        <path fill="#020202" opacity="1.00"
            d=" M 519.99 302.81 C 520.51 302.82 521.54 302.84 522.06 302.85 C 524.27 308.29 523.13 314.40 522.82 320.10 C 521.53 329.52 520.94 339.27 517.08 348.09 C 514.38 354.43 510.71 360.27 507.18 366.17 C 505.66 364.86 505.05 362.94 506.05 361.08 C 509.56 352.52 514.55 344.39 515.91 335.08 C 517.42 324.34 519.75 313.69 519.99 302.81 Z" />
        <path fill="#020202" opacity="1.00"
            d=" M 626.14 349.99 C 627.30 347.99 628.32 344.89 631.24 345.46 C 629.86 351.91 626.97 357.90 625.12 364.22 C 620.85 377.96 615.11 391.30 607.50 403.53 C 603.63 409.86 597.94 414.72 593.34 420.47 C 585.67 429.98 579.29 440.56 574.74 451.91 C 574.09 453.52 573.01 454.89 571.95 456.24 C 569.79 450.13 573.59 444.22 575.67 438.66 C 580.11 427.63 586.96 417.72 595.28 409.26 C 603.03 401.50 607.91 391.55 612.85 381.91 C 618.08 371.61 620.81 360.25 626.14 349.99 Z" />
        <path fill="#020202" opacity="1.00"
            d=" M 622.08 436.00 C 623.04 434.84 626.09 433.04 626.05 435.78 C 617.71 447.52 608.42 458.63 600.97 470.99 C 592.48 484.97 584.22 499.16 573.99 511.97 C 565.32 523.57 554.34 533.14 543.22 542.31 C 534.42 549.21 525.63 556.12 516.53 562.60 C 513.57 564.67 510.31 567.01 506.48 566.25 C 507.40 564.65 508.52 563.13 510.03 562.04 C 525.25 550.36 539.79 537.82 553.98 524.92 C 564.19 515.67 572.82 504.82 580.68 493.55 C 589.89 480.10 597.69 465.68 607.86 452.89 C 612.48 447.16 616.92 441.25 622.08 436.00 Z" />
        <path fill="#020202" opacity="1.00"
            d=" M 582.53 641.50 C 592.59 635.09 603.87 629.58 615.89 628.60 C 616.28 628.89 617.05 629.48 617.44 629.78 C 612.01 632.07 606.25 633.49 600.89 635.94 C 593.87 639.06 587.06 642.61 580.27 646.18 C 578.50 647.13 576.61 647.85 574.65 648.31 C 576.14 644.95 579.73 643.52 582.53 641.50 Z" />
    </g>
    <g id="#f0b58bff">
        <path fill="#f0b58b" opacity="1.00"
            d=" M 586.41 125.40 C 588.43 122.13 589.93 118.59 591.28 115.00 C 593.58 119.41 594.84 124.89 599.42 127.62 C 605.46 131.43 612.69 134.69 619.99 133.22 C 622.26 132.84 622.42 130.23 623.12 128.51 C 632.68 132.69 640.17 141.73 650.97 142.76 C 657.31 143.62 659.91 135.86 665.74 135.36 C 662.60 145.74 663.47 156.81 660.02 167.13 C 652.69 165.75 645.33 164.52 637.92 163.59 C 635.32 163.47 631.95 162.70 630.23 165.24 C 625.76 170.93 626.31 178.77 627.72 185.44 C 628.38 187.71 628.34 190.89 631.06 191.72 C 630.38 185.70 629.44 179.66 630.16 173.59 C 638.60 176.81 647.49 178.89 656.39 180.39 C 654.58 187.11 653.44 193.98 652.45 200.87 C 651.65 206.51 650.32 212.27 646.92 216.96 C 642.38 223.31 637.53 229.56 631.58 234.65 C 624.48 240.53 614.01 243.92 605.26 239.82 C 599.16 237.09 592.66 234.88 587.47 230.52 C 585.59 229.00 584.16 226.80 581.69 226.20 C 581.89 231.23 586.15 234.42 589.87 237.10 C 596.30 241.52 603.30 245.41 610.94 247.26 C 612.09 253.30 614.64 259.33 613.32 265.57 C 612.53 270.87 609.29 276.24 603.91 277.82 C 595.94 280.07 587.61 277.14 580.57 273.40 C 560.79 262.52 545.87 243.88 537.86 222.93 C 545.79 214.57 550.46 203.40 551.13 191.93 C 551.02 189.48 549.79 187.27 548.87 185.06 C 545.13 177.20 541.86 169.12 538.97 160.92 C 537.51 156.15 536.15 151.04 537.24 146.06 C 537.89 142.76 542.71 141.42 544.74 144.27 C 551.33 154.81 555.27 166.67 559.97 178.11 C 560.43 179.11 561.31 181.44 562.76 180.07 C 563.75 172.43 562.09 164.58 564.10 157.04 C 565.56 151.67 567.23 145.38 572.62 142.65 C 575.58 140.46 579.33 140.69 582.77 141.31 C 583.46 135.92 583.55 130.19 586.41 125.40 M 586.31 157.23 C 584.10 159.45 583.08 162.89 583.33 166.00 C 583.59 168.15 586.33 167.96 587.91 168.50 C 596.57 169.90 605.24 171.32 613.93 172.54 C 615.61 172.88 618.29 172.95 618.42 170.62 C 618.52 166.97 620.42 161.00 615.54 159.70 C 607.52 157.77 599.22 156.98 590.99 156.68 C 589.43 156.78 587.70 156.38 586.31 157.23 M 614.34 191.26 C 616.42 195.45 619.09 199.32 621.81 203.11 C 625.79 202.35 630.47 203.21 633.71 200.31 C 632.50 198.20 631.25 196.11 629.88 194.10 C 628.38 194.53 626.79 195.82 625.22 194.93 C 621.63 193.60 618.12 192.01 614.34 191.26 M 598.40 206.95 C 599.54 207.68 600.71 208.40 601.89 209.09 C 601.96 211.22 601.23 213.61 602.48 215.52 C 606.79 217.45 611.50 218.15 616.05 219.33 C 619.70 220.13 623.28 221.40 627.03 221.65 C 629.08 222.07 629.51 219.56 630.07 218.19 C 631.68 218.06 634.40 219.09 635.01 216.88 C 636.02 214.88 633.35 213.62 631.81 213.13 C 621.98 209.84 611.94 207.13 601.89 204.60 C 600.03 203.74 599.13 205.64 598.40 206.95 Z" />
        <path fill="#f0b58b" opacity="1.00"
            d=" M 392.44 393.67 C 394.17 402.56 395.06 411.74 398.87 420.06 C 401.58 425.95 404.79 432.13 410.44 435.69 C 413.77 437.74 417.76 438.07 421.51 438.81 C 417.47 450.84 418.30 463.68 417.28 476.15 C 416.38 486.96 415.38 497.87 412.24 508.30 C 408.25 521.11 402.75 533.75 393.86 543.96 C 390.13 548.41 386.16 552.82 381.11 555.81 C 378.95 555.22 376.62 555.28 374.55 554.41 C 372.77 553.08 371.88 550.97 370.84 549.09 C 368.87 544.13 362.36 543.87 359.73 539.43 C 358.47 536.88 358.09 533.93 356.42 531.59 C 354.55 528.85 351.76 526.50 351.29 523.05 C 350.51 518.42 353.72 514.55 355.66 510.67 C 357.28 507.86 358.23 504.36 361.14 502.55 C 364.61 502.02 366.39 505.73 368.50 507.78 C 366.15 511.14 362.68 514.46 362.95 518.88 C 365.09 519.60 365.72 517.19 366.85 515.95 C 371.11 509.83 378.01 506.41 383.02 501.02 C 385.70 498.02 389.65 495.80 390.77 491.69 C 392.48 485.62 391.67 479.23 391.75 473.02 C 391.21 461.02 391.05 449.01 391.34 437.01 C 391.70 422.56 391.06 408.08 392.44 393.67 Z" />
        <path fill="#f0b58b" opacity="1.00"
            d=" M 663.52 446.04 C 673.20 443.47 682.46 439.22 690.60 433.36 C 694.55 442.90 697.04 452.95 700.64 462.61 C 704.34 472.69 707.79 482.88 712.27 492.65 C 716.68 502.32 721.62 511.76 725.71 521.59 C 727.40 526.01 728.85 531.17 726.72 535.69 C 723.20 543.33 719.80 551.10 714.84 557.93 C 712.39 561.30 709.89 565.18 705.81 566.68 C 696.91 567.83 687.86 567.85 678.91 567.38 C 675.58 567.38 673.19 564.90 671.06 562.69 C 678.37 557.88 685.08 552.25 692.10 547.03 C 694.70 544.86 697.85 543.08 699.49 539.99 C 698.71 538.46 697.61 538.14 696.17 539.04 C 687.07 543.47 678.94 549.56 670.59 555.23 C 674.85 547.01 679.09 538.77 683.87 530.84 C 685.87 527.29 688.28 523.87 689.33 519.89 C 690.37 515.46 688.73 511.02 687.38 506.86 C 683.80 497.51 678.94 488.71 673.72 480.20 C 669.92 474.04 664.13 468.49 663.65 460.87 C 663.52 455.93 663.70 450.98 663.52 446.04 Z" />
        <path fill="#f0b58b" opacity="1.00"
            d=" M 424.60 689.50 C 431.03 696.13 436.41 703.68 441.79 711.17 C 447.17 719.38 453.56 726.88 458.76 735.22 C 462.11 740.55 465.94 745.61 470.58 749.89 C 465.62 756.72 461.47 764.35 454.99 769.92 C 450.78 773.43 445.01 773.10 439.92 772.45 C 429.13 770.99 418.26 772.51 407.49 773.40 C 398.90 762.86 396.07 748.29 398.81 735.11 C 400.44 727.57 403.93 719.83 410.55 715.43 C 412.39 714.00 414.77 713.83 416.98 713.41 C 416.25 720.05 415.30 726.99 411.36 732.59 C 412.67 732.63 414.20 733.52 415.15 732.14 C 418.63 727.93 419.57 722.26 420.76 717.07 C 422.73 707.96 421.28 698.34 424.60 689.50 Z" />
        <path fill="#f0b58b" opacity="1.00"
            d=" M 600.37 704.52 C 610.91 701.23 621.83 697.89 633.01 698.96 C 641.15 699.79 649.89 700.28 656.75 705.28 C 654.93 713.05 653.25 720.89 650.62 728.44 C 647.92 737.60 646.24 747.02 644.70 756.43 C 640.71 758.35 636.44 759.70 632.02 760.05 C 620.59 761.07 608.93 759.68 598.06 756.03 C 595.20 754.83 591.94 753.83 589.89 751.43 C 588.97 747.06 588.23 742.62 586.40 738.52 C 583.08 730.77 579.90 722.86 575.14 715.85 C 583.15 711.25 591.55 707.30 600.37 704.52 Z" />
    </g>
    <g id="#f11b27ff">
        <path fill="var(--shirt-color, grey)" opacity="1.00"
            d=" M 519.59 223.46 C 523.37 221.55 527.60 220.92 531.80 220.95 C 534.93 231.82 540.04 242.05 546.93 251.03 C 556.16 263.10 567.42 274.16 581.39 280.55 C 588.86 283.88 597.56 286.13 605.57 283.35 C 611.17 281.46 615.45 276.57 617.00 270.92 C 619.30 263.11 617.48 254.89 615.42 247.24 C 623.37 246.60 630.72 242.97 636.62 237.72 C 640.64 242.99 646.47 246.33 651.35 250.69 C 657.75 256.33 664.25 262.46 667.32 270.63 C 672.44 282.49 668.91 296.08 674.11 307.91 C 677.58 315.98 681.39 324.14 682.16 333.02 C 683.30 350.30 683.21 367.70 686.11 384.83 C 687.99 397.90 691.09 410.89 691.11 424.16 C 683.02 431.90 672.76 436.71 662.64 441.22 C 663.26 429.32 667.18 417.91 667.98 406.03 C 669.54 392.03 668.06 377.95 666.86 363.98 C 666.22 360.05 666.51 355.22 663.02 352.52 C 662.58 354.64 662.19 356.81 662.31 358.99 C 663.12 375.59 664.33 392.29 662.32 408.86 C 661.40 418.33 658.52 427.49 657.87 437.00 C 657.42 441.95 658.22 446.94 657.51 451.88 C 656.28 460.18 657.85 468.55 657.17 476.89 C 657.21 485.80 653.77 494.17 652.50 502.89 C 650.26 518.15 650.68 533.62 650.82 548.99 C 650.93 563.01 654.23 576.89 653.19 590.94 C 652.84 597.20 650.08 603.08 646.28 607.97 C 639.96 606.37 633.42 607.38 626.99 607.23 C 614.34 607.57 601.88 604.97 589.54 602.54 C 571.98 599.00 554.93 592.42 536.82 592.13 C 543.87 590.29 551.24 589.76 558.09 587.19 C 572.81 581.67 585.31 571.89 597.92 562.76 C 600.88 560.41 604.61 558.55 605.97 554.78 C 601.22 555.12 597.39 558.09 593.53 560.56 C 587.68 564.40 581.90 568.34 575.80 571.77 C 566.40 577.09 556.76 582.60 545.94 584.33 C 534.91 586.00 525.02 591.47 514.29 594.24 C 504.60 596.65 494.92 599.52 484.91 600.24 C 482.40 600.25 479.21 600.82 477.54 598.44 C 473.93 593.24 473.82 586.32 469.57 581.45 C 462.19 570.77 449.75 565.28 441.91 555.05 C 438.80 551.21 438.42 545.88 439.15 541.18 C 440.26 535.17 441.07 529.06 443.11 523.27 C 446.93 509.76 446.86 495.47 450.95 482.01 C 454.66 470.67 456.49 458.83 459.22 447.24 C 461.01 436.66 462.92 426.07 465.86 415.74 C 467.37 410.82 469.39 405.82 473.29 402.28 C 481.12 395.05 486.03 385.45 491.39 376.39 C 499.19 362.94 502.52 347.24 502.28 331.78 C 502.51 330.15 499.77 329.62 499.55 331.28 C 497.81 338.23 497.60 345.49 495.62 352.40 C 492.31 365.66 485.07 377.41 477.84 388.83 C 474.94 393.42 471.03 397.21 467.21 401.01 C 468.88 389.26 469.38 376.92 475.21 366.26 C 477.17 362.16 480.49 358.81 481.89 354.43 C 477.48 356.72 474.55 360.89 472.14 365.09 C 468.51 371.62 465.63 378.66 464.72 386.12 C 463.17 395.07 463.72 404.35 460.94 413.07 C 458.91 419.46 457.44 426.01 455.95 432.55 C 443.42 430.36 430.74 436.42 418.41 432.42 C 411.43 430.81 407.95 423.81 405.08 417.93 C 400.44 408.41 400.81 397.52 397.28 387.68 C 395.61 382.39 393.35 377.31 391.77 372.00 C 391.36 370.28 390.66 368.33 391.61 366.65 C 399.97 351.10 409.46 336.18 419.76 321.85 C 426.22 312.98 432.31 303.76 436.72 293.68 C 440.91 284.55 444.22 274.99 449.26 266.27 C 452.22 261.08 456.91 257.20 461.62 253.65 C 466.73 249.76 473.05 248.16 478.91 245.76 C 484.45 243.49 490.04 241.24 495.24 238.23 C 503.42 233.41 511.03 227.62 519.59 223.46 M 479.81 280.86 C 480.59 291.23 482.51 301.75 480.64 312.13 C 479.80 317.39 478.07 322.79 479.17 328.14 C 479.66 328.27 480.63 328.53 481.11 328.66 C 483.62 325.50 483.50 321.13 484.63 317.40 C 486.55 310.12 486.53 302.51 485.52 295.08 C 484.67 289.51 484.07 283.64 481.03 278.73 C 480.72 279.27 480.11 280.33 479.81 280.86 M 519.99 302.81 C 519.75 313.69 517.42 324.34 515.91 335.08 C 514.55 344.39 509.56 352.52 506.05 361.08 C 505.05 362.94 505.66 364.86 507.18 366.17 C 510.71 360.27 514.38 354.43 517.08 348.09 C 520.94 339.27 521.53 329.52 522.82 320.10 C 523.13 314.40 524.27 308.29 522.06 302.85 C 521.54 302.84 520.51 302.82 519.99 302.81 M 626.14 349.99 C 620.81 360.25 618.08 371.61 612.85 381.91 C 607.91 391.55 603.03 401.50 595.28 409.26 C 586.96 417.72 580.11 427.63 575.67 438.66 C 573.59 444.22 569.79 450.13 571.95 456.24 C 573.01 454.89 574.09 453.52 574.74 451.91 C 579.29 440.56 585.67 429.98 593.34 420.47 C 597.94 414.72 603.63 409.86 607.50 403.53 C 615.11 391.30 620.85 377.96 625.12 364.22 C 626.97 357.90 629.86 351.91 631.24 345.46 C 628.32 344.89 627.30 347.99 626.14 349.99 M 622.08 436.00 C 616.92 441.25 612.48 447.16 607.86 452.89 C 597.69 465.68 589.89 480.10 580.68 493.55 C 572.82 504.82 564.19 515.67 553.98 524.92 C 539.79 537.82 525.25 550.36 510.03 562.04 C 508.52 563.13 507.40 564.65 506.48 566.25 C 510.31 567.01 513.57 564.67 516.53 562.60 C 525.63 556.12 534.42 549.21 543.22 542.31 C 554.34 533.14 565.32 523.57 573.99 511.97 C 584.22 499.16 592.48 484.97 600.97 470.99 C 608.42 458.63 617.71 447.52 626.05 435.78 C 626.09 433.04 623.04 434.84 622.08 436.00 Z" />
        <path fill="var(--shirt-color, grey)" opacity="1.00"
            d=" M 657.93 553.09 C 657.95 547.46 657.02 541.85 657.49 536.24 C 657.92 541.82 658.32 547.48 657.93 553.09 Z" />
    </g>
    <g id="#ffffffff">
        <path fill="var(--pants-color, grey)" opacity="1.00"
            d=" M 444.46 581.10 C 444.92 577.02 445.10 572.36 448.54 569.54 C 457.21 576.34 467.35 583.42 470.16 594.74 C 471.22 598.75 473.00 603.53 477.72 604.22 C 490.99 606.89 504.03 601.63 516.94 599.33 C 524.66 598.89 532.25 596.89 540.01 597.21 C 548.17 597.74 556.25 599.29 564.13 601.47 C 554.60 605.46 544.55 608.06 535.09 612.23 C 525.78 615.98 517.27 621.38 508.99 626.98 C 506.11 628.99 503.03 630.95 501.23 634.07 C 501.53 634.14 502.13 634.28 502.43 634.35 C 512.25 627.85 522.50 621.95 533.42 617.50 C 545.14 612.29 557.66 609.05 569.00 602.98 C 580.18 605.92 591.38 608.88 602.82 610.69 C 614.05 613.19 625.64 613.62 637.08 612.66 C 640.41 612.51 644.23 611.81 647.09 614.00 C 652.10 624.86 654.16 637.23 652.04 649.08 C 650.43 657.68 650.34 666.60 652.40 675.13 C 654.41 683.67 657.43 692.10 657.50 700.98 C 650.79 695.86 642.07 695.12 634.00 694.02 C 620.72 692.29 607.54 696.02 595.13 700.37 C 580.05 705.58 566.60 714.35 553.19 722.80 C 551.81 713.25 547.56 704.48 542.82 696.18 C 540.76 692.62 540.58 688.42 540.91 684.43 C 558.85 676.20 573.51 661.85 592.40 655.51 C 603.84 651.76 615.89 647.79 628.06 650.08 C 628.59 649.82 629.67 649.32 630.20 649.07 C 624.15 644.41 615.91 645.46 608.85 646.44 C 597.64 648.64 586.48 651.97 576.54 657.73 C 569.48 661.75 563.16 666.89 556.44 671.42 C 552.75 674.03 548.84 676.34 545.28 679.14 C 549.89 672.85 556.29 667.69 559.54 660.39 C 562.33 653.93 566.03 647.29 565.17 640.01 C 565.26 638.29 564.03 637.11 562.97 635.98 C 562.99 645.18 558.78 653.54 554.22 661.28 C 547.15 671.32 536.15 678.64 531.64 690.43 C 529.88 694.34 529.52 698.74 527.55 702.56 C 519.40 716.29 511.44 730.60 499.32 741.29 C 493.81 746.10 486.37 748.60 479.07 747.60 C 476.56 746.92 474.48 745.24 472.73 743.39 C 466.45 737.02 462.68 728.77 457.25 721.75 C 448.47 710.50 441.03 698.24 431.64 687.46 C 427.10 681.76 421.33 677.26 416.47 671.86 C 419.67 655.91 429.49 642.51 435.94 627.84 C 439.59 619.11 443.62 610.28 444.64 600.77 C 445.51 594.20 443.55 587.66 444.46 581.10 M 582.53 641.50 C 579.73 643.52 576.14 644.95 574.65 648.31 C 576.61 647.85 578.50 647.13 580.27 646.18 C 587.06 642.61 593.87 639.06 600.89 635.94 C 606.25 633.49 612.01 632.07 617.44 629.78 C 617.05 629.48 616.28 628.89 615.89 628.60 C 603.87 629.58 592.59 635.09 582.53 641.50 Z" />
        <path fill="var(--socks-color, grey)" opacity="1.00"
            d=" M 589.39 758.38 C 597.63 763.61 607.45 765.55 617.03 766.38 C 626.17 767.02 635.71 766.79 644.25 763.10 C 643.37 776.97 643.50 790.89 642.17 804.74 C 639.95 822.62 635.49 840.19 629.36 857.12 C 625.34 870.74 618.54 883.25 612.10 895.83 C 610.03 900.00 607.14 903.68 604.29 907.33 C 596.05 905.29 587.62 908.32 580.82 912.93 C 576.41 915.49 572.42 919.42 567.09 919.84 C 562.14 920.02 557.12 920.01 552.27 918.93 C 557.19 905.33 563.71 892.13 566.19 877.78 C 567.63 870.24 565.93 862.62 566.70 855.05 C 567.36 843.68 567.02 832.24 568.62 820.93 C 570.21 809.57 571.85 798.02 576.24 787.34 C 580.84 777.79 585.69 768.34 589.39 758.38 Z" />
    </g>
    <g id="#4d4d4dff">
        <path fill="#4d4d4d" opacity="1.00"
            d=" M 341.38 715.26 C 345.10 711.38 351.13 709.77 356.16 711.88 C 360.97 714.40 361.03 720.40 362.03 725.06 C 354.52 726.93 346.36 729.10 341.29 735.40 C 332.23 746.77 331.90 765.07 342.12 775.86 C 345.39 779.47 350.04 781.18 354.31 783.28 C 345.55 789.50 338.18 797.64 332.92 807.01 C 327.80 815.25 323.52 824.64 315.35 830.36 C 311.08 833.58 304.74 832.51 301.04 828.91 C 296.71 824.77 294.85 818.77 293.94 813.01 C 292.43 804.43 293.33 795.52 296.08 787.28 C 299.50 776.88 304.27 767.00 309.24 757.28 C 313.11 749.78 318.46 743.24 323.40 736.45 C 328.79 728.91 334.76 721.75 341.38 715.26 Z" />
        <path fill="#4d4d4d" opacity="1.00"
            d=" M 568.95 925.28 C 578.75 923.83 585.38 914.95 595.07 913.11 C 599.01 912.40 603.59 912.50 606.88 915.08 C 610.17 918.28 611.36 922.91 612.92 927.09 C 615.12 933.80 618.80 940.12 624.01 944.94 C 631.59 951.83 640.02 957.67 648.26 963.73 C 650.49 965.47 653.15 967.19 654.01 970.07 C 654.82 972.61 655.02 975.98 652.68 977.80 C 650.43 979.28 647.71 979.80 645.15 980.47 C 629.60 983.83 613.51 982.07 598.08 978.97 C 594.13 978.08 589.94 976.98 586.94 974.12 C 584.70 971.27 584.14 967.20 581.05 965.04 C 576.08 961.68 569.97 960.66 564.09 960.28 C 557.10 960.18 550.50 955.03 548.33 948.48 C 546.74 940.34 548.78 932.02 550.65 924.10 C 556.67 925.15 562.84 925.81 568.95 925.28 Z" />
    </g>
    <g id="#fefeffff">
        <path fill="var(--socks-color, grey)" opacity="1.00"
            d=" M 389.19 714.56 C 394.47 712.88 400.10 712.99 405.55 713.68 C 397.89 719.40 393.59 728.59 392.26 737.88 C 390.36 750.80 393.32 764.73 401.75 774.91 C 394.89 777.01 388.09 779.58 380.90 780.27 C 372.20 781.50 363.48 779.42 355.20 776.89 C 349.13 775.12 343.66 770.66 341.66 764.54 C 339.46 756.93 338.48 748.33 341.84 740.93 C 346.00 734.56 354.15 733.19 360.97 731.35 C 372.11 728.94 378.53 718.01 389.19 714.56 Z" />
    </g>
</svg>