<?xml version="1.0" encoding="UTF-8" ?>
<!DOCTYPE svg PUBLIC "-//W3C//DTD SVG 1.1//EN" "http://www.w3.org/Graphics/SVG/1.1/DTD/svg11.dtd">
<svg width="1000pt" height="1000pt" viewBox="0 0 1000 1000" version="1.1" xmlns="http://www.w3.org/2000/svg">
    <g id="#020202ff">
        <path fill="#020202" opacity="1.00"
            d=" M 525.08 16.98 C 529.70 14.35 535.05 13.59 540.17 12.43 C 543.69 11.61 547.34 11.91 550.89 12.42 C 559.61 13.79 568.29 11.26 577.02 11.48 C 585.30 11.54 593.84 13.41 600.62 18.39 C 609.09 24.19 615.85 32.24 620.58 41.33 C 625.45 50.69 631.97 59.00 638.34 67.35 C 634.94 69.49 631.00 68.53 627.50 67.23 C 632.33 75.96 634.01 86.10 634.01 95.97 C 634.00 107.61 628.59 118.59 621.21 127.34 C 619.19 130.17 618.16 133.55 616.57 136.63 C 613.87 142.01 611.25 147.54 610.40 153.55 C 609.20 159.96 610.65 166.86 607.46 172.82 C 613.76 173.52 618.84 177.63 622.61 182.47 C 633.90 196.41 652.39 201.46 664.07 214.99 C 675.11 226.62 678.51 242.84 681.63 258.02 C 683.85 268.17 684.07 278.90 688.54 288.45 C 692.56 297.06 694.51 306.41 696.13 315.72 C 697.07 321.65 697.78 327.75 696.66 333.71 C 695.23 341.36 691.94 348.48 690.14 356.02 C 688.63 361.94 687.05 368.32 682.31 372.56 C 680.66 372.18 679.03 371.79 677.40 371.39 C 675.59 377.45 673.35 383.36 671.53 389.42 C 669.24 397.03 665.87 404.29 664.10 412.05 C 661.17 423.82 662.30 436.05 661.81 448.05 C 661.57 459.21 655.47 469.29 648.34 477.49 C 644.66 481.13 640.62 484.68 635.83 486.75 C 633.28 488.02 631.03 485.97 629.25 484.42 C 626.42 486.49 623.27 489.44 619.46 488.51 C 616.89 488.12 616.01 485.39 614.95 483.42 C 614.44 483.73 613.41 484.35 612.90 484.65 C 611.90 488.12 609.90 491.15 607.19 493.52 C 609.97 498.07 612.49 502.93 613.34 508.26 C 614.90 517.81 612.82 527.41 612.76 536.98 C 612.68 547.05 613.64 557.08 614.50 567.10 C 616.80 586.31 612.25 605.45 607.65 623.99 C 605.16 633.81 604.82 643.96 604.55 654.03 C 604.17 656.51 604.85 659.73 602.55 661.46 C 594.89 667.41 586.25 671.90 577.99 676.93 C 571.56 680.67 564.88 684.06 557.83 686.44 C 551.14 700.86 544.56 715.32 537.62 729.61 C 530.69 746.12 523.30 762.44 515.55 778.58 C 511.02 787.60 510.73 797.89 508.46 807.57 C 505.44 820.44 502.54 833.53 496.43 845.37 C 489.39 859.63 479.39 872.15 469.31 884.34 C 458.24 897.19 445.73 908.72 434.71 921.62 C 431.57 925.60 427.21 928.65 424.61 932.99 C 423.96 942.62 429.72 950.99 433.67 959.34 C 436.40 965.22 437.67 972.15 435.69 978.45 C 433.91 984.03 428.41 987.60 422.84 988.53 C 414.83 989.27 406.87 987.64 399.10 985.89 C 391.71 984.16 384.33 982.36 377.12 979.98 C 369.31 977.29 361.48 973.31 356.59 966.43 C 353.25 962.07 352.72 956.12 354.17 950.95 C 356.88 940.46 363.47 931.52 370.52 923.51 C 375.98 917.56 380.40 910.76 385.78 904.74 C 394.97 894.43 402.75 882.80 408.22 870.09 C 415.51 853.35 423.13 836.74 429.51 819.63 C 435.53 805.92 441.25 791.21 452.78 781.09 C 450.55 769.23 454.44 757.61 458.16 746.51 C 455.05 753.20 451.31 759.77 445.75 764.75 C 441.65 768.66 436.44 771.10 431.25 773.22 C 424.12 775.81 416.35 774.78 409.02 773.68 C 408.85 777.72 407.06 781.39 404.77 784.64 C 396.20 796.66 389.09 809.86 384.85 824.04 C 381.25 833.85 376.85 843.41 371.12 852.17 C 366.29 859.91 359.73 867.23 350.73 869.95 C 344.39 872.46 336.97 871.68 331.39 867.73 C 320.77 860.24 313.25 847.23 315.04 833.96 C 318.39 815.05 328.42 798.32 334.33 780.23 C 337.23 772.03 337.96 763.22 341.38 755.20 C 345.09 746.39 348.79 737.36 354.96 729.94 C 357.06 727.53 357.40 724.26 358.34 721.34 C 360.28 715.12 363.84 708.99 369.74 705.81 C 374.59 702.66 380.41 701.82 386.06 701.37 C 385.45 695.05 384.45 688.76 384.19 682.41 C 380.74 683.22 377.68 685.12 374.23 685.89 C 373.38 671.61 374.31 657.28 374.79 643.00 C 375.24 629.56 372.43 616.31 371.54 602.94 C 370.69 591.63 371.10 580.20 373.12 569.03 C 368.39 569.83 364.51 567.03 361.44 563.80 C 355.22 562.84 349.62 558.97 345.97 553.93 C 342.44 547.77 342.71 540.06 344.49 533.38 C 347.42 523.22 352.03 513.63 354.57 503.35 C 357.93 491.12 361.98 478.88 361.93 466.05 C 363.53 449.36 360.56 432.76 360.37 416.08 C 359.89 399.23 362.51 382.49 365.49 365.95 C 366.50 360.32 368.12 354.83 370.04 349.45 C 364.93 343.98 359.84 338.38 356.10 331.86 C 354.45 329.02 354.44 325.44 355.61 322.42 C 357.67 316.77 361.54 311.84 362.59 305.82 C 364.62 295.38 364.18 284.37 368.47 274.45 C 374.01 259.84 387.19 250.39 395.84 237.84 C 402.14 228.95 405.24 217.94 413.24 210.25 C 424.57 199.20 439.88 193.96 454.37 188.48 C 468.40 183.39 481.53 176.17 494.03 168.08 C 499.23 164.46 505.37 162.47 511.66 161.90 C 511.01 157.84 510.69 153.67 509.09 149.84 C 506.10 142.83 500.51 137.14 498.53 129.66 C 496.69 123.97 498.36 117.87 496.74 112.15 C 495.37 106.95 491.47 102.61 491.12 97.11 C 490.35 88.86 495.06 81.29 494.46 73.05 C 494.20 62.95 493.54 52.22 497.75 42.77 C 500.83 36.10 507.52 32.48 512.40 27.33 C 516.20 23.41 520.19 19.53 525.08 16.98 M 566.02 89.60 C 567.40 93.91 569.79 97.86 570.59 102.35 C 561.26 99.15 552.43 94.49 542.74 92.37 C 541.53 92.16 539.98 91.67 539.32 93.08 C 538.53 97.38 538.00 101.76 536.37 105.85 C 532.94 101.80 531.36 96.75 529.11 92.06 C 526.26 101.04 527.96 110.81 524.51 119.64 C 522.60 124.74 520.72 129.91 517.83 134.56 C 516.51 128.47 515.34 120.95 509.45 117.54 C 506.49 115.54 500.99 116.80 501.10 120.97 C 501.14 129.92 507.91 136.70 511.75 144.27 C 516.28 152.02 516.49 161.29 516.21 170.02 C 518.33 185.21 514.46 200.81 518.43 215.82 C 520.86 222.33 525.26 227.98 530.27 232.74 C 534.63 236.82 539.87 240.48 545.99 241.03 C 554.42 242.56 562.60 238.21 568.51 232.52 C 573.04 228.07 577.86 223.83 581.53 218.60 C 586.61 211.60 591.92 204.00 592.11 195.00 C 587.41 200.74 581.71 205.80 574.95 208.95 C 566.90 212.57 557.32 212.17 549.34 208.61 C 546.42 207.38 544.37 204.71 544.20 201.50 C 546.60 202.71 548.68 204.53 551.17 205.58 C 558.06 208.26 565.89 207.44 572.61 204.63 C 579.77 201.33 585.93 195.88 590.30 189.34 C 592.84 184.68 596.03 180.43 599.25 176.22 C 602.07 172.37 604.91 168.00 604.68 163.02 C 604.64 158.14 605.17 153.29 606.10 148.51 C 598.52 147.38 590.91 146.51 583.40 145.00 C 582.36 148.42 581.57 151.95 579.88 155.14 C 577.93 149.74 580.43 144.10 581.65 138.81 C 582.45 136.32 583.29 132.07 586.83 132.82 C 594.92 133.71 602.94 135.22 610.98 136.46 C 612.06 134.42 613.14 132.38 614.24 130.35 C 612.79 120.48 614.48 110.41 612.19 100.62 C 602.06 100.87 593.20 106.64 585.60 112.85 C 585.57 109.53 586.03 105.88 584.00 102.99 C 579.88 96.52 572.92 92.54 566.02 89.60 M 498.15 170.17 C 488.46 176.30 478.81 182.58 468.32 187.25 C 450.78 195.45 430.56 199.42 416.19 213.23 C 408.24 220.97 405.45 232.16 398.99 240.97 C 390.64 253.16 377.80 262.36 372.69 276.64 C 368.49 287.19 369.75 298.84 366.75 309.65 C 365.01 316.25 359.77 321.37 358.57 328.13 C 363.62 335.34 370.24 341.33 376.10 347.89 C 383.51 356.11 393.04 361.99 402.61 367.35 C 410.57 370.40 419.17 371.23 427.39 373.36 C 431.05 367.48 435.39 361.95 438.40 355.71 C 439.46 347.19 438.32 338.55 439.08 330.01 C 439.66 321.12 442.73 312.60 446.64 304.67 C 447.91 301.91 450.05 299.68 452.79 298.34 C 450.08 305.18 446.29 311.67 445.01 319.02 C 442.73 328.48 443.92 338.24 443.59 347.85 C 454.67 329.25 468.48 311.02 488.36 301.26 C 490.36 300.19 492.66 300.12 494.88 300.12 C 478.54 309.46 465.63 323.77 455.36 339.36 C 447.26 351.31 440.56 364.23 431.35 375.39 C 427.62 380.53 420.67 377.55 415.49 377.08 C 414.80 382.65 415.75 388.19 417.91 393.34 C 421.60 403.25 418.11 413.73 415.14 423.32 C 412.75 429.61 417.62 435.59 416.44 441.91 C 415.76 445.93 414.03 449.66 412.67 453.48 C 410.41 459.49 409.04 465.83 408.51 472.23 C 408.92 472.57 409.75 473.26 410.16 473.60 C 425.00 474.50 439.93 473.36 454.76 474.80 C 460.02 475.18 465.49 476.19 470.60 474.37 C 476.09 472.38 480.53 468.41 485.68 465.75 C 495.31 460.42 506.34 458.59 517.16 457.49 C 527.41 456.49 537.63 455.24 547.89 454.29 C 551.57 453.92 555.37 453.87 558.94 455.01 C 554.13 456.81 548.97 457.05 543.94 457.77 C 535.64 458.93 527.30 459.83 518.99 460.89 C 509.87 462.11 500.57 463.31 492.11 467.15 C 487.13 469.34 482.74 472.58 478.23 475.55 C 490.54 475.35 502.76 477.00 515.02 477.93 C 537.51 479.65 559.77 483.49 581.97 487.44 C 588.60 488.48 595.27 489.80 602.02 489.65 C 604.81 489.77 606.26 487.00 607.86 485.19 C 606.77 483.85 605.54 482.61 604.85 481.03 C 604.65 479.12 605.26 477.27 605.67 475.43 C 603.45 477.54 601.18 480.03 598.02 480.57 C 595.42 480.95 593.50 478.43 593.48 476.05 C 593.18 471.15 595.09 466.45 597.14 462.10 C 600.18 456.17 603.63 450.46 607.08 444.76 C 605.27 443.69 602.83 442.54 603.21 439.99 C 603.40 431.17 607.44 423.04 611.20 415.25 C 618.93 399.86 626.81 384.53 635.27 369.52 C 628.22 366.46 621.86 361.97 616.04 357.00 C 606.41 347.76 604.20 333.78 602.31 321.18 C 602.00 316.91 600.50 311.51 604.45 308.45 C 605.91 316.98 606.73 325.64 609.16 333.97 C 611.26 341.56 614.09 349.48 620.30 354.72 C 625.51 359.10 631.06 363.07 636.70 366.88 C 638.05 364.71 639.43 362.56 640.84 360.43 C 640.12 357.36 639.45 354.26 639.24 351.11 C 637.93 331.31 642.26 311.71 647.67 292.79 C 648.97 288.59 649.62 283.77 653.21 280.77 C 653.08 281.75 652.81 283.72 652.68 284.70 C 647.91 305.06 643.63 325.70 642.92 346.67 C 645.73 337.31 651.04 329.04 655.39 320.37 C 657.91 315.66 659.99 310.55 663.85 306.71 C 663.58 312.37 660.68 317.36 658.36 322.38 C 653.35 332.94 647.54 343.19 644.01 354.38 C 649.18 352.98 654.66 353.51 659.61 355.47 C 667.32 358.11 673.05 364.28 680.49 367.48 C 683.71 360.41 684.80 352.67 687.43 345.40 C 689.67 338.82 692.33 332.12 692.04 325.05 C 691.71 316.99 689.91 309.08 687.79 301.33 C 685.73 293.51 681.19 286.56 679.77 278.54 C 676.83 262.73 674.85 246.47 668.52 231.55 C 664.03 221.39 655.80 213.40 646.65 207.34 C 639.39 202.21 631.08 198.53 624.66 192.26 C 620.65 188.62 617.76 183.91 613.62 180.41 C 611.07 178.24 607.76 177.38 604.56 176.72 C 601.41 181.01 598.04 185.25 595.83 190.13 C 596.65 196.04 596.46 202.21 593.67 207.63 C 589.04 216.84 582.98 225.40 575.58 232.59 C 571.08 237.23 566.09 241.62 559.98 243.98 C 551.08 247.81 540.21 246.35 532.47 240.60 C 525.09 235.27 519.16 228.03 515.20 219.85 C 512.59 214.27 512.53 207.98 512.08 201.96 C 511.55 194.63 512.51 187.31 512.79 179.99 C 513.01 175.03 511.93 170.16 511.21 165.29 C 506.75 166.58 502.09 167.60 498.15 170.17 M 373.11 352.74 C 369.87 362.82 368.56 373.36 366.97 383.80 C 365.20 396.10 364.42 408.57 365.08 420.99 C 365.54 433.33 367.36 445.62 366.90 457.99 C 366.70 468.34 366.27 478.80 363.43 488.83 C 360.14 500.27 357.66 512.01 353.05 523.03 C 350.32 530.64 346.95 538.61 348.62 546.87 C 349.23 552.43 354.30 555.63 358.09 559.07 C 355.15 552.69 352.51 546.04 351.79 539.00 C 351.45 537.03 352.22 535.14 352.87 533.34 C 355.46 541.91 357.58 550.86 362.62 558.42 C 365.02 561.81 368.17 565.27 372.66 565.35 C 370.71 558.67 364.11 554.66 362.39 547.90 C 360.98 541.48 361.25 534.77 362.49 528.35 C 363.21 529.26 364.16 530.13 364.29 531.37 C 365.63 537.14 364.81 543.31 366.89 548.90 C 369.45 553.69 373.53 557.48 376.10 562.29 C 376.45 561.47 377.15 559.82 377.49 558.99 C 377.79 552.64 373.03 547.78 370.65 542.28 C 368.28 537.57 368.45 532.07 369.52 527.04 C 369.67 525.85 370.80 525.21 371.54 524.42 C 372.47 528.22 372.59 532.15 373.27 536.00 C 374.16 540.95 377.34 545.01 379.45 549.47 C 380.37 551.53 381.63 553.41 383.09 555.13 C 384.41 553.72 385.98 552.18 385.75 550.05 C 385.64 543.72 381.77 538.26 380.94 532.06 C 379.99 526.92 380.52 520.49 385.20 517.27 C 384.95 523.71 383.95 530.28 386.31 536.51 C 392.09 529.15 395.64 520.18 397.40 511.04 C 398.77 505.18 396.31 499.52 395.03 493.90 C 393.35 487.09 393.32 480.01 393.54 473.04 C 393.14 451.20 395.47 429.36 399.51 407.91 C 401.55 396.71 402.85 385.28 406.47 374.45 C 393.86 369.90 382.50 362.26 373.11 352.74 M 645.82 358.18 C 635.28 378.58 624.90 399.06 614.62 419.60 C 611.52 425.72 608.80 432.11 607.75 438.94 C 611.46 435.63 614.25 431.35 618.40 428.53 C 618.58 431.05 618.02 433.53 616.78 435.73 C 612.15 444.62 606.93 453.20 602.20 462.05 C 599.83 466.57 598.05 471.47 597.68 476.59 C 607.05 470.09 612.07 459.53 618.48 450.46 C 620.92 447.16 622.81 443.16 626.63 441.19 C 622.27 454.07 613.06 464.62 608.55 477.44 C 607.85 479.03 607.96 481.15 609.98 481.63 C 612.11 481.24 613.88 479.88 615.44 478.45 C 621.69 472.46 626.29 465.04 630.56 457.57 C 632.36 454.75 633.75 451.12 637.35 450.20 C 633.54 461.92 626.84 472.75 617.96 481.33 C 618.38 482.68 618.81 484.02 619.27 485.37 C 623.08 484.77 625.78 481.88 628.36 479.28 C 634.58 473.01 639.12 465.36 644.59 458.47 C 647.02 455.57 649.61 452.39 653.48 451.46 C 649.06 460.28 643.17 468.35 637.15 476.15 C 635.57 478.50 632.61 480.12 632.06 483.04 C 633.32 483.51 634.49 483.39 635.59 482.66 C 643.48 477.57 649.30 469.90 653.72 461.73 C 655.97 457.48 657.47 452.78 657.51 447.95 C 657.80 436.28 656.88 424.44 659.49 412.97 C 661.29 403.99 665.20 395.66 667.86 386.94 C 669.62 381.16 671.96 375.59 673.86 369.85 C 668.36 366.82 663.66 362.42 657.74 360.17 C 653.99 358.50 649.87 358.01 645.82 358.18 M 409.06 375.37 C 406.58 391.09 403.74 406.75 401.21 422.47 C 399.27 435.23 398.40 448.13 397.89 461.01 C 398.01 467.97 398.11 474.92 397.80 481.88 C 399.28 478.37 401.54 475.26 404.64 473.02 C 403.68 464.77 405.95 456.61 408.99 449.02 C 410.33 445.25 412.31 441.32 411.39 437.22 C 410.42 433.25 408.87 429.22 409.69 425.07 C 411.02 417.96 414.33 411.28 414.53 403.96 C 415.04 398.88 413.17 394.06 411.80 389.28 C 410.57 384.99 411.27 380.48 412.25 376.22 C 411.45 376.01 409.85 375.58 409.06 375.37 M 399.04 490.12 C 399.75 496.47 403.21 502.40 402.50 508.93 C 401.75 517.50 398.88 525.88 394.37 533.19 C 392.91 535.76 390.35 537.45 388.83 539.95 C 388.75 545.05 391.52 550.64 388.37 555.34 C 387.12 557.85 384.18 558.09 381.71 558.02 C 381.38 560.72 380.09 563.12 378.00 564.87 C 377.90 569.93 376.72 574.89 376.34 579.93 C 374.78 595.57 377.37 611.18 378.80 626.72 C 379.92 636.80 379.10 646.94 378.49 657.03 C 378.24 664.52 377.70 671.99 377.03 679.46 C 385.09 676.91 393.61 677.02 401.97 677.07 C 418.66 678.04 435.31 680.30 452.05 680.09 C 461.77 677.66 470.26 671.75 477.96 665.51 C 477.86 655.99 477.14 646.44 478.25 636.95 C 479.22 628.73 479.68 620.45 479.73 612.18 C 478.32 607.64 474.13 604.85 470.07 602.90 C 454.77 595.76 439.16 589.05 422.66 585.22 C 418.79 583.88 413.75 583.90 411.40 580.03 C 418.92 580.74 426.24 582.90 433.60 584.58 C 446.66 587.66 458.98 593.15 471.07 598.87 C 474.65 600.53 477.83 602.93 480.55 605.78 C 478.53 596.35 472.44 588.66 467.22 580.80 C 464.93 577.27 461.95 573.97 461.21 569.68 C 465.84 573.13 468.76 578.22 472.26 582.71 C 476.87 589.52 482.40 596.29 483.52 604.72 C 496.90 584.48 515.44 568.47 533.56 552.64 C 535.06 551.63 536.71 549.17 538.61 550.93 C 537.06 554.38 533.82 556.59 531.24 559.23 C 515.42 574.40 498.99 589.29 486.56 607.50 C 481.62 613.61 484.44 621.94 483.09 629.08 C 481.18 641.41 481.38 653.88 480.72 666.30 C 491.23 668.13 501.72 670.08 512.24 671.90 C 524.60 674.11 536.67 677.68 549.00 680.07 C 552.49 680.60 556.21 682.52 559.66 680.86 C 565.81 678.25 571.74 675.14 577.54 671.81 C 572.77 664.27 568.10 656.23 567.39 647.13 C 566.37 634.77 566.42 622.35 565.77 609.96 C 565.73 603.93 564.74 597.82 566.18 591.87 C 567.45 593.66 568.32 595.71 568.57 597.91 C 570.67 614.60 570.35 631.49 572.39 648.19 C 573.31 655.98 577.46 662.78 580.89 669.66 C 587.47 666.23 593.58 662.01 600.06 658.40 C 600.50 647.09 600.14 635.64 602.77 624.54 C 606.38 608.90 610.45 593.14 610.53 576.98 C 609.78 562.97 607.81 548.98 608.34 534.91 C 608.66 526.33 610.61 517.73 609.35 509.14 C 608.63 503.86 606.15 499.08 603.91 494.32 C 593.42 494.27 583.11 492.18 572.79 490.52 C 552.65 486.72 532.38 483.51 511.96 481.71 C 498.98 480.59 486.00 478.68 472.95 479.15 C 468.57 479.63 464.22 480.51 459.78 480.17 C 467.45 485.70 475.05 491.56 483.87 495.19 C 487.01 496.61 490.43 497.22 493.60 498.59 C 491.09 501.00 487.47 500.29 484.48 499.36 C 472.56 495.44 461.95 488.25 453.05 479.49 C 443.35 478.53 433.60 478.98 423.87 478.51 C 432.05 483.65 438.90 490.53 445.16 497.82 C 452.74 506.53 461.02 514.64 469.90 522.03 C 480.80 530.93 493.66 538.09 507.72 540.22 C 506.72 541.30 505.71 542.66 504.04 542.43 C 497.12 542.24 490.68 539.21 484.44 536.49 C 470.57 530.39 459.49 519.69 449.20 508.85 C 439.33 498.03 430.42 485.49 417.01 478.79 C 413.48 478.55 409.77 478.48 406.89 476.12 C 403.06 479.95 400.34 484.88 399.04 490.12 M 480.48 669.59 C 481.06 675.71 480.37 681.83 480.00 687.94 C 479.35 699.09 478.61 710.54 473.99 720.88 C 469.03 731.36 464.63 742.12 461.26 753.21 C 459.07 760.29 456.27 767.46 456.85 775.02 C 456.75 779.00 459.46 782.18 461.79 785.12 C 467.85 792.26 476.39 797.08 485.39 799.46 C 491.75 801.03 499.23 800.82 504.48 796.44 C 506.50 794.93 506.47 792.18 507.05 789.97 C 508.29 782.24 512.28 775.40 515.44 768.36 C 519.91 759.04 523.99 749.55 527.98 740.03 C 535.45 721.47 544.05 703.37 553.79 685.89 C 537.11 682.64 520.69 678.21 503.99 675.08 C 496.09 673.52 488.27 671.60 480.48 669.59 M 465.05 679.55 C 465.45 691.38 464.49 703.20 464.35 715.03 C 464.49 723.11 462.95 731.07 460.93 738.87 C 463.41 732.77 465.93 726.69 468.77 720.76 C 473.08 711.46 474.72 701.24 475.53 691.10 C 475.98 684.49 476.93 677.93 477.11 671.31 C 473.45 674.56 469.34 677.23 465.05 679.55 M 451.08 684.76 C 444.04 685.24 437.04 684.26 430.02 683.97 C 415.71 683.27 401.45 680.66 387.10 682.11 C 388.25 687.35 389.39 692.62 389.90 697.97 C 390.56 704.66 392.06 711.45 390.71 718.15 C 390.18 720.47 388.28 722.08 386.97 723.96 C 384.72 726.72 384.14 730.56 384.98 733.98 C 387.29 744.14 390.89 754.27 397.45 762.51 C 400.66 766.29 405.39 768.35 410.14 769.46 C 416.25 770.81 422.75 771.40 428.86 769.76 C 432.99 768.26 436.70 765.78 440.27 763.25 C 447.36 757.99 452.04 750.15 455.03 741.96 C 458.12 733.32 460.05 724.21 460.06 715.01 C 460.10 703.66 460.91 692.32 462.07 681.04 C 458.50 682.50 455.00 684.49 451.08 684.76 M 366.24 713.25 C 359.39 721.94 360.16 733.57 360.04 743.99 C 359.71 750.53 362.89 756.93 368.08 760.87 C 377.41 768.24 389.70 769.71 401.14 770.90 C 399.12 769.64 397.03 768.41 395.41 766.64 C 389.13 759.74 384.90 751.16 382.42 742.21 C 380.95 736.97 379.15 731.32 381.06 725.94 C 381.92 722.59 384.71 720.36 386.51 717.56 C 387.63 713.86 387.03 709.91 386.74 706.14 C 379.42 706.36 371.74 708.14 366.24 713.25 M 341.82 770.90 C 339.33 783.47 333.80 795.11 328.87 806.85 C 324.98 816.28 320.75 825.82 319.60 836.06 C 318.48 844.52 322.57 852.77 328.08 858.94 C 332.62 863.80 339.14 867.85 346.05 866.83 C 353.92 865.62 360.54 860.39 365.02 854.00 C 371.87 844.57 376.99 833.99 380.99 823.07 C 385.51 808.78 392.26 795.14 401.11 783.03 C 403.02 780.30 404.55 777.33 405.90 774.29 C 395.82 774.31 385.55 773.48 376.02 770.00 C 369.28 767.45 362.76 763.13 359.41 756.55 C 356.14 750.08 356.45 742.63 356.22 735.59 C 349.65 746.51 344.09 758.28 341.82 770.90 M 456.28 784.12 C 447.53 791.27 443.01 801.92 438.06 811.77 C 432.90 822.15 429.73 833.35 424.94 843.88 C 421.08 852.36 417.16 860.81 413.48 869.38 C 410.31 876.13 407.49 883.10 403.25 889.29 C 395.17 902.57 382.99 912.83 375.11 926.23 C 378.13 928.20 381.77 926.99 385.06 926.55 C 392.88 925.28 399.95 920.72 408.04 920.90 C 413.71 920.97 418.66 924.36 422.41 928.36 C 426.61 923.92 430.69 919.37 434.75 914.80 C 445.02 903.07 456.53 892.48 466.53 880.50 C 475.81 869.19 485.05 857.64 491.73 844.56 C 498.76 831.13 501.83 816.15 505.05 801.48 C 498.47 805.43 490.38 805.67 483.06 804.00 C 471.90 801.39 462.28 793.78 456.28 784.12 M 387.25 930.21 C 382.04 931.32 375.46 932.80 371.78 927.78 C 365.92 935.68 359.92 943.95 357.70 953.72 C 356.86 957.53 357.00 962.02 360.09 964.85 C 365.70 970.56 372.98 974.39 380.62 976.62 C 390.37 979.48 400.28 981.80 410.27 983.63 C 414.74 984.32 419.38 985.09 423.88 984.12 C 428.96 982.61 431.72 977.03 431.48 971.99 C 431.48 962.15 424.41 954.50 421.55 945.49 C 419.72 941.02 419.91 936.16 419.41 931.47 C 416.50 926.77 410.49 923.83 404.97 924.95 C 398.87 925.99 393.33 929.05 387.25 930.21 Z" />
        <path fill="#020202" opacity="1.00"
            d=" M 529.69 129.11 C 542.00 129.56 554.38 130.07 566.61 131.63 C 566.38 135.34 566.68 139.15 565.72 142.78 C 561.84 143.38 557.93 142.62 554.06 142.47 C 545.60 141.78 537.09 141.55 528.67 140.46 C 528.85 136.66 529.20 132.88 529.69 129.11 Z" />
        <path fill="#020202" opacity="1.00"
            d=" M 562.42 159.52 C 566.20 158.57 569.59 160.80 573.00 162.03 C 576.15 160.62 579.06 158.00 582.77 158.62 C 580.06 162.14 576.37 164.69 573.11 167.66 C 569.54 164.95 565.78 162.49 562.42 159.52 Z" />
        <path fill="#020202" opacity="1.00"
            d=" M 551.29 175.41 C 552.40 174.77 553.54 173.89 554.93 174.14 C 563.04 174.35 571.04 175.79 579.12 176.40 C 582.04 176.83 585.71 176.44 587.48 179.34 C 586.69 179.63 585.09 180.22 584.30 180.51 C 583.59 181.80 582.96 183.15 582.05 184.30 C 575.98 184.18 569.97 183.19 563.93 182.72 C 561.03 182.40 558.05 182.56 555.25 181.69 C 554.36 180.26 554.66 178.46 554.42 176.86 C 553.64 176.50 552.07 175.77 551.29 175.41 Z" />
        <path fill="#020202" opacity="1.00"
            d=" M 422.22 298.08 C 424.67 292.43 425.66 285.84 429.87 281.15 L 431.33 281.66 C 430.67 286.87 428.43 291.70 426.89 296.68 C 422.00 311.72 416.91 327.05 416.47 343.00 C 416.16 350.11 417.61 357.12 418.02 364.20 C 416.56 362.94 414.94 361.62 414.57 359.61 C 409.45 338.91 414.72 317.50 422.22 298.08 Z" />
        <path fill="#020202" opacity="1.00"
            d=" M 525.34 315.34 C 531.28 309.76 536.36 303.30 542.54 297.97 C 542.61 299.63 543.15 301.54 542.00 302.99 C 539.80 306.41 536.96 309.35 534.30 312.41 C 520.13 328.21 506.05 344.08 491.65 359.66 C 479.46 372.91 465.98 385.10 450.78 394.81 C 444.08 398.85 436.39 402.79 428.33 401.44 C 426.83 401.33 426.10 399.89 425.28 398.87 C 428.64 398.01 432.18 398.17 435.52 397.15 C 441.40 395.42 446.63 392.04 451.61 388.55 C 464.44 379.25 475.96 368.27 486.56 356.51 C 499.22 342.54 511.74 328.42 525.34 315.34 Z" />
        <path fill="#020202" opacity="1.00"
            d=" M 547.92 344.91 C 549.40 342.71 551.13 340.64 553.43 339.24 C 552.83 345.45 548.51 350.26 545.30 355.31 C 529.48 378.64 510.26 399.71 488.08 417.14 C 477.81 425.15 467.40 433.56 455.00 438.02 C 448.16 440.40 439.85 441.00 433.84 436.26 C 438.87 435.78 443.97 437.35 448.92 435.90 C 459.28 433.28 467.99 426.65 476.39 420.35 C 489.57 409.98 502.11 398.79 513.57 386.54 C 525.86 373.39 537.70 359.75 547.92 344.91 Z" />
    </g>
    <g id="#f0b58bff">
        <path fill="#f0b58b" opacity="1.00"
            d=" M 566.02 89.60 C 572.92 92.54 579.88 96.52 584.00 102.99 C 586.03 105.88 585.57 109.53 585.60 112.85 C 593.20 106.64 602.06 100.87 612.19 100.62 C 614.48 110.41 612.79 120.48 614.24 130.35 C 613.14 132.38 612.06 134.42 610.98 136.46 C 602.94 135.22 594.92 133.71 586.83 132.82 C 583.29 132.07 582.45 136.32 581.65 138.81 C 580.43 144.10 577.93 149.74 579.88 155.14 C 581.57 151.95 582.36 148.42 583.40 145.00 C 590.91 146.51 598.52 147.38 606.10 148.51 C 605.17 153.29 604.64 158.14 604.68 163.02 C 604.91 168.00 602.07 172.37 599.25 176.22 C 596.03 180.43 592.84 184.68 590.30 189.34 C 585.93 195.88 579.77 201.33 572.61 204.63 C 565.89 207.44 558.06 208.26 551.17 205.58 C 548.68 204.53 546.60 202.71 544.20 201.50 C 544.37 204.71 546.42 207.38 549.34 208.61 C 557.32 212.17 566.90 212.57 574.95 208.95 C 581.71 205.80 587.41 200.74 592.11 195.00 C 591.92 204.00 586.61 211.60 581.53 218.60 C 577.86 223.83 573.04 228.07 568.51 232.52 C 562.60 238.21 554.42 242.56 545.99 241.03 C 539.87 240.48 534.63 236.82 530.27 232.74 C 525.26 227.98 520.86 222.33 518.43 215.82 C 514.46 200.81 518.33 185.21 516.21 170.02 C 516.49 161.29 516.28 152.02 511.75 144.27 C 507.91 136.70 501.14 129.92 501.10 120.97 C 500.99 116.80 506.49 115.54 509.45 117.54 C 515.34 120.95 516.51 128.47 517.83 134.56 C 520.72 129.91 522.60 124.74 524.51 119.64 C 527.96 110.81 526.26 101.04 529.11 92.06 C 531.36 96.75 532.94 101.80 536.37 105.85 C 538.00 101.76 538.53 97.38 539.32 93.08 C 539.98 91.67 541.53 92.16 542.74 92.37 C 552.43 94.49 561.26 99.15 570.59 102.35 C 569.79 97.86 567.40 93.91 566.02 89.60 M 529.69 129.11 C 529.20 132.88 528.85 136.66 528.67 140.46 C 537.09 141.55 545.60 141.78 554.06 142.47 C 557.93 142.62 561.84 143.38 565.72 142.78 C 566.68 139.15 566.38 135.34 566.61 131.63 C 554.38 130.07 542.00 129.56 529.69 129.11 M 562.42 159.52 C 565.78 162.49 569.54 164.95 573.11 167.66 C 576.37 164.69 580.06 162.14 582.77 158.62 C 579.06 158.00 576.15 160.62 573.00 162.03 C 569.59 160.80 566.20 158.57 562.42 159.52 M 551.29 175.41 C 552.07 175.77 553.64 176.50 554.42 176.86 C 554.66 178.46 554.36 180.26 555.25 181.69 C 558.05 182.56 561.03 182.40 563.93 182.72 C 569.97 183.19 575.98 184.18 582.05 184.30 C 582.96 183.15 583.59 181.80 584.30 180.51 C 585.09 180.22 586.69 179.63 587.48 179.34 C 585.71 176.44 582.04 176.83 579.12 176.40 C 571.04 175.79 563.04 174.35 554.93 174.14 C 553.54 173.89 552.40 174.77 551.29 175.41 Z" />
        <path fill="#f0b58b" opacity="1.00"
            d=" M 373.11 352.74 C 382.50 362.26 393.86 369.90 406.47 374.45 C 402.85 385.28 401.55 396.71 399.51 407.91 C 395.47 429.36 393.14 451.20 393.54 473.04 C 393.32 480.01 393.35 487.09 395.03 493.90 C 396.31 499.52 398.77 505.18 397.40 511.04 C 395.64 520.18 392.09 529.15 386.31 536.51 C 383.95 530.28 384.95 523.71 385.20 517.27 C 380.52 520.49 379.99 526.92 380.94 532.06 C 381.77 538.26 385.64 543.72 385.75 550.05 C 385.98 552.18 384.41 553.72 383.09 555.13 C 381.63 553.41 380.37 551.53 379.45 549.47 C 377.34 545.01 374.16 540.95 373.27 536.00 C 372.59 532.15 372.47 528.22 371.54 524.42 C 370.80 525.21 369.67 525.85 369.52 527.04 C 368.45 532.07 368.28 537.57 370.65 542.28 C 373.03 547.78 377.79 552.64 377.49 558.99 C 377.15 559.82 376.45 561.47 376.10 562.29 C 373.53 557.48 369.45 553.69 366.89 548.90 C 364.81 543.31 365.63 537.14 364.29 531.37 C 364.16 530.13 363.21 529.26 362.49 528.35 C 361.25 534.77 360.98 541.48 362.39 547.90 C 364.11 554.66 370.71 558.67 372.66 565.35 C 368.17 565.27 365.02 561.81 362.62 558.42 C 357.58 550.86 355.46 541.91 352.87 533.34 C 352.22 535.14 351.45 537.03 351.79 539.00 C 352.51 546.04 355.15 552.69 358.09 559.07 C 354.30 555.63 349.23 552.43 348.62 546.87 C 346.95 538.61 350.32 530.64 353.05 523.03 C 357.66 512.01 360.14 500.27 363.43 488.83 C 366.27 478.80 366.70 468.34 366.90 457.99 C 367.36 445.62 365.54 433.33 365.08 420.99 C 364.42 408.57 365.20 396.10 366.97 383.80 C 368.56 373.36 369.87 362.82 373.11 352.74 Z" />
        <path fill="#f0b58b" opacity="1.00"
            d=" M 645.82 358.18 C 649.87 358.01 653.99 358.50 657.74 360.17 C 663.66 362.42 668.36 366.82 673.86 369.85 C 671.96 375.59 669.62 381.16 667.86 386.94 C 665.20 395.66 661.29 403.99 659.49 412.97 C 656.88 424.44 657.80 436.28 657.51 447.95 C 657.47 452.78 655.97 457.48 653.72 461.73 C 649.30 469.90 643.48 477.57 635.59 482.66 C 634.49 483.39 633.32 483.51 632.06 483.04 C 632.61 480.12 635.57 478.50 637.15 476.15 C 643.17 468.35 649.06 460.28 653.48 451.46 C 649.61 452.39 647.02 455.57 644.59 458.47 C 639.12 465.36 634.58 473.01 628.36 479.28 C 625.78 481.88 623.08 484.77 619.27 485.37 C 618.81 484.02 618.38 482.68 617.96 481.33 C 626.84 472.75 633.54 461.92 637.35 450.20 C 633.75 451.12 632.36 454.75 630.56 457.57 C 626.29 465.04 621.69 472.46 615.44 478.45 C 613.88 479.88 612.11 481.24 609.98 481.63 C 607.96 481.15 607.85 479.03 608.55 477.44 C 613.06 464.62 622.27 454.07 626.63 441.19 C 622.81 443.16 620.92 447.16 618.48 450.46 C 612.07 459.53 607.05 470.09 597.68 476.59 C 598.05 471.47 599.83 466.57 602.20 462.05 C 606.93 453.20 612.15 444.62 616.78 435.73 C 618.02 433.53 618.58 431.05 618.40 428.53 C 614.25 431.35 611.46 435.63 607.75 438.94 C 608.80 432.11 611.52 425.72 614.62 419.60 C 624.90 399.06 635.28 378.58 645.82 358.18 Z" />
        <path fill="#f0b58b" opacity="1.00"
            d=" M 480.48 669.59 C 488.27 671.60 496.09 673.52 503.99 675.08 C 520.69 678.21 537.11 682.64 553.79 685.89 C 544.05 703.37 535.45 721.47 527.98 740.03 C 523.99 749.55 519.91 759.04 515.44 768.36 C 512.28 775.40 508.29 782.24 507.05 789.97 C 506.47 792.18 506.50 794.93 504.48 796.44 C 499.23 800.82 491.75 801.03 485.39 799.46 C 476.39 797.08 467.85 792.26 461.79 785.12 C 459.46 782.18 456.75 779.00 456.85 775.02 C 456.27 767.46 459.07 760.29 461.26 753.21 C 464.63 742.12 469.03 731.36 473.99 720.88 C 478.61 710.54 479.35 699.09 480.00 687.94 C 480.37 681.83 481.06 675.71 480.48 669.59 Z" />
        <path fill="#f0b58b" opacity="1.00"
            d=" M 451.08 684.76 C 455.00 684.49 458.50 682.50 462.07 681.04 C 460.91 692.32 460.10 703.66 460.06 715.01 C 460.05 724.21 458.12 733.32 455.03 741.96 C 452.04 750.15 447.36 757.99 440.27 763.25 C 436.70 765.78 432.99 768.26 428.86 769.76 C 422.75 771.40 416.25 770.81 410.14 769.46 C 405.39 768.35 400.66 766.29 397.45 762.51 C 390.89 754.27 387.29 744.14 384.98 733.98 C 384.14 730.56 384.72 726.72 386.97 723.96 C 388.28 722.08 390.18 720.47 390.71 718.15 C 392.06 711.45 390.56 704.66 389.90 697.97 C 389.39 692.62 388.25 687.35 387.10 682.11 C 401.45 680.66 415.71 683.27 430.02 683.97 C 437.04 684.26 444.04 685.24 451.08 684.76 Z" />
    </g>
    <g id="#f11b27ff">
        <path fill="var(--shirt-color, grey)" opacity="1.00"
            d=" M 498.15 170.17 C 502.09 167.60 506.75 166.58 511.21 165.29 C 511.93 170.16 513.01 175.03 512.79 179.99 C 512.51 187.31 511.55 194.63 512.08 201.96 C 512.53 207.98 512.59 214.27 515.20 219.85 C 519.16 228.03 525.09 235.27 532.47 240.60 C 540.21 246.35 551.08 247.81 559.98 243.98 C 566.09 241.62 571.08 237.23 575.58 232.59 C 582.98 225.40 589.04 216.84 593.67 207.63 C 596.46 202.21 596.65 196.04 595.83 190.13 C 598.04 185.25 601.41 181.01 604.56 176.72 C 607.76 177.38 611.07 178.24 613.62 180.41 C 617.76 183.91 620.65 188.62 624.66 192.26 C 631.08 198.53 639.39 202.21 646.65 207.34 C 655.80 213.40 664.03 221.39 668.52 231.55 C 674.85 246.47 676.83 262.73 679.77 278.54 C 681.19 286.56 685.73 293.51 687.79 301.33 C 689.91 309.08 691.71 316.99 692.04 325.05 C 692.33 332.12 689.67 338.82 687.43 345.40 C 684.80 352.67 683.71 360.41 680.49 367.48 C 673.05 364.28 667.32 358.11 659.61 355.47 C 654.66 353.51 649.18 352.98 644.01 354.38 C 647.54 343.19 653.35 332.94 658.36 322.38 C 660.68 317.36 663.58 312.37 663.85 306.71 C 659.99 310.55 657.91 315.66 655.39 320.37 C 651.04 329.04 645.73 337.31 642.92 346.67 C 643.63 325.70 647.91 305.06 652.68 284.70 C 652.81 283.72 653.08 281.75 653.21 280.77 C 649.62 283.77 648.97 288.59 647.67 292.79 C 642.26 311.71 637.93 331.31 639.24 351.11 C 639.45 354.26 640.12 357.36 640.84 360.43 C 639.43 362.56 638.05 364.71 636.70 366.88 C 631.06 363.07 625.51 359.10 620.30 354.72 C 614.09 349.48 611.26 341.56 609.16 333.97 C 606.73 325.64 605.91 316.98 604.45 308.45 C 600.50 311.51 602.00 316.91 602.31 321.18 C 604.20 333.78 606.41 347.76 616.04 357.00 C 621.86 361.97 628.22 366.46 635.27 369.52 C 626.81 384.53 618.93 399.86 611.20 415.25 C 607.44 423.04 603.40 431.17 603.21 439.99 C 602.83 442.54 605.27 443.69 607.08 444.76 C 603.63 450.46 600.18 456.17 597.14 462.10 C 595.09 466.45 593.18 471.15 593.48 476.05 C 593.50 478.43 595.42 480.95 598.02 480.57 C 601.18 480.03 603.45 477.54 605.67 475.43 C 605.26 477.27 604.65 479.12 604.85 481.03 C 605.54 482.61 606.77 483.85 607.86 485.19 C 606.26 487.00 604.81 489.77 602.02 489.65 C 595.27 489.80 588.60 488.48 581.97 487.44 C 559.77 483.49 537.51 479.65 515.02 477.93 C 502.76 477.00 490.54 475.35 478.23 475.55 C 482.74 472.58 487.13 469.34 492.11 467.15 C 500.57 463.31 509.87 462.11 518.99 460.89 C 527.30 459.83 535.64 458.93 543.94 457.77 C 548.97 457.05 554.13 456.81 558.94 455.01 C 555.37 453.87 551.57 453.92 547.89 454.29 C 537.63 455.24 527.41 456.49 517.16 457.49 C 506.34 458.59 495.31 460.42 485.68 465.75 C 480.53 468.41 476.09 472.38 470.60 474.37 C 465.49 476.19 460.02 475.18 454.76 474.80 C 439.93 473.36 425.00 474.50 410.16 473.60 C 409.75 473.26 408.92 472.57 408.51 472.23 C 409.04 465.83 410.41 459.49 412.67 453.48 C 414.03 449.66 415.76 445.93 416.44 441.91 C 417.62 435.59 412.75 429.61 415.14 423.32 C 418.11 413.73 421.60 403.25 417.91 393.34 C 415.75 388.19 414.80 382.65 415.49 377.08 C 420.67 377.55 427.62 380.53 431.35 375.39 C 440.56 364.23 447.26 351.31 455.36 339.36 C 465.63 323.77 478.54 309.46 494.88 300.12 C 492.66 300.12 490.36 300.19 488.36 301.26 C 468.48 311.02 454.67 329.25 443.59 347.85 C 443.92 338.24 442.73 328.48 445.01 319.02 C 446.29 311.67 450.08 305.18 452.79 298.34 C 450.05 299.68 447.91 301.91 446.64 304.67 C 442.73 312.60 439.66 321.12 439.08 330.01 C 438.32 338.55 439.46 347.19 438.40 355.71 C 435.39 361.95 431.05 367.48 427.39 373.36 C 419.17 371.23 410.57 370.40 402.61 367.35 C 393.04 361.99 383.51 356.11 376.10 347.89 C 370.24 341.33 363.62 335.34 358.57 328.13 C 359.77 321.37 365.01 316.25 366.75 309.65 C 369.75 298.84 368.49 287.19 372.69 276.64 C 377.80 262.36 390.64 253.16 398.99 240.97 C 405.45 232.16 408.24 220.97 416.19 213.23 C 430.56 199.42 450.78 195.45 468.32 187.25 C 478.81 182.58 488.46 176.30 498.15 170.17 M 422.22 298.08 C 414.72 317.50 409.45 338.91 414.57 359.61 C 414.94 361.62 416.56 362.94 418.02 364.20 C 417.61 357.12 416.16 350.11 416.47 343.00 C 416.91 327.05 422.00 311.72 426.89 296.68 C 428.43 291.70 430.67 286.87 431.33 281.66 L 429.87 281.15 C 425.66 285.84 424.67 292.43 422.22 298.08 M 525.34 315.34 C 511.74 328.42 499.22 342.54 486.56 356.51 C 475.96 368.27 464.44 379.25 451.61 388.55 C 446.63 392.04 441.40 395.42 435.52 397.15 C 432.18 398.17 428.64 398.01 425.28 398.87 C 426.10 399.89 426.83 401.33 428.33 401.44 C 436.39 402.79 444.08 398.85 450.78 394.81 C 465.98 385.10 479.46 372.91 491.65 359.66 C 506.05 344.08 520.13 328.21 534.30 312.41 C 536.96 309.35 539.80 306.41 542.00 302.99 C 543.15 301.54 542.61 299.63 542.54 297.97 C 536.36 303.30 531.28 309.76 525.34 315.34 M 547.92 344.91 C 537.70 359.75 525.86 373.39 513.57 386.54 C 502.11 398.79 489.57 409.98 476.39 420.35 C 467.99 426.65 459.28 433.28 448.92 435.90 C 443.97 437.35 438.87 435.78 433.84 436.26 C 439.85 441.00 448.16 440.40 455.00 438.02 C 467.40 433.56 477.81 425.15 488.08 417.14 C 510.26 399.71 529.48 378.64 545.30 355.31 C 548.51 350.26 552.83 345.45 553.43 339.24 C 551.13 340.64 549.40 342.71 547.92 344.91 Z" />
    </g>
    <g id="#ffffffff">
        <path fill="var(--pants-color, grey)" opacity="1.00"
            d=" M 399.04 490.12 C 400.34 484.88 403.06 479.95 406.89 476.12 C 409.77 478.48 413.48 478.55 417.01 478.79 C 430.42 485.49 439.33 498.03 449.20 508.85 C 459.49 519.69 470.57 530.39 484.44 536.49 C 490.68 539.21 497.12 542.24 504.04 542.43 C 505.71 542.66 506.72 541.30 507.72 540.22 C 493.66 538.09 480.80 530.93 469.90 522.03 C 461.02 514.64 452.74 506.53 445.16 497.82 C 438.90 490.53 432.05 483.65 423.87 478.51 C 433.60 478.98 443.35 478.53 453.05 479.49 C 461.95 488.25 472.56 495.44 484.48 499.36 C 487.47 500.29 491.09 501.00 493.60 498.59 C 490.43 497.22 487.01 496.61 483.87 495.19 C 475.05 491.56 467.45 485.70 459.78 480.17 C 464.22 480.51 468.57 479.63 472.95 479.15 C 486.00 478.68 498.98 480.59 511.96 481.71 C 532.38 483.51 552.65 486.72 572.79 490.52 C 583.11 492.18 593.42 494.27 603.91 494.32 C 606.15 499.08 608.63 503.86 609.35 509.14 C 610.61 517.73 608.66 526.33 608.34 534.91 C 607.81 548.98 609.78 562.97 610.53 576.98 C 610.45 593.14 606.38 608.90 602.77 624.54 C 600.14 635.64 600.50 647.09 600.06 658.40 C 593.58 662.01 587.47 666.23 580.89 669.66 C 577.46 662.78 573.31 655.98 572.39 648.19 C 570.35 631.49 570.67 614.60 568.57 597.91 C 568.32 595.71 567.45 593.66 566.18 591.87 C 564.74 597.82 565.73 603.93 565.77 609.96 C 566.42 622.35 566.37 634.77 567.39 647.13 C 568.10 656.23 572.77 664.27 577.54 671.81 C 571.74 675.14 565.81 678.25 559.66 680.86 C 556.21 682.52 552.49 680.60 549.00 680.07 C 536.67 677.68 524.60 674.11 512.24 671.90 C 501.72 670.08 491.23 668.13 480.72 666.30 C 481.38 653.88 481.18 641.41 483.09 629.08 C 484.44 621.94 481.62 613.61 486.56 607.50 C 498.99 589.29 515.42 574.40 531.24 559.23 C 533.82 556.59 537.06 554.38 538.61 550.93 C 536.71 549.17 535.06 551.63 533.56 552.64 C 515.44 568.47 496.90 584.48 483.52 604.72 C 482.40 596.29 476.87 589.52 472.26 582.71 C 468.76 578.22 465.84 573.13 461.21 569.68 C 461.95 573.97 464.93 577.27 467.22 580.80 C 472.44 588.66 478.53 596.35 480.55 605.78 C 477.83 602.93 474.65 600.53 471.07 598.87 C 458.98 593.15 446.66 587.66 433.60 584.58 C 426.24 582.90 418.92 580.74 411.40 580.03 C 413.75 583.90 418.79 583.88 422.66 585.22 C 439.16 589.05 454.77 595.76 470.07 602.90 C 474.13 604.85 478.32 607.64 479.73 612.18 C 479.68 620.45 479.22 628.73 478.25 636.95 C 477.14 646.44 477.86 655.99 477.96 665.51 C 470.26 671.75 461.77 677.66 452.05 680.09 C 435.31 680.30 418.66 678.04 401.97 677.07 C 393.61 677.02 385.09 676.91 377.03 679.46 C 377.70 671.99 378.24 664.52 378.49 657.03 C 379.10 646.94 379.92 636.80 378.80 626.72 C 377.37 611.18 374.78 595.57 376.34 579.93 C 376.72 574.89 377.90 569.93 378.00 564.87 C 380.09 563.12 381.38 560.72 381.71 558.02 C 384.18 558.09 387.12 557.85 388.37 555.34 C 391.52 550.64 388.75 545.05 388.83 539.95 C 390.35 537.45 392.91 535.76 394.37 533.19 C 398.88 525.88 401.75 517.50 402.50 508.93 C 403.21 502.40 399.75 496.47 399.04 490.12 Z" />
        <path fill="var(--socks-color, grey)" opacity="1.00"
            d=" M 366.24 713.25 C 371.74 708.14 379.42 706.36 386.74 706.14 C 387.03 709.91 387.63 713.86 386.51 717.56 C 384.71 720.36 381.92 722.59 381.06 725.94 C 379.15 731.32 380.95 736.97 382.42 742.21 C 384.90 751.16 389.13 759.74 395.41 766.64 C 397.03 768.41 399.12 769.64 401.14 770.90 C 389.70 769.71 377.41 768.24 368.08 760.87 C 362.89 756.93 359.71 750.53 360.04 743.99 C 360.16 733.57 359.39 721.94 366.24 713.25 Z" />
        <path fill="var(--socks-color, grey)" opacity="1.00"
            d=" M 456.28 784.12 C 462.28 793.78 471.90 801.39 483.06 804.00 C 490.38 805.67 498.47 805.43 505.05 801.48 C 501.83 816.15 498.76 831.13 491.73 844.56 C 485.05 857.64 475.81 869.19 466.53 880.50 C 456.53 892.48 445.02 903.07 434.75 914.80 C 430.69 919.37 426.61 923.92 422.41 928.36 C 418.66 924.36 413.71 920.97 408.04 920.90 C 399.95 920.72 392.88 925.28 385.06 926.55 C 381.77 926.99 378.13 928.20 375.11 926.23 C 382.99 912.83 395.17 902.57 403.25 889.29 C 407.49 883.10 410.31 876.13 413.48 869.38 C 417.16 860.81 421.08 852.36 424.94 843.88 C 429.73 833.35 432.90 822.15 438.06 811.77 C 443.01 801.92 447.53 791.27 456.28 784.12 Z" />
    </g>
    <g id="#4d4d4dff">
        <path fill="#4d4d4d" opacity="1.00"
            d=" M 341.82 770.90 C 344.09 758.28 349.65 746.51 356.22 735.59 C 356.45 742.63 356.14 750.08 359.41 756.55 C 362.76 763.13 369.28 767.45 376.02 770.00 C 385.55 773.48 395.82 774.31 405.90 774.29 C 404.55 777.33 403.02 780.30 401.11 783.03 C 392.26 795.14 385.51 808.78 380.99 823.07 C 376.99 833.99 371.87 844.57 365.02 854.00 C 360.54 860.39 353.92 865.62 346.05 866.83 C 339.14 867.85 332.62 863.80 328.08 858.94 C 322.57 852.77 318.48 844.52 319.60 836.06 C 320.75 825.82 324.98 816.28 328.87 806.85 C 333.80 795.11 339.33 783.47 341.82 770.90 Z" />
        <path fill="#4d4d4d" opacity="1.00"
            d=" M 387.25 930.21 C 393.33 929.05 398.87 925.99 404.97 924.95 C 410.49 923.83 416.50 926.77 419.41 931.47 C 419.91 936.16 419.72 941.02 421.55 945.49 C 424.41 954.50 431.48 962.15 431.48 971.99 C 431.72 977.03 428.96 982.61 423.88 984.12 C 419.38 985.09 414.74 984.32 410.27 983.63 C 400.28 981.80 390.37 979.48 380.62 976.62 C 372.98 974.39 365.70 970.56 360.09 964.85 C 357.00 962.02 356.86 957.53 357.70 953.72 C 359.92 943.95 365.92 935.68 371.78 927.78 C 375.46 932.80 382.04 931.32 387.25 930.21 Z" />
    </g>
</svg>