<?xml version="1.0" encoding="UTF-8" ?>
<!DOCTYPE svg PUBLIC "-//W3C//DTD SVG 1.1//EN" "http://www.w3.org/Graphics/SVG/1.1/DTD/svg11.dtd">
<svg width="1000pt" height="1000pt" viewBox="0 0 1000 1000" version="1.1" xmlns="http://www.w3.org/2000/svg">
    <g id="#020202ff">
        <path fill="#020202" opacity="1.00"
            d=" M 460.87 13.56 C 467.40 11.60 474.86 9.13 481.37 12.48 C 490.68 18.12 501.99 17.63 512.05 21.17 C 513.69 21.87 517.03 22.47 515.17 24.83 C 512.98 25.81 510.61 26.25 508.33 26.92 C 517.03 29.19 524.92 34.52 529.86 42.08 C 540.62 58.17 543.01 78.77 539.22 97.48 C 537.67 103.96 535.28 110.24 534.28 116.86 C 532.72 125.24 533.46 133.89 535.21 142.18 C 534.14 141.71 533.09 141.23 532.04 140.76 C 531.42 143.48 530.77 146.20 530.12 148.91 C 536.17 157.81 542.96 166.23 550.72 173.69 C 559.43 172.92 566.86 178.45 572.59 184.39 C 580.71 192.08 587.80 200.82 593.72 210.32 C 609.82 233.77 617.13 262.08 620.07 290.08 C 622.52 309.47 620.40 329.20 615.62 348.07 C 609.32 373.33 600.64 397.93 590.83 422.02 C 589.75 424.53 588.98 427.20 589.21 429.97 C 589.57 442.33 588.68 454.69 588.90 467.05 C 588.98 470.53 589.17 474.13 590.77 477.29 C 593.08 482.32 597.64 485.75 600.50 490.42 C 606.08 499.11 609.39 509.67 607.99 520.04 C 607.38 525.65 605.28 530.96 603.01 536.08 C 601.80 538.74 598.96 540.50 596.03 540.29 C 590.08 540.04 584.17 539.13 578.21 538.99 C 578.98 553.70 574.21 568.10 568.16 581.31 C 559.37 599.25 547.27 615.33 534.44 630.55 C 523.37 643.75 510.99 655.91 501.33 670.24 C 513.34 666.88 525.16 662.87 537.01 658.99 C 542.90 657.07 548.68 654.82 554.32 652.27 C 555.79 646.06 556.16 639.54 558.79 633.65 C 564.22 622.99 574.19 614.55 585.98 611.93 C 592.18 610.84 598.41 613.17 603.69 616.28 C 612.82 621.66 619.01 630.57 624.72 639.23 C 630.62 648.23 639.37 654.75 647.73 661.30 C 659.58 671.19 671.03 682.60 676.65 697.29 C 678.80 702.97 681.43 708.82 681.15 715.04 C 680.96 719.67 676.28 722.58 671.98 722.45 C 663.64 722.31 656.94 716.81 649.94 713.02 C 643.49 709.91 637.25 705.98 630.06 704.84 C 622.76 703.33 615.37 705.16 608.02 704.67 C 602.32 704.32 596.46 704.02 591.15 701.72 C 582.01 705.34 572.84 708.88 563.88 712.92 C 547.64 720.85 531.57 729.29 516.79 739.73 C 502.61 749.16 488.19 758.30 472.96 765.95 C 465.13 769.96 456.83 772.99 448.36 775.29 C 445.09 785.95 439.86 795.84 434.84 805.75 C 427.99 819.59 420.04 832.86 411.92 845.98 C 393.11 875.38 370.27 901.90 349.96 930.23 C 352.07 941.71 351.54 953.40 352.73 964.98 C 353.00 968.37 352.88 972.58 349.73 974.69 C 341.44 979.75 331.37 979.30 322.04 979.16 C 307.81 979.06 293.36 979.70 279.39 976.53 C 275.10 975.31 270.28 974.38 267.09 971.01 C 264.86 968.64 265.90 965.15 266.62 962.38 C 271.57 947.79 279.98 934.60 289.80 922.81 C 296.16 914.78 303.85 907.27 313.74 903.90 C 318.56 893.44 324.71 883.63 328.92 872.88 C 332.10 864.77 336.20 857.04 338.89 848.75 C 342.39 838.30 344.55 827.47 347.84 816.96 C 356.02 789.79 368.63 764.19 382.78 739.68 C 380.94 737.12 379.91 734.09 379.85 730.94 C 378.87 714.98 380.36 699.00 379.70 683.04 C 379.18 672.65 377.03 662.39 376.97 651.98 C 377.10 631.95 378.81 611.40 386.99 592.88 C 389.41 580.56 389.94 567.94 390.51 555.42 C 389.17 554.52 387.12 554.21 386.70 552.40 C 384.18 544.54 383.86 536.17 383.73 527.98 C 383.86 513.44 384.98 498.70 389.63 484.83 C 393.80 471.58 400.80 459.52 407.11 447.23 C 398.32 453.48 386.92 452.64 376.68 453.36 C 377.61 456.53 376.52 459.97 373.59 461.68 C 366.78 465.61 357.87 466.51 350.72 462.91 C 342.71 464.32 335.31 456.89 335.31 449.07 C 335.18 444.70 333.63 440.27 334.92 435.94 C 336.52 429.42 341.08 424.22 345.51 419.41 C 351.26 413.65 357.89 407.97 366.17 406.53 C 372.40 405.55 378.72 405.39 385.00 404.97 C 395.86 404.35 406.54 402.10 417.03 399.36 C 413.32 377.03 413.98 353.66 420.98 332.01 C 425.20 318.58 427.97 304.76 430.51 290.94 C 432.87 278.11 432.86 265.01 432.70 252.01 C 432.67 245.95 430.65 239.04 434.70 233.77 C 440.76 225.71 448.36 218.94 456.08 212.52 C 451.65 212.31 446.22 212.73 443.25 208.74 C 436.03 199.65 428.87 190.51 421.08 181.90 C 417.97 181.38 412.34 181.52 412.61 176.99 C 413.26 163.83 411.60 150.44 406.60 138.18 C 404.94 134.24 403.57 130.19 402.46 126.06 C 397.31 128.00 393.10 131.60 389.75 135.90 C 389.70 130.72 392.46 126.13 392.91 121.05 C 393.53 115.30 390.34 110.16 389.12 104.71 C 388.11 107.61 387.09 110.50 386.09 113.40 C 384.92 106.28 381.96 99.26 383.12 91.94 C 383.98 85.80 384.71 79.33 388.14 74.00 C 391.88 67.93 397.28 63.19 402.33 58.25 C 407.01 53.74 409.72 47.71 413.73 42.67 C 417.16 37.89 421.50 33.86 426.03 30.15 C 429.17 27.64 433.08 26.45 436.51 24.41 C 438.51 22.52 439.47 19.38 442.37 18.57 C 448.46 16.66 454.80 15.61 460.87 13.56 M 438.32 109.25 C 431.21 112.86 425.69 119.30 417.84 121.49 C 418.55 119.70 419.30 117.93 420.01 116.14 C 417.91 118.34 416.02 120.79 413.52 122.56 C 411.29 123.79 408.74 124.26 406.33 125.00 C 407.79 131.75 411.09 137.87 413.08 144.45 C 419.01 133.18 435.67 129.60 445.38 138.05 C 438.72 142.94 431.55 147.08 424.76 151.77 C 424.10 150.69 423.45 149.61 422.81 148.52 C 420.02 149.04 417.25 149.66 414.50 150.36 C 416.62 159.12 416.97 168.16 416.38 177.13 C 418.51 177.44 420.75 177.37 422.83 178.07 C 425.54 180.05 427.31 183.02 429.65 185.40 C 435.66 191.77 441.04 198.69 446.30 205.68 C 448.39 208.83 452.65 208.46 455.97 208.57 C 462.94 208.54 468.92 204.29 473.82 199.74 C 478.12 195.04 482.80 190.67 486.69 185.60 C 488.06 183.83 489.60 182.19 491.35 180.79 C 491.23 182.58 490.98 184.43 489.93 185.95 C 486.46 191.32 482.73 196.58 478.24 201.15 C 484.58 209.15 485.39 219.67 488.07 229.15 C 491.06 227.61 493.79 225.63 496.25 223.34 C 507.37 213.34 518.23 202.65 531.71 195.82 C 536.78 193.39 541.60 190.44 546.19 187.19 C 548.94 185.30 551.59 183.09 552.90 179.92 C 545.07 173.90 538.07 166.79 532.32 158.75 C 529.58 155.01 527.57 150.81 524.98 146.99 C 522.44 144.93 519.50 143.29 517.56 140.56 C 514.05 144.44 510.19 148.13 505.56 150.64 C 504.40 151.38 501.33 152.61 501.53 150.04 C 504.54 143.01 510.91 138.04 513.90 130.96 C 516.06 125.91 517.46 119.61 514.35 114.65 C 512.09 110.71 506.55 109.40 502.68 111.68 C 496.61 114.88 494.07 121.68 489.55 126.47 C 485.24 131.38 479.60 134.77 474.14 138.22 C 469.19 127.51 461.93 117.61 452.46 110.51 C 449.54 107.91 445.74 110.75 442.48 109.47 C 441.10 109.12 439.64 108.28 438.32 109.25 M 556.64 178.77 C 556.09 181.51 555.68 184.51 553.51 186.50 C 547.46 192.48 539.92 196.69 532.40 200.51 C 518.79 207.99 508.14 219.51 496.24 229.25 C 493.48 231.23 490.02 233.94 486.47 232.38 C 482.93 229.94 481.61 225.47 480.67 221.48 C 479.47 215.59 477.74 209.82 475.38 204.30 C 470.27 208.33 464.55 211.51 459.48 215.58 C 453.09 220.78 447.10 226.47 441.49 232.50 C 439.14 235.14 436.37 238.12 436.82 241.95 C 437.68 256.44 438.09 271.07 436.35 285.51 C 434.03 300.99 430.92 316.40 426.51 331.43 C 422.94 342.96 420.22 354.86 419.85 366.97 C 419.58 377.48 419.82 388.01 420.47 398.50 C 438.77 393.35 455.93 385.03 473.08 376.99 C 463.07 362.70 459.27 345.11 457.98 327.98 C 457.41 319.73 456.70 311.41 457.46 303.15 C 457.44 301.21 458.88 299.91 460.19 298.70 C 461.14 304.43 460.78 310.28 461.30 316.05 C 462.58 336.46 465.46 357.53 476.13 375.39 C 489.86 368.14 504.05 361.76 517.51 353.98 C 517.93 345.85 519.77 337.44 516.68 329.57 C 509.77 310.37 508.50 288.94 514.70 269.38 C 515.01 268.17 516.14 267.56 517.15 266.99 C 517.71 268.60 517.53 270.31 517.24 271.95 C 515.12 283.74 513.86 295.81 515.21 307.76 C 516.07 315.53 518.49 322.99 520.62 330.48 C 522.45 324.28 524.03 318.01 526.18 311.91 C 529.34 302.32 533.82 293.24 538.02 284.08 C 538.84 282.07 540.20 280.32 542.27 279.47 C 542.62 282.36 541.97 285.21 540.84 287.87 C 532.40 308.38 524.04 329.31 521.27 351.48 C 529.78 346.81 538.70 342.81 548.03 340.12 C 557.35 337.30 567.51 337.42 576.83 340.18 C 583.98 342.64 589.95 347.57 595.50 352.57 C 595.59 341.72 595.71 330.86 595.08 320.02 C 594.17 302.52 591.12 285.21 589.11 267.84 C 592.07 266.64 592.66 270.48 593.46 272.46 C 600.23 295.25 600.92 319.35 600.07 342.95 C 599.63 348.00 600.28 353.51 597.47 358.01 C 593.39 355.12 589.16 352.44 584.81 349.98 C 584.35 360.49 583.51 371.12 580.26 381.18 C 578.92 385.43 575.35 388.42 571.78 390.81 C 565.46 394.94 558.26 397.40 551.39 400.40 C 542.70 404.22 533.47 406.50 524.44 409.35 C 528.67 430.65 538.36 450.97 552.55 467.45 C 555.53 471.13 559.16 474.29 561.56 478.42 C 559.18 478.44 557.03 477.42 555.40 475.73 C 537.03 458.67 524.79 435.26 520.48 410.64 C 513.71 412.72 506.83 414.40 499.99 416.23 C 499.38 426.90 499.80 437.63 501.44 448.19 C 502.10 453.47 503.54 458.68 503.35 464.04 C 500.71 462.14 500.17 458.82 499.40 455.90 C 496.48 443.23 495.30 430.13 496.13 417.14 C 485.19 419.70 474.22 422.16 463.25 424.55 C 461.63 432.96 460.26 441.43 459.85 449.99 C 458.85 470.53 459.43 491.31 463.66 511.49 C 464.77 517.12 466.74 522.54 467.80 528.18 C 465.47 526.34 463.98 523.76 463.04 520.99 C 458.61 508.83 456.87 495.89 455.96 483.04 C 454.79 463.85 454.71 444.32 459.08 425.48 C 448.75 427.69 438.41 429.80 428.17 432.37 C 423.42 433.97 417.18 434.98 415.13 440.25 C 410.83 449.76 405.90 458.97 401.26 468.33 C 394.92 481.07 390.16 494.81 388.97 509.07 C 387.60 522.95 387.65 537.01 390.00 550.79 C 398.02 551.14 406.00 552.42 414.04 551.99 C 424.39 551.47 434.85 550.36 444.69 546.91 C 453.18 543.89 461.81 541.30 470.41 538.64 C 484.18 534.32 498.71 533.64 513.00 532.49 C 537.37 530.57 561.79 532.82 586.11 534.39 C 590.51 534.47 595.04 536.49 599.35 535.30 C 601.63 532.44 601.99 528.37 603.14 524.93 C 606.90 511.67 601.96 497.14 592.70 487.33 C 588.49 482.84 584.89 477.26 584.67 470.93 C 583.94 456.27 585.38 441.60 584.94 426.94 C 584.91 417.72 584.06 408.53 583.73 399.33 C 584.83 400.16 586.49 400.69 586.77 402.26 C 588.24 406.89 588.18 411.83 588.70 416.63 C 596.89 392.81 605.97 369.23 611.76 344.67 C 615.73 328.77 617.95 312.29 616.50 295.90 C 614.48 273.51 609.90 251.07 600.18 230.68 C 596.51 222.19 591.06 214.68 585.93 207.04 C 582.43 201.97 578.52 197.20 574.22 192.80 C 568.93 187.48 563.76 181.64 556.64 178.77 M 549.02 345.00 C 538.10 348.31 527.41 352.64 517.63 358.57 C 503.27 366.90 488.06 373.62 473.44 381.48 C 455.77 389.61 438.26 398.63 419.23 403.22 C 409.62 405.65 399.93 407.97 390.03 408.81 C 382.42 409.45 374.76 409.49 367.21 410.67 C 358.50 412.28 351.85 418.81 346.09 425.09 C 341.65 429.94 337.89 435.78 337.55 442.55 C 340.95 438.92 344.25 435.20 347.63 431.55 C 348.70 430.31 350.08 429.41 351.71 429.07 C 349.70 436.51 342.83 441.13 339.76 447.95 C 339.67 452.94 343.54 458.99 349.04 458.67 C 352.35 458.18 354.80 461.12 358.04 461.17 C 363.60 461.51 370.35 460.80 373.87 455.89 C 371.16 453.09 365.37 454.25 364.66 449.74 C 370.11 449.09 375.56 450.33 381.02 449.86 C 387.09 449.37 393.25 449.07 399.14 447.42 C 404.73 445.46 408.80 440.78 412.20 436.13 C 416.42 430.45 423.47 428.07 430.07 426.44 C 463.28 418.48 497.13 413.04 529.73 402.71 C 541.20 399.59 552.18 395.02 563.12 390.43 C 568.74 387.72 575.45 384.56 577.22 377.99 C 579.94 368.13 579.51 357.77 581.32 347.75 C 571.50 342.65 559.58 341.85 549.02 345.00 M 490.06 539.68 C 476.73 541.09 464.14 545.89 451.39 549.70 C 433.28 556.37 413.49 558.46 394.38 555.76 C 394.06 568.06 393.31 580.37 391.30 592.53 C 390.42 596.24 388.46 599.58 387.23 603.18 C 383.16 615.71 381.80 628.92 381.27 642.03 C 380.30 653.72 382.17 665.28 383.44 676.86 C 385.56 696.51 382.26 716.36 384.68 735.98 C 387.09 731.35 389.07 726.39 389.48 721.14 C 390.08 712.70 391.55 704.28 394.23 696.24 C 397.19 687.31 402.37 679.40 406.75 671.14 C 404.48 670.56 402.22 669.99 400.01 669.23 C 401.27 662.70 403.90 656.56 406.20 650.36 C 410.26 639.52 414.54 628.77 419.09 618.14 C 420.72 615.12 419.10 611.75 418.23 608.77 C 416.52 603.63 412.71 599.73 409.00 595.98 C 409.24 595.65 409.70 594.99 409.94 594.66 C 416.32 597.11 420.29 603.38 422.64 609.51 C 424.48 604.17 426.63 598.93 428.43 593.57 C 429.91 589.44 431.15 585.13 433.55 581.41 C 434.01 580.29 435.57 579.97 436.39 580.90 C 436.55 583.34 435.58 585.67 434.96 588.00 C 430.02 603.25 423.95 618.11 417.61 632.83 C 413.00 643.98 408.60 655.22 403.83 666.31 C 419.65 667.55 435.30 673.19 447.48 683.52 C 459.59 693.98 469.03 707.04 480.32 718.33 C 481.77 709.16 483.93 700.12 486.39 691.18 C 490.28 677.19 498.71 665.02 507.81 653.91 C 521.91 637.58 536.48 621.59 548.93 603.92 C 557.27 591.98 565.11 579.43 569.67 565.50 C 572.57 556.92 574.88 547.95 574.65 538.83 C 567.12 538.33 559.58 538.05 552.06 537.53 C 531.38 536.15 510.62 537.37 490.06 539.68 M 566.41 630.41 C 561.67 635.98 561.20 643.52 559.11 650.22 C 563.83 649.96 568.59 650.89 572.61 653.45 C 581.75 659.11 588.98 667.60 593.98 677.06 C 597.44 683.65 599.64 692.09 595.59 698.93 C 602.02 699.55 608.49 700.16 614.97 699.77 C 620.33 699.46 625.75 699.04 631.07 700.02 C 639.42 701.41 646.61 706.16 653.95 710.08 C 660.10 713.55 666.40 718.89 673.93 717.77 C 677.21 717.30 677.24 713.48 676.61 710.98 C 673.47 697.04 666.17 684.12 655.75 674.31 C 645.42 663.53 631.54 656.53 622.74 644.22 C 616.83 635.65 611.43 626.14 602.39 620.45 C 597.61 617.48 591.85 614.91 586.12 616.29 C 578.20 618.61 571.02 623.50 566.41 630.41 M 557.05 656.17 C 546.49 661.76 534.87 664.77 523.56 668.43 C 515.36 671.05 507.01 673.23 498.53 674.71 C 495.13 680.44 492.40 686.57 490.66 693.01 C 488.13 702.43 485.59 711.88 484.33 721.57 C 484.01 723.30 481.49 723.91 480.09 723.20 C 475.31 720.92 471.85 716.74 468.10 713.15 C 466.68 715.90 465.27 718.65 463.85 721.40 C 469.23 734.62 470.58 749.41 468.01 763.44 C 481.48 756.86 494.31 749.03 506.82 740.79 C 514.35 735.98 521.40 730.45 529.17 726.02 C 547.48 714.82 566.89 705.38 587.18 698.37 C 590.94 697.28 594.61 694.29 593.84 689.93 C 592.39 680.54 586.72 672.37 580.41 665.51 C 575.61 660.57 570.01 655.62 562.99 654.46 C 560.82 653.99 558.91 655.28 557.05 656.17 M 411.58 672.11 C 408.68 677.93 405.38 683.55 402.49 689.38 C 397.85 699.30 395.44 710.19 394.80 721.09 C 394.48 726.13 392.88 730.97 390.84 735.55 C 402.05 747.98 419.38 755.12 436.10 752.82 C 440.60 752.08 445.18 750.56 448.69 747.57 C 452.96 734.63 457.59 721.51 465.37 710.19 C 456.13 700.26 447.56 689.34 436.02 681.93 C 428.62 677.07 420.18 674.04 411.58 672.11 M 454.80 744.79 C 452.17 753.09 451.47 761.80 449.74 770.30 C 454.38 768.82 459.00 767.30 463.53 765.52 C 465.05 753.11 464.66 740.29 460.96 728.27 C 458.82 733.74 456.37 739.11 454.80 744.79 M 355.42 810.52 C 349.33 828.92 346.50 848.44 337.61 865.85 C 332.32 878.83 325.85 891.28 318.30 903.08 C 326.38 902.61 335.71 903.11 341.73 909.27 C 346.26 913.19 347.89 919.16 349.02 924.81 C 368.41 897.06 390.66 871.34 408.77 842.68 C 416.98 829.28 424.87 815.66 431.72 801.50 C 436.66 791.42 442.00 781.37 444.63 770.37 C 446.15 764.69 446.55 758.80 447.67 753.05 C 439.70 757.77 430.01 758.44 421.04 756.97 C 408.82 754.91 397.03 749.07 388.74 739.73 C 375.52 762.24 363.64 785.69 355.42 810.52 M 316.33 908.52 C 308.47 910.50 302.13 916.02 296.81 921.90 C 286.76 933.55 277.41 946.12 271.44 960.40 C 270.17 963.48 268.91 968.39 272.71 970.20 C 284.69 975.42 298.14 974.99 310.95 974.99 C 319.98 974.48 329.06 975.44 338.07 974.51 C 341.43 973.70 346.01 973.28 347.63 969.73 C 348.57 965.20 347.34 960.55 347.49 955.97 C 347.56 948.23 347.06 940.49 345.56 932.90 C 344.39 926.75 344.10 919.97 340.23 914.77 C 334.65 907.74 324.51 907.20 316.33 908.52 Z" />
        <path fill="#020202" opacity="1.00"
            d=" M 535.77 216.78 C 536.70 215.35 538.06 214.30 539.42 213.30 C 539.19 217.87 536.71 221.84 534.96 225.94 C 530.60 234.92 526.01 243.89 523.42 253.58 C 522.65 255.78 522.52 258.79 519.78 259.47 C 519.82 253.25 521.56 247.22 523.53 241.38 C 526.56 232.71 530.56 224.35 535.77 216.78 Z" />
        <path fill="#020202" opacity="1.00"
            d=" M 478.26 600.16 C 483.47 597.77 488.55 594.73 494.27 593.76 L 495.37 595.08 C 491.38 598.18 486.64 600.06 482.17 602.35 C 466.87 609.96 451.64 617.86 437.55 627.57 C 435.28 629.09 433.07 630.79 430.40 631.54 C 431.21 628.56 433.86 626.85 436.14 625.06 C 449.16 615.15 463.72 607.56 478.26 600.16 Z" />
        <path fill="#020202" opacity="1.00"
            d=" M 495.28 610.25 C 497.93 609.62 500.77 608.53 503.42 609.82 C 501.38 611.46 499.00 612.58 496.53 613.40 C 477.78 619.50 459.53 627.11 441.90 635.94 C 435.14 639.36 428.43 642.94 422.08 647.09 C 420.74 647.97 419.32 648.73 417.81 649.25 C 419.24 645.40 423.12 643.48 426.29 641.27 C 438.02 633.91 450.50 627.81 463.14 622.19 C 473.65 617.70 484.26 613.34 495.28 610.25 Z" />
    </g>
    <g id="#f0b58bff">
        <path fill="#f0b58b" opacity="1.00"
            d=" M 438.32 109.25 C 439.64 108.28 441.10 109.12 442.48 109.47 C 445.74 110.75 449.54 107.91 452.46 110.51 C 461.93 117.61 469.19 127.51 474.14 138.22 C 479.60 134.77 485.24 131.38 489.55 126.47 C 494.07 121.68 496.61 114.88 502.68 111.68 C 506.55 109.40 512.09 110.71 514.35 114.65 C 517.46 119.61 516.06 125.91 513.90 130.96 C 510.91 138.04 504.54 143.01 501.53 150.04 C 501.33 152.61 504.40 151.38 505.56 150.64 C 510.19 148.13 514.05 144.44 517.56 140.56 C 519.50 143.29 522.44 144.93 524.98 146.99 C 527.57 150.81 529.58 155.01 532.32 158.75 C 538.07 166.79 545.07 173.90 552.90 179.92 C 551.59 183.09 548.94 185.30 546.19 187.19 C 541.60 190.44 536.78 193.39 531.71 195.82 C 518.23 202.65 507.37 213.34 496.25 223.34 C 493.79 225.63 491.06 227.61 488.07 229.15 C 485.39 219.67 484.58 209.15 478.24 201.15 C 482.73 196.58 486.46 191.32 489.93 185.95 C 490.98 184.43 491.23 182.58 491.35 180.79 C 489.60 182.19 488.06 183.83 486.69 185.60 C 482.80 190.67 478.12 195.04 473.82 199.74 C 468.92 204.29 462.94 208.54 455.97 208.57 C 452.65 208.46 448.39 208.83 446.30 205.68 C 441.04 198.69 435.66 191.77 429.65 185.40 C 427.31 183.02 425.54 180.05 422.83 178.07 C 420.75 177.37 418.51 177.44 416.38 177.13 C 416.97 168.16 416.62 159.12 414.50 150.36 C 417.25 149.66 420.02 149.04 422.81 148.52 C 423.45 149.61 424.10 150.69 424.76 151.77 C 431.55 147.08 438.72 142.94 445.38 138.05 C 435.67 129.60 419.01 133.18 413.08 144.45 C 411.09 137.87 407.79 131.75 406.33 125.00 C 408.74 124.26 411.29 123.79 413.52 122.56 C 416.02 120.79 417.91 118.34 420.01 116.14 C 419.30 117.93 418.55 119.70 417.84 121.49 C 425.69 119.30 431.21 112.86 438.32 109.25 Z" />
        <path fill="#f0b58b" opacity="1.00"
            d=" M 549.02 345.00 C 559.58 341.85 571.50 342.65 581.32 347.75 C 579.51 357.77 579.94 368.13 577.22 377.99 C 575.45 384.56 568.74 387.72 563.12 390.43 C 552.18 395.02 541.20 399.59 529.73 402.71 C 497.13 413.04 463.28 418.48 430.07 426.44 C 423.47 428.07 416.42 430.45 412.20 436.13 C 408.80 440.78 404.73 445.46 399.14 447.42 C 393.25 449.07 387.09 449.37 381.02 449.86 C 375.56 450.33 370.11 449.09 364.66 449.74 C 365.37 454.25 371.16 453.09 373.87 455.89 C 370.35 460.80 363.60 461.51 358.04 461.17 C 354.80 461.12 352.35 458.18 349.04 458.67 C 343.54 458.99 339.67 452.94 339.76 447.95 C 342.83 441.13 349.70 436.51 351.71 429.07 C 350.08 429.41 348.70 430.31 347.63 431.55 C 344.25 435.20 340.95 438.92 337.55 442.55 C 337.89 435.78 341.65 429.94 346.09 425.09 C 351.85 418.81 358.50 412.28 367.21 410.67 C 374.76 409.49 382.42 409.45 390.03 408.81 C 399.93 407.97 409.62 405.65 419.23 403.22 C 438.26 398.63 455.77 389.61 473.44 381.48 C 488.06 373.62 503.27 366.90 517.63 358.57 C 527.41 352.64 538.10 348.31 549.02 345.00 Z" />
        <path fill="#f0b58b" opacity="1.00"
            d=" M 411.58 672.11 C 420.18 674.04 428.62 677.07 436.02 681.93 C 447.56 689.34 456.13 700.26 465.37 710.19 C 457.59 721.51 452.96 734.63 448.69 747.57 C 445.18 750.56 440.60 752.08 436.10 752.82 C 419.38 755.12 402.05 747.98 390.84 735.55 C 392.88 730.97 394.48 726.13 394.80 721.09 C 395.44 710.19 397.85 699.30 402.49 689.38 C 405.38 683.55 408.68 677.93 411.58 672.11 Z" />
        <path fill="#f0b58b" opacity="1.00"
            d=" M 454.80 744.79 C 456.37 739.11 458.82 733.74 460.96 728.27 C 464.66 740.29 465.05 753.11 463.53 765.52 C 459.00 767.30 454.38 768.82 449.74 770.30 C 451.47 761.80 452.17 753.09 454.80 744.79 Z" />
    </g>
    <g id="#f11b27ff">
        <path fill="var(--shirt-color, grey)" opacity="1.00"
            d=" M 556.64 178.77 C 563.76 181.64 568.93 187.48 574.22 192.80 C 578.52 197.20 582.43 201.97 585.93 207.04 C 591.06 214.68 596.51 222.19 600.18 230.68 C 609.90 251.07 614.48 273.51 616.50 295.90 C 617.95 312.29 615.73 328.77 611.76 344.67 C 605.97 369.23 596.89 392.81 588.70 416.63 C 588.18 411.83 588.24 406.89 586.77 402.26 C 586.49 400.69 584.83 400.16 583.73 399.33 C 584.06 408.53 584.91 417.72 584.94 426.94 C 585.38 441.60 583.94 456.27 584.67 470.93 C 584.89 477.26 588.49 482.84 592.70 487.33 C 601.96 497.14 606.90 511.67 603.14 524.93 C 601.99 528.37 601.63 532.44 599.35 535.30 C 595.04 536.49 590.51 534.47 586.11 534.39 C 561.79 532.82 537.37 530.57 513.00 532.49 C 498.71 533.64 484.18 534.32 470.41 538.64 C 461.81 541.30 453.18 543.89 444.69 546.91 C 434.85 550.36 424.39 551.47 414.04 551.99 C 406.00 552.42 398.02 551.14 390.00 550.79 C 387.65 537.01 387.60 522.95 388.97 509.07 C 390.16 494.81 394.92 481.07 401.26 468.33 C 405.90 458.97 410.83 449.76 415.13 440.25 C 417.18 434.98 423.42 433.97 428.17 432.37 C 438.41 429.80 448.75 427.69 459.08 425.48 C 454.71 444.32 454.79 463.85 455.96 483.04 C 456.87 495.89 458.61 508.83 463.04 520.99 C 463.98 523.76 465.47 526.34 467.80 528.18 C 466.74 522.54 464.77 517.12 463.66 511.49 C 459.43 491.31 458.85 470.53 459.85 449.99 C 460.26 441.43 461.63 432.96 463.25 424.55 C 474.22 422.16 485.19 419.70 496.13 417.14 C 495.30 430.13 496.48 443.23 499.40 455.90 C 500.17 458.82 500.71 462.14 503.35 464.04 C 503.54 458.68 502.10 453.47 501.44 448.19 C 499.80 437.63 499.38 426.90 499.99 416.23 C 506.83 414.40 513.71 412.72 520.48 410.64 C 524.79 435.26 537.03 458.67 555.40 475.73 C 557.03 477.42 559.18 478.44 561.56 478.42 C 559.16 474.29 555.53 471.13 552.55 467.45 C 538.36 450.97 528.67 430.65 524.44 409.35 C 533.47 406.50 542.70 404.22 551.39 400.40 C 558.26 397.40 565.46 394.94 571.78 390.81 C 575.35 388.42 578.92 385.43 580.26 381.18 C 583.51 371.12 584.35 360.49 584.81 349.98 C 589.16 352.44 593.39 355.12 597.47 358.01 C 600.28 353.51 599.63 348.00 600.07 342.95 C 600.92 319.35 600.23 295.25 593.46 272.46 C 592.66 270.48 592.07 266.64 589.11 267.84 C 591.12 285.21 594.17 302.52 595.08 320.02 C 595.71 330.86 595.59 341.72 595.50 352.57 C 589.95 347.57 583.98 342.64 576.83 340.18 C 567.51 337.42 557.35 337.30 548.03 340.12 C 538.70 342.81 529.78 346.81 521.27 351.48 C 524.04 329.31 532.40 308.38 540.84 287.87 C 541.97 285.21 542.62 282.36 542.27 279.47 C 540.20 280.32 538.84 282.07 538.02 284.08 C 533.82 293.24 529.34 302.32 526.18 311.91 C 524.03 318.01 522.45 324.28 520.62 330.48 C 518.49 322.99 516.07 315.53 515.21 307.76 C 513.86 295.81 515.12 283.74 517.24 271.95 C 517.53 270.31 517.71 268.60 517.15 266.99 C 516.14 267.56 515.01 268.17 514.70 269.38 C 508.50 288.94 509.77 310.37 516.68 329.57 C 519.77 337.44 517.93 345.85 517.51 353.98 C 504.05 361.76 489.86 368.14 476.13 375.39 C 465.46 357.53 462.58 336.46 461.30 316.05 C 460.78 310.28 461.14 304.43 460.19 298.70 C 458.88 299.91 457.44 301.21 457.46 303.15 C 456.70 311.41 457.41 319.73 457.98 327.98 C 459.27 345.11 463.07 362.70 473.08 376.99 C 455.93 385.03 438.77 393.35 420.47 398.50 C 419.82 388.01 419.58 377.48 419.85 366.97 C 420.22 354.86 422.94 342.96 426.51 331.43 C 430.92 316.40 434.03 300.99 436.35 285.51 C 438.09 271.07 437.68 256.44 436.82 241.95 C 436.37 238.12 439.14 235.14 441.49 232.50 C 447.10 226.47 453.09 220.78 459.48 215.58 C 464.55 211.51 470.27 208.33 475.38 204.30 C 477.74 209.82 479.47 215.59 480.67 221.48 C 481.61 225.47 482.93 229.94 486.47 232.38 C 490.02 233.94 493.48 231.23 496.24 229.25 C 508.14 219.51 518.79 207.99 532.40 200.51 C 539.92 196.69 547.46 192.48 553.51 186.50 C 555.68 184.51 556.09 181.51 556.64 178.77 M 535.77 216.78 C 530.56 224.35 526.56 232.71 523.53 241.38 C 521.56 247.22 519.82 253.25 519.78 259.47 C 522.52 258.79 522.65 255.78 523.42 253.58 C 526.01 243.89 530.60 234.92 534.96 225.94 C 536.71 221.84 539.19 217.87 539.42 213.30 C 538.06 214.30 536.70 215.35 535.77 216.78 Z" />
    </g>
    <g id="#ffffffff">
        <path fill="var(--pants-color, grey)" opacity="1.00"
            d=" M 490.06 539.68 C 510.62 537.37 531.38 536.15 552.06 537.53 C 559.58 538.05 567.12 538.33 574.65 538.83 C 574.88 547.95 572.57 556.92 569.67 565.50 C 565.11 579.43 557.27 591.98 548.93 603.92 C 536.48 621.59 521.91 637.58 507.81 653.91 C 498.71 665.02 490.28 677.19 486.39 691.18 C 483.93 700.12 481.77 709.16 480.32 718.33 C 469.03 707.04 459.59 693.98 447.48 683.52 C 435.30 673.19 419.65 667.55 403.83 666.31 C 408.60 655.22 413.00 643.98 417.61 632.83 C 423.95 618.11 430.02 603.25 434.96 588.00 C 435.58 585.67 436.55 583.34 436.39 580.90 C 435.57 579.97 434.01 580.29 433.55 581.41 C 431.15 585.13 429.91 589.44 428.43 593.57 C 426.63 598.93 424.48 604.17 422.64 609.51 C 420.29 603.38 416.32 597.11 409.94 594.66 C 409.70 594.99 409.24 595.65 409.00 595.98 C 412.71 599.73 416.52 603.63 418.23 608.77 C 419.10 611.75 420.72 615.12 419.09 618.14 C 414.54 628.77 410.26 639.52 406.20 650.36 C 403.90 656.56 401.27 662.70 400.01 669.23 C 402.22 669.99 404.48 670.56 406.75 671.14 C 402.37 679.40 397.19 687.31 394.23 696.24 C 391.55 704.28 390.08 712.70 389.48 721.14 C 389.07 726.39 387.09 731.35 384.68 735.98 C 382.26 716.36 385.56 696.51 383.44 676.86 C 382.17 665.28 380.30 653.72 381.27 642.03 C 381.80 628.92 383.16 615.71 387.23 603.18 C 388.46 599.58 390.42 596.24 391.30 592.53 C 393.31 580.37 394.06 568.06 394.38 555.76 C 413.49 558.46 433.28 556.37 451.39 549.70 C 464.14 545.89 476.73 541.09 490.06 539.68 M 478.26 600.16 C 463.72 607.56 449.16 615.15 436.14 625.06 C 433.86 626.85 431.21 628.56 430.40 631.54 C 433.07 630.79 435.28 629.09 437.55 627.57 C 451.64 617.86 466.87 609.96 482.17 602.35 C 486.64 600.06 491.38 598.18 495.37 595.08 L 494.27 593.76 C 488.55 594.73 483.47 597.77 478.26 600.16 M 495.28 610.25 C 484.26 613.34 473.65 617.70 463.14 622.19 C 450.50 627.81 438.02 633.91 426.29 641.27 C 423.12 643.48 419.24 645.40 417.81 649.25 C 419.32 648.73 420.74 647.97 422.08 647.09 C 428.43 642.94 435.14 639.36 441.90 635.94 C 459.53 627.11 477.78 619.50 496.53 613.40 C 499.00 612.58 501.38 611.46 503.42 609.82 C 500.77 608.53 497.93 609.62 495.28 610.25 Z" />
        <path fill="var(--socks-color, grey)" opacity="1.00"
            d=" M 557.05 656.17 C 558.91 655.28 560.82 653.99 562.99 654.46 C 570.01 655.62 575.61 660.57 580.41 665.51 C 586.72 672.37 592.39 680.54 593.84 689.93 C 594.61 694.29 590.94 697.28 587.18 698.37 C 566.89 705.38 547.48 714.82 529.17 726.02 C 521.40 730.45 514.35 735.98 506.82 740.79 C 494.31 749.03 481.48 756.86 468.01 763.44 C 470.58 749.41 469.23 734.62 463.85 721.40 C 465.27 718.65 466.68 715.90 468.10 713.15 C 471.85 716.74 475.31 720.92 480.09 723.20 C 481.49 723.91 484.01 723.30 484.33 721.57 C 485.59 711.88 488.13 702.43 490.66 693.01 C 492.40 686.57 495.13 680.44 498.53 674.71 C 507.01 673.23 515.36 671.05 523.56 668.43 C 534.87 664.77 546.49 661.76 557.05 656.17 Z" />
        <path fill="var(--socks-color, grey)" opacity="1.00"
            d=" M 355.42 810.52 C 363.64 785.69 375.52 762.24 388.74 739.73 C 397.03 749.07 408.82 754.91 421.04 756.97 C 430.01 758.44 439.70 757.77 447.67 753.05 C 446.55 758.80 446.15 764.69 444.63 770.37 C 442.00 781.37 436.66 791.42 431.72 801.50 C 424.87 815.66 416.98 829.28 408.77 842.68 C 390.66 871.34 368.41 897.06 349.02 924.81 C 347.89 919.16 346.26 913.19 341.73 909.27 C 335.71 903.11 326.38 902.61 318.30 903.08 C 325.85 891.28 332.32 878.83 337.61 865.85 C 346.50 848.44 349.33 828.92 355.42 810.52 Z" />
    </g>
    <g id="#4d4d4dff">
        <path fill="#4d4d4d" opacity="1.00"
            d=" M 566.41 630.41 C 571.02 623.50 578.20 618.61 586.12 616.29 C 591.85 614.91 597.61 617.48 602.39 620.45 C 611.43 626.14 616.83 635.65 622.74 644.22 C 631.54 656.53 645.42 663.53 655.75 674.31 C 666.17 684.12 673.47 697.04 676.61 710.98 C 677.24 713.48 677.21 717.30 673.93 717.77 C 666.40 718.89 660.10 713.55 653.95 710.08 C 646.61 706.16 639.42 701.41 631.07 700.02 C 625.75 699.04 620.33 699.46 614.97 699.77 C 608.49 700.16 602.02 699.55 595.59 698.93 C 599.64 692.09 597.44 683.65 593.98 677.06 C 588.98 667.60 581.75 659.11 572.61 653.45 C 568.59 650.89 563.83 649.96 559.11 650.22 C 561.20 643.52 561.67 635.98 566.41 630.41 Z" />
        <path fill="#4d4d4d" opacity="1.00"
            d=" M 316.33 908.52 C 324.51 907.20 334.65 907.74 340.23 914.77 C 344.10 919.97 344.39 926.75 345.56 932.90 C 347.06 940.49 347.56 948.23 347.49 955.97 C 347.34 960.55 348.57 965.20 347.63 969.73 C 346.01 973.28 341.43 973.70 338.07 974.51 C 329.06 975.44 319.98 974.48 310.95 974.99 C 298.14 974.99 284.69 975.42 272.71 970.20 C 268.91 968.39 270.17 963.48 271.44 960.40 C 277.41 946.12 286.76 933.55 296.81 921.90 C 302.13 916.02 308.47 910.50 316.33 908.52 Z" />
    </g>
</svg>