<?xml version="1.0" encoding="UTF-8" ?>
<!DOCTYPE svg PUBLIC "-//W3C//DTD SVG 1.1//EN" "http://www.w3.org/Graphics/SVG/1.1/DTD/svg11.dtd">
<svg width="1000pt" height="1000pt" viewBox="0 0 1000 1000" version="1.1" xmlns="http://www.w3.org/2000/svg">
    <g id="#020202ff">
        <path fill="#020202" opacity="1.00"
            d=" M 504.73 32.67 C 510.38 25.31 520.37 24.40 528.95 24.16 C 539.39 24.20 550.19 23.95 560.10 27.76 C 568.93 30.77 576.65 36.28 583.46 42.55 C 589.67 48.47 594.23 55.82 599.35 62.64 C 603.31 67.99 608.33 72.50 611.86 78.18 C 616.71 85.99 620.12 94.77 621.26 103.93 C 621.69 107.12 622.31 110.70 620.44 113.56 C 618.16 116.57 614.80 118.49 612.21 121.18 C 610.23 123.76 608.88 126.77 606.82 129.30 C 604.19 150.23 594.16 169.30 582.87 186.79 C 579.08 193.27 573.63 198.53 569.50 204.77 C 591.21 214.00 608.41 233.92 612.83 257.27 C 614.83 266.19 615.03 275.65 619.16 283.97 C 622.51 290.77 626.32 297.39 628.69 304.63 C 631.76 314.04 633.03 323.92 633.70 333.77 C 634.57 342.35 635.16 351.22 638.86 359.16 C 640.17 362.58 642.76 365.38 643.87 368.90 C 641.33 372.62 636.21 372.81 632.25 373.95 C 641.36 388.69 647.31 405.20 650.97 422.10 C 654.07 433.56 655.50 445.44 659.29 456.72 C 663.43 468.04 668.86 478.88 672.56 490.38 C 675.53 499.07 674.49 509.01 670.00 517.00 C 667.87 520.70 664.49 524.31 660.00 524.71 C 656.77 525.03 653.94 523.23 651.21 521.81 C 648.62 522.61 645.83 524.23 643.11 523.02 C 639.39 521.27 636.43 518.30 633.33 515.67 C 630.59 513.06 627.47 510.52 626.04 506.91 C 624.95 504.66 627.39 503.02 629.10 502.09 C 632.35 500.79 635.68 502.75 638.67 503.93 C 634.86 499.73 631.82 494.88 629.06 489.95 C 625.54 483.00 626.25 474.84 627.57 467.42 C 628.92 460.42 628.01 453.26 626.75 446.33 C 624.82 436.12 617.89 428.00 612.52 419.44 C 602.81 403.31 593.92 386.23 590.12 367.65 C 583.76 363.04 577.68 357.66 570.24 354.87 C 567.56 354.39 563.55 352.93 561.88 355.91 C 559.02 359.97 557.64 364.85 555.09 369.10 C 551.97 374.45 549.89 380.71 550.83 386.96 C 551.58 394.05 555.42 400.71 554.36 407.98 C 553.48 413.09 550.08 417.24 547.34 421.48 C 552.95 427.14 557.80 433.70 560.93 441.06 C 563.63 447.63 560.55 454.44 559.75 461.03 C 560.10 464.80 562.69 467.92 563.62 471.56 C 565.39 478.02 563.81 485.26 559.73 490.54 C 564.61 497.86 566.77 506.53 568.35 515.07 C 569.76 522.59 570.03 530.35 568.87 537.93 C 568.22 542.79 567.22 548.01 569.45 552.64 C 576.69 568.67 576.80 586.89 574.22 604.01 C 572.69 614.27 569.43 624.16 565.97 633.91 C 564.72 637.15 565.42 640.65 565.49 644.02 C 565.69 651.67 566.43 659.31 566.23 666.97 C 566.03 675.68 562.71 683.89 561.72 692.49 C 560.58 704.31 559.36 716.13 558.60 727.99 C 557.51 750.24 554.40 772.38 549.64 794.15 C 546.18 812.46 538.74 829.69 530.10 846.10 C 524.92 855.82 520.01 865.69 515.93 875.92 C 512.79 883.75 509.12 891.35 506.25 899.29 C 505.45 901.83 504.26 904.65 505.60 907.24 C 508.66 914.75 516.23 918.90 520.37 925.68 C 524.98 933.26 528.51 942.04 527.63 951.08 C 527.15 955.32 526.48 960.11 523.02 963.05 C 518.49 966.89 512.53 968.41 506.83 969.52 C 495.70 971.24 484.36 970.53 473.21 969.35 C 463.28 968.21 452.90 965.67 445.41 958.64 C 439.99 952.10 439.26 943.10 440.52 935.01 C 441.57 928.66 442.99 922.32 445.23 916.29 C 446.48 912.74 449.63 909.99 449.90 906.11 C 450.80 899.67 450.85 893.08 452.61 886.79 C 456.87 870.64 462.66 854.76 464.00 838.00 C 465.52 819.17 467.50 800.25 472.78 782.04 C 476.49 768.09 480.98 754.30 487.28 741.28 C 488.54 738.54 490.18 735.93 490.99 733.01 C 491.52 730.06 491.24 727.05 491.22 724.08 C 490.92 714.30 491.89 704.54 492.81 694.82 C 493.73 684.81 492.20 674.77 489.91 665.04 C 486.73 651.83 483.96 638.53 480.92 625.29 C 477.15 624.09 473.44 622.71 469.89 620.97 C 470.44 633.48 469.71 646.02 468.75 658.50 C 468.08 664.48 468.35 670.89 465.16 676.24 C 463.37 679.13 463.51 682.63 463.42 685.90 C 463.35 696.82 464.29 707.99 461.43 718.65 C 458.01 729.40 451.26 739.86 440.73 744.74 C 427.38 751.19 410.30 747.48 400.40 736.61 C 398.46 733.96 396.47 731.35 394.11 729.05 C 383.72 717.31 378.81 701.93 375.65 686.85 C 372.78 673.41 371.89 659.51 373.47 645.84 C 374.28 641.78 371.77 638.05 372.12 634.00 C 372.64 621.93 375.67 610.11 376.04 598.03 C 376.14 590.63 374.55 583.36 374.04 576.00 C 373.31 565.33 372.27 554.38 375.11 543.92 C 368.91 547.20 363.08 541.86 359.34 537.39 C 360.11 544.18 361.10 551.30 359.07 557.95 C 358.40 560.80 354.82 562.29 352.43 560.47 C 349.63 558.21 348.56 554.54 347.62 551.22 C 343.49 535.48 343.23 519.00 344.36 502.86 C 344.83 495.21 347.07 487.74 346.86 480.04 C 347.09 471.61 344.94 463.41 342.81 455.33 C 340.38 446.33 338.70 437.15 336.94 428.00 C 334.80 416.47 334.32 404.72 332.36 393.16 C 331.37 387.02 331.00 380.81 331.06 374.60 C 324.74 374.26 318.20 374.73 312.10 372.77 C 308.01 371.56 304.75 367.36 305.77 362.99 C 307.37 355.32 313.00 349.41 316.56 342.65 C 319.62 333.58 320.91 324.02 323.84 314.91 C 330.17 292.17 340.84 271.00 350.59 249.60 C 353.60 243.07 355.62 235.92 360.19 230.23 C 364.91 224.35 371.71 220.78 378.18 217.17 C 386.50 212.51 395.45 209.13 404.05 205.06 C 416.16 199.60 427.48 192.61 439.04 186.12 C 451.96 179.66 465.67 174.14 480.17 172.73 C 483.14 167.29 486.22 161.73 487.02 155.48 C 482.84 153.45 478.83 150.77 476.23 146.84 C 470.73 138.49 468.70 128.36 468.56 118.49 C 466.67 119.90 464.82 122.51 462.15 121.67 C 461.15 119.74 462.48 117.77 462.92 115.88 C 466.98 103.30 464.10 89.97 464.73 77.06 C 464.96 68.73 471.81 63.14 476.12 56.71 C 473.73 58.08 471.50 59.78 468.91 60.74 C 467.48 61.28 466.00 59.42 466.88 58.17 C 470.81 49.38 479.19 43.89 487.16 39.11 C 492.51 35.78 498.62 33.99 504.73 32.67 M 578.99 103.62 C 578.53 106.58 580.25 111.18 576.60 112.59 C 567.83 116.26 557.02 116.17 548.74 111.23 C 549.57 115.02 551.16 118.57 552.54 122.18 C 553.28 123.79 551.56 125.13 550.07 125.14 C 547.63 124.90 545.63 123.36 543.57 122.20 C 541.54 125.56 539.55 128.99 536.85 131.86 C 531.47 137.56 524.83 141.83 519.12 147.16 C 516.25 149.73 513.06 151.93 509.71 153.81 C 508.26 149.57 507.84 145.09 507.04 140.71 C 506.17 135.96 502.66 131.38 497.76 130.44 C 494.14 129.76 491.53 133.29 490.65 136.38 C 489.08 142.44 490.17 149.16 493.49 154.47 C 495.39 157.55 498.31 159.90 499.80 163.26 C 496.38 162.18 493.42 160.12 490.95 157.56 C 490.09 163.19 489.33 169.15 486.07 173.97 C 482.23 179.19 477.71 183.94 474.43 189.55 C 474.02 193.98 475.85 198.32 477.74 202.26 C 483.23 213.19 490.06 223.60 498.92 232.11 C 501.71 234.86 505.17 236.88 508.96 237.89 C 516.96 240.71 525.93 237.38 531.96 231.87 C 537.47 226.72 539.19 218.84 538.67 211.56 C 534.82 209.87 530.88 208.19 527.70 205.39 C 520.73 199.34 514.94 192.10 508.92 185.15 C 520.05 192.66 529.69 202.95 542.71 207.25 C 548.78 209.53 555.36 207.59 560.94 204.87 C 566.25 202.28 569.30 196.94 573.12 192.69 C 566.55 190.48 558.44 189.40 554.36 183.10 C 555.04 182.80 556.42 182.20 557.10 181.90 C 556.08 180.92 554.98 179.96 554.37 178.66 C 555.00 178.65 556.25 178.63 556.87 178.61 C 564.15 180.28 571.15 182.96 578.28 185.15 C 580.21 181.89 582.15 178.63 584.05 175.35 C 580.74 176.39 577.49 177.81 574.01 178.11 C 570.95 175.96 570.25 171.90 569.10 168.59 C 572.56 168.60 575.54 170.38 578.30 172.27 C 581.48 171.11 584.69 170.04 587.92 169.02 C 587.96 161.35 588.43 153.68 588.41 146.00 C 588.46 144.23 588.28 141.94 590.04 140.87 C 593.17 141.22 596.15 142.33 599.16 143.23 C 600.44 138.51 601.74 133.78 602.53 128.94 C 603.16 125.58 602.06 122.23 602.02 118.86 C 593.39 115.53 584.19 111.76 578.99 103.62 M 591.88 154.26 C 591.89 156.37 591.89 158.48 591.91 160.60 C 592.85 158.65 593.78 156.70 594.70 154.75 C 594.00 154.63 592.58 154.38 591.88 154.26 M 441.93 189.83 C 431.36 195.56 421.26 202.18 410.38 207.35 C 396.00 214.54 380.40 219.71 367.52 229.57 C 360.84 234.71 358.73 243.21 355.49 250.57 C 345.82 272.54 334.90 294.08 327.82 317.09 C 325.50 323.92 324.12 331.02 321.76 337.84 C 332.68 328.57 338.28 315.08 346.92 303.97 C 348.14 302.72 349.50 300.43 351.61 301.43 C 350.89 305.19 348.23 308.12 346.49 311.43 C 342.53 318.67 338.43 325.88 333.36 332.41 C 328.82 338.15 322.69 342.45 318.49 348.47 C 315.61 352.88 312.55 357.25 310.46 362.11 C 309.73 364.12 308.71 367.49 311.36 368.53 C 315.74 370.07 320.48 369.48 325.03 369.52 C 344.60 369.02 363.59 374.61 382.17 380.08 C 388.68 369.55 393.17 357.94 399.00 347.04 C 406.95 331.96 415.33 316.65 427.86 304.81 C 430.49 302.51 432.99 298.84 436.97 299.47 C 434.45 303.06 431.25 306.07 428.40 309.39 C 422.70 316.05 417.92 323.43 413.19 330.80 C 419.92 327.25 427.41 325.44 434.97 324.89 C 445.35 324.09 455.75 323.21 465.95 321.07 C 471.79 319.97 477.45 317.81 483.44 317.70 C 482.54 319.30 481.56 321.05 479.65 321.57 C 473.92 323.79 467.91 325.19 461.99 326.79 C 448.91 330.15 435.12 328.46 422.08 331.94 C 416.95 333.53 411.41 335.52 408.07 339.97 C 401.45 350.75 396.54 362.46 390.67 373.65 C 388.76 376.92 387.15 380.61 384.10 383.00 C 381.28 384.89 377.71 383.64 374.59 383.53 C 374.47 397.62 374.42 411.75 375.70 425.80 C 377.48 443.79 381.15 461.56 386.07 478.95 C 387.62 484.70 390.61 489.96 394.47 494.47 C 398.19 498.83 400.74 504.05 402.23 509.57 C 407.55 511.24 412.65 513.62 418.15 514.71 C 427.63 516.83 437.50 516.26 446.98 514.47 C 458.91 512.26 469.41 505.88 480.59 501.52 C 496.38 494.81 513.44 491.79 530.45 490.28 C 538.78 489.25 547.51 490.42 555.50 487.33 C 559.35 486.11 559.26 481.31 559.85 478.03 C 560.69 472.43 556.45 468.03 555.14 462.92 C 554.68 455.85 559.99 449.00 557.07 441.96 C 554.14 435.39 550.03 429.39 545.57 423.77 C 536.06 435.71 522.62 443.50 509.07 450.05 C 497.68 455.45 486.57 461.93 474.10 464.56 C 470.08 465.39 466.07 466.44 461.97 466.63 C 461.74 466.21 461.30 465.38 461.08 464.96 C 466.93 461.88 473.68 461.28 479.79 458.85 C 491.05 454.61 501.48 448.53 512.26 443.23 C 527.13 435.73 541.34 425.17 548.95 409.96 C 551.48 403.71 547.94 397.29 547.00 391.09 C 545.21 383.24 546.84 374.89 550.86 367.98 C 554.75 361.38 556.95 354.00 559.92 346.99 C 564.50 335.92 569.56 325.05 573.58 313.76 C 574.83 310.86 575.48 307.18 578.71 305.76 C 578.08 311.42 575.85 316.70 574.05 322.05 C 571.16 330.59 567.74 338.94 564.27 347.26 C 571.81 337.73 581.09 329.42 591.94 323.86 C 595.51 322.12 599.58 320.00 603.55 321.92 C 589.18 328.13 576.35 337.78 566.37 349.85 C 579.27 350.15 587.86 361.16 598.95 366.09 C 604.79 369.16 611.41 370.61 618.00 370.21 C 624.93 369.86 631.88 369.30 638.66 367.78 C 635.55 362.53 632.94 356.91 631.69 350.91 C 628.99 338.20 629.50 325.03 626.42 312.38 C 624.63 303.59 620.38 295.61 616.20 287.78 C 609.19 275.10 610.83 259.88 605.34 246.68 C 600.89 236.27 594.25 226.71 585.60 219.35 C 580.00 214.40 573.28 211.03 567.01 207.06 C 559.93 212.05 550.91 214.82 542.32 212.65 C 542.90 218.60 542.25 224.88 538.93 229.99 C 530.16 244.63 506.81 247.33 495.05 234.90 C 485.92 225.66 478.60 214.70 473.12 202.95 C 471.20 198.57 469.38 193.91 469.49 189.07 C 470.89 184.47 474.57 181.08 477.41 177.34 C 464.93 179.37 453.23 184.35 441.93 189.83 M 594.65 370.20 C 599.65 387.16 607.79 402.98 616.92 418.05 C 622.57 426.42 629.15 434.75 631.11 444.92 C 632.64 453.09 633.39 461.53 631.94 469.78 C 631.06 476.26 630.12 483.44 633.51 489.40 C 636.51 494.73 639.81 499.93 643.93 504.49 C 644.95 501.33 645.06 497.43 648.19 495.49 C 648.64 500.34 647.88 505.40 645.75 509.81 C 645.09 511.52 642.70 512.46 641.24 511.15 C 637.63 508.44 633.85 504.67 628.89 505.74 C 632.63 509.82 637.08 513.15 641.46 516.53 C 643.12 517.63 645.09 519.62 647.16 518.13 C 653.45 514.84 655.11 507.17 659.18 501.84 C 659.66 501.95 660.63 502.16 661.11 502.27 C 661.40 508.33 657.77 513.85 654.93 519.00 C 657.60 519.86 660.95 520.69 662.96 518.08 C 669.22 510.77 670.73 499.84 667.45 490.88 C 663.84 480.34 659.19 470.20 655.02 459.89 C 651.09 449.66 649.79 438.71 647.16 428.12 C 644.53 416.80 642.04 405.37 637.51 394.62 C 634.64 387.84 631.86 381.02 628.76 374.34 C 622.17 374.97 615.52 376.03 608.92 375.00 C 603.87 374.44 599.20 372.33 594.65 370.20 M 334.84 375.03 C 335.02 380.76 335.34 386.50 336.32 392.16 C 338.11 401.68 338.82 411.37 340.61 420.90 C 343.06 434.09 345.91 447.22 349.46 460.16 C 351.71 468.22 352.13 476.70 351.11 484.99 C 350.64 490.40 348.43 495.49 348.18 500.93 C 347.33 514.68 347.42 528.60 349.90 542.19 C 351.02 547.49 351.87 553.05 354.98 557.63 C 357.47 546.84 354.33 535.83 354.57 524.95 C 359.28 531.11 363.49 538.56 371.29 541.20 C 370.43 533.74 364.20 528.18 363.53 520.75 L 364.84 520.65 C 368.11 524.29 370.13 528.88 373.48 532.47 C 377.35 536.50 381.90 539.94 387.02 542.22 C 385.06 532.63 376.95 526.07 373.14 517.36 C 373.56 517.17 374.39 516.81 374.81 516.62 C 379.73 521.66 383.81 527.47 387.85 533.22 C 390.68 536.97 394.69 539.72 399.07 541.38 C 398.04 532.68 392.50 525.52 389.49 517.48 C 389.30 516.19 387.12 513.01 390.03 513.40 C 394.08 517.13 396.01 522.53 398.69 527.23 C 398.84 522.05 399.38 516.77 398.15 511.67 C 396.85 505.83 393.82 500.53 389.87 496.08 C 385.08 490.71 382.50 483.86 380.77 476.97 C 377.98 466.03 375.29 455.03 373.64 443.85 C 370.24 423.52 369.91 402.79 370.91 382.23 C 359.12 378.84 347.05 376.28 334.84 375.03 M 535.96 495.28 C 517.82 496.84 499.46 499.35 482.52 506.38 C 471.23 510.74 460.60 517.13 448.54 519.28 C 433.45 522.32 417.10 521.76 403.15 514.74 C 403.05 520.30 402.96 526.08 400.65 531.26 C 401.85 535.11 404.49 540.01 401.65 543.69 C 397.99 546.54 393.65 542.76 390.70 540.56 C 390.35 542.38 390.30 544.84 388.11 545.44 C 385.10 545.90 382.57 543.82 380.06 542.53 C 377.00 552.43 377.74 562.92 378.54 573.10 C 379.04 582.11 381.33 590.98 380.86 600.05 C 380.31 610.76 378.05 621.30 377.10 631.97 C 377.13 634.73 376.41 638.10 378.65 640.24 C 381.00 642.81 383.79 644.92 386.27 647.37 C 388.72 636.48 392.29 625.87 394.44 614.92 C 395.44 610.36 394.83 605.42 397.00 601.16 C 398.73 607.99 397.52 615.18 396.59 622.06 C 393.34 637.57 387.60 652.47 384.64 668.05 C 384.82 673.72 388.78 678.54 392.80 682.22 C 399.31 688.26 408.51 689.79 417.05 690.42 C 430.26 691.05 444.21 688.18 454.72 679.75 C 457.68 677.20 461.76 674.78 462.18 670.51 C 464.49 653.10 464.88 635.51 465.70 617.99 C 461.91 615.20 457.90 611.91 456.95 607.03 C 454.65 598.81 457.31 590.28 461.40 583.12 C 460.13 575.21 453.47 570.14 448.12 564.89 C 444.86 561.53 440.55 558.84 438.90 554.26 C 443.68 556.86 447.33 561.03 451.51 564.45 C 456.17 568.88 461.85 572.93 463.84 579.36 C 466.69 574.80 469.58 570.15 473.43 566.34 C 474.51 565.04 476.29 564.97 477.81 564.58 C 471.26 575.00 463.07 584.89 460.26 597.19 C 469.65 594.36 479.35 598.20 487.87 602.04 C 499.91 607.50 510.83 614.98 522.14 621.74 C 533.94 628.67 546.27 636.46 560.49 636.20 C 561.56 630.21 565.71 624.39 563.66 618.17 C 561.80 611.92 558.70 606.12 555.54 600.45 C 547.56 586.32 535.86 574.86 524.42 563.55 C 520.83 559.84 516.50 556.84 513.42 552.65 C 517.54 553.59 520.68 556.54 523.83 559.16 C 532.58 566.71 540.67 575.01 548.52 583.48 C 556.78 592.47 562.86 603.32 566.98 614.77 C 571.71 594.61 573.15 572.27 563.92 553.13 C 561.58 548.00 562.76 542.27 563.50 536.93 C 564.40 531.32 564.47 525.60 563.89 519.96 C 562.76 510.45 560.90 500.84 556.42 492.28 C 549.85 494.60 542.86 495.04 535.96 495.28 M 459.68 601.76 C 460.21 604.91 460.91 608.35 463.36 610.63 C 468.21 615.04 473.77 618.76 479.97 621.01 C 478.93 614.83 477.09 608.76 477.08 602.46 C 471.49 600.94 465.13 598.60 459.68 601.76 M 480.30 603.68 C 484.06 620.52 488.44 637.21 492.19 654.06 C 495.59 667.68 499.01 681.61 497.72 695.76 C 496.62 706.42 496.04 717.13 496.20 727.84 C 503.80 725.00 512.12 724.87 520.02 726.37 C 531.76 728.59 543.42 733.15 552.36 741.26 C 553.25 724.19 554.58 707.15 556.57 690.17 C 557.82 681.71 561.08 673.61 561.38 665.00 C 561.63 656.86 561.32 648.70 561.86 640.57 C 550.10 641.39 538.97 636.78 528.95 631.11 C 512.47 622.41 497.50 611.01 480.30 603.68 M 377.76 646.10 C 376.83 655.27 376.75 664.55 377.77 673.72 C 380.01 691.73 384.51 709.97 394.99 725.08 C 392.25 712.38 390.33 699.37 390.89 686.34 C 386.54 681.83 381.79 677.08 380.22 670.81 C 378.93 665.00 381.28 659.29 382.47 653.69 C 383.51 650.21 379.73 648.28 377.76 646.10 M 438.82 693.58 C 424.50 697.14 408.48 696.93 395.29 689.74 C 395.75 702.80 397.00 716.05 401.33 728.46 C 403.28 735.05 409.65 738.54 415.09 741.93 C 425.81 746.27 439.24 743.80 447.21 735.22 C 452.59 729.38 456.36 722.00 457.99 714.22 C 459.84 704.05 459.07 693.64 458.93 683.37 C 452.99 688.05 446.24 691.87 438.82 693.58 M 496.42 733.37 C 484.66 756.10 477.06 780.83 472.58 805.99 C 469.36 823.40 469.62 841.29 465.36 858.53 C 461.62 873.94 455.65 888.83 453.72 904.66 C 458.64 899.70 464.71 896.20 470.62 892.57 C 476.70 888.66 483.80 886.26 491.02 885.81 C 496.86 886.05 500.13 891.48 502.23 896.26 C 508.75 879.95 514.69 863.33 523.06 847.85 C 531.19 832.86 538.76 817.36 542.79 800.71 C 546.79 782.44 550.21 764.02 551.87 745.38 C 540.87 736.59 526.95 732.05 513.04 730.92 C 507.46 730.69 501.40 730.42 496.42 733.37 M 474.98 896.00 C 466.67 900.69 458.31 905.77 452.17 913.23 C 449.46 916.74 448.58 921.21 447.45 925.40 C 445.85 932.13 443.99 939.03 444.82 946.01 C 445.39 951.01 447.89 956.20 452.61 958.47 C 458.95 961.51 465.98 962.70 472.89 963.71 C 483.95 965.03 495.21 965.71 506.29 964.25 C 511.54 963.25 517.40 962.23 521.31 958.29 C 523.73 953.99 523.33 948.70 522.67 943.99 C 520.43 933.52 514.42 923.57 505.26 917.79 C 501.97 915.60 497.77 915.57 494.20 917.07 C 478.02 923.00 466.38 936.34 452.47 945.85 C 453.03 941.15 456.57 937.88 459.77 934.79 C 465.49 929.47 471.15 924.02 477.55 919.53 C 484.55 914.86 492.31 910.68 500.92 910.41 C 500.06 903.54 498.29 895.88 492.48 891.50 C 486.43 890.43 480.28 893.25 474.98 896.00 Z" />
        <path fill="#020202" opacity="1.00"
            d=" M 544.00 139.38 C 545.38 136.06 546.67 132.69 547.92 129.32 C 558.12 132.67 568.72 135.06 578.53 139.45 C 579.06 143.01 576.62 146.24 575.74 149.59 C 565.17 146.16 554.57 142.81 544.00 139.38 Z" />
        <path fill="#020202" opacity="1.00"
            d=" M 531.49 347.36 C 532.24 347.15 533.74 346.73 534.49 346.52 C 533.70 349.90 530.89 352.21 528.86 354.86 C 522.28 362.91 515.18 370.67 506.58 376.62 C 496.71 383.39 486.26 389.37 475.35 394.29 C 462.52 399.92 448.80 403.12 435.08 405.70 C 425.85 407.46 416.37 408.07 407.02 407.01 C 404.34 406.65 401.52 406.27 399.20 404.78 C 398.04 404.52 397.01 401.09 399.03 401.90 C 411.11 404.45 423.62 402.92 435.58 400.41 C 451.76 396.85 468.00 392.55 482.72 384.75 C 495.26 378.12 507.78 370.96 517.96 360.91 C 522.70 356.62 526.76 351.65 531.49 347.36 Z" />
        <path fill="#020202" opacity="1.00"
            d=" M 541.27 455.26 C 543.22 454.06 545.44 453.44 547.73 453.41 C 546.55 455.94 544.37 457.70 542.02 459.08 C 533.13 464.53 524.67 470.72 515.24 475.25 C 521.72 474.68 528.23 474.20 534.55 472.62 C 533.82 474.08 533.63 476.15 531.91 476.86 C 526.07 479.71 519.36 479.82 512.99 480.17 C 510.18 480.02 506.54 480.58 504.63 478.00 C 503.99 474.86 507.88 474.20 509.91 472.89 C 520.99 468.17 530.80 461.11 541.27 455.26 Z" />
    </g>
    <g id="#f0b58bff">
        <path fill="#f0b58b" opacity="1.00"
            d=" M 578.99 103.62 C 584.19 111.76 593.39 115.53 602.02 118.86 C 602.06 122.23 603.16 125.58 602.53 128.94 C 601.74 133.78 600.44 138.51 599.16 143.23 C 596.15 142.33 593.17 141.22 590.04 140.87 C 588.28 141.94 588.46 144.23 588.41 146.00 C 588.43 153.68 587.96 161.35 587.92 169.02 C 584.69 170.04 581.48 171.11 578.30 172.27 C 575.54 170.38 572.56 168.60 569.10 168.59 C 570.25 171.90 570.95 175.96 574.01 178.11 C 577.49 177.81 580.74 176.39 584.05 175.35 C 582.15 178.63 580.21 181.89 578.28 185.15 C 571.15 182.96 564.15 180.28 556.87 178.61 C 556.25 178.63 555.00 178.65 554.37 178.66 C 554.98 179.96 556.08 180.92 557.10 181.90 C 556.42 182.20 555.04 182.80 554.36 183.10 C 558.44 189.40 566.55 190.48 573.12 192.69 C 569.30 196.94 566.25 202.28 560.94 204.87 C 555.36 207.59 548.78 209.53 542.71 207.25 C 529.69 202.95 520.05 192.66 508.92 185.15 C 514.94 192.10 520.73 199.34 527.70 205.39 C 530.88 208.19 534.82 209.87 538.67 211.56 C 539.19 218.84 537.47 226.72 531.96 231.87 C 525.93 237.38 516.96 240.71 508.96 237.89 C 505.17 236.88 501.71 234.86 498.92 232.11 C 490.06 223.60 483.23 213.19 477.74 202.26 C 475.85 198.32 474.02 193.98 474.43 189.55 C 477.71 183.94 482.23 179.19 486.07 173.97 C 489.33 169.15 490.09 163.19 490.95 157.56 C 493.42 160.12 496.38 162.18 499.80 163.26 C 498.31 159.90 495.39 157.55 493.49 154.47 C 490.17 149.16 489.08 142.44 490.65 136.38 C 491.53 133.29 494.14 129.76 497.76 130.44 C 502.66 131.38 506.17 135.96 507.04 140.71 C 507.84 145.09 508.26 149.57 509.71 153.81 C 513.06 151.93 516.25 149.73 519.12 147.16 C 524.83 141.83 531.47 137.56 536.85 131.86 C 539.55 128.99 541.54 125.56 543.57 122.20 C 545.63 123.36 547.63 124.90 550.07 125.14 C 551.56 125.13 553.28 123.79 552.54 122.18 C 551.16 118.57 549.57 115.02 548.74 111.23 C 557.02 116.17 567.83 116.26 576.60 112.59 C 580.25 111.18 578.53 106.58 578.99 103.62 M 544.00 139.38 C 554.57 142.81 565.17 146.16 575.74 149.59 C 576.62 146.24 579.06 143.01 578.53 139.45 C 568.72 135.06 558.12 132.67 547.92 129.32 C 546.67 132.69 545.38 136.06 544.00 139.38 Z" />
        <path fill="#f0b58b" opacity="1.00"
            d=" M 591.88 154.26 C 592.58 154.38 594.00 154.63 594.70 154.75 C 593.78 156.70 592.85 158.65 591.91 160.60 C 591.89 158.48 591.89 156.37 591.88 154.26 Z" />
        <path fill="#f0b58b" opacity="1.00"
            d=" M 594.65 370.20 C 599.20 372.33 603.87 374.44 608.92 375.00 C 615.52 376.03 622.17 374.97 628.76 374.34 C 631.86 381.02 634.64 387.84 637.51 394.62 C 642.04 405.37 644.53 416.80 647.16 428.12 C 649.79 438.71 651.09 449.66 655.02 459.89 C 659.19 470.20 663.84 480.34 667.45 490.88 C 670.73 499.84 669.22 510.77 662.96 518.08 C 660.95 520.69 657.60 519.86 654.93 519.00 C 657.77 513.85 661.40 508.33 661.11 502.27 C 660.63 502.16 659.66 501.95 659.18 501.84 C 655.11 507.17 653.45 514.84 647.16 518.13 C 645.09 519.62 643.12 517.63 641.46 516.53 C 637.08 513.15 632.63 509.82 628.89 505.74 C 633.85 504.67 637.63 508.44 641.24 511.15 C 642.70 512.46 645.09 511.52 645.75 509.81 C 647.88 505.40 648.64 500.34 648.19 495.49 C 645.06 497.43 644.95 501.33 643.93 504.49 C 639.81 499.93 636.51 494.73 633.51 489.40 C 630.12 483.44 631.06 476.26 631.94 469.78 C 633.39 461.53 632.64 453.09 631.11 444.92 C 629.15 434.75 622.57 426.42 616.92 418.05 C 607.79 402.98 599.65 387.16 594.65 370.20 Z" />
        <path fill="#f0b58b" opacity="1.00"
            d=" M 334.84 375.03 C 347.05 376.28 359.12 378.84 370.91 382.23 C 369.91 402.79 370.24 423.52 373.64 443.85 C 375.29 455.03 377.98 466.03 380.77 476.97 C 382.50 483.86 385.08 490.71 389.87 496.08 C 393.82 500.53 396.85 505.83 398.15 511.67 C 399.38 516.77 398.84 522.05 398.69 527.23 C 396.01 522.53 394.08 517.13 390.03 513.40 C 387.12 513.01 389.30 516.19 389.49 517.48 C 392.50 525.52 398.04 532.68 399.07 541.38 C 394.69 539.72 390.68 536.97 387.85 533.22 C 383.81 527.47 379.73 521.66 374.81 516.62 C 374.39 516.81 373.56 517.17 373.14 517.36 C 376.95 526.07 385.06 532.63 387.02 542.22 C 381.90 539.94 377.35 536.50 373.48 532.47 C 370.13 528.88 368.11 524.29 364.84 520.65 L 363.53 520.75 C 364.20 528.18 370.43 533.74 371.29 541.20 C 363.49 538.56 359.28 531.11 354.57 524.95 C 354.33 535.83 357.47 546.84 354.98 557.63 C 351.87 553.05 351.02 547.49 349.90 542.19 C 347.42 528.60 347.33 514.68 348.18 500.93 C 348.43 495.49 350.64 490.40 351.11 484.99 C 352.13 476.70 351.71 468.22 349.46 460.16 C 345.91 447.22 343.06 434.09 340.61 420.90 C 338.82 411.37 338.11 401.68 336.32 392.16 C 335.34 386.50 335.02 380.76 334.84 375.03 Z" />
        <path fill="#f0b58b" opacity="1.00"
            d=" M 480.30 603.68 C 497.50 611.01 512.47 622.41 528.95 631.11 C 538.97 636.78 550.10 641.39 561.86 640.57 C 561.32 648.70 561.63 656.86 561.38 665.00 C 561.08 673.61 557.82 681.71 556.57 690.17 C 554.58 707.15 553.25 724.19 552.36 741.26 C 543.42 733.15 531.76 728.59 520.02 726.37 C 512.12 724.87 503.80 725.00 496.20 727.84 C 496.04 717.13 496.62 706.42 497.72 695.76 C 499.01 681.61 495.59 667.68 492.19 654.06 C 488.44 637.21 484.06 620.52 480.30 603.68 Z" />
        <path fill="#f0b58b" opacity="1.00"
            d=" M 438.82 693.58 C 446.24 691.87 452.99 688.05 458.93 683.37 C 459.07 693.64 459.84 704.05 457.99 714.22 C 456.36 722.00 452.59 729.38 447.21 735.22 C 439.24 743.80 425.81 746.27 415.09 741.93 C 409.65 738.54 403.28 735.05 401.33 728.46 C 397.00 716.05 395.75 702.80 395.29 689.74 C 408.48 696.93 424.50 697.14 438.82 693.58 Z" />
    </g>
    <g id="#f11b27ff">
        <path fill="var(--shirt-color, grey)" opacity="1.00"
            d=" M 441.93 189.83 C 453.23 184.35 464.93 179.37 477.41 177.34 C 474.57 181.08 470.89 184.47 469.49 189.07 C 469.38 193.91 471.20 198.57 473.12 202.95 C 478.60 214.70 485.92 225.66 495.05 234.90 C 506.81 247.33 530.16 244.63 538.93 229.99 C 542.25 224.88 542.90 218.60 542.32 212.65 C 550.91 214.82 559.93 212.05 567.01 207.06 C 573.28 211.03 580.00 214.40 585.60 219.35 C 594.25 226.71 600.89 236.27 605.34 246.68 C 610.83 259.88 609.19 275.10 616.20 287.78 C 620.38 295.61 624.63 303.59 626.42 312.38 C 629.50 325.03 628.99 338.20 631.69 350.91 C 632.94 356.91 635.55 362.53 638.66 367.78 C 631.88 369.30 624.93 369.86 618.00 370.21 C 611.41 370.61 604.79 369.16 598.95 366.09 C 587.86 361.16 579.27 350.15 566.37 349.85 C 576.35 337.78 589.18 328.13 603.55 321.92 C 599.58 320.00 595.51 322.12 591.94 323.86 C 581.09 329.42 571.81 337.73 564.27 347.26 C 567.74 338.94 571.16 330.59 574.05 322.05 C 575.85 316.70 578.08 311.42 578.71 305.76 C 575.48 307.18 574.83 310.86 573.58 313.76 C 569.56 325.05 564.50 335.92 559.92 346.99 C 556.95 354.00 554.75 361.38 550.86 367.98 C 546.84 374.89 545.21 383.24 547.00 391.09 C 547.94 397.29 551.48 403.71 548.95 409.96 C 541.34 425.17 527.13 435.73 512.26 443.23 C 501.48 448.53 491.05 454.61 479.79 458.85 C 473.68 461.28 466.93 461.88 461.08 464.96 C 461.30 465.38 461.74 466.21 461.97 466.63 C 466.07 466.44 470.08 465.39 474.10 464.56 C 486.57 461.93 497.68 455.45 509.07 450.05 C 522.62 443.50 536.06 435.71 545.57 423.77 C 550.03 429.39 554.14 435.39 557.07 441.96 C 559.99 449.00 554.68 455.85 555.14 462.92 C 556.45 468.03 560.69 472.43 559.85 478.03 C 559.26 481.31 559.35 486.11 555.50 487.33 C 547.51 490.42 538.78 489.25 530.45 490.28 C 513.44 491.79 496.38 494.81 480.59 501.52 C 469.41 505.88 458.91 512.26 446.98 514.47 C 437.50 516.26 427.63 516.83 418.15 514.71 C 412.65 513.62 407.55 511.24 402.23 509.57 C 400.74 504.05 398.19 498.83 394.47 494.47 C 390.61 489.96 387.62 484.70 386.07 478.95 C 381.15 461.56 377.48 443.79 375.70 425.80 C 374.42 411.75 374.47 397.62 374.59 383.53 C 377.71 383.64 381.28 384.89 384.10 383.00 C 387.15 380.61 388.76 376.92 390.67 373.65 C 396.54 362.46 401.45 350.75 408.07 339.97 C 411.41 335.52 416.95 333.53 422.08 331.94 C 435.12 328.46 448.91 330.15 461.99 326.79 C 467.91 325.19 473.92 323.79 479.65 321.57 C 481.56 321.05 482.54 319.30 483.44 317.70 C 477.45 317.81 471.79 319.97 465.95 321.07 C 455.75 323.21 445.35 324.09 434.97 324.89 C 427.41 325.44 419.92 327.25 413.19 330.80 C 417.92 323.43 422.70 316.05 428.40 309.39 C 431.25 306.07 434.45 303.06 436.97 299.47 C 432.99 298.84 430.49 302.51 427.86 304.81 C 415.33 316.65 406.95 331.96 399.00 347.04 C 393.17 357.94 388.68 369.55 382.17 380.08 C 363.59 374.61 344.60 369.02 325.03 369.52 C 320.48 369.48 315.74 370.07 311.36 368.53 C 308.71 367.49 309.73 364.12 310.46 362.11 C 312.55 357.25 315.61 352.88 318.49 348.47 C 322.69 342.45 328.82 338.15 333.36 332.41 C 338.43 325.88 342.53 318.67 346.49 311.43 C 348.23 308.12 350.89 305.19 351.61 301.43 C 349.50 300.43 348.14 302.72 346.92 303.97 C 338.28 315.08 332.68 328.57 321.76 337.84 C 324.12 331.02 325.50 323.92 327.82 317.09 C 334.90 294.08 345.82 272.54 355.49 250.57 C 358.73 243.21 360.84 234.71 367.52 229.57 C 380.40 219.71 396.00 214.54 410.38 207.35 C 421.26 202.18 431.36 195.56 441.93 189.83 M 531.49 347.36 C 526.76 351.65 522.70 356.62 517.96 360.91 C 507.78 370.96 495.26 378.12 482.72 384.75 C 468.00 392.55 451.76 396.85 435.58 400.41 C 423.62 402.92 411.11 404.45 399.03 401.90 C 397.01 401.09 398.04 404.52 399.20 404.78 C 401.52 406.27 404.34 406.65 407.02 407.01 C 416.37 408.07 425.85 407.46 435.08 405.70 C 448.80 403.12 462.52 399.92 475.35 394.29 C 486.26 389.37 496.71 383.39 506.58 376.62 C 515.18 370.67 522.28 362.91 528.86 354.86 C 530.89 352.21 533.70 349.90 534.49 346.52 C 533.74 346.73 532.24 347.15 531.49 347.36 M 541.27 455.26 C 530.80 461.11 520.99 468.17 509.91 472.89 C 507.88 474.20 503.99 474.86 504.63 478.00 C 506.54 480.58 510.18 480.02 512.99 480.17 C 519.36 479.82 526.07 479.71 531.91 476.86 C 533.63 476.15 533.82 474.08 534.55 472.62 C 528.23 474.20 521.72 474.68 515.24 475.25 C 524.67 470.72 533.13 464.53 542.02 459.08 C 544.37 457.70 546.55 455.94 547.73 453.41 C 545.44 453.44 543.22 454.06 541.27 455.26 Z" />
    </g>
    <g id="#ffffffff">
        <path fill="var(--pants-color, grey)" opacity="1.00"
            d=" M 535.96 495.28 C 542.86 495.04 549.85 494.60 556.42 492.28 C 560.90 500.84 562.76 510.45 563.89 519.96 C 564.47 525.60 564.40 531.32 563.50 536.93 C 562.76 542.27 561.58 548.00 563.92 553.13 C 573.15 572.27 571.71 594.61 566.98 614.77 C 562.86 603.32 556.78 592.47 548.52 583.48 C 540.67 575.01 532.58 566.71 523.83 559.16 C 520.68 556.54 517.54 553.59 513.42 552.65 C 516.50 556.84 520.83 559.84 524.42 563.55 C 535.86 574.86 547.56 586.32 555.54 600.45 C 558.70 606.12 561.80 611.92 563.66 618.17 C 565.71 624.39 561.56 630.21 560.49 636.20 C 546.27 636.46 533.94 628.67 522.14 621.74 C 510.83 614.98 499.91 607.50 487.87 602.04 C 479.35 598.20 469.65 594.36 460.26 597.19 C 463.07 584.89 471.26 575.00 477.81 564.58 C 476.29 564.97 474.51 565.04 473.43 566.34 C 469.58 570.15 466.69 574.80 463.84 579.36 C 461.85 572.93 456.17 568.88 451.51 564.45 C 447.33 561.03 443.68 556.86 438.90 554.26 C 440.55 558.84 444.86 561.53 448.12 564.89 C 453.47 570.14 460.13 575.21 461.40 583.12 C 457.31 590.28 454.65 598.81 456.95 607.03 C 457.90 611.91 461.91 615.20 465.70 617.99 C 464.88 635.51 464.49 653.10 462.18 670.51 C 461.76 674.78 457.68 677.20 454.72 679.75 C 444.21 688.18 430.26 691.05 417.05 690.42 C 408.51 689.79 399.31 688.26 392.80 682.22 C 388.78 678.54 384.82 673.72 384.64 668.05 C 387.60 652.47 393.34 637.57 396.59 622.06 C 397.52 615.18 398.73 607.99 397.00 601.16 C 394.83 605.42 395.44 610.36 394.44 614.92 C 392.29 625.87 388.72 636.48 386.27 647.37 C 383.79 644.92 381.00 642.81 378.65 640.24 C 376.41 638.10 377.13 634.73 377.10 631.97 C 378.05 621.30 380.31 610.76 380.86 600.05 C 381.33 590.98 379.04 582.11 378.54 573.10 C 377.74 562.92 377.00 552.43 380.06 542.53 C 382.57 543.82 385.10 545.90 388.11 545.44 C 390.30 544.84 390.35 542.38 390.70 540.56 C 393.65 542.76 397.99 546.54 401.65 543.69 C 404.49 540.01 401.85 535.11 400.65 531.26 C 402.96 526.08 403.05 520.30 403.15 514.74 C 417.10 521.76 433.45 522.32 448.54 519.28 C 460.60 517.13 471.23 510.74 482.52 506.38 C 499.46 499.35 517.82 496.84 535.96 495.28 Z" />
        <path fill="var(--pants-color, grey)" opacity="1.00"
            d=" M 459.68 601.76 C 465.13 598.60 471.49 600.94 477.08 602.46 C 477.09 608.76 478.93 614.83 479.97 621.01 C 473.77 618.76 468.21 615.04 463.36 610.63 C 460.91 608.35 460.21 604.91 459.68 601.76 Z" />
        <path fill="var(--socks-color, grey)" opacity="1.00"
            d=" M 377.76 646.10 C 379.73 648.28 383.51 650.21 382.47 653.69 C 381.28 659.29 378.93 665.00 380.22 670.81 C 381.79 677.08 386.54 681.83 390.89 686.34 C 390.33 699.37 392.25 712.38 394.99 725.08 C 384.51 709.97 380.01 691.73 377.77 673.72 C 376.75 664.55 376.83 655.27 377.76 646.10 Z" />
        <path fill="var(--socks-color, grey)" opacity="1.00"
            d=" M 496.42 733.37 C 501.40 730.42 507.46 730.69 513.04 730.92 C 526.95 732.05 540.87 736.59 551.87 745.38 C 550.21 764.02 546.79 782.44 542.79 800.71 C 538.76 817.36 531.19 832.86 523.06 847.85 C 514.69 863.33 508.75 879.95 502.23 896.26 C 500.13 891.48 496.86 886.05 491.02 885.81 C 483.80 886.26 476.70 888.66 470.62 892.57 C 464.71 896.20 458.64 899.70 453.72 904.66 C 455.65 888.83 461.62 873.94 465.36 858.53 C 469.62 841.29 469.36 823.40 472.58 805.99 C 477.06 780.83 484.66 756.10 496.42 733.37 Z" />
    </g>
    <g id="#4d4d4dff">
        <path fill="#4d4d4d" opacity="1.00"
            d=" M 474.98 896.00 C 480.28 893.25 486.43 890.43 492.48 891.50 C 498.29 895.88 500.06 903.54 500.92 910.41 C 492.31 910.68 484.55 914.86 477.55 919.53 C 471.15 924.02 465.49 929.47 459.77 934.79 C 456.57 937.88 453.03 941.15 452.47 945.85 C 466.38 936.34 478.02 923.00 494.20 917.07 C 497.77 915.57 501.97 915.60 505.26 917.79 C 514.42 923.57 520.43 933.52 522.67 943.99 C 523.33 948.70 523.73 953.99 521.31 958.29 C 517.40 962.23 511.54 963.25 506.29 964.25 C 495.21 965.71 483.95 965.03 472.89 963.71 C 465.98 962.70 458.95 961.51 452.61 958.47 C 447.89 956.20 445.39 951.01 444.82 946.01 C 443.99 939.03 445.85 932.13 447.45 925.40 C 448.58 921.21 449.46 916.74 452.17 913.23 C 458.31 905.77 466.67 900.69 474.98 896.00 Z" />
    </g>
</svg>