<?xml version="1.0" encoding="UTF-8" ?>
<!DOCTYPE svg PUBLIC "-//W3C//DTD SVG 1.1//EN" "http://www.w3.org/Graphics/SVG/1.1/DTD/svg11.dtd">
<svg width="1000pt" height="1000pt" viewBox="0 0 1000 1000" version="1.1" xmlns="http://www.w3.org/2000/svg">
    <g id="#020202ff">
        <path fill="#020202" opacity="1.00"
            d=" M 473.67 31.65 C 487.06 20.69 504.02 15.12 520.94 12.59 C 529.76 11.64 539.42 11.72 547.16 16.65 C 549.66 16.31 552.36 16.15 554.46 14.55 C 556.12 13.47 558.61 11.50 560.27 13.73 C 561.42 16.02 560.65 18.74 560.77 21.21 C 565.47 22.17 570.38 22.30 574.89 24.09 C 580.39 26.25 585.20 29.75 590.23 32.79 C 593.34 34.85 596.90 36.81 598.61 40.29 C 600.07 43.50 596.29 46.79 598.12 49.89 C 600.09 53.47 602.81 56.56 604.82 60.12 C 612.22 72.42 615.40 87.84 610.91 101.74 C 607.17 113.07 596.16 120.05 591.90 131.13 C 589.87 140.28 590.84 149.92 587.99 158.93 C 586.03 164.97 583.51 170.85 580.36 176.37 C 582.48 178.79 584.43 182.17 588.00 182.48 C 595.14 182.67 601.87 179.21 609.03 179.54 C 614.18 179.75 617.35 184.48 621.94 186.19 C 629.73 190.04 638.78 189.04 646.80 192.11 C 652.29 194.08 657.97 196.41 661.88 200.92 C 665.71 198.24 670.11 195.68 674.99 196.44 C 680.38 196.61 685.22 199.81 687.67 204.58 C 690.78 205.47 694.04 206.34 696.56 208.49 C 700.64 211.56 701.54 217.26 706.08 219.91 C 723.77 239.21 744.21 256.54 757.49 279.45 C 763.79 291.42 767.01 306.05 762.42 319.15 C 760.51 324.96 757.51 330.95 751.99 334.07 C 748.81 336.14 745.03 336.71 741.42 337.53 C 738.71 338.64 736.43 340.58 733.75 341.73 C 729.84 342.34 725.88 342.66 721.94 342.37 C 709.80 339.25 699.60 330.82 687.09 328.80 C 676.80 326.80 666.47 331.06 658.19 336.92 C 658.18 344.16 654.37 350.45 650.12 356.01 C 645.70 361.52 644.39 368.58 642.37 375.17 C 639.47 385.05 637.92 395.26 636.71 405.47 C 633.16 428.49 635.44 451.96 631.64 474.96 C 631.18 480.44 629.10 486.08 630.63 491.54 C 633.03 497.39 637.00 502.45 639.75 508.12 C 641.60 514.19 637.86 519.96 634.37 524.61 C 635.45 531.81 633.73 538.99 632.80 546.11 C 630.51 563.65 625.47 580.67 620.41 597.57 C 617.95 606.32 614.62 614.93 613.75 624.04 C 613.43 630.31 613.29 636.62 613.89 642.89 C 614.55 649.09 613.22 655.34 611.08 661.14 C 609.20 666.05 604.06 669.02 598.98 669.40 C 591.68 670.02 584.66 667.24 578.35 663.88 C 570.34 679.18 563.44 695.25 559.70 712.16 C 557.51 721.19 563.40 728.96 567.79 736.20 C 571.04 742.67 575.48 748.65 577.04 755.84 C 580.02 766.81 576.88 778.13 573.74 788.68 C 570.98 798.43 567.37 807.91 564.42 817.60 C 559.24 835.57 558.89 854.47 559.74 873.02 C 560.29 882.84 559.61 892.89 562.38 902.44 C 564.38 911.52 563.77 920.87 564.58 930.09 C 565.46 940.71 565.32 951.43 567.08 961.98 C 567.94 967.91 568.29 975.12 563.45 979.53 C 558.05 985.57 549.69 987.15 542.04 988.13 C 531.37 989.20 520.65 987.87 509.95 988.19 C 504.66 988.30 498.56 988.62 494.48 984.61 C 490.23 981.10 489.06 975.27 489.56 970.02 C 490.85 954.56 495.47 939.59 501.06 925.20 C 503.97 916.71 507.01 908.13 507.73 899.12 C 509.67 882.32 507.42 865.34 503.36 849.02 C 501.50 841.27 499.55 833.54 497.96 825.74 C 495.06 826.66 491.65 826.97 489.26 824.73 C 483.82 820.27 481.33 813.36 479.34 806.85 C 475.57 793.81 473.82 780.12 474.80 766.57 C 469.33 764.89 463.95 762.95 458.46 761.37 C 453.82 759.95 448.87 761.02 444.20 759.79 C 431.69 757.00 421.44 747.93 414.78 737.27 C 407.45 725.76 403.94 712.21 403.05 698.69 C 399.87 696.84 395.36 695.31 395.01 691.03 C 394.70 684.20 397.76 677.82 399.19 671.26 C 402.91 658.82 401.57 645.73 402.35 632.96 C 402.77 622.36 404.21 611.54 408.98 601.94 C 412.95 593.96 418.18 586.53 420.65 577.88 C 423.29 570.27 421.93 561.84 425.38 554.44 C 427.73 547.25 432.96 541.07 433.57 533.36 C 434.80 528.75 439.58 525.45 438.83 520.25 C 433.27 520.25 427.61 520.79 422.14 519.59 C 415.84 517.80 409.33 513.41 408.42 506.42 C 406.55 493.60 408.80 480.43 413.12 468.32 C 416.01 459.83 417.84 450.94 418.28 441.99 C 418.94 426.92 414.13 412.17 415.61 397.10 C 416.59 385.24 421.90 374.42 425.27 363.16 C 427.08 357.60 428.73 351.83 428.09 345.92 C 418.24 348.07 410.34 354.78 400.91 357.98 C 396.16 359.63 391.11 358.61 386.32 357.77 C 380.41 356.64 374.26 357.08 368.51 355.11 C 364.79 359.19 361.17 363.44 356.56 366.57 C 344.86 374.87 333.48 383.65 321.35 391.33 C 311.86 397.43 302.35 403.55 293.51 410.59 C 286.67 416.02 279.23 420.80 273.21 427.20 C 266.86 433.81 263.35 442.88 262.93 451.98 C 262.66 457.05 262.66 462.46 259.84 466.91 C 255.46 474.09 247.45 477.84 239.97 480.97 C 235.94 482.71 231.60 481.10 227.92 479.27 C 225.55 481.19 224.02 483.83 222.12 486.16 C 219.78 488.48 216.26 487.15 213.52 486.51 C 211.86 488.46 209.12 489.61 206.69 488.29 C 203.09 486.12 200.26 482.90 197.53 479.75 C 194.96 481.42 190.91 482.00 189.40 478.65 C 186.63 471.68 188.01 463.78 189.74 456.70 C 192.72 446.75 197.88 436.55 207.18 431.16 C 217.19 425.14 228.11 420.56 237.33 413.28 C 244.30 408.01 249.97 401.27 255.34 394.43 C 272.11 371.85 291.03 350.78 312.50 332.56 C 318.20 327.85 323.70 322.87 328.95 317.67 C 328.22 315.79 326.60 314.12 326.83 311.99 C 327.04 308.34 330.14 305.89 332.43 303.40 C 337.12 298.39 343.20 295.00 348.07 290.18 C 357.94 280.53 365.63 269.00 374.28 258.30 C 384.83 245.19 397.66 234.01 411.67 224.73 C 423.88 217.36 436.78 211.23 449.33 204.47 C 465.71 195.35 482.10 185.62 500.40 180.87 C 494.39 174.29 491.53 165.69 488.58 157.46 C 485.59 152.27 481.69 147.65 478.54 142.56 C 476.30 138.82 474.63 134.67 471.49 131.55 C 468.44 128.52 465.89 124.87 462.04 122.78 C 456.23 119.30 453.41 112.49 452.46 106.04 C 451.19 95.07 453.89 83.74 459.93 74.49 C 458.26 73.73 455.06 74.01 455.34 71.40 C 457.24 68.36 460.18 66.10 461.92 62.94 C 465.28 57.65 464.61 51.13 466.26 45.30 C 467.36 40.17 469.48 35.03 473.67 31.65 M 524.92 76.01 C 522.68 82.36 518.35 87.95 512.96 91.94 C 510.46 93.94 507.02 94.35 504.19 92.80 C 501.72 98.72 497.95 104.05 493.67 108.80 C 492.73 110.31 489.88 110.25 489.98 108.10 C 491.16 101.00 492.75 93.54 489.80 86.60 C 487.29 93.77 485.72 101.22 483.09 108.35 C 485.93 116.64 487.68 125.33 488.10 134.10 C 488.43 140.20 488.49 146.47 490.76 152.25 C 493.68 159.74 496.34 167.46 500.74 174.24 C 505.29 180.34 511.03 185.59 517.58 189.48 C 523.87 193.24 530.06 197.39 537.11 199.61 C 540.80 200.83 545.06 200.64 548.34 198.39 C 556.65 193.29 564.04 186.82 571.26 180.30 C 580.36 172.21 584.11 159.78 585.07 147.99 C 585.62 136.36 587.05 124.61 591.21 113.66 C 588.34 111.42 586.17 108.41 585.32 104.83 C 583.07 106.99 580.18 110.30 576.77 108.43 C 577.22 104.99 577.99 101.47 577.30 98.00 C 576.90 95.76 574.56 94.88 572.67 94.26 C 566.25 92.25 559.45 91.76 553.07 89.60 C 547.99 88.09 543.47 85.25 538.82 82.79 C 538.86 84.70 540.29 87.20 538.14 88.46 C 531.75 87.22 527.69 81.44 524.92 76.01 M 558.79 196.74 C 553.29 200.64 547.23 205.35 540.06 204.32 C 529.79 203.12 521.38 196.45 512.66 191.46 C 514.31 203.33 514.31 216.06 520.30 226.78 C 525.17 234.52 533.63 240.48 543.01 240.56 C 549.98 240.82 556.34 236.96 560.90 231.95 C 568.35 223.41 577.66 216.68 584.82 207.85 C 588.58 203.14 592.21 198.31 595.38 193.17 C 593.68 191.08 591.95 189.01 590.12 187.04 C 584.74 187.20 580.70 183.32 578.34 178.87 C 572.79 185.80 565.73 191.29 558.79 196.74 M 462.63 202.49 C 447.49 211.29 431.67 218.83 416.51 227.56 C 403.03 235.96 390.92 246.52 380.66 258.64 C 370.74 270.69 362.31 284.04 350.81 294.71 C 343.94 300.63 335.79 305.26 330.45 312.78 C 339.92 319.33 345.16 329.87 352.90 338.09 C 357.96 342.82 363.35 347.49 369.81 350.20 C 374.62 352.29 379.98 352.01 385.03 353.04 C 390.38 353.98 396.10 355.71 401.31 353.21 C 409.73 349.56 417.90 345.22 426.86 342.95 C 416.98 327.42 410.50 309.49 409.92 290.99 C 409.92 284.85 408.90 278.17 411.98 272.56 C 412.76 278.07 412.14 283.64 412.65 289.17 C 413.55 305.74 419.75 321.56 427.85 335.88 C 427.26 322.10 431.25 308.75 435.54 295.83 C 436.17 293.75 437.19 291.79 438.85 290.35 C 438.89 292.59 438.64 294.83 437.98 296.98 C 434.25 310.33 430.22 323.93 430.82 337.94 C 430.96 342.41 433.46 346.54 432.81 351.09 C 430.76 368.28 420.31 383.50 419.92 401.01 C 419.40 412.42 422.36 423.57 422.73 434.93 C 423.45 443.78 422.14 452.63 420.12 461.23 C 418.32 468.62 414.95 475.56 413.59 483.07 C 412.09 491.00 411.00 499.26 412.75 507.24 C 413.87 512.27 419.72 513.54 424.05 514.32 C 436.01 514.97 447.93 513.27 459.87 512.74 C 480.55 511.55 501.25 510.31 521.97 510.25 C 537.68 509.62 552.62 503.71 566.41 496.54 C 574.59 491.63 583.03 486.98 590.34 480.80 C 590.50 481.35 590.81 482.45 590.97 483.00 C 589.46 487.08 585.07 489.11 581.88 491.75 C 568.29 502.06 552.77 510.01 536.17 514.05 C 523.97 517.09 511.35 515.51 498.96 516.57 C 480.51 517.16 462.13 518.99 443.70 519.92 C 444.61 525.84 440.63 530.52 437.77 535.22 C 452.18 537.19 466.62 533.76 481.07 533.81 C 498.36 533.30 515.67 533.68 532.97 533.34 C 557.64 533.23 582.33 532.76 606.99 533.62 C 610.67 533.65 614.59 533.84 617.93 532.00 C 623.79 528.76 628.90 524.23 633.08 519.02 C 635.09 516.55 636.41 513.31 635.71 510.10 C 632.38 502.14 625.01 495.29 625.74 486.07 C 626.43 478.07 627.79 470.14 628.38 462.12 C 629.71 447.77 628.87 433.32 630.15 418.96 C 630.78 410.89 632.15 402.90 633.30 394.89 C 635.04 383.60 638.64 372.71 642.82 362.12 C 636.19 368.62 629.55 375.13 623.45 382.13 C 622.90 380.46 623.41 378.80 624.46 377.46 C 627.36 373.40 630.52 369.53 633.69 365.67 C 640.23 357.63 650.76 352.28 653.53 341.61 C 655.00 336.16 653.30 330.35 655.11 324.96 C 657.44 317.80 662.73 311.94 668.92 307.82 C 673.11 305.07 677.38 301.97 682.49 301.29 C 678.73 304.70 674.02 306.83 670.19 310.16 C 663.19 315.43 657.48 323.43 657.69 332.53 C 664.21 327.76 671.75 323.86 679.95 323.38 C 689.35 322.76 698.43 326.21 706.69 330.40 C 712.04 332.84 717.21 335.96 723.03 337.19 C 727.21 338.11 731.47 336.98 735.34 335.39 C 731.62 334.02 727.74 332.82 724.54 330.41 C 719.99 327.12 716.97 322.22 714.75 317.16 C 709.88 307.59 708.81 296.74 705.94 286.52 C 699.71 294.87 697.31 305.33 694.96 315.30 C 691.19 315.00 692.67 310.46 692.97 308.01 C 695.11 298.92 696.44 288.04 704.83 282.36 C 701.17 269.78 695.36 256.73 683.82 249.52 C 680.22 250.35 676.18 250.90 673.13 248.31 C 669.87 250.30 666.23 253.73 662.12 252.14 C 659.36 251.08 659.01 247.94 658.67 245.41 C 655.54 246.33 651.43 246.79 649.43 243.58 C 646.02 238.56 649.88 232.69 652.19 228.06 C 650.47 225.73 648.43 223.08 649.26 219.98 C 650.41 213.22 656.67 209.24 659.47 203.31 C 652.35 198.87 644.50 195.30 636.11 194.26 C 628.84 193.35 621.13 192.39 615.08 187.89 C 612.86 186.46 610.81 184.17 607.96 184.32 C 603.65 184.41 599.46 185.57 595.23 186.27 C 597.60 188.72 601.83 191.74 599.51 195.60 C 592.73 207.02 584.17 217.44 573.82 225.81 C 567.43 230.72 562.97 237.90 555.71 241.69 C 550.61 244.49 544.85 246.81 538.92 246.05 C 525.57 244.28 514.49 232.99 511.74 219.98 C 509.56 209.94 508.76 199.55 509.41 189.29 C 507.49 187.69 505.61 186.05 503.76 184.39 C 489.49 189.01 475.55 194.83 462.63 202.49 M 666.62 203.55 C 662.16 207.53 658.19 212.14 655.15 217.30 C 653.63 219.71 653.47 222.61 653.98 225.35 C 657.24 221.47 659.98 217.15 663.54 213.52 C 664.49 212.36 665.91 211.86 667.32 211.51 C 663.54 221.25 654.74 228.60 652.44 239.02 C 652.29 242.90 656.74 242.86 659.43 242.12 C 662.31 236.40 666.70 231.68 670.69 226.74 C 672.80 224.10 675.35 221.78 678.44 220.34 C 678.37 220.97 678.22 222.24 678.15 222.87 C 674.08 228.55 670.10 234.31 666.09 240.04 C 664.32 242.46 663.36 245.38 663.65 248.40 C 672.18 245.03 677.81 237.36 684.34 231.30 C 685.36 230.13 686.79 229.60 688.31 229.39 C 685.32 235.97 680.24 241.09 675.83 246.66 C 682.77 246.85 688.23 242.26 693.63 238.61 C 694.98 237.73 698.12 236.46 698.48 239.03 C 695.78 242.76 691.78 245.23 687.93 247.60 C 695.66 251.43 700.87 258.80 704.72 266.30 C 711.90 280.70 713.56 296.89 717.75 312.24 C 719.76 321.23 727.26 328.53 736.06 330.98 C 740.12 332.16 744.78 332.97 748.65 330.72 C 755.11 327.50 757.54 320.07 759.31 313.58 C 762.31 303.06 758.23 292.32 754.43 282.59 C 743.25 262.32 725.65 246.82 710.10 230.02 C 707.26 227.14 705.05 223.59 701.59 221.36 C 698.01 219.20 697.29 214.54 694.01 212.06 C 691.60 209.90 688.25 209.65 685.38 208.44 C 683.10 206.78 682.07 203.75 679.42 202.53 C 675.41 200.69 670.01 200.23 666.62 203.55 M 315.19 336.22 C 299.04 350.03 284.17 365.32 271.00 382.00 C 262.38 392.38 255.08 403.90 245.22 413.19 C 236.52 421.34 225.87 426.91 215.39 432.39 C 209.97 435.31 204.26 438.44 200.89 443.81 C 195.04 453.01 192.21 464.12 192.91 475.00 C 192.76 477.19 194.46 477.98 196.41 477.67 C 195.58 473.18 195.26 468.56 196.13 464.05 C 196.63 461.66 196.82 458.83 199.14 457.44 C 200.17 463.88 198.05 470.84 201.01 476.95 C 203.39 480.27 206.44 483.24 210.03 485.24 C 210.67 482.21 210.78 479.11 210.37 476.05 C 209.51 468.83 209.24 461.45 210.61 454.29 C 210.64 453.09 211.60 452.53 212.59 452.18 C 212.90 458.13 212.88 464.10 213.28 470.05 C 213.71 474.42 214.45 478.79 214.34 483.21 C 216.69 484.33 220.61 484.50 220.68 480.97 C 220.26 473.35 218.38 465.55 220.37 458.01 C 220.67 456.33 221.99 455.22 223.25 454.23 C 223.46 455.80 223.47 457.37 223.26 458.94 C 222.45 465.62 223.51 472.34 224.56 478.93 C 228.97 472.27 233.68 465.82 238.53 459.47 C 240.17 457.38 241.83 455.21 244.14 453.82 C 247.11 453.97 244.98 456.69 244.12 458.04 C 239.37 464.49 234.35 470.74 229.58 477.18 C 232.52 477.81 235.72 479.02 238.59 477.49 C 244.82 474.51 251.49 471.43 255.75 465.78 C 259.42 460.96 258.87 454.64 259.48 448.96 C 260.00 442.72 262.21 436.73 265.39 431.37 C 269.11 425.55 274.46 421.01 279.86 416.81 C 289.04 409.96 297.92 402.71 307.43 396.33 C 317.15 389.79 327.06 383.52 336.49 376.55 C 346.23 369.07 356.88 362.68 365.46 353.78 C 356.91 349.02 348.83 342.93 343.12 334.89 C 339.10 329.74 336.07 323.82 331.34 319.24 C 326.92 325.75 321.33 331.33 315.19 336.22 M 612.08 538.87 C 603.06 539.11 594.04 538.62 585.02 538.60 C 562.01 538.97 539.00 538.79 515.98 538.83 C 499.64 538.91 483.27 537.85 466.96 539.16 C 456.96 539.62 446.86 541.16 436.89 539.50 C 436.10 541.39 435.27 543.27 434.41 545.15 C 437.82 549.47 439.83 555.32 445.09 557.83 C 452.91 561.29 461.70 560.28 469.98 561.42 C 470.29 561.73 470.90 562.35 471.21 562.66 C 463.57 564.32 455.53 564.05 447.82 563.12 C 440.17 562.06 435.41 555.30 432.58 548.72 C 431.05 552.17 429.41 555.59 428.26 559.19 C 426.66 564.05 427.15 569.26 426.09 574.23 C 424.88 580.00 422.80 585.58 420.07 590.82 C 416.46 597.95 411.68 604.61 409.68 612.46 C 405.51 626.97 406.86 642.21 405.89 657.09 C 405.40 667.05 401.78 676.42 399.22 685.96 C 398.61 687.96 398.47 690.07 398.60 692.17 C 400.64 692.19 402.81 692.64 404.76 691.77 C 415.44 687.36 425.81 681.89 437.20 679.45 C 454.14 674.89 472.18 676.16 489.06 680.32 C 490.48 675.20 492.19 670.16 494.05 665.19 C 490.98 666.37 488.09 667.96 485.01 669.10 C 483.30 668.72 483.53 666.33 484.11 665.15 C 486.11 660.89 489.14 657.17 490.95 652.82 C 492.20 648.14 491.56 643.18 490.68 638.49 C 488.04 626.37 481.84 615.32 474.38 605.53 C 468.43 597.81 461.37 590.50 452.24 586.66 C 450.62 585.64 447.55 585.37 447.79 582.85 C 453.50 582.16 458.63 585.89 463.43 588.54 C 476.18 597.43 485.62 610.54 491.90 624.62 C 493.57 617.55 497.54 611.39 501.12 605.18 C 505.10 593.88 503.67 581.69 503.60 569.95 C 503.93 568.14 503.04 565.25 505.18 564.40 C 506.50 567.03 506.43 570.04 506.71 572.91 C 507.24 581.02 508.52 589.26 506.73 597.31 C 513.60 587.69 521.16 578.57 527.81 568.78 C 529.20 566.98 530.17 564.49 532.61 563.92 C 532.10 567.64 529.93 570.78 527.96 573.87 C 518.72 587.97 508.36 601.35 500.03 616.03 C 496.76 622.01 493.63 628.98 495.59 635.90 C 497.55 644.49 497.21 654.19 492.00 661.62 C 500.44 657.66 508.96 653.82 517.61 650.34 C 529.89 646.00 543.40 642.21 556.33 645.89 C 566.84 649.41 574.88 657.60 584.87 662.20 C 590.32 664.55 596.71 666.84 602.58 664.69 C 607.56 662.86 608.03 656.89 609.23 652.49 C 611.40 644.66 606.65 637.40 603.68 630.49 C 597.49 618.16 592.80 604.39 594.69 590.42 C 594.92 588.36 595.80 586.31 597.95 585.67 C 595.36 602.78 602.55 619.16 609.19 634.49 C 609.13 628.26 608.90 621.95 610.38 615.85 C 612.63 605.73 616.14 595.95 618.86 585.96 C 624.70 567.11 628.58 547.70 631.19 528.15 C 625.80 533.06 619.77 538.60 612.08 538.87 M 499.77 662.98 C 497.18 671.61 492.55 679.82 492.75 689.08 C 493.01 708.03 496.44 727.16 504.55 744.40 C 508.37 752.63 512.09 761.76 520.00 766.93 C 528.04 772.70 539.20 771.97 547.73 767.69 C 556.25 762.95 564.14 755.66 566.74 745.97 C 566.31 740.67 562.14 736.78 559.68 732.33 C 555.21 725.81 552.84 717.58 554.97 709.78 C 559.11 692.90 565.70 676.58 574.25 661.45 C 565.99 656.57 558.00 649.86 547.93 649.65 C 530.89 649.16 515.14 656.58 499.77 662.98 M 439.92 684.44 C 428.68 686.58 418.44 691.86 407.69 695.53 C 409.16 710.99 412.40 727.16 422.33 739.60 C 428.89 749.33 440.07 756.26 451.98 756.29 C 461.91 756.33 471.18 750.85 477.27 743.24 C 483.99 734.87 488.09 724.50 489.62 713.92 C 488.81 704.33 487.42 694.68 488.52 685.03 C 480.02 684.13 471.65 681.91 463.04 682.12 C 455.26 681.80 447.47 682.48 439.92 684.44 M 491.60 723.01 C 488.76 734.12 483.20 744.88 474.20 752.22 C 471.01 754.70 467.61 757.21 463.57 758.04 C 463.58 758.50 463.62 758.97 463.66 759.46 L 464.29 758.63 C 475.22 761.65 486.24 764.33 497.54 765.48 C 497.33 757.63 497.65 749.76 497.27 741.93 C 495.24 735.67 492.96 729.46 491.60 723.01 M 561.76 762.68 C 557.01 767.43 551.64 771.88 545.17 774.03 C 536.63 776.77 526.67 776.73 518.82 772.00 C 510.53 767.71 505.54 759.31 501.68 751.15 C 502.57 770.78 501.14 790.39 501.60 810.02 C 501.25 828.51 509.07 845.76 511.49 863.88 C 514.13 879.98 514.60 896.80 509.74 912.55 C 519.60 910.24 523.29 899.22 532.04 895.21 C 541.03 893.16 550.63 895.74 558.20 900.82 C 557.20 894.92 556.55 888.96 556.08 883.00 C 554.71 863.53 553.42 843.72 557.65 824.49 C 560.22 812.30 565.17 800.81 568.83 788.94 C 571.29 780.82 574.09 772.57 573.81 763.98 C 573.77 758.84 572.02 753.93 570.18 749.20 C 567.76 753.91 565.62 758.93 561.76 762.68 M 480.20 767.97 C 480.27 783.14 481.79 798.57 487.20 812.85 C 489.13 817.10 491.71 822.97 497.35 822.42 C 495.97 805.15 497.49 787.83 497.50 770.55 C 491.72 769.82 485.93 769.09 480.20 767.97 M 530.73 901.68 C 526.12 906.05 522.51 911.72 516.64 914.57 C 514.09 915.94 511.15 916.03 508.34 916.30 C 507.07 921.54 505.71 926.76 503.79 931.81 C 499.35 944.15 495.65 956.88 494.23 969.96 C 494.03 973.89 493.72 979.10 497.55 981.50 C 502.56 984.31 508.53 982.98 514.00 983.09 C 523.69 982.50 533.42 983.79 543.08 982.51 C 549.82 981.62 557.23 980.14 562.02 974.90 C 564.81 969.63 562.91 963.51 562.23 957.96 C 560.93 948.70 560.97 939.33 560.22 930.03 C 559.53 921.74 560.25 913.39 559.19 905.13 C 553.52 903.06 548.13 899.84 541.96 899.56 C 538.20 899.39 533.65 898.74 530.73 901.68 Z" />
        <path fill="#020202" opacity="1.00"
            d=" M 494.36 121.56 C 503.54 120.74 512.78 120.85 522.00 120.60 C 523.47 120.68 525.36 120.24 526.25 121.81 C 526.79 124.56 526.87 127.48 526.33 130.24 C 525.04 131.78 522.80 131.29 521.06 131.56 C 512.36 131.84 503.65 132.58 494.95 132.18 C 491.55 132.21 492.53 128.10 492.43 125.89 C 492.58 124.38 492.21 121.73 494.36 121.56 Z" />
        <path fill="#020202" opacity="1.00"
            d=" M 541.27 121.35 C 545.05 120.18 549.10 120.78 553.00 120.64 C 560.64 120.87 568.35 119.67 575.94 120.77 C 577.67 123.43 577.67 127.59 576.01 130.20 C 564.64 131.12 553.17 130.80 541.78 130.56 C 541.27 136.08 541.22 141.63 541.10 147.18 C 538.66 144.82 539.38 141.06 539.10 138.00 C 539.35 132.45 538.89 126.50 541.27 121.35 Z" />
        <path fill="#020202" opacity="1.00"
            d=" M 537.24 153.63 C 538.75 152.09 540.08 150.26 542.10 149.35 C 543.45 151.34 542.27 153.91 542.00 156.09 C 541.34 157.81 541.63 160.80 539.23 161.05 C 532.79 158.49 526.15 155.42 521.51 150.10 C 526.68 151.57 531.90 152.90 537.24 153.63 Z" />
        <path fill="#020202" opacity="1.00"
            d=" M 519.94 169.20 C 528.28 168.20 536.68 168.11 545.06 167.65 C 547.78 167.59 550.59 167.27 553.25 168.08 C 553.89 169.69 552.61 170.57 551.52 171.44 C 550.82 173.38 550.70 176.77 547.84 176.53 C 540.56 176.81 533.27 177.31 525.99 177.19 C 523.01 177.03 523.10 173.23 522.17 171.13 C 521.49 170.96 520.12 170.60 519.44 170.43 C 519.57 170.12 519.82 169.51 519.94 169.20 Z" />
        <path fill="#020202" opacity="1.00"
            d=" M 629.64 233.80 C 629.74 232.31 630.86 231.40 632.00 230.62 C 632.88 236.65 632.06 242.75 632.77 248.80 C 634.45 271.55 634.79 294.94 628.02 316.97 C 626.16 322.57 624.53 328.35 621.47 333.45 C 620.70 335.06 618.85 335.34 617.31 335.69 C 618.04 331.31 620.16 327.37 621.38 323.14 C 624.08 314.21 626.03 305.06 627.40 295.84 C 628.98 284.29 628.91 272.60 628.82 260.98 C 628.74 251.93 627.51 242.72 629.64 233.80 Z" />
        <path fill="#020202" opacity="1.00"
            d=" M 451.68 349.07 C 452.51 343.72 452.51 337.98 455.49 333.25 C 456.13 347.10 454.12 361.13 449.38 374.18 C 445.26 385.71 439.66 396.84 437.64 409.02 C 437.25 411.06 437.62 413.76 439.91 414.50 C 441.97 414.53 443.95 413.76 445.73 412.78 C 453.79 407.97 460.09 400.84 467.48 395.16 C 467.07 399.35 463.78 402.21 461.12 405.13 C 456.65 409.72 451.94 414.33 446.10 417.14 C 443.01 418.54 438.90 419.41 436.11 416.93 C 433.24 414.54 433.06 410.42 433.79 407.03 C 435.66 397.64 439.27 388.72 443.01 379.95 C 447.00 370.01 450.33 359.72 451.68 349.07 Z" />
        <path fill="#020202" opacity="1.00"
            d=" M 607.11 371.10 C 607.98 370.20 608.43 368.07 610.15 368.82 C 610.39 372.66 607.70 375.78 605.87 378.90 C 597.66 391.71 588.11 403.60 577.63 414.62 C 565.23 427.86 552.83 441.14 539.63 453.60 C 533.94 458.95 528.56 464.67 522.29 469.36 C 515.28 474.77 507.25 478.73 498.90 481.60 C 494.50 483.08 489.67 484.08 485.10 482.83 C 482.97 482.32 481.10 480.29 481.54 478.00 C 482.47 475.36 484.41 473.28 486.11 471.12 C 488.99 467.76 491.54 463.94 495.45 461.67 C 495.31 463.19 495.03 464.76 494.04 466.00 C 491.09 470.18 487.93 474.22 485.36 478.65 C 488.54 479.07 491.83 479.16 494.92 478.12 C 504.19 475.20 513.01 470.67 520.57 464.53 C 526.10 460.13 530.95 454.95 536.11 450.12 C 548.26 438.60 559.79 426.46 571.43 414.44 C 584.43 400.96 597.13 387.01 607.11 371.10 Z" />
    </g>
    <g id="#f0b58bff">
        <path fill="#f0b58b" opacity="1.00"
            d=" M 524.92 76.01 C 527.69 81.44 531.75 87.22 538.14 88.46 C 540.29 87.20 538.86 84.70 538.82 82.79 C 543.47 85.25 547.99 88.09 553.07 89.60 C 559.45 91.76 566.25 92.25 572.67 94.26 C 574.56 94.88 576.90 95.76 577.30 98.00 C 577.99 101.47 577.22 104.99 576.77 108.43 C 580.18 110.30 583.07 106.99 585.32 104.83 C 586.17 108.41 588.34 111.42 591.21 113.66 C 587.05 124.61 585.62 136.36 585.07 147.99 C 584.11 159.78 580.36 172.21 571.26 180.30 C 564.04 186.82 556.65 193.29 548.34 198.39 C 545.06 200.64 540.80 200.83 537.11 199.61 C 530.06 197.39 523.87 193.24 517.58 189.48 C 511.03 185.59 505.29 180.34 500.74 174.24 C 496.34 167.46 493.68 159.74 490.76 152.25 C 488.49 146.47 488.43 140.20 488.10 134.10 C 487.68 125.33 485.93 116.64 483.09 108.35 C 485.72 101.22 487.29 93.77 489.80 86.60 C 492.75 93.54 491.16 101.00 489.98 108.10 C 489.88 110.25 492.73 110.31 493.67 108.80 C 497.95 104.05 501.72 98.72 504.19 92.80 C 507.02 94.35 510.46 93.94 512.96 91.94 C 518.35 87.95 522.68 82.36 524.92 76.01 M 494.36 121.56 C 492.21 121.73 492.58 124.38 492.43 125.89 C 492.53 128.10 491.55 132.21 494.95 132.18 C 503.65 132.58 512.36 131.84 521.06 131.56 C 522.80 131.29 525.04 131.78 526.33 130.24 C 526.87 127.48 526.79 124.56 526.25 121.81 C 525.36 120.24 523.47 120.68 522.00 120.60 C 512.78 120.85 503.54 120.74 494.36 121.56 M 541.27 121.35 C 538.89 126.50 539.35 132.45 539.10 138.00 C 539.38 141.06 538.66 144.82 541.10 147.18 C 541.22 141.63 541.27 136.08 541.78 130.56 C 553.17 130.80 564.64 131.12 576.01 130.20 C 577.67 127.59 577.67 123.43 575.94 120.77 C 568.35 119.67 560.64 120.87 553.00 120.64 C 549.10 120.78 545.05 120.18 541.27 121.35 M 537.24 153.63 C 531.90 152.90 526.68 151.57 521.51 150.10 C 526.15 155.42 532.79 158.49 539.23 161.05 C 541.63 160.80 541.34 157.81 542.00 156.09 C 542.27 153.91 543.45 151.34 542.10 149.35 C 540.08 150.26 538.75 152.09 537.24 153.63 M 519.94 169.20 C 519.82 169.51 519.57 170.12 519.44 170.43 C 520.12 170.60 521.49 170.96 522.17 171.13 C 523.10 173.23 523.01 177.03 525.99 177.19 C 533.27 177.31 540.56 176.81 547.84 176.53 C 550.70 176.77 550.82 173.38 551.52 171.44 C 552.61 170.57 553.89 169.69 553.25 168.08 C 550.59 167.27 547.78 167.59 545.06 167.65 C 536.68 168.11 528.28 168.20 519.94 169.20 Z" />
        <path fill="#f0b58b" opacity="1.00"
            d=" M 558.79 196.74 C 565.73 191.29 572.79 185.80 578.34 178.87 C 580.70 183.32 584.74 187.20 590.12 187.04 C 591.95 189.01 593.68 191.08 595.38 193.17 C 592.21 198.31 588.58 203.14 584.82 207.85 C 577.66 216.68 568.35 223.41 560.90 231.95 C 556.34 236.96 549.98 240.82 543.01 240.56 C 533.63 240.48 525.17 234.52 520.30 226.78 C 514.31 216.06 514.31 203.33 512.66 191.46 C 521.38 196.45 529.79 203.12 540.06 204.32 C 547.23 205.35 553.29 200.64 558.79 196.74 Z" />
        <path fill="#f0b58b" opacity="1.00"
            d=" M 666.62 203.55 C 670.01 200.23 675.41 200.69 679.42 202.53 C 682.07 203.75 683.10 206.78 685.38 208.44 C 688.25 209.65 691.60 209.90 694.01 212.06 C 697.29 214.54 698.01 219.20 701.59 221.36 C 705.05 223.59 707.26 227.14 710.10 230.02 C 725.65 246.82 743.25 262.32 754.43 282.59 C 758.23 292.32 762.31 303.06 759.31 313.58 C 757.54 320.07 755.11 327.50 748.65 330.72 C 744.78 332.97 740.12 332.16 736.06 330.98 C 727.26 328.53 719.76 321.23 717.75 312.24 C 713.56 296.89 711.90 280.70 704.72 266.30 C 700.87 258.80 695.66 251.43 687.93 247.60 C 691.78 245.23 695.78 242.76 698.48 239.03 C 698.12 236.46 694.98 237.73 693.63 238.61 C 688.23 242.26 682.77 246.85 675.83 246.66 C 680.24 241.09 685.32 235.97 688.31 229.39 C 686.79 229.60 685.36 230.13 684.34 231.30 C 677.81 237.36 672.18 245.03 663.65 248.40 C 663.36 245.38 664.32 242.46 666.09 240.04 C 670.10 234.31 674.08 228.55 678.15 222.87 C 678.22 222.24 678.37 220.97 678.44 220.34 C 675.35 221.78 672.80 224.10 670.69 226.74 C 666.70 231.68 662.31 236.40 659.43 242.12 C 656.74 242.86 652.29 242.90 652.44 239.02 C 654.74 228.60 663.54 221.25 667.32 211.51 C 665.91 211.86 664.49 212.36 663.54 213.52 C 659.98 217.15 657.24 221.47 653.98 225.35 C 653.47 222.61 653.63 219.71 655.15 217.30 C 658.19 212.14 662.16 207.53 666.62 203.55 Z" />
        <path fill="#f0b58b" opacity="1.00"
            d=" M 315.19 336.22 C 321.33 331.33 326.92 325.75 331.34 319.24 C 336.07 323.82 339.10 329.74 343.12 334.89 C 348.83 342.93 356.91 349.02 365.46 353.78 C 356.88 362.68 346.23 369.07 336.49 376.55 C 327.06 383.52 317.15 389.79 307.43 396.33 C 297.92 402.71 289.04 409.96 279.86 416.81 C 274.46 421.01 269.11 425.55 265.39 431.37 C 262.21 436.73 260.00 442.72 259.48 448.96 C 258.87 454.64 259.42 460.96 255.75 465.78 C 251.49 471.43 244.82 474.51 238.59 477.49 C 235.72 479.02 232.52 477.81 229.58 477.18 C 234.35 470.74 239.37 464.49 244.12 458.04 C 244.98 456.69 247.11 453.97 244.14 453.82 C 241.83 455.21 240.17 457.38 238.53 459.47 C 233.68 465.82 228.97 472.27 224.56 478.93 C 223.51 472.34 222.45 465.62 223.26 458.94 C 223.47 457.37 223.46 455.80 223.25 454.23 C 221.99 455.22 220.67 456.33 220.37 458.01 C 218.38 465.55 220.26 473.35 220.68 480.97 C 220.61 484.50 216.69 484.33 214.34 483.21 C 214.45 478.79 213.71 474.42 213.28 470.05 C 212.88 464.10 212.90 458.13 212.59 452.18 C 211.60 452.53 210.64 453.09 210.61 454.29 C 209.24 461.45 209.51 468.83 210.37 476.05 C 210.78 479.11 210.67 482.21 210.03 485.24 C 206.44 483.24 203.39 480.27 201.01 476.95 C 198.05 470.84 200.17 463.88 199.14 457.44 C 196.82 458.83 196.63 461.66 196.13 464.05 C 195.26 468.56 195.58 473.18 196.41 477.67 C 194.46 477.98 192.76 477.19 192.91 475.00 C 192.21 464.12 195.04 453.01 200.89 443.81 C 204.26 438.44 209.97 435.31 215.39 432.39 C 225.87 426.91 236.52 421.34 245.22 413.19 C 255.08 403.90 262.38 392.38 271.00 382.00 C 284.17 365.32 299.04 350.03 315.19 336.22 Z" />
        <path fill="#f0b58b" opacity="1.00"
            d=" M 499.77 662.98 C 515.14 656.58 530.89 649.16 547.93 649.65 C 558.00 649.86 565.99 656.57 574.25 661.45 C 565.70 676.58 559.11 692.90 554.97 709.78 C 552.84 717.58 555.21 725.81 559.68 732.33 C 562.14 736.78 566.31 740.67 566.74 745.97 C 564.14 755.66 556.25 762.95 547.73 767.69 C 539.20 771.97 528.04 772.70 520.00 766.93 C 512.09 761.76 508.37 752.63 504.55 744.40 C 496.44 727.16 493.01 708.03 492.75 689.08 C 492.55 679.82 497.18 671.61 499.77 662.98 Z" />
        <path fill="#f0b58b" opacity="1.00"
            d=" M 439.92 684.44 C 447.47 682.48 455.26 681.80 463.04 682.12 C 471.65 681.91 480.02 684.13 488.52 685.03 C 487.42 694.68 488.81 704.33 489.62 713.92 C 488.09 724.50 483.99 734.87 477.27 743.24 C 471.18 750.85 461.91 756.33 451.98 756.29 C 440.07 756.26 428.89 749.33 422.33 739.60 C 412.40 727.16 409.16 710.99 407.69 695.53 C 418.44 691.86 428.68 686.58 439.92 684.44 Z" />
    </g>
    <g id="#f11b27ff">
        <path fill="var(--shirt-color, grey)" opacity="1.00"
            d=" M 462.63 202.49 C 475.55 194.83 489.49 189.01 503.76 184.39 C 505.61 186.05 507.49 187.69 509.41 189.29 C 508.76 199.55 509.56 209.94 511.74 219.98 C 514.49 232.99 525.57 244.28 538.92 246.05 C 544.85 246.81 550.61 244.49 555.71 241.69 C 562.97 237.90 567.43 230.72 573.82 225.81 C 584.17 217.44 592.73 207.02 599.51 195.60 C 601.83 191.74 597.60 188.72 595.23 186.27 C 599.46 185.57 603.65 184.41 607.96 184.32 C 610.81 184.17 612.86 186.46 615.08 187.89 C 621.13 192.39 628.84 193.35 636.11 194.26 C 644.50 195.30 652.35 198.87 659.47 203.31 C 656.67 209.24 650.41 213.22 649.26 219.98 C 648.43 223.08 650.47 225.73 652.19 228.06 C 649.88 232.69 646.02 238.56 649.43 243.58 C 651.43 246.79 655.54 246.33 658.67 245.41 C 659.01 247.94 659.36 251.08 662.12 252.14 C 666.23 253.73 669.87 250.30 673.13 248.31 C 676.18 250.90 680.22 250.35 683.82 249.52 C 695.36 256.73 701.17 269.78 704.83 282.36 C 696.44 288.04 695.11 298.92 692.97 308.01 C 692.67 310.46 691.19 315.00 694.96 315.30 C 697.31 305.33 699.71 294.87 705.94 286.52 C 708.81 296.74 709.88 307.59 714.75 317.16 C 716.97 322.22 719.99 327.12 724.54 330.41 C 727.74 332.82 731.62 334.02 735.34 335.39 C 731.47 336.98 727.21 338.11 723.03 337.19 C 717.21 335.96 712.04 332.84 706.69 330.40 C 698.43 326.21 689.35 322.76 679.95 323.38 C 671.75 323.86 664.21 327.76 657.69 332.53 C 657.48 323.43 663.19 315.43 670.19 310.16 C 674.02 306.83 678.73 304.70 682.49 301.29 C 677.38 301.97 673.11 305.07 668.92 307.82 C 662.73 311.94 657.44 317.80 655.11 324.96 C 653.30 330.35 655.00 336.16 653.53 341.61 C 650.76 352.28 640.23 357.63 633.69 365.67 C 630.52 369.53 627.36 373.40 624.46 377.46 C 623.41 378.80 622.90 380.46 623.45 382.13 C 629.55 375.13 636.19 368.62 642.82 362.12 C 638.64 372.71 635.04 383.60 633.30 394.89 C 632.15 402.90 630.78 410.89 630.15 418.96 C 628.87 433.32 629.71 447.77 628.38 462.12 C 627.79 470.14 626.43 478.07 625.74 486.07 C 625.01 495.29 632.38 502.14 635.71 510.10 C 636.41 513.31 635.09 516.55 633.08 519.02 C 628.90 524.23 623.79 528.76 617.93 532.00 C 614.59 533.84 610.67 533.65 606.99 533.62 C 582.33 532.76 557.64 533.23 532.97 533.34 C 515.67 533.68 498.36 533.30 481.07 533.81 C 466.62 533.76 452.18 537.19 437.77 535.22 C 440.63 530.52 444.61 525.84 443.70 519.92 C 462.13 518.99 480.51 517.16 498.96 516.57 C 511.35 515.51 523.97 517.09 536.17 514.05 C 552.77 510.01 568.29 502.06 581.88 491.75 C 585.07 489.11 589.46 487.08 590.97 483.00 C 590.81 482.45 590.50 481.35 590.34 480.80 C 583.03 486.98 574.59 491.63 566.41 496.54 C 552.62 503.71 537.68 509.62 521.97 510.25 C 501.25 510.31 480.55 511.55 459.87 512.74 C 447.93 513.27 436.01 514.97 424.05 514.32 C 419.72 513.54 413.87 512.27 412.75 507.24 C 411.00 499.26 412.09 491.00 413.59 483.07 C 414.95 475.56 418.32 468.62 420.12 461.23 C 422.14 452.63 423.45 443.78 422.73 434.93 C 422.36 423.57 419.40 412.42 419.92 401.01 C 420.31 383.50 430.76 368.28 432.81 351.09 C 433.46 346.54 430.96 342.41 430.82 337.94 C 430.22 323.93 434.25 310.33 437.98 296.98 C 438.64 294.83 438.89 292.59 438.85 290.35 C 437.19 291.79 436.17 293.75 435.54 295.83 C 431.25 308.75 427.26 322.10 427.85 335.88 C 419.75 321.56 413.55 305.74 412.65 289.17 C 412.14 283.64 412.76 278.07 411.98 272.56 C 408.90 278.17 409.92 284.85 409.92 290.99 C 410.50 309.49 416.98 327.42 426.86 342.95 C 417.90 345.22 409.73 349.56 401.31 353.21 C 396.10 355.71 390.38 353.98 385.03 353.04 C 379.98 352.01 374.62 352.29 369.81 350.20 C 363.35 347.49 357.96 342.82 352.90 338.09 C 345.16 329.87 339.92 319.33 330.45 312.78 C 335.79 305.26 343.94 300.63 350.81 294.71 C 362.31 284.04 370.74 270.69 380.66 258.64 C 390.92 246.52 403.03 235.96 416.51 227.56 C 431.67 218.83 447.49 211.29 462.63 202.49 M 629.64 233.80 C 627.51 242.72 628.74 251.93 628.82 260.98 C 628.91 272.60 628.98 284.29 627.40 295.84 C 626.03 305.06 624.08 314.21 621.38 323.14 C 620.16 327.37 618.04 331.31 617.31 335.69 C 618.85 335.34 620.70 335.06 621.47 333.45 C 624.53 328.35 626.16 322.57 628.02 316.97 C 634.79 294.94 634.45 271.55 632.77 248.80 C 632.06 242.75 632.88 236.65 632.00 230.62 C 630.86 231.40 629.74 232.31 629.64 233.80 M 451.68 349.07 C 450.33 359.72 447.00 370.01 443.01 379.95 C 439.27 388.72 435.66 397.64 433.79 407.03 C 433.06 410.42 433.24 414.54 436.11 416.93 C 438.90 419.41 443.01 418.54 446.10 417.14 C 451.94 414.33 456.65 409.72 461.12 405.13 C 463.78 402.21 467.07 399.35 467.48 395.16 C 460.09 400.84 453.79 407.97 445.73 412.78 C 443.95 413.76 441.97 414.53 439.91 414.50 C 437.62 413.76 437.25 411.06 437.64 409.02 C 439.66 396.84 445.26 385.71 449.38 374.18 C 454.12 361.13 456.13 347.10 455.49 333.25 C 452.51 337.98 452.51 343.72 451.68 349.07 M 607.11 371.10 C 597.13 387.01 584.43 400.96 571.43 414.44 C 559.79 426.46 548.26 438.60 536.11 450.12 C 530.95 454.95 526.10 460.13 520.57 464.53 C 513.01 470.67 504.19 475.20 494.92 478.12 C 491.83 479.16 488.54 479.07 485.36 478.65 C 487.93 474.22 491.09 470.18 494.04 466.00 C 495.03 464.76 495.31 463.19 495.45 461.67 C 491.54 463.94 488.99 467.76 486.11 471.12 C 484.41 473.28 482.47 475.36 481.54 478.00 C 481.10 480.29 482.97 482.32 485.10 482.83 C 489.67 484.08 494.50 483.08 498.90 481.60 C 507.25 478.73 515.28 474.77 522.29 469.36 C 528.56 464.67 533.94 458.95 539.63 453.60 C 552.83 441.14 565.23 427.86 577.63 414.62 C 588.11 403.60 597.66 391.71 605.87 378.90 C 607.70 375.78 610.39 372.66 610.15 368.82 C 608.43 368.07 607.98 370.20 607.11 371.10 Z" />
    </g>
    <g id="#ffffffff">
        <path fill="var(--pants-color, grey)" opacity="1.00"
            d=" M 612.08 538.87 C 619.77 538.60 625.80 533.06 631.19 528.15 C 628.58 547.70 624.70 567.11 618.86 585.96 C 616.14 595.95 612.63 605.73 610.38 615.85 C 608.90 621.95 609.13 628.26 609.19 634.49 C 602.55 619.16 595.36 602.78 597.95 585.67 C 595.80 586.31 594.92 588.36 594.69 590.42 C 592.80 604.39 597.49 618.16 603.68 630.49 C 606.65 637.40 611.40 644.66 609.23 652.49 C 608.03 656.89 607.56 662.86 602.58 664.69 C 596.71 666.84 590.32 664.55 584.87 662.20 C 574.88 657.60 566.84 649.41 556.33 645.89 C 543.40 642.21 529.89 646.00 517.61 650.34 C 508.96 653.82 500.44 657.66 492.00 661.62 C 497.21 654.19 497.55 644.49 495.59 635.90 C 493.63 628.98 496.76 622.01 500.03 616.03 C 508.36 601.35 518.72 587.97 527.96 573.87 C 529.93 570.78 532.10 567.64 532.61 563.92 C 530.17 564.49 529.20 566.98 527.81 568.78 C 521.16 578.57 513.60 587.69 506.73 597.31 C 508.52 589.26 507.24 581.02 506.71 572.91 C 506.43 570.04 506.50 567.03 505.18 564.40 C 503.04 565.25 503.93 568.14 503.60 569.95 C 503.67 581.69 505.10 593.88 501.12 605.18 C 497.54 611.39 493.57 617.55 491.90 624.62 C 485.62 610.54 476.18 597.43 463.43 588.54 C 458.63 585.89 453.50 582.16 447.79 582.85 C 447.55 585.37 450.62 585.64 452.24 586.66 C 461.37 590.50 468.43 597.81 474.38 605.53 C 481.84 615.32 488.04 626.37 490.68 638.49 C 491.56 643.18 492.20 648.14 490.95 652.82 C 489.14 657.17 486.11 660.89 484.11 665.15 C 483.53 666.33 483.30 668.72 485.01 669.10 C 488.09 667.96 490.98 666.37 494.05 665.19 C 492.19 670.16 490.48 675.20 489.06 680.32 C 472.18 676.16 454.14 674.89 437.20 679.45 C 425.81 681.89 415.44 687.36 404.76 691.77 C 402.81 692.64 400.64 692.19 398.60 692.17 C 398.47 690.07 398.61 687.96 399.22 685.96 C 401.78 676.42 405.40 667.05 405.89 657.09 C 406.86 642.21 405.51 626.97 409.68 612.46 C 411.68 604.61 416.46 597.95 420.07 590.82 C 422.80 585.58 424.88 580.00 426.09 574.23 C 427.15 569.26 426.66 564.05 428.26 559.19 C 429.41 555.59 431.05 552.17 432.58 548.72 C 435.41 555.30 440.17 562.06 447.82 563.12 C 455.53 564.05 463.57 564.32 471.21 562.66 C 470.90 562.35 470.29 561.73 469.98 561.42 C 461.70 560.28 452.91 561.29 445.09 557.83 C 439.83 555.32 437.82 549.47 434.41 545.15 C 435.27 543.27 436.10 541.39 436.89 539.50 C 446.86 541.16 456.96 539.62 466.96 539.16 C 483.27 537.85 499.64 538.91 515.98 538.83 C 539.00 538.79 562.01 538.97 585.02 538.60 C 594.04 538.62 603.06 539.11 612.08 538.87 Z" />
        <path fill="var(--socks-color, grey)" opacity="1.00"
            d=" M 561.76 762.68 C 565.62 758.93 567.76 753.91 570.18 749.20 C 572.02 753.93 573.77 758.84 573.81 763.98 C 574.09 772.57 571.29 780.82 568.83 788.94 C 565.17 800.81 560.22 812.30 557.65 824.49 C 553.42 843.72 554.71 863.53 556.08 883.00 C 556.55 888.96 557.20 894.92 558.20 900.82 C 550.63 895.74 541.03 893.16 532.04 895.21 C 523.29 899.22 519.60 910.24 509.74 912.55 C 514.60 896.80 514.13 879.98 511.49 863.88 C 509.07 845.76 501.25 828.51 501.60 810.02 C 501.14 790.39 502.57 770.78 501.68 751.15 C 505.54 759.31 510.53 767.71 518.82 772.00 C 526.67 776.73 536.63 776.77 545.17 774.03 C 551.64 771.88 557.01 767.43 561.76 762.68 Z" />
    </g>
    <g id="#fdfdfeff">
        <path fill="var(--socks-color, grey)" opacity="1.00"
            d=" M 491.60 723.01 C 492.96 729.46 495.24 735.67 497.27 741.93 C 497.65 749.76 497.33 757.63 497.54 765.48 C 486.24 764.33 475.22 761.65 464.29 758.63 L 463.66 759.46 C 463.62 758.97 463.58 758.50 463.57 758.04 C 467.61 757.21 471.01 754.70 474.20 752.22 C 483.20 744.88 488.76 734.12 491.60 723.01 Z" />
    </g>
    <g id="#4d4d4dff">
        <path fill="#4d4d4d" opacity="1.00"
            d=" M 480.20 767.97 C 485.93 769.09 491.72 769.82 497.50 770.55 C 497.49 787.83 495.97 805.15 497.35 822.42 C 491.71 822.97 489.13 817.10 487.20 812.85 C 481.79 798.57 480.27 783.14 480.20 767.97 Z" />
        <path fill="#4d4d4d" opacity="1.00"
            d=" M 530.73 901.68 C 533.65 898.74 538.20 899.39 541.96 899.56 C 548.13 899.84 553.52 903.06 559.19 905.13 C 560.25 913.39 559.53 921.74 560.22 930.03 C 560.97 939.33 560.93 948.70 562.23 957.96 C 562.91 963.51 564.81 969.63 562.02 974.90 C 557.23 980.14 549.82 981.62 543.08 982.51 C 533.42 983.79 523.69 982.50 514.00 983.09 C 508.53 982.98 502.56 984.31 497.55 981.50 C 493.72 979.10 494.03 973.89 494.23 969.96 C 495.65 956.88 499.35 944.15 503.79 931.81 C 505.71 926.76 507.07 921.54 508.34 916.30 C 511.15 916.03 514.09 915.94 516.64 914.57 C 522.51 911.72 526.12 906.05 530.73 901.68 Z" />
    </g>
</svg>