<?xml version="1.0" encoding="UTF-8" ?>
<!DOCTYPE svg PUBLIC "-//W3C//DTD SVG 1.1//EN" "http://www.w3.org/Graphics/SVG/1.1/DTD/svg11.dtd">
<svg width="1000pt" height="1000pt" viewBox="0 0 1000 1000" version="1.1" xmlns="http://www.w3.org/2000/svg">
<g id="#020202ff">
<path fill="#020202" opacity="1.00" d=" M 671.49 286.41 C 674.59 284.32 676.06 280.78 677.79 277.61 C 680.95 280.03 681.96 283.89 681.72 287.72 C 688.12 285.00 695.08 283.86 702.01 283.82 C 701.24 285.92 699.70 287.50 697.91 288.76 C 702.70 287.62 707.88 286.58 712.69 288.25 C 721.14 291.43 728.14 297.80 737.03 299.97 C 740.45 300.92 744.05 300.72 747.52 301.44 C 750.02 305.66 744.13 308.33 741.30 310.31 C 748.88 311.28 757.06 310.57 764.08 314.01 C 764.13 314.51 764.23 315.52 764.28 316.02 C 761.18 316.83 757.96 316.99 754.81 317.49 C 761.50 324.13 767.72 331.33 772.50 339.48 C 775.89 345.24 779.63 350.92 781.42 357.43 C 783.08 363.12 782.23 369.09 782.30 374.92 C 782.21 379.21 783.33 383.38 783.61 387.65 C 782.32 386.45 781.05 385.24 779.81 384.02 C 780.21 385.57 780.70 387.14 780.89 388.75 C 779.28 388.82 777.69 388.65 776.11 388.50 C 775.96 391.23 776.26 394.23 774.69 396.64 C 773.21 399.11 770.50 400.37 768.15 401.84 C 767.12 405.82 767.62 409.95 767.21 414.00 C 765.84 417.21 762.73 413.34 760.88 412.40 C 758.13 417.66 755.69 423.15 754.61 429.02 C 752.99 437.21 752.03 445.67 748.37 453.29 C 742.77 464.90 734.76 475.15 726.37 484.86 C 730.04 500.78 728.02 517.46 723.15 532.89 C 720.40 541.55 718.62 550.48 716.30 559.26 C 714.57 565.67 713.33 572.38 714.52 579.01 C 716.58 590.95 720.81 602.67 720.23 614.94 C 720.16 618.06 719.11 621.04 717.95 623.91 C 720.63 625.48 723.41 627.17 725.13 629.87 C 727.28 632.83 727.56 636.59 727.93 640.12 C 739.38 644.40 747.31 654.19 753.96 663.99 C 758.98 671.36 764.65 678.27 770.84 684.68 C 779.40 684.08 785.65 690.44 792.01 695.10 C 798.39 700.13 806.52 702.17 814.42 703.35 C 825.49 704.45 836.97 703.53 847.65 707.24 C 851.47 708.67 855.78 711.41 856.04 715.92 C 856.06 718.96 855.21 722.76 852.14 724.12 C 845.01 728.39 836.60 729.21 828.99 732.21 C 841.73 735.39 854.89 737.00 868.03 736.80 C 874.01 736.99 880.46 737.03 885.74 740.23 C 889.06 742.13 889.67 746.51 888.70 749.92 C 887.84 752.94 885.30 755.09 882.69 756.63 C 877.10 759.93 870.51 760.99 864.10 761.12 C 864.51 764.01 865.07 767.48 862.64 769.70 C 858.16 773.91 851.52 774.78 845.65 773.99 C 843.95 776.49 841.98 779.14 838.93 780.02 C 834.77 781.48 830.30 780.10 826.69 777.90 C 828.06 781.09 829.62 784.49 829.14 788.07 C 828.59 791.81 824.63 794.19 821.04 793.86 C 815.40 793.47 810.30 790.61 805.74 787.46 C 806.84 791.03 808.39 795.05 806.58 798.68 C 804.95 802.16 801.36 806.02 797.11 804.59 C 792.01 802.83 788.48 798.42 785.48 794.16 C 784.85 797.83 784.59 802.77 780.54 804.38 C 775.59 805.84 770.83 802.77 766.96 800.02 C 759.55 794.37 752.54 787.86 747.84 779.72 C 743.22 781.61 737.63 781.60 733.55 778.45 C 728.06 774.15 724.86 767.63 722.64 761.17 C 720.06 753.58 718.78 745.58 715.60 738.19 C 713.34 732.77 710.24 727.76 707.73 722.47 C 694.67 717.72 681.59 712.98 669.05 706.97 C 650.76 697.80 635.51 683.97 619.61 671.35 C 611.18 677.14 600.76 678.31 590.99 680.23 C 578.92 682.62 569.26 690.83 557.91 695.07 C 552.03 697.31 545.99 699.13 539.89 700.63 C 528.80 703.31 517.34 703.73 506.00 704.11 C 496.96 704.39 487.81 703.55 478.91 705.45 C 470.29 707.25 462.53 711.57 454.49 714.98 C 467.20 723.88 478.79 734.44 488.23 746.77 C 493.59 753.92 497.64 762.84 496.23 771.96 C 495.57 777.46 492.74 783.07 487.60 785.61 C 481.01 788.91 473.31 787.33 466.65 785.11 C 453.87 780.91 442.92 772.88 432.46 764.68 C 420.83 755.45 406.65 750.54 393.94 743.13 C 386.27 738.41 378.71 732.48 374.93 724.06 C 372.21 718.03 371.76 710.96 373.74 704.66 C 375.97 699.56 379.36 695.07 382.67 690.63 C 388.03 684.05 393.74 677.44 401.18 673.15 C 407.26 669.79 414.70 667.86 421.41 670.54 C 428.72 664.50 437.36 660.29 446.37 657.45 C 453.93 654.81 461.83 653.18 469.27 650.20 C 473.69 648.44 477.60 645.70 481.55 643.11 C 480.59 643.21 478.66 643.43 477.70 643.53 C 464.61 631.67 453.01 617.96 444.52 602.42 C 440.69 595.44 436.81 588.47 433.41 581.27 C 428.66 587.68 424.86 594.93 424.06 602.99 C 422.67 602.51 421.22 602.27 419.77 602.23 C 417.49 617.52 419.12 633.80 412.08 648.03 C 406.69 660.36 395.07 668.30 383.61 674.46 C 376.05 678.70 367.31 680.36 360.01 685.12 C 346.51 693.55 335.26 704.96 322.99 714.99 C 307.43 727.83 291.92 740.74 275.57 752.56 C 260.97 763.69 245.54 773.71 229.40 782.46 C 223.96 785.52 217.71 786.79 212.37 790.03 C 209.44 804.49 199.27 816.11 188.15 825.19 C 180.54 831.34 172.05 836.46 162.94 840.06 C 153.45 843.79 143.09 844.45 133.00 844.20 C 125.07 843.94 117.50 839.14 114.05 831.98 C 111.18 825.96 109.76 818.92 111.64 812.39 C 115.08 800.73 123.04 790.85 132.82 783.82 C 148.41 772.28 165.46 761.24 184.93 758.03 C 203.93 731.45 220.62 703.02 242.99 679.01 C 255.77 665.41 269.27 652.37 284.35 641.33 C 299.41 630.01 316.68 621.67 334.74 616.37 C 334.99 611.55 335.23 606.73 335.58 601.92 C 333.56 600.86 331.69 599.29 331.49 596.87 C 328.50 578.42 329.60 559.58 326.88 541.10 C 325.57 530.30 322.14 519.89 321.04 509.07 C 319.20 493.97 322.79 478.07 331.58 465.59 C 328.49 463.49 325.85 459.69 327.86 455.92 C 332.68 446.86 338.05 437.89 340.64 427.86 C 342.03 422.71 343.20 417.04 347.31 413.29 C 352.27 408.69 359.46 407.92 364.72 403.75 C 371.13 398.84 376.80 392.93 383.85 388.88 C 394.65 382.58 406.51 378.28 418.44 374.65 C 443.53 367.18 469.95 364.66 496.04 366.08 C 513.62 366.88 531.01 370.46 547.60 376.30 C 550.52 377.33 553.21 378.90 555.69 380.77 C 574.49 376.97 594.11 377.63 612.54 383.02 C 611.84 372.81 614.03 362.43 619.50 353.72 C 616.74 354.40 614.00 355.65 611.11 355.27 C 610.56 351.71 612.99 348.74 614.42 345.71 C 611.75 346.76 609.23 349.37 606.19 348.69 C 605.00 347.41 606.09 345.57 606.41 344.16 C 610.12 335.01 615.30 326.37 622.18 319.25 C 626.17 315.12 630.54 311.01 636.13 309.22 C 639.57 308.43 641.75 305.52 644.32 303.36 C 652.43 296.27 662.88 292.76 671.49 286.41 M 454.55 371.81 C 435.04 374.15 415.77 378.96 397.70 386.72 C 391.16 389.50 384.77 392.76 379.18 397.19 C 373.35 401.66 368.32 407.31 361.59 410.48 C 357.82 412.35 353.57 413.46 350.39 416.33 C 347.10 419.35 346.24 423.93 345.14 428.06 C 343.41 435.59 340.19 442.68 336.47 449.43 C 334.58 452.91 332.22 456.14 330.78 459.85 C 337.46 464.11 345.05 466.46 352.60 468.63 C 366.80 472.77 380.83 477.82 393.72 485.18 C 409.91 494.02 425.52 504.25 438.64 517.31 C 445.97 524.32 451.99 532.81 460.61 538.38 C 473.83 547.11 488.80 552.63 503.31 558.78 C 521.26 566.10 540.74 570.34 556.96 581.36 C 556.76 577.48 557.01 573.53 556.20 569.70 C 553.11 558.56 546.39 548.79 538.43 540.55 C 524.51 526.13 509.18 513.17 494.90 499.11 C 492.42 496.80 490.51 493.93 489.57 490.67 C 493.98 492.51 497.29 496.03 500.80 499.14 C 509.79 507.20 518.98 515.03 527.94 523.12 C 538.80 533.36 549.36 544.47 555.65 558.20 C 554.49 551.12 553.12 544.05 550.85 537.24 C 548.10 528.51 544.36 520.04 542.80 510.97 C 544.83 511.55 546.61 512.77 547.23 514.89 C 552.88 529.14 558.96 543.51 560.55 558.92 C 561.96 569.33 561.28 579.99 563.85 590.24 C 567.58 606.32 572.99 622.52 583.34 635.63 C 594.23 649.08 609.79 657.26 623.16 667.86 C 634.73 676.94 645.53 687.07 657.98 695.01 C 672.92 705.12 690.03 711.24 706.78 717.60 C 708.60 705.01 719.00 695.86 729.75 690.31 C 721.32 684.84 713.00 679.13 705.43 672.51 C 695.56 664.33 687.44 653.66 675.38 648.49 C 661.95 641.43 646.40 637.27 635.50 626.21 C 631.67 626.66 627.70 626.59 624.13 624.99 C 618.31 622.44 612.72 619.21 607.88 615.08 C 606.01 613.65 605.13 611.43 604.43 609.28 C 609.63 611.11 613.65 615.09 618.57 617.48 C 623.21 620.15 628.39 621.67 633.69 622.25 C 625.43 616.55 616.65 611.54 609.11 604.86 C 602.43 599.11 597.12 591.95 592.59 584.44 C 590.50 580.70 588.25 576.79 588.04 572.41 C 588.51 572.39 589.46 572.33 589.94 572.30 C 592.15 575.13 593.51 578.51 595.57 581.45 C 600.50 588.68 606.17 595.51 613.01 601.01 C 619.30 606.07 626.15 610.37 632.85 614.87 C 632.73 609.20 632.64 603.47 634.03 597.94 C 635.44 592.39 635.89 586.62 635.56 580.92 C 635.18 575.21 633.25 569.73 632.93 564.01 C 632.40 555.04 632.22 545.76 635.35 537.19 C 635.95 535.36 637.24 533.89 638.44 532.45 C 638.40 537.35 637.07 542.13 636.88 547.03 C 636.44 556.14 636.94 565.35 639.03 574.26 C 647.33 559.35 663.25 551.60 675.14 540.07 C 677.01 538.19 679.35 536.91 681.94 536.31 C 680.64 539.63 678.37 542.40 675.95 544.97 C 666.04 555.41 653.05 562.74 644.55 574.57 C 643.01 576.73 642.49 579.38 641.83 581.91 C 651.02 572.51 663.44 565.32 676.89 565.40 C 678.94 565.23 680.34 566.86 681.82 568.02 C 676.98 569.11 671.99 569.53 667.31 571.22 C 656.86 575.27 648.00 582.58 641.03 591.26 C 649.39 599.10 656.13 608.53 661.48 618.63 C 664.83 625.14 667.82 631.98 668.90 639.28 C 677.23 643.21 685.93 646.84 692.78 653.19 C 699.35 659.29 705.61 665.72 712.52 671.44 C 719.64 677.45 727.31 682.76 734.46 688.74 C 741.54 687.31 748.71 689.30 754.75 693.04 C 758.42 690.04 762.50 687.57 766.89 685.78 C 760.21 679.84 754.63 672.82 749.45 665.57 C 744.24 658.57 738.81 651.24 730.92 647.09 C 722.99 642.70 713.77 642.17 704.96 641.11 C 703.02 640.70 699.75 640.82 700.08 637.96 C 708.07 635.45 716.63 637.46 724.65 638.95 C 723.65 634.32 721.09 629.17 716.03 628.10 C 709.58 627.15 703.47 631.26 696.99 629.88 C 694.76 629.83 693.12 628.36 691.87 626.68 C 698.98 625.90 705.91 624.03 713.01 623.19 C 713.78 620.87 714.60 618.52 714.71 616.05 C 715.34 598.99 705.50 582.91 708.76 565.76 C 711.44 553.01 715.25 540.52 719.11 528.09 C 723.14 515.32 724.13 501.75 722.54 488.48 C 716.55 492.65 708.81 494.85 701.73 492.19 C 693.23 488.91 685.75 483.39 678.97 477.39 C 673.77 483.00 669.33 489.81 662.34 493.36 C 657.12 496.05 651.01 493.84 646.91 490.17 C 637.74 482.63 633.89 470.78 631.65 459.54 C 629.13 447.88 630.76 435.94 631.30 424.18 C 628.47 418.97 625.32 413.94 622.11 408.97 C 617.72 402.06 614.99 394.26 613.04 386.35 C 603.47 384.40 593.81 382.55 584.02 382.46 C 571.93 382.18 560.03 384.68 548.29 387.25 C 539.78 389.10 531.39 391.41 523.05 393.90 C 517.40 395.51 512.00 398.40 505.98 398.20 C 508.64 394.33 513.57 393.52 517.56 391.61 C 528.63 386.69 540.43 383.72 552.29 381.39 C 521.14 370.08 487.28 367.95 454.55 371.81 M 730.73 392.23 C 731.12 394.73 734.05 397.81 732.39 400.08 C 722.89 395.65 711.91 399.67 702.43 395.22 C 702.97 396.49 703.44 397.79 703.86 399.12 C 700.88 399.77 696.81 397.85 694.77 400.80 C 691.11 406.86 690.76 414.25 687.92 420.61 C 687.17 420.68 685.66 420.83 684.90 420.90 C 685.84 424.22 687.14 427.41 688.35 430.64 C 678.66 427.67 668.69 422.22 664.26 412.63 C 661.66 407.79 660.92 401.97 657.32 397.69 C 654.31 394.03 647.23 396.24 646.96 401.02 C 646.25 407.20 648.03 413.52 651.14 418.85 C 652.74 421.64 655.86 423.34 656.95 426.44 C 652.04 427.88 646.97 425.95 643.70 422.19 C 641.49 424.43 638.51 425.06 635.52 424.24 C 633.65 434.87 633.97 445.85 635.64 456.49 C 638.00 467.43 641.20 479.39 650.36 486.68 C 653.33 489.30 657.82 490.85 661.42 488.51 C 667.20 484.81 671.13 478.97 676.15 474.39 C 671.50 469.08 667.76 463.08 663.68 457.34 C 662.34 455.15 660.06 452.73 661.33 449.99 C 663.82 450.29 665.25 452.48 666.72 454.26 C 671.10 459.90 675.33 465.66 680.04 471.03 C 685.06 476.76 691.44 481.11 698.00 484.88 C 702.14 487.25 707.08 488.97 711.87 487.67 C 717.57 486.23 721.90 481.89 725.56 477.51 C 732.08 469.56 738.34 461.31 743.30 452.27 C 746.88 445.70 748.33 438.27 749.79 431.01 C 745.30 430.23 740.83 429.42 736.31 428.97 C 734.08 430.30 731.88 432.41 729.13 432.23 C 723.09 428.38 717.55 423.77 711.73 419.59 C 715.63 416.93 720.16 414.90 724.99 415.20 C 734.81 414.91 744.88 419.06 750.72 427.14 C 752.35 420.50 755.68 414.47 759.47 408.83 C 756.68 405.88 752.70 404.72 749.27 402.76 C 742.93 399.51 737.33 394.97 730.73 392.23 M 339.38 599.11 C 339.70 604.44 339.59 609.78 339.50 615.12 C 341.23 615.41 342.97 615.86 344.42 616.92 C 341.07 618.81 337.30 619.66 333.66 620.77 C 333.94 625.38 335.01 629.91 336.86 634.15 C 341.19 644.12 347.12 653.42 354.37 661.52 C 359.23 666.70 364.44 672.01 371.22 674.56 C 375.70 673.40 379.75 670.98 383.84 668.86 C 393.31 663.44 403.10 656.86 407.51 646.43 C 414.65 631.87 412.04 615.22 415.00 599.72 C 407.27 596.74 399.28 594.39 391.09 593.11 C 373.78 590.36 355.30 591.19 339.38 599.11 M 639.31 595.62 C 638.19 600.23 637.63 604.95 637.60 609.69 C 642.39 614.84 645.30 621.50 646.02 628.48 C 651.94 631.90 658.15 634.77 664.46 637.38 C 659.12 621.92 650.40 607.63 639.31 595.62 M 535.37 621.52 C 544.82 633.24 557.85 641.16 569.09 650.96 C 571.10 652.60 572.60 654.77 572.84 657.45 C 559.57 647.63 545.18 638.86 534.49 626.03 C 535.21 631.36 536.25 636.73 538.56 641.63 C 542.79 650.46 550.26 657.29 558.18 662.82 C 566.61 667.94 575.93 671.39 585.03 675.14 C 587.53 676.48 590.32 675.60 592.94 675.18 C 600.82 673.84 608.91 672.57 616.07 668.80 C 606.56 661.70 596.27 655.60 587.52 647.52 C 576.28 637.64 568.85 624.18 563.83 610.24 C 554.80 615.09 544.93 617.96 535.37 621.52 M 637.71 614.59 C 637.59 618.96 638.76 623.34 642.31 626.15 C 641.41 622.07 639.89 618.15 637.71 614.59 M 513.50 629.16 C 518.81 628.22 524.08 627.02 529.44 626.39 C 529.46 625.42 529.49 624.46 529.53 623.51 C 524.19 625.41 518.79 627.12 513.50 629.16 M 397.36 682.27 C 390.16 689.17 383.08 696.61 378.75 705.71 C 376.38 710.30 376.79 715.82 378.63 720.52 C 381.44 727.71 387.56 732.94 393.84 737.10 C 406.55 745.03 421.16 749.63 433.10 758.86 C 445.28 768.22 457.75 778.23 473.01 781.90 C 477.84 782.96 483.83 783.47 487.62 779.64 C 491.33 775.49 491.69 769.34 490.73 764.11 C 488.66 754.95 482.25 747.67 476.05 740.96 C 467.96 732.52 459.88 724.04 451.15 716.25 C 444.10 718.23 436.66 720.25 429.32 718.64 C 425.68 717.91 422.48 715.77 420.06 713.01 C 413.39 705.47 409.21 695.04 411.33 684.92 C 412.14 680.29 415.39 676.70 418.23 673.17 C 410.52 673.93 402.99 676.85 397.36 682.27 M 758.76 696.08 C 767.46 705.77 775.25 716.33 785.09 724.94 C 795.60 735.05 807.58 743.42 819.87 751.19 C 828.53 756.60 834.37 766.06 834.88 776.32 C 837.52 775.44 840.02 774.16 842.17 772.37 C 836.73 766.74 830.45 761.36 827.46 753.94 C 828.15 751.98 829.16 751.82 830.48 753.45 C 835.66 757.94 839.56 763.81 845.18 767.80 C 850.02 770.88 856.03 768.33 860.14 765.18 C 857.50 762.05 854.57 759.14 851.16 756.85 C 845.76 752.99 839.23 750.92 834.29 746.40 C 842.35 746.50 849.76 750.27 856.28 754.72 C 858.25 756.10 860.50 757.31 863.01 756.87 C 869.66 756.28 876.76 755.38 882.31 751.37 C 884.97 749.75 886.01 744.78 882.60 743.44 C 877.45 740.95 871.55 741.34 865.99 741.16 C 854.56 741.21 843.16 739.59 832.13 736.63 C 828.80 735.74 825.71 734.15 822.85 732.25 C 829.74 723.79 841.89 725.89 850.43 720.36 C 852.64 719.13 852.45 715.82 850.82 714.20 C 848.62 712.05 845.56 711.14 842.64 710.48 C 835.20 708.96 827.57 709.00 820.02 708.87 C 812.11 708.79 804.19 707.23 796.91 704.12 C 789.34 700.87 784.09 694.00 776.66 690.54 C 770.18 688.17 763.75 692.29 758.76 696.08 M 728.35 696.43 C 721.75 700.59 715.50 706.16 712.57 713.56 C 710.63 720.21 716.12 725.69 718.76 731.27 C 725.17 742.87 725.19 756.79 731.68 768.34 C 733.87 772.10 737.13 776.42 741.99 776.19 C 746.26 774.07 749.01 769.54 750.05 765.01 C 751.09 757.67 746.83 750.97 746.80 743.69 C 748.44 744.85 750.23 746.08 750.93 748.10 C 753.66 754.43 756.21 761.81 753.49 768.58 C 752.73 770.98 751.06 773.27 751.21 775.87 C 752.70 780.47 756.21 784.06 759.42 787.55 C 764.12 792.22 768.98 797.02 775.00 799.95 C 776.74 800.62 779.52 801.70 780.68 799.59 C 783.53 795.06 782.38 789.26 780.34 784.65 C 778.02 779.57 776.04 774.34 773.68 769.29 C 771.71 765.06 767.65 762.41 765.19 758.52 C 767.83 758.81 770.59 759.44 772.62 761.28 C 778.13 765.77 779.87 772.98 782.83 779.13 C 786.20 786.31 789.40 794.14 795.83 799.16 C 797.13 799.87 798.80 801.63 800.24 800.27 C 802.94 798.57 804.26 795.09 803.25 792.04 C 800.72 781.05 792.80 772.59 786.01 764.00 C 783.55 760.68 779.67 758.10 778.82 753.84 C 785.07 754.43 788.43 760.47 792.25 764.70 C 799.30 772.87 804.84 783.35 815.22 787.80 C 818.01 788.79 821.58 790.39 824.24 788.30 C 825.34 786.33 824.45 783.93 823.91 781.91 C 822.52 777.55 819.70 773.70 815.90 771.14 C 810.28 767.13 805.01 762.69 799.67 758.34 C 796.48 755.70 792.73 753.82 789.66 751.05 C 790.39 747.85 794.34 749.71 796.25 750.77 C 807.53 758.16 816.93 768.62 829.64 773.74 C 828.49 770.00 827.32 766.17 825.01 762.96 C 821.99 758.65 817.53 755.69 813.18 752.88 C 793.72 740.60 775.95 725.36 761.86 707.10 C 757.52 701.46 752.60 695.74 745.72 693.25 C 739.84 691.12 733.41 693.24 728.35 696.43 M 180.33 763.44 C 167.52 768.07 155.47 774.69 144.07 782.11 C 136.09 787.57 127.58 792.93 122.19 801.19 C 117.83 807.79 113.69 815.78 116.04 823.89 C 117.44 831.28 122.98 837.94 130.54 839.44 C 141.01 841.32 152.02 840.00 161.82 835.86 C 177.98 829.06 192.16 817.72 202.52 803.58 C 209.51 793.73 211.38 778.59 202.97 769.01 C 197.39 762.89 188.10 761.01 180.33 763.44 Z" />
<path fill="#020202" opacity="1.00" d=" M 374.03 431.85 C 373.28 430.32 374.17 428.74 374.67 427.31 C 379.13 435.23 385.38 441.89 391.18 448.82 C 397.95 456.68 404.77 464.52 411.99 471.98 C 416.82 477.13 422.45 481.63 426.29 487.65 C 422.08 486.30 418.94 483.08 415.68 480.27 C 404.63 470.33 394.71 459.23 384.98 448.03 C 380.83 443.02 376.42 437.98 374.03 431.85 Z" />
<path fill="#020202" opacity="1.00" d=" M 414.71 436.47 C 418.39 439.50 420.70 443.73 423.40 447.58 C 434.84 464.21 447.83 479.69 460.96 495.00 C 469.83 505.45 479.48 515.25 489.94 524.12 C 498.16 531.24 507.42 537.18 514.76 545.28 C 516.56 547.12 517.84 549.38 518.71 551.81 C 515.37 550.17 512.70 547.56 509.95 545.13 C 504.42 540.23 498.27 536.11 492.47 531.55 C 480.88 522.61 470.09 512.63 460.36 501.69 C 444.71 484.05 429.95 465.50 417.87 445.21 C 416.22 442.54 415.10 439.58 414.71 436.47 Z" />
</g>
<g id="#f25e11ff">
<path fill="var(--shirt-color, grey)" opacity="1.00" d=" M 454.55 371.81 C 487.28 367.95 521.14 370.08 552.29 381.39 C 540.43 383.72 528.63 386.69 517.56 391.61 C 513.57 393.52 508.64 394.33 505.98 398.20 C 512.00 398.40 517.40 395.51 523.05 393.90 C 531.39 391.41 539.78 389.10 548.29 387.25 C 560.03 384.68 571.93 382.18 584.02 382.46 C 593.81 382.55 603.47 384.40 613.04 386.35 C 614.99 394.26 617.72 402.06 622.11 408.97 C 625.32 413.94 628.47 418.97 631.30 424.18 C 630.76 435.94 629.13 447.88 631.65 459.54 C 633.89 470.78 637.74 482.63 646.91 490.17 C 651.01 493.84 657.12 496.05 662.34 493.36 C 669.33 489.81 673.77 483.00 678.97 477.39 C 685.75 483.39 693.23 488.91 701.73 492.19 C 708.81 494.85 716.55 492.65 722.54 488.48 C 724.13 501.75 723.14 515.32 719.11 528.09 C 715.25 540.52 711.44 553.01 708.76 565.76 C 705.50 582.91 715.34 598.99 714.71 616.05 C 714.60 618.52 713.78 620.87 713.01 623.19 C 705.91 624.03 698.98 625.90 691.87 626.68 C 693.12 628.36 694.76 629.83 696.99 629.88 C 703.47 631.26 709.58 627.15 716.03 628.10 C 721.09 629.17 723.65 634.32 724.65 638.95 C 716.63 637.46 708.07 635.45 700.08 637.96 C 699.75 640.82 703.02 640.70 704.96 641.11 C 713.77 642.17 722.99 642.70 730.92 647.09 C 738.81 651.24 744.24 658.57 749.45 665.57 C 754.63 672.82 760.21 679.84 766.89 685.78 C 762.50 687.57 758.42 690.04 754.75 693.04 C 748.71 689.30 741.54 687.31 734.46 688.74 C 727.31 682.76 719.64 677.45 712.52 671.44 C 705.61 665.72 699.35 659.29 692.78 653.19 C 685.93 646.84 677.23 643.21 668.90 639.28 C 667.82 631.98 664.83 625.14 661.48 618.63 C 656.13 608.53 649.39 599.10 641.03 591.26 C 648.00 582.58 656.86 575.27 667.31 571.22 C 671.99 569.53 676.98 569.11 681.82 568.02 C 680.34 566.86 678.94 565.23 676.89 565.40 C 663.44 565.32 651.02 572.51 641.83 581.91 C 642.49 579.38 643.01 576.73 644.55 574.57 C 653.05 562.74 666.04 555.41 675.95 544.97 C 678.37 542.40 680.64 539.63 681.94 536.31 C 679.35 536.91 677.01 538.19 675.14 540.07 C 663.25 551.60 647.33 559.35 639.03 574.26 C 636.94 565.35 636.44 556.14 636.88 547.03 C 637.07 542.13 638.40 537.35 638.44 532.45 C 637.24 533.89 635.95 535.36 635.35 537.19 C 632.22 545.76 632.40 555.04 632.93 564.01 C 633.25 569.73 635.18 575.21 635.56 580.92 C 635.89 586.62 635.44 592.39 634.03 597.94 C 632.64 603.47 632.73 609.20 632.85 614.87 C 626.15 610.37 619.30 606.07 613.01 601.01 C 606.17 595.51 600.50 588.68 595.57 581.45 C 593.51 578.51 592.15 575.13 589.94 572.30 C 589.46 572.33 588.51 572.39 588.04 572.41 C 588.25 576.79 590.50 580.70 592.59 584.44 C 597.12 591.95 602.43 599.11 609.11 604.86 C 616.65 611.54 625.43 616.55 633.69 622.25 C 628.39 621.67 623.21 620.15 618.57 617.48 C 613.65 615.09 609.63 611.11 604.43 609.28 C 605.13 611.43 606.01 613.65 607.88 615.08 C 612.72 619.21 618.31 622.44 624.13 624.99 C 627.70 626.59 631.67 626.66 635.50 626.21 C 646.40 637.27 661.95 641.43 675.38 648.49 C 687.44 653.66 695.56 664.33 705.43 672.51 C 713.00 679.13 721.32 684.84 729.75 690.31 C 719.00 695.86 708.60 705.01 706.78 717.60 C 690.03 711.24 672.92 705.12 657.98 695.01 C 645.53 687.07 634.73 676.94 623.16 667.86 C 609.79 657.26 594.23 649.08 583.34 635.63 C 572.99 622.52 567.58 606.32 563.85 590.24 C 561.28 579.99 561.96 569.33 560.55 558.92 C 558.96 543.51 552.88 529.14 547.23 514.89 C 546.61 512.77 544.83 511.55 542.80 510.97 C 544.36 520.04 548.10 528.51 550.85 537.24 C 553.12 544.05 554.49 551.12 555.65 558.20 C 549.36 544.47 538.80 533.36 527.94 523.12 C 518.98 515.03 509.79 507.20 500.80 499.14 C 497.29 496.03 493.98 492.51 489.57 490.67 C 490.51 493.93 492.42 496.80 494.90 499.11 C 509.18 513.17 524.51 526.13 538.43 540.55 C 546.39 548.79 553.11 558.56 556.20 569.70 C 557.01 573.53 556.76 577.48 556.96 581.36 C 540.74 570.34 521.26 566.10 503.31 558.78 C 488.80 552.63 473.83 547.11 460.61 538.38 C 451.99 532.81 445.97 524.32 438.64 517.31 C 425.52 504.25 409.91 494.02 393.72 485.18 C 380.83 477.82 366.80 472.77 352.60 468.63 C 345.05 466.46 337.46 464.11 330.78 459.85 C 332.22 456.14 334.58 452.91 336.47 449.43 C 340.19 442.68 343.41 435.59 345.14 428.06 C 346.24 423.93 347.10 419.35 350.39 416.33 C 353.57 413.46 357.82 412.35 361.59 410.48 C 368.32 407.31 373.35 401.66 379.18 397.19 C 384.77 392.76 391.16 389.50 397.70 386.72 C 415.77 378.96 435.04 374.15 454.55 371.81 M 374.03 431.85 C 376.42 437.98 380.83 443.02 384.98 448.03 C 394.71 459.23 404.63 470.33 415.68 480.27 C 418.94 483.08 422.08 486.30 426.29 487.65 C 422.45 481.63 416.82 477.13 411.99 471.98 C 404.77 464.52 397.95 456.68 391.18 448.82 C 385.38 441.89 379.13 435.23 374.67 427.31 C 374.17 428.74 373.28 430.32 374.03 431.85 M 414.71 436.47 C 415.10 439.58 416.22 442.54 417.87 445.21 C 429.95 465.50 444.71 484.05 460.36 501.69 C 470.09 512.63 480.88 522.61 492.47 531.55 C 498.27 536.11 504.42 540.23 509.95 545.13 C 512.70 547.56 515.37 550.17 518.71 551.81 C 517.84 549.38 516.56 547.12 514.76 545.28 C 507.42 537.18 498.16 531.24 489.94 524.12 C 479.48 515.25 469.83 505.45 460.96 495.00 C 447.83 479.69 434.84 464.21 423.40 447.58 C 420.70 443.73 418.39 439.50 414.71 436.47 Z" />
</g>
<g id="#f0b58bff">
<path fill="#f0b58b" opacity="1.00" d=" M 730.73 392.23 C 737.33 394.97 742.93 399.51 749.27 402.76 C 752.70 404.72 756.68 405.88 759.47 408.83 C 755.68 414.47 752.35 420.50 750.72 427.14 C 744.88 419.06 734.81 414.91 724.99 415.20 C 720.16 414.90 715.63 416.93 711.73 419.59 C 717.55 423.77 723.09 428.38 729.13 432.23 C 731.88 432.41 734.08 430.30 736.31 428.97 C 740.83 429.42 745.30 430.23 749.79 431.01 C 748.33 438.27 746.88 445.70 743.30 452.27 C 738.34 461.31 732.08 469.56 725.56 477.51 C 721.90 481.89 717.57 486.23 711.87 487.67 C 707.08 488.97 702.14 487.25 698.00 484.88 C 691.44 481.11 685.06 476.76 680.04 471.03 C 675.33 465.66 671.10 459.90 666.72 454.26 C 665.25 452.48 663.82 450.29 661.33 449.99 C 660.06 452.73 662.34 455.15 663.68 457.34 C 667.76 463.08 671.50 469.08 676.15 474.39 C 671.13 478.97 667.20 484.81 661.42 488.51 C 657.82 490.85 653.33 489.30 650.36 486.68 C 641.20 479.39 638.00 467.43 635.64 456.49 C 633.97 445.85 633.65 434.87 635.52 424.24 C 638.51 425.06 641.49 424.43 643.70 422.19 C 646.97 425.95 652.04 427.88 656.95 426.44 C 655.86 423.34 652.74 421.64 651.14 418.85 C 648.03 413.52 646.25 407.20 646.96 401.02 C 647.23 396.24 654.31 394.03 657.32 397.69 C 660.92 401.97 661.66 407.79 664.26 412.63 C 668.69 422.22 678.66 427.67 688.35 430.64 C 687.14 427.41 685.84 424.22 684.90 420.90 C 685.66 420.83 687.17 420.68 687.92 420.61 C 690.76 414.25 691.11 406.86 694.77 400.80 C 696.81 397.85 700.88 399.77 703.86 399.12 C 703.44 397.79 702.97 396.49 702.43 395.22 C 711.91 399.67 722.89 395.65 732.39 400.08 C 734.05 397.81 731.12 394.73 730.73 392.23 Z" />
<path fill="#f0b58b" opacity="1.00" d=" M 339.38 599.11 C 355.30 591.19 373.78 590.36 391.09 593.11 C 399.28 594.39 407.27 596.74 415.00 599.72 C 412.04 615.22 414.65 631.87 407.51 646.43 C 403.10 656.86 393.31 663.44 383.84 668.86 C 379.75 670.98 375.70 673.40 371.22 674.56 C 364.44 672.01 359.23 666.70 354.37 661.52 C 347.12 653.42 341.19 644.12 336.86 634.15 C 335.01 629.91 333.94 625.38 333.66 620.77 C 337.30 619.66 341.07 618.81 344.42 616.92 C 342.97 615.86 341.23 615.41 339.50 615.12 C 339.59 609.78 339.70 604.44 339.38 599.11 Z" />
<path fill="#f0b58b" opacity="1.00" d=" M 535.37 621.52 C 544.93 617.96 554.80 615.09 563.83 610.24 C 568.85 624.18 576.28 637.64 587.52 647.52 C 596.27 655.60 606.56 661.70 616.07 668.80 C 608.91 672.57 600.82 673.84 592.94 675.18 C 590.32 675.60 587.53 676.48 585.03 675.14 C 575.93 671.39 566.61 667.94 558.18 662.82 C 550.26 657.29 542.79 650.46 538.56 641.63 C 536.25 636.73 535.21 631.36 534.49 626.03 C 545.18 638.86 559.57 647.63 572.84 657.45 C 572.60 654.77 571.10 652.60 569.09 650.96 C 557.85 641.16 544.82 633.24 535.37 621.52 Z" />
<path fill="#f0b58b" opacity="1.00" d=" M 637.71 614.59 C 639.89 618.15 641.41 622.07 642.31 626.15 C 638.76 623.34 637.59 618.96 637.71 614.59 Z" />
</g>
<g id="#4d4d4dff">
<path fill="#4d4d4d" opacity="1.00" d=" M 397.36 682.27 C 402.99 676.85 410.52 673.93 418.23 673.17 C 415.39 676.70 412.14 680.29 411.33 684.92 C 409.21 695.04 413.39 705.47 420.06 713.01 C 422.48 715.77 425.68 717.91 429.32 718.64 C 436.66 720.25 444.10 718.23 451.15 716.25 C 459.88 724.04 467.96 732.52 476.05 740.96 C 482.25 747.67 488.66 754.95 490.73 764.11 C 491.69 769.34 491.33 775.49 487.62 779.64 C 483.83 783.47 477.84 782.96 473.01 781.90 C 457.75 778.23 445.28 768.22 433.10 758.86 C 421.16 749.63 406.55 745.03 393.84 737.10 C 387.56 732.94 381.44 727.71 378.63 720.52 C 376.79 715.82 376.38 710.30 378.75 705.71 C 383.08 696.61 390.16 689.17 397.36 682.27 Z" />
<path fill="#4d4d4d" opacity="1.00" d=" M 758.76 696.08 C 763.75 692.29 770.18 688.17 776.66 690.54 C 784.09 694.00 789.34 700.87 796.91 704.12 C 804.19 707.23 812.11 708.79 820.02 708.87 C 827.57 709.00 835.20 708.96 842.64 710.48 C 845.56 711.14 848.62 712.05 850.82 714.20 C 852.45 715.82 852.64 719.13 850.43 720.36 C 841.89 725.89 829.74 723.79 822.85 732.25 C 825.71 734.15 828.80 735.74 832.13 736.63 C 843.16 739.59 854.56 741.21 865.99 741.16 C 871.55 741.34 877.45 740.95 882.60 743.44 C 886.01 744.78 884.97 749.75 882.31 751.37 C 876.76 755.38 869.66 756.28 863.01 756.87 C 860.50 757.31 858.25 756.10 856.28 754.72 C 849.76 750.27 842.35 746.50 834.29 746.40 C 839.23 750.92 845.76 752.99 851.16 756.85 C 854.57 759.14 857.50 762.05 860.14 765.18 C 856.03 768.33 850.02 770.88 845.18 767.80 C 839.56 763.81 835.66 757.94 830.48 753.45 C 829.16 751.82 828.15 751.98 827.46 753.94 C 830.45 761.36 836.73 766.74 842.17 772.37 C 840.02 774.16 837.52 775.44 834.88 776.32 C 834.37 766.06 828.53 756.60 819.87 751.19 C 807.58 743.42 795.60 735.05 785.09 724.94 C 775.25 716.33 767.46 705.77 758.76 696.08 Z" />
<path fill="#4d4d4d" opacity="1.00" d=" M 728.35 696.43 C 733.41 693.24 739.84 691.12 745.72 693.25 C 752.60 695.74 757.52 701.46 761.86 707.10 C 775.95 725.36 793.72 740.60 813.18 752.88 C 817.53 755.69 821.99 758.65 825.01 762.96 C 827.32 766.17 828.49 770.00 829.64 773.74 C 816.93 768.62 807.53 758.16 796.25 750.77 C 794.34 749.71 790.39 747.85 789.66 751.05 C 792.73 753.82 796.48 755.70 799.67 758.34 C 805.01 762.69 810.28 767.13 815.90 771.14 C 819.70 773.70 822.52 777.55 823.91 781.91 C 824.45 783.93 825.34 786.33 824.24 788.30 C 821.58 790.39 818.01 788.79 815.22 787.80 C 804.84 783.35 799.30 772.87 792.25 764.70 C 788.43 760.47 785.07 754.43 778.82 753.84 C 779.67 758.10 783.55 760.68 786.01 764.00 C 792.80 772.59 800.72 781.05 803.25 792.04 C 804.26 795.09 802.94 798.57 800.24 800.27 C 798.80 801.63 797.13 799.87 795.83 799.16 C 789.40 794.14 786.20 786.31 782.83 779.13 C 779.87 772.98 778.13 765.77 772.62 761.28 C 770.59 759.44 767.83 758.81 765.19 758.52 C 767.65 762.41 771.71 765.06 773.68 769.29 C 776.04 774.34 778.02 779.57 780.34 784.65 C 782.38 789.26 783.53 795.06 780.68 799.59 C 779.52 801.70 776.74 800.62 775.00 799.95 C 768.98 797.02 764.12 792.22 759.42 787.55 C 756.21 784.06 752.70 780.47 751.21 775.87 C 751.06 773.27 752.73 770.98 753.49 768.58 C 756.21 761.81 753.66 754.43 750.93 748.10 C 750.23 746.08 748.44 744.85 746.80 743.69 C 746.83 750.97 751.09 757.67 750.05 765.01 C 749.01 769.54 746.26 774.07 741.99 776.19 C 737.13 776.42 733.87 772.10 731.68 768.34 C 725.19 756.79 725.17 742.87 718.76 731.27 C 716.12 725.69 710.63 720.21 712.57 713.56 C 715.50 706.16 721.75 700.59 728.35 696.43 Z" />
<path fill="#4d4d4d" opacity="1.00" d=" M 180.33 763.44 C 188.10 761.01 197.39 762.89 202.97 769.01 C 211.38 778.59 209.51 793.73 202.52 803.58 C 192.16 817.72 177.98 829.06 161.82 835.86 C 152.02 840.00 141.01 841.32 130.54 839.44 C 122.98 837.94 117.44 831.28 116.04 823.89 C 113.69 815.78 117.83 807.79 122.19 801.19 C 127.58 792.93 136.09 787.57 144.07 782.11 C 155.47 774.69 167.52 768.07 180.33 763.44 Z" />
</g>
</svg>
