<?xml version="1.0" encoding="UTF-8" ?>
<!DOCTYPE svg PUBLIC "-//W3C//DTD SVG 1.1//EN" "http://www.w3.org/Graphics/SVG/1.1/DTD/svg11.dtd">
<svg width="1000pt" height="1000pt" viewBox="0 0 1000 1000" version="1.1" xmlns="http://www.w3.org/2000/svg">
<g id="#020202ff">
<path fill="#020202" opacity="1.00" d=" M 608.07 34.04 C 609.50 31.20 611.58 28.01 615.00 27.52 C 618.32 27.12 621.10 29.60 622.80 32.20 C 626.21 37.46 627.82 43.64 629.14 49.71 C 631.10 42.82 634.07 36.11 638.51 30.45 C 639.97 28.58 642.44 26.71 644.91 27.89 C 647.73 29.23 648.88 32.42 649.88 35.17 C 652.24 42.71 652.52 50.73 652.45 58.58 C 654.99 55.84 658.02 52.79 662.06 52.88 C 668.09 53.45 671.58 59.55 672.38 65.01 C 674.60 79.06 671.41 93.21 668.24 106.85 C 670.58 107.43 672.60 108.73 674.26 110.45 C 677.18 96.03 681.77 81.81 688.82 68.86 C 691.38 64.57 694.12 60.06 698.42 57.30 C 701.23 55.42 705.44 55.59 707.72 58.25 C 711.33 62.26 710.92 68.08 710.61 73.08 C 713.72 68.82 717.44 63.99 723.05 63.27 C 726.88 62.73 729.75 66.35 729.94 69.89 C 730.75 78.52 728.14 86.99 726.00 95.26 C 729.74 91.20 733.59 86.67 738.98 84.85 C 743.42 83.58 747.43 87.72 747.74 91.94 C 748.58 99.42 745.01 106.39 742.08 113.02 C 738.52 120.45 734.67 127.75 730.03 134.57 C 734.12 132.64 738.46 130.84 743.06 130.83 C 746.42 130.79 750.11 132.64 751.13 136.04 C 752.19 139.46 750.50 142.93 748.74 145.80 C 743.15 154.68 734.73 161.19 726.66 167.66 C 716.03 176.65 704.48 184.49 692.31 191.23 C 688.72 193.17 684.88 194.54 681.03 195.86 C 680.41 198.79 679.60 201.68 678.44 204.44 C 674.08 215.15 669.74 225.92 664.02 236.00 C 649.90 259.71 632.42 281.37 612.74 300.68 C 598.77 314.26 583.71 326.78 567.27 337.26 C 556.35 344.49 544.46 350.03 532.83 355.98 C 529.84 367.70 530.32 379.98 530.17 391.99 C 530.26 404.32 529.72 416.67 530.62 428.99 C 531.07 435.72 530.78 442.52 529.44 449.15 C 527.25 460.43 521.55 470.56 516.99 481.00 C 509.54 496.61 503.52 512.98 500.48 530.05 C 498.97 538.25 497.97 547.40 502.03 555.03 C 506.04 560.10 512.97 561.22 518.82 563.05 C 526.06 564.82 531.80 570.81 534.18 577.74 C 535.84 583.11 533.80 588.60 531.04 593.20 C 542.01 595.37 553.27 597.98 562.68 604.31 C 573.55 611.54 582.15 621.57 592.61 629.32 C 614.73 645.31 637.32 660.98 656.40 680.65 C 660.57 685.18 664.89 689.87 667.20 695.69 C 669.38 701.46 672.39 706.97 673.56 713.10 C 676.65 727.84 671.83 743.25 663.44 755.43 C 658.32 762.54 651.96 768.63 645.84 774.87 C 639.27 782.35 631.39 788.50 623.65 794.70 C 611.12 803.73 597.66 811.95 582.75 816.33 C 584.91 828.98 583.93 842.45 577.82 853.92 C 573.54 862.20 566.85 869.66 558.03 873.14 C 537.39 882.68 514.01 880.59 492.00 879.03 C 487.16 878.20 482.74 880.62 478.11 881.50 C 457.39 885.92 435.99 884.08 415.17 881.36 C 394.58 878.69 374.45 873.43 354.00 870.01 C 329.82 867.31 305.52 864.23 281.15 865.79 C 279.38 877.06 284.99 887.41 289.91 897.09 C 294.47 906.33 300.81 914.68 304.38 924.41 C 306.15 929.21 306.05 935.36 302.10 939.08 C 298.31 942.52 292.84 942.60 288.02 942.91 C 276.04 943.56 264.84 938.21 254.81 932.23 C 247.69 927.92 240.80 922.95 235.70 916.28 C 230.72 909.81 226.12 903.05 221.91 896.05 C 216.37 886.80 215.22 875.86 213.33 865.46 C 211.14 856.79 211.03 847.81 209.89 838.99 C 209.11 828.97 206.85 818.94 208.15 808.87 C 209.02 801.74 213.34 795.10 219.60 791.56 C 225.55 788.00 232.63 787.53 239.30 786.31 C 250.81 784.44 262.52 785.33 273.98 787.11 C 280.31 788.22 285.66 792.32 289.98 796.90 C 314.27 789.58 339.94 790.94 364.94 792.51 C 388.01 794.26 411.16 794.45 434.24 795.96 C 442.15 796.47 450.08 796.89 458.00 797.26 C 464.33 797.51 470.63 798.53 476.98 798.01 C 473.72 792.09 469.92 786.48 465.74 781.18 C 457.06 784.67 448.11 787.57 438.97 789.54 C 437.08 790.16 435.45 789.07 434.30 787.68 C 420.79 772.36 409.55 755.22 396.23 739.75 C 385.91 727.40 373.85 716.49 364.88 703.04 C 356.16 690.18 348.17 676.80 340.95 663.04 C 338.66 659.08 337.92 654.56 337.31 650.10 C 332.88 631.08 334.15 611.38 335.38 592.07 C 337.27 563.89 341.86 535.99 343.83 507.83 C 344.67 492.59 352.40 478.46 351.53 463.03 C 351.45 452.97 344.72 444.66 343.60 434.82 C 340.34 412.35 341.85 389.58 341.89 366.98 C 342.56 351.29 341.52 335.49 343.99 319.92 C 346.35 303.03 350.15 285.87 359.19 271.19 C 353.30 265.27 347.46 259.24 340.46 254.60 C 333.81 249.29 325.90 245.07 321.25 237.69 C 318.13 233.11 316.68 227.70 315.16 222.45 C 312.98 223.47 310.52 225.28 308.09 223.86 C 304.36 221.83 302.56 217.67 300.90 213.97 C 295.67 201.10 295.50 186.70 297.51 173.12 C 298.73 165.06 301.10 157.14 305.12 150.01 C 301.76 146.87 304.56 142.72 305.41 139.12 C 307.07 132.66 311.10 127.22 315.15 122.06 C 322.06 113.41 329.38 104.73 339.00 98.98 C 352.21 91.47 366.88 85.83 382.26 85.55 C 387.36 75.89 398.92 73.66 408.69 71.76 C 419.31 70.24 430.49 69.72 440.81 73.12 C 442.72 73.43 444.35 76.01 442.55 77.45 C 440.25 78.80 437.61 79.39 435.11 80.24 C 442.94 84.62 449.52 90.86 455.32 97.64 C 462.83 106.61 469.31 117.08 470.57 128.96 C 471.61 135.58 469.95 142.33 471.14 148.91 C 476.78 163.76 484.77 177.99 487.16 193.88 C 488.75 209.17 487.60 225.11 481.68 239.43 C 493.80 229.81 506.79 221.40 519.30 212.31 C 534.11 201.91 549.21 191.84 565.09 183.12 C 572.23 179.54 579.59 175.70 587.69 175.01 C 583.46 162.74 580.82 149.82 574.77 138.23 C 572.02 132.85 567.70 128.47 565.04 123.04 C 561.03 115.03 558.98 105.91 559.80 96.97 C 560.09 92.97 562.09 88.42 566.38 87.48 C 571.61 86.19 576.41 89.55 579.94 93.05 C 576.90 81.01 575.86 68.45 576.93 56.08 C 577.43 50.75 578.21 45.33 580.46 40.43 C 581.63 37.84 583.91 35.35 586.96 35.33 C 590.50 35.30 593.39 37.89 595.38 40.58 C 598.77 45.28 600.73 50.81 602.50 56.28 C 603.40 48.69 604.78 41.00 608.07 34.04 M 607.33 51.55 C 606.34 58.93 605.51 66.56 607.30 73.89 C 610.43 87.42 612.26 101.22 613.27 115.06 C 613.33 117.30 613.63 119.63 612.90 121.80 C 612.49 123.42 609.61 123.28 609.57 121.59 C 607.43 103.79 604.50 86.06 600.50 68.59 C 598.35 60.47 596.35 52.14 592.20 44.77 C 590.82 42.69 589.10 39.88 586.24 40.07 C 583.26 43.18 582.64 47.69 581.83 51.75 C 579.08 70.49 582.39 89.66 588.69 107.36 C 590.14 111.82 593.18 116.12 592.31 121.00 C 590.82 119.66 589.40 118.20 588.50 116.40 C 584.98 109.73 581.85 102.77 577.11 96.86 C 574.83 94.15 571.68 91.43 567.91 91.68 C 565.28 91.96 564.46 94.87 564.22 97.07 C 563.54 104.47 565.11 111.99 568.20 118.70 C 571.28 125.62 577.22 130.76 580.19 137.75 C 586.66 150.95 588.25 165.78 593.48 179.41 C 594.96 184.11 599.89 186.31 604.16 187.84 C 616.04 191.66 628.55 188.75 640.61 187.58 C 649.20 164.38 653.41 139.93 659.05 115.92 C 662.75 99.59 667.91 83.00 665.77 66.07 C 665.28 63.20 664.39 59.35 661.04 58.71 C 655.94 61.10 651.72 66.31 651.60 72.11 C 650.30 85.93 647.82 99.61 645.29 113.25 C 644.38 117.52 643.98 122.20 640.98 125.63 C 640.60 125.13 639.84 124.12 639.46 123.62 C 639.64 117.96 641.19 112.42 641.74 106.78 C 643.97 87.57 647.74 68.38 646.80 48.95 C 646.45 43.21 645.91 37.19 642.81 32.18 C 637.24 38.65 633.51 46.57 631.51 54.83 C 630.39 59.18 631.54 63.63 631.84 67.99 C 632.85 80.63 632.48 93.31 632.27 105.97 C 631.97 107.94 632.62 111.00 629.96 111.46 C 629.25 110.62 628.82 109.66 628.67 108.59 C 626.50 86.88 628.70 64.57 622.34 43.41 C 620.91 38.95 619.45 33.88 615.10 31.39 C 609.94 36.81 608.63 44.47 607.33 51.55 M 692.16 74.02 C 685.56 86.90 681.13 100.81 678.15 114.94 C 675.67 126.30 675.29 138.04 672.19 149.27 C 671.81 150.46 671.44 151.70 670.64 152.67 C 669.39 152.97 667.79 152.63 668.14 150.97 C 668.69 140.28 671.72 129.78 671.54 119.02 C 671.57 115.67 670.87 112.09 667.98 110.02 C 666.06 114.51 665.31 119.35 664.11 124.06 C 660.14 140.22 656.56 156.52 651.45 172.37 C 650.20 176.13 650.69 180.13 650.82 184.00 C 655.86 183.70 658.58 188.32 662.65 190.27 C 666.57 191.39 670.76 191.99 674.84 191.63 C 684.12 188.91 692.19 183.37 700.31 178.30 C 706.61 174.41 712.56 170.00 718.31 165.33 C 724.90 159.93 731.86 154.93 737.76 148.75 C 740.93 145.31 744.20 141.63 745.28 136.93 C 738.15 135.41 730.96 138.46 724.95 142.03 C 720.07 147.74 715.84 154.12 710.02 158.97 C 708.64 160.16 706.76 160.42 705.12 160.98 C 706.33 156.70 709.78 153.75 712.31 150.27 C 721.50 138.15 728.36 124.47 734.91 110.81 C 737.58 104.58 740.96 98.20 740.32 91.19 C 733.81 93.89 729.09 99.29 724.46 104.39 C 722.51 106.47 721.96 109.36 721.12 111.99 C 717.83 123.28 712.62 133.85 707.45 144.36 C 705.92 147.23 704.58 150.38 701.98 152.47 C 698.60 152.24 701.30 148.59 701.78 146.74 C 710.13 129.35 714.98 110.61 720.28 92.14 C 722.35 84.43 724.66 76.54 723.87 68.47 C 718.01 70.17 714.48 75.60 711.49 80.53 C 707.36 87.42 706.29 95.48 704.31 103.13 C 701.40 114.55 698.47 126.04 693.81 136.90 C 692.40 140.11 691.28 143.55 689.00 146.28 C 688.48 146.25 687.43 146.19 686.91 146.15 L 686.40 145.06 C 691.80 125.77 696.69 106.32 701.43 86.85 C 702.93 80.01 704.85 73.09 704.49 66.02 C 704.53 64.12 703.37 62.59 702.37 61.11 C 697.78 64.34 694.71 69.13 692.16 74.02 M 418.68 118.38 C 423.62 120.33 428.72 121.99 434.04 122.56 C 435.23 122.76 437.32 122.82 436.62 124.60 C 433.87 127.55 429.50 128.28 425.84 129.67 C 410.38 134.87 393.94 127.23 378.41 131.81 C 382.70 141.21 390.55 148.32 399.19 153.69 C 401.33 154.47 402.70 157.89 399.89 158.73 C 391.94 158.75 383.10 157.48 376.02 161.95 C 376.46 175.26 383.76 187.04 391.90 197.11 C 398.63 205.39 404.81 214.27 408.86 224.19 C 409.71 226.41 410.37 229.60 408.13 231.24 C 406.33 232.26 404.32 231.17 403.00 229.91 C 399.69 226.84 396.96 223.22 394.38 219.55 C 394.58 222.19 394.11 227.08 390.22 225.77 C 385.11 222.36 381.82 216.92 377.49 212.67 C 371.15 207.21 362.03 203.50 353.82 206.75 C 349.61 208.17 347.22 212.72 347.66 217.01 C 348.47 223.77 352.54 230.08 358.45 233.49 C 362.06 235.75 366.48 236.43 369.83 239.14 C 373.64 242.22 376.16 246.76 377.17 251.53 C 377.72 254.92 377.62 258.38 378.06 261.79 C 387.72 263.40 395.88 270.44 405.97 269.85 C 413.68 269.89 421.98 265.54 429.24 269.73 C 435.67 264.30 443.70 261.45 451.35 258.22 C 458.36 255.36 464.77 251.26 471.04 247.06 C 473.00 245.95 473.73 243.73 474.65 241.82 C 478.40 233.49 479.72 224.38 481.12 215.43 C 474.85 218.77 468.93 223.12 461.97 224.89 C 458.96 225.87 457.32 223.00 456.22 220.77 C 454.47 221.63 452.76 222.61 450.86 223.10 C 449.17 223.09 448.09 221.66 448.51 220.03 C 449.74 218.38 451.67 217.50 453.42 216.50 C 462.69 211.59 471.88 206.53 481.42 202.14 C 481.45 195.23 480.10 188.42 477.99 181.86 C 475.88 185.60 475.18 190.07 472.69 193.57 C 468.32 195.13 463.40 193.06 458.89 192.69 C 456.44 191.98 451.27 191.61 452.63 187.95 C 458.07 186.46 464.01 187.22 469.54 185.68 C 471.66 182.55 473.85 179.47 476.22 176.53 C 475.84 175.61 475.47 174.70 475.11 173.79 C 466.74 166.99 456.75 161.16 451.91 151.09 C 451.41 149.76 450.12 148.46 450.66 146.96 C 453.87 144.09 458.02 142.64 461.90 140.92 C 459.25 135.40 457.42 129.54 455.09 123.91 C 451.08 121.70 446.40 121.27 441.94 120.72 C 434.18 120.02 426.47 118.73 418.68 118.38 M 462.65 157.94 C 465.60 160.21 468.54 162.48 471.52 164.71 C 470.15 161.38 468.79 158.05 467.52 154.68 C 465.92 155.80 464.27 156.86 462.65 157.94 M 567.07 188.13 C 542.68 201.70 520.37 218.55 497.48 234.43 C 484.91 243.69 472.79 253.80 458.69 260.72 C 449.48 265.11 439.19 267.40 430.90 273.58 C 431.10 278.84 430.35 284.25 427.82 288.93 C 423.61 296.10 417.27 301.72 411.04 307.10 C 406.90 310.21 402.81 314.43 397.23 314.30 C 399.26 310.40 403.12 308.12 406.27 305.26 C 411.39 300.72 416.28 295.84 420.28 290.28 C 423.72 285.56 425.19 279.65 424.95 273.86 C 416.85 273.83 408.97 277.08 400.85 275.74 C 391.60 274.97 384.21 268.10 375.00 267.21 C 371.75 267.42 368.44 268.81 366.02 270.94 C 360.59 279.29 356.77 288.66 354.24 298.28 C 350.73 313.59 348.39 329.27 348.66 345.02 C 348.84 369.00 347.89 392.98 348.74 416.96 C 349.43 426.18 349.59 435.82 353.71 444.31 C 356.58 450.40 358.60 456.93 358.86 463.70 C 361.51 456.47 364.34 449.30 367.22 442.16 C 369.40 437.13 371.19 431.68 375.26 427.80 C 374.99 430.18 374.65 432.58 373.80 434.84 C 368.25 449.38 363.42 464.19 357.08 478.41 C 358.43 476.64 359.64 474.77 360.79 472.88 C 367.84 461.16 376.54 450.55 384.30 439.31 C 395.83 423.23 403.42 404.62 408.44 385.56 C 408.98 383.80 409.75 382.12 410.60 380.49 C 411.46 387.84 409.04 395.00 406.94 401.93 C 401.55 418.02 394.55 433.75 384.53 447.54 C 375.15 460.63 364.92 473.22 357.53 487.61 C 355.12 492.56 352.08 497.42 351.56 503.02 C 350.29 514.19 349.67 525.42 348.30 536.58 C 345.19 561.31 342.01 586.07 341.13 611.00 C 340.42 628.56 341.00 646.75 347.96 663.16 C 361.20 658.85 374.64 655.20 387.92 651.02 C 405.02 645.56 422.12 639.48 440.06 637.47 C 452.07 635.75 464.30 635.55 476.14 632.75 C 482.28 631.49 488.09 628.87 493.13 625.15 C 505.34 616.18 515.85 605.06 524.91 592.96 C 527.59 589.24 530.38 585.30 530.88 580.60 C 527.58 576.21 524.56 570.87 518.99 569.10 C 511.80 566.86 503.65 565.43 498.27 559.70 C 492.29 551.24 489.58 541.01 487.45 531.00 C 483.53 511.56 482.51 491.70 480.72 471.99 C 480.37 464.66 478.75 457.30 479.97 449.97 C 482.71 453.76 483.36 458.48 483.98 462.99 C 487.21 487.28 487.89 511.93 493.25 535.91 C 494.51 526.46 496.57 517.12 499.18 507.95 C 503.57 492.51 511.14 478.27 517.76 463.72 C 520.61 457.79 523.06 451.60 523.97 445.05 C 525.88 434.09 523.51 423.03 523.95 412.02 C 524.65 394.64 523.67 377.07 527.08 359.91 C 520.35 365.76 515.95 373.59 510.62 380.62 C 508.47 383.47 506.86 386.68 504.84 389.62 C 501.77 387.62 504.43 383.87 505.50 381.40 C 511.43 371.16 517.25 360.18 527.15 353.20 C 534.20 348.60 542.05 345.43 549.42 341.39 C 564.90 333.14 579.37 323.05 592.76 311.74 C 616.66 291.59 637.56 267.88 654.47 241.58 C 663.63 227.78 669.94 212.36 676.29 197.12 C 671.10 197.04 665.77 197.08 660.81 195.40 C 657.48 194.26 655.34 191.32 652.55 189.36 C 651.19 189.34 649.90 189.95 648.95 190.89 C 645.26 194.29 642.17 198.25 639.19 202.25 C 629.46 215.05 617.43 225.82 605.38 236.35 C 592.17 247.95 577.26 257.38 563.99 268.91 C 549.06 281.85 533.54 294.12 517.17 305.19 C 511.72 308.63 506.91 312.95 501.76 316.79 C 494.41 322.32 487.05 327.91 480.61 334.50 C 481.43 344.15 481.58 353.87 483.37 363.41 C 484.07 367.94 485.60 372.28 486.28 376.81 C 484.53 375.41 483.08 373.65 482.47 371.47 C 478.82 360.56 477.90 348.95 477.84 337.51 C 473.69 342.77 470.24 348.57 467.86 354.85 C 462.29 368.84 461.50 384.03 459.93 398.83 C 456.07 392.14 457.96 384.14 458.42 376.88 C 460.11 364.05 462.51 350.78 469.82 339.82 C 478.41 326.51 492.09 317.91 504.33 308.34 C 510.83 303.08 517.97 298.71 524.67 293.71 C 531.22 288.93 537.53 283.82 543.93 278.83 C 553.19 270.79 562.12 262.36 571.86 254.87 C 581.49 247.50 591.44 240.51 600.54 232.47 C 614.07 220.84 627.41 208.69 637.82 194.10 C 624.90 196.22 610.83 198.38 598.58 192.43 C 592.92 189.94 588.73 184.98 586.74 179.18 C 580.23 182.27 573.36 184.59 567.07 188.13 M 632.91 727.09 C 625.65 730.50 617.49 730.41 609.75 731.83 C 603.12 733.37 596.53 735.06 589.99 736.93 C 588.10 737.34 587.74 739.52 586.78 740.92 C 592.21 745.73 598.23 749.83 604.47 753.52 C 616.83 760.57 629.82 767.07 643.88 769.86 C 655.32 758.35 665.86 744.47 668.14 727.96 C 669.48 719.99 667.90 711.93 665.37 704.37 C 655.97 713.72 644.99 721.58 632.91 727.09 M 564.58 743.74 C 565.00 745.01 565.43 746.28 565.86 747.57 C 570.83 744.42 576.01 741.62 581.32 739.08 C 575.71 740.52 570.15 742.15 564.58 743.74 M 537.02 766.75 C 525.01 768.48 512.82 768.22 500.81 769.83 C 489.13 771.46 477.37 772.69 465.84 775.24 C 477.23 786.77 486.09 801.23 489.57 817.17 C 491.65 825.62 493.23 834.26 493.20 843.00 C 493.26 853.10 493.44 863.54 489.84 873.14 C 510.18 873.72 531.21 876.21 550.96 869.86 C 555.38 868.31 560.24 867.18 563.58 863.65 C 573.51 853.59 578.70 839.11 577.65 825.02 C 576.63 810.42 572.36 796.10 565.83 783.04 C 562.18 775.67 556.10 769.26 554.99 760.84 C 549.31 763.61 543.32 765.88 537.02 766.75 M 247.44 790.65 C 240.34 791.40 233.19 792.39 226.35 794.46 C 218.83 796.78 213.40 804.13 213.48 812.02 C 213.28 824.42 216.07 836.64 217.00 848.99 C 217.39 857.07 219.71 864.87 220.74 872.87 C 221.94 881.28 224.30 889.68 229.16 896.76 C 234.84 905.21 239.90 914.49 248.15 920.78 C 254.80 925.78 262.06 929.97 269.70 933.28 C 277.96 937.05 287.72 938.22 296.42 935.36 C 300.54 932.94 298.55 927.31 297.05 923.84 C 290.17 909.48 280.80 896.12 276.67 880.55 C 275.08 874.76 276.22 868.76 276.46 862.88 C 276.91 857.20 272.93 852.51 272.21 847.03 C 271.24 840.38 271.12 833.25 274.08 827.05 C 277.39 820.18 281.58 813.77 284.98 806.94 C 286.11 804.51 287.13 801.21 285.03 799.01 C 281.30 795.14 276.40 792.07 270.94 791.62 C 263.15 790.73 255.28 789.91 247.44 790.65 Z" />
<path fill="#020202" opacity="1.00" d=" M 427.13 157.14 C 429.38 156.16 431.57 154.79 434.06 154.54 C 437.22 157.37 438.57 161.74 440.69 165.36 C 442.23 167.46 439.85 169.26 438.06 169.97 C 425.49 175.79 412.88 181.55 400.26 187.26 C 398.98 187.85 397.04 188.49 396.10 187.02 C 393.84 183.49 392.31 179.55 390.52 175.77 C 391.75 174.60 393.08 173.51 394.63 172.78 C 405.42 167.48 416.27 162.30 427.13 157.14 Z" />
</g>
<g id="#4d4d4dff">
<path fill="#4d4d4d" opacity="1.00" d=" M 607.33 51.55 C 608.63 44.47 609.94 36.81 615.10 31.39 C 619.45 33.88 620.91 38.95 622.34 43.41 C 628.70 64.57 626.50 86.88 628.67 108.59 C 628.82 109.66 629.25 110.62 629.96 111.46 C 632.62 111.00 631.97 107.94 632.27 105.97 C 632.48 93.31 632.85 80.63 631.84 67.99 C 631.54 63.63 630.39 59.18 631.51 54.83 C 633.51 46.57 637.24 38.65 642.81 32.18 C 645.91 37.19 646.45 43.21 646.80 48.95 C 647.74 68.38 643.97 87.57 641.74 106.78 C 641.19 112.42 639.64 117.96 639.46 123.62 C 639.84 124.12 640.60 125.13 640.98 125.63 C 643.98 122.20 644.38 117.52 645.29 113.25 C 647.82 99.61 650.30 85.93 651.60 72.11 C 651.72 66.31 655.94 61.10 661.04 58.71 C 664.39 59.35 665.28 63.20 665.77 66.07 C 667.91 83.00 662.75 99.59 659.05 115.92 C 653.41 139.93 649.20 164.38 640.61 187.58 C 628.55 188.75 616.04 191.66 604.16 187.84 C 599.89 186.31 594.96 184.11 593.48 179.41 C 588.25 165.78 586.66 150.95 580.19 137.75 C 577.22 130.76 571.28 125.62 568.20 118.70 C 565.11 111.99 563.54 104.47 564.22 97.07 C 564.46 94.87 565.28 91.96 567.91 91.68 C 571.68 91.43 574.83 94.15 577.11 96.86 C 581.85 102.77 584.98 109.73 588.50 116.40 C 589.40 118.20 590.82 119.66 592.31 121.00 C 593.18 116.12 590.14 111.82 588.69 107.36 C 582.39 89.66 579.08 70.49 581.83 51.75 C 582.64 47.69 583.26 43.18 586.24 40.07 C 589.10 39.88 590.82 42.69 592.20 44.77 C 596.35 52.14 598.35 60.47 600.50 68.59 C 604.50 86.06 607.43 103.79 609.57 121.59 C 609.61 123.28 612.49 123.42 612.90 121.80 C 613.63 119.63 613.33 117.30 613.27 115.06 C 612.26 101.22 610.43 87.42 607.30 73.89 C 605.51 66.56 606.34 58.93 607.33 51.55 Z" />
<path fill="#4d4d4d" opacity="1.00" d=" M 692.16 74.02 C 694.71 69.13 697.78 64.34 702.37 61.11 C 703.37 62.59 704.53 64.12 704.49 66.02 C 704.85 73.09 702.93 80.01 701.43 86.85 C 696.69 106.32 691.80 125.77 686.40 145.06 L 686.91 146.15 C 687.43 146.19 688.48 146.25 689.00 146.28 C 691.28 143.55 692.40 140.11 693.81 136.90 C 698.47 126.04 701.40 114.55 704.31 103.13 C 706.29 95.48 707.36 87.42 711.49 80.53 C 714.48 75.60 718.01 70.17 723.87 68.47 C 724.66 76.54 722.35 84.43 720.28 92.14 C 714.98 110.61 710.13 129.35 701.78 146.74 C 701.30 148.59 698.60 152.24 701.98 152.47 C 704.58 150.38 705.92 147.23 707.45 144.36 C 712.62 133.85 717.83 123.28 721.12 111.99 C 721.96 109.36 722.51 106.47 724.46 104.39 C 729.09 99.29 733.81 93.89 740.32 91.19 C 740.96 98.20 737.58 104.58 734.91 110.81 C 728.36 124.47 721.50 138.15 712.31 150.27 C 709.78 153.75 706.33 156.70 705.12 160.98 C 706.76 160.42 708.64 160.16 710.02 158.97 C 715.84 154.12 720.07 147.74 724.95 142.03 C 730.96 138.46 738.15 135.41 745.28 136.93 C 744.20 141.63 740.93 145.31 737.76 148.75 C 731.86 154.93 724.90 159.93 718.31 165.33 C 712.56 170.00 706.61 174.41 700.31 178.30 C 692.19 183.37 684.12 188.91 674.84 191.63 C 670.76 191.99 666.57 191.39 662.65 190.27 C 658.58 188.32 655.86 183.70 650.82 184.00 C 650.69 180.13 650.20 176.13 651.45 172.37 C 656.56 156.52 660.14 140.22 664.11 124.06 C 665.31 119.35 666.06 114.51 667.98 110.02 C 670.87 112.09 671.57 115.67 671.54 119.02 C 671.72 129.78 668.69 140.28 668.14 150.97 C 667.79 152.63 669.39 152.97 670.64 152.67 C 671.44 151.70 671.81 150.46 672.19 149.27 C 675.29 138.04 675.67 126.30 678.15 114.94 C 681.13 100.81 685.56 86.90 692.16 74.02 Z" />
<path fill="#4d4d4d" opacity="1.00" d=" M 247.44 790.65 C 255.28 789.91 263.15 790.73 270.94 791.62 C 276.40 792.07 281.30 795.14 285.03 799.01 C 287.13 801.21 286.11 804.51 284.98 806.94 C 281.58 813.77 277.39 820.18 274.08 827.05 C 271.12 833.25 271.24 840.38 272.21 847.03 C 272.93 852.51 276.91 857.20 276.46 862.88 C 276.22 868.76 275.08 874.76 276.67 880.55 C 280.80 896.12 290.17 909.48 297.05 923.84 C 298.55 927.31 300.54 932.94 296.42 935.36 C 287.72 938.22 277.96 937.05 269.70 933.28 C 262.06 929.97 254.80 925.78 248.15 920.78 C 239.90 914.49 234.84 905.21 229.16 896.76 C 224.30 889.68 221.94 881.28 220.74 872.87 C 219.71 864.87 217.39 857.07 217.00 848.99 C 216.07 836.64 213.28 824.42 213.48 812.02 C 213.40 804.13 218.83 796.78 226.35 794.46 C 233.19 792.39 240.34 791.40 247.44 790.65 Z" />
</g>
<g id="#f0b58bff">
<path fill="#f0b58b" opacity="1.00" d=" M 418.68 118.38 C 426.47 118.73 434.18 120.02 441.94 120.72 C 446.40 121.27 451.08 121.70 455.09 123.91 C 457.42 129.54 459.25 135.40 461.90 140.92 C 458.02 142.64 453.87 144.09 450.66 146.96 C 450.12 148.46 451.41 149.76 451.91 151.09 C 456.75 161.16 466.74 166.99 475.11 173.79 C 475.47 174.70 475.84 175.61 476.22 176.53 C 473.85 179.47 471.66 182.55 469.54 185.68 C 464.01 187.22 458.07 186.46 452.63 187.95 C 451.27 191.61 456.44 191.98 458.89 192.69 C 463.40 193.06 468.32 195.13 472.69 193.57 C 475.18 190.07 475.88 185.60 477.99 181.86 C 480.10 188.42 481.45 195.23 481.42 202.14 C 471.88 206.53 462.69 211.59 453.42 216.50 C 451.67 217.50 449.74 218.38 448.51 220.03 C 448.09 221.66 449.17 223.09 450.86 223.10 C 452.76 222.61 454.47 221.63 456.22 220.77 C 457.32 223.00 458.96 225.87 461.97 224.89 C 468.93 223.12 474.85 218.77 481.12 215.43 C 479.72 224.38 478.40 233.49 474.65 241.82 C 473.73 243.73 473.00 245.95 471.04 247.06 C 464.77 251.26 458.36 255.36 451.35 258.22 C 443.70 261.45 435.67 264.30 429.24 269.73 C 421.98 265.54 413.68 269.89 405.97 269.85 C 395.88 270.44 387.72 263.40 378.06 261.79 C 377.62 258.38 377.72 254.92 377.17 251.53 C 376.16 246.76 373.64 242.22 369.83 239.14 C 366.48 236.43 362.06 235.75 358.45 233.49 C 352.54 230.08 348.47 223.77 347.66 217.01 C 347.22 212.72 349.61 208.17 353.82 206.75 C 362.03 203.50 371.15 207.21 377.49 212.67 C 381.82 216.92 385.11 222.36 390.22 225.77 C 394.11 227.08 394.58 222.19 394.38 219.55 C 396.96 223.22 399.69 226.84 403.00 229.91 C 404.32 231.17 406.33 232.26 408.13 231.24 C 410.37 229.60 409.71 226.41 408.86 224.19 C 404.81 214.27 398.63 205.39 391.90 197.11 C 383.76 187.04 376.46 175.26 376.02 161.95 C 383.10 157.48 391.94 158.75 399.89 158.73 C 402.70 157.89 401.33 154.47 399.19 153.69 C 390.55 148.32 382.70 141.21 378.41 131.81 C 393.94 127.23 410.38 134.87 425.84 129.67 C 429.50 128.28 433.87 127.55 436.62 124.60 C 437.32 122.82 435.23 122.76 434.04 122.56 C 428.72 121.99 423.62 120.33 418.68 118.38 M 427.13 157.14 C 416.27 162.30 405.42 167.48 394.63 172.78 C 393.08 173.51 391.75 174.60 390.52 175.77 C 392.31 179.55 393.84 183.49 396.10 187.02 C 397.04 188.49 398.98 187.85 400.26 187.26 C 412.88 181.55 425.49 175.79 438.06 169.97 C 439.85 169.26 442.23 167.46 440.69 165.36 C 438.57 161.74 437.22 157.37 434.06 154.54 C 431.57 154.79 429.38 156.16 427.13 157.14 Z" />
<path fill="#f0b58b" opacity="1.00" d=" M 462.65 157.94 C 464.27 156.86 465.92 155.80 467.52 154.68 C 468.79 158.05 470.15 161.38 471.52 164.71 C 468.54 162.48 465.60 160.21 462.65 157.94 Z" />
<path fill="#f0b58b" opacity="1.00" d=" M 632.91 727.09 C 644.99 721.58 655.97 713.72 665.37 704.37 C 667.90 711.93 669.48 719.99 668.14 727.96 C 665.86 744.47 655.32 758.35 643.88 769.86 C 629.82 767.07 616.83 760.57 604.47 753.52 C 598.23 749.83 592.21 745.73 586.78 740.92 C 587.74 739.52 588.10 737.34 589.99 736.93 C 596.53 735.06 603.12 733.37 609.75 731.83 C 617.49 730.41 625.65 730.50 632.91 727.09 Z" />
<path fill="#f0b58b" opacity="1.00" d=" M 537.02 766.75 C 543.32 765.88 549.31 763.61 554.99 760.84 C 556.10 769.26 562.18 775.67 565.83 783.04 C 572.36 796.10 576.63 810.42 577.65 825.02 C 578.70 839.11 573.51 853.59 563.58 863.65 C 560.24 867.18 555.38 868.31 550.96 869.86 C 531.21 876.21 510.18 873.72 489.84 873.14 C 493.44 863.54 493.26 853.10 493.20 843.00 C 493.23 834.26 491.65 825.62 489.57 817.17 C 486.09 801.23 477.23 786.77 465.84 775.24 C 477.37 772.69 489.13 771.46 500.81 769.83 C 512.82 768.22 525.01 768.48 537.02 766.75 Z" />
</g>
<g id="#f35e11ff">
<path fill="var(--shirt-color, grey)" opacity="1.00" d=" M 567.07 188.13 C 573.36 184.59 580.23 182.27 586.74 179.18 C 588.73 184.98 592.92 189.94 598.58 192.43 C 610.83 198.38 624.90 196.22 637.82 194.10 C 627.41 208.69 614.07 220.84 600.54 232.47 C 591.44 240.51 581.49 247.50 571.86 254.87 C 562.12 262.36 553.19 270.79 543.93 278.83 C 537.53 283.82 531.22 288.93 524.67 293.71 C 517.97 298.71 510.83 303.08 504.33 308.34 C 492.09 317.91 478.41 326.51 469.82 339.82 C 462.51 350.78 460.11 364.05 458.42 376.88 C 457.96 384.14 456.07 392.14 459.93 398.83 C 461.50 384.03 462.29 368.84 467.86 354.85 C 470.24 348.57 473.69 342.77 477.84 337.51 C 477.90 348.95 478.82 360.56 482.47 371.47 C 483.08 373.65 484.53 375.41 486.28 376.81 C 485.60 372.28 484.07 367.94 483.37 363.41 C 481.58 353.87 481.43 344.15 480.61 334.50 C 487.05 327.91 494.41 322.32 501.76 316.79 C 506.91 312.95 511.72 308.63 517.17 305.19 C 533.54 294.12 549.06 281.85 563.99 268.91 C 577.26 257.38 592.17 247.95 605.38 236.35 C 617.43 225.82 629.46 215.05 639.19 202.25 C 642.17 198.25 645.26 194.29 648.95 190.89 C 649.90 189.95 651.19 189.34 652.55 189.36 C 655.34 191.32 657.48 194.26 660.81 195.40 C 665.77 197.08 671.10 197.04 676.29 197.12 C 669.94 212.36 663.63 227.78 654.47 241.58 C 637.56 267.88 616.66 291.59 592.76 311.74 C 579.37 323.05 564.90 333.14 549.42 341.39 C 542.05 345.43 534.20 348.60 527.15 353.20 C 517.25 360.18 511.43 371.16 505.50 381.40 C 504.43 383.87 501.77 387.62 504.84 389.62 C 506.86 386.68 508.47 383.47 510.62 380.62 C 515.95 373.59 520.35 365.76 527.08 359.91 C 523.67 377.07 524.65 394.64 523.95 412.02 C 523.51 423.03 525.88 434.09 523.97 445.05 C 523.06 451.60 520.61 457.79 517.76 463.72 C 511.14 478.27 503.57 492.51 499.18 507.95 C 496.57 517.12 494.51 526.46 493.25 535.91 C 487.89 511.93 487.21 487.28 483.98 462.99 C 483.36 458.48 482.71 453.76 479.97 449.97 C 478.75 457.30 480.37 464.66 480.72 471.99 C 482.51 491.70 483.53 511.56 487.45 531.00 C 489.58 541.01 492.29 551.24 498.27 559.70 C 503.65 565.43 511.80 566.86 518.99 569.10 C 524.56 570.87 527.58 576.21 530.88 580.60 C 530.38 585.30 527.59 589.24 524.91 592.96 C 515.85 605.06 505.34 616.18 493.13 625.15 C 488.09 628.87 482.28 631.49 476.14 632.75 C 464.30 635.55 452.07 635.75 440.06 637.47 C 422.12 639.48 405.02 645.56 387.92 651.02 C 374.64 655.20 361.20 658.85 347.96 663.16 C 341.00 646.75 340.42 628.56 341.13 611.00 C 342.01 586.07 345.19 561.31 348.30 536.58 C 349.67 525.42 350.29 514.19 351.56 503.02 C 352.08 497.42 355.12 492.56 357.53 487.61 C 364.92 473.22 375.15 460.63 384.53 447.54 C 394.55 433.75 401.55 418.02 406.94 401.93 C 409.04 395.00 411.46 387.84 410.60 380.49 C 409.75 382.12 408.98 383.80 408.44 385.56 C 403.42 404.62 395.83 423.23 384.30 439.31 C 376.54 450.55 367.84 461.16 360.79 472.88 C 359.64 474.77 358.43 476.64 357.08 478.41 C 363.42 464.19 368.25 449.38 373.80 434.84 C 374.65 432.58 374.99 430.18 375.26 427.80 C 371.19 431.68 369.40 437.13 367.22 442.16 C 364.34 449.30 361.51 456.47 358.86 463.70 C 358.60 456.93 356.58 450.40 353.71 444.31 C 349.59 435.82 349.43 426.18 348.74 416.96 C 347.89 392.98 348.84 369.00 348.66 345.02 C 348.39 329.27 350.73 313.59 354.24 298.28 C 356.77 288.66 360.59 279.29 366.02 270.94 C 368.44 268.81 371.75 267.42 375.00 267.21 C 384.21 268.10 391.60 274.97 400.85 275.74 C 408.97 277.08 416.85 273.83 424.95 273.86 C 425.19 279.65 423.72 285.56 420.28 290.28 C 416.28 295.84 411.39 300.72 406.27 305.26 C 403.12 308.12 399.26 310.40 397.23 314.30 C 402.81 314.43 406.90 310.21 411.04 307.10 C 417.27 301.72 423.61 296.10 427.82 288.93 C 430.35 284.25 431.10 278.84 430.90 273.58 C 439.19 267.40 449.48 265.11 458.69 260.72 C 472.79 253.80 484.91 243.69 497.48 234.43 C 520.37 218.55 542.68 201.70 567.07 188.13 Z" />
</g>
</svg>
