<?xml version="1.0" encoding="UTF-8" ?>
<!DOCTYPE svg PUBLIC "-//W3C//DTD SVG 1.1//EN" "http://www.w3.org/Graphics/SVG/1.1/DTD/svg11.dtd">
<svg width="1000pt" height="1000pt" viewBox="0 0 1000 1000" version="1.1" xmlns="http://www.w3.org/2000/svg">
<g id="#020202ff">
<path fill="#020202" opacity="1.00" d=" M 584.71 270.81 C 596.61 268.19 608.73 265.47 621.00 266.55 C 622.62 266.46 623.69 267.77 624.84 268.69 C 623.66 270.08 622.46 271.44 621.22 272.77 C 634.26 270.48 647.82 273.40 659.35 279.70 C 665.34 283.06 670.77 287.71 674.50 293.51 C 675.58 295.25 673.45 296.57 672.50 297.72 C 678.01 304.52 681.58 313.17 681.18 322.02 C 680.91 328.75 680.69 335.66 678.13 342.00 C 679.85 347.15 682.41 351.98 685.57 356.39 C 687.96 359.94 691.08 363.47 691.15 368.00 C 691.33 371.85 688.72 374.97 687.29 378.35 C 683.55 386.37 684.34 395.42 683.09 403.98 C 681.84 412.67 680.27 421.75 675.17 429.13 C 673.09 432.15 670.49 434.74 668.03 437.43 C 671.70 438.59 675.38 439.80 679.21 440.41 C 686.24 441.55 693.40 440.88 700.46 441.72 C 711.98 443.12 723.61 444.05 734.88 447.00 C 746.65 450.36 757.75 455.61 769.17 459.94 C 777.06 462.98 785.34 464.80 793.61 466.50 C 799.19 467.67 804.35 470.25 809.17 473.23 C 814.14 470.77 819.59 469.63 825.06 468.94 C 834.67 467.63 843.58 463.51 852.06 459.02 C 862.51 453.38 873.24 448.28 883.73 442.73 C 894.89 436.82 907.26 432.51 920.02 432.63 C 924.18 432.71 929.44 433.73 931.11 438.13 C 932.63 442.21 930.26 446.25 928.26 449.69 C 930.22 455.83 927.25 461.91 923.99 466.98 C 921.79 470.52 918.85 473.51 915.74 476.25 C 916.47 481.33 912.61 485.13 909.11 488.15 C 903.92 492.66 897.35 495.05 890.87 497.01 C 894.51 498.50 897.59 501.05 899.27 504.67 C 909.82 500.03 921.09 494.85 932.92 497.19 C 935.45 497.49 936.49 499.98 937.55 501.94 C 944.86 499.94 952.49 498.28 960.10 499.08 C 964.43 499.44 968.98 502.37 969.48 507.00 C 969.91 512.53 966.33 517.39 962.02 520.46 C 965.49 520.96 969.52 521.16 972.03 523.99 C 973.92 525.94 973.95 529.17 972.27 531.27 C 969.60 534.76 966.00 537.39 962.58 540.10 C 965.27 540.92 969.64 541.46 969.64 545.16 C 968.90 551.37 963.22 555.55 957.93 558.01 C 949.10 561.86 939.69 564.22 930.31 566.28 C 934.26 569.81 937.13 575.32 935.45 580.67 C 933.73 585.27 928.43 586.78 924.01 587.21 C 911.62 588.39 899.26 586.20 886.98 584.84 C 877.85 583.89 868.94 581.65 859.88 580.31 C 854.21 579.36 849.00 575.67 843.10 576.57 C 832.73 577.59 822.31 577.14 811.92 576.77 C 794.41 576.00 776.69 575.86 759.57 571.69 C 745.65 569.13 732.51 563.69 719.39 558.54 C 708.72 554.53 699.29 547.52 688.01 545.09 C 677.21 541.92 665.50 541.29 654.69 544.81 C 642.07 549.22 630.06 556.07 621.02 566.06 C 616.10 570.86 611.58 576.05 607.33 581.44 C 600.80 589.49 593.60 597.01 585.69 603.72 C 578.17 610.25 568.70 614.34 562.25 622.12 C 576.13 631.95 593.73 633.78 608.67 641.44 C 610.14 642.32 611.24 643.67 612.38 644.93 C 620.28 645.32 627.84 647.76 634.99 651.04 C 645.19 655.18 654.86 661.90 660.28 671.72 C 663.26 677.01 665.48 682.89 666.17 688.94 C 665.68 703.52 657.14 717.10 645.30 725.31 C 634.30 732.91 621.37 737.04 608.57 740.45 C 592.75 744.57 576.34 745.82 560.05 745.52 C 527.28 746.43 494.57 743.57 461.89 741.64 C 464.68 746.64 466.51 752.36 465.57 758.14 C 465.11 763.57 462.91 769.72 466.22 774.67 C 472.04 782.18 480.35 787.27 486.41 794.56 C 488.99 797.95 491.44 802.22 490.53 806.63 C 489.03 811.53 484.01 814.67 479.05 815.06 C 469.62 815.97 460.56 812.06 452.54 807.49 C 441.12 800.94 432.54 790.74 423.95 781.00 C 418.44 774.80 413.00 768.48 408.58 761.43 C 403.54 753.28 397.08 746.10 390.26 739.40 C 384.16 742.38 377.94 745.10 371.67 747.71 C 369.03 748.73 366.05 749.88 363.26 748.73 C 359.68 747.07 356.71 744.40 353.59 742.04 C 350.28 744.68 346.67 746.91 342.96 748.96 C 328.97 757.64 314.13 765.02 298.68 770.74 C 280.27 777.48 260.38 778.07 241.00 778.06 C 207.53 776.65 174.09 774.22 140.88 769.76 C 128.03 769.76 114.53 773.07 104.48 781.45 C 90.39 791.76 77.99 805.52 60.64 810.36 C 53.20 813.60 43.62 810.32 40.03 802.97 C 36.69 796.64 39.03 789.23 41.16 782.91 C 46.95 768.38 54.75 754.07 66.83 743.82 C 74.55 736.94 82.62 730.45 89.98 723.19 C 96.11 717.19 103.29 712.39 109.18 706.15 C 113.53 701.40 119.50 697.90 126.02 697.55 C 129.76 697.57 132.92 700.11 135.11 702.93 C 137.81 706.40 138.07 710.96 138.35 715.18 C 157.38 710.59 177.02 710.18 196.44 708.68 C 216.63 707.27 236.84 706.09 257.07 705.43 C 272.58 704.18 288.80 703.28 302.80 695.80 C 308.71 691.84 314.85 687.08 317.26 680.11 C 323.20 665.85 334.05 654.57 344.31 643.33 C 353.95 632.52 364.58 622.16 370.98 608.97 C 373.22 605.00 371.49 600.33 372.56 596.09 C 373.88 588.28 379.76 582.42 385.74 577.73 C 393.79 571.17 401.71 564.39 408.76 556.74 C 413.54 551.36 416.75 544.83 421.28 539.26 C 426.45 532.83 431.36 526.10 437.54 520.58 C 447.57 512.01 457.54 503.33 466.87 493.99 C 481.76 478.09 495.54 461.19 509.79 444.72 C 520.31 433.30 530.56 420.87 544.69 413.77 C 548.66 411.62 553.25 410.58 556.86 407.82 C 560.18 401.90 558.26 394.50 554.89 389.04 C 551.71 384.99 546.65 382.51 544.37 377.74 C 542.95 372.97 544.43 367.98 545.10 363.21 C 542.88 364.29 539.74 365.85 538.04 363.06 C 533.53 355.52 534.29 346.03 535.83 337.71 C 539.97 319.56 548.46 301.95 561.98 288.93 C 564.80 286.01 566.45 282.17 569.40 279.36 C 573.64 275.24 579.00 272.30 584.71 270.81 M 646.53 327.55 C 642.96 331.21 642.32 336.59 639.91 340.94 C 637.01 346.72 631.73 351.08 625.53 352.88 C 621.08 360.11 619.04 368.81 613.04 375.05 C 611.48 376.81 607.94 377.61 606.67 375.11 C 606.43 371.44 607.73 367.72 606.64 364.11 C 605.48 359.84 601.55 356.28 597.04 356.12 C 593.65 355.97 590.68 358.25 588.90 360.97 C 583.76 368.74 588.00 381.52 597.83 382.78 C 597.87 385.14 598.21 387.75 596.81 389.82 C 595.32 392.00 592.61 392.79 590.71 394.53 C 590.00 397.94 589.74 401.51 587.74 404.50 C 596.53 406.17 605.41 407.88 613.77 411.19 C 625.70 416.15 637.10 422.30 648.27 428.79 C 652.72 431.23 657.55 432.85 662.19 434.87 C 666.20 431.68 670.69 428.64 672.75 423.73 C 677.49 413.61 678.22 402.19 679.25 391.22 C 679.75 384.22 681.99 377.48 685.45 371.41 C 687.31 368.64 685.97 365.27 684.21 362.84 C 680.61 357.82 677.24 352.59 675.06 346.78 C 673.25 347.69 671.43 348.57 669.60 349.42 C 670.19 351.58 672.04 354.98 669.48 356.52 C 662.98 359.10 656.02 360.23 649.34 362.26 C 647.38 362.77 644.04 363.93 643.42 361.04 C 647.30 348.61 659.22 337.39 673.01 339.38 C 671.90 335.76 671.28 332.03 670.26 328.40 C 668.22 324.06 664.55 320.75 660.59 318.19 C 655.59 320.79 650.63 323.65 646.53 327.55 M 556.05 414.15 C 547.45 417.46 539.47 422.38 532.75 428.70 C 526.05 435.01 520.01 441.97 514.03 448.94 C 502.30 463.18 490.46 477.33 478.14 491.06 C 467.18 503.80 454.02 514.33 441.47 525.42 C 435.68 530.73 431.03 537.11 426.20 543.27 C 421.77 548.88 418.51 555.35 413.73 560.70 C 405.20 569.90 395.41 577.80 385.74 585.76 C 380.85 589.76 377.27 595.55 376.86 601.96 C 376.32 605.69 378.06 609.80 381.51 611.54 C 389.31 615.70 398.37 616.44 407.06 616.63 C 411.72 616.92 416.13 615.12 420.47 613.68 C 432.44 609.57 444.32 604.85 455.05 598.05 C 467.94 589.91 479.97 580.28 493.95 574.00 C 506.20 568.48 519.45 564.38 533.00 564.49 C 540.64 564.85 548.87 567.06 554.29 572.75 C 556.38 574.79 556.00 578.04 553.51 579.56 C 552.59 577.84 552.29 575.60 550.55 574.47 C 543.99 570.03 535.70 569.22 528.00 569.92 C 515.13 571.12 502.68 575.37 491.24 581.26 C 478.73 587.68 467.77 596.59 455.82 603.91 C 446.16 609.82 435.46 613.74 424.75 617.31 C 430.51 618.01 436.32 618.39 442.03 619.48 C 465.43 624.01 489.06 628.57 512.99 628.21 C 525.39 628.44 537.98 627.49 549.88 623.81 C 556.51 621.84 560.67 615.98 565.98 611.97 C 577.43 603.23 588.42 593.80 597.96 582.98 C 601.85 578.47 606.03 574.10 608.80 568.78 C 614.28 558.76 616.57 547.36 617.74 536.10 C 618.16 532.96 617.65 529.39 619.93 526.84 C 621.24 531.72 620.91 536.84 620.37 541.81 C 619.50 549.08 618.05 556.30 615.79 563.27 C 626.53 551.42 640.53 542.39 655.97 538.12 C 669.98 534.43 684.59 537.51 697.95 542.18 C 705.21 544.88 711.67 549.29 718.88 552.10 C 733.54 557.88 748.29 563.80 763.90 566.50 C 774.72 569.06 785.84 569.82 796.89 570.70 C 812.38 571.73 827.85 573.09 843.38 573.46 C 838.80 565.95 835.38 557.62 834.56 548.81 C 834.00 541.51 833.73 533.91 836.43 526.96 C 820.29 525.47 804.04 525.93 787.96 523.89 C 777.77 523.51 767.60 522.12 757.77 519.39 C 747.82 517.25 738.16 513.77 728.03 512.51 C 717.04 511.19 705.98 510.54 695.01 509.06 C 675.03 507.43 654.92 508.36 634.95 506.45 C 630.29 505.84 625.74 507.31 621.13 507.64 C 603.70 509.13 586.20 507.14 568.98 504.57 C 564.18 503.65 558.90 503.43 554.95 500.23 C 557.47 500.15 560.01 500.30 562.52 500.67 C 581.16 503.42 600.02 505.15 618.88 504.50 C 602.13 500.82 585.84 495.34 569.84 489.23 C 567.02 488.24 564.42 486.69 562.31 484.57 C 566.93 484.38 571.21 486.23 575.52 487.62 C 589.77 492.36 604.11 497.23 619.05 499.35 C 641.65 502.98 664.60 501.46 687.37 502.40 C 698.30 503.10 709.12 505.00 720.06 505.66 C 745.24 507.24 768.54 520.62 794.13 518.52 C 789.10 503.40 794.75 486.44 805.19 474.99 C 794.91 470.73 783.57 470.63 773.07 467.13 C 758.88 462.57 745.53 455.54 731.01 452.01 C 715.63 448.77 699.98 446.67 684.27 446.22 C 671.74 445.51 660.52 439.47 649.10 434.90 C 632.83 426.72 617.16 416.54 599.15 412.58 C 590.55 410.56 581.76 408.63 572.87 409.34 C 566.98 409.69 561.50 412.11 556.05 414.15 M 870.10 456.18 C 857.87 462.11 846.31 469.89 832.89 472.96 C 826.36 474.57 819.47 474.00 813.04 476.08 C 811.00 476.72 808.82 477.60 807.71 479.55 C 800.66 491.23 795.78 505.24 798.96 518.96 C 805.61 519.22 812.26 519.89 818.92 519.45 C 837.43 517.77 856.07 519.08 874.58 517.38 C 880.63 516.64 887.09 515.84 892.16 512.18 C 895.09 510.03 894.74 505.14 891.93 503.04 C 888.67 500.52 884.54 498.50 880.32 499.29 C 872.55 500.38 864.84 502.27 856.95 502.34 C 854.51 502.56 852.45 501.14 850.49 499.93 C 857.79 497.34 865.68 497.33 873.12 495.20 C 886.58 491.66 901.52 489.36 911.78 479.06 C 902.19 482.60 892.15 484.97 881.98 486.00 C 879.83 486.43 877.87 485.41 876.22 484.17 C 887.77 480.79 900.18 479.22 910.43 472.42 C 917.35 467.94 921.96 460.73 925.02 453.23 C 917.40 458.89 909.20 463.82 900.44 467.49 C 897.54 468.76 894.35 469.06 891.24 469.27 C 893.33 466.93 895.86 465.01 898.80 463.87 C 907.54 460.22 915.59 454.92 922.41 448.35 C 924.68 445.92 927.38 442.68 926.25 439.12 C 921.33 436.41 915.41 437.69 910.15 438.44 C 895.49 440.97 883.21 449.80 870.10 456.18 M 912.83 504.87 C 908.52 506.57 904.17 508.16 899.70 509.37 C 897.67 517.39 889.21 520.48 881.91 521.77 C 867.10 524.25 852.02 523.16 837.08 523.15 C 838.30 523.74 839.54 524.34 840.78 524.96 C 837.13 540.78 838.64 558.43 847.80 572.18 C 862.60 576.02 877.72 578.51 892.87 580.51 C 903.20 581.65 913.64 583.34 924.04 582.06 C 926.41 581.62 929.58 581.24 930.68 578.74 C 931.38 574.97 928.99 571.04 925.38 569.81 C 914.88 565.73 903.61 564.00 893.09 559.94 C 890.99 559.35 889.61 557.56 888.90 555.59 C 896.03 556.98 902.97 559.21 910.10 560.64 C 915.38 561.67 920.72 563.64 926.17 562.59 C 933.81 561.06 941.39 559.14 948.84 556.81 C 955.40 554.79 962.32 551.86 965.71 545.47 C 945.13 543.65 924.90 550.97 904.31 549.04 C 904.29 548.35 904.27 546.95 904.25 546.25 C 917.43 545.24 930.29 541.88 943.45 540.74 C 948.02 540.30 952.75 539.97 956.95 537.91 C 961.79 535.55 965.51 531.48 968.60 527.16 C 961.50 525.70 954.22 526.04 947.03 526.13 C 930.84 526.32 915.08 530.67 898.96 531.56 C 896.99 531.69 895.14 530.75 893.38 530.07 C 899.21 527.40 905.72 527.19 911.89 525.78 C 922.81 523.39 933.74 520.60 944.98 520.40 C 951.53 520.38 958.98 518.66 962.87 512.90 C 963.89 510.99 965.28 508.27 963.63 506.34 C 961.64 504.44 958.60 504.68 956.06 504.66 C 942.88 505.26 930.73 510.94 918.00 513.76 C 912.98 514.78 908.02 516.63 902.85 516.40 L 901.92 515.06 C 906.33 511.74 912.06 511.19 917.02 508.99 C 922.59 506.57 928.73 505.46 933.86 502.09 C 926.75 501.33 919.48 502.26 912.83 504.87 M 587.06 668.08 C 583.30 672.10 579.96 676.50 576.11 680.45 C 585.43 683.54 595.60 683.90 604.52 688.12 C 599.09 690.47 593.17 688.02 587.63 687.31 C 590.65 694.10 591.07 701.63 591.62 708.94 C 591.90 718.33 592.29 727.77 591.13 737.12 C 599.08 735.55 607.06 734.03 614.82 731.64 C 627.06 728.00 639.44 722.85 648.32 713.35 C 655.75 705.45 659.55 694.66 660.03 683.95 C 656.69 674.41 650.28 665.68 641.34 660.70 C 630.87 655.27 619.88 650.30 607.98 649.31 C 600.74 655.26 593.64 661.40 587.06 668.08 M 303.58 701.59 C 294.83 706.10 285.08 708.17 275.39 709.41 C 272.44 717.71 273.68 726.72 275.31 735.17 C 277.33 744.30 280.37 753.44 285.78 761.17 C 287.43 763.70 289.98 765.40 292.71 766.59 C 303.00 763.03 313.05 758.77 322.73 753.77 C 332.18 749.29 340.93 743.46 350.74 739.70 C 342.96 733.71 335.86 726.75 330.52 718.47 C 324.67 709.50 319.47 699.99 316.05 689.82 C 312.40 694.21 308.72 698.88 303.58 701.59 M 113.84 708.82 C 110.20 712.50 106.50 716.13 102.46 719.37 C 95.80 724.69 89.95 730.93 83.50 736.50 C 76.81 742.47 69.62 747.93 63.50 754.52 C 56.21 763.12 50.75 773.14 46.55 783.57 C 45.03 787.56 43.77 791.75 43.71 796.06 C 43.56 800.82 47.43 805.15 52.08 805.88 C 58.21 807.04 64.16 804.32 69.45 801.54 C 79.74 795.84 88.78 788.24 98.03 781.05 C 108.41 774.37 118.95 767.18 131.14 764.31 C 125.68 753.98 124.78 741.77 126.58 730.38 C 127.44 724.88 129.80 719.57 134.07 715.89 C 133.56 712.24 133.32 708.16 130.70 705.32 C 129.26 703.77 127.26 702.23 125.01 702.73 C 120.69 703.32 116.85 705.75 113.84 708.82 M 396.57 736.03 C 399.54 739.83 402.63 743.54 405.69 747.28 C 411.30 754.12 415.44 762.04 421.34 768.66 C 427.58 775.76 433.87 782.83 440.45 789.61 C 448.80 798.24 459.29 804.98 470.93 808.14 C 475.43 808.98 481.92 809.85 484.53 805.08 C 484.11 801.62 482.10 798.64 479.83 796.13 C 473.73 789.59 465.87 784.71 460.70 777.32 C 456.65 771.19 458.84 763.62 460.04 756.98 C 461.28 751.60 459.48 746.25 457.51 741.30 C 449.84 740.22 442.09 739.43 434.60 737.43 C 427.80 735.21 420.36 731.97 417.31 724.98 C 410.46 728.79 403.46 732.30 396.57 736.03 Z" />
<path fill="#020202" opacity="1.00" d=" M 535.58 598.65 C 538.80 596.26 541.38 593.17 544.31 590.46 C 544.99 595.07 541.67 598.59 538.54 601.43 C 531.44 608.45 521.48 610.97 512.03 613.01 C 509.47 613.61 506.83 613.49 504.26 613.12 C 506.62 610.25 510.43 609.84 513.76 608.80 C 521.47 606.53 529.18 603.63 535.58 598.65 Z" />
</g>
<g id="#f0b58bff">
<path fill="#f0b58b" opacity="1.00" d=" M 646.53 327.55 C 650.63 323.65 655.59 320.79 660.59 318.19 C 664.55 320.75 668.22 324.06 670.26 328.40 C 671.28 332.03 671.90 335.76 673.01 339.38 C 659.22 337.39 647.30 348.61 643.42 361.04 C 644.04 363.93 647.38 362.77 649.34 362.26 C 656.02 360.23 662.98 359.10 669.48 356.52 C 672.04 354.98 670.19 351.58 669.60 349.42 C 671.43 348.57 673.25 347.69 675.06 346.78 C 677.24 352.59 680.61 357.82 684.21 362.84 C 685.97 365.27 687.31 368.64 685.45 371.41 C 681.99 377.48 679.75 384.22 679.25 391.22 C 678.22 402.19 677.49 413.61 672.75 423.73 C 670.69 428.64 666.20 431.68 662.19 434.87 C 657.55 432.85 652.72 431.23 648.27 428.79 C 637.10 422.30 625.70 416.15 613.77 411.19 C 605.41 407.88 596.53 406.17 587.74 404.50 C 589.74 401.51 590.00 397.94 590.71 394.53 C 592.61 392.79 595.32 392.00 596.81 389.82 C 598.21 387.75 597.87 385.14 597.83 382.78 C 588.00 381.52 583.76 368.74 588.90 360.97 C 590.68 358.25 593.65 355.97 597.04 356.12 C 601.55 356.28 605.48 359.84 606.64 364.11 C 607.73 367.72 606.43 371.44 606.67 375.11 C 607.94 377.61 611.48 376.81 613.04 375.05 C 619.04 368.81 621.08 360.11 625.53 352.88 C 631.73 351.08 637.01 346.72 639.91 340.94 C 642.32 336.59 642.96 331.21 646.53 327.55 Z" />
<path fill="#f0b58b" opacity="1.00" d=" M 587.06 668.08 C 593.64 661.40 600.74 655.26 607.98 649.31 C 619.88 650.30 630.87 655.27 641.34 660.70 C 650.28 665.68 656.69 674.41 660.03 683.95 C 659.55 694.66 655.75 705.45 648.32 713.35 C 639.44 722.85 627.06 728.00 614.82 731.64 C 607.06 734.03 599.08 735.55 591.13 737.12 C 592.29 727.77 591.90 718.33 591.62 708.94 C 591.07 701.63 590.65 694.10 587.63 687.31 C 593.17 688.02 599.09 690.47 604.52 688.12 C 595.60 683.90 585.43 683.54 576.11 680.45 C 579.96 676.50 583.30 672.10 587.06 668.08 Z" />
<path fill="#f0b58b" opacity="1.00" d=" M 303.58 701.59 C 308.72 698.88 312.40 694.21 316.05 689.82 C 319.47 699.99 324.67 709.50 330.52 718.47 C 335.86 726.75 342.96 733.71 350.74 739.70 C 340.93 743.46 332.18 749.29 322.73 753.77 C 313.05 758.77 303.00 763.03 292.71 766.59 C 289.98 765.40 287.43 763.70 285.78 761.17 C 280.37 753.44 277.33 744.30 275.31 735.17 C 273.68 726.72 272.44 717.71 275.39 709.41 C 285.08 708.17 294.83 706.10 303.58 701.59 Z" />
</g>
<g id="#f35e11ff">
<path fill="var(--shirt-color, grey)" opacity="1.00" d=" M 556.05 414.15 C 561.50 412.11 566.98 409.69 572.87 409.34 C 581.76 408.63 590.55 410.56 599.15 412.58 C 617.16 416.54 632.83 426.72 649.10 434.90 C 660.52 439.47 671.74 445.51 684.27 446.22 C 699.98 446.67 715.63 448.77 731.01 452.01 C 745.53 455.54 758.88 462.57 773.07 467.13 C 783.57 470.63 794.91 470.73 805.19 474.99 C 794.75 486.44 789.10 503.40 794.13 518.52 C 768.54 520.62 745.24 507.24 720.06 505.66 C 709.12 505.00 698.30 503.10 687.37 502.40 C 664.60 501.46 641.65 502.98 619.05 499.35 C 604.11 497.23 589.77 492.36 575.52 487.62 C 571.21 486.23 566.93 484.38 562.31 484.57 C 564.42 486.69 567.02 488.24 569.84 489.23 C 585.84 495.34 602.13 500.82 618.88 504.50 C 600.02 505.15 581.16 503.42 562.52 500.67 C 560.01 500.30 557.47 500.15 554.95 500.23 C 558.90 503.43 564.18 503.65 568.98 504.57 C 586.20 507.14 603.70 509.13 621.13 507.64 C 625.74 507.31 630.29 505.84 634.95 506.45 C 654.92 508.36 675.03 507.43 695.01 509.06 C 705.98 510.54 717.04 511.19 728.03 512.51 C 738.16 513.77 747.82 517.25 757.77 519.39 C 767.60 522.12 777.77 523.51 787.96 523.89 C 804.04 525.93 820.29 525.47 836.43 526.96 C 833.73 533.91 834.00 541.51 834.56 548.81 C 835.38 557.62 838.80 565.95 843.38 573.46 C 827.85 573.09 812.38 571.73 796.89 570.70 C 785.84 569.82 774.72 569.06 763.90 566.50 C 748.29 563.80 733.54 557.88 718.88 552.10 C 711.67 549.29 705.21 544.88 697.95 542.18 C 684.59 537.51 669.98 534.43 655.97 538.12 C 640.53 542.39 626.53 551.42 615.79 563.27 C 618.05 556.30 619.50 549.08 620.37 541.81 C 620.91 536.84 621.24 531.72 619.93 526.84 C 617.65 529.39 618.16 532.96 617.74 536.10 C 616.57 547.36 614.28 558.76 608.80 568.78 C 606.03 574.10 601.85 578.47 597.96 582.98 C 588.42 593.80 577.43 603.23 565.98 611.97 C 560.67 615.98 556.51 621.84 549.88 623.81 C 537.98 627.49 525.39 628.44 512.99 628.21 C 489.06 628.57 465.43 624.01 442.03 619.48 C 436.32 618.39 430.51 618.01 424.75 617.31 C 435.46 613.74 446.16 609.82 455.82 603.91 C 467.77 596.59 478.73 587.68 491.24 581.26 C 502.68 575.37 515.13 571.12 528.00 569.92 C 535.70 569.22 543.99 570.03 550.55 574.47 C 552.29 575.60 552.59 577.84 553.51 579.56 C 556.00 578.04 556.38 574.79 554.29 572.75 C 548.87 567.06 540.64 564.85 533.00 564.49 C 519.45 564.38 506.20 568.48 493.95 574.00 C 479.97 580.28 467.94 589.91 455.05 598.05 C 444.32 604.85 432.44 609.57 420.47 613.68 C 416.13 615.12 411.72 616.92 407.06 616.63 C 398.37 616.44 389.31 615.70 381.51 611.54 C 378.06 609.80 376.32 605.69 376.86 601.96 C 377.27 595.55 380.85 589.76 385.74 585.76 C 395.41 577.80 405.20 569.90 413.73 560.70 C 418.51 555.35 421.77 548.88 426.20 543.27 C 431.03 537.11 435.68 530.73 441.47 525.42 C 454.02 514.33 467.18 503.80 478.14 491.06 C 490.46 477.33 502.30 463.18 514.03 448.94 C 520.01 441.97 526.05 435.01 532.75 428.70 C 539.47 422.38 547.45 417.46 556.05 414.15 M 535.58 598.65 C 529.18 603.63 521.47 606.53 513.76 608.80 C 510.43 609.84 506.62 610.25 504.26 613.12 C 506.83 613.49 509.47 613.61 512.03 613.01 C 521.48 610.97 531.44 608.45 538.54 601.43 C 541.67 598.59 544.99 595.07 544.31 590.46 C 541.38 593.17 538.80 596.26 535.58 598.65 Z" />
</g>
<g id="#4d4d4dff">
<path fill="#4d4d4d" opacity="1.00" d=" M 870.10 456.18 C 883.21 449.80 895.49 440.97 910.15 438.44 C 915.41 437.69 921.33 436.41 926.25 439.12 C 927.38 442.68 924.68 445.92 922.41 448.35 C 915.59 454.92 907.54 460.22 898.80 463.87 C 895.86 465.01 893.33 466.93 891.24 469.27 C 894.35 469.06 897.54 468.76 900.44 467.49 C 909.20 463.82 917.40 458.89 925.02 453.23 C 921.96 460.73 917.35 467.94 910.43 472.42 C 900.18 479.22 887.77 480.79 876.22 484.17 C 877.87 485.41 879.83 486.43 881.98 486.00 C 892.15 484.97 902.19 482.60 911.78 479.06 C 901.52 489.36 886.58 491.66 873.12 495.20 C 865.68 497.33 857.79 497.34 850.49 499.93 C 852.45 501.14 854.51 502.56 856.95 502.34 C 864.84 502.27 872.55 500.38 880.32 499.29 C 884.54 498.50 888.67 500.52 891.93 503.04 C 894.74 505.14 895.09 510.03 892.16 512.18 C 887.09 515.84 880.63 516.64 874.58 517.38 C 856.07 519.08 837.43 517.77 818.92 519.45 C 812.26 519.89 805.61 519.22 798.96 518.96 C 795.78 505.24 800.66 491.23 807.71 479.55 C 808.82 477.60 811.00 476.72 813.04 476.08 C 819.47 474.00 826.36 474.57 832.89 472.96 C 846.31 469.89 857.87 462.11 870.10 456.18 Z" />
<path fill="#4d4d4d" opacity="1.00" d=" M 912.83 504.87 C 919.48 502.26 926.75 501.33 933.86 502.09 C 928.73 505.46 922.59 506.57 917.02 508.99 C 912.06 511.19 906.33 511.74 901.92 515.06 L 902.85 516.40 C 908.02 516.63 912.98 514.78 918.00 513.76 C 930.73 510.94 942.88 505.26 956.06 504.66 C 958.60 504.68 961.64 504.44 963.63 506.34 C 965.28 508.27 963.89 510.99 962.87 512.90 C 958.98 518.66 951.53 520.38 944.98 520.40 C 933.74 520.60 922.81 523.39 911.89 525.78 C 905.72 527.19 899.21 527.40 893.38 530.07 C 895.14 530.75 896.99 531.69 898.96 531.56 C 915.08 530.67 930.84 526.32 947.03 526.13 C 954.22 526.04 961.50 525.70 968.60 527.16 C 965.51 531.48 961.79 535.55 956.95 537.91 C 952.75 539.97 948.02 540.30 943.45 540.74 C 930.29 541.88 917.43 545.24 904.25 546.25 C 904.27 546.95 904.29 548.35 904.31 549.04 C 924.90 550.97 945.13 543.65 965.71 545.47 C 962.32 551.86 955.40 554.79 948.84 556.81 C 941.39 559.14 933.81 561.06 926.17 562.59 C 920.72 563.64 915.38 561.67 910.10 560.64 C 902.97 559.21 896.03 556.98 888.90 555.59 C 889.61 557.56 890.99 559.35 893.09 559.94 C 903.61 564.00 914.88 565.73 925.38 569.81 C 928.99 571.04 931.38 574.97 930.68 578.74 C 929.58 581.24 926.41 581.62 924.04 582.06 C 913.64 583.34 903.20 581.65 892.87 580.51 C 877.72 578.51 862.60 576.02 847.80 572.18 C 838.64 558.43 837.13 540.78 840.78 524.96 C 839.54 524.34 838.30 523.74 837.08 523.15 C 852.02 523.16 867.10 524.25 881.91 521.77 C 889.21 520.48 897.67 517.39 899.70 509.37 C 904.17 508.16 908.52 506.57 912.83 504.87 Z" />
<path fill="#4d4d4d" opacity="1.00" d=" M 113.84 708.82 C 116.85 705.75 120.69 703.32 125.01 702.73 C 127.26 702.23 129.26 703.77 130.70 705.32 C 133.32 708.16 133.56 712.24 134.07 715.89 C 129.80 719.57 127.44 724.88 126.58 730.38 C 124.78 741.77 125.68 753.98 131.14 764.31 C 118.95 767.18 108.41 774.37 98.03 781.05 C 88.78 788.24 79.74 795.84 69.45 801.54 C 64.16 804.32 58.21 807.04 52.08 805.88 C 47.43 805.15 43.56 800.82 43.71 796.06 C 43.77 791.75 45.03 787.56 46.55 783.57 C 50.75 773.14 56.21 763.12 63.50 754.52 C 69.62 747.93 76.81 742.47 83.50 736.50 C 89.95 730.93 95.80 724.69 102.46 719.37 C 106.50 716.13 110.20 712.50 113.84 708.82 Z" />
<path fill="#4d4d4d" opacity="1.00" d=" M 396.57 736.03 C 403.46 732.30 410.46 728.79 417.31 724.98 C 420.36 731.97 427.80 735.21 434.60 737.43 C 442.09 739.43 449.84 740.22 457.51 741.30 C 459.48 746.25 461.28 751.60 460.04 756.98 C 458.84 763.62 456.65 771.19 460.70 777.32 C 465.87 784.71 473.73 789.59 479.83 796.13 C 482.10 798.64 484.11 801.62 484.53 805.08 C 481.92 809.85 475.43 808.98 470.93 808.14 C 459.29 804.98 448.80 798.24 440.45 789.61 C 433.87 782.83 427.58 775.76 421.34 768.66 C 415.44 762.04 411.30 754.12 405.69 747.28 C 402.63 743.54 399.54 739.83 396.57 736.03 Z" />
</g>
</svg>
