<?xml version="1.0" encoding="UTF-8" ?>
<!DOCTYPE svg PUBLIC "-//W3C//DTD SVG 1.1//EN" "http://www.w3.org/Graphics/SVG/1.1/DTD/svg11.dtd">
<svg width="1000pt" height="1000pt" viewBox="0 0 1000 1000" version="1.1" xmlns="http://www.w3.org/2000/svg">
<g id="#020202ff">
<path fill="#020202" opacity="1.00" d=" M 655.19 271.16 C 658.15 269.70 660.91 267.71 664.12 266.81 C 671.20 265.69 678.67 265.25 685.58 267.51 C 698.19 271.36 708.46 280.44 716.31 290.75 C 719.51 294.73 720.41 300.29 724.26 303.73 C 728.59 304.36 733.16 302.99 737.33 304.77 C 744.66 307.90 750.13 314.30 753.74 321.26 C 759.58 331.07 758.62 344.15 752.57 353.63 C 747.32 360.31 739.69 364.77 734.80 371.78 C 733.44 374.35 732.91 377.25 732.08 380.01 C 729.90 387.99 727.04 395.79 725.53 403.93 C 724.47 409.29 725.50 414.70 726.06 420.05 C 726.41 423.11 724.63 426.46 721.56 427.33 C 718.17 428.21 714.46 427.58 711.25 429.14 C 707.69 430.91 704.71 433.58 701.51 435.89 C 710.52 441.55 717.92 449.24 725.99 456.09 C 737.53 465.64 748.51 475.82 759.63 485.85 C 768.71 484.01 777.98 485.42 787.02 486.78 C 802.28 489.24 817.30 493.20 831.92 498.24 C 839.47 500.99 847.06 503.85 853.98 508.00 C 856.74 509.67 859.86 512.31 859.27 515.94 C 858.81 519.50 855.42 521.35 852.69 523.09 C 856.83 524.22 860.80 527.36 865.28 526.32 C 880.82 523.66 896.14 519.53 911.92 518.42 C 923.95 517.54 936.70 516.97 947.94 522.11 C 951.99 523.76 954.75 528.58 952.77 532.80 C 950.17 539.07 943.04 541.32 937.05 542.99 C 945.06 543.92 952.99 545.72 960.57 548.51 C 963.24 549.57 966.08 550.69 968.02 552.93 C 970.18 555.37 970.14 559.49 967.70 561.72 C 965.28 564.06 961.75 564.44 958.62 565.16 C 963.65 567.89 969.12 571.11 971.36 576.67 C 972.89 580.37 971.02 584.80 967.41 586.43 C 960.82 589.51 953.28 588.25 946.28 587.93 C 951.98 591.90 958.43 596.22 960.82 603.08 C 962.06 608.15 955.81 609.79 952.00 609.13 C 935.07 607.16 918.70 601.43 903.54 593.75 C 908.74 599.86 913.82 606.81 914.63 615.05 C 915.08 618.29 913.28 622.03 909.85 622.65 C 904.44 623.62 899.43 620.59 895.03 617.87 C 879.91 607.91 868.61 593.50 857.28 579.66 C 854.03 577.07 850.41 574.03 846.01 574.19 C 838.62 574.09 831.37 572.72 824.13 571.44 C 813.64 570.32 803.52 567.17 793.62 563.67 C 785.70 560.85 778.39 556.60 770.59 553.48 C 765.45 551.43 760.44 549.09 755.61 546.40 C 748.79 542.68 741.18 540.64 734.47 536.71 C 728.22 537.85 722.03 536.06 715.97 534.77 C 708.99 533.15 702.02 531.55 695.03 530.01 C 688.31 528.49 681.34 526.66 675.98 522.09 C 669.84 516.92 663.98 511.41 657.77 506.31 C 645.12 510.36 632.96 516.30 622.29 524.26 C 616.43 528.55 610.25 532.37 603.90 535.90 C 596.36 540.10 588.91 544.51 580.96 547.90 C 570.75 552.28 559.84 554.61 549.03 556.98 C 542.13 558.52 534.97 558.50 528.13 560.31 C 520.94 562.22 515.29 567.32 509.02 571.04 C 496.70 578.49 483.08 583.63 469.12 586.98 C 463.67 588.27 458.08 588.98 452.49 588.77 C 446.04 591.97 440.51 596.59 434.57 600.58 C 426.54 606.48 420.68 615.01 411.94 619.99 C 404.92 624.18 398.38 629.13 391.31 633.24 C 385.27 636.75 378.19 637.35 371.62 639.33 C 365.10 641.29 358.48 642.86 352.01 644.95 C 346.79 646.57 341.44 648.27 335.92 648.18 C 332.87 648.20 331.58 645.00 329.83 643.07 C 326.08 638.66 321.68 634.85 318.09 630.29 C 311.20 630.31 304.62 632.58 297.82 633.33 C 281.55 634.70 265.32 637.67 248.94 636.74 C 238.22 635.97 227.33 634.83 217.31 630.69 C 214.97 629.67 212.29 628.69 209.80 629.86 C 203.78 632.49 198.80 636.97 192.95 639.95 C 175.82 649.26 154.29 648.60 137.06 639.89 C 132.60 637.61 128.18 634.11 126.98 629.00 C 125.31 620.80 129.17 611.63 136.65 607.64 C 146.66 602.15 157.51 597.88 168.89 596.44 C 177.53 595.06 186.32 596.07 194.99 595.01 C 199.92 594.44 204.91 593.78 209.87 594.46 C 213.59 595.05 217.14 593.56 220.72 592.86 C 233.63 589.91 246.93 589.89 260.08 589.22 C 265.33 588.86 270.71 589.54 275.85 588.21 C 263.89 588.90 251.94 587.50 239.97 587.85 C 223.30 588.04 206.67 586.66 190.00 586.87 C 170.00 586.68 150.12 590.30 130.11 589.33 C 118.19 588.86 106.82 583.64 97.96 575.79 C 91.14 580.96 84.20 586.05 78.30 592.30 C 71.28 599.70 63.67 606.59 55.05 612.09 C 48.91 615.90 41.54 619.87 34.12 617.71 C 29.23 616.63 27.12 611.40 26.17 607.01 C 24.01 598.46 27.65 589.92 31.49 582.44 C 35.46 574.73 41.59 568.51 46.56 561.49 C 49.61 557.25 50.39 552.02 51.20 546.99 C 52.33 540.07 56.94 534.48 61.55 529.48 C 68.60 522.08 77.32 514.74 87.96 514.05 C 96.16 513.50 102.84 519.33 107.84 525.15 C 111.76 529.68 112.84 535.85 113.01 541.67 C 123.34 538.09 134.25 536.84 145.01 535.20 C 171.84 531.70 198.99 531.22 226.01 531.96 C 235.53 532.83 245.18 532.63 254.58 534.54 C 263.32 522.65 275.48 514.00 286.98 505.01 C 299.14 495.52 312.10 487.08 325.59 479.61 C 337.89 472.70 350.47 465.56 364.46 462.80 C 374.12 461.87 383.70 459.97 392.97 457.07 C 397.57 455.86 398.64 450.55 401.07 447.08 C 403.99 441.00 410.14 437.40 416.42 435.64 C 427.66 432.43 439.44 431.97 451.05 431.47 C 457.58 431.23 462.69 426.45 468.99 425.27 C 478.14 423.60 487.51 425.00 496.55 426.77 C 498.61 427.05 500.75 427.66 502.83 427.08 C 505.41 424.18 506.92 420.48 509.66 417.70 C 517.54 409.48 525.83 400.95 536.75 396.91 C 541.47 394.93 546.92 394.29 550.96 390.92 C 556.00 386.19 558.04 379.36 561.66 373.65 C 566.25 366.44 572.39 360.00 580.12 356.17 C 584.24 354.12 589.17 353.46 593.54 355.14 C 593.29 352.58 592.80 349.93 593.56 347.41 C 594.60 343.70 597.22 340.69 598.27 336.99 C 598.35 333.04 596.94 329.00 598.42 325.14 C 599.81 320.43 604.04 317.52 606.71 313.61 C 610.05 308.70 613.03 303.50 615.10 297.92 C 616.57 294.10 618.50 290.26 621.85 287.76 C 626.81 284.04 633.04 282.85 638.74 280.74 C 644.83 278.67 649.52 274.05 655.19 271.16 M 700.90 352.48 C 698.44 352.80 698.49 349.52 698.03 347.90 C 690.42 354.17 681.74 361.22 671.31 360.80 C 670.99 358.04 671.66 354.70 669.38 352.61 C 665.18 348.85 658.44 347.66 653.44 350.48 C 649.53 352.80 649.35 357.99 649.79 362.01 C 650.16 366.81 653.09 370.76 654.74 375.14 C 656.41 379.29 652.79 383.25 649.68 385.50 C 643.87 387.04 640.09 391.98 635.25 395.19 C 640.21 401.07 645.06 407.50 652.32 410.69 C 659.93 413.93 666.79 418.68 674.50 421.70 C 681.90 424.58 688.93 428.29 695.70 432.42 C 701.55 428.66 706.59 422.75 713.91 422.01 C 715.99 421.58 718.40 422.24 720.31 421.16 C 720.25 416.75 719.00 412.43 719.30 408.01 C 719.73 398.99 723.73 390.70 725.58 381.97 C 723.22 383.01 721.93 385.31 719.98 386.85 C 716.97 386.87 714.09 385.80 711.32 384.77 C 703.39 381.74 695.05 379.49 687.74 375.08 C 690.81 371.27 694.73 367.69 699.74 366.89 C 709.67 364.86 721.59 366.00 728.45 374.32 C 729.62 370.74 730.86 367.19 732.12 363.64 C 729.36 361.86 725.55 359.87 725.71 356.05 C 726.23 352.29 727.51 348.68 728.11 344.94 C 720.23 350.70 710.20 351.14 700.90 352.48 M 567.85 373.85 C 563.74 379.37 561.95 386.25 557.63 391.64 C 551.65 398.80 549.25 408.75 551.13 417.87 C 545.85 412.45 548.53 404.36 550.27 398.00 C 544.36 400.14 538.04 401.35 532.60 404.64 C 525.01 409.08 518.76 415.44 512.96 421.96 C 509.53 426.20 507.91 433.86 501.04 433.36 C 490.67 432.30 480.26 428.78 469.76 430.83 C 461.18 433.04 454.88 439.86 449.41 446.44 C 438.46 460.10 433.47 477.74 432.79 495.03 C 432.37 500.46 434.53 505.48 436.19 510.51 C 433.94 509.32 431.39 508.13 430.36 505.63 C 427.52 499.25 428.06 492.00 428.79 485.24 C 430.40 473.50 433.23 461.63 439.50 451.44 C 442.63 446.23 446.68 441.65 451.03 437.44 C 438.66 438.00 425.94 438.13 414.13 442.24 C 407.20 444.45 402.70 451.15 401.05 457.93 C 399.88 478.00 402.88 498.76 412.26 516.74 C 415.49 523.58 420.64 529.25 424.13 535.93 C 427.49 542.41 427.80 549.88 430.30 556.66 C 433.27 565.20 438.46 572.84 444.73 579.32 C 449.10 583.80 455.97 585.85 462.04 584.20 C 477.57 580.40 492.98 575.18 506.53 566.52 C 512.03 563.06 516.92 558.55 523.05 556.17 C 531.05 552.99 539.83 553.48 548.15 551.72 C 557.41 549.81 566.71 547.79 575.60 544.50 C 585.62 540.80 594.67 535.05 604.03 529.99 C 611.02 526.22 617.53 521.65 624.02 517.09 C 633.08 510.76 643.49 506.79 653.87 503.17 C 647.40 498.18 640.72 493.45 633.65 489.35 C 630.47 487.39 626.65 487.15 623.03 486.96 C 609.73 486.43 596.56 490.07 584.57 495.59 C 579.36 497.84 575.18 501.81 570.05 504.18 C 571.16 501.47 572.77 498.91 575.19 497.19 C 583.58 490.83 593.72 487.32 603.82 484.71 C 609.58 483.17 615.56 482.80 621.50 482.73 C 611.03 478.13 600.07 474.55 588.80 472.53 C 583.63 471.52 578.38 472.11 573.17 472.07 C 574.88 470.49 576.69 468.76 579.09 468.36 C 585.49 467.12 592.01 468.51 598.29 469.82 C 613.81 473.35 628.88 479.13 642.35 487.67 C 655.73 495.93 667.43 506.53 678.95 517.15 C 684.66 522.62 692.71 524.06 700.13 525.84 C 710.78 528.18 721.21 531.43 731.92 533.53 C 733.98 526.58 735.83 519.51 738.99 512.95 C 743.12 503.80 748.82 495.45 755.41 487.90 C 742.48 479.70 731.07 469.45 719.59 459.41 C 712.52 453.09 706.06 446.00 698.01 440.87 C 690.86 436.33 683.74 431.63 676.00 428.12 C 668.77 425.09 661.88 421.31 655.50 416.75 C 658.87 421.34 662.06 426.33 662.89 432.08 C 664.01 440.88 662.14 449.86 658.97 458.06 C 656.94 462.60 654.51 468.28 648.82 468.81 C 651.45 463.73 654.76 458.94 656.24 453.34 C 658.60 444.74 660.46 435.00 656.33 426.62 C 652.33 418.72 645.72 412.53 638.94 407.02 C 632.94 401.31 628.06 394.56 622.45 388.49 C 612.39 377.49 602.73 365.63 589.66 358.05 C 580.48 359.84 573.07 366.38 567.85 373.85 M 756.80 492.83 C 747.07 504.88 741.18 519.36 735.42 533.58 C 744.26 535.57 752.66 539.10 760.71 543.19 C 767.92 546.94 775.76 549.28 782.97 553.02 C 791.97 557.69 801.68 560.71 811.34 563.69 C 817.87 565.71 824.71 566.31 831.44 567.43 C 840.22 568.56 849.22 569.77 858.01 568.02 C 854.47 564.49 850.60 560.95 845.73 559.44 C 840.08 557.80 834.12 557.33 828.62 555.20 C 827.39 554.84 826.97 553.55 827.45 552.45 C 829.18 551.72 831.09 551.71 832.94 551.88 C 845.90 553.08 858.47 557.42 871.56 557.34 C 867.25 553.04 862.73 548.80 857.46 545.70 C 850.58 543.43 843.09 543.18 836.45 540.08 C 836.26 538.13 837.11 537.33 839.01 537.68 C 850.03 537.29 861.66 542.38 872.21 537.44 C 866.51 532.70 859.58 529.92 852.85 527.04 C 850.02 525.86 847.13 524.74 844.06 524.50 C 836.48 523.82 828.85 523.03 821.44 521.27 C 819.12 519.72 822.35 518.05 823.97 518.22 C 834.23 517.33 845.99 522.00 854.93 515.04 C 848.47 509.43 840.24 506.64 832.40 503.58 C 813.81 496.95 794.52 492.10 774.89 489.85 C 770.28 489.39 765.57 488.97 760.99 489.90 C 759.19 490.16 757.91 491.53 756.80 492.83 M 85.43 518.65 C 74.60 521.58 66.49 530.28 59.89 538.92 C 54.33 545.77 56.26 555.40 51.79 562.75 C 47.18 570.62 40.29 576.94 36.20 585.16 C 33.12 591.50 29.24 598.30 30.50 605.61 C 31.11 609.04 33.03 613.24 37.06 613.37 C 42.81 613.83 48.05 610.70 52.74 607.74 C 61.31 602.17 68.58 594.93 75.56 587.53 C 81.45 581.25 88.34 576.05 95.35 571.11 C 93.78 566.59 91.62 561.62 93.57 556.87 C 96.13 549.67 103.20 545.72 109.79 542.83 C 108.96 537.52 108.08 531.82 104.36 527.68 C 99.72 522.30 93.08 516.72 85.43 518.65 M 869.66 530.05 C 871.81 531.64 874.30 533.00 875.78 535.32 C 877.31 537.84 876.19 541.24 873.85 542.83 C 870.73 545.07 866.73 545.13 863.08 545.67 C 867.38 548.62 872.23 551.25 875.24 555.64 C 876.76 557.96 875.09 561.09 872.53 561.67 C 867.25 563.06 861.74 561.87 856.46 561.15 C 858.53 563.21 861.56 564.91 862.21 567.99 C 861.86 569.75 860.72 571.22 859.85 572.76 C 868.81 584.14 878.12 595.41 888.95 605.09 C 894.95 610.24 901.37 615.42 909.25 617.26 C 909.00 613.01 908.33 608.68 906.14 604.95 C 903.04 598.58 897.31 593.77 895.02 586.98 C 898.12 586.64 900.96 588.14 903.74 589.28 C 912.21 593.00 921.12 595.56 929.99 598.16 C 938.51 600.50 947.04 603.16 955.93 603.62 C 950.45 595.35 941.79 589.43 932.29 586.77 C 923.84 585.18 915.13 585.70 906.68 584.09 C 904.80 583.94 902.51 582.07 904.41 580.29 C 907.79 579.11 911.45 579.50 914.97 579.52 C 926.63 580.00 938.29 580.35 949.95 580.87 C 955.16 581.12 960.43 580.96 965.53 579.73 C 961.82 572.20 953.60 568.31 945.96 565.97 C 934.23 564.33 922.14 565.13 910.55 562.37 C 908.77 562.11 908.69 560.10 908.11 558.80 C 919.76 558.06 931.42 558.82 943.06 559.38 C 950.50 559.54 958.29 560.09 965.32 557.11 C 963.08 555.08 960.61 553.25 957.74 552.25 C 947.24 548.36 936.14 546.33 925.03 545.14 C 918.42 544.40 911.81 547.55 905.30 545.92 C 905.22 544.61 905.23 543.13 906.90 542.98 C 916.43 539.92 926.46 538.80 936.17 536.41 C 940.26 535.25 944.89 533.84 947.19 529.95 C 946.63 527.85 944.33 527.19 942.58 526.44 C 933.76 523.34 924.24 523.33 915.02 523.82 C 899.71 524.40 884.81 528.22 869.66 530.05 M 208.53 537.11 C 215.60 550.63 216.07 567.91 208.90 581.49 C 221.92 582.01 234.94 582.55 247.97 582.73 C 256.19 582.74 264.33 584.08 272.53 584.44 C 268.53 575.44 262.99 567.29 258.46 558.57 C 255.25 552.52 251.11 546.28 251.80 539.11 C 237.44 537.59 222.97 536.98 208.53 537.11 M 284.76 593.90 C 285.29 600.97 285.86 608.13 288.02 614.92 C 289.55 619.78 292.41 624.04 294.88 628.45 C 301.11 627.82 307.18 626.16 313.41 625.54 C 309.44 621.14 305.29 616.89 301.34 612.47 C 297.15 607.22 298.18 600.20 299.32 594.10 C 294.47 593.85 289.61 593.85 284.76 593.90 M 182.99 602.42 C 167.66 602.53 151.62 604.91 138.67 613.68 C 134.05 616.70 131.96 622.70 132.83 628.02 C 133.97 631.86 137.70 634.10 141.05 635.85 C 152.78 641.37 166.46 642.85 179.01 639.37 C 189.74 636.99 198.10 629.40 207.95 624.99 C 205.11 621.43 201.87 617.69 201.38 612.98 C 200.77 608.31 203.03 604.01 204.96 599.94 C 197.68 601.09 190.38 602.38 182.99 602.42 Z" />
<path fill="#020202" opacity="1.00" d=" M 787.49 522.46 C 791.46 520.00 796.25 521.40 800.43 522.52 C 807.57 524.72 814.31 528.24 820.29 532.73 C 823.08 534.95 826.08 538.00 825.72 541.88 C 825.36 545.25 822.11 547.41 819.02 547.99 C 812.40 549.29 805.64 547.95 799.12 546.76 C 794.45 545.76 789.62 545.16 785.28 543.11 C 785.41 542.57 785.68 541.48 785.81 540.94 C 797.55 540.60 809.48 544.42 821.07 541.28 C 813.31 530.40 799.81 525.94 787.49 522.46 Z" />
</g>
<g id="#f0b58bff">
<path fill="#f0b58b" opacity="1.00" d=" M 700.90 352.48 C 710.20 351.14 720.23 350.70 728.11 344.94 C 727.51 348.68 726.23 352.29 725.71 356.05 C 725.55 359.87 729.36 361.86 732.12 363.64 C 730.86 367.19 729.62 370.74 728.45 374.32 C 721.59 366.00 709.67 364.86 699.74 366.89 C 694.73 367.69 690.81 371.27 687.74 375.08 C 695.05 379.49 703.39 381.74 711.32 384.77 C 714.09 385.80 716.97 386.87 719.98 386.85 C 721.93 385.31 723.22 383.01 725.58 381.97 C 723.73 390.70 719.73 398.99 719.30 408.01 C 719.00 412.43 720.25 416.75 720.31 421.16 C 718.40 422.24 715.99 421.58 713.91 422.01 C 706.59 422.75 701.55 428.66 695.70 432.42 C 688.93 428.29 681.90 424.58 674.50 421.70 C 666.79 418.68 659.93 413.93 652.32 410.69 C 645.06 407.50 640.21 401.07 635.25 395.19 C 640.09 391.98 643.87 387.04 649.68 385.50 C 652.79 383.25 656.41 379.29 654.74 375.14 C 653.09 370.76 650.16 366.81 649.79 362.01 C 649.35 357.99 649.53 352.80 653.44 350.48 C 658.44 347.66 665.18 348.85 669.38 352.61 C 671.66 354.70 670.99 358.04 671.31 360.80 C 681.74 361.22 690.42 354.17 698.03 347.90 C 698.49 349.52 698.44 352.80 700.90 352.48 Z" />
<path fill="#f0b58b" opacity="1.00" d=" M 208.53 537.11 C 222.97 536.98 237.44 537.59 251.80 539.11 C 251.11 546.28 255.25 552.52 258.46 558.57 C 262.99 567.29 268.53 575.44 272.53 584.44 C 264.33 584.08 256.19 582.74 247.97 582.73 C 234.94 582.55 221.92 582.01 208.90 581.49 C 216.07 567.91 215.60 550.63 208.53 537.11 Z" />
<path fill="#f0b58b" opacity="1.00" d=" M 284.76 593.90 C 289.61 593.85 294.47 593.85 299.32 594.10 C 298.18 600.20 297.15 607.22 301.34 612.47 C 305.29 616.89 309.44 621.14 313.41 625.54 C 307.18 626.16 301.11 627.82 294.88 628.45 C 292.41 624.04 289.55 619.78 288.02 614.92 C 285.86 608.13 285.29 600.97 284.76 593.90 Z" />
</g>
<g id="#f35e11ff">
<path fill="var(--shirt-color, grey)" opacity="1.00" d=" M 567.85 373.85 C 573.07 366.38 580.48 359.84 589.66 358.05 C 602.73 365.63 612.39 377.49 622.45 388.49 C 628.06 394.56 632.94 401.31 638.94 407.02 C 645.72 412.53 652.33 418.72 656.33 426.62 C 660.46 435.00 658.60 444.74 656.24 453.34 C 654.76 458.94 651.45 463.73 648.82 468.81 C 654.51 468.28 656.94 462.60 658.97 458.06 C 662.14 449.86 664.01 440.88 662.89 432.08 C 662.06 426.33 658.87 421.34 655.50 416.75 C 661.88 421.31 668.77 425.09 676.00 428.12 C 683.74 431.63 690.86 436.33 698.01 440.87 C 706.06 446.00 712.52 453.09 719.59 459.41 C 731.07 469.45 742.48 479.70 755.41 487.90 C 748.82 495.45 743.12 503.80 738.99 512.95 C 735.83 519.51 733.98 526.58 731.92 533.53 C 721.21 531.43 710.78 528.18 700.13 525.84 C 692.71 524.06 684.66 522.62 678.95 517.15 C 667.43 506.53 655.73 495.93 642.35 487.67 C 628.88 479.13 613.81 473.35 598.29 469.82 C 592.01 468.51 585.49 467.12 579.09 468.36 C 576.69 468.76 574.88 470.49 573.17 472.07 C 578.38 472.11 583.63 471.52 588.80 472.53 C 600.07 474.55 611.03 478.13 621.50 482.73 C 615.56 482.80 609.58 483.17 603.82 484.71 C 593.72 487.32 583.58 490.83 575.19 497.19 C 572.77 498.91 571.16 501.47 570.05 504.18 C 575.18 501.81 579.36 497.84 584.57 495.59 C 596.56 490.07 609.73 486.43 623.03 486.96 C 626.65 487.15 630.47 487.39 633.65 489.35 C 640.72 493.45 647.40 498.18 653.87 503.17 C 643.49 506.79 633.08 510.76 624.02 517.09 C 617.53 521.65 611.02 526.22 604.03 529.99 C 594.67 535.05 585.62 540.80 575.60 544.50 C 566.71 547.79 557.41 549.81 548.15 551.72 C 539.83 553.48 531.05 552.99 523.05 556.17 C 516.92 558.55 512.03 563.06 506.53 566.52 C 492.98 575.18 477.57 580.40 462.04 584.20 C 455.97 585.85 449.10 583.80 444.73 579.32 C 438.46 572.84 433.27 565.20 430.30 556.66 C 427.80 549.88 427.49 542.41 424.13 535.93 C 420.64 529.25 415.49 523.58 412.26 516.74 C 402.88 498.76 399.88 478.00 401.05 457.93 C 402.70 451.15 407.20 444.45 414.13 442.24 C 425.94 438.13 438.66 438.00 451.03 437.44 C 446.68 441.65 442.63 446.23 439.50 451.44 C 433.23 461.63 430.40 473.50 428.79 485.24 C 428.06 492.00 427.52 499.25 430.36 505.63 C 431.39 508.13 433.94 509.32 436.19 510.51 C 434.53 505.48 432.37 500.46 432.79 495.03 C 433.47 477.74 438.46 460.10 449.41 446.44 C 454.88 439.86 461.18 433.04 469.76 430.83 C 480.26 428.78 490.67 432.30 501.04 433.36 C 507.91 433.86 509.53 426.20 512.96 421.96 C 518.76 415.44 525.01 409.08 532.60 404.64 C 538.04 401.35 544.36 400.14 550.27 398.00 C 548.53 404.36 545.85 412.45 551.13 417.87 C 549.25 408.75 551.65 398.80 557.63 391.64 C 561.95 386.25 563.74 379.37 567.85 373.85 Z" />
</g>
<g id="#4d4d4dff">
<path fill="#4d4d4d" opacity="1.00" d=" M 756.80 492.83 C 757.91 491.53 759.19 490.16 760.99 489.90 C 765.57 488.97 770.28 489.39 774.89 489.85 C 794.52 492.10 813.81 496.95 832.40 503.58 C 840.24 506.64 848.47 509.43 854.93 515.04 C 845.99 522.00 834.23 517.33 823.97 518.22 C 822.35 518.05 819.12 519.72 821.44 521.27 C 828.85 523.03 836.48 523.82 844.06 524.50 C 847.13 524.74 850.02 525.86 852.85 527.04 C 859.58 529.92 866.51 532.70 872.21 537.44 C 861.66 542.38 850.03 537.29 839.01 537.68 C 837.11 537.33 836.26 538.13 836.45 540.08 C 843.09 543.18 850.58 543.43 857.46 545.70 C 862.73 548.80 867.25 553.04 871.56 557.34 C 858.47 557.42 845.90 553.08 832.94 551.88 C 831.09 551.71 829.18 551.72 827.45 552.45 C 826.97 553.55 827.39 554.84 828.62 555.20 C 834.12 557.33 840.08 557.80 845.73 559.44 C 850.60 560.95 854.47 564.49 858.01 568.02 C 849.22 569.77 840.22 568.56 831.44 567.43 C 824.71 566.31 817.87 565.71 811.34 563.69 C 801.68 560.71 791.97 557.69 782.97 553.02 C 775.76 549.28 767.92 546.94 760.71 543.19 C 752.66 539.10 744.26 535.57 735.42 533.58 C 741.18 519.36 747.07 504.88 756.80 492.83 M 787.49 522.46 C 799.81 525.94 813.31 530.40 821.07 541.28 C 809.48 544.42 797.55 540.60 785.81 540.94 C 785.68 541.48 785.41 542.57 785.28 543.11 C 789.62 545.16 794.45 545.76 799.12 546.76 C 805.64 547.95 812.40 549.29 819.02 547.99 C 822.11 547.41 825.36 545.25 825.72 541.88 C 826.08 538.00 823.08 534.95 820.29 532.73 C 814.31 528.24 807.57 524.72 800.43 522.52 C 796.25 521.40 791.46 520.00 787.49 522.46 Z" />
<path fill="#4d4d4d" opacity="1.00" d=" M 85.43 518.65 C 93.08 516.72 99.72 522.30 104.36 527.68 C 108.08 531.82 108.96 537.52 109.79 542.83 C 103.20 545.72 96.13 549.67 93.57 556.87 C 91.62 561.62 93.78 566.59 95.35 571.11 C 88.34 576.05 81.45 581.25 75.56 587.53 C 68.58 594.93 61.31 602.17 52.74 607.74 C 48.05 610.70 42.81 613.83 37.06 613.37 C 33.03 613.24 31.11 609.04 30.50 605.61 C 29.24 598.30 33.12 591.50 36.20 585.16 C 40.29 576.94 47.18 570.62 51.79 562.75 C 56.26 555.40 54.33 545.77 59.89 538.92 C 66.49 530.28 74.60 521.58 85.43 518.65 Z" />
<path fill="#4d4d4d" opacity="1.00" d=" M 869.66 530.05 C 884.81 528.22 899.71 524.40 915.02 523.82 C 924.24 523.33 933.76 523.34 942.58 526.44 C 944.33 527.19 946.63 527.85 947.19 529.95 C 944.89 533.84 940.26 535.25 936.17 536.41 C 926.46 538.80 916.43 539.92 906.90 542.98 C 905.23 543.13 905.22 544.61 905.30 545.92 C 911.81 547.55 918.42 544.40 925.03 545.14 C 936.14 546.33 947.24 548.36 957.74 552.25 C 960.61 553.25 963.08 555.08 965.32 557.11 C 958.29 560.09 950.50 559.54 943.06 559.38 C 931.42 558.82 919.76 558.06 908.11 558.80 C 908.69 560.10 908.77 562.11 910.55 562.37 C 922.14 565.13 934.23 564.33 945.96 565.97 C 953.60 568.31 961.82 572.20 965.53 579.73 C 960.43 580.96 955.16 581.12 949.95 580.87 C 938.29 580.35 926.63 580.00 914.97 579.52 C 911.45 579.50 907.79 579.11 904.41 580.29 C 902.51 582.07 904.80 583.94 906.68 584.09 C 915.13 585.70 923.84 585.18 932.29 586.77 C 941.79 589.43 950.45 595.35 955.93 603.62 C 947.04 603.16 938.51 600.50 929.99 598.16 C 921.12 595.56 912.21 593.00 903.74 589.28 C 900.96 588.14 898.12 586.64 895.02 586.98 C 897.31 593.77 903.04 598.58 906.14 604.95 C 908.33 608.68 909.00 613.01 909.25 617.26 C 901.37 615.42 894.95 610.24 888.95 605.09 C 878.12 595.41 868.81 584.14 859.85 572.76 C 860.72 571.22 861.86 569.75 862.21 567.99 C 861.56 564.91 858.53 563.21 856.46 561.15 C 861.74 561.87 867.25 563.06 872.53 561.67 C 875.09 561.09 876.76 557.96 875.24 555.64 C 872.23 551.25 867.38 548.62 863.08 545.67 C 866.73 545.13 870.73 545.07 873.85 542.83 C 876.19 541.24 877.31 537.84 875.78 535.32 C 874.30 533.00 871.81 531.64 869.66 530.05 Z" />
<path fill="#4d4d4d" opacity="1.00" d=" M 182.99 602.42 C 190.38 602.38 197.68 601.09 204.96 599.94 C 203.03 604.01 200.77 608.31 201.38 612.98 C 201.87 617.69 205.11 621.43 207.95 624.99 C 198.10 629.40 189.74 636.99 179.01 639.37 C 166.46 642.85 152.78 641.37 141.05 635.85 C 137.70 634.10 133.97 631.86 132.83 628.02 C 131.96 622.70 134.05 616.70 138.67 613.68 C 151.62 604.91 167.66 602.53 182.99 602.42 Z" />
</g>
</svg>
