<?xml version="1.0" encoding="UTF-8" ?>
<!DOCTYPE svg PUBLIC "-//W3C//DTD SVG 1.1//EN" "http://www.w3.org/Graphics/SVG/1.1/DTD/svg11.dtd">
<svg width="1000pt" height="1000pt" viewBox="0 0 1000 1000" version="1.1" xmlns="http://www.w3.org/2000/svg">
<g id="#020202ff">
<path fill="#020202" opacity="1.00" d=" M 624.64 59.63 C 639.90 54.99 656.84 54.09 671.90 60.01 C 678.47 62.69 685.29 65.09 691.21 69.05 C 692.69 73.24 686.52 71.86 684.16 72.12 C 702.12 80.55 717.65 94.50 727.03 112.07 C 729.62 115.88 732.53 119.62 733.62 124.21 C 738.09 140.42 737.86 157.99 732.98 174.06 C 732.18 176.88 729.38 175.89 727.44 175.09 C 726.67 185.18 723.00 194.63 718.79 203.72 C 716.82 209.33 713.36 214.30 711.50 219.94 C 712.55 225.36 715.70 231.23 712.69 236.69 C 710.65 241.99 703.62 241.30 700.70 245.72 C 691.93 256.69 685.35 269.44 675.06 279.17 C 671.04 283.08 665.35 284.18 660.04 285.10 C 645.90 287.92 630.91 285.37 618.06 279.02 C 618.74 288.99 619.04 299.14 616.77 308.94 C 614.32 318.55 610.37 327.76 605.12 336.18 C 603.28 339.25 600.96 342.28 600.73 345.99 C 599.47 363.36 594.83 380.26 589.69 396.83 C 584.01 415.68 575.61 433.55 568.85 452.01 C 566.00 460.04 564.87 468.81 560.10 476.05 C 555.98 482.55 548.30 486.49 545.66 493.95 C 545.58 500.67 548.37 507.32 546.87 514.08 C 545.75 522.88 539.32 529.44 533.91 535.95 C 534.90 545.18 536.10 554.46 535.51 563.77 C 536.04 571.86 535.44 579.95 535.22 588.04 C 534.93 598.89 539.85 608.81 543.05 618.93 C 546.49 629.30 550.51 639.89 550.17 651.00 C 550.10 655.90 547.63 661.19 542.84 663.03 C 538.87 663.97 535.76 660.70 533.38 658.03 C 532.64 662.27 530.81 666.69 526.80 668.81 C 522.56 671.37 517.11 669.77 513.81 666.41 C 514.72 684.82 510.96 703.02 508.17 721.13 C 506.16 734.34 506.69 747.71 506.11 761.01 C 505.55 778.40 504.12 795.74 502.68 813.08 C 501.62 827.62 498.16 841.80 495.36 856.07 C 494.14 861.93 493.41 867.90 491.65 873.64 C 503.41 882.06 515.22 890.66 528.56 896.43 C 544.10 903.27 559.96 909.59 574.47 918.50 C 579.68 921.82 584.87 925.99 587.12 931.96 C 588.74 936.23 589.25 941.50 586.38 945.39 C 584.42 948.31 581.06 949.72 577.85 950.79 C 579.32 953.86 580.18 957.81 577.68 960.63 C 573.80 965.17 567.16 963.57 561.92 964.38 C 541.98 966.73 521.92 964.96 501.94 964.25 C 486.30 963.24 470.60 963.44 454.96 962.25 C 438.31 961.27 421.72 959.36 405.02 959.17 C 401.54 958.99 397.71 959.42 394.64 957.44 C 390.45 954.75 386.17 951.36 384.92 946.28 C 382.33 936.50 385.99 926.60 389.58 917.59 C 393.69 907.53 399.20 897.58 407.85 890.73 C 406.76 881.58 405.36 872.47 404.74 863.28 C 403.82 846.88 402.15 830.49 402.64 814.03 C 403.28 788.69 402.77 763.28 405.29 738.02 C 406.49 724.66 406.77 711.17 409.14 697.94 C 410.25 690.47 414.31 683.73 414.76 676.12 C 415.31 669.90 413.72 663.74 411.45 658.00 C 407.83 659.15 403.95 661.68 400.08 660.05 C 392.92 656.95 385.74 653.81 378.23 651.67 C 376.26 651.01 374.29 651.93 372.43 652.50 C 366.41 654.65 360.32 656.86 353.91 657.39 C 345.00 658.10 336.05 657.04 327.31 655.41 C 325.85 655.44 325.44 654.13 325.26 652.95 C 323.09 640.78 321.61 628.16 316.04 616.95 C 312.34 609.09 307.27 601.93 304.09 593.82 C 296.10 573.94 292.98 552.61 289.09 531.67 C 285.17 508.94 285.56 485.72 287.53 462.81 C 289.15 446.54 290.85 430.17 295.16 414.35 C 296.64 407.85 298.54 401.41 301.54 395.44 C 304.82 389.33 310.10 384.71 314.62 379.56 C 318.93 374.60 320.50 368.07 323.27 362.25 C 327.75 352.63 332.78 342.94 340.65 335.62 C 350.14 326.70 360.52 318.79 370.93 310.99 C 387.38 299.14 404.27 287.84 421.96 277.93 C 438.53 268.87 454.93 259.52 471.59 250.63 C 487.84 242.63 503.77 234.02 519.98 225.94 C 528.81 221.64 537.49 216.92 546.88 213.92 C 551.57 212.47 555.02 208.79 558.44 205.47 C 561.79 201.81 565.79 198.47 568.15 194.09 C 568.08 186.52 568.42 178.25 564.43 171.51 C 560.77 167.62 555.09 164.79 554.53 158.82 C 553.61 144.78 556.95 130.75 562.64 117.96 C 560.83 119.83 559.17 121.89 557.00 123.38 C 554.00 122.70 555.73 119.40 556.65 117.66 C 561.59 108.86 566.58 99.93 573.36 92.37 C 578.35 86.74 584.65 82.53 590.95 78.51 C 590.20 77.18 589.22 75.84 589.18 74.25 C 589.97 71.26 593.08 69.83 595.67 68.67 C 605.08 64.94 614.70 61.67 624.64 59.63 M 668.39 155.43 C 663.04 160.35 660.82 167.65 655.99 173.02 C 651.64 177.96 645.89 182.78 638.96 182.78 C 635.73 183.01 634.36 179.48 631.79 178.23 C 626.63 175.81 619.08 176.63 616.15 182.05 C 612.71 188.82 612.96 196.66 610.87 203.83 C 610.27 205.43 609.75 207.42 608.03 208.16 C 606.62 208.52 605.18 207.31 605.29 205.89 C 604.68 201.00 605.54 195.84 603.61 191.18 C 602.47 188.20 598.98 187.01 596.04 187.06 C 592.37 187.09 589.85 190.18 587.79 192.82 C 583.67 198.99 581.60 206.21 578.83 213.02 C 578.21 215.33 574.80 215.04 573.95 213.04 C 571.91 209.37 571.03 205.21 569.78 201.24 C 564.73 207.06 559.28 212.72 552.52 216.55 C 556.99 227.96 562.84 238.75 568.46 249.62 C 574.59 261.36 581.82 272.54 590.09 282.88 C 593.54 286.84 597.22 290.95 602.13 293.07 C 605.87 294.55 609.69 291.69 611.58 288.62 C 614.29 284.97 613.12 280.26 613.18 276.07 C 606.94 270.61 601.29 263.98 598.43 256.10 C 603.11 257.38 605.60 261.90 608.89 265.10 C 618.25 276.03 633.16 279.76 646.96 280.78 C 653.33 280.82 659.67 279.73 665.86 278.32 C 669.61 277.46 672.42 274.62 674.90 271.86 C 680.52 265.37 685.72 258.47 689.91 250.97 C 692.15 247.23 693.94 243.11 697.12 240.04 C 700.19 237.55 704.27 236.78 707.46 234.47 C 711.47 228.78 703.63 223.08 706.40 217.21 C 708.65 211.38 711.71 205.89 713.89 200.02 C 709.75 200.25 705.60 200.29 701.45 200.31 C 699.37 202.95 697.49 205.79 695.00 208.08 C 694.22 209.18 692.83 208.92 691.86 208.25 C 688.70 206.13 685.99 203.43 683.36 200.71 C 679.27 196.40 674.72 192.29 672.28 186.75 C 675.82 181.83 682.41 181.17 687.99 181.09 C 698.45 181.27 709.36 184.33 717.13 191.62 C 719.33 184.08 721.21 176.46 722.86 168.79 C 717.13 164.18 710.97 157.74 702.93 158.84 C 698.62 158.73 696.28 163.99 691.97 163.47 C 687.32 162.16 684.06 158.31 679.98 155.93 C 676.64 153.64 671.72 152.52 668.39 155.43 M 473.80 255.83 C 464.92 260.53 456.19 265.50 447.32 270.22 C 430.60 279.75 413.43 288.58 397.60 299.59 C 379.73 311.45 362.30 324.07 346.24 338.31 C 337.15 346.22 331.68 357.25 327.06 368.17 C 324.91 373.89 322.57 379.77 318.11 384.12 C 312.23 389.95 305.74 395.76 303.09 403.88 C 309.90 406.04 317.04 405.20 324.05 405.22 C 333.17 406.01 342.28 407.09 351.30 408.69 C 348.06 401.61 347.56 393.61 349.40 386.08 C 351.21 375.32 357.57 366.18 360.95 355.96 C 363.50 348.19 360.35 340.22 357.90 332.87 C 359.47 333.52 361.39 334.01 362.13 335.76 C 364.94 341.02 366.28 347.04 366.44 352.98 C 365.88 363.33 359.72 372.10 356.63 381.74 C 354.30 389.06 352.72 397.00 354.68 404.59 C 356.10 407.55 358.49 410.46 361.87 411.16 C 372.47 414.13 382.48 419.05 391.27 425.68 C 393.78 427.89 397.28 426.70 400.16 426.05 C 410.38 423.07 420.37 419.11 429.36 413.36 C 428.99 415.89 427.74 418.20 425.47 419.48 C 417.04 424.94 407.45 428.58 397.60 430.50 C 403.13 434.59 408.57 438.81 413.89 443.19 C 415.52 444.76 417.79 445.13 419.97 445.28 C 430.44 446.04 441.29 444.58 450.67 439.64 C 454.56 438.00 457.97 435.02 462.26 434.45 C 462.80 436.99 460.34 438.40 458.64 439.65 C 454.11 442.61 449.35 445.28 444.32 447.30 C 436.96 450.18 428.89 450.19 421.11 449.76 C 426.10 454.51 429.54 460.85 435.34 464.74 C 443.29 469.39 453.07 470.37 460.20 476.54 C 462.83 458.78 464.70 440.93 466.52 423.08 C 466.82 419.36 467.50 415.63 467.31 411.89 C 465.86 407.90 463.23 404.48 461.16 400.80 C 451.84 385.48 447.03 367.74 445.54 349.96 C 444.52 338.22 447.25 326.61 450.54 315.43 C 451.25 313.18 452.03 310.75 454.07 309.33 C 454.32 309.73 454.82 310.52 455.07 310.92 C 453.14 321.86 450.65 332.81 450.83 344.00 C 451.23 365.09 457.73 385.73 467.91 404.10 C 468.32 396.28 466.74 388.61 465.36 380.97 C 462.91 365.85 467.90 351.06 471.41 336.55 C 472.79 332.06 473.37 326.81 477.34 323.73 C 477.58 325.54 477.50 327.39 477.08 329.18 C 473.62 343.20 470.42 357.47 470.34 371.98 C 470.25 381.12 473.71 389.82 473.81 398.94 C 474.05 409.18 472.81 419.37 471.74 429.53 C 470.29 443.04 468.77 456.55 466.87 470.01 C 463.82 492.99 458.91 515.80 458.46 539.06 C 458.40 544.80 458.33 550.62 459.64 556.24 C 460.78 561.42 465.54 564.42 469.07 567.93 C 473.76 571.94 477.80 577.21 483.97 579.03 C 490.52 581.08 497.18 583.44 504.11 583.52 C 510.91 583.24 514.51 576.60 517.27 571.28 C 521.38 563.66 517.65 554.62 520.93 546.80 C 521.90 544.13 523.38 541.62 523.79 538.77 C 525.59 529.98 529.43 521.20 527.72 512.07 C 526.16 504.19 522.79 496.77 521.70 488.78 C 520.62 481.69 519.91 473.36 524.98 467.55 C 524.68 473.02 523.31 478.48 524.34 483.96 C 525.31 493.06 529.71 501.23 531.83 510.03 C 533.83 517.99 531.50 526.12 528.96 533.66 C 534.00 527.34 540.73 521.46 541.78 512.99 C 543.32 505.70 538.89 498.62 540.56 491.39 C 543.12 484.60 549.26 480.20 553.97 474.98 C 559.77 468.01 560.46 458.61 563.46 450.37 C 566.77 441.16 570.78 432.21 574.23 423.04 C 571.26 410.93 566.15 399.40 564.12 387.04 C 561.78 372.36 564.94 357.61 566.54 343.03 C 567.29 337.85 566.97 332.42 569.07 327.54 C 569.91 330.96 570.34 334.48 570.33 338.01 C 570.11 353.54 566.40 369.03 568.56 384.56 C 570.26 395.24 574.24 405.36 577.34 415.68 C 585.88 392.24 593.69 368.07 595.08 343.00 C 595.63 339.75 597.50 336.96 599.16 334.19 C 606.60 322.41 612.12 309.16 613.46 295.20 C 609.67 298.49 604.30 300.85 599.38 298.57 C 590.46 294.72 584.50 286.56 578.87 279.00 C 567.03 262.84 558.10 244.78 549.82 226.61 C 550.46 240.51 555.21 253.93 562.12 265.92 C 566.89 274.06 567.58 283.66 568.63 292.82 C 569.05 298.11 570.02 303.76 567.62 308.75 C 565.50 303.95 565.85 298.55 564.74 293.50 C 563.04 284.72 561.91 275.53 557.40 267.63 C 552.69 259.33 549.36 250.26 547.41 240.93 C 545.84 233.69 546.18 226.25 546.05 218.90 C 521.54 230.37 498.10 243.94 473.80 255.83 M 524.48 559.97 C 526.92 559.70 529.36 559.36 531.82 559.20 C 530.91 553.19 530.52 547.11 529.86 541.07 C 525.89 546.55 524.10 553.23 524.48 559.97 M 446.52 588.15 C 445.10 598.14 443.51 608.14 440.96 617.93 C 436.41 633.64 431.21 649.56 431.29 666.09 C 431.10 669.86 432.64 673.51 435.73 675.76 C 442.26 667.76 444.36 657.36 447.74 647.84 C 449.05 644.66 449.16 640.05 453.07 638.93 C 452.34 647.38 450.82 655.81 447.79 663.76 C 445.61 668.40 448.28 673.93 451.95 676.98 C 454.37 678.96 458.24 678.88 459.98 676.06 C 464.80 669.31 466.39 660.91 468.09 652.96 C 468.90 649.35 469.30 645.39 471.82 642.48 C 474.59 642.78 474.29 645.88 474.09 647.94 C 473.22 654.61 471.50 661.15 469.51 667.57 C 468.23 671.39 469.41 675.51 470.97 679.07 C 472.66 682.61 478.31 684.53 481.13 681.21 C 484.73 677.26 485.91 671.78 486.68 666.65 C 487.44 661.89 486.76 656.58 489.93 652.55 C 494.26 659.80 490.26 668.25 489.82 675.96 C 493.22 678.92 498.99 678.21 501.24 674.22 C 504.48 666.57 501.62 658.12 502.85 650.21 C 506.34 650.39 506.11 655.25 507.32 657.75 C 509.40 656.76 511.88 656.25 513.51 654.54 C 515.39 651.42 515.60 647.64 515.82 644.10 C 516.38 625.30 508.19 607.30 509.88 588.45 C 501.42 590.91 492.93 587.60 484.93 585.02 C 479.08 583.20 473.54 580.21 469.29 575.73 C 464.80 570.97 459.78 566.72 455.55 561.71 C 450.03 569.45 448.11 578.96 446.52 588.15 M 524.67 563.91 C 522.58 572.46 519.24 581.39 512.33 587.23 C 513.51 602.97 518.17 618.12 520.28 633.71 C 521.09 642.59 522.08 653.00 515.53 660.10 C 517.26 662.17 518.91 665.14 522.05 664.95 C 526.42 664.95 528.84 660.38 529.38 656.57 C 530.58 651.41 527.24 646.79 526.76 641.79 C 527.32 641.68 528.44 641.47 528.99 641.36 C 533.72 647.03 534.77 655.61 541.76 659.34 C 545.09 656.09 546.36 651.48 545.68 646.92 C 544.00 631.16 536.78 616.74 532.62 601.59 C 529.01 589.17 532.52 576.24 531.12 563.60 C 528.96 563.69 526.82 563.81 524.67 563.91 M 416.22 656.25 C 420.45 665.89 421.76 677.10 417.83 687.06 C 416.76 690.85 414.09 694.81 415.18 698.79 C 417.87 702.98 422.76 705.00 427.19 706.81 C 437.67 710.69 448.86 712.37 459.99 712.72 C 467.70 712.79 475.65 712.26 482.80 709.10 C 484.11 701.01 484.20 692.82 484.30 684.65 C 481.04 687.08 476.70 687.99 472.98 686.03 C 468.56 684.43 466.76 679.73 466.12 675.46 C 463.93 679.10 460.68 683.09 455.97 682.84 C 450.03 682.64 445.78 677.47 444.45 672.04 C 442.61 675.18 440.72 678.98 436.96 680.09 C 432.59 681.01 428.69 677.35 427.28 673.50 C 424.93 667.15 426.24 660.25 426.78 653.71 C 423.22 654.41 419.70 655.27 416.22 656.25 M 507.28 662.71 C 507.03 666.49 507.01 670.35 505.93 674.02 C 504.77 677.99 500.98 680.72 497.04 681.51 C 493.63 682.13 490.48 680.31 487.66 678.66 C 488.01 685.70 488.57 692.73 488.72 699.78 C 494.13 702.82 500.83 702.43 506.31 699.78 C 508.69 687.12 510.19 674.31 510.89 661.46 C 509.68 661.87 508.48 662.29 507.28 662.71 M 461.28 890.87 C 466.87 893.69 472.10 897.14 477.17 900.80 C 497.42 914.45 520.43 923.11 543.03 932.00 C 553.01 936.01 563.44 939.42 572.29 945.74 C 575.26 945.23 578.82 945.44 581.05 943.03 C 583.44 940.70 582.66 936.98 581.64 934.20 C 579.45 928.80 574.36 925.41 569.58 922.51 C 557.61 915.66 545.03 909.95 532.27 904.74 C 517.60 898.67 503.61 890.69 491.54 880.34 C 489.29 878.76 487.45 874.69 484.23 876.20 C 475.78 879.74 469.44 886.77 461.28 890.87 M 434.95 907.96 C 428.64 910.78 421.59 913.81 414.57 912.43 C 409.59 909.38 409.97 902.49 408.60 897.45 C 402.94 903.88 398.38 911.22 395.16 919.16 C 392.24 926.41 388.96 934.08 390.10 942.08 C 390.62 948.93 397.16 954.57 403.96 954.39 C 411.97 954.69 419.97 955.09 427.97 955.66 C 457.90 958.64 488.03 958.25 518.04 960.09 C 535.37 961.19 552.81 961.31 570.09 959.47 C 572.38 959.41 575.37 957.78 574.37 955.08 C 570.66 949.10 563.79 946.15 557.61 943.36 C 530.28 932.42 501.92 923.04 477.18 906.71 C 470.28 901.90 463.80 896.37 456.01 893.02 C 449.81 899.05 442.75 904.19 434.95 907.96 Z" />
</g>
<g id="#f0b58bff">
<path fill="#f0b58b" opacity="1.00" d=" M 668.39 155.43 C 671.72 152.52 676.64 153.64 679.98 155.93 C 684.06 158.31 687.32 162.16 691.97 163.47 C 696.28 163.99 698.62 158.73 702.93 158.84 C 710.97 157.74 717.13 164.18 722.86 168.79 C 721.21 176.46 719.33 184.08 717.13 191.62 C 709.36 184.33 698.45 181.27 687.99 181.09 C 682.41 181.17 675.82 181.83 672.28 186.75 C 674.72 192.29 679.27 196.40 683.36 200.71 C 685.99 203.43 688.70 206.13 691.86 208.25 C 692.83 208.92 694.22 209.18 695.00 208.08 C 697.49 205.79 699.37 202.95 701.45 200.31 C 705.60 200.29 709.75 200.25 713.89 200.02 C 711.71 205.89 708.65 211.38 706.40 217.21 C 703.63 223.08 711.47 228.78 707.46 234.47 C 704.27 236.78 700.19 237.55 697.12 240.04 C 693.94 243.11 692.15 247.23 689.91 250.97 C 685.72 258.47 680.52 265.37 674.90 271.86 C 672.42 274.62 669.61 277.46 665.86 278.32 C 659.67 279.73 653.33 280.82 646.96 280.78 C 633.16 279.76 618.25 276.03 608.89 265.10 C 605.60 261.90 603.11 257.38 598.43 256.10 C 601.29 263.98 606.94 270.61 613.18 276.07 C 613.12 280.26 614.29 284.97 611.58 288.62 C 609.69 291.69 605.87 294.55 602.13 293.07 C 597.22 290.95 593.54 286.84 590.09 282.88 C 581.82 272.54 574.59 261.36 568.46 249.62 C 562.84 238.75 556.99 227.96 552.52 216.55 C 559.28 212.72 564.73 207.06 569.78 201.24 C 571.03 205.21 571.91 209.37 573.95 213.04 C 574.80 215.04 578.21 215.33 578.83 213.02 C 581.60 206.21 583.67 198.99 587.79 192.82 C 589.85 190.18 592.37 187.09 596.04 187.06 C 598.98 187.01 602.47 188.20 603.61 191.18 C 605.54 195.84 604.68 201.00 605.29 205.89 C 605.18 207.31 606.62 208.52 608.03 208.16 C 609.75 207.42 610.27 205.43 610.87 203.83 C 612.96 196.66 612.71 188.82 616.15 182.05 C 619.08 176.63 626.63 175.81 631.79 178.23 C 634.36 179.48 635.73 183.01 638.96 182.78 C 645.89 182.78 651.64 177.96 655.99 173.02 C 660.82 167.65 663.04 160.35 668.39 155.43 Z" />
<path fill="#f0b58b" opacity="1.00" d=" M 416.22 656.25 C 419.70 655.27 423.22 654.41 426.78 653.71 C 426.24 660.25 424.93 667.15 427.28 673.50 C 428.69 677.35 432.59 681.01 436.96 680.09 C 440.72 678.98 442.61 675.18 444.45 672.04 C 445.78 677.47 450.03 682.64 455.97 682.84 C 460.68 683.09 463.93 679.10 466.12 675.46 C 466.76 679.73 468.56 684.43 472.98 686.03 C 476.70 687.99 481.04 687.08 484.30 684.65 C 484.20 692.82 484.11 701.01 482.80 709.10 C 475.65 712.26 467.70 712.79 459.99 712.72 C 448.86 712.37 437.67 710.69 427.19 706.81 C 422.76 705.00 417.87 702.98 415.18 698.79 C 414.09 694.81 416.76 690.85 417.83 687.06 C 421.76 677.10 420.45 665.89 416.22 656.25 Z" />
<path fill="#f0b58b" opacity="1.00" d=" M 507.28 662.71 C 508.48 662.29 509.68 661.87 510.89 661.46 C 510.19 674.31 508.69 687.12 506.31 699.78 C 500.83 702.43 494.13 702.82 488.72 699.78 C 488.57 692.73 488.01 685.70 487.66 678.66 C 490.48 680.31 493.63 682.13 497.04 681.51 C 500.98 680.72 504.77 677.99 505.93 674.02 C 507.01 670.35 507.03 666.49 507.28 662.71 Z" />
</g>
<g id="#f35e11ff">
<path fill="var(--shirt-color, grey)" opacity="1.00" d=" M 473.80 255.83 C 498.10 243.94 521.54 230.37 546.05 218.90 C 546.18 226.25 545.84 233.69 547.41 240.93 C 549.36 250.26 552.69 259.33 557.40 267.63 C 561.91 275.53 563.04 284.72 564.74 293.50 C 565.85 298.55 565.50 303.95 567.62 308.75 C 570.02 303.76 569.05 298.11 568.63 292.82 C 567.58 283.66 566.89 274.06 562.12 265.92 C 555.21 253.93 550.46 240.51 549.82 226.61 C 558.10 244.78 567.03 262.84 578.87 279.00 C 584.50 286.56 590.46 294.72 599.38 298.57 C 604.30 300.85 609.67 298.49 613.46 295.20 C 612.12 309.16 606.60 322.41 599.16 334.19 C 597.50 336.96 595.63 339.75 595.08 343.00 C 593.69 368.07 585.88 392.24 577.34 415.68 C 574.24 405.36 570.26 395.24 568.56 384.56 C 566.40 369.03 570.11 353.54 570.33 338.01 C 570.34 334.48 569.91 330.96 569.07 327.54 C 566.97 332.42 567.29 337.85 566.54 343.03 C 564.94 357.61 561.78 372.36 564.12 387.04 C 566.15 399.40 571.26 410.93 574.23 423.04 C 570.78 432.21 566.77 441.16 563.46 450.37 C 560.46 458.61 559.77 468.01 553.97 474.98 C 549.26 480.20 543.12 484.60 540.56 491.39 C 538.89 498.62 543.32 505.70 541.78 512.99 C 540.73 521.46 534.00 527.34 528.96 533.66 C 531.50 526.12 533.83 517.99 531.83 510.03 C 529.71 501.23 525.31 493.06 524.34 483.96 C 523.31 478.48 524.68 473.02 524.98 467.55 C 519.91 473.36 520.62 481.69 521.70 488.78 C 522.79 496.77 526.16 504.19 527.72 512.07 C 529.43 521.20 525.59 529.98 523.79 538.77 C 523.38 541.62 521.90 544.13 520.93 546.80 C 517.65 554.62 521.38 563.66 517.27 571.28 C 514.51 576.60 510.91 583.24 504.11 583.52 C 497.18 583.44 490.52 581.08 483.97 579.03 C 477.80 577.21 473.76 571.94 469.07 567.93 C 465.54 564.42 460.78 561.42 459.64 556.24 C 458.33 550.62 458.40 544.80 458.46 539.06 C 458.91 515.80 463.82 492.99 466.87 470.01 C 468.77 456.55 470.29 443.04 471.74 429.53 C 472.81 419.37 474.05 409.18 473.81 398.94 C 473.71 389.82 470.25 381.12 470.34 371.98 C 470.42 357.47 473.62 343.20 477.08 329.18 C 477.50 327.39 477.58 325.54 477.34 323.73 C 473.37 326.81 472.79 332.06 471.41 336.55 C 467.90 351.06 462.91 365.85 465.36 380.97 C 466.74 388.61 468.32 396.28 467.91 404.10 C 457.73 385.73 451.23 365.09 450.83 344.00 C 450.65 332.81 453.14 321.86 455.07 310.92 C 454.82 310.52 454.32 309.73 454.07 309.33 C 452.03 310.75 451.25 313.18 450.54 315.43 C 447.25 326.61 444.52 338.22 445.54 349.96 C 447.03 367.74 451.84 385.48 461.16 400.80 C 463.23 404.48 465.86 407.90 467.31 411.89 C 467.50 415.63 466.82 419.36 466.52 423.08 C 464.70 440.93 462.83 458.78 460.20 476.54 C 453.07 470.37 443.29 469.39 435.34 464.74 C 429.54 460.85 426.10 454.51 421.11 449.76 C 428.89 450.19 436.96 450.18 444.32 447.30 C 449.35 445.28 454.11 442.61 458.64 439.65 C 460.34 438.40 462.80 436.99 462.26 434.45 C 457.97 435.02 454.56 438.00 450.67 439.64 C 441.29 444.58 430.44 446.04 419.97 445.28 C 417.79 445.13 415.52 444.76 413.89 443.19 C 408.57 438.81 403.13 434.59 397.60 430.50 C 407.45 428.58 417.04 424.94 425.47 419.48 C 427.74 418.20 428.99 415.89 429.36 413.36 C 420.37 419.11 410.38 423.07 400.16 426.05 C 397.28 426.70 393.78 427.89 391.27 425.68 C 382.48 419.05 372.47 414.13 361.87 411.16 C 358.49 410.46 356.10 407.55 354.68 404.59 C 352.72 397.00 354.30 389.06 356.63 381.74 C 359.72 372.10 365.88 363.33 366.44 352.98 C 366.28 347.04 364.94 341.02 362.13 335.76 C 361.39 334.01 359.47 333.52 357.90 332.87 C 360.35 340.22 363.50 348.19 360.95 355.96 C 357.57 366.18 351.21 375.32 349.40 386.08 C 347.56 393.61 348.06 401.61 351.30 408.69 C 342.28 407.09 333.17 406.01 324.05 405.22 C 317.04 405.20 309.90 406.04 303.09 403.88 C 305.74 395.76 312.23 389.95 318.11 384.12 C 322.57 379.77 324.91 373.89 327.06 368.17 C 331.68 357.25 337.15 346.22 346.24 338.31 C 362.30 324.07 379.73 311.45 397.60 299.59 C 413.43 288.58 430.60 279.75 447.32 270.22 C 456.19 265.50 464.92 260.53 473.80 255.83 Z" />
<path fill="var(--shirt-color, grey)" opacity="1.00" d=" M 524.48 559.97 C 524.10 553.23 525.89 546.55 529.86 541.07 C 530.52 547.11 530.91 553.19 531.82 559.20 C 529.36 559.36 526.92 559.70 524.48 559.97 Z" />
</g>
<g id="#4d4d4dff">
<path fill="#4d4d4d" opacity="1.00" d=" M 446.52 588.15 C 448.11 578.96 450.03 569.45 455.55 561.71 C 459.78 566.72 464.80 570.97 469.29 575.73 C 473.54 580.21 479.08 583.20 484.93 585.02 C 492.93 587.60 501.42 590.91 509.88 588.45 C 508.19 607.30 516.38 625.30 515.82 644.10 C 515.60 647.64 515.39 651.42 513.51 654.54 C 511.88 656.25 509.40 656.76 507.32 657.75 C 506.11 655.25 506.34 650.39 502.85 650.21 C 501.62 658.12 504.48 666.57 501.24 674.22 C 498.99 678.21 493.22 678.92 489.82 675.96 C 490.26 668.25 494.26 659.80 489.93 652.55 C 486.76 656.58 487.44 661.89 486.68 666.65 C 485.91 671.78 484.73 677.26 481.13 681.21 C 478.31 684.53 472.66 682.61 470.97 679.07 C 469.41 675.51 468.23 671.39 469.51 667.57 C 471.50 661.15 473.22 654.61 474.09 647.94 C 474.29 645.88 474.59 642.78 471.82 642.48 C 469.30 645.39 468.90 649.35 468.09 652.96 C 466.39 660.91 464.80 669.31 459.98 676.06 C 458.24 678.88 454.37 678.96 451.95 676.98 C 448.28 673.93 445.61 668.40 447.79 663.76 C 450.82 655.81 452.34 647.38 453.07 638.93 C 449.16 640.05 449.05 644.66 447.74 647.84 C 444.36 657.36 442.26 667.76 435.73 675.76 C 432.64 673.51 431.10 669.86 431.29 666.09 C 431.21 649.56 436.41 633.64 440.96 617.93 C 443.51 608.14 445.10 598.14 446.52 588.15 Z" />
<path fill="#4d4d4d" opacity="1.00" d=" M 524.67 563.91 C 526.82 563.81 528.96 563.69 531.12 563.60 C 532.52 576.24 529.01 589.17 532.62 601.59 C 536.78 616.74 544.00 631.16 545.68 646.92 C 546.36 651.48 545.09 656.09 541.76 659.34 C 534.77 655.61 533.72 647.03 528.99 641.36 C 528.44 641.47 527.32 641.68 526.76 641.79 C 527.24 646.79 530.58 651.41 529.38 656.57 C 528.84 660.38 526.42 664.95 522.05 664.95 C 518.91 665.14 517.26 662.17 515.53 660.10 C 522.08 653.00 521.09 642.59 520.28 633.71 C 518.17 618.12 513.51 602.97 512.33 587.23 C 519.24 581.39 522.58 572.46 524.67 563.91 Z" />
<path fill="#4d4d4d" opacity="1.00" d=" M 461.28 890.87 C 469.44 886.77 475.78 879.74 484.23 876.20 C 487.45 874.69 489.29 878.76 491.54 880.34 C 503.61 890.69 517.60 898.67 532.27 904.74 C 545.03 909.95 557.61 915.66 569.58 922.51 C 574.36 925.41 579.45 928.80 581.64 934.20 C 582.66 936.98 583.44 940.70 581.05 943.03 C 578.82 945.44 575.26 945.23 572.29 945.74 C 563.44 939.42 553.01 936.01 543.03 932.00 C 520.43 923.11 497.42 914.45 477.17 900.80 C 472.10 897.14 466.87 893.69 461.28 890.87 Z" />
<path fill="#4d4d4d" opacity="1.00" d=" M 434.95 907.96 C 442.75 904.19 449.81 899.05 456.01 893.02 C 463.80 896.37 470.28 901.90 477.18 906.71 C 501.92 923.04 530.28 932.42 557.61 943.36 C 563.79 946.15 570.66 949.10 574.37 955.08 C 575.37 957.78 572.38 959.41 570.09 959.47 C 552.81 961.31 535.37 961.19 518.04 960.09 C 488.03 958.25 457.90 958.64 427.97 955.66 C 419.97 955.09 411.97 954.69 403.96 954.39 C 397.16 954.57 390.62 948.93 390.10 942.08 C 388.96 934.08 392.24 926.41 395.16 919.16 C 398.38 911.22 402.94 903.88 408.60 897.45 C 409.97 902.49 409.59 909.38 414.57 912.43 C 421.59 913.81 428.64 910.78 434.95 907.96 Z" />
</g>
</svg>
