<?xml version="1.0" encoding="UTF-8" ?>
<!DOCTYPE svg PUBLIC "-//W3C//DTD SVG 1.1//EN" "http://www.w3.org/Graphics/SVG/1.1/DTD/svg11.dtd">
<svg width="1000pt" height="1000pt" viewBox="0 0 1000 1000" version="1.1" xmlns="http://www.w3.org/2000/svg">
    <g id="#020202ff">
        <path fill="#020202" opacity="1.00"
            d=" M 396.21 15.27 C 408.87 6.39 424.82 3.80 440.00 4.32 C 449.98 5.08 460.33 6.61 468.93 12.09 C 484.07 21.55 493.97 37.82 498.11 54.94 C 501.96 68.63 500.63 82.98 498.85 96.88 C 498.38 102.96 495.96 108.84 496.65 115.00 C 497.69 130.25 496.39 145.51 495.03 160.70 C 510.26 163.55 525.29 158.77 540.19 156.30 C 551.97 154.03 564.25 151.61 576.14 154.57 C 589.76 157.58 600.08 167.50 611.97 174.08 C 627.48 183.09 645.76 186.23 660.81 196.16 C 666.51 199.63 671.41 204.20 676.14 208.85 C 677.93 210.50 678.93 212.74 679.79 214.97 C 677.62 216.39 675.49 217.89 673.32 219.30 C 684.12 223.98 695.56 227.28 705.84 233.14 C 709.77 235.52 714.14 239.00 714.13 244.04 C 713.65 249.24 709.08 252.52 705.13 255.23 C 714.73 254.65 724.35 254.25 733.97 254.49 C 745.68 254.71 757.43 254.15 769.09 255.41 C 772.67 256.02 777.38 257.03 778.53 261.04 C 779.23 263.96 776.50 265.83 774.69 267.58 C 771.08 275.97 760.64 276.77 752.75 275.98 C 751.01 279.22 747.80 281.38 744.12 281.66 C 734.05 283.15 723.65 282.30 713.76 284.87 C 707.76 286.45 705.63 292.77 702.05 297.09 C 696.49 304.27 687.65 307.66 679.20 310.07 C 675.25 310.92 671.05 311.86 667.07 310.77 C 664.29 310.01 661.97 307.00 663.04 304.08 C 665.10 299.37 670.84 297.62 673.01 293.00 C 673.42 287.38 670.69 281.10 665.33 278.69 C 658.51 274.77 651.04 272.21 644.08 268.59 C 641.67 274.32 640.80 280.61 638.21 286.25 C 637.02 288.31 634.96 286.08 633.55 285.47 C 623.27 278.68 614.97 269.30 604.41 262.88 C 605.54 278.59 603.03 294.35 604.99 310.02 C 606.39 320.03 608.80 329.94 612.73 339.28 C 617.94 351.86 621.31 365.33 621.33 379.00 C 621.36 387.04 619.66 394.97 619.76 403.01 C 619.99 420.35 624.20 437.33 629.37 453.79 C 631.40 459.39 632.30 465.42 630.97 471.30 C 634.34 473.37 637.73 475.75 639.58 479.38 C 645.55 490.30 645.33 503.85 653.09 513.92 C 657.71 519.62 663.50 524.22 668.29 529.77 C 673.06 534.78 676.33 540.98 681.06 546.03 C 690.81 555.97 700.33 566.30 707.96 578.00 C 709.07 579.89 710.70 581.76 710.47 584.12 C 706.71 586.38 701.99 585.36 697.83 586.19 C 703.52 593.63 708.63 601.85 710.62 611.12 C 714.00 626.21 718.20 641.21 724.64 655.32 C 729.14 664.81 733.07 675.31 731.16 685.98 C 728.15 701.42 718.70 714.36 710.43 727.36 C 706.87 734.80 700.28 740.14 696.50 747.45 C 689.88 759.62 684.70 772.51 679.26 785.24 C 673.13 798.08 666.56 810.77 658.42 822.47 C 652.57 831.81 645.99 840.66 639.89 849.84 C 634.29 858.10 628.82 866.53 621.99 873.86 C 625.21 888.05 627.59 902.43 628.74 916.94 C 630.13 930.60 630.21 944.48 633.70 957.84 C 635.07 964.63 637.91 971.09 638.55 978.01 C 638.75 985.47 632.00 991.21 625.10 992.46 C 614.81 994.40 603.87 993.77 594.08 989.95 C 585.55 986.81 579.36 979.40 575.66 971.33 C 571.11 961.50 572.16 950.42 571.57 939.91 C 571.20 929.04 565.50 919.48 561.15 909.82 C 556.92 901.54 552.81 892.62 553.62 883.07 C 554.49 874.21 558.06 865.55 563.71 858.66 C 575.34 847.00 584.55 833.22 593.42 819.42 C 602.70 802.72 611.74 785.70 617.24 767.31 C 622.34 752.27 622.38 735.58 630.47 721.57 C 634.32 715.32 638.76 709.06 645.24 705.31 C 644.53 686.34 642.45 666.69 633.37 649.68 C 629.25 641.55 623.94 634.12 618.78 626.63 C 615.52 629.77 612.18 632.90 609.67 636.69 C 607.63 639.68 606.87 643.27 605.36 646.53 C 602.76 644.50 600.54 642.06 598.48 639.50 C 587.31 626.70 575.89 614.10 563.80 602.16 C 559.90 598.08 556.23 593.79 552.47 589.60 C 553.78 597.41 555.42 605.87 552.24 613.44 C 551.30 615.75 549.33 613.75 548.15 612.82 C 545.27 609.91 543.02 606.46 540.36 603.36 C 539.03 611.50 538.91 619.88 540.71 627.96 C 544.27 645.39 546.86 663.22 545.46 681.05 C 544.25 693.98 535.76 704.53 532.61 716.88 C 530.09 727.85 533.13 738.98 533.84 749.98 C 535.00 769.29 536.83 788.63 535.89 808.00 C 536.00 817.60 534.77 827.12 533.77 836.65 C 543.39 841.71 551.81 850.72 552.95 861.92 C 554.09 869.74 551.99 877.61 548.65 884.65 C 544.40 893.70 540.10 902.97 538.93 913.01 C 537.00 927.88 535.68 943.27 528.95 956.92 C 524.60 964.57 517.07 971.18 508.03 972.06 C 500.43 973.15 492.07 972.06 486.03 966.99 C 475.03 958.65 470.35 944.73 468.69 931.51 C 465.27 905.13 468.49 876.68 483.34 854.04 C 482.44 847.24 480.31 840.70 478.94 834.00 C 476.50 822.06 474.09 810.12 471.84 798.15 C 469.90 787.63 466.60 777.43 464.69 766.92 C 462.92 758.04 461.87 749.03 461.29 740.00 C 460.50 726.55 462.57 713.13 465.72 700.08 C 468.26 689.24 467.66 678.04 467.48 667.00 C 467.32 658.19 465.47 649.54 463.81 640.92 C 461.91 630.82 458.36 621.12 454.05 611.83 C 452.93 612.36 451.82 612.90 450.71 613.45 C 446.17 608.53 443.50 602.29 440.72 596.29 C 435.57 582.82 432.33 568.48 432.48 554.00 C 432.69 548.74 434.89 543.29 432.60 538.18 C 429.84 527.77 426.85 517.39 424.70 506.83 C 422.73 496.89 423.81 486.33 428.18 477.16 C 423.81 475.47 419.35 472.64 418.32 467.71 C 414.05 453.32 423.28 439.47 421.28 425.03 C 420.67 418.36 418.95 411.82 416.30 405.68 C 412.07 395.58 407.96 385.38 405.25 374.75 C 403.74 368.59 401.86 362.53 399.97 356.47 C 398.11 357.01 396.25 357.55 394.38 358.07 C 394.07 361.21 393.78 364.46 392.29 367.31 C 387.94 375.88 380.69 382.48 373.16 388.24 C 358.97 399.85 342.60 408.29 327.30 418.28 C 314.26 427.04 300.79 435.51 289.93 447.00 C 283.97 453.14 280.42 461.24 273.89 466.87 C 268.38 472.31 261.63 476.10 255.01 479.97 C 256.62 484.64 259.50 488.93 259.92 493.98 C 260.41 496.86 260.11 500.80 256.95 502.03 C 255.40 502.15 253.86 501.89 252.33 501.76 C 251.59 505.27 249.66 508.94 245.94 509.92 C 242.45 510.95 239.67 508.10 237.67 505.68 C 235.89 506.43 234.13 508.00 232.06 507.38 C 228.37 506.51 226.65 502.80 224.95 499.80 C 222.99 500.35 220.68 501.79 218.81 500.20 C 214.31 496.37 212.18 490.54 210.79 484.96 C 209.54 479.37 206.78 473.86 207.92 467.99 C 209.29 458.76 212.23 448.88 219.91 442.90 C 228.47 435.55 240.70 436.66 250.15 431.13 C 258.64 426.55 267.11 421.73 274.47 415.44 C 287.90 403.41 298.29 388.55 310.27 375.17 C 316.82 366.75 325.70 360.67 333.39 353.39 C 337.58 349.54 340.17 344.42 343.01 339.58 C 337.62 332.25 337.34 322.63 338.33 313.94 C 339.00 302.97 341.04 292.04 340.48 281.02 C 339.75 270.30 338.28 259.65 337.65 248.92 C 337.19 235.19 339.45 220.85 347.13 209.19 C 350.60 203.84 355.82 199.46 362.09 197.87 C 369.27 195.99 376.70 194.68 383.40 191.34 C 388.80 188.70 393.04 184.22 398.42 181.54 C 401.19 180.13 404.33 179.90 407.35 179.44 C 408.18 177.42 409.03 175.41 409.89 173.41 C 402.88 162.92 397.15 151.02 396.83 138.18 C 394.69 137.09 392.36 136.16 390.74 134.32 C 387.18 130.38 386.21 124.95 383.48 120.52 C 381.52 117.48 378.54 115.13 377.18 111.71 C 375.14 107.08 377.17 101.73 375.10 97.10 C 373.96 94.09 371.93 91.32 371.74 88.02 C 371.72 84.26 373.43 80.78 373.78 77.07 C 374.47 68.56 371.10 60.38 371.14 51.91 C 371.12 48.39 374.37 46.39 376.89 44.59 C 374.81 43.20 371.59 41.42 372.45 38.43 C 375.19 34.26 379.20 31.11 383.08 28.04 C 387.96 24.31 391.10 18.75 396.21 15.27 M 454.80 86.30 C 449.92 94.13 442.85 101.02 433.98 104.02 C 427.18 106.39 420.13 108.17 412.92 108.59 C 412.55 108.21 411.80 107.44 411.43 107.06 C 408.43 110.23 405.04 113.03 402.32 116.45 C 398.62 122.38 401.20 129.38 401.68 135.78 C 412.09 134.47 422.52 133.35 432.96 132.32 C 435.72 132.19 438.59 131.70 441.31 132.45 C 446.77 137.95 444.56 146.29 443.80 153.11 C 443.01 156.35 443.76 160.85 440.26 162.64 C 439.53 155.32 441.06 148.05 440.99 140.74 C 428.37 143.07 415.69 145.12 403.22 148.19 C 406.95 160.06 414.05 170.59 422.15 179.92 C 428.85 187.82 435.35 196.33 444.40 201.70 C 446.94 203.44 450.12 202.67 452.99 202.82 C 458.28 203.03 463.71 201.33 467.71 197.82 C 474.95 190.27 480.52 181.29 485.06 171.92 C 487.08 167.50 489.14 162.98 489.73 158.11 C 490.76 149.60 490.86 141.00 491.69 132.47 C 482.81 134.26 473.93 136.04 464.99 137.48 C 463.60 137.58 462.07 138.10 460.82 137.26 C 459.59 134.60 459.16 131.66 458.59 128.81 C 469.26 124.89 480.63 123.15 491.80 121.20 C 491.84 117.52 492.02 113.84 492.21 110.17 C 487.31 104.08 483.24 97.04 476.26 93.01 C 476.93 96.93 478.01 101.01 476.99 104.97 C 476.57 106.87 474.21 107.00 472.77 106.24 C 464.71 101.95 457.73 95.13 454.80 86.30 M 535.96 163.20 C 522.13 165.86 507.56 169.85 493.68 165.22 C 492.15 168.82 490.50 172.37 488.85 175.92 C 495.53 187.45 493.45 202.93 484.85 212.91 C 478.88 220.03 470.01 224.10 461.03 225.85 C 444.69 229.04 427.22 224.11 414.49 213.50 C 408.02 208.09 402.10 201.25 399.93 192.94 C 400.87 189.78 402.94 187.11 404.49 184.23 C 396.93 185.69 392.01 192.09 385.37 195.39 C 378.49 199.00 370.78 200.45 363.36 202.54 C 357.97 204.01 353.68 208.02 350.65 212.57 C 343.97 222.68 342.28 235.16 342.30 247.03 C 342.95 258.35 344.20 269.62 345.39 280.88 C 347.01 295.65 343.68 310.33 343.22 325.05 C 342.77 332.93 349.62 338.49 355.46 342.57 C 368.14 350.48 383.67 355.00 398.60 352.19 C 397.62 348.53 396.76 344.83 396.24 341.08 C 395.60 336.62 393.48 332.56 391.42 328.61 C 387.88 321.66 380.39 318.34 375.29 312.76 C 370.18 307.25 365.22 300.82 364.00 293.22 C 366.53 292.60 367.92 295.13 369.20 296.82 C 371.95 300.96 374.89 305.01 378.46 308.50 C 383.50 313.60 389.96 317.13 394.51 322.74 C 393.26 313.15 389.37 304.14 388.12 294.59 C 392.42 297.92 393.97 303.27 395.65 308.19 C 397.74 314.63 400.01 321.07 400.72 327.84 C 401.57 333.83 400.99 339.97 402.41 345.88 C 404.48 354.74 408.20 363.11 410.47 371.92 C 413.33 382.34 417.04 392.52 421.48 402.38 C 425.27 410.74 427.58 419.78 427.84 428.98 C 428.59 441.87 421.48 454.07 423.94 467.01 C 424.53 470.61 428.38 471.91 431.12 473.56 C 434.68 471.05 438.59 468.95 442.91 468.13 C 453.17 466.07 463.51 464.32 473.65 461.71 C 497.23 455.70 521.80 453.26 546.07 455.49 C 564.59 457.19 583.08 459.68 601.19 463.97 C 609.30 465.76 617.52 467.01 625.52 469.29 C 626.10 464.77 625.54 460.21 624.01 455.93 C 620.70 446.13 618.33 436.04 616.67 425.83 C 615.43 417.93 613.84 410.03 613.87 402.01 C 613.87 393.97 615.55 386.05 615.49 378.01 C 615.28 365.24 612.19 352.64 607.23 340.91 C 602.92 330.75 600.33 319.92 598.90 308.99 C 597.35 292.74 599.73 276.47 600.23 260.23 C 595.72 257.75 591.01 255.68 586.28 253.70 C 584.80 252.90 582.22 252.25 583.32 250.05 C 587.01 248.80 590.77 250.56 594.25 251.74 C 600.91 254.46 607.85 256.94 613.54 261.49 C 621.31 267.70 628.42 274.67 635.74 281.41 C 636.84 276.71 637.87 271.98 639.43 267.41 C 642.57 258.38 647.91 250.31 653.92 242.95 C 658.09 237.89 660.30 231.67 662.65 225.64 C 664.66 220.37 668.35 215.93 672.82 212.54 C 667.56 207.97 662.52 203.04 656.40 199.59 C 641.50 190.84 624.05 187.68 609.20 178.82 C 597.56 172.48 587.23 163.18 574.02 160.16 C 561.30 157.24 548.45 160.90 535.96 163.20 M 412.67 177.03 C 411.40 183.34 407.67 188.63 404.66 194.19 C 415.01 213.14 437.66 224.19 458.95 221.10 C 471.05 219.40 482.63 211.12 486.38 199.21 C 488.43 193.09 487.76 186.53 486.47 180.33 C 482.59 186.98 478.16 193.32 473.14 199.16 C 470.27 202.31 466.73 205.00 462.64 206.35 C 456.19 208.32 448.83 209.96 442.58 206.42 C 429.98 199.73 421.79 187.56 412.67 177.03 M 660.24 243.30 C 655.29 250.35 649.48 256.85 645.83 264.74 C 653.50 268.61 661.68 271.46 669.03 275.98 C 666.99 269.53 665.62 262.78 665.98 255.99 C 666.04 252.43 667.29 248.98 669.64 246.30 C 669.55 251.18 669.06 256.09 669.84 260.95 C 670.86 270.49 675.12 279.22 677.28 288.49 C 677.83 291.09 677.96 294.08 676.29 296.33 C 673.44 300.10 668.92 302.18 666.21 306.09 C 671.04 307.95 676.20 306.38 680.87 304.81 C 686.20 302.92 691.68 300.83 695.87 296.89 C 699.41 293.64 701.61 289.28 704.69 285.65 C 708.51 281.37 714.30 279.53 719.86 278.94 C 726.92 278.25 734.02 277.89 741.11 277.47 C 743.58 277.39 745.94 276.61 748.24 275.75 C 741.84 271.04 733.59 270.53 725.96 269.68 C 721.35 269.03 716.35 269.48 712.19 267.05 C 717.72 264.61 723.84 265.97 729.66 265.75 C 729.49 265.25 729.15 264.26 728.98 263.76 C 726.96 263.69 724.98 263.41 723.02 263.03 C 724.13 262.03 725.33 260.90 726.97 261.01 C 734.97 260.45 743.00 260.91 751.02 260.83 C 758.48 260.92 766.35 260.56 773.24 263.92 C 773.58 263.32 774.26 262.14 774.60 261.55 C 771.91 260.33 769.05 259.48 766.09 259.38 C 754.05 258.65 741.97 259.48 729.92 258.92 C 721.25 258.55 712.58 259.55 703.93 259.07 C 701.60 258.98 697.91 258.19 698.22 255.13 C 699.94 250.12 706.45 249.01 708.31 244.05 C 707.88 240.92 704.73 239.27 702.34 237.70 C 692.06 231.88 680.48 228.70 670.32 222.65 C 666.39 229.26 664.73 236.98 660.24 243.30 M 731.22 265.70 C 737.99 266.68 745.38 267.44 751.05 271.83 C 757.62 271.64 765.62 272.83 770.36 267.14 C 759.82 264.05 748.71 265.49 737.90 264.48 C 735.77 264.54 732.41 263.57 731.22 265.70 M 339.08 355.07 C 332.88 361.60 325.15 366.44 318.95 372.96 C 304.34 389.30 291.80 407.68 274.86 421.81 C 267.00 427.81 258.94 433.71 250.05 438.10 C 244.27 441.08 237.65 441.38 231.55 443.36 C 222.93 445.56 215.44 452.93 214.18 461.89 C 213.54 466.14 211.79 470.55 213.38 474.80 C 215.94 482.30 217.00 490.60 222.08 496.97 C 224.02 493.00 220.99 488.82 222.39 484.77 C 219.66 483.04 215.82 480.98 216.96 477.05 C 218.35 468.28 229.02 466.92 232.58 459.55 C 235.14 455.28 236.53 448.96 242.08 447.68 C 239.15 453.94 238.83 461.59 233.57 466.56 C 229.66 470.84 222.61 472.42 221.40 478.84 C 223.55 478.67 225.78 478.70 227.83 477.93 C 236.34 474.62 243.17 468.26 251.39 464.38 C 254.50 462.86 257.68 461.47 260.64 459.65 C 264.37 457.39 267.51 454.23 271.50 452.38 C 271.33 454.48 270.90 456.69 269.26 458.18 C 263.10 465.27 253.80 467.96 246.35 473.28 C 242.03 476.27 237.53 478.99 232.83 481.33 C 235.50 486.41 237.78 491.69 239.84 497.05 C 241.11 500.19 242.17 503.64 244.93 505.84 C 247.25 503.91 248.23 500.93 246.98 498.08 C 244.45 493.75 241.63 489.56 239.56 484.98 C 239.65 483.55 240.42 482.87 241.89 482.93 C 244.95 484.28 246.07 487.74 247.78 490.36 C 249.42 493.39 252.22 495.51 254.99 497.45 C 254.71 492.16 252.15 487.50 250.05 482.78 C 248.47 479.57 250.29 475.80 253.45 474.48 C 260.55 470.90 267.13 466.24 272.62 460.47 C 277.38 455.47 280.22 449.01 284.91 443.95 C 295.09 432.52 308.02 424.11 320.48 415.43 C 336.72 404.19 354.55 395.37 370.03 383.04 C 378.52 376.68 387.42 369.24 390.37 358.61 C 374.56 358.70 358.80 353.06 346.61 343.00 C 344.68 347.35 342.41 351.62 339.08 355.07 M 444.94 474.46 C 439.36 475.17 433.74 478.02 431.23 483.27 C 427.03 495.33 430.35 508.14 433.34 520.06 C 436.12 515.00 439.12 508.45 445.52 507.51 C 442.14 513.43 437.01 518.75 436.21 525.81 C 435.06 530.47 436.99 535.06 438.45 539.42 C 439.86 543.21 438.79 547.28 437.94 551.07 C 437.07 554.64 437.55 558.34 437.79 561.96 C 439.00 577.58 444.18 592.65 451.59 606.37 C 464.72 590.20 484.79 578.61 506.04 579.46 C 522.75 580.04 537.68 590.05 547.83 602.83 C 547.19 597.46 546.65 592.03 545.06 586.84 C 542.60 578.87 538.57 571.52 534.84 564.10 C 532.92 560.23 529.64 557.37 526.42 554.61 C 524.80 553.26 522.74 551.07 524.31 548.88 C 526.67 547.17 528.72 550.21 530.76 551.20 C 541.17 557.92 544.32 570.66 550.02 580.87 C 555.77 586.18 561.49 591.53 566.99 597.11 C 580.26 609.40 592.42 622.88 603.57 637.13 C 605.97 632.26 609.32 627.94 613.13 624.11 C 626.91 610.51 643.64 600.27 661.04 591.99 C 674.38 585.92 688.37 580.39 703.15 579.56 C 697.82 572.39 691.80 565.78 685.95 559.05 C 681.21 553.79 675.67 549.21 671.75 543.25 C 668.13 537.70 663.73 532.71 659.03 528.06 C 654.75 523.63 649.75 519.78 646.56 514.42 C 641.49 506.43 640.23 496.87 637.65 487.94 C 636.24 482.96 633.72 477.59 628.63 475.52 C 619.21 471.68 608.87 471.44 599.06 469.10 C 581.99 465.30 564.62 462.80 547.16 461.73 C 534.86 460.64 522.44 460.29 510.16 461.82 C 488.03 463.85 466.80 470.87 444.94 474.46 M 223.41 484.57 C 229.91 489.20 227.02 499.78 234.16 503.97 C 234.62 502.13 235.75 500.17 234.69 498.33 C 232.68 493.27 230.65 488.21 229.30 482.93 C 227.32 483.42 225.32 483.87 223.41 484.57 M 457.23 608.23 C 462.97 616.31 465.98 625.90 468.36 635.42 C 470.69 646.83 473.25 658.31 473.21 670.02 C 473.87 681.14 473.36 692.38 470.94 703.28 C 481.56 697.42 494.26 696.85 506.04 698.59 C 514.15 699.77 522.51 701.82 528.97 707.16 C 531.67 700.45 535.28 694.11 537.37 687.15 C 539.71 680.01 538.78 672.37 538.83 664.99 C 538.60 651.15 535.76 637.57 533.75 623.93 C 533.25 615.90 532.95 607.12 537.05 599.89 C 525.53 588.80 508.71 583.20 492.90 586.41 C 478.94 589.36 466.99 598.13 457.23 608.23 M 666.07 596.97 C 650.93 603.96 636.43 612.46 623.34 622.80 C 632.06 634.13 639.64 646.55 643.89 660.28 C 647.61 671.10 648.58 682.57 649.65 693.89 C 650.23 698.93 648.73 704.21 650.89 709.02 C 653.14 717.39 659.93 723.69 667.41 727.59 C 677.26 732.75 689.24 734.41 699.89 730.80 C 702.55 730.01 703.53 727.06 705.06 725.03 C 712.54 712.74 721.95 700.95 724.81 686.52 C 726.77 677.14 723.65 667.76 719.72 659.34 C 712.62 644.16 708.19 627.92 704.56 611.61 C 702.66 602.76 698.06 594.86 693.51 587.16 C 684.06 589.51 674.90 592.91 666.07 596.97 M 470.12 712.14 C 468.72 712.90 468.73 714.60 468.46 715.97 C 465.51 734.24 467.84 752.87 471.65 770.83 C 473.49 779.22 476.03 787.45 477.58 795.92 C 480.94 813.68 484.42 831.43 487.34 849.28 C 493.94 843.14 501.79 838.23 510.31 835.25 C 516.08 833.20 522.34 833.65 528.24 834.88 C 530.84 816.02 530.54 796.90 529.72 777.92 C 528.78 764.61 528.46 751.23 526.43 738.03 C 525.20 729.46 524.75 720.61 527.06 712.18 C 518.74 706.85 508.93 703.94 499.05 703.93 C 488.98 703.99 478.06 705.34 470.12 712.14 M 632.37 731.16 C 629.10 739.83 627.91 749.09 625.90 758.09 C 620.31 781.13 609.59 802.49 597.94 822.99 C 590.96 833.55 583.97 844.21 575.47 853.63 C 574.40 863.63 576.86 874.13 582.70 882.36 C 585.52 886.01 589.89 889.80 594.88 888.41 C 604.14 886.35 609.34 877.82 616.61 872.58 C 622.94 865.76 627.81 857.75 633.02 850.07 C 642.51 835.57 652.94 821.69 661.84 806.80 C 665.91 799.71 669.44 792.33 673.10 785.03 C 680.64 768.87 686.35 751.57 697.13 737.16 C 685.35 740.10 672.55 737.89 662.11 731.83 C 654.35 727.36 647.91 720.25 645.41 711.53 C 640.24 717.46 635.13 723.69 632.37 731.16 M 514.55 841.35 C 510.24 848.15 506.59 855.38 501.90 861.96 C 498.22 866.93 493.00 870.79 490.52 876.62 C 486.14 886.12 487.53 896.87 488.25 906.96 C 489.07 918.73 489.34 930.81 486.13 942.27 C 485.11 946.04 484.49 950.17 486.09 953.89 C 487.77 958.09 489.81 962.73 493.87 965.13 C 499.47 967.38 505.93 967.24 511.66 965.50 C 519.41 962.39 524.98 955.23 527.29 947.33 C 532.77 932.80 530.71 916.85 535.10 902.07 C 537.57 892.95 542.35 884.72 545.54 875.88 C 548.36 868.17 547.73 859.00 542.76 852.30 C 536.82 843.31 525.06 838.03 514.55 841.35 M 485.37 863.36 C 479.15 876.40 475.03 890.55 474.09 905.01 C 473.27 920.27 473.61 936.15 479.56 950.48 C 478.83 942.48 482.17 934.92 482.24 926.98 C 483.20 914.32 480.92 901.71 481.49 889.05 C 481.87 879.87 485.48 870.68 492.29 864.37 C 499.35 858.05 503.52 849.39 509.42 842.10 C 499.08 845.84 490.17 853.40 485.37 863.36 M 559.65 883.04 C 559.04 888.89 560.72 894.70 563.22 899.94 C 567.42 908.80 571.87 917.59 575.08 926.88 C 578.53 936.97 576.89 947.77 577.72 958.20 C 578.46 966.30 581.37 974.82 588.04 979.95 C 597.28 987.40 609.86 988.47 621.26 987.30 C 625.03 986.76 629.27 985.91 631.90 982.91 C 634.43 977.37 631.26 971.47 630.05 966.00 C 626.19 953.01 624.71 939.50 624.00 926.02 C 623.16 909.87 620.76 893.87 617.76 877.99 C 611.19 884.51 604.71 892.37 595.07 894.07 C 588.80 895.43 582.91 891.61 579.04 887.02 C 572.82 879.69 570.45 869.97 569.89 860.58 C 564.54 866.94 560.38 874.64 559.65 883.04 Z" />
        <path fill="#020202" opacity="1.00"
            d=" M 451.95 166.65 C 453.25 165.54 455.42 161.53 456.54 164.95 C 455.32 167.31 453.62 169.36 452.01 171.46 C 449.62 171.11 447.15 171.03 444.86 170.21 C 442.74 169.22 442.95 166.50 442.42 164.60 C 445.62 165.17 448.77 165.96 451.95 166.65 Z" />
        <path fill="#020202" opacity="1.00"
            d=" M 445.00 177.10 C 451.69 176.27 458.37 175.14 465.12 175.00 C 466.57 174.90 466.77 176.45 467.36 177.43 C 465.01 179.04 463.02 181.45 460.07 181.90 C 454.21 183.07 448.13 183.97 442.20 182.76 C 441.94 182.38 441.41 181.62 441.15 181.25 C 440.17 181.02 438.22 180.57 437.25 180.35 C 438.64 177.37 442.28 177.68 445.00 177.10 Z" />
        <path fill="#020202" opacity="1.00"
            d=" M 407.49 272.85 C 411.56 277.23 413.94 282.80 417.48 287.57 C 426.02 299.18 436.31 309.33 445.99 319.96 C 460.40 334.93 473.94 350.71 488.71 365.32 C 501.30 376.95 514.69 387.98 529.82 396.18 C 539.21 401.19 548.76 406.29 559.22 408.69 C 561.45 409.21 563.61 409.99 565.65 411.05 C 563.44 411.76 561.13 412.19 558.82 411.79 C 549.25 410.63 540.51 406.25 531.90 402.18 C 520.07 396.58 509.15 389.25 499.08 380.93 C 485.78 370.67 474.49 358.16 463.20 345.80 C 449.91 331.09 435.98 316.95 423.28 301.71 C 417.98 295.42 413.72 288.34 409.80 281.13 C 408.37 278.60 407.54 275.76 407.49 272.85 Z" />
        <path fill="#020202" opacity="1.00"
            d=" M 584.58 307.82 C 584.52 306.34 583.89 303.73 586.12 303.50 C 588.76 306.25 588.71 310.38 589.51 313.90 C 591.69 328.86 594.07 344.23 591.18 359.26 C 590.19 364.27 587.97 370.24 582.41 371.56 C 575.35 373.12 568.49 369.81 562.27 366.85 C 557.36 364.19 551.90 361.62 549.02 356.55 C 554.71 357.45 559.10 361.48 564.33 363.57 C 569.60 365.82 575.65 368.55 581.38 366.32 C 585.06 363.90 585.41 358.89 586.29 354.94 C 588.52 339.28 586.38 323.42 584.58 307.82 Z" />
        <path fill="#020202" opacity="1.00"
            d=" M 413.60 362.45 C 411.95 361.03 411.28 358.97 411.39 356.84 C 421.46 365.26 432.34 372.60 443.41 379.61 C 451.03 384.16 459.55 386.83 467.65 390.34 C 469.40 391.11 470.90 392.32 472.35 393.54 C 467.13 394.20 462.01 392.70 457.08 391.16 C 450.35 388.94 443.60 386.40 437.83 382.19 C 429.38 376.09 420.99 369.81 413.60 362.45 Z" />
        <path fill="#020202" opacity="1.00"
            d=" M 461.22 418.31 C 470.49 417.30 479.80 418.36 489.05 419.15 C 500.40 420.42 511.83 421.22 523.13 422.96 C 524.58 422.96 523.92 425.49 522.63 425.44 C 517.92 426.94 512.89 426.06 508.05 426.08 C 493.68 425.87 479.38 423.69 465.00 424.27 C 456.33 424.53 448.03 427.54 440.40 431.47 C 438.54 432.39 436.69 433.51 434.58 433.67 C 433.69 432.30 434.46 430.60 435.60 429.68 C 442.69 423.34 451.69 419.10 461.22 418.31 Z" />
        <path fill="#020202" opacity="1.00"
            d=" M 569.06 509.97 C 582.62 504.37 594.25 493.98 609.09 491.63 C 611.18 491.00 611.46 494.20 609.70 494.66 C 604.79 497.49 599.42 499.46 594.48 502.26 C 582.94 508.50 571.67 516.17 558.43 518.24 C 552.49 519.17 546.15 520.66 540.32 518.45 C 533.05 515.20 528.24 508.42 521.37 504.55 C 515.38 501.09 508.79 498.75 502.05 497.27 C 499.78 496.81 497.66 495.84 495.65 494.74 C 497.88 493.15 500.57 494.03 503.05 494.23 C 510.62 495.12 518.06 497.48 524.64 501.35 C 530.42 504.75 534.66 510.20 540.45 513.58 C 543.36 515.34 546.92 515.02 550.16 514.70 C 556.59 513.76 563.14 512.79 569.06 509.97 Z" />
        <path fill="#020202" opacity="1.00"
            d=" M 453.58 500.23 C 457.63 495.60 464.33 495.93 469.91 495.05 C 477.16 493.77 484.38 496.04 490.84 499.18 C 507.93 507.56 522.23 520.31 537.29 531.71 C 541.63 535.03 545.32 539.14 549.91 542.15 C 551.82 543.44 553.87 544.52 555.68 545.97 L 555.12 547.43 C 546.74 546.16 540.94 539.34 534.34 534.69 C 516.55 522.08 500.34 506.01 479.09 499.36 C 470.65 497.12 462.04 499.61 453.58 500.23 Z" />
        <path fill="#020202" opacity="1.00"
            d=" M 604.59 515.71 C 605.59 514.89 608.42 515.15 607.26 517.08 C 605.29 520.64 601.79 523.09 599.22 526.22 C 593.49 532.54 588.45 539.45 583.20 546.17 C 576.22 555.05 571.35 565.43 567.90 576.14 C 566.95 578.62 567.22 581.80 565.04 583.65 C 563.38 583.81 562.26 582.72 562.20 581.13 C 561.70 575.13 564.01 569.40 566.07 563.90 C 571.12 550.54 580.02 539.11 589.63 528.72 C 594.46 524.22 599.01 519.28 604.59 515.71 Z" />
    </g>
    <g id="#f0b58bff">
        <path fill="#f0b58b" opacity="1.00"
            d=" M 454.80 86.30 C 457.73 95.13 464.71 101.95 472.77 106.24 C 474.21 107.00 476.57 106.87 476.99 104.97 C 478.01 101.01 476.93 96.93 476.26 93.01 C 483.24 97.04 487.31 104.08 492.21 110.17 C 492.02 113.84 491.84 117.52 491.80 121.20 C 480.63 123.15 469.26 124.89 458.59 128.81 C 459.16 131.66 459.59 134.60 460.82 137.26 C 462.07 138.10 463.60 137.58 464.99 137.48 C 473.93 136.04 482.81 134.26 491.69 132.47 C 490.86 141.00 490.76 149.60 489.73 158.11 C 489.14 162.98 487.08 167.50 485.06 171.92 C 480.52 181.29 474.95 190.27 467.71 197.82 C 463.71 201.33 458.28 203.03 452.99 202.82 C 450.12 202.67 446.94 203.44 444.40 201.70 C 435.35 196.33 428.85 187.82 422.15 179.92 C 414.05 170.59 406.95 160.06 403.22 148.19 C 415.69 145.12 428.37 143.07 440.99 140.74 C 441.06 148.05 439.53 155.32 440.26 162.64 C 443.76 160.85 443.01 156.35 443.80 153.11 C 444.56 146.29 446.77 137.95 441.31 132.45 C 438.59 131.70 435.72 132.19 432.96 132.32 C 422.52 133.35 412.09 134.47 401.68 135.78 C 401.20 129.38 398.62 122.38 402.32 116.45 C 405.04 113.03 408.43 110.23 411.43 107.06 C 411.80 107.44 412.55 108.21 412.92 108.59 C 420.13 108.17 427.18 106.39 433.98 104.02 C 442.85 101.02 449.92 94.13 454.80 86.30 M 451.95 166.65 C 448.77 165.96 445.62 165.17 442.42 164.60 C 442.95 166.50 442.74 169.22 444.86 170.21 C 447.15 171.03 449.62 171.11 452.01 171.46 C 453.62 169.36 455.32 167.31 456.54 164.95 C 455.42 161.53 453.25 165.54 451.95 166.65 M 445.00 177.10 C 442.28 177.68 438.64 177.37 437.25 180.35 C 438.22 180.57 440.17 181.02 441.15 181.25 C 441.41 181.62 441.94 182.38 442.20 182.76 C 448.13 183.97 454.21 183.07 460.07 181.90 C 463.02 181.45 465.01 179.04 467.36 177.43 C 466.77 176.45 466.57 174.90 465.12 175.00 C 458.37 175.14 451.69 176.27 445.00 177.10 Z" />
        <path fill="#f0b58b" opacity="1.00"
            d=" M 412.67 177.03 C 421.79 187.56 429.98 199.73 442.58 206.42 C 448.83 209.96 456.19 208.32 462.64 206.35 C 466.73 205.00 470.27 202.31 473.14 199.16 C 478.16 193.32 482.59 186.98 486.47 180.33 C 487.76 186.53 488.43 193.09 486.38 199.21 C 482.63 211.12 471.05 219.40 458.95 221.10 C 437.66 224.19 415.01 213.14 404.66 194.19 C 407.67 188.63 411.40 183.34 412.67 177.03 Z" />
        <path fill="#f0b58b" opacity="1.00"
            d=" M 660.24 243.30 C 664.73 236.98 666.39 229.26 670.32 222.65 C 680.48 228.70 692.06 231.88 702.34 237.70 C 704.73 239.27 707.88 240.92 708.31 244.05 C 706.45 249.01 699.94 250.12 698.22 255.13 C 697.91 258.19 701.60 258.98 703.93 259.07 C 712.58 259.55 721.25 258.55 729.92 258.92 C 741.97 259.48 754.05 258.65 766.09 259.38 C 769.05 259.48 771.91 260.33 774.60 261.55 C 774.26 262.14 773.58 263.32 773.24 263.92 C 766.35 260.56 758.48 260.92 751.02 260.83 C 743.00 260.91 734.97 260.45 726.97 261.01 C 725.33 260.90 724.13 262.03 723.02 263.03 C 724.98 263.41 726.96 263.69 728.98 263.76 C 729.15 264.26 729.49 265.25 729.66 265.75 C 723.84 265.97 717.72 264.61 712.19 267.05 C 716.35 269.48 721.35 269.03 725.96 269.68 C 733.59 270.53 741.84 271.04 748.24 275.75 C 745.94 276.61 743.58 277.39 741.11 277.47 C 734.02 277.89 726.92 278.25 719.86 278.94 C 714.30 279.53 708.51 281.37 704.69 285.65 C 701.61 289.28 699.41 293.64 695.87 296.89 C 691.68 300.83 686.20 302.92 680.87 304.81 C 676.20 306.38 671.04 307.95 666.21 306.09 C 668.92 302.18 673.44 300.10 676.29 296.33 C 677.96 294.08 677.83 291.09 677.28 288.49 C 675.12 279.22 670.86 270.49 669.84 260.95 C 669.06 256.09 669.55 251.18 669.64 246.30 C 667.29 248.98 666.04 252.43 665.98 255.99 C 665.62 262.78 666.99 269.53 669.03 275.98 C 661.68 271.46 653.50 268.61 645.83 264.74 C 649.48 256.85 655.29 250.35 660.24 243.30 Z" />
        <path fill="#f0b58b" opacity="1.00"
            d=" M 731.22 265.70 C 732.41 263.57 735.77 264.54 737.90 264.48 C 748.71 265.49 759.82 264.05 770.36 267.14 C 765.62 272.83 757.62 271.64 751.05 271.83 C 745.38 267.44 737.99 266.68 731.22 265.70 Z" />
        <path fill="#f0b58b" opacity="1.00"
            d=" M 339.08 355.07 C 342.41 351.62 344.68 347.35 346.61 343.00 C 358.80 353.06 374.56 358.70 390.37 358.61 C 387.42 369.24 378.52 376.68 370.03 383.04 C 354.55 395.37 336.72 404.19 320.48 415.43 C 308.02 424.11 295.09 432.52 284.91 443.95 C 280.22 449.01 277.38 455.47 272.62 460.47 C 267.13 466.24 260.55 470.90 253.45 474.48 C 250.29 475.80 248.47 479.57 250.05 482.78 C 252.15 487.50 254.71 492.16 254.99 497.45 C 252.22 495.51 249.42 493.39 247.78 490.36 C 246.07 487.74 244.95 484.28 241.89 482.93 C 240.42 482.87 239.65 483.55 239.56 484.98 C 241.63 489.56 244.45 493.75 246.98 498.08 C 248.23 500.93 247.25 503.91 244.93 505.84 C 242.17 503.64 241.11 500.19 239.84 497.05 C 237.78 491.69 235.50 486.41 232.83 481.33 C 237.53 478.99 242.03 476.27 246.35 473.28 C 253.80 467.96 263.10 465.27 269.26 458.18 C 270.90 456.69 271.33 454.48 271.50 452.38 C 267.51 454.23 264.37 457.39 260.64 459.65 C 257.68 461.47 254.50 462.86 251.39 464.38 C 243.17 468.26 236.34 474.62 227.83 477.93 C 225.78 478.70 223.55 478.67 221.40 478.84 C 222.61 472.42 229.66 470.84 233.57 466.56 C 238.83 461.59 239.15 453.94 242.08 447.68 C 236.53 448.96 235.14 455.28 232.58 459.55 C 229.02 466.92 218.35 468.28 216.96 477.05 C 215.82 480.98 219.66 483.04 222.39 484.77 C 220.99 488.82 224.02 493.00 222.08 496.97 C 217.00 490.60 215.94 482.30 213.38 474.80 C 211.79 470.55 213.54 466.14 214.18 461.89 C 215.44 452.93 222.93 445.56 231.55 443.36 C 237.65 441.38 244.27 441.08 250.05 438.10 C 258.94 433.71 267.00 427.81 274.86 421.81 C 291.80 407.68 304.34 389.30 318.95 372.96 C 325.15 366.44 332.88 361.60 339.08 355.07 Z" />
        <path fill="#f0b58b" opacity="1.00"
            d=" M 223.41 484.57 C 225.32 483.87 227.32 483.42 229.30 482.93 C 230.65 488.21 232.68 493.27 234.69 498.33 C 235.75 500.17 234.62 502.13 234.16 503.97 C 227.02 499.78 229.91 489.20 223.41 484.57 Z" />
        <path fill="#f0b58b" opacity="1.00"
            d=" M 457.23 608.23 C 466.99 598.13 478.94 589.36 492.90 586.41 C 508.71 583.20 525.53 588.80 537.05 599.89 C 532.95 607.12 533.25 615.90 533.75 623.93 C 535.76 637.57 538.60 651.15 538.83 664.99 C 538.78 672.37 539.71 680.01 537.37 687.15 C 535.28 694.11 531.67 700.45 528.97 707.16 C 522.51 701.82 514.15 699.77 506.04 698.59 C 494.26 696.85 481.56 697.42 470.94 703.28 C 473.36 692.38 473.87 681.14 473.21 670.02 C 473.25 658.31 470.69 646.83 468.36 635.42 C 465.98 625.90 462.97 616.31 457.23 608.23 Z" />
        <path fill="#f0b58b" opacity="1.00"
            d=" M 666.07 596.97 C 674.90 592.91 684.06 589.51 693.51 587.16 C 698.06 594.86 702.66 602.76 704.56 611.61 C 708.19 627.92 712.62 644.16 719.72 659.34 C 723.65 667.76 726.77 677.14 724.81 686.52 C 721.95 700.95 712.54 712.74 705.06 725.03 C 703.53 727.06 702.55 730.01 699.89 730.80 C 689.24 734.41 677.26 732.75 667.41 727.59 C 659.93 723.69 653.14 717.39 650.89 709.02 C 648.73 704.21 650.23 698.93 649.65 693.89 C 648.58 682.57 647.61 671.10 643.89 660.28 C 639.64 646.55 632.06 634.13 623.34 622.80 C 636.43 612.46 650.93 603.96 666.07 596.97 Z" />
    </g>
    <g id="#f11b27ff">
        <path fill="var(--shirt-color, grey)" opacity="1.00"
            d=" M 535.96 163.20 C 548.45 160.90 561.30 157.24 574.02 160.16 C 587.23 163.18 597.56 172.48 609.20 178.82 C 624.05 187.68 641.50 190.84 656.40 199.59 C 662.52 203.04 667.56 207.97 672.82 212.54 C 668.35 215.93 664.66 220.37 662.65 225.64 C 660.30 231.67 658.09 237.89 653.92 242.95 C 647.91 250.31 642.57 258.38 639.43 267.41 C 637.87 271.98 636.84 276.71 635.74 281.41 C 628.42 274.67 621.31 267.70 613.54 261.49 C 607.85 256.94 600.91 254.46 594.25 251.74 C 590.77 250.56 587.01 248.80 583.32 250.05 C 582.22 252.25 584.80 252.90 586.28 253.70 C 591.01 255.68 595.72 257.75 600.23 260.23 C 599.73 276.47 597.35 292.74 598.90 308.99 C 600.33 319.92 602.92 330.75 607.23 340.91 C 612.19 352.64 615.28 365.24 615.49 378.01 C 615.55 386.05 613.87 393.97 613.87 402.01 C 613.84 410.03 615.43 417.93 616.67 425.83 C 618.33 436.04 620.70 446.13 624.01 455.93 C 625.54 460.21 626.10 464.77 625.52 469.29 C 617.52 467.01 609.30 465.76 601.19 463.97 C 583.08 459.68 564.59 457.19 546.07 455.49 C 521.80 453.26 497.23 455.70 473.65 461.71 C 463.51 464.32 453.17 466.07 442.91 468.13 C 438.59 468.95 434.68 471.05 431.12 473.56 C 428.38 471.91 424.53 470.61 423.94 467.01 C 421.48 454.07 428.59 441.87 427.84 428.98 C 427.58 419.78 425.27 410.74 421.48 402.38 C 417.04 392.52 413.33 382.34 410.47 371.92 C 408.20 363.11 404.48 354.74 402.41 345.88 C 400.99 339.97 401.57 333.83 400.72 327.84 C 400.01 321.07 397.74 314.63 395.65 308.19 C 393.97 303.27 392.42 297.92 388.12 294.59 C 389.37 304.14 393.26 313.15 394.51 322.74 C 389.96 317.13 383.50 313.60 378.46 308.50 C 374.89 305.01 371.95 300.96 369.20 296.82 C 367.92 295.13 366.53 292.60 364.00 293.22 C 365.22 300.82 370.18 307.25 375.29 312.76 C 380.39 318.34 387.88 321.66 391.42 328.61 C 393.48 332.56 395.60 336.62 396.24 341.08 C 396.76 344.83 397.62 348.53 398.60 352.19 C 383.67 355.00 368.14 350.48 355.46 342.57 C 349.62 338.49 342.77 332.93 343.22 325.05 C 343.68 310.33 347.01 295.65 345.39 280.88 C 344.20 269.62 342.95 258.35 342.30 247.03 C 342.28 235.16 343.97 222.68 350.65 212.57 C 353.68 208.02 357.97 204.01 363.36 202.54 C 370.78 200.45 378.49 199.00 385.37 195.39 C 392.01 192.09 396.93 185.69 404.49 184.23 C 402.94 187.11 400.87 189.78 399.93 192.94 C 402.10 201.25 408.02 208.09 414.49 213.50 C 427.22 224.11 444.69 229.04 461.03 225.85 C 470.01 224.10 478.88 220.03 484.85 212.91 C 493.45 202.93 495.53 187.45 488.85 175.92 C 490.50 172.37 492.15 168.82 493.68 165.22 C 507.56 169.85 522.13 165.86 535.96 163.20 M 407.49 272.85 C 407.54 275.76 408.37 278.60 409.80 281.13 C 413.72 288.34 417.98 295.42 423.28 301.71 C 435.98 316.95 449.91 331.09 463.20 345.80 C 474.49 358.16 485.78 370.67 499.08 380.93 C 509.15 389.25 520.07 396.58 531.90 402.18 C 540.51 406.25 549.25 410.63 558.82 411.79 C 561.13 412.19 563.44 411.76 565.65 411.05 C 563.61 409.99 561.45 409.21 559.22 408.69 C 548.76 406.29 539.21 401.19 529.82 396.18 C 514.69 387.98 501.30 376.95 488.71 365.32 C 473.94 350.71 460.40 334.93 445.99 319.96 C 436.31 309.33 426.02 299.18 417.48 287.57 C 413.94 282.80 411.56 277.23 407.49 272.85 M 584.58 307.82 C 586.38 323.42 588.52 339.28 586.29 354.94 C 585.41 358.89 585.06 363.90 581.38 366.32 C 575.65 368.55 569.60 365.82 564.33 363.57 C 559.10 361.48 554.71 357.45 549.02 356.55 C 551.90 361.62 557.36 364.19 562.27 366.85 C 568.49 369.81 575.35 373.12 582.41 371.56 C 587.97 370.24 590.19 364.27 591.18 359.26 C 594.07 344.23 591.69 328.86 589.51 313.90 C 588.71 310.38 588.76 306.25 586.12 303.50 C 583.89 303.73 584.52 306.34 584.58 307.82 M 413.60 362.45 C 420.99 369.81 429.38 376.09 437.83 382.19 C 443.60 386.40 450.35 388.94 457.08 391.16 C 462.01 392.70 467.13 394.20 472.35 393.54 C 470.90 392.32 469.40 391.11 467.65 390.34 C 459.55 386.83 451.03 384.16 443.41 379.61 C 432.34 372.60 421.46 365.26 411.39 356.84 C 411.28 358.97 411.95 361.03 413.60 362.45 M 461.22 418.31 C 451.69 419.10 442.69 423.34 435.60 429.68 C 434.46 430.60 433.69 432.30 434.58 433.67 C 436.69 433.51 438.54 432.39 440.40 431.47 C 448.03 427.54 456.33 424.53 465.00 424.27 C 479.38 423.69 493.68 425.87 508.05 426.08 C 512.89 426.06 517.92 426.94 522.63 425.44 C 523.92 425.49 524.58 422.96 523.13 422.96 C 511.83 421.22 500.40 420.42 489.05 419.15 C 479.80 418.36 470.49 417.30 461.22 418.31 Z" />
    </g>
    <g id="#ffffffff">
        <path fill="var(--pants-color, grey)" opacity="1.00"
            d=" M 444.94 474.46 C 466.80 470.87 488.03 463.85 510.16 461.82 C 522.44 460.29 534.86 460.64 547.16 461.73 C 564.62 462.80 581.99 465.30 599.06 469.10 C 608.87 471.44 619.21 471.68 628.63 475.52 C 633.72 477.59 636.24 482.96 637.65 487.94 C 640.23 496.87 641.49 506.43 646.56 514.42 C 649.75 519.78 654.75 523.63 659.03 528.06 C 663.73 532.71 668.13 537.70 671.75 543.25 C 675.67 549.21 681.21 553.79 685.95 559.05 C 691.80 565.78 697.82 572.39 703.15 579.56 C 688.37 580.39 674.38 585.92 661.04 591.99 C 643.64 600.27 626.91 610.51 613.13 624.11 C 609.32 627.94 605.97 632.26 603.57 637.13 C 592.42 622.88 580.26 609.40 566.99 597.11 C 561.49 591.53 555.77 586.18 550.02 580.87 C 544.32 570.66 541.17 557.92 530.76 551.20 C 528.72 550.21 526.67 547.17 524.31 548.88 C 522.74 551.07 524.80 553.26 526.42 554.61 C 529.64 557.37 532.92 560.23 534.84 564.10 C 538.57 571.52 542.60 578.87 545.06 586.84 C 546.65 592.03 547.19 597.46 547.83 602.83 C 537.68 590.05 522.75 580.04 506.04 579.46 C 484.79 578.61 464.72 590.20 451.59 606.37 C 444.18 592.65 439.00 577.58 437.79 561.96 C 437.55 558.34 437.07 554.64 437.94 551.07 C 438.79 547.28 439.86 543.21 438.45 539.42 C 436.99 535.06 435.06 530.47 436.21 525.81 C 437.01 518.75 442.14 513.43 445.52 507.51 C 439.12 508.45 436.12 515.00 433.34 520.06 C 430.35 508.14 427.03 495.33 431.23 483.27 C 433.74 478.02 439.36 475.17 444.94 474.46 M 569.06 509.97 C 563.14 512.79 556.59 513.76 550.16 514.70 C 546.92 515.02 543.36 515.34 540.45 513.58 C 534.66 510.20 530.42 504.75 524.64 501.35 C 518.06 497.48 510.62 495.12 503.05 494.23 C 500.57 494.03 497.88 493.15 495.65 494.74 C 497.66 495.84 499.78 496.81 502.05 497.27 C 508.79 498.75 515.38 501.09 521.37 504.55 C 528.24 508.42 533.05 515.20 540.32 518.45 C 546.15 520.66 552.49 519.17 558.43 518.24 C 571.67 516.17 582.94 508.50 594.48 502.26 C 599.42 499.46 604.79 497.49 609.70 494.66 C 611.46 494.20 611.18 491.00 609.09 491.63 C 594.25 493.98 582.62 504.37 569.06 509.97 M 453.58 500.23 C 462.04 499.61 470.65 497.12 479.09 499.36 C 500.34 506.01 516.55 522.08 534.34 534.69 C 540.94 539.34 546.74 546.16 555.12 547.43 L 555.68 545.97 C 553.87 544.52 551.82 543.44 549.91 542.15 C 545.32 539.14 541.63 535.03 537.29 531.71 C 522.23 520.31 507.93 507.56 490.84 499.18 C 484.38 496.04 477.16 493.77 469.91 495.05 C 464.33 495.93 457.63 495.60 453.58 500.23 M 604.59 515.71 C 599.01 519.28 594.46 524.22 589.63 528.72 C 580.02 539.11 571.12 550.54 566.07 563.90 C 564.01 569.40 561.70 575.13 562.20 581.13 C 562.26 582.72 563.38 583.81 565.04 583.65 C 567.22 581.80 566.95 578.62 567.90 576.14 C 571.35 565.43 576.22 555.05 583.20 546.17 C 588.45 539.45 593.49 532.54 599.22 526.22 C 601.79 523.09 605.29 520.64 607.26 517.08 C 608.42 515.15 605.59 514.89 604.59 515.71 Z" />
        <path fill="var(--socks-color, grey)" opacity="1.00"
            d=" M 470.12 712.14 C 478.06 705.34 488.98 703.99 499.05 703.93 C 508.93 703.94 518.74 706.85 527.06 712.18 C 524.75 720.61 525.20 729.46 526.43 738.03 C 528.46 751.23 528.78 764.61 529.72 777.92 C 530.54 796.90 530.84 816.02 528.24 834.88 C 522.34 833.65 516.08 833.20 510.31 835.25 C 501.79 838.23 493.94 843.14 487.34 849.28 C 484.42 831.43 480.94 813.68 477.58 795.92 C 476.03 787.45 473.49 779.22 471.65 770.83 C 467.84 752.87 465.51 734.24 468.46 715.97 C 468.73 714.60 468.72 712.90 470.12 712.14 Z" />
        <path fill="var(--socks-color, grey)" opacity="1.00"
            d=" M 632.37 731.16 C 635.13 723.69 640.24 717.46 645.41 711.53 C 647.91 720.25 654.35 727.36 662.11 731.83 C 672.55 737.89 685.35 740.10 697.13 737.16 C 686.35 751.57 680.64 768.87 673.10 785.03 C 669.44 792.33 665.91 799.71 661.84 806.80 C 652.94 821.69 642.51 835.57 633.02 850.07 C 627.81 857.75 622.94 865.76 616.61 872.58 C 609.34 877.82 604.14 886.35 594.88 888.41 C 589.89 889.80 585.52 886.01 582.70 882.36 C 576.86 874.13 574.40 863.63 575.47 853.63 C 583.97 844.21 590.96 833.55 597.94 822.99 C 609.59 802.49 620.31 781.13 625.90 758.09 C 627.91 749.09 629.10 739.83 632.37 731.16 Z" />
    </g>
    <g id="#4d4d4dff">
        <path fill="#4d4d4d" opacity="1.00"
            d=" M 514.55 841.35 C 525.06 838.03 536.82 843.31 542.76 852.30 C 547.73 859.00 548.36 868.17 545.54 875.88 C 542.35 884.72 537.57 892.95 535.10 902.07 C 530.71 916.85 532.77 932.80 527.29 947.33 C 524.98 955.23 519.41 962.39 511.66 965.50 C 505.93 967.24 499.47 967.38 493.87 965.13 C 489.81 962.73 487.77 958.09 486.09 953.89 C 484.49 950.17 485.11 946.04 486.13 942.27 C 489.34 930.81 489.07 918.73 488.25 906.96 C 487.53 896.87 486.14 886.12 490.52 876.62 C 493.00 870.79 498.22 866.93 501.90 861.96 C 506.59 855.38 510.24 848.15 514.55 841.35 Z" />
        <path fill="#4d4d4d" opacity="1.00"
            d=" M 485.37 863.36 C 490.17 853.40 499.08 845.84 509.42 842.10 C 503.52 849.39 499.35 858.05 492.29 864.37 C 485.48 870.68 481.87 879.87 481.49 889.05 C 480.92 901.71 483.20 914.32 482.24 926.98 C 482.17 934.92 478.83 942.48 479.56 950.48 C 473.61 936.15 473.27 920.27 474.09 905.01 C 475.03 890.55 479.15 876.40 485.37 863.36 Z" />
        <path fill="#4d4d4d" opacity="1.00"
            d=" M 559.65 883.04 C 560.38 874.64 564.54 866.94 569.89 860.58 C 570.45 869.97 572.82 879.69 579.04 887.02 C 582.91 891.61 588.80 895.43 595.07 894.07 C 604.71 892.37 611.19 884.51 617.76 877.99 C 620.76 893.87 623.16 909.87 624.00 926.02 C 624.71 939.50 626.19 953.01 630.05 966.00 C 631.26 971.47 634.43 977.37 631.90 982.91 C 629.27 985.91 625.03 986.76 621.26 987.30 C 609.86 988.47 597.28 987.40 588.04 979.95 C 581.37 974.82 578.46 966.30 577.72 958.20 C 576.89 947.77 578.53 936.97 575.08 926.88 C 571.87 917.59 567.42 908.80 563.22 899.94 C 560.72 894.70 559.04 888.89 559.65 883.04 Z" />
    </g>
</svg>