<?xml version="1.0" encoding="UTF-8" ?>
<!DOCTYPE svg PUBLIC "-//W3C//DTD SVG 1.1//EN" "http://www.w3.org/Graphics/SVG/1.1/DTD/svg11.dtd">
<svg width="1000pt" height="1000pt" viewBox="0 0 1000 1000" version="1.1" xmlns="http://www.w3.org/2000/svg">
    <g id="#020202ff">
        <path fill="#020202" opacity="1.00"
            d=" M 510.92 37.09 C 520.84 35.43 530.99 36.12 540.86 37.75 C 548.15 39.02 555.74 39.40 562.61 42.42 C 566.84 44.21 570.35 47.60 575.00 48.36 C 585.67 50.34 596.11 55.60 602.68 64.44 C 607.79 71.23 611.03 79.48 611.78 87.95 C 612.24 92.36 610.39 96.84 611.95 101.15 C 613.40 105.45 613.16 110.01 612.72 114.45 C 615.68 118.88 615.67 124.34 616.34 129.42 C 616.52 131.39 616.89 133.41 616.40 135.36 C 614.14 136.17 612.35 134.10 610.53 133.13 C 609.50 142.71 608.87 152.33 607.53 161.86 C 606.70 167.43 603.89 172.84 598.93 175.77 C 597.21 186.12 590.67 195.52 581.68 200.87 C 579.87 208.87 579.30 217.04 578.74 225.20 C 587.63 231.61 596.18 238.49 605.07 244.91 C 622.40 257.22 640.49 269.31 653.72 286.23 C 659.69 293.74 663.58 302.57 668.07 310.98 C 676.43 327.81 686.63 343.64 696.54 359.58 C 705.15 374.12 714.07 388.54 721.04 403.97 C 724.69 411.33 729.36 419.40 726.56 427.89 C 723.24 437.46 718.11 446.34 715.16 456.06 C 712.80 463.90 709.17 471.47 703.64 477.57 C 698.55 483.63 691.96 488.10 686.26 493.53 C 689.74 502.26 689.17 511.92 692.26 520.72 C 697.18 531.61 703.79 542.63 702.89 555.05 C 702.77 560.10 699.29 565.07 693.96 565.44 C 692.86 569.27 691.15 573.49 687.22 575.17 C 683.36 576.86 679.14 574.14 677.34 570.72 C 673.65 564.02 671.67 556.57 669.45 549.30 C 668.00 557.43 667.55 566.05 663.47 573.43 C 661.35 577.33 654.47 579.74 651.94 575.01 C 649.04 568.86 649.26 561.78 648.57 555.14 C 647.55 560.44 646.49 565.94 643.62 570.60 C 642.09 573.11 639.01 574.80 636.07 574.07 C 633.56 573.28 632.55 570.55 631.73 568.32 C 629.65 561.54 628.96 554.45 628.40 547.42 C 628.80 568.45 625.06 589.19 622.09 609.92 C 624.32 612.97 626.58 616.03 629.17 618.80 C 634.98 625.06 642.29 629.64 648.35 635.62 C 651.91 639.15 654.61 643.84 654.95 648.91 C 653.77 652.11 649.81 652.28 647.03 653.21 C 635.50 655.80 623.44 655.69 611.78 654.04 C 612.63 659.81 613.42 665.67 615.79 671.06 C 625.24 674.76 634.35 679.51 642.45 685.65 C 654.39 695.99 665.81 707.21 674.36 720.58 C 678.07 726.57 682.15 732.34 685.52 738.54 C 693.05 752.20 699.96 766.29 709.05 779.02 C 714.42 785.96 720.03 792.75 725.03 799.96 C 731.88 802.78 739.00 805.03 745.61 808.45 C 758.68 814.34 770.57 823.26 778.81 835.10 C 786.75 846.47 792.44 859.43 795.38 872.99 C 796.90 880.25 796.99 888.83 791.58 894.60 C 782.84 903.87 769.16 907.61 756.76 905.22 C 746.35 904.02 736.46 899.39 729.12 891.87 C 720.25 883.69 713.94 873.19 705.00 865.08 C 699.87 859.86 693.82 855.25 690.33 848.67 C 688.32 844.97 687.92 840.71 687.57 836.59 C 676.52 827.98 667.74 816.97 657.53 807.45 C 635.01 785.76 609.51 767.55 585.94 747.08 C 573.62 737.37 561.63 727.25 549.13 717.76 C 542.61 712.57 536.20 707.23 530.40 701.24 C 530.42 715.28 533.16 729.10 534.39 743.05 C 535.02 748.37 534.80 754.80 539.64 758.33 C 555.31 771.22 570.39 784.96 583.46 800.54 C 592.52 810.78 599.56 822.55 607.02 833.95 C 614.55 845.02 621.78 856.32 630.31 866.66 C 633.61 870.36 635.77 875.21 640.12 877.86 C 648.05 882.44 655.77 887.44 662.89 893.20 C 674.33 902.14 677.86 918.69 673.07 932.08 C 670.59 939.92 664.20 945.65 661.18 953.23 C 657.16 962.72 656.09 973.52 650.22 982.19 C 646.47 987.80 639.02 987.83 632.98 988.07 C 622.89 987.85 612.40 990.02 602.69 986.30 C 595.60 983.90 588.50 978.12 588.32 970.06 C 587.95 958.17 592.19 946.77 593.02 934.99 C 594.13 925.97 591.59 916.15 596.41 907.89 C 589.00 904.19 584.06 897.40 578.00 892.02 C 569.30 884.36 561.29 875.92 552.10 868.80 C 540.43 859.50 528.47 850.56 516.81 841.24 C 508.93 834.85 501.51 827.69 496.07 819.05 C 491.54 812.24 488.23 804.51 482.35 798.69 C 477.51 793.87 472.06 789.64 467.77 784.29 C 463.45 779.01 459.81 773.17 457.14 766.88 C 452.29 755.90 448.81 744.26 447.40 732.32 C 434.83 733.83 421.87 731.78 410.27 726.78 C 406.61 725.03 402.70 723.18 400.15 719.94 C 398.66 715.80 399.62 711.31 399.47 707.02 C 399.27 698.65 399.08 690.18 396.99 682.04 C 394.58 671.90 391.82 661.54 392.94 651.03 C 393.48 643.48 396.92 636.56 397.87 629.09 C 399.93 616.10 397.02 603.05 397.14 590.01 C 396.91 578.61 398.25 567.28 399.50 555.97 C 402.24 533.58 403.76 510.21 414.86 490.02 C 404.92 477.49 399.31 460.98 401.57 444.96 C 403.23 430.67 409.68 417.40 411.00 403.04 C 411.61 395.88 412.08 388.67 413.85 381.67 C 406.51 387.70 400.06 394.71 392.64 400.64 C 385.26 406.55 378.38 413.04 371.52 419.53 C 369.53 421.39 367.59 423.45 365.00 424.44 C 362.53 423.69 361.68 421.15 360.87 419.00 C 358.26 411.88 354.85 405.08 351.19 398.45 C 336.93 407.33 322.92 416.59 309.06 426.09 C 300.86 431.71 291.51 435.30 282.06 438.20 C 284.15 442.48 286.49 446.72 287.41 451.45 C 288.98 458.50 288.33 465.88 290.37 472.84 C 291.79 478.16 294.37 483.42 293.76 489.06 C 293.49 491.47 291.46 493.58 289.02 493.80 C 285.29 494.21 281.44 492.87 278.70 490.31 C 274.16 486.09 270.50 480.98 267.67 475.49 C 269.56 482.77 271.11 490.38 269.98 497.91 C 269.57 500.65 267.97 503.65 265.03 504.23 C 261.65 505.06 258.70 502.84 256.16 500.95 C 256.21 505.55 256.51 510.74 253.60 514.63 C 250.70 518.10 245.02 517.15 242.61 513.59 C 234.66 503.19 229.91 490.78 225.45 478.58 C 223.97 474.23 222.14 469.45 223.88 464.89 C 226.84 456.18 232.29 448.66 236.52 440.57 C 250.37 413.55 266.92 387.14 290.26 367.28 C 295.90 362.17 302.00 357.52 308.96 354.36 C 309.57 352.38 310.19 350.31 311.74 348.85 C 315.72 344.79 319.75 340.76 324.01 337.00 C 333.03 328.98 340.58 319.49 347.95 309.99 C 355.48 300.68 362.47 290.95 368.87 280.83 C 376.08 269.87 382.90 258.54 391.72 248.75 C 398.75 240.84 407.63 234.77 417.06 230.07 C 433.20 222.19 451.14 219.49 468.03 213.71 C 463.63 201.53 461.97 188.65 459.07 176.09 C 458.14 171.81 458.16 167.41 457.52 163.09 C 456.21 160.35 453.43 158.53 452.34 155.62 C 450.44 151.61 451.52 147.12 452.15 142.95 C 450.60 141.39 448.69 140.02 447.84 137.93 C 446.86 135.60 448.32 133.28 448.93 131.06 C 450.48 126.88 449.58 122.36 450.01 118.02 C 450.94 105.72 454.69 93.45 461.70 83.22 C 459.63 82.56 454.96 81.91 456.63 78.77 C 460.78 74.14 466.30 71.01 470.85 66.81 C 476.80 61.60 479.66 53.85 485.42 48.47 C 492.27 41.81 501.70 38.70 510.92 37.09 M 463.85 157.03 C 463.52 163.94 464.46 170.85 465.80 177.61 C 472.83 179.78 479.96 181.62 486.89 184.06 C 490.30 185.07 489.66 189.26 489.74 192.02 C 488.97 200.90 488.84 209.94 486.65 218.63 C 485.92 217.58 484.91 216.55 485.10 215.16 C 485.08 208.91 485.58 202.67 485.62 196.42 C 479.93 195.03 474.26 193.57 468.69 191.77 C 469.73 196.76 470.77 201.78 472.53 206.57 C 476.97 215.74 482.01 224.65 488.34 232.66 C 497.24 232.14 506.16 231.70 515.09 231.74 C 516.65 231.61 518.05 232.31 518.29 233.99 C 517.32 236.47 514.25 235.78 512.18 236.33 C 511.32 237.69 510.87 239.67 509.05 240.03 C 504.21 241.35 499.09 241.08 494.13 240.96 C 496.92 248.21 500.07 256.81 507.67 260.23 C 514.89 263.18 522.01 259.17 528.54 256.44 C 527.75 257.91 527.10 259.61 525.59 260.51 C 519.01 264.88 510.23 268.25 502.63 264.37 C 495.82 260.41 492.25 252.90 489.20 245.96 C 485.74 257.09 485.79 269.45 490.60 280.17 C 494.13 287.09 500.87 292.16 508.16 294.54 C 520.79 296.03 533.00 290.79 543.80 284.76 C 547.22 282.91 549.49 279.64 551.26 276.28 C 553.95 271.20 557.90 266.98 561.78 262.80 C 565.14 259.19 569.85 256.69 572.02 252.08 C 573.47 248.57 573.13 244.67 573.23 240.97 C 573.35 233.04 573.34 225.12 573.53 217.21 C 568.10 228.55 558.79 237.52 548.33 244.28 C 546.60 245.44 544.48 246.13 542.49 245.23 C 543.62 240.94 548.28 239.13 550.98 235.94 C 558.46 227.96 565.75 219.37 569.90 209.11 C 571.64 204.98 573.07 200.54 576.22 197.21 C 579.75 193.43 584.03 190.31 586.78 185.84 C 589.76 181.09 593.27 175.89 592.68 170.01 C 592.44 167.20 590.04 165.46 587.89 164.05 C 583.17 169.76 582.80 177.52 582.38 184.58 C 582.09 187.02 579.24 186.24 577.55 186.19 C 577.08 188.86 578.40 193.30 574.97 194.28 C 568.68 191.81 565.52 185.15 562.37 179.61 C 558.67 173.29 556.81 166.12 556.36 158.85 C 552.71 157.49 549.69 154.98 546.75 152.50 C 544.49 153.67 542.23 154.85 540.05 156.16 C 531.86 161.19 522.59 164.72 513.02 165.79 C 509.82 166.39 506.74 164.98 505.14 162.16 C 494.94 164.38 484.03 160.51 476.93 153.02 C 475.68 151.38 473.73 149.42 474.91 147.24 C 477.83 146.91 480.71 147.76 483.59 148.10 C 478.40 144.69 474.24 139.98 470.53 135.05 C 468.36 142.39 464.13 149.21 463.85 157.03 M 425.86 231.84 C 414.20 236.49 403.26 243.43 394.98 252.96 C 381.36 268.79 371.96 287.65 359.22 304.14 C 348.84 317.33 338.78 331.08 325.62 341.69 C 321.94 344.77 318.59 348.20 315.01 351.38 C 323.38 354.90 329.98 361.33 336.31 367.64 C 342.43 373.67 347.61 380.60 352.07 387.93 C 357.79 397.45 363.02 407.35 366.45 417.95 C 373.06 410.36 380.43 403.45 388.34 397.22 C 396.46 390.77 403.64 383.19 412.10 377.15 C 413.79 375.70 416.22 374.51 416.54 372.07 C 420.32 354.95 414.67 337.83 411.88 321.03 C 411.82 317.33 410.31 311.71 414.63 309.88 C 415.19 315.18 415.58 320.54 417.21 325.66 C 419.84 334.30 421.67 343.16 422.71 352.13 C 425.00 337.60 427.53 323.11 430.85 308.79 C 432.32 303.19 432.23 296.76 436.21 292.18 C 436.64 295.13 436.46 298.13 435.96 301.07 C 433.53 316.03 431.00 330.98 428.49 345.94 C 426.06 360.67 420.27 374.55 417.15 389.11 C 415.72 398.75 415.92 408.67 412.84 418.03 C 408.88 433.03 401.65 449.09 407.65 464.57 C 412.24 479.71 423.05 492.13 435.62 501.35 C 439.13 503.88 443.17 505.69 447.47 506.29 C 457.82 507.74 469.47 507.93 478.15 501.18 C 490.97 491.30 504.66 482.57 519.03 475.13 C 528.36 470.06 537.95 463.88 549.00 464.24 C 554.68 464.63 560.38 464.50 566.08 464.71 C 558.37 469.20 549.10 466.94 540.99 470.00 C 531.72 473.23 523.83 479.28 515.05 483.54 C 523.98 485.60 531.94 490.28 540.43 493.54 C 550.24 497.17 560.81 496.80 571.09 497.16 C 588.75 497.94 604.11 508.31 621.55 510.16 C 622.78 506.22 623.76 501.88 626.98 499.02 C 630.47 495.87 633.58 491.83 634.16 487.03 C 634.79 480.09 632.76 473.33 631.25 466.64 C 629.15 457.74 628.18 448.33 630.27 439.33 C 630.99 435.63 632.33 431.92 631.94 428.10 C 629.48 422.45 623.33 420.20 618.67 416.79 C 618.05 426.72 615.07 436.49 610.14 445.13 C 606.48 451.58 601.44 457.08 596.47 462.52 C 595.15 464.05 593.28 464.88 591.39 465.45 C 593.76 460.39 597.37 456.10 600.64 451.62 C 607.66 442.16 611.84 430.70 613.11 419.02 C 613.74 414.42 611.92 410.08 609.94 406.06 C 603.58 390.43 600.67 373.14 603.58 356.38 C 604.58 357.70 605.57 359.15 605.66 360.88 C 606.85 370.60 607.20 380.51 610.02 389.96 C 611.93 396.13 613.39 402.58 616.87 408.12 C 620.27 412.97 625.96 415.30 631.03 417.95 C 627.55 409.99 623.56 402.09 622.33 393.39 C 620.58 381.69 621.09 369.77 619.15 358.09 C 618.48 351.27 616.47 344.53 616.94 337.64 C 617.44 337.62 618.44 337.56 618.94 337.54 C 621.76 344.90 622.90 352.78 624.37 360.50 C 626.46 371.89 625.82 383.60 628.07 394.96 C 630.03 405.27 637.07 413.77 638.80 424.13 C 640.16 431.75 639.25 440.00 643.03 447.03 C 644.52 449.89 648.13 450.66 651.07 449.95 C 654.40 449.13 658.77 449.13 660.56 445.65 C 665.88 436.37 672.30 427.31 681.44 421.45 C 689.08 416.51 699.40 416.23 707.40 420.46 C 712.34 423.01 715.56 427.69 718.87 431.97 C 720.22 427.65 721.71 422.98 720.33 418.47 C 718.99 414.18 716.65 410.30 714.76 406.25 C 701.60 377.76 683.21 352.16 668.25 324.65 C 663.53 315.43 659.05 306.07 653.96 297.05 C 644.68 281.67 630.14 270.59 615.97 260.02 C 603.01 250.96 590.46 241.36 578.09 231.52 C 578.28 237.67 578.84 243.85 578.33 249.99 C 577.84 255.13 574.40 259.35 570.53 262.50 C 566.46 265.74 562.94 269.59 559.68 273.63 C 556.21 277.91 554.45 283.48 550.11 287.06 C 546.08 290.33 541.20 292.28 536.57 294.51 C 528.61 298.27 519.82 300.25 511.02 300.27 C 505.61 300.26 500.75 297.50 496.42 294.53 C 490.97 290.86 486.61 285.47 484.56 279.20 C 481.09 268.78 480.36 257.25 483.89 246.74 C 484.40 244.49 486.16 242.18 485.27 239.83 C 481.34 231.22 474.13 224.77 469.23 216.79 C 455.33 223.32 440.06 226.07 425.86 231.84 M 303.06 364.00 C 281.10 380.87 263.88 403.17 250.13 427.05 C 244.79 436.72 239.67 446.52 233.93 455.98 C 230.46 461.96 226.87 469.34 229.72 476.27 C 234.23 487.37 238.86 498.51 245.28 508.66 C 246.40 510.04 247.56 512.55 249.74 511.61 C 253.08 503.77 250.67 494.97 248.95 487.02 C 246.87 478.52 245.29 469.77 245.69 460.99 C 245.80 459.33 246.65 455.36 248.52 458.29 C 250.85 467.16 251.35 476.44 253.71 485.32 C 255.30 491.28 257.92 498.03 264.10 500.51 C 267.66 489.33 262.87 477.97 260.96 466.96 C 260.30 462.09 259.26 455.76 264.10 452.62 C 268.59 461.20 270.37 471.04 275.81 479.15 C 279.02 483.72 282.61 489.49 288.98 489.26 C 289.27 482.47 285.34 476.58 284.41 470.01 C 282.97 461.84 284.28 453.07 280.59 445.38 C 278.09 440.15 276.05 434.68 274.93 428.99 C 274.19 426.91 274.73 424.69 276.73 423.59 C 278.01 427.10 279.15 430.67 280.44 434.19 C 287.57 430.32 295.30 427.60 302.13 423.17 C 311.04 417.45 319.59 411.19 328.55 405.54 C 335.12 401.45 341.44 396.90 348.54 393.74 C 340.05 379.23 328.64 366.28 314.83 356.64 C 310.80 358.92 306.76 361.21 303.06 364.00 M 681.64 427.65 C 675.66 432.41 671.13 438.70 667.12 445.15 C 661.73 454.09 656.05 462.86 651.03 472.02 C 646.93 479.28 643.81 487.14 638.79 493.86 C 635.81 497.82 631.57 500.61 628.49 504.45 C 626.09 509.16 626.29 514.66 624.83 519.66 C 623.04 527.72 619.06 535.51 619.60 543.93 C 620.09 547.41 624.37 545.48 625.68 543.62 C 629.34 538.36 627.42 531.55 628.78 525.66 C 629.49 522.84 633.75 524.08 633.07 526.88 C 632.92 541.18 631.88 556.22 637.60 569.68 C 639.30 567.22 640.59 564.49 641.39 561.61 C 644.19 551.86 645.12 541.67 648.16 531.97 C 648.52 530.33 649.89 529.28 651.00 528.16 C 652.00 529.25 653.67 530.18 653.46 531.92 C 653.71 545.37 652.79 559.20 656.78 572.23 C 658.68 569.42 660.07 566.30 660.86 563.01 C 663.66 552.05 664.73 540.73 667.00 529.66 C 669.72 528.68 670.43 531.94 670.60 533.94 C 670.87 541.44 674.69 548.13 676.70 555.24 C 678.90 560.48 679.91 566.84 684.66 570.50 C 686.01 568.53 687.59 566.52 687.72 564.03 C 688.43 556.02 685.83 548.21 683.61 540.62 C 682.35 535.96 679.87 531.45 680.18 526.51 C 682.24 525.23 683.08 527.67 683.95 529.07 C 689.13 539.02 692.86 549.79 694.33 560.94 C 695.95 558.23 697.38 555.22 697.08 551.97 C 696.60 542.05 691.49 533.27 687.56 524.39 C 684.28 517.00 685.03 508.74 683.62 500.94 C 683.19 497.73 682.14 494.54 682.39 491.28 C 684.33 487.71 687.63 485.17 690.54 482.43 C 697.83 475.85 704.88 468.42 708.10 458.92 C 710.50 451.29 713.71 443.95 717.23 436.77 C 712.79 430.56 707.00 424.33 699.10 423.06 C 693.02 422.49 686.48 423.75 681.64 427.65 M 635.41 441.93 C 635.10 445.26 634.73 448.60 634.82 451.96 C 634.87 462.93 639.54 473.27 639.28 484.28 C 643.94 473.98 649.52 464.14 655.34 454.46 C 651.31 455.56 646.73 456.33 642.93 454.10 C 638.36 451.73 637.05 446.38 635.41 441.93 M 506.13 488.91 C 500.84 491.91 495.80 495.34 490.75 498.73 C 484.77 502.75 479.42 507.96 472.51 510.40 C 466.31 512.54 459.64 512.74 453.15 512.42 C 453.94 522.60 453.87 532.82 454.76 543.00 C 455.01 548.83 456.49 554.73 455.20 560.53 C 451.78 555.79 451.79 549.73 450.99 544.17 C 449.94 533.53 448.99 522.86 449.14 512.16 C 436.21 511.16 426.45 501.69 417.67 493.11 C 415.37 499.68 412.87 506.19 411.21 512.96 C 408.16 525.05 407.21 537.51 405.49 549.82 C 404.02 562.85 402.06 575.87 402.20 589.01 C 401.95 601.68 404.57 614.31 403.14 626.96 C 402.35 636.87 397.11 645.92 397.47 655.99 C 397.58 666.45 401.20 676.40 403.14 686.58 C 404.81 697.16 404.52 707.93 403.49 718.56 C 418.25 725.88 435.39 729.51 451.69 725.87 C 468.34 721.82 486.42 724.69 502.26 717.22 C 511.42 712.50 519.32 705.68 526.55 698.41 C 524.31 687.03 522.95 675.47 522.72 663.87 C 522.76 660.51 520.50 657.88 518.82 655.20 C 515.72 650.26 511.93 645.58 510.39 639.84 C 507.93 631.84 509.51 623.24 512.41 615.58 C 514.06 611.60 513.82 607.23 513.81 603.02 C 513.50 591.46 518.57 580.67 523.71 570.61 C 531.66 556.57 542.57 544.02 555.94 534.88 C 558.32 533.32 560.69 530.73 563.83 531.58 C 562.70 534.63 560.09 536.63 557.77 538.74 C 541.51 552.86 527.63 570.60 521.13 591.37 C 519.16 597.41 519.77 603.84 519.64 610.08 C 519.60 615.68 516.20 620.47 515.39 625.92 C 514.37 630.52 514.83 635.37 516.36 639.81 C 518.03 644.66 521.40 648.64 523.95 653.03 C 536.72 641.87 554.21 635.25 571.24 637.86 C 580.61 639.16 589.20 643.42 598.43 645.32 C 607.20 647.17 616.00 649.26 625.00 649.56 C 633.54 649.67 642.14 649.74 650.54 647.92 C 642.65 635.69 628.73 628.91 621.30 616.29 C 620.72 621.60 620.80 626.97 620.07 632.26 C 619.98 633.98 618.09 636.66 616.59 634.45 C 614.53 620.83 616.93 607.02 618.67 593.48 C 620.88 579.53 622.24 565.46 623.03 551.37 C 618.75 551.65 614.91 548.36 614.79 544.04 C 614.59 533.75 618.70 524.08 621.02 514.20 C 618.65 514.06 616.30 513.88 613.96 513.62 C 607.19 518.89 600.54 524.36 594.53 530.50 C 591.24 533.86 588.55 537.87 587.16 542.40 C 589.73 543.36 592.53 543.25 594.91 541.83 C 597.12 541.01 599.08 538.66 601.61 539.38 C 601.36 542.02 599.00 543.61 596.99 544.97 C 594.00 546.88 590.26 548.64 586.70 547.23 C 583.76 546.34 581.81 543.00 582.96 540.04 C 584.43 535.39 587.60 531.48 590.95 528.03 C 596.82 522.34 603.30 517.29 610.13 512.81 C 598.88 510.59 588.53 505.11 577.15 503.42 C 569.90 502.18 562.51 503.00 555.22 502.37 C 548.51 501.58 541.72 500.42 535.57 497.48 C 528.39 494.36 521.57 490.15 513.82 488.56 C 511.29 488.25 508.47 487.51 506.13 488.91 M 552.02 644.06 C 542.92 646.53 533.85 650.51 527.58 657.81 C 528.05 667.40 528.24 677.04 529.85 686.53 C 530.79 691.61 534.03 695.84 537.61 699.41 C 547.64 709.20 559.45 716.87 570.17 725.86 C 572.07 727.21 573.69 729.18 575.97 729.90 C 589.05 731.03 602.36 725.84 611.54 716.51 C 620.75 707.75 625.68 695.13 625.98 682.52 C 622.93 680.78 619.78 679.25 616.67 677.65 C 616.84 680.81 619.18 684.60 617.07 687.44 C 615.83 686.95 614.73 686.20 614.08 685.04 C 611.07 680.48 609.87 675.07 608.65 669.83 C 607.52 664.17 606.23 658.52 605.65 652.77 C 601.14 651.81 596.63 650.87 592.18 649.65 C 585.08 647.74 578.39 644.43 571.09 643.27 C 564.77 642.08 558.23 642.47 552.02 644.06 M 631.92 686.23 C 630.82 699.22 625.36 711.90 616.13 721.18 C 607.08 730.31 594.27 735.22 581.47 735.20 C 584.78 737.62 587.93 740.25 591.03 742.95 C 615.70 764.99 642.45 784.69 665.76 808.25 C 674.15 816.51 681.90 825.52 691.34 832.64 C 692.89 833.79 696.17 835.41 696.74 832.46 C 698.72 825.53 697.23 817.68 701.29 811.34 C 705.50 805.34 712.75 802.45 719.82 801.64 C 712.47 790.91 703.00 781.73 696.61 770.31 C 687.57 756.79 680.92 741.82 671.41 728.60 C 665.93 719.69 659.84 711.01 652.08 703.92 C 645.52 697.85 639.50 691.08 631.92 686.23 M 498.71 723.90 C 483.18 729.08 466.47 727.59 450.72 731.68 C 454.67 746.75 459.10 762.10 467.75 775.23 C 474.72 786.23 486.96 792.54 493.54 803.84 C 501.04 804.87 507.88 800.83 514.05 797.11 C 522.42 791.69 530.08 784.96 535.94 776.84 C 538.36 773.59 539.64 769.68 540.12 765.68 C 536.80 762.74 532.80 760.08 531.23 755.74 C 529.37 750.80 529.54 745.43 528.76 740.28 C 527.67 729.02 525.85 717.84 525.62 706.50 C 517.61 713.57 508.99 720.50 498.71 723.90 M 545.69 770.33 C 543.80 777.05 539.66 782.85 535.05 787.99 C 528.22 795.37 520.15 801.70 511.11 806.16 C 506.71 808.35 501.88 809.71 496.94 809.80 C 499.80 814.60 502.60 819.48 506.26 823.73 C 512.87 831.49 521.03 837.71 528.98 844.03 C 544.12 856.14 559.97 867.48 573.59 881.36 C 578.78 886.18 584.13 890.84 589.01 895.99 C 591.92 898.96 595.04 902.01 599.03 903.45 C 601.78 903.68 604.42 902.59 607.08 902.01 C 614.60 899.93 622.42 901.44 630.06 901.71 C 632.38 901.96 635.39 902.00 636.48 899.46 C 637.77 896.40 639.37 893.34 639.74 890.01 C 638.39 885.62 634.86 882.32 632.32 878.58 C 624.71 868.54 616.44 858.96 609.76 848.23 C 599.63 833.97 591.64 818.19 580.10 804.95 C 569.64 792.46 558.07 780.92 545.69 770.33 M 706.53 813.51 C 701.74 820.08 704.77 829.05 700.97 836.01 C 699.60 838.88 696.17 839.14 693.48 839.92 C 695.15 849.06 703.24 854.46 709.29 860.68 C 715.39 866.35 720.28 873.10 725.63 879.43 C 732.19 886.65 739.30 894.36 749.01 897.08 C 758.30 899.59 768.64 900.71 777.62 896.49 C 782.69 894.11 788.44 890.64 789.42 884.62 C 790.29 877.60 788.09 870.68 785.98 864.08 C 781.48 850.91 774.60 838.28 764.60 828.48 C 753.39 817.83 738.87 811.78 724.77 805.97 C 718.39 807.48 710.92 807.93 706.53 813.51 M 645.08 888.20 C 644.19 893.06 642.50 897.79 639.87 901.98 C 638.44 904.46 635.79 906.09 632.95 906.29 C 626.63 906.75 620.33 905.53 614.01 905.88 C 609.90 906.09 605.97 907.40 602.00 908.37 C 597.89 915.31 600.32 923.49 600.06 931.05 C 600.12 942.69 596.41 953.83 594.51 965.20 C 593.75 969.54 593.96 975.30 598.61 977.40 C 609.00 983.90 621.51 980.40 632.96 981.17 C 637.63 981.05 643.57 982.03 646.95 978.00 C 652.19 968.10 652.10 956.29 657.36 946.37 C 659.71 941.56 663.32 937.50 665.66 932.69 C 670.15 923.22 669.41 911.34 663.17 902.82 C 658.45 896.52 651.33 892.75 645.08 888.20 Z" />
        <path fill="#020202" opacity="1.00"
            d=" M 502.56 186.09 C 516.80 186.14 531.01 185.12 545.24 184.67 C 545.31 188.48 545.60 192.33 545.09 196.13 C 544.25 197.54 542.45 197.21 541.08 197.38 C 529.71 197.80 518.34 198.37 506.96 198.56 C 505.76 198.61 504.59 198.44 503.48 198.04 C 502.65 194.11 502.81 190.07 502.56 186.09 Z" />
        <path fill="#020202" opacity="1.00"
            d=" M 487.22 218.87 C 488.22 217.10 490.22 219.15 491.62 219.27 C 498.16 221.49 505.30 217.86 511.80 219.83 C 511.64 220.29 511.32 221.22 511.16 221.68 C 504.30 224.11 497.17 225.96 489.98 227.14 C 488.50 224.77 486.37 221.61 487.22 218.87 Z" />
        <path fill="#020202" opacity="1.00"
            d=" M 392.40 293.33 C 393.14 291.41 394.78 290.15 396.45 289.08 C 396.02 293.82 394.38 298.34 393.85 303.07 C 392.51 313.80 389.58 324.24 387.49 334.83 C 385.54 344.71 382.61 354.36 380.38 364.17 C 378.55 372.12 376.49 380.03 373.93 387.78 C 373.36 389.75 372.06 391.37 370.67 392.83 C 370.13 387.13 371.97 381.62 373.08 376.11 C 377.18 357.12 381.63 338.20 385.56 319.17 C 387.76 310.54 388.59 301.46 392.40 293.33 Z" />
        <path fill="#020202" opacity="1.00"
            d=" M 647.84 321.18 C 648.34 321.20 649.35 321.24 649.85 321.26 C 652.09 324.11 653.49 327.51 655.31 330.63 C 664.97 348.41 676.58 365.04 688.94 381.03 C 691.24 384.35 694.69 387.42 694.57 391.80 C 690.71 389.66 688.16 385.99 685.14 382.90 C 671.67 369.87 661.11 354.01 652.72 337.32 C 650.68 332.14 647.05 326.97 647.84 321.18 Z" />
        <path fill="#020202" opacity="1.00"
            d=" M 368.18 332.00 C 368.56 330.48 370.19 329.98 371.32 329.17 C 371.11 337.09 370.03 345.25 366.48 352.43 C 364.10 357.25 359.48 361.20 354.05 361.90 C 352.42 361.95 348.80 361.68 350.84 359.36 C 354.43 357.70 358.60 356.39 360.66 352.69 C 364.41 346.31 365.61 338.86 368.18 332.00 Z" />
        <path fill="#020202" opacity="1.00"
            d=" M 469.45 372.36 C 473.66 364.68 474.64 355.24 481.16 348.92 C 481.85 354.74 479.55 360.25 477.88 365.69 C 475.32 373.66 471.14 380.93 467.47 388.42 C 462.32 398.72 457.60 409.23 452.83 419.71 C 449.74 426.45 447.44 433.79 442.35 439.38 C 439.17 442.85 435.86 446.27 432.00 448.97 C 430.48 449.90 427.69 451.67 426.97 448.99 C 429.81 444.88 434.02 441.98 437.14 438.10 C 440.81 434.10 443.13 429.12 445.11 424.12 C 452.39 406.49 460.60 389.26 469.45 372.36 Z" />
        <path fill="#020202" opacity="1.00"
            d=" M 658.46 431.40 C 662.89 419.24 674.02 410.51 685.93 406.34 C 684.68 409.15 682.38 411.22 679.92 412.96 C 673.98 417.23 668.43 422.21 664.37 428.34 C 662.33 431.36 660.97 434.77 658.91 437.77 C 656.41 436.29 657.79 433.50 658.46 431.40 Z" />
        <path fill="#020202" opacity="1.00"
            d=" M 522.24 551.22 C 524.60 548.17 526.48 544.74 529.24 542.01 C 530.73 544.68 528.84 547.24 527.62 549.57 C 520.61 561.83 509.95 571.34 501.38 582.44 C 496.97 588.07 492.24 593.62 489.32 600.22 C 486.72 606.04 485.05 612.21 483.13 618.28 C 479.40 630.53 473.79 642.08 468.66 653.78 C 464.84 662.61 459.86 670.84 455.15 679.21 C 453.24 682.15 451.94 685.71 449.09 687.89 C 446.10 688.18 448.26 684.69 448.75 683.41 C 458.11 666.14 465.27 647.83 473.10 629.85 C 477.26 620.29 479.59 610.06 483.53 600.41 C 487.24 591.21 494.03 583.81 500.30 576.30 C 507.40 567.75 515.64 560.19 522.24 551.22 Z" />
        <path fill="#020202" opacity="1.00"
            d=" M 465.67 569.83 C 468.02 562.99 469.78 555.90 473.05 549.42 C 473.78 553.50 472.57 557.51 471.60 561.44 C 468.54 573.59 464.60 585.51 460.27 597.26 C 456.84 606.17 453.41 615.58 446.36 622.34 C 442.29 626.13 436.73 629.41 430.97 628.14 C 427.04 627.04 422.54 625.32 421.14 621.07 C 425.53 623.52 430.85 626.42 435.90 624.00 C 443.85 620.15 449.00 612.38 452.58 604.59 C 457.67 593.29 461.72 581.56 465.67 569.83 Z" />
    </g>
    <g id="#f0b58bff">
        <path fill="#f0b58b" opacity="1.00"
            d=" M 463.85 157.03 C 464.13 149.21 468.36 142.39 470.53 135.05 C 474.24 139.98 478.40 144.69 483.59 148.10 C 480.71 147.76 477.83 146.91 474.91 147.24 C 473.73 149.42 475.68 151.38 476.93 153.02 C 484.03 160.51 494.94 164.38 505.14 162.16 C 506.74 164.98 509.82 166.39 513.02 165.79 C 522.59 164.72 531.86 161.19 540.05 156.16 C 542.23 154.85 544.49 153.67 546.75 152.50 C 549.69 154.98 552.71 157.49 556.36 158.85 C 556.81 166.12 558.67 173.29 562.37 179.61 C 565.52 185.15 568.68 191.81 574.97 194.28 C 578.40 193.30 577.08 188.86 577.55 186.19 C 579.24 186.24 582.09 187.02 582.38 184.58 C 582.80 177.52 583.17 169.76 587.89 164.05 C 590.04 165.46 592.44 167.20 592.68 170.01 C 593.27 175.89 589.76 181.09 586.78 185.84 C 584.03 190.31 579.75 193.43 576.22 197.21 C 573.07 200.54 571.64 204.98 569.90 209.11 C 565.75 219.37 558.46 227.96 550.98 235.94 C 548.28 239.13 543.62 240.94 542.49 245.23 C 544.48 246.13 546.60 245.44 548.33 244.28 C 558.79 237.52 568.10 228.55 573.53 217.21 C 573.34 225.12 573.35 233.04 573.23 240.97 C 573.13 244.67 573.47 248.57 572.02 252.08 C 569.85 256.69 565.14 259.19 561.78 262.80 C 557.90 266.98 553.95 271.20 551.26 276.28 C 549.49 279.64 547.22 282.91 543.80 284.76 C 533.00 290.79 520.79 296.03 508.16 294.54 C 500.87 292.16 494.13 287.09 490.60 280.17 C 485.79 269.45 485.74 257.09 489.20 245.96 C 492.25 252.90 495.82 260.41 502.63 264.37 C 510.23 268.25 519.01 264.88 525.59 260.51 C 527.10 259.61 527.75 257.91 528.54 256.44 C 522.01 259.17 514.89 263.18 507.67 260.23 C 500.07 256.81 496.92 248.21 494.13 240.96 C 499.09 241.08 504.21 241.35 509.05 240.03 C 510.87 239.67 511.32 237.69 512.18 236.33 C 514.25 235.78 517.32 236.47 518.29 233.99 C 518.05 232.31 516.65 231.61 515.09 231.74 C 506.16 231.70 497.24 232.14 488.34 232.66 C 482.01 224.65 476.97 215.74 472.53 206.57 C 470.77 201.78 469.73 196.76 468.69 191.77 C 474.26 193.57 479.93 195.03 485.62 196.42 C 485.58 202.67 485.08 208.91 485.10 215.16 C 484.91 216.55 485.92 217.58 486.65 218.63 C 488.84 209.94 488.97 200.90 489.74 192.02 C 489.66 189.26 490.30 185.07 486.89 184.06 C 479.96 181.62 472.83 179.78 465.80 177.61 C 464.46 170.85 463.52 163.94 463.85 157.03 M 502.56 186.09 C 502.81 190.07 502.65 194.11 503.48 198.04 C 504.59 198.44 505.76 198.61 506.96 198.56 C 518.34 198.37 529.71 197.80 541.08 197.38 C 542.45 197.21 544.25 197.54 545.09 196.13 C 545.60 192.33 545.31 188.48 545.24 184.67 C 531.01 185.12 516.80 186.14 502.56 186.09 M 487.22 218.87 C 486.37 221.61 488.50 224.77 489.98 227.14 C 497.17 225.96 504.30 224.11 511.16 221.68 C 511.32 221.22 511.64 220.29 511.80 219.83 C 505.30 217.86 498.16 221.49 491.62 219.27 C 490.22 219.15 488.22 217.10 487.22 218.87 Z" />
        <path fill="#f0b58b" opacity="1.00"
            d=" M 303.06 364.00 C 306.76 361.21 310.80 358.92 314.83 356.64 C 328.64 366.28 340.05 379.23 348.54 393.74 C 341.44 396.90 335.12 401.45 328.55 405.54 C 319.59 411.19 311.04 417.45 302.13 423.17 C 295.30 427.60 287.57 430.32 280.44 434.19 C 279.15 430.67 278.01 427.10 276.73 423.59 C 274.73 424.69 274.19 426.91 274.93 428.99 C 276.05 434.68 278.09 440.15 280.59 445.38 C 284.28 453.07 282.97 461.84 284.41 470.01 C 285.34 476.58 289.27 482.47 288.98 489.26 C 282.61 489.49 279.02 483.72 275.81 479.15 C 270.37 471.04 268.59 461.20 264.10 452.62 C 259.26 455.76 260.30 462.09 260.96 466.96 C 262.87 477.97 267.66 489.33 264.10 500.51 C 257.92 498.03 255.30 491.28 253.71 485.32 C 251.35 476.44 250.85 467.16 248.52 458.29 C 246.65 455.36 245.80 459.33 245.69 460.99 C 245.29 469.77 246.87 478.52 248.95 487.02 C 250.67 494.97 253.08 503.77 249.74 511.61 C 247.56 512.55 246.40 510.04 245.28 508.66 C 238.86 498.51 234.23 487.37 229.72 476.27 C 226.87 469.34 230.46 461.96 233.93 455.98 C 239.67 446.52 244.79 436.72 250.13 427.05 C 263.88 403.17 281.10 380.87 303.06 364.00 Z" />
        <path fill="#f0b58b" opacity="1.00"
            d=" M 681.64 427.65 C 686.48 423.75 693.02 422.49 699.10 423.06 C 707.00 424.33 712.79 430.56 717.23 436.77 C 713.71 443.95 710.50 451.29 708.10 458.92 C 704.88 468.42 697.83 475.85 690.54 482.43 C 687.63 485.17 684.33 487.71 682.39 491.28 C 682.14 494.54 683.19 497.73 683.62 500.94 C 685.03 508.74 684.28 517.00 687.56 524.39 C 691.49 533.27 696.60 542.05 697.08 551.97 C 697.38 555.22 695.95 558.23 694.33 560.94 C 692.86 549.79 689.13 539.02 683.95 529.07 C 683.08 527.67 682.24 525.23 680.18 526.51 C 679.87 531.45 682.35 535.96 683.61 540.62 C 685.83 548.21 688.43 556.02 687.72 564.03 C 687.59 566.52 686.01 568.53 684.66 570.50 C 679.91 566.84 678.90 560.48 676.70 555.24 C 674.69 548.13 670.87 541.44 670.60 533.94 C 670.43 531.94 669.72 528.68 667.00 529.66 C 664.73 540.73 663.66 552.05 660.86 563.01 C 660.07 566.30 658.68 569.42 656.78 572.23 C 652.79 559.20 653.71 545.37 653.46 531.92 C 653.67 530.18 652.00 529.25 651.00 528.16 C 649.89 529.28 648.52 530.33 648.16 531.97 C 645.12 541.67 644.19 551.86 641.39 561.61 C 640.59 564.49 639.30 567.22 637.60 569.68 C 631.88 556.22 632.92 541.18 633.07 526.88 C 633.75 524.08 629.49 522.84 628.78 525.66 C 627.42 531.55 629.34 538.36 625.68 543.62 C 624.37 545.48 620.09 547.41 619.60 543.93 C 619.06 535.51 623.04 527.72 624.83 519.66 C 626.29 514.66 626.09 509.16 628.49 504.45 C 631.57 500.61 635.81 497.82 638.79 493.86 C 643.81 487.14 646.93 479.28 651.03 472.02 C 656.05 462.86 661.73 454.09 667.12 445.15 C 671.13 438.70 675.66 432.41 681.64 427.65 Z" />
        <path fill="#f0b58b" opacity="1.00"
            d=" M 552.02 644.06 C 558.23 642.47 564.77 642.08 571.09 643.27 C 578.39 644.43 585.08 647.74 592.18 649.65 C 596.63 650.87 601.14 651.81 605.65 652.77 C 606.23 658.52 607.52 664.17 608.65 669.83 C 609.87 675.07 611.07 680.48 614.08 685.04 C 614.73 686.20 615.83 686.95 617.07 687.44 C 619.18 684.60 616.84 680.81 616.67 677.65 C 619.78 679.25 622.93 680.78 625.98 682.52 C 625.68 695.13 620.75 707.75 611.54 716.51 C 602.36 725.84 589.05 731.03 575.97 729.90 C 573.69 729.18 572.07 727.21 570.17 725.86 C 559.45 716.87 547.64 709.20 537.61 699.41 C 534.03 695.84 530.79 691.61 529.85 686.53 C 528.24 677.04 528.05 667.40 527.58 657.81 C 533.85 650.51 542.92 646.53 552.02 644.06 Z" />
        <path fill="#f0b58b" opacity="1.00"
            d=" M 498.71 723.90 C 508.99 720.50 517.61 713.57 525.62 706.50 C 525.85 717.84 527.67 729.02 528.76 740.28 C 529.54 745.43 529.37 750.80 531.23 755.74 C 532.80 760.08 536.80 762.74 540.12 765.68 C 539.64 769.68 538.36 773.59 535.94 776.84 C 530.08 784.96 522.42 791.69 514.05 797.11 C 507.88 800.83 501.04 804.87 493.54 803.84 C 486.96 792.54 474.72 786.23 467.75 775.23 C 459.10 762.10 454.67 746.75 450.72 731.68 C 466.47 727.59 483.18 729.08 498.71 723.90 Z" />
    </g>
    <g id="#f11b27ff">
        <path fill="var(--shirt-color, grey)" opacity="1.00"
            d=" M 425.86 231.84 C 440.06 226.07 455.33 223.32 469.23 216.79 C 474.13 224.77 481.34 231.22 485.27 239.83 C 486.16 242.18 484.40 244.49 483.89 246.74 C 480.36 257.25 481.09 268.78 484.56 279.20 C 486.61 285.47 490.97 290.86 496.42 294.53 C 500.75 297.50 505.61 300.26 511.02 300.27 C 519.82 300.25 528.61 298.27 536.57 294.51 C 541.20 292.28 546.08 290.33 550.11 287.06 C 554.45 283.48 556.21 277.91 559.68 273.63 C 562.94 269.59 566.46 265.74 570.53 262.50 C 574.40 259.35 577.84 255.13 578.33 249.99 C 578.84 243.85 578.28 237.67 578.09 231.52 C 590.46 241.36 603.01 250.96 615.97 260.02 C 630.14 270.59 644.68 281.67 653.96 297.05 C 659.05 306.07 663.53 315.43 668.25 324.65 C 683.21 352.16 701.60 377.76 714.76 406.25 C 716.65 410.30 718.99 414.18 720.33 418.47 C 721.71 422.98 720.22 427.65 718.87 431.97 C 715.56 427.69 712.34 423.01 707.40 420.46 C 699.40 416.23 689.08 416.51 681.44 421.45 C 672.30 427.31 665.88 436.37 660.56 445.65 C 658.77 449.13 654.40 449.13 651.07 449.95 C 648.13 450.66 644.52 449.89 643.03 447.03 C 639.25 440.00 640.16 431.75 638.80 424.13 C 637.07 413.77 630.03 405.27 628.07 394.96 C 625.82 383.60 626.46 371.89 624.37 360.50 C 622.90 352.78 621.76 344.90 618.94 337.54 C 618.44 337.56 617.44 337.62 616.94 337.64 C 616.47 344.53 618.48 351.27 619.15 358.09 C 621.09 369.77 620.58 381.69 622.33 393.39 C 623.56 402.09 627.55 409.99 631.03 417.95 C 625.96 415.30 620.27 412.97 616.87 408.12 C 613.39 402.58 611.93 396.13 610.02 389.96 C 607.20 380.51 606.85 370.60 605.66 360.88 C 605.57 359.15 604.58 357.70 603.58 356.38 C 600.67 373.14 603.58 390.43 609.94 406.06 C 611.92 410.08 613.74 414.42 613.11 419.02 C 611.84 430.70 607.66 442.16 600.64 451.62 C 597.37 456.10 593.76 460.39 591.39 465.45 C 593.28 464.88 595.15 464.05 596.47 462.52 C 601.44 457.08 606.48 451.58 610.14 445.13 C 615.07 436.49 618.05 426.72 618.67 416.79 C 623.33 420.20 629.48 422.45 631.94 428.10 C 632.33 431.92 630.99 435.63 630.27 439.33 C 628.18 448.33 629.15 457.74 631.25 466.64 C 632.76 473.33 634.79 480.09 634.16 487.03 C 633.58 491.83 630.47 495.87 626.98 499.02 C 623.76 501.88 622.78 506.22 621.55 510.16 C 604.11 508.31 588.75 497.94 571.09 497.16 C 560.81 496.80 550.24 497.17 540.43 493.54 C 531.94 490.28 523.98 485.60 515.05 483.54 C 523.83 479.28 531.72 473.23 540.99 470.00 C 549.10 466.94 558.37 469.20 566.08 464.71 C 560.38 464.50 554.68 464.63 549.00 464.24 C 537.95 463.88 528.36 470.06 519.03 475.13 C 504.66 482.57 490.97 491.30 478.15 501.18 C 469.47 507.93 457.82 507.74 447.47 506.29 C 443.17 505.69 439.13 503.88 435.62 501.35 C 423.05 492.13 412.24 479.71 407.65 464.57 C 401.65 449.09 408.88 433.03 412.84 418.03 C 415.92 408.67 415.72 398.75 417.15 389.11 C 420.27 374.55 426.06 360.67 428.49 345.94 C 431.00 330.98 433.53 316.03 435.96 301.07 C 436.46 298.13 436.64 295.13 436.21 292.18 C 432.23 296.76 432.32 303.19 430.85 308.79 C 427.53 323.11 425.00 337.60 422.71 352.13 C 421.67 343.16 419.84 334.30 417.21 325.66 C 415.58 320.54 415.19 315.18 414.63 309.88 C 410.31 311.71 411.82 317.33 411.88 321.03 C 414.67 337.83 420.32 354.95 416.54 372.07 C 416.22 374.51 413.79 375.70 412.10 377.15 C 403.64 383.19 396.46 390.77 388.34 397.22 C 380.43 403.45 373.06 410.36 366.45 417.95 C 363.02 407.35 357.79 397.45 352.07 387.93 C 347.61 380.60 342.43 373.67 336.31 367.64 C 329.98 361.33 323.38 354.90 315.01 351.38 C 318.59 348.20 321.94 344.77 325.62 341.69 C 338.78 331.08 348.84 317.33 359.22 304.14 C 371.96 287.65 381.36 268.79 394.98 252.96 C 403.26 243.43 414.20 236.49 425.86 231.84 M 392.40 293.33 C 388.59 301.46 387.76 310.54 385.56 319.17 C 381.63 338.20 377.18 357.12 373.08 376.11 C 371.97 381.62 370.13 387.13 370.67 392.83 C 372.06 391.37 373.36 389.75 373.93 387.78 C 376.49 380.03 378.55 372.12 380.38 364.17 C 382.61 354.36 385.54 344.71 387.49 334.83 C 389.58 324.24 392.51 313.80 393.85 303.07 C 394.38 298.34 396.02 293.82 396.45 289.08 C 394.78 290.15 393.14 291.41 392.40 293.33 M 647.84 321.18 C 647.05 326.97 650.68 332.14 652.72 337.32 C 661.11 354.01 671.67 369.87 685.14 382.90 C 688.16 385.99 690.71 389.66 694.57 391.80 C 694.69 387.42 691.24 384.35 688.94 381.03 C 676.58 365.04 664.97 348.41 655.31 330.63 C 653.49 327.51 652.09 324.11 649.85 321.26 C 649.35 321.24 648.34 321.20 647.84 321.18 M 368.18 332.00 C 365.61 338.86 364.41 346.31 360.66 352.69 C 358.60 356.39 354.43 357.70 350.84 359.36 C 348.80 361.68 352.42 361.95 354.05 361.90 C 359.48 361.20 364.10 357.25 366.48 352.43 C 370.03 345.25 371.11 337.09 371.32 329.17 C 370.19 329.98 368.56 330.48 368.18 332.00 M 469.45 372.36 C 460.60 389.26 452.39 406.49 445.11 424.12 C 443.13 429.12 440.81 434.10 437.14 438.10 C 434.02 441.98 429.81 444.88 426.97 448.99 C 427.69 451.67 430.48 449.90 432.00 448.97 C 435.86 446.27 439.17 442.85 442.35 439.38 C 447.44 433.79 449.74 426.45 452.83 419.71 C 457.60 409.23 462.32 398.72 467.47 388.42 C 471.14 380.93 475.32 373.66 477.88 365.69 C 479.55 360.25 481.85 354.74 481.16 348.92 C 474.64 355.24 473.66 364.68 469.45 372.36 M 658.46 431.40 C 657.79 433.50 656.41 436.29 658.91 437.77 C 660.97 434.77 662.33 431.36 664.37 428.34 C 668.43 422.21 673.98 417.23 679.92 412.96 C 682.38 411.22 684.68 409.15 685.93 406.34 C 674.02 410.51 662.89 419.24 658.46 431.40 Z" />
    </g>
    <g id="#ffffffff">
        <path fill="var(--pants-color, grey)" opacity="1.00"
            d=" M 506.13 488.91 C 508.47 487.51 511.29 488.25 513.82 488.56 C 521.57 490.15 528.39 494.36 535.57 497.48 C 541.72 500.42 548.51 501.58 555.22 502.37 C 562.51 503.00 569.90 502.18 577.15 503.42 C 588.53 505.11 598.88 510.59 610.13 512.81 C 603.30 517.29 596.82 522.34 590.95 528.03 C 587.60 531.48 584.43 535.39 582.96 540.04 C 581.81 543.00 583.76 546.34 586.70 547.23 C 590.26 548.64 594.00 546.88 596.99 544.97 C 599.00 543.61 601.36 542.02 601.61 539.38 C 599.08 538.66 597.12 541.01 594.91 541.83 C 592.53 543.25 589.73 543.36 587.16 542.40 C 588.55 537.87 591.24 533.86 594.53 530.50 C 600.54 524.36 607.19 518.89 613.96 513.62 C 616.30 513.88 618.65 514.06 621.02 514.20 C 618.70 524.08 614.59 533.75 614.79 544.04 C 614.91 548.36 618.75 551.65 623.03 551.37 C 622.24 565.46 620.88 579.53 618.67 593.48 C 616.93 607.02 614.53 620.83 616.59 634.45 C 618.09 636.66 619.98 633.98 620.07 632.26 C 620.80 626.97 620.72 621.60 621.30 616.29 C 628.73 628.91 642.65 635.69 650.54 647.92 C 642.14 649.74 633.54 649.67 625.00 649.56 C 616.00 649.26 607.20 647.17 598.43 645.32 C 589.20 643.42 580.61 639.16 571.24 637.86 C 554.21 635.25 536.72 641.87 523.95 653.03 C 521.40 648.64 518.03 644.66 516.36 639.81 C 514.83 635.37 514.37 630.52 515.39 625.92 C 516.20 620.47 519.60 615.68 519.64 610.08 C 519.77 603.84 519.16 597.41 521.13 591.37 C 527.63 570.60 541.51 552.86 557.77 538.74 C 560.09 536.63 562.70 534.63 563.83 531.58 C 560.69 530.73 558.32 533.32 555.94 534.88 C 542.57 544.02 531.66 556.57 523.71 570.61 C 518.57 580.67 513.50 591.46 513.81 603.02 C 513.82 607.23 514.06 611.60 512.41 615.58 C 509.51 623.24 507.93 631.84 510.39 639.84 C 511.93 645.58 515.72 650.26 518.82 655.20 C 520.50 657.88 522.76 660.51 522.72 663.87 C 522.95 675.47 524.31 687.03 526.55 698.41 C 519.32 705.68 511.42 712.50 502.26 717.22 C 486.42 724.69 468.34 721.82 451.69 725.87 C 435.39 729.51 418.25 725.88 403.49 718.56 C 404.52 707.93 404.81 697.16 403.14 686.58 C 401.20 676.40 397.58 666.45 397.47 655.99 C 397.11 645.92 402.35 636.87 403.14 626.96 C 404.57 614.31 401.95 601.68 402.20 589.01 C 402.06 575.87 404.02 562.85 405.49 549.82 C 407.21 537.51 408.16 525.05 411.21 512.96 C 412.87 506.19 415.37 499.68 417.67 493.11 C 426.45 501.69 436.21 511.16 449.14 512.16 C 448.99 522.86 449.94 533.53 450.99 544.17 C 451.79 549.73 451.78 555.79 455.20 560.53 C 456.49 554.73 455.01 548.83 454.76 543.00 C 453.87 532.82 453.94 522.60 453.15 512.42 C 459.64 512.74 466.31 512.54 472.51 510.40 C 479.42 507.96 484.77 502.75 490.75 498.73 C 495.80 495.34 500.84 491.91 506.13 488.91 M 522.24 551.22 C 515.64 560.19 507.40 567.75 500.30 576.30 C 494.03 583.81 487.24 591.21 483.53 600.41 C 479.59 610.06 477.26 620.29 473.10 629.85 C 465.27 647.83 458.11 666.14 448.75 683.41 C 448.26 684.69 446.10 688.18 449.09 687.89 C 451.94 685.71 453.24 682.15 455.15 679.21 C 459.86 670.84 464.84 662.61 468.66 653.78 C 473.79 642.08 479.40 630.53 483.13 618.28 C 485.05 612.21 486.72 606.04 489.32 600.22 C 492.24 593.62 496.97 588.07 501.38 582.44 C 509.95 571.34 520.61 561.83 527.62 549.57 C 528.84 547.24 530.73 544.68 529.24 542.01 C 526.48 544.74 524.60 548.17 522.24 551.22 M 465.67 569.83 C 461.72 581.56 457.67 593.29 452.58 604.59 C 449.00 612.38 443.85 620.15 435.90 624.00 C 430.85 626.42 425.53 623.52 421.14 621.07 C 422.54 625.32 427.04 627.04 430.97 628.14 C 436.73 629.41 442.29 626.13 446.36 622.34 C 453.41 615.58 456.84 606.17 460.27 597.26 C 464.60 585.51 468.54 573.59 471.60 561.44 C 472.57 557.51 473.78 553.50 473.05 549.42 C 469.78 555.90 468.02 562.99 465.67 569.83 Z" />
        <path fill="var(--socks-color, grey)" opacity="1.00"
            d=" M 631.92 686.23 C 639.50 691.08 645.52 697.85 652.08 703.92 C 659.84 711.01 665.93 719.69 671.41 728.60 C 680.92 741.82 687.57 756.79 696.61 770.31 C 703.00 781.73 712.47 790.91 719.82 801.64 C 712.75 802.45 705.50 805.34 701.29 811.34 C 697.23 817.68 698.72 825.53 696.74 832.46 C 696.17 835.41 692.89 833.79 691.34 832.64 C 681.90 825.52 674.15 816.51 665.76 808.25 C 642.45 784.69 615.70 764.99 591.03 742.95 C 587.93 740.25 584.78 737.62 581.47 735.20 C 594.27 735.22 607.08 730.31 616.13 721.18 C 625.36 711.90 630.82 699.22 631.92 686.23 Z" />
        <path fill="var(--socks-color, grey)" opacity="1.00"
            d=" M 545.69 770.33 C 558.07 780.92 569.64 792.46 580.10 804.95 C 591.64 818.19 599.63 833.97 609.76 848.23 C 616.44 858.96 624.71 868.54 632.32 878.58 C 634.86 882.32 638.39 885.62 639.74 890.01 C 639.37 893.34 637.77 896.40 636.48 899.46 C 635.39 902.00 632.38 901.96 630.06 901.71 C 622.42 901.44 614.60 899.93 607.08 902.01 C 604.42 902.59 601.78 903.68 599.03 903.45 C 595.04 902.01 591.92 898.96 589.01 895.99 C 584.13 890.84 578.78 886.18 573.59 881.36 C 559.97 867.48 544.12 856.14 528.98 844.03 C 521.03 837.71 512.87 831.49 506.26 823.73 C 502.60 819.48 499.80 814.60 496.94 809.80 C 501.88 809.71 506.71 808.35 511.11 806.16 C 520.15 801.70 528.22 795.37 535.05 787.99 C 539.66 782.85 543.80 777.05 545.69 770.33 Z" />
    </g>
    <g id="#4d4d4dff">
        <path fill="#4d4d4d" opacity="1.00"
            d=" M 706.53 813.51 C 710.92 807.93 718.39 807.48 724.77 805.97 C 738.87 811.78 753.39 817.83 764.60 828.48 C 774.60 838.28 781.48 850.91 785.98 864.08 C 788.09 870.68 790.29 877.60 789.42 884.62 C 788.44 890.64 782.69 894.11 777.62 896.49 C 768.64 900.71 758.30 899.59 749.01 897.08 C 739.30 894.36 732.19 886.65 725.63 879.43 C 720.28 873.10 715.39 866.35 709.29 860.68 C 703.24 854.46 695.15 849.06 693.48 839.92 C 696.17 839.14 699.60 838.88 700.97 836.01 C 704.77 829.05 701.74 820.08 706.53 813.51 Z" />
        <path fill="#4d4d4d" opacity="1.00"
            d=" M 645.08 888.20 C 651.33 892.75 658.45 896.52 663.17 902.82 C 669.41 911.34 670.15 923.22 665.66 932.69 C 663.32 937.50 659.71 941.56 657.36 946.37 C 652.10 956.29 652.19 968.10 646.95 978.00 C 643.57 982.03 637.63 981.05 632.96 981.17 C 621.51 980.40 609.00 983.90 598.61 977.40 C 593.96 975.30 593.75 969.54 594.51 965.20 C 596.41 953.83 600.12 942.69 600.06 931.05 C 600.32 923.49 597.89 915.31 602.00 908.37 C 605.97 907.40 609.90 906.09 614.01 905.88 C 620.33 905.53 626.63 906.75 632.95 906.29 C 635.79 906.09 638.44 904.46 639.87 901.98 C 642.50 897.79 644.19 893.06 645.08 888.20 Z" />
    </g>
</svg>