<?xml version="1.0" encoding="UTF-8" ?>
<!DOCTYPE svg PUBLIC "-//W3C//DTD SVG 1.1//EN" "http://www.w3.org/Graphics/SVG/1.1/DTD/svg11.dtd">
<svg width="1000pt" height="1000pt" viewBox="0 0 1000 1000" version="1.1" xmlns="http://www.w3.org/2000/svg">
    <g id="#020202ff">
        <path fill="#020202" opacity="1.00"
            d=" M 462.90 22.19 C 472.63 19.61 483.05 19.29 492.89 21.41 C 499.71 23.69 507.14 25.41 512.62 30.37 C 515.64 32.95 517.06 36.75 519.16 40.01 C 521.12 43.04 524.44 44.70 527.30 46.74 C 534.10 51.24 539.42 57.80 542.89 65.15 C 545.58 70.78 545.15 77.15 546.48 83.11 C 547.82 89.97 548.73 96.96 548.52 103.96 C 548.33 107.90 547.35 112.46 543.70 114.65 C 540.94 116.42 537.84 118.62 537.20 122.05 C 536.95 130.78 536.52 139.64 533.97 148.05 C 531.62 155.35 527.86 162.16 523.13 168.19 C 523.47 170.67 523.77 173.14 524.07 175.62 C 529.66 173.72 536.14 173.36 541.32 176.62 C 546.53 179.99 550.75 184.77 556.40 187.50 C 568.52 193.21 581.30 197.42 594.24 200.85 C 609.17 205.00 620.69 216.35 629.54 228.58 C 632.48 232.50 634.65 236.94 636.09 241.62 C 642.94 246.46 646.88 254.07 650.57 261.36 C 659.40 277.97 664.62 296.17 673.04 312.97 C 676.64 319.73 681.34 327.27 679.17 335.25 C 677.69 340.41 671.77 340.98 667.33 341.77 C 664.18 346.45 660.15 350.63 654.99 353.07 C 649.30 355.78 646.17 361.51 641.72 365.69 C 636.44 370.76 631.35 376.02 626.19 381.21 C 628.13 390.73 629.66 400.33 631.67 409.84 C 632.72 418.28 634.91 426.49 637.24 434.65 C 639.45 441.96 639.35 449.65 640.36 457.16 C 641.44 465.23 640.59 473.66 643.76 481.35 C 647.18 490.83 640.51 499.85 635.15 507.10 C 637.33 516.91 637.67 527.01 638.44 537.01 C 638.91 555.80 637.63 574.88 632.07 592.93 C 628.15 606.18 622.50 618.83 618.14 631.93 C 615.22 640.78 611.50 649.33 608.10 658.00 C 606.32 662.42 605.22 667.35 601.87 670.92 C 599.12 673.09 595.82 674.43 592.78 676.13 C 592.94 679.99 592.15 683.80 590.99 687.48 C 594.62 687.93 598.37 689.25 600.39 692.53 C 605.15 699.68 603.36 708.86 600.64 716.44 C 592.61 738.19 584.37 760.42 569.74 778.75 C 567.11 781.89 563.91 784.89 559.87 786.01 C 553.87 787.16 547.08 784.23 544.41 778.59 C 542.29 774.05 542.35 768.90 542.21 764.00 C 538.25 763.62 534.31 762.45 531.56 759.41 C 531.66 808.61 533.44 857.83 531.67 907.03 C 531.71 910.24 531.10 913.94 533.57 916.48 C 542.13 927.39 545.12 941.39 547.09 954.81 C 548.24 963.98 549.12 973.51 546.59 982.54 C 545.12 987.39 540.32 990.06 535.82 991.58 C 523.34 995.80 509.94 995.50 496.95 994.88 C 486.51 994.14 475.68 992.74 466.44 987.49 C 462.52 985.17 458.41 980.95 459.67 976.00 C 461.14 969.86 465.38 964.96 468.93 959.91 C 476.15 950.43 481.55 939.77 486.76 929.10 C 480.99 908.79 478.45 887.78 474.36 867.11 C 472.55 858.42 470.46 849.78 468.99 841.02 C 466.42 824.68 463.18 808.46 461.11 792.05 C 457.74 766.98 452.79 741.48 457.20 716.22 C 460.64 696.20 459.35 675.65 455.75 655.76 C 447.51 654.63 439.39 652.46 431.75 649.16 C 425.32 646.41 419.91 640.23 419.77 633.01 C 419.96 625.68 423.23 618.97 425.45 612.12 C 427.16 606.91 425.13 601.51 423.31 596.64 C 418.16 584.16 414.57 571.09 411.88 557.88 C 410.09 549.01 408.48 539.87 410.15 530.85 C 407.62 527.88 405.45 524.51 404.55 520.67 C 402.45 512.25 403.93 503.54 403.87 494.99 C 403.82 483.66 402.97 472.34 402.03 461.05 C 401.14 448.93 401.72 435.90 408.32 425.30 C 413.14 417.51 418.58 410.11 422.95 402.05 C 417.27 397.11 414.38 389.73 413.25 382.45 C 398.72 394.76 380.16 401.21 365.89 413.89 C 361.21 418.07 362.54 424.98 361.14 430.48 C 359.63 435.05 356.63 438.95 353.71 442.71 C 349.44 447.86 345.67 453.40 341.34 458.50 C 339.62 460.32 337.70 462.38 335.09 462.73 C 332.97 462.66 331.72 460.57 331.06 458.82 C 329.63 454.46 331.36 449.93 332.90 445.85 C 326.44 452.77 320.69 460.32 314.03 467.06 C 311.49 469.69 308.53 471.90 305.19 473.41 C 304.35 472.95 303.52 472.50 302.69 472.06 C 301.08 473.90 298.54 477.91 295.96 475.09 C 293.61 471.46 294.91 466.97 295.76 463.08 C 292.79 462.00 291.40 459.09 291.68 456.04 C 292.08 446.17 295.92 436.85 299.83 427.92 C 304.12 418.27 310.20 409.09 318.74 402.72 C 323.77 398.82 330.36 397.43 334.92 392.88 C 342.61 385.25 350.18 377.50 357.46 369.49 C 363.22 362.78 369.20 356.17 376.05 350.54 C 370.37 346.14 364.00 341.32 362.15 334.00 C 361.40 328.00 362.09 321.90 361.03 315.92 C 358.95 303.39 357.62 290.70 358.15 277.99 C 357.98 265.01 358.63 250.71 367.05 240.09 C 374.56 230.55 386.71 227.10 397.34 222.33 C 408.61 217.14 414.81 205.80 424.22 198.27 C 430.25 193.25 437.42 189.79 444.84 187.36 C 444.24 176.28 445.13 165.14 444.07 154.08 C 438.53 153.36 432.91 156.73 427.56 154.41 C 421.46 151.67 417.86 145.43 415.86 139.32 C 413.70 132.18 412.70 124.12 415.97 117.16 C 414.31 114.99 412.83 112.65 411.98 110.04 C 409.94 104.19 407.33 98.36 407.17 92.07 C 406.66 84.77 409.06 77.71 411.92 71.11 C 409.19 70.33 403.30 69.41 405.32 65.32 C 410.34 58.32 415.62 51.45 420.03 44.01 C 426.08 33.36 436.98 25.91 448.75 22.96 C 453.39 21.65 458.23 23.10 462.90 22.19 M 454.21 71.18 C 453.29 79.71 451.67 89.05 444.99 95.11 C 444.26 103.07 441.91 110.83 438.07 117.85 C 434.99 123.42 433.06 129.50 431.32 135.60 C 429.87 131.59 429.02 127.22 426.29 123.81 C 424.56 121.40 421.78 120.20 419.20 118.97 C 416.05 126.62 417.85 135.43 421.36 142.63 C 423.38 146.46 426.42 150.37 430.91 151.23 C 435.81 151.49 440.81 148.22 445.61 150.49 C 448.36 151.91 448.57 155.38 448.72 158.12 C 449.00 172.68 448.04 187.38 450.68 201.79 C 451.35 207.48 453.39 213.17 452.24 218.92 C 451.26 217.94 449.97 217.09 449.75 215.61 C 448.53 211.29 447.72 206.86 446.54 202.52 C 443.67 207.95 444.12 214.48 447.25 219.69 C 451.89 227.79 458.03 236.18 467.12 239.45 C 479.24 240.67 491.70 237.93 502.55 232.51 C 510.18 226.79 516.60 218.58 518.13 208.96 C 520.13 196.52 520.48 183.90 520.33 171.33 C 515.31 176.18 509.66 180.77 502.82 182.67 C 494.21 184.96 484.60 186.82 476.25 182.63 C 472.91 181.00 467.66 178.61 468.93 174.04 C 472.02 175.09 474.53 177.31 477.59 178.46 C 484.10 181.17 491.37 180.16 498.12 179.07 C 509.03 177.51 517.74 169.43 523.73 160.65 C 528.13 153.42 531.66 145.40 532.62 136.93 C 533.05 121.97 532.76 106.93 530.36 92.12 C 528.80 82.96 526.51 73.15 519.48 66.53 C 512.91 59.97 503.31 58.85 494.71 56.84 C 495.53 58.02 496.36 59.20 497.18 60.40 C 491.90 63.16 485.52 60.79 482.15 56.21 C 473.47 62.23 464.70 68.75 454.21 71.18 M 524.41 179.22 C 524.85 188.51 524.12 197.80 523.08 207.02 C 522.34 213.98 519.65 220.73 515.31 226.24 C 509.22 234.46 499.41 238.68 489.99 241.82 C 481.10 244.13 471.23 245.72 462.36 242.59 C 452.25 236.61 444.16 226.89 440.55 215.67 C 438.47 209.53 440.88 202.78 446.05 199.02 C 445.73 196.52 445.42 194.01 445.12 191.51 C 439.80 193.84 434.60 196.52 429.86 199.89 C 419.18 207.05 413.16 219.50 401.58 225.53 C 390.87 231.12 377.68 233.80 370.20 244.12 C 362.10 255.35 363.16 269.89 363.06 283.00 C 362.55 296.81 366.09 310.31 366.64 324.04 C 367.10 327.95 365.07 332.72 368.12 335.91 C 374.50 343.19 382.60 349.31 392.05 351.88 C 398.52 353.64 405.14 354.85 411.82 355.55 C 407.63 346.08 401.53 337.51 398.12 327.70 C 396.47 321.47 395.67 314.56 397.90 308.39 C 400.37 308.96 399.15 312.13 399.66 313.97 C 399.95 330.60 412.47 343.14 417.71 358.19 C 419.98 365.30 418.27 372.77 418.19 380.03 C 418.15 386.92 421.05 393.32 424.51 399.12 C 429.38 390.17 432.54 380.46 436.12 370.96 C 436.85 368.95 438.06 367.17 439.29 365.45 C 440.77 370.17 438.50 374.77 437.18 379.22 C 433.48 389.78 430.00 400.55 424.14 410.16 C 420.24 416.82 415.53 422.95 411.60 429.58 C 406.25 438.68 405.96 449.69 406.79 459.93 C 408.20 475.57 410.17 491.30 408.96 507.03 C 408.64 513.93 408.73 521.86 413.71 527.26 C 418.70 532.63 426.92 531.96 433.47 530.59 C 445.19 527.27 456.22 521.81 468.12 519.07 C 489.02 514.09 510.72 514.14 532.05 515.39 C 545.49 515.87 558.91 517.00 572.24 518.79 C 583.10 520.20 594.18 521.77 605.07 519.72 C 611.97 518.57 618.28 515.07 623.56 510.57 C 630.81 505.09 638.24 498.33 640.08 489.02 C 640.98 485.75 639.34 482.63 638.30 479.63 C 635.81 473.32 636.41 466.43 635.69 459.82 C 635.09 454.63 634.82 449.41 634.36 444.21 C 633.17 435.29 629.39 426.95 628.07 418.06 C 626.49 406.78 623.74 395.68 623.05 384.29 C 618.47 388.93 613.91 393.58 609.58 398.46 C 599.13 409.73 590.30 422.56 578.60 432.64 C 568.52 441.35 554.97 444.87 541.87 444.91 C 539.96 445.13 538.65 443.64 537.30 442.57 C 533.98 442.64 530.15 443.81 527.18 441.81 C 525.03 440.32 526.31 437.74 526.83 435.77 C 523.07 435.89 519.03 436.29 515.59 434.46 C 513.95 433.68 512.91 431.78 513.57 430.02 C 514.40 428.08 516.42 427.11 518.01 425.88 C 515.79 425.08 512.60 424.63 512.13 421.83 C 511.48 418.28 514.98 416.06 517.74 414.79 C 523.47 412.33 529.36 410.26 535.21 408.10 C 543.47 405.31 550.93 400.54 557.69 395.10 C 549.72 395.34 542.13 399.42 534.08 397.90 C 531.26 397.47 527.92 395.38 528.68 392.07 C 529.83 388.06 534.05 386.26 537.29 384.21 C 542.08 381.67 546.57 378.04 552.07 377.25 C 561.72 377.29 571.48 378.47 581.09 377.00 C 586.41 376.54 589.20 371.46 592.43 367.89 C 577.80 371.33 562.41 369.79 548.00 366.05 C 528.80 360.82 511.19 351.19 494.45 340.64 C 490.57 338.10 486.18 335.87 483.78 331.72 C 485.50 332.43 487.19 333.22 488.80 334.18 C 504.95 344.07 521.90 352.76 539.69 359.30 C 555.10 365.01 571.81 367.79 588.20 365.66 C 590.41 365.21 592.79 364.98 594.78 363.82 C 597.72 360.54 599.28 356.30 601.67 352.63 C 604.34 348.56 606.99 344.48 609.75 340.46 C 606.26 339.14 602.94 337.29 600.33 334.58 C 592.40 326.75 587.71 316.36 583.81 306.09 C 581.63 299.89 578.98 293.61 579.22 286.91 C 587.23 304.18 592.22 324.58 608.32 336.45 C 602.70 325.50 601.44 313.02 600.69 300.92 C 600.74 297.94 600.04 294.27 602.74 292.18 C 604.22 307.33 604.96 323.15 612.12 336.93 C 616.10 332.52 620.50 328.31 625.97 325.81 C 633.66 322.07 642.43 321.70 650.82 322.22 C 660.12 323.04 669.84 326.42 675.62 334.17 C 675.92 328.66 674.01 323.40 671.24 318.74 C 661.42 301.62 656.43 282.30 647.12 264.94 C 644.74 260.38 642.42 255.76 639.41 251.59 C 635.79 246.41 630.25 242.88 624.49 240.53 C 621.25 239.15 617.36 238.74 615.05 235.79 C 620.01 234.37 625.03 236.05 629.65 237.83 C 620.64 224.69 609.58 211.28 593.80 206.37 C 585.00 203.89 576.11 201.66 567.56 198.39 C 560.83 195.69 553.72 193.58 547.90 189.10 C 544.19 186.51 541.27 182.93 537.43 180.54 C 533.48 178.21 528.75 178.75 524.41 179.22 M 622.43 333.47 C 615.36 338.65 611.88 346.92 606.73 353.72 C 599.79 362.78 594.05 372.96 585.69 380.80 C 575.17 384.44 563.76 381.82 552.90 381.76 C 550.24 381.93 547.98 383.53 545.70 384.75 C 541.31 387.38 536.65 389.61 532.57 392.74 C 541.47 395.52 550.07 389.78 558.99 391.01 C 560.96 391.16 562.93 392.88 562.50 395.01 C 562.01 397.32 560.09 398.93 558.36 400.36 C 551.47 405.48 544.15 410.21 535.90 412.81 C 529.38 415.58 522.47 417.56 516.33 421.17 C 520.76 422.14 525.54 422.47 529.87 420.89 C 538.51 417.69 546.78 413.50 554.60 408.62 C 557.04 407.06 559.70 405.74 562.65 405.52 C 561.75 408.51 558.96 410.04 556.58 411.69 C 551.77 414.88 547.22 418.49 542.03 421.07 C 534.95 424.77 527.09 426.72 520.05 430.50 C 520.06 430.75 520.08 431.25 520.09 431.51 C 526.75 432.92 534.07 432.43 540.15 429.19 C 548.89 425.29 556.93 420.08 565.05 415.07 C 566.36 414.14 570.49 412.92 568.87 415.91 C 564.61 420.06 559.33 423.02 554.54 426.51 C 546.97 431.83 537.97 434.44 530.06 439.12 C 538.93 439.62 547.33 435.88 555.12 432.08 C 561.62 428.94 566.94 423.78 573.57 420.91 C 566.98 430.59 555.93 435.66 545.83 440.87 C 555.17 440.01 564.66 437.96 572.43 432.43 C 583.84 424.22 591.97 412.51 601.12 402.04 C 613.36 387.71 626.84 374.53 639.94 361.00 C 643.56 356.97 646.60 352.13 651.59 349.61 C 656.08 347.42 660.42 344.54 663.26 340.34 C 664.51 337.62 664.88 334.61 665.61 331.74 C 660.36 329.46 654.81 327.70 649.06 327.43 C 639.92 326.88 629.91 327.59 622.43 333.47 M 668.17 333.30 C 668.02 334.93 667.87 336.55 667.74 338.18 C 669.07 337.86 670.40 337.53 671.74 337.21 C 670.55 335.89 669.37 334.59 668.17 333.30 M 378.47 352.13 C 374.16 357.24 369.08 361.63 364.72 366.70 C 356.16 376.80 346.80 386.17 337.41 395.49 C 334.47 398.41 330.69 400.20 326.98 401.93 C 314.65 407.62 306.83 419.78 301.88 431.97 C 298.36 440.68 294.37 449.87 295.41 459.48 C 298.57 454.98 300.54 449.81 302.87 444.86 C 305.60 439.19 306.94 432.61 311.69 428.16 C 310.60 431.77 309.15 435.26 308.11 438.89 C 304.77 449.62 299.47 459.92 298.39 471.23 C 300.80 467.94 302.85 464.40 304.85 460.84 C 309.31 452.83 314.32 445.12 319.76 437.74 C 322.28 434.83 324.57 431.47 327.95 429.51 L 329.64 429.67 C 328.10 433.49 324.83 436.19 322.63 439.60 C 316.87 448.23 311.06 456.86 306.17 466.03 C 305.43 467.42 305.00 468.93 304.55 470.43 C 310.38 466.76 314.63 461.21 319.04 456.03 C 323.88 449.95 329.38 444.45 334.71 438.81 C 336.39 437.13 337.96 435.27 340.00 434.02 C 342.18 433.62 342.53 436.22 341.52 437.62 C 338.29 444.54 331.95 451.61 334.92 459.77 C 339.17 456.67 342.01 452.18 345.18 448.06 C 348.79 443.01 353.09 438.44 356.16 433.02 C 359.06 428.40 358.03 422.67 359.72 417.66 C 361.24 412.12 366.52 409.03 370.83 405.82 C 384.49 395.91 400.40 389.31 413.08 378.04 C 413.70 371.96 414.15 365.83 413.29 359.76 C 401.38 359.71 389.04 357.94 378.47 352.13 M 619.30 520.25 C 609.59 525.90 597.96 526.86 586.98 525.87 C 575.23 524.77 563.58 522.80 551.84 521.62 C 554.09 532.63 560.86 541.84 567.07 550.93 C 572.42 558.79 579.16 565.53 585.69 572.39 C 588.07 575.10 591.30 577.63 591.35 581.59 C 589.59 581.30 587.78 580.92 586.51 579.58 C 581.23 574.84 576.08 569.96 571.16 564.84 C 563.63 557.02 557.92 547.64 553.13 537.95 C 550.51 532.70 548.80 527.03 548.20 521.19 C 523.36 519.46 498.10 517.95 473.51 522.84 C 460.96 525.36 449.26 530.68 437.14 534.61 C 429.39 537.02 420.56 537.30 413.38 533.03 C 413.06 550.10 417.88 566.76 422.88 582.93 C 425.15 590.19 428.82 596.95 430.61 604.38 C 436.69 591.75 445.75 581.01 453.67 569.56 C 454.35 568.67 455.16 567.94 456.12 567.36 C 458.36 570.83 454.71 574.25 453.25 577.27 C 444.04 591.95 434.65 606.61 427.21 622.29 C 425.26 627.08 422.77 632.75 425.32 637.78 C 426.81 641.13 429.83 643.37 432.93 645.14 C 438.28 634.87 446.98 626.52 457.23 621.20 C 468.78 614.75 481.74 610.72 495.00 610.20 C 508.31 610.26 521.47 613.84 533.41 619.61 C 534.08 607.42 535.34 595.19 534.95 582.99 C 532.11 575.04 527.27 567.66 520.76 562.23 C 517.25 558.95 512.77 555.98 511.75 550.95 C 515.49 553.62 518.71 556.94 522.42 559.65 C 526.99 563.05 531.34 566.85 534.30 571.79 C 533.05 564.44 530.73 557.02 525.71 551.33 C 521.09 545.89 513.70 544.16 508.59 539.31 C 507.35 538.28 507.15 536.57 506.66 535.17 C 511.60 537.60 516.12 540.81 521.18 543.05 C 529.06 546.56 533.92 554.40 536.80 562.21 C 541.13 575.02 540.41 588.79 539.50 602.08 C 540.29 616.46 546.90 629.57 552.42 642.61 C 553.96 646.45 556.64 649.76 557.71 653.80 C 556.44 652.90 555.15 652.07 554.22 650.83 C 546.26 640.83 541.40 628.74 538.09 616.50 C 537.81 619.41 537.35 622.30 536.73 625.17 C 535.52 625.00 534.33 624.81 533.14 624.61 C 532.32 637.70 531.53 650.87 533.04 663.94 C 539.87 668.36 546.81 673.27 555.00 674.68 C 569.80 677.57 585.50 674.78 598.70 667.61 C 601.61 664.63 601.96 660.12 603.53 656.40 C 607.07 647.03 611.00 637.81 614.10 628.27 C 618.47 615.33 624.06 602.81 627.80 589.65 C 632.56 573.55 633.75 556.66 633.82 539.95 C 633.38 530.11 632.67 520.29 632.09 510.47 C 627.94 513.86 624.02 517.63 619.30 520.25 M 452.41 629.92 C 460.39 648.17 462.71 668.24 463.69 687.96 C 464.34 698.04 462.97 708.11 461.61 718.08 C 473.35 728.58 489.38 734.00 505.07 732.91 C 514.05 732.12 522.14 726.94 527.44 719.85 C 530.81 702.10 529.43 683.89 528.67 665.95 C 527.17 651.68 527.87 637.33 529.05 623.07 C 517.90 618.70 506.19 615.10 494.09 615.35 C 479.16 616.15 464.78 621.67 452.41 629.92 M 435.93 646.40 C 442.18 648.75 448.60 650.56 455.05 652.26 C 453.72 645.47 451.29 638.98 449.07 632.46 C 444.14 636.57 440.24 641.68 435.93 646.40 M 533.36 669.29 C 533.93 682.84 534.87 696.47 533.34 709.99 C 532.71 715.99 531.01 721.90 531.49 727.99 C 532.00 735.01 531.96 742.05 531.88 749.10 C 531.64 752.72 533.62 756.31 536.50 758.41 C 541.38 760.48 546.77 758.80 551.57 757.32 C 559.85 754.12 564.65 746.07 568.68 738.65 C 578.52 719.51 582.72 698.22 588.86 677.76 C 576.78 682.18 563.34 682.75 550.97 679.17 C 544.43 677.26 538.82 673.21 533.36 669.29 M 590.03 691.43 C 584.00 711.72 579.06 733.03 566.61 750.57 C 561.73 757.58 554.03 762.27 545.62 763.60 C 546.14 767.82 546.29 772.20 547.94 776.18 C 549.77 780.53 555.17 782.92 559.64 781.55 C 564.06 779.56 566.90 775.39 569.63 771.58 C 577.29 760.36 583.71 748.27 588.55 735.57 C 591.60 727.55 595.02 719.66 597.48 711.43 C 598.89 706.23 599.76 700.16 596.73 695.37 C 595.32 692.96 592.44 692.34 590.03 691.43 M 460.91 723.07 C 459.22 737.36 460.36 751.79 462.16 766.02 C 464.78 787.12 467.66 808.21 471.39 829.15 C 473.07 840.81 475.35 852.37 477.90 863.87 C 481.99 884.53 484.34 905.51 488.96 926.06 C 492.90 921.57 497.48 917.65 502.61 914.59 C 510.37 909.94 520.26 908.09 528.77 911.86 C 527.33 891.27 528.60 870.60 528.18 849.98 C 527.64 825.66 527.58 801.32 527.21 777.00 C 526.83 759.85 528.01 742.70 527.15 725.56 C 521.53 733.68 511.63 737.59 502.01 737.80 C 487.19 737.68 472.25 732.75 460.91 723.07 M 514.45 915.49 C 504.94 917.65 496.56 924.05 491.11 932.02 C 487.05 939.91 483.58 948.15 478.44 955.45 C 474.04 962.29 467.82 967.89 464.10 975.18 C 462.16 979.24 466.49 982.59 469.69 984.22 C 480.89 989.70 493.67 990.73 505.97 990.69 C 516.29 990.57 526.93 990.35 536.69 986.62 C 539.25 985.48 542.34 983.97 542.92 980.93 C 545.01 970.47 543.65 959.68 541.78 949.29 C 539.66 937.97 536.10 926.41 528.40 917.58 C 525.04 913.32 519.04 914.78 514.45 915.49 Z" />
        <path fill="#020202" opacity="1.00"
            d=" M 501.68 94.00 C 509.06 92.33 516.58 91.19 524.08 90.12 C 526.43 89.43 526.55 92.34 527.00 93.86 C 527.30 95.86 528.05 97.97 527.35 99.97 C 519.14 102.19 510.56 102.90 502.17 104.33 C 501.92 109.15 502.73 114.12 501.25 118.81 C 499.29 112.74 499.41 106.24 499.23 99.93 C 499.43 97.83 498.71 94.27 501.68 94.00 Z" />
        <path fill="#020202" opacity="1.00"
            d=" M 456.53 101.38 C 455.39 98.17 456.65 94.66 456.82 91.35 C 466.64 91.50 476.51 91.82 486.28 92.75 C 488.23 95.50 486.99 99.46 486.50 102.59 C 482.75 103.65 478.79 102.73 474.97 102.75 C 468.83 102.28 462.59 102.54 456.53 101.38 Z" />
        <path fill="#020202" opacity="1.00"
            d=" M 498.40 126.79 C 499.53 125.30 500.50 123.69 501.59 122.16 C 502.26 126.96 502.48 131.81 502.85 136.64 C 496.17 133.05 489.48 129.43 483.19 125.19 C 483.23 124.88 483.32 124.24 483.36 123.92 C 488.54 123.81 493.24 126.90 498.40 126.79 Z" />
        <path fill="#020202" opacity="1.00"
            d=" M 477.44 142.61 C 479.83 141.69 482.43 141.66 484.95 141.51 C 493.61 141.18 502.28 140.98 510.95 140.82 C 512.74 140.93 514.80 140.59 516.33 141.78 C 517.42 143.31 515.48 144.44 514.79 145.65 C 514.66 147.82 514.71 151.02 511.90 151.43 C 503.33 152.46 494.64 152.88 486.01 152.68 C 482.36 152.86 480.50 149.55 480.30 146.33 C 478.64 145.57 476.28 144.87 477.44 142.61 Z" />
        <path fill="#020202" opacity="1.00"
            d=" M 459.11 287.92 C 461.04 286.97 463.21 286.77 465.15 287.87 C 487.64 298.60 506.76 315.29 529.66 325.25 C 541.45 329.88 553.68 333.28 565.53 337.72 C 567.05 338.34 568.38 339.29 569.75 340.20 C 565.55 341.83 561.33 339.84 557.28 338.76 C 546.24 335.31 534.87 332.65 524.37 327.70 C 501.33 316.60 481.84 299.56 459.11 287.92 Z" />
        <path fill="#020202" opacity="1.00"
            d=" M 451.68 474.74 C 456.55 472.98 461.83 472.94 466.95 472.77 C 481.04 472.54 494.98 474.97 508.90 476.76 C 525.57 478.87 541.42 484.75 556.84 491.18 C 571.97 496.82 586.85 503.77 602.98 506.07 C 609.53 507.10 616.12 505.99 622.69 505.78 C 619.14 510.13 613.07 510.21 607.93 510.60 C 593.40 510.77 579.38 506.14 565.95 501.05 C 551.76 496.08 538.25 489.20 523.58 485.65 C 510.06 482.24 496.18 480.64 482.44 478.34 C 471.02 476.39 459.18 475.58 447.84 478.48 C 448.92 477.07 449.85 475.28 451.68 474.74 Z" />
    </g>
    <g id="#f0b58bff">
        <path fill="#f0b58b" opacity="1.00"
            d=" M 454.21 71.18 C 464.70 68.75 473.47 62.23 482.15 56.21 C 485.52 60.79 491.90 63.16 497.18 60.40 C 496.36 59.20 495.53 58.02 494.71 56.84 C 503.31 58.85 512.91 59.97 519.48 66.53 C 526.51 73.15 528.80 82.96 530.36 92.12 C 532.76 106.93 533.05 121.97 532.62 136.93 C 531.66 145.40 528.13 153.42 523.73 160.65 C 517.74 169.43 509.03 177.51 498.12 179.07 C 491.37 180.16 484.10 181.17 477.59 178.46 C 474.53 177.31 472.02 175.09 468.93 174.04 C 467.66 178.61 472.91 181.00 476.25 182.63 C 484.60 186.82 494.21 184.96 502.82 182.67 C 509.66 180.77 515.31 176.18 520.33 171.33 C 520.48 183.90 520.13 196.52 518.13 208.96 C 516.60 218.58 510.18 226.79 502.55 232.51 C 491.70 237.93 479.24 240.67 467.12 239.45 C 458.03 236.18 451.89 227.79 447.25 219.69 C 444.12 214.48 443.67 207.95 446.54 202.52 C 447.72 206.86 448.53 211.29 449.75 215.61 C 449.97 217.09 451.26 217.94 452.24 218.92 C 453.39 213.17 451.35 207.48 450.68 201.79 C 448.04 187.38 449.00 172.68 448.72 158.12 C 448.57 155.38 448.36 151.91 445.61 150.49 C 440.81 148.22 435.81 151.49 430.91 151.23 C 426.42 150.37 423.38 146.46 421.36 142.63 C 417.85 135.43 416.05 126.62 419.20 118.97 C 421.78 120.20 424.56 121.40 426.29 123.81 C 429.02 127.22 429.87 131.59 431.32 135.60 C 433.06 129.50 434.99 123.42 438.07 117.85 C 441.91 110.83 444.26 103.07 444.99 95.11 C 451.67 89.05 453.29 79.71 454.21 71.18 M 501.68 94.00 C 498.71 94.27 499.43 97.83 499.23 99.93 C 499.41 106.24 499.29 112.74 501.25 118.81 C 502.73 114.12 501.92 109.15 502.17 104.33 C 510.56 102.90 519.14 102.19 527.35 99.97 C 528.05 97.97 527.30 95.86 527.00 93.86 C 526.55 92.34 526.43 89.43 524.08 90.12 C 516.58 91.19 509.06 92.33 501.68 94.00 M 456.53 101.38 C 462.59 102.54 468.83 102.28 474.97 102.75 C 478.79 102.73 482.75 103.65 486.50 102.59 C 486.99 99.46 488.23 95.50 486.28 92.75 C 476.51 91.82 466.64 91.50 456.82 91.35 C 456.65 94.66 455.39 98.17 456.53 101.38 M 498.40 126.79 C 493.24 126.90 488.54 123.81 483.36 123.92 C 483.32 124.24 483.23 124.88 483.19 125.19 C 489.48 129.43 496.17 133.05 502.85 136.64 C 502.48 131.81 502.26 126.96 501.59 122.16 C 500.50 123.69 499.53 125.30 498.40 126.79 M 477.44 142.61 C 476.28 144.87 478.64 145.57 480.30 146.33 C 480.50 149.55 482.36 152.86 486.01 152.68 C 494.64 152.88 503.33 152.46 511.90 151.43 C 514.71 151.02 514.66 147.82 514.79 145.65 C 515.48 144.44 517.42 143.31 516.33 141.78 C 514.80 140.59 512.74 140.93 510.95 140.82 C 502.28 140.98 493.61 141.18 484.95 141.51 C 482.43 141.66 479.83 141.69 477.44 142.61 Z" />
        <path fill="#f0b58b" opacity="1.00"
            d=" M 622.43 333.47 C 629.91 327.59 639.92 326.88 649.06 327.43 C 654.81 327.70 660.36 329.46 665.61 331.74 C 664.88 334.61 664.51 337.62 663.26 340.34 C 660.42 344.54 656.08 347.42 651.59 349.61 C 646.60 352.13 643.56 356.97 639.94 361.00 C 626.84 374.53 613.36 387.71 601.12 402.04 C 591.97 412.51 583.84 424.22 572.43 432.43 C 564.66 437.96 555.17 440.01 545.83 440.87 C 555.93 435.66 566.98 430.59 573.57 420.91 C 566.94 423.78 561.62 428.94 555.12 432.08 C 547.33 435.88 538.93 439.62 530.06 439.12 C 537.97 434.44 546.97 431.83 554.54 426.51 C 559.33 423.02 564.61 420.06 568.87 415.91 C 570.49 412.92 566.36 414.14 565.05 415.07 C 556.93 420.08 548.89 425.29 540.15 429.19 C 534.07 432.43 526.75 432.92 520.09 431.51 C 520.08 431.25 520.06 430.75 520.05 430.50 C 527.09 426.72 534.95 424.77 542.03 421.07 C 547.22 418.49 551.77 414.88 556.58 411.69 C 558.96 410.04 561.75 408.51 562.65 405.52 C 559.70 405.74 557.04 407.06 554.60 408.62 C 546.78 413.50 538.51 417.69 529.87 420.89 C 525.54 422.47 520.76 422.14 516.33 421.17 C 522.47 417.56 529.38 415.58 535.90 412.81 C 544.15 410.21 551.47 405.48 558.36 400.36 C 560.09 398.93 562.01 397.32 562.50 395.01 C 562.93 392.88 560.96 391.16 558.99 391.01 C 550.07 389.78 541.47 395.52 532.57 392.74 C 536.65 389.61 541.31 387.38 545.70 384.75 C 547.98 383.53 550.24 381.93 552.90 381.76 C 563.76 381.82 575.17 384.44 585.69 380.80 C 594.05 372.96 599.79 362.78 606.73 353.72 C 611.88 346.92 615.36 338.65 622.43 333.47 Z" />
        <path fill="#f0b58b" opacity="1.00"
            d=" M 378.47 352.13 C 389.04 357.94 401.38 359.71 413.29 359.76 C 414.15 365.83 413.70 371.96 413.08 378.04 C 400.40 389.31 384.49 395.91 370.83 405.82 C 366.52 409.03 361.24 412.12 359.72 417.66 C 358.03 422.67 359.06 428.40 356.16 433.02 C 353.09 438.44 348.79 443.01 345.18 448.06 C 342.01 452.18 339.17 456.67 334.92 459.77 C 331.95 451.61 338.29 444.54 341.52 437.62 C 342.53 436.22 342.18 433.62 340.00 434.02 C 337.96 435.27 336.39 437.13 334.71 438.81 C 329.38 444.45 323.88 449.95 319.04 456.03 C 314.63 461.21 310.38 466.76 304.55 470.43 C 305.00 468.93 305.43 467.42 306.17 466.03 C 311.06 456.86 316.87 448.23 322.63 439.60 C 324.83 436.19 328.10 433.49 329.64 429.67 L 327.95 429.51 C 324.57 431.47 322.28 434.83 319.76 437.74 C 314.32 445.12 309.31 452.83 304.85 460.84 C 302.85 464.40 300.80 467.94 298.39 471.23 C 299.47 459.92 304.77 449.62 308.11 438.89 C 309.15 435.26 310.60 431.77 311.69 428.16 C 306.94 432.61 305.60 439.19 302.87 444.86 C 300.54 449.81 298.57 454.98 295.41 459.48 C 294.37 449.87 298.36 440.68 301.88 431.97 C 306.83 419.78 314.65 407.62 326.98 401.93 C 330.69 400.20 334.47 398.41 337.41 395.49 C 346.80 386.17 356.16 376.80 364.72 366.70 C 369.08 361.63 374.16 357.24 378.47 352.13 Z" />
        <path fill="#f0b58b" opacity="1.00"
            d=" M 452.41 629.92 C 464.78 621.67 479.16 616.15 494.09 615.35 C 506.19 615.10 517.90 618.70 529.05 623.07 C 527.87 637.33 527.17 651.68 528.67 665.95 C 529.43 683.89 530.81 702.10 527.44 719.85 C 522.14 726.94 514.05 732.12 505.07 732.91 C 489.38 734.00 473.35 728.58 461.61 718.08 C 462.97 708.11 464.34 698.04 463.69 687.96 C 462.71 668.24 460.39 648.17 452.41 629.92 Z" />
        <path fill="#f0b58b" opacity="1.00"
            d=" M 533.36 669.29 C 538.82 673.21 544.43 677.26 550.97 679.17 C 563.34 682.75 576.78 682.18 588.86 677.76 C 582.72 698.22 578.52 719.51 568.68 738.65 C 564.65 746.07 559.85 754.12 551.57 757.32 C 546.77 758.80 541.38 760.48 536.50 758.41 C 533.62 756.31 531.64 752.72 531.88 749.10 C 531.96 742.05 532.00 735.01 531.49 727.99 C 531.01 721.90 532.71 715.99 533.34 709.99 C 534.87 696.47 533.93 682.84 533.36 669.29 Z" />
    </g>
    <g id="#f11b27ff">
        <path fill="var(--shirt-color, grey)" opacity="1.00"
            d=" M 524.41 179.22 C 528.75 178.75 533.48 178.21 537.43 180.54 C 541.27 182.93 544.19 186.51 547.90 189.10 C 553.72 193.58 560.83 195.69 567.56 198.39 C 576.11 201.66 585.00 203.89 593.80 206.37 C 609.58 211.28 620.64 224.69 629.65 237.83 C 625.03 236.05 620.01 234.37 615.05 235.79 C 617.36 238.74 621.25 239.15 624.49 240.53 C 630.25 242.88 635.79 246.41 639.41 251.59 C 642.42 255.76 644.74 260.38 647.12 264.94 C 656.43 282.30 661.42 301.62 671.24 318.74 C 674.01 323.40 675.92 328.66 675.62 334.17 C 669.84 326.42 660.12 323.04 650.82 322.22 C 642.43 321.70 633.66 322.07 625.97 325.81 C 620.50 328.31 616.10 332.52 612.12 336.93 C 604.96 323.15 604.22 307.33 602.74 292.18 C 600.04 294.27 600.74 297.94 600.69 300.92 C 601.44 313.02 602.70 325.50 608.32 336.45 C 592.22 324.58 587.23 304.18 579.22 286.91 C 578.98 293.61 581.63 299.89 583.81 306.09 C 587.71 316.36 592.40 326.75 600.33 334.58 C 602.94 337.29 606.26 339.14 609.75 340.46 C 606.99 344.48 604.34 348.56 601.67 352.63 C 599.28 356.30 597.72 360.54 594.78 363.82 C 592.79 364.98 590.41 365.21 588.20 365.66 C 571.81 367.79 555.10 365.01 539.69 359.30 C 521.90 352.76 504.95 344.07 488.80 334.18 C 487.19 333.22 485.50 332.43 483.78 331.72 C 486.18 335.87 490.57 338.10 494.45 340.64 C 511.19 351.19 528.80 360.82 548.00 366.05 C 562.41 369.79 577.80 371.33 592.43 367.89 C 589.20 371.46 586.41 376.54 581.09 377.00 C 571.48 378.47 561.72 377.29 552.07 377.25 C 546.57 378.04 542.08 381.67 537.29 384.21 C 534.05 386.26 529.83 388.06 528.68 392.07 C 527.92 395.38 531.26 397.47 534.08 397.90 C 542.13 399.42 549.72 395.34 557.69 395.10 C 550.93 400.54 543.47 405.31 535.21 408.10 C 529.36 410.26 523.47 412.33 517.74 414.79 C 514.98 416.06 511.48 418.28 512.13 421.83 C 512.60 424.63 515.79 425.08 518.01 425.88 C 516.42 427.11 514.40 428.08 513.57 430.02 C 512.91 431.78 513.95 433.68 515.59 434.46 C 519.03 436.29 523.07 435.89 526.83 435.77 C 526.31 437.74 525.03 440.32 527.18 441.81 C 530.15 443.81 533.98 442.64 537.30 442.57 C 538.65 443.64 539.96 445.13 541.87 444.91 C 554.97 444.87 568.52 441.35 578.60 432.64 C 590.30 422.56 599.13 409.73 609.58 398.46 C 613.91 393.58 618.47 388.93 623.05 384.29 C 623.74 395.68 626.49 406.78 628.07 418.06 C 629.39 426.95 633.17 435.29 634.36 444.21 C 634.82 449.41 635.09 454.63 635.69 459.82 C 636.41 466.43 635.81 473.32 638.30 479.63 C 639.34 482.63 640.98 485.75 640.08 489.02 C 638.24 498.33 630.81 505.09 623.56 510.57 C 618.28 515.07 611.97 518.57 605.07 519.72 C 594.18 521.77 583.10 520.20 572.24 518.79 C 558.91 517.00 545.49 515.87 532.05 515.39 C 510.72 514.14 489.02 514.09 468.12 519.07 C 456.22 521.81 445.19 527.27 433.47 530.59 C 426.92 531.96 418.70 532.63 413.71 527.26 C 408.73 521.86 408.64 513.93 408.96 507.03 C 410.17 491.30 408.20 475.57 406.79 459.93 C 405.96 449.69 406.25 438.68 411.60 429.58 C 415.53 422.95 420.24 416.82 424.14 410.16 C 430.00 400.55 433.48 389.78 437.18 379.22 C 438.50 374.77 440.77 370.17 439.29 365.45 C 438.06 367.17 436.85 368.95 436.12 370.96 C 432.54 380.46 429.38 390.17 424.51 399.12 C 421.05 393.32 418.15 386.92 418.19 380.03 C 418.27 372.77 419.98 365.30 417.71 358.19 C 412.47 343.14 399.95 330.60 399.66 313.97 C 399.15 312.13 400.37 308.96 397.90 308.39 C 395.67 314.56 396.47 321.47 398.12 327.70 C 401.53 337.51 407.63 346.08 411.82 355.55 C 405.14 354.85 398.52 353.64 392.05 351.88 C 382.60 349.31 374.50 343.19 368.12 335.91 C 365.07 332.72 367.10 327.95 366.64 324.04 C 366.09 310.31 362.55 296.81 363.06 283.00 C 363.16 269.89 362.10 255.35 370.20 244.12 C 377.68 233.80 390.87 231.12 401.58 225.53 C 413.16 219.50 419.18 207.05 429.86 199.89 C 434.60 196.52 439.80 193.84 445.12 191.51 C 445.42 194.01 445.73 196.52 446.05 199.02 C 440.88 202.78 438.47 209.53 440.55 215.67 C 444.16 226.89 452.25 236.61 462.36 242.59 C 471.23 245.72 481.10 244.13 489.99 241.82 C 499.41 238.68 509.22 234.46 515.31 226.24 C 519.65 220.73 522.34 213.98 523.08 207.02 C 524.12 197.80 524.85 188.51 524.41 179.22 M 459.11 287.92 C 481.84 299.56 501.33 316.60 524.37 327.70 C 534.87 332.65 546.24 335.31 557.28 338.76 C 561.33 339.84 565.55 341.83 569.75 340.20 C 568.38 339.29 567.05 338.34 565.53 337.72 C 553.68 333.28 541.45 329.88 529.66 325.25 C 506.76 315.29 487.64 298.60 465.15 287.87 C 463.21 286.77 461.04 286.97 459.11 287.92 M 451.68 474.74 C 449.85 475.28 448.92 477.07 447.84 478.48 C 459.18 475.58 471.02 476.39 482.44 478.34 C 496.18 480.64 510.06 482.24 523.58 485.65 C 538.25 489.20 551.76 496.08 565.95 501.05 C 579.38 506.14 593.40 510.77 607.93 510.60 C 613.07 510.21 619.14 510.13 622.69 505.78 C 616.12 505.99 609.53 507.10 602.98 506.07 C 586.85 503.77 571.97 496.82 556.84 491.18 C 541.42 484.75 525.57 478.87 508.90 476.76 C 494.98 474.97 481.04 472.54 466.95 472.77 C 461.83 472.94 456.55 472.98 451.68 474.74 Z" />
    </g>
    <g id="#cd1722ff">
        <path fill="#cd1722" opacity="1.00"
            d=" M 668.17 333.30 C 669.37 334.59 670.55 335.89 671.74 337.21 C 670.40 337.53 669.07 337.86 667.74 338.18 C 667.87 336.55 668.02 334.93 668.17 333.30 Z" />
    </g>
    <g id="#ffffffff">
        <path fill="var(--pants-color, grey)" opacity="1.00"
            d=" M 619.30 520.25 C 624.02 517.63 627.94 513.86 632.09 510.47 C 632.67 520.29 633.38 530.11 633.82 539.95 C 633.75 556.66 632.56 573.55 627.80 589.65 C 624.06 602.81 618.47 615.33 614.10 628.27 C 611.00 637.81 607.07 647.03 603.53 656.40 C 601.96 660.12 601.61 664.63 598.70 667.61 C 585.50 674.78 569.80 677.57 555.00 674.68 C 546.81 673.27 539.87 668.36 533.04 663.94 C 531.53 650.87 532.32 637.70 533.14 624.61 C 534.33 624.81 535.52 625.00 536.73 625.17 C 537.35 622.30 537.81 619.41 538.09 616.50 C 541.40 628.74 546.26 640.83 554.22 650.83 C 555.15 652.07 556.44 652.90 557.71 653.80 C 556.64 649.76 553.96 646.45 552.42 642.61 C 546.90 629.57 540.29 616.46 539.50 602.08 C 540.41 588.79 541.13 575.02 536.80 562.21 C 533.92 554.40 529.06 546.56 521.18 543.05 C 516.12 540.81 511.60 537.60 506.66 535.17 C 507.15 536.57 507.35 538.28 508.59 539.31 C 513.70 544.16 521.09 545.89 525.71 551.33 C 530.73 557.02 533.05 564.44 534.30 571.79 C 531.34 566.85 526.99 563.05 522.42 559.65 C 518.71 556.94 515.49 553.62 511.75 550.95 C 512.77 555.98 517.25 558.95 520.76 562.23 C 527.27 567.66 532.11 575.04 534.95 582.99 C 535.34 595.19 534.08 607.42 533.41 619.61 C 521.47 613.84 508.31 610.26 495.00 610.20 C 481.74 610.72 468.78 614.75 457.23 621.20 C 446.98 626.52 438.28 634.87 432.93 645.14 C 429.83 643.37 426.81 641.13 425.32 637.78 C 422.77 632.75 425.26 627.08 427.21 622.29 C 434.65 606.61 444.04 591.95 453.25 577.27 C 454.71 574.25 458.36 570.83 456.12 567.36 C 455.16 567.94 454.35 568.67 453.67 569.56 C 445.75 581.01 436.69 591.75 430.61 604.38 C 428.82 596.95 425.15 590.19 422.88 582.93 C 417.88 566.76 413.06 550.10 413.38 533.03 C 420.56 537.30 429.39 537.02 437.14 534.61 C 449.26 530.68 460.96 525.36 473.51 522.84 C 498.10 517.95 523.36 519.46 548.20 521.19 C 548.80 527.03 550.51 532.70 553.13 537.95 C 557.92 547.64 563.63 557.02 571.16 564.84 C 576.08 569.96 581.23 574.84 586.51 579.58 C 587.78 580.92 589.59 581.30 591.35 581.59 C 591.30 577.63 588.07 575.10 585.69 572.39 C 579.16 565.53 572.42 558.79 567.07 550.93 C 560.86 541.84 554.09 532.63 551.84 521.62 C 563.58 522.80 575.23 524.77 586.98 525.87 C 597.96 526.86 609.59 525.90 619.30 520.25 Z" />
        <path fill="var(--socks-color, grey)" opacity="1.00"
            d=" M 435.93 646.40 C 440.24 641.68 444.14 636.57 449.07 632.46 C 451.29 638.98 453.72 645.47 455.05 652.26 C 448.60 650.56 442.18 648.75 435.93 646.40 Z" />
        <path fill="var(--socks-color, grey)" opacity="1.00"
            d=" M 460.91 723.07 C 472.25 732.75 487.19 737.68 502.01 737.80 C 511.63 737.59 521.53 733.68 527.15 725.56 C 528.01 742.70 526.83 759.85 527.21 777.00 C 527.58 801.32 527.64 825.66 528.18 849.98 C 528.60 870.60 527.33 891.27 528.77 911.86 C 520.26 908.09 510.37 909.94 502.61 914.59 C 497.48 917.65 492.90 921.57 488.96 926.06 C 484.34 905.51 481.99 884.53 477.90 863.87 C 475.35 852.37 473.07 840.81 471.39 829.15 C 467.66 808.21 464.78 787.12 462.16 766.02 C 460.36 751.79 459.22 737.36 460.91 723.07 Z" />
    </g>
    <g id="#4d4d4dff">
        <path fill="#4d4d4d" opacity="1.00"
            d=" M 590.03 691.43 C 592.44 692.34 595.32 692.96 596.73 695.37 C 599.76 700.16 598.89 706.23 597.48 711.43 C 595.02 719.66 591.60 727.55 588.55 735.57 C 583.71 748.27 577.29 760.36 569.63 771.58 C 566.90 775.39 564.06 779.56 559.64 781.55 C 555.17 782.92 549.77 780.53 547.94 776.18 C 546.29 772.20 546.14 767.82 545.62 763.60 C 554.03 762.27 561.73 757.58 566.61 750.57 C 579.06 733.03 584.00 711.72 590.03 691.43 Z" />
        <path fill="#4d4d4d" opacity="1.00"
            d=" M 514.45 915.49 C 519.04 914.78 525.04 913.32 528.40 917.58 C 536.10 926.41 539.66 937.97 541.78 949.29 C 543.65 959.68 545.01 970.47 542.92 980.93 C 542.34 983.97 539.25 985.48 536.69 986.62 C 526.93 990.35 516.29 990.57 505.97 990.69 C 493.67 990.73 480.89 989.70 469.69 984.22 C 466.49 982.59 462.16 979.24 464.10 975.18 C 467.82 967.89 474.04 962.29 478.44 955.45 C 483.58 948.15 487.05 939.91 491.11 932.02 C 496.56 924.05 504.94 917.65 514.45 915.49 Z" />
    </g>
</svg>