<?xml version="1.0" encoding="UTF-8" ?>
<!DOCTYPE svg PUBLIC "-//W3C//DTD SVG 1.1//EN" "http://www.w3.org/Graphics/SVG/1.1/DTD/svg11.dtd">
<svg width="1000pt" height="1000pt" viewBox="0 0 1000 1000" version="1.1" xmlns="http://www.w3.org/2000/svg">
    <g id="#020202ff">
        <path fill="#020202" opacity="1.00"
            d=" M 429.43 39.43 C 437.53 33.10 448.28 33.59 457.98 32.93 C 465.68 32.01 473.66 32.40 481.03 34.96 C 486.20 36.82 491.92 37.35 496.60 40.43 C 502.62 44.09 505.42 50.91 510.22 55.82 C 515.57 61.30 519.81 67.71 524.12 74.00 C 528.17 82.05 531.62 90.68 531.99 99.80 C 528.81 96.51 525.44 93.39 521.68 90.76 C 525.91 103.16 529.84 116.89 525.77 129.86 C 524.18 135.78 519.26 140.55 519.26 146.91 C 519.04 163.21 515.83 179.56 509.00 194.41 C 516.64 198.14 524.54 202.31 529.81 209.22 C 533.51 214.40 537.33 219.93 543.38 222.58 C 559.18 230.34 576.25 237.39 587.70 251.38 C 598.12 264.66 602.38 281.61 604.50 298.07 C 605.59 307.48 607.57 316.74 609.20 326.06 C 609.87 331.32 615.41 334.45 615.55 339.91 C 616.16 351.59 614.93 363.31 613.30 374.87 C 611.44 388.86 610.19 402.93 608.49 416.94 C 607.72 423.36 609.64 429.68 610.99 435.90 C 614.86 451.60 627.15 464.45 627.96 481.00 C 628.50 489.32 621.85 495.44 619.75 502.96 C 622.94 511.77 631.07 517.95 633.60 527.07 C 635.46 533.67 632.92 540.36 629.76 546.10 C 634.65 549.73 637.88 555.05 640.56 560.41 C 645.28 569.89 646.61 580.56 647.73 590.96 C 649.31 606.33 647.55 621.82 649.30 637.18 C 649.90 645.47 651.09 653.69 652.47 661.89 C 653.79 669.59 651.42 677.24 651.65 684.95 C 651.75 690.36 654.22 695.25 656.37 700.09 C 663.15 700.97 670.34 700.84 676.38 704.52 C 688.82 711.99 697.28 724.88 701.23 738.66 C 704.72 750.75 706.72 763.24 710.96 775.13 C 717.43 773.53 725.30 774.88 729.66 780.29 C 732.70 783.82 734.66 788.27 735.07 792.93 C 736.06 803.29 734.05 813.62 734.14 823.99 C 734.23 833.96 734.69 843.99 736.62 853.80 C 738.45 863.80 739.84 874.09 738.10 884.22 C 736.08 896.22 731.09 907.56 724.94 918.00 C 720.16 925.59 714.34 933.15 706.08 937.14 C 698.35 940.94 687.83 938.10 683.63 930.43 C 680.82 925.09 680.40 918.93 679.94 913.03 C 679.26 903.68 680.42 894.33 680.17 884.98 C 680.03 877.55 678.02 870.31 677.62 862.90 C 676.90 852.90 675.57 842.73 677.44 832.78 C 678.27 830.23 675.83 828.45 674.64 826.53 C 668.22 817.70 661.79 808.85 654.19 800.98 C 642.49 788.47 630.64 775.88 622.00 760.96 C 618.77 754.71 612.47 751.20 607.91 746.11 C 599.19 735.61 593.47 723.10 586.62 711.39 C 584.87 708.17 581.18 707.12 577.98 705.98 C 571.51 703.75 564.30 703.36 558.46 699.51 C 555.97 697.85 554.69 694.97 554.39 692.08 C 551.56 671.84 549.47 651.19 542.00 632.00 C 539.41 626.02 536.39 619.45 530.24 616.40 C 528.80 621.89 525.69 626.74 521.66 630.68 C 517.57 634.37 516.46 640.57 511.38 643.25 C 506.65 646.22 500.90 645.38 495.61 645.29 C 491.08 652.41 488.00 660.48 486.77 668.84 C 486.18 674.52 486.06 680.24 485.90 685.95 C 485.95 690.29 485.54 695.10 488.27 698.81 C 493.50 706.51 499.65 713.58 504.43 721.60 C 511.87 734.07 517.81 747.39 523.04 760.92 C 528.87 776.02 531.83 791.99 536.86 807.34 C 542.38 825.66 549.43 843.49 556.80 861.14 C 560.01 869.46 564.25 877.46 565.90 886.31 C 573.02 887.36 577.06 893.99 580.32 899.70 C 584.94 907.95 589.90 917.26 587.82 927.03 C 587.01 931.83 582.39 934.75 577.95 935.69 C 573.01 936.52 567.97 937.04 562.96 936.57 C 559.58 947.34 551.54 956.07 542.31 962.27 C 531.71 968.98 518.23 971.65 506.10 967.86 C 501.24 966.21 496.49 962.75 495.35 957.46 C 492.81 950.13 495.14 942.25 498.77 935.74 C 506.83 920.77 508.01 903.52 512.43 887.38 C 509.02 881.97 506.56 876.06 503.59 870.41 C 496.93 857.11 489.45 844.21 481.17 831.86 C 474.14 821.28 465.40 811.86 459.43 800.58 C 450.94 785.42 447.47 768.25 442.43 751.80 C 439.18 740.48 431.00 731.38 427.82 720.04 C 426.36 716.10 426.70 711.86 426.18 707.78 C 425.08 704.82 422.82 702.47 421.39 699.68 C 415.86 689.34 413.04 677.69 412.40 666.02 C 411.76 654.51 411.94 642.80 408.88 631.60 C 402.84 626.41 399.61 618.71 398.02 611.07 C 396.20 601.53 396.33 591.47 399.43 582.21 C 402.30 576.46 400.64 570.04 401.99 564.01 C 404.67 553.48 409.46 543.57 415.56 534.60 C 410.51 532.82 405.64 529.35 404.03 524.00 C 401.66 515.87 401.92 507.17 403.30 498.88 C 404.52 492.28 405.23 485.46 403.76 478.84 C 402.82 472.61 398.48 467.45 398.03 461.09 C 396.28 445.77 399.77 430.41 398.38 415.07 C 398.02 405.02 396.12 394.97 397.78 384.93 C 393.63 381.17 389.85 376.68 384.70 374.29 C 380.04 373.23 376.38 377.48 372.05 378.52 C 368.81 385.43 364.29 391.62 359.29 397.36 C 350.74 407.11 342.00 416.69 333.06 426.08 C 337.55 426.59 341.90 428.76 344.26 432.75 C 348.13 438.03 348.79 445.00 353.08 450.03 C 357.47 455.33 363.06 459.43 368.56 463.49 C 373.72 467.31 377.73 473.38 377.60 479.97 C 377.60 482.85 374.77 484.91 372.03 484.49 C 365.78 483.73 360.47 479.96 355.24 476.76 C 349.45 473.23 344.61 468.12 338.16 465.75 C 341.83 470.09 346.16 473.83 350.65 477.30 C 358.10 482.65 367.31 484.38 375.96 486.84 C 380.61 487.93 384.14 492.27 384.17 497.05 C 383.35 500.02 380.09 501.71 377.13 501.62 C 368.77 501.83 360.41 500.94 352.19 499.46 C 344.50 498.13 337.60 494.09 331.33 489.62 C 321.43 482.43 315.34 471.57 308.17 461.93 C 304.57 456.85 300.36 452.17 297.42 446.66 C 293.76 439.54 295.27 431.17 296.98 423.72 C 301.09 405.37 313.82 390.92 322.98 375.01 C 328.86 364.05 332.67 352.04 339.56 341.61 C 342.08 337.94 345.42 334.95 348.23 331.52 C 346.28 321.31 352.30 311.95 353.79 302.11 C 354.82 293.87 351.58 286.05 350.09 278.10 C 348.22 269.03 348.07 259.33 351.47 250.60 C 355.23 241.15 362.40 233.34 370.80 227.75 C 380.81 220.81 392.28 216.35 403.95 213.08 C 412.71 210.58 421.04 206.66 428.40 201.29 C 421.54 190.12 416.98 177.67 414.40 164.85 C 411.87 163.04 409.32 161.09 407.71 158.38 C 403.32 151.63 403.13 143.28 399.97 136.03 C 396.35 127.28 392.29 118.47 391.59 108.89 C 390.42 99.85 393.47 90.82 398.16 83.19 C 395.86 84.41 393.58 86.47 390.77 86.01 C 390.30 84.50 391.24 83.08 391.71 81.70 C 395.13 74.19 397.39 66.07 402.22 59.27 C 406.66 52.78 413.63 48.28 421.19 46.31 C 425.00 45.57 426.33 41.35 429.43 39.43 M 428.23 111.59 C 429.91 115.09 430.48 119.09 429.39 122.87 C 427.17 131.40 419.82 137.21 416.18 145.02 C 415.78 148.39 416.86 151.76 417.27 155.09 C 420.48 174.60 427.66 194.05 441.14 208.83 C 449.37 217.58 461.60 223.82 473.84 221.46 C 485.77 219.22 494.88 209.91 501.00 199.94 C 512.46 180.52 515.57 157.31 514.44 135.10 C 513.95 128.94 511.05 123.36 509.38 117.50 C 508.53 114.70 509.04 111.68 508.13 108.91 C 505.07 107.13 501.37 107.36 497.97 106.89 C 493.44 106.62 489.02 105.61 484.59 104.76 C 486.14 107.56 488.50 109.75 490.51 112.21 C 486.33 112.76 482.15 111.88 478.16 110.73 C 465.75 106.87 456.49 97.10 445.07 91.30 C 441.32 99.29 436.60 107.73 428.23 111.59 M 504.22 206.19 C 508.09 221.70 506.56 239.03 497.69 252.62 C 491.48 263.00 479.76 269.28 467.92 270.51 C 461.91 271.13 456.03 269.02 450.81 266.23 C 446.10 263.71 443.02 259.12 440.45 254.59 C 436.34 247.20 433.39 239.18 431.72 230.89 C 430.05 222.80 428.08 214.76 427.00 206.57 C 420.36 211.18 413.24 215.15 405.47 217.49 C 392.73 221.32 380.27 226.58 369.52 234.52 C 362.23 240.08 356.02 247.78 354.20 256.96 C 352.19 266.43 354.24 276.12 356.69 285.30 C 358.56 292.03 360.15 299.21 358.34 306.13 C 356.50 312.80 354.10 319.31 352.61 326.07 C 351.42 330.54 355.47 333.63 357.79 336.83 C 360.59 334.61 363.88 332.82 365.79 329.68 C 369.20 324.70 373.44 320.07 379.01 317.50 C 379.27 308.80 376.90 300.26 372.64 292.72 C 374.73 293.21 376.62 294.39 377.57 296.38 C 380.91 302.48 382.69 309.45 382.78 316.40 C 391.94 315.96 400.60 320.79 407.23 326.75 C 415.32 335.36 424.11 343.40 431.04 353.03 C 434.98 358.02 438.91 363.37 444.59 366.49 C 450.50 369.64 456.95 371.63 463.39 373.40 C 474.46 376.31 485.62 378.98 496.92 380.85 C 507.38 382.61 517.77 384.91 528.35 385.92 C 527.69 383.98 527.13 381.90 525.61 380.44 C 520.73 375.41 514.55 371.94 508.58 368.38 C 495.27 360.54 481.17 353.69 469.51 343.37 C 463.22 337.70 456.82 332.00 451.76 325.16 C 450.36 323.51 450.05 321.37 450.03 319.29 C 453.73 322.84 456.73 327.05 460.60 330.44 C 472.67 342.15 487.08 351.03 501.69 359.20 C 511.22 365.04 521.67 370.09 528.90 378.90 C 529.22 370.93 529.65 362.96 529.60 354.99 C 529.83 343.59 528.53 332.23 528.60 320.85 C 531.72 323.17 531.19 327.51 531.80 330.92 C 533.19 346.29 533.75 361.80 531.95 377.15 C 538.22 366.37 544.03 355.17 547.46 343.12 C 550.73 331.85 551.43 320.09 552.11 308.45 C 554.49 311.84 554.12 316.12 554.10 320.04 C 553.81 328.75 552.58 337.42 550.62 345.91 C 547.84 357.68 541.94 368.38 535.74 378.65 C 534.06 381.35 532.62 384.19 531.44 387.15 C 535.05 390.04 538.47 393.30 542.69 395.30 C 546.13 397.18 550.21 394.51 553.69 396.35 C 557.82 398.30 561.68 400.84 565.16 403.81 C 570.72 408.59 576.52 413.08 581.90 418.08 C 587.30 423.00 592.65 428.31 599.48 431.23 C 601.51 420.29 601.72 409.12 601.53 398.03 C 601.28 391.40 601.34 384.73 600.32 378.15 C 599.35 371.72 598.74 365.23 598.73 358.73 C 602.31 362.07 601.69 367.51 602.73 371.94 C 604.74 381.31 605.53 390.89 605.52 400.47 C 607.35 381.31 611.12 362.30 611.07 343.00 C 611.25 339.90 610.16 336.96 608.29 334.54 C 604.46 329.49 604.92 322.85 603.26 317.02 C 600.59 307.12 600.13 296.83 598.15 286.80 C 595.66 275.12 591.77 263.28 584.07 253.95 C 575.83 244.69 564.95 238.20 553.74 233.19 C 547.94 230.31 541.84 228.00 536.39 224.48 C 531.98 221.64 529.08 217.17 526.11 212.97 C 522.12 207.14 516.09 203.17 510.16 199.55 C 508.24 201.82 506.26 204.03 504.22 206.19 M 432.60 207.20 C 435.62 223.53 438.34 240.48 446.98 254.97 C 450.28 261.14 457.31 264.47 464.03 265.19 C 468.96 265.46 474.39 265.58 478.63 262.64 C 485.26 258.48 491.38 253.06 495.01 246.01 C 501.39 234.68 501.63 221.12 500.40 208.51 C 492.09 219.33 479.07 227.81 464.96 226.63 C 451.72 225.91 440.78 216.96 432.60 207.20 M 382.36 321.46 C 378.16 322.65 375.34 326.17 372.41 329.16 C 377.40 328.91 383.11 327.98 387.40 331.21 C 383.07 333.12 378.16 332.28 373.71 333.71 C 367.91 335.51 362.92 339.44 359.19 344.17 C 358.05 345.76 356.72 347.70 357.24 349.76 C 358.16 351.20 360.21 351.72 361.72 350.87 C 365.04 349.34 367.68 346.70 370.81 344.85 C 375.37 342.04 380.84 341.26 386.10 341.06 C 387.78 340.70 388.93 341.92 390.02 342.99 C 383.32 344.83 375.92 345.65 370.49 350.41 C 367.25 353.46 361.71 354.94 361.24 360.06 C 360.68 363.48 364.19 365.16 367.05 365.34 C 369.39 362.30 372.09 359.40 375.60 357.71 C 378.11 356.55 381.36 355.52 383.60 357.80 C 378.42 361.04 372.62 363.98 369.39 369.42 C 368.35 370.96 367.88 373.39 369.88 374.41 C 373.41 374.17 376.00 371.42 379.19 370.19 C 382.53 368.68 386.51 369.41 389.46 371.48 C 395.88 375.95 401.02 381.93 406.63 387.33 C 410.86 391.46 416.76 392.81 422.01 395.12 C 443.42 404.58 462.56 418.95 485.11 425.80 C 502.87 432.84 521.06 439.01 539.95 442.13 C 549.06 443.46 559.15 445.18 567.63 440.56 C 574.12 437.31 578.05 430.89 581.53 424.81 C 574.03 417.83 566.11 411.32 558.05 405.01 C 554.98 403.14 551.96 400.00 548.05 400.96 C 540.30 402.04 534.74 395.19 529.88 390.23 C 520.22 390.45 510.61 389.16 501.11 387.52 C 485.61 384.83 470.19 381.47 455.17 376.76 C 448.82 374.54 442.24 372.29 437.03 367.89 C 429.13 361.05 423.92 351.82 416.75 344.31 C 413.18 340.53 409.73 336.63 406.18 332.83 C 402.94 329.35 399.78 325.49 395.26 323.65 C 391.25 321.94 386.75 319.96 382.36 321.46 M 340.53 348.57 C 334.04 360.33 330.25 373.46 322.70 384.67 C 314.22 397.97 304.35 411.21 301.50 427.10 C 300.37 433.06 299.48 439.79 302.76 445.26 C 306.34 451.21 310.92 456.49 314.59 462.39 C 317.93 467.41 320.57 472.90 324.54 477.48 C 330.32 484.97 338.39 490.43 347.06 494.04 C 352.83 496.01 358.97 496.55 365.00 497.28 C 369.83 497.57 374.75 498.45 379.54 497.49 C 381.49 493.38 376.99 490.49 373.58 489.66 C 363.47 486.92 352.27 485.19 344.39 477.67 C 340.66 473.92 336.24 470.30 334.71 465.03 C 337.02 464.24 339.49 463.51 341.92 464.36 C 353.54 467.58 361.49 478.74 373.69 480.45 C 373.55 474.99 370.26 470.09 365.73 467.22 C 358.75 462.81 351.95 457.70 347.33 450.74 C 343.86 445.49 343.00 438.90 338.99 433.98 C 336.29 430.37 331.26 431.14 327.62 429.13 C 328.50 426.95 329.62 424.86 331.15 423.07 C 337.40 415.38 344.08 408.04 350.61 400.59 C 356.97 393.62 363.22 386.44 367.98 378.25 C 365.28 376.18 364.01 373.04 364.63 369.68 C 361.93 369.02 359.04 367.95 357.77 365.26 C 355.91 362.46 356.61 359.08 357.64 356.14 C 355.32 354.96 352.69 353.65 351.86 350.96 C 350.50 346.62 353.04 342.36 355.59 339.03 C 353.58 337.49 351.66 335.84 349.82 334.11 C 347.35 339.33 343.16 343.45 340.53 348.57 M 400.99 388.25 C 400.71 391.88 400.48 395.58 401.33 399.17 C 402.55 405.07 402.75 411.11 403.38 417.09 C 404.77 431.41 401.56 445.75 402.96 460.05 C 403.28 465.74 407.22 470.23 408.52 475.64 C 409.60 479.99 410.33 484.46 410.28 488.96 C 410.19 495.72 408.09 502.28 408.08 509.06 C 408.04 513.68 408.03 518.39 409.28 522.88 C 410.25 526.05 412.58 529.11 415.91 529.98 C 426.35 532.89 437.32 532.23 447.99 531.32 C 458.81 531.70 469.41 535.05 479.02 539.94 C 486.73 543.80 495.27 546.46 503.97 546.17 C 509.45 545.78 514.85 544.52 520.36 544.46 C 500.94 535.60 483.70 522.82 465.96 511.12 C 461.99 507.99 456.63 505.83 454.72 500.80 C 456.92 501.17 459.11 501.77 460.98 503.04 C 473.31 510.74 485.41 518.83 498.06 526.02 C 513.72 534.95 529.66 543.89 547.20 548.58 C 567.08 555.05 588.52 555.91 609.08 552.57 C 614.03 551.60 619.37 550.69 623.34 547.31 C 628.98 541.72 631.49 532.48 627.88 525.14 C 623.95 517.80 617.61 511.86 614.67 503.99 C 613.98 498.77 617.89 494.47 619.99 490.01 C 622.02 486.37 623.45 482.18 622.61 477.97 C 620.91 467.60 614.78 458.79 610.70 449.29 C 607.20 442.05 605.31 434.13 604.71 426.13 C 604.01 429.20 604.33 432.91 602.04 435.37 C 594.92 436.41 589.21 431.10 584.05 427.02 C 581.31 433.94 577.36 440.89 570.64 444.62 C 561.79 450.11 550.82 449.30 540.96 447.77 C 526.86 445.34 512.92 441.81 499.55 436.70 C 492.35 434.19 485.40 431.01 478.15 428.68 C 455.79 420.10 436.34 405.51 413.95 397.01 C 408.96 395.22 404.65 392.03 400.99 388.25 M 420.31 535.26 C 414.14 544.83 408.48 554.99 406.12 566.24 C 405.47 569.15 405.99 572.13 406.01 575.08 C 405.85 578.65 404.11 581.86 403.20 585.26 C 399.48 598.47 400.90 613.11 407.48 625.20 C 408.71 619.56 409.82 613.71 413.00 608.79 C 418.18 598.87 427.75 592.38 437.20 586.96 C 443.83 583.19 451.47 581.69 459.00 581.00 C 473.26 579.78 488.37 583.11 499.56 592.41 C 508.10 598.62 514.21 607.57 517.94 617.37 C 512.90 598.60 499.59 582.95 483.68 572.26 C 472.28 564.73 458.86 559.11 444.96 559.92 C 439.86 560.09 435.12 562.09 430.22 563.24 C 430.27 560.47 433.05 559.39 435.14 558.36 C 442.70 555.09 451.30 555.24 459.25 556.86 C 476.21 560.40 491.30 570.37 502.94 582.99 C 512.88 593.97 520.78 607.37 522.92 622.22 C 524.55 619.06 525.88 615.66 525.86 612.06 C 525.92 602.99 525.63 593.76 522.91 585.03 C 521.95 581.11 519.77 577.51 519.59 573.42 C 521.08 574.16 522.52 575.15 523.19 576.75 C 528.77 587.87 530.65 600.46 530.56 612.80 C 533.35 613.62 536.21 614.68 538.13 616.99 C 543.46 622.85 546.62 630.31 549.13 637.73 C 554.91 656.30 557.37 675.70 559.20 695.00 C 563.29 698.15 568.43 699.34 573.40 700.29 C 582.56 702.01 590.87 706.49 598.84 711.15 C 604.89 714.64 610.00 719.85 616.71 722.14 C 620.10 723.37 623.70 722.23 626.83 720.79 C 636.64 716.22 645.26 709.61 654.49 704.05 C 651.25 699.47 647.96 694.68 646.91 689.06 C 644.85 680.10 648.77 671.11 647.25 662.12 C 644.46 645.55 642.32 628.78 642.81 611.94 C 642.87 598.48 642.17 584.92 639.11 571.77 C 637.03 563.54 633.10 555.81 627.91 549.12 C 625.23 551.95 621.93 554.19 618.18 555.33 C 609.41 558.15 600.16 559.11 590.99 559.54 C 579.78 559.79 568.47 559.17 557.50 556.74 C 568.74 565.34 578.12 576.04 587.18 586.84 C 587.97 587.89 588.41 589.09 588.49 590.45 C 581.37 586.96 576.28 580.65 570.51 575.42 C 563.64 568.60 556.30 562.29 548.81 556.17 C 546.65 554.35 544.07 553.13 541.35 552.40 C 536.78 551.09 532.36 549.28 527.82 547.91 C 516.76 546.48 506.09 552.32 495.05 550.06 C 484.47 549.00 475.42 543.05 465.58 539.64 C 458.56 537.59 451.29 535.50 443.89 536.25 C 436.03 536.88 428.09 536.52 420.31 535.26 M 447.97 588.17 C 442.19 589.68 437.14 592.98 432.19 596.19 C 426.24 600.10 420.65 604.88 417.11 611.16 C 413.11 616.62 412.92 623.83 413.75 630.28 C 416.85 641.24 417.30 652.70 417.60 664.02 C 417.93 674.96 420.26 685.92 425.24 695.71 C 427.28 699.79 430.55 703.20 431.88 707.65 C 441.77 710.21 452.14 708.80 462.04 706.98 C 469.39 705.40 477.03 703.67 483.21 699.17 C 482.10 694.54 481.72 689.78 481.74 685.04 C 481.87 676.09 481.24 666.89 484.25 658.30 C 488.81 642.54 500.39 629.69 513.92 620.87 C 509.99 607.55 500.05 596.42 487.63 590.39 C 475.27 584.71 460.93 584.63 447.97 588.17 M 499.19 640.62 C 502.07 640.44 505.08 640.21 507.58 638.60 C 512.22 636.00 513.92 630.45 514.66 625.52 C 508.82 629.79 503.71 634.98 499.19 640.62 M 459.90 712.52 C 450.58 714.01 440.93 715.05 431.65 712.80 C 433.33 725.91 442.83 735.94 446.92 748.19 C 452.59 764.21 455.48 781.30 463.62 796.40 C 470.26 809.55 480.44 820.38 488.13 832.86 C 498.39 848.99 507.68 865.88 513.83 884.04 C 515.19 879.17 518.74 874.64 523.96 873.79 C 529.99 873.07 535.08 877.09 539.81 880.22 C 546.02 885.10 553.98 889.80 562.14 887.42 C 560.65 880.71 557.04 874.81 554.56 868.47 C 546.82 850.40 539.44 832.14 533.32 813.45 C 529.28 801.79 526.33 789.81 522.90 777.97 C 517.82 760.87 510.53 744.50 502.18 728.77 C 497.35 719.62 490.73 711.61 485.39 702.79 C 478.19 708.68 468.80 710.75 459.90 712.52 M 657.86 704.14 C 657.07 705.51 656.34 707.00 655.05 708.01 C 649.44 712.59 643.37 716.59 637.05 720.12 C 632.50 722.63 627.92 725.37 622.80 726.51 C 617.38 727.66 612.06 725.26 607.60 722.40 C 602.66 719.18 597.93 715.62 592.71 712.85 C 597.00 720.34 601.02 728.01 605.70 735.28 C 608.45 739.41 611.25 743.67 615.26 746.71 C 617.99 748.72 620.47 751.05 623.19 753.08 C 632.06 756.47 642.36 757.00 651.16 753.06 C 660.15 749.15 666.49 740.42 668.61 730.97 C 670.66 722.58 669.08 713.85 666.40 705.80 C 663.53 705.33 660.67 704.83 657.86 704.14 M 670.86 707.29 C 671.19 707.83 671.86 708.91 672.19 709.45 C 678.28 725.06 673.13 744.49 659.46 754.43 C 650.68 761.26 638.74 763.59 628.03 760.61 C 640.13 781.65 660.16 796.35 673.79 816.22 C 679.77 824.10 684.39 833.63 693.27 838.73 C 695.14 839.99 697.86 840.73 699.72 839.00 C 707.50 832.43 713.79 823.79 716.83 814.02 C 719.50 804.09 714.82 794.43 710.40 785.80 C 703.23 770.98 700.50 754.62 695.88 738.95 C 691.93 725.85 683.37 713.39 670.86 707.29 M 712.22 777.96 C 715.76 787.53 722.25 796.40 721.98 807.01 C 721.27 815.34 717.25 822.94 713.05 830.00 C 709.77 835.21 705.89 840.66 700.11 843.25 C 692.89 845.69 686.72 839.78 681.61 835.56 C 680.33 845.03 681.88 854.54 682.38 864.02 C 682.74 870.45 684.94 876.62 685.26 883.06 C 686.05 897.25 682.81 911.72 686.26 925.73 C 688.00 933.30 697.72 936.82 704.29 933.17 C 712.34 928.84 717.67 920.95 722.15 913.23 C 728.21 901.99 733.65 889.91 734.34 876.98 C 734.85 866.45 731.98 856.19 730.39 845.88 C 728.68 832.99 728.75 819.90 730.08 806.98 C 730.52 799.16 731.72 790.15 726.32 783.66 C 723.11 779.20 717.22 778.62 712.22 777.96 M 520.20 881.27 C 516.18 887.02 515.90 894.26 514.63 900.93 C 512.99 911.64 511.00 922.49 506.23 932.32 C 503.36 938.08 498.94 943.36 498.36 950.00 C 498.39 954.27 499.70 959.07 503.42 961.61 C 508.41 965.24 515.02 966.25 521.01 965.07 C 527.89 963.72 534.81 961.66 540.63 957.61 C 546.09 953.83 550.70 948.87 554.38 943.36 C 558.08 937.89 558.99 930.66 564.24 926.24 C 565.94 924.88 567.89 922.94 570.28 923.56 C 569.82 927.63 565.82 930.12 563.96 933.59 C 568.25 932.86 572.58 932.35 576.88 931.65 C 579.95 931.09 583.43 929.33 583.96 925.93 C 585.37 918.45 581.57 911.37 578.18 904.97 C 575.55 900.20 572.77 895.00 567.83 892.26 C 563.90 891.62 560.09 894.07 556.11 893.41 C 548.38 892.37 541.77 887.86 535.70 883.26 C 532.99 881.37 530.23 879.39 527.00 878.55 C 524.43 877.83 521.61 879.06 520.20 881.27 Z" />
        <path fill="#020202" opacity="1.00"
            d=" M 429.74 139.83 C 440.93 139.64 452.12 139.38 463.31 139.18 C 463.35 142.87 463.45 146.56 463.55 150.24 C 452.43 150.53 441.30 150.71 430.18 150.86 C 429.88 147.19 429.80 143.51 429.74 139.83 Z" />
        <path fill="#020202" opacity="1.00"
            d=" M 478.16 139.91 C 488.04 139.10 497.97 139.32 507.88 139.06 C 508.13 142.67 508.23 146.28 508.36 149.89 C 499.20 150.36 490.03 150.47 480.86 150.64 C 480.86 156.14 481.69 161.58 481.82 167.06 C 479.73 165.37 479.54 162.56 479.20 160.09 C 478.40 153.40 477.63 146.65 478.16 139.91 Z" />
        <path fill="#020202" opacity="1.00"
            d=" M 478.91 171.87 C 480.05 170.50 481.35 169.28 483.02 168.57 C 483.30 171.68 483.84 174.81 483.54 177.93 C 483.20 180.27 480.69 179.20 479.33 178.65 C 473.10 176.06 466.86 173.51 460.74 170.70 C 466.75 169.33 472.88 171.42 478.91 171.87 Z" />
        <path fill="#020202" opacity="1.00"
            d=" M 452.68 186.24 C 463.09 185.36 473.57 185.23 484.02 184.71 C 487.59 184.63 491.22 184.20 494.77 184.83 L 494.82 185.94 C 494.55 186.31 494.02 187.05 493.75 187.43 C 493.56 189.04 493.33 190.93 491.50 191.47 C 484.36 194.17 476.55 194.44 468.99 194.28 C 464.10 193.91 458.38 193.98 454.68 190.23 C 453.69 189.04 451.52 188.06 452.68 186.24 Z" />
        <path fill="#020202" opacity="1.00"
            d=" M 539.37 268.14 C 539.84 265.71 541.59 262.44 544.58 263.34 C 547.09 264.32 546.74 267.48 546.66 269.65 C 545.77 268.20 544.91 266.72 544.07 265.26 C 541.29 269.98 541.51 275.68 541.10 280.96 C 541.11 290.66 542.17 300.33 542.28 310.03 C 542.42 321.97 541.75 333.93 540.39 345.80 C 539.81 349.08 539.70 352.83 537.20 355.34 C 537.67 339.90 539.31 324.45 538.72 308.97 C 538.68 295.38 536.29 281.58 539.37 268.14 Z" />
        <path fill="#020202" opacity="1.00"
            d=" M 408.84 436.53 C 411.33 432.43 416.74 432.29 421.01 432.07 C 429.85 431.59 437.62 436.58 444.42 441.63 C 473.19 463.63 503.73 483.43 535.96 499.99 C 550.00 506.97 564.16 514.63 579.85 516.99 C 581.89 518.45 578.42 520.14 577.02 519.94 C 567.39 519.95 558.37 515.94 549.64 512.31 C 518.79 498.67 489.83 481.09 462.24 461.76 C 453.21 455.54 444.91 448.34 435.87 442.15 C 430.10 438.18 423.08 435.51 415.99 436.23 C 413.61 436.47 411.22 436.70 408.84 436.53 Z" />
        <path fill="#020202" opacity="1.00"
            d=" M 589.00 471.03 C 593.61 468.39 597.15 464.25 600.07 459.88 C 600.31 460.40 600.81 461.46 601.06 461.98 C 598.27 471.28 589.34 477.53 580.04 479.07 C 565.12 481.67 549.93 479.64 535.01 478.08 C 530.34 477.52 525.59 477.25 521.06 475.91 C 519.90 475.36 516.79 474.26 518.75 472.62 C 524.15 472.43 529.51 473.55 534.92 473.67 C 545.94 474.11 556.94 474.90 567.97 474.94 C 575.09 474.87 582.60 474.52 589.00 471.03 Z" />
        <path fill="#020202" opacity="1.00"
            d=" M 532.31 569.47 C 534.27 569.28 535.72 570.72 537.14 571.83 C 542.74 576.53 548.13 581.58 552.36 587.59 C 561.87 600.99 568.27 616.24 574.47 631.37 C 581.52 648.14 589.75 665.07 603.23 677.67 C 601.79 677.82 600.17 678.08 599.08 676.91 C 587.77 667.08 579.63 654.16 573.44 640.63 C 564.71 622.41 558.63 602.74 546.77 586.17 C 542.51 580.12 536.64 575.44 532.31 569.47 Z" />
    </g>
    <g id="#f0b58bff">
        <path fill="#f0b58b" opacity="1.00"
            d=" M 428.23 111.59 C 436.60 107.73 441.32 99.29 445.07 91.30 C 456.49 97.10 465.75 106.87 478.16 110.73 C 482.15 111.88 486.33 112.76 490.51 112.21 C 488.50 109.75 486.14 107.56 484.59 104.76 C 489.02 105.61 493.44 106.62 497.97 106.89 C 501.37 107.36 505.07 107.13 508.13 108.91 C 509.04 111.68 508.53 114.70 509.38 117.50 C 511.05 123.36 513.95 128.94 514.44 135.10 C 515.57 157.31 512.46 180.52 501.00 199.94 C 494.88 209.91 485.77 219.22 473.84 221.46 C 461.60 223.82 449.37 217.58 441.14 208.83 C 427.66 194.05 420.48 174.60 417.27 155.09 C 416.86 151.76 415.78 148.39 416.18 145.02 C 419.82 137.21 427.17 131.40 429.39 122.87 C 430.48 119.09 429.91 115.09 428.23 111.59 M 429.74 139.83 C 429.80 143.51 429.88 147.19 430.18 150.86 C 441.30 150.71 452.43 150.53 463.55 150.24 C 463.45 146.56 463.35 142.87 463.31 139.18 C 452.12 139.38 440.93 139.64 429.74 139.83 M 478.16 139.91 C 477.63 146.65 478.40 153.40 479.20 160.09 C 479.54 162.56 479.73 165.37 481.82 167.06 C 481.69 161.58 480.86 156.14 480.86 150.64 C 490.03 150.47 499.20 150.36 508.36 149.89 C 508.23 146.28 508.13 142.67 507.88 139.06 C 497.97 139.32 488.04 139.10 478.16 139.91 M 478.91 171.87 C 472.88 171.42 466.75 169.33 460.74 170.70 C 466.86 173.51 473.10 176.06 479.33 178.65 C 480.69 179.20 483.20 180.27 483.54 177.93 C 483.84 174.81 483.30 171.68 483.02 168.57 C 481.35 169.28 480.05 170.50 478.91 171.87 M 452.68 186.24 C 451.52 188.06 453.69 189.04 454.68 190.23 C 458.38 193.98 464.10 193.91 468.99 194.28 C 476.55 194.44 484.36 194.17 491.50 191.47 C 493.33 190.93 493.56 189.04 493.75 187.43 C 494.02 187.05 494.55 186.31 494.82 185.94 L 494.77 184.83 C 491.22 184.20 487.59 184.63 484.02 184.71 C 473.57 185.23 463.09 185.36 452.68 186.24 Z" />
        <path fill="#f0b58b" opacity="1.00"
            d=" M 432.60 207.20 C 440.78 216.96 451.72 225.91 464.96 226.63 C 479.07 227.81 492.09 219.33 500.40 208.51 C 501.63 221.12 501.39 234.68 495.01 246.01 C 491.38 253.06 485.26 258.48 478.63 262.64 C 474.39 265.58 468.96 265.46 464.03 265.19 C 457.31 264.47 450.28 261.14 446.98 254.97 C 438.34 240.48 435.62 223.53 432.60 207.20 Z" />
        <path fill="#f0b58b" opacity="1.00"
            d=" M 382.36 321.46 C 386.75 319.96 391.25 321.94 395.26 323.65 C 399.78 325.49 402.94 329.35 406.18 332.83 C 409.73 336.63 413.18 340.53 416.75 344.31 C 423.92 351.82 429.13 361.05 437.03 367.89 C 442.24 372.29 448.82 374.54 455.17 376.76 C 470.19 381.47 485.61 384.83 501.11 387.52 C 510.61 389.16 520.22 390.45 529.88 390.23 C 534.74 395.19 540.30 402.04 548.05 400.96 C 551.96 400.00 554.98 403.14 558.05 405.01 C 566.11 411.32 574.03 417.83 581.53 424.81 C 578.05 430.89 574.12 437.31 567.63 440.56 C 559.15 445.18 549.06 443.46 539.95 442.13 C 521.06 439.01 502.87 432.84 485.11 425.80 C 462.56 418.95 443.42 404.58 422.01 395.12 C 416.76 392.81 410.86 391.46 406.63 387.33 C 401.02 381.93 395.88 375.95 389.46 371.48 C 386.51 369.41 382.53 368.68 379.19 370.19 C 376.00 371.42 373.41 374.17 369.88 374.41 C 367.88 373.39 368.35 370.96 369.39 369.42 C 372.62 363.98 378.42 361.04 383.60 357.80 C 381.36 355.52 378.11 356.55 375.60 357.71 C 372.09 359.40 369.39 362.30 367.05 365.34 C 364.19 365.16 360.68 363.48 361.24 360.06 C 361.71 354.94 367.25 353.46 370.49 350.41 C 375.92 345.65 383.32 344.83 390.02 342.99 C 388.93 341.92 387.78 340.70 386.10 341.06 C 380.84 341.26 375.37 342.04 370.81 344.85 C 367.68 346.70 365.04 349.34 361.72 350.87 C 360.21 351.72 358.16 351.20 357.24 349.76 C 356.72 347.70 358.05 345.76 359.19 344.17 C 362.92 339.44 367.91 335.51 373.71 333.71 C 378.16 332.28 383.07 333.12 387.40 331.21 C 383.11 327.98 377.40 328.91 372.41 329.16 C 375.34 326.17 378.16 322.65 382.36 321.46 Z" />
        <path fill="#f0b58b" opacity="1.00"
            d=" M 340.53 348.57 C 343.16 343.45 347.35 339.33 349.82 334.11 C 351.66 335.84 353.58 337.49 355.59 339.03 C 353.04 342.36 350.50 346.62 351.86 350.96 C 352.69 353.65 355.32 354.96 357.64 356.14 C 356.61 359.08 355.91 362.46 357.77 365.26 C 359.04 367.95 361.93 369.02 364.63 369.68 C 364.01 373.04 365.28 376.18 367.98 378.25 C 363.22 386.44 356.97 393.62 350.61 400.59 C 344.08 408.04 337.40 415.38 331.15 423.07 C 329.62 424.86 328.50 426.95 327.62 429.13 C 331.26 431.14 336.29 430.37 338.99 433.98 C 343.00 438.90 343.86 445.49 347.33 450.74 C 351.95 457.70 358.75 462.81 365.73 467.22 C 370.26 470.09 373.55 474.99 373.69 480.45 C 361.49 478.74 353.54 467.58 341.92 464.36 C 339.49 463.51 337.02 464.24 334.71 465.03 C 336.24 470.30 340.66 473.92 344.39 477.67 C 352.27 485.19 363.47 486.92 373.58 489.66 C 376.99 490.49 381.49 493.38 379.54 497.49 C 374.75 498.45 369.83 497.57 365.00 497.28 C 358.97 496.55 352.83 496.01 347.06 494.04 C 338.39 490.43 330.32 484.97 324.54 477.48 C 320.57 472.90 317.93 467.41 314.59 462.39 C 310.92 456.49 306.34 451.21 302.76 445.26 C 299.48 439.79 300.37 433.06 301.50 427.10 C 304.35 411.21 314.22 397.97 322.70 384.67 C 330.25 373.46 334.04 360.33 340.53 348.57 Z" />
        <path fill="#f0b58b" opacity="1.00"
            d=" M 447.97 588.17 C 460.93 584.63 475.27 584.71 487.63 590.39 C 500.05 596.42 509.99 607.55 513.92 620.87 C 500.39 629.69 488.81 642.54 484.25 658.30 C 481.24 666.89 481.87 676.09 481.74 685.04 C 481.72 689.78 482.10 694.54 483.21 699.17 C 477.03 703.67 469.39 705.40 462.04 706.98 C 452.14 708.80 441.77 710.21 431.88 707.65 C 430.55 703.20 427.28 699.79 425.24 695.71 C 420.26 685.92 417.93 674.96 417.60 664.02 C 417.30 652.70 416.85 641.24 413.75 630.28 C 412.92 623.83 413.11 616.62 417.11 611.16 C 420.65 604.88 426.24 600.10 432.19 596.19 C 437.14 592.98 442.19 589.68 447.97 588.17 Z" />
        <path fill="#f0b58b" opacity="1.00"
            d=" M 657.86 704.14 C 660.67 704.83 663.53 705.33 666.40 705.80 C 669.08 713.85 670.66 722.58 668.61 730.97 C 666.49 740.42 660.15 749.15 651.16 753.06 C 642.36 757.00 632.06 756.47 623.19 753.08 C 620.47 751.05 617.99 748.72 615.26 746.71 C 611.25 743.67 608.45 739.41 605.70 735.28 C 601.02 728.01 597.00 720.34 592.71 712.85 C 597.93 715.62 602.66 719.18 607.60 722.40 C 612.06 725.26 617.38 727.66 622.80 726.51 C 627.92 725.37 632.50 722.63 637.05 720.12 C 643.37 716.59 649.44 712.59 655.05 708.01 C 656.34 707.00 657.07 705.51 657.86 704.14 Z" />
    </g>
    <g id="#f11b27ff">
        <path fill="var(--shirt-color, grey)" opacity="1.00"
            d=" M 504.22 206.19 C 506.26 204.03 508.24 201.82 510.16 199.55 C 516.09 203.17 522.12 207.14 526.11 212.97 C 529.08 217.17 531.98 221.64 536.39 224.48 C 541.84 228.00 547.94 230.31 553.74 233.19 C 564.95 238.20 575.83 244.69 584.07 253.95 C 591.77 263.28 595.66 275.12 598.15 286.80 C 600.13 296.83 600.59 307.12 603.26 317.02 C 604.92 322.85 604.46 329.49 608.29 334.54 C 610.16 336.96 611.25 339.90 611.07 343.00 C 611.12 362.30 607.35 381.31 605.52 400.47 C 605.53 390.89 604.74 381.31 602.73 371.94 C 601.69 367.51 602.31 362.07 598.73 358.73 C 598.74 365.23 599.35 371.72 600.32 378.15 C 601.34 384.73 601.28 391.40 601.53 398.03 C 601.72 409.12 601.51 420.29 599.48 431.23 C 592.65 428.31 587.30 423.00 581.90 418.08 C 576.52 413.08 570.72 408.59 565.16 403.81 C 561.68 400.84 557.82 398.30 553.69 396.35 C 550.21 394.51 546.13 397.18 542.69 395.30 C 538.47 393.30 535.05 390.04 531.44 387.15 C 532.62 384.19 534.06 381.35 535.74 378.65 C 541.94 368.38 547.84 357.68 550.62 345.91 C 552.58 337.42 553.81 328.75 554.10 320.04 C 554.12 316.12 554.49 311.84 552.11 308.45 C 551.43 320.09 550.73 331.85 547.46 343.12 C 544.03 355.17 538.22 366.37 531.95 377.15 C 533.75 361.80 533.19 346.29 531.80 330.92 C 531.19 327.51 531.72 323.17 528.60 320.85 C 528.53 332.23 529.83 343.59 529.60 354.99 C 529.65 362.96 529.22 370.93 528.90 378.90 C 521.67 370.09 511.22 365.04 501.69 359.20 C 487.08 351.03 472.67 342.15 460.60 330.44 C 456.73 327.05 453.73 322.84 450.03 319.29 C 450.05 321.37 450.36 323.51 451.76 325.16 C 456.82 332.00 463.22 337.70 469.51 343.37 C 481.17 353.69 495.27 360.54 508.58 368.38 C 514.55 371.94 520.73 375.41 525.61 380.44 C 527.13 381.90 527.69 383.98 528.35 385.92 C 517.77 384.91 507.38 382.61 496.92 380.85 C 485.62 378.98 474.46 376.31 463.39 373.40 C 456.95 371.63 450.50 369.64 444.59 366.49 C 438.91 363.37 434.98 358.02 431.04 353.03 C 424.11 343.40 415.32 335.36 407.23 326.75 C 400.60 320.79 391.94 315.96 382.78 316.40 C 382.69 309.45 380.91 302.48 377.57 296.38 C 376.62 294.39 374.73 293.21 372.64 292.72 C 376.90 300.26 379.27 308.80 379.01 317.50 C 373.44 320.07 369.20 324.70 365.79 329.68 C 363.88 332.82 360.59 334.61 357.79 336.83 C 355.47 333.63 351.42 330.54 352.61 326.07 C 354.10 319.31 356.50 312.80 358.34 306.13 C 360.15 299.21 358.56 292.03 356.69 285.30 C 354.24 276.12 352.19 266.43 354.20 256.96 C 356.02 247.78 362.23 240.08 369.52 234.52 C 380.27 226.58 392.73 221.32 405.47 217.49 C 413.24 215.15 420.36 211.18 427.00 206.57 C 428.08 214.76 430.05 222.80 431.72 230.89 C 433.39 239.18 436.34 247.20 440.45 254.59 C 443.02 259.12 446.10 263.71 450.81 266.23 C 456.03 269.02 461.91 271.13 467.92 270.51 C 479.76 269.28 491.48 263.00 497.69 252.62 C 506.56 239.03 508.09 221.70 504.22 206.19 M 539.37 268.14 C 536.29 281.58 538.68 295.38 538.72 308.97 C 539.31 324.45 537.67 339.90 537.20 355.34 C 539.70 352.83 539.81 349.08 540.39 345.80 C 541.75 333.93 542.42 321.97 542.28 310.03 C 542.17 300.33 541.11 290.66 541.10 280.96 C 541.51 275.68 541.29 269.98 544.07 265.26 C 544.91 266.72 545.77 268.20 546.66 269.65 C 546.74 267.48 547.09 264.32 544.58 263.34 C 541.59 262.44 539.84 265.71 539.37 268.14 Z" />
        <path fill="var(--shirt-color, grey)" opacity="1.00"
            d=" M 400.99 388.25 C 404.65 392.03 408.96 395.22 413.95 397.01 C 436.34 405.51 455.79 420.10 478.15 428.68 C 485.40 431.01 492.35 434.19 499.55 436.70 C 512.92 441.81 526.86 445.34 540.96 447.77 C 550.82 449.30 561.79 450.11 570.64 444.62 C 577.36 440.89 581.31 433.94 584.05 427.02 C 589.21 431.10 594.92 436.41 602.04 435.37 C 604.33 432.91 604.01 429.20 604.71 426.13 C 605.31 434.13 607.20 442.05 610.70 449.29 C 614.78 458.79 620.91 467.60 622.61 477.97 C 623.45 482.18 622.02 486.37 619.99 490.01 C 617.89 494.47 613.98 498.77 614.67 503.99 C 617.61 511.86 623.95 517.80 627.88 525.14 C 631.49 532.48 628.98 541.72 623.34 547.31 C 619.37 550.69 614.03 551.60 609.08 552.57 C 588.52 555.91 567.08 555.05 547.20 548.58 C 529.66 543.89 513.72 534.95 498.06 526.02 C 485.41 518.83 473.31 510.74 460.98 503.04 C 459.11 501.77 456.92 501.17 454.72 500.80 C 456.63 505.83 461.99 507.99 465.96 511.12 C 483.70 522.82 500.94 535.60 520.36 544.46 C 514.85 544.52 509.45 545.78 503.97 546.17 C 495.27 546.46 486.73 543.80 479.02 539.94 C 469.41 535.05 458.81 531.70 447.99 531.32 C 437.32 532.23 426.35 532.89 415.91 529.98 C 412.58 529.11 410.25 526.05 409.28 522.88 C 408.03 518.39 408.04 513.68 408.08 509.06 C 408.09 502.28 410.19 495.72 410.28 488.96 C 410.33 484.46 409.60 479.99 408.52 475.64 C 407.22 470.23 403.28 465.74 402.96 460.05 C 401.56 445.75 404.77 431.41 403.38 417.09 C 402.75 411.11 402.55 405.07 401.33 399.17 C 400.48 395.58 400.71 391.88 400.99 388.25 M 408.84 436.53 C 411.22 436.70 413.61 436.47 415.99 436.23 C 423.08 435.51 430.10 438.18 435.87 442.15 C 444.91 448.34 453.21 455.54 462.24 461.76 C 489.83 481.09 518.79 498.67 549.64 512.31 C 558.37 515.94 567.39 519.95 577.02 519.94 C 578.42 520.14 581.89 518.45 579.85 516.99 C 564.16 514.63 550.00 506.97 535.96 499.99 C 503.73 483.43 473.19 463.63 444.42 441.63 C 437.62 436.58 429.85 431.59 421.01 432.07 C 416.74 432.29 411.33 432.43 408.84 436.53 M 589.00 471.03 C 582.60 474.52 575.09 474.87 567.97 474.94 C 556.94 474.90 545.94 474.11 534.92 473.67 C 529.51 473.55 524.15 472.43 518.75 472.62 C 516.79 474.26 519.90 475.36 521.06 475.91 C 525.59 477.25 530.34 477.52 535.01 478.08 C 549.93 479.64 565.12 481.67 580.04 479.07 C 589.34 477.53 598.27 471.28 601.06 461.98 C 600.81 461.46 600.31 460.40 600.07 459.88 C 597.15 464.25 593.61 468.39 589.00 471.03 Z" />
    </g>
    <g id="#ffffffff">
        <path fill="var(--pants-color, grey)" opacity="1.00"
            d=" M 420.31 535.26 C 428.09 536.52 436.03 536.88 443.89 536.25 C 451.29 535.50 458.56 537.59 465.58 539.64 C 475.42 543.05 484.47 549.00 495.05 550.06 C 506.09 552.32 516.76 546.48 527.82 547.91 C 532.36 549.28 536.78 551.09 541.35 552.40 C 544.07 553.13 546.65 554.35 548.81 556.17 C 556.30 562.29 563.64 568.60 570.51 575.42 C 576.28 580.65 581.37 586.96 588.49 590.45 C 588.41 589.09 587.97 587.89 587.18 586.84 C 578.12 576.04 568.74 565.34 557.50 556.74 C 568.47 559.17 579.78 559.79 590.99 559.54 C 600.16 559.11 609.41 558.15 618.18 555.33 C 621.93 554.19 625.23 551.95 627.91 549.12 C 633.10 555.81 637.03 563.54 639.11 571.77 C 642.17 584.92 642.87 598.48 642.81 611.94 C 642.32 628.78 644.46 645.55 647.25 662.12 C 648.77 671.11 644.85 680.10 646.91 689.06 C 647.96 694.68 651.25 699.47 654.49 704.05 C 645.26 709.61 636.64 716.22 626.83 720.79 C 623.70 722.23 620.10 723.37 616.71 722.14 C 610.00 719.85 604.89 714.64 598.84 711.15 C 590.87 706.49 582.56 702.01 573.40 700.29 C 568.43 699.34 563.29 698.15 559.20 695.00 C 557.37 675.70 554.91 656.30 549.13 637.73 C 546.62 630.31 543.46 622.85 538.13 616.99 C 536.21 614.68 533.35 613.62 530.56 612.80 C 530.65 600.46 528.77 587.87 523.19 576.75 C 522.52 575.15 521.08 574.16 519.59 573.42 C 519.77 577.51 521.95 581.11 522.91 585.03 C 525.63 593.76 525.92 602.99 525.86 612.06 C 525.88 615.66 524.55 619.06 522.92 622.22 C 520.78 607.37 512.88 593.97 502.94 582.99 C 491.30 570.37 476.21 560.40 459.25 556.86 C 451.30 555.24 442.70 555.09 435.14 558.36 C 433.05 559.39 430.27 560.47 430.22 563.24 C 435.12 562.09 439.86 560.09 444.96 559.92 C 458.86 559.11 472.28 564.73 483.68 572.26 C 499.59 582.95 512.90 598.60 517.94 617.37 C 514.21 607.57 508.10 598.62 499.56 592.41 C 488.37 583.11 473.26 579.78 459.00 581.00 C 451.47 581.69 443.83 583.19 437.20 586.96 C 427.75 592.38 418.18 598.87 413.00 608.79 C 409.82 613.71 408.71 619.56 407.48 625.20 C 400.90 613.11 399.48 598.47 403.20 585.26 C 404.11 581.86 405.85 578.65 406.01 575.08 C 405.99 572.13 405.47 569.15 406.12 566.24 C 408.48 554.99 414.14 544.83 420.31 535.26 M 532.31 569.47 C 536.64 575.44 542.51 580.12 546.77 586.17 C 558.63 602.74 564.71 622.41 573.44 640.63 C 579.63 654.16 587.77 667.08 599.08 676.91 C 600.17 678.08 601.79 677.82 603.23 677.67 C 589.75 665.07 581.52 648.14 574.47 631.37 C 568.27 616.24 561.87 600.99 552.36 587.59 C 548.13 581.58 542.74 576.53 537.14 571.83 C 535.72 570.72 534.27 569.28 532.31 569.47 Z" />
        <path fill="#ffffff" opacity="1.00"
            d=" M 499.19 640.62 C 503.71 634.98 508.82 629.79 514.66 625.52 C 513.92 630.45 512.22 636.00 507.58 638.60 C 505.08 640.21 502.07 640.44 499.19 640.62 Z" />
        <path fill="var(--socks-color, grey)" opacity="1.00"
            d=" M 459.90 712.52 C 468.80 710.75 478.19 708.68 485.39 702.79 C 490.73 711.61 497.35 719.62 502.18 728.77 C 510.53 744.50 517.82 760.87 522.90 777.97 C 526.33 789.81 529.28 801.79 533.32 813.45 C 539.44 832.14 546.82 850.40 554.56 868.47 C 557.04 874.81 560.65 880.71 562.14 887.42 C 553.98 889.80 546.02 885.10 539.81 880.22 C 535.08 877.09 529.99 873.07 523.96 873.79 C 518.74 874.64 515.19 879.17 513.83 884.04 C 507.68 865.88 498.39 848.99 488.13 832.86 C 480.44 820.38 470.26 809.55 463.62 796.40 C 455.48 781.30 452.59 764.21 446.92 748.19 C 442.83 735.94 433.33 725.91 431.65 712.80 C 440.93 715.05 450.58 714.01 459.90 712.52 Z" />
        <path fill="var(--socks-color, grey)" opacity="1.00"
            d=" M 670.86 707.29 C 683.37 713.39 691.93 725.85 695.88 738.95 C 700.50 754.62 703.23 770.98 710.40 785.80 C 714.82 794.43 719.50 804.09 716.83 814.02 C 713.79 823.79 707.50 832.43 699.72 839.00 C 697.86 840.73 695.14 839.99 693.27 838.73 C 684.39 833.63 679.77 824.10 673.79 816.22 C 660.16 796.35 640.13 781.65 628.03 760.61 C 638.74 763.59 650.68 761.26 659.46 754.43 C 673.13 744.49 678.28 725.06 672.19 709.45 C 671.86 708.91 671.19 707.83 670.86 707.29 Z" />
    </g>
    <g id="#4d4d4dff">
        <path fill="#4d4d4d" opacity="1.00"
            d=" M 712.22 777.96 C 717.22 778.62 723.11 779.20 726.32 783.66 C 731.72 790.15 730.52 799.16 730.08 806.98 C 728.75 819.90 728.68 832.99 730.39 845.88 C 731.98 856.19 734.85 866.45 734.34 876.98 C 733.65 889.91 728.21 901.99 722.15 913.23 C 717.67 920.95 712.34 928.84 704.29 933.17 C 697.72 936.82 688.00 933.30 686.26 925.73 C 682.81 911.72 686.05 897.25 685.26 883.06 C 684.94 876.62 682.74 870.45 682.38 864.02 C 681.88 854.54 680.33 845.03 681.61 835.56 C 686.72 839.78 692.89 845.69 700.11 843.25 C 705.89 840.66 709.77 835.21 713.05 830.00 C 717.25 822.94 721.27 815.34 721.98 807.01 C 722.25 796.40 715.76 787.53 712.22 777.96 Z" />
        <path fill="#4d4d4d" opacity="1.00"
            d=" M 520.20 881.27 C 521.61 879.06 524.43 877.83 527.00 878.55 C 530.23 879.39 532.99 881.37 535.70 883.26 C 541.77 887.86 548.38 892.37 556.11 893.41 C 560.09 894.07 563.90 891.62 567.83 892.26 C 572.77 895.00 575.55 900.20 578.18 904.97 C 581.57 911.37 585.37 918.45 583.96 925.93 C 583.43 929.33 579.95 931.09 576.88 931.65 C 572.58 932.35 568.25 932.86 563.96 933.59 C 565.82 930.12 569.82 927.63 570.28 923.56 C 567.89 922.94 565.94 924.88 564.24 926.24 C 558.99 930.66 558.08 937.89 554.38 943.36 C 550.70 948.87 546.09 953.83 540.63 957.61 C 534.81 961.66 527.89 963.72 521.01 965.07 C 515.02 966.25 508.41 965.24 503.42 961.61 C 499.70 959.07 498.39 954.27 498.36 950.00 C 498.94 943.36 503.36 938.08 506.23 932.32 C 511.00 922.49 512.99 911.64 514.63 900.93 C 515.90 894.26 516.18 887.02 520.20 881.27 Z" />
    </g>
</svg>