<?xml version="1.0" encoding="UTF-8" ?>
<!DOCTYPE svg PUBLIC "-//W3C//DTD SVG 1.1//EN" "http://www.w3.org/Graphics/SVG/1.1/DTD/svg11.dtd">
<svg width="1000pt" height="1000pt" viewBox="0 0 1000 1000" version="1.1" xmlns="http://www.w3.org/2000/svg">
    <g id="#020202ff">
        <path fill="#020202" opacity="1.00"
            d=" M 350.93 19.94 C 364.43 11.77 380.52 9.26 396.07 9.11 C 412.29 8.63 428.15 14.51 441.42 23.59 C 451.03 28.56 456.38 38.38 461.83 47.24 C 466.10 52.90 471.07 58.01 475.27 63.73 C 476.10 64.73 476.24 65.85 475.70 67.08 C 471.90 68.39 467.91 66.67 464.14 66.02 C 468.37 71.94 471.76 78.39 475.37 84.70 C 478.31 90.09 481.18 95.81 481.60 102.04 C 482.02 109.02 477.43 115.02 477.15 121.89 C 476.94 125.56 477.16 129.34 475.95 132.87 C 474.47 137.54 470.93 141.10 467.63 144.56 C 463.57 148.75 459.76 153.17 455.67 157.32 C 457.35 162.38 458.76 167.53 459.66 172.79 C 460.74 178.24 462.34 184.43 467.40 187.53 C 470.33 189.44 473.73 187.61 476.90 187.69 C 482.18 187.86 487.38 189.44 491.97 192.04 C 497.11 194.74 499.99 200.25 505.22 202.85 C 514.51 207.75 525.32 208.58 534.75 213.19 C 545.85 218.03 554.40 227.26 560.36 237.61 C 564.77 246.04 569.11 254.53 572.55 263.42 C 577.68 275.34 584.30 286.59 591.78 297.19 C 601.70 310.47 613.32 322.98 619.28 338.72 C 620.44 342.55 621.85 346.72 620.50 350.69 C 619.38 354.18 617.34 357.26 615.60 360.45 C 618.92 363.49 619.04 368.21 619.44 372.38 C 620.57 400.94 618.16 429.46 617.90 458.02 C 618.03 461.35 617.70 464.87 618.96 468.03 C 620.87 470.85 624.16 472.24 626.84 474.21 C 632.14 477.70 635.70 483.07 639.80 487.79 C 641.74 484.83 643.25 481.31 646.28 479.28 C 648.83 477.88 651.38 480.07 652.95 481.94 C 655.86 485.47 658.74 489.13 660.64 493.33 C 662.71 498.06 660.35 503.12 658.39 507.46 C 656.41 512.19 651.79 515.18 650.02 520.02 C 646.53 528.51 639.10 535.10 630.64 538.40 C 625.34 540.39 620.85 535.93 617.77 532.23 C 610.83 523.29 602.89 514.61 599.62 503.52 C 597.05 494.76 593.64 486.22 591.83 477.26 C 588.62 457.56 583.56 438.19 577.28 419.26 C 570.08 421.13 562.63 421.50 555.23 421.53 C 557.62 433.19 559.42 445.04 559.07 456.97 C 558.43 467.96 562.95 478.25 566.68 488.32 C 569.20 495.20 570.66 502.43 571.27 509.73 C 571.86 516.81 576.04 523.74 573.83 530.92 C 571.46 537.42 566.41 542.49 560.98 546.59 C 561.64 547.93 562.35 549.26 562.91 550.66 C 563.95 553.48 564.95 556.32 565.90 559.18 C 569.27 568.49 567.05 578.47 568.54 588.05 C 569.84 596.91 572.90 605.40 576.48 613.57 C 583.02 628.72 588.96 644.18 593.20 660.13 C 593.04 663.65 589.06 665.42 586.85 667.77 C 586.65 678.39 588.11 688.99 591.42 699.09 C 601.37 694.98 613.07 691.84 623.39 696.56 C 629.86 699.68 635.56 704.25 642.35 706.79 C 638.66 699.55 643.01 689.54 651.08 687.83 C 658.99 686.28 667.49 689.19 673.28 694.71 C 681.22 702.23 687.19 711.49 694.26 719.77 C 699.08 725.57 705.25 730.19 709.34 736.60 C 716.06 746.75 718.44 759.00 719.80 770.91 C 720.97 781.96 723.43 793.01 722.52 804.18 C 722.08 810.11 719.49 816.02 714.66 819.66 C 709.79 823.77 702.47 825.46 696.70 822.23 C 688.02 817.55 682.21 809.28 675.91 801.96 C 669.71 794.89 663.86 787.52 657.60 780.50 C 654.73 777.32 652.13 773.77 648.52 771.39 C 645.93 770.13 642.90 770.43 640.14 769.80 C 634.06 768.51 628.00 766.90 621.74 766.91 C 610.51 766.15 599.26 766.41 588.01 766.65 C 577.98 766.60 567.43 767.27 558.11 762.84 C 545.83 757.22 537.86 745.82 528.57 736.51 C 516.83 737.81 504.58 735.44 494.18 729.84 C 489.10 725.97 483.47 721.95 481.14 715.73 C 476.09 703.96 469.80 692.78 463.00 681.94 C 460.92 693.95 457.79 706.56 449.70 716.03 C 442.17 712.53 434.90 708.51 427.78 704.26 C 421.45 715.69 417.41 728.95 419.31 742.10 C 420.04 749.73 423.36 756.72 426.39 763.65 C 430.78 773.74 435.35 783.80 438.41 794.40 C 441.74 806.29 443.15 818.68 442.92 831.02 C 443.05 844.06 441.77 857.16 443.28 870.15 C 444.99 885.87 453.36 899.70 457.42 914.80 C 459.95 924.08 463.03 934.19 459.77 943.68 C 458.19 948.83 453.26 951.88 448.47 953.62 C 442.03 955.68 434.93 954.90 428.69 957.77 C 417.65 962.73 407.94 970.25 396.68 974.79 C 382.90 980.44 368.05 985.24 352.96 983.62 C 346.24 982.67 338.61 980.17 335.38 973.66 C 332.63 967.72 335.17 960.88 339.25 956.25 C 345.24 949.41 353.18 944.75 360.60 939.65 C 369.33 933.89 377.14 926.80 384.10 919.01 C 387.06 915.56 390.01 911.96 391.68 907.69 C 393.32 903.13 391.50 898.09 388.60 894.47 C 382.93 887.56 379.42 879.23 375.94 871.09 C 363.54 838.88 352.96 805.49 350.58 770.86 C 348.59 756.67 349.66 742.27 348.03 728.06 C 347.39 720.75 343.18 714.31 342.79 706.97 C 342.58 705.29 342.70 703.54 342.22 701.92 C 339.84 698.93 336.38 696.16 336.41 691.97 C 335.22 674.23 347.37 659.33 348.89 642.07 C 349.64 636.05 345.98 630.78 345.57 624.91 C 344.72 614.97 347.48 604.90 351.81 596.07 C 352.65 595.47 353.01 594.69 352.90 593.71 L 352.26 593.33 C 349.93 591.55 348.81 588.66 347.85 585.99 C 344.47 575.32 345.27 563.99 344.51 552.97 C 343.26 529.81 342.58 506.58 339.72 483.54 C 338.71 472.98 336.41 462.57 335.93 451.95 C 333.27 456.39 330.74 460.91 328.66 465.65 C 323.74 476.29 317.25 486.24 313.61 497.44 C 311.84 502.14 316.20 505.80 318.83 509.08 C 324.26 515.58 331.90 522.42 330.23 531.83 C 333.26 533.20 338.05 534.58 337.69 538.77 C 336.70 543.95 331.66 546.99 327.32 549.24 C 319.55 553.31 310.50 552.85 302.03 552.18 C 297.11 551.60 292.10 551.14 287.39 549.50 C 283.21 548.07 280.40 544.38 278.34 540.66 C 274.05 532.81 270.72 524.46 267.94 515.97 C 265.64 508.87 265.74 500.90 269.09 494.14 C 274.12 483.46 280.55 473.50 286.08 463.07 C 291.72 452.00 295.39 440.05 298.25 427.99 C 299.75 422.14 300.69 416.10 303.32 410.61 C 300.04 406.22 298.63 400.63 299.49 395.20 C 300.68 387.63 302.99 380.28 305.11 372.93 C 309.20 360.76 310.85 347.76 309.76 334.96 C 308.90 322.68 306.50 310.22 309.11 297.99 C 311.13 288.49 317.42 280.76 321.12 271.95 C 323.89 262.94 323.36 253.31 325.45 244.15 C 327.53 235.31 333.73 228.15 340.44 222.34 C 347.52 216.02 356.65 212.67 363.87 206.52 C 357.29 199.86 350.60 193.00 346.56 184.44 C 342.91 177.33 342.84 169.17 341.74 161.42 C 340.84 155.29 339.81 149.19 339.05 143.04 C 338.40 138.81 338.17 134.16 335.29 130.73 C 327.59 121.03 320.80 110.44 316.41 98.82 C 311.37 84.15 315.14 67.98 322.66 54.88 C 320.00 53.96 315.46 53.71 315.49 49.96 C 319.44 46.28 325.17 44.97 328.71 40.72 C 335.32 33.04 341.67 24.61 350.93 19.94 M 409.52 86.54 C 402.16 92.33 394.46 97.80 385.95 101.76 C 385.37 101.24 384.23 100.19 383.66 99.67 C 381.98 100.47 380.29 101.27 378.61 102.07 C 378.36 99.70 378.03 97.34 377.59 95.00 C 373.10 97.82 368.47 100.36 363.83 102.91 C 358.51 105.95 354.71 111.37 348.87 113.46 C 348.09 112.12 347.52 110.68 346.67 109.39 C 343.99 107.93 340.98 107.26 338.07 106.42 C 336.84 108.77 335.30 111.20 335.50 113.97 C 335.88 118.89 338.45 123.22 340.20 127.73 C 341.75 131.49 342.44 135.50 343.19 139.47 C 350.72 137.95 358.24 134.88 366.00 135.54 C 366.58 142.94 366.87 150.48 365.52 157.81 C 363.52 154.80 364.05 151.05 363.80 147.63 C 357.41 148.62 351.05 149.82 344.66 150.88 C 346.02 158.63 346.79 166.47 347.96 174.24 C 349.44 184.19 356.34 192.04 363.13 198.96 C 370.20 206.21 377.25 213.51 384.88 220.17 C 386.54 221.40 388.65 223.70 390.82 222.12 C 395.38 219.38 398.75 215.12 403.09 212.07 C 410.97 206.48 419.52 201.92 427.61 196.65 C 433.43 192.90 438.94 188.19 441.81 181.73 C 445.16 175.72 446.12 168.59 450.17 162.97 C 450.75 167.14 449.16 171.11 447.99 175.02 C 446.40 179.86 445.19 184.96 442.22 189.19 C 439.62 192.86 436.14 195.80 432.56 198.47 C 422.01 206.07 410.05 211.67 400.24 220.29 C 396.49 223.42 392.43 226.97 387.24 226.92 C 386.47 231.12 385.57 235.63 387.20 239.75 C 389.10 244.21 392.49 248.35 397.28 249.79 C 405.24 252.79 413.84 250.15 421.40 247.21 C 436.79 240.45 448.87 227.80 457.49 213.59 C 461.86 207.22 464.44 199.92 467.34 192.82 C 464.84 190.96 462.26 189.09 460.58 186.40 C 455.78 179.72 456.27 171.06 453.61 163.57 C 452.49 160.25 450.88 156.66 452.14 153.14 C 453.74 148.27 457.72 144.77 460.82 140.85 C 465.72 135.04 468.05 127.43 468.52 119.94 C 468.62 117.45 468.38 114.32 465.96 112.95 C 463.72 111.82 460.24 111.03 458.56 113.48 C 454.38 118.68 454.92 125.69 452.50 131.63 C 450.96 136.25 448.50 140.52 445.37 144.24 C 444.91 134.81 444.09 125.18 440.55 116.34 C 439.11 112.61 436.71 109.34 433.59 106.85 C 432.54 109.71 431.32 112.49 429.86 115.16 C 427.37 105.02 422.64 95.19 415.11 87.83 C 413.68 86.41 411.33 84.72 409.52 86.54 M 465.85 209.91 C 458.34 223.68 448.89 236.89 435.84 245.91 C 427.40 251.97 417.42 255.99 407.04 256.98 C 397.97 257.66 387.96 253.55 383.87 245.01 C 380.29 238.88 381.52 231.39 384.11 225.14 C 377.79 220.21 372.03 214.62 366.36 208.96 C 361.42 214.71 354.98 218.68 348.60 222.60 C 342.08 227.28 335.93 232.94 332.28 240.21 C 329.35 246.00 329.44 252.63 328.51 258.90 C 327.36 266.82 325.73 274.88 321.82 281.95 C 318.65 287.89 314.94 293.75 313.75 300.48 C 311.92 310.79 313.77 321.22 314.72 331.52 C 315.52 339.84 315.62 348.26 314.38 356.54 C 312.95 367.62 308.57 377.99 305.78 388.74 C 303.97 394.32 303.02 400.31 304.65 406.05 C 313.15 410.90 321.80 415.67 331.21 418.52 C 330.54 395.02 329.34 371.52 329.19 348.00 C 329.64 335.59 330.46 323.15 332.27 310.86 C 332.81 308.05 332.99 304.81 335.45 302.91 C 334.94 322.26 333.38 341.65 334.56 361.02 C 335.12 380.72 336.13 400.40 336.56 420.11 C 336.87 425.43 338.15 430.63 338.78 435.92 C 339.74 445.30 340.80 454.67 341.91 464.04 C 347.70 499.71 348.79 535.92 350.01 571.97 C 350.51 577.06 350.87 582.36 352.96 587.10 C 355.15 590.32 359.01 592.65 363.01 592.19 C 385.22 590.11 406.29 582.26 427.91 577.27 C 438.57 574.81 449.56 574.67 460.43 574.17 C 452.09 571.91 443.54 570.34 435.39 567.46 C 427.74 564.46 421.80 558.59 415.20 553.91 C 402.24 544.52 387.93 537.27 373.88 529.73 C 378.83 528.80 383.27 531.51 387.57 533.51 C 396.94 538.25 406.14 543.37 414.97 549.05 C 423.60 554.49 430.71 562.83 441.01 565.22 C 454.35 568.32 467.67 571.54 480.99 574.77 C 490.41 576.71 499.86 578.68 508.96 581.86 C 513.93 583.56 519.43 585.32 524.63 583.52 C 528.74 581.88 530.17 577.19 531.28 573.31 C 532.68 567.68 532.83 560.76 538.30 557.29 C 548.84 550.14 561.40 544.41 567.66 532.63 C 570.76 528.31 569.11 522.92 567.73 518.31 C 565.28 510.46 566.16 502.03 563.65 494.20 C 560.88 485.84 557.42 477.67 555.40 469.07 C 553.68 461.85 554.95 454.40 554.28 447.09 C 553.66 437.03 551.36 427.18 549.29 417.35 C 546.84 409.58 542.07 402.69 540.27 394.68 C 538.98 389.93 539.33 384.98 539.23 380.12 C 537.35 373.35 531.25 369.10 525.96 365.03 C 517.70 358.94 510.39 351.16 506.27 341.66 C 503.68 335.79 503.08 329.34 501.61 323.16 C 500.66 318.95 499.15 314.88 498.46 310.62 C 499.96 312.47 501.43 314.42 502.24 316.70 C 505.33 324.81 506.53 333.60 510.63 341.34 C 515.20 350.02 522.22 357.13 529.87 363.16 C 534.13 366.49 537.81 370.48 540.75 375.02 C 540.97 360.39 532.29 347.80 527.55 334.48 C 531.45 337.73 534.13 342.12 536.40 346.60 C 539.73 353.18 542.83 359.95 544.57 367.14 C 545.73 371.70 544.73 376.38 544.25 380.95 C 543.63 386.57 544.46 392.31 546.50 397.57 C 548.97 404.00 552.52 409.99 554.47 416.63 C 560.65 416.15 566.93 416.21 573.00 414.75 C 584.29 412.44 595.64 406.83 601.82 396.73 C 607.48 385.56 604.70 372.29 609.57 360.85 C 611.21 356.02 615.50 352.74 617.34 348.05 C 617.54 342.28 614.19 337.27 611.61 332.37 C 603.34 317.45 590.61 305.70 581.73 291.19 C 576.93 284.11 572.91 276.53 569.14 268.86 C 564.27 257.58 559.94 245.97 553.58 235.40 C 548.19 226.15 539.04 219.54 529.08 215.96 C 519.76 212.43 509.36 211.67 500.83 206.24 C 496.05 203.39 493.47 197.95 488.43 195.46 C 483.59 192.75 478.01 191.80 472.53 191.55 C 470.40 197.70 468.97 204.14 465.85 209.91 M 606.13 400.19 C 600.40 408.92 591.14 414.90 581.35 418.16 C 585.57 429.81 588.32 441.90 591.50 453.86 C 593.68 462.30 595.14 470.90 596.82 479.46 C 599.02 487.37 601.54 495.20 604.09 503.01 C 607.27 512.79 614.36 520.46 620.41 528.52 C 622.54 530.86 624.62 534.04 627.96 534.56 C 633.44 533.51 637.65 529.35 641.40 525.49 C 645.21 521.55 646.03 515.76 649.71 511.76 C 653.38 507.69 655.98 502.49 656.73 497.05 C 655.53 491.57 651.24 487.37 647.85 483.09 C 645.81 485.29 643.91 487.61 642.00 489.93 C 643.12 492.31 645.84 494.97 644.21 497.72 C 643.74 497.48 642.81 497.02 642.34 496.79 C 637.47 491.92 633.08 486.59 628.53 481.44 C 624.71 477.13 618.68 475.46 615.26 470.76 C 612.97 466.95 613.50 462.28 613.22 458.03 C 613.32 446.38 613.61 434.74 614.25 423.11 C 615.15 407.10 615.05 391.06 615.33 375.03 C 615.37 371.18 615.07 367.33 614.45 363.53 C 610.47 375.49 612.90 389.10 606.13 400.19 M 305.15 421.90 C 302.90 433.43 300.33 444.97 295.87 455.88 C 290.02 470.93 279.86 483.79 273.29 498.49 C 270.16 505.30 271.78 513.03 274.21 519.79 C 276.66 526.39 278.42 533.46 282.84 539.09 C 284.89 541.70 286.74 545.14 290.35 545.71 C 297.45 547.22 304.76 547.67 312.01 547.77 C 320.18 547.88 329.02 544.94 333.94 538.09 C 331.90 536.84 329.85 535.61 327.75 534.47 C 321.24 535.96 315.25 532.19 309.81 529.16 C 306.21 526.69 301.90 524.54 300.10 520.32 C 306.12 521.80 310.80 526.29 316.68 528.22 C 319.54 529.04 322.91 531.23 325.78 529.86 C 326.23 523.32 320.68 518.70 316.97 514.03 C 312.98 509.27 306.93 503.91 308.91 497.01 C 312.91 483.41 321.13 471.64 326.84 458.77 C 329.04 453.38 332.93 448.71 334.21 442.98 C 333.10 436.65 332.18 430.29 331.49 423.90 C 322.72 422.42 314.90 418.06 307.48 413.37 C 306.50 416.15 305.67 418.99 305.15 421.90 M 544.36 558.31 C 541.70 560.15 538.50 561.99 537.61 565.33 C 535.67 573.00 534.88 582.90 527.03 587.03 C 520.92 589.79 514.01 588.17 507.94 586.16 C 499.38 583.41 490.60 581.42 481.81 579.57 C 476.55 578.71 471.19 579.03 465.90 578.45 C 455.82 577.48 445.90 579.92 435.94 580.98 C 442.75 583.30 449.41 586.02 455.92 589.08 C 469.47 595.56 483.22 601.69 497.49 606.42 C 499.44 606.98 501.21 608.01 502.71 609.40 C 498.45 610.36 494.23 608.98 490.21 607.72 C 476.08 603.07 462.44 597.11 448.89 591.03 C 442.23 588.03 435.32 585.63 428.81 582.31 C 407.31 586.38 386.96 595.72 365.04 597.83 C 361.77 598.18 358.50 597.60 355.45 596.44 C 352.05 605.18 348.62 614.36 349.54 623.91 C 349.91 629.82 353.81 634.96 353.42 641.00 C 352.72 658.41 341.00 673.16 340.45 690.63 C 345.50 683.77 353.34 679.02 361.86 678.14 C 377.85 676.23 393.49 681.75 407.88 688.13 C 421.84 694.79 435.45 702.29 447.96 711.42 C 450.43 705.99 452.93 700.54 454.65 694.82 C 456.64 688.16 458.80 681.23 457.64 674.21 C 457.01 672.43 455.21 671.39 453.91 670.13 C 440.00 659.50 425.07 650.12 409.08 642.94 C 396.57 637.65 382.81 634.08 369.16 636.18 C 369.34 634.63 369.94 633.10 371.67 632.82 C 383.22 629.43 395.37 632.71 406.43 636.40 C 423.04 642.73 438.09 652.55 452.33 663.08 C 448.17 655.68 444.69 647.92 440.22 640.70 C 437.10 635.63 434.48 630.01 434.38 623.96 C 434.28 620.76 434.20 616.54 437.79 615.21 C 435.65 622.88 438.73 630.70 442.85 637.12 C 449.36 646.95 454.11 657.77 460.13 667.89 C 468.85 683.53 479.59 698.16 485.90 715.05 C 483.98 704.74 486.12 694.33 486.13 683.97 C 486.03 668.89 485.64 653.75 483.04 638.88 C 482.35 636.44 485.67 636.91 486.16 638.64 C 488.52 644.42 489.11 650.74 490.10 656.86 C 491.57 672.20 490.77 687.65 489.21 702.95 C 488.72 710.64 489.03 720.18 495.79 725.24 C 503.30 729.86 512.11 732.67 521.00 732.16 C 529.30 732.04 537.20 727.79 542.45 721.47 C 547.36 715.61 551.79 709.37 556.22 703.14 C 562.78 693.84 567.06 683.08 574.20 674.17 C 578.74 668.86 583.59 663.61 589.72 660.11 C 586.93 655.13 586.15 649.38 583.87 644.19 C 580.01 633.32 575.63 622.64 570.94 612.10 C 565.77 600.50 562.42 587.80 563.43 575.01 C 564.11 565.88 560.99 557.16 558.27 548.61 C 553.71 551.96 549.13 555.27 544.36 558.31 M 559.60 707.57 C 555.25 713.52 550.82 719.43 546.12 725.10 C 542.60 729.40 537.95 732.60 532.97 734.97 C 539.72 741.24 545.22 748.81 552.51 754.50 C 558.56 759.37 566.27 761.87 573.99 762.06 C 581.37 762.17 588.75 762.26 596.13 761.90 C 605.43 754.57 608.90 742.28 609.97 730.96 C 610.73 720.34 609.27 708.21 601.01 700.61 C 598.16 701.20 595.32 701.79 592.48 702.39 C 594.09 707.31 596.25 712.07 597.28 717.17 C 595.91 716.86 594.38 716.57 593.86 715.07 C 586.53 701.65 582.24 686.30 583.75 670.93 C 573.27 681.45 568.35 695.81 559.60 707.57 M 347.85 688.06 C 348.30 693.74 346.85 699.35 347.13 705.03 C 347.11 709.23 348.41 713.27 349.82 717.17 C 352.79 725.26 353.54 733.94 353.72 742.49 C 364.17 746.99 375.94 747.40 387.02 745.36 C 396.41 743.47 405.08 739.09 413.29 734.29 C 413.72 722.83 417.46 711.49 423.95 702.04 C 409.83 694.18 395.15 686.78 379.21 683.45 C 368.69 681.42 356.76 681.18 347.85 688.06 M 341.53 694.79 C 341.89 695.32 342.61 696.40 342.97 696.94 C 343.18 695.33 343.38 693.71 343.60 692.12 C 342.91 693.00 342.22 693.89 341.53 694.79 M 647.30 705.65 C 648.71 708.60 652.12 709.19 654.86 710.33 C 658.95 711.81 662.02 715.03 665.02 718.03 C 675.60 728.52 677.09 746.52 668.93 758.86 C 665.39 764.09 659.96 767.68 654.24 770.14 C 665.60 781.02 675.50 793.28 685.92 805.02 C 690.58 810.13 695.16 816.12 702.00 818.30 C 709.49 819.40 716.53 812.87 717.42 805.60 C 718.82 795.41 716.55 785.21 715.44 775.11 C 714.18 764.02 712.91 752.53 707.38 742.63 C 704.71 737.54 700.72 733.34 696.56 729.45 C 686.46 720.06 679.81 707.67 669.92 698.09 C 665.52 693.89 659.21 691.71 653.17 692.38 C 647.31 693.07 643.57 700.86 647.30 705.65 M 605.42 699.71 C 612.15 706.25 614.63 715.89 614.94 725.01 C 615.41 737.93 612.21 751.48 603.89 761.63 C 612.63 761.71 621.42 761.80 630.04 763.37 C 636.37 764.46 642.61 766.25 649.06 766.47 C 651.97 765.97 654.58 764.44 657.22 763.19 C 663.34 760.33 666.73 753.80 668.29 747.52 C 669.65 740.67 669.43 733.11 666.15 726.82 C 662.98 722.72 659.29 718.87 655.01 715.93 C 648.79 712.75 641.42 712.89 635.23 709.63 C 628.91 706.84 623.82 701.66 616.99 700.03 C 613.21 698.92 609.26 699.35 605.42 699.71 M 353.88 748.17 C 354.05 761.82 355.88 775.38 357.79 788.88 C 361.02 811.38 368.06 833.07 375.78 854.37 C 379.98 866.55 384.50 878.74 391.14 889.83 C 393.29 892.82 395.69 896.97 399.89 896.84 C 406.81 897.25 413.89 897.92 420.30 900.77 C 425.66 903.23 430.44 906.76 435.63 909.53 C 438.41 910.89 441.69 912.10 444.76 910.92 C 446.58 910.36 448.72 909.21 448.81 907.04 C 448.58 899.19 444.06 892.46 442.01 885.06 C 434.21 861.59 440.80 836.58 437.20 812.55 C 435.05 794.63 427.54 778.04 420.25 761.73 C 417.02 754.67 414.31 747.28 413.64 739.49 C 396.51 751.19 373.54 756.06 353.88 748.17 M 397.03 900.66 C 397.48 904.68 397.51 908.93 395.53 912.60 C 391.27 921.15 384.21 927.86 377.32 934.31 C 367.47 943.43 355.06 949.19 345.18 958.25 C 341.54 961.73 337.77 967.29 340.66 972.34 C 344.62 977.61 351.87 978.56 358.01 978.75 C 373.57 978.43 388.44 972.80 402.31 966.15 C 411.30 961.72 419.48 955.65 428.91 952.14 C 435.66 949.55 443.22 950.66 449.89 947.84 C 452.96 946.60 455.18 943.75 455.62 940.48 C 457.32 930.54 453.97 920.75 451.80 911.17 C 448.61 913.48 445.10 916.01 440.94 915.67 C 433.53 915.17 427.69 910.03 421.30 906.82 C 413.88 902.70 405.28 901.87 397.03 900.66 Z" />
        <path fill="#020202" opacity="1.00"
            d=" M 381.85 132.41 C 392.87 130.57 403.96 129.03 415.05 127.63 C 417.54 127.11 417.11 130.51 417.37 132.02 C 417.14 134.41 418.65 138.77 415.09 139.02 C 407.77 140.42 400.37 141.31 393.01 142.43 C 390.01 142.81 386.99 143.46 383.96 143.20 C 382.40 139.83 382.39 136.01 381.85 132.41 Z" />
        <path fill="#020202" opacity="1.00"
            d=" M 375.65 166.60 C 378.18 163.81 380.90 161.23 383.82 158.85 C 381.31 163.41 379.60 168.42 376.61 172.70 C 372.74 172.19 369.40 169.64 365.87 168.07 C 363.18 167.43 364.21 162.56 366.96 163.34 C 370.02 163.92 372.82 165.34 375.65 166.60 Z" />
        <path fill="#020202" opacity="1.00"
            d=" M 369.14 182.07 C 378.77 180.25 388.38 178.15 398.11 176.93 C 399.85 176.28 400.78 177.57 401.42 179.00 C 400.32 179.90 399.11 180.65 397.93 181.42 C 397.72 183.28 398.76 186.67 395.94 186.83 C 387.70 188.53 379.37 190.02 371.00 190.87 C 368.40 191.25 368.25 187.95 367.27 186.30 C 365.55 186.06 363.76 186.03 362.24 185.10 C 363.77 182.81 366.72 182.71 369.14 182.07 Z" />
        <path fill="#020202" opacity="1.00"
            d=" M 515.78 276.98 C 516.52 264.83 520.04 252.45 527.45 242.64 C 528.37 245.02 527.44 247.39 526.50 249.58 C 521.05 262.48 518.98 277.11 522.39 290.83 C 523.41 295.91 525.63 300.76 525.90 305.97 C 525.95 307.29 525.29 307.99 523.92 308.05 C 523.20 307.06 522.64 305.97 522.19 304.85 C 518.87 295.90 515.06 286.74 515.78 276.98 Z" />
        <path fill="#020202" opacity="1.00"
            d=" M 478.27 296.05 C 477.62 291.22 478.87 285.74 483.19 282.95 C 481.89 293.07 484.03 303.16 486.13 313.02 C 487.77 320.32 490.29 327.46 494.03 333.97 C 495.86 337.34 498.54 340.50 498.50 344.55 C 494.97 342.85 492.73 339.55 490.71 336.33 C 483.02 324.32 479.69 310.08 478.27 296.05 Z" />
        <path fill="#020202" opacity="1.00"
            d=" M 369.57 327.65 C 368.92 325.11 367.69 321.79 370.72 320.29 C 376.80 337.63 384.85 354.21 393.80 370.24 C 403.34 386.86 413.62 403.54 428.22 416.25 C 426.95 411.94 425.27 407.75 423.26 403.73 C 421.39 399.79 418.84 395.99 418.59 391.50 C 422.96 396.04 425.74 401.79 428.59 407.34 C 430.40 411.32 432.50 415.54 432.03 420.03 C 430.44 423.17 426.76 420.71 424.92 419.10 C 411.94 407.80 402.05 393.49 393.08 378.93 C 383.40 362.78 374.88 345.77 369.57 327.65 Z" />
        <path fill="#020202" opacity="1.00"
            d=" M 369.50 413.59 C 372.04 414.46 374.35 415.91 376.30 417.78 C 389.02 429.35 400.43 442.24 411.94 454.99 C 424.57 469.20 435.25 484.98 447.51 499.50 C 458.09 511.53 468.38 524.39 482.46 532.54 C 487.13 535.73 492.64 537.26 497.59 539.91 L 497.64 541.31 C 494.74 542.22 491.81 540.72 489.06 539.92 C 473.48 533.89 461.15 522.04 450.34 509.66 C 439.14 497.70 429.48 484.45 419.34 471.62 C 409.74 459.31 399.04 447.95 388.77 436.22 C 383.60 430.42 378.47 424.59 372.94 419.13 C 371.31 417.61 370.09 415.73 369.50 413.59 Z" />
        <path fill="#020202" opacity="1.00"
            d=" M 378.68 611.03 C 380.30 610.25 382.00 609.24 383.89 609.70 C 394.10 610.95 403.77 614.86 413.12 618.98 C 419.98 622.26 427.21 625.45 432.60 630.96 C 432.48 631.45 432.23 632.43 432.11 632.92 C 429.10 633.24 426.55 631.30 423.94 630.13 C 411.12 623.26 397.99 616.67 383.86 612.97 C 382.06 612.54 380.31 611.88 378.68 611.03 Z" />
    </g>
    <g id="#f0b58bff">
        <path fill="#f0b58b" opacity="1.00"
            d=" M 409.52 86.54 C 411.33 84.72 413.68 86.41 415.11 87.83 C 422.64 95.19 427.37 105.02 429.86 115.16 C 431.32 112.49 432.54 109.71 433.59 106.85 C 436.71 109.34 439.11 112.61 440.55 116.34 C 444.09 125.18 444.91 134.81 445.37 144.24 C 448.50 140.52 450.96 136.25 452.50 131.63 C 454.92 125.69 454.38 118.68 458.56 113.48 C 460.24 111.03 463.72 111.82 465.96 112.95 C 468.38 114.32 468.62 117.45 468.52 119.94 C 468.05 127.43 465.72 135.04 460.82 140.85 C 457.72 144.77 453.74 148.27 452.14 153.14 C 450.88 156.66 452.49 160.25 453.61 163.57 C 456.27 171.06 455.78 179.72 460.58 186.40 C 462.26 189.09 464.84 190.96 467.34 192.82 C 464.44 199.92 461.86 207.22 457.49 213.59 C 448.87 227.80 436.79 240.45 421.40 247.21 C 413.84 250.15 405.24 252.79 397.28 249.79 C 392.49 248.35 389.10 244.21 387.20 239.75 C 385.57 235.63 386.47 231.12 387.24 226.92 C 392.43 226.97 396.49 223.42 400.24 220.29 C 410.05 211.67 422.01 206.07 432.56 198.47 C 436.14 195.80 439.62 192.86 442.22 189.19 C 445.19 184.96 446.40 179.86 447.99 175.02 C 449.16 171.11 450.75 167.14 450.17 162.97 C 446.12 168.59 445.16 175.72 441.81 181.73 C 438.94 188.19 433.43 192.90 427.61 196.65 C 419.52 201.92 410.97 206.48 403.09 212.07 C 398.75 215.12 395.38 219.38 390.82 222.12 C 388.65 223.70 386.54 221.40 384.88 220.17 C 377.25 213.51 370.20 206.21 363.13 198.96 C 356.34 192.04 349.44 184.19 347.96 174.24 C 346.79 166.47 346.02 158.63 344.66 150.88 C 351.05 149.82 357.41 148.62 363.80 147.63 C 364.05 151.05 363.52 154.80 365.52 157.81 C 366.87 150.48 366.58 142.94 366.00 135.54 C 358.24 134.88 350.72 137.95 343.19 139.47 C 342.44 135.50 341.75 131.49 340.20 127.73 C 338.45 123.22 335.88 118.89 335.50 113.97 C 335.30 111.20 336.84 108.77 338.07 106.42 C 340.98 107.26 343.99 107.93 346.67 109.39 C 347.52 110.68 348.09 112.12 348.87 113.46 C 354.71 111.37 358.51 105.95 363.83 102.91 C 368.47 100.36 373.10 97.82 377.59 95.00 C 378.03 97.34 378.36 99.70 378.61 102.07 C 380.29 101.27 381.98 100.47 383.66 99.67 C 384.23 100.19 385.37 101.24 385.95 101.76 C 394.46 97.80 402.16 92.33 409.52 86.54 M 381.85 132.41 C 382.39 136.01 382.40 139.83 383.96 143.20 C 386.99 143.46 390.01 142.81 393.01 142.43 C 400.37 141.31 407.77 140.42 415.09 139.02 C 418.65 138.77 417.14 134.41 417.37 132.02 C 417.11 130.51 417.54 127.11 415.05 127.63 C 403.96 129.03 392.87 130.57 381.85 132.41 M 375.65 166.60 C 372.82 165.34 370.02 163.92 366.96 163.34 C 364.21 162.56 363.18 167.43 365.87 168.07 C 369.40 169.64 372.74 172.19 376.61 172.70 C 379.60 168.42 381.31 163.41 383.82 158.85 C 380.90 161.23 378.18 163.81 375.65 166.60 M 369.14 182.07 C 366.72 182.71 363.77 182.81 362.24 185.10 C 363.76 186.03 365.55 186.06 367.27 186.30 C 368.25 187.95 368.40 191.25 371.00 190.87 C 379.37 190.02 387.70 188.53 395.94 186.83 C 398.76 186.67 397.72 183.28 397.93 181.42 C 399.11 180.65 400.32 179.90 401.42 179.00 C 400.78 177.57 399.85 176.28 398.11 176.93 C 388.38 178.15 378.77 180.25 369.14 182.07 Z" />
        <path fill="#f0b58b" opacity="1.00"
            d=" M 606.13 400.19 C 612.90 389.10 610.47 375.49 614.45 363.53 C 615.07 367.33 615.37 371.18 615.33 375.03 C 615.05 391.06 615.15 407.10 614.25 423.11 C 613.61 434.74 613.32 446.38 613.22 458.03 C 613.50 462.28 612.97 466.95 615.26 470.76 C 618.68 475.46 624.71 477.13 628.53 481.44 C 633.08 486.59 637.47 491.92 642.34 496.79 C 642.81 497.02 643.74 497.48 644.21 497.72 C 645.84 494.97 643.12 492.31 642.00 489.93 C 643.91 487.61 645.81 485.29 647.85 483.09 C 651.24 487.37 655.53 491.57 656.73 497.05 C 655.98 502.49 653.38 507.69 649.71 511.76 C 646.03 515.76 645.21 521.55 641.40 525.49 C 637.65 529.35 633.44 533.51 627.96 534.56 C 624.62 534.04 622.54 530.86 620.41 528.52 C 614.36 520.46 607.27 512.79 604.09 503.01 C 601.54 495.20 599.02 487.37 596.82 479.46 C 595.14 470.90 593.68 462.30 591.50 453.86 C 588.32 441.90 585.57 429.81 581.35 418.16 C 591.14 414.90 600.40 408.92 606.13 400.19 Z" />
        <path fill="#f0b58b" opacity="1.00"
            d=" M 305.15 421.90 C 305.67 418.99 306.50 416.15 307.48 413.37 C 314.90 418.06 322.72 422.42 331.49 423.90 C 332.18 430.29 333.10 436.65 334.21 442.98 C 332.93 448.71 329.04 453.38 326.84 458.77 C 321.13 471.64 312.91 483.41 308.91 497.01 C 306.93 503.91 312.98 509.27 316.97 514.03 C 320.68 518.70 326.23 523.32 325.78 529.86 C 322.91 531.23 319.54 529.04 316.68 528.22 C 310.80 526.29 306.12 521.80 300.10 520.32 C 301.90 524.54 306.21 526.69 309.81 529.16 C 315.25 532.19 321.24 535.96 327.75 534.47 C 329.85 535.61 331.90 536.84 333.94 538.09 C 329.02 544.94 320.18 547.88 312.01 547.77 C 304.76 547.67 297.45 547.22 290.35 545.71 C 286.74 545.14 284.89 541.70 282.84 539.09 C 278.42 533.46 276.66 526.39 274.21 519.79 C 271.78 513.03 270.16 505.30 273.29 498.49 C 279.86 483.79 290.02 470.93 295.87 455.88 C 300.33 444.97 302.90 433.43 305.15 421.90 Z" />
        <path fill="#f0b58b" opacity="1.00"
            d=" M 559.60 707.57 C 568.35 695.81 573.27 681.45 583.75 670.93 C 582.24 686.30 586.53 701.65 593.86 715.07 C 594.38 716.57 595.91 716.86 597.28 717.17 C 596.25 712.07 594.09 707.31 592.48 702.39 C 595.32 701.79 598.16 701.20 601.01 700.61 C 609.27 708.21 610.73 720.34 609.97 730.96 C 608.90 742.28 605.43 754.57 596.13 761.90 C 588.75 762.26 581.37 762.17 573.99 762.06 C 566.27 761.87 558.56 759.37 552.51 754.50 C 545.22 748.81 539.72 741.24 532.97 734.97 C 537.95 732.60 542.60 729.40 546.12 725.10 C 550.82 719.43 555.25 713.52 559.60 707.57 Z" />
        <path fill="#f0b58b" opacity="1.00"
            d=" M 347.85 688.06 C 356.76 681.18 368.69 681.42 379.21 683.45 C 395.15 686.78 409.83 694.18 423.95 702.04 C 417.46 711.49 413.72 722.83 413.29 734.29 C 405.08 739.09 396.41 743.47 387.02 745.36 C 375.94 747.40 364.17 746.99 353.72 742.49 C 353.54 733.94 352.79 725.26 349.82 717.17 C 348.41 713.27 347.11 709.23 347.13 705.03 C 346.85 699.35 348.30 693.74 347.85 688.06 Z" />
    </g>
    <g id="#f11b27ff">
        <path fill="var(--shirt-color, grey)" opacity="1.00"
            d=" M 465.85 209.91 C 468.97 204.14 470.40 197.70 472.53 191.55 C 478.01 191.80 483.59 192.75 488.43 195.46 C 493.47 197.95 496.05 203.39 500.83 206.24 C 509.36 211.67 519.76 212.43 529.08 215.96 C 539.04 219.54 548.19 226.15 553.58 235.40 C 559.94 245.97 564.27 257.58 569.14 268.86 C 572.91 276.53 576.93 284.11 581.73 291.19 C 590.61 305.70 603.34 317.45 611.61 332.37 C 614.19 337.27 617.54 342.28 617.34 348.05 C 615.50 352.74 611.21 356.02 609.57 360.85 C 604.70 372.29 607.48 385.56 601.82 396.73 C 595.64 406.83 584.29 412.44 573.00 414.75 C 566.93 416.21 560.65 416.15 554.47 416.63 C 552.52 409.99 548.97 404.00 546.50 397.57 C 544.46 392.31 543.63 386.57 544.25 380.95 C 544.73 376.38 545.73 371.70 544.57 367.14 C 542.83 359.95 539.73 353.18 536.40 346.60 C 534.13 342.12 531.45 337.73 527.55 334.48 C 532.29 347.80 540.97 360.39 540.75 375.02 C 537.81 370.48 534.13 366.49 529.87 363.16 C 522.22 357.13 515.20 350.02 510.63 341.34 C 506.53 333.60 505.33 324.81 502.24 316.70 C 501.43 314.42 499.96 312.47 498.46 310.62 C 499.15 314.88 500.66 318.95 501.61 323.16 C 503.08 329.34 503.68 335.79 506.27 341.66 C 510.39 351.16 517.70 358.94 525.96 365.03 C 531.25 369.10 537.35 373.35 539.23 380.12 C 539.33 384.98 538.98 389.93 540.27 394.68 C 542.07 402.69 546.84 409.58 549.29 417.35 C 551.36 427.18 553.66 437.03 554.28 447.09 C 554.95 454.40 553.68 461.85 555.40 469.07 C 557.42 477.67 560.88 485.84 563.65 494.20 C 566.16 502.03 565.28 510.46 567.73 518.31 C 569.11 522.92 570.76 528.31 567.66 532.63 C 561.40 544.41 548.84 550.14 538.30 557.29 C 532.83 560.76 532.68 567.68 531.28 573.31 C 530.17 577.19 528.74 581.88 524.63 583.52 C 519.43 585.32 513.93 583.56 508.96 581.86 C 499.86 578.68 490.41 576.71 480.99 574.77 C 467.67 571.54 454.35 568.32 441.01 565.22 C 430.71 562.83 423.60 554.49 414.97 549.05 C 406.14 543.37 396.94 538.25 387.57 533.51 C 383.27 531.51 378.83 528.80 373.88 529.73 C 387.93 537.27 402.24 544.52 415.20 553.91 C 421.80 558.59 427.74 564.46 435.39 567.46 C 443.54 570.34 452.09 571.91 460.43 574.17 C 449.56 574.67 438.57 574.81 427.91 577.27 C 406.29 582.26 385.22 590.11 363.01 592.19 C 359.01 592.65 355.15 590.32 352.96 587.10 C 350.87 582.36 350.51 577.06 350.01 571.97 C 348.79 535.92 347.70 499.71 341.91 464.04 C 340.80 454.67 339.74 445.30 338.78 435.92 C 338.15 430.63 336.87 425.43 336.56 420.11 C 336.13 400.40 335.12 380.72 334.56 361.02 C 333.38 341.65 334.94 322.26 335.45 302.91 C 332.99 304.81 332.81 308.05 332.27 310.86 C 330.46 323.15 329.64 335.59 329.19 348.00 C 329.34 371.52 330.54 395.02 331.21 418.52 C 321.80 415.67 313.15 410.90 304.65 406.05 C 303.02 400.31 303.97 394.32 305.78 388.74 C 308.57 377.99 312.95 367.62 314.38 356.54 C 315.62 348.26 315.52 339.84 314.72 331.52 C 313.77 321.22 311.92 310.79 313.75 300.48 C 314.94 293.75 318.65 287.89 321.82 281.95 C 325.73 274.88 327.36 266.82 328.51 258.90 C 329.44 252.63 329.35 246.00 332.28 240.21 C 335.93 232.94 342.08 227.28 348.60 222.60 C 354.98 218.68 361.42 214.71 366.36 208.96 C 372.03 214.62 377.79 220.21 384.11 225.14 C 381.52 231.39 380.29 238.88 383.87 245.01 C 387.96 253.55 397.97 257.66 407.04 256.98 C 417.42 255.99 427.40 251.97 435.84 245.91 C 448.89 236.89 458.34 223.68 465.85 209.91 M 515.78 276.98 C 515.06 286.74 518.87 295.90 522.19 304.85 C 522.64 305.97 523.20 307.06 523.92 308.05 C 525.29 307.99 525.95 307.29 525.90 305.97 C 525.63 300.76 523.41 295.91 522.39 290.83 C 518.98 277.11 521.05 262.48 526.50 249.58 C 527.44 247.39 528.37 245.02 527.45 242.64 C 520.04 252.45 516.52 264.83 515.78 276.98 M 478.27 296.05 C 479.69 310.08 483.02 324.32 490.71 336.33 C 492.73 339.55 494.97 342.85 498.50 344.55 C 498.54 340.50 495.86 337.34 494.03 333.97 C 490.29 327.46 487.77 320.32 486.13 313.02 C 484.03 303.16 481.89 293.07 483.19 282.95 C 478.87 285.74 477.62 291.22 478.27 296.05 M 369.57 327.65 C 374.88 345.77 383.40 362.78 393.08 378.93 C 402.05 393.49 411.94 407.80 424.92 419.10 C 426.76 420.71 430.44 423.17 432.03 420.03 C 432.50 415.54 430.40 411.32 428.59 407.34 C 425.74 401.79 422.96 396.04 418.59 391.50 C 418.84 395.99 421.39 399.79 423.26 403.73 C 425.27 407.75 426.95 411.94 428.22 416.25 C 413.62 403.54 403.34 386.86 393.80 370.24 C 384.85 354.21 376.80 337.63 370.72 320.29 C 367.69 321.79 368.92 325.11 369.57 327.65 M 369.50 413.59 C 370.09 415.73 371.31 417.61 372.94 419.13 C 378.47 424.59 383.60 430.42 388.77 436.22 C 399.04 447.95 409.74 459.31 419.34 471.62 C 429.48 484.45 439.14 497.70 450.34 509.66 C 461.15 522.04 473.48 533.89 489.06 539.92 C 491.81 540.72 494.74 542.22 497.64 541.31 L 497.59 539.91 C 492.64 537.26 487.13 535.73 482.46 532.54 C 468.38 524.39 458.09 511.53 447.51 499.50 C 435.25 484.98 424.57 469.20 411.94 454.99 C 400.43 442.24 389.02 429.35 376.30 417.78 C 374.35 415.91 372.04 414.46 369.50 413.59 Z" />
    </g>
    <g id="#ffffffff">
        <path fill="var(--pants-color, grey)" opacity="1.00"
            d=" M 544.36 558.31 C 549.13 555.27 553.71 551.96 558.27 548.61 C 560.99 557.16 564.11 565.88 563.43 575.01 C 562.42 587.80 565.77 600.50 570.94 612.10 C 575.63 622.64 580.01 633.32 583.87 644.19 C 586.15 649.38 586.93 655.13 589.72 660.11 C 583.59 663.61 578.74 668.86 574.20 674.17 C 567.06 683.08 562.78 693.84 556.22 703.14 C 551.79 709.37 547.36 715.61 542.45 721.47 C 537.20 727.79 529.30 732.04 521.00 732.16 C 512.11 732.67 503.30 729.86 495.79 725.24 C 489.03 720.18 488.72 710.64 489.21 702.95 C 490.77 687.65 491.57 672.20 490.10 656.86 C 489.11 650.74 488.52 644.42 486.16 638.64 C 485.67 636.91 482.35 636.44 483.04 638.88 C 485.64 653.75 486.03 668.89 486.13 683.97 C 486.12 694.33 483.98 704.74 485.90 715.05 C 479.59 698.16 468.85 683.53 460.13 667.89 C 454.11 657.77 449.36 646.95 442.85 637.12 C 438.73 630.70 435.65 622.88 437.79 615.21 C 434.20 616.54 434.28 620.76 434.38 623.96 C 434.48 630.01 437.10 635.63 440.22 640.70 C 444.69 647.92 448.17 655.68 452.33 663.08 C 438.09 652.55 423.04 642.73 406.43 636.40 C 395.37 632.71 383.22 629.43 371.67 632.82 C 369.94 633.10 369.34 634.63 369.16 636.18 C 382.81 634.08 396.57 637.65 409.08 642.94 C 425.07 650.12 440.00 659.50 453.91 670.13 C 455.21 671.39 457.01 672.43 457.64 674.21 C 458.80 681.23 456.64 688.16 454.65 694.82 C 452.93 700.54 450.43 705.99 447.96 711.42 C 435.45 702.29 421.84 694.79 407.88 688.13 C 393.49 681.75 377.85 676.23 361.86 678.14 C 353.34 679.02 345.50 683.77 340.45 690.63 C 341.00 673.16 352.72 658.41 353.42 641.00 C 353.81 634.96 349.91 629.82 349.54 623.91 C 348.62 614.36 352.05 605.18 355.45 596.44 C 358.50 597.60 361.77 598.18 365.04 597.83 C 386.96 595.72 407.31 586.38 428.81 582.31 C 435.32 585.63 442.23 588.03 448.89 591.03 C 462.44 597.11 476.08 603.07 490.21 607.72 C 494.23 608.98 498.45 610.36 502.71 609.40 C 501.21 608.01 499.44 606.98 497.49 606.42 C 483.22 601.69 469.47 595.56 455.92 589.08 C 449.41 586.02 442.75 583.30 435.94 580.98 C 445.90 579.92 455.82 577.48 465.90 578.45 C 471.19 579.03 476.55 578.71 481.81 579.57 C 490.60 581.42 499.38 583.41 507.94 586.16 C 514.01 588.17 520.92 589.79 527.03 587.03 C 534.88 582.90 535.67 573.00 537.61 565.33 C 538.50 561.99 541.70 560.15 544.36 558.31 M 378.68 611.03 C 380.31 611.88 382.06 612.54 383.86 612.97 C 397.99 616.67 411.12 623.26 423.94 630.13 C 426.55 631.30 429.10 633.24 432.11 632.92 C 432.23 632.43 432.48 631.45 432.60 630.96 C 427.21 625.45 419.98 622.26 413.12 618.98 C 403.77 614.86 394.10 610.95 383.89 609.70 C 382.00 609.24 380.30 610.25 378.68 611.03 Z" />
        <path fill="#ffffff" opacity="1.00"
            d=" M 562.91 550.66 C 564.65 553.19 565.36 556.20 565.90 559.18 C 564.95 556.32 563.95 553.48 562.91 550.66 Z" />
        <path fill="#ffffff" opacity="1.00"
            d=" M 351.56 594.02 L 352.26 593.33 L 352.90 593.71 C 353.01 594.69 352.65 595.47 351.81 596.07 C 351.75 595.55 351.62 594.53 351.56 594.02 Z" />
        <path fill="#ffffff" opacity="1.00"
            d=" M 341.53 694.79 C 342.22 693.89 342.91 693.00 343.60 692.12 C 343.38 693.71 343.18 695.33 342.97 696.94 C 342.61 696.40 341.89 695.32 341.53 694.79 Z" />
        <path fill="var(--socks-color, grey)" opacity="1.00"
            d=" M 605.42 699.71 C 609.26 699.35 613.21 698.92 616.99 700.03 C 623.82 701.66 628.91 706.84 635.23 709.63 C 641.42 712.89 648.79 712.75 655.01 715.93 C 659.29 718.87 662.98 722.72 666.15 726.82 C 669.43 733.11 669.65 740.67 668.29 747.52 C 666.73 753.80 663.34 760.33 657.22 763.19 C 654.58 764.44 651.97 765.97 649.06 766.47 C 642.61 766.25 636.37 764.46 630.04 763.37 C 621.42 761.80 612.63 761.71 603.89 761.63 C 612.21 751.48 615.41 737.93 614.94 725.01 C 614.63 715.89 612.15 706.25 605.42 699.71 Z" />
        <path fill="var(--socks-color, grey)" opacity="1.00"
            d=" M 353.88 748.17 C 373.54 756.06 396.51 751.19 413.64 739.49 C 414.31 747.28 417.02 754.67 420.25 761.73 C 427.54 778.04 435.05 794.63 437.20 812.55 C 440.80 836.58 434.21 861.59 442.01 885.06 C 444.06 892.46 448.58 899.19 448.81 907.04 C 448.72 909.21 446.58 910.36 444.76 910.92 C 441.69 912.10 438.41 910.89 435.63 909.53 C 430.44 906.76 425.66 903.23 420.30 900.77 C 413.89 897.92 406.81 897.25 399.89 896.84 C 395.69 896.97 393.29 892.82 391.14 889.83 C 384.50 878.74 379.98 866.55 375.78 854.37 C 368.06 833.07 361.02 811.38 357.79 788.88 C 355.88 775.38 354.05 761.82 353.88 748.17 Z" />
    </g>
    <g id="#4d4d4dff">
        <path fill="#4d4d4d" opacity="1.00"
            d=" M 647.30 705.65 C 643.57 700.86 647.31 693.07 653.17 692.38 C 659.21 691.71 665.52 693.89 669.92 698.09 C 679.81 707.67 686.46 720.06 696.56 729.45 C 700.72 733.34 704.71 737.54 707.38 742.63 C 712.91 752.53 714.18 764.02 715.44 775.11 C 716.55 785.21 718.82 795.41 717.42 805.60 C 716.53 812.87 709.49 819.40 702.00 818.30 C 695.16 816.12 690.58 810.13 685.92 805.02 C 675.50 793.28 665.60 781.02 654.24 770.14 C 659.96 767.68 665.39 764.09 668.93 758.86 C 677.09 746.52 675.60 728.52 665.02 718.03 C 662.02 715.03 658.95 711.81 654.86 710.33 C 652.12 709.19 648.71 708.60 647.30 705.65 Z" />
        <path fill="#4d4d4d" opacity="1.00"
            d=" M 621.74 766.91 C 628.00 766.90 634.06 768.51 640.14 769.80 C 633.95 769.25 627.77 768.47 621.74 766.91 Z" />
        <path fill="#4d4d4d" opacity="1.00"
            d=" M 397.03 900.66 C 405.28 901.87 413.88 902.70 421.30 906.82 C 427.69 910.03 433.53 915.17 440.94 915.67 C 445.10 916.01 448.61 913.48 451.80 911.17 C 453.97 920.75 457.32 930.54 455.62 940.48 C 455.18 943.75 452.96 946.60 449.89 947.84 C 443.22 950.66 435.66 949.55 428.91 952.14 C 419.48 955.65 411.30 961.72 402.31 966.15 C 388.44 972.80 373.57 978.43 358.01 978.75 C 351.87 978.56 344.62 977.61 340.66 972.34 C 337.77 967.29 341.54 961.73 345.18 958.25 C 355.06 949.19 367.47 943.43 377.32 934.31 C 384.21 927.86 391.27 921.15 395.53 912.60 C 397.51 908.93 397.48 904.68 397.03 900.66 Z" />
    </g>
</svg>