<svg xmlns="http://www.w3.org/2000/svg" viewBox="0 0 20 60" enable-background="new 0 0 20 60" width="20" height="60">
 <g fill="none" stroke="#fff" stroke-miterlimit="10">
  <g stroke-width=".25">
   <line x1=".3" y1="54.2" x2="14.2" y2="54.2"/>
   <line x1=".3" y1="51.1" x2="14.2" y2="51.1"/>
   <line x1=".3" y1="47.9" x2="14.2" y2="47.9"/>
   <line x1=".3" y1="44.5" x2="14.2" y2="44.5"/>
   <line x1=".3" y1="41.5" x2="14.2" y2="41.5"/>
   <line x1=".3" y1="38.3" x2="14.2" y2="38.3"/>
   <line x1=".3" y1="35.1" x2="14.2" y2="35.1"/>
   <line x1=".3" y1="31.6" x2="14.2" y2="31.6"/>
   <line x1=".3" y1="28.7" x2="14.2" y2="28.7"/>
   <line x1=".3" y1="25.5" x2="14.2" y2="25.5"/>
   <line x1=".3" y1="22" x2="14.2" y2="22"/>
   <line x1=".3" y1="18.9" x2="14.2" y2="18.9"/>
   <line x1=".3" y1="15.9" x2="14.2" y2="15.9"/>
   <line x1=".3" y1="12.7" x2="14.2" y2="12.7"/>
   <line x1=".3" y1="9.3" x2="14.2" y2="9.3"/>
   <line x1=".3" y1="6.1" x2="14.2" y2="6.1"/>
   <line x1="11.2" y1="1.6" x2="11.2" y2="58.9"/>
   <line x1="9.4" y1="1.8" x2="9.4" y2="58.2"/>
   <line x1="12.5" y1="1.5" x2="12.5" y2="58.6"/>
   <line x1="7.9" y1="2.1" x2="7.9" y2="57.9"/>
   <line x1="6.3" y1="2.3" x2="6.3" y2="58.1"/>
   <line x1="4.5" y1="2.7" x2="4.5" y2="57.7"/>
   <line x1="3" y1="3.1" x2="3" y2="57.4"/>
   <line x1="1.2" y1="3.1" x2="1.2" y2="56.8"/>
  </g>
  <path stroke-width="2" d="m19.6 56.6l-3.3 2.3c-.8 0-1.5-1.2-1.5-1.8v-54c0-.7.7-1.8 1.5-2h.2l3.3 2.5"/>
  <polyline points="19.8,3.6 0.5,3.6 0.5,56.8 19.6,56.6 	"/>
  <path d="m.3 56.6c0 0 8.4 1.8 15.9 2.3"/>
  <path d="m.3 3.6c0 0 7.9-2 16.1-2.5"/>
 </g>
</svg>
