<svg xmlns="http://www.w3.org/2000/svg" viewBox="0 0 20 60" enable-background="new 0 0 20 60" width="20" height="60">
 <g fill="none" stroke="#fff" stroke-miterlimit="10">
  <g stroke-width=".25">
   <line x1="5.9" y1="54.2" x2="19.8" y2="54.2"/>
   <line x1="5.9" y1="51.1" x2="19.8" y2="51.1"/>
   <line x1="5.9" y1="47.9" x2="19.8" y2="47.9"/>
   <line x1="5.9" y1="44.5" x2="19.8" y2="44.5"/>
   <line x1="5.9" y1="41.5" x2="19.8" y2="41.5"/>
   <line x1="5.9" y1="38.3" x2="19.8" y2="38.3"/>
   <line x1="5.9" y1="35.1" x2="19.8" y2="35.1"/>
   <line x1="5.9" y1="31.6" x2="19.8" y2="31.6"/>
   <line x1="5.9" y1="28.7" x2="19.8" y2="28.7"/>
   <line x1="5.9" y1="25.5" x2="19.8" y2="25.5"/>
   <line x1="5.9" y1="22" x2="19.8" y2="22"/>
   <line x1="5.9" y1="18.9" x2="19.8" y2="18.9"/>
   <line x1="5.9" y1="15.9" x2="19.8" y2="15.9"/>
   <line x1="5.9" y1="12.7" x2="19.8" y2="12.7"/>
   <line x1="5.9" y1="9.3" x2="19.8" y2="9.3"/>
   <line x1="5.9" y1="6.1" x2="19.8" y2="6.1"/>
   <line x1="8.9" y1="58.9" x2="8.9" y2="1.6"/>
   <line x1="10.7" y1="58.2" x2="10.7" y2="1.8"/>
   <line x1="7.6" y1="58.6" x2="7.6" y2="1.5"/>
   <line x1="12.2" y1="57.9" x2="12.2" y2="2.1"/>
   <line x1="13.8" y1="58.1" x2="13.8" y2="2.3"/>
   <line x1="15.6" y1="57.7" x2="15.6" y2="2.7"/>
   <line x1="17.1" y1="57.4" x2="17.1" y2="3.1"/>
   <line x1="18.9" y1="56.8" x2="18.9" y2="3.1"/>
  </g>
  <path stroke-width="2" d="m.3 3.6l3.3-2.5h.2c.8.2 1.5 1.4 1.5 2v54c0 .7-.7 1.8-1.5 1.8l-3.3-2.3"/>
  <polyline points="0.5,56.6 19.6,56.8 19.6,3.6 0.3,3.6 	"/>
  <path d="m3.8 58.9c7.6-.5 15.9-2.3 15.9-2.3"/>
  <path d="m3.6 1.1c8.2.5 16.1 2.5 16.1 2.5"/>
 </g>
</svg>
