<svg xmlns="http://www.w3.org/2000/svg" viewBox="0 0 51 51" enable-background="new 0 0 51 51" width="51" height="51">
 <g fill="none" stroke="#fff" stroke-miterlimit="10">
  <g stroke-width=".25">
   <line x1="35.6" y1="48.5" x2="45" y2="39.1"/>
   <line x1="33.4" y1="46.3" x2="42.9" y2="36.9"/>
   <line x1="31.3" y1="44.2" x2="40.7" y2="34.8"/>
   <line x1="29" y1="41.9" x2="38.4" y2="32.5"/>
   <line x1="26.9" y1="39.8" x2="36.4" y2="30.4"/>
   <line x1="24.8" y1="37.7" x2="34.2" y2="28.3"/>
   <line x1="22.6" y1="35.5" x2="32" y2="26.1"/>
   <line x1="20.2" y1="33.2" x2="29.7" y2="23.7"/>
   <line x1="18.3" y1="31.2" x2="27.7" y2="21.8"/>
   <line x1="16.1" y1="29" x2="25.5" y2="19.6"/>
   <line x1="13.7" y1="26.6" x2="23.2" y2="17.2"/>
   <line x1="11.6" y1="24.5" x2="21" y2="15.1"/>
   <line x1="9.5" y1="22.4" x2="19" y2="13"/>
   <line x1="7.4" y1="20.3" x2="16.8" y2="10.9"/>
   <line x1="5.1" y1="18" x2="14.5" y2="8.6"/>
   <line x1="2.9" y1="15.8" x2="12.3" y2="6.4"/>
   <line x1="7.2" y1="5.4" x2="46.1" y2="44.3"/>
   <line x1="6.1" y1="6.8" x2="44.4" y2="45"/>
   <line x1="8" y1="4.4" x2="46.8" y2="43.2"/>
   <line x1="5.3" y1="7.9" x2="43.2" y2="45.9"/>
   <line x1="4.4" y1="9.2" x2="42.3" y2="47.1"/>
   <line x1="3.4" y1="10.7" x2="40.8" y2="48.1"/>
   <line x1="2.7" y1="12" x2="39.6" y2="48.9"/>
   <line x1="1.4" y1="13.2" x2="37.9" y2="49.6"/>
  </g>
  <path stroke-width="2" d="m50.2 37l-.7 3.8c-.6.6-1.8.2-2.3-.2l-36.5-36.6c-.5-.5-.8-1.7-.4-2.4l.1-.1 4-.5"/>
  <polyline points="14.4,0.9 1.3,14 37.4,50.1 50.2,37 	"/>
  <path d="m37.2 50.1c0 0 7-4.5 12.4-9.3"/>
  <path d="m1.2 14.1c0 0 4-6.8 9.3-12.7"/>
 </g>
</svg>
