<svg xmlns="http://www.w3.org/2000/svg" viewBox="0 0 32 60" enable-background="new 0 0 32 60" width="32" height="60">
 <g fill="none" stroke-miterlimit="10">
  <g stroke="#e0e1e0">
   <path d="m17 21.4l1.7-9.4c0 0 2.7-11.3-6.8-11.3-3.1 0-7.3.1-7.2 0"/>
   <polyline points="0.6,21.4 17,21.4 28.2,59.3 11.9,59.3 "/>
  </g>
  <g stroke="#fff">
   <polyline stroke-width="2" stroke-linejoin="round" points="11.9,59.3 
	15.5,39.3 4.7,0.7 0.6,21.4 "/>
   <path d="m28.2 59.3l3-11.8c0 0 2.1-8.5-6.9-8.2-1.9 0-8.4.1-8.4.1"/>
   <g stroke-width=".25">
    <path d="m28.2 56.2l3-11.8c0 0 2.1-8.5-6.9-8.2-1.9 0-8.4.1-8.4.1"/>
    <path d="m27.4 54l3-11.8c0 0 2.1-8.5-6.9-8.2-1.9 0-8.4.1-8.4.1"/>
    <path d="m26.6 51.3l3-11.8c0 0 2.1-8.5-6.9-8.2-1.9 0-8.4.1-8.4.1"/>
    <path d="m25.7 48.9l3-11.8c0 0 2.1-8.5-6.9-8.2-1.9 0-8.4.1-8.4.1"/>
    <path d="m24.6 46.2l3-11.8c0 0 2.1-8.5-6.9-8.2-1.9 0-8.4.1-8.4.1"/>
    <path d="m24.1 43.6l3-11.8c0 0 2.1-8.5-6.9-8.2-1.9 0-8.4.1-8.4.1"/>
    <path d="m23.2 40.7l3-11.8c0 0 2.1-8.5-6.9-8.2-1.9 0-8.4.1-8.4.1"/>
    <path d="m22.2 38l3-11.8c0 0 2.1-8.5-6.9-8.2-1.9 0-8.4.1-8.4.1"/>
    <path d="m21.5 35.3l3-11.8c0 0 2.1-8.5-6.9-8.2-1.9 0-8.4.1-8.4.1"/>
    <path d="m20.7 32.4l3-11.8c0 0 2.1-8.5-6.9-8.2-1.9 0-8.4.1-8.4.1"/>
    <path d="m19.7 29.6l3-11.8c0 0 2.1-8.5-6.9-8.2-1.9 0-8.4.1-8.4.1"/>
    <path d="m18.9 26.9l3-11.8c0 0 1.8-8.5-6.9-8.2-1.8.1-8.4.1-8.4.1"/>
    <path d="m18.1 24.2l3-11.8c0 0 1.2-8.4-6.9-8.2-1.9 0-8.4.1-8.4.1"/>
    <path d="m17.3 22l2.7-11.4c0 0 .9-8.6-6.5-8.6-1.9 0-8.4.1-8.4.1"/>
    <line x1="12.3" y1="56.8" x2="28.8" y2="56.8"/>
    <line x1="13" y1="54.7" x2="29.6" y2="54.7"/>
    <line x1="13.2" y1="52.5" x2="29.9" y2="52.5"/>
    <line x1="13.7" y1="50.1" x2="30.5" y2="50.1"/>
    <line x1="31.1" y1="47.7" x2="14.2" y2="47.7"/>
    <line x1="14.7" y1="45.4" x2="31.1" y2="45.2"/>
    <line x1="15.2" y1="42.6" x2="30.7" y2="42.6"/>
    <line x1="17.7" y1="3.2" x2="30.5" y2="41.8"/>
    <line x1="14.7" y1="59.4" x2="18.7" y2="39.5"/>
    <line x1="17" y1="59.4" x2="21.2" y2="39.4"/>
    <line x1="19.4" y1="59.4" x2="23.8" y2="39.3"/>
    <line x1="21.6" y1="59.5" x2="26.2" y2="39.4"/>
    <line x1="23.9" y1="59.5" x2="28.5" y2="40.2"/>
    <line x1="26.2" y1="59.5" x2="30.5" y2="42.3"/>
    <line x1="15.5" y1="1.4" x2="28.5" y2="40.2"/>
    <line x1="13.6" y1=".7" x2="26.2" y2="39.4"/>
    <line x1="11.5" y1=".7" x2="23.8" y2="39.3"/>
    <line x1="9.5" y1=".7" x2="21.2" y2="39.4"/>
    <line x1="1.6" y1="18.7" x2="10.2" y2="18.7"/>
    <line x1="2.3" y1="16.5" x2="7.2" y2="16.5"/>
    <line x1="2.5" y1="14.4" x2="6.6" y2="14.4"/>
    <line x1="3.8" y1="21.2" x2="6" y2="8.7"/>
    <line x1="6" y1="21.2" x2="7" y2="15.4"/>
    <line x1="7.4" y1=".7" x2="18.7" y2="39.5"/>
   </g>
  </g>
 </g>
</svg>
