<svg xmlns="http://www.w3.org/2000/svg" viewBox="0 0 60 56" enable-background="new 0 0 60 56">
 <g fill="none" stroke-miterlimit="10">
  <g stroke="#e0e1e0">
   <path stroke-linejoin="round" d="m56.1 2.8c-6.5-4.2-13-1.3-13.1 2.3-.1 5.1 0 11.2.1 14.1"/>
   <g stroke-width=".25">
    <line x1="54.6" y1="1.9" x2="55.3" y2="22.7"/>
    <line x1="52" y1="1" x2="52.7" y2="21.9"/>
    <line x1="49.3" y1=".7" x2="50" y2="21.2"/>
    <line x1="46.6" y1="1.2" x2="47.3" y2="20.2"/>
    <line x1="44.6" y1="2.3" x2="45.2" y2="19.7"/>
    <line x1="43.7" y1="3.2" x2="57.8" y2="5.3"/>
    <line x1="43" y1="5.8" x2="57.9" y2="7.8"/>
    <line x1="42.8" y1="8.6" x2="58" y2="10.6"/>
    <line x1="42.9" y1="11.8" x2="58.1" y2="14.2"/>
    <line x1="43" y1="14.4" x2="58.2" y2="17.6"/>
    <line x1="43.1" y1="16.8" x2="58.3" y2="20.4"/>
    <line x1="15.5" y1="35.1" x2="43.1" y2="16.8"/>
    <line x1="40.8" y1="13.4" x2="40.8" y2="20.2"/>
   </g>
   <polyline stroke-linejoin="round" points="16.1,55.2 0.7,47.5 43.2,19.2 
	58.4,23.6 "/>
   <g stroke-width=".25">
    <line x1="38.3" y1="15.2" x2="38.3" y2="22.7"/>
    <line x1="35.9" y1="16.8" x2="35.9" y2="24.1"/>
    <line x1="33.3" y1="18.6" x2="33.3" y2="25.7"/>
    <line x1="30.6" y1="27.6" x2="30.7" y2="20.4"/>
    <line x1="28" y1="22.4" x2="28" y2="29.3"/>
    <line x1="24.9" y1="31.4" x2="24.7" y2="24.4"/>
    <line x1="22.3" y1="26" x2="22.5" y2="33.2"/>
    <line x1="20" y1="34.6" x2="20" y2="27.5"/>
   </g>
  </g>
  <g stroke="#fff">
   <g stroke-width=".25">
    <line x1="3.4" y1="29.3" x2="3.5" y2="48.9"/>
    <line x1="5.9" y1="27.9" x2="5.9" y2="50.1"/>
    <line x1="8.1" y1="27.6" x2="8.1" y2="51.5"/>
    <line x1="10.6" y1="27.6" x2="10.6" y2="52.6"/>
    <line x1="12.8" y1="27.8" x2="12.8" y2="53.7"/>
    <line x1="5" y1="28.2" x2="15.7" y2="31.4"/>
    <line x1="2.4" y1="30.4" x2="15.4" y2="33.5"/>
    <line x1="1.4" y1="32.5" x2="15.7" y2="36.5"/>
    <line x1="15.9" y1="48.3" x2="1" y2="42.9"/>
    <line x1=".9" y1="39.9" x2="15.8" y2="45.4"/>
    <line x1="15.7" y1="42.3" x2=".9" y2="37.6"/>
    <line x1=".9" y1="45.4" x2="16" y2="51.1"/>
    <line x1="15.7" y1="39.1" x2="1" y2="34.7"/>
   </g>
   <g stroke-linejoin="round">
    <path stroke-width="2" d="m16.1 55.2l-.8-22.6c0 0 .5-3 2.8-4s38-25.8 38-25.8 1.7-.1 1.8 3.1c.1 2 .5 17.8.5 17.8"/>
    <path d="m17.8 28.8c-3.2-.9-6.9-1.4-9.1-1.4-4.7.1-7.4 3.1-7.7 6.7-.4 5.1 0 10.2.1 13.1"/>
    <g stroke-width=".25">
     <line x1="12.8" y1="27.8" x2="52" y2="1"/>
     <line x1="10.6" y1="27.6" x2="49.3" y2=".7"/>
     <line x1="8.1" y1="27.6" x2="46.6" y2=".8"/>
     <line x1="4.2" y1="28.7" x2="44.5" y2="1.7"/>
     <path d="m19.7 26.8c-8-2.3-11.2-1.1-11.2-1.1"/>
     <path d="m23.7 25.2c-8-2.3-12.1-1.3-12.1-1.3"/>
     <path d="m25.9 23.6c-8-2.3-11.3-1.7-11.3-1.7"/>
     <path d="m29.1 21.2c-8-2.3-11.8-1.4-11.8-1.4"/>
     <path d="m31.7 19.4c-8-2.3-11.5-1.4-11.5-1.4"/>
     <path d="m34.4 17.6c-8-2.3-11.6-1.4-11.6-1.4"/>
     <path d="m37.5 15.6c-8-2.3-11.6-1.3-11.6-1.3"/>
     <path d="m40.2 13.7c-8-2.3-11.7-1.2-11.7-1.2"/>
     <path d="m42.7 11.7c-8-2.3-11-1.4-11-1.4"/>
     <path d="m46.7 9.3c-8-2.3-11.8-1.1-11.8-1.1"/>
     <path d="m49 7.5c-8-2.3-11.9-1.1-11.9-1.1"/>
     <path d="m51.6 5.7c-8-2.3-11.7-1.1-11.7-1.1"/>
     <path d="m52.9 4.2c-8-2.3-10.1-1.3-10.1-1.3"/>
     <path d="m55.1 3.2c-8-2.3-11.3-1.2-11.3-1.2"/>
    </g>
   </g>
  </g>
 </g>
</svg>
