<svg xmlns="http://www.w3.org/2000/svg" viewBox="0 0 60 56" enable-background="new 0 0 60 56">
 <g fill="none" stroke-linejoin="round" stroke-miterlimit="10">
  <g stroke="#e0e1e0">
   <polyline points="59.1,47.6 42.9,56.1 0.2,28.2 
	15.1,24.3 "/>
   <path d="m59.1 47.6l.3-18.7c0 0 0-4.2-4.8-7-2.4-1.4-37.2-20.9-37-20.8 0 0-2.5.4-2.6 3.4 0 2 0 19.5 0 19.5"/>
  </g>
  <path stroke="#fff" d="m57.7 24.2c-3.6.6-2.8.5-5.5 1.5-6.8 2.5-9.7 10.5-9.7 16.5 0 6.7.3 13.9.3 13.9"/>
  <path stroke="#e0e1e0" d="m17.5 1.3c-3.6.6-5.1 1.1-7.7 2.2-6.6 2.8-9.2 12-9.2 18 0 6.7.3 6 .3 6"/>
  <g stroke="#fff" stroke-width=".25">
   <line x1=".5" y1="25.7" x2="42.8" y2="53.7"/>
   <line x1=".5" y1="23.3" x2="42.7" y2="51.1"/>
   <line x1=".5" y1="20.6" x2="42.7" y2="48.5"/>
   <line x1="42.7" y1="45.4" x2=".8" y2="18.2"/>
   <line x1="1.4" y1="15.1" x2="42.6" y2="42.2"/>
   <line x1="2.2" y1="12.3" x2="42.9" y2="38.5"/>
   <line x1="3.5" y1="9.4" x2="43.8" y2="35"/>
   <line x1="5.3" y1="6.9" x2="45.2" y2="32"/>
   <line x1="7.3" y1="4.9" x2="47.3" y2="29.1"/>
   <line x1="9.8" y1="3.5" x2="50.1" y2="26.7"/>
   <line x1="12.8" y1="2.3" x2="53.4" y2="25.3"/>
   <path d="m54.5 21.9c-17.9 2.5-15.2 32.4-15.1 32.5"/>
   <path d="m52.4 20.6c-17.5 2.6-15.9 32.1-15.9 32.1"/>
   <path d="m49.9 19.2c-16.8 3-16 31.4-16 31.4"/>
   <path d="m47.3 17.8c-15.9 2.7-16 31.2-16 31.2"/>
   <path d="m44.8 16.4c-15.6 3.4-16.2 30.9-16.2 30.9"/>
   <path d="m42.7 15.2c-14.5 1.9-16.4 30.6-16.4 30.6"/>
   <path d="m40.2 13.8c-14.5 2.3-16.2 30.5-16.2 30.5"/>
   <path d="m38.2 12.7c-14.4 1.7-16.6 29.9-16.7 29.9"/>
   <path d="m35.4 11.1c-13.4 1.8-16 30.1-16 30.1"/>
   <path d="m33.4 10.1c-15.2 1.5-16.3 29.6-16.3 29.6"/>
   <path d="M31.6,9
	C15.8,10.1,15,38.1,15,38.1"/>
   <path d="m29.7 7.9c-18.1 2.2-16.6 29.1-16.6 29.1"/>
   <path d="M27.6,6.7
	C7.6,9.4,11,35.3,11,35.3"/>
   <path d="M25.3,5.5
	C6,7.8,8.6,33.7,8.6,33.7"/>
   <path d="M22.8,4
	C3.5,6.3,6.5,32.3,6.5,32.3"/>
   <path d="M20.9,2.9
	C2,3.8,4.4,31,4.4,31"/>
   <path d="M18.7,1.7
	C0.4,2,2.2,29.5,2.2,29.5"/>
   <line x1="16" y1="1.6" x2="56.5" y2="24.4"/>
   <line x1="56.2" y1="24.2" x2="56" y2="49.2"/>
   <line x1="53.4" y1="25.3" x2="53.3" y2="50.6"/>
   <line x1="50.1" y1="26.7" x2="50.1" y2="52.3"/>
   <line x1="47.3" y1="29.1" x2="47.3" y2="53.7"/>
   <line x1="45.2" y1="32" x2="45.2" y2="54.9"/>
   <line x1="43.8" y1="35" x2="59.3" y2="27.9"/>
   <line x1="42.8" y1="53.7" x2="59.1" y2="45.1"/>
   <line x1="42.7" y1="51.1" x2="59.1" y2="42.6"/>
   <line x1="42.7" y1="48.5" x2="59.2" y2="40.2"/>
   <line x1="42.7" y1="45.4" x2="59.4" y2="37.2"/>
   <line x1="42.6" y1="42.2" x2="59.3" y2="34.6"/>
   <line x1="42.9" y1="38.5" x2="59.3" y2="31.4"/>
   <line x1="45.2" y1="32" x2="58.5" y2="25.7"/>
  </g>
 </g>
</svg>
