<?xml version="1.0" encoding="UTF-8" ?>
<!DOCTYPE svg PUBLIC "-//W3C//DTD SVG 1.1//EN" "http://www.w3.org/Graphics/SVG/1.1/DTD/svg11.dtd">
<svg width="1000pt" height="1000pt" viewBox="0 0 1000 1000" version="1.1" xmlns="http://www.w3.org/2000/svg">
<g id="#020202ff">
<path fill="#020202" opacity="1.00" d=" M 454.17 10.43 C 469.28 6.55 485.71 8.43 499.64 15.40 C 511.56 21.44 521.85 30.82 528.58 42.40 C 535.68 54.47 538.90 68.83 537.36 82.77 C 536.24 94.51 531.44 105.56 525.54 115.65 C 522.80 120.35 522.80 125.90 523.27 131.15 C 532.02 127.93 541.40 124.55 550.85 126.47 C 559.46 128.57 567.35 132.91 576.02 134.82 C 584.80 136.82 593.88 136.63 602.71 138.28 C 613.00 140.19 623.47 143.68 631.27 150.94 C 634.39 153.06 638.50 152.74 641.96 154.11 C 658.68 159.80 672.06 171.75 685.92 182.22 C 700.77 194.42 716.38 205.65 731.31 217.76 C 746.99 230.47 763.73 241.83 779.06 254.98 C 788.23 262.49 797.30 271.23 800.86 282.88 C 804.97 295.83 806.77 309.48 806.59 323.05 C 806.49 336.28 806.95 349.54 805.77 362.74 C 805.05 372.47 803.54 382.24 804.85 392.01 C 806.46 404.11 806.71 416.45 809.73 428.33 C 812.29 436.82 816.63 444.78 822.37 451.54 C 828.57 459.02 834.23 467.17 837.37 476.45 C 841.47 488.38 844.41 500.72 846.29 513.20 C 846.91 518.79 847.79 525.30 843.94 530.00 C 841.56 533.29 836.69 533.76 833.39 531.66 C 830.54 530.11 829.05 527.10 827.59 524.37 C 827.04 529.78 826.15 535.47 822.81 539.94 C 820.60 542.88 817.01 545.32 813.18 544.67 C 809.44 544.21 806.63 541.49 804.06 539.00 C 802.53 542.22 800.93 545.89 797.46 547.41 C 794.24 549.03 790.23 547.70 788.09 544.96 C 785.90 542.22 785.28 538.66 784.51 535.34 C 782.48 537.33 780.24 540.11 777.03 539.45 C 773.19 538.58 771.34 534.49 770.67 530.98 C 769.59 524.86 769.52 518.60 769.76 512.40 C 763.13 512.66 759.04 506.71 756.76 501.28 C 754.20 494.89 752.01 488.33 748.55 482.36 C 745.30 476.26 740.42 470.39 740.89 463.06 C 741.56 448.43 745.91 434.34 748.48 420.00 C 750.16 411.39 751.80 402.70 754.98 394.49 C 753.66 391.82 752.48 389.07 751.62 386.22 C 748.47 375.82 745.16 365.46 741.75 355.15 C 739.01 347.34 736.96 338.96 731.48 332.51 C 728.30 328.15 723.51 324.92 721.39 319.84 C 719.83 316.02 721.95 312.22 723.82 308.98 C 720.35 307.35 716.57 306.46 713.17 304.73 C 710.90 302.38 710.87 298.72 709.17 295.99 C 706.67 291.15 701.11 289.47 696.44 287.51 C 685.35 283.27 674.62 277.67 665.78 269.64 C 667.64 274.31 669.35 279.03 671.36 283.64 C 675.62 293.26 677.93 303.59 679.91 313.89 C 683.48 333.41 687.55 353.07 686.88 373.03 C 686.63 382.79 686.20 392.58 684.43 402.20 C 683.28 408.08 682.01 413.98 681.81 419.99 C 683.86 441.07 680.33 462.13 678.00 483.03 C 677.42 487.40 678.85 491.69 678.65 496.06 C 678.81 497.80 676.97 498.61 676.06 499.77 C 679.05 513.92 677.14 529.19 669.70 541.70 C 657.99 561.12 640.98 576.51 627.94 594.94 C 622.19 602.77 616.50 610.87 613.44 620.19 C 611.07 626.84 610.20 634.18 606.09 640.10 C 601.18 647.19 595.44 653.75 591.27 661.33 C 589.03 665.15 589.03 669.87 586.66 673.61 C 582.67 677.24 577.26 678.75 572.13 679.96 C 566.48 681.16 560.79 682.33 555.02 682.61 C 549.86 682.87 544.84 681.39 539.98 679.86 C 535.37 694.78 535.02 710.51 533.64 725.95 C 532.73 738.71 531.68 751.47 529.74 764.11 C 521.65 810.17 506.57 854.63 490.05 898.26 C 486.50 906.85 484.32 915.87 482.24 924.90 C 487.13 938.72 491.06 953.47 488.53 968.21 C 487.63 972.52 485.63 977.37 481.30 979.20 C 463.86 983.71 445.58 982.25 428.03 979.14 C 422.30 977.91 416.01 976.58 411.81 972.18 C 408.76 967.44 408.98 961.44 409.60 956.07 C 410.71 946.33 415.19 937.49 418.25 928.30 C 424.10 911.08 431.05 894.22 435.81 876.65 C 438.88 865.68 437.84 854.19 438.45 842.95 C 440.12 807.73 446.18 772.88 453.53 738.45 C 454.66 731.83 458.96 725.81 458.11 718.91 C 457.51 713.88 455.97 709.03 455.04 704.07 C 452.11 690.77 452.92 676.99 454.57 663.58 C 449.05 663.51 443.31 663.35 438.39 660.54 C 439.99 683.09 427.71 704.71 410.60 718.67 C 402.99 724.55 395.30 730.58 386.35 734.30 C 367.89 743.73 349.61 754.19 334.60 768.69 C 331.05 773.20 329.74 778.99 326.92 783.93 C 321.75 792.80 315.75 801.21 308.65 808.65 C 302.21 815.53 293.57 820.93 283.93 821.35 C 272.57 822.51 261.66 818.25 251.75 813.15 C 241.22 807.30 229.39 804.60 217.93 801.21 C 200.90 797.51 183.59 792.28 169.76 781.25 C 160.12 773.45 156.60 760.78 154.34 749.10 C 153.83 742.39 152.00 735.13 154.77 728.71 C 157.67 723.20 164.76 723.82 170.04 723.82 C 183.64 724.99 197.29 725.60 210.82 727.58 C 228.86 728.96 246.96 730.01 264.91 732.40 C 273.36 733.57 282.43 732.54 289.67 727.73 C 301.95 719.47 311.58 707.85 319.44 695.44 C 325.37 686.14 331.30 676.81 338.09 668.10 C 344.01 660.54 349.55 652.59 356.68 646.08 C 357.70 637.27 359.35 628.37 363.49 620.44 C 365.53 616.20 368.95 612.76 370.51 608.28 C 366.39 610.91 361.93 615.24 356.61 613.32 C 351.23 611.09 350.91 604.43 350.61 599.44 C 347.97 599.73 344.85 600.39 342.76 598.26 C 337.31 593.24 335.62 585.19 336.65 578.06 C 337.97 568.13 340.18 558.32 342.86 548.68 C 345.27 539.60 352.20 532.90 358.13 526.00 C 368.99 513.57 381.26 502.50 392.54 490.46 C 394.60 488.51 393.73 485.44 393.64 482.95 C 392.05 468.28 393.20 453.53 394.42 438.89 C 395.79 419.23 398.33 399.68 400.60 380.11 C 402.49 365.12 404.94 350.17 405.60 335.05 C 406.60 322.05 406.00 309.00 406.69 295.98 C 407.15 290.33 404.62 285.11 403.19 279.78 C 397.53 260.02 393.44 238.08 401.51 218.38 C 406.10 208.45 412.06 198.65 421.18 192.25 C 424.62 189.54 428.76 187.94 432.31 185.41 C 435.87 182.04 438.62 177.93 441.88 174.29 C 433.72 165.51 427.94 154.83 423.03 143.98 C 418.67 134.31 416.62 123.77 415.84 113.24 C 415.29 109.05 415.33 104.57 413.36 100.74 C 400.04 81.71 402.33 54.74 415.03 35.98 C 423.77 22.40 438.86 14.33 454.17 10.43 M 417.59 87.07 C 418.70 92.14 419.73 97.23 420.90 102.29 C 423.16 112.09 422.70 122.36 425.84 131.97 C 430.26 145.64 437.02 158.70 446.12 169.84 C 454.48 161.65 464.08 154.64 474.76 149.80 C 481.72 146.73 489.10 144.80 496.21 142.10 C 504.10 139.34 511.72 135.89 519.49 132.81 C 518.83 130.07 518.34 127.30 518.01 124.50 C 510.41 132.11 499.09 132.89 488.96 133.28 C 479.34 133.32 469.50 133.39 460.21 130.58 C 456.07 129.38 452.39 126.17 451.55 121.81 C 449.33 113.27 453.40 105.03 455.28 96.87 C 455.91 95.24 454.99 93.68 454.44 92.20 C 449.84 94.54 446.68 98.73 443.68 102.77 C 439.25 108.15 436.25 114.48 432.03 119.99 C 429.12 112.68 427.76 104.80 424.14 97.77 C 422.17 94.07 420.02 90.48 417.59 87.07 M 515.14 140.19 C 505.50 144.60 495.56 148.29 485.44 151.42 C 467.80 157.01 453.12 169.06 440.63 182.36 C 457.53 176.65 475.43 175.27 492.91 172.26 C 497.94 171.51 502.98 170.09 508.12 170.78 C 505.70 173.32 502.41 174.63 499.02 175.27 C 485.78 178.14 472.38 180.18 459.07 182.70 C 446.57 185.15 434.02 189.11 423.57 196.60 C 413.24 204.01 406.38 215.62 403.73 227.95 C 399.74 247.02 404.83 266.42 410.11 284.71 C 412.78 294.81 418.02 303.96 421.05 313.94 C 421.99 316.64 422.68 319.44 422.59 322.33 C 416.91 316.85 415.86 308.59 411.68 302.14 C 411.95 324.07 411.10 346.05 407.91 367.77 C 404.89 393.16 401.32 418.50 399.49 444.01 C 397.98 459.28 397.55 474.65 398.18 489.99 C 401.39 491.84 404.80 493.41 408.44 494.21 C 418.47 496.43 428.83 497.41 439.07 496.39 C 439.95 486.28 442.83 476.42 447.18 467.27 C 449.69 461.57 453.14 456.34 455.54 450.59 C 460.60 438.36 463.30 425.36 466.19 412.51 C 470.91 390.57 473.04 368.10 479.36 346.52 C 484.57 328.74 489.88 310.83 498.32 294.26 C 499.02 292.38 500.78 291.45 502.56 290.83 C 502.03 293.13 501.37 295.41 500.51 297.61 C 494.43 312.87 489.75 328.66 485.56 344.54 C 489.42 336.91 493.58 328.85 501.04 324.12 C 505.30 321.65 509.38 317.79 514.64 318.11 C 511.00 323.11 505.11 325.59 500.62 329.67 C 493.45 336.01 489.47 344.99 485.76 353.61 C 482.46 361.59 478.50 369.72 478.44 378.53 C 479.56 381.71 481.76 384.35 483.66 387.08 C 493.60 383.11 504.42 382.65 514.99 382.17 C 519.30 382.10 523.96 381.46 527.85 383.81 C 523.37 385.07 518.71 385.21 514.11 385.64 C 504.05 386.49 493.90 387.58 484.26 390.73 C 484.30 394.26 484.35 397.92 485.80 401.21 C 487.25 404.46 490.26 407.24 493.92 407.57 C 510.52 409.63 527.03 412.42 543.71 413.79 C 554.51 414.58 565.34 415.71 575.87 418.28 C 578.21 418.63 579.77 420.42 581.03 422.28 C 575.98 422.15 571.04 421.05 566.04 420.45 C 557.43 419.27 548.73 418.90 540.08 418.14 C 526.27 416.76 512.55 414.63 498.92 412.03 C 496.57 411.65 493.76 410.85 491.81 412.70 C 487.76 416.00 484.45 420.33 482.45 425.15 C 480.76 429.93 484.98 433.84 487.50 437.39 C 495.20 436.03 503.04 436.95 510.59 438.72 C 527.00 442.50 543.04 448.27 559.91 449.84 C 564.65 450.31 569.46 450.11 574.16 450.99 C 571.12 452.87 567.51 453.15 564.03 453.10 C 556.24 453.00 548.41 452.66 540.74 451.22 C 525.65 448.76 511.33 442.61 496.04 441.21 C 492.12 441.19 487.55 440.49 484.38 443.34 C 480.39 446.65 477.33 450.89 474.04 454.86 C 480.24 454.28 486.53 454.15 492.68 455.30 C 512.00 459.04 530.82 464.93 550.03 469.16 C 570.41 473.59 591.46 471.11 611.95 474.58 C 633.62 477.81 653.93 486.38 674.54 493.41 C 673.77 489.68 673.02 485.89 673.47 482.08 C 675.71 461.22 678.83 440.14 676.47 419.16 C 674.32 405.52 672.62 391.80 669.87 378.27 C 668.87 373.22 667.39 368.24 667.20 363.07 C 668.52 364.29 669.98 365.53 670.55 367.32 C 675.28 379.45 676.82 392.47 679.25 405.18 C 683.91 382.73 683.33 359.39 679.59 336.85 C 676.42 319.04 674.10 300.78 666.80 284.06 C 663.63 276.27 661.26 268.13 657.22 260.71 C 655.04 256.30 651.59 252.56 650.12 247.81 C 648.87 243.71 648.25 239.43 648.15 235.15 C 651.88 237.35 652.06 241.95 653.55 245.58 C 654.67 248.80 656.79 251.51 658.82 254.21 C 659.39 250.62 660.02 247.04 660.67 243.46 C 661.31 240.14 661.49 236.44 664.07 233.91 C 666.05 242.42 662.03 251.07 663.68 259.53 C 669.40 267.85 678.50 273.15 687.31 277.71 C 693.80 281.08 700.97 283.02 707.30 286.74 C 712.28 289.74 715.09 295.15 716.57 300.59 C 720.50 302.47 725.10 303.58 728.21 306.77 C 730.31 310.72 724.70 313.93 725.84 317.92 C 726.79 320.20 728.71 321.86 730.36 323.65 C 735.26 328.58 739.68 334.19 742.11 340.78 C 745.86 350.88 749.05 361.18 752.32 371.44 C 754.47 378.58 757.06 385.63 758.32 393.00 C 772.05 390.13 785.71 386.89 799.15 382.90 C 800.17 369.28 801.70 355.66 801.56 341.98 C 801.70 328.62 802.40 315.12 799.90 301.92 C 798.55 294.73 797.19 287.46 794.35 280.69 C 791.58 274.01 786.68 268.46 781.32 263.72 C 769.61 253.66 757.40 244.21 745.10 234.90 C 730.13 223.16 715.28 211.27 700.04 199.87 C 691.89 193.73 684.17 187.03 675.73 181.29 C 661.89 171.32 647.68 160.27 630.40 157.41 C 625.34 156.28 619.98 156.86 615.05 155.15 C 615.06 154.60 615.06 153.48 615.06 152.92 C 618.04 151.43 621.48 151.58 624.72 151.24 C 620.18 148.58 615.47 146.12 610.35 144.80 C 597.08 140.85 582.82 142.59 569.67 138.12 C 561.19 135.53 553.12 130.51 543.98 130.90 C 533.75 131.54 524.47 136.38 515.14 140.19 M 477.23 384.39 C 473.01 408.85 469.90 434.12 458.79 456.65 C 453.48 465.78 448.63 475.23 445.52 485.36 C 453.31 474.61 461.55 464.19 469.74 453.75 C 473.42 448.11 477.72 442.82 483.17 438.80 C 480.44 434.73 476.79 430.19 478.13 424.95 C 479.74 419.05 483.85 414.24 488.05 409.98 C 481.77 405.22 479.44 397.03 480.50 389.43 C 479.41 387.75 478.31 386.07 477.23 384.39 M 759.49 397.05 C 757.49 404.62 755.80 412.27 754.38 419.98 C 751.96 433.65 747.90 447.07 747.04 460.99 C 746.00 469.78 753.36 476.04 756.46 483.58 C 760.82 491.88 761.69 502.36 769.59 508.43 C 771.02 499.87 769.80 491.17 770.88 482.61 C 773.63 483.18 773.89 486.16 774.29 488.43 C 775.26 496.25 776.04 504.12 775.86 512.00 C 775.78 519.68 774.92 527.67 777.89 534.97 C 780.01 532.89 782.83 530.97 783.39 527.85 C 783.99 524.21 784.25 520.53 784.85 516.89 C 786.80 504.16 782.89 491.42 783.92 478.68 C 785.18 480.63 786.49 482.63 786.96 484.95 C 788.69 492.83 789.59 500.89 789.80 508.96 C 790.33 518.24 788.86 527.71 791.24 536.83 C 791.84 539.27 793.37 541.32 794.73 543.39 C 798.00 540.39 801.70 536.30 800.32 531.48 C 797.27 519.22 797.15 506.53 796.44 493.99 C 796.09 490.97 797.02 488.08 798.78 485.65 C 800.86 493.32 800.80 501.36 802.48 509.12 C 804.01 516.19 804.36 523.53 806.59 530.45 C 808.00 534.14 810.57 538.46 814.91 538.87 C 818.36 537.90 820.16 534.33 821.27 531.20 C 823.22 525.02 823.44 518.43 823.17 512.01 C 822.80 502.85 819.60 494.10 818.97 484.97 C 826.46 495.75 827.63 509.18 831.78 521.32 C 832.85 524.24 834.47 527.92 838.08 528.14 C 840.54 527.85 841.58 525.17 841.81 523.03 C 842.42 516.45 840.94 509.93 839.71 503.51 C 836.52 489.03 833.29 473.89 824.14 461.83 C 816.47 451.56 807.29 441.67 804.32 428.81 C 801.34 415.23 800.02 401.31 799.67 387.43 C 786.51 391.55 773.15 395.09 759.49 397.05 M 352.13 541.18 C 347.58 547.45 346.45 555.31 344.64 562.65 C 343.16 569.68 341.12 576.74 341.36 583.99 C 341.47 588.61 344.18 592.54 347.02 595.96 C 353.74 588.26 356.99 578.27 363.14 570.17 C 364.31 568.93 365.86 568.17 367.25 567.23 C 365.46 573.07 362.36 578.39 359.96 583.99 C 357.45 589.69 353.19 595.39 354.80 601.99 C 355.26 604.93 356.54 610.47 360.63 608.64 C 367.51 605.28 370.50 597.55 374.27 591.34 C 376.40 587.35 378.75 583.13 383.12 581.25 C 382.47 590.95 374.84 597.98 372.76 607.20 C 375.98 604.97 379.49 602.57 380.65 598.60 C 385.22 586.38 393.12 575.90 400.12 565.03 C 404.84 557.75 409.60 550.49 413.91 542.95 C 422.18 529.26 428.71 514.63 436.71 500.80 C 426.26 500.99 415.65 500.41 405.57 497.46 C 401.91 496.42 398.62 494.46 395.49 492.35 C 382.25 509.68 365.26 523.76 352.13 541.18 M 381.32 606.71 C 368.52 616.61 360.59 632.68 361.61 648.94 C 362.36 657.15 366.77 664.68 372.77 670.19 C 388.19 684.65 414.64 685.74 430.56 671.49 C 434.70 668.75 433.02 663.07 433.10 658.91 C 433.33 655.81 430.41 654.28 428.52 652.41 C 418.70 643.27 409.99 633.02 400.50 623.56 C 394.49 617.52 387.79 612.24 381.32 606.71 M 494.63 655.83 C 493.42 659.30 489.26 660.01 486.07 660.49 C 477.12 661.44 468.32 663.81 459.26 663.72 C 458.54 674.48 457.78 685.34 459.20 696.08 C 460.32 704.76 463.20 713.12 463.89 721.87 C 475.84 727.29 489.02 729.28 502.03 730.03 C 510.67 730.37 519.61 730.23 527.77 727.02 C 529.79 710.58 529.41 693.38 536.06 677.91 C 521.11 669.60 506.91 659.15 496.74 645.21 C 495.61 648.66 495.38 652.30 494.63 655.83 M 158.49 732.30 C 157.38 743.16 159.61 754.24 163.80 764.27 C 168.03 775.83 179.54 781.89 189.95 786.95 C 205.12 794.32 222.25 795.48 238.03 801.08 C 247.76 803.88 256.15 809.82 265.71 813.08 C 272.57 815.56 280.06 816.45 287.29 815.33 C 294.48 814.15 300.44 809.42 305.38 804.33 C 314.43 794.66 322.50 783.88 327.71 771.64 C 317.50 773.07 306.45 773.03 297.30 767.69 C 285.49 761.45 277.70 749.87 272.58 737.86 C 262.68 737.70 252.92 735.95 243.06 735.21 C 227.99 733.69 212.82 733.30 197.81 731.26 C 187.54 730.47 177.30 729.23 167.02 728.79 C 164.05 728.96 159.24 728.44 158.49 732.30 M 431.58 912.62 C 428.18 914.51 427.17 918.47 425.93 921.87 C 423.56 929.09 420.75 936.17 418.26 943.36 C 415.35 951.77 414.17 960.80 415.19 969.67 C 418.98 971.53 422.89 973.22 427.05 974.09 C 443.43 977.52 460.49 978.21 477.01 975.26 C 481.18 974.87 482.89 970.45 483.45 966.88 C 484.93 954.85 482.37 942.76 478.72 931.34 C 476.69 925.08 473.35 918.95 467.98 914.96 C 462.99 911.57 456.95 910.14 451.04 909.48 C 444.48 908.97 437.20 908.57 431.58 912.62 Z" />
<path fill="#020202" opacity="1.00" d=" M 600.96 196.41 C 606.11 197.87 609.58 202.17 612.91 206.07 C 621.81 217.00 628.79 229.35 635.03 241.95 C 640.94 253.81 645.01 266.47 648.62 279.19 C 649.79 283.54 651.22 288.01 650.34 292.57 C 646.39 287.93 645.70 281.72 643.72 276.17 C 637.08 253.57 626.20 232.37 613.16 212.83 C 609.55 207.00 604.27 202.42 600.96 196.41 Z" />
<path fill="#020202" opacity="1.00" d=" M 560.06 390.65 C 565.68 389.65 571.34 391.04 576.99 391.00 C 579.48 391.30 582.62 390.74 584.41 392.94 C 584.99 395.68 582.06 397.08 579.85 397.51 C 558.47 400.56 537.32 394.27 515.95 394.30 C 508.81 393.83 501.65 394.90 494.53 394.17 C 498.10 391.33 502.76 391.11 507.10 390.75 C 519.74 389.93 532.44 390.74 544.98 392.43 C 553.18 393.58 561.46 394.12 569.74 394.18 C 566.34 393.53 562.86 392.82 560.06 390.65 Z" />
<path fill="#020202" opacity="1.00" d=" M 624.01 446.96 C 629.04 445.85 633.79 443.80 638.81 442.67 C 637.73 444.57 636.50 446.55 634.34 447.37 C 625.48 451.41 615.72 453.08 606.06 453.75 C 599.05 454.23 592.00 454.74 584.98 454.26 C 582.99 454.34 581.48 452.99 579.97 451.95 C 594.59 449.96 609.55 450.27 624.01 446.96 Z" />
</g>
<g id="#f0b58bff">
<path fill="#f0b58b" opacity="1.00" d=" M 417.59 87.07 C 420.02 90.48 422.17 94.07 424.14 97.77 C 427.76 104.80 429.12 112.68 432.03 119.99 C 436.25 114.48 439.25 108.15 443.68 102.77 C 446.68 98.73 449.84 94.54 454.44 92.20 C 454.99 93.68 455.91 95.24 455.28 96.87 C 453.40 105.03 449.33 113.27 451.55 121.81 C 452.39 126.17 456.07 129.38 460.21 130.58 C 469.50 133.39 479.34 133.32 488.96 133.28 C 499.09 132.89 510.41 132.11 518.01 124.50 C 518.34 127.30 518.83 130.07 519.49 132.81 C 511.72 135.89 504.10 139.34 496.21 142.10 C 489.10 144.80 481.72 146.73 474.76 149.80 C 464.08 154.64 454.48 161.65 446.12 169.84 C 437.02 158.70 430.26 145.64 425.84 131.97 C 422.70 122.36 423.16 112.09 420.90 102.29 C 419.73 97.23 418.70 92.14 417.59 87.07 Z" />
<path fill="#f0b58b" opacity="1.00" d=" M 381.32 606.71 C 387.79 612.24 394.49 617.52 400.50 623.56 C 409.99 633.02 418.70 643.27 428.52 652.41 C 430.41 654.28 433.33 655.81 433.10 658.91 C 433.02 663.07 434.70 668.75 430.56 671.49 C 414.64 685.74 388.19 684.65 372.77 670.19 C 366.77 664.68 362.36 657.15 361.61 648.94 C 360.59 632.68 368.52 616.61 381.32 606.71 Z" />
<path fill="#f0b58b" opacity="1.00" d=" M 494.63 655.83 C 495.38 652.30 495.61 648.66 496.74 645.21 C 506.91 659.15 521.11 669.60 536.06 677.91 C 529.41 693.38 529.79 710.58 527.77 727.02 C 519.61 730.23 510.67 730.37 502.03 730.03 C 489.02 729.28 475.84 727.29 463.89 721.87 C 463.20 713.12 460.32 704.76 459.20 696.08 C 457.78 685.34 458.54 674.48 459.26 663.72 C 468.32 663.81 477.12 661.44 486.07 660.49 C 489.26 660.01 493.42 659.30 494.63 655.83 Z" />
</g>
<g id="#f35e11ff">
<path fill="var(--shirt-color, grey)" opacity="1.00" d=" M 515.14 140.19 C 524.47 136.38 533.75 131.54 543.98 130.90 C 553.12 130.51 561.19 135.53 569.67 138.12 C 582.82 142.59 597.08 140.85 610.35 144.80 C 615.47 146.12 620.18 148.58 624.72 151.24 C 621.48 151.58 618.04 151.43 615.06 152.92 C 615.06 153.48 615.06 154.60 615.05 155.15 C 619.98 156.86 625.34 156.28 630.40 157.41 C 647.68 160.27 661.89 171.32 675.73 181.29 C 684.17 187.03 691.89 193.73 700.04 199.87 C 715.28 211.27 730.13 223.16 745.10 234.90 C 757.40 244.21 769.61 253.66 781.32 263.72 C 786.68 268.46 791.58 274.01 794.35 280.69 C 797.19 287.46 798.55 294.73 799.90 301.92 C 802.40 315.12 801.70 328.62 801.56 341.98 C 801.70 355.66 800.17 369.28 799.15 382.90 C 785.71 386.89 772.05 390.13 758.32 393.00 C 757.06 385.63 754.47 378.58 752.32 371.44 C 749.05 361.18 745.86 350.88 742.11 340.78 C 739.68 334.19 735.26 328.58 730.36 323.65 C 728.71 321.86 726.79 320.20 725.84 317.92 C 724.70 313.93 730.31 310.72 728.21 306.77 C 725.10 303.58 720.50 302.47 716.57 300.59 C 715.09 295.15 712.28 289.74 707.30 286.74 C 700.97 283.02 693.80 281.08 687.31 277.71 C 678.50 273.15 669.40 267.85 663.68 259.53 C 662.03 251.07 666.05 242.42 664.07 233.91 C 661.49 236.44 661.31 240.14 660.67 243.46 C 660.02 247.04 659.39 250.62 658.82 254.21 C 656.79 251.51 654.67 248.80 653.55 245.58 C 652.06 241.95 651.88 237.35 648.15 235.15 C 648.25 239.43 648.87 243.71 650.12 247.81 C 651.59 252.56 655.04 256.30 657.22 260.71 C 661.26 268.13 663.63 276.27 666.80 284.06 C 674.10 300.78 676.42 319.04 679.59 336.85 C 683.33 359.39 683.91 382.73 679.25 405.18 C 676.82 392.47 675.28 379.45 670.55 367.32 C 669.98 365.53 668.52 364.29 667.20 363.07 C 667.39 368.24 668.87 373.22 669.87 378.27 C 672.62 391.80 674.32 405.52 676.47 419.16 C 678.83 440.14 675.71 461.22 673.47 482.08 C 673.02 485.89 673.77 489.68 674.54 493.41 C 653.93 486.38 633.62 477.81 611.95 474.58 C 591.46 471.11 570.41 473.59 550.03 469.16 C 530.82 464.93 512.00 459.04 492.68 455.30 C 486.53 454.15 480.24 454.28 474.04 454.86 C 477.33 450.89 480.39 446.65 484.38 443.34 C 487.55 440.49 492.12 441.19 496.04 441.21 C 511.33 442.61 525.65 448.76 540.74 451.22 C 548.41 452.66 556.24 453.00 564.03 453.10 C 567.51 453.15 571.12 452.87 574.16 450.99 C 569.46 450.11 564.65 450.31 559.91 449.84 C 543.04 448.27 527.00 442.50 510.59 438.72 C 503.04 436.95 495.20 436.03 487.50 437.39 C 484.98 433.84 480.76 429.93 482.45 425.15 C 484.45 420.33 487.76 416.00 491.81 412.70 C 493.76 410.85 496.57 411.65 498.92 412.03 C 512.55 414.63 526.27 416.76 540.08 418.14 C 548.73 418.90 557.43 419.27 566.04 420.45 C 571.04 421.05 575.98 422.15 581.03 422.28 C 579.77 420.42 578.21 418.63 575.87 418.28 C 565.34 415.71 554.51 414.58 543.71 413.79 C 527.03 412.42 510.52 409.63 493.92 407.57 C 490.26 407.24 487.25 404.46 485.80 401.21 C 484.35 397.92 484.30 394.26 484.26 390.73 C 493.90 387.58 504.05 386.49 514.11 385.64 C 518.71 385.21 523.37 385.07 527.85 383.81 C 523.96 381.46 519.30 382.10 514.99 382.17 C 504.42 382.65 493.60 383.11 483.66 387.08 C 481.76 384.35 479.56 381.71 478.44 378.53 C 478.50 369.72 482.46 361.59 485.76 353.61 C 489.47 344.99 493.45 336.01 500.62 329.67 C 505.11 325.59 511.00 323.11 514.64 318.11 C 509.38 317.79 505.30 321.65 501.04 324.12 C 493.58 328.85 489.42 336.91 485.56 344.54 C 489.75 328.66 494.43 312.87 500.51 297.61 C 501.37 295.41 502.03 293.13 502.56 290.83 C 500.78 291.45 499.02 292.38 498.32 294.26 C 489.88 310.83 484.57 328.74 479.36 346.52 C 473.04 368.10 470.91 390.57 466.19 412.51 C 463.30 425.36 460.60 438.36 455.54 450.59 C 453.14 456.34 449.69 461.57 447.18 467.27 C 442.83 476.42 439.95 486.28 439.07 496.39 C 428.83 497.41 418.47 496.43 408.44 494.21 C 404.80 493.41 401.39 491.84 398.18 489.99 C 397.55 474.65 397.98 459.28 399.49 444.01 C 401.32 418.50 404.89 393.16 407.91 367.77 C 411.10 346.05 411.95 324.07 411.68 302.14 C 415.86 308.59 416.91 316.85 422.59 322.33 C 422.68 319.44 421.99 316.64 421.05 313.94 C 418.02 303.96 412.78 294.81 410.11 284.71 C 404.83 266.42 399.74 247.02 403.73 227.95 C 406.38 215.62 413.24 204.01 423.57 196.60 C 434.02 189.11 446.57 185.15 459.07 182.70 C 472.38 180.18 485.78 178.14 499.02 175.27 C 502.41 174.63 505.70 173.32 508.12 170.78 C 502.98 170.09 497.94 171.51 492.91 172.26 C 475.43 175.27 457.53 176.65 440.63 182.36 C 453.12 169.06 467.80 157.01 485.44 151.42 C 495.56 148.29 505.50 144.60 515.14 140.19 M 600.96 196.41 C 604.27 202.42 609.55 207.00 613.16 212.83 C 626.20 232.37 637.08 253.57 643.72 276.17 C 645.70 281.72 646.39 287.93 650.34 292.57 C 651.22 288.01 649.79 283.54 648.62 279.19 C 645.01 266.47 640.94 253.81 635.03 241.95 C 628.79 229.35 621.81 217.00 612.91 206.07 C 609.58 202.17 606.11 197.87 600.96 196.41 M 560.06 390.65 C 562.86 392.82 566.34 393.53 569.74 394.18 C 561.46 394.12 553.18 393.58 544.98 392.43 C 532.44 390.74 519.74 389.93 507.10 390.75 C 502.76 391.11 498.10 391.33 494.53 394.17 C 501.65 394.90 508.81 393.83 515.95 394.30 C 537.32 394.27 558.47 400.56 579.85 397.51 C 582.06 397.08 584.99 395.68 584.41 392.94 C 582.62 390.74 579.48 391.30 576.99 391.00 C 571.34 391.04 565.68 389.65 560.06 390.65 M 624.01 446.96 C 609.55 450.27 594.59 449.96 579.97 451.95 C 581.48 452.99 582.99 454.34 584.98 454.26 C 592.00 454.74 599.05 454.23 606.06 453.75 C 615.72 453.08 625.48 451.41 634.34 447.37 C 636.50 446.55 637.73 444.57 638.81 442.67 C 633.79 443.80 629.04 445.85 624.01 446.96 Z" />
</g>
<g id="#4d4d4dff">
<path fill="#4d4d4d" opacity="1.00" d=" M 759.49 397.05 C 773.15 395.09 786.51 391.55 799.67 387.43 C 800.02 401.31 801.34 415.23 804.32 428.81 C 807.29 441.67 816.47 451.56 824.14 461.83 C 833.29 473.89 836.52 489.03 839.71 503.51 C 840.94 509.93 842.42 516.45 841.81 523.03 C 841.58 525.17 840.54 527.85 838.08 528.14 C 834.47 527.92 832.85 524.24 831.78 521.32 C 827.63 509.18 826.46 495.75 818.97 484.97 C 819.60 494.10 822.80 502.85 823.17 512.01 C 823.44 518.43 823.22 525.02 821.27 531.20 C 820.16 534.33 818.36 537.90 814.91 538.87 C 810.57 538.46 808.00 534.14 806.59 530.45 C 804.36 523.53 804.01 516.19 802.48 509.12 C 800.80 501.36 800.86 493.32 798.78 485.65 C 797.02 488.08 796.09 490.97 796.44 493.99 C 797.15 506.53 797.27 519.22 800.32 531.48 C 801.70 536.30 798.00 540.39 794.73 543.39 C 793.37 541.32 791.84 539.27 791.24 536.83 C 788.86 527.71 790.33 518.24 789.80 508.96 C 789.59 500.89 788.69 492.83 786.96 484.95 C 786.49 482.63 785.18 480.63 783.92 478.68 C 782.89 491.42 786.80 504.16 784.85 516.89 C 784.25 520.53 783.99 524.21 783.39 527.85 C 782.83 530.97 780.01 532.89 777.89 534.97 C 774.92 527.67 775.78 519.68 775.86 512.00 C 776.04 504.12 775.26 496.25 774.29 488.43 C 773.89 486.16 773.63 483.18 770.88 482.61 C 769.80 491.17 771.02 499.87 769.59 508.43 C 761.69 502.36 760.82 491.88 756.46 483.58 C 753.36 476.04 746.00 469.78 747.04 460.99 C 747.90 447.07 751.96 433.65 754.38 419.98 C 755.80 412.27 757.49 404.62 759.49 397.05 Z" />
<path fill="#4d4d4d" opacity="1.00" d=" M 352.13 541.18 C 365.26 523.76 382.25 509.68 395.49 492.35 C 398.62 494.46 401.91 496.42 405.57 497.46 C 415.65 500.41 426.26 500.99 436.71 500.80 C 428.71 514.63 422.18 529.26 413.91 542.95 C 409.60 550.49 404.84 557.75 400.12 565.03 C 393.12 575.90 385.22 586.38 380.65 598.60 C 379.49 602.57 375.98 604.97 372.76 607.20 C 374.84 597.98 382.47 590.95 383.12 581.25 C 378.75 583.13 376.40 587.35 374.27 591.34 C 370.50 597.55 367.51 605.28 360.63 608.64 C 356.54 610.47 355.26 604.93 354.80 601.99 C 353.19 595.39 357.45 589.69 359.96 583.99 C 362.36 578.39 365.46 573.07 367.25 567.23 C 365.86 568.17 364.31 568.93 363.14 570.17 C 356.99 578.27 353.74 588.26 347.02 595.96 C 344.18 592.54 341.47 588.61 341.36 583.99 C 341.12 576.74 343.16 569.68 344.64 562.65 C 346.45 555.31 347.58 547.45 352.13 541.18 Z" />
<path fill="#4d4d4d" opacity="1.00" d=" M 158.49 732.30 C 159.24 728.44 164.05 728.96 167.02 728.79 C 177.30 729.23 187.54 730.47 197.81 731.26 C 212.82 733.30 227.99 733.69 243.06 735.21 C 252.92 735.95 262.68 737.70 272.58 737.86 C 277.70 749.87 285.49 761.45 297.30 767.69 C 306.45 773.03 317.50 773.07 327.71 771.64 C 322.50 783.88 314.43 794.66 305.38 804.33 C 300.44 809.42 294.48 814.15 287.29 815.33 C 280.06 816.45 272.57 815.56 265.71 813.08 C 256.15 809.82 247.76 803.88 238.03 801.08 C 222.25 795.48 205.12 794.32 189.95 786.95 C 179.54 781.89 168.03 775.83 163.80 764.27 C 159.61 754.24 157.38 743.16 158.49 732.30 Z" />
<path fill="#4d4d4d" opacity="1.00" d=" M 431.58 912.62 C 437.20 908.57 444.48 908.97 451.04 909.48 C 456.95 910.14 462.99 911.57 467.98 914.96 C 473.35 918.95 476.69 925.08 478.72 931.34 C 482.37 942.76 484.93 954.85 483.45 966.88 C 482.89 970.45 481.18 974.87 477.01 975.26 C 460.49 978.21 443.43 977.52 427.05 974.09 C 422.89 973.22 418.98 971.53 415.19 969.67 C 414.17 960.80 415.35 951.77 418.26 943.36 C 420.75 936.17 423.56 929.09 425.93 921.87 C 427.17 918.47 428.18 914.51 431.58 912.62 Z" />
</g>
</svg>
