<svg xmlns="http://www.w3.org/2000/svg" viewBox="0 0 34 35" enable-background="new 0 0 34 35">
 <g fill="#ec2227">
  <ellipse cx="5" cy="33.2" rx="5" ry="1.8"/>
  <polygon points="5,26.7 10,33.2 0,33.2 "/>
 </g>
 <path fill="#ed606a" d="m9.6 33.2l-4.5-6.2 1.4 7.5c0 0 .7.3 3.1-1.3"/>
 <path fill="#8d1b1f" d="m.6 32.9l4.2-6-1.6 7.4c0 0-2.2 0-2.6-1.4"/>
 <g fill="#ec2227">
  <ellipse cx="29" cy="8.5" rx="5" ry="1.8"/>
  <polygon points="29,2 34,8.5 24,8.5 "/>
 </g>
 <path fill="#ed606a" d="m33.6 8.5l-4.5-6.2 1.4 7.5c0 0 .7.3 3.1-1.3"/>
 <path fill="#8d1b1f" d="m24.6 8.2l4.2-6-1.6 7.4c0 0-2.2 0-2.6-1.4"/>
 <rect x="-3.5" y="14" transform="matrix(.7071-.7071.7071.7071-5.617 15.96)" fill="#191415" width="40" height="1.5"/>
</svg>
