<svg xmlns="http://www.w3.org/2000/svg" viewBox="0 0 34 35" enable-background="new 0 0 34 35">
 <g fill="#ec2227">
  <ellipse cx="29" cy="33.2" rx="5" ry="1.8"/>
  <polygon points="34,33.2 24,33.2 29,26.7 "/>
 </g>
 <path fill="#ed606a" d="m27.5 34.5l1.4-7.5-4.5 6.2c2.4 1.6 3.1 1.3 3.1 1.3"/>
 <path fill="#8d1b1f" d="m33.4 32.9c-.4 1.4-2.6 1.4-2.6 1.4l-1.6-7.4 4.2 6"/>
 <g fill="#ec2227">
  <ellipse cx="5" cy="8.5" rx="5" ry="1.8"/>
  <polygon points="10,8.5 0,8.5 5,2 "/>
 </g>
 <path fill="#ed606a" d="m3.5 9.8l1.4-7.5-4.5 6.2c2.4 1.6 3.1 1.3 3.1 1.3"/>
 <path fill="#8d1b1f" d="M9.4,8.2C9,9.6,6.8,9.6,6.8,9.6L5.2,2.2L9.4,8.2"/>
 <rect x="-2.5" y="14" transform="matrix(-.7071-.7071.7071-.7071 19.465 37.526)" fill="#191415" width="40" height="1.5"/>
</svg>
