<?xml version="1.0" encoding="UTF-8" ?>
<!DOCTYPE svg PUBLIC "-//W3C//DTD SVG 1.1//EN" "http://www.w3.org/Graphics/SVG/1.1/DTD/svg11.dtd">
<svg width="1000pt" height="1000pt" viewBox="0 0 1000 1000" version="1.1" xmlns="http://www.w3.org/2000/svg">
	<g id="#020202ff">
		<path fill="#020202" opacity="1.00"
			d=" M 382.65 42.64 C 390.43 27.68 406.32 17.71 422.96 16.01 C 451.66 12.61 480.99 30.32 492.49 56.62 C 495.82 65.05 498.93 73.82 498.80 83.02 C 499.65 98.01 494.66 112.53 488.52 125.97 C 491.75 133.41 497.82 139.14 504.79 143.10 C 510.63 146.58 516.60 150.06 523.25 151.75 C 536.79 154.89 549.19 161.78 562.93 164.17 C 567.39 164.94 572.00 166.39 575.08 169.91 C 579.52 174.84 583.51 180.16 587.77 185.25 C 591.85 185.69 596.05 186.28 599.67 188.39 C 619.39 199.68 632.66 218.80 650.32 232.68 C 656.61 237.83 664.73 240.63 670.10 246.92 C 671.81 248.44 670.17 250.49 669.56 252.10 C 681.62 258.56 693.60 265.32 704.50 273.63 C 717.30 284.47 724.60 299.93 732.78 314.21 C 740.61 327.69 747.71 341.63 756.68 354.41 C 759.81 358.82 763.33 363.23 768.28 365.71 C 775.84 369.58 784.15 372.64 790.29 378.73 C 795.09 383.42 795.51 390.46 796.25 396.73 C 796.78 403.16 797.77 409.57 797.81 416.03 C 797.67 418.01 797.59 420.56 795.75 421.77 C 794.05 422.91 792.49 421.15 791.06 420.43 C 792.72 427.16 793.62 434.07 794.12 440.97 C 794.09 443.57 794.27 447.07 791.66 448.55 C 789.49 449.68 787.67 447.75 786.12 446.54 C 785.48 448.74 784.87 451.81 782.05 452.08 C 778.92 452.56 777.01 449.58 775.16 447.63 C 773.95 449.14 773.00 451.29 770.86 451.60 C 767.73 452.36 764.66 450.58 762.72 448.24 C 759.38 444.28 757.20 439.52 754.73 435.01 C 753.53 439.56 752.99 444.24 752.42 448.90 C 752.16 450.95 751.37 453.68 748.87 453.81 C 745.45 453.99 743.49 450.55 742.18 447.89 C 737.87 438.40 735.67 428.13 733.33 418.02 C 731.07 408.50 729.72 398.79 728.79 389.07 C 726.43 382.91 720.18 379.59 715.01 376.05 C 707.47 371.09 700.27 365.42 694.34 358.58 C 687.20 349.90 684.61 338.62 678.82 329.14 C 676.97 325.93 673.72 323.93 670.37 322.59 C 660.56 318.52 650.47 315.20 640.65 311.17 C 637.59 316.99 633.60 322.34 628.78 326.81 C 626.81 328.68 624.00 328.99 621.63 330.08 C 620.95 334.43 621.70 338.84 622.24 343.16 C 623.96 355.81 625.90 368.42 627.83 381.04 C 628.86 387.66 628.87 394.38 628.23 401.04 C 627.69 404.86 630.56 407.87 631.79 411.25 C 635.01 419.08 636.44 428.23 633.25 436.31 C 631.53 441.08 628.67 445.35 627.00 450.13 C 626.13 452.05 627.89 453.65 628.80 455.16 C 632.70 460.32 634.44 467.96 631.01 473.78 C 634.75 480.47 637.66 487.65 639.42 495.12 C 641.25 502.94 641.01 511.01 641.17 518.98 C 641.29 525.39 643.48 531.57 643.43 538.00 C 643.51 544.46 641.94 550.76 640.75 557.06 C 639.48 562.71 641.89 568.35 641.21 574.03 C 640.78 578.86 637.73 583.09 637.78 588.02 C 637.71 594.68 638.93 601.31 638.55 607.99 C 638.02 617.34 636.68 626.65 636.77 636.03 C 636.80 641.29 638.41 646.49 637.66 651.75 C 637.03 656.47 635.91 661.19 636.27 665.99 C 637.61 680.70 636.05 695.55 638.38 710.20 C 639.58 724.93 649.93 737.40 662.29 744.71 C 685.71 759.21 706.56 778.42 721.13 801.93 C 733.84 821.36 743.71 842.45 755.51 862.41 C 759.01 868.56 762.64 874.62 766.23 880.72 C 768.09 883.81 769.47 887.47 772.89 889.22 C 780.22 893.65 786.01 900.09 791.28 906.74 C 797.75 914.95 801.83 924.68 807.82 933.21 C 811.86 939.48 817.34 945.05 819.50 952.37 C 820.65 956.73 820.78 962.02 817.46 965.52 C 810.36 973.28 800.22 977.50 790.07 979.51 C 782.70 980.66 775.08 982.23 767.73 980.08 C 759.24 978.24 752.66 971.69 748.55 964.32 C 745.09 958.13 746.02 950.58 742.68 944.35 C 740.49 939.80 736.74 936.32 733.64 932.43 C 729.55 927.17 729.90 920.13 728.94 913.87 C 722.54 908.69 716.88 902.70 710.85 897.12 C 702.22 889.11 693.74 880.94 684.87 873.20 C 675.50 864.89 666.04 856.70 657.25 847.78 C 645.86 836.35 635.61 823.82 626.31 810.64 C 622.47 805.52 619.14 799.93 614.47 795.51 C 607.63 789.66 599.98 784.78 591.70 781.25 C 577.88 775.18 565.45 765.01 558.60 751.37 C 550.30 735.34 546.99 717.43 541.84 700.27 C 538.98 689.92 535.50 679.58 529.81 670.41 C 527.71 672.74 525.45 674.94 522.89 676.78 C 520.16 673.76 518.03 670.21 516.81 666.32 C 513.01 654.51 511.75 641.96 506.85 630.50 C 490.89 634.70 475.93 641.90 460.43 647.46 C 449.67 651.52 438.54 654.53 427.87 658.83 C 422.05 661.09 416.67 664.32 410.91 666.70 C 412.39 661.64 412.16 656.34 412.08 651.15 C 400.08 652.49 387.99 652.10 375.96 651.62 C 364.27 651.07 352.57 650.28 341.01 648.43 C 353.07 662.38 365.41 676.94 370.98 694.87 C 376.07 712.59 380.55 730.53 387.25 747.74 C 393.63 763.77 403.31 778.12 412.26 792.77 C 418.78 801.83 427.45 809.07 436.54 815.45 C 444.41 822.29 452.71 829.45 457.16 839.09 C 460.35 848.16 461.81 859.06 456.76 867.74 C 451.65 875.73 441.78 878.30 433.02 879.97 C 416.87 882.50 400.43 880.87 384.21 882.66 C 370.92 884.36 356.92 886.75 343.97 881.99 C 332.93 877.30 325.04 867.05 321.05 855.98 C 318.67 848.51 317.06 840.01 320.71 832.66 C 323.64 826.17 330.56 823.03 336.86 820.73 C 346.77 817.38 357.29 816.51 367.34 813.70 C 365.24 808.77 361.80 804.63 358.34 800.61 C 345.19 784.87 329.62 771.33 316.69 755.39 C 307.42 743.85 298.62 731.92 290.38 719.63 C 284.35 710.88 278.48 702.01 273.35 692.69 C 269.58 686.01 266.57 678.94 262.86 672.23 C 257.56 662.38 251.19 653.16 245.42 643.59 C 238.29 633.08 230.15 621.57 231.47 608.19 C 233.78 597.13 241.97 588.48 250.16 581.22 C 269.36 565.08 292.25 553.64 316.14 546.28 C 319.21 545.27 320.70 542.06 323.20 540.22 C 330.19 534.57 338.73 531.40 346.91 527.89 C 362.34 521.38 378.72 517.53 395.15 514.52 C 400.91 513.34 407.04 512.47 411.98 509.04 C 417.37 504.36 420.18 497.25 426.16 493.17 C 429.23 490.83 433.18 490.44 436.89 490.04 C 436.10 484.10 431.87 479.65 429.72 474.28 C 428.38 468.30 429.22 462.10 428.87 456.03 C 428.23 441.57 424.66 427.48 422.71 413.19 C 422.10 407.54 421.13 401.75 422.44 396.13 C 423.12 393.13 423.54 390.04 423.04 386.98 C 421.91 378.68 420.14 370.42 420.17 362.01 C 420.21 359.64 419.94 357.26 419.20 355.01 C 411.55 329.31 404.60 303.02 404.31 276.03 C 404.40 265.92 406.24 255.94 407.99 246.02 C 409.20 240.93 407.18 235.92 405.91 231.07 C 403.95 224.16 398.60 217.49 401.12 209.97 C 404.32 200.09 410.79 191.73 415.41 182.50 C 406.54 172.25 403.37 158.68 397.21 146.87 C 394.64 142.14 392.33 137.23 390.91 132.03 C 388.26 123.22 388.97 113.76 386.04 105.02 C 384.13 99.47 383.48 93.59 383.13 87.76 C 382.21 88.26 381.29 88.76 380.38 89.26 C 380.66 83.67 377.95 78.61 377.39 73.15 C 376.00 62.77 377.97 51.98 382.65 42.64 M 444.92 65.92 C 441.94 70.62 438.30 74.85 434.35 78.75 C 434.12 73.11 433.74 67.23 430.51 62.38 C 427.71 65.96 424.39 69.23 422.48 73.42 C 420.94 76.51 420.22 79.90 419.37 83.22 C 416.16 77.41 416.96 70.64 416.78 64.27 C 410.14 71.64 402.40 77.95 394.59 84.04 C 394.12 78.48 396.36 73.10 395.95 67.52 C 392.64 73.06 390.52 79.24 386.84 84.58 C 387.26 89.30 387.65 94.04 388.56 98.70 C 392.80 98.31 397.39 97.53 401.38 99.46 C 404.08 100.68 406.14 103.22 406.71 106.13 C 406.72 107.21 407.37 109.11 405.94 109.56 C 401.28 110.54 396.66 111.66 392.14 113.14 C 393.05 119.59 393.33 126.21 395.43 132.44 C 396.92 137.59 399.55 142.28 401.96 147.03 C 406.18 156.07 409.50 165.58 414.90 174.02 C 416.72 176.69 418.80 179.65 422.09 180.56 C 424.63 181.25 427.31 181.66 429.95 181.36 C 441.33 179.61 451.92 174.21 460.64 166.77 C 464.65 163.69 467.72 159.58 471.67 156.42 C 469.52 163.84 462.86 168.54 457.20 173.23 C 450.47 178.78 442.49 182.54 434.09 184.80 C 440.16 189.00 442.65 196.31 444.38 203.15 C 445.92 210.81 445.97 218.91 449.33 226.10 C 459.35 219.81 466.85 210.43 475.34 202.35 C 484.15 193.48 493.74 185.16 500.67 174.64 C 502.89 171.53 503.26 167.16 500.97 163.98 C 500.05 161.80 496.85 159.33 498.97 156.96 C 502.22 154.06 506.39 152.45 510.55 151.30 C 500.12 146.27 489.37 139.29 485.06 127.99 C 481.50 115.90 486.01 103.29 483.65 91.06 C 482.98 87.48 481.03 84.19 477.93 82.20 C 476.46 83.77 474.88 85.40 474.33 87.55 C 472.67 93.61 472.89 100.11 474.61 106.12 C 476.04 110.96 475.90 116.05 475.31 121.00 C 474.71 125.75 475.31 130.56 474.48 135.28 C 468.62 131.26 466.48 123.75 466.89 116.95 C 467.13 112.39 466.95 107.08 463.01 104.02 C 458.96 101.31 453.74 99.82 448.94 101.23 C 439.72 103.59 430.55 107.07 420.93 107.04 C 416.06 106.52 414.81 100.87 414.55 96.85 C 419.77 94.22 425.51 92.95 431.11 91.43 C 439.17 89.46 447.27 87.45 455.57 86.85 C 455.24 81.60 456.39 76.44 458.21 71.54 C 455.38 74.38 452.92 77.65 449.50 79.82 C 449.48 76.46 451.36 73.60 452.50 70.55 C 453.99 67.00 453.83 63.07 453.98 59.29 C 450.48 60.72 446.98 62.62 444.92 65.92 M 502.83 158.30 C 504.68 161.32 507.12 164.27 507.30 167.96 C 507.66 171.60 506.13 175.09 504.11 178.03 C 496.97 188.43 487.35 196.72 478.46 205.54 C 471.18 212.56 464.34 220.07 456.38 226.35 C 454.17 227.94 451.81 229.80 448.97 229.91 C 446.63 229.89 445.23 227.68 444.37 225.80 C 440.37 216.27 441.43 205.43 437.07 196.01 C 435.50 191.89 432.52 188.58 429.29 185.68 C 425.95 185.70 422.62 185.48 419.33 184.94 C 416.33 191.22 412.67 197.13 409.10 203.09 C 406.61 207.76 403.41 213.17 405.65 218.57 C 407.51 223.29 409.42 228.02 410.22 233.07 C 411.07 227.52 411.43 221.91 412.33 216.37 C 415.35 218.64 414.36 222.75 414.40 226.01 C 413.59 244.79 407.28 263.08 408.69 281.98 C 409.80 297.16 412.10 312.28 416.08 326.98 C 418.95 337.74 421.65 348.55 424.85 359.22 C 427.06 365.56 429.42 372.04 433.45 377.48 C 440.48 384.86 448.51 391.21 456.67 397.29 C 467.71 405.46 477.30 415.35 487.00 425.02 C 490.15 428.27 493.68 431.36 495.48 435.63 C 490.37 433.38 486.76 429.00 482.67 425.38 C 474.94 418.01 466.93 410.92 458.39 404.51 C 446.38 395.74 434.12 386.66 425.61 374.26 C 426.80 380.55 428.11 386.88 427.86 393.33 C 432.83 398.75 438.72 403.24 444.95 407.11 C 455.45 413.68 465.93 420.52 474.65 429.40 C 478.28 433.12 481.72 437.01 485.24 440.83 C 488.39 444.34 491.85 447.71 493.91 452.04 C 490.35 450.94 487.81 448.19 485.32 445.60 C 476.54 436.38 467.19 427.64 456.78 420.26 C 446.51 412.82 434.73 407.11 426.57 397.10 C 426.21 409.04 428.90 420.75 430.93 432.43 C 438.44 438.11 445.12 444.86 453.17 449.81 C 461.44 455.34 471.22 458.06 480.97 459.54 C 493.61 461.29 506.53 461.71 519.17 459.68 C 531.41 457.56 543.84 457.31 556.11 455.46 C 555.45 457.09 554.18 458.27 552.48 458.68 C 546.19 460.79 539.50 460.98 533.01 461.99 C 523.34 463.26 513.76 465.50 503.98 465.57 C 488.41 465.83 472.36 464.46 458.02 457.93 C 448.24 453.30 440.03 446.14 432.01 439.01 C 433.07 446.29 434.05 453.62 433.79 460.99 C 433.75 464.67 433.28 468.37 433.71 472.05 C 434.45 475.59 436.82 478.49 438.25 481.78 C 439.94 485.08 440.13 488.91 441.73 492.24 C 457.44 494.15 473.19 495.82 488.98 496.99 C 498.18 497.74 507.52 496.43 516.17 493.23 C 531.05 487.64 544.90 479.41 560.29 475.17 C 569.29 472.61 578.74 472.89 588.00 472.75 C 600.69 473.00 613.35 471.88 626.03 471.93 C 626.80 469.19 628.50 466.34 627.42 463.46 C 626.60 460.47 624.58 458.06 622.81 455.60 C 618.90 456.75 615.57 459.15 611.90 460.83 C 607.16 462.88 602.00 460.69 597.98 458.08 C 592.29 454.21 587.55 449.15 582.26 444.78 C 572.98 436.79 562.74 430.02 552.28 423.69 C 540.65 416.63 529.70 408.51 519.30 399.74 C 505.05 387.69 490.34 375.85 473.66 367.29 C 474.64 366.56 475.53 365.22 476.95 365.60 C 480.33 366.30 483.35 368.07 486.36 369.69 C 497.39 376.01 507.67 383.57 517.43 391.70 C 529.33 401.61 541.66 411.05 554.96 419.03 C 567.47 426.54 579.57 434.86 590.26 444.83 C 595.16 449.04 599.66 454.30 606.04 456.22 C 608.90 457.20 611.46 455.15 613.82 453.83 C 616.22 452.29 618.94 451.38 621.67 450.62 C 623.82 444.15 627.97 438.50 629.67 431.87 C 631.17 424.49 629.37 416.68 625.80 410.15 C 623.75 406.35 619.38 404.97 615.67 403.39 C 605.08 399.37 594.76 394.31 585.88 387.21 C 574.90 378.41 567.36 366.34 558.14 355.89 C 551.83 348.56 544.55 342.14 537.01 336.10 C 527.34 328.49 517.72 320.79 507.64 313.72 C 509.42 313.44 511.37 312.97 513.02 314.00 C 517.97 316.53 522.46 319.87 527.10 322.91 C 540.62 332.48 553.75 342.91 564.40 355.68 C 571.42 363.96 577.63 372.97 585.54 380.46 C 596.17 390.78 610.19 396.12 623.15 402.73 C 625.23 388.32 621.36 374.08 619.55 359.86 C 618.37 349.68 615.96 339.35 617.83 329.09 C 605.10 326.42 593.03 321.33 581.39 315.61 C 568.13 309.22 555.22 301.19 540.46 298.82 C 535.34 297.83 530.09 298.72 524.98 297.86 C 525.67 295.21 528.92 295.27 531.08 294.76 C 545.81 292.67 559.74 299.24 572.66 305.41 C 588.07 313.08 603.58 321.06 620.51 324.76 C 614.77 312.22 617.77 297.60 623.84 285.76 C 632.43 268.99 646.76 255.10 664.10 247.59 C 660.18 245.56 656.32 243.09 651.85 242.55 C 646.61 241.85 641.30 241.73 636.03 241.82 C 626.06 241.83 616.48 244.88 606.84 246.99 C 590.21 251.42 573.93 257.10 557.11 260.80 C 552.45 261.62 547.47 262.74 542.88 261.07 C 543.03 260.63 543.34 259.76 543.49 259.32 C 548.39 257.85 553.54 257.27 558.41 255.64 C 571.22 251.56 584.17 247.99 597.00 243.97 C 613.54 239.29 630.65 234.55 648.01 236.80 C 633.00 225.34 621.05 210.40 605.91 199.11 C 601.17 195.65 596.22 191.60 590.08 191.36 C 582.92 190.80 575.05 190.47 569.07 186.03 C 569.10 185.47 569.16 184.37 569.19 183.81 C 573.41 183.48 577.55 184.70 581.72 185.16 C 578.29 181.28 575.33 177.02 571.93 173.13 C 569.47 170.18 565.59 169.25 561.98 168.63 C 551.82 166.90 542.23 162.98 532.61 159.45 C 523.20 155.72 512.37 154.06 502.83 158.30 M 624.66 299.56 C 629.77 301.18 634.75 303.17 639.69 305.26 C 650.89 309.93 662.59 313.30 673.72 318.15 C 676.99 319.50 679.76 321.75 682.17 324.31 C 681.70 318.21 682.25 312.10 682.27 305.99 C 682.55 300.67 682.16 295.18 683.94 290.06 C 685.28 294.60 684.78 299.38 684.87 304.04 C 684.80 312.05 685.42 320.05 685.47 328.06 C 685.44 330.36 686.64 332.39 687.53 334.43 C 689.92 339.41 692.02 344.53 694.60 349.42 C 698.44 356.56 704.79 361.85 711.01 366.85 C 717.68 372.17 726.01 375.78 730.88 383.07 C 734.37 388.01 732.83 394.32 734.07 399.91 C 735.12 409.15 737.85 418.05 739.89 427.09 C 741.91 434.77 743.85 442.65 747.96 449.53 C 748.54 444.29 749.39 439.08 750.80 433.99 C 752.36 428.35 748.77 423.30 747.72 417.96 C 746.58 412.84 745.20 407.79 743.99 402.70 C 752.53 415.92 756.58 431.54 765.56 444.51 C 766.77 446.53 768.92 447.56 771.19 447.94 C 773.57 442.26 768.77 437.62 767.31 432.44 C 764.48 423.38 762.96 413.96 760.17 404.87 C 764.14 415.54 768.95 425.87 773.66 436.22 C 775.74 440.80 778.37 445.23 782.03 448.73 C 783.04 444.27 783.52 439.46 781.77 435.12 C 777.54 423.63 775.94 411.44 772.81 399.65 C 774.10 401.86 775.53 404.00 776.67 406.31 C 781.81 419.12 784.06 433.01 790.16 445.44 C 790.72 432.05 787.60 418.82 783.93 406.03 C 782.19 399.52 777.43 394.51 774.43 388.61 C 779.32 392.44 782.72 397.70 786.62 402.46 C 789.69 406.00 790.81 410.66 792.88 414.78 C 792.34 408.18 791.59 401.61 791.00 395.02 C 790.47 390.36 790.14 385.02 786.30 381.73 C 780.30 376.54 772.72 373.81 765.78 370.18 C 757.41 365.71 752.44 357.26 747.39 349.60 C 739.71 337.16 732.66 324.36 725.37 311.70 C 719.60 301.41 713.96 290.84 705.86 282.14 C 700.49 276.33 693.57 272.35 687.15 267.84 C 679.93 262.82 671.99 258.90 664.99 253.57 C 645.85 262.26 630.72 279.41 624.66 299.56 M 624.68 324.52 C 629.07 319.84 633.07 314.80 636.50 309.37 C 632.24 307.37 627.95 305.42 623.68 303.47 C 622.37 310.46 622.57 317.70 624.68 324.52 M 585.98 476.76 C 577.99 476.94 569.86 476.74 562.08 478.86 C 545.89 483.07 531.55 492.12 515.83 497.60 C 506.98 500.61 497.50 501.56 488.20 500.85 C 472.41 500.14 456.76 497.92 441.05 496.49 C 439.35 496.02 438.37 494.38 437.14 493.26 C 434.35 493.79 431.49 494.45 429.17 496.18 C 423.26 500.34 420.39 507.37 415.11 512.17 C 410.47 515.86 404.53 517.25 398.85 518.50 C 383.58 521.74 368.19 524.84 353.54 530.34 C 344.64 533.77 335.56 536.93 327.42 541.96 C 347.45 545.37 366.24 555.13 380.97 569.07 C 405.70 592.34 418.19 626.98 416.47 660.65 C 428.52 653.43 442.30 650.06 455.36 645.20 C 468.01 640.69 480.32 635.25 493.03 630.90 C 497.37 629.14 501.92 628.00 506.52 627.16 C 505.49 622.61 504.36 618.09 503.66 613.49 C 503.34 611.03 502.79 608.28 504.50 606.19 C 506.04 611.21 506.68 616.48 508.43 621.44 C 512.11 630.97 514.58 640.92 516.73 650.89 C 518.41 658.40 519.85 666.11 523.45 673.00 C 530.57 663.07 536.43 651.87 545.98 643.94 C 555.10 636.38 567.53 634.99 578.96 635.50 C 590.47 636.02 601.35 640.79 610.74 647.25 C 617.48 651.73 624.24 657.02 632.50 658.12 C 633.09 653.73 634.30 649.28 633.63 644.83 C 631.46 632.59 633.87 620.22 634.47 607.96 C 634.78 600.96 633.55 594.02 633.64 587.04 C 633.56 582.13 636.79 577.93 636.85 573.05 C 637.15 568.02 635.10 563.08 636.09 558.06 C 637.09 551.74 638.70 545.48 638.79 539.05 C 638.88 534.66 637.92 530.35 637.23 526.04 C 635.98 519.09 636.76 512.00 636.15 504.99 C 635.66 494.66 631.81 484.94 628.47 475.28 C 614.30 475.61 600.16 476.98 585.98 476.76 M 305.82 553.59 C 284.02 562.05 262.75 573.32 246.16 590.07 C 240.28 596.27 234.29 603.89 234.86 612.95 C 235.77 625.10 243.75 634.90 250.35 644.58 C 255.53 652.81 261.21 660.74 265.69 669.39 C 268.95 658.44 277.15 649.42 287.18 644.17 C 299.80 637.39 314.75 636.43 328.71 638.51 C 325.56 633.59 320.59 629.17 320.26 623.01 C 321.63 623.80 322.93 624.81 323.86 626.13 C 328.00 631.61 332.33 636.96 336.44 642.48 C 338.29 645.66 342.44 644.94 345.53 645.69 C 367.53 648.24 389.77 649.17 411.91 648.18 C 411.10 636.33 408.73 624.56 404.60 613.41 C 398.88 597.64 388.65 583.90 376.70 572.28 C 365.91 561.59 352.38 553.93 338.02 549.13 C 334.11 547.89 330.03 546.17 325.85 547.20 C 319.00 548.73 312.40 551.19 305.82 553.59 M 549.61 645.65 C 542.12 651.34 537.14 659.58 531.68 667.09 C 535.80 671.52 537.87 677.28 540.21 682.74 C 549.71 706.32 551.69 732.80 565.23 754.74 C 571.49 764.11 580.52 771.55 590.74 776.26 C 602.46 781.69 614.45 787.99 622.52 798.39 C 628.58 795.81 632.74 790.43 636.14 785.02 C 644.21 771.49 648.78 755.91 649.45 740.19 C 645.15 735.80 641.56 730.75 638.69 725.32 C 634.92 718.20 634.46 709.98 633.59 702.14 C 632.59 688.82 633.38 675.44 632.21 662.14 C 623.45 661.12 616.21 655.72 609.22 650.81 C 600.07 644.37 589.35 639.76 578.07 639.27 C 568.32 638.93 557.65 639.43 549.61 645.65 M 289.59 647.49 C 279.06 652.58 271.24 662.35 267.95 673.51 C 268.90 675.42 269.85 677.35 270.79 679.27 C 279.78 698.91 292.80 716.27 305.30 733.75 C 315.75 748.37 327.46 762.06 340.16 774.77 C 350.95 786.31 362.56 797.51 370.23 811.48 C 375.96 810.72 381.00 806.98 386.92 807.42 C 394.81 807.86 401.61 812.26 408.71 815.24 C 411.72 816.36 415.81 817.87 418.35 815.00 C 416.59 805.51 410.42 797.57 405.50 789.46 C 399.71 780.14 393.60 770.98 388.83 761.07 C 381.40 746.77 376.97 731.20 372.40 715.82 C 369.11 705.23 367.08 694.14 361.75 684.30 C 354.19 668.74 341.26 656.86 331.67 642.65 C 317.58 640.26 302.51 640.88 289.59 647.49 M 653.08 743.35 C 652.88 759.48 647.84 775.51 639.09 789.04 C 635.56 794.42 631.00 799.42 624.88 801.80 C 631.48 810.88 637.99 820.05 645.36 828.54 C 655.56 840.66 667.03 851.66 678.97 862.06 C 694.79 875.84 710.29 890.00 725.06 904.91 C 728.61 908.25 732.07 912.29 737.03 913.45 C 739.23 914.17 740.47 911.76 741.37 910.22 C 744.57 903.73 747.12 896.52 752.75 891.66 C 756.18 888.50 760.93 887.71 765.26 886.47 C 760.09 877.71 754.81 869.00 749.82 860.13 C 739.21 841.69 730.12 822.38 718.34 804.63 C 709.61 790.19 698.14 777.61 685.50 766.51 C 675.55 757.62 663.93 751.02 653.08 743.35 M 419.55 806.29 C 420.52 809.11 421.87 811.96 421.75 815.03 C 421.32 818.63 417.38 820.71 414.02 820.41 C 403.99 819.86 396.12 811.58 385.96 811.72 C 378.68 812.78 372.12 816.44 365.02 818.20 C 354.43 820.83 343.32 821.81 333.29 826.36 C 329.37 828.12 325.33 830.63 323.76 834.85 C 321.85 838.82 322.13 843.34 322.94 847.55 C 328.04 842.79 333.64 838.11 340.63 836.52 C 353.55 833.58 367.32 836.03 379.00 842.08 C 386.41 845.52 393.14 850.57 401.11 852.73 C 405.50 854.04 410.16 852.49 413.43 849.44 C 417.17 846.21 421.42 843.45 426.29 842.31 C 436.03 839.83 447.14 840.11 455.69 845.93 C 452.99 836.56 445.91 829.53 439.00 823.06 C 432.80 817.12 424.94 813.10 419.55 806.29 M 323.58 850.91 C 327.34 862.89 335.47 874.96 348.13 878.57 C 359.17 882.28 370.88 879.92 382.09 878.51 C 397.69 876.77 413.43 878.27 429.06 876.85 C 436.21 876.11 443.38 874.27 449.59 870.56 C 455.74 866.93 457.76 858.84 456.62 852.18 C 455.31 849.31 452.09 847.89 449.32 846.76 C 441.56 844.29 432.98 844.69 425.30 847.24 C 418.20 849.40 413.80 857.03 405.99 857.36 C 395.90 857.87 387.62 851.15 378.91 847.09 C 367.97 841.29 355.26 838.33 342.92 840.38 C 335.52 841.69 329.10 845.99 323.58 850.91 M 754.16 896.08 C 749.21 901.34 747.99 908.96 743.18 914.27 C 740.74 917.07 736.89 917.00 733.52 916.71 C 734.26 921.17 734.30 926.09 737.04 929.92 C 739.91 933.99 743.59 937.44 746.26 941.67 C 750.43 948.42 749.27 956.99 753.14 963.89 C 756.35 970.48 762.48 975.71 769.89 976.67 C 780.01 978.46 790.09 974.96 799.44 971.42 C 805.15 968.95 810.77 965.59 814.67 960.65 C 817.66 955.36 813.78 949.54 810.85 945.15 C 805.47 938.03 800.53 930.58 796.34 922.69 C 791.96 914.41 786.33 906.83 779.82 900.10 C 776.17 896.39 771.77 893.55 767.75 890.27 C 763.05 891.66 757.48 892.01 754.16 896.08 Z" />
		<path fill="#020202" opacity="1.00"
			d=" M 405.94 129.18 C 402.89 123.27 404.94 115.88 407.40 110.04 C 409.27 116.39 406.51 122.82 405.94 129.18 Z" />
		<path fill="#020202" opacity="1.00"
			d=" M 406.16 140.81 C 405.88 138.37 406.23 135.93 406.50 133.52 C 409.66 136.46 413.30 138.82 417.14 140.78 C 413.54 141.30 409.60 142.61 406.16 140.81 Z" />
		<path fill="#020202" opacity="1.00"
			d=" M 424.03 155.02 C 429.74 153.41 435.42 151.64 441.22 150.41 C 442.63 149.84 443.69 150.83 444.63 151.73 C 443.52 152.35 442.42 152.97 441.31 153.58 C 440.49 154.95 439.93 156.74 438.20 157.18 C 432.33 159.53 426.05 160.67 419.94 162.23 C 417.92 162.99 416.13 161.72 414.46 160.79 C 413.66 160.57 412.05 160.15 411.25 159.93 C 414.88 156.96 419.72 156.48 424.03 155.02 Z" />
	</g>
	<g id="#f0b58bff">
		<path fill="#f0b58b" opacity="1.00"
			d=" M 444.92 65.92 C 446.98 62.62 450.48 60.72 453.98 59.29 C 453.83 63.07 453.99 67.00 452.50 70.55 C 451.36 73.60 449.48 76.46 449.50 79.82 C 452.92 77.65 455.38 74.38 458.21 71.54 C 456.39 76.44 455.24 81.60 455.57 86.85 C 447.27 87.45 439.17 89.46 431.11 91.43 C 425.51 92.95 419.77 94.22 414.55 96.85 C 414.81 100.87 416.06 106.52 420.93 107.04 C 430.55 107.07 439.72 103.59 448.94 101.23 C 453.74 99.82 458.96 101.31 463.01 104.02 C 466.95 107.08 467.13 112.39 466.89 116.95 C 466.48 123.75 468.62 131.26 474.48 135.28 C 475.31 130.56 474.71 125.75 475.31 121.00 C 475.90 116.05 476.04 110.96 474.61 106.12 C 472.89 100.11 472.67 93.61 474.33 87.55 C 474.88 85.40 476.46 83.77 477.93 82.20 C 481.03 84.19 482.98 87.48 483.65 91.06 C 486.01 103.29 481.50 115.90 485.06 127.99 C 489.37 139.29 500.12 146.27 510.55 151.30 C 506.39 152.45 502.22 154.06 498.97 156.96 C 496.85 159.33 500.05 161.80 500.97 163.98 C 503.26 167.16 502.89 171.53 500.67 174.64 C 493.74 185.16 484.15 193.48 475.34 202.35 C 466.85 210.43 459.35 219.81 449.33 226.10 C 445.97 218.91 445.92 210.81 444.38 203.15 C 442.65 196.31 440.16 189.00 434.09 184.80 C 442.49 182.54 450.47 178.78 457.20 173.23 C 462.86 168.54 469.52 163.84 471.67 156.42 C 467.72 159.58 464.65 163.69 460.64 166.77 C 451.92 174.21 441.33 179.61 429.95 181.36 C 427.31 181.66 424.63 181.25 422.09 180.56 C 418.80 179.65 416.72 176.69 414.90 174.02 C 409.50 165.58 406.18 156.07 401.96 147.03 C 399.55 142.28 396.92 137.59 395.43 132.44 C 393.33 126.21 393.05 119.59 392.14 113.14 C 396.66 111.66 401.28 110.54 405.94 109.56 C 407.37 109.11 406.72 107.21 406.71 106.13 C 406.14 103.22 404.08 100.68 401.38 99.46 C 397.39 97.53 392.80 98.31 388.56 98.70 C 387.65 94.04 387.26 89.30 386.84 84.58 C 390.52 79.24 392.64 73.06 395.95 67.52 C 396.36 73.10 394.12 78.48 394.59 84.04 C 402.40 77.95 410.14 71.64 416.78 64.27 C 416.96 70.64 416.16 77.41 419.37 83.22 C 420.22 79.90 420.94 76.51 422.48 73.42 C 424.39 69.23 427.71 65.96 430.51 62.38 C 433.74 67.23 434.12 73.11 434.35 78.75 C 438.30 74.85 441.94 70.62 444.92 65.92 M 405.94 129.18 C 406.51 122.82 409.27 116.39 407.40 110.04 C 404.94 115.88 402.89 123.27 405.94 129.18 M 406.16 140.81 C 409.60 142.61 413.54 141.30 417.14 140.78 C 413.30 138.82 409.66 136.46 406.50 133.52 C 406.23 135.93 405.88 138.37 406.16 140.81 M 424.03 155.02 C 419.72 156.48 414.88 156.96 411.25 159.93 C 412.05 160.15 413.66 160.57 414.46 160.79 C 416.13 161.72 417.92 162.99 419.94 162.23 C 426.05 160.67 432.33 159.53 438.20 157.18 C 439.93 156.74 440.49 154.95 441.31 153.58 C 442.42 152.97 443.52 152.35 444.63 151.73 C 443.69 150.83 442.63 149.84 441.22 150.41 C 435.42 151.64 429.74 153.41 424.03 155.02 Z" />
		<path fill="#f0b58b" opacity="1.00"
			d=" M 624.66 299.56 C 630.72 279.41 645.85 262.26 664.99 253.57 C 671.99 258.90 679.93 262.82 687.15 267.84 C 693.57 272.35 700.49 276.33 705.86 282.14 C 713.96 290.84 719.60 301.41 725.37 311.70 C 732.66 324.36 739.71 337.16 747.39 349.60 C 752.44 357.26 757.41 365.71 765.78 370.18 C 772.72 373.81 780.30 376.54 786.30 381.73 C 790.14 385.02 790.47 390.36 791.00 395.02 C 791.59 401.61 792.34 408.18 792.88 414.78 C 790.81 410.66 789.69 406.00 786.62 402.46 C 782.72 397.70 779.32 392.44 774.43 388.61 C 777.43 394.51 782.19 399.52 783.93 406.03 C 787.60 418.82 790.72 432.05 790.16 445.44 C 784.06 433.01 781.81 419.12 776.67 406.31 C 775.53 404.00 774.10 401.86 772.81 399.65 C 775.94 411.44 777.54 423.63 781.77 435.12 C 783.52 439.46 783.04 444.27 782.03 448.73 C 778.37 445.23 775.74 440.80 773.66 436.22 C 768.95 425.87 764.14 415.54 760.17 404.87 C 762.96 413.96 764.48 423.38 767.31 432.44 C 768.77 437.62 773.57 442.26 771.19 447.94 C 768.92 447.56 766.77 446.53 765.56 444.51 C 756.58 431.54 752.53 415.92 743.99 402.70 C 745.20 407.79 746.58 412.84 747.72 417.96 C 748.77 423.30 752.36 428.35 750.80 433.99 C 749.39 439.08 748.54 444.29 747.96 449.53 C 743.85 442.65 741.91 434.77 739.89 427.09 C 737.85 418.05 735.12 409.15 734.07 399.91 C 732.83 394.32 734.37 388.01 730.88 383.07 C 726.01 375.78 717.68 372.17 711.01 366.85 C 704.79 361.85 698.44 356.56 694.60 349.42 C 692.02 344.53 689.92 339.41 687.53 334.43 C 686.64 332.39 685.44 330.36 685.47 328.06 C 685.42 320.05 684.80 312.05 684.87 304.04 C 684.78 299.38 685.28 294.60 683.94 290.06 C 682.16 295.18 682.55 300.67 682.27 305.99 C 682.25 312.10 681.70 318.21 682.17 324.31 C 679.76 321.75 676.99 319.50 673.72 318.15 C 662.59 313.30 650.89 309.93 639.69 305.26 C 634.75 303.17 629.77 301.18 624.66 299.56 Z" />
		<path fill="#f0b58b" opacity="1.00"
			d=" M 305.82 553.59 C 312.40 551.19 319.00 548.73 325.85 547.20 C 330.03 546.17 334.11 547.89 338.02 549.13 C 352.38 553.93 365.91 561.59 376.70 572.28 C 388.65 583.90 398.88 597.64 404.60 613.41 C 408.73 624.56 411.10 636.33 411.91 648.18 C 389.77 649.17 367.53 648.24 345.53 645.69 C 342.44 644.94 338.29 645.66 336.44 642.48 C 332.33 636.96 328.00 631.61 323.86 626.13 C 322.93 624.81 321.63 623.80 320.26 623.01 C 320.59 629.17 325.56 633.59 328.71 638.51 C 314.75 636.43 299.80 637.39 287.18 644.17 C 277.15 649.42 268.95 658.44 265.69 669.39 C 261.21 660.74 255.53 652.81 250.35 644.58 C 243.75 634.90 235.77 625.10 234.86 612.95 C 234.29 603.89 240.28 596.27 246.16 590.07 C 262.75 573.32 284.02 562.05 305.82 553.59 Z" />
		<path fill="#f0b58b" opacity="1.00"
			d=" M 549.61 645.65 C 557.65 639.43 568.32 638.93 578.07 639.27 C 589.35 639.76 600.07 644.37 609.22 650.81 C 616.21 655.72 623.45 661.12 632.21 662.14 C 633.38 675.44 632.59 688.82 633.59 702.14 C 634.46 709.98 634.92 718.20 638.69 725.32 C 641.56 730.75 645.15 735.80 649.45 740.19 C 648.78 755.91 644.21 771.49 636.14 785.02 C 632.74 790.43 628.58 795.81 622.52 798.39 C 614.45 787.99 602.46 781.69 590.74 776.26 C 580.52 771.55 571.49 764.11 565.23 754.74 C 551.69 732.80 549.71 706.32 540.21 682.74 C 537.87 677.28 535.80 671.52 531.68 667.09 C 537.14 659.58 542.12 651.34 549.61 645.65 Z" />
	</g>
	<g id="#f11b27ff">
		<path fill="var(--shirt-color, grey)" opacity="1.00"
			d=" M 502.83 158.30 C 512.37 154.06 523.20 155.72 532.61 159.45 C 542.23 162.98 551.82 166.90 561.98 168.63 C 565.59 169.25 569.47 170.18 571.93 173.13 C 575.33 177.02 578.29 181.28 581.72 185.16 C 577.55 184.70 573.41 183.48 569.19 183.81 C 569.16 184.37 569.10 185.47 569.07 186.03 C 575.05 190.47 582.92 190.80 590.08 191.36 C 596.22 191.60 601.17 195.65 605.91 199.11 C 621.05 210.40 633.00 225.34 648.01 236.80 C 630.65 234.55 613.54 239.29 597.00 243.97 C 584.17 247.99 571.22 251.56 558.41 255.64 C 553.54 257.27 548.39 257.85 543.49 259.32 C 543.34 259.76 543.03 260.63 542.88 261.07 C 547.47 262.74 552.45 261.62 557.11 260.80 C 573.93 257.10 590.21 251.42 606.84 246.99 C 616.48 244.88 626.06 241.83 636.03 241.82 C 641.30 241.73 646.61 241.85 651.85 242.55 C 656.32 243.09 660.18 245.56 664.10 247.59 C 646.76 255.10 632.43 268.99 623.84 285.76 C 617.77 297.60 614.77 312.22 620.51 324.76 C 603.58 321.06 588.07 313.08 572.66 305.41 C 559.74 299.24 545.81 292.67 531.08 294.76 C 528.92 295.27 525.67 295.21 524.98 297.86 C 530.09 298.72 535.34 297.83 540.46 298.82 C 555.22 301.19 568.13 309.22 581.39 315.61 C 593.03 321.33 605.10 326.42 617.83 329.09 C 615.96 339.35 618.37 349.68 619.55 359.86 C 621.36 374.08 625.23 388.32 623.15 402.73 C 610.19 396.12 596.17 390.78 585.54 380.46 C 577.63 372.97 571.42 363.96 564.40 355.68 C 553.75 342.91 540.62 332.48 527.10 322.91 C 522.46 319.87 517.97 316.53 513.02 314.00 C 511.37 312.97 509.42 313.44 507.64 313.72 C 517.72 320.79 527.34 328.49 537.01 336.10 C 544.55 342.14 551.83 348.56 558.14 355.89 C 567.36 366.34 574.90 378.41 585.88 387.21 C 594.76 394.31 605.08 399.37 615.67 403.39 C 619.38 404.97 623.75 406.35 625.80 410.15 C 629.37 416.68 631.17 424.49 629.67 431.87 C 627.97 438.50 623.82 444.15 621.67 450.62 C 618.94 451.38 616.22 452.29 613.82 453.83 C 611.46 455.15 608.90 457.20 606.04 456.22 C 599.66 454.30 595.16 449.04 590.26 444.83 C 579.57 434.86 567.47 426.54 554.96 419.03 C 541.66 411.05 529.33 401.61 517.43 391.70 C 507.67 383.57 497.39 376.01 486.36 369.69 C 483.35 368.07 480.33 366.30 476.95 365.60 C 475.53 365.22 474.64 366.56 473.66 367.29 C 490.34 375.85 505.05 387.69 519.30 399.74 C 529.70 408.51 540.65 416.63 552.28 423.69 C 562.74 430.02 572.98 436.79 582.26 444.78 C 587.55 449.15 592.29 454.21 597.98 458.08 C 602.00 460.69 607.16 462.88 611.90 460.83 C 615.57 459.15 618.90 456.75 622.81 455.60 C 624.58 458.06 626.60 460.47 627.42 463.46 C 628.50 466.34 626.80 469.19 626.03 471.93 C 613.35 471.88 600.69 473.00 588.00 472.75 C 578.74 472.89 569.29 472.61 560.29 475.17 C 544.90 479.41 531.05 487.64 516.17 493.23 C 507.52 496.43 498.18 497.74 488.98 496.99 C 473.19 495.82 457.44 494.15 441.73 492.24 C 440.13 488.91 439.94 485.08 438.25 481.78 C 436.82 478.49 434.45 475.59 433.71 472.05 C 433.28 468.37 433.75 464.67 433.79 460.99 C 434.05 453.62 433.07 446.29 432.01 439.01 C 440.03 446.14 448.24 453.30 458.02 457.93 C 472.36 464.46 488.41 465.83 503.98 465.57 C 513.76 465.50 523.34 463.26 533.01 461.99 C 539.50 460.98 546.19 460.79 552.48 458.68 C 554.18 458.27 555.45 457.09 556.11 455.46 C 543.84 457.31 531.41 457.56 519.17 459.68 C 506.53 461.71 493.61 461.29 480.97 459.54 C 471.22 458.06 461.44 455.34 453.17 449.81 C 445.12 444.86 438.44 438.11 430.93 432.43 C 428.90 420.75 426.21 409.04 426.57 397.10 C 434.73 407.11 446.51 412.82 456.78 420.26 C 467.19 427.64 476.54 436.38 485.32 445.60 C 487.81 448.19 490.35 450.94 493.91 452.04 C 491.85 447.71 488.39 444.34 485.24 440.83 C 481.72 437.01 478.28 433.12 474.65 429.40 C 465.93 420.52 455.45 413.68 444.95 407.11 C 438.72 403.24 432.83 398.75 427.86 393.33 C 428.11 386.88 426.80 380.55 425.61 374.26 C 434.12 386.66 446.38 395.74 458.39 404.51 C 466.93 410.92 474.94 418.01 482.67 425.38 C 486.76 429.00 490.37 433.38 495.48 435.63 C 493.68 431.36 490.15 428.27 487.00 425.02 C 477.30 415.35 467.71 405.46 456.67 397.29 C 448.51 391.21 440.48 384.86 433.45 377.48 C 429.42 372.04 427.06 365.56 424.85 359.22 C 421.65 348.55 418.95 337.74 416.08 326.98 C 412.10 312.28 409.80 297.16 408.69 281.98 C 407.28 263.08 413.59 244.79 414.40 226.01 C 414.36 222.75 415.35 218.64 412.33 216.37 C 411.43 221.91 411.07 227.52 410.22 233.07 C 409.42 228.02 407.51 223.29 405.65 218.57 C 403.41 213.17 406.61 207.76 409.10 203.09 C 412.67 197.13 416.33 191.22 419.33 184.94 C 422.62 185.48 425.95 185.70 429.29 185.68 C 432.52 188.58 435.50 191.89 437.07 196.01 C 441.43 205.43 440.37 216.27 444.37 225.80 C 445.23 227.68 446.63 229.89 448.97 229.91 C 451.81 229.80 454.17 227.94 456.38 226.35 C 464.34 220.07 471.18 212.56 478.46 205.54 C 487.35 196.72 496.97 188.43 504.11 178.03 C 506.13 175.09 507.66 171.60 507.30 167.96 C 507.12 164.27 504.68 161.32 502.83 158.30 Z" />
	</g>
	<g id="#f01b27ff">
		<path fill="var(--shirt-color, grey)" opacity="1.00"
			d=" M 624.68 324.52 C 622.57 317.70 622.37 310.46 623.68 303.47 C 627.95 305.42 632.24 307.37 636.50 309.37 C 633.07 314.80 629.07 319.84 624.68 324.52 Z" />
	</g>
	<g id="#ffffffff">
		<path fill="var(--pants-color, grey)" opacity="1.00"
			d=" M 585.98 476.76 C 600.16 476.98 614.30 475.61 628.47 475.28 C 631.81 484.94 635.66 494.66 636.15 504.99 C 636.76 512.00 635.98 519.09 637.23 526.04 C 637.92 530.35 638.88 534.66 638.79 539.05 C 638.70 545.48 637.09 551.74 636.09 558.06 C 635.10 563.08 637.15 568.02 636.85 573.05 C 636.79 577.93 633.56 582.13 633.64 587.04 C 633.55 594.02 634.78 600.96 634.47 607.96 C 633.87 620.22 631.46 632.59 633.63 644.83 C 634.30 649.28 633.09 653.73 632.50 658.12 C 624.24 657.02 617.48 651.73 610.74 647.25 C 601.35 640.79 590.47 636.02 578.96 635.50 C 567.53 634.99 555.10 636.38 545.98 643.94 C 536.43 651.87 530.57 663.07 523.45 673.00 C 519.85 666.11 518.41 658.40 516.73 650.89 C 514.58 640.92 512.11 630.97 508.43 621.44 C 506.68 616.48 506.04 611.21 504.50 606.19 C 502.79 608.28 503.34 611.03 503.66 613.49 C 504.36 618.09 505.49 622.61 506.52 627.16 C 501.92 628.00 497.37 629.14 493.03 630.90 C 480.32 635.25 468.01 640.69 455.36 645.20 C 442.30 650.06 428.52 653.43 416.47 660.65 C 418.19 626.98 405.70 592.34 380.97 569.07 C 366.24 555.13 347.45 545.37 327.42 541.96 C 335.56 536.93 344.64 533.77 353.54 530.34 C 368.19 524.84 383.58 521.74 398.85 518.50 C 404.53 517.25 410.47 515.86 415.11 512.17 C 420.39 507.37 423.26 500.34 429.17 496.18 C 431.49 494.45 434.35 493.79 437.14 493.26 C 438.37 494.38 439.35 496.02 441.05 496.49 C 456.76 497.92 472.41 500.14 488.20 500.85 C 497.50 501.56 506.98 500.61 515.83 497.60 C 531.55 492.12 545.89 483.07 562.08 478.86 C 569.86 476.74 577.99 476.94 585.98 476.76 Z" />
		<path fill="var(--socks-color, grey)" opacity="1.00"
			d=" M 289.59 647.49 C 302.51 640.88 317.58 640.26 331.67 642.65 C 341.26 656.86 354.19 668.74 361.75 684.30 C 367.08 694.14 369.11 705.23 372.40 715.82 C 376.97 731.20 381.40 746.77 388.83 761.07 C 393.60 770.98 399.71 780.14 405.50 789.46 C 410.42 797.57 416.59 805.51 418.35 815.00 C 415.81 817.87 411.72 816.36 408.71 815.24 C 401.61 812.26 394.81 807.86 386.92 807.42 C 381.00 806.98 375.96 810.72 370.23 811.48 C 362.56 797.51 350.95 786.31 340.16 774.77 C 327.46 762.06 315.75 748.37 305.30 733.75 C 292.80 716.27 279.78 698.91 270.79 679.27 C 269.85 677.35 268.90 675.42 267.95 673.51 C 271.24 662.35 279.06 652.58 289.59 647.49 Z" />
		<path fill="var(--socks-color, grey)" opacity="1.00"
			d=" M 653.08 743.35 C 663.93 751.02 675.55 757.62 685.50 766.51 C 698.14 777.61 709.61 790.19 718.34 804.63 C 730.12 822.38 739.21 841.69 749.82 860.13 C 754.81 869.00 760.09 877.71 765.26 886.47 C 760.93 887.71 756.18 888.50 752.75 891.66 C 747.12 896.52 744.57 903.73 741.37 910.22 C 740.47 911.76 739.23 914.17 737.03 913.45 C 732.07 912.29 728.61 908.25 725.06 904.91 C 710.29 890.00 694.79 875.84 678.97 862.06 C 667.03 851.66 655.56 840.66 645.36 828.54 C 637.99 820.05 631.48 810.88 624.88 801.80 C 631.00 799.42 635.56 794.42 639.09 789.04 C 647.84 775.51 652.88 759.48 653.08 743.35 Z" />
	</g>
	<g id="#4d4d4dff">
		<path fill="#4d4d4d" opacity="1.00"
			d=" M 419.55 806.29 C 424.94 813.10 432.80 817.12 439.00 823.06 C 445.91 829.53 452.99 836.56 455.69 845.93 C 447.14 840.11 436.03 839.83 426.29 842.31 C 421.42 843.45 417.17 846.21 413.43 849.44 C 410.16 852.49 405.50 854.04 401.11 852.73 C 393.14 850.57 386.41 845.52 379.00 842.08 C 367.32 836.03 353.55 833.58 340.63 836.52 C 333.64 838.11 328.04 842.79 322.94 847.55 C 322.13 843.34 321.85 838.82 323.76 834.85 C 325.33 830.63 329.37 828.12 333.29 826.36 C 343.32 821.81 354.43 820.83 365.02 818.20 C 372.12 816.44 378.68 812.78 385.96 811.72 C 396.12 811.58 403.99 819.86 414.02 820.41 C 417.38 820.71 421.32 818.63 421.75 815.03 C 421.87 811.96 420.52 809.11 419.55 806.29 Z" />
		<path fill="#4d4d4d" opacity="1.00"
			d=" M 323.58 850.91 C 329.10 845.99 335.52 841.69 342.92 840.38 C 355.26 838.33 367.97 841.29 378.91 847.09 C 387.62 851.15 395.90 857.87 405.99 857.36 C 413.80 857.03 418.20 849.40 425.30 847.24 C 432.98 844.69 441.56 844.29 449.32 846.76 C 452.09 847.89 455.31 849.31 456.62 852.18 C 457.76 858.84 455.74 866.93 449.59 870.56 C 443.38 874.27 436.21 876.11 429.06 876.85 C 413.43 878.27 397.69 876.77 382.09 878.51 C 370.88 879.92 359.17 882.28 348.13 878.57 C 335.47 874.96 327.34 862.89 323.58 850.91 Z" />
		<path fill="#4d4d4d" opacity="1.00"
			d=" M 754.16 896.08 C 757.48 892.01 763.05 891.66 767.75 890.27 C 771.77 893.55 776.17 896.39 779.82 900.10 C 786.33 906.83 791.96 914.41 796.34 922.69 C 800.53 930.58 805.47 938.03 810.85 945.15 C 813.78 949.54 817.66 955.36 814.67 960.65 C 810.77 965.59 805.15 968.95 799.44 971.42 C 790.09 974.96 780.01 978.46 769.89 976.67 C 762.48 975.71 756.35 970.48 753.14 963.89 C 749.27 956.99 750.43 948.42 746.26 941.67 C 743.59 937.44 739.91 933.99 737.04 929.92 C 734.30 926.09 734.26 921.17 733.52 916.71 C 736.89 917.00 740.74 917.07 743.18 914.27 C 747.99 908.96 749.21 901.34 754.16 896.08 Z" />
	</g>
</svg>