<?xml version="1.0" encoding="UTF-8" ?>
<!DOCTYPE svg PUBLIC "-//W3C//DTD SVG 1.1//EN" "http://www.w3.org/Graphics/SVG/1.1/DTD/svg11.dtd">
<svg width="1000pt" height="1000pt" viewBox="0 0 1000 1000" version="1.1" xmlns="http://www.w3.org/2000/svg">
	<g id="#020202ff">
		<path fill="#020202" opacity="1.00"
			d=" M 465.94 12.61 C 479.70 8.48 494.76 10.32 507.79 16.06 C 522.35 22.32 535.23 33.33 542.18 47.73 C 545.74 56.36 548.64 65.52 548.32 74.97 C 548.35 89.72 542.89 103.83 535.63 116.45 C 534.04 123.12 534.15 130.23 535.12 137.01 C 549.03 140.13 563.12 142.28 577.07 145.18 C 590.34 148.06 602.90 153.57 614.54 160.48 C 617.58 162.34 620.67 164.28 623.01 167.02 C 630.70 176.80 634.25 188.98 637.01 200.92 C 642.83 221.72 647.76 242.78 651.40 264.07 C 652.46 269.88 650.11 275.53 646.99 280.31 C 651.26 290.24 655.19 300.40 657.43 311.01 C 661.51 331.41 661.96 352.31 661.84 373.05 C 661.81 385.44 661.96 398.03 665.26 410.07 C 667.56 418.63 668.62 427.46 671.02 436.00 C 673.76 445.82 676.66 455.75 677.08 466.00 C 677.44 472.06 673.83 478.03 668.11 480.20 C 662.27 482.42 660.22 489.00 655.19 492.18 C 647.84 495.34 639.64 493.96 631.89 493.88 C 629.76 493.83 626.77 493.50 626.15 491.03 C 625.72 486.19 628.97 480.60 634.39 480.80 C 633.11 479.43 631.55 478.00 631.59 475.96 C 631.34 471.25 633.12 466.77 633.67 462.14 C 634.50 456.43 632.78 450.46 634.95 444.93 C 636.39 439.07 641.97 435.43 643.51 429.62 C 644.66 425.00 645.76 420.07 644.44 415.36 C 642.41 407.99 639.30 400.97 635.74 394.23 C 629.38 382.02 623.85 369.42 618.04 356.95 C 612.48 345.22 608.71 332.75 605.80 320.13 C 604.59 314.85 604.19 309.41 604.39 304.00 C 603.43 306.93 602.11 309.83 602.18 312.98 C 602.11 326.44 604.42 339.76 605.15 353.18 C 605.62 362.44 606.54 371.98 604.06 381.04 C 599.26 394.24 602.49 408.41 603.80 421.92 C 604.34 441.32 602.73 460.73 600.39 479.97 C 600.38 486.87 604.62 492.99 604.58 499.91 C 604.53 504.25 604.98 508.61 606.24 512.78 C 611.11 530.24 610.85 548.52 611.81 566.47 C 612.74 576.96 614.96 587.35 614.80 597.93 C 614.67 608.26 615.65 618.74 613.66 628.96 C 613.56 631.23 610.88 631.28 609.27 631.96 C 609.88 646.53 605.10 660.54 603.48 674.89 C 602.15 686.60 605.25 698.33 609.82 709.04 C 616.70 726.80 616.44 746.22 616.14 764.97 C 614.91 799.30 614.29 833.66 611.94 867.95 C 611.26 876.79 610.42 885.73 607.41 894.13 C 607.10 905.60 611.29 916.66 616.17 926.86 C 621.44 937.90 627.83 948.46 631.72 960.11 C 634.24 967.38 633.87 976.03 629.28 982.41 C 625.80 986.70 620.78 990.31 615.02 990.15 C 604.45 990.18 594.78 985.37 584.89 982.27 C 577.45 979.95 570.32 975.53 566.31 968.69 C 561.96 960.22 564.89 949.67 559.43 941.56 C 556.45 935.72 549.05 932.22 549.12 924.97 C 549.15 911.59 555.68 899.42 561.83 887.93 C 564.15 883.23 567.07 878.45 566.92 873.02 C 567.78 863.92 566.23 854.84 563.98 846.05 C 560.22 829.08 553.35 813.03 548.82 796.28 C 542.55 774.09 536.45 751.23 538.29 727.96 C 539.02 713.52 544.17 699.57 543.45 685.02 C 542.78 673.59 540.15 662.40 538.48 651.09 C 537.50 645.04 535.73 639.11 533.35 633.49 C 531.58 632.67 529.33 632.49 528.21 630.71 C 526.85 628.73 526.33 626.33 525.64 624.08 C 522.16 611.62 518.34 599.24 513.75 587.14 C 511.06 580.01 508.87 572.27 503.54 566.58 C 498.73 578.10 495.98 590.47 495.38 602.95 C 494.91 610.01 495.67 617.07 495.97 624.13 C 490.34 629.54 482.60 631.62 475.51 634.34 C 474.58 645.02 468.80 654.30 465.07 664.13 C 461.08 672.87 461.03 682.86 456.53 691.41 C 453.42 697.18 455.02 703.96 456.45 709.98 C 459.26 720.42 456.97 731.29 457.81 741.92 C 458.63 750.61 458.82 759.34 459.37 768.05 C 460.07 791.11 458.39 814.20 455.01 837.00 C 454.09 843.31 452.39 849.56 452.41 855.97 C 453.13 861.00 455.39 865.84 454.85 871.04 C 454.23 884.25 445.80 895.16 442.38 907.61 C 439.50 916.17 439.93 925.90 434.67 933.59 C 430.06 939.57 423.59 944.30 416.25 946.29 C 404.57 949.47 391.62 948.57 380.72 943.18 C 372.51 939.33 368.27 929.77 368.69 921.05 C 371.64 905.84 381.86 893.70 390.21 881.14 C 395.47 873.40 401.35 866.01 405.71 857.70 C 409.21 851.15 407.86 843.49 406.61 836.53 C 402.65 814.17 402.30 791.34 397.84 769.05 C 394.90 754.48 395.03 739.54 392.67 724.89 C 391.91 718.63 392.64 712.33 392.84 706.06 C 393.52 691.56 399.02 677.59 398.05 662.97 C 397.52 654.43 398.08 645.79 397.81 637.32 C 390.39 634.11 382.90 631.02 375.75 627.25 C 373.78 626.26 371.70 624.48 372.37 622.00 C 373.24 614.58 375.27 607.35 376.26 599.95 C 377.40 590.56 380.62 581.52 381.06 572.02 C 381.59 560.31 383.76 548.73 383.79 536.99 C 384.10 524.34 384.79 511.69 384.88 499.03 C 385.23 484.70 385.98 469.84 392.27 456.68 C 390.83 454.33 389.04 451.90 389.23 449.00 C 389.58 442.75 394.98 438.19 395.76 432.06 C 395.35 425.06 391.45 418.86 390.50 411.97 C 390.01 407.77 392.31 403.95 394.77 400.77 C 398.07 396.39 402.54 393.13 406.55 389.45 C 408.19 387.83 410.04 385.48 408.95 383.07 C 406.33 375.46 402.57 368.26 400.43 360.48 C 396.85 347.62 393.36 334.48 393.67 321.02 C 388.22 324.87 383.09 329.36 376.87 331.93 C 375.60 344.29 375.16 356.74 373.03 369.00 C 370.46 383.29 368.74 397.77 364.80 411.77 C 362.21 421.90 358.14 431.72 356.86 442.13 C 359.11 447.26 362.77 451.62 365.19 456.68 C 371.24 468.42 372.68 481.74 374.55 494.61 C 374.86 497.96 379.27 498.86 379.76 501.97 C 378.94 506.72 373.83 509.68 369.25 509.56 C 370.00 512.72 370.23 516.31 368.13 519.04 C 366.74 521.36 364.05 522.09 361.63 522.77 C 360.47 525.27 358.84 527.94 355.93 528.58 C 353.26 529.42 350.88 527.63 348.75 526.30 C 341.02 521.12 332.70 516.51 326.31 509.62 C 322.20 505.30 321.51 499.13 320.76 493.50 C 319.89 485.03 318.98 476.34 321.06 467.97 C 322.96 460.12 325.12 452.22 324.94 444.06 C 324.73 432.34 323.32 420.67 322.48 408.98 C 320.27 384.32 320.93 359.29 326.01 335.00 C 328.02 324.41 331.04 313.97 335.69 304.22 C 331.09 299.12 325.24 293.42 325.80 285.96 C 327.34 279.31 331.38 273.60 334.81 267.81 C 343.82 252.31 352.03 236.32 358.77 219.70 C 364.08 206.79 370.61 194.19 379.65 183.49 C 385.77 176.16 393.83 170.90 401.81 165.83 C 407.12 162.63 412.68 159.82 418.50 157.67 C 430.59 153.42 442.62 148.97 454.88 145.23 C 451.67 138.57 446.96 132.73 444.12 125.88 C 441.19 118.26 442.51 109.95 441.82 101.99 C 441.75 96.74 439.85 91.81 438.29 86.88 C 437.11 83.35 437.30 79.59 436.85 75.94 C 435.87 75.25 434.61 74.94 433.86 73.97 C 433.82 70.61 435.84 67.44 435.10 64.05 C 432.51 50.88 435.41 36.41 444.05 25.97 C 449.56 19.17 457.45 14.56 465.94 12.61 M 463.10 60.17 C 459.33 63.01 455.16 65.22 451.13 67.65 C 452.34 63.42 454.00 59.25 453.93 54.77 C 452.58 54.99 450.86 54.77 450.30 56.37 C 447.52 61.39 444.95 66.53 441.79 71.34 C 441.17 75.93 441.82 80.62 442.44 85.19 C 446.80 84.33 451.73 84.02 455.73 86.26 C 458.38 88.37 460.03 92.09 459.60 95.47 C 455.23 97.18 450.39 97.53 446.28 99.98 C 446.89 106.97 446.14 114.08 447.54 120.99 C 449.37 128.11 454.53 133.65 457.81 140.09 C 461.37 147.06 464.14 154.62 469.57 160.44 C 472.80 164.14 478.34 165.64 482.97 163.94 C 491.34 161.16 499.10 156.52 505.71 150.70 C 508.64 148.26 510.74 144.69 514.45 143.33 C 513.97 145.06 513.34 146.78 512.14 148.15 C 507.47 153.79 502.38 159.25 496.04 163.04 C 488.96 167.43 480.38 171.27 471.97 168.41 C 473.30 173.74 474.93 179.15 478.25 183.62 C 481.65 188.85 486.83 192.46 491.13 196.86 C 494.54 200.30 497.08 204.49 499.02 208.92 C 505.16 197.21 513.11 186.61 521.25 176.24 C 529.12 166.02 535.37 152.98 532.14 139.80 C 529.35 130.73 531.42 121.25 531.40 111.97 C 531.35 103.14 536.01 94.86 534.77 85.97 C 534.37 82.57 533.73 78.41 530.36 76.68 C 527.10 75.24 523.22 77.77 522.42 81.07 C 521.19 86.72 523.32 92.33 523.75 97.95 C 524.21 103.12 522.05 108.00 521.55 113.09 C 521.11 116.44 521.93 119.77 522.11 123.11 L 520.94 123.67 C 517.84 120.86 517.47 116.31 516.69 112.44 C 515.69 107.36 517.25 102.12 516.03 97.09 C 513.85 93.61 510.39 90.20 505.97 90.39 C 495.58 90.67 485.71 96.45 475.18 94.37 C 471.50 93.87 467.60 91.01 467.73 86.98 C 467.93 84.40 470.65 83.42 472.73 82.71 C 483.75 79.30 495.31 77.57 506.86 77.93 C 506.64 73.83 507.77 69.86 509.24 66.07 C 507.52 67.55 505.75 68.96 503.88 70.25 C 505.21 64.36 507.62 58.58 507.17 52.44 C 498.96 54.88 493.86 62.59 489.19 69.25 C 488.48 64.04 488.36 58.63 486.24 53.73 C 479.46 57.69 476.71 65.56 474.01 72.48 C 471.33 66.03 471.94 58.96 472.88 52.22 C 469.29 54.46 466.48 57.67 463.10 60.17 M 535.96 140.85 C 537.06 146.80 537.92 153.05 535.97 158.93 C 532.49 171.32 523.68 181.01 516.09 191.04 C 510.30 198.19 505.52 206.10 501.15 214.19 C 500.31 215.50 499.12 218.10 497.16 216.93 C 495.04 213.54 493.87 209.64 491.74 206.24 C 487.51 198.68 479.64 194.10 475.23 186.67 C 471.23 180.83 469.66 173.78 469.05 166.83 C 464.11 161.86 459.95 156.16 457.06 149.73 C 446.30 153.83 435.35 157.42 424.58 161.51 C 412.77 165.33 401.94 171.63 391.90 178.84 C 386.87 182.42 382.78 187.14 379.20 192.13 C 372.69 201.48 367.46 211.68 363.21 222.24 C 355.36 241.77 345.39 260.40 334.17 278.19 C 332.01 282.12 328.67 286.66 330.76 291.31 C 335.15 298.10 341.37 303.39 347.07 309.03 C 353.40 314.98 359.58 321.16 366.55 326.37 C 369.56 328.96 373.79 327.37 377.06 326.17 C 382.26 323.52 387.05 320.13 391.66 316.57 C 389.66 307.54 389.78 298.17 390.26 288.98 C 390.72 284.50 390.77 279.78 393.02 275.74 C 394.14 277.28 393.86 279.21 393.83 280.99 C 393.44 290.75 394.72 300.48 395.61 310.18 C 401.39 300.17 407.55 289.98 416.99 282.96 C 421.29 279.98 425.45 275.88 430.92 275.50 C 428.95 278.33 425.93 280.10 423.50 282.46 C 417.35 288.40 410.60 293.97 406.14 301.37 C 406.22 301.87 406.38 302.87 406.46 303.37 C 410.66 315.83 415.61 328.14 422.74 339.24 C 431.33 352.82 442.74 365.11 457.35 372.24 C 454.30 373.64 451.34 371.62 448.65 370.37 C 435.74 363.92 426.03 352.57 418.61 340.45 C 412.06 329.32 406.69 317.43 403.70 304.83 C 401.85 309.12 397.13 312.85 398.65 317.93 C 399.12 324.26 398.67 330.68 399.91 336.96 C 402.57 351.51 406.80 365.79 412.47 379.46 C 413.45 381.81 413.97 384.32 414.45 386.82 C 427.09 388.03 439.33 392.03 452.07 392.47 C 469.54 393.14 487.62 389.26 502.10 379.13 C 503.94 378.22 505.85 375.94 508.06 376.95 C 507.92 379.62 505.22 380.91 503.46 382.50 C 489.51 393.38 471.42 397.41 454.01 397.24 C 443.19 397.32 432.57 394.98 421.99 392.96 C 417.83 392.17 413.03 391.63 409.43 394.36 C 406.08 397.01 402.83 399.83 399.89 402.92 C 397.52 405.65 394.50 409.08 395.84 412.98 C 397.57 419.32 400.95 425.32 401.16 432.01 C 400.80 437.26 397.36 441.51 395.04 446.03 C 393.98 447.94 393.39 450.40 394.66 452.38 C 397.11 456.27 401.52 458.55 406.02 459.03 C 415.88 460.48 424.68 465.62 432.44 471.63 C 441.08 477.90 449.46 484.52 457.76 491.23 C 467.39 498.80 478.56 505.27 490.98 506.45 C 501.97 507.57 512.46 503.47 522.90 500.69 C 533.43 497.96 544.11 495.65 554.99 494.90 C 566.54 493.92 578.40 493.46 589.35 489.23 C 591.46 488.30 594.01 487.32 594.81 484.92 C 596.56 480.43 596.66 475.54 597.35 470.82 C 598.89 454.39 599.97 437.88 599.41 421.37 C 598.21 410.60 596.02 399.73 597.31 388.87 C 597.76 384.13 599.97 379.80 600.53 375.09 C 602.36 355.66 597.85 336.35 598.33 316.93 C 589.71 336.56 576.33 354.20 558.93 366.83 C 554.94 369.56 551.33 373.17 546.48 374.29 C 546.75 371.13 549.84 369.70 551.91 367.80 C 560.60 360.54 568.85 352.70 576.16 344.04 C 586.13 332.60 592.91 318.91 599.28 305.27 C 601.05 300.38 600.53 295.01 602.29 290.12 C 604.43 284.31 603.92 278.02 605.02 272.01 C 606.91 261.26 608.57 250.39 612.14 240.05 C 612.64 238.29 613.77 236.84 615.51 236.17 C 614.86 240.85 613.66 245.43 613.18 250.14 C 612.15 259.78 609.84 269.22 608.39 278.80 C 612.14 273.80 616.59 269.39 620.44 264.46 C 621.38 263.38 622.83 261.18 624.35 262.89 C 624.15 265.55 622.31 267.70 620.91 269.85 C 615.59 276.94 609.32 283.63 606.31 292.13 C 611.41 293.14 616.44 294.54 621.09 296.89 C 622.83 297.42 624.95 299.20 626.59 297.52 C 632.77 291.94 637.41 284.92 642.08 278.09 C 644.62 274.17 647.47 269.76 646.61 264.85 C 645.55 257.52 643.46 250.38 642.08 243.10 C 639.25 228.60 635.20 214.39 631.61 200.07 C 629.40 190.26 626.71 180.30 621.12 171.82 C 618.46 167.77 614.08 165.40 609.98 163.08 C 602.18 158.93 594.11 155.21 585.65 152.62 C 569.42 147.33 552.24 145.97 535.96 140.85 M 632.85 298.92 C 630.58 301.30 627.65 304.33 624.00 303.16 C 618.73 301.61 613.84 298.90 608.38 297.91 C 608.47 304.96 608.40 312.11 610.07 319.01 C 612.87 331.34 616.54 343.55 621.99 354.99 C 626.14 363.59 629.68 372.47 634.02 380.98 C 638.53 390.54 643.88 399.78 647.02 409.93 C 650.15 418.59 649.29 428.75 644.74 436.75 C 641.00 441.74 637.20 447.46 638.15 454.03 C 639.08 461.21 636.58 468.10 635.70 475.12 C 634.98 477.36 638.80 478.97 639.71 476.67 C 642.30 472.10 644.30 467.21 646.80 462.59 C 647.55 460.61 650.60 460.91 651.00 463.00 C 652.15 466.28 653.56 470.02 652.31 473.48 C 650.30 477.51 646.77 480.63 642.95 482.93 C 639.71 484.94 635.75 484.50 632.18 485.34 C 630.64 486.14 630.52 488.18 629.84 489.61 C 636.27 489.47 642.75 490.60 649.13 489.46 C 656.20 489.02 657.71 480.43 663.60 477.74 C 667.84 475.89 672.75 473.36 673.03 468.08 C 673.33 454.41 667.52 441.64 664.79 428.46 C 663.52 421.96 662.29 415.46 660.53 409.07 C 656.80 394.71 657.08 379.74 657.13 365.01 C 657.01 346.31 656.31 327.47 652.46 309.11 C 650.66 300.43 647.36 292.18 644.98 283.66 C 640.98 288.78 637.45 294.29 632.85 298.92 M 330.29 335.88 C 326.88 351.97 325.44 368.47 325.85 384.91 C 325.84 399.02 327.67 413.04 328.67 427.10 C 329.23 435.51 330.38 443.98 329.21 452.39 C 328.14 461.73 324.09 470.56 324.09 480.05 C 324.07 487.13 325.02 494.18 326.25 501.14 C 326.75 504.26 329.04 506.64 331.32 508.65 C 338.05 514.47 345.91 518.73 353.12 523.90 C 354.77 525.48 356.16 523.32 357.34 522.36 C 352.88 515.68 346.67 510.42 341.98 503.93 C 341.45 502.95 339.99 500.58 342.12 500.42 C 345.25 502.33 347.72 505.10 350.23 507.73 C 353.89 511.77 357.91 515.52 361.00 520.05 C 363.92 519.03 366.59 516.21 365.74 512.90 C 363.03 503.92 354.34 497.56 353.28 487.98 C 353.33 486.28 354.02 481.14 356.34 483.31 C 357.30 488.23 358.99 493.02 361.90 497.16 C 364.00 499.99 365.32 503.71 368.53 505.48 C 371.30 507.00 373.74 504.21 375.82 502.78 C 373.11 500.50 370.47 497.74 370.13 494.04 C 368.53 483.53 367.29 472.78 363.12 462.90 C 360.41 456.31 355.91 450.70 352.56 444.46 C 351.44 442.40 352.03 439.98 352.29 437.79 C 353.94 427.66 357.54 418.00 360.07 408.08 C 363.36 396.07 365.00 383.70 367.23 371.47 C 369.58 358.71 370.00 345.70 371.75 332.86 C 368.91 332.70 365.97 332.21 363.73 330.32 C 354.79 323.55 347.02 315.41 338.95 307.67 C 334.77 316.61 332.25 326.23 330.29 335.88 M 396.15 459.58 C 389.83 474.56 390.07 491.05 390.08 507.00 C 389.37 525.63 389.88 544.34 387.55 562.88 C 387.15 573.34 385.88 583.76 382.85 593.81 C 381.21 603.37 378.67 612.73 376.65 622.20 C 388.01 627.60 399.48 633.25 411.92 635.72 C 422.51 637.97 433.48 637.79 444.17 636.36 C 460.79 633.93 477.00 628.96 492.41 622.35 C 488.44 603.12 491.04 582.69 498.76 564.71 C 499.65 561.96 502.78 558.78 505.64 561.23 C 513.39 568.63 516.40 579.34 520.07 589.09 C 524.80 601.96 528.69 615.13 532.06 628.42 C 539.98 625.77 547.54 621.49 556.05 621.03 C 568.69 620.22 581.48 620.77 593.89 623.43 C 599.36 624.73 604.58 626.90 610.09 628.08 C 612.66 618.57 611.62 608.71 611.83 598.99 C 611.77 597.36 611.97 595.63 611.25 594.13 C 610.49 581.68 607.58 569.45 607.44 556.95 C 607.15 545.24 606.26 533.51 604.01 522.00 C 602.76 515.32 599.84 508.88 600.21 501.95 C 600.57 497.19 598.92 492.66 597.89 488.08 C 594.02 492.30 588.53 494.38 583.11 495.76 C 570.66 499.21 557.63 499.03 544.93 500.97 C 534.45 502.58 524.16 505.22 513.96 508.06 C 505.28 510.44 496.10 512.16 487.14 510.44 C 474.79 508.30 463.86 501.46 454.04 493.98 C 444.89 486.78 435.61 479.74 426.33 472.70 C 421.71 469.39 416.90 466.17 411.45 464.40 C 406.39 462.61 400.64 462.86 396.15 459.58 M 644.07 477.40 C 646.88 474.99 650.13 471.96 648.80 467.83 C 647.01 470.91 645.41 474.10 644.07 477.40 M 537.13 631.68 C 540.53 639.57 542.58 647.94 543.71 656.45 C 546.66 672.17 549.84 688.33 546.48 704.28 C 557.35 707.55 568.93 708.94 580.19 707.08 C 587.45 705.90 594.80 702.96 599.40 696.96 C 597.56 689.01 596.59 680.78 597.83 672.65 C 599.89 658.78 603.98 645.23 604.96 631.19 C 589.45 626.76 573.20 624.83 557.08 625.70 C 550.00 625.93 543.60 629.18 537.13 631.68 M 403.21 639.01 C 403.28 648.02 403.62 657.03 403.90 666.04 C 404.27 673.43 402.73 680.70 401.26 687.89 C 404.89 693.43 409.38 698.64 415.40 701.64 C 423.95 706.26 435.31 706.38 443.13 700.19 C 447.75 696.90 449.84 691.44 452.87 686.86 C 456.06 682.07 456.11 676.15 457.68 670.78 C 458.76 666.29 460.72 662.09 462.37 657.80 C 455.41 664.17 446.42 669.27 436.71 668.49 C 436.43 668.16 435.85 667.51 435.57 667.18 C 440.81 665.34 446.30 664.01 451.05 661.01 C 460.46 655.21 469.28 646.87 471.68 635.66 C 449.67 642.35 425.63 645.85 403.21 639.01 M 398.64 731.12 C 399.59 737.74 399.91 744.43 400.86 751.06 C 401.97 761.49 404.19 771.75 405.65 782.13 C 407.53 795.20 408.32 808.40 409.75 821.52 C 410.92 831.08 412.25 840.63 412.96 850.24 C 424.20 844.83 438.17 846.63 448.38 853.51 C 449.12 845.67 450.86 837.98 451.72 830.15 C 455.68 802.29 456.01 774.04 454.36 745.98 C 453.33 734.29 453.63 722.42 451.00 710.92 C 450.17 707.29 449.81 703.57 449.81 699.86 C 444.20 707.00 434.80 710.63 425.84 709.59 C 415.21 708.63 405.67 701.95 400.18 692.94 C 397.32 705.39 396.20 718.50 398.64 731.12 M 582.16 711.58 C 570.00 713.71 557.33 712.23 545.76 708.04 C 543.37 720.16 541.84 732.57 542.83 744.94 C 544.06 762.48 549.01 779.45 553.80 796.27 C 558.42 812.61 565.08 828.34 568.74 844.96 C 570.83 853.48 572.46 862.25 571.76 871.06 C 571.57 875.11 570.88 879.45 572.76 883.25 C 574.76 887.70 579.08 890.35 583.00 892.93 C 587.56 896.09 593.51 897.28 598.88 895.77 C 603.21 893.05 604.62 887.63 605.32 882.88 C 607.97 864.69 608.15 846.26 609.15 827.94 C 609.56 808.13 610.32 788.33 610.80 768.53 C 610.96 751.64 611.54 734.40 606.92 717.98 C 605.49 712.61 602.90 707.68 601.09 702.45 C 596.09 707.64 589.13 710.34 582.16 711.58 M 422.18 852.20 C 417.86 852.97 412.48 854.15 410.62 858.68 C 406.11 868.31 399.26 876.56 393.25 885.27 C 388.57 892.23 383.18 898.71 379.13 906.08 C 376.27 911.26 373.14 916.86 373.94 923.02 C 374.41 931.10 379.85 938.87 387.77 941.15 C 398.99 943.62 411.26 943.85 421.84 938.86 C 427.94 935.41 433.53 929.87 434.80 922.72 C 436.03 916.46 436.85 910.10 439.01 904.06 C 442.55 892.58 450.57 882.39 450.76 870.00 C 450.58 865.87 450.28 860.92 446.73 858.18 C 439.94 852.71 430.66 851.20 422.18 852.20 M 567.76 885.10 C 562.01 896.65 555.12 908.08 553.44 921.11 C 552.99 924.31 553.17 927.97 555.74 930.30 C 560.96 935.41 565.87 941.49 566.97 948.95 C 568.21 955.13 567.23 961.90 570.34 967.61 C 574.44 972.97 580.94 975.85 587.28 977.70 C 596.45 980.42 605.34 984.71 615.05 985.14 C 620.02 985.56 625.08 982.22 626.48 977.40 C 628.58 972.28 628.54 966.48 626.56 961.33 C 619.14 940.27 603.75 921.72 602.98 898.61 C 596.93 902.46 589.33 900.74 583.31 897.74 C 578.36 894.94 573.03 892.13 569.88 887.21 C 569.20 886.46 568.80 885.33 567.76 885.10 Z" />
		<path fill="#020202" opacity="1.00"
			d=" M 457.24 117.23 C 460.48 121.38 464.66 124.70 469.55 126.71 C 465.90 128.21 461.44 129.43 457.87 127.10 C 455.27 124.49 457.31 120.42 457.24 117.23 Z" />
		<path fill="#020202" opacity="1.00"
			d=" M 466.36 140.60 C 473.86 138.39 481.44 136.48 489.06 134.75 C 490.44 134.57 493.56 133.55 493.43 136.01 C 493.64 137.66 491.54 137.79 490.61 138.64 C 489.92 140.50 488.84 142.37 486.72 142.78 C 481.20 144.41 475.64 146.05 469.97 147.07 C 467.88 147.73 466.23 146.26 464.79 145.01 C 463.62 144.55 461.17 144.97 461.50 142.99 C 462.76 141.61 464.67 141.19 466.36 140.60 Z" />
		<path fill="#020202" opacity="1.00"
			d=" M 433.98 428.18 C 446.95 427.27 460.01 426.66 472.70 423.64 C 472.39 425.24 471.19 426.22 469.71 426.67 C 458.57 430.62 446.67 431.45 434.99 432.52 C 426.48 433.38 418.12 431.28 409.73 430.35 C 429.21 441.68 451.87 446.00 474.05 448.28 C 475.38 448.18 476.24 448.76 476.62 450.03 C 472.94 451.56 468.86 451.04 465.00 450.79 C 455.72 449.96 446.48 448.50 437.38 446.51 C 428.15 444.12 419.28 440.48 410.70 436.35 C 407.58 434.64 403.68 432.82 402.75 429.04 C 402.56 426.22 405.70 425.26 407.97 425.68 C 416.64 426.55 425.21 428.80 433.98 428.18 Z" />
		<path fill="#020202" opacity="1.00"
			d=" M 403.15 444.22 C 409.57 445.68 415.29 449.16 421.40 451.53 C 439.57 459.76 458.32 466.67 477.40 472.48 C 488.66 475.96 500.23 478.83 512.07 479.19 C 518.05 479.40 523.86 477.74 529.80 477.38 C 529.52 477.92 528.95 479.00 528.67 479.55 C 516.91 484.87 503.45 483.20 491.16 480.84 C 472.02 476.48 453.52 469.72 435.30 462.49 C 426.47 458.62 417.53 454.88 409.31 449.81 C 406.96 448.30 404.06 447.11 403.15 444.22 Z" />
		<path fill="#020202" opacity="1.00"
			d=" M 548.88 677.94 C 551.98 679.42 553.80 682.54 556.43 684.65 C 561.69 689.15 567.21 693.97 574.11 695.61 C 577.49 696.47 580.66 694.79 583.65 693.46 C 583.98 697.28 580.23 699.42 577.03 700.14 C 572.53 700.90 568.26 698.68 564.58 696.36 C 559.64 693.09 555.12 689.15 551.36 684.57 C 549.94 682.67 548.18 680.47 548.88 677.94 Z" />
	</g>
	<g id="#f0b58bff">
		<path fill="#f0b58b" opacity="1.00"
			d=" M 463.10 60.17 C 466.48 57.67 469.29 54.46 472.88 52.22 C 471.94 58.96 471.33 66.03 474.01 72.48 C 476.71 65.56 479.46 57.69 486.24 53.73 C 488.36 58.63 488.48 64.04 489.19 69.25 C 493.86 62.59 498.96 54.88 507.17 52.44 C 507.62 58.58 505.21 64.36 503.88 70.25 C 505.75 68.96 507.52 67.55 509.24 66.07 C 507.77 69.86 506.64 73.83 506.86 77.93 C 495.31 77.57 483.75 79.30 472.73 82.71 C 470.65 83.42 467.93 84.40 467.73 86.98 C 467.60 91.01 471.50 93.87 475.18 94.37 C 485.71 96.45 495.58 90.67 505.97 90.39 C 510.39 90.20 513.85 93.61 516.03 97.09 C 517.25 102.12 515.69 107.36 516.69 112.44 C 517.47 116.31 517.84 120.86 520.94 123.67 L 522.11 123.11 C 521.93 119.77 521.11 116.44 521.55 113.09 C 522.05 108.00 524.21 103.12 523.75 97.95 C 523.32 92.33 521.19 86.72 522.42 81.07 C 523.22 77.77 527.10 75.24 530.36 76.68 C 533.73 78.41 534.37 82.57 534.77 85.97 C 536.01 94.86 531.35 103.14 531.40 111.97 C 531.42 121.25 529.35 130.73 532.14 139.80 C 535.37 152.98 529.12 166.02 521.25 176.24 C 513.11 186.61 505.16 197.21 499.02 208.92 C 497.08 204.49 494.54 200.30 491.13 196.86 C 486.83 192.46 481.65 188.85 478.25 183.62 C 474.93 179.15 473.30 173.74 471.97 168.41 C 480.38 171.27 488.96 167.43 496.04 163.04 C 502.38 159.25 507.47 153.79 512.14 148.15 C 513.34 146.78 513.97 145.06 514.45 143.33 C 510.74 144.69 508.64 148.26 505.71 150.70 C 499.10 156.52 491.34 161.16 482.97 163.94 C 478.34 165.64 472.80 164.14 469.57 160.44 C 464.14 154.62 461.37 147.06 457.81 140.09 C 454.53 133.65 449.37 128.11 447.54 120.99 C 446.14 114.08 446.89 106.97 446.28 99.98 C 450.39 97.53 455.23 97.18 459.60 95.47 C 460.03 92.09 458.38 88.37 455.73 86.26 C 451.73 84.02 446.80 84.33 442.44 85.19 C 441.82 80.62 441.17 75.93 441.79 71.34 C 444.95 66.53 447.52 61.39 450.30 56.37 C 450.86 54.77 452.58 54.99 453.93 54.77 C 454.00 59.25 452.34 63.42 451.13 67.65 C 455.16 65.22 459.33 63.01 463.10 60.17 M 457.61 114.45 C 458.72 108.52 460.80 102.60 460.14 96.49 C 456.40 101.44 454.43 108.76 457.61 114.45 M 457.24 117.23 C 457.31 120.42 455.27 124.49 457.87 127.10 C 461.44 129.43 465.90 128.21 469.55 126.71 C 464.66 124.70 460.48 121.38 457.24 117.23 M 466.36 140.60 C 464.67 141.19 462.76 141.61 461.50 142.99 C 461.17 144.97 463.62 144.55 464.79 145.01 C 466.23 146.26 467.88 147.73 469.97 147.07 C 475.64 146.05 481.20 144.41 486.72 142.78 C 488.84 142.37 489.92 140.50 490.61 138.64 C 491.54 137.79 493.64 137.66 493.43 136.01 C 493.56 133.55 490.44 134.57 489.06 134.75 C 481.44 136.48 473.86 138.39 466.36 140.60 Z" />
		<path fill="#f0b58b" opacity="1.00"
			d=" M 632.85 298.92 C 637.45 294.29 640.98 288.78 644.98 283.66 C 647.36 292.18 650.66 300.43 652.46 309.11 C 656.31 327.47 657.01 346.31 657.13 365.01 C 657.08 379.74 656.80 394.71 660.53 409.07 C 662.29 415.46 663.52 421.96 664.79 428.46 C 667.52 441.64 673.33 454.41 673.03 468.08 C 672.75 473.36 667.84 475.89 663.60 477.74 C 657.71 480.43 656.20 489.02 649.13 489.46 C 642.75 490.60 636.27 489.47 629.84 489.61 C 630.52 488.18 630.64 486.14 632.18 485.34 C 635.75 484.50 639.71 484.94 642.95 482.93 C 646.77 480.63 650.30 477.51 652.31 473.48 C 653.56 470.02 652.15 466.28 651.00 463.00 C 650.60 460.91 647.55 460.61 646.80 462.59 C 644.30 467.21 642.30 472.10 639.71 476.67 C 638.80 478.97 634.98 477.36 635.70 475.12 C 636.58 468.10 639.08 461.21 638.15 454.03 C 637.20 447.46 641.00 441.74 644.74 436.75 C 649.29 428.75 650.15 418.59 647.02 409.93 C 643.88 399.78 638.53 390.54 634.02 380.98 C 629.68 372.47 626.14 363.59 621.99 354.99 C 616.54 343.55 612.87 331.34 610.07 319.01 C 608.40 312.11 608.47 304.96 608.38 297.91 C 613.84 298.90 618.73 301.61 624.00 303.16 C 627.65 304.33 630.58 301.30 632.85 298.92 Z" />
		<path fill="#f0b58b" opacity="1.00"
			d=" M 330.29 335.88 C 332.25 326.23 334.77 316.61 338.95 307.67 C 347.02 315.41 354.79 323.55 363.73 330.32 C 365.97 332.21 368.91 332.70 371.75 332.86 C 370.00 345.70 369.58 358.71 367.23 371.47 C 365.00 383.70 363.36 396.07 360.07 408.08 C 357.54 418.00 353.94 427.66 352.29 437.79 C 352.03 439.98 351.44 442.40 352.56 444.46 C 355.91 450.70 360.41 456.31 363.12 462.90 C 367.29 472.78 368.53 483.53 370.13 494.04 C 370.47 497.74 373.11 500.50 375.82 502.78 C 373.74 504.21 371.30 507.00 368.53 505.48 C 365.32 503.71 364.00 499.99 361.90 497.16 C 358.99 493.02 357.30 488.23 356.34 483.31 C 354.02 481.14 353.33 486.28 353.28 487.98 C 354.34 497.56 363.03 503.92 365.74 512.90 C 366.59 516.21 363.92 519.03 361.00 520.05 C 357.91 515.52 353.89 511.77 350.23 507.73 C 347.72 505.10 345.25 502.33 342.12 500.42 C 339.99 500.58 341.45 502.95 341.98 503.93 C 346.67 510.42 352.88 515.68 357.34 522.36 C 356.16 523.32 354.77 525.48 353.12 523.90 C 345.91 518.73 338.05 514.47 331.32 508.65 C 329.04 506.64 326.75 504.26 326.25 501.14 C 325.02 494.18 324.07 487.13 324.09 480.05 C 324.09 470.56 328.14 461.73 329.21 452.39 C 330.38 443.98 329.23 435.51 328.67 427.10 C 327.67 413.04 325.84 399.02 325.85 384.91 C 325.44 368.47 326.88 351.97 330.29 335.88 Z" />
		<path fill="#f0b58b" opacity="1.00"
			d=" M 537.13 631.68 C 543.60 629.18 550.00 625.93 557.08 625.70 C 573.20 624.83 589.45 626.76 604.96 631.19 C 603.98 645.23 599.89 658.78 597.83 672.65 C 596.59 680.78 597.56 689.01 599.40 696.96 C 594.80 702.96 587.45 705.90 580.19 707.08 C 568.93 708.94 557.35 707.55 546.48 704.28 C 549.84 688.33 546.66 672.17 543.71 656.45 C 542.58 647.94 540.53 639.57 537.13 631.68 M 548.88 677.94 C 548.18 680.47 549.94 682.67 551.36 684.57 C 555.12 689.15 559.64 693.09 564.58 696.36 C 568.26 698.68 572.53 700.90 577.03 700.14 C 580.23 699.42 583.98 697.28 583.65 693.46 C 580.66 694.79 577.49 696.47 574.11 695.61 C 567.21 693.97 561.69 689.15 556.43 684.65 C 553.80 682.54 551.98 679.42 548.88 677.94 Z" />
		<path fill="#f0b58b" opacity="1.00"
			d=" M 403.21 639.01 C 425.63 645.85 449.67 642.35 471.68 635.66 C 469.28 646.87 460.46 655.21 451.05 661.01 C 446.30 664.01 440.81 665.34 435.57 667.18 C 435.85 667.51 436.43 668.16 436.71 668.49 C 446.42 669.27 455.41 664.17 462.37 657.80 C 460.72 662.09 458.76 666.29 457.68 670.78 C 456.11 676.15 456.06 682.07 452.87 686.86 C 449.84 691.44 447.75 696.90 443.13 700.19 C 435.31 706.38 423.95 706.26 415.40 701.64 C 409.38 698.64 404.89 693.43 401.26 687.89 C 402.73 680.70 404.27 673.43 403.90 666.04 C 403.62 657.03 403.28 648.02 403.21 639.01 Z" />
	</g>
	<g id="#010101fb">
		<path fill="#010101" opacity="1.00"
			d=" M 457.61 114.45 C 454.43 108.76 456.40 101.44 460.14 96.49 C 460.80 102.60 458.72 108.52 457.61 114.45 Z" />
	</g>
	<g id="#f11b27ff">
		<path fill="var(--shirt-color, grey)" opacity="1.00"
			d=" M 535.96 140.85 C 552.24 145.97 569.42 147.33 585.65 152.62 C 594.11 155.21 602.18 158.93 609.98 163.08 C 614.08 165.40 618.46 167.77 621.12 171.82 C 626.71 180.30 629.40 190.26 631.61 200.07 C 635.20 214.39 639.25 228.60 642.08 243.10 C 643.46 250.38 645.55 257.52 646.61 264.85 C 647.47 269.76 644.62 274.17 642.08 278.09 C 637.41 284.92 632.77 291.94 626.59 297.52 C 624.95 299.20 622.83 297.42 621.09 296.89 C 616.44 294.54 611.41 293.14 606.31 292.13 C 609.32 283.63 615.59 276.94 620.91 269.85 C 622.31 267.70 624.15 265.55 624.35 262.89 C 622.83 261.18 621.38 263.38 620.44 264.46 C 616.59 269.39 612.14 273.80 608.39 278.80 C 609.84 269.22 612.15 259.78 613.18 250.14 C 613.66 245.43 614.86 240.85 615.51 236.17 C 613.77 236.84 612.64 238.29 612.14 240.05 C 608.57 250.39 606.91 261.26 605.02 272.01 C 603.92 278.02 604.43 284.31 602.29 290.12 C 600.53 295.01 601.05 300.38 599.28 305.27 C 592.91 318.91 586.13 332.60 576.16 344.04 C 568.85 352.70 560.60 360.54 551.91 367.80 C 549.84 369.70 546.75 371.13 546.48 374.29 C 551.33 373.17 554.94 369.56 558.93 366.83 C 576.33 354.20 589.71 336.56 598.33 316.93 C 597.85 336.35 602.36 355.66 600.53 375.09 C 599.97 379.80 597.76 384.13 597.31 388.87 C 596.02 399.73 598.21 410.60 599.41 421.37 C 599.97 437.88 598.89 454.39 597.35 470.82 C 596.66 475.54 596.56 480.43 594.81 484.92 C 594.01 487.32 591.46 488.30 589.35 489.23 C 578.40 493.46 566.54 493.92 554.99 494.90 C 544.11 495.65 533.43 497.96 522.90 500.69 C 512.46 503.47 501.97 507.57 490.98 506.45 C 478.56 505.27 467.39 498.80 457.76 491.23 C 449.46 484.52 441.08 477.90 432.44 471.63 C 424.68 465.62 415.88 460.48 406.02 459.03 C 401.52 458.55 397.11 456.27 394.66 452.38 C 393.39 450.40 393.98 447.94 395.04 446.03 C 397.36 441.51 400.80 437.26 401.16 432.01 C 400.95 425.32 397.57 419.32 395.84 412.98 C 394.50 409.08 397.52 405.65 399.89 402.92 C 402.83 399.83 406.08 397.01 409.43 394.36 C 413.03 391.63 417.83 392.17 421.99 392.96 C 432.57 394.98 443.19 397.32 454.01 397.24 C 471.42 397.41 489.51 393.38 503.46 382.50 C 505.22 380.91 507.92 379.62 508.06 376.95 C 505.85 375.94 503.94 378.22 502.10 379.13 C 487.62 389.26 469.54 393.14 452.07 392.47 C 439.33 392.03 427.09 388.03 414.45 386.82 C 413.97 384.32 413.45 381.81 412.47 379.46 C 406.80 365.79 402.57 351.51 399.91 336.96 C 398.67 330.68 399.12 324.26 398.65 317.93 C 397.13 312.85 401.85 309.12 403.70 304.83 C 406.69 317.43 412.06 329.32 418.61 340.45 C 426.03 352.57 435.74 363.92 448.65 370.37 C 451.34 371.62 454.30 373.64 457.35 372.24 C 442.74 365.11 431.33 352.82 422.74 339.24 C 415.61 328.14 410.66 315.83 406.46 303.37 C 406.38 302.87 406.22 301.87 406.14 301.37 C 410.60 293.97 417.35 288.40 423.50 282.46 C 425.93 280.10 428.95 278.33 430.92 275.50 C 425.45 275.88 421.29 279.98 416.99 282.96 C 407.55 289.98 401.39 300.17 395.61 310.18 C 394.72 300.48 393.44 290.75 393.83 280.99 C 393.86 279.21 394.14 277.28 393.02 275.74 C 390.77 279.78 390.72 284.50 390.26 288.98 C 389.78 298.17 389.66 307.54 391.66 316.57 C 387.05 320.13 382.26 323.52 377.06 326.17 C 373.79 327.37 369.56 328.96 366.55 326.37 C 359.58 321.16 353.40 314.98 347.07 309.03 C 341.37 303.39 335.15 298.10 330.76 291.31 C 328.67 286.66 332.01 282.12 334.17 278.19 C 345.39 260.40 355.36 241.77 363.21 222.24 C 367.46 211.68 372.69 201.48 379.20 192.13 C 382.78 187.14 386.87 182.42 391.90 178.84 C 401.94 171.63 412.77 165.33 424.58 161.51 C 435.35 157.42 446.30 153.83 457.06 149.73 C 459.95 156.16 464.11 161.86 469.05 166.83 C 469.66 173.78 471.23 180.83 475.23 186.67 C 479.64 194.10 487.51 198.68 491.74 206.24 C 493.87 209.64 495.04 213.54 497.16 216.93 C 499.12 218.10 500.31 215.50 501.15 214.19 C 505.52 206.10 510.30 198.19 516.09 191.04 C 523.68 181.01 532.49 171.32 535.97 158.93 C 537.92 153.05 537.06 146.80 535.96 140.85 M 433.98 428.18 C 425.21 428.80 416.64 426.55 407.97 425.68 C 405.70 425.26 402.56 426.22 402.75 429.04 C 403.68 432.82 407.58 434.64 410.70 436.35 C 419.28 440.48 428.15 444.12 437.38 446.51 C 446.48 448.50 455.72 449.96 465.00 450.79 C 468.86 451.04 472.94 451.56 476.62 450.03 C 476.24 448.76 475.38 448.18 474.05 448.28 C 451.87 446.00 429.21 441.68 409.73 430.35 C 418.12 431.28 426.48 433.38 434.99 432.52 C 446.67 431.45 458.57 430.62 469.71 426.67 C 471.19 426.22 472.39 425.24 472.70 423.64 C 460.01 426.66 446.95 427.27 433.98 428.18 M 403.15 444.22 C 404.06 447.11 406.96 448.30 409.31 449.81 C 417.53 454.88 426.47 458.62 435.30 462.49 C 453.52 469.72 472.02 476.48 491.16 480.84 C 503.45 483.20 516.91 484.87 528.67 479.55 C 528.95 479.00 529.52 477.92 529.80 477.38 C 523.86 477.74 518.05 479.40 512.07 479.19 C 500.23 478.83 488.66 475.96 477.40 472.48 C 458.32 466.67 439.57 459.76 421.40 451.53 C 415.29 449.16 409.57 445.68 403.15 444.22 Z" />
	</g>
	<g id="#ffffffff">
		<path fill="var(--pants-color, grey)" opacity="1.00"
			d=" M 396.15 459.58 C 400.64 462.86 406.39 462.61 411.45 464.40 C 416.90 466.17 421.71 469.39 426.33 472.70 C 435.61 479.74 444.89 486.78 454.04 493.98 C 463.86 501.46 474.79 508.30 487.14 510.44 C 496.10 512.16 505.28 510.44 513.96 508.06 C 524.16 505.22 534.45 502.58 544.93 500.97 C 557.63 499.03 570.66 499.21 583.11 495.76 C 588.53 494.38 594.02 492.30 597.89 488.08 C 598.92 492.66 600.57 497.19 600.21 501.95 C 599.84 508.88 602.76 515.32 604.01 522.00 C 606.26 533.51 607.15 545.24 607.44 556.95 C 607.58 569.45 610.49 581.68 611.25 594.13 C 611.08 605.46 611.92 616.84 610.09 628.08 C 604.58 626.90 599.36 624.73 593.89 623.43 C 581.48 620.77 568.69 620.22 556.05 621.03 C 547.54 621.49 539.98 625.77 532.06 628.42 C 528.69 615.13 524.80 601.96 520.07 589.09 C 516.40 579.34 513.39 568.63 505.64 561.23 C 502.78 558.78 499.65 561.96 498.76 564.71 C 491.04 582.69 488.44 603.12 492.41 622.35 C 477.00 628.96 460.79 633.93 444.17 636.36 C 433.48 637.79 422.51 637.97 411.92 635.72 C 399.48 633.25 388.01 627.60 376.65 622.20 C 378.67 612.73 381.21 603.37 382.85 593.81 C 385.88 583.76 387.15 573.34 387.55 562.88 C 389.88 544.34 389.37 525.63 390.08 507.00 C 390.07 491.05 389.83 474.56 396.15 459.58 Z" />
		<path fill="var(--socks-color, grey)" opacity="1.00"
			d=" M 398.64 731.12 C 396.20 718.50 397.32 705.39 400.18 692.94 C 405.67 701.95 415.21 708.63 425.84 709.59 C 434.80 710.63 444.20 707.00 449.81 699.86 C 449.81 703.57 450.17 707.29 451.00 710.92 C 453.63 722.42 453.33 734.29 454.36 745.98 C 456.01 774.04 455.68 802.29 451.72 830.15 C 450.86 837.98 449.12 845.67 448.38 853.51 C 438.17 846.63 424.20 844.83 412.96 850.24 C 412.25 840.63 410.92 831.08 409.75 821.52 C 408.32 808.40 407.53 795.20 405.65 782.13 C 404.19 771.75 401.97 761.49 400.86 751.06 C 399.91 744.43 399.59 737.74 398.64 731.12 Z" />
		<path fill="var(--socks-color, grey)" opacity="1.00"
			d=" M 582.16 711.58 C 589.13 710.34 596.09 707.64 601.09 702.45 C 602.90 707.68 605.49 712.61 606.92 717.98 C 611.54 734.40 610.96 751.64 610.80 768.53 C 610.32 788.33 609.56 808.13 609.15 827.94 C 608.15 846.26 607.97 864.69 605.32 882.88 C 604.62 887.63 603.21 893.05 598.88 895.77 C 593.51 897.28 587.56 896.09 583.00 892.93 C 579.08 890.35 574.76 887.70 572.76 883.25 C 570.88 879.45 571.57 875.11 571.76 871.06 C 572.46 862.25 570.83 853.48 568.74 844.96 C 565.08 828.34 558.42 812.61 553.80 796.27 C 549.01 779.45 544.06 762.48 542.83 744.94 C 541.84 732.57 543.37 720.16 545.76 708.04 C 557.33 712.23 570.00 713.71 582.16 711.58 Z" />
	</g>
	<g id="#4d4d4dff">
		<path fill="#4d4d4d" opacity="1.00"
			d=" M 422.18 852.20 C 430.66 851.20 439.94 852.71 446.73 858.18 C 450.28 860.92 450.58 865.87 450.76 870.00 C 450.57 882.39 442.55 892.58 439.01 904.06 C 436.85 910.10 436.03 916.46 434.80 922.72 C 433.53 929.87 427.94 935.41 421.84 938.86 C 411.26 943.85 398.99 943.62 387.77 941.15 C 379.85 938.87 374.41 931.10 373.94 923.02 C 373.14 916.86 376.27 911.26 379.13 906.08 C 383.18 898.71 388.57 892.23 393.25 885.27 C 399.26 876.56 406.11 868.31 410.62 858.68 C 412.48 854.15 417.86 852.97 422.18 852.20 Z" />
		<path fill="#4d4d4d" opacity="1.00"
			d=" M 567.76 885.10 C 568.80 885.33 569.20 886.46 569.88 887.21 C 573.03 892.13 578.36 894.94 583.31 897.74 C 589.33 900.74 596.93 902.46 602.98 898.61 C 603.75 921.72 619.14 940.27 626.56 961.33 C 628.54 966.48 628.58 972.28 626.48 977.40 C 625.08 982.22 620.02 985.56 615.05 985.14 C 605.34 984.71 596.45 980.42 587.28 977.70 C 580.94 975.85 574.44 972.97 570.34 967.61 C 567.23 961.90 568.21 955.13 566.97 948.95 C 565.87 941.49 560.96 935.41 555.74 930.30 C 553.17 927.97 552.99 924.31 553.44 921.11 C 555.12 908.08 562.01 896.65 567.76 885.10 Z" />
	</g>
</svg>