<?xml version="1.0" encoding="UTF-8" ?>
<!DOCTYPE svg PUBLIC "-//W3C//DTD SVG 1.1//EN" "http://www.w3.org/Graphics/SVG/1.1/DTD/svg11.dtd">
<svg width="1000pt" height="1000pt" viewBox="0 0 1000 1000" version="1.1" xmlns="http://www.w3.org/2000/svg">
	<g id="#020202ff">
		<path fill="#020202" opacity="1.00"
			d=" M 461.43 63.91 C 466.71 30.86 497.65 4.24 531.00 3.28 C 545.84 2.86 561.14 7.67 571.97 18.09 C 585.55 30.17 590.31 49.33 589.53 66.92 C 589.01 72.76 589.15 79.24 585.37 84.11 C 583.84 82.16 582.39 80.16 580.98 78.13 C 576.85 96.14 572.94 114.39 565.36 131.34 C 560.62 141.94 555.00 152.59 546.07 160.28 C 552.47 162.60 559.03 164.66 565.00 168.00 C 569.20 170.30 572.38 173.96 575.18 177.77 C 586.65 177.81 598.89 181.49 606.55 190.48 C 616.73 201.62 620.95 216.40 627.13 229.83 C 630.32 236.66 633.39 243.79 638.72 249.28 C 643.81 254.66 650.34 258.31 656.09 262.91 C 657.39 264.06 659.29 265.53 658.65 267.53 C 657.23 269.56 655.32 271.19 653.61 272.96 C 658.15 281.04 662.16 289.64 668.61 296.42 C 671.27 299.34 675.27 300.08 678.84 301.32 C 686.96 304.03 693.86 309.29 700.54 314.48 C 713.79 324.78 724.72 337.60 736.80 349.16 C 744.68 356.98 752.48 364.96 761.51 371.47 C 765.75 374.48 769.64 378.00 772.75 382.18 C 782.70 382.72 793.05 381.32 802.63 384.68 C 815.12 389.70 824.84 399.37 834.23 408.70 C 837.39 412.17 840.94 416.04 841.20 420.99 C 840.86 425.33 838.49 429.34 835.57 432.48 C 832.09 436.15 826.71 436.12 822.09 437.02 C 819.46 439.68 815.66 440.55 812.02 440.07 C 802.17 438.94 792.64 436.04 783.01 433.79 C 778.92 432.70 774.41 431.81 771.35 428.64 C 768.35 425.51 766.06 421.79 763.99 418.01 C 761.18 412.39 756.00 408.49 750.94 405.02 C 742.16 399.86 732.88 395.61 723.59 391.46 C 714.74 387.17 705.94 382.77 696.76 379.23 C 685.16 374.43 672.81 370.90 662.55 363.40 C 654.76 359.18 649.12 352.21 642.50 346.52 C 633.52 339.63 625.80 331.28 617.41 323.74 C 608.51 320.63 600.44 315.18 590.94 313.83 C 574.86 311.21 557.98 313.02 542.86 319.10 C 542.93 334.19 533.65 347.20 531.99 362.00 C 530.11 372.06 532.70 382.59 529.41 392.43 C 528.51 395.55 526.02 397.74 523.46 399.53 C 529.85 409.01 535.05 419.63 536.40 431.10 C 537.29 437.96 535.74 444.93 533.16 451.28 C 531.79 454.84 527.33 454.54 524.27 455.12 L 523.25 453.55 C 523.37 454.22 523.49 454.92 524.14 455.31 C 528.67 458.89 533.78 461.93 537.37 466.56 C 540.71 470.80 541.49 476.66 545.74 480.26 C 550.21 484.23 554.40 488.71 556.71 494.32 C 560.11 501.11 561.17 508.81 564.49 515.61 C 568.42 517.26 572.85 517.08 576.90 518.40 C 583.23 520.18 587.84 525.30 591.48 530.51 C 599.30 541.97 605.30 554.57 610.53 567.40 C 615.62 579.57 621.99 591.32 630.36 601.57 C 633.60 605.77 638.51 608.27 641.62 612.56 C 635.41 616.16 628.56 618.39 621.70 620.36 C 628.61 635.06 632.72 650.87 636.62 666.58 C 638.70 675.58 640.83 684.66 640.99 693.94 C 640.85 697.85 642.27 701.54 643.94 705.01 C 648.14 713.84 651.38 723.19 652.54 732.94 C 654.78 749.85 656.33 766.88 656.62 783.95 C 657.56 808.95 655.78 833.93 655.46 858.92 C 655.60 873.63 655.30 888.33 654.83 903.02 C 654.69 908.87 652.98 914.99 655.21 920.66 C 658.29 929.43 665.78 935.84 673.77 940.13 C 681.54 944.18 689.38 948.47 698.05 950.24 C 707.36 952.22 715.88 957.94 721.02 965.97 C 723.84 970.52 725.91 976.15 724.28 981.50 C 722.70 986.21 717.99 988.83 713.65 990.61 C 702.54 994.34 690.67 996.05 678.97 994.77 C 663.71 993.80 649.37 987.27 634.03 986.99 C 626.24 986.89 617.92 986.47 611.35 981.78 C 605.21 977.68 603.17 970.02 602.25 963.12 C 600.23 948.14 605.83 933.65 607.18 918.91 C 606.44 903.32 603.28 887.96 601.26 872.51 C 598.00 854.11 593.53 835.93 588.09 818.05 C 583.65 803.72 579.60 789.07 579.07 773.99 C 578.23 760.64 578.84 747.23 577.57 733.90 C 576.88 726.11 575.91 717.70 570.64 711.51 C 561.97 701.10 550.55 693.52 540.76 684.25 C 535.89 679.57 530.97 674.95 526.01 670.37 C 523.21 670.25 520.44 669.52 518.16 667.86 C 507.05 660.52 498.75 649.90 490.00 640.05 C 479.68 628.32 470.17 615.45 456.98 606.72 C 454.48 625.03 454.75 643.60 451.87 661.86 C 450.90 668.29 448.46 675.11 443.01 679.08 C 438.13 682.36 432.22 683.48 426.50 684.31 C 424.79 696.95 423.18 709.61 421.25 722.22 C 418.53 740.23 418.25 760.26 406.05 775.01 C 397.46 785.61 386.09 793.63 374.22 800.16 C 362.45 806.48 349.93 811.20 337.73 816.58 C 337.68 830.90 336.49 845.30 338.24 859.57 C 339.40 875.64 341.88 892.09 338.02 907.99 C 335.89 916.50 331.80 925.24 324.05 929.98 C 317.52 934.18 308.84 933.49 302.26 929.77 C 293.78 925.04 288.10 916.75 283.63 908.37 C 275.35 893.95 271.23 877.53 269.40 861.11 C 268.07 849.79 268.72 838.39 268.61 827.02 C 268.71 815.31 268.94 803.52 270.89 791.95 C 272.25 783.47 277.23 776.16 282.90 769.94 C 290.95 757.91 300.33 746.80 310.49 736.50 C 315.81 731.40 321.38 726.25 328.29 723.41 C 327.87 711.52 327.07 699.64 325.67 687.82 C 324.44 678.90 322.95 669.96 323.04 660.93 C 318.79 659.89 314.55 658.80 310.40 657.41 C 308.09 651.56 307.64 645.25 307.15 639.05 C 306.26 626.01 304.99 613.00 304.68 599.93 C 304.41 586.56 302.74 573.10 304.84 559.79 C 306.28 550.64 309.88 542.02 313.68 533.63 C 317.89 524.69 317.84 514.60 318.44 504.94 C 318.16 491.65 317.48 478.16 320.35 465.07 C 321.89 457.51 325.21 450.48 328.73 443.67 C 331.41 438.48 333.59 433.06 336.28 427.88 C 332.31 420.90 330.44 412.96 329.87 405.01 C 327.92 380.76 332.41 356.65 337.09 332.96 C 338.76 324.04 339.80 315.00 340.16 305.94 C 340.36 303.12 339.34 300.45 338.48 297.83 C 334.73 286.91 333.65 275.34 331.19 264.11 C 329.17 254.87 327.67 245.52 325.32 236.36 C 322.26 227.23 315.62 219.80 308.40 213.65 C 304.51 210.22 298.97 208.01 297.25 202.70 C 294.09 193.45 294.62 183.43 295.44 173.85 C 288.86 169.50 282.29 165.09 276.30 159.94 C 272.83 171.51 268.43 182.91 262.07 193.22 C 263.96 198.55 264.51 204.34 263.54 209.91 C 262.73 213.76 260.09 216.83 258.04 220.07 C 255.28 224.18 252.99 228.95 248.56 231.54 C 242.88 234.65 236.21 234.62 230.14 236.52 C 227.70 237.25 225.45 238.52 222.96 239.10 C 219.25 238.07 220.18 233.51 219.92 230.63 C 215.94 230.57 210.57 231.94 207.87 228.14 C 205.77 224.30 209.37 220.83 212.01 218.48 C 210.13 215.91 209.15 212.89 209.94 209.70 C 205.26 205.29 206.14 198.54 207.14 192.83 C 203.37 191.68 200.58 187.87 202.18 183.88 C 205.21 175.81 212.35 170.22 219.19 165.40 C 217.73 149.73 221.28 134.08 226.21 119.29 C 231.07 105.98 242.48 94.05 256.94 92.02 C 275.08 90.58 292.75 96.33 309.48 102.67 C 318.68 106.31 328.12 109.34 337.10 113.52 C 337.35 111.00 337.03 107.25 340.10 106.32 C 346.22 104.52 352.79 103.84 359.08 105.18 C 368.81 106.82 377.38 111.95 386.42 115.57 C 397.92 120.56 410.32 123.09 421.75 128.25 C 432.26 133.32 444.28 132.24 455.53 131.28 C 459.62 127.65 462.27 122.66 465.08 118.01 C 468.17 113.03 468.94 106.65 466.73 101.17 C 462.13 89.41 459.18 76.54 461.43 63.91 M 515.43 51.90 C 515.24 56.50 515.11 61.20 513.35 65.52 C 511.33 62.74 509.32 59.94 507.10 57.32 C 509.25 63.47 510.12 70.22 507.86 76.49 C 511.98 75.76 516.30 74.02 520.46 75.52 C 528.70 78.40 537.40 79.96 545.33 83.70 C 546.30 84.25 547.72 84.78 547.77 86.12 C 547.85 90.13 546.04 93.86 544.39 97.42 C 531.70 94.74 519.34 90.76 506.81 87.48 C 504.26 86.65 501.72 88.49 500.90 90.85 C 497.87 97.75 496.60 105.71 491.24 111.36 C 489.90 112.52 488.00 114.28 486.31 112.66 C 486.20 109.37 486.93 106.13 487.38 102.89 C 488.68 94.33 489.09 85.57 487.88 76.97 C 487.61 75.05 486.17 73.61 485.12 72.07 C 483.65 73.22 481.79 74.17 481.14 76.04 C 477.99 84.02 479.47 92.85 477.00 100.99 C 475.64 107.86 471.83 113.78 468.81 119.97 C 466.43 124.65 463.31 128.91 460.02 132.98 C 460.50 145.31 459.74 157.70 461.11 169.99 C 463.32 192.44 468.70 214.79 478.96 234.99 C 484.53 226.70 491.37 219.42 498.17 212.16 C 506.56 202.52 515.27 193.14 523.04 182.98 C 526.41 178.09 528.85 172.62 532.51 167.93 C 522.57 169.55 512.64 166.02 504.29 160.81 C 499.61 157.80 493.96 155.44 491.23 150.29 C 496.16 151.07 499.98 154.53 504.35 156.66 C 512.43 160.98 521.52 164.94 530.89 163.63 C 538.01 160.35 545.62 156.85 550.31 150.27 C 559.24 138.40 564.64 124.27 568.64 110.09 C 565.57 109.06 562.55 107.90 559.57 106.62 C 557.87 110.86 556.93 115.48 554.21 119.25 C 553.48 112.18 554.56 105.08 556.17 98.21 C 556.88 95.60 557.69 92.59 560.18 91.12 C 564.29 88.86 569.15 89.68 573.56 90.35 C 574.75 85.00 576.19 79.70 577.80 74.45 C 574.67 70.19 572.16 65.54 569.93 60.77 C 567.94 67.87 567.62 75.23 567.71 82.55 C 559.52 74.48 555.62 63.24 551.54 52.75 C 547.91 58.94 546.60 66.05 545.97 73.11 C 540.85 67.39 538.54 59.83 536.84 52.50 C 533.94 53.33 530.46 53.92 528.70 56.66 C 527.16 59.65 526.48 63.00 525.09 66.05 C 522.48 60.94 520.08 55.52 515.43 51.90 M 242.64 102.65 C 236.69 107.94 231.94 114.71 229.62 122.37 C 225.37 135.75 222.66 149.65 222.26 163.71 C 226.24 162.68 230.51 161.40 234.58 162.76 C 242.08 164.81 248.17 170.27 252.51 176.55 C 255.30 180.50 256.02 185.48 258.87 189.40 C 269.14 170.80 275.37 150.10 277.78 129.03 C 278.22 126.01 277.66 122.55 279.86 120.08 C 281.27 123.87 281.58 127.96 281.26 131.96 C 280.63 139.55 279.39 147.08 277.74 154.52 C 293.52 167.99 312.30 177.46 331.88 184.08 C 337.56 175.56 342.24 166.32 345.40 156.57 C 349.07 143.68 343.19 130.84 339.08 118.81 C 333.04 116.02 326.85 113.57 320.54 111.46 C 302.75 105.19 285.06 97.26 265.92 96.50 C 257.74 95.69 249.10 97.33 242.64 102.65 M 341.15 109.45 C 344.87 121.84 350.84 133.84 351.25 147.00 C 351.62 155.91 347.85 164.23 344.09 172.08 C 340.72 178.73 337.30 185.60 331.88 190.86 C 324.40 197.88 314.82 201.98 305.97 206.93 C 314.01 212.44 321.16 219.50 326.04 227.99 C 331.70 238.81 333.21 251.11 336.05 262.84 C 338.86 274.51 340.15 286.54 343.93 297.97 C 348.41 311.81 356.45 324.07 362.93 337.00 C 367.99 346.72 373.20 356.40 377.40 366.54 C 379.54 371.74 382.11 376.82 383.28 382.36 C 379.93 380.73 378.47 377.17 376.85 374.06 C 369.88 359.91 362.47 345.98 355.21 331.98 C 351.52 325.22 347.63 318.57 344.29 311.64 C 343.62 320.82 342.11 329.89 340.22 338.89 C 337.21 363.39 331.58 388.19 335.68 412.91 C 337.00 421.70 341.86 429.66 348.74 435.21 C 361.34 445.35 374.96 454.22 389.24 461.81 C 403.48 468.97 418.07 476.39 433.97 478.90 C 444.42 480.75 454.21 475.77 463.35 471.45 C 472.79 466.66 482.40 462.23 492.15 458.11 C 498.64 455.54 505.15 452.81 512.12 451.83 C 495.50 446.56 480.91 436.48 468.03 424.94 C 454.43 412.91 440.44 401.25 427.79 388.19 C 414.19 375.38 403.93 359.57 394.26 343.71 C 384.75 327.72 376.05 311.28 367.07 295.00 C 361.13 285.44 356.01 275.41 350.50 265.61 C 345.84 257.29 340.88 249.15 335.87 241.04 C 333.69 237.31 330.99 233.67 330.54 229.24 C 334.90 233.11 337.66 238.32 341.00 243.02 C 349.96 256.02 357.60 269.85 365.30 283.62 C 374.34 298.20 381.92 313.60 390.56 328.40 C 399.47 343.83 408.57 359.29 419.95 373.04 C 429.62 383.03 438.65 393.70 449.47 402.50 C 467.79 417.64 484.13 436.25 506.68 445.25 C 513.73 448.03 520.96 451.35 528.74 450.69 C 530.65 445.67 532.13 440.37 531.83 434.95 C 531.36 423.51 526.32 412.95 520.88 403.11 C 519.67 401.10 518.73 398.54 516.28 397.77 C 507.84 394.45 500.33 389.27 493.00 384.00 C 489.03 381.08 484.83 378.14 482.37 373.72 C 488.56 375.43 493.09 380.26 498.54 383.39 C 506.29 388.03 514.37 392.44 523.13 394.84 C 526.13 389.37 526.36 383.05 526.27 376.97 C 526.12 368.66 526.80 360.27 529.12 352.27 C 532.26 341.49 537.68 331.48 539.94 320.44 C 533.66 323.38 528.02 327.72 521.43 329.94 C 520.45 327.45 523.19 326.07 524.80 324.79 C 531.36 320.44 538.09 316.16 545.55 313.50 C 557.17 309.27 569.67 307.65 582.00 308.04 C 593.94 308.37 605.61 312.26 615.69 318.60 C 618.02 312.05 621.46 305.97 625.21 300.14 C 633.43 288.05 642.90 276.76 653.39 266.58 C 644.72 260.48 635.25 254.75 629.52 245.53 C 624.31 236.92 620.67 227.49 616.67 218.29 C 612.64 208.38 607.91 198.35 600.02 190.90 C 593.89 185.06 585.33 183.21 577.38 181.26 C 582.83 191.22 587.62 201.52 591.92 212.02 C 593.58 216.28 596.29 220.21 596.95 224.81 C 595.73 226.25 594.45 224.09 593.72 223.26 C 584.26 209.08 579.32 192.38 569.48 178.42 C 562.94 169.45 551.32 167.43 542.04 162.45 C 532.78 169.64 529.86 181.76 522.27 190.35 C 512.42 202.11 502.41 213.74 491.95 224.96 C 487.49 229.82 483.85 235.41 478.88 239.80 C 473.64 234.01 470.17 226.88 467.23 219.71 C 461.46 204.76 458.66 188.86 456.90 172.99 C 455.53 160.50 456.09 147.89 456.81 135.37 C 444.48 135.97 431.41 137.42 419.95 131.73 C 430.27 143.90 434.52 159.78 437.49 175.12 C 438.10 179.68 439.78 184.67 437.47 189.04 C 433.88 179.85 433.05 169.84 429.67 160.56 C 425.99 150.56 422.63 139.75 414.80 132.13 C 408.54 126.03 399.51 125.17 391.61 122.51 C 381.34 119.28 372.38 112.87 361.95 110.07 C 355.21 108.10 347.98 107.72 341.15 109.45 M 222.39 168.42 C 216.40 172.21 211.01 177.10 207.00 182.98 C 205.87 184.54 205.30 186.46 205.83 188.37 C 207.15 188.56 208.34 188.26 209.39 187.45 C 213.68 184.58 216.72 180.20 221.10 177.46 C 221.38 177.83 221.94 178.59 222.22 178.96 C 219.56 184.31 214.80 188.26 210.16 191.86 C 210.57 196.90 210.06 202.15 212.22 206.88 C 217.79 201.58 223.73 196.31 230.86 193.21 C 227.57 201.55 217.44 204.58 213.95 212.87 C 214.46 214.10 215.20 215.91 216.92 215.36 C 221.13 214.72 224.95 212.63 228.57 210.49 C 232.52 208.18 235.68 204.61 240.05 203.01 C 237.97 207.36 234.61 211.00 230.64 213.70 C 224.44 218.23 215.85 219.29 211.47 226.20 C 218.05 226.59 224.57 225.27 231.11 224.79 C 242.09 223.73 250.34 215.72 259.20 210.03 C 260.06 205.70 260.72 201.11 259.44 196.80 C 258.26 192.67 254.01 190.39 252.88 186.23 C 250.84 179.43 246.23 173.64 240.57 169.46 C 235.42 165.64 227.88 164.86 222.39 168.42 M 298.96 175.90 C 298.65 185.81 298.12 196.36 302.81 205.45 C 310.88 198.26 321.40 194.62 329.22 187.12 C 318.72 184.62 308.66 180.57 298.96 175.90 M 241.63 226.54 C 236.44 229.06 230.61 229.67 224.94 230.15 C 224.65 231.65 224.34 233.15 224.04 234.65 C 230.97 229.74 239.84 230.27 247.50 227.35 C 249.87 225.33 250.98 222.20 252.66 219.63 C 249.07 222.07 245.53 224.63 241.63 226.54 M 620.13 320.41 C 628.66 327.68 636.16 336.15 645.27 342.75 C 647.49 344.48 649.49 346.49 651.49 348.47 C 658.53 355.61 666.47 362.19 675.74 366.20 C 685.00 370.01 694.50 373.21 703.67 377.25 C 712.94 381.11 721.70 386.07 730.85 390.17 C 741.73 395.59 753.52 400.05 762.24 408.83 C 767.43 413.61 769.02 421.03 774.19 425.84 C 776.56 428.15 779.97 428.68 783.07 429.41 C 788.75 430.60 794.40 431.94 800.08 433.16 C 805.67 434.27 811.29 435.88 817.06 435.31 C 813.11 429.57 807.13 425.21 800.40 423.37 C 794.10 421.54 787.77 419.85 781.46 418.05 C 783.79 416.90 786.30 416.12 788.93 416.06 C 797.78 415.66 806.75 415.03 815.53 416.66 C 819.40 417.33 822.67 420.42 823.74 424.17 C 824.02 427.24 820.70 428.95 819.28 431.32 C 822.88 433.55 827.42 432.95 831.02 431.05 C 834.07 428.88 835.67 425.23 836.81 421.78 C 836.89 419.25 834.98 417.28 833.54 415.42 C 828.79 409.90 823.45 404.92 817.96 400.15 C 811.25 394.74 803.79 389.51 795.07 388.20 C 788.28 387.09 781.37 386.96 774.56 385.99 C 774.44 386.90 774.20 388.73 774.07 389.64 C 769.86 386.95 767.70 382.19 763.81 379.13 C 754.88 371.81 745.58 364.87 737.58 356.48 C 723.95 343.38 711.24 329.26 696.47 317.40 C 691.17 312.88 685.33 309.00 679.06 305.97 C 674.72 304.06 669.60 303.43 666.20 299.82 C 659.44 292.97 655.46 284.02 651.34 275.46 C 639.22 289.16 628.52 304.14 620.13 320.41 M 802.93 419.54 C 808.57 420.90 813.36 424.30 817.61 428.12 C 818.67 426.97 819.73 425.82 820.81 424.67 C 819.32 423.06 818.15 420.73 815.82 420.28 C 811.57 419.52 807.21 420.00 802.93 419.54 M 325.64 462.40 C 322.43 473.97 322.29 486.12 322.88 498.03 C 323.52 506.27 322.83 514.54 322.19 522.76 C 321.08 532.68 315.37 541.16 312.41 550.53 C 308.46 561.20 308.46 572.74 308.82 583.96 C 309.41 596.29 309.37 608.64 310.17 620.97 C 311.02 632.29 310.80 643.69 312.15 654.98 C 336.32 659.10 358.74 669.58 382.49 675.29 C 392.84 677.49 403.33 679.17 413.90 679.80 C 422.44 680.13 431.41 679.82 439.20 675.94 C 442.27 674.29 445.30 671.69 445.91 668.09 C 450.93 646.33 448.49 623.32 455.43 601.94 C 456.58 602.01 457.73 602.19 458.86 602.46 C 470.25 608.87 478.67 619.12 487.13 628.85 C 498.26 641.70 508.81 655.32 522.39 665.75 C 525.25 658.50 529.64 651.75 535.57 646.65 C 541.33 642.22 548.12 639.39 554.81 636.68 C 570.59 630.88 586.68 625.94 602.86 621.41 C 614.17 618.60 625.54 616.04 636.77 612.92 C 628.22 607.93 623.35 599.07 617.73 591.29 C 611.53 582.20 607.39 571.94 603.12 561.85 C 599.14 552.84 594.55 544.09 589.25 535.79 C 586.29 531.51 583.24 526.94 578.58 524.34 C 573.92 521.79 568.35 522.38 563.44 520.65 C 560.13 519.48 559.07 515.84 557.86 512.92 C 555.35 505.98 553.34 498.79 549.66 492.34 C 547.28 488.18 543.20 485.48 540.11 481.93 C 536.40 477.80 536.18 471.68 532.28 467.67 C 527.96 463.06 522.95 459.17 518.41 454.79 C 509.37 455.38 501.06 459.17 492.82 462.61 C 482.87 466.99 473.02 471.60 463.25 476.36 C 455.84 479.68 448.27 483.52 439.96 483.57 C 430.82 483.63 421.98 480.79 413.57 477.47 C 393.25 469.28 373.96 458.58 356.22 445.75 C 350.03 441.62 344.35 436.78 339.18 431.44 C 335.47 442.11 328.74 451.49 325.64 462.40 M 564.32 638.24 C 556.85 640.77 549.46 643.67 542.60 647.58 C 535.44 651.63 530.71 658.74 526.98 665.86 C 537.28 673.86 546.41 683.19 556.55 691.37 C 566.30 700.00 577.76 708.69 580.73 722.13 C 587.08 725.07 594.00 726.65 600.99 726.80 C 615.82 727.13 631.22 724.66 644.14 717.01 C 642.70 712.66 641.03 708.40 639.60 704.05 C 637.37 707.42 636.91 713.13 632.61 714.43 C 632.31 710.79 634.09 707.46 634.95 704.02 C 637.30 696.87 636.05 689.24 634.97 681.99 C 631.20 661.32 624.89 641.23 618.32 621.32 C 600.10 626.24 582.15 632.08 564.32 638.24 M 327.24 662.09 C 327.62 675.17 330.88 687.96 331.44 701.03 C 332.27 711.00 331.57 721.01 331.82 730.99 C 333.16 740.87 337.03 750.32 342.11 758.86 C 349.79 771.57 361.05 783.21 375.78 787.17 C 379.77 787.92 384.68 789.06 388.00 786.00 C 398.92 777.66 408.90 766.69 411.95 752.91 C 417.05 730.40 418.50 707.28 422.22 684.53 C 409.51 684.88 396.91 682.70 384.50 680.21 C 364.99 675.59 346.36 667.99 327.24 662.09 M 621.07 729.62 C 608.03 731.82 594.04 732.21 581.63 727.02 C 585.04 749.24 581.81 771.99 586.45 794.06 C 588.27 802.78 590.90 811.31 593.44 819.84 C 598.44 836.27 602.40 853.02 605.48 869.91 C 607.80 885.53 610.39 901.12 611.67 916.87 C 611.94 920.39 615.11 922.56 616.50 925.60 C 618.90 930.83 618.92 937.02 622.26 941.85 C 627.62 943.53 634.52 939.04 634.77 933.12 C 635.17 927.31 638.43 921.20 644.11 919.10 C 646.34 917.94 650.08 917.45 649.78 914.16 C 650.79 902.45 650.46 890.68 650.90 878.95 C 650.18 839.27 653.96 799.56 650.73 759.93 C 649.40 746.66 648.89 733.15 645.15 720.28 C 638.04 725.34 629.57 728.03 621.07 729.62 M 292.22 764.15 C 285.81 772.85 279.52 783.69 282.40 794.88 C 284.54 805.22 289.20 815.57 297.61 822.30 C 302.05 825.84 308.12 825.09 313.21 823.60 C 318.96 822.17 323.53 818.20 328.87 815.83 C 345.96 807.83 363.93 801.58 380.04 791.62 C 366.81 790.94 355.51 782.63 347.09 772.97 C 336.22 760.22 329.39 743.92 328.47 727.16 C 313.64 736.42 302.65 750.40 292.22 764.15 M 277.78 781.52 C 271.87 793.44 272.50 807.04 272.07 819.98 C 272.31 834.33 271.33 848.76 273.18 863.04 C 275.59 882.07 281.67 901.15 293.70 916.37 C 297.05 920.93 300.87 925.57 306.41 927.49 C 312.39 930.16 319.76 928.97 324.57 924.53 C 331.66 918.03 334.75 908.34 335.93 899.05 C 337.37 888.59 334.39 878.28 333.54 867.91 C 331.16 851.58 330.48 834.90 333.05 818.55 C 326.03 821.62 319.63 826.11 312.16 828.15 C 306.47 830.06 299.77 829.84 294.86 826.09 C 288.54 821.20 284.40 813.97 281.71 806.57 C 279.37 798.43 276.39 790.11 277.78 781.52 M 641.77 926.81 C 639.09 931.27 639.91 937.21 636.29 941.22 C 632.57 946.00 625.14 948.83 619.68 945.39 C 614.48 939.78 614.90 931.39 611.24 924.92 C 608.72 935.76 607.12 946.90 607.24 958.04 C 607.66 965.71 609.06 974.46 615.46 979.53 C 620.84 983.29 627.78 982.70 634.02 982.98 C 643.50 982.97 652.77 985.22 661.92 987.49 C 673.21 990.35 685.00 991.60 696.63 990.44 C 704.03 989.59 711.86 987.64 717.34 982.26 C 720.44 979.12 718.95 974.23 717.22 970.77 C 712.87 962.77 704.92 956.69 695.95 954.89 C 687.30 952.98 679.39 948.77 671.96 944.08 C 663.07 938.37 655.02 930.71 651.05 920.73 C 647.79 922.43 643.93 923.63 641.77 926.81 Z" />
		<path fill="#020202" opacity="1.00"
			d=" M 549.00 128.97 C 551.68 127.74 553.74 125.50 555.98 123.63 C 555.24 127.17 554.68 130.74 554.11 134.32 C 550.40 134.87 546.53 135.07 542.90 134.04 C 541.74 132.77 540.93 131.24 540.01 129.81 C 542.99 129.50 546.05 129.66 549.00 128.97 Z" />
		<path fill="#020202" opacity="1.00"
			d=" M 516.85 140.88 C 523.99 141.19 530.77 143.76 537.71 145.24 C 540.43 146.11 544.03 146.12 545.38 149.11 C 542.33 149.97 539.43 152.49 536.11 151.38 C 530.90 150.21 525.60 149.21 520.62 147.25 C 519.29 146.77 519.09 145.15 518.41 144.11 C 517.79 143.07 515.43 142.31 516.85 140.88 Z" />
	</g>
	<g id="#f0b58bff">
		<path fill="#f0b58b" opacity="1.00"
			d=" M 515.43 51.90 C 520.08 55.52 522.48 60.94 525.09 66.05 C 526.48 63.00 527.16 59.65 528.70 56.66 C 530.46 53.92 533.94 53.33 536.84 52.50 C 538.54 59.83 540.85 67.39 545.97 73.11 C 546.60 66.05 547.91 58.94 551.54 52.75 C 555.62 63.24 559.52 74.48 567.71 82.55 C 567.62 75.23 567.94 67.87 569.93 60.77 C 572.16 65.54 574.67 70.19 577.80 74.45 C 576.19 79.70 574.75 85.00 573.56 90.35 C 569.15 89.68 564.29 88.86 560.18 91.12 C 557.69 92.59 556.88 95.60 556.17 98.21 C 554.56 105.08 553.48 112.18 554.21 119.25 C 556.93 115.48 557.87 110.86 559.57 106.62 C 562.55 107.90 565.57 109.06 568.64 110.09 C 564.64 124.27 559.24 138.40 550.31 150.27 C 545.62 156.85 538.01 160.35 530.89 163.63 C 521.52 164.94 512.43 160.98 504.35 156.66 C 499.98 154.53 496.16 151.07 491.23 150.29 C 493.96 155.44 499.61 157.80 504.29 160.81 C 512.64 166.02 522.57 169.55 532.51 167.93 C 528.85 172.62 526.41 178.09 523.04 182.98 C 515.27 193.14 506.56 202.52 498.17 212.16 C 491.37 219.42 484.53 226.70 478.96 234.99 C 468.70 214.79 463.32 192.44 461.11 169.99 C 459.74 157.70 460.50 145.31 460.02 132.98 C 463.31 128.91 466.43 124.65 468.81 119.97 C 471.83 113.78 475.64 107.86 477.00 100.99 C 479.47 92.85 477.99 84.02 481.14 76.04 C 481.79 74.17 483.65 73.22 485.12 72.07 C 486.17 73.61 487.61 75.05 487.88 76.97 C 489.09 85.57 488.68 94.33 487.38 102.89 C 486.93 106.13 486.20 109.37 486.31 112.66 C 488.00 114.28 489.90 112.52 491.24 111.36 C 496.60 105.71 497.87 97.75 500.90 90.85 C 501.72 88.49 504.26 86.65 506.81 87.48 C 519.34 90.76 531.70 94.74 544.39 97.42 C 546.04 93.86 547.85 90.13 547.77 86.12 C 547.72 84.78 546.30 84.25 545.33 83.70 C 537.40 79.96 528.70 78.40 520.46 75.52 C 516.30 74.02 511.98 75.76 507.86 76.49 C 510.12 70.22 509.25 63.47 507.10 57.32 C 509.32 59.94 511.33 62.74 513.35 65.52 C 515.11 61.20 515.24 56.50 515.43 51.90 M 549.00 128.97 C 546.05 129.66 542.99 129.50 540.01 129.81 C 540.93 131.24 541.74 132.77 542.90 134.04 C 546.53 135.07 550.40 134.87 554.11 134.32 C 554.68 130.74 555.24 127.17 555.98 123.63 C 553.74 125.50 551.68 127.74 549.00 128.97 M 516.85 140.88 C 515.43 142.31 517.79 143.07 518.41 144.11 C 519.09 145.15 519.29 146.77 520.62 147.25 C 525.60 149.21 530.90 150.21 536.11 151.38 C 539.43 152.49 542.33 149.97 545.38 149.11 C 544.03 146.12 540.43 146.11 537.71 145.24 C 530.77 143.76 523.99 141.19 516.85 140.88 Z" />
		<path fill="#f0b58b" opacity="1.00"
			d=" M 242.64 102.65 C 249.10 97.33 257.74 95.69 265.92 96.50 C 285.06 97.26 302.75 105.19 320.54 111.46 C 326.85 113.57 333.04 116.02 339.08 118.81 C 343.19 130.84 349.07 143.68 345.40 156.57 C 342.24 166.32 337.56 175.56 331.88 184.08 C 312.30 177.46 293.52 167.99 277.74 154.52 C 279.39 147.08 280.63 139.55 281.26 131.96 C 281.58 127.96 281.27 123.87 279.86 120.08 C 277.66 122.55 278.22 126.01 277.78 129.03 C 275.37 150.10 269.14 170.80 258.87 189.40 C 256.02 185.48 255.30 180.50 252.51 176.55 C 248.17 170.27 242.08 164.81 234.58 162.76 C 230.51 161.40 226.24 162.68 222.26 163.71 C 222.66 149.65 225.37 135.75 229.62 122.37 C 231.94 114.71 236.69 107.94 242.64 102.65 Z" />
		<path fill="#f0b58b" opacity="1.00"
			d=" M 222.39 168.42 C 227.88 164.86 235.42 165.64 240.57 169.46 C 246.23 173.64 250.84 179.43 252.88 186.23 C 254.01 190.39 258.26 192.67 259.44 196.80 C 260.72 201.11 260.06 205.70 259.20 210.03 C 250.34 215.72 242.09 223.73 231.11 224.79 C 224.57 225.27 218.05 226.59 211.47 226.20 C 215.85 219.29 224.44 218.23 230.64 213.70 C 234.61 211.00 237.97 207.36 240.05 203.01 C 235.68 204.61 232.52 208.18 228.57 210.49 C 224.95 212.63 221.13 214.72 216.92 215.36 C 215.20 215.91 214.46 214.10 213.95 212.87 C 217.44 204.58 227.57 201.55 230.86 193.21 C 223.73 196.31 217.79 201.58 212.22 206.88 C 210.06 202.15 210.57 196.90 210.16 191.86 C 214.80 188.26 219.56 184.31 222.22 178.96 C 221.94 178.59 221.38 177.83 221.10 177.46 C 216.72 180.20 213.68 184.58 209.39 187.45 C 208.34 188.26 207.15 188.56 205.83 188.37 C 205.30 186.46 205.87 184.54 207.00 182.98 C 211.01 177.10 216.40 172.21 222.39 168.42 Z" />
		<path fill="#f0b58b" opacity="1.00"
			d=" M 241.63 226.54 C 245.53 224.63 249.07 222.07 252.66 219.63 C 250.98 222.20 249.87 225.33 247.50 227.35 C 239.84 230.27 230.97 229.74 224.04 234.65 C 224.34 233.15 224.65 231.65 224.94 230.15 C 230.61 229.67 236.44 229.06 241.63 226.54 Z" />
		<path fill="#f0b58b" opacity="1.00"
			d=" M 620.13 320.41 C 628.52 304.14 639.22 289.16 651.34 275.46 C 655.46 284.02 659.44 292.97 666.20 299.82 C 669.60 303.43 674.72 304.06 679.06 305.97 C 685.33 309.00 691.17 312.88 696.47 317.40 C 711.24 329.26 723.95 343.38 737.58 356.48 C 745.58 364.87 754.88 371.81 763.81 379.13 C 767.70 382.19 769.86 386.95 774.07 389.64 C 774.20 388.73 774.44 386.90 774.56 385.99 C 781.37 386.96 788.28 387.09 795.07 388.20 C 803.79 389.51 811.25 394.74 817.96 400.15 C 823.45 404.92 828.79 409.90 833.54 415.42 C 834.98 417.28 836.89 419.25 836.81 421.78 C 835.67 425.23 834.07 428.88 831.02 431.05 C 827.42 432.95 822.88 433.55 819.28 431.32 C 820.70 428.95 824.02 427.24 823.74 424.17 C 822.67 420.42 819.40 417.33 815.53 416.66 C 806.75 415.03 797.78 415.66 788.93 416.06 C 786.30 416.12 783.79 416.90 781.46 418.05 C 787.77 419.85 794.10 421.54 800.40 423.37 C 807.13 425.21 813.11 429.57 817.06 435.31 C 811.29 435.88 805.67 434.27 800.08 433.16 C 794.40 431.94 788.75 430.60 783.07 429.41 C 779.97 428.68 776.56 428.15 774.19 425.84 C 769.02 421.03 767.43 413.61 762.24 408.83 C 753.52 400.05 741.73 395.59 730.85 390.17 C 721.70 386.07 712.94 381.11 703.67 377.25 C 694.50 373.21 685.00 370.01 675.74 366.20 C 666.47 362.19 658.53 355.61 651.49 348.47 C 649.49 346.49 647.49 344.48 645.27 342.75 C 636.16 336.15 628.66 327.68 620.13 320.41 Z" />
		<path fill="#f0b58b" opacity="1.00"
			d=" M 564.32 638.24 C 582.15 632.08 600.10 626.24 618.32 621.32 C 624.89 641.23 631.20 661.32 634.97 681.99 C 636.05 689.24 637.30 696.87 634.95 704.02 C 634.09 707.46 632.31 710.79 632.61 714.43 C 636.91 713.13 637.37 707.42 639.60 704.05 C 641.03 708.40 642.70 712.66 644.14 717.01 C 631.22 724.66 615.82 727.13 600.99 726.80 C 594.00 726.65 587.08 725.07 580.73 722.13 C 577.76 708.69 566.30 700.00 556.55 691.37 C 546.41 683.19 537.28 673.86 526.98 665.86 C 530.71 658.74 535.44 651.63 542.60 647.58 C 549.46 643.67 556.85 640.77 564.32 638.24 Z" />
		<path fill="#f0b58b" opacity="1.00"
			d=" M 327.24 662.09 C 346.36 667.99 364.99 675.59 384.50 680.21 C 396.91 682.70 409.51 684.88 422.22 684.53 C 418.50 707.28 417.05 730.40 411.95 752.91 C 408.90 766.69 398.92 777.66 388.00 786.00 C 384.68 789.06 379.77 787.92 375.78 787.17 C 361.05 783.21 349.79 771.57 342.11 758.86 C 337.03 750.32 333.16 740.87 331.82 730.99 C 331.57 721.01 332.27 711.00 331.44 701.03 C 330.88 687.96 327.62 675.17 327.24 662.09 Z" />
	</g>
	<g id="#f11b27ff">
		<path fill="var(--shirt-color, grey)" opacity="1.00"
			d=" M 341.15 109.45 C 347.98 107.72 355.21 108.10 361.95 110.07 C 372.38 112.87 381.34 119.28 391.61 122.51 C 399.51 125.17 408.54 126.03 414.80 132.13 C 422.63 139.75 425.99 150.56 429.67 160.56 C 433.05 169.84 433.88 179.85 437.47 189.04 C 439.78 184.67 438.10 179.68 437.49 175.12 C 434.52 159.78 430.27 143.90 419.95 131.73 C 431.41 137.42 444.48 135.97 456.81 135.37 C 456.09 147.89 455.53 160.50 456.90 172.99 C 458.66 188.86 461.46 204.76 467.23 219.71 C 470.17 226.88 473.64 234.01 478.88 239.80 C 483.85 235.41 487.49 229.82 491.95 224.96 C 502.41 213.74 512.42 202.11 522.27 190.35 C 529.86 181.76 532.78 169.64 542.04 162.45 C 551.32 167.43 562.94 169.45 569.48 178.42 C 579.32 192.38 584.26 209.08 593.72 223.26 C 594.45 224.09 595.73 226.25 596.95 224.81 C 596.29 220.21 593.58 216.28 591.92 212.02 C 587.62 201.52 582.83 191.22 577.38 181.26 C 585.33 183.21 593.89 185.06 600.02 190.90 C 607.91 198.35 612.64 208.38 616.67 218.29 C 620.67 227.49 624.31 236.92 629.52 245.53 C 635.25 254.75 644.72 260.48 653.39 266.58 C 642.90 276.76 633.43 288.05 625.21 300.14 C 621.46 305.97 618.02 312.05 615.69 318.60 C 605.61 312.26 593.94 308.37 582.00 308.04 C 569.67 307.65 557.17 309.27 545.55 313.50 C 538.09 316.16 531.36 320.44 524.80 324.79 C 523.19 326.07 520.45 327.45 521.43 329.94 C 528.02 327.72 533.66 323.38 539.94 320.44 C 537.68 331.48 532.26 341.49 529.12 352.27 C 526.80 360.27 526.12 368.66 526.27 376.97 C 526.36 383.05 526.13 389.37 523.13 394.84 C 514.37 392.44 506.29 388.03 498.54 383.39 C 493.09 380.26 488.56 375.43 482.37 373.72 C 484.83 378.14 489.03 381.08 493.00 384.00 C 500.33 389.27 507.84 394.45 516.28 397.77 C 518.73 398.54 519.67 401.10 520.88 403.11 C 526.32 412.95 531.36 423.51 531.83 434.95 C 532.13 440.37 530.65 445.67 528.74 450.69 C 520.96 451.35 513.73 448.03 506.68 445.25 C 484.13 436.25 467.79 417.64 449.47 402.50 C 438.65 393.70 429.62 383.03 419.95 373.04 C 408.57 359.29 399.47 343.83 390.56 328.40 C 381.92 313.60 374.34 298.20 365.30 283.62 C 357.60 269.85 349.96 256.02 341.00 243.02 C 337.66 238.32 334.90 233.11 330.54 229.24 C 330.99 233.67 333.69 237.31 335.87 241.04 C 340.88 249.15 345.84 257.29 350.50 265.61 C 356.01 275.41 361.13 285.44 367.07 295.00 C 376.05 311.28 384.75 327.72 394.26 343.71 C 403.93 359.57 414.19 375.38 427.79 388.19 C 440.44 401.25 454.43 412.91 468.03 424.94 C 480.91 436.48 495.50 446.56 512.12 451.83 C 505.15 452.81 498.64 455.54 492.15 458.11 C 482.40 462.23 472.79 466.66 463.35 471.45 C 454.21 475.77 444.42 480.75 433.97 478.90 C 418.07 476.39 403.48 468.97 389.24 461.81 C 374.96 454.22 361.34 445.35 348.74 435.21 C 341.86 429.66 337.00 421.70 335.68 412.91 C 331.58 388.19 337.21 363.39 340.22 338.89 C 342.11 329.89 343.62 320.82 344.29 311.64 C 347.63 318.57 351.52 325.22 355.21 331.98 C 362.47 345.98 369.88 359.91 376.85 374.06 C 378.47 377.17 379.93 380.73 383.28 382.36 C 382.11 376.82 379.54 371.74 377.40 366.54 C 373.20 356.40 367.99 346.72 362.93 337.00 C 356.45 324.07 348.41 311.81 343.93 297.97 C 340.15 286.54 338.86 274.51 336.05 262.84 C 333.21 251.11 331.70 238.81 326.04 227.99 C 321.16 219.50 314.01 212.44 305.97 206.93 C 314.82 201.98 324.40 197.88 331.88 190.86 C 337.30 185.60 340.72 178.73 344.09 172.08 C 347.85 164.23 351.62 155.91 351.25 147.00 C 350.84 133.84 344.87 121.84 341.15 109.45 Z" />
		<path fill="var(--shirt-color, grey)" opacity="1.00"
			d=" M 298.96 175.90 C 308.66 180.57 318.72 184.62 329.22 187.12 C 321.40 194.62 310.88 198.26 302.81 205.45 C 298.12 196.36 298.65 185.81 298.96 175.90 Z" />
	</g>
	<g id="#ffffffff">
		<path fill="var(--pants-color, grey)" opacity="1.00"
			d=" M 325.64 462.40 C 328.74 451.49 335.47 442.11 339.18 431.44 C 344.35 436.78 350.03 441.62 356.22 445.75 C 373.96 458.58 393.25 469.28 413.57 477.47 C 421.98 480.79 430.82 483.63 439.96 483.57 C 448.27 483.52 455.84 479.68 463.25 476.36 C 473.02 471.60 482.87 466.99 492.82 462.61 C 501.06 459.17 509.37 455.38 518.41 454.79 C 522.95 459.17 527.96 463.06 532.28 467.67 C 536.18 471.68 536.40 477.80 540.11 481.93 C 543.20 485.48 547.28 488.18 549.66 492.34 C 553.34 498.79 555.35 505.98 557.86 512.92 C 559.07 515.84 560.13 519.48 563.44 520.65 C 568.35 522.38 573.92 521.79 578.58 524.34 C 583.24 526.94 586.29 531.51 589.25 535.79 C 594.55 544.09 599.14 552.84 603.12 561.85 C 607.39 571.94 611.53 582.20 617.73 591.29 C 623.35 599.07 628.22 607.93 636.77 612.92 C 625.54 616.04 614.17 618.60 602.86 621.41 C 586.68 625.94 570.59 630.88 554.81 636.68 C 548.12 639.39 541.33 642.22 535.57 646.65 C 529.64 651.75 525.25 658.50 522.39 665.75 C 508.81 655.32 498.26 641.70 487.13 628.85 C 478.67 619.12 470.25 608.87 458.86 602.46 C 457.73 602.19 456.58 602.01 455.43 601.94 C 448.49 623.32 450.93 646.33 445.91 668.09 C 445.30 671.69 442.27 674.29 439.20 675.94 C 431.41 679.82 422.44 680.13 413.90 679.80 C 403.33 679.17 392.84 677.49 382.49 675.29 C 358.74 669.58 336.32 659.10 312.15 654.98 C 310.80 643.69 311.02 632.29 310.17 620.97 C 309.37 608.64 309.41 596.29 308.82 583.96 C 308.46 572.74 308.46 561.20 312.41 550.53 C 315.37 541.16 321.08 532.68 322.19 522.76 C 322.83 514.54 323.52 506.27 322.88 498.03 C 322.29 486.12 322.43 473.97 325.64 462.40 Z" />
		<path fill="var(--socks-color, grey)" opacity="1.00"
			d=" M 621.07 729.62 C 629.57 728.03 638.04 725.34 645.15 720.28 C 648.89 733.15 649.40 746.66 650.73 759.93 C 653.96 799.56 650.18 839.27 650.90 878.95 C 650.46 890.68 650.79 902.45 649.78 914.16 C 650.08 917.45 646.34 917.94 644.11 919.10 C 638.43 921.20 635.17 927.31 634.77 933.12 C 634.52 939.04 627.62 943.53 622.26 941.85 C 618.92 937.02 618.90 930.83 616.50 925.60 C 615.11 922.56 611.94 920.39 611.67 916.87 C 610.39 901.12 607.80 885.53 605.48 869.91 C 602.40 853.02 598.44 836.27 593.44 819.84 C 590.90 811.31 588.27 802.78 586.45 794.06 C 581.81 771.99 585.04 749.24 581.63 727.02 C 594.04 732.21 608.03 731.82 621.07 729.62 Z" />
		<path fill="var(--socks-color, grey)" opacity="1.00"
			d=" M 292.22 764.15 C 302.65 750.40 313.64 736.42 328.47 727.16 C 329.39 743.92 336.22 760.22 347.09 772.97 C 355.51 782.63 366.81 790.94 380.04 791.62 C 363.93 801.58 345.96 807.83 328.87 815.83 C 323.53 818.20 318.96 822.17 313.21 823.60 C 308.12 825.09 302.05 825.84 297.61 822.30 C 289.20 815.57 284.54 805.22 282.40 794.88 C 279.52 783.69 285.81 772.85 292.22 764.15 Z" />
	</g>
	<g id="#4d4d4dff">
		<path fill="#4d4d4d" opacity="1.00"
			d=" M 277.78 781.52 C 276.39 790.11 279.37 798.43 281.71 806.57 C 284.40 813.97 288.54 821.20 294.86 826.09 C 299.77 829.84 306.47 830.06 312.16 828.15 C 319.63 826.11 326.03 821.62 333.05 818.55 C 330.48 834.90 331.16 851.58 333.54 867.91 C 334.39 878.28 337.37 888.59 335.93 899.05 C 334.75 908.34 331.66 918.03 324.57 924.53 C 319.76 928.97 312.39 930.16 306.41 927.49 C 300.87 925.57 297.05 920.93 293.70 916.37 C 281.67 901.15 275.59 882.07 273.18 863.04 C 271.33 848.76 272.31 834.33 272.07 819.98 C 272.50 807.04 271.87 793.44 277.78 781.52 Z" />
		<path fill="#4d4d4d" opacity="1.00"
			d=" M 641.77 926.81 C 643.93 923.63 647.79 922.43 651.05 920.73 C 655.02 930.71 663.07 938.37 671.96 944.08 C 679.39 948.77 687.30 952.98 695.95 954.89 C 704.92 956.69 712.87 962.77 717.22 970.77 C 718.95 974.23 720.44 979.12 717.34 982.26 C 711.86 987.64 704.03 989.59 696.63 990.44 C 685.00 991.60 673.21 990.35 661.92 987.49 C 652.77 985.22 643.50 982.97 634.02 982.98 C 627.78 982.70 620.84 983.29 615.46 979.53 C 609.06 974.46 607.66 965.71 607.24 958.04 C 607.12 946.90 608.72 935.76 611.24 924.92 C 614.90 931.39 614.48 939.78 619.68 945.39 C 625.14 948.83 632.57 946.00 636.29 941.22 C 639.91 937.21 639.09 931.27 641.77 926.81 Z" />
	</g>
</svg>