<?xml version="1.0" encoding="UTF-8" ?>
<!DOCTYPE svg PUBLIC "-//W3C//DTD SVG 1.1//EN" "http://www.w3.org/Graphics/SVG/1.1/DTD/svg11.dtd">
<svg width="1000pt" height="1000pt" viewBox="0 0 1000 1000" version="1.1" xmlns="http://www.w3.org/2000/svg">
	<g id="#020202ff">
		<path fill="#020202" opacity="1.00"
			d=" M 346.78 90.81 C 356.14 81.00 369.18 73.97 382.96 73.96 C 398.14 74.12 413.56 79.75 424.28 90.69 C 434.86 101.49 440.61 116.18 442.77 130.97 C 445.56 150.32 442.83 170.19 436.54 188.62 C 434.81 194.79 432.72 200.86 430.08 206.71 C 451.68 208.30 472.84 213.16 494.31 215.80 C 510.37 217.63 527.62 219.06 541.07 228.98 C 550.12 235.86 550.50 248.11 554.12 258.00 C 559.57 275.98 570.95 291.81 585.42 303.66 C 592.55 309.11 599.35 315.00 605.48 321.57 C 608.99 325.74 611.15 330.84 613.19 335.85 C 617.65 346.92 617.88 359.09 617.56 370.84 C 616.51 391.10 613.72 411.27 609.17 431.04 C 606.08 444.92 602.46 458.69 599.87 472.68 C 598.51 488.05 599.89 503.82 595.56 518.83 C 593.50 525.68 592.62 533.29 587.90 538.97 C 585.12 542.20 581.04 543.75 577.20 545.29 C 586.12 557.30 594.07 570.07 600.40 583.64 C 609.71 602.62 617.46 622.34 623.60 642.57 C 624.85 646.64 626.98 650.37 628.70 654.25 C 636.11 671.02 640.71 688.82 646.48 706.18 C 674.81 717.60 697.72 740.41 711.63 767.38 C 719.84 782.29 725.24 798.49 731.81 814.14 C 740.06 834.90 748.33 855.70 758.52 875.61 C 760.71 879.54 762.19 884.46 766.60 886.49 C 781.78 895.09 796.54 904.41 811.40 913.56 C 819.36 917.87 827.16 923.21 832.09 930.98 C 835.25 935.81 835.21 942.13 833.38 947.44 C 829.71 955.13 822.35 960.16 814.94 963.84 C 808.80 967.16 801.85 968.56 794.97 969.24 C 787.24 969.80 780.20 965.36 775.14 959.87 C 771.99 956.67 769.14 953.13 765.51 950.45 C 761.10 947.11 754.66 949.26 750.51 945.42 C 745.45 940.98 742.91 934.55 740.48 928.45 C 737.87 921.74 734.59 915.29 730.73 909.23 C 727.85 905.78 724.36 902.91 721.49 899.47 C 714.06 891.45 709.04 881.58 701.72 873.48 C 686.28 856.10 671.36 838.23 657.16 819.82 C 649.00 809.13 639.66 799.44 631.22 788.98 C 624.44 780.36 617.22 772.03 611.70 762.51 C 599.67 760.72 590.83 751.44 583.40 742.55 C 570.75 726.93 560.87 709.29 552.02 691.31 C 546.31 693.31 540.63 695.45 535.29 698.31 C 531.72 700.03 528.42 702.32 524.68 703.66 C 522.40 704.60 520.79 702.12 519.23 700.88 C 507.56 689.39 503.82 672.74 494.12 659.88 C 487.93 651.51 481.06 643.67 474.57 635.54 C 467.39 626.84 460.93 616.99 451.21 610.89 C 440.40 616.28 431.86 625.04 423.36 633.41 C 413.24 644.07 404.00 655.55 395.31 667.40 C 391.83 672.31 388.33 677.25 385.75 682.71 C 384.95 684.20 384.26 686.40 382.13 686.15 C 374.32 686.47 366.60 684.66 358.78 684.64 C 352.35 690.48 345.22 695.45 338.34 700.72 C 344.42 710.38 353.02 718.07 359.49 727.43 C 367.40 738.18 372.57 750.68 376.42 763.39 C 382.68 783.54 383.47 804.77 386.62 825.51 C 388.34 838.80 391.99 851.73 395.62 864.61 C 397.38 871.06 400.43 877.04 402.81 883.28 C 409.75 900.44 415.95 918.36 416.35 937.07 C 416.71 949.30 416.64 962.80 409.18 973.16 C 405.67 978.42 399.12 980.63 393.04 980.65 C 385.28 980.47 377.67 978.63 369.92 978.27 C 362.74 977.96 355.44 978.00 348.44 979.81 C 334.57 983.30 320.32 987.47 305.88 985.58 C 297.82 984.66 289.90 982.62 282.33 979.71 C 275.28 977.03 269.49 972.01 263.95 967.05 C 261.19 964.31 257.33 961.45 258.09 957.02 C 258.95 949.82 266.16 945.90 272.06 943.07 C 285.24 936.50 300.19 934.76 313.43 928.38 C 320.99 924.62 327.42 919.02 334.59 914.61 C 338.86 911.98 342.85 908.86 346.14 905.06 C 339.52 888.62 332.86 872.19 326.35 855.71 C 321.64 843.67 315.68 832.18 310.69 820.27 C 303.54 802.53 295.91 784.99 288.70 767.27 C 285.94 761.07 284.27 754.47 281.85 748.15 C 278.65 741.25 275.84 734.02 270.97 728.08 C 264.37 719.45 255.40 710.73 255.89 699.00 C 256.81 678.78 264.08 659.50 272.40 641.28 C 270.60 640.98 268.81 640.72 267.02 640.45 C 268.03 633.76 272.15 628.22 275.56 622.57 C 282.05 612.03 290.16 602.61 298.43 593.47 C 299.31 592.91 299.87 592.14 300.11 591.14 C 302.13 587.15 304.85 583.48 306.19 579.16 C 311.80 561.87 321.60 546.17 333.47 532.50 C 338.80 525.76 345.48 519.86 348.73 511.72 C 345.82 508.43 344.12 503.50 346.33 499.38 C 349.90 493.15 355.20 488.09 360.78 483.66 C 361.37 471.44 361.86 459.20 361.91 446.97 C 362.14 435.99 362.47 424.98 361.44 414.04 C 360.87 407.40 357.04 401.75 353.98 396.04 C 350.32 390.00 347.08 383.71 344.35 377.20 C 338.21 386.89 329.64 395.64 318.55 399.37 C 317.93 407.05 317.12 414.91 313.92 422.01 C 307.40 436.57 296.82 448.68 287.24 461.24 C 283.26 466.75 278.82 472.42 277.89 479.37 C 282.83 485.62 286.18 493.15 287.34 501.04 C 288.11 505.34 284.45 509.88 279.97 509.45 C 275.53 509.28 273.53 504.77 271.50 501.53 C 265.48 506.56 261.62 513.73 260.02 521.36 C 261.46 524.46 263.21 527.59 263.42 531.08 C 263.56 533.09 262.11 535.14 260.00 535.23 C 256.61 535.64 253.89 533.19 251.25 531.48 C 254.35 535.77 257.78 539.80 261.35 543.69 C 264.05 546.74 266.91 550.63 265.95 554.96 C 265.38 557.20 262.95 557.91 261.16 558.92 C 259.70 560.56 258.37 562.77 255.97 563.05 C 252.47 563.59 249.19 561.61 246.65 559.40 C 241.59 554.85 237.73 549.00 235.33 542.65 C 232.70 535.61 232.62 527.99 231.18 520.69 C 229.94 513.99 229.13 506.65 232.28 500.33 C 235.03 495.21 238.80 490.71 241.52 485.57 C 247.05 474.63 250.93 462.74 252.21 450.53 C 252.92 438.32 253.65 426.09 255.42 413.98 C 256.78 403.99 257.64 393.59 262.51 384.55 C 265.23 378.82 269.90 374.44 274.33 370.03 C 271.82 367.86 269.35 365.63 267.14 363.16 C 269.73 357.36 274.14 352.34 275.27 345.93 C 277.55 333.41 276.57 320.63 276.64 307.98 C 276.83 296.27 276.51 284.42 278.97 272.89 C 281.51 260.02 289.18 248.52 299.33 240.36 C 307.36 234.49 316.68 230.50 326.35 228.24 C 334.16 225.83 342.02 223.13 348.96 218.72 C 344.71 209.78 341.72 200.35 338.87 190.89 C 331.75 171.15 327.72 149.88 330.14 128.89 C 331.96 115.02 336.92 101.03 346.78 90.81 M 410.22 111.05 C 411.84 118.97 411.53 127.22 409.09 134.94 C 404.44 127.12 397.81 120.60 390.24 115.61 C 393.11 121.57 391.08 128.12 388.88 133.93 C 386.20 129.71 384.11 125.03 380.50 121.50 C 378.33 119.35 376.04 117.31 373.78 115.26 C 374.87 121.51 374.51 127.97 371.55 133.68 C 365.40 127.48 359.15 121.29 351.84 116.45 C 349.51 128.31 347.11 140.20 346.61 152.31 C 356.71 151.65 366.93 150.58 377.02 151.93 C 379.59 155.19 378.78 159.80 378.92 163.69 C 367.28 164.66 355.58 165.10 343.90 165.15 C 341.95 170.33 338.94 175.85 340.82 181.52 C 345.45 199.33 350.74 217.83 362.78 232.20 C 366.63 237.34 373.07 239.26 379.00 240.82 C 389.93 243.38 401.62 239.34 409.41 231.45 C 416.73 224.10 422.87 215.17 426.09 205.27 C 426.47 197.12 428.09 189.07 428.38 180.92 C 428.61 175.75 424.38 172.25 422.06 168.08 C 420.24 165.62 418.80 161.51 415.02 162.09 C 406.17 162.55 397.45 164.79 388.53 164.40 C 389.74 160.28 391.42 156.27 393.74 152.64 C 395.21 150.32 398.27 150.32 400.67 149.75 C 410.23 148.33 419.77 146.81 429.32 145.36 C 431.78 141.58 434.31 137.85 436.61 133.97 C 428.60 125.46 419.69 117.87 410.22 111.05 M 415.66 231.60 C 409.30 238.76 400.75 244.43 391.13 245.80 C 382.56 247.10 373.96 244.41 366.39 240.56 C 360.07 237.07 356.11 230.75 352.21 224.91 C 349.25 237.61 351.32 253.38 362.41 261.67 C 367.36 265.80 374.01 266.14 379.91 268.05 C 386.51 270.05 393.32 271.94 399.05 275.92 C 403.02 278.50 406.03 282.25 408.66 286.13 C 415.65 272.86 426.24 262.12 435.95 250.88 C 440.77 245.45 440.75 237.41 439.19 230.71 C 437.63 223.08 432.78 216.82 428.62 210.44 C 425.16 217.96 421.22 225.40 415.66 231.60 M 434.51 210.99 C 438.09 216.14 441.70 221.46 443.25 227.64 C 445.57 235.52 445.81 244.88 440.76 251.78 C 430.92 263.32 419.41 273.72 412.24 287.28 C 411.11 289.01 410.52 291.78 407.99 291.78 C 404.61 288.53 402.68 284.02 398.94 281.10 C 392.92 276.28 385.31 274.08 377.97 272.18 C 368.24 270.22 358.24 265.93 352.53 257.42 C 346.23 247.66 345.05 235.22 347.75 224.07 C 336.13 230.93 322.36 232.36 310.45 238.51 C 295.79 245.38 285.65 260.27 283.14 276.09 C 279.51 298.56 283.41 321.46 280.30 343.97 C 279.49 351.05 275.56 357.18 271.22 362.64 C 273.73 364.49 276.17 366.44 278.56 368.45 C 288.55 376.71 299.39 383.84 310.45 390.59 C 313.61 392.29 317.09 396.28 320.89 393.92 C 330.13 389.18 337.18 380.87 342.07 371.85 C 340.23 366.89 338.31 361.93 335.60 357.38 C 333.10 353.04 329.41 349.60 326.13 345.87 C 320.46 339.84 314.83 333.65 307.99 328.92 C 304.97 326.75 301.22 325.49 299.02 322.32 C 309.42 323.25 317.30 331.21 324.25 338.26 C 320.60 331.74 317.71 324.77 313.22 318.75 C 310.57 314.92 306.99 311.71 305.14 307.36 C 306.87 307.97 308.70 308.56 310.09 309.82 C 314.82 313.82 319.00 318.56 321.91 324.07 C 326.91 333.58 331.98 343.08 337.72 352.18 C 341.47 357.89 344.20 364.18 346.56 370.57 C 350.61 381.12 356.47 390.80 361.82 400.71 C 369.12 399.33 376.46 397.49 383.95 397.81 C 391.42 398.32 398.61 400.60 405.90 402.15 C 411.88 403.76 418.20 404.43 423.75 407.34 C 421.18 407.95 418.53 408.12 415.94 407.60 C 406.59 405.96 397.36 403.67 387.96 402.32 C 379.83 401.07 371.57 402.30 363.57 403.87 C 367.72 414.39 366.69 425.97 366.91 437.04 C 366.97 452.84 366.49 468.64 365.68 484.42 C 373.05 486.22 379.35 490.56 385.99 494.03 C 393.49 498.12 401.41 501.70 409.88 503.18 C 416.33 504.42 422.91 503.76 429.42 503.75 C 427.58 505.30 425.43 506.53 422.98 506.61 C 414.44 507.28 405.61 507.26 397.41 504.51 C 387.89 501.43 379.50 495.86 370.69 491.28 C 368.12 490.15 365.23 488.51 362.36 489.30 C 358.09 492.37 354.67 496.47 351.33 500.49 C 349.41 502.50 349.57 505.34 349.57 507.91 C 353.95 508.62 358.51 508.62 362.70 510.25 C 377.83 515.82 391.29 525.02 406.41 530.63 C 428.22 538.68 451.96 542.45 475.08 539.02 C 489.64 536.90 503.15 530.66 516.19 524.13 C 521.85 521.31 528.06 519.29 534.47 519.74 C 540.13 511.55 545.79 503.24 549.88 494.13 C 542.63 499.04 537.22 506.16 530.05 511.14 C 528.01 512.60 524.33 513.71 522.92 510.87 C 521.55 507.75 523.20 504.43 524.61 501.65 C 530.10 491.63 537.08 482.27 545.97 475.02 C 548.45 472.85 551.59 471.74 554.77 471.07 C 551.08 460.77 550.69 449.72 549.05 438.99 C 547.94 426.16 545.24 413.47 545.24 400.55 C 541.94 410.41 536.99 419.64 531.37 428.36 C 529.56 431.21 527.18 433.71 524.14 435.25 C 525.23 432.15 526.77 429.24 528.41 426.41 C 535.02 414.82 541.16 402.81 544.80 389.92 C 546.18 382.17 545.26 374.18 543.86 366.49 C 541.20 376.43 537.01 385.88 531.79 394.73 C 523.66 408.46 514.45 421.75 502.82 432.77 C 499.73 435.35 496.84 439.21 492.54 439.43 L 492.41 437.99 C 494.30 435.07 497.17 433.00 499.61 430.57 C 508.46 422.29 516.12 412.80 522.65 402.61 C 529.46 392.00 535.87 380.97 539.92 368.98 C 540.75 366.17 541.97 363.09 540.64 360.24 C 537.43 351.85 534.77 343.03 529.15 335.87 C 525.08 330.84 520.58 325.92 514.77 322.89 C 512.89 328.67 513.27 334.76 512.87 340.72 C 510.13 341.45 509.75 337.91 509.35 336.01 C 507.90 324.00 514.32 313.23 518.39 302.41 C 520.50 297.24 521.57 291.74 523.49 286.52 C 523.85 286.40 524.59 286.16 524.96 286.04 C 525.90 288.08 525.78 290.37 525.32 292.52 C 523.45 301.41 520.47 310.04 516.56 318.24 C 528.08 324.88 536.98 335.94 541.52 348.41 C 544.51 356.34 547.01 364.56 551.60 371.77 C 557.97 370.19 564.46 368.61 570.18 365.24 C 584.60 357.56 594.65 344.28 606.97 333.92 C 605.88 330.61 604.96 327.08 602.47 324.50 C 597.28 319.02 591.82 313.76 585.76 309.25 C 577.97 303.45 571.19 296.41 565.25 288.75 C 555.56 276.56 550.12 261.70 546.03 246.84 C 544.69 241.88 542.82 236.66 538.64 233.38 C 527.79 225.39 513.98 223.16 500.91 221.63 C 478.61 219.11 456.73 214.00 434.51 210.99 M 578.83 365.68 C 579.57 373.20 576.62 380.30 575.29 387.57 C 573.70 395.94 573.01 404.48 572.87 413.00 C 572.46 429.99 575.61 447.23 571.70 464.01 C 570.91 469.07 567.12 473.49 562.24 475.03 C 558.77 476.29 554.86 475.80 551.53 477.44 C 546.87 480.33 543.29 484.59 539.69 488.65 C 534.64 494.78 529.74 501.19 526.51 508.49 C 533.94 503.38 539.55 495.98 547.32 491.31 C 548.76 490.48 550.66 489.71 552.20 490.80 C 554.03 493.11 553.11 496.37 552.10 498.84 C 549.03 505.31 545.43 511.53 541.39 517.44 C 537.00 523.96 532.25 530.40 529.66 537.90 C 534.78 534.78 538.92 530.41 543.20 526.27 C 549.41 520.39 554.48 513.46 559.46 506.55 C 561.12 504.30 562.65 501.81 565.13 500.35 C 565.97 501.36 566.05 502.39 565.38 503.45 C 561.76 510.32 557.19 516.63 553.27 523.33 C 547.39 532.80 538.49 540.78 535.72 551.91 C 541.27 549.40 545.10 544.51 549.50 540.49 C 558.33 532.36 565.51 522.50 570.81 511.74 C 571.88 509.56 572.95 507.21 575.28 506.10 C 573.22 517.30 567.07 527.26 560.01 536.01 C 555.70 541.37 550.36 545.75 545.43 550.51 C 544.24 551.50 544.12 553.13 543.60 554.49 C 546.28 553.79 548.92 552.81 551.17 551.15 C 561.92 543.23 570.53 532.74 577.46 521.39 C 579.58 518.32 581.02 514.58 584.29 512.50 C 584.70 515.84 583.16 518.87 581.76 521.79 C 580.31 524.64 580.46 528.00 579.09 530.88 C 577.53 533.70 574.68 535.39 572.22 537.32 C 569.82 539.13 567.99 541.54 565.99 543.75 C 571.91 541.57 578.48 540.48 583.58 536.54 C 588.38 532.20 589.44 525.41 591.44 519.55 C 597.32 501.90 593.09 482.85 597.55 464.95 C 602.63 440.62 609.36 416.57 611.82 391.77 C 613.65 373.48 615.66 354.38 609.77 336.58 C 599.52 346.34 590.41 357.40 578.83 365.68 M 548.70 375.01 C 550.02 387.97 548.39 401.05 550.12 413.98 C 552.31 429.22 553.86 444.53 556.10 459.76 C 556.76 463.63 557.85 467.41 558.87 471.20 C 560.94 470.52 563.00 469.82 565.05 469.07 C 570.86 455.15 568.94 439.69 568.20 425.05 C 567.58 410.09 568.21 394.87 572.25 380.38 C 573.40 376.23 574.49 372.07 575.24 367.83 C 567.15 372.20 558.13 376.29 548.70 375.01 M 277.76 373.00 C 274.38 376.20 270.43 378.96 268.03 383.03 C 264.47 388.75 262.28 395.25 261.31 401.91 C 259.09 416.87 257.38 431.91 256.69 447.02 C 256.23 460.88 251.64 474.24 245.61 486.60 C 241.81 493.93 235.48 500.32 234.79 508.94 C 234.44 522.48 240.21 535.64 249.39 545.45 C 253.08 549.24 256.72 555.13 262.74 554.63 C 261.12 546.38 253.01 541.93 249.17 534.86 C 243.68 525.03 239.17 513.53 241.61 502.12 C 241.63 500.64 243.17 500.15 244.11 499.35 C 244.80 505.10 243.81 511.20 246.42 516.59 C 249.31 522.46 253.54 527.95 259.25 531.30 C 256.96 522.66 249.19 515.51 250.42 506.06 C 251.08 499.75 256.38 495.57 261.25 492.25 C 263.85 490.39 267.67 489.43 270.44 491.50 C 274.85 494.89 275.30 501.14 279.24 504.90 C 281.77 505.88 283.53 503.35 282.62 501.05 C 280.47 492.56 276.81 483.84 269.65 478.38 C 268.31 477.12 266.12 475.95 266.60 473.74 C 269.70 472.91 272.54 474.62 274.96 476.34 C 276.42 470.41 279.67 465.16 283.12 460.20 C 292.94 446.51 304.54 433.76 311.03 418.00 C 313.56 411.78 313.83 405.00 315.01 398.46 C 302.05 390.81 289.11 382.98 277.76 373.00 M 255.57 504.35 C 253.75 508.71 256.03 513.18 257.67 517.18 C 259.61 509.54 263.73 502.35 270.23 497.71 C 268.89 496.37 267.53 493.49 265.24 494.92 C 261.39 497.21 257.36 500.09 255.57 504.35 M 336.19 537.14 C 327.74 547.13 320.59 558.23 315.14 570.13 C 312.34 576.19 310.96 582.84 307.63 588.67 C 303.29 596.37 297.05 602.71 291.39 609.42 C 283.91 618.18 277.71 627.92 271.30 637.47 C 281.23 636.77 291.12 638.42 300.80 640.49 C 308.72 642.25 316.67 643.95 324.39 646.46 C 339.48 651.21 354.52 657.19 367.05 667.07 C 368.72 668.41 370.63 670.37 369.82 672.73 C 368.35 675.65 365.90 677.92 363.79 680.37 C 370.01 680.77 376.17 681.81 382.39 682.10 C 385.37 674.65 389.98 668.02 394.66 661.57 C 405.55 646.72 417.33 632.39 431.21 620.21 C 437.36 614.74 443.93 609.11 452.09 607.02 C 453.70 606.46 454.98 608.03 456.25 608.77 C 466.56 617.11 474.27 628.00 482.84 637.99 C 489.92 646.75 497.56 655.14 503.38 664.83 C 507.77 672.54 511.00 680.86 515.46 688.54 C 517.89 692.49 520.53 696.31 523.09 700.18 C 529.73 696.26 536.47 692.41 543.78 689.87 C 553.03 686.71 562.16 682.87 570.18 677.19 C 582.00 669.07 591.73 657.84 605.04 651.97 C 610.33 649.55 616.28 649.27 621.99 649.82 C 619.08 642.57 617.02 635.02 614.20 627.74 C 608.95 612.30 602.14 597.46 594.97 582.83 C 588.98 570.10 581.34 558.24 573.91 546.33 C 570.21 547.45 566.53 548.61 562.79 549.57 C 556.08 550.54 551.91 557.49 544.85 557.56 C 542.58 557.90 541.84 555.65 541.08 554.03 C 538.15 556.02 532.80 556.47 532.11 551.99 C 531.69 545.87 535.96 540.63 539.31 535.87 C 536.45 538.21 533.49 540.70 529.93 541.85 C 527.64 542.42 525.61 540.28 525.84 538.06 C 526.42 532.58 529.69 527.92 532.16 523.14 C 523.21 524.69 515.46 529.63 507.20 533.08 C 497.53 537.36 487.54 541.22 477.05 542.92 C 458.19 545.85 438.76 544.44 420.37 539.40 C 405.53 535.69 391.67 529.02 378.27 521.78 C 370.27 517.81 362.11 513.27 353.04 512.57 C 349.92 522.28 342.37 529.37 336.19 537.14 M 237.64 536.20 C 240.25 544.33 244.75 552.13 251.58 557.42 C 253.32 558.95 255.64 558.81 257.77 558.45 C 249.32 552.87 242.84 544.79 237.64 536.20 M 260.61 701.05 C 261.70 712.09 271.00 719.53 276.73 728.32 C 280.92 734.26 283.27 741.20 286.33 747.73 C 293.00 745.92 299.09 742.56 305.00 739.07 C 318.07 731.27 330.38 722.19 341.73 712.06 C 339.49 709.07 337.42 705.95 335.71 702.63 C 331.58 705.84 327.25 708.80 323.36 712.30 C 321.00 714.34 318.77 716.77 315.59 717.46 C 316.06 715.29 316.98 713.22 318.59 711.67 C 323.68 706.37 329.09 701.37 335.02 697.02 C 345.37 688.90 357.14 682.24 365.21 671.57 C 350.04 659.98 331.86 653.26 313.64 648.17 C 301.39 645.24 289.13 641.97 276.52 641.13 C 269.59 660.56 260.78 680.05 260.61 701.05 M 606.88 655.80 C 596.05 660.61 587.68 669.24 578.45 676.42 C 571.49 681.94 563.79 686.50 555.56 689.87 C 564.99 706.93 574.46 724.09 586.59 739.43 C 592.30 746.36 598.64 753.26 607.05 756.90 C 611.87 759.38 617.58 757.74 622.52 759.83 C 621.66 762.68 618.23 761.92 615.96 762.54 C 617.22 764.31 618.44 766.09 619.69 767.87 C 631.45 764.75 642.89 759.24 651.06 750.01 C 658.82 741.74 663.81 730.16 661.40 718.72 C 656.94 715.83 652.41 713.06 647.79 710.45 C 649.65 718.43 650.64 727.01 648.01 734.94 C 647.50 734.92 646.49 734.87 645.98 734.85 C 644.95 726.14 645.28 717.17 642.37 708.75 C 636.50 690.21 630.88 671.57 624.03 653.36 C 618.25 653.30 612.24 653.31 606.88 655.80 M 309.12 741.12 C 302.23 745.15 295.20 749.39 287.26 750.93 C 292.15 764.70 298.12 778.04 303.70 791.54 C 308.73 802.60 312.83 814.05 317.88 825.11 C 322.05 834.56 326.71 843.79 330.37 853.47 C 336.73 870.12 343.71 886.53 349.24 903.49 C 355.12 905.67 362.83 904.61 367.11 909.95 C 370.97 915.99 365.43 922.57 365.81 928.98 C 371.45 929.96 377.20 929.76 382.88 929.31 C 388.73 928.69 394.96 927.54 399.51 923.52 C 405.98 917.31 408.15 906.76 404.57 898.52 C 401.15 889.45 397.36 880.52 393.70 871.55 C 390.08 861.08 387.26 850.35 384.80 839.56 C 381.95 825.54 380.58 811.28 378.57 797.12 C 376.68 778.48 372.14 759.97 363.87 743.09 C 358.83 732.42 351.06 723.42 343.57 714.42 C 333.44 724.92 321.45 733.42 309.12 741.12 M 666.43 722.07 C 667.73 733.74 662.43 745.19 654.50 753.50 C 645.88 762.48 634.43 769.09 622.03 770.94 C 629.50 780.12 636.62 789.59 644.61 798.34 C 656.05 810.70 665.98 824.34 676.79 837.23 C 687.84 850.16 698.37 863.54 709.64 876.27 C 715.31 883.33 719.94 891.20 726.25 897.75 C 731.02 902.73 735.65 908.31 742.10 911.16 C 744.61 912.21 749.22 911.51 749.16 908.08 C 748.68 903.17 747.76 897.42 751.32 893.37 C 753.58 890.50 757.39 890.06 760.75 889.49 C 748.35 869.10 739.19 846.98 730.41 824.87 C 720.99 801.73 713.05 777.72 699.40 756.61 C 690.60 743.24 679.36 731.49 666.43 722.07 M 754.90 895.87 C 750.65 900.90 756.32 908.66 751.44 913.43 C 748.13 916.81 743.03 916.22 738.90 915.00 C 744.01 923.21 746.24 933.07 752.60 940.49 C 754.89 943.49 759.00 942.99 762.29 943.88 C 768.89 945.13 773.11 950.87 777.50 955.42 C 781.71 960.19 787.20 964.67 793.85 964.86 C 804.74 965.00 815.20 960.21 823.53 953.46 C 828.02 949.56 832.53 943.59 830.56 937.33 C 828.09 930.80 822.64 925.90 816.99 922.06 C 799.97 912.12 783.30 901.55 766.86 890.66 C 763.98 894.57 758.33 892.93 754.90 895.87 M 326.83 924.79 C 319.02 930.84 309.95 935.06 300.44 937.64 C 288.98 940.72 277.13 943.57 267.09 950.18 C 264.89 951.87 262.02 953.93 262.12 957.00 C 262.64 960.18 265.27 962.41 267.40 964.62 C 272.34 969.19 277.62 973.72 284.09 975.96 C 292.39 978.92 301.06 980.97 309.87 981.59 C 317.71 982.17 325.48 980.67 333.12 979.09 C 341.44 977.42 349.49 974.30 358.04 973.84 C 368.78 972.89 379.49 974.57 390.08 976.17 C 394.78 977.08 400.08 976.06 403.38 972.38 C 408.36 966.85 410.29 959.31 411.02 952.07 C 412.16 940.39 411.47 928.60 409.80 917.01 C 406.87 922.67 402.92 928.21 396.96 930.94 C 388.89 934.59 379.75 934.78 371.04 934.39 C 367.91 934.03 363.81 933.93 362.13 930.76 C 360.28 926.35 362.68 921.75 363.49 917.39 C 363.86 915.51 364.51 912.78 362.33 911.75 C 357.91 909.70 352.96 909.23 348.34 907.78 C 342.72 915.24 334.01 919.13 326.83 924.79 Z" />
		<path fill="#020202" opacity="1.00"
			d=" M 384.10 184.26 C 386.03 179.51 386.16 174.28 387.89 169.47 C 389.89 173.31 390.13 177.70 390.70 181.92 C 391.40 188.08 392.16 194.33 391.53 200.54 C 390.05 201.78 388.98 199.77 387.83 199.07 C 385.07 196.46 380.97 196.65 377.58 195.39 C 379.77 191.69 382.57 188.32 384.10 184.26 Z" />
		<path fill="#020202" opacity="1.00"
			d=" M 479.71 444.73 C 481.57 443.92 483.76 442.17 485.66 443.90 C 483.87 447.18 480.04 448.37 477.03 450.23 C 463.88 457.56 448.86 460.49 434.01 461.84 C 428.48 462.30 422.82 462.20 417.49 460.55 C 422.61 459.87 427.79 460.02 432.92 459.45 C 449.26 457.55 465.27 452.64 479.71 444.73 Z" />
	</g>
	<g id="#f0b58bff">
		<path fill="#f0b58b" opacity="1.00"
			d=" M 410.22 111.05 C 419.69 117.87 428.60 125.46 436.61 133.97 C 434.31 137.85 431.78 141.58 429.32 145.36 C 419.77 146.81 410.23 148.33 400.67 149.75 C 398.27 150.32 395.21 150.32 393.74 152.64 C 391.42 156.27 389.74 160.28 388.53 164.40 C 397.45 164.79 406.17 162.55 415.02 162.09 C 418.80 161.51 420.24 165.62 422.06 168.08 C 424.38 172.25 428.61 175.75 428.38 180.92 C 428.09 189.07 426.47 197.12 426.09 205.27 C 422.87 215.17 416.73 224.10 409.41 231.45 C 401.62 239.34 389.93 243.38 379.00 240.82 C 373.07 239.26 366.63 237.34 362.78 232.20 C 350.74 217.83 345.45 199.33 340.82 181.52 C 338.94 175.85 341.95 170.33 343.90 165.15 C 355.58 165.10 367.28 164.66 378.92 163.69 C 378.78 159.80 379.59 155.19 377.02 151.93 C 366.93 150.58 356.71 151.65 346.61 152.31 C 347.11 140.20 349.51 128.31 351.84 116.45 C 359.15 121.29 365.40 127.48 371.55 133.68 C 374.51 127.97 374.87 121.51 373.78 115.26 C 376.04 117.31 378.33 119.35 380.50 121.50 C 384.11 125.03 386.20 129.71 388.88 133.93 C 391.08 128.12 393.11 121.57 390.24 115.61 C 397.81 120.60 404.44 127.12 409.09 134.94 C 411.53 127.22 411.84 118.97 410.22 111.05 M 384.10 184.26 C 382.57 188.32 379.77 191.69 377.58 195.39 C 380.97 196.65 385.07 196.46 387.83 199.07 C 388.98 199.77 390.05 201.78 391.53 200.54 C 392.16 194.33 391.40 188.08 390.70 181.92 C 390.13 177.70 389.89 173.31 387.89 169.47 C 386.16 174.28 386.03 179.51 384.10 184.26 Z" />
		<path fill="#f0b58b" opacity="1.00"
			d=" M 415.66 231.60 C 421.22 225.40 425.16 217.96 428.62 210.44 C 432.78 216.82 437.63 223.08 439.19 230.71 C 440.75 237.41 440.77 245.45 435.95 250.88 C 426.24 262.12 415.65 272.86 408.66 286.13 C 406.03 282.25 403.02 278.50 399.05 275.92 C 393.32 271.94 386.51 270.05 379.91 268.05 C 374.01 266.14 367.36 265.80 362.41 261.67 C 351.32 253.38 349.25 237.61 352.21 224.91 C 356.11 230.75 360.07 237.07 366.39 240.56 C 373.96 244.41 382.56 247.10 391.13 245.80 C 400.75 244.43 409.30 238.76 415.66 231.60 Z" />
		<path fill="#f0b58b" opacity="1.00"
			d=" M 578.83 365.68 C 590.41 357.40 599.52 346.34 609.77 336.58 C 615.66 354.38 613.65 373.48 611.82 391.77 C 609.36 416.57 602.63 440.62 597.55 464.95 C 593.09 482.85 597.32 501.90 591.44 519.55 C 589.44 525.41 588.38 532.20 583.58 536.54 C 578.48 540.48 571.91 541.57 565.99 543.75 C 567.99 541.54 569.82 539.13 572.22 537.32 C 574.68 535.39 577.53 533.70 579.09 530.88 C 580.46 528.00 580.31 524.64 581.76 521.79 C 583.16 518.87 584.70 515.84 584.29 512.50 C 581.02 514.58 579.58 518.32 577.46 521.39 C 570.53 532.74 561.92 543.23 551.17 551.15 C 548.92 552.81 546.28 553.79 543.60 554.49 C 544.12 553.13 544.24 551.50 545.43 550.51 C 550.36 545.75 555.70 541.37 560.01 536.01 C 567.07 527.26 573.22 517.30 575.28 506.10 C 572.95 507.21 571.88 509.56 570.81 511.74 C 565.51 522.50 558.33 532.36 549.50 540.49 C 545.10 544.51 541.27 549.40 535.72 551.91 C 538.49 540.78 547.39 532.80 553.27 523.33 C 557.19 516.63 561.76 510.32 565.38 503.45 C 566.05 502.39 565.97 501.36 565.13 500.35 C 562.65 501.81 561.12 504.30 559.46 506.55 C 554.48 513.46 549.41 520.39 543.20 526.27 C 538.92 530.41 534.78 534.78 529.66 537.90 C 532.25 530.40 537.00 523.96 541.39 517.44 C 545.43 511.53 549.03 505.31 552.10 498.84 C 553.11 496.37 554.03 493.11 552.20 490.80 C 550.66 489.71 548.76 490.48 547.32 491.31 C 539.55 495.98 533.94 503.38 526.51 508.49 C 529.74 501.19 534.64 494.78 539.69 488.65 C 543.29 484.59 546.87 480.33 551.53 477.44 C 554.86 475.80 558.77 476.29 562.24 475.03 C 567.12 473.49 570.91 469.07 571.70 464.01 C 575.61 447.23 572.46 429.99 572.87 413.00 C 573.01 404.48 573.70 395.94 575.29 387.57 C 576.62 380.30 579.57 373.20 578.83 365.68 Z" />
		<path fill="#f0b58b" opacity="1.00"
			d=" M 277.76 373.00 C 289.11 382.98 302.05 390.81 315.01 398.46 C 313.83 405.00 313.56 411.78 311.03 418.00 C 304.54 433.76 292.94 446.51 283.12 460.20 C 279.67 465.16 276.42 470.41 274.96 476.34 C 272.54 474.62 269.70 472.91 266.60 473.74 C 266.12 475.95 268.31 477.12 269.65 478.38 C 276.81 483.84 280.47 492.56 282.62 501.05 C 283.53 503.35 281.77 505.88 279.24 504.90 C 275.30 501.14 274.85 494.89 270.44 491.50 C 267.67 489.43 263.85 490.39 261.25 492.25 C 256.38 495.57 251.08 499.75 250.42 506.06 C 249.19 515.51 256.96 522.66 259.25 531.30 C 253.54 527.95 249.31 522.46 246.42 516.59 C 243.81 511.20 244.80 505.10 244.11 499.35 C 243.17 500.15 241.63 500.64 241.61 502.12 C 239.17 513.53 243.68 525.03 249.17 534.86 C 253.01 541.93 261.12 546.38 262.74 554.63 C 256.72 555.13 253.08 549.24 249.39 545.45 C 240.21 535.64 234.44 522.48 234.79 508.94 C 235.48 500.32 241.81 493.93 245.61 486.60 C 251.64 474.24 256.23 460.88 256.69 447.02 C 257.38 431.91 259.09 416.87 261.31 401.91 C 262.28 395.25 264.47 388.75 268.03 383.03 C 270.43 378.96 274.38 376.20 277.76 373.00 Z" />
		<path fill="#f0b58b" opacity="1.00"
			d=" M 255.57 504.35 C 257.36 500.09 261.39 497.21 265.24 494.92 C 267.53 493.49 268.89 496.37 270.23 497.71 C 263.73 502.35 259.61 509.54 257.67 517.18 C 256.03 513.18 253.75 508.71 255.57 504.35 Z" />
		<path fill="#f0b58b" opacity="1.00"
			d=" M 237.64 536.20 C 242.84 544.79 249.32 552.87 257.77 558.45 C 255.64 558.81 253.32 558.95 251.58 557.42 C 244.75 552.13 240.25 544.33 237.64 536.20 Z" />
		<path fill="#f0b58b" opacity="1.00"
			d=" M 260.61 701.05 C 260.78 680.05 269.59 660.56 276.52 641.13 C 289.13 641.97 301.39 645.24 313.64 648.17 C 331.86 653.26 350.04 659.98 365.21 671.57 C 357.14 682.24 345.37 688.90 335.02 697.02 C 329.09 701.37 323.68 706.37 318.59 711.67 C 316.98 713.22 316.06 715.29 315.59 717.46 C 318.77 716.77 321.00 714.34 323.36 712.30 C 327.25 708.80 331.58 705.84 335.71 702.63 C 337.42 705.95 339.49 709.07 341.73 712.06 C 330.38 722.19 318.07 731.27 305.00 739.07 C 299.09 742.56 293.00 745.92 286.33 747.73 C 283.27 741.20 280.92 734.26 276.73 728.32 C 271.00 719.53 261.70 712.09 260.61 701.05 Z" />
		<path fill="#f0b58b" opacity="1.00"
			d=" M 606.88 655.80 C 612.24 653.31 618.25 653.30 624.03 653.36 C 630.88 671.57 636.50 690.21 642.37 708.75 C 645.28 717.17 644.95 726.14 645.98 734.85 C 646.49 734.87 647.50 734.92 648.01 734.94 C 650.64 727.01 649.65 718.43 647.79 710.45 C 652.41 713.06 656.94 715.83 661.40 718.72 C 663.81 730.16 658.82 741.74 651.06 750.01 C 642.89 759.24 631.45 764.75 619.69 767.87 C 618.44 766.09 617.22 764.31 615.96 762.54 C 618.23 761.92 621.66 762.68 622.52 759.83 C 617.58 757.74 611.87 759.38 607.05 756.90 C 598.64 753.26 592.30 746.36 586.59 739.43 C 574.46 724.09 564.99 706.93 555.56 689.87 C 563.79 686.50 571.49 681.94 578.45 676.42 C 587.68 669.24 596.05 660.61 606.88 655.80 Z" />
	</g>
	<g id="#f11b27ff">
		<path fill="var(--shirt-color, grey)" opacity="1.00"
			d=" M 434.51 210.99 C 456.73 214.00 478.61 219.11 500.91 221.63 C 513.98 223.16 527.79 225.39 538.64 233.38 C 542.82 236.66 544.69 241.88 546.03 246.84 C 550.12 261.70 555.56 276.56 565.25 288.75 C 571.19 296.41 577.97 303.45 585.76 309.25 C 591.82 313.76 597.28 319.02 602.47 324.50 C 604.96 327.08 605.88 330.61 606.97 333.92 C 594.65 344.28 584.60 357.56 570.18 365.24 C 564.46 368.61 557.97 370.19 551.60 371.77 C 547.01 364.56 544.51 356.34 541.52 348.41 C 536.98 335.94 528.08 324.88 516.56 318.24 C 520.47 310.04 523.45 301.41 525.32 292.52 C 525.78 290.37 525.90 288.08 524.96 286.04 C 524.59 286.16 523.85 286.40 523.49 286.52 C 521.57 291.74 520.50 297.24 518.39 302.41 C 514.32 313.23 507.90 324.00 509.35 336.01 C 509.75 337.91 510.13 341.45 512.87 340.72 C 513.27 334.76 512.89 328.67 514.77 322.89 C 520.58 325.92 525.08 330.84 529.15 335.87 C 534.77 343.03 537.43 351.85 540.64 360.24 C 541.97 363.09 540.75 366.17 539.92 368.98 C 535.87 380.97 529.46 392.00 522.65 402.61 C 516.12 412.80 508.46 422.29 499.61 430.57 C 497.17 433.00 494.30 435.07 492.41 437.99 L 492.54 439.43 C 496.84 439.21 499.73 435.35 502.82 432.77 C 514.45 421.75 523.66 408.46 531.79 394.73 C 537.01 385.88 541.20 376.43 543.86 366.49 C 545.26 374.18 546.18 382.17 544.80 389.92 C 541.16 402.81 535.02 414.82 528.41 426.41 C 526.77 429.24 525.23 432.15 524.14 435.25 C 527.18 433.71 529.56 431.21 531.37 428.36 C 536.99 419.64 541.94 410.41 545.24 400.55 C 545.24 413.47 547.94 426.16 549.05 438.99 C 550.69 449.72 551.08 460.77 554.77 471.07 C 551.59 471.74 548.45 472.85 545.97 475.02 C 537.08 482.27 530.10 491.63 524.61 501.65 C 523.20 504.43 521.55 507.75 522.92 510.87 C 524.33 513.71 528.01 512.60 530.05 511.14 C 537.22 506.16 542.63 499.04 549.88 494.13 C 545.79 503.24 540.13 511.55 534.47 519.74 C 528.06 519.29 521.85 521.31 516.19 524.13 C 503.15 530.66 489.64 536.90 475.08 539.02 C 451.96 542.45 428.22 538.68 406.41 530.63 C 391.29 525.02 377.83 515.82 362.70 510.25 C 358.51 508.62 353.95 508.62 349.57 507.91 C 349.57 505.34 349.41 502.50 351.33 500.49 C 354.67 496.47 358.09 492.37 362.36 489.30 C 365.23 488.51 368.12 490.15 370.69 491.28 C 379.50 495.86 387.89 501.43 397.41 504.51 C 405.61 507.26 414.44 507.28 422.98 506.61 C 425.43 506.53 427.58 505.30 429.42 503.75 C 422.91 503.76 416.33 504.42 409.88 503.18 C 401.41 501.70 393.49 498.12 385.99 494.03 C 379.35 490.56 373.05 486.22 365.68 484.42 C 366.49 468.64 366.97 452.84 366.91 437.04 C 366.69 425.97 367.72 414.39 363.57 403.87 C 371.57 402.30 379.83 401.07 387.96 402.32 C 397.36 403.67 406.59 405.96 415.94 407.60 C 418.53 408.12 421.18 407.95 423.75 407.34 C 418.20 404.43 411.88 403.76 405.90 402.15 C 398.61 400.60 391.42 398.32 383.95 397.81 C 376.46 397.49 369.12 399.33 361.82 400.71 C 356.47 390.80 350.61 381.12 346.56 370.57 C 344.20 364.18 341.47 357.89 337.72 352.18 C 331.98 343.08 326.91 333.58 321.91 324.07 C 319.00 318.56 314.82 313.82 310.09 309.82 C 308.70 308.56 306.87 307.97 305.14 307.36 C 306.99 311.71 310.57 314.92 313.22 318.75 C 317.71 324.77 320.60 331.74 324.25 338.26 C 317.30 331.21 309.42 323.25 299.02 322.32 C 301.22 325.49 304.97 326.75 307.99 328.92 C 314.83 333.65 320.46 339.84 326.13 345.87 C 329.41 349.60 333.10 353.04 335.60 357.38 C 338.31 361.93 340.23 366.89 342.07 371.85 C 337.18 380.87 330.13 389.18 320.89 393.92 C 317.09 396.28 313.61 392.29 310.45 390.59 C 299.39 383.84 288.55 376.71 278.56 368.45 C 276.17 366.44 273.73 364.49 271.22 362.64 C 275.56 357.18 279.49 351.05 280.30 343.97 C 283.41 321.46 279.51 298.56 283.14 276.09 C 285.65 260.27 295.79 245.38 310.45 238.51 C 322.36 232.36 336.13 230.93 347.75 224.07 C 345.05 235.22 346.23 247.66 352.53 257.42 C 358.24 265.93 368.24 270.22 377.97 272.18 C 385.31 274.08 392.92 276.28 398.94 281.10 C 402.68 284.02 404.61 288.53 407.99 291.78 C 410.52 291.78 411.11 289.01 412.24 287.28 C 419.41 273.72 430.92 263.32 440.76 251.78 C 445.81 244.88 445.57 235.52 443.25 227.64 C 441.70 221.46 438.09 216.14 434.51 210.99 M 479.71 444.73 C 465.27 452.64 449.26 457.55 432.92 459.45 C 427.79 460.02 422.61 459.87 417.49 460.55 C 422.82 462.20 428.48 462.30 434.01 461.84 C 448.86 460.49 463.88 457.56 477.03 450.23 C 480.04 448.37 483.87 447.18 485.66 443.90 C 483.76 442.17 481.57 443.92 479.71 444.73 Z" />
	</g>
	<g id="#ffffffff">
		<path fill="var(--pants-color, grey)" opacity="1.00"
			d=" M 336.19 537.14 C 342.37 529.37 349.92 522.28 353.04 512.57 C 362.11 513.27 370.27 517.81 378.27 521.78 C 391.67 529.02 405.53 535.69 420.37 539.40 C 438.76 544.44 458.19 545.85 477.05 542.92 C 487.54 541.22 497.53 537.36 507.20 533.08 C 515.46 529.63 523.21 524.69 532.16 523.14 C 529.69 527.92 526.42 532.58 525.84 538.06 C 525.61 540.28 527.64 542.42 529.93 541.85 C 533.49 540.70 536.45 538.21 539.31 535.87 C 535.96 540.63 531.69 545.87 532.11 551.99 C 532.80 556.47 538.15 556.02 541.08 554.03 C 541.84 555.65 542.58 557.90 544.85 557.56 C 551.91 557.49 556.08 550.54 562.79 549.57 C 566.53 548.61 570.21 547.45 573.91 546.33 C 581.34 558.24 588.98 570.10 594.97 582.83 C 602.14 597.46 608.95 612.30 614.20 627.74 C 617.02 635.02 619.08 642.57 621.99 649.82 C 616.28 649.27 610.33 649.55 605.04 651.97 C 591.73 657.84 582.00 669.07 570.18 677.19 C 562.16 682.87 553.03 686.71 543.78 689.87 C 536.47 692.41 529.73 696.26 523.09 700.18 C 520.53 696.31 517.89 692.49 515.46 688.54 C 511.00 680.86 507.77 672.54 503.38 664.83 C 497.56 655.14 489.92 646.75 482.84 637.99 C 474.27 628.00 466.56 617.11 456.25 608.77 C 454.98 608.03 453.70 606.46 452.09 607.02 C 443.93 609.11 437.36 614.74 431.21 620.21 C 417.33 632.39 405.55 646.72 394.66 661.57 C 389.98 668.02 385.37 674.65 382.39 682.10 C 376.17 681.81 370.01 680.77 363.79 680.37 C 365.90 677.92 368.35 675.65 369.82 672.73 C 370.63 670.37 368.72 668.41 367.05 667.07 C 354.52 657.19 339.48 651.21 324.39 646.46 C 316.67 643.95 308.72 642.25 300.80 640.49 C 291.12 638.42 281.23 636.77 271.30 637.47 C 277.71 627.92 283.91 618.18 291.39 609.42 C 297.05 602.71 303.29 596.37 307.63 588.67 C 310.96 582.84 312.34 576.19 315.14 570.13 C 320.59 558.23 327.74 547.13 336.19 537.14 Z" />
		<path fill="var(--socks-color, grey)" opacity="1.00"
			d=" M 309.12 741.12 C 321.45 733.42 333.44 724.92 343.57 714.42 C 351.06 723.42 358.83 732.42 363.87 743.09 C 372.14 759.97 376.68 778.48 378.57 797.12 C 380.58 811.28 381.95 825.54 384.80 839.56 C 387.26 850.35 390.08 861.08 393.70 871.55 C 397.36 880.52 401.15 889.45 404.57 898.52 C 408.15 906.76 405.98 917.31 399.51 923.52 C 394.96 927.54 388.73 928.69 382.88 929.31 C 377.20 929.76 371.45 929.96 365.81 928.98 C 365.43 922.57 370.97 915.99 367.11 909.95 C 362.83 904.61 355.12 905.67 349.24 903.49 C 343.71 886.53 336.73 870.12 330.37 853.47 C 326.71 843.79 322.05 834.56 317.88 825.11 C 312.83 814.05 308.73 802.60 303.70 791.54 C 298.12 778.04 292.15 764.70 287.26 750.93 C 295.20 749.39 302.23 745.15 309.12 741.12 Z" />
		<path fill="var(--socks-color, grey)" opacity="1.00"
			d=" M 666.43 722.07 C 679.36 731.49 690.60 743.24 699.40 756.61 C 713.05 777.72 720.99 801.73 730.41 824.87 C 739.19 846.98 748.35 869.10 760.75 889.49 C 757.39 890.06 753.58 890.50 751.32 893.37 C 747.76 897.42 748.68 903.17 749.16 908.08 C 749.22 911.51 744.61 912.21 742.10 911.16 C 735.65 908.31 731.02 902.73 726.25 897.75 C 719.94 891.20 715.31 883.33 709.64 876.27 C 698.37 863.54 687.84 850.16 676.79 837.23 C 665.98 824.34 656.05 810.70 644.61 798.34 C 636.62 789.59 629.50 780.12 622.03 770.94 C 634.43 769.09 645.88 762.48 654.50 753.50 C 662.43 745.19 667.73 733.74 666.43 722.07 Z" />
	</g>
	<g id="#4d4d4dff">
		<path fill="#4d4d4d" opacity="1.00"
			d=" M 754.90 895.87 C 758.33 892.93 763.98 894.57 766.86 890.66 C 783.30 901.55 799.97 912.12 816.99 922.06 C 822.64 925.90 828.09 930.80 830.56 937.33 C 832.53 943.59 828.02 949.56 823.53 953.46 C 815.20 960.21 804.74 965.00 793.85 964.86 C 787.20 964.67 781.71 960.19 777.50 955.42 C 773.11 950.87 768.89 945.13 762.29 943.88 C 759.00 942.99 754.89 943.49 752.60 940.49 C 746.24 933.07 744.01 923.21 738.90 915.00 C 743.03 916.22 748.13 916.81 751.44 913.43 C 756.32 908.66 750.65 900.90 754.90 895.87 Z" />
		<path fill="#4d4d4d" opacity="1.00"
			d=" M 326.83 924.79 C 334.01 919.13 342.72 915.24 348.34 907.78 C 352.96 909.23 357.91 909.70 362.33 911.75 C 364.51 912.78 363.86 915.51 363.49 917.39 C 362.68 921.75 360.28 926.35 362.13 930.76 C 363.81 933.93 367.91 934.03 371.04 934.39 C 379.75 934.78 388.89 934.59 396.96 930.94 C 402.92 928.21 406.87 922.67 409.80 917.01 C 411.47 928.60 412.16 940.39 411.02 952.07 C 410.29 959.31 408.36 966.85 403.38 972.38 C 400.08 976.06 394.78 977.08 390.08 976.17 C 379.49 974.57 368.78 972.89 358.04 973.84 C 349.49 974.30 341.44 977.42 333.12 979.09 C 325.48 980.67 317.71 982.17 309.87 981.59 C 301.06 980.97 292.39 978.92 284.09 975.96 C 277.62 973.72 272.34 969.19 267.40 964.62 C 265.27 962.41 262.64 960.18 262.12 957.00 C 262.02 953.93 264.89 951.87 267.09 950.18 C 277.13 943.57 288.98 940.72 300.44 937.64 C 309.95 935.06 319.02 930.84 326.83 924.79 Z" />
	</g>
</svg>