<?xml version="1.0" encoding="UTF-8" ?>
<!DOCTYPE svg PUBLIC "-//W3C//DTD SVG 1.1//EN" "http://www.w3.org/Graphics/SVG/1.1/DTD/svg11.dtd">
<svg width="1000pt" height="1000pt" viewBox="0 0 1000 1000" version="1.1" xmlns="http://www.w3.org/2000/svg">
	<g id="#020202ff">
		<path fill="#020202" opacity="1.00"
			d=" M 437.69 9.72 C 447.06 3.17 458.76 1.21 469.97 1.05 C 486.92 1.16 504.45 6.22 517.10 17.88 C 524.36 24.53 530.31 32.66 534.23 41.70 C 537.54 49.01 537.63 57.18 538.21 65.04 C 538.74 73.94 537.15 82.79 534.61 91.29 C 537.17 99.15 541.25 106.37 544.63 113.88 C 552.22 113.02 559.92 112.36 567.52 113.67 C 578.91 115.62 590.50 115.08 602.01 115.08 C 615.40 115.07 629.02 111.97 642.22 115.56 C 648.79 117.15 653.97 121.72 658.83 126.15 C 667.55 133.95 673.32 144.30 680.45 153.45 C 684.63 158.77 690.53 162.25 695.93 166.18 C 700.96 170.23 705.40 175.00 709.51 179.98 C 709.08 180.41 708.22 181.27 707.79 181.70 C 714.24 187.41 720.69 193.19 726.40 199.67 C 732.29 199.60 738.16 200.19 744.05 200.27 C 752.10 200.60 760.20 199.98 768.23 201.05 C 773.85 192.79 781.67 186.28 790.15 181.12 C 795.69 177.84 802.59 175.69 808.88 178.11 C 812.52 179.63 816.37 181.02 819.40 183.62 C 821.68 185.36 819.75 188.04 819.15 190.11 C 823.58 192.26 829.31 193.43 831.86 198.07 C 833.62 202.55 828.89 205.58 825.79 207.77 C 826.16 212.02 826.09 216.75 822.67 219.84 C 823.57 221.84 825.38 224.00 824.29 226.29 C 823.37 228.54 820.66 228.96 818.74 229.99 C 819.24 233.28 819.75 237.47 816.63 239.68 C 810.95 243.73 803.62 242.74 797.06 242.99 C 788.17 242.90 779.00 244.88 770.40 241.73 C 762.53 246.71 753.58 249.51 745.03 253.04 C 735.23 257.12 724.64 259.96 713.95 259.39 C 709.21 259.23 705.36 256.15 701.88 253.27 C 695.06 247.49 688.28 241.67 681.67 235.66 C 677.07 238.36 672.22 240.74 666.97 241.85 C 667.86 247.87 668.53 253.95 668.41 260.05 C 668.00 275.01 668.38 290.05 666.28 304.91 C 664.96 314.11 663.30 323.28 661.25 332.35 C 659.26 341.19 656.54 349.89 655.26 358.88 C 654.41 364.56 652.88 370.17 652.85 375.95 C 652.82 378.54 652.79 381.21 651.72 383.62 C 649.09 390.04 645.83 396.30 644.54 403.18 C 643.30 411.65 647.16 419.65 647.90 427.96 C 647.89 433.57 646.46 440.33 641.16 443.30 C 641.11 443.83 641.00 444.89 640.95 445.43 C 640.81 446.41 640.87 447.38 641.11 448.36 C 643.44 456.32 636.78 462.25 634.23 469.11 C 627.91 485.21 625.96 502.52 622.68 519.39 C 619.11 536.67 612.98 553.28 606.46 569.62 C 601.86 580.39 596.43 590.78 591.39 601.34 C 583.39 618.85 573.93 635.64 564.33 652.31 C 560.35 658.41 557.29 665.03 553.90 671.46 C 549.98 670.55 546.11 669.38 542.26 668.20 C 538.06 676.49 533.20 684.44 528.15 692.25 C 517.81 707.19 506.62 721.89 500.02 738.98 C 495.25 749.31 493.07 760.54 489.24 771.20 C 483.85 787.20 476.77 802.62 468.03 817.06 C 453.41 841.06 437.17 864.02 420.75 886.81 C 411.85 898.04 404.74 910.52 395.96 921.82 C 391.86 928.22 387.50 934.53 384.60 941.60 C 379.95 952.23 375.93 963.39 368.71 972.62 C 359.40 983.16 346.24 990.78 332.05 991.82 C 324.97 992.39 317.34 989.84 312.79 984.24 C 307.87 977.63 307.91 968.91 308.75 961.09 C 310.26 947.21 319.49 935.72 329.52 926.67 C 338.38 918.85 347.17 910.83 354.36 901.40 C 360.38 893.30 367.16 885.59 371.45 876.36 C 378.57 860.24 382.82 843.07 387.02 826.01 C 391.52 810.06 396.21 794.09 402.83 778.87 C 414.00 753.08 428.07 728.71 440.72 703.65 C 446.96 691.84 448.57 678.43 451.81 665.65 C 454.11 657.81 456.24 649.86 459.64 642.41 C 457.92 641.71 455.12 641.92 454.79 639.57 C 452.46 627.58 457.21 615.88 460.45 604.54 C 459.83 604.01 459.21 603.48 458.60 602.96 C 449.80 618.22 436.44 629.94 424.41 642.53 C 418.80 648.21 415.06 655.59 413.58 663.43 C 411.16 676.79 405.87 689.37 401.07 702.01 C 395.91 714.88 391.27 728.11 383.93 739.96 C 375.87 754.97 367.51 769.86 357.90 783.95 C 348.62 797.56 337.68 809.98 328.94 823.98 C 323.92 831.99 318.67 839.92 314.56 848.45 C 312.37 855.41 312.54 862.83 311.75 870.03 C 310.99 878.06 310.16 886.10 308.66 894.04 C 307.74 898.69 305.55 903.93 300.66 905.54 C 293.07 908.25 285.93 900.55 278.41 903.66 C 270.57 906.79 264.32 913.16 255.99 915.23 C 247.03 917.73 237.62 914.82 229.91 910.14 C 224.15 906.78 218.50 902.68 215.10 896.81 C 212.44 892.36 212.01 886.37 214.92 881.94 C 217.04 878.27 221.11 876.61 224.56 874.50 C 239.88 865.61 253.50 854.21 267.43 843.36 C 272.41 838.80 278.60 834.19 279.67 827.06 C 284.20 800.95 289.89 775.05 296.28 749.34 C 300.25 731.38 306.51 714.04 313.09 696.89 C 318.92 681.52 325.58 666.38 334.30 652.40 C 339.40 644.55 344.68 636.68 348.09 627.90 C 352.92 613.94 354.58 599.02 360.40 585.38 C 364.00 576.51 366.63 567.22 371.15 558.75 C 369.40 557.96 367.34 557.56 366.06 556.02 C 366.29 551.88 367.72 547.94 368.82 543.98 C 374.32 525.37 381.48 507.27 389.61 489.66 C 396.69 474.01 407.49 460.44 418.70 447.57 C 420.23 446.10 419.78 443.85 419.96 441.97 C 420.01 434.52 424.80 427.68 431.22 424.18 C 434.39 422.12 438.39 420.86 440.57 417.62 C 441.24 412.78 440.27 407.74 441.84 402.99 C 445.37 390.81 453.72 380.92 460.13 370.20 C 463.38 364.72 464.87 358.46 465.96 352.25 C 449.49 352.60 431.72 349.21 419.37 337.53 C 417.75 336.19 417.32 334.07 417.32 332.08 C 417.10 324.97 415.65 317.90 416.14 310.77 C 416.46 305.98 416.93 301.20 416.93 296.40 C 415.65 294.93 414.05 293.64 413.29 291.81 C 412.66 289.37 413.28 286.85 413.73 284.44 C 416.53 272.41 420.49 260.42 420.34 247.94 C 420.68 234.17 415.49 220.83 416.69 207.03 C 417.44 199.25 421.83 192.46 426.61 186.52 C 432.39 179.41 440.89 175.49 447.92 169.85 C 456.40 163.69 463.32 155.78 470.08 147.87 C 461.28 140.30 456.26 129.66 449.33 120.57 C 444.43 113.75 442.15 105.55 440.39 97.46 C 439.04 90.95 434.86 85.57 432.79 79.33 C 431.90 76.64 431.12 73.91 430.16 71.24 C 429.35 71.32 427.72 71.47 426.91 71.55 C 422.16 60.75 419.39 48.75 421.11 36.94 C 422.47 26.08 428.50 15.78 437.69 9.72 M 476.48 56.70 C 475.52 51.24 474.34 45.80 472.53 40.55 C 466.94 45.72 465.70 53.64 465.02 60.85 C 462.95 59.32 460.52 57.83 459.65 55.25 C 458.36 51.46 458.62 47.39 458.43 43.45 C 453.24 51.08 447.38 58.37 440.56 64.59 C 440.44 59.54 441.62 54.52 440.93 49.47 C 439.05 55.64 437.33 61.93 434.00 67.52 C 435.50 71.35 436.93 75.22 438.49 79.03 C 441.92 78.30 445.47 77.16 448.98 77.87 C 452.40 79.49 454.88 82.78 456.43 86.16 C 452.73 88.82 448.32 90.30 444.34 92.48 C 445.70 99.25 446.36 106.30 449.47 112.57 C 452.10 118.28 456.68 122.75 459.75 128.20 C 464.56 135.74 469.66 143.92 477.98 147.96 C 483.63 150.83 490.25 148.48 495.01 144.95 C 502.49 138.80 508.89 131.41 514.35 123.43 C 515.52 122.04 516.63 119.69 518.86 120.45 C 518.39 124.64 515.50 127.95 513.35 131.40 C 509.05 138.17 503.94 144.54 497.55 149.47 C 494.32 152.05 490.17 152.82 486.21 153.50 C 489.76 160.03 494.30 166.21 500.57 170.37 C 507.11 174.70 513.67 179.02 519.88 183.82 C 525.90 173.53 531.32 162.88 536.08 151.94 C 540.29 142.21 541.51 131.48 541.56 120.97 C 541.68 117.61 539.27 114.96 538.02 112.02 C 533.54 103.63 530.72 94.53 527.21 85.73 C 525.38 79.62 524.88 73.24 524.79 66.89 C 524.55 62.29 522.57 55.98 517.02 55.87 C 512.60 58.44 511.33 64.87 513.76 69.23 C 516.32 74.07 517.00 79.58 517.03 84.98 C 516.91 90.67 519.04 96.04 519.71 101.63 C 517.93 100.34 515.90 99.12 515.05 96.99 C 513.26 92.99 513.70 88.46 512.45 84.32 C 511.42 80.56 508.45 77.79 505.56 75.37 C 502.50 72.97 498.05 71.46 494.36 73.25 C 487.08 76.22 480.26 80.44 472.55 82.28 C 470.01 82.71 466.72 83.60 464.83 81.25 C 463.24 79.42 460.95 76.87 462.30 74.33 C 463.80 71.95 466.73 71.17 469.14 70.03 C 478.16 66.42 487.03 62.32 496.47 59.88 C 495.10 55.77 494.98 51.42 496.06 47.22 C 494.33 49.61 492.49 51.95 490.10 53.70 C 491.27 47.70 492.78 41.74 493.13 35.61 C 486.02 41.18 480.85 48.89 476.48 56.70 M 545.87 117.32 C 546.42 129.20 546.10 141.46 541.74 152.68 C 537.99 162.22 533.32 171.38 528.15 180.21 C 526.50 182.93 524.88 185.72 522.66 188.01 C 518.86 187.91 515.93 185.06 512.83 183.20 C 505.47 177.88 496.89 174.11 490.71 167.28 C 486.76 163.16 483.82 158.18 481.62 152.94 C 478.92 152.24 476.26 151.40 473.65 150.43 C 470.76 153.92 467.71 157.27 464.78 160.73 C 457.39 169.18 448.10 175.63 438.79 181.77 C 431.62 186.53 426.07 193.58 422.68 201.46 C 419.06 211.16 421.98 221.61 423.38 231.47 C 424.96 240.30 425.37 249.36 424.25 258.27 C 422.62 269.15 419.11 279.63 417.12 290.43 C 419.19 292.03 421.08 294.33 423.89 294.51 C 430.55 295.34 437.29 295.11 443.98 295.49 C 453.17 295.43 462.30 297.05 471.16 299.41 C 470.85 296.71 471.18 293.76 469.71 291.34 C 465.86 284.31 459.13 279.52 452.32 275.61 C 448.34 273.21 443.96 271.27 440.78 267.76 C 449.81 269.30 457.80 274.30 465.20 279.48 C 461.12 273.74 456.28 268.55 450.69 264.25 C 445.12 259.62 438.75 255.86 434.05 250.26 C 440.22 251.31 444.90 255.72 450.02 258.94 C 457.67 263.93 464.61 270.21 469.24 278.17 C 467.32 268.78 464.88 259.51 463.30 250.06 C 462.31 243.51 459.57 237.39 458.59 230.85 C 460.30 232.35 461.93 234.05 462.73 236.23 C 466.71 246.09 468.53 256.62 471.38 266.83 C 474.56 278.44 476.26 290.55 474.85 302.58 C 478.91 302.91 483.01 303.58 487.09 303.10 C 491.10 302.42 493.82 299.07 497.42 297.46 C 501.99 295.38 507.29 295.97 511.87 293.88 C 516.04 292.14 519.40 288.63 523.98 287.85 C 530.22 286.48 536.40 289.15 541.62 292.35 C 545.19 294.63 548.98 296.96 551.39 300.56 C 553.79 304.15 550.09 309.06 546.08 308.77 C 541.85 308.50 538.12 306.20 534.37 304.43 C 537.68 307.58 541.33 310.76 543.03 315.12 C 543.96 317.27 542.31 319.83 540.03 320.01 C 535.24 320.42 530.68 318.46 526.39 316.62 C 528.79 319.35 531.94 322.11 532.23 325.99 C 532.29 328.65 529.26 329.88 527.00 329.39 C 515.99 327.54 507.53 319.24 496.86 316.40 C 503.91 322.26 513.05 324.94 519.95 330.99 C 522.06 332.90 524.65 336.53 522.18 339.14 C 518.86 341.08 514.83 339.39 511.31 338.98 C 510.14 340.29 509.10 341.75 507.63 342.74 C 503.42 344.89 498.47 342.18 494.23 344.20 C 486.89 347.32 479.27 349.78 471.45 351.38 C 471.50 362.09 466.97 372.17 460.68 380.63 C 453.73 391.22 444.94 402.04 445.01 415.38 C 464.78 424.48 485.20 432.42 506.33 437.73 C 526.06 442.93 546.40 447.98 566.95 445.62 C 581.01 444.50 595.08 443.12 608.95 440.50 C 619.73 438.80 630.67 437.12 641.61 438.24 C 642.61 434.64 643.99 430.97 643.46 427.17 C 642.92 423.31 641.69 419.60 640.78 415.82 C 623.15 414.90 605.60 417.31 588.00 417.84 C 573.34 418.51 558.66 418.27 544.00 417.78 C 529.11 417.20 513.87 415.29 500.29 408.78 C 492.59 405.23 486.85 397.52 486.30 388.99 C 486.11 387.10 487.89 386.08 489.02 384.91 C 489.79 388.56 490.30 392.42 492.43 395.59 C 495.94 401.33 502.20 404.52 508.31 406.76 C 524.05 412.65 541.06 413.16 557.67 413.35 C 573.13 413.88 588.61 413.42 604.05 412.44 C 616.03 411.67 628.07 410.73 640.06 411.89 C 637.98 400.11 644.58 389.66 648.76 379.19 C 645.41 373.17 642.00 367.17 639.18 360.89 C 636.53 355.05 635.01 348.72 631.76 343.16 C 629.37 339.04 625.49 336.15 621.84 333.23 C 613.09 326.34 605.54 318.11 597.55 310.40 C 589.05 302.17 581.06 293.35 574.39 283.55 C 572.28 280.30 569.73 276.62 570.91 272.54 C 573.01 274.00 574.30 276.25 575.68 278.36 C 582.08 288.03 590.33 296.28 598.77 304.19 C 606.70 311.58 614.06 319.59 622.15 326.83 C 626.32 330.63 631.14 333.85 634.39 338.56 C 637.92 343.67 639.52 349.76 641.67 355.51 C 643.59 360.90 646.12 366.03 648.53 371.20 C 649.30 366.46 650.22 361.73 650.98 356.99 C 644.82 350.56 639.64 343.16 635.95 335.05 C 632.87 328.54 631.50 321.32 627.90 315.05 C 623.06 306.78 614.60 301.70 608.30 294.69 C 600.60 286.54 594.54 277.05 587.97 268.00 C 585.03 263.68 581.29 259.55 580.61 254.16 C 584.90 256.94 587.37 261.56 590.51 265.45 C 596.88 273.72 603.24 282.01 610.19 289.81 C 616.74 297.26 625.41 302.79 630.74 311.31 C 634.95 317.83 636.31 325.60 639.31 332.66 C 642.34 340.15 646.72 346.98 651.43 353.52 C 656.75 330.96 662.54 308.31 663.46 285.04 C 663.80 270.38 664.91 255.66 663.04 241.05 C 656.93 238.27 651.02 234.88 644.42 233.35 C 637.99 231.41 631.24 230.94 624.86 228.87 C 626.13 228.24 627.29 226.97 628.84 227.07 C 633.71 227.02 638.53 227.90 643.36 228.47 C 637.70 223.87 632.43 218.81 627.77 213.21 C 625.58 210.51 622.81 208.00 622.02 204.48 C 622.52 204.38 623.51 204.18 624.01 204.08 C 628.23 206.28 630.90 210.49 634.30 213.70 C 640.32 219.65 645.65 226.70 653.41 230.51 C 658.68 233.20 663.77 236.75 669.85 237.27 C 667.55 231.90 665.06 226.50 664.60 220.59 C 662.89 209.99 667.40 199.24 674.57 191.56 C 681.85 183.50 692.41 179.12 703.05 177.85 C 698.48 173.73 693.81 169.68 688.64 166.33 C 683.21 162.43 676.61 160.81 670.32 158.87 C 665.76 157.40 660.57 156.97 656.91 153.57 C 663.80 153.26 670.45 155.54 677.06 157.18 C 672.01 150.76 667.50 143.95 662.58 137.44 C 658.73 132.29 653.96 127.92 649.10 123.75 C 644.14 119.43 637.31 118.55 630.99 118.19 C 622.94 117.68 615.00 119.32 606.98 119.58 C 598.32 119.93 589.65 119.89 580.98 119.92 C 572.89 120.03 565.07 117.59 557.01 117.30 C 553.30 117.13 549.58 117.29 545.87 117.32 M 785.52 189.49 C 779.20 194.18 773.49 200.05 770.25 207.31 C 768.38 212.81 767.66 218.63 767.28 224.41 C 766.11 223.14 764.40 222.02 764.42 220.11 C 763.94 215.00 764.21 209.78 765.80 204.87 C 758.20 204.76 750.62 205.42 743.04 204.92 C 737.97 204.93 732.96 203.86 727.90 204.11 C 721.07 205.24 715.35 209.83 710.95 214.96 C 709.55 216.44 708.48 218.46 706.39 219.03 C 705.89 217.31 705.73 215.47 706.89 213.97 C 710.46 208.43 715.70 203.96 721.71 201.23 C 715.12 194.79 708.66 188.23 701.99 181.89 C 694.72 183.44 687.53 186.08 681.62 190.69 C 673.91 197.08 668.99 206.88 669.05 216.96 C 680.76 229.23 693.67 240.28 706.15 251.74 C 704.37 248.77 702.11 245.82 701.95 242.21 C 701.78 236.84 702.56 230.80 706.65 226.90 C 705.93 231.28 704.34 235.59 704.74 240.10 C 704.94 244.58 707.92 248.18 710.26 251.77 C 711.63 254.11 714.19 255.78 716.99 255.57 C 725.41 255.18 733.51 252.43 741.28 249.30 C 749.47 245.91 757.84 242.93 765.84 239.07 C 766.47 237.85 767.14 236.65 767.81 235.45 C 772.12 238.77 777.59 239.79 782.92 239.14 C 791.30 238.21 799.75 238.96 808.14 238.36 C 810.73 237.80 815.02 237.39 815.19 233.96 C 815.28 230.62 811.78 228.98 809.19 227.84 C 801.97 225.18 794.27 223.57 786.56 223.77 C 792.80 228.49 800.77 229.65 807.57 233.22 C 809.71 236.22 804.96 235.66 803.19 235.44 C 795.45 233.95 786.33 231.77 782.05 224.47 C 778.64 224.69 775.14 225.26 771.78 224.47 C 771.51 224.09 770.97 223.32 770.70 222.93 C 775.11 220.61 780.29 221.52 784.93 220.03 C 787.40 219.22 790.03 219.35 792.61 219.34 C 790.81 217.00 788.67 214.79 787.68 211.96 C 786.76 209.62 788.82 207.84 790.14 206.23 C 789.58 200.97 789.29 194.78 793.20 190.64 C 793.95 194.97 793.88 199.37 793.86 203.75 C 798.40 202.68 803.09 202.67 807.75 202.59 C 808.79 201.79 809.83 201.00 810.91 200.23 C 805.37 198.19 800.02 195.37 795.62 191.40 C 793.66 189.88 793.26 185.99 796.07 185.19 C 802.16 183.58 808.17 186.56 813.92 188.25 C 815.01 187.64 816.10 187.03 817.20 186.42 C 812.65 184.20 808.22 180.94 803.00 180.83 C 796.35 181.51 790.71 185.59 785.52 189.49 M 798.44 188.39 C 802.25 191.03 806.12 193.70 810.44 195.44 C 812.70 196.41 815.14 197.19 816.94 198.96 C 816.86 200.53 815.70 201.60 814.75 202.70 C 817.24 202.96 819.73 203.36 822.19 203.88 C 824.52 202.79 826.75 201.43 828.57 199.58 C 824.98 196.81 820.70 195.22 816.56 193.51 C 810.69 191.29 804.76 188.92 798.44 188.39 M 796.68 207.44 C 804.27 211.00 812.15 213.93 819.65 217.68 C 821.65 214.81 823.45 208.90 818.92 207.53 C 811.58 206.15 804.07 207.11 796.68 207.44 M 793.22 211.82 C 795.27 214.34 797.23 217.00 799.80 219.03 C 804.86 222.22 810.95 223.28 815.91 226.69 C 817.58 225.99 819.24 225.28 820.90 224.52 C 816.86 220.97 811.82 218.92 806.83 217.11 C 802.24 215.49 797.86 213.30 793.22 211.82 M 669.33 223.86 C 670.15 228.02 671.26 232.11 672.62 236.12 C 674.72 235.17 676.82 234.17 678.88 233.11 C 675.66 230.07 672.49 226.97 669.33 223.86 M 518.73 294.03 C 527.01 295.33 534.02 300.23 541.67 303.31 C 543.87 304.12 547.12 306.04 548.57 303.10 C 544.59 297.98 538.64 294.69 532.80 292.12 C 528.13 290.00 522.82 291.26 518.73 294.03 M 421.67 298.03 C 421.10 307.08 419.73 316.13 420.76 325.21 C 431.15 311.73 448.05 305.23 464.44 302.88 C 450.40 299.49 435.79 300.78 421.67 298.03 M 503.53 299.76 C 509.42 302.69 515.18 305.86 521.01 308.92 C 526.80 311.84 532.63 315.03 539.18 315.85 C 533.37 306.62 523.35 301.16 513.32 297.67 C 510.12 298.67 506.82 299.25 503.53 299.76 M 491.13 306.12 C 483.42 308.40 479.20 316.35 476.83 323.48 C 476.28 321.76 475.06 319.99 475.93 318.15 C 477.29 314.11 479.84 310.63 482.28 307.19 C 478.87 306.86 475.46 305.87 472.02 306.31 C 463.39 307.98 454.60 309.19 446.37 312.42 C 436.20 316.52 426.28 322.85 420.76 332.63 C 432.86 343.83 449.85 348.42 466.06 347.65 C 474.52 346.93 482.66 344.33 490.78 342.00 C 488.36 340.99 484.40 341.12 484.10 337.81 C 492.10 335.09 500.69 342.87 508.43 338.11 C 501.97 335.30 495.65 332.08 489.95 327.93 C 488.30 326.63 486.23 325.32 486.18 322.98 C 490.21 323.65 493.67 325.96 497.20 327.86 C 504.11 331.78 511.43 335.34 519.43 336.23 C 512.57 327.96 500.95 326.15 493.54 318.54 C 492.25 317.23 490.98 314.98 492.58 313.41 C 495.16 311.12 498.95 312.50 501.85 313.40 C 510.87 316.88 518.74 323.12 528.31 325.27 C 524.56 318.59 517.91 314.49 511.99 309.97 C 507.60 306.57 502.44 304.43 497.72 301.57 C 495.64 303.24 493.63 305.11 491.13 306.12 M 428.23 433.30 C 425.69 436.68 424.40 440.94 424.91 445.16 C 425.24 447.55 423.39 449.33 422.00 451.00 C 416.31 457.35 411.04 464.06 405.94 470.89 C 394.71 485.84 388.39 503.65 381.62 520.88 C 377.16 531.95 373.99 543.49 369.42 554.50 C 384.23 555.28 398.77 559.54 412.16 565.83 C 422.71 570.68 431.75 578.06 441.04 584.90 C 447.98 590.23 455.51 594.75 462.48 600.05 C 467.90 579.54 475.66 559.62 485.93 541.05 C 494.07 526.67 502.64 512.54 511.73 498.75 C 514.83 494.24 517.57 489.31 521.99 485.93 C 520.42 490.94 517.35 495.23 514.66 499.68 C 500.73 522.29 486.73 545.07 476.95 569.86 C 469.39 588.23 464.12 607.43 459.98 626.83 C 459.43 630.53 459.32 634.28 458.71 637.98 C 466.82 637.44 475.05 637.53 483.00 639.34 C 491.91 641.15 500.23 644.92 508.53 648.51 C 522.85 655.11 536.94 662.44 552.15 666.83 C 554.32 660.02 558.40 654.11 561.87 647.94 C 568.69 636.20 575.06 624.21 581.39 612.20 C 585.88 602.47 590.52 592.80 595.17 583.15 C 603.86 565.83 610.35 547.48 615.61 528.87 C 619.64 514.92 620.46 500.31 624.23 486.31 C 626.52 476.21 629.37 465.98 635.38 457.39 C 638.72 453.17 637.06 447.49 637.25 442.57 C 621.04 442.89 605.23 446.86 589.18 448.62 C 579.81 449.70 570.40 450.44 560.99 450.90 C 543.61 451.88 526.54 447.63 509.83 443.41 C 487.35 437.58 465.28 429.93 444.21 420.15 C 440.12 426.00 432.32 427.49 428.23 433.30 M 375.39 559.13 C 370.29 568.16 367.69 578.30 363.82 587.88 C 359.82 597.28 358.00 607.38 355.52 617.24 C 355.31 626.63 356.67 635.98 356.81 645.35 C 352.35 640.87 353.34 633.98 352.44 628.24 C 350.32 633.83 347.50 639.12 344.48 644.27 C 352.48 660.77 369.63 672.54 388.02 673.43 C 395.40 673.60 403.49 671.54 408.47 665.76 C 410.27 656.96 413.04 648.04 419.20 641.25 C 431.25 627.80 445.50 616.27 455.65 601.17 C 444.95 594.44 434.86 586.81 424.71 579.29 C 410.34 568.47 392.95 562.36 375.39 559.13 M 464.28 642.09 C 457.63 658.06 454.06 675.03 450.51 691.89 C 449.62 698.21 449.50 704.60 449.17 710.97 C 448.85 716.92 449.64 722.94 448.46 728.83 C 447.61 727.70 446.47 726.65 446.35 725.16 C 445.26 718.06 445.67 710.85 445.61 703.70 C 443.52 707.98 441.38 712.25 439.14 716.47 C 441.82 727.55 448.01 737.89 457.19 744.78 C 466.11 751.77 477.60 754.92 488.85 754.29 C 492.85 739.76 498.52 725.53 506.95 712.98 C 510.49 707.55 513.96 702.07 517.89 696.90 C 525.29 687.32 531.63 676.99 538.49 667.02 C 522.87 661.26 508.18 653.33 492.62 647.41 C 483.59 643.93 473.93 642.33 464.28 642.09 M 322.24 685.23 C 315.71 701.06 309.66 717.11 304.57 733.48 C 295.70 766.07 288.89 799.18 281.84 832.19 C 281.21 833.94 283.46 834.54 284.44 835.49 C 290.20 838.78 294.34 844.64 295.46 851.19 C 295.94 852.87 295.76 854.89 296.96 856.31 C 299.25 856.44 301.54 855.71 303.41 854.40 C 308.73 850.46 312.16 844.64 315.06 838.81 C 322.44 826.50 330.00 814.25 338.85 802.92 C 349.61 789.06 359.64 774.63 368.39 759.42 C 375.45 747.03 383.59 735.18 388.85 721.86 C 395.47 705.78 401.82 689.55 407.07 672.96 C 397.87 679.26 385.84 679.65 375.44 676.43 C 361.08 671.97 348.36 661.45 342.49 647.45 C 334.47 659.31 327.67 671.98 322.24 685.23 M 411.52 770.64 C 402.93 788.48 396.76 807.37 391.58 826.46 C 388.44 839.57 385.50 852.79 380.61 865.39 C 378.03 871.95 375.53 878.65 371.29 884.37 C 372.08 888.41 371.58 892.53 371.23 896.60 C 374.76 894.44 378.42 890.75 382.92 891.98 C 390.79 895.00 396.86 901.83 399.60 909.75 C 402.76 904.29 406.25 899.03 409.94 893.92 C 428.56 868.00 447.55 842.27 463.84 814.79 C 474.12 797.27 482.01 778.42 487.59 758.90 C 464.18 761.76 441.59 743.38 436.88 720.79 C 428.02 737.19 419.60 753.83 411.52 770.64 M 279.66 836.87 C 276.08 841.17 272.25 845.29 267.88 848.81 C 254.08 859.91 240.13 871.01 224.54 879.53 C 221.05 881.67 216.26 884.23 216.64 889.02 C 217.08 895.48 222.25 900.28 227.16 903.87 C 234.66 909.06 243.63 913.84 253.06 912.03 C 262.66 910.36 269.16 902.05 278.29 899.28 C 285.30 896.91 291.56 903.57 298.57 901.66 C 302.32 900.49 303.68 896.32 304.48 892.88 C 307.00 879.97 307.40 866.73 310.05 853.84 C 306.09 857.84 299.91 862.25 294.26 858.86 C 291.67 856.10 292.07 851.79 290.63 848.43 C 288.94 843.07 283.97 839.96 279.66 836.87 M 342.47 920.44 C 332.53 929.25 321.92 938.03 316.11 950.29 C 312.40 957.72 312.41 966.39 313.40 974.46 C 314.07 980.04 317.98 985.16 323.56 986.54 C 332.28 988.81 341.97 987.44 349.68 982.73 C 356.38 978.69 363.09 974.14 367.56 967.59 C 374.32 957.63 378.06 946.08 383.30 935.34 C 386.36 928.94 391.22 923.66 394.50 917.40 C 396.27 914.20 395.30 910.36 393.77 907.28 C 391.18 902.00 386.72 897.29 380.95 895.65 C 376.59 896.60 373.30 901.27 368.61 900.50 C 366.88 897.32 367.88 893.55 367.84 890.14 C 360.10 900.81 352.42 911.67 342.47 920.44 Z" />
		<path fill="#020202" opacity="1.00"
			d=" M 457.13 108.18 C 461.08 111.58 465.66 114.01 470.53 115.80 C 467.14 116.67 463.55 118.16 460.04 117.11 C 457.12 115.24 457.63 111.16 457.13 108.18 Z" />
		<path fill="#020202" opacity="1.00"
			d=" M 481.59 123.56 C 485.56 122.00 489.45 120.04 493.74 119.54 C 493.07 120.80 492.31 122.01 491.54 123.21 C 491.08 125.24 491.21 127.95 488.99 128.97 C 483.98 131.60 478.56 133.68 472.93 134.52 C 469.90 135.22 467.41 132.79 464.70 131.90 C 470.00 128.51 475.84 126.07 481.59 123.56 Z" />
		<path fill="#020202" opacity="1.00"
			d=" M 407.84 635.71 C 408.57 633.83 409.87 632.23 411.71 631.37 C 411.05 640.68 406.34 649.32 400.56 656.49 C 398.30 659.39 395.83 662.26 392.45 663.89 C 393.62 659.40 397.16 656.21 399.55 652.39 C 403.12 647.26 405.38 641.40 407.84 635.71 Z" />
	</g>
	<g id="#f0b58bff">
		<path fill="#f0b58b" opacity="1.00"
			d=" M 476.48 56.70 C 480.85 48.89 486.02 41.18 493.13 35.61 C 492.78 41.74 491.27 47.70 490.10 53.70 C 492.49 51.95 494.33 49.61 496.06 47.22 C 494.98 51.42 495.10 55.77 496.47 59.88 C 487.03 62.32 478.16 66.42 469.14 70.03 C 466.73 71.17 463.80 71.95 462.30 74.33 C 460.95 76.87 463.24 79.42 464.83 81.25 C 466.72 83.60 470.01 82.71 472.55 82.28 C 480.26 80.44 487.08 76.22 494.36 73.25 C 498.05 71.46 502.50 72.97 505.56 75.37 C 508.45 77.79 511.42 80.56 512.45 84.32 C 513.70 88.46 513.26 92.99 515.05 96.99 C 515.90 99.12 517.93 100.34 519.71 101.63 C 519.04 96.04 516.91 90.67 517.03 84.98 C 517.00 79.58 516.32 74.07 513.76 69.23 C 511.33 64.87 512.60 58.44 517.02 55.87 C 522.57 55.98 524.55 62.29 524.79 66.89 C 524.88 73.24 525.38 79.62 527.21 85.73 C 530.72 94.53 533.54 103.63 538.02 112.02 C 539.27 114.96 541.68 117.61 541.56 120.97 C 541.51 131.48 540.29 142.21 536.08 151.94 C 531.32 162.88 525.90 173.53 519.88 183.82 C 513.67 179.02 507.11 174.70 500.57 170.37 C 494.30 166.21 489.76 160.03 486.21 153.50 C 490.17 152.82 494.32 152.05 497.55 149.47 C 503.94 144.54 509.05 138.17 513.35 131.40 C 515.50 127.95 518.39 124.64 518.86 120.45 C 516.63 119.69 515.52 122.04 514.35 123.43 C 508.89 131.41 502.49 138.80 495.01 144.95 C 490.25 148.48 483.63 150.83 477.98 147.96 C 469.66 143.92 464.56 135.74 459.75 128.20 C 456.68 122.75 452.10 118.28 449.47 112.57 C 446.36 106.30 445.70 99.25 444.34 92.48 C 448.32 90.30 452.73 88.82 456.43 86.16 C 454.88 82.78 452.40 79.49 448.98 77.87 C 445.47 77.16 441.92 78.30 438.49 79.03 C 436.93 75.22 435.50 71.35 434.00 67.52 C 437.33 61.93 439.05 55.64 440.93 49.47 C 441.62 54.52 440.44 59.54 440.56 64.59 C 447.38 58.37 453.24 51.08 458.43 43.45 C 458.62 47.39 458.36 51.46 459.65 55.25 C 460.52 57.83 462.95 59.32 465.02 60.85 C 465.70 53.64 466.94 45.72 472.53 40.55 C 474.34 45.80 475.52 51.24 476.48 56.70 M 456.70 106.80 C 456.89 100.50 457.24 94.10 456.03 87.88 C 452.78 93.63 453.58 101.16 456.70 106.80 M 457.13 108.18 C 457.63 111.16 457.12 115.24 460.04 117.11 C 463.55 118.16 467.14 116.67 470.53 115.80 C 465.66 114.01 461.08 111.58 457.13 108.18 M 481.59 123.56 C 475.84 126.07 470.00 128.51 464.70 131.90 C 467.41 132.79 469.90 135.22 472.93 134.52 C 478.56 133.68 483.98 131.60 488.99 128.97 C 491.21 127.95 491.08 125.24 491.54 123.21 C 492.31 122.01 493.07 120.80 493.74 119.54 C 489.45 120.04 485.56 122.00 481.59 123.56 Z" />
		<path fill="#f0b58b" opacity="1.00"
			d=" M 785.52 189.49 C 790.71 185.59 796.35 181.51 803.00 180.83 C 808.22 180.94 812.65 184.20 817.20 186.42 C 816.10 187.03 815.01 187.64 813.92 188.25 C 808.17 186.56 802.16 183.58 796.07 185.19 C 793.26 185.99 793.66 189.88 795.62 191.40 C 800.02 195.37 805.37 198.19 810.91 200.23 C 809.83 201.00 808.79 201.79 807.75 202.59 C 803.09 202.67 798.40 202.68 793.86 203.75 C 793.88 199.37 793.95 194.97 793.20 190.64 C 789.29 194.78 789.58 200.97 790.14 206.23 C 788.82 207.84 786.76 209.62 787.68 211.96 C 788.67 214.79 790.81 217.00 792.61 219.34 C 790.03 219.35 787.40 219.22 784.93 220.03 C 780.29 221.52 775.11 220.61 770.70 222.93 C 770.97 223.32 771.51 224.09 771.78 224.47 C 775.14 225.26 778.64 224.69 782.05 224.47 C 786.33 231.77 795.45 233.95 803.19 235.44 C 804.96 235.66 809.71 236.22 807.57 233.22 C 800.77 229.65 792.80 228.49 786.56 223.77 C 794.27 223.57 801.97 225.18 809.19 227.84 C 811.78 228.98 815.28 230.62 815.19 233.96 C 815.02 237.39 810.73 237.80 808.14 238.36 C 799.75 238.96 791.30 238.21 782.92 239.14 C 777.59 239.79 772.12 238.77 767.81 235.45 C 767.14 236.65 766.47 237.85 765.84 239.07 C 757.84 242.93 749.47 245.91 741.28 249.30 C 733.51 252.43 725.41 255.18 716.99 255.57 C 714.19 255.78 711.63 254.11 710.26 251.77 C 707.92 248.18 704.94 244.58 704.74 240.10 C 704.34 235.59 705.93 231.28 706.65 226.90 C 702.56 230.80 701.78 236.84 701.95 242.21 C 702.11 245.82 704.37 248.77 706.15 251.74 C 693.67 240.28 680.76 229.23 669.05 216.96 C 668.99 206.88 673.91 197.08 681.62 190.69 C 687.53 186.08 694.72 183.44 701.99 181.89 C 708.66 188.23 715.12 194.79 721.71 201.23 C 715.70 203.96 710.46 208.43 706.89 213.97 C 705.73 215.47 705.89 217.31 706.39 219.03 C 708.48 218.46 709.55 216.44 710.95 214.96 C 715.35 209.83 721.07 205.24 727.90 204.11 C 732.96 203.86 737.97 204.93 743.04 204.92 C 750.62 205.42 758.20 204.76 765.80 204.87 C 764.21 209.78 763.94 215.00 764.42 220.11 C 764.40 222.02 766.11 223.14 767.28 224.41 C 767.66 218.63 768.38 212.81 770.25 207.31 C 773.49 200.05 779.20 194.18 785.52 189.49 Z" />
		<path fill="#f0b58b" opacity="1.00"
			d=" M 798.44 188.39 C 804.76 188.92 810.69 191.29 816.56 193.51 C 820.70 195.22 824.98 196.81 828.57 199.58 C 826.75 201.43 824.52 202.79 822.19 203.88 C 819.73 203.36 817.24 202.96 814.75 202.70 C 815.70 201.60 816.86 200.53 816.94 198.96 C 815.14 197.19 812.70 196.41 810.44 195.44 C 806.12 193.70 802.25 191.03 798.44 188.39 Z" />
		<path fill="#f0b58b" opacity="1.00"
			d=" M 796.68 207.44 C 804.07 207.11 811.58 206.15 818.92 207.53 C 823.45 208.90 821.65 214.81 819.65 217.68 C 812.15 213.93 804.27 211.00 796.68 207.44 Z" />
		<path fill="#f0b58b" opacity="1.00"
			d=" M 793.22 211.82 C 797.86 213.30 802.24 215.49 806.83 217.11 C 811.82 218.92 816.86 220.97 820.90 224.52 C 819.24 225.28 817.58 225.99 815.91 226.69 C 810.95 223.28 804.86 222.22 799.80 219.03 C 797.23 217.00 795.27 214.34 793.22 211.82 Z" />
		<path fill="#f0b58b" opacity="1.00"
			d=" M 518.73 294.03 C 522.82 291.26 528.13 290.00 532.80 292.12 C 538.64 294.69 544.59 297.98 548.57 303.10 C 547.12 306.04 543.87 304.12 541.67 303.31 C 534.02 300.23 527.01 295.33 518.73 294.03 Z" />
		<path fill="#f0b58b" opacity="1.00"
			d=" M 421.67 298.03 C 435.79 300.78 450.40 299.49 464.44 302.88 C 448.05 305.23 431.15 311.73 420.76 325.21 C 419.73 316.13 421.10 307.08 421.67 298.03 Z" />
		<path fill="#f0b58b" opacity="1.00"
			d=" M 503.53 299.76 C 506.82 299.25 510.12 298.67 513.32 297.67 C 523.35 301.16 533.37 306.62 539.18 315.85 C 532.63 315.03 526.80 311.84 521.01 308.92 C 515.18 305.86 509.42 302.69 503.53 299.76 Z" />
		<path fill="#f0b58b" opacity="1.00"
			d=" M 491.13 306.12 C 493.63 305.11 495.64 303.24 497.72 301.57 C 502.44 304.43 507.60 306.57 511.99 309.97 C 517.91 314.49 524.56 318.59 528.31 325.27 C 518.74 323.12 510.87 316.88 501.85 313.40 C 498.95 312.50 495.16 311.12 492.58 313.41 C 490.98 314.98 492.25 317.23 493.54 318.54 C 500.95 326.15 512.57 327.96 519.43 336.23 C 511.43 335.34 504.11 331.78 497.20 327.86 C 493.67 325.96 490.21 323.65 486.18 322.98 C 486.23 325.32 488.30 326.63 489.95 327.93 C 495.65 332.08 501.97 335.30 508.43 338.11 C 500.69 342.87 492.10 335.09 484.10 337.81 C 484.40 341.12 488.36 340.99 490.78 342.00 C 482.66 344.33 474.52 346.93 466.06 347.65 C 449.85 348.42 432.86 343.83 420.76 332.63 C 426.28 322.85 436.20 316.52 446.37 312.42 C 454.60 309.19 463.39 307.98 472.02 306.31 C 475.46 305.87 478.87 306.86 482.28 307.19 C 479.84 310.63 477.29 314.11 475.93 318.15 C 475.06 319.99 476.28 321.76 476.83 323.48 C 479.20 316.35 483.42 308.40 491.13 306.12 Z" />
		<path fill="#f0b58b" opacity="1.00"
			d=" M 375.39 559.13 C 392.95 562.36 410.34 568.47 424.71 579.29 C 434.86 586.81 444.95 594.44 455.65 601.17 C 445.50 616.27 431.25 627.80 419.20 641.25 C 413.04 648.04 410.27 656.96 408.47 665.76 C 403.49 671.54 395.40 673.60 388.02 673.43 C 369.63 672.54 352.48 660.77 344.48 644.27 C 347.50 639.12 350.32 633.83 352.44 628.24 C 353.34 633.98 352.35 640.87 356.81 645.35 C 356.67 635.98 355.31 626.63 355.52 617.24 C 358.00 607.38 359.82 597.28 363.82 587.88 C 367.69 578.30 370.29 568.16 375.39 559.13 M 407.84 635.71 C 405.38 641.40 403.12 647.26 399.55 652.39 C 397.16 656.21 393.62 659.40 392.45 663.89 C 395.83 662.26 398.30 659.39 400.56 656.49 C 406.34 649.32 411.05 640.68 411.71 631.37 C 409.87 632.23 408.57 633.83 407.84 635.71 Z" />
		<path fill="#f0b58b" opacity="1.00"
			d=" M 464.28 642.09 C 473.93 642.33 483.59 643.93 492.62 647.41 C 508.18 653.33 522.87 661.26 538.49 667.02 C 531.63 676.99 525.29 687.32 517.89 696.90 C 513.96 702.07 510.49 707.55 506.95 712.98 C 498.52 725.53 492.85 739.76 488.85 754.29 C 477.60 754.92 466.11 751.77 457.19 744.78 C 448.01 737.89 441.82 727.55 439.14 716.47 C 441.38 712.25 443.52 707.98 445.61 703.70 C 445.67 710.85 445.26 718.06 446.35 725.16 C 446.47 726.65 447.61 727.70 448.46 728.83 C 449.64 722.94 448.85 716.92 449.17 710.97 C 449.50 704.60 449.62 698.21 450.51 691.89 C 454.06 675.03 457.63 658.06 464.28 642.09 Z" />
	</g>
	<g id="#f11b27ff">
		<path fill="var(--shirt-color, grey)" opacity="1.00"
			d=" M 545.87 117.32 C 549.58 117.29 553.30 117.13 557.01 117.30 C 565.07 117.59 572.89 120.03 580.98 119.92 C 589.65 119.89 598.32 119.93 606.98 119.58 C 615.00 119.32 622.94 117.68 630.99 118.19 C 637.31 118.55 644.14 119.43 649.10 123.75 C 653.96 127.92 658.73 132.29 662.58 137.44 C 667.50 143.95 672.01 150.76 677.06 157.18 C 670.45 155.54 663.80 153.26 656.91 153.57 C 660.57 156.97 665.76 157.40 670.32 158.87 C 676.61 160.81 683.21 162.43 688.64 166.33 C 693.81 169.68 698.48 173.73 703.05 177.85 C 692.41 179.12 681.85 183.50 674.57 191.56 C 667.40 199.24 662.89 209.99 664.60 220.59 C 665.06 226.50 667.55 231.90 669.85 237.27 C 663.77 236.75 658.68 233.20 653.41 230.51 C 645.65 226.70 640.32 219.65 634.30 213.70 C 630.90 210.49 628.23 206.28 624.01 204.08 C 623.51 204.18 622.52 204.38 622.02 204.48 C 622.81 208.00 625.58 210.51 627.77 213.21 C 632.43 218.81 637.70 223.87 643.36 228.47 C 638.53 227.90 633.71 227.02 628.84 227.07 C 627.29 226.97 626.13 228.24 624.86 228.87 C 631.24 230.94 637.99 231.41 644.42 233.35 C 651.02 234.88 656.93 238.27 663.04 241.05 C 664.91 255.66 663.80 270.38 663.46 285.04 C 662.54 308.31 656.75 330.96 651.43 353.52 C 646.72 346.98 642.34 340.15 639.31 332.66 C 636.31 325.60 634.95 317.83 630.74 311.31 C 625.41 302.79 616.74 297.26 610.19 289.81 C 603.24 282.01 596.88 273.72 590.51 265.45 C 587.37 261.56 584.90 256.94 580.61 254.16 C 581.29 259.55 585.03 263.68 587.97 268.00 C 594.54 277.05 600.60 286.54 608.30 294.69 C 614.60 301.70 623.06 306.78 627.90 315.05 C 631.50 321.32 632.87 328.54 635.95 335.05 C 639.64 343.16 644.82 350.56 650.98 356.99 C 650.22 361.73 649.30 366.46 648.53 371.20 C 646.12 366.03 643.59 360.90 641.67 355.51 C 639.52 349.76 637.92 343.67 634.39 338.56 C 631.14 333.85 626.32 330.63 622.15 326.83 C 614.06 319.59 606.70 311.58 598.77 304.19 C 590.33 296.28 582.08 288.03 575.68 278.36 C 574.30 276.25 573.01 274.00 570.91 272.54 C 569.73 276.62 572.28 280.30 574.39 283.55 C 581.06 293.35 589.05 302.17 597.55 310.40 C 605.54 318.11 613.09 326.34 621.84 333.23 C 625.49 336.15 629.37 339.04 631.76 343.16 C 635.01 348.72 636.53 355.05 639.18 360.89 C 642.00 367.17 645.41 373.17 648.76 379.19 C 644.58 389.66 637.98 400.11 640.06 411.89 C 628.07 410.73 616.03 411.67 604.05 412.44 C 588.61 413.42 573.13 413.88 557.67 413.35 C 541.06 413.16 524.05 412.65 508.31 406.76 C 502.20 404.52 495.94 401.33 492.43 395.59 C 490.30 392.42 489.79 388.56 489.02 384.91 C 487.89 386.08 486.11 387.10 486.30 388.99 C 486.85 397.52 492.59 405.23 500.29 408.78 C 513.87 415.29 529.11 417.20 544.00 417.78 C 558.66 418.27 573.34 418.51 588.00 417.84 C 605.60 417.31 623.15 414.90 640.78 415.82 C 641.69 419.60 642.92 423.31 643.46 427.17 C 643.99 430.97 642.61 434.64 641.61 438.24 C 630.67 437.12 619.73 438.80 608.95 440.50 C 595.08 443.12 581.01 444.50 566.95 445.62 C 546.40 447.98 526.06 442.93 506.33 437.73 C 485.20 432.42 464.78 424.48 445.01 415.38 C 444.94 402.04 453.73 391.22 460.68 380.63 C 466.97 372.17 471.50 362.09 471.45 351.38 C 479.27 349.78 486.89 347.32 494.23 344.20 C 498.47 342.18 503.42 344.89 507.63 342.74 C 509.10 341.75 510.14 340.29 511.31 338.98 C 514.83 339.39 518.86 341.08 522.18 339.14 C 524.65 336.53 522.06 332.90 519.95 330.99 C 513.05 324.94 503.91 322.26 496.86 316.40 C 507.53 319.24 515.99 327.54 527.00 329.39 C 529.26 329.88 532.29 328.65 532.23 325.99 C 531.94 322.11 528.79 319.35 526.39 316.62 C 530.68 318.46 535.24 320.42 540.03 320.01 C 542.31 319.83 543.96 317.27 543.03 315.12 C 541.33 310.76 537.68 307.58 534.37 304.43 C 538.12 306.20 541.85 308.50 546.08 308.77 C 550.09 309.06 553.79 304.15 551.39 300.56 C 548.98 296.96 545.19 294.63 541.62 292.35 C 536.40 289.15 530.22 286.48 523.98 287.85 C 519.40 288.63 516.04 292.14 511.87 293.88 C 507.29 295.97 501.99 295.38 497.42 297.46 C 493.82 299.07 491.10 302.42 487.09 303.10 C 483.01 303.58 478.91 302.91 474.85 302.58 C 476.26 290.55 474.56 278.44 471.38 266.83 C 468.53 256.62 466.71 246.09 462.73 236.23 C 461.93 234.05 460.30 232.35 458.59 230.85 C 459.57 237.39 462.31 243.51 463.30 250.06 C 464.88 259.51 467.32 268.78 469.24 278.17 C 464.61 270.21 457.67 263.93 450.02 258.94 C 444.90 255.72 440.22 251.31 434.05 250.26 C 438.75 255.86 445.12 259.62 450.69 264.25 C 456.28 268.55 461.12 273.74 465.20 279.48 C 457.80 274.30 449.81 269.30 440.78 267.76 C 443.96 271.27 448.34 273.21 452.32 275.61 C 459.13 279.52 465.86 284.31 469.71 291.34 C 471.18 293.76 470.85 296.71 471.16 299.41 C 462.30 297.05 453.17 295.43 443.98 295.49 C 437.29 295.11 430.55 295.34 423.89 294.51 C 421.08 294.33 419.19 292.03 417.12 290.43 C 419.11 279.63 422.62 269.15 424.25 258.27 C 425.37 249.36 424.96 240.30 423.38 231.47 C 421.98 221.61 419.06 211.16 422.68 201.46 C 426.07 193.58 431.62 186.53 438.79 181.77 C 448.10 175.63 457.39 169.18 464.78 160.73 C 467.71 157.27 470.76 153.92 473.65 150.43 C 476.26 151.40 478.92 152.24 481.62 152.94 C 483.82 158.18 486.76 163.16 490.71 167.28 C 496.89 174.11 505.47 177.88 512.83 183.20 C 515.93 185.06 518.86 187.91 522.66 188.01 C 524.88 185.72 526.50 182.93 528.15 180.21 C 533.32 171.38 537.99 162.22 541.74 152.68 C 546.10 141.46 546.42 129.20 545.87 117.32 Z" />
		<path fill="var(--shirt-color, grey)" opacity="1.00"
			d=" M 669.33 223.86 C 672.49 226.97 675.66 230.07 678.88 233.11 C 676.82 234.17 674.72 235.17 672.62 236.12 C 671.26 232.11 670.15 228.02 669.33 223.86 Z" />
	</g>
	<g id="#ffffffff">
		<path fill="var(--pants-color, grey)" opacity="1.00"
			d=" M 428.23 433.30 C 432.32 427.49 440.12 426.00 444.21 420.15 C 465.28 429.93 487.35 437.58 509.83 443.41 C 526.54 447.63 543.61 451.88 560.99 450.90 C 570.40 450.44 579.81 449.70 589.18 448.62 C 605.23 446.86 621.04 442.89 637.25 442.57 C 637.06 447.49 638.72 453.17 635.38 457.39 C 629.37 465.98 626.52 476.21 624.23 486.31 C 620.46 500.31 619.64 514.92 615.61 528.87 C 610.35 547.48 603.86 565.83 595.17 583.15 C 590.52 592.80 585.88 602.47 581.39 612.20 C 575.06 624.21 568.69 636.20 561.87 647.94 C 558.40 654.11 554.32 660.02 552.15 666.83 C 536.94 662.44 522.85 655.11 508.53 648.51 C 500.23 644.92 491.91 641.15 483.00 639.34 C 475.05 637.53 466.82 637.44 458.71 637.98 C 459.32 634.28 459.43 630.53 459.98 626.83 C 464.12 607.43 469.39 588.23 476.95 569.86 C 486.73 545.07 500.73 522.29 514.66 499.68 C 517.35 495.23 520.42 490.94 521.99 485.93 C 517.57 489.31 514.83 494.24 511.73 498.75 C 502.64 512.54 494.07 526.67 485.93 541.05 C 475.66 559.62 467.90 579.54 462.48 600.05 C 455.51 594.75 447.98 590.23 441.04 584.90 C 431.75 578.06 422.71 570.68 412.16 565.83 C 398.77 559.54 384.23 555.28 369.42 554.50 C 373.99 543.49 377.16 531.95 381.62 520.88 C 388.39 503.65 394.71 485.84 405.94 470.89 C 411.04 464.06 416.31 457.35 422.00 451.00 C 423.39 449.33 425.24 447.55 424.91 445.16 C 424.40 440.94 425.69 436.68 428.23 433.30 Z" />
		<path fill="var(--socks-color, grey)" opacity="1.00"
			d=" M 322.24 685.23 C 327.67 671.98 334.47 659.31 342.49 647.45 C 348.36 661.45 361.08 671.97 375.44 676.43 C 385.84 679.65 397.87 679.26 407.07 672.96 C 401.82 689.55 395.47 705.78 388.85 721.86 C 383.59 735.18 375.45 747.03 368.39 759.42 C 359.64 774.63 349.61 789.06 338.85 802.92 C 330.00 814.25 322.44 826.50 315.06 838.81 C 312.16 844.64 308.73 850.46 303.41 854.40 C 301.54 855.71 299.25 856.44 296.96 856.31 C 295.76 854.89 295.94 852.87 295.46 851.19 C 294.34 844.64 290.20 838.78 284.44 835.49 C 283.46 834.54 281.21 833.94 281.84 832.19 C 288.89 799.18 295.70 766.07 304.57 733.48 C 309.66 717.11 315.71 701.06 322.24 685.23 Z" />
		<path fill="var(--socks-color, grey)" opacity="1.00"
			d=" M 411.52 770.64 C 419.60 753.83 428.02 737.19 436.88 720.79 C 441.59 743.38 464.18 761.76 487.59 758.90 C 482.01 778.42 474.12 797.27 463.84 814.79 C 447.55 842.27 428.56 868.00 409.94 893.92 C 406.25 899.03 402.76 904.29 399.60 909.75 C 396.86 901.83 390.79 895.00 382.92 891.98 C 378.42 890.75 374.76 894.44 371.23 896.60 C 371.58 892.53 372.08 888.41 371.29 884.37 C 375.53 878.65 378.03 871.95 380.61 865.39 C 385.50 852.79 388.44 839.57 391.58 826.46 C 396.76 807.37 402.93 788.48 411.52 770.64 Z" />
	</g>
	<g id="#4d4d4dff">
		<path fill="#4d4d4d" opacity="1.00"
			d=" M 279.66 836.87 C 283.97 839.96 288.94 843.07 290.63 848.43 C 292.07 851.79 291.67 856.10 294.26 858.86 C 299.91 862.25 306.09 857.84 310.05 853.84 C 307.40 866.73 307.00 879.97 304.48 892.88 C 303.68 896.32 302.32 900.49 298.57 901.66 C 291.56 903.57 285.30 896.91 278.29 899.28 C 269.16 902.05 262.66 910.36 253.06 912.03 C 243.63 913.84 234.66 909.06 227.16 903.87 C 222.25 900.28 217.08 895.48 216.64 889.02 C 216.26 884.23 221.05 881.67 224.54 879.53 C 240.13 871.01 254.08 859.91 267.88 848.81 C 272.25 845.29 276.08 841.17 279.66 836.87 Z" />
		<path fill="#4d4d4d" opacity="1.00"
			d=" M 342.47 920.44 C 352.42 911.67 360.10 900.81 367.84 890.14 C 367.88 893.55 366.88 897.32 368.61 900.50 C 373.30 901.27 376.59 896.60 380.95 895.65 C 386.72 897.29 391.18 902.00 393.77 907.28 C 395.30 910.36 396.27 914.20 394.50 917.40 C 391.22 923.66 386.36 928.94 383.30 935.34 C 378.06 946.08 374.32 957.63 367.56 967.59 C 363.09 974.14 356.38 978.69 349.68 982.73 C 341.97 987.44 332.28 988.81 323.56 986.54 C 317.98 985.16 314.07 980.04 313.40 974.46 C 312.41 966.39 312.40 957.72 316.11 950.29 C 321.92 938.03 332.53 929.25 342.47 920.44 Z" />
	</g>
</svg>