<?xml version="1.0" encoding="UTF-8" ?>
<!DOCTYPE svg PUBLIC "-//W3C//DTD SVG 1.1//EN" "http://www.w3.org/Graphics/SVG/1.1/DTD/svg11.dtd">
<svg width="1000pt" height="1000pt" viewBox="0 0 1000 1000" version="1.1" xmlns="http://www.w3.org/2000/svg">
	<g id="#020202ff">
		<path fill="#020202" opacity="1.00"
			d=" M 437.39 26.36 C 445.38 21.48 454.93 20.36 464.06 19.58 C 491.34 18.36 516.91 37.44 526.52 62.48 C 529.11 69.71 531.88 77.14 531.62 84.96 C 531.33 94.33 528.72 103.49 525.39 112.20 C 523.22 118.02 519.44 123.58 519.93 130.05 C 520.40 134.78 521.72 139.38 522.74 144.01 C 530.27 147.70 537.09 152.62 544.53 156.49 C 553.62 161.34 562.58 166.43 571.62 171.39 C 576.57 174.21 581.67 177.12 585.37 181.56 C 590.03 187.03 591.67 194.32 596.02 200.00 C 598.61 203.39 602.20 205.81 605.24 208.77 C 609.61 212.99 613.25 218.19 614.69 224.17 C 617.37 234.87 617.05 246.02 616.40 256.95 C 615.31 273.92 616.08 290.94 617.08 307.90 C 618.13 317.32 619.14 326.84 622.02 335.90 C 619.82 340.37 615.00 342.45 610.65 344.23 C 612.73 357.42 612.64 370.94 609.95 384.03 C 608.31 392.46 606.43 401.68 599.85 407.76 C 602.77 415.49 602.96 423.82 602.85 431.97 C 602.65 441.08 607.31 449.17 609.44 457.80 C 611.33 464.75 611.31 472.08 613.63 478.93 C 616.76 481.20 619.80 483.83 621.50 487.39 C 625.01 494.32 624.71 502.29 625.64 509.81 C 626.14 515.04 627.07 520.25 628.79 525.23 C 633.79 540.18 639.16 555.02 644.10 569.99 C 646.48 577.22 648.43 584.60 649.43 592.15 C 650.50 600.28 652.11 608.54 650.68 616.74 C 649.92 621.12 647.77 625.05 645.86 629.01 C 640.49 628.52 635.14 627.63 629.73 627.69 C 630.30 639.89 627.29 651.84 626.21 663.93 C 623.75 683.92 625.90 704.04 626.36 724.06 C 629.17 737.23 634.73 749.73 636.43 763.16 C 638.48 779.69 638.24 796.41 637.33 813.00 C 636.22 834.06 631.77 854.79 625.87 874.98 C 623.11 883.40 621.28 892.17 617.41 900.19 C 619.11 908.04 623.46 914.90 627.01 922.00 C 632.30 932.02 636.89 942.42 640.62 953.13 C 643.07 960.17 644.91 967.52 645.14 975.01 C 645.28 978.75 644.39 982.85 641.40 985.38 C 636.03 989.92 628.85 991.24 622.14 992.50 C 612.21 994.37 601.61 993.16 592.61 988.50 C 587.90 985.76 582.87 982.87 580.12 977.96 C 577.25 972.81 575.78 967.04 573.27 961.72 C 570.47 955.00 566.02 948.90 564.65 941.64 C 562.93 932.51 563.86 923.06 566.07 914.10 C 567.96 906.86 570.59 899.18 577.04 894.72 C 578.78 869.42 574.58 844.20 569.30 819.53 C 566.72 806.91 562.16 794.77 559.99 782.06 C 557.65 769.87 557.28 757.39 557.99 745.02 C 558.76 736.42 554.67 728.51 552.41 720.44 C 549.74 710.78 544.58 702.10 541.44 692.61 C 538.21 685.14 536.25 677.20 535.73 669.07 C 521.18 654.64 507.14 639.66 493.63 624.25 C 491.45 631.22 489.25 638.32 485.39 644.56 C 484.42 646.64 481.71 646.12 480.34 644.76 C 478.50 643.07 477.05 641.03 475.55 639.07 C 473.88 650.04 468.71 660.08 466.87 671.01 C 477.94 672.62 485.90 681.45 491.65 690.36 C 497.89 699.96 500.30 711.43 501.29 722.68 C 513.43 726.32 524.01 734.56 530.61 745.37 C 535.35 754.15 535.76 764.61 534.27 774.29 C 532.83 784.37 529.20 793.95 527.26 803.93 C 524.97 815.42 522.93 826.97 521.36 838.59 C 519.83 848.88 518.36 859.65 512.74 868.65 C 507.35 876.86 498.27 884.03 487.92 882.92 C 479.18 881.74 473.23 874.28 468.70 867.37 C 460.67 854.15 455.41 838.68 456.71 823.05 C 457.95 807.69 459.48 792.36 461.10 777.04 C 451.93 770.63 441.08 766.94 432.49 759.63 C 421.53 750.32 414.55 737.45 405.71 726.30 C 401.26 720.72 395.13 716.78 390.72 711.17 C 384.83 704.06 381.36 695.40 378.24 686.83 C 372.95 672.13 371.34 656.43 370.52 640.94 C 368.46 642.19 366.40 643.74 363.88 643.78 C 362.25 642.61 362.07 640.40 361.72 638.60 C 360.33 625.77 360.52 612.86 359.92 599.99 C 359.53 584.67 360.57 569.34 362.67 554.17 C 363.54 547.26 365.30 540.48 368.14 534.12 C 371.42 526.77 372.34 518.73 373.70 510.88 C 372.31 510.24 370.92 509.62 369.53 509.01 C 369.34 502.61 370.27 496.28 371.01 489.95 C 372.15 478.04 373.36 464.93 381.62 455.56 C 383.69 453.52 382.56 450.50 382.65 447.96 C 382.29 440.66 385.17 433.82 387.11 426.93 C 390.18 411.97 387.92 396.54 384.65 381.81 C 383.19 372.97 380.83 364.06 381.91 355.04 C 383.07 345.00 384.84 335.03 385.62 324.95 C 386.69 312.28 388.52 299.65 388.86 286.93 C 389.21 280.49 384.50 275.56 380.44 271.20 C 373.14 272.04 366.03 273.82 358.94 275.64 C 359.15 283.30 354.99 289.93 351.53 296.44 C 343.98 311.37 334.19 324.99 324.73 338.74 C 319.60 345.91 313.40 352.31 308.89 359.92 C 307.46 362.37 305.98 365.04 306.27 367.99 C 306.85 377.71 309.82 387.20 309.54 396.98 C 309.24 403.31 304.18 407.86 299.81 411.83 C 296.51 414.42 292.30 417.90 287.90 415.79 C 287.51 416.14 287.13 416.50 286.76 416.88 C 288.11 419.29 289.33 422.75 287.01 425.00 C 284.54 426.94 281.09 426.18 278.17 426.43 C 278.79 429.51 278.29 433.61 274.62 434.39 C 267.22 435.79 259.41 435.66 252.12 433.69 C 246.75 432.41 242.83 427.30 242.63 421.83 C 241.60 409.25 242.44 395.03 251.13 385.05 C 256.02 379.34 261.19 373.88 266.34 368.41 C 269.39 365.10 273.55 362.48 274.91 357.95 C 277.66 348.83 279.04 339.37 280.46 329.97 C 282.39 320.08 285.34 310.41 288.55 300.87 C 290.77 293.87 292.60 286.68 296.17 280.21 C 299.35 273.87 303.43 268.07 307.13 262.04 C 310.56 256.62 315.49 252.43 319.99 247.94 C 316.50 235.36 321.58 222.51 327.78 211.68 C 331.34 205.01 335.88 198.69 342.09 194.24 C 347.17 190.69 351.52 186.26 355.96 181.97 C 360.34 177.77 362.36 171.85 366.20 167.23 C 370.42 162.15 374.61 156.87 380.12 153.13 C 385.40 149.52 391.78 148.19 397.98 147.11 C 408.49 145.37 419.13 144.41 429.78 144.20 C 425.24 131.66 424.80 118.20 423.40 105.07 C 423.25 97.95 420.63 91.22 420.06 84.16 C 419.43 83.98 418.17 83.62 417.54 83.45 C 417.46 80.93 417.93 78.45 418.06 75.94 C 418.37 71.26 416.78 66.69 417.00 62.00 C 417.47 47.82 425.00 33.60 437.39 26.36 M 433.94 80.49 C 434.69 74.76 437.48 69.15 435.89 63.29 C 433.15 65.44 432.48 69.03 430.86 71.94 C 429.41 75.09 426.98 77.61 424.62 80.08 C 424.87 84.85 425.50 89.59 426.53 94.26 C 430.48 94.18 435.05 93.07 438.58 95.38 C 440.94 98.02 443.49 101.03 443.91 104.67 C 438.65 106.00 433.27 106.85 428.13 108.65 C 429.44 119.30 430.00 130.20 433.53 140.42 C 435.01 144.87 438.45 148.22 440.75 152.23 C 444.31 157.70 445.98 164.56 451.36 168.71 C 456.11 172.79 462.82 173.61 468.70 171.82 C 480.78 168.37 489.38 158.54 497.48 149.52 C 498.70 148.55 499.74 146.28 501.69 147.43 C 500.48 152.25 496.43 155.61 493.36 159.29 C 485.17 167.66 475.07 175.67 462.95 176.56 C 454.18 177.12 446.31 171.44 442.24 163.98 C 441.59 169.64 440.48 175.28 440.46 181.00 C 440.42 184.32 442.31 187.21 444.29 189.72 C 450.05 196.91 456.22 203.85 460.78 211.90 C 468.69 207.74 475.68 202.16 483.00 197.08 C 496.09 187.41 509.75 177.68 518.95 163.98 C 523.10 158.37 520.82 151.02 519.08 144.94 C 516.06 136.51 515.60 127.52 513.62 118.86 C 512.86 108.90 518.37 99.31 516.54 89.32 C 515.31 86.25 510.33 83.58 507.86 86.82 C 505.09 91.04 505.33 96.43 506.39 101.16 C 507.54 106.53 505.35 111.78 504.87 117.09 C 504.19 122.05 505.06 127.03 505.22 132.00 C 504.09 130.96 502.79 129.99 502.24 128.50 C 499.74 122.66 500.11 116.13 500.17 109.92 C 500.56 105.62 496.74 102.59 493.38 100.71 C 487.46 97.98 481.17 100.96 475.27 102.17 C 468.55 103.74 460.74 105.51 454.57 101.39 C 452.60 99.95 449.99 97.79 450.76 95.06 C 453.42 92.19 457.35 91.06 461.02 90.08 C 470.22 88.09 479.61 87.06 489.00 86.37 C 489.93 81.98 491.56 77.79 493.28 73.66 C 490.85 75.86 488.39 78.04 485.62 79.80 C 486.64 73.38 489.41 67.38 490.19 60.91 C 481.21 63.87 476.78 72.84 472.67 80.60 C 471.23 74.54 471.07 68.05 468.04 62.46 C 462.34 67.71 460.24 75.31 458.09 82.46 C 453.91 75.80 456.02 67.66 455.29 60.28 C 448.23 67.02 442.98 76.17 433.94 80.49 M 387.37 153.53 C 380.75 155.94 376.18 161.57 371.70 166.71 C 368.64 170.12 366.13 173.97 363.86 177.93 C 358.88 186.34 351.11 192.48 343.67 198.59 C 337.35 203.60 333.65 210.96 330.03 217.98 C 325.76 226.32 322.54 235.79 323.71 245.26 C 326.04 253.70 332.25 260.64 339.16 265.78 C 344.73 270.25 352.25 270.93 359.12 270.65 C 365.21 269.56 371.22 267.95 377.46 267.89 C 372.42 262.34 366.45 257.63 359.60 254.53 C 357.62 253.29 354.18 252.45 354.51 249.50 C 359.26 250.07 363.66 252.08 368.02 253.94 C 373.94 256.56 378.49 261.32 382.76 266.04 C 381.81 261.40 380.93 256.70 380.93 251.94 C 380.73 250.28 381.87 249.00 382.69 247.71 C 384.28 254.68 385.15 261.82 387.18 268.70 C 388.59 274.12 393.51 278.10 393.74 283.91 C 394.39 292.93 393.02 301.94 392.30 310.91 C 391.02 324.69 389.87 338.49 387.57 352.14 C 385.07 365.91 389.77 379.47 391.81 392.97 C 392.89 400.92 393.25 408.99 392.59 417.00 C 392.37 420.25 391.30 423.41 391.28 426.67 C 397.40 438.54 409.48 445.23 420.90 451.12 C 434.61 458.08 447.34 466.91 458.71 477.26 C 460.31 478.66 461.53 480.53 461.82 482.69 C 458.62 481.18 455.85 478.98 453.10 476.82 C 443.07 468.91 432.23 462.08 421.06 455.90 C 409.49 449.42 396.83 442.95 390.17 430.86 C 388.73 436.82 386.76 442.88 387.47 449.09 C 387.59 451.35 388.25 453.84 387.04 455.93 C 385.05 459.26 382.04 461.93 380.57 465.57 C 377.70 472.39 376.45 479.76 375.72 487.09 C 375.04 494.07 373.62 500.96 372.89 507.94 C 381.80 509.05 390.06 504.29 398.95 504.83 C 410.78 504.77 421.89 509.14 433.25 511.77 C 440.82 513.60 448.25 516.26 456.10 516.69 C 468.62 517.35 481.24 516.59 493.58 514.35 C 503.58 512.54 512.79 508.09 522.01 503.99 C 536.96 497.56 551.62 490.43 567.01 485.06 C 573.08 482.81 579.47 481.66 585.65 479.76 C 592.92 477.56 600.57 477.63 608.09 477.51 C 607.26 473.86 606.64 470.16 606.13 466.46 C 586.87 458.19 565.46 460.21 545.04 459.21 C 531.90 458.40 518.49 458.32 505.83 454.29 C 497.01 451.52 488.08 448.67 480.16 443.79 C 478.53 442.89 477.32 441.45 476.84 439.64 C 478.98 439.27 480.89 440.38 482.76 441.24 C 490.51 445.05 498.85 447.43 507.05 450.07 C 518.98 453.91 531.63 454.06 544.01 454.95 C 564.59 456.01 586.15 454.10 605.56 462.42 C 604.13 456.41 601.95 450.62 600.15 444.73 C 598.50 439.32 598.30 433.63 598.61 428.03 C 598.93 421.79 598.23 415.58 597.29 409.43 C 593.12 411.31 588.68 412.80 584.05 412.78 C 571.62 412.86 559.33 409.80 547.86 405.16 C 538.48 401.35 528.90 397.89 520.05 392.90 C 503.38 383.29 485.39 376.20 468.85 366.34 C 467.33 368.09 465.63 370.05 463.08 370.01 C 454.67 370.50 446.56 366.72 439.85 361.93 C 439.12 363.43 439.13 365.88 436.99 366.04 C 431.66 366.29 426.50 363.77 422.40 360.53 C 419.89 358.70 419.39 355.47 418.56 352.70 C 415.18 349.02 416.77 343.83 418.57 339.81 C 415.81 336.44 416.86 332.18 417.80 328.34 C 416.12 325.59 413.40 322.72 414.22 319.24 C 415.41 315.51 419.54 314.24 422.79 312.89 C 429.30 310.71 435.02 306.35 441.95 305.44 C 446.54 304.82 451.84 305.25 455.33 308.65 C 462.81 316.24 465.15 327.14 471.48 335.50 C 476.27 341.71 484.78 342.24 491.97 342.94 C 505.67 344.30 519.21 340.76 532.90 341.20 C 526.38 337.96 520.44 333.72 514.58 329.43 C 500.26 319.24 486.89 307.81 473.20 296.80 C 470.80 294.94 468.63 292.80 466.86 290.33 C 473.25 291.56 477.80 296.54 482.92 300.15 C 497.58 311.92 512.93 322.77 528.17 333.77 C 535.46 339.08 544.07 342.19 552.76 344.29 C 553.15 342.65 553.54 341.01 553.94 339.37 C 550.62 338.19 547.30 337.03 543.98 335.87 C 541.50 318.62 537.04 301.70 531.67 285.15 C 529.65 278.10 532.69 270.97 535.77 264.73 C 539.76 257.19 544.26 249.93 548.75 242.68 C 551.39 238.67 553.56 234.10 557.80 231.49 C 557.31 233.88 556.68 236.28 555.45 238.41 C 550.17 247.87 544.28 257.03 540.07 267.04 C 537.51 272.99 534.63 279.48 536.76 286.04 C 540.56 275.44 548.51 267.03 557.19 260.18 C 558.77 258.76 560.84 258.32 562.91 258.32 C 559.81 262.69 555.43 265.88 551.95 269.92 C 547.73 274.80 543.51 279.86 540.94 285.84 C 539.89 288.40 538.64 291.26 539.82 294.01 C 543.62 307.00 547.23 320.26 547.11 333.91 C 551.94 334.71 556.79 335.66 561.36 337.50 C 568.73 340.42 575.97 344.32 583.99 345.03 C 595.59 344.85 606.50 340.27 616.98 335.72 C 611.90 312.87 611.20 289.36 611.55 266.03 C 611.82 254.69 613.26 243.31 611.80 231.99 C 611.16 226.08 609.51 220.04 605.49 215.49 C 601.88 210.78 596.46 207.95 592.70 203.41 C 587.30 196.99 586.00 187.97 579.74 182.19 C 575.13 177.86 569.31 175.20 563.91 172.03 C 556.32 167.63 548.80 163.11 541.15 158.82 C 535.17 155.40 529.78 151.10 524.02 147.35 C 524.52 150.59 525.23 153.81 525.45 157.09 C 525.67 160.46 524.14 163.62 522.47 166.45 C 518.66 172.77 513.41 178.05 508.14 183.16 C 495.98 194.75 481.29 203.09 467.69 212.80 C 465.29 214.04 462.83 216.46 460.01 215.94 C 453.58 208.06 447.38 199.94 441.27 191.79 C 438.93 188.71 437.22 184.99 437.46 181.04 C 437.73 174.13 439.20 167.35 440.45 160.57 C 437.79 155.73 434.59 151.21 431.21 146.85 C 416.73 149.83 401.50 148.71 387.37 153.53 M 316.85 257.87 C 306.84 269.31 298.24 282.46 294.26 297.27 C 291.05 308.65 287.07 319.84 284.76 331.46 C 283.33 341.05 282.46 350.87 278.96 359.99 C 274.95 368.47 267.12 374.13 260.81 380.79 C 256.63 385.33 251.15 389.07 248.91 395.06 C 245.62 403.28 245.26 412.39 246.26 421.09 C 246.64 425.27 249.53 429.29 253.83 430.05 C 260.51 431.30 267.37 430.81 274.09 430.16 C 274.08 428.71 274.08 427.27 274.09 425.84 C 268.87 424.43 263.45 423.12 258.88 420.12 C 254.46 416.90 254.87 410.84 254.88 405.99 C 255.22 400.10 254.69 393.90 257.14 388.38 C 259.51 396.69 256.89 405.56 258.68 413.98 C 259.02 415.78 260.38 417.18 262.07 417.81 C 269.26 420.69 276.96 422.78 284.77 422.18 C 283.44 414.46 272.95 418.25 269.93 412.09 C 267.94 408.24 267.27 403.55 268.34 399.35 C 272.72 394.09 279.19 391.05 285.40 388.49 C 287.47 387.84 290.91 386.23 292.09 388.99 C 294.84 396.45 291.69 404.20 290.24 411.57 C 294.17 409.57 297.79 406.98 300.85 403.81 C 302.92 401.72 304.73 399.02 304.59 395.95 C 304.45 386.56 301.69 377.42 301.52 368.02 C 301.44 365.15 302.44 362.39 303.86 359.94 C 309.83 349.19 318.54 340.34 325.06 329.96 C 333.29 318.31 341.21 306.38 347.61 293.60 C 350.75 287.84 354.04 282.08 355.63 275.65 C 350.54 275.01 345.19 274.88 340.58 272.39 C 332.55 268.31 327.42 260.50 322.77 253.10 C 320.62 254.46 318.47 255.88 316.85 257.87 M 437.18 310.21 C 430.16 312.80 423.77 316.77 417.01 319.93 C 417.87 321.78 418.81 323.60 419.82 325.38 C 427.39 322.80 433.56 317.39 441.05 314.68 C 440.67 316.25 440.03 317.80 438.56 318.66 C 433.00 322.72 427.07 326.40 420.62 328.88 C 420.45 331.52 420.35 334.17 420.55 336.81 C 426.59 336.34 431.39 332.49 436.23 329.28 C 437.26 328.41 438.62 328.46 439.89 328.40 C 436.00 335.17 428.43 339.81 420.67 340.49 C 419.75 343.45 419.26 346.54 419.57 349.65 C 425.61 349.27 430.08 344.98 434.81 341.76 C 435.96 340.68 437.47 341.22 438.83 341.44 C 434.50 347.33 428.15 352.04 420.79 353.11 C 422.93 359.42 430.06 361.16 435.76 362.74 C 433.51 359.96 430.24 355.33 433.81 352.22 C 436.08 351.63 435.28 354.66 435.95 355.87 C 444.28 361.28 453.71 366.70 464.01 365.78 C 464.96 364.45 465.42 362.51 467.03 361.81 C 469.88 362.11 472.13 364.11 474.59 365.40 C 490.10 374.25 506.67 381.03 522.39 389.49 C 531.19 394.58 540.79 397.98 550.15 401.85 C 560.56 406.09 571.71 408.68 582.97 408.83 C 589.01 408.88 595.42 407.22 599.83 402.89 C 602.42 399.34 603.59 394.96 604.77 390.79 C 607.99 375.98 610.10 360.59 607.37 345.52 C 600.20 348.16 592.62 349.77 584.99 350.17 C 575.02 349.74 566.13 344.58 557.23 340.59 C 556.97 342.09 556.71 343.60 556.46 345.11 C 564.51 347.32 572.19 350.66 579.65 354.37 C 582.65 355.94 586.23 357.14 587.83 360.41 C 583.02 359.77 578.80 357.28 574.36 355.53 C 561.88 350.15 548.63 346.40 535.04 345.42 C 528.00 344.94 520.97 345.63 513.98 346.44 C 502.56 347.73 490.81 348.27 479.55 345.54 C 474.69 344.46 470.38 341.49 467.46 337.48 C 461.49 329.36 459.25 319.00 452.51 311.39 C 448.33 307.72 442.08 308.66 437.18 310.21 M 271.18 402.79 C 272.00 405.67 271.85 409.36 274.29 411.46 C 277.98 412.59 282.11 412.76 285.19 415.40 C 285.54 414.88 285.88 414.35 286.21 413.83 C 285.82 405.93 290.30 398.67 289.31 390.70 C 282.80 393.84 275.33 396.46 271.18 402.79 M 583.56 484.27 C 557.10 490.19 533.52 504.12 508.64 514.32 C 496.99 519.06 484.35 520.33 471.92 521.09 C 462.51 521.47 452.93 521.66 443.76 519.17 C 435.20 516.80 426.51 514.94 418.02 512.34 C 410.88 510.15 403.42 508.96 395.95 509.08 C 389.30 509.21 382.87 511.87 376.18 511.15 C 377.33 520.16 375.06 529.19 371.45 537.40 C 367.66 545.95 366.93 555.37 365.90 564.55 C 364.55 577.66 363.92 590.87 364.51 604.05 C 364.83 616.30 364.91 628.55 365.42 640.79 C 369.23 637.18 372.12 632.12 377.49 630.62 C 394.86 624.48 412.55 618.14 431.07 616.83 C 443.68 616.36 457.35 617.37 468.00 624.88 C 474.31 628.97 477.83 635.85 482.43 641.58 C 484.47 636.48 486.65 631.43 488.29 626.19 C 489.08 623.58 490.31 621.13 492.07 619.05 C 495.85 620.61 498.35 623.99 501.22 626.74 C 513.51 639.41 525.55 652.33 537.18 665.61 C 541.82 661.30 547.03 657.68 552.38 654.31 C 565.38 646.12 578.79 638.40 593.23 633.03 C 608.29 627.15 624.58 622.90 640.85 625.20 C 644.52 620.23 645.96 614.10 645.60 607.98 C 645.06 597.92 644.16 587.77 641.37 578.05 C 636.22 560.10 628.71 542.97 622.81 525.28 C 619.38 515.51 620.06 504.98 618.55 494.87 C 617.86 489.66 614.94 484.29 609.82 482.34 C 601.08 480.43 592.04 481.84 583.56 484.27 M 415.37 623.58 C 401.64 627.17 388.06 631.43 374.82 636.52 C 376.17 654.38 377.34 672.69 384.45 689.37 C 387.79 698.28 392.48 706.93 399.83 713.17 C 405.40 717.80 410.01 723.43 413.67 729.66 C 425.22 733.26 437.59 729.70 447.65 723.69 C 462.93 714.43 474.85 699.39 479.46 682.05 C 475.68 678.60 471.23 676.01 466.45 674.22 C 465.80 679.93 466.25 685.67 466.15 691.40 C 462.53 688.81 462.73 683.99 462.19 680.04 C 461.00 664.28 469.47 650.19 472.88 635.23 C 468.26 629.04 461.31 624.87 453.89 622.96 C 441.29 619.73 427.88 620.17 415.37 623.58 M 577.06 644.04 C 564.11 650.98 551.23 658.22 539.48 667.08 C 540.27 673.13 540.85 679.31 543.10 685.05 C 545.82 692.19 548.34 699.42 551.71 706.29 C 555.46 714.07 557.28 722.58 560.45 730.58 C 564.48 738.27 568.75 745.92 574.32 752.63 C 575.75 754.43 577.27 756.31 577.65 758.67 C 570.61 755.35 566.55 748.19 562.49 741.91 C 562.13 750.03 561.95 758.17 562.43 766.30 C 574.06 771.89 587.45 772.53 600.03 770.52 C 611.36 768.58 622.92 764.31 630.74 755.52 C 629.44 748.86 627.38 742.38 625.75 735.79 C 624.96 742.21 623.33 748.60 620.36 754.37 C 619.49 755.47 618.37 757.93 616.62 756.56 C 623.70 735.03 620.32 712.16 619.89 689.99 C 619.42 669.08 624.20 648.62 626.36 627.94 C 609.13 630.27 592.58 636.33 577.06 644.04 M 483.33 686.29 C 478.40 703.64 466.28 718.68 450.78 727.78 C 440.60 733.86 428.19 737.09 416.46 734.16 C 421.41 740.31 425.80 746.97 431.81 752.18 C 443.84 764.20 461.23 768.70 473.12 780.90 C 477.37 784.79 479.98 790.28 484.95 793.39 C 498.21 786.62 506.05 771.64 506.09 757.01 C 506.70 750.59 502.90 745.11 500.81 739.34 C 496.10 728.79 497.33 716.85 493.85 705.97 C 491.82 698.72 487.87 692.22 483.33 686.29 M 501.67 726.30 C 502.66 733.74 505.68 740.62 508.53 747.47 C 514.54 765.86 505.35 787.25 488.63 796.55 C 484.53 798.99 479.74 796.27 477.01 793.05 C 473.14 788.46 469.34 783.79 464.75 779.88 C 463.90 791.91 462.61 803.90 461.54 815.91 C 460.96 822.37 460.45 828.92 461.38 835.39 C 462.73 844.35 466.03 852.90 470.14 860.94 C 472.91 866.19 476.35 871.19 480.80 875.18 C 483.57 877.52 487.12 879.73 490.91 879.06 C 496.80 877.88 502.00 874.36 505.80 869.78 C 511.69 863.26 513.65 854.37 515.11 845.97 C 517.51 831.09 519.07 816.06 522.12 801.29 C 524.10 791.46 527.59 781.98 528.95 772.03 C 530.07 763.97 529.82 755.30 526.00 747.95 C 520.56 738.21 511.23 731.60 501.67 726.30 M 604.22 774.11 C 590.47 776.95 575.71 776.25 562.77 770.55 C 563.85 779.49 565.59 788.35 568.15 796.99 C 571.84 809.50 574.95 822.19 577.09 835.07 C 580.71 854.51 582.73 874.34 581.69 894.11 C 580.82 900.30 578.83 906.77 581.06 912.92 C 581.71 914.30 583.13 916.17 584.89 915.57 C 586.98 914.16 588.66 912.24 590.63 910.68 C 596.66 905.63 604.44 903.18 612.14 902.20 C 615.03 896.37 616.86 890.11 618.58 883.85 C 625.56 861.47 631.02 838.45 632.58 815.01 C 633.92 796.70 634.09 778.22 631.67 759.99 C 624.47 767.70 614.39 772.00 604.22 774.11 M 568.48 940.88 C 570.08 948.54 575.13 954.83 577.81 962.09 C 581.01 969.13 582.27 978.16 589.64 982.28 C 598.52 987.03 608.77 989.83 618.88 988.43 C 625.22 987.50 631.80 986.56 637.45 983.35 C 640.50 981.80 640.99 978.05 640.83 975.00 C 640.11 962.59 635.11 950.99 630.42 939.65 C 625.62 927.88 618.23 917.24 614.61 904.98 C 607.72 906.95 600.37 908.21 594.43 912.49 C 591.01 914.75 588.13 918.12 584.02 919.13 C 580.91 918.98 578.26 916.66 577.16 913.85 C 575.31 909.37 575.75 904.41 575.85 899.69 C 569.41 912.26 565.99 926.80 568.48 940.88 Z" />
		<path fill="#020202" opacity="1.00"
			d=" M 440.07 124.63 C 438.22 118.44 438.86 111.69 442.68 106.37 C 443.71 112.63 440.26 118.41 440.07 124.63 Z" />
		<path fill="#020202" opacity="1.00"
			d=" M 440.67 136.31 C 438.50 133.65 440.20 129.95 440.45 126.92 C 443.81 130.64 447.60 133.94 451.91 136.53 C 448.31 137.21 443.82 139.05 440.67 136.31 Z" />
		<path fill="#020202" opacity="1.00"
			d=" M 449.90 150.57 C 457.31 148.97 464.73 147.28 472.28 146.45 C 475.18 146.27 473.00 149.14 471.49 149.52 C 470.04 151.41 468.31 153.26 465.89 153.81 C 461.33 155.12 456.69 156.27 452.00 157.03 C 449.80 157.80 448.79 155.58 447.60 154.26 C 445.76 154.11 443.96 153.76 442.22 153.18 C 444.63 151.92 447.23 151.10 449.90 150.57 Z" />
		<path fill="#020202" opacity="1.00"
			d=" M 360.19 227.96 C 363.80 224.21 369.31 225.61 373.40 227.72 C 384.87 233.59 395.13 241.74 403.65 251.39 C 405.25 253.33 407.18 255.42 407.00 258.14 C 405.45 259.10 404.50 257.26 403.47 256.51 C 394.03 246.45 383.43 237.31 371.41 230.46 C 368.04 228.35 364.04 228.10 360.19 227.96 Z" />
		<path fill="#020202" opacity="1.00"
			d=" M 386.22 469.73 C 384.90 467.32 386.11 463.54 389.09 463.23 C 393.73 462.61 399.40 466.19 398.93 471.32 C 395.73 469.13 392.64 466.05 388.40 466.59 C 393.64 475.52 404.73 477.88 414.11 479.90 C 431.87 483.15 448.51 490.34 465.33 496.62 C 467.76 497.46 470.02 498.76 471.63 500.80 C 465.86 501.27 460.68 498.27 455.31 496.71 C 443.19 492.90 431.46 487.82 419.01 485.14 C 410.49 483.08 401.44 481.94 393.95 477.07 C 391.01 475.09 387.92 472.93 386.22 469.73 Z" />
	</g>
	<g id="#f0b58bff">
		<path fill="#f0b58b" opacity="1.00"
			d=" M 433.94 80.49 C 442.98 76.17 448.23 67.02 455.29 60.28 C 456.02 67.66 453.91 75.80 458.09 82.46 C 460.24 75.31 462.34 67.71 468.04 62.46 C 471.07 68.05 471.23 74.54 472.67 80.60 C 476.78 72.84 481.21 63.87 490.19 60.91 C 489.41 67.38 486.64 73.38 485.62 79.80 C 488.39 78.04 490.85 75.86 493.28 73.66 C 491.56 77.79 489.93 81.98 489.00 86.37 C 479.61 87.06 470.22 88.09 461.02 90.08 C 457.35 91.06 453.42 92.19 450.76 95.06 C 449.99 97.79 452.60 99.95 454.57 101.39 C 460.74 105.51 468.55 103.74 475.27 102.17 C 481.17 100.96 487.46 97.98 493.38 100.71 C 496.74 102.59 500.56 105.62 500.17 109.92 C 500.11 116.13 499.74 122.66 502.24 128.50 C 502.79 129.99 504.09 130.96 505.22 132.00 C 505.06 127.03 504.19 122.05 504.87 117.09 C 505.35 111.78 507.54 106.53 506.39 101.16 C 505.33 96.43 505.09 91.04 507.86 86.82 C 510.33 83.58 515.31 86.25 516.54 89.32 C 518.37 99.31 512.86 108.90 513.62 118.86 C 515.60 127.52 516.06 136.51 519.08 144.94 C 520.82 151.02 523.10 158.37 518.95 163.98 C 509.75 177.68 496.09 187.41 483.00 197.08 C 475.68 202.16 468.69 207.74 460.78 211.90 C 456.22 203.85 450.05 196.91 444.29 189.72 C 442.31 187.21 440.42 184.32 440.46 181.00 C 440.48 175.28 441.59 169.64 442.24 163.98 C 446.31 171.44 454.18 177.12 462.95 176.56 C 475.07 175.67 485.17 167.66 493.36 159.29 C 496.43 155.61 500.48 152.25 501.69 147.43 C 499.74 146.28 498.70 148.55 497.48 149.52 C 489.38 158.54 480.78 168.37 468.70 171.82 C 462.82 173.61 456.11 172.79 451.36 168.71 C 445.98 164.56 444.31 157.70 440.75 152.23 C 438.45 148.22 435.01 144.87 433.53 140.42 C 430.00 130.20 429.44 119.30 428.13 108.65 C 433.27 106.85 438.65 106.00 443.91 104.67 C 443.49 101.03 440.94 98.02 438.58 95.38 C 435.05 93.07 430.48 94.18 426.53 94.26 C 425.50 89.59 424.87 84.85 424.62 80.08 C 426.98 77.61 429.41 75.09 430.86 71.94 C 432.48 69.03 433.15 65.44 435.89 63.29 C 437.48 69.15 434.69 74.76 433.94 80.49 M 440.07 124.63 C 440.26 118.41 443.71 112.63 442.68 106.37 C 438.86 111.69 438.22 118.44 440.07 124.63 M 440.67 136.31 C 443.82 139.05 448.31 137.21 451.91 136.53 C 447.60 133.94 443.81 130.64 440.45 126.92 C 440.20 129.95 438.50 133.65 440.67 136.31 M 449.90 150.57 C 447.23 151.10 444.63 151.92 442.22 153.18 C 443.96 153.76 445.76 154.11 447.60 154.26 C 448.79 155.58 449.80 157.80 452.00 157.03 C 456.69 156.27 461.33 155.12 465.89 153.81 C 468.31 153.26 470.04 151.41 471.49 149.52 C 473.00 149.14 475.18 146.27 472.28 146.45 C 464.73 147.28 457.31 148.97 449.90 150.57 Z" />
		<path fill="#f0b58b" opacity="1.00"
			d=" M 316.85 257.87 C 318.47 255.88 320.62 254.46 322.77 253.10 C 327.42 260.50 332.55 268.31 340.58 272.39 C 345.19 274.88 350.54 275.01 355.63 275.65 C 354.04 282.08 350.75 287.84 347.61 293.60 C 341.21 306.38 333.29 318.31 325.06 329.96 C 318.54 340.34 309.83 349.19 303.86 359.94 C 302.44 362.39 301.44 365.15 301.52 368.02 C 301.69 377.42 304.45 386.56 304.59 395.95 C 304.73 399.02 302.92 401.72 300.85 403.81 C 297.79 406.98 294.17 409.57 290.24 411.57 C 291.69 404.20 294.84 396.45 292.09 388.99 C 290.91 386.23 287.47 387.84 285.40 388.49 C 279.19 391.05 272.72 394.09 268.34 399.35 C 267.27 403.55 267.94 408.24 269.93 412.09 C 272.95 418.25 283.44 414.46 284.77 422.18 C 276.96 422.78 269.26 420.69 262.07 417.81 C 260.38 417.18 259.02 415.78 258.68 413.98 C 256.89 405.56 259.51 396.69 257.14 388.38 C 254.69 393.90 255.22 400.10 254.88 405.99 C 254.87 410.84 254.46 416.90 258.88 420.12 C 263.45 423.12 268.87 424.43 274.09 425.84 C 274.08 427.27 274.08 428.71 274.09 430.16 C 267.37 430.81 260.51 431.30 253.83 430.05 C 249.53 429.29 246.64 425.27 246.26 421.09 C 245.26 412.39 245.62 403.28 248.91 395.06 C 251.15 389.07 256.63 385.33 260.81 380.79 C 267.12 374.13 274.95 368.47 278.96 359.99 C 282.46 350.87 283.33 341.05 284.76 331.46 C 287.07 319.84 291.05 308.65 294.26 297.27 C 298.24 282.46 306.84 269.31 316.85 257.87 Z" />
		<path fill="#f0b58b" opacity="1.00"
			d=" M 437.18 310.21 C 442.08 308.66 448.33 307.72 452.51 311.39 C 459.25 319.00 461.49 329.36 467.46 337.48 C 470.38 341.49 474.69 344.46 479.55 345.54 C 490.81 348.27 502.56 347.73 513.98 346.44 C 520.97 345.63 528.00 344.94 535.04 345.42 C 548.63 346.40 561.88 350.15 574.36 355.53 C 578.80 357.28 583.02 359.77 587.83 360.41 C 586.23 357.14 582.65 355.94 579.65 354.37 C 572.19 350.66 564.51 347.32 556.46 345.11 C 556.71 343.60 556.97 342.09 557.23 340.59 C 566.13 344.58 575.02 349.74 584.99 350.17 C 592.62 349.77 600.20 348.16 607.37 345.52 C 610.10 360.59 607.99 375.98 604.77 390.79 C 603.59 394.96 602.42 399.34 599.83 402.89 C 595.42 407.22 589.01 408.88 582.97 408.83 C 571.71 408.68 560.56 406.09 550.15 401.85 C 540.79 397.98 531.19 394.58 522.39 389.49 C 506.67 381.03 490.10 374.25 474.59 365.40 C 472.13 364.11 469.88 362.11 467.03 361.81 C 465.42 362.51 464.96 364.45 464.01 365.78 C 453.71 366.70 444.28 361.28 435.95 355.87 C 435.28 354.66 436.08 351.63 433.81 352.22 C 430.24 355.33 433.51 359.96 435.76 362.74 C 430.06 361.16 422.93 359.42 420.79 353.11 C 428.15 352.04 434.50 347.33 438.83 341.44 C 437.47 341.22 435.96 340.68 434.81 341.76 C 430.08 344.98 425.61 349.27 419.57 349.65 C 419.26 346.54 419.75 343.45 420.67 340.49 C 428.43 339.81 436.00 335.17 439.89 328.40 C 438.62 328.46 437.26 328.41 436.23 329.28 C 431.39 332.49 426.59 336.34 420.55 336.81 C 420.35 334.17 420.45 331.52 420.62 328.88 C 427.07 326.40 433.00 322.72 438.56 318.66 C 440.03 317.80 440.67 316.25 441.05 314.68 C 433.56 317.39 427.39 322.80 419.82 325.38 C 418.81 323.60 417.87 321.78 417.01 319.93 C 423.77 316.77 430.16 312.80 437.18 310.21 Z" />
		<path fill="#f0b58b" opacity="1.00"
			d=" M 415.37 623.58 C 427.88 620.17 441.29 619.73 453.89 622.96 C 461.31 624.87 468.26 629.04 472.88 635.23 C 469.47 650.19 461.00 664.28 462.19 680.04 C 462.73 683.99 462.53 688.81 466.15 691.40 C 466.25 685.67 465.80 679.93 466.45 674.22 C 471.23 676.01 475.68 678.60 479.46 682.05 C 474.85 699.39 462.93 714.43 447.65 723.69 C 437.59 729.70 425.22 733.26 413.67 729.66 C 410.01 723.43 405.40 717.80 399.83 713.17 C 392.48 706.93 387.79 698.28 384.45 689.37 C 377.34 672.69 376.17 654.38 374.82 636.52 C 388.06 631.43 401.64 627.17 415.37 623.58 Z" />
		<path fill="#f0b58b" opacity="1.00"
			d=" M 577.06 644.04 C 592.58 636.33 609.13 630.27 626.36 627.94 C 624.20 648.62 619.42 669.08 619.89 689.99 C 620.32 712.16 623.70 735.03 616.62 756.56 C 618.37 757.93 619.49 755.47 620.36 754.37 C 623.33 748.60 624.96 742.21 625.75 735.79 C 627.38 742.38 629.44 748.86 630.74 755.52 C 622.92 764.31 611.36 768.58 600.03 770.52 C 587.45 772.53 574.06 771.89 562.43 766.30 C 561.95 758.17 562.13 750.03 562.49 741.91 C 566.55 748.19 570.61 755.35 577.65 758.67 C 577.27 756.31 575.75 754.43 574.32 752.63 C 568.75 745.92 564.48 738.27 560.45 730.58 C 557.28 722.58 555.46 714.07 551.71 706.29 C 548.34 699.42 545.82 692.19 543.10 685.05 C 540.85 679.31 540.27 673.13 539.48 667.08 C 551.23 658.22 564.11 650.98 577.06 644.04 Z" />
	</g>
	<g id="#f11b27ff">
		<path fill="var(--shirt-color, grey)" opacity="1.00"
			d=" M 387.37 153.53 C 401.50 148.71 416.73 149.83 431.21 146.85 C 434.59 151.21 437.79 155.73 440.45 160.57 C 439.20 167.35 437.73 174.13 437.46 181.04 C 437.22 184.99 438.93 188.71 441.27 191.79 C 447.38 199.94 453.58 208.06 460.01 215.94 C 462.83 216.46 465.29 214.04 467.69 212.80 C 481.29 203.09 495.98 194.75 508.14 183.16 C 513.41 178.05 518.66 172.77 522.47 166.45 C 524.14 163.62 525.67 160.46 525.45 157.09 C 525.23 153.81 524.52 150.59 524.02 147.35 C 529.78 151.10 535.17 155.40 541.15 158.82 C 548.80 163.11 556.32 167.63 563.91 172.03 C 569.31 175.20 575.13 177.86 579.74 182.19 C 586.00 187.97 587.30 196.99 592.70 203.41 C 596.46 207.95 601.88 210.78 605.49 215.49 C 609.51 220.04 611.16 226.08 611.80 231.99 C 613.26 243.31 611.82 254.69 611.55 266.03 C 611.20 289.36 611.90 312.87 616.98 335.72 C 606.50 340.27 595.59 344.85 583.99 345.03 C 575.97 344.32 568.73 340.42 561.36 337.50 C 556.79 335.66 551.94 334.71 547.11 333.91 C 547.23 320.26 543.62 307.00 539.82 294.01 C 538.64 291.26 539.89 288.40 540.94 285.84 C 543.51 279.86 547.73 274.80 551.95 269.92 C 555.43 265.88 559.81 262.69 562.91 258.32 C 560.84 258.32 558.77 258.76 557.19 260.18 C 548.51 267.03 540.56 275.44 536.76 286.04 C 534.63 279.48 537.51 272.99 540.07 267.04 C 544.28 257.03 550.17 247.87 555.45 238.41 C 556.68 236.28 557.31 233.88 557.80 231.49 C 553.56 234.10 551.39 238.67 548.75 242.68 C 544.26 249.93 539.76 257.19 535.77 264.73 C 532.69 270.97 529.65 278.10 531.67 285.15 C 537.04 301.70 541.50 318.62 543.98 335.87 C 547.30 337.03 550.62 338.19 553.94 339.37 C 553.54 341.01 553.15 342.65 552.76 344.29 C 544.07 342.19 535.46 339.08 528.17 333.77 C 512.93 322.77 497.58 311.92 482.92 300.15 C 477.80 296.54 473.25 291.56 466.86 290.33 C 468.63 292.80 470.80 294.94 473.20 296.80 C 486.89 307.81 500.26 319.24 514.58 329.43 C 520.44 333.72 526.38 337.96 532.90 341.20 C 519.21 340.76 505.67 344.30 491.97 342.94 C 484.78 342.24 476.27 341.71 471.48 335.50 C 465.15 327.14 462.81 316.24 455.33 308.65 C 451.84 305.25 446.54 304.82 441.95 305.44 C 435.02 306.35 429.30 310.71 422.79 312.89 C 419.54 314.24 415.41 315.51 414.22 319.24 C 413.40 322.72 416.12 325.59 417.80 328.34 C 416.86 332.18 415.81 336.44 418.57 339.81 C 416.77 343.83 415.18 349.02 418.56 352.70 C 419.39 355.47 419.89 358.70 422.40 360.53 C 426.50 363.77 431.66 366.29 436.99 366.04 C 439.13 365.88 439.12 363.43 439.85 361.93 C 446.56 366.72 454.67 370.50 463.08 370.01 C 465.63 370.05 467.33 368.09 468.85 366.34 C 485.39 376.20 503.38 383.29 520.05 392.90 C 528.90 397.89 538.48 401.35 547.86 405.16 C 559.33 409.80 571.62 412.86 584.05 412.78 C 588.68 412.80 593.12 411.31 597.29 409.43 C 598.23 415.58 598.93 421.79 598.61 428.03 C 598.30 433.63 598.50 439.32 600.15 444.73 C 601.95 450.62 604.13 456.41 605.56 462.42 C 586.15 454.10 564.59 456.01 544.01 454.95 C 531.63 454.06 518.98 453.91 507.05 450.07 C 498.85 447.43 490.51 445.05 482.76 441.24 C 480.89 440.38 478.98 439.27 476.84 439.64 C 477.32 441.45 478.53 442.89 480.16 443.79 C 488.08 448.67 497.01 451.52 505.83 454.29 C 518.49 458.32 531.90 458.40 545.04 459.21 C 565.46 460.21 586.87 458.19 606.13 466.46 C 606.64 470.16 607.26 473.86 608.09 477.51 C 600.57 477.63 592.92 477.56 585.65 479.76 C 579.47 481.66 573.08 482.81 567.01 485.06 C 551.62 490.43 536.96 497.56 522.01 503.99 C 512.79 508.09 503.58 512.54 493.58 514.35 C 481.24 516.59 468.62 517.35 456.10 516.69 C 448.25 516.26 440.82 513.60 433.25 511.77 C 421.89 509.14 410.78 504.77 398.95 504.83 C 390.06 504.29 381.80 509.05 372.89 507.94 C 373.62 500.96 375.04 494.07 375.72 487.09 C 376.45 479.76 377.70 472.39 380.57 465.57 C 382.04 461.93 385.05 459.26 387.04 455.93 C 388.25 453.84 387.59 451.35 387.47 449.09 C 386.76 442.88 388.73 436.82 390.17 430.86 C 396.83 442.95 409.49 449.42 421.06 455.90 C 432.23 462.08 443.07 468.91 453.10 476.82 C 455.85 478.98 458.62 481.18 461.82 482.69 C 461.53 480.53 460.31 478.66 458.71 477.26 C 447.34 466.91 434.61 458.08 420.90 451.12 C 409.48 445.23 397.40 438.54 391.28 426.67 C 391.30 423.41 392.37 420.25 392.59 417.00 C 393.25 408.99 392.89 400.92 391.81 392.97 C 389.77 379.47 385.07 365.91 387.57 352.14 C 389.87 338.49 391.02 324.69 392.30 310.91 C 393.02 301.94 394.39 292.93 393.74 283.91 C 393.51 278.10 388.59 274.12 387.18 268.70 C 385.15 261.82 384.28 254.68 382.69 247.71 C 381.87 249.00 380.73 250.28 380.93 251.94 C 380.93 256.70 381.81 261.40 382.76 266.04 C 378.49 261.32 373.94 256.56 368.02 253.94 C 363.66 252.08 359.26 250.07 354.51 249.50 C 354.18 252.45 357.62 253.29 359.60 254.53 C 366.45 257.63 372.42 262.34 377.46 267.89 C 371.22 267.95 365.21 269.56 359.12 270.65 C 352.25 270.93 344.73 270.25 339.16 265.78 C 332.25 260.64 326.04 253.70 323.71 245.26 C 322.54 235.79 325.76 226.32 330.03 217.98 C 333.65 210.96 337.35 203.60 343.67 198.59 C 351.11 192.48 358.88 186.34 363.86 177.93 C 366.13 173.97 368.64 170.12 371.70 166.71 C 376.18 161.57 380.75 155.94 387.37 153.53 M 360.19 227.96 C 364.04 228.10 368.04 228.35 371.41 230.46 C 383.43 237.31 394.03 246.45 403.47 256.51 C 404.50 257.26 405.45 259.10 407.00 258.14 C 407.18 255.42 405.25 253.33 403.65 251.39 C 395.13 241.74 384.87 233.59 373.40 227.72 C 369.31 225.61 363.80 224.21 360.19 227.96 M 386.22 469.73 C 387.92 472.93 391.01 475.09 393.95 477.07 C 401.44 481.94 410.49 483.08 419.01 485.14 C 431.46 487.82 443.19 492.90 455.31 496.71 C 460.68 498.27 465.86 501.27 471.63 500.80 C 470.02 498.76 467.76 497.46 465.33 496.62 C 448.51 490.34 431.87 483.15 414.11 479.90 C 404.73 477.88 393.64 475.52 388.40 466.59 C 392.64 466.05 395.73 469.13 398.93 471.32 C 399.40 466.19 393.73 462.61 389.09 463.23 C 386.11 463.54 384.90 467.32 386.22 469.73 Z" />
	</g>
	<g id="#fdfeffff">
		<path fill="var(--pants-color, grey)" opacity="1.00"
			d=" M 583.56 484.27 C 592.04 481.84 601.08 480.43 609.82 482.34 C 614.94 484.29 617.86 489.66 618.55 494.87 C 620.06 504.98 619.38 515.51 622.81 525.28 C 628.71 542.97 636.22 560.10 641.37 578.05 C 644.16 587.77 645.06 597.92 645.60 607.98 C 645.96 614.10 644.52 620.23 640.85 625.20 C 624.58 622.90 608.29 627.15 593.23 633.03 C 578.79 638.40 565.38 646.12 552.38 654.31 C 547.03 657.68 541.82 661.30 537.18 665.61 C 525.55 652.33 513.51 639.41 501.22 626.74 C 498.35 623.99 495.85 620.61 492.07 619.05 C 490.31 621.13 489.08 623.58 488.29 626.19 C 486.65 631.43 484.47 636.48 482.43 641.58 C 477.83 635.85 474.31 628.97 468.00 624.88 C 457.35 617.37 443.68 616.36 431.07 616.83 C 412.55 618.14 394.86 624.48 377.49 630.62 C 372.12 632.12 369.23 637.18 365.42 640.79 C 364.91 628.55 364.83 616.30 364.51 604.05 C 363.92 590.87 364.55 577.66 365.90 564.55 C 366.93 555.37 367.66 545.95 371.45 537.40 C 375.06 529.19 377.33 520.16 376.18 511.15 C 382.87 511.87 389.30 509.21 395.95 509.08 C 403.42 508.96 410.88 510.15 418.02 512.34 C 426.51 514.94 435.20 516.80 443.76 519.17 C 452.93 521.66 462.51 521.47 471.92 521.09 C 484.35 520.33 496.99 519.06 508.64 514.32 C 533.52 504.12 557.10 490.19 583.56 484.27 Z" />
		<path fill="var(--socks-color, grey)" opacity="1.00"
			d=" M 483.33 686.29 C 487.87 692.22 491.82 698.72 493.85 705.97 C 497.33 716.85 496.10 728.79 500.81 739.34 C 502.90 745.11 506.70 750.59 506.09 757.01 C 506.05 771.64 498.21 786.62 484.95 793.39 C 479.98 790.28 477.37 784.79 473.12 780.90 C 461.23 768.70 443.84 764.20 431.81 752.18 C 425.80 746.97 421.41 740.31 416.46 734.16 C 428.19 737.09 440.60 733.86 450.78 727.78 C 466.28 718.68 478.40 703.64 483.33 686.29 Z" />
		<path fill="var(--socks-color, grey)" opacity="1.00"
			d=" M 604.22 774.11 C 614.39 772.00 624.47 767.70 631.67 759.99 C 634.09 778.22 633.92 796.70 632.58 815.01 C 631.02 838.45 625.56 861.47 618.58 883.85 C 616.86 890.11 615.03 896.37 612.14 902.20 C 604.44 903.18 596.66 905.63 590.63 910.68 C 588.66 912.24 586.98 914.16 584.89 915.57 C 583.13 916.17 581.71 914.30 581.06 912.92 C 578.83 906.77 580.82 900.30 581.69 894.11 C 582.73 874.34 580.71 854.51 577.09 835.07 C 574.95 822.19 571.84 809.50 568.15 796.99 C 565.59 788.35 563.85 779.49 562.77 770.55 C 575.71 776.25 590.47 776.95 604.22 774.11 Z" />
	</g>
	<g id="#4d4d4dff">
		<path fill="#4d4d4d" opacity="1.00"
			d=" M 501.67 726.30 C 511.23 731.60 520.56 738.21 526.00 747.95 C 529.82 755.30 530.07 763.97 528.95 772.03 C 527.59 781.98 524.10 791.46 522.12 801.29 C 519.07 816.06 517.51 831.09 515.11 845.97 C 513.65 854.37 511.69 863.26 505.80 869.78 C 502.00 874.36 496.80 877.88 490.91 879.06 C 487.12 879.73 483.57 877.52 480.80 875.18 C 476.35 871.19 472.91 866.19 470.14 860.94 C 466.03 852.90 462.73 844.35 461.38 835.39 C 460.45 828.92 460.96 822.37 461.54 815.91 C 462.61 803.90 463.90 791.91 464.75 779.88 C 469.34 783.79 473.14 788.46 477.01 793.05 C 479.74 796.27 484.53 798.99 488.63 796.55 C 505.35 787.25 514.54 765.86 508.53 747.47 C 505.68 740.62 502.66 733.74 501.67 726.30 Z" />
		<path fill="#4d4d4d" opacity="1.00"
			d=" M 568.48 940.88 C 565.99 926.80 569.41 912.26 575.85 899.69 C 575.75 904.41 575.31 909.37 577.16 913.85 C 578.26 916.66 580.91 918.98 584.02 919.13 C 588.13 918.12 591.01 914.75 594.43 912.49 C 600.37 908.21 607.72 906.95 614.61 904.98 C 618.23 917.24 625.62 927.88 630.42 939.65 C 635.11 950.99 640.11 962.59 640.83 975.00 C 640.99 978.05 640.50 981.80 637.45 983.35 C 631.80 986.56 625.22 987.50 618.88 988.43 C 608.77 989.83 598.52 987.03 589.64 982.28 C 582.27 978.16 581.01 969.13 577.81 962.09 C 575.13 954.83 570.08 948.54 568.48 940.88 Z" />
	</g>
</svg>