<?xml version="1.0" encoding="UTF-8" ?>
<!DOCTYPE svg PUBLIC "-//W3C//DTD SVG 1.1//EN" "http://www.w3.org/Graphics/SVG/1.1/DTD/svg11.dtd">
<svg width="1000pt" height="1000pt" viewBox="0 0 1000 1000" version="1.1" xmlns="http://www.w3.org/2000/svg">
	<g id="#020202ff">
		<path fill="#020202" opacity="1.00"
			d=" M 494.15 87.07 C 502.99 76.38 516.36 70.39 529.85 68.26 C 546.18 65.73 563.59 68.42 577.75 77.15 C 586.18 82.39 593.33 90.29 596.09 99.97 C 600.01 113.48 600.64 127.92 598.59 141.78 C 598.19 141.97 597.40 142.37 597.00 142.56 C 595.40 140.89 594.25 138.88 593.02 136.95 C 592.42 146.54 591.53 156.10 590.73 165.68 C 599.79 163.89 609.40 162.63 618.33 165.77 C 631.46 167.79 644.82 167.07 658.04 166.54 C 665.16 166.32 672.30 165.05 678.70 161.82 C 686.50 158.27 697.13 155.93 704.09 162.39 C 717.42 161.35 730.85 161.96 744.15 163.32 C 755.69 164.75 767.49 164.92 778.74 168.14 C 787.71 170.64 795.46 176.47 801.37 183.55 C 808.64 192.48 813.37 203.06 818.89 213.07 C 823.58 221.52 827.55 230.35 832.16 238.84 C 836.67 248.10 842.09 256.85 847.25 265.75 C 852.52 274.63 858.07 283.38 864.44 291.53 C 870.88 299.55 880.70 303.86 887.31 311.72 C 893.14 318.22 897.19 326.03 901.21 333.72 C 908.74 348.34 914.39 364.40 914.64 380.99 C 914.82 383.74 913.85 388.49 910.07 387.34 C 906.55 385.18 904.47 381.45 902.47 377.97 C 903.93 384.89 905.43 391.95 905.01 399.06 C 904.83 401.09 904.37 403.89 902.05 404.48 C 900.29 405.20 898.84 403.57 897.35 402.98 C 897.37 406.99 897.18 411.38 894.60 414.67 C 893.59 416.16 891.19 416.37 890.04 414.95 C 887.89 412.55 886.79 409.45 885.50 406.55 C 884.75 409.26 884.46 412.35 882.45 414.48 C 880.40 416.26 877.62 414.55 876.52 412.56 C 872.11 405.32 870.38 396.91 867.94 388.90 C 864.35 377.75 860.26 366.30 852.38 357.39 C 854.20 368.88 862.36 378.27 863.66 389.88 C 863.89 393.19 864.22 397.15 861.78 399.79 C 859.05 402.07 855.26 399.98 853.35 397.63 C 848.69 392.05 845.48 385.46 841.85 379.21 C 837.59 371.94 837.17 363.24 837.09 355.02 C 836.91 341.55 837.15 327.59 832.08 314.87 C 829.63 308.24 824.95 302.82 820.70 297.29 C 808.40 281.97 797.87 265.34 787.00 249.00 C 781.25 239.76 774.53 231.08 769.70 221.29 C 756.80 221.72 744.08 224.30 731.67 227.74 C 726.85 229.13 721.89 230.22 717.35 232.41 C 712.04 234.98 706.07 235.36 700.40 236.67 C 687.22 239.69 673.73 241.21 660.66 244.78 C 655.80 246.19 650.46 246.40 646.04 249.02 C 636.18 257.60 628.94 268.89 623.85 280.86 C 618.92 292.26 613.75 303.64 610.44 315.64 C 604.96 337.33 605.12 359.85 604.37 382.06 C 603.45 403.77 601.99 425.54 597.97 446.93 C 596.08 457.77 597.05 468.94 594.39 479.65 C 593.21 484.69 589.81 488.77 586.10 492.21 C 585.06 502.50 578.61 511.37 571.30 518.32 C 569.81 519.95 567.42 521.41 567.83 523.96 C 568.50 539.44 564.51 554.60 560.17 569.31 C 555.63 584.25 549.19 598.52 542.50 612.59 C 538.37 620.87 533.39 628.68 528.78 636.69 C 525.46 642.28 521.07 647.13 517.67 652.66 C 510.38 665.25 500.31 675.89 490.27 686.29 C 485.98 690.70 481.39 694.80 476.50 698.54 C 474.48 699.95 473.23 702.10 472.22 704.30 C 467.48 714.07 465.37 724.87 460.78 734.71 C 448.10 763.03 428.64 787.91 406.36 809.32 C 391.92 823.37 375.29 834.88 360.34 848.35 C 357.26 851.25 353.99 854.06 351.60 857.60 C 347.02 864.19 344.29 871.79 340.99 879.05 C 335.80 890.65 330.32 902.17 326.56 914.34 C 324.41 921.46 323.19 928.81 321.19 935.97 C 317.29 949.81 305.88 961.60 291.72 964.82 C 284.57 966.75 276.83 965.83 270.09 962.89 C 260.64 957.86 256.92 946.11 258.48 935.99 C 259.96 927.28 262.88 918.81 266.99 910.98 C 269.48 905.98 272.18 901.04 273.83 895.68 C 275.91 888.95 274.96 881.70 277.11 874.99 C 279.68 866.31 285.55 859.20 291.37 852.48 C 296.57 846.66 301.48 840.53 307.48 835.49 C 311.35 831.99 315.79 829.21 319.74 825.82 C 326.86 818.92 334.40 812.31 340.15 804.16 C 346.08 795.51 350.63 786.03 356.16 777.14 C 361.21 768.70 364.28 759.29 368.26 750.33 C 378.54 727.46 394.42 707.65 411.91 689.89 C 418.99 683.13 422.30 673.44 423.41 663.92 C 423.99 654.00 423.50 644.05 423.82 634.11 C 419.57 632.61 413.74 631.84 411.92 627.08 C 411.21 622.56 411.47 617.96 411.57 613.41 C 410.19 617.49 408.58 621.54 406.19 625.15 C 403.23 629.64 399.84 634.10 398.73 639.49 C 397.61 645.65 398.96 651.85 399.73 657.96 C 400.37 660.04 398.15 660.88 396.64 661.51 C 386.56 665.19 376.69 669.42 367.05 674.11 C 364.10 675.43 362.95 678.69 361.11 681.11 C 356.75 687.64 350.86 692.91 345.78 698.84 C 335.81 709.97 327.14 722.17 317.43 733.51 C 313.08 738.07 311.96 744.50 310.19 750.31 C 305.61 768.64 294.95 784.72 283.16 799.22 C 274.92 808.91 266.52 818.57 256.78 826.80 C 249.78 833.11 242.65 839.43 236.89 846.92 C 230.60 855.07 228.57 865.36 224.64 874.66 C 220.89 882.03 225.72 890.16 224.40 897.90 C 222.63 908.88 216.86 919.19 208.53 926.56 C 196.68 937.38 182.55 945.79 172.50 958.50 C 165.55 967.24 157.41 975.34 147.34 980.39 C 138.81 984.60 128.61 985.34 119.55 982.51 C 113.77 980.81 109.50 975.10 109.83 969.04 C 110.12 960.59 113.40 952.58 117.13 945.12 C 122.49 934.66 129.64 925.26 137.42 916.50 C 147.13 904.46 157.45 892.84 165.86 879.83 C 168.97 875.33 169.79 869.63 173.35 865.41 C 184.35 851.96 188.11 834.56 193.60 818.48 C 200.20 799.06 209.89 780.91 218.33 762.28 C 230.44 739.24 245.92 717.88 264.73 699.85 C 267.35 688.33 273.69 678.23 279.52 668.13 C 276.22 662.21 274.33 655.01 276.60 648.40 C 278.76 642.78 283.09 638.15 284.44 632.18 C 286.36 624.23 287.02 616.05 288.12 607.96 C 289.25 600.09 289.88 591.88 293.77 584.77 C 299.99 572.08 311.72 561.55 312.81 546.78 C 313.46 536.59 318.62 527.45 324.22 519.18 C 330.05 510.73 335.62 501.77 337.90 491.65 C 338.72 488.05 340.94 485.01 342.94 481.99 C 349.24 472.88 356.41 464.31 361.41 454.37 C 365.52 446.82 368.22 438.64 371.29 430.64 C 357.42 426.75 342.95 425.73 329.07 421.93 C 324.41 420.55 318.98 419.24 316.27 414.81 C 312.04 407.70 310.51 399.04 312.08 390.91 C 314.52 377.19 320.68 364.49 327.26 352.32 C 329.35 348.34 331.82 344.57 334.50 340.97 C 330.61 341.87 326.73 342.85 322.78 343.45 C 324.65 334.05 328.87 325.39 332.76 316.70 C 338.10 305.58 343.73 294.59 350.06 283.99 C 354.49 276.63 355.32 267.92 357.65 259.81 C 361.14 246.22 367.45 233.30 376.63 222.64 C 383.49 213.86 391.77 206.12 401.42 200.48 C 412.02 194.45 423.33 189.76 434.97 186.14 C 451.95 180.92 468.16 173.28 483.02 163.53 C 471.55 138.85 475.09 107.04 494.15 87.07 M 536.88 128.08 C 533.43 124.87 530.68 121.04 527.72 117.41 C 527.54 121.36 527.70 125.31 527.53 129.26 C 525.08 127.77 522.90 125.90 520.92 123.85 C 522.38 129.05 523.02 134.50 522.53 139.89 C 526.50 138.15 530.54 135.21 535.11 136.29 C 541.60 137.32 548.08 138.47 554.54 139.68 C 557.09 140.33 560.50 140.99 561.31 143.93 C 561.68 147.87 560.97 151.92 559.43 155.56 C 549.65 153.64 539.93 151.06 529.89 150.97 C 525.73 150.66 519.84 149.90 517.82 154.62 C 515.95 160.99 516.22 168.03 513.09 174.04 C 511.81 176.29 509.30 177.24 507.04 178.17 C 507.52 172.07 509.65 166.18 509.52 160.01 C 509.29 153.06 509.26 145.59 505.55 139.46 C 504.16 137.33 502.65 134.57 499.80 134.35 C 496.58 133.97 493.96 136.96 493.69 139.98 C 492.99 148.07 496.61 155.79 496.34 163.85 C 494.72 167.19 491.51 169.21 488.90 171.67 C 487.68 173.93 487.01 176.44 485.83 178.72 C 483.47 183.65 479.58 187.77 477.83 193.01 C 476.36 197.66 478.92 202.19 480.87 206.27 C 490.21 224.68 502.76 241.51 517.77 255.69 C 520.84 247.26 526.78 240.30 533.26 234.28 C 536.77 231.04 540.24 227.67 544.46 225.35 C 533.81 225.30 523.93 219.73 517.07 211.83 C 516.16 210.65 515.64 208.78 517.83 208.97 C 522.14 211.28 525.87 214.59 530.28 216.76 C 537.04 220.72 545.37 221.44 552.91 219.67 C 561.94 217.38 568.80 210.41 574.36 203.30 C 581.91 191.78 585.63 178.07 586.36 164.39 C 582.89 163.73 579.44 162.94 575.94 162.48 C 574.05 167.07 574.93 172.10 573.76 176.80 C 571.59 177.07 571.44 174.69 571.19 173.15 C 570.50 167.44 571.10 161.68 571.43 155.97 C 571.89 152.75 572.34 149.13 574.75 146.71 C 578.70 143.80 583.91 144.04 588.59 143.79 C 589.18 139.90 589.62 135.98 589.81 132.05 C 586.36 127.64 584.03 122.53 581.86 117.41 C 580.57 124.06 581.32 130.81 581.46 137.52 C 575.69 134.49 571.33 129.40 567.83 124.01 C 565.21 120.03 564.55 115.23 563.46 110.70 C 560.41 116.08 559.38 122.28 558.45 128.30 C 555.68 125.44 552.64 122.76 550.59 119.32 C 548.76 116.32 548.24 112.80 547.35 109.48 C 541.85 114.26 539.00 121.28 536.88 128.08 M 672.24 170.13 C 663.68 172.36 654.76 172.13 645.99 172.27 C 639.79 172.38 633.60 172.05 627.45 171.36 C 634.46 177.19 639.40 184.95 645.02 192.03 C 646.89 194.58 649.13 197.03 650.10 200.11 C 650.57 202.34 647.81 203.33 646.57 201.58 C 640.25 195.47 634.68 188.60 629.20 181.74 C 624.64 176.17 618.69 171.38 611.63 169.49 C 604.67 168.09 597.50 168.67 590.47 169.08 C 589.74 179.53 586.27 189.56 581.82 198.97 C 579.78 203.30 577.11 207.35 573.70 210.73 C 569.12 215.21 564.36 219.76 558.43 222.39 C 550.45 225.91 543.23 231.00 536.96 237.03 C 530.68 242.92 524.43 249.47 521.71 257.84 C 520.97 259.46 520.57 262.27 518.13 261.27 C 513.54 258.56 510.05 254.37 506.24 250.70 C 493.20 236.54 481.75 220.65 474.07 202.92 C 471.68 197.65 472.44 191.40 475.53 186.58 C 479.50 180.17 484.21 173.92 485.57 166.31 C 470.97 176.19 455.07 184.16 438.23 189.41 C 425.88 193.22 413.75 197.93 402.58 204.46 C 393.79 209.77 386.25 216.93 379.95 225.01 C 371.53 234.86 365.58 246.70 362.24 259.21 C 359.98 267.31 358.95 275.79 355.44 283.52 C 363.45 281.44 371.84 281.05 380.04 282.02 C 384.99 282.63 390.11 283.14 394.67 285.31 C 396.26 285.85 396.56 287.61 397.28 288.91 C 385.02 286.10 372.29 285.31 359.80 286.91 C 357.38 287.33 354.86 287.66 352.67 288.83 C 350.59 291.17 349.40 294.13 347.85 296.82 C 340.47 310.37 333.46 324.13 327.48 338.36 C 335.65 335.44 344.54 335.20 353.05 336.49 C 368.88 339.26 383.40 347.09 396.20 356.58 C 404.81 343.80 412.56 330.46 420.17 317.06 C 425.16 308.15 428.18 298.34 431.81 288.84 C 434.75 281.01 437.17 272.97 438.52 264.71 C 441.69 266.12 440.74 269.82 440.37 272.57 C 438.32 283.96 433.77 294.68 430.04 305.59 C 444.72 290.41 463.62 279.98 483.54 273.38 C 485.10 272.73 486.69 273.48 488.25 273.73 C 484.53 277.29 479.48 278.72 474.97 280.97 C 457.12 289.31 439.47 299.46 426.53 314.62 C 421.76 322.92 417.15 331.34 412.17 339.53 C 419.20 341.05 426.05 343.39 433.20 344.34 C 461.30 347.61 490.63 345.63 517.06 335.01 C 518.74 334.55 522.02 332.83 521.42 336.03 C 514.02 341.70 504.76 344.38 495.83 346.62 C 475.61 351.35 454.49 352.06 433.95 349.15 C 425.82 347.99 418.11 345.05 410.31 342.60 C 406.61 348.60 402.76 354.50 398.67 360.24 C 400.27 369.73 396.73 378.95 393.54 387.71 C 399.61 390.41 405.82 392.82 412.19 394.72 C 421.89 397.63 432.50 396.72 441.77 401.21 C 450.56 404.68 457.48 411.50 462.91 419.07 C 465.38 422.59 466.39 427.38 464.39 431.36 C 461.91 436.23 460.22 441.95 455.59 445.28 C 454.51 447.19 453.61 449.43 451.57 450.54 C 449.63 451.77 447.23 451.62 445.04 451.83 C 443.12 456.31 438.74 458.88 433.96 459.08 C 431.12 461.33 427.76 463.39 423.97 462.87 C 416.79 462.11 410.79 457.61 405.09 453.55 C 391.53 458.34 377.85 463.13 365.39 470.43 C 360.56 473.42 354.96 475.78 351.70 480.68 C 348.89 484.69 345.68 488.51 343.70 493.03 C 342.14 496.52 345.74 499.02 348.00 501.03 C 360.18 510.75 375.29 516.44 390.64 518.61 C 399.53 519.89 408.46 518.23 417.19 516.64 C 428.61 514.30 440.04 511.87 451.18 508.40 C 458.91 506.11 466.49 503.25 474.41 501.66 C 496.95 496.96 520.07 496.19 543.02 495.87 C 553.86 495.64 564.82 495.12 575.34 492.26 C 581.56 490.32 587.64 486.12 589.76 479.69 C 592.06 472.46 591.92 464.78 592.64 457.30 C 588.71 462.43 586.75 468.71 583.01 473.93 C 580.58 473.46 581.65 470.61 581.76 469.00 C 583.31 462.61 587.30 457.27 590.78 451.84 C 594.98 442.19 595.42 431.45 596.68 421.14 C 598.36 405.16 599.06 389.11 599.48 373.05 C 600.00 353.23 600.73 333.17 605.98 313.92 C 609.02 302.84 614.33 292.59 618.94 282.12 C 613.43 290.54 608.35 299.29 604.49 308.60 C 602.85 312.52 601.62 316.61 599.71 320.41 C 599.14 318.67 598.27 316.92 598.75 315.05 C 599.76 307.43 603.12 300.38 606.56 293.60 C 615.06 277.46 625.89 262.61 638.11 249.09 C 646.36 240.25 655.18 231.71 665.61 225.47 C 667.43 224.67 669.75 222.74 671.57 224.51 C 672.71 226.65 670.28 227.91 668.83 228.91 C 662.85 232.52 657.58 237.11 652.41 241.77 C 673.11 235.52 694.67 232.92 715.67 227.92 C 716.64 221.34 717.14 214.64 716.10 208.03 C 713.95 193.24 709.72 178.31 701.01 165.97 C 699.11 162.91 695.01 163.18 691.89 163.34 C 684.77 163.68 678.89 168.17 672.24 170.13 M 706.76 166.20 C 713.00 175.11 716.78 185.49 719.36 195.99 C 721.59 205.55 723.24 215.49 721.53 225.27 C 737.93 219.34 755.39 215.43 772.91 216.62 C 776.11 216.93 779.55 217.07 782.33 218.90 C 782.15 219.34 781.78 220.23 781.60 220.67 C 778.82 221.29 775.95 221.12 773.14 221.20 C 788.47 242.88 802.19 265.69 818.14 286.94 C 823.31 293.77 829.07 300.20 833.51 307.56 C 840.91 321.06 841.28 336.91 841.08 351.92 C 841.29 360.52 840.94 369.81 845.49 377.48 C 847.84 381.50 849.96 385.66 852.42 389.63 C 854.34 392.65 856.16 396.10 859.68 397.53 C 863.16 382.28 849.01 370.66 848.40 355.97 C 848.07 353.57 850.48 351.19 852.83 352.42 C 855.76 353.90 857.91 356.56 859.89 359.12 C 866.94 369.32 870.87 381.26 873.97 393.16 C 875.53 399.37 877.43 405.57 880.65 411.15 C 882.19 406.36 883.59 401.06 881.78 396.15 C 879.81 389.82 878.08 383.42 875.88 377.17 C 873.69 370.84 870.90 364.66 869.40 358.12 C 868.69 355.71 871.65 355.89 872.32 357.53 C 876.94 365.86 880.34 374.84 882.84 384.02 C 885.46 393.43 887.80 403.05 892.54 411.68 C 895.34 404.79 893.82 397.22 892.55 390.18 C 889.43 380.20 886.35 370.07 881.14 360.95 C 879.47 357.84 876.87 355.10 876.43 351.48 C 877.68 352.15 879.13 352.71 880.15 353.79 C 887.61 361.78 891.17 372.36 894.63 382.51 C 896.77 388.58 898.01 394.98 900.99 400.73 C 902.33 390.46 899.74 380.25 897.86 370.22 C 896.42 360.67 888.92 353.67 885.37 345.01 C 884.76 342.92 887.56 343.60 888.18 344.77 C 893.43 351.08 898.14 357.95 901.33 365.55 C 903.95 371.51 906.23 377.78 910.55 382.79 C 910.62 363.19 902.76 344.56 893.14 327.83 C 889.01 320.33 883.82 313.24 876.92 308.06 C 870.84 303.53 864.40 299.21 859.83 293.05 C 849.43 280.00 841.64 265.18 833.01 250.97 C 822.73 232.42 813.92 213.08 803.10 194.83 C 797.54 185.63 789.63 177.22 779.24 173.68 C 768.84 170.29 757.81 170.00 747.02 168.93 C 733.65 167.44 720.21 166.54 706.76 166.20 M 327.14 363.25 C 322.56 372.39 318.47 381.91 316.48 391.99 C 315.21 398.63 315.54 406.04 319.09 411.95 C 321.74 416.49 327.35 417.16 332.00 418.23 C 346.22 421.52 360.79 423.12 374.87 427.02 C 382.44 429.01 389.93 431.45 397.71 432.58 C 400.25 419.93 407.29 407.25 419.04 401.13 C 414.84 400.60 410.70 399.64 406.70 398.28 C 398.49 395.46 390.04 392.45 383.49 386.52 C 374.39 378.64 366.58 368.27 354.57 364.72 C 348.72 362.66 342.55 364.01 336.55 364.08 C 337.33 363.10 337.91 361.75 339.27 361.45 C 345.54 359.16 352.57 359.15 358.86 361.37 C 366.75 363.89 373.07 369.48 378.93 375.11 C 382.84 369.49 386.29 363.58 390.24 357.99 C 375.77 348.23 358.95 340.73 341.22 340.65 C 335.31 347.35 331.11 355.30 327.14 363.25 M 382.01 378.20 C 384.24 380.37 386.52 382.51 388.87 384.56 C 391.63 376.41 395.26 368.08 394.12 359.27 C 390.15 365.62 386.67 372.30 382.01 378.20 M 415.36 409.31 C 408.64 415.97 403.71 424.64 401.94 433.97 C 400.72 440.16 403.81 446.58 408.83 450.20 C 414.92 454.89 422.32 460.77 430.51 457.96 C 420.66 452.66 412.72 443.95 408.49 433.61 C 412.29 434.70 414.62 438.09 417.13 440.89 C 421.65 446.53 427.15 451.77 434.02 454.34 C 437.35 455.35 440.21 452.95 442.42 450.79 C 433.63 445.43 426.88 437.46 420.66 429.39 C 419.51 427.72 417.63 426.02 418.73 423.81 C 419.97 424.27 421.20 424.87 422.21 425.76 C 428.35 430.93 432.93 437.67 439.12 442.80 C 441.48 444.71 443.99 446.70 447.03 447.34 C 449.51 447.85 451.18 445.64 452.63 444.03 C 444.06 434.69 437.34 423.65 427.38 415.63 C 428.44 414.73 429.83 413.70 431.17 414.80 C 441.52 420.61 447.26 431.54 455.18 439.97 C 457.01 436.20 459.01 432.52 460.72 428.70 C 461.75 426.54 461.41 423.95 460.17 421.98 C 454.35 413.52 445.56 407.21 435.77 404.21 C 428.72 403.12 420.63 404.03 415.36 409.31 M 376.76 432.17 C 373.24 444.67 368.18 456.82 361.04 467.70 C 373.37 459.75 386.82 453.35 401.02 449.55 C 398.61 445.79 397.10 441.52 396.84 437.06 C 390.00 436.08 383.38 434.07 376.76 432.17 M 568.01 499.00 C 555.51 501.58 542.70 501.48 530.01 501.82 C 516.13 502.07 502.27 503.11 488.50 504.78 C 479.89 505.92 471.28 507.37 463.03 510.15 C 452.50 513.62 441.85 516.80 430.98 519.01 C 415.66 522.09 399.78 526.08 384.19 522.39 C 368.00 518.79 351.69 512.34 339.86 500.34 C 335.14 515.52 321.53 526.15 317.88 541.78 C 316.89 547.20 317.19 552.92 314.94 558.07 C 309.54 572.62 295.95 583.46 294.19 599.43 C 292.13 611.22 291.88 623.34 288.58 634.88 C 286.77 641.46 281.02 646.22 279.70 652.95 C 280.19 657.60 281.27 662.79 285.24 665.79 C 289.25 669.86 295.24 670.05 300.49 671.26 C 315.58 672.90 330.62 676.42 345.89 675.41 C 355.91 674.80 364.53 669.22 373.49 665.31 C 380.48 662.30 387.49 659.19 394.92 657.43 C 394.40 651.04 393.60 644.58 394.58 638.20 C 395.57 632.79 398.66 628.12 401.67 623.63 C 404.52 619.47 405.96 614.60 407.97 610.03 C 413.47 597.28 419.18 584.61 423.65 571.45 C 424.19 569.62 425.12 567.96 426.26 566.43 C 427.70 569.79 426.46 573.33 425.42 576.61 C 422.81 584.45 420.00 592.23 417.18 599.99 C 415.67 608.56 413.99 617.46 415.88 626.10 C 418.24 627.48 420.91 628.21 423.45 629.19 C 423.46 622.73 422.31 616.13 423.76 609.76 C 426.98 605.22 432.72 603.37 437.77 601.60 C 456.66 596.04 478.14 598.57 494.80 609.25 C 506.37 616.51 515.18 627.59 520.54 640.08 C 522.14 638.13 523.83 636.24 525.09 634.04 C 535.08 616.05 544.24 597.54 551.39 578.21 C 556.81 562.96 561.77 547.29 562.79 531.04 C 563.15 526.27 561.51 520.35 565.73 516.82 C 572.42 510.51 578.65 503.45 581.97 494.74 C 577.65 497.11 572.91 498.55 568.01 499.00 M 428.59 611.37 C 428.24 624.90 429.30 638.43 428.90 651.97 C 429.25 664.40 427.60 677.70 419.90 687.91 C 417.42 690.55 418.55 694.41 419.50 697.48 C 422.46 705.43 428.84 711.66 436.03 715.93 C 443.47 720.35 452.55 722.58 461.08 720.28 C 462.99 714.90 465.01 709.54 467.49 704.38 C 462.85 706.57 458.61 710.10 453.31 710.44 C 454.09 705.98 458.93 704.62 462.00 702.02 C 478.20 691.21 492.05 677.33 504.67 662.60 C 509.09 657.13 513.68 651.68 516.64 645.26 C 509.79 627.28 494.52 612.47 475.82 607.40 C 460.28 602.86 443.14 604.23 428.59 611.37 M 283.04 671.47 C 279.13 679.40 274.06 686.77 271.17 695.18 C 268.63 701.87 267.93 709.02 267.11 716.07 C 267.17 717.67 265.68 719.37 264.30 717.68 C 263.06 714.45 263.64 710.90 263.65 707.53 C 261.58 709.91 259.44 712.23 257.27 714.52 C 257.13 721.59 259.49 728.62 263.79 734.22 C 273.18 746.62 288.93 754.05 304.50 752.95 C 305.41 750.19 306.32 747.43 307.39 744.73 C 305.95 745.39 304.48 746.35 302.83 745.76 C 302.57 743.62 303.74 741.73 305.13 740.23 C 317.33 727.57 327.10 712.85 338.52 699.52 C 344.85 691.96 352.41 685.54 358.56 677.83 C 343.16 683.02 326.68 679.60 311.08 677.26 C 301.73 675.45 291.61 676.18 283.04 671.47 M 379.36 740.32 C 372.33 751.60 368.41 764.41 362.17 776.09 C 354.82 791.32 347.22 806.99 334.97 818.96 C 331.00 823.00 326.52 826.50 322.47 830.46 C 315.93 836.15 310.64 843.29 307.21 851.26 C 305.74 854.71 303.52 858.15 303.68 862.02 C 304.91 863.31 307.23 864.15 308.63 862.65 C 311.56 859.40 312.42 854.70 315.80 851.78 C 319.94 848.27 325.68 846.40 331.05 847.84 C 334.95 848.42 339.04 851.64 338.69 855.93 C 337.83 862.07 333.10 867.10 333.20 873.49 C 336.04 872.80 339.72 872.11 340.83 868.97 C 343.87 862.53 347.21 856.20 351.43 850.45 C 356.54 844.55 362.69 839.69 368.64 834.67 C 378.93 825.60 390.25 817.74 400.04 808.09 C 424.76 784.72 446.15 757.13 459.13 725.48 C 449.08 727.98 438.64 724.34 430.35 718.69 C 422.34 713.13 415.42 704.93 414.13 694.98 C 400.87 708.70 388.70 723.63 379.36 740.32 M 236.39 741.45 C 230.30 750.57 224.22 759.80 219.98 769.96 C 212.56 787.23 203.77 803.96 198.06 821.92 C 194.39 833.38 191.23 845.08 185.86 855.91 C 183.18 862.14 178.09 866.92 175.40 873.14 C 180.44 872.31 185.79 871.48 190.74 873.23 C 193.90 874.36 196.22 877.62 195.88 881.04 C 195.29 891.55 186.25 899.07 184.72 909.28 C 189.05 910.08 192.92 907.69 196.25 905.24 C 204.89 898.69 211.28 889.62 216.39 880.16 C 221.52 870.69 223.54 859.95 228.21 850.29 C 234.13 838.74 244.34 830.32 253.83 821.80 C 262.51 814.50 269.93 805.89 277.36 797.36 C 287.39 785.31 296.45 772.27 302.66 757.81 C 290.06 759.20 277.35 754.34 267.79 746.27 C 259.79 739.58 253.64 730.09 252.64 719.54 C 246.92 726.61 241.32 733.79 236.39 741.45 M 291.78 859.75 C 287.73 864.67 283.60 869.82 281.77 876.03 C 279.94 882.32 280.85 889.01 279.18 895.33 C 276.57 905.46 270.03 913.95 266.81 923.84 C 264.40 930.96 262.25 938.57 263.84 946.12 C 265.01 951.95 268.81 957.79 274.81 959.42 C 285.54 963.28 297.79 959.51 305.91 951.91 C 313.47 945.34 317.10 935.64 318.91 926.04 C 322.35 908.52 329.96 892.27 337.62 876.28 C 335.86 876.44 334.11 876.74 332.34 876.62 C 329.98 876.03 329.03 873.30 329.30 871.11 C 329.89 865.40 333.72 860.64 334.41 854.96 C 330.99 850.88 324.35 851.50 320.23 854.20 C 315.45 857.30 315.10 864.13 310.32 867.24 C 305.81 870.05 298.84 866.47 299.07 861.01 C 299.38 855.03 302.91 849.91 305.23 844.56 C 300.65 849.53 296.20 854.63 291.78 859.75 M 172.68 878.60 C 164.33 893.98 152.18 906.76 141.27 920.31 C 130.25 932.71 120.04 946.56 115.71 962.83 C 114.64 967.27 113.82 972.95 117.70 976.32 C 122.23 979.83 128.48 979.86 133.94 979.29 C 142.94 978.41 150.83 973.33 157.40 967.40 C 162.74 962.68 166.94 956.88 171.51 951.46 C 182.13 938.93 196.89 930.99 208.37 919.38 C 216.60 910.60 221.01 898.09 219.19 886.10 C 213.24 895.81 206.15 905.26 196.36 911.40 C 192.51 913.85 187.64 915.65 183.13 913.97 C 179.99 912.84 179.03 909.00 179.74 906.04 C 181.66 896.98 189.17 890.13 190.48 880.89 C 190.96 878.90 188.67 877.83 187.06 877.70 C 182.25 877.14 177.46 878.26 172.68 878.60 Z" />
		<path fill="#020202" opacity="1.00"
			d=" M 560.55 185.43 C 565.83 185.27 569.57 181.45 573.68 178.70 C 573.80 181.32 574.49 184.07 573.66 186.63 C 570.88 188.55 567.22 191.25 563.77 189.42 C 562.13 188.73 560.47 187.38 560.55 185.43 Z" />
		<path fill="#020202" opacity="1.00"
			d=" M 539.19 199.97 C 546.99 199.26 554.86 200.54 562.57 201.71 C 564.61 202.28 567.93 202.12 567.76 205.08 C 566.57 205.60 565.38 206.08 564.17 206.52 C 562.84 208.08 561.36 210.09 559.03 209.70 C 554.00 209.36 549.01 208.49 544.08 207.50 C 542.18 207.10 542.44 204.78 542.04 203.34 C 540.64 202.53 538.32 202.12 539.19 199.97 Z" />
		<path fill="#020202" opacity="1.00"
			d=" M 603.32 232.38 C 610.60 231.09 618.61 228.75 625.60 232.43 C 622.54 233.81 619.16 234.05 615.89 234.51 C 597.07 237.67 579.07 244.53 562.05 253.04 C 548.85 259.55 536.43 267.65 525.24 277.22 C 521.94 280.02 519.20 283.48 515.45 285.74 C 515.37 281.13 518.82 277.86 521.84 274.90 C 544.63 253.90 573.11 239.20 603.32 232.38 Z" />
		<path fill="#020202" opacity="1.00"
			d=" M 435.17 682.16 C 436.76 681.02 438.37 683.39 438.16 684.91 C 438.16 689.66 437.31 694.37 436.80 699.09 C 436.40 701.02 436.44 703.83 434.02 704.35 C 431.70 703.65 432.24 700.87 432.15 699.02 C 432.34 694.50 432.55 689.96 433.42 685.51 C 433.83 684.36 433.79 682.61 435.17 682.16 Z" />
	</g>
	<g id="#f0b58bff">
		<path fill="#f0b58b" opacity="1.00"
			d=" M 536.88 128.08 C 539.00 121.28 541.85 114.26 547.35 109.48 C 548.24 112.80 548.76 116.32 550.59 119.32 C 552.64 122.76 555.68 125.44 558.45 128.30 C 559.38 122.28 560.41 116.08 563.46 110.70 C 564.55 115.23 565.21 120.03 567.83 124.01 C 571.33 129.40 575.69 134.49 581.46 137.52 C 581.32 130.81 580.57 124.06 581.86 117.41 C 584.03 122.53 586.36 127.64 589.81 132.05 C 589.62 135.98 589.18 139.90 588.59 143.79 C 583.91 144.04 578.70 143.80 574.75 146.71 C 572.34 149.13 571.89 152.75 571.43 155.97 C 571.10 161.68 570.50 167.44 571.19 173.15 C 571.44 174.69 571.59 177.07 573.76 176.80 C 574.93 172.10 574.05 167.07 575.94 162.48 C 579.44 162.94 582.89 163.73 586.36 164.39 C 585.63 178.07 581.91 191.78 574.36 203.30 C 568.80 210.41 561.94 217.38 552.91 219.67 C 545.37 221.44 537.04 220.72 530.28 216.76 C 525.87 214.59 522.14 211.28 517.83 208.97 C 515.64 208.78 516.16 210.65 517.07 211.83 C 523.93 219.73 533.81 225.30 544.46 225.35 C 540.24 227.67 536.77 231.04 533.26 234.28 C 526.78 240.30 520.84 247.26 517.77 255.69 C 502.76 241.51 490.21 224.68 480.87 206.27 C 478.92 202.19 476.36 197.66 477.83 193.01 C 479.58 187.77 483.47 183.65 485.83 178.72 C 487.01 176.44 487.68 173.93 488.90 171.67 C 491.51 169.21 494.72 167.19 496.34 163.85 C 496.61 155.79 492.99 148.07 493.69 139.98 C 493.96 136.96 496.58 133.97 499.80 134.35 C 502.65 134.57 504.16 137.33 505.55 139.46 C 509.26 145.59 509.29 153.06 509.52 160.01 C 509.65 166.18 507.52 172.07 507.04 178.17 C 509.30 177.24 511.81 176.29 513.09 174.04 C 516.22 168.03 515.95 160.99 517.82 154.62 C 519.84 149.90 525.73 150.66 529.89 150.97 C 539.93 151.06 549.65 153.64 559.43 155.56 C 560.97 151.92 561.68 147.87 561.31 143.93 C 560.50 140.99 557.09 140.33 554.54 139.68 C 548.08 138.47 541.60 137.32 535.11 136.29 C 530.54 135.21 526.50 138.15 522.53 139.89 C 523.02 134.50 522.38 129.05 520.92 123.85 C 522.90 125.90 525.08 127.77 527.53 129.26 C 527.70 125.31 527.54 121.36 527.72 117.41 C 530.68 121.04 533.43 124.87 536.88 128.08 M 560.55 185.43 C 560.47 187.38 562.13 188.73 563.77 189.42 C 567.22 191.25 570.88 188.55 573.66 186.63 C 574.49 184.07 573.80 181.32 573.68 178.70 C 569.57 181.45 565.83 185.27 560.55 185.43 M 539.19 199.97 C 538.32 202.12 540.64 202.53 542.04 203.34 C 542.44 204.78 542.18 207.10 544.08 207.50 C 549.01 208.49 554.00 209.36 559.03 209.70 C 561.36 210.09 562.84 208.08 564.17 206.52 C 565.38 206.08 566.57 205.60 567.76 205.08 C 567.93 202.12 564.61 202.28 562.57 201.71 C 554.86 200.54 546.99 199.26 539.19 199.97 Z" />
		<path fill="#f0b58b" opacity="1.00"
			d=" M 706.76 166.20 C 720.21 166.54 733.65 167.44 747.02 168.93 C 757.81 170.00 768.84 170.29 779.24 173.68 C 789.63 177.22 797.54 185.63 803.10 194.83 C 813.92 213.08 822.73 232.42 833.01 250.97 C 841.64 265.18 849.43 280.00 859.83 293.05 C 864.40 299.21 870.84 303.53 876.92 308.06 C 883.82 313.24 889.01 320.33 893.14 327.83 C 902.76 344.56 910.62 363.19 910.55 382.79 C 906.23 377.78 903.95 371.51 901.33 365.55 C 898.14 357.95 893.43 351.08 888.18 344.77 C 887.56 343.60 884.76 342.92 885.37 345.01 C 888.92 353.67 896.42 360.67 897.86 370.22 C 899.74 380.25 902.33 390.46 900.99 400.73 C 898.01 394.98 896.77 388.58 894.63 382.51 C 891.17 372.36 887.61 361.78 880.15 353.79 C 879.13 352.71 877.68 352.15 876.43 351.48 C 876.87 355.10 879.47 357.84 881.14 360.95 C 886.35 370.07 889.43 380.20 892.55 390.18 C 893.82 397.22 895.34 404.79 892.54 411.68 C 887.80 403.05 885.46 393.43 882.84 384.02 C 880.34 374.84 876.94 365.86 872.32 357.53 C 871.65 355.89 868.69 355.71 869.40 358.12 C 870.90 364.66 873.69 370.84 875.88 377.17 C 878.08 383.42 879.81 389.82 881.78 396.15 C 883.59 401.06 882.19 406.36 880.65 411.15 C 877.43 405.57 875.53 399.37 873.97 393.16 C 870.87 381.26 866.94 369.32 859.89 359.12 C 857.91 356.56 855.76 353.90 852.83 352.42 C 850.48 351.19 848.07 353.57 848.40 355.97 C 849.01 370.66 863.16 382.28 859.68 397.53 C 856.16 396.10 854.34 392.65 852.42 389.63 C 849.96 385.66 847.84 381.50 845.49 377.48 C 840.94 369.81 841.29 360.52 841.08 351.92 C 841.28 336.91 840.91 321.06 833.51 307.56 C 829.07 300.20 823.31 293.77 818.14 286.94 C 802.19 265.69 788.47 242.88 773.14 221.20 C 775.95 221.12 778.82 221.29 781.60 220.67 C 781.78 220.23 782.15 219.34 782.33 218.90 C 779.55 217.07 776.11 216.93 772.91 216.62 C 755.39 215.43 737.93 219.34 721.53 225.27 C 723.24 215.49 721.59 205.55 719.36 195.99 C 716.78 185.49 713.00 175.11 706.76 166.20 Z" />
		<path fill="#f0b58b" opacity="1.00"
			d=" M 327.14 363.25 C 331.11 355.30 335.31 347.35 341.22 340.65 C 358.95 340.73 375.77 348.23 390.24 357.99 C 386.29 363.58 382.84 369.49 378.93 375.11 C 373.07 369.48 366.75 363.89 358.86 361.37 C 352.57 359.15 345.54 359.16 339.27 361.45 C 337.91 361.75 337.33 363.10 336.55 364.08 C 342.55 364.01 348.72 362.66 354.57 364.72 C 366.58 368.27 374.39 378.64 383.49 386.52 C 390.04 392.45 398.49 395.46 406.70 398.28 C 410.70 399.64 414.84 400.60 419.04 401.13 C 407.29 407.25 400.25 419.93 397.71 432.58 C 389.93 431.45 382.44 429.01 374.87 427.02 C 360.79 423.12 346.22 421.52 332.00 418.23 C 327.35 417.16 321.74 416.49 319.09 411.95 C 315.54 406.04 315.21 398.63 316.48 391.99 C 318.47 381.91 322.56 372.39 327.14 363.25 Z" />
		<path fill="#f0b58b" opacity="1.00"
			d=" M 415.36 409.31 C 420.63 404.03 428.72 403.12 435.77 404.21 C 445.56 407.21 454.35 413.52 460.17 421.98 C 461.41 423.95 461.75 426.54 460.72 428.70 C 459.01 432.52 457.01 436.20 455.18 439.97 C 447.26 431.54 441.52 420.61 431.17 414.80 C 429.83 413.70 428.44 414.73 427.38 415.63 C 437.34 423.65 444.06 434.69 452.63 444.03 C 451.18 445.64 449.51 447.85 447.03 447.34 C 443.99 446.70 441.48 444.71 439.12 442.80 C 432.93 437.67 428.35 430.93 422.21 425.76 C 421.20 424.87 419.97 424.27 418.73 423.81 C 417.63 426.02 419.51 427.72 420.66 429.39 C 426.88 437.46 433.63 445.43 442.42 450.79 C 440.21 452.95 437.35 455.35 434.02 454.34 C 427.15 451.77 421.65 446.53 417.13 440.89 C 414.62 438.09 412.29 434.70 408.49 433.61 C 412.72 443.95 420.66 452.66 430.51 457.96 C 422.32 460.77 414.92 454.89 408.83 450.20 C 403.81 446.58 400.72 440.16 401.94 433.97 C 403.71 424.64 408.64 415.97 415.36 409.31 Z" />
		<path fill="#f0b58b" opacity="1.00"
			d=" M 428.59 611.37 C 443.14 604.23 460.28 602.86 475.82 607.40 C 494.52 612.47 509.79 627.28 516.64 645.26 C 513.68 651.68 509.09 657.13 504.67 662.60 C 492.05 677.33 478.20 691.21 462.00 702.02 C 458.93 704.62 454.09 705.98 453.31 710.44 C 458.61 710.10 462.85 706.57 467.49 704.38 C 465.01 709.54 462.99 714.90 461.08 720.28 C 452.55 722.58 443.47 720.35 436.03 715.93 C 428.84 711.66 422.46 705.43 419.50 697.48 C 418.55 694.41 417.42 690.55 419.90 687.91 C 427.60 677.70 429.25 664.40 428.90 651.97 C 429.30 638.43 428.24 624.90 428.59 611.37 M 435.17 682.16 C 433.79 682.61 433.83 684.36 433.42 685.51 C 432.55 689.96 432.34 694.50 432.15 699.02 C 432.24 700.87 431.70 703.65 434.02 704.35 C 436.44 703.83 436.40 701.02 436.80 699.09 C 437.31 694.37 438.16 689.66 438.16 684.91 C 438.37 683.39 436.76 681.02 435.17 682.16 Z" />
		<path fill="#f0b58b" opacity="1.00"
			d=" M 283.04 671.47 C 291.61 676.18 301.73 675.45 311.08 677.26 C 326.68 679.60 343.16 683.02 358.56 677.83 C 352.41 685.54 344.85 691.96 338.52 699.52 C 327.10 712.85 317.33 727.57 305.13 740.23 C 303.74 741.73 302.57 743.62 302.83 745.76 C 304.48 746.35 305.95 745.39 307.39 744.73 C 306.32 747.43 305.41 750.19 304.50 752.95 C 288.93 754.05 273.18 746.62 263.79 734.22 C 259.49 728.62 257.13 721.59 257.27 714.52 C 259.44 712.23 261.58 709.91 263.65 707.53 C 263.64 710.90 263.06 714.45 264.30 717.68 C 265.68 719.37 267.17 717.67 267.11 716.07 C 267.93 709.02 268.63 701.87 271.17 695.18 C 274.06 686.77 279.13 679.40 283.04 671.47 Z" />
	</g>
	<g id="#f11b27ff">
		<path fill="var(--shirt-color, grey)" opacity="1.00"
			d=" M 672.24 170.13 C 678.89 168.17 684.77 163.68 691.89 163.34 C 695.01 163.18 699.11 162.91 701.01 165.97 C 709.72 178.31 713.95 193.24 716.10 208.03 C 717.14 214.64 716.64 221.34 715.67 227.92 C 694.67 232.92 673.11 235.52 652.41 241.77 C 657.58 237.11 662.85 232.52 668.83 228.91 C 670.28 227.91 672.71 226.65 671.57 224.51 C 669.75 222.74 667.43 224.67 665.61 225.47 C 655.18 231.71 646.36 240.25 638.11 249.09 C 625.89 262.61 615.06 277.46 606.56 293.60 C 603.12 300.38 599.76 307.43 598.75 315.05 C 598.27 316.92 599.14 318.67 599.71 320.41 C 601.62 316.61 602.85 312.52 604.49 308.60 C 608.35 299.29 613.43 290.54 618.94 282.12 C 614.33 292.59 609.02 302.84 605.98 313.92 C 600.73 333.17 600.00 353.23 599.48 373.05 C 599.06 389.11 598.36 405.16 596.68 421.14 C 595.42 431.45 594.98 442.19 590.78 451.84 C 587.30 457.27 583.31 462.61 581.76 469.00 C 581.65 470.61 580.58 473.46 583.01 473.93 C 586.75 468.71 588.71 462.43 592.64 457.30 C 591.92 464.78 592.06 472.46 589.76 479.69 C 587.64 486.12 581.56 490.32 575.34 492.26 C 564.82 495.12 553.86 495.64 543.02 495.87 C 520.07 496.19 496.95 496.96 474.41 501.66 C 466.49 503.25 458.91 506.11 451.18 508.40 C 440.04 511.87 428.61 514.30 417.19 516.64 C 408.46 518.23 399.53 519.89 390.64 518.61 C 375.29 516.44 360.18 510.75 348.00 501.03 C 345.74 499.02 342.14 496.52 343.70 493.03 C 345.68 488.51 348.89 484.69 351.70 480.68 C 354.96 475.78 360.56 473.42 365.39 470.43 C 377.85 463.13 391.53 458.34 405.09 453.55 C 410.79 457.61 416.79 462.11 423.97 462.87 C 427.76 463.39 431.12 461.33 433.96 459.08 C 438.74 458.88 443.12 456.31 445.04 451.83 C 447.23 451.62 449.63 451.77 451.57 450.54 C 453.61 449.43 454.51 447.19 455.59 445.28 C 460.22 441.95 461.91 436.23 464.39 431.36 C 466.39 427.38 465.38 422.59 462.91 419.07 C 457.48 411.50 450.56 404.68 441.77 401.21 C 432.50 396.72 421.89 397.63 412.19 394.72 C 405.82 392.82 399.61 390.41 393.54 387.71 C 396.73 378.95 400.27 369.73 398.67 360.24 C 402.76 354.50 406.61 348.60 410.31 342.60 C 418.11 345.05 425.82 347.99 433.95 349.15 C 454.49 352.06 475.61 351.35 495.83 346.62 C 504.76 344.38 514.02 341.70 521.42 336.03 C 522.02 332.83 518.74 334.55 517.06 335.01 C 490.63 345.63 461.30 347.61 433.20 344.34 C 426.05 343.39 419.20 341.05 412.17 339.53 C 417.15 331.34 421.76 322.92 426.53 314.62 C 439.47 299.46 457.12 289.31 474.97 280.97 C 479.48 278.72 484.53 277.29 488.25 273.73 C 486.69 273.48 485.10 272.73 483.54 273.38 C 463.62 279.98 444.72 290.41 430.04 305.59 C 433.77 294.68 438.32 283.96 440.37 272.57 C 440.74 269.82 441.69 266.12 438.52 264.71 C 437.17 272.97 434.75 281.01 431.81 288.84 C 428.18 298.34 425.16 308.15 420.17 317.06 C 412.56 330.46 404.81 343.80 396.20 356.58 C 383.40 347.09 368.88 339.26 353.05 336.49 C 344.54 335.20 335.65 335.44 327.48 338.36 C 333.46 324.13 340.47 310.37 347.85 296.82 C 349.40 294.13 350.59 291.17 352.67 288.83 C 354.86 287.66 357.38 287.33 359.80 286.91 C 372.29 285.31 385.02 286.10 397.28 288.91 C 396.56 287.61 396.26 285.85 394.67 285.31 C 390.11 283.14 384.99 282.63 380.04 282.02 C 371.84 281.05 363.45 281.44 355.44 283.52 C 358.95 275.79 359.98 267.31 362.24 259.21 C 365.58 246.70 371.53 234.86 379.95 225.01 C 386.25 216.93 393.79 209.77 402.58 204.46 C 413.75 197.93 425.88 193.22 438.23 189.41 C 455.07 184.16 470.97 176.19 485.57 166.31 C 484.21 173.92 479.50 180.17 475.53 186.58 C 472.44 191.40 471.68 197.65 474.07 202.92 C 481.75 220.65 493.20 236.54 506.24 250.70 C 510.05 254.37 513.54 258.56 518.13 261.27 C 520.57 262.27 520.97 259.46 521.71 257.84 C 524.43 249.47 530.68 242.92 536.96 237.03 C 543.23 231.00 550.45 225.91 558.43 222.39 C 564.36 219.76 569.12 215.21 573.70 210.73 C 577.11 207.35 579.78 203.30 581.82 198.97 C 586.27 189.56 589.74 179.53 590.47 169.08 C 597.50 168.67 604.67 168.09 611.63 169.49 C 618.69 171.38 624.64 176.17 629.20 181.74 C 634.68 188.60 640.25 195.47 646.57 201.58 C 647.81 203.33 650.57 202.34 650.10 200.11 C 649.13 197.03 646.89 194.58 645.02 192.03 C 639.40 184.95 634.46 177.19 627.45 171.36 C 633.60 172.05 639.79 172.38 645.99 172.27 C 654.76 172.13 663.68 172.36 672.24 170.13 M 603.32 232.38 C 573.11 239.20 544.63 253.90 521.84 274.90 C 518.82 277.86 515.37 281.13 515.45 285.74 C 519.20 283.48 521.94 280.02 525.24 277.22 C 536.43 267.65 548.85 259.55 562.05 253.04 C 579.07 244.53 597.07 237.67 615.89 234.51 C 619.16 234.05 622.54 233.81 625.60 232.43 C 618.61 228.75 610.60 231.09 603.32 232.38 Z" />
		<path fill="var(--shirt-color, grey)" opacity="1.00"
			d=" M 376.76 432.17 C 383.38 434.07 390.00 436.08 396.84 437.06 C 397.10 441.52 398.61 445.79 401.02 449.55 C 386.82 453.35 373.37 459.75 361.04 467.70 C 368.18 456.82 373.24 444.67 376.76 432.17 Z" />
	</g>
	<g id="#ffffffff">
		<path fill="var(--pants-color, grey)" opacity="1.00"
			d=" M 568.01 499.00 C 572.91 498.55 577.65 497.11 581.97 494.74 C 578.65 503.45 572.42 510.51 565.73 516.82 C 561.51 520.35 563.15 526.27 562.79 531.04 C 561.77 547.29 556.81 562.96 551.39 578.21 C 544.24 597.54 535.08 616.05 525.09 634.04 C 523.83 636.24 522.14 638.13 520.54 640.08 C 515.18 627.59 506.37 616.51 494.80 609.25 C 478.14 598.57 456.66 596.04 437.77 601.60 C 432.72 603.37 426.98 605.22 423.76 609.76 C 422.31 616.13 423.46 622.73 423.45 629.19 C 420.91 628.21 418.24 627.48 415.88 626.10 C 413.99 617.46 415.67 608.56 417.18 599.99 C 420.00 592.23 422.81 584.45 425.42 576.61 C 426.46 573.33 427.70 569.79 426.26 566.43 C 425.12 567.96 424.19 569.62 423.65 571.45 C 419.18 584.61 413.47 597.28 407.97 610.03 C 405.96 614.60 404.52 619.47 401.67 623.63 C 398.66 628.12 395.57 632.79 394.58 638.20 C 393.60 644.58 394.40 651.04 394.92 657.43 C 387.49 659.19 380.48 662.30 373.49 665.31 C 364.53 669.22 355.91 674.80 345.89 675.41 C 330.62 676.42 315.58 672.90 300.49 671.26 C 295.24 670.05 289.25 669.86 285.24 665.79 C 281.27 662.79 280.19 657.60 279.70 652.95 C 281.02 646.22 286.77 641.46 288.58 634.88 C 291.88 623.34 292.13 611.22 294.19 599.43 C 295.95 583.46 309.54 572.62 314.94 558.07 C 317.19 552.92 316.89 547.20 317.88 541.78 C 321.53 526.15 335.14 515.52 339.86 500.34 C 351.69 512.34 368.00 518.79 384.19 522.39 C 399.78 526.08 415.66 522.09 430.98 519.01 C 441.85 516.80 452.50 513.62 463.03 510.15 C 471.28 507.37 479.89 505.92 488.50 504.78 C 502.27 503.11 516.13 502.07 530.01 501.82 C 542.70 501.48 555.51 501.58 568.01 499.00 Z" />
		<path fill="var(--socks-color, grey)" opacity="1.00"
			d=" M 379.36 740.32 C 388.70 723.63 400.87 708.70 414.13 694.98 C 415.42 704.93 422.34 713.13 430.35 718.69 C 438.64 724.34 449.08 727.98 459.13 725.48 C 446.15 757.13 424.76 784.72 400.04 808.09 C 390.25 817.74 378.93 825.60 368.64 834.67 C 362.69 839.69 356.54 844.55 351.43 850.45 C 347.21 856.20 343.87 862.53 340.83 868.97 C 339.72 872.11 336.04 872.80 333.20 873.49 C 333.10 867.10 337.83 862.07 338.69 855.93 C 339.04 851.64 334.95 848.42 331.05 847.84 C 325.68 846.40 319.94 848.27 315.80 851.78 C 312.42 854.70 311.56 859.40 308.63 862.65 C 307.23 864.15 304.91 863.31 303.68 862.02 C 303.52 858.15 305.74 854.71 307.21 851.26 C 310.64 843.29 315.93 836.15 322.47 830.46 C 326.52 826.50 331.00 823.00 334.97 818.96 C 347.22 806.99 354.82 791.32 362.17 776.09 C 368.41 764.41 372.33 751.60 379.36 740.32 Z" />
		<path fill="var(--socks-color, grey)" opacity="1.00"
			d=" M 236.39 741.45 C 241.32 733.79 246.92 726.61 252.64 719.54 C 253.64 730.09 259.79 739.58 267.79 746.27 C 277.35 754.34 290.06 759.20 302.66 757.81 C 296.45 772.27 287.39 785.31 277.36 797.36 C 269.93 805.89 262.51 814.50 253.83 821.80 C 244.34 830.32 234.13 838.74 228.21 850.29 C 223.54 859.95 221.52 870.69 216.39 880.16 C 211.28 889.62 204.89 898.69 196.25 905.24 C 192.92 907.69 189.05 910.08 184.72 909.28 C 186.25 899.07 195.29 891.55 195.88 881.04 C 196.22 877.62 193.90 874.36 190.74 873.23 C 185.79 871.48 180.44 872.31 175.40 873.14 C 178.09 866.92 183.18 862.14 185.86 855.91 C 191.23 845.08 194.39 833.38 198.06 821.92 C 203.77 803.96 212.56 787.23 219.98 769.96 C 224.22 759.80 230.30 750.57 236.39 741.45 Z" />
	</g>
	<g id="#4d4d4dff">
		<path fill="#4d4d4d" opacity="1.00"
			d=" M 291.78 859.75 C 296.20 854.63 300.65 849.53 305.23 844.56 C 302.91 849.91 299.38 855.03 299.07 861.01 C 298.84 866.47 305.81 870.05 310.32 867.24 C 315.10 864.13 315.45 857.30 320.23 854.20 C 324.35 851.50 330.99 850.88 334.41 854.96 C 333.72 860.64 329.89 865.40 329.30 871.11 C 329.03 873.30 329.98 876.03 332.34 876.62 C 334.11 876.74 335.86 876.44 337.62 876.28 C 329.96 892.27 322.35 908.52 318.91 926.04 C 317.10 935.64 313.47 945.34 305.91 951.91 C 297.79 959.51 285.54 963.28 274.81 959.42 C 268.81 957.79 265.01 951.95 263.84 946.12 C 262.25 938.57 264.40 930.96 266.81 923.84 C 270.03 913.95 276.57 905.46 279.18 895.33 C 280.85 889.01 279.94 882.32 281.77 876.03 C 283.60 869.82 287.73 864.67 291.78 859.75 Z" />
		<path fill="#4d4d4d" opacity="1.00"
			d=" M 172.68 878.60 C 177.46 878.26 182.25 877.14 187.06 877.70 C 188.67 877.83 190.96 878.90 190.48 880.89 C 189.17 890.13 181.66 896.98 179.74 906.04 C 179.03 909.00 179.99 912.84 183.13 913.97 C 187.64 915.65 192.51 913.85 196.36 911.40 C 206.15 905.26 213.24 895.81 219.19 886.10 C 221.01 898.09 216.60 910.60 208.37 919.38 C 196.89 930.99 182.13 938.93 171.51 951.46 C 166.94 956.88 162.74 962.68 157.40 967.40 C 150.83 973.33 142.94 978.41 133.94 979.29 C 128.48 979.86 122.23 979.83 117.70 976.32 C 113.82 972.95 114.64 967.27 115.71 962.83 C 120.04 946.56 130.25 932.71 141.27 920.31 C 152.18 906.76 164.33 893.98 172.68 878.60 Z" />
	</g>
</svg>