<?xml version="1.0" encoding="UTF-8" ?>
<!DOCTYPE svg PUBLIC "-//W3C//DTD SVG 1.1//EN" "http://www.w3.org/Graphics/SVG/1.1/DTD/svg11.dtd">
<svg width="1000pt" height="1000pt" viewBox="0 0 1000 1000" version="1.1" xmlns="http://www.w3.org/2000/svg">
	<g id="#020202ff">
		<path fill="#020202" opacity="1.00"
			d=" M 544.22 51.41 C 558.51 47.65 574.52 47.06 587.91 54.18 C 600.53 60.45 609.25 73.19 611.66 86.94 C 613.01 96.78 611.39 106.68 609.59 116.35 C 608.50 115.32 607.42 114.28 606.36 113.24 C 603.83 126.97 601.12 140.70 597.37 154.16 C 594.70 164.03 590.36 173.74 583.02 181.04 C 577.08 187.10 568.63 189.93 560.36 190.85 C 569.28 192.91 577.85 196.60 585.52 201.59 C 592.91 206.41 598.12 214.30 599.49 223.04 C 601.90 234.85 597.60 246.49 593.68 257.44 C 590.50 266.43 587.28 275.69 580.91 282.99 C 580.60 290.22 579.21 297.50 575.82 303.95 C 572.07 311.00 567.91 317.82 563.56 324.51 C 557.66 333.55 552.51 343.16 545.31 351.27 C 545.77 361.48 546.78 371.76 545.58 381.95 C 543.70 393.69 539.76 405.63 531.57 414.53 C 529.94 416.47 527.63 418.22 527.62 421.01 C 526.76 427.55 525.17 434.19 526.21 440.80 C 527.21 446.00 532.12 448.85 535.46 452.49 C 541.20 458.64 549.35 463.46 551.49 472.15 C 552.83 476.93 550.92 481.74 548.09 485.56 C 553.41 487.66 557.31 492.01 560.25 496.78 C 563.23 501.70 568.30 504.68 572.48 508.46 C 578.85 514.15 584.71 520.45 589.79 527.33 C 593.08 531.69 595.20 536.95 599.34 540.64 C 610.31 549.92 618.45 562.32 623.38 575.77 C 625.60 581.97 627.59 588.37 627.78 595.00 C 633.64 603.80 641.09 611.44 646.42 620.61 C 653.39 631.59 659.55 644.68 656.85 658.00 C 656.14 662.91 652.40 666.88 652.32 671.92 C 651.67 682.28 651.72 692.71 650.12 702.99 C 647.61 719.41 643.38 735.52 638.28 751.31 C 633.08 766.67 627.87 782.08 620.84 796.73 C 613.83 812.32 604.95 826.97 597.29 842.25 C 594.34 847.95 592.67 854.17 591.16 860.39 C 598.18 867.93 598.24 879.03 603.36 887.67 C 610.08 900.26 625.05 904.47 633.83 915.18 C 638.33 920.63 643.32 926.66 643.88 934.00 C 644.35 939.13 640.19 943.43 635.31 944.24 C 624.27 946.24 612.94 943.45 602.73 939.26 C 595.05 935.76 588.24 930.58 582.09 924.85 C 578.90 921.86 575.12 919.56 571.05 918.00 C 564.81 915.57 558.52 913.15 551.94 911.81 C 545.71 910.47 539.47 908.93 533.60 906.41 C 528.93 904.36 525.73 899.18 526.53 894.05 C 527.54 885.03 531.57 876.69 535.72 868.73 C 538.17 864.04 540.84 859.36 544.79 855.76 C 546.95 853.90 547.75 851.08 548.52 848.46 C 554.01 827.82 556.66 806.41 556.13 785.05 C 555.75 775.42 555.84 765.76 556.59 756.15 C 557.64 745.59 560.28 735.27 562.83 724.99 C 565.51 713.95 569.70 703.36 572.61 692.39 C 575.34 683.22 577.60 673.83 581.83 665.19 C 572.19 657.99 563.04 649.72 551.64 645.37 C 547.43 643.28 542.73 645.78 538.37 644.48 C 535.05 643.55 532.90 640.69 530.54 638.38 C 525.10 632.68 517.40 629.75 512.19 623.79 C 502.68 613.13 495.97 600.30 486.27 589.80 C 482.44 595.19 477.85 600.16 475.17 606.28 C 469.82 618.60 463.50 630.46 457.43 642.42 C 453.94 648.64 450.59 655.50 444.25 659.31 C 440.59 662.06 435.81 661.64 431.51 661.96 C 427.96 675.04 424.74 688.23 420.13 700.99 C 416.63 710.69 412.60 721.67 402.66 726.46 C 400.17 745.22 397.08 764.13 389.71 781.69 C 384.76 793.39 380.31 805.94 371.01 815.01 C 346.95 840.45 329.44 872.80 324.75 907.75 C 323.92 918.29 323.46 928.96 324.78 939.49 C 326.54 949.92 332.32 958.99 336.26 968.65 C 338.07 973.38 339.56 978.78 337.74 983.74 C 336.37 987.38 332.57 989.42 328.89 990.01 C 321.82 991.12 314.61 990.65 307.51 990.12 C 298.37 989.20 289.13 988.80 280.17 986.61 C 273.19 985.07 265.76 982.75 261.07 977.00 C 257.19 972.27 257.08 965.76 257.29 959.96 C 258.17 943.88 261.46 927.93 266.85 912.77 C 269.05 906.27 272.69 900.39 277.12 895.19 C 281.59 883.00 287.52 871.27 290.46 858.54 C 294.17 844.21 294.92 829.38 296.70 814.75 C 298.72 797.97 299.06 780.78 304.36 764.59 C 309.55 748.37 318.91 733.99 327.42 719.39 C 332.88 709.92 339.50 701.15 344.37 691.35 C 350.40 678.50 348.95 663.96 349.19 650.19 C 346.00 646.16 342.22 642.21 341.11 637.02 C 338.95 628.15 339.89 618.95 340.26 609.95 C 340.92 600.86 341.42 591.69 343.50 582.79 C 341.54 582.65 339.60 582.47 337.67 582.24 C 331.04 583.87 326.34 578.26 323.30 573.25 C 318.36 571.46 313.67 567.94 312.29 562.64 C 308.62 550.76 310.43 538.03 312.79 526.08 C 314.42 518.43 316.12 510.77 318.74 503.39 C 320.04 499.76 320.89 495.89 320.35 492.03 C 317.97 475.17 311.57 459.29 306.95 443.00 C 305.34 437.97 303.80 432.91 301.93 427.97 C 297.35 416.55 294.33 404.57 291.68 392.58 C 290.19 386.14 289.25 379.58 288.74 372.99 C 288.19 364.64 286.74 356.24 288.11 347.90 C 288.81 341.74 291.72 336.16 294.89 330.95 C 299.79 323.01 305.02 315.19 311.62 308.55 C 309.16 306.14 306.65 303.78 304.31 301.25 C 307.50 290.41 315.28 281.89 322.85 273.85 C 341.32 254.56 360.48 235.45 383.40 221.45 C 387.49 219.43 389.02 214.96 391.42 211.40 C 395.28 205.44 399.42 199.38 405.36 195.29 C 412.42 190.41 420.30 186.51 428.78 184.85 C 439.04 182.81 449.55 183.12 459.96 183.16 C 463.80 183.18 467.80 182.97 471.31 181.22 C 476.69 178.52 481.11 174.28 486.41 171.45 C 489.20 169.93 492.47 170.38 495.51 170.46 C 499.54 162.90 503.82 155.32 505.93 146.95 C 507.05 141.05 505.67 135.04 504.75 129.20 C 501.90 114.71 501.54 99.19 507.30 85.33 C 513.60 69.21 527.44 56.05 544.22 51.41 M 548.30 89.92 C 547.88 94.01 547.65 98.12 547.04 102.19 C 545.28 100.48 543.66 98.66 542.11 96.78 C 543.66 101.99 543.94 107.49 543.15 112.87 C 546.96 111.56 550.88 109.44 555.02 110.44 C 561.56 111.61 567.85 113.85 574.08 116.12 C 575.29 116.75 577.25 117.22 577.33 118.88 C 577.42 122.62 576.31 126.30 575.39 129.91 C 564.45 127.96 554.07 123.29 542.94 122.39 C 539.41 121.79 536.54 124.84 535.80 128.04 C 533.95 134.54 531.62 141.01 527.59 146.51 C 527.63 138.00 527.92 129.46 527.27 120.97 C 527.01 115.73 524.01 111.12 519.94 107.98 C 516.13 112.33 516.47 118.54 516.59 123.95 C 517.48 135.04 514.20 146.16 508.69 155.70 C 505.74 160.14 503.39 164.94 500.44 169.38 C 497.26 174.01 495.60 179.60 491.81 183.82 C 489.32 186.67 485.25 186.63 481.89 187.64 C 483.24 197.30 489.93 204.94 495.61 212.45 C 502.57 220.12 510.06 227.39 518.25 233.75 C 523.81 231.61 529.03 228.46 533.29 224.28 C 542.28 215.08 544.84 201.99 548.36 190.10 C 543.02 187.97 538.98 183.74 535.86 179.03 C 532.93 174.56 529.28 170.08 528.84 164.55 C 534.28 170.35 537.46 178.16 543.96 183.02 C 547.08 185.41 551.19 185.43 554.92 185.86 C 564.27 186.87 574.44 183.91 580.83 176.78 C 590.18 167.06 593.77 153.60 596.56 140.79 C 594.23 139.75 591.91 138.71 589.58 137.70 C 588.72 142.15 588.24 146.82 586.11 150.89 C 585.70 150.57 584.87 149.91 584.45 149.58 C 582.24 144.60 581.89 138.79 583.88 133.67 C 585.28 130.10 585.72 125.46 589.23 123.25 C 592.89 122.09 596.83 122.36 600.62 121.83 C 601.57 117.67 602.58 113.52 603.79 109.42 C 601.05 105.56 598.98 101.30 597.38 96.86 C 596.39 103.17 595.75 109.53 595.45 115.92 C 587.66 109.64 582.79 100.44 579.85 91.02 C 578.19 96.07 576.97 101.27 576.54 106.58 C 572.18 102.01 569.32 96.32 567.41 90.35 C 565.01 91.53 562.34 92.45 560.54 94.52 C 558.71 96.66 558.13 99.50 557.46 102.15 C 556.42 96.85 552.29 93.16 548.30 89.92 M 486.63 176.58 C 479.84 181.11 473.36 187.30 464.74 187.68 C 451.38 188.25 437.66 186.89 424.65 190.74 C 415.71 193.70 406.98 198.58 401.27 206.26 C 394.51 215.12 389.19 224.95 383.76 234.64 C 381.60 238.22 379.42 241.97 376.00 244.51 C 375.69 244.16 375.07 243.48 374.76 243.13 C 376.67 237.63 379.95 232.72 382.43 227.47 C 376.25 232.26 369.86 236.80 363.83 241.80 C 351.27 252.17 339.71 263.69 328.32 275.32 C 320.64 282.97 313.35 291.14 308.10 300.69 C 313.73 304.78 318.51 309.96 322.35 315.76 C 327.34 323.23 333.04 330.30 339.63 336.42 C 344.30 340.80 350.65 342.71 356.86 343.58 C 361.67 344.48 367.43 346.38 371.57 342.67 C 377.65 337.18 382.79 330.37 385.66 322.65 C 387.49 316.96 389.89 311.49 392.96 306.36 C 387.88 310.48 384.36 316.41 378.59 319.63 C 379.05 317.63 379.52 315.57 380.83 313.93 C 387.01 305.78 394.73 298.73 403.65 293.67 C 414.30 287.49 426.12 283.83 437.69 279.82 C 442.92 278.11 448.11 275.92 453.69 275.72 C 452.83 277.13 452.00 278.75 450.32 279.31 C 442.96 282.45 435.34 284.96 427.94 288.00 C 434.54 288.57 441.66 287.20 447.82 290.20 C 437.96 291.45 427.78 289.64 418.09 292.48 C 407.51 295.81 398.45 303.65 393.62 313.65 C 392.79 315.12 393.12 316.84 393.30 318.44 C 394.18 324.21 395.70 329.86 397.51 335.41 C 404.76 356.60 413.06 377.42 422.17 397.87 C 423.99 402.13 426.36 406.35 426.28 411.13 C 424.00 408.77 422.44 405.86 421.05 402.92 C 416.94 394.37 412.49 385.98 408.74 377.27 C 405.34 369.45 402.52 361.38 399.72 353.33 C 396.05 342.44 391.87 331.59 390.54 320.10 C 387.60 327.40 384.92 334.97 379.94 341.20 C 381.95 349.91 386.24 357.84 390.38 365.68 C 392.60 369.95 395.55 373.90 396.83 378.61 C 392.43 376.16 390.14 371.52 387.64 367.38 C 383.47 360.00 379.14 352.48 377.55 344.05 C 375.42 345.86 373.13 347.48 370.72 348.89 C 366.04 374.06 361.78 399.41 360.61 425.03 C 360.52 430.71 360.28 436.45 361.19 442.08 C 361.64 445.28 364.36 447.36 366.49 449.51 C 374.74 456.85 380.92 466.22 385.86 476.02 C 389.37 483.10 391.36 491.16 396.94 497.03 C 403.94 504.24 412.27 510.05 421.03 514.92 C 428.29 518.93 435.66 522.89 443.64 525.26 C 448.64 526.70 453.71 528.47 459.00 528.13 C 468.07 527.61 477.10 525.83 485.59 522.57 C 494.38 519.48 503.01 515.87 511.08 511.17 C 523.23 504.59 535.16 496.78 543.54 485.58 C 545.58 482.75 548.08 479.70 547.76 475.97 C 547.60 470.63 543.76 466.40 540.00 463.02 C 535.46 459.11 531.24 454.86 527.01 450.63 C 516.26 458.87 505.48 467.27 493.39 473.48 C 485.53 477.54 476.27 480.20 467.53 477.53 C 462.89 476.12 457.11 474.70 455.35 469.53 C 460.96 470.62 466.06 473.81 471.88 473.84 C 480.64 474.23 488.93 470.64 496.35 466.32 C 505.97 460.67 515.00 454.09 524.44 448.16 C 520.06 440.20 522.28 430.86 524.09 422.50 C 519.74 427.03 515.14 431.29 510.54 435.56 C 508.50 437.44 506.34 439.32 503.62 440.11 C 503.81 436.85 506.49 434.76 508.54 432.56 C 512.40 428.74 516.04 424.71 519.66 420.66 C 524.84 414.83 530.75 409.45 534.33 402.40 C 538.38 394.53 540.94 385.84 541.45 376.99 C 541.91 361.11 539.72 345.22 541.01 329.36 C 541.86 330.17 543.29 330.73 543.37 332.11 C 544.32 336.87 544.50 341.74 544.95 346.56 C 551.33 336.41 557.59 326.20 564.12 316.16 C 569.56 307.12 575.96 297.96 576.62 287.08 C 577.94 270.72 577.01 254.28 575.95 237.94 C 575.77 235.26 575.83 232.57 576.11 229.90 C 578.46 231.92 578.44 235.14 578.87 237.96 C 580.50 250.73 581.14 263.61 581.16 276.49 C 586.13 267.67 588.91 257.87 592.44 248.43 C 595.77 239.43 597.82 229.41 594.95 219.99 C 593.14 212.84 587.97 207.05 581.85 203.18 C 572.48 197.38 561.98 193.56 551.22 191.26 C 550.38 200.48 547.98 209.61 543.87 217.93 C 538.77 228.28 528.81 235.71 518.01 239.21 C 511.71 237.09 507.86 231.20 503.04 226.97 C 494.35 219.23 486.70 210.23 481.13 199.98 C 479.05 195.76 477.18 190.90 478.18 186.16 C 479.95 182.26 485.06 183.06 488.30 181.27 C 490.52 179.47 491.87 176.86 493.41 174.51 C 491.09 174.93 488.60 175.13 486.63 176.58 M 294.51 341.57 C 288.97 353.94 292.19 367.71 293.70 380.58 C 296.83 396.98 301.07 413.23 307.10 428.81 C 309.83 437.04 311.59 445.54 314.34 453.76 C 318.57 466.27 322.61 478.96 324.34 492.09 C 325.17 498.35 322.02 504.05 320.76 510.01 C 317.52 523.42 313.93 537.00 314.40 550.91 C 314.67 557.27 315.59 564.52 320.95 568.75 C 319.14 563.77 315.76 558.48 318.01 553.07 C 321.00 560.67 324.25 568.29 329.25 574.82 C 330.67 576.60 332.64 577.81 334.54 579.05 C 329.59 569.68 324.19 560.20 322.18 549.69 C 326.49 553.20 327.93 558.75 330.77 563.31 C 333.83 568.34 335.71 574.18 339.97 578.42 C 335.97 568.20 334.38 557.31 331.18 546.86 C 334.23 549.04 335.82 552.53 336.84 556.03 C 338.92 563.11 340.44 570.47 343.93 577.05 C 345.74 580.53 348.85 583.03 351.72 585.59 C 352.38 579.92 348.64 575.50 346.69 570.59 C 344.18 555.62 343.38 540.21 345.54 525.14 C 345.60 523.50 346.68 522.33 348.00 521.50 C 349.00 528.66 347.57 535.84 347.73 543.02 C 350.14 546.95 352.48 550.96 355.67 554.34 C 357.53 542.27 355.70 530.04 355.06 517.95 C 355.04 508.84 347.12 502.17 346.94 493.11 C 346.92 479.42 346.45 465.72 346.83 452.03 C 347.38 435.93 346.91 419.75 344.51 403.81 C 341.78 388.09 340.08 371.97 333.94 357.10 C 333.26 354.88 331.66 352.55 332.80 350.20 C 336.60 352.55 337.37 357.37 339.21 361.13 C 342.34 356.11 346.31 351.70 349.89 347.01 C 346.14 345.65 342.27 344.36 339.04 341.94 C 334.09 338.27 330.13 333.49 326.26 328.76 C 321.69 323.29 318.63 316.77 314.09 311.28 C 306.81 320.85 299.75 330.71 294.51 341.57 M 340.77 365.07 C 343.57 373.44 345.03 382.17 346.56 390.84 C 350.23 410.05 351.86 429.65 351.16 449.20 C 352.67 446.72 354.38 444.35 356.41 442.27 C 355.51 432.83 355.91 423.35 356.63 413.92 C 358.51 392.22 361.78 370.66 366.08 349.31 C 362.33 348.99 358.60 348.55 354.88 348.03 C 350.04 353.59 345.18 359.15 340.77 365.07 M 351.00 460.01 C 350.67 471.01 351.34 482.01 350.89 493.01 C 350.61 498.74 354.63 503.24 356.70 508.26 C 358.55 512.25 358.95 516.69 359.24 521.03 C 359.98 530.67 361.14 540.35 360.26 550.03 C 359.91 552.89 359.63 556.42 357.02 558.21 C 352.22 558.50 350.13 553.02 347.89 549.66 C 348.89 556.59 348.62 563.74 350.46 570.53 C 353.77 575.64 356.97 582.49 353.32 588.29 C 351.54 587.96 349.77 587.60 348.01 587.19 C 347.40 595.11 346.02 602.95 345.54 610.88 C 345.02 619.76 343.84 628.78 345.70 637.58 C 346.39 641.44 349.48 644.15 352.03 646.89 C 355.12 650.19 359.29 652.87 364.00 652.62 C 373.73 652.42 383.19 649.57 392.92 649.19 C 402.29 648.62 411.53 650.94 420.35 653.83 C 426.61 656.30 433.61 658.08 440.27 656.17 C 445.76 654.34 448.32 648.67 450.92 643.98 C 456.92 631.94 462.92 619.89 468.97 607.87 C 473.07 601.12 477.24 594.36 482.29 588.26 C 483.55 586.93 485.67 584.93 487.47 586.53 C 494.57 591.90 498.75 599.95 504.19 606.80 C 509.43 613.46 514.14 620.95 521.53 625.49 C 526.70 628.78 531.97 632.22 535.79 637.13 C 537.05 638.50 538.09 640.31 539.90 641.04 C 543.06 641.06 546.22 640.45 549.22 639.46 C 557.65 636.91 565.80 633.15 572.80 627.75 C 580.16 622.18 586.55 615.47 593.81 609.77 C 603.09 602.69 612.81 595.99 623.78 591.81 C 619.51 575.35 612.42 559.02 599.80 547.24 C 596.33 544.33 592.71 541.44 590.50 537.40 C 583.31 525.05 572.70 515.21 561.82 506.17 C 558.60 503.62 556.74 499.91 554.54 496.54 C 552.42 493.16 549.53 490.38 546.59 487.72 C 538.46 499.62 526.34 508.00 513.95 514.98 C 505.93 519.85 497.31 523.66 488.42 526.66 C 479.66 530.05 470.40 532.10 461.04 532.79 C 452.31 533.33 443.72 530.74 436.00 526.85 C 420.80 520.12 405.78 512.02 394.11 499.94 C 388.61 494.29 385.66 486.86 382.33 479.86 C 379.13 473.01 374.89 466.70 370.30 460.71 C 366.56 455.72 361.49 451.92 357.77 446.91 C 355.25 451.10 350.46 454.64 351.00 460.01 M 578.17 629.17 C 571.63 635.32 563.44 639.27 555.04 642.22 C 568.35 646.73 579.48 655.87 589.22 665.75 C 592.23 669.11 596.36 672.27 596.47 677.22 C 591.76 674.72 588.59 670.27 584.44 667.04 C 582.69 671.40 581.20 675.86 580.08 680.43 C 592.51 690.64 609.06 695.43 625.04 693.94 C 632.97 693.26 640.67 690.45 647.13 685.78 C 647.46 681.89 647.82 678.00 648.31 674.13 C 645.70 676.21 643.60 679.92 639.86 679.77 C 639.80 676.40 642.62 673.94 644.18 671.17 C 648.34 665.88 652.12 659.84 652.37 652.91 C 652.83 641.51 647.24 631.03 641.51 621.56 C 636.50 612.67 629.52 605.06 624.80 595.99 C 607.35 604.07 592.30 616.32 578.17 629.17 M 353.72 654.54 C 353.52 664.11 354.32 673.83 352.07 683.24 C 349.60 694.42 342.56 703.74 336.72 713.35 C 342.28 723.10 350.47 731.60 360.91 736.09 C 372.09 741.25 384.85 741.41 396.76 739.10 C 397.45 735.30 398.12 731.50 398.88 727.72 C 394.81 729.26 391.07 731.87 386.69 732.44 C 386.81 731.89 387.05 730.80 387.17 730.25 C 393.98 723.89 404.76 722.14 409.34 713.35 C 418.10 697.13 421.84 678.87 427.99 661.62 C 418.12 658.74 408.34 655.00 397.97 654.49 C 386.85 653.98 376.02 657.36 364.94 657.55 C 360.97 657.72 357.15 656.41 353.72 654.54 M 578.87 684.95 C 576.65 693.02 574.60 701.14 571.94 709.08 C 568.05 720.49 565.20 732.22 562.78 744.02 C 560.25 756.16 560.15 768.64 560.55 780.99 C 561.43 797.99 560.35 815.11 556.93 831.81 C 555.06 840.20 553.76 848.85 550.10 856.71 C 552.38 860.38 554.29 864.52 557.90 867.12 C 560.87 869.46 565.10 870.13 568.56 868.50 C 574.52 865.91 580.09 862.50 586.14 860.12 C 587.68 852.10 590.00 844.18 594.10 837.07 C 601.49 823.06 609.62 809.43 616.17 794.99 C 623.46 779.84 628.70 763.84 634.09 747.95 C 639.98 729.41 644.82 710.43 646.86 691.05 C 637.51 698.07 625.34 699.85 613.94 699.10 C 601.21 698.08 588.41 693.66 578.87 684.95 M 311.60 758.80 C 306.50 770.88 304.49 783.96 303.27 796.94 C 302.11 810.03 300.49 823.08 299.16 836.16 C 297.49 852.45 293.33 868.50 286.47 883.39 C 284.67 887.85 281.91 892.11 281.63 897.04 C 281.37 899.05 282.61 901.58 284.99 901.11 C 291.02 900.38 296.15 896.73 301.95 895.17 C 308.39 893.13 315.38 894.69 321.21 897.77 C 325.16 883.53 329.85 869.41 336.41 856.14 C 343.69 842.10 352.83 829.09 362.96 816.98 C 367.82 811.47 373.21 806.28 376.55 799.65 C 385.69 782.04 392.66 763.19 395.89 743.57 C 385.56 745.94 374.56 745.78 364.48 742.38 C 351.60 738.16 340.73 728.51 334.79 716.35 C 326.69 730.28 317.82 743.89 311.60 758.80 M 531.55 890.61 C 530.72 894.25 530.21 898.88 533.44 901.55 C 536.69 904.03 541.03 904.12 544.87 905.14 C 556.35 907.28 567.81 910.31 578.19 915.80 C 584.72 919.35 589.46 925.26 595.53 929.45 C 603.25 935.23 612.64 938.30 622.05 939.94 C 627.01 940.63 632.46 941.40 637.12 939.07 C 640.30 937.42 640.08 933.10 638.61 930.34 C 634.87 922.62 628.74 916.25 621.90 911.17 C 614.18 905.71 605.66 900.78 600.24 892.79 C 594.12 884.04 592.78 873.21 589.12 863.41 C 580.88 867.08 573.36 873.70 563.97 873.83 C 555.44 873.49 550.94 865.26 546.56 859.12 C 539.73 868.60 534.39 879.25 531.55 890.61 M 285.97 905.13 C 282.85 905.25 280.49 903.01 278.15 901.30 C 272.68 908.91 269.90 917.97 267.88 927.02 C 265.34 937.56 263.61 948.29 262.68 959.10 C 262.43 963.40 262.24 967.95 263.95 972.02 C 266.27 976.66 271.14 979.54 276.04 980.76 C 289.12 983.84 302.54 985.24 315.94 985.88 C 321.15 985.84 326.65 986.53 331.59 984.48 C 334.47 983.15 334.06 979.50 333.44 976.97 C 331.15 967.62 325.55 959.53 322.74 950.36 C 317.20 934.96 317.87 918.20 320.12 902.24 C 315.25 900.85 310.30 898.69 305.13 899.54 C 298.56 900.77 292.81 905.14 285.97 905.13 Z" />
		<path fill="#020202" opacity="1.00"
			d=" M 579.05 157.27 C 582.17 156.26 584.55 153.86 587.24 152.08 C 586.82 154.90 586.90 157.93 585.56 160.51 C 583.24 161.83 580.47 161.72 577.92 162.12 C 576.34 160.17 574.71 158.26 573.01 156.42 C 575.00 156.74 577.00 157.31 579.05 157.27 Z" />
		<path fill="#020202" opacity="1.00"
			d=" M 552.77 167.87 C 558.23 167.63 563.49 169.51 568.79 170.55 C 571.78 171.43 575.23 171.61 577.61 173.83 C 577.67 175.72 575.80 176.07 574.47 176.75 C 573.10 177.47 571.72 178.77 570.05 178.20 C 565.56 177.32 560.98 176.73 556.69 175.12 C 555.27 174.71 555.10 173.07 554.45 171.97 C 553.23 170.83 551.57 169.71 552.77 167.87 Z" />
	</g>
	<g id="#f0b58bff">
		<path fill="#f0b58b" opacity="1.00"
			d=" M 548.30 89.92 C 552.29 93.16 556.42 96.85 557.46 102.15 C 558.13 99.50 558.71 96.66 560.54 94.52 C 562.34 92.45 565.01 91.53 567.41 90.35 C 569.32 96.32 572.18 102.01 576.54 106.58 C 576.97 101.27 578.19 96.07 579.85 91.02 C 582.79 100.44 587.66 109.64 595.45 115.92 C 595.75 109.53 596.39 103.17 597.38 96.86 C 598.98 101.30 601.05 105.56 603.79 109.42 C 602.58 113.52 601.57 117.67 600.62 121.83 C 596.83 122.36 592.89 122.09 589.23 123.25 C 585.72 125.46 585.28 130.10 583.88 133.67 C 581.89 138.79 582.24 144.60 584.45 149.58 C 584.87 149.91 585.70 150.57 586.11 150.89 C 588.24 146.82 588.72 142.15 589.58 137.70 C 591.91 138.71 594.23 139.75 596.56 140.79 C 593.77 153.60 590.18 167.06 580.83 176.78 C 574.44 183.91 564.27 186.87 554.92 185.86 C 551.19 185.43 547.08 185.41 543.96 183.02 C 537.46 178.16 534.28 170.35 528.84 164.55 C 529.28 170.08 532.93 174.56 535.86 179.03 C 538.98 183.74 543.02 187.97 548.36 190.10 C 544.84 201.99 542.28 215.08 533.29 224.28 C 529.03 228.46 523.81 231.61 518.25 233.75 C 510.06 227.39 502.57 220.12 495.61 212.45 C 489.93 204.94 483.24 197.30 481.89 187.64 C 485.25 186.63 489.32 186.67 491.81 183.82 C 495.60 179.60 497.26 174.01 500.44 169.38 C 503.39 164.94 505.74 160.14 508.69 155.70 C 514.20 146.16 517.48 135.04 516.59 123.95 C 516.47 118.54 516.13 112.33 519.94 107.98 C 524.01 111.12 527.01 115.73 527.27 120.97 C 527.92 129.46 527.63 138.00 527.59 146.51 C 531.62 141.01 533.95 134.54 535.80 128.04 C 536.54 124.84 539.41 121.79 542.94 122.39 C 554.07 123.29 564.45 127.96 575.39 129.91 C 576.31 126.30 577.42 122.62 577.33 118.88 C 577.25 117.22 575.29 116.75 574.08 116.12 C 567.85 113.85 561.56 111.61 555.02 110.44 C 550.88 109.44 546.96 111.56 543.15 112.87 C 543.94 107.49 543.66 101.99 542.11 96.78 C 543.66 98.66 545.28 100.48 547.04 102.19 C 547.65 98.12 547.88 94.01 548.30 89.92 M 579.05 157.27 C 577.00 157.31 575.00 156.74 573.01 156.42 C 574.71 158.26 576.34 160.17 577.92 162.12 C 580.47 161.72 583.24 161.83 585.56 160.51 C 586.90 157.93 586.82 154.90 587.24 152.08 C 584.55 153.86 582.17 156.26 579.05 157.27 M 552.77 167.87 C 551.57 169.71 553.23 170.83 554.45 171.97 C 555.10 173.07 555.27 174.71 556.69 175.12 C 560.98 176.73 565.56 177.32 570.05 178.20 C 571.72 178.77 573.10 177.47 574.47 176.75 C 575.80 176.07 577.67 175.72 577.61 173.83 C 575.23 171.61 571.78 171.43 568.79 170.55 C 563.49 169.51 558.23 167.63 552.77 167.87 Z" />
		<path fill="#f0b58b" opacity="1.00"
			d=" M 294.51 341.57 C 299.75 330.71 306.81 320.85 314.09 311.28 C 318.63 316.77 321.69 323.29 326.26 328.76 C 330.13 333.49 334.09 338.27 339.04 341.94 C 342.27 344.36 346.14 345.65 349.89 347.01 C 346.31 351.70 342.34 356.11 339.21 361.13 C 337.37 357.37 336.60 352.55 332.80 350.20 C 331.66 352.55 333.26 354.88 333.94 357.10 C 340.08 371.97 341.78 388.09 344.51 403.81 C 346.91 419.75 347.38 435.93 346.83 452.03 C 346.45 465.72 346.92 479.42 346.94 493.11 C 347.12 502.17 355.04 508.84 355.06 517.95 C 355.70 530.04 357.53 542.27 355.67 554.34 C 352.48 550.96 350.14 546.95 347.73 543.02 C 347.57 535.84 349.00 528.66 348.00 521.50 C 346.68 522.33 345.60 523.50 345.54 525.14 C 343.38 540.21 344.18 555.62 346.69 570.59 C 348.64 575.50 352.38 579.92 351.72 585.59 C 348.85 583.03 345.74 580.53 343.93 577.05 C 340.44 570.47 338.92 563.11 336.84 556.03 C 335.82 552.53 334.23 549.04 331.18 546.86 C 334.38 557.31 335.97 568.20 339.97 578.42 C 335.71 574.18 333.83 568.34 330.77 563.31 C 327.93 558.75 326.49 553.20 322.18 549.69 C 324.19 560.20 329.59 569.68 334.54 579.05 C 332.64 577.81 330.67 576.60 329.25 574.82 C 324.25 568.29 321.00 560.67 318.01 553.07 C 315.76 558.48 319.14 563.77 320.95 568.75 C 315.59 564.52 314.67 557.27 314.40 550.91 C 313.93 537.00 317.52 523.42 320.76 510.01 C 322.02 504.05 325.17 498.35 324.34 492.09 C 322.61 478.96 318.57 466.27 314.34 453.76 C 311.59 445.54 309.83 437.04 307.10 428.81 C 301.07 413.23 296.83 396.98 293.70 380.58 C 292.19 367.71 288.97 353.94 294.51 341.57 Z" />
		<path fill="#f0b58b" opacity="1.00"
			d=" M 578.17 629.17 C 592.30 616.32 607.35 604.07 624.80 595.99 C 629.52 605.06 636.50 612.67 641.51 621.56 C 647.24 631.03 652.83 641.51 652.37 652.91 C 652.12 659.84 648.34 665.88 644.18 671.17 C 642.62 673.94 639.80 676.40 639.86 679.77 C 643.60 679.92 645.70 676.21 648.31 674.13 C 647.82 678.00 647.46 681.89 647.13 685.78 C 640.67 690.45 632.97 693.26 625.04 693.94 C 609.06 695.43 592.51 690.64 580.08 680.43 C 581.20 675.86 582.69 671.40 584.44 667.04 C 588.59 670.27 591.76 674.72 596.47 677.22 C 596.36 672.27 592.23 669.11 589.22 665.75 C 579.48 655.87 568.35 646.73 555.04 642.22 C 563.44 639.27 571.63 635.32 578.17 629.17 Z" />
		<path fill="#f0b58b" opacity="1.00"
			d=" M 353.72 654.54 C 357.15 656.41 360.97 657.72 364.94 657.55 C 376.02 657.36 386.85 653.98 397.97 654.49 C 408.34 655.00 418.12 658.74 427.99 661.62 C 421.84 678.87 418.10 697.13 409.34 713.35 C 404.76 722.14 393.98 723.89 387.17 730.25 C 387.05 730.80 386.81 731.89 386.69 732.44 C 391.07 731.87 394.81 729.26 398.88 727.72 C 398.12 731.50 397.45 735.30 396.76 739.10 C 384.85 741.41 372.09 741.25 360.91 736.09 C 350.47 731.60 342.28 723.10 336.72 713.35 C 342.56 703.74 349.60 694.42 352.07 683.24 C 354.32 673.83 353.52 664.11 353.72 654.54 Z" />
	</g>
	<g id="#f11b27ff">
		<path fill="var(--shirt-color, grey)" opacity="1.00"
			d=" M 486.63 176.58 C 488.60 175.13 491.09 174.93 493.41 174.51 C 491.87 176.86 490.52 179.47 488.30 181.27 C 485.06 183.06 479.95 182.26 478.18 186.16 C 477.18 190.90 479.05 195.76 481.13 199.98 C 486.70 210.23 494.35 219.23 503.04 226.97 C 507.86 231.20 511.71 237.09 518.01 239.21 C 528.81 235.71 538.77 228.28 543.87 217.93 C 547.98 209.61 550.38 200.48 551.22 191.26 C 561.98 193.56 572.48 197.38 581.85 203.18 C 587.97 207.05 593.14 212.84 594.95 219.99 C 597.82 229.41 595.77 239.43 592.44 248.43 C 588.91 257.87 586.13 267.67 581.16 276.49 C 581.14 263.61 580.50 250.73 578.87 237.96 C 578.44 235.14 578.46 231.92 576.11 229.90 C 575.83 232.57 575.77 235.26 575.95 237.94 C 577.01 254.28 577.94 270.72 576.62 287.08 C 575.96 297.96 569.56 307.12 564.12 316.16 C 557.59 326.20 551.33 336.41 544.95 346.56 C 544.50 341.74 544.32 336.87 543.37 332.11 C 543.29 330.73 541.86 330.17 541.01 329.36 C 539.72 345.22 541.91 361.11 541.45 376.99 C 540.94 385.84 538.38 394.53 534.33 402.40 C 530.75 409.45 524.84 414.83 519.66 420.66 C 516.04 424.71 512.40 428.74 508.54 432.56 C 506.49 434.76 503.81 436.85 503.62 440.11 C 506.34 439.32 508.50 437.44 510.54 435.56 C 515.14 431.29 519.74 427.03 524.09 422.50 C 522.28 430.86 520.06 440.20 524.44 448.16 C 515.00 454.09 505.97 460.67 496.35 466.32 C 488.93 470.64 480.64 474.23 471.88 473.84 C 466.06 473.81 460.96 470.62 455.35 469.53 C 457.11 474.70 462.89 476.12 467.53 477.53 C 476.27 480.20 485.53 477.54 493.39 473.48 C 505.48 467.27 516.26 458.87 527.01 450.63 C 531.24 454.86 535.46 459.11 540.00 463.02 C 543.76 466.40 547.60 470.63 547.76 475.97 C 548.08 479.70 545.58 482.75 543.54 485.58 C 535.16 496.78 523.23 504.59 511.08 511.17 C 503.01 515.87 494.38 519.48 485.59 522.57 C 477.10 525.83 468.07 527.61 459.00 528.13 C 453.71 528.47 448.64 526.70 443.64 525.26 C 435.66 522.89 428.29 518.93 421.03 514.92 C 412.27 510.05 403.94 504.24 396.94 497.03 C 391.36 491.16 389.37 483.10 385.86 476.02 C 380.92 466.22 374.74 456.85 366.49 449.51 C 364.36 447.36 361.64 445.28 361.19 442.08 C 360.28 436.45 360.52 430.71 360.61 425.03 C 361.78 399.41 366.04 374.06 370.72 348.89 C 373.13 347.48 375.42 345.86 377.55 344.05 C 379.14 352.48 383.47 360.00 387.64 367.38 C 390.14 371.52 392.43 376.16 396.83 378.61 C 395.55 373.90 392.60 369.95 390.38 365.68 C 386.24 357.84 381.95 349.91 379.94 341.20 C 384.92 334.97 387.60 327.40 390.54 320.10 C 391.87 331.59 396.05 342.44 399.72 353.33 C 402.52 361.38 405.34 369.45 408.74 377.27 C 412.49 385.98 416.94 394.37 421.05 402.92 C 422.44 405.86 424.00 408.77 426.28 411.13 C 426.36 406.35 423.99 402.13 422.17 397.87 C 413.06 377.42 404.76 356.60 397.51 335.41 C 395.70 329.86 394.18 324.21 393.30 318.44 C 393.12 316.84 392.79 315.12 393.62 313.65 C 398.45 303.65 407.51 295.81 418.09 292.48 C 427.78 289.64 437.96 291.45 447.82 290.20 C 441.66 287.20 434.54 288.57 427.94 288.00 C 435.34 284.96 442.96 282.45 450.32 279.31 C 452.00 278.75 452.83 277.13 453.69 275.72 C 448.11 275.92 442.92 278.11 437.69 279.82 C 426.12 283.83 414.30 287.49 403.65 293.67 C 394.73 298.73 387.01 305.78 380.83 313.93 C 379.52 315.57 379.05 317.63 378.59 319.63 C 384.36 316.41 387.88 310.48 392.96 306.36 C 389.89 311.49 387.49 316.96 385.66 322.65 C 382.79 330.37 377.65 337.18 371.57 342.67 C 367.43 346.38 361.67 344.48 356.86 343.58 C 350.65 342.71 344.30 340.80 339.63 336.42 C 333.04 330.30 327.34 323.23 322.35 315.76 C 318.51 309.96 313.73 304.78 308.10 300.69 C 313.35 291.14 320.64 282.97 328.32 275.32 C 339.71 263.69 351.27 252.17 363.83 241.80 C 369.86 236.80 376.25 232.26 382.43 227.47 C 379.95 232.72 376.67 237.63 374.76 243.13 C 375.07 243.48 375.69 244.16 376.00 244.51 C 379.42 241.97 381.60 238.22 383.76 234.64 C 389.19 224.95 394.51 215.12 401.27 206.26 C 406.98 198.58 415.71 193.70 424.65 190.74 C 437.66 186.89 451.38 188.25 464.74 187.68 C 473.36 187.30 479.84 181.11 486.63 176.58 Z" />
	</g>
	<g id="#ffffffff">
		<path fill="var(--pants-color, grey)" opacity="1.00"
			d=" M 351.00 460.01 C 350.46 454.64 355.25 451.10 357.77 446.91 C 361.49 451.92 366.56 455.72 370.30 460.71 C 374.89 466.70 379.13 473.01 382.33 479.86 C 385.66 486.86 388.61 494.29 394.11 499.94 C 405.78 512.02 420.80 520.12 436.00 526.85 C 443.72 530.74 452.31 533.33 461.04 532.79 C 470.40 532.10 479.66 530.05 488.42 526.66 C 497.31 523.66 505.93 519.85 513.95 514.98 C 526.34 508.00 538.46 499.62 546.59 487.72 C 549.53 490.38 552.42 493.16 554.54 496.54 C 556.74 499.91 558.60 503.62 561.82 506.17 C 572.70 515.21 583.31 525.05 590.50 537.40 C 592.71 541.44 596.33 544.33 599.80 547.24 C 612.42 559.02 619.51 575.35 623.78 591.81 C 612.81 595.99 603.09 602.69 593.81 609.77 C 586.55 615.47 580.16 622.18 572.80 627.75 C 565.80 633.15 557.65 636.91 549.22 639.46 C 546.22 640.45 543.06 641.06 539.90 641.04 C 538.09 640.31 537.05 638.50 535.79 637.13 C 531.97 632.22 526.70 628.78 521.53 625.49 C 514.14 620.95 509.43 613.46 504.19 606.80 C 498.75 599.95 494.57 591.90 487.47 586.53 C 485.67 584.93 483.55 586.93 482.29 588.26 C 477.24 594.36 473.07 601.12 468.97 607.87 C 462.92 619.89 456.92 631.94 450.92 643.98 C 448.32 648.67 445.76 654.34 440.27 656.17 C 433.61 658.08 426.61 656.30 420.35 653.83 C 411.53 650.94 402.29 648.62 392.92 649.19 C 383.19 649.57 373.73 652.42 364.00 652.62 C 359.29 652.87 355.12 650.19 352.03 646.89 C 349.48 644.15 346.39 641.44 345.70 637.58 C 343.84 628.78 345.02 619.76 345.54 610.88 C 346.02 602.95 347.40 595.11 348.01 587.19 C 349.77 587.60 351.54 587.96 353.32 588.29 C 356.97 582.49 353.77 575.64 350.46 570.53 C 348.62 563.74 348.89 556.59 347.89 549.66 C 350.13 553.02 352.22 558.50 357.02 558.21 C 359.63 556.42 359.91 552.89 360.26 550.03 C 361.14 540.35 359.98 530.67 359.24 521.03 C 358.95 516.69 358.55 512.25 356.70 508.26 C 354.63 503.24 350.61 498.74 350.89 493.01 C 351.34 482.01 350.67 471.01 351.00 460.01 Z" />
		<path fill="var(--socks-color, grey)" opacity="1.00"
			d=" M 311.60 758.80 C 317.82 743.89 326.69 730.28 334.79 716.35 C 340.73 728.51 351.60 738.16 364.48 742.38 C 374.56 745.78 385.56 745.94 395.89 743.57 C 392.66 763.19 385.69 782.04 376.55 799.65 C 373.21 806.28 367.82 811.47 362.96 816.98 C 352.83 829.09 343.69 842.10 336.41 856.14 C 329.85 869.41 325.16 883.53 321.21 897.77 C 315.38 894.69 308.39 893.13 301.95 895.17 C 296.15 896.73 291.02 900.38 284.99 901.11 C 282.61 901.58 281.37 899.05 281.63 897.04 C 281.91 892.11 284.67 887.85 286.47 883.39 C 293.33 868.50 297.49 852.45 299.16 836.16 C 300.49 823.08 302.11 810.03 303.27 796.94 C 304.49 783.96 306.50 770.88 311.60 758.80 Z" />
	</g>
	<g id="#fdfeffff">
		<path fill="var(--pants-color, grey)" opacity="1.00"
			d=" M 578.87 684.95 C 588.41 693.66 601.21 698.08 613.94 699.10 C 625.34 699.85 637.51 698.07 646.86 691.05 C 644.82 710.43 639.98 729.41 634.09 747.95 C 628.70 763.84 623.46 779.84 616.17 794.99 C 609.62 809.43 601.49 823.06 594.10 837.07 C 590.00 844.18 587.68 852.10 586.14 860.12 C 580.09 862.50 574.52 865.91 568.56 868.50 C 565.10 870.13 560.87 869.46 557.90 867.12 C 554.29 864.52 552.38 860.38 550.10 856.71 C 553.76 848.85 555.06 840.20 556.93 831.81 C 560.35 815.11 561.43 797.99 560.55 780.99 C 560.15 768.64 560.25 756.16 562.78 744.02 C 565.20 732.22 568.05 720.49 571.94 709.08 C 574.60 701.14 576.65 693.02 578.87 684.95 Z" />
	</g>
	<g id="#4d4d4dff">
		<path fill="#4d4d4d" opacity="1.00"
			d=" M 531.55 890.61 C 534.39 879.25 539.73 868.60 546.56 859.12 C 550.94 865.26 555.44 873.49 563.97 873.83 C 573.36 873.70 580.88 867.08 589.12 863.41 C 592.78 873.21 594.12 884.04 600.24 892.79 C 605.66 900.78 614.18 905.71 621.90 911.17 C 628.74 916.25 634.87 922.62 638.61 930.34 C 640.08 933.10 640.30 937.42 637.12 939.07 C 632.46 941.40 627.01 940.63 622.05 939.94 C 612.64 938.30 603.25 935.23 595.53 929.45 C 589.46 925.26 584.72 919.35 578.19 915.80 C 567.81 910.31 556.35 907.28 544.87 905.14 C 541.03 904.12 536.69 904.03 533.44 901.55 C 530.21 898.88 530.72 894.25 531.55 890.61 Z" />
		<path fill="#4d4d4d" opacity="1.00"
			d=" M 285.97 905.13 C 292.81 905.14 298.56 900.77 305.13 899.54 C 310.30 898.69 315.25 900.85 320.12 902.24 C 317.87 918.20 317.20 934.96 322.74 950.36 C 325.55 959.53 331.15 967.62 333.44 976.97 C 334.06 979.50 334.47 983.15 331.59 984.48 C 326.65 986.53 321.15 985.84 315.94 985.88 C 302.54 985.24 289.12 983.84 276.04 980.76 C 271.14 979.54 266.27 976.66 263.95 972.02 C 262.24 967.95 262.43 963.40 262.68 959.10 C 263.61 948.29 265.34 937.56 267.88 927.02 C 269.90 917.97 272.68 908.91 278.15 901.30 C 280.49 903.01 282.85 905.25 285.97 905.13 Z" />
	</g>
</svg>