<?xml version="1.0" encoding="UTF-8" ?>
<!DOCTYPE svg PUBLIC "-//W3C//DTD SVG 1.1//EN" "http://www.w3.org/Graphics/SVG/1.1/DTD/svg11.dtd">
<svg width="1000pt" height="1000pt" viewBox="0 0 1000 1000" version="1.1" xmlns="http://www.w3.org/2000/svg">
	<g id="#020202ff">
		<path fill="#020202" opacity="1.00"
			d=" M 415.45 12.51 C 426.78 5.83 440.56 4.46 453.39 6.41 C 477.26 10.32 500.33 25.51 509.61 48.42 C 513.27 58.83 515.44 70.01 514.09 81.06 C 512.93 91.13 509.30 100.78 504.54 109.67 C 501.86 114.74 499.10 120.09 499.11 125.96 C 499.18 133.51 500.49 140.97 501.17 148.48 C 510.14 153.08 519.78 156.79 529.91 157.60 C 537.29 158.36 544.66 157.16 552.03 156.74 C 572.05 155.14 592.01 158.89 611.43 163.41 C 617.95 164.95 624.73 166.00 630.69 169.25 C 634.16 171.13 637.82 172.84 641.79 173.27 C 661.06 175.29 680.23 171.36 698.99 167.39 C 703.92 166.44 708.82 165.13 713.87 164.99 C 723.71 159.35 733.34 153.09 744.14 149.40 C 752.56 146.77 761.29 145.28 769.92 143.49 C 790.65 140.45 811.36 136.78 831.41 130.61 C 845.55 126.29 860.08 123.41 874.25 119.22 C 879.26 117.86 883.13 114.25 887.00 110.99 C 894.45 104.84 901.19 97.90 908.47 91.56 C 912.04 88.57 916.62 87.26 921.03 86.06 C 929.76 83.69 938.90 83.10 947.90 83.76 C 951.05 84.07 954.73 84.43 956.80 87.18 C 959.57 90.72 958.27 95.48 957.54 99.49 C 959.54 100.28 961.88 100.89 963.01 102.93 C 965.53 106.58 963.95 111.19 962.20 114.81 C 963.26 117.05 964.66 119.42 964.01 122.00 C 963.14 126.43 959.07 129.07 955.38 131.05 C 956.01 133.73 956.69 137.22 954.08 139.10 C 949.87 141.44 944.86 139.94 940.45 139.03 C 932.45 146.74 922.17 152.37 911.02 153.59 C 905.38 154.58 899.66 154.03 893.99 154.09 C 886.83 154.21 880.77 158.42 874.71 161.70 C 862.24 168.47 849.82 175.33 837.60 182.53 C 818.84 193.36 798.63 201.29 778.74 209.73 C 764.30 215.38 749.25 219.82 733.75 221.22 C 723.01 222.33 712.19 222.16 701.44 223.17 C 698.13 227.23 694.80 231.52 690.22 234.23 C 688.66 235.31 686.75 234.57 685.04 234.47 C 677.96 233.17 670.94 235.48 664.18 237.33 C 649.93 241.78 636.96 249.46 624.33 257.27 C 607.74 267.90 592.89 281.59 582.18 298.21 C 574.35 310.33 567.52 323.56 565.40 337.99 C 563.40 349.08 560.53 360.00 558.72 371.13 C 556.71 381.70 555.21 392.36 553.09 402.91 C 551.67 410.19 550.32 417.53 550.02 424.96 C 549.79 428.84 550.02 432.76 549.34 436.60 C 546.54 451.29 535.03 462.87 533.40 477.90 C 531.81 490.22 529.36 502.46 525.36 514.24 C 524.20 517.59 523.39 522.36 518.85 522.20 C 520.73 531.33 522.87 540.56 522.18 549.96 C 521.40 559.64 519.83 569.25 517.91 578.78 C 515.65 590.52 512.24 602.10 511.46 614.09 C 510.27 630.76 507.86 647.50 502.07 663.25 C 499.31 670.45 495.71 677.29 491.90 683.98 C 490.63 686.33 488.81 688.30 486.72 689.96 C 483.70 709.56 476.88 728.32 469.64 746.70 C 464.27 758.94 461.30 772.04 458.64 785.08 C 457.17 792.06 454.94 798.84 452.85 805.65 C 449.03 817.87 446.59 830.48 442.33 842.56 C 432.65 872.02 416.26 898.59 400.43 925.03 C 407.10 931.60 414.42 937.51 422.09 942.88 C 428.72 947.47 435.71 951.94 440.57 958.53 C 443.23 962.24 444.29 967.65 441.64 971.65 C 437.64 978.03 430.29 981.29 423.30 983.25 C 412.16 986.41 400.47 985.52 389.05 985.16 C 381.71 985.07 374.36 984.73 367.01 985.01 C 359.30 985.28 351.44 984.57 343.90 986.61 C 337.15 988.38 329.77 989.80 323.06 987.10 C 318.63 985.20 313.77 982.46 312.37 977.48 C 309.98 969.73 311.85 961.31 315.18 954.13 C 320.19 943.59 328.70 935.19 337.87 928.20 C 337.74 918.47 339.79 908.91 341.56 899.40 C 344.84 877.86 352.32 857.27 356.46 835.93 C 358.55 825.97 359.09 815.73 361.86 805.93 C 365.91 790.19 374.52 776.27 381.92 761.98 C 387.46 750.49 393.29 739.04 401.26 729.02 C 400.89 724.60 400.79 720.16 400.92 715.74 C 394.72 713.09 390.37 707.67 386.82 702.14 C 382.02 694.51 379.71 685.65 377.90 676.91 C 375.37 663.76 374.04 650.38 373.97 636.99 C 373.92 631.14 374.65 625.17 373.28 619.42 C 372.69 616.53 370.08 614.80 367.94 613.10 C 364.40 610.58 360.48 607.78 355.92 608.07 C 352.91 608.52 350.16 609.99 347.64 611.63 C 339.00 617.51 331.72 625.09 323.46 631.46 C 308.92 643.40 293.56 654.27 278.35 665.33 C 271.51 670.39 263.17 674.17 254.47 673.07 C 241.06 685.86 229.15 701.55 211.29 708.36 C 199.56 713.47 186.41 710.63 174.67 707.13 C 168.28 704.72 160.77 700.57 159.89 693.06 C 157.93 679.63 162.86 666.47 162.68 653.07 C 163.02 644.74 164.58 636.53 165.30 628.24 C 166.18 618.97 168.05 609.66 172.32 601.31 C 177.83 590.55 183.54 579.88 188.45 568.83 C 180.19 572.40 171.11 576.58 161.94 574.08 C 155.74 572.67 151.77 566.83 150.37 560.96 C 148.77 553.65 149.66 545.76 153.13 539.11 C 160.06 525.87 172.02 515.15 186.37 510.66 C 197.68 507.14 209.11 503.87 219.88 498.88 C 230.22 494.20 241.19 489.19 252.82 490.07 C 256.73 483.85 260.63 477.63 264.47 471.37 C 269.67 462.72 273.87 453.32 280.83 445.86 C 283.16 443.52 284.58 440.51 285.48 437.38 C 287.42 430.96 291.90 425.60 293.25 418.97 C 294.23 414.66 295.27 410.31 297.33 406.36 C 300.76 399.13 306.62 393.53 311.19 387.06 C 310.87 376.14 320.26 368.84 327.78 362.46 C 328.97 359.04 330.36 355.60 332.80 352.86 C 335.23 349.87 338.86 347.22 338.93 343.00 C 339.43 335.29 340.78 327.66 342.59 320.16 C 343.50 316.51 343.50 312.69 342.53 309.06 C 339.69 298.91 337.16 288.55 336.77 277.97 C 336.56 270.42 336.64 262.23 331.92 255.86 C 326.65 264.76 320.25 273.16 311.89 279.37 C 310.24 279.40 309.41 277.73 308.32 276.80 C 303.75 280.35 298.50 282.79 293.29 285.22 C 281.61 290.99 269.42 295.67 258.01 301.99 C 249.48 306.19 242.21 312.48 233.72 316.74 C 221.15 323.11 208.90 330.49 195.15 334.08 C 185.52 336.53 175.75 338.42 165.96 340.09 C 155.21 342.00 144.26 342.30 133.50 344.09 C 130.71 348.10 126.94 351.95 121.84 352.54 C 111.55 353.91 101.44 349.48 91.13 351.29 C 90.70 356.90 91.98 364.31 86.86 368.12 C 83.45 369.98 81.43 365.89 80.36 363.35 C 78.57 364.70 76.55 367.00 74.04 365.88 C 70.72 364.82 69.74 361.11 68.62 358.23 C 65.57 349.45 60.66 340.65 61.86 331.06 C 63.03 326.07 63.98 320.52 67.82 316.79 C 70.64 313.93 74.17 311.91 77.69 310.03 C 73.69 307.88 69.39 306.09 65.92 303.11 C 63.72 301.14 64.82 297.48 67.38 296.42 C 73.11 293.60 80.36 292.72 86.14 295.90 C 92.08 298.92 97.61 302.78 103.93 305.02 C 108.91 306.98 114.22 307.86 119.47 308.72 C 124.72 309.69 129.86 307.59 134.61 305.60 C 149.03 298.84 160.68 287.70 173.65 278.69 C 193.44 265.87 217.26 261.57 237.40 249.44 C 244.57 245.11 251.01 239.75 257.61 234.63 C 255.92 234.08 254.24 233.55 252.55 233.02 C 253.47 229.83 255.57 227.26 257.96 225.03 C 267.35 215.91 275.20 205.36 282.77 194.72 C 288.49 187.17 293.49 178.94 300.77 172.74 C 308.61 165.59 318.72 161.43 329.02 159.34 C 336.34 157.86 343.69 156.49 351.05 155.15 C 369.56 152.41 387.73 147.13 404.78 139.39 C 401.94 130.23 399.33 120.65 400.41 110.97 C 401.73 97.08 396.45 83.45 398.42 69.58 C 397.83 69.84 396.66 70.37 396.07 70.64 C 396.79 66.47 397.35 62.25 397.15 58.02 C 397.01 52.26 395.52 46.46 396.79 40.72 C 398.61 29.26 405.29 18.37 415.45 12.51 M 424.97 58.99 C 420.33 62.16 415.40 65.01 410.03 66.73 C 410.98 61.32 413.77 56.48 415.11 51.18 C 409.70 56.01 406.58 62.77 401.41 67.83 C 401.33 72.36 401.66 76.88 402.11 81.39 C 407.59 80.69 414.53 80.95 417.79 86.17 C 418.64 88.22 420.55 91.47 418.28 93.12 C 413.79 94.41 409.10 94.80 404.55 95.85 C 405.27 101.52 405.79 107.26 405.14 112.97 C 404.43 119.21 405.97 125.39 407.44 131.40 C 410.21 142.26 415.69 152.47 423.43 160.59 C 426.37 163.84 431.02 164.28 435.12 163.73 C 442.79 162.75 450.23 160.38 457.40 157.53 C 459.20 156.77 461.15 156.57 463.11 156.59 C 460.18 161.01 454.87 162.57 450.18 164.35 C 442.84 166.69 435.27 169.03 427.48 168.56 C 429.06 173.94 430.37 179.40 432.27 184.68 C 435.02 192.36 439.57 199.21 444.05 205.97 C 447.22 210.76 450.78 215.29 454.63 219.56 C 463.22 213.65 470.29 205.95 477.76 198.75 C 487.29 189.46 493.19 177.00 495.89 164.08 C 497.02 158.20 498.41 152.16 497.41 146.16 C 495.65 137.16 493.55 128.18 492.84 119.02 C 492.09 108.32 496.97 98.38 498.15 87.91 C 498.35 85.76 497.70 83.43 496.08 81.95 C 493.44 79.42 488.66 81.19 487.43 84.38 C 485.22 89.32 486.33 94.81 486.71 99.99 C 486.18 105.38 483.88 110.41 482.76 115.69 C 481.44 120.52 481.73 125.55 481.62 130.51 C 481.20 130.18 480.37 129.53 479.95 129.21 C 477.04 123.67 475.14 117.39 475.78 111.08 C 475.98 107.74 476.90 104.42 476.58 101.06 C 475.24 97.22 471.56 94.57 467.76 93.51 C 460.91 92.48 453.93 92.18 447.03 92.85 C 442.39 93.16 437.62 93.82 433.06 92.58 C 430.39 91.84 428.89 89.22 427.88 86.84 C 427.33 85.47 426.97 83.51 428.63 82.75 C 432.26 81.40 436.20 81.39 440.01 80.93 C 449.57 80.18 459.17 79.59 468.77 79.83 C 469.69 74.15 472.23 68.93 475.94 64.55 C 473.05 66.72 470.29 69.12 466.99 70.67 C 468.14 64.97 469.22 59.11 472.22 54.03 C 464.09 57.36 457.50 63.44 451.58 69.79 C 451.43 64.16 450.93 58.55 449.74 53.04 C 443.13 57.48 438.80 64.35 434.91 71.12 C 433.68 63.65 436.75 56.44 436.81 48.99 C 432.60 52.01 429.14 55.92 424.97 58.99 M 920.00 90.17 C 916.66 91.12 913.30 92.35 910.67 94.67 C 903.82 100.80 897.44 107.44 890.40 113.35 C 886.13 116.93 881.94 120.96 876.50 122.66 C 868.50 125.32 860.34 127.46 852.13 129.38 C 835.70 133.43 819.77 139.44 803.10 142.53 C 787.19 146.13 770.89 147.52 755.07 151.50 C 740.60 153.86 728.18 161.99 715.08 168.00 C 718.79 185.23 714.69 203.54 705.05 218.16 C 720.51 217.05 736.19 217.05 751.31 213.20 C 759.96 210.92 768.52 208.25 776.83 204.94 C 795.70 197.23 814.65 189.52 832.41 179.44 C 844.45 172.42 856.52 165.43 868.82 158.85 C 875.29 155.52 881.51 151.17 888.89 150.20 C 897.76 148.12 906.98 149.39 915.88 147.42 C 923.51 145.99 930.21 141.89 936.75 137.91 C 934.26 136.40 931.16 134.37 931.77 130.97 C 932.63 126.42 937.91 125.28 941.62 123.99 C 940.46 122.78 939.28 121.58 938.10 120.39 C 931.50 124.76 929.04 133.52 921.50 136.73 C 918.38 138.01 913.71 139.47 911.66 135.82 C 915.92 135.02 920.41 133.84 923.42 130.47 C 928.09 126.04 930.52 118.86 937.00 116.64 C 941.25 115.65 943.75 119.87 945.99 122.68 C 947.99 117.23 948.54 110.53 945.14 105.51 C 935.96 105.23 926.82 106.70 917.84 108.46 C 916.18 108.77 914.05 108.99 913.47 106.96 C 918.89 103.27 925.92 103.48 932.19 102.47 C 934.85 99.53 937.46 96.52 940.42 93.87 C 941.25 97.30 938.41 99.69 936.43 102.00 C 941.55 101.31 946.68 102.12 951.81 102.44 C 953.77 98.81 955.51 94.55 954.49 90.39 C 953.72 88.13 951.09 87.82 949.06 87.58 C 939.33 86.63 929.38 87.34 920.00 90.17 M 950.44 106.63 C 951.23 109.71 951.61 112.88 951.76 116.05 C 955.15 114.07 960.20 112.67 960.38 107.94 C 961.05 105.27 958.96 103.29 956.89 102.08 C 955.09 104.07 953.36 106.45 950.44 106.63 M 951.19 120.15 C 950.68 121.37 950.20 122.59 949.72 123.81 C 951.00 124.81 952.07 126.74 953.98 126.46 C 956.23 126.02 958.21 124.45 959.50 122.59 C 960.71 120.82 959.68 118.73 959.37 116.86 C 956.68 118.06 953.99 119.26 951.19 120.15 M 935.20 131.95 C 940.23 134.77 946.08 136.37 951.86 135.60 C 951.82 131.02 947.62 128.15 943.60 127.10 C 940.32 127.62 937.29 129.37 935.20 131.95 M 381.00 153.17 C 363.36 158.74 344.93 160.96 326.92 164.99 C 315.10 167.68 304.35 174.44 296.91 184.04 C 284.80 200.23 274.38 218.22 258.24 230.89 C 266.64 232.62 274.43 236.54 281.16 241.80 C 292.69 250.81 302.96 261.45 311.62 273.24 C 317.08 267.12 322.69 261.07 327.19 254.19 C 330.71 247.38 337.76 243.69 344.38 240.51 C 345.54 240.03 348.87 238.49 348.35 241.15 C 344.67 245.79 338.73 247.92 334.36 251.86 C 344.61 262.02 351.42 275.13 362.27 284.74 C 367.40 289.39 372.85 293.79 379.07 296.92 C 383.73 299.48 388.86 301.08 393.42 303.84 C 391.02 303.92 388.58 303.83 386.31 302.98 C 377.65 299.95 369.23 295.83 362.41 289.61 C 353.25 282.22 346.42 272.53 339.84 262.90 C 340.48 266.89 340.86 270.91 340.95 274.94 C 341.14 285.94 343.78 296.69 346.60 307.25 C 347.42 310.73 347.88 314.36 347.33 317.92 C 345.84 326.80 343.05 335.62 343.43 344.70 C 344.75 347.55 347.52 349.34 350.06 351.01 C 359.03 356.54 369.03 360.27 379.26 362.69 C 382.24 363.36 385.23 364.03 388.14 365.01 C 385.09 367.26 381.27 365.97 377.90 365.43 C 365.05 362.73 351.69 358.68 342.01 349.36 C 338.48 353.84 333.74 357.55 332.00 363.20 C 334.52 364.14 338.22 363.73 339.46 366.66 C 335.73 367.01 331.15 365.20 328.15 368.19 C 324.25 371.92 320.05 375.53 317.22 380.19 C 315.05 383.54 316.83 388.09 314.27 391.26 C 310.01 397.32 304.47 402.50 301.26 409.28 C 298.02 415.25 297.69 422.34 294.17 428.18 C 291.22 433.10 288.55 438.19 286.48 443.55 C 301.12 442.59 315.62 445.56 329.98 447.99 C 342.00 449.87 353.85 452.88 366.03 453.59 C 382.19 454.48 396.56 462.56 410.94 469.17 C 422.98 474.62 435.04 480.05 446.75 486.19 C 460.23 493.00 472.84 501.81 487.38 506.31 C 498.28 509.03 508.68 513.36 518.98 517.77 C 523.83 504.13 526.65 489.88 528.38 475.54 C 529.76 462.41 538.30 451.78 542.76 439.70 C 544.79 434.33 544.36 428.51 544.58 422.89 C 545.03 411.45 547.76 400.29 549.73 389.06 C 552.08 376.04 554.57 363.02 558.19 350.28 C 559.96 344.04 560.55 337.55 562.20 331.28 C 567.40 309.10 580.31 289.28 596.52 273.53 C 610.90 259.55 628.20 249.01 646.06 240.08 C 659.18 233.34 673.97 229.56 688.77 230.10 C 698.88 219.12 707.19 205.93 709.92 191.07 C 711.50 183.51 711.27 175.76 710.95 168.09 C 688.19 174.03 664.88 180.69 641.11 178.43 C 633.26 177.86 627.21 172.08 619.63 170.55 C 596.86 165.07 573.53 159.64 549.94 161.53 C 544.63 161.84 539.33 162.59 534.00 162.34 C 522.57 162.06 511.37 158.63 501.29 153.35 C 500.57 166.53 497.10 179.75 490.09 191.02 C 484.74 199.78 476.82 206.47 469.60 213.61 C 465.23 217.52 461.31 222.21 455.92 224.75 C 453.97 224.63 452.50 223.14 451.10 221.95 C 444.30 215.48 439.26 207.43 434.79 199.25 C 429.21 189.19 425.87 178.07 423.17 166.95 C 415.41 160.85 410.05 152.23 406.13 143.29 C 398.04 147.26 389.60 150.47 381.00 153.17 M 260.63 235.55 C 251.27 246.91 238.85 255.60 225.39 261.45 C 209.14 269.10 191.22 273.14 176.02 282.98 C 164.11 291.43 153.31 301.59 140.24 308.31 C 133.41 311.94 125.66 314.82 117.80 313.71 C 105.81 312.06 94.92 306.41 84.74 300.15 C 79.74 296.76 73.43 298.25 68.17 300.17 C 77.72 306.74 88.74 310.68 99.00 315.94 C 102.21 317.72 106.41 320.50 105.54 324.77 C 104.37 331.33 97.85 334.43 93.04 338.10 C 89.48 340.98 84.37 343.21 83.63 348.26 C 88.12 348.45 92.52 347.55 96.95 347.04 C 105.34 346.08 113.70 349.56 122.05 347.81 C 126.81 346.66 129.07 341.56 133.38 339.69 C 142.26 338.54 151.19 337.80 160.07 336.62 C 171.43 334.76 182.72 332.46 193.89 329.68 C 207.89 326.09 220.23 318.40 232.94 311.84 C 240.42 307.94 246.83 302.33 254.37 298.54 C 271.27 289.07 289.89 283.19 306.87 273.90 C 301.84 267.12 296.09 260.89 289.98 255.07 C 281.32 247.09 271.93 239.41 260.63 235.55 M 68.09 322.01 C 65.65 326.33 68.08 331.18 69.33 335.47 C 71.21 340.64 72.24 346.56 76.55 350.37 C 77.48 348.97 78.71 347.69 79.20 346.05 C 79.28 340.24 76.80 334.74 76.83 328.94 C 77.00 325.01 80.56 322.08 84.34 321.84 C 83.24 324.20 81.50 326.37 81.13 328.99 C 81.20 333.03 82.07 337.00 82.26 341.03 C 86.83 336.47 92.59 333.44 97.58 329.41 C 99.49 327.84 101.36 325.65 101.28 323.04 C 95.85 317.38 87.72 315.70 81.11 311.80 C 76.33 314.50 71.00 317.13 68.09 322.01 M 69.26 348.78 C 71.26 353.33 72.54 358.20 75.13 362.48 C 76.91 360.18 77.69 357.38 78.09 354.55 C 75.84 354.21 73.23 354.12 71.79 352.06 C 67.86 346.98 66.93 340.39 65.00 334.42 C 65.56 339.42 67.26 344.19 69.26 348.78 M 82.14 350.68 C 82.02 355.53 81.83 360.80 85.29 364.68 C 86.54 360.39 86.60 355.92 86.37 351.50 C 84.96 351.20 83.55 350.93 82.14 350.68 M 286.41 446.63 C 280.39 454.14 275.51 462.45 270.75 470.79 C 263.83 482.16 256.28 493.16 249.85 504.83 C 243.23 516.84 237.58 529.44 229.51 540.60 C 218.60 555.75 206.12 569.98 197.84 586.84 C 193.65 595.04 193.34 604.73 188.46 612.60 C 186.02 616.39 182.75 619.54 180.14 623.21 C 177.73 626.53 177.68 630.98 178.58 634.85 C 179.72 639.74 180.73 644.95 184.17 648.83 C 190.43 656.34 198.00 663.68 207.75 666.16 C 219.09 668.26 230.65 666.52 242.06 666.13 C 248.50 665.73 254.72 668.96 261.14 667.55 C 267.40 666.26 272.75 662.58 277.84 658.89 C 295.29 646.04 313.28 633.86 329.78 619.77 C 337.22 613.63 344.44 606.45 353.98 603.77 C 361.20 602.19 366.95 607.82 372.16 611.87 C 377.50 615.73 378.14 622.90 378.49 628.94 C 378.39 645.21 379.64 661.52 382.76 677.50 C 385.16 690.42 390.33 703.64 401.15 711.80 C 401.49 699.39 400.43 687.02 400.61 674.62 C 400.85 667.03 398.98 659.36 400.59 651.86 C 404.48 650.78 408.50 650.27 412.51 649.86 C 423.87 648.80 435.91 648.28 446.43 653.49 C 461.58 660.77 475.34 671.01 486.76 683.35 C 499.85 661.92 505.33 636.74 506.68 611.91 C 507.34 600.73 510.21 589.88 512.38 578.94 C 514.24 570.08 515.53 561.11 516.57 552.13 C 517.63 541.46 515.89 530.80 514.57 520.25 C 505.40 515.99 495.85 512.37 485.99 510.03 C 473.22 506.21 461.89 498.99 450.21 492.79 C 433.56 483.66 416.03 476.32 398.83 468.35 C 392.30 465.37 385.71 462.46 378.86 460.31 C 371.40 457.92 363.47 458.11 355.78 457.07 C 332.72 453.25 309.84 447.60 286.41 446.63 M 225.68 501.70 C 217.78 505.58 209.59 508.89 201.16 511.44 C 194.67 513.52 187.96 514.98 181.72 517.77 C 171.27 522.62 162.63 531.04 156.98 541.02 C 152.80 548.47 151.68 558.59 157.32 565.61 C 161.35 571.01 169.05 570.48 174.84 568.79 C 180.34 566.95 186.00 565.06 190.81 561.77 C 192.64 558.36 193.20 554.43 194.79 550.90 C 197.31 544.57 202.14 539.30 208.05 535.97 C 214.72 532.27 222.35 529.49 230.08 530.39 C 237.44 518.73 243.11 506.12 250.18 494.29 C 241.64 495.24 233.38 497.91 225.68 501.70 M 205.88 543.82 C 201.71 547.12 199.47 552.12 197.92 557.07 C 193.87 569.88 187.94 581.96 182.11 594.03 C 178.90 600.39 175.31 606.64 173.36 613.55 C 170.66 623.11 170.30 633.12 168.23 642.82 C 169.98 640.14 172.02 637.68 174.30 635.44 C 173.65 630.78 173.01 625.69 175.24 621.34 C 178.12 615.74 183.31 611.59 185.51 605.60 C 188.05 598.74 189.41 591.45 192.64 584.85 C 201.47 566.43 215.49 551.32 227.21 534.79 C 219.54 536.10 212.02 538.98 205.88 543.82 M 167.56 660.05 C 166.54 669.08 164.58 677.99 163.83 687.06 C 163.82 689.76 163.17 692.82 164.81 695.20 C 168.63 700.33 174.76 703.34 181.02 704.14 C 190.51 705.60 200.76 708.04 209.90 703.83 C 225.73 696.40 236.96 682.53 250.26 671.65 C 235.92 669.59 221.42 673.63 207.18 670.55 C 196.61 668.20 187.98 660.83 181.46 652.49 C 178.71 649.13 176.94 645.14 175.55 641.06 C 171.41 646.65 168.27 653.06 167.56 660.05 M 402.88 654.76 C 405.71 669.05 405.13 683.65 406.23 698.11 C 406.75 709.09 405.58 720.10 406.72 731.07 C 407.05 735.56 408.09 739.98 408.20 744.49 C 407.64 744.44 406.53 744.34 405.98 744.29 C 404.20 741.10 403.51 737.46 402.51 734.00 C 399.10 740.91 394.89 747.38 391.42 754.26 C 405.85 752.44 420.18 757.08 433.27 762.76 C 441.74 766.71 450.12 771.50 456.27 778.69 C 457.17 775.47 458.07 772.23 458.52 768.92 C 459.69 761.39 462.42 754.25 465.27 747.24 C 473.10 727.69 480.25 707.70 483.81 686.88 C 473.43 675.69 461.37 665.91 447.67 659.09 C 442.39 656.60 436.86 654.32 430.98 653.85 C 421.61 653.18 412.23 654.11 402.88 654.76 M 389.03 759.18 C 381.41 775.45 371.04 790.62 366.50 808.20 C 364.00 816.96 363.74 826.13 361.91 835.03 C 360.02 846.26 356.97 857.25 354.03 868.25 C 349.39 885.29 345.64 902.55 342.52 919.93 C 342.11 923.12 341.10 926.55 342.24 929.70 C 343.17 931.92 346.03 931.28 347.91 931.01 C 356.84 928.65 364.72 923.54 371.96 917.94 C 376.81 914.54 382.66 910.32 388.89 912.39 C 393.47 914.04 394.05 919.56 397.20 922.71 C 400.70 920.10 401.58 915.52 403.82 911.97 C 412.71 896.58 421.70 881.21 429.16 865.06 C 435.83 850.27 441.22 834.89 444.98 819.11 C 447.83 806.76 452.36 794.89 455.35 782.58 C 444.25 771.26 429.31 764.54 414.17 760.55 C 405.98 758.59 397.36 757.31 389.03 759.18 M 373.82 921.79 C 367.98 926.53 361.72 930.92 354.59 933.49 C 349.81 935.56 344.10 936.27 339.65 933.04 C 332.46 939.41 325.75 946.52 321.05 954.96 C 317.59 961.33 315.63 969.02 317.68 976.16 C 318.70 980.07 322.21 982.94 326.11 983.71 C 332.08 985.23 338.12 983.36 343.84 981.72 C 351.99 979.32 360.58 979.99 368.96 980.11 C 378.96 980.53 388.98 980.45 398.99 980.62 C 408.82 980.73 418.95 980.13 428.09 976.20 C 432.43 974.22 436.89 971.31 438.66 966.67 C 439.55 964.34 437.85 962.15 436.49 960.44 C 430.54 953.58 422.51 949.13 415.36 943.71 C 409.74 939.70 404.65 935.02 399.53 930.41 C 396.26 927.37 392.28 924.84 390.33 920.67 C 389.24 918.93 388.48 916.32 386.03 916.20 C 381.31 915.91 377.44 919.21 373.82 921.79 Z" />
		<path fill="#020202" opacity="1.00"
			d=" M 418.36 95.94 C 420.64 96.72 419.37 99.12 418.81 100.70 C 416.97 105.06 416.12 109.74 415.13 114.35 C 410.01 108.59 414.78 101.09 418.36 95.94 Z" />
		<path fill="#020202" opacity="1.00"
			d=" M 413.45 126.55 C 410.74 123.53 413.43 119.38 414.61 116.27 C 417.53 120.81 422.34 123.39 426.09 127.10 C 422.48 130.20 417.12 128.69 413.45 126.55 Z" />
		<path fill="#020202" opacity="1.00"
			d=" M 435.99 140.88 C 440.16 140.60 444.48 139.13 448.61 140.27 C 448.65 140.61 448.73 141.30 448.77 141.65 C 446.22 143.36 444.41 146.54 441.05 146.66 C 435.02 147.45 429.03 149.18 422.90 148.79 C 421.29 148.78 420.10 147.59 418.78 146.87 C 417.52 146.10 416.15 145.53 414.74 145.14 C 421.37 142.04 428.89 142.13 435.99 140.88 Z" />
		<path fill="#020202" opacity="1.00"
			d=" M 662.68 210.69 C 666.45 208.48 669.74 205.33 673.97 203.99 C 676.23 204.99 673.92 206.86 672.86 207.83 C 665.76 213.61 657.80 218.19 650.19 223.23 C 637.65 231.31 625.19 239.51 612.83 247.87 C 599.46 256.82 585.70 265.20 572.66 274.64 C 569.41 276.92 566.37 279.68 562.49 280.84 C 564.60 276.61 568.77 274.15 572.32 271.28 C 587.62 259.36 604.03 248.99 620.00 238.02 C 633.96 228.49 648.28 219.52 662.68 210.69 Z" />
		<path fill="#020202" opacity="1.00"
			d=" M 597.80 219.76 C 599.73 218.15 601.87 216.80 604.14 215.71 C 603.10 219.94 599.33 222.44 596.37 225.28 C 589.80 231.06 583.80 237.45 577.12 243.10 C 574.93 244.79 572.58 246.91 569.63 246.73 C 569.53 246.35 569.33 245.59 569.24 245.21 C 578.11 236.04 587.97 227.88 597.80 219.76 Z" />
		<path fill="#020202" opacity="1.00"
			d=" M 343.49 367.70 C 346.57 366.99 349.50 368.26 352.05 369.90 C 364.77 377.65 378.06 385.35 392.98 387.76 C 407.19 389.67 421.32 386.35 435.30 384.28 C 433.48 387.22 429.97 387.81 426.90 388.57 C 419.04 390.26 411.12 391.93 403.05 392.09 C 390.21 392.57 377.74 388.24 366.36 382.66 C 358.30 378.43 349.83 374.38 343.49 367.70 Z" />
		<path fill="#020202" opacity="1.00"
			d=" M 501.66 383.71 C 503.20 382.54 504.74 380.16 506.93 381.34 C 506.62 384.31 504.21 386.34 502.47 388.54 C 492.20 400.48 482.17 413.33 468.35 421.33 C 453.62 428.73 437.32 432.65 421.00 434.48 C 404.73 436.22 388.35 435.77 372.03 435.74 C 367.31 435.63 362.46 435.72 357.97 434.04 C 364.47 432.10 371.31 433.28 377.97 432.79 C 401.44 431.75 425.37 431.17 447.92 423.86 C 456.49 421.05 465.26 418.03 472.42 412.35 C 483.17 403.88 491.87 393.20 501.66 383.71 Z" />
	</g>
	<g id="#f0b58bff">
		<path fill="#f0b58b" opacity="1.00"
			d=" M 424.97 58.99 C 429.14 55.92 432.60 52.01 436.81 48.99 C 436.75 56.44 433.68 63.65 434.91 71.12 C 438.80 64.35 443.13 57.48 449.74 53.04 C 450.93 58.55 451.43 64.16 451.58 69.79 C 457.50 63.44 464.09 57.36 472.22 54.03 C 469.22 59.11 468.14 64.97 466.99 70.67 C 470.29 69.12 473.05 66.72 475.94 64.55 C 472.23 68.93 469.69 74.15 468.77 79.83 C 459.17 79.59 449.57 80.18 440.01 80.93 C 436.20 81.39 432.26 81.40 428.63 82.75 C 426.97 83.51 427.33 85.47 427.88 86.84 C 428.89 89.22 430.39 91.84 433.06 92.58 C 437.62 93.82 442.39 93.16 447.03 92.85 C 453.93 92.18 460.91 92.48 467.76 93.51 C 471.56 94.57 475.24 97.22 476.58 101.06 C 476.90 104.42 475.98 107.74 475.78 111.08 C 475.14 117.39 477.04 123.67 479.95 129.21 C 480.37 129.53 481.20 130.18 481.62 130.51 C 481.73 125.55 481.44 120.52 482.76 115.69 C 483.88 110.41 486.18 105.38 486.71 99.99 C 486.33 94.81 485.22 89.32 487.43 84.38 C 488.66 81.19 493.44 79.42 496.08 81.95 C 497.70 83.43 498.35 85.76 498.15 87.91 C 496.97 98.38 492.09 108.32 492.84 119.02 C 493.55 128.18 495.65 137.16 497.41 146.16 C 498.41 152.16 497.02 158.20 495.89 164.08 C 493.19 177.00 487.29 189.46 477.76 198.75 C 470.29 205.95 463.22 213.65 454.63 219.56 C 450.78 215.29 447.22 210.76 444.05 205.97 C 439.57 199.21 435.02 192.36 432.27 184.68 C 430.37 179.40 429.06 173.94 427.48 168.56 C 435.27 169.03 442.84 166.69 450.18 164.35 C 454.87 162.57 460.18 161.01 463.11 156.59 C 461.15 156.57 459.20 156.77 457.40 157.53 C 450.23 160.38 442.79 162.75 435.12 163.73 C 431.02 164.28 426.37 163.84 423.43 160.59 C 415.69 152.47 410.21 142.26 407.44 131.40 C 405.97 125.39 404.43 119.21 405.14 112.97 C 405.79 107.26 405.27 101.52 404.55 95.85 C 409.10 94.80 413.79 94.41 418.28 93.12 C 420.55 91.47 418.64 88.22 417.79 86.17 C 414.53 80.95 407.59 80.69 402.11 81.39 C 401.66 76.88 401.33 72.36 401.41 67.83 C 406.58 62.77 409.70 56.01 415.11 51.18 C 413.77 56.48 410.98 61.32 410.03 66.73 C 415.40 65.01 420.33 62.16 424.97 58.99 M 418.36 95.94 C 414.78 101.09 410.01 108.59 415.13 114.35 C 416.12 109.74 416.97 105.06 418.81 100.70 C 419.37 99.12 420.64 96.72 418.36 95.94 M 413.45 126.55 C 417.12 128.69 422.48 130.20 426.09 127.10 C 422.34 123.39 417.53 120.81 414.61 116.27 C 413.43 119.38 410.74 123.53 413.45 126.55 M 435.99 140.88 C 428.89 142.13 421.37 142.04 414.74 145.14 C 416.15 145.53 417.52 146.10 418.78 146.87 C 420.10 147.59 421.29 148.78 422.90 148.79 C 429.03 149.18 435.02 147.45 441.05 146.66 C 444.41 146.54 446.22 143.36 448.77 141.65 C 448.73 141.30 448.65 140.61 448.61 140.27 C 444.48 139.13 440.16 140.60 435.99 140.88 Z" />
		<path fill="#f0b58b" opacity="1.00"
			d=" M 920.00 90.17 C 929.38 87.34 939.33 86.63 949.06 87.58 C 951.09 87.82 953.72 88.13 954.49 90.39 C 955.51 94.55 953.77 98.81 951.81 102.44 C 946.68 102.12 941.55 101.31 936.43 102.00 C 938.41 99.69 941.25 97.30 940.42 93.87 C 937.46 96.52 934.85 99.53 932.19 102.47 C 925.92 103.48 918.89 103.27 913.47 106.96 C 914.05 108.99 916.18 108.77 917.84 108.46 C 926.82 106.70 935.96 105.23 945.14 105.51 C 948.54 110.53 947.99 117.23 945.99 122.68 C 943.75 119.87 941.25 115.65 937.00 116.64 C 930.52 118.86 928.09 126.04 923.42 130.47 C 920.41 133.84 915.92 135.02 911.66 135.82 C 913.71 139.47 918.38 138.01 921.50 136.73 C 929.04 133.52 931.50 124.76 938.10 120.39 C 939.28 121.58 940.46 122.78 941.62 123.99 C 937.91 125.28 932.63 126.42 931.77 130.97 C 931.16 134.37 934.26 136.40 936.75 137.91 C 930.21 141.89 923.51 145.99 915.88 147.42 C 906.98 149.39 897.76 148.12 888.89 150.20 C 881.51 151.17 875.29 155.52 868.82 158.85 C 856.52 165.43 844.45 172.42 832.41 179.44 C 814.65 189.52 795.70 197.23 776.83 204.94 C 768.52 208.25 759.96 210.92 751.31 213.20 C 736.19 217.05 720.51 217.05 705.05 218.16 C 714.69 203.54 718.79 185.23 715.08 168.00 C 728.18 161.99 740.60 153.86 755.07 151.50 C 770.89 147.52 787.19 146.13 803.10 142.53 C 819.77 139.44 835.70 133.43 852.13 129.38 C 860.34 127.46 868.50 125.32 876.50 122.66 C 881.94 120.96 886.13 116.93 890.40 113.35 C 897.44 107.44 903.82 100.80 910.67 94.67 C 913.30 92.35 916.66 91.12 920.00 90.17 Z" />
		<path fill="#f0b58b" opacity="1.00"
			d=" M 950.44 106.63 C 953.36 106.45 955.09 104.07 956.89 102.08 C 958.96 103.29 961.05 105.27 960.38 107.94 C 960.20 112.67 955.15 114.07 951.76 116.05 C 951.61 112.88 951.23 109.71 950.44 106.63 Z" />
		<path fill="#f0b58b" opacity="1.00"
			d=" M 951.19 120.15 C 953.99 119.26 956.68 118.06 959.37 116.86 C 959.68 118.73 960.71 120.82 959.50 122.59 C 958.21 124.45 956.23 126.02 953.98 126.46 C 952.07 126.74 951.00 124.81 949.72 123.81 C 950.20 122.59 950.68 121.37 951.19 120.15 Z" />
		<path fill="#f0b58b" opacity="1.00"
			d=" M 935.20 131.95 C 937.29 129.37 940.32 127.62 943.60 127.10 C 947.62 128.15 951.82 131.02 951.86 135.60 C 946.08 136.37 940.23 134.77 935.20 131.95 Z" />
		<path fill="#f0b58b" opacity="1.00"
			d=" M 260.63 235.55 C 271.93 239.41 281.32 247.09 289.98 255.07 C 296.09 260.89 301.84 267.12 306.87 273.90 C 289.89 283.19 271.27 289.07 254.37 298.54 C 246.83 302.33 240.42 307.94 232.94 311.84 C 220.23 318.40 207.89 326.09 193.89 329.68 C 182.72 332.46 171.43 334.76 160.07 336.62 C 151.19 337.80 142.26 338.54 133.38 339.69 C 129.07 341.56 126.81 346.66 122.05 347.81 C 113.70 349.56 105.34 346.08 96.95 347.04 C 92.52 347.55 88.12 348.45 83.63 348.26 C 84.37 343.21 89.48 340.98 93.04 338.10 C 97.85 334.43 104.37 331.33 105.54 324.77 C 106.41 320.50 102.21 317.72 99.00 315.94 C 88.74 310.68 77.72 306.74 68.17 300.17 C 73.43 298.25 79.74 296.76 84.74 300.15 C 94.92 306.41 105.81 312.06 117.80 313.71 C 125.66 314.82 133.41 311.94 140.24 308.31 C 153.31 301.59 164.11 291.43 176.02 282.98 C 191.22 273.14 209.14 269.10 225.39 261.45 C 238.85 255.60 251.27 246.91 260.63 235.55 Z" />
		<path fill="#f0b58b" opacity="1.00"
			d=" M 68.09 322.01 C 71.00 317.13 76.33 314.50 81.11 311.80 C 87.72 315.70 95.85 317.38 101.28 323.04 C 101.36 325.65 99.49 327.84 97.58 329.41 C 92.59 333.44 86.83 336.47 82.26 341.03 C 82.07 337.00 81.20 333.03 81.13 328.99 C 81.50 326.37 83.24 324.20 84.34 321.84 C 80.56 322.08 77.00 325.01 76.83 328.94 C 76.80 334.74 79.28 340.24 79.20 346.05 C 78.71 347.69 77.48 348.97 76.55 350.37 C 72.24 346.56 71.21 340.64 69.33 335.47 C 68.08 331.18 65.65 326.33 68.09 322.01 Z" />
		<path fill="#f0b58b" opacity="1.00"
			d=" M 69.26 348.78 C 67.26 344.19 65.56 339.42 65.00 334.42 C 66.93 340.39 67.86 346.98 71.79 352.06 C 73.23 354.12 75.84 354.21 78.09 354.55 C 77.69 357.38 76.91 360.18 75.13 362.48 C 72.54 358.20 71.26 353.33 69.26 348.78 Z" />
		<path fill="#f0b58b" opacity="1.00"
			d=" M 82.14 350.68 C 83.55 350.93 84.96 351.20 86.37 351.50 C 86.60 355.92 86.54 360.39 85.29 364.68 C 81.83 360.80 82.02 355.53 82.14 350.68 Z" />
		<path fill="#f0b58b" opacity="1.00"
			d=" M 167.56 660.05 C 168.27 653.06 171.41 646.65 175.55 641.06 C 176.94 645.14 178.71 649.13 181.46 652.49 C 187.98 660.83 196.61 668.20 207.18 670.55 C 221.42 673.63 235.92 669.59 250.26 671.65 C 236.96 682.53 225.73 696.40 209.90 703.83 C 200.76 708.04 190.51 705.60 181.02 704.14 C 174.76 703.34 168.63 700.33 164.81 695.20 C 163.17 692.82 163.82 689.76 163.83 687.06 C 164.58 677.99 166.54 669.08 167.56 660.05 Z" />
		<path fill="#f0b58b" opacity="1.00"
			d=" M 402.88 654.76 C 412.23 654.11 421.61 653.18 430.98 653.85 C 436.86 654.32 442.39 656.60 447.67 659.09 C 461.37 665.91 473.43 675.69 483.81 686.88 C 480.25 707.70 473.10 727.69 465.27 747.24 C 462.42 754.25 459.69 761.39 458.52 768.92 C 458.07 772.23 457.17 775.47 456.27 778.69 C 450.12 771.50 441.74 766.71 433.27 762.76 C 420.18 757.08 405.85 752.44 391.42 754.26 C 394.89 747.38 399.10 740.91 402.51 734.00 C 403.51 737.46 404.20 741.10 405.98 744.29 C 406.53 744.34 407.64 744.44 408.20 744.49 C 408.09 739.98 407.05 735.56 406.72 731.07 C 405.58 720.10 406.75 709.09 406.23 698.11 C 405.13 683.65 405.71 669.05 402.88 654.76 Z" />
	</g>
	<g id="#f11b27ff">
		<path fill="var(--shirt-color, grey)" opacity="1.00"
			d=" M 381.00 153.17 C 389.60 150.47 398.04 147.26 406.13 143.29 C 410.05 152.23 415.41 160.85 423.17 166.95 C 425.87 178.07 429.21 189.19 434.79 199.25 C 439.26 207.43 444.30 215.48 451.10 221.95 C 452.50 223.14 453.97 224.63 455.92 224.75 C 461.31 222.21 465.23 217.52 469.60 213.61 C 476.82 206.47 484.74 199.78 490.09 191.02 C 497.10 179.75 500.57 166.53 501.29 153.35 C 511.37 158.63 522.57 162.06 534.00 162.34 C 539.33 162.59 544.63 161.84 549.94 161.53 C 573.53 159.64 596.86 165.07 619.63 170.55 C 627.21 172.08 633.26 177.86 641.11 178.43 C 664.88 180.69 688.19 174.03 710.95 168.09 C 711.27 175.76 711.50 183.51 709.92 191.07 C 707.19 205.93 698.88 219.12 688.77 230.10 C 673.97 229.56 659.18 233.34 646.06 240.08 C 628.20 249.01 610.90 259.55 596.52 273.53 C 580.31 289.28 567.40 309.10 562.20 331.28 C 560.55 337.55 559.96 344.04 558.19 350.28 C 554.57 363.02 552.08 376.04 549.73 389.06 C 547.76 400.29 545.03 411.45 544.58 422.89 C 544.36 428.51 544.79 434.33 542.76 439.70 C 538.30 451.78 529.76 462.41 528.38 475.54 C 526.65 489.88 523.83 504.13 518.98 517.77 C 508.68 513.36 498.28 509.03 487.38 506.31 C 472.84 501.81 460.23 493.00 446.75 486.19 C 435.04 480.05 422.98 474.62 410.94 469.17 C 396.56 462.56 382.19 454.48 366.03 453.59 C 353.85 452.88 342.00 449.87 329.98 447.99 C 315.62 445.56 301.12 442.59 286.48 443.55 C 288.55 438.19 291.22 433.10 294.17 428.18 C 297.69 422.34 298.02 415.25 301.26 409.28 C 304.47 402.50 310.01 397.32 314.27 391.26 C 316.83 388.09 315.05 383.54 317.22 380.19 C 320.05 375.53 324.25 371.92 328.15 368.19 C 331.15 365.20 335.73 367.01 339.46 366.66 C 338.22 363.73 334.52 364.14 332.00 363.20 C 333.74 357.55 338.48 353.84 342.01 349.36 C 351.69 358.68 365.05 362.73 377.90 365.43 C 381.27 365.97 385.09 367.26 388.14 365.01 C 385.23 364.03 382.24 363.36 379.26 362.69 C 369.03 360.27 359.03 356.54 350.06 351.01 C 347.52 349.34 344.75 347.55 343.43 344.70 C 343.05 335.62 345.84 326.80 347.33 317.92 C 347.88 314.36 347.42 310.73 346.60 307.25 C 343.78 296.69 341.14 285.94 340.95 274.94 C 340.86 270.91 340.48 266.89 339.84 262.90 C 346.42 272.53 353.25 282.22 362.41 289.61 C 369.23 295.83 377.65 299.95 386.31 302.98 C 388.58 303.83 391.02 303.92 393.42 303.84 C 388.86 301.08 383.73 299.48 379.07 296.92 C 372.85 293.79 367.40 289.39 362.27 284.74 C 351.42 275.13 344.61 262.02 334.36 251.86 C 338.73 247.92 344.67 245.79 348.35 241.15 C 348.87 238.49 345.54 240.03 344.38 240.51 C 337.76 243.69 330.71 247.38 327.19 254.19 C 322.69 261.07 317.08 267.12 311.62 273.24 C 302.96 261.45 292.69 250.81 281.16 241.80 C 274.43 236.54 266.64 232.62 258.24 230.89 C 274.38 218.22 284.80 200.23 296.91 184.04 C 304.35 174.44 315.10 167.68 326.92 164.99 C 344.93 160.96 363.36 158.74 381.00 153.17 M 662.68 210.69 C 648.28 219.52 633.96 228.49 620.00 238.02 C 604.03 248.99 587.62 259.36 572.32 271.28 C 568.77 274.15 564.60 276.61 562.49 280.84 C 566.37 279.68 569.41 276.92 572.66 274.64 C 585.70 265.20 599.46 256.82 612.83 247.87 C 625.19 239.51 637.65 231.31 650.19 223.23 C 657.80 218.19 665.76 213.61 672.86 207.83 C 673.92 206.86 676.23 204.99 673.97 203.99 C 669.74 205.33 666.45 208.48 662.68 210.69 M 597.80 219.76 C 587.97 227.88 578.11 236.04 569.24 245.21 C 569.33 245.59 569.53 246.35 569.63 246.73 C 572.58 246.91 574.93 244.79 577.12 243.10 C 583.80 237.45 589.80 231.06 596.37 225.28 C 599.33 222.44 603.10 219.94 604.14 215.71 C 601.87 216.80 599.73 218.15 597.80 219.76 M 343.49 367.70 C 349.83 374.38 358.30 378.43 366.36 382.66 C 377.74 388.24 390.21 392.57 403.05 392.09 C 411.12 391.93 419.04 390.26 426.90 388.57 C 429.97 387.81 433.48 387.22 435.30 384.28 C 421.32 386.35 407.19 389.67 392.98 387.76 C 378.06 385.35 364.77 377.65 352.05 369.90 C 349.50 368.26 346.57 366.99 343.49 367.70 M 501.66 383.71 C 491.87 393.20 483.17 403.88 472.42 412.35 C 465.26 418.03 456.49 421.05 447.92 423.86 C 425.37 431.17 401.44 431.75 377.97 432.79 C 371.31 433.28 364.47 432.10 357.97 434.04 C 362.46 435.72 367.31 435.63 372.03 435.74 C 388.35 435.77 404.73 436.22 421.00 434.48 C 437.32 432.65 453.62 428.73 468.35 421.33 C 482.17 413.33 492.20 400.48 502.47 388.54 C 504.21 386.34 506.62 384.31 506.93 381.34 C 504.74 380.16 503.20 382.54 501.66 383.71 Z" />
	</g>
	<g id="#ffffffff">
		<path fill="var(--pants-color, grey)" opacity="1.00"
			d=" M 286.41 446.63 C 309.84 447.60 332.72 453.25 355.78 457.07 C 363.47 458.11 371.40 457.92 378.86 460.31 C 385.71 462.46 392.30 465.37 398.83 468.35 C 416.03 476.32 433.56 483.66 450.21 492.79 C 461.89 498.99 473.22 506.21 485.99 510.03 C 495.85 512.37 505.40 515.99 514.57 520.25 C 515.89 530.80 517.63 541.46 516.57 552.13 C 515.53 561.11 514.24 570.08 512.38 578.94 C 510.21 589.88 507.34 600.73 506.68 611.91 C 505.33 636.74 499.85 661.92 486.76 683.35 C 475.34 671.01 461.58 660.77 446.43 653.49 C 435.91 648.28 423.87 648.80 412.51 649.86 C 408.50 650.27 404.48 650.78 400.59 651.86 C 398.98 659.36 400.85 667.03 400.61 674.62 C 400.43 687.02 401.49 699.39 401.15 711.80 C 390.33 703.64 385.16 690.42 382.76 677.50 C 379.64 661.52 378.39 645.21 378.49 628.94 C 378.14 622.90 377.50 615.73 372.16 611.87 C 366.95 607.82 361.20 602.19 353.98 603.77 C 344.44 606.45 337.22 613.63 329.78 619.77 C 313.28 633.86 295.29 646.04 277.84 658.89 C 272.75 662.58 267.40 666.26 261.14 667.55 C 254.72 668.96 248.50 665.73 242.06 666.13 C 230.65 666.52 219.09 668.26 207.75 666.16 C 198.00 663.68 190.43 656.34 184.17 648.83 C 180.73 644.95 179.72 639.74 178.58 634.85 C 177.68 630.98 177.73 626.53 180.14 623.21 C 182.75 619.54 186.02 616.39 188.46 612.60 C 193.34 604.73 193.65 595.04 197.84 586.84 C 206.12 569.98 218.60 555.75 229.51 540.60 C 237.58 529.44 243.23 516.84 249.85 504.83 C 256.28 493.16 263.83 482.16 270.75 470.79 C 275.51 462.45 280.39 454.14 286.41 446.63 Z" />
		<path fill="var(--socks-color, grey)" opacity="1.00"
			d=" M 205.88 543.82 C 212.02 538.98 219.54 536.10 227.21 534.79 C 215.49 551.32 201.47 566.43 192.64 584.85 C 189.41 591.45 188.05 598.74 185.51 605.60 C 183.31 611.59 178.12 615.74 175.24 621.34 C 173.01 625.69 173.65 630.78 174.30 635.44 C 172.02 637.68 169.98 640.14 168.23 642.82 C 170.30 633.12 170.66 623.11 173.36 613.55 C 175.31 606.64 178.90 600.39 182.11 594.03 C 187.94 581.96 193.87 569.88 197.92 557.07 C 199.47 552.12 201.71 547.12 205.88 543.82 Z" />
		<path fill="var(--socks-color, grey)" opacity="1.00"
			d=" M 389.03 759.18 C 397.36 757.31 405.98 758.59 414.17 760.55 C 429.31 764.54 444.25 771.26 455.35 782.58 C 452.36 794.89 447.83 806.76 444.98 819.11 C 441.22 834.89 435.83 850.27 429.16 865.06 C 421.70 881.21 412.71 896.58 403.82 911.97 C 401.58 915.52 400.70 920.10 397.20 922.71 C 394.05 919.56 393.47 914.04 388.89 912.39 C 382.66 910.32 376.81 914.54 371.96 917.94 C 364.72 923.54 356.84 928.65 347.91 931.01 C 346.03 931.28 343.17 931.92 342.24 929.70 C 341.10 926.55 342.11 923.12 342.52 919.93 C 345.64 902.55 349.39 885.29 354.03 868.25 C 356.97 857.25 360.02 846.26 361.91 835.03 C 363.74 826.13 364.00 816.96 366.50 808.20 C 371.04 790.62 381.41 775.45 389.03 759.18 Z" />
	</g>
	<g id="#4d4d4dff">
		<path fill="#4d4d4d" opacity="1.00"
			d=" M 225.68 501.70 C 233.38 497.91 241.64 495.24 250.18 494.29 C 243.11 506.12 237.44 518.73 230.08 530.39 C 222.35 529.49 214.72 532.27 208.05 535.97 C 202.14 539.30 197.31 544.57 194.79 550.90 C 193.20 554.43 192.64 558.36 190.81 561.77 C 186.00 565.06 180.34 566.95 174.84 568.79 C 169.05 570.48 161.35 571.01 157.32 565.61 C 151.68 558.59 152.80 548.47 156.98 541.02 C 162.63 531.04 171.27 522.62 181.72 517.77 C 187.96 514.98 194.67 513.52 201.16 511.44 C 209.59 508.89 217.78 505.58 225.68 501.70 Z" />
		<path fill="#4d4d4d" opacity="1.00"
			d=" M 373.82 921.79 C 377.44 919.21 381.31 915.91 386.03 916.20 C 388.48 916.32 389.24 918.93 390.33 920.67 C 392.28 924.84 396.26 927.37 399.53 930.41 C 404.65 935.02 409.74 939.70 415.36 943.71 C 422.51 949.13 430.54 953.58 436.49 960.44 C 437.85 962.15 439.55 964.34 438.66 966.67 C 436.89 971.31 432.43 974.22 428.09 976.20 C 418.95 980.13 408.82 980.73 398.99 980.62 C 388.98 980.45 378.96 980.53 368.96 980.11 C 360.58 979.99 351.99 979.32 343.84 981.72 C 338.12 983.36 332.08 985.23 326.11 983.71 C 322.21 982.94 318.70 980.07 317.68 976.16 C 315.63 969.02 317.59 961.33 321.05 954.96 C 325.75 946.52 332.46 939.41 339.65 933.04 C 344.10 936.27 349.81 935.56 354.59 933.49 C 361.72 930.92 367.98 926.53 373.82 921.79 Z" />
	</g>
</svg>