<?xml version="1.0" encoding="utf-8" ?>
<svg xmlns="http://www.w3.org/2000/svg" xmlns:ev="http://www.w3.org/2001/xml-events" xmlns:xlink="http://www.w3.org/1999/xlink" baseProfile="full" height="25px" version="1.1" viewBox="0 0 25 25" width="25px">
  <defs/>
  <g id="x000000_r0_g0_b0_a1.0">
    <path d="M 8,22 8,21 7,21 7,22 0,22 0,21 6,21 6,12 1,12 1,11 7,11 7,12 8,12 8,13 7,13 7,20 9,20 9,21 12,21 20,21 20,20 21,20 21,22 z" fill="#000000" fill-opacity="1.0" id="x000000_r0_g0_b0_a1.0_shape1"/>
    <path d="M 13,5 13,8 12,8 12,10 11,10 11,11 10,11 10,12 9,12 8,12 8,11 9,11 9,10 10,10 10,9 11,9 11,7 12,7 12,5 12,3 13,3 15,3 15,4 13,4 z" fill="#000000" fill-opacity="1.0" id="x000000_r0_g0_b0_a1.0_shape2"/>
    <path d="M 15,10 15,7 16,7 16,8 17,8 17,9 19,9 23,9 23,11 22,11 22,10 z" fill="#000000" fill-opacity="1.0" id="x000000_r0_g0_b0_a1.0_shape3"/>
    <path d="M 23,14 23,18 22,18 22,16 18,16 18,15 20,15 22,15 22,14 z" fill="#000000" fill-opacity="1.0" id="x000000_r0_g0_b0_a1.0_shape4"/>
    <path d="M 23,12 23,13 17,13 17,12 z" fill="#000000" fill-opacity="1.0" id="x000000_r0_g0_b0_a1.0_shape5"/>
    <path d="M 18,19 18,18 22,18 22,20 21,20 21,19 z" fill="#000000" fill-opacity="1.0" id="x000000_r0_g0_b0_a1.0_shape6"/>
    <path d="M 15,5 15,4 16,4 16,5 16,6 15,6 z" fill="#000000" fill-opacity="1.0" id="x000000_r0_g0_b0_a1.0_shape7"/>
  </g>
</svg>
