<?xml version="1.0" encoding="utf-8" ?>
<svg xmlns="http://www.w3.org/2000/svg" xmlns:ev="http://www.w3.org/2001/xml-events" xmlns:xlink="http://www.w3.org/1999/xlink" baseProfile="full" height="38px" version="1.1" viewBox="0 0 39 38" width="39px">
  <defs/>
  <g id="x000000_r0_g0_b0_a1.0">
    <path d="M 28,36 28,29 29,29 29,28 30,28 30,38 0,38 0,0 30,0 30,15 29,15 29,16 28,16 28,2 2,2 2,36 z" fill="#000000" fill-opacity="1.0" id="x000000_r0_g0_b0_a1.0_shape1"/>
    <path d="M 37,16 36,16 36,18 35,18 35,19 34,19 34,21 33,21 33,22 32,22 32,23 31,23 31,25 30,25 30,26 29,26 29,28 27,28 27,29 25,29 25,30 24,30 24,31 23,31 23,27 24,27 24,25 24,24 25,24 25,23 25,22 26,22 26,21 27,21 27,20 28,20 28,18 29,18 29,17 30,17 30,15 31,15 31,14 32,14 32,12 33,12 33,11 34,11 34,10 35,10 35,9 38,9 38,10 39,10 39,13 38,13 38,15 37,15 z M 30,22 31,22 31,21 32,21 32,20 33,20 33,19 33,18 34,18 34,17 35,17 35,16 35,15 35,14 34,14 34,13 33,13 33,14 33,15 32,15 32,16 31,16 31,18 30,18 30,19 29,19 29,20 29,21 28,21 28,22 27,22 27,23 26,23 26,25 27,25 27,26 28,26 28,25 29,25 29,24 30,24 z M 25,26 25,28 26,28 26,26 z" fill="#000000" fill-opacity="1.0" id="x000000_r0_g0_b0_a1.0_shape2"/>
    <path d="M 6,9 6,7 24,7 24,9 z" fill="#000000" fill-opacity="1.0" id="x000000_r0_g0_b0_a1.0_shape3"/>
    <path d="M 24,18 24,20 6,20 6,18 z" fill="#000000" fill-opacity="1.0" id="x000000_r0_g0_b0_a1.0_shape4"/>
    <path d="M 24,13 24,14 15,14 6,14 6,13 15,13 z" fill="#000000" fill-opacity="1.0" id="x000000_r0_g0_b0_a1.0_shape5"/>
    <path d="M 15,24 15,25 6,25 6,24 z" fill="#000000" fill-opacity="1.0" id="x000000_r0_g0_b0_a1.0_shape6"/>
    <path d="M 11,30 12,30 12,28 14,28 14,30 15,30 15,31 11,31 z" fill="#000000" fill-opacity="1.0" id="x000000_r0_g0_b0_a1.0_shape7"/>
    <path d="M 15,30 15,28 16,28 16,29 18,29 18,28 19,28 19,30 18,30 18,31 16,31 16,30 z" fill="#000000" fill-opacity="1.0" id="x000000_r0_g0_b0_a1.0_shape8"/>
    <path d="M 11,28 11,30 10,30 10,31 9,31 9,29 10,29 10,28 z" fill="#000000" fill-opacity="1.0" id="x000000_r0_g0_b0_a1.0_shape9"/>
    <path d="M 21,27 21,26 22,26 22,27 22,28 21,28 z" fill="#000000" fill-opacity="1.0" id="x000000_r0_g0_b0_a1.0_shape10"/>
    <path d="M 21,28 21,30 20,30 20,28 z" fill="#000000" fill-opacity="1.0" id="x000000_r0_g0_b0_a1.0_shape11"/>
    <path d="M 8,32 8,31 9,31 9,32 9,33 8,33 z" fill="#000000" fill-opacity="1.0" id="x000000_r0_g0_b0_a1.0_shape12"/>
    <path d="M 19,31 19,30 20,30 20,31 z" fill="#000000" fill-opacity="1.0" id="x000000_r0_g0_b0_a1.0_shape13"/>
  </g>
  <g id="x767676_r118_g118_b118_a1.0">
    <path d="M 11,24 9,24 9,23 11,23 z" fill="#767676" fill-opacity="1.0" id="x767676_r118_g118_b118_a1.0_shape1"/>
    <path d="M 27,19 28,19 28,20 27,20 z" fill="#767676" fill-opacity="1.0" id="x767676_r118_g118_b118_a1.0_shape2"/>
    <path d="M 6,24 6,23 7,23 7,24 z" fill="#767676" fill-opacity="1.0" id="x767676_r118_g118_b118_a1.0_shape3"/>
  </g>
  <g id="x232323_r35_g35_b35_a1.0">
    <path d="M 12,30 11,30 11,29 12,29 z" fill="#232323" fill-opacity="1.0" id="x232323_r35_g35_b35_a1.0_shape1"/>
    <path d="M 14,31 15,31 15,32 14,32 z" fill="#232323" fill-opacity="1.0" id="x232323_r35_g35_b35_a1.0_shape2"/>
    <path d="M 19,31 20,31 20,32 19,32 z" fill="#232323" fill-opacity="1.0" id="x232323_r35_g35_b35_a1.0_shape3"/>
  </g>
  <g id="x111111_r17_g17_b17_a1.0">
    <path d="M 33,14 33,13 34,13 34,14 z" fill="#111111" fill-opacity="1.0" id="x111111_r17_g17_b17_a1.0_shape1"/>
    <path d="M 11,32 11,31 12,31 12,32 z" fill="#111111" fill-opacity="1.0" id="x111111_r17_g17_b17_a1.0_shape2"/>
  </g>
  <g id="x656565_r101_g101_b101_a1.0">
    <path d="M 7,23 9,23 9,24 7,24 z" fill="#656565" fill-opacity="1.0" id="x656565_r101_g101_b101_a1.0_shape1"/>
  </g>
  <g id="x878787_r135_g135_b135_a1.0">
    <path d="M 12,23 12,24 11,24 11,23 z" fill="#878787" fill-opacity="1.0" id="x878787_r135_g135_b135_a1.0_shape1"/>
    <path d="M 10,31 10,32 9,32 9,31 z" fill="#878787" fill-opacity="1.0" id="x878787_r135_g135_b135_a1.0_shape2"/>
  </g>
  <g id="x979797_r151_g151_b151_a1.0">
    <path d="M 31,24 31,23 32,23 32,24 z" fill="#979797" fill-opacity="1.0" id="x979797_r151_g151_b151_a1.0_shape1"/>
  </g>
  <g id="x424242_r66_g66_b66_a1.0">
    <path d="M 28,25 28,26 27,26 27,25 z" fill="#424242" fill-opacity="1.0" id="x424242_r66_g66_b66_a1.0_shape1"/>
  </g>
  <g id="x2a2a2a_r42_g42_b42_a1.0">
    <path d="M 14,29 15,29 15,30 14,30 z" fill="#2a2a2a" fill-opacity="1.0" id="x2a2a2a_r42_g42_b42_a1.0_shape1"/>
  </g>
  <g id="xeeeeee_r238_g238_b238_a1.0">
    <path d="M 26,30 25,30 25,29 26,29 z" fill="#eeeeee" fill-opacity="1.0" id="xeeeeee_r238_g238_b238_a1.0_shape1"/>
  </g>
</svg>
