<svg xmlns="http://www.w3.org/2000/svg" viewBox="0 0 80 80" enable-background="new 0 0 80 80">
 <circle fill="#ddd" cx="40.1" cy="40" r="37.6"/>
 <path d="m26.4 61.8v-11.9h-20.2v-3.9l19.4-27.8h6.4v27.1h6.1v4.6h-6.1v11.9c0 0-5.6 0-5.6 0m0-16.5v-14.5c0-2.3.1-4.6.2-6.8h-.2c-1.3 2.5-2.4 4.4-3.6 6.4l-10.6 14.8v.1h14.2"/>
 <path d="m44.9 57.6c1.3.1 2.7 0 4.8-.2 3.4-.5 6.6-1.9 9.1-4.2 2.9-2.6 5-6.4 5.8-11.6h-.2c-2.4 2.9-5.9 4.7-10.2 4.7-7.8 0-12.9-5.9-12.9-13.3 0-8.2 6-15.5 14.9-15.5s14.4 7.2 14.4 18.3c0 9.6-3.2 16.3-7.5 20.4-3.3 3.3-8 5.3-12.7 5.8-2.1.3-4 .4-5.4.3v-4.7c0 0-.1 0-.1 0m2.2-25c0 5.4 3.3 9.2 8.4 9.2 4 0 7-1.9 8.6-4.6.3-.5.5-1.2.5-2.1 0-7.4-2.7-13.1-8.9-13.1-5.1 0-8.6 4.4-8.6 10.6"/>
</svg>
