<svg xmlns="http://www.w3.org/2000/svg" viewBox="0 0 80 80" enable-background="new 0 0 80 80">
 <circle fill="#ddd" cx="40.1" cy="40" r="37.6"/>
 <path d="m34.8 22.4c-1.2-.1-2.7 0-4.4.3-9.2 1.5-14.1 8.3-15.1 15.5h.2c2.1-2.7 5.7-5 10.5-5 7.7 0 13.1 5.6 13.1 14.1 0 8-5.4 15.3-14.5 15.3-9.3 0-15.4-7.2-15.4-18.5 0-8.6 3.1-15.3 7.4-19.6 3.6-3.5 8.4-5.8 13.9-6.4 1.7-.3 3.2-.3 4.3-.3v4.6m-1.7 25.1c0-6.2-3.5-10-9-10-3.5 0-6.8 2.2-8.4 5.4-.4.7-.7 1.5-.7 2.6.1 7.2 3.4 12.5 9.6 12.5 5.1-.1 8.5-4.3 8.5-10.5"/>
 <path d="m44.9 57.6c1.3.1 2.7 0 4.8-.2 3.4-.5 6.6-1.9 9.1-4.2 2.9-2.6 5-6.4 5.8-11.6h-.2c-2.4 2.9-5.9 4.7-10.2 4.7-7.8 0-12.9-5.9-12.9-13.3 0-8.2 6-15.5 14.9-15.5s14.4 7.2 14.4 18.3c0 9.6-3.2 16.3-7.5 20.4-3.3 3.3-8 5.3-12.7 5.8-2.1.3-4 .4-5.4.3v-4.7c0 0-.1 0-.1 0m2.2-25c0 5.4 3.3 9.2 8.4 9.2 4 0 7-1.9 8.6-4.6.3-.5.5-1.2.5-2.1 0-7.4-2.7-13.1-8.9-13.1-5.1 0-8.6 4.4-8.6 10.6"/>
</svg>
