<svg xmlns="http://www.w3.org/2000/svg" viewBox="0 0 80 80" enable-background="new 0 0 80 80">
 <circle fill="#ddd" cx="40.1" cy="40" r="37.6"/>
 <path d="m9.4 50.7c0-5.5 3.3-9.4 8.6-11.7v-.1c-4.8-2.3-6.9-6-6.9-9.8 0-6.9 5.8-11.6 13.5-11.6 8.4 0 12.7 5.3 12.7 10.7 0 3.7-1.8 7.6-7.2 10.2v.2c5.4 2.1 8.8 6 8.8 11.3 0 7.6-6.5 12.7-14.8 12.7-9.2-.1-14.7-5.5-14.7-11.9m23.5-.3c0-5.3-3.7-7.8-9.6-9.5-5.1 1.5-7.8 4.8-7.8 9-.2 4.4 3.1 8.3 8.7 8.3 5.3 0 8.7-3.3 8.7-7.8m-16.2-21.7c0 4.4 3.3 6.7 8.3 8 3.8-1.3 6.6-4 6.6-7.9 0-3.5-2.1-7.1-7.4-7.1-4.8 0-7.5 3.2-7.5 7"/>
 <path d="m42 62.1v-3.6l4.6-4.5c11.1-10.6 16.1-16.2 16.2-22.8 0-4.4-2.1-8.5-8.6-8.5-4 0-7.2 2-9.2 3.7l-2-4.1c3-2.5 7.3-4.4 12.3-4.4 9.4 0 13.3 6.4 13.3 12.7 0 8-5.8 14.5-15 23.4l-3.5 3.2v.1h19.6v4.9h-27.7z"/>
</svg>
