<svg xmlns="http://www.w3.org/2000/svg" viewBox="0 0 80 80" enable-background="new 0 0 80 80">
 <circle fill="#ddd" cx="40.1" cy="40" r="37.6"/>
 <path d="m9.4 50.7c0-5.5 3.3-9.4 8.6-11.7v-.1c-4.8-2.3-6.9-6-6.9-9.8 0-6.9 5.8-11.6 13.5-11.6 8.4 0 12.7 5.3 12.7 10.7 0 3.7-1.8 7.6-7.2 10.2v.2c5.4 2.1 8.8 6 8.8 11.3 0 7.6-6.5 12.7-14.8 12.7-9.2-.1-14.7-5.5-14.7-11.9m23.5-.3c0-5.3-3.7-7.8-9.6-9.5-5.1 1.5-7.8 4.8-7.8 9-.2 4.4 3.1 8.3 8.7 8.3 5.3 0 8.7-3.3 8.7-7.8m-16.2-21.7c0 4.4 3.3 6.7 8.3 8 3.8-1.3 6.6-4 6.6-7.9 0-3.5-2.1-7.1-7.4-7.1-4.8 0-7.5 3.2-7.5 7"/>
 <path d="m66.5 22.4c-1.2-.1-2.7 0-4.4.3-9.3 1.5-14.1 8.2-15.1 15.4h.2c2.1-2.7 5.7-5 10.5-5 7.7 0 13.1 5.6 13.1 14.1 0 8-5.4 15.3-14.5 15.3-9.3 0-15.4-7.2-15.4-18.5 0-8.6 3.1-15.3 7.4-19.6 3.6-3.5 8.4-5.8 13.9-6.4 1.7-.3 3.2-.3 4.3-.3v4.7m-1.7 25.1c0-6.2-3.5-10-9-10-3.5 0-6.8 2.2-8.4 5.4-.4.7-.7 1.5-.7 2.6.1 7.2 3.4 12.5 9.6 12.5 5.1-.1 8.5-4.3 8.5-10.5"/>
</svg>
