<svg xmlns="http://www.w3.org/2000/svg" viewBox="0 0 16 26" enable-background="new 0 0 16 26">
 <path fill="#fbb042" d="m14 23.7h-1.4v-21.4h1.4v-2.3h-13.3c-.4 0-.7.4-.7.8v.8c0 .4.3.7.7.7h9.1c.3 0 .6.3.6.6v20.1c0 .4-.2.7-.6.7h-9.1c-.4 0-.7.3-.7.7v.9c0 .4.3.7.7.7h13.3v-2.3"/>
 <g fill="#c4802a">
  <path d="m12.6 24.8c0 .7-.5 1.2-1.1 1.2h-.5 5v-2.3h-3.4v1.1"/>
  <path d="m12.6 1.2c0-.7-.5-1.2-1.1-1.2h-.5 5v2.3h-3.4v-1.1"/>
 </g>
 <g fill="#ffe8cf">
  <path d="m12.1 11.6c-.2-.1-.3-10.5-.3-10.5s0-.8.5-.1c.5.7 0 10.7 0 10.7s0 0-.2-.1"/>
  <path d="m5.3.8c-.1.2-4.4-.1-4.4-.1 0 0-.5-.1-.1-.3s4.5.4 4.5.4"/>
  <path d="m5.5 24.5c-.1.2-4.4-.1-4.4-.1s-.5 0-.1-.3c.4-.2 4.5.4 4.5.4"/>
 </g>
 <g fill="#c4802a">
  <path d="m.7 2.3c0 0 9.8 0 10.7 0-12 0-11.4-1.6-11.4-1.6v.9c0 .4.3.8.7.7"/>
  <path d="m.7 26c0 0 9.8 0 10.7 0-12-.1-11.4-1.6-11.4-1.6v.9c0 .4.3.7.7.7"/>
  <path d="m11.1 23.2c.1.6-.4 1-.9.9l-1.9-.4h1.4c.4 0 .7-.3.7-.7v-20l.7 20.2"/>
 </g>
</svg>
