<svg xmlns="http://www.w3.org/2000/svg" viewBox="0 0 26 26" enable-background="new 0 0 26 26">
 <g fill="#fbb042">
  <path d="m26 24.9v-23.7c0-.6-.5-1.1-1.1-1.1-.6 0-1.1.5-1.1 1.1v.6 23.1c0 .6.5 1.1 1.1 1.1h.1c.5 0 1-.5 1-1.1"/>
  <path d="m1.1 2.2h23.6c.6 0 1.1-.5 1.1-1.1 0-.6-.5-1.1-1.1-1.1h-.6-23c-.6-.1-1.1.4-1.1 1v.1c0 .6.5 1.1 1.1 1.1"/>
 </g>
 <path fill="#ffe8cf" d="m16.5.4c0 0 7.5-.5 8.1 0 .7.6-.1.6-.1.6s-7.8-.2-7.9-.4c-.1-.2-.1-.2-.1-.2"/>
 <path fill="#fbb042" d="m2.3 24.9v-23.8c0-.6-.5-1.1-1.2-1.1-.6 0-1.1.5-1.1 1.1v.6 23.1c0 .6.5 1.1 1.1 1.1h.1c.6 0 1.1-.4 1.1-1"/>
 <g fill="#c4802a">
  <path d="m23.8 2.3h-21.5c0-.7 2.5-.6 3.2-.6 5.1-.1 18.3-.3 18.3.6"/>
  <path d="m0 15c0 0 1.2 1.2 2.3 0 0 .1 0 9.1 0 9.2 0 .9-.1 1.8-1.2 1.8-.9-.1-1.1-1.3-1.1-1.8 0-.1 0-9.2 0-9.2"/>
  <path d="m23.7 14.9c0 0 1.2 1.2 2.2 0 0 .1 0 9.1 0 9.2 0 .9-.1 1.8-1.2 1.8-.9-.1-1-1.3-1.1-1.8.1-.1.1-9.2.1-9.2"/>
 </g>
 <g fill="#8c5723">
  <path d="m0 15c0 4.7 2 7.6 2.3 0 0 .1 0 9.8 0 9.9-.1.8-.7 1-.7 1s-.5.2-.9 0c-.4-.2-.6-.5-.7-1 0-.1 0-3.4 0-9.9"/>
  <path d="m23.7 14.9c0 4.7 2 7.6 2.2 0 0 .1 0 9.8 0 9.9-.1.8-.7 1-.7 1s-.5.2-.9 0c-.4-.2-.6-.5-.7-1 .1 0 .1-3.4.1-9.9"/>
 </g>
 <g fill="#fbb042">
  <circle cx="1.2" cy="24.8" r="1.2"/>
  <circle cx="24.8" cy="24.8" r="1.2"/>
 </g>
</svg>
