<svg xmlns="http://www.w3.org/2000/svg" viewBox="0 0 14 37" enable-background="new 0 0 14 37">
 <path fill="#bd895c" d="m7.7 12.8l1.8 4.7c0 0-4 8.3-3.8 9.1.3 1.4 3.3 3.7 5.4 8.1.1.6-3.4 1-3.1 1.6.1.2 3.8.3 5.2 0 .8-.2-.3-1.6-.3-1.6s-1.6-3.2-2.3-5.8c-.9-2-2-1.9-1.9-2.3s4.5-6.7 4.6-8c.1-1.3-1.9-4.4-2.1-4.5-.5-.1-6.6-8.6-6.6-8.6s1.4 5.9.9 6.7"/>
 <path fill="#131313" d="m13.6 17.3c.4 1.8-1.6 7-2.4 9.4-1.7 0-4.6-.9-5.2-1.6.4-2.3 3.2-7.9 3.3-8.3 0-.4 2.9.6 4.3.5"/>
 <path fill="#e8af7c" d="m5.2 3.6c0 0-.3 1.3.6 1.4 2.6-.1 4.8 3.1 5.4 4.5.4 1.1 1.5 4.7 1.8 5.4.4.7 1.3 3.3.2 4.9-.9 1-5.8 5.3-6.4 6.6.6.5 1.8 2.3 2 3.2.2 1.1 1.2 4.2 1.5 5.4.4.5 1.2 1.5.5 1.8-.7.3-4.7.1-5.8 0-.4-.8 2.7-1.3 3.3-1.7.6-.4-4.5-7.5-4.6-8.7-.2-1.7 4.5-8.5 4.4-9-.4-2.6-4.9-6.8-4.2-9.4.2-3.2-2-1.2-2.1-1.3-.1 0 3.4-3.1 3.4-3.1"/>
 <path fill="#191919" d="m8 17.6c0 0 5.1-1.5 5.5-.8 1.4 2.4-3.3 9.3-4 10.2-2.2-.8-5.3-1-5.7-1.5.1-1.1 4.1-7.9 4.2-7.9"/>
 <path fill="#2d2e2d" d="m5.8 4.9c0 0 .2.4-.5.9-.5.4-1.1 1.8-1.4 1.9-1 4.1 4.4 8 2.6 12.2.4.5 6.9.4 7.5-.2 0-.4 0-1.8-.3-2.9-.7-3.1-2.3-8-3.8-9.4-.4-.5-2.1-2.5-4.1-2.5"/>
 <path fill="#1e1e1e" d="m7.7 7.5c0 0-.7-1.1-1.7-1.3-.1.1.2.3-.9 1 .5-.1-1.2.4-1.2 1-.2 1.4.7 4.1 1.8 5.4.4.6 1.7.4 1.8.8.5 1.6 0 1.9.1 2.4s1 .6 1.3.4c.3-.2.6.1-.1.7-.7.5-1.9 1.1-1 1.2.8.2 1.5.3.8.8-.7.5-1.4.2-1.4.2s4 .2 5.7-.4c-.1-.5.5-.7.4-1.4 0-.3-1.6.1-1.6-.3-.1-.3 1.2-.4 1.2-.8-.1-.4-1.3-.7-1.4-1-.2-.8-1.2-1.6-1-2.1.5-1.2-1.7-3.7-1.7-3.7l-1.1-2.9"/>
 <g fill="#e8af7c">
  <path d="m6.2 6.4c1.9 1.2 2.1 6.5 1.9 8.1s-3.9 4.3-4.2 4.4c-.1 1.2-2.4 3.5-3.4 3-.3-1 .5-1.8 1-2.3.1-.2-1.1.4-1 .2.1-.6 1.7-1.3 1.9-1.5.7-.5 2.5-3.1 3.2-3.8.8-.8-1.1-4.3-1.1-6.1 0-.8.9-2.4 1.7-2"/>
  <path d="m1.2 6.8c0 0-.3-.9-.5-1.8-.1-.1-.8-.1-.7-.3.2-.6.4-1 .5-1.5 0-.2-.1-.5-.1-.7.2-1.3 1.2-3.2 3.6-2.1s1.9 3.8.5 4.2c-1.3.4-1.2 2.1-3.3 2.2"/>
 </g>
 <path fill="#0f0f0f" d="m6.7 28.5c0-.1 1.3-.8 2.7-1.3.7.6 1.2 1.5 1.2 1.7.2.8 1.5 4.3 2.2 5.7.4.6 1 1.4.5 1.7-.4.3-5 1.1-5.1.5-.1-.3.2-.6.5-.9.7-.5 1.9-.8 2.3-1.1-.5-1.1-3.5-5.4-4.3-6.3"/>
 <path fill="#2d2e2d" d="m5.7 6.2c1.5-.1 3.5 5.1 3.1 8.8 0 .6-2.2-1.3-3.5-.5.4-1.7-.6-3.1-.7-4.1-.1-1.2-.2-.9-.3-2.2 0-.6.2-1.1.6-1.5.4-.6.4-.5.8-.5"/>
 <path fill="#bab113" d="m9.4 27.2c0 0-1.2.3-2.7 1.3.9 1.7.8 1.4.8 1.4s2.1-1.3 3-1.4c-.5-.8-1.1-1.3-1.1-1.3"/>
 <path fill="#4a4a4a" d="m4.5 7.8c0 0 .4-1 .9-1.2s.9 0 1.3.2c.3.2.7 1.2.3 1.2-.3.2-.6-1-1.2-.8-.5.2-1.3.6-1.3.6"/>
 <path fill="#191919" d="m4.3 27.7c.5 0 2.5.3 3.2-.6.5.7 1.2 1.7 1.3 2.1.3.8.9 3.6 1.4 5.6.4.6 1.2 1.6.7 1.8-.5.4-5.8.5-5.9.1-.4-1.3 3.6-1.1 3.3-2-2-3.6-3.3-5.6-4-7"/>
 <g fill="#603b1a">
  <path d="m5 1c-1.8-1.6-3.4-.9-3.9-.4-.1.1-1 .5-.1 1.2-.2-.7.2-.8.3-.7.2.1.3.3.2.8.1 0 .4.3.8 0 .3.7.2 1.2.1 1.2s.6 0 .6 0 .3-.5.5-.6.9.8.3 1.5c-.6.7-.2.6-.2.6l1.4-.1c0 0 2-1.3 0-3.5"/>
  <path d="m.5 2.7c0 0 .3-.4.9-.1s.8.3.8.4c0 0-1.1.5-1.2.5-.1.1-.1-.3-.1-.4-.1-.1-.4-.4-.4-.4"/>
  <path d="m1.7 6.8c.9-.2 1.5-.9 1.8-1.2s.5-.9.6-.8c.2.2.3.8.2 1.2s-.6.6-.6.6-.2-.4-.6-.4c-.1 0-1.4.5-1.4.6"/>
 </g>
 <path fill="#1e1e1e" d="m12.8 34.6c.4.6 1 1.4.5 1.7-.4.3-5 1.1-5.1.5-.1-.3.2-.6.5-.9.7-.5 1.9-.8 2.3-1.1 0 .5 1.4.6 1.8-.2"/>
 <path fill="#2d2e2d" d="m10.2 34.8c.4.6 1.2 1.6.7 1.8-.5.4-5.8.5-5.9.1-.4-1.3 3.6-1.1 3.3-2 .2.7 1.6.5 1.9.1"/>
 <path fill="#191919" d="m3.8 18.9c0 0-.9-.2-1.2-.8-1.4.7-2.2 1.4-2.1 1.6.1.2 1-.2 1-.2s-1.7 1.7-1 2.3c.6.6 3-1.3 3.3-2.9"/>
 <g fill="#eae40f">
  <path d="m7.5 27.1c0 0-.5.8-3.3.5.9 1.7 1 1.8 1 1.8s3 .6 3.2-.9c-.6-1-.9-1.4-.9-1.4"/>
  <path d="m8.1 35.1c0 0-.1.4.3.4s-3.1.6-2.7.3c.6-.3 1.9-.3 2.4-.7"/>
 </g>
</svg>
