<svg xmlns="http://www.w3.org/2000/svg" viewBox="0 0 14 37" enable-background="new 0 0 14 37">
 <path fill="#bd895c" d="m8.5 12.2c-.5-.8.9-6.7.9-6.7s-6.1 8.5-6.6 8.6c-.2.1-2.2 3.2-2.1 4.5.1 1.3 4.5 7.6 4.6 8s-1 .3-1.9 2.3c-.7 2.6-2.3 5.8-2.3 5.8s-1.1 1.4-.3 1.6c1.4.3 5.1.2 5.2 0 .3-.6-3.2-1-3.1-1.6 2.1-4.4 5.1-6.7 5.4-8.1.2-.8-3.8-9.1-3.8-9.1l1.8-4.7"/>
 <path fill="#131313" d="m4.7 16.8c.1.4 2.9 6 3.3 8.3-.6.7-3.5 1.6-5.2 1.6-.8-2.4-2.8-7.6-2.4-9.4 1.4.1 4.3-.9 4.3-.5"/>
 <path fill="#e8af7c" d="m12.2 6.7c-.1.1-2.3-1.9-2.1 1.3.7 2.6-3.8 6.8-4.2 9.4-.1.5 4.6 7.3 4.4 9-.1 1.2-5.2 8.3-4.6 8.7s3.7.9 3.3 1.7c-1.1.1-5.1.3-5.8 0s.1-1.3.5-1.8c.3-1.2 1.3-4.3 1.5-5.4.2-.9 1.4-2.7 2-3.2-.6-1.3-5.5-5.6-6.4-6.6-1.1-1.6-.2-4.2.2-4.9.3-.7 1.4-4.3 1.8-5.4.6-1.4 2.8-4.6 5.4-4.5.9-.1.6-1.4.6-1.4s3.5 3.1 3.4 3.1"/>
 <path fill="#191919" d="m10.2 25.5c-.4.5-3.5.7-5.7 1.5-.7-.9-5.4-7.8-4-10.2.4-.7 5.5.8 5.5.8.1 0 4.1 6.8 4.2 7.9"/>
 <path fill="#2d2e2d" d="m4.1 7.4c-1.5 1.4-3.1 6.3-3.8 9.4-.3 1.1-.3 2.5-.3 2.9.6.6 7.1.7 7.5.2-1.8-4.2 3.6-8.1 2.6-12.2-.3-.1-.9-1.5-1.4-1.9-.7-.5-.5-.9-.5-.9-2 0-3.7 2-4.1 2.5"/>
 <path fill="#1e1e1e" d="m5.2 10.4c0 0-2.2 2.5-1.7 3.7.2.5-.8 1.3-1 2.1-.1.3-1.3.6-1.4 1 0 .4 1.3.5 1.2.8 0 .4-1.6 0-1.6.3-.1.7.5.9.4 1.4 1.7.6 5.7.4 5.7.4s-.7.3-1.4-.2 0-.6.8-.8c.9-.1-.3-.7-1-1.2-.7-.6-.4-.9-.1-.7.3.2 1.2.1 1.3-.4s-.4-.8.1-2.4c.1-.4 1.4-.2 1.8-.8 1.1-1.3 2-4 1.8-5.4 0-.6-1.7-1.1-1.2-1-1.1-.7-.8-.9-.9-1-1 .2-1.7 1.3-1.7 1.3l-1.1 2.9"/>
 <g fill="#e8af7c">
  <path d="m9.5 8.4c0 1.8-1.9 5.3-1.1 6.1.7.7 2.5 3.3 3.2 3.8.2.2 1.8.9 1.9 1.5.1.2-1.1-.4-1-.2.5.5 1.3 1.3 1 2.3-1 .5-3.3-1.8-3.4-3-.3-.1-4-2.8-4.2-4.4s0-6.9 1.9-8.1c.8-.4 1.7 1.2 1.7 2"/>
  <path d="m9.5 4.6c-1.4-.4-1.9-3.1.5-4.2s3.4.8 3.6 2.1c0 .2-.1.5-.1.7.1.5.3.9.5 1.5.1.2-.6.2-.7.3-.2.9-.5 1.8-.5 1.8-2.1-.1-2-1.8-3.3-2.2"/>
 </g>
 <path fill="#0f0f0f" d="m3 34.8c.1 0 .1.1 0 0 .4.3 1.6.6 2.3 1.1.3.3.6.6.5.9-.1.6-4.7-.2-5.1-.5-.5-.3.1-1.1.5-1.7.7-1.4 2-4.9 2.2-5.7 0-.2.5-1.1 1.2-1.7 1.4.5 2.7 1.2 2.7 1.3-.8.9-3.8 5.2-4.3 6.3"/>
 <path fill="#2d2e2d" d="m9.1 6.7c.4.4.6.9.6 1.5-.1 1.3-.2 1-.3 2.2-.1 1-1.1 2.4-.7 4.1-1.3-.8-3.5 1.1-3.5.5-.4-3.7 1.6-8.9 3.1-8.8.4 0 .4-.1.8.5"/>
 <path fill="#bab113" d="m4.6 27.2c0 0 1.2.3 2.7 1.3-.9 1.7-.8 1.4-.8 1.4s-2.1-1.3-3-1.4c.5-.8 1.1-1.3 1.1-1.3"/>
 <path fill="#4a4a4a" d="m9.5 7.8c0 0-.8-.4-1.3-.6-.6-.2-.9 1-1.2.8-.4 0 0-1 .3-1.2.4-.2.8-.4 1.3-.2s.9 1.2.9 1.2"/>
 <path fill="#191919" d="m5.7 34.7c-.3.9 3.7.7 3.3 2-.1.4-5.4.3-5.9-.1-.5-.2.3-1.2.7-1.8.5-2 1.1-4.8 1.4-5.6.1-.4.8-1.4 1.3-2.1.7.9 2.7.6 3.2.6-.7 1.4-2 3.4-4 7"/>
 <g fill="#603b1a">
  <path d="m9 1c-2 2.2 0 3.5 0 3.5l1.4.1c0 0 .4.1-.2-.6-.6-.7.1-1.6.3-1.5s.5.6.5.6.7 0 .6 0-.2-.5.1-1.2c.4.3.7 0 .8 0-.1-.5 0-.7.2-.8.1-.1.5 0 .3.7.9-.7 0-1.1-.1-1.2-.5-.5-2.1-1.2-3.9.4"/>
  <path d="m13.1 3.1c0 .1 0 .5-.1.4-.1 0-1.2-.5-1.2-.5 0-.1.2-.1.8-.4s.9.1.9.1-.3.3-.4.4"/>
  <path d="m10.9 6.2c-.4 0-.6.4-.6.4s-.5-.2-.6-.6 0-1 .2-1.2c.1-.1.3.5.6.8s.9 1 1.8 1.2c0-.1-1.3-.6-1.4-.6"/>
 </g>
 <path fill="#1e1e1e" d="m3 34.8c.1 0 .1.1 0 0 .4.3 1.6.6 2.3 1.1.3.3.6.6.5.9-.1.6-4.7-.2-5.1-.5-.5-.3.1-1.1.5-1.7.4.8 1.8.7 1.8.2"/>
 <path fill="#2d2e2d" d="m5.7 34.7c-.3.9 3.7.7 3.3 2-.1.4-5.4.3-5.9-.1-.5-.2.3-1.2.7-1.8.3.4 1.7.6 1.9-.1"/>
 <path fill="#191919" d="m13.5 21.8c.7-.6-1-2.3-1-2.3s.9.4 1 .2c.1-.2-.7-.9-2.1-1.6-.3.6-1.2.8-1.2.8.3 1.6 2.7 3.5 3.3 2.9"/>
 <g fill="#eae40f">
  <path d="m6.5 27.1c0 0 .5.8 3.3.5-.9 1.7-1 1.8-1 1.8s-3 .6-3.2-.9c.6-1 .9-1.4.9-1.4"/>
  <path d="m5.9 35.1c0 0 .1.4-.3.4s3.1.6 2.7.3c-.6-.3-1.9-.3-2.4-.7"/>
 </g>
</svg>
