<svg xmlns="http://www.w3.org/2000/svg" viewBox="0 0 15 37" enable-background="new 0 0 15 37">
 <path fill="#e8af7c" d="m11.7 5.9c.2-.6.4-.7.6-1.6.1-.3-.1-.6-.1-.8-.1-.2.1-.5.1-.7 0-1.3-.4-2.6-1.5-2.6-2.3 0-2.7 1.8-2.8 2.1 0 1.4-.1 1.2.3 1.9-.1.3-.8.6-1 .8-.3.1-2.2.9-2.6 1-.1 0-1.1.4-1.7.9-.8 1.4.4 3.6.8 3.1-.4 1-1.2 2-1.4 3.7-2.8 6.1.9 9.4 1.4 11.8-2.2 2.1-2 5.1-2.2 8.7 1.2 3.2 2.6 1.6 1.5-1.2.8-3.5 3.6-5.7 3.6-7.7 0-3.1-.4-4.5-.3-4.4 0 1.4.9 2.9 2.1 4.5-2 .9-1.1 4.3-1.9 7.9-.7 2.1 5.5 2.6 1.6 0-.1-.8 3.1-7.3 3.3-8.1.7-2.3-3-8.2-2.9-9 .1-2.4 1.6-3.2 1.8-4.4-.2 1.3-.9 1.1-.6 2.4.5 1.9.8 2.2 1.8 3.4.4 1.9 1.2 3.3 2.3 3.4 2.1-.4.3-.8-.1-1.9 0-.1.6.6.7.4.1-.8-.6-1.8-1.7-2.4-.4-.9-.2-1.1-1-3.4-.4-1 0-1.5.4-4 .1-1.1.3-2.9-.9-3.3-.4 0 .2.3.4-.5"/>
 <path fill="#8b5f3d" d="m8.3 4.2c-.1.3-.2.2-.4.4.8 3.2 2.1 2.1 1.9 3.8-2.8 6.2-3.5 12.5-3.4 12.6 0 1.4.9 2.9 2.1 4.5-2 .9-1.1 4.3-1.9 7.9-.7 2.1 5.5 2.6 1.6 0-.1-.8 1.8-6.9 2-7.7-1.1-1-1.7-8.6-1.6-9.4.1-2.4 1.6-3.2 1.8-4.4-.2 1.3-.9.9-.6 2.2.5 1.9.9 2.4 1.8 3.6.4 1.9 1.8.5.7-.1-.4-.9-.4-1.3-1.2-3.6-.4-1 .7-1.7 1.1-4.2.1-1.1 0-3.3-1.3-3.3-2.3 0-3-3-2.6-2.3"/>
 <path fill="#191919" d="m5.7 24.4c-1.5-.3-2.5 1.9-3.2 1.7-.5-2.2-2.3-7.7.1-11.1 1.6.4 4.6 1.8 6.2 1.5.5 2.3 2.2 4.7 2.6 7.1-1.1.1-2.8 1.9-3.4 2s-1 .2-1 .2c0-.1 0-.6-.3-1.5 0 .9 0 0 0 .9-.3-.6-.5-.7-1-.8"/>
 <g fill="#131313">
  <path d="m9.9 19.8c-1 2.1-7.2.8-8-.4"/>
  <path d="m6 22.7c-.1-.1.3 0 .3-.1s-1.2-.6-1.2-.8c0-.2.5 0 .9.1.2.1 1.1.2 1.5-.2.3-.4.8.2.8.4-.2 1.6 1.3 2.5 1 2.7-.8 1-2.2 1-2.2 1-.1-.1-.1-.5-.4-1.5 0 .7 0 .5 0 .9 0-.4-.2-2-.7-2.5"/>
  <path d="m2 17.6c.1-.6 1 1 .9.3-.4 3.8-.2 3.7.4 6.1 0 .2.3.7.5 1.3-.6.5-1 .8-1 .8s-.4-1.5-.5-1.7c-.2-.8-.5-1.5-.6-2.3-.1-.9-.3-2-.2-2.8.2-.6.5-1.1.5-1.7"/>
 </g>
 <path fill="#2d2e2d" d="m10.1 6.3c.5.5 1.4-.2 1.9.8.5 1.2.2 2.1.2 3.2 0 1.1-.1 1.4-.1 2.7-.2.5-1.9 1.1-2.6 1.1-.1-.8.1-.3.1-.7 0 .7-.2.6-.4 2.2-.2 1.9.4 2.4.8 4.1-.9.9-1.8.8-3.2.9-1.3.1-4.1-.7-5.3-1.5-.1-2.8.8-5.9.8-5.6-.5.5-1.3-.1-1.7-.9.1-.7 1.1-3.3 1.9-4.8.6-1.3 1-1.4 1.9-1.8 1-.4 1.7-.8 3.1-1.2 0 .8 1.2 2.2 2 2.2.4.1.7-.2.6-.7"/>
 <path fill="#171616" d="m7.1 35c-.7-.3-1.2-.6-1.2-.9.1-.7.6-1.1.6-1.5.1-.9 0-2.3.1-3.4.1-1.8.8-2.8 1.4-3.3.6.7 2.2 1.1 2.9 1-.9 2-2.1 4.8-2.6 5.9-.2 1 1.1 1.4 1.8 1.8.3.2.9.6 1 .9 0 .3 0 0 0 .2-.3.3-.9.7-1.8.5-.3 0-1.5-.7-2.2-1.2"/>
 <g fill="#a89f2a">
  <path d="m8.3 33.3c0 .2 0 .2-.2.3-.2.1-.7-.1-1-.1.1.3.9 1.1 1.4 1.3.5.3 1.1.2 1.6 0 .5-.1-1.2-.6-1.8-1.5"/>
  <path d="m10.1 28.4c-.3.3-2.5-.2-3.2-1.1.2-.7.6-1.1 1-1.4 1.4 1.1 2.8 1 2.8 1s-.5 1.2-.6 1.5"/>
 </g>
 <path fill="#171616" d="m1.2 34.2c.1-.9.4-.8.4-1.2.1-1.7.2-3 .3-3.9.2-1.3.7-2.2 1.5-3.2.4.5 2.6 1.2 3 .7-.8 2.1-1.1 2.1-1.7 3.5-.6 1.2-1.4 2.4-1.5 3-.1.3.3.9.9 1.6.7.9 1.9 1.3 1.3 2-.4.4-2.1.5-2.8-.2-.6-1.1-1.2-1.5-1.4-2.3"/>
 <g fill="#eae40f">
  <path d="m3.2 33.4c0 .2-.2.2-.4.3s-.7.1-.9-.1c0 .3.8 2 2.1 1.9.8 0-.6-1.3-.8-2.1"/>
  <path d="m5.7 28.2c-.3.5-2.4.1-3.3-.8.3-.6.7-1.2 1-1.5 2.5 1.4 2.9.7 2.9.7s-.5 1.3-.6 1.6"/>
 </g>
 <path fill="#603a17" d="m11.6 6.4c-.4.5-1.4.2-1.9-.3-.3-.2-.4-.7-.5-1-.1-.1 0-1.1-.2-1.2 0-.1.1-.6 0-.7-.6-.7-.7-.1-.6.5.1.3.4.8.2.9-.3-.1-.7-.7-.7-1.3-.1-.8 0-2.3.5-2.3.3-.6 1.2-.9 1.8-.9.6-.2 1.2-.1 1.7.3s.5 1.3.7 1.9c-.5.1-.5-.7-1-.7 0 .2.2.6.2.7-.3 0-.8-.5-1-.7 0 .1.1.7.1.8-.2 0-.4-.6-.5-.7-.1-.1-.3.4-.2.6-.2 0-.6-.7-.8-.5-.1 0 .2.5.2.6 0 .1-.2-.3-.4-.3-.1 0 .2.4.2.5 0 .1.1.4.1.4l.6-.1c.3 0 .7 0 .9.1.4.1 0 .4-.3.4-.1.1-.8-.1-1-.1-.3 0-.5.2-.6.5.5.7-.1.9.1 1.3.1.3.4.6.6.8.3.4 1 .6 1.5.5.5-.1.2-.4.5-.8.3-.4.6-1.2.5-1.6-.1-.4 0-.6-.5-.6-.2 0-.2 0-.2.1 0 .1 0 .1.1.4.1.4.2.5.2.8-.2.1-.4.1-.6 0 .3 0 .6-.2.5-.9-.1-.2-.3-.6 0-.8.4-.2.5-.1.6-.1.1.2-.1.1-.1.4.1.5.1.5.1.9-.1.6-.6 2-.8 2.2"/>
 <path fill="#1e1e1e" d="m2.1 19.5c.4.3 1.7.5 2.1.7.2-1-.2-1.8.1-3.2 1.3-.5 4.4-.5 4.4-.6.1-.1-.7-.2-.7-.4 0-.2 1-.2 1-.4.1-.2-1.5-.4-1.5-.6.1-.2 2-.6 2-.8.3-1.3 1.1-2.8 1.3-4.1-.4-.5-.2-2.9-.7-3.7-.1 1.6-2.3.1-2.6-.9-.8.2-.2 4.1-2.6 5.1-.4.7-.5 2.2-.8 3.5-.3.3-2.4-.6-2.1-.5-.1.9-.6 3.6.1 5.9"/>
 <path fill="#e8af7c" d="m.5 12.5c-.3.8-.6.7-.3 2 .5 1.9 1.7 2.8 2.6 4 .4 1.9 1.3 3.5 2.5 3.6 2.1-.4.2-.8-.2-1.9 0-.1.7.6.7.4.1-.8-.7-2-1.9-2.6-.4-.9-1.1-1.7-1.9-4 .1-.4 0 0 .1-.4-.1.2-1-.4-1.6-1.1"/>
 <g fill="#020202">
  <path d="m4 18c0 0-.8.4-1.2.5.4 1.8 1.2 3.5 2.5 3.6.7-.1.9-.1 1-.4.1-.3-1-.9-1.1-1.5 0-.2.5.5.7.4.1-1-1-2.2-1.9-2.6"/>
  <path d="m12.8 17.2c0 0-.8.4-1.2.5.4 1.5 1 3.3 2.3 3.4.7-.1.9-.2 1-.4.1-.3-1-.9-1.1-1.5 0-.2.4.5.7.4.1-1-.9-2.1-1.7-2.4"/>
 </g>
</svg>
