<?xml version="1.0" encoding="UTF-8" ?>
<!DOCTYPE svg PUBLIC "-//W3C//DTD SVG 1.1//EN" "http://www.w3.org/Graphics/SVG/1.1/DTD/svg11.dtd">
<svg width="1000pt" height="1000pt" viewBox="0 0 1000 1000" version="1.1" xmlns="http://www.w3.org/2000/svg">
<g id="#020202ff">
<path fill="#020202" opacity="1.00" d=" M 473.59 48.55 C 484.51 43.13 496.90 40.27 509.07 42.09 C 519.33 43.08 529.68 47.56 535.85 56.10 C 539.03 60.16 540.08 65.30 542.17 69.90 C 544.16 74.41 548.01 78.00 548.98 82.96 C 551.39 94.71 548.23 106.55 545.87 118.04 C 544.51 125.03 541.96 131.71 539.27 138.28 C 537.75 142.04 534.24 144.84 533.66 148.99 C 532.23 159.75 536.86 170.35 544.00 178.21 C 546.59 177.59 549.43 176.85 551.97 178.11 C 555.65 179.90 558.45 183.12 562.27 184.70 C 570.92 188.48 579.80 192.00 587.50 197.57 C 594.23 202.07 599.60 208.47 606.98 211.99 C 613.63 215.19 620.57 218.97 624.58 225.42 C 628.39 231.19 629.55 238.11 631.62 244.59 C 633.40 250.23 632.65 256.22 632.63 262.03 C 632.24 271.07 633.73 280.03 634.34 289.02 C 635.93 306.22 636.20 323.50 636.79 340.76 C 636.96 346.29 639.18 351.49 639.75 356.97 C 641.08 369.49 641.72 382.11 643.73 394.55 C 646.98 406.57 653.00 417.82 654.69 430.26 C 656.30 443.58 652.49 456.74 652.66 470.04 C 652.59 477.34 652.47 484.75 650.54 491.85 C 649.96 494.36 647.93 496.09 646.21 497.85 C 650.28 505.17 653.15 513.09 655.94 520.97 C 658.48 529.09 660.32 538.43 656.18 546.36 C 654.66 549.76 650.90 550.97 648.11 553.07 C 646.16 554.40 644.56 556.34 642.29 557.15 C 638.71 557.91 634.87 557.02 631.42 558.47 C 629.27 559.24 627.28 560.57 624.98 560.80 C 623.08 560.64 621.73 559.06 620.27 558.02 C 616.48 556.21 614.16 552.54 610.74 550.22 C 607.73 547.70 603.82 545.65 602.24 541.88 C 602.06 537.64 607.06 535.88 610.02 533.86 C 610.82 532.10 611.78 530.42 612.84 528.80 C 611.50 520.43 614.38 512.32 618.36 505.09 C 615.49 501.61 615.21 497.03 615.49 492.72 C 612.70 490.02 609.76 487.17 608.67 483.32 C 606.56 476.89 608.27 470.05 607.19 463.49 C 606.33 458.52 602.27 455.16 599.84 450.99 C 597.53 447.39 597.14 443.02 596.61 438.89 C 595.57 428.62 596.39 418.29 596.30 408.00 C 596.31 403.27 593.22 399.37 592.02 394.93 C 588.98 384.59 589.30 373.68 587.63 363.10 C 584.90 373.28 581.90 383.43 580.26 393.86 C 580.10 396.65 578.84 400.38 581.67 402.27 C 588.75 407.90 592.97 416.93 592.52 426.00 C 592.35 431.08 590.91 435.98 589.91 440.94 C 588.54 448.89 588.27 457.04 589.18 465.07 C 589.60 471.51 590.51 478.48 587.33 484.40 C 589.15 487.80 590.87 491.32 591.49 495.17 C 593.72 509.09 592.22 523.30 589.51 537.04 C 587.25 547.34 584.41 557.50 582.33 567.84 C 579.51 581.79 577.06 595.82 573.44 609.60 C 571.12 621.02 568.47 632.43 567.71 644.10 C 567.19 652.08 565.07 659.85 562.22 667.29 C 556.07 682.83 552.82 699.43 551.79 716.08 C 549.73 734.30 549.72 752.69 550.06 771.00 C 549.77 780.25 545.66 788.77 543.34 797.60 C 539.67 808.35 540.67 820.09 536.78 830.78 C 535.45 834.58 532.74 837.97 532.40 842.07 C 533.52 861.09 536.99 879.99 536.21 899.09 C 536.17 901.71 534.05 903.58 532.65 905.58 C 532.43 911.83 532.73 918.18 534.91 924.11 C 538.93 936.27 539.10 949.56 535.59 961.85 C 534.15 967.60 528.25 970.38 523.01 971.84 C 515.15 973.77 506.95 974.23 498.90 973.51 C 492.57 972.97 486.19 972.59 479.87 973.33 C 472.29 973.94 464.80 976.71 457.15 975.46 C 451.79 974.65 447.60 969.35 448.05 963.95 C 448.06 959.64 450.44 955.53 453.99 953.15 C 457.63 950.72 461.62 948.84 465.03 946.09 C 471.31 941.08 476.84 935.23 482.47 929.53 C 484.59 927.22 486.97 924.92 488.03 921.90 C 489.44 914.90 488.29 907.68 486.56 900.85 C 484.80 894.05 487.00 886.86 484.66 880.15 C 480.37 867.00 472.85 854.94 470.34 841.21 C 468.93 834.84 468.87 828.27 467.62 821.88 C 465.54 809.44 460.58 797.77 457.62 785.55 C 454.14 774.32 448.93 763.70 445.51 752.44 C 441.81 740.49 439.22 728.23 436.93 715.95 C 435.03 705.67 435.22 695.10 432.72 684.91 C 430.51 673.23 425.87 662.01 425.24 650.05 C 424.11 636.92 423.03 623.77 420.66 610.79 C 418.02 595.81 417.63 580.51 414.29 565.65 C 412.63 558.03 409.25 550.87 408.30 543.09 C 405.41 520.68 409.74 498.23 411.65 475.93 C 408.07 471.89 406.73 466.29 407.44 461.01 C 408.41 454.14 411.81 447.85 412.53 440.93 C 413.34 433.77 407.26 428.12 407.44 421.04 C 407.76 416.43 409.78 412.18 410.78 407.71 C 412.19 401.36 414.72 395.26 415.38 388.75 C 416.49 380.27 414.67 371.75 412.22 363.67 C 410.40 357.44 410.25 350.90 410.44 344.47 C 406.50 355.83 402.56 367.27 400.47 379.15 C 399.52 384.71 398.56 390.32 396.49 395.61 C 394.16 401.97 390.27 407.67 388.41 414.21 C 386.39 421.08 385.18 428.31 381.47 434.55 C 378.54 439.90 373.92 444.51 372.80 450.71 C 371.55 457.21 371.38 463.95 369.14 470.24 C 366.17 477.82 362.97 485.59 356.98 491.35 C 359.51 495.83 361.89 500.70 361.71 505.99 C 361.63 513.73 357.51 520.67 356.87 528.31 C 358.86 529.66 360.84 531.03 362.78 532.46 C 363.85 529.26 365.40 525.62 369.04 524.73 C 372.28 523.29 373.51 527.41 374.27 529.72 C 375.46 534.61 377.52 540.31 374.97 545.06 C 372.52 547.40 369.24 549.02 366.02 549.96 C 359.55 547.67 352.70 550.05 346.11 548.60 C 339.82 547.31 334.63 543.13 330.15 538.77 C 323.28 531.31 323.94 520.44 323.44 511.01 C 322.86 500.97 328.61 491.89 328.38 481.92 C 328.60 478.34 329.93 474.78 329.37 471.20 C 327.86 467.20 325.67 463.39 325.13 459.09 C 323.75 449.46 322.81 439.66 324.05 429.97 C 326.08 412.44 330.04 395.21 334.16 378.07 C 337.70 363.40 342.88 349.21 346.83 334.66 C 350.30 323.84 352.67 312.73 355.62 301.78 C 357.82 293.57 361.28 285.77 365.16 278.22 C 367.68 273.35 370.02 268.30 373.64 264.11 C 374.99 254.57 375.96 244.79 379.80 235.85 C 382.83 228.24 388.03 221.66 394.05 216.18 C 406.53 204.44 421.48 195.40 437.56 189.49 C 443.98 186.91 451.05 185.75 456.86 181.78 C 459.21 179.76 462.36 180.88 465.13 180.94 C 469.68 173.23 474.71 164.10 471.97 154.89 C 467.83 145.30 459.18 137.99 456.77 127.57 C 455.59 120.33 457.06 112.99 458.30 105.85 C 459.45 100.20 459.54 94.39 460.79 88.75 C 458.62 86.97 456.11 85.00 456.03 81.93 C 455.34 74.35 456.79 66.72 458.49 59.36 C 460.42 52.73 468.17 51.29 473.59 48.55 M 461.95 105.29 C 461.92 113.91 464.43 123.29 471.43 128.87 C 469.76 121.56 469.22 114.05 467.46 106.76 C 465.61 106.30 463.77 105.81 461.95 105.29 M 461.48 130.42 C 465.25 138.81 471.85 145.58 475.52 154.02 C 476.23 152.56 477.12 151.18 478.23 149.97 C 478.06 161.09 474.78 172.04 469.00 181.53 C 492.54 183.40 516.37 183.19 539.72 179.46 C 532.29 171.14 528.65 159.77 530.08 148.68 C 524.18 150.01 518.36 148.19 512.82 146.28 C 507.47 144.37 501.94 146.62 497.12 148.93 C 493.07 150.94 488.15 152.46 483.89 150.14 C 477.29 147.24 474.67 140.08 472.80 133.67 C 466.11 130.96 461.87 124.70 460.01 117.94 C 460.15 122.12 459.57 126.53 461.48 130.42 M 518.97 186.00 C 499.05 187.17 478.99 187.03 459.23 184.11 C 466.31 187.83 474.36 188.90 482.21 189.74 C 498.12 191.19 514.20 190.37 529.98 187.93 C 536.81 186.93 543.48 185.06 549.96 182.69 C 549.85 182.29 549.63 181.49 549.52 181.09 C 539.70 184.49 529.26 185.32 518.97 186.00 M 520.81 193.40 C 505.02 195.03 488.97 195.24 473.24 192.81 C 467.50 191.98 461.93 190.18 456.79 187.48 C 451.99 189.56 447.06 191.32 442.12 193.03 C 427.09 198.41 412.81 206.22 400.87 216.89 C 394.48 222.60 388.47 229.03 384.89 236.91 C 380.50 246.43 379.05 256.93 377.58 267.20 C 376.66 273.05 377.10 279.38 373.87 284.61 C 372.65 281.13 372.58 277.43 372.84 273.80 C 367.69 284.66 362.19 295.46 359.24 307.18 C 353.71 328.15 347.99 349.07 341.81 369.85 C 336.89 388.32 332.73 407.03 330.06 425.97 C 328.36 437.34 328.84 448.97 330.83 460.27 C 332.07 465.45 333.83 471.41 338.90 474.08 C 343.87 476.61 349.52 477.72 355.07 477.76 C 357.57 477.68 360.75 477.54 362.11 475.04 C 366.57 467.12 366.32 457.72 368.13 449.05 C 369.58 441.86 374.94 436.46 377.99 429.99 C 381.00 423.90 381.57 417.01 383.75 410.64 C 385.77 404.38 389.66 398.92 391.77 392.69 C 393.99 386.16 394.76 379.28 396.19 372.58 C 389.98 384.92 381.79 396.23 371.93 405.92 C 367.99 409.74 364.49 414.69 358.80 415.91 C 361.63 409.45 367.36 405.12 371.74 399.80 C 382.00 388.45 390.68 375.59 396.48 361.39 C 399.97 352.58 405.01 344.52 409.12 336.01 C 413.85 326.24 421.79 318.58 427.35 309.33 C 430.10 305.07 431.85 299.86 436.42 297.12 C 433.83 307.58 427.57 316.58 421.46 325.27 C 428.07 320.62 434.96 316.31 441.00 310.91 C 443.88 308.32 446.93 305.93 450.28 303.99 C 442.91 314.05 432.72 321.58 422.54 328.58 C 419.36 331.05 415.42 333.52 414.66 337.81 C 412.73 347.43 414.28 357.42 417.25 366.67 C 419.98 375.49 420.62 384.89 419.11 394.01 C 425.42 387.91 431.37 381.38 436.02 373.92 C 438.68 369.43 440.00 364.31 442.55 359.76 C 444.75 364.04 442.30 368.73 440.95 372.88 C 437.13 381.46 431.14 388.95 424.47 395.50 C 417.63 402.60 413.04 412.13 412.70 422.06 C 413.31 428.44 416.92 434.15 420.93 438.97 C 425.19 444.21 431.98 445.91 438.13 447.83 C 448.91 451.17 460.11 452.65 471.17 454.71 C 479.73 456.53 488.50 456.48 497.20 456.55 C 488.96 459.85 479.94 459.43 471.27 458.75 C 458.32 457.58 445.53 454.85 433.20 450.74 C 427.39 448.90 421.85 446.25 416.80 442.82 C 415.59 448.36 413.56 453.67 412.15 459.15 C 411.01 463.22 411.81 467.44 412.52 471.51 C 415.96 472.38 419.45 473.01 422.97 473.49 C 432.46 474.81 441.30 478.73 450.31 481.79 C 461.09 485.51 472.60 486.84 483.97 486.39 C 503.82 485.74 523.71 485.14 543.44 482.70 C 557.32 481.22 571.28 480.34 585.24 480.69 C 585.77 475.81 585.69 470.88 584.96 466.03 C 583.49 455.85 583.89 445.38 586.42 435.40 C 588.30 428.37 588.88 420.47 585.22 413.90 C 581.66 406.58 574.21 402.70 567.87 398.20 C 560.07 392.36 553.97 382.96 554.63 372.92 C 558.85 376.66 559.90 382.47 563.18 386.87 C 566.31 391.60 570.93 394.99 575.63 398.02 C 576.68 384.14 580.55 370.68 584.54 357.41 C 591.64 338.04 598.37 318.43 602.32 298.14 C 603.82 290.76 604.57 283.18 607.08 276.04 C 608.18 277.86 609.04 279.88 608.66 282.06 C 607.73 291.54 606.10 300.94 604.34 310.30 C 608.56 302.41 610.85 292.83 618.32 287.21 C 616.95 292.43 614.09 297.05 612.02 302.00 C 609.26 308.50 606.52 315.01 603.52 321.41 C 598.97 330.98 595.96 341.18 591.90 350.95 C 590.78 354.11 588.81 357.46 590.03 360.90 C 592.89 371.72 592.42 383.11 595.50 393.89 C 597.66 383.78 597.41 373.41 597.86 363.15 C 598.39 363.41 599.45 363.94 599.98 364.20 C 601.23 374.09 601.23 384.20 599.11 393.97 C 597.82 399.33 600.21 404.58 600.13 409.94 C 600.15 420.61 599.23 431.37 600.95 441.97 C 601.41 444.17 601.72 446.79 603.77 448.15 C 610.01 452.67 618.09 453.39 624.57 457.45 C 626.82 458.86 628.66 462.24 626.69 464.60 C 625.04 466.84 622.10 465.80 619.98 465.02 C 621.78 464.22 623.63 463.49 625.47 462.76 C 620.95 457.61 613.67 457.21 607.75 454.56 C 609.47 457.82 611.26 461.21 611.48 464.98 C 612.09 471.15 610.63 477.76 613.39 483.57 C 614.92 486.47 617.38 489.69 621.03 489.55 C 630.00 489.36 638.87 487.57 647.62 485.66 C 648.72 479.16 649.11 472.57 649.15 465.99 C 649.25 452.79 652.44 439.44 649.49 426.35 C 647.15 416.93 643.06 408.07 640.25 398.80 C 638.22 392.10 638.07 385.04 637.21 378.14 C 636.40 371.46 636.09 364.75 635.31 358.07 C 634.67 352.03 632.50 346.21 632.45 340.09 C 632.10 327.03 631.67 313.96 630.86 300.91 C 630.14 286.61 627.55 272.37 628.49 258.01 C 629.10 248.53 625.73 239.36 622.35 230.67 C 619.08 222.48 610.39 219.29 603.04 215.84 C 595.54 212.08 590.24 205.29 583.23 200.81 C 574.06 194.43 562.98 191.68 553.74 185.45 C 543.32 189.99 532.03 192.03 520.81 193.40 M 334.24 476.95 C 333.91 479.27 333.58 481.59 333.22 483.92 C 339.76 487.05 346.89 488.67 354.15 488.68 C 355.90 486.52 357.68 484.38 359.49 482.27 C 350.82 483.01 341.62 481.85 334.24 476.95 M 415.54 476.93 C 414.16 488.94 412.61 500.94 411.87 513.01 C 410.90 523.44 410.60 534.04 412.55 544.38 C 413.69 550.50 416.08 556.30 417.55 562.34 C 420.57 574.69 421.38 587.41 423.09 599.98 C 425.03 613.13 427.28 626.24 428.26 639.52 C 429.59 625.71 430.17 611.84 429.76 597.98 C 429.75 589.77 428.46 581.48 430.06 573.34 C 433.40 579.36 432.19 586.48 433.04 593.05 C 434.75 613.40 432.61 633.73 431.50 654.04 C 431.21 658.50 431.27 663.05 432.52 667.39 C 435.39 677.76 438.21 688.23 439.10 698.99 C 439.72 706.64 440.70 714.28 442.27 721.80 C 444.83 734.08 447.39 746.42 451.82 758.19 C 455.07 767.77 459.92 776.76 462.46 786.59 C 465.07 796.71 469.32 806.36 471.41 816.64 C 473.25 824.39 473.32 832.41 474.78 840.22 C 477.16 853.40 484.08 865.10 488.33 877.68 C 490.46 883.95 489.90 890.66 489.52 897.16 C 503.78 894.83 518.09 892.74 532.45 891.03 C 530.56 862.32 525.58 833.81 525.87 804.97 C 526.12 792.31 526.54 779.62 525.57 766.98 C 524.61 753.55 524.19 739.99 521.24 726.80 C 520.28 723.56 519.44 719.30 515.89 717.97 C 510.31 716.57 504.74 719.38 499.13 718.80 C 497.04 718.56 495.81 715.95 497.05 714.22 C 500.05 709.01 505.78 705.89 508.32 700.37 C 510.11 695.79 510.08 690.78 510.38 685.95 C 511.00 662.95 513.41 639.99 512.55 616.96 C 512.51 599.99 509.31 582.94 512.10 566.04 C 513.40 560.05 515.25 553.56 519.95 549.33 C 520.41 549.57 521.31 550.06 521.77 550.31 C 520.57 555.68 517.52 560.49 516.83 566.01 C 514.31 582.56 517.59 599.20 517.65 615.80 C 518.74 640.93 515.77 665.96 514.59 691.03 C 514.66 699.32 516.00 708.14 521.02 714.99 C 523.65 718.69 525.47 722.93 526.29 727.41 C 528.84 740.80 529.17 754.47 530.05 768.03 C 531.55 789.31 528.94 810.70 531.50 831.94 C 534.79 823.11 535.25 813.66 536.71 804.45 C 538.92 791.48 546.41 779.52 545.38 766.05 C 544.96 749.04 545.82 732.00 547.52 715.08 C 548.10 702.95 550.09 690.92 553.20 679.19 C 555.35 671.07 559.03 663.46 561.11 655.33 C 563.36 646.72 563.07 637.73 564.82 629.03 C 567.66 611.97 572.69 595.37 575.21 578.25 C 578.60 556.39 586.29 535.30 587.66 513.11 C 588.09 503.51 587.90 493.39 583.17 484.75 C 568.45 485.49 553.72 486.28 539.09 488.15 C 526.48 489.71 513.77 489.87 501.10 490.63 C 488.40 490.94 475.57 492.22 462.99 489.87 C 452.47 488.34 442.78 483.81 432.79 480.48 C 439.83 506.73 439.75 534.13 438.60 561.07 C 438.43 563.41 437.94 565.71 437.47 568.01 C 435.29 561.22 435.82 554.01 435.61 546.99 C 435.18 524.29 433.72 501.51 428.97 479.26 C 424.54 478.24 420.05 477.50 415.54 476.93 M 333.05 488.69 C 331.83 493.46 330.50 498.21 329.33 503.00 C 327.76 509.19 328.35 515.63 328.71 521.93 C 329.06 526.52 329.71 531.51 332.92 535.08 C 335.37 537.70 338.38 539.74 341.35 541.74 C 346.07 544.85 351.87 545.21 357.30 546.12 C 352.42 543.11 346.98 540.99 342.62 537.20 C 341.51 536.35 341.10 534.91 340.47 533.75 C 349.74 535.41 357.33 541.61 365.63 545.71 C 367.61 544.52 369.72 543.52 371.55 542.10 C 371.85 537.66 370.75 533.27 369.34 529.11 C 367.82 531.82 367.56 535.18 365.60 537.62 C 363.37 540.03 360.86 537.28 359.06 535.84 C 356.55 533.57 352.34 532.03 352.53 528.00 C 352.28 519.68 357.44 512.30 357.42 504.00 C 357.24 500.16 355.91 496.53 354.71 492.93 C 347.25 493.37 339.83 491.74 333.05 488.69 M 619.00 494.36 C 619.52 496.70 619.83 499.12 620.72 501.37 C 624.48 502.04 628.25 500.93 631.83 499.83 C 637.71 497.80 643.91 495.62 648.09 490.77 C 638.50 492.68 628.81 494.30 619.00 494.36 M 622.25 505.89 C 620.34 510.93 617.25 515.59 616.54 521.02 C 616.16 524.16 616.08 527.40 616.79 530.50 C 618.33 533.16 620.52 535.39 622.42 537.80 C 622.90 534.01 622.91 530.10 624.21 526.48 C 624.67 526.45 625.57 526.38 626.03 526.35 C 626.82 529.96 626.21 533.66 625.78 537.28 C 628.62 540.08 629.84 544.04 632.62 546.89 C 635.12 545.22 637.47 543.35 639.72 541.35 C 636.99 537.13 632.52 534.25 630.37 529.65 C 628.58 526.16 629.74 521.44 633.08 519.32 C 634.61 521.59 632.86 524.51 633.80 526.99 C 635.74 532.50 642.16 535.17 643.43 541.05 C 644.06 543.98 641.00 545.54 639.14 547.16 C 636.54 549.30 632.81 551.76 629.57 549.33 C 626.53 547.85 626.76 542.69 623.55 542.06 C 622.71 547.12 623.02 552.39 624.55 557.30 C 627.61 555.91 630.54 553.95 633.98 553.69 C 636.37 553.36 638.85 553.75 641.20 553.17 C 643.34 551.73 644.97 549.61 647.33 548.49 C 649.39 547.29 652.04 546.45 652.99 544.02 C 656.13 537.76 654.41 530.53 652.88 524.07 C 650.34 515.60 647.07 507.36 643.58 499.25 C 636.92 502.65 629.78 505.39 622.25 505.89 M 615.22 535.29 C 616.29 541.73 617.43 548.18 619.47 554.41 C 619.21 549.73 618.95 545.02 619.63 540.36 C 618.12 538.69 616.67 537.00 615.22 535.29 M 606.36 541.32 C 608.55 543.29 610.75 545.25 612.89 547.28 C 612.20 544.13 611.63 540.96 611.06 537.80 C 609.48 538.95 607.92 540.13 606.36 541.32 M 502.68 714.02 C 506.66 713.38 510.67 712.94 514.70 712.71 C 513.67 709.69 512.75 706.64 511.90 703.57 C 509.11 707.29 505.98 710.74 502.68 714.02 M 490.15 901.46 C 490.41 903.26 490.67 905.07 490.93 906.88 C 503.23 909.81 516.63 908.66 527.95 902.90 C 531.16 901.47 532.64 898.20 533.25 894.93 C 518.88 897.06 504.57 899.67 490.15 901.46 M 492.58 912.50 C 493.41 918.56 492.48 924.61 491.43 930.58 C 501.25 927.78 507.91 919.48 516.49 914.47 C 519.75 912.43 523.71 912.42 527.40 911.94 C 527.47 911.08 527.59 909.37 527.65 908.51 C 516.57 912.90 504.38 914.96 492.58 912.50 M 518.04 919.09 C 509.82 923.98 503.32 932.00 493.86 934.64 C 490.77 935.71 488.18 933.64 486.30 931.47 C 480.46 938.48 474.26 945.31 467.02 950.92 C 463.23 953.93 458.51 955.65 455.05 959.08 C 451.79 962.34 452.24 969.28 457.32 970.37 C 464.97 971.52 472.39 968.36 479.99 968.00 C 490.71 966.71 501.38 969.58 512.10 968.58 C 517.45 968.06 523.05 967.54 527.79 964.78 C 530.73 963.13 531.57 959.58 532.24 956.55 C 533.13 951.11 533.72 945.57 533.32 940.07 C 532.57 932.08 529.95 924.43 527.63 916.79 C 524.38 917.21 520.91 917.29 518.04 919.09 Z" />
<path fill="#020202" opacity="1.00" d=" M 562.68 314.26 C 569.08 333.67 563.43 354.60 568.62 374.18 C 573.87 370.62 574.15 363.04 579.40 359.31 C 580.06 364.88 577.22 369.96 574.50 374.58 C 573.13 376.75 570.91 379.29 568.03 378.54 C 564.67 377.69 563.85 373.84 563.31 370.90 C 561.71 359.69 562.22 348.33 562.20 337.04 C 562.23 329.44 561.32 321.79 562.68 314.26 Z" />
</g>
<g id="#f0b58bff">
<path fill="#f0b58b" opacity="1.00" d=" M 461.95 105.29 C 463.77 105.81 465.61 106.30 467.46 106.76 C 469.22 114.05 469.76 121.56 471.43 128.87 C 464.43 123.29 461.92 113.91 461.95 105.29 Z" />
<path fill="#f0b58b" opacity="1.00" d=" M 461.48 130.42 C 459.57 126.53 460.15 122.12 460.01 117.94 C 461.87 124.70 466.11 130.96 472.80 133.67 C 474.67 140.08 477.29 147.24 483.89 150.14 C 488.15 152.46 493.07 150.94 497.12 148.93 C 501.94 146.62 507.47 144.37 512.82 146.28 C 518.36 148.19 524.18 150.01 530.08 148.68 C 528.65 159.77 532.29 171.14 539.72 179.46 C 516.37 183.19 492.54 183.40 469.00 181.53 C 474.78 172.04 478.06 161.09 478.23 149.97 C 477.12 151.18 476.23 152.56 475.52 154.02 C 471.85 145.58 465.25 138.81 461.48 130.42 Z" />
<path fill="#f0b58b" opacity="1.00" d=" M 333.05 488.69 C 339.83 491.74 347.25 493.37 354.71 492.93 C 355.91 496.53 357.24 500.16 357.42 504.00 C 357.44 512.30 352.28 519.68 352.53 528.00 C 352.34 532.03 356.55 533.57 359.06 535.84 C 360.86 537.28 363.37 540.03 365.60 537.62 C 367.56 535.18 367.82 531.82 369.34 529.11 C 370.75 533.27 371.85 537.66 371.55 542.10 C 369.72 543.52 367.61 544.52 365.63 545.71 C 357.33 541.61 349.74 535.41 340.47 533.75 C 341.10 534.91 341.51 536.35 342.62 537.20 C 346.98 540.99 352.42 543.11 357.30 546.12 C 351.87 545.21 346.07 544.85 341.35 541.74 C 338.38 539.74 335.37 537.70 332.92 535.08 C 329.71 531.51 329.06 526.52 328.71 521.93 C 328.35 515.63 327.76 509.19 329.33 503.00 C 330.50 498.21 331.83 493.46 333.05 488.69 Z" />
<path fill="#f0b58b" opacity="1.00" d=" M 622.25 505.89 C 629.78 505.39 636.92 502.65 643.58 499.25 C 647.07 507.36 650.34 515.60 652.88 524.07 C 654.41 530.53 656.13 537.76 652.99 544.02 C 652.04 546.45 649.39 547.29 647.33 548.49 C 644.97 549.61 643.34 551.73 641.20 553.17 C 638.85 553.75 636.37 553.36 633.98 553.69 C 630.54 553.95 627.61 555.91 624.55 557.30 C 623.02 552.39 622.71 547.12 623.55 542.06 C 626.76 542.69 626.53 547.85 629.57 549.33 C 632.81 551.76 636.54 549.30 639.14 547.16 C 641.00 545.54 644.06 543.98 643.43 541.05 C 642.16 535.17 635.74 532.50 633.80 526.99 C 632.86 524.51 634.61 521.59 633.08 519.32 C 629.74 521.44 628.58 526.16 630.37 529.65 C 632.52 534.25 636.99 537.13 639.72 541.35 C 637.47 543.35 635.12 545.22 632.62 546.89 C 629.84 544.04 628.62 540.08 625.78 537.28 C 626.21 533.66 626.82 529.96 626.03 526.35 C 625.57 526.38 624.67 526.45 624.21 526.48 C 622.91 530.10 622.90 534.01 622.42 537.80 C 620.52 535.39 618.33 533.16 616.79 530.50 C 616.08 527.40 616.16 524.16 616.54 521.02 C 617.25 515.59 620.34 510.93 622.25 505.89 Z" />
<path fill="#f0b58b" opacity="1.00" d=" M 615.22 535.29 C 616.67 537.00 618.12 538.69 619.63 540.36 C 618.95 545.02 619.21 549.73 619.47 554.41 C 617.43 548.18 616.29 541.73 615.22 535.29 Z" />
<path fill="#f0b58b" opacity="1.00" d=" M 606.36 541.32 C 607.92 540.13 609.48 538.95 611.06 537.80 C 611.63 540.96 612.20 544.13 612.89 547.28 C 610.75 545.25 608.55 543.29 606.36 541.32 Z" />
<path fill="#f0b58b" opacity="1.00" d=" M 492.58 912.50 C 504.38 914.96 516.57 912.90 527.65 908.51 C 527.59 909.37 527.47 911.08 527.40 911.94 C 523.71 912.42 519.75 912.43 516.49 914.47 C 507.91 919.48 501.25 927.78 491.43 930.58 C 492.48 924.61 493.41 918.56 492.58 912.50 Z" />
</g>
<g id="#4d4d4dff">
<path fill="#4d4d4d" opacity="1.00" d=" M 518.97 186.00 C 529.26 185.32 539.70 184.49 549.52 181.09 C 549.63 181.49 549.85 182.29 549.96 182.69 C 543.48 185.06 536.81 186.93 529.98 187.93 C 514.20 190.37 498.12 191.19 482.21 189.74 C 474.36 188.90 466.31 187.83 459.23 184.11 C 478.99 187.03 499.05 187.17 518.97 186.00 Z" />
<path fill="#4d4d4d" opacity="1.00" d=" M 334.24 476.95 C 341.62 481.85 350.82 483.01 359.49 482.27 C 357.68 484.38 355.90 486.52 354.15 488.68 C 346.89 488.67 339.76 487.05 333.22 483.92 C 333.58 481.59 333.91 479.27 334.24 476.95 Z" />
<path fill="#4d4d4d" opacity="1.00" d=" M 619.00 494.36 C 628.81 494.30 638.50 492.68 648.09 490.77 C 643.91 495.62 637.71 497.80 631.83 499.83 C 628.25 500.93 624.48 502.04 620.72 501.37 C 619.83 499.12 619.52 496.70 619.00 494.36 Z" />
<path fill="#4d4d4d" opacity="1.00" d=" M 490.15 901.46 C 504.57 899.67 518.88 897.06 533.25 894.93 C 532.64 898.20 531.16 901.47 527.95 902.90 C 516.63 908.66 503.23 909.81 490.93 906.88 C 490.67 905.07 490.41 903.26 490.15 901.46 Z" />
<path fill="#4d4d4d" opacity="1.00" d=" M 518.04 919.09 C 520.91 917.29 524.38 917.21 527.63 916.79 C 529.95 924.43 532.57 932.08 533.32 940.07 C 533.72 945.57 533.13 951.11 532.24 956.55 C 531.57 959.58 530.73 963.13 527.79 964.78 C 523.05 967.54 517.45 968.06 512.10 968.58 C 501.38 969.58 490.71 966.71 479.99 968.00 C 472.39 968.36 464.97 971.52 457.32 970.37 C 452.24 969.28 451.79 962.34 455.05 959.08 C 458.51 955.65 463.23 953.93 467.02 950.92 C 474.26 945.31 480.46 938.48 486.30 931.47 C 488.18 933.64 490.77 935.71 493.86 934.64 C 503.32 932.00 509.82 923.98 518.04 919.09 Z" />
</g>
<g id="#006330ff">
<path fill="var(--shirt-color, grey)" opacity="1.00" d=" M 520.81 193.40 C 532.03 192.03 543.32 189.99 553.74 185.45 C 562.98 191.68 574.06 194.43 583.23 200.81 C 590.24 205.29 595.54 212.08 603.04 215.84 C 610.39 219.29 619.08 222.48 622.35 230.67 C 625.73 239.36 629.10 248.53 628.49 258.01 C 627.55 272.37 630.14 286.61 630.86 300.91 C 631.67 313.96 632.10 327.03 632.45 340.09 C 632.50 346.21 634.67 352.03 635.31 358.07 C 636.09 364.75 636.40 371.46 637.21 378.14 C 638.07 385.04 638.22 392.10 640.25 398.80 C 643.06 408.07 647.15 416.93 649.49 426.35 C 652.44 439.44 649.25 452.79 649.15 465.99 C 649.11 472.57 648.72 479.16 647.62 485.66 C 638.87 487.57 630.00 489.36 621.03 489.55 C 617.38 489.69 614.92 486.47 613.39 483.57 C 610.63 477.76 612.09 471.15 611.48 464.98 C 611.26 461.21 609.47 457.82 607.75 454.56 C 613.67 457.21 620.95 457.61 625.47 462.76 C 623.63 463.49 621.78 464.22 619.98 465.02 C 622.10 465.80 625.04 466.84 626.69 464.60 C 628.66 462.24 626.82 458.86 624.57 457.45 C 618.09 453.39 610.01 452.67 603.77 448.15 C 601.72 446.79 601.41 444.17 600.95 441.97 C 599.23 431.37 600.15 420.61 600.13 409.94 C 600.21 404.58 597.82 399.33 599.11 393.97 C 601.23 384.20 601.23 374.09 599.98 364.20 C 599.45 363.94 598.39 363.41 597.86 363.15 C 597.41 373.41 597.66 383.78 595.50 393.89 C 592.42 383.11 592.89 371.72 590.03 360.90 C 588.81 357.46 590.78 354.11 591.90 350.95 C 595.96 341.18 598.97 330.98 603.52 321.41 C 606.52 315.01 609.26 308.50 612.02 302.00 C 614.09 297.05 616.95 292.43 618.32 287.21 C 610.85 292.83 608.56 302.41 604.34 310.30 C 606.10 300.94 607.73 291.54 608.66 282.06 C 609.04 279.88 608.18 277.86 607.08 276.04 C 604.57 283.18 603.82 290.76 602.32 298.14 C 598.37 318.43 591.64 338.04 584.54 357.41 C 580.55 370.68 576.68 384.14 575.63 398.02 C 570.93 394.99 566.31 391.60 563.18 386.87 C 559.90 382.47 558.85 376.66 554.63 372.92 C 553.97 382.96 560.07 392.36 567.87 398.20 C 574.21 402.70 581.66 406.58 585.22 413.90 C 588.88 420.47 588.30 428.37 586.42 435.40 C 583.89 445.38 583.49 455.85 584.96 466.03 C 585.69 470.88 585.77 475.81 585.24 480.69 C 571.28 480.34 557.32 481.22 543.44 482.70 C 523.71 485.14 503.82 485.74 483.97 486.39 C 472.60 486.84 461.09 485.51 450.31 481.79 C 441.30 478.73 432.46 474.81 422.97 473.49 C 419.45 473.01 415.96 472.38 412.52 471.51 C 411.81 467.44 411.01 463.22 412.15 459.15 C 413.56 453.67 415.59 448.36 416.80 442.82 C 421.85 446.25 427.39 448.90 433.20 450.74 C 445.53 454.85 458.32 457.58 471.27 458.75 C 479.94 459.43 488.96 459.85 497.20 456.55 C 488.50 456.48 479.73 456.53 471.17 454.71 C 460.11 452.65 448.91 451.17 438.13 447.83 C 431.98 445.91 425.19 444.21 420.93 438.97 C 416.92 434.15 413.31 428.44 412.70 422.06 C 413.04 412.13 417.63 402.60 424.47 395.50 C 431.14 388.95 437.13 381.46 440.95 372.88 C 442.30 368.73 444.75 364.04 442.55 359.76 C 440.00 364.31 438.68 369.43 436.02 373.92 C 431.37 381.38 425.42 387.91 419.11 394.01 C 420.62 384.89 419.98 375.49 417.25 366.67 C 414.28 357.42 412.73 347.43 414.66 337.81 C 415.42 333.52 419.36 331.05 422.54 328.58 C 432.72 321.58 442.91 314.05 450.28 303.99 C 446.93 305.93 443.88 308.32 441.00 310.91 C 434.96 316.31 428.07 320.62 421.46 325.27 C 427.57 316.58 433.83 307.58 436.42 297.12 C 431.85 299.86 430.10 305.07 427.35 309.33 C 421.79 318.58 413.85 326.24 409.12 336.01 C 405.01 344.52 399.97 352.58 396.48 361.39 C 390.68 375.59 382.00 388.45 371.74 399.80 C 367.36 405.12 361.63 409.45 358.80 415.91 C 364.49 414.69 367.99 409.74 371.93 405.92 C 381.79 396.23 389.98 384.92 396.19 372.58 C 394.76 379.28 393.99 386.16 391.77 392.69 C 389.66 398.92 385.77 404.38 383.75 410.64 C 381.57 417.01 381.00 423.90 377.99 429.99 C 374.94 436.46 369.58 441.86 368.13 449.05 C 366.32 457.72 366.57 467.12 362.11 475.04 C 360.75 477.54 357.57 477.68 355.07 477.76 C 349.52 477.72 343.87 476.61 338.90 474.08 C 333.83 471.41 332.07 465.45 330.83 460.27 C 328.84 448.97 328.36 437.34 330.06 425.97 C 332.73 407.03 336.89 388.32 341.81 369.85 C 347.99 349.07 353.71 328.15 359.24 307.18 C 362.19 295.46 367.69 284.66 372.84 273.80 C 372.58 277.43 372.65 281.13 373.87 284.61 C 377.10 279.38 376.66 273.05 377.58 267.20 C 379.05 256.93 380.50 246.43 384.89 236.91 C 388.47 229.03 394.48 222.60 400.87 216.89 C 412.81 206.22 427.09 198.41 442.12 193.03 C 447.06 191.32 451.99 189.56 456.79 187.48 C 461.93 190.18 467.50 191.98 473.24 192.81 C 488.97 195.24 505.02 195.03 520.81 193.40 M 562.68 314.26 C 561.32 321.79 562.23 329.44 562.20 337.04 C 562.22 348.33 561.71 359.69 563.31 370.90 C 563.85 373.84 564.67 377.69 568.03 378.54 C 570.91 379.29 573.13 376.75 574.50 374.58 C 577.22 369.96 580.06 364.88 579.40 359.31 C 574.15 363.04 573.87 370.62 568.62 374.18 C 563.43 354.60 569.08 333.67 562.68 314.26 Z" />
<path fill="var(--pants-color, grey)" opacity="1.00" d=" M 415.54 476.93 C 420.05 477.50 424.54 478.24 428.97 479.26 C 433.72 501.51 435.18 524.29 435.61 546.99 C 435.82 554.01 435.29 561.22 437.47 568.01 C 437.94 565.71 438.43 563.41 438.60 561.07 C 439.75 534.13 439.83 506.73 432.79 480.48 C 442.78 483.81 452.47 488.34 462.99 489.87 C 475.57 492.22 488.40 490.94 501.10 490.63 C 513.77 489.87 526.48 489.71 539.09 488.15 C 553.72 486.28 568.45 485.49 583.17 484.75 C 587.90 493.39 588.09 503.51 587.66 513.11 C 586.29 535.30 578.60 556.39 575.21 578.25 C 572.69 595.37 567.66 611.97 564.82 629.03 C 563.07 637.73 563.36 646.72 561.11 655.33 C 559.03 663.46 555.35 671.07 553.20 679.19 C 550.09 690.92 548.10 702.95 547.52 715.08 C 545.82 732.00 544.96 749.04 545.38 766.05 C 546.41 779.52 538.92 791.48 536.71 804.45 C 535.25 813.66 534.79 823.11 531.50 831.94 C 528.94 810.70 531.55 789.31 530.05 768.03 C 529.17 754.47 528.84 740.80 526.29 727.41 C 525.47 722.93 523.65 718.69 521.02 714.99 C 516.00 708.14 514.66 699.32 514.59 691.03 C 515.77 665.96 518.74 640.93 517.65 615.80 C 517.59 599.20 514.31 582.56 516.83 566.01 C 517.52 560.49 520.57 555.68 521.77 550.31 C 521.31 550.06 520.41 549.57 519.95 549.33 C 515.25 553.56 513.40 560.05 512.10 566.04 C 509.31 582.94 512.51 599.99 512.55 616.96 C 513.41 639.99 511.00 662.95 510.38 685.95 C 510.08 690.78 510.11 695.79 508.32 700.37 C 505.78 705.89 500.05 709.01 497.05 714.22 C 495.81 715.95 497.04 718.56 499.13 718.80 C 504.74 719.38 510.31 716.57 515.89 717.97 C 519.44 719.30 520.28 723.56 521.24 726.80 C 524.19 739.99 524.61 753.55 525.57 766.98 C 526.54 779.62 526.12 792.31 525.87 804.97 C 525.58 833.81 530.56 862.32 532.45 891.03 C 518.09 892.74 503.78 894.83 489.52 897.16 C 489.90 890.66 490.46 883.95 488.33 877.68 C 484.08 865.10 477.16 853.40 474.78 840.22 C 473.32 832.41 473.25 824.39 471.41 816.64 C 469.32 806.36 465.07 796.71 462.46 786.59 C 459.92 776.76 455.07 767.77 451.82 758.19 C 447.39 746.42 444.83 734.08 442.27 721.80 C 440.70 714.28 439.72 706.64 439.10 698.99 C 438.21 688.23 435.39 677.76 432.52 667.39 C 431.27 663.05 431.21 658.50 431.50 654.04 C 432.61 633.73 434.75 613.40 433.04 593.05 C 432.19 586.48 433.40 579.36 430.06 573.34 C 428.46 581.48 429.75 589.77 429.76 597.98 C 430.17 611.84 429.59 625.71 428.26 639.52 C 427.28 626.24 425.03 613.13 423.09 599.98 C 421.38 587.41 420.57 574.69 417.55 562.34 C 416.08 556.30 413.69 550.50 412.55 544.38 C 410.60 534.04 410.90 523.44 411.87 513.01 C 412.61 500.94 414.16 488.94 415.54 476.93 Z" />
<path fill="var(--pants-color, grey)" opacity="1.00" d=" M 502.68 714.02 C 505.98 710.74 509.11 707.29 511.90 703.57 C 512.75 706.64 513.67 709.69 514.70 712.71 C 510.67 712.94 506.66 713.38 502.68 714.02 Z" />
</g>
</svg>
