<?xml version="1.0" encoding="UTF-8" ?>
<!DOCTYPE svg PUBLIC "-//W3C//DTD SVG 1.1//EN" "http://www.w3.org/Graphics/SVG/1.1/DTD/svg11.dtd">
<svg width="1000pt" height="1000pt" viewBox="0 0 1000 1000" version="1.1" xmlns="http://www.w3.org/2000/svg">
<g id="#020202ff">
<path fill="#020202" opacity="1.00" d=" M 594.16 22.23 C 602.82 19.03 612.00 17.43 621.18 16.66 C 626.44 16.29 631.78 16.00 636.99 17.03 C 644.29 18.21 650.57 22.71 657.94 23.66 C 664.78 24.43 671.28 28.16 675.00 34.01 C 677.38 37.90 677.74 42.57 678.13 47.01 C 679.09 58.72 677.64 70.45 675.90 82.02 C 674.52 90.28 672.65 98.81 667.78 105.79 C 665.33 109.63 661.73 113.20 661.58 118.04 C 661.33 125.78 664.97 132.84 666.25 140.34 C 683.31 142.12 699.48 148.26 715.18 154.84 C 726.89 159.74 739.39 162.27 751.20 166.89 C 754.21 167.96 756.00 170.81 757.57 173.43 C 765.08 186.27 770.98 200.00 776.01 213.98 C 782.96 234.68 788.67 255.77 794.08 276.92 C 797.29 289.28 799.30 301.90 801.22 314.52 C 802.71 324.63 804.37 334.75 804.60 344.98 C 804.56 349.73 806.83 354.18 806.45 358.95 C 805.65 369.84 802.71 380.41 800.71 391.11 C 799.01 399.79 796.38 408.26 795.03 417.01 C 794.08 422.97 794.80 429.00 794.55 435.00 C 794.35 441.38 796.09 447.64 795.79 454.03 C 795.70 459.07 794.14 463.95 794.27 469.01 C 794.17 477.63 788.20 484.83 781.17 489.17 C 778.44 497.84 777.84 507.00 778.43 516.03 C 778.94 523.78 778.93 531.76 776.41 539.20 C 773.69 547.22 770.09 555.07 764.73 561.70 C 762.51 564.43 760.04 567.89 756.09 567.75 C 749.41 568.12 742.71 569.32 736.01 568.75 C 733.47 568.78 731.81 565.54 733.62 563.63 C 739.14 558.44 746.92 557.08 753.20 553.20 C 755.62 549.66 755.85 545.08 756.55 540.96 C 757.39 536.74 754.26 533.46 751.72 530.58 C 750.54 536.63 750.24 542.98 747.76 548.70 C 746.72 551.43 743.16 553.70 740.58 551.44 C 737.22 548.26 738.09 543.13 738.03 538.97 C 738.52 527.61 733.74 516.57 735.52 505.19 C 736.96 497.34 742.73 491.43 747.08 485.06 C 742.02 477.89 738.70 468.63 741.11 459.88 C 743.76 450.11 742.64 439.92 743.49 429.94 C 745.38 407.01 749.16 384.14 748.30 361.06 C 747.92 353.01 746.06 345.14 744.37 337.29 C 741.98 346.19 738.78 354.84 735.33 363.38 C 731.91 372.21 729.97 381.59 729.48 391.04 C 729.12 399.78 731.24 408.32 731.69 417.00 C 732.12 423.34 733.89 429.66 733.03 436.03 C 732.50 439.89 729.69 442.80 727.12 445.49 C 728.88 454.19 729.11 463.10 729.27 471.96 C 729.03 498.96 726.88 525.91 727.11 552.93 C 727.16 567.60 727.19 582.27 727.62 596.94 C 728.12 613.05 728.03 629.37 724.60 645.19 C 721.82 660.65 716.64 675.54 713.28 690.87 C 711.86 696.77 709.97 703.04 712.15 709.01 C 714.62 716.02 715.94 723.34 717.50 730.59 C 724.47 756.96 727.57 785.07 721.44 811.93 C 719.69 822.97 718.21 834.05 716.49 845.09 C 714.78 855.96 714.21 867.02 715.00 878.00 C 715.57 886.04 715.84 894.16 714.55 902.16 C 714.23 905.27 713.14 908.53 714.44 911.58 C 717.28 919.14 722.04 925.78 726.52 932.45 C 730.95 939.04 737.09 944.42 744.24 947.88 C 750.19 951.26 757.01 953.34 762.14 958.02 C 764.87 960.27 764.06 964.49 761.74 966.74 C 756.64 972.12 749.37 975.22 742.06 975.96 C 726.32 977.17 711.18 971.88 695.79 969.70 C 688.54 968.53 681.20 970.22 673.97 969.12 C 666.85 968.10 662.80 960.57 662.48 953.95 C 662.14 944.50 667.17 936.12 669.39 927.19 C 670.80 921.54 672.06 915.76 671.89 909.91 C 671.90 907.30 669.82 905.46 668.64 903.34 C 662.08 892.77 660.37 880.09 659.00 867.96 C 658.25 854.14 654.20 840.76 653.67 826.93 C 651.60 810.39 651.89 793.64 649.44 777.14 C 648.04 762.05 645.85 747.05 644.07 732.01 C 642.70 717.28 641.54 702.53 639.62 687.86 C 635.35 647.24 636.39 606.31 633.38 565.61 C 628.40 573.17 625.34 581.93 624.14 590.88 C 622.19 606.47 619.44 621.94 616.70 637.40 C 610.13 668.35 602.38 699.03 594.40 729.64 C 590.18 745.26 590.53 761.54 588.80 777.51 C 587.40 794.97 582.23 811.82 577.43 828.58 C 570.08 854.21 566.11 880.64 562.80 907.05 C 562.32 910.08 562.23 913.26 561.05 916.14 C 559.69 917.29 557.84 917.63 556.23 918.33 C 555.54 926.48 556.63 934.74 559.35 942.46 C 561.15 948.37 563.66 954.69 561.61 960.89 C 559.52 968.50 552.07 973.42 544.50 974.31 C 530.74 976.14 516.79 975.31 502.98 976.45 C 497.12 977.03 491.24 978.39 485.33 977.75 C 479.33 976.65 473.53 974.10 468.87 970.15 C 465.66 967.36 463.82 962.21 466.48 958.45 C 471.07 951.94 478.98 949.34 485.69 945.66 C 490.94 942.69 496.41 939.92 500.98 935.93 C 506.87 930.65 508.24 922.27 513.63 916.62 C 515.09 915.02 516.79 913.67 518.48 912.32 C 517.42 910.89 515.96 909.66 515.38 907.96 C 514.66 900.65 516.14 893.29 515.10 886.00 C 514.19 879.38 512.64 872.84 510.50 866.52 C 507.91 858.97 507.37 850.91 507.40 842.99 C 507.72 830.97 509.07 819.02 510.28 807.08 C 510.74 798.43 512.15 789.69 510.52 781.08 C 509.57 774.33 507.33 767.82 506.83 761.00 C 504.97 743.51 508.98 726.11 513.15 709.23 C 514.73 700.48 515.87 691.65 516.82 682.81 C 518.77 656.94 521.31 630.98 519.60 605.03 C 518.02 580.01 518.84 554.80 522.17 529.95 C 524.73 513.44 528.89 497.16 534.43 481.40 C 539.84 465.90 549.51 452.50 557.51 438.30 C 555.79 435.83 554.26 433.12 553.99 430.05 C 553.31 424.73 552.63 419.36 552.81 413.98 C 553.03 407.14 556.42 400.85 556.45 394.00 C 556.63 384.63 555.25 375.33 554.24 366.05 C 554.05 362.07 553.69 357.90 555.02 354.08 C 556.05 351.42 558.46 349.72 560.63 348.05 C 557.68 341.83 555.43 335.30 553.75 328.63 C 551.82 320.18 551.87 311.45 550.53 302.91 C 549.08 293.93 549.01 284.16 543.64 276.40 C 540.13 271.16 537.34 265.42 533.33 260.55 C 516.43 252.25 497.97 247.42 481.27 238.62 C 477.16 236.54 472.44 236.55 467.96 236.12 C 451.28 234.37 434.63 238.31 417.94 236.72 C 410.33 236.24 402.90 234.33 395.65 232.08 C 391.12 230.75 386.84 228.05 381.96 228.39 C 373.26 228.86 364.54 231.38 355.82 229.69 C 342.52 227.35 330.71 220.36 319.01 214.00 C 310.45 209.55 302.73 203.74 295.04 197.97 C 288.05 192.59 280.61 187.80 273.90 182.07 C 271.23 179.60 267.28 179.63 264.39 177.57 C 263.01 176.35 262.12 174.70 261.09 173.21 C 252.75 173.55 244.01 172.47 236.60 168.42 C 229.55 164.25 226.20 156.06 219.23 151.80 C 213.55 148.08 206.54 147.52 200.58 144.43 C 198.61 143.65 198.25 141.45 197.59 139.70 C 195.10 138.68 190.08 137.42 191.67 133.71 C 195.22 129.63 200.95 128.22 206.08 127.25 C 201.67 125.84 197.07 124.46 193.35 121.61 C 190.64 119.17 193.86 115.15 196.87 115.14 C 204.68 114.38 212.69 114.24 220.42 115.83 C 214.63 113.61 208.98 110.76 204.23 106.74 C 202.67 105.54 202.31 103.13 203.61 101.61 C 205.30 100.07 207.78 100.39 209.90 100.40 C 216.76 100.92 223.98 101.32 229.97 105.11 C 238.20 110.10 246.40 115.20 254.28 120.75 C 259.33 124.12 261.78 129.85 265.62 134.34 C 268.28 137.56 271.21 140.53 274.15 143.49 C 276.98 143.44 279.97 143.19 282.60 144.49 C 284.70 145.47 285.76 147.68 287.03 149.48 C 292.73 151.00 298.29 152.99 303.62 155.51 C 313.42 160.15 322.90 166.37 333.96 167.41 C 347.11 168.53 360.37 169.43 373.18 172.87 C 378.05 174.01 382.82 175.70 387.10 178.33 C 393.86 176.03 400.73 173.75 407.92 173.38 C 417.73 172.36 427.31 175.23 436.91 176.74 C 447.63 178.13 458.50 176.74 468.96 174.28 C 484.09 171.27 499.59 170.55 514.99 170.58 C 521.69 170.83 527.97 167.88 533.60 164.55 C 544.73 157.74 556.86 152.82 568.88 147.86 C 579.57 143.35 591.50 142.84 602.88 144.27 C 602.86 143.44 602.82 141.79 602.80 140.96 C 599.77 139.63 596.80 137.73 595.47 134.56 C 591.46 126.00 590.51 116.42 587.27 107.60 C 584.49 101.80 580.06 96.55 579.12 90.03 C 578.62 86.27 582.29 84.29 584.93 82.54 C 583.69 76.36 582.93 70.10 581.61 63.93 C 579.49 62.75 576.78 61.82 575.95 59.28 C 574.50 54.99 575.00 50.34 575.49 45.92 C 576.09 40.61 577.50 35.13 581.05 30.99 C 584.54 26.97 589.20 24.08 594.16 22.23 M 582.96 90.99 C 585.07 96.70 588.40 101.88 591.86 106.86 C 593.68 105.28 595.49 103.67 597.44 102.22 C 597.73 106.19 595.54 110.10 591.64 111.30 C 594.01 117.79 595.35 124.63 598.11 130.99 C 599.08 133.49 601.03 135.38 603.07 137.05 C 603.24 134.72 603.32 132.37 603.84 130.08 C 604.27 130.41 605.11 131.05 605.53 131.38 C 607.43 135.51 607.03 140.27 606.40 144.65 C 615.63 144.68 624.84 144.08 634.05 143.80 C 643.55 143.48 652.81 141.14 662.28 140.49 C 659.73 133.17 657.07 125.71 657.13 117.86 C 650.87 119.51 644.35 119.20 637.95 119.12 C 633.43 119.08 628.70 120.21 625.30 123.34 C 621.78 126.12 618.78 130.42 613.94 130.75 C 609.50 131.20 605.82 127.79 604.10 124.00 C 599.25 113.72 599.90 102.01 596.87 91.24 C 595.85 86.70 590.21 84.55 586.10 86.12 C 584.16 86.82 581.78 88.69 582.96 90.99 M 206.31 104.05 C 212.17 108.92 219.50 111.28 226.03 115.01 C 229.79 118.01 234.19 121.49 235.34 126.34 C 231.46 126.35 228.31 123.77 224.98 122.13 C 221.35 119.95 217.22 118.64 212.97 118.63 C 207.17 118.59 201.34 118.41 195.55 119.05 C 203.95 124.08 213.77 125.68 222.81 129.14 C 224.51 129.87 227.41 130.61 225.57 132.94 C 219.64 132.87 213.98 130.37 208.01 130.69 C 203.04 130.49 198.51 132.76 194.32 135.15 C 201.51 137.46 209.12 137.59 216.54 138.66 C 219.84 139.41 223.94 139.66 225.68 143.08 C 217.00 142.91 208.49 140.71 199.81 140.24 C 205.15 144.58 212.57 144.23 218.45 147.51 C 225.59 150.71 229.82 157.54 235.10 162.94 C 241.84 169.18 251.70 169.67 260.41 169.83 C 259.87 160.24 263.42 149.85 271.88 144.56 C 266.24 140.42 261.49 135.19 257.60 129.39 C 255.07 125.58 251.13 123.13 247.37 120.70 C 240.82 116.57 234.35 112.28 227.67 108.36 C 221.30 104.36 213.51 104.74 206.31 104.05 M 643.95 147.45 C 633.05 148.97 622.01 148.71 611.05 148.24 C 602.05 147.89 593.01 146.43 584.03 147.84 C 576.04 148.81 568.69 152.26 561.30 155.24 C 552.81 158.84 544.31 162.55 536.46 167.42 C 532.42 169.79 528.58 172.77 523.93 173.81 C 519.05 174.89 514.01 174.63 509.05 174.73 C 496.64 174.75 484.19 175.68 471.99 177.99 C 463.45 179.95 454.82 181.90 446.00 181.85 C 433.11 182.30 420.89 176.48 407.97 177.33 C 398.39 177.57 389.43 181.26 380.24 183.54 C 380.93 182.25 381.62 180.97 382.33 179.68 C 366.91 173.91 350.37 172.75 334.12 171.33 C 319.87 170.02 308.20 161.02 295.31 155.76 C 290.29 153.73 284.84 151.02 279.30 152.45 C 275.16 154.31 273.42 159.07 272.28 163.15 C 270.99 168.78 271.04 176.12 276.27 179.80 C 281.98 184.13 288.02 188.02 293.81 192.24 C 302.32 198.44 310.59 205.09 319.97 209.99 C 330.59 215.73 341.17 221.98 352.89 225.19 C 361.88 227.82 371.27 226.13 380.41 225.66 C 372.41 221.38 364.01 217.58 356.89 211.88 C 364.88 213.00 371.54 217.87 378.64 221.30 C 389.66 227.38 401.71 231.63 414.18 233.42 C 433.39 235.76 452.69 231.01 471.88 233.91 C 464.47 230.14 457.26 226.00 450.08 221.82 C 445.15 218.86 439.53 217.11 435.04 213.42 C 440.95 213.38 446.18 216.25 451.37 218.69 C 468.94 227.51 485.90 237.70 504.34 244.69 C 520.58 250.75 536.41 257.83 552.26 264.83 C 560.32 268.39 568.80 271.07 576.52 275.39 C 574.05 275.76 571.51 275.73 569.17 274.78 C 558.77 270.91 548.41 266.91 538.28 262.37 C 542.44 268.07 545.96 274.22 550.23 279.83 C 554.25 285.27 561.71 286.93 565.22 292.85 C 568.22 298.05 569.84 304.01 570.03 310.02 C 567.65 305.55 566.34 300.58 563.74 296.23 C 560.79 291.44 555.52 288.96 550.96 286.00 C 553.17 296.59 554.98 307.27 556.02 318.04 C 556.81 326.75 559.30 335.23 562.75 343.25 C 565.96 350.83 572.44 356.20 577.54 362.46 C 581.65 367.57 586.25 372.52 588.51 378.81 C 584.24 374.61 580.82 369.66 576.54 365.48 C 571.39 360.61 566.14 355.83 561.70 350.29 C 560.46 351.83 559.06 353.30 558.19 355.10 C 557.12 358.62 557.59 362.38 557.95 365.98 C 559.22 375.62 560.79 385.30 560.60 395.06 C 560.47 401.84 557.40 408.16 557.19 414.93 C 557.00 421.91 557.40 428.96 559.05 435.77 C 567.63 436.49 576.14 434.81 584.71 434.69 C 596.49 433.96 608.43 434.42 619.96 437.09 C 635.76 441.05 651.74 444.20 667.75 447.21 C 683.45 449.68 699.80 451.56 715.42 447.53 C 719.46 446.30 723.82 445.00 726.85 441.89 C 729.54 437.49 729.37 431.99 728.92 427.03 C 727.53 413.32 719.07 401.93 713.06 389.96 C 704.11 373.65 698.46 354.96 700.18 336.24 C 702.27 344.10 702.74 352.28 704.72 360.17 C 708.60 378.30 719.40 393.71 726.99 410.34 C 723.78 394.28 725.25 377.42 731.13 362.14 C 733.93 355.13 736.68 348.10 738.94 340.90 C 741.75 331.89 741.28 322.36 741.75 313.06 C 742.21 299.81 744.29 286.54 748.52 273.96 C 750.55 277.03 749.47 280.72 748.90 284.05 C 747.43 291.73 746.42 299.49 745.88 307.29 C 748.05 304.03 750.36 300.87 752.71 297.73 C 755.50 294.01 757.23 289.65 759.53 285.63 C 759.27 287.63 759.02 289.64 758.53 291.60 C 756.18 300.29 747.26 305.62 745.90 314.71 C 745.29 319.99 745.07 325.36 745.47 330.67 C 746.76 338.65 751.96 345.25 754.03 352.99 C 756.51 362.12 758.16 371.77 756.72 381.22 C 755.49 375.21 755.30 369.03 753.86 363.06 C 753.05 359.55 752.40 355.99 752.04 352.41 C 751.54 353.04 751.05 353.68 750.58 354.33 C 751.18 357.86 751.69 361.42 751.74 365.01 C 752.20 388.28 748.04 411.29 746.59 434.45 C 746.31 444.64 746.10 454.88 743.97 464.90 C 746.91 467.27 750.23 469.36 754.08 469.82 C 764.24 471.32 774.89 471.06 784.69 467.73 C 787.12 466.76 789.86 465.82 791.44 463.60 C 793.22 458.21 792.97 452.24 791.22 446.86 C 788.32 437.95 786.60 428.73 784.52 419.62 C 783.15 413.16 780.81 406.87 780.81 400.19 C 785.78 410.11 788.04 421.14 790.78 431.83 C 790.88 426.22 790.67 420.58 791.48 415.01 C 792.68 406.54 795.14 398.31 796.75 389.91 C 798.68 379.60 801.26 369.40 802.49 358.97 C 802.84 356.05 802.42 353.12 801.89 350.26 C 800.64 343.59 801.01 336.75 799.92 330.06 C 797.96 316.79 796.02 303.50 793.57 290.31 C 791.13 278.79 787.95 267.45 784.90 256.09 C 779.18 236.06 773.76 215.82 765.23 196.75 C 761.56 188.73 758.47 180.20 752.66 173.41 C 750.42 170.52 746.79 169.49 743.43 168.54 C 733.66 165.82 723.82 163.28 714.33 159.66 C 699.33 153.73 684.22 147.38 668.08 145.39 C 659.97 144.59 651.95 146.40 643.95 147.45 M 273.43 148.39 C 266.10 152.64 263.57 162.15 264.25 170.11 C 264.23 173.40 267.05 175.30 269.49 176.91 C 267.45 168.96 268.20 160.00 273.39 153.38 C 275.50 150.36 279.45 149.95 282.65 148.75 C 279.69 147.89 276.30 146.49 273.43 148.39 M 750.03 350.71 L 749.59 351.48 C 750.76 353.39 752.49 350.04 750.03 350.71 M 561.55 439.22 C 559.00 444.31 556.12 449.23 553.09 454.05 C 546.46 464.63 540.51 475.72 536.60 487.61 C 529.90 508.16 525.15 529.44 524.00 551.07 C 527.13 542.82 530.31 534.59 533.50 526.37 C 537.27 516.86 537.63 506.11 543.26 497.34 C 544.84 494.37 547.49 492.24 550.35 490.58 C 549.36 493.65 548.07 496.61 546.50 499.42 C 543.62 504.55 542.34 510.33 541.10 516.02 C 538.68 527.83 532.92 538.54 528.69 549.74 C 526.17 556.62 523.30 563.58 522.97 570.99 C 521.98 592.35 525.24 613.65 523.97 635.00 C 523.94 647.36 523.03 659.69 521.93 671.99 C 521.25 684.07 519.26 696.03 516.72 707.84 C 513.07 723.95 509.05 740.33 510.01 756.97 C 510.44 768.13 514.98 778.72 514.83 789.94 C 514.52 807.36 511.89 824.65 511.44 842.07 C 511.33 849.98 511.80 858.05 514.47 865.57 C 517.70 874.97 519.66 884.87 519.43 894.84 C 526.18 894.84 531.49 899.29 537.61 901.34 C 544.87 902.76 552.28 901.16 559.58 900.80 C 562.21 876.24 566.05 851.71 572.93 827.95 C 577.93 810.60 583.20 793.14 584.68 775.06 C 585.60 766.34 586.02 757.58 586.77 748.85 C 583.06 755.73 579.38 762.72 577.30 770.31 C 575.27 776.85 574.96 783.75 573.29 790.38 C 572.78 786.67 572.60 782.90 573.16 779.19 C 574.18 772.09 575.27 764.87 578.30 758.30 C 581.26 751.40 586.03 745.34 588.03 738.03 C 595.18 709.75 602.82 681.59 609.24 653.13 C 614.43 631.71 617.65 609.87 620.74 588.07 C 621.85 581.16 624.02 574.42 627.17 568.18 C 631.08 560.71 638.42 556.08 644.35 550.37 C 650.80 544.34 655.79 536.86 662.64 531.24 C 661.69 537.36 656.82 541.58 653.37 546.37 C 648.49 552.88 641.98 557.83 636.04 563.31 C 638.78 579.74 639.16 596.43 639.90 613.04 C 640.94 631.70 640.85 650.41 642.46 669.03 C 642.98 681.90 645.26 694.61 646.34 707.43 C 647.58 718.79 648.07 730.23 649.64 741.55 C 651.61 756.65 653.19 771.79 654.84 786.92 C 656.22 805.74 656.78 824.67 659.56 843.36 C 663.00 858.81 662.35 874.90 666.78 890.16 C 667.30 891.40 667.45 893.29 669.10 893.58 C 673.39 895.08 677.95 895.59 682.38 896.55 C 688.24 897.57 694.11 899.06 700.11 898.92 C 704.80 898.75 708.47 895.45 712.16 892.95 C 712.13 883.60 710.72 874.33 710.79 865.00 C 710.81 850.13 714.10 835.57 716.11 820.91 C 717.35 810.91 720.15 801.11 720.29 790.99 C 721.47 769.77 718.02 748.59 712.93 728.06 C 711.59 722.42 710.61 716.69 708.84 711.17 C 707.24 706.19 705.54 701.21 704.96 695.99 C 702.40 675.55 705.70 654.95 710.17 635.02 C 711.80 628.34 713.03 621.46 716.19 615.28 C 715.48 624.18 713.04 632.81 711.50 641.58 C 707.92 658.93 706.15 676.82 708.27 694.48 C 711.98 676.53 717.91 659.12 721.10 641.06 C 724.86 622.27 723.56 603.03 723.04 584.02 C 723.00 566.34 722.61 548.66 723.15 530.98 C 723.61 503.17 726.22 475.32 724.07 447.52 C 715.26 451.53 705.56 453.08 695.94 453.19 C 675.50 453.56 655.54 448.54 635.68 444.41 C 626.39 442.60 617.38 439.43 607.93 438.51 C 592.50 436.49 576.99 438.72 561.55 439.22 M 743.39 468.97 C 744.78 475.83 748.28 483.03 755.16 485.75 C 761.49 487.50 768.30 487.73 774.77 486.61 C 783.44 484.63 789.57 476.88 791.68 468.53 C 784.71 472.25 776.85 473.88 769.00 474.23 C 760.25 474.50 750.90 474.00 743.39 468.97 M 749.62 487.19 C 745.82 493.73 739.49 499.19 738.53 507.06 C 737.73 516.18 741.17 524.93 741.76 533.96 C 742.37 538.98 740.85 544.42 743.42 549.07 C 747.17 542.82 747.34 535.27 749.06 528.34 C 743.62 521.25 742.72 510.91 746.49 502.89 C 747.64 509.11 746.67 515.76 749.35 521.66 C 751.68 527.06 757.69 529.76 759.82 535.29 C 761.32 539.27 760.09 543.56 759.34 547.56 C 758.52 551.07 757.74 555.28 754.28 557.16 C 748.20 560.42 741.30 561.90 735.41 565.56 C 741.61 565.88 747.76 564.83 753.93 564.36 C 759.75 564.71 763.04 559.00 765.80 554.76 C 771.13 545.04 775.53 534.28 775.25 523.00 C 774.91 512.12 773.73 500.70 778.27 490.45 C 768.70 493.03 758.47 491.36 749.62 487.19 M 668.90 896.23 C 671.10 900.40 673.53 904.91 678.03 906.99 C 687.91 911.85 699.48 912.35 710.18 910.41 C 710.66 906.03 711.17 901.65 711.81 897.30 C 707.99 899.86 703.83 902.63 699.00 902.28 C 688.76 901.64 678.69 899.21 668.90 896.23 M 519.03 897.32 C 518.74 900.97 518.45 904.63 518.06 908.28 C 522.09 910.56 526.41 912.44 531.06 912.93 C 540.15 913.99 549.34 914.14 558.48 913.67 C 558.71 910.85 558.94 908.04 559.19 905.23 C 551.44 906.20 543.31 907.68 535.69 905.26 C 530.01 902.86 525.22 898.56 519.03 897.32 M 675.20 909.88 C 675.53 915.00 674.92 920.12 673.96 925.15 C 677.44 923.50 681.11 921.61 685.11 922.17 C 690.76 922.96 695.58 926.56 699.34 930.68 C 702.68 934.39 707.84 937.18 712.93 935.78 C 715.12 935.29 717.08 933.34 716.76 930.98 C 716.05 924.98 714.70 919.03 711.75 913.70 C 699.75 917.10 686.22 915.76 675.20 909.88 M 513.13 926.04 C 513.24 928.75 515.78 931.87 518.74 930.87 C 524.73 929.53 528.94 924.64 534.47 922.34 C 540.53 919.99 546.80 922.73 552.75 924.08 C 552.83 922.07 552.91 920.08 553.00 918.09 C 542.02 918.01 530.30 918.87 520.30 913.47 C 516.87 916.93 514.04 921.19 513.13 926.04 M 533.80 925.86 C 528.66 928.73 524.12 933.34 517.98 933.88 C 514.54 934.36 512.60 931.08 510.67 928.87 C 508.29 933.48 505.50 938.08 501.15 941.09 C 494.51 945.75 487.21 949.34 479.94 952.90 C 476.16 954.88 472.16 956.98 469.64 960.55 C 468.12 962.35 469.37 964.79 470.50 966.46 C 473.38 970.42 478.36 971.93 482.87 973.22 C 489.75 975.19 496.86 973.18 503.81 972.77 C 517.21 971.32 530.75 972.72 544.13 971.20 C 550.23 970.74 555.87 966.61 557.77 960.74 C 559.84 954.92 557.37 948.93 555.70 943.36 C 553.83 937.99 553.04 932.35 552.62 926.71 C 546.41 926.28 539.75 922.51 533.80 925.86 M 673.38 929.47 C 671.08 933.77 669.95 938.61 668.26 943.18 C 666.04 949.46 665.36 956.94 669.21 962.75 C 671.55 966.22 676.20 966.32 679.97 966.24 C 686.59 965.88 693.26 965.49 699.84 966.57 C 713.20 968.63 726.33 972.84 739.98 972.50 C 747.10 972.26 754.33 969.51 759.33 964.34 C 760.16 963.07 762.20 961.00 760.06 959.98 C 753.83 955.45 746.22 953.30 739.62 949.35 C 731.44 945.01 725.24 937.77 720.65 929.86 C 720.02 932.73 719.86 936.26 717.04 937.96 C 711.31 941.70 703.36 939.85 698.51 935.45 C 694.23 931.61 690.14 926.53 684.03 925.89 C 680.26 926.00 676.43 927.26 673.38 929.47 Z" />
<path fill="#020202" opacity="1.00" d=" M 561.96 158.52 C 563.94 161.10 565.75 163.82 567.32 166.67 C 571.25 173.75 575.56 180.63 578.99 187.98 C 582.36 195.14 582.33 203.27 581.89 211.00 C 581.41 217.60 581.63 224.30 579.96 230.75 C 576.28 218.31 581.01 205.02 577.37 192.54 C 573.47 180.66 565.32 170.61 561.96 158.52 Z" />
</g>
<g id="#f0b58bff">
<path fill="#f0b58b" opacity="1.00" d=" M 582.96 90.99 C 581.78 88.69 584.16 86.82 586.10 86.12 C 590.21 84.55 595.85 86.70 596.87 91.24 C 599.90 102.01 599.25 113.72 604.10 124.00 C 605.82 127.79 609.50 131.20 613.94 130.75 C 618.78 130.42 621.78 126.12 625.30 123.34 C 628.70 120.21 633.43 119.08 637.95 119.12 C 644.35 119.20 650.87 119.51 657.13 117.86 C 657.07 125.71 659.73 133.17 662.28 140.49 C 652.81 141.14 643.55 143.48 634.05 143.80 C 624.84 144.08 615.63 144.68 606.40 144.65 C 607.03 140.27 607.43 135.51 605.53 131.38 C 605.11 131.05 604.27 130.41 603.84 130.08 C 603.32 132.37 603.24 134.72 603.07 137.05 C 601.03 135.38 599.08 133.49 598.11 130.99 C 595.35 124.63 594.01 117.79 591.64 111.30 C 595.54 110.10 597.73 106.19 597.44 102.22 C 595.49 103.67 593.68 105.28 591.86 106.86 C 588.40 101.88 585.07 96.70 582.96 90.99 Z" />
<path fill="#f0b58b" opacity="1.00" d=" M 206.31 104.05 C 213.51 104.74 221.30 104.36 227.67 108.36 C 234.35 112.28 240.82 116.57 247.37 120.70 C 251.13 123.13 255.07 125.58 257.60 129.39 C 261.49 135.19 266.24 140.42 271.88 144.56 C 263.42 149.85 259.87 160.24 260.41 169.83 C 251.70 169.67 241.84 169.18 235.10 162.94 C 229.82 157.54 225.59 150.71 218.45 147.51 C 212.57 144.23 205.15 144.58 199.81 140.24 C 208.49 140.71 217.00 142.91 225.68 143.08 C 223.94 139.66 219.84 139.41 216.54 138.66 C 209.12 137.59 201.51 137.46 194.32 135.15 C 198.51 132.76 203.04 130.49 208.01 130.69 C 213.98 130.37 219.64 132.87 225.57 132.94 C 227.41 130.61 224.51 129.87 222.81 129.14 C 213.77 125.68 203.95 124.08 195.55 119.05 C 201.34 118.41 207.17 118.59 212.97 118.63 C 217.22 118.64 221.35 119.95 224.98 122.13 C 228.31 123.77 231.46 126.35 235.34 126.34 C 234.19 121.49 229.79 118.01 226.03 115.01 C 219.50 111.28 212.17 108.92 206.31 104.05 Z" />
<path fill="#f0b58b" opacity="1.00" d=" M 749.62 487.19 C 758.47 491.36 768.70 493.03 778.27 490.45 C 773.73 500.70 774.91 512.12 775.25 523.00 C 775.53 534.28 771.13 545.04 765.80 554.76 C 763.04 559.00 759.75 564.71 753.93 564.36 C 747.76 564.83 741.61 565.88 735.41 565.56 C 741.30 561.90 748.20 560.42 754.28 557.16 C 757.74 555.28 758.52 551.07 759.34 547.56 C 760.09 543.56 761.32 539.27 759.82 535.29 C 757.69 529.76 751.68 527.06 749.35 521.66 C 746.67 515.76 747.64 509.11 746.49 502.89 C 742.72 510.91 743.62 521.25 749.06 528.34 C 747.34 535.27 747.17 542.82 743.42 549.07 C 740.85 544.42 742.37 538.98 741.76 533.96 C 741.17 524.93 737.73 516.18 738.53 507.06 C 739.49 499.19 745.82 493.73 749.62 487.19 Z" />
<path fill="#f0b58b" opacity="1.00" d=" M 675.20 909.88 C 686.22 915.76 699.75 917.10 711.75 913.70 C 714.70 919.03 716.05 924.98 716.76 930.98 C 717.08 933.34 715.12 935.29 712.93 935.78 C 707.84 937.18 702.68 934.39 699.34 930.68 C 695.58 926.56 690.76 922.96 685.11 922.17 C 681.11 921.61 677.44 923.50 673.96 925.15 C 674.92 920.12 675.53 915.00 675.20 909.88 Z" />
<path fill="#f0b58b" opacity="1.00" d=" M 513.13 926.04 C 514.04 921.19 516.87 916.93 520.30 913.47 C 530.30 918.87 542.02 918.01 553.00 918.09 C 552.91 920.08 552.83 922.07 552.75 924.08 C 546.80 922.73 540.53 919.99 534.47 922.34 C 528.94 924.64 524.73 929.53 518.74 930.87 C 515.78 931.87 513.24 928.75 513.13 926.04 Z" />
</g>
<g id="#006330ff">
<path fill="var(--shirt-color, grey)" opacity="1.00" d=" M 643.95 147.45 C 651.95 146.40 659.97 144.59 668.08 145.39 C 684.22 147.38 699.33 153.73 714.33 159.66 C 723.82 163.28 733.66 165.82 743.43 168.54 C 746.79 169.49 750.42 170.52 752.66 173.41 C 758.47 180.20 761.56 188.73 765.23 196.75 C 773.76 215.82 779.18 236.06 784.90 256.09 C 787.95 267.45 791.13 278.79 793.57 290.31 C 796.02 303.50 797.96 316.79 799.92 330.06 C 801.01 336.75 800.64 343.59 801.89 350.26 C 802.42 353.12 802.84 356.05 802.49 358.97 C 801.26 369.40 798.68 379.60 796.75 389.91 C 795.14 398.31 792.68 406.54 791.48 415.01 C 790.67 420.58 790.88 426.22 790.78 431.83 C 788.04 421.14 785.78 410.11 780.81 400.19 C 780.81 406.87 783.15 413.16 784.52 419.62 C 786.60 428.73 788.32 437.95 791.22 446.86 C 792.97 452.24 793.22 458.21 791.44 463.60 C 789.86 465.82 787.12 466.76 784.69 467.73 C 774.89 471.06 764.24 471.32 754.08 469.82 C 750.23 469.36 746.91 467.27 743.97 464.90 C 746.10 454.88 746.31 444.64 746.59 434.45 C 748.04 411.29 752.20 388.28 751.74 365.01 C 751.69 361.42 751.18 357.86 750.58 354.33 C 751.05 353.68 751.54 353.04 752.04 352.41 C 752.40 355.99 753.05 359.55 753.86 363.06 C 755.30 369.03 755.49 375.21 756.72 381.22 C 758.16 371.77 756.51 362.12 754.03 352.99 C 751.96 345.25 746.76 338.65 745.47 330.67 C 745.07 325.36 745.29 319.99 745.90 314.71 C 747.26 305.62 756.18 300.29 758.53 291.60 C 759.02 289.64 759.27 287.63 759.53 285.63 C 757.23 289.65 755.50 294.01 752.71 297.73 C 750.36 300.87 748.05 304.03 745.88 307.29 C 746.42 299.49 747.43 291.73 748.90 284.05 C 749.47 280.72 750.55 277.03 748.52 273.96 C 744.29 286.54 742.21 299.81 741.75 313.06 C 741.28 322.36 741.75 331.89 738.94 340.90 C 736.68 348.10 733.93 355.13 731.13 362.14 C 725.25 377.42 723.78 394.28 726.99 410.34 C 719.40 393.71 708.60 378.30 704.72 360.17 C 702.74 352.28 702.27 344.10 700.18 336.24 C 698.46 354.96 704.11 373.65 713.06 389.96 C 719.07 401.93 727.53 413.32 728.92 427.03 C 729.37 431.99 729.54 437.49 726.85 441.89 C 723.82 445.00 719.46 446.30 715.42 447.53 C 699.80 451.56 683.45 449.68 667.75 447.21 C 651.74 444.20 635.76 441.05 619.96 437.09 C 608.43 434.42 596.49 433.96 584.71 434.69 C 576.14 434.81 567.63 436.49 559.05 435.77 C 557.40 428.96 557.00 421.91 557.19 414.93 C 557.40 408.16 560.47 401.84 560.60 395.06 C 560.79 385.30 559.22 375.62 557.95 365.98 C 557.59 362.38 557.12 358.62 558.19 355.10 C 559.06 353.30 560.46 351.83 561.70 350.29 C 566.14 355.83 571.39 360.61 576.54 365.48 C 580.82 369.66 584.24 374.61 588.51 378.81 C 586.25 372.52 581.65 367.57 577.54 362.46 C 572.44 356.20 565.96 350.83 562.75 343.25 C 559.30 335.23 556.81 326.75 556.02 318.04 C 554.98 307.27 553.17 296.59 550.96 286.00 C 555.52 288.96 560.79 291.44 563.74 296.23 C 566.34 300.58 567.65 305.55 570.03 310.02 C 569.84 304.01 568.22 298.05 565.22 292.85 C 561.71 286.93 554.25 285.27 550.23 279.83 C 545.96 274.22 542.44 268.07 538.28 262.37 C 548.41 266.91 558.77 270.91 569.17 274.78 C 571.51 275.73 574.05 275.76 576.52 275.39 C 568.80 271.07 560.32 268.39 552.26 264.83 C 536.41 257.83 520.58 250.75 504.34 244.69 C 485.90 237.70 468.94 227.51 451.37 218.69 C 446.18 216.25 440.95 213.38 435.04 213.42 C 439.53 217.11 445.15 218.86 450.08 221.82 C 457.26 226.00 464.47 230.14 471.88 233.91 C 452.69 231.01 433.39 235.76 414.18 233.42 C 401.71 231.63 389.66 227.38 378.64 221.30 C 371.54 217.87 364.88 213.00 356.89 211.88 C 364.01 217.58 372.41 221.38 380.41 225.66 C 371.27 226.13 361.88 227.82 352.89 225.19 C 341.17 221.98 330.59 215.73 319.97 209.99 C 310.59 205.09 302.32 198.44 293.81 192.24 C 288.02 188.02 281.98 184.13 276.27 179.80 C 271.04 176.12 270.99 168.78 272.28 163.15 C 273.42 159.07 275.16 154.31 279.30 152.45 C 284.84 151.02 290.29 153.73 295.31 155.76 C 308.20 161.02 319.87 170.02 334.12 171.33 C 350.37 172.75 366.91 173.91 382.33 179.68 C 381.62 180.97 380.93 182.25 380.24 183.54 C 389.43 181.26 398.39 177.57 407.97 177.33 C 420.89 176.48 433.11 182.30 446.00 181.85 C 454.82 181.90 463.45 179.95 471.99 177.99 C 484.19 175.68 496.64 174.75 509.05 174.73 C 514.01 174.63 519.05 174.89 523.93 173.81 C 528.58 172.77 532.42 169.79 536.46 167.42 C 544.31 162.55 552.81 158.84 561.30 155.24 C 568.69 152.26 576.04 148.81 584.03 147.84 C 593.01 146.43 602.05 147.89 611.05 148.24 C 622.01 148.71 633.05 148.97 643.95 147.45 M 561.96 158.52 C 565.32 170.61 573.47 180.66 577.37 192.54 C 581.01 205.02 576.28 218.31 579.96 230.75 C 581.63 224.30 581.41 217.60 581.89 211.00 C 582.33 203.27 582.36 195.14 578.99 187.98 C 575.56 180.63 571.25 173.75 567.32 166.67 C 565.75 163.82 563.94 161.10 561.96 158.52 Z" />
<path fill="var(--pants-color, grey)" opacity="1.00" d=" M 561.55 439.22 C 576.99 438.72 592.50 436.49 607.93 438.51 C 617.38 439.43 626.39 442.60 635.68 444.41 C 655.54 448.54 675.50 453.56 695.94 453.19 C 705.56 453.08 715.26 451.53 724.07 447.52 C 726.22 475.32 723.61 503.17 723.15 530.98 C 722.61 548.66 723.00 566.34 723.04 584.02 C 723.56 603.03 724.86 622.27 721.10 641.06 C 717.91 659.12 711.98 676.53 708.27 694.48 C 706.15 676.82 707.92 658.93 711.50 641.58 C 713.04 632.81 715.48 624.18 716.19 615.28 C 713.03 621.46 711.80 628.34 710.17 635.02 C 705.70 654.95 702.40 675.55 704.96 695.99 C 705.54 701.21 707.24 706.19 708.84 711.17 C 710.61 716.69 711.59 722.42 712.93 728.06 C 718.02 748.59 721.47 769.77 720.29 790.99 C 720.15 801.11 717.35 810.91 716.11 820.91 C 714.10 835.57 710.81 850.13 710.79 865.00 C 710.72 874.33 712.13 883.60 712.16 892.95 C 708.47 895.45 704.80 898.75 700.11 898.92 C 694.11 899.06 688.24 897.57 682.38 896.55 C 677.95 895.59 673.39 895.08 669.10 893.58 C 667.45 893.29 667.30 891.40 666.78 890.16 C 662.35 874.90 663.00 858.81 659.56 843.36 C 656.78 824.67 656.22 805.74 654.84 786.92 C 653.19 771.79 651.61 756.65 649.64 741.55 C 648.07 730.23 647.58 718.79 646.34 707.43 C 645.26 694.61 642.98 681.90 642.46 669.03 C 640.85 650.41 640.94 631.70 639.90 613.04 C 639.16 596.43 638.78 579.74 636.04 563.31 C 641.98 557.83 648.49 552.88 653.37 546.37 C 656.82 541.58 661.69 537.36 662.64 531.24 C 655.79 536.86 650.80 544.34 644.35 550.37 C 638.42 556.08 631.08 560.71 627.17 568.18 C 624.02 574.42 621.85 581.16 620.74 588.07 C 617.65 609.87 614.43 631.71 609.24 653.13 C 602.82 681.59 595.18 709.75 588.03 738.03 C 586.03 745.34 581.26 751.40 578.30 758.30 C 575.27 764.87 574.18 772.09 573.16 779.19 C 572.60 782.90 572.78 786.67 573.29 790.38 C 574.96 783.75 575.27 776.85 577.30 770.31 C 579.38 762.72 583.06 755.73 586.77 748.85 C 586.02 757.58 585.60 766.34 584.68 775.06 C 583.20 793.14 577.93 810.60 572.93 827.95 C 566.05 851.71 562.21 876.24 559.58 900.80 C 552.28 901.16 544.87 902.76 537.61 901.34 C 531.49 899.29 526.18 894.84 519.43 894.84 C 519.66 884.87 517.70 874.97 514.47 865.57 C 511.80 858.05 511.33 849.98 511.44 842.07 C 511.89 824.65 514.52 807.36 514.83 789.94 C 514.98 778.72 510.44 768.13 510.01 756.97 C 509.05 740.33 513.07 723.95 516.72 707.84 C 519.26 696.03 521.25 684.07 521.93 671.99 C 523.03 659.69 523.94 647.36 523.97 635.00 C 525.24 613.65 521.98 592.35 522.97 570.99 C 523.30 563.58 526.17 556.62 528.69 549.74 C 532.92 538.54 538.68 527.83 541.10 516.02 C 542.34 510.33 543.62 504.55 546.50 499.42 C 548.07 496.61 549.36 493.65 550.35 490.58 C 547.49 492.24 544.84 494.37 543.26 497.34 C 537.63 506.11 537.27 516.86 533.50 526.37 C 530.31 534.59 527.13 542.82 524.00 551.07 C 525.15 529.44 529.90 508.16 536.60 487.61 C 540.51 475.72 546.46 464.63 553.09 454.05 C 556.12 449.23 559.00 444.31 561.55 439.22 Z" />
</g>
<g id="#4d4d4dff">
<path fill="#4d4d4d" opacity="1.00" d=" M 273.43 148.39 C 276.30 146.49 279.69 147.89 282.65 148.75 C 279.45 149.95 275.50 150.36 273.39 153.38 C 268.20 160.00 267.45 168.96 269.49 176.91 C 267.05 175.30 264.23 173.40 264.25 170.11 C 263.57 162.15 266.10 152.64 273.43 148.39 Z" />
<path fill="#4d4d4d" opacity="1.00" d=" M 743.39 468.97 C 750.90 474.00 760.25 474.50 769.00 474.23 C 776.85 473.88 784.71 472.25 791.68 468.53 C 789.57 476.88 783.44 484.63 774.77 486.61 C 768.30 487.73 761.49 487.50 755.16 485.75 C 748.28 483.03 744.78 475.83 743.39 468.97 Z" />
<path fill="#4d4d4d" opacity="1.00" d=" M 668.90 896.23 C 678.69 899.21 688.76 901.64 699.00 902.28 C 703.83 902.63 707.99 899.86 711.81 897.30 C 711.17 901.65 710.66 906.03 710.18 910.41 C 699.48 912.35 687.91 911.85 678.03 906.99 C 673.53 904.91 671.10 900.40 668.90 896.23 Z" />
<path fill="#4d4d4d" opacity="1.00" d=" M 519.03 897.32 C 525.22 898.56 530.01 902.86 535.69 905.26 C 543.31 907.68 551.44 906.20 559.19 905.23 C 558.94 908.04 558.71 910.85 558.48 913.67 C 549.34 914.14 540.15 913.99 531.06 912.93 C 526.41 912.44 522.09 910.56 518.06 908.28 C 518.45 904.63 518.74 900.97 519.03 897.32 Z" />
<path fill="#4d4d4d" opacity="1.00" d=" M 533.80 925.86 C 539.75 922.51 546.41 926.28 552.62 926.71 C 553.04 932.35 553.83 937.99 555.70 943.36 C 557.37 948.93 559.84 954.92 557.77 960.74 C 555.87 966.61 550.23 970.74 544.13 971.20 C 530.75 972.72 517.21 971.32 503.81 972.77 C 496.86 973.18 489.75 975.19 482.87 973.22 C 478.36 971.93 473.38 970.42 470.50 966.46 C 469.37 964.79 468.12 962.35 469.64 960.55 C 472.16 956.98 476.16 954.88 479.94 952.90 C 487.21 949.34 494.51 945.75 501.15 941.09 C 505.50 938.08 508.29 933.48 510.67 928.87 C 512.60 931.08 514.54 934.36 517.98 933.88 C 524.12 933.34 528.66 928.73 533.80 925.86 Z" />
<path fill="#4d4d4d" opacity="1.00" d=" M 673.38 929.47 C 676.43 927.26 680.26 926.00 684.03 925.89 C 690.14 926.53 694.23 931.61 698.51 935.45 C 703.36 939.85 711.31 941.70 717.04 937.96 C 719.86 936.26 720.02 932.73 720.65 929.86 C 725.24 937.77 731.44 945.01 739.62 949.35 C 746.22 953.30 753.83 955.45 760.06 959.98 C 762.20 961.00 760.16 963.07 759.33 964.34 C 754.33 969.51 747.10 972.26 739.98 972.50 C 726.33 972.84 713.20 968.63 699.84 966.57 C 693.26 965.49 686.59 965.88 679.97 966.24 C 676.20 966.32 671.55 966.22 669.21 962.75 C 665.36 956.94 666.04 949.46 668.26 943.18 C 669.95 938.61 671.08 933.77 673.38 929.47 Z" />
</g>
</svg>
