<svg xmlns="http://www.w3.org/2000/svg" viewBox="0 0 31 31" enable-background="new 0 0 31 31" width="31" height="31">
 <circle fill="#ec2227" cx="25.6" cy="5.4" r="5"/>
 <path fill="#ed606a" d="m28.3 9l-2.6-3.6-1.3 4.2c-.1-.1 1.3.6 3.9-.6"/>
 <path fill="#8d1b1f" d="m29.6 7.3l-3.9-2.1-3.2 3.2c0 0-2.8-3-.1-6.2s6.6 0 7 .8.7 3.4.2 4.3"/>
 <circle fill="#ec2227" cx="5.4" cy="25.6" r="5"/>
 <path fill="#ed606a" d="m8.1 29.3l-2.8-3.6-1.3 4.2c.1 0 1.4.6 4.1-.6"/>
 <path fill="#8d1b1f" d="m9.3 27.6l-3.9-2.1-3.3 3.3c0 0-2.8-3-.1-6.2s6.7-.1 7.1.7c.4.9.8 3.4.2 4.3"/>
 <rect x="14.6" y="-4.6" transform="matrix(-.7071-.7071.7071-.7071 15.309 37.2)" fill="#191314" width="1.5" height="40"/>
</svg>
