<svg xmlns="http://www.w3.org/2000/svg" viewBox="0 0 31 31" enable-background="new 0 0 31 31" width="31" height="31">
 <circle fill="#ec2227" cx="5.4" cy="5.4" r="5"/>
 <path fill="#ed606a" d="m6.7 9.5l-1.3-4.1-2.7 3.6c2.6 1.2 4 .5 4 .5"/>
 <path fill="#8d1b1f" d="m1.5 3.1c.4-.8 4.2-4 7-.8s0 6.2 0 6.2l-3.2-3.2-3.9 2c-.5-.9-.2-3.4.1-4.2"/>
 <circle fill="#ec2227" cx="25.6" cy="25.6" r="5"/>
 <path fill="#ed606a" d="m26.9 29.9l-1.3-4.2-2.8 3.6c2.8 1.2 4.1.6 4.1.6"/>
 <path fill="#8d1b1f" d="m21.8 23.4c.4-.8 4.3-3.9 7.1-.7s-.1 6.2-.1 6.2l-3.3-3.3-3.9 2.1c-.5-1-.1-3.5.2-4.3"/>
 <rect x="14.9" y="-4.6" transform="matrix(.7071-.7071.7071.7071-6.329 15.579)" fill="#191314" width="1.5" height="40"/>
</svg>
