<?xml version="1.0" encoding="UTF-8" ?>
<!DOCTYPE svg PUBLIC "-//W3C//DTD SVG 1.1//EN" "http://www.w3.org/Graphics/SVG/1.1/DTD/svg11.dtd">
<svg width="500pt" height="1500pt" viewBox="510 0 500 1500" version="1.1" xmlns="http://www.w3.org/2000/svg">
<g id="#000000ff">
<path fill="#000000" opacity="1.00" d=" M 739.65 46.54 C 748.30 37.58 759.43 30.41 771.94 28.56 C 785.72 26.26 800.06 31.40 810.30 40.68 C 822.10 51.32 829.60 65.92 834.39 80.88 C 837.89 90.90 840.28 101.35 840.99 111.96 C 841.78 131.43 840.14 151.07 835.20 169.95 C 832.62 179.42 831.25 189.18 828.36 198.56 C 825.27 210.61 822.00 222.63 820.06 234.93 C 819.02 241.30 818.26 247.71 817.14 254.06 C 814.73 265.22 813.56 276.78 814.78 288.17 C 813.13 288.18 811.49 288.25 809.87 288.37 C 804.42 288.27 798.96 287.99 793.51 288.34 C 794.79 275.86 795.25 263.33 795.88 250.81 C 797.16 223.77 807.90 198.46 812.25 171.94 C 816.07 153.54 820.14 134.83 818.53 115.91 C 817.35 101.67 813.94 87.61 808.59 74.37 C 804.70 64.87 799.03 55.38 789.95 50.06 C 783.41 46.18 774.94 46.52 768.54 50.51 C 757.86 56.89 751.11 67.96 746.09 79.02 C 737.59 98.46 733.59 119.84 734.03 141.03 C 735.39 161.07 738.29 181.01 742.29 200.70 C 744.69 213.72 747.23 226.77 747.96 240.01 C 748.22 245.36 748.08 250.71 748.36 256.06 C 749.03 266.33 748.15 276.62 748.72 286.90 C 738.80 286.13 728.84 286.14 718.91 285.91 C 721.48 285.78 724.05 285.81 726.64 285.87 C 728.98 271.35 727.51 256.65 726.34 242.11 C 724.86 225.60 722.11 209.26 719.50 192.91 C 716.76 173.63 711.22 154.59 712.00 134.96 C 712.75 121.90 712.73 108.71 715.50 95.86 C 719.25 77.79 726.81 60.05 739.65 46.54 Z" />
<path fill="#000000" opacity="1.00" d=" M 867.20 785.03 C 874.05 782.91 881.17 781.75 887.92 779.34 C 887.71 788.59 886.22 797.76 885.52 806.98 C 878.88 873.35 872.20 939.71 865.03 1006.02 C 864.23 1015.01 862.48 1023.94 862.58 1032.99 C 860.14 1135.22 857.86 1237.45 855.45 1339.68 C 855.03 1350.22 855.09 1360.77 854.47 1371.31 C 847.73 1371.24 841.00 1371.54 834.27 1371.63 C 836.32 1273.08 838.88 1174.54 841.45 1076.00 C 841.95 1062.65 842.20 1049.31 842.84 1035.97 C 842.95 1025.86 845.48 1015.99 846.12 1005.93 C 852.48 932.70 859.74 859.56 866.61 786.38 C 866.27 785.95 865.60 785.08 865.26 784.65 C 865.90 784.26 866.55 783.88 867.23 783.53 L 867.20 785.03 Z" />
<path fill="#000000" opacity="1.00" d=" M 794.01 803.34 C 801.01 802.11 808.00 800.35 814.71 798.00 C 814.81 848.66 814.56 899.33 814.55 950.00 C 814.19 982.34 814.10 1014.68 814.12 1047.03 C 813.40 1164.56 813.97 1282.11 813.04 1399.65 C 806.18 1399.61 799.35 1399.97 792.51 1400.24 C 792.89 1290.84 792.89 1181.44 792.91 1072.03 C 793.05 1021.33 793.45 970.61 793.41 919.90 C 793.40 881.05 793.59 842.19 794.01 803.34 Z" />
<path fill="#000000" opacity="1.00" d=" M 717.22 823.05 C 724.18 821.79 731.06 819.91 737.81 817.82 C 738.50 830.19 738.01 842.61 738.29 855.01 C 738.70 913.34 738.50 971.67 738.81 1030.00 C 739.39 1140.00 738.90 1250.01 739.28 1360.01 C 739.40 1387.30 739.22 1414.60 739.60 1441.90 C 732.76 1442.53 725.88 1442.13 719.04 1442.64 C 718.57 1418.09 718.90 1393.51 718.64 1368.95 C 718.06 1283.30 718.66 1197.64 717.88 1112.00 C 717.91 1061.01 717.91 1010.01 717.43 959.02 C 717.40 913.70 717.24 868.37 717.22 823.05 Z" />
<path fill="#000000" opacity="1.00" d=" M 628.01 845.79 C 634.93 844.68 641.83 842.91 648.43 840.52 C 650.63 867.65 653.67 894.74 656.15 921.86 C 661.54 978.20 666.96 1034.54 671.98 1090.92 C 673.02 1100.96 673.35 1111.08 675.13 1121.04 C 676.91 1132.28 676.91 1143.67 677.34 1155.02 C 678.98 1205.71 680.09 1256.42 681.37 1307.12 C 682.69 1362.66 684.26 1418.20 685.20 1473.75 C 678.42 1473.97 671.64 1473.79 664.87 1473.82 C 662.06 1358.53 659.54 1243.24 656.78 1127.95 C 651.03 1076.67 645.89 1025.31 640.60 973.98 C 636.30 931.26 631.94 888.54 628.01 845.79 Z" />
</g>
<g id="#d24a45ff">
<path fill="var(--color, grey)" opacity="1.00" d=" M 715.25 288.27 C 715.92 286.83 717.30 285.94 718.91 285.91 C 728.84 286.14 738.80 286.13 748.72 286.90 C 751.45 287.29 754.22 287.44 756.99 287.43 C 769.17 287.51 781.34 288.49 793.51 288.34 C 798.96 287.99 804.42 288.27 809.87 288.37 C 814.40 289.09 819.03 288.94 823.56 289.66 C 825.29 289.96 826.17 291.60 826.96 293.00 C 829.96 298.63 833.20 304.13 836.19 309.78 C 846.44 310.67 856.79 309.97 867.01 311.31 C 873.12 312.33 879.64 313.25 884.64 317.27 C 900.60 329.54 910.79 348.34 914.61 367.93 C 917.33 380.51 915.13 393.37 914.71 406.06 C 909.41 501.71 904.21 597.36 898.64 692.99 C 897.24 716.62 895.95 740.26 894.18 763.87 C 893.75 768.16 893.59 772.52 892.58 776.74 C 891.28 777.97 889.48 778.52 887.92 779.34 C 881.17 781.75 874.05 782.91 867.20 785.03 L 867.23 783.53 C 866.55 783.88 865.90 784.26 865.26 784.65 L 864.92 784.86 C 852.15 787.63 839.60 791.31 826.92 794.45 C 822.85 795.64 818.59 796.24 814.71 798.00 C 808.00 800.35 801.01 802.11 794.01 803.34 C 782.84 805.37 771.96 808.89 760.91 811.50 C 753.24 813.70 745.29 815.01 737.81 817.82 C 731.06 819.91 724.18 821.79 717.22 823.05 C 707.69 824.70 698.44 827.75 689.02 829.94 C 675.52 833.56 661.83 836.56 648.43 840.52 C 641.83 842.91 634.93 844.68 628.01 845.79 C 625.59 845.70 622.53 847.61 620.69 845.33 C 619.02 843.69 619.50 841.14 619.26 839.05 C 615.96 755.38 613.31 671.69 610.29 588.01 C 608.29 523.35 605.76 458.71 604.54 394.03 C 604.73 374.25 610.14 354.10 621.92 338.01 C 630.59 326.07 643.77 318.10 657.70 313.76 C 672.98 309.26 689.17 311.38 704.70 308.48 C 708.21 301.74 711.35 294.80 715.25 288.27 M 856.45 370.57 C 854.45 371.28 853.52 374.25 855.29 375.68 C 856.90 377.61 860.29 376.17 860.60 373.84 C 861.15 371.58 858.51 369.55 856.45 370.57 M 868.38 370.46 C 866.36 371.99 867.15 375.91 869.93 375.90 C 872.52 376.27 874.22 373.12 873.06 370.98 C 871.87 369.65 869.75 369.05 868.38 370.46 M 880.27 370.27 C 878.08 372.11 880.17 376.39 883.01 375.83 C 884.87 375.89 886.01 373.79 885.63 372.13 C 885.41 369.73 881.86 368.33 880.27 370.27 M 828.08 374.04 C 827.88 376.39 830.83 378.20 832.77 376.78 C 834.71 375.75 834.18 373.27 833.30 371.70 C 832.71 371.44 831.52 370.92 830.92 370.67 C 829.50 371.27 827.80 372.18 828.08 374.04 M 844.42 371.39 C 842.28 372.00 841.46 375.31 843.26 376.73 C 845.16 378.81 848.92 376.61 848.40 373.98 C 848.49 371.99 846.15 370.75 844.42 371.39 M 770.33 372.55 C 768.93 373.29 768.26 375.39 769.34 376.73 C 770.49 378.98 774.41 378.46 774.75 375.91 C 775.65 373.28 772.57 371.22 770.33 372.55 M 784.39 372.49 C 783.20 373.07 782.92 374.72 783.21 375.90 C 783.63 378.75 788.41 378.57 789.11 375.93 C 790.40 373.22 786.56 370.48 784.39 372.49 M 755.40 373.78 C 752.31 375.82 755.64 381.05 758.79 378.73 C 762.23 376.79 758.63 371.30 755.40 373.78 M 711.29 376.38 C 708.34 378.74 712.08 383.41 715.19 381.38 C 718.82 379.10 714.37 373.47 711.29 376.38 M 681.44 377.63 C 678.13 379.56 681.73 385.43 684.97 382.95 C 688.37 380.87 684.73 375.43 681.44 377.63 M 697.28 377.37 C 695.31 378.88 696.50 382.66 699.06 382.56 C 701.46 383.06 703.53 380.24 702.29 378.12 C 701.39 376.29 698.66 375.98 697.28 377.37 M 667.37 378.37 C 663.41 379.54 666.25 385.99 669.82 383.82 C 673.22 382.36 670.75 376.90 667.37 378.37 M 817.41 384.53 C 814.50 386.68 817.49 391.40 820.71 389.63 C 824.32 387.75 820.85 382.06 817.41 384.53 M 738.26 386.39 C 735.09 388.69 738.91 393.72 742.10 391.21 C 745.67 388.90 741.40 383.60 738.26 386.39 M 880.39 391.51 C 877.31 393.57 880.24 398.69 883.67 396.66 C 887.52 394.77 883.78 388.63 880.39 391.51 M 842.42 392.41 C 840.92 392.73 839.95 394.47 840.40 395.93 C 840.70 398.48 844.68 399.13 845.86 396.83 C 847.47 394.66 844.89 391.46 842.42 392.41 M 868.24 392.30 C 864.94 393.89 867.49 399.29 870.89 397.68 C 874.73 396.32 871.66 389.99 868.24 392.30 M 829.51 393.69 C 825.71 394.79 827.88 400.93 831.56 399.38 C 835.23 398.18 833.08 392.28 829.51 393.69 M 855.21 393.09 C 851.97 395.32 855.74 400.54 858.95 398.09 C 862.51 395.87 858.33 390.50 855.21 393.09 M 784.38 395.52 C 782.65 396.73 782.74 400.31 785.03 400.90 C 786.84 402.01 789.41 400.01 789.25 398.00 C 789.61 395.55 786.15 393.75 784.38 395.52 M 768.33 399.93 C 768.98 403.00 774.80 402.38 774.41 399.01 C 774.79 396.93 772.43 396.19 770.99 395.53 C 769.23 396.21 767.46 397.85 768.33 399.93 M 756.13 397.11 C 754.25 397.76 753.66 400.54 755.13 401.89 C 756.46 403.46 759.52 402.99 760.15 400.94 C 761.31 398.61 758.36 395.81 756.13 397.11 M 712.24 400.20 C 709.00 401.85 711.53 407.49 715.00 405.79 C 718.87 404.56 715.88 397.71 712.24 400.20 M 697.15 401.03 C 693.63 403.13 697.74 408.70 700.75 405.86 C 703.70 403.71 700.12 398.63 697.15 401.03 M 680.46 402.45 C 677.42 405.00 682.19 409.71 684.71 406.67 C 687.62 404.14 683.01 399.46 680.46 402.45 M 667.13 403.00 C 665.68 404.02 665.28 406.30 666.49 407.68 C 667.97 409.74 671.75 408.64 671.81 406.06 C 672.58 403.44 669.14 401.28 667.13 403.00 M 881.45 412.54 C 877.85 413.45 879.36 419.38 883.04 418.40 C 887.50 417.91 885.55 410.80 881.45 412.54 M 868.28 413.32 C 864.70 414.86 867.44 420.73 870.87 418.81 C 874.84 417.52 871.97 410.75 868.28 413.32 M 854.39 414.52 C 852.35 415.36 852.16 418.77 854.23 419.75 C 855.74 420.85 858.39 419.85 858.61 417.95 C 859.47 415.51 856.58 413.33 854.39 414.52 M 828.49 415.45 C 824.19 416.55 827.40 423.48 831.02 420.85 C 834.07 419.20 831.67 414.23 828.49 415.45 M 840.26 415.51 C 837.48 417.57 840.62 422.91 843.81 420.73 C 847.59 418.79 843.56 412.51 840.26 415.51 M 785.34 417.46 C 781.96 418.90 784.62 424.74 787.94 422.86 C 791.63 421.55 788.99 415.34 785.34 417.46 M 755.38 419.55 C 753.87 420.44 753.96 422.75 754.85 424.10 C 756.35 425.42 759.46 425.26 759.97 423.00 C 761.24 420.32 757.64 417.88 755.38 419.55 M 769.26 419.27 C 766.03 421.93 770.92 426.79 773.67 423.66 C 776.69 421.01 771.90 416.52 769.26 419.27 M 712.23 424.05 C 708.24 425.61 711.33 431.72 715.04 429.53 C 718.88 428.02 715.93 421.63 712.23 424.05 M 681.35 425.63 C 678.13 427.31 680.16 433.39 683.98 431.57 C 687.72 430.13 685.35 423.26 681.35 425.63 M 695.30 425.51 C 694.04 426.49 694.00 428.78 695.24 429.83 C 696.83 431.59 700.14 430.48 700.35 428.08 C 700.86 425.43 697.15 423.48 695.30 425.51 M 666.61 427.66 C 665.61 429.18 665.94 432.30 668.12 432.64 C 669.89 433.29 672.15 431.97 671.93 429.94 C 672.69 426.92 668.27 425.10 666.61 427.66 M 880.27 435.28 C 877.12 437.60 880.96 442.48 884.10 440.27 C 887.69 438.00 883.32 432.61 880.27 435.28 M 867.20 436.13 C 864.34 437.92 866.78 442.99 870.10 441.48 C 873.98 439.87 870.70 433.47 867.20 436.13 M 854.23 437.26 C 850.90 438.95 853.43 444.33 856.91 442.73 C 860.60 441.16 857.83 435.43 854.23 437.26 M 840.23 438.32 C 839.20 439.11 838.21 440.74 839.06 441.99 C 839.63 444.58 844.24 444.52 844.64 441.88 C 845.73 439.17 842.59 437.09 840.23 438.32 M 827.19 439.13 C 823.46 440.49 826.08 446.43 829.64 444.61 C 833.25 443.25 830.60 437.32 827.19 439.13 M 785.33 440.39 C 783.38 441.21 782.49 444.28 784.31 445.73 C 786.14 447.67 790.01 445.90 789.64 443.18 C 789.76 440.96 787.28 439.49 785.33 440.39 M 755.32 442.55 C 752.50 444.69 755.74 449.77 758.84 447.79 C 762.77 445.94 758.61 439.52 755.32 442.55 M 769.21 442.22 C 768.12 442.93 767.27 444.73 768.15 445.91 C 768.89 448.27 773.08 448.45 773.87 446.04 C 775.55 443.35 771.50 440.37 769.21 442.22 M 711.39 448.49 C 708.22 450.86 712.14 455.73 715.18 453.25 C 718.79 450.96 714.41 445.30 711.39 448.49 M 682.37 449.41 C 678.78 449.96 679.30 455.96 683.03 455.49 C 687.43 455.63 686.76 448.08 682.37 449.41 M 696.14 448.89 C 692.60 450.98 696.73 456.55 699.74 453.69 C 702.70 451.55 699.11 446.45 696.14 448.89 M 666.63 450.70 C 663.49 452.95 666.77 458.56 670.21 456.28 C 673.92 454.17 670.09 448.07 666.63 450.70 M 880.19 457.23 C 877.62 458.34 878.23 462.73 881.10 462.86 C 883.74 463.57 885.65 460.02 883.95 458.09 C 883.14 456.80 881.44 456.97 880.19 457.23 M 866.33 458.49 C 863.50 460.79 867.15 465.37 870.09 463.18 C 873.57 460.91 869.29 455.50 866.33 458.49 M 853.28 459.51 C 852.12 460.06 851.92 461.81 852.25 462.94 C 852.77 466.04 858.47 465.33 857.95 462.00 C 858.30 459.46 855.16 458.31 853.28 459.51 M 840.37 460.39 C 837.19 461.89 839.39 467.14 842.79 465.82 C 846.83 464.84 844.21 458.11 840.37 460.39 M 826.40 461.47 C 823.44 463.82 827.17 468.38 830.15 466.25 C 833.60 463.98 829.45 458.60 826.40 461.47 M 710.33 472.49 C 709.08 473.03 708.93 474.79 709.20 475.97 C 709.86 479.14 715.83 478.40 715.33 474.94 C 715.45 472.35 712.26 471.41 710.33 472.49 M 696.54 473.65 C 692.78 474.71 694.84 480.82 698.50 479.37 C 702.20 478.26 700.17 472.25 696.54 473.65 M 680.64 475.64 C 678.39 478.61 683.08 482.37 685.42 479.39 C 688.17 476.37 682.90 472.23 680.64 475.64 M 667.47 476.49 C 663.44 477.69 666.35 484.20 669.95 481.92 C 673.32 480.40 670.77 475.04 667.47 476.49 M 880.21 479.23 C 877.67 480.28 878.34 484.57 881.07 484.79 C 882.77 485.20 884.71 483.83 884.63 482.02 C 884.91 479.80 882.08 477.93 880.21 479.23 M 865.33 480.29 C 863.44 481.86 864.71 485.50 867.14 485.67 C 869.14 486.07 871.03 484.08 870.53 482.09 C 870.35 479.67 866.90 478.36 865.33 480.29 M 852.42 481.71 C 850.91 482.85 850.89 485.42 852.29 486.66 C 853.52 488.04 856.18 487.70 856.94 485.95 C 858.74 483.26 855.08 479.67 852.42 481.71 M 839.30 483.47 C 836.55 485.70 839.34 490.51 842.73 488.68 C 846.48 486.61 842.71 480.36 839.30 483.47 M 825.22 484.29 C 822.17 486.33 825.31 491.37 828.60 489.42 C 832.55 487.63 828.66 481.46 825.22 484.29 M 710.27 496.27 C 708.52 498.56 711.33 502.41 713.98 500.94 C 716.36 500.32 715.72 497.49 715.32 495.71 C 713.72 494.86 711.30 494.31 710.27 496.27 M 696.22 496.24 C 694.08 497.18 693.77 500.85 696.02 501.86 C 697.90 503.32 700.95 501.24 700.55 498.99 C 700.85 496.66 698.12 495.47 696.22 496.24 M 680.78 502.16 C 682.44 502.96 684.76 503.79 685.98 501.80 C 687.96 499.44 684.75 495.35 682.02 497.15 C 679.84 497.83 680.21 500.45 680.78 502.16 M 667.37 498.62 C 664.65 500.23 666.44 505.75 669.87 504.67 C 674.39 503.90 671.51 495.97 667.37 498.62 M 878.54 500.46 C 876.54 502.24 878.38 506.02 881.02 505.49 C 883.01 505.52 884.26 503.13 883.53 501.39 C 882.91 499.38 879.78 498.77 878.54 500.46 M 865.43 501.56 C 863.08 502.55 863.41 506.52 865.99 507.07 C 868.26 508.00 870.69 505.34 869.62 503.11 C 869.25 501.31 866.88 500.85 865.43 501.56 M 852.29 503.42 C 851.05 504.02 850.92 505.77 851.28 506.95 C 851.78 509.52 856.42 509.48 856.80 506.85 C 857.94 504.22 854.48 501.51 852.29 503.42 M 840.15 504.15 C 836.71 505.22 838.44 510.97 841.96 509.82 C 845.96 509.14 844.06 502.45 840.15 504.15 M 826.28 505.32 C 823.83 506.35 824.28 510.70 827.05 510.86 C 829.30 511.57 831.49 508.99 830.45 506.87 C 829.93 505.11 827.77 504.79 826.28 505.32 M 768.42 513.65 C 766.58 514.45 765.77 517.23 767.43 518.63 C 769.58 521.20 774.43 518.01 772.89 515.08 C 772.40 513.18 769.94 512.84 768.42 513.65 M 782.19 513.14 C 780.51 513.90 780.06 516.30 781.32 517.64 C 782.78 519.70 786.95 518.76 786.90 516.01 C 787.36 513.46 784.21 511.80 782.19 513.14 M 753.33 515.47 C 752.13 516.02 751.90 517.71 752.20 518.88 C 752.75 522.07 758.47 521.32 758.32 518.06 C 758.72 515.52 755.21 513.85 753.33 515.47 M 813.27 519.57 C 813.04 519.94 812.57 520.67 812.34 521.04 C 811.04 524.64 817.04 526.44 818.00 522.94 C 819.40 520.29 815.41 517.35 813.27 519.57 M 710.54 520.63 C 707.11 522.14 709.50 527.78 713.02 526.58 C 716.93 525.22 714.29 518.63 710.54 520.63 M 694.45 522.52 C 692.40 523.45 692.59 527.44 694.99 527.95 C 697.19 529.07 699.75 526.37 698.78 524.13 C 698.47 522.19 695.96 521.75 694.45 522.52 M 680.47 523.48 C 676.45 524.70 679.23 531.22 682.99 529.39 C 686.40 527.75 683.98 522.08 680.47 523.48 M 877.28 523.43 C 874.18 525.95 878.93 530.85 881.50 527.64 C 884.27 525.04 879.87 520.59 877.28 523.43 M 864.36 524.42 C 861.93 525.07 861.68 528.90 864.02 529.86 C 865.83 531.15 868.88 529.19 868.37 527.01 C 868.46 525.02 866.09 523.75 864.36 524.42 M 850.49 525.71 C 847.44 527.29 849.59 532.64 853.03 531.24 C 856.88 529.84 854.17 523.50 850.49 525.71 M 666.07 525.85 C 664.83 526.75 664.91 528.47 665.30 529.79 C 666.48 532.04 670.52 531.58 670.80 528.95 C 671.66 526.25 668.20 524.14 666.07 525.85 M 837.34 527.38 C 836.30 528.17 835.99 529.70 836.38 530.92 C 836.86 533.54 841.36 533.60 841.99 531.01 C 843.62 528.25 839.57 525.06 837.34 527.38 M 824.45 528.52 C 821.46 530.08 823.48 535.81 827.07 534.40 C 830.86 532.90 828.38 526.27 824.45 528.52 M 782.39 535.61 C 780.58 536.42 779.72 539.17 781.38 540.54 C 783.61 543.03 788.54 540.20 787.33 536.97 C 786.56 534.99 784.07 534.67 782.39 535.61 M 754.21 536.24 C 750.94 536.87 751.48 542.88 755.05 542.36 C 759.40 542.55 758.65 534.65 754.21 536.24 M 767.58 536.68 C 766.85 537.66 766.86 539.37 767.55 540.41 C 769.32 542.90 774.08 541.18 773.62 538.05 C 773.38 535.09 769.19 534.53 767.58 536.68 M 710.38 544.47 C 708.87 545.08 708.06 547.44 709.19 548.79 C 710.36 551.03 714.24 550.38 714.57 547.88 C 715.35 545.49 712.56 543.34 710.38 544.47 M 876.44 544.73 C 873.33 546.66 876.52 552.07 879.73 549.75 C 883.21 547.86 879.70 542.36 876.44 544.73 M 864.17 545.18 C 860.69 546.05 862.29 552.12 865.92 550.83 C 869.86 550.18 868.05 543.52 864.17 545.18 M 694.21 546.31 C 692.73 547.23 692.70 549.93 694.09 550.98 C 695.67 552.60 699.05 551.38 698.94 549.00 C 699.49 546.44 696.10 544.58 694.21 546.31 M 680.20 547.28 C 678.74 548.15 678.19 550.27 679.29 551.67 C 680.60 553.98 685.09 552.82 684.68 549.96 C 684.97 547.54 682.13 546.42 680.20 547.28 M 849.47 547.39 C 846.56 549.94 851.16 554.47 853.69 551.63 C 856.77 549.10 852.08 544.23 849.47 547.39 M 837.51 548.65 C 835.96 549.12 835.05 550.98 835.62 552.50 C 836.21 554.55 839.23 555.27 840.63 553.58 C 842.91 551.59 840.34 547.50 837.51 548.65 M 665.35 549.42 C 661.87 550.84 664.54 556.70 667.87 554.85 C 671.53 553.49 668.94 547.45 665.35 549.42 M 824.24 551.09 C 822.16 552.54 823.28 556.57 825.96 556.38 C 828.11 556.83 829.99 553.96 828.85 552.12 C 828.15 550.36 825.58 549.77 824.24 551.09 M 782.13 558.13 C 779.98 558.91 779.33 562.26 781.24 563.55 C 783.44 565.34 787.42 562.94 786.82 560.12 C 786.68 557.94 783.79 556.85 782.13 558.13 M 766.43 559.67 C 765.40 560.29 764.96 561.81 765.35 562.94 C 765.79 565.99 771.30 565.97 771.70 562.90 C 772.66 559.87 768.67 558.06 766.43 559.67 M 753.36 560.51 C 751.38 561.24 750.68 564.14 752.36 565.56 C 754.14 567.64 757.90 565.77 757.71 563.14 C 757.81 560.93 755.24 559.56 753.36 560.51 M 875.37 565.50 C 872.30 568.02 876.25 572.87 879.32 570.33 C 882.58 567.84 878.38 562.43 875.37 565.50 M 862.66 567.71 C 859.43 569.62 862.73 574.89 865.86 572.79 C 869.51 571.00 865.94 565.32 862.66 567.71 M 711.17 568.20 C 709.54 569.00 709.16 571.37 710.41 572.68 C 711.69 574.48 715.10 573.89 715.55 571.63 C 716.47 569.16 713.35 566.64 711.17 568.20 M 694.46 569.67 C 692.87 570.72 692.91 573.40 694.34 574.63 C 695.57 575.99 698.19 575.67 698.97 573.95 C 700.82 571.31 697.11 567.65 694.46 569.67 M 850.46 569.59 C 846.88 570.96 848.86 576.89 852.58 575.49 C 856.44 574.28 854.32 567.74 850.46 569.59 M 678.57 570.54 C 675.86 573.06 679.84 578.22 682.94 576.04 C 686.59 573.62 681.72 567.27 678.57 570.54 M 837.15 571.21 C 835.37 571.98 834.79 574.62 836.24 575.96 C 837.78 577.90 841.78 576.71 841.47 574.03 C 841.83 571.68 839.06 570.48 837.15 571.21 M 665.31 572.34 C 662.12 574.87 666.89 579.87 669.52 576.58 C 672.20 574.00 667.83 569.64 665.31 572.34 M 824.13 572.88 C 822.38 574.11 822.53 576.74 824.09 578.06 C 825.75 579.54 828.93 578.35 828.88 576.02 C 829.55 573.38 826.28 571.23 824.13 572.88 M 781.37 579.51 C 778.06 581.97 782.54 587.91 785.87 585.04 C 789.13 582.39 784.65 577.24 781.37 579.51 M 767.36 581.63 C 765.79 582.70 765.54 585.71 767.31 586.75 C 768.93 588.11 771.63 587.00 772.03 584.97 C 773.20 582.28 769.60 579.92 767.36 581.63 M 753.30 583.36 C 750.89 584.09 750.77 587.92 753.13 588.84 C 754.97 590.01 757.88 588.08 757.40 585.93 C 757.50 583.86 755.07 582.67 753.30 583.36 M 875.21 588.33 C 871.84 590.03 873.80 595.61 877.49 594.58 C 881.73 593.58 879.40 586.20 875.21 588.33 M 862.41 590.58 C 858.92 592.91 863.28 598.37 866.46 595.45 C 869.49 592.92 865.49 588.47 862.41 590.58 M 709.57 591.51 C 706.45 594.57 711.99 598.83 714.44 595.48 C 716.79 592.39 712.13 588.62 709.57 591.51 M 849.60 592.66 C 848.07 593.77 847.78 596.37 849.33 597.57 C 851.20 599.53 854.83 597.50 854.44 594.94 C 854.70 592.46 851.31 591.29 849.60 592.66 M 694.49 593.47 C 692.33 595.22 694.22 599.05 696.89 598.58 C 699.40 598.64 700.64 594.93 698.66 593.41 C 697.70 592.24 695.36 592.22 694.49 593.47 M 680.15 594.17 C 676.19 595.38 679.14 602.09 682.79 599.87 C 686.25 598.31 683.60 592.72 680.15 594.17 M 836.33 594.36 C 835.17 595.10 834.84 596.71 835.33 597.94 C 835.96 600.48 840.10 600.31 840.98 597.98 C 842.82 595.24 838.53 592.00 836.33 594.36 M 823.42 596.64 C 820.20 598.55 823.46 604.14 826.74 601.70 C 829.92 599.72 826.72 594.35 823.42 596.64 M 664.30 597.39 C 662.37 598.91 663.27 602.76 665.88 602.87 C 668.45 603.44 670.31 600.24 668.91 598.17 C 668.13 596.45 665.55 596.00 664.30 597.39 M 781.27 603.24 C 779.33 604.75 780.49 608.45 783.01 608.42 C 784.91 608.86 786.72 606.69 786.30 604.89 C 785.97 602.67 782.79 601.53 781.27 603.24 M 767.19 604.09 C 763.40 605.65 766.40 611.42 769.96 609.56 C 773.75 608.10 770.84 601.89 767.19 604.09 M 753.36 606.51 C 750.42 608.89 754.17 613.43 757.15 611.26 C 760.54 608.95 756.38 603.68 753.36 606.51 M 874.16 610.22 C 870.19 612.02 874.34 618.31 877.60 615.50 C 880.72 613.41 877.61 607.93 874.16 610.22 M 861.13 611.17 C 857.55 613.63 862.10 618.95 865.31 616.37 C 868.51 613.94 864.09 608.79 861.13 611.17 M 848.37 613.44 C 845.43 615.42 848.39 620.47 851.66 618.47 C 855.29 616.71 851.63 610.71 848.37 613.44 M 710.24 615.34 C 706.29 616.78 709.18 623.27 712.87 620.85 C 716.43 619.25 713.82 613.58 710.24 615.34 M 836.18 615.23 C 833.22 617.41 836.83 622.51 839.85 620.02 C 843.29 617.86 839.14 612.41 836.18 615.23 M 824.13 616.14 C 821.78 617.03 821.97 620.77 824.30 621.57 C 826.07 622.30 828.53 621.06 828.44 619.00 C 828.92 616.82 825.96 614.93 824.13 616.14 M 692.51 619.97 C 693.24 621.66 694.87 623.42 696.91 622.60 C 699.71 621.84 699.88 617.55 697.10 616.59 C 694.70 615.90 693.25 618.06 692.51 619.97 M 679.43 619.56 C 676.46 621.59 679.37 626.57 682.70 624.67 C 686.23 622.72 682.81 617.14 679.43 619.56 M 663.70 621.62 C 661.94 622.89 662.32 625.82 664.25 626.73 C 666.20 628.11 669.17 626.36 668.82 623.95 C 668.82 621.45 665.52 620.21 663.70 621.62 M 781.34 624.45 C 779.37 625.16 778.59 628.23 780.26 629.65 C 782.06 631.89 785.98 629.72 785.50 627.03 C 785.63 624.93 783.11 623.67 781.34 624.45 M 766.28 626.41 C 762.76 628.46 766.23 633.66 769.68 631.66 C 773.27 629.63 769.78 624.24 766.28 626.41 M 752.15 628.95 C 748.63 631.03 752.77 636.56 755.76 633.74 C 758.74 631.59 755.13 626.50 752.15 628.95 M 874.24 631.45 C 873.05 632.04 873.00 633.81 873.35 634.94 C 874.29 637.96 880.02 637.53 879.70 633.97 C 879.82 631.35 876.14 629.86 874.24 631.45 M 862.52 632.65 C 858.91 633.90 860.96 639.71 864.55 638.39 C 868.36 637.28 866.20 631.17 862.52 632.65 M 847.43 635.47 C 846.17 636.46 846.00 638.65 847.25 639.73 C 848.79 641.74 852.87 640.83 852.72 638.02 C 853.08 635.35 849.30 633.55 847.43 635.47 M 835.23 637.35 C 831.99 639.78 836.20 644.77 839.42 642.42 C 843.00 639.94 838.31 634.74 835.23 637.35 M 711.34 638.43 C 707.76 639.36 709.40 645.29 713.00 644.20 C 716.94 643.36 715.12 636.98 711.34 638.43 M 822.35 639.53 C 819.40 641.96 823.40 646.80 826.45 644.42 C 829.85 642.03 825.30 636.66 822.35 639.53 M 693.51 641.31 C 691.74 643.17 693.30 646.98 695.99 646.54 C 697.86 646.70 699.10 644.62 698.76 642.93 C 698.80 640.33 694.96 639.27 693.51 641.31 M 680.34 643.44 C 676.91 644.88 679.60 650.72 682.94 648.84 C 686.64 647.39 683.88 641.47 680.34 643.44 M 664.32 645.46 C 663.16 646.06 662.94 647.83 663.39 648.96 C 663.92 651.42 668.29 651.45 668.88 648.99 C 670.37 646.43 666.47 643.38 664.32 645.46 M 780.34 648.23 C 777.14 650.84 781.99 655.60 784.71 652.67 C 787.78 650.03 783.08 645.38 780.34 648.23 M 766.44 649.70 C 764.65 650.77 764.81 654.28 767.00 654.87 C 769.19 656.28 772.28 653.23 770.93 651.02 C 770.45 649.12 767.91 648.77 766.44 649.70 M 753.17 651.16 C 751.35 651.86 750.89 654.41 752.11 655.85 C 753.18 657.62 756.02 657.61 757.10 655.84 C 758.94 653.47 755.85 649.56 753.17 651.16 M 873.54 652.67 C 872.13 653.39 871.25 655.34 872.20 656.78 C 873.46 659.94 878.90 658.20 878.47 655.01 C 878.63 652.48 875.40 651.47 873.54 652.67 M 812.01 658.82 C 813.20 660.81 815.60 660.03 817.30 659.25 C 817.78 657.56 818.21 654.77 815.95 654.27 C 813.24 652.96 810.12 656.38 812.01 658.82 M 861.19 655.16 C 859.02 655.87 858.69 659.08 860.50 660.38 C 861.95 662.26 865.45 661.27 865.65 658.90 C 866.43 656.39 863.40 654.00 861.19 655.16 M 847.40 657.54 C 843.87 658.98 846.61 664.96 850.00 662.91 C 853.58 661.57 850.88 655.58 847.40 657.54 M 835.99 665.88 C 839.98 665.94 839.58 660.00 836.00 659.49 C 832.32 659.91 831.93 666.04 835.99 665.88 M 710.09 664.07 C 709.99 668.07 716.01 667.58 716.46 664.01 C 716.00 660.35 709.83 660.00 710.09 664.07 M 822.27 662.23 C 819.06 663.96 821.86 669.08 825.16 667.54 C 828.91 665.90 825.77 659.72 822.27 662.23 M 694.21 667.85 C 695.28 669.84 697.76 669.22 699.38 668.31 C 699.74 666.59 699.99 664.20 697.95 663.46 C 695.35 662.22 692.47 665.51 694.21 667.85 M 680.20 665.98 C 676.65 668.12 680.90 673.69 683.88 670.76 C 686.79 668.55 683.16 663.55 680.20 665.98 M 739.18 667.12 C 736.37 667.98 736.95 672.71 739.87 672.79 C 741.57 673.18 743.43 671.76 743.32 669.98 C 743.65 667.73 741.08 666.47 739.18 667.12 M 664.49 668.74 C 662.27 670.22 663.17 674.58 666.03 674.50 C 667.85 674.82 669.94 672.91 669.52 671.03 C 669.50 668.66 666.28 667.46 664.49 668.74 M 766.44 671.53 C 762.74 672.62 764.39 678.57 768.05 677.90 C 772.62 677.72 770.58 669.79 766.44 671.53 M 780.15 670.89 C 776.71 673.00 780.85 678.51 783.87 676.03 C 787.32 673.91 783.24 668.35 780.15 670.89 M 751.32 674.51 C 750.09 675.47 749.91 677.75 751.00 678.90 C 752.53 681.12 756.78 679.68 756.60 676.95 C 756.94 674.35 753.12 672.52 751.32 674.51 M 874.46 674.47 C 870.81 675.41 872.41 681.33 876.10 680.36 C 880.50 679.83 878.53 672.82 874.46 674.47 M 860.32 676.51 C 857.08 679.09 861.77 684.14 864.72 681.53 C 867.97 679.07 863.33 673.79 860.32 676.51 M 848.26 678.30 C 844.47 679.89 847.44 685.60 851.04 684.25 C 854.95 682.69 852.15 676.41 848.26 678.30 M 833.43 681.49 C 830.12 684.48 836.36 689.37 838.68 685.76 C 841.01 682.60 836.05 678.48 833.43 681.49 M 821.39 683.46 C 819.11 684.12 818.74 687.92 821.04 688.79 C 822.85 690.19 825.98 688.26 825.51 686.00 C 825.58 683.96 823.14 682.71 821.39 683.46 M 710.34 684.52 C 707.57 686.17 709.63 691.30 713.01 689.85 C 717.03 688.69 714.10 681.95 710.34 684.52 M 694.40 686.35 C 690.71 687.67 693.44 693.73 696.87 691.84 C 700.52 690.44 697.95 684.58 694.40 686.35 M 679.53 691.94 C 680.27 693.58 681.87 696.00 684.01 694.98 C 686.73 694.34 686.60 689.71 683.99 689.05 C 681.89 687.89 680.12 690.17 679.53 691.94 M 664.38 692.54 C 661.11 694.08 663.20 700.28 666.93 698.61 C 670.75 697.43 668.46 690.20 664.38 692.54 M 781.40 692.55 C 778.24 694.47 781.40 699.89 784.73 697.79 C 788.70 695.95 784.91 690.16 781.40 692.55 M 765.32 695.48 C 764.05 696.47 763.95 698.69 765.17 699.79 C 766.68 701.45 770.11 700.90 770.57 698.52 C 771.48 695.64 767.38 693.39 765.32 695.48 M 875.80 695.69 C 873.64 696.95 874.51 700.83 877.05 700.90 C 878.91 701.30 881.08 699.99 880.87 697.91 C 881.09 696.08 879.33 695.25 878.02 694.54 C 877.47 694.82 876.35 695.40 875.80 695.69 M 752.36 697.57 C 748.88 699.00 751.62 704.86 754.97 702.86 C 758.58 701.53 755.80 695.61 752.36 697.57 M 860.31 698.32 C 858.13 700.14 860.18 704.00 862.91 703.49 C 864.62 703.61 865.97 701.76 865.70 700.15 C 865.61 697.64 861.89 696.42 860.31 698.32 M 847.51 699.65 C 845.64 700.73 845.78 704.27 847.99 704.88 C 849.86 706.10 852.94 704.32 852.50 702.05 C 852.64 699.54 849.37 698.51 847.51 699.65 M 833.58 703.47 C 831.52 704.96 832.54 708.67 835.12 708.76 C 837.14 709.14 839.05 707.13 838.69 705.14 C 838.58 702.74 835.06 701.62 833.58 703.47 M 820.32 705.51 C 818.01 706.55 818.43 710.51 821.00 711.05 C 823.23 711.85 825.57 709.24 824.55 707.09 C 824.23 705.24 821.79 704.79 820.32 705.51 M 711.17 708.13 C 709.98 708.89 709.24 710.70 710.16 711.97 C 711.25 714.80 716.59 714.32 716.41 710.97 C 716.78 708.42 713.08 706.70 711.17 708.13 M 694.41 711.60 C 691.07 713.68 694.59 719.24 697.96 716.86 C 701.55 714.82 697.70 709.34 694.41 711.60 M 680.41 713.49 C 678.11 715.59 680.60 718.81 683.00 719.50 C 683.99 718.75 685.63 718.39 685.79 716.90 C 686.69 713.98 682.61 710.93 680.41 713.49 M 781.15 714.19 C 777.41 715.79 780.31 721.69 783.95 719.63 C 787.23 717.80 784.61 712.67 781.15 714.19 M 875.49 715.40 C 873.63 717.33 875.48 720.80 878.05 720.67 C 879.93 720.73 881.34 718.81 880.87 717.03 C 880.65 714.56 877.04 713.37 875.49 715.40 M 665.33 717.34 C 661.64 719.23 665.39 725.17 668.72 722.71 C 671.87 720.70 668.69 715.45 665.33 717.34 M 768.12 717.21 C 764.62 718.85 767.58 724.35 770.97 722.55 C 775.01 721.34 771.83 714.62 768.12 717.21 M 860.72 717.78 C 860.19 719.48 859.73 722.29 862.05 722.82 C 864.76 724.00 867.84 720.67 865.96 718.23 C 864.75 716.24 862.40 717.00 860.72 717.78 M 753.40 720.52 C 751.95 721.16 751.24 723.33 752.24 724.69 C 753.35 726.97 757.37 726.50 757.69 723.92 C 758.58 721.38 755.62 719.30 753.40 720.52 M 849.00 726.49 C 852.70 726.07 853.08 719.91 848.99 720.11 C 845.04 720.06 845.47 725.97 849.00 726.49 M 834.28 722.33 C 833.16 722.98 832.25 724.72 833.04 725.94 C 833.69 728.64 838.12 728.39 838.88 725.87 C 840.31 723.29 836.51 720.36 834.28 722.33 M 820.49 725.47 C 817.68 728.08 822.26 732.56 824.77 729.71 C 827.80 727.14 823.09 722.26 820.49 725.47 M 711.34 730.29 C 709.91 731.14 709.25 733.31 710.29 734.75 C 711.48 736.95 715.23 736.43 715.72 733.97 C 716.93 731.36 713.66 728.57 711.34 730.29 M 693.50 738.00 C 693.96 741.63 700.02 742.02 699.89 738.00 C 699.99 733.98 694.00 734.41 693.50 738.00 M 679.67 737.61 C 677.70 738.82 678.10 741.96 680.08 742.96 C 682.01 744.35 685.23 742.36 684.85 739.98 C 684.94 737.39 681.52 736.49 679.67 737.61 M 780.35 737.43 C 777.12 740.50 783.09 744.98 785.48 741.67 C 787.86 738.55 782.88 734.61 780.35 737.43 M 664.37 739.53 C 662.40 741.11 663.67 744.54 666.13 744.66 C 668.49 745.02 670.50 741.97 668.97 740.06 C 668.08 738.47 665.50 738.05 664.37 739.53 M 766.10 739.22 C 762.60 740.91 765.53 746.92 768.97 744.90 C 772.59 743.34 769.76 737.38 766.10 739.22 M 752.38 742.45 C 750.64 743.31 749.83 746.10 751.45 747.50 C 753.28 749.73 757.12 747.67 756.75 744.97 C 756.87 742.73 754.21 741.51 752.38 742.45 M 711.08 754.23 C 707.57 756.07 711.04 761.49 714.29 759.34 C 717.57 757.39 714.31 751.94 711.08 754.23 M 694.29 757.39 C 692.92 758.27 692.00 760.38 693.13 761.81 C 694.56 764.46 699.46 763.16 698.92 759.99 C 699.30 757.57 696.12 755.81 694.29 757.39 M 679.28 760.23 C 678.16 760.92 677.24 762.72 678.13 763.94 C 678.95 766.50 683.28 766.52 684.09 763.90 C 685.58 761.02 681.65 758.29 679.28 760.23 M 664.23 763.22 C 661.08 765.28 664.57 771.06 667.87 768.77 C 671.53 766.77 667.63 760.37 664.23 763.22 Z" />
</g>
</svg>
