<?xml version="1.0" encoding="UTF-8" ?>
<!DOCTYPE svg PUBLIC "-//W3C//DTD SVG 1.1//EN" "http://www.w3.org/Graphics/SVG/1.1/DTD/svg11.dtd">
<svg width="1000pt" height="1000pt" viewBox="0 0 1000 1000" version="1.1" xmlns="http://www.w3.org/2000/svg">
<g id="#020202ff">
<path fill="#020202" opacity="1.00" d=" M 474.40 18.58 C 484.42 16.11 494.67 13.71 505.06 14.15 C 512.70 14.96 520.91 16.78 526.48 22.49 C 534.93 31.28 539.52 43.08 541.49 54.96 C 542.86 61.93 544.19 68.94 544.50 76.06 C 544.69 81.27 545.60 86.53 544.76 91.73 C 543.75 97.01 541.17 101.83 538.16 106.22 C 535.90 109.30 536.75 113.37 536.59 116.93 C 537.12 125.92 535.57 135.31 539.09 143.88 C 542.97 143.66 547.02 142.97 550.83 144.12 C 554.13 145.64 556.80 148.18 559.80 150.19 C 567.47 155.41 576.56 157.90 584.62 162.41 C 600.98 171.57 617.23 181.20 631.57 193.38 C 637.27 198.32 642.74 203.85 646.11 210.70 C 649.10 216.73 654.03 221.61 659.48 225.47 C 668.52 231.46 677.86 237.01 686.62 243.42 C 697.57 251.94 705.24 263.74 712.94 275.09 C 717.15 280.84 722.51 285.66 726.41 291.66 C 732.28 300.28 736.25 310.52 736.00 321.07 C 734.08 330.00 726.82 336.48 720.06 342.06 C 712.92 348.22 704.57 352.68 696.64 357.68 C 685.71 365.98 673.51 372.42 661.05 378.08 C 645.16 384.55 629.32 391.22 613.97 398.87 C 613.18 397.42 612.41 395.97 611.64 394.52 C 606.31 399.09 601.50 404.27 595.69 408.26 C 595.88 419.92 597.18 431.50 597.97 443.13 C 598.59 449.27 601.81 454.72 603.14 460.69 C 604.19 466.46 605.97 472.42 604.23 478.27 C 602.44 477.85 600.67 477.44 598.89 477.03 C 598.59 500.01 599.06 523.00 598.62 545.98 C 598.77 566.29 598.76 586.85 594.35 606.77 C 590.15 623.00 586.21 639.39 584.56 656.12 C 583.65 662.08 582.63 668.03 581.94 674.04 C 580.27 683.95 578.39 693.96 578.93 704.05 C 579.23 711.66 583.54 718.38 584.08 725.95 C 585.19 738.29 583.55 750.68 584.30 763.05 C 584.25 770.20 586.48 777.05 587.60 784.04 C 588.18 792.41 586.86 800.76 585.88 809.06 C 583.67 828.42 579.08 847.49 578.37 867.02 C 576.44 881.35 577.76 896.20 572.96 910.05 C 571.62 913.50 568.97 916.27 567.65 919.74 C 566.24 923.31 566.40 927.22 566.44 931.00 C 566.88 944.26 569.09 957.55 567.47 970.81 C 566.69 976.01 565.05 981.42 561.21 985.21 C 558.02 988.41 553.63 989.95 549.36 991.09 C 539.48 993.49 529.08 994.76 519.03 992.58 C 508.98 990.46 497.69 990.40 489.36 983.60 C 485.29 980.50 486.07 974.44 488.60 970.61 C 494.61 960.85 504.12 953.85 510.09 944.04 C 513.56 939.12 514.23 932.78 518.16 928.15 C 521.28 924.45 522.98 919.92 524.63 915.44 C 525.78 912.17 528.16 908.81 527.08 905.22 C 520.69 884.15 528.93 861.87 523.26 840.69 C 522.03 836.46 520.17 832.41 519.45 828.05 C 518.32 821.44 517.91 814.73 517.34 808.06 C 516.07 793.07 517.68 778.04 517.07 763.04 C 516.63 752.43 516.66 741.65 513.82 731.33 C 511.52 722.53 504.84 715.51 503.30 706.44 C 499.59 690.51 498.92 674.13 497.59 657.90 C 495.83 647.36 495.56 636.63 493.31 626.16 C 490.98 635.43 487.73 644.55 482.86 652.81 C 478.91 659.92 475.27 667.19 471.31 674.29 C 465.96 684.65 459.82 695.13 458.79 706.98 C 458.63 713.99 458.91 721.01 458.79 728.02 C 458.65 734.37 457.21 740.59 456.45 746.88 C 455.27 753.01 460.05 758.04 460.31 764.03 C 461.68 780.05 454.36 795.09 453.32 810.90 C 452.65 817.84 454.37 824.88 452.75 831.74 C 450.76 840.00 446.30 847.35 443.09 855.15 C 436.51 870.41 431.92 886.44 427.64 902.47 C 425.33 909.66 422.18 916.63 417.73 922.76 C 419.48 934.30 424.89 944.88 427.50 956.21 C 428.51 962.13 428.42 968.81 425.10 974.03 C 420.37 980.22 412.53 983.23 404.98 984.02 C 397.48 985.06 389.96 983.86 382.48 983.23 C 359.98 981.67 337.38 981.92 314.89 983.52 C 305.20 983.84 294.82 983.89 286.20 978.85 C 283.35 977.12 279.98 974.75 280.04 971.03 C 279.73 965.56 284.94 962.42 288.96 959.88 C 297.47 954.59 307.78 953.99 316.76 949.84 C 332.63 943.47 346.79 933.66 360.18 923.18 C 364.37 919.85 369.00 917.15 373.88 914.97 C 372.58 902.67 373.79 890.30 373.33 877.98 C 372.96 869.95 373.13 861.91 372.47 853.91 C 371.61 835.60 372.51 817.27 373.58 798.99 C 375.27 774.49 381.12 750.49 382.78 726.00 C 383.11 720.54 382.15 715.06 379.88 710.09 C 377.70 705.35 376.94 700.14 376.80 694.97 C 376.20 671.97 381.85 649.51 385.56 626.98 C 389.64 603.95 392.42 580.72 394.72 557.46 C 396.10 548.01 395.51 538.36 397.57 529.00 C 397.98 526.25 399.22 523.41 398.12 520.67 C 395.95 513.46 393.01 506.50 390.75 499.32 C 386.54 485.97 384.25 472.06 383.44 458.10 C 382.49 447.07 383.65 436.03 384.65 425.05 C 385.46 411.05 386.86 397.02 385.89 382.98 C 385.41 375.66 385.74 368.32 385.30 361.00 C 384.87 346.62 383.29 332.30 382.50 317.94 C 382.22 293.59 385.43 269.41 387.64 245.21 C 390.09 229.76 391.92 214.02 397.31 199.26 C 398.88 194.41 402.69 190.47 407.45 188.68 C 418.02 184.60 429.30 182.50 439.56 177.60 C 445.88 174.53 452.57 171.66 457.56 166.55 C 461.04 163.03 463.32 158.31 467.62 155.63 C 469.63 154.25 472.06 153.83 474.40 153.34 C 474.39 147.07 473.46 140.77 471.34 134.86 C 469.53 131.11 466.74 127.95 464.81 124.28 C 463.04 121.19 461.99 117.77 460.35 114.62 C 457.53 110.48 454.10 106.79 450.60 103.22 C 448.12 100.83 447.81 97.20 447.62 93.96 C 447.50 89.92 447.22 85.45 449.95 82.11 C 439.52 66.88 438.72 44.40 451.08 30.02 C 456.84 23.02 466.13 21.03 474.40 18.58 M 500.01 58.12 C 491.43 59.81 482.63 60.66 473.92 59.69 C 469.99 59.55 466.16 58.46 462.85 56.33 C 460.31 60.96 457.52 65.70 457.09 71.08 C 456.54 78.21 457.28 85.38 458.32 92.44 C 461.08 108.01 466.55 123.73 477.59 135.42 C 482.56 140.75 489.75 143.59 496.95 143.93 C 503.67 144.10 509.07 139.42 515.33 137.77 C 510.92 141.91 505.30 144.65 499.56 146.40 C 490.93 147.92 481.80 144.75 475.45 138.83 C 476.76 144.08 478.00 149.56 477.09 154.99 C 476.07 159.11 478.40 163.09 480.69 166.34 C 486.03 173.31 495.16 175.10 502.06 179.94 C 503.87 184.64 504.90 189.63 506.01 194.54 C 507.87 194.73 509.75 194.91 511.63 195.07 C 509.34 191.95 507.47 188.16 508.38 184.19 C 509.69 180.65 513.48 179.12 516.61 177.54 C 522.12 175.05 525.76 170.00 529.68 165.61 C 533.52 160.60 538.30 155.57 538.71 148.92 C 534.21 142.94 533.34 135.29 533.53 128.04 C 533.81 121.05 532.72 113.97 533.95 107.05 C 535.71 103.55 538.51 100.63 539.85 96.89 C 542.78 90.88 542.71 83.84 540.60 77.59 C 538.10 81.41 537.69 86.86 533.30 89.16 C 531.75 90.17 528.90 91.16 528.17 88.74 C 527.32 83.03 528.13 77.14 527.27 71.41 C 526.56 68.58 523.62 67.22 521.98 65.00 C 518.73 60.82 517.41 55.58 515.32 50.80 C 510.90 54.46 505.62 56.97 500.01 58.12 M 450.79 86.09 C 450.69 90.55 449.94 95.27 451.52 99.55 C 453.29 102.44 455.98 104.62 458.06 107.28 C 456.13 100.69 454.70 93.96 454.02 87.12 C 452.94 86.77 451.86 86.43 450.79 86.09 M 541.65 146.19 C 541.79 149.68 542.27 153.40 540.62 156.64 C 538.42 161.20 535.19 165.17 531.98 169.05 C 528.30 173.28 524.62 177.73 519.65 180.50 C 516.93 182.15 513.77 183.36 511.78 185.96 C 511.75 189.05 513.51 191.72 514.85 194.38 C 517.53 190.93 520.22 187.43 523.56 184.57 C 528.01 180.59 533.58 178.03 537.68 173.63 C 541.14 169.93 544.38 165.69 545.52 160.65 C 546.57 156.00 546.60 151.21 546.92 146.48 C 545.16 146.38 543.40 146.29 541.65 146.19 M 551.07 147.89 C 550.69 153.74 550.65 159.82 548.27 165.28 C 546.25 169.64 543.16 173.41 539.77 176.76 C 535.18 181.30 529.26 184.16 524.54 188.55 C 520.96 191.70 518.12 195.54 515.02 199.13 C 514.57 210.65 510.82 221.64 507.55 232.58 C 502.88 246.92 498.67 261.40 494.85 275.99 C 491.55 289.98 488.92 304.70 492.09 318.97 C 495.61 337.04 503.86 354.26 503.78 372.94 C 503.61 384.54 501.74 396.04 501.56 407.65 C 504.39 403.82 507.58 400.19 511.61 397.60 C 520.68 391.40 530.68 386.75 539.98 380.93 C 533.19 381.63 526.37 383.11 520.35 386.43 C 517.26 387.98 514.33 390.10 510.87 390.74 C 508.62 391.18 505.25 390.01 506.12 387.16 C 507.52 382.37 512.16 379.67 515.96 376.92 C 522.08 373.00 527.77 368.16 534.70 365.72 C 543.32 363.17 552.25 365.83 560.81 367.28 C 570.31 369.08 580.00 368.46 589.60 368.48 C 587.39 358.85 584.50 348.98 586.02 339.02 C 588.11 326.20 594.85 314.87 600.52 303.39 C 603.99 296.52 606.18 289.11 608.13 281.70 C 601.61 291.21 595.01 300.70 587.23 309.24 C 581.58 315.27 576.23 321.80 569.12 326.18 C 570.16 324.57 571.21 322.95 572.39 321.44 C 582.77 308.93 593.75 296.84 602.89 283.35 C 596.60 285.58 591.22 289.54 585.38 292.63 C 586.49 290.44 587.58 288.15 589.45 286.49 C 598.84 278.35 612.63 275.47 624.39 279.67 C 637.82 284.26 649.71 292.24 661.14 300.48 C 662.94 296.04 665.03 291.69 667.94 287.86 C 671.92 282.73 675.59 276.88 681.72 274.08 C 675.07 283.00 667.48 291.49 663.62 302.11 C 665.21 303.23 666.81 304.34 668.43 305.45 C 670.88 301.97 673.43 298.42 676.97 295.95 C 682.45 292.06 689.01 290.21 695.39 288.37 C 699.84 287.06 704.50 286.55 709.13 286.90 C 701.35 290.90 692.41 291.69 684.55 295.50 C 678.86 297.83 674.30 302.14 670.67 307.00 C 675.56 304.91 680.48 302.53 685.89 302.23 C 679.51 307.06 671.90 309.83 665.18 314.13 C 658.16 318.19 652.19 323.77 646.71 329.70 C 636.33 340.76 625.25 351.32 612.23 359.23 C 614.82 363.98 618.43 368.02 621.99 372.04 C 626.00 376.51 627.72 382.39 629.25 388.06 C 636.10 384.95 642.86 381.63 649.85 378.82 C 665.61 372.62 681.15 365.19 694.29 354.34 C 705.37 346.93 717.40 340.49 726.42 330.45 C 729.60 326.71 732.95 322.29 732.57 317.11 C 731.85 304.85 725.00 293.93 716.93 285.07 C 708.49 276.29 703.00 265.20 694.63 256.35 C 687.94 248.17 678.95 242.47 670.19 236.78 C 663.02 232.05 655.28 227.86 649.71 221.14 C 649.63 223.99 649.52 226.84 649.22 229.69 C 646.60 226.03 645.41 221.68 644.39 217.38 C 642.61 210.22 637.59 204.52 632.51 199.42 C 630.21 197.29 628.00 194.80 624.98 193.74 C 620.12 193.33 615.31 194.93 610.94 196.93 C 602.33 201.10 597.09 209.62 592.45 217.61 C 587.39 226.36 586.31 236.54 583.53 246.08 C 582.14 243.99 581.15 241.58 581.72 239.05 C 583.06 229.29 585.63 219.42 591.24 211.19 C 595.28 205.09 599.95 199.07 606.44 195.42 C 611.23 192.57 616.82 191.70 622.23 190.71 C 609.05 181.27 595.24 172.74 581.00 165.01 C 574.84 161.74 568.20 159.45 562.21 155.84 C 558.28 153.50 554.71 150.63 551.07 147.89 M 466.22 161.12 C 467.70 164.36 469.79 167.31 472.81 169.29 C 477.77 172.76 479.93 178.71 484.22 182.82 C 489.40 188.27 496.54 191.07 502.98 194.68 C 501.98 190.06 500.92 185.46 500.04 180.82 C 492.55 177.87 484.32 175.45 478.72 169.34 C 475.39 165.85 474.01 161.13 472.56 156.67 C 470.41 158.10 468.30 159.58 466.22 161.12 M 463.68 165.37 C 460.53 169.31 456.92 172.94 452.54 175.49 C 444.68 180.13 436.36 184.06 427.62 186.72 C 419.57 189.42 410.95 190.80 403.63 195.34 C 404.91 200.63 406.01 205.98 407.80 211.14 C 411.28 222.28 419.52 230.92 424.55 241.27 C 417.53 237.75 414.00 230.38 409.71 224.22 C 404.82 217.06 402.18 208.72 400.64 200.26 C 395.09 214.92 393.35 230.63 390.98 246.02 C 388.88 269.31 385.84 292.59 385.98 316.03 C 386.59 329.70 388.20 343.31 388.74 357.00 C 389.20 366.11 389.09 375.24 389.59 384.35 C 390.26 398.26 389.30 412.17 388.45 426.05 C 387.79 435.01 386.62 443.97 387.06 452.97 C 387.63 464.80 388.81 476.66 391.66 488.19 C 393.98 498.51 398.02 508.33 400.66 518.57 C 403.04 513.88 405.56 509.20 407.04 504.12 C 409.48 495.88 410.41 487.08 414.53 479.41 C 416.05 476.45 418.18 473.81 419.39 470.69 C 420.26 467.53 420.16 464.20 420.37 460.96 C 420.57 453.97 421.82 446.96 420.82 439.98 C 419.82 432.86 418.36 425.61 414.70 419.33 C 411.30 413.29 407.30 407.47 405.52 400.68 C 410.82 404.56 413.29 410.82 417.06 415.98 C 420.33 420.46 422.13 425.76 423.53 431.08 C 423.78 423.02 424.86 415.01 424.93 406.95 C 424.50 394.62 418.54 383.30 411.30 373.61 C 405.06 364.73 400.68 353.86 401.96 342.84 C 403.83 349.77 405.41 356.88 408.71 363.33 C 411.92 369.86 416.91 375.27 420.52 381.56 C 422.76 385.33 424.42 389.40 426.12 393.43 C 425.77 381.52 424.63 369.65 422.69 357.89 C 420.19 340.68 420.79 323.08 423.88 305.98 C 424.61 301.29 425.94 296.09 423.44 291.69 C 419.68 284.72 414.95 278.22 409.15 272.81 C 406.15 269.99 403.36 266.91 401.11 263.45 C 408.12 267.60 414.03 273.31 419.38 279.40 C 418.04 276.14 416.78 272.84 415.39 269.60 C 413.03 264.17 409.69 259.19 407.90 253.52 C 416.32 261.45 419.78 272.84 425.22 282.75 C 428.88 289.21 429.35 296.91 428.07 304.10 C 426.15 314.95 424.75 325.94 424.91 336.98 C 424.75 351.77 428.34 366.23 429.18 380.95 C 430.70 394.98 428.39 408.99 427.28 422.96 C 426.81 429.65 425.36 436.27 425.49 443.00 C 425.71 453.38 424.16 463.68 423.68 474.03 C 423.66 476.44 423.65 479.58 426.21 480.77 C 435.34 485.91 445.91 487.56 456.22 488.35 C 468.73 489.10 481.29 489.65 493.81 488.84 C 493.86 483.21 494.60 477.56 494.10 471.94 C 493.63 467.05 488.92 464.12 487.71 459.53 C 487.20 457.27 487.23 454.93 487.10 452.64 C 479.04 457.23 470.38 461.20 461.11 462.38 C 464.68 459.94 468.68 458.25 472.66 456.60 C 479.44 453.81 485.67 449.86 491.68 445.69 C 493.86 444.02 496.80 442.30 496.73 439.16 C 497.90 426.53 489.89 415.43 489.59 402.98 C 489.25 392.96 491.52 383.06 491.28 373.04 C 491.26 362.89 488.25 353.10 485.49 343.44 C 482.63 333.61 476.91 324.54 476.30 314.13 C 474.75 297.27 479.72 280.83 483.63 264.64 C 487.34 249.03 492.68 233.89 497.66 218.67 C 500.38 211.82 502.63 204.77 503.67 197.45 C 496.02 194.03 487.74 191.29 481.65 185.29 C 477.42 181.48 475.19 175.90 470.60 172.45 C 467.96 170.43 465.66 168.03 463.68 165.37 M 505.82 197.43 C 505.81 201.92 505.76 206.47 504.57 210.83 C 498.74 230.54 491.61 249.88 486.79 269.90 C 483.05 285.21 478.28 300.92 480.53 316.85 C 481.90 325.38 486.26 333.02 488.83 341.20 C 492.37 352.80 495.74 364.75 495.05 377.01 C 494.85 388.91 491.19 401.18 495.20 412.81 C 497.90 421.25 501.11 429.79 500.47 438.82 C 502.14 436.87 503.83 434.94 505.54 433.02 C 505.14 423.06 497.92 414.95 497.82 404.96 C 497.65 395.95 499.48 387.04 499.74 378.04 C 501.63 351.83 485.58 328.22 486.79 302.06 C 487.50 292.97 488.66 283.87 491.03 275.06 C 496.33 254.45 502.91 234.22 508.94 213.83 C 510.56 208.52 511.38 203.01 512.08 197.52 C 509.99 197.51 507.90 197.48 505.82 197.43 M 611.64 281.79 C 610.45 288.12 608.87 294.41 606.41 300.38 C 600.81 313.16 592.79 325.10 590.10 339.00 C 588.12 348.83 591.14 358.65 592.17 368.40 C 593.76 368.31 595.35 368.24 596.96 368.18 C 599.94 361.91 606.28 358.47 611.76 354.68 C 619.14 349.93 626.05 344.48 632.41 338.43 C 643.53 328.44 652.94 316.21 666.53 309.33 C 656.71 303.24 647.59 296.06 637.36 290.64 C 629.33 286.39 620.85 282.38 611.64 281.79 M 600.78 367.18 C 606.27 376.04 611.57 385.14 614.71 395.14 C 618.45 393.28 622.23 391.49 626.02 389.72 C 624.39 384.48 622.79 379.06 619.30 374.72 C 615.71 370.30 612.16 365.86 609.00 361.12 C 606.23 363.10 603.48 365.11 600.78 367.18 M 522.61 376.63 C 517.56 380.11 511.60 382.86 508.45 388.41 C 513.98 388.13 517.87 383.73 522.84 381.87 C 528.30 379.73 534.13 378.15 540.04 378.25 C 541.59 378.12 542.55 379.50 543.61 380.39 C 541.78 382.64 539.73 384.74 537.28 386.32 C 528.57 392.06 518.94 396.33 510.58 402.61 C 507.90 404.55 505.91 407.24 504.35 410.13 C 518.55 405.11 529.62 394.11 543.58 388.58 C 545.43 387.87 547.42 387.03 549.43 387.73 C 550.34 390.62 547.22 391.90 545.47 393.49 C 535.27 401.65 522.71 407.37 515.37 418.65 C 520.03 417.20 524.39 415.02 528.65 412.66 C 538.26 407.34 547.86 401.99 557.19 396.19 C 559.08 395.30 561.48 393.20 563.52 394.94 C 563.23 395.53 562.64 396.72 562.35 397.31 C 554.13 406.94 541.30 411.48 533.88 421.89 C 542.95 419.58 550.96 414.57 559.00 409.96 C 563.13 407.60 567.01 404.13 571.99 403.88 C 578.24 404.08 583.93 408.71 590.31 407.29 C 598.49 404.44 603.71 396.95 611.09 392.74 C 607.49 385.15 603.52 377.72 599.05 370.60 C 595.75 371.32 592.41 371.97 589.03 372.04 C 579.21 372.18 569.30 372.59 559.60 370.75 C 552.13 369.56 544.49 367.29 536.90 368.88 C 531.62 370.33 527.20 373.77 522.61 376.63 M 503.60 413.55 C 505.81 418.72 507.57 424.09 508.40 429.67 C 510.51 427.14 512.69 424.67 514.93 422.25 C 513.54 421.90 512.16 421.55 510.78 421.21 C 512.11 417.69 513.94 414.33 516.64 411.66 C 524.34 403.32 534.66 398.27 543.67 391.58 C 529.75 397.88 518.26 408.75 503.60 413.55 M 569.10 408.12 C 563.75 410.59 558.95 414.11 553.63 416.67 C 546.28 420.25 538.83 424.74 530.38 424.65 C 528.14 430.10 526.13 435.77 522.59 440.55 C 518.64 445.88 513.32 449.98 507.91 453.73 C 507.32 453.57 506.15 453.23 505.56 453.07 C 510.66 448.69 515.87 444.30 519.83 438.83 C 525.57 431.07 527.46 421.20 533.49 413.62 C 529.86 415.71 526.09 417.54 522.37 419.47 C 517.64 421.83 514.44 426.19 511.22 430.21 C 507.75 434.71 504.01 439.00 499.97 443.00 C 499.73 447.28 499.11 451.59 499.53 455.89 C 500.49 460.44 505.13 463.25 505.83 467.92 C 506.65 474.33 506.00 480.81 506.01 487.26 C 527.29 483.76 548.34 479.04 569.63 475.59 C 580.30 474.21 591.26 472.07 601.94 474.60 C 601.18 469.55 601.03 464.16 598.40 459.63 C 593.78 451.24 584.53 447.43 577.65 441.31 C 571.58 435.66 565.41 429.51 562.74 421.45 C 567.92 426.19 572.18 431.84 577.51 436.43 C 582.90 441.41 589.40 444.94 595.03 449.61 C 592.94 436.74 592.12 423.65 591.93 410.61 C 588.09 410.83 584.16 410.80 580.49 409.51 C 576.83 408.52 572.87 406.37 569.10 408.12 M 489.72 450.91 C 489.78 452.62 489.81 454.35 489.99 456.07 C 490.20 461.82 496.35 464.86 497.28 470.40 C 498.31 476.41 497.19 482.53 497.01 488.58 C 498.91 488.32 500.82 488.07 502.74 487.81 C 502.45 481.84 502.93 475.87 502.66 469.91 C 502.69 466.04 499.56 463.39 497.88 460.22 C 495.09 455.72 496.31 450.22 496.95 445.32 C 494.59 447.24 492.16 449.08 489.72 450.91 M 560.36 481.42 C 540.23 485.12 520.23 489.59 499.95 492.48 C 485.67 494.19 471.25 493.55 456.93 492.77 C 446.96 492.01 436.76 490.75 427.65 486.36 C 424.29 484.81 421.85 481.94 419.57 479.12 C 415.68 486.97 413.92 495.57 411.88 504.03 C 409.77 513.02 403.35 520.27 401.42 529.32 C 399.75 536.68 400.01 544.28 399.31 551.76 C 396.60 577.62 394.03 603.54 389.25 629.13 C 386.14 647.70 381.62 666.12 380.85 685.01 C 380.57 692.12 380.21 699.52 382.75 706.32 C 384.24 710.45 386.16 714.51 386.57 718.95 C 387.35 726.81 386.12 734.69 385.29 742.50 C 382.77 763.65 378.32 784.58 377.28 805.90 C 376.39 822.12 375.70 838.37 376.66 854.60 C 377.70 872.51 377.51 890.45 376.71 908.36 C 389.62 914.80 404.43 916.03 418.66 915.93 C 421.93 909.63 424.41 902.95 425.93 896.02 C 430.57 878.58 436.06 861.27 443.93 844.99 C 446.08 840.32 448.39 835.67 449.54 830.64 C 450.89 824.49 449.69 818.21 449.92 812.00 C 450.25 797.00 457.03 782.97 457.17 767.95 C 457.32 763.15 455.28 758.74 453.66 754.34 C 451.77 749.37 453.36 744.06 454.04 739.02 C 455.93 728.32 455.22 717.42 454.97 706.63 C 453.21 711.46 451.57 716.35 450.48 721.38 C 449.07 727.58 448.65 733.98 446.95 740.12 C 445.15 729.88 448.15 719.63 450.73 709.80 C 452.64 702.66 456.68 696.40 459.60 689.68 C 464.86 677.65 471.58 666.34 477.65 654.71 C 483.16 645.30 487.88 635.28 490.24 624.59 C 492.16 615.78 490.83 606.70 488.60 598.09 C 487.76 594.49 484.60 592.06 481.36 590.68 C 476.21 588.41 470.20 588.87 465.11 591.07 C 461.54 592.57 459.41 595.99 456.95 598.78 C 457.91 596.04 458.34 592.75 460.87 590.93 C 468.57 584.97 479.80 584.86 487.63 590.66 C 485.83 584.27 484.39 577.25 479.67 572.28 C 475.82 569.32 470.61 570.64 466.14 569.99 C 471.23 566.56 478.78 565.87 483.31 570.60 C 487.78 576.05 489.98 583.00 491.26 589.84 C 492.68 597.82 494.47 605.75 495.56 613.79 C 496.88 624.56 499.37 635.16 500.03 646.01 C 503.08 666.73 502.40 687.98 507.80 708.34 C 509.78 715.37 514.56 721.16 516.80 728.09 C 519.88 737.38 520.29 747.26 520.66 756.96 C 521.09 768.63 520.76 780.32 520.48 791.99 C 520.29 802.70 521.24 813.39 522.39 824.03 C 523.17 831.95 527.22 839.09 527.97 847.02 C 530.56 864.64 525.89 882.43 528.97 900.01 C 529.73 903.89 530.65 908.44 534.38 910.59 C 541.85 914.89 551.07 915.10 559.29 913.13 C 563.87 911.89 569.05 909.66 570.75 904.83 C 573.48 896.08 573.21 886.80 573.81 877.76 C 575.06 865.18 575.52 852.51 577.58 840.02 C 580.17 823.74 583.25 807.49 584.23 791.01 C 584.89 782.50 581.30 774.47 581.05 766.04 C 580.15 753.04 581.53 740.00 580.61 727.01 C 579.90 718.79 575.21 711.42 575.25 703.07 C 574.82 686.87 579.10 671.06 580.87 655.04 C 581.59 646.00 583.99 637.10 583.55 627.99 C 583.03 613.65 582.52 599.31 581.94 584.98 C 581.94 578.14 581.40 570.88 584.71 564.63 C 585.03 571.78 584.46 578.94 585.05 586.08 C 586.00 598.10 586.04 610.16 586.24 622.21 C 587.08 618.73 587.91 615.26 588.86 611.81 C 594.33 592.74 594.82 572.71 594.64 553.00 C 594.43 540.32 595.07 527.64 594.92 514.96 C 595.33 502.17 594.76 489.35 595.85 476.58 C 583.91 477.22 572.08 479.13 560.36 481.42 M 529.15 910.07 C 528.23 912.83 527.29 915.59 526.38 918.37 C 536.72 922.14 547.74 925.90 558.89 923.83 C 564.97 923.14 565.74 915.93 569.06 912.00 C 564.71 914.48 560.05 916.63 555.02 917.15 C 546.00 918.25 535.59 917.21 529.15 910.07 M 377.18 917.01 C 388.53 922.09 401.20 923.31 413.52 923.31 C 414.13 921.99 414.75 920.69 415.37 919.39 C 402.20 919.33 388.29 918.14 376.77 911.19 C 376.88 913.12 377.01 915.06 377.18 917.01 M 374.15 918.55 C 380.04 923.18 381.38 931.16 386.86 936.13 C 391.15 940.48 397.82 942.63 403.78 940.98 C 409.68 938.03 413.78 931.50 413.13 924.80 C 407.44 925.66 401.66 926.56 395.92 925.68 C 388.36 924.48 380.45 923.24 374.15 918.55 M 349.75 935.73 C 335.89 945.37 320.86 954.19 304.04 957.29 C 296.27 959.39 287.66 962.27 282.87 969.15 C 283.12 973.10 286.71 975.56 290.04 976.94 C 299.15 980.99 309.37 979.99 319.05 979.63 C 343.33 977.84 367.72 978.38 391.99 980.19 C 401.20 980.65 411.44 981.01 419.28 975.32 C 425.26 971.17 425.36 962.79 423.84 956.39 C 421.48 948.11 417.97 940.16 416.43 931.65 C 414.30 936.60 411.56 942.10 406.17 944.12 C 399.26 946.44 391.20 945.08 385.58 940.39 C 378.78 935.19 375.86 926.87 371.78 919.67 C 364.27 924.80 357.35 930.72 349.75 935.73 M 525.90 921.53 C 523.78 927.69 518.25 931.78 515.98 937.86 C 521.28 934.52 526.65 930.76 533.00 929.85 C 538.92 928.95 545.20 931.35 548.98 935.99 C 551.52 938.90 553.22 942.90 556.97 944.50 C 559.25 944.69 561.25 943.34 563.29 942.53 C 562.97 936.95 562.58 931.33 563.45 925.78 C 551.00 929.60 537.57 926.48 525.90 921.53 M 518.19 939.20 C 514.66 941.49 513.22 945.62 510.99 948.99 C 506.02 957.14 498.29 963.08 492.80 970.84 C 491.21 973.25 489.48 976.30 490.66 979.26 C 500.18 986.32 512.37 988.14 523.93 988.92 C 533.90 989.83 544.21 989.17 553.63 985.58 C 560.38 983.14 564.06 975.92 564.58 969.11 C 564.89 961.27 563.86 953.46 563.60 945.63 C 561.07 946.80 558.29 948.65 555.42 947.52 C 550.88 945.61 548.81 940.78 545.56 937.42 C 542.22 933.65 536.84 932.02 531.96 933.04 C 526.99 934.05 522.36 936.38 518.19 939.20 Z" />
<path fill="#020202" opacity="1.00" d=" M 495.95 82.20 C 498.09 76.95 503.77 74.54 509.03 73.78 C 513.03 73.25 518.02 73.26 520.44 77.13 C 516.24 76.46 511.92 75.92 507.72 76.86 C 503.37 77.55 499.74 80.17 495.95 82.20 Z" />
<path fill="#020202" opacity="1.00" d=" M 460.27 82.74 C 464.96 75.40 477.43 72.16 483.29 79.77 C 487.53 86.93 485.21 95.69 485.68 103.56 C 490.59 104.54 495.51 103.37 500.42 103.17 C 497.07 105.58 492.87 105.96 488.99 106.96 C 492.45 106.99 495.90 106.70 499.37 106.71 C 495.94 109.54 491.20 109.59 487.03 108.85 C 483.59 108.08 482.12 104.22 482.29 101.02 C 482.48 94.95 483.67 88.74 482.11 82.75 C 480.42 79.01 475.73 77.69 471.95 78.27 C 467.70 78.65 463.99 80.88 460.27 82.74 Z" />
<path fill="#020202" opacity="1.00" d=" M 501.04 507.97 C 504.83 503.92 508.19 499.42 512.55 495.94 C 511.62 499.72 509.93 503.32 507.34 506.26 C 499.10 516.05 489.89 525.19 478.98 531.99 C 471.40 536.60 463.99 541.89 455.33 544.26 C 460.29 538.95 467.13 536.13 473.02 532.04 C 483.47 525.42 492.57 516.93 501.04 507.97 Z" />
<path fill="#020202" opacity="1.00" d=" M 565.18 660.04 C 567.25 664.73 567.63 669.93 567.37 674.99 C 567.01 681.64 566.60 688.36 564.85 694.82 C 563.30 700.67 559.87 705.75 556.97 710.99 C 555.25 714.11 553.54 717.26 551.43 720.14 C 550.48 711.69 556.74 705.06 559.78 697.74 C 564.91 685.84 563.46 672.58 565.18 660.04 Z" />
<path fill="#020202" opacity="1.00" d=" M 559.73 726.72 C 564.25 722.37 566.86 716.59 569.90 711.20 C 570.20 719.00 565.31 725.76 559.88 730.86 C 555.05 734.84 549.39 738.82 542.83 738.52 C 548.60 734.80 554.99 731.84 559.73 726.72 Z" />
</g>
<g id="#f0b58bff">
<path fill="#f0b58b" opacity="1.00" d=" M 500.01 58.12 C 505.62 56.97 510.90 54.46 515.32 50.80 C 517.41 55.58 518.73 60.82 521.98 65.00 C 523.62 67.22 526.56 68.58 527.27 71.41 C 528.13 77.14 527.32 83.03 528.17 88.74 C 528.90 91.16 531.75 90.17 533.30 89.16 C 537.69 86.86 538.10 81.41 540.60 77.59 C 542.71 83.84 542.78 90.88 539.85 96.89 C 538.51 100.63 535.71 103.55 533.95 107.05 C 532.72 113.97 533.81 121.05 533.53 128.04 C 533.34 135.29 534.21 142.94 538.71 148.92 C 538.30 155.57 533.52 160.60 529.68 165.61 C 525.76 170.00 522.12 175.05 516.61 177.54 C 513.48 179.12 509.69 180.65 508.38 184.19 C 507.47 188.16 509.34 191.95 511.63 195.07 C 509.75 194.91 507.87 194.73 506.01 194.54 C 504.90 189.63 503.87 184.64 502.06 179.94 C 495.16 175.10 486.03 173.31 480.69 166.34 C 478.40 163.09 476.07 159.11 477.09 154.99 C 478.00 149.56 476.76 144.08 475.45 138.83 C 481.80 144.75 490.93 147.92 499.56 146.40 C 505.30 144.65 510.92 141.91 515.33 137.77 C 509.07 139.42 503.67 144.10 496.95 143.93 C 489.75 143.59 482.56 140.75 477.59 135.42 C 466.55 123.73 461.08 108.01 458.32 92.44 C 457.28 85.38 456.54 78.21 457.09 71.08 C 457.52 65.70 460.31 60.96 462.85 56.33 C 466.16 58.46 469.99 59.55 473.92 59.69 C 482.63 60.66 491.43 59.81 500.01 58.12 M 495.95 82.20 C 499.74 80.17 503.37 77.55 507.72 76.86 C 511.92 75.92 516.24 76.46 520.44 77.13 C 518.02 73.26 513.03 73.25 509.03 73.78 C 503.77 74.54 498.09 76.95 495.95 82.20 M 460.27 82.74 C 463.99 80.88 467.70 78.65 471.95 78.27 C 475.73 77.69 480.42 79.01 482.11 82.75 C 483.67 88.74 482.48 94.95 482.29 101.02 C 482.12 104.22 483.59 108.08 487.03 108.85 C 491.20 109.59 495.94 109.54 499.37 106.71 C 495.90 106.70 492.45 106.99 488.99 106.96 C 492.87 105.96 497.07 105.58 500.42 103.17 C 495.51 103.37 490.59 104.54 485.68 103.56 C 485.21 95.69 487.53 86.93 483.29 79.77 C 477.43 72.16 464.96 75.40 460.27 82.74 Z" />
<path fill="#f0b58b" opacity="1.00" d=" M 450.79 86.09 C 451.86 86.43 452.94 86.77 454.02 87.12 C 454.70 93.96 456.13 100.69 458.06 107.28 C 455.98 104.62 453.29 102.44 451.52 99.55 C 449.94 95.27 450.69 90.55 450.79 86.09 Z" />
<path fill="#f0b58b" opacity="1.00" d=" M 522.61 376.63 C 527.20 373.77 531.62 370.33 536.90 368.88 C 544.49 367.29 552.13 369.56 559.60 370.75 C 569.30 372.59 579.21 372.18 589.03 372.04 C 592.41 371.97 595.75 371.32 599.05 370.60 C 603.52 377.72 607.49 385.15 611.09 392.74 C 603.71 396.95 598.49 404.44 590.31 407.29 C 583.93 408.71 578.24 404.08 571.99 403.88 C 567.01 404.13 563.13 407.60 559.00 409.96 C 550.96 414.57 542.95 419.58 533.88 421.89 C 541.30 411.48 554.13 406.94 562.35 397.31 C 562.64 396.72 563.23 395.53 563.52 394.94 C 561.48 393.20 559.08 395.30 557.19 396.19 C 547.86 401.99 538.26 407.34 528.65 412.66 C 524.39 415.02 520.03 417.20 515.37 418.65 C 522.71 407.37 535.27 401.65 545.47 393.49 C 547.22 391.90 550.34 390.62 549.43 387.73 C 547.42 387.03 545.43 387.87 543.58 388.58 C 529.62 394.11 518.55 405.11 504.35 410.13 C 505.91 407.24 507.90 404.55 510.58 402.61 C 518.94 396.33 528.57 392.06 537.28 386.32 C 539.73 384.74 541.78 382.64 543.61 380.39 C 542.55 379.50 541.59 378.12 540.04 378.25 C 534.13 378.15 528.30 379.73 522.84 381.87 C 517.87 383.73 513.98 388.13 508.45 388.41 C 511.60 382.86 517.56 380.11 522.61 376.63 Z" />
<path fill="#f0b58b" opacity="1.00" d=" M 374.15 918.55 C 380.45 923.24 388.36 924.48 395.92 925.68 C 401.66 926.56 407.44 925.66 413.13 924.80 C 413.78 931.50 409.68 938.03 403.78 940.98 C 397.82 942.63 391.15 940.48 386.86 936.13 C 381.38 931.16 380.04 923.18 374.15 918.55 Z" />
<path fill="#f0b58b" opacity="1.00" d=" M 525.90 921.53 C 537.57 926.48 551.00 929.60 563.45 925.78 C 562.58 931.33 562.97 936.95 563.29 942.53 C 561.25 943.34 559.25 944.69 556.97 944.50 C 553.22 942.90 551.52 938.90 548.98 935.99 C 545.20 931.35 538.92 928.95 533.00 929.85 C 526.65 930.76 521.28 934.52 515.98 937.86 C 518.25 931.78 523.78 927.69 525.90 921.53 Z" />
</g>
<g id="#4d4d4dff">
<path fill="#4d4d4d" opacity="1.00" d=" M 541.65 146.19 C 543.40 146.29 545.16 146.38 546.92 146.48 C 546.60 151.21 546.57 156.00 545.52 160.65 C 544.38 165.69 541.14 169.93 537.68 173.63 C 533.58 178.03 528.01 180.59 523.56 184.57 C 520.22 187.43 517.53 190.93 514.85 194.38 C 513.51 191.72 511.75 189.05 511.78 185.96 C 513.77 183.36 516.93 182.15 519.65 180.50 C 524.62 177.73 528.30 173.28 531.98 169.05 C 535.19 165.17 538.42 161.20 540.62 156.64 C 542.27 153.40 541.79 149.68 541.65 146.19 Z" />
<path fill="#4d4d4d" opacity="1.00" d=" M 466.22 161.12 C 468.30 159.58 470.41 158.10 472.56 156.67 C 474.01 161.13 475.39 165.85 478.72 169.34 C 484.32 175.45 492.55 177.87 500.04 180.82 C 500.92 185.46 501.98 190.06 502.98 194.68 C 496.54 191.07 489.40 188.27 484.22 182.82 C 479.93 178.71 477.77 172.76 472.81 169.29 C 469.79 167.31 467.70 164.36 466.22 161.12 Z" />
<path fill="#4d4d4d" opacity="1.00" d=" M 505.82 197.43 C 507.90 197.48 509.99 197.51 512.08 197.52 C 511.38 203.01 510.56 208.52 508.94 213.83 C 502.91 234.22 496.33 254.45 491.03 275.06 C 488.66 283.87 487.50 292.97 486.79 302.06 C 485.58 328.22 501.63 351.83 499.74 378.04 C 499.48 387.04 497.65 395.95 497.82 404.96 C 497.92 414.95 505.14 423.06 505.54 433.02 C 503.83 434.94 502.14 436.87 500.47 438.82 C 501.11 429.79 497.90 421.25 495.20 412.81 C 491.19 401.18 494.85 388.91 495.05 377.01 C 495.74 364.75 492.37 352.80 488.83 341.20 C 486.26 333.02 481.90 325.38 480.53 316.85 C 478.28 300.92 483.05 285.21 486.79 269.90 C 491.61 249.88 498.74 230.54 504.57 210.83 C 505.76 206.47 505.81 201.92 505.82 197.43 Z" />
<path fill="#4d4d4d" opacity="1.00" d=" M 600.78 367.18 C 603.48 365.11 606.23 363.10 609.00 361.12 C 612.16 365.86 615.71 370.30 619.30 374.72 C 622.79 379.06 624.39 384.48 626.02 389.72 C 622.23 391.49 618.45 393.28 614.71 395.14 C 611.57 385.14 606.27 376.04 600.78 367.18 Z" />
<path fill="#4d4d4d" opacity="1.00" d=" M 489.72 450.91 C 492.16 449.08 494.59 447.24 496.95 445.32 C 496.31 450.22 495.09 455.72 497.88 460.22 C 499.56 463.39 502.69 466.04 502.66 469.91 C 502.93 475.87 502.45 481.84 502.74 487.81 C 500.82 488.07 498.91 488.32 497.01 488.58 C 497.19 482.53 498.31 476.41 497.28 470.40 C 496.35 464.86 490.20 461.82 489.99 456.07 C 489.81 454.35 489.78 452.62 489.72 450.91 Z" />
<path fill="#4d4d4d" opacity="1.00" d=" M 529.15 910.07 C 535.59 917.21 546.00 918.25 555.02 917.15 C 560.05 916.63 564.71 914.48 569.06 912.00 C 565.74 915.93 564.97 923.14 558.89 923.83 C 547.74 925.90 536.72 922.14 526.38 918.37 C 527.29 915.59 528.23 912.83 529.15 910.07 Z" />
<path fill="#4d4d4d" opacity="1.00" d=" M 377.18 917.01 C 377.01 915.06 376.88 913.12 376.77 911.19 C 388.29 918.14 402.20 919.33 415.37 919.39 C 414.75 920.69 414.13 921.99 413.52 923.31 C 401.20 923.31 388.53 922.09 377.18 917.01 Z" />
<path fill="#4d4d4d" opacity="1.00" d=" M 349.75 935.73 C 357.35 930.72 364.27 924.80 371.78 919.67 C 375.86 926.87 378.78 935.19 385.58 940.39 C 391.20 945.08 399.26 946.44 406.17 944.12 C 411.56 942.10 414.30 936.60 416.43 931.65 C 417.97 940.16 421.48 948.11 423.84 956.39 C 425.36 962.79 425.26 971.17 419.28 975.32 C 411.44 981.01 401.20 980.65 391.99 980.19 C 367.72 978.38 343.33 977.84 319.05 979.63 C 309.37 979.99 299.15 980.99 290.04 976.94 C 286.71 975.56 283.12 973.10 282.87 969.15 C 287.66 962.27 296.27 959.39 304.04 957.29 C 320.86 954.19 335.89 945.37 349.75 935.73 Z" />
<path fill="#4d4d4d" opacity="1.00" d=" M 518.19 939.20 C 522.36 936.38 526.99 934.05 531.96 933.04 C 536.84 932.02 542.22 933.65 545.56 937.42 C 548.81 940.78 550.88 945.61 555.42 947.52 C 558.29 948.65 561.07 946.80 563.60 945.63 C 563.86 953.46 564.89 961.27 564.58 969.11 C 564.06 975.92 560.38 983.14 553.63 985.58 C 544.21 989.17 533.90 989.83 523.93 988.92 C 512.37 988.14 500.18 986.32 490.66 979.26 C 489.48 976.30 491.21 973.25 492.80 970.84 C 498.29 963.08 506.02 957.14 510.99 948.99 C 513.22 945.62 514.66 941.49 518.19 939.20 Z" />
</g>
<g id="#006330ff">
<path fill="var(--shirt-color, grey)" opacity="1.00" d=" M 551.07 147.89 C 554.71 150.63 558.28 153.50 562.21 155.84 C 568.20 159.45 574.84 161.74 581.00 165.01 C 595.24 172.74 609.05 181.27 622.23 190.71 C 616.82 191.70 611.23 192.57 606.44 195.42 C 599.95 199.07 595.28 205.09 591.24 211.19 C 585.63 219.42 583.06 229.29 581.72 239.05 C 581.15 241.58 582.14 243.99 583.53 246.08 C 586.31 236.54 587.39 226.36 592.45 217.61 C 597.09 209.62 602.33 201.10 610.94 196.93 C 615.31 194.93 620.12 193.33 624.98 193.74 C 628.00 194.80 630.21 197.29 632.51 199.42 C 637.59 204.52 642.61 210.22 644.39 217.38 C 645.41 221.68 646.60 226.03 649.22 229.69 C 649.52 226.84 649.63 223.99 649.71 221.14 C 655.28 227.86 663.02 232.05 670.19 236.78 C 678.95 242.47 687.94 248.17 694.63 256.35 C 703.00 265.20 708.49 276.29 716.93 285.07 C 725.00 293.93 731.85 304.85 732.57 317.11 C 732.95 322.29 729.60 326.71 726.42 330.45 C 717.40 340.49 705.37 346.93 694.29 354.34 C 681.15 365.19 665.61 372.62 649.85 378.82 C 642.86 381.63 636.10 384.95 629.25 388.06 C 627.72 382.39 626.00 376.51 621.99 372.04 C 618.43 368.02 614.82 363.98 612.23 359.23 C 625.25 351.32 636.33 340.76 646.71 329.70 C 652.19 323.77 658.16 318.19 665.18 314.13 C 671.90 309.83 679.51 307.06 685.89 302.23 C 680.48 302.53 675.56 304.91 670.67 307.00 C 674.30 302.14 678.86 297.83 684.55 295.50 C 692.41 291.69 701.35 290.90 709.13 286.90 C 704.50 286.55 699.84 287.06 695.39 288.37 C 689.01 290.21 682.45 292.06 676.97 295.95 C 673.43 298.42 670.88 301.97 668.43 305.45 C 666.81 304.34 665.21 303.23 663.62 302.11 C 667.48 291.49 675.07 283.00 681.72 274.08 C 675.59 276.88 671.92 282.73 667.94 287.86 C 665.03 291.69 662.94 296.04 661.14 300.48 C 649.71 292.24 637.82 284.26 624.39 279.67 C 612.63 275.47 598.84 278.35 589.45 286.49 C 587.58 288.15 586.49 290.44 585.38 292.63 C 591.22 289.54 596.60 285.58 602.89 283.35 C 593.75 296.84 582.77 308.93 572.39 321.44 C 571.21 322.95 570.16 324.57 569.12 326.18 C 576.23 321.80 581.58 315.27 587.23 309.24 C 595.01 300.70 601.61 291.21 608.13 281.70 C 606.18 289.11 603.99 296.52 600.52 303.39 C 594.85 314.87 588.11 326.20 586.02 339.02 C 584.50 348.98 587.39 358.85 589.60 368.48 C 580.00 368.46 570.31 369.08 560.81 367.28 C 552.25 365.83 543.32 363.17 534.70 365.72 C 527.77 368.16 522.08 373.00 515.96 376.92 C 512.16 379.67 507.52 382.37 506.12 387.16 C 505.25 390.01 508.62 391.18 510.87 390.74 C 514.33 390.10 517.26 387.98 520.35 386.43 C 526.37 383.11 533.19 381.63 539.98 380.93 C 530.68 386.75 520.68 391.40 511.61 397.60 C 507.58 400.19 504.39 403.82 501.56 407.65 C 501.74 396.04 503.61 384.54 503.78 372.94 C 503.86 354.26 495.61 337.04 492.09 318.97 C 488.92 304.70 491.55 289.98 494.85 275.99 C 498.67 261.40 502.88 246.92 507.55 232.58 C 510.82 221.64 514.57 210.65 515.02 199.13 C 518.12 195.54 520.96 191.70 524.54 188.55 C 529.26 184.16 535.18 181.30 539.77 176.76 C 543.16 173.41 546.25 169.64 548.27 165.28 C 550.65 159.82 550.69 153.74 551.07 147.89 Z" />
<path fill="var(--shirt-color, grey)" opacity="1.00" d=" M 463.68 165.37 C 465.66 168.03 467.96 170.43 470.60 172.45 C 475.19 175.90 477.42 181.48 481.65 185.29 C 487.74 191.29 496.02 194.03 503.67 197.45 C 502.63 204.77 500.38 211.82 497.66 218.67 C 492.68 233.89 487.34 249.03 483.63 264.64 C 479.72 280.83 474.75 297.27 476.30 314.13 C 476.91 324.54 482.63 333.61 485.49 343.44 C 488.25 353.10 491.26 362.89 491.28 373.04 C 491.52 383.06 489.25 392.96 489.59 402.98 C 489.89 415.43 497.90 426.53 496.73 439.16 C 496.80 442.30 493.86 444.02 491.68 445.69 C 485.67 449.86 479.44 453.81 472.66 456.60 C 468.68 458.25 464.68 459.94 461.11 462.38 C 470.38 461.20 479.04 457.23 487.10 452.64 C 487.23 454.93 487.20 457.27 487.71 459.53 C 488.92 464.12 493.63 467.05 494.10 471.94 C 494.60 477.56 493.86 483.21 493.81 488.84 C 481.29 489.65 468.73 489.10 456.22 488.35 C 445.91 487.56 435.34 485.91 426.21 480.77 C 423.65 479.58 423.66 476.44 423.68 474.03 C 424.16 463.68 425.71 453.38 425.49 443.00 C 425.36 436.27 426.81 429.65 427.28 422.96 C 428.39 408.99 430.70 394.98 429.18 380.95 C 428.34 366.23 424.75 351.77 424.91 336.98 C 424.75 325.94 426.15 314.95 428.07 304.10 C 429.35 296.91 428.88 289.21 425.22 282.75 C 419.78 272.84 416.32 261.45 407.90 253.52 C 409.69 259.19 413.03 264.17 415.39 269.60 C 416.78 272.84 418.04 276.14 419.38 279.40 C 414.03 273.31 408.12 267.60 401.11 263.45 C 403.36 266.91 406.15 269.99 409.15 272.81 C 414.95 278.22 419.68 284.72 423.44 291.69 C 425.94 296.09 424.61 301.29 423.88 305.98 C 420.79 323.08 420.19 340.68 422.69 357.89 C 424.63 369.65 425.77 381.52 426.12 393.43 C 424.42 389.40 422.76 385.33 420.52 381.56 C 416.91 375.27 411.92 369.86 408.71 363.33 C 405.41 356.88 403.83 349.77 401.96 342.84 C 400.68 353.86 405.06 364.73 411.30 373.61 C 418.54 383.30 424.50 394.62 424.93 406.95 C 424.86 415.01 423.78 423.02 423.53 431.08 C 422.13 425.76 420.33 420.46 417.06 415.98 C 413.29 410.82 410.82 404.56 405.52 400.68 C 407.30 407.47 411.30 413.29 414.70 419.33 C 418.36 425.61 419.82 432.86 420.82 439.98 C 421.82 446.96 420.57 453.97 420.37 460.96 C 420.16 464.20 420.26 467.53 419.39 470.69 C 418.18 473.81 416.05 476.45 414.53 479.41 C 410.41 487.08 409.48 495.88 407.04 504.12 C 405.56 509.20 403.04 513.88 400.66 518.57 C 398.02 508.33 393.98 498.51 391.66 488.19 C 388.81 476.66 387.63 464.80 387.06 452.97 C 386.62 443.97 387.79 435.01 388.45 426.05 C 389.30 412.17 390.26 398.26 389.59 384.35 C 389.09 375.24 389.20 366.11 388.74 357.00 C 388.20 343.31 386.59 329.70 385.98 316.03 C 385.84 292.59 388.88 269.31 390.98 246.02 C 393.35 230.63 395.09 214.92 400.64 200.26 C 402.18 208.72 404.82 217.06 409.71 224.22 C 414.00 230.38 417.53 237.75 424.55 241.27 C 419.52 230.92 411.28 222.28 407.80 211.14 C 406.01 205.98 404.91 200.63 403.63 195.34 C 410.95 190.80 419.57 189.42 427.62 186.72 C 436.36 184.06 444.68 180.13 452.54 175.49 C 456.92 172.94 460.53 169.31 463.68 165.37 Z" />
<path fill="var(--shirt-color, grey)" opacity="1.00" d=" M 503.60 413.55 C 518.26 408.75 529.75 397.88 543.67 391.58 C 534.66 398.27 524.34 403.32 516.64 411.66 C 513.94 414.33 512.11 417.69 510.78 421.21 C 512.16 421.55 513.54 421.90 514.93 422.25 C 512.69 424.67 510.51 427.14 508.40 429.67 C 507.57 424.09 505.81 418.72 503.60 413.55 Z" />
<path fill="var(--shirt-color, grey)" opacity="1.00" d=" M 569.10 408.12 C 572.87 406.37 576.83 408.52 580.49 409.51 C 584.16 410.80 588.09 410.83 591.93 410.61 C 592.12 423.65 592.94 436.74 595.03 449.61 C 589.40 444.94 582.90 441.41 577.51 436.43 C 572.18 431.84 567.92 426.19 562.74 421.45 C 565.41 429.51 571.58 435.66 577.65 441.31 C 584.53 447.43 593.78 451.24 598.40 459.63 C 601.03 464.16 601.18 469.55 601.94 474.60 C 591.26 472.07 580.30 474.21 569.63 475.59 C 548.34 479.04 527.29 483.76 506.01 487.26 C 506.00 480.81 506.65 474.33 505.83 467.92 C 505.13 463.25 500.49 460.44 499.53 455.89 C 499.11 451.59 499.73 447.28 499.97 443.00 C 504.01 439.00 507.75 434.71 511.22 430.21 C 514.44 426.19 517.64 421.83 522.37 419.47 C 526.09 417.54 529.86 415.71 533.49 413.62 C 527.46 421.20 525.57 431.07 519.83 438.83 C 515.87 444.30 510.66 448.69 505.56 453.07 C 506.15 453.23 507.32 453.57 507.91 453.73 C 513.32 449.98 518.64 445.88 522.59 440.55 C 526.13 435.77 528.14 430.10 530.38 424.65 C 538.83 424.74 546.28 420.25 553.63 416.67 C 558.95 414.11 563.75 410.59 569.10 408.12 Z" />
<path fill="var(--pants-color, grey)" opacity="1.00" d=" M 560.36 481.42 C 572.08 479.13 583.91 477.22 595.85 476.58 C 594.76 489.35 595.33 502.17 594.92 514.96 C 595.07 527.64 594.43 540.32 594.64 553.00 C 594.82 572.71 594.33 592.74 588.86 611.81 C 587.91 615.26 587.08 618.73 586.24 622.21 C 586.04 610.16 586.00 598.10 585.05 586.08 C 584.46 578.94 585.03 571.78 584.71 564.63 C 581.40 570.88 581.94 578.14 581.94 584.98 C 582.52 599.31 583.03 613.65 583.55 627.99 C 583.99 637.10 581.59 646.00 580.87 655.04 C 579.10 671.06 574.82 686.87 575.25 703.07 C 575.21 711.42 579.90 718.79 580.61 727.01 C 581.53 740.00 580.15 753.04 581.05 766.04 C 581.30 774.47 584.89 782.50 584.23 791.01 C 583.25 807.49 580.17 823.74 577.58 840.02 C 575.52 852.51 575.06 865.18 573.81 877.76 C 573.21 886.80 573.48 896.08 570.75 904.83 C 569.05 909.66 563.87 911.89 559.29 913.13 C 551.07 915.10 541.85 914.89 534.38 910.59 C 530.65 908.44 529.73 903.89 528.97 900.01 C 525.89 882.43 530.56 864.64 527.97 847.02 C 527.22 839.09 523.17 831.95 522.39 824.03 C 521.24 813.39 520.29 802.70 520.48 791.99 C 520.76 780.32 521.09 768.63 520.66 756.96 C 520.29 747.26 519.88 737.38 516.80 728.09 C 514.56 721.16 509.78 715.37 507.80 708.34 C 502.40 687.98 503.08 666.73 500.03 646.01 C 499.37 635.16 496.88 624.56 495.56 613.79 C 494.47 605.75 492.68 597.82 491.26 589.84 C 489.98 583.00 487.78 576.05 483.31 570.60 C 478.78 565.87 471.23 566.56 466.14 569.99 C 470.61 570.64 475.82 569.32 479.67 572.28 C 484.39 577.25 485.83 584.27 487.63 590.66 C 479.80 584.86 468.57 584.97 460.87 590.93 C 458.34 592.75 457.91 596.04 456.95 598.78 C 459.41 595.99 461.54 592.57 465.11 591.07 C 470.20 588.87 476.21 588.41 481.36 590.68 C 484.60 592.06 487.76 594.49 488.60 598.09 C 490.83 606.70 492.16 615.78 490.24 624.59 C 487.88 635.28 483.16 645.30 477.65 654.71 C 471.58 666.34 464.86 677.65 459.60 689.68 C 456.68 696.40 452.64 702.66 450.73 709.80 C 448.15 719.63 445.15 729.88 446.95 740.12 C 448.65 733.98 449.07 727.58 450.48 721.38 C 451.57 716.35 453.21 711.46 454.97 706.63 C 455.22 717.42 455.93 728.32 454.04 739.02 C 453.36 744.06 451.77 749.37 453.66 754.34 C 455.28 758.74 457.32 763.15 457.17 767.95 C 457.03 782.97 450.25 797.00 449.92 812.00 C 449.69 818.21 450.89 824.49 449.54 830.64 C 448.39 835.67 446.08 840.32 443.93 844.99 C 436.06 861.27 430.57 878.58 425.93 896.02 C 424.41 902.95 421.93 909.63 418.66 915.93 C 404.43 916.03 389.62 914.80 376.71 908.36 C 377.51 890.45 377.70 872.51 376.66 854.60 C 375.70 838.37 376.39 822.12 377.28 805.90 C 378.32 784.58 382.77 763.65 385.29 742.50 C 386.12 734.69 387.35 726.81 386.57 718.95 C 386.16 714.51 384.24 710.45 382.75 706.32 C 380.21 699.52 380.57 692.12 380.85 685.01 C 381.62 666.12 386.14 647.70 389.25 629.13 C 394.03 603.54 396.60 577.62 399.31 551.76 C 400.01 544.28 399.75 536.68 401.42 529.32 C 403.35 520.27 409.77 513.02 411.88 504.03 C 413.92 495.57 415.68 486.97 419.57 479.12 C 421.85 481.94 424.29 484.81 427.65 486.36 C 436.76 490.75 446.96 492.01 456.93 492.77 C 471.25 493.55 485.67 494.19 499.95 492.48 C 520.23 489.59 540.23 485.12 560.36 481.42 M 501.04 507.97 C 492.57 516.93 483.47 525.42 473.02 532.04 C 467.13 536.13 460.29 538.95 455.33 544.26 C 463.99 541.89 471.40 536.60 478.98 531.99 C 489.89 525.19 499.10 516.05 507.34 506.26 C 509.93 503.32 511.62 499.72 512.55 495.94 C 508.19 499.42 504.83 503.92 501.04 507.97 M 565.18 660.04 C 563.46 672.58 564.91 685.84 559.78 697.74 C 556.74 705.06 550.48 711.69 551.43 720.14 C 553.54 717.26 555.25 714.11 556.97 710.99 C 559.87 705.75 563.30 700.67 564.85 694.82 C 566.60 688.36 567.01 681.64 567.37 674.99 C 567.63 669.93 567.25 664.73 565.18 660.04 M 559.73 726.72 C 554.99 731.84 548.60 734.80 542.83 738.52 C 549.39 738.82 555.05 734.84 559.88 730.86 C 565.31 725.76 570.20 719.00 569.90 711.20 C 566.86 716.59 564.25 722.37 559.73 726.72 Z" />
</g>
</svg>
