<svg xmlns="http://www.w3.org/2000/svg" viewBox="0 0 12 30" enable-background="new 0 0 12 30" width="12" height="30">
 <path fill="#f89521" d="m5 0h2v30h-2z"/>
 <path fill="#fed0a0" d="m6 .3l.6 18.1v-5.1-13z"/>
 <path fill="#ba6e29" d="m7 25.8c0 0 0 3.5 0 3.8-.5.2-2-.6-2-1.8 0-1.1 0-27.8 0-27.8h.4c0 0-.6 24.8 1.6 25.8"/>
 <path fill="#f89521" d="m0 0h2v30h-2z"/>
 <path fill="#fed0a0" d="m1 .3l.6 18.1v-5.1-13z"/>
 <path fill="#ba6e29" d="m2 25.8c0 0 0 3.5 0 3.8-.5.2-2-.6-2-1.8 0-1.1 0-27.8 0-27.8h.4c0 0-.6 24.8 1.6 25.8"/>
 <path fill="#f89521" d="m10 0h2v30h-2z"/>
 <path fill="#fed0a0" d="m11 .3l.6 18.1v-5.1-13z"/>
 <path fill="#ba6e29" d="m12 25.8c0 0 0 3.5 0 3.8-.5.2-2-.6-2-1.8 0-1.1 0-27.8 0-27.8h.4c0 0-.6 24.8 1.6 25.8"/>
</svg>
