<?xml version="1.0" encoding="UTF-8" ?>
<!DOCTYPE svg PUBLIC "-//W3C//DTD SVG 1.1//EN" "http://www.w3.org/Graphics/SVG/1.1/DTD/svg11.dtd">
<svg width="1000pt" height="1000pt" viewBox="0 0 1000 1000" version="1.1" xmlns="http://www.w3.org/2000/svg">
<g id="#020202ff">
<path fill="#020202" opacity="1.00" d=" M 451.15 26.99 C 458.09 19.78 467.08 14.36 476.97 12.47 C 493.56 9.21 511.75 14.20 523.91 26.08 C 537.36 38.07 546.48 54.94 548.07 72.98 C 549.61 93.96 547.16 115.28 540.44 135.25 C 556.82 138.22 573.26 140.84 589.74 143.19 C 599.53 144.59 610.02 144.28 618.93 149.16 C 631.81 156.86 641.04 168.96 650.84 180.02 C 660.40 192.06 669.53 204.52 677.09 217.93 C 684.27 230.36 691.79 242.58 698.86 255.08 C 704.72 265.65 710.94 276.06 718.38 285.61 C 722.82 291.33 726.32 297.93 727.42 305.16 C 729.05 315.69 728.95 326.39 728.69 337.01 C 728.27 349.40 729.07 361.89 727.13 374.18 C 728.62 376.88 729.70 379.84 729.55 382.99 C 729.15 386.42 731.64 389.00 733.39 391.64 C 737.93 398.10 738.99 406.27 739.12 413.97 C 738.99 422.28 737.90 430.60 735.80 438.65 C 733.50 447.53 728.02 455.23 721.54 461.58 C 717.76 465.21 713.16 468.29 707.93 469.25 C 704.70 469.79 701.69 467.45 700.34 464.66 C 697.84 459.64 698.07 453.78 699.38 448.46 C 697.77 447.17 695.61 446.16 695.06 444.00 C 693.82 440.21 694.46 436.15 693.71 432.29 C 692.29 428.63 689.46 425.75 687.70 422.28 C 685.00 417.04 683.03 411.47 680.93 405.98 C 677.91 398.07 675.98 389.34 669.92 383.04 C 665.19 377.10 658.12 373.32 654.20 366.72 C 651.27 362.00 651.74 354.92 656.40 351.48 C 659.04 349.46 662.49 349.65 665.64 349.75 C 665.72 345.32 666.69 340.76 665.52 336.40 C 663.98 332.55 660.59 329.73 659.28 325.75 C 657.69 320.89 656.87 315.78 654.78 311.09 C 650.18 300.45 642.32 290.73 631.63 285.81 C 627.16 292.28 621.39 298.02 614.01 301.03 C 612.47 307.34 610.16 313.51 609.75 320.05 C 608.56 339.40 610.68 358.72 611.46 378.04 C 611.90 384.69 611.97 392.01 616.47 397.40 C 620.80 404.37 628.37 408.69 631.89 416.22 C 633.64 419.26 633.80 422.85 634.94 426.10 C 636.19 428.10 638.18 429.48 639.84 431.13 C 646.41 437.25 650.29 445.48 655.07 452.93 C 659.24 459.92 662.96 467.39 669.00 473.02 C 674.39 477.86 676.57 485.03 678.39 491.79 C 682.91 509.47 686.57 527.36 690.40 545.20 C 692.34 554.75 694.59 564.29 695.32 574.04 C 695.71 584.73 699.65 594.79 701.95 605.13 C 704.33 615.30 706.25 625.60 707.17 636.01 C 707.94 644.02 706.91 652.04 706.62 660.05 C 706.31 665.90 708.39 671.49 709.37 677.19 C 712.19 692.95 713.12 708.96 714.24 724.91 C 715.34 742.93 716.24 760.99 716.26 779.05 C 716.49 797.04 717.60 815.02 716.88 833.01 C 716.38 844.99 716.42 857.00 715.27 868.95 C 714.65 876.63 713.98 884.31 713.78 892.01 C 713.44 899.50 718.22 905.81 722.56 911.44 C 735.35 927.30 750.12 941.56 761.63 958.45 C 764.48 962.93 767.60 967.57 768.27 972.97 C 768.87 977.51 766.16 982.08 762.08 984.03 C 753.71 988.14 744.27 989.27 735.08 989.78 C 723.96 990.15 712.78 989.87 701.78 988.14 C 697.04 987.27 691.88 986.27 688.34 982.73 C 685.32 979.72 682.89 976.12 679.40 973.61 C 674.36 969.61 667.29 969.83 662.26 965.81 C 656.49 961.37 654.03 954.02 653.08 947.06 C 651.48 936.93 653.62 926.73 655.95 916.89 C 657.32 911.13 659.16 905.51 661.15 899.94 C 662.43 896.77 661.58 893.32 661.21 890.06 C 658.50 872.02 655.42 854.03 651.66 836.18 C 648.73 820.55 643.31 805.55 640.02 790.01 C 635.31 771.65 632.55 752.89 628.84 734.32 C 626.42 720.98 624.12 707.58 623.20 694.04 C 623.02 678.18 622.63 661.09 613.62 647.36 C 605.40 635.20 595.79 624.06 586.65 612.59 C 583.12 612.20 579.30 611.93 576.50 609.47 C 571.13 605.05 567.36 599.07 563.62 593.29 C 554.28 577.96 546.61 561.70 537.90 546.03 C 533.03 537.38 527.08 528.30 517.42 524.56 C 509.84 521.06 500.78 522.37 493.92 526.88 C 484.75 532.33 480.00 542.27 475.40 551.43 C 464.86 574.31 451.31 595.83 435.19 615.18 C 432.39 618.81 428.77 621.65 425.00 624.20 C 422.19 622.49 419.49 620.62 416.88 618.63 C 411.65 624.18 406.45 629.78 401.97 635.96 C 392.66 647.07 384.43 659.14 378.30 672.29 C 373.62 681.49 370.54 691.38 367.41 701.18 C 361.95 722.41 356.94 743.75 352.07 765.12 C 348.58 780.39 344.12 795.47 337.91 809.86 C 330.93 826.37 322.79 842.43 317.40 859.57 C 314.45 869.61 312.36 879.89 310.50 890.19 C 310.12 892.04 310.11 893.97 310.67 895.81 C 314.71 909.41 320.46 922.72 321.50 937.01 C 322.00 943.18 321.05 949.96 316.61 954.62 C 312.03 959.78 304.90 960.93 299.03 964.00 C 293.59 966.68 290.22 972.21 284.69 974.74 C 277.90 977.91 270.30 978.55 262.94 979.26 C 252.70 980.09 242.44 980.44 232.18 980.61 C 221.09 981.33 210.06 979.64 199.00 979.10 C 193.02 978.64 186.29 978.68 181.50 974.49 C 177.79 971.49 176.11 966.20 177.73 961.66 C 179.63 956.17 184.16 952.16 188.60 948.67 C 195.42 943.49 203.07 939.56 210.71 935.77 C 220.82 930.76 229.06 922.91 237.61 915.72 C 245.52 908.94 253.30 901.54 258.05 892.12 C 260.89 886.51 260.86 880.12 261.08 874.00 C 261.65 852.31 263.77 830.69 263.96 808.99 C 265.11 766.90 266.43 723.65 282.06 683.97 C 284.43 677.97 287.23 672.15 290.49 666.59 C 293.19 662.24 293.48 657.02 294.55 652.14 C 298.99 630.87 303.32 609.58 307.10 588.19 C 303.06 583.61 303.69 577.02 305.75 571.71 C 309.76 561.42 316.51 552.56 322.29 543.25 C 327.43 534.94 333.12 526.81 336.53 517.59 C 339.07 510.88 338.31 503.59 339.37 496.61 C 340.72 487.38 343.20 477.99 348.87 470.40 C 348.24 465.34 348.71 459.99 351.59 455.65 C 356.19 447.98 363.75 442.71 371.38 438.35 C 369.75 428.71 375.14 419.96 380.38 412.38 C 385.52 404.51 391.97 396.79 392.97 387.08 C 394.64 378.41 391.51 369.94 389.59 361.60 C 381.24 379.79 371.85 397.66 359.65 413.59 C 351.37 424.22 343.11 434.97 333.17 444.12 C 325.20 451.63 316.69 458.61 307.42 464.45 C 304.05 466.74 300.28 468.63 297.56 471.72 C 295.62 475.50 294.10 479.50 292.43 483.41 C 289.89 489.18 292.92 495.18 293.85 500.95 C 295.98 511.34 293.06 521.86 289.49 531.58 C 287.96 535.57 285.77 539.75 281.80 541.77 C 278.97 543.25 275.71 542.44 272.71 542.16 C 271.38 545.93 270.23 550.00 271.23 554.01 C 273.21 562.44 280.42 569.01 280.55 577.99 C 280.87 582.36 277.31 586.43 272.95 586.72 C 268.34 586.99 264.20 584.54 260.48 582.12 C 259.00 584.34 257.57 587.04 254.76 587.76 C 249.79 589.39 244.89 586.59 240.70 584.20 C 229.92 577.93 222.11 567.06 219.14 554.99 C 214.86 540.64 215.98 525.21 220.06 510.95 C 223.27 500.27 229.13 490.62 235.68 481.68 C 241.64 472.68 249.21 464.79 254.24 455.18 C 256.37 451.41 256.43 446.95 257.44 442.83 C 259.22 433.93 263.49 425.82 267.89 417.98 C 276.57 402.17 286.42 386.91 298.37 373.36 C 306.23 362.97 311.94 351.17 317.39 339.39 C 322.62 327.94 325.02 315.45 326.16 302.98 C 326.72 296.62 326.05 290.17 327.34 283.88 C 328.74 276.58 331.65 269.51 331.57 261.98 C 331.67 246.65 329.24 230.69 334.88 215.99 C 340.52 202.33 349.49 190.32 359.47 179.52 C 369.45 169.20 380.71 159.69 394.06 154.08 C 402.61 150.15 411.97 148.68 420.99 146.22 C 428.37 144.40 435.64 142.19 442.95 140.08 C 431.23 117.15 427.34 90.26 432.35 64.98 C 435.21 51.01 441.17 37.36 451.15 26.99 M 510.10 75.65 C 506.02 68.89 500.84 62.89 495.30 57.28 C 494.33 62.94 493.67 68.66 492.23 74.23 C 489.29 69.42 486.81 64.24 482.75 60.23 C 480.00 57.54 477.68 54.47 475.30 51.47 C 475.62 59.01 477.05 66.44 477.39 73.97 C 473.70 70.03 469.36 66.74 464.43 64.53 C 460.53 62.78 458.41 58.94 455.96 55.68 C 452.44 64.01 450.56 72.90 447.24 81.30 C 445.40 86.03 443.01 90.51 440.53 94.92 C 452.73 94.00 464.95 92.88 477.17 92.67 C 479.20 94.83 478.40 98.23 478.85 100.94 C 478.72 102.75 479.67 106.47 476.88 106.46 C 464.76 107.25 452.63 107.99 440.50 108.49 C 443.62 128.54 450.14 148.43 461.92 165.12 C 467.24 172.33 473.67 179.43 482.37 182.45 C 491.50 184.70 500.86 181.11 508.76 176.68 C 516.43 172.46 521.39 164.97 525.78 157.66 C 526.94 155.54 528.37 153.45 528.68 150.99 C 530.02 141.06 530.61 131.05 531.29 121.06 C 526.45 116.32 521.87 111.08 519.79 104.51 C 515.54 104.37 511.29 104.13 507.05 104.34 C 501.81 104.45 496.53 105.71 491.33 104.51 C 492.81 100.86 494.51 97.15 497.27 94.27 C 499.53 91.99 502.88 91.57 505.89 91.02 C 512.85 89.98 519.85 89.18 526.86 88.46 C 528.85 88.16 531.09 88.16 532.68 86.72 C 536.49 83.69 539.97 80.26 543.34 76.75 C 535.88 66.85 526.12 59.16 516.48 51.55 C 517.41 60.13 513.98 68.23 510.10 75.65 M 535.35 153.85 C 537.18 164.40 538.47 175.29 536.18 185.88 C 534.18 195.34 528.41 203.31 523.37 211.34 C 518.54 219.10 513.45 226.69 508.21 234.19 C 505.53 237.78 502.44 241.34 498.29 243.24 C 495.83 244.43 492.87 243.92 490.75 242.28 C 485.19 238.19 481.02 232.60 476.47 227.48 C 470.63 220.68 464.33 214.29 458.29 207.67 C 454.87 203.94 451.72 199.75 450.34 194.81 C 448.61 188.77 448.27 182.45 447.73 176.23 C 447.03 165.55 446.14 154.88 444.76 144.27 C 432.33 149.13 419.35 152.34 406.40 155.49 C 389.01 159.98 374.41 171.40 362.32 184.30 C 353.32 194.29 345.05 205.21 339.86 217.70 C 334.35 232.19 337.22 247.90 337.19 262.96 C 337.21 272.90 332.05 282.01 332.08 291.94 C 332.03 308.04 329.93 324.48 323.28 339.29 C 320.50 345.68 316.91 351.67 313.78 357.88 C 324.09 348.19 334.90 338.92 343.89 327.94 C 345.57 325.85 347.58 324.07 349.77 322.53 C 349.43 325.44 348.25 328.17 346.39 330.42 C 339.26 339.51 331.50 348.11 323.09 356.04 C 313.74 365.36 303.61 373.99 295.50 384.48 C 289.49 392.25 283.92 400.38 278.82 408.78 C 271.67 421.19 263.75 433.48 260.40 447.59 C 271.97 454.59 283.72 461.33 295.95 467.12 C 301.16 462.48 307.17 458.90 312.69 454.68 C 325.48 444.92 337.23 433.75 347.19 421.10 C 358.62 407.47 368.93 392.87 377.12 377.05 C 382.82 365.76 390.28 354.24 389.49 341.06 C 389.50 334.31 385.51 328.62 383.92 322.27 C 382.02 315.04 382.02 307.49 380.64 300.18 C 378.48 295.65 373.90 292.98 370.79 289.16 C 366.91 284.84 364.95 279.26 363.00 273.90 C 361.39 269.41 359.85 264.65 360.94 259.84 C 363.28 262.71 364.04 266.38 365.24 269.79 C 368.12 278.61 373.45 286.41 380.16 292.77 C 379.46 283.74 378.67 274.68 376.67 265.83 C 375.40 258.51 372.64 251.39 372.95 243.86 C 375.59 248.17 376.30 253.24 377.87 257.96 C 379.57 263.28 381.79 268.45 382.98 273.93 C 384.95 282.83 385.40 291.96 386.43 300.99 C 387.51 310.03 387.69 319.34 390.83 328.00 C 392.08 331.72 395.27 334.28 397.18 337.62 C 399.64 341.88 402.02 346.48 401.96 351.53 C 397.70 347.99 396.28 342.32 393.13 337.92 C 393.42 341.94 393.54 345.98 393.08 350.00 C 391.96 358.43 396.09 366.23 397.42 374.38 C 399.27 384.40 397.54 395.28 391.87 403.84 C 385.41 414.54 375.57 423.95 374.13 436.98 C 389.36 430.85 405.86 429.59 421.98 427.63 C 435.46 425.98 447.82 419.92 460.91 416.71 C 460.20 418.54 459.28 420.46 457.31 421.18 C 450.59 424.42 443.48 426.75 436.52 429.38 C 426.13 433.23 414.96 433.49 404.12 435.17 C 392.18 436.85 379.90 439.09 369.46 445.49 C 361.37 450.42 353.76 457.56 352.16 467.35 C 358.34 465.82 364.76 465.54 371.09 466.04 C 405.94 468.44 438.69 481.88 472.95 487.61 C 489.86 490.57 507.95 488.57 523.00 479.97 C 530.41 475.65 536.41 469.43 543.20 464.28 C 559.93 451.46 577.55 439.64 596.63 430.60 C 607.05 425.59 618.58 422.80 630.19 423.49 C 628.43 419.04 626.22 414.68 622.66 411.40 C 618.66 407.51 614.13 402.91 608.10 403.07 C 597.42 402.10 587.94 408.00 579.08 413.12 C 561.22 424.31 544.15 436.81 525.37 446.48 C 514.95 451.76 503.86 457.10 491.93 457.09 C 487.47 456.83 481.64 456.29 479.91 451.36 C 484.44 452.89 489.20 454.10 494.01 453.28 C 507.61 451.42 519.52 444.03 531.13 437.19 C 547.81 427.36 563.36 415.69 580.29 406.28 C 589.54 401.04 599.92 396.51 610.82 398.21 C 606.91 391.51 606.61 383.57 606.16 376.04 C 605.55 363.45 604.33 350.90 603.75 338.31 C 599.81 347.16 595.31 355.81 589.83 363.81 C 584.14 371.89 575.29 377.53 565.72 379.80 C 557.97 381.69 549.95 381.88 542.02 382.15 C 527.68 382.35 513.34 382.85 499.00 383.00 C 492.78 382.98 486.26 383.57 480.42 380.98 C 482.80 379.91 485.31 378.98 487.96 378.91 C 509.32 377.89 530.66 376.60 552.01 375.55 C 560.36 375.06 569.14 374.08 576.22 369.24 C 583.61 364.53 588.03 356.68 592.24 349.26 C 597.41 339.79 602.76 329.98 603.96 319.08 C 604.36 314.78 605.26 310.54 606.56 306.43 C 610.34 294.21 612.84 281.65 614.86 269.04 C 615.63 265.94 615.73 262.32 617.92 259.81 C 620.05 258.19 619.74 261.91 619.67 262.99 C 618.63 273.65 617.60 284.32 615.53 294.84 C 619.24 292.19 622.93 289.41 625.88 285.90 C 630.20 280.92 632.91 274.85 636.14 269.16 C 636.73 267.81 638.09 267.22 639.30 266.54 C 638.76 272.18 636.00 277.20 633.48 282.16 C 637.88 283.39 641.94 285.64 645.34 288.70 C 655.87 297.60 661.62 310.76 664.43 323.99 C 669.88 318.42 676.12 313.61 683.10 310.11 C 687.99 307.71 692.80 304.59 698.41 304.35 C 693.84 308.44 687.95 310.51 682.92 313.93 C 677.00 317.91 671.60 322.62 666.42 327.51 C 668.04 330.20 669.99 332.81 670.73 335.92 C 672.00 341.26 670.87 346.76 669.36 351.92 C 679.27 355.85 690.19 355.86 700.15 359.61 C 708.14 362.49 715.65 366.53 723.12 370.54 C 723.61 350.34 724.51 330.07 722.61 309.92 C 722.06 303.19 719.93 296.55 715.90 291.08 C 709.49 282.36 703.20 273.52 697.93 264.06 C 688.57 247.48 678.78 231.15 669.28 214.66 C 660.27 200.40 650.20 186.74 638.68 174.39 C 632.69 167.38 626.40 160.56 619.04 154.95 C 611.09 148.18 599.97 149.16 590.27 147.82 C 574.04 145.61 557.74 143.43 541.79 139.60 C 539.59 144.30 536.10 148.63 535.35 153.85 M 451.13 156.45 C 452.35 167.60 452.33 178.87 454.19 189.94 C 454.99 195.15 457.80 199.78 461.39 203.55 C 468.37 210.94 475.49 218.21 482.03 226.01 C 486.40 230.95 490.24 236.59 495.97 240.10 C 502.90 235.54 506.77 228.04 511.42 221.45 C 515.35 215.63 518.93 209.59 522.74 203.69 C 526.57 197.60 530.61 191.33 531.82 184.10 C 533.34 174.86 532.38 165.47 531.54 156.22 C 529.27 160.37 526.75 164.38 524.23 168.39 C 519.32 176.18 511.59 181.88 503.16 185.39 C 496.02 188.19 487.65 189.96 480.39 186.55 C 467.11 180.84 458.00 168.73 451.13 156.45 M 656.69 359.97 C 656.53 364.27 659.81 367.55 662.72 370.27 C 668.38 375.29 674.15 380.45 678.05 387.02 C 683.86 398.42 685.79 411.53 692.54 422.51 C 694.27 425.39 696.68 427.94 697.68 431.21 C 698.26 435.34 698.17 439.54 698.69 443.68 C 700.30 444.13 701.93 444.58 703.56 445.02 C 703.00 449.01 702.35 453.01 702.25 457.05 C 702.14 460.38 704.02 463.23 705.71 465.94 C 709.59 464.29 713.57 462.62 716.75 459.76 C 723.88 453.48 730.08 445.49 731.99 435.99 C 734.11 425.81 735.37 415.27 733.92 404.91 C 733.34 400.79 732.33 396.60 729.90 393.15 C 728.60 391.14 726.92 389.34 726.01 387.11 C 725.15 384.33 725.23 381.36 724.33 378.60 C 722.87 375.48 719.64 373.81 716.75 372.27 C 709.95 368.95 703.22 365.40 696.00 363.08 C 687.30 360.25 677.95 360.03 669.42 356.62 C 666.75 355.72 664.11 354.21 661.21 354.39 C 658.44 354.62 656.74 357.38 656.69 359.97 M 251.77 466.81 C 242.38 480.63 230.87 493.46 225.35 509.51 C 219.83 526.32 219.24 545.21 226.28 561.68 C 230.92 571.75 239.58 580.12 250.12 583.72 C 253.43 584.98 255.85 581.91 258.12 580.08 C 253.58 574.73 248.98 568.73 248.76 561.39 C 254.20 568.72 258.91 577.61 267.85 581.20 C 270.33 582.28 274.54 582.98 275.53 579.61 C 276.62 572.98 271.89 567.40 269.31 561.70 C 265.77 555.12 265.15 546.59 269.08 540.06 C 271.69 535.67 277.67 540.05 281.01 536.95 C 283.36 534.81 284.53 531.74 285.62 528.84 C 288.11 521.47 290.47 513.81 289.92 505.93 C 289.73 499.82 286.96 494.11 286.93 487.99 C 287.17 481.83 290.41 476.39 293.07 471.01 C 281.79 465.70 271.06 459.24 260.75 452.24 C 257.78 457.11 254.83 461.99 251.77 466.81 M 616.20 575.18 C 604.13 582.00 592.69 590.66 585.20 602.52 C 594.28 612.59 602.95 623.03 611.25 633.75 C 616.23 640.36 621.34 647.09 624.13 654.99 C 627.49 663.47 628.24 672.70 628.23 681.75 C 636.28 684.48 644.55 686.82 653.09 687.30 C 670.53 688.36 688.85 686.09 704.08 676.99 C 703.05 672.02 701.35 667.13 701.28 662.01 C 701.25 653.67 702.68 645.34 701.88 637.00 C 700.74 623.87 698.06 610.90 694.64 598.18 C 692.89 591.20 690.60 584.29 690.03 577.07 C 689.57 571.68 688.71 566.35 687.60 561.06 C 683.09 560.59 678.59 560.04 674.06 559.86 C 653.77 558.78 633.62 565.05 616.20 575.18 M 312.09 586.79 C 307.82 612.28 302.42 637.56 297.47 662.91 C 296.69 666.14 294.86 668.96 293.35 671.89 C 298.18 680.75 308.27 684.57 317.42 687.25 C 333.11 691.15 350.31 692.06 365.58 686.00 C 370.04 672.41 376.60 659.51 384.68 647.72 C 389.62 640.41 395.75 634.04 401.32 627.22 C 404.91 622.84 409.38 619.32 413.70 615.70 C 401.82 606.41 389.25 597.80 375.55 591.43 C 362.25 585.46 347.48 583.44 333.00 583.89 C 325.97 584.24 318.86 584.74 312.09 586.79 M 237.64 922.66 C 230.02 929.15 222.35 935.78 213.40 940.41 C 204.61 944.98 195.49 949.34 188.16 956.15 C 185.63 958.58 183.07 961.41 182.50 965.01 C 182.09 968.34 184.71 971.23 187.61 972.45 C 191.84 974.19 196.52 974.11 201.00 974.42 C 221.00 975.18 241.06 975.64 261.04 974.17 C 267.65 973.58 274.39 973.06 280.66 970.73 C 286.44 968.62 289.82 963.03 295.05 960.04 C 300.36 956.72 306.97 955.95 311.88 951.95 C 316.16 948.33 316.86 942.28 316.39 937.03 C 315.32 924.77 310.80 913.20 307.69 901.38 C 305.39 906.87 303.19 912.62 299.09 917.06 C 295.96 920.49 290.23 920.04 286.97 917.03 C 281.33 912.09 281.33 903.40 275.60 898.50 C 271.84 895.55 267.47 893.49 263.66 890.61 C 259.24 904.11 248.13 913.75 237.64 922.66 M 693.17 912.02 C 690.44 916.71 690.12 922.98 685.42 926.36 C 680.28 930.23 671.64 931.27 667.26 925.74 C 663.17 920.39 664.38 913.19 663.57 906.92 C 660.44 916.33 658.16 926.08 657.28 935.97 C 656.85 944.25 657.53 953.41 662.84 960.18 C 667.18 965.55 674.73 965.48 680.41 968.66 C 685.01 970.85 688.03 975.06 691.46 978.64 C 694.96 982.26 700.30 982.73 705.00 983.50 C 719.92 985.31 735.16 985.50 750.01 982.97 C 754.56 981.90 759.94 980.96 762.87 976.96 C 764.05 972.59 761.25 968.45 759.16 964.83 C 750.13 950.86 738.54 938.82 727.69 926.29 C 720.94 918.30 713.58 910.36 710.17 900.26 C 703.30 901.85 696.79 905.85 693.17 912.02 Z" />
<path fill="#020202" opacity="1.00" d=" M 479.91 136.67 C 486.43 129.07 488.19 119.03 491.00 109.75 C 493.89 121.88 492.65 134.54 491.73 146.85 C 488.30 142.91 484.66 139.04 479.91 136.67 Z" />
<path fill="#020202" opacity="1.00" d=" M 639.27 635.40 C 641.61 635.50 643.38 637.48 644.99 639.00 C 651.07 646.04 651.04 655.94 655.08 663.97 C 656.31 666.53 660.60 667.93 659.20 671.23 C 655.38 671.82 651.89 668.97 650.16 665.78 C 646.16 658.45 645.97 649.65 641.48 642.53 C 640.41 640.21 638.10 638.20 638.40 635.46 L 639.27 635.40 Z" />
<path fill="#020202" opacity="1.00" d=" M 354.47 654.47 C 356.11 653.17 358.24 655.00 357.03 656.83 C 353.00 665.04 346.56 671.82 340.00 678.08 C 338.62 679.35 336.07 681.48 334.70 679.05 C 335.14 675.73 338.21 673.59 340.07 671.00 C 345.00 665.61 348.65 658.99 354.47 654.47 Z" />
</g>
<g id="#f0b58bff">
<path fill="#f0b58b" opacity="1.00" d=" M 510.10 75.65 C 513.98 68.23 517.41 60.13 516.48 51.55 C 526.12 59.16 535.88 66.85 543.34 76.75 C 539.97 80.26 536.49 83.69 532.68 86.72 C 531.09 88.16 528.85 88.16 526.86 88.46 C 519.85 89.18 512.85 89.98 505.89 91.02 C 502.88 91.57 499.53 91.99 497.27 94.27 C 494.51 97.15 492.81 100.86 491.33 104.51 C 496.53 105.71 501.81 104.45 507.05 104.34 C 511.29 104.13 515.54 104.37 519.79 104.51 C 521.87 111.08 526.45 116.32 531.29 121.06 C 530.61 131.05 530.02 141.06 528.68 150.99 C 528.37 153.45 526.94 155.54 525.78 157.66 C 521.39 164.97 516.43 172.46 508.76 176.68 C 500.86 181.11 491.50 184.70 482.37 182.45 C 473.67 179.43 467.24 172.33 461.92 165.12 C 450.14 148.43 443.62 128.54 440.50 108.49 C 452.63 107.99 464.76 107.25 476.88 106.46 C 479.67 106.47 478.72 102.75 478.85 100.94 C 478.40 98.23 479.20 94.83 477.17 92.67 C 464.95 92.88 452.73 94.00 440.53 94.92 C 443.01 90.51 445.40 86.03 447.24 81.30 C 450.56 72.90 452.44 64.01 455.96 55.68 C 458.41 58.94 460.53 62.78 464.43 64.53 C 469.36 66.74 473.70 70.03 477.39 73.97 C 477.05 66.44 475.62 59.01 475.30 51.47 C 477.68 54.47 480.00 57.54 482.75 60.23 C 486.81 64.24 489.29 69.42 492.23 74.23 C 493.67 68.66 494.33 62.94 495.30 57.28 C 500.84 62.89 506.02 68.89 510.10 75.65 M 479.91 136.67 C 484.66 139.04 488.30 142.91 491.73 146.85 C 492.65 134.54 493.89 121.88 491.00 109.75 C 488.19 119.03 486.43 129.07 479.91 136.67 Z" />
<path fill="#f0b58b" opacity="1.00" d=" M 451.13 156.45 C 458.00 168.73 467.11 180.84 480.39 186.55 C 487.65 189.96 496.02 188.19 503.16 185.39 C 511.59 181.88 519.32 176.18 524.23 168.39 C 526.75 164.38 529.27 160.37 531.54 156.22 C 532.38 165.47 533.34 174.86 531.82 184.10 C 530.61 191.33 526.57 197.60 522.74 203.69 C 518.93 209.59 515.35 215.63 511.42 221.45 C 506.77 228.04 502.90 235.54 495.97 240.10 C 490.24 236.59 486.40 230.95 482.03 226.01 C 475.49 218.21 468.37 210.94 461.39 203.55 C 457.80 199.78 454.99 195.15 454.19 189.94 C 452.33 178.87 452.35 167.60 451.13 156.45 Z" />
<path fill="#f0b58b" opacity="1.00" d=" M 616.20 575.18 C 633.62 565.05 653.77 558.78 674.06 559.86 C 678.59 560.04 683.09 560.59 687.60 561.06 C 688.71 566.35 689.57 571.68 690.03 577.07 C 690.60 584.29 692.89 591.20 694.64 598.18 C 698.06 610.90 700.74 623.87 701.88 637.00 C 702.68 645.34 701.25 653.67 701.28 662.01 C 701.35 667.13 703.05 672.02 704.08 676.99 C 688.85 686.09 670.53 688.36 653.09 687.30 C 644.55 686.82 636.28 684.48 628.23 681.75 C 628.24 672.70 627.49 663.47 624.13 654.99 C 621.34 647.09 616.23 640.36 611.25 633.75 C 602.95 623.03 594.28 612.59 585.20 602.52 C 592.69 590.66 604.13 582.00 616.20 575.18 M 639.27 635.40 L 638.40 635.46 C 638.10 638.20 640.41 640.21 641.48 642.53 C 645.97 649.65 646.16 658.45 650.16 665.78 C 651.89 668.97 655.38 671.82 659.20 671.23 C 660.60 667.93 656.31 666.53 655.08 663.97 C 651.04 655.94 651.07 646.04 644.99 639.00 C 643.38 637.48 641.61 635.50 639.27 635.40 Z" />
<path fill="#f0b58b" opacity="1.00" d=" M 312.09 586.79 C 318.86 584.74 325.97 584.24 333.00 583.89 C 347.48 583.44 362.25 585.46 375.55 591.43 C 389.25 597.80 401.82 606.41 413.70 615.70 C 409.38 619.32 404.91 622.84 401.32 627.22 C 395.75 634.04 389.62 640.41 384.68 647.72 C 376.60 659.51 370.04 672.41 365.58 686.00 C 350.31 692.06 333.11 691.15 317.42 687.25 C 308.27 684.57 298.18 680.75 293.35 671.89 C 294.86 668.96 296.69 666.14 297.47 662.91 C 302.42 637.56 307.82 612.28 312.09 586.79 M 354.47 654.47 C 348.65 658.99 345.00 665.61 340.07 671.00 C 338.21 673.59 335.14 675.73 334.70 679.05 C 336.07 681.48 338.62 679.35 340.00 678.08 C 346.56 671.82 353.00 665.04 357.03 656.83 C 358.24 655.00 356.11 653.17 354.47 654.47 Z" />
</g>
<g id="#f35e11ff">
<path fill="var(--shirt-color, grey)" opacity="1.00" d=" M 535.35 153.85 C 536.10 148.63 539.59 144.30 541.79 139.60 C 557.74 143.43 574.04 145.61 590.27 147.82 C 599.97 149.16 611.09 148.18 619.04 154.95 C 626.40 160.56 632.69 167.38 638.68 174.39 C 650.20 186.74 660.27 200.40 669.28 214.66 C 678.78 231.15 688.57 247.48 697.93 264.06 C 703.20 273.52 709.49 282.36 715.90 291.08 C 719.93 296.55 722.06 303.19 722.61 309.92 C 724.51 330.07 723.61 350.34 723.12 370.54 C 715.65 366.53 708.14 362.49 700.15 359.61 C 690.19 355.86 679.27 355.85 669.36 351.92 C 670.87 346.76 672.00 341.26 670.73 335.92 C 669.99 332.81 668.04 330.20 666.42 327.51 C 671.60 322.62 677.00 317.91 682.92 313.93 C 687.95 310.51 693.84 308.44 698.41 304.35 C 692.80 304.59 687.99 307.71 683.10 310.11 C 676.12 313.61 669.88 318.42 664.43 323.99 C 661.62 310.76 655.87 297.60 645.34 288.70 C 641.94 285.64 637.88 283.39 633.48 282.16 C 636.00 277.20 638.76 272.18 639.30 266.54 C 638.09 267.22 636.73 267.81 636.14 269.16 C 632.91 274.85 630.20 280.92 625.88 285.90 C 622.93 289.41 619.24 292.19 615.53 294.84 C 617.60 284.32 618.63 273.65 619.67 262.99 C 619.74 261.91 620.05 258.19 617.92 259.81 C 615.73 262.32 615.63 265.94 614.86 269.04 C 612.84 281.65 610.34 294.21 606.56 306.43 C 605.26 310.54 604.36 314.78 603.96 319.08 C 602.76 329.98 597.41 339.79 592.24 349.26 C 588.03 356.68 583.61 364.53 576.22 369.24 C 569.14 374.08 560.36 375.06 552.01 375.55 C 530.66 376.60 509.32 377.89 487.96 378.91 C 485.31 378.98 482.80 379.91 480.42 380.98 C 486.26 383.57 492.78 382.98 499.00 383.00 C 513.34 382.85 527.68 382.35 542.02 382.15 C 549.95 381.88 557.97 381.69 565.72 379.80 C 575.29 377.53 584.14 371.89 589.83 363.81 C 595.31 355.81 599.81 347.16 603.75 338.31 C 604.33 350.90 605.55 363.45 606.16 376.04 C 606.61 383.57 606.91 391.51 610.82 398.21 C 599.92 396.51 589.54 401.04 580.29 406.28 C 563.36 415.69 547.81 427.36 531.13 437.19 C 519.52 444.03 507.61 451.42 494.01 453.28 C 489.20 454.10 484.44 452.89 479.91 451.36 C 481.64 456.29 487.47 456.83 491.93 457.09 C 503.86 457.10 514.95 451.76 525.37 446.48 C 544.15 436.81 561.22 424.31 579.08 413.12 C 587.94 408.00 597.42 402.10 608.10 403.07 C 614.13 402.91 618.66 407.51 622.66 411.40 C 626.22 414.68 628.43 419.04 630.19 423.49 C 618.58 422.80 607.05 425.59 596.63 430.60 C 577.55 439.64 559.93 451.46 543.20 464.28 C 536.41 469.43 530.41 475.65 523.00 479.97 C 507.95 488.57 489.86 490.57 472.95 487.61 C 438.69 481.88 405.94 468.44 371.09 466.04 C 364.76 465.54 358.34 465.82 352.16 467.35 C 353.76 457.56 361.37 450.42 369.46 445.49 C 379.90 439.09 392.18 436.85 404.12 435.17 C 414.96 433.49 426.13 433.23 436.52 429.38 C 443.48 426.75 450.59 424.42 457.31 421.18 C 459.28 420.46 460.20 418.54 460.91 416.71 C 447.82 419.92 435.46 425.98 421.98 427.63 C 405.86 429.59 389.36 430.85 374.13 436.98 C 375.57 423.95 385.41 414.54 391.87 403.84 C 397.54 395.28 399.27 384.40 397.42 374.38 C 396.09 366.23 391.96 358.43 393.08 350.00 C 393.54 345.98 393.42 341.94 393.13 337.92 C 396.28 342.32 397.70 347.99 401.96 351.53 C 402.02 346.48 399.64 341.88 397.18 337.62 C 395.27 334.28 392.08 331.72 390.83 328.00 C 387.69 319.34 387.51 310.03 386.43 300.99 C 385.40 291.96 384.95 282.83 382.98 273.93 C 381.79 268.45 379.57 263.28 377.87 257.96 C 376.30 253.24 375.59 248.17 372.95 243.86 C 372.64 251.39 375.40 258.51 376.67 265.83 C 378.67 274.68 379.46 283.74 380.16 292.77 C 373.45 286.41 368.12 278.61 365.24 269.79 C 364.04 266.38 363.28 262.71 360.94 259.84 C 359.85 264.65 361.39 269.41 363.00 273.90 C 364.95 279.26 366.91 284.84 370.79 289.16 C 373.90 292.98 378.48 295.65 380.64 300.18 C 382.02 307.49 382.02 315.04 383.92 322.27 C 385.51 328.62 389.50 334.31 389.49 341.06 C 390.28 354.24 382.82 365.76 377.12 377.05 C 368.93 392.87 358.62 407.47 347.19 421.10 C 337.23 433.75 325.48 444.92 312.69 454.68 C 307.17 458.90 301.16 462.48 295.95 467.12 C 283.72 461.33 271.97 454.59 260.40 447.59 C 263.75 433.48 271.67 421.19 278.82 408.78 C 283.92 400.38 289.49 392.25 295.50 384.48 C 303.61 373.99 313.74 365.36 323.09 356.04 C 331.50 348.11 339.26 339.51 346.39 330.42 C 348.25 328.17 349.43 325.44 349.77 322.53 C 347.58 324.07 345.57 325.85 343.89 327.94 C 334.90 338.92 324.09 348.19 313.78 357.88 C 316.91 351.67 320.50 345.68 323.28 339.29 C 329.93 324.48 332.03 308.04 332.08 291.94 C 332.05 282.01 337.21 272.90 337.19 262.96 C 337.22 247.90 334.35 232.19 339.86 217.70 C 345.05 205.21 353.32 194.29 362.32 184.30 C 374.41 171.40 389.01 159.98 406.40 155.49 C 419.35 152.34 432.33 149.13 444.76 144.27 C 446.14 154.88 447.03 165.55 447.73 176.23 C 448.27 182.45 448.61 188.77 450.34 194.81 C 451.72 199.75 454.87 203.94 458.29 207.67 C 464.33 214.29 470.63 220.68 476.47 227.48 C 481.02 232.60 485.19 238.19 490.75 242.28 C 492.87 243.92 495.83 244.43 498.29 243.24 C 502.44 241.34 505.53 237.78 508.21 234.19 C 513.45 226.69 518.54 219.10 523.37 211.34 C 528.41 203.31 534.18 195.34 536.18 185.88 C 538.47 175.29 537.18 164.40 535.35 153.85 Z" />
</g>
<g id="#4d4d4dff">
<path fill="#4d4d4d" opacity="1.00" d=" M 656.69 359.97 C 656.74 357.38 658.44 354.62 661.21 354.39 C 664.11 354.21 666.75 355.72 669.42 356.62 C 677.95 360.03 687.30 360.25 696.00 363.08 C 703.22 365.40 709.95 368.95 716.75 372.27 C 719.64 373.81 722.87 375.48 724.33 378.60 C 725.23 381.36 725.15 384.33 726.01 387.11 C 726.92 389.34 728.60 391.14 729.90 393.15 C 732.33 396.60 733.34 400.79 733.92 404.91 C 735.37 415.27 734.11 425.81 731.99 435.99 C 730.08 445.49 723.88 453.48 716.75 459.76 C 713.57 462.62 709.59 464.29 705.71 465.94 C 704.02 463.23 702.14 460.38 702.25 457.05 C 702.35 453.01 703.00 449.01 703.56 445.02 C 701.93 444.58 700.30 444.13 698.69 443.68 C 698.17 439.54 698.26 435.34 697.68 431.21 C 696.68 427.94 694.27 425.39 692.54 422.51 C 685.79 411.53 683.86 398.42 678.05 387.02 C 674.15 380.45 668.38 375.29 662.72 370.27 C 659.81 367.55 656.53 364.27 656.69 359.97 Z" />
<path fill="#4d4d4d" opacity="1.00" d=" M 251.77 466.81 C 254.83 461.99 257.78 457.11 260.75 452.24 C 271.06 459.24 281.79 465.70 293.07 471.01 C 290.41 476.39 287.17 481.83 286.93 487.99 C 286.96 494.11 289.73 499.82 289.92 505.93 C 290.47 513.81 288.11 521.47 285.62 528.84 C 284.53 531.74 283.36 534.81 281.01 536.95 C 277.67 540.05 271.69 535.67 269.08 540.06 C 265.15 546.59 265.77 555.12 269.31 561.70 C 271.89 567.40 276.62 572.98 275.53 579.61 C 274.54 582.98 270.33 582.28 267.85 581.20 C 258.91 577.61 254.20 568.72 248.76 561.39 C 248.98 568.73 253.58 574.73 258.12 580.08 C 255.85 581.91 253.43 584.98 250.12 583.72 C 239.58 580.12 230.92 571.75 226.28 561.68 C 219.24 545.21 219.83 526.32 225.35 509.51 C 230.87 493.46 242.38 480.63 251.77 466.81 Z" />
<path fill="#4d4d4d" opacity="1.00" d=" M 237.64 922.66 C 248.13 913.75 259.24 904.11 263.66 890.61 C 267.47 893.49 271.84 895.55 275.60 898.50 C 281.33 903.40 281.33 912.09 286.97 917.03 C 290.23 920.04 295.96 920.49 299.09 917.06 C 303.19 912.62 305.39 906.87 307.69 901.38 C 310.80 913.20 315.32 924.77 316.39 937.03 C 316.86 942.28 316.16 948.33 311.88 951.95 C 306.97 955.95 300.36 956.72 295.05 960.04 C 289.82 963.03 286.44 968.62 280.66 970.73 C 274.39 973.06 267.65 973.58 261.04 974.17 C 241.06 975.64 221.00 975.18 201.00 974.42 C 196.52 974.11 191.84 974.19 187.61 972.45 C 184.71 971.23 182.09 968.34 182.50 965.01 C 183.07 961.41 185.63 958.58 188.16 956.15 C 195.49 949.34 204.61 944.98 213.40 940.41 C 222.35 935.78 230.02 929.15 237.64 922.66 Z" />
<path fill="#4d4d4d" opacity="1.00" d=" M 693.17 912.02 C 696.79 905.85 703.30 901.85 710.17 900.26 C 713.58 910.36 720.94 918.30 727.69 926.29 C 738.54 938.82 750.13 950.86 759.16 964.83 C 761.25 968.45 764.05 972.59 762.87 976.96 C 759.94 980.96 754.56 981.90 750.01 982.97 C 735.16 985.50 719.92 985.31 705.00 983.50 C 700.30 982.73 694.96 982.26 691.46 978.64 C 688.03 975.06 685.01 970.85 680.41 968.66 C 674.73 965.48 667.18 965.55 662.84 960.18 C 657.53 953.41 656.85 944.25 657.28 935.97 C 658.16 926.08 660.44 916.33 663.57 906.92 C 664.38 913.19 663.17 920.39 667.26 925.74 C 671.64 931.27 680.28 930.23 685.42 926.36 C 690.12 922.98 690.44 916.71 693.17 912.02 Z" />
</g>
</svg>
