<?xml version="1.0" encoding="UTF-8" ?>
<!DOCTYPE svg PUBLIC "-//W3C//DTD SVG 1.1//EN" "http://www.w3.org/Graphics/SVG/1.1/DTD/svg11.dtd">
<svg width="1000pt" height="1000pt" viewBox="0 0 1000 1000" version="1.1" xmlns="http://www.w3.org/2000/svg">
<g id="#020202ff">
<path fill="#020202" opacity="1.00" d=" M 464.08 74.10 C 474.51 63.42 488.87 55.85 504.06 56.05 C 518.19 55.91 531.71 62.55 541.66 72.33 C 555.24 85.51 562.47 103.91 565.89 122.21 C 569.33 140.91 566.30 160.01 561.19 178.10 C 575.70 179.79 589.40 185.85 601.31 194.18 C 604.72 192.23 608.55 191.13 612.50 191.66 C 612.59 187.86 613.07 183.76 615.82 180.88 C 620.79 174.60 630.04 173.46 637.08 176.61 C 638.08 172.24 640.11 167.32 644.77 165.81 C 650.44 164.15 655.91 167.47 660.52 170.42 C 664.74 173.19 668.48 176.62 672.10 180.12 C 678.66 177.19 686.31 180.37 691.80 184.26 C 703.68 194.36 710.62 208.74 717.66 222.34 C 725.51 238.29 733.97 254.01 740.21 270.69 C 741.47 273.42 741.18 276.40 740.19 279.16 C 745.02 285.92 750.00 292.59 754.55 299.56 C 758.61 303.90 764.18 306.39 769.39 309.09 C 769.81 306.66 768.60 303.42 770.82 301.68 C 775.75 303.59 779.94 306.95 784.66 309.31 C 793.89 314.19 803.39 319.92 808.74 329.24 C 815.91 341.17 816.79 355.50 816.77 369.06 C 816.44 378.38 816.14 388.15 811.74 396.61 C 808.98 401.68 805.26 406.97 799.41 408.64 C 790.29 410.91 780.66 408.55 771.60 411.24 C 763.39 413.57 753.90 414.52 746.46 409.51 C 740.72 405.39 733.93 403.04 728.37 398.66 C 722.33 394.04 717.09 388.47 712.48 382.46 C 706.74 375.27 698.43 371.08 690.90 366.14 C 686.35 363.05 682.57 359.01 679.24 354.68 C 675.83 350.07 670.33 347.75 665.02 346.13 C 656.12 343.63 648.16 338.82 639.87 334.87 C 640.15 342.76 637.78 350.37 635.93 357.95 C 633.85 366.23 631.39 374.47 627.46 382.08 C 631.55 387.51 636.63 392.34 639.22 398.75 C 642.38 405.27 643.84 412.98 640.91 419.87 C 648.47 428.57 654.60 439.33 655.08 451.09 C 655.46 454.91 657.90 458.01 659.55 461.35 C 661.84 465.60 662.95 470.33 664.18 474.97 C 666.24 475.68 668.67 476.06 670.14 477.86 C 672.02 480.15 673.11 482.95 674.28 485.65 C 679.38 498.26 683.57 511.21 688.14 524.02 C 690.38 530.55 692.83 537.13 693.51 544.05 C 693.84 546.51 692.86 548.83 691.94 551.05 C 695.96 566.90 700.44 582.68 703.10 598.84 C 704.05 622.55 715.21 644.38 717.38 667.92 C 719.43 686.21 719.17 704.72 717.13 723.00 C 715.22 739.46 709.75 755.21 707.27 771.57 C 704.42 786.23 702.77 801.08 701.23 815.92 C 700.19 825.25 700.44 834.69 701.36 844.02 C 704.35 858.72 714.58 870.95 716.73 885.91 C 717.40 892.52 722.01 897.65 724.52 903.59 C 730.43 914.96 733.49 928.36 730.00 940.97 C 728.66 945.68 725.81 950.02 721.64 952.68 C 712.12 959.13 700.10 960.60 688.88 959.61 C 678.40 958.56 668.63 953.88 660.10 947.89 C 654.46 943.29 649.71 937.20 647.86 930.07 C 646.14 924.05 646.06 917.70 644.23 911.72 C 642.51 906.21 639.64 901.16 636.82 896.17 C 633.42 890.38 631.36 883.75 631.12 877.04 C 631.39 867.98 634.31 859.30 636.82 850.67 C 641.25 831.75 639.20 812.19 637.55 793.07 C 635.46 770.79 632.77 748.57 631.18 726.25 C 629.83 712.87 629.46 699.39 630.26 685.97 C 630.82 672.89 632.43 659.56 629.11 646.70 C 624.95 630.22 617.81 614.23 606.78 601.18 C 597.57 589.59 586.60 578.58 572.73 572.82 C 569.64 573.56 566.85 575.16 563.92 576.33 C 560.57 574.36 557.34 572.04 555.21 568.73 C 552.00 564.54 550.69 558.92 546.31 555.68 C 542.81 553.05 538.90 551.03 535.04 548.99 C 524.82 543.76 514.51 538.70 504.13 533.81 C 495.34 529.76 486.71 525.27 477.52 522.15 C 469.56 530.65 461.68 539.22 453.46 547.46 C 443.46 557.78 434.11 569.65 430.60 583.85 C 429.79 586.46 430.10 589.57 428.26 591.77 C 422.92 587.76 418.39 582.78 414.11 577.68 C 407.94 581.89 401.09 585.36 396.06 591.02 C 390.39 597.24 386.31 604.66 381.90 611.77 C 376.66 621.10 371.87 631.58 362.32 637.30 C 361.75 650.55 359.85 663.72 359.27 676.97 C 358.67 690.61 354.54 703.70 351.98 717.03 C 349.13 730.77 347.61 744.74 345.41 758.60 C 342.37 782.26 339.74 806.11 341.01 830.00 C 341.57 838.05 341.14 846.12 341.47 854.18 C 343.47 856.30 345.53 858.54 346.36 861.43 C 349.75 871.89 346.49 883.96 338.76 891.70 C 334.12 897.18 328.02 902.38 326.98 909.91 C 325.29 920.35 325.51 931.17 322.11 941.29 C 320.49 945.57 318.09 949.61 314.96 952.98 C 307.13 960.06 295.88 962.52 285.61 960.71 C 272.51 958.43 260.47 951.10 251.82 941.08 C 248.66 937.52 246.96 932.82 246.84 928.09 C 246.50 919.01 249.70 910.31 252.99 902.00 C 257.81 890.33 263.22 878.92 268.45 867.43 C 271.99 859.03 275.38 850.32 275.88 841.12 C 276.77 825.75 276.30 810.35 275.61 794.98 C 275.35 780.32 272.20 765.94 270.37 751.44 C 268.64 738.29 265.85 725.31 264.43 712.13 C 261.82 690.95 267.44 669.89 273.75 649.86 C 276.36 640.65 282.88 632.71 283.34 622.90 C 284.00 614.28 286.06 605.82 288.74 597.62 C 292.33 586.16 296.56 574.92 300.80 563.69 C 303.32 557.99 305.47 552.10 306.64 545.96 C 303.20 545.64 299.77 545.41 296.33 545.21 C 295.31 538.89 298.14 532.91 300.14 527.08 C 305.55 513.57 311.02 499.76 320.30 488.35 C 327.53 479.28 335.31 470.66 342.81 461.81 C 344.68 459.84 344.86 457.03 345.78 454.61 C 346.79 451.83 349.00 449.71 350.12 446.99 C 350.69 444.37 350.31 441.62 351.01 439.03 C 351.85 436.24 353.63 433.89 355.26 431.53 C 351.93 428.91 350.59 424.05 353.55 420.61 C 357.53 416.24 362.77 413.08 365.89 407.90 C 361.92 402.66 357.40 396.93 357.56 389.99 C 357.72 383.23 358.22 376.32 360.94 370.03 C 356.33 366.27 351.77 362.44 347.43 358.37 C 332.46 368.42 318.42 380.09 306.87 394.00 C 299.29 402.36 293.47 412.58 283.80 418.82 C 269.87 428.07 253.16 431.40 237.10 434.94 C 231.29 436.34 225.14 436.21 219.43 434.42 C 209.11 431.39 200.70 424.19 193.37 416.59 C 189.14 412.05 185.08 406.55 184.96 400.09 C 184.47 386.08 184.73 371.95 187.16 358.11 C 188.43 351.70 189.79 345.05 193.53 339.56 C 197.28 334.05 202.22 329.45 207.42 325.33 C 210.71 322.89 214.11 320.38 218.09 319.24 C 219.63 319.49 220.72 320.75 221.99 321.56 C 226.05 318.71 229.69 315.32 233.59 312.26 C 233.74 310.29 233.59 308.23 234.30 306.36 C 236.69 302.79 240.89 300.76 243.02 297.01 C 243.78 292.27 242.21 287.33 243.69 282.69 C 245.62 277.67 249.74 273.99 252.45 269.43 C 255.74 263.92 258.90 258.30 261.43 252.39 C 264.89 244.40 264.62 235.04 269.74 227.75 C 276.98 217.29 288.93 210.63 301.34 208.50 C 306.64 203.06 313.23 198.05 321.07 197.49 C 325.68 197.03 330.26 198.19 334.39 200.21 C 339.46 197.58 345.24 195.98 350.96 197.10 C 357.25 198.25 363.07 201.33 367.96 205.40 C 377.40 202.54 386.39 198.44 395.27 194.19 C 401.70 191.13 407.99 187.47 415.07 186.12 C 424.73 183.93 434.66 185.20 444.45 184.72 C 437.73 166.23 435.53 146.11 438.85 126.67 C 442.03 107.27 450.26 88.30 464.08 74.10 M 528.86 103.10 C 530.71 111.04 531.05 119.36 529.23 127.34 C 522.75 119.02 516.92 109.44 507.49 104.14 C 507.51 107.79 508.07 111.40 508.18 115.05 C 508.26 119.12 506.83 123.01 505.42 126.77 C 500.43 119.31 497.51 110.36 490.51 104.34 C 491.08 112.03 489.51 119.73 486.78 126.90 C 481.45 118.17 474.57 109.58 464.84 105.64 C 459.06 117.56 458.57 131.06 456.67 143.94 C 466.45 143.57 476.22 143.29 486.01 143.18 C 487.66 143.23 489.42 143.03 491.01 143.67 C 492.58 148.71 493.82 153.93 494.28 159.20 C 493.37 160.72 491.50 160.32 490.02 160.44 C 477.52 160.47 465.03 160.87 452.53 160.33 C 449.00 169.89 447.40 180.89 451.41 190.56 C 457.31 206.63 465.22 222.40 477.48 234.59 C 484.91 241.83 495.36 247.24 505.98 245.10 C 517.93 242.63 527.05 233.47 534.09 224.02 C 540.19 215.71 545.45 206.24 546.28 195.77 C 546.70 189.49 546.75 183.18 546.79 176.89 C 546.94 173.77 544.36 171.66 542.67 169.38 C 540.27 166.53 538.63 163.15 537.43 159.65 C 528.28 159.89 519.12 160.01 509.96 159.81 C 508.09 159.61 505.71 160.04 504.54 158.17 C 505.53 154.11 507.90 150.56 509.95 146.96 C 511.22 144.16 514.74 144.80 517.26 144.21 C 528.55 142.46 539.97 141.88 551.31 140.45 C 554.34 135.59 557.58 130.11 556.07 124.14 C 549.26 114.70 539.08 108.32 528.86 103.10 M 645.40 171.38 C 642.52 173.58 642.00 177.69 642.91 181.00 C 644.45 188.45 650.45 194.08 651.57 201.66 C 645.45 198.32 642.59 191.52 639.32 185.72 C 635.79 174.89 616.14 179.73 617.95 191.01 C 620.41 199.67 629.00 205.46 630.61 214.48 L 629.02 214.57 C 624.51 211.22 621.45 206.32 617.94 202.01 C 615.94 199.70 614.56 195.98 611.05 195.79 C 606.74 195.40 601.12 198.90 602.31 203.80 C 603.58 208.81 608.25 211.86 611.87 215.16 C 624.65 225.56 638.68 235.19 647.69 249.32 C 650.22 253.05 651.59 257.41 652.20 261.86 C 643.35 264.26 634.21 265.43 625.05 265.66 C 618.79 265.86 612.24 266.45 606.73 269.70 C 604.29 271.20 601.80 273.14 600.87 275.97 C 600.07 279.95 601.64 284.80 605.60 286.51 C 611.86 289.49 618.90 290.10 625.58 291.68 C 644.37 296.08 663.71 297.71 682.34 302.79 C 690.85 305.77 696.61 313.19 702.30 319.79 C 705.39 323.41 708.72 328.04 713.98 328.18 C 721.05 328.73 727.06 324.38 732.70 320.74 C 739.36 315.88 746.17 310.88 750.98 304.06 C 746.58 296.26 740.09 289.78 736.31 281.63 C 735.09 279.68 736.43 277.57 736.88 275.61 C 732.27 259.93 723.97 245.68 716.85 231.06 C 709.39 217.01 702.77 202.04 691.41 190.60 C 687.32 186.18 681.37 184.46 675.62 183.53 C 677.22 187.73 679.40 191.66 681.18 195.77 C 678.95 194.43 676.57 193.13 675.02 190.97 C 672.88 188.11 671.50 184.65 668.65 182.38 C 663.65 178.24 658.34 174.32 652.36 171.71 C 650.19 170.93 647.49 169.87 645.40 171.38 M 559.98 181.99 C 555.61 193.84 551.08 205.71 544.66 216.63 C 543.88 218.28 542.45 219.86 542.71 221.80 C 543.31 228.40 544.04 235.29 541.74 241.67 C 539.23 248.66 534.27 254.36 530.89 260.91 C 527.65 267.17 524.16 273.31 520.25 279.19 C 515.62 286.06 512.94 294.16 507.57 300.56 C 505.16 303.52 501.00 305.15 497.31 303.74 C 491.12 301.44 487.09 295.88 483.07 290.96 C 478.34 284.74 473.42 278.66 467.91 273.11 C 458.65 263.72 450.33 253.15 444.84 241.09 C 440.10 229.97 442.63 217.64 443.85 206.06 C 444.65 200.47 443.66 194.87 442.59 189.40 C 430.25 188.72 417.11 188.85 405.94 194.80 C 393.92 201.04 381.78 207.53 368.43 210.40 C 376.62 209.47 386.19 213.71 388.61 222.09 C 390.41 227.59 388.03 233.32 384.68 237.67 C 376.62 248.02 365.86 255.75 355.40 263.48 C 348.85 268.00 344.84 275.47 343.29 283.16 C 354.04 281.68 365.18 277.65 375.90 281.45 C 382.20 283.03 387.31 289.83 385.37 296.37 C 384.41 302.00 380.84 306.94 375.96 309.86 C 368.74 314.20 360.42 316.22 352.30 318.15 C 343.64 320.12 334.69 320.57 326.13 322.99 C 320.81 324.37 315.59 326.32 310.07 326.76 C 307.44 327.01 304.80 326.54 302.19 326.87 C 299.63 328.82 298.06 331.69 296.10 334.18 C 292.21 339.22 288.16 344.20 283.53 348.59 C 281.44 350.68 278.44 351.19 275.71 351.95 C 274.77 354.91 273.87 357.88 272.97 360.86 C 275.12 361.32 277.19 362.11 278.73 363.76 C 277.49 364.30 276.25 364.84 275.00 365.37 C 274.16 369.65 272.91 374.54 275.47 378.49 C 278.52 383.22 282.29 387.76 283.43 393.43 C 284.17 396.48 283.24 399.70 280.66 401.58 C 279.99 398.29 279.98 394.75 278.23 391.79 C 275.77 387.37 272.36 383.58 269.64 379.33 C 267.97 384.48 266.26 389.64 265.38 395.00 C 264.58 399.81 263.73 404.74 261.17 408.98 C 261.83 404.64 263.02 400.37 263.25 395.96 C 263.54 390.90 263.70 385.78 265.01 380.84 C 266.18 375.69 268.59 370.97 270.74 366.19 C 259.47 367.66 247.56 365.38 238.22 358.74 C 227.26 350.83 222.05 337.65 217.59 325.39 C 211.49 329.17 205.97 333.85 201.17 339.18 C 198.37 342.28 196.20 345.96 195.15 350.02 C 191.86 362.42 190.69 375.26 189.84 388.03 C 189.56 393.73 189.17 399.82 191.79 405.09 C 194.53 410.72 199.37 414.92 204.04 418.93 C 210.84 424.73 219.00 429.44 228.05 430.29 C 233.92 430.85 239.72 429.49 245.50 428.73 C 257.43 427.12 268.56 421.94 278.86 415.91 C 288.70 410.19 294.49 400.09 301.68 391.67 C 312.74 377.95 326.00 365.98 340.92 356.61 C 333.29 355.27 326.33 351.78 319.28 348.74 C 315.62 347.03 311.31 345.63 309.50 341.65 C 314.56 342.12 319.15 344.36 323.85 346.10 C 329.90 348.43 336.10 350.31 342.24 352.36 C 338.83 346.95 334.69 341.10 335.37 334.37 C 340.04 339.28 342.62 345.76 347.52 350.49 C 353.95 357.51 362.44 362.18 369.13 368.91 C 374.14 373.89 376.42 380.72 378.86 387.17 C 379.73 389.68 380.78 392.22 380.80 394.92 C 380.83 396.17 380.21 396.85 378.92 396.97 C 376.86 394.82 375.94 391.92 374.66 389.31 C 371.95 383.23 368.46 377.46 363.90 372.60 C 362.76 379.47 361.41 386.62 362.74 393.55 C 364.93 399.25 368.30 405.42 374.40 407.62 C 381.69 410.58 389.56 411.62 396.99 414.17 C 409.04 418.19 421.23 421.91 432.83 427.15 C 442.39 431.43 452.56 434.41 462.95 435.78 C 469.06 436.64 475.17 435.37 481.29 435.32 C 479.76 436.49 478.22 437.81 476.27 438.18 C 460.85 441.52 445.14 437.01 430.89 431.23 C 419.79 426.53 408.27 422.97 396.83 419.23 C 387.85 416.18 378.14 415.36 369.69 410.81 C 366.44 416.83 359.98 420.09 356.62 425.96 C 361.95 428.32 366.99 431.73 372.85 432.63 C 380.22 433.30 387.74 432.33 395.00 434.11 C 400.66 435.47 406.24 437.16 411.63 439.37 C 419.80 442.70 426.41 448.76 434.18 452.83 C 447.70 460.11 461.67 466.74 476.36 471.34 C 484.94 474.14 494.62 473.91 502.74 469.77 C 510.36 465.92 517.57 461.31 524.92 456.98 C 533.25 452.12 540.32 445.40 548.78 440.74 C 556.24 436.13 564.71 433.65 572.99 430.96 C 591.18 425.14 610.12 422.07 629.08 420.00 C 631.79 419.65 635.26 419.46 636.57 416.58 C 639.53 411.39 637.06 405.17 634.73 400.23 C 632.00 394.02 626.52 389.77 622.77 384.26 C 618.58 389.11 613.29 393.20 607.08 395.04 C 598.64 397.48 589.76 396.72 581.09 397.06 C 571.28 397.01 561.67 399.43 552.42 402.51 C 542.92 405.62 534.75 411.78 527.72 418.75 C 526.11 420.37 524.29 421.76 522.26 422.80 C 522.61 420.10 523.79 417.61 525.67 415.65 C 531.85 408.73 538.81 402.10 547.51 398.52 C 554.39 395.69 561.63 393.80 568.94 392.48 C 579.58 390.54 590.44 391.94 601.15 390.85 C 612.68 389.79 623.15 381.26 626.47 370.15 C 630.34 357.98 633.66 345.62 636.24 333.11 C 630.74 330.62 625.05 328.58 619.14 327.31 C 620.72 325.12 623.18 323.55 625.98 324.32 C 638.32 326.61 648.98 333.74 660.41 338.52 C 669.51 342.33 679.39 343.50 688.93 345.73 C 693.93 346.99 699.45 347.02 703.84 350.05 C 701.99 350.71 700.12 351.62 698.10 351.35 C 692.26 350.88 686.50 349.75 680.69 349.07 C 685.04 354.10 689.43 359.25 695.17 362.77 C 702.09 367.01 709.23 371.19 714.74 377.27 C 717.35 380.04 719.16 383.42 721.57 386.35 C 726.32 391.79 731.82 396.54 737.91 400.44 C 732.95 392.21 730.06 382.56 730.67 372.91 C 734.71 376.87 734.92 382.84 737.35 387.69 C 740.42 394.37 743.38 401.99 749.99 405.95 C 756.62 409.77 764.58 408.18 771.58 406.38 C 780.04 403.99 788.92 406.18 797.49 404.62 C 801.69 403.70 804.50 400.09 806.69 396.64 C 811.80 388.41 811.83 378.37 812.13 369.01 C 811.91 356.69 811.36 343.71 805.23 332.68 C 802.20 326.97 797.30 322.50 791.93 319.04 C 785.89 315.09 779.87 311.12 774.16 306.72 C 774.22 317.74 769.68 328.13 764.60 337.68 C 759.55 346.46 752.90 355.27 743.22 359.17 C 736.16 362.04 728.87 357.90 723.49 353.51 C 717.75 348.71 715.81 341.06 714.91 333.95 C 711.45 333.63 708.25 332.31 705.02 331.16 C 699.71 330.14 694.28 331.06 688.93 330.95 C 678.22 331.18 667.83 327.99 657.90 324.31 C 653.35 322.56 648.20 321.63 644.65 318.02 C 646.93 318.27 649.21 318.70 651.41 319.40 C 660.41 322.25 669.62 324.44 678.95 325.92 C 686.42 327.14 694.01 326.59 701.55 326.72 C 697.53 320.81 692.90 315.23 687.35 310.69 C 682.23 306.55 675.42 306.21 669.23 304.93 C 662.48 303.52 655.68 302.41 648.86 301.47 C 637.21 299.95 625.81 297.05 614.32 294.71 C 608.72 293.37 602.45 291.99 598.62 287.34 C 595.27 282.35 594.81 274.76 599.12 270.17 C 604.80 263.72 613.58 261.12 621.91 260.66 C 630.38 260.30 638.84 259.58 647.23 258.36 C 643.31 251.09 638.41 244.33 632.32 238.72 C 622.30 228.97 609.84 221.97 600.61 211.38 C 597.25 207.81 596.84 202.67 597.78 198.08 C 586.48 190.11 573.47 184.86 559.98 181.99 M 448.29 195.04 C 449.01 208.43 445.40 222.11 448.92 235.29 C 454.33 250.92 466.39 262.79 477.18 274.84 C 483.00 281.40 487.58 288.99 493.77 295.23 C 495.79 297.05 498.09 299.23 501.01 299.15 C 502.95 298.61 504.23 296.90 505.30 295.30 C 509.22 289.08 511.84 282.13 515.98 276.04 C 519.76 270.33 523.22 264.42 526.33 258.33 C 529.41 252.17 534.02 246.87 536.67 240.48 C 538.41 236.12 538.26 231.34 538.33 226.74 C 530.97 236.85 521.45 246.59 508.87 249.55 C 498.16 252.20 486.85 248.29 478.58 241.37 C 464.04 229.43 455.42 212.08 448.29 195.04 M 314.28 206.28 C 307.46 209.67 303.60 216.54 297.95 221.31 C 294.37 220.92 297.00 216.32 297.03 214.09 C 287.56 217.64 278.34 223.24 272.98 232.07 C 269.32 238.65 269.18 246.46 266.36 253.36 C 262.41 263.08 256.84 272.10 249.99 280.03 C 245.43 285.25 247.82 292.46 246.33 298.58 C 244.52 302.28 240.90 304.62 237.89 307.29 C 239.46 324.91 251.50 342.04 268.90 346.99 C 272.21 347.56 276.40 348.86 279.15 346.23 C 286.04 339.97 290.58 331.63 296.99 324.96 C 301.06 320.96 307.05 323.84 312.00 323.01 C 319.18 321.87 325.82 318.57 332.99 317.28 C 345.86 314.82 359.05 312.67 370.97 306.94 C 376.27 304.41 380.95 299.19 380.67 293.01 C 380.31 289.20 376.77 286.64 373.28 285.85 C 362.89 282.93 352.48 287.31 342.08 287.76 C 337.17 287.89 331.66 288.23 327.58 284.99 C 328.94 282.13 332.80 283.95 335.31 283.55 C 337.93 274.28 343.87 266.22 351.31 260.22 C 361.16 252.16 371.93 244.91 379.77 234.71 C 381.84 231.94 383.75 228.57 383.06 224.98 C 382.38 220.10 378.04 216.02 373.07 215.88 C 369.04 215.72 365.71 218.37 362.68 220.69 C 356.84 225.45 351.24 230.52 345.87 235.81 C 342.15 239.44 339.13 243.71 335.57 247.47 C 334.68 248.57 333.39 249.09 331.99 248.87 C 333.13 242.99 337.78 238.78 341.09 234.07 C 346.99 225.96 354.36 219.01 362.64 213.39 C 362.60 212.48 362.52 210.66 362.48 209.75 C 356.01 205.40 347.73 201.48 339.98 204.93 C 329.38 208.96 325.71 221.70 315.31 225.90 C 317.21 217.53 323.45 211.25 328.47 204.62 C 323.71 204.10 318.55 203.64 314.28 206.28 M 755.34 307.13 C 752.91 311.56 749.45 315.32 745.53 318.48 C 737.71 324.82 728.97 330.23 719.36 333.35 C 721.23 338.83 722.03 345.30 726.75 349.23 C 729.97 351.83 733.71 354.35 737.97 354.56 C 742.71 354.24 746.54 350.92 749.88 347.84 C 759.09 338.63 764.85 326.55 768.58 314.21 C 763.78 312.66 759.35 310.17 755.34 307.13 M 223.38 326.41 C 226.14 333.94 229.33 341.48 234.16 347.94 C 242.26 357.89 255.71 362.12 268.22 361.61 C 268.89 358.40 269.68 355.23 270.68 352.12 C 266.77 351.53 262.89 350.52 259.42 348.58 C 247.45 342.04 239.00 330.26 234.81 317.45 C 231.40 320.92 227.57 323.94 223.38 326.41 M 302.05 573.25 C 296.29 589.47 289.42 605.68 288.09 623.03 C 287.86 629.44 293.37 634.29 293.54 640.60 C 289.59 639.85 287.76 636.15 285.94 633.02 C 284.59 636.19 283.13 639.32 281.66 642.44 C 293.74 653.23 310.04 658.31 326.02 658.89 C 336.39 659.25 347.52 657.47 355.65 650.52 C 356.07 646.87 356.48 643.21 356.88 639.56 C 353.05 641.12 349.85 643.71 346.97 646.63 C 344.52 646.89 345.14 643.33 346.08 642.05 C 350.30 635.53 359.00 634.70 364.09 629.13 C 370.57 622.18 374.41 613.35 379.51 605.44 C 383.73 598.79 387.77 591.94 393.30 586.27 C 398.21 581.00 404.54 577.40 410.57 573.58 C 401.17 564.33 389.04 558.46 376.72 554.14 C 355.57 546.81 332.87 549.06 310.96 546.48 C 309.64 555.90 304.99 564.31 302.05 573.25 M 623.18 553.40 C 607.74 558.17 592.64 563.98 577.74 570.22 C 594.61 577.07 606.97 591.24 617.28 605.74 C 627.19 620.85 634.48 637.98 636.73 655.99 C 650.93 661.33 666.83 659.87 680.96 655.08 C 689.36 652.00 698.25 647.78 703.07 639.86 C 706.84 632.60 702.34 624.82 701.49 617.41 C 699.99 622.76 699.93 628.39 698.36 633.71 C 697.60 632.58 696.48 631.54 696.39 630.11 C 695.86 624.09 696.53 618.03 697.74 612.13 C 699.53 603.37 696.69 594.64 694.94 586.12 C 692.01 574.64 689.28 563.10 686.78 551.52 C 683.50 551.52 680.21 551.51 676.97 551.08 C 671.25 550.43 665.86 548.01 660.05 547.97 C 647.57 547.63 635.12 549.85 623.18 553.40 M 660.43 853.43 C 657.15 856.52 653.97 860.80 649.05 860.95 C 645.39 861.41 642.57 858.75 639.97 856.63 C 637.83 865.47 634.67 874.70 637.02 883.84 C 638.90 892.33 645.11 898.87 648.03 906.94 C 651.07 914.30 650.74 922.45 653.02 930.00 C 655.60 938.13 661.50 945.43 669.59 948.55 C 683.71 955.37 700.91 956.90 715.36 950.25 C 722.04 947.25 726.53 940.39 726.81 933.10 C 727.76 920.00 721.64 907.84 715.02 896.99 C 711.16 891.28 711.63 884.10 709.25 877.85 C 705.52 868.07 700.33 858.87 697.59 848.72 C 692.48 845.45 687.45 840.70 680.93 841.19 C 672.55 841.66 665.92 847.63 660.43 853.43 M 298.87 849.87 C 292.37 851.73 285.88 853.64 279.28 855.12 C 274.77 869.20 267.48 882.14 261.78 895.74 C 257.61 905.79 252.63 915.97 252.29 927.05 C 251.96 932.01 254.24 936.79 257.87 940.11 C 265.16 947.05 274.29 952.26 284.13 954.52 C 292.84 956.23 302.89 955.81 310.17 950.21 C 317.35 943.14 318.28 932.47 319.14 922.98 C 320.06 914.31 319.63 904.64 325.42 897.48 C 330.13 890.50 337.79 885.41 340.19 877.02 C 341.67 871.75 342.06 865.62 339.23 860.73 C 337.26 857.62 333.04 858.35 329.94 857.58 C 322.57 856.76 317.79 849.91 310.61 848.52 C 306.66 847.79 302.67 848.81 298.87 849.87 Z" />
<path fill="#020202" opacity="1.00" d=" M 498.09 181.26 C 500.08 176.23 500.62 170.79 502.18 165.63 C 503.25 167.03 504.16 168.61 504.25 170.42 C 505.39 181.07 505.18 191.90 503.32 202.46 C 499.93 197.76 495.37 193.78 489.68 192.24 C 493.09 189.12 496.35 185.62 498.09 181.26 Z" />
<path fill="#020202" opacity="1.00" d=" M 400.11 279.09 C 402.08 275.60 406.38 277.75 409.24 278.69 C 422.91 284.34 434.44 293.91 446.04 302.87 C 453.49 308.74 460.80 314.82 467.52 321.54 C 474.56 328.52 481.61 335.69 490.30 340.65 C 495.41 344.22 501.60 346.65 505.33 351.87 C 501.33 351.65 497.99 349.29 494.54 347.52 C 488.93 344.48 482.85 342.21 477.77 338.26 C 473.11 334.61 469.00 330.34 464.79 326.20 C 453.99 315.22 441.82 305.72 429.43 296.62 C 422.09 291.40 414.61 286.25 406.35 282.58 C 404.19 281.58 401.95 280.64 400.11 279.09 Z" />
<path fill="#020202" opacity="1.00" d=" M 609.11 407.79 C 612.85 407.17 616.25 405.36 619.92 404.48 C 618.21 408.78 613.57 410.51 609.42 411.51 C 597.46 413.88 585.23 411.15 573.22 412.54 C 560.06 415.18 547.97 421.56 536.84 428.87 C 528.98 433.88 521.04 438.89 512.39 442.44 C 503.85 446.13 494.77 448.28 485.80 450.64 C 480.92 451.75 475.89 453.41 470.88 452.08 C 475.00 449.02 480.23 448.44 485.00 446.90 C 500.86 442.54 516.24 436.16 530.03 427.11 C 543.47 418.37 557.64 409.45 573.85 407.30 C 585.60 406.58 597.38 409.38 609.11 407.79 Z" />
</g>
<g id="#f0b58bff">
<path fill="#f0b58b" opacity="1.00" d=" M 528.86 103.10 C 539.08 108.32 549.26 114.70 556.07 124.14 C 557.58 130.11 554.34 135.59 551.31 140.45 C 539.97 141.88 528.55 142.46 517.26 144.21 C 514.74 144.80 511.22 144.16 509.95 146.96 C 507.90 150.56 505.53 154.11 504.54 158.17 C 505.71 160.04 508.09 159.61 509.96 159.81 C 519.12 160.01 528.28 159.89 537.43 159.65 C 538.63 163.15 540.27 166.53 542.67 169.38 C 544.36 171.66 546.94 173.77 546.79 176.89 C 546.75 183.18 546.70 189.49 546.28 195.77 C 545.45 206.24 540.19 215.71 534.09 224.02 C 527.05 233.47 517.93 242.63 505.98 245.10 C 495.36 247.24 484.91 241.83 477.48 234.59 C 465.22 222.40 457.31 206.63 451.41 190.56 C 447.40 180.89 449.00 169.89 452.53 160.33 C 465.03 160.87 477.52 160.47 490.02 160.44 C 491.50 160.32 493.37 160.72 494.28 159.20 C 493.82 153.93 492.58 148.71 491.01 143.67 C 489.42 143.03 487.66 143.23 486.01 143.18 C 476.22 143.29 466.45 143.57 456.67 143.94 C 458.57 131.06 459.06 117.56 464.84 105.64 C 474.57 109.58 481.45 118.17 486.78 126.90 C 489.51 119.73 491.08 112.03 490.51 104.34 C 497.51 110.36 500.43 119.31 505.42 126.77 C 506.83 123.01 508.26 119.12 508.18 115.05 C 508.07 111.40 507.51 107.79 507.49 104.14 C 516.92 109.44 522.75 119.02 529.23 127.34 C 531.05 119.36 530.71 111.04 528.86 103.10 M 498.09 181.26 C 496.35 185.62 493.09 189.12 489.68 192.24 C 495.37 193.78 499.93 197.76 503.32 202.46 C 505.18 191.90 505.39 181.07 504.25 170.42 C 504.16 168.61 503.25 167.03 502.18 165.63 C 500.62 170.79 500.08 176.23 498.09 181.26 Z" />
<path fill="#f0b58b" opacity="1.00" d=" M 448.29 195.04 C 455.42 212.08 464.04 229.43 478.58 241.37 C 486.85 248.29 498.16 252.20 508.87 249.55 C 521.45 246.59 530.97 236.85 538.33 226.74 C 538.26 231.34 538.41 236.12 536.67 240.48 C 534.02 246.87 529.41 252.17 526.33 258.33 C 523.22 264.42 519.76 270.33 515.98 276.04 C 511.84 282.13 509.22 289.08 505.30 295.30 C 504.23 296.90 502.95 298.61 501.01 299.15 C 498.09 299.23 495.79 297.05 493.77 295.23 C 487.58 288.99 483.00 281.40 477.18 274.84 C 466.39 262.79 454.33 250.92 448.92 235.29 C 445.40 222.11 449.01 208.43 448.29 195.04 Z" />
<path fill="#f0b58b" opacity="1.00" d=" M 755.34 307.13 C 759.35 310.17 763.78 312.66 768.58 314.21 C 764.85 326.55 759.09 338.63 749.88 347.84 C 746.54 350.92 742.71 354.24 737.97 354.56 C 733.71 354.35 729.97 351.83 726.75 349.23 C 722.03 345.30 721.23 338.83 719.36 333.35 C 728.97 330.23 737.71 324.82 745.53 318.48 C 749.45 315.32 752.91 311.56 755.34 307.13 Z" />
<path fill="#f0b58b" opacity="1.00" d=" M 223.38 326.41 C 227.57 323.94 231.40 320.92 234.81 317.45 C 239.00 330.26 247.45 342.04 259.42 348.58 C 262.89 350.52 266.77 351.53 270.68 352.12 C 269.68 355.23 268.89 358.40 268.22 361.61 C 255.71 362.12 242.26 357.89 234.16 347.94 C 229.33 341.48 226.14 333.94 223.38 326.41 Z" />
<path fill="#f0b58b" opacity="1.00" d=" M 302.05 573.25 C 304.99 564.31 309.64 555.90 310.96 546.48 C 332.87 549.06 355.57 546.81 376.72 554.14 C 389.04 558.46 401.17 564.33 410.57 573.58 C 404.54 577.40 398.21 581.00 393.30 586.27 C 387.77 591.94 383.73 598.79 379.51 605.44 C 374.41 613.35 370.57 622.18 364.09 629.13 C 359.00 634.70 350.30 635.53 346.08 642.05 C 345.14 643.33 344.52 646.89 346.97 646.63 C 349.85 643.71 353.05 641.12 356.88 639.56 C 356.48 643.21 356.07 646.87 355.65 650.52 C 347.52 657.47 336.39 659.25 326.02 658.89 C 310.04 658.31 293.74 653.23 281.66 642.44 C 283.13 639.32 284.59 636.19 285.94 633.02 C 287.76 636.15 289.59 639.85 293.54 640.60 C 293.37 634.29 287.86 629.44 288.09 623.03 C 289.42 605.68 296.29 589.47 302.05 573.25 Z" />
<path fill="#f0b58b" opacity="1.00" d=" M 623.18 553.40 C 635.12 549.85 647.57 547.63 660.05 547.97 C 665.86 548.01 671.25 550.43 676.97 551.08 C 680.21 551.51 683.50 551.52 686.78 551.52 C 689.28 563.10 692.01 574.64 694.94 586.12 C 696.69 594.64 699.53 603.37 697.74 612.13 C 696.53 618.03 695.86 624.09 696.39 630.11 C 696.48 631.54 697.60 632.58 698.36 633.71 C 699.93 628.39 699.99 622.76 701.49 617.41 C 702.34 624.82 706.84 632.60 703.07 639.86 C 698.25 647.78 689.36 652.00 680.96 655.08 C 666.83 659.87 650.93 661.33 636.73 655.99 C 634.48 637.98 627.19 620.85 617.28 605.74 C 606.97 591.24 594.61 577.07 577.74 570.22 C 592.64 563.98 607.74 558.17 623.18 553.40 Z" />
</g>
<g id="#4d4d4dff">
<path fill="#4d4d4d" opacity="1.00" d=" M 645.40 171.38 C 647.49 169.87 650.19 170.93 652.36 171.71 C 658.34 174.32 663.65 178.24 668.65 182.38 C 671.50 184.65 672.88 188.11 675.02 190.97 C 676.57 193.13 678.95 194.43 681.18 195.77 C 679.40 191.66 677.22 187.73 675.62 183.53 C 681.37 184.46 687.32 186.18 691.41 190.60 C 702.77 202.04 709.39 217.01 716.85 231.06 C 723.97 245.68 732.27 259.93 736.88 275.61 C 736.43 277.57 735.09 279.68 736.31 281.63 C 740.09 289.78 746.58 296.26 750.98 304.06 C 746.17 310.88 739.36 315.88 732.70 320.74 C 727.06 324.38 721.05 328.73 713.98 328.18 C 708.72 328.04 705.39 323.41 702.30 319.79 C 696.61 313.19 690.85 305.77 682.34 302.79 C 663.71 297.71 644.37 296.08 625.58 291.68 C 618.90 290.10 611.86 289.49 605.60 286.51 C 601.64 284.80 600.07 279.95 600.87 275.97 C 601.80 273.14 604.29 271.20 606.73 269.70 C 612.24 266.45 618.79 265.86 625.05 265.66 C 634.21 265.43 643.35 264.26 652.20 261.86 C 651.59 257.41 650.22 253.05 647.69 249.32 C 638.68 235.19 624.65 225.56 611.87 215.16 C 608.25 211.86 603.58 208.81 602.31 203.80 C 601.12 198.90 606.74 195.40 611.05 195.79 C 614.56 195.98 615.94 199.70 617.94 202.01 C 621.45 206.32 624.51 211.22 629.02 214.57 L 630.61 214.48 C 629.00 205.46 620.41 199.67 617.95 191.01 C 616.14 179.73 635.79 174.89 639.32 185.72 C 642.59 191.52 645.45 198.32 651.57 201.66 C 650.45 194.08 644.45 188.45 642.91 181.00 C 642.00 177.69 642.52 173.58 645.40 171.38 Z" />
<path fill="#4d4d4d" opacity="1.00" d=" M 314.28 206.28 C 318.55 203.64 323.71 204.10 328.47 204.62 C 323.45 211.25 317.21 217.53 315.31 225.90 C 325.71 221.70 329.38 208.96 339.98 204.93 C 347.73 201.48 356.01 205.40 362.48 209.75 C 362.52 210.66 362.60 212.48 362.64 213.39 C 354.36 219.01 346.99 225.96 341.09 234.07 C 337.78 238.78 333.13 242.99 331.99 248.87 C 333.39 249.09 334.68 248.57 335.57 247.47 C 339.13 243.71 342.15 239.44 345.87 235.81 C 351.24 230.52 356.84 225.45 362.68 220.69 C 365.71 218.37 369.04 215.72 373.07 215.88 C 378.04 216.02 382.38 220.10 383.06 224.98 C 383.75 228.57 381.84 231.94 379.77 234.71 C 371.93 244.91 361.16 252.16 351.31 260.22 C 343.87 266.22 337.93 274.28 335.31 283.55 C 332.80 283.95 328.94 282.13 327.58 284.99 C 331.66 288.23 337.17 287.89 342.08 287.76 C 352.48 287.31 362.89 282.93 373.28 285.85 C 376.77 286.64 380.31 289.20 380.67 293.01 C 380.95 299.19 376.27 304.41 370.97 306.94 C 359.05 312.67 345.86 314.82 332.99 317.28 C 325.82 318.57 319.18 321.87 312.00 323.01 C 307.05 323.84 301.06 320.96 296.99 324.96 C 290.58 331.63 286.04 339.97 279.15 346.23 C 276.40 348.86 272.21 347.56 268.90 346.99 C 251.50 342.04 239.46 324.91 237.89 307.29 C 240.90 304.62 244.52 302.28 246.33 298.58 C 247.82 292.46 245.43 285.25 249.99 280.03 C 256.84 272.10 262.41 263.08 266.36 253.36 C 269.18 246.46 269.32 238.65 272.98 232.07 C 278.34 223.24 287.56 217.64 297.03 214.09 C 297.00 216.32 294.37 220.92 297.95 221.31 C 303.60 216.54 307.46 209.67 314.28 206.28 Z" />
<path fill="#4d4d4d" opacity="1.00" d=" M 660.43 853.43 C 665.92 847.63 672.55 841.66 680.93 841.19 C 687.45 840.70 692.48 845.45 697.59 848.72 C 700.33 858.87 705.52 868.07 709.25 877.85 C 711.63 884.10 711.16 891.28 715.02 896.99 C 721.64 907.84 727.76 920.00 726.81 933.10 C 726.53 940.39 722.04 947.25 715.36 950.25 C 700.91 956.90 683.71 955.37 669.59 948.55 C 661.50 945.43 655.60 938.13 653.02 930.00 C 650.74 922.45 651.07 914.30 648.03 906.94 C 645.11 898.87 638.90 892.33 637.02 883.84 C 634.67 874.70 637.83 865.47 639.97 856.63 C 642.57 858.75 645.39 861.41 649.05 860.95 C 653.97 860.80 657.15 856.52 660.43 853.43 Z" />
<path fill="#4d4d4d" opacity="1.00" d=" M 298.87 849.87 C 302.67 848.81 306.66 847.79 310.61 848.52 C 317.79 849.91 322.57 856.76 329.94 857.58 C 333.04 858.35 337.26 857.62 339.23 860.73 C 342.06 865.62 341.67 871.75 340.19 877.02 C 337.79 885.41 330.13 890.50 325.42 897.48 C 319.63 904.64 320.06 914.31 319.14 922.98 C 318.28 932.47 317.35 943.14 310.17 950.21 C 302.89 955.81 292.84 956.23 284.13 954.52 C 274.29 952.26 265.16 947.05 257.87 940.11 C 254.24 936.79 251.96 932.01 252.29 927.05 C 252.63 915.97 257.61 905.79 261.78 895.74 C 267.48 882.14 274.77 869.20 279.28 855.12 C 285.88 853.64 292.37 851.73 298.87 849.87 Z" />
</g>
<g id="#f35e11ff">
<path fill="var(--shirt-color, grey)" opacity="1.00" d=" M 559.98 181.99 C 573.47 184.86 586.48 190.11 597.78 198.08 C 596.84 202.67 597.25 207.81 600.61 211.38 C 609.84 221.97 622.30 228.97 632.32 238.72 C 638.41 244.33 643.31 251.09 647.23 258.36 C 638.84 259.58 630.38 260.30 621.91 260.66 C 613.58 261.12 604.80 263.72 599.12 270.17 C 594.81 274.76 595.27 282.35 598.62 287.34 C 602.45 291.99 608.72 293.37 614.32 294.71 C 625.81 297.05 637.21 299.95 648.86 301.47 C 655.68 302.41 662.48 303.52 669.23 304.93 C 675.42 306.21 682.23 306.55 687.35 310.69 C 692.90 315.23 697.53 320.81 701.55 326.72 C 694.01 326.59 686.42 327.14 678.95 325.92 C 669.62 324.44 660.41 322.25 651.41 319.40 C 649.21 318.70 646.93 318.27 644.65 318.02 C 648.20 321.63 653.35 322.56 657.90 324.31 C 667.83 327.99 678.22 331.18 688.93 330.95 C 694.28 331.06 699.71 330.14 705.02 331.16 C 708.25 332.31 711.45 333.63 714.91 333.95 C 715.81 341.06 717.75 348.71 723.49 353.51 C 728.87 357.90 736.16 362.04 743.22 359.17 C 752.90 355.27 759.55 346.46 764.60 337.68 C 769.68 328.13 774.22 317.74 774.16 306.72 C 779.87 311.12 785.89 315.09 791.93 319.04 C 797.30 322.50 802.20 326.97 805.23 332.68 C 811.36 343.71 811.91 356.69 812.13 369.01 C 811.83 378.37 811.80 388.41 806.69 396.64 C 804.50 400.09 801.69 403.70 797.49 404.62 C 788.92 406.18 780.04 403.99 771.58 406.38 C 764.58 408.18 756.62 409.77 749.99 405.95 C 743.38 401.99 740.42 394.37 737.35 387.69 C 734.92 382.84 734.71 376.87 730.67 372.91 C 730.06 382.56 732.95 392.21 737.91 400.44 C 731.82 396.54 726.32 391.79 721.57 386.35 C 719.16 383.42 717.35 380.04 714.74 377.27 C 709.23 371.19 702.09 367.01 695.17 362.77 C 689.43 359.25 685.04 354.10 680.69 349.07 C 686.50 349.75 692.26 350.88 698.10 351.35 C 700.12 351.62 701.99 350.71 703.84 350.05 C 699.45 347.02 693.93 346.99 688.93 345.73 C 679.39 343.50 669.51 342.33 660.41 338.52 C 648.98 333.74 638.32 326.61 625.98 324.32 C 623.18 323.55 620.72 325.12 619.14 327.31 C 625.05 328.58 630.74 330.62 636.24 333.11 C 633.66 345.62 630.34 357.98 626.47 370.15 C 623.15 381.26 612.68 389.79 601.15 390.85 C 590.44 391.94 579.58 390.54 568.94 392.48 C 561.63 393.80 554.39 395.69 547.51 398.52 C 538.81 402.10 531.85 408.73 525.67 415.65 C 523.79 417.61 522.61 420.10 522.26 422.80 C 524.29 421.76 526.11 420.37 527.72 418.75 C 534.75 411.78 542.92 405.62 552.42 402.51 C 561.67 399.43 571.28 397.01 581.09 397.06 C 589.76 396.72 598.64 397.48 607.08 395.04 C 613.29 393.20 618.58 389.11 622.77 384.26 C 626.52 389.77 632.00 394.02 634.73 400.23 C 637.06 405.17 639.53 411.39 636.57 416.58 C 635.26 419.46 631.79 419.65 629.08 420.00 C 610.12 422.07 591.18 425.14 572.99 430.96 C 564.71 433.65 556.24 436.13 548.78 440.74 C 540.32 445.40 533.25 452.12 524.92 456.98 C 517.57 461.31 510.36 465.92 502.74 469.77 C 494.62 473.91 484.94 474.14 476.36 471.34 C 461.67 466.74 447.70 460.11 434.18 452.83 C 426.41 448.76 419.80 442.70 411.63 439.37 C 406.24 437.16 400.66 435.47 395.00 434.11 C 387.74 432.33 380.22 433.30 372.85 432.63 C 366.99 431.73 361.95 428.32 356.62 425.96 C 359.98 420.09 366.44 416.83 369.69 410.81 C 378.14 415.36 387.85 416.18 396.83 419.23 C 408.27 422.97 419.79 426.53 430.89 431.23 C 445.14 437.01 460.85 441.52 476.27 438.18 C 478.22 437.81 479.76 436.49 481.29 435.32 C 475.17 435.37 469.06 436.64 462.95 435.78 C 452.56 434.41 442.39 431.43 432.83 427.15 C 421.23 421.91 409.04 418.19 396.99 414.17 C 389.56 411.62 381.69 410.58 374.40 407.62 C 368.30 405.42 364.93 399.25 362.74 393.55 C 361.41 386.62 362.76 379.47 363.90 372.60 C 368.46 377.46 371.95 383.23 374.66 389.31 C 375.94 391.92 376.86 394.82 378.92 396.97 C 380.21 396.85 380.83 396.17 380.80 394.92 C 380.78 392.22 379.73 389.68 378.86 387.17 C 376.42 380.72 374.14 373.89 369.13 368.91 C 362.44 362.18 353.95 357.51 347.52 350.49 C 342.62 345.76 340.04 339.28 335.37 334.37 C 334.69 341.10 338.83 346.95 342.24 352.36 C 336.10 350.31 329.90 348.43 323.85 346.10 C 319.15 344.36 314.56 342.12 309.50 341.65 C 311.31 345.63 315.62 347.03 319.28 348.74 C 326.33 351.78 333.29 355.27 340.92 356.61 C 326.00 365.98 312.74 377.95 301.68 391.67 C 294.49 400.09 288.70 410.19 278.86 415.91 C 268.56 421.94 257.43 427.12 245.50 428.73 C 239.72 429.49 233.92 430.85 228.05 430.29 C 219.00 429.44 210.84 424.73 204.04 418.93 C 199.37 414.92 194.53 410.72 191.79 405.09 C 189.17 399.82 189.56 393.73 189.84 388.03 C 190.69 375.26 191.86 362.42 195.15 350.02 C 196.20 345.96 198.37 342.28 201.17 339.18 C 205.97 333.85 211.49 329.17 217.59 325.39 C 222.05 337.65 227.26 350.83 238.22 358.74 C 247.56 365.38 259.47 367.66 270.74 366.19 C 268.59 370.97 266.18 375.69 265.01 380.84 C 263.70 385.78 263.54 390.90 263.25 395.96 C 263.02 400.37 261.83 404.64 261.17 408.98 C 263.73 404.74 264.58 399.81 265.38 395.00 C 266.26 389.64 267.97 384.48 269.64 379.33 C 272.36 383.58 275.77 387.37 278.23 391.79 C 279.98 394.75 279.99 398.29 280.66 401.58 C 283.24 399.70 284.17 396.48 283.43 393.43 C 282.29 387.76 278.52 383.22 275.47 378.49 C 272.91 374.54 274.16 369.65 275.00 365.37 C 276.25 364.84 277.49 364.30 278.73 363.76 C 277.19 362.11 275.12 361.32 272.97 360.86 C 273.87 357.88 274.77 354.91 275.71 351.95 C 278.44 351.19 281.44 350.68 283.53 348.59 C 288.16 344.20 292.21 339.22 296.10 334.18 C 298.06 331.69 299.63 328.82 302.19 326.87 C 304.80 326.54 307.44 327.01 310.07 326.76 C 315.59 326.32 320.81 324.37 326.13 322.99 C 334.69 320.57 343.64 320.12 352.30 318.15 C 360.42 316.22 368.74 314.20 375.96 309.86 C 380.84 306.94 384.41 302.00 385.37 296.37 C 387.31 289.83 382.20 283.03 375.90 281.45 C 365.18 277.65 354.04 281.68 343.29 283.16 C 344.84 275.47 348.85 268.00 355.40 263.48 C 365.86 255.75 376.62 248.02 384.68 237.67 C 388.03 233.32 390.41 227.59 388.61 222.09 C 386.19 213.71 376.62 209.47 368.43 210.40 C 381.78 207.53 393.92 201.04 405.94 194.80 C 417.11 188.85 430.25 188.72 442.59 189.40 C 443.66 194.87 444.65 200.47 443.85 206.06 C 442.63 217.64 440.10 229.97 444.84 241.09 C 450.33 253.15 458.65 263.72 467.91 273.11 C 473.42 278.66 478.34 284.74 483.07 290.96 C 487.09 295.88 491.12 301.44 497.31 303.74 C 501.00 305.15 505.16 303.52 507.57 300.56 C 512.94 294.16 515.62 286.06 520.25 279.19 C 524.16 273.31 527.65 267.17 530.89 260.91 C 534.27 254.36 539.23 248.66 541.74 241.67 C 544.04 235.29 543.31 228.40 542.71 221.80 C 542.45 219.86 543.88 218.28 544.66 216.63 C 551.08 205.71 555.61 193.84 559.98 181.99 M 400.11 279.09 C 401.95 280.64 404.19 281.58 406.35 282.58 C 414.61 286.25 422.09 291.40 429.43 296.62 C 441.82 305.72 453.99 315.22 464.79 326.20 C 469.00 330.34 473.11 334.61 477.77 338.26 C 482.85 342.21 488.93 344.48 494.54 347.52 C 497.99 349.29 501.33 351.65 505.33 351.87 C 501.60 346.65 495.41 344.22 490.30 340.65 C 481.61 335.69 474.56 328.52 467.52 321.54 C 460.80 314.82 453.49 308.74 446.04 302.87 C 434.44 293.91 422.91 284.34 409.24 278.69 C 406.38 277.75 402.08 275.60 400.11 279.09 M 609.11 407.79 C 597.38 409.38 585.60 406.58 573.85 407.30 C 557.64 409.45 543.47 418.37 530.03 427.11 C 516.24 436.16 500.86 442.54 485.00 446.90 C 480.23 448.44 475.00 449.02 470.88 452.08 C 475.89 453.41 480.92 451.75 485.80 450.64 C 494.77 448.28 503.85 446.13 512.39 442.44 C 521.04 438.89 528.98 433.88 536.84 428.87 C 547.97 421.56 560.06 415.18 573.22 412.54 C 585.23 411.15 597.46 413.88 609.42 411.51 C 613.57 410.51 618.21 408.78 619.92 404.48 C 616.25 405.36 612.85 407.17 609.11 407.79 Z" />
</g>
</svg>
