<?xml version="1.0" encoding="UTF-8" ?>
<!DOCTYPE svg PUBLIC "-//W3C//DTD SVG 1.1//EN" "http://www.w3.org/Graphics/SVG/1.1/DTD/svg11.dtd">
<svg width="1000pt" height="1000pt" viewBox="0 0 1000 1000" version="1.1" xmlns="http://www.w3.org/2000/svg">
    <g id="#020202ff">
        <path fill="#020202" opacity="1.00"
            d=" M 537.40 67.50 C 545.68 61.84 556.06 60.12 565.91 60.51 C 578.41 61.69 591.02 62.97 603.57 61.79 C 602.36 64.74 600.92 67.62 598.98 70.17 C 608.71 70.49 618.63 74.41 624.72 82.24 C 629.89 89.05 635.41 95.58 641.16 101.91 C 638.77 102.16 636.37 102.28 633.98 102.28 C 639.13 113.55 648.91 121.96 653.38 133.62 C 657.03 141.47 656.07 151.14 650.68 157.97 C 650.10 165.54 645.80 172.54 639.30 176.46 C 638.32 181.38 637.12 186.31 634.86 190.82 C 632.64 195.69 628.80 199.58 626.54 204.42 C 622.28 213.08 620.66 222.70 617.03 231.60 C 626.07 231.98 635.10 232.72 644.05 234.05 C 657.69 236.26 670.77 240.85 683.82 245.23 C 690.64 247.55 697.83 249.17 705.07 248.57 C 714.09 248.07 722.83 244.74 731.94 245.58 C 740.80 246.21 749.98 246.95 758.10 250.85 C 763.14 253.32 761.48 259.98 761.90 264.52 C 769.30 264.62 777.03 264.92 783.98 261.94 C 795.14 256.92 806.83 252.67 819.05 251.24 C 824.63 250.77 831.07 249.52 834.32 244.45 C 838.00 237.65 838.94 229.67 842.99 223.04 C 845.42 219.01 850.30 217.97 854.54 216.91 C 861.64 204.93 869.38 193.10 879.47 183.38 C 882.82 180.41 886.52 177.37 891.03 176.52 C 894.35 175.92 896.67 179.66 895.47 182.57 C 893.22 189.16 889.14 194.94 885.55 200.86 C 890.84 197.23 896.15 193.20 902.48 191.60 C 906.00 190.54 910.56 193.01 910.23 197.03 C 909.79 202.06 906.96 206.46 904.43 210.70 C 907.05 210.44 910.69 210.10 911.69 213.26 C 912.97 218.89 909.61 224.30 906.78 228.93 C 909.98 227.92 913.63 226.36 916.85 228.23 C 919.60 229.55 920.18 233.16 918.80 235.70 C 914.11 245.88 904.50 252.36 895.55 258.48 C 890.96 261.49 887.11 265.43 883.58 269.59 C 880.25 273.52 875.76 276.27 870.96 278.01 C 866.62 279.67 861.40 277.25 857.58 280.53 C 841.01 292.04 824.34 303.80 805.61 311.60 C 790.16 317.48 772.80 320.95 756.58 316.14 C 754.46 319.42 752.01 322.53 748.82 324.84 C 743.40 329.22 736.28 330.54 729.54 331.32 C 720.62 332.07 711.61 332.69 702.93 335.01 C 692.96 338.08 684.70 344.71 675.73 349.78 C 669.31 353.72 661.91 355.56 655.30 359.11 C 647.56 363.01 641.07 368.91 635.03 375.03 C 629.42 380.84 624.26 387.12 620.02 394.01 C 614.95 402.45 612.94 412.27 611.91 421.95 C 610.89 429.27 611.21 436.82 608.97 443.93 C 606.91 450.07 602.84 455.22 599.87 460.90 C 592.19 475.31 586.43 491.44 587.60 508.00 C 587.36 518.51 586.25 529.60 580.83 538.85 C 574.38 548.40 562.54 551.74 551.98 554.54 C 552.82 559.30 553.42 564.12 554.46 568.85 C 556.80 579.28 562.76 588.59 564.39 599.20 C 565.28 608.99 563.45 618.98 565.62 628.67 C 568.70 633.07 572.72 636.96 574.56 642.14 C 573.44 643.84 571.38 643.43 569.66 643.62 C 576.23 652.07 581.05 661.72 584.38 671.87 C 587.93 682.21 587.59 693.33 586.62 704.08 C 585.65 736.76 595.22 768.35 600.92 800.22 C 604.84 817.60 608.28 835.13 613.57 852.16 C 615.51 859.26 617.71 866.34 618.49 873.70 C 630.68 874.79 642.64 878.37 654.95 878.14 C 661.90 878.04 668.56 875.69 674.78 872.76 C 685.80 867.83 696.92 862.59 708.97 860.81 C 714.74 860.18 721.79 861.68 724.72 867.26 C 728.01 873.94 728.43 881.96 726.02 888.99 C 723.05 897.54 718.18 905.41 711.93 911.94 C 702.90 921.17 692.24 928.89 680.62 934.53 C 672.83 938.52 663.93 940.38 656.90 945.79 C 643.68 956.23 633.46 969.91 620.01 980.08 C 614.50 984.65 607.86 987.72 600.90 989.32 C 594.57 990.51 588.17 987.65 583.48 983.52 C 578.52 978.99 574.89 973.21 571.75 967.33 C 565.67 955.82 563.46 942.79 562.19 929.98 C 560.77 917.00 562.15 903.80 559.21 891.00 C 555.54 877.75 548.73 865.71 542.32 853.66 C 533.10 838.08 524.44 822.13 517.62 805.34 C 511.75 790.51 507.11 775.02 505.92 759.05 C 500.90 770.99 499.44 783.99 495.20 796.16 C 491.38 806.29 485.00 815.83 475.75 821.73 C 470.31 825.41 463.89 827.13 458.08 830.10 C 450.73 834.10 445.03 840.36 439.00 846.03 C 428.42 856.33 416.29 864.86 403.84 872.72 C 390.66 881.17 376.33 887.73 363.77 897.13 C 379.85 902.37 390.50 917.00 406.34 922.70 C 415.70 926.25 425.83 929.57 432.71 937.27 C 436.77 941.61 438.84 948.10 436.80 953.85 C 435.44 957.84 431.78 960.46 428.11 962.17 C 419.33 966.06 409.54 966.78 400.06 966.33 C 376.12 965.91 353.44 957.25 329.95 953.70 C 317.41 951.97 304.42 956.00 292.11 952.16 C 283.61 949.67 278.82 941.16 277.00 933.03 C 273.16 914.51 281.45 894.57 296.32 883.19 C 316.63 856.70 335.43 828.75 359.09 805.00 C 370.37 793.96 382.88 783.34 398.14 778.41 C 405.06 776.03 413.17 773.73 416.86 766.77 C 419.34 761.31 420.00 755.24 421.75 749.53 C 418.17 748.40 414.18 747.17 412.00 743.87 C 410.97 741.76 411.80 739.36 412.20 737.21 C 415.33 725.44 417.92 713.53 420.78 701.69 C 422.49 694.60 422.76 687.24 422.52 679.98 C 422.50 677.46 420.74 675.48 419.56 673.41 C 409.30 657.79 403.86 639.67 394.24 623.71 C 385.71 607.93 374.72 593.42 368.40 576.51 C 362.02 558.27 361.33 538.06 366.56 519.45 C 368.86 511.33 372.86 503.78 377.80 496.97 C 372.92 494.20 371.75 488.17 371.72 483.02 C 372.31 475.92 376.09 469.63 379.51 463.56 C 382.29 458.46 386.87 454.04 387.51 448.02 C 387.95 442.80 387.80 437.29 390.52 432.61 C 393.16 426.42 400.50 422.32 400.03 414.95 C 398.56 402.52 390.35 392.16 388.10 379.94 C 379.91 379.72 372.61 383.85 365.57 387.48 C 351.70 395.35 337.54 403.23 321.98 407.20 C 317.95 408.19 312.77 408.83 309.77 405.28 C 305.31 399.89 302.00 393.63 299.41 387.15 C 293.05 389.70 286.70 392.39 279.98 393.89 C 269.53 396.47 258.69 396.36 248.01 396.70 C 225.04 396.89 202.17 400.36 179.18 399.31 C 174.44 408.02 164.69 412.13 155.69 414.94 C 158.81 421.82 162.96 428.18 165.95 435.12 C 167.25 438.60 168.69 442.61 167.29 446.27 C 165.87 449.20 161.91 449.07 159.61 447.31 C 153.09 442.93 149.12 435.85 145.94 428.87 C 146.07 435.53 147.26 442.28 146.05 448.91 C 145.27 452.51 143.17 456.99 138.94 457.17 C 134.60 456.81 132.54 452.30 131.52 448.63 C 128.92 439.20 127.89 429.40 127.07 419.67 C 122.43 424.86 118.19 430.41 113.23 435.31 C 110.12 438.22 106.52 441.31 102.04 441.49 C 99.49 441.64 96.95 439.71 96.84 437.07 C 96.88 433.58 98.95 430.59 100.93 427.89 C 104.22 423.57 107.84 419.50 111.58 415.57 C 105.75 417.85 99.39 420.20 93.04 418.88 C 89.78 418.34 87.02 414.31 89.45 411.40 C 93.62 406.09 100.47 404.08 106.56 401.82 C 104.51 400.02 101.28 397.38 103.39 394.40 C 106.05 390.35 111.48 391.97 115.41 390.77 C 127.25 382.59 139.76 375.13 153.29 370.09 C 162.33 366.62 172.45 366.80 181.08 362.13 C 199.34 352.64 218.72 344.62 239.22 341.74 C 253.28 339.68 267.53 344.67 281.45 340.97 C 279.14 336.27 276.37 331.82 273.49 327.45 C 272.45 326.02 274.26 325.09 275.35 324.56 C 282.86 321.56 289.72 317.17 297.25 314.21 C 304.60 310.81 312.57 309.11 320.06 306.08 C 328.16 302.74 334.95 297.10 342.13 292.23 C 349.81 287.02 357.16 281.23 363.42 274.35 C 371.29 265.75 380.63 257.42 392.55 255.47 C 401.97 253.62 411.52 252.52 421.02 251.20 C 427.50 250.29 434.06 248.92 439.88 245.80 C 446.83 241.49 449.96 233.21 456.82 228.77 C 464.05 223.63 473.37 224.06 481.81 224.21 C 487.27 218.20 491.97 211.58 496.52 204.87 C 491.33 192.66 484.16 180.29 485.75 166.48 C 484.51 168.67 483.32 170.89 482.16 173.13 C 481.48 165.92 481.54 158.58 483.43 151.55 C 484.34 146.79 489.10 143.30 488.09 138.07 C 486.89 129.77 488.94 121.49 491.36 113.60 C 493.95 105.37 497.90 97.27 504.50 91.51 C 510.79 86.14 515.09 78.63 522.44 74.49 C 526.99 71.21 532.92 70.86 537.40 67.50 M 576.48 149.19 C 575.22 154.71 570.00 157.51 566.55 161.51 C 562.11 166.11 559.22 171.97 557.58 178.11 C 555.43 174.70 553.36 171.25 551.59 167.63 C 549.15 172.19 546.50 176.65 544.14 181.26 C 541.47 186.57 540.39 192.48 539.42 198.29 C 537.32 193.74 535.04 189.26 533.53 184.48 C 531.80 179.25 530.45 173.55 526.48 169.48 C 523.79 166.62 519.08 165.52 515.67 167.74 C 512.82 169.43 511.61 172.83 511.47 176.00 C 510.21 186.80 516.12 196.51 520.55 205.89 C 517.96 204.92 515.39 203.94 512.83 202.92 C 509.84 207.25 504.91 209.79 499.62 209.55 C 496.25 218.59 489.83 226.12 482.40 232.13 C 482.89 238.95 486.40 244.95 488.84 251.19 C 492.33 260.10 496.47 268.94 502.69 276.31 C 508.67 283.02 514.88 289.82 522.94 294.08 C 528.47 297.27 535.10 301.27 541.62 298.58 C 546.34 296.90 549.55 292.58 550.71 287.82 C 552.39 281.46 553.78 275.02 555.86 268.77 C 550.84 265.31 545.89 261.30 543.16 255.71 C 541.89 253.12 539.90 250.22 541.04 247.24 C 543.91 246.64 544.53 250.36 546.14 251.99 C 551.36 258.66 558.37 264.88 566.99 266.34 C 571.90 266.79 577.68 267.20 581.51 263.47 C 586.79 258.63 590.82 252.55 594.24 246.29 C 596.06 243.11 597.07 239.36 599.72 236.72 C 602.11 234.54 606.13 236.89 608.26 234.28 C 611.04 230.88 612.12 226.49 613.49 222.41 C 615.38 216.08 617.37 209.77 620.01 203.70 C 616.86 203.19 613.71 202.68 610.58 202.13 C 609.63 204.18 609.09 207.43 606.11 207.16 C 601.74 206.07 597.69 204.01 593.53 202.32 C 589.91 200.64 585.80 199.42 583.24 196.15 C 590.34 188.77 601.96 185.97 611.61 189.45 C 616.33 191.11 619.93 194.84 622.42 199.07 C 625.26 194.72 628.76 190.75 630.91 185.97 C 633.37 180.60 635.16 174.86 635.80 168.97 C 636.14 166.78 634.32 165.11 633.41 163.31 C 632.42 164.99 631.26 167.02 629.03 166.98 C 616.24 167.11 604.20 160.80 595.12 152.10 C 594.08 153.15 593.42 154.73 591.97 155.27 C 589.82 155.17 587.99 153.92 586.07 153.11 C 582.19 154.44 579.11 151.59 576.48 149.19 M 874.69 196.68 C 869.44 202.89 865.09 209.80 859.98 216.13 C 863.25 215.63 866.53 215.17 869.81 214.69 C 876.03 203.38 884.85 193.65 890.37 181.91 C 884.00 185.48 879.34 191.21 874.69 196.68 M 876.07 214.29 C 877.94 215.24 880.29 215.97 881.11 218.13 C 882.37 221.43 880.85 225.12 878.77 227.74 C 874.89 232.20 868.88 233.48 863.72 235.83 C 860.59 236.84 863.39 243.43 859.30 242.63 C 855.54 239.47 857.30 232.57 861.62 230.68 C 866.88 227.69 875.05 226.89 876.47 219.84 C 869.86 219.91 863.37 221.29 856.88 222.35 C 853.67 223.15 849.47 223.29 847.65 226.53 C 844.20 233.46 843.13 241.41 839.14 248.10 C 835.36 253.66 828.56 256.35 822.07 256.93 C 812.63 257.68 803.49 260.36 794.62 263.55 C 789.94 265.21 785.54 267.63 780.70 268.82 C 774.42 270.33 767.85 270.54 761.50 269.45 C 760.35 283.97 762.26 298.90 757.85 313.01 C 773.34 315.73 789.21 312.41 803.62 306.60 C 816.65 300.95 828.78 293.43 840.67 285.71 C 846.13 282.19 851.35 278.30 857.06 275.18 C 860.91 272.86 865.76 274.90 869.67 272.70 C 874.60 270.63 878.68 267.09 882.10 263.04 C 891.83 251.88 908.38 247.26 914.22 232.70 C 907.29 233.83 901.18 237.59 895.63 241.71 C 893.51 243.71 890.33 240.40 892.32 238.36 C 897.43 231.16 904.47 224.87 906.53 215.92 C 899.17 218.48 894.56 224.98 889.03 230.00 C 887.21 232.00 883.24 229.75 884.96 227.22 C 892.35 217.35 901.46 208.19 905.36 196.22 C 893.73 198.41 885.00 207.19 876.07 214.29 M 462.41 232.51 C 457.26 235.52 454.01 240.69 449.81 244.77 C 445.59 249.25 439.91 251.97 434.25 254.15 C 424.67 257.42 414.47 257.92 404.53 259.32 C 397.14 260.40 389.33 260.95 382.77 264.88 C 376.90 268.46 372.08 273.46 367.20 278.25 C 360.54 285.03 353.02 290.90 345.14 296.20 C 339.16 300.22 333.53 304.80 327.11 308.13 C 318.46 312.87 308.57 314.45 299.62 318.46 C 292.57 321.26 285.97 324.98 279.17 328.31 C 284.08 335.14 288.58 342.30 292.05 349.97 C 299.90 365.39 301.10 383.55 310.98 398.05 C 312.49 400.03 313.98 403.30 317.00 402.77 C 325.73 401.42 333.77 397.41 341.71 393.70 C 354.80 387.57 366.82 379.14 380.70 374.78 C 395.22 370.90 410.63 372.16 425.01 376.03 C 427.51 376.65 429.65 378.15 431.45 379.96 C 426.51 379.74 421.82 378.04 416.95 377.45 C 409.65 376.21 402.22 376.20 394.86 376.62 C 401.02 380.45 405.90 385.88 411.02 390.94 C 416.79 396.83 423.23 402.18 427.93 409.02 C 428.77 410.11 429.11 411.47 428.67 412.81 C 426.23 412.59 424.69 410.47 423.03 408.93 C 418.71 404.27 413.86 400.16 409.19 395.86 C 403.84 390.95 399.04 385.34 392.85 381.42 C 397.86 393.00 406.19 403.93 406.12 417.05 C 405.91 425.04 398.18 429.32 395.18 436.05 C 392.64 441.22 394.20 447.22 392.36 452.57 C 390.59 457.89 386.31 461.79 383.69 466.65 C 379.83 473.38 375.24 480.84 376.94 488.94 C 377.27 491.48 379.95 492.14 382.07 492.48 C 397.39 494.72 412.93 496.30 427.70 501.20 C 433.65 503.18 439.87 504.26 446.15 504.24 C 435.09 494.18 426.63 481.22 413.76 473.24 C 411.71 471.98 409.78 470.53 408.12 468.79 C 410.80 468.31 413.51 468.74 415.85 470.14 C 423.39 474.26 430.33 479.58 436.10 485.96 C 449.94 501.78 464.60 517.36 482.57 528.54 C 492.63 535.17 503.42 540.65 514.33 545.72 C 520.12 547.84 525.74 550.76 531.88 551.69 C 540.88 551.66 549.75 549.26 558.21 546.34 C 565.37 543.62 573.46 540.07 576.51 532.47 C 580.57 522.17 581.03 510.89 581.17 499.96 C 582.65 481.89 589.36 464.49 599.35 449.44 C 602.35 445.14 604.08 440.06 604.33 434.82 C 605.27 419.65 606.58 403.47 615.71 390.70 C 627.82 374.95 641.37 358.79 660.47 351.49 C 670.32 348.10 678.68 341.80 687.38 336.27 C 696.02 330.04 704.07 323.05 712.49 316.53 C 716.07 313.71 719.24 310.20 723.58 308.48 C 723.31 310.30 723.05 312.25 721.60 313.56 C 716.31 319.07 710.58 324.18 704.47 328.77 C 709.23 327.76 714.03 326.89 718.88 326.34 C 728.78 325.31 739.88 325.76 747.95 318.96 C 753.92 312.61 754.96 303.40 755.28 295.06 C 755.56 281.94 755.96 268.81 757.44 255.77 C 748.61 252.75 739.21 252.08 729.95 251.72 C 719.57 251.31 709.50 255.16 699.10 254.37 C 686.43 253.53 675.02 247.43 662.92 244.16 C 647.39 239.15 631.09 237.25 614.86 236.42 C 613.19 238.21 611.63 240.29 609.31 241.28 C 607.36 241.99 605.23 241.78 603.20 241.91 C 598.10 252.75 592.30 264.26 581.93 270.95 C 574.49 274.17 565.69 272.98 558.34 270.00 C 557.32 277.25 556.39 284.55 554.41 291.61 C 552.32 299.19 544.79 304.74 536.99 304.80 C 529.67 304.59 523.27 300.53 517.18 296.88 C 510.40 292.84 505.10 286.88 499.90 281.05 C 492.39 272.53 487.55 262.08 483.42 251.59 C 480.53 244.37 476.03 236.97 477.95 228.87 C 472.70 229.65 467.11 229.79 462.41 232.51 M 238.25 347.81 C 219.70 350.81 201.86 357.49 185.31 366.29 C 179.68 369.26 173.58 371.26 167.28 372.18 C 151.69 374.49 138.15 383.12 124.71 390.77 C 130.80 390.27 136.93 389.58 143.05 389.94 C 144.88 390.47 145.03 391.30 143.52 392.43 C 138.29 394.68 132.42 394.39 126.89 395.30 C 121.12 396.33 115.25 396.42 109.42 396.96 C 118.95 401.44 129.81 401.26 139.82 404.02 C 139.81 404.53 139.80 405.56 139.79 406.07 C 134.26 407.06 128.59 406.37 123.02 406.27 C 118.59 406.26 114.09 404.06 109.76 405.81 C 104.57 407.64 99.47 409.94 95.04 413.25 C 104.92 412.59 114.11 407.87 124.05 407.63 C 124.48 407.99 125.35 408.71 125.79 409.07 C 122.04 412.22 118.05 415.12 114.96 418.97 C 110.53 424.38 105.51 429.46 102.36 435.77 C 111.15 431.05 115.95 421.70 123.99 416.02 C 125.90 414.85 127.62 412.55 130.04 412.82 C 132.01 417.22 131.92 422.17 133.13 426.79 C 134.94 434.61 135.67 442.78 138.97 450.18 C 141.18 442.23 139.49 433.95 139.31 425.87 C 139.33 421.91 137.76 417.47 139.88 413.87 C 142.61 411.62 145.92 414.35 147.02 416.99 C 150.87 425.22 153.88 434.31 160.86 440.55 C 158.54 433.00 153.58 426.64 150.82 419.27 C 149.89 416.75 149.90 413.98 150.51 411.39 C 157.10 410.65 162.82 406.81 168.16 403.14 C 171.57 400.96 173.38 397.15 176.47 394.67 C 179.55 393.73 182.84 393.88 186.02 393.66 C 200.71 393.35 215.33 391.65 230.02 391.31 C 244.52 390.42 259.14 391.44 273.55 389.29 C 281.81 387.82 289.88 385.20 297.39 381.46 C 295.89 376.90 294.44 372.32 293.12 367.71 C 290.91 359.91 287.21 352.68 283.86 345.34 C 269.25 351.58 253.36 345.22 238.25 347.81 M 382.40 497.93 C 377.78 506.31 373.49 515.07 371.67 524.54 C 368.39 541.03 368.73 558.55 374.50 574.46 C 381.00 591.28 392.03 605.75 400.39 621.62 C 409.46 637.14 414.59 654.61 424.16 669.87 C 426.91 674.13 429.33 678.62 431.14 683.38 C 447.53 678.50 462.21 669.43 476.96 661.03 C 492.76 651.91 507.54 639.29 526.22 636.82 C 540.15 635.18 554.59 635.00 568.24 638.60 C 561.27 630.31 551.59 624.55 545.75 615.25 C 536.80 600.57 528.23 585.35 516.07 573.02 C 510.59 567.35 503.12 564.35 495.72 562.13 C 494.01 561.37 490.25 560.84 491.83 558.22 C 496.40 557.80 500.83 559.43 505.19 560.57 C 510.72 562.06 515.88 564.91 520.00 568.92 C 531.88 580.56 540.30 595.12 548.58 609.40 C 551.63 615.24 556.30 619.95 560.80 624.68 C 559.81 617.84 559.68 610.92 559.95 604.02 C 560.23 595.76 555.72 588.54 553.10 580.99 C 549.60 572.87 548.36 564.06 547.30 555.36 C 541.34 556.27 535.18 557.28 529.21 555.92 C 515.61 552.47 503.22 545.71 490.93 539.15 C 483.93 535.29 477.44 530.62 470.83 526.16 C 463.50 521.22 457.88 513.94 449.70 510.24 C 447.30 509.09 444.55 509.53 441.98 509.37 C 434.42 509.24 427.25 506.64 420.04 504.68 C 407.72 501.30 394.97 500.02 382.40 497.93 M 521.81 643.95 C 505.94 648.33 493.09 659.15 478.67 666.58 C 487.52 674.22 496.54 682.00 503.17 691.73 C 507.46 697.86 509.26 705.31 509.95 712.66 C 519.47 706.21 530.61 702.49 541.93 700.85 C 555.14 699.19 569.19 699.79 581.30 705.88 C 581.74 698.57 582.77 691.22 581.80 683.90 C 580.74 675.56 577.10 667.87 573.58 660.34 C 570.64 654.07 565.86 648.85 563.21 642.42 C 549.45 640.95 535.36 640.82 521.81 643.95 M 450.64 681.55 C 443.38 685.65 435.14 687.74 426.85 688.31 C 426.84 693.17 426.44 698.06 425.37 702.82 C 422.31 716.06 419.40 729.34 415.72 742.42 C 422.27 745.89 429.77 743.59 436.58 742.30 C 449.48 739.19 462.62 736.39 475.97 736.64 C 485.17 737.16 494.47 737.10 503.49 739.28 C 503.17 726.59 504.92 713.35 500.59 701.14 C 494.63 688.14 482.61 679.58 472.80 669.68 C 465.49 673.79 458.18 677.88 450.64 681.55 M 510.20 720.56 C 509.65 735.99 508.50 751.61 511.51 766.88 C 515.31 787.30 523.37 806.66 532.64 825.16 C 538.93 837.78 546.63 849.65 552.84 862.32 C 559.07 874.47 565.21 887.20 566.05 901.05 C 566.36 913.86 584.81 920.70 593.74 911.81 C 600.06 907.24 601.23 899.09 603.32 892.14 C 604.84 886.64 608.65 882.30 611.62 877.56 C 613.28 875.04 612.31 871.93 611.84 869.22 C 609.15 857.39 604.89 845.98 602.47 834.09 C 600.32 823.66 597.66 813.35 595.58 802.92 C 590.09 772.33 581.67 742.02 581.37 710.73 C 557.87 702.46 530.78 706.82 510.20 720.56 M 427.81 749.27 C 427.19 755.75 426.37 762.32 424.34 768.54 C 421.25 777.02 412.77 781.69 404.68 784.41 C 404.08 793.24 407.85 801.81 413.51 808.42 C 422.62 819.28 436.27 825.34 450.18 826.98 C 457.82 821.75 467.54 820.64 474.79 814.75 C 484.28 807.30 489.43 795.67 492.09 784.17 C 494.30 774.80 496.54 765.40 500.34 756.52 C 501.80 752.49 504.24 748.62 504.02 744.18 C 491.87 741.60 479.32 741.37 466.96 742.10 C 453.66 743.02 441.03 747.80 427.81 749.27 M 359.10 815.07 C 346.23 828.32 334.88 842.91 323.75 857.62 C 316.48 867.71 308.47 877.28 301.53 887.61 C 299.34 890.54 299.02 894.66 300.95 897.82 C 304.14 903.06 310.13 905.78 315.93 907.02 C 324.31 909.06 333.16 907.28 340.85 903.66 C 348.95 900.36 355.38 894.29 362.39 889.25 C 367.99 885.14 373.97 881.56 380.04 878.19 C 394.84 869.96 409.30 861.05 422.75 850.74 C 430.22 845.04 436.65 838.16 443.74 832.02 C 428.97 829.99 414.98 821.84 406.40 809.58 C 401.51 802.77 398.97 794.34 399.83 785.95 C 383.76 791.52 370.77 803.10 359.10 815.07 M 707.90 866.80 C 696.29 869.50 685.50 874.69 674.75 879.68 C 667.96 882.85 660.51 884.72 652.99 884.51 C 640.93 884.26 629.11 881.53 617.36 879.04 C 615.45 881.88 613.38 884.61 611.44 887.44 C 607.28 893.40 606.72 900.96 603.21 907.25 C 600.35 912.42 597.05 918.20 591.04 920.08 C 583.01 923.40 573.97 920.64 567.29 915.66 C 568.70 928.14 569.12 940.87 572.83 952.96 C 575.75 961.65 580.02 970.03 586.13 976.92 C 589.02 979.85 592.57 983.09 596.99 982.87 C 604.00 982.66 610.21 978.79 615.51 974.50 C 624.48 967.55 632.19 959.20 640.16 951.18 C 646.75 945.00 653.26 938.24 661.84 934.87 C 670.33 931.44 679.20 928.74 687.00 923.81 C 695.76 918.26 704.27 912.00 710.93 903.96 C 716.81 896.49 721.58 887.64 722.13 877.97 C 722.30 874.66 722.95 870.42 720.03 868.08 C 716.45 865.79 711.90 865.92 707.90 866.80 M 284.91 911.90 C 282.73 918.90 282.04 926.46 283.39 933.71 C 284.57 940.52 290.56 945.88 297.10 947.50 C 308.04 948.78 319.09 946.53 330.02 948.10 C 352.85 951.26 374.79 959.84 397.99 960.42 C 407.09 960.76 416.55 960.82 425.07 957.15 C 427.85 955.94 430.97 954.10 431.54 950.85 C 432.45 946.90 430.44 943.03 427.66 940.37 C 420.80 933.46 410.99 931.29 402.30 927.66 C 386.32 921.26 375.75 905.89 359.09 900.76 C 347.08 910.05 331.47 916.39 316.15 912.89 C 306.83 910.52 296.59 905.83 293.13 896.11 C 290.19 901.26 286.66 906.17 284.91 911.90 Z" />
        <path fill="#020202" opacity="1.00"
            d=" M 429.11 298.26 C 431.64 300.47 430.43 303.95 429.78 306.72 C 425.97 319.62 418.50 331.02 411.07 342.09 C 408.62 345.30 406.27 349.78 401.61 349.67 C 412.48 333.53 422.51 316.65 429.11 298.26 Z" />
        <path fill="#020202" opacity="1.00"
            d=" M 672.25 320.29 C 672.77 320.13 673.80 319.81 674.32 319.66 C 674.58 322.83 671.64 324.67 669.63 326.59 C 659.97 334.62 649.96 342.22 640.46 350.44 C 630.27 359.08 618.05 365.28 604.97 368.07 C 600.47 368.92 595.92 370.26 591.31 369.73 C 590.97 368.64 591.28 367.83 592.24 367.32 C 595.51 365.58 599.18 364.82 602.69 363.72 C 611.02 361.32 619.24 358.26 626.59 353.59 C 636.91 347.12 645.51 338.30 655.83 331.82 C 661.54 328.31 666.63 323.91 672.25 320.29 Z" />
        <path fill="#020202" opacity="1.00"
            d=" M 432.01 355.10 C 436.32 356.24 439.23 359.79 442.81 362.20 C 456.78 372.10 473.81 378.00 491.02 377.56 C 513.04 377.11 534.65 371.98 555.68 365.79 C 561.37 364.27 566.71 361.24 572.69 360.98 C 570.10 365.80 564.19 366.67 559.65 368.80 C 539.51 377.28 517.78 381.93 495.94 382.53 C 476.34 382.99 456.60 376.86 441.00 364.95 C 437.57 362.13 433.45 359.53 432.01 355.10 Z" />
        <path fill="#020202" opacity="1.00"
            d=" M 585.14 419.01 C 586.53 416.80 587.25 413.53 590.15 412.87 C 590.80 414.51 590.42 416.23 589.80 417.82 C 586.54 426.23 582.78 434.81 576.01 441.04 C 563.27 452.99 547.16 461.31 530.08 464.98 C 512.71 468.34 494.41 468.81 477.29 463.85 C 471.30 462.37 465.64 459.80 460.36 456.62 C 461.96 454.45 464.44 455.87 466.41 456.49 C 481.88 462.25 498.70 463.70 515.06 461.98 C 531.86 460.72 548.28 454.89 562.00 445.10 C 571.80 438.59 579.99 429.62 585.14 419.01 Z" />
        <path fill="#020202" opacity="1.00"
            d=" M 566.75 481.82 C 570.14 481.11 573.25 479.55 576.19 477.78 C 576.31 482.36 571.42 483.79 567.93 485.03 C 546.80 491.57 524.41 490.31 502.59 490.93 C 513.19 493.81 524.45 494.10 534.66 498.43 C 539.78 500.61 545.07 502.40 550.08 504.81 C 551.65 505.32 551.95 507.03 552.79 508.25 C 541.38 505.68 530.72 500.45 519.18 498.37 C 510.20 496.73 501.17 495.14 492.41 492.50 C 490.64 491.93 488.82 491.32 487.42 490.06 C 487.07 488.47 487.61 487.56 489.06 487.33 C 499.62 485.88 510.32 485.80 520.97 485.90 C 536.30 485.98 551.76 485.26 566.75 481.82 Z" />
        <path fill="#020202" opacity="1.00"
            d=" M 388.20 526.98 C 388.77 523.36 393.16 523.39 396.00 523.38 C 403.07 523.63 410.85 523.17 417.00 527.28 C 409.15 528.21 401.19 526.25 393.36 527.93 C 396.06 531.08 400.20 532.02 404.03 533.03 C 423.32 537.75 443.43 537.50 462.75 542.04 C 468.64 543.78 474.98 545.21 479.74 549.34 C 480.98 550.54 482.94 552.04 481.57 553.91 C 478.04 552.93 475.03 550.63 471.46 549.76 C 447.30 542.73 421.39 545.23 397.41 537.41 C 392.75 536.11 388.09 532.14 388.20 526.98 Z" />
        <path fill="#020202" opacity="1.00"
            d=" M 419.73 559.95 C 427.16 559.27 434.58 560.97 442.03 560.63 C 456.49 560.06 471.11 561.76 484.86 566.34 C 493.17 568.99 500.77 574.07 505.93 581.14 C 507.28 582.47 506.86 585.66 504.47 584.66 C 499.28 580.69 494.43 576.03 488.16 573.77 C 467.20 565.56 444.19 567.50 422.50 562.61 C 420.95 562.54 420.29 561.16 419.73 559.95 Z" />
        <path fill="#020202" opacity="1.00"
            d=" M 395.64 606.18 C 394.76 604.48 393.68 601.05 396.70 601.18 C 400.49 605.74 403.66 610.83 407.87 615.04 C 415.09 622.29 423.03 628.96 432.03 633.90 C 437.85 637.24 443.88 640.18 449.95 643.05 C 453.28 644.75 457.04 646.12 459.23 649.37 C 457.20 650.14 455.10 649.74 453.20 648.88 C 441.89 644.15 430.02 640.24 420.11 632.79 C 410.49 625.49 401.24 617.05 395.64 606.18 Z" />
    </g>
    <g id="#f0b58bff">
        <path fill="#f0b58b" opacity="1.00"
            d=" M 576.48 149.19 C 579.11 151.59 582.19 154.44 586.07 153.11 C 587.99 153.92 589.82 155.17 591.97 155.27 C 593.42 154.73 594.08 153.15 595.12 152.10 C 604.20 160.80 616.24 167.11 629.03 166.98 C 631.26 167.02 632.42 164.99 633.41 163.31 C 634.32 165.11 636.14 166.78 635.80 168.97 C 635.16 174.86 633.37 180.60 630.91 185.97 C 628.76 190.75 625.26 194.72 622.42 199.07 C 619.93 194.84 616.33 191.11 611.61 189.45 C 601.96 185.97 590.34 188.77 583.24 196.15 C 585.80 199.42 589.91 200.64 593.53 202.32 C 597.69 204.01 601.74 206.07 606.11 207.16 C 609.09 207.43 609.63 204.18 610.58 202.13 C 613.71 202.68 616.86 203.19 620.01 203.70 C 617.37 209.77 615.38 216.08 613.49 222.41 C 612.12 226.49 611.04 230.88 608.26 234.28 C 606.13 236.89 602.11 234.54 599.72 236.72 C 597.07 239.36 596.06 243.11 594.24 246.29 C 590.82 252.55 586.79 258.63 581.51 263.47 C 577.68 267.20 571.90 266.79 566.99 266.34 C 558.37 264.88 551.36 258.66 546.14 251.99 C 544.53 250.36 543.91 246.64 541.04 247.24 C 539.90 250.22 541.89 253.12 543.16 255.71 C 545.89 261.30 550.84 265.31 555.86 268.77 C 553.78 275.02 552.39 281.46 550.71 287.82 C 549.55 292.58 546.34 296.90 541.62 298.58 C 535.10 301.27 528.47 297.27 522.94 294.08 C 514.88 289.82 508.67 283.02 502.69 276.31 C 496.47 268.94 492.33 260.10 488.84 251.19 C 486.40 244.95 482.89 238.95 482.40 232.13 C 489.83 226.12 496.25 218.59 499.62 209.55 C 504.91 209.79 509.84 207.25 512.83 202.92 C 515.39 203.94 517.96 204.92 520.55 205.89 C 516.12 196.51 510.21 186.80 511.47 176.00 C 511.61 172.83 512.82 169.43 515.67 167.74 C 519.08 165.52 523.79 166.62 526.48 169.48 C 530.45 173.55 531.80 179.25 533.53 184.48 C 535.04 189.26 537.32 193.74 539.42 198.29 C 540.39 192.48 541.47 186.57 544.14 181.26 C 546.50 176.65 549.15 172.19 551.59 167.63 C 553.36 171.25 555.43 174.70 557.58 178.11 C 559.22 171.97 562.11 166.11 566.55 161.51 C 570.00 157.51 575.22 154.71 576.48 149.19 Z" />
        <path fill="#f0b58b" opacity="1.00"
            d=" M 874.69 196.68 C 879.34 191.21 884.00 185.48 890.37 181.91 C 884.85 193.65 876.03 203.38 869.81 214.69 C 866.53 215.17 863.25 215.63 859.98 216.13 C 865.09 209.80 869.44 202.89 874.69 196.68 Z" />
        <path fill="#f0b58b" opacity="1.00"
            d=" M 876.07 214.29 C 885.00 207.19 893.73 198.41 905.36 196.22 C 901.46 208.19 892.35 217.35 884.96 227.22 C 883.24 229.75 887.21 232.00 889.03 230.00 C 894.56 224.98 899.17 218.48 906.53 215.92 C 904.47 224.87 897.43 231.16 892.32 238.36 C 890.33 240.40 893.51 243.71 895.63 241.71 C 901.18 237.59 907.29 233.83 914.22 232.70 C 908.38 247.26 891.83 251.88 882.10 263.04 C 878.68 267.09 874.60 270.63 869.67 272.70 C 865.76 274.90 860.91 272.86 857.06 275.18 C 851.35 278.30 846.13 282.19 840.67 285.71 C 828.78 293.43 816.65 300.95 803.62 306.60 C 789.21 312.41 773.34 315.73 757.85 313.01 C 762.26 298.90 760.35 283.97 761.50 269.45 C 767.85 270.54 774.42 270.33 780.70 268.82 C 785.54 267.63 789.94 265.21 794.62 263.55 C 803.49 260.36 812.63 257.68 822.07 256.93 C 828.56 256.35 835.36 253.66 839.14 248.10 C 843.13 241.41 844.20 233.46 847.65 226.53 C 849.47 223.29 853.67 223.15 856.88 222.35 C 863.37 221.29 869.86 219.91 876.47 219.84 C 875.05 226.89 866.88 227.69 861.62 230.68 C 857.30 232.57 855.54 239.47 859.30 242.63 C 863.39 243.43 860.59 236.84 863.72 235.83 C 868.88 233.48 874.89 232.20 878.77 227.74 C 880.85 225.12 882.37 221.43 881.11 218.13 C 880.29 215.97 877.94 215.24 876.07 214.29 Z" />
        <path fill="#f0b58b" opacity="1.00"
            d=" M 238.25 347.81 C 253.36 345.22 269.25 351.58 283.86 345.34 C 287.21 352.68 290.91 359.91 293.12 367.71 C 294.44 372.32 295.89 376.90 297.39 381.46 C 289.88 385.20 281.81 387.82 273.55 389.29 C 259.14 391.44 244.52 390.42 230.02 391.31 C 215.33 391.65 200.71 393.35 186.02 393.66 C 182.84 393.88 179.55 393.73 176.47 394.67 C 173.38 397.15 171.57 400.96 168.16 403.14 C 162.82 406.81 157.10 410.65 150.51 411.39 C 149.90 413.98 149.89 416.75 150.82 419.27 C 153.58 426.64 158.54 433.00 160.86 440.55 C 153.88 434.31 150.87 425.22 147.02 416.99 C 145.92 414.35 142.61 411.62 139.88 413.87 C 137.76 417.47 139.33 421.91 139.31 425.87 C 139.49 433.95 141.18 442.23 138.97 450.18 C 135.67 442.78 134.94 434.61 133.13 426.79 C 131.92 422.17 132.01 417.22 130.04 412.82 C 127.62 412.55 125.90 414.85 123.99 416.02 C 115.95 421.70 111.15 431.05 102.36 435.77 C 105.51 429.46 110.53 424.38 114.96 418.97 C 118.05 415.12 122.04 412.22 125.79 409.07 C 125.35 408.71 124.48 407.99 124.05 407.63 C 114.11 407.87 104.92 412.59 95.04 413.25 C 99.47 409.94 104.57 407.64 109.76 405.81 C 114.09 404.06 118.59 406.26 123.02 406.27 C 128.59 406.37 134.26 407.06 139.79 406.07 C 139.80 405.56 139.81 404.53 139.82 404.02 C 129.81 401.26 118.95 401.44 109.42 396.96 C 115.25 396.42 121.12 396.33 126.89 395.30 C 132.42 394.39 138.29 394.68 143.52 392.43 C 145.03 391.30 144.88 390.47 143.05 389.94 C 136.93 389.58 130.80 390.27 124.71 390.77 C 138.15 383.12 151.69 374.49 167.28 372.18 C 173.58 371.26 179.68 369.26 185.31 366.29 C 201.86 357.49 219.70 350.81 238.25 347.81 Z" />
        <path fill="#f0b58b" opacity="1.00"
            d=" M 521.81 643.95 C 535.36 640.82 549.45 640.95 563.21 642.42 C 565.86 648.85 570.64 654.07 573.58 660.34 C 577.10 667.87 580.74 675.56 581.80 683.90 C 582.77 691.22 581.74 698.57 581.30 705.88 C 569.19 699.79 555.14 699.19 541.93 700.85 C 530.61 702.49 519.47 706.21 509.95 712.66 C 509.26 705.31 507.46 697.86 503.17 691.73 C 496.54 682.00 487.52 674.22 478.67 666.58 C 493.09 659.15 505.94 648.33 521.81 643.95 Z" />
        <path fill="#f0b58b" opacity="1.00"
            d=" M 427.81 749.27 C 441.03 747.80 453.66 743.02 466.96 742.10 C 479.32 741.37 491.87 741.60 504.02 744.18 C 504.24 748.62 501.80 752.49 500.34 756.52 C 496.54 765.40 494.30 774.80 492.09 784.17 C 489.43 795.67 484.28 807.30 474.79 814.75 C 467.54 820.64 457.82 821.75 450.18 826.98 C 436.27 825.34 422.62 819.28 413.51 808.42 C 407.85 801.81 404.08 793.24 404.68 784.41 C 412.77 781.69 421.25 777.02 424.34 768.54 C 426.37 762.32 427.19 755.75 427.81 749.27 Z" />
    </g>
    <g id="#f11b27ff">
        <path fill="var(--shirt-color, grey)" opacity="1.00"
            d=" M 462.41 232.51 C 467.11 229.79 472.70 229.65 477.95 228.87 C 476.03 236.97 480.53 244.37 483.42 251.59 C 487.55 262.08 492.39 272.53 499.90 281.05 C 505.10 286.88 510.40 292.84 517.18 296.88 C 523.27 300.53 529.67 304.59 536.99 304.80 C 544.79 304.74 552.32 299.19 554.41 291.61 C 556.39 284.55 557.32 277.25 558.34 270.00 C 565.69 272.98 574.49 274.17 581.93 270.95 C 592.30 264.26 598.10 252.75 603.20 241.91 C 605.23 241.78 607.36 241.99 609.31 241.28 C 611.63 240.29 613.19 238.21 614.86 236.42 C 631.09 237.25 647.39 239.15 662.92 244.16 C 675.02 247.43 686.43 253.53 699.10 254.37 C 709.50 255.16 719.57 251.31 729.95 251.72 C 739.21 252.08 748.61 252.75 757.44 255.77 C 755.96 268.81 755.56 281.94 755.28 295.06 C 754.96 303.40 753.92 312.61 747.95 318.96 C 739.88 325.76 728.78 325.31 718.88 326.34 C 714.03 326.89 709.23 327.76 704.47 328.77 C 710.58 324.18 716.31 319.07 721.60 313.56 C 723.05 312.25 723.31 310.30 723.58 308.48 C 719.24 310.20 716.07 313.71 712.49 316.53 C 704.07 323.05 696.02 330.04 687.38 336.27 C 678.68 341.80 670.32 348.10 660.47 351.49 C 641.37 358.79 627.82 374.95 615.71 390.70 C 606.58 403.47 605.27 419.65 604.33 434.82 C 604.08 440.06 602.35 445.14 599.35 449.44 C 589.36 464.49 582.65 481.89 581.17 499.96 C 581.03 510.89 580.57 522.17 576.51 532.47 C 573.46 540.07 565.37 543.62 558.21 546.34 C 549.75 549.26 540.88 551.66 531.88 551.69 C 525.74 550.76 520.12 547.84 514.33 545.72 C 503.42 540.65 492.63 535.17 482.57 528.54 C 464.60 517.36 449.94 501.78 436.10 485.96 C 430.33 479.58 423.39 474.26 415.85 470.14 C 413.51 468.74 410.80 468.31 408.12 468.79 C 409.78 470.53 411.71 471.98 413.76 473.24 C 426.63 481.22 435.09 494.18 446.15 504.24 C 439.87 504.26 433.65 503.18 427.70 501.20 C 412.93 496.30 397.39 494.72 382.07 492.48 C 379.95 492.14 377.27 491.48 376.94 488.94 C 375.24 480.84 379.83 473.38 383.69 466.65 C 386.31 461.79 390.59 457.89 392.36 452.57 C 394.20 447.22 392.64 441.22 395.18 436.05 C 398.18 429.32 405.91 425.04 406.12 417.05 C 406.19 403.93 397.86 393.00 392.85 381.42 C 399.04 385.34 403.84 390.95 409.19 395.86 C 413.86 400.16 418.71 404.27 423.03 408.93 C 424.69 410.47 426.23 412.59 428.67 412.81 C 429.11 411.47 428.77 410.11 427.93 409.02 C 423.23 402.18 416.79 396.83 411.02 390.94 C 405.90 385.88 401.02 380.45 394.86 376.62 C 402.22 376.20 409.65 376.21 416.95 377.45 C 421.82 378.04 426.51 379.74 431.45 379.96 C 429.65 378.15 427.51 376.65 425.01 376.03 C 410.63 372.16 395.22 370.90 380.70 374.78 C 366.82 379.14 354.80 387.57 341.71 393.70 C 333.77 397.41 325.73 401.42 317.00 402.77 C 313.98 403.30 312.49 400.03 310.98 398.05 C 301.10 383.55 299.90 365.39 292.05 349.97 C 288.58 342.30 284.08 335.14 279.17 328.31 C 285.97 324.98 292.57 321.26 299.62 318.46 C 308.57 314.45 318.46 312.87 327.11 308.13 C 333.53 304.80 339.16 300.22 345.14 296.20 C 353.02 290.90 360.54 285.03 367.20 278.25 C 372.08 273.46 376.90 268.46 382.77 264.88 C 389.33 260.95 397.14 260.40 404.53 259.32 C 414.47 257.92 424.67 257.42 434.25 254.15 C 439.91 251.97 445.59 249.25 449.81 244.77 C 454.01 240.69 457.26 235.52 462.41 232.51 M 429.11 298.26 C 422.51 316.65 412.48 333.53 401.61 349.67 C 406.27 349.78 408.62 345.30 411.07 342.09 C 418.50 331.02 425.97 319.62 429.78 306.72 C 430.43 303.95 431.64 300.47 429.11 298.26 M 672.25 320.29 C 666.63 323.91 661.54 328.31 655.83 331.82 C 645.51 338.30 636.91 347.12 626.59 353.59 C 619.24 358.26 611.02 361.32 602.69 363.72 C 599.18 364.82 595.51 365.58 592.24 367.32 C 591.28 367.83 590.97 368.64 591.31 369.73 C 595.92 370.26 600.47 368.92 604.97 368.07 C 618.05 365.28 630.27 359.08 640.46 350.44 C 649.96 342.22 659.97 334.62 669.63 326.59 C 671.64 324.67 674.58 322.83 674.32 319.66 C 673.80 319.81 672.77 320.13 672.25 320.29 M 432.01 355.10 C 433.45 359.53 437.57 362.13 441.00 364.95 C 456.60 376.86 476.34 382.99 495.94 382.53 C 517.78 381.93 539.51 377.28 559.65 368.80 C 564.19 366.67 570.10 365.80 572.69 360.98 C 566.71 361.24 561.37 364.27 555.68 365.79 C 534.65 371.98 513.04 377.11 491.02 377.56 C 473.81 378.00 456.78 372.10 442.81 362.20 C 439.23 359.79 436.32 356.24 432.01 355.10 M 585.14 419.01 C 579.99 429.62 571.80 438.59 562.00 445.10 C 548.28 454.89 531.86 460.72 515.06 461.98 C 498.70 463.70 481.88 462.25 466.41 456.49 C 464.44 455.87 461.96 454.45 460.36 456.62 C 465.64 459.80 471.30 462.37 477.29 463.85 C 494.41 468.81 512.71 468.34 530.08 464.98 C 547.16 461.31 563.27 452.99 576.01 441.04 C 582.78 434.81 586.54 426.23 589.80 417.82 C 590.42 416.23 590.80 414.51 590.15 412.87 C 587.25 413.53 586.53 416.80 585.14 419.01 M 566.75 481.82 C 551.76 485.26 536.30 485.98 520.97 485.90 C 510.32 485.80 499.62 485.88 489.06 487.33 C 487.61 487.56 487.07 488.47 487.42 490.06 C 488.82 491.32 490.64 491.93 492.41 492.50 C 501.17 495.14 510.20 496.73 519.18 498.37 C 530.72 500.45 541.38 505.68 552.79 508.25 C 551.95 507.03 551.65 505.32 550.08 504.81 C 545.07 502.40 539.78 500.61 534.66 498.43 C 524.45 494.10 513.19 493.81 502.59 490.93 C 524.41 490.31 546.80 491.57 567.93 485.03 C 571.42 483.79 576.31 482.36 576.19 477.78 C 573.25 479.55 570.14 481.11 566.75 481.82 Z" />
    </g>
    <g id="#ffffffff">
        <path fill="var(--pants-color, grey)" opacity="1.00"
            d=" M 382.40 497.93 C 394.97 500.02 407.72 501.30 420.04 504.68 C 427.25 506.64 434.42 509.24 441.98 509.37 C 444.55 509.53 447.30 509.09 449.70 510.24 C 457.88 513.94 463.50 521.22 470.83 526.16 C 477.44 530.62 483.93 535.29 490.93 539.15 C 503.22 545.71 515.61 552.47 529.21 555.92 C 535.18 557.28 541.34 556.27 547.30 555.36 C 548.36 564.06 549.60 572.87 553.10 580.99 C 555.72 588.54 560.23 595.76 559.95 604.02 C 559.68 610.92 559.81 617.84 560.80 624.68 C 556.30 619.95 551.63 615.24 548.58 609.40 C 540.30 595.12 531.88 580.56 520.00 568.92 C 515.88 564.91 510.72 562.06 505.19 560.57 C 500.83 559.43 496.40 557.80 491.83 558.22 C 490.25 560.84 494.01 561.37 495.72 562.13 C 503.12 564.35 510.59 567.35 516.07 573.02 C 528.23 585.35 536.80 600.57 545.75 615.25 C 551.59 624.55 561.27 630.31 568.24 638.60 C 554.59 635.00 540.15 635.18 526.22 636.82 C 507.54 639.29 492.76 651.91 476.96 661.03 C 462.21 669.43 447.53 678.50 431.14 683.38 C 429.33 678.62 426.91 674.13 424.16 669.87 C 414.59 654.61 409.46 637.14 400.39 621.62 C 392.03 605.75 381.00 591.28 374.50 574.46 C 368.73 558.55 368.39 541.03 371.67 524.54 C 373.49 515.07 377.78 506.31 382.40 497.93 M 388.20 526.98 C 388.09 532.14 392.75 536.11 397.41 537.41 C 421.39 545.23 447.30 542.73 471.46 549.76 C 475.03 550.63 478.04 552.93 481.57 553.91 C 482.94 552.04 480.98 550.54 479.74 549.34 C 474.98 545.21 468.64 543.78 462.75 542.04 C 443.43 537.50 423.32 537.75 404.03 533.03 C 400.20 532.02 396.06 531.08 393.36 527.93 C 401.19 526.25 409.15 528.21 417.00 527.28 C 410.85 523.17 403.07 523.63 396.00 523.38 C 393.16 523.39 388.77 523.36 388.20 526.98 M 419.73 559.95 C 420.29 561.16 420.95 562.54 422.50 562.61 C 444.19 567.50 467.20 565.56 488.16 573.77 C 494.43 576.03 499.28 580.69 504.47 584.66 C 506.86 585.66 507.28 582.47 505.93 581.14 C 500.77 574.07 493.17 568.99 484.86 566.34 C 471.11 561.76 456.49 560.06 442.03 560.63 C 434.58 560.97 427.16 559.27 419.73 559.95 M 395.64 606.18 C 401.24 617.05 410.49 625.49 420.11 632.79 C 430.02 640.24 441.89 644.15 453.20 648.88 C 455.10 649.74 457.20 650.14 459.23 649.37 C 457.04 646.12 453.28 644.75 449.95 643.05 C 443.88 640.18 437.85 637.24 432.03 633.90 C 423.03 628.96 415.09 622.29 407.87 615.04 C 403.66 610.83 400.49 605.74 396.70 601.18 C 393.68 601.05 394.76 604.48 395.64 606.18 Z" />
        <path fill="var(--pants-color, grey)" opacity="1.00"
            d=" M 450.64 681.55 C 458.18 677.88 465.49 673.79 472.80 669.68 C 482.61 679.58 494.63 688.14 500.59 701.14 C 504.92 713.35 503.17 726.59 503.49 739.28 C 494.47 737.10 485.17 737.16 475.97 736.64 C 462.62 736.39 449.48 739.19 436.58 742.30 C 429.77 743.59 422.27 745.89 415.72 742.42 C 419.40 729.34 422.31 716.06 425.37 702.82 C 426.44 698.06 426.84 693.17 426.85 688.31 C 435.14 687.74 443.38 685.65 450.64 681.55 Z" />
        <path fill="var(--socks-color, grey)" opacity="1.00"
            d=" M 510.20 720.56 C 530.78 706.82 557.87 702.46 581.37 710.73 C 581.67 742.02 590.09 772.33 595.58 802.92 C 597.66 813.35 600.32 823.66 602.47 834.09 C 604.89 845.98 609.15 857.39 611.84 869.22 C 612.31 871.93 613.28 875.04 611.62 877.56 C 608.65 882.30 604.84 886.64 603.32 892.14 C 601.23 899.09 600.06 907.24 593.74 911.81 C 584.81 920.70 566.36 913.86 566.05 901.05 C 565.21 887.20 559.07 874.47 552.84 862.32 C 546.63 849.65 538.93 837.78 532.64 825.16 C 523.37 806.66 515.31 787.30 511.51 766.88 C 508.50 751.61 509.65 735.99 510.20 720.56 Z" />
        <path fill="var(--socks-color, grey)" opacity="1.00"
            d=" M 359.10 815.07 C 370.77 803.10 383.76 791.52 399.83 785.95 C 398.97 794.34 401.51 802.77 406.40 809.58 C 414.98 821.84 428.97 829.99 443.74 832.02 C 436.65 838.16 430.22 845.04 422.75 850.74 C 409.30 861.05 394.84 869.96 380.04 878.19 C 373.97 881.56 367.99 885.14 362.39 889.25 C 355.38 894.29 348.95 900.36 340.85 903.66 C 333.16 907.28 324.31 909.06 315.93 907.02 C 310.13 905.78 304.14 903.06 300.95 897.82 C 299.02 894.66 299.34 890.54 301.53 887.61 C 308.47 877.28 316.48 867.71 323.75 857.62 C 334.88 842.91 346.23 828.32 359.10 815.07 Z" />
    </g>
    <g id="#4d4d4dff">
        <path fill="#4d4d4d" opacity="1.00"
            d=" M 707.90 866.80 C 711.90 865.92 716.45 865.79 720.03 868.08 C 722.95 870.42 722.30 874.66 722.13 877.97 C 721.58 887.64 716.81 896.49 710.93 903.96 C 704.27 912.00 695.76 918.26 687.00 923.81 C 679.20 928.74 670.33 931.44 661.84 934.87 C 653.26 938.24 646.75 945.00 640.16 951.18 C 632.19 959.20 624.48 967.55 615.51 974.50 C 610.21 978.79 604.00 982.66 596.99 982.87 C 592.57 983.09 589.02 979.85 586.13 976.92 C 580.02 970.03 575.75 961.65 572.83 952.96 C 569.12 940.87 568.70 928.14 567.29 915.66 C 573.97 920.64 583.01 923.40 591.04 920.08 C 597.05 918.20 600.35 912.42 603.21 907.25 C 606.72 900.96 607.28 893.40 611.44 887.44 C 613.38 884.61 615.45 881.88 617.36 879.04 C 629.11 881.53 640.93 884.26 652.99 884.51 C 660.51 884.72 667.96 882.85 674.75 879.68 C 685.50 874.69 696.29 869.50 707.90 866.80 Z" />
        <path fill="#4d4d4d" opacity="1.00"
            d=" M 284.91 911.90 C 286.66 906.17 290.19 901.26 293.13 896.11 C 296.59 905.83 306.83 910.52 316.15 912.89 C 331.47 916.39 347.08 910.05 359.09 900.76 C 375.75 905.89 386.32 921.26 402.30 927.66 C 410.99 931.29 420.80 933.46 427.66 940.37 C 430.44 943.03 432.45 946.90 431.54 950.85 C 430.97 954.10 427.85 955.94 425.07 957.15 C 416.55 960.82 407.09 960.76 397.99 960.42 C 374.79 959.84 352.85 951.26 330.02 948.10 C 319.09 946.53 308.04 948.78 297.10 947.50 C 290.56 945.88 284.57 940.52 283.39 933.71 C 282.04 926.46 282.73 918.90 284.91 911.90 Z" />
    </g>
</svg>