<?xml version="1.0" encoding="UTF-8" ?>
<!DOCTYPE svg PUBLIC "-//W3C//DTD SVG 1.1//EN" "http://www.w3.org/Graphics/SVG/1.1/DTD/svg11.dtd">
<svg width="1000pt" height="1000pt" viewBox="0 0 1000 1000" version="1.1" xmlns="http://www.w3.org/2000/svg">
    <g id="#020202ff">
        <path fill="#020202" opacity="1.00"
            d=" M 483.50 22.72 C 487.35 24.10 490.65 26.55 493.78 29.13 C 493.66 28.12 493.44 26.10 493.32 25.09 C 499.54 27.89 505.09 31.91 510.74 35.66 C 520.09 33.55 530.38 35.24 538.41 40.56 C 542.28 42.97 545.90 45.76 549.42 48.66 C 553.82 52.26 559.43 54.36 563.13 58.81 C 564.20 60.00 563.67 61.69 563.76 63.13 C 567.60 65.72 572.01 67.97 574.51 72.04 C 574.48 72.58 574.42 73.67 574.39 74.22 C 572.03 73.82 569.77 73.06 567.53 72.27 C 572.64 77.67 577.02 84.30 577.74 91.87 C 578.47 98.89 578.70 106.57 574.84 112.81 C 568.54 123.30 573.53 135.77 574.75 146.94 C 573.43 146.40 572.11 145.85 570.81 145.28 C 572.32 147.52 573.70 149.87 574.49 152.48 C 568.36 149.53 563.86 144.21 559.29 139.34 C 559.35 143.68 558.97 148.10 557.36 152.18 C 553.53 162.28 548.04 171.62 543.29 181.30 C 541.22 185.59 539.24 190.08 539.06 194.92 C 538.74 197.43 539.12 200.31 537.33 202.36 C 532.24 208.52 525.46 212.93 518.86 217.30 C 523.40 232.51 522.36 249.09 517.09 263.97 C 513.18 275.20 505.47 284.44 499.78 294.75 C 493.91 304.01 489.31 314.03 485.67 324.36 C 482.24 340.43 471.52 353.84 459.25 364.27 C 457.20 366.12 454.34 367.81 454.31 370.92 C 453.87 379.83 455.80 388.68 457.80 397.31 C 461.50 409.18 466.48 420.69 469.02 432.92 C 470.56 440.43 469.67 448.43 466.38 455.37 C 464.95 458.18 462.86 461.00 459.74 461.99 C 457.50 462.87 455.14 461.96 452.89 461.65 C 451.80 467.38 449.86 472.89 447.67 478.29 C 459.44 491.63 473.60 502.50 487.35 513.67 C 500.00 522.55 508.72 536.70 511.32 551.90 C 523.70 552.82 535.78 555.88 547.62 559.46 C 561.69 563.84 574.37 571.55 586.90 579.11 C 604.09 590.28 621.53 601.06 638.73 612.23 C 646.81 617.51 655.18 622.35 663.86 626.59 C 670.47 623.70 678.03 623.99 684.44 620.50 C 695.86 614.52 705.23 605.27 713.40 595.42 C 720.61 586.27 727.41 576.77 735.17 568.06 C 740.39 562.22 746.25 555.93 754.28 554.37 C 757.87 553.67 760.88 556.41 762.88 559.06 C 767.96 565.91 770.28 574.26 772.38 582.40 C 775.25 594.20 772.59 606.67 767.36 617.42 C 760.18 633.43 750.77 648.31 743.13 664.09 C 741.03 668.57 739.59 673.33 738.02 678.02 C 735.37 685.84 736.95 694.44 734.08 702.22 C 732.06 707.10 728.77 711.36 725.27 715.27 C 718.52 722.41 710.06 728.98 700.04 730.24 C 691.15 729.88 683.09 725.15 676.32 719.70 C 665.50 710.99 655.45 700.42 650.80 687.06 C 644.92 683.90 638.93 680.95 633.02 677.84 C 616.40 669.40 597.95 665.88 580.14 660.90 C 562.74 656.27 545.44 651.03 528.74 644.27 C 511.55 637.01 495.64 627.16 479.99 617.09 C 472.71 612.37 464.60 608.72 458.51 602.39 C 451.47 595.15 447.12 585.89 441.09 577.90 C 437.32 572.81 431.83 569.45 426.37 566.45 C 425.66 574.46 425.30 582.71 422.48 590.33 C 420.09 589.31 417.73 588.26 415.38 587.17 C 415.38 594.60 413.87 601.91 411.83 609.01 C 408.22 621.69 406.70 634.87 406.23 648.01 C 405.95 655.85 404.79 663.68 402.40 671.16 C 400.53 677.07 395.93 681.45 391.99 686.02 C 388.11 690.44 383.69 694.33 379.48 698.41 C 375.98 704.33 374.23 711.10 371.46 717.37 C 365.00 732.42 359.31 747.88 351.12 762.12 C 341.63 779.21 328.71 794.18 314.29 807.28 C 304.37 817.10 296.38 828.80 290.27 841.32 C 287.84 846.06 285.36 850.81 282.32 855.21 C 286.66 861.81 288.71 869.53 290.83 877.05 C 293.63 887.65 297.65 897.86 300.86 908.33 C 305.44 923.73 312.49 938.70 313.11 955.00 C 313.32 959.72 311.95 965.10 307.66 967.71 C 302.48 970.31 296.34 969.75 290.97 968.07 C 281.44 965.15 272.09 960.32 265.70 952.48 C 263.11 949.41 260.23 946.59 257.75 943.43 C 247.50 929.73 241.87 912.72 229.11 900.91 C 223.13 894.90 215.04 891.79 208.59 886.39 C 204.76 883.29 200.60 880.07 198.77 875.33 C 197.10 870.60 195.87 865.31 197.62 860.42 C 201.31 849.38 209.93 840.95 219.06 834.16 C 223.43 831.04 227.95 827.89 233.22 826.51 C 238.41 818.57 244.47 811.16 248.67 802.61 C 255.97 788.20 261.36 772.95 266.79 757.77 C 273.93 737.91 282.67 718.58 293.51 700.45 C 301.73 686.91 310.78 673.56 322.71 662.99 C 323.25 652.65 324.79 642.39 324.86 632.03 C 326.16 614.91 325.71 597.74 325.70 580.60 C 318.05 575.55 311.14 569.41 303.19 564.82 C 298.80 562.25 293.64 561.33 289.38 558.57 C 286.40 556.69 286.32 552.57 287.68 549.67 C 292.49 538.97 298.58 528.91 303.64 518.34 C 291.35 506.76 278.54 494.36 273.06 477.95 C 270.12 467.78 268.35 456.87 270.56 446.38 C 266.38 439.57 264.34 431.76 261.86 424.24 C 258.29 412.45 253.98 400.79 252.23 388.54 C 251.00 380.24 252.31 371.76 255.15 363.91 C 256.85 358.50 259.77 352.88 258.09 347.10 C 254.59 325.54 257.07 303.60 258.92 282.00 C 259.93 273.82 259.75 265.17 263.65 257.68 C 266.03 253.20 265.86 248.01 266.48 243.11 C 267.83 230.69 265.69 218.10 267.85 205.74 C 269.44 196.50 274.87 188.64 279.82 180.91 C 286.68 170.51 292.82 159.49 301.50 150.45 C 310.66 141.01 324.13 136.99 337.02 136.82 C 348.68 135.94 360.51 138.50 372.02 135.77 C 377.97 134.56 382.55 128.70 389.06 130.01 C 396.61 131.55 403.45 135.38 410.13 139.09 C 411.02 136.81 411.82 134.50 412.50 132.15 C 410.64 128.65 408.28 125.14 408.17 121.04 C 408.65 110.28 413.63 100.54 417.23 90.59 C 414.85 90.86 412.44 91.50 410.06 91.01 C 407.91 90.52 406.45 88.75 404.89 87.35 C 414.05 82.07 418.91 72.14 422.53 62.63 C 425.23 56.10 427.41 48.72 433.34 44.31 C 443.38 36.49 456.68 35.27 468.97 35.47 C 477.63 35.22 486.23 36.39 494.65 38.35 C 491.24 32.91 486.71 28.29 483.50 22.72 M 514.23 119.26 C 506.34 124.77 496.64 127.06 489.00 132.98 C 487.34 134.19 485.87 135.83 483.78 136.24 C 482.80 133.56 484.27 130.90 484.69 128.27 C 481.23 126.75 477.39 126.78 473.85 127.97 C 471.09 134.49 466.33 140.09 464.68 147.06 C 464.16 148.58 463.83 150.44 462.36 151.36 C 460.87 151.87 459.26 151.74 457.73 151.90 C 458.38 154.62 459.23 157.33 459.34 160.14 C 458.69 162.36 455.73 162.15 454.49 160.60 C 449.22 155.61 444.77 149.59 442.03 142.85 C 439.75 137.17 440.45 131.00 440.63 125.05 C 440.70 119.42 431.23 116.07 428.58 121.57 C 425.77 127.62 426.92 134.61 427.49 141.02 C 428.37 148.56 434.38 153.79 437.49 160.31 C 431.51 157.60 425.70 154.30 420.66 150.09 C 418.69 147.21 418.53 143.51 417.70 140.20 C 416.33 141.11 414.94 141.98 413.53 142.80 C 408.61 148.48 403.27 154.33 396.05 157.01 C 391.23 159.29 385.98 160.68 381.40 163.45 C 376.19 167.74 375.03 174.95 373.77 181.22 C 372.21 189.00 373.99 197.15 378.17 203.83 C 381.37 208.77 384.64 214.15 390.10 216.87 C 395.95 219.84 402.50 221.46 409.05 221.69 C 418.41 221.71 427.03 217.49 435.03 213.06 C 439.85 210.28 444.86 207.79 449.32 204.43 C 445.74 199.35 442.45 194.05 439.73 188.46 C 438.85 186.84 438.65 185.00 438.65 183.19 C 441.68 185.28 443.37 188.62 445.56 191.47 C 455.91 205.83 468.22 218.90 482.52 229.38 C 485.97 231.43 490.40 234.95 494.42 232.28 C 498.73 229.25 502.07 225.09 505.90 221.51 C 502.89 219.94 499.69 218.72 496.87 216.84 C 496.61 215.67 496.42 214.50 496.28 213.32 C 494.38 212.12 491.14 211.72 491.29 208.87 C 492.99 207.60 494.89 208.77 496.57 209.43 C 501.52 211.68 506.46 213.96 511.39 216.24 C 516.67 211.73 522.86 208.48 528.25 204.12 C 524.95 195.90 525.87 185.56 531.76 178.74 C 535.10 174.61 541.50 173.91 543.62 168.70 C 548.94 158.48 556.14 148.19 555.45 136.12 C 553.07 134.63 550.71 133.06 548.10 132.01 C 544.73 130.87 540.75 131.58 537.82 129.22 C 531.71 124.65 526.09 119.31 521.71 113.03 C 519.37 115.27 516.93 117.43 514.23 119.26 M 374.34 141.32 C 359.11 144.81 343.41 140.46 328.08 143.16 C 318.94 144.68 310.05 148.88 303.87 155.91 C 295.22 165.55 288.59 176.73 281.52 187.52 C 277.46 193.84 273.49 200.54 272.54 208.13 C 271.04 219.93 272.99 231.85 271.62 243.68 C 274.83 238.28 278.13 232.89 282.13 228.03 C 283.14 226.64 284.84 226.15 286.37 225.58 C 285.12 231.45 281.14 236.14 278.43 241.36 C 274.66 248.57 269.74 255.24 267.35 263.11 C 264.89 268.60 264.93 274.70 264.29 280.57 C 262.33 301.64 259.88 322.92 262.37 344.07 C 262.84 347.46 263.24 351.04 265.08 354.02 C 272.37 357.03 280.47 357.47 287.95 359.94 C 289.59 360.37 290.78 361.65 290.51 363.46 C 280.97 362.25 271.06 361.94 262.15 357.92 C 260.33 365.21 257.53 372.37 257.42 379.98 C 257.25 389.61 260.14 398.93 262.88 408.05 C 266.45 419.21 269.73 430.47 273.59 441.54 C 280.07 439.32 286.73 437.65 293.15 435.26 C 303.04 431.82 312.18 426.59 320.93 420.92 C 329.18 415.73 337.75 410.45 347.49 408.71 C 361.60 406.86 376.41 408.19 389.34 414.43 C 397.33 418.34 404.97 422.92 412.59 427.50 C 425.87 435.54 437.65 445.74 450.36 454.60 C 453.51 456.57 458.11 460.16 461.31 456.33 C 465.27 449.27 465.28 440.50 463.31 432.80 C 460.30 421.95 455.92 411.55 452.41 400.86 C 449.92 391.60 448.06 382.03 448.33 372.40 C 444.23 374.69 440.25 377.18 436.50 380.02 C 437.08 384.74 436.99 389.93 433.90 393.84 C 429.86 398.97 424.09 402.46 418.34 405.36 C 415.76 406.83 412.91 405.90 410.32 405.06 C 407.64 405.70 404.82 406.69 402.09 405.75 C 399.72 405.20 398.19 403.20 396.63 401.52 C 393.86 401.49 390.92 401.80 388.38 400.47 C 385.97 399.34 384.72 396.87 383.35 394.74 C 380.14 394.86 376.50 395.38 373.81 393.21 C 369.63 390.07 369.01 384.45 368.78 379.62 C 361.33 377.55 354.36 374.10 347.67 370.27 C 337.42 364.35 326.96 358.65 317.62 351.32 C 315.78 349.83 313.75 348.27 313.19 345.84 C 314.88 344.68 316.53 346.01 318.00 346.84 C 327.92 353.06 338.07 358.91 348.16 364.86 C 355.08 369.06 362.24 372.86 369.66 376.10 C 370.13 374.71 370.60 373.34 371.08 371.97 C 365.47 366.70 358.85 362.73 352.46 358.51 C 339.33 349.69 325.58 341.73 313.31 331.69 C 306.05 325.66 298.84 319.18 294.08 310.92 C 292.99 309.28 293.17 307.26 293.20 305.40 C 297.05 308.71 299.65 313.18 303.26 316.73 C 316.40 330.13 332.93 339.31 348.44 349.60 C 356.86 355.27 365.71 360.44 373.06 367.52 C 377.03 358.78 383.72 350.57 393.41 348.13 C 396.92 339.39 404.76 333.57 411.62 327.55 C 401.57 325.50 393.21 318.97 386.03 311.97 C 382.58 308.24 378.83 304.20 377.80 299.07 C 377.02 297.31 379.25 296.23 380.28 297.55 C 387.05 305.86 395.15 313.11 404.20 318.86 C 407.89 321.27 412.14 322.72 416.53 323.13 C 421.21 318.29 426.26 313.73 430.36 308.38 C 432.83 303.92 435.59 299.24 435.90 294.05 C 434.97 287.48 430.48 281.87 430.26 275.12 C 429.59 264.88 435.57 256.01 441.12 247.98 C 442.21 246.79 443.46 244.59 445.43 245.57 C 441.83 253.91 436.54 261.82 435.62 271.08 C 434.98 276.18 436.97 281.07 438.46 285.84 C 441.70 272.60 448.13 259.59 459.17 251.18 C 462.17 249.06 464.78 245.76 468.68 245.46 C 468.41 248.36 465.84 250.05 464.01 251.98 C 457.63 257.90 452.93 265.37 449.15 273.13 C 445.57 280.54 443.77 288.61 441.23 296.39 C 446.54 292.33 451.56 287.92 456.47 283.39 C 458.08 282.18 460.12 279.56 461.98 281.95 C 459.53 287.94 454.28 292.15 449.74 296.55 C 460.77 293.56 473.22 296.63 481.21 304.87 C 483.94 307.66 484.76 311.57 485.56 315.25 C 488.64 304.17 494.74 294.33 500.60 284.55 C 503.97 278.94 508.02 273.72 510.75 267.74 C 517.57 253.03 519.08 236.00 515.25 220.26 C 510.33 224.67 505.65 229.35 500.78 233.82 C 498.56 235.68 496.10 237.95 493.00 237.81 C 487.13 237.10 481.52 234.71 476.74 231.26 C 467.46 224.54 459.00 216.67 451.84 207.72 C 442.72 214.53 432.77 220.47 421.96 224.14 C 410.88 227.88 398.34 226.47 388.17 220.80 C 381.20 216.79 377.02 209.64 373.06 202.92 C 368.43 195.11 368.09 185.59 370.01 176.91 C 371.46 170.22 373.67 162.61 380.03 159.00 C 386.13 155.92 392.80 154.04 398.77 150.68 C 402.49 148.48 405.51 145.33 408.80 142.56 C 401.80 140.35 395.25 136.59 387.94 135.48 C 382.83 135.69 379.33 140.43 374.34 141.32 M 530.60 202.13 C 531.61 201.01 532.69 199.93 533.53 198.65 C 533.85 196.45 533.70 194.20 533.98 191.99 C 534.53 186.60 537.12 181.75 539.01 176.76 C 530.55 182.12 529.53 193.09 530.60 202.13 M 433.68 314.60 C 428.51 320.09 423.06 325.32 417.33 330.23 C 410.97 335.81 403.96 340.88 399.11 347.93 C 402.07 348.74 405.11 349.57 407.64 351.41 C 410.02 352.99 411.72 355.41 414.12 356.97 C 417.18 358.61 420.55 359.64 423.43 361.64 C 428.87 365.17 432.53 370.77 435.27 376.53 C 440.72 370.69 448.22 367.44 454.04 362.02 C 464.94 352.39 475.50 341.14 479.59 326.81 C 481.24 321.20 481.54 314.29 477.31 309.72 C 471.57 303.95 463.10 300.54 454.94 302.13 C 446.46 303.18 439.42 308.61 433.68 314.60 M 391.03 354.01 C 382.79 358.62 378.56 367.56 375.11 375.93 C 373.70 379.84 372.30 385.06 375.63 388.40 C 378.74 391.13 382.60 388.17 385.99 387.78 C 388.93 389.04 387.55 393.22 389.80 395.15 C 392.72 396.88 396.06 395.19 399.10 394.81 C 401.37 395.62 400.95 398.52 401.96 400.33 C 403.51 400.99 405.24 400.88 406.89 401.09 C 406.54 398.50 403.97 395.06 407.01 393.27 C 409.86 395.39 411.11 399.14 414.37 400.78 C 419.45 399.45 423.83 396.11 427.79 392.77 C 431.73 389.48 432.34 383.70 430.58 379.11 C 428.37 373.36 424.35 368.04 418.74 365.27 C 415.11 363.35 410.69 362.45 408.11 358.98 C 404.15 354.35 396.86 350.49 391.03 354.01 M 348.40 413.65 C 332.82 417.38 321.07 429.02 306.83 435.67 C 299.81 439.23 292.12 441.04 284.64 443.32 C 296.19 444.19 307.62 441.95 319.06 440.73 C 332.02 439.29 345.03 438.31 358.05 437.65 C 360.65 437.44 363.28 437.67 365.67 438.80 C 361.38 440.89 356.51 440.65 351.90 441.26 C 339.19 442.34 326.52 443.74 313.87 445.34 C 304.31 446.42 294.67 448.10 285.04 446.94 C 281.64 446.66 278.19 446.00 274.81 446.73 C 273.62 449.67 274.20 452.92 274.17 456.00 C 274.75 465.68 276.20 475.62 280.78 484.30 C 287.13 496.04 296.66 505.63 306.38 514.61 C 313.61 521.33 322.55 526.08 332.00 528.83 C 338.18 530.63 343.89 533.70 349.46 536.85 C 350.99 522.18 355.87 507.90 363.12 495.08 C 371.68 480.41 384.74 467.62 401.14 462.28 C 408.36 459.74 416.11 460.02 423.64 460.21 C 413.71 451.18 404.74 441.12 396.27 430.72 C 395.04 429.26 393.90 427.68 393.40 425.82 C 395.59 425.14 397.15 427.07 398.61 428.32 C 404.94 434.65 411.60 440.65 417.73 447.17 C 422.26 452.01 427.15 456.52 432.31 460.68 C 436.89 464.34 440.26 469.20 443.94 473.70 C 445.71 468.89 447.14 463.97 448.73 459.10 C 435.86 450.51 424.20 440.16 410.94 432.12 C 404.47 428.21 397.96 424.36 391.29 420.81 C 378.37 413.71 362.95 410.60 348.40 413.65 M 380.49 482.54 C 370.34 492.95 362.70 505.78 358.14 519.58 C 373.49 532.20 390.30 542.96 408.06 551.84 C 418.21 556.48 429.29 559.67 438.01 566.94 C 447.30 574.10 451.53 585.46 458.63 594.45 C 462.68 600.01 468.32 604.03 473.38 608.59 C 474.64 595.27 480.73 582.95 487.72 571.75 C 493.07 563.66 499.07 555.55 507.61 550.59 C 503.54 539.90 497.52 529.78 488.84 522.20 C 472.87 509.26 456.26 496.79 442.90 481.03 C 439.02 476.54 435.88 471.42 431.59 467.30 C 426.40 464.03 419.94 464.11 414.04 464.72 C 401.12 466.26 389.47 473.37 380.49 482.54 M 306.42 520.67 C 302.01 532.28 296.32 543.39 290.62 554.42 C 295.25 556.67 300.36 557.75 304.93 560.15 C 313.91 564.84 321.28 571.96 329.79 577.36 C 336.73 581.79 344.89 583.98 353.07 584.43 C 370.47 585.50 387.66 581.58 405.02 581.30 C 410.09 581.34 415.41 581.90 419.70 584.85 C 420.12 577.93 421.02 571.05 421.58 564.15 C 400.03 555.19 379.01 544.07 361.38 528.60 C 359.82 527.40 358.14 526.37 356.50 525.30 C 355.24 530.56 354.28 535.88 353.37 541.21 C 344.99 539.28 337.54 534.73 329.22 532.66 C 320.95 530.17 313.17 526.05 306.42 520.67 M 494.05 571.05 C 486.29 583.09 479.19 595.99 476.42 610.18 C 489.72 616.83 501.88 625.53 515.23 632.10 C 533.45 641.87 553.42 647.65 573.14 653.56 C 590.91 658.79 609.27 662.25 626.44 669.37 C 635.11 673.03 643.23 677.83 651.41 682.46 C 654.07 683.49 657.06 683.95 659.89 683.49 C 662.96 682.46 663.98 678.85 664.32 675.97 C 665.36 665.35 660.39 655.41 659.75 644.95 C 659.70 639.79 661.59 634.88 662.00 629.78 C 645.38 623.68 630.96 613.17 615.94 604.06 C 599.17 593.90 583.21 582.42 565.92 573.15 C 551.29 564.98 534.83 561.03 518.55 557.72 C 514.45 557.21 510.23 555.97 506.12 556.95 C 501.16 560.70 497.65 566.04 494.05 571.05 M 743.59 566.52 C 735.55 575.60 728.34 585.37 720.86 594.90 C 711.87 606.16 701.51 616.67 689.00 623.98 C 682.23 628.04 674.27 628.75 666.72 630.40 C 666.12 635.26 664.87 640.06 664.77 644.97 C 665.10 652.16 667.85 658.92 669.08 665.97 C 670.14 672.59 670.79 680.56 665.79 685.83 C 663.45 688.63 659.60 688.61 656.29 688.74 C 659.95 694.31 663.65 699.90 668.38 704.64 C 675.87 712.32 684.03 719.82 694.05 724.03 C 696.89 725.14 700.09 726.48 703.13 725.24 C 710.68 722.54 716.98 717.24 722.36 711.42 C 725.52 707.80 728.65 703.91 730.19 699.28 C 731.82 693.69 730.86 687.75 732.16 682.11 C 733.14 677.63 734.43 673.23 735.74 668.84 C 737.82 661.76 741.45 655.29 744.80 648.76 C 749.42 639.76 754.59 631.04 758.97 621.92 C 762.35 614.63 766.16 607.35 767.26 599.28 C 768.83 588.12 766.20 576.72 761.46 566.62 C 759.90 563.46 758.11 560.15 755.01 558.25 C 750.21 559.26 746.80 563.11 743.59 566.52 M 330.16 583.21 C 331.57 604.15 330.72 625.15 329.51 646.08 C 328.83 654.31 327.01 662.61 328.53 670.86 C 329.59 677.33 333.35 683.57 339.25 686.70 C 347.56 691.02 356.79 693.29 366.04 694.43 C 370.15 694.73 374.53 694.90 378.42 693.34 C 381.80 690.07 384.66 686.29 387.76 682.76 C 390.96 678.57 395.19 674.89 396.75 669.69 C 398.63 663.28 399.66 656.63 399.96 649.97 C 400.63 635.41 402.54 620.85 406.67 606.85 C 408.69 600.06 410.21 593.06 410.29 585.95 C 391.78 585.40 373.54 590.19 355.03 589.48 C 346.42 589.11 337.88 587.04 330.16 583.21 M 276.21 746.09 C 269.17 763.76 263.81 782.12 255.36 799.22 C 251.57 807.97 246.12 815.84 240.44 823.45 C 236.98 828.09 233.86 833.25 232.88 839.04 C 233.23 844.77 233.79 851.45 238.55 855.37 C 245.54 859.82 254.17 858.59 262.00 858.08 C 267.01 857.52 272.96 857.74 276.57 853.57 C 281.44 848.03 284.31 841.09 287.86 834.70 C 292.89 825.21 299.16 816.37 306.37 808.40 C 310.34 803.99 315.13 800.43 319.32 796.23 C 330.28 785.20 340.09 772.92 347.40 759.16 C 357.93 739.95 365.32 719.23 374.22 699.26 C 370.52 699.75 366.77 699.90 363.07 699.35 C 354.29 698.14 345.39 695.96 337.85 691.12 C 334.23 688.82 330.27 686.68 327.84 683.02 C 324.59 678.37 323.39 672.69 322.73 667.16 C 302.67 690.43 287.64 717.67 276.21 746.09 M 213.53 844.59 C 207.99 850.04 202.42 856.75 202.27 864.92 C 201.98 868.69 202.64 872.73 205.21 875.67 C 210.59 881.90 217.96 885.85 224.83 890.20 C 234.37 896.26 241.46 905.44 246.89 915.22 C 253.69 927.64 260.11 940.63 270.28 950.74 C 277.10 957.78 286.35 961.88 295.72 964.27 C 298.88 964.90 302.58 965.35 305.40 963.44 C 308.28 960.44 307.81 955.88 307.50 952.08 C 305.79 938.47 299.81 925.96 295.85 912.95 C 293.45 905.15 290.82 897.42 288.44 889.61 C 285.30 879.50 283.58 868.89 278.73 859.38 C 272.45 862.95 265.10 862.97 258.12 863.64 C 252.03 864.02 245.65 864.51 239.85 862.20 C 236.21 860.82 233.09 858.08 231.44 854.55 C 228.14 847.30 227.90 838.87 230.62 831.39 C 224.64 835.41 218.70 839.55 213.53 844.59 Z" />
        <path fill="#020202" opacity="1.00"
            d=" M 498.42 160.69 C 499.50 157.48 498.67 152.68 501.94 150.78 C 507.33 151.99 512.27 154.61 517.42 156.58 C 522.07 158.67 527.07 160.16 531.29 163.10 C 530.52 165.83 530.57 172.01 526.25 170.57 C 517.02 167.15 507.64 164.15 498.42 160.69 Z" />
        <path fill="#020202" opacity="1.00"
            d=" M 512.92 198.72 C 514.89 199.68 516.72 200.87 518.53 202.09 C 521.05 201.62 523.58 200.98 526.18 201.14 C 526.28 201.85 526.50 203.25 526.60 203.96 C 523.78 205.48 520.70 206.41 517.69 207.45 C 515.84 204.69 514.13 201.82 512.92 198.72 Z" />
        <path fill="#020202" opacity="1.00"
            d=" M 327.51 457.40 C 344.23 450.00 362.77 446.76 381.01 448.08 C 385.26 448.40 389.92 448.39 393.46 451.16 C 389.84 452.80 385.81 451.91 381.98 452.25 C 372.59 452.41 363.21 453.17 353.99 455.02 C 341.59 457.23 329.95 462.26 317.84 465.57 C 315.99 466.06 313.01 466.60 312.73 463.92 C 317.11 460.72 322.65 459.71 327.51 457.40 Z" />
    </g>
    <g id="#f0b58bff">
        <path fill="#f0b58b" opacity="1.00"
            d=" M 514.23 119.26 C 516.93 117.43 519.37 115.27 521.71 113.03 C 526.09 119.31 531.71 124.65 537.82 129.22 C 540.75 131.58 544.73 130.87 548.10 132.01 C 550.71 133.06 553.07 134.63 555.45 136.12 C 556.14 148.19 548.94 158.48 543.62 168.70 C 541.50 173.91 535.10 174.61 531.76 178.74 C 525.87 185.56 524.95 195.90 528.25 204.12 C 522.86 208.48 516.67 211.73 511.39 216.24 C 506.46 213.96 501.52 211.68 496.57 209.43 C 494.89 208.77 492.99 207.60 491.29 208.87 C 491.14 211.72 494.38 212.12 496.28 213.32 C 496.42 214.50 496.61 215.67 496.87 216.84 C 499.69 218.72 502.89 219.94 505.90 221.51 C 502.07 225.09 498.73 229.25 494.42 232.28 C 490.40 234.95 485.97 231.43 482.52 229.38 C 468.22 218.90 455.91 205.83 445.56 191.47 C 443.37 188.62 441.68 185.28 438.65 183.19 C 438.65 185.00 438.85 186.84 439.73 188.46 C 442.45 194.05 445.74 199.35 449.32 204.43 C 444.86 207.79 439.85 210.28 435.03 213.06 C 427.03 217.49 418.41 221.71 409.05 221.69 C 402.50 221.46 395.95 219.84 390.10 216.87 C 384.64 214.15 381.37 208.77 378.17 203.83 C 373.99 197.15 372.21 189.00 373.77 181.22 C 375.03 174.95 376.19 167.74 381.40 163.45 C 385.98 160.68 391.23 159.29 396.05 157.01 C 403.27 154.33 408.61 148.48 413.53 142.80 C 414.94 141.98 416.33 141.11 417.70 140.20 C 418.53 143.51 418.69 147.21 420.66 150.09 C 425.70 154.30 431.51 157.60 437.49 160.31 C 434.38 153.79 428.37 148.56 427.49 141.02 C 426.92 134.61 425.77 127.62 428.58 121.57 C 431.23 116.07 440.70 119.42 440.63 125.05 C 440.45 131.00 439.75 137.17 442.03 142.85 C 444.77 149.59 449.22 155.61 454.49 160.60 C 455.73 162.15 458.69 162.36 459.34 160.14 C 459.23 157.33 458.38 154.62 457.73 151.90 C 459.26 151.74 460.87 151.87 462.36 151.36 C 463.83 150.44 464.16 148.58 464.68 147.06 C 466.33 140.09 471.09 134.49 473.85 127.97 C 477.39 126.78 481.23 126.75 484.69 128.27 C 484.27 130.90 482.80 133.56 483.78 136.24 C 485.87 135.83 487.34 134.19 489.00 132.98 C 496.64 127.06 506.34 124.77 514.23 119.26 M 498.42 160.69 C 507.64 164.15 517.02 167.15 526.25 170.57 C 530.57 172.01 530.52 165.83 531.29 163.10 C 527.07 160.16 522.07 158.67 517.42 156.58 C 512.27 154.61 507.33 151.99 501.94 150.78 C 498.67 152.68 499.50 157.48 498.42 160.69 M 512.92 198.72 C 514.13 201.82 515.84 204.69 517.69 207.45 C 520.70 206.41 523.78 205.48 526.60 203.96 C 526.50 203.25 526.28 201.85 526.18 201.14 C 523.58 200.98 521.05 201.62 518.53 202.09 C 516.72 200.87 514.89 199.68 512.92 198.72 Z" />
        <path fill="#f0b58b" opacity="1.00"
            d=" M 530.60 202.13 C 529.53 193.09 530.55 182.12 539.01 176.76 C 537.12 181.75 534.53 186.60 533.98 191.99 C 533.70 194.20 533.85 196.45 533.53 198.65 C 532.69 199.93 531.61 201.01 530.60 202.13 Z" />
        <path fill="#f0b58b" opacity="1.00"
            d=" M 433.68 314.60 C 439.42 308.61 446.46 303.18 454.94 302.13 C 463.10 300.54 471.57 303.95 477.31 309.72 C 481.54 314.29 481.24 321.20 479.59 326.81 C 475.50 341.14 464.94 352.39 454.04 362.02 C 448.22 367.44 440.72 370.69 435.27 376.53 C 432.53 370.77 428.87 365.17 423.43 361.64 C 420.55 359.64 417.18 358.61 414.12 356.97 C 411.72 355.41 410.02 352.99 407.64 351.41 C 405.11 349.57 402.07 348.74 399.11 347.93 C 403.96 340.88 410.97 335.81 417.33 330.23 C 423.06 325.32 428.51 320.09 433.68 314.60 Z" />
        <path fill="#f0b58b" opacity="1.00"
            d=" M 391.03 354.01 C 396.86 350.49 404.15 354.35 408.11 358.98 C 410.69 362.45 415.11 363.35 418.74 365.27 C 424.35 368.04 428.37 373.36 430.58 379.11 C 432.34 383.70 431.73 389.48 427.79 392.77 C 423.83 396.11 419.45 399.45 414.37 400.78 C 411.11 399.14 409.86 395.39 407.01 393.27 C 403.97 395.06 406.54 398.50 406.89 401.09 C 405.24 400.88 403.51 400.99 401.96 400.33 C 400.95 398.52 401.37 395.62 399.10 394.81 C 396.06 395.19 392.72 396.88 389.80 395.15 C 387.55 393.22 388.93 389.04 385.99 387.78 C 382.60 388.17 378.74 391.13 375.63 388.40 C 372.30 385.06 373.70 379.84 375.11 375.93 C 378.56 367.56 382.79 358.62 391.03 354.01 Z" />
        <path fill="#f0b58b" opacity="1.00"
            d=" M 380.49 482.54 C 389.47 473.37 401.12 466.26 414.04 464.72 C 419.94 464.11 426.40 464.03 431.59 467.30 C 435.88 471.42 439.02 476.54 442.90 481.03 C 456.26 496.79 472.87 509.26 488.84 522.20 C 497.52 529.78 503.54 539.90 507.61 550.59 C 499.07 555.55 493.07 563.66 487.72 571.75 C 480.73 582.95 474.64 595.27 473.38 608.59 C 468.32 604.03 462.68 600.01 458.63 594.45 C 451.53 585.46 447.30 574.10 438.01 566.94 C 429.29 559.67 418.21 556.48 408.06 551.84 C 390.30 542.96 373.49 532.20 358.14 519.58 C 362.70 505.78 370.34 492.95 380.49 482.54 Z" />
        <path fill="#f0b58b" opacity="1.00"
            d=" M 330.16 583.21 C 337.88 587.04 346.42 589.11 355.03 589.48 C 373.54 590.19 391.78 585.40 410.29 585.95 C 410.21 593.06 408.69 600.06 406.67 606.85 C 402.54 620.85 400.63 635.41 399.96 649.97 C 399.66 656.63 398.63 663.28 396.75 669.69 C 395.19 674.89 390.96 678.57 387.76 682.76 C 384.66 686.29 381.80 690.07 378.42 693.34 C 374.53 694.90 370.15 694.73 366.04 694.43 C 356.79 693.29 347.56 691.02 339.25 686.70 C 333.35 683.57 329.59 677.33 328.53 670.86 C 327.01 662.61 328.83 654.31 329.51 646.08 C 330.72 625.15 331.57 604.15 330.16 583.21 Z" />
    </g>
    <g id="#f11b27ff">
        <path fill="var(--shirt-color, grey)" opacity="1.00"
            d=" M 374.34 141.32 C 379.33 140.43 382.83 135.69 387.94 135.48 C 395.25 136.59 401.80 140.35 408.80 142.56 C 405.51 145.33 402.49 148.48 398.77 150.68 C 392.80 154.04 386.13 155.92 380.03 159.00 C 373.67 162.61 371.46 170.22 370.01 176.91 C 368.09 185.59 368.43 195.11 373.06 202.92 C 377.02 209.64 381.20 216.79 388.17 220.80 C 398.34 226.47 410.88 227.88 421.96 224.14 C 432.77 220.47 442.72 214.53 451.84 207.72 C 459.00 216.67 467.46 224.54 476.74 231.26 C 481.52 234.71 487.13 237.10 493.00 237.81 C 496.10 237.95 498.56 235.68 500.78 233.82 C 505.65 229.35 510.33 224.67 515.25 220.26 C 519.08 236.00 517.57 253.03 510.75 267.74 C 508.02 273.72 503.97 278.94 500.60 284.55 C 494.74 294.33 488.64 304.17 485.56 315.25 C 484.76 311.57 483.94 307.66 481.21 304.87 C 473.22 296.63 460.77 293.56 449.74 296.55 C 454.28 292.15 459.53 287.94 461.98 281.95 C 460.12 279.56 458.08 282.18 456.47 283.39 C 451.56 287.92 446.54 292.33 441.23 296.39 C 443.77 288.61 445.57 280.54 449.15 273.13 C 452.93 265.37 457.63 257.90 464.01 251.98 C 465.84 250.05 468.41 248.36 468.68 245.46 C 464.78 245.76 462.17 249.06 459.17 251.18 C 448.13 259.59 441.70 272.60 438.46 285.84 C 436.97 281.07 434.98 276.18 435.62 271.08 C 436.54 261.82 441.83 253.91 445.43 245.57 C 443.46 244.59 442.21 246.79 441.12 247.98 C 435.57 256.01 429.59 264.88 430.26 275.12 C 430.48 281.87 434.97 287.48 435.90 294.05 C 435.59 299.24 432.83 303.92 430.36 308.38 C 426.26 313.73 421.21 318.29 416.53 323.13 C 412.14 322.72 407.89 321.27 404.20 318.86 C 395.15 313.11 387.05 305.86 380.28 297.55 C 379.25 296.23 377.02 297.31 377.80 299.07 C 378.83 304.20 382.58 308.24 386.03 311.97 C 393.21 318.97 401.57 325.50 411.62 327.55 C 404.76 333.57 396.92 339.39 393.41 348.13 C 383.72 350.57 377.03 358.78 373.06 367.52 C 365.71 360.44 356.86 355.27 348.44 349.60 C 332.93 339.31 316.40 330.13 303.26 316.73 C 299.65 313.18 297.05 308.71 293.20 305.40 C 293.17 307.26 292.99 309.28 294.08 310.92 C 298.84 319.18 306.05 325.66 313.31 331.69 C 325.58 341.73 339.33 349.69 352.46 358.51 C 358.85 362.73 365.47 366.70 371.08 371.97 C 370.60 373.34 370.13 374.71 369.66 376.10 C 362.24 372.86 355.08 369.06 348.16 364.86 C 338.07 358.91 327.92 353.06 318.00 346.84 C 316.53 346.01 314.88 344.68 313.19 345.84 C 313.75 348.27 315.78 349.83 317.62 351.32 C 326.96 358.65 337.42 364.35 347.67 370.27 C 354.36 374.10 361.33 377.55 368.78 379.62 C 369.01 384.45 369.63 390.07 373.81 393.21 C 376.50 395.38 380.14 394.86 383.35 394.74 C 384.72 396.87 385.97 399.34 388.38 400.47 C 390.92 401.80 393.86 401.49 396.63 401.52 C 398.19 403.20 399.72 405.20 402.09 405.75 C 404.82 406.69 407.64 405.70 410.32 405.06 C 412.91 405.90 415.76 406.83 418.34 405.36 C 424.09 402.46 429.86 398.97 433.90 393.84 C 436.99 389.93 437.08 384.74 436.50 380.02 C 440.25 377.18 444.23 374.69 448.33 372.40 C 448.06 382.03 449.92 391.60 452.41 400.86 C 455.92 411.55 460.30 421.95 463.31 432.80 C 465.28 440.50 465.27 449.27 461.31 456.33 C 458.11 460.16 453.51 456.57 450.36 454.60 C 437.65 445.74 425.87 435.54 412.59 427.50 C 404.97 422.92 397.33 418.34 389.34 414.43 C 376.41 408.19 361.60 406.86 347.49 408.71 C 337.75 410.45 329.18 415.73 320.93 420.92 C 312.18 426.59 303.04 431.82 293.15 435.26 C 286.73 437.65 280.07 439.32 273.59 441.54 C 269.73 430.47 266.45 419.21 262.88 408.05 C 260.14 398.93 257.25 389.61 257.42 379.98 C 257.53 372.37 260.33 365.21 262.15 357.92 C 271.06 361.94 280.97 362.25 290.51 363.46 C 290.78 361.65 289.59 360.37 287.95 359.94 C 280.47 357.47 272.37 357.03 265.08 354.02 C 263.24 351.04 262.84 347.46 262.37 344.07 C 259.88 322.92 262.33 301.64 264.29 280.57 C 264.93 274.70 264.89 268.60 267.35 263.11 C 269.74 255.24 274.66 248.57 278.43 241.36 C 281.14 236.14 285.12 231.45 286.37 225.58 C 284.84 226.15 283.14 226.64 282.13 228.03 C 278.13 232.89 274.83 238.28 271.62 243.68 C 272.99 231.85 271.04 219.93 272.54 208.13 C 273.49 200.54 277.46 193.84 281.52 187.52 C 288.59 176.73 295.22 165.55 303.87 155.91 C 310.05 148.88 318.94 144.68 328.08 143.16 C 343.41 140.46 359.11 144.81 374.34 141.32 Z" />
    </g>
    <g id="#ffffffff">
        <path fill="var(--pants-color, grey)" opacity="1.00"
            d=" M 348.40 413.65 C 362.95 410.60 378.37 413.71 391.29 420.81 C 397.96 424.36 404.47 428.21 410.94 432.12 C 424.20 440.16 435.86 450.51 448.73 459.10 C 447.14 463.97 445.71 468.89 443.94 473.70 C 440.26 469.20 436.89 464.34 432.31 460.68 C 427.15 456.52 422.26 452.01 417.73 447.17 C 411.60 440.65 404.94 434.65 398.61 428.32 C 397.15 427.07 395.59 425.14 393.40 425.82 C 393.90 427.68 395.04 429.26 396.27 430.72 C 404.74 441.12 413.71 451.18 423.64 460.21 C 416.11 460.02 408.36 459.74 401.14 462.28 C 384.74 467.62 371.68 480.41 363.12 495.08 C 355.87 507.90 350.99 522.18 349.46 536.85 C 343.89 533.70 338.18 530.63 332.00 528.83 C 322.55 526.08 313.61 521.33 306.38 514.61 C 296.66 505.63 287.13 496.04 280.78 484.30 C 276.20 475.62 274.75 465.68 274.17 456.00 C 274.20 452.92 273.62 449.67 274.81 446.73 C 278.19 446.00 281.64 446.66 285.04 446.94 C 294.67 448.10 304.31 446.42 313.87 445.34 C 326.52 443.74 339.19 442.34 351.90 441.26 C 356.51 440.65 361.38 440.89 365.67 438.80 C 363.28 437.67 360.65 437.44 358.05 437.65 C 345.03 438.31 332.02 439.29 319.06 440.73 C 307.62 441.95 296.19 444.19 284.64 443.32 C 292.12 441.04 299.81 439.23 306.83 435.67 C 321.07 429.02 332.82 417.38 348.40 413.65 M 327.51 457.40 C 322.65 459.71 317.11 460.72 312.73 463.92 C 313.01 466.60 315.99 466.06 317.84 465.57 C 329.95 462.26 341.59 457.23 353.99 455.02 C 363.21 453.17 372.59 452.41 381.98 452.25 C 385.81 451.91 389.84 452.80 393.46 451.16 C 389.92 448.39 385.26 448.40 381.01 448.08 C 362.77 446.76 344.23 450.00 327.51 457.40 Z" />
        <path fill="var(--pants-color, grey)" opacity="1.00"
            d=" M 306.42 520.67 C 313.17 526.05 320.95 530.17 329.22 532.66 C 337.54 534.73 344.99 539.28 353.37 541.21 C 354.28 535.88 355.24 530.56 356.50 525.30 C 358.14 526.37 359.82 527.40 361.38 528.60 C 379.01 544.07 400.03 555.19 421.58 564.15 C 421.02 571.05 420.12 577.93 419.70 584.85 C 415.41 581.90 410.09 581.34 405.02 581.30 C 387.66 581.58 370.47 585.50 353.07 584.43 C 344.89 583.98 336.73 581.79 329.79 577.36 C 321.28 571.96 313.91 564.84 304.93 560.15 C 300.36 557.75 295.25 556.67 290.62 554.42 C 296.32 543.39 302.01 532.28 306.42 520.67 Z" />
        <path fill="var(--socks-color, grey)" opacity="1.00"
            d=" M 494.05 571.05 C 497.65 566.04 501.16 560.70 506.12 556.95 C 510.23 555.97 514.45 557.21 518.55 557.72 C 534.83 561.03 551.29 564.98 565.92 573.15 C 583.21 582.42 599.17 593.90 615.94 604.06 C 630.96 613.17 645.38 623.68 662.00 629.78 C 661.59 634.88 659.70 639.79 659.75 644.95 C 660.39 655.41 665.36 665.35 664.32 675.97 C 663.98 678.85 662.96 682.46 659.89 683.49 C 657.06 683.95 654.07 683.49 651.41 682.46 C 643.23 677.83 635.11 673.03 626.44 669.37 C 609.27 662.25 590.91 658.79 573.14 653.56 C 553.42 647.65 533.45 641.87 515.23 632.10 C 501.88 625.53 489.72 616.83 476.42 610.18 C 479.19 595.99 486.29 583.09 494.05 571.05 Z" />
        <path fill="var(--socks-color, grey)" opacity="1.00"
            d=" M 276.21 746.09 C 287.64 717.67 302.67 690.43 322.73 667.16 C 323.39 672.69 324.59 678.37 327.84 683.02 C 330.27 686.68 334.23 688.82 337.85 691.12 C 345.39 695.96 354.29 698.14 363.07 699.35 C 366.77 699.90 370.52 699.75 374.22 699.26 C 365.32 719.23 357.93 739.95 347.40 759.16 C 340.09 772.92 330.28 785.20 319.32 796.23 C 315.13 800.43 310.34 803.99 306.37 808.40 C 299.16 816.37 292.89 825.21 287.86 834.70 C 284.31 841.09 281.44 848.03 276.57 853.57 C 272.96 857.74 267.01 857.52 262.00 858.08 C 254.17 858.59 245.54 859.82 238.55 855.37 C 233.79 851.45 233.23 844.77 232.88 839.04 C 233.86 833.25 236.98 828.09 240.44 823.45 C 246.12 815.84 251.57 807.97 255.36 799.22 C 263.81 782.12 269.17 763.76 276.21 746.09 Z" />
    </g>
    <g id="#4d4d4dff">
        <path fill="#4d4d4d" opacity="1.00"
            d=" M 743.59 566.52 C 746.80 563.11 750.21 559.26 755.01 558.25 C 758.11 560.15 759.90 563.46 761.46 566.62 C 766.20 576.72 768.83 588.12 767.26 599.28 C 766.16 607.35 762.35 614.63 758.97 621.92 C 754.59 631.04 749.42 639.76 744.80 648.76 C 741.45 655.29 737.82 661.76 735.74 668.84 C 734.43 673.23 733.14 677.63 732.16 682.11 C 730.86 687.75 731.82 693.69 730.19 699.28 C 728.65 703.91 725.52 707.80 722.36 711.42 C 716.98 717.24 710.68 722.54 703.13 725.24 C 700.09 726.48 696.89 725.14 694.05 724.03 C 684.03 719.82 675.87 712.32 668.38 704.64 C 663.65 699.90 659.95 694.31 656.29 688.74 C 659.60 688.61 663.45 688.63 665.79 685.83 C 670.79 680.56 670.14 672.59 669.08 665.97 C 667.85 658.92 665.10 652.16 664.77 644.97 C 664.87 640.06 666.12 635.26 666.72 630.40 C 674.27 628.75 682.23 628.04 689.00 623.98 C 701.51 616.67 711.87 606.16 720.86 594.90 C 728.34 585.37 735.55 575.60 743.59 566.52 Z" />
        <path fill="#4d4d4d" opacity="1.00"
            d=" M 213.53 844.59 C 218.70 839.55 224.64 835.41 230.62 831.39 C 227.90 838.87 228.14 847.30 231.44 854.55 C 233.09 858.08 236.21 860.82 239.85 862.20 C 245.65 864.51 252.03 864.02 258.12 863.64 C 265.10 862.97 272.45 862.95 278.73 859.38 C 283.58 868.89 285.30 879.50 288.44 889.61 C 290.82 897.42 293.45 905.15 295.85 912.95 C 299.81 925.96 305.79 938.47 307.50 952.08 C 307.81 955.88 308.28 960.44 305.40 963.44 C 302.58 965.35 298.88 964.90 295.72 964.27 C 286.35 961.88 277.10 957.78 270.28 950.74 C 260.11 940.63 253.69 927.64 246.89 915.22 C 241.46 905.44 234.37 896.26 224.83 890.20 C 217.96 885.85 210.59 881.90 205.21 875.67 C 202.64 872.73 201.98 868.69 202.27 864.92 C 202.42 856.75 207.99 850.04 213.53 844.59 Z" />
    </g>
</svg>