<?xml version="1.0" encoding="UTF-8" ?>
<!DOCTYPE svg PUBLIC "-//W3C//DTD SVG 1.1//EN" "http://www.w3.org/Graphics/SVG/1.1/DTD/svg11.dtd">
<svg width="1000pt" height="1000pt" viewBox="0 0 1000 1000" version="1.1" xmlns="http://www.w3.org/2000/svg">
    <g id="#020202ff">
        <path fill="#020202" opacity="1.00"
            d=" M 544.80 21.90 C 553.11 15.69 564.30 15.57 574.01 17.84 C 586.59 21.37 598.08 27.93 610.60 31.62 C 613.90 32.62 617.38 33.06 620.54 34.48 C 621.96 35.86 620.69 37.53 619.61 38.63 C 616.90 41.32 612.88 41.59 609.36 42.36 C 614.64 47.15 621.64 48.90 627.83 52.12 C 634.89 55.58 639.49 63.25 639.58 71.07 C 639.79 74.30 638.99 77.51 639.27 80.73 C 640.73 83.59 642.94 86.04 644.10 89.07 C 647.32 97.45 645.25 107.88 638.09 113.61 C 638.08 122.46 637.56 131.46 634.89 139.95 C 633.51 144.42 630.79 148.27 628.72 152.41 C 627.18 160.16 627.95 168.11 628.17 175.95 C 628.44 183.52 623.75 189.90 620.14 196.15 C 616.93 201.20 613.37 206.00 609.95 210.90 C 614.46 216.59 617.28 223.33 619.87 230.05 C 623.73 240.39 627.45 250.79 630.42 261.43 C 632.21 267.80 633.36 274.38 633.37 281.01 C 633.60 288.01 632.50 294.99 633.09 301.98 C 633.58 312.46 636.22 322.67 637.43 333.06 C 639.04 344.32 640.34 355.64 640.86 367.01 C 641.06 370.18 640.51 373.46 641.34 376.56 C 643.41 380.37 647.08 382.90 650.01 386.00 C 660.97 397.38 672.10 408.59 682.68 420.34 C 690.54 428.80 698.87 436.83 706.46 445.55 C 710.33 450.18 714.16 455.65 713.78 462.00 C 713.32 469.36 712.17 476.79 709.72 483.77 C 708.81 486.67 705.93 488.04 703.55 489.53 C 698.68 492.31 693.96 495.85 688.21 496.39 C 682.63 500.17 677.00 504.05 670.68 506.50 C 667.92 507.62 663.93 507.64 662.38 504.64 C 660.84 502.02 662.84 499.30 663.96 496.97 C 661.54 496.74 658.62 497.21 656.78 495.26 C 654.93 493.45 655.31 490.51 656.47 488.45 C 658.48 484.81 662.01 482.43 665.27 480.01 C 661.87 471.66 665.70 461.59 660.10 453.98 C 657.20 450.18 654.61 446.08 653.47 441.39 C 648.62 437.95 643.92 434.30 639.27 430.61 C 639.57 437.04 639.62 443.50 639.19 449.93 C 638.56 458.86 638.86 468.11 635.54 476.58 C 632.97 483.23 630.25 489.85 628.57 496.80 C 627.19 502.62 627.64 508.80 625.47 514.44 C 624.47 517.17 622.92 519.64 621.37 522.08 C 622.74 529.32 623.81 536.62 624.13 544.00 C 624.63 552.78 628.53 561.12 627.69 570.02 C 626.79 582.42 622.83 594.46 623.14 606.99 C 626.89 611.32 630.83 615.65 632.98 621.06 C 636.21 629.06 640.30 636.71 645.27 643.77 C 650.72 651.95 658.00 659.02 661.57 668.35 C 663.80 673.04 664.14 678.29 665.78 683.16 C 667.15 687.98 671.58 691.00 673.43 695.60 C 677.83 705.94 677.88 717.59 676.34 728.57 C 673.83 749.36 674.69 770.36 675.90 791.21 C 677.49 808.79 678.28 826.44 680.16 844.00 C 682.28 863.94 683.26 883.98 685.58 903.90 C 686.27 907.70 684.98 912.67 688.64 915.27 C 693.27 918.98 698.80 921.32 704.02 924.08 C 716.36 930.18 729.43 934.65 742.60 938.61 C 750.02 940.99 757.79 943.13 764.10 947.91 C 767.48 950.61 770.97 954.33 770.64 959.01 C 770.34 966.12 764.38 971.29 758.56 974.48 C 746.97 980.58 734.04 984.10 720.99 985.11 C 709.00 986.14 697.03 984.43 685.04 984.43 C 671.34 984.39 657.65 984.58 643.97 985.24 C 636.86 985.59 629.21 984.06 624.02 978.86 C 618.68 974.58 616.39 967.67 616.43 961.00 C 616.31 949.88 619.27 937.39 628.75 930.50 C 625.84 914.48 627.86 897.94 623.91 882.07 C 620.50 868.38 614.99 855.33 609.71 842.28 C 605.62 832.11 600.97 821.94 599.67 810.94 C 598.70 803.24 599.76 795.46 601.45 787.95 C 604.32 775.30 607.16 762.64 609.35 749.86 C 610.00 742.94 611.26 735.43 607.98 728.96 C 604.09 721.69 598.00 716.00 592.16 710.32 C 577.82 713.20 562.76 712.17 549.01 707.14 C 548.41 713.91 546.67 720.50 544.80 727.01 C 542.45 734.86 537.65 742.36 530.18 746.19 C 522.82 750.63 514.01 750.56 505.85 752.33 C 492.18 754.73 479.08 759.43 465.97 763.84 C 447.60 769.27 429.71 776.29 412.40 784.49 C 400.15 790.77 387.98 797.22 375.90 803.84 C 364.89 809.76 354.67 817.12 343.20 822.18 C 344.83 837.65 336.53 851.71 335.34 866.89 C 334.15 876.04 335.64 885.58 332.51 894.43 C 330.49 900.46 327.06 906.04 322.64 910.60 C 318.94 914.26 312.96 916.69 308.04 914.00 C 296.78 908.42 290.80 896.59 286.73 885.30 C 284.05 876.80 282.03 867.97 282.07 859.01 C 282.00 844.08 279.99 828.86 273.88 815.12 C 270.14 807.17 268.38 798.52 267.02 789.91 C 265.96 782.97 268.84 775.73 273.93 771.01 C 280.58 764.66 290.22 762.97 299.06 762.55 C 308.60 761.96 317.99 764.51 326.70 768.21 C 343.07 762.27 356.86 751.15 369.43 739.39 C 381.11 728.51 393.66 718.42 407.66 710.67 C 422.28 702.40 438.62 697.72 455.02 694.53 C 463.23 692.75 471.75 693.48 479.93 691.48 C 472.74 687.13 465.20 683.16 457.00 681.09 C 451.77 679.65 446.32 679.19 441.08 677.77 C 439.84 677.41 437.99 676.73 438.23 675.11 C 438.29 669.75 440.30 664.60 442.88 659.97 C 447.62 651.63 456.06 646.02 460.21 637.28 C 464.39 628.84 464.38 619.15 464.26 609.95 C 462.85 604.99 459.77 600.63 458.77 595.51 C 455.65 580.76 457.35 565.56 455.70 550.66 C 447.94 550.24 439.10 550.61 432.92 545.08 C 427.49 539.59 426.81 531.36 426.13 524.07 C 424.98 504.94 433.33 487.18 441.53 470.44 C 445.08 462.98 449.05 455.37 449.56 446.97 C 450.09 436.41 446.51 426.14 441.58 416.96 C 435.79 421.18 432.04 427.40 427.06 432.41 C 422.26 431.94 418.25 428.95 414.09 426.79 C 404.71 446.52 391.11 463.80 378.42 481.45 C 369.18 494.69 361.18 508.74 352.01 522.02 C 350.52 524.37 348.70 526.93 349.14 529.88 C 349.55 534.24 349.95 538.71 348.82 543.01 C 347.50 549.52 343.83 555.17 341.69 561.38 C 338.86 569.56 340.10 578.95 335.01 586.34 C 339.06 588.91 343.87 592.67 343.18 598.07 C 342.57 602.33 337.72 603.93 333.97 603.20 C 322.03 601.49 310.10 597.73 300.07 590.92 C 294.26 586.96 296.36 579.17 293.49 573.62 C 291.15 568.49 288.66 562.59 291.00 556.99 C 293.80 550.56 299.21 545.83 303.64 540.55 C 316.78 526.35 323.32 507.73 329.73 489.85 C 341.28 455.11 352.25 419.01 375.05 389.69 C 368.71 378.15 362.09 366.66 353.61 356.54 C 351.30 353.47 348.27 350.72 347.10 346.97 C 348.10 343.72 350.49 341.13 352.89 338.83 C 360.39 331.91 370.01 328.04 379.48 324.64 C 394.35 319.47 409.75 315.99 425.18 312.94 C 428.57 297.01 437.77 283.19 446.91 270.01 C 450.79 264.63 454.99 259.47 459.40 254.51 C 464.71 248.79 470.77 243.69 475.16 237.17 C 479.38 231.25 482.27 224.48 486.70 218.70 C 490.08 214.27 494.59 210.84 499.49 208.26 C 501.68 202.57 506.16 197.48 505.73 191.05 C 505.58 187.25 505.92 183.39 505.25 179.64 C 503.47 176.85 500.81 174.73 499.16 171.84 C 494.69 164.14 492.03 155.49 490.75 146.71 C 490.74 148.68 490.70 150.65 490.62 152.63 C 482.25 150.84 478.04 142.66 475.72 135.19 C 472.10 125.84 473.42 115.35 477.10 106.24 C 474.97 106.50 471.62 108.25 470.41 105.60 C 468.45 97.56 470.51 89.22 472.68 81.43 C 474.54 75.71 476.83 70.07 480.11 65.00 C 483.85 59.35 485.77 52.54 490.70 47.70 C 500.66 37.56 512.80 28.60 527.10 26.11 C 532.94 24.37 539.68 25.76 544.80 21.90 M 565.73 100.81 C 564.46 105.12 562.15 109.01 559.52 112.61 C 555.07 118.80 551.40 125.53 548.58 132.61 C 547.76 134.34 547.26 136.75 544.88 136.75 C 542.66 132.83 543.20 128.08 542.66 123.75 C 540.91 128.30 539.26 133.00 539.09 137.92 C 538.88 141.34 539.57 144.74 539.34 148.16 C 539.03 148.48 538.42 149.12 538.12 149.43 C 534.31 149.42 530.19 148.39 527.47 145.58 C 523.75 141.93 519.60 138.72 516.29 134.66 C 513.51 131.35 509.41 128.65 504.90 129.19 C 500.68 129.35 497.23 132.96 496.61 137.03 C 495.49 143.42 498.77 149.53 502.42 154.53 C 507.06 160.52 512.33 166.16 518.77 170.25 C 516.70 173.25 513.38 175.91 513.61 179.91 C 513.18 187.84 512.51 196.16 508.05 203.01 C 505.80 207.31 501.18 211.85 504.00 217.00 C 510.66 229.74 521.99 239.13 532.92 248.10 C 539.68 253.69 547.45 257.81 555.23 261.77 C 559.75 264.06 565.05 264.80 570.03 263.90 C 572.78 263.41 573.82 260.44 574.18 258.03 C 575.44 249.74 573.24 241.49 573.13 233.20 C 555.63 227.22 540.25 215.60 529.17 200.84 C 527.85 199.19 527.29 197.13 527.30 195.04 C 531.25 197.57 533.88 201.56 537.32 204.67 C 547.48 214.02 558.99 222.21 572.07 226.89 C 575.30 227.71 578.59 228.50 581.95 228.53 C 586.52 228.44 590.39 225.47 593.21 222.10 C 598.11 216.23 602.32 209.82 606.87 203.68 C 600.93 203.35 594.88 203.36 589.09 201.84 C 587.36 201.62 587.02 199.72 586.26 198.47 C 584.31 197.91 582.21 197.20 582.22 194.76 C 592.00 194.46 601.74 196.08 611.42 197.34 C 615.07 191.57 619.29 185.97 621.60 179.49 C 622.82 172.34 621.53 165.01 622.39 157.80 C 618.95 157.50 615.52 157.17 612.09 156.83 C 611.76 163.39 612.80 170.11 611.17 176.54 C 608.76 175.95 608.69 173.14 608.34 171.15 C 607.64 164.25 607.99 157.28 608.72 150.40 C 609.11 148.85 609.04 146.56 610.93 146.02 C 615.17 145.62 619.43 146.29 623.67 146.63 C 625.08 134.19 628.07 122.02 630.05 109.67 C 624.89 107.93 619.35 108.38 614.10 107.13 C 608.90 106.09 604.06 103.89 599.15 101.98 C 597.47 102.61 595.71 103.44 593.88 102.92 C 588.61 101.84 583.56 99.79 578.90 97.12 C 575.31 100.33 570.45 101.53 565.73 100.81 M 478.62 241.61 C 473.38 249.23 465.91 254.90 460.12 262.06 C 447.62 276.87 436.19 293.20 430.45 311.91 C 441.46 309.91 452.42 307.28 463.62 306.61 C 462.99 310.89 458.33 311.19 454.98 311.97 C 427.83 317.83 400.05 321.86 374.04 332.02 C 365.84 335.11 358.00 339.61 352.28 346.38 C 359.82 354.07 366.59 362.52 372.31 371.65 C 378.67 381.00 383.11 391.69 390.98 399.98 C 400.57 410.60 412.76 418.28 424.98 425.47 C 430.13 417.21 437.58 410.72 446.06 406.05 C 456.28 399.09 468.67 397.14 480.20 393.37 C 489.70 390.33 498.34 384.07 503.03 375.12 C 505.93 375.74 504.79 379.20 504.29 381.24 C 502.14 389.39 494.67 394.37 487.55 397.90 C 490.59 400.02 493.50 402.32 496.22 404.85 C 507.63 415.23 519.74 424.83 532.39 433.65 C 544.24 442.11 557.72 448.12 571.65 452.22 C 573.87 452.95 576.27 453.47 578.11 455.01 C 578.12 457.78 574.84 457.35 572.98 457.03 C 562.94 454.96 552.99 451.97 543.96 447.03 C 535.63 442.69 528.22 436.86 520.56 431.49 C 513.34 426.44 506.61 420.73 499.98 414.94 C 494.15 409.90 489.06 403.99 482.53 399.80 C 477.85 401.33 473.12 402.73 468.35 403.97 C 476.45 411.44 480.81 421.81 487.80 430.17 C 492.85 436.66 499.78 441.38 507.10 444.97 C 517.25 449.76 527.98 453.96 536.39 461.64 C 539.59 464.66 542.78 468.38 543.10 472.97 C 543.14 478.06 537.97 482.20 533.02 481.54 C 527.18 480.91 521.90 478.01 517.01 474.94 C 513.89 472.82 510.27 470.78 508.99 466.99 C 517.35 469.35 524.07 476.08 532.96 476.85 C 535.12 477.19 537.38 475.97 538.17 473.90 C 538.18 470.79 535.67 468.45 533.68 466.34 C 521.38 454.56 503.42 451.61 490.87 440.17 C 479.40 430.45 474.45 415.37 463.22 405.46 C 456.63 407.52 450.64 411.00 444.90 414.77 C 453.99 427.20 458.43 444.01 452.85 458.82 C 446.65 475.32 436.60 490.42 433.26 507.95 C 431.18 518.36 430.04 530.43 436.67 539.50 C 440.20 544.33 446.77 543.52 452.01 543.49 C 466.02 543.73 480.02 542.90 493.99 541.95 C 509.39 540.98 524.49 536.79 538.61 530.66 C 549.16 525.79 558.39 518.57 567.58 511.55 C 578.12 503.07 589.09 494.14 602.37 490.53 C 602.45 494.14 598.40 495.35 596.01 497.16 C 582.06 505.06 571.06 516.93 558.04 526.12 C 541.85 538.41 521.90 544.73 502.03 547.86 C 513.12 549.86 523.87 553.42 535.03 555.08 C 542.62 556.49 550.37 556.46 558.05 556.07 C 562.26 555.81 566.47 554.92 570.32 553.15 C 581.88 547.42 592.31 539.54 601.14 530.14 C 606.25 524.48 614.48 522.09 618.15 515.12 C 621.31 509.49 620.57 502.84 621.87 496.72 C 623.43 489.26 626.35 482.18 629.14 475.12 C 632.46 466.85 632.02 457.76 632.71 449.04 C 633.92 435.71 632.08 422.36 632.57 409.01 C 632.98 399.28 632.91 389.48 634.39 379.82 C 635.28 372.97 634.76 366.05 634.18 359.20 C 633.39 348.13 631.98 337.10 630.47 326.11 C 628.43 314.90 626.81 303.48 627.74 292.06 C 628.49 282.73 628.26 273.21 625.62 264.17 C 620.94 247.30 614.58 230.87 606.89 215.14 C 602.65 220.47 599.07 226.51 593.57 230.68 C 589.16 234.18 583.35 234.90 577.91 234.34 C 578.12 243.23 581.56 252.02 579.59 260.93 C 578.86 264.96 575.97 268.70 571.91 269.76 C 565.51 271.38 558.58 270.32 552.72 267.39 C 544.90 263.41 537.18 259.13 530.22 253.75 C 518.86 244.93 507.63 235.36 500.07 222.94 C 498.55 220.46 497.89 217.60 497.15 214.83 C 488.36 221.77 484.96 232.78 478.62 241.61 M 638.99 423.27 C 642.84 428.07 649.02 430.28 653.65 434.27 C 655.08 431.76 655.56 427.48 659.12 427.27 C 660.81 430.34 658.73 433.80 659.07 437.07 C 658.87 442.13 662.02 446.28 664.99 450.04 C 668.79 454.79 669.74 461.05 669.74 466.97 C 669.87 470.93 669.04 475.38 671.85 478.66 C 673.37 477.70 675.36 477.02 676.08 475.21 C 678.95 468.72 676.22 461.47 677.89 454.78 C 679.23 449.14 687.58 447.12 691.15 451.83 C 695.47 457.08 699.80 463.81 698.29 470.93 C 697.14 476.55 690.98 478.90 689.14 484.12 C 687.93 486.30 688.89 488.69 689.51 490.88 C 694.40 488.23 698.80 484.78 703.73 482.21 C 705.99 476.03 707.24 469.52 707.56 462.96 C 708.43 456.36 703.06 451.40 699.23 446.76 C 679.57 425.72 660.11 404.48 639.94 383.92 C 639.11 397.01 638.28 410.16 638.99 423.27 M 358.80 428.84 C 352.22 444.28 346.40 460.03 341.12 475.96 C 334.83 494.86 328.68 514.08 318.29 531.22 C 313.40 539.44 306.34 545.97 300.01 553.03 C 297.54 555.72 294.90 559.04 295.57 562.96 C 296.87 568.45 300.49 573.23 300.84 578.98 C 300.97 581.86 301.70 585.08 304.63 586.35 C 314.91 591.71 325.93 596.65 337.67 597.25 C 334.93 591.29 327.95 590.17 322.82 587.15 C 316.62 583.94 312.75 576.90 313.22 569.95 C 313.57 562.91 314.42 555.57 317.91 549.32 C 322.50 551.70 322.21 557.40 323.23 561.76 C 324.69 569.23 324.94 577.69 330.40 583.59 C 334.20 577.53 333.24 570.15 334.78 563.46 C 336.10 556.18 341.10 550.27 342.69 543.07 C 343.96 538.45 343.40 533.65 343.31 528.93 C 343.88 522.84 347.70 517.82 350.76 512.75 C 360.68 496.85 370.17 480.61 381.77 465.85 C 391.71 452.41 401.29 438.64 409.21 423.90 C 396.93 415.99 385.51 406.24 377.50 393.88 C 370.67 405.20 364.12 416.72 358.80 428.84 M 683.26 457.08 C 682.54 464.70 684.82 473.36 679.96 480.02 C 677.74 483.34 673.53 483.67 669.97 484.32 C 666.39 485.90 663.53 488.76 661.05 491.72 C 667.25 491.10 672.58 487.75 678.23 485.48 C 680.47 484.35 682.52 487.81 680.36 489.20 C 675.94 493.10 670.77 496.27 667.36 501.20 C 673.05 499.09 678.20 495.82 683.66 493.21 C 681.11 487.50 682.77 480.57 687.34 476.41 C 689.71 474.01 693.46 471.91 693.17 468.02 C 692.58 462.71 689.42 458.09 685.97 454.18 C 685.04 455.07 683.29 455.55 683.26 457.08 M 603.13 537.12 C 596.96 543.41 589.48 548.14 582.46 553.38 C 579.47 563.26 571.86 571.30 562.71 575.83 C 555.93 579.37 548.36 580.81 541.06 582.88 C 537.76 583.61 534.36 584.78 530.96 584.14 C 528.38 583.34 529.32 580.04 531.72 579.84 C 547.10 574.59 564.00 570.14 575.09 557.37 C 569.28 559.62 563.31 561.79 557.03 562.20 C 549.65 562.61 542.19 562.92 534.87 561.69 C 523.74 560.17 512.99 556.84 502.06 554.35 C 496.11 552.97 490.02 552.29 484.03 551.08 C 476.56 549.00 468.82 551.01 461.23 550.87 C 463.20 564.10 461.81 577.56 463.64 590.81 C 464.53 597.15 467.57 602.88 470.66 608.39 C 475.22 616.26 479.88 624.15 485.90 631.02 C 502.48 651.16 519.66 672.10 526.98 697.62 C 534.78 689.09 538.13 677.29 538.81 665.97 C 539.99 653.83 537.28 641.74 538.00 629.60 C 539.16 630.16 540.64 630.63 540.84 632.13 C 542.77 638.88 543.54 645.91 544.45 652.85 C 546.04 669.14 544.48 687.11 533.57 700.16 C 540.93 699.98 548.26 701.21 555.19 703.66 C 573.06 709.35 592.30 705.81 609.52 699.57 C 617.33 696.40 625.27 693.53 632.79 689.68 C 641.74 685.30 651.57 683.23 661.46 682.46 C 659.83 677.60 658.30 672.69 655.85 668.18 C 652.52 661.47 647.23 656.08 642.93 650.04 C 637.37 642.54 632.50 634.47 629.11 625.75 C 625.48 614.52 614.99 607.63 609.76 597.30 C 606.39 590.34 603.32 582.90 603.28 575.05 C 603.25 571.17 602.63 566.91 605.12 563.59 C 605.76 564.95 606.48 566.33 606.52 567.89 C 607.40 579.99 611.55 591.93 618.77 601.71 C 618.91 593.78 620.05 585.94 621.55 578.17 C 622.87 570.88 622.69 563.32 620.46 556.23 C 617.57 546.60 618.26 536.41 616.34 526.61 C 611.64 529.72 607.10 533.10 603.13 537.12 M 319.13 567.62 C 318.95 571.45 319.10 575.42 321.12 578.82 C 320.59 575.06 319.88 571.33 319.13 567.62 M 470.21 619.16 C 470.22 627.26 468.63 635.50 464.56 642.58 C 460.42 650.43 453.00 655.78 448.19 663.15 C 446.20 666.30 444.96 669.84 443.49 673.24 C 452.71 675.08 462.27 676.05 470.79 680.35 C 488.15 687.68 502.15 701.65 520.59 706.59 C 527.65 708.58 535.77 709.78 542.35 705.71 C 537.21 705.06 532.05 705.33 526.90 705.32 C 524.35 705.49 522.56 703.35 522.18 701.02 C 517.37 682.44 506.19 666.41 494.71 651.34 C 486.49 640.66 477.02 630.86 470.21 619.16 M 630.57 696.54 C 620.45 701.25 610.13 705.70 599.33 708.61 C 604.91 713.45 609.85 719.15 613.32 725.71 C 617.24 733.86 616.16 743.21 615.54 751.94 C 623.27 748.50 631.56 746.40 639.95 745.42 C 649.86 744.31 660.51 744.37 669.48 749.28 C 669.75 741.83 670.36 734.39 671.14 726.98 C 672.57 717.72 672.52 707.93 669.07 699.10 C 667.19 694.18 663.33 690.42 659.31 687.18 C 649.21 688.34 639.48 691.68 630.57 696.54 M 484.73 694.38 C 480.84 697.37 476.01 698.46 471.26 699.18 C 469.89 708.46 471.12 718.18 475.38 726.59 C 479.78 735.73 487.42 742.93 496.26 747.75 C 502.75 746.40 509.28 745.18 515.86 744.36 C 522.53 743.63 529.28 740.87 533.64 735.62 C 539.24 728.53 540.37 719.27 542.82 710.84 C 536.07 714.87 527.76 714.32 520.42 712.45 C 507.21 709.40 496.04 701.43 484.73 694.38 M 427.56 709.49 C 407.89 716.71 390.80 729.42 375.25 743.22 C 365.25 752.36 354.49 760.76 342.80 767.66 C 335.75 771.75 327.99 774.32 320.46 777.35 C 315.99 779.10 311.81 782.41 310.24 787.08 C 308.93 792.93 309.26 799.14 310.93 804.90 C 312.26 809.61 315.37 814.08 319.98 816.05 C 327.72 819.70 337.07 818.45 344.44 814.49 C 351.32 810.77 358.00 806.71 364.67 802.63 C 379.48 794.22 394.85 786.85 409.93 778.95 C 425.76 771.37 442.11 764.88 458.86 759.62 C 468.73 756.62 478.32 752.77 488.24 749.92 C 471.35 739.92 461.61 718.81 466.29 699.54 C 453.09 701.52 440.13 705.05 427.56 709.49 M 614.26 759.78 C 612.38 769.18 610.42 778.56 608.14 787.88 C 606.14 796.07 604.76 804.64 606.41 813.04 C 608.41 824.03 613.49 834.11 617.34 844.52 C 623.27 859.85 629.54 875.34 631.46 891.79 C 632.67 901.20 632.05 910.72 632.92 920.16 C 633.46 925.66 633.74 931.39 636.28 936.42 C 639.42 935.05 641.86 932.58 643.96 929.95 C 648.15 924.56 652.73 918.99 659.05 916.05 C 666.18 913.47 673.80 912.53 681.35 912.31 C 680.89 907.88 680.37 903.47 679.73 899.07 C 677.38 880.76 676.42 862.32 674.32 843.99 C 672.22 826.40 671.97 808.66 670.35 791.03 C 669.74 779.11 668.97 767.19 669.34 755.25 C 663.85 751.94 657.30 751.32 651.03 751.32 C 638.32 751.37 625.89 754.85 614.26 759.78 M 284.17 770.42 C 277.29 772.88 271.83 779.54 271.70 786.98 C 271.83 791.96 273.28 796.78 274.52 801.58 C 276.48 809.16 280.37 816.06 282.51 823.59 C 285.64 834.43 287.16 845.73 287.12 857.01 C 286.98 868.36 289.19 879.80 293.85 890.16 C 297.30 898.08 302.29 905.94 310.29 909.85 C 313.17 911.38 316.45 909.62 318.68 907.73 C 322.41 904.23 325.08 899.71 327.01 895.00 C 330.62 885.75 328.74 875.63 330.06 865.99 C 331.36 851.49 338.74 838.24 339.10 823.59 C 333.46 824.38 327.54 825.00 322.06 823.04 C 315.71 820.80 309.14 817.17 306.26 810.75 C 302.05 801.64 301.65 790.36 306.51 781.42 C 309.35 776.10 314.80 773.06 320.09 770.65 C 308.51 766.95 295.71 766.23 284.17 770.42 M 655.33 925.35 C 649.57 930.56 645.75 938.52 637.95 941.05 C 633.88 942.33 631.52 938.34 629.57 935.58 C 623.99 943.83 621.94 954.13 623.09 963.96 C 623.54 967.31 624.37 970.81 626.65 973.43 C 630.65 978.04 636.96 980.31 643.00 979.78 C 656.29 978.70 669.64 978.52 682.98 978.49 C 693.99 978.43 704.96 979.80 715.98 979.48 C 729.46 979.19 742.88 975.91 754.99 969.98 C 759.38 967.64 764.30 964.35 765.11 959.05 C 765.65 955.66 762.56 953.44 760.14 951.77 C 753.98 947.89 746.78 946.23 739.95 943.99 C 727.32 940.21 714.76 935.97 702.98 929.99 C 696.18 926.50 689.30 922.87 683.86 917.40 C 674.25 919.13 662.86 918.00 655.33 925.35 Z" />
        <path fill="#020202" opacity="1.00"
            d=" M 568.60 153.44 C 568.06 150.00 567.37 145.38 569.83 142.62 C 574.91 142.46 579.97 143.32 585.04 143.60 C 590.42 144.16 595.90 144.08 601.20 145.29 C 601.14 148.79 601.50 152.39 600.60 155.81 C 600.22 155.98 599.45 156.32 599.06 156.49 C 591.65 156.44 584.30 155.19 576.92 154.66 C 574.13 154.41 571.27 154.36 568.60 153.44 Z" />
        <path fill="#020202" opacity="1.00"
            d=" M 595.93 179.04 C 595.42 178.09 594.23 175.88 596.08 175.59 C 598.59 176.87 600.58 178.94 602.75 180.71 C 605.55 179.26 608.45 177.74 611.71 177.99 C 611.82 179.74 613.27 182.07 611.49 183.43 C 608.79 185.43 605.44 186.51 602.12 186.87 C 599.52 184.76 597.77 181.80 595.93 179.04 Z" />
        <path fill="#020202" opacity="1.00"
            d=" M 516.36 305.98 C 518.52 304.16 519.48 307.22 519.82 308.91 C 522.54 321.68 521.80 334.82 522.82 347.76 C 523.04 351.52 523.66 355.27 523.48 359.04 C 521.47 360.94 519.96 357.97 519.59 356.25 C 517.28 347.71 516.77 338.81 516.11 330.02 C 515.80 322.03 515.15 313.91 516.36 305.98 Z" />
        <path fill="#020202" opacity="1.00"
            d=" M 485.89 306.93 C 488.79 306.39 489.38 309.75 489.65 311.88 C 490.47 321.28 490.35 330.87 488.36 340.12 C 486.09 350.82 479.70 360.32 471.48 367.39 C 465.02 372.95 457.98 377.87 452.13 384.12 C 448.00 388.17 444.59 393.14 439.39 395.95 C 439.27 393.59 439.97 391.30 441.42 389.45 C 446.52 382.33 452.43 375.74 459.18 370.15 C 465.28 364.94 471.92 360.10 476.33 353.27 C 482.74 343.86 483.59 332.09 484.38 321.07 C 484.87 316.39 483.80 311.31 485.89 306.93 Z" />
        <path fill="#020202" opacity="1.00"
            d=" M 464.21 487.22 C 465.23 487.05 466.07 487.37 466.70 488.18 C 475.28 497.79 487.22 504.46 499.95 506.51 C 506.10 507.66 512.48 506.08 518.54 507.89 C 516.89 509.32 514.98 510.52 512.76 510.70 C 505.46 511.54 497.83 512.68 490.71 510.24 C 481.26 507.12 472.44 501.64 465.98 494.01 C 464.54 492.17 462.45 489.52 464.21 487.22 Z" />
        <path fill="#020202" opacity="1.00"
            d=" M 576.53 582.40 C 580.27 579.52 582.55 575.24 586.16 572.23 C 586.24 574.09 586.62 576.10 585.61 577.82 C 582.58 584.35 576.74 588.92 571.14 593.16 C 560.34 601.35 546.43 605.21 532.96 603.99 C 523.02 603.08 512.89 601.48 503.89 596.97 C 502.28 596.54 501.41 593.72 503.76 593.83 C 518.58 595.93 533.71 600.34 548.68 596.80 C 559.10 594.66 568.24 588.83 576.53 582.40 Z" />
    </g>
    <g id="#f0b58bff">
        <path fill="#f0b58b" opacity="1.00"
            d=" M 565.73 100.81 C 570.45 101.53 575.31 100.33 578.90 97.12 C 583.56 99.79 588.61 101.84 593.88 102.92 C 595.71 103.44 597.47 102.61 599.15 101.98 C 604.06 103.89 608.90 106.09 614.10 107.13 C 619.35 108.38 624.89 107.93 630.05 109.67 C 628.07 122.02 625.08 134.19 623.67 146.63 C 619.43 146.29 615.17 145.62 610.93 146.02 C 609.04 146.56 609.11 148.85 608.72 150.40 C 607.99 157.28 607.64 164.25 608.34 171.15 C 608.69 173.14 608.76 175.95 611.17 176.54 C 612.80 170.11 611.76 163.39 612.09 156.83 C 615.52 157.17 618.95 157.50 622.39 157.80 C 621.53 165.01 622.82 172.34 621.60 179.49 C 619.29 185.97 615.07 191.57 611.42 197.34 C 601.74 196.08 592.00 194.46 582.22 194.76 C 582.21 197.20 584.31 197.91 586.26 198.47 C 587.02 199.72 587.36 201.62 589.09 201.84 C 594.88 203.36 600.93 203.35 606.87 203.68 C 602.32 209.82 598.11 216.23 593.21 222.10 C 590.39 225.47 586.52 228.44 581.95 228.53 C 578.59 228.50 575.30 227.71 572.07 226.89 C 558.99 222.21 547.48 214.02 537.32 204.67 C 533.88 201.56 531.25 197.57 527.30 195.04 C 527.29 197.13 527.85 199.19 529.17 200.84 C 540.25 215.60 555.63 227.22 573.13 233.20 C 573.24 241.49 575.44 249.74 574.18 258.03 C 573.82 260.44 572.78 263.41 570.03 263.90 C 565.05 264.80 559.75 264.06 555.23 261.77 C 547.45 257.81 539.68 253.69 532.92 248.10 C 521.99 239.13 510.66 229.74 504.00 217.00 C 501.18 211.85 505.80 207.31 508.05 203.01 C 512.51 196.16 513.18 187.84 513.61 179.91 C 513.38 175.91 516.70 173.25 518.77 170.25 C 512.33 166.16 507.06 160.52 502.42 154.53 C 498.77 149.53 495.49 143.42 496.61 137.03 C 497.23 132.96 500.68 129.35 504.90 129.19 C 509.41 128.65 513.51 131.35 516.29 134.66 C 519.60 138.72 523.75 141.93 527.47 145.58 C 530.19 148.39 534.31 149.42 538.12 149.43 C 538.42 149.12 539.03 148.48 539.34 148.16 C 539.57 144.74 538.88 141.34 539.09 137.92 C 539.26 133.00 540.91 128.30 542.66 123.75 C 543.20 128.08 542.66 132.83 544.88 136.75 C 547.26 136.75 547.76 134.34 548.58 132.61 C 551.40 125.53 555.07 118.80 559.52 112.61 C 562.15 109.01 564.46 105.12 565.73 100.81 M 568.60 153.44 C 571.27 154.36 574.13 154.41 576.92 154.66 C 584.30 155.19 591.65 156.44 599.06 156.49 C 599.45 156.32 600.22 155.98 600.60 155.81 C 601.50 152.39 601.14 148.79 601.20 145.29 C 595.90 144.08 590.42 144.16 585.04 143.60 C 579.97 143.32 574.91 142.46 569.83 142.62 C 567.37 145.38 568.06 150.00 568.60 153.44 M 595.93 179.04 C 597.77 181.80 599.52 184.76 602.12 186.87 C 605.44 186.51 608.79 185.43 611.49 183.43 C 613.27 182.07 611.82 179.74 611.71 177.99 C 608.45 177.74 605.55 179.26 602.75 180.71 C 600.58 178.94 598.59 176.87 596.08 175.59 C 594.23 175.88 595.42 178.09 595.93 179.04 Z" />
        <path fill="#f0b58b" opacity="1.00"
            d=" M 638.99 423.27 C 638.28 410.16 639.11 397.01 639.94 383.92 C 660.11 404.48 679.57 425.72 699.23 446.76 C 703.06 451.40 708.43 456.36 707.56 462.96 C 707.24 469.52 705.99 476.03 703.73 482.21 C 698.80 484.78 694.40 488.23 689.51 490.88 C 688.89 488.69 687.93 486.30 689.14 484.12 C 690.98 478.90 697.14 476.55 698.29 470.93 C 699.80 463.81 695.47 457.08 691.15 451.83 C 687.58 447.12 679.23 449.14 677.89 454.78 C 676.22 461.47 678.95 468.72 676.08 475.21 C 675.36 477.02 673.37 477.70 671.85 478.66 C 669.04 475.38 669.87 470.93 669.74 466.97 C 669.74 461.05 668.79 454.79 664.99 450.04 C 662.02 446.28 658.87 442.13 659.07 437.07 C 658.73 433.80 660.81 430.34 659.12 427.27 C 655.56 427.48 655.08 431.76 653.65 434.27 C 649.02 430.28 642.84 428.07 638.99 423.27 Z" />
        <path fill="#f0b58b" opacity="1.00"
            d=" M 358.80 428.84 C 364.12 416.72 370.67 405.20 377.50 393.88 C 385.51 406.24 396.93 415.99 409.21 423.90 C 401.29 438.64 391.71 452.41 381.77 465.85 C 370.17 480.61 360.68 496.85 350.76 512.75 C 347.70 517.82 343.88 522.84 343.31 528.93 C 343.40 533.65 343.96 538.45 342.69 543.07 C 341.10 550.27 336.10 556.18 334.78 563.46 C 333.24 570.15 334.20 577.53 330.40 583.59 C 324.94 577.69 324.69 569.23 323.23 561.76 C 322.21 557.40 322.50 551.70 317.91 549.32 C 314.42 555.57 313.57 562.91 313.22 569.95 C 312.75 576.90 316.62 583.94 322.82 587.15 C 327.95 590.17 334.93 591.29 337.67 597.25 C 325.93 596.65 314.91 591.71 304.63 586.35 C 301.70 585.08 300.97 581.86 300.84 578.98 C 300.49 573.23 296.87 568.45 295.57 562.96 C 294.90 559.04 297.54 555.72 300.01 553.03 C 306.34 545.97 313.40 539.44 318.29 531.22 C 328.68 514.08 334.83 494.86 341.12 475.96 C 346.40 460.03 352.22 444.28 358.80 428.84 Z" />
        <path fill="#f0b58b" opacity="1.00"
            d=" M 683.26 457.08 C 683.29 455.55 685.04 455.07 685.97 454.18 C 689.42 458.09 692.58 462.71 693.17 468.02 C 693.46 471.91 689.71 474.01 687.34 476.41 C 682.77 480.57 681.11 487.50 683.66 493.21 C 678.20 495.82 673.05 499.09 667.36 501.20 C 670.77 496.27 675.94 493.10 680.36 489.20 C 682.52 487.81 680.47 484.35 678.23 485.48 C 672.58 487.75 667.25 491.10 661.05 491.72 C 663.53 488.76 666.39 485.90 669.97 484.32 C 673.53 483.67 677.74 483.34 679.96 480.02 C 684.82 473.36 682.54 464.70 683.26 457.08 Z" />
        <path fill="#f0b58b" opacity="1.00"
            d=" M 630.57 696.54 C 639.48 691.68 649.21 688.34 659.31 687.18 C 663.33 690.42 667.19 694.18 669.07 699.10 C 672.52 707.93 672.57 717.72 671.14 726.98 C 670.36 734.39 669.75 741.83 669.48 749.28 C 660.51 744.37 649.86 744.31 639.95 745.42 C 631.56 746.40 623.27 748.50 615.54 751.94 C 616.16 743.21 617.24 733.86 613.32 725.71 C 609.85 719.15 604.91 713.45 599.33 708.61 C 610.13 705.70 620.45 701.25 630.57 696.54 Z" />
        <path fill="#f0b58b" opacity="1.00"
            d=" M 484.73 694.38 C 496.04 701.43 507.21 709.40 520.42 712.45 C 527.76 714.32 536.07 714.87 542.82 710.84 C 540.37 719.27 539.24 728.53 533.64 735.62 C 529.28 740.87 522.53 743.63 515.86 744.36 C 509.28 745.18 502.75 746.40 496.26 747.75 C 487.42 742.93 479.78 735.73 475.38 726.59 C 471.12 718.18 469.89 708.46 471.26 699.18 C 476.01 698.46 480.84 697.37 484.73 694.38 Z" />
    </g>
    <g id="#f11b27ff">
        <path fill="var(--shirt-color, grey)" opacity="1.00"
            d=" M 478.62 241.61 C 484.96 232.78 488.36 221.77 497.15 214.83 C 497.89 217.60 498.55 220.46 500.07 222.94 C 507.63 235.36 518.86 244.93 530.22 253.75 C 537.18 259.13 544.90 263.41 552.72 267.39 C 558.58 270.32 565.51 271.38 571.91 269.76 C 575.97 268.70 578.86 264.96 579.59 260.93 C 581.56 252.02 578.12 243.23 577.91 234.34 C 583.35 234.90 589.16 234.18 593.57 230.68 C 599.07 226.51 602.65 220.47 606.89 215.14 C 614.58 230.87 620.94 247.30 625.62 264.17 C 628.26 273.21 628.49 282.73 627.74 292.06 C 626.81 303.48 628.43 314.90 630.47 326.11 C 631.98 337.10 633.39 348.13 634.18 359.20 C 634.76 366.05 635.28 372.97 634.39 379.82 C 632.91 389.48 632.98 399.28 632.57 409.01 C 632.08 422.36 633.92 435.71 632.71 449.04 C 632.02 457.76 632.46 466.85 629.14 475.12 C 626.35 482.18 623.43 489.26 621.87 496.72 C 620.57 502.84 621.31 509.49 618.15 515.12 C 614.48 522.09 606.25 524.48 601.14 530.14 C 592.31 539.54 581.88 547.42 570.32 553.15 C 566.47 554.92 562.26 555.81 558.05 556.07 C 550.37 556.46 542.62 556.49 535.03 555.08 C 523.87 553.42 513.12 549.86 502.03 547.86 C 521.90 544.73 541.85 538.41 558.04 526.12 C 571.06 516.93 582.06 505.06 596.01 497.16 C 598.40 495.35 602.45 494.14 602.37 490.53 C 589.09 494.14 578.12 503.07 567.58 511.55 C 558.39 518.57 549.16 525.79 538.61 530.66 C 524.49 536.79 509.39 540.98 493.99 541.95 C 480.02 542.90 466.02 543.73 452.01 543.49 C 446.77 543.52 440.20 544.33 436.67 539.50 C 430.04 530.43 431.18 518.36 433.26 507.95 C 436.60 490.42 446.65 475.32 452.85 458.82 C 458.43 444.01 453.99 427.20 444.90 414.77 C 450.64 411.00 456.63 407.52 463.22 405.46 C 474.45 415.37 479.40 430.45 490.87 440.17 C 503.42 451.61 521.38 454.56 533.68 466.34 C 535.67 468.45 538.18 470.79 538.17 473.90 C 537.38 475.97 535.12 477.19 532.96 476.85 C 524.07 476.08 517.35 469.35 508.99 466.99 C 510.27 470.78 513.89 472.82 517.01 474.94 C 521.90 478.01 527.18 480.91 533.02 481.54 C 537.97 482.20 543.14 478.06 543.10 472.97 C 542.78 468.38 539.59 464.66 536.39 461.64 C 527.98 453.96 517.25 449.76 507.10 444.97 C 499.78 441.38 492.85 436.66 487.80 430.17 C 480.81 421.81 476.45 411.44 468.35 403.97 C 473.12 402.73 477.85 401.33 482.53 399.80 C 489.06 403.99 494.15 409.90 499.98 414.94 C 506.61 420.73 513.34 426.44 520.56 431.49 C 528.22 436.86 535.63 442.69 543.96 447.03 C 552.99 451.97 562.94 454.96 572.98 457.03 C 574.84 457.35 578.12 457.78 578.11 455.01 C 576.27 453.47 573.87 452.95 571.65 452.22 C 557.72 448.12 544.24 442.11 532.39 433.65 C 519.74 424.83 507.63 415.23 496.22 404.85 C 493.50 402.32 490.59 400.02 487.55 397.90 C 494.67 394.37 502.14 389.39 504.29 381.24 C 504.79 379.20 505.93 375.74 503.03 375.12 C 498.34 384.07 489.70 390.33 480.20 393.37 C 468.67 397.14 456.28 399.09 446.06 406.05 C 437.58 410.72 430.13 417.21 424.98 425.47 C 412.76 418.28 400.57 410.60 390.98 399.98 C 383.11 391.69 378.67 381.00 372.31 371.65 C 366.59 362.52 359.82 354.07 352.28 346.38 C 358.00 339.61 365.84 335.11 374.04 332.02 C 400.05 321.86 427.83 317.83 454.98 311.97 C 458.33 311.19 462.99 310.89 463.62 306.61 C 452.42 307.28 441.46 309.91 430.45 311.91 C 436.19 293.20 447.62 276.87 460.12 262.06 C 465.91 254.90 473.38 249.23 478.62 241.61 M 516.36 305.98 C 515.15 313.91 515.80 322.03 516.11 330.02 C 516.77 338.81 517.28 347.71 519.59 356.25 C 519.96 357.97 521.47 360.94 523.48 359.04 C 523.66 355.27 523.04 351.52 522.82 347.76 C 521.80 334.82 522.54 321.68 519.82 308.91 C 519.48 307.22 518.52 304.16 516.36 305.98 M 485.89 306.93 C 483.80 311.31 484.87 316.39 484.38 321.07 C 483.59 332.09 482.74 343.86 476.33 353.27 C 471.92 360.10 465.28 364.94 459.18 370.15 C 452.43 375.74 446.52 382.33 441.42 389.45 C 439.97 391.30 439.27 393.59 439.39 395.95 C 444.59 393.14 448.00 388.17 452.13 384.12 C 457.98 377.87 465.02 372.95 471.48 367.39 C 479.70 360.32 486.09 350.82 488.36 340.12 C 490.35 330.87 490.47 321.28 489.65 311.88 C 489.38 309.75 488.79 306.39 485.89 306.93 M 464.21 487.22 C 462.45 489.52 464.54 492.17 465.98 494.01 C 472.44 501.64 481.26 507.12 490.71 510.24 C 497.83 512.68 505.46 511.54 512.76 510.70 C 514.98 510.52 516.89 509.32 518.54 507.89 C 512.48 506.08 506.10 507.66 499.95 506.51 C 487.22 504.46 475.28 497.79 466.70 488.18 C 466.07 487.37 465.23 487.05 464.21 487.22 Z" />
    </g>
    <g id="#ffffffff">
        <path fill="var(--pants-color, grey)" opacity="1.00"
            d=" M 603.13 537.12 C 607.10 533.10 611.64 529.72 616.34 526.61 C 618.26 536.41 617.57 546.60 620.46 556.23 C 622.69 563.32 622.87 570.88 621.55 578.17 C 620.05 585.94 618.91 593.78 618.77 601.71 C 611.55 591.93 607.40 579.99 606.52 567.89 C 606.48 566.33 605.76 564.95 605.12 563.59 C 602.63 566.91 603.25 571.17 603.28 575.05 C 603.32 582.90 606.39 590.34 609.76 597.30 C 614.99 607.63 625.48 614.52 629.11 625.75 C 632.50 634.47 637.37 642.54 642.93 650.04 C 647.23 656.08 652.52 661.47 655.85 668.18 C 658.30 672.69 659.83 677.60 661.46 682.46 C 651.57 683.23 641.74 685.30 632.79 689.68 C 625.27 693.53 617.33 696.40 609.52 699.57 C 592.30 705.81 573.06 709.35 555.19 703.66 C 548.26 701.21 540.93 699.98 533.57 700.16 C 544.48 687.11 546.04 669.14 544.45 652.85 C 543.54 645.91 542.77 638.88 540.84 632.13 C 540.64 630.63 539.16 630.16 538.00 629.60 C 537.28 641.74 539.99 653.83 538.81 665.97 C 538.13 677.29 534.78 689.09 526.98 697.62 C 519.66 672.10 502.48 651.16 485.90 631.02 C 479.88 624.15 475.22 616.26 470.66 608.39 C 467.57 602.88 464.53 597.15 463.64 590.81 C 461.81 577.56 463.20 564.10 461.23 550.87 C 468.82 551.01 476.56 549.00 484.03 551.08 C 490.02 552.29 496.11 552.97 502.06 554.35 C 512.99 556.84 523.74 560.17 534.87 561.69 C 542.19 562.92 549.65 562.61 557.03 562.20 C 563.31 561.79 569.28 559.62 575.09 557.37 C 564.00 570.14 547.10 574.59 531.72 579.84 C 529.32 580.04 528.38 583.34 530.96 584.14 C 534.36 584.78 537.76 583.61 541.06 582.88 C 548.36 580.81 555.93 579.37 562.71 575.83 C 571.86 571.30 579.47 563.26 582.46 553.38 C 589.48 548.14 596.96 543.41 603.13 537.12 M 576.53 582.40 C 568.24 588.83 559.10 594.66 548.68 596.80 C 533.71 600.34 518.58 595.93 503.76 593.83 C 501.41 593.72 502.28 596.54 503.89 596.97 C 512.89 601.48 523.02 603.08 532.96 603.99 C 546.43 605.21 560.34 601.35 571.14 593.16 C 576.74 588.92 582.58 584.35 585.61 577.82 C 586.62 576.10 586.24 574.09 586.16 572.23 C 582.55 575.24 580.27 579.52 576.53 582.40 Z" />
        <path fill="var(--pants-color, grey)" opacity="1.00"
            d=" M 470.21 619.16 C 477.02 630.86 486.49 640.66 494.71 651.34 C 506.19 666.41 517.37 682.44 522.18 701.02 C 522.56 703.35 524.35 705.49 526.90 705.32 C 532.05 705.33 537.21 705.06 542.35 705.71 C 535.77 709.78 527.65 708.58 520.59 706.59 C 502.15 701.65 488.15 687.68 470.79 680.35 C 462.27 676.05 452.71 675.08 443.49 673.24 C 444.96 669.84 446.20 666.30 448.19 663.15 C 453.00 655.78 460.42 650.43 464.56 642.58 C 468.63 635.50 470.22 627.26 470.21 619.16 Z" />
        <path fill="var(--socks-color, grey)" opacity="1.00"
            d=" M 427.56 709.49 C 440.13 705.05 453.09 701.52 466.29 699.54 C 461.61 718.81 471.35 739.92 488.24 749.92 C 478.32 752.77 468.73 756.62 458.86 759.62 C 442.11 764.88 425.76 771.37 409.93 778.95 C 394.85 786.85 379.48 794.22 364.67 802.63 C 358.00 806.71 351.32 810.77 344.44 814.49 C 337.07 818.45 327.72 819.70 319.98 816.05 C 315.37 814.08 312.26 809.61 310.93 804.90 C 309.26 799.14 308.93 792.93 310.24 787.08 C 311.81 782.41 315.99 779.10 320.46 777.35 C 327.99 774.32 335.75 771.75 342.80 767.66 C 354.49 760.76 365.25 752.36 375.25 743.22 C 390.80 729.42 407.89 716.71 427.56 709.49 Z" />
        <path fill="var(--socks-color, grey)" opacity="1.00"
            d=" M 614.26 759.78 C 625.89 754.85 638.32 751.37 651.03 751.32 C 657.30 751.32 663.85 751.94 669.34 755.25 C 668.97 767.19 669.74 779.11 670.35 791.03 C 671.97 808.66 672.22 826.40 674.32 843.99 C 676.42 862.32 677.38 880.76 679.73 899.07 C 680.37 903.47 680.89 907.88 681.35 912.31 C 673.80 912.53 666.18 913.47 659.05 916.05 C 652.73 918.99 648.15 924.56 643.96 929.95 C 641.86 932.58 639.42 935.05 636.28 936.42 C 633.74 931.39 633.46 925.66 632.92 920.16 C 632.05 910.72 632.67 901.20 631.46 891.79 C 629.54 875.34 623.27 859.85 617.34 844.52 C 613.49 834.11 608.41 824.03 606.41 813.04 C 604.76 804.64 606.14 796.07 608.14 787.88 C 610.42 778.56 612.38 769.18 614.26 759.78 Z" />
    </g>
    <g id="#4d4d4dff">
        <path fill="#4d4d4d" opacity="1.00"
            d=" M 284.17 770.42 C 295.71 766.23 308.51 766.95 320.09 770.65 C 314.80 773.06 309.35 776.10 306.51 781.42 C 301.65 790.36 302.05 801.64 306.26 810.75 C 309.14 817.17 315.71 820.80 322.06 823.04 C 327.54 825.00 333.46 824.38 339.10 823.59 C 338.74 838.24 331.36 851.49 330.06 865.99 C 328.74 875.63 330.62 885.75 327.01 895.00 C 325.08 899.71 322.41 904.23 318.68 907.73 C 316.45 909.62 313.17 911.38 310.29 909.85 C 302.29 905.94 297.30 898.08 293.85 890.16 C 289.19 879.80 286.98 868.36 287.12 857.01 C 287.16 845.73 285.64 834.43 282.51 823.59 C 280.37 816.06 276.48 809.16 274.52 801.58 C 273.28 796.78 271.83 791.96 271.70 786.98 C 271.83 779.54 277.29 772.88 284.17 770.42 Z" />
        <path fill="#4d4d4d" opacity="1.00"
            d=" M 655.33 925.35 C 662.86 918.00 674.25 919.13 683.86 917.40 C 689.30 922.87 696.18 926.50 702.98 929.99 C 714.76 935.97 727.32 940.21 739.95 943.99 C 746.78 946.23 753.98 947.89 760.14 951.77 C 762.56 953.44 765.65 955.66 765.11 959.05 C 764.30 964.35 759.38 967.64 754.99 969.98 C 742.88 975.91 729.46 979.19 715.98 979.48 C 704.96 979.80 693.99 978.43 682.98 978.49 C 669.64 978.52 656.29 978.70 643.00 979.78 C 636.96 980.31 630.65 978.04 626.65 973.43 C 624.37 970.81 623.54 967.31 623.09 963.96 C 621.94 954.13 623.99 943.83 629.57 935.58 C 631.52 938.34 633.88 942.33 637.95 941.05 C 645.75 938.52 649.57 930.56 655.33 925.35 Z" />
    </g>
</svg>