<?xml version="1.0" encoding="UTF-8" ?>
<!DOCTYPE svg PUBLIC "-//W3C//DTD SVG 1.1//EN" "http://www.w3.org/Graphics/SVG/1.1/DTD/svg11.dtd">
<svg width="1000pt" height="1000pt" viewBox="0 0 1000 1000" version="1.1" xmlns="http://www.w3.org/2000/svg">
    <g id="#020202ff">
        <path fill="#020202" opacity="1.00"
            d=" M 700.67 79.71 C 706.07 77.74 712.34 76.61 717.75 79.21 C 723.17 82.00 729.36 79.89 735.12 81.03 C 740.86 81.65 746.01 84.89 749.52 89.41 C 747.09 89.11 744.68 88.66 742.29 88.18 C 752.87 94.15 764.62 100.56 769.95 112.10 C 774.25 120.53 778.74 128.90 782.20 137.73 C 784.66 143.80 783.61 150.48 785.15 156.74 C 786.31 161.28 786.00 166.00 785.22 170.57 C 784.32 170.26 782.53 169.65 781.63 169.34 C 780.83 171.59 780.23 173.96 778.92 175.98 C 776.98 178.90 772.12 178.32 771.01 181.98 C 769.38 185.87 767.43 189.68 764.30 192.59 C 763.87 199.60 763.72 206.73 765.35 213.62 C 765.68 215.86 766.80 218.86 764.56 220.48 C 760.73 223.08 755.95 221.33 751.83 220.60 C 749.08 228.75 746.80 237.39 741.22 244.16 C 737.35 248.98 731.08 251.05 725.12 251.67 C 718.25 252.13 711.58 249.79 705.38 247.07 C 705.19 247.78 704.80 249.21 704.61 249.93 C 710.03 253.97 714.22 259.35 719.50 263.55 C 723.60 267.05 728.89 269.86 730.82 275.21 C 735.06 287.45 729.42 300.81 734.00 312.98 C 735.81 318.53 737.64 324.16 738.05 330.03 C 738.80 339.35 736.60 348.65 737.74 357.97 C 738.33 368.86 744.59 378.32 746.10 389.03 C 746.76 394.22 748.12 399.64 747.12 404.82 C 744.78 406.61 741.31 406.32 738.51 407.14 C 738.59 411.16 739.00 415.16 739.48 419.16 C 745.80 420.53 752.25 421.90 757.94 425.13 C 762.26 427.75 767.48 427.27 772.33 427.26 C 776.64 423.12 779.20 417.57 783.33 413.30 C 786.94 409.50 793.85 410.94 795.49 416.00 C 799.89 412.69 805.61 411.75 811.01 412.23 C 814.88 412.71 818.65 414.93 820.52 418.43 C 822.16 421.49 822.42 425.03 823.01 428.40 C 825.81 430.89 828.93 433.87 828.89 437.94 C 829.18 442.44 826.10 446.07 823.39 449.28 C 824.84 451.02 826.62 452.69 827.08 455.01 C 827.74 457.62 826.64 460.17 825.81 462.59 C 827.56 467.59 823.31 472.38 818.60 473.39 C 809.24 475.67 799.72 472.54 790.98 469.33 C 783.69 468.43 776.19 468.98 769.05 466.89 C 761.88 464.75 754.48 463.31 746.99 463.24 C 735.97 463.16 724.97 464.73 713.95 464.01 C 707.36 463.47 700.33 461.35 696.06 455.99 C 691.63 450.52 690.87 443.23 690.43 436.47 C 687.81 439.52 684.85 442.41 681.01 443.83 C 678.54 430.93 675.53 418.07 674.55 404.95 C 672.77 408.70 671.02 412.47 669.64 416.39 C 668.23 420.46 666.27 424.55 666.63 428.97 C 667.02 435.19 669.85 441.33 668.44 447.61 C 666.30 455.08 658.39 459.39 656.77 467.10 C 655.94 473.18 658.58 478.98 660.47 484.62 C 663.81 493.90 665.55 504.04 663.52 513.82 C 669.52 516.24 674.34 520.79 678.21 525.88 C 685.10 535.20 691.09 545.32 699.58 553.33 C 705.31 559.03 712.66 562.86 717.94 569.05 C 721.95 573.70 724.69 579.85 724.09 586.09 C 723.49 589.55 719.73 590.95 717.22 592.86 C 722.28 598.44 727.14 604.20 731.75 610.16 C 737.60 617.69 743.98 624.90 748.59 633.30 C 752.20 639.80 752.43 647.58 751.35 654.78 C 749.79 665.05 744.10 673.97 740.51 683.57 C 737.40 692.13 734.82 700.93 733.61 709.98 C 729.56 743.46 724.32 777.23 711.92 808.79 C 707.33 821.31 701.58 833.36 696.81 845.81 C 693.88 853.64 691.27 861.59 688.33 869.42 C 712.02 875.04 731.96 890.32 755.45 896.47 C 761.26 898.23 767.19 900.20 772.10 903.90 C 777.99 908.27 778.43 917.55 774.25 923.24 C 769.30 930.32 760.86 934.16 752.49 935.30 C 729.44 938.01 706.20 938.26 683.02 937.76 C 671.56 936.96 659.86 935.81 648.54 938.44 C 641.15 940.34 633.73 942.78 626.01 942.59 C 618.26 942.42 610.19 937.66 608.10 929.85 C 604.96 918.45 607.41 906.31 611.51 895.48 C 615.67 885.66 621.31 876.41 628.50 868.51 C 630.20 863.95 629.83 858.84 630.95 854.09 C 633.20 843.85 633.55 833.35 634.90 822.98 C 636.52 806.91 637.84 790.76 641.26 774.95 C 644.77 759.46 648.69 744.02 654.35 729.15 C 661.31 709.27 673.23 691.09 676.55 670.00 C 677.06 665.69 679.73 660.38 676.40 656.66 C 665.56 649.76 652.77 646.38 642.45 638.59 C 640.05 636.82 637.75 634.94 635.46 633.05 C 619.24 636.11 602.63 632.83 586.40 635.57 C 582.16 636.11 577.94 638.28 573.65 637.43 C 570.88 633.59 569.07 629.14 566.43 625.21 C 559.32 633.25 556.08 643.61 552.56 653.52 C 549.09 662.76 544.35 671.52 538.64 679.56 C 535.47 683.81 531.61 688.35 526.11 689.33 C 522.79 688.41 519.84 686.55 516.68 685.24 C 506.39 680.80 495.02 679.88 483.93 679.85 C 479.94 679.70 476.51 682.25 474.25 685.33 C 463.81 698.32 457.42 714.46 444.58 725.51 C 434.33 735.58 419.10 736.22 406.93 742.84 C 400.33 746.39 396.02 752.69 390.94 757.97 C 379.23 769.93 367.38 781.89 354.11 792.15 C 338.82 803.45 322.37 813.92 303.86 819.01 C 297.17 820.92 289.89 821.20 283.71 824.59 C 276.73 830.95 272.58 839.63 266.78 846.97 C 262.55 852.32 258.56 857.89 253.85 862.84 C 248.65 868.32 241.77 872.13 237.57 878.57 C 228.89 891.17 224.51 906.03 217.59 919.57 C 213.14 929.35 206.47 938.54 196.95 943.89 C 193.87 945.58 189.39 946.04 186.97 943.00 C 183.48 938.42 181.82 932.79 179.49 927.60 C 175.09 917.35 171.61 906.33 172.47 895.05 C 172.99 885.99 176.85 877.44 182.26 870.28 C 186.75 864.12 192.07 857.86 192.81 849.96 C 194.08 836.37 189.01 822.89 191.32 809.31 C 192.39 803.26 194.91 796.83 200.41 793.51 C 208.63 788.41 218.69 788.12 228.07 788.36 C 232.06 788.36 235.69 790.15 239.33 791.57 C 242.39 792.94 245.65 791.62 248.66 790.79 C 253.34 781.82 260.08 774.21 266.61 766.57 C 276.35 755.35 286.62 744.42 298.66 735.64 C 312.99 724.98 328.81 716.55 344.95 708.99 C 353.23 705.21 360.86 700.22 368.61 695.48 C 376.69 690.16 384.78 684.57 391.19 677.24 C 394.50 673.64 397.05 669.46 399.82 665.46 C 396.77 662.56 392.93 659.52 392.70 654.96 C 398.23 648.10 404.78 641.95 409.37 634.34 C 414.48 625.69 420.09 617.28 424.08 608.03 C 428.82 597.27 431.15 585.48 437.38 575.38 C 443.90 563.70 453.91 553.81 457.48 540.62 C 459.67 530.56 459.11 519.86 463.28 510.27 C 466.20 503.51 468.49 496.48 471.90 489.95 C 469.14 489.30 465.87 489.36 463.80 487.14 C 461.60 484.94 460.91 481.81 460.00 478.95 C 457.98 479.29 455.74 480.34 453.79 479.21 C 451.30 477.87 451.00 474.78 450.30 472.35 C 445.43 474.07 440.26 470.12 440.48 465.01 C 440.92 458.55 444.06 452.69 445.57 446.46 C 447.52 440.82 446.08 434.68 448.07 429.06 C 452.44 415.91 452.39 401.72 450.45 388.13 C 448.42 371.03 441.87 354.91 439.16 337.94 C 438.33 332.22 438.22 326.38 439.19 320.67 C 433.91 319.66 429.01 316.51 426.46 311.72 C 425.37 308.58 426.10 305.14 426.99 302.04 C 429.74 294.25 435.23 287.51 442.16 283.05 C 454.62 274.88 468.56 269.32 482.54 264.37 C 511.21 254.93 541.04 249.27 571.10 246.74 C 574.00 246.90 575.85 244.51 577.93 242.91 C 588.75 234.09 602.22 229.04 615.93 226.96 C 626.72 225.32 637.81 225.01 648.61 226.80 C 651.78 225.08 653.91 222.13 655.65 219.05 C 654.80 214.02 654.24 208.92 652.88 203.99 C 652.25 201.37 649.93 199.73 648.25 197.80 C 644.36 193.53 640.45 188.83 639.14 183.06 C 638.31 179.96 638.16 176.72 637.33 173.63 C 635.78 170.66 632.94 168.63 631.31 165.72 C 628.16 160.39 627.92 153.96 628.44 147.96 C 629.73 135.76 633.57 123.70 640.50 113.51 C 636.92 113.16 633.43 112.23 630.32 110.41 C 634.40 108.66 638.50 106.81 642.03 104.06 C 647.06 100.46 650.42 94.95 655.82 91.82 C 665.55 85.34 677.66 84.60 688.99 84.20 C 693.35 84.23 696.71 81.07 700.67 79.71 M 729.10 167.97 C 722.76 169.61 716.55 171.63 710.56 174.27 C 710.68 171.03 711.19 167.82 712.05 164.70 C 707.93 168.01 703.47 170.97 699.85 174.84 C 696.85 177.82 697.01 182.32 696.41 186.19 C 695.94 185.90 694.99 185.30 694.52 185.01 C 694.15 185.78 693.42 187.34 693.05 188.11 C 689.83 185.94 686.60 183.77 683.57 181.34 C 679.51 178.11 677.08 173.24 672.83 170.21 C 670.77 168.74 667.77 167.76 665.49 169.31 C 662.60 171.12 662.61 175.06 663.16 178.04 C 664.39 183.47 668.90 187.25 671.44 192.02 C 669.99 198.73 665.92 204.58 662.26 210.29 C 661.32 211.66 661.48 213.40 661.19 214.96 C 660.51 221.68 656.72 227.93 651.42 232.05 C 651.28 234.59 650.51 237.55 652.33 239.70 C 657.18 245.71 665.69 246.52 671.11 251.85 C 678.41 258.63 680.62 268.80 686.26 276.74 C 687.86 279.12 690.24 280.85 693.02 281.63 C 696.06 274.08 697.80 265.99 698.36 257.88 C 698.73 253.35 700.63 249.14 701.62 244.74 C 694.98 240.02 688.12 234.96 683.81 227.90 C 683.95 227.45 684.23 226.55 684.37 226.10 C 687.29 227.03 689.47 229.35 691.91 231.10 C 699.50 237.20 707.20 244.00 717.01 246.07 C 724.78 248.24 734.62 246.41 739.15 239.18 C 743.45 233.08 744.92 225.65 747.83 218.91 C 750.62 213.87 757.10 217.67 761.50 217.35 C 758.83 207.05 758.98 196.25 760.69 185.81 C 757.27 186.38 753.81 186.56 750.36 186.75 C 749.99 188.08 749.62 189.40 749.25 190.72 C 743.62 188.42 737.78 186.71 732.16 184.43 C 735.55 180.13 740.47 176.89 746.07 176.60 C 751.80 175.93 757.25 178.53 761.64 182.01 C 763.62 174.62 765.66 167.23 767.11 159.72 C 763.20 160.96 760.87 164.55 757.40 166.51 C 756.64 163.11 756.01 159.67 755.16 156.29 C 748.05 163.14 738.02 164.70 729.10 167.97 M 584.99 245.32 C 592.87 244.98 600.79 243.66 608.66 244.46 C 611.01 244.44 612.81 247.94 609.75 248.45 C 596.71 251.25 583.34 251.95 570.11 253.42 C 548.80 255.24 527.54 258.25 506.80 263.56 C 486.16 268.41 465.89 275.63 447.67 286.60 C 440.41 290.79 434.40 297.44 431.80 305.49 C 431.32 307.71 430.27 310.87 432.70 312.31 C 439.08 316.74 447.58 315.08 454.28 318.83 C 461.56 322.87 467.69 328.62 474.21 333.75 C 482.80 340.92 491.82 347.58 501.24 353.61 C 503.56 346.37 507.55 339.36 514.04 335.10 C 522.81 329.28 534.07 328.94 544.10 330.96 C 547.96 331.91 552.50 332.69 554.71 336.43 C 550.10 336.83 545.65 335.33 541.10 335.07 C 535.65 334.60 530.19 335.26 524.86 336.39 C 526.82 343.02 528.33 350.93 523.98 356.97 C 520.88 362.11 514.18 365.32 514.00 371.94 C 513.63 379.31 514.88 386.69 514.17 394.06 C 513.99 397.71 512.75 401.26 512.93 404.92 C 513.71 410.51 515.80 415.83 518.08 420.96 C 523.89 433.29 531.20 444.86 539.02 456.00 C 539.85 457.21 540.48 458.58 540.46 460.10 C 538.59 461.59 536.54 460.37 535.17 458.88 C 528.55 452.16 523.87 443.86 519.42 435.63 C 515.56 428.15 512.05 420.41 509.97 412.22 C 506.08 420.53 499.97 427.52 494.52 434.82 C 494.53 443.54 495.36 452.24 495.42 460.96 C 495.55 470.48 490.51 478.80 486.64 487.14 C 492.62 492.94 497.71 500.32 505.85 503.26 C 517.68 507.66 530.57 507.43 543.00 507.09 C 567.29 505.53 592.08 503.60 616.07 508.91 C 630.08 512.67 644.75 515.57 659.29 513.58 C 660.28 504.36 658.81 495.03 655.48 486.41 C 652.96 479.29 649.69 471.52 652.14 463.92 C 654.20 457.15 660.69 453.07 663.34 446.65 C 664.72 438.84 659.85 431.27 661.69 423.41 C 665.06 410.93 670.89 399.11 678.76 388.85 C 680.92 386.02 683.75 383.71 685.55 380.60 C 690.27 371.92 694.11 362.69 696.03 352.96 C 697.19 349.00 696.88 344.30 699.98 341.19 C 700.76 353.13 698.00 365.15 693.17 376.04 C 697.64 373.36 702.65 371.03 705.67 366.58 C 708.40 362.98 709.46 358.52 711.40 354.51 C 713.73 353.03 713.25 356.59 713.17 357.96 C 712.26 362.56 710.72 367.16 708.06 371.06 C 703.57 377.21 695.78 379.27 690.24 384.20 C 686.32 387.66 682.58 391.49 680.03 396.09 C 678.27 400.44 678.89 405.31 679.44 409.85 C 680.95 419.06 683.04 428.18 684.27 437.45 C 687.06 433.57 689.69 429.52 693.09 426.13 C 698.19 421.00 704.44 417.25 710.58 413.51 C 720.56 407.50 731.36 402.50 743.05 401.10 C 741.80 394.86 740.65 388.57 738.42 382.59 C 736.32 376.68 733.34 371.06 732.00 364.89 C 730.43 357.72 730.23 350.31 730.92 343.02 C 731.42 337.72 731.90 332.35 730.99 327.07 C 729.91 319.89 726.43 313.28 725.77 306.02 C 724.87 296.88 727.48 287.60 725.34 278.56 C 724.40 274.66 720.64 272.62 717.75 270.28 C 712.08 266.17 707.34 260.98 702.88 255.64 C 702.41 264.67 701.95 273.99 698.38 282.42 C 696.55 286.80 690.67 287.69 687.16 284.78 C 678.12 278.36 676.48 266.42 669.82 258.12 C 664.27 250.70 653.29 250.64 647.90 242.99 C 645.12 239.73 645.76 235.28 646.44 231.41 C 625.39 230.59 602.49 232.33 584.99 245.32 M 442.38 321.09 C 442.33 326.84 442.79 332.61 443.91 338.26 C 446.69 350.42 450.34 362.36 453.36 374.46 C 457.15 393.18 458.69 413.17 452.37 431.54 C 450.96 435.96 452.05 440.69 450.87 445.15 C 449.50 451.59 446.44 457.53 445.02 463.94 C 444.30 465.92 445.89 467.45 446.86 468.98 C 451.41 466.32 452.76 460.90 456.26 457.28 C 457.85 455.77 460.59 457.79 459.51 459.76 C 457.95 463.48 455.55 466.78 453.16 470.01 C 453.74 472.06 454.50 474.07 455.57 475.93 C 459.60 474.04 461.33 469.96 463.52 466.40 C 464.39 465.06 466.80 462.73 467.91 465.02 C 466.68 470.68 463.31 476.92 466.30 482.57 C 466.98 484.36 469.05 484.32 470.62 484.77 C 472.40 480.50 473.92 476.10 476.10 472.01 C 476.65 470.75 477.77 469.95 479.05 469.54 C 480.04 470.51 480.38 471.67 480.06 473.03 C 479.00 478.31 475.43 483.02 475.32 488.46 C 476.88 489.04 478.51 489.37 480.13 489.79 C 483.37 484.52 485.70 478.75 488.22 473.12 C 491.18 466.52 491.03 459.11 490.50 452.05 C 490.10 445.37 489.84 438.69 489.66 432.01 C 489.78 414.21 486.38 396.64 485.79 378.88 C 485.30 368.98 485.63 359.07 485.22 349.17 C 475.02 342.03 465.85 333.54 455.88 326.11 C 452.02 323.02 447.19 321.72 442.38 321.09 M 508.39 351.30 C 507.03 353.80 506.30 357.50 503.06 358.19 C 498.13 357.83 494.12 354.54 489.92 352.27 C 489.78 359.83 489.41 367.40 489.92 374.97 C 490.48 392.26 493.59 409.35 494.28 426.64 C 497.76 420.66 502.77 415.56 505.01 408.90 C 507.19 402.19 508.32 395.12 508.21 388.07 C 508.23 381.28 507.01 374.34 508.72 367.66 C 510.66 360.71 517.89 357.19 520.72 350.77 C 521.94 346.62 521.00 342.24 520.32 338.09 C 515.07 341.10 510.74 345.68 508.39 351.30 M 707.23 421.23 C 702.09 424.43 697.28 428.18 693.28 432.73 C 694.99 439.22 695.07 446.40 698.89 452.15 C 702.16 457.08 708.43 458.45 713.95 458.87 C 728.66 459.74 743.48 456.43 758.12 459.08 C 764.22 459.93 769.89 462.59 776.00 463.39 C 779.55 463.85 783.12 464.07 786.69 464.34 C 786.99 462.69 787.33 461.07 787.72 459.46 C 785.37 456.76 785.50 453.21 787.39 450.31 C 784.50 448.09 783.44 444.41 784.04 440.90 C 784.99 434.20 787.29 427.64 790.85 421.87 C 791.66 420.42 792.94 418.86 792.09 417.11 C 791.75 414.57 788.17 413.88 786.50 415.53 C 784.52 417.31 783.37 419.78 781.98 422.01 C 779.02 427.17 774.95 431.67 770.15 435.18 C 767.45 436.83 766.81 440.09 765.07 442.51 C 763.27 442.63 762.41 441.81 762.48 440.05 C 761.88 436.23 764.72 433.26 767.50 431.16 C 764.08 431.16 760.49 431.24 757.38 429.62 C 750.75 426.12 743.35 424.21 735.92 423.41 C 729.64 422.78 723.56 424.67 717.38 425.29 C 718.21 424.20 718.85 422.78 720.24 422.26 C 724.89 420.14 729.97 419.09 735.06 418.74 C 734.72 415.06 734.76 411.37 735.12 407.71 C 725.02 410.33 715.95 415.67 707.23 421.23 M 801.20 418.12 C 795.37 422.11 792.51 428.91 790.23 435.33 C 789.08 439.12 787.35 443.43 789.62 447.16 C 794.11 443.13 798.33 438.81 802.96 434.94 C 804.14 433.70 805.91 433.78 807.49 433.54 C 806.89 434.88 806.45 436.33 805.48 437.46 C 801.32 442.34 796.86 446.93 792.27 451.39 C 790.69 452.70 791.13 454.80 791.18 456.60 C 797.84 457.41 804.54 456.36 811.22 456.76 C 813.97 457.97 810.81 459.72 809.31 460.25 C 803.24 462.17 796.73 460.42 790.59 462.06 C 793.81 466.69 799.82 467.52 804.91 468.74 C 810.46 469.69 817.36 470.81 821.70 466.28 C 820.90 465.28 820.21 464.21 819.64 463.09 C 820.60 460.73 823.15 458.76 822.55 455.98 C 822.06 452.77 817.30 452.41 817.07 449.16 C 819.23 445.47 823.71 442.73 823.59 437.99 C 823.38 434.19 818.53 433.11 817.82 429.54 C 816.77 425.70 817.36 420.84 813.92 418.10 C 810.26 415.55 804.74 415.10 801.20 418.12 M 480.86 493.86 C 478.93 494.08 477.01 493.60 475.11 493.39 C 470.92 501.86 467.34 510.69 465.00 519.86 C 463.17 528.46 463.94 537.56 460.73 545.88 C 456.12 558.85 446.08 568.77 439.85 580.88 C 435.26 589.34 433.34 598.87 429.52 607.65 C 425.13 618.02 418.64 627.27 412.89 636.89 C 408.35 643.80 403.07 650.27 397.10 655.98 C 401.39 660.38 406.33 664.06 411.40 667.50 C 416.63 670.85 422.04 674.26 428.20 675.57 C 437.63 677.69 447.38 678.99 457.04 677.83 C 464.37 677.19 471.59 675.45 478.97 675.41 C 485.99 675.18 493.02 675.54 500.02 676.06 C 509.39 676.89 518.50 679.94 526.51 684.86 C 531.12 682.48 534.16 678.14 536.77 673.82 C 540.83 666.99 544.55 659.90 547.10 652.36 C 549.61 644.98 551.67 637.37 555.50 630.53 C 557.57 626.92 560.16 623.42 563.86 621.34 C 560.93 617.77 557.73 614.40 554.11 611.53 C 545.87 615.56 536.94 618.02 528.34 621.19 C 512.68 626.13 497.27 631.79 481.68 636.90 C 474.77 638.94 467.82 641.54 460.51 641.42 C 462.94 638.45 466.75 637.54 470.17 636.23 C 487.86 629.84 505.37 622.94 523.28 617.14 C 532.09 614.33 540.63 610.65 549.63 608.46 C 547.50 607.16 545.40 605.81 543.33 604.44 C 536.14 606.00 528.87 607.17 521.71 608.88 C 514.49 610.21 507.23 611.97 499.84 611.89 C 497.42 611.95 494.36 610.81 494.19 608.00 C 494.68 604.99 497.85 603.69 500.18 602.30 C 504.30 600.40 508.95 597.94 513.57 599.63 C 508.78 602.26 503.55 604.10 499.19 607.47 C 512.60 606.98 525.46 602.81 538.61 600.59 C 534.77 597.01 531.24 593.07 528.53 588.56 C 525.83 584.06 522.48 579.73 517.76 577.23 C 512.13 574.18 506.10 571.83 500.96 567.95 C 496.66 564.66 492.66 560.96 488.93 557.04 C 486.77 554.56 484.26 551.88 484.22 548.39 C 486.07 547.41 487.30 549.36 488.49 550.47 C 493.72 556.06 499.59 561.18 506.45 564.71 C 512.59 568.23 519.46 570.54 525.03 575.01 C 531.25 579.97 534.12 587.78 539.87 593.18 C 546.07 600.17 554.92 603.90 561.44 610.53 C 568.00 617.00 572.54 625.31 575.61 633.95 C 585.93 628.73 597.68 628.49 608.98 628.56 C 626.87 629.19 644.85 626.35 661.86 620.87 C 676.78 616.14 683.85 600.30 697.72 593.81 C 704.77 590.05 713.82 590.28 719.62 584.27 C 718.88 581.29 718.18 578.23 716.52 575.61 C 712.36 568.80 705.12 564.92 699.21 559.86 C 689.09 551.35 682.20 539.91 674.78 529.15 C 671.22 524.45 667.26 519.63 661.68 517.30 C 659.87 518.26 658.03 519.31 655.94 519.37 C 647.67 519.93 639.35 519.18 631.19 517.88 C 623.44 516.68 615.99 514.11 608.24 512.91 C 598.24 511.34 588.09 511.20 577.99 511.31 C 558.28 511.59 538.54 515.38 518.86 512.59 C 510.30 511.44 501.45 508.97 494.90 503.05 C 491.01 499.41 487.95 495.01 485.05 490.59 C 483.75 491.77 482.63 493.37 480.86 493.86 M 700.29 599.38 C 688.46 605.72 681.60 618.44 669.44 624.30 C 660.34 628.73 650.22 630.31 640.39 632.29 C 651.29 640.76 664.84 644.40 676.56 651.44 C 682.56 654.99 688.69 658.49 693.86 663.22 C 695.39 664.46 695.82 666.44 696.32 668.26 C 691.07 666.70 687.14 662.62 682.46 659.96 C 682.12 668.17 680.61 676.32 678.41 684.23 C 696.28 677.58 717.84 683.54 730.64 697.44 C 731.97 692.64 733.42 687.88 735.08 683.19 C 737.96 674.96 742.45 667.38 745.08 659.06 C 747.29 651.34 747.94 642.44 743.73 635.26 C 739.04 627.21 732.51 620.48 726.85 613.14 C 722.13 606.98 716.95 601.20 712.37 594.94 C 708.28 596.25 704.09 597.35 700.29 599.38 M 370.43 700.88 C 368.75 707.61 371.48 714.39 374.83 720.14 C 380.63 729.71 389.12 738.18 399.92 741.78 C 412.43 731.72 430.83 733.10 442.26 721.33 C 455.08 709.95 460.90 693.17 472.32 680.66 C 465.89 681.59 459.45 682.45 452.99 683.01 C 443.03 683.84 432.93 682.63 423.38 679.72 C 416.09 677.14 409.65 672.69 403.42 668.21 C 396.41 682.46 383.56 692.56 370.43 700.88 M 679.36 690.46 C 677.71 691.31 675.60 692.02 675.06 694.01 C 669.53 708.03 662.58 721.48 657.89 735.83 C 653.15 748.81 649.85 762.25 646.83 775.72 C 642.59 795.41 641.72 815.58 639.13 835.51 C 638.56 845.81 635.74 855.78 634.60 866.01 C 634.26 869.78 633.04 873.80 634.45 877.49 C 635.47 880.10 638.86 879.55 641.01 878.94 C 648.16 876.75 653.56 870.77 661.02 869.28 C 668.80 867.84 676.89 866.97 684.71 868.61 C 687.30 860.18 689.90 851.76 692.55 843.35 C 697.66 829.07 704.16 815.33 709.08 800.97 C 715.85 782.90 719.74 763.94 723.41 745.05 C 726.21 731.16 726.94 716.98 729.36 703.04 C 722.51 696.13 713.76 691.11 704.24 689.03 C 696.06 687.22 687.14 686.97 679.36 690.46 M 331.39 722.45 C 315.14 731.17 299.35 741.18 286.17 754.19 C 277.27 762.97 268.88 772.28 260.87 781.88 C 254.66 789.25 250.14 797.91 247.14 807.04 C 244.49 815.03 250.16 825.12 258.90 825.71 C 271.25 826.78 281.56 818.39 293.29 816.15 C 316.67 812.13 337.33 799.20 355.65 784.72 C 370.01 772.43 383.40 759.02 396.20 745.13 C 388.31 742.38 381.86 736.72 376.56 730.42 C 370.52 722.86 365.15 713.70 365.80 703.68 C 354.96 711.07 342.87 716.20 331.39 722.45 M 203.31 797.25 C 199.01 799.84 197.14 804.88 196.30 809.59 C 193.79 824.50 200.48 839.42 197.19 854.29 C 194.27 866.27 183.27 873.96 179.52 885.57 C 175.05 897.85 178.28 911.22 183.15 922.85 C 185.60 928.86 187.74 935.02 190.98 940.67 C 201.50 937.18 208.23 927.31 212.68 917.68 C 219.92 903.75 224.26 888.31 233.42 875.43 C 237.97 868.67 245.28 864.64 250.76 858.77 C 260.07 848.72 267.16 836.81 276.67 826.96 C 271.20 828.45 265.73 830.32 260.02 830.63 C 252.87 831.01 245.71 826.65 242.96 820.01 C 239.72 812.39 241.59 803.63 245.24 796.51 C 238.46 797.68 232.73 792.77 226.04 793.17 C 218.37 793.26 210.03 792.94 203.31 797.25 M 654.71 877.67 C 648.82 881.15 642.35 885.77 635.13 884.14 C 631.21 883.37 629.69 879.40 628.48 876.11 C 624.59 882.75 620.37 889.24 617.30 896.32 C 613.37 906.06 610.96 916.82 612.76 927.31 C 613.59 932.76 618.66 936.58 623.95 937.11 C 633.69 938.09 642.80 933.67 652.27 932.30 C 665.50 930.26 678.78 932.62 692.03 932.84 C 703.05 932.70 714.09 933.47 725.10 932.50 C 734.09 931.69 743.15 931.39 752.08 929.90 C 758.88 928.78 765.81 925.75 769.91 919.98 C 772.63 916.34 772.48 910.25 768.40 907.64 C 762.57 903.62 755.46 902.26 748.79 900.23 C 729.25 894.24 712.00 882.58 692.38 876.75 C 686.37 875.01 680.28 872.78 673.93 873.19 C 667.35 873.56 660.42 874.02 654.71 877.67 Z" />
        <path fill="#020202" opacity="1.00"
            d=" M 566.93 266.05 C 584.61 265.46 602.29 264.63 619.98 264.95 C 618.06 266.61 615.67 267.48 613.16 267.60 C 595.99 269.05 578.76 270.47 561.53 269.59 C 560.03 269.40 558.64 268.88 557.37 268.03 C 560.30 266.40 563.65 266.13 566.93 266.05 Z" />
        <path fill="#020202" opacity="1.00"
            d=" M 474.10 307.90 C 473.26 305.96 473.86 302.19 476.70 303.32 C 480.00 305.65 482.65 308.82 486.21 310.83 C 493.58 315.19 501.66 318.36 510.03 320.21 C 511.72 320.54 513.32 321.27 514.52 322.56 C 501.79 322.95 489.54 317.52 479.19 310.50 C 484.84 318.35 492.98 323.76 500.84 329.16 C 502.72 330.37 504.21 332.06 505.39 333.95 C 500.00 333.17 495.70 329.60 491.27 326.74 C 484.32 321.85 476.68 316.44 474.10 307.90 Z" />
        <path fill="#020202" opacity="1.00"
            d=" M 600.62 308.58 C 602.15 307.57 604.28 305.40 605.48 308.00 C 603.13 312.32 599.03 315.23 595.61 318.64 C 579.93 332.91 564.99 348.02 551.06 364.01 C 549.42 366.04 547.41 367.81 544.77 368.32 C 545.57 363.17 549.45 359.45 552.54 355.54 C 561.85 344.55 571.51 333.80 582.31 324.25 C 588.31 318.91 594.37 313.62 600.62 308.58 Z" />
        <path fill="#020202" opacity="1.00"
            d=" M 567.25 373.50 C 568.96 373.95 571.01 374.17 571.91 375.96 C 576.54 383.15 579.92 391.11 585.08 397.99 C 591.00 405.77 598.22 413.40 607.82 416.38 C 614.38 418.59 621.48 419.54 628.32 418.19 C 631.11 417.84 634.02 416.72 636.79 417.79 C 636.26 419.13 635.41 420.40 633.99 420.89 C 626.13 424.17 617.25 425.56 608.95 423.15 C 599.68 421.19 591.99 415.12 585.86 408.15 C 576.90 398.34 571.48 385.93 567.25 373.50 Z" />
        <path fill="#020202" opacity="1.00"
            d=" M 535.85 398.03 C 538.68 401.48 540.06 405.79 542.40 409.55 C 550.42 422.99 560.55 435.42 573.16 444.82 C 585.63 453.63 599.30 460.53 612.01 468.98 C 616.35 472.11 622.42 474.08 624.10 479.71 C 619.65 478.74 615.92 476.07 611.99 473.94 C 597.55 465.92 582.87 458.17 569.54 448.37 C 557.51 438.99 547.93 426.68 540.58 413.39 C 537.99 408.66 535.66 403.55 535.85 398.03 Z" />
        <path fill="#020202" opacity="1.00"
            d=" M 565.19 466.40 C 569.71 467.20 573.42 470.39 578.04 470.95 C 586.81 472.36 595.98 472.85 604.11 476.81 C 607.25 478.52 610.33 480.86 611.89 484.17 C 612.24 487.04 609.03 487.08 607.06 486.50 C 600.02 484.91 592.94 486.85 585.90 487.34 C 584.06 487.69 582.39 486.79 580.79 486.07 C 587.89 482.65 596.06 482.32 603.78 481.36 C 597.18 478.31 590.06 476.60 582.86 475.79 C 576.21 474.93 568.20 473.19 565.19 466.40 Z" />
        <path fill="#020202" opacity="1.00"
            d=" M 489.12 533.79 C 493.34 535.31 497.03 537.97 501.15 539.73 C 517.64 547.66 535.91 550.75 553.96 552.65 C 568.93 554.12 583.96 555.24 599.01 555.22 C 602.93 555.34 607.20 554.78 610.61 557.17 C 606.84 558.42 602.82 558.01 598.93 558.32 C 575.73 559.37 552.32 558.69 529.48 554.21 C 517.38 551.70 505.44 547.69 494.95 541.06 C 492.34 539.32 489.08 537.37 489.12 533.79 Z" />
        <path fill="#020202" opacity="1.00"
            d=" M 516.03 559.00 C 520.10 556.72 524.35 559.51 528.21 560.88 C 547.62 568.24 568.12 573.42 588.98 573.69 C 602.24 574.24 615.74 572.64 628.85 575.05 C 629.76 577.55 626.84 577.62 625.15 577.75 C 606.08 578.01 586.84 579.79 567.90 576.66 C 549.80 573.65 532.15 567.78 516.03 559.00 Z" />
    </g>
    <g id="#f0b58bff">
        <path fill="#f0b58b" opacity="1.00"
            d=" M 729.10 167.97 C 738.02 164.70 748.05 163.14 755.16 156.29 C 756.01 159.67 756.64 163.11 757.40 166.51 C 760.87 164.55 763.20 160.96 767.11 159.72 C 765.66 167.23 763.62 174.62 761.64 182.01 C 757.25 178.53 751.80 175.93 746.07 176.60 C 740.47 176.89 735.55 180.13 732.16 184.43 C 737.78 186.71 743.62 188.42 749.25 190.72 C 749.62 189.40 749.99 188.08 750.36 186.75 C 753.81 186.56 757.27 186.38 760.69 185.81 C 758.98 196.25 758.83 207.05 761.50 217.35 C 757.10 217.67 750.62 213.87 747.83 218.91 C 744.92 225.65 743.45 233.08 739.15 239.18 C 734.62 246.41 724.78 248.24 717.01 246.07 C 707.20 244.00 699.50 237.20 691.91 231.10 C 689.47 229.35 687.29 227.03 684.37 226.10 C 684.23 226.55 683.95 227.45 683.81 227.90 C 688.12 234.96 694.98 240.02 701.62 244.74 C 700.63 249.14 698.73 253.35 698.36 257.88 C 697.80 265.99 696.06 274.08 693.02 281.63 C 690.24 280.85 687.86 279.12 686.26 276.74 C 680.62 268.80 678.41 258.63 671.11 251.85 C 665.69 246.52 657.18 245.71 652.33 239.70 C 650.51 237.55 651.28 234.59 651.42 232.05 C 656.72 227.93 660.51 221.68 661.19 214.96 C 661.48 213.40 661.32 211.66 662.26 210.29 C 665.92 204.58 669.99 198.73 671.44 192.02 C 668.90 187.25 664.39 183.47 663.16 178.04 C 662.61 175.06 662.60 171.12 665.49 169.31 C 667.77 167.76 670.77 168.74 672.83 170.21 C 677.08 173.24 679.51 178.11 683.57 181.34 C 686.60 183.77 689.83 185.94 693.05 188.11 C 693.42 187.34 694.15 185.78 694.52 185.01 C 694.99 185.30 695.94 185.90 696.41 186.19 C 697.01 182.32 696.85 177.82 699.85 174.84 C 703.47 170.97 707.93 168.01 712.05 164.70 C 711.19 167.82 710.68 171.03 710.56 174.27 C 716.55 171.63 722.76 169.61 729.10 167.97 Z" />
        <path fill="#f0b58b" opacity="1.00"
            d=" M 442.38 321.09 C 447.19 321.72 452.02 323.02 455.88 326.11 C 465.85 333.54 475.02 342.03 485.22 349.17 C 485.63 359.07 485.30 368.98 485.79 378.88 C 486.38 396.64 489.78 414.21 489.66 432.01 C 489.84 438.69 490.10 445.37 490.50 452.05 C 491.03 459.11 491.18 466.52 488.22 473.12 C 485.70 478.75 483.37 484.52 480.13 489.79 C 478.51 489.37 476.88 489.04 475.32 488.46 C 475.43 483.02 479.00 478.31 480.06 473.03 C 480.38 471.67 480.04 470.51 479.05 469.54 C 477.77 469.95 476.65 470.75 476.10 472.01 C 473.92 476.10 472.40 480.50 470.62 484.77 C 469.05 484.32 466.98 484.36 466.30 482.57 C 463.31 476.92 466.68 470.68 467.91 465.02 C 466.80 462.73 464.39 465.06 463.52 466.40 C 461.33 469.96 459.60 474.04 455.57 475.93 C 454.50 474.07 453.74 472.06 453.16 470.01 C 455.55 466.78 457.95 463.48 459.51 459.76 C 460.59 457.79 457.85 455.77 456.26 457.28 C 452.76 460.90 451.41 466.32 446.86 468.98 C 445.89 467.45 444.30 465.92 445.02 463.94 C 446.44 457.53 449.50 451.59 450.87 445.15 C 452.05 440.69 450.96 435.96 452.37 431.54 C 458.69 413.17 457.15 393.18 453.36 374.46 C 450.34 362.36 446.69 350.42 443.91 338.26 C 442.79 332.61 442.33 326.84 442.38 321.09 Z" />
        <path fill="#f0b58b" opacity="1.00"
            d=" M 707.23 421.23 C 715.95 415.67 725.02 410.33 735.12 407.71 C 734.76 411.37 734.72 415.06 735.06 418.74 C 729.97 419.09 724.89 420.14 720.24 422.26 C 718.85 422.78 718.21 424.20 717.38 425.29 C 723.56 424.67 729.64 422.78 735.92 423.41 C 743.35 424.21 750.75 426.12 757.38 429.62 C 760.49 431.24 764.08 431.16 767.50 431.16 C 764.72 433.26 761.88 436.23 762.48 440.05 C 762.41 441.81 763.27 442.63 765.07 442.51 C 766.81 440.09 767.45 436.83 770.15 435.18 C 774.95 431.67 779.02 427.17 781.98 422.01 C 783.37 419.78 784.52 417.31 786.50 415.53 C 788.17 413.88 791.75 414.57 792.09 417.11 C 792.94 418.86 791.66 420.42 790.85 421.87 C 787.29 427.64 784.99 434.20 784.04 440.90 C 783.44 444.41 784.50 448.09 787.39 450.31 C 785.50 453.21 785.37 456.76 787.72 459.46 C 787.33 461.07 786.99 462.69 786.69 464.34 C 783.12 464.07 779.55 463.85 776.00 463.39 C 769.89 462.59 764.22 459.93 758.12 459.08 C 743.48 456.43 728.66 459.74 713.95 458.87 C 708.43 458.45 702.16 457.08 698.89 452.15 C 695.07 446.40 694.99 439.22 693.28 432.73 C 697.28 428.18 702.09 424.43 707.23 421.23 Z" />
        <path fill="#f0b58b" opacity="1.00"
            d=" M 801.20 418.12 C 804.74 415.10 810.26 415.55 813.92 418.10 C 817.36 420.84 816.77 425.70 817.82 429.54 C 818.53 433.11 823.38 434.19 823.59 437.99 C 823.71 442.73 819.23 445.47 817.07 449.16 C 817.30 452.41 822.06 452.77 822.55 455.98 C 823.15 458.76 820.60 460.73 819.64 463.09 C 820.21 464.21 820.90 465.28 821.70 466.28 C 817.36 470.81 810.46 469.69 804.91 468.74 C 799.82 467.52 793.81 466.69 790.59 462.06 C 796.73 460.42 803.24 462.17 809.31 460.25 C 810.81 459.72 813.97 457.97 811.22 456.76 C 804.54 456.36 797.84 457.41 791.18 456.60 C 791.13 454.80 790.69 452.70 792.27 451.39 C 796.86 446.93 801.32 442.34 805.48 437.46 C 806.45 436.33 806.89 434.88 807.49 433.54 C 805.91 433.78 804.14 433.70 802.96 434.94 C 798.33 438.81 794.11 443.13 789.62 447.16 C 787.35 443.43 789.08 439.12 790.23 435.33 C 792.51 428.91 795.37 422.11 801.20 418.12 Z" />
        <path fill="#f0b58b" opacity="1.00"
            d=" M 700.29 599.38 C 704.09 597.35 708.28 596.25 712.37 594.94 C 716.95 601.20 722.13 606.98 726.85 613.14 C 732.51 620.48 739.04 627.21 743.73 635.26 C 747.94 642.44 747.29 651.34 745.08 659.06 C 742.45 667.38 737.96 674.96 735.08 683.19 C 733.42 687.88 731.97 692.64 730.64 697.44 C 717.84 683.54 696.28 677.58 678.41 684.23 C 680.61 676.32 682.12 668.17 682.46 659.96 C 687.14 662.62 691.07 666.70 696.32 668.26 C 695.82 666.44 695.39 664.46 693.86 663.22 C 688.69 658.49 682.56 654.99 676.56 651.44 C 664.84 644.40 651.29 640.76 640.39 632.29 C 650.22 630.31 660.34 628.73 669.44 624.30 C 681.60 618.44 688.46 605.72 700.29 599.38 Z" />
        <path fill="#f0b58b" opacity="1.00"
            d=" M 370.43 700.88 C 383.56 692.56 396.41 682.46 403.42 668.21 C 409.65 672.69 416.09 677.14 423.38 679.72 C 432.93 682.63 443.03 683.84 452.99 683.01 C 459.45 682.45 465.89 681.59 472.32 680.66 C 460.90 693.17 455.08 709.95 442.26 721.33 C 430.83 733.10 412.43 731.72 399.92 741.78 C 389.12 738.18 380.63 729.71 374.83 720.14 C 371.48 714.39 368.75 707.61 370.43 700.88 Z" />
    </g>
    <g id="#f11b27ff">
        <path fill="var(--shirt-color, grey)" opacity="1.00"
            d=" M 584.99 245.32 C 602.49 232.33 625.39 230.59 646.44 231.41 C 645.76 235.28 645.12 239.73 647.90 242.99 C 653.29 250.64 664.27 250.70 669.82 258.12 C 676.48 266.42 678.12 278.36 687.16 284.78 C 690.67 287.69 696.55 286.80 698.38 282.42 C 701.95 273.99 702.41 264.67 702.88 255.64 C 707.34 260.98 712.08 266.17 717.75 270.28 C 720.64 272.62 724.40 274.66 725.34 278.56 C 727.48 287.60 724.87 296.88 725.77 306.02 C 726.43 313.28 729.91 319.89 730.99 327.07 C 731.90 332.35 731.42 337.72 730.92 343.02 C 730.23 350.31 730.43 357.72 732.00 364.89 C 733.34 371.06 736.32 376.68 738.42 382.59 C 740.65 388.57 741.80 394.86 743.05 401.10 C 731.36 402.50 720.56 407.50 710.58 413.51 C 704.44 417.25 698.19 421.00 693.09 426.13 C 689.69 429.52 687.06 433.57 684.27 437.45 C 683.04 428.18 680.95 419.06 679.44 409.85 C 678.89 405.31 678.27 400.44 680.03 396.09 C 682.58 391.49 686.32 387.66 690.24 384.20 C 695.78 379.27 703.57 377.21 708.06 371.06 C 710.72 367.16 712.26 362.56 713.17 357.96 C 713.25 356.59 713.73 353.03 711.40 354.51 C 709.46 358.52 708.40 362.98 705.67 366.58 C 702.65 371.03 697.64 373.36 693.17 376.04 C 698.00 365.15 700.76 353.13 699.98 341.19 C 696.88 344.30 697.19 349.00 696.03 352.96 C 694.11 362.69 690.27 371.92 685.55 380.60 C 683.75 383.71 680.92 386.02 678.76 388.85 C 670.89 399.11 665.06 410.93 661.69 423.41 C 659.85 431.27 664.72 438.84 663.34 446.65 C 660.69 453.07 654.20 457.15 652.14 463.92 C 649.69 471.52 652.96 479.29 655.48 486.41 C 658.81 495.03 660.28 504.36 659.29 513.58 C 644.75 515.57 630.08 512.67 616.07 508.91 C 592.08 503.60 567.29 505.53 543.00 507.09 C 530.57 507.43 517.68 507.66 505.85 503.26 C 497.71 500.32 492.62 492.94 486.64 487.14 C 490.51 478.80 495.55 470.48 495.42 460.96 C 495.36 452.24 494.53 443.54 494.52 434.82 C 499.97 427.52 506.08 420.53 509.97 412.22 C 512.05 420.41 515.56 428.15 519.42 435.63 C 523.87 443.86 528.55 452.16 535.17 458.88 C 536.54 460.37 538.59 461.59 540.46 460.10 C 540.48 458.58 539.85 457.21 539.02 456.00 C 531.20 444.86 523.89 433.29 518.08 420.96 C 515.80 415.83 513.71 410.51 512.93 404.92 C 512.75 401.26 513.99 397.71 514.17 394.06 C 514.88 386.69 513.63 379.31 514.00 371.94 C 514.18 365.32 520.88 362.11 523.98 356.97 C 528.33 350.93 526.82 343.02 524.86 336.39 C 530.19 335.26 535.65 334.60 541.10 335.07 C 545.65 335.33 550.10 336.83 554.71 336.43 C 552.50 332.69 547.96 331.91 544.10 330.96 C 534.07 328.94 522.81 329.28 514.04 335.10 C 507.55 339.36 503.56 346.37 501.24 353.61 C 491.82 347.58 482.80 340.92 474.21 333.75 C 467.69 328.62 461.56 322.87 454.28 318.83 C 447.58 315.08 439.08 316.74 432.70 312.31 C 430.27 310.87 431.32 307.71 431.80 305.49 C 434.40 297.44 440.41 290.79 447.67 286.60 C 465.89 275.63 486.16 268.41 506.80 263.56 C 527.54 258.25 548.80 255.24 570.11 253.42 C 583.34 251.95 596.71 251.25 609.75 248.45 C 612.81 247.94 611.01 244.44 608.66 244.46 C 600.79 243.66 592.87 244.98 584.99 245.32 M 566.93 266.05 C 563.65 266.13 560.30 266.40 557.37 268.03 C 558.64 268.88 560.03 269.40 561.53 269.59 C 578.76 270.47 595.99 269.05 613.16 267.60 C 615.67 267.48 618.06 266.61 619.98 264.95 C 602.29 264.63 584.61 265.46 566.93 266.05 M 474.10 307.90 C 476.68 316.44 484.32 321.85 491.27 326.74 C 495.70 329.60 500.00 333.17 505.39 333.95 C 504.21 332.06 502.72 330.37 500.84 329.16 C 492.98 323.76 484.84 318.35 479.19 310.50 C 489.54 317.52 501.79 322.95 514.52 322.56 C 513.32 321.27 511.72 320.54 510.03 320.21 C 501.66 318.36 493.58 315.19 486.21 310.83 C 482.65 308.82 480.00 305.65 476.70 303.32 C 473.86 302.19 473.26 305.96 474.10 307.90 M 600.62 308.58 C 594.37 313.62 588.31 318.91 582.31 324.25 C 571.51 333.80 561.85 344.55 552.54 355.54 C 549.45 359.45 545.57 363.17 544.77 368.32 C 547.41 367.81 549.42 366.04 551.06 364.01 C 564.99 348.02 579.93 332.91 595.61 318.64 C 599.03 315.23 603.13 312.32 605.48 308.00 C 604.28 305.40 602.15 307.57 600.62 308.58 M 567.25 373.50 C 571.48 385.93 576.90 398.34 585.86 408.15 C 591.99 415.12 599.68 421.19 608.95 423.15 C 617.25 425.56 626.13 424.17 633.99 420.89 C 635.41 420.40 636.26 419.13 636.79 417.79 C 634.02 416.72 631.11 417.84 628.32 418.19 C 621.48 419.54 614.38 418.59 607.82 416.38 C 598.22 413.40 591.00 405.77 585.08 397.99 C 579.92 391.11 576.54 383.15 571.91 375.96 C 571.01 374.17 568.96 373.95 567.25 373.50 M 535.85 398.03 C 535.66 403.55 537.99 408.66 540.58 413.39 C 547.93 426.68 557.51 438.99 569.54 448.37 C 582.87 458.17 597.55 465.92 611.99 473.94 C 615.92 476.07 619.65 478.74 624.10 479.71 C 622.42 474.08 616.35 472.11 612.01 468.98 C 599.30 460.53 585.63 453.63 573.16 444.82 C 560.55 435.42 550.42 422.99 542.40 409.55 C 540.06 405.79 538.68 401.48 535.85 398.03 M 565.19 466.40 C 568.20 473.19 576.21 474.93 582.86 475.79 C 590.06 476.60 597.18 478.31 603.78 481.36 C 596.06 482.32 587.89 482.65 580.79 486.07 C 582.39 486.79 584.06 487.69 585.90 487.34 C 592.94 486.85 600.02 484.91 607.06 486.50 C 609.03 487.08 612.24 487.04 611.89 484.17 C 610.33 480.86 607.25 478.52 604.11 476.81 C 595.98 472.85 586.81 472.36 578.04 470.95 C 573.42 470.39 569.71 467.20 565.19 466.40 Z" />
    </g>
    <g id="#ffffffff">
        <path fill="var(--pants-color, grey)" opacity="1.00"
            d=" M 480.86 493.86 C 482.63 493.37 483.75 491.77 485.05 490.59 C 487.95 495.01 491.01 499.41 494.90 503.05 C 501.45 508.97 510.30 511.44 518.86 512.59 C 538.54 515.38 558.28 511.59 577.99 511.31 C 588.09 511.20 598.24 511.34 608.24 512.91 C 615.99 514.11 623.44 516.68 631.19 517.88 C 639.35 519.18 647.67 519.93 655.94 519.37 C 658.03 519.31 659.87 518.26 661.68 517.30 C 667.26 519.63 671.22 524.45 674.78 529.15 C 682.20 539.91 689.09 551.35 699.21 559.86 C 705.12 564.92 712.36 568.80 716.52 575.61 C 718.18 578.23 718.88 581.29 719.62 584.27 C 713.82 590.28 704.77 590.05 697.72 593.81 C 683.85 600.30 676.78 616.14 661.86 620.87 C 644.85 626.35 626.87 629.19 608.98 628.56 C 597.68 628.49 585.93 628.73 575.61 633.95 C 572.54 625.31 568.00 617.00 561.44 610.53 C 554.92 603.90 546.07 600.17 539.87 593.18 C 534.12 587.78 531.25 579.97 525.03 575.01 C 519.46 570.54 512.59 568.23 506.45 564.71 C 499.59 561.18 493.72 556.06 488.49 550.47 C 487.30 549.36 486.07 547.41 484.22 548.39 C 484.26 551.88 486.77 554.56 488.93 557.04 C 492.66 560.96 496.66 564.66 500.96 567.95 C 506.10 571.83 512.13 574.18 517.76 577.23 C 522.48 579.73 525.83 584.06 528.53 588.56 C 531.24 593.07 534.77 597.01 538.61 600.59 C 525.46 602.81 512.60 606.98 499.19 607.47 C 503.55 604.10 508.78 602.26 513.57 599.63 C 508.95 597.94 504.30 600.40 500.18 602.30 C 497.85 603.69 494.68 604.99 494.19 608.00 C 494.36 610.81 497.42 611.95 499.84 611.89 C 507.23 611.97 514.49 610.21 521.71 608.88 C 528.87 607.17 536.14 606.00 543.33 604.44 C 545.40 605.81 547.50 607.16 549.63 608.46 C 540.63 610.65 532.09 614.33 523.28 617.14 C 505.37 622.94 487.86 629.84 470.17 636.23 C 466.75 637.54 462.94 638.45 460.51 641.42 C 467.82 641.54 474.77 638.94 481.68 636.90 C 497.27 631.79 512.68 626.13 528.34 621.19 C 536.94 618.02 545.87 615.56 554.11 611.53 C 557.73 614.40 560.93 617.77 563.86 621.34 C 560.16 623.42 557.57 626.92 555.50 630.53 C 551.67 637.37 549.61 644.98 547.10 652.36 C 544.55 659.90 540.83 666.99 536.77 673.82 C 534.16 678.14 531.12 682.48 526.51 684.86 C 518.50 679.94 509.39 676.89 500.02 676.06 C 493.02 675.54 485.99 675.18 478.97 675.41 C 471.59 675.45 464.37 677.19 457.04 677.83 C 447.38 678.99 437.63 677.69 428.20 675.57 C 422.04 674.26 416.63 670.85 411.40 667.50 C 406.33 664.06 401.39 660.38 397.10 655.98 C 403.07 650.27 408.35 643.80 412.89 636.89 C 418.64 627.27 425.13 618.02 429.52 607.65 C 433.34 598.87 435.26 589.34 439.85 580.88 C 446.08 568.77 456.12 558.85 460.73 545.88 C 463.94 537.56 463.17 528.46 465.00 519.86 C 467.34 510.69 470.92 501.86 475.11 493.39 C 477.01 493.60 478.93 494.08 480.86 493.86 M 489.12 533.79 C 489.08 537.37 492.34 539.32 494.95 541.06 C 505.44 547.69 517.38 551.70 529.48 554.21 C 552.32 558.69 575.73 559.37 598.93 558.32 C 602.82 558.01 606.84 558.42 610.61 557.17 C 607.20 554.78 602.93 555.34 599.01 555.22 C 583.96 555.24 568.93 554.12 553.96 552.65 C 535.91 550.75 517.64 547.66 501.15 539.73 C 497.03 537.97 493.34 535.31 489.12 533.79 M 516.03 559.00 C 532.15 567.78 549.80 573.65 567.90 576.66 C 586.84 579.79 606.08 578.01 625.15 577.75 C 626.84 577.62 629.76 577.55 628.85 575.05 C 615.74 572.64 602.24 574.24 588.98 573.69 C 568.12 573.42 547.62 568.24 528.21 560.88 C 524.35 559.51 520.10 556.72 516.03 559.00 Z" />
        <path fill="var(--socks-color, grey)" opacity="1.00"
            d=" M 679.36 690.46 C 687.14 686.97 696.06 687.22 704.24 689.03 C 713.76 691.11 722.51 696.13 729.36 703.04 C 726.94 716.98 726.21 731.16 723.41 745.05 C 719.74 763.94 715.85 782.90 709.08 800.97 C 704.16 815.33 697.66 829.07 692.55 843.35 C 689.90 851.76 687.30 860.18 684.71 868.61 C 676.89 866.97 668.80 867.84 661.02 869.28 C 653.56 870.77 648.16 876.75 641.01 878.94 C 638.86 879.55 635.47 880.10 634.45 877.49 C 633.04 873.80 634.26 869.78 634.60 866.01 C 635.74 855.78 638.56 845.81 639.13 835.51 C 641.72 815.58 642.59 795.41 646.83 775.72 C 649.85 762.25 653.15 748.81 657.89 735.83 C 662.58 721.48 669.53 708.03 675.06 694.01 C 675.60 692.02 677.71 691.31 679.36 690.46 Z" />
        <path fill="var(--socks-color, grey)" opacity="1.00"
            d=" M 331.39 722.45 C 342.87 716.20 354.96 711.07 365.80 703.68 C 365.15 713.70 370.52 722.86 376.56 730.42 C 381.86 736.72 388.31 742.38 396.20 745.13 C 383.40 759.02 370.01 772.43 355.65 784.72 C 337.33 799.20 316.67 812.13 293.29 816.15 C 281.56 818.39 271.25 826.78 258.90 825.71 C 250.16 825.12 244.49 815.03 247.14 807.04 C 250.14 797.91 254.66 789.25 260.87 781.88 C 268.88 772.28 277.27 762.97 286.17 754.19 C 299.35 741.18 315.14 731.17 331.39 722.45 Z" />
    </g>
    <g id="#4d4d4dff">
        <path fill="#4d4d4d" opacity="1.00"
            d=" M 203.31 797.25 C 210.03 792.94 218.37 793.26 226.04 793.17 C 232.73 792.77 238.46 797.68 245.24 796.51 C 241.59 803.63 239.72 812.39 242.96 820.01 C 245.71 826.65 252.87 831.01 260.02 830.63 C 265.73 830.32 271.20 828.45 276.67 826.96 C 267.16 836.81 260.07 848.72 250.76 858.77 C 245.28 864.64 237.97 868.67 233.42 875.43 C 224.26 888.31 219.92 903.75 212.68 917.68 C 208.23 927.31 201.50 937.18 190.98 940.67 C 187.74 935.02 185.60 928.86 183.15 922.85 C 178.28 911.22 175.05 897.85 179.52 885.57 C 183.27 873.96 194.27 866.27 197.19 854.29 C 200.48 839.42 193.79 824.50 196.30 809.59 C 197.14 804.88 199.01 799.84 203.31 797.25 Z" />
        <path fill="#4d4d4d" opacity="1.00"
            d=" M 654.71 877.67 C 660.42 874.02 667.35 873.56 673.93 873.19 C 680.28 872.78 686.37 875.01 692.38 876.75 C 712.00 882.58 729.25 894.24 748.79 900.23 C 755.46 902.26 762.57 903.62 768.40 907.64 C 772.48 910.25 772.63 916.34 769.91 919.98 C 765.81 925.75 758.88 928.78 752.08 929.90 C 743.15 931.39 734.09 931.69 725.10 932.50 C 714.09 933.47 703.05 932.70 692.03 932.84 C 678.78 932.62 665.50 930.26 652.27 932.30 C 642.80 933.67 633.69 938.09 623.95 937.11 C 618.66 936.58 613.59 932.76 612.76 927.31 C 610.96 916.82 613.37 906.06 617.30 896.32 C 620.37 889.24 624.59 882.75 628.48 876.11 C 629.69 879.40 631.21 883.37 635.13 884.14 C 642.35 885.77 648.82 881.15 654.71 877.67 Z" />
    </g>
</svg>