<?xml version="1.0" encoding="UTF-8" ?>
<!DOCTYPE svg PUBLIC "-//W3C//DTD SVG 1.1//EN" "http://www.w3.org/Graphics/SVG/1.1/DTD/svg11.dtd">
<svg width="1000pt" height="1000pt" viewBox="0 0 1000 1000" version="1.1" xmlns="http://www.w3.org/2000/svg">
    <g id="#020202ff">
        <path fill="#020202" opacity="1.00"
            d=" M 526.15 19.19 C 542.80 10.88 563.06 13.36 579.13 21.81 C 590.79 27.71 596.81 40.27 607.63 47.29 C 609.15 48.69 612.06 49.56 611.90 52.03 C 611.63 54.82 608.50 55.52 606.51 56.75 C 609.62 61.63 613.11 66.34 615.15 71.79 C 617.91 79.20 619.21 87.06 619.86 94.91 C 623.73 99.49 626.86 104.90 627.76 110.89 C 629.02 118.01 625.95 125.38 628.80 132.31 C 629.04 133.88 631.00 137.71 628.01 137.39 C 622.85 134.82 618.69 130.66 614.42 126.87 C 610.72 141.74 599.04 152.67 593.78 166.84 C 590.70 174.55 590.49 182.96 588.81 191.00 C 588.33 193.85 585.92 196.27 583.01 196.53 C 579.55 196.86 576.54 194.78 573.55 193.42 C 569.37 199.48 564.15 204.69 559.22 210.12 C 555.38 214.35 551.34 219.26 545.37 220.24 C 534.25 222.28 522.57 218.62 513.68 211.87 C 508.80 216.72 506.12 223.16 503.64 229.45 C 502.46 232.53 501.60 235.84 502.03 239.16 C 502.50 241.36 503.84 243.24 504.77 245.27 C 509.28 254.18 509.72 264.35 511.36 274.02 C 513.91 293.71 517.44 313.26 519.84 332.97 C 522.19 350.67 520.29 368.57 517.73 386.13 C 515.89 396.68 515.62 407.41 514.73 418.06 C 514.01 428.09 513.97 438.69 509.18 447.81 C 513.03 453.66 516.03 460.05 518.51 466.59 C 520.18 471.37 521.21 477.01 518.76 481.69 C 517.56 484.01 514.77 484.28 512.52 484.85 C 511.79 489.12 508.94 493.11 504.26 493.20 C 510.10 495.83 513.99 501.11 518.75 505.17 C 526.78 512.16 534.22 519.79 542.23 526.81 C 547.15 531.20 551.56 536.20 557.04 539.94 C 562.04 543.53 568.27 545.99 571.27 551.74 C 576.92 562.02 585.05 570.57 592.66 579.40 C 597.92 585.53 604.15 590.73 609.55 596.74 C 607.52 598.57 605.45 600.38 603.35 602.13 C 607.57 606.90 610.77 612.44 614.54 617.56 C 625.28 632.32 640.00 643.89 649.40 659.67 C 655.36 669.27 659.24 680.55 658.28 691.96 C 657.41 703.24 654.11 714.14 652.19 725.25 C 649.07 746.75 646.37 768.33 645.12 790.03 C 643.76 807.05 643.76 824.18 641.47 841.12 C 639.72 855.81 638.35 870.54 636.06 885.16 C 636.90 890.05 636.61 895.12 638.11 899.91 C 642.63 914.55 653.28 926.83 666.23 934.78 C 682.16 944.56 701.00 949.30 715.38 961.59 C 718.03 963.91 720.19 967.88 718.27 971.32 C 716.11 974.90 711.49 975.14 707.79 975.76 C 693.57 977.28 679.27 977.32 665.00 977.89 C 654.03 977.84 643.03 978.26 632.10 977.28 C 617.49 976.14 605.88 964.87 591.15 964.25 C 585.42 963.47 578.15 963.91 574.45 958.57 C 570.32 953.32 570.60 946.30 570.76 940.00 C 571.13 927.66 576.07 916.14 580.95 905.01 C 584.28 896.76 588.13 888.08 586.63 878.98 C 586.86 865.32 586.36 851.64 587.12 837.99 C 587.80 819.87 583.56 802.05 582.55 784.03 C 580.77 763.72 581.32 743.28 582.88 722.98 C 583.27 718.57 584.40 714.27 585.39 709.98 C 571.02 723.46 554.34 734.11 538.00 745.00 C 521.87 755.57 505.80 766.24 489.41 776.40 C 475.53 785.22 462.54 795.34 449.92 805.86 C 439.30 814.52 429.46 824.11 420.26 834.27 C 414.56 840.63 409.42 847.75 406.89 856.01 C 405.74 859.93 403.65 863.75 403.73 867.92 C 407.10 882.94 416.86 896.28 416.97 912.05 C 417.36 918.64 414.79 925.45 409.73 929.78 C 404.40 934.42 396.99 935.94 390.09 935.60 C 379.46 934.71 369.92 928.97 362.26 921.83 C 355.74 915.78 350.59 908.42 346.26 900.70 C 341.35 892.52 337.32 883.37 329.54 877.42 C 322.64 871.62 313.48 868.50 308.20 860.89 C 304.34 856.02 303.18 849.20 305.44 843.38 C 309.21 832.46 319.26 825.37 328.93 819.96 C 341.90 813.73 355.60 809.19 369.12 804.33 C 370.56 803.82 371.56 802.62 372.62 801.60 C 378.15 795.66 385.31 791.63 391.50 786.46 C 403.26 777.65 413.09 766.49 421.35 754.41 C 430.05 741.40 437.95 727.85 447.35 715.32 C 455.68 704.17 465.05 693.08 477.69 686.72 C 484.22 683.30 491.57 682.18 498.75 680.94 C 494.09 675.67 489.90 670.01 485.29 664.70 C 480.35 658.91 475.02 653.45 470.46 647.34 C 464.36 649.59 458.52 652.76 452.05 653.85 C 447.69 654.64 443.28 655.24 438.85 655.04 C 433.84 654.86 429.12 657.68 424.08 656.89 C 420.14 656.13 417.55 652.75 415.26 649.74 C 404.43 634.84 392.50 620.56 378.37 608.65 C 367.01 598.50 357.27 586.04 352.41 571.44 C 349.20 561.27 345.87 551.13 343.25 540.78 C 338.36 544.58 332.27 547.43 325.94 546.79 C 321.75 546.30 318.11 543.46 316.43 539.62 C 313.03 532.50 306.82 526.87 305.06 518.97 C 301.79 509.70 304.39 499.70 308.05 490.97 C 311.01 483.74 315.48 477.31 320.07 471.05 C 327.46 457.34 329.29 441.27 327.85 425.94 C 327.06 416.61 325.41 407.36 325.01 398.00 C 324.68 394.41 324.99 390.40 322.52 387.46 C 318.63 382.09 315.13 375.87 315.38 369.03 C 315.79 359.71 319.44 350.92 323.59 342.70 C 322.64 342.96 320.74 343.48 319.79 343.74 C 317.26 340.84 318.52 336.86 319.39 333.57 C 322.41 323.17 325.45 312.54 331.41 303.38 C 336.39 295.25 343.12 288.36 348.19 280.30 C 354.05 269.25 356.69 256.91 361.40 245.40 C 365.68 234.83 370.94 224.24 379.45 216.42 C 385.87 210.44 393.29 205.66 399.55 199.51 C 406.60 192.53 413.06 185.01 419.50 177.48 C 425.96 169.89 436.55 166.16 446.34 168.14 C 450.43 164.24 454.27 160.11 458.06 155.93 C 455.50 155.46 452.64 155.70 450.40 154.16 C 451.40 150.71 454.97 149.02 457.38 146.65 C 457.60 139.07 456.68 131.51 456.90 123.93 C 457.21 117.19 454.43 110.71 455.02 103.97 C 455.52 97.82 456.86 91.53 460.29 86.31 C 462.77 82.38 466.09 78.85 467.33 74.26 C 469.29 68.76 468.22 62.48 471.31 57.35 C 474.88 51.39 479.42 46.09 483.73 40.66 C 491.32 31.13 501.88 23.33 514.06 21.18 C 518.06 20.30 522.44 21.25 526.15 19.19 M 495.35 120.36 C 492.14 129.16 495.20 139.64 502.09 145.83 C 504.51 148.13 508.05 149.37 509.45 152.63 C 505.14 155.08 499.98 154.76 495.38 153.44 C 491.37 151.92 488.96 148.11 486.67 144.73 C 481.14 148.83 475.63 152.96 470.18 157.17 C 467.59 159.74 464.23 157.38 461.40 156.61 C 458.03 161.80 453.97 166.51 449.40 170.69 C 450.48 172.82 451.41 175.09 452.99 176.93 C 462.39 186.91 473.29 195.91 479.67 208.31 C 484.52 217.61 492.03 225.07 497.78 233.76 C 499.18 224.36 502.82 214.43 510.72 208.58 C 506.29 202.75 500.16 197.20 499.34 189.55 C 503.45 192.13 505.91 196.40 509.03 199.98 C 516.45 209.28 527.99 215.75 540.04 215.73 C 544.75 215.91 548.78 213.12 551.80 209.77 C 557.81 203.07 564.09 196.58 569.55 189.42 C 573.06 184.77 578.33 190.00 582.42 190.90 C 584.40 181.33 584.72 171.29 588.85 162.25 C 584.82 161.35 580.80 160.38 576.82 159.28 C 575.12 161.55 573.18 163.83 570.22 164.31 C 567.66 158.50 564.60 152.93 561.49 147.40 C 560.74 145.97 559.28 142.82 561.95 142.48 C 568.24 142.42 574.66 143.26 580.57 145.53 C 585.53 147.43 589.25 151.52 591.97 155.97 C 598.16 145.58 605.82 136.11 611.23 125.24 C 608.58 125.60 605.83 126.22 603.20 125.46 C 599.80 124.48 596.99 122.23 594.09 120.32 C 589.16 123.99 586.24 129.46 583.63 134.88 C 579.44 131.50 577.79 126.09 574.96 121.67 C 569.30 125.65 562.61 128.73 558.70 134.70 C 557.22 136.69 556.26 139.25 553.98 140.50 C 553.71 140.19 553.17 139.58 552.90 139.28 C 551.83 133.88 551.30 128.36 550.04 122.98 C 547.45 126.63 545.06 130.53 544.12 134.96 C 543.21 138.11 543.69 141.53 542.52 144.60 C 540.33 146.02 537.82 146.82 535.40 147.74 C 535.52 149.06 535.58 150.38 535.60 151.70 C 533.87 152.90 532.08 151.30 530.67 150.35 C 523.75 144.49 520.54 135.70 517.61 127.41 C 515.66 121.91 512.15 115.98 506.04 114.61 C 501.71 113.83 496.86 116.09 495.35 120.36 M 429.39 176.36 C 424.39 179.69 421.19 184.91 417.23 189.31 C 411.89 195.27 406.52 201.22 400.62 206.63 C 392.43 214.10 382.35 219.81 376.27 229.35 C 366.83 243.94 363.24 261.28 355.30 276.61 C 363.20 268.38 371.37 260.23 381.08 254.13 C 390.91 248.03 402.31 243.93 413.99 244.20 C 416.86 244.31 420.02 244.13 422.52 245.83 C 422.69 248.59 418.74 247.53 417.00 248.03 C 401.45 248.11 386.40 254.62 374.78 264.78 C 365.22 273.22 356.63 282.68 347.99 292.04 C 343.04 297.47 337.85 302.81 334.19 309.24 C 329.30 317.70 326.92 327.27 323.80 336.45 C 330.61 332.94 338.44 332.32 345.97 332.86 C 359.23 333.87 372.10 338.11 383.92 344.10 C 394.33 349.40 404.14 356.23 411.59 365.34 C 414.69 360.34 416.91 354.87 418.35 349.17 C 420.55 340.95 425.33 333.82 429.88 326.75 C 435.94 317.04 436.43 305.31 438.31 294.36 C 438.72 294.25 439.53 294.04 439.94 293.94 C 442.30 302.31 439.53 311.04 438.49 319.42 C 446.32 315.79 451.30 308.34 454.69 300.69 C 456.08 297.43 456.67 293.77 458.98 290.96 C 461.96 300.38 456.54 309.77 451.09 317.12 C 447.01 322.96 439.10 324.15 435.01 329.96 C 430.77 335.79 427.22 342.18 424.89 349.01 C 422.77 355.63 421.04 362.88 415.79 367.83 C 414.09 369.40 411.09 370.95 409.22 368.80 C 404.72 364.61 400.29 360.33 395.24 356.78 C 393.33 361.69 391.50 366.66 388.80 371.21 C 392.58 374.76 396.25 378.46 399.24 382.71 C 404.12 389.65 410.19 395.64 416.67 401.08 C 431.62 391.91 441.76 377.12 450.21 362.14 C 450.89 360.84 452.25 360.17 453.38 359.32 C 453.98 366.40 449.36 372.20 446.02 377.98 C 439.77 388.53 431.67 398.26 420.99 404.56 C 427.30 409.18 433.31 414.19 439.69 418.72 C 449.77 412.44 459.70 405.58 467.38 396.41 C 476.98 384.33 484.05 370.38 488.70 355.69 C 490.66 350.76 491.11 344.92 495.08 341.03 C 495.48 344.37 495.35 347.76 494.61 351.05 C 491.83 364.13 487.27 376.89 480.24 388.30 C 472.11 402.83 459.57 415.02 444.46 422.11 C 449.09 424.89 453.39 428.17 458.06 430.88 C 466.26 435.49 475.92 435.51 484.89 437.55 C 492.27 439.29 499.68 441.39 506.31 445.17 C 509.33 434.71 508.63 423.74 509.75 413.02 C 510.58 404.65 510.68 396.22 511.98 387.90 C 513.55 378.32 514.50 368.64 515.19 358.95 C 516.72 339.09 512.37 319.48 509.74 299.90 C 507.64 285.94 506.16 271.87 503.71 257.96 C 500.98 243.72 490.49 232.98 482.39 221.55 C 476.83 214.01 473.27 205.11 466.89 198.16 C 461.46 192.23 455.34 186.98 449.74 181.22 C 447.30 178.78 446.02 175.52 444.76 172.38 C 439.25 170.62 433.91 173.44 429.39 176.36 M 328.67 339.72 C 325.87 350.39 319.71 360.69 321.10 372.06 C 324.38 383.85 334.14 392.46 343.94 399.10 C 362.29 410.32 381.79 419.55 400.03 430.97 C 414.44 440.36 429.87 449.02 441.20 462.23 C 441.40 466.86 442.09 471.96 445.79 475.21 C 450.71 479.41 456.90 481.79 462.90 484.02 C 466.71 485.41 471.73 486.35 473.11 490.80 C 474.67 495.12 477.67 499.16 482.05 500.89 C 484.65 502.05 487.39 500.86 489.93 500.13 C 488.94 493.97 486.04 488.40 483.16 482.96 C 482.30 481.24 480.80 478.03 484.03 478.18 C 489.43 482.49 492.68 488.95 494.47 495.52 C 496.15 495.11 497.81 494.64 499.47 494.15 C 497.08 488.11 492.00 482.83 492.54 475.94 C 492.54 474.64 493.17 471.37 495.12 472.76 C 497.67 478.66 500.14 484.66 503.88 489.95 C 505.33 488.63 507.46 487.25 507.06 484.96 C 505.96 479.99 502.39 475.98 501.16 471.03 C 500.53 469.00 499.40 465.10 502.71 465.29 C 506.56 470.04 509.20 475.62 512.01 481.02 C 512.97 480.12 514.78 479.69 514.75 478.09 C 515.33 472.27 512.32 466.99 510.27 461.76 C 508.04 457.25 506.54 451.78 501.96 449.04 C 497.55 446.37 492.46 445.16 487.56 443.74 C 479.44 441.39 470.79 441.28 462.82 438.38 C 452.52 433.87 443.40 427.18 434.20 420.82 C 420.59 410.65 406.11 400.93 396.05 386.95 C 392.06 381.04 386.82 376.17 381.80 371.16 C 379.67 368.99 376.97 366.91 376.85 363.58 C 379.95 364.38 382.54 366.30 385.06 368.18 C 386.53 363.24 389.02 358.71 391.62 354.30 C 386.16 350.94 380.53 347.85 374.59 345.44 C 360.19 339.71 344.03 335.51 328.67 339.72 M 330.00 395.85 C 330.98 411.22 334.65 426.50 333.12 441.97 C 332.58 448.90 330.85 455.69 328.43 462.20 C 334.30 456.10 340.58 450.36 347.55 445.54 C 350.98 443.22 354.25 440.25 358.54 439.73 C 356.97 443.21 354.01 445.69 351.04 447.95 C 341.21 455.38 332.58 464.26 324.45 473.49 C 315.98 483.83 308.95 496.39 308.69 510.07 C 309.50 518.67 313.62 526.54 318.38 533.60 C 320.53 536.37 320.74 541.46 324.93 541.96 C 332.79 543.08 338.84 536.94 343.85 531.81 C 356.94 517.99 372.64 507.10 388.09 496.13 C 396.51 489.99 407.06 488.59 416.49 484.66 C 419.91 483.44 423.45 481.41 427.19 482.57 C 420.12 488.72 410.84 491.29 402.19 494.41 C 390.69 498.55 381.91 507.40 371.97 514.15 C 377.45 515.28 382.67 517.41 388.15 518.53 C 396.43 520.39 404.90 517.82 412.42 514.41 C 426.71 507.59 440.67 499.93 455.69 494.77 C 460.04 493.20 464.72 493.29 469.28 493.02 C 467.42 491.33 465.22 490.07 462.81 489.37 C 455.65 487.14 448.84 483.68 442.95 479.05 C 438.41 475.34 435.96 469.39 437.05 463.56 C 428.80 456.87 420.58 450.10 411.56 444.46 C 394.98 434.02 377.53 425.08 360.30 415.79 C 349.69 409.97 338.79 404.31 330.00 395.85 M 503.75 495.94 C 501.26 498.55 497.80 500.04 494.19 499.23 C 491.93 503.59 486.88 506.23 482.02 505.30 C 477.13 504.41 473.47 500.74 470.42 497.09 C 466.40 497.16 462.12 496.40 458.51 498.65 C 444.27 504.21 430.69 511.23 417.05 518.09 C 406.88 523.21 395.07 526.70 383.77 523.33 C 384.98 535.27 384.06 547.37 385.95 559.25 C 386.67 564.50 389.50 569.03 391.34 573.91 C 386.84 574.76 384.79 570.01 383.24 566.70 C 376.97 552.68 380.28 537.01 380.34 522.23 C 375.35 520.87 369.20 517.53 364.53 521.35 C 357.90 526.32 352.49 532.67 346.25 538.08 C 351.01 549.24 354.58 560.86 358.93 572.18 C 364.67 586.51 375.19 598.31 386.76 608.26 C 398.99 619.78 409.82 632.74 419.57 646.40 C 421.18 648.38 422.61 650.87 425.15 651.74 C 428.51 651.76 431.78 650.81 435.05 650.17 C 432.39 640.02 429.32 629.99 426.05 620.02 C 422.36 609.94 418.47 599.93 415.24 589.69 C 413.27 583.29 410.49 577.11 409.39 570.48 C 411.37 571.93 413.00 573.82 414.01 576.08 C 417.51 583.22 420.12 590.76 422.92 598.20 C 429.86 615.52 436.69 633.02 440.51 651.35 C 447.61 650.47 454.86 649.54 461.41 646.46 C 474.80 640.54 489.23 637.66 503.50 634.78 C 526.91 630.29 550.47 626.41 574.22 624.28 C 572.16 617.01 571.84 608.94 567.48 602.55 C 555.32 587.43 542.88 572.52 529.52 558.43 C 525.12 553.84 521.03 548.97 516.75 544.27 C 510.75 537.47 501.93 533.43 492.95 532.68 C 474.32 531.10 456.24 536.89 437.97 539.43 C 434.68 539.79 430.87 540.65 428.25 538.02 C 433.94 534.73 440.81 534.69 447.03 532.86 C 464.16 528.32 482.38 524.76 499.96 528.89 C 491.64 522.94 482.62 517.04 472.13 516.15 C 465.91 515.00 459.60 516.73 453.41 515.58 C 458.44 511.93 465.10 512.14 471.04 512.15 C 483.85 512.31 495.36 519.01 505.27 526.56 C 505.38 522.87 504.75 518.85 506.31 515.40 C 507.14 513.63 509.21 514.93 509.28 516.42 C 509.98 520.87 509.92 525.42 509.61 529.91 C 518.60 537.41 526.10 546.43 534.06 554.96 C 547.54 569.23 560.28 584.18 572.30 599.69 C 574.75 603.26 575.93 607.49 576.86 611.67 C 585.46 606.70 594.93 603.33 603.03 597.52 C 591.69 587.28 581.60 575.76 572.27 563.68 C 569.47 560.01 567.62 555.73 564.85 552.05 C 562.46 549.33 559.02 547.89 556.12 545.83 C 551.10 542.67 546.60 538.79 542.41 534.61 C 529.04 522.23 515.51 509.91 503.75 495.94 M 578.03 616.45 C 578.70 621.02 579.64 627.27 574.27 629.40 C 585.04 647.07 593.03 667.13 593.17 688.07 C 592.58 696.82 591.74 705.60 589.73 714.16 C 595.34 711.51 601.36 709.81 607.49 708.86 C 621.58 706.83 636.61 707.29 649.67 713.50 C 651.14 705.69 653.46 697.97 653.64 689.96 C 654.02 679.99 650.32 670.30 645.08 661.97 C 635.87 646.61 621.51 635.37 611.05 620.97 C 607.27 615.63 603.50 610.26 600.14 604.65 C 592.82 608.68 585.46 612.65 578.03 616.45 M 473.82 646.21 C 484.32 656.84 494.30 667.94 503.72 679.53 C 509.28 677.49 514.64 674.93 519.57 671.66 C 521.44 670.62 523.42 668.75 525.73 669.72 C 522.79 676.37 515.54 679.43 509.54 682.74 C 517.47 686.11 524.33 691.55 530.18 697.81 C 538.81 707.18 546.10 718.60 547.70 731.48 C 557.33 724.53 567.27 717.99 576.35 710.34 C 580.21 707.17 584.33 703.90 586.37 699.21 C 587.80 695.33 587.54 691.10 587.77 687.04 C 587.29 671.76 581.94 657.17 575.58 643.44 C 573.29 638.67 570.56 634.11 568.64 629.17 C 536.72 632.77 504.78 637.53 473.82 646.21 M 483.35 690.46 C 475.58 693.71 469.13 699.36 463.41 705.43 C 453.21 716.50 445.11 729.26 436.58 741.61 C 426.97 756.59 416.59 771.28 403.41 783.35 C 396.26 789.67 388.49 795.21 380.76 800.76 C 374.13 805.58 369.28 812.90 367.99 821.04 C 367.61 823.48 367.78 826.53 370.43 827.63 C 378.98 831.97 388.92 826.42 397.67 830.22 C 403.02 831.63 406.92 835.97 408.79 841.06 C 421.16 823.91 437.14 809.74 453.33 796.30 C 467.28 784.73 481.87 773.92 497.41 764.59 C 513.18 754.41 528.89 744.14 544.39 733.55 C 543.28 726.15 540.03 719.25 535.82 713.11 C 529.46 703.73 521.47 695.21 511.67 689.38 C 507.83 687.35 503.44 685.04 498.99 686.33 C 493.75 687.57 488.34 688.32 483.35 690.46 M 588.42 720.33 C 586.16 746.22 585.90 772.38 589.44 798.16 C 590.61 806.38 591.44 814.64 592.39 822.89 C 593.40 831.56 592.41 840.28 592.29 848.98 C 591.96 857.99 592.58 867.00 592.05 876.01 C 591.48 883.39 593.64 890.62 593.52 898.00 C 596.20 900.58 599.96 903.45 603.87 901.81 C 608.70 899.18 611.78 894.33 616.35 891.33 C 620.02 888.61 624.47 887.34 628.92 886.64 C 631.59 886.35 631.75 883.13 632.07 881.07 C 633.71 865.78 635.07 850.45 637.05 835.19 C 638.82 818.16 638.92 801.03 640.30 783.97 C 641.72 761.79 644.56 739.69 648.62 717.85 C 643.17 715.90 637.54 714.45 631.79 713.79 C 617.15 712.06 601.53 713.01 588.42 720.33 M 320.30 832.33 C 314.59 836.95 309.18 843.32 308.95 851.02 C 309.69 857.29 314.82 861.93 319.97 865.02 C 324.84 867.85 329.40 871.36 334.78 873.22 C 346.84 877.49 359.53 879.79 371.41 884.60 C 383.91 889.74 396.49 896.24 405.22 906.86 C 408.55 910.71 410.06 915.65 411.11 920.54 C 412.72 914.71 412.71 908.56 411.15 902.73 C 408.10 891.20 401.76 880.73 399.46 868.99 C 398.05 860.73 403.81 853.76 404.77 845.86 C 405.35 841.44 402.12 837.40 398.07 836.00 C 391.73 833.08 384.67 834.61 377.97 834.54 C 372.57 834.41 366.36 832.36 363.81 827.22 C 362.00 821.19 364.28 814.95 366.84 809.52 C 351.43 817.32 333.82 821.08 320.30 832.33 M 341.47 882.06 C 346.62 889.62 350.54 897.93 355.56 905.57 C 362.34 915.65 371.53 924.64 383.08 928.95 C 389.95 931.62 398.29 931.53 404.59 927.48 C 406.32 925.23 405.96 921.97 405.45 919.35 C 403.58 912.77 398.05 908.18 392.91 904.09 C 377.76 892.77 359.30 887.51 341.47 882.06 M 618.04 898.16 C 613.34 901.82 609.24 907.17 602.99 908.04 C 596.74 908.66 591.41 904.23 588.43 899.13 C 585.71 908.19 581.60 916.75 578.88 925.82 C 576.48 933.47 575.76 941.64 576.62 949.61 C 576.99 952.95 578.67 956.67 582.11 957.77 C 587.87 959.24 593.94 958.78 599.69 960.33 C 609.96 962.84 618.77 969.39 629.17 971.50 C 636.05 972.56 643.05 972.14 649.99 972.39 C 660.67 972.81 671.32 971.92 681.98 971.55 C 692.65 970.95 703.58 971.38 713.97 968.50 C 706.08 959.06 694.13 954.81 683.33 949.71 C 672.37 944.39 660.79 939.65 651.74 931.25 C 640.50 921.02 632.04 906.67 631.96 891.16 C 627.03 892.83 621.99 894.62 618.04 898.16 Z" />
        <path fill="#020202" opacity="1.00"
            d=" M 378.92 278.83 C 387.20 274.45 396.64 272.32 405.99 272.48 C 408.53 272.34 410.70 273.73 412.65 275.19 C 408.65 276.97 404.21 276.73 399.99 277.53 C 390.20 279.15 381.33 283.92 372.82 288.80 C 366.44 292.35 362.22 298.91 355.32 301.62 C 355.77 299.76 356.13 297.81 357.29 296.23 C 362.60 288.44 370.59 282.99 378.92 278.83 Z" />
    </g>
    <g id="#f0b58bff">
        <path fill="#f0b58b" opacity="1.00"
            d=" M 495.35 120.36 C 496.86 116.09 501.71 113.83 506.04 114.61 C 512.15 115.98 515.66 121.91 517.61 127.41 C 520.54 135.70 523.75 144.49 530.67 150.35 C 532.08 151.30 533.87 152.90 535.60 151.70 C 535.58 150.38 535.52 149.06 535.40 147.74 C 537.82 146.82 540.33 146.02 542.52 144.60 C 543.69 141.53 543.21 138.11 544.12 134.96 C 545.06 130.53 547.45 126.63 550.04 122.98 C 551.30 128.36 551.83 133.88 552.90 139.28 C 553.17 139.58 553.71 140.19 553.98 140.50 C 556.26 139.25 557.22 136.69 558.70 134.70 C 562.61 128.73 569.30 125.65 574.96 121.67 C 577.79 126.09 579.44 131.50 583.63 134.88 C 586.24 129.46 589.16 123.99 594.09 120.32 C 596.99 122.23 599.80 124.48 603.20 125.46 C 605.83 126.22 608.58 125.60 611.23 125.24 C 605.82 136.11 598.16 145.58 591.97 155.97 C 589.25 151.52 585.53 147.43 580.57 145.53 C 574.66 143.26 568.24 142.42 561.95 142.48 C 559.28 142.82 560.74 145.97 561.49 147.40 C 564.60 152.93 567.66 158.50 570.22 164.31 C 573.18 163.83 575.12 161.55 576.82 159.28 C 580.80 160.38 584.82 161.35 588.85 162.25 C 584.72 171.29 584.40 181.33 582.42 190.90 C 578.33 190.00 573.06 184.77 569.55 189.42 C 564.09 196.58 557.81 203.07 551.80 209.77 C 548.78 213.12 544.75 215.91 540.04 215.73 C 527.99 215.75 516.45 209.28 509.03 199.98 C 505.91 196.40 503.45 192.13 499.34 189.55 C 500.16 197.20 506.29 202.75 510.72 208.58 C 502.82 214.43 499.18 224.36 497.78 233.76 C 492.03 225.07 484.52 217.61 479.67 208.31 C 473.29 195.91 462.39 186.91 452.99 176.93 C 451.41 175.09 450.48 172.82 449.40 170.69 C 453.97 166.51 458.03 161.80 461.40 156.61 C 464.23 157.38 467.59 159.74 470.18 157.17 C 475.63 152.96 481.14 148.83 486.67 144.73 C 488.96 148.11 491.37 151.92 495.38 153.44 C 499.98 154.76 505.14 155.08 509.45 152.63 C 508.05 149.37 504.51 148.13 502.09 145.83 C 495.20 139.64 492.14 129.16 495.35 120.36 Z" />
        <path fill="#f0b58b" opacity="1.00"
            d=" M 328.67 339.72 C 344.03 335.51 360.19 339.71 374.59 345.44 C 380.53 347.85 386.16 350.94 391.62 354.30 C 389.02 358.71 386.53 363.24 385.06 368.18 C 382.54 366.30 379.95 364.38 376.85 363.58 C 376.97 366.91 379.67 368.99 381.80 371.16 C 386.82 376.17 392.06 381.04 396.05 386.95 C 406.11 400.93 420.59 410.65 434.20 420.82 C 443.40 427.18 452.52 433.87 462.82 438.38 C 470.79 441.28 479.44 441.39 487.56 443.74 C 492.46 445.16 497.55 446.37 501.96 449.04 C 506.54 451.78 508.04 457.25 510.27 461.76 C 512.32 466.99 515.33 472.27 514.75 478.09 C 514.78 479.69 512.97 480.12 512.01 481.02 C 509.20 475.62 506.56 470.04 502.71 465.29 C 499.40 465.10 500.53 469.00 501.16 471.03 C 502.39 475.98 505.96 479.99 507.06 484.96 C 507.46 487.25 505.33 488.63 503.88 489.95 C 500.14 484.66 497.67 478.66 495.12 472.76 C 493.17 471.37 492.54 474.64 492.54 475.94 C 492.00 482.83 497.08 488.11 499.47 494.15 C 497.81 494.64 496.15 495.11 494.47 495.52 C 492.68 488.95 489.43 482.49 484.03 478.18 C 480.80 478.03 482.30 481.24 483.16 482.96 C 486.04 488.40 488.94 493.97 489.93 500.13 C 487.39 500.86 484.65 502.05 482.05 500.89 C 477.67 499.16 474.67 495.12 473.11 490.80 C 471.73 486.35 466.71 485.41 462.90 484.02 C 456.90 481.79 450.71 479.41 445.79 475.21 C 442.09 471.96 441.40 466.86 441.20 462.23 C 429.87 449.02 414.44 440.36 400.03 430.97 C 381.79 419.55 362.29 410.32 343.94 399.10 C 334.14 392.46 324.38 383.85 321.10 372.06 C 319.71 360.69 325.87 350.39 328.67 339.72 Z" />
        <path fill="#f0b58b" opacity="1.00"
            d=" M 578.03 616.45 C 585.46 612.65 592.82 608.68 600.14 604.65 C 603.50 610.26 607.27 615.63 611.05 620.97 C 621.51 635.37 635.87 646.61 645.08 661.97 C 650.32 670.30 654.02 679.99 653.64 689.96 C 653.46 697.97 651.14 705.69 649.67 713.50 C 636.61 707.29 621.58 706.83 607.49 708.86 C 601.36 709.81 595.34 711.51 589.73 714.16 C 591.74 705.60 592.58 696.82 593.17 688.07 C 593.03 667.13 585.04 647.07 574.27 629.40 C 579.64 627.27 578.70 621.02 578.03 616.45 Z" />
        <path fill="#f0b58b" opacity="1.00"
            d=" M 473.82 646.21 C 504.78 637.53 536.72 632.77 568.64 629.17 C 570.56 634.11 573.29 638.67 575.58 643.44 C 581.94 657.17 587.29 671.76 587.77 687.04 C 587.54 691.10 587.80 695.33 586.37 699.21 C 584.33 703.90 580.21 707.17 576.35 710.34 C 567.27 717.99 557.33 724.53 547.70 731.48 C 546.10 718.60 538.81 707.18 530.18 697.81 C 524.33 691.55 517.47 686.11 509.54 682.74 C 515.54 679.43 522.79 676.37 525.73 669.72 C 523.42 668.75 521.44 670.62 519.57 671.66 C 514.64 674.93 509.28 677.49 503.72 679.53 C 494.30 667.94 484.32 656.84 473.82 646.21 Z" />
    </g>
    <g id="#f11b27ff">
        <path fill="var(--shirt-color, grey)" opacity="1.00"
            d=" M 429.39 176.36 C 433.91 173.44 439.25 170.62 444.76 172.38 C 446.02 175.52 447.30 178.78 449.74 181.22 C 455.34 186.98 461.46 192.23 466.89 198.16 C 473.27 205.11 476.83 214.01 482.39 221.55 C 490.49 232.98 500.98 243.72 503.71 257.96 C 506.16 271.87 507.64 285.94 509.74 299.90 C 512.37 319.48 516.72 339.09 515.19 358.95 C 514.50 368.64 513.55 378.32 511.98 387.90 C 510.68 396.22 510.58 404.65 509.75 413.02 C 508.63 423.74 509.33 434.71 506.31 445.17 C 499.68 441.39 492.27 439.29 484.89 437.55 C 475.92 435.51 466.26 435.49 458.06 430.88 C 453.39 428.17 449.09 424.89 444.46 422.11 C 459.57 415.02 472.11 402.83 480.24 388.30 C 487.27 376.89 491.83 364.13 494.61 351.05 C 495.35 347.76 495.48 344.37 495.08 341.03 C 491.11 344.92 490.66 350.76 488.70 355.69 C 484.05 370.38 476.98 384.33 467.38 396.41 C 459.70 405.58 449.77 412.44 439.69 418.72 C 433.31 414.19 427.30 409.18 420.99 404.56 C 431.67 398.26 439.77 388.53 446.02 377.98 C 449.36 372.20 453.98 366.40 453.38 359.32 C 452.25 360.17 450.89 360.84 450.21 362.14 C 441.76 377.12 431.62 391.91 416.67 401.08 C 410.19 395.64 404.12 389.65 399.24 382.71 C 396.25 378.46 392.58 374.76 388.80 371.21 C 391.50 366.66 393.33 361.69 395.24 356.78 C 400.29 360.33 404.72 364.61 409.22 368.80 C 411.09 370.95 414.09 369.40 415.79 367.83 C 421.04 362.88 422.77 355.63 424.89 349.01 C 427.22 342.18 430.77 335.79 435.01 329.96 C 439.10 324.15 447.01 322.96 451.09 317.12 C 456.54 309.77 461.96 300.38 458.98 290.96 C 456.67 293.77 456.08 297.43 454.69 300.69 C 451.30 308.34 446.32 315.79 438.49 319.42 C 439.53 311.04 442.30 302.31 439.94 293.94 C 439.53 294.04 438.72 294.25 438.31 294.36 C 436.43 305.31 435.94 317.04 429.88 326.75 C 425.33 333.82 420.55 340.95 418.35 349.17 C 416.91 354.87 414.69 360.34 411.59 365.34 C 404.14 356.23 394.33 349.40 383.92 344.10 C 372.10 338.11 359.23 333.87 345.97 332.86 C 338.44 332.32 330.61 332.94 323.80 336.45 C 326.92 327.27 329.30 317.70 334.19 309.24 C 337.85 302.81 343.04 297.47 347.99 292.04 C 356.63 282.68 365.22 273.22 374.78 264.78 C 386.40 254.62 401.45 248.11 417.00 248.03 C 418.74 247.53 422.69 248.59 422.52 245.83 C 420.02 244.13 416.86 244.31 413.99 244.20 C 402.31 243.93 390.91 248.03 381.08 254.13 C 371.37 260.23 363.20 268.38 355.30 276.61 C 363.24 261.28 366.83 243.94 376.27 229.35 C 382.35 219.81 392.43 214.10 400.62 206.63 C 406.52 201.22 411.89 195.27 417.23 189.31 C 421.19 184.91 424.39 179.69 429.39 176.36 M 378.92 278.83 C 370.59 282.99 362.60 288.44 357.29 296.23 C 356.13 297.81 355.77 299.76 355.32 301.62 C 362.22 298.91 366.44 292.35 372.82 288.80 C 381.33 283.92 390.20 279.15 399.99 277.53 C 404.21 276.73 408.65 276.97 412.65 275.19 C 410.70 273.73 408.53 272.34 405.99 272.48 C 396.64 272.32 387.20 274.45 378.92 278.83 Z" />
        <path fill="var(--shirt-color, grey)" opacity="1.00"
            d=" M 330.00 395.85 C 338.79 404.31 349.69 409.97 360.30 415.79 C 377.53 425.08 394.98 434.02 411.56 444.46 C 420.58 450.10 428.80 456.87 437.05 463.56 C 435.96 469.39 438.41 475.34 442.95 479.05 C 448.84 483.68 455.65 487.14 462.81 489.37 C 465.22 490.07 467.42 491.33 469.28 493.02 C 464.72 493.29 460.04 493.20 455.69 494.77 C 440.67 499.93 426.71 507.59 412.42 514.41 C 404.90 517.82 396.43 520.39 388.15 518.53 C 382.67 517.41 377.45 515.28 371.97 514.15 C 381.91 507.40 390.69 498.55 402.19 494.41 C 410.84 491.29 420.12 488.72 427.19 482.57 C 423.45 481.41 419.91 483.44 416.49 484.66 C 407.06 488.59 396.51 489.99 388.09 496.13 C 372.64 507.10 356.94 517.99 343.85 531.81 C 338.84 536.94 332.79 543.08 324.93 541.96 C 320.74 541.46 320.53 536.37 318.38 533.60 C 313.62 526.54 309.50 518.67 308.69 510.07 C 308.95 496.39 315.98 483.83 324.45 473.49 C 332.58 464.26 341.21 455.38 351.04 447.95 C 354.01 445.69 356.97 443.21 358.54 439.73 C 354.25 440.25 350.98 443.22 347.55 445.54 C 340.58 450.36 334.30 456.10 328.43 462.20 C 330.85 455.69 332.58 448.90 333.12 441.97 C 334.65 426.50 330.98 411.22 330.00 395.85 Z" />
    </g>
    <g id="#ffffffff">
        <path fill="var(--pants-color, grey)" opacity="1.00"
            d=" M 503.75 495.94 C 515.51 509.91 529.04 522.23 542.41 534.61 C 546.60 538.79 551.10 542.67 556.12 545.83 C 559.02 547.89 562.46 549.33 564.85 552.05 C 567.62 555.73 569.47 560.01 572.27 563.68 C 581.60 575.76 591.69 587.28 603.03 597.52 C 594.93 603.33 585.46 606.70 576.86 611.67 C 575.93 607.49 574.75 603.26 572.30 599.69 C 560.28 584.18 547.54 569.23 534.06 554.96 C 526.10 546.43 518.60 537.41 509.61 529.91 C 509.92 525.42 509.98 520.87 509.28 516.42 C 509.21 514.93 507.14 513.63 506.31 515.40 C 504.75 518.85 505.38 522.87 505.27 526.56 C 495.36 519.01 483.85 512.31 471.04 512.15 C 465.10 512.14 458.44 511.93 453.41 515.58 C 459.60 516.73 465.91 515.00 472.13 516.15 C 482.62 517.04 491.64 522.94 499.96 528.89 C 482.38 524.76 464.16 528.32 447.03 532.86 C 440.81 534.69 433.94 534.73 428.25 538.02 C 430.87 540.65 434.68 539.79 437.97 539.43 C 456.24 536.89 474.32 531.10 492.95 532.68 C 501.93 533.43 510.75 537.47 516.75 544.27 C 521.03 548.97 525.12 553.84 529.52 558.43 C 542.88 572.52 555.32 587.43 567.48 602.55 C 571.84 608.94 572.16 617.01 574.22 624.28 C 550.47 626.41 526.91 630.29 503.50 634.78 C 489.23 637.66 474.80 640.54 461.41 646.46 C 454.86 649.54 447.61 650.47 440.51 651.35 C 436.69 633.02 429.86 615.52 422.92 598.20 C 420.12 590.76 417.51 583.22 414.01 576.08 C 413.00 573.82 411.37 571.93 409.39 570.48 C 410.49 577.11 413.27 583.29 415.24 589.69 C 418.47 599.93 422.36 609.94 426.05 620.02 C 429.32 629.99 432.39 640.02 435.05 650.17 C 431.78 650.81 428.51 651.76 425.15 651.74 C 422.61 650.87 421.18 648.38 419.57 646.40 C 409.82 632.74 398.99 619.78 386.76 608.26 C 375.19 598.31 364.67 586.51 358.93 572.18 C 354.58 560.86 351.01 549.24 346.25 538.08 C 352.49 532.67 357.90 526.32 364.53 521.35 C 369.20 517.53 375.35 520.87 380.34 522.23 C 380.28 537.01 376.97 552.68 383.24 566.70 C 384.79 570.01 386.84 574.76 391.34 573.91 C 389.50 569.03 386.67 564.50 385.95 559.25 C 384.06 547.37 384.98 535.27 383.77 523.33 C 395.07 526.70 406.88 523.21 417.05 518.09 C 430.69 511.23 444.27 504.21 458.51 498.65 C 462.12 496.40 466.40 497.16 470.42 497.09 C 473.47 500.74 477.13 504.41 482.02 505.30 C 486.88 506.23 491.93 503.59 494.19 499.23 C 497.80 500.04 501.26 498.55 503.75 495.94 Z" />
        <path fill="var(--socks-color, grey)" opacity="1.00"
            d=" M 483.35 690.46 C 488.34 688.32 493.75 687.57 498.99 686.33 C 503.44 685.04 507.83 687.35 511.67 689.38 C 521.47 695.21 529.46 703.73 535.82 713.11 C 540.03 719.25 543.28 726.15 544.39 733.55 C 528.89 744.14 513.18 754.41 497.41 764.59 C 481.87 773.92 467.28 784.73 453.33 796.30 C 437.14 809.74 421.16 823.91 408.79 841.06 C 406.92 835.97 403.02 831.63 397.67 830.22 C 388.92 826.42 378.98 831.97 370.43 827.63 C 367.78 826.53 367.61 823.48 367.99 821.04 C 369.28 812.90 374.13 805.58 380.76 800.76 C 388.49 795.21 396.26 789.67 403.41 783.35 C 416.59 771.28 426.97 756.59 436.58 741.61 C 445.11 729.26 453.21 716.50 463.41 705.43 C 469.13 699.36 475.58 693.71 483.35 690.46 Z" />
        <path fill="var(--socks-color, grey)" opacity="1.00"
            d=" M 588.42 720.33 C 601.53 713.01 617.15 712.06 631.79 713.79 C 637.54 714.45 643.17 715.90 648.62 717.85 C 644.56 739.69 641.72 761.79 640.30 783.97 C 638.92 801.03 638.82 818.16 637.05 835.19 C 635.07 850.45 633.71 865.78 632.07 881.07 C 631.75 883.13 631.59 886.35 628.92 886.64 C 624.47 887.34 620.02 888.61 616.35 891.33 C 611.78 894.33 608.70 899.18 603.87 901.81 C 599.96 903.45 596.20 900.58 593.52 898.00 C 593.64 890.62 591.48 883.39 592.05 876.01 C 592.58 867.00 591.96 857.99 592.29 848.98 C 592.41 840.28 593.40 831.56 592.39 822.89 C 591.44 814.64 590.61 806.38 589.44 798.16 C 585.90 772.38 586.16 746.22 588.42 720.33 Z" />
    </g>
    <g id="#4d4d4dff">
        <path fill="#4d4d4d" opacity="1.00"
            d=" M 320.30 832.33 C 333.82 821.08 351.43 817.32 366.84 809.52 C 364.28 814.95 362.00 821.19 363.81 827.22 C 366.36 832.36 372.57 834.41 377.97 834.54 C 384.67 834.61 391.73 833.08 398.07 836.00 C 402.12 837.40 405.35 841.44 404.77 845.86 C 403.81 853.76 398.05 860.73 399.46 868.99 C 401.76 880.73 408.10 891.20 411.15 902.73 C 412.71 908.56 412.72 914.71 411.11 920.54 C 410.06 915.65 408.55 910.71 405.22 906.86 C 396.49 896.24 383.91 889.74 371.41 884.60 C 359.53 879.79 346.84 877.49 334.78 873.22 C 329.40 871.36 324.84 867.85 319.97 865.02 C 314.82 861.93 309.69 857.29 308.95 851.02 C 309.18 843.32 314.59 836.95 320.30 832.33 Z" />
        <path fill="#4d4d4d" opacity="1.00"
            d=" M 341.47 882.06 C 359.30 887.51 377.76 892.77 392.91 904.09 C 398.05 908.18 403.58 912.77 405.45 919.35 C 405.96 921.97 406.32 925.23 404.59 927.48 C 398.29 931.53 389.95 931.62 383.08 928.95 C 371.53 924.64 362.34 915.65 355.56 905.57 C 350.54 897.93 346.62 889.62 341.47 882.06 Z" />
        <path fill="#4d4d4d" opacity="1.00"
            d=" M 618.04 898.16 C 621.99 894.62 627.03 892.83 631.96 891.16 C 632.04 906.67 640.50 921.02 651.74 931.25 C 660.79 939.65 672.37 944.39 683.33 949.71 C 694.13 954.81 706.08 959.06 713.97 968.50 C 703.58 971.38 692.65 970.95 681.98 971.55 C 671.32 971.92 660.67 972.81 649.99 972.39 C 643.05 972.14 636.05 972.56 629.17 971.50 C 618.77 969.39 609.96 962.84 599.69 960.33 C 593.94 958.78 587.87 959.24 582.11 957.77 C 578.67 956.67 576.99 952.95 576.62 949.61 C 575.76 941.64 576.48 933.47 578.88 925.82 C 581.60 916.75 585.71 908.19 588.43 899.13 C 591.41 904.23 596.74 908.66 602.99 908.04 C 609.24 907.17 613.34 901.82 618.04 898.16 Z" />
    </g>
</svg>