<?xml version="1.0" encoding="UTF-8" ?>
<!DOCTYPE svg PUBLIC "-//W3C//DTD SVG 1.1//EN" "http://www.w3.org/Graphics/SVG/1.1/DTD/svg11.dtd">
<svg width="1000pt" height="1000pt" viewBox="0 0 1000 1000" version="1.1" xmlns="http://www.w3.org/2000/svg">
<g id="#020202ff">
<path fill="#020202" opacity="1.00" d=" M 333.06 28.55 C 351.76 25.60 371.40 31.99 385.28 44.73 C 400.73 58.75 409.30 78.98 411.82 99.44 C 413.89 108.79 410.17 118.17 405.40 126.07 C 405.79 126.63 406.57 127.76 406.96 128.32 C 409.92 125.94 413.17 123.73 416.98 123.01 C 423.24 121.51 429.50 123.70 435.73 124.26 C 444.53 125.11 453.42 125.17 462.20 124.16 C 466.56 123.74 470.54 121.32 474.99 121.51 C 480.50 121.73 485.55 124.46 491.08 124.60 C 498.69 125.39 505.37 121.02 512.57 119.43 C 528.61 114.86 545.55 117.22 561.53 120.82 C 574.94 123.93 588.10 128.21 601.77 130.18 C 612.89 131.75 624.07 133.12 635.30 133.67 C 646.21 134.23 657.14 133.29 668.04 134.03 C 680.69 134.92 693.36 135.53 706.03 135.78 C 720.06 135.66 734.09 136.87 747.93 139.17 C 758.21 141.39 768.86 144.34 777.26 150.96 C 777.34 151.69 777.48 153.17 777.55 153.90 C 778.21 153.91 779.51 153.93 780.17 153.94 C 782.52 150.54 785.26 146.45 789.83 146.19 C 802.29 144.88 814.78 146.89 827.14 148.31 C 835.68 149.49 844.37 151.54 851.71 156.26 C 858.26 160.90 863.92 166.66 869.39 172.51 C 876.90 179.93 884.18 188.45 886.72 198.94 C 887.57 205.71 886.69 213.16 883.00 219.02 C 878.25 225.61 868.80 224.73 863.25 230.25 C 858.74 234.31 853.37 237.70 847.25 238.51 C 837.90 239.83 828.40 240.06 818.98 239.66 C 811.23 239.47 803.78 236.12 797.92 231.18 C 793.22 226.88 793.19 220.14 793.94 214.30 C 789.66 210.86 787.29 205.81 786.68 200.41 C 782.17 199.62 777.68 198.61 773.41 196.97 C 756.57 205.34 737.52 207.82 718.98 209.20 C 704.78 209.60 690.67 206.77 677.16 202.61 C 662.88 198.30 647.74 197.38 632.95 199.03 C 626.31 199.81 619.56 199.91 613.05 201.62 C 605.83 203.44 598.30 202.18 591.01 203.54 C 581.75 204.85 572.98 208.22 564.21 211.33 C 565.79 223.12 569.77 234.38 573.52 245.61 C 578.34 260.64 585.97 274.67 589.79 290.03 C 592.97 302.44 593.35 315.31 593.55 328.06 C 593.93 344.71 594.06 361.36 594.19 378.01 C 594.80 392.04 597.18 405.93 597.99 419.96 C 599.54 443.68 602.63 467.40 601.54 491.20 C 604.68 500.17 604.37 510.00 601.16 518.91 C 598.97 527.00 593.26 533.70 591.81 542.02 C 590.86 546.96 590.62 552.06 588.87 556.81 C 587.49 560.84 585.11 564.62 584.89 568.97 C 584.59 575.33 584.95 581.74 583.92 588.05 C 582.07 602.98 574.09 616.25 572.04 631.11 C 571.22 635.40 571.18 639.79 570.32 644.07 C 569.81 647.44 566.67 649.36 564.09 651.14 C 554.31 657.30 542.65 659.84 531.21 660.28 C 524.11 677.98 521.33 697.02 520.20 715.95 C 519.18 734.76 516.80 753.45 515.23 772.22 C 511.33 798.56 504.47 824.69 492.68 848.66 C 485.76 864.25 478.46 879.66 471.01 895.00 C 465.15 907.13 464.46 920.83 462.90 933.99 C 461.72 941.50 464.28 948.85 465.47 956.19 C 466.62 963.42 469.54 970.60 468.29 978.03 C 467.66 982.55 464.48 986.49 460.30 988.27 C 453.92 991.10 446.72 990.33 440.01 989.50 C 427.17 987.78 414.48 985.16 401.83 982.46 C 397.38 981.48 392.52 980.08 389.79 976.13 C 387.64 973.49 387.38 969.77 388.74 966.72 C 391.01 961.09 394.01 955.77 396.01 950.03 C 398.47 943.66 399.67 936.83 402.86 930.74 C 405.26 926.39 405.78 921.35 407.62 916.77 C 410.52 908.26 415.95 900.84 418.41 892.16 C 421.04 882.96 422.73 873.54 424.53 864.17 C 428.41 845.85 431.10 827.31 434.50 808.90 C 438.51 786.32 437.92 762.94 445.02 740.95 C 447.63 732.74 450.76 724.72 453.77 716.65 C 454.88 713.67 455.38 710.42 454.84 707.27 C 453.38 697.81 450.12 688.65 449.82 679.03 C 449.23 662.96 452.34 647.04 456.45 631.58 C 458.03 625.09 459.47 618.35 458.26 611.66 C 457.08 611.02 454.96 611.18 454.55 609.61 C 453.91 607.28 454.16 604.83 454.13 602.46 C 439.40 617.22 422.85 630.18 404.98 640.92 C 400.22 644.07 396.58 648.54 392.62 652.58 C 386.97 658.76 381.13 664.76 375.88 671.29 C 370.75 666.79 367.69 660.64 364.52 654.74 C 356.71 662.70 347.51 669.05 338.44 675.45 C 327.47 682.90 316.11 689.76 304.82 696.70 C 307.53 703.81 309.22 711.34 309.63 718.95 C 310.00 724.80 307.77 730.33 305.67 735.66 C 302.00 744.71 300.65 754.66 301.61 764.37 C 307.88 766.65 315.03 769.49 317.97 776.00 C 321.48 783.83 321.48 793.20 318.05 801.06 C 315.20 807.49 308.69 811.11 302.49 813.70 C 287.82 819.43 272.10 821.80 257.39 827.46 C 240.26 833.08 224.74 843.37 206.74 846.28 C 195.82 847.57 183.76 847.02 174.43 840.57 C 169.26 837.16 166.54 831.01 166.43 824.94 C 166.30 816.35 169.83 807.84 175.51 801.46 C 186.54 789.41 201.85 781.56 217.94 779.07 C 225.07 778.03 232.15 776.74 239.30 775.87 C 230.57 759.14 224.18 740.96 222.50 722.07 C 222.09 717.75 222.34 713.39 221.70 709.10 C 220.72 706.56 218.89 704.45 217.92 701.91 C 216.14 697.55 217.04 692.71 218.22 688.32 C 220.75 679.73 224.57 671.59 228.49 663.56 C 234.00 652.24 239.20 640.71 246.01 630.08 C 240.95 632.31 235.65 634.50 230.04 634.62 C 225.83 634.72 222.36 632.11 219.04 629.91 C 211.93 624.80 203.02 623.08 195.91 618.00 C 192.80 615.32 191.66 610.91 191.97 606.95 C 193.30 595.91 197.36 585.12 204.43 576.45 C 207.70 571.77 212.48 568.18 214.92 562.93 C 216.36 559.78 216.69 555.85 219.71 553.68 C 224.39 550.08 230.23 548.45 235.08 545.14 C 237.56 543.31 238.91 540.30 241.51 538.62 C 243.56 537.93 245.74 538.79 247.81 539.05 C 248.13 537.62 248.46 536.20 248.79 534.79 C 246.50 530.26 244.93 525.05 246.16 519.98 C 247.57 514.18 251.73 509.69 254.69 504.66 C 259.81 495.97 264.52 486.94 267.28 477.20 C 270.59 467.34 272.10 456.92 276.34 447.38 C 277.04 445.66 277.79 443.92 277.95 442.06 C 279.20 429.04 282.88 416.42 287.27 404.16 C 290.29 395.93 292.38 387.41 294.80 379.00 C 296.72 372.01 298.97 365.09 300.22 357.93 C 302.12 347.71 304.73 337.19 302.61 326.78 C 300.58 316.46 299.08 306.05 297.22 295.70 C 295.51 283.22 295.60 270.56 296.64 258.02 C 297.04 245.84 298.62 233.51 303.06 222.09 C 306.31 214.48 309.98 206.85 315.64 200.71 C 321.05 194.86 327.33 189.89 333.88 185.40 C 323.56 176.11 314.15 165.40 308.21 152.74 C 300.91 138.94 296.15 123.97 291.66 109.07 C 291.01 109.82 290.36 110.57 289.72 111.32 C 288.39 110.32 286.86 109.36 286.26 107.71 C 280.83 95.23 280.71 80.97 283.83 67.88 C 286.04 58.22 291.52 49.43 298.91 42.87 C 308.56 34.86 320.57 29.79 333.06 28.55 M 347.02 88.04 C 343.62 83.66 341.22 78.35 336.30 75.38 C 336.31 82.94 335.01 91.11 329.80 96.95 C 327.63 91.28 325.68 85.35 321.44 80.82 C 319.83 88.77 316.57 96.35 312.15 103.14 C 311.14 104.32 310.25 106.22 308.43 106.01 C 306.56 99.62 304.84 93.16 302.29 86.99 C 299.83 92.65 297.13 98.21 294.38 103.74 C 298.62 107.67 299.20 113.73 301.18 118.87 C 306.00 117.80 311.49 117.49 315.85 120.15 C 323.88 126.99 326.01 138.68 324.35 148.66 C 321.04 144.38 319.59 139.13 317.74 134.14 C 314.31 135.22 311.05 136.76 308.20 138.96 C 312.31 148.36 316.22 158.10 323.02 165.96 C 330.74 175.24 339.27 185.52 351.73 188.04 C 356.85 189.38 362.37 187.62 367.30 189.74 C 362.97 193.36 357.13 193.23 351.81 193.28 C 353.42 199.13 355.49 205.59 360.99 208.93 C 368.64 213.71 377.00 217.72 386.01 219.05 C 392.93 220.13 400.08 220.59 406.56 223.49 C 406.34 213.73 410.41 204.61 411.31 194.99 C 412.23 185.69 412.36 176.33 412.48 166.99 C 411.94 157.49 412.17 147.90 413.97 138.53 C 409.66 135.83 405.44 132.73 402.62 128.41 C 397.43 121.04 395.88 111.81 395.59 102.98 C 395.33 99.10 395.48 94.93 393.57 91.42 C 392.10 88.80 388.22 87.70 385.95 89.97 C 382.02 92.94 381.73 98.34 382.55 102.80 C 384.10 110.29 386.93 117.43 389.21 124.71 C 389.57 126.41 390.82 128.97 388.22 129.39 C 381.09 123.61 381.67 112.30 373.43 107.56 C 362.74 111.14 352.18 115.07 341.49 118.63 C 338.30 119.33 334.99 121.41 331.71 120.39 C 328.99 117.97 328.99 113.85 328.14 110.54 C 333.01 107.14 338.37 104.52 343.46 101.47 C 346.63 99.69 349.70 97.66 353.13 96.38 C 357.35 95.34 361.75 95.99 366.05 96.00 C 364.36 89.54 363.20 82.83 364.56 76.20 C 362.43 79.24 361.00 82.67 359.62 86.09 C 355.74 83.55 355.80 78.50 355.40 74.40 C 351.81 78.42 349.21 83.14 347.02 88.04 M 503.94 128.08 C 497.08 131.11 489.19 131.08 482.06 129.02 C 478.52 128.03 474.75 126.76 471.09 127.92 C 466.78 129.05 463.35 132.15 460.72 135.63 C 452.59 146.16 443.94 156.29 435.98 166.97 C 434.48 168.46 432.95 171.36 430.44 170.41 C 430.63 167.26 432.50 164.63 433.98 161.97 C 440.85 150.50 449.63 140.35 457.81 129.83 C 445.71 130.97 433.57 129.67 421.64 127.69 C 421.53 132.03 419.24 135.84 418.45 140.03 C 416.66 148.91 416.73 158.04 417.20 167.05 C 417.11 177.37 417.01 187.74 415.84 198.01 C 415.10 204.92 412.71 211.48 411.25 218.24 C 410.47 221.56 411.04 225.03 410.29 228.34 C 408.33 229.32 406.20 228.23 404.24 227.86 C 397.81 226.02 391.09 225.88 384.57 224.59 C 375.73 222.87 367.58 218.78 359.94 214.14 C 352.34 209.63 347.24 201.17 346.94 192.31 C 344.16 191.16 341.40 189.94 338.68 188.65 C 332.13 193.31 325.59 198.11 320.04 203.97 C 314.59 209.68 311.16 216.93 308.09 224.11 C 302.32 238.70 302.39 254.62 301.43 270.04 C 301.24 280.14 301.70 290.29 303.59 300.22 C 305.20 297.08 306.96 293.98 309.37 291.36 C 326.70 272.64 349.18 260.09 370.38 246.39 C 372.54 244.97 375.00 244.11 377.50 243.51 C 375.54 248.03 371.16 250.56 367.32 253.28 C 351.85 263.67 336.19 273.88 321.93 285.91 C 315.96 291.29 309.04 296.64 306.75 304.72 C 304.52 312.26 307.16 319.95 308.22 327.44 C 309.97 339.38 306.67 351.19 304.46 362.83 C 300.73 379.19 296.24 395.40 290.41 411.14 C 287.29 419.59 285.18 428.34 283.02 437.06 C 286.41 433.74 290.13 430.76 293.92 427.90 C 303.08 420.84 308.84 410.60 315.23 401.19 C 318.37 396.78 320.59 391.42 325.32 388.40 C 325.59 393.26 322.64 397.28 320.39 401.30 C 314.50 411.16 309.31 421.80 300.56 429.52 C 294.19 435.10 286.38 439.57 282.35 447.33 C 277.44 457.25 276.08 468.37 272.65 478.80 C 269.84 489.04 265.05 498.59 259.75 507.74 C 257.31 511.94 253.96 515.61 252.18 520.17 C 250.37 524.87 252.17 530.09 255.00 533.98 C 258.05 538.17 261.45 543.03 266.96 543.94 C 274.65 545.31 282.77 545.42 290.30 543.19 C 294.86 541.85 297.37 537.47 299.66 533.67 C 306.58 521.85 314.45 510.60 322.70 499.69 C 327.73 492.79 334.83 487.54 338.94 479.96 C 342.52 473.38 344.64 466.16 347.40 459.22 C 351.78 447.07 357.93 435.66 362.48 423.58 C 366.45 412.43 366.21 400.43 367.86 388.85 C 368.86 379.32 371.45 369.79 370.33 360.17 C 366.28 357.53 361.33 355.14 359.67 350.22 C 357.35 343.33 358.45 335.58 354.90 329.03 C 351.49 321.55 343.83 317.47 336.59 314.47 C 331.00 312.12 324.55 312.37 319.30 309.18 C 319.62 307.70 320.50 306.91 321.93 306.82 C 330.70 306.40 339.71 308.18 347.34 312.65 C 351.31 314.63 354.48 318.20 359.00 319.00 C 374.41 322.50 390.14 318.77 405.22 315.40 C 417.69 312.37 430.13 308.97 442.01 304.04 C 446.68 302.37 451.10 299.53 456.20 299.45 C 454.21 301.47 451.90 303.16 449.31 304.34 C 430.17 313.36 410.14 321.13 389.05 324.00 C 379.28 325.57 369.18 325.87 359.50 323.47 C 362.48 328.83 364.15 334.80 364.60 340.90 C 365.19 344.33 364.93 348.62 368.00 350.97 C 372.29 354.40 377.17 357.04 381.28 360.70 C 386.36 365.50 388.60 372.37 390.98 378.74 C 396.61 367.37 404.58 357.37 412.67 347.67 C 423.64 334.87 437.30 324.83 450.39 314.34 C 457.10 309.41 463.61 303.71 471.73 301.27 C 468.79 304.58 465.11 307.07 461.56 309.67 C 441.89 324.69 422.85 341.04 408.22 361.18 C 401.03 371.09 391.80 381.06 391.33 393.97 C 392.93 399.26 396.96 403.64 397.49 409.35 C 399.69 409.52 401.92 409.59 404.09 409.14 C 423.53 404.96 442.12 397.76 460.65 390.70 C 465.43 388.99 470.11 386.63 475.29 386.50 C 472.48 391.11 466.84 392.16 462.31 394.33 C 446.55 400.44 431.20 407.85 414.68 411.75 C 408.58 413.14 402.24 415.19 395.98 413.48 C 393.95 418.83 391.01 424.08 391.15 429.97 C 391.53 437.13 387.15 443.10 384.42 449.37 C 379.08 459.01 375.25 469.38 370.29 479.21 C 387.91 483.06 405.99 484.16 424.00 483.76 C 444.40 483.20 465.08 482.44 484.87 477.01 C 504.07 471.60 523.92 467.58 543.96 468.15 C 556.28 468.13 568.70 469.32 580.59 472.64 C 587.24 474.34 592.43 479.11 596.77 484.20 C 596.38 463.08 593.92 442.09 592.41 421.04 C 591.49 407.33 589.27 393.74 588.43 380.03 C 579.45 385.20 569.25 387.85 560.43 393.36 C 551.96 398.27 545.15 405.42 537.43 411.35 C 529.92 417.22 520.54 419.70 512.34 424.36 C 496.85 432.85 482.64 443.42 467.54 452.56 C 455.15 460.01 442.47 467.77 428.11 470.67 C 426.36 470.89 421.61 471.25 423.36 468.32 C 426.92 466.71 430.75 465.78 434.33 464.21 C 445.53 459.82 455.53 453.04 465.61 446.58 C 484.45 434.46 502.64 420.74 523.84 412.91 C 533.28 409.50 540.63 402.47 548.23 396.19 C 554.88 390.55 562.41 386.01 570.25 382.21 C 576.42 379.16 583.47 377.27 588.21 371.94 C 588.20 358.62 587.73 345.30 587.45 331.98 C 586.96 320.99 587.05 309.90 585.08 299.04 C 582.25 280.86 572.55 264.83 567.44 247.33 C 567.16 255.58 566.19 263.80 565.81 272.05 C 565.43 281.70 565.08 291.46 562.63 300.85 C 558.67 312.87 553.94 324.91 545.87 334.84 C 534.97 348.40 523.28 361.58 515.07 377.04 C 512.74 381.19 511.84 386.24 508.29 389.64 C 508.19 380.95 512.49 373.05 516.79 365.79 C 523.05 355.59 530.16 345.92 537.70 336.64 C 542.65 330.33 547.47 323.75 550.22 316.14 C 552.94 308.41 556.73 300.95 557.79 292.74 C 559.43 282.54 559.27 272.18 560.50 261.94 C 561.30 254.96 561.66 247.94 562.18 240.93 C 562.57 231.63 560.16 222.53 559.67 213.29 C 547.38 218.37 535.24 224.05 522.30 227.28 C 520.71 227.68 519.06 227.96 517.43 227.75 C 516.90 226.63 517.06 225.68 517.91 224.92 C 519.99 223.05 522.74 222.23 525.29 221.22 C 545.19 213.96 563.86 203.14 584.72 198.68 C 591.06 197.30 597.57 197.04 604.04 197.22 C 612.86 197.37 621.07 193.77 629.35 191.24 C 640.06 188.01 649.87 182.42 660.62 179.29 C 666.42 177.67 672.22 174.80 678.39 175.79 C 673.46 178.87 667.71 180.14 662.42 182.43 C 653.62 185.84 645.36 190.51 636.53 193.84 C 650.40 192.40 664.53 193.34 677.96 197.15 C 688.71 200.37 699.74 202.82 710.95 203.61 C 721.13 204.37 731.25 202.62 741.29 201.22 C 750.77 199.82 759.93 197.01 769.06 194.21 C 766.57 184.90 763.90 175.17 765.65 165.48 C 766.39 160.77 769.25 156.86 771.88 153.04 C 764.83 149.76 757.60 146.74 749.98 145.10 C 741.67 143.31 733.19 142.57 724.75 141.81 C 714.18 140.88 703.55 141.43 692.97 140.86 C 678.97 140.56 665.01 138.79 650.99 139.45 C 626.01 139.89 600.92 136.85 576.78 130.39 C 561.46 126.43 545.96 122.27 530.03 122.22 C 521.01 122.16 512.18 124.58 503.94 128.08 M 410.02 130.74 C 411.73 131.74 413.45 132.72 415.17 133.70 C 416.18 131.68 417.19 129.66 418.24 127.66 C 415.46 128.60 412.71 129.60 410.02 130.74 M 773.11 182.91 C 772.61 186.33 772.26 190.10 773.97 193.25 C 778.71 196.05 784.85 194.59 789.68 197.25 C 791.75 200.44 791.47 204.83 794.33 207.61 C 796.07 209.86 799.19 211.74 798.72 214.99 C 798.69 219.26 797.65 224.43 801.33 227.61 C 808.90 234.99 820.01 235.49 829.97 235.14 C 836.96 234.80 844.15 235.05 850.91 232.97 C 857.51 230.83 861.47 224.29 868.12 222.24 C 871.50 220.83 875.98 220.46 877.87 216.86 C 881.51 210.26 882.48 201.87 879.11 194.96 C 875.13 186.48 869.06 179.08 861.99 172.99 C 857.17 168.84 852.88 164.05 847.64 160.43 C 839.05 155.10 828.81 153.45 818.90 152.60 C 808.57 151.23 798.15 150.55 787.73 150.67 C 780.80 160.29 775.12 171.12 773.11 182.91 M 775.38 157.60 C 770.41 162.33 770.21 169.66 770.08 176.05 C 772.16 169.19 775.25 162.72 778.50 156.36 C 777.72 156.67 776.16 157.29 775.38 157.60 M 375.61 363.37 C 375.74 371.22 374.68 379.00 373.69 386.77 C 371.91 399.50 371.95 412.57 368.17 424.96 C 365.06 434.49 360.52 443.45 356.49 452.60 C 352.44 461.71 349.55 471.31 345.36 480.36 C 342.56 486.52 338.10 491.70 333.39 496.48 C 328.84 501.03 325.05 506.25 321.47 511.57 C 316.56 518.92 311.14 525.93 306.51 533.47 C 303.76 537.99 300.34 542.06 296.45 545.64 C 297.29 547.68 298.13 549.73 298.91 551.81 C 303.61 545.91 308.70 540.27 314.75 535.71 C 319.30 532.27 323.44 528.17 326.03 523.02 C 332.80 509.79 343.69 499.36 354.55 489.49 C 357.74 486.43 361.77 484.11 364.26 480.38 C 366.90 474.08 369.92 467.94 372.63 461.66 C 376.33 452.89 381.09 444.61 384.87 435.88 C 386.00 433.04 385.52 429.91 385.92 426.95 C 386.50 420.55 390.61 415.18 391.73 408.93 C 391.81 403.38 386.04 399.64 386.13 394.06 C 386.22 389.94 387.43 385.72 386.05 381.68 C 383.88 374.97 381.03 368.13 375.61 363.37 M 252.30 539.19 C 252.05 540.07 251.81 540.95 251.56 541.85 C 261.27 549.64 274.09 556.73 286.82 552.30 C 286.96 551.45 287.25 549.76 287.40 548.91 C 279.16 549.76 270.49 550.50 262.54 547.64 C 258.16 546.20 255.31 542.43 252.30 539.19 M 243.97 542.74 C 239.87 550.47 231.12 553.07 224.03 557.16 C 221.40 558.49 221.15 561.71 220.02 564.12 C 218.08 569.64 213.31 573.34 209.84 577.84 C 203.31 585.92 198.79 595.66 197.38 605.99 C 196.94 609.06 197.15 613.07 200.26 614.73 C 206.69 618.56 214.24 620.19 220.39 624.56 C 223.90 626.82 227.46 630.25 232.00 629.43 C 238.93 628.48 245.74 625.59 250.85 620.76 C 254.14 616.90 256.12 612.14 258.94 607.95 C 268.84 592.38 279.32 577.17 290.66 562.63 C 292.47 560.28 292.67 557.25 293.19 554.45 C 284.44 560.34 273.04 559.36 263.81 555.16 C 256.44 552.28 250.96 546.29 243.97 542.74 M 462.30 608.32 C 465.24 617.89 462.24 627.77 459.99 637.14 C 456.71 650.49 454.46 664.21 454.77 677.99 C 454.96 687.85 458.24 697.26 459.68 706.94 C 460.25 710.40 459.60 713.88 458.79 717.25 C 463.86 721.43 470.44 722.90 476.76 724.02 C 489.10 725.99 501.90 725.77 514.02 722.55 C 514.92 706.37 516.47 690.14 520.59 674.43 C 523.36 664.45 527.32 654.87 531.39 645.37 C 534.40 638.45 537.22 631.41 541.23 624.98 C 528.29 618.68 514.64 613.88 500.74 610.20 C 488.25 607.16 474.89 604.02 462.30 608.32 M 263.06 611.06 C 257.35 620.46 251.96 630.03 246.55 639.60 C 241.48 649.08 237.13 658.93 232.55 668.65 C 229.16 675.77 226.05 683.07 224.03 690.71 C 223.04 694.48 222.61 698.75 224.87 702.18 C 228.56 708.25 233.57 713.87 234.77 721.12 C 234.32 721.50 233.42 722.26 232.97 722.63 C 230.49 720.91 229.14 718.13 227.51 715.69 C 227.73 719.51 227.97 723.33 228.42 727.14 C 244.48 736.04 265.22 734.18 280.42 724.35 C 287.67 719.72 293.20 712.18 294.09 703.47 C 288.63 706.86 282.93 710.54 280.32 716.71 C 279.25 716.06 277.81 715.56 277.86 714.06 C 278.37 709.74 281.81 706.58 285.08 704.10 C 297.16 695.24 310.47 688.29 323.02 680.16 C 336.69 671.57 350.13 662.36 361.71 651.05 C 354.73 645.04 346.46 640.86 338.27 636.78 C 324.27 630.17 309.70 624.90 295.19 619.57 C 284.66 616.15 274.25 611.62 263.06 611.06 M 303.48 771.63 C 304.78 780.16 303.86 790.01 297.40 796.37 C 290.23 803.19 281.89 808.91 272.61 812.45 C 262.00 816.76 249.96 818.81 238.84 815.26 C 236.07 814.65 234.03 811.36 235.87 808.85 C 238.70 805.68 243.08 804.63 246.68 802.61 C 243.65 798.58 239.68 795.30 236.99 791.03 C 235.25 788.39 235.25 785.16 235.05 782.14 C 228.51 783.51 221.85 784.17 215.26 785.23 C 202.14 787.49 190.09 794.38 180.76 803.78 C 175.95 808.65 172.80 815.14 171.91 821.93 C 171.16 827.23 173.52 833.01 178.33 835.63 C 186.19 840.10 195.46 842.68 204.52 841.42 C 215.79 839.97 226.18 835.06 236.38 830.37 C 248.55 824.64 261.19 819.91 274.14 816.26 C 283.29 813.58 292.67 811.47 301.39 807.53 C 305.74 805.49 310.28 802.74 312.17 798.08 C 314.54 792.05 314.21 785.10 311.94 779.09 C 310.62 775.28 306.66 773.58 303.48 771.63 M 434.35 909.25 C 428.35 913.40 426.24 921.08 420.85 925.90 C 417.75 929.46 412.85 929.92 408.74 931.63 C 406.36 934.73 405.53 938.67 404.27 942.31 C 402.15 949.49 399.64 956.57 396.24 963.26 C 395.04 966.01 393.23 968.72 393.24 971.83 C 393.86 975.14 397.87 975.68 400.53 976.63 C 416.80 980.32 433.21 984.36 450.00 984.33 C 454.43 984.05 459.77 983.46 462.42 979.38 C 465.61 975.26 463.36 969.92 462.43 965.41 C 459.41 954.31 459.27 942.36 453.87 931.99 C 450.42 925.40 449.80 917.59 445.57 911.40 C 443.24 907.68 437.97 907.61 434.35 909.25 Z" />
<path fill="#020202" opacity="1.00" d=" M 322.89 149.75 C 323.60 149.44 325.03 148.82 325.74 148.51 C 328.05 150.16 330.33 151.90 332.90 153.15 C 334.89 154.34 337.17 152.98 339.22 152.66 C 339.57 153.28 340.26 154.52 340.60 155.14 C 336.83 159.47 330.66 159.72 325.45 158.41 C 323.87 155.81 323.50 152.68 322.89 149.75 Z" />
<path fill="#020202" opacity="1.00" d=" M 345.73 169.77 C 352.96 167.32 359.90 163.75 367.39 162.20 C 370.11 164.58 365.89 165.44 364.31 166.63 C 364.25 168.71 364.88 171.40 362.58 172.52 C 357.36 175.26 351.61 177.02 345.94 178.55 C 343.78 179.12 342.82 176.79 341.63 175.51 C 339.98 175.41 336.24 176.91 337.14 173.97 C 339.29 171.59 342.88 171.10 345.73 169.77 Z" />
<path fill="#020202" opacity="1.00" d=" M 324.03 342.94 C 324.44 341.46 326.03 341.14 327.21 340.50 C 326.92 345.84 325.33 350.96 324.04 356.11 C 321.15 367.82 316.94 379.15 312.35 390.29 C 309.19 397.99 304.47 404.93 299.29 411.40 C 298.19 412.90 296.28 413.23 294.65 413.83 C 296.86 405.79 302.66 399.48 305.87 391.89 C 312.88 375.94 317.57 359.09 324.03 342.94 Z" />
<path fill="#020202" opacity="1.00" d=" M 515.35 659.33 C 517.12 656.43 518.13 652.79 521.38 651.14 C 521.62 653.57 521.33 656.06 520.30 658.31 C 515.07 670.74 506.09 681.23 496.13 690.16 C 494.56 691.69 492.65 692.77 490.57 693.42 C 490.96 689.34 494.01 686.47 496.53 683.55 C 503.41 675.99 510.53 668.44 515.35 659.33 Z" />
</g>
<g id="#f0b58bff">
<path fill="#f0b58b" opacity="1.00" d=" M 347.02 88.04 C 349.21 83.14 351.81 78.42 355.40 74.40 C 355.80 78.50 355.74 83.55 359.62 86.09 C 361.00 82.67 362.43 79.24 364.56 76.20 C 363.20 82.83 364.36 89.54 366.05 96.00 C 361.75 95.99 357.35 95.34 353.13 96.38 C 349.70 97.66 346.63 99.69 343.46 101.47 C 338.37 104.52 333.01 107.14 328.14 110.54 C 328.99 113.85 328.99 117.97 331.71 120.39 C 334.99 121.41 338.30 119.33 341.49 118.63 C 352.18 115.07 362.74 111.14 373.43 107.56 C 381.67 112.30 381.09 123.61 388.22 129.39 C 390.82 128.97 389.57 126.41 389.21 124.71 C 386.93 117.43 384.10 110.29 382.55 102.80 C 381.73 98.34 382.02 92.94 385.95 89.97 C 388.22 87.70 392.10 88.80 393.57 91.42 C 395.48 94.93 395.33 99.10 395.59 102.98 C 395.88 111.81 397.43 121.04 402.62 128.41 C 405.44 132.73 409.66 135.83 413.97 138.53 C 412.17 147.90 411.94 157.49 412.48 166.99 C 412.36 176.33 412.23 185.69 411.31 194.99 C 410.41 204.61 406.34 213.73 406.56 223.49 C 400.08 220.59 392.93 220.13 386.01 219.05 C 377.00 217.72 368.64 213.71 360.99 208.93 C 355.49 205.59 353.42 199.13 351.81 193.28 C 357.13 193.23 362.97 193.36 367.30 189.74 C 362.37 187.62 356.85 189.38 351.73 188.04 C 339.27 185.52 330.74 175.24 323.02 165.96 C 316.22 158.10 312.31 148.36 308.20 138.96 C 311.05 136.76 314.31 135.22 317.74 134.14 C 319.59 139.13 321.04 144.38 324.35 148.66 C 326.01 138.68 323.88 126.99 315.85 120.15 C 311.49 117.49 306.00 117.80 301.18 118.87 C 299.20 113.73 298.62 107.67 294.38 103.74 C 297.13 98.21 299.83 92.65 302.29 86.99 C 304.84 93.16 306.56 99.62 308.43 106.01 C 310.25 106.22 311.14 104.32 312.15 103.14 C 316.57 96.35 319.83 88.77 321.44 80.82 C 325.68 85.35 327.63 91.28 329.80 96.95 C 335.01 91.11 336.31 82.94 336.30 75.38 C 341.22 78.35 343.62 83.66 347.02 88.04 M 322.89 149.75 C 323.50 152.68 323.87 155.81 325.45 158.41 C 330.66 159.72 336.83 159.47 340.60 155.14 C 340.26 154.52 339.57 153.28 339.22 152.66 C 337.17 152.98 334.89 154.34 332.90 153.15 C 330.33 151.90 328.05 150.16 325.74 148.51 C 325.03 148.82 323.60 149.44 322.89 149.75 M 345.73 169.77 C 342.88 171.10 339.29 171.59 337.14 173.97 C 336.24 176.91 339.98 175.41 341.63 175.51 C 342.82 176.79 343.78 179.12 345.94 178.55 C 351.61 177.02 357.36 175.26 362.58 172.52 C 364.88 171.40 364.25 168.71 364.31 166.63 C 365.89 165.44 370.11 164.58 367.39 162.20 C 359.90 163.75 352.96 167.32 345.73 169.77 Z" />
<path fill="#f0b58b" opacity="1.00" d=" M 775.38 157.60 C 776.16 157.29 777.72 156.67 778.50 156.36 C 775.25 162.72 772.16 169.19 770.08 176.05 C 770.21 169.66 770.41 162.33 775.38 157.60 Z" />
<path fill="#f0b58b" opacity="1.00" d=" M 252.30 539.19 C 255.31 542.43 258.16 546.20 262.54 547.64 C 270.49 550.50 279.16 549.76 287.40 548.91 C 287.25 549.76 286.96 551.45 286.82 552.30 C 274.09 556.73 261.27 549.64 251.56 541.85 C 251.81 540.95 252.05 540.07 252.30 539.19 Z" />
<path fill="#f0b58b" opacity="1.00" d=" M 462.30 608.32 C 474.89 604.02 488.25 607.16 500.74 610.20 C 514.64 613.88 528.29 618.68 541.23 624.98 C 537.22 631.41 534.40 638.45 531.39 645.37 C 527.32 654.87 523.36 664.45 520.59 674.43 C 516.47 690.14 514.92 706.37 514.02 722.55 C 501.90 725.77 489.10 725.99 476.76 724.02 C 470.44 722.90 463.86 721.43 458.79 717.25 C 459.60 713.88 460.25 710.40 459.68 706.94 C 458.24 697.26 454.96 687.85 454.77 677.99 C 454.46 664.21 456.71 650.49 459.99 637.14 C 462.24 627.77 465.24 617.89 462.30 608.32 M 515.35 659.33 C 510.53 668.44 503.41 675.99 496.53 683.55 C 494.01 686.47 490.96 689.34 490.57 693.42 C 492.65 692.77 494.56 691.69 496.13 690.16 C 506.09 681.23 515.07 670.74 520.30 658.31 C 521.33 656.06 521.62 653.57 521.38 651.14 C 518.13 652.79 517.12 656.43 515.35 659.33 Z" />
<path fill="#f0b58b" opacity="1.00" d=" M 263.06 611.06 C 274.25 611.62 284.66 616.15 295.19 619.57 C 309.70 624.90 324.27 630.17 338.27 636.78 C 346.46 640.86 354.73 645.04 361.71 651.05 C 350.13 662.36 336.69 671.57 323.02 680.16 C 310.47 688.29 297.16 695.24 285.08 704.10 C 281.81 706.58 278.37 709.74 277.86 714.06 C 277.81 715.56 279.25 716.06 280.32 716.71 C 282.93 710.54 288.63 706.86 294.09 703.47 C 293.20 712.18 287.67 719.72 280.42 724.35 C 265.22 734.18 244.48 736.04 228.42 727.14 C 227.97 723.33 227.73 719.51 227.51 715.69 C 229.14 718.13 230.49 720.91 232.97 722.63 C 233.42 722.26 234.32 721.50 234.77 721.12 C 233.57 713.87 228.56 708.25 224.87 702.18 C 222.61 698.75 223.04 694.48 224.03 690.71 C 226.05 683.07 229.16 675.77 232.55 668.65 C 237.13 658.93 241.48 649.08 246.55 639.60 C 251.96 630.03 257.35 620.46 263.06 611.06 Z" />
</g>
<g id="#f35e11ff">
<path fill="var(--shirt-color, grey)" opacity="1.00" d=" M 503.94 128.08 C 512.18 124.58 521.01 122.16 530.03 122.22 C 545.96 122.27 561.46 126.43 576.78 130.39 C 600.92 136.85 626.01 139.89 650.99 139.45 C 665.01 138.79 678.97 140.56 692.97 140.86 C 703.55 141.43 714.18 140.88 724.75 141.81 C 733.19 142.57 741.67 143.31 749.98 145.10 C 757.60 146.74 764.83 149.76 771.88 153.04 C 769.25 156.86 766.39 160.77 765.65 165.48 C 763.90 175.17 766.57 184.90 769.06 194.21 C 759.93 197.01 750.77 199.82 741.29 201.22 C 731.25 202.62 721.13 204.37 710.95 203.61 C 699.74 202.82 688.71 200.37 677.96 197.15 C 664.53 193.34 650.40 192.40 636.53 193.84 C 645.36 190.51 653.62 185.84 662.42 182.43 C 667.71 180.14 673.46 178.87 678.39 175.79 C 672.22 174.80 666.42 177.67 660.62 179.29 C 649.87 182.42 640.06 188.01 629.35 191.24 C 621.07 193.77 612.86 197.37 604.04 197.22 C 597.57 197.04 591.06 197.30 584.72 198.68 C 563.86 203.14 545.19 213.96 525.29 221.22 C 522.74 222.23 519.99 223.05 517.91 224.92 C 517.06 225.68 516.90 226.63 517.43 227.75 C 519.06 227.96 520.71 227.68 522.30 227.28 C 535.24 224.05 547.38 218.37 559.67 213.29 C 560.16 222.53 562.57 231.63 562.18 240.93 C 561.66 247.94 561.30 254.96 560.50 261.94 C 559.27 272.18 559.43 282.54 557.79 292.74 C 556.73 300.95 552.94 308.41 550.22 316.14 C 547.47 323.75 542.65 330.33 537.70 336.64 C 530.16 345.92 523.05 355.59 516.79 365.79 C 512.49 373.05 508.19 380.95 508.29 389.64 C 511.84 386.24 512.74 381.19 515.07 377.04 C 523.28 361.58 534.97 348.40 545.87 334.84 C 553.94 324.91 558.67 312.87 562.63 300.85 C 565.08 291.46 565.43 281.70 565.81 272.05 C 566.19 263.80 567.16 255.58 567.44 247.33 C 572.55 264.83 582.25 280.86 585.08 299.04 C 587.05 309.90 586.96 320.99 587.45 331.98 C 587.73 345.30 588.20 358.62 588.21 371.94 C 583.47 377.27 576.42 379.16 570.25 382.21 C 562.41 386.01 554.88 390.55 548.23 396.19 C 540.63 402.47 533.28 409.50 523.84 412.91 C 502.64 420.74 484.45 434.46 465.61 446.58 C 455.53 453.04 445.53 459.82 434.33 464.21 C 430.75 465.78 426.92 466.71 423.36 468.32 C 421.61 471.25 426.36 470.89 428.11 470.67 C 442.47 467.77 455.15 460.01 467.54 452.56 C 482.64 443.42 496.85 432.85 512.34 424.36 C 520.54 419.70 529.92 417.22 537.43 411.35 C 545.15 405.42 551.96 398.27 560.43 393.36 C 569.25 387.85 579.45 385.20 588.43 380.03 C 589.27 393.74 591.49 407.33 592.41 421.04 C 593.92 442.09 596.38 463.08 596.77 484.20 C 592.43 479.11 587.24 474.34 580.59 472.64 C 568.70 469.32 556.28 468.13 543.96 468.15 C 523.92 467.58 504.07 471.60 484.87 477.01 C 465.08 482.44 444.40 483.20 424.00 483.76 C 405.99 484.16 387.91 483.06 370.29 479.21 C 375.25 469.38 379.08 459.01 384.42 449.37 C 387.15 443.10 391.53 437.13 391.15 429.97 C 391.01 424.08 393.95 418.83 395.98 413.48 C 402.24 415.19 408.58 413.14 414.68 411.75 C 431.20 407.85 446.55 400.44 462.31 394.33 C 466.84 392.16 472.48 391.11 475.29 386.50 C 470.11 386.63 465.43 388.99 460.65 390.70 C 442.12 397.76 423.53 404.96 404.09 409.14 C 401.92 409.59 399.69 409.52 397.49 409.35 C 396.96 403.64 392.93 399.26 391.33 393.97 C 391.80 381.06 401.03 371.09 408.22 361.18 C 422.85 341.04 441.89 324.69 461.56 309.67 C 465.11 307.07 468.79 304.58 471.73 301.27 C 463.61 303.71 457.10 309.41 450.39 314.34 C 437.30 324.83 423.64 334.87 412.67 347.67 C 404.58 357.37 396.61 367.37 390.98 378.74 C 388.60 372.37 386.36 365.50 381.28 360.70 C 377.17 357.04 372.29 354.40 368.00 350.97 C 364.93 348.62 365.19 344.33 364.60 340.90 C 364.15 334.80 362.48 328.83 359.50 323.47 C 369.18 325.87 379.28 325.57 389.05 324.00 C 410.14 321.13 430.17 313.36 449.31 304.34 C 451.90 303.16 454.21 301.47 456.20 299.45 C 451.10 299.53 446.68 302.37 442.01 304.04 C 430.13 308.97 417.69 312.37 405.22 315.40 C 390.14 318.77 374.41 322.50 359.00 319.00 C 354.48 318.20 351.31 314.63 347.34 312.65 C 339.71 308.18 330.70 306.40 321.93 306.82 C 320.50 306.91 319.62 307.70 319.30 309.18 C 324.55 312.37 331.00 312.12 336.59 314.47 C 343.83 317.47 351.49 321.55 354.90 329.03 C 358.45 335.58 357.35 343.33 359.67 350.22 C 361.33 355.14 366.28 357.53 370.33 360.17 C 371.45 369.79 368.86 379.32 367.86 388.85 C 366.21 400.43 366.45 412.43 362.48 423.58 C 357.93 435.66 351.78 447.07 347.40 459.22 C 344.64 466.16 342.52 473.38 338.94 479.96 C 334.83 487.54 327.73 492.79 322.70 499.69 C 314.45 510.60 306.58 521.85 299.66 533.67 C 297.37 537.47 294.86 541.85 290.30 543.19 C 282.77 545.42 274.65 545.31 266.96 543.94 C 261.45 543.03 258.05 538.17 255.00 533.98 C 252.17 530.09 250.37 524.87 252.18 520.17 C 253.96 515.61 257.31 511.94 259.75 507.74 C 265.05 498.59 269.84 489.04 272.65 478.80 C 276.08 468.37 277.44 457.25 282.35 447.33 C 286.38 439.57 294.19 435.10 300.56 429.52 C 309.31 421.80 314.50 411.16 320.39 401.30 C 322.64 397.28 325.59 393.26 325.32 388.40 C 320.59 391.42 318.37 396.78 315.23 401.19 C 308.84 410.60 303.08 420.84 293.92 427.90 C 290.13 430.76 286.41 433.74 283.02 437.06 C 285.18 428.34 287.29 419.59 290.41 411.14 C 296.24 395.40 300.73 379.19 304.46 362.83 C 306.67 351.19 309.97 339.38 308.22 327.44 C 307.16 319.95 304.52 312.26 306.75 304.72 C 309.04 296.64 315.96 291.29 321.93 285.91 C 336.19 273.88 351.85 263.67 367.32 253.28 C 371.16 250.56 375.54 248.03 377.50 243.51 C 375.00 244.11 372.54 244.97 370.38 246.39 C 349.18 260.09 326.70 272.64 309.37 291.36 C 306.96 293.98 305.20 297.08 303.59 300.22 C 301.70 290.29 301.24 280.14 301.43 270.04 C 302.39 254.62 302.32 238.70 308.09 224.11 C 311.16 216.93 314.59 209.68 320.04 203.97 C 325.59 198.11 332.13 193.31 338.68 188.65 C 341.40 189.94 344.16 191.16 346.94 192.31 C 347.24 201.17 352.34 209.63 359.94 214.14 C 367.58 218.78 375.73 222.87 384.57 224.59 C 391.09 225.88 397.81 226.02 404.24 227.86 C 406.20 228.23 408.33 229.32 410.29 228.34 C 411.04 225.03 410.47 221.56 411.25 218.24 C 412.71 211.48 415.10 204.92 415.84 198.01 C 417.01 187.74 417.11 177.37 417.20 167.05 C 416.73 158.04 416.66 148.91 418.45 140.03 C 419.24 135.84 421.53 132.03 421.64 127.69 C 433.57 129.67 445.71 130.97 457.81 129.83 C 449.63 140.35 440.85 150.50 433.98 161.97 C 432.50 164.63 430.63 167.26 430.44 170.41 C 432.95 171.36 434.48 168.46 435.98 166.97 C 443.94 156.29 452.59 146.16 460.72 135.63 C 463.35 132.15 466.78 129.05 471.09 127.92 C 474.75 126.76 478.52 128.03 482.06 129.02 C 489.19 131.08 497.08 131.11 503.94 128.08 M 324.03 342.94 C 317.57 359.09 312.88 375.94 305.87 391.89 C 302.66 399.48 296.86 405.79 294.65 413.83 C 296.28 413.23 298.19 412.90 299.29 411.40 C 304.47 404.93 309.19 397.99 312.35 390.29 C 316.94 379.15 321.15 367.82 324.04 356.11 C 325.33 350.96 326.92 345.84 327.21 340.50 C 326.03 341.14 324.44 341.46 324.03 342.94 Z" />
<path fill="var(--shirt-color, grey)" opacity="1.00" d=" M 410.02 130.74 C 412.71 129.60 415.46 128.60 418.24 127.66 C 417.19 129.66 416.18 131.68 415.17 133.70 C 413.45 132.72 411.73 131.74 410.02 130.74 Z" />
</g>
<g id="#4d4d4dff">
<path fill="#4d4d4d" opacity="1.00" d=" M 773.11 182.91 C 775.12 171.12 780.80 160.29 787.73 150.67 C 798.15 150.55 808.57 151.23 818.90 152.60 C 828.81 153.45 839.05 155.10 847.64 160.43 C 852.88 164.05 857.17 168.84 861.99 172.99 C 869.06 179.08 875.13 186.48 879.11 194.96 C 882.48 201.87 881.51 210.26 877.87 216.86 C 875.98 220.46 871.50 220.83 868.12 222.24 C 861.47 224.29 857.51 230.83 850.91 232.97 C 844.15 235.05 836.96 234.80 829.97 235.14 C 820.01 235.49 808.90 234.99 801.33 227.61 C 797.65 224.43 798.69 219.26 798.72 214.99 C 799.19 211.74 796.07 209.86 794.33 207.61 C 791.47 204.83 791.75 200.44 789.68 197.25 C 784.85 194.59 778.71 196.05 773.97 193.25 C 772.26 190.10 772.61 186.33 773.11 182.91 Z" />
<path fill="#4d4d4d" opacity="1.00" d=" M 243.97 542.74 C 250.96 546.29 256.44 552.28 263.81 555.16 C 273.04 559.36 284.44 560.34 293.19 554.45 C 292.67 557.25 292.47 560.28 290.66 562.63 C 279.32 577.17 268.84 592.38 258.94 607.95 C 256.12 612.14 254.14 616.90 250.85 620.76 C 245.74 625.59 238.93 628.48 232.00 629.43 C 227.46 630.25 223.90 626.82 220.39 624.56 C 214.24 620.19 206.69 618.56 200.26 614.73 C 197.15 613.07 196.94 609.06 197.38 605.99 C 198.79 595.66 203.31 585.92 209.84 577.84 C 213.31 573.34 218.08 569.64 220.02 564.12 C 221.15 561.71 221.40 558.49 224.03 557.16 C 231.12 553.07 239.87 550.47 243.97 542.74 Z" />
<path fill="#4d4d4d" opacity="1.00" d=" M 303.48 771.63 C 306.66 773.58 310.62 775.28 311.94 779.09 C 314.21 785.10 314.54 792.05 312.17 798.08 C 310.28 802.74 305.74 805.49 301.39 807.53 C 292.67 811.47 283.29 813.58 274.14 816.26 C 261.19 819.91 248.55 824.64 236.38 830.37 C 226.18 835.06 215.79 839.97 204.52 841.42 C 195.46 842.68 186.19 840.10 178.33 835.63 C 173.52 833.01 171.16 827.23 171.91 821.93 C 172.80 815.14 175.95 808.65 180.76 803.78 C 190.09 794.38 202.14 787.49 215.26 785.23 C 221.85 784.17 228.51 783.51 235.05 782.14 C 235.25 785.16 235.25 788.39 236.99 791.03 C 239.68 795.30 243.65 798.58 246.68 802.61 C 243.08 804.63 238.70 805.68 235.87 808.85 C 234.03 811.36 236.07 814.65 238.84 815.26 C 249.96 818.81 262.00 816.76 272.61 812.45 C 281.89 808.91 290.23 803.19 297.40 796.37 C 303.86 790.01 304.78 780.16 303.48 771.63 Z" />
<path fill="#4d4d4d" opacity="1.00" d=" M 434.35 909.25 C 437.97 907.61 443.24 907.68 445.57 911.40 C 449.80 917.59 450.42 925.40 453.87 931.99 C 459.27 942.36 459.41 954.31 462.43 965.41 C 463.36 969.92 465.61 975.26 462.42 979.38 C 459.77 983.46 454.43 984.05 450.00 984.33 C 433.21 984.36 416.80 980.32 400.53 976.63 C 397.87 975.68 393.86 975.14 393.24 971.83 C 393.23 968.72 395.04 966.01 396.24 963.26 C 399.64 956.57 402.15 949.49 404.27 942.31 C 405.53 938.67 406.36 934.73 408.74 931.63 C 412.85 929.92 417.75 929.46 420.85 925.90 C 426.24 921.08 428.35 913.40 434.35 909.25 Z" />
</g>
</svg>
