<?xml version="1.0" encoding="UTF-8" ?>
<!DOCTYPE svg PUBLIC "-//W3C//DTD SVG 1.1//EN" "http://www.w3.org/Graphics/SVG/1.1/DTD/svg11.dtd">
<svg width="1000pt" height="1000pt" viewBox="0 0 1000 1000" version="1.1" xmlns="http://www.w3.org/2000/svg">
<g id="#020202ff">
<path fill="#020202" opacity="1.00" d=" M 501.82 47.84 C 511.27 38.89 523.92 33.08 537.02 32.76 C 550.67 32.37 564.42 38.38 573.20 48.89 C 581.24 58.32 585.48 70.67 585.85 82.99 C 586.03 87.33 585.48 91.65 585.36 95.98 C 585.34 115.91 579.27 135.31 571.31 153.40 C 582.91 161.91 597.59 164.01 609.97 171.00 C 616.26 174.36 618.43 181.93 624.38 185.70 C 634.50 193.04 648.04 192.63 658.28 199.73 C 665.21 204.55 668.99 212.37 674.65 218.44 C 679.10 223.60 685.13 227.53 688.11 233.84 C 695.07 248.99 698.52 265.45 705.23 280.71 C 709.35 290.21 714.23 299.39 717.80 309.14 C 722.77 322.90 729.31 336.04 733.87 349.96 C 737.47 360.75 741.24 371.58 742.79 382.90 C 743.76 390.36 741.82 397.74 740.25 404.97 C 737.15 417.87 734.73 430.91 731.64 443.81 C 729.55 452.47 727.61 461.17 725.88 469.91 C 727.49 471.26 729.57 472.59 729.42 475.00 C 729.85 487.32 728.73 499.66 728.93 511.98 C 729.30 522.79 730.28 533.70 728.57 544.44 C 726.42 555.64 719.91 565.36 713.30 574.42 C 709.49 579.93 702.53 582.29 699.20 588.20 C 695.79 593.95 691.19 599.11 685.30 602.38 C 681.90 604.22 678.03 606.31 674.06 605.29 C 671.36 604.46 670.87 601.34 670.62 598.95 C 669.54 587.07 672.54 575.37 673.74 563.61 C 670.97 565.63 667.92 567.39 664.41 567.51 C 666.30 595.35 651.21 620.52 649.90 647.99 C 649.59 652.75 649.75 657.68 648.04 662.21 C 646.43 666.25 642.08 668.27 638.05 669.01 C 631.08 670.53 623.93 669.05 617.29 666.84 C 612.77 675.88 607.37 684.58 604.62 694.39 C 601.67 704.03 601.18 714.33 597.11 723.65 C 601.63 731.06 606.04 738.64 608.88 746.89 C 612.87 758.48 614.60 770.77 614.54 783.01 C 614.52 789.61 614.26 796.27 615.55 802.79 C 618.56 818.53 626.40 832.76 634.75 846.25 C 637.97 851.14 638.71 857.18 642.07 861.99 C 645.84 868.03 651.67 872.50 655.15 878.75 C 660.34 887.47 661.43 898.25 659.01 908.03 C 657.73 913.30 653.61 917.25 649.41 920.38 C 642.91 924.87 634.59 924.98 627.03 924.16 C 617.38 923.12 607.75 921.67 598.02 921.71 C 588.68 921.58 579.36 922.64 570.02 922.22 C 560.97 921.96 551.96 920.50 543.29 917.88 C 535.58 915.66 529.16 910.42 523.76 904.67 C 522.25 912.17 518.89 919.21 518.14 926.89 C 517.27 934.88 517.28 943.53 521.15 950.80 C 526.00 958.22 533.68 963.05 540.24 968.80 C 544.10 972.17 547.40 976.74 547.59 982.04 C 547.83 984.87 545.89 987.16 544.32 989.29 C 542.04 992.38 538.77 994.86 534.92 995.55 C 526.55 997.19 517.96 995.92 509.72 994.14 C 503.42 992.76 497.15 990.82 491.68 987.34 C 485.15 983.26 479.61 977.67 472.60 974.37 C 465.87 971.17 457.84 972.35 451.31 968.65 C 447.32 965.57 446.54 959.90 447.52 955.23 C 450.09 940.74 459.40 928.70 469.28 918.28 C 473.79 913.75 474.49 907.18 476.66 901.47 C 482.32 885.51 490.77 870.60 494.78 854.05 C 498.69 837.84 500.52 821.18 505.04 805.10 C 508.16 793.01 511.56 780.95 516.39 769.41 C 519.51 761.91 523.91 755.04 527.24 747.63 C 522.13 736.54 516.97 725.43 513.23 713.79 C 511.31 707.94 509.85 701.81 506.32 696.66 C 500.75 688.48 493.82 680.96 490.69 671.38 C 486.30 661.85 485.72 651.12 481.45 641.55 C 479.45 637.07 477.09 632.73 475.73 627.99 C 474.73 629.46 473.71 630.92 472.67 632.37 C 470.70 631.27 469.10 629.63 468.54 627.40 C 463.48 612.11 462.34 595.93 460.25 580.06 C 457.63 555.21 453.10 529.92 458.00 505.06 C 454.23 500.22 453.14 493.91 453.09 487.94 C 453.13 481.11 457.69 475.51 462.06 470.72 C 461.00 466.16 461.92 461.53 463.42 457.19 C 466.87 446.43 467.74 434.67 464.42 423.76 C 462.69 415.93 456.89 409.36 457.05 401.07 C 456.36 382.63 458.36 363.80 453.29 345.78 C 450.62 360.66 444.16 374.42 439.64 388.74 C 435.67 404.86 431.80 421.26 424.17 436.12 C 418.61 447.01 409.18 455.16 402.87 465.54 C 404.25 466.30 406.38 466.92 405.88 468.97 C 406.03 477.68 397.92 483.61 396.90 492.00 C 398.65 501.33 404.51 509.45 405.93 518.89 C 406.68 526.03 404.45 533.00 403.28 539.97 C 402.14 544.08 405.65 547.26 407.36 550.62 C 412.32 558.25 415.10 568.06 412.10 576.94 C 410.29 582.41 404.45 587.51 398.43 585.36 C 385.86 581.03 379.02 568.83 369.06 560.89 C 363.04 555.26 355.68 550.14 353.04 541.94 C 349.64 532.59 352.27 522.66 353.51 513.17 C 355.70 499.88 354.71 486.38 354.69 472.99 C 354.63 467.98 356.72 463.33 359.07 459.03 C 362.73 452.51 363.50 444.92 364.83 437.69 C 366.30 429.98 368.20 422.31 371.09 415.00 C 373.03 409.80 375.53 404.66 375.89 399.03 C 376.80 387.19 376.13 374.86 380.70 363.65 C 385.04 352.95 390.12 342.40 392.14 330.94 C 393.33 323.62 396.41 316.78 397.71 309.48 C 399.43 300.44 400.07 291.18 399.57 281.99 C 399.15 264.81 400.54 247.19 407.10 231.13 C 410.28 223.21 413.68 214.98 419.97 208.97 C 424.07 204.93 430.20 204.84 435.02 202.08 C 439.17 199.75 443.17 196.87 445.86 192.86 C 448.82 188.53 452.35 184.50 456.94 181.85 C 468.48 174.87 480.72 169.04 491.65 161.07 C 485.07 141.42 481.44 120.75 481.34 100.01 C 479.76 80.70 487.67 61.00 501.82 47.84 M 504.86 69.07 C 500.49 78.96 499.76 89.93 496.09 100.04 C 505.20 100.18 514.55 100.14 523.37 102.63 C 524.73 106.31 524.23 110.63 523.11 114.33 C 512.64 113.84 502.13 113.68 491.65 113.12 C 490.17 117.23 487.77 121.44 488.77 125.96 C 490.30 136.17 492.96 146.18 496.04 156.02 C 498.39 163.02 501.29 170.12 506.56 175.48 C 509.88 178.81 513.43 182.17 517.78 184.09 C 523.95 185.76 530.65 185.38 536.75 183.58 C 546.45 179.87 553.50 171.65 559.46 163.47 C 561.85 160.53 562.00 156.58 562.22 152.97 C 562.45 145.64 564.56 138.54 564.85 131.23 C 561.87 127.05 559.52 122.46 557.81 117.63 C 550.41 117.25 543.00 117.01 535.64 116.21 C 534.11 116.01 531.36 115.58 532.57 113.47 C 535.49 109.54 539.01 105.52 543.58 103.57 C 552.52 102.61 561.69 104.37 570.56 102.48 C 573.78 99.98 575.86 96.30 578.69 93.38 C 574.51 88.01 572.69 81.05 567.68 76.29 C 565.12 73.78 561.65 72.61 558.28 71.64 C 557.64 79.34 556.12 86.98 553.99 94.40 C 550.90 86.06 547.11 77.39 539.49 72.19 C 539.43 78.34 539.82 84.93 537.04 90.59 C 533.67 82.86 530.78 74.13 523.79 68.86 C 524.91 75.73 523.54 82.68 520.92 89.05 C 515.98 82.08 511.15 74.92 504.86 69.07 M 569.72 157.14 C 572.57 162.19 578.01 165.97 578.62 172.08 C 578.89 178.05 576.22 183.63 573.91 188.99 C 565.90 205.34 555.67 220.45 545.60 235.58 C 542.51 240.12 538.30 243.86 533.25 246.08 C 527.48 240.69 521.70 235.19 514.96 231.02 C 509.96 227.78 505.23 224.14 500.71 220.27 C 494.91 215.28 491.56 208.11 489.44 200.89 C 487.97 195.67 489.15 190.25 489.95 185.03 C 490.99 178.80 491.12 172.49 491.80 166.23 C 481.42 174.07 469.69 179.83 458.71 186.76 C 452.75 190.36 449.31 196.66 444.24 201.26 C 440.77 204.38 436.90 207.21 432.41 208.66 C 429.16 209.79 425.51 210.42 423.01 213.00 C 417.01 218.95 413.84 226.99 410.89 234.74 C 405.13 249.75 404.12 266.07 404.49 281.99 C 404.80 291.79 404.12 301.65 402.17 311.27 C 400.87 317.99 397.94 324.28 396.81 331.04 C 395.19 340.40 391.77 349.30 388.22 358.06 C 386.14 363.17 383.75 368.24 382.88 373.73 C 381.50 382.10 381.79 390.61 381.32 399.04 C 380.93 408.43 375.74 416.62 373.46 425.56 C 370.24 435.73 369.71 446.62 365.35 456.43 C 376.16 460.08 386.73 464.91 398.24 465.94 C 402.57 456.26 410.61 449.07 416.40 440.35 C 422.03 431.94 425.51 422.33 428.61 412.76 C 431.84 402.12 435.44 391.27 434.87 379.99 C 435.08 371.45 433.35 362.80 435.06 354.35 C 435.85 355.40 436.78 356.49 436.82 357.89 C 437.70 364.85 438.61 371.82 438.88 378.83 C 443.18 365.72 448.20 352.72 450.04 338.96 C 450.69 335.78 449.11 332.78 448.26 329.80 C 446.79 325.77 445.97 321.52 444.37 317.55 C 441.61 314.31 437.97 311.94 435.20 308.70 C 430.61 303.85 427.85 297.68 425.33 291.60 C 423.82 287.81 422.18 283.71 423.45 279.61 C 425.89 284.87 427.62 290.46 430.53 295.51 C 433.70 301.59 438.31 306.75 443.27 311.44 C 441.75 303.37 441.80 295.14 441.64 286.97 C 441.62 282.15 441.27 277.28 442.27 272.53 C 444.98 276.13 444.52 280.83 444.99 285.06 C 445.71 296.82 446.46 308.71 449.98 320.03 C 453.49 331.89 458.27 343.44 460.13 355.73 C 462.57 371.02 461.13 386.55 461.74 401.94 C 461.76 406.63 464.32 410.65 466.10 414.82 C 468.32 419.81 469.73 425.13 470.73 430.49 C 472.61 441.34 470.39 452.45 466.76 462.70 C 471.91 462.51 476.32 465.43 481.16 466.69 C 494.93 470.60 508.90 473.78 522.93 476.59 C 541.22 479.99 560.09 482.37 578.60 479.33 C 583.03 478.69 587.06 476.63 591.33 475.40 L 591.89 476.88 C 588.93 481.67 582.97 483.19 577.85 484.48 C 558.50 488.22 538.63 485.52 519.50 481.77 C 505.21 478.69 491.00 475.20 476.96 471.13 C 473.72 470.26 469.52 470.40 467.29 473.27 C 464.00 476.94 460.30 480.50 458.43 485.16 C 457.22 488.94 457.48 493.07 458.27 496.91 C 459.51 498.69 461.66 500.19 463.94 499.56 C 471.59 498.46 479.17 496.51 486.96 496.72 C 495.71 496.54 504.01 499.57 512.33 501.81 C 534.43 508.16 557.80 508.63 580.54 506.26 C 590.96 504.91 601.42 503.79 611.92 503.38 C 628.39 502.44 644.75 505.13 661.19 505.57 C 662.43 494.76 662.43 483.28 657.81 473.20 C 653.84 464.63 648.69 456.62 642.57 449.44 C 638.70 445.18 640.54 439.08 640.38 433.92 C 640.52 408.60 639.56 383.28 637.85 358.02 C 637.11 347.72 636.13 337.32 637.61 327.04 C 633.06 334.14 627.25 340.81 619.60 344.64 C 617.25 345.94 614.51 345.88 611.92 345.86 C 615.24 343.84 618.88 342.36 621.98 339.99 C 629.16 334.53 634.41 326.92 638.18 318.80 C 629.41 323.10 620.61 327.60 611.09 330.03 C 605.14 331.50 599.13 332.70 593.11 333.76 C 588.43 334.48 583.55 335.59 578.93 334.00 C 584.55 331.06 591.15 331.20 597.16 329.39 C 612.17 326.41 625.80 319.32 639.56 312.95 C 633.82 309.04 626.77 307.86 620.98 304.05 C 616.12 300.96 610.49 298.17 607.88 292.72 C 611.71 295.05 615.26 297.83 619.29 299.83 C 623.58 302.20 628.35 303.39 633.00 304.83 C 637.51 306.21 641.58 308.77 645.16 311.81 C 650.02 316.01 652.30 322.18 655.44 327.61 C 660.42 336.29 666.22 344.51 670.53 353.57 C 673.80 360.68 677.05 367.84 679.23 375.38 C 679.19 363.21 677.74 351.09 676.04 339.06 C 675.27 332.93 672.87 327.11 672.47 320.94 C 673.85 322.45 675.23 324.07 675.89 326.05 C 683.09 346.83 684.61 369.22 682.36 391.00 C 684.22 385.51 686.49 380.19 688.90 374.93 C 691.07 370.19 692.67 365.18 695.34 360.68 C 696.00 362.05 696.10 363.45 695.64 364.88 C 693.34 372.87 690.35 380.63 687.46 388.42 C 683.03 400.39 682.77 413.34 682.62 425.95 C 682.48 437.08 683.13 448.21 684.29 459.29 C 697.08 460.91 709.30 465.28 721.70 468.62 C 722.52 463.19 723.57 457.81 724.72 452.45 C 728.85 434.95 732.10 417.25 736.61 399.85 C 737.88 394.38 739.57 388.82 738.91 383.16 C 737.51 372.30 733.60 362.03 730.14 351.71 C 726.91 342.30 722.81 333.23 718.98 324.06 C 715.48 315.78 712.70 307.22 708.94 299.05 C 705.85 291.89 698.90 287.68 693.33 282.63 C 685.76 276.24 680.34 267.79 675.84 259.07 C 673.66 254.64 670.19 250.75 669.38 245.75 C 673.29 248.90 675.65 253.41 678.54 257.42 C 682.99 263.64 686.82 270.35 692.12 275.92 C 695.32 279.35 699.04 282.23 702.54 285.34 C 696.11 271.75 692.42 257.11 687.12 243.08 C 685.55 238.85 684.06 234.41 680.91 231.04 C 677.24 227.07 673.07 223.56 669.68 219.34 C 664.91 213.78 661.56 206.82 655.20 202.79 C 644.39 195.82 630.36 195.94 620.12 187.83 C 614.86 184.12 612.61 177.31 606.72 174.35 C 594.72 167.88 580.65 165.69 569.72 157.14 M 567.20 160.86 C 561.89 169.38 555.44 177.37 547.25 183.28 C 539.01 190.04 527.35 190.69 517.27 188.83 C 507.76 185.60 500.05 178.04 495.25 169.34 C 495.06 175.29 494.76 181.25 493.76 187.13 C 493.14 191.43 492.13 195.94 493.62 200.18 C 495.59 205.77 498.04 211.46 502.42 215.62 C 507.67 220.48 513.54 224.61 519.46 228.60 C 524.52 232.12 528.66 236.74 533.10 240.99 C 539.73 236.91 543.57 229.97 547.67 223.61 C 551.64 217.58 555.83 211.69 559.37 205.38 C 564.94 195.62 571.22 185.99 574.04 174.99 C 575.73 169.07 569.73 165.41 567.20 160.86 M 644.32 316.68 C 643.49 322.10 642.39 327.48 642.03 332.97 C 641.49 340.73 642.24 348.49 642.80 356.23 C 644.73 382.44 645.90 408.72 645.50 435.01 C 645.67 438.98 643.85 443.78 647.11 446.95 C 653.00 453.67 657.74 461.33 661.69 469.33 C 664.69 475.44 666.33 482.18 666.45 488.99 C 667.07 497.37 664.37 505.60 665.58 513.98 C 667.36 505.70 673.95 499.27 674.72 490.69 C 675.51 481.60 673.93 472.37 675.50 463.34 C 675.86 460.57 678.72 459.98 680.94 459.30 C 678.20 445.02 678.76 430.40 678.47 415.94 C 677.16 406.67 678.89 397.36 678.67 388.08 C 674.43 368.29 664.81 350.07 653.88 333.19 C 650.51 327.79 647.87 321.96 644.32 316.68 M 363.37 461.06 C 361.15 465.01 359.02 469.26 359.23 473.92 C 359.36 484.95 360.09 496.02 359.03 507.02 C 358.35 514.70 356.66 522.25 356.20 529.95 C 355.83 535.88 357.33 542.12 361.26 546.70 C 366.87 553.10 373.90 558.06 379.69 564.29 C 384.54 569.43 388.76 575.49 395.13 578.91 C 397.20 579.94 399.59 581.07 401.95 580.37 C 405.19 578.95 406.71 575.32 407.11 572.02 C 407.89 565.30 405.53 558.65 401.98 553.04 C 399.91 549.29 396.67 545.58 397.22 541.01 C 397.99 533.66 400.87 526.50 400.19 519.04 C 398.52 509.67 392.79 501.45 391.46 492.01 C 392.10 484.25 397.29 477.94 400.85 471.30 C 387.68 471.09 375.36 465.98 363.37 461.06 M 679.25 464.07 C 678.16 473.95 680.55 484.02 678.82 493.89 C 677.54 501.34 672.27 507.25 670.49 514.53 C 667.94 524.13 666.84 534.04 665.37 543.85 C 664.43 550.17 664.99 556.60 666.38 562.82 C 670.83 560.65 672.90 556.07 675.04 551.91 C 679.07 553.53 678.47 558.43 678.56 561.98 C 677.85 575.18 672.97 588.15 675.12 601.47 C 683.47 600.40 690.29 594.46 694.35 587.35 C 696.42 583.57 699.27 580.28 702.79 577.80 C 708.10 574.05 711.64 568.50 715.11 563.13 C 719.12 556.61 722.96 549.71 724.08 542.03 C 725.95 529.41 723.78 516.68 724.25 504.01 C 724.56 494.08 724.91 484.14 725.29 474.21 C 715.24 470.69 704.87 468.23 694.60 465.49 C 689.58 464.56 684.33 462.63 679.25 464.07 M 515.04 596.20 C 499.12 599.57 485.83 610.81 477.67 624.62 C 482.94 633.17 487.45 642.33 489.25 652.29 C 490.51 645.37 489.35 638.35 490.00 631.41 C 490.66 632.24 491.27 633.12 491.83 634.05 C 494.94 643.39 493.31 653.33 493.70 662.95 C 494.57 674.96 503.08 683.99 509.66 693.35 C 513.45 698.64 515.28 704.95 517.17 711.09 C 524.09 704.59 532.53 700.02 541.13 696.14 C 549.76 692.34 558.68 688.93 568.06 687.51 C 564.19 680.12 562.11 671.93 561.22 663.68 C 559.06 644.23 558.33 624.67 557.16 605.16 C 545.05 596.68 529.59 592.83 515.04 596.20 M 565.56 654.12 C 566.34 665.70 567.87 677.67 574.19 687.70 C 580.28 698.13 587.53 707.82 593.73 718.19 C 596.15 709.45 596.96 700.33 599.73 691.69 C 602.65 682.14 607.77 673.49 612.95 665.03 C 606.77 662.05 600.71 658.62 593.98 657.02 C 584.68 654.82 575.10 654.07 565.56 654.12 M 561.16 835.18 C 553.24 846.34 546.32 858.22 540.68 870.69 C 544.95 870.51 549.25 870.51 553.47 869.77 C 562.28 868.45 570.12 863.48 576.45 857.40 C 579.21 854.91 580.29 851.28 580.95 847.75 C 576.21 840.47 572.21 832.76 568.18 825.08 C 565.97 828.54 563.58 831.87 561.16 835.18 M 585.24 851.70 C 584.25 855.18 582.87 858.68 580.17 861.20 C 573.26 867.96 564.57 873.24 554.98 874.97 C 546.01 876.79 536.43 874.96 527.88 878.81 C 524.68 880.14 520.55 882.12 520.31 886.05 C 520.89 892.32 524.89 897.59 528.57 902.45 C 531.49 906.27 535.26 909.50 539.82 911.16 C 553.15 916.38 567.72 917.80 581.93 916.82 C 589.56 916.29 597.21 915.91 604.86 916.28 C 613.60 916.60 622.23 918.10 630.94 918.82 C 637.26 919.35 644.21 918.50 649.09 914.05 C 655.43 908.92 655.18 899.79 654.45 892.44 C 653.07 881.48 644.34 873.98 638.82 865.07 C 637.07 868.84 634.11 872.20 629.85 873.01 C 622.34 875.56 615.67 870.11 609.75 866.30 C 602.02 860.73 594.21 855.14 585.24 851.70 M 487.41 929.53 C 484.41 931.24 480.74 933.51 477.24 931.83 C 473.72 930.11 473.39 925.71 472.42 922.40 C 464.60 930.70 457.50 940.01 454.05 951.03 C 452.92 955.03 451.00 959.82 453.32 963.74 C 458.01 966.58 463.80 965.98 468.98 967.26 C 478.05 968.97 484.83 975.67 492.13 980.78 C 497.20 984.47 503.27 986.45 509.35 987.76 C 516.91 989.36 524.69 990.46 532.42 989.67 C 536.72 989.27 540.57 986.52 542.80 982.91 C 542.75 978.58 539.67 975.11 536.52 972.51 C 529.12 966.68 520.95 961.10 516.18 952.75 C 511.38 942.75 511.95 930.95 514.81 920.47 C 510.90 920.88 506.98 919.86 503.10 920.27 C 497.24 922.13 492.68 926.52 487.41 929.53 Z" />
<path fill="#020202" opacity="1.00" d=" M 523.16 136.11 C 526.97 131.08 528.51 124.78 532.00 119.57 C 533.30 129.53 530.92 139.53 529.42 149.34 C 527.37 147.53 525.68 145.05 522.93 144.28 C 521.35 143.81 519.80 143.28 518.43 142.35 C 519.88 140.18 521.55 138.16 523.16 136.11 Z" />
<path fill="#020202" opacity="1.00" d=" M 471.77 192.75 C 473.35 191.23 475.65 189.65 477.88 190.88 C 477.91 192.76 476.32 193.96 475.31 195.34 C 471.77 199.40 469.76 204.44 467.16 209.09 C 462.71 217.27 457.65 225.10 453.42 233.40 C 451.16 237.37 449.71 242.01 446.04 244.98 C 446.07 242.44 446.47 239.90 447.57 237.60 C 452.15 227.08 457.68 217.01 462.79 206.74 C 465.34 201.83 467.73 196.65 471.77 192.75 Z" />
<path fill="#020202" opacity="1.00" d=" M 501.45 366.18 C 505.48 368.39 507.35 372.74 509.49 376.56 C 514.30 385.77 518.80 395.35 525.87 403.11 C 534.97 413.67 548.09 419.47 560.94 424.08 C 564.72 425.71 569.28 427.13 571.34 431.01 C 572.42 433.63 570.13 436.10 567.71 436.75 C 559.35 439.26 550.52 437.92 541.94 438.07 C 537.26 438.13 532.73 439.67 528.03 439.48 C 532.28 434.90 539.11 434.08 545.04 433.75 C 552.17 433.72 559.38 433.84 566.36 432.14 C 560.67 428.48 554.07 426.78 548.00 423.93 C 537.52 419.20 527.51 412.78 520.47 403.54 C 513.04 394.58 509.05 383.54 503.74 373.33 C 502.54 371.11 501.80 368.67 501.45 366.18 Z" />
<path fill="#020202" opacity="1.00" d=" M 623.73 424.73 C 627.37 421.26 630.41 416.92 634.98 414.59 C 637.19 414.26 637.15 416.78 635.91 417.87 C 629.55 424.81 623.86 432.60 615.90 437.85 C 603.29 446.35 588.69 451.36 574.03 454.99 C 561.51 458.14 548.34 456.82 535.92 460.43 C 548.62 461.19 561.34 461.83 573.95 463.56 C 583.96 464.72 593.90 466.90 604.02 466.65 C 608.07 466.57 612.03 465.63 616.08 465.47 C 614.33 467.46 612.16 469.17 609.48 469.58 C 601.50 471.20 593.27 470.53 585.23 469.80 C 566.29 467.43 547.24 465.36 528.12 465.42 C 525.49 465.83 523.48 462.58 525.68 460.70 C 532.55 454.65 542.15 453.51 550.91 452.64 C 562.10 452.02 573.29 450.40 583.96 446.87 C 598.44 442.26 613.32 436.28 623.73 424.73 Z" />
<path fill="#020202" opacity="1.00" d=" M 541.26 888.68 C 544.11 887.79 547.13 887.56 550.07 888.21 C 559.77 889.93 569.40 892.16 578.79 895.18 C 585.79 897.36 593.12 899.64 600.53 898.36 C 609.77 896.75 618.56 892.85 628.03 892.50 C 634.60 892.27 642.12 891.96 647.50 896.41 C 649.54 897.85 649.41 900.43 649.47 902.67 C 647.23 900.47 644.95 897.95 641.69 897.45 C 628.46 894.81 615.64 900.07 602.98 903.01 C 590.15 905.87 578.01 899.64 566.17 895.70 C 558.06 892.67 549.47 891.34 541.26 888.68 Z" />
</g>
<g id="#f0b58bff">
<path fill="#f0b58b" opacity="1.00" d=" M 504.86 69.07 C 511.15 74.92 515.98 82.08 520.92 89.05 C 523.54 82.68 524.91 75.73 523.79 68.86 C 530.78 74.13 533.67 82.86 537.04 90.59 C 539.82 84.93 539.43 78.34 539.49 72.19 C 547.11 77.39 550.90 86.06 553.99 94.40 C 556.12 86.98 557.64 79.34 558.28 71.64 C 561.65 72.61 565.12 73.78 567.68 76.29 C 572.69 81.05 574.51 88.01 578.69 93.38 C 575.86 96.30 573.78 99.98 570.56 102.48 C 561.69 104.37 552.52 102.61 543.58 103.57 C 539.01 105.52 535.49 109.54 532.57 113.47 C 531.36 115.58 534.11 116.01 535.64 116.21 C 543.00 117.01 550.41 117.25 557.81 117.63 C 559.52 122.46 561.87 127.05 564.85 131.23 C 564.56 138.54 562.45 145.64 562.22 152.97 C 562.00 156.58 561.85 160.53 559.46 163.47 C 553.50 171.65 546.45 179.87 536.75 183.58 C 530.65 185.38 523.95 185.76 517.78 184.09 C 513.43 182.17 509.88 178.81 506.56 175.48 C 501.29 170.12 498.39 163.02 496.04 156.02 C 492.96 146.18 490.30 136.17 488.77 125.96 C 487.77 121.44 490.17 117.23 491.65 113.12 C 502.13 113.68 512.64 113.84 523.11 114.33 C 524.23 110.63 524.73 106.31 523.37 102.63 C 514.55 100.14 505.20 100.18 496.09 100.04 C 499.76 89.93 500.49 78.96 504.86 69.07 M 523.16 136.11 C 521.55 138.16 519.88 140.18 518.43 142.35 C 519.80 143.28 521.35 143.81 522.93 144.28 C 525.68 145.05 527.37 147.53 529.42 149.34 C 530.92 139.53 533.30 129.53 532.00 119.57 C 528.51 124.78 526.97 131.08 523.16 136.11 Z" />
<path fill="#f0b58b" opacity="1.00" d=" M 567.20 160.86 C 569.73 165.41 575.73 169.07 574.04 174.99 C 571.22 185.99 564.94 195.62 559.37 205.38 C 555.83 211.69 551.64 217.58 547.67 223.61 C 543.57 229.97 539.73 236.91 533.10 240.99 C 528.66 236.74 524.52 232.12 519.46 228.60 C 513.54 224.61 507.67 220.48 502.42 215.62 C 498.04 211.46 495.59 205.77 493.62 200.18 C 492.13 195.94 493.14 191.43 493.76 187.13 C 494.76 181.25 495.06 175.29 495.25 169.34 C 500.05 178.04 507.76 185.60 517.27 188.83 C 527.35 190.69 539.01 190.04 547.25 183.28 C 555.44 177.37 561.89 169.38 567.20 160.86 Z" />
<path fill="#f0b58b" opacity="1.00" d=" M 515.04 596.20 C 529.59 592.83 545.05 596.68 557.16 605.16 C 558.33 624.67 559.06 644.23 561.22 663.68 C 562.11 671.93 564.19 680.12 568.06 687.51 C 558.68 688.93 549.76 692.34 541.13 696.14 C 532.53 700.02 524.09 704.59 517.17 711.09 C 515.28 704.95 513.45 698.64 509.66 693.35 C 503.08 683.99 494.57 674.96 493.70 662.95 C 493.31 653.33 494.94 643.39 491.83 634.05 C 491.27 633.12 490.66 632.24 490.00 631.41 C 489.35 638.35 490.51 645.37 489.25 652.29 C 487.45 642.33 482.94 633.17 477.67 624.62 C 485.83 610.81 499.12 599.57 515.04 596.20 Z" />
<path fill="#f0b58b" opacity="1.00" d=" M 565.56 654.12 C 575.10 654.07 584.68 654.82 593.98 657.02 C 600.71 658.62 606.77 662.05 612.95 665.03 C 607.77 673.49 602.65 682.14 599.73 691.69 C 596.96 700.33 596.15 709.45 593.73 718.19 C 587.53 707.82 580.28 698.13 574.19 687.70 C 567.87 677.67 566.34 665.70 565.56 654.12 Z" />
</g>
<g id="#f35e11ff">
<path fill="var(--shirt-color, grey)" opacity="1.00" d=" M 569.72 157.14 C 580.65 165.69 594.72 167.88 606.72 174.35 C 612.61 177.31 614.86 184.12 620.12 187.83 C 630.36 195.94 644.39 195.82 655.20 202.79 C 661.56 206.82 664.91 213.78 669.68 219.34 C 673.07 223.56 677.24 227.07 680.91 231.04 C 684.06 234.41 685.55 238.85 687.12 243.08 C 692.42 257.11 696.11 271.75 702.54 285.34 C 699.04 282.23 695.32 279.35 692.12 275.92 C 686.82 270.35 682.99 263.64 678.54 257.42 C 675.65 253.41 673.29 248.90 669.38 245.75 C 670.19 250.75 673.66 254.64 675.84 259.07 C 680.34 267.79 685.76 276.24 693.33 282.63 C 698.90 287.68 705.85 291.89 708.94 299.05 C 712.70 307.22 715.48 315.78 718.98 324.06 C 722.81 333.23 726.91 342.30 730.14 351.71 C 733.60 362.03 737.51 372.30 738.91 383.16 C 739.57 388.82 737.88 394.38 736.61 399.85 C 732.10 417.25 728.85 434.95 724.72 452.45 C 723.57 457.81 722.52 463.19 721.70 468.62 C 709.30 465.28 697.08 460.91 684.29 459.29 C 683.13 448.21 682.48 437.08 682.62 425.95 C 682.77 413.34 683.03 400.39 687.46 388.42 C 690.35 380.63 693.34 372.87 695.64 364.88 C 696.10 363.45 696.00 362.05 695.34 360.68 C 692.67 365.18 691.07 370.19 688.90 374.93 C 686.49 380.19 684.22 385.51 682.36 391.00 C 684.61 369.22 683.09 346.83 675.89 326.05 C 675.23 324.07 673.85 322.45 672.47 320.94 C 672.87 327.11 675.27 332.93 676.04 339.06 C 677.74 351.09 679.19 363.21 679.23 375.38 C 677.05 367.84 673.80 360.68 670.53 353.57 C 666.22 344.51 660.42 336.29 655.44 327.61 C 652.30 322.18 650.02 316.01 645.16 311.81 C 641.58 308.77 637.51 306.21 633.00 304.83 C 628.35 303.39 623.58 302.20 619.29 299.83 C 615.26 297.83 611.71 295.05 607.88 292.72 C 610.49 298.17 616.12 300.96 620.98 304.05 C 626.77 307.86 633.82 309.04 639.56 312.95 C 625.80 319.32 612.17 326.41 597.16 329.39 C 591.15 331.20 584.55 331.06 578.93 334.00 C 583.55 335.59 588.43 334.48 593.11 333.76 C 599.13 332.70 605.14 331.50 611.09 330.03 C 620.61 327.60 629.41 323.10 638.18 318.80 C 634.41 326.92 629.16 334.53 621.98 339.99 C 618.88 342.36 615.24 343.84 611.92 345.86 C 614.51 345.88 617.25 345.94 619.60 344.64 C 627.25 340.81 633.06 334.14 637.61 327.04 C 636.13 337.32 637.11 347.72 637.85 358.02 C 639.56 383.28 640.52 408.60 640.38 433.92 C 640.54 439.08 638.70 445.18 642.57 449.44 C 648.69 456.62 653.84 464.63 657.81 473.20 C 662.43 483.28 662.43 494.76 661.19 505.57 C 644.75 505.13 628.39 502.44 611.92 503.38 C 601.42 503.79 590.96 504.91 580.54 506.26 C 557.80 508.63 534.43 508.16 512.33 501.81 C 504.01 499.57 495.71 496.54 486.96 496.72 C 479.17 496.51 471.59 498.46 463.94 499.56 C 461.66 500.19 459.51 498.69 458.27 496.91 C 457.48 493.07 457.22 488.94 458.43 485.16 C 460.30 480.50 464.00 476.94 467.29 473.27 C 469.52 470.40 473.72 470.26 476.96 471.13 C 491.00 475.20 505.21 478.69 519.50 481.77 C 538.63 485.52 558.50 488.22 577.85 484.48 C 582.97 483.19 588.93 481.67 591.89 476.88 L 591.33 475.40 C 587.06 476.63 583.03 478.69 578.60 479.33 C 560.09 482.37 541.22 479.99 522.93 476.59 C 508.90 473.78 494.93 470.60 481.16 466.69 C 476.32 465.43 471.91 462.51 466.76 462.70 C 470.39 452.45 472.61 441.34 470.73 430.49 C 469.73 425.13 468.32 419.81 466.10 414.82 C 464.32 410.65 461.76 406.63 461.74 401.94 C 461.13 386.55 462.57 371.02 460.13 355.73 C 458.27 343.44 453.49 331.89 449.98 320.03 C 446.46 308.71 445.71 296.82 444.99 285.06 C 444.52 280.83 444.98 276.13 442.27 272.53 C 441.27 277.28 441.62 282.15 441.64 286.97 C 441.80 295.14 441.75 303.37 443.27 311.44 C 438.31 306.75 433.70 301.59 430.53 295.51 C 427.62 290.46 425.89 284.87 423.45 279.61 C 422.18 283.71 423.82 287.81 425.33 291.60 C 427.85 297.68 430.61 303.85 435.20 308.70 C 437.97 311.94 441.61 314.31 444.37 317.55 C 445.97 321.52 446.79 325.77 448.26 329.80 C 449.11 332.78 450.69 335.78 450.04 338.96 C 448.20 352.72 443.18 365.72 438.88 378.83 C 438.61 371.82 437.70 364.85 436.82 357.89 C 436.78 356.49 435.85 355.40 435.06 354.35 C 433.35 362.80 435.08 371.45 434.87 379.99 C 435.44 391.27 431.84 402.12 428.61 412.76 C 425.51 422.33 422.03 431.94 416.40 440.35 C 410.61 449.07 402.57 456.26 398.24 465.94 C 386.73 464.91 376.16 460.08 365.35 456.43 C 369.71 446.62 370.24 435.73 373.46 425.56 C 375.74 416.62 380.93 408.43 381.32 399.04 C 381.79 390.61 381.50 382.10 382.88 373.73 C 383.75 368.24 386.14 363.17 388.22 358.06 C 391.77 349.30 395.19 340.40 396.81 331.04 C 397.94 324.28 400.87 317.99 402.17 311.27 C 404.12 301.65 404.80 291.79 404.49 281.99 C 404.12 266.07 405.13 249.75 410.89 234.74 C 413.84 226.99 417.01 218.95 423.01 213.00 C 425.51 210.42 429.16 209.79 432.41 208.66 C 436.90 207.21 440.77 204.38 444.24 201.26 C 449.31 196.66 452.75 190.36 458.71 186.76 C 469.69 179.83 481.42 174.07 491.80 166.23 C 491.12 172.49 490.99 178.80 489.95 185.03 C 489.15 190.25 487.97 195.67 489.44 200.89 C 491.56 208.11 494.91 215.28 500.71 220.27 C 505.23 224.14 509.96 227.78 514.96 231.02 C 521.70 235.19 527.48 240.69 533.25 246.08 C 538.30 243.86 542.51 240.12 545.60 235.58 C 555.67 220.45 565.90 205.34 573.91 188.99 C 576.22 183.63 578.89 178.05 578.62 172.08 C 578.01 165.97 572.57 162.19 569.72 157.14 M 471.77 192.75 C 467.73 196.65 465.34 201.83 462.79 206.74 C 457.68 217.01 452.15 227.08 447.57 237.60 C 446.47 239.90 446.07 242.44 446.04 244.98 C 449.71 242.01 451.16 237.37 453.42 233.40 C 457.65 225.10 462.71 217.27 467.16 209.09 C 469.76 204.44 471.77 199.40 475.31 195.34 C 476.32 193.96 477.91 192.76 477.88 190.88 C 475.65 189.65 473.35 191.23 471.77 192.75 M 501.45 366.18 C 501.80 368.67 502.54 371.11 503.74 373.33 C 509.05 383.54 513.04 394.58 520.47 403.54 C 527.51 412.78 537.52 419.20 548.00 423.93 C 554.07 426.78 560.67 428.48 566.36 432.14 C 559.38 433.84 552.17 433.72 545.04 433.75 C 539.11 434.08 532.28 434.90 528.03 439.48 C 532.73 439.67 537.26 438.13 541.94 438.07 C 550.52 437.92 559.35 439.26 567.71 436.75 C 570.13 436.10 572.42 433.63 571.34 431.01 C 569.28 427.13 564.72 425.71 560.94 424.08 C 548.09 419.47 534.97 413.67 525.87 403.11 C 518.80 395.35 514.30 385.77 509.49 376.56 C 507.35 372.74 505.48 368.39 501.45 366.18 M 623.73 424.73 C 613.32 436.28 598.44 442.26 583.96 446.87 C 573.29 450.40 562.10 452.02 550.91 452.64 C 542.15 453.51 532.55 454.65 525.68 460.70 C 523.48 462.58 525.49 465.83 528.12 465.42 C 547.24 465.36 566.29 467.43 585.23 469.80 C 593.27 470.53 601.50 471.20 609.48 469.58 C 612.16 469.17 614.33 467.46 616.08 465.47 C 612.03 465.63 608.07 466.57 604.02 466.65 C 593.90 466.90 583.96 464.72 573.95 463.56 C 561.34 461.83 548.62 461.19 535.92 460.43 C 548.34 456.82 561.51 458.14 574.03 454.99 C 588.69 451.36 603.29 446.35 615.90 437.85 C 623.86 432.60 629.55 424.81 635.91 417.87 C 637.15 416.78 637.19 414.26 634.98 414.59 C 630.41 416.92 627.37 421.26 623.73 424.73 Z" />
</g>
<g id="#4d4d4dff">
<path fill="#4d4d4d" opacity="1.00" d=" M 363.37 461.06 C 375.36 465.98 387.68 471.09 400.85 471.30 C 397.29 477.94 392.10 484.25 391.46 492.01 C 392.79 501.45 398.52 509.67 400.19 519.04 C 400.87 526.50 397.99 533.66 397.22 541.01 C 396.67 545.58 399.91 549.29 401.98 553.04 C 405.53 558.65 407.89 565.30 407.11 572.02 C 406.71 575.32 405.19 578.95 401.95 580.37 C 399.59 581.07 397.20 579.94 395.13 578.91 C 388.76 575.49 384.54 569.43 379.69 564.29 C 373.90 558.06 366.87 553.10 361.26 546.70 C 357.33 542.12 355.83 535.88 356.20 529.95 C 356.66 522.25 358.35 514.70 359.03 507.02 C 360.09 496.02 359.36 484.95 359.23 473.92 C 359.02 469.26 361.15 465.01 363.37 461.06 Z" />
<path fill="#4d4d4d" opacity="1.00" d=" M 679.25 464.07 C 684.33 462.63 689.58 464.56 694.60 465.49 C 704.87 468.23 715.24 470.69 725.29 474.21 C 724.91 484.14 724.56 494.08 724.25 504.01 C 723.78 516.68 725.95 529.41 724.08 542.03 C 722.96 549.71 719.12 556.61 715.11 563.13 C 711.64 568.50 708.10 574.05 702.79 577.80 C 699.27 580.28 696.42 583.57 694.35 587.35 C 690.29 594.46 683.47 600.40 675.12 601.47 C 672.97 588.15 677.85 575.18 678.56 561.98 C 678.47 558.43 679.07 553.53 675.04 551.91 C 672.90 556.07 670.83 560.65 666.38 562.82 C 664.99 556.60 664.43 550.17 665.37 543.85 C 666.84 534.04 667.94 524.13 670.49 514.53 C 672.27 507.25 677.54 501.34 678.82 493.89 C 680.55 484.02 678.16 473.95 679.25 464.07 Z" />
<path fill="#4d4d4d" opacity="1.00" d=" M 585.24 851.70 C 594.21 855.14 602.02 860.73 609.75 866.30 C 615.67 870.11 622.34 875.56 629.85 873.01 C 634.11 872.20 637.07 868.84 638.82 865.07 C 644.34 873.98 653.07 881.48 654.45 892.44 C 655.18 899.79 655.43 908.92 649.09 914.05 C 644.21 918.50 637.26 919.35 630.94 918.82 C 622.23 918.10 613.60 916.60 604.86 916.28 C 597.21 915.91 589.56 916.29 581.93 916.82 C 567.72 917.80 553.15 916.38 539.82 911.16 C 535.26 909.50 531.49 906.27 528.57 902.45 C 524.89 897.59 520.89 892.32 520.31 886.05 C 520.55 882.12 524.68 880.14 527.88 878.81 C 536.43 874.96 546.01 876.79 554.98 874.97 C 564.57 873.24 573.26 867.96 580.17 861.20 C 582.87 858.68 584.25 855.18 585.24 851.70 M 541.26 888.68 C 549.47 891.34 558.06 892.67 566.17 895.70 C 578.01 899.64 590.15 905.87 602.98 903.01 C 615.64 900.07 628.46 894.81 641.69 897.45 C 644.95 897.95 647.23 900.47 649.47 902.67 C 649.41 900.43 649.54 897.85 647.50 896.41 C 642.12 891.96 634.60 892.27 628.03 892.50 C 618.56 892.85 609.77 896.75 600.53 898.36 C 593.12 899.64 585.79 897.36 578.79 895.18 C 569.40 892.16 559.77 889.93 550.07 888.21 C 547.13 887.56 544.11 887.79 541.26 888.68 Z" />
<path fill="#4d4d4d" opacity="1.00" d=" M 487.41 929.53 C 492.68 926.52 497.24 922.13 503.10 920.27 C 506.98 919.86 510.90 920.88 514.81 920.47 C 511.95 930.95 511.38 942.75 516.18 952.75 C 520.95 961.10 529.12 966.68 536.52 972.51 C 539.67 975.11 542.75 978.58 542.80 982.91 C 540.57 986.52 536.72 989.27 532.42 989.67 C 524.69 990.46 516.91 989.36 509.35 987.76 C 503.27 986.45 497.20 984.47 492.13 980.78 C 484.83 975.67 478.05 968.97 468.98 967.26 C 463.80 965.98 458.01 966.58 453.32 963.74 C 451.00 959.82 452.92 955.03 454.05 951.03 C 457.50 940.01 464.60 930.70 472.42 922.40 C 473.39 925.71 473.72 930.11 477.24 931.83 C 480.74 933.51 484.41 931.24 487.41 929.53 Z" />
</g>
</svg>
