<?xml version="1.0" encoding="UTF-8" ?>
<!DOCTYPE svg PUBLIC "-//W3C//DTD SVG 1.1//EN" "http://www.w3.org/Graphics/SVG/1.1/DTD/svg11.dtd">
<svg width="1000pt" height="1000pt" viewBox="0 0 1000 1000" version="1.1" xmlns="http://www.w3.org/2000/svg">
	<g id="#020202ff">
		<path fill="#020202" opacity="1.00"
			d=" M 491.19 23.31 C 509.07 18.35 529.40 20.33 544.86 31.07 C 558.14 39.01 567.50 52.60 571.38 67.46 C 574.03 77.66 574.11 88.97 569.61 98.66 C 568.45 101.45 565.87 103.74 565.89 106.92 C 565.39 116.77 566.15 126.81 563.55 136.42 C 561.63 144.96 557.40 152.68 553.36 160.36 C 550.62 165.46 547.39 170.28 544.09 175.02 C 542.26 177.52 540.14 180.36 536.83 180.75 C 533.23 181.10 529.93 179.20 526.69 177.91 C 525.97 179.07 525.26 180.23 524.55 181.39 C 540.13 188.63 549.72 203.81 563.53 213.51 C 571.13 218.76 578.20 224.83 584.18 231.91 C 592.57 242.24 599.52 253.72 605.38 265.66 C 611.28 277.60 615.43 290.35 621.99 301.97 C 630.31 317.27 638.61 333.69 638.55 351.50 C 653.27 360.70 664.92 373.76 678.08 384.91 C 685.19 390.77 691.73 397.29 698.95 403.02 C 705.24 408.36 714.16 409.36 722.09 408.39 C 728.12 407.88 733.98 405.81 740.07 406.01 C 744.64 406.12 748.06 409.54 752.18 411.02 C 755.01 411.70 758.25 411.44 760.60 413.48 C 767.03 418.49 772.09 425.19 775.49 432.59 C 776.94 435.85 778.19 439.41 777.75 443.05 C 777.31 446.50 774.51 449.64 771.01 450.14 C 766.99 449.23 763.27 446.55 758.97 447.34 C 738.62 450.41 717.34 448.71 698.19 440.93 C 688.13 437.08 677.74 434.21 667.69 430.35 C 660.46 427.50 653.74 423.54 646.69 420.29 C 640.66 417.59 635.11 413.97 629.57 410.40 C 619.05 403.57 608.74 396.27 599.72 387.54 C 593.85 389.89 587.52 392.38 581.10 391.15 C 578.80 390.25 577.03 388.44 575.17 386.88 C 570.56 382.71 566.07 378.42 561.50 374.21 C 562.18 381.46 563.11 388.72 563.05 396.03 C 563.01 401.14 561.23 406.00 560.58 411.03 C 559.78 418.75 562.75 426.30 562.06 434.03 C 561.45 440.68 558.86 447.11 554.75 452.37 C 555.41 455.10 556.08 457.88 557.55 460.31 C 559.54 463.96 562.74 466.90 564.08 470.90 C 565.64 475.68 564.60 480.80 565.51 485.66 C 567.55 489.96 572.08 492.67 573.52 497.36 C 575.19 501.28 574.26 505.52 573.13 509.44 C 584.90 516.95 594.29 527.74 601.25 539.76 C 606.23 547.86 609.90 556.72 615.53 564.42 C 626.62 579.13 638.44 593.46 647.24 609.72 C 649.74 614.84 653.13 620.64 650.78 626.45 C 658.04 634.38 663.69 643.58 669.28 652.71 C 673.95 660.82 679.48 668.64 682.03 677.76 C 684.51 687.17 683.96 697.36 680.45 706.44 C 678.71 711.18 676.17 715.60 674.63 720.42 C 672.62 726.76 673.77 733.47 673.55 740.00 C 673.20 759.58 671.08 779.22 666.05 798.19 C 663.23 809.60 659.36 820.70 655.59 831.82 C 649.78 850.25 644.61 868.91 640.92 887.90 C 638.78 898.46 635.48 908.79 634.45 919.55 C 641.50 920.21 647.58 924.02 653.74 927.18 C 664.00 932.59 675.42 935.05 686.42 938.48 C 693.38 940.69 700.98 942.44 706.37 947.71 C 710.15 951.24 711.36 957.74 707.80 961.85 C 704.04 967.21 697.37 968.94 691.38 970.48 C 668.47 975.80 645.10 978.59 621.92 982.36 C 612.70 984.52 603.36 988.73 593.72 986.13 C 584.72 983.43 574.37 980.23 569.56 971.40 C 563.76 960.99 565.73 948.55 567.27 937.31 C 569.75 925.55 576.00 912.30 588.51 908.74 C 589.90 891.16 592.03 873.61 592.31 855.96 C 592.10 843.62 592.36 831.29 591.99 818.96 C 591.44 807.98 592.05 796.99 592.32 786.01 C 592.85 776.97 592.65 767.85 594.18 758.90 C 595.30 752.44 595.83 745.89 597.23 739.48 C 599.46 728.76 600.51 717.85 601.94 707.02 C 602.73 701.19 600.90 695.23 597.17 690.73 C 591.41 683.34 584.57 676.85 577.43 670.82 C 564.55 672.77 551.39 674.09 538.41 672.32 C 536.31 671.83 533.79 671.56 532.47 669.65 C 524.14 657.10 515.66 644.57 505.94 633.04 C 498.22 624.18 486.19 620.05 474.64 620.38 C 472.72 630.07 469.20 639.48 463.59 647.65 C 461.93 649.93 459.20 651.00 456.84 652.36 C 456.22 660.05 452.53 667.02 448.41 673.38 C 443.82 680.97 437.69 687.45 432.68 694.75 C 425.83 704.15 424.27 715.98 420.65 726.77 C 417.89 738.04 414.93 749.35 409.82 759.84 C 404.26 771.61 397.63 782.83 391.03 794.05 C 385.27 803.70 381.31 814.42 379.35 825.49 C 378.42 830.98 378.57 836.59 377.53 842.08 C 376.25 847.44 378.59 852.71 380.40 857.66 C 383.71 866.50 391.68 873.27 392.74 882.98 C 393.55 889.42 387.90 894.13 382.74 896.77 C 370.41 902.96 356.17 904.90 342.51 903.71 C 331.51 902.75 320.26 898.67 312.89 890.14 C 308.91 884.52 309.54 876.90 311.84 870.73 C 316.61 857.85 326.27 847.77 334.87 837.39 C 333.77 828.20 336.06 819.10 337.06 810.02 C 340.54 787.73 343.50 765.34 344.85 742.81 C 345.63 732.20 346.97 721.32 351.71 711.66 C 359.47 696.91 371.74 684.98 378.76 669.78 C 381.91 662.95 385.36 656.00 385.75 648.33 C 377.58 643.87 369.54 638.62 363.67 631.28 C 361.98 629.39 363.04 626.76 363.44 624.59 C 366.05 615.53 368.99 606.43 369.53 596.95 C 370.02 591.08 365.82 585.87 366.90 579.98 C 368.84 567.95 373.13 556.45 375.43 544.51 C 373.47 542.74 370.95 540.98 370.93 538.04 C 370.18 528.83 372.14 519.64 374.62 510.81 C 376.00 505.67 376.18 500.20 374.78 495.04 C 372.74 486.82 370.38 478.55 370.48 470.00 C 370.64 456.47 372.02 442.46 378.37 430.27 C 379.09 428.47 379.73 426.64 380.39 424.83 C 379.55 424.69 377.86 424.41 377.02 424.28 C 362.96 422.50 351.35 413.78 340.04 405.97 C 328.84 398.09 318.49 388.93 309.65 378.45 C 307.03 375.07 304.04 371.74 302.69 367.60 C 301.32 361.16 302.68 354.54 304.23 348.26 C 307.24 336.91 311.80 325.91 317.88 315.86 C 314.91 312.09 311.55 308.47 309.68 304.01 C 314.27 280.91 325.87 260.04 338.19 240.24 C 346.86 226.49 354.99 212.13 366.41 200.42 C 369.53 196.99 374.00 195.43 378.44 194.59 C 385.67 193.16 391.76 188.81 397.94 185.04 C 405.90 180.19 413.72 174.95 422.39 171.43 C 431.53 167.63 441.25 165.45 450.99 163.89 C 452.77 163.78 454.32 162.80 455.27 161.30 C 460.08 154.65 462.38 146.62 464.36 138.76 C 452.15 129.08 447.67 112.87 446.09 97.99 C 445.29 81.23 447.01 63.48 455.87 48.83 C 463.50 35.93 476.88 27.15 491.19 23.31 M 550.63 123.24 C 542.85 116.96 539.09 107.00 531.44 100.56 C 530.08 99.47 528.35 99.09 526.76 98.54 C 527.44 108.13 532.66 117.20 530.87 126.99 C 529.42 132.50 524.62 136.78 519.23 138.35 C 512.30 140.53 505.31 142.86 498.01 143.36 C 487.81 144.12 477.10 144.33 467.53 140.18 C 466.53 148.23 463.80 156.06 459.46 162.93 C 468.16 162.51 477.00 163.03 485.42 165.40 C 492.20 167.26 498.46 170.50 504.99 173.02 C 509.91 175.10 514.89 177.04 519.71 179.34 C 520.64 177.84 521.59 176.35 522.55 174.87 C 516.49 169.52 512.20 162.57 508.59 155.43 C 508.11 154.11 507.77 152.77 507.55 151.39 C 508.65 152.22 509.86 152.99 510.80 154.03 C 517.10 161.34 522.25 170.06 530.65 175.23 C 532.95 176.89 536.82 177.44 538.48 174.62 C 543.98 167.11 548.73 159.05 552.64 150.61 C 557.31 141.80 560.02 131.98 560.52 122.03 C 561.11 111.05 561.35 100.01 563.21 89.15 C 555.06 98.53 552.37 111.27 550.63 123.24 M 432.42 172.60 C 422.52 175.44 413.49 180.49 404.69 185.71 C 397.84 189.92 391.97 195.94 384.13 198.37 C 379.31 200.05 373.44 199.66 369.82 203.82 C 360.75 213.07 354.13 224.33 347.23 235.21 C 335.01 255.32 321.86 275.41 315.57 298.35 C 314.83 301.07 314.06 304.33 316.37 306.53 C 321.75 312.83 327.08 319.18 332.59 325.37 C 340.60 334.39 353.38 337.13 364.98 336.60 C 367.87 333.31 371.11 330.35 374.58 327.67 C 372.15 321.25 368.52 315.25 363.58 310.45 C 359.74 306.45 354.94 303.54 351.14 299.51 C 353.06 299.80 355.11 299.99 356.80 301.07 C 363.69 305.38 369.78 311.10 373.81 318.22 C 372.54 312.14 371.85 305.94 370.07 299.97 C 369.45 297.65 368.51 295.28 368.96 292.83 C 372.52 294.37 373.19 298.56 374.40 301.82 C 380.84 320.90 378.99 341.32 381.14 361.06 C 382.56 372.26 383.19 383.55 384.19 394.80 C 385.05 403.48 384.89 412.26 383.61 420.89 C 388.67 410.63 394.78 400.91 399.50 390.47 C 401.68 386.02 403.27 381.20 406.45 377.32 C 407.64 382.79 404.76 387.82 402.78 392.72 C 398.56 402.11 394.51 411.59 389.68 420.69 C 386.70 426.64 382.86 432.14 380.30 438.30 C 377.79 444.59 376.88 451.37 376.13 458.06 C 375.15 466.61 374.90 475.40 377.01 483.82 C 378.41 490.54 381.18 497.11 380.78 504.10 C 380.55 510.67 377.82 516.76 376.61 523.16 C 375.64 528.23 374.85 533.35 374.45 538.51 C 384.07 543.47 394.68 546.30 404.00 551.88 C 408.48 554.59 412.86 557.77 418.10 558.89 C 429.89 561.49 442.10 560.26 453.99 558.98 C 467.73 556.92 481.53 554.85 494.88 550.92 C 515.61 544.71 536.89 538.33 554.55 525.37 C 559.80 521.63 564.12 516.61 566.72 510.69 C 568.07 507.44 570.61 504.07 569.30 500.40 C 568.03 494.82 562.07 492.01 560.50 486.59 C 559.75 483.43 559.91 480.15 559.75 476.93 C 560.14 470.04 554.14 465.43 551.77 459.46 C 545.56 469.94 537.26 479.20 527.49 486.47 C 516.77 494.48 503.29 498.41 489.99 498.39 C 487.47 498.52 485.16 497.47 483.17 496.04 C 496.08 495.01 509.42 492.68 520.40 485.40 C 530.92 478.17 540.35 468.95 546.94 457.97 C 549.68 450.39 555.47 444.15 556.81 436.04 C 558.43 428.71 556.06 421.36 556.02 414.01 C 555.86 407.57 558.69 401.52 558.67 395.10 C 558.66 386.48 557.83 377.88 556.39 369.39 C 553.15 366.27 549.92 362.69 545.28 361.80 C 534.58 359.20 523.61 362.11 512.84 362.58 C 514.81 361.17 517.02 360.07 519.41 359.57 C 527.30 357.79 535.43 357.30 543.50 357.55 C 532.30 347.77 520.19 338.98 507.18 331.77 C 504.50 330.22 501.59 328.70 499.93 325.97 C 502.54 325.33 505.01 326.70 507.38 327.59 C 520.38 333.17 532.69 340.44 543.66 349.38 C 555.80 359.68 566.83 371.22 578.21 382.34 C 570.81 357.17 559.90 333.08 546.33 310.64 C 544.05 306.64 540.98 302.90 540.37 298.19 C 545.32 300.65 547.75 305.89 550.86 310.17 C 558.00 321.23 565.12 332.38 570.56 344.40 C 576.85 358.10 581.21 372.68 583.63 387.56 C 590.63 385.66 597.79 383.82 603.96 379.85 C 616.79 371.89 628.41 361.36 635.87 348.11 C 633.18 336.88 629.98 325.65 624.63 315.37 C 620.20 306.53 615.05 298.05 611.21 288.92 C 607.35 279.83 603.74 270.63 599.09 261.91 C 592.02 248.88 584.32 235.78 573.06 225.89 C 567.03 220.16 559.51 216.32 553.42 210.67 C 545.89 203.83 538.98 196.28 531.02 189.92 C 527.15 187.15 522.48 185.89 518.24 183.81 C 506.26 178.86 494.85 172.44 482.32 168.90 C 465.76 164.91 448.50 167.93 432.42 172.60 M 321.02 319.51 C 315.13 332.11 309.00 344.99 307.73 359.03 C 307.56 362.90 306.56 367.45 309.29 370.69 C 323.15 388.66 341.54 402.58 361.02 413.96 C 367.02 417.30 373.60 419.38 380.22 421.11 C 381.85 408.66 380.50 396.12 379.12 383.72 C 379.02 380.63 376.12 378.89 374.29 376.77 C 368.72 370.87 361.80 366.57 355.65 361.35 C 354.52 364.04 353.56 366.82 352.02 369.31 C 348.84 369.09 350.40 365.65 350.75 363.68 C 353.25 355.53 356.77 347.58 361.97 340.77 C 354.24 341.22 346.45 339.66 339.41 336.49 C 331.68 332.85 326.31 325.95 321.02 319.51 M 357.27 357.45 C 365.42 362.48 372.87 368.74 378.55 376.51 C 376.96 361.97 375.69 347.38 375.53 332.74 C 367.28 339.11 361.46 348.01 357.27 357.45 M 603.47 385.65 C 613.92 394.36 624.76 402.60 636.35 409.73 C 644.73 415.39 654.08 419.33 663.06 423.93 C 676.63 430.13 691.26 433.50 705.12 438.98 C 722.10 444.52 740.42 445.74 758.03 442.83 C 762.72 441.96 767.22 443.90 771.39 445.79 C 772.71 443.80 773.86 441.51 773.00 439.08 C 770.69 430.55 765.37 422.94 758.59 417.34 C 756.65 415.55 753.81 416.11 751.46 415.41 C 747.73 414.26 744.86 411.24 741.06 410.28 C 736.50 409.62 732.00 411.08 727.53 411.75 C 719.05 413.12 709.98 413.70 701.87 410.41 C 693.66 405.46 687.10 398.30 679.81 392.16 C 665.17 380.03 652.12 366.10 637.15 354.36 C 628.63 367.31 616.71 377.72 603.47 385.65 M 550.66 533.65 C 535.77 543.77 518.53 549.60 501.37 554.59 C 480.47 560.73 458.76 563.80 437.05 565.04 C 426.24 565.50 414.57 564.98 405.34 558.65 C 397.39 553.14 388.17 550.04 379.53 545.85 C 377.77 557.78 373.50 569.19 371.59 581.10 C 371.11 584.13 372.71 586.91 373.42 589.78 C 374.59 593.46 374.36 597.39 373.78 601.16 C 372.47 610.38 369.30 619.18 365.88 627.80 C 388.51 651.53 425.32 659.60 456.10 648.85 C 462.56 641.08 466.33 631.56 469.33 622.03 C 473.17 609.75 474.13 596.68 472.87 583.92 C 476.55 594.22 477.01 605.45 475.35 616.21 C 486.25 614.35 497.38 618.47 505.93 625.13 C 513.05 631.11 518.22 638.98 523.49 646.55 C 528.09 653.53 532.96 660.34 537.49 667.36 C 552.68 668.11 567.96 667.17 582.88 664.09 C 588.04 662.95 593.62 662.30 597.97 659.02 C 600.56 657.19 602.88 654.78 606.03 653.92 C 613.89 651.57 622.64 652.22 629.84 647.83 C 637.73 643.09 642.84 634.94 646.62 626.77 C 648.07 624.00 646.59 621.00 645.77 618.30 C 642.89 610.97 638.58 604.32 634.18 597.84 C 627.63 588.45 620.84 579.24 613.60 570.37 C 605.20 560.17 600.61 547.60 593.23 536.74 C 587.33 527.44 579.35 519.67 570.81 512.82 C 566.48 521.70 558.78 528.31 550.66 533.65 M 631.40 652.55 C 626.18 655.66 620.08 656.56 614.20 657.56 C 620.79 663.60 627.11 670.28 631.27 678.26 C 631.01 678.54 630.48 679.10 630.22 679.38 C 626.48 677.33 624.00 673.76 621.33 670.57 C 617.79 666.19 613.73 662.29 609.90 658.19 C 606.87 659.11 604.26 660.90 601.85 662.89 C 596.51 667.30 589.44 668.37 582.89 669.80 C 588.25 674.18 593.47 678.77 598.16 683.88 C 601.76 688.06 605.44 692.58 606.60 698.13 C 607.48 701.90 607.21 705.80 606.84 709.61 C 614.93 705.64 624.09 704.43 633.02 704.64 C 646.44 705.19 660.19 708.18 671.53 715.68 C 674.95 706.77 679.57 697.82 678.74 687.97 C 678.59 677.90 673.50 668.98 668.40 660.63 C 662.41 650.23 656.11 640.00 648.98 630.34 C 645.37 639.15 639.80 647.66 631.40 652.55 M 389.46 650.01 C 389.13 653.58 388.63 657.18 387.33 660.56 C 384.49 668.02 381.24 675.38 376.78 682.03 C 379.84 689.40 386.55 694.49 393.87 697.21 C 403.58 700.82 414.90 702.71 424.55 697.89 C 433.56 682.72 447.89 670.82 453.53 653.66 C 432.74 660.75 409.43 658.83 389.46 650.01 M 351.85 723.72 C 348.55 736.22 348.55 749.22 346.95 761.98 C 345.66 772.59 344.66 783.23 343.51 793.86 C 341.80 806.23 340.20 818.62 338.81 831.03 C 338.68 832.70 338.58 834.40 338.84 836.08 C 343.19 839.52 348.80 840.63 353.55 843.37 C 358.49 845.89 363.43 848.91 369.04 849.57 C 370.96 848.90 372.30 847.00 372.80 845.09 C 374.38 839.01 373.92 832.66 374.82 826.48 C 376.28 816.25 379.39 806.25 384.09 797.04 C 393.15 780.38 403.94 764.48 410.42 746.55 C 413.46 738.56 414.58 730.03 417.07 721.89 C 418.85 715.94 420.14 709.85 422.09 703.95 C 413.26 707.14 403.38 706.54 394.74 703.07 C 386.34 699.67 378.04 694.22 374.21 685.68 C 366.46 698.14 355.39 709.07 351.85 723.72 M 606.16 713.65 C 604.15 734.54 598.00 754.90 597.55 775.97 C 596.99 791.28 596.01 806.62 596.76 821.96 C 596.96 833.29 596.81 844.63 596.94 855.97 C 596.90 866.65 595.87 877.30 594.96 887.94 C 594.42 895.32 593.01 902.63 593.06 910.06 C 599.82 913.29 604.91 919.33 612.13 921.69 C 617.62 923.65 623.64 922.87 629.11 921.23 C 631.54 907.56 635.01 894.10 637.75 880.50 C 640.81 865.06 645.33 849.97 649.84 834.91 C 653.70 822.74 658.18 810.75 661.11 798.30 C 665.85 779.58 667.95 760.29 668.87 741.04 C 668.96 733.66 668.56 726.20 670.34 718.97 C 661.37 713.79 651.41 710.33 641.11 709.10 C 629.39 707.69 616.81 707.95 606.16 713.65 M 323.74 857.70 C 318.82 864.80 313.63 872.86 314.41 881.89 C 314.79 887.62 320.17 890.85 324.74 893.22 C 337.09 899.61 351.65 899.52 365.01 896.94 C 371.83 895.52 378.83 893.69 384.61 889.64 C 387.75 887.66 387.62 883.44 386.71 880.30 C 384.91 874.33 380.61 869.59 378.03 863.99 C 375.94 859.88 374.96 855.35 374.24 850.83 C 372.28 851.95 370.43 853.79 368.02 853.65 C 362.58 853.23 357.77 850.39 353.09 847.84 C 348.21 845.06 342.94 843.09 337.84 840.79 C 333.21 846.49 327.97 851.68 323.74 857.70 M 586.40 915.27 C 582.74 917.12 579.93 920.28 577.69 923.65 C 572.68 931.08 571.48 940.22 570.23 948.89 C 569.07 957.85 570.17 968.38 577.47 974.61 C 584.14 979.79 592.49 983.20 601.04 982.87 C 608.34 982.81 614.95 979.29 622.05 978.10 C 637.31 975.43 652.73 973.84 667.97 971.05 C 678.18 969.10 688.63 967.90 698.50 964.47 C 702.19 963.17 706.23 960.30 706.30 956.00 C 705.70 950.63 700.18 947.93 695.71 946.20 C 680.14 940.83 663.44 938.34 648.93 930.18 C 643.77 927.70 638.36 923.76 632.33 925.38 C 626.08 927.02 619.50 928.36 613.09 926.81 C 606.15 925.49 600.61 920.92 594.94 917.07 C 592.42 915.57 589.27 913.20 586.40 915.27 Z" />
		<path fill="#020202" opacity="1.00"
			d=" M 448.80 343.63 C 452.42 347.30 454.77 351.93 457.94 355.96 C 475.52 378.08 498.53 395.76 523.93 408.00 C 528.75 410.15 533.65 412.23 538.81 413.40 C 541.83 414.12 545.09 413.57 547.96 414.90 C 544.96 418.80 539.53 417.77 535.38 416.83 C 519.88 412.71 505.95 404.24 493.00 394.99 C 480.77 386.09 469.73 375.59 459.94 364.08 C 455.12 358.00 449.76 351.62 448.80 343.63 Z" />
		<path fill="#020202" opacity="1.00"
			d=" M 553.37 494.24 C 554.06 493.96 555.44 493.40 556.13 493.12 C 557.73 495.11 555.63 496.91 554.44 498.41 C 547.02 507.17 535.88 511.10 525.74 515.71 C 522.25 517.09 518.62 519.02 514.74 518.22 C 514.72 515.51 517.39 514.49 519.39 513.45 C 527.92 509.38 536.65 505.63 544.66 500.57 C 547.71 498.66 550.25 496.03 553.37 494.24 Z" />
	</g>
	<g id="#f0b58bff">
		<path fill="#f0b58b" opacity="1.00"
			d=" M 550.63 123.24 C 552.37 111.27 555.06 98.53 563.21 89.15 C 561.35 100.01 561.11 111.05 560.52 122.03 C 560.02 131.98 557.31 141.80 552.64 150.61 C 548.73 159.05 543.98 167.11 538.48 174.62 C 536.82 177.44 532.95 176.89 530.65 175.23 C 522.25 170.06 517.10 161.34 510.80 154.03 C 509.86 152.99 508.65 152.22 507.55 151.39 C 507.77 152.77 508.11 154.11 508.59 155.43 C 512.20 162.57 516.49 169.52 522.55 174.87 C 521.59 176.35 520.64 177.84 519.71 179.34 C 514.89 177.04 509.91 175.10 504.99 173.02 C 498.46 170.50 492.20 167.26 485.42 165.40 C 477.00 163.03 468.16 162.51 459.46 162.93 C 463.80 156.06 466.53 148.23 467.53 140.18 C 477.10 144.33 487.81 144.12 498.01 143.36 C 505.31 142.86 512.30 140.53 519.23 138.35 C 524.62 136.78 529.42 132.50 530.87 126.99 C 532.66 117.20 527.44 108.13 526.76 98.54 C 528.35 99.09 530.08 99.47 531.44 100.56 C 539.09 107.00 542.85 116.96 550.63 123.24 Z" />
		<path fill="#f0b58b" opacity="1.00"
			d=" M 321.02 319.51 C 326.31 325.95 331.68 332.85 339.41 336.49 C 346.45 339.66 354.24 341.22 361.97 340.77 C 356.77 347.58 353.25 355.53 350.75 363.68 C 350.40 365.65 348.84 369.09 352.02 369.31 C 353.56 366.82 354.52 364.04 355.65 361.35 C 361.80 366.57 368.72 370.87 374.29 376.77 C 376.12 378.89 379.02 380.63 379.12 383.72 C 380.50 396.12 381.85 408.66 380.22 421.11 C 373.60 419.38 367.02 417.30 361.02 413.96 C 341.54 402.58 323.15 388.66 309.29 370.69 C 306.56 367.45 307.56 362.90 307.73 359.03 C 309.00 344.99 315.13 332.11 321.02 319.51 Z" />
		<path fill="#f0b58b" opacity="1.00"
			d=" M 603.47 385.65 C 616.71 377.72 628.63 367.31 637.15 354.36 C 652.12 366.10 665.17 380.03 679.81 392.16 C 687.10 398.30 693.66 405.46 701.87 410.41 C 709.98 413.70 719.05 413.12 727.53 411.75 C 732.00 411.08 736.50 409.62 741.06 410.28 C 744.86 411.24 747.73 414.26 751.46 415.41 C 753.81 416.11 756.65 415.55 758.59 417.34 C 765.37 422.94 770.69 430.55 773.00 439.08 C 773.86 441.51 772.71 443.80 771.39 445.79 C 767.22 443.90 762.72 441.96 758.03 442.83 C 740.42 445.74 722.10 444.52 705.12 438.98 C 691.26 433.50 676.63 430.13 663.06 423.93 C 654.08 419.33 644.73 415.39 636.35 409.73 C 624.76 402.60 613.92 394.36 603.47 385.65 Z" />
		<path fill="#f0b58b" opacity="1.00"
			d=" M 631.40 652.55 C 639.80 647.66 645.37 639.15 648.98 630.34 C 656.11 640.00 662.41 650.23 668.40 660.63 C 673.50 668.98 678.59 677.90 678.74 687.97 C 679.57 697.82 674.95 706.77 671.53 715.68 C 660.19 708.18 646.44 705.19 633.02 704.64 C 624.09 704.43 614.93 705.64 606.84 709.61 C 607.21 705.80 607.48 701.90 606.60 698.13 C 605.44 692.58 601.76 688.06 598.16 683.88 C 593.47 678.77 588.25 674.18 582.89 669.80 C 589.44 668.37 596.51 667.30 601.85 662.89 C 604.26 660.90 606.87 659.11 609.90 658.19 C 613.73 662.29 617.79 666.19 621.33 670.57 C 624.00 673.76 626.48 677.33 630.22 679.38 C 630.48 679.10 631.01 678.54 631.27 678.26 C 627.11 670.28 620.79 663.60 614.20 657.56 C 620.08 656.56 626.18 655.66 631.40 652.55 Z" />
		<path fill="#f0b58b" opacity="1.00"
			d=" M 389.46 650.01 C 409.43 658.83 432.74 660.75 453.53 653.66 C 447.89 670.82 433.56 682.72 424.55 697.89 C 414.90 702.71 403.58 700.82 393.87 697.21 C 386.55 694.49 379.84 689.40 376.78 682.03 C 381.24 675.38 384.49 668.02 387.33 660.56 C 388.63 657.18 389.13 653.58 389.46 650.01 Z" />
	</g>
	<g id="#f11b27ff">
		<path fill="var(--shirt-color, grey)" opacity="1.00"
			d=" M 432.42 172.60 C 448.50 167.93 465.76 164.91 482.32 168.90 C 494.85 172.44 506.26 178.86 518.24 183.81 C 522.48 185.89 527.15 187.15 531.02 189.92 C 538.98 196.28 545.89 203.83 553.42 210.67 C 559.51 216.32 567.03 220.16 573.06 225.89 C 584.32 235.78 592.02 248.88 599.09 261.91 C 603.74 270.63 607.35 279.83 611.21 288.92 C 615.05 298.05 620.20 306.53 624.63 315.37 C 629.98 325.65 633.18 336.88 635.87 348.11 C 628.41 361.36 616.79 371.89 603.96 379.85 C 597.79 383.82 590.63 385.66 583.63 387.56 C 581.21 372.68 576.85 358.10 570.56 344.40 C 565.12 332.38 558.00 321.23 550.86 310.17 C 547.75 305.89 545.32 300.65 540.37 298.19 C 540.98 302.90 544.05 306.64 546.33 310.64 C 559.90 333.08 570.81 357.17 578.21 382.34 C 566.83 371.22 555.80 359.68 543.66 349.38 C 532.69 340.44 520.38 333.17 507.38 327.59 C 505.01 326.70 502.54 325.33 499.93 325.97 C 501.59 328.70 504.50 330.22 507.18 331.77 C 520.19 338.98 532.30 347.77 543.50 357.55 C 535.43 357.30 527.30 357.79 519.41 359.57 C 517.02 360.07 514.81 361.17 512.84 362.58 C 523.61 362.11 534.58 359.20 545.28 361.80 C 549.92 362.69 553.15 366.27 556.39 369.39 C 557.83 377.88 558.66 386.48 558.67 395.10 C 558.69 401.52 555.86 407.57 556.02 414.01 C 556.06 421.36 558.43 428.71 556.81 436.04 C 555.47 444.15 549.68 450.39 546.94 457.97 C 540.35 468.95 530.92 478.17 520.40 485.40 C 509.42 492.68 496.08 495.01 483.17 496.04 C 485.16 497.47 487.47 498.52 489.99 498.39 C 503.29 498.41 516.77 494.48 527.49 486.47 C 537.26 479.20 545.56 469.94 551.77 459.46 C 554.14 465.43 560.14 470.04 559.75 476.93 C 559.91 480.15 559.75 483.43 560.50 486.59 C 562.07 492.01 568.03 494.82 569.30 500.40 C 570.61 504.07 568.07 507.44 566.72 510.69 C 564.12 516.61 559.80 521.63 554.55 525.37 C 536.89 538.33 515.61 544.71 494.88 550.92 C 481.53 554.85 467.73 556.92 453.99 558.98 C 442.10 560.26 429.89 561.49 418.10 558.89 C 412.86 557.77 408.48 554.59 404.00 551.88 C 394.68 546.30 384.07 543.47 374.45 538.51 C 374.85 533.35 375.64 528.23 376.61 523.16 C 377.82 516.76 380.55 510.67 380.78 504.10 C 381.18 497.11 378.41 490.54 377.01 483.82 C 374.90 475.40 375.15 466.61 376.13 458.06 C 376.88 451.37 377.79 444.59 380.30 438.30 C 382.86 432.14 386.70 426.64 389.68 420.69 C 394.51 411.59 398.56 402.11 402.78 392.72 C 404.76 387.82 407.64 382.79 406.45 377.32 C 403.27 381.20 401.68 386.02 399.50 390.47 C 394.78 400.91 388.67 410.63 383.61 420.89 C 384.89 412.26 385.05 403.48 384.19 394.80 C 383.19 383.55 382.56 372.26 381.14 361.06 C 378.99 341.32 380.84 320.90 374.40 301.82 C 373.19 298.56 372.52 294.37 368.96 292.83 C 368.51 295.28 369.45 297.65 370.07 299.97 C 371.85 305.94 372.54 312.14 373.81 318.22 C 369.78 311.10 363.69 305.38 356.80 301.07 C 355.11 299.99 353.06 299.80 351.14 299.51 C 354.94 303.54 359.74 306.45 363.58 310.45 C 368.52 315.25 372.15 321.25 374.58 327.67 C 371.11 330.35 367.87 333.31 364.98 336.60 C 353.38 337.13 340.60 334.39 332.59 325.37 C 327.08 319.18 321.75 312.83 316.37 306.53 C 314.06 304.33 314.83 301.07 315.57 298.35 C 321.86 275.41 335.01 255.32 347.23 235.21 C 354.13 224.33 360.75 213.07 369.82 203.82 C 373.44 199.66 379.31 200.05 384.13 198.37 C 391.97 195.94 397.84 189.92 404.69 185.71 C 413.49 180.49 422.52 175.44 432.42 172.60 M 448.80 343.63 C 449.76 351.62 455.12 358.00 459.94 364.08 C 469.73 375.59 480.77 386.09 493.00 394.99 C 505.95 404.24 519.88 412.71 535.38 416.83 C 539.53 417.77 544.96 418.80 547.96 414.90 C 545.09 413.57 541.83 414.12 538.81 413.40 C 533.65 412.23 528.75 410.15 523.93 408.00 C 498.53 395.76 475.52 378.08 457.94 355.96 C 454.77 351.93 452.42 347.30 448.80 343.63 M 553.37 494.24 C 550.25 496.03 547.71 498.66 544.66 500.57 C 536.65 505.63 527.92 509.38 519.39 513.45 C 517.39 514.49 514.72 515.51 514.74 518.22 C 518.62 519.02 522.25 517.09 525.74 515.71 C 535.88 511.10 547.02 507.17 554.44 498.41 C 555.63 496.91 557.73 495.11 556.13 493.12 C 555.44 493.40 554.06 493.96 553.37 494.24 Z" />
	</g>
	<g id="#ffffffff">
		<path fill="var(--pants-color, grey)" opacity="1.00"
			d=" M 550.66 533.65 C 558.78 528.31 566.48 521.70 570.81 512.82 C 579.35 519.67 587.33 527.44 593.23 536.74 C 600.61 547.60 605.20 560.17 613.60 570.37 C 620.84 579.24 627.63 588.45 634.18 597.84 C 638.58 604.32 642.89 610.97 645.77 618.30 C 646.59 621.00 648.07 624.00 646.62 626.77 C 642.84 634.94 637.73 643.09 629.84 647.83 C 622.64 652.22 613.89 651.57 606.03 653.92 C 602.88 654.78 600.56 657.19 597.97 659.02 C 593.62 662.30 588.04 662.95 582.88 664.09 C 567.96 667.17 552.68 668.11 537.49 667.36 C 532.96 660.34 528.09 653.53 523.49 646.55 C 518.22 638.98 513.05 631.11 505.93 625.13 C 497.38 618.47 486.25 614.35 475.35 616.21 C 477.01 605.45 476.55 594.22 472.87 583.92 C 474.13 596.68 473.17 609.75 469.33 622.03 C 466.33 631.56 462.56 641.08 456.10 648.85 C 425.32 659.60 388.51 651.53 365.88 627.80 C 369.30 619.18 372.47 610.38 373.78 601.16 C 374.36 597.39 374.59 593.46 373.42 589.78 C 372.71 586.91 371.11 584.13 371.59 581.10 C 373.50 569.19 377.77 557.78 379.53 545.85 C 388.17 550.04 397.39 553.14 405.34 558.65 C 414.57 564.98 426.24 565.50 437.05 565.04 C 458.76 563.80 480.47 560.73 501.37 554.59 C 518.53 549.60 535.77 543.77 550.66 533.65 Z" />
		<path fill="var(--socks-color, grey)" opacity="1.00"
			d=" M 351.85 723.72 C 355.39 709.07 366.46 698.14 374.21 685.68 C 378.04 694.22 386.34 699.67 394.74 703.07 C 403.38 706.54 413.26 707.14 422.09 703.95 C 420.14 709.85 418.85 715.94 417.07 721.89 C 414.58 730.03 413.46 738.56 410.42 746.55 C 403.94 764.48 393.15 780.38 384.09 797.04 C 379.39 806.25 376.28 816.25 374.82 826.48 C 373.92 832.66 374.38 839.01 372.80 845.09 C 372.30 847.00 370.96 848.90 369.04 849.57 C 363.43 848.91 358.49 845.89 353.55 843.37 C 348.80 840.63 343.19 839.52 338.84 836.08 C 338.58 834.40 338.68 832.70 338.81 831.03 C 340.20 818.62 341.80 806.23 343.51 793.86 C 344.66 783.23 345.66 772.59 346.95 761.98 C 348.55 749.22 348.55 736.22 351.85 723.72 Z" />
		<path fill="var(--socks-color, grey)" opacity="1.00"
			d=" M 606.16 713.65 C 616.81 707.95 629.39 707.69 641.11 709.10 C 651.41 710.33 661.37 713.79 670.34 718.97 C 668.56 726.20 668.96 733.66 668.87 741.04 C 667.95 760.29 665.85 779.58 661.11 798.30 C 658.18 810.75 653.70 822.74 649.84 834.91 C 645.33 849.97 640.81 865.06 637.75 880.50 C 635.01 894.10 631.54 907.56 629.11 921.23 C 623.64 922.87 617.62 923.65 612.13 921.69 C 604.91 919.33 599.82 913.29 593.06 910.06 C 593.01 902.63 594.42 895.32 594.96 887.94 C 595.87 877.30 596.90 866.65 596.94 855.97 C 596.81 844.63 596.96 833.29 596.76 821.96 C 596.01 806.62 596.99 791.28 597.55 775.97 C 598.00 754.90 604.15 734.54 606.16 713.65 Z" />
	</g>
	<g id="#4d4d4dff">
		<path fill="#4d4d4d" opacity="1.00"
			d=" M 323.74 857.70 C 327.97 851.68 333.21 846.49 337.84 840.79 C 342.94 843.09 348.21 845.06 353.09 847.84 C 357.77 850.39 362.58 853.23 368.02 853.65 C 370.43 853.79 372.28 851.95 374.24 850.83 C 374.96 855.35 375.94 859.88 378.03 863.99 C 380.61 869.59 384.91 874.33 386.71 880.30 C 387.62 883.44 387.75 887.66 384.61 889.64 C 378.83 893.69 371.83 895.52 365.01 896.94 C 351.65 899.52 337.09 899.61 324.74 893.22 C 320.17 890.85 314.79 887.62 314.41 881.89 C 313.63 872.86 318.82 864.80 323.74 857.70 Z" />
		<path fill="#4d4d4d" opacity="1.00"
			d=" M 586.40 915.27 C 589.27 913.20 592.42 915.57 594.94 917.07 C 600.61 920.92 606.15 925.49 613.09 926.81 C 619.50 928.36 626.08 927.02 632.33 925.38 C 638.36 923.76 643.77 927.70 648.93 930.18 C 663.44 938.34 680.14 940.83 695.71 946.20 C 700.18 947.93 705.70 950.63 706.30 956.00 C 706.23 960.30 702.19 963.17 698.50 964.47 C 688.63 967.90 678.18 969.10 667.97 971.05 C 652.73 973.84 637.31 975.43 622.05 978.10 C 614.95 979.29 608.34 982.81 601.04 982.87 C 592.49 983.20 584.14 979.79 577.47 974.61 C 570.17 968.38 569.07 957.85 570.23 948.89 C 571.48 940.22 572.68 931.08 577.69 923.65 C 579.93 920.28 582.74 917.12 586.40 915.27 Z" />
	</g>
</svg>