<?xml version="1.0" encoding="UTF-8" ?>
<!DOCTYPE svg PUBLIC "-//W3C//DTD SVG 1.1//EN" "http://www.w3.org/Graphics/SVG/1.1/DTD/svg11.dtd">
<svg width="1000pt" height="1000pt" viewBox="0 0 1000 1000" version="1.1" xmlns="http://www.w3.org/2000/svg">
	<g id="#020202ff">
		<path fill="#020202" opacity="1.00"
			d=" M 442.06 37.15 C 447.32 36.08 452.59 34.64 458.01 34.85 C 472.63 35.01 486.39 42.20 496.89 52.03 C 505.00 59.88 511.49 69.84 513.73 81.01 C 515.12 88.38 514.93 96.50 511.11 103.16 C 509.99 105.24 508.47 107.15 507.77 109.43 C 505.95 121.50 508.31 134.04 504.66 145.85 C 501.25 156.73 495.65 166.75 489.80 176.48 C 500.31 180.09 510.78 183.85 521.14 187.87 C 534.50 192.74 543.71 204.60 550.43 216.61 C 556.96 227.62 560.83 239.88 564.86 251.95 C 567.58 260.78 570.61 269.54 572.50 278.60 C 576.36 297.48 579.67 316.51 581.27 335.72 C 593.73 346.91 605.31 359.08 616.54 371.50 C 629.49 385.59 638.91 402.89 654.02 414.96 C 661.02 420.60 667.50 426.90 673.23 433.83 C 676.14 437.21 679.07 440.90 683.27 442.72 C 698.49 448.13 713.26 456.84 722.55 470.39 C 725.51 474.75 728.42 479.59 728.42 485.03 C 728.46 488.43 726.14 491.11 724.11 493.57 C 723.10 497.32 721.69 501.61 717.38 502.55 C 716.66 505.85 715.01 508.98 711.40 509.65 C 710.36 515.17 706.34 519.70 700.95 521.29 C 698.15 521.95 695.83 519.77 694.00 517.99 C 690.23 514.04 686.91 509.69 683.40 505.52 C 682.18 503.86 680.46 502.20 680.71 499.96 C 684.04 496.78 689.02 496.80 693.33 496.53 C 691.73 493.61 690.36 490.44 687.76 488.27 C 680.91 482.37 673.33 477.37 666.61 471.33 C 662.82 467.98 661.48 462.60 657.14 459.80 C 648.94 453.86 639.87 449.27 631.54 443.54 C 617.55 434.86 603.92 425.61 589.60 417.48 C 576.30 409.78 563.43 401.22 551.82 391.13 C 542.06 382.15 534.54 370.99 528.45 359.28 C 525.98 360.28 523.51 361.27 521.03 362.24 C 521.12 372.85 521.39 383.49 522.87 394.01 C 524.69 405.24 528.26 416.06 530.90 427.10 C 532.62 434.24 535.30 441.24 539.76 447.14 C 543.78 452.44 548.54 457.14 552.30 462.65 C 557.65 470.49 564.08 478.01 566.46 487.42 C 567.39 490.68 567.21 494.23 568.63 497.36 C 579.04 514.80 596.78 526.37 607.14 543.86 C 609.50 547.61 610.11 552.10 611.95 556.09 C 618.97 571.10 625.86 586.24 630.65 602.14 C 636.20 618.14 639.29 634.88 645.20 650.76 C 648.44 658.88 653.09 666.34 656.73 674.29 C 665.17 692.46 670.40 712.06 672.51 731.97 C 677.53 770.57 671.92 809.35 670.90 848.01 C 670.06 863.38 669.84 879.81 677.16 893.82 C 687.36 911.10 702.98 924.08 717.01 938.11 C 724.18 944.94 731.80 951.70 736.51 960.57 C 738.95 965.11 739.16 970.50 738.28 975.50 C 736.74 981.62 731.34 986.69 725.08 987.68 C 712.48 990.09 699.20 989.22 687.10 984.96 C 679.25 982.19 673.29 976.16 667.93 970.06 C 662.93 964.74 657.82 959.44 651.96 955.08 C 647.15 951.44 640.79 951.31 635.66 948.31 C 630.16 945.24 626.14 939.73 624.77 933.60 C 622.51 923.57 622.42 913.18 623.09 902.97 C 623.39 897.64 624.82 892.40 624.57 887.05 C 623.90 870.25 621.16 853.65 619.17 836.98 C 617.96 828.64 617.38 820.21 615.72 811.95 C 609.92 785.37 598.08 760.57 592.25 734.00 C 589.36 722.65 588.76 710.92 586.79 699.42 C 585.98 694.22 585.61 688.44 581.66 684.50 C 567.30 669.07 554.10 652.63 540.66 636.42 C 536.12 630.98 530.58 626.42 526.67 620.46 C 524.29 621.25 521.99 622.85 519.40 622.65 C 517.71 621.37 516.36 619.70 514.63 618.49 C 509.90 617.41 504.93 619.58 500.25 618.13 C 498.22 616.33 496.80 613.98 495.23 611.80 C 490.66 605.13 485.64 598.78 480.53 592.51 C 479.22 597.64 477.52 602.70 474.85 607.29 C 477.91 618.22 478.26 629.63 478.56 640.90 C 479.61 663.99 477.00 687.02 476.27 710.08 C 474.25 735.75 478.91 761.34 477.68 787.02 C 477.01 819.30 468.31 851.95 475.99 884.00 C 478.17 892.28 478.04 900.92 479.92 909.26 C 482.19 921.13 485.50 932.82 489.92 944.06 C 493.64 951.04 495.53 959.17 494.07 967.04 C 493.83 969.42 491.60 970.67 489.61 971.45 C 482.07 974.27 474.01 975.32 466.02 975.92 C 454.74 976.67 442.84 977.31 432.20 972.85 C 426.10 969.71 427.05 961.73 426.81 955.97 C 427.39 947.94 422.56 940.89 422.53 932.93 C 420.41 917.71 421.47 902.33 421.30 887.02 C 420.90 877.00 420.16 866.99 419.06 857.01 C 417.39 837.80 415.57 818.51 410.99 799.74 C 406.65 780.48 399.64 761.75 397.97 741.96 C 396.78 730.41 397.05 718.70 399.15 707.27 C 400.99 695.55 404.97 684.06 404.48 672.06 C 404.08 663.40 402.67 654.66 399.51 646.56 C 396.39 639.97 392.31 633.86 387.76 628.17 C 381.48 619.96 377.38 610.41 372.74 601.25 C 365.97 585.59 362.11 568.82 359.98 551.94 C 359.25 546.08 358.80 540.08 360.22 534.29 C 361.44 530.00 358.19 526.27 356.45 522.64 C 351.56 515.17 347.15 506.99 346.43 497.93 C 345.99 489.36 347.51 480.83 349.89 472.62 C 333.30 466.83 318.58 456.29 306.70 443.45 C 298.10 433.55 290.68 422.70 283.01 412.07 C 277.18 403.95 271.08 395.68 268.13 386.00 C 265.50 373.46 267.41 360.56 268.38 347.93 C 268.73 342.25 272.89 337.66 273.35 332.05 C 272.93 325.00 269.91 317.93 271.97 310.86 C 275.00 300.95 281.67 292.79 287.37 284.32 C 290.06 280.53 291.01 275.92 292.34 271.56 C 294.62 263.63 297.56 255.84 301.78 248.73 C 303.38 245.95 305.39 243.28 305.91 240.04 C 307.50 229.10 315.16 220.20 323.41 213.38 C 327.58 209.84 331.76 206.19 336.72 203.76 C 347.37 198.49 358.51 194.26 369.39 189.49 C 373.45 187.63 377.58 185.80 381.15 183.07 C 388.05 177.64 391.52 168.85 398.99 164.03 C 401.85 162.04 405.31 161.23 408.28 159.47 C 412.88 154.49 414.74 147.68 415.65 141.12 C 404.17 131.40 398.98 116.34 397.23 101.81 C 395.47 86.79 397.74 70.49 407.31 58.31 C 415.85 47.38 428.55 40.00 442.06 37.15 M 499.38 100.38 C 493.34 107.41 490.11 116.35 488.01 125.25 C 484.37 120.22 480.24 115.49 475.39 111.59 C 473.67 110.41 471.59 108.76 469.38 109.45 C 467.46 110.51 467.36 113.02 467.94 114.89 C 469.61 120.59 475.08 124.32 476.48 130.14 C 477.75 134.78 474.38 139.38 470.35 141.35 C 461.85 145.36 452.28 146.28 442.99 146.34 C 434.99 146.31 426.88 145.92 419.17 143.60 C 418.53 149.06 416.59 154.30 413.34 158.75 C 422.82 156.99 432.45 156.26 442.07 155.79 C 448.93 155.59 455.98 155.91 462.49 158.30 C 472.09 161.25 477.05 171.06 486.08 175.08 C 493.91 160.80 503.06 145.89 502.58 129.00 C 502.50 118.55 504.09 108.19 504.21 97.75 C 502.46 98.34 500.58 98.87 499.38 100.38 M 404.40 165.47 C 396.63 168.68 393.08 176.80 387.79 182.75 C 383.39 188.07 377.02 191.07 370.92 193.97 C 359.64 199.05 348.18 203.74 337.00 209.04 C 326.79 214.65 317.48 222.56 312.02 233.01 C 309.81 237.05 310.29 241.97 307.96 245.95 C 306.60 248.59 304.53 250.93 303.79 253.86 C 304.07 259.03 305.66 264.01 307.12 268.95 C 308.66 274.34 312.12 278.98 313.30 284.50 C 306.27 277.90 302.31 268.56 300.86 259.14 C 298.71 264.97 296.50 270.85 295.25 276.95 C 294.44 287.07 301.56 295.12 305.00 304.02 C 303.55 303.17 301.90 302.50 300.90 301.09 C 297.14 296.14 294.20 290.53 292.46 284.56 C 287.35 293.34 280.50 301.20 276.94 310.84 C 274.48 317.86 277.91 324.99 278.37 332.03 C 278.19 337.48 274.69 341.99 272.67 346.87 C 282.76 346.08 292.91 346.47 302.95 347.74 C 310.79 348.74 318.21 351.71 325.32 355.05 C 321.37 336.65 321.31 317.70 321.26 298.97 C 321.47 291.75 320.81 284.29 323.11 277.31 C 324.20 282.13 323.99 287.10 324.05 292.00 C 323.96 309.02 325.03 326.03 326.93 342.94 C 327.63 348.37 327.97 354.16 331.18 358.82 C 341.19 372.92 341.29 390.95 347.69 406.56 C 355.11 424.02 367.76 438.43 377.83 454.32 C 372.55 450.95 369.01 445.68 365.07 440.95 C 358.86 433.33 353.38 425.15 348.49 416.63 C 348.56 422.29 348.55 427.99 349.67 433.57 C 351.65 443.34 354.63 452.99 355.17 462.99 C 355.58 471.53 351.88 479.49 351.20 487.91 C 350.48 493.62 350.84 499.50 352.80 504.94 C 355.62 514.70 363.57 522.19 365.10 532.43 C 370.72 532.89 376.36 533.63 382.00 532.93 C 403.26 530.55 424.54 527.33 446.00 527.88 C 469.28 528.26 492.82 525.11 514.66 516.81 C 531.20 510.86 546.44 501.90 562.89 495.71 C 562.97 489.59 560.44 483.90 557.20 478.84 C 551.58 470.55 545.52 462.56 539.25 454.75 C 532.67 446.60 529.74 436.34 526.35 426.61 C 518.83 424.26 513.92 417.81 507.92 413.15 C 500.19 407.04 491.66 402.06 483.46 396.65 C 471.71 389.08 463.23 377.73 452.72 368.72 C 456.29 368.85 459.33 370.76 461.81 373.19 C 467.80 378.54 473.21 384.54 479.70 389.31 C 489.38 396.49 500.62 401.34 509.91 409.08 C 515.35 413.41 519.68 418.96 525.33 423.03 C 523.58 415.76 521.13 408.69 519.37 401.42 C 518.01 396.36 516.99 390.75 512.97 387.03 C 508.26 382.72 503.33 378.68 498.43 374.60 C 490.37 367.98 481.05 362.73 474.37 354.55 C 469.49 348.52 465.11 341.95 462.29 334.69 C 461.25 332.31 461.29 329.68 461.52 327.15 C 465.89 336.16 470.41 345.28 477.43 352.59 C 484.94 360.57 494.98 365.39 503.46 372.19 C 491.39 354.58 485.02 334.04 476.32 314.74 C 468.93 298.30 462.71 281.36 454.84 265.13 C 452.47 259.50 448.87 254.10 448.80 247.79 C 450.46 249.29 451.98 250.98 452.98 253.00 C 462.13 270.82 471.31 288.65 478.78 307.26 C 485.83 322.93 490.93 339.39 498.17 354.97 C 503.60 366.01 509.07 377.44 518.41 385.79 C 517.14 379.23 517.14 372.53 517.04 365.88 C 514.37 363.53 511.40 361.01 510.73 357.31 C 509.48 350.93 508.06 344.57 507.37 338.11 C 506.39 328.26 503.69 318.70 501.65 309.05 C 497.88 290.81 490.53 273.57 486.28 255.45 C 484.96 249.07 485.00 242.40 486.21 236.01 C 486.50 234.08 487.71 232.51 488.74 230.93 C 488.22 239.01 487.06 247.35 489.62 255.23 C 495.21 272.79 502.36 289.94 505.81 308.12 C 507.60 317.33 509.89 326.49 510.52 335.88 C 510.90 341.48 511.65 347.05 512.81 352.55 C 519.62 343.70 530.19 338.87 540.62 335.76 C 552.58 332.16 565.19 330.46 577.66 331.72 C 575.09 312.74 572.29 293.74 568.04 275.05 C 564.11 260.52 559.24 246.25 553.70 232.26 C 548.38 219.88 541.53 207.77 531.44 198.63 C 525.91 193.47 518.57 191.08 511.73 188.22 C 502.31 184.34 492.10 182.63 482.94 178.11 C 476.87 175.14 472.60 169.80 467.48 165.59 C 458.79 159.07 447.34 159.13 437.00 159.92 C 426.04 160.86 414.73 161.33 404.40 165.47 M 526.10 346.06 C 530.47 352.81 533.58 360.28 537.91 367.05 C 542.65 374.49 547.90 381.69 554.45 387.64 C 568.19 399.73 584.03 409.03 599.80 418.18 C 611.85 425.80 623.76 433.64 635.81 441.26 C 644.13 447.05 653.49 451.26 661.42 457.62 C 665.38 460.52 666.43 465.73 670.06 468.93 C 676.21 474.48 682.73 479.61 688.91 485.13 C 695.05 489.98 698.37 497.53 700.07 505.00 C 700.78 506.89 700.01 508.77 699.11 510.44 C 697.21 507.72 696.12 504.59 695.14 501.45 C 691.96 500.16 688.54 500.37 685.24 501.06 C 690.21 506.44 694.87 512.12 700.13 517.22 C 701.94 516.06 703.98 515.12 705.40 513.46 C 707.56 509.72 707.29 505.20 707.29 501.03 C 707.25 496.17 705.21 491.54 705.40 486.68 C 705.81 486.49 706.63 486.11 707.04 485.92 C 711.00 491.98 711.28 499.61 711.95 506.62 C 714.47 499.02 713.99 490.84 712.33 483.12 C 712.10 481.25 711.00 477.76 714.00 477.81 C 718.73 483.45 717.62 491.56 718.41 498.41 C 719.29 495.31 720.00 492.09 719.57 488.87 C 718.95 483.91 717.04 479.07 717.75 474.01 C 721.56 477.80 722.09 483.36 723.90 488.17 C 724.72 484.59 724.03 480.88 722.19 477.74 C 714.09 462.52 698.65 452.72 682.79 447.09 C 677.31 445.11 673.43 440.55 669.74 436.27 C 664.39 429.94 658.44 424.12 651.89 419.05 C 638.04 408.49 628.77 393.46 618.11 379.97 C 606.75 366.38 594.12 353.94 581.84 341.20 C 579.36 338.78 576.82 335.62 572.99 335.79 C 556.86 335.18 540.46 338.64 526.10 346.06 M 515.15 356.14 C 514.58 357.39 515.81 358.76 517.07 358.86 C 520.59 359.04 523.96 357.74 527.32 356.86 C 525.79 353.90 524.20 350.98 522.55 348.10 C 519.72 350.36 516.23 352.46 515.15 356.14 M 272.61 351.42 C 270.70 362.26 270.32 373.51 272.90 384.27 C 275.55 393.50 281.59 401.21 287.19 408.83 C 292.69 416.34 298.08 423.93 303.72 431.34 C 315.50 447.84 332.60 459.77 350.57 468.69 C 351.66 455.83 346.66 443.57 345.00 430.99 C 344.44 427.70 344.91 424.26 344.00 421.05 C 336.67 405.99 325.50 393.24 317.50 378.57 C 316.42 376.65 316.15 374.31 317.37 372.39 C 319.71 368.13 321.81 363.75 323.58 359.22 C 317.22 356.64 311.03 353.30 304.15 352.39 C 293.66 351.46 283.13 351.17 272.61 351.42 M 326.33 359.06 C 325.20 363.16 324.23 367.35 322.10 371.08 C 321.47 372.59 320.28 374.02 320.28 375.70 C 321.94 379.80 324.83 383.24 327.14 386.97 C 332.86 396.09 339.63 404.53 344.64 414.09 C 344.43 410.74 344.12 407.35 342.84 404.21 C 339.22 394.16 337.56 383.56 334.38 373.38 C 332.51 368.23 330.40 362.90 326.33 359.06 M 508.62 523.40 C 486.86 530.39 463.80 532.65 441.03 531.95 C 421.23 531.71 401.64 534.87 381.95 536.44 C 375.87 537.00 369.81 536.06 363.89 534.72 C 361.79 547.64 364.77 560.58 367.54 573.15 C 370.58 584.26 373.87 595.45 379.53 605.56 C 383.28 613.43 387.33 621.23 392.90 628.00 C 396.16 631.84 398.52 636.30 401.35 640.44 C 413.81 642.70 426.90 640.30 437.79 633.86 C 450.66 627.08 461.99 617.43 470.69 605.76 C 474.21 600.99 475.91 595.24 478.29 589.87 C 472.93 583.55 466.83 577.90 460.81 572.22 C 459.32 570.88 458.17 569.23 457.26 567.47 C 462.34 568.28 465.72 572.49 469.52 575.55 C 482.49 586.87 493.99 600.06 502.23 615.25 C 506.40 614.65 510.66 613.78 514.87 614.46 C 517.53 614.90 519.22 617.14 520.76 619.14 C 524.93 617.24 529.04 615.21 532.99 612.88 C 549.64 602.91 566.20 592.81 582.99 583.07 C 591.52 577.92 600.64 572.67 606.04 563.97 C 607.75 561.10 609.69 557.44 607.83 554.19 C 602.94 541.79 593.66 531.90 584.28 522.73 C 577.23 515.58 570.66 507.87 565.58 499.19 C 546.27 506.52 528.36 517.16 508.62 523.40 M 583.67 586.61 C 565.41 596.97 547.91 608.61 529.64 618.94 C 532.10 622.25 534.84 625.35 537.87 628.16 C 543.91 633.83 548.88 640.48 554.17 646.82 C 560.84 655.13 567.73 663.26 574.73 671.30 C 579.31 676.67 584.75 681.38 588.36 687.53 C 596.13 678.85 607.34 674.48 617.97 670.43 C 614.54 666.74 611.10 662.99 606.96 660.09 C 603.15 657.30 598.79 655.40 594.89 652.76 C 595.67 652.52 597.21 652.04 597.98 651.80 C 607.77 654.30 615.71 661.38 621.79 669.21 C 630.01 666.81 638.49 664.81 647.11 665.27 C 638.10 649.80 634.92 632.00 629.96 615.03 C 627.91 607.90 625.67 600.83 623.37 593.79 C 619.76 582.80 614.78 572.32 610.93 561.42 C 606.39 573.74 594.43 580.46 583.67 586.61 M 438.33 638.41 C 427.89 644.34 415.58 646.98 403.66 645.00 C 409.08 660.10 410.48 676.78 406.53 692.40 C 413.68 687.72 422.62 687.53 430.82 688.58 C 446.21 690.82 460.98 697.82 472.09 708.76 C 472.48 691.16 474.12 673.61 474.56 656.01 C 474.33 640.97 474.44 625.84 472.15 610.93 C 463.06 622.45 451.30 631.63 438.33 638.41 M 607.44 679.39 C 602.36 681.79 597.28 684.41 593.02 688.11 C 591.08 689.76 589.50 692.21 589.98 694.87 C 590.93 701.57 592.14 708.25 592.82 715.00 C 596.68 748.28 612.50 778.43 620.21 810.77 C 621.93 818.45 622.52 826.32 623.55 834.12 C 625.50 851.04 628.12 867.91 628.92 884.95 C 629.08 887.16 629.06 889.42 629.62 891.59 C 630.15 893.72 632.76 895.38 634.83 894.16 C 639.48 891.87 644.66 889.35 649.96 890.82 C 660.99 894.70 667.10 906.32 678.15 910.07 C 679.68 903.90 674.68 898.94 672.44 893.65 C 666.47 880.01 665.89 864.73 666.77 850.08 C 667.49 824.36 669.57 798.71 670.26 772.99 C 670.43 752.84 669.02 732.60 665.05 712.81 C 661.66 698.37 657.03 684.07 649.96 671.00 C 647.33 668.67 643.25 669.59 640.01 669.69 C 628.69 671.01 617.80 674.76 607.44 679.39 M 405.53 697.23 C 402.65 710.25 400.78 723.63 401.97 736.99 C 402.97 754.55 408.16 771.45 412.84 788.30 C 418.57 809.43 421.34 831.20 422.90 853.00 C 424.49 869.05 425.91 885.19 424.89 901.33 C 428.54 893.87 432.97 885.46 441.40 882.66 C 447.01 881.44 454.10 882.31 457.70 887.30 C 461.82 892.70 464.47 899.05 468.49 904.52 C 469.70 906.30 471.54 907.49 473.59 908.12 C 474.15 906.47 474.77 904.80 474.74 903.04 C 474.62 891.88 470.69 881.24 469.81 870.17 C 467.00 843.18 472.93 816.40 473.74 789.48 C 475.07 763.89 470.28 738.42 471.86 712.82 C 461.92 702.44 448.40 695.89 434.49 692.76 C 424.84 690.87 413.49 690.48 405.53 697.23 M 432.66 895.62 C 429.58 900.48 426.66 905.59 425.10 911.17 C 424.08 917.58 425.34 924.09 425.48 930.54 C 432.45 924.57 441.75 920.80 451.00 921.85 C 457.92 922.62 465.04 927.05 466.85 934.09 C 467.98 941.22 465.75 949.30 470.31 955.60 C 474.71 962.31 483.12 963.51 490.15 965.86 C 490.32 961.00 490.49 955.92 488.47 951.38 C 482.46 938.47 478.58 924.58 476.59 910.49 C 473.84 911.22 470.70 911.82 468.39 909.69 C 461.82 904.23 459.29 895.58 453.78 889.24 C 451.64 886.74 448.07 886.42 445.00 886.41 C 439.45 886.70 435.55 891.34 432.66 895.62 M 634.79 898.41 C 631.82 899.47 629.17 897.34 626.73 895.99 C 625.69 907.79 625.35 919.74 627.50 931.45 C 630.78 928.05 634.31 924.39 639.11 923.34 C 646.53 921.69 653.99 924.84 660.03 928.95 C 669.03 935.18 677.16 942.54 685.83 949.19 C 700.71 960.08 721.36 957.95 735.63 969.95 C 732.33 955.38 719.09 946.78 709.29 936.70 C 700.16 927.70 690.12 919.43 682.88 908.73 C 681.96 910.29 681.24 912.01 679.93 913.30 C 677.00 914.22 673.98 912.86 671.41 911.54 C 663.55 907.06 657.93 899.41 649.68 895.54 C 644.53 893.41 639.64 897.15 634.79 898.41 M 439.96 926.76 C 435.09 928.36 429.69 930.33 426.68 934.73 C 427.25 940.65 430.57 945.95 430.82 951.93 C 431.15 956.91 429.85 962.01 431.21 966.91 C 431.81 968.96 433.97 969.80 435.81 970.43 C 444.59 973.27 453.95 973.12 463.06 972.66 C 472.09 972.31 481.15 971.44 489.92 969.15 C 483.29 966.57 475.42 966.19 470.18 960.86 C 465.15 956.44 463.43 949.49 463.54 943.03 C 463.40 939.15 464.25 934.69 461.48 931.50 C 456.52 925.07 447.19 924.45 439.96 926.76 M 628.49 935.70 C 630.34 938.68 632.16 941.87 635.10 943.93 C 638.88 946.83 643.69 947.51 648.10 948.98 C 654.99 951.34 660.01 956.91 665.12 961.82 C 671.91 968.34 677.21 976.82 686.02 980.89 C 694.71 984.91 704.44 986.32 713.96 986.34 C 721.00 986.20 729.23 984.83 733.34 978.40 C 736.44 975.06 731.86 971.59 729.21 969.79 C 718.44 963.46 705.50 962.79 694.14 957.88 C 683.19 953.75 675.10 945.01 665.93 938.12 C 659.18 932.98 651.96 927.00 643.06 926.84 C 636.83 926.59 632.41 931.59 628.49 935.70 Z" />
	</g>
	<g id="#f0b58bff">
		<path fill="#f0b58b" opacity="1.00"
			d=" M 499.38 100.38 C 500.58 98.87 502.46 98.34 504.21 97.75 C 504.09 108.19 502.50 118.55 502.58 129.00 C 503.06 145.89 493.91 160.80 486.08 175.08 C 477.05 171.06 472.09 161.25 462.49 158.30 C 455.98 155.91 448.93 155.59 442.07 155.79 C 432.45 156.26 422.82 156.99 413.34 158.75 C 416.59 154.30 418.53 149.06 419.17 143.60 C 426.88 145.92 434.99 146.31 442.99 146.34 C 452.28 146.28 461.85 145.36 470.35 141.35 C 474.38 139.38 477.75 134.78 476.48 130.14 C 475.08 124.32 469.61 120.59 467.94 114.89 C 467.36 113.02 467.46 110.51 469.38 109.45 C 471.59 108.76 473.67 110.41 475.39 111.59 C 480.24 115.49 484.37 120.22 488.01 125.25 C 490.11 116.35 493.34 107.41 499.38 100.38 Z" />
		<path fill="#f0b58b" opacity="1.00"
			d=" M 526.10 346.06 C 540.46 338.64 556.86 335.18 572.99 335.79 C 576.82 335.62 579.36 338.78 581.84 341.20 C 594.12 353.94 606.75 366.38 618.11 379.97 C 628.77 393.46 638.04 408.49 651.89 419.05 C 658.44 424.12 664.39 429.94 669.74 436.27 C 673.43 440.55 677.31 445.11 682.79 447.09 C 698.65 452.72 714.09 462.52 722.19 477.74 C 724.03 480.88 724.72 484.59 723.90 488.17 C 722.09 483.36 721.56 477.80 717.75 474.01 C 717.04 479.07 718.95 483.91 719.57 488.87 C 720.00 492.09 719.29 495.31 718.41 498.41 C 717.62 491.56 718.73 483.45 714.00 477.81 C 711.00 477.76 712.10 481.25 712.33 483.12 C 713.99 490.84 714.47 499.02 711.95 506.62 C 711.28 499.61 711.00 491.98 707.04 485.92 C 706.63 486.11 705.81 486.49 705.40 486.68 C 705.21 491.54 707.25 496.17 707.29 501.03 C 707.29 505.20 707.56 509.72 705.40 513.46 C 703.98 515.12 701.94 516.06 700.13 517.22 C 694.87 512.12 690.21 506.44 685.24 501.06 C 688.54 500.37 691.96 500.16 695.14 501.45 C 696.12 504.59 697.21 507.72 699.11 510.44 C 700.01 508.77 700.78 506.89 700.07 505.00 C 698.37 497.53 695.05 489.98 688.91 485.13 C 682.73 479.61 676.21 474.48 670.06 468.93 C 666.43 465.73 665.38 460.52 661.42 457.62 C 653.49 451.26 644.13 447.05 635.81 441.26 C 623.76 433.64 611.85 425.80 599.80 418.18 C 584.03 409.03 568.19 399.73 554.45 387.64 C 547.90 381.69 542.65 374.49 537.91 367.05 C 533.58 360.28 530.47 352.81 526.10 346.06 Z" />
		<path fill="#f0b58b" opacity="1.00"
			d=" M 272.61 351.42 C 283.13 351.17 293.66 351.46 304.15 352.39 C 311.03 353.30 317.22 356.64 323.58 359.22 C 321.81 363.75 319.71 368.13 317.37 372.39 C 316.15 374.31 316.42 376.65 317.50 378.57 C 325.50 393.24 336.67 405.99 344.00 421.05 C 344.91 424.26 344.44 427.70 345.00 430.99 C 346.66 443.57 351.66 455.83 350.57 468.69 C 332.60 459.77 315.50 447.84 303.72 431.34 C 298.08 423.93 292.69 416.34 287.19 408.83 C 281.59 401.21 275.55 393.50 272.90 384.27 C 270.32 373.51 270.70 362.26 272.61 351.42 Z" />
		<path fill="#f0b58b" opacity="1.00"
			d=" M 583.67 586.61 C 594.43 580.46 606.39 573.74 610.93 561.42 C 614.78 572.32 619.76 582.80 623.37 593.79 C 625.67 600.83 627.91 607.90 629.96 615.03 C 634.92 632.00 638.10 649.80 647.11 665.27 C 638.49 664.81 630.01 666.81 621.79 669.21 C 615.71 661.38 607.77 654.30 597.98 651.80 C 597.21 652.04 595.67 652.52 594.89 652.76 C 598.79 655.40 603.15 657.30 606.96 660.09 C 611.10 662.99 614.54 666.74 617.97 670.43 C 607.34 674.48 596.13 678.85 588.36 687.53 C 584.75 681.38 579.31 676.67 574.73 671.30 C 567.73 663.26 560.84 655.13 554.17 646.82 C 548.88 640.48 543.91 633.83 537.87 628.16 C 534.84 625.35 532.10 622.25 529.64 618.94 C 547.91 608.61 565.41 596.97 583.67 586.61 Z" />
		<path fill="#f0b58b" opacity="1.00"
			d=" M 438.33 638.41 C 451.30 631.63 463.06 622.45 472.15 610.93 C 474.44 625.84 474.33 640.97 474.56 656.01 C 474.12 673.61 472.48 691.16 472.09 708.76 C 460.98 697.82 446.21 690.82 430.82 688.58 C 422.62 687.53 413.68 687.72 406.53 692.40 C 410.48 676.78 409.08 660.10 403.66 645.00 C 415.58 646.98 427.89 644.34 438.33 638.41 Z" />
	</g>
	<g id="#f11b27ff">
		<path fill="var(--shirt-color, grey)" opacity="1.00"
			d=" M 404.40 165.47 C 414.73 161.33 426.04 160.86 437.00 159.92 C 447.34 159.13 458.79 159.07 467.48 165.59 C 472.60 169.80 476.87 175.14 482.94 178.11 C 492.10 182.63 502.31 184.34 511.73 188.22 C 518.57 191.08 525.91 193.47 531.44 198.63 C 541.53 207.77 548.38 219.88 553.70 232.26 C 559.24 246.25 564.11 260.52 568.04 275.05 C 572.29 293.74 575.09 312.74 577.66 331.72 C 565.19 330.46 552.58 332.16 540.62 335.76 C 530.19 338.87 519.62 343.70 512.81 352.55 C 511.65 347.05 510.90 341.48 510.52 335.88 C 509.89 326.49 507.60 317.33 505.81 308.12 C 502.36 289.94 495.21 272.79 489.62 255.23 C 487.06 247.35 488.22 239.01 488.74 230.93 C 487.71 232.51 486.50 234.08 486.21 236.01 C 485.00 242.40 484.96 249.07 486.28 255.45 C 490.53 273.57 497.88 290.81 501.65 309.05 C 503.69 318.70 506.39 328.26 507.37 338.11 C 508.06 344.57 509.48 350.93 510.73 357.31 C 511.40 361.01 514.37 363.53 517.04 365.88 C 517.14 372.53 517.14 379.23 518.41 385.79 C 509.07 377.44 503.60 366.01 498.17 354.97 C 490.93 339.39 485.83 322.93 478.78 307.26 C 471.31 288.65 462.13 270.82 452.98 253.00 C 451.98 250.98 450.46 249.29 448.80 247.79 C 448.87 254.10 452.47 259.50 454.84 265.13 C 462.71 281.36 468.93 298.30 476.32 314.74 C 485.02 334.04 491.39 354.58 503.46 372.19 C 494.98 365.39 484.94 360.57 477.43 352.59 C 470.41 345.28 465.89 336.16 461.52 327.15 C 461.29 329.68 461.25 332.31 462.29 334.69 C 465.11 341.95 469.49 348.52 474.37 354.55 C 481.05 362.73 490.37 367.98 498.43 374.60 C 503.33 378.68 508.26 382.72 512.97 387.03 C 516.99 390.75 518.01 396.36 519.37 401.42 C 521.13 408.69 523.58 415.76 525.33 423.03 C 519.68 418.96 515.35 413.41 509.91 409.08 C 500.62 401.34 489.38 396.49 479.70 389.31 C 473.21 384.54 467.80 378.54 461.81 373.19 C 459.33 370.76 456.29 368.85 452.72 368.72 C 463.23 377.73 471.71 389.08 483.46 396.65 C 491.66 402.06 500.19 407.04 507.92 413.15 C 513.92 417.81 518.83 424.26 526.35 426.61 C 529.74 436.34 532.67 446.60 539.25 454.75 C 545.52 462.56 551.58 470.55 557.20 478.84 C 560.44 483.90 562.97 489.59 562.89 495.71 C 546.44 501.90 531.20 510.86 514.66 516.81 C 492.82 525.11 469.28 528.26 446.00 527.88 C 424.54 527.33 403.26 530.55 382.00 532.93 C 376.36 533.63 370.72 532.89 365.10 532.43 C 363.57 522.19 355.62 514.70 352.80 504.94 C 350.84 499.50 350.48 493.62 351.20 487.91 C 351.88 479.49 355.58 471.53 355.17 462.99 C 354.63 452.99 351.65 443.34 349.67 433.57 C 348.55 427.99 348.56 422.29 348.49 416.63 C 353.38 425.15 358.86 433.33 365.07 440.95 C 369.01 445.68 372.55 450.95 377.83 454.32 C 367.76 438.43 355.11 424.02 347.69 406.56 C 341.29 390.95 341.19 372.92 331.18 358.82 C 327.97 354.16 327.63 348.37 326.93 342.94 C 325.03 326.03 323.96 309.02 324.05 292.00 C 323.99 287.10 324.20 282.13 323.11 277.31 C 320.81 284.29 321.47 291.75 321.26 298.97 C 321.31 317.70 321.37 336.65 325.32 355.05 C 318.21 351.71 310.79 348.74 302.95 347.74 C 292.91 346.47 282.76 346.08 272.67 346.87 C 274.69 341.99 278.19 337.48 278.37 332.03 C 277.91 324.99 274.48 317.86 276.94 310.84 C 280.50 301.20 287.35 293.34 292.46 284.56 C 294.20 290.53 297.14 296.14 300.90 301.09 C 301.90 302.50 303.55 303.17 305.00 304.02 C 301.56 295.12 294.44 287.07 295.25 276.95 C 296.50 270.85 298.71 264.97 300.86 259.14 C 302.31 268.56 306.27 277.90 313.30 284.50 C 312.12 278.98 308.66 274.34 307.12 268.95 C 305.66 264.01 304.07 259.03 303.79 253.86 C 304.53 250.93 306.60 248.59 307.96 245.95 C 310.29 241.97 309.81 237.05 312.02 233.01 C 317.48 222.56 326.79 214.65 337.00 209.04 C 348.18 203.74 359.64 199.05 370.92 193.97 C 377.02 191.07 383.39 188.07 387.79 182.75 C 393.08 176.80 396.63 168.68 404.40 165.47 Z" />
		<path fill="var(--shirt-color, grey)" opacity="1.00"
			d=" M 515.15 356.14 C 516.23 352.46 519.72 350.36 522.55 348.10 C 524.20 350.98 525.79 353.90 527.32 356.86 C 523.96 357.74 520.59 359.04 517.07 358.86 C 515.81 358.76 514.58 357.39 515.15 356.14 Z" />
	</g>
	<g id="#ffffffff">
		<path fill="var(--pants-color, grey)" opacity="1.00"
			d=" M 508.62 523.40 C 528.36 517.16 546.27 506.52 565.58 499.19 C 570.66 507.87 577.23 515.58 584.28 522.73 C 593.66 531.90 602.94 541.79 607.83 554.19 C 609.69 557.44 607.75 561.10 606.04 563.97 C 600.64 572.67 591.52 577.92 582.99 583.07 C 566.20 592.81 549.64 602.91 532.99 612.88 C 529.04 615.21 524.93 617.24 520.76 619.14 C 519.22 617.14 517.53 614.90 514.87 614.46 C 510.66 613.78 506.40 614.65 502.23 615.25 C 493.99 600.06 482.49 586.87 469.52 575.55 C 465.72 572.49 462.34 568.28 457.26 567.47 C 458.17 569.23 459.32 570.88 460.81 572.22 C 466.83 577.90 472.93 583.55 478.29 589.87 C 475.91 595.24 474.21 600.99 470.69 605.76 C 461.99 617.43 450.66 627.08 437.79 633.86 C 426.90 640.30 413.81 642.70 401.35 640.44 C 398.52 636.30 396.16 631.84 392.90 628.00 C 387.33 621.23 383.28 613.43 379.53 605.56 C 373.87 595.45 370.58 584.26 367.54 573.15 C 364.77 560.58 361.79 547.64 363.89 534.72 C 369.81 536.06 375.87 537.00 381.95 536.44 C 401.64 534.87 421.23 531.71 441.03 531.95 C 463.80 532.65 486.86 530.39 508.62 523.40 Z" />
		<path fill="var(--socks-color, grey)" opacity="1.00"
			d=" M 607.44 679.39 C 617.80 674.76 628.69 671.01 640.01 669.69 C 643.25 669.59 647.33 668.67 649.96 671.00 C 657.03 684.07 661.66 698.37 665.05 712.81 C 669.02 732.60 670.43 752.84 670.26 772.99 C 669.57 798.71 667.49 824.36 666.77 850.08 C 665.89 864.73 666.47 880.01 672.44 893.65 C 674.68 898.94 679.68 903.90 678.15 910.07 C 667.10 906.32 660.99 894.70 649.96 890.82 C 644.66 889.35 639.48 891.87 634.83 894.16 C 632.76 895.38 630.15 893.72 629.62 891.59 C 629.06 889.42 629.08 887.16 628.92 884.95 C 628.12 867.91 625.50 851.04 623.55 834.12 C 622.52 826.32 621.93 818.45 620.21 810.77 C 612.50 778.43 596.68 748.28 592.82 715.00 C 592.14 708.25 590.93 701.57 589.98 694.87 C 589.50 692.21 591.08 689.76 593.02 688.11 C 597.28 684.41 602.36 681.79 607.44 679.39 Z" />
		<path fill="var(--socks-color, grey)" opacity="1.00"
			d=" M 405.53 697.23 C 413.49 690.48 424.84 690.87 434.49 692.76 C 448.40 695.89 461.92 702.44 471.86 712.82 C 470.28 738.42 475.07 763.89 473.74 789.48 C 472.93 816.40 467.00 843.18 469.81 870.17 C 470.69 881.24 474.62 891.88 474.74 903.04 C 474.77 904.80 474.15 906.47 473.59 908.12 C 471.54 907.49 469.70 906.30 468.49 904.52 C 464.47 899.05 461.82 892.70 457.70 887.30 C 454.10 882.31 447.01 881.44 441.40 882.66 C 432.97 885.46 428.54 893.87 424.89 901.33 C 425.91 885.19 424.49 869.05 422.90 853.00 C 421.34 831.20 418.57 809.43 412.84 788.30 C 408.16 771.45 402.97 754.55 401.97 736.99 C 400.78 723.63 402.65 710.25 405.53 697.23 Z" />
	</g>
	<g id="#4d4d4dff">
		<path fill="#4d4d4d" opacity="1.00"
			d=" M 432.66 895.62 C 435.55 891.34 439.45 886.70 445.00 886.41 C 448.07 886.42 451.64 886.74 453.78 889.24 C 459.29 895.58 461.82 904.23 468.39 909.69 C 470.70 911.82 473.84 911.22 476.59 910.49 C 478.58 924.58 482.46 938.47 488.47 951.38 C 490.49 955.92 490.32 961.00 490.15 965.86 C 483.12 963.51 474.71 962.31 470.31 955.60 C 465.75 949.30 467.98 941.22 466.85 934.09 C 465.04 927.05 457.92 922.62 451.00 921.85 C 441.75 920.80 432.45 924.57 425.48 930.54 C 425.34 924.09 424.08 917.58 425.10 911.17 C 426.66 905.59 429.58 900.48 432.66 895.62 Z" />
		<path fill="#4d4d4d" opacity="1.00"
			d=" M 634.79 898.41 C 639.64 897.15 644.53 893.41 649.68 895.54 C 657.93 899.41 663.55 907.06 671.41 911.54 C 673.98 912.86 677.00 914.22 679.93 913.30 C 681.24 912.01 681.96 910.29 682.88 908.73 C 690.12 919.43 700.16 927.70 709.29 936.70 C 719.09 946.78 732.33 955.38 735.63 969.95 C 721.36 957.95 700.71 960.08 685.83 949.19 C 677.16 942.54 669.03 935.18 660.03 928.95 C 653.99 924.84 646.53 921.69 639.11 923.34 C 634.31 924.39 630.78 928.05 627.50 931.45 C 625.35 919.74 625.69 907.79 626.73 895.99 C 629.17 897.34 631.82 899.47 634.79 898.41 Z" />
		<path fill="#4d4d4d" opacity="1.00"
			d=" M 439.96 926.76 C 447.19 924.45 456.52 925.07 461.48 931.50 C 464.25 934.69 463.40 939.15 463.54 943.03 C 463.43 949.49 465.15 956.44 470.18 960.86 C 475.42 966.19 483.29 966.57 489.92 969.15 C 481.15 971.44 472.09 972.31 463.06 972.66 C 453.95 973.12 444.59 973.27 435.81 970.43 C 433.97 969.80 431.81 968.96 431.21 966.91 C 429.85 962.01 431.15 956.91 430.82 951.93 C 430.57 945.95 427.25 940.65 426.68 934.73 C 429.69 930.33 435.09 928.36 439.96 926.76 Z" />
		<path fill="#4d4d4d" opacity="1.00"
			d=" M 628.49 935.70 C 632.41 931.59 636.83 926.59 643.06 926.84 C 651.96 927.00 659.18 932.98 665.93 938.12 C 675.10 945.01 683.19 953.75 694.14 957.88 C 705.50 962.79 718.44 963.46 729.21 969.79 C 731.86 971.59 736.44 975.06 733.34 978.40 C 729.23 984.83 721.00 986.20 713.96 986.34 C 704.44 986.32 694.71 984.91 686.02 980.89 C 677.21 976.82 671.91 968.34 665.12 961.82 C 660.01 956.91 654.99 951.34 648.10 948.98 C 643.69 947.51 638.88 946.83 635.10 943.93 C 632.16 941.87 630.34 938.68 628.49 935.70 Z" />
	</g>
</svg>