<?xml version="1.0" encoding="UTF-8" ?>
<!DOCTYPE svg PUBLIC "-//W3C//DTD SVG 1.1//EN" "http://www.w3.org/Graphics/SVG/1.1/DTD/svg11.dtd">
<svg width="1000pt" height="1000pt" viewBox="0 0 1000 1000" version="1.1" xmlns="http://www.w3.org/2000/svg">
	<g id="#020202ff">
		<path fill="#020202" opacity="1.00"
			d=" M 386.00 28.07 C 396.13 18.43 409.24 12.23 422.89 9.51 C 438.98 6.60 455.94 10.66 469.70 19.29 C 486.13 29.56 496.56 47.88 499.20 66.86 C 502.00 86.17 496.29 105.85 486.06 122.19 C 484.44 128.44 487.36 135.08 491.37 139.90 C 496.60 137.21 500.50 131.17 506.99 131.81 C 516.75 132.11 526.17 135.08 535.53 137.63 C 549.74 142.44 564.08 148.48 575.12 158.94 C 589.30 172.87 597.78 191.10 608.35 207.65 C 616.71 221.21 626.76 233.75 638.26 244.79 C 640.13 246.69 642.20 248.53 643.34 251.00 C 642.43 254.01 640.39 256.46 638.67 259.03 C 642.45 267.89 643.88 277.48 645.03 286.98 C 645.65 292.48 645.41 298.46 642.20 303.20 C 636.47 311.85 627.51 317.54 619.01 323.15 C 619.58 333.15 620.89 343.09 621.52 353.08 C 622.12 358.92 622.11 364.89 623.70 370.58 C 625.86 376.93 629.25 382.75 632.27 388.71 C 639.30 404.46 648.35 419.39 653.12 436.09 C 654.64 441.22 656.18 446.55 655.66 451.95 C 655.00 455.20 652.88 457.87 651.09 460.58 C 653.94 469.43 653.32 478.91 652.50 488.03 C 651.26 498.10 649.45 508.20 645.75 517.68 C 639.19 534.86 632.90 552.20 624.47 568.59 C 617.30 583.48 607.79 597.15 601.37 612.41 C 598.37 619.26 597.67 626.76 595.84 633.93 C 595.15 637.49 591.55 638.90 588.67 640.31 C 588.66 644.65 588.89 649.13 590.76 653.13 C 593.68 659.67 597.21 665.92 600.94 672.03 C 605.96 680.21 612.57 687.26 617.68 695.38 C 625.99 708.15 631.63 722.46 636.12 736.96 C 641.75 756.88 646.94 776.93 651.52 797.12 C 653.87 808.72 656.61 820.28 657.42 832.13 C 669.74 837.78 678.81 849.34 683.10 862.04 C 685.02 867.95 686.18 875.06 682.53 880.56 C 679.91 884.89 675.79 887.98 671.46 890.47 C 663.98 894.79 659.06 902.26 651.83 906.92 C 644.58 911.70 636.01 913.93 627.52 915.26 C 615.39 917.01 603.00 917.62 590.82 915.98 C 586.54 915.55 583.94 911.09 584.05 907.10 C 583.79 899.67 588.54 893.42 592.65 887.69 C 598.94 879.51 605.50 871.48 610.53 862.43 C 613.20 857.52 613.94 851.78 616.92 847.01 C 614.71 827.82 604.41 811.13 595.60 794.40 C 584.99 774.62 566.65 759.95 557.99 739.00 C 554.65 730.60 550.95 722.34 548.14 713.74 C 546.15 708.46 544.85 702.47 540.37 698.64 C 533.69 692.87 527.42 685.86 525.56 676.96 C 515.95 676.38 506.37 675.36 496.76 674.76 C 488.54 685.61 485.54 699.56 485.89 712.96 C 486.36 720.33 487.26 727.86 490.38 734.63 C 493.76 742.15 498.44 749.12 500.66 757.13 C 505.37 773.65 506.23 790.93 507.07 807.99 C 507.50 827.32 506.32 846.68 507.80 866.00 C 508.90 884.61 511.58 903.08 514.27 921.52 C 515.37 928.86 517.91 935.96 521.58 942.41 C 526.25 951.98 528.93 963.25 525.87 973.73 C 524.12 979.59 521.25 985.59 516.03 989.10 C 512.83 991.33 508.75 991.36 505.01 991.12 C 495.57 990.42 486.45 987.60 477.11 986.25 C 464.79 984.37 452.24 984.53 439.92 986.28 C 421.37 988.83 402.51 991.74 383.79 989.11 C 378.29 988.29 372.63 986.35 368.72 982.22 C 364.27 977.00 362.48 968.61 366.77 962.78 C 370.29 958.87 375.54 957.24 380.33 955.46 C 395.67 950.28 410.94 944.74 425.34 937.29 C 436.08 931.95 445.96 924.85 454.56 916.51 C 452.14 907.47 450.97 898.15 448.54 889.12 C 445.41 876.92 443.12 864.50 439.37 852.47 C 434.51 835.54 426.73 819.51 423.36 802.14 C 420.55 789.31 420.34 776.08 417.74 763.22 C 415.73 754.73 413.57 746.21 409.83 738.29 C 403.01 723.72 397.95 708.13 396.74 692.03 C 396.02 676.20 402.11 661.24 406.22 646.23 C 402.43 639.24 397.04 631.28 400.06 623.02 C 403.15 613.46 407.51 604.35 410.77 594.84 C 413.19 587.62 416.11 580.57 418.23 573.26 C 422.01 560.72 423.42 547.53 428.28 535.30 C 433.40 522.19 441.04 510.27 448.16 498.18 C 452.89 490.10 458.79 482.37 460.80 473.03 C 462.19 468.09 460.69 462.98 461.28 457.96 C 462.28 445.96 463.75 433.99 463.85 421.94 C 464.13 408.80 464.12 394.93 458.10 382.91 C 442.73 389.39 426.69 395.01 409.97 396.45 C 406.64 397.11 401.88 394.06 399.81 397.80 C 397.74 401.11 396.40 404.88 393.85 407.89 C 390.60 412.14 386.08 415.15 381.29 417.41 C 379.35 418.16 378.50 420.13 377.44 421.76 C 380.01 422.97 384.15 422.77 385.14 425.97 C 385.52 430.36 381.52 434.85 377.00 434.48 C 371.94 434.32 366.86 433.53 362.10 431.80 C 359.34 430.94 357.96 428.20 356.41 426.00 C 353.43 424.82 349.96 423.88 348.17 420.96 C 346.60 418.54 345.00 416.11 342.82 414.19 C 339.31 411.19 338.56 406.44 336.53 402.52 C 334.81 399.33 335.63 395.47 337.39 392.48 C 340.79 386.69 345.58 381.92 350.25 377.16 C 355.41 371.94 361.87 367.86 369.11 366.34 C 374.25 365.10 379.75 365.67 384.71 363.64 C 388.86 361.98 392.75 359.78 396.63 357.59 C 412.18 348.39 427.95 339.57 443.87 331.01 C 437.48 323.66 438.36 313.23 434.16 304.86 C 431.88 300.09 429.42 295.40 427.53 290.46 C 420.34 271.53 413.78 251.56 415.63 231.02 C 415.94 222.14 419.77 213.91 420.57 205.11 C 421.29 196.99 424.67 189.35 429.20 182.67 C 427.76 180.81 426.31 178.95 424.90 177.08 C 421.46 179.81 417.20 184.41 412.48 181.58 C 406.00 177.44 401.60 170.80 397.62 164.38 C 391.24 153.08 384.09 141.87 381.23 129.04 C 379.44 121.83 378.69 114.40 376.97 107.17 C 374.94 103.60 371.67 100.81 369.96 97.00 C 364.35 85.27 364.81 71.58 368.20 59.28 C 371.01 47.47 377.13 36.41 386.00 28.07 M 377.18 88.57 C 381.31 101.51 382.74 115.07 385.88 128.25 C 389.00 141.22 396.31 152.54 403.17 163.78 C 406.92 169.14 410.59 174.84 416.02 178.67 C 427.74 171.09 433.67 157.87 442.90 147.85 C 443.89 146.93 445.09 146.37 446.48 146.17 C 445.21 150.53 442.17 153.97 439.75 157.71 C 436.13 163.25 432.43 168.77 428.04 173.75 C 429.65 175.27 431.22 176.83 432.77 178.43 C 442.54 167.94 452.42 156.27 466.39 151.47 C 473.17 149.07 479.75 146.14 486.14 142.85 C 482.10 138.72 479.89 133.22 479.39 127.50 C 472.17 132.15 463.31 132.40 455.01 132.76 C 444.33 132.98 433.46 133.37 423.01 130.81 C 419.80 129.89 415.99 128.46 415.06 124.87 C 411.99 115.68 416.88 106.36 416.71 97.11 C 416.75 94.64 414.07 93.81 412.24 95.15 C 402.90 100.41 398.39 110.61 392.99 119.33 C 391.08 115.65 390.91 111.42 389.52 107.57 C 387.02 100.35 382.48 94.01 377.18 88.57 M 497.90 140.90 C 488.28 147.58 477.65 152.65 466.72 156.78 C 456.44 160.56 449.01 168.97 441.68 176.72 C 436.69 182.39 431.21 187.84 427.86 194.70 C 425.80 198.86 425.52 203.55 424.89 208.06 C 423.99 215.78 420.79 223.05 420.36 230.85 C 418.26 250.12 424.28 268.99 431.28 286.68 C 434.10 294.37 438.73 301.24 441.58 308.92 C 453.21 301.54 466.41 297.02 479.76 293.93 C 494.16 290.67 509.00 290.89 523.66 290.04 C 519.95 279.84 514.78 270.24 508.84 261.18 C 502.83 252.29 495.42 244.45 489.34 235.61 C 487.71 233.08 485.74 230.58 485.38 227.49 L 486.94 227.40 C 492.48 232.63 497.41 238.53 502.22 244.44 C 500.59 237.51 500.75 230.33 501.11 223.27 C 501.97 224.22 503.14 225.08 503.31 226.46 C 504.75 233.85 505.46 241.38 507.19 248.72 C 507.70 250.95 508.84 252.96 510.16 254.80 C 516.39 263.69 521.68 273.25 525.80 283.30 C 527.07 286.68 528.65 290.23 528.20 293.92 C 527.18 296.77 523.94 296.69 521.48 297.07 C 524.69 305.19 527.04 313.62 529.17 322.08 C 530.58 328.17 531.73 334.59 530.35 340.79 C 528.75 345.80 524.76 349.60 520.63 352.65 C 506.23 363.46 489.42 370.31 472.82 376.94 C 476.52 379.65 480.09 382.54 483.89 385.11 C 486.92 387.17 490.46 388.72 492.63 391.83 C 490.64 391.87 488.54 392.10 486.70 391.22 C 480.01 388.05 473.81 383.85 468.53 378.65 C 466.36 379.55 464.20 380.43 462.03 381.32 C 464.80 386.43 466.49 392.01 467.45 397.72 C 487.94 408.70 511.17 413.06 534.10 415.23 C 535.53 415.12 536.41 415.76 536.74 417.16 C 532.67 418.57 528.25 418.15 524.03 417.95 C 504.75 415.94 485.04 412.42 468.18 402.33 C 468.92 408.77 468.99 415.25 468.87 421.72 C 476.46 428.39 484.91 433.95 493.22 439.68 C 503.23 446.57 513.32 453.48 524.34 458.71 C 535.71 464.11 548.30 467.79 561.00 466.66 C 560.58 463.68 559.66 460.81 559.15 457.85 C 563.50 458.82 565.95 463.83 564.94 467.98 C 564.21 470.47 561.51 471.64 559.11 471.71 C 548.46 472.36 537.84 470.02 528.00 466.07 C 514.09 460.60 501.78 451.95 489.70 443.31 C 482.49 438.10 475.10 433.04 468.79 426.73 C 468.43 434.76 467.77 442.78 466.74 450.76 C 466.17 456.49 465.21 462.28 465.97 468.04 C 466.31 471.37 469.42 473.24 471.63 475.36 C 477.68 480.95 485.26 484.59 493.02 487.15 C 503.85 490.21 514.74 493.57 526.06 494.22 C 546.80 495.44 567.51 493.10 588.09 490.74 C 598.61 489.47 609.14 487.74 619.22 484.40 C 622.78 483.32 625.80 481.03 628.19 478.23 C 635.50 469.85 643.47 461.98 649.85 452.83 C 651.80 450.56 650.93 447.51 650.48 444.87 C 648.05 434.13 643.91 423.85 639.08 413.98 C 631.19 398.15 623.20 382.39 615.52 366.45 C 608.36 350.92 603.21 334.56 598.55 318.13 C 597.98 315.14 596.28 311.63 598.61 308.96 C 601.33 315.35 603.05 322.11 605.50 328.61 C 608.95 337.88 612.49 347.12 616.14 356.32 C 615.39 347.80 614.57 339.28 613.80 330.75 C 612.13 312.87 612.05 294.83 609.21 277.06 C 606.84 262.13 603.51 247.33 598.76 232.97 C 597.68 231.30 600.59 230.45 601.37 231.63 C 603.42 233.86 604.37 236.82 605.47 239.58 C 609.57 250.98 612.33 262.82 614.49 274.72 C 623.73 268.19 632.47 260.88 639.56 252.01 C 625.77 239.10 613.75 224.37 603.70 208.39 C 594.04 193.46 586.10 177.23 573.86 164.14 C 567.22 157.06 558.69 152.11 549.94 148.10 C 542.54 144.81 535.05 141.64 527.19 139.62 C 520.28 137.82 513.36 135.63 506.21 135.22 C 503.02 136.40 500.65 139.00 497.90 140.90 M 615.23 279.33 C 617.16 292.07 617.77 304.96 618.54 317.81 C 625.38 312.68 632.83 307.88 637.67 300.65 C 640.69 296.37 640.06 290.84 639.47 285.95 C 638.24 278.32 637.19 270.65 635.38 263.13 C 629.45 269.43 622.58 274.78 615.23 279.33 M 460.01 305.14 C 462.73 309.60 465.41 314.07 468.17 318.51 C 474.79 315.65 481.24 310.98 488.71 311.19 C 484.34 314.61 478.99 316.40 474.24 319.20 C 465.63 324.08 456.89 328.70 448.03 333.12 C 431.51 342.08 415.24 351.52 399.06 361.11 C 394.51 363.68 389.96 366.35 385.01 368.11 C 379.77 370.04 374.02 369.28 368.69 370.84 C 362.72 372.33 357.53 375.91 353.13 380.11 C 347.96 385.05 342.60 390.25 340.04 397.10 C 338.80 400.41 342.26 402.81 342.74 405.91 C 343.32 408.97 345.61 411.13 348.01 412.90 C 350.31 414.45 350.77 417.47 352.74 419.33 C 354.87 420.78 357.58 420.89 359.84 422.09 C 361.04 423.60 361.71 425.44 362.86 426.99 C 367.32 428.92 372.27 429.46 377.09 429.80 C 378.67 430.04 379.69 428.54 380.89 427.79 C 378.22 426.42 373.58 426.64 372.75 423.05 C 372.93 419.01 374.69 414.34 378.80 412.85 C 384.75 410.24 390.23 405.96 393.04 399.98 C 394.73 396.53 396.24 392.35 400.10 390.80 C 403.73 390.08 407.42 391.51 411.09 390.93 C 433.51 388.02 454.18 378.38 474.94 369.99 C 490.52 363.68 506.19 356.95 519.68 346.73 C 523.56 343.78 527.34 339.31 526.34 334.07 C 524.87 321.24 519.89 309.15 517.37 296.52 C 497.97 296.11 478.09 297.58 460.01 305.14 M 442.73 314.18 C 443.72 319.31 445.02 324.42 447.34 329.14 C 453.09 326.37 458.75 323.42 464.45 320.55 C 461.25 316.22 459.10 311.25 457.52 306.13 C 452.41 308.47 447.50 311.21 442.73 314.18 M 634.35 479.36 C 630.95 483.00 627.39 486.85 622.52 488.43 C 604.32 494.54 585.02 495.92 566.03 497.76 C 552.38 498.79 538.64 499.73 524.95 498.74 C 513.61 498.00 502.68 494.59 491.85 491.39 C 481.39 488.20 472.16 481.99 464.42 474.37 C 462.38 484.62 455.61 492.86 450.65 501.79 C 442.59 515.70 433.59 529.39 429.20 545.01 C 426.10 555.91 424.72 567.23 421.14 578.01 C 417.35 589.39 413.44 600.75 409.15 611.96 C 407.34 617.30 404.86 622.44 403.72 627.98 C 403.10 630.87 405.07 633.37 406.11 635.91 C 409.59 643.58 414.50 650.55 420.38 656.58 C 427.16 663.93 435.96 669.87 445.92 671.69 C 457.88 674.25 469.97 670.94 481.94 670.21 C 499.76 669.34 517.44 672.30 535.19 673.26 C 538.65 666.94 539.92 659.77 542.14 652.99 C 546.24 639.78 546.76 625.87 549.69 612.41 C 552.59 597.87 558.45 584.16 564.82 570.84 C 569.96 560.35 574.55 549.56 580.42 539.44 C 581.57 537.30 583.35 535.60 585.41 534.34 C 585.42 538.17 583.58 541.58 581.98 544.94 C 576.51 556.60 571.31 568.39 566.67 580.42 C 562.60 590.40 558.59 600.46 556.23 611.01 C 553.37 622.79 552.57 635.00 549.05 646.63 C 563.06 644.92 576.52 640.49 589.59 635.32 C 592.15 634.58 592.20 631.62 592.70 629.48 C 593.74 622.77 595.13 616.06 597.86 609.82 C 604.41 594.61 613.85 580.86 620.93 565.91 C 629.98 548.15 636.62 529.32 643.43 510.62 C 647.59 495.51 650.14 479.61 648.37 463.93 C 643.95 469.30 639.10 474.29 634.35 479.36 M 547.85 650.92 C 545.39 659.52 542.97 668.41 537.72 675.81 C 535.67 678.01 532.18 676.93 529.52 677.31 C 532.79 686.41 540.57 692.42 547.13 699.05 C 550.36 694.35 554.84 690.69 559.67 687.72 C 571.06 680.95 584.39 677.02 597.70 677.60 C 593.00 670.60 588.82 663.21 585.49 655.46 C 583.58 651.26 583.29 646.61 583.44 642.08 C 571.98 646.46 560.07 649.64 547.85 650.92 M 409.12 650.51 C 405.86 664.53 399.78 678.33 400.95 693.01 C 402.64 708.57 407.54 723.63 414.17 737.76 C 433.23 723.54 457.86 717.56 481.40 719.46 C 479.93 704.09 481.53 687.53 490.50 674.49 C 478.25 674.13 466.20 677.04 453.96 676.88 C 445.58 676.74 437.50 673.79 430.20 669.86 C 421.66 665.30 415.09 657.97 409.12 650.51 M 566.24 690.20 C 559.77 693.47 553.29 697.65 549.87 704.29 C 554.16 716.15 558.45 728.02 563.49 739.58 C 566.52 745.93 570.29 751.91 574.55 757.50 C 583.72 769.12 593.59 780.38 600.45 793.59 C 609.02 809.89 618.71 826.23 621.18 844.81 C 625.29 842.61 629.32 840.06 632.39 836.49 C 635.00 833.50 637.79 830.24 641.85 829.36 C 645.48 828.14 649.25 829.15 652.77 830.24 C 651.53 819.45 649.01 808.89 646.88 798.26 C 643.23 782.24 639.67 766.17 634.64 750.52 C 629.62 732.02 623.49 713.43 612.64 697.44 C 609.21 692.22 605.10 687.49 601.22 682.60 C 589.12 681.48 577.00 684.82 566.24 690.20 M 440.82 729.63 C 432.15 732.84 423.80 736.87 415.78 741.46 C 418.20 747.60 419.75 754.03 421.40 760.42 C 424.08 772.08 424.47 784.12 426.55 795.89 C 428.58 808.25 432.55 820.19 437.11 831.83 C 443.40 848.24 447.44 865.37 451.27 882.48 C 454.05 892.84 456.07 903.36 458.38 913.83 C 461.10 913.28 464.12 912.73 466.61 914.38 C 473.61 918.51 477.85 925.82 483.93 931.04 C 487.51 933.99 491.08 937.74 495.98 938.14 C 500.66 937.57 506.04 935.50 507.77 930.69 C 510.44 923.70 508.80 916.10 507.82 908.95 C 505.67 894.38 504.00 879.73 503.09 865.02 C 501.68 846.38 502.54 827.69 502.11 809.03 C 501.25 791.77 500.07 774.33 495.11 757.68 C 492.82 749.99 488.07 743.36 485.33 735.86 C 483.99 732.20 483.12 728.40 482.19 724.63 C 468.24 723.58 454.11 725.29 440.82 729.63 M 643.38 834.52 C 638.93 835.92 636.84 840.61 633.37 843.41 C 629.70 847.05 624.62 848.56 620.42 851.39 C 618.32 855.31 617.98 859.93 615.96 863.91 C 610.80 873.98 603.47 882.68 596.20 891.28 C 592.85 895.68 588.74 900.24 588.38 906.02 C 588.47 907.98 588.44 911.25 591.08 911.45 C 603.60 913.42 616.40 912.55 628.85 910.50 C 637.74 908.88 647.01 906.21 653.64 899.72 C 658.82 894.48 663.55 888.49 670.37 885.24 C 675.19 883.02 679.81 878.80 679.19 872.98 C 678.24 861.06 670.82 850.68 662.57 842.48 C 657.40 837.83 650.85 832.48 643.38 834.52 M 460.25 918.11 C 456.83 921.08 454.39 925.06 450.66 927.73 C 432.08 943.37 408.72 951.32 386.12 959.18 C 381.35 960.95 376.23 962.08 371.93 964.91 C 368.43 967.46 369.10 972.67 370.80 976.12 C 373.16 981.09 378.89 983.05 383.96 983.90 C 400.63 986.34 417.48 984.18 434.05 981.95 C 447.95 979.98 462.14 979.15 476.09 981.21 C 487.13 982.53 497.84 986.46 509.05 986.23 C 514.21 986.27 517.44 981.51 519.38 977.34 C 523.00 969.89 523.07 961.20 520.57 953.40 C 518.90 946.15 514.11 940.22 511.91 933.18 C 507.95 940.14 499.01 945.29 491.16 941.89 C 481.97 936.73 475.77 927.88 468.29 920.70 C 466.16 918.81 463.18 916.37 460.25 918.11 Z" />
		<path fill="#020202" opacity="1.00"
			d=" M 547.87 205.46 C 548.94 206.13 550.52 206.58 550.65 208.11 C 552.40 215.44 552.52 223.03 553.17 230.50 C 555.08 258.92 555.72 287.50 553.29 315.90 C 553.43 317.98 551.78 319.79 549.86 318.16 C 549.24 315.83 549.32 313.39 549.28 311.01 C 549.35 284.32 550.00 257.62 548.78 230.94 C 548.62 222.44 547.87 213.96 547.87 205.46 Z" />
		<path fill="#020202" opacity="1.00"
			d=" M 469.59 686.64 C 470.92 685.28 472.75 684.74 474.56 684.37 C 469.87 693.61 460.79 699.63 455.44 708.42 C 453.91 710.58 452.10 713.72 448.94 712.98 C 446.27 711.06 447.69 707.44 449.57 705.52 C 455.95 698.92 462.79 692.78 469.59 686.64 Z" />
	</g>
	<g id="#f0b58bff">
		<path fill="#f0b58b" opacity="1.00"
			d=" M 377.18 88.57 C 382.48 94.01 387.02 100.35 389.52 107.57 C 390.91 111.42 391.08 115.65 392.99 119.33 C 398.39 110.61 402.90 100.41 412.24 95.15 C 414.07 93.81 416.75 94.64 416.71 97.11 C 416.88 106.36 411.99 115.68 415.06 124.87 C 415.99 128.46 419.80 129.89 423.01 130.81 C 433.46 133.37 444.33 132.98 455.01 132.76 C 463.31 132.40 472.17 132.15 479.39 127.50 C 479.89 133.22 482.10 138.72 486.14 142.85 C 479.75 146.14 473.17 149.07 466.39 151.47 C 452.42 156.27 442.54 167.94 432.77 178.43 C 431.22 176.83 429.65 175.27 428.04 173.75 C 432.43 168.77 436.13 163.25 439.75 157.71 C 442.17 153.97 445.21 150.53 446.48 146.17 C 445.09 146.37 443.89 146.93 442.90 147.85 C 433.67 157.87 427.74 171.09 416.02 178.67 C 410.59 174.84 406.92 169.14 403.17 163.78 C 396.31 152.54 389.00 141.22 385.88 128.25 C 382.74 115.07 381.31 101.51 377.18 88.57 Z" />
		<path fill="#f0b58b" opacity="1.00"
			d=" M 615.23 279.33 C 622.58 274.78 629.45 269.43 635.38 263.13 C 637.19 270.65 638.24 278.32 639.47 285.95 C 640.06 290.84 640.69 296.37 637.67 300.65 C 632.83 307.88 625.38 312.68 618.54 317.81 C 617.77 304.96 617.16 292.07 615.23 279.33 Z" />
		<path fill="#f0b58b" opacity="1.00"
			d=" M 460.01 305.14 C 478.09 297.58 497.97 296.11 517.37 296.52 C 519.89 309.15 524.87 321.24 526.34 334.07 C 527.34 339.31 523.56 343.78 519.68 346.73 C 506.19 356.95 490.52 363.68 474.94 369.99 C 454.18 378.38 433.51 388.02 411.09 390.93 C 407.42 391.51 403.73 390.08 400.10 390.80 C 396.24 392.35 394.73 396.53 393.04 399.98 C 390.23 405.96 384.75 410.24 378.80 412.85 C 374.69 414.34 372.93 419.01 372.75 423.05 C 373.58 426.64 378.22 426.42 380.89 427.79 C 379.69 428.54 378.67 430.04 377.09 429.80 C 372.27 429.46 367.32 428.92 362.86 426.99 C 361.71 425.44 361.04 423.60 359.84 422.09 C 357.58 420.89 354.87 420.78 352.74 419.33 C 350.77 417.47 350.31 414.45 348.01 412.90 C 345.61 411.13 343.32 408.97 342.74 405.91 C 342.26 402.81 338.80 400.41 340.04 397.10 C 342.60 390.25 347.96 385.05 353.13 380.11 C 357.53 375.91 362.72 372.33 368.69 370.84 C 374.02 369.28 379.77 370.04 385.01 368.11 C 389.96 366.35 394.51 363.68 399.06 361.11 C 415.24 351.52 431.51 342.08 448.03 333.12 C 456.89 328.70 465.63 324.08 474.24 319.20 C 478.99 316.40 484.34 314.61 488.71 311.19 C 481.24 310.98 474.79 315.65 468.17 318.51 C 465.41 314.07 462.73 309.60 460.01 305.14 Z" />
		<path fill="#f0b58b" opacity="1.00"
			d=" M 547.85 650.92 C 560.07 649.64 571.98 646.46 583.44 642.08 C 583.29 646.61 583.58 651.26 585.49 655.46 C 588.82 663.21 593.00 670.60 597.70 677.60 C 584.39 677.02 571.06 680.95 559.67 687.72 C 554.84 690.69 550.36 694.35 547.13 699.05 C 540.57 692.42 532.79 686.41 529.52 677.31 C 532.18 676.93 535.67 678.01 537.72 675.81 C 542.97 668.41 545.39 659.52 547.85 650.92 Z" />
		<path fill="#f0b58b" opacity="1.00"
			d=" M 409.12 650.51 C 415.09 657.97 421.66 665.30 430.20 669.86 C 437.50 673.79 445.58 676.74 453.96 676.88 C 466.20 677.04 478.25 674.13 490.50 674.49 C 481.53 687.53 479.93 704.09 481.40 719.46 C 457.86 717.56 433.23 723.54 414.17 737.76 C 407.54 723.63 402.64 708.57 400.95 693.01 C 399.78 678.33 405.86 664.53 409.12 650.51 M 469.59 686.64 C 462.79 692.78 455.95 698.92 449.57 705.52 C 447.69 707.44 446.27 711.06 448.94 712.98 C 452.10 713.72 453.91 710.58 455.44 708.42 C 460.79 699.63 469.87 693.61 474.56 684.37 C 472.75 684.74 470.92 685.28 469.59 686.64 Z" />
	</g>
	<g id="#f11b27ff">
		<path fill="var(--shirt-color, grey)" opacity="1.00"
			d=" M 497.90 140.90 C 500.65 139.00 503.02 136.40 506.21 135.22 C 513.36 135.63 520.28 137.82 527.19 139.62 C 535.05 141.64 542.54 144.81 549.94 148.10 C 558.69 152.11 567.22 157.06 573.86 164.14 C 586.10 177.23 594.04 193.46 603.70 208.39 C 613.75 224.37 625.77 239.10 639.56 252.01 C 632.47 260.88 623.73 268.19 614.49 274.72 C 612.33 262.82 609.57 250.98 605.47 239.58 C 604.37 236.82 603.42 233.86 601.37 231.63 C 600.59 230.45 597.68 231.30 598.76 232.97 C 603.51 247.33 606.84 262.13 609.21 277.06 C 612.05 294.83 612.13 312.87 613.80 330.75 C 614.57 339.28 615.39 347.80 616.14 356.32 C 612.49 347.12 608.95 337.88 605.50 328.61 C 603.05 322.11 601.33 315.35 598.61 308.96 C 596.28 311.63 597.98 315.14 598.55 318.13 C 603.21 334.56 608.36 350.92 615.52 366.45 C 623.20 382.39 631.19 398.15 639.08 413.98 C 643.91 423.85 648.05 434.13 650.48 444.87 C 650.93 447.51 651.80 450.56 649.85 452.83 C 643.47 461.98 635.50 469.85 628.19 478.23 C 625.80 481.03 622.78 483.32 619.22 484.40 C 609.14 487.74 598.61 489.47 588.09 490.74 C 567.51 493.10 546.80 495.44 526.06 494.22 C 514.74 493.57 503.85 490.21 493.02 487.15 C 485.26 484.59 477.68 480.95 471.63 475.36 C 469.42 473.24 466.31 471.37 465.97 468.04 C 465.21 462.28 466.17 456.49 466.74 450.76 C 467.77 442.78 468.43 434.76 468.79 426.73 C 475.10 433.04 482.49 438.10 489.70 443.31 C 501.78 451.95 514.09 460.60 528.00 466.07 C 537.84 470.02 548.46 472.36 559.11 471.71 C 561.51 471.64 564.21 470.47 564.94 467.98 C 565.95 463.83 563.50 458.82 559.15 457.85 C 559.66 460.81 560.58 463.68 561.00 466.66 C 548.30 467.79 535.71 464.11 524.34 458.71 C 513.32 453.48 503.23 446.57 493.22 439.68 C 484.91 433.95 476.46 428.39 468.87 421.72 C 468.99 415.25 468.92 408.77 468.18 402.33 C 485.04 412.42 504.75 415.94 524.03 417.95 C 528.25 418.15 532.67 418.57 536.74 417.16 C 536.41 415.76 535.53 415.12 534.10 415.23 C 511.17 413.06 487.94 408.70 467.45 397.72 C 466.49 392.01 464.80 386.43 462.03 381.32 C 464.20 380.43 466.36 379.55 468.53 378.65 C 473.81 383.85 480.01 388.05 486.70 391.22 C 488.54 392.10 490.64 391.87 492.63 391.83 C 490.46 388.72 486.92 387.17 483.89 385.11 C 480.09 382.54 476.52 379.65 472.82 376.94 C 489.42 370.31 506.23 363.46 520.63 352.65 C 524.76 349.60 528.75 345.80 530.35 340.79 C 531.73 334.59 530.58 328.17 529.17 322.08 C 527.04 313.62 524.69 305.19 521.48 297.07 C 523.94 296.69 527.18 296.77 528.20 293.92 C 528.65 290.23 527.07 286.68 525.80 283.30 C 521.68 273.25 516.39 263.69 510.16 254.80 C 508.84 252.96 507.70 250.95 507.19 248.72 C 505.46 241.38 504.75 233.85 503.31 226.46 C 503.14 225.08 501.97 224.22 501.11 223.27 C 500.75 230.33 500.59 237.51 502.22 244.44 C 497.41 238.53 492.48 232.63 486.94 227.40 L 485.38 227.49 C 485.74 230.58 487.71 233.08 489.34 235.61 C 495.42 244.45 502.83 252.29 508.84 261.18 C 514.78 270.24 519.95 279.84 523.66 290.04 C 509.00 290.89 494.16 290.67 479.76 293.93 C 466.41 297.02 453.21 301.54 441.58 308.92 C 438.73 301.24 434.10 294.37 431.28 286.68 C 424.28 268.99 418.26 250.12 420.36 230.85 C 420.79 223.05 423.99 215.78 424.89 208.06 C 425.52 203.55 425.80 198.86 427.86 194.70 C 431.21 187.84 436.69 182.39 441.68 176.72 C 449.01 168.97 456.44 160.56 466.72 156.78 C 477.65 152.65 488.28 147.58 497.90 140.90 M 547.87 205.46 C 547.87 213.96 548.62 222.44 548.78 230.94 C 550.00 257.62 549.35 284.32 549.28 311.01 C 549.32 313.39 549.24 315.83 549.86 318.16 C 551.78 319.79 553.43 317.98 553.29 315.90 C 555.72 287.50 555.08 258.92 553.17 230.50 C 552.52 223.03 552.40 215.44 550.65 208.11 C 550.52 206.58 548.94 206.13 547.87 205.46 Z" />
		<path fill="var(--shirt-color, grey)" opacity="1.00"
			d=" M 442.73 314.18 C 447.50 311.21 452.41 308.47 457.52 306.13 C 459.10 311.25 461.25 316.22 464.45 320.55 C 458.75 323.42 453.09 326.37 447.34 329.14 C 445.02 324.42 443.72 319.31 442.73 314.18 Z" />
	</g>
	<g id="#ffffffff">
		<path fill="var(--pants-color, grey)" opacity="1.00"
			d=" M 634.35 479.36 C 639.10 474.29 643.95 469.30 648.37 463.93 C 650.14 479.61 647.59 495.51 643.43 510.62 C 636.62 529.32 629.98 548.15 620.93 565.91 C 613.85 580.86 604.41 594.61 597.86 609.82 C 595.13 616.06 593.74 622.77 592.70 629.48 C 592.20 631.62 592.15 634.58 589.59 635.32 C 576.52 640.49 563.06 644.92 549.05 646.63 C 552.57 635.00 553.37 622.79 556.23 611.01 C 558.59 600.46 562.60 590.40 566.67 580.42 C 571.31 568.39 576.51 556.60 581.98 544.94 C 583.58 541.58 585.42 538.17 585.41 534.34 C 583.35 535.60 581.57 537.30 580.42 539.44 C 574.55 549.56 569.96 560.35 564.82 570.84 C 558.45 584.16 552.59 597.87 549.69 612.41 C 546.76 625.87 546.24 639.78 542.14 652.99 C 539.92 659.77 538.65 666.94 535.19 673.26 C 517.44 672.30 499.76 669.34 481.94 670.21 C 469.97 670.94 457.88 674.25 445.92 671.69 C 435.96 669.87 427.16 663.93 420.38 656.58 C 414.50 650.55 409.59 643.58 406.11 635.91 C 405.07 633.37 403.10 630.87 403.72 627.98 C 404.86 622.44 407.34 617.30 409.15 611.96 C 413.44 600.75 417.35 589.39 421.14 578.01 C 424.72 567.23 426.10 555.91 429.20 545.01 C 433.59 529.39 442.59 515.70 450.65 501.79 C 455.61 492.86 462.38 484.62 464.42 474.37 C 472.16 481.99 481.39 488.20 491.85 491.39 C 502.68 494.59 513.61 498.00 524.95 498.74 C 538.64 499.73 552.38 498.79 566.03 497.76 C 585.02 495.92 604.32 494.54 622.52 488.43 C 627.39 486.85 630.95 483.00 634.35 479.36 Z" />
		<path fill="var(--socks-color, grey)" opacity="1.00"
			d=" M 566.24 690.20 C 577.00 684.82 589.12 681.48 601.22 682.60 C 605.10 687.49 609.21 692.22 612.64 697.44 C 623.49 713.43 629.62 732.02 634.64 750.52 C 639.67 766.17 643.23 782.24 646.88 798.26 C 649.01 808.89 651.53 819.45 652.77 830.24 C 649.25 829.15 645.48 828.14 641.85 829.36 C 637.79 830.24 635.00 833.50 632.39 836.49 C 629.32 840.06 625.29 842.61 621.18 844.81 C 618.71 826.23 609.02 809.89 600.45 793.59 C 593.59 780.38 583.72 769.12 574.55 757.50 C 570.29 751.91 566.52 745.93 563.49 739.58 C 558.45 728.02 554.16 716.15 549.87 704.29 C 553.29 697.65 559.77 693.47 566.24 690.20 Z" />
		<path fill="var(--socks-color, grey)" opacity="1.00"
			d=" M 440.82 729.63 C 454.11 725.29 468.24 723.58 482.19 724.63 C 483.12 728.40 483.99 732.20 485.33 735.86 C 488.07 743.36 492.82 749.99 495.11 757.68 C 500.07 774.33 501.25 791.77 502.11 809.03 C 502.54 827.69 501.68 846.38 503.09 865.02 C 504.00 879.73 505.67 894.38 507.82 908.95 C 508.80 916.10 510.44 923.70 507.77 930.69 C 506.04 935.50 500.66 937.57 495.98 938.14 C 491.08 937.74 487.51 933.99 483.93 931.04 C 477.85 925.82 473.61 918.51 466.61 914.38 C 464.12 912.73 461.10 913.28 458.38 913.83 C 456.07 903.36 454.05 892.84 451.27 882.48 C 447.44 865.37 443.40 848.24 437.11 831.83 C 432.55 820.19 428.58 808.25 426.55 795.89 C 424.47 784.12 424.08 772.08 421.40 760.42 C 419.75 754.03 418.20 747.60 415.78 741.46 C 423.80 736.87 432.15 732.84 440.82 729.63 Z" />
	</g>
	<g id="#4d4d4dff">
		<path fill="#4d4d4d" opacity="1.00"
			d=" M 643.38 834.52 C 650.85 832.48 657.40 837.83 662.57 842.48 C 670.82 850.68 678.24 861.06 679.19 872.98 C 679.81 878.80 675.19 883.02 670.37 885.24 C 663.55 888.49 658.82 894.48 653.64 899.72 C 647.01 906.21 637.74 908.88 628.85 910.50 C 616.40 912.55 603.60 913.42 591.08 911.45 C 588.44 911.25 588.47 907.98 588.38 906.02 C 588.74 900.24 592.85 895.68 596.20 891.28 C 603.47 882.68 610.80 873.98 615.96 863.91 C 617.98 859.93 618.32 855.31 620.42 851.39 C 624.62 848.56 629.70 847.05 633.37 843.41 C 636.84 840.61 638.93 835.92 643.38 834.52 Z" />
		<path fill="#4d4d4d" opacity="1.00"
			d=" M 460.25 918.11 C 463.18 916.37 466.16 918.81 468.29 920.70 C 475.77 927.88 481.97 936.73 491.16 941.89 C 499.01 945.29 507.95 940.14 511.91 933.18 C 514.11 940.22 518.90 946.15 520.57 953.40 C 523.07 961.20 523.00 969.89 519.38 977.34 C 517.44 981.51 514.21 986.27 509.05 986.23 C 497.84 986.46 487.13 982.53 476.09 981.21 C 462.14 979.15 447.95 979.98 434.05 981.95 C 417.48 984.18 400.63 986.34 383.96 983.90 C 378.89 983.05 373.16 981.09 370.80 976.12 C 369.10 972.67 368.43 967.46 371.93 964.91 C 376.23 962.08 381.35 960.95 386.12 959.18 C 408.72 951.32 432.08 943.37 450.66 927.73 C 454.39 925.06 456.83 921.08 460.25 918.11 Z" />
	</g>
</svg>