<?xml version="1.0" encoding="UTF-8" ?>
<!DOCTYPE svg PUBLIC "-//W3C//DTD SVG 1.1//EN" "http://www.w3.org/Graphics/SVG/1.1/DTD/svg11.dtd">
<svg width="1000pt" height="1000pt" viewBox="0 0 1000 1000" version="1.1" xmlns="http://www.w3.org/2000/svg">
	<g id="#020202ff">
		<path fill="#020202" opacity="1.00"
			d=" M 401.77 12.76 C 412.13 7.26 424.62 5.74 435.93 9.01 C 449.83 12.90 461.46 23.02 468.61 35.40 C 480.29 55.82 482.26 82.14 471.37 103.31 C 463.98 115.57 461.12 130.58 463.38 144.71 C 476.29 146.10 489.41 147.11 501.82 151.20 C 507.91 153.16 513.17 156.93 518.21 160.76 C 530.13 170.07 546.17 171.71 558.06 181.05 C 564.30 187.31 570.20 194.29 573.32 202.68 C 577.75 214.06 580.74 225.93 583.44 237.81 C 584.98 245.07 587.77 251.99 591.46 258.42 C 600.32 274.30 606.27 291.94 607.90 310.08 C 608.56 315.00 602.06 313.99 598.94 314.46 C 600.30 326.97 602.44 339.62 607.78 351.13 C 611.06 358.11 613.95 365.29 616.22 372.67 C 624.55 399.27 623.17 427.47 623.50 454.99 C 623.32 469.34 624.69 483.68 627.09 497.82 C 629.42 510.42 633.34 523.07 631.99 536.03 C 631.08 545.18 625.24 552.73 619.72 559.69 C 615.71 563.94 611.12 568.84 604.98 569.41 C 602.07 569.61 601.64 566.50 601.21 564.35 C 598.94 563.63 596.36 563.15 594.75 561.24 C 593.17 559.58 593.07 557.17 592.55 555.07 C 591.85 554.06 591.10 553.07 590.57 551.98 C 589.78 549.28 591.67 546.91 592.87 544.68 C 593.64 531.29 591.41 518.03 589.67 504.80 C 588.69 496.13 587.68 486.73 591.57 478.59 C 593.48 474.57 597.62 470.96 596.40 466.07 C 593.38 452.10 588.54 438.56 582.36 425.67 C 576.60 413.37 570.07 401.40 565.45 388.60 C 560.59 374.45 555.39 360.22 553.73 345.25 C 553.15 340.81 552.81 336.34 552.06 331.92 C 551.72 333.93 551.60 335.97 551.69 338.01 C 552.60 354.73 553.94 371.43 556.35 388.01 C 557.40 403.06 562.72 417.26 566.35 431.78 C 570.22 443.59 573.69 455.53 576.25 467.70 C 578.51 475.99 579.54 484.53 580.26 493.07 C 580.33 494.56 579.71 495.96 579.37 497.38 C 577.76 502.42 577.78 507.79 578.05 513.02 C 580.81 536.38 590.64 557.99 598.75 579.82 C 599.73 583.25 600.84 586.65 602.09 589.99 C 608.06 609.79 612.10 630.28 612.84 650.99 C 613.04 658.30 613.79 665.67 612.76 672.95 C 612.64 675.31 609.67 675.38 608.04 676.27 C 612.92 692.82 611.85 710.80 619.32 726.64 C 623.88 737.22 632.96 745.10 637.05 755.93 C 642.94 770.97 645.70 787.04 647.66 803.01 C 649.18 820.69 649.00 838.56 646.57 856.16 C 645.11 867.71 643.41 879.39 644.97 891.04 C 645.84 896.15 648.09 900.91 650.76 905.31 C 654.97 912.20 659.62 918.88 665.27 924.67 C 674.40 934.06 681.24 946.00 683.54 958.96 C 684.72 965.03 682.21 971.56 677.05 975.02 C 669.71 979.96 660.81 981.61 652.26 983.14 C 641.52 984.65 630.00 984.76 619.98 980.09 C 614.83 977.81 612.14 972.48 610.33 967.46 C 607.69 959.00 608.10 949.81 610.25 941.30 C 611.97 935.54 613.59 929.42 612.30 923.41 C 608.81 909.67 600.91 897.73 595.01 884.99 C 581.48 854.63 573.60 822.02 569.37 789.12 C 567.51 775.48 563.60 762.19 558.61 749.39 C 554.66 740.52 549.28 732.34 545.71 723.29 C 541.06 711.79 537.16 699.82 535.77 687.45 C 526.92 688.94 517.97 690.36 508.98 690.07 C 505.88 689.82 502.56 689.78 499.81 688.17 C 497.51 685.69 496.91 682.22 496.13 679.05 C 493.71 667.97 491.35 656.86 487.89 646.05 C 482.85 629.69 480.52 612.69 478.49 595.75 C 470.93 613.45 461.67 630.51 456.45 649.12 C 453.35 660.29 450.53 671.57 448.85 683.05 C 448.58 684.29 448.48 685.65 447.77 686.76 C 446.13 688.13 443.84 688.17 441.83 688.41 C 436.30 688.68 430.77 688.79 425.26 689.07 C 425.94 697.46 424.39 705.79 423.04 714.03 C 421.07 725.65 416.61 736.60 412.78 747.68 C 408.83 759.03 409.66 771.17 409.27 782.98 C 407.52 819.97 396.25 855.53 385.81 890.77 C 383.53 898.80 380.55 906.71 379.65 915.05 C 379.20 918.33 380.07 921.58 381.29 924.61 C 383.87 931.04 384.96 937.96 387.61 944.37 C 391.59 954.66 393.04 966.52 388.98 977.01 C 387.55 981.36 383.16 983.48 379.30 985.26 C 366.05 991.05 351.23 991.72 336.99 991.01 C 330.07 990.33 322.73 989.96 316.57 986.41 C 310.74 982.98 309.16 975.32 310.49 969.11 C 312.05 961.32 318.18 955.77 322.33 949.34 C 325.74 943.83 331.03 939.35 332.68 932.88 C 337.20 913.14 334.40 892.82 332.58 872.93 C 331.21 858.65 331.34 844.28 330.89 829.96 C 330.82 809.90 330.76 789.51 336.20 770.03 C 341.25 750.11 353.30 732.00 353.88 711.01 C 354.47 703.62 353.75 696.22 353.02 688.87 C 349.30 689.04 345.69 690.02 342.01 690.41 C 338.29 688.79 339.30 684.15 339.19 680.93 C 340.30 665.46 342.91 650.15 345.46 634.87 C 348.55 617.15 347.76 599.06 350.19 581.26 C 351.17 571.75 352.93 562.35 354.44 552.92 C 355.38 546.91 357.47 541.16 358.62 535.20 C 361.96 517.30 359.98 498.89 362.75 480.96 C 365.86 474.48 365.52 466.87 362.51 460.41 C 359.10 453.37 360.84 445.47 360.92 437.99 C 361.73 419.97 359.01 402.05 358.89 384.04 C 358.96 372.75 358.00 361.49 357.80 350.21 C 352.11 349.89 346.42 349.25 340.92 347.74 C 337.08 354.38 334.71 361.84 333.84 369.46 C 332.86 380.00 334.08 390.78 331.45 401.14 C 329.27 409.83 325.65 418.07 322.40 426.40 C 319.05 435.11 315.02 443.54 311.04 451.98 C 307.20 461.20 303.54 470.92 304.28 481.10 C 304.91 493.80 312.01 504.86 314.95 517.00 C 316.99 526.10 316.51 535.61 314.75 544.72 C 313.92 549.16 311.30 552.97 308.15 556.10 C 310.16 558.65 312.53 560.96 314.17 563.79 C 315.45 565.93 314.55 568.42 314.03 570.65 C 313.22 573.02 311.93 575.17 309.90 576.68 C 309.72 579.42 308.31 582.51 305.09 582.37 C 295.58 582.79 287.40 576.34 281.25 569.72 C 270.92 558.56 269.05 542.53 268.93 527.97 C 268.61 501.93 270.01 475.81 274.20 450.08 C 276.85 434.51 274.74 418.62 276.92 403.00 C 278.82 389.46 280.85 375.77 285.97 363.01 C 289.21 355.03 292.29 346.95 294.40 338.58 C 295.25 334.56 296.00 330.52 297.27 326.61 C 294.78 326.03 291.02 327.17 289.66 324.42 C 288.24 321.88 288.57 318.85 288.63 316.06 C 289.37 305.13 290.49 294.19 292.80 283.47 C 295.17 272.46 300.04 262.09 301.53 250.87 C 303.22 242.63 301.81 234.05 304.16 225.92 C 305.64 219.63 309.45 214.30 313.11 209.12 C 318.95 200.97 326.78 194.45 335.18 189.09 C 347.28 181.29 360.28 174.93 373.71 169.76 C 383.68 166.02 392.37 159.66 402.15 155.50 C 401.46 146.02 397.12 137.37 393.01 128.99 C 386.87 116.82 377.96 106.04 373.82 92.92 C 368.26 75.88 369.12 56.77 376.52 40.41 C 381.71 28.85 390.46 18.68 401.77 12.76 M 418.94 133.98 C 409.54 132.99 401.04 128.40 393.73 122.61 C 399.13 132.42 405.11 142.67 405.61 154.13 C 423.00 148.86 440.77 143.05 459.21 144.40 C 457.43 135.64 458.57 126.59 461.13 118.11 C 450.41 129.35 434.59 136.27 418.94 133.98 M 412.95 156.06 C 401.38 159.14 391.48 166.06 380.96 171.47 C 395.84 169.06 410.96 169.02 425.99 168.46 C 433.64 168.46 441.45 167.53 448.96 169.37 C 445.39 171.62 441.03 171.28 437.00 171.53 C 418.63 172.46 400.23 173.09 381.95 175.20 C 374.37 176.25 366.51 177.03 359.66 180.74 C 345.71 187.74 331.64 195.34 320.73 206.71 C 315.25 212.67 310.29 219.54 308.49 227.57 C 306.63 234.96 308.12 242.64 306.87 250.11 C 306.06 258.56 303.38 266.63 300.79 274.66 C 295.65 290.22 294.83 306.71 292.60 322.84 C 297.43 322.56 302.32 322.73 307.02 323.97 C 314.20 325.86 321.46 328.12 327.57 332.48 C 331.94 335.37 335.74 339.08 340.26 341.75 C 345.67 344.54 351.77 345.52 357.65 346.86 C 357.60 332.95 358.10 318.88 355.55 305.14 C 354.48 298.97 350.21 294.24 346.83 289.23 C 342.16 281.82 336.64 274.84 333.28 266.70 C 337.65 268.48 339.89 272.81 342.49 276.45 C 346.14 281.83 349.96 287.10 354.08 292.13 C 351.88 279.87 349.50 267.58 344.96 255.93 C 348.15 258.02 349.94 261.43 351.05 264.98 C 355.54 278.51 358.03 292.59 360.57 306.59 C 362.68 319.29 362.15 332.20 362.25 345.01 C 362.84 362.52 363.76 380.02 364.14 397.54 C 365.46 415.15 366.75 432.82 365.35 450.48 C 377.13 454.41 389.82 452.03 401.90 454.08 C 404.10 454.56 406.55 455.65 407.29 457.99 C 407.43 461.01 404.68 462.99 402.39 464.41 C 392.63 469.88 381.51 472.11 370.58 473.85 C 369.39 478.69 367.64 483.44 367.63 488.49 C 366.93 504.23 366.01 519.97 363.71 535.56 C 371.90 533.76 380.34 533.74 388.61 532.42 C 402.48 530.93 415.98 526.77 429.96 526.13 C 436.64 525.72 443.27 526.91 449.94 526.87 C 464.19 526.44 477.19 520.03 490.35 515.28 C 502.99 510.49 515.99 506.74 528.99 503.08 C 538.89 500.60 548.79 497.77 559.02 497.06 C 565.15 496.41 571.54 497.23 577.43 494.96 C 575.48 491.56 572.95 488.22 569.10 486.89 C 555.40 481.49 540.38 482.82 525.98 482.99 C 511.96 483.13 497.91 483.05 483.93 481.94 C 481.41 481.79 478.93 481.24 476.62 480.25 C 480.36 479.55 484.18 479.51 487.98 479.57 C 501.32 479.81 514.66 479.41 528.00 479.09 C 543.85 478.56 560.91 477.07 575.37 484.97 C 573.98 475.68 571.51 466.60 569.40 457.46 C 566.90 446.42 562.61 435.90 560.06 424.87 C 557.86 414.60 551.64 405.89 547.57 396.35 C 543.29 385.74 536.68 376.31 531.94 365.93 C 527.39 356.33 524.13 346.21 520.70 336.18 C 518.27 328.32 515.63 320.34 515.49 312.04 C 518.69 318.50 519.88 325.68 522.39 332.40 C 528.16 349.36 536.17 365.44 544.89 381.04 C 548.61 387.50 550.99 394.59 553.84 401.45 C 552.28 391.70 551.49 381.83 549.62 372.14 C 546.81 360.60 541.85 349.74 538.82 338.28 C 533.63 319.34 527.72 300.51 524.90 281.02 C 522.67 268.07 522.14 254.93 520.67 241.90 C 519.31 232.49 519.83 222.93 520.76 213.51 C 521.51 214.59 522.72 215.50 522.82 216.92 C 523.78 223.51 523.02 230.24 524.13 236.83 C 525.15 243.23 525.97 249.66 526.51 256.13 C 528.27 276.63 531.54 297.08 537.29 316.87 C 540.64 329.02 543.63 341.30 547.95 353.17 C 546.74 336.16 545.71 319.10 546.43 302.04 C 546.79 289.00 547.08 275.93 548.32 262.93 C 548.94 256.50 549.25 249.97 551.13 243.76 C 551.97 245.40 552.99 247.10 552.73 249.04 C 551.59 275.59 550.59 302.18 551.23 328.76 C 559.57 320.08 571.16 316.03 582.37 312.54 C 589.42 310.49 596.81 310.18 604.09 309.58 C 601.96 294.08 597.47 278.82 590.05 265.00 C 586.28 257.89 581.96 250.95 579.99 243.06 C 576.73 229.97 573.89 216.70 568.98 204.10 C 566.13 196.65 561.46 189.87 555.48 184.60 C 543.65 175.84 528.01 174.59 516.20 165.77 C 511.28 162.13 506.33 158.27 500.44 156.32 C 488.04 152.14 474.89 151.20 461.97 149.77 C 445.40 148.11 428.70 150.91 412.95 156.06 M 555.79 329.64 C 556.28 334.40 556.84 339.16 557.60 343.90 C 559.48 359.16 564.71 373.71 569.86 388.12 C 577.94 409.46 590.68 428.88 596.95 450.94 C 598.56 456.90 601.00 462.77 601.13 469.02 C 600.91 474.58 595.92 478.22 594.53 483.39 C 592.05 492.49 593.90 501.97 594.82 511.16 C 596.16 521.14 597.05 531.22 596.35 541.30 C 597.68 538.68 599.37 536.07 599.54 533.06 C 599.76 529.83 599.73 526.58 600.15 523.37 C 603.93 525.37 603.19 530.40 603.43 534.00 C 603.16 541.29 596.35 545.42 593.59 551.59 C 599.13 550.98 605.24 548.11 607.30 542.56 C 609.67 536.38 609.88 529.61 609.27 523.09 C 608.88 518.07 608.53 512.73 605.59 508.45 C 603.26 505.43 599.80 503.29 598.22 499.71 C 596.05 494.69 596.39 488.82 598.57 483.87 C 600.20 480.31 601.39 476.23 604.74 473.86 C 603.75 480.94 599.54 487.69 601.25 495.05 C 601.97 500.65 607.87 503.10 610.01 507.96 C 612.89 514.23 614.12 521.16 614.72 527.99 C 614.95 535.09 614.06 542.80 609.63 548.62 C 606.53 552.80 601.26 554.18 597.10 556.97 C 598.58 558.78 601.01 560.95 603.45 559.31 C 607.69 556.27 610.72 551.88 614.20 548.05 C 617.69 544.29 618.52 539.02 621.29 534.82 C 622.14 537.41 621.67 540.12 620.87 542.65 C 618.58 552.21 608.83 557.14 605.05 565.92 C 614.51 561.96 620.27 552.83 625.31 544.38 C 630.93 532.99 627.43 519.89 625.06 508.10 C 619.73 485.82 619.03 462.80 619.15 439.99 C 619.02 417.13 618.57 393.79 611.40 371.85 C 609.24 364.98 606.41 358.35 603.41 351.81 C 598.23 340.14 596.11 327.35 595.70 314.65 C 581.59 316.67 567.27 320.90 555.79 329.64 M 300.22 326.89 C 299.49 330.42 298.93 333.98 298.30 337.54 C 297.45 342.36 295.35 346.98 295.41 351.95 C 295.31 359.26 295.15 366.58 295.53 373.89 C 295.72 379.10 297.04 384.29 296.32 389.51 C 295.03 387.46 293.94 385.26 293.59 382.85 C 292.27 375.04 291.64 367.12 291.49 359.20 C 287.56 368.04 284.92 377.40 283.18 386.91 C 281.14 398.16 279.24 409.52 279.37 420.99 C 279.46 431.88 279.12 442.80 277.31 453.56 C 274.97 468.28 273.81 483.15 273.11 498.03 C 272.48 512.27 271.94 526.57 273.17 540.80 C 274.32 550.29 277.15 560.07 283.82 567.22 C 289.42 573.46 297.07 579.23 305.90 578.73 C 302.64 575.10 298.50 572.38 295.36 568.65 C 286.64 558.49 282.58 544.48 284.67 531.24 C 285.39 526.98 287.47 523.16 289.24 519.28 C 291.19 515.23 290.65 510.63 291.78 506.38 C 294.76 510.49 294.21 515.74 293.40 520.45 C 296.25 521.77 299.22 523.40 300.51 526.46 C 304.93 534.63 302.75 544.31 305.72 552.89 C 308.39 550.21 310.50 546.90 310.99 543.10 C 312.28 535.07 312.77 526.78 311.12 518.77 C 308.65 507.45 302.28 497.31 300.67 485.77 C 299.01 473.57 302.35 461.35 306.94 450.14 C 311.15 441.38 315.02 432.46 318.47 423.37 C 321.42 415.63 324.73 407.99 326.82 399.96 C 330.15 387.42 327.35 374.16 330.71 361.63 C 332.09 356.14 334.98 351.24 337.53 346.24 C 330.89 341.60 325.09 335.62 317.57 332.36 C 311.99 329.96 306.16 328.16 300.22 326.89 M 365.28 453.50 C 367.41 459.03 369.95 464.50 370.40 470.50 C 381.79 467.48 394.15 465.81 403.77 458.46 C 391.17 455.18 377.57 458.32 365.28 453.50 M 557.51 501.29 C 549.24 502.15 541.19 504.32 533.15 506.40 C 516.12 510.77 499.39 516.28 483.09 522.87 C 470.08 528.02 456.25 532.94 442.03 531.24 C 430.35 529.88 418.68 532.02 407.24 534.17 C 395.96 536.44 384.48 537.75 372.99 538.26 C 369.36 538.44 365.75 538.91 362.22 539.79 C 359.48 548.35 358.41 557.28 357.05 566.13 C 353.94 584.86 353.34 603.86 352.17 622.77 C 349.57 644.06 344.92 665.04 342.40 686.34 C 350.95 683.05 360.31 684.52 368.90 686.84 C 377.07 689.10 385.69 689.22 393.99 687.59 C 411.14 684.27 428.63 683.74 446.04 683.34 C 446.32 671.09 449.50 659.15 452.62 647.37 C 457.06 630.75 464.96 615.39 472.06 599.80 C 474.02 595.85 476.08 591.61 480.02 589.26 C 482.82 594.09 483.23 599.76 484.29 605.13 C 486.27 617.57 488.88 629.92 492.34 642.03 C 496.93 656.10 500.26 670.57 503.04 685.09 C 523.29 687.28 543.00 680.79 562.84 677.92 C 578.21 675.78 593.57 673.01 609.14 672.88 C 609.52 660.21 608.73 647.51 607.49 634.91 C 604.34 612.13 598.62 589.61 589.55 568.44 C 582.57 550.53 575.24 532.36 573.60 513.03 C 573.71 508.56 574.05 504.08 574.96 499.70 C 569.21 500.81 563.31 500.52 557.51 501.29 M 288.57 546.62 C 291.15 557.91 298.52 567.54 307.77 574.30 C 308.39 573.20 309.00 572.11 309.62 571.03 C 307.12 568.00 304.27 565.28 301.71 562.30 C 295.60 555.70 291.59 546.84 291.95 537.75 C 294.44 540.44 295.10 544.15 296.56 547.41 C 299.62 555.57 305.85 562.08 312.52 567.47 C 308.61 560.69 300.61 555.95 300.29 547.45 C 299.20 539.10 300.45 528.01 291.98 523.06 C 288.14 530.23 287.17 538.66 288.57 546.62 M 539.07 686.79 C 541.93 705.24 548.50 723.04 557.68 739.27 C 562.41 747.32 565.12 756.29 567.87 765.15 C 570.19 762.92 572.66 760.86 575.23 758.92 C 574.82 749.88 574.38 740.76 572.23 731.94 C 571.41 728.29 569.21 725.20 567.75 721.81 C 569.17 718.83 571.99 722.32 573.20 723.84 C 579.50 733.58 578.52 745.82 578.32 756.91 C 592.12 748.70 607.84 742.63 624.10 742.90 C 617.64 734.58 612.90 724.94 610.58 714.64 C 607.35 701.93 607.24 688.62 603.43 676.03 C 581.87 678.93 560.38 682.41 539.07 686.79 M 357.42 689.26 C 359.39 704.32 359.08 720.09 353.67 734.45 C 351.19 742.38 347.64 749.91 344.68 757.66 C 360.06 751.86 377.07 756.05 391.85 761.72 C 390.11 748.13 394.10 734.68 399.46 722.35 C 400.37 720.03 402.14 718.23 404.25 716.96 C 402.51 722.90 399.87 728.54 398.37 734.56 C 395.56 743.84 395.03 753.59 395.44 763.23 C 398.87 764.92 402.22 766.77 405.46 768.81 C 405.62 759.23 407.37 749.70 410.81 740.76 C 417.14 724.34 421.64 706.90 421.46 689.21 C 416.93 689.52 412.41 690.02 407.89 690.48 C 398.59 691.26 389.45 693.91 380.05 693.45 C 372.33 693.19 364.98 690.59 357.42 689.26 M 608.18 749.39 C 593.92 752.97 580.40 759.63 569.09 769.06 C 571.35 777.84 572.96 786.77 574.11 795.77 C 579.48 830.63 588.54 865.38 605.17 896.68 C 610.60 907.17 615.55 918.37 616.56 930.25 C 619.83 925.59 624.33 921.58 629.84 919.87 C 636.55 917.84 644.27 918.88 649.94 923.11 C 653.42 925.71 657.89 926.45 662.15 926.35 C 654.58 918.50 647.72 909.76 643.09 899.85 C 639.53 892.42 639.83 884.03 639.86 876.00 C 640.00 869.62 641.30 863.35 641.85 857.00 C 644.73 834.48 644.74 811.48 640.92 789.07 C 638.41 775.05 635.71 760.56 628.07 748.29 C 621.47 746.75 614.66 747.84 608.18 749.39 M 349.01 760.20 C 346.53 761.03 342.90 761.41 342.33 764.51 C 339.75 772.65 337.85 781.01 336.82 789.49 C 335.02 802.25 335.58 815.16 335.27 828.01 C 335.78 843.35 335.70 858.74 337.20 874.04 C 338.85 893.27 341.60 913.10 336.02 931.98 C 340.94 925.85 347.90 920.77 356.05 920.65 C 365.73 919.69 374.27 925.43 380.60 932.19 C 378.93 928.05 376.46 924.20 375.50 919.81 C 374.48 912.93 376.55 906.12 378.35 899.55 C 384.39 879.74 390.50 859.93 395.45 839.81 C 401.18 818.20 404.78 795.93 405.26 773.55 C 398.22 769.16 390.65 765.61 382.72 763.15 C 371.89 759.92 360.22 757.78 349.01 760.20 M 630.74 923.81 C 622.52 926.96 616.03 934.60 614.51 943.32 C 612.94 951.22 612.40 959.56 614.40 967.43 C 616.07 973.44 621.95 976.96 627.72 978.20 C 640.69 981.17 654.24 979.06 666.90 975.58 C 674.58 973.52 681.24 965.23 678.97 957.07 C 676.55 947.12 671.02 938.28 664.93 930.18 C 660.19 930.53 655.25 930.31 651.00 927.94 C 644.86 924.69 637.78 921.40 630.74 923.81 M 352.37 925.26 C 344.66 927.69 338.81 933.77 334.17 940.15 C 329.06 947.43 324.29 954.95 319.28 962.30 C 316.57 966.26 314.10 970.93 315.12 975.90 C 315.83 981.70 321.74 984.94 327.00 985.79 C 337.26 987.35 347.72 987.23 358.03 986.25 C 365.22 985.59 372.43 984.06 378.95 980.89 C 382.19 979.32 385.25 976.67 385.97 972.99 C 388.06 963.09 386.38 952.70 382.59 943.42 C 380.50 938.23 376.17 934.45 372.10 930.82 C 366.75 926.39 359.32 923.31 352.37 925.26 Z" />
		<path fill="#020202" opacity="1.00"
			d=" M 510.72 252.83 C 511.52 250.48 512.69 248.29 514.09 246.24 C 514.39 249.80 514.09 253.41 513.02 256.83 C 509.79 267.92 505.87 278.79 502.93 289.96 C 497.61 309.71 494.40 330.07 487.24 349.30 C 481.20 365.23 474.92 381.06 468.98 397.02 C 467.30 401.31 466.56 405.99 464.17 409.99 L 462.92 408.91 C 462.73 404.11 464.34 399.47 465.62 394.90 C 471.02 378.27 477.53 362.03 483.37 345.55 C 490.48 325.20 493.26 303.64 500.23 283.24 C 503.65 273.07 507.23 262.97 510.72 252.83 Z" />
		<path fill="#020202" opacity="1.00"
			d=" M 563.90 343.91 C 562.81 341.87 563.13 339.53 563.69 337.39 C 569.49 347.22 577.94 355.01 585.41 363.52 C 586.94 365.13 587.84 367.18 588.46 369.29 C 583.91 367.66 580.95 363.67 577.56 360.47 C 572.62 355.31 566.93 350.52 563.90 343.91 Z" />
	</g>
	<g id="#f0b58bff">
		<path fill="#f0b58b" opacity="1.00"
			d=" M 418.94 133.98 C 434.59 136.27 450.41 129.35 461.13 118.11 C 458.57 126.59 457.43 135.64 459.21 144.40 C 440.77 143.05 423.00 148.86 405.61 154.13 C 405.11 142.67 399.13 132.42 393.73 122.61 C 401.04 128.40 409.54 132.99 418.94 133.98 Z" />
		<path fill="#f0b58b" opacity="1.00"
			d=" M 555.79 329.64 C 567.27 320.90 581.59 316.67 595.70 314.65 C 596.11 327.35 598.23 340.14 603.41 351.81 C 606.41 358.35 609.24 364.98 611.40 371.85 C 618.57 393.79 619.02 417.13 619.15 439.99 C 619.03 462.80 619.73 485.82 625.06 508.10 C 627.43 519.89 630.93 532.99 625.31 544.38 C 620.27 552.83 614.51 561.96 605.05 565.92 C 608.83 557.14 618.58 552.21 620.87 542.65 C 621.67 540.12 622.14 537.41 621.29 534.82 C 618.52 539.02 617.69 544.29 614.20 548.05 C 610.72 551.88 607.69 556.27 603.45 559.31 C 601.01 560.95 598.58 558.78 597.10 556.97 C 601.26 554.18 606.53 552.80 609.63 548.62 C 614.06 542.80 614.95 535.09 614.72 527.99 C 614.12 521.16 612.89 514.23 610.01 507.96 C 607.87 503.10 601.97 500.65 601.25 495.05 C 599.54 487.69 603.75 480.94 604.74 473.86 C 601.39 476.23 600.20 480.31 598.57 483.87 C 596.39 488.82 596.05 494.69 598.22 499.71 C 599.80 503.29 603.26 505.43 605.59 508.45 C 608.53 512.73 608.88 518.07 609.27 523.09 C 609.88 529.61 609.67 536.38 607.30 542.56 C 605.24 548.11 599.13 550.98 593.59 551.59 C 596.35 545.42 603.16 541.29 603.43 534.00 C 603.19 530.40 603.93 525.37 600.15 523.37 C 599.73 526.58 599.76 529.83 599.54 533.06 C 599.37 536.07 597.68 538.68 596.35 541.30 C 597.05 531.22 596.16 521.14 594.82 511.16 C 593.90 501.97 592.05 492.49 594.53 483.39 C 595.92 478.22 600.91 474.58 601.13 469.02 C 601.00 462.77 598.56 456.90 596.95 450.94 C 590.68 428.88 577.94 409.46 569.86 388.12 C 564.71 373.71 559.48 359.16 557.60 343.90 C 556.84 339.16 556.28 334.40 555.79 329.64 M 563.90 343.91 C 566.93 350.52 572.62 355.31 577.56 360.47 C 580.95 363.67 583.91 367.66 588.46 369.29 C 587.84 367.18 586.94 365.13 585.41 363.52 C 577.94 355.01 569.49 347.22 563.69 337.39 C 563.13 339.53 562.81 341.87 563.90 343.91 Z" />
		<path fill="#f0b58b" opacity="1.00"
			d=" M 300.22 326.89 C 306.16 328.16 311.99 329.96 317.57 332.36 C 325.09 335.62 330.89 341.60 337.53 346.24 C 334.98 351.24 332.09 356.14 330.71 361.63 C 327.35 374.16 330.15 387.42 326.82 399.96 C 324.73 407.99 321.42 415.63 318.47 423.37 C 315.02 432.46 311.15 441.38 306.94 450.14 C 302.35 461.35 299.01 473.57 300.67 485.77 C 302.28 497.31 308.65 507.45 311.12 518.77 C 312.77 526.78 312.28 535.07 310.99 543.10 C 310.50 546.90 308.39 550.21 305.72 552.89 C 302.75 544.31 304.93 534.63 300.51 526.46 C 299.22 523.40 296.25 521.77 293.40 520.45 C 294.21 515.74 294.76 510.49 291.78 506.38 C 290.65 510.63 291.19 515.23 289.24 519.28 C 287.47 523.16 285.39 526.98 284.67 531.24 C 282.58 544.48 286.64 558.49 295.36 568.65 C 298.50 572.38 302.64 575.10 305.90 578.73 C 297.07 579.23 289.42 573.46 283.82 567.22 C 277.15 560.07 274.32 550.29 273.17 540.80 C 271.94 526.57 272.48 512.27 273.11 498.03 C 273.81 483.15 274.97 468.28 277.31 453.56 C 279.12 442.80 279.46 431.88 279.37 420.99 C 279.24 409.52 281.14 398.16 283.18 386.91 C 284.92 377.40 287.56 368.04 291.49 359.20 C 291.64 367.12 292.27 375.04 293.59 382.85 C 293.94 385.26 295.03 387.46 296.32 389.51 C 297.04 384.29 295.72 379.10 295.53 373.89 C 295.15 366.58 295.31 359.26 295.41 351.95 C 295.35 346.98 297.45 342.36 298.30 337.54 C 298.93 333.98 299.49 330.42 300.22 326.89 Z" />
		<path fill="#f0b58b" opacity="1.00"
			d=" M 288.57 546.62 C 287.17 538.66 288.14 530.23 291.98 523.06 C 300.45 528.01 299.20 539.10 300.29 547.45 C 300.61 555.95 308.61 560.69 312.52 567.47 C 305.85 562.08 299.62 555.57 296.56 547.41 C 295.10 544.15 294.44 540.44 291.95 537.75 C 291.59 546.84 295.60 555.70 301.71 562.30 C 304.27 565.28 307.12 568.00 309.62 571.03 C 309.00 572.11 308.39 573.20 307.77 574.30 C 298.52 567.54 291.15 557.91 288.57 546.62 Z" />
		<path fill="#f0b58b" opacity="1.00"
			d=" M 539.07 686.79 C 560.38 682.41 581.87 678.93 603.43 676.03 C 607.24 688.62 607.35 701.93 610.58 714.64 C 612.90 724.94 617.64 734.58 624.10 742.90 C 607.84 742.63 592.12 748.70 578.32 756.91 C 578.52 745.82 579.50 733.58 573.20 723.84 C 571.99 722.32 569.17 718.83 567.75 721.81 C 569.21 725.20 571.41 728.29 572.23 731.94 C 574.38 740.76 574.82 749.88 575.23 758.92 C 572.66 760.86 570.19 762.92 567.87 765.15 C 565.12 756.29 562.41 747.32 557.68 739.27 C 548.50 723.04 541.93 705.24 539.07 686.79 Z" />
		<path fill="#f0b58b" opacity="1.00"
			d=" M 357.42 689.26 C 364.98 690.59 372.33 693.19 380.05 693.45 C 389.45 693.91 398.59 691.26 407.89 690.48 C 412.41 690.02 416.93 689.52 421.46 689.21 C 421.64 706.90 417.14 724.34 410.81 740.76 C 407.37 749.70 405.62 759.23 405.46 768.81 C 402.22 766.77 398.87 764.92 395.44 763.23 C 395.03 753.59 395.56 743.84 398.37 734.56 C 399.87 728.54 402.51 722.90 404.25 716.96 C 402.14 718.23 400.37 720.03 399.46 722.35 C 394.10 734.68 390.11 748.13 391.85 761.72 C 377.07 756.05 360.06 751.86 344.68 757.66 C 347.64 749.91 351.19 742.38 353.67 734.45 C 359.08 720.09 359.39 704.32 357.42 689.26 Z" />
	</g>
	<g id="#f11b27ff">
		<path fill="var(--shirt-color, grey)" opacity="1.00"
			d=" M 412.95 156.06 C 428.70 150.91 445.40 148.11 461.97 149.77 C 474.89 151.20 488.04 152.14 500.44 156.32 C 506.33 158.27 511.28 162.13 516.20 165.77 C 528.01 174.59 543.65 175.84 555.48 184.60 C 561.46 189.87 566.13 196.65 568.98 204.10 C 573.89 216.70 576.73 229.97 579.99 243.06 C 581.96 250.95 586.28 257.89 590.05 265.00 C 597.47 278.82 601.96 294.08 604.09 309.58 C 596.81 310.18 589.42 310.49 582.37 312.54 C 571.16 316.03 559.57 320.08 551.23 328.76 C 550.59 302.18 551.59 275.59 552.73 249.04 C 552.99 247.10 551.97 245.40 551.13 243.76 C 549.25 249.97 548.94 256.50 548.32 262.93 C 547.08 275.93 546.79 289.00 546.43 302.04 C 545.71 319.10 546.74 336.16 547.95 353.17 C 543.63 341.30 540.64 329.02 537.29 316.87 C 531.54 297.08 528.27 276.63 526.51 256.13 C 525.97 249.66 525.15 243.23 524.13 236.83 C 523.02 230.24 523.78 223.51 522.82 216.92 C 522.72 215.50 521.51 214.59 520.76 213.51 C 519.83 222.93 519.31 232.49 520.67 241.90 C 522.14 254.93 522.67 268.07 524.90 281.02 C 527.72 300.51 533.63 319.34 538.82 338.28 C 541.85 349.74 546.81 360.60 549.62 372.14 C 551.49 381.83 552.28 391.70 553.84 401.45 C 550.99 394.59 548.61 387.50 544.89 381.04 C 536.17 365.44 528.16 349.36 522.39 332.40 C 519.88 325.68 518.69 318.50 515.49 312.04 C 515.63 320.34 518.27 328.32 520.70 336.18 C 524.13 346.21 527.39 356.33 531.94 365.93 C 536.68 376.31 543.29 385.74 547.57 396.35 C 551.64 405.89 557.86 414.60 560.06 424.87 C 562.61 435.90 566.90 446.42 569.40 457.46 C 571.51 466.60 573.98 475.68 575.37 484.97 C 560.91 477.07 543.85 478.56 528.00 479.09 C 514.66 479.41 501.32 479.81 487.98 479.57 C 484.18 479.51 480.36 479.55 476.62 480.25 C 478.93 481.24 481.41 481.79 483.93 481.94 C 497.91 483.05 511.96 483.13 525.98 482.99 C 540.38 482.82 555.40 481.49 569.10 486.89 C 572.95 488.22 575.48 491.56 577.43 494.96 C 571.54 497.23 565.15 496.41 559.02 497.06 C 548.79 497.77 538.89 500.60 528.99 503.08 C 515.99 506.74 502.99 510.49 490.35 515.28 C 477.19 520.03 464.19 526.44 449.94 526.87 C 443.27 526.91 436.64 525.72 429.96 526.13 C 415.98 526.77 402.48 530.93 388.61 532.42 C 380.34 533.74 371.90 533.76 363.71 535.56 C 366.01 519.97 366.93 504.23 367.63 488.49 C 367.64 483.44 369.39 478.69 370.58 473.85 C 381.51 472.11 392.63 469.88 402.39 464.41 C 404.68 462.99 407.43 461.01 407.29 457.99 C 406.55 455.65 404.10 454.56 401.90 454.08 C 389.82 452.03 377.13 454.41 365.35 450.48 C 366.75 432.82 365.46 415.15 364.14 397.54 C 363.76 380.02 362.84 362.52 362.25 345.01 C 362.15 332.20 362.68 319.29 360.57 306.59 C 358.03 292.59 355.54 278.51 351.05 264.98 C 349.94 261.43 348.15 258.02 344.96 255.93 C 349.50 267.58 351.88 279.87 354.08 292.13 C 349.96 287.10 346.14 281.83 342.49 276.45 C 339.89 272.81 337.65 268.48 333.28 266.70 C 336.64 274.84 342.16 281.82 346.83 289.23 C 350.21 294.24 354.48 298.97 355.55 305.14 C 358.10 318.88 357.60 332.95 357.65 346.86 C 351.77 345.52 345.67 344.54 340.26 341.75 C 335.74 339.08 331.94 335.37 327.57 332.48 C 321.46 328.12 314.20 325.86 307.02 323.97 C 302.32 322.73 297.43 322.56 292.60 322.84 C 294.83 306.71 295.65 290.22 300.79 274.66 C 303.38 266.63 306.06 258.56 306.87 250.11 C 308.12 242.64 306.63 234.96 308.49 227.57 C 310.29 219.54 315.25 212.67 320.73 206.71 C 331.64 195.34 345.71 187.74 359.66 180.74 C 366.51 177.03 374.37 176.25 381.95 175.20 C 400.23 173.09 418.63 172.46 437.00 171.53 C 441.03 171.28 445.39 171.62 448.96 169.37 C 441.45 167.53 433.64 168.46 425.99 168.46 C 410.96 169.02 395.84 169.06 380.96 171.47 C 391.48 166.06 401.38 159.14 412.95 156.06 M 510.72 252.83 C 507.23 262.97 503.65 273.07 500.23 283.24 C 493.26 303.64 490.48 325.20 483.37 345.55 C 477.53 362.03 471.02 378.27 465.62 394.90 C 464.34 399.47 462.73 404.11 462.92 408.91 L 464.17 409.99 C 466.56 405.99 467.30 401.31 468.98 397.02 C 474.92 381.06 481.20 365.23 487.24 349.30 C 494.40 330.07 497.61 309.71 502.93 289.96 C 505.87 278.79 509.79 267.92 513.02 256.83 C 514.09 253.41 514.39 249.80 514.09 246.24 C 512.69 248.29 511.52 250.48 510.72 252.83 Z" />
		<path fill="var(--shirt-color, grey)" opacity="1.00"
			d=" M 365.28 453.50 C 377.57 458.32 391.17 455.18 403.77 458.46 C 394.15 465.81 381.79 467.48 370.40 470.50 C 369.95 464.50 367.41 459.03 365.28 453.50 Z" />
	</g>
	<g id="#ffffffff">
		<path fill="var(--pants-color, grey)" opacity="1.00"
			d=" M 557.51 501.29 C 563.31 500.52 569.21 500.81 574.96 499.70 C 574.05 504.08 573.71 508.56 573.60 513.03 C 575.24 532.36 582.57 550.53 589.55 568.44 C 598.62 589.61 604.34 612.13 607.49 634.91 C 608.73 647.51 609.52 660.21 609.14 672.88 C 593.57 673.01 578.21 675.78 562.84 677.92 C 543.00 680.79 523.29 687.28 503.04 685.09 C 500.26 670.57 496.93 656.10 492.34 642.03 C 488.88 629.92 486.27 617.57 484.29 605.13 C 483.23 599.76 482.82 594.09 480.02 589.26 C 476.08 591.61 474.02 595.85 472.06 599.80 C 464.96 615.39 457.06 630.75 452.62 647.37 C 449.50 659.15 446.32 671.09 446.04 683.34 C 428.63 683.74 411.14 684.27 393.99 687.59 C 385.69 689.22 377.07 689.10 368.90 686.84 C 360.31 684.52 350.95 683.05 342.40 686.34 C 344.92 665.04 349.57 644.06 352.17 622.77 C 353.34 603.86 353.94 584.86 357.05 566.13 C 358.41 557.28 359.48 548.35 362.22 539.79 C 365.75 538.91 369.36 538.44 372.99 538.26 C 384.48 537.75 395.96 536.44 407.24 534.17 C 418.68 532.02 430.35 529.88 442.03 531.24 C 456.25 532.94 470.08 528.02 483.09 522.87 C 499.39 516.28 516.12 510.77 533.15 506.40 C 541.19 504.32 549.24 502.15 557.51 501.29 Z" />
		<path fill="var(--socks-color, grey)" opacity="1.00"
			d=" M 608.18 749.39 C 614.66 747.84 621.47 746.75 628.07 748.29 C 635.71 760.56 638.41 775.05 640.92 789.07 C 644.74 811.48 644.73 834.48 641.85 857.00 C 641.30 863.35 640.00 869.62 639.86 876.00 C 639.83 884.03 639.53 892.42 643.09 899.85 C 647.72 909.76 654.58 918.50 662.15 926.35 C 657.89 926.45 653.42 925.71 649.94 923.11 C 644.27 918.88 636.55 917.84 629.84 919.87 C 624.33 921.58 619.83 925.59 616.56 930.25 C 615.55 918.37 610.60 907.17 605.17 896.68 C 588.54 865.38 579.48 830.63 574.11 795.77 C 572.96 786.77 571.35 777.84 569.09 769.06 C 580.40 759.63 593.92 752.97 608.18 749.39 Z" />
		<path fill="var(--socks-color, grey)" opacity="1.00"
			d=" M 349.01 760.20 C 360.22 757.78 371.89 759.92 382.72 763.15 C 390.65 765.61 398.22 769.16 405.26 773.55 C 404.78 795.93 401.18 818.20 395.45 839.81 C 390.50 859.93 384.39 879.74 378.35 899.55 C 376.55 906.12 374.48 912.93 375.50 919.81 C 376.46 924.20 378.93 928.05 380.60 932.19 C 374.27 925.43 365.73 919.69 356.05 920.65 C 347.90 920.77 340.94 925.85 336.02 931.98 C 341.60 913.10 338.85 893.27 337.20 874.04 C 335.70 858.74 335.78 843.35 335.27 828.01 C 335.58 815.16 335.02 802.25 336.82 789.49 C 337.85 781.01 339.75 772.65 342.33 764.51 C 342.90 761.41 346.53 761.03 349.01 760.20 Z" />
	</g>
	<g id="#4d4d4dff">
		<path fill="#4d4d4d" opacity="1.00"
			d=" M 630.74 923.81 C 637.78 921.40 644.86 924.69 651.00 927.94 C 655.25 930.31 660.19 930.53 664.93 930.18 C 671.02 938.28 676.55 947.12 678.97 957.07 C 681.24 965.23 674.58 973.52 666.90 975.58 C 654.24 979.06 640.69 981.17 627.72 978.20 C 621.95 976.96 616.07 973.44 614.40 967.43 C 612.40 959.56 612.94 951.22 614.51 943.32 C 616.03 934.60 622.52 926.96 630.74 923.81 Z" />
		<path fill="#4d4d4d" opacity="1.00"
			d=" M 352.37 925.26 C 359.32 923.31 366.75 926.39 372.10 930.82 C 376.17 934.45 380.50 938.23 382.59 943.42 C 386.38 952.70 388.06 963.09 385.97 972.99 C 385.25 976.67 382.19 979.32 378.95 980.89 C 372.43 984.06 365.22 985.59 358.03 986.25 C 347.72 987.23 337.26 987.35 327.00 985.79 C 321.74 984.94 315.83 981.70 315.12 975.90 C 314.10 970.93 316.57 966.26 319.28 962.30 C 324.29 954.95 329.06 947.43 334.17 940.15 C 338.81 933.77 344.66 927.69 352.37 925.26 Z" />
	</g>
</svg>