<?xml version="1.0" encoding="UTF-8" ?>
<!DOCTYPE svg PUBLIC "-//W3C//DTD SVG 1.1//EN" "http://www.w3.org/Graphics/SVG/1.1/DTD/svg11.dtd">
<svg width="1000pt" height="1000pt" viewBox="0 0 1000 1000" version="1.1" xmlns="http://www.w3.org/2000/svg">
	<g id="#020202ff">
		<path fill="#020202" opacity="1.00"
			d=" M 488.93 33.89 C 499.79 22.53 515.28 15.82 530.98 15.51 C 558.53 14.53 586.46 33.68 592.90 60.94 C 597.50 81.49 592.88 104.22 579.80 120.85 C 578.19 124.84 579.90 129.29 581.21 133.16 C 598.09 134.91 614.64 140.18 629.29 148.78 C 646.95 159.18 665.35 169.39 685.75 173.05 C 693.22 174.43 700.87 177.11 706.41 182.49 C 712.34 189.93 717.69 197.96 721.18 206.86 C 726.49 220.27 731.77 233.80 734.82 247.95 C 735.83 252.04 735.50 256.54 737.65 260.31 C 745.18 273.64 746.31 289.22 749.50 303.91 C 750.79 310.17 752.50 316.50 756.03 321.91 C 758.84 326.25 762.43 330.21 764.11 335.19 C 764.64 336.46 764.42 337.58 763.46 338.56 C 761.54 340.92 758.96 342.59 756.55 344.39 C 759.80 355.90 763.00 368.04 760.27 380.01 C 758.94 386.59 755.48 393.13 749.40 396.42 C 743.83 399.67 737.00 399.91 731.67 403.66 C 718.57 412.20 706.18 421.85 692.66 429.76 C 680.90 436.91 668.44 442.81 655.78 448.19 C 654.38 460.44 655.17 472.79 654.22 485.07 C 653.39 500.88 652.48 516.84 648.03 532.14 C 645.81 538.81 646.60 545.95 645.44 552.82 C 641.93 577.34 629.96 599.40 623.17 622.99 C 622.01 627.20 620.72 631.97 622.92 636.07 C 625.02 640.08 627.48 644.29 626.83 649.02 C 625.53 660.42 621.40 671.42 621.23 682.98 C 621.29 695.10 622.52 707.50 619.29 719.36 C 617.00 727.49 611.34 735.27 603.10 738.05 C 599.96 739.18 596.60 739.42 593.30 739.38 C 590.56 747.80 587.17 756.05 582.54 763.61 C 577.93 771.04 572.94 778.56 565.63 783.61 C 556.13 790.36 543.53 794.64 532.04 790.94 C 519.92 785.07 511.51 773.61 506.49 761.38 C 497.84 741.10 494.38 718.93 494.40 696.97 C 494.10 681.60 496.30 666.22 494.73 650.88 C 494.20 645.33 491.92 640.15 489.14 635.38 C 487.78 638.12 486.56 640.93 485.55 643.82 C 482.08 653.41 477.25 662.42 472.26 671.29 C 470.45 674.52 469.35 679.26 465.02 679.84 C 453.92 682.13 442.61 684.53 431.21 683.50 C 427.14 692.54 422.09 701.16 416.05 709.02 C 406.90 721.19 400.63 735.23 395.73 749.57 C 389.76 766.35 383.71 783.23 374.53 798.58 C 364.69 815.05 352.69 830.07 341.66 845.74 C 336.41 853.29 330.40 860.66 327.76 869.63 C 324.50 880.81 323.37 892.44 321.48 903.89 C 320.92 908.93 319.20 914.14 320.73 919.17 C 323.35 928.91 324.64 938.96 325.91 948.95 C 327.00 960.07 325.52 972.83 317.03 980.94 C 312.58 985.53 305.96 986.33 300.07 987.91 C 289.37 989.68 278.84 983.89 271.77 976.19 C 269.41 973.94 267.68 970.87 264.67 969.42 C 258.26 967.56 251.22 968.65 245.00 966.00 C 241.52 964.23 237.73 961.27 237.73 956.99 C 237.67 952.45 241.00 948.96 243.52 945.53 C 246.70 941.79 249.64 937.62 253.79 934.89 C 257.48 933.60 261.37 932.85 264.85 931.00 C 264.09 919.64 265.38 908.19 268.25 897.19 C 270.89 887.99 274.48 879.09 278.26 870.30 C 281.48 862.78 284.07 855.00 287.51 847.57 C 290.43 840.69 294.15 834.09 295.83 826.75 C 298.19 818.30 298.07 809.46 299.54 800.86 C 302.58 782.18 307.14 763.67 314.05 746.02 C 318.99 733.03 325.00 720.37 332.96 708.95 C 337.08 702.76 342.17 697.22 345.56 690.56 C 349.71 682.52 353.98 674.50 356.95 665.93 C 361.22 653.03 364.06 639.61 369.62 627.17 C 367.18 624.71 364.65 622.34 361.80 620.37 C 362.53 617.83 363.86 615.52 365.54 613.50 C 375.42 600.80 384.97 587.48 390.42 572.20 C 394.16 561.47 396.60 550.32 400.51 539.65 C 406.44 523.01 415.85 507.96 425.15 493.05 C 427.51 488.71 430.83 485.00 433.46 480.85 C 434.57 476.39 435.72 471.91 437.81 467.79 C 445.39 451.96 453.71 436.47 460.15 420.11 C 464.68 410.89 465.56 400.54 468.66 390.86 C 470.89 383.03 474.39 375.57 475.78 367.51 C 479.17 348.45 479.66 328.93 478.12 309.65 C 462.32 327.44 444.22 343.12 424.65 356.63 C 416.15 362.51 406.60 366.88 398.81 373.75 C 393.49 378.32 390.60 384.87 386.25 390.25 C 379.19 399.65 368.06 406.52 356.09 406.61 C 352.77 407.05 347.92 405.45 346.65 409.67 C 351.57 413.13 357.34 416.29 359.80 422.11 C 361.02 424.46 360.96 427.38 359.31 429.52 C 356.52 430.90 353.24 429.75 350.61 428.50 C 346.16 426.08 341.87 423.29 337.96 420.06 C 334.75 417.57 334.42 413.25 333.22 409.68 C 332.13 405.42 330.01 401.42 329.59 397.01 C 329.25 392.43 331.55 388.31 333.32 384.27 C 335.21 380.07 334.56 375.30 335.89 370.96 C 337.75 365.88 342.17 362.13 347.01 359.98 C 357.96 355.49 369.68 351.69 378.50 343.42 C 386.19 336.52 390.86 327.14 397.11 319.06 C 401.99 312.83 405.91 305.93 410.62 299.58 C 419.67 287.18 429.33 275.07 440.90 264.93 C 439.53 254.01 440.72 242.96 440.27 231.99 C 439.67 220.87 442.29 209.95 445.14 199.30 C 448.08 189.07 451.38 178.86 456.38 169.43 C 463.51 155.85 477.53 146.27 492.69 144.23 C 484.71 129.60 481.40 112.89 480.32 96.39 C 475.23 90.92 473.69 83.26 473.01 76.06 C 471.64 60.53 478.31 45.02 488.93 33.89 M 482.69 84.03 C 485.60 92.70 484.89 101.99 486.58 110.89 C 488.07 122.37 492.02 133.33 496.61 143.90 C 505.99 143.09 514.62 148.36 523.98 147.32 C 533.04 146.17 540.58 140.47 549.29 138.13 C 558.52 135.65 567.85 132.87 577.51 133.08 C 576.66 130.51 575.98 127.89 575.45 125.24 C 567.20 131.72 556.03 131.80 546.05 131.48 C 537.04 130.43 527.39 130.32 519.29 125.76 C 515.38 123.71 514.66 118.89 514.56 114.91 C 514.08 107.03 518.79 100.12 519.36 92.37 C 509.15 96.56 503.93 106.92 498.12 115.59 C 495.14 104.35 493.00 91.09 482.69 84.03 M 552.00 141.94 C 541.72 144.53 532.89 151.78 522.01 152.12 C 514.12 152.65 506.85 148.60 499.01 148.77 C 482.49 148.27 466.53 158.55 459.27 173.23 C 453.19 185.18 450.19 198.37 447.22 211.35 C 444.02 224.27 445.41 237.67 444.37 250.82 C 449.92 248.21 455.84 246.22 462.02 245.96 C 473.90 244.93 485.42 249.50 495.52 255.34 C 497.50 261.08 499.50 266.90 499.95 273.00 C 502.02 263.34 505.31 253.91 506.02 243.99 C 506.86 233.63 510.79 223.56 517.81 215.82 C 520.62 212.93 523.51 208.03 528.17 208.99 C 524.58 214.06 519.80 218.24 516.81 223.76 C 512.78 230.32 511.09 237.98 510.36 245.56 C 509.62 254.60 506.61 263.22 503.81 271.78 C 502.25 276.80 498.65 280.73 496.19 285.28 C 492.22 292.60 486.96 299.09 481.72 305.52 C 482.39 311.99 483.20 318.46 483.13 324.98 C 483.27 346.29 482.09 368.18 474.19 388.22 C 479.05 382.21 485.41 377.68 492.29 374.27 C 500.53 369.94 507.04 363.23 512.65 355.93 C 512.75 357.61 512.86 359.41 511.91 360.90 C 507.24 369.38 499.10 375.23 490.90 380.02 C 483.69 384.19 477.77 390.24 472.71 396.78 C 470.95 398.98 470.49 401.82 469.79 404.46 C 475.30 400.26 481.23 396.69 487.22 393.24 C 500.31 385.75 512.79 377.06 523.44 366.33 C 531.65 358.88 538.38 350.05 545.52 341.63 C 545.07 346.48 542.06 350.46 539.30 354.26 C 531.87 364.04 523.23 372.91 513.78 380.77 C 500.68 391.56 485.13 398.67 471.18 408.21 C 468.14 409.95 467.91 413.72 466.71 416.66 C 461.27 430.50 455.11 444.06 448.15 457.21 C 444.31 464.92 439.85 472.38 437.08 480.58 C 447.61 486.12 457.05 493.41 466.70 500.31 C 470.82 503.43 475.84 505.13 481.01 505.25 C 490.33 505.68 499.71 508.25 507.37 513.72 C 511.69 516.72 515.48 521.05 520.97 521.79 C 530.94 523.31 541.04 522.02 551.05 521.58 C 570.34 520.33 589.68 522.10 608.81 524.60 C 620.53 526.42 632.67 527.76 643.31 533.41 C 645.52 523.97 647.69 514.46 648.20 504.75 C 648.72 494.50 649.29 484.24 649.75 473.99 C 649.93 453.57 653.23 433.36 656.10 413.20 C 657.68 399.01 661.74 385.02 668.42 372.39 C 672.76 363.96 672.97 354.28 673.84 345.05 C 676.24 315.26 686.60 286.99 692.42 257.85 C 693.16 255.18 692.93 251.39 696.28 250.51 C 696.53 256.48 695.16 262.34 694.11 268.18 C 691.66 281.73 687.92 294.99 684.94 308.42 C 692.19 313.56 696.00 321.88 699.24 329.88 C 702.07 337.79 704.53 345.96 705.08 354.40 C 719.57 353.31 734.06 350.45 747.40 344.53 C 752.46 342.47 757.05 339.44 761.15 335.84 C 758.70 332.30 756.01 328.95 753.41 325.53 C 748.93 319.55 746.71 312.26 745.19 305.03 C 743.09 295.03 741.67 284.88 739.06 274.99 C 736.81 266.50 732.57 258.66 727.46 251.56 C 725.42 248.66 722.78 246.21 720.93 243.18 L 722.02 242.65 C 726.04 243.66 728.43 247.40 731.15 250.23 C 728.59 239.81 725.29 229.59 721.51 219.56 C 718.18 210.82 715.21 201.79 709.95 193.97 C 706.92 189.48 703.66 184.81 698.71 182.29 C 693.63 179.29 687.84 177.96 682.09 176.99 C 662.09 173.37 644.22 163.14 626.80 153.19 C 612.49 144.98 596.43 139.88 580.04 138.18 C 570.61 138.30 561.11 139.46 552.00 141.94 M 445.08 256.26 C 444.55 258.18 444.61 260.20 444.42 262.18 C 448.78 259.48 453.07 256.58 457.85 254.68 C 457.86 258.07 454.34 259.32 452.10 261.12 C 437.67 270.39 426.94 284.09 416.68 297.57 C 410.62 305.34 405.73 313.91 399.73 321.72 C 393.97 329.31 389.66 338.03 382.70 344.66 C 373.79 353.77 361.57 358.31 349.94 362.83 C 345.56 364.66 341.22 367.67 339.47 372.27 C 338.40 376.48 339.03 381.02 337.36 385.11 C 336.10 388.67 333.54 391.98 333.72 395.90 C 334.73 401.28 336.42 406.51 338.36 411.62 C 339.23 413.90 339.84 416.54 342.08 417.91 C 346.83 421.43 351.71 425.08 357.47 426.73 C 356.31 419.07 348.44 416.28 343.50 411.56 C 342.30 408.10 344.35 403.11 348.36 402.67 C 355.13 401.93 362.31 402.64 368.59 399.46 C 377.72 395.42 383.96 387.22 388.88 378.84 C 393.10 371.50 400.12 366.43 407.21 362.12 C 430.28 348.82 451.04 331.67 469.30 312.34 C 478.38 302.28 487.50 292.00 493.84 279.93 C 496.55 275.08 495.40 269.29 494.47 264.12 C 493.77 261.92 493.39 259.09 491.01 258.06 C 482.50 253.34 472.85 250.06 463.02 250.70 C 456.74 251.02 450.21 252.49 445.08 256.26 M 684.07 312.24 C 681.41 324.03 679.39 335.96 678.14 347.98 C 677.15 356.91 676.44 366.17 672.30 374.33 C 669.69 379.46 667.25 384.69 665.50 390.18 C 672.89 384.41 679.89 378.15 686.98 372.01 C 692.13 367.41 697.42 362.87 701.61 357.33 C 700.61 347.54 697.98 337.96 694.12 328.92 C 691.46 322.98 688.61 316.99 684.07 312.24 M 705.30 358.45 C 699.98 367.47 691.60 374.02 684.04 381.07 C 677.98 386.71 671.24 391.53 664.98 396.93 C 661.86 399.23 662.15 403.49 661.29 406.89 C 658.88 418.81 657.34 430.87 656.46 443.00 C 676.06 434.31 694.71 423.61 712.19 411.20 C 718.31 406.96 724.27 402.46 730.64 398.59 C 736.30 395.07 743.49 394.95 748.85 390.85 C 753.13 387.63 755.09 382.32 756.07 377.24 C 758.32 366.79 755.24 356.36 753.64 346.08 C 738.66 353.59 722.08 358.05 705.30 358.45 M 424.36 503.33 C 418.87 512.39 413.50 521.55 409.24 531.27 C 403.19 544.51 400.19 558.83 395.92 572.69 C 390.31 590.46 379.11 605.77 366.89 619.57 C 369.78 621.75 372.73 623.98 374.82 626.99 C 381.40 635.97 382.90 647.57 389.40 656.59 C 394.67 663.93 402.99 668.03 410.60 672.48 C 420.96 678.41 433.31 680.56 445.06 678.40 C 451.66 677.05 458.42 676.88 465.08 675.90 C 468.09 668.81 472.38 662.42 475.72 655.50 C 479.41 648.59 481.62 641.05 484.84 633.95 C 480.14 635.59 475.12 637.12 470.12 635.92 C 462.44 634.44 457.23 627.93 453.18 621.75 C 449.26 615.54 445.07 608.55 446.30 600.89 C 448.28 589.86 453.94 579.99 457.51 569.46 C 460.55 560.92 462.26 551.97 463.10 542.97 C 464.20 534.60 464.48 525.83 468.36 518.16 C 470.14 514.47 473.22 511.67 476.39 509.18 C 468.96 508.02 463.09 503.03 457.22 498.74 C 450.53 493.60 443.44 489.04 436.51 484.27 C 431.86 490.22 428.33 496.93 424.36 503.33 M 480.36 511.44 C 477.47 512.58 475.32 515.00 473.47 517.40 C 468.73 523.75 468.27 531.97 467.34 539.55 C 466.40 549.45 465.15 559.41 461.96 568.88 C 458.58 579.74 452.63 589.77 450.66 601.07 C 449.57 607.50 453.23 613.38 456.49 618.61 C 459.90 623.65 463.68 629.16 469.67 631.30 C 474.91 633.18 480.47 631.30 485.52 629.69 C 488.88 628.72 490.96 625.75 493.43 623.51 C 498.61 618.63 504.84 614.62 508.54 608.39 C 511.53 603.18 510.93 596.93 511.64 591.18 C 513.04 570.82 516.38 550.26 513.13 529.92 C 511.96 521.03 504.24 514.37 495.87 512.30 C 490.83 511.17 485.46 510.07 480.36 511.44 M 516.19 525.22 C 518.66 533.22 518.63 541.71 518.85 550.00 C 519.09 557.68 517.77 565.31 517.75 572.98 C 520.58 580.52 524.70 587.49 528.53 594.57 C 536.60 609.25 544.13 624.22 552.09 638.96 C 561.55 657.44 571.75 676.09 575.32 696.79 C 582.62 696.48 589.96 696.20 597.25 696.77 C 597.53 696.96 598.10 697.34 598.38 697.53 C 601.01 710.18 598.07 723.23 594.59 735.44 C 598.73 734.90 603.06 734.13 606.46 731.53 C 611.05 727.86 614.28 722.60 615.56 716.87 C 617.96 706.06 616.88 694.94 616.75 683.98 C 616.64 672.05 620.63 660.66 622.32 648.97 C 623.14 643.89 619.19 640.03 617.77 635.51 C 616.12 630.14 617.70 624.53 619.20 619.33 C 625.48 598.30 635.61 578.49 640.07 556.90 C 641.69 550.27 642.21 543.45 643.29 536.72 C 633.63 532.56 623.17 530.90 612.82 529.52 C 600.29 527.63 587.64 526.71 574.99 526.03 C 561.99 525.31 549.01 526.49 536.04 527.05 C 529.39 527.25 522.58 527.31 516.19 525.22 M 516.92 580.51 C 516.57 588.40 515.98 596.28 514.85 604.10 C 514.13 608.26 512.29 612.29 509.26 615.28 C 503.83 620.95 497.10 625.25 492.03 631.30 C 495.45 636.52 498.35 642.23 499.26 648.48 C 501.06 660.58 500.01 672.85 499.53 685.01 C 498.96 705.22 499.81 725.76 505.67 745.25 C 515.92 751.33 528.19 753.07 539.94 752.21 C 551.69 751.48 563.71 748.01 572.72 740.15 C 574.48 723.80 573.10 707.23 569.50 691.22 C 567.27 681.58 563.39 672.45 559.27 663.49 C 551.23 646.59 541.89 630.36 533.49 613.64 C 527.93 602.62 521.60 591.96 516.92 580.51 M 372.52 631.19 C 368.65 641.30 366.19 651.89 363.19 662.28 C 360.22 672.29 355.47 681.64 350.78 690.93 C 349.86 692.90 348.40 694.72 348.04 696.91 C 349.77 701.96 353.72 705.87 357.64 709.32 C 367.65 717.34 380.02 723.18 393.02 723.45 C 396.90 723.23 401.97 722.82 403.83 718.77 C 406.55 713.97 409.66 709.41 413.10 705.11 C 418.63 698.27 422.85 690.53 427.70 683.22 C 420.20 681.96 413.01 679.23 406.40 675.50 C 399.90 671.80 393.37 667.89 388.18 662.42 C 382.52 671.15 377.77 680.42 372.19 689.20 C 370.39 692.03 368.50 694.91 365.70 696.86 C 365.67 692.26 368.64 688.57 370.65 684.68 C 375.53 676.18 379.89 667.32 385.72 659.40 C 379.66 650.83 377.32 640.42 372.52 631.19 M 576.02 701.26 C 577.74 712.03 578.56 723.05 577.39 733.92 C 576.71 737.16 576.58 740.80 574.64 743.61 C 568.66 749.28 561.01 752.87 553.08 754.89 C 538.19 758.73 521.86 758.12 507.76 751.71 C 509.66 756.71 512.15 761.45 514.90 766.04 C 519.06 773.21 523.76 780.58 531.10 784.87 C 535.52 787.71 541.11 787.53 546.10 786.64 C 554.47 784.79 562.75 781.04 568.54 774.54 C 580.30 762.43 586.53 746.23 591.17 730.29 C 593.81 720.68 596.40 710.71 595.30 700.67 C 588.88 700.97 582.45 701.85 576.02 701.26 M 320.20 744.09 C 312.14 764.01 306.91 785.00 303.71 806.22 C 302.72 814.75 302.07 823.39 299.42 831.61 C 298.07 836.45 295.64 840.88 293.44 845.37 C 288.46 855.84 285.37 867.06 280.91 877.74 C 273.99 893.97 269.59 911.29 268.27 928.89 C 275.93 922.60 283.57 916.15 292.39 911.51 C 299.89 908.25 309.17 907.05 316.35 911.74 C 318.15 898.02 319.61 884.18 322.95 870.72 C 325.51 859.83 332.74 851.03 338.91 842.00 C 351.78 823.44 366.52 805.97 376.32 785.47 C 385.73 766.84 390.38 746.29 399.19 727.42 C 390.52 729.87 381.35 727.85 373.17 724.64 C 361.63 719.98 350.60 712.38 344.55 701.24 C 334.43 714.27 326.13 728.68 320.20 744.09 M 299.30 914.30 C 293.41 915.58 288.62 919.43 283.71 922.70 C 278.75 926.04 274.52 930.35 269.44 933.51 C 265.47 936.00 260.65 936.39 256.49 938.40 C 252.86 940.71 250.35 944.32 247.53 947.50 C 245.48 950.15 242.97 952.73 242.17 956.09 C 241.75 959.06 244.83 960.86 247.11 961.99 C 252.90 964.01 259.24 963.14 265.14 964.71 C 269.48 965.94 271.90 970.07 274.90 973.10 C 280.56 979.23 288.36 984.52 297.04 984.06 C 304.05 983.14 312.08 981.55 316.20 975.14 C 322.80 965.02 321.57 952.22 319.74 940.87 C 318.34 933.21 318.05 925.22 315.14 917.94 C 312.06 912.46 304.55 913.06 299.30 914.30 Z" />
		<path fill="#020202" opacity="1.00"
			d=" M 508.54 206.39 C 511.79 205.46 515.69 204.27 518.52 206.84 C 513.62 209.07 508.31 210.20 503.40 212.41 C 498.24 214.48 493.50 217.42 488.32 219.42 C 488.80 217.99 489.02 216.28 490.38 215.36 C 495.62 210.98 502.10 208.43 508.54 206.39 Z" />
		<path fill="#020202" opacity="1.00"
			d=" M 555.67 203.89 C 556.50 205.82 557.31 207.86 557.05 210.01 C 555.83 224.32 550.35 238.20 541.59 249.57 C 530.14 264.61 517.32 278.59 503.42 291.40 C 497.65 296.41 493.94 303.19 488.77 308.71 C 488.71 306.65 488.72 304.50 489.84 302.68 C 497.59 288.69 510.74 279.06 520.89 266.99 C 531.26 254.75 543.04 243.00 548.82 227.70 C 552.04 220.05 553.41 211.83 555.67 203.89 Z" />
		<path fill="#020202" opacity="1.00"
			d=" M 557.74 236.75 C 559.17 233.83 560.21 230.49 563.00 228.53 C 562.70 234.07 560.31 239.14 558.16 244.16 C 554.53 252.47 550.78 260.86 545.09 268.01 C 534.83 281.40 519.37 289.79 509.73 303.73 C 508.12 306.25 506.31 309.88 508.22 312.67 C 512.08 313.92 515.43 310.87 518.85 309.63 C 518.22 315.51 510.62 318.62 505.65 316.30 C 501.07 313.07 502.60 306.31 505.25 302.28 C 515.08 286.95 532.19 278.47 542.86 263.86 C 549.14 255.61 553.31 246.06 557.74 236.75 Z" />
		<path fill="#020202" opacity="1.00"
			d=" M 607.84 355.98 C 609.13 358.57 608.62 361.50 608.08 364.21 C 604.75 380.06 597.47 394.90 588.04 407.99 C 576.13 423.60 562.04 437.54 546.43 449.45 C 534.64 457.75 521.87 464.97 507.91 468.90 C 501.02 470.78 494.12 473.40 486.91 473.37 C 482.66 473.31 481.28 467.59 483.73 464.70 C 486.64 461.13 490.59 458.02 495.31 457.45 C 492.46 461.78 486.21 463.97 485.95 469.77 C 493.31 469.74 500.32 467.18 507.30 465.12 C 521.52 460.81 534.68 453.47 546.51 444.56 C 559.69 434.13 571.37 421.95 582.15 409.09 C 594.79 393.74 603.38 375.32 607.84 355.98 Z" />
		<path fill="#020202" opacity="1.00"
			d=" M 618.11 404.13 C 619.71 402.02 621.57 400.10 623.85 398.71 C 622.45 404.02 618.45 408.01 615.64 412.58 C 599.34 436.77 579.10 459.11 553.32 473.36 C 535.07 483.41 515.04 491.27 494.01 492.07 C 492.45 491.95 490.94 491.60 489.48 491.03 C 495.66 488.74 502.36 488.58 508.68 486.80 C 525.04 483.32 540.22 475.98 554.59 467.63 C 568.50 459.33 580.81 448.59 591.78 436.73 C 601.53 426.68 609.49 415.12 618.11 404.13 Z" />
	</g>
	<g id="#f0b58bff">
		<path fill="#f0b58b" opacity="1.00"
			d=" M 482.69 84.03 C 493.00 91.09 495.14 104.35 498.12 115.59 C 503.93 106.92 509.15 96.56 519.36 92.37 C 518.79 100.12 514.08 107.03 514.56 114.91 C 514.66 118.89 515.38 123.71 519.29 125.76 C 527.39 130.32 537.04 130.43 546.05 131.48 C 556.03 131.80 567.20 131.72 575.45 125.24 C 575.98 127.89 576.66 130.51 577.51 133.08 C 567.85 132.87 558.52 135.65 549.29 138.13 C 540.58 140.47 533.04 146.17 523.98 147.32 C 514.62 148.36 505.99 143.09 496.61 143.90 C 492.02 133.33 488.07 122.37 486.58 110.89 C 484.89 101.99 485.60 92.70 482.69 84.03 Z" />
		<path fill="#f0b58b" opacity="1.00"
			d=" M 445.08 256.26 C 450.21 252.49 456.74 251.02 463.02 250.70 C 472.85 250.06 482.50 253.34 491.01 258.06 C 493.39 259.09 493.77 261.92 494.47 264.12 C 495.40 269.29 496.55 275.08 493.84 279.93 C 487.50 292.00 478.38 302.28 469.30 312.34 C 451.04 331.67 430.28 348.82 407.21 362.12 C 400.12 366.43 393.10 371.50 388.88 378.84 C 383.96 387.22 377.72 395.42 368.59 399.46 C 362.31 402.64 355.13 401.93 348.36 402.67 C 344.35 403.11 342.30 408.10 343.50 411.56 C 348.44 416.28 356.31 419.07 357.47 426.73 C 351.71 425.08 346.83 421.43 342.08 417.91 C 339.84 416.54 339.23 413.90 338.36 411.62 C 336.42 406.51 334.73 401.28 333.72 395.90 C 333.54 391.98 336.10 388.67 337.36 385.11 C 339.03 381.02 338.40 376.48 339.47 372.27 C 341.22 367.67 345.56 364.66 349.94 362.83 C 361.57 358.31 373.79 353.77 382.70 344.66 C 389.66 338.03 393.97 329.31 399.73 321.72 C 405.73 313.91 410.62 305.34 416.68 297.57 C 426.94 284.09 437.67 270.39 452.10 261.12 C 454.34 259.32 457.86 258.07 457.85 254.68 C 453.07 256.58 448.78 259.48 444.42 262.18 C 444.61 260.20 444.55 258.18 445.08 256.26 Z" />
		<path fill="#f0b58b" opacity="1.00"
			d=" M 705.30 358.45 C 722.08 358.05 738.66 353.59 753.64 346.08 C 755.24 356.36 758.32 366.79 756.07 377.24 C 755.09 382.32 753.13 387.63 748.85 390.85 C 743.49 394.95 736.30 395.07 730.64 398.59 C 724.27 402.46 718.31 406.96 712.19 411.20 C 694.71 423.61 676.06 434.31 656.46 443.00 C 657.34 430.87 658.88 418.81 661.29 406.89 C 662.15 403.49 661.86 399.23 664.98 396.93 C 671.24 391.53 677.98 386.71 684.04 381.07 C 691.60 374.02 699.98 367.47 705.30 358.45 Z" />
		<path fill="#f0b58b" opacity="1.00"
			d=" M 372.52 631.19 C 377.32 640.42 379.66 650.83 385.72 659.40 C 379.89 667.32 375.53 676.18 370.65 684.68 C 368.64 688.57 365.67 692.26 365.70 696.86 C 368.50 694.91 370.39 692.03 372.19 689.20 C 377.77 680.42 382.52 671.15 388.18 662.42 C 393.37 667.89 399.90 671.80 406.40 675.50 C 413.01 679.23 420.20 681.96 427.70 683.22 C 422.85 690.53 418.63 698.27 413.10 705.11 C 409.66 709.41 406.55 713.97 403.83 718.77 C 401.97 722.82 396.90 723.23 393.02 723.45 C 380.02 723.18 367.65 717.34 357.64 709.32 C 353.72 705.87 349.77 701.96 348.04 696.91 C 348.40 694.72 349.86 692.90 350.78 690.93 C 355.47 681.64 360.22 672.29 363.19 662.28 C 366.19 651.89 368.65 641.30 372.52 631.19 Z" />
		<path fill="#f0b58b" opacity="1.00"
			d=" M 576.02 701.26 C 582.45 701.85 588.88 700.97 595.30 700.67 C 596.40 710.71 593.81 720.68 591.17 730.29 C 586.53 746.23 580.30 762.43 568.54 774.54 C 562.75 781.04 554.47 784.79 546.10 786.64 C 541.11 787.53 535.52 787.71 531.10 784.87 C 523.76 780.58 519.06 773.21 514.90 766.04 C 512.15 761.45 509.66 756.71 507.76 751.71 C 521.86 758.12 538.19 758.73 553.08 754.89 C 561.01 752.87 568.66 749.28 574.64 743.61 C 576.58 740.80 576.71 737.16 577.39 733.92 C 578.56 723.05 577.74 712.03 576.02 701.26 Z" />
	</g>
	<g id="#f11b27ff">
		<path fill="var(--shirt-color, grey)" opacity="1.00"
			d=" M 552.00 141.94 C 561.11 139.46 570.61 138.30 580.04 138.18 C 596.43 139.88 612.49 144.98 626.80 153.19 C 644.22 163.14 662.09 173.37 682.09 176.99 C 687.84 177.96 693.63 179.29 698.71 182.29 C 703.66 184.81 706.92 189.48 709.95 193.97 C 715.21 201.79 718.18 210.82 721.51 219.56 C 725.29 229.59 728.59 239.81 731.15 250.23 C 728.43 247.40 726.04 243.66 722.02 242.65 L 720.93 243.18 C 722.78 246.21 725.42 248.66 727.46 251.56 C 732.57 258.66 736.81 266.50 739.06 274.99 C 741.67 284.88 743.09 295.03 745.19 305.03 C 746.71 312.26 748.93 319.55 753.41 325.53 C 756.01 328.95 758.70 332.30 761.15 335.84 C 757.05 339.44 752.46 342.47 747.40 344.53 C 734.06 350.45 719.57 353.31 705.08 354.40 C 704.53 345.96 702.07 337.79 699.24 329.88 C 696.00 321.88 692.19 313.56 684.94 308.42 C 687.92 294.99 691.66 281.73 694.11 268.18 C 695.16 262.34 696.53 256.48 696.28 250.51 C 692.93 251.39 693.16 255.18 692.42 257.85 C 686.60 286.99 676.24 315.26 673.84 345.05 C 672.97 354.28 672.76 363.96 668.42 372.39 C 661.74 385.02 657.68 399.01 656.10 413.20 C 653.23 433.36 649.93 453.57 649.75 473.99 C 649.29 484.24 648.72 494.50 648.20 504.75 C 647.69 514.46 645.52 523.97 643.31 533.41 C 632.67 527.76 620.53 526.42 608.81 524.60 C 589.68 522.10 570.34 520.33 551.05 521.58 C 541.04 522.02 530.94 523.31 520.97 521.79 C 515.48 521.05 511.69 516.72 507.37 513.72 C 499.71 508.25 490.33 505.68 481.01 505.25 C 475.84 505.13 470.82 503.43 466.70 500.31 C 457.05 493.41 447.61 486.12 437.08 480.58 C 439.85 472.38 444.31 464.92 448.15 457.21 C 455.11 444.06 461.27 430.50 466.71 416.66 C 467.91 413.72 468.14 409.95 471.18 408.21 C 485.13 398.67 500.68 391.56 513.78 380.77 C 523.23 372.91 531.87 364.04 539.30 354.26 C 542.06 350.46 545.07 346.48 545.52 341.63 C 538.38 350.05 531.65 358.88 523.44 366.33 C 512.79 377.06 500.31 385.75 487.22 393.24 C 481.23 396.69 475.30 400.26 469.79 404.46 C 470.49 401.82 470.95 398.98 472.71 396.78 C 477.77 390.24 483.69 384.19 490.90 380.02 C 499.10 375.23 507.24 369.38 511.91 360.90 C 512.86 359.41 512.75 357.61 512.65 355.93 C 507.04 363.23 500.53 369.94 492.29 374.27 C 485.41 377.68 479.05 382.21 474.19 388.22 C 482.09 368.18 483.27 346.29 483.13 324.98 C 483.20 318.46 482.39 311.99 481.72 305.52 C 486.96 299.09 492.22 292.60 496.19 285.28 C 498.65 280.73 502.25 276.80 503.81 271.78 C 506.61 263.22 509.62 254.60 510.36 245.56 C 511.09 237.98 512.78 230.32 516.81 223.76 C 519.80 218.24 524.58 214.06 528.17 208.99 C 523.51 208.03 520.62 212.93 517.81 215.82 C 510.79 223.56 506.86 233.63 506.02 243.99 C 505.31 253.91 502.02 263.34 499.95 273.00 C 499.50 266.90 497.50 261.08 495.52 255.34 C 485.42 249.50 473.90 244.93 462.02 245.96 C 455.84 246.22 449.92 248.21 444.37 250.82 C 445.41 237.67 444.02 224.27 447.22 211.35 C 450.19 198.37 453.19 185.18 459.27 173.23 C 466.53 158.55 482.49 148.27 499.01 148.77 C 506.85 148.60 514.12 152.65 522.01 152.12 C 532.89 151.78 541.72 144.53 552.00 141.94 M 508.54 206.39 C 502.10 208.43 495.62 210.98 490.38 215.36 C 489.02 216.28 488.80 217.99 488.32 219.42 C 493.50 217.42 498.24 214.48 503.40 212.41 C 508.31 210.20 513.62 209.07 518.52 206.84 C 515.69 204.27 511.79 205.46 508.54 206.39 M 555.67 203.89 C 553.41 211.83 552.04 220.05 548.82 227.70 C 543.04 243.00 531.26 254.75 520.89 266.99 C 510.74 279.06 497.59 288.69 489.84 302.68 C 488.72 304.50 488.71 306.65 488.77 308.71 C 493.94 303.19 497.65 296.41 503.42 291.40 C 517.32 278.59 530.14 264.61 541.59 249.57 C 550.35 238.20 555.83 224.32 557.05 210.01 C 557.31 207.86 556.50 205.82 555.67 203.89 M 557.74 236.75 C 553.31 246.06 549.14 255.61 542.86 263.86 C 532.19 278.47 515.08 286.95 505.25 302.28 C 502.60 306.31 501.07 313.07 505.65 316.30 C 510.62 318.62 518.22 315.51 518.85 309.63 C 515.43 310.87 512.08 313.92 508.22 312.67 C 506.31 309.88 508.12 306.25 509.73 303.73 C 519.37 289.79 534.83 281.40 545.09 268.01 C 550.78 260.86 554.53 252.47 558.16 244.16 C 560.31 239.14 562.70 234.07 563.00 228.53 C 560.21 230.49 559.17 233.83 557.74 236.75 M 607.84 355.98 C 603.38 375.32 594.79 393.74 582.15 409.09 C 571.37 421.95 559.69 434.13 546.51 444.56 C 534.68 453.47 521.52 460.81 507.30 465.12 C 500.32 467.18 493.31 469.74 485.95 469.77 C 486.21 463.97 492.46 461.78 495.31 457.45 C 490.59 458.02 486.64 461.13 483.73 464.70 C 481.28 467.59 482.66 473.31 486.91 473.37 C 494.12 473.40 501.02 470.78 507.91 468.90 C 521.87 464.97 534.64 457.75 546.43 449.45 C 562.04 437.54 576.13 423.60 588.04 407.99 C 597.47 394.90 604.75 380.06 608.08 364.21 C 608.62 361.50 609.13 358.57 607.84 355.98 M 618.11 404.13 C 609.49 415.12 601.53 426.68 591.78 436.73 C 580.81 448.59 568.50 459.33 554.59 467.63 C 540.22 475.98 525.04 483.32 508.68 486.80 C 502.36 488.58 495.66 488.74 489.48 491.03 C 490.94 491.60 492.45 491.95 494.01 492.07 C 515.04 491.27 535.07 483.41 553.32 473.36 C 579.10 459.11 599.34 436.77 615.64 412.58 C 618.45 408.01 622.45 404.02 623.85 398.71 C 621.57 400.10 619.71 402.02 618.11 404.13 Z" />
	</g>
	<g id="#ffffffff">
		<path fill="var(--pants-color, grey)" opacity="1.00"
			d=" M 424.36 503.33 C 428.33 496.93 431.86 490.22 436.51 484.27 C 443.44 489.04 450.53 493.60 457.22 498.74 C 463.09 503.03 468.96 508.02 476.39 509.18 C 473.22 511.67 470.14 514.47 468.36 518.16 C 464.48 525.83 464.20 534.60 463.10 542.97 C 462.26 551.97 460.55 560.92 457.51 569.46 C 453.94 579.99 448.28 589.86 446.30 600.89 C 445.07 608.55 449.26 615.54 453.18 621.75 C 457.23 627.93 462.44 634.44 470.12 635.92 C 475.12 637.12 480.14 635.59 484.84 633.95 C 481.62 641.05 479.41 648.59 475.72 655.50 C 472.38 662.42 468.09 668.81 465.08 675.90 C 458.42 676.88 451.66 677.05 445.06 678.40 C 433.31 680.56 420.96 678.41 410.60 672.48 C 402.99 668.03 394.67 663.93 389.40 656.59 C 382.90 647.57 381.40 635.97 374.82 626.99 C 372.73 623.98 369.78 621.75 366.89 619.57 C 379.11 605.77 390.31 590.46 395.92 572.69 C 400.19 558.83 403.19 544.51 409.24 531.27 C 413.50 521.55 418.87 512.39 424.36 503.33 Z" />
		<path fill="var(--pants-color, grey)" opacity="1.00"
			d=" M 516.19 525.22 C 522.58 527.31 529.39 527.25 536.04 527.05 C 549.01 526.49 561.99 525.31 574.99 526.03 C 587.64 526.71 600.29 527.63 612.82 529.52 C 623.17 530.90 633.63 532.56 643.29 536.72 C 642.21 543.45 641.69 550.27 640.07 556.90 C 635.61 578.49 625.48 598.30 619.20 619.33 C 617.70 624.53 616.12 630.14 617.77 635.51 C 619.19 640.03 623.14 643.89 622.32 648.97 C 620.63 660.66 616.64 672.05 616.75 683.98 C 616.88 694.94 617.96 706.06 615.56 716.87 C 614.28 722.60 611.05 727.86 606.46 731.53 C 603.06 734.13 598.73 734.90 594.59 735.44 C 598.07 723.23 601.01 710.18 598.38 697.53 C 598.10 697.34 597.53 696.96 597.25 696.77 C 589.96 696.20 582.62 696.48 575.32 696.79 C 571.75 676.09 561.55 657.44 552.09 638.96 C 544.13 624.22 536.60 609.25 528.53 594.57 C 524.70 587.49 520.58 580.52 517.75 572.98 C 517.77 565.31 519.09 557.68 518.85 550.00 C 518.63 541.71 518.66 533.22 516.19 525.22 Z" />
		<path fill="var(--socks-color, grey)" opacity="1.00"
			d=" M 516.92 580.51 C 521.60 591.96 527.93 602.62 533.49 613.64 C 541.89 630.36 551.23 646.59 559.27 663.49 C 563.39 672.45 567.27 681.58 569.50 691.22 C 573.10 707.23 574.48 723.80 572.72 740.15 C 563.71 748.01 551.69 751.48 539.94 752.21 C 528.19 753.07 515.92 751.33 505.67 745.25 C 499.81 725.76 498.96 705.22 499.53 685.01 C 500.01 672.85 501.06 660.58 499.26 648.48 C 498.35 642.23 495.45 636.52 492.03 631.30 C 497.10 625.25 503.83 620.95 509.26 615.28 C 512.29 612.29 514.13 608.26 514.85 604.10 C 515.98 596.28 516.57 588.40 516.92 580.51 Z" />
		<path fill="var(--socks-color, grey)" opacity="1.00"
			d=" M 320.20 744.09 C 326.13 728.68 334.43 714.27 344.55 701.24 C 350.60 712.38 361.63 719.98 373.17 724.64 C 381.35 727.85 390.52 729.87 399.19 727.42 C 390.38 746.29 385.73 766.84 376.32 785.47 C 366.52 805.97 351.78 823.44 338.91 842.00 C 332.74 851.03 325.51 859.83 322.95 870.72 C 319.61 884.18 318.15 898.02 316.35 911.74 C 309.17 907.05 299.89 908.25 292.39 911.51 C 283.57 916.15 275.93 922.60 268.27 928.89 C 269.59 911.29 273.99 893.97 280.91 877.74 C 285.37 867.06 288.46 855.84 293.44 845.37 C 295.64 840.88 298.07 836.45 299.42 831.61 C 302.07 823.39 302.72 814.75 303.71 806.22 C 306.91 785.00 312.14 764.01 320.20 744.09 Z" />
	</g>
	<g id="#4d4d4dff">
		<path fill="#4d4d4d" opacity="1.00"
			d=" M 480.36 511.44 C 485.46 510.07 490.83 511.17 495.87 512.30 C 504.24 514.37 511.96 521.03 513.13 529.92 C 516.38 550.26 513.04 570.82 511.64 591.18 C 510.93 596.93 511.53 603.18 508.54 608.39 C 504.84 614.62 498.61 618.63 493.43 623.51 C 490.96 625.75 488.88 628.72 485.52 629.69 C 480.47 631.30 474.91 633.18 469.67 631.30 C 463.68 629.16 459.90 623.65 456.49 618.61 C 453.23 613.38 449.57 607.50 450.66 601.07 C 452.63 589.77 458.58 579.74 461.96 568.88 C 465.15 559.41 466.40 549.45 467.34 539.55 C 468.27 531.97 468.73 523.75 473.47 517.40 C 475.32 515.00 477.47 512.58 480.36 511.44 Z" />
		<path fill="#4d4d4d" opacity="1.00"
			d=" M 299.30 914.30 C 304.55 913.06 312.06 912.46 315.14 917.94 C 318.05 925.22 318.34 933.21 319.74 940.87 C 321.57 952.22 322.80 965.02 316.20 975.14 C 312.08 981.55 304.05 983.14 297.04 984.06 C 288.36 984.52 280.56 979.23 274.90 973.10 C 271.90 970.07 269.48 965.94 265.14 964.71 C 259.24 963.14 252.90 964.01 247.11 961.99 C 244.83 960.86 241.75 959.06 242.17 956.09 C 242.97 952.73 245.48 950.15 247.53 947.50 C 250.35 944.32 252.86 940.71 256.49 938.40 C 260.65 936.39 265.47 936.00 269.44 933.51 C 274.52 930.35 278.75 926.04 283.71 922.70 C 288.62 919.43 293.41 915.58 299.30 914.30 Z" />
	</g>
</svg>