<?xml version="1.0" encoding="UTF-8" ?>
<!DOCTYPE svg PUBLIC "-//W3C//DTD SVG 1.1//EN" "http://www.w3.org/Graphics/SVG/1.1/DTD/svg11.dtd">
<svg width="1000pt" height="1000pt" viewBox="0 0 1000 1000" version="1.1" xmlns="http://www.w3.org/2000/svg">
	<g id="#020202ff">
		<path fill="#020202" opacity="1.00"
			d=" M 393.83 40.77 C 406.87 29.90 424.11 23.81 441.14 25.49 C 458.08 27.32 474.76 34.97 485.87 48.11 C 494.29 57.97 498.17 71.16 497.84 84.01 C 497.42 103.06 490.06 121.57 478.69 136.72 C 476.50 139.34 477.10 142.97 477.24 146.10 C 478.10 153.50 480.09 160.91 484.01 167.30 C 488.66 167.18 493.31 167.36 497.96 167.18 C 508.07 166.56 517.72 170.36 526.91 174.11 C 542.84 181.61 558.56 189.78 572.87 200.12 C 583.75 208.01 595.25 215.83 602.77 227.24 C 608.03 235.06 612.40 243.52 615.41 252.47 C 618.01 259.42 619.17 266.78 620.63 274.03 C 622.99 287.21 625.43 300.39 628.40 313.45 C 629.52 318.61 631.28 323.62 633.64 328.35 C 635.34 332.08 637.55 335.75 637.95 339.91 C 636.32 342.00 634.06 343.46 632.01 345.11 C 636.28 351.71 639.93 358.69 643.19 365.83 C 645.11 369.94 645.65 374.60 644.78 379.05 C 642.19 393.39 636.81 407.00 632.99 421.02 C 629.66 433.04 626.70 445.18 624.63 457.48 C 623.66 464.61 622.34 471.79 622.97 479.02 C 623.45 486.54 627.65 493.34 627.47 500.97 C 627.36 510.54 625.77 520.07 623.25 529.30 C 621.76 534.10 620.28 539.14 616.97 543.05 C 615.86 544.42 614.06 545.45 612.27 544.81 C 609.93 543.71 609.89 540.72 609.09 538.61 C 606.92 543.04 604.81 547.79 600.93 551.00 C 599.41 552.36 596.85 551.97 595.78 550.25 C 593.92 547.55 594.58 544.09 594.63 541.02 C 593.09 541.99 591.50 542.89 589.90 543.75 C 591.29 556.11 592.35 568.53 592.24 580.98 C 592.40 592.04 590.92 603.01 589.90 614.00 C 588.47 627.60 587.70 641.29 587.98 654.98 C 588.06 661.21 588.99 667.53 587.45 673.67 C 590.00 679.49 592.05 685.61 592.70 691.97 C 593.21 696.45 592.91 701.10 594.39 705.44 C 596.34 711.23 599.36 716.57 601.86 722.13 C 608.80 737.31 613.88 753.32 617.09 769.70 C 620.35 785.71 623.19 801.80 625.58 817.96 C 627.30 829.96 627.75 842.11 629.43 854.13 C 630.74 864.04 631.57 874.03 631.33 884.03 C 631.23 887.64 631.28 891.46 633.17 894.68 C 636.29 900.52 638.39 906.86 639.73 913.34 C 642.59 926.69 645.34 940.34 644.18 954.06 C 643.87 960.81 638.20 965.71 632.62 968.62 C 624.44 972.62 615.01 974.27 605.97 973.20 C 599.94 972.62 595.17 968.67 590.01 965.93 C 578.22 958.78 564.15 957.62 551.18 953.76 C 546.26 952.06 540.56 949.30 539.18 943.80 C 538.00 938.97 541.32 934.67 544.57 931.52 C 552.01 924.50 560.23 918.35 568.75 912.69 C 573.26 909.69 577.42 906.20 581.41 902.55 C 576.36 892.43 575.39 881.02 573.14 870.10 C 570.63 854.00 566.92 838.10 562.44 822.44 C 557.48 804.44 549.98 787.31 543.02 770.03 C 538.57 758.27 537.43 745.60 536.31 733.17 C 535.91 728.36 532.83 724.48 530.61 720.39 C 525.14 710.98 522.09 700.45 519.23 690.04 C 517.97 685.46 517.13 680.77 517.02 676.03 C 514.84 675.30 512.66 674.60 510.47 673.92 C 509.46 678.99 509.30 684.39 507.01 689.10 C 503.23 692.24 498.16 693.14 493.63 694.76 C 494.59 704.86 492.52 714.89 492.45 724.98 C 492.32 734.31 491.74 743.68 492.53 753.00 C 493.01 760.60 498.43 766.62 499.79 774.01 C 503.00 789.49 501.10 805.43 499.76 821.02 C 497.67 840.35 496.49 859.77 494.13 879.08 C 491.85 895.76 489.31 912.40 486.93 929.07 C 486.31 933.64 485.13 938.24 485.70 942.89 C 486.52 950.98 489.16 958.82 489.18 967.01 C 489.25 974.29 489.01 982.01 485.51 988.58 C 483.79 992.14 479.70 993.44 476.07 994.01 C 461.66 995.81 447.25 993.11 432.93 991.71 C 423.97 990.70 414.94 992.15 405.99 990.96 C 393.20 989.75 380.56 986.58 368.94 981.05 C 360.26 976.80 351.33 972.48 344.49 965.49 C 342.75 963.51 340.64 961.08 341.41 958.24 C 342.62 952.70 347.45 948.91 352.08 946.15 C 359.26 941.86 367.87 942.26 375.89 941.30 C 389.09 940.37 402.68 940.03 415.19 935.24 C 420.79 933.19 425.32 929.20 429.50 925.07 C 427.22 913.88 427.19 902.38 427.05 891.00 C 427.20 870.66 426.35 850.34 426.07 830.01 C 425.34 816.09 425.98 802.13 425.27 788.22 C 425.00 780.83 422.10 773.98 419.99 767.01 C 417.99 760.37 415.13 754.00 413.57 747.23 C 409.81 729.50 407.71 711.49 405.83 693.48 C 401.20 691.71 393.64 692.68 392.39 686.50 C 390.29 677.50 390.01 668.19 390.10 658.99 C 390.37 635.33 389.71 611.66 390.31 588.00 C 391.20 563.68 393.67 539.45 396.74 515.31 C 392.51 512.51 387.99 508.57 388.33 502.97 C 388.15 495.76 395.82 492.21 397.93 485.91 C 398.29 482.40 397.39 478.90 397.14 475.41 C 394.94 473.72 392.02 472.13 391.68 469.06 C 391.00 464.29 393.39 459.84 396.12 456.12 C 395.43 452.35 395.58 448.48 396.58 444.78 C 397.73 440.69 397.09 436.44 397.29 432.27 C 387.12 444.38 375.66 455.32 364.20 466.19 C 352.83 476.99 340.27 486.45 327.60 495.66 C 325.68 496.90 324.60 498.98 324.27 501.21 C 322.59 510.22 320.67 519.36 316.54 527.62 C 315.43 529.63 313.88 532.57 311.11 531.94 C 308.76 531.09 308.29 528.25 308.27 526.07 C 308.26 521.23 309.51 516.39 308.48 511.57 C 307.38 512.98 305.55 514.14 305.36 516.09 C 304.80 522.06 307.64 527.98 306.41 533.93 C 304.38 538.48 300.03 541.64 295.63 543.72 C 291.52 545.78 287.22 543.19 283.00 543.03 C 277.24 543.08 273.16 537.85 271.47 532.86 C 269.53 525.04 268.51 516.99 268.20 508.94 C 267.82 502.10 272.60 496.53 276.41 491.35 C 279.61 486.77 285.67 487.73 290.39 486.29 C 295.42 485.08 298.89 480.89 301.93 477.00 C 312.69 462.63 321.17 446.75 330.27 431.33 C 335.19 422.80 339.75 414.08 344.40 405.40 C 348.24 397.87 351.78 390.18 356.11 382.91 C 352.48 382.43 348.43 382.79 345.23 380.73 C 342.82 376.61 343.19 371.59 343.09 366.99 C 343.48 347.93 347.48 329.10 347.14 310.01 C 346.94 292.27 347.08 274.06 353.00 257.12 C 355.66 249.34 360.41 242.57 364.74 235.66 C 367.08 232.10 370.27 229.22 373.48 226.48 C 388.83 213.89 400.65 197.32 417.62 186.66 C 416.60 184.51 415.60 182.35 414.63 180.19 C 410.84 181.71 406.40 183.82 402.46 181.53 C 396.04 177.85 392.82 170.72 389.81 164.29 C 386.22 155.78 383.57 146.88 381.56 137.87 C 378.79 126.07 381.53 113.89 380.23 101.97 C 377.14 95.36 374.36 88.39 374.42 80.95 C 373.93 65.41 381.91 50.44 393.83 40.77 M 384.62 129.93 C 386.12 141.81 389.87 153.41 394.71 164.35 C 397.35 169.42 400.14 175.65 406.02 177.51 C 411.65 176.83 416.43 173.27 420.37 169.41 C 425.15 164.91 430.46 161.03 435.70 157.09 C 430.59 164.48 425.07 171.82 417.87 177.30 C 418.94 179.70 419.92 182.13 420.86 184.58 C 429.08 179.39 437.57 174.17 447.16 171.96 C 457.45 169.45 468.03 168.38 478.58 167.65 C 474.03 160.04 472.06 150.85 473.58 142.07 C 461.35 148.42 446.89 146.08 434.16 142.62 C 427.43 140.59 420.40 138.56 414.85 134.08 C 412.64 132.22 413.37 128.96 414.81 126.86 C 418.74 120.54 423.14 113.77 422.63 105.99 C 422.53 103.78 421.95 100.24 419.02 100.54 C 415.01 100.38 412.03 103.74 409.68 106.56 C 406.39 111.12 402.91 115.57 398.63 119.25 C 397.40 108.95 393.58 98.59 385.82 91.41 C 384.40 104.20 384.78 117.08 384.62 129.93 M 450.73 175.94 C 442.95 177.43 435.71 180.86 429.02 185.00 C 422.52 189.05 416.10 193.28 410.20 198.18 C 402.97 204.05 396.71 210.98 389.91 217.32 C 401.03 212.13 412.87 208.61 423.74 202.85 C 428.26 200.49 432.33 197.31 437.01 195.24 C 433.87 200.72 427.94 203.53 422.96 207.02 C 410.06 215.84 394.41 219.15 380.97 226.94 C 374.89 231.01 368.86 235.74 365.28 242.26 C 359.70 251.77 355.08 262.06 353.71 273.09 C 350.54 290.53 352.75 308.31 351.46 325.88 C 350.34 343.73 345.82 361.49 347.70 379.44 C 357.46 379.10 367.22 379.18 376.98 378.95 C 389.39 378.74 401.83 380.24 413.84 383.40 C 414.78 376.94 415.91 370.49 416.21 363.96 C 416.70 354.33 417.76 344.69 417.32 335.04 C 417.05 327.09 414.20 319.55 413.24 311.69 C 411.12 298.99 411.35 285.85 414.58 273.36 C 415.03 271.58 416.36 270.24 417.70 269.07 C 417.60 274.09 416.43 279.01 415.98 284.00 C 414.43 297.79 416.94 311.64 420.33 324.96 C 421.48 329.39 421.38 334.02 422.38 338.47 C 425.63 353.45 434.11 367.40 446.29 376.78 C 451.99 381.32 458.11 385.81 465.36 387.43 C 468.90 388.28 472.53 387.46 476.11 387.42 C 473.39 389.15 470.31 390.62 467.00 390.14 C 456.53 389.18 447.50 382.94 439.77 376.23 C 431.22 368.77 425.39 358.61 421.51 348.06 C 420.76 361.30 420.60 374.95 416.23 387.60 C 412.53 388.33 408.89 386.72 405.30 386.09 C 405.74 398.88 406.79 412.11 402.78 424.46 C 402.01 429.27 401.38 434.14 401.48 439.02 C 401.74 444.58 398.36 449.98 400.47 455.50 C 406.27 454.63 412.07 453.78 417.92 453.42 C 438.25 452.01 458.64 451.49 479.01 452.04 C 489.23 452.56 499.68 452.83 509.46 456.18 C 505.63 456.36 501.80 456.34 497.98 455.98 C 486.37 454.96 474.70 454.75 463.06 454.99 C 442.62 455.25 422.17 456.52 401.91 459.22 C 397.25 459.31 395.57 465.02 396.09 468.84 C 398.54 472.24 403.36 471.30 406.99 471.23 C 414.32 471.14 421.65 469.99 428.98 470.64 C 420.40 474.44 410.75 473.58 401.63 474.68 C 402.00 478.93 403.49 483.23 402.64 487.50 C 400.91 492.38 396.73 495.73 393.73 499.78 C 392.17 501.85 391.88 505.17 393.83 507.10 C 397.87 511.44 403.22 514.35 408.75 516.33 C 417.72 519.61 426.73 522.97 436.12 524.85 C 448.23 526.89 460.61 527.38 472.85 526.38 C 484.34 525.53 495.41 521.77 506.96 521.40 C 525.04 520.88 543.05 523.07 561.07 524.23 C 567.34 524.54 573.69 524.59 579.89 523.46 C 581.79 523.12 583.89 522.08 584.26 519.98 C 585.58 514.44 585.52 508.69 585.82 503.04 C 585.75 495.90 586.27 488.43 583.35 481.72 C 578.84 483.88 573.99 485.37 568.96 485.48 C 557.96 485.92 546.96 485.25 535.97 484.83 C 529.58 484.42 522.91 484.68 516.95 482.00 C 527.27 480.81 537.66 482.09 548.02 481.96 C 558.94 481.94 570.31 482.98 580.76 479.15 C 580.95 466.74 583.28 454.44 582.73 442.00 C 582.05 428.86 581.86 415.47 577.82 402.82 C 575.24 406.89 572.29 411.84 567.01 412.43 C 562.04 412.89 558.58 408.26 556.84 404.18 C 553.09 394.95 552.17 384.90 551.29 375.07 C 549.59 355.35 551.63 335.58 554.06 316.01 C 554.79 311.42 554.93 306.43 557.90 302.60 C 558.17 305.04 558.40 307.51 558.16 309.97 C 555.51 337.70 552.58 365.94 557.76 393.56 C 558.96 398.63 559.86 404.48 564.11 408.00 C 566.98 410.28 570.42 407.48 572.30 405.24 C 575.01 402.62 575.36 398.64 574.95 395.10 C 573.91 386.79 573.94 378.41 573.45 370.06 C 572.60 353.60 574.35 337.14 577.36 320.97 C 578.76 314.37 578.01 307.59 578.61 300.92 C 579.47 289.27 580.49 277.63 581.21 265.97 C 581.73 260.35 581.57 254.43 584.21 249.28 C 585.22 252.43 585.34 255.74 585.11 259.02 C 584.37 271.58 584.32 284.18 583.02 296.70 C 585.57 289.72 587.55 282.12 592.95 276.70 C 592.34 281.07 590.45 285.09 589.19 289.28 C 586.80 296.35 585.30 303.67 583.96 311.00 C 580.35 328.10 577.89 345.50 577.86 363.01 C 583.08 362.11 588.32 361.25 593.53 360.27 C 600.85 358.97 607.51 355.46 614.00 352.00 C 621.22 348.14 627.49 342.80 634.46 338.53 C 630.77 331.89 627.08 325.13 625.24 317.71 C 622.58 307.18 620.72 296.47 618.61 285.82 C 616.18 273.31 615.20 260.21 609.43 248.64 C 605.73 241.45 602.11 234.18 597.45 227.55 C 592.46 220.27 585.19 215.05 578.26 209.76 C 566.67 201.40 554.92 193.10 542.00 186.88 C 528.38 180.12 514.36 172.66 498.90 171.66 C 482.76 171.56 466.57 172.78 450.73 175.94 M 587.99 365.95 C 592.41 372.42 596.69 379.07 599.58 386.39 C 601.84 392.31 601.33 398.79 601.55 405.01 C 601.92 414.00 601.22 422.99 600.90 431.98 C 600.74 442.68 599.88 453.36 598.96 464.03 C 598.57 467.60 598.28 471.32 596.60 474.58 C 594.40 478.51 591.22 481.85 589.38 485.98 C 590.19 496.32 590.41 506.75 588.99 517.05 C 590.10 515.34 591.21 513.61 592.68 512.18 C 592.85 516.90 591.08 521.37 590.41 525.99 C 589.83 530.42 588.06 535.13 589.99 539.48 C 597.73 533.15 596.53 521.57 603.25 514.59 C 603.65 525.85 599.10 536.48 598.77 547.65 C 605.73 539.48 609.85 529.33 613.21 519.25 C 613.63 517.82 615.03 517.14 616.10 516.26 C 615.95 524.53 613.35 532.56 613.63 540.84 C 617.59 535.34 619.21 528.64 620.69 522.14 C 622.15 515.18 623.24 508.09 623.26 500.97 C 623.26 494.05 619.52 487.88 618.89 481.06 C 617.74 472.63 619.35 464.19 620.41 455.85 C 623.80 435.50 629.87 415.74 635.80 396.02 C 637.49 389.35 639.71 382.77 640.56 375.91 C 641.21 371.55 639.30 367.40 637.49 363.57 C 634.79 358.12 632.08 352.68 629.13 347.36 C 616.98 356.30 603.29 364.40 587.99 365.95 M 577.91 366.69 C 578.36 374.54 578.41 382.40 578.87 390.24 C 579.09 397.10 582.91 403.08 584.11 409.74 C 586.24 421.02 586.53 432.56 586.88 444.00 C 587.21 455.47 585.10 466.80 585.02 478.25 C 585.86 479.07 586.69 479.89 587.54 480.73 C 589.87 476.65 593.41 472.99 594.00 468.14 C 596.18 450.20 596.13 432.10 596.75 414.07 C 596.70 408.03 596.41 402.00 596.34 395.97 C 596.27 385.02 589.05 376.11 584.87 366.48 C 582.55 366.58 580.23 366.65 577.91 366.69 M 335.32 430.29 C 325.78 446.63 317.13 463.58 305.72 478.73 C 302.98 482.27 300.04 485.81 296.23 488.24 C 292.22 490.64 287.49 491.28 282.97 492.10 C 280.68 492.38 279.54 494.65 278.27 496.29 C 276.08 499.66 273.36 502.91 272.54 506.94 C 272.21 512.82 273.05 518.70 273.71 524.54 C 274.15 529.14 275.82 533.70 278.81 537.27 C 280.31 539.25 283.03 538.77 285.19 539.10 C 288.73 539.29 292.52 541.52 295.79 539.11 C 298.95 537.08 303.61 534.41 302.68 529.97 C 302.12 524.77 300.50 519.64 301.30 514.36 C 295.49 516.11 288.56 517.78 282.99 514.51 C 288.12 513.45 293.47 513.83 298.51 512.27 C 301.82 511.43 304.69 509.41 307.99 508.56 C 310.99 508.27 312.99 511.24 313.12 513.94 C 313.38 518.18 312.38 522.39 312.33 526.64 C 315.66 520.23 317.29 513.12 318.90 506.14 C 319.82 502.45 319.82 498.32 322.14 495.16 C 324.66 492.28 328.01 490.32 330.99 487.97 C 341.29 480.00 351.60 472.00 361.02 462.98 C 373.26 451.33 385.39 439.49 396.14 426.44 C 387.95 427.80 379.73 425.29 372.59 421.40 C 370.25 420.21 368.65 418.08 367.44 415.82 C 371.28 416.96 374.66 419.20 378.44 420.54 C 384.90 423.03 392.24 424.13 398.85 421.52 C 400.05 418.19 400.84 414.72 401.09 411.19 C 401.74 402.66 402.02 394.09 401.91 385.53 C 388.20 382.84 374.20 383.38 360.32 382.86 C 351.25 398.27 344.34 414.84 335.32 430.29 M 396.27 557.01 C 394.16 578.93 393.84 600.97 394.10 622.97 C 394.26 638.24 393.92 653.52 394.16 668.79 C 394.70 674.83 394.93 681.10 397.03 686.85 C 401.10 688.25 405.58 688.44 409.42 690.53 C 416.47 694.35 422.61 699.58 429.33 703.91 C 430.69 704.81 432.41 704.25 433.92 704.22 C 456.62 701.57 478.65 695.13 500.35 688.14 C 501.85 687.34 504.63 687.22 504.60 685.02 C 506.18 671.71 507.00 658.33 508.03 644.97 C 509.56 626.67 511.04 608.34 510.72 589.96 C 510.92 585.77 509.80 581.34 511.76 577.42 C 513.82 580.12 514.32 583.51 514.54 586.81 C 516.41 614.49 514.41 642.25 510.92 669.72 C 518.06 670.97 524.43 674.50 531.07 677.18 C 538.31 679.13 546.16 679.68 553.45 677.63 C 563.54 674.84 573.47 671.00 584.00 670.24 C 583.53 656.83 582.63 643.40 583.56 629.99 C 584.31 612.30 587.52 594.75 587.12 577.00 C 587.00 560.41 584.63 543.94 584.35 527.37 C 575.88 530.17 566.78 529.60 558.00 529.25 C 542.34 528.24 526.71 526.60 511.01 526.28 C 502.67 526.10 494.40 527.49 486.24 529.12 C 472.96 531.65 459.36 531.80 445.91 530.78 C 429.89 529.82 414.73 523.87 400.22 517.42 C 398.97 530.62 397.49 543.80 396.27 557.01 M 550.04 683.46 C 552.80 688.62 554.55 694.23 556.38 699.78 C 557.67 703.96 559.32 708.34 558.11 712.76 C 556.70 711.15 555.42 709.40 554.74 707.36 C 551.75 699.38 548.84 691.32 544.47 683.97 C 536.73 683.77 529.03 682.20 522.22 678.41 C 524.38 689.29 527.48 700.04 531.69 710.31 C 534.50 717.49 539.86 723.48 541.66 731.08 C 546.41 727.20 551.99 724.42 557.91 722.82 C 570.57 719.23 584.57 718.83 596.91 723.84 C 593.09 715.28 587.66 706.76 588.10 697.02 C 588.28 689.27 586.72 681.58 584.01 674.34 C 572.31 675.89 561.52 681.00 550.04 683.46 M 440.09 707.88 C 435.75 708.13 430.99 709.41 426.99 707.08 C 421.04 703.83 415.89 699.36 410.12 695.83 C 411.10 705.57 412.09 715.33 413.87 724.97 C 415.78 734.95 416.60 745.23 420.24 754.80 C 422.38 760.49 424.22 766.28 426.01 772.10 C 436.58 778.64 449.85 777.72 461.55 775.35 C 471.55 772.92 482.66 769.28 488.25 759.92 C 485.71 749.45 486.82 738.62 486.88 727.98 C 487.04 717.20 489.03 706.58 490.00 695.87 C 473.65 700.93 457.10 705.73 440.09 707.88 M 542.06 736.06 C 543.36 748.29 544.69 760.81 549.66 772.19 C 553.36 781.02 556.73 789.99 560.23 798.90 C 566.20 814.07 570.39 829.86 574.21 845.69 C 576.85 856.41 578.25 867.38 580.32 878.22 C 581.80 886.10 582.65 894.34 586.68 901.44 C 589.39 904.77 594.08 904.96 598.02 905.35 C 608.77 906.55 619.13 901.87 627.81 895.95 C 625.61 889.52 626.45 882.66 626.16 876.01 C 625.96 865.27 623.99 854.69 622.94 844.03 C 621.24 819.42 616.48 795.17 611.64 771.03 C 609.03 758.19 605.65 745.44 600.62 733.33 C 597.08 729.05 591.23 727.70 586.03 726.60 C 570.96 724.42 554.63 727.13 542.06 736.06 M 465.44 779.64 C 453.20 782.54 439.77 783.35 427.98 778.26 C 429.58 786.07 429.75 794.07 429.76 802.02 C 429.77 819.37 430.62 836.70 430.93 854.05 C 431.79 875.06 430.64 896.15 432.53 917.12 C 432.94 920.54 433.00 924.68 436.30 926.72 C 444.31 932.62 446.85 943.31 455.20 948.83 C 459.97 952.59 466.80 953.08 472.19 950.38 C 475.67 948.77 480.01 946.58 480.04 942.15 C 483.72 913.79 488.42 885.56 491.07 857.07 C 492.34 839.03 494.77 821.08 495.81 803.02 C 496.45 789.95 496.86 776.04 490.41 764.18 C 484.94 772.83 474.94 777.08 465.44 779.64 M 602.01 910.60 C 595.77 911.11 589.81 908.85 584.24 906.33 C 580.56 909.97 576.71 913.47 572.41 916.39 C 563.51 922.37 554.83 928.73 546.71 935.76 C 544.72 937.82 541.26 940.52 543.28 943.68 C 545.64 947.65 550.37 949.23 554.57 950.49 C 567.38 953.90 581.18 955.17 592.59 962.48 C 598.39 966.20 604.84 969.73 611.99 969.06 C 621.10 968.61 630.99 966.33 637.44 959.42 C 639.68 957.23 639.74 953.93 639.92 951.03 C 640.39 938.82 637.89 926.77 635.28 914.92 C 634.21 909.86 632.47 904.97 630.52 900.19 C 622.20 906.17 612.38 910.40 602.01 910.60 M 416.03 940.06 C 403.20 944.61 389.48 945.38 376.03 946.51 C 368.22 947.43 359.73 947.32 352.97 951.93 C 349.44 954.05 347.11 957.53 345.14 961.04 C 351.25 967.15 358.59 971.85 366.34 975.61 C 383.08 984.37 402.21 988.35 421.05 987.47 C 439.41 987.00 457.62 991.93 475.99 989.85 C 478.89 989.53 482.00 987.89 482.75 984.86 C 486.02 973.20 483.78 961.01 482.32 949.26 C 478.84 952.52 474.92 955.83 469.97 956.32 C 461.01 957.94 451.58 953.94 446.20 946.69 C 441.52 940.44 437.68 933.49 431.77 928.24 C 427.57 933.37 422.39 937.87 416.03 940.06 Z" />
		<path fill="#020202" opacity="1.00"
			d=" M 475.17 478.88 C 481.36 477.63 487.72 478.28 494.00 478.11 C 498.03 478.28 503.00 477.38 505.81 481.10 C 500.17 481.46 494.54 481.00 488.91 480.86 C 484.28 480.68 479.45 480.97 475.17 478.88 Z" />
		<path fill="#020202" opacity="1.00"
			d=" M 597.41 493.47 C 602.25 490.60 607.56 495.96 608.07 500.68 C 604.82 501.71 603.21 497.55 600.31 496.85 C 597.41 498.64 595.40 501.47 592.75 503.55 C 590.64 503.88 591.26 501.76 591.57 500.49 C 592.58 497.55 594.77 495.06 597.41 493.47 Z" />
	</g>
	<g id="#f0b58bff">
		<path fill="#f0b58b" opacity="1.00"
			d=" M 384.62 129.93 C 384.78 117.08 384.40 104.20 385.82 91.41 C 393.58 98.59 397.40 108.95 398.63 119.25 C 402.91 115.57 406.39 111.12 409.68 106.56 C 412.03 103.74 415.01 100.38 419.02 100.54 C 421.95 100.24 422.53 103.78 422.63 105.99 C 423.14 113.77 418.74 120.54 414.81 126.86 C 413.37 128.96 412.64 132.22 414.85 134.08 C 420.40 138.56 427.43 140.59 434.16 142.62 C 446.89 146.08 461.35 148.42 473.58 142.07 C 472.06 150.85 474.03 160.04 478.58 167.65 C 468.03 168.38 457.45 169.45 447.16 171.96 C 437.57 174.17 429.08 179.39 420.86 184.58 C 419.92 182.13 418.94 179.70 417.87 177.30 C 425.07 171.82 430.59 164.48 435.70 157.09 C 430.46 161.03 425.15 164.91 420.37 169.41 C 416.43 173.27 411.65 176.83 406.02 177.51 C 400.14 175.65 397.35 169.42 394.71 164.35 C 389.87 153.41 386.12 141.81 384.62 129.93 Z" />
		<path fill="#f0b58b" opacity="1.00"
			d=" M 587.99 365.95 C 603.29 364.40 616.98 356.30 629.13 347.36 C 632.08 352.68 634.79 358.12 637.49 363.57 C 639.30 367.40 641.21 371.55 640.56 375.91 C 639.71 382.77 637.49 389.35 635.80 396.02 C 629.87 415.74 623.80 435.50 620.41 455.85 C 619.35 464.19 617.74 472.63 618.89 481.06 C 619.52 487.88 623.26 494.05 623.26 500.97 C 623.24 508.09 622.15 515.18 620.69 522.14 C 619.21 528.64 617.59 535.34 613.63 540.84 C 613.35 532.56 615.95 524.53 616.10 516.26 C 615.03 517.14 613.63 517.82 613.21 519.25 C 609.85 529.33 605.73 539.48 598.77 547.65 C 599.10 536.48 603.65 525.85 603.25 514.59 C 596.53 521.57 597.73 533.15 589.99 539.48 C 588.06 535.13 589.83 530.42 590.41 525.99 C 591.08 521.37 592.85 516.90 592.68 512.18 C 591.21 513.61 590.10 515.34 588.99 517.05 C 590.41 506.75 590.19 496.32 589.38 485.98 C 591.22 481.85 594.40 478.51 596.60 474.58 C 598.28 471.32 598.57 467.60 598.96 464.03 C 599.88 453.36 600.74 442.68 600.90 431.98 C 601.22 422.99 601.92 414.00 601.55 405.01 C 601.33 398.79 601.84 392.31 599.58 386.39 C 596.69 379.07 592.41 372.42 587.99 365.95 M 597.41 493.47 C 594.77 495.06 592.58 497.55 591.57 500.49 C 591.26 501.76 590.64 503.88 592.75 503.55 C 595.40 501.47 597.41 498.64 600.31 496.85 C 603.21 497.55 604.82 501.71 608.07 500.68 C 607.56 495.96 602.25 490.60 597.41 493.47 Z" />
		<path fill="#f0b58b" opacity="1.00"
			d=" M 335.32 430.29 C 344.34 414.84 351.25 398.27 360.32 382.86 C 374.20 383.38 388.20 382.84 401.91 385.53 C 402.02 394.09 401.74 402.66 401.09 411.19 C 400.84 414.72 400.05 418.19 398.85 421.52 C 392.24 424.13 384.90 423.03 378.44 420.54 C 374.66 419.20 371.28 416.96 367.44 415.82 C 368.65 418.08 370.25 420.21 372.59 421.40 C 379.73 425.29 387.95 427.80 396.14 426.44 C 385.39 439.49 373.26 451.33 361.02 462.98 C 351.60 472.00 341.29 480.00 330.99 487.97 C 328.01 490.32 324.66 492.28 322.14 495.16 C 319.82 498.32 319.82 502.45 318.90 506.14 C 317.29 513.12 315.66 520.23 312.33 526.64 C 312.38 522.39 313.38 518.18 313.12 513.94 C 312.99 511.24 310.99 508.27 307.99 508.56 C 304.69 509.41 301.82 511.43 298.51 512.27 C 293.47 513.83 288.12 513.45 282.99 514.51 C 288.56 517.78 295.49 516.11 301.30 514.36 C 300.50 519.64 302.12 524.77 302.68 529.97 C 303.61 534.41 298.95 537.08 295.79 539.11 C 292.52 541.52 288.73 539.29 285.19 539.10 C 283.03 538.77 280.31 539.25 278.81 537.27 C 275.82 533.70 274.15 529.14 273.71 524.54 C 273.05 518.70 272.21 512.82 272.54 506.94 C 273.36 502.91 276.08 499.66 278.27 496.29 C 279.54 494.65 280.68 492.38 282.97 492.10 C 287.49 491.28 292.22 490.64 296.23 488.24 C 300.04 485.81 302.98 482.27 305.72 478.73 C 317.13 463.58 325.78 446.63 335.32 430.29 Z" />
		<path fill="#f0b58b" opacity="1.00"
			d=" M 550.04 683.46 C 561.52 681.00 572.31 675.89 584.01 674.34 C 586.72 681.58 588.28 689.27 588.10 697.02 C 587.66 706.76 593.09 715.28 596.91 723.84 C 584.57 718.83 570.57 719.23 557.91 722.82 C 551.99 724.42 546.41 727.20 541.66 731.08 C 539.86 723.48 534.50 717.49 531.69 710.31 C 527.48 700.04 524.38 689.29 522.22 678.41 C 529.03 682.20 536.73 683.77 544.47 683.97 C 548.84 691.32 551.75 699.38 554.74 707.36 C 555.42 709.40 556.70 711.15 558.11 712.76 C 559.32 708.34 557.67 703.96 556.38 699.78 C 554.55 694.23 552.80 688.62 550.04 683.46 Z" />
		<path fill="#f0b58b" opacity="1.00"
			d=" M 440.09 707.88 C 457.10 705.73 473.65 700.93 490.00 695.87 C 489.03 706.58 487.04 717.20 486.88 727.98 C 486.82 738.62 485.71 749.45 488.25 759.92 C 482.66 769.28 471.55 772.92 461.55 775.35 C 449.85 777.72 436.58 778.64 426.01 772.10 C 424.22 766.28 422.38 760.49 420.24 754.80 C 416.60 745.23 415.78 734.95 413.87 724.97 C 412.09 715.33 411.10 705.57 410.12 695.83 C 415.89 699.36 421.04 703.83 426.99 707.08 C 430.99 709.41 435.75 708.13 440.09 707.88 Z" />
	</g>
	<g id="#f11b27ff">
		<path fill="var(--shirt-color, grey)" opacity="1.00"
			d=" M 450.73 175.94 C 466.57 172.78 482.76 171.56 498.90 171.66 C 514.36 172.66 528.38 180.12 542.00 186.88 C 554.92 193.10 566.67 201.40 578.26 209.76 C 585.19 215.05 592.46 220.27 597.45 227.55 C 602.11 234.18 605.73 241.45 609.43 248.64 C 615.20 260.21 616.18 273.31 618.61 285.82 C 620.72 296.47 622.58 307.18 625.24 317.71 C 627.08 325.13 630.77 331.89 634.46 338.53 C 627.49 342.80 621.22 348.14 614.00 352.00 C 607.51 355.46 600.85 358.97 593.53 360.27 C 588.32 361.25 583.08 362.11 577.86 363.01 C 577.89 345.50 580.35 328.10 583.96 311.00 C 585.30 303.67 586.80 296.35 589.19 289.28 C 590.45 285.09 592.34 281.07 592.95 276.70 C 587.55 282.12 585.57 289.72 583.02 296.70 C 584.32 284.18 584.37 271.58 585.11 259.02 C 585.34 255.74 585.22 252.43 584.21 249.28 C 581.57 254.43 581.73 260.35 581.21 265.97 C 580.49 277.63 579.47 289.27 578.61 300.92 C 578.01 307.59 578.76 314.37 577.36 320.97 C 574.35 337.14 572.60 353.60 573.45 370.06 C 573.94 378.41 573.91 386.79 574.95 395.10 C 575.36 398.64 575.01 402.62 572.30 405.24 C 570.42 407.48 566.98 410.28 564.11 408.00 C 559.86 404.48 558.96 398.63 557.76 393.56 C 552.58 365.94 555.51 337.70 558.16 309.97 C 558.40 307.51 558.17 305.04 557.90 302.60 C 554.93 306.43 554.79 311.42 554.06 316.01 C 551.63 335.58 549.59 355.35 551.29 375.07 C 552.17 384.90 553.09 394.95 556.84 404.18 C 558.58 408.26 562.04 412.89 567.01 412.43 C 572.29 411.84 575.24 406.89 577.82 402.82 C 581.86 415.47 582.05 428.86 582.73 442.00 C 583.28 454.44 580.95 466.74 580.76 479.15 C 570.31 482.98 558.94 481.94 548.02 481.96 C 537.66 482.09 527.27 480.81 516.95 482.00 C 522.91 484.68 529.58 484.42 535.97 484.83 C 546.96 485.25 557.96 485.92 568.96 485.48 C 573.99 485.37 578.84 483.88 583.35 481.72 C 586.27 488.43 585.75 495.90 585.82 503.04 C 585.52 508.69 585.58 514.44 584.26 519.98 C 583.89 522.08 581.79 523.12 579.89 523.46 C 573.69 524.59 567.34 524.54 561.07 524.23 C 543.05 523.07 525.04 520.88 506.96 521.40 C 495.41 521.77 484.34 525.53 472.85 526.38 C 460.61 527.38 448.23 526.89 436.12 524.85 C 426.73 522.97 417.72 519.61 408.75 516.33 C 403.22 514.35 397.87 511.44 393.83 507.10 C 391.88 505.17 392.17 501.85 393.73 499.78 C 396.73 495.73 400.91 492.38 402.64 487.50 C 403.49 483.23 402.00 478.93 401.63 474.68 C 410.75 473.58 420.40 474.44 428.98 470.64 C 421.65 469.99 414.32 471.14 406.99 471.23 C 403.36 471.30 398.54 472.24 396.09 468.84 C 395.57 465.02 397.25 459.31 401.91 459.22 C 422.17 456.52 442.62 455.25 463.06 454.99 C 474.70 454.75 486.37 454.96 497.98 455.98 C 501.80 456.34 505.63 456.36 509.46 456.18 C 499.68 452.83 489.23 452.56 479.01 452.04 C 458.64 451.49 438.25 452.01 417.92 453.42 C 412.07 453.78 406.27 454.63 400.47 455.50 C 398.36 449.98 401.74 444.58 401.48 439.02 C 401.38 434.14 402.01 429.27 402.78 424.46 C 406.79 412.11 405.74 398.88 405.30 386.09 C 408.89 386.72 412.53 388.33 416.23 387.60 C 420.60 374.95 420.76 361.30 421.51 348.06 C 425.39 358.61 431.22 368.77 439.77 376.23 C 447.50 382.94 456.53 389.18 467.00 390.14 C 470.31 390.62 473.39 389.15 476.11 387.42 C 472.53 387.46 468.90 388.28 465.36 387.43 C 458.11 385.81 451.99 381.32 446.29 376.78 C 434.11 367.40 425.63 353.45 422.38 338.47 C 421.38 334.02 421.48 329.39 420.33 324.96 C 416.94 311.64 414.43 297.79 415.98 284.00 C 416.43 279.01 417.60 274.09 417.70 269.07 C 416.36 270.24 415.03 271.58 414.58 273.36 C 411.35 285.85 411.12 298.99 413.24 311.69 C 414.20 319.55 417.05 327.09 417.32 335.04 C 417.76 344.69 416.70 354.33 416.21 363.96 C 415.91 370.49 414.78 376.94 413.84 383.40 C 401.83 380.24 389.39 378.74 376.98 378.95 C 367.22 379.18 357.46 379.10 347.70 379.44 C 345.82 361.49 350.34 343.73 351.46 325.88 C 352.75 308.31 350.54 290.53 353.71 273.09 C 355.08 262.06 359.70 251.77 365.28 242.26 C 368.86 235.74 374.89 231.01 380.97 226.94 C 394.41 219.15 410.06 215.84 422.96 207.02 C 427.94 203.53 433.87 200.72 437.01 195.24 C 432.33 197.31 428.26 200.49 423.74 202.85 C 412.87 208.61 401.03 212.13 389.91 217.32 C 396.71 210.98 402.97 204.05 410.20 198.18 C 416.10 193.28 422.52 189.05 429.02 185.00 C 435.71 180.86 442.95 177.43 450.73 175.94 M 475.17 478.88 C 479.45 480.97 484.28 480.68 488.91 480.86 C 494.54 481.00 500.17 481.46 505.81 481.10 C 503.00 477.38 498.03 478.28 494.00 478.11 C 487.72 478.28 481.36 477.63 475.17 478.88 Z" />
	</g>
	<g id="#ffffffff">
		<path fill="var(--pants-color, grey)" opacity="1.00"
			d=" M 396.27 557.01 C 397.49 543.80 398.97 530.62 400.22 517.42 C 414.73 523.87 429.89 529.82 445.91 530.78 C 459.36 531.80 472.96 531.65 486.24 529.12 C 494.40 527.49 502.67 526.10 511.01 526.28 C 526.71 526.60 542.34 528.24 558.00 529.25 C 566.78 529.60 575.88 530.17 584.35 527.37 C 584.63 543.94 587.00 560.41 587.12 577.00 C 587.52 594.75 584.31 612.30 583.56 629.99 C 582.63 643.40 583.53 656.83 584.00 670.24 C 573.47 671.00 563.54 674.84 553.45 677.63 C 546.16 679.68 538.31 679.13 531.07 677.18 C 524.43 674.50 518.06 670.97 510.92 669.72 C 514.41 642.25 516.41 614.49 514.54 586.81 C 514.32 583.51 513.82 580.12 511.76 577.42 C 509.80 581.34 510.92 585.77 510.72 589.96 C 511.04 608.34 509.56 626.67 508.03 644.97 C 507.00 658.33 506.18 671.71 504.60 685.02 C 504.63 687.22 501.85 687.34 500.35 688.14 C 478.65 695.13 456.62 701.57 433.92 704.22 C 432.41 704.25 430.69 704.81 429.33 703.91 C 422.61 699.58 416.47 694.35 409.42 690.53 C 405.58 688.44 401.10 688.25 397.03 686.85 C 394.93 681.10 394.70 674.83 394.16 668.79 C 393.92 653.52 394.26 638.24 394.10 622.97 C 393.84 600.97 394.16 578.93 396.27 557.01 Z" />
		<path fill="var(--socks-color, grey)" opacity="1.00"
			d=" M 542.06 736.06 C 554.63 727.13 570.96 724.42 586.03 726.60 C 591.23 727.70 597.08 729.05 600.62 733.33 C 605.65 745.44 609.03 758.19 611.64 771.03 C 616.48 795.17 621.24 819.42 622.94 844.03 C 623.99 854.69 625.96 865.27 626.16 876.01 C 626.45 882.66 625.61 889.52 627.81 895.95 C 619.13 901.87 608.77 906.55 598.02 905.35 C 594.08 904.96 589.39 904.77 586.68 901.44 C 582.65 894.34 581.80 886.10 580.32 878.22 C 578.25 867.38 576.85 856.41 574.21 845.69 C 570.39 829.86 566.20 814.07 560.23 798.90 C 556.73 789.99 553.36 781.02 549.66 772.19 C 544.69 760.81 543.36 748.29 542.06 736.06 Z" />
		<path fill="var(--socks-color, grey)" opacity="1.00"
			d=" M 465.44 779.64 C 474.94 777.08 484.94 772.83 490.41 764.18 C 496.86 776.04 496.45 789.95 495.81 803.02 C 494.77 821.08 492.34 839.03 491.07 857.07 C 488.42 885.56 483.72 913.79 480.04 942.15 C 480.01 946.58 475.67 948.77 472.19 950.38 C 466.80 953.08 459.97 952.59 455.20 948.83 C 446.85 943.31 444.31 932.62 436.30 926.72 C 433.00 924.68 432.94 920.54 432.53 917.12 C 430.64 896.15 431.79 875.06 430.93 854.05 C 430.62 836.70 429.77 819.37 429.76 802.02 C 429.75 794.07 429.58 786.07 427.98 778.26 C 439.77 783.35 453.20 782.54 465.44 779.64 Z" />
	</g>
	<g id="#4d4d4dff">
		<path fill="#4d4d4d" opacity="1.00"
			d=" M 602.01 910.60 C 612.38 910.40 622.20 906.17 630.52 900.19 C 632.47 904.97 634.21 909.86 635.28 914.92 C 637.89 926.77 640.39 938.82 639.92 951.03 C 639.74 953.93 639.68 957.23 637.44 959.42 C 630.99 966.33 621.10 968.61 611.99 969.06 C 604.84 969.73 598.39 966.20 592.59 962.48 C 581.18 955.17 567.38 953.90 554.57 950.49 C 550.37 949.23 545.64 947.65 543.28 943.68 C 541.26 940.52 544.72 937.82 546.71 935.76 C 554.83 928.73 563.51 922.37 572.41 916.39 C 576.71 913.47 580.56 909.97 584.24 906.33 C 589.81 908.85 595.77 911.11 602.01 910.60 Z" />
		<path fill="#4d4d4d" opacity="1.00"
			d=" M 416.03 940.06 C 422.39 937.87 427.57 933.37 431.77 928.24 C 437.68 933.49 441.52 940.44 446.20 946.69 C 451.58 953.94 461.01 957.94 469.97 956.32 C 474.92 955.83 478.84 952.52 482.32 949.26 C 483.78 961.01 486.02 973.20 482.75 984.86 C 482.00 987.89 478.89 989.53 475.99 989.85 C 457.62 991.93 439.41 987.00 421.05 987.47 C 402.21 988.35 383.08 984.37 366.34 975.61 C 358.59 971.85 351.25 967.15 345.14 961.04 C 347.11 957.53 349.44 954.05 352.97 951.93 C 359.73 947.32 368.22 947.43 376.03 946.51 C 389.48 945.38 403.20 944.61 416.03 940.06 Z" />
	</g>
</svg>