<?xml version="1.0" encoding="UTF-8" ?>
<!DOCTYPE svg PUBLIC "-//W3C//DTD SVG 1.1//EN" "http://www.w3.org/Graphics/SVG/1.1/DTD/svg11.dtd">
<svg width="1000pt" height="1000pt" viewBox="0 0 1000 1000" version="1.1" xmlns="http://www.w3.org/2000/svg">
	<g id="#020202ff">
		<path fill="#020202" opacity="1.00"
			d=" M 472.39 10.40 C 483.88 3.04 498.47 0.54 511.68 4.16 C 525.95 7.91 537.98 18.34 544.74 31.34 C 558.61 57.07 554.06 91.62 533.44 112.48 C 525.21 121.03 523.32 133.26 522.14 144.57 C 526.50 145.43 530.85 146.79 534.46 149.46 C 538.48 152.22 540.97 156.49 543.70 160.41 C 558.99 163.70 573.70 170.94 584.40 182.53 C 593.39 191.40 599.98 202.72 602.95 215.02 C 606.02 227.40 605.81 240.40 603.90 252.95 C 602.67 262.89 603.28 272.93 602.27 282.89 C 602.05 285.45 603.17 287.85 603.78 290.29 C 606.47 299.55 605.81 309.38 608.35 318.67 C 609.27 321.95 611.21 324.81 612.32 328.02 C 612.84 329.48 611.17 330.37 610.39 331.33 C 606.59 334.49 602.40 337.14 598.43 340.09 C 601.05 350.23 603.40 360.43 606.35 370.48 C 609.06 380.79 612.77 390.83 614.86 401.31 C 617.11 412.11 619.18 422.99 620.05 434.00 C 620.78 442.83 618.83 451.83 614.51 459.57 C 610.53 466.67 605.80 473.36 600.49 479.53 C 593.52 487.77 586.56 496.03 578.95 503.68 C 580.62 515.52 584.67 526.92 585.54 538.88 C 587.23 560.68 583.18 582.31 581.89 604.01 C 580.89 617.65 580.16 631.32 579.94 645.01 C 579.74 653.78 582.65 662.44 581.21 671.22 C 578.17 672.67 575.02 673.88 571.81 674.88 C 573.56 679.77 574.90 684.83 575.46 690.00 C 576.62 703.33 578.59 716.60 578.96 729.99 C 580.12 749.00 578.25 767.99 577.93 786.99 C 577.57 805.64 577.12 824.29 575.59 842.89 C 574.36 862.63 572.95 882.35 570.90 902.02 C 570.21 912.01 569.28 922.79 573.87 932.04 C 579.41 938.89 586.73 944.02 593.41 949.69 C 600.58 955.91 609.32 960.21 615.66 967.39 C 618.49 970.55 621.61 974.42 620.84 978.97 C 620.12 983.19 615.68 985.22 611.92 986.04 C 595.46 988.98 578.70 986.86 562.16 985.79 C 550.79 984.62 539.36 984.25 527.94 983.66 C 522.16 983.17 515.58 983.08 511.15 978.77 C 506.55 974.13 506.29 966.99 507.30 960.91 C 508.99 948.43 514.77 937.11 519.78 925.71 C 521.92 921.19 521.43 916.04 522.21 911.21 C 524.45 897.53 522.80 883.64 521.91 869.91 C 520.84 855.39 517.80 841.15 514.89 826.92 C 511.12 806.07 507.62 785.12 506.49 763.94 C 505.65 750.89 507.98 737.95 508.53 724.96 C 509.17 707.25 501.61 690.61 492.33 675.97 C 483.61 674.98 478.10 666.82 476.30 658.87 C 473.27 646.21 472.68 633.14 471.50 620.22 C 470.79 632.08 468.07 643.69 465.04 655.13 C 463.43 660.56 461.79 666.10 458.81 670.96 C 456.14 674.68 450.98 674.43 446.92 674.90 C 446.68 688.99 441.47 702.48 434.48 714.54 C 429.72 722.34 431.33 731.83 430.21 740.49 C 427.59 759.87 421.43 778.51 416.55 797.39 C 410.09 820.52 405.45 844.15 402.67 868.01 C 401.16 885.15 401.05 902.52 403.42 919.56 C 407.80 928.31 408.27 938.71 405.06 947.92 C 402.85 953.99 399.37 959.47 396.14 965.03 C 392.55 970.64 387.44 975.89 380.84 977.69 C 373.79 979.32 366.93 976.24 360.00 975.44 C 348.36 973.67 336.75 977.17 325.08 976.50 C 321.41 976.21 317.53 974.78 315.46 971.56 C 313.43 968.46 313.96 964.44 315.15 961.13 C 317.74 954.28 321.63 947.97 326.31 942.35 C 332.40 935.08 338.47 927.76 345.12 920.98 C 347.63 918.18 350.52 915.69 352.67 912.59 C 358.16 893.75 357.16 873.85 355.70 854.51 C 354.09 836.36 351.08 818.28 351.52 800.01 C 351.38 781.09 353.78 762.14 358.94 743.93 C 363.08 728.91 369.59 714.52 371.96 699.04 C 374.25 687.02 374.04 674.65 372.29 662.58 C 369.03 661.45 365.63 660.69 362.47 659.31 C 361.45 657.80 361.42 655.88 361.26 654.14 C 360.74 644.28 363.12 634.62 364.31 624.89 C 365.62 614.33 367.18 603.66 366.10 593.00 C 364.06 571.71 359.95 550.53 360.47 529.07 C 360.59 520.41 360.75 511.75 361.24 503.11 C 351.22 488.07 338.13 474.90 330.90 458.11 C 327.54 450.91 325.47 443.22 323.53 435.55 C 318.05 416.14 305.01 400.32 294.44 383.54 C 283.12 365.94 270.27 349.37 259.69 331.30 C 252.47 319.94 246.53 306.88 247.52 293.10 C 249.25 282.55 254.98 273.31 260.38 264.28 C 262.32 260.94 264.58 257.80 267.12 254.89 C 265.24 253.40 262.83 252.30 261.65 250.13 C 261.35 246.51 263.85 243.53 265.71 240.68 C 273.42 229.48 284.63 221.52 295.21 213.27 C 308.18 202.96 322.25 193.80 333.29 181.29 C 338.67 175.04 344.20 168.82 350.72 163.72 C 355.76 159.72 362.28 158.48 368.51 157.74 C 381.57 156.47 395.05 157.00 407.59 152.55 C 418.04 148.48 427.57 142.11 438.54 139.40 C 444.34 137.82 450.36 139.01 456.23 139.41 C 460.11 124.19 453.43 109.35 448.73 95.16 C 441.63 78.38 441.21 58.90 447.61 41.83 C 452.31 29.12 460.89 17.70 472.39 10.40 M 458.68 110.93 C 461.88 120.10 463.99 130.42 460.37 139.80 C 479.54 142.21 498.85 143.32 518.14 144.34 C 518.17 136.64 519.52 128.98 521.88 121.65 C 515.19 125.51 507.65 127.90 499.94 128.40 C 484.41 129.67 468.85 122.53 458.68 110.93 M 406.97 157.89 C 393.13 161.67 378.64 161.39 364.47 162.66 C 354.09 163.80 347.30 172.52 340.64 179.59 C 327.01 196.86 307.99 208.40 291.25 222.27 C 281.34 229.84 272.15 238.54 265.51 249.18 C 279.04 256.43 290.31 267.12 300.78 278.19 C 305.14 282.70 308.72 287.88 312.18 293.09 C 318.94 287.89 325.43 282.38 331.93 276.87 C 336.11 273.36 341.22 269.92 346.96 270.76 C 353.42 271.74 359.82 273.26 366.39 273.45 C 366.12 264.88 364.37 256.46 362.55 248.11 C 361.57 243.93 360.11 239.84 359.80 235.53 C 361.46 236.43 362.85 237.78 363.52 239.58 C 369.03 252.24 372.24 266.23 370.48 280.07 C 368.16 297.62 367.87 315.35 367.53 333.03 C 367.32 351.83 375.86 369.31 376.66 387.99 C 381.29 379.85 388.14 372.75 396.76 368.88 C 398.58 368.15 401.79 367.30 402.36 369.99 C 398.17 372.89 393.50 375.19 390.00 378.99 C 377.11 392.09 371.79 410.93 371.33 428.92 C 375.59 432.53 380.29 435.88 383.43 440.59 C 384.84 442.66 383.44 445.35 381.33 446.26 C 376.47 449.22 370.58 447.33 365.76 445.29 C 365.79 447.74 365.82 450.19 365.85 452.65 C 382.99 451.39 400.08 454.02 417.06 456.02 C 429.64 457.75 442.37 457.75 455.04 458.15 C 463.99 458.40 472.58 455.57 481.34 454.17 C 491.60 451.81 501.59 448.30 511.98 446.47 C 524.85 443.94 538.36 444.34 551.03 447.65 C 552.86 442.18 556.57 437.55 561.82 435.05 C 561.07 430.87 561.59 426.43 560.46 422.40 C 554.11 416.45 545.28 414.31 536.90 413.12 C 525.00 411.11 512.89 410.91 500.95 409.17 C 494.00 408.21 487.43 405.27 481.78 401.17 C 480.21 400.05 479.22 398.36 478.18 396.79 C 485.17 399.27 491.60 403.40 499.04 404.48 C 509.31 406.08 519.72 406.39 530.04 407.58 C 538.76 408.63 547.83 409.28 555.77 413.42 C 553.12 410.31 550.27 407.24 548.55 403.50 C 546.86 399.60 548.74 395.48 549.68 391.65 C 550.92 387.51 549.47 383.25 549.16 379.08 C 548.54 374.85 549.21 370.59 550.16 366.46 C 545.94 366.03 541.16 366.84 537.45 364.39 C 533.64 359.42 535.42 352.75 537.10 347.29 C 538.56 341.74 541.49 335.97 539.64 330.14 C 537.07 322.12 533.02 314.62 530.84 306.47 C 530.13 304.15 530.39 301.73 530.88 299.40 C 533.56 308.74 538.23 317.28 541.90 326.24 C 541.99 319.82 541.86 313.35 540.64 307.03 C 539.89 303.01 538.60 299.05 538.64 294.93 C 541.98 298.48 542.90 303.41 544.19 307.94 C 547.03 318.30 547.45 329.39 544.68 339.81 C 543.41 345.99 540.62 351.83 540.08 358.15 C 539.65 360.37 541.66 362.34 543.88 361.91 C 552.01 361.67 560.53 360.90 567.76 356.84 C 573.51 353.79 576.96 347.94 582.29 344.31 C 589.91 338.94 597.95 334.18 605.59 328.83 C 603.29 319.30 600.84 309.73 600.05 299.93 C 599.00 289.46 594.67 279.75 590.93 270.04 C 589.24 265.51 586.81 261.14 586.59 256.22 C 588.06 257.09 589.64 258.00 590.47 259.59 C 593.44 264.67 595.61 270.17 598.18 275.47 C 597.67 265.32 598.47 255.16 599.70 245.09 C 600.35 234.99 600.05 224.65 596.98 214.92 C 592.35 199.53 581.99 186.34 569.33 176.66 C 564.44 172.75 558.52 170.46 552.59 168.64 C 545.46 166.48 538.34 164.08 530.91 163.22 C 527.30 162.71 523.53 162.54 520.19 160.94 C 520.21 160.45 520.24 159.45 520.26 158.96 C 525.61 157.96 531.09 158.76 536.49 158.92 C 534.08 156.17 531.49 153.47 528.18 151.81 C 523.55 149.23 518.10 149.33 512.97 149.11 C 502.29 148.88 491.65 147.84 481.00 147.13 C 469.60 146.42 458.39 143.90 446.99 143.27 C 432.12 142.74 420.61 153.88 406.97 157.89 M 254.14 285.11 C 251.19 291.57 251.62 298.96 252.71 305.80 C 255.06 315.23 260.02 323.74 265.10 331.93 C 273.89 346.85 284.55 360.53 293.97 375.04 C 298.55 381.80 302.87 388.74 307.50 395.46 C 314.28 405.66 321.16 415.96 325.55 427.46 C 328.17 433.87 329.41 440.72 331.80 447.21 C 334.69 455.18 338.24 462.94 342.98 469.98 C 348.97 478.96 355.04 487.89 361.55 496.52 C 362.99 478.73 361.35 460.92 361.81 443.12 C 358.02 442.15 354.08 442.74 350.25 442.10 C 349.96 439.41 353.27 439.22 355.15 438.56 C 360.70 437.03 365.74 440.41 370.83 442.03 C 373.94 443.12 377.29 442.82 380.52 442.60 C 376.30 438.05 371.13 434.58 366.29 430.76 C 355.93 422.18 345.45 413.20 338.64 401.40 C 332.73 390.80 329.52 378.88 327.86 366.91 C 325.25 352.57 321.95 338.08 314.80 325.24 C 308.75 313.97 299.38 304.89 293.37 293.61 C 292.44 291.34 290.69 288.85 291.72 286.33 C 293.44 286.18 294.09 287.96 294.99 289.03 C 297.49 292.88 300.04 296.70 302.78 300.39 C 304.76 298.80 306.75 297.23 308.75 295.67 C 303.85 286.50 296.07 279.44 288.63 272.37 C 282.63 266.79 276.47 261.35 269.79 256.59 C 264.57 266.09 258.33 275.07 254.14 285.11 M 334.08 281.13 C 324.97 289.28 315.87 297.61 305.26 303.81 C 311.65 312.57 318.39 321.28 322.51 331.39 C 327.69 344.16 330.44 357.73 332.88 371.24 C 334.96 381.91 338.44 392.47 344.36 401.65 C 350.81 410.84 358.99 418.75 367.64 425.87 C 367.67 418.14 368.69 410.42 370.83 402.99 C 374.67 392.01 371.60 380.22 368.72 369.38 C 365.68 358.14 362.17 346.83 362.13 335.06 C 362.10 315.51 363.47 295.98 365.66 276.57 C 359.70 277.43 353.67 276.86 347.87 275.33 C 342.43 273.66 337.89 277.91 334.08 281.13 M 578.59 355.60 C 572.06 362.70 562.39 365.98 552.95 366.49 C 552.95 370.00 553.50 373.53 555.14 376.68 C 559.87 386.14 565.01 395.38 570.56 404.38 C 577.77 416.01 588.32 425.45 593.79 438.17 C 594.53 440.26 595.70 442.56 594.84 444.81 C 591.22 443.77 590.48 438.95 588.16 436.30 C 583.17 440.81 576.18 440.55 569.97 439.66 C 563.70 438.67 558.78 443.56 555.35 448.13 C 562.06 451.83 570.68 451.12 576.46 456.62 C 580.84 460.75 584.50 466.15 585.32 472.23 C 580.45 471.19 578.27 465.94 574.55 463.07 C 575.06 474.38 576.20 485.65 577.93 496.84 C 582.63 491.54 587.17 486.12 591.72 480.70 C 599.35 472.16 606.97 463.34 611.84 452.86 C 615.01 445.78 615.40 437.76 614.27 430.17 C 612.65 418.46 610.18 406.88 607.38 395.40 C 602.44 377.86 597.36 360.23 595.37 342.06 C 589.43 346.13 583.39 350.17 578.59 355.60 M 554.48 385.25 C 555.34 390.63 552.56 395.57 552.35 400.82 C 554.86 407.04 560.55 411.17 564.22 416.63 C 566.70 422.06 565.05 428.27 565.70 434.03 C 572.58 434.19 579.73 437.09 586.34 433.87 C 581.37 426.52 575.13 420.16 569.90 413.00 C 563.88 404.30 558.46 395.06 554.48 385.25 M 484.48 459.69 C 475.31 461.00 466.31 463.75 456.97 463.73 C 441.26 463.50 425.53 462.75 409.98 460.39 C 395.31 458.81 380.55 456.17 365.77 457.25 C 367.67 486.13 363.83 515.02 365.46 543.91 C 366.75 561.02 369.92 577.92 371.24 595.02 C 372.52 615.34 366.21 635.06 364.77 655.18 C 371.11 656.50 377.20 658.80 383.34 660.82 C 391.15 663.31 398.57 667.59 406.96 667.74 C 419.67 667.89 432.35 668.73 445.04 669.37 C 448.47 669.41 452.05 669.51 455.30 668.26 C 465.89 643.63 468.50 616.52 469.51 589.99 C 468.92 579.39 467.16 568.89 465.56 558.41 C 462.57 562.68 460.60 567.53 458.03 572.03 C 457.14 573.52 454.88 572.53 455.34 570.84 C 457.18 559.89 463.36 549.76 472.03 542.85 C 479.01 537.28 485.83 531.52 492.61 525.71 C 494.26 524.20 496.30 523.25 498.50 522.86 C 497.99 526.84 495.08 529.71 492.37 532.38 C 484.41 540.32 475.28 547.05 467.84 555.53 C 470.42 565.85 472.04 576.39 473.82 586.87 C 476.22 603.83 476.64 620.98 478.20 638.02 C 479.01 646.45 479.33 655.09 482.15 663.16 C 483.61 666.58 485.73 670.78 489.95 671.07 C 496.03 671.75 502.18 671.19 508.27 670.83 C 521.15 669.50 534.10 669.67 547.03 669.80 C 557.47 669.98 568.60 672.89 578.39 667.81 C 577.17 660.57 575.45 653.38 575.27 646.01 C 575.16 634.00 575.90 621.99 576.61 610.01 C 577.66 587.97 581.40 566.05 580.46 543.95 C 579.98 531.74 576.30 520.02 574.24 508.05 C 571.69 491.96 569.80 475.69 570.45 459.37 C 566.24 457.31 561.49 456.78 557.33 454.62 C 552.11 451.64 546.02 450.32 540.03 450.44 C 534.66 450.43 529.27 449.95 523.91 450.46 C 510.40 451.74 497.54 456.30 484.48 459.69 M 377.69 664.43 C 380.54 684.35 377.89 704.86 371.02 723.72 C 376.76 721.60 382.91 720.69 389.02 720.96 C 402.31 721.51 415.62 725.87 426.13 734.13 C 426.63 728.29 426.69 722.26 428.76 716.70 C 430.58 712.33 433.10 708.31 435.14 704.05 C 439.41 694.78 442.35 684.85 443.02 674.64 C 431.34 674.01 419.66 673.54 407.97 673.13 C 397.25 672.96 387.68 667.61 377.69 664.43 M 498.15 676.21 C 507.04 690.61 513.50 707.06 513.24 724.22 C 521.20 720.59 530.23 720.80 538.74 721.73 C 551.30 723.46 564.19 726.99 574.25 735.04 C 573.86 725.64 573.27 716.26 572.34 706.91 C 571.03 696.45 571.45 685.74 568.47 675.53 C 557.64 675.77 546.85 674.29 536.01 674.83 C 523.36 674.38 510.77 675.88 498.15 676.21 M 369.54 728.73 C 365.30 740.53 361.77 752.62 359.61 764.98 C 356.23 782.93 356.40 801.36 357.82 819.51 C 360.19 844.62 364.50 869.89 361.56 895.14 C 360.66 902.95 357.47 910.28 356.52 918.06 C 356.01 922.55 359.67 929.27 364.99 926.98 C 373.28 924.77 376.71 915.44 384.73 912.79 C 389.29 911.01 394.72 910.75 398.87 913.72 C 395.60 891.92 397.04 869.67 400.57 847.99 C 402.66 835.93 404.64 823.82 407.75 811.97 C 413.30 787.88 421.57 764.43 425.59 739.99 C 418.47 733.39 409.34 729.33 399.94 727.22 C 389.95 724.93 379.13 724.67 369.54 728.73 M 516.59 727.51 C 515.15 728.24 513.07 728.94 513.07 730.88 C 512.13 738.20 511.38 745.55 511.16 752.93 C 510.46 761.49 511.61 770.03 512.19 778.56 C 514.80 799.83 518.29 820.99 522.79 841.94 C 526.24 859.74 527.51 877.90 527.87 896.01 C 528.29 905.46 525.71 914.71 525.71 924.16 C 533.38 922.81 540.92 916.49 548.94 919.86 C 557.15 924.41 562.20 932.97 570.18 937.88 C 570.37 933.99 568.10 930.71 567.33 927.02 C 564.53 915.50 565.93 903.53 567.29 891.90 C 568.11 883.92 569.07 875.94 569.46 867.92 C 571.35 841.64 573.32 815.34 573.20 788.98 C 573.14 772.20 574.54 755.47 574.37 738.69 C 563.39 730.34 549.47 727.05 535.98 725.71 C 529.50 725.30 522.73 725.11 516.59 727.51 M 387.03 916.79 C 380.32 918.87 377.06 925.87 371.06 929.11 C 367.36 931.19 362.39 933.07 358.47 930.49 C 354.31 927.80 353.24 922.63 352.37 918.11 C 348.50 923.27 343.97 927.89 339.84 932.83 C 332.35 942.12 323.84 950.99 319.53 962.34 C 318.79 964.60 317.81 967.45 319.42 969.59 C 321.49 972.00 325.02 972.29 328.00 972.21 C 337.57 971.15 345.52 965.31 353.66 960.70 C 363.76 954.93 375.33 950.99 387.10 952.10 C 390.39 952.28 392.75 954.79 395.11 956.80 C 398.13 951.96 400.88 946.78 401.65 941.06 C 402.78 933.64 402.47 925.32 397.94 919.03 C 395.49 915.55 390.69 915.54 387.03 916.79 M 523.51 928.43 C 518.95 939.34 513.83 950.21 511.82 961.96 C 510.95 966.59 510.91 972.01 514.26 975.72 C 516.80 978.88 521.21 978.76 524.87 979.21 C 541.60 980.31 558.40 979.93 575.11 981.40 C 587.60 982.49 600.23 983.05 612.69 981.47 C 615.54 981.27 616.67 977.99 615.17 975.77 C 610.59 967.80 602.17 963.33 594.96 958.11 C 587.49 952.39 580.12 946.42 573.87 939.36 C 571.96 940.26 569.77 941.38 567.74 940.11 C 560.68 936.59 555.70 930.21 549.43 925.60 C 547.85 924.47 545.97 923.49 543.97 923.75 C 536.88 924.26 530.83 929.43 523.51 928.43 M 346.66 969.97 C 353.47 969.22 360.42 969.31 367.13 970.84 C 371.56 971.77 376.26 973.07 380.72 971.65 C 386.07 969.51 389.68 964.73 392.97 960.22 C 390.36 958.26 387.53 956.04 384.04 956.54 C 370.32 956.21 358.06 963.16 346.66 969.97 Z" />
		<path fill="#020202" opacity="1.00"
			d=" M 523.85 173.60 C 527.85 172.73 531.85 171.33 536.01 171.80 C 533.97 174.16 531.09 175.42 528.18 176.30 C 515.15 180.59 501.56 182.74 488.06 184.90 C 475.43 186.88 462.53 186.67 449.92 184.71 C 443.34 183.65 436.51 183.37 430.30 180.77 C 434.08 179.41 438.08 180.18 441.95 180.59 C 457.91 182.50 474.14 182.29 490.03 179.79 C 501.35 178.03 512.68 176.21 523.85 173.60 Z" />
		<path fill="#020202" opacity="1.00"
			d=" M 453.02 300.88 C 454.26 300.97 455.03 301.61 455.33 302.79 C 458.80 312.57 463.96 321.66 469.75 330.25 C 474.38 337.10 479.07 344.11 485.54 349.39 C 491.49 354.35 498.65 357.50 504.99 361.90 C 511.44 366.34 517.41 371.73 521.58 378.43 C 523.44 381.49 525.20 384.81 525.30 388.49 C 522.57 389.09 521.82 386.08 520.50 384.41 C 516.14 377.05 509.64 371.22 502.56 366.52 C 495.87 362.06 488.27 359.09 481.93 354.10 C 474.85 348.73 469.72 341.31 465.15 333.80 C 460.98 326.76 457.31 319.41 454.20 311.84 C 452.95 308.40 451.18 304.44 453.02 300.88 Z" />
	</g>
	<g id="#f0b58bff">
		<path fill="#f0b58b" opacity="1.00"
			d=" M 458.68 110.93 C 468.85 122.53 484.41 129.67 499.94 128.40 C 507.65 127.90 515.19 125.51 521.88 121.65 C 519.52 128.98 518.17 136.64 518.14 144.34 C 498.85 143.32 479.54 142.21 460.37 139.80 C 463.99 130.42 461.88 120.10 458.68 110.93 Z" />
		<path fill="#f0b58b" opacity="1.00"
			d=" M 254.14 285.11 C 258.33 275.07 264.57 266.09 269.79 256.59 C 276.47 261.35 282.63 266.79 288.63 272.37 C 296.07 279.44 303.85 286.50 308.75 295.67 C 306.75 297.23 304.76 298.80 302.78 300.39 C 300.04 296.70 297.49 292.88 294.99 289.03 C 294.09 287.96 293.44 286.18 291.72 286.33 C 290.69 288.85 292.44 291.34 293.37 293.61 C 299.38 304.89 308.75 313.97 314.80 325.24 C 321.95 338.08 325.25 352.57 327.86 366.91 C 329.52 378.88 332.73 390.80 338.64 401.40 C 345.45 413.20 355.93 422.18 366.29 430.76 C 371.13 434.58 376.30 438.05 380.52 442.60 C 377.29 442.82 373.94 443.12 370.83 442.03 C 365.74 440.41 360.70 437.03 355.15 438.56 C 353.27 439.22 349.96 439.41 350.25 442.10 C 354.08 442.74 358.02 442.15 361.81 443.12 C 361.35 460.92 362.99 478.73 361.55 496.52 C 355.04 487.89 348.97 478.96 342.98 469.98 C 338.24 462.94 334.69 455.18 331.80 447.21 C 329.41 440.72 328.17 433.87 325.55 427.46 C 321.16 415.96 314.28 405.66 307.50 395.46 C 302.87 388.74 298.55 381.80 293.97 375.04 C 284.55 360.53 273.89 346.85 265.10 331.93 C 260.02 323.74 255.06 315.23 252.71 305.80 C 251.62 298.96 251.19 291.57 254.14 285.11 Z" />
		<path fill="#f0b58b" opacity="1.00"
			d=" M 578.59 355.60 C 583.39 350.17 589.43 346.13 595.37 342.06 C 597.36 360.23 602.44 377.86 607.38 395.40 C 610.18 406.88 612.65 418.46 614.27 430.17 C 615.40 437.76 615.01 445.78 611.84 452.86 C 606.97 463.34 599.35 472.16 591.72 480.70 C 587.17 486.12 582.63 491.54 577.93 496.84 C 576.20 485.65 575.06 474.38 574.55 463.07 C 578.27 465.94 580.45 471.19 585.32 472.23 C 584.50 466.15 580.84 460.75 576.46 456.62 C 570.68 451.12 562.06 451.83 555.35 448.13 C 558.78 443.56 563.70 438.67 569.97 439.66 C 576.18 440.55 583.17 440.81 588.16 436.30 C 590.48 438.95 591.22 443.77 594.84 444.81 C 595.70 442.56 594.53 440.26 593.79 438.17 C 588.32 425.45 577.77 416.01 570.56 404.38 C 565.01 395.38 559.87 386.14 555.14 376.68 C 553.50 373.53 552.95 370.00 552.95 366.49 C 562.39 365.98 572.06 362.70 578.59 355.60 Z" />
		<path fill="#f0b58b" opacity="1.00"
			d=" M 377.69 664.43 C 387.68 667.61 397.25 672.96 407.97 673.13 C 419.66 673.54 431.34 674.01 443.02 674.64 C 442.35 684.85 439.41 694.78 435.14 704.05 C 433.10 708.31 430.58 712.33 428.76 716.70 C 426.69 722.26 426.63 728.29 426.13 734.13 C 415.62 725.87 402.31 721.51 389.02 720.96 C 382.91 720.69 376.76 721.60 371.02 723.72 C 377.89 704.86 380.54 684.35 377.69 664.43 Z" />
		<path fill="#f0b58b" opacity="1.00"
			d=" M 498.15 676.21 C 510.77 675.88 523.36 674.38 536.01 674.83 C 546.85 674.29 557.64 675.77 568.47 675.53 C 571.45 685.74 571.03 696.45 572.34 706.91 C 573.27 716.26 573.86 725.64 574.25 735.04 C 564.19 726.99 551.30 723.46 538.74 721.73 C 530.23 720.80 521.20 720.59 513.24 724.22 C 513.50 707.06 507.04 690.61 498.15 676.21 Z" />
	</g>
	<g id="#f11b27ff">
		<path fill="var(--shirt-color, grey)" opacity="1.00"
			d=" M 406.97 157.89 C 420.61 153.88 432.12 142.74 446.99 143.27 C 458.39 143.90 469.60 146.42 481.00 147.13 C 491.65 147.84 502.29 148.88 512.97 149.11 C 518.10 149.33 523.55 149.23 528.18 151.81 C 531.49 153.47 534.08 156.17 536.49 158.92 C 531.09 158.76 525.61 157.96 520.26 158.96 C 520.24 159.45 520.21 160.45 520.19 160.94 C 523.53 162.54 527.30 162.71 530.91 163.22 C 538.34 164.08 545.46 166.48 552.59 168.64 C 558.52 170.46 564.44 172.75 569.33 176.66 C 581.99 186.34 592.35 199.53 596.98 214.92 C 600.05 224.65 600.35 234.99 599.70 245.09 C 598.47 255.16 597.67 265.32 598.18 275.47 C 595.61 270.17 593.44 264.67 590.47 259.59 C 589.64 258.00 588.06 257.09 586.59 256.22 C 586.81 261.14 589.24 265.51 590.93 270.04 C 594.67 279.75 599.00 289.46 600.05 299.93 C 600.84 309.73 603.29 319.30 605.59 328.83 C 597.95 334.18 589.91 338.94 582.29 344.31 C 576.96 347.94 573.51 353.79 567.76 356.84 C 560.53 360.90 552.01 361.67 543.88 361.91 C 541.66 362.34 539.65 360.37 540.08 358.15 C 540.62 351.83 543.41 345.99 544.68 339.81 C 547.45 329.39 547.03 318.30 544.19 307.94 C 542.90 303.41 541.98 298.48 538.64 294.93 C 538.60 299.05 539.89 303.01 540.64 307.03 C 541.86 313.35 541.99 319.82 541.90 326.24 C 538.23 317.28 533.56 308.74 530.88 299.40 C 530.39 301.73 530.13 304.15 530.84 306.47 C 533.02 314.62 537.07 322.12 539.64 330.14 C 541.49 335.97 538.56 341.74 537.10 347.29 C 535.42 352.75 533.64 359.42 537.45 364.39 C 541.16 366.84 545.94 366.03 550.16 366.46 C 549.21 370.59 548.54 374.85 549.16 379.08 C 549.47 383.25 550.92 387.51 549.68 391.65 C 548.74 395.48 546.86 399.60 548.55 403.50 C 550.27 407.24 553.12 410.31 555.77 413.42 C 547.83 409.28 538.76 408.63 530.04 407.58 C 519.72 406.39 509.31 406.08 499.04 404.48 C 491.60 403.40 485.17 399.27 478.18 396.79 C 479.22 398.36 480.21 400.05 481.78 401.17 C 487.43 405.27 494.00 408.21 500.95 409.17 C 512.89 410.91 525.00 411.11 536.90 413.12 C 545.28 414.31 554.11 416.45 560.46 422.40 C 561.59 426.43 561.07 430.87 561.82 435.05 C 556.57 437.55 552.86 442.18 551.03 447.65 C 538.36 444.34 524.85 443.94 511.98 446.47 C 501.59 448.30 491.60 451.81 481.34 454.17 C 472.58 455.57 463.99 458.40 455.04 458.15 C 442.37 457.75 429.64 457.75 417.06 456.02 C 400.08 454.02 382.99 451.39 365.85 452.65 C 365.82 450.19 365.79 447.74 365.76 445.29 C 370.58 447.33 376.47 449.22 381.33 446.26 C 383.44 445.35 384.84 442.66 383.43 440.59 C 380.29 435.88 375.59 432.53 371.33 428.92 C 371.79 410.93 377.11 392.09 390.00 378.99 C 393.50 375.19 398.17 372.89 402.36 369.99 C 401.79 367.30 398.58 368.15 396.76 368.88 C 388.14 372.75 381.29 379.85 376.66 387.99 C 375.86 369.31 367.32 351.83 367.53 333.03 C 367.87 315.35 368.16 297.62 370.48 280.07 C 372.24 266.23 369.03 252.24 363.52 239.58 C 362.85 237.78 361.46 236.43 359.80 235.53 C 360.11 239.84 361.57 243.93 362.55 248.11 C 364.37 256.46 366.12 264.88 366.39 273.45 C 359.82 273.26 353.42 271.74 346.96 270.76 C 341.22 269.92 336.11 273.36 331.93 276.87 C 325.43 282.38 318.94 287.89 312.18 293.09 C 308.72 287.88 305.14 282.70 300.78 278.19 C 290.31 267.12 279.04 256.43 265.51 249.18 C 272.15 238.54 281.34 229.84 291.25 222.27 C 307.99 208.40 327.01 196.86 340.64 179.59 C 347.30 172.52 354.09 163.80 364.47 162.66 C 378.64 161.39 393.13 161.67 406.97 157.89 M 523.85 173.60 C 512.68 176.21 501.35 178.03 490.03 179.79 C 474.14 182.29 457.91 182.50 441.95 180.59 C 438.08 180.18 434.08 179.41 430.30 180.77 C 436.51 183.37 443.34 183.65 449.92 184.71 C 462.53 186.67 475.43 186.88 488.06 184.90 C 501.56 182.74 515.15 180.59 528.18 176.30 C 531.09 175.42 533.97 174.16 536.01 171.80 C 531.85 171.33 527.85 172.73 523.85 173.60 M 453.02 300.88 C 451.18 304.44 452.95 308.40 454.20 311.84 C 457.31 319.41 460.98 326.76 465.15 333.80 C 469.72 341.31 474.85 348.73 481.93 354.10 C 488.27 359.09 495.87 362.06 502.56 366.52 C 509.64 371.22 516.14 377.05 520.50 384.41 C 521.82 386.08 522.57 389.09 525.30 388.49 C 525.20 384.81 523.44 381.49 521.58 378.43 C 517.41 371.73 511.44 366.34 504.99 361.90 C 498.65 357.50 491.49 354.35 485.54 349.39 C 479.07 344.11 474.38 337.10 469.75 330.25 C 463.96 321.66 458.80 312.57 455.33 302.79 C 455.03 301.61 454.26 300.97 453.02 300.88 Z" />
	</g>
	<g id="#ffffffff">
		<path fill="var(--pants-color, grey)" opacity="1.00"
			d=" M 484.48 459.69 C 497.54 456.30 510.40 451.74 523.91 450.46 C 529.27 449.95 534.66 450.43 540.03 450.44 C 546.02 450.32 552.11 451.64 557.33 454.62 C 561.49 456.78 566.24 457.31 570.45 459.37 C 569.80 475.69 571.69 491.96 574.24 508.05 C 576.30 520.02 579.98 531.74 580.46 543.95 C 581.40 566.05 577.66 587.97 576.61 610.01 C 575.90 621.99 575.16 634.00 575.27 646.01 C 575.45 653.38 577.17 660.57 578.39 667.81 C 568.60 672.89 557.47 669.98 547.03 669.80 C 534.10 669.67 521.15 669.50 508.27 670.83 C 502.18 671.19 496.03 671.75 489.95 671.07 C 485.73 670.78 483.61 666.58 482.15 663.16 C 479.33 655.09 479.01 646.45 478.20 638.02 C 476.64 620.98 476.22 603.83 473.82 586.87 C 472.04 576.39 470.42 565.85 467.84 555.53 C 475.28 547.05 484.41 540.32 492.37 532.38 C 495.08 529.71 497.99 526.84 498.50 522.86 C 496.30 523.25 494.26 524.20 492.61 525.71 C 485.83 531.52 479.01 537.28 472.03 542.85 C 463.36 549.76 457.18 559.89 455.34 570.84 C 454.88 572.53 457.14 573.52 458.03 572.03 C 460.60 567.53 462.57 562.68 465.56 558.41 C 467.16 568.89 468.92 579.39 469.51 589.99 C 468.50 616.52 465.89 643.63 455.30 668.26 C 452.05 669.51 448.47 669.41 445.04 669.37 C 432.35 668.73 419.67 667.89 406.96 667.74 C 398.57 667.59 391.15 663.31 383.34 660.82 C 377.20 658.80 371.11 656.50 364.77 655.18 C 366.21 635.06 372.52 615.34 371.24 595.02 C 369.92 577.92 366.75 561.02 365.46 543.91 C 363.83 515.02 367.67 486.13 365.77 457.25 C 380.55 456.17 395.31 458.81 409.98 460.39 C 425.53 462.75 441.26 463.50 456.97 463.73 C 466.31 463.75 475.31 461.00 484.48 459.69 Z" />
		<path fill="var(--socks-color, grey)" opacity="1.00"
			d=" M 369.54 728.73 C 379.13 724.67 389.95 724.93 399.94 727.22 C 409.34 729.33 418.47 733.39 425.59 739.99 C 421.57 764.43 413.30 787.88 407.75 811.97 C 404.64 823.82 402.66 835.93 400.57 847.99 C 397.04 869.67 395.60 891.92 398.87 913.72 C 394.72 910.75 389.29 911.01 384.73 912.79 C 376.71 915.44 373.28 924.77 364.99 926.98 C 359.67 929.27 356.01 922.55 356.52 918.06 C 357.47 910.28 360.66 902.95 361.56 895.14 C 364.50 869.89 360.19 844.62 357.82 819.51 C 356.40 801.36 356.23 782.93 359.61 764.98 C 361.77 752.62 365.30 740.53 369.54 728.73 Z" />
		<path fill="var(--socks-color, grey)" opacity="1.00"
			d=" M 516.59 727.51 C 522.73 725.11 529.50 725.30 535.98 725.71 C 549.47 727.05 563.39 730.34 574.37 738.69 C 574.54 755.47 573.14 772.20 573.20 788.98 C 573.32 815.34 571.35 841.64 569.46 867.92 C 569.07 875.94 568.11 883.92 567.29 891.90 C 565.93 903.53 564.53 915.50 567.33 927.02 C 568.10 930.71 570.37 933.99 570.18 937.88 C 562.20 932.97 557.15 924.41 548.94 919.86 C 540.92 916.49 533.38 922.81 525.71 924.16 C 525.71 914.71 528.29 905.46 527.87 896.01 C 527.51 877.90 526.24 859.74 522.79 841.94 C 518.29 820.99 514.80 799.83 512.19 778.56 C 511.61 770.03 510.46 761.49 511.16 752.93 C 511.38 745.55 512.13 738.20 513.07 730.88 C 513.07 728.94 515.15 728.24 516.59 727.51 Z" />
	</g>
	<g id="#4d4d4dff">
		<path fill="#4d4d4d" opacity="1.00"
			d=" M 387.03 916.79 C 390.69 915.54 395.49 915.55 397.94 919.03 C 402.47 925.32 402.78 933.64 401.65 941.06 C 400.88 946.78 398.13 951.96 395.11 956.80 C 392.75 954.79 390.39 952.28 387.10 952.10 C 375.33 950.99 363.76 954.93 353.66 960.70 C 345.52 965.31 337.57 971.15 328.00 972.21 C 325.02 972.29 321.49 972.00 319.42 969.59 C 317.81 967.45 318.79 964.60 319.53 962.34 C 323.84 950.99 332.35 942.12 339.84 932.83 C 343.97 927.89 348.50 923.27 352.37 918.11 C 353.24 922.63 354.31 927.80 358.47 930.49 C 362.39 933.07 367.36 931.19 371.06 929.11 C 377.06 925.87 380.32 918.87 387.03 916.79 Z" />
		<path fill="#4d4d4d" opacity="1.00"
			d=" M 523.51 928.43 C 530.83 929.43 536.88 924.26 543.97 923.75 C 545.97 923.49 547.85 924.47 549.43 925.60 C 555.70 930.21 560.68 936.59 567.74 940.11 C 569.77 941.38 571.96 940.26 573.87 939.36 C 580.12 946.42 587.49 952.39 594.96 958.11 C 602.17 963.33 610.59 967.80 615.17 975.77 C 616.67 977.99 615.54 981.27 612.69 981.47 C 600.23 983.05 587.60 982.49 575.11 981.40 C 558.40 979.93 541.60 980.31 524.87 979.21 C 521.21 978.76 516.80 978.88 514.26 975.72 C 510.91 972.01 510.95 966.59 511.82 961.96 C 513.83 950.21 518.95 939.34 523.51 928.43 Z" />
		<path fill="#4d4d4d" opacity="1.00"
			d=" M 346.66 969.97 C 358.06 963.16 370.32 956.21 384.04 956.54 C 387.53 956.04 390.36 958.26 392.97 960.22 C 389.68 964.73 386.07 969.51 380.72 971.65 C 376.26 973.07 371.56 971.77 367.13 970.84 C 360.42 969.31 353.47 969.22 346.66 969.97 Z" />
	</g>
</svg>