<?xml version="1.0" encoding="UTF-8" ?>
<!DOCTYPE svg PUBLIC "-//W3C//DTD SVG 1.1//EN" "http://www.w3.org/Graphics/SVG/1.1/DTD/svg11.dtd">
<svg width="1000pt" height="1000pt" viewBox="0 0 1000 1000" version="1.1" xmlns="http://www.w3.org/2000/svg">
	<g id="#020202ff">
		<path fill="#020202" opacity="1.00"
			d=" M 480.05 25.22 C 494.19 19.37 510.47 18.93 524.91 24.01 C 540.70 29.53 554.22 41.49 561.23 56.71 C 562.32 58.87 562.99 61.42 565.03 62.93 C 570.66 67.50 573.94 74.11 577.91 80.02 C 582.35 87.07 588.37 92.91 594.24 98.75 C 601.51 105.26 608.82 111.98 617.65 116.32 C 626.13 121.17 635.22 124.99 643.01 130.98 C 656.64 141.34 671.56 150.07 683.95 161.99 C 686.85 164.94 690.33 168.44 689.68 172.98 C 688.82 182.34 684.26 190.83 679.86 198.97 C 670.52 215.40 661.05 232.03 648.30 246.11 C 649.04 255.43 649.76 264.85 648.63 274.17 C 648.16 276.90 647.58 280.46 644.45 281.32 C 633.09 285.66 621.53 290.99 613.64 300.62 C 607.84 307.84 601.31 315.21 599.42 324.57 C 598.54 329.13 597.05 333.60 594.58 337.56 C 592.47 341.19 589.26 344.30 588.36 348.54 C 586.80 354.99 586.91 361.74 585.07 368.14 C 583.89 372.70 581.63 376.86 579.40 380.97 C 580.25 388.34 579.81 395.80 578.72 403.12 C 577.52 411.04 573.97 418.32 571.81 425.97 C 569.67 433.18 572.19 440.58 572.64 447.84 C 573.53 461.24 574.72 474.62 574.88 488.05 C 575.20 496.96 575.01 505.89 575.66 514.78 C 575.80 517.56 576.96 520.16 578.78 522.25 C 583.91 528.23 585.54 536.38 585.83 544.05 C 586.07 549.62 582.70 554.44 582.24 559.90 C 581.67 565.84 581.88 571.83 581.31 577.77 C 578.66 609.20 570.03 639.66 563.60 670.43 C 562.21 676.75 560.22 682.93 557.95 688.99 C 557.26 691.07 555.64 692.61 554.18 694.18 C 556.36 708.47 562.35 721.81 564.98 736.00 C 566.65 748.58 565.75 761.33 565.20 773.97 C 564.30 794.32 560.51 814.37 557.76 834.52 C 555.98 845.59 555.17 856.78 553.38 867.85 C 552.19 876.88 550.62 885.99 551.60 895.12 C 551.96 900.23 553.49 905.31 552.72 910.47 C 551.66 918.75 551.06 927.26 548.20 935.16 C 544.58 944.21 532.56 947.11 524.42 942.47 C 516.52 938.03 507.69 935.67 498.66 935.14 C 500.96 943.95 502.98 952.89 503.28 962.03 C 504.05 971.19 503.48 981.27 497.92 988.97 C 492.45 994.71 483.76 992.00 476.91 991.17 C 467.77 989.26 459.06 993.90 449.97 993.62 C 440.55 993.81 430.89 990.48 424.07 983.89 C 421.24 981.06 418.75 976.17 421.50 972.51 C 424.18 970.13 428.00 969.86 431.03 968.09 C 437.10 964.72 441.53 959.21 446.26 954.27 C 449.78 950.15 454.34 946.46 455.81 941.03 C 457.11 932.78 455.88 924.33 453.42 916.42 C 447.93 898.72 440.57 881.65 435.41 863.85 C 429.84 844.71 424.76 825.04 425.45 804.93 C 426.06 786.90 424.44 768.92 422.75 750.99 C 421.88 742.70 420.76 734.36 417.91 726.48 C 412.20 725.39 411.99 718.79 410.86 714.25 C 408.18 702.95 408.38 691.14 404.86 680.02 C 401.89 668.97 396.76 658.54 394.92 647.18 C 391.82 628.51 394.57 609.60 396.53 590.97 C 398.75 572.99 399.53 554.80 403.21 537.02 C 404.67 530.78 404.02 524.28 405.33 518.01 C 406.57 512.06 408.06 506.13 408.48 500.05 C 409.76 474.97 409.42 449.79 406.81 424.80 C 405.83 410.88 403.19 396.97 404.51 382.97 C 405.47 375.23 403.57 367.55 402.70 359.89 C 400.24 347.01 397.68 333.95 391.98 322.04 C 387.51 312.48 382.26 303.32 376.89 294.25 C 370.20 283.34 362.51 273.06 356.06 261.99 C 353.35 257.11 350.67 251.73 351.27 245.98 C 351.95 236.93 355.10 228.34 357.97 219.81 C 351.23 209.44 347.90 197.35 344.13 185.70 C 341.61 177.91 339.49 169.99 337.93 161.95 C 335.77 153.13 334.00 143.63 336.93 134.78 C 338.96 128.50 344.39 124.29 349.53 120.58 C 362.45 111.57 377.01 105.29 391.58 99.47 C 400.18 96.03 409.04 93.30 418.01 91.02 C 420.81 90.15 424.24 89.61 425.69 86.71 C 430.44 78.74 436.30 71.42 443.20 65.21 C 444.82 63.95 445.39 61.93 446.10 60.10 C 451.70 44.30 464.63 31.54 480.05 25.22 M 474.01 32.54 C 473.59 34.40 473.33 36.44 471.80 37.76 C 468.35 41.28 464.93 44.86 461.22 48.10 C 460.42 48.08 458.83 48.04 458.03 48.02 C 459.47 51.14 460.85 54.30 462.09 57.51 C 468.81 57.02 475.53 56.58 482.25 56.10 C 487.80 50.32 493.67 44.84 499.75 39.62 C 499.14 34.62 498.70 29.60 498.17 24.59 C 489.68 25.55 481.40 28.24 474.01 32.54 M 532.02 48.95 C 533.63 56.80 535.23 64.65 536.54 72.56 C 540.69 75.44 544.72 78.48 548.79 81.48 C 554.25 80.82 558.65 84.43 562.78 87.42 C 562.64 84.66 563.34 81.62 561.68 79.18 C 558.91 74.26 557.46 68.31 559.05 62.76 C 555.93 54.20 550.74 46.48 544.17 40.18 C 540.10 43.08 536.04 45.98 532.02 48.95 M 484.34 57.49 C 486.88 65.40 489.49 73.30 491.77 81.29 C 500.05 83.07 508.29 85.03 516.35 87.68 C 521.88 82.70 527.40 77.70 532.92 72.71 C 531.52 65.01 530.35 57.28 529.21 49.53 C 520.06 47.11 510.99 44.38 501.90 41.72 C 495.94 46.87 490.00 52.03 484.34 57.49 M 448.01 63.13 C 448.50 64.70 449.64 66.24 449.27 67.96 C 448.97 73.59 443.35 77.38 444.32 83.28 C 446.35 82.55 448.41 81.89 450.49 81.31 C 453.26 73.79 456.51 66.47 459.33 58.97 C 458.23 55.61 457.03 52.29 455.91 48.94 C 452.75 53.36 450.12 58.13 448.01 63.13 M 561.82 65.31 C 562.01 68.25 562.13 71.26 563.13 74.07 C 565.90 82.00 574.07 86.76 576.18 95.00 C 577.25 97.52 574.64 100.36 572.12 98.84 C 564.28 95.38 558.86 87.94 550.65 85.16 C 554.91 92.86 563.90 96.43 568.08 104.12 C 569.86 106.89 566.68 109.18 564.05 108.42 C 554.41 106.82 547.23 98.58 537.35 97.65 C 540.31 102.92 545.28 106.78 550.71 109.28 C 554.48 111.12 558.60 112.46 561.83 115.24 C 562.75 116.18 564.17 117.14 563.81 118.67 C 563.06 119.62 562.07 120.38 560.98 120.88 C 550.48 125.00 538.97 121.92 528.22 124.23 C 537.35 130.24 549.11 129.10 559.17 126.38 C 566.24 124.12 573.79 125.92 580.52 128.43 C 586.54 132.03 592.25 136.12 598.00 140.12 C 603.20 143.73 609.07 146.19 614.35 149.67 C 620.96 153.88 625.86 160.14 630.79 166.11 C 636.65 173.84 643.16 181.07 650.14 187.81 C 652.41 189.98 654.98 191.84 656.94 194.32 C 652.56 193.88 649.29 190.77 645.99 188.21 C 642.27 190.72 638.32 192.88 634.20 194.67 C 642.14 209.02 646.00 225.27 647.81 241.46 C 658.03 228.41 666.66 214.21 674.83 199.82 C 679.51 191.31 684.52 182.63 686.21 172.94 C 686.97 169.31 683.76 166.77 681.54 164.45 C 672.12 155.62 661.31 148.47 650.60 141.33 C 643.82 136.80 637.59 131.46 630.37 127.60 C 622.97 123.69 615.50 119.88 608.29 115.62 C 600.45 110.36 593.15 104.18 587.19 96.83 C 584.37 93.34 580.83 90.52 578.07 86.99 C 572.21 80.09 568.76 71.28 561.82 65.31 M 427.82 89.86 C 425.90 92.63 422.35 93.28 419.35 94.23 C 409.33 96.82 399.41 99.85 389.84 103.81 C 375.21 109.73 360.67 116.41 348.00 125.94 C 343.33 129.32 339.26 134.05 338.33 139.90 C 337.47 150.44 341.19 160.49 343.23 170.66 C 347.44 186.49 352.53 202.12 358.81 217.26 C 361.65 209.75 365.39 202.54 370.04 195.99 C 376.33 187.81 386.91 184.78 396.75 183.74 C 393.00 180.70 389.12 177.73 386.19 173.86 C 381.78 168.18 379.39 161.27 377.69 154.36 C 371.50 156.78 364.02 160.96 357.56 157.21 C 361.44 156.21 365.47 155.71 369.22 154.23 C 375.75 151.93 381.26 147.63 386.98 143.86 C 393.15 139.74 399.02 135.21 405.02 130.86 C 412.42 125.46 420.37 120.88 428.21 116.15 C 430.58 114.84 433.18 113.15 436.03 113.76 C 440.27 115.15 443.73 118.16 447.83 119.86 C 453.91 122.40 460.90 123.77 467.26 121.38 C 465.49 121.23 463.72 121.11 461.95 121.03 C 453.49 120.95 446.16 115.34 441.19 108.91 C 445.86 105.26 451.78 103.70 456.34 99.88 C 450.78 100.15 445.49 102.23 439.93 102.49 C 438.58 102.48 436.59 102.40 436.14 100.82 C 435.22 99.59 436.73 98.35 437.35 97.38 C 441.54 92.98 446.83 89.65 450.34 84.59 C 443.70 86.00 438.04 89.91 432.34 93.38 C 433.92 82.97 444.42 76.69 446.59 66.48 C 438.84 72.90 433.01 81.33 427.82 89.86 M 439.45 85.94 C 440.68 86.72 442.46 84.79 441.75 83.58 C 440.52 82.81 438.78 84.74 439.45 85.94 M 470.92 99.58 C 472.54 107.82 475.10 115.85 477.99 123.73 C 479.62 123.67 481.29 123.62 482.82 124.32 C 488.95 126.57 495.16 128.59 501.21 131.06 C 507.98 126.22 514.13 120.60 519.97 114.68 C 518.69 106.97 517.05 99.34 515.70 91.65 C 507.68 89.19 499.66 86.75 491.54 84.69 C 484.70 89.70 477.89 94.75 470.92 99.58 M 567.32 86.64 C 567.17 87.60 566.87 89.52 566.72 90.48 C 568.60 91.84 570.50 93.18 572.43 94.48 C 570.83 91.80 569.09 89.21 567.32 86.64 M 452.53 87.95 C 450.39 90.45 448.10 92.82 445.72 95.10 C 445.90 95.84 446.25 97.31 446.43 98.05 C 450.18 97.32 454.08 95.89 457.90 96.99 C 460.07 97.49 460.31 100.44 458.97 101.89 C 456.66 104.80 453.19 106.36 449.96 108.00 C 451.12 110.23 452.16 112.55 453.68 114.56 C 457.27 117.14 461.91 116.79 466.10 116.90 C 468.76 116.93 472.24 118.92 471.37 122.03 C 470.23 125.21 466.67 126.00 463.84 126.99 C 465.87 128.70 467.94 130.35 470.06 131.95 C 471.68 130.40 473.32 128.86 474.96 127.33 C 470.74 118.62 468.42 109.10 467.31 99.52 C 462.40 95.64 457.10 92.24 452.53 87.95 M 553.87 99.76 C 555.76 100.80 557.66 101.84 559.58 102.86 C 559.84 102.07 560.12 101.29 560.40 100.51 C 558.47 98.81 556.53 97.12 554.61 95.42 C 554.36 96.86 554.11 98.31 553.87 99.76 M 442.15 97.19 C 440.47 97.47 441.07 100.20 442.74 99.59 C 444.41 99.32 443.80 96.58 442.15 97.19 M 446.23 109.19 C 445.70 110.55 446.16 111.08 447.59 110.77 C 448.10 109.41 447.65 108.88 446.23 109.19 M 551.68 113.12 C 550.77 113.85 550.23 115.31 548.92 115.36 C 540.30 116.25 531.62 116.08 522.99 116.80 C 517.53 123.47 510.60 128.69 503.41 133.35 C 504.75 136.32 505.96 139.35 506.95 142.46 C 517.93 141.85 528.64 138.13 537.72 131.93 C 533.58 130.98 529.09 130.10 525.89 127.09 C 524.57 125.89 524.26 123.77 525.46 122.37 C 527.53 120.00 530.90 119.45 533.89 119.33 C 539.72 119.16 545.57 119.18 551.39 118.61 C 552.35 117.26 553.31 115.91 554.27 114.55 C 553.40 114.08 552.53 113.60 551.68 113.12 M 557.08 116.11 C 556.56 117.74 557.11 118.28 558.74 117.74 C 559.26 116.11 558.70 115.56 557.08 116.11 M 404.49 136.57 C 396.90 142.22 389.09 147.57 381.02 152.51 C 382.77 159.24 385.01 166.03 389.35 171.58 C 392.49 175.78 397.00 178.72 400.03 183.02 C 403.11 187.24 407.40 190.59 409.69 195.39 C 411.90 199.84 411.58 204.99 413.14 209.63 C 415.42 213.04 419.13 215.20 421.41 218.62 C 423.29 221.04 424.35 224.20 426.88 226.05 C 431.23 227.71 436.15 227.58 440.33 229.80 C 448.40 233.76 452.57 243.08 461.52 245.58 C 461.97 243.44 462.39 241.24 461.90 239.06 C 459.82 227.60 453.92 217.37 450.77 206.23 C 444.59 189.25 442.90 170.38 448.03 152.91 C 450.44 143.94 455.48 135.93 461.39 128.86 C 457.97 126.46 453.66 126.60 449.81 125.38 C 444.19 123.83 439.35 120.48 434.45 117.44 C 424.36 123.64 414.02 129.49 404.49 136.57 M 553.03 131.47 C 549.77 132.14 546.29 131.85 543.15 132.98 C 538.18 136.29 533.17 139.58 527.60 141.82 C 534.45 152.63 538.23 165.27 539.10 178.01 C 540.08 191.05 535.97 204.08 529.10 215.07 C 524.55 223.17 521.13 231.91 518.98 240.94 C 522.33 240.44 526.09 240.91 529.10 239.10 C 533.39 235.44 537.06 230.33 542.99 229.30 C 547.26 228.49 550.71 225.71 553.73 222.74 C 561.65 215.04 570.82 208.60 580.75 203.77 C 586.73 200.79 593.60 201.46 599.89 199.60 C 607.79 197.36 614.85 192.68 622.97 191.15 C 626.89 190.33 631.11 191.63 634.84 189.87 C 637.75 188.68 640.55 187.22 643.39 185.85 C 638.25 180.89 633.38 175.65 629.00 170.01 C 623.91 163.80 618.90 157.24 612.03 152.87 C 608.78 150.73 605.25 149.07 601.83 147.22 C 596.08 144.12 591.07 139.88 585.60 136.34 C 581.20 133.56 577.34 129.52 571.94 128.78 C 565.44 127.20 559.34 130.59 553.03 131.47 M 382.27 191.28 C 378.65 193.07 375.56 195.87 373.09 199.04 C 365.59 210.01 361.29 222.73 357.66 235.41 C 356.52 239.87 355.38 244.38 355.16 249.00 C 355.06 252.21 356.85 255.03 358.31 257.76 C 365.51 270.00 373.95 281.46 381.59 293.42 C 389.82 307.46 398.24 321.76 402.24 337.68 C 405.18 348.89 407.39 360.28 408.65 371.79 C 409.40 381.72 414.15 390.68 418.63 399.35 C 427.64 415.23 444.01 424.51 458.93 434.02 C 465.81 437.62 472.76 443.05 481.00 441.75 C 480.57 445.19 477.01 445.99 474.18 444.94 C 462.97 441.59 453.10 435.03 443.39 428.68 C 434.59 422.66 425.74 416.30 419.32 407.64 C 414.43 401.60 411.30 394.44 408.15 387.41 C 408.58 407.02 412.20 426.36 413.30 445.93 C 414.18 462.27 414.44 478.66 413.56 495.00 C 413.86 508.64 407.11 521.34 408.12 535.04 C 415.29 538.30 421.47 543.41 428.93 546.11 C 436.42 548.90 442.20 555.09 450.07 556.95 C 467.69 561.55 486.26 561.38 504.14 558.53 C 515.56 556.47 527.05 554.86 538.43 552.61 C 550.88 550.23 563.56 551.88 576.10 552.11 C 580.03 552.61 581.88 548.20 582.27 545.00 C 582.38 540.07 581.14 535.16 579.48 530.55 C 577.80 525.69 572.78 522.53 572.28 517.19 C 571.34 510.51 571.65 503.74 571.35 497.03 C 571.29 479.96 570.13 462.93 568.79 445.92 C 568.33 439.68 566.16 433.42 567.62 427.17 C 569.36 419.46 573.11 412.37 574.79 404.65 C 576.05 398.76 576.54 392.73 576.97 386.73 C 573.70 405.88 564.94 423.80 553.08 439.07 C 546.61 447.31 538.71 454.71 529.17 459.22 C 527.42 460.32 525.49 459.71 523.72 459.07 C 533.86 454.41 541.72 446.09 548.55 437.48 C 559.77 422.91 568.66 406.18 572.22 388.02 C 573.35 380.60 578.86 375.02 581.12 368.04 C 583.29 361.56 584.38 354.76 584.92 347.96 C 585.12 342.17 590.17 338.42 592.42 333.44 C 595.57 328.07 595.26 321.54 597.98 316.00 C 601.49 308.30 606.94 301.72 612.54 295.46 C 621.00 286.40 632.62 281.33 644.13 277.35 C 645.50 269.63 645.04 261.76 644.67 253.98 C 644.09 244.61 643.16 235.23 641.41 226.00 C 639.41 215.42 635.71 205.25 631.79 195.25 C 620.88 193.65 611.80 200.85 601.82 203.70 C 595.11 205.87 587.63 204.74 581.29 208.17 C 573.99 211.95 567.09 216.51 560.78 221.77 C 557.49 224.46 554.63 227.70 550.99 229.95 C 548.08 231.77 544.53 231.97 541.48 233.45 C 536.97 236.15 534.35 241.17 529.72 243.69 C 525.08 245.51 519.89 244.78 515.16 246.25 C 509.82 247.62 505.95 251.85 500.96 253.96 C 497.49 255.43 493.81 256.60 490.02 256.75 C 486.28 256.88 482.73 255.51 479.06 255.05 C 475.11 254.36 470.88 254.71 467.23 252.77 C 461.98 250.06 456.37 248.07 451.34 244.95 C 448.76 245.95 446.32 247.61 445.37 250.35 C 442.00 258.77 442.63 268.14 443.78 276.96 C 445.48 288.28 448.04 299.51 451.75 310.35 C 453.16 314.58 455.02 318.65 456.16 322.97 C 452.16 319.02 450.54 313.50 448.52 308.42 C 443.26 294.19 438.94 279.26 438.91 263.98 C 439.18 255.87 440.79 245.76 449.19 242.14 C 446.03 239.17 443.06 235.90 439.31 233.67 C 435.16 231.24 430.16 231.52 425.69 230.11 C 422.36 229.04 420.83 225.63 419.05 222.93 C 416.50 218.53 412.27 215.53 408.89 211.83 C 400.14 217.40 397.07 227.85 391.33 235.88 C 391.70 228.69 396.01 222.61 399.47 216.56 C 401.46 212.91 404.48 209.87 408.41 208.36 C 407.90 204.94 407.65 201.47 406.71 198.13 C 405.46 193.95 402.44 190.64 399.38 187.66 C 393.59 188.30 387.66 188.92 382.27 191.28 M 460.36 222.47 C 462.63 228.45 464.91 234.61 465.12 241.07 C 465.30 243.09 464.12 244.83 463.30 246.58 C 466.81 248.00 470.03 250.42 473.92 250.67 C 477.66 251.04 481.40 251.65 484.97 252.90 C 489.56 254.86 494.37 252.41 498.60 250.64 C 504.39 247.83 509.11 243.03 515.56 241.57 C 516.75 234.63 519.30 228.03 522.07 221.59 C 504.46 234.80 478.34 235.17 460.36 222.47 M 406.62 538.83 C 404.63 551.46 402.97 564.15 402.03 576.91 C 400.12 599.24 395.87 621.72 398.85 644.16 C 400.16 655.03 405.04 664.96 408.27 675.31 C 409.93 667.40 412.39 659.69 415.12 652.10 C 416.33 648.93 417.42 645.34 420.65 643.61 C 420.63 646.50 419.97 649.35 418.96 652.05 C 415.51 661.49 412.32 671.06 410.07 680.86 C 410.64 684.12 411.60 687.31 412.06 690.60 C 415.73 672.84 422.94 656.09 431.04 639.95 C 433.11 636.02 434.18 631.47 437.31 628.19 C 437.51 631.93 435.76 635.34 434.62 638.80 C 432.34 645.27 429.60 651.57 426.84 657.85 C 421.43 670.21 417.14 683.06 414.16 696.22 C 413.69 698.40 413.11 700.63 413.45 702.89 C 414.25 709.36 415.35 715.79 416.55 722.21 C 423.75 715.80 433.66 713.93 442.96 713.18 C 456.44 712.82 469.95 714.33 483.09 717.30 C 490.93 718.58 498.56 721.21 506.57 721.32 C 509.23 704.70 508.08 687.79 507.72 671.06 C 507.25 654.27 506.95 637.49 506.13 620.72 C 503.34 626.49 500.92 632.41 498.95 638.51 C 497.72 635.78 498.11 632.75 499.08 630.00 C 502.19 620.76 506.48 611.97 510.06 602.92 C 513.74 593.56 513.31 583.22 516.46 573.74 C 517.06 580.88 515.21 587.93 514.83 595.04 C 514.58 601.30 512.52 607.28 509.80 612.86 C 505.66 619.77 510.09 627.65 510.76 634.89 C 511.86 651.55 512.19 668.25 512.81 684.93 C 512.88 697.14 513.19 709.59 510.01 721.49 C 512.11 720.19 514.15 718.75 515.71 716.82 C 519.62 712.04 524.23 707.87 529.01 703.99 C 536.67 698.39 545.14 694.01 553.50 689.56 C 559.40 676.04 561.05 661.27 564.65 647.08 C 569.08 626.52 573.99 606.02 576.65 585.14 C 573.54 594.02 569.57 602.58 565.03 610.82 C 563.10 614.17 561.34 617.93 557.79 619.87 C 557.98 618.77 558.29 617.72 558.71 616.71 C 565.39 603.91 571.06 590.61 576.32 577.18 C 579.39 570.25 577.77 562.43 579.97 555.27 C 578.47 555.54 576.97 555.81 575.49 556.07 C 574.09 565.76 571.22 575.17 567.41 584.18 C 558.82 604.50 549.85 624.71 538.74 643.80 C 536.80 646.80 535.69 650.64 532.45 652.55 C 533.18 648.96 534.97 645.74 536.49 642.45 C 542.18 630.69 547.61 618.81 552.89 606.87 C 560.09 590.12 568.36 573.71 572.93 555.98 C 561.00 555.82 548.97 555.40 537.18 557.60 C 526.84 559.71 516.40 561.20 506.00 562.97 C 486.90 565.77 467.02 566.18 448.31 560.85 C 440.88 559.01 435.33 553.37 428.37 550.47 C 420.79 547.23 413.64 543.13 406.62 538.83 M 533.08 706.15 C 527.62 710.28 522.75 715.15 518.33 720.37 C 516.50 722.50 514.05 723.92 511.66 725.33 C 512.56 729.12 513.43 732.91 514.06 736.77 C 521.62 732.52 530.27 729.89 539.00 730.32 C 545.93 730.63 552.75 732.11 559.49 733.70 C 556.69 720.85 551.22 708.54 550.68 695.26 C 544.72 698.74 538.75 702.21 533.08 706.15 M 420.44 723.30 C 422.11 726.15 423.50 729.18 424.21 732.43 C 426.37 741.82 427.01 751.46 428.00 761.02 C 429.27 774.40 430.82 787.82 430.32 801.29 C 433.60 798.73 437.16 796.52 440.99 794.89 C 453.56 789.31 467.74 786.48 481.40 789.01 C 482.33 766.76 488.35 745.06 489.40 722.83 C 480.66 721.22 471.99 719.00 463.11 718.27 C 448.83 716.93 433.47 716.31 420.44 723.30 M 485.97 787.01 C 485.86 788.96 486.48 790.86 487.21 792.65 C 490.67 800.81 491.18 809.77 492.21 818.47 C 494.37 838.26 492.55 858.17 492.79 878.02 C 492.76 889.06 492.19 900.23 494.47 911.11 C 498.52 908.74 502.13 905.68 504.95 901.92 C 506.78 899.35 509.44 897.61 512.37 896.51 C 511.98 878.62 515.08 860.82 513.88 842.94 C 513.37 834.33 510.40 826.17 508.30 817.88 C 505.36 807.18 503.48 796.02 504.43 784.91 C 505.28 772.43 509.84 760.51 510.00 747.95 C 510.73 740.35 509.09 732.86 507.60 725.46 C 502.36 725.40 497.16 724.67 492.08 723.41 C 492.62 744.79 487.23 765.75 485.97 787.01 M 514.48 740.22 C 514.64 749.15 514.04 758.14 512.07 766.88 C 510.86 772.16 509.80 777.50 509.25 782.90 C 507.88 793.97 509.45 805.20 512.46 815.87 C 514.78 825.16 518.42 834.24 518.73 843.92 C 519.40 861.86 517.20 879.73 516.10 897.60 C 523.36 900.81 530.75 896.56 538.13 897.00 C 543.72 897.41 545.33 903.68 549.23 906.70 C 548.69 903.51 547.87 900.38 547.49 897.18 C 545.21 881.34 549.52 865.65 551.14 849.98 C 554.09 823.32 559.42 796.90 560.22 770.03 C 560.59 759.51 561.22 748.95 560.22 738.45 C 553.26 736.53 546.14 734.96 538.91 734.59 C 530.41 734.09 522.18 736.92 514.48 740.22 M 430.35 806.57 C 430.18 827.12 435.70 847.12 441.58 866.63 C 446.98 884.23 454.47 901.17 459.00 919.05 C 461.16 926.87 460.94 935.10 459.60 943.05 C 462.19 943.91 466.17 946.37 468.13 943.24 C 472.19 936.81 476.00 928.88 484.04 926.81 C 487.86 925.53 491.23 928.13 494.14 930.21 C 493.28 923.78 491.73 917.48 490.34 911.15 C 488.16 901.26 488.58 891.07 488.58 881.02 C 488.22 861.32 490.13 841.60 488.23 821.94 C 487.31 813.08 486.61 804.09 483.88 795.56 C 476.75 793.55 469.21 793.38 461.91 794.43 C 450.74 796.15 439.34 799.46 430.35 806.57 M 507.25 906.28 C 504.00 910.10 499.82 912.92 495.42 915.26 C 496.60 920.59 497.56 925.98 498.13 931.43 C 504.68 931.19 511.28 932.20 517.34 934.75 C 521.73 936.46 525.59 939.36 530.12 940.75 C 536.26 942.65 543.82 939.05 545.47 932.66 C 547.29 925.12 548.10 917.36 548.46 909.63 C 545.75 907.67 543.31 905.40 540.83 903.17 C 537.90 900.10 533.46 902.41 529.93 902.91 C 524.59 904.58 519.01 903.84 513.69 902.57 C 510.82 901.69 509.05 904.63 507.25 906.28 M 481.81 931.81 C 476.09 935.28 474.29 942.19 469.90 946.87 C 466.62 949.81 462.01 947.54 458.37 946.62 C 452.17 954.24 445.81 961.85 438.37 968.31 C 434.27 971.94 428.93 973.45 423.73 974.73 C 424.41 976.73 425.07 978.86 426.70 980.33 C 433.06 986.54 442.23 989.26 451.00 988.85 C 458.44 988.68 465.48 985.23 472.98 985.88 C 479.39 986.20 485.59 989.01 492.06 988.18 C 496.76 986.08 497.84 980.31 498.76 975.77 C 500.16 963.62 497.73 951.45 495.67 939.52 C 495.16 935.43 491.60 932.67 488.26 930.78 C 486.16 929.53 483.69 930.69 481.81 931.81 Z" />
		<path fill="#020202" opacity="1.00"
			d=" M 552.88 251.92 C 552.21 247.44 550.36 242.97 551.46 238.40 C 555.36 244.30 557.04 251.30 558.37 258.16 C 561.77 276.03 559.07 294.32 555.91 312.01 C 554.85 310.55 553.68 308.99 553.93 307.07 C 554.48 288.71 556.01 270.14 552.88 251.92 Z" />
		<path fill="#020202" opacity="1.00"
			d=" M 538.72 241.85 C 541.89 246.27 542.84 251.72 543.92 256.93 C 545.78 265.92 544.72 275.16 543.55 284.16 C 542.17 294.53 539.66 304.77 535.70 314.47 C 534.01 318.36 532.80 323.14 528.53 325.02 C 534.70 311.45 537.43 296.68 539.47 282.01 C 540.49 274.01 541.54 265.91 540.54 257.86 C 540.01 252.51 538.60 247.25 538.72 241.85 Z" />
		<path fill="#020202" opacity="1.00"
			d=" M 388.04 267.03 C 387.55 265.08 388.21 263.16 388.78 261.32 C 392.75 271.33 395.43 281.79 398.90 291.98 C 401.73 300.38 405.87 308.29 408.38 316.81 C 412.60 329.94 414.74 343.91 421.93 355.90 C 419.60 355.80 417.54 354.63 416.48 352.52 C 410.74 342.72 408.75 331.35 405.23 320.67 C 402.33 310.47 397.35 301.02 394.09 290.95 C 391.63 283.10 389.33 275.16 388.04 267.03 Z" />
		<path fill="#020202" opacity="1.00"
			d=" M 561.91 383.00 C 564.06 378.72 565.25 374.05 567.24 369.70 C 568.90 374.07 567.33 378.65 565.78 382.80 C 557.99 402.52 540.98 419.19 519.93 423.79 C 518.57 424.15 517.42 423.08 516.23 422.67 C 521.85 419.78 527.78 417.49 533.19 414.18 C 545.66 407.04 555.58 395.85 561.91 383.00 Z" />
		<path fill="#020202" opacity="1.00"
			d=" M 429.71 456.49 C 432.81 458.54 433.90 462.25 435.76 465.28 C 439.39 471.45 443.99 476.98 448.24 482.74 C 453.58 489.66 458.78 496.83 465.38 502.63 C 476.62 512.16 492.76 513.14 503.48 523.44 C 505.41 525.01 506.76 527.15 507.50 529.53 C 502.83 527.84 499.41 524.07 495.05 521.83 C 485.75 517.12 475.26 515.08 466.38 509.51 C 460.23 505.94 455.56 500.45 451.07 495.06 C 445.38 487.94 440.10 480.48 435.33 472.71 C 432.57 467.72 429.64 462.34 429.71 456.49 Z" />
		<path fill="#020202" opacity="1.00"
			d=" M 466.59 759.96 C 467.95 760.25 469.63 760.13 470.55 761.40 C 473.72 765.16 475.39 770.10 475.73 774.98 C 475.73 778.15 475.39 782.52 471.78 783.66 C 472.19 775.42 469.92 767.42 466.59 759.96 Z" />
	</g>
	<g id="#ffffffff">
		<path fill="#ffffff" opacity="1.00"
			d=" M 474.01 32.54 C 481.40 28.24 489.68 25.55 498.17 24.59 C 498.70 29.60 499.14 34.62 499.75 39.62 C 493.67 44.84 487.80 50.32 482.25 56.10 C 475.53 56.58 468.81 57.02 462.09 57.51 C 460.85 54.30 459.47 51.14 458.03 48.02 C 458.83 48.04 460.42 48.08 461.22 48.10 C 464.93 44.86 468.35 41.28 471.80 37.76 C 473.33 36.44 473.59 34.40 474.01 32.54 Z" />
		<path fill="#ffffff" opacity="1.00"
			d=" M 532.02 48.95 C 536.04 45.98 540.10 43.08 544.17 40.18 C 550.74 46.48 555.93 54.20 559.05 62.76 C 557.46 68.31 558.91 74.26 561.68 79.18 C 563.34 81.62 562.64 84.66 562.78 87.42 C 558.65 84.43 554.25 80.82 548.79 81.48 C 544.72 78.48 540.69 75.44 536.54 72.56 C 535.23 64.65 533.63 56.80 532.02 48.95 Z" />
		<path fill="#ffffff" opacity="1.00"
			d=" M 484.34 57.49 C 490.00 52.03 495.94 46.87 501.90 41.72 C 510.99 44.38 520.06 47.11 529.21 49.53 C 530.35 57.28 531.52 65.01 532.92 72.71 C 527.40 77.70 521.88 82.70 516.35 87.68 C 508.29 85.03 500.05 83.07 491.77 81.29 C 489.49 73.30 486.88 65.40 484.34 57.49 Z" />
		<path fill="#ffffff" opacity="1.00"
			d=" M 448.01 63.13 C 450.12 58.13 452.75 53.36 455.91 48.94 C 457.03 52.29 458.23 55.61 459.33 58.97 C 456.51 66.47 453.26 73.79 450.49 81.31 C 448.41 81.89 446.35 82.55 444.32 83.28 C 443.35 77.38 448.97 73.59 449.27 67.96 C 449.64 66.24 448.50 64.70 448.01 63.13 Z" />
		<path fill="#ffffff" opacity="1.00"
			d=" M 470.92 99.58 C 477.89 94.75 484.70 89.70 491.54 84.69 C 499.66 86.75 507.68 89.19 515.70 91.65 C 517.05 99.34 518.69 106.97 519.97 114.68 C 514.13 120.60 507.98 126.22 501.21 131.06 C 495.16 128.59 488.95 126.57 482.82 124.32 C 481.29 123.62 479.62 123.67 477.99 123.73 C 475.10 115.85 472.54 107.82 470.92 99.58 Z" />
		<path fill="#ffffff" opacity="1.00"
			d=" M 452.53 87.95 C 457.10 92.24 462.40 95.64 467.31 99.52 C 468.42 109.10 470.74 118.62 474.96 127.33 C 473.32 128.86 471.68 130.40 470.06 131.95 C 467.94 130.35 465.87 128.70 463.84 126.99 C 466.67 126.00 470.23 125.21 471.37 122.03 C 472.24 118.92 468.76 116.93 466.10 116.90 C 461.91 116.79 457.27 117.14 453.68 114.56 C 452.16 112.55 451.12 110.23 449.96 108.00 C 453.19 106.36 456.66 104.80 458.97 101.89 C 460.31 100.44 460.07 97.49 457.90 96.99 C 454.08 95.89 450.18 97.32 446.43 98.05 C 446.25 97.31 445.90 95.84 445.72 95.10 C 448.10 92.82 450.39 90.45 452.53 87.95 Z" />
		<path fill="#ffffff" opacity="1.00"
			d=" M 553.87 99.76 C 554.11 98.31 554.36 96.86 554.61 95.42 C 556.53 97.12 558.47 98.81 560.40 100.51 C 560.12 101.29 559.84 102.07 559.58 102.86 C 557.66 101.84 555.76 100.80 553.87 99.76 Z" />
		<path fill="#ffffff" opacity="1.00"
			d=" M 551.68 113.12 C 552.53 113.60 553.40 114.08 554.27 114.55 C 553.31 115.91 552.35 117.26 551.39 118.61 C 545.57 119.18 539.72 119.16 533.89 119.33 C 530.90 119.45 527.53 120.00 525.46 122.37 C 524.26 123.77 524.57 125.89 525.89 127.09 C 529.09 130.10 533.58 130.98 537.72 131.93 C 528.64 138.13 517.93 141.85 506.95 142.46 C 505.96 139.35 504.75 136.32 503.41 133.35 C 510.60 128.69 517.53 123.47 522.99 116.80 C 531.62 116.08 540.30 116.25 548.92 115.36 C 550.23 115.31 550.77 113.85 551.68 113.12 Z" />
		<path fill="var(--pants-color, grey)" opacity="1.00"
			d=" M 406.62 538.83 C 413.64 543.13 420.79 547.23 428.37 550.47 C 435.33 553.37 440.88 559.01 448.31 560.85 C 467.02 566.18 486.90 565.77 506.00 562.97 C 516.40 561.20 526.84 559.71 537.18 557.60 C 548.97 555.40 561.00 555.82 572.93 555.98 C 568.36 573.71 560.09 590.12 552.89 606.87 C 547.61 618.81 542.18 630.69 536.49 642.45 C 534.97 645.74 533.18 648.96 532.45 652.55 C 535.69 650.64 536.80 646.80 538.74 643.80 C 549.85 624.71 558.82 604.50 567.41 584.18 C 571.22 575.17 574.09 565.76 575.49 556.07 C 576.97 555.81 578.47 555.54 579.97 555.27 C 577.77 562.43 579.39 570.25 576.32 577.18 C 571.06 590.61 565.39 603.91 558.71 616.71 C 558.29 617.72 557.98 618.77 557.79 619.87 C 561.34 617.93 563.10 614.17 565.03 610.82 C 569.57 602.58 573.54 594.02 576.65 585.14 C 573.99 606.02 569.08 626.52 564.65 647.08 C 561.05 661.27 559.40 676.04 553.50 689.56 C 545.14 694.01 536.67 698.39 529.01 703.99 C 524.23 707.87 519.62 712.04 515.71 716.82 C 514.15 718.75 512.11 720.19 510.01 721.49 C 513.19 709.59 512.88 697.14 512.81 684.93 C 512.19 668.25 511.86 651.55 510.76 634.89 C 510.09 627.65 505.66 619.77 509.80 612.86 C 512.52 607.28 514.58 601.30 514.83 595.04 C 515.21 587.93 517.06 580.88 516.46 573.74 C 513.31 583.22 513.74 593.56 510.06 602.92 C 506.48 611.97 502.19 620.76 499.08 630.00 C 498.11 632.75 497.72 635.78 498.95 638.51 C 500.92 632.41 503.34 626.49 506.13 620.72 C 506.95 637.49 507.25 654.27 507.72 671.06 C 508.08 687.79 509.23 704.70 506.57 721.32 C 498.56 721.21 490.93 718.58 483.09 717.30 C 469.95 714.33 456.44 712.82 442.96 713.18 C 433.66 713.93 423.75 715.80 416.55 722.21 C 415.35 715.79 414.25 709.36 413.45 702.89 C 413.11 700.63 413.69 698.40 414.16 696.22 C 417.14 683.06 421.43 670.21 426.84 657.85 C 429.60 651.57 432.34 645.27 434.62 638.80 C 435.76 635.34 437.51 631.93 437.31 628.19 C 434.18 631.47 433.11 636.02 431.04 639.95 C 422.94 656.09 415.73 672.84 412.06 690.60 C 411.60 687.31 410.64 684.12 410.07 680.86 C 412.32 671.06 415.51 661.49 418.96 652.05 C 419.97 649.35 420.63 646.50 420.65 643.61 C 417.42 645.34 416.33 648.93 415.12 652.10 C 412.39 659.69 409.93 667.40 408.27 675.31 C 405.04 664.96 400.16 655.03 398.85 644.16 C 395.87 621.72 400.12 599.24 402.03 576.91 C 402.97 564.15 404.63 551.46 406.62 538.83 Z" />
		<path fill="var(--socks-color, grey)" opacity="1.00"
			d=" M 514.48 740.22 C 522.18 736.92 530.41 734.09 538.91 734.59 C 546.14 734.96 553.26 736.53 560.22 738.45 C 561.22 748.95 560.59 759.51 560.22 770.03 C 559.42 796.90 554.09 823.32 551.14 849.98 C 549.52 865.65 545.21 881.34 547.49 897.18 C 547.87 900.38 548.69 903.51 549.23 906.70 C 545.33 903.68 543.72 897.41 538.13 897.00 C 530.75 896.56 523.36 900.81 516.10 897.60 C 517.20 879.73 519.40 861.86 518.73 843.92 C 518.42 834.24 514.78 825.16 512.46 815.87 C 509.45 805.20 507.88 793.97 509.25 782.90 C 509.80 777.50 510.86 772.16 512.07 766.88 C 514.04 758.14 514.64 749.15 514.48 740.22 Z" />
		<path fill="var(--socks-color, grey)" opacity="1.00"
			d=" M 430.35 806.57 C 439.34 799.46 450.74 796.15 461.91 794.43 C 469.21 793.38 476.75 793.55 483.88 795.56 C 486.61 804.09 487.31 813.08 488.23 821.94 C 490.13 841.60 488.22 861.32 488.58 881.02 C 488.58 891.07 488.16 901.26 490.34 911.15 C 491.73 917.48 493.28 923.78 494.14 930.21 C 491.23 928.13 487.86 925.53 484.04 926.81 C 476.00 928.88 472.19 936.81 468.13 943.24 C 466.17 946.37 462.19 943.91 459.60 943.05 C 460.94 935.10 461.16 926.87 459.00 919.05 C 454.47 901.17 446.98 884.23 441.58 866.63 C 435.70 847.12 430.18 827.12 430.35 806.57 Z" />
	</g>
	<g id="#f0b58bff">
		<path fill="#f0b58b" opacity="1.00"
			d=" M 561.82 65.31 C 568.76 71.28 572.21 80.09 578.07 86.99 C 580.83 90.52 584.37 93.34 587.19 96.83 C 593.15 104.18 600.45 110.36 608.29 115.62 C 615.50 119.88 622.97 123.69 630.37 127.60 C 637.59 131.46 643.82 136.80 650.60 141.33 C 661.31 148.47 672.12 155.62 681.54 164.45 C 683.76 166.77 686.97 169.31 686.21 172.94 C 684.52 182.63 679.51 191.31 674.83 199.82 C 666.66 214.21 658.03 228.41 647.81 241.46 C 646.00 225.27 642.14 209.02 634.20 194.67 C 638.32 192.88 642.27 190.72 645.99 188.21 C 649.29 190.77 652.56 193.88 656.94 194.32 C 654.98 191.84 652.41 189.98 650.14 187.81 C 643.16 181.07 636.65 173.84 630.79 166.11 C 625.86 160.14 620.96 153.88 614.35 149.67 C 609.07 146.19 603.20 143.73 598.00 140.12 C 592.25 136.12 586.54 132.03 580.52 128.43 C 573.79 125.92 566.24 124.12 559.17 126.38 C 549.11 129.10 537.35 130.24 528.22 124.23 C 538.97 121.92 550.48 125.00 560.98 120.88 C 562.07 120.38 563.06 119.62 563.81 118.67 C 564.17 117.14 562.75 116.18 561.83 115.24 C 558.60 112.46 554.48 111.12 550.71 109.28 C 545.28 106.78 540.31 102.92 537.35 97.65 C 547.23 98.58 554.41 106.82 564.05 108.42 C 566.68 109.18 569.86 106.89 568.08 104.12 C 563.90 96.43 554.91 92.86 550.65 85.16 C 558.86 87.94 564.28 95.38 572.12 98.84 C 574.64 100.36 577.25 97.52 576.18 95.00 C 574.07 86.76 565.90 82.00 563.13 74.07 C 562.13 71.26 562.01 68.25 561.82 65.31 Z" />
		<path fill="#f0b58b" opacity="1.00"
			d=" M 427.82 89.86 C 433.01 81.33 438.84 72.90 446.59 66.48 C 444.42 76.69 433.92 82.97 432.34 93.38 C 438.04 89.91 443.70 86.00 450.34 84.59 C 446.83 89.65 441.54 92.98 437.35 97.38 C 436.73 98.35 435.22 99.59 436.14 100.82 C 436.59 102.40 438.58 102.48 439.93 102.49 C 445.49 102.23 450.78 100.15 456.34 99.88 C 451.78 103.70 445.86 105.26 441.19 108.91 C 446.16 115.34 453.49 120.95 461.95 121.03 C 463.72 121.11 465.49 121.23 467.26 121.38 C 460.90 123.77 453.91 122.40 447.83 119.86 C 443.73 118.16 440.27 115.15 436.03 113.76 C 433.18 113.15 430.58 114.84 428.21 116.15 C 420.37 120.88 412.42 125.46 405.02 130.86 C 399.02 135.21 393.15 139.74 386.98 143.86 C 381.26 147.63 375.75 151.93 369.22 154.23 C 365.47 155.71 361.44 156.21 357.56 157.21 C 364.02 160.96 371.50 156.78 377.69 154.36 C 379.39 161.27 381.78 168.18 386.19 173.86 C 389.12 177.73 393.00 180.70 396.75 183.74 C 386.91 184.78 376.33 187.81 370.04 195.99 C 365.39 202.54 361.65 209.75 358.81 217.26 C 352.53 202.12 347.44 186.49 343.23 170.66 C 341.19 160.49 337.47 150.44 338.33 139.90 C 339.26 134.05 343.33 129.32 348.00 125.94 C 360.67 116.41 375.21 109.73 389.84 103.81 C 399.41 99.85 409.33 96.82 419.35 94.23 C 422.35 93.28 425.90 92.63 427.82 89.86 Z" />
		<path fill="#f0b58b" opacity="1.00"
			d=" M 460.36 222.47 C 478.34 235.17 504.46 234.80 522.07 221.59 C 519.30 228.03 516.75 234.63 515.56 241.57 C 509.11 243.03 504.39 247.83 498.60 250.64 C 494.37 252.41 489.56 254.86 484.97 252.90 C 481.40 251.65 477.66 251.04 473.92 250.67 C 470.03 250.42 466.81 248.00 463.30 246.58 C 464.12 244.83 465.30 243.09 465.12 241.07 C 464.91 234.61 462.63 228.45 460.36 222.47 Z" />
		<path fill="#f0b58b" opacity="1.00"
			d=" M 533.08 706.15 C 538.75 702.21 544.72 698.74 550.68 695.26 C 551.22 708.54 556.69 720.85 559.49 733.70 C 552.75 732.11 545.93 730.63 539.00 730.32 C 530.27 729.89 521.62 732.52 514.06 736.77 C 513.43 732.91 512.56 729.12 511.66 725.33 C 514.05 723.92 516.50 722.50 518.33 720.37 C 522.75 715.15 527.62 710.28 533.08 706.15 Z" />
		<path fill="#f0b58b" opacity="1.00"
			d=" M 420.44 723.30 C 433.47 716.31 448.83 716.93 463.11 718.27 C 471.99 719.00 480.66 721.22 489.40 722.83 C 488.35 745.06 482.33 766.76 481.40 789.01 C 467.74 786.48 453.56 789.31 440.99 794.89 C 437.16 796.52 433.60 798.73 430.32 801.29 C 430.82 787.82 429.27 774.40 428.00 761.02 C 427.01 751.46 426.37 741.82 424.21 732.43 C 423.50 729.18 422.11 726.15 420.44 723.30 M 466.59 759.96 C 469.92 767.42 472.19 775.42 471.78 783.66 C 475.39 782.52 475.73 778.15 475.73 774.98 C 475.39 770.10 473.72 765.16 470.55 761.40 C 469.63 760.13 467.95 760.25 466.59 759.96 Z" />
	</g>
	<g id="#f11b27ff">
		<path fill="var(--shirt-color, grey)" opacity="1.00"
			d=" M 382.27 191.28 C 387.66 188.92 393.59 188.30 399.38 187.66 C 402.44 190.64 405.46 193.95 406.71 198.13 C 407.65 201.47 407.90 204.94 408.41 208.36 C 404.48 209.87 401.46 212.91 399.47 216.56 C 396.01 222.61 391.70 228.69 391.33 235.88 C 397.07 227.85 400.14 217.40 408.89 211.83 C 412.27 215.53 416.50 218.53 419.05 222.93 C 420.83 225.63 422.36 229.04 425.69 230.11 C 430.16 231.52 435.16 231.24 439.31 233.67 C 443.06 235.90 446.03 239.17 449.19 242.14 C 440.79 245.76 439.18 255.87 438.91 263.98 C 438.94 279.26 443.26 294.19 448.52 308.42 C 450.54 313.50 452.16 319.02 456.16 322.97 C 455.02 318.65 453.16 314.58 451.75 310.35 C 448.04 299.51 445.48 288.28 443.78 276.96 C 442.63 268.14 442.00 258.77 445.37 250.35 C 446.32 247.61 448.76 245.95 451.34 244.95 C 456.37 248.07 461.98 250.06 467.23 252.77 C 470.88 254.71 475.11 254.36 479.06 255.05 C 482.73 255.51 486.28 256.88 490.02 256.75 C 493.81 256.60 497.49 255.43 500.96 253.96 C 505.95 251.85 509.82 247.62 515.16 246.25 C 519.89 244.78 525.08 245.51 529.72 243.69 C 534.35 241.17 536.97 236.15 541.48 233.45 C 544.53 231.97 548.08 231.77 550.99 229.95 C 554.63 227.70 557.49 224.46 560.78 221.77 C 567.09 216.51 573.99 211.95 581.29 208.17 C 587.63 204.74 595.11 205.87 601.82 203.70 C 611.80 200.85 620.88 193.65 631.79 195.25 C 635.71 205.25 639.41 215.42 641.41 226.00 C 643.16 235.23 644.09 244.61 644.67 253.98 C 645.04 261.76 645.50 269.63 644.13 277.35 C 632.62 281.33 621.00 286.40 612.54 295.46 C 606.94 301.72 601.49 308.30 597.98 316.00 C 595.26 321.54 595.57 328.07 592.42 333.44 C 590.17 338.42 585.12 342.17 584.92 347.96 C 584.38 354.76 583.29 361.56 581.12 368.04 C 578.86 375.02 573.35 380.60 572.22 388.02 C 568.66 406.18 559.77 422.91 548.55 437.48 C 541.72 446.09 533.86 454.41 523.72 459.07 C 525.49 459.71 527.42 460.32 529.17 459.22 C 538.71 454.71 546.61 447.31 553.08 439.07 C 564.94 423.80 573.70 405.88 576.97 386.73 C 576.54 392.73 576.05 398.76 574.79 404.65 C 573.11 412.37 569.36 419.46 567.62 427.17 C 566.16 433.42 568.33 439.68 568.79 445.92 C 570.13 462.93 571.29 479.96 571.35 497.03 C 571.65 503.74 571.34 510.51 572.28 517.19 C 572.78 522.53 577.80 525.69 579.48 530.55 C 581.14 535.16 582.38 540.07 582.27 545.00 C 581.88 548.20 580.03 552.61 576.10 552.11 C 563.56 551.88 550.88 550.23 538.43 552.61 C 527.05 554.86 515.56 556.47 504.14 558.53 C 486.26 561.38 467.69 561.55 450.07 556.95 C 442.20 555.09 436.42 548.90 428.93 546.11 C 421.47 543.41 415.29 538.30 408.12 535.04 C 407.11 521.34 413.86 508.64 413.56 495.00 C 414.44 478.66 414.18 462.27 413.30 445.93 C 412.20 426.36 408.58 407.02 408.15 387.41 C 411.30 394.44 414.43 401.60 419.32 407.64 C 425.74 416.30 434.59 422.66 443.39 428.68 C 453.10 435.03 462.97 441.59 474.18 444.94 C 477.01 445.99 480.57 445.19 481.00 441.75 C 472.76 443.05 465.81 437.62 458.93 434.02 C 444.01 424.51 427.64 415.23 418.63 399.35 C 414.15 390.68 409.40 381.72 408.65 371.79 C 407.39 360.28 405.18 348.89 402.24 337.68 C 398.24 321.76 389.82 307.46 381.59 293.42 C 373.95 281.46 365.51 270.00 358.31 257.76 C 356.85 255.03 355.06 252.21 355.16 249.00 C 355.38 244.38 356.52 239.87 357.66 235.41 C 361.29 222.73 365.59 210.01 373.09 199.04 C 375.56 195.87 378.65 193.07 382.27 191.28 M 552.88 251.92 C 556.01 270.14 554.48 288.71 553.93 307.07 C 553.68 308.99 554.85 310.55 555.91 312.01 C 559.07 294.32 561.77 276.03 558.37 258.16 C 557.04 251.30 555.36 244.30 551.46 238.40 C 550.36 242.97 552.21 247.44 552.88 251.92 M 538.72 241.85 C 538.60 247.25 540.01 252.51 540.54 257.86 C 541.54 265.91 540.49 274.01 539.47 282.01 C 537.43 296.68 534.70 311.45 528.53 325.02 C 532.80 323.14 534.01 318.36 535.70 314.47 C 539.66 304.77 542.17 294.53 543.55 284.16 C 544.72 275.16 545.78 265.92 543.92 256.93 C 542.84 251.72 541.89 246.27 538.72 241.85 M 388.04 267.03 C 389.33 275.16 391.63 283.10 394.09 290.95 C 397.35 301.02 402.33 310.47 405.23 320.67 C 408.75 331.35 410.74 342.72 416.48 352.52 C 417.54 354.63 419.60 355.80 421.93 355.90 C 414.74 343.91 412.60 329.94 408.38 316.81 C 405.87 308.29 401.73 300.38 398.90 291.98 C 395.43 281.79 392.75 271.33 388.78 261.32 C 388.21 263.16 387.55 265.08 388.04 267.03 M 561.91 383.00 C 555.58 395.85 545.66 407.04 533.19 414.18 C 527.78 417.49 521.85 419.78 516.23 422.67 C 517.42 423.08 518.57 424.15 519.93 423.79 C 540.98 419.19 557.99 402.52 565.78 382.80 C 567.33 378.65 568.90 374.07 567.24 369.70 C 565.25 374.05 564.06 378.72 561.91 383.00 M 429.71 456.49 C 429.64 462.34 432.57 467.72 435.33 472.71 C 440.10 480.48 445.38 487.94 451.07 495.06 C 455.56 500.45 460.23 505.94 466.38 509.51 C 475.26 515.08 485.75 517.12 495.05 521.83 C 499.41 524.07 502.83 527.84 507.50 529.53 C 506.76 527.15 505.41 525.01 503.48 523.44 C 492.76 513.14 476.62 512.16 465.38 502.63 C 458.78 496.83 453.58 489.66 448.24 482.74 C 443.99 476.98 439.39 471.45 435.76 465.28 C 433.90 462.25 432.81 458.54 429.71 456.49 Z" />
	</g>
	<g id="#4d4d4dff">
		<path fill="#4d4d4d" opacity="1.00"
			d=" M 507.25 906.28 C 509.05 904.63 510.82 901.69 513.69 902.57 C 519.01 903.84 524.59 904.58 529.93 902.91 C 533.46 902.41 537.90 900.10 540.83 903.17 C 543.31 905.40 545.75 907.67 548.46 909.63 C 548.10 917.36 547.29 925.12 545.47 932.66 C 543.82 939.05 536.26 942.65 530.12 940.75 C 525.59 939.36 521.73 936.46 517.34 934.75 C 511.28 932.20 504.68 931.19 498.13 931.43 C 497.56 925.98 496.60 920.59 495.42 915.26 C 499.82 912.92 504.00 910.10 507.25 906.28 Z" />
		<path fill="#4d4d4d" opacity="1.00"
			d=" M 481.81 931.81 C 483.69 930.69 486.16 929.53 488.26 930.78 C 491.60 932.67 495.16 935.43 495.67 939.52 C 497.73 951.45 500.16 963.62 498.76 975.77 C 497.84 980.31 496.76 986.08 492.06 988.18 C 485.59 989.01 479.39 986.20 472.98 985.88 C 465.48 985.23 458.44 988.68 451.00 988.85 C 442.23 989.26 433.06 986.54 426.70 980.33 C 425.07 978.86 424.41 976.73 423.73 974.73 C 428.93 973.45 434.27 971.94 438.37 968.31 C 445.81 961.85 452.17 954.24 458.37 946.62 C 462.01 947.54 466.62 949.81 469.90 946.87 C 474.29 942.19 476.09 935.28 481.81 931.81 Z" />
	</g>
</svg>