<?xml version="1.0" encoding="UTF-8" ?>
<!DOCTYPE svg PUBLIC "-//W3C//DTD SVG 1.1//EN" "http://www.w3.org/Graphics/SVG/1.1/DTD/svg11.dtd">
<svg width="1000pt" height="1000pt" viewBox="0 0 1000 1000" version="1.1" xmlns="http://www.w3.org/2000/svg">
	<g id="#020202ff">
		<path fill="#020202" opacity="1.00"
			d=" M 482.42 32.43 C 492.90 21.69 507.82 14.75 523.02 15.97 C 538.28 16.81 552.37 25.41 561.48 37.47 C 581.70 64.09 580.15 104.88 557.68 129.71 C 551.85 135.65 547.50 143.01 544.95 150.91 C 543.48 155.63 542.91 160.67 543.99 165.53 C 554.07 169.84 563.38 175.69 572.82 181.21 C 585.44 188.55 598.93 195.21 608.84 206.24 C 619.89 220.27 624.87 237.70 632.39 253.64 C 637.55 264.66 638.58 276.98 639.07 288.97 C 639.51 303.33 639.04 317.74 637.40 332.02 C 636.89 335.21 636.98 338.97 634.16 341.13 C 633.52 340.81 632.25 340.16 631.61 339.84 C 632.94 353.11 632.24 366.64 635.59 379.65 C 637.74 388.64 642.24 396.89 643.97 406.00 C 647.43 423.13 647.34 440.70 648.39 458.07 C 649.35 477.85 652.07 497.50 655.43 517.00 C 658.13 528.21 660.19 539.58 663.22 550.71 C 667.25 567.68 670.18 584.88 673.93 601.91 C 676.04 614.46 677.28 627.27 676.16 640.00 C 675.88 642.55 675.47 645.70 672.95 647.06 C 668.73 647.94 666.53 643.15 664.86 640.11 C 661.63 632.26 658.53 624.35 655.62 616.37 C 651.92 606.94 648.00 597.38 641.37 589.57 C 629.34 574.16 627.32 553.87 626.53 535.01 C 626.30 516.09 620.88 497.78 615.44 479.82 C 612.30 470.45 609.21 461.07 606.12 451.69 C 601.44 438.38 596.41 425.16 592.56 411.58 C 587.23 391.01 582.98 369.98 582.68 348.66 C 581.34 349.35 579.99 350.01 578.65 350.67 C 576.03 346.95 575.36 342.38 574.48 338.03 C 573.36 331.84 572.33 325.63 570.84 319.52 C 565.64 327.93 559.44 336.04 556.78 345.72 C 555.25 351.02 556.21 356.63 558.24 361.66 C 560.76 368.12 561.43 375.12 561.09 382.01 C 560.72 385.48 562.95 388.44 563.46 391.79 C 564.98 400.12 564.17 408.65 565.11 417.05 C 565.94 426.67 574.61 433.70 574.51 443.56 C 577.87 446.00 580.30 449.43 581.78 453.29 C 588.23 469.15 591.67 486.37 600.94 501.00 C 604.67 507.50 609.97 513.07 612.79 520.10 C 615.26 526.13 616.47 532.58 618.04 538.88 C 620.61 549.19 621.11 560.22 626.37 569.69 C 629.03 575.12 633.30 579.49 636.60 584.51 C 642.42 594.35 643.49 605.96 645.32 617.01 C 647.25 629.75 650.29 642.30 652.53 654.99 C 654.37 663.75 655.53 672.74 658.88 681.11 C 664.46 693.38 670.21 705.58 676.31 717.60 C 682.19 730.48 687.32 743.68 692.10 757.00 C 699.34 779.14 700.73 802.55 703.23 825.55 C 704.31 838.08 706.79 850.44 708.19 862.93 C 709.88 872.08 710.97 881.52 714.87 890.06 C 716.18 893.27 719.45 894.90 721.74 897.31 C 733.93 909.81 748.08 920.28 759.61 933.45 C 763.52 938.13 766.70 944.36 765.32 950.62 C 764.71 954.38 760.70 956.08 757.56 957.37 C 748.42 960.51 739.29 955.31 730.05 955.97 C 721.67 955.83 715.23 962.42 707.03 963.14 C 698.41 964.03 689.39 962.98 681.41 959.52 C 672.24 955.29 668.09 944.60 668.45 935.00 C 668.87 922.36 669.61 909.59 667.03 897.11 C 664.65 887.14 665.42 876.69 662.45 866.84 C 659.48 856.00 653.85 846.20 648.54 836.39 C 639.61 821.09 630.72 805.73 623.47 789.54 C 616.37 774.51 611.82 758.43 608.44 742.20 C 606.38 732.36 605.36 722.31 602.66 712.62 C 600.38 704.56 598.15 696.37 593.96 689.06 C 586.18 675.09 575.14 663.32 563.82 652.17 C 550.64 639.30 535.93 628.11 523.13 614.83 C 506.07 597.09 489.02 579.04 476.03 558.00 C 473.52 553.07 467.86 551.65 462.88 550.67 C 459.18 549.96 454.73 548.69 451.62 551.58 C 445.26 557.06 442.25 565.31 440.28 573.24 C 438.39 583.06 436.36 592.96 436.58 603.01 C 436.46 607.43 436.45 612.73 432.88 615.92 C 427.88 619.17 421.54 619.64 415.78 618.69 C 411.16 617.92 405.90 617.98 402.06 621.04 C 397.96 624.40 394.76 628.79 392.57 633.61 C 387.98 643.50 384.22 653.75 379.68 663.66 C 370.73 683.52 365.08 704.64 360.57 725.90 C 355.13 746.99 350.98 768.92 339.85 787.95 C 331.88 800.68 319.43 810.54 313.90 824.77 C 308.60 841.44 307.81 859.15 303.23 876.00 C 301.17 890.67 304.96 905.78 301.17 920.30 C 299.03 928.18 292.16 933.76 284.93 936.90 C 279.27 939.38 272.95 937.65 267.33 935.93 C 257.71 932.88 249.72 926.39 240.46 922.52 C 232.19 918.57 222.53 918.26 214.71 913.27 C 210.44 910.55 206.70 906.22 206.18 901.03 C 205.98 894.54 210.60 889.12 215.82 885.84 C 228.20 877.98 242.87 873.81 254.03 864.01 C 255.97 862.59 256.33 860.12 257.16 858.04 C 259.02 852.45 262.87 847.73 264.26 841.97 C 266.16 834.77 266.83 827.32 267.49 819.93 C 268.71 805.86 270.55 791.86 272.19 777.84 C 273.35 760.39 273.33 742.55 278.80 725.74 C 282.57 714.34 288.50 703.81 294.48 693.45 C 298.20 686.80 301.60 679.99 305.24 673.31 C 307.73 668.40 310.83 663.72 312.23 658.35 C 316.55 642.11 318.95 625.43 323.06 609.14 C 326.27 595.34 328.70 581.18 328.03 566.96 C 327.79 560.58 324.48 554.54 325.54 548.09 C 327.21 537.91 330.49 528.09 332.77 518.04 C 335.53 508.11 337.88 498.05 341.13 488.26 C 343.92 479.32 346.86 470.25 347.15 460.81 C 344.28 456.73 343.68 451.52 344.86 446.74 C 345.72 441.98 348.33 437.75 349.17 433.00 C 349.01 429.94 347.59 427.11 347.34 424.06 C 346.73 418.82 348.65 413.71 351.24 409.25 C 356.59 400.08 363.49 391.87 368.45 382.46 C 371.02 377.56 368.07 372.15 367.99 367.03 C 367.53 357.79 371.70 349.24 374.39 340.62 C 376.33 334.96 375.54 328.89 375.83 323.02 C 376.15 315.69 376.76 308.33 378.39 301.16 C 379.20 297.36 380.93 293.81 381.59 289.97 C 381.20 289.45 380.40 288.41 380.00 287.89 C 371.58 301.32 363.52 315.16 358.19 330.16 C 353.93 343.58 349.49 356.98 343.80 369.88 C 338.96 380.89 332.14 390.82 326.26 401.26 C 316.83 419.51 304.17 435.95 295.86 454.80 C 293.54 459.87 293.34 465.52 292.52 470.95 C 291.30 480.01 290.02 489.39 285.37 497.43 C 284.36 499.52 282.60 501.47 282.82 503.94 C 283.02 511.82 281.80 519.64 280.57 527.40 C 279.76 532.36 278.08 537.17 275.38 541.43 C 278.10 543.35 280.96 545.35 282.56 548.37 C 284.88 552.41 284.97 557.42 283.17 561.67 C 276.95 560.29 271.91 556.08 265.89 554.20 C 261.75 552.95 256.90 553.60 253.35 550.75 C 248.01 546.42 244.77 540.04 242.68 533.61 C 240.26 526.06 238.84 518.02 239.64 510.09 C 241.94 494.88 251.37 482.25 257.38 468.43 C 263.95 454.66 268.72 440.02 271.33 424.99 C 273.49 413.17 276.35 401.50 278.83 389.75 C 281.01 379.28 281.25 368.47 284.25 358.17 C 287.05 348.60 292.85 340.35 298.05 331.98 C 304.42 322.42 311.22 313.17 317.53 303.58 C 324.42 293.62 330.82 282.28 330.20 269.76 C 325.95 270.07 321.71 270.76 317.44 270.51 C 317.30 267.23 319.80 265.00 321.51 262.53 C 326.97 254.80 331.54 246.49 336.24 238.27 C 344.72 224.06 353.34 209.76 364.52 197.46 C 373.15 187.31 384.06 179.45 395.16 172.23 C 407.11 164.59 421.12 161.22 434.96 158.99 C 449.18 156.76 463.88 158.21 477.82 154.13 C 481.18 140.99 476.49 127.40 470.15 115.94 C 456.79 89.17 461.34 53.99 482.42 32.43 M 482.38 133.15 C 484.24 139.64 484.56 146.51 483.32 153.14 C 502.31 151.37 521.59 155.45 538.91 163.26 C 538.13 155.86 539.79 148.44 542.88 141.74 C 533.29 147.17 521.87 149.41 510.96 147.71 C 500.17 146.13 490.20 140.64 482.38 133.15 M 467.04 161.92 C 456.72 163.20 446.26 162.86 435.96 164.40 C 420.57 166.82 404.94 170.89 392.20 180.24 C 388.89 182.88 385.78 185.76 382.52 188.45 C 364.66 203.06 352.18 222.82 340.13 242.19 C 335.20 250.36 330.13 258.49 323.96 265.79 C 337.38 263.17 351.28 265.32 364.01 269.96 C 371.28 272.60 377.47 277.42 382.97 282.75 C 383.20 269.30 378.67 256.48 375.44 243.60 C 376.87 243.19 378.50 243.09 379.16 244.74 C 383.13 252.05 385.30 260.21 387.08 268.29 C 386.96 256.18 389.56 244.15 394.08 232.94 C 394.77 231.03 396.09 229.30 398.34 229.31 C 397.40 234.35 395.44 239.12 394.37 244.13 C 391.37 255.83 391.90 268.01 390.39 279.91 C 389.10 290.16 384.57 299.68 383.27 309.93 C 382.18 317.24 381.71 324.62 381.55 332.00 C 381.54 343.19 374.78 352.94 373.82 363.98 C 373.58 367.56 374.31 371.11 374.83 374.64 C 383.16 361.45 390.04 347.24 393.81 332.03 C 394.55 329.15 394.96 326.03 397.01 323.73 C 398.33 327.08 397.43 330.68 396.90 334.10 C 395.39 341.87 392.86 349.44 389.82 356.74 C 385.04 366.94 379.10 376.55 372.99 385.99 C 368.96 392.87 364.43 399.43 359.88 405.96 C 357.20 410.04 354.32 414.18 353.14 418.99 C 352.06 423.15 353.50 427.33 354.73 431.28 C 359.44 430.86 363.65 428.62 367.97 426.90 C 374.45 424.23 380.76 421.17 386.95 417.88 C 403.39 409.32 419.86 400.63 437.40 394.50 C 441.47 393.19 445.80 391.47 450.09 392.88 C 447.58 394.77 444.67 395.94 441.74 396.96 C 414.44 407.24 390.11 424.09 362.46 433.53 C 359.90 434.52 357.15 434.79 354.43 434.72 C 352.43 441.57 348.71 448.19 349.50 455.56 C 357.76 451.89 365.33 446.69 374.09 444.10 C 391.24 439.23 409.31 438.81 426.99 439.79 C 447.31 440.94 466.68 448.21 486.95 449.66 C 504.91 450.90 522.61 446.96 540.15 443.69 C 550.68 441.60 561.67 439.91 572.28 442.44 C 569.35 434.91 563.19 429.06 560.80 421.28 C 558.40 411.40 560.11 401.02 557.75 391.13 C 556.82 387.03 553.48 384.20 551.01 381.02 C 543.62 371.76 536.20 362.52 528.56 353.47 C 518.36 341.74 508.61 329.48 501.16 315.78 C 500.05 313.87 499.53 311.71 499.55 309.51 C 502.89 313.91 505.44 318.84 508.78 323.24 C 514.85 332.03 522.58 339.46 529.72 347.35 C 539.75 358.05 548.46 369.86 557.96 381.01 C 557.46 374.54 556.41 368.06 553.84 362.07 C 551.12 355.75 550.73 348.53 553.02 342.01 C 556.51 331.78 563.08 323.02 568.89 314.03 C 566.81 310.87 564.27 308.06 561.51 305.49 C 550.44 294.54 537.39 285.94 524.52 277.31 C 523.16 276.22 521.04 275.24 521.33 273.17 C 523.37 271.85 525.50 273.70 527.37 274.54 C 540.25 282.29 553.16 290.37 563.92 301.00 C 568.16 305.30 572.41 310.07 573.99 316.06 C 576.61 325.85 577.37 336.00 579.11 345.97 C 586.61 338.87 594.90 331.97 604.91 328.85 C 614.52 325.92 623.96 330.76 632.98 333.54 C 634.21 322.07 634.69 310.53 634.81 299.00 C 634.64 287.31 634.42 275.48 631.57 264.09 C 629.35 256.25 625.35 249.09 622.51 241.47 C 618.43 232.14 615.75 221.92 609.04 214.00 C 598.18 200.17 581.75 192.82 567.02 184.00 C 554.25 176.22 540.93 169.27 526.89 164.10 C 515.08 159.93 502.52 158.05 490.02 158.11 C 482.17 158.07 474.76 161.00 467.04 161.92 M 333.44 269.76 C 335.43 283.62 327.47 296.11 320.03 307.05 C 310.31 321.96 298.82 335.77 290.71 351.70 C 284.53 364.18 285.02 378.42 282.37 391.80 C 279.86 403.89 277.04 415.92 274.91 428.09 C 271.41 447.62 263.75 466.12 254.50 483.58 C 249.77 492.84 244.61 502.36 243.88 512.94 C 243.95 521.97 245.83 531.09 249.85 539.21 C 251.71 542.50 253.76 546.00 257.07 548.02 C 260.42 549.43 264.24 548.95 267.63 550.25 C 272.50 552.15 276.83 555.13 281.13 558.05 C 280.81 555.34 280.52 552.45 278.75 550.24 C 275.15 545.28 267.78 544.71 264.90 539.08 C 262.48 534.07 260.94 528.50 260.83 522.93 C 261.64 516.14 267.57 511.71 272.01 507.09 C 278.43 501.73 283.08 494.36 285.13 486.25 C 287.35 477.95 287.92 469.35 289.37 460.91 C 290.41 454.61 293.54 448.96 296.35 443.31 C 304.41 428.04 314.45 413.93 322.80 398.82 C 329.46 387.66 336.31 376.55 341.31 364.52 C 345.94 353.09 350.00 341.44 353.73 329.69 C 357.19 319.47 362.15 309.83 367.49 300.47 C 370.50 295.30 373.65 290.18 377.60 285.67 C 372.39 280.36 366.13 275.96 358.94 273.81 C 350.67 271.36 342.09 269.68 333.44 269.76 M 586.75 345.54 C 587.12 357.33 588.06 369.11 590.05 380.74 C 591.30 387.65 592.09 394.94 595.93 401.01 C 598.71 405.43 601.79 409.74 605.48 413.45 C 608.52 416.60 613.09 417.37 616.29 420.29 C 615.73 420.46 614.60 420.79 614.03 420.96 C 606.24 420.77 600.28 414.93 596.16 408.85 C 600.82 426.97 608.42 444.13 613.99 461.96 C 620.81 481.78 627.57 501.87 630.11 522.77 C 631.78 541.20 631.05 560.62 639.30 577.70 C 642.38 584.91 648.25 590.38 651.82 597.31 C 657.39 607.70 660.85 619.00 665.22 629.91 C 666.95 634.59 668.33 639.56 671.63 643.45 C 673.79 630.31 671.96 616.88 670.10 603.80 C 667.77 592.88 665.62 581.92 663.12 571.04 C 658.82 549.61 652.07 528.69 649.16 506.98 C 645.45 484.82 643.73 462.40 642.68 439.97 C 641.88 427.74 641.27 415.40 638.26 403.47 C 636.71 397.13 633.75 391.26 632.06 384.97 C 627.65 369.88 628.73 353.98 628.28 338.45 C 621.37 336.52 614.30 333.29 606.98 334.81 C 599.39 336.46 592.97 341.15 586.75 345.54 M 367.09 453.15 C 361.72 455.30 357.08 458.97 351.57 460.82 C 351.47 473.65 346.56 485.69 343.11 497.87 C 339.14 512.92 335.21 527.98 331.52 543.11 C 330.30 547.26 332.07 551.43 333.65 555.22 C 342.46 575.75 360.17 591.07 379.43 601.61 C 392.05 608.18 405.69 613.49 420.01 614.58 C 423.50 614.69 427.25 614.25 430.21 612.26 C 431.92 609.51 431.78 606.10 431.89 602.98 C 431.67 591.06 434.33 579.33 436.90 567.76 C 439.58 559.77 443.11 551.23 450.33 546.30 C 454.88 543.16 460.57 544.92 465.46 546.19 C 470.19 547.74 475.55 549.19 478.60 553.48 C 482.09 558.29 485.15 563.42 488.80 568.14 C 497.99 581.09 509.04 592.56 519.75 604.23 C 529.09 614.32 539.30 623.54 549.63 632.58 C 551.76 627.41 556.24 623.79 560.83 620.85 C 569.63 615.26 579.39 611.39 589.29 608.21 C 604.92 603.45 621.24 600.03 637.65 600.64 C 635.88 595.03 634.43 589.09 630.63 584.43 C 626.86 579.72 623.12 574.90 620.58 569.39 C 616.10 560.16 615.42 549.78 613.01 539.95 C 610.92 531.61 609.51 522.77 604.47 515.58 C 599.26 508.28 594.22 500.77 590.70 492.49 C 586.24 481.93 583.40 470.79 579.86 459.91 C 578.29 455.15 576.70 450.20 573.25 446.43 C 561.98 446.01 550.69 447.12 539.75 449.91 C 523.07 453.44 506.11 456.86 488.97 456.09 C 475.58 455.45 462.54 452.13 449.53 449.18 C 436.57 446.23 423.25 445.07 409.97 445.24 C 395.43 445.63 380.42 446.82 367.09 453.15 M 267.06 519.04 C 265.26 521.31 265.21 524.34 265.91 527.04 C 267.00 531.72 267.98 537.02 272.14 540.04 C 277.01 529.85 276.94 518.29 278.20 507.30 C 274.34 511.06 270.28 514.69 267.06 519.04 M 333.08 565.73 C 333.88 582.41 330.98 598.97 327.08 615.13 C 324.31 627.00 322.59 639.09 319.69 650.93 C 320.83 653.15 322.17 655.32 324.18 656.86 C 329.71 661.33 336.05 664.69 342.47 667.70 C 351.04 671.47 359.98 674.75 369.36 675.73 C 372.05 668.73 375.09 661.87 378.11 655.02 C 381.78 646.69 384.89 638.11 389.02 629.98 C 391.84 624.39 395.98 619.44 401.15 615.86 C 373.39 608.36 347.90 590.61 333.08 565.73 M 606.45 608.82 C 592.70 611.78 579.10 615.99 566.66 622.64 C 561.19 625.73 555.47 629.27 552.52 635.07 C 561.81 643.22 570.68 651.85 579.07 660.93 C 591.16 674.12 601.81 689.30 606.09 706.93 C 617.75 692.52 636.33 684.11 654.74 683.70 C 652.28 677.36 650.67 670.74 649.46 664.07 C 645.73 644.56 641.47 625.15 638.64 605.48 C 627.83 605.45 617.02 606.53 606.45 608.82 M 318.21 657.28 C 317.28 661.33 315.86 665.28 313.86 668.94 C 307.70 680.66 301.40 692.30 294.81 703.79 C 291.41 709.32 288.49 715.14 286.07 721.17 C 278.84 739.25 279.37 759.01 277.68 778.09 C 276.54 789.06 275.13 800.00 274.25 810.99 C 272.87 823.48 272.94 836.45 268.17 848.28 C 264.50 855.46 259.48 862.62 259.88 871.07 C 259.86 874.70 263.80 876.65 267.00 876.48 C 273.59 876.37 278.89 871.81 285.20 870.54 C 290.16 869.64 295.63 869.89 299.91 872.82 C 301.05 869.30 302.42 865.81 302.82 862.10 C 303.88 853.20 305.29 844.35 306.76 835.51 C 307.98 828.48 309.70 821.39 313.37 815.19 C 317.58 808.00 322.94 801.58 328.11 795.08 C 340.81 780.50 345.89 761.30 350.76 743.03 C 356.35 722.75 359.78 701.85 367.11 682.07 C 356.78 680.80 346.96 676.90 337.76 672.18 C 330.50 668.35 323.24 663.91 318.21 657.28 M 607.33 711.06 C 611.06 725.18 612.22 739.84 616.03 753.95 C 622.75 782.71 637.71 808.52 652.36 833.84 C 658.99 846.01 665.97 858.37 668.37 872.21 C 669.92 880.87 669.50 889.81 671.83 898.35 C 672.72 899.77 674.54 899.36 675.94 899.19 C 681.33 898.24 686.41 895.38 692.04 895.94 C 698.19 896.23 704.08 900.10 710.31 898.18 C 712.70 897.78 712.51 894.83 711.61 893.20 C 706.96 883.75 705.63 873.19 703.78 862.96 C 702.47 851.24 700.11 839.67 699.00 827.94 C 696.89 809.70 695.61 791.29 691.79 773.30 C 689.00 759.83 683.61 747.13 678.53 734.41 C 672.34 718.63 663.71 703.98 657.06 688.40 C 638.24 687.87 619.47 696.79 607.33 711.06 M 218.42 889.48 C 213.46 892.21 209.01 898.83 212.68 904.28 C 217.77 912.35 228.24 912.74 236.48 915.38 C 250.22 919.19 260.88 929.96 274.98 932.79 C 279.25 934.01 284.02 933.27 287.57 930.55 C 291.83 927.19 295.71 922.74 296.54 917.19 C 298.56 905.61 296.65 893.83 297.71 882.18 C 297.71 880.55 298.36 878.33 296.48 877.50 C 292.03 874.69 286.24 875.73 281.59 877.52 C 275.91 879.97 269.57 882.43 263.36 880.38 C 258.44 879.12 255.29 874.47 254.83 869.57 C 243.96 878.33 230.47 882.72 218.42 889.48 M 716.90 897.04 C 715.84 899.12 714.76 901.52 712.39 902.39 C 706.66 904.92 700.55 902.65 694.91 901.14 C 687.36 898.98 680.41 904.42 672.82 903.63 C 674.40 914.34 673.42 925.19 673.05 935.96 C 672.86 944.08 676.65 953.22 684.67 956.32 C 695.01 960.07 707.32 961.17 717.06 955.15 C 725.52 950.06 735.80 951.25 744.99 953.34 C 750.98 954.82 757.58 953.98 762.59 950.23 C 761.68 944.52 759.14 939.08 755.18 934.86 C 742.97 921.70 728.71 910.59 716.90 897.04 Z" />
		<path fill="#020202" opacity="1.00"
			d=" M 345.61 315.32 L 345.98 314.52 C 346.51 314.57 347.55 314.66 348.07 314.70 C 350.74 324.75 341.85 335.43 331.92 336.59 C 328.87 336.72 323.86 336.15 323.55 332.33 C 327.70 332.58 332.33 333.93 335.98 331.09 C 341.74 327.77 343.86 321.30 345.61 315.32 Z" />
		<path fill="#020202" opacity="1.00"
			d=" M 454.74 344.77 C 457.76 341.63 461.25 338.83 465.21 336.99 C 466.63 336.15 469.85 336.25 468.63 338.63 C 464.95 342.59 459.27 344.83 457.13 350.12 C 455.89 352.53 457.52 355.08 459.52 356.44 C 463.94 359.59 469.33 360.83 474.40 362.55 C 485.81 366.13 495.85 372.80 506.05 378.86 C 509.05 381.08 513.52 382.82 513.99 387.03 C 510.12 385.91 506.97 383.29 503.42 381.51 C 492.31 375.58 481.39 368.94 469.16 365.56 C 463.45 363.65 457.00 361.85 453.31 356.73 C 450.60 353.08 451.73 347.87 454.74 344.77 Z" />
		<path fill="#020202" opacity="1.00"
			d=" M 375.32 640.90 L 376.06 640.22 C 376.56 640.33 377.57 640.57 378.07 640.68 C 378.24 644.20 375.73 647.11 373.82 649.83 C 369.45 655.05 365.01 660.27 359.93 664.82 C 359.02 665.38 356.97 667.62 356.38 665.63 C 356.47 663.52 358.25 662.03 359.37 660.39 C 364.72 653.92 369.56 647.01 375.32 640.90 Z" />
		<path fill="#020202" opacity="1.00"
			d=" M 610.40 652.13 C 612.29 652.41 613.57 653.87 614.79 655.20 C 621.23 662.41 628.09 669.25 635.37 675.61 C 637.30 677.33 639.39 678.94 640.88 681.10 L 640.23 682.13 C 635.42 681.79 632.17 677.31 628.50 674.60 C 622.45 669.30 616.63 663.63 612.10 656.95 C 611.08 655.53 610.68 653.80 610.40 652.13 Z" />
	</g>
	<g id="#f0b58bff">
		<path fill="#f0b58b" opacity="1.00"
			d=" M 482.38 133.15 C 490.20 140.64 500.17 146.13 510.96 147.71 C 521.87 149.41 533.29 147.17 542.88 141.74 C 539.79 148.44 538.13 155.86 538.91 163.26 C 521.59 155.45 502.31 151.37 483.32 153.14 C 484.56 146.51 484.24 139.64 482.38 133.15 Z" />
		<path fill="#f0b58b" opacity="1.00"
			d=" M 333.44 269.76 C 342.09 269.68 350.67 271.36 358.94 273.81 C 366.13 275.96 372.39 280.36 377.60 285.67 C 373.65 290.18 370.50 295.30 367.49 300.47 C 362.15 309.83 357.19 319.47 353.73 329.69 C 350.00 341.44 345.94 353.09 341.31 364.52 C 336.31 376.55 329.46 387.66 322.80 398.82 C 314.45 413.93 304.41 428.04 296.35 443.31 C 293.54 448.96 290.41 454.61 289.37 460.91 C 287.92 469.35 287.35 477.95 285.13 486.25 C 283.08 494.36 278.43 501.73 272.01 507.09 C 267.57 511.71 261.64 516.14 260.83 522.93 C 260.94 528.50 262.48 534.07 264.90 539.08 C 267.78 544.71 275.15 545.28 278.75 550.24 C 280.52 552.45 280.81 555.34 281.13 558.05 C 276.83 555.13 272.50 552.15 267.63 550.25 C 264.24 548.95 260.42 549.43 257.07 548.02 C 253.76 546.00 251.71 542.50 249.85 539.21 C 245.83 531.09 243.95 521.97 243.88 512.94 C 244.61 502.36 249.77 492.84 254.50 483.58 C 263.75 466.12 271.41 447.62 274.91 428.09 C 277.04 415.92 279.86 403.89 282.37 391.80 C 285.02 378.42 284.53 364.18 290.71 351.70 C 298.82 335.77 310.31 321.96 320.03 307.05 C 327.47 296.11 335.43 283.62 333.44 269.76 M 345.61 315.32 C 343.86 321.30 341.74 327.77 335.98 331.09 C 332.33 333.93 327.70 332.58 323.55 332.33 C 323.86 336.15 328.87 336.72 331.92 336.59 C 341.85 335.43 350.74 324.75 348.07 314.70 C 347.55 314.66 346.51 314.57 345.98 314.52 L 345.61 315.32 Z" />
		<path fill="#f0b58b" opacity="1.00"
			d=" M 586.75 345.54 C 592.97 341.15 599.39 336.46 606.98 334.81 C 614.30 333.29 621.37 336.52 628.28 338.45 C 628.73 353.98 627.65 369.88 632.06 384.97 C 633.75 391.26 636.71 397.13 638.26 403.47 C 641.27 415.40 641.88 427.74 642.68 439.97 C 643.73 462.40 645.45 484.82 649.16 506.98 C 652.07 528.69 658.82 549.61 663.12 571.04 C 665.62 581.92 667.77 592.88 670.10 603.80 C 671.96 616.88 673.79 630.31 671.63 643.45 C 668.33 639.56 666.95 634.59 665.22 629.91 C 660.85 619.00 657.39 607.70 651.82 597.31 C 648.25 590.38 642.38 584.91 639.30 577.70 C 631.05 560.62 631.78 541.20 630.11 522.77 C 627.57 501.87 620.81 481.78 613.99 461.96 C 608.42 444.13 600.82 426.97 596.16 408.85 C 600.28 414.93 606.24 420.77 614.03 420.96 C 614.60 420.79 615.73 420.46 616.29 420.29 C 613.09 417.37 608.52 416.60 605.48 413.45 C 601.79 409.74 598.71 405.43 595.93 401.01 C 592.09 394.94 591.30 387.65 590.05 380.74 C 588.06 369.11 587.12 357.33 586.75 345.54 Z" />
		<path fill="#f0b58b" opacity="1.00"
			d=" M 267.06 519.04 C 270.28 514.69 274.34 511.06 278.20 507.30 C 276.94 518.29 277.01 529.85 272.14 540.04 C 267.98 537.02 267.00 531.72 265.91 527.04 C 265.21 524.34 265.26 521.31 267.06 519.04 Z" />
		<path fill="#f0b58b" opacity="1.00"
			d=" M 333.08 565.73 C 347.90 590.61 373.39 608.36 401.15 615.86 C 395.98 619.44 391.84 624.39 389.02 629.98 C 384.89 638.11 381.78 646.69 378.11 655.02 C 375.09 661.87 372.05 668.73 369.36 675.73 C 359.98 674.75 351.04 671.47 342.47 667.70 C 336.05 664.69 329.71 661.33 324.18 656.86 C 322.17 655.32 320.83 653.15 319.69 650.93 C 322.59 639.09 324.31 627.00 327.08 615.13 C 330.98 598.97 333.88 582.41 333.08 565.73 M 375.32 640.90 C 369.56 647.01 364.72 653.92 359.37 660.39 C 358.25 662.03 356.47 663.52 356.38 665.63 C 356.97 667.62 359.02 665.38 359.93 664.82 C 365.01 660.27 369.45 655.05 373.82 649.83 C 375.73 647.11 378.24 644.20 378.07 640.68 C 377.57 640.57 376.56 640.33 376.06 640.22 L 375.32 640.90 Z" />
		<path fill="#f0b58b" opacity="1.00"
			d=" M 606.45 608.82 C 617.02 606.53 627.83 605.45 638.64 605.48 C 641.47 625.15 645.73 644.56 649.46 664.07 C 650.67 670.74 652.28 677.36 654.74 683.70 C 636.33 684.11 617.75 692.52 606.09 706.93 C 601.81 689.30 591.16 674.12 579.07 660.93 C 570.68 651.85 561.81 643.22 552.52 635.07 C 555.47 629.27 561.19 625.73 566.66 622.64 C 579.10 615.99 592.70 611.78 606.45 608.82 M 610.40 652.13 C 610.68 653.80 611.08 655.53 612.10 656.95 C 616.63 663.63 622.45 669.30 628.50 674.60 C 632.17 677.31 635.42 681.79 640.23 682.13 L 640.88 681.10 C 639.39 678.94 637.30 677.33 635.37 675.61 C 628.09 669.25 621.23 662.41 614.79 655.20 C 613.57 653.87 612.29 652.41 610.40 652.13 Z" />
	</g>
	<g id="#f11b27ff">
		<path fill="var(--shirt-color, grey)" opacity="1.00"
			d=" M 467.04 161.92 C 474.76 161.00 482.17 158.07 490.02 158.11 C 502.52 158.05 515.08 159.93 526.89 164.10 C 540.93 169.27 554.25 176.22 567.02 184.00 C 581.75 192.82 598.18 200.17 609.04 214.00 C 615.75 221.92 618.43 232.14 622.51 241.47 C 625.35 249.09 629.35 256.25 631.57 264.09 C 634.42 275.48 634.64 287.31 634.81 299.00 C 634.69 310.53 634.21 322.07 632.98 333.54 C 623.96 330.76 614.52 325.92 604.91 328.85 C 594.90 331.97 586.61 338.87 579.11 345.97 C 577.37 336.00 576.61 325.85 573.99 316.06 C 572.41 310.07 568.16 305.30 563.92 301.00 C 553.16 290.37 540.25 282.29 527.37 274.54 C 525.50 273.70 523.37 271.85 521.33 273.17 C 521.04 275.24 523.16 276.22 524.52 277.31 C 537.39 285.94 550.44 294.54 561.51 305.49 C 564.27 308.06 566.81 310.87 568.89 314.03 C 563.08 323.02 556.51 331.78 553.02 342.01 C 550.73 348.53 551.12 355.75 553.84 362.07 C 556.41 368.06 557.46 374.54 557.96 381.01 C 548.46 369.86 539.75 358.05 529.72 347.35 C 522.58 339.46 514.85 332.03 508.78 323.24 C 505.44 318.84 502.89 313.91 499.55 309.51 C 499.53 311.71 500.05 313.87 501.16 315.78 C 508.61 329.48 518.36 341.74 528.56 353.47 C 536.20 362.52 543.62 371.76 551.01 381.02 C 553.48 384.20 556.82 387.03 557.75 391.13 C 560.11 401.02 558.40 411.40 560.80 421.28 C 563.19 429.06 569.35 434.91 572.28 442.44 C 561.67 439.91 550.68 441.60 540.15 443.69 C 522.61 446.96 504.91 450.90 486.95 449.66 C 466.68 448.21 447.31 440.94 426.99 439.79 C 409.31 438.81 391.24 439.23 374.09 444.10 C 365.33 446.69 357.76 451.89 349.50 455.56 C 348.71 448.19 352.43 441.57 354.43 434.72 C 357.15 434.79 359.90 434.52 362.46 433.53 C 390.11 424.09 414.44 407.24 441.74 396.96 C 444.67 395.94 447.58 394.77 450.09 392.88 C 445.80 391.47 441.47 393.19 437.40 394.50 C 419.86 400.63 403.39 409.32 386.95 417.88 C 380.76 421.17 374.45 424.23 367.97 426.90 C 363.65 428.62 359.44 430.86 354.73 431.28 C 353.50 427.33 352.06 423.15 353.14 418.99 C 354.32 414.18 357.20 410.04 359.88 405.96 C 364.43 399.43 368.96 392.87 372.99 385.99 C 379.10 376.55 385.04 366.94 389.82 356.74 C 392.86 349.44 395.39 341.87 396.90 334.10 C 397.43 330.68 398.33 327.08 397.01 323.73 C 394.96 326.03 394.55 329.15 393.81 332.03 C 390.04 347.24 383.16 361.45 374.83 374.64 C 374.31 371.11 373.58 367.56 373.82 363.98 C 374.78 352.94 381.54 343.19 381.55 332.00 C 381.71 324.62 382.18 317.24 383.27 309.93 C 384.57 299.68 389.10 290.16 390.39 279.91 C 391.90 268.01 391.37 255.83 394.37 244.13 C 395.44 239.12 397.40 234.35 398.34 229.31 C 396.09 229.30 394.77 231.03 394.08 232.94 C 389.56 244.15 386.96 256.18 387.08 268.29 C 385.30 260.21 383.13 252.05 379.16 244.74 C 378.50 243.09 376.87 243.19 375.44 243.60 C 378.67 256.48 383.20 269.30 382.97 282.75 C 377.47 277.42 371.28 272.60 364.01 269.96 C 351.28 265.32 337.38 263.17 323.96 265.79 C 330.13 258.49 335.20 250.36 340.13 242.19 C 352.18 222.82 364.66 203.06 382.52 188.45 C 385.78 185.76 388.89 182.88 392.20 180.24 C 404.94 170.89 420.57 166.82 435.96 164.40 C 446.26 162.86 456.72 163.20 467.04 161.92 M 454.74 344.77 C 451.73 347.87 450.60 353.08 453.31 356.73 C 457.00 361.85 463.45 363.65 469.16 365.56 C 481.39 368.94 492.31 375.58 503.42 381.51 C 506.97 383.29 510.12 385.91 513.99 387.03 C 513.52 382.82 509.05 381.08 506.05 378.86 C 495.85 372.80 485.81 366.13 474.40 362.55 C 469.33 360.83 463.94 359.59 459.52 356.44 C 457.52 355.08 455.89 352.53 457.13 350.12 C 459.27 344.83 464.95 342.59 468.63 338.63 C 469.85 336.25 466.63 336.15 465.21 336.99 C 461.25 338.83 457.76 341.63 454.74 344.77 Z" />
	</g>
	<g id="#ffffffff">
		<path fill="var(--pants-color, grey)" opacity="1.00"
			d=" M 367.09 453.15 C 380.42 446.82 395.43 445.63 409.97 445.24 C 423.25 445.07 436.57 446.23 449.53 449.18 C 462.54 452.13 475.58 455.45 488.97 456.09 C 506.11 456.86 523.07 453.44 539.75 449.91 C 550.69 447.12 561.98 446.01 573.25 446.43 C 576.70 450.20 578.29 455.15 579.86 459.91 C 583.40 470.79 586.24 481.93 590.70 492.49 C 594.22 500.77 599.26 508.28 604.47 515.58 C 609.51 522.77 610.92 531.61 613.01 539.95 C 615.42 549.78 616.10 560.16 620.58 569.39 C 623.12 574.90 626.86 579.72 630.63 584.43 C 634.43 589.09 635.88 595.03 637.65 600.64 C 621.24 600.03 604.92 603.45 589.29 608.21 C 579.39 611.39 569.63 615.26 560.83 620.85 C 556.24 623.79 551.76 627.41 549.63 632.58 C 539.30 623.54 529.09 614.32 519.75 604.23 C 509.04 592.56 497.99 581.09 488.80 568.14 C 485.15 563.42 482.09 558.29 478.60 553.48 C 475.55 549.19 470.19 547.74 465.46 546.19 C 460.57 544.92 454.88 543.16 450.33 546.30 C 443.11 551.23 439.58 559.77 436.90 567.76 C 434.33 579.33 431.67 591.06 431.89 602.98 C 431.78 606.10 431.92 609.51 430.21 612.26 C 427.25 614.25 423.50 614.69 420.01 614.58 C 405.69 613.49 392.05 608.18 379.43 601.61 C 360.17 591.07 342.46 575.75 333.65 555.22 C 332.07 551.43 330.30 547.26 331.52 543.11 C 335.21 527.98 339.14 512.92 343.11 497.87 C 346.56 485.69 351.47 473.65 351.57 460.82 C 357.08 458.97 361.72 455.30 367.09 453.15 Z" />
		<path fill="var(--socks-color, grey)" opacity="1.00"
			d=" M 318.21 657.28 C 323.24 663.91 330.50 668.35 337.76 672.18 C 346.96 676.90 356.78 680.80 367.11 682.07 C 359.78 701.85 356.35 722.75 350.76 743.03 C 345.89 761.30 340.81 780.50 328.11 795.08 C 322.94 801.58 317.58 808.00 313.37 815.19 C 309.70 821.39 307.98 828.48 306.76 835.51 C 305.29 844.35 303.88 853.20 302.82 862.10 C 302.42 865.81 301.05 869.30 299.91 872.82 C 295.63 869.89 290.16 869.64 285.20 870.54 C 278.89 871.81 273.59 876.37 267.00 876.48 C 263.80 876.65 259.86 874.70 259.88 871.07 C 259.48 862.62 264.50 855.46 268.17 848.28 C 272.94 836.45 272.87 823.48 274.25 810.99 C 275.13 800.00 276.54 789.06 277.68 778.09 C 279.37 759.01 278.84 739.25 286.07 721.17 C 288.49 715.14 291.41 709.32 294.81 703.79 C 301.40 692.30 307.70 680.66 313.86 668.94 C 315.86 665.28 317.28 661.33 318.21 657.28 Z" />
		<path fill="var(--socks-color, grey)" opacity="1.00"
			d=" M 607.33 711.06 C 619.47 696.79 638.24 687.87 657.06 688.40 C 663.71 703.98 672.34 718.63 678.53 734.41 C 683.61 747.13 689.00 759.83 691.79 773.30 C 695.61 791.29 696.89 809.70 699.00 827.94 C 700.11 839.67 702.47 851.24 703.78 862.96 C 705.63 873.19 706.96 883.75 711.61 893.20 C 712.51 894.83 712.70 897.78 710.31 898.18 C 704.08 900.10 698.19 896.23 692.04 895.94 C 686.41 895.38 681.33 898.24 675.94 899.19 C 674.54 899.36 672.72 899.77 671.83 898.35 C 669.50 889.81 669.92 880.87 668.37 872.21 C 665.97 858.37 658.99 846.01 652.36 833.84 C 637.71 808.52 622.75 782.71 616.03 753.95 C 612.22 739.84 611.06 725.18 607.33 711.06 Z" />
	</g>
	<g id="#4d4d4dff">
		<path fill="#4d4d4d" opacity="1.00"
			d=" M 218.42 889.48 C 230.47 882.72 243.96 878.33 254.83 869.57 C 255.29 874.47 258.44 879.12 263.36 880.38 C 269.57 882.43 275.91 879.97 281.59 877.52 C 286.24 875.73 292.03 874.69 296.48 877.50 C 298.36 878.33 297.71 880.55 297.71 882.18 C 296.65 893.83 298.56 905.61 296.54 917.19 C 295.71 922.74 291.83 927.19 287.57 930.55 C 284.02 933.27 279.25 934.01 274.98 932.79 C 260.88 929.96 250.22 919.19 236.48 915.38 C 228.24 912.74 217.77 912.35 212.68 904.28 C 209.01 898.83 213.46 892.21 218.42 889.48 Z" />
		<path fill="#4d4d4d" opacity="1.00"
			d=" M 716.90 897.04 C 728.71 910.59 742.97 921.70 755.18 934.86 C 759.14 939.08 761.68 944.52 762.59 950.23 C 757.58 953.98 750.98 954.82 744.99 953.34 C 735.80 951.25 725.52 950.06 717.06 955.15 C 707.32 961.17 695.01 960.07 684.67 956.32 C 676.65 953.22 672.86 944.08 673.05 935.96 C 673.42 925.19 674.40 914.34 672.82 903.63 C 680.41 904.42 687.36 898.98 694.91 901.14 C 700.55 902.65 706.66 904.92 712.39 902.39 C 714.76 901.52 715.84 899.12 716.90 897.04 Z" />
	</g>
</svg>