<?xml version="1.0" encoding="UTF-8" ?>
<!DOCTYPE svg PUBLIC "-//W3C//DTD SVG 1.1//EN" "http://www.w3.org/Graphics/SVG/1.1/DTD/svg11.dtd">
<svg width="1000pt" height="1000pt" viewBox="0 0 1000 1000" version="1.1" xmlns="http://www.w3.org/2000/svg">
    <g id="#020202ff">
        <path fill="#020202" opacity="1.00"
            d=" M 501.96 3.80 C 506.32 5.42 510.47 7.57 514.84 9.20 C 520.03 11.15 525.22 13.90 530.95 13.48 C 538.09 12.96 545.59 12.59 552.20 15.85 C 560.40 19.10 565.81 26.76 574.03 29.93 C 581.26 32.96 587.86 37.24 594.22 41.79 C 603.70 49.02 609.21 60.44 611.14 72.02 C 612.54 79.89 613.15 87.94 612.26 95.91 C 611.31 102.09 614.66 107.81 614.46 113.96 C 614.30 124.61 610.31 134.67 608.69 145.11 C 607.73 149.85 607.67 154.75 606.41 159.43 C 604.22 160.96 602.53 158.21 601.09 156.94 C 596.28 172.96 580.79 182.68 565.48 186.99 C 565.73 199.63 566.57 212.65 571.37 224.49 C 575.55 226.57 581.04 226.84 583.79 231.08 C 587.47 236.06 591.13 241.11 595.57 245.48 C 599.73 249.80 605.05 252.70 609.76 256.34 C 616.01 260.98 621.39 266.62 627.13 271.84 C 634.94 278.92 643.40 285.36 652.71 290.36 C 665.46 297.03 679.47 302.69 688.84 314.13 C 698.06 326.37 703.60 340.94 712.89 353.13 C 719.97 360.91 730.03 364.75 738.84 370.12 C 746.91 375.35 754.24 383.24 755.44 393.16 C 756.73 404.42 755.22 415.95 751.87 426.75 C 749.96 431.95 747.78 437.79 742.70 440.69 C 737.29 443.85 731.73 447.08 725.50 448.22 C 715.12 450.18 704.40 448.12 694.78 444.06 C 684.88 454.49 678.02 467.64 666.63 476.66 C 659.96 482.12 651.58 485.79 642.88 485.81 C 639.80 485.94 637.53 483.67 635.54 481.65 C 631.67 481.39 627.16 481.68 624.20 478.74 C 621.94 476.55 622.36 473.18 622.30 470.34 C 619.47 470.70 616.42 471.50 613.70 470.25 C 612.11 469.42 610.80 468.19 609.43 467.08 C 604.67 470.33 600.05 473.87 596.52 478.48 C 593.25 482.78 588.84 486.00 585.34 490.06 C 585.00 500.23 590.66 509.68 589.22 519.94 C 588.58 524.57 587.62 530.97 582.36 532.44 C 583.18 539.93 583.38 547.48 584.21 554.97 C 585.11 563.01 584.64 571.23 582.76 579.11 C 581.15 586.40 574.71 591.49 573.37 598.89 C 571.98 606.58 574.30 614.31 573.91 622.05 C 573.65 628.07 577.89 633.11 577.91 639.06 C 577.99 641.54 575.85 643.13 574.37 644.80 C 586.18 654.34 599.41 662.02 610.52 672.44 C 615.05 676.70 620.03 681.08 622.22 687.06 C 622.09 687.46 621.82 688.26 621.68 688.66 C 607.88 688.65 594.42 692.01 581.08 695.21 C 584.03 708.02 588.32 721.77 598.95 730.34 C 614.99 729.53 630.36 735.27 645.13 740.85 C 672.51 751.30 697.47 767.39 719.50 786.61 C 730.92 796.16 741.87 806.25 753.03 816.11 C 757.86 820.28 762.60 825.24 769.11 826.58 C 775.43 828.06 781.62 824.75 787.95 825.74 C 799.35 826.84 809.30 833.82 816.80 842.12 C 826.43 852.82 827.36 868.81 822.99 882.01 C 820.20 891.56 813.72 899.63 811.62 909.40 C 809.85 919.19 811.52 929.16 810.95 939.03 C 810.48 949.82 809.78 960.81 806.26 971.11 C 803.89 977.69 800.08 984.21 794.01 987.99 C 789.29 990.93 782.62 990.40 778.79 986.22 C 772.74 979.86 770.00 971.21 767.20 963.09 C 760.92 944.48 758.88 924.76 752.72 906.12 C 750.74 899.11 747.77 892.32 743.87 886.19 C 735.88 879.29 725.59 876.02 716.04 871.93 C 700.98 865.60 685.39 860.59 670.67 853.46 C 649.49 844.15 630.43 830.90 610.30 819.63 C 595.68 811.01 581.08 802.19 565.44 795.52 C 556.04 791.50 545.14 793.78 536.03 788.83 C 524.48 782.77 516.95 771.60 510.18 760.87 C 505.48 753.15 500.96 745.28 497.58 736.88 C 492.10 737.64 486.57 738.75 481.02 738.27 C 475.37 737.16 469.74 734.50 466.14 729.88 C 462.59 725.51 460.39 720.28 458.33 715.11 C 443.67 716.87 428.66 716.52 414.37 712.51 C 406.66 725.05 405.19 740.02 401.97 754.08 C 398.30 771.54 390.86 787.90 382.76 803.69 C 374.61 819.86 364.29 834.82 353.27 849.15 C 340.01 865.64 326.12 881.68 314.10 899.13 C 307.61 907.91 302.61 917.94 294.40 925.35 C 296.58 932.91 292.18 940.03 288.04 946.01 C 282.90 953.32 279.76 961.96 273.66 968.60 C 270.33 972.42 265.29 973.91 260.65 975.47 C 253.85 977.63 246.65 974.75 241.13 970.78 C 234.89 966.15 228.31 961.43 224.51 954.45 C 221.43 949.50 220.14 943.71 217.32 938.64 C 213.72 933.00 207.89 929.39 202.87 925.15 C 192.70 917.01 182.91 907.67 177.53 895.58 C 175.32 890.67 175.14 884.71 177.90 879.99 C 180.90 874.71 187.02 871.73 193.00 871.92 C 204.91 872.12 215.62 877.87 226.08 882.91 C 235.43 887.35 247.01 888.69 256.16 883.02 C 258.51 867.79 263.76 853.17 270.26 839.25 C 279.21 820.05 289.57 801.52 298.07 782.10 C 304.29 767.97 310.41 753.79 316.84 739.76 C 318.79 735.63 320.90 731.53 322.01 727.09 C 323.63 720.52 322.44 713.60 324.27 707.07 C 326.27 699.09 331.04 692.26 335.43 685.44 C 343.61 672.95 353.18 661.26 359.61 647.71 C 356.84 646.27 353.94 645.03 351.51 643.06 C 352.30 639.25 355.52 636.71 358.07 634.03 C 363.76 628.28 370.55 623.81 377.10 619.14 C 390.39 610.07 397.01 594.23 410.26 585.12 C 408.22 575.77 406.04 566.45 404.16 557.07 C 403.43 553.42 402.91 549.55 404.14 545.95 C 405.18 542.21 408.02 539.39 409.70 535.98 C 408.90 530.03 406.66 524.15 407.94 518.06 C 400.76 516.68 395.68 510.78 392.41 504.63 C 389.64 499.26 388.77 493.22 387.51 487.40 C 385.48 477.74 378.85 469.84 376.80 460.18 C 373.39 446.11 376.91 431.75 379.37 417.85 C 383.81 396.93 387.69 375.91 392.08 354.98 C 395.06 342.10 397.21 329.05 399.65 316.06 C 395.92 316.46 393.62 319.62 390.98 321.89 C 372.99 338.22 355.95 355.55 339.13 373.05 C 332.90 379.62 330.97 388.71 328.10 396.99 C 326.94 400.77 323.92 403.64 320.58 405.57 C 316.75 407.67 312.37 406.07 308.45 405.10 C 304.49 408.69 300.73 413.53 295.04 414.14 C 290.68 414.66 289.35 409.64 286.86 407.12 C 283.65 402.85 277.99 402.04 273.97 398.91 C 272.75 394.30 274.18 389.50 274.46 384.84 C 274.94 378.96 277.07 372.61 282.53 369.58 C 288.85 366.23 295.61 363.66 302.58 362.01 C 309.91 343.42 316.90 324.65 325.62 306.64 C 328.13 301.09 330.81 295.60 334.17 290.50 C 326.18 283.56 319.48 275.31 313.53 266.60 C 307.71 258.03 301.13 250.00 295.68 241.18 C 305.42 230.87 317.86 223.77 328.39 214.37 C 335.56 208.15 342.31 201.15 350.92 196.89 C 356.31 194.17 362.27 192.94 368.16 191.80 C 375.95 190.36 382.95 186.47 389.96 182.99 C 399.24 178.17 409.22 174.85 419.39 172.50 C 430.59 169.90 442.22 170.64 453.56 171.77 C 452.99 167.11 453.02 162.28 451.17 157.89 C 449.27 153.55 448.10 148.78 445.07 145.03 C 443.45 143.08 442.77 140.59 442.58 138.10 C 442.10 132.33 441.95 126.53 441.27 120.78 C 440.65 114.92 436.68 110.24 435.05 104.69 C 433.59 107.67 431.88 110.63 428.89 112.29 C 429.00 108.17 429.47 104.08 429.96 99.99 C 430.96 91.37 428.19 82.60 430.31 74.09 C 431.54 69.01 436.29 66.20 439.24 62.23 C 444.27 55.97 446.87 48.14 452.07 42.01 C 457.18 36.05 463.32 30.68 470.80 27.96 C 481.33 24.00 492.22 20.55 503.51 19.75 C 501.10 18.31 499.08 16.37 497.39 14.15 C 501.91 13.23 506.53 13.08 511.13 13.21 C 507.77 10.38 504.07 7.76 501.96 3.80 M 449.41 120.97 C 447.69 128.93 449.14 137.13 451.29 144.86 C 453.01 151.03 457.00 156.43 457.81 162.88 C 458.38 166.03 458.03 169.23 457.58 172.37 C 469.72 173.83 480.90 179.31 493.02 180.86 C 499.98 181.77 506.76 183.77 513.05 186.91 C 512.92 184.64 512.78 182.36 512.67 180.09 C 510.95 180.23 509.41 179.81 508.43 178.32 C 507.33 178.97 506.32 179.82 505.06 180.10 C 503.21 178.24 503.10 175.44 502.07 173.14 C 499.27 165.39 492.09 160.57 488.12 153.53 C 487.31 157.30 486.65 161.10 485.89 164.89 C 483.90 161.24 481.65 157.62 480.73 153.52 C 480.26 150.05 480.74 146.54 480.45 143.07 C 480.12 138.17 477.99 133.43 474.62 129.87 C 473.05 130.09 472.72 131.86 472.01 133.00 C 468.19 140.57 467.28 149.12 464.46 157.03 C 460.97 150.50 460.35 142.95 458.06 135.99 C 456.45 130.36 453.47 125.18 449.41 120.97 M 400.28 183.28 C 392.20 186.62 384.86 191.53 376.66 194.56 C 370.11 197.04 362.93 197.11 356.42 199.71 C 347.57 202.96 341.00 210.01 334.09 216.10 C 323.91 225.66 311.84 232.79 300.94 241.45 C 311.89 252.91 319.72 266.87 330.33 278.61 C 339.79 289.19 352.08 296.92 365.34 301.83 C 376.55 307.16 388.70 309.82 400.67 312.81 C 402.74 306.83 399.11 301.35 397.05 295.96 C 392.05 284.39 386.63 272.54 377.39 263.68 C 373.60 259.60 368.15 256.48 366.84 250.67 C 372.76 254.80 378.07 259.74 383.43 264.55 C 393.05 273.98 398.00 286.85 403.00 299.07 C 404.28 290.76 405.09 282.38 405.43 273.98 C 406.00 261.13 401.87 248.16 394.19 237.87 C 391.83 234.60 388.59 232.12 385.07 230.22 C 384.88 234.50 385.06 238.84 386.10 243.02 C 387.25 248.58 389.81 253.85 389.92 259.61 C 387.59 256.81 386.13 253.46 384.96 250.04 C 382.69 243.59 380.00 236.80 381.17 229.84 C 381.45 227.31 384.18 225.57 386.60 226.48 C 390.98 227.84 394.43 231.16 397.33 234.59 C 406.09 245.67 410.72 259.94 410.18 274.05 C 409.74 288.10 407.71 302.07 404.82 315.82 C 402.10 328.16 400.42 340.70 397.64 353.03 C 392.93 375.06 388.92 397.23 384.07 419.23 C 381.81 431.95 378.36 444.99 381.06 457.93 C 382.50 465.55 386.94 472.05 389.76 479.15 C 393.25 487.38 392.51 496.96 397.28 504.72 C 399.41 508.06 401.85 511.55 405.46 513.40 C 411.78 515.11 417.65 511.07 422.35 507.32 C 437.26 494.60 449.93 478.88 467.42 469.46 C 475.00 465.08 483.99 462.15 492.71 464.67 C 484.41 456.47 473.88 451.25 464.33 444.74 C 454.13 437.25 446.04 427.27 439.29 416.64 C 435.70 411.11 433.01 405.05 431.21 398.72 C 429.59 393.00 427.22 387.24 427.83 381.18 C 430.99 385.95 431.88 391.70 434.02 396.92 C 439.67 411.63 449.20 424.70 460.58 435.52 C 469.98 444.43 482.28 449.47 491.83 458.22 C 496.68 462.75 500.85 467.98 504.31 473.64 C 508.23 479.26 513.24 484.37 519.36 487.55 C 524.22 490.14 530.92 488.66 533.82 483.86 C 532.78 472.18 525.68 462.13 519.27 452.67 C 510.92 440.25 499.33 430.65 489.11 419.89 C 477.43 406.58 465.97 392.16 461.22 374.78 C 458.86 366.84 459.22 358.43 457.40 350.39 C 456.77 347.57 456.26 344.71 456.08 341.82 C 462.50 352.82 462.72 366.11 467.23 377.85 C 472.80 392.63 482.80 405.19 493.19 416.85 C 504.40 428.23 516.43 439.04 525.12 452.58 C 522.42 443.61 520.06 434.41 520.14 424.97 C 520.23 418.65 519.10 412.36 519.61 406.04 C 521.28 408.03 522.50 410.39 522.82 412.99 C 524.30 422.39 524.72 431.95 526.64 441.29 C 527.81 446.92 529.50 452.43 530.96 457.99 C 533.04 466.97 536.98 475.36 538.75 484.43 C 541.68 486.34 544.44 488.54 546.70 491.23 C 553.50 499.21 559.44 507.88 566.20 515.89 C 570.78 521.30 576.41 525.87 583.03 528.54 C 584.91 522.21 585.40 515.42 583.79 508.97 C 582.50 503.98 581.14 498.99 580.65 493.85 C 580.43 491.22 579.79 488.01 582.09 486.07 C 585.81 482.49 589.87 479.20 593.00 475.04 C 595.98 471.04 599.52 467.46 603.73 464.75 C 610.31 460.43 615.65 454.56 620.51 448.43 C 629.10 437.67 637.74 426.89 645.22 415.31 C 650.67 404.08 654.96 392.33 659.88 380.87 C 661.87 376.02 663.39 370.94 666.23 366.49 C 667.86 369.81 666.26 373.34 665.36 376.60 C 661.75 388.03 658.13 399.53 652.79 410.30 C 663.24 400.26 675.06 391.25 682.70 378.70 C 683.86 377.38 684.55 374.68 686.77 375.26 C 686.88 380.37 683.25 384.46 680.67 388.55 C 671.77 401.93 658.18 410.97 646.91 422.11 C 657.87 421.16 668.50 417.92 678.56 413.56 C 682.64 411.76 686.56 409.57 690.79 408.12 C 690.10 409.84 689.48 411.78 687.73 412.71 C 681.10 416.96 673.80 420.04 666.54 423.00 C 674.53 425.48 681.76 429.77 688.58 434.53 C 697.41 440.76 708.16 444.31 718.99 444.14 C 726.92 443.87 734.89 441.09 741.00 435.99 C 746.20 429.96 747.97 421.85 749.26 414.20 C 750.27 408.18 750.74 402.07 750.51 395.98 C 750.52 390.64 747.21 386.06 743.76 382.29 C 736.18 374.01 724.81 370.95 716.67 363.35 C 709.21 357.58 704.26 349.47 699.35 341.59 C 694.71 333.90 690.36 326.02 685.36 318.55 C 677.14 307.40 663.94 302.05 651.92 296.15 C 642.65 291.51 634.15 285.46 626.29 278.74 C 619.43 272.95 613.50 266.09 606.26 260.75 C 602.80 258.14 599.02 256.00 595.61 253.34 C 588.52 247.69 583.40 240.13 578.16 232.85 C 573.64 231.83 569.21 230.27 565.34 227.69 C 551.87 218.95 539.17 209.08 525.71 200.32 C 518.40 195.18 510.28 191.37 502.10 187.85 C 497.59 185.80 492.58 185.60 487.79 184.70 C 480.37 183.50 473.40 180.55 466.12 178.81 C 454.65 176.01 442.77 174.92 430.98 175.36 C 420.37 176.06 410.08 179.33 400.28 183.28 M 534.00 184.85 C 527.42 184.71 520.43 184.14 514.39 187.32 C 532.50 195.55 547.65 208.78 564.15 219.67 C 561.40 209.59 560.02 199.07 560.75 188.63 C 555.92 189.97 551.12 191.48 546.64 193.73 C 542.52 195.44 538.57 197.99 534.04 198.34 C 534.08 197.82 534.18 196.76 534.22 196.24 C 538.83 192.01 544.10 188.45 548.02 183.49 C 543.40 184.40 538.72 185.03 534.00 184.85 M 337.36 293.05 C 328.78 308.20 321.89 324.25 315.19 340.30 C 311.84 348.15 309.38 356.51 304.71 363.71 C 301.16 365.78 296.95 366.41 293.26 368.20 C 288.31 370.49 281.84 372.02 279.70 377.68 C 277.67 383.73 278.21 390.26 277.37 396.52 C 281.27 398.12 285.28 399.73 288.47 402.57 C 290.94 404.70 292.62 407.53 294.51 410.15 C 298.89 408.72 301.87 405.15 305.22 402.22 C 309.08 398.44 314.37 403.98 318.66 401.61 C 321.19 400.15 323.31 397.87 324.07 395.00 C 326.70 386.86 328.76 378.18 334.37 371.46 C 339.93 364.70 346.40 358.75 352.29 352.27 C 365.01 339.77 377.65 327.15 391.05 315.36 C 380.62 313.88 370.63 310.35 361.04 306.09 C 352.57 302.89 344.62 298.46 337.36 293.05 M 613.31 464.34 C 615.30 464.95 617.50 466.53 619.62 465.51 C 623.20 462.21 624.76 457.36 627.96 453.75 C 629.55 453.17 631.18 454.17 631.21 455.91 C 630.33 462.35 626.87 468.46 627.63 475.08 C 629.95 476.56 632.77 476.76 635.38 477.45 C 637.07 472.38 639.90 467.50 644.15 464.17 C 646.48 462.25 650.67 461.60 652.52 464.48 C 653.63 465.98 652.22 467.38 651.56 468.71 C 650.66 468.34 648.87 467.62 647.97 467.26 C 644.52 470.62 639.99 474.96 640.89 480.15 C 648.81 481.42 656.71 477.49 662.99 472.93 C 674.52 464.69 681.12 451.60 691.89 442.56 C 683.55 437.76 675.86 431.58 666.58 428.60 C 659.13 426.11 651.19 427.73 643.53 426.85 C 634.83 440.35 624.61 452.92 613.31 464.34 M 465.81 475.81 C 450.81 485.72 439.46 500.00 425.65 511.37 C 437.42 521.97 452.37 528.02 467.38 532.40 C 475.10 534.53 483.12 535.05 490.96 536.55 C 492.44 536.69 493.39 537.87 494.04 539.12 C 490.88 540.59 487.34 539.91 484.01 539.80 C 475.84 539.21 467.62 538.42 459.71 536.20 C 445.65 532.17 431.56 525.49 422.36 513.73 C 419.34 515.46 416.13 516.81 412.79 517.75 C 412.04 522.24 413.11 526.70 414.47 530.97 C 422.92 534.45 430.67 539.38 439.11 542.88 C 447.00 546.40 455.61 547.78 464.12 548.93 C 465.76 549.22 468.73 549.39 467.81 551.85 C 460.41 553.39 452.82 551.55 445.49 550.35 C 434.64 548.28 424.84 542.80 415.62 536.93 C 414.56 540.09 412.40 542.65 410.73 545.48 C 409.03 548.37 409.16 551.83 409.85 554.99 C 413.83 574.90 418.72 594.63 422.19 614.64 C 425.30 631.34 426.94 649.08 436.19 663.79 C 444.48 676.97 453.51 689.77 459.82 704.07 C 464.09 712.43 465.61 722.61 472.90 729.11 C 477.14 732.36 482.54 735.14 488.03 733.99 C 497.17 732.96 506.26 731.02 514.84 727.65 C 523.37 724.24 529.45 717.06 536.47 711.43 C 543.62 705.12 552.25 700.83 560.88 696.94 C 578.28 689.67 597.08 685.77 615.91 685.03 C 607.39 677.19 598.59 669.66 589.29 662.78 C 583.74 658.67 577.92 654.90 572.78 650.27 C 566.44 644.59 560.63 638.34 555.13 631.85 C 548.22 623.68 542.74 613.87 541.23 603.16 C 541.04 599.52 540.56 595.23 543.19 592.29 C 544.42 596.84 544.14 601.67 545.63 606.17 C 548.45 615.91 554.46 624.35 561.34 631.67 C 564.94 635.47 568.32 639.57 572.67 642.58 C 573.47 641.19 574.74 639.72 574.04 638.02 C 570.96 628.18 564.43 619.95 558.06 612.02 C 542.56 592.53 532.92 567.83 533.38 542.77 C 536.45 541.04 537.05 545.08 537.43 547.13 C 539.12 558.50 541.46 569.82 545.65 580.55 C 550.65 594.32 559.43 606.18 568.37 617.61 C 567.37 609.45 565.46 600.72 568.76 592.83 C 570.57 588.01 574.35 584.31 576.50 579.68 C 578.80 573.75 579.42 567.29 579.51 560.98 C 578.65 550.82 578.36 540.63 577.87 530.45 C 561.30 522.37 553.16 504.81 540.98 491.93 C 539.80 490.95 538.77 489.38 537.15 489.22 C 533.76 490.30 530.70 492.36 527.11 492.76 C 523.17 493.40 519.15 492.27 515.78 490.25 C 506.03 484.70 500.90 473.28 490.16 469.19 C 481.47 466.52 473.02 471.49 465.81 475.81 M 411.34 590.22 C 404.37 597.30 398.29 605.16 392.18 612.97 C 386.51 620.21 378.50 624.91 371.02 630.01 C 365.78 633.53 361.12 637.80 356.54 642.12 C 361.05 643.56 365.26 645.98 368.47 649.51 C 378.79 660.45 383.11 675.28 391.38 687.59 C 396.69 695.36 404.05 702.02 413.04 705.15 C 421.01 708.12 429.57 708.79 437.99 709.22 C 444.02 709.75 450.07 709.65 456.12 709.52 C 451.90 700.44 447.32 691.52 441.78 683.17 C 435.30 672.49 427.23 662.48 423.77 650.27 C 418.00 630.61 416.42 610.05 411.34 590.22 M 364.17 651.57 C 357.50 665.46 347.65 677.44 339.37 690.35 C 336.05 695.61 332.46 700.84 330.61 706.84 C 328.58 712.77 329.32 719.14 328.71 725.28 C 338.82 732.52 351.33 734.74 363.09 737.91 C 375.12 741.19 387.72 741.08 400.03 739.76 C 402.46 729.91 404.64 719.69 410.61 711.24 C 402.75 708.25 395.90 703.00 390.63 696.50 C 379.45 682.95 375.83 664.80 364.17 651.57 M 546.66 709.75 C 538.70 714.91 532.22 721.96 524.49 727.42 C 518.16 731.91 510.55 733.91 503.13 735.79 C 507.26 744.46 512.01 752.81 517.12 760.93 C 522.75 769.65 528.96 778.67 538.29 783.76 C 543.64 786.75 549.88 786.95 555.82 787.67 C 562.56 788.46 568.68 791.61 574.55 794.82 C 567.47 780.51 566.72 763.22 572.00 748.21 C 574.97 739.44 582.59 733.18 590.88 729.64 C 582.51 720.66 578.23 708.77 575.76 696.95 C 565.59 700.03 555.70 704.15 546.66 709.75 M 327.42 730.64 C 326.13 734.44 324.49 738.11 322.74 741.72 C 311.44 767.00 301.14 792.75 288.49 817.42 C 280.00 834.95 270.38 852.13 265.10 871.00 C 262.62 880.10 260.15 889.75 262.42 899.16 C 263.82 904.29 265.83 909.48 269.45 913.47 C 272.37 915.67 275.83 917.07 279.14 918.61 C 283.15 920.61 287.76 920.48 291.89 922.14 C 300.02 911.97 306.56 900.67 314.25 890.18 C 325.41 874.54 338.03 860.03 349.97 845.00 C 360.55 831.15 370.54 816.76 378.38 801.17 C 388.03 783.00 395.65 763.65 399.20 743.33 C 392.89 744.64 386.46 745.38 380.02 745.47 C 370.16 745.51 360.59 742.86 351.12 740.42 C 342.86 738.22 334.47 735.66 327.42 730.64 M 583.88 739.77 C 577.11 744.96 574.69 753.81 573.54 761.88 C 572.31 773.93 573.68 787.11 580.73 797.29 C 604.12 809.49 626.73 823.17 649.39 836.68 C 660.34 843.16 671.88 848.55 683.52 853.65 C 693.67 857.84 704.07 861.40 714.19 865.66 C 726.36 870.70 739.33 874.94 749.19 884.07 C 751.94 880.73 755.30 877.66 756.60 873.40 C 760.17 863.22 756.25 852.47 757.06 842.04 C 757.43 837.17 758.74 832.39 760.87 827.99 C 746.10 817.36 733.36 804.22 719.25 792.77 C 699.79 775.84 678.47 760.80 654.82 750.32 C 641.13 744.36 627.11 738.77 612.41 735.84 C 602.89 734.19 592.16 734.06 583.88 739.77 M 763.41 862.02 C 764.11 871.84 760.78 882.98 751.50 887.81 C 755.05 893.49 757.12 899.89 758.85 906.32 C 764.24 923.93 766.30 942.37 772.01 959.88 C 774.27 966.89 776.60 974.06 780.77 980.21 C 782.66 983.12 786.32 985.58 789.85 983.96 C 794.50 981.77 797.45 977.15 799.68 972.71 C 804.07 962.77 804.57 951.70 805.07 941.01 C 805.58 930.39 803.85 919.70 805.46 909.14 C 807.28 897.90 815.05 888.88 817.91 877.98 C 821.12 866.95 819.93 853.81 811.82 845.14 C 805.57 838.58 797.66 832.97 788.55 831.51 C 783.67 830.66 778.86 832.23 774.01 832.39 C 770.61 832.54 767.37 831.32 764.19 830.31 C 761.01 840.67 762.70 851.45 763.41 862.02 M 182.24 884.05 C 180.89 887.53 181.90 891.35 183.51 894.56 C 187.82 903.07 194.25 910.34 201.47 916.52 C 207.26 921.75 213.89 926.06 219.06 931.96 C 225.33 938.88 225.76 949.05 231.91 956.08 C 236.34 961.04 241.71 965.16 247.28 968.78 C 255.77 974.25 267.55 969.67 272.47 961.49 C 276.34 954.98 279.42 947.99 283.93 941.87 C 286.72 937.55 290.58 932.58 289.09 927.15 C 285.03 925.50 280.23 926.99 276.35 924.71 C 271.98 922.23 268.17 918.84 264.78 915.17 C 258.31 907.49 255.16 897.27 255.75 887.29 C 246.79 893.24 235.10 892.47 225.58 888.33 C 215.06 883.81 204.73 877.49 192.94 877.33 C 188.44 877.04 183.77 879.72 182.24 884.05 Z" />
        <path fill="#020202" opacity="1.00"
            d=" M 459.56 225.39 C 462.13 226.34 463.96 228.36 465.40 230.61 C 476.25 246.23 487.77 261.38 499.95 275.98 C 517.06 296.97 538.53 314.82 563.71 325.20 C 575.78 330.29 588.58 333.20 601.15 336.71 C 603.06 337.45 605.71 337.78 606.29 340.13 C 604.09 340.85 601.75 340.76 599.51 340.37 C 580.39 336.82 561.45 331.17 544.54 321.38 C 520.10 307.85 500.57 287.17 484.09 264.92 C 477.97 256.65 472.26 248.09 466.52 239.56 C 463.75 235.09 460.14 230.82 459.56 225.39 Z" />
    </g>
    <g id="#f0b58bff">
        <path fill="#f0b58b" opacity="1.00"
            d=" M 449.41 120.97 C 453.47 125.18 456.45 130.36 458.06 135.99 C 460.35 142.95 460.97 150.50 464.46 157.03 C 467.28 149.12 468.19 140.57 472.01 133.00 C 472.72 131.86 473.05 130.09 474.62 129.87 C 477.99 133.43 480.12 138.17 480.45 143.07 C 480.74 146.54 480.26 150.05 480.73 153.52 C 481.65 157.62 483.90 161.24 485.89 164.89 C 486.65 161.10 487.31 157.30 488.12 153.53 C 492.09 160.57 499.27 165.39 502.07 173.14 C 503.10 175.44 503.21 178.24 505.06 180.10 C 506.32 179.82 507.33 178.97 508.43 178.32 C 509.41 179.81 510.95 180.23 512.67 180.09 C 512.78 182.36 512.92 184.64 513.05 186.91 C 506.76 183.77 499.98 181.77 493.02 180.86 C 480.90 179.31 469.72 173.83 457.58 172.37 C 458.03 169.23 458.38 166.03 457.81 162.88 C 457.00 156.43 453.01 151.03 451.29 144.86 C 449.14 137.13 447.69 128.93 449.41 120.97 Z" />
        <path fill="#f0b58b" opacity="1.00"
            d=" M 534.00 184.85 C 538.72 185.03 543.40 184.40 548.02 183.49 C 544.10 188.45 538.83 192.01 534.22 196.24 C 534.18 196.76 534.08 197.82 534.04 198.34 C 538.57 197.99 542.52 195.44 546.64 193.73 C 551.12 191.48 555.92 189.97 560.75 188.63 C 560.02 199.07 561.40 209.59 564.15 219.67 C 547.65 208.78 532.50 195.55 514.39 187.32 C 520.43 184.14 527.42 184.71 534.00 184.85 Z" />
        <path fill="#f0b58b" opacity="1.00"
            d=" M 337.36 293.05 C 344.62 298.46 352.57 302.89 361.04 306.09 C 370.63 310.35 380.62 313.88 391.05 315.36 C 377.65 327.15 365.01 339.77 352.29 352.27 C 346.40 358.75 339.93 364.70 334.37 371.46 C 328.76 378.18 326.70 386.86 324.07 395.00 C 323.31 397.87 321.19 400.15 318.66 401.61 C 314.37 403.98 309.08 398.44 305.22 402.22 C 301.87 405.15 298.89 408.72 294.51 410.15 C 292.62 407.53 290.94 404.70 288.47 402.57 C 285.28 399.73 281.27 398.12 277.37 396.52 C 278.21 390.26 277.67 383.73 279.70 377.68 C 281.84 372.02 288.31 370.49 293.26 368.20 C 296.95 366.41 301.16 365.78 304.71 363.71 C 309.38 356.51 311.84 348.15 315.19 340.30 C 321.89 324.25 328.78 308.20 337.36 293.05 Z" />
        <path fill="#f0b58b" opacity="1.00"
            d=" M 613.31 464.34 C 624.61 452.92 634.83 440.35 643.53 426.85 C 651.19 427.73 659.13 426.11 666.58 428.60 C 675.86 431.58 683.55 437.76 691.89 442.56 C 681.12 451.60 674.52 464.69 662.99 472.93 C 656.71 477.49 648.81 481.42 640.89 480.15 C 639.99 474.96 644.52 470.62 647.97 467.26 C 648.87 467.62 650.66 468.34 651.56 468.71 C 652.22 467.38 653.63 465.98 652.52 464.48 C 650.67 461.60 646.48 462.25 644.15 464.17 C 639.90 467.50 637.07 472.38 635.38 477.45 C 632.77 476.76 629.95 476.56 627.63 475.08 C 626.87 468.46 630.33 462.35 631.21 455.91 C 631.18 454.17 629.55 453.17 627.96 453.75 C 624.76 457.36 623.20 462.21 619.62 465.51 C 617.50 466.53 615.30 464.95 613.31 464.34 Z" />
        <path fill="#f0b58b" opacity="1.00"
            d=" M 364.17 651.57 C 375.83 664.80 379.45 682.95 390.63 696.50 C 395.90 703.00 402.75 708.25 410.61 711.24 C 404.64 719.69 402.46 729.91 400.03 739.76 C 387.72 741.08 375.12 741.19 363.09 737.91 C 351.33 734.74 338.82 732.52 328.71 725.28 C 329.32 719.14 328.58 712.77 330.61 706.84 C 332.46 700.84 336.05 695.61 339.37 690.35 C 347.65 677.44 357.50 665.46 364.17 651.57 Z" />
        <path fill="#f0b58b" opacity="1.00"
            d=" M 546.66 709.75 C 555.70 704.15 565.59 700.03 575.76 696.95 C 578.23 708.77 582.51 720.66 590.88 729.64 C 582.59 733.18 574.97 739.44 572.00 748.21 C 566.72 763.22 567.47 780.51 574.55 794.82 C 568.68 791.61 562.56 788.46 555.82 787.67 C 549.88 786.95 543.64 786.75 538.29 783.76 C 528.96 778.67 522.75 769.65 517.12 760.93 C 512.01 752.81 507.26 744.46 503.13 735.79 C 510.55 733.91 518.16 731.91 524.49 727.42 C 532.22 721.96 538.70 714.91 546.66 709.75 Z" />
    </g>
    <g id="#f11b27ff">
        <path fill="var(--shirt-color, grey)" opacity="1.00"
            d=" M 400.28 183.28 C 410.08 179.33 420.37 176.06 430.98 175.36 C 442.77 174.92 454.65 176.01 466.12 178.81 C 473.40 180.55 480.37 183.50 487.79 184.70 C 492.58 185.60 497.59 185.80 502.10 187.85 C 510.28 191.37 518.40 195.18 525.71 200.32 C 539.17 209.08 551.87 218.95 565.34 227.69 C 569.21 230.27 573.64 231.83 578.16 232.85 C 583.40 240.13 588.52 247.69 595.61 253.34 C 599.02 256.00 602.80 258.14 606.26 260.75 C 613.50 266.09 619.43 272.95 626.29 278.74 C 634.15 285.46 642.65 291.51 651.92 296.15 C 663.94 302.05 677.14 307.40 685.36 318.55 C 690.36 326.02 694.71 333.90 699.35 341.59 C 704.26 349.47 709.21 357.58 716.67 363.35 C 724.81 370.95 736.18 374.01 743.76 382.29 C 747.21 386.06 750.52 390.64 750.51 395.98 C 750.74 402.07 750.27 408.18 749.26 414.20 C 747.97 421.85 746.20 429.96 741.00 435.99 C 734.89 441.09 726.92 443.87 718.99 444.14 C 708.16 444.31 697.41 440.76 688.58 434.53 C 681.76 429.77 674.53 425.48 666.54 423.00 C 673.80 420.04 681.10 416.96 687.73 412.71 C 689.48 411.78 690.10 409.84 690.79 408.12 C 686.56 409.57 682.64 411.76 678.56 413.56 C 668.50 417.92 657.87 421.16 646.91 422.11 C 658.18 410.97 671.77 401.93 680.67 388.55 C 683.25 384.46 686.88 380.37 686.77 375.26 C 684.55 374.68 683.86 377.38 682.70 378.70 C 675.06 391.25 663.24 400.26 652.79 410.30 C 658.13 399.53 661.75 388.03 665.36 376.60 C 666.26 373.34 667.86 369.81 666.23 366.49 C 663.39 370.94 661.87 376.02 659.88 380.87 C 654.96 392.33 650.67 404.08 645.22 415.31 C 637.74 426.89 629.10 437.67 620.51 448.43 C 615.65 454.56 610.31 460.43 603.73 464.75 C 599.52 467.46 595.98 471.04 593.00 475.04 C 589.87 479.20 585.81 482.49 582.09 486.07 C 579.79 488.01 580.43 491.22 580.65 493.85 C 581.14 498.99 582.50 503.98 583.79 508.97 C 585.40 515.42 584.91 522.21 583.03 528.54 C 576.41 525.87 570.78 521.30 566.20 515.89 C 559.44 507.88 553.50 499.21 546.70 491.23 C 544.44 488.54 541.68 486.34 538.75 484.43 C 536.98 475.36 533.04 466.97 530.96 457.99 C 529.50 452.43 527.81 446.92 526.64 441.29 C 524.72 431.95 524.30 422.39 522.82 412.99 C 522.50 410.39 521.28 408.03 519.61 406.04 C 519.10 412.36 520.23 418.65 520.14 424.97 C 520.06 434.41 522.42 443.61 525.12 452.58 C 516.43 439.04 504.40 428.23 493.19 416.85 C 482.80 405.19 472.80 392.63 467.23 377.85 C 462.72 366.11 462.50 352.82 456.08 341.82 C 456.26 344.71 456.77 347.57 457.40 350.39 C 459.22 358.43 458.86 366.84 461.22 374.78 C 465.97 392.16 477.43 406.58 489.11 419.89 C 499.33 430.65 510.92 440.25 519.27 452.67 C 525.68 462.13 532.78 472.18 533.82 483.86 C 530.92 488.66 524.22 490.14 519.36 487.55 C 513.24 484.37 508.23 479.26 504.31 473.64 C 500.85 467.98 496.68 462.75 491.83 458.22 C 482.28 449.47 469.98 444.43 460.58 435.52 C 449.20 424.70 439.67 411.63 434.02 396.92 C 431.88 391.70 430.99 385.95 427.83 381.18 C 427.22 387.24 429.59 393.00 431.21 398.72 C 433.01 405.05 435.70 411.11 439.29 416.64 C 446.04 427.27 454.13 437.25 464.33 444.74 C 473.88 451.25 484.41 456.47 492.71 464.67 C 483.99 462.15 475.00 465.08 467.42 469.46 C 449.93 478.88 437.26 494.60 422.35 507.32 C 417.65 511.07 411.78 515.11 405.46 513.40 C 401.85 511.55 399.41 508.06 397.28 504.72 C 392.51 496.96 393.25 487.38 389.76 479.15 C 386.94 472.05 382.50 465.55 381.06 457.93 C 378.36 444.99 381.81 431.95 384.07 419.23 C 388.92 397.23 392.93 375.06 397.64 353.03 C 400.42 340.70 402.10 328.16 404.82 315.82 C 407.71 302.07 409.74 288.10 410.18 274.05 C 410.72 259.94 406.09 245.67 397.33 234.59 C 394.43 231.16 390.98 227.84 386.60 226.48 C 384.18 225.57 381.45 227.31 381.17 229.84 C 380.00 236.80 382.69 243.59 384.96 250.04 C 386.13 253.46 387.59 256.81 389.92 259.61 C 389.81 253.85 387.25 248.58 386.10 243.02 C 385.06 238.84 384.88 234.50 385.07 230.22 C 388.59 232.12 391.83 234.60 394.19 237.87 C 401.87 248.16 406.00 261.13 405.43 273.98 C 405.09 282.38 404.28 290.76 403.00 299.07 C 398.00 286.85 393.05 273.98 383.43 264.55 C 378.07 259.74 372.76 254.80 366.84 250.67 C 368.15 256.48 373.60 259.60 377.39 263.68 C 386.63 272.54 392.05 284.39 397.05 295.96 C 399.11 301.35 402.74 306.83 400.67 312.81 C 388.70 309.82 376.55 307.16 365.34 301.83 C 352.08 296.92 339.79 289.19 330.33 278.61 C 319.72 266.87 311.89 252.91 300.94 241.45 C 311.84 232.79 323.91 225.66 334.09 216.10 C 341.00 210.01 347.57 202.96 356.42 199.71 C 362.93 197.11 370.11 197.04 376.66 194.56 C 384.86 191.53 392.20 186.62 400.28 183.28 M 459.56 225.39 C 460.14 230.82 463.75 235.09 466.52 239.56 C 472.26 248.09 477.97 256.65 484.09 264.92 C 500.57 287.17 520.10 307.85 544.54 321.38 C 561.45 331.17 580.39 336.82 599.51 340.37 C 601.75 340.76 604.09 340.85 606.29 340.13 C 605.71 337.78 603.06 337.45 601.15 336.71 C 588.58 333.20 575.78 330.29 563.71 325.20 C 538.53 314.82 517.06 296.97 499.95 275.98 C 487.77 261.38 476.25 246.23 465.40 230.61 C 463.96 228.36 462.13 226.34 459.56 225.39 Z" />
    </g>
    <g id="#ffffffff">
        <path fill="var(--pants-color, grey)" opacity="1.00"
            d=" M 465.81 475.81 C 473.02 471.49 481.47 466.52 490.16 469.19 C 500.90 473.28 506.03 484.70 515.78 490.25 C 519.15 492.27 523.17 493.40 527.11 492.76 C 530.70 492.36 533.76 490.30 537.15 489.22 C 538.77 489.38 539.80 490.95 540.98 491.93 C 553.16 504.81 561.30 522.37 577.87 530.45 C 578.36 540.63 578.65 550.82 579.51 560.98 C 579.42 567.29 578.80 573.75 576.50 579.68 C 574.35 584.31 570.57 588.01 568.76 592.83 C 565.46 600.72 567.37 609.45 568.37 617.61 C 559.43 606.18 550.65 594.32 545.65 580.55 C 541.46 569.82 539.12 558.50 537.43 547.13 C 537.05 545.08 536.45 541.04 533.38 542.77 C 532.92 567.83 542.56 592.53 558.06 612.02 C 564.43 619.95 570.96 628.18 574.04 638.02 C 574.74 639.72 573.47 641.19 572.67 642.58 C 568.32 639.57 564.94 635.47 561.34 631.67 C 554.46 624.35 548.45 615.91 545.63 606.17 C 544.14 601.67 544.42 596.84 543.19 592.29 C 540.56 595.23 541.04 599.52 541.23 603.16 C 542.74 613.87 548.22 623.68 555.13 631.85 C 560.63 638.34 566.44 644.59 572.78 650.27 C 577.92 654.90 583.74 658.67 589.29 662.78 C 598.59 669.66 607.39 677.19 615.91 685.03 C 597.08 685.77 578.28 689.67 560.88 696.94 C 552.25 700.83 543.62 705.12 536.47 711.43 C 529.45 717.06 523.37 724.24 514.84 727.65 C 506.26 731.02 497.17 732.96 488.03 733.99 C 482.54 735.14 477.14 732.36 472.90 729.11 C 465.61 722.61 464.09 712.43 459.82 704.07 C 453.51 689.77 444.48 676.97 436.19 663.79 C 426.94 649.08 425.30 631.34 422.19 614.64 C 418.72 594.63 413.83 574.90 409.85 554.99 C 409.16 551.83 409.03 548.37 410.73 545.48 C 412.40 542.65 414.56 540.09 415.62 536.93 C 424.84 542.80 434.64 548.28 445.49 550.35 C 452.82 551.55 460.41 553.39 467.81 551.85 C 468.73 549.39 465.76 549.22 464.12 548.93 C 455.61 547.78 447.00 546.40 439.11 542.88 C 430.67 539.38 422.92 534.45 414.47 530.97 C 413.11 526.70 412.04 522.24 412.79 517.75 C 416.13 516.81 419.34 515.46 422.36 513.73 C 431.56 525.49 445.65 532.17 459.71 536.20 C 467.62 538.42 475.84 539.21 484.01 539.80 C 487.34 539.91 490.88 540.59 494.04 539.12 C 493.39 537.87 492.44 536.69 490.96 536.55 C 483.12 535.05 475.10 534.53 467.38 532.40 C 452.37 528.02 437.42 521.97 425.65 511.37 C 439.46 500.00 450.81 485.72 465.81 475.81 Z" />
        <path fill="var(--pants-color, grey)" opacity="1.00"
            d=" M 411.34 590.22 C 416.42 610.05 418.00 630.61 423.77 650.27 C 427.23 662.48 435.30 672.49 441.78 683.17 C 447.32 691.52 451.90 700.44 456.12 709.52 C 450.07 709.65 444.02 709.75 437.99 709.22 C 429.57 708.79 421.01 708.12 413.04 705.15 C 404.05 702.02 396.69 695.36 391.38 687.59 C 383.11 675.28 378.79 660.45 368.47 649.51 C 365.26 645.98 361.05 643.56 356.54 642.12 C 361.12 637.80 365.78 633.53 371.02 630.01 C 378.50 624.91 386.51 620.21 392.18 612.97 C 398.29 605.16 404.37 597.30 411.34 590.22 Z" />
        <path fill="var(--socks-color, grey)" opacity="1.00"
            d=" M 327.42 730.64 C 334.47 735.66 342.86 738.22 351.12 740.42 C 360.59 742.86 370.16 745.51 380.02 745.47 C 386.46 745.38 392.89 744.64 399.20 743.33 C 395.65 763.65 388.03 783.00 378.38 801.17 C 370.54 816.76 360.55 831.15 349.97 845.00 C 338.03 860.03 325.41 874.54 314.25 890.18 C 306.56 900.67 300.02 911.97 291.89 922.14 C 287.76 920.48 283.15 920.61 279.14 918.61 C 275.83 917.07 272.37 915.67 269.45 913.47 C 265.83 909.48 263.82 904.29 262.42 899.16 C 260.15 889.75 262.62 880.10 265.10 871.00 C 270.38 852.13 280.00 834.95 288.49 817.42 C 301.14 792.75 311.44 767.00 322.74 741.72 C 324.49 738.11 326.13 734.44 327.42 730.64 Z" />
        <path fill="var(--socks-color, grey)" opacity="1.00"
            d=" M 583.88 739.77 C 592.16 734.06 602.89 734.19 612.41 735.84 C 627.11 738.77 641.13 744.36 654.82 750.32 C 678.47 760.80 699.79 775.84 719.25 792.77 C 733.36 804.22 746.10 817.36 760.87 827.99 C 758.74 832.39 757.43 837.17 757.06 842.04 C 756.25 852.47 760.17 863.22 756.60 873.40 C 755.30 877.66 751.94 880.73 749.19 884.07 C 739.33 874.94 726.36 870.70 714.19 865.66 C 704.07 861.40 693.67 857.84 683.52 853.65 C 671.88 848.55 660.34 843.16 649.39 836.68 C 626.73 823.17 604.12 809.49 580.73 797.29 C 573.68 787.11 572.31 773.93 573.54 761.88 C 574.69 753.81 577.11 744.96 583.88 739.77 Z" />
    </g>
    <g id="#4d4d4dff">
        <path fill="#4d4d4d" opacity="1.00"
            d=" M 763.41 862.02 C 762.70 851.45 761.01 840.67 764.19 830.31 C 767.37 831.32 770.61 832.54 774.01 832.39 C 778.86 832.23 783.67 830.66 788.55 831.51 C 797.66 832.97 805.57 838.58 811.82 845.14 C 819.93 853.81 821.12 866.95 817.91 877.98 C 815.05 888.88 807.28 897.90 805.46 909.14 C 803.85 919.70 805.58 930.39 805.07 941.01 C 804.57 951.70 804.07 962.77 799.68 972.71 C 797.45 977.15 794.50 981.77 789.85 983.96 C 786.32 985.58 782.66 983.12 780.77 980.21 C 776.60 974.06 774.27 966.89 772.01 959.88 C 766.30 942.37 764.24 923.93 758.85 906.32 C 757.12 899.89 755.05 893.49 751.50 887.81 C 760.78 882.98 764.11 871.84 763.41 862.02 Z" />
        <path fill="#4d4d4d" opacity="1.00"
            d=" M 182.24 884.05 C 183.77 879.72 188.44 877.04 192.94 877.33 C 204.73 877.49 215.06 883.81 225.58 888.33 C 235.10 892.47 246.79 893.24 255.75 887.29 C 255.16 897.27 258.31 907.49 264.78 915.17 C 268.17 918.84 271.98 922.23 276.35 924.71 C 280.23 926.99 285.03 925.50 289.09 927.15 C 290.58 932.58 286.72 937.55 283.93 941.87 C 279.42 947.99 276.34 954.98 272.47 961.49 C 267.55 969.67 255.77 974.25 247.28 968.78 C 241.71 965.16 236.34 961.04 231.91 956.08 C 225.76 949.05 225.33 938.88 219.06 931.96 C 213.89 926.06 207.26 921.75 201.47 916.52 C 194.25 910.34 187.82 903.07 183.51 894.56 C 181.90 891.35 180.89 887.53 182.24 884.05 Z" />
    </g>
</svg>