<?xml version="1.0" encoding="UTF-8" ?>
<!DOCTYPE svg PUBLIC "-//W3C//DTD SVG 1.1//EN" "http://www.w3.org/Graphics/SVG/1.1/DTD/svg11.dtd">
<svg width="1000pt" height="1000pt" viewBox="0 0 1000 1000" version="1.1" xmlns="http://www.w3.org/2000/svg">
    <g id="#020202ff">
        <path fill="#020202" opacity="1.00"
            d=" M 473.20 42.22 C 480.49 37.41 489.26 34.53 498.06 35.33 C 506.12 36.04 514.36 36.87 521.86 40.14 C 526.61 42.18 531.32 44.40 535.54 47.41 C 543.62 53.40 551.64 59.51 560.17 64.85 C 563.13 66.83 567.17 67.11 569.55 69.92 C 569.74 73.03 566.48 74.37 564.45 75.99 C 569.86 84.68 580.13 89.34 584.36 98.82 C 587.46 109.30 587.12 120.86 583.47 131.17 C 579.78 142.55 578.71 154.59 575.00 165.97 C 573.82 169.98 572.25 173.85 570.80 177.76 C 569.12 182.34 569.64 187.28 569.58 192.05 C 569.48 198.60 568.88 205.29 566.35 211.39 C 560.58 224.47 550.83 235.74 538.57 243.14 C 544.99 247.73 551.47 252.32 557.14 257.85 C 563.47 263.90 569.05 270.68 574.44 277.56 C 579.75 284.49 585.05 291.63 588.11 299.89 C 591.53 308.02 593.28 316.77 597.14 324.73 C 598.58 327.70 599.99 330.69 601.34 333.71 C 604.28 340.43 608.21 346.85 609.42 354.21 C 617.49 358.91 625.48 363.75 633.73 368.16 C 647.58 375.17 661.70 381.61 675.67 388.39 C 692.39 395.77 708.38 404.75 725.36 411.55 C 731.35 414.08 737.92 413.18 744.22 413.85 C 751.26 414.36 758.07 416.34 765.04 417.35 C 774.82 418.82 784.50 421.74 792.93 427.03 C 801.94 432.75 810.25 439.88 816.28 448.75 C 820.33 453.77 824.68 458.86 826.56 465.16 C 827.21 467.35 826.93 470.34 824.68 471.51 C 822.54 472.41 820.16 471.69 818.15 470.82 C 811.67 467.91 806.12 463.36 799.76 460.23 C 794.60 457.59 788.85 456.10 783.05 456.04 C 765.81 455.81 747.78 454.95 732.17 446.83 C 725.65 443.42 718.27 442.51 711.11 441.38 C 701.48 439.73 691.69 439.54 681.96 438.83 C 659.17 436.89 636.85 431.62 614.68 426.19 C 604.01 423.31 593.28 420.43 583.17 415.90 C 572.86 411.77 565.27 403.29 557.68 395.53 C 555.46 396.64 553.25 397.76 551.03 398.85 C 554.45 412.75 550.65 427.20 544.94 439.94 C 538.39 453.76 530.45 467.01 525.90 481.71 C 522.24 492.02 520.77 502.94 517.57 513.38 C 516.77 516.22 515.53 519.34 516.84 522.23 C 518.77 526.83 521.42 531.12 522.92 535.92 C 525.43 543.62 527.50 552.01 525.40 560.06 C 524.55 564.26 522.59 568.12 520.20 571.64 C 529.77 582.08 536.64 595.59 537.29 609.91 C 537.68 614.68 537.94 619.46 537.91 624.25 C 540.69 626.75 543.49 629.33 545.38 632.61 C 550.12 640.59 550.90 650.10 554.50 658.55 C 556.83 664.68 561.70 669.27 566.19 673.86 C 572.24 679.99 577.20 687.13 581.39 694.65 C 584.43 700.52 587.41 706.59 588.52 713.18 C 589.91 721.39 589.63 729.78 589.28 738.08 C 587.63 738.86 585.98 739.63 584.34 740.40 C 585.76 750.08 580.61 758.84 575.49 766.58 C 569.81 775.80 562.62 784.03 557.59 793.66 C 554.21 799.68 551.30 805.93 548.15 812.07 C 533.04 840.78 514.74 867.65 498.97 895.99 C 493.51 905.84 487.73 915.71 479.84 923.86 C 492.58 927.39 503.06 935.79 515.05 941.02 C 526.78 946.39 537.40 953.75 547.85 961.22 C 551.29 963.93 554.53 967.51 555.25 971.97 C 555.75 974.98 553.73 977.88 550.97 978.93 C 545.92 980.92 540.36 980.57 535.04 980.53 C 516.99 980.02 499.04 977.81 481.01 976.87 C 463.68 975.76 446.39 978.03 429.06 977.91 C 419.28 977.87 409.11 977.86 399.93 974.02 C 395.02 972.05 392.52 966.97 390.76 962.31 C 388.73 956.98 390.20 950.94 393.33 946.35 C 398.31 939.03 404.59 932.12 412.89 928.61 C 413.34 924.69 414.41 920.84 416.37 917.40 C 421.17 908.10 427.78 899.90 432.81 890.74 C 440.63 876.48 444.02 860.45 449.21 845.17 C 454.63 828.13 463.56 812.53 471.60 796.65 C 477.91 784.33 485.13 772.45 494.03 761.82 C 480.78 763.43 466.84 763.81 454.27 758.67 C 451.24 765.37 447.22 771.71 441.66 776.60 C 434.77 783.54 425.69 787.48 417.46 792.50 C 408.28 797.39 399.88 803.53 390.96 808.85 C 377.38 817.10 364.09 825.82 351.19 835.10 C 329.47 849.88 306.86 863.31 285.23 878.21 C 276.59 884.53 269.00 892.32 259.54 897.48 C 259.13 906.94 256.51 916.75 259.93 925.98 C 262.72 934.96 270.74 940.63 275.65 948.31 C 278.17 952.25 281.01 956.27 281.74 961.00 C 282.22 963.55 280.95 966.37 278.56 967.49 C 269.11 970.83 258.94 971.10 249.01 971.00 C 239.32 970.65 229.52 969.73 220.25 966.75 C 211.06 963.87 204.75 955.83 200.47 947.60 C 194.56 935.92 192.74 922.84 190.35 910.12 C 188.58 899.43 186.78 888.73 184.33 878.16 C 182.98 871.45 181.07 864.77 180.83 857.90 C 180.59 853.91 183.49 850.54 187.04 849.12 C 194.02 846.21 201.38 843.73 209.03 843.72 C 219.06 843.68 229.16 844.13 239.01 846.14 C 241.15 842.64 243.44 839.17 246.53 836.43 C 248.78 834.50 251.00 832.52 253.17 830.51 C 263.37 822.33 272.71 813.10 280.90 802.91 C 292.60 788.66 305.80 775.46 321.18 765.19 C 333.75 756.48 347.44 749.57 361.32 743.24 C 366.33 740.96 371.31 738.55 375.86 735.42 C 372.53 733.39 367.42 732.40 366.59 727.93 C 364.31 717.98 362.60 707.62 357.36 698.68 C 351.98 689.52 345.32 681.18 340.00 671.99 C 334.30 661.92 328.02 651.97 325.09 640.66 C 320.09 625.44 317.29 609.39 318.64 593.34 C 314.08 584.85 312.14 575.26 310.58 565.83 C 308.48 552.87 312.02 539.86 316.77 527.90 C 314.87 512.96 315.94 497.82 316.90 482.83 C 318.35 465.66 319.67 448.33 324.32 431.67 C 309.90 427.67 298.60 416.62 290.71 404.31 C 286.38 397.37 282.11 390.21 279.85 382.29 C 277.47 372.26 280.70 362.18 282.83 352.43 C 280.77 348.11 279.71 342.86 282.55 338.62 C 289.41 327.15 298.03 316.84 306.39 306.45 C 314.42 296.23 323.43 286.84 331.91 276.99 C 337.71 270.48 343.94 264.36 350.23 258.33 C 354.60 254.28 358.92 250.07 364.07 247.01 C 370.83 242.99 378.90 242.29 385.95 238.93 C 399.73 232.67 411.72 223.22 424.93 215.92 C 426.76 214.85 428.74 213.96 430.34 212.54 C 432.37 209.74 433.94 206.64 435.88 203.78 C 433.97 203.97 431.57 205.25 430.36 203.08 C 431.25 194.60 432.60 186.15 432.84 177.61 C 429.99 179.37 426.84 180.63 423.44 180.48 C 423.38 175.64 423.93 170.83 424.65 166.05 C 421.23 159.24 417.31 152.52 415.86 144.94 C 413.71 133.95 414.41 122.45 417.49 111.70 C 414.04 112.71 410.13 115.17 406.57 113.37 C 404.38 112.05 406.29 109.62 407.13 108.04 C 410.40 103.34 413.73 98.65 417.47 94.30 C 415.71 93.63 413.08 93.44 412.80 91.09 C 413.05 85.59 417.62 81.85 420.78 77.82 C 425.73 71.39 430.68 64.96 435.48 58.42 C 441.68 49.99 451.57 44.29 462.08 43.73 C 465.76 43.11 469.96 44.54 473.20 42.22 M 542.93 153.89 C 539.27 158.70 535.16 165.38 528.21 164.78 C 516.45 178.16 500.66 187.69 483.68 192.91 C 477.38 194.75 470.75 197.85 464.10 196.07 C 460.41 195.17 460.61 190.86 460.50 187.87 C 455.21 191.47 449.97 195.13 444.68 198.72 C 443.84 201.20 442.95 203.67 442.00 206.11 C 461.61 197.12 486.07 198.60 503.81 211.18 C 510.89 216.03 515.83 223.18 521.79 229.22 C 525.66 233.61 530.39 237.08 535.04 240.59 C 547.42 233.03 557.32 221.35 562.63 207.85 C 566.41 198.18 563.46 187.61 565.81 177.74 C 569.30 168.26 572.74 158.72 574.59 148.76 C 572.04 149.94 569.13 150.94 567.62 153.50 C 564.07 158.98 560.99 164.78 556.93 169.91 C 551.97 176.32 547.35 183.61 539.95 187.44 C 537.70 188.27 536.48 185.84 537.95 184.24 C 545.72 169.73 554.27 154.99 556.58 138.44 C 549.53 140.79 547.19 148.55 542.93 153.89 M 432.19 217.18 C 417.49 225.26 404.27 235.85 389.09 243.07 C 383.40 245.90 377.14 247.15 371.17 249.22 C 366.09 250.97 361.92 254.51 357.99 258.06 C 347.17 267.87 337.05 278.43 327.64 289.61 C 316.94 301.31 306.98 313.67 297.23 326.16 C 293.51 331.49 289.08 336.38 286.16 342.21 C 284.80 344.46 285.56 347.14 286.63 349.32 C 289.63 355.40 294.07 360.57 297.85 366.16 C 300.61 370.03 303.93 374.20 308.89 375.13 C 316.41 376.85 324.20 376.72 331.79 378.08 C 331.31 370.01 331.67 361.92 331.85 353.85 C 329.92 346.87 325.43 340.49 325.57 332.98 C 325.89 327.40 326.09 321.43 329.04 316.50 C 330.36 321.63 328.98 326.87 329.29 332.06 C 329.47 337.42 331.26 342.54 332.95 347.58 C 334.28 338.32 335.43 328.98 337.95 319.96 C 339.56 314.98 340.61 309.46 344.54 305.67 C 344.28 307.66 343.98 309.65 343.46 311.59 C 339.83 324.17 338.40 337.25 336.67 350.19 C 334.89 362.08 336.14 374.11 336.17 386.07 C 336.40 399.97 334.58 413.95 330.24 427.18 C 324.05 446.14 322.80 466.19 321.26 485.93 C 320.72 497.91 319.69 509.93 320.55 521.92 C 321.05 529.26 324.80 535.77 326.45 542.83 C 323.00 540.87 321.27 537.25 319.60 533.84 C 316.58 542.56 314.17 551.70 314.60 561.01 C 315.34 569.88 316.97 578.70 319.58 587.21 C 320.54 591.74 325.91 593.44 329.98 592.47 C 340.29 590.71 349.98 586.53 359.63 582.66 C 379.42 573.97 399.65 565.99 420.72 560.96 C 437.23 557.40 454.22 554.74 471.14 556.41 C 483.81 557.46 495.95 561.40 508.19 564.56 C 511.53 565.42 514.77 566.64 517.90 568.08 C 519.00 565.68 520.16 563.28 520.85 560.73 C 523.41 552.00 520.67 542.83 517.54 534.63 C 515.44 530.01 513.69 524.62 509.02 521.95 C 502.20 517.64 495.71 512.23 492.27 504.75 C 486.30 492.65 487.92 478.66 489.88 465.79 C 490.77 461.40 491.00 456.24 494.82 453.23 C 494.36 460.51 492.52 467.63 492.31 474.94 C 492.04 483.83 491.95 493.13 495.57 501.44 C 498.61 508.99 505.05 514.28 511.33 519.09 C 515.72 503.19 518.13 486.70 524.28 471.31 C 530.34 454.67 541.40 440.20 546.06 423.01 C 548.13 415.66 548.53 407.94 548.02 400.35 C 539.87 404.05 530.93 406.13 521.98 406.27 C 513.79 406.52 508.55 399.09 504.28 393.15 C 491.76 408.04 474.39 417.48 459.12 429.17 C 444.00 440.46 428.75 452.02 416.92 466.89 C 407.34 479.15 400.03 493.18 395.31 508.00 C 400.62 504.03 406.14 500.37 411.40 496.34 C 416.96 492.53 422.28 488.08 428.81 486.02 C 427.94 487.94 426.87 489.82 425.02 490.96 C 414.53 498.50 404.50 506.69 393.85 513.99 C 391.86 515.47 390.07 512.84 390.76 511.00 C 392.50 501.48 396.63 492.58 400.91 483.96 C 408.27 469.40 418.79 456.64 430.97 445.85 C 444.88 433.59 460.01 422.81 475.20 412.21 C 484.84 405.45 494.56 398.47 501.99 389.20 C 498.40 382.67 495.49 375.79 491.81 369.30 C 489.17 364.24 485.68 359.60 483.83 354.15 C 486.37 355.02 488.64 356.57 490.31 358.69 C 499.78 370.25 503.49 385.24 512.49 397.13 C 513.11 392.29 514.47 387.44 517.55 383.56 C 523.15 376.48 530.14 370.51 537.90 365.90 C 548.56 359.59 560.04 354.47 572.11 351.55 C 582.62 348.95 593.60 349.19 604.21 351.03 C 601.96 345.87 599.95 340.24 595.34 336.65 C 579.27 321.57 557.00 316.58 536.06 312.38 C 530.05 310.92 523.55 311.12 517.98 308.16 C 526.21 305.75 534.76 308.56 543.02 309.49 C 561.85 311.92 581.11 317.95 595.20 331.23 C 589.77 321.65 587.39 310.81 583.23 300.70 C 580.45 293.65 575.93 287.49 571.31 281.57 C 565.16 273.83 558.84 266.17 551.47 259.55 C 540.48 249.69 526.77 243.18 516.83 232.11 C 510.88 226.09 505.84 218.96 498.46 214.54 C 478.47 202.03 451.31 203.84 432.19 217.18 M 538.89 370.59 C 543.12 374.18 547.57 377.57 550.96 382.02 C 559.87 391.47 568.28 401.66 578.99 409.16 C 591.40 415.97 605.28 419.42 618.88 423.00 C 643.00 428.50 667.29 434.06 692.09 435.10 C 702.81 435.67 713.52 436.98 724.01 439.34 C 731.24 440.88 737.33 445.42 744.41 447.42 C 757.19 451.31 770.71 451.87 783.99 451.77 C 790.89 451.84 797.70 453.89 803.70 457.29 C 810.14 460.73 815.75 465.73 822.79 468.04 C 819.56 456.55 809.94 447.92 798.90 444.04 C 796.13 443.02 792.96 442.43 791.12 439.88 C 796.47 439.61 801.69 441.07 806.65 442.94 C 800.73 437.52 794.60 432.17 787.38 428.53 C 779.86 424.56 771.51 422.53 763.14 421.35 C 756.75 420.50 750.51 418.68 744.07 418.20 C 737.73 417.43 731.10 418.58 725.06 416.00 C 706.98 408.98 690.00 399.49 672.24 391.74 C 654.96 383.15 637.10 375.61 620.63 365.48 C 615.42 362.48 610.58 358.89 605.42 355.82 C 600.09 354.41 594.49 354.46 589.01 354.42 C 571.10 354.39 553.97 361.39 538.89 370.59 M 286.58 357.98 C 284.56 366.89 282.30 376.69 286.25 385.42 C 292.00 397.89 299.37 410.03 310.03 418.92 C 314.57 422.84 319.87 425.71 325.26 428.30 C 330.48 413.34 332.67 397.40 331.85 381.58 C 325.88 381.33 319.92 380.98 313.98 380.41 C 309.25 379.88 304.24 378.73 300.74 375.28 C 295.37 370.09 290.92 364.04 286.58 357.98 M 525.97 381.01 C 521.07 385.72 516.38 391.83 516.68 398.98 C 516.33 402.24 520.64 402.40 522.96 402.25 C 533.96 400.85 544.65 397.21 554.39 391.91 C 548.25 385.38 542.73 378.26 535.68 372.63 C 532.27 375.22 528.98 377.97 525.97 381.01 M 421.00 565.90 C 399.25 571.11 378.49 579.67 358.03 588.56 C 361.88 592.82 365.90 596.92 370.13 600.81 C 378.39 608.55 386.37 616.66 395.42 623.49 C 402.57 628.68 410.22 633.16 418.17 637.02 C 419.90 637.83 421.42 639.01 422.89 640.24 C 418.87 640.80 415.12 639.10 411.59 637.45 C 398.59 631.17 386.56 622.91 376.13 612.91 C 368.45 605.66 360.58 598.48 354.44 589.82 C 344.42 593.10 334.10 597.92 323.31 596.15 C 323.00 609.08 324.98 621.98 328.81 634.32 C 330.89 641.22 332.89 648.22 336.36 654.59 C 341.03 663.14 345.80 671.66 351.27 679.73 C 355.53 686.48 360.43 692.86 363.92 700.08 C 368.03 708.71 369.85 718.17 371.88 727.45 C 386.13 735.22 401.14 744.06 418.00 743.08 C 426.50 743.09 434.22 739.34 442.04 736.55 C 439.55 730.88 435.53 726.15 431.42 721.60 C 426.90 717.00 421.42 713.55 416.34 709.63 C 408.38 703.67 400.48 697.59 393.28 690.72 C 391.44 688.69 388.73 686.63 389.17 683.56 C 389.50 683.51 390.15 683.43 390.48 683.39 C 401.53 692.51 412.94 701.24 424.74 709.40 C 416.48 693.38 407.97 677.37 396.81 663.15 C 389.84 653.91 381.54 645.83 373.75 637.32 C 377.41 635.36 380.21 639.26 382.70 641.33 C 391.13 649.62 399.21 658.32 406.03 668.00 C 415.91 681.50 423.05 696.70 430.24 711.73 C 431.85 715.59 435.58 717.82 438.19 720.94 C 444.84 728.19 448.44 737.53 450.91 746.91 C 451.69 750.67 454.54 753.75 458.19 754.93 C 469.71 758.73 482.09 758.24 493.98 756.79 C 505.97 755.29 517.95 753.51 529.73 750.78 C 548.28 746.85 566.32 740.97 584.78 736.68 C 584.59 731.09 584.73 725.49 584.45 719.90 C 584.07 707.73 577.79 696.76 571.03 687.00 C 565.42 678.65 557.35 672.45 549.18 666.78 C 538.18 659.31 526.30 653.15 513.86 648.44 C 510.38 646.86 506.20 646.12 503.85 642.82 C 505.59 642.63 507.31 642.76 509.01 643.21 C 523.82 647.35 538.32 653.19 550.82 662.30 C 547.40 654.78 546.33 646.51 543.41 638.84 C 540.73 631.33 533.69 625.90 526.03 624.21 C 521.16 623.11 516.34 621.59 512.09 618.91 C 508.33 616.73 505.17 613.68 501.43 611.49 C 496.16 608.27 489.64 609.84 483.97 607.88 C 473.18 604.55 465.21 596.04 456.52 589.29 C 454.10 587.03 450.40 585.35 450.14 581.64 C 453.73 582.77 456.70 585.13 459.72 587.29 C 464.15 590.51 468.62 593.66 473.09 596.83 C 477.35 599.80 481.82 602.78 487.01 603.83 C 491.88 605.02 497.17 604.18 501.83 606.33 C 506.92 608.58 510.80 612.75 515.64 615.43 C 520.93 618.73 527.17 619.72 532.85 622.13 C 532.63 617.46 532.29 612.80 532.00 608.13 C 531.52 597.57 526.71 587.75 520.88 579.13 C 518.13 575.17 514.60 571.28 509.73 570.12 C 496.91 566.96 484.26 562.75 471.06 561.44 C 454.26 559.61 437.39 562.35 421.00 565.90 M 358.51 750.29 C 367.31 752.85 375.08 758.02 381.78 764.17 C 390.98 772.79 399.13 783.42 401.80 796.00 C 408.53 791.54 415.70 787.80 422.70 783.78 C 434.44 777.85 445.34 768.61 450.20 756.09 C 446.08 751.69 445.18 745.61 443.21 740.16 C 436.75 743.22 430.26 746.80 423.00 747.41 C 407.95 749.56 392.67 745.00 379.74 737.45 C 374.53 744.19 365.88 746.66 358.51 750.29 M 551.93 749.99 C 538.29 753.41 524.72 757.47 510.73 759.16 C 528.18 762.18 545.60 769.32 558.14 782.16 C 564.26 773.55 570.63 765.08 575.98 755.95 C 578.50 751.67 579.95 746.83 580.27 741.88 C 570.83 744.60 561.49 747.70 551.93 749.99 M 290.71 799.70 C 284.37 807.03 278.52 814.81 271.51 821.53 C 264.74 828.82 256.60 834.63 249.39 841.45 C 243.89 846.96 240.56 854.45 239.66 862.15 C 238.65 869.20 237.69 876.54 239.70 883.51 C 241.64 888.87 246.48 893.13 252.02 894.41 C 255.44 895.08 258.41 892.84 261.02 890.96 C 268.51 885.17 275.29 878.49 282.98 872.94 C 291.44 867.06 300.17 861.57 308.65 855.71 C 324.18 845.12 340.42 835.61 355.86 824.88 C 369.55 815.36 384.11 807.21 398.23 798.38 C 396.01 788.26 390.23 779.31 383.34 771.74 C 375.25 763.02 365.18 755.28 353.24 753.02 C 329.57 764.22 307.96 779.95 290.71 799.70 M 498.53 764.52 C 490.50 774.47 483.47 785.19 477.61 796.56 C 468.91 813.57 459.06 830.18 453.41 848.55 C 447.93 865.41 444.02 883.16 434.20 898.21 C 429.09 906.22 423.25 913.82 419.33 922.52 C 417.83 925.77 417.34 930.13 419.98 932.95 C 424.85 937.77 432.35 938.73 438.83 937.45 C 445.84 935.72 452.42 932.66 459.08 929.92 C 465.34 927.21 471.99 924.84 476.99 920.01 C 481.96 915.13 485.67 909.15 489.37 903.29 C 495.19 893.43 500.56 883.30 506.58 873.56 C 516.30 857.21 526.34 841.06 535.51 824.39 C 542.72 812.12 548.25 798.97 555.33 786.63 C 546.33 777.16 534.40 771.05 522.08 767.10 C 514.61 764.35 506.43 762.62 498.53 764.52 M 191.75 852.80 C 188.97 854.45 185.81 857.26 186.73 860.88 C 187.68 868.00 189.60 874.95 191.06 881.99 C 193.86 894.23 195.47 906.70 197.99 918.99 C 200.32 932.05 203.89 945.79 213.52 955.49 C 218.83 961.02 226.83 962.04 234.04 963.11 C 248.31 964.87 262.91 965.35 277.16 963.14 C 273.08 948.85 258.49 940.91 254.29 926.72 C 251.35 917.91 252.37 908.47 254.06 899.53 C 244.74 898.63 235.55 891.75 234.21 882.14 C 233.07 871.96 232.89 861.43 236.22 851.62 C 226.88 850.25 217.46 849.38 208.01 849.34 C 202.45 849.34 196.73 850.20 191.75 852.80 M 450.64 938.66 C 443.42 941.59 435.53 944.02 427.70 942.23 C 422.05 941.30 417.25 937.82 413.81 933.36 C 409.46 936.02 405.43 939.24 402.18 943.19 C 398.57 947.62 393.86 952.71 395.19 958.92 C 396.30 963.08 397.97 968.00 402.31 969.78 C 406.93 971.75 412.00 972.39 416.97 972.77 C 434.65 973.94 452.33 972.23 469.99 971.85 C 493.73 972.18 517.29 976.03 541.04 976.08 C 544.66 976.17 548.17 975.13 551.38 973.50 C 548.06 965.37 539.76 961.72 533.06 956.94 C 526.42 952.30 519.24 948.53 511.94 945.04 C 499.73 939.49 489.00 930.98 476.08 926.94 C 468.06 931.78 459.28 935.13 450.64 938.66 Z" />
        <path fill="#020202" opacity="1.00"
            d=" M 449.25 268.15 C 452.78 264.32 456.05 259.34 461.63 258.55 C 458.72 262.64 454.94 265.99 451.91 269.98 C 440.02 284.94 430.38 301.52 421.13 318.18 C 412.35 333.71 404.52 349.84 394.44 364.59 C 392.56 360.89 395.68 357.50 397.14 354.27 C 413.49 325.00 427.49 293.97 449.25 268.15 Z" />
        <path fill="#020202" opacity="1.00"
            d=" M 438.59 366.52 C 439.70 364.89 440.67 364.98 441.48 366.80 C 428.19 388.75 408.22 405.36 391.61 424.62 C 389.51 426.59 387.84 429.99 384.48 429.53 C 385.75 425.51 389.02 422.68 391.54 419.46 C 403.12 405.44 416.59 393.12 428.04 378.99 C 431.55 374.83 434.75 370.39 438.59 366.52 Z" />
        <path fill="#020202" opacity="1.00"
            d=" M 438.73 691.14 C 441.05 690.41 443.19 691.78 445.23 692.71 C 453.10 696.60 460.96 700.52 468.96 704.14 C 486.41 712.46 503.91 721.38 523.02 725.16 C 526.74 726.02 530.65 726.26 534.13 727.96 C 532.09 730.57 528.72 729.60 525.91 729.45 C 503.95 727.04 483.46 718.00 463.97 708.07 C 456.61 704.15 449.06 700.56 442.04 696.04 C 440.39 694.89 438.11 693.51 438.73 691.14 Z" />
    </g>
    <g id="#f0b58bff">
        <path fill="#f0b58b" opacity="1.00"
            d=" M 542.93 153.89 C 547.19 148.55 549.53 140.79 556.58 138.44 C 554.27 154.99 545.72 169.73 537.95 184.24 C 536.48 185.84 537.70 188.27 539.95 187.44 C 547.35 183.61 551.97 176.32 556.93 169.91 C 560.99 164.78 564.07 158.98 567.62 153.50 C 569.13 150.94 572.04 149.94 574.59 148.76 C 572.74 158.72 569.30 168.26 565.81 177.74 C 563.46 187.61 566.41 198.18 562.63 207.85 C 557.32 221.35 547.42 233.03 535.04 240.59 C 530.39 237.08 525.66 233.61 521.79 229.22 C 515.83 223.18 510.89 216.03 503.81 211.18 C 486.07 198.60 461.61 197.12 442.00 206.11 C 442.95 203.67 443.84 201.20 444.68 198.72 C 449.97 195.13 455.21 191.47 460.50 187.87 C 460.61 190.86 460.41 195.17 464.10 196.07 C 470.75 197.85 477.38 194.75 483.68 192.91 C 500.66 187.69 516.45 178.16 528.21 164.78 C 535.16 165.38 539.27 158.70 542.93 153.89 Z" />
        <path fill="#f0b58b" opacity="1.00"
            d=" M 538.89 370.59 C 553.97 361.39 571.10 354.39 589.01 354.42 C 594.49 354.46 600.09 354.41 605.42 355.82 C 610.58 358.89 615.42 362.48 620.63 365.48 C 637.10 375.61 654.96 383.15 672.24 391.74 C 690.00 399.49 706.98 408.98 725.06 416.00 C 731.10 418.58 737.73 417.43 744.07 418.20 C 750.51 418.68 756.75 420.50 763.14 421.35 C 771.51 422.53 779.86 424.56 787.38 428.53 C 794.60 432.17 800.73 437.52 806.65 442.94 C 801.69 441.07 796.47 439.61 791.12 439.88 C 792.96 442.43 796.13 443.02 798.90 444.04 C 809.94 447.92 819.56 456.55 822.79 468.04 C 815.75 465.73 810.14 460.73 803.70 457.29 C 797.70 453.89 790.89 451.84 783.99 451.77 C 770.71 451.87 757.19 451.31 744.41 447.42 C 737.33 445.42 731.24 440.88 724.01 439.34 C 713.52 436.98 702.81 435.67 692.09 435.10 C 667.29 434.06 643.00 428.50 618.88 423.00 C 605.28 419.42 591.40 415.97 578.99 409.16 C 568.28 401.66 559.87 391.47 550.96 382.02 C 547.57 377.57 543.12 374.18 538.89 370.59 Z" />
        <path fill="#f0b58b" opacity="1.00"
            d=" M 286.58 357.98 C 290.92 364.04 295.37 370.09 300.74 375.28 C 304.24 378.73 309.25 379.88 313.98 380.41 C 319.92 380.98 325.88 381.33 331.85 381.58 C 332.67 397.40 330.48 413.34 325.26 428.30 C 319.87 425.71 314.57 422.84 310.03 418.92 C 299.37 410.03 292.00 397.89 286.25 385.42 C 282.30 376.69 284.56 366.89 286.58 357.98 Z" />
        <path fill="#f0b58b" opacity="1.00"
            d=" M 358.51 750.29 C 365.88 746.66 374.53 744.19 379.74 737.45 C 392.67 745.00 407.95 749.56 423.00 747.41 C 430.26 746.80 436.75 743.22 443.21 740.16 C 445.18 745.61 446.08 751.69 450.20 756.09 C 445.34 768.61 434.44 777.85 422.70 783.78 C 415.70 787.80 408.53 791.54 401.80 796.00 C 399.13 783.42 390.98 772.79 381.78 764.17 C 375.08 758.02 367.31 752.85 358.51 750.29 Z" />
        <path fill="#f0b58b" opacity="1.00"
            d=" M 551.93 749.99 C 561.49 747.70 570.83 744.60 580.27 741.88 C 579.95 746.83 578.50 751.67 575.98 755.95 C 570.63 765.08 564.26 773.55 558.14 782.16 C 545.60 769.32 528.18 762.18 510.73 759.16 C 524.72 757.47 538.29 753.41 551.93 749.99 Z" />
    </g>
    <g id="#f11b27ff">
        <path fill="var(--shirt-color, grey)" opacity="1.00"
            d=" M 432.19 217.18 C 451.31 203.84 478.47 202.03 498.46 214.54 C 505.84 218.96 510.88 226.09 516.83 232.11 C 526.77 243.18 540.48 249.69 551.47 259.55 C 558.84 266.17 565.16 273.83 571.31 281.57 C 575.93 287.49 580.45 293.65 583.23 300.70 C 587.39 310.81 589.77 321.65 595.20 331.23 C 581.11 317.95 561.85 311.92 543.02 309.49 C 534.76 308.56 526.21 305.75 517.98 308.16 C 523.55 311.12 530.05 310.92 536.06 312.38 C 557.00 316.58 579.27 321.57 595.34 336.65 C 599.95 340.24 601.96 345.87 604.21 351.03 C 593.60 349.19 582.62 348.95 572.11 351.55 C 560.04 354.47 548.56 359.59 537.90 365.90 C 530.14 370.51 523.15 376.48 517.55 383.56 C 514.47 387.44 513.11 392.29 512.49 397.13 C 503.49 385.24 499.78 370.25 490.31 358.69 C 488.64 356.57 486.37 355.02 483.83 354.15 C 485.68 359.60 489.17 364.24 491.81 369.30 C 495.49 375.79 498.40 382.67 501.99 389.20 C 494.56 398.47 484.84 405.45 475.20 412.21 C 460.01 422.81 444.88 433.59 430.97 445.85 C 418.79 456.64 408.27 469.40 400.91 483.96 C 396.63 492.58 392.50 501.48 390.76 511.00 C 390.07 512.84 391.86 515.47 393.85 513.99 C 404.50 506.69 414.53 498.50 425.02 490.96 C 426.87 489.82 427.94 487.94 428.81 486.02 C 422.28 488.08 416.96 492.53 411.40 496.34 C 406.14 500.37 400.62 504.03 395.31 508.00 C 400.03 493.18 407.34 479.15 416.92 466.89 C 428.75 452.02 444.00 440.46 459.12 429.17 C 474.39 417.48 491.76 408.04 504.28 393.15 C 508.55 399.09 513.79 406.52 521.98 406.27 C 530.93 406.13 539.87 404.05 548.02 400.35 C 548.53 407.94 548.13 415.66 546.06 423.01 C 541.40 440.20 530.34 454.67 524.28 471.31 C 518.13 486.70 515.72 503.19 511.33 519.09 C 505.05 514.28 498.61 508.99 495.57 501.44 C 491.95 493.13 492.04 483.83 492.31 474.94 C 492.52 467.63 494.36 460.51 494.82 453.23 C 491.00 456.24 490.77 461.40 489.88 465.79 C 487.92 478.66 486.30 492.65 492.27 504.75 C 495.71 512.23 502.20 517.64 509.02 521.95 C 513.69 524.62 515.44 530.01 517.54 534.63 C 520.67 542.83 523.41 552.00 520.85 560.73 C 520.16 563.28 519.00 565.68 517.90 568.08 C 514.77 566.64 511.53 565.42 508.19 564.56 C 495.95 561.40 483.81 557.46 471.14 556.41 C 454.22 554.74 437.23 557.40 420.72 560.96 C 399.65 565.99 379.42 573.97 359.63 582.66 C 349.98 586.53 340.29 590.71 329.98 592.47 C 325.91 593.44 320.54 591.74 319.58 587.21 C 316.97 578.70 315.34 569.88 314.60 561.01 C 314.17 551.70 316.58 542.56 319.60 533.84 C 321.27 537.25 323.00 540.87 326.45 542.83 C 324.80 535.77 321.05 529.26 320.55 521.92 C 319.69 509.93 320.72 497.91 321.26 485.93 C 322.80 466.19 324.05 446.14 330.24 427.18 C 334.58 413.95 336.40 399.97 336.17 386.07 C 336.14 374.11 334.89 362.08 336.67 350.19 C 338.40 337.25 339.83 324.17 343.46 311.59 C 343.98 309.65 344.28 307.66 344.54 305.67 C 340.61 309.46 339.56 314.98 337.95 319.96 C 335.43 328.98 334.28 338.32 332.95 347.58 C 331.26 342.54 329.47 337.42 329.29 332.06 C 328.98 326.87 330.36 321.63 329.04 316.50 C 326.09 321.43 325.89 327.40 325.57 332.98 C 325.43 340.49 329.92 346.87 331.85 353.85 C 331.67 361.92 331.31 370.01 331.79 378.08 C 324.20 376.72 316.41 376.85 308.89 375.13 C 303.93 374.20 300.61 370.03 297.85 366.16 C 294.07 360.57 289.63 355.40 286.63 349.32 C 285.56 347.14 284.80 344.46 286.16 342.21 C 289.08 336.38 293.51 331.49 297.23 326.16 C 306.98 313.67 316.94 301.31 327.64 289.61 C 337.05 278.43 347.17 267.87 357.99 258.06 C 361.92 254.51 366.09 250.97 371.17 249.22 C 377.14 247.15 383.40 245.90 389.09 243.07 C 404.27 235.85 417.49 225.26 432.19 217.18 M 449.25 268.15 C 427.49 293.97 413.49 325.00 397.14 354.27 C 395.68 357.50 392.56 360.89 394.44 364.59 C 404.52 349.84 412.35 333.71 421.13 318.18 C 430.38 301.52 440.02 284.94 451.91 269.98 C 454.94 265.99 458.72 262.64 461.63 258.55 C 456.05 259.34 452.78 264.32 449.25 268.15 M 438.59 366.52 C 434.75 370.39 431.55 374.83 428.04 378.99 C 416.59 393.12 403.12 405.44 391.54 419.46 C 389.02 422.68 385.75 425.51 384.48 429.53 C 387.84 429.99 389.51 426.59 391.61 424.62 C 408.22 405.36 428.19 388.75 441.48 366.80 C 440.67 364.98 439.70 364.89 438.59 366.52 Z" />
        <path fill="var(--shirt-color, grey)" opacity="1.00"
            d=" M 525.97 381.01 C 528.98 377.97 532.27 375.22 535.68 372.63 C 542.73 378.26 548.25 385.38 554.39 391.91 C 544.65 397.21 533.96 400.85 522.96 402.25 C 520.64 402.40 516.33 402.24 516.68 398.98 C 516.38 391.83 521.07 385.72 525.97 381.01 Z" />
    </g>
    <g id="#ffffffff">
        <path fill="var(--pants-color, grey)" opacity="1.00"
            d=" M 421.00 565.90 C 437.39 562.35 454.26 559.61 471.06 561.44 C 484.26 562.75 496.91 566.96 509.73 570.12 C 514.60 571.28 518.13 575.17 520.88 579.13 C 526.71 587.75 531.52 597.57 532.00 608.13 C 532.29 612.80 532.63 617.46 532.85 622.13 C 527.17 619.72 520.93 618.73 515.64 615.43 C 510.80 612.75 506.92 608.58 501.83 606.33 C 497.17 604.18 491.88 605.02 487.01 603.83 C 481.82 602.78 477.35 599.80 473.09 596.83 C 468.62 593.66 464.15 590.51 459.72 587.29 C 456.70 585.13 453.73 582.77 450.14 581.64 C 450.40 585.35 454.10 587.03 456.52 589.29 C 465.21 596.04 473.18 604.55 483.97 607.88 C 489.64 609.84 496.16 608.27 501.43 611.49 C 505.17 613.68 508.33 616.73 512.09 618.91 C 516.34 621.59 521.16 623.11 526.03 624.21 C 533.69 625.90 540.73 631.33 543.41 638.84 C 546.33 646.51 547.40 654.78 550.82 662.30 C 538.32 653.19 523.82 647.35 509.01 643.21 C 507.31 642.76 505.59 642.63 503.85 642.82 C 506.20 646.12 510.38 646.86 513.86 648.44 C 526.30 653.15 538.18 659.31 549.18 666.78 C 557.35 672.45 565.42 678.65 571.03 687.00 C 577.79 696.76 584.07 707.73 584.45 719.90 C 584.73 725.49 584.59 731.09 584.78 736.68 C 566.32 740.97 548.28 746.85 529.73 750.78 C 517.95 753.51 505.97 755.29 493.98 756.79 C 482.09 758.24 469.71 758.73 458.19 754.93 C 454.54 753.75 451.69 750.67 450.91 746.91 C 448.44 737.53 444.84 728.19 438.19 720.94 C 435.58 717.82 431.85 715.59 430.24 711.73 C 423.05 696.70 415.91 681.50 406.03 668.00 C 399.21 658.32 391.13 649.62 382.70 641.33 C 380.21 639.26 377.41 635.36 373.75 637.32 C 381.54 645.83 389.84 653.91 396.81 663.15 C 407.97 677.37 416.48 693.38 424.74 709.40 C 412.94 701.24 401.53 692.51 390.48 683.39 C 390.15 683.43 389.50 683.51 389.17 683.56 C 388.73 686.63 391.44 688.69 393.28 690.72 C 400.48 697.59 408.38 703.67 416.34 709.63 C 421.42 713.55 426.90 717.00 431.42 721.60 C 435.53 726.15 439.55 730.88 442.04 736.55 C 434.22 739.34 426.50 743.09 418.00 743.08 C 401.14 744.06 386.13 735.22 371.88 727.45 C 369.85 718.17 368.03 708.71 363.92 700.08 C 360.43 692.86 355.53 686.48 351.27 679.73 C 345.80 671.66 341.03 663.14 336.36 654.59 C 332.89 648.22 330.89 641.22 328.81 634.32 C 324.98 621.98 323.00 609.08 323.31 596.15 C 334.10 597.92 344.42 593.10 354.44 589.82 C 360.58 598.48 368.45 605.66 376.13 612.91 C 386.56 622.91 398.59 631.17 411.59 637.45 C 415.12 639.10 418.87 640.80 422.89 640.24 C 421.42 639.01 419.90 637.83 418.17 637.02 C 410.22 633.16 402.57 628.68 395.42 623.49 C 386.37 616.66 378.39 608.55 370.13 600.81 C 365.90 596.92 361.88 592.82 358.03 588.56 C 378.49 579.67 399.25 571.11 421.00 565.90 M 438.73 691.14 C 438.11 693.51 440.39 694.89 442.04 696.04 C 449.06 700.56 456.61 704.15 463.97 708.07 C 483.46 718.00 503.95 727.04 525.91 729.45 C 528.72 729.60 532.09 730.57 534.13 727.96 C 530.65 726.26 526.74 726.02 523.02 725.16 C 503.91 721.38 486.41 712.46 468.96 704.14 C 460.96 700.52 453.10 696.60 445.23 692.71 C 443.19 691.78 441.05 690.41 438.73 691.14 Z" />
        <path fill="var(--socks-color, grey)" opacity="1.00"
            d=" M 290.71 799.70 C 307.96 779.95 329.57 764.22 353.24 753.02 C 365.18 755.28 375.25 763.02 383.34 771.74 C 390.23 779.31 396.01 788.26 398.23 798.38 C 384.11 807.21 369.55 815.36 355.86 824.88 C 340.42 835.61 324.18 845.12 308.65 855.71 C 300.17 861.57 291.44 867.06 282.98 872.94 C 275.29 878.49 268.51 885.17 261.02 890.96 C 258.41 892.84 255.44 895.08 252.02 894.41 C 246.48 893.13 241.64 888.87 239.70 883.51 C 237.69 876.54 238.65 869.20 239.66 862.15 C 240.56 854.45 243.89 846.96 249.39 841.45 C 256.60 834.63 264.74 828.82 271.51 821.53 C 278.52 814.81 284.37 807.03 290.71 799.70 Z" />
        <path fill="var(--socks-color, grey)" opacity="1.00"
            d=" M 498.53 764.52 C 506.43 762.62 514.61 764.35 522.08 767.10 C 534.40 771.05 546.33 777.16 555.33 786.63 C 548.25 798.97 542.72 812.12 535.51 824.39 C 526.34 841.06 516.30 857.21 506.58 873.56 C 500.56 883.30 495.19 893.43 489.37 903.29 C 485.67 909.15 481.96 915.13 476.99 920.01 C 471.99 924.84 465.34 927.21 459.08 929.92 C 452.42 932.66 445.84 935.72 438.83 937.45 C 432.35 938.73 424.85 937.77 419.98 932.95 C 417.34 930.13 417.83 925.77 419.33 922.52 C 423.25 913.82 429.09 906.22 434.20 898.21 C 444.02 883.16 447.93 865.41 453.41 848.55 C 459.06 830.18 468.91 813.57 477.61 796.56 C 483.47 785.19 490.50 774.47 498.53 764.52 Z" />
    </g>
    <g id="#4d4d4dff">
        <path fill="#4d4d4d" opacity="1.00"
            d=" M 191.75 852.80 C 196.73 850.20 202.45 849.34 208.01 849.34 C 217.46 849.38 226.88 850.25 236.22 851.62 C 232.89 861.43 233.07 871.96 234.21 882.14 C 235.55 891.75 244.74 898.63 254.06 899.53 C 252.37 908.47 251.35 917.91 254.29 926.72 C 258.49 940.91 273.08 948.85 277.16 963.14 C 262.91 965.35 248.31 964.87 234.04 963.11 C 226.83 962.04 218.83 961.02 213.52 955.49 C 203.89 945.79 200.32 932.05 197.99 918.99 C 195.47 906.70 193.86 894.23 191.06 881.99 C 189.60 874.95 187.68 868.00 186.73 860.88 C 185.81 857.26 188.97 854.45 191.75 852.80 Z" />
        <path fill="#4d4d4d" opacity="1.00"
            d=" M 450.64 938.66 C 459.28 935.13 468.06 931.78 476.08 926.94 C 489.00 930.98 499.73 939.49 511.94 945.04 C 519.24 948.53 526.42 952.30 533.06 956.94 C 539.76 961.72 548.06 965.37 551.38 973.50 C 548.17 975.13 544.66 976.17 541.04 976.08 C 517.29 976.03 493.73 972.18 469.99 971.85 C 452.33 972.23 434.65 973.94 416.97 972.77 C 412.00 972.39 406.93 971.75 402.31 969.78 C 397.97 968.00 396.30 963.08 395.19 958.92 C 393.86 952.71 398.57 947.62 402.18 943.19 C 405.43 939.24 409.46 936.02 413.81 933.36 C 417.25 937.82 422.05 941.30 427.70 942.23 C 435.53 944.02 443.42 941.59 450.64 938.66 Z" />
    </g>
</svg>