<?xml version="1.0" encoding="UTF-8" ?>
<!DOCTYPE svg PUBLIC "-//W3C//DTD SVG 1.1//EN" "http://www.w3.org/Graphics/SVG/1.1/DTD/svg11.dtd">
<svg width="1000pt" height="1000pt" viewBox="0 0 1000 1000" version="1.1" xmlns="http://www.w3.org/2000/svg">
<g id="#020202ff">
<path fill="#020202" opacity="1.00" d=" M 372.27 35.32 C 390.47 31.01 409.75 35.16 426.05 43.81 C 444.23 53.44 459.76 68.81 467.91 87.86 C 473.79 101.54 475.33 117.60 469.68 131.62 C 467.09 138.55 461.77 143.89 458.38 150.38 C 467.77 155.13 477.13 159.93 486.59 164.54 C 498.95 170.58 512.20 174.53 524.60 180.49 C 538.12 187.63 550.54 196.82 561.51 207.47 C 579.74 225.44 600.72 240.44 622.82 253.27 C 632.74 259.39 642.68 265.48 653.05 270.81 C 660.08 274.43 667.29 277.76 673.96 282.05 C 677.84 284.45 680.97 288.04 685.31 289.70 C 689.81 291.62 694.43 293.27 699.02 294.98 C 710.55 299.17 722.96 299.16 735.01 300.58 C 751.91 302.46 768.86 305.75 784.57 312.46 C 803.75 320.33 820.24 333.73 834.06 349.00 C 837.34 351.77 841.14 353.84 844.90 355.91 C 846.76 353.24 849.56 351.13 852.96 351.29 C 865.12 351.41 875.70 358.21 886.99 361.76 C 896.97 364.03 907.54 367.57 914.12 375.91 C 920.88 383.71 922.40 394.24 926.64 403.34 C 930.03 412.50 936.79 420.09 939.04 429.72 C 943.43 448.07 941.85 467.17 939.78 485.73 C 938.34 495.47 937.04 505.56 932.37 514.37 C 929.44 520.08 922.06 522.53 916.28 519.78 C 909.36 534.97 897.61 547.87 883.19 556.26 C 855.72 572.68 818.73 571.08 792.88 552.15 C 778.23 541.65 767.35 526.02 762.63 508.61 C 758.15 492.55 758.82 475.13 764.46 459.44 C 771.32 440.33 785.49 423.97 803.40 414.40 C 814.26 408.74 826.33 405.38 838.57 404.79 C 835.63 403.70 832.82 402.29 830.26 400.48 C 824.60 399.01 819.34 396.40 814.11 393.85 C 810.12 391.71 805.42 392.44 801.21 391.01 C 780.62 385.30 759.09 385.50 738.13 381.98 C 720.46 379.92 703.25 375.26 685.99 371.16 C 667.48 365.98 649.53 359.01 631.04 353.81 C 622.07 351.43 612.94 349.69 603.79 348.19 C 597.75 356.85 592.66 366.43 590.98 376.98 C 590.43 381.17 591.07 385.44 592.50 389.40 C 596.22 399.94 601.77 409.89 603.65 421.01 C 604.57 424.91 604.50 429.42 607.34 432.57 C 612.45 438.50 616.15 445.45 619.85 452.30 C 622.63 457.49 624.86 463.10 625.08 469.05 C 625.72 481.05 631.66 491.92 638.70 501.37 C 646.25 511.90 653.61 522.91 657.45 535.40 C 659.38 540.86 657.37 546.90 659.72 552.26 C 663.34 561.45 668.17 570.13 671.52 579.43 C 672.78 583.40 674.08 587.57 673.59 591.78 C 672.69 595.39 670.44 598.45 668.65 601.65 C 671.85 612.09 674.90 622.62 679.50 632.56 C 683.48 641.25 687.75 649.79 691.51 658.58 C 697.63 672.75 705.56 686.05 711.70 700.22 C 712.59 701.92 713.12 704.03 714.83 705.14 C 738.63 718.48 767.85 717.97 790.77 733.27 C 803.75 740.88 813.57 752.45 825.10 761.89 C 839.26 773.76 852.84 786.94 869.94 794.55 C 876.39 788.70 886.70 787.41 894.35 791.63 C 901.60 795.73 907.76 801.55 913.23 807.78 C 925.36 821.43 931.73 839.79 931.55 857.98 C 931.56 868.66 932.33 879.34 934.15 889.87 C 935.49 898.93 937.71 907.84 938.94 916.91 C 940.42 926.27 934.95 935.20 928.10 941.09 C 922.28 946.02 914.25 946.29 907.01 946.31 C 895.69 946.19 884.38 946.21 873.06 946.14 C 867.91 945.74 861.31 945.64 858.34 940.62 C 855.24 935.54 857.70 929.51 859.18 924.32 C 862.46 914.47 860.14 903.96 857.68 894.22 C 853.85 880.80 849.69 867.21 849.47 853.15 C 832.21 850.05 814.96 846.72 798.09 841.88 C 783.98 837.95 770.35 832.54 756.70 827.28 C 743.27 822.24 730.03 816.56 717.56 809.44 C 705.31 802.02 692.55 795.06 682.07 785.17 C 667.35 785.32 652.32 782.05 639.69 774.26 C 623.47 764.55 611.95 749.15 600.23 734.71 C 583.96 714.46 569.60 692.27 549.54 675.44 C 543.65 670.23 536.67 666.18 531.67 660.02 C 527.46 660.74 523.37 662.42 519.07 662.45 C 516.30 660.72 514.53 657.90 512.64 655.34 C 500.37 637.96 490.22 619.22 478.60 601.42 C 475.84 597.28 473.04 592.77 468.40 590.52 C 457.33 584.80 448.26 576.15 438.73 568.29 C 432.32 562.99 424.55 558.64 416.07 558.42 C 407.13 559.35 398.49 562.41 390.48 566.39 C 392.62 572.51 395.71 578.48 396.17 585.04 C 396.47 588.86 393.57 592.31 389.89 593.06 C 386.30 594.12 382.83 592.27 379.79 590.57 C 380.43 596.33 381.70 603.57 377.12 608.10 C 372.11 611.83 365.69 608.61 361.52 605.14 C 361.05 608.53 360.67 612.49 357.65 614.69 C 353.96 617.59 349.02 616.41 344.93 615.19 C 336.11 623.33 328.87 632.95 321.17 642.11 C 317.84 645.96 315.13 650.37 311.22 653.69 C 307.32 649.83 303.30 646.07 298.79 642.93 C 294.76 648.21 290.10 653.09 287.00 659.02 C 282.36 668.06 279.32 677.93 277.91 687.98 C 276.79 699.28 278.42 710.64 277.48 721.95 C 276.32 736.94 276.76 752.14 273.42 766.89 C 270.09 781.74 264.82 796.08 259.16 810.18 C 246.05 844.39 225.81 875.16 206.19 905.89 C 210.07 911.81 210.46 919.12 210.78 925.99 C 210.76 933.42 210.87 941.16 208.18 948.21 C 206.62 952.35 202.27 954.52 198.08 954.92 C 190.73 955.66 183.35 954.88 175.99 954.72 C 158.63 954.19 141.34 952.39 123.97 952.17 C 111.29 951.76 98.64 950.77 85.96 950.53 C 77.00 950.41 67.92 952.86 59.04 950.93 C 54.14 949.91 51.67 944.63 52.15 939.99 C 51.99 934.77 54.62 929.90 58.52 926.57 C 64.47 921.53 71.18 917.32 78.46 914.49 C 89.23 910.20 100.70 907.95 111.39 903.45 C 118.05 900.75 124.70 898.05 131.39 895.42 C 139.51 892.02 144.49 883.25 153.51 881.76 C 157.34 869.34 159.57 856.54 162.08 843.81 C 170.56 801.20 172.75 757.62 181.13 714.99 C 182.80 704.90 185.19 694.96 187.52 685.01 C 190.31 673.74 188.14 661.95 190.72 650.65 C 194.54 633.53 201.49 617.35 207.87 601.09 C 206.28 598.89 204.24 596.76 203.78 593.98 C 203.69 590.97 205.18 588.23 206.60 585.67 C 219.04 563.62 234.09 543.05 245.27 520.29 C 249.67 512.12 250.02 502.66 252.84 493.96 C 256.29 482.99 260.10 472.12 264.49 461.49 C 255.01 448.24 249.06 432.76 246.15 416.80 C 245.28 410.38 245.46 403.79 243.59 397.54 C 241.41 389.16 236.96 381.59 234.66 373.25 C 232.38 362.61 234.11 351.70 235.03 341.01 C 236.73 331.99 235.20 322.76 236.82 313.74 C 239.44 296.96 244.06 280.58 247.50 263.96 C 253.46 233.82 258.46 203.23 269.35 174.37 C 273.32 164.38 277.48 153.98 285.39 146.39 C 295.36 136.61 308.46 131.12 320.77 124.96 C 322.06 114.67 322.56 104.31 323.05 93.96 C 323.22 88.92 325.16 84.19 327.82 79.98 C 326.27 73.49 327.87 66.35 332.25 61.29 C 334.77 58.30 339.05 57.52 341.30 54.27 C 348.86 44.47 360.10 37.58 372.27 35.32 M 343.50 72.41 C 338.98 77.91 340.38 85.48 340.72 92.02 C 336.44 90.40 332.63 87.72 329.86 84.06 C 326.43 92.43 327.55 101.59 327.04 110.39 C 336.70 106.25 347.58 108.07 357.06 111.80 C 362.64 114.13 368.65 116.07 373.19 120.22 C 373.03 120.59 372.71 121.32 372.55 121.68 C 367.64 124.16 362.22 125.34 357.06 127.15 C 350.69 129.40 344.29 131.65 337.60 132.74 C 336.72 130.13 336.54 127.27 335.22 124.83 C 332.53 122.30 329.18 120.59 326.49 118.05 C 325.71 133.39 320.22 147.90 317.33 162.87 C 317.03 164.71 317.03 166.58 317.01 168.44 C 322.95 170.19 329.91 168.84 335.01 172.99 C 339.80 177.22 341.00 183.93 341.87 189.96 C 343.41 197.99 345.00 206.04 347.44 213.85 C 348.18 216.02 349.30 218.87 352.04 218.89 C 358.30 219.36 363.86 215.80 369.29 213.20 C 376.58 209.15 384.06 205.47 391.33 201.39 C 393.76 200.11 396.26 198.55 399.12 198.70 C 399.45 201.41 396.83 202.74 395.02 204.14 C 386.25 210.19 376.62 214.83 367.37 220.07 C 370.86 231.00 380.29 238.47 389.57 244.44 C 402.28 252.63 416.32 260.22 424.54 273.44 C 433.80 253.82 450.58 239.31 462.43 221.42 C 466.54 215.49 467.49 207.96 466.08 200.98 C 464.58 185.18 452.97 172.01 453.12 155.91 C 453.20 146.13 461.77 139.89 465.29 131.45 C 459.01 138.46 452.42 145.40 444.20 150.18 C 434.23 156.03 422.93 160.57 411.23 160.56 C 411.18 157.47 412.58 154.64 413.93 151.95 C 417.57 145.04 420.60 137.71 422.05 130.01 C 423.43 123.06 421.79 115.31 416.86 110.08 C 413.58 106.47 407.21 106.28 403.74 109.69 C 399.85 113.55 397.73 118.86 393.79 122.62 C 389.68 123.81 385.36 123.01 381.20 122.63 C 380.57 112.88 379.18 103.10 376.43 93.72 C 370.18 96.89 362.96 98.25 356.03 97.07 C 354.50 96.72 352.12 96.12 352.35 94.09 C 352.06 87.27 353.24 80.00 350.35 73.58 C 349.31 70.74 345.37 69.88 343.50 72.41 M 296.71 143.73 C 289.63 148.59 283.74 155.21 280.06 163.00 C 269.58 184.38 264.68 207.88 259.54 230.98 C 256.33 245.47 254.32 260.21 250.48 274.57 C 246.21 290.48 241.61 306.50 240.67 323.04 C 241.03 337.73 237.90 352.28 238.50 366.98 C 238.61 372.80 241.56 377.92 243.93 383.06 C 247.43 390.28 250.20 397.97 251.00 405.99 C 252.10 424.13 258.14 441.84 267.86 457.17 C 281.37 444.69 298.30 435.94 316.28 432.09 C 314.27 419.51 312.38 406.77 313.39 394.00 C 313.19 383.21 313.53 372.13 310.26 361.72 C 296.99 358.51 283.15 360.51 269.98 363.23 C 264.77 364.26 259.65 365.90 254.30 366.13 C 255.23 365.52 256.18 364.97 257.18 364.48 C 273.09 358.42 290.40 355.12 307.43 357.33 C 291.02 350.90 273.12 349.87 255.69 349.47 C 257.23 346.89 260.37 346.74 263.05 346.62 C 272.83 346.26 282.69 346.76 292.28 348.83 C 298.82 350.29 305.51 351.93 311.14 355.76 C 317.51 344.67 324.14 332.69 323.32 319.44 C 320.25 317.32 317.30 315.00 314.72 312.29 C 303.08 300.24 291.67 287.97 280.03 275.92 C 278.36 274.25 277.10 272.23 276.35 270.00 C 282.44 273.98 287.00 279.78 292.36 284.63 C 302.52 294.18 311.47 304.93 321.72 314.38 C 312.47 299.99 306.92 283.68 302.67 267.22 C 301.29 261.15 298.15 255.42 298.21 249.08 C 302.01 253.69 303.85 259.48 305.93 264.98 C 311.00 279.43 315.71 294.18 323.58 307.41 C 334.53 325.97 348.75 342.24 361.49 359.52 C 368.68 368.86 375.97 378.24 381.20 388.85 C 382.00 390.22 381.67 391.83 381.68 393.33 C 379.78 391.17 378.15 388.82 376.57 386.44 C 372.61 380.48 367.89 375.09 363.42 369.52 C 355.97 360.40 348.71 351.12 341.58 341.74 C 341.03 356.00 335.31 369.88 337.60 384.25 C 352.04 391.42 364.14 402.30 375.92 413.11 C 392.27 429.80 409.13 446.15 428.02 459.98 C 438.08 467.15 449.57 472.12 461.32 475.80 C 478.30 480.99 496.50 480.86 513.80 477.36 C 530.38 474.40 546.66 469.39 561.74 461.85 C 576.57 454.45 589.34 443.66 601.23 432.26 C 598.75 424.17 597.70 415.65 594.23 407.86 C 590.33 397.64 584.14 387.36 585.82 376.01 C 587.56 365.72 591.89 355.95 597.93 347.47 C 590.98 346.83 583.97 346.08 577.00 346.92 C 561.48 348.49 547.24 355.47 533.55 362.50 C 524.45 367.06 515.31 372.26 505.03 373.49 C 492.72 374.79 480.10 373.18 468.61 368.54 C 463.07 366.24 457.00 364.53 452.43 360.49 C 452.33 359.80 452.13 358.43 452.03 357.75 C 458.46 360.05 464.73 362.79 471.26 364.84 C 481.64 368.56 492.86 369.57 503.80 368.52 C 513.87 367.32 522.69 361.99 531.64 357.63 C 540.55 353.00 549.73 348.86 559.25 345.62 C 551.24 344.87 543.10 343.72 535.74 340.28 C 527.79 336.82 521.39 330.72 515.65 324.37 C 505.87 312.45 498.52 298.49 487.02 288.03 C 484.36 285.59 481.58 283.21 479.52 280.22 C 481.28 280.22 483.21 280.11 484.69 281.26 C 490.02 284.82 494.57 289.42 499.12 293.91 C 507.07 301.83 512.59 311.72 519.71 320.32 C 525.13 326.30 531.18 332.01 538.58 335.43 C 547.42 339.72 557.33 340.70 566.94 341.95 C 573.28 342.94 579.61 341.20 585.97 341.58 C 618.51 342.92 649.73 353.40 679.80 365.16 C 700.55 369.80 721.32 374.68 742.44 377.36 C 763.84 380.90 786.02 380.58 806.76 387.62 C 811.54 383.83 816.33 379.73 819.16 374.20 C 823.97 366.21 823.99 356.30 829.30 348.56 C 819.76 340.86 810.50 332.79 800.62 325.52 C 779.21 312.54 754.14 307.35 729.51 304.88 C 718.35 303.83 706.99 303.01 696.43 298.95 C 705.34 304.57 715.05 308.70 724.38 313.52 C 732.41 317.62 739.68 322.99 747.46 327.52 C 751.39 329.90 755.65 331.88 759.03 335.08 C 752.96 334.54 747.92 330.80 742.46 328.49 C 732.48 324.08 723.18 318.36 713.28 313.80 C 704.21 309.53 695.28 304.83 687.17 298.90 C 679.98 293.74 673.71 287.25 665.65 283.39 C 651.80 276.36 637.72 269.71 624.67 261.25 C 616.95 256.28 608.85 251.92 601.33 246.64 C 587.26 236.95 573.38 226.79 561.34 214.62 C 549.38 202.64 536.08 191.76 520.92 184.09 C 513.02 180.46 504.90 177.33 496.83 174.10 C 489.83 171.32 483.12 167.89 476.25 164.83 C 470.23 162.14 464.77 158.33 458.59 156.00 C 459.51 168.17 466.39 178.60 470.08 189.96 C 472.04 197.91 473.82 206.30 472.17 214.47 C 470.15 223.13 464.26 230.12 458.79 236.87 C 450.81 246.52 442.43 255.85 434.92 265.87 C 431.47 270.40 428.80 275.48 425.14 279.85 C 419.91 275.08 416.02 269.03 410.52 264.53 C 401.99 257.51 392.41 251.92 383.44 245.50 C 375.28 239.13 366.78 232.12 363.37 221.96 C 358.64 223.70 352.89 225.72 348.22 222.80 C 342.30 217.85 341.44 209.60 339.75 202.55 C 337.75 194.38 338.36 185.09 332.90 178.16 C 327.73 172.58 318.23 176.72 313.03 171.11 C 311.33 168.04 312.11 164.27 312.62 160.96 C 314.94 150.56 317.55 140.22 320.05 129.85 C 312.53 134.92 304.00 138.28 296.71 143.73 M 327.55 322.94 C 327.58 334.70 322.24 345.52 316.42 355.42 C 315.60 357.12 314.13 358.90 314.82 360.91 C 319.44 375.74 317.55 391.48 317.66 406.75 C 323.17 400.11 328.76 393.39 335.78 388.27 C 330.03 376.03 334.38 362.54 336.57 350.01 C 337.34 344.70 339.09 338.32 335.32 333.73 C 332.65 330.19 329.96 326.67 327.55 322.94 M 820.65 382.63 C 818.79 385.52 815.82 387.38 813.13 389.41 C 818.00 391.26 822.81 393.30 827.47 395.66 C 832.56 389.49 837.36 382.95 840.61 375.60 C 842.83 370.61 843.29 365.11 843.93 359.75 C 839.74 357.56 835.58 355.32 831.62 352.73 C 828.11 362.73 826.40 373.53 820.65 382.63 M 849.04 358.04 C 847.89 362.98 848.47 368.17 847.07 373.07 C 844.58 382.33 838.72 390.15 832.91 397.60 C 839.67 401.71 847.81 401.36 855.19 403.56 C 865.84 406.61 876.65 409.85 886.00 415.98 C 893.90 421.18 901.46 427.13 907.45 434.51 C 916.14 444.79 920.02 458.63 918.98 471.96 C 918.60 475.82 918.97 479.77 920.81 483.25 C 922.22 476.87 922.73 470.35 923.19 463.86 C 923.19 462.21 924.09 460.81 924.91 459.45 C 926.20 465.19 926.52 471.11 926.81 476.97 C 926.60 490.34 920.82 502.94 920.47 516.30 C 923.15 515.34 926.38 514.59 927.77 511.79 C 931.86 504.31 932.95 495.66 934.27 487.36 C 935.74 474.98 936.88 462.50 936.29 450.02 C 935.70 439.42 934.86 428.23 929.12 418.97 C 923.62 410.38 919.91 400.81 916.74 391.16 C 914.88 385.88 912.67 380.42 908.52 376.52 C 902.94 372.01 896.19 369.08 889.21 367.57 C 876.99 365.13 866.44 357.40 853.97 355.85 C 852.15 355.62 849.20 355.61 849.04 358.04 M 795.76 424.30 C 793.63 428.44 790.85 432.19 788.27 436.05 C 788.47 440.36 788.90 444.65 789.48 448.93 C 798.85 447.46 808.35 447.28 817.82 447.47 C 824.48 439.86 831.94 432.99 839.49 426.28 C 838.05 420.66 836.85 414.99 835.67 409.32 C 821.30 410.57 807.49 415.96 795.76 424.30 M 879.53 439.19 C 884.39 448.96 887.03 459.81 887.64 470.69 C 894.70 473.64 901.20 478.11 906.09 484.03 C 908.74 481.68 911.33 479.26 913.90 476.81 C 914.72 467.39 914.19 457.61 910.38 448.84 C 906.06 440.76 900.07 433.63 893.17 427.62 C 888.85 431.74 884.59 435.98 879.53 439.19 M 842.01 429.62 C 835.30 436.57 827.92 442.84 821.06 449.65 C 826.22 458.96 828.85 469.60 829.46 480.19 C 840.09 480.81 850.12 484.91 859.60 489.50 C 865.32 481.29 873.14 474.08 882.53 470.35 C 881.77 459.98 879.35 449.69 875.14 440.17 C 863.62 438.54 852.31 435.04 842.01 429.62 M 776.45 444.45 C 766.62 459.25 762.20 477.43 763.98 495.09 C 768.41 491.58 773.03 488.31 778.05 485.68 C 776.64 473.59 779.84 460.98 786.19 450.63 C 784.81 445.99 784.44 441.14 783.45 436.42 C 780.28 438.24 778.49 441.56 776.45 444.45 M 270.07 460.52 C 271.80 463.34 273.53 466.16 275.27 468.98 C 288.96 460.70 302.26 451.14 317.72 446.40 C 316.59 443.55 315.49 440.69 314.39 437.83 C 298.22 442.11 283.18 450.20 270.07 460.52 M 276.40 473.00 C 279.05 486.16 280.79 499.48 283.65 512.60 C 287.22 530.51 292.67 548.06 300.27 564.68 C 304.38 573.55 308.41 582.67 314.72 590.25 C 316.45 592.52 319.05 593.77 321.67 594.74 C 324.56 579.26 321.18 563.41 316.25 548.71 C 314.34 542.61 311.37 536.89 309.63 530.73 C 314.73 536.19 317.18 543.40 319.84 550.23 C 323.80 561.06 327.44 572.31 327.26 583.98 C 326.91 589.04 330.29 593.12 332.81 597.16 C 336.74 603.03 341.45 609.09 348.36 611.51 C 350.84 612.35 354.57 612.61 355.88 609.79 C 357.48 605.34 356.07 600.52 355.01 596.10 C 351.66 583.84 347.02 571.99 343.21 559.88 C 341.26 553.50 338.60 547.16 338.82 540.36 C 342.39 544.44 343.61 549.82 345.42 554.79 C 350.00 568.64 356.64 581.79 360.06 596.02 C 360.91 600.50 364.98 603.42 368.87 605.22 C 371.02 606.17 374.44 606.25 375.47 603.68 C 377.05 599.27 376.16 594.47 375.36 589.99 C 372.63 577.36 368.52 565.07 364.18 552.91 C 362.28 547.45 359.76 542.13 359.02 536.34 C 363.31 539.05 364.55 544.21 366.50 548.56 C 370.77 559.27 374.84 570.08 377.72 581.26 C 378.87 586.24 384.61 590.74 389.70 588.70 C 392.61 587.35 391.52 583.70 390.90 581.30 C 387.21 569.79 382.06 558.82 377.18 547.78 C 371.41 535.30 366.02 522.63 359.54 510.50 C 357.31 505.83 351.80 504.65 347.61 502.39 C 348.72 501.07 349.94 499.49 351.93 500.18 C 366.12 503.38 374.75 517.89 389.17 520.54 C 388.84 517.42 388.19 514.29 386.49 511.62 C 379.69 500.12 369.75 490.68 358.56 483.50 C 349.50 477.73 341.30 470.77 332.96 464.04 C 327.69 459.88 323.79 454.15 317.95 450.68 C 303.40 456.72 289.72 464.64 276.40 473.00 M 907.86 488.04 C 908.14 499.25 904.14 510.17 898.53 519.73 C 899.68 525.46 900.29 531.34 899.91 537.19 C 906.30 529.78 911.97 521.46 915.08 512.13 C 916.23 504.10 918.71 496.34 920.04 488.35 C 917.23 487.24 915.67 484.73 914.66 482.04 C 912.53 484.19 910.23 486.16 907.86 488.04 M 800.63 503.62 C 802.64 513.10 806.03 522.20 810.50 530.79 C 822.01 532.16 833.76 535.91 842.81 543.37 C 850.39 537.62 857.93 531.72 864.20 524.50 C 860.83 514.58 859.09 504.09 858.66 493.63 C 848.96 489.15 838.96 484.82 828.25 483.65 C 821.10 492.67 811.16 499.20 800.63 503.62 M 771.11 494.63 C 772.27 502.02 772.28 509.52 772.11 516.98 C 772.23 518.83 771.70 520.87 772.64 522.60 C 777.68 532.18 784.97 540.46 793.41 547.20 C 797.25 541.28 802.31 536.22 808.17 532.29 C 802.11 524.05 798.83 513.99 797.44 503.93 C 790.02 500.11 784.68 493.51 778.70 487.88 C 776.12 490.07 773.59 492.33 771.11 494.63 M 867.19 526.77 C 860.82 534.57 852.79 540.97 843.84 545.56 C 847.09 550.86 849.46 556.72 850.43 562.89 C 867.56 560.67 883.91 552.91 896.32 540.88 C 896.49 534.53 896.41 528.16 895.34 521.88 C 886.57 525.91 876.74 526.93 867.19 526.77 M 213.27 599.24 C 208.82 612.53 203.01 625.34 198.75 638.70 C 196.47 645.92 194.52 653.32 194.24 660.92 C 194.03 666.78 194.16 672.64 193.79 678.50 C 200.77 682.44 208.48 684.85 216.18 686.99 C 234.11 691.61 252.50 694.96 271.07 695.13 C 271.53 682.76 275.26 670.68 280.62 659.60 C 284.09 652.25 289.93 646.50 295.33 640.58 C 269.56 623.92 241.92 610.19 213.27 599.24 M 632.28 639.37 C 623.83 642.37 615.06 644.27 606.32 646.14 C 583.32 651.05 560.31 656.02 537.00 659.24 C 541.52 662.63 546.04 666.01 550.48 669.50 C 564.15 680.10 575.22 693.56 585.77 707.15 C 596.52 721.04 607.05 735.12 618.47 748.48 C 627.79 759.35 638.75 769.27 652.13 774.80 C 660.44 778.64 669.61 779.66 678.53 781.21 C 676.12 777.51 672.60 774.22 671.81 769.72 C 672.33 769.64 673.37 769.46 673.89 769.38 C 679.81 775.06 685.08 781.47 691.64 786.51 C 697.87 784.37 703.58 780.84 708.32 776.27 C 719.15 765.77 726.71 751.84 729.43 736.99 C 730.65 729.76 730.66 721.73 726.75 715.29 C 723.26 713.09 719.32 711.69 715.77 709.59 C 717.34 714.62 719.50 719.50 720.25 724.76 C 718.90 724.22 717.16 724.13 716.53 722.60 C 709.13 709.35 703.10 695.39 695.83 682.08 C 688.24 668.23 682.49 653.51 675.78 639.24 C 671.04 629.04 667.81 618.22 665.86 607.16 C 658.88 621.25 647.53 634.22 632.28 639.37 M 873.33 795.95 C 878.57 798.30 884.33 800.28 888.11 804.87 C 893.95 811.88 897.10 821.66 894.55 830.66 C 892.24 840.00 884.66 847.04 876.38 851.35 C 869.53 854.98 861.55 854.60 854.05 854.11 C 855.08 866.38 858.27 878.34 862.02 890.03 C 865.47 901.65 868.38 914.45 864.09 926.26 C 862.99 930.16 860.64 934.43 862.47 938.48 C 868.25 941.10 874.85 940.36 881.03 940.48 C 892.70 940.09 904.40 940.98 916.05 940.11 C 924.25 939.64 931.05 933.16 933.68 925.66 C 935.55 920.04 933.71 914.14 932.70 908.55 C 929.34 893.25 926.70 877.69 926.88 861.97 C 927.04 853.50 926.75 844.91 924.09 836.80 C 919.42 820.14 907.78 806.07 893.68 796.39 C 887.63 792.07 879.78 793.32 873.33 795.95 M 150.38 888.26 C 143.98 892.50 138.53 898.29 131.27 901.17 C 123.78 904.10 116.20 906.81 108.72 909.75 C 95.48 914.81 80.98 917.06 69.03 925.09 C 64.61 928.11 59.46 931.05 57.35 936.24 C 56.17 939.74 56.27 945.80 61.09 946.23 C 69.39 947.42 77.69 945.18 86.02 945.30 C 99.36 945.42 112.67 946.48 125.99 947.09 C 148.68 947.74 171.31 949.71 194.00 950.14 C 196.98 949.85 201.69 950.60 202.78 946.91 C 205.69 937.22 205.63 926.88 204.92 916.88 C 204.92 913.23 202.36 910.45 199.88 908.10 C 188.04 897.23 173.10 889.18 156.94 887.57 C 154.76 887.45 152.36 887.11 150.38 888.26 Z" />
<path fill="#020202" opacity="1.00" d=" M 370.47 313.30 C 373.41 316.29 374.90 320.28 377.12 323.78 C 383.30 333.59 388.71 343.93 395.92 353.06 C 415.27 378.30 439.80 399.05 465.66 417.34 C 476.19 424.78 487.43 431.13 498.80 437.18 C 501.98 438.97 505.42 440.41 508.29 442.71 C 508.51 443.36 508.94 444.65 509.16 445.29 C 505.70 444.59 502.43 443.22 499.27 441.69 C 491.89 438.13 484.30 434.99 477.21 430.86 C 463.50 422.94 450.72 413.52 438.37 403.62 C 414.51 384.14 392.23 361.68 378.12 333.98 C 375.01 327.37 369.14 321.12 370.47 313.30 Z" />
</g>
<g id="#f0b58bff">
<path fill="#f0b58b" opacity="1.00" d=" M 343.50 72.41 C 345.37 69.88 349.31 70.74 350.35 73.58 C 353.24 80.00 352.06 87.27 352.35 94.09 C 352.12 96.12 354.50 96.72 356.03 97.07 C 362.96 98.25 370.18 96.89 376.43 93.72 C 379.18 103.10 380.57 112.88 381.20 122.63 C 385.36 123.01 389.68 123.81 393.79 122.62 C 397.73 118.86 399.85 113.55 403.74 109.69 C 407.21 106.28 413.58 106.47 416.86 110.08 C 421.79 115.31 423.43 123.06 422.05 130.01 C 420.60 137.71 417.57 145.04 413.93 151.95 C 412.58 154.64 411.18 157.47 411.23 160.56 C 422.93 160.57 434.23 156.03 444.20 150.18 C 452.42 145.40 459.01 138.46 465.29 131.45 C 461.77 139.89 453.20 146.13 453.12 155.91 C 452.97 172.01 464.58 185.18 466.08 200.98 C 467.49 207.96 466.54 215.49 462.43 221.42 C 450.58 239.31 433.80 253.82 424.54 273.44 C 416.32 260.22 402.28 252.63 389.57 244.44 C 380.29 238.47 370.86 231.00 367.37 220.07 C 376.62 214.83 386.25 210.19 395.02 204.14 C 396.83 202.74 399.45 201.41 399.12 198.70 C 396.26 198.55 393.76 200.11 391.33 201.39 C 384.06 205.47 376.58 209.15 369.29 213.20 C 363.86 215.80 358.30 219.36 352.04 218.89 C 349.30 218.87 348.18 216.02 347.44 213.85 C 345.00 206.04 343.41 197.99 341.87 189.96 C 341.00 183.93 339.80 177.22 335.01 172.99 C 329.91 168.84 322.95 170.19 317.01 168.44 C 317.03 166.58 317.03 164.71 317.33 162.87 C 320.22 147.90 325.71 133.39 326.49 118.05 C 329.18 120.59 332.53 122.30 335.22 124.83 C 336.54 127.27 336.72 130.13 337.60 132.74 C 344.29 131.65 350.69 129.40 357.06 127.15 C 362.22 125.34 367.64 124.16 372.55 121.68 C 372.71 121.32 373.03 120.59 373.19 120.22 C 368.65 116.07 362.64 114.13 357.06 111.80 C 347.58 108.07 336.70 106.25 327.04 110.39 C 327.55 101.59 326.43 92.43 329.86 84.06 C 332.63 87.72 336.44 90.40 340.72 92.02 C 340.38 85.48 338.98 77.91 343.50 72.41 Z" />
<path fill="#f0b58b" opacity="1.00" d=" M 820.65 382.63 C 826.40 373.53 828.11 362.73 831.62 352.73 C 835.58 355.32 839.74 357.56 843.93 359.75 C 843.29 365.11 842.83 370.61 840.61 375.60 C 837.36 382.95 832.56 389.49 827.47 395.66 C 822.81 393.30 818.00 391.26 813.13 389.41 C 815.82 387.38 818.79 385.52 820.65 382.63 Z" />
<path fill="#f0b58b" opacity="1.00" d=" M 270.07 460.52 C 283.18 450.20 298.22 442.11 314.39 437.83 C 315.49 440.69 316.59 443.55 317.72 446.40 C 302.26 451.14 288.96 460.70 275.27 468.98 C 273.53 466.16 271.80 463.34 270.07 460.52 Z" />
<path fill="#f0b58b" opacity="1.00" d=" M 213.27 599.24 C 241.92 610.19 269.56 623.92 295.33 640.58 C 289.93 646.50 284.09 652.25 280.62 659.60 C 275.26 670.68 271.53 682.76 271.07 695.13 C 252.50 694.96 234.11 691.61 216.18 686.99 C 208.48 684.85 200.77 682.44 193.79 678.50 C 194.16 672.64 194.03 666.78 194.24 660.92 C 194.52 653.32 196.47 645.92 198.75 638.70 C 203.01 625.34 208.82 612.53 213.27 599.24 Z" />
<path fill="#f0b58b" opacity="1.00" d=" M 632.28 639.37 C 647.53 634.22 658.88 621.25 665.86 607.16 C 667.81 618.22 671.04 629.04 675.78 639.24 C 682.49 653.51 688.24 668.23 695.83 682.08 C 703.10 695.39 709.13 709.35 716.53 722.60 C 717.16 724.13 718.90 724.22 720.25 724.76 C 719.50 719.50 717.34 714.62 715.77 709.59 C 719.32 711.69 723.26 713.09 726.75 715.29 C 730.66 721.73 730.65 729.76 729.43 736.99 C 726.71 751.84 719.15 765.77 708.32 776.27 C 703.58 780.84 697.87 784.37 691.64 786.51 C 685.08 781.47 679.81 775.06 673.89 769.38 C 673.37 769.46 672.33 769.64 671.81 769.72 C 672.60 774.22 676.12 777.51 678.53 781.21 C 669.61 779.66 660.44 778.64 652.13 774.80 C 638.75 769.27 627.79 759.35 618.47 748.48 C 607.05 735.12 596.52 721.04 585.77 707.15 C 575.22 693.56 564.15 680.10 550.48 669.50 C 546.04 666.01 541.52 662.63 537.00 659.24 C 560.31 656.02 583.32 651.05 606.32 646.14 C 615.06 644.27 623.83 642.37 632.28 639.37 Z" />
</g>
<g id="#f35e11ff">
<path fill="var(--shirt-color, grey)" opacity="1.00" d=" M 296.71 143.73 C 304.00 138.28 312.53 134.92 320.05 129.85 C 317.55 140.22 314.94 150.56 312.62 160.96 C 312.11 164.27 311.33 168.04 313.03 171.11 C 318.23 176.72 327.73 172.58 332.90 178.16 C 338.36 185.09 337.75 194.38 339.75 202.55 C 341.44 209.60 342.30 217.85 348.22 222.80 C 352.89 225.72 358.64 223.70 363.37 221.96 C 366.78 232.12 375.28 239.13 383.44 245.50 C 392.41 251.92 401.99 257.51 410.52 264.53 C 416.02 269.03 419.91 275.08 425.14 279.85 C 428.80 275.48 431.47 270.40 434.92 265.87 C 442.43 255.85 450.81 246.52 458.79 236.87 C 464.26 230.12 470.15 223.13 472.17 214.47 C 473.82 206.30 472.04 197.91 470.08 189.96 C 466.39 178.60 459.51 168.17 458.59 156.00 C 464.77 158.33 470.23 162.14 476.25 164.83 C 483.12 167.89 489.83 171.32 496.83 174.10 C 504.90 177.33 513.02 180.46 520.92 184.09 C 536.08 191.76 549.38 202.64 561.34 214.62 C 573.38 226.79 587.26 236.95 601.33 246.64 C 608.85 251.92 616.95 256.28 624.67 261.25 C 637.72 269.71 651.80 276.36 665.65 283.39 C 673.71 287.25 679.98 293.74 687.17 298.90 C 695.28 304.83 704.21 309.53 713.28 313.80 C 723.18 318.36 732.48 324.08 742.46 328.49 C 747.92 330.80 752.96 334.54 759.03 335.08 C 755.65 331.88 751.39 329.90 747.46 327.52 C 739.68 322.99 732.41 317.62 724.38 313.52 C 715.05 308.70 705.34 304.57 696.43 298.95 C 706.99 303.01 718.35 303.83 729.51 304.88 C 754.14 307.35 779.21 312.54 800.62 325.52 C 810.50 332.79 819.76 340.86 829.30 348.56 C 823.99 356.30 823.97 366.21 819.16 374.20 C 816.33 379.73 811.54 383.83 806.76 387.62 C 786.02 380.58 763.84 380.90 742.44 377.36 C 721.32 374.68 700.55 369.80 679.80 365.16 C 649.73 353.40 618.51 342.92 585.97 341.58 C 579.61 341.20 573.28 342.94 566.94 341.95 C 557.33 340.70 547.42 339.72 538.58 335.43 C 531.18 332.01 525.13 326.30 519.71 320.32 C 512.59 311.72 507.07 301.83 499.12 293.91 C 494.57 289.42 490.02 284.82 484.69 281.26 C 483.21 280.11 481.28 280.22 479.52 280.22 C 481.58 283.21 484.36 285.59 487.02 288.03 C 498.52 298.49 505.87 312.45 515.65 324.37 C 521.39 330.72 527.79 336.82 535.74 340.28 C 543.10 343.72 551.24 344.87 559.25 345.62 C 549.73 348.86 540.55 353.00 531.64 357.63 C 522.69 361.99 513.87 367.32 503.80 368.52 C 492.86 369.57 481.64 368.56 471.26 364.84 C 464.73 362.79 458.46 360.05 452.03 357.75 C 452.13 358.43 452.33 359.80 452.43 360.49 C 457.00 364.53 463.07 366.24 468.61 368.54 C 480.10 373.18 492.72 374.79 505.03 373.49 C 515.31 372.26 524.45 367.06 533.55 362.50 C 547.24 355.47 561.48 348.49 577.00 346.92 C 583.97 346.08 590.98 346.83 597.93 347.47 C 591.89 355.95 587.56 365.72 585.82 376.01 C 584.14 387.36 590.33 397.64 594.23 407.86 C 597.70 415.65 598.75 424.17 601.23 432.26 C 589.34 443.66 576.57 454.45 561.74 461.85 C 546.66 469.39 530.38 474.40 513.80 477.36 C 496.50 480.86 478.30 480.99 461.32 475.80 C 449.57 472.12 438.08 467.15 428.02 459.98 C 409.13 446.15 392.27 429.80 375.92 413.11 C 364.14 402.30 352.04 391.42 337.60 384.25 C 335.31 369.88 341.03 356.00 341.58 341.74 C 348.71 351.12 355.97 360.40 363.42 369.52 C 367.89 375.09 372.61 380.48 376.57 386.44 C 378.15 388.82 379.78 391.17 381.68 393.33 C 381.67 391.83 382.00 390.22 381.20 388.85 C 375.97 378.24 368.68 368.86 361.49 359.52 C 348.75 342.24 334.53 325.97 323.58 307.41 C 315.71 294.18 311.00 279.43 305.93 264.98 C 303.85 259.48 302.01 253.69 298.21 249.08 C 298.15 255.42 301.29 261.15 302.67 267.22 C 306.92 283.68 312.47 299.99 321.72 314.38 C 311.47 304.93 302.52 294.18 292.36 284.63 C 287.00 279.78 282.44 273.98 276.35 270.00 C 277.10 272.23 278.36 274.25 280.03 275.92 C 291.67 287.97 303.08 300.24 314.72 312.29 C 317.30 315.00 320.25 317.32 323.32 319.44 C 324.14 332.69 317.51 344.67 311.14 355.76 C 305.51 351.93 298.82 350.29 292.28 348.83 C 282.69 346.76 272.83 346.26 263.05 346.62 C 260.37 346.74 257.23 346.89 255.69 349.47 C 273.12 349.87 291.02 350.90 307.43 357.33 C 290.40 355.12 273.09 358.42 257.18 364.48 C 256.18 364.97 255.23 365.52 254.30 366.13 C 259.65 365.90 264.77 364.26 269.98 363.23 C 283.15 360.51 296.99 358.51 310.26 361.72 C 313.53 372.13 313.19 383.21 313.39 394.00 C 312.38 406.77 314.27 419.51 316.28 432.09 C 298.30 435.94 281.37 444.69 267.86 457.17 C 258.14 441.84 252.10 424.13 251.00 405.99 C 250.20 397.97 247.43 390.28 243.93 383.06 C 241.56 377.92 238.61 372.80 238.50 366.98 C 237.90 352.28 241.03 337.73 240.67 323.04 C 241.61 306.50 246.21 290.48 250.48 274.57 C 254.32 260.21 256.33 245.47 259.54 230.98 C 264.68 207.88 269.58 184.38 280.06 163.00 C 283.74 155.21 289.63 148.59 296.71 143.73 M 370.47 313.30 C 369.14 321.12 375.01 327.37 378.12 333.98 C 392.23 361.68 414.51 384.14 438.37 403.62 C 450.72 413.52 463.50 422.94 477.21 430.86 C 484.30 434.99 491.89 438.13 499.27 441.69 C 502.43 443.22 505.70 444.59 509.16 445.29 C 508.94 444.65 508.51 443.36 508.29 442.71 C 505.42 440.41 501.98 438.97 498.80 437.18 C 487.43 431.13 476.19 424.78 465.66 417.34 C 439.80 399.05 415.27 378.30 395.92 353.06 C 388.71 343.93 383.30 333.59 377.12 323.78 C 374.90 320.28 373.41 316.29 370.47 313.30 Z" />
</g>
<g id="#4d4d4dff">
<path fill="#4d4d4d" opacity="1.00" d=" M 849.04 358.04 C 849.20 355.61 852.15 355.62 853.97 355.85 C 866.44 357.40 876.99 365.13 889.21 367.57 C 896.19 369.08 902.94 372.01 908.52 376.52 C 912.67 380.42 914.88 385.88 916.74 391.16 C 919.91 400.81 923.62 410.38 929.12 418.97 C 934.86 428.23 935.70 439.42 936.29 450.02 C 936.88 462.50 935.74 474.98 934.27 487.36 C 932.95 495.66 931.86 504.31 927.77 511.79 C 926.38 514.59 923.15 515.34 920.47 516.30 C 920.82 502.94 926.60 490.34 926.81 476.97 C 926.52 471.11 926.20 465.19 924.91 459.45 C 924.09 460.81 923.19 462.21 923.19 463.86 C 922.73 470.35 922.22 476.87 920.81 483.25 C 918.97 479.77 918.60 475.82 918.98 471.96 C 920.02 458.63 916.14 444.79 907.45 434.51 C 901.46 427.13 893.90 421.18 886.00 415.98 C 876.65 409.85 865.84 406.61 855.19 403.56 C 847.81 401.36 839.67 401.71 832.91 397.60 C 838.72 390.15 844.58 382.33 847.07 373.07 C 848.47 368.17 847.89 362.98 849.04 358.04 Z" />
<path fill="#4d4d4d" opacity="1.00" d=" M 276.40 473.00 C 289.72 464.64 303.40 456.72 317.95 450.68 C 323.79 454.15 327.69 459.88 332.96 464.04 C 341.30 470.77 349.50 477.73 358.56 483.50 C 369.75 490.68 379.69 500.12 386.49 511.62 C 388.19 514.29 388.84 517.42 389.17 520.54 C 374.75 517.89 366.12 503.38 351.93 500.18 C 349.94 499.49 348.72 501.07 347.61 502.39 C 351.80 504.65 357.31 505.83 359.54 510.50 C 366.02 522.63 371.41 535.30 377.18 547.78 C 382.06 558.82 387.21 569.79 390.90 581.30 C 391.52 583.70 392.61 587.35 389.70 588.70 C 384.61 590.74 378.87 586.24 377.72 581.26 C 374.84 570.08 370.77 559.27 366.50 548.56 C 364.55 544.21 363.31 539.05 359.02 536.34 C 359.76 542.13 362.28 547.45 364.18 552.91 C 368.52 565.07 372.63 577.36 375.36 589.99 C 376.16 594.47 377.05 599.27 375.47 603.68 C 374.44 606.25 371.02 606.17 368.87 605.22 C 364.98 603.42 360.91 600.50 360.06 596.02 C 356.64 581.79 350.00 568.64 345.42 554.79 C 343.61 549.82 342.39 544.44 338.82 540.36 C 338.60 547.16 341.26 553.50 343.21 559.88 C 347.02 571.99 351.66 583.84 355.01 596.10 C 356.07 600.52 357.48 605.34 355.88 609.79 C 354.57 612.61 350.84 612.35 348.36 611.51 C 341.45 609.09 336.74 603.03 332.81 597.16 C 330.29 593.12 326.91 589.04 327.26 583.98 C 327.44 572.31 323.80 561.06 319.84 550.23 C 317.18 543.40 314.73 536.19 309.63 530.73 C 311.37 536.89 314.34 542.61 316.25 548.71 C 321.18 563.41 324.56 579.26 321.67 594.74 C 319.05 593.77 316.45 592.52 314.72 590.25 C 308.41 582.67 304.38 573.55 300.27 564.68 C 292.67 548.06 287.22 530.51 283.65 512.60 C 280.79 499.48 279.05 486.16 276.40 473.00 Z" />
<path fill="#4d4d4d" opacity="1.00" d=" M 873.33 795.95 C 879.78 793.32 887.63 792.07 893.68 796.39 C 907.78 806.07 919.42 820.14 924.09 836.80 C 926.75 844.91 927.04 853.50 926.88 861.97 C 926.70 877.69 929.34 893.25 932.70 908.55 C 933.71 914.14 935.55 920.04 933.68 925.66 C 931.05 933.16 924.25 939.64 916.05 940.11 C 904.40 940.98 892.70 940.09 881.03 940.48 C 874.85 940.36 868.25 941.10 862.47 938.48 C 860.64 934.43 862.99 930.16 864.09 926.26 C 868.38 914.45 865.47 901.65 862.02 890.03 C 858.27 878.34 855.08 866.38 854.05 854.11 C 861.55 854.60 869.53 854.98 876.38 851.35 C 884.66 847.04 892.24 840.00 894.55 830.66 C 897.10 821.66 893.95 811.88 888.11 804.87 C 884.33 800.28 878.57 798.30 873.33 795.95 Z" />
<path fill="#4d4d4d" opacity="1.00" d=" M 150.38 888.26 C 152.36 887.11 154.76 887.45 156.94 887.57 C 173.10 889.18 188.04 897.23 199.88 908.10 C 202.36 910.45 204.92 913.23 204.92 916.88 C 205.63 926.88 205.69 937.22 202.78 946.91 C 201.69 950.60 196.98 949.85 194.00 950.14 C 171.31 949.71 148.68 947.74 125.99 947.09 C 112.67 946.48 99.36 945.42 86.02 945.30 C 77.69 945.18 69.39 947.42 61.09 946.23 C 56.27 945.80 56.17 939.74 57.35 936.24 C 59.46 931.05 64.61 928.11 69.03 925.09 C 80.98 917.06 95.48 914.81 108.72 909.75 C 116.20 906.81 123.78 904.10 131.27 901.17 C 138.53 898.29 143.98 892.50 150.38 888.26 Z" />
</g>
<g id="#ffffffff">
<path fill="#ffffff" opacity="1.00" d=" M 795.76 424.30 C 807.49 415.96 821.30 410.57 835.67 409.32 C 836.85 414.99 838.05 420.66 839.49 426.28 C 831.94 432.99 824.48 439.86 817.82 447.47 C 808.35 447.28 798.85 447.46 789.48 448.93 C 788.90 444.65 788.47 440.36 788.27 436.05 C 790.85 432.19 793.63 428.44 795.76 424.30 Z" />
<path fill="#ffffff" opacity="1.00" d=" M 879.53 439.19 C 884.59 435.98 888.85 431.74 893.17 427.62 C 900.07 433.63 906.06 440.76 910.38 448.84 C 914.19 457.61 914.72 467.39 913.90 476.81 C 911.33 479.26 908.74 481.68 906.09 484.03 C 901.20 478.11 894.70 473.64 887.64 470.69 C 887.03 459.81 884.39 448.96 879.53 439.19 Z" />
<path fill="#ffffff" opacity="1.00" d=" M 842.01 429.62 C 852.31 435.04 863.62 438.54 875.14 440.17 C 879.35 449.69 881.77 459.98 882.53 470.35 C 873.14 474.08 865.32 481.29 859.60 489.50 C 850.12 484.91 840.09 480.81 829.46 480.19 C 828.85 469.60 826.22 458.96 821.06 449.65 C 827.92 442.84 835.30 436.57 842.01 429.62 Z" />
<path fill="#ffffff" opacity="1.00" d=" M 776.45 444.45 C 778.49 441.56 780.28 438.24 783.45 436.42 C 784.44 441.14 784.81 445.99 786.19 450.63 C 779.84 460.98 776.64 473.59 778.05 485.68 C 773.03 488.31 768.41 491.58 763.98 495.09 C 762.20 477.43 766.62 459.25 776.45 444.45 Z" />
<path fill="#ffffff" opacity="1.00" d=" M 907.86 488.04 C 910.23 486.16 912.53 484.19 914.66 482.04 C 915.67 484.73 917.23 487.24 920.04 488.35 C 918.71 496.34 916.23 504.10 915.08 512.13 C 911.97 521.46 906.30 529.78 899.91 537.19 C 900.29 531.34 899.68 525.46 898.53 519.73 C 904.14 510.17 908.14 499.25 907.86 488.04 Z" />
<path fill="#ffffff" opacity="1.00" d=" M 800.63 503.62 C 811.16 499.20 821.10 492.67 828.25 483.65 C 838.96 484.82 848.96 489.15 858.66 493.63 C 859.09 504.09 860.83 514.58 864.20 524.50 C 857.93 531.72 850.39 537.62 842.81 543.37 C 833.76 535.91 822.01 532.16 810.50 530.79 C 806.03 522.20 802.64 513.10 800.63 503.62 Z" />
<path fill="#ffffff" opacity="1.00" d=" M 771.11 494.63 C 773.59 492.33 776.12 490.07 778.70 487.88 C 784.68 493.51 790.02 500.11 797.44 503.93 C 798.83 513.99 802.11 524.05 808.17 532.29 C 802.31 536.22 797.25 541.28 793.41 547.20 C 784.97 540.46 777.68 532.18 772.64 522.60 C 771.70 520.87 772.23 518.83 772.11 516.98 C 772.28 509.52 772.27 502.02 771.11 494.63 Z" />
<path fill="#ffffff" opacity="1.00" d=" M 867.19 526.77 C 876.74 526.93 886.57 525.91 895.34 521.88 C 896.41 528.16 896.49 534.53 896.32 540.88 C 883.91 552.91 867.56 560.67 850.43 562.89 C 849.46 556.72 847.09 550.86 843.84 545.56 C 852.79 540.97 860.82 534.57 867.19 526.77 Z" />
</g>
</svg>
