<?xml version="1.0" encoding="UTF-8" ?>
<!DOCTYPE svg PUBLIC "-//W3C//DTD SVG 1.1//EN" "http://www.w3.org/Graphics/SVG/1.1/DTD/svg11.dtd">
<svg width="1000pt" height="1000pt" viewBox="0 0 1000 1000" version="1.1" xmlns="http://www.w3.org/2000/svg">
<g id="#020202ff">
<path fill="#020202" opacity="1.00" d=" M 71.17 17.10 C 76.48 14.11 82.42 17.07 87.10 19.86 C 94.99 24.16 99.58 32.17 105.33 38.72 C 110.47 44.54 120.23 42.65 124.76 49.24 C 130.20 56.74 134.99 64.85 141.79 71.25 C 144.36 73.73 147.38 75.69 149.97 78.14 C 152.11 80.20 151.85 83.41 152.13 86.12 C 153.35 86.91 154.57 87.70 155.80 88.48 C 163.11 84.55 171.58 87.24 178.64 90.36 C 185.07 93.43 191.59 96.34 198.42 98.38 C 215.85 104.63 233.62 110.23 250.03 118.95 C 264.82 126.33 278.80 135.21 293.61 142.55 C 296.15 143.98 299.14 143.32 301.91 143.51 C 308.21 143.51 314.18 145.72 320.01 147.88 C 318.63 139.09 313.23 131.43 312.72 122.47 C 311.18 123.12 309.63 123.73 308.06 124.29 C 308.37 120.22 309.72 115.98 308.17 112.00 C 304.42 102.08 303.72 90.68 307.88 80.76 C 311.84 70.64 319.86 62.33 329.71 57.78 C 340.70 51.79 353.75 51.56 365.83 53.49 C 384.27 56.80 400.53 68.95 410.06 84.92 C 417.96 97.64 421.60 113.41 418.04 128.14 C 417.22 132.79 414.44 137.19 415.21 142.04 C 416.35 149.01 419.95 156.27 426.20 159.90 C 435.23 161.14 444.18 158.43 453.02 156.90 C 463.91 154.98 474.81 151.03 486.00 152.87 C 503.44 155.50 519.62 162.99 535.25 170.81 C 557.00 182.04 580.11 192.22 604.89 193.63 C 617.79 194.58 630.37 197.81 643.00 200.40 C 651.16 201.92 659.35 203.36 667.30 205.79 C 675.72 208.42 684.45 210.09 692.67 213.39 C 707.65 218.98 720.44 229.23 735.67 234.26 C 740.61 236.00 745.59 237.99 749.71 241.31 C 753.70 244.56 754.14 250.08 755.27 254.75 C 756.25 254.83 757.24 254.92 758.25 255.01 C 759.19 252.95 759.44 249.79 762.11 249.19 C 765.69 248.33 769.33 249.54 772.82 250.31 C 781.41 252.56 790.34 252.49 799.12 253.21 C 806.93 253.70 814.47 256.68 820.90 261.07 C 828.79 266.45 834.15 274.52 840.88 281.14 C 846.68 287.35 853.41 292.67 858.75 299.31 C 862.05 303.33 863.90 308.30 865.49 313.19 C 866.51 316.67 865.77 321.54 861.90 322.89 C 857.83 324.32 853.92 321.52 851.25 318.71 C 845.14 312.14 839.62 305.00 833.03 298.89 C 827.99 294.15 822.28 290.17 816.37 286.60 C 814.55 285.58 812.32 284.27 810.26 285.41 C 810.18 287.62 811.19 289.75 812.90 291.16 C 818.07 295.57 825.61 295.62 830.67 300.23 C 833.32 302.66 836.02 305.49 836.87 309.09 C 837.30 310.92 835.82 312.70 833.97 312.73 C 826.34 313.42 818.70 312.13 811.06 312.32 C 803.97 312.80 797.72 309.08 791.33 306.66 C 785.40 304.17 779.42 301.82 773.33 299.78 C 767.64 297.62 761.60 303.30 756.16 299.87 C 751.03 296.29 749.10 289.27 750.65 283.34 C 749.68 283.35 748.72 283.37 747.78 283.39 C 742.29 288.41 733.77 288.70 727.19 285.79 C 719.39 282.55 711.65 279.13 703.56 276.65 C 679.69 269.37 656.30 260.53 632.24 253.90 C 625.00 252.17 617.49 252.14 610.11 252.72 C 584.82 254.22 559.53 252.00 534.23 252.00 C 536.96 263.10 536.88 274.63 537.92 285.96 C 539.24 300.46 539.45 315.02 540.65 329.53 C 541.18 337.61 545.48 344.89 545.88 352.99 C 546.33 357.24 545.43 361.70 547.07 365.78 C 548.89 370.68 551.24 375.42 554.25 379.70 C 559.28 386.66 566.36 391.69 573.05 396.92 C 577.53 400.36 580.54 405.25 582.68 410.40 C 590.69 414.79 596.20 422.39 601.17 429.83 C 610.67 444.05 615.92 460.56 620.21 476.97 C 623.74 490.58 628.35 503.93 634.23 516.72 C 642.22 535.15 657.71 549.40 664.15 568.63 C 666.11 575.97 667.83 584.63 662.74 591.16 C 663.96 593.07 665.21 594.98 666.45 596.90 C 675.86 581.63 688.89 568.76 703.71 558.75 C 714.38 551.47 726.28 546.34 738.05 541.15 C 747.47 536.96 756.95 532.53 764.98 525.95 C 770.81 521.15 775.86 515.52 781.35 510.35 C 790.61 501.48 801.25 494.20 811.33 486.36 C 815.81 478.46 811.69 468.30 816.46 460.43 C 819.18 456.46 822.97 453.05 827.59 451.51 C 835.79 448.67 845.07 448.48 853.16 451.84 C 860.69 454.80 867.14 459.77 873.95 464.03 C 882.53 469.31 892.94 469.84 901.97 474.04 C 911.91 478.30 920.86 484.83 927.89 493.05 C 934.28 500.55 940.60 508.42 944.12 517.74 C 945.40 521.57 946.37 526.29 943.82 529.83 C 942.49 531.70 939.95 531.51 937.98 531.14 C 930.28 529.74 922.94 526.67 915.12 525.91 C 894.66 523.58 874.45 529.83 853.99 529.19 C 849.29 529.07 844.25 529.46 840.29 532.25 C 817.62 546.60 797.05 564.18 778.85 583.87 C 767.72 595.89 757.98 609.08 747.92 621.99 C 737.87 634.89 725.27 645.46 712.47 655.51 C 705.83 660.55 699.83 666.73 696.32 674.39 C 693.06 681.37 687.48 687.55 680.20 690.38 C 668.46 694.66 655.26 693.63 643.69 689.34 C 631.39 684.29 620.82 675.81 611.40 666.57 C 598.59 653.70 588.75 638.28 579.12 622.99 C 576.39 621.93 573.67 620.56 571.94 618.10 C 566.76 611.21 562.70 603.52 557.07 596.96 C 552.51 591.23 547.06 586.33 541.57 581.52 C 537.40 589.47 531.61 596.45 527.44 604.41 C 520.67 616.84 516.68 630.57 509.88 642.98 C 507.61 647.48 503.21 650.36 500.66 654.64 C 494.58 668.53 489.64 682.96 486.54 697.83 C 483.00 711.93 480.91 726.49 481.73 741.05 C 481.97 744.86 483.75 748.32 484.87 751.92 C 489.22 764.55 489.51 778.27 487.29 791.36 C 486.13 797.88 485.31 804.47 484.14 811.00 C 479.54 830.28 478.57 850.19 477.58 869.92 C 476.69 885.92 476.07 901.95 476.35 917.98 C 476.29 921.30 476.34 924.65 476.87 927.95 C 478.63 939.89 478.76 951.98 480.10 963.97 C 480.71 970.32 481.07 977.22 477.82 982.98 C 474.94 987.53 469.34 989.89 464.05 989.47 C 454.09 988.73 444.66 985.12 435.39 981.66 C 423.17 976.46 409.59 978.40 396.74 979.17 C 380.09 980.18 362.83 981.30 346.72 976.10 C 338.18 973.40 330.36 967.92 326.05 959.93 C 323.21 954.83 322.45 948.35 325.08 943.02 C 327.26 938.74 331.84 936.41 336.26 935.11 C 344.99 932.54 354.39 935.31 363.01 932.14 C 374.75 928.57 383.16 918.58 394.87 914.99 C 402.30 912.68 410.10 911.91 417.84 911.50 C 418.72 886.68 420.16 861.86 419.73 837.01 C 419.67 826.68 419.92 816.33 419.16 806.02 C 418.16 795.01 419.03 783.79 416.15 773.01 C 413.43 756.70 406.69 741.41 403.89 725.13 C 401.97 714.88 401.33 704.41 401.53 694.00 C 401.74 683.33 405.70 673.30 408.23 663.06 C 411.98 650.73 413.19 637.89 415.78 625.31 C 412.54 623.61 409.06 621.07 408.94 617.04 C 408.74 610.70 412.42 605.17 414.25 599.30 C 417.22 590.11 417.78 580.38 420.20 571.05 C 423.68 556.13 429.77 541.95 433.01 526.96 C 434.27 520.65 435.32 514.14 438.55 508.47 C 439.98 505.53 442.32 502.55 441.50 499.09 C 440.53 493.10 439.14 487.12 439.20 481.01 C 439.51 472.32 439.29 463.23 443.34 455.27 C 429.22 450.59 418.17 439.08 412.13 425.71 C 406.54 412.84 395.94 403.21 388.73 391.34 C 371.05 362.83 362.07 330.18 352.44 298.36 C 350.75 293.67 347.93 289.52 345.82 285.03 C 338.24 270.35 332.41 254.72 329.36 238.46 C 328.80 234.79 326.81 231.49 324.11 229.00 C 311.87 219.48 296.55 215.76 282.10 210.98 C 269.33 206.83 259.02 197.47 251.19 186.82 C 248.32 182.49 243.28 180.60 239.02 177.99 C 231.20 174.03 224.11 168.86 216.66 164.30 C 206.31 157.41 196.85 149.20 185.99 143.10 C 174.26 136.36 161.15 132.38 149.61 125.31 C 145.45 122.81 143.84 117.91 144.03 113.27 C 141.46 111.67 138.93 110.01 136.45 108.29 C 135.14 110.92 134.00 115.23 130.21 114.69 C 124.97 113.36 122.27 107.53 116.96 106.23 C 113.41 105.48 109.35 106.12 106.34 103.70 C 99.62 98.45 94.88 91.08 88.09 85.91 C 84.06 82.85 78.67 82.43 74.69 79.27 C 69.92 75.63 65.60 70.24 65.62 63.97 C 65.60 61.22 67.80 59.36 69.58 57.61 C 67.85 52.83 67.05 46.84 70.63 42.68 C 73.26 39.19 77.77 38.21 81.91 38.15 C 77.53 34.44 72.24 31.81 68.35 27.56 C 65.43 24.19 67.23 18.75 71.17 17.10 M 70.34 24.01 C 71.41 26.39 73.74 27.80 75.75 29.32 C 80.83 32.79 85.45 36.91 89.74 41.31 C 90.89 42.28 91.16 43.71 90.97 45.14 C 85.92 44.36 80.32 41.24 75.50 44.48 C 71.47 46.82 71.81 51.99 71.86 56.02 C 77.23 57.55 81.89 60.80 85.76 64.77 C 81.78 64.80 78.18 63.04 74.88 61.00 C 73.12 61.94 69.59 62.19 69.97 64.93 C 71.15 71.98 77.35 77.11 83.91 79.15 C 93.96 82.50 99.81 91.91 107.45 98.58 C 110.96 101.82 116.19 100.68 120.26 102.71 C 124.51 104.79 127.79 108.28 131.36 111.29 C 133.42 104.66 135.10 97.75 138.81 91.79 C 141.14 88.03 144.96 85.63 148.46 83.09 C 145.54 79.78 142.04 77.09 138.74 74.19 C 131.45 67.56 126.83 58.70 120.90 50.98 C 116.08 46.87 108.83 47.27 103.95 43.09 C 97.75 37.58 94.17 29.55 87.26 24.74 C 83.85 22.47 80.18 20.05 75.99 19.74 C 73.61 19.90 70.01 21.03 70.34 24.01 M 149.12 88.00 C 142.53 91.75 139.91 99.06 137.16 105.66 C 139.76 106.87 142.31 108.18 144.79 109.63 C 146.75 102.87 150.66 96.95 154.36 91.04 C 152.60 90.04 150.85 89.03 149.12 88.00 M 368.82 93.81 C 364.91 98.45 363.70 104.54 361.65 110.09 C 359.22 105.00 359.48 98.80 355.63 94.36 C 350.69 100.08 348.92 107.68 347.10 114.82 C 341.95 110.32 341.13 103.19 341.51 96.76 C 336.20 104.25 331.45 113.11 322.94 117.38 C 322.73 117.05 322.32 116.40 322.11 116.07 C 323.20 111.59 325.33 107.01 323.96 102.33 C 321.60 101.37 320.44 104.10 319.62 105.80 C 318.17 109.72 316.86 113.74 316.05 117.84 C 316.18 122.77 318.01 127.44 320.02 131.88 C 323.29 131.25 326.67 130.29 330.01 131.09 C 334.10 132.22 337.43 135.89 337.93 140.15 C 333.51 142.30 328.62 143.31 324.32 145.75 C 325.25 150.61 325.92 155.59 327.91 160.16 C 330.39 165.96 334.08 171.12 337.95 176.05 C 343.32 183.58 347.66 192.11 355.04 197.95 C 358.75 200.64 363.26 203.09 368.01 202.31 C 374.63 201.54 379.60 196.59 384.12 192.14 C 388.10 188.33 390.34 183.12 394.28 179.29 C 394.32 181.10 394.66 183.02 393.78 184.70 C 391.52 189.94 387.84 194.40 383.96 198.51 C 389.61 205.83 393.55 214.36 395.60 223.38 C 403.87 209.31 416.06 197.68 422.18 182.34 C 424.30 176.70 424.32 170.58 424.25 164.64 C 417.54 161.41 413.29 154.77 411.56 147.70 C 407.54 146.89 406.96 142.42 406.96 139.03 C 407.03 131.72 408.44 124.12 405.91 117.06 C 404.93 114.19 402.40 111.13 399.03 111.75 C 396.58 112.82 395.34 115.49 395.36 118.06 C 395.00 122.03 398.48 125.08 398.42 129.00 C 398.34 134.98 397.72 141.01 398.58 146.97 C 399.15 150.04 399.97 153.06 400.29 156.17 C 397.00 153.59 394.41 150.15 392.86 146.27 C 391.12 141.85 391.87 136.73 389.51 132.53 C 387.03 129.38 383.53 125.60 379.07 126.71 C 371.10 129.01 363.48 132.39 355.50 134.63 C 352.53 135.31 349.18 136.32 346.30 134.83 C 343.74 133.45 342.95 130.44 341.84 127.98 C 344.65 125.52 347.92 123.67 351.34 122.21 C 360.11 118.44 369.44 116.02 378.92 114.90 C 378.62 109.78 379.25 104.57 381.57 99.95 C 382.79 99.41 383.10 98.63 382.48 97.62 C 381.08 97.00 379.96 99.36 381.10 100.21 C 378.53 103.19 377.04 107.43 372.95 108.74 C 374.38 102.36 377.42 95.96 376.30 89.30 C 373.07 88.88 370.72 91.61 368.82 93.81 M 155.83 96.79 C 152.58 102.47 148.50 108.22 148.30 115.01 C 148.01 118.36 150.39 121.23 153.23 122.69 C 163.81 128.45 175.28 132.37 185.85 138.16 C 199.62 145.60 211.31 156.20 224.66 164.31 C 230.69 168.58 237.15 172.16 243.64 175.66 C 241.43 171.76 238.82 167.85 238.55 163.23 C 242.08 165.11 244.03 168.70 246.29 171.82 C 253.54 181.99 260.71 192.63 270.99 200.03 C 279.66 206.40 290.33 208.82 300.16 212.78 C 306.17 214.95 311.83 217.93 317.39 221.04 C 309.27 212.06 299.70 204.54 291.23 195.88 C 288.41 192.78 284.20 190.17 283.73 185.64 C 284.28 185.66 285.39 185.69 285.94 185.71 C 290.53 188.36 293.98 192.56 298.09 195.87 C 307.63 203.90 317.02 212.22 324.79 222.03 C 322.39 215.28 320.20 208.42 317.06 201.96 C 315.28 198.17 313.09 194.53 312.15 190.41 C 316.84 193.01 318.96 198.14 321.41 202.60 C 325.41 209.95 328.67 217.69 331.15 225.68 C 333.88 234.37 334.84 243.51 337.60 252.20 C 340.90 263.78 346.23 274.62 351.62 285.34 C 357.78 297.57 365.24 309.37 375.34 318.75 C 381.73 325.18 388.99 330.95 394.01 338.60 C 388.75 337.37 385.09 333.16 381.06 329.91 C 373.36 323.50 365.83 316.77 359.90 308.65 C 368.66 335.51 376.82 363.00 391.62 387.32 C 396.71 395.69 403.17 403.09 409.06 410.90 C 413.88 417.18 416.49 424.76 420.76 431.38 C 429.04 443.98 443.44 453.52 458.95 452.63 C 466.53 453.20 472.30 447.70 478.71 444.65 C 487.48 439.84 497.25 437.15 507.22 436.50 C 503.58 435.55 499.99 434.50 496.42 433.34 C 477.37 427.23 457.99 421.74 438.04 419.63 C 434.05 419.25 430.03 419.05 426.15 418.00 C 431.91 416.05 438.08 417.20 444.02 417.35 C 464.87 418.01 484.78 424.84 504.62 430.63 C 513.47 433.06 522.92 435.71 532.03 432.93 C 548.89 427.85 563.48 417.67 579.10 409.85 C 573.84 407.57 568.26 406.18 562.97 403.98 C 554.39 400.50 545.24 398.41 535.98 398.14 C 532.65 397.95 528.13 397.66 526.73 394.02 C 526.50 390.73 529.45 388.60 531.40 386.39 C 538.76 378.97 540.64 368.14 542.09 358.21 C 535.07 368.12 522.85 373.06 511.04 373.85 C 496.89 374.32 483.16 369.98 469.71 366.11 C 453.73 361.54 438.66 354.42 423.62 347.46 C 421.25 346.36 419.10 344.88 417.17 343.14 C 421.59 342.89 425.67 344.70 429.66 346.34 C 452.06 355.78 474.91 364.74 498.94 368.99 C 510.35 371.10 522.71 369.10 532.25 362.29 C 536.72 359.18 540.06 354.29 540.86 348.87 C 539.98 343.13 537.18 337.83 536.53 332.02 C 534.85 318.38 534.96 304.60 533.99 290.91 C 533.01 277.79 533.26 264.56 531.09 251.55 C 529.34 252.14 527.36 252.45 526.08 253.91 C 521.73 258.40 518.53 263.82 514.84 268.84 C 508.80 277.32 502.01 285.45 493.55 291.62 C 491.66 293.01 489.48 294.03 487.13 294.26 C 486.31 291.32 489.53 289.96 491.23 288.24 C 503.64 278.26 511.37 264.02 521.97 252.38 C 514.56 252.76 507.28 254.18 499.95 255.17 C 501.04 253.90 501.96 252.28 503.65 251.73 C 508.63 249.85 513.97 249.28 519.22 248.64 C 537.46 246.86 555.79 248.10 574.07 248.46 C 589.73 249.06 605.38 248.33 621.02 247.82 C 614.59 243.96 608.82 238.88 601.66 236.36 C 596.67 234.30 591.26 233.76 586.13 232.18 C 592.89 229.99 599.91 232.49 606.31 234.74 C 616.70 238.36 624.17 247.82 635.18 249.96 C 652.83 254.70 669.97 261.12 687.36 266.71 C 699.74 270.83 712.36 274.35 724.24 279.81 C 729.71 282.55 735.78 284.28 741.91 282.88 C 746.20 275.27 749.20 266.81 749.86 258.07 C 749.86 253.93 749.84 249.30 747.37 245.78 C 742.57 241.97 736.53 240.30 730.88 238.20 C 720.79 234.68 711.95 228.55 702.64 223.43 C 695.21 219.30 687.17 216.33 678.97 214.15 C 669.68 211.79 660.57 208.67 651.09 207.11 C 637.06 204.83 623.29 201.03 609.14 199.49 C 601.83 198.86 594.48 198.41 587.31 196.74 C 570.36 193.51 554.37 186.69 539.09 178.85 C 522.23 170.37 504.87 161.97 486.06 158.99 C 476.94 157.28 467.91 160.06 459.01 161.73 C 449.21 163.55 439.32 165.86 429.28 165.02 C 429.55 171.90 428.92 178.93 426.29 185.35 C 420.30 199.71 409.28 211.01 401.08 224.03 C 399.05 226.72 397.91 230.30 395.04 232.22 C 392.12 232.93 391.90 229.16 391.45 227.21 C 389.92 217.95 385.82 209.39 380.75 201.58 C 377.74 203.56 374.62 205.58 371.01 206.20 C 362.06 208.04 352.83 203.75 346.89 197.15 C 341.10 190.72 336.92 183.07 331.69 176.22 C 326.18 168.90 321.84 160.57 320.46 151.43 C 312.89 149.10 304.97 146.99 296.98 148.06 C 293.17 148.39 289.29 149.76 285.48 148.83 C 283.11 145.84 288.28 145.44 290.07 144.29 C 280.91 140.74 272.43 135.73 263.76 131.16 C 256.07 127.12 248.33 123.16 240.43 119.54 C 223.19 111.92 205.28 105.94 187.61 99.42 C 179.26 96.22 171.28 90.67 161.96 91.21 C 158.66 91.05 157.38 94.52 155.83 96.79 M 762.24 252.89 C 761.54 259.96 761.27 267.08 760.17 274.11 C 759.73 277.21 758.65 280.20 756.90 282.80 C 755.88 284.71 754.02 286.58 754.54 288.92 C 755.15 291.91 756.44 295.30 759.38 296.71 C 764.29 296.91 769.18 294.20 774.06 295.99 C 782.90 299.00 791.43 302.90 800.34 305.75 C 803.73 307.07 807.31 307.93 810.97 307.81 C 818.03 307.72 825.06 308.47 832.12 308.62 C 829.92 306.21 827.74 303.62 824.76 302.17 C 820.24 299.97 815.09 299.00 811.10 295.82 C 808.39 293.66 806.08 290.58 805.87 287.01 C 805.68 283.82 808.62 280.65 811.89 281.12 C 815.90 281.84 819.53 283.89 823.05 285.89 C 834.67 292.99 843.51 303.55 852.36 313.69 C 854.69 316.60 857.90 318.59 861.43 319.72 C 862.60 314.54 861.09 309.24 857.79 305.16 C 851.91 297.16 843.77 291.26 837.04 284.03 C 830.64 277.71 825.61 269.91 817.98 264.92 C 812.63 261.43 806.52 258.82 800.08 258.43 C 791.39 257.80 782.54 258.14 774.05 255.89 C 770.12 254.83 766.21 253.72 762.24 252.89 M 755.36 257.26 C 754.75 265.07 752.70 272.73 749.48 279.87 C 750.57 280.02 752.76 280.32 753.86 280.47 C 756.96 273.21 757.01 265.19 758.06 257.49 C 757.38 257.43 756.04 257.32 755.36 257.26 M 538.85 383.83 C 536.65 387.37 533.48 390.13 530.73 393.21 C 537.14 394.34 543.74 394.08 550.09 395.63 C 558.93 397.37 566.95 401.60 575.33 404.68 C 569.90 398.68 562.70 394.70 557.08 388.90 C 551.34 383.47 547.33 376.51 544.49 369.20 C 543.12 374.25 541.68 379.38 538.85 383.83 M 828.06 455.98 C 823.65 457.54 819.74 461.21 819.11 466.01 C 818.11 472.04 818.15 478.23 816.40 484.14 C 820.98 482.41 825.84 480.44 830.84 481.46 C 838.86 483.01 845.03 488.83 851.08 493.92 C 854.74 497.23 858.97 500.17 861.58 504.47 C 862.97 506.45 862.19 509.81 859.69 510.42 C 855.63 511.46 851.43 511.93 847.54 513.53 C 847.95 517.19 848.61 520.83 849.75 524.35 C 871.53 525.96 893.04 518.92 914.81 521.61 C 923.85 522.58 932.29 526.18 941.10 528.20 C 941.43 519.03 936.06 511.21 930.70 504.29 C 923.36 495.06 915.41 485.71 904.61 480.45 C 893.85 474.71 881.09 473.89 870.77 467.22 C 864.17 463.03 857.87 458.17 850.44 455.52 C 843.25 452.86 835.18 453.47 828.06 455.98 M 627.29 590.30 C 611.18 598.09 598.22 612.30 580.05 615.63 C 588.23 628.40 596.34 641.28 606.12 652.92 C 616.80 665.75 629.32 677.72 644.84 684.40 C 654.69 688.17 665.66 689.52 676.06 687.50 C 683.66 686.30 688.99 679.75 692.21 673.23 C 695.34 666.52 700.15 660.73 705.67 655.84 C 700.15 652.75 695.52 648.37 691.15 643.86 C 680.93 633.25 672.10 621.17 665.78 607.83 C 664.68 610.52 663.60 613.24 662.18 615.78 C 658.69 610.67 663.09 604.74 664.91 599.78 C 660.41 594.81 657.06 588.93 654.54 582.74 C 645.06 583.37 635.74 585.94 627.29 590.30 M 420.21 622.40 C 419.17 627.87 418.15 633.35 417.38 638.87 C 415.65 653.96 410.75 668.43 406.97 683.07 C 404.28 693.95 405.71 705.24 406.92 716.22 C 408.42 726.21 410.45 736.13 413.04 745.90 C 422.81 741.65 433.44 739.84 444.00 738.99 C 454.58 738.18 465.38 738.42 475.69 741.12 C 472.66 732.94 469.89 724.58 468.73 715.91 C 468.23 714.02 469.26 712.32 469.99 710.67 C 472.50 718.20 474.80 725.79 477.85 733.13 C 477.66 720.61 479.18 708.13 481.98 695.95 C 484.66 681.60 489.18 667.62 495.48 654.46 C 484.86 654.64 474.71 650.94 465.10 646.79 C 449.44 639.97 435.70 629.55 420.21 622.40 M 387.63 923.71 C 379.63 928.95 371.94 935.25 362.42 937.50 C 353.54 940.13 343.94 936.80 335.23 940.24 C 331.77 941.49 328.51 944.25 328.13 948.13 C 327.05 955.78 332.53 962.48 338.36 966.71 C 347.93 973.08 359.74 974.52 370.97 974.99 C 388.29 975.81 405.52 972.35 422.83 973.55 C 430.87 973.96 437.89 978.21 445.40 980.59 C 451.79 982.69 458.31 984.96 465.11 984.97 C 469.18 985.06 473.58 982.80 474.82 978.72 C 476.49 973.31 475.37 967.55 474.85 962.05 C 473.59 951.25 472.76 940.41 472.19 929.56 C 467.68 935.48 462.70 941.63 455.62 944.56 C 449.21 947.30 441.94 945.85 435.64 943.54 C 430.00 941.36 424.19 937.16 423.31 930.75 C 422.65 925.41 423.50 919.54 419.94 915.01 C 409.06 917.29 397.22 917.39 387.63 923.71 Z" />
<path fill="#020202" opacity="1.00" d=" M 337.66 142.36 C 338.69 148.12 338.14 154.01 338.76 159.82 C 334.48 154.86 335.43 148.00 337.66 142.36 Z" />
<path fill="#020202" opacity="1.00" d=" M 338.90 159.52 C 340.93 161.67 342.60 164.20 345.02 165.96 C 347.09 167.15 349.48 167.56 351.70 168.40 C 348.71 170.28 344.40 172.27 341.23 169.74 C 338.80 166.97 339.26 162.94 338.90 159.52 Z" />
<path fill="#020202" opacity="1.00" d=" M 353.78 180.61 C 360.11 178.05 366.41 175.30 373.05 173.65 C 375.98 172.92 373.84 176.29 372.69 177.06 C 372.13 178.59 372.41 180.80 370.76 181.67 C 366.85 183.65 362.53 184.63 358.58 186.52 C 355.40 188.00 351.31 189.16 348.57 186.24 C 347.71 186.20 345.97 186.10 345.11 186.05 C 347.02 182.95 350.66 181.98 353.78 180.61 Z" />
<path fill="#020202" opacity="1.00" d=" M 472.27 186.44 C 476.09 181.42 483.23 180.67 488.93 182.27 C 492.01 183.10 493.16 186.99 491.56 189.61 C 488.83 194.44 483.97 197.52 479.42 200.44 C 460.98 211.82 440.10 218.09 420.12 226.10 C 414.75 228.03 409.56 230.67 403.85 231.44 C 404.80 229.90 405.90 228.33 407.61 227.56 C 429.82 216.15 454.41 209.89 475.81 196.83 C 480.40 194.07 485.00 190.91 487.75 186.18 C 482.65 184.49 477.42 185.95 472.27 186.44 Z" />
</g>
<g id="#4d4d4dff">
<path fill="#4d4d4d" opacity="1.00" d=" M 70.34 24.01 C 70.01 21.03 73.61 19.90 75.99 19.74 C 80.18 20.05 83.85 22.47 87.26 24.74 C 94.17 29.55 97.75 37.58 103.95 43.09 C 108.83 47.27 116.08 46.87 120.90 50.98 C 126.83 58.70 131.45 67.56 138.74 74.19 C 142.04 77.09 145.54 79.78 148.46 83.09 C 144.96 85.63 141.14 88.03 138.81 91.79 C 135.10 97.75 133.42 104.66 131.36 111.29 C 127.79 108.28 124.51 104.79 120.26 102.71 C 116.19 100.68 110.96 101.82 107.45 98.58 C 99.81 91.91 93.96 82.50 83.91 79.15 C 77.35 77.11 71.15 71.98 69.97 64.93 C 69.59 62.19 73.12 61.94 74.88 61.00 C 78.18 63.04 81.78 64.80 85.76 64.77 C 81.89 60.80 77.23 57.55 71.86 56.02 C 71.81 51.99 71.47 46.82 75.50 44.48 C 80.32 41.24 85.92 44.36 90.97 45.14 C 91.16 43.71 90.89 42.28 89.74 41.31 C 85.45 36.91 80.83 32.79 75.75 29.32 C 73.74 27.80 71.41 26.39 70.34 24.01 Z" />
<path fill="#4d4d4d" opacity="1.00" d=" M 762.24 252.89 C 766.21 253.72 770.12 254.83 774.05 255.89 C 782.54 258.14 791.39 257.80 800.08 258.43 C 806.52 258.82 812.63 261.43 817.98 264.92 C 825.61 269.91 830.64 277.71 837.04 284.03 C 843.77 291.26 851.91 297.16 857.79 305.16 C 861.09 309.24 862.60 314.54 861.43 319.72 C 857.90 318.59 854.69 316.60 852.36 313.69 C 843.51 303.55 834.67 292.99 823.05 285.89 C 819.53 283.89 815.90 281.84 811.89 281.12 C 808.62 280.65 805.68 283.82 805.87 287.01 C 806.08 290.58 808.39 293.66 811.10 295.82 C 815.09 299.00 820.24 299.97 824.76 302.17 C 827.74 303.62 829.92 306.21 832.12 308.62 C 825.06 308.47 818.03 307.72 810.97 307.81 C 807.31 307.93 803.73 307.07 800.34 305.75 C 791.43 302.90 782.90 299.00 774.06 295.99 C 769.18 294.20 764.29 296.91 759.38 296.71 C 756.44 295.30 755.15 291.91 754.54 288.92 C 754.02 286.58 755.88 284.71 756.90 282.80 C 758.65 280.20 759.73 277.21 760.17 274.11 C 761.27 267.08 761.54 259.96 762.24 252.89 Z" />
<path fill="#4d4d4d" opacity="1.00" d=" M 828.06 455.98 C 835.18 453.47 843.25 452.86 850.44 455.52 C 857.87 458.17 864.17 463.03 870.77 467.22 C 881.09 473.89 893.85 474.71 904.61 480.45 C 915.41 485.71 923.36 495.06 930.70 504.29 C 936.06 511.21 941.43 519.03 941.10 528.20 C 932.29 526.18 923.85 522.58 914.81 521.61 C 893.04 518.92 871.53 525.96 849.75 524.35 C 848.61 520.83 847.95 517.19 847.54 513.53 C 851.43 511.93 855.63 511.46 859.69 510.42 C 862.19 509.81 862.97 506.45 861.58 504.47 C 858.97 500.17 854.74 497.23 851.08 493.92 C 845.03 488.83 838.86 483.01 830.84 481.46 C 825.84 480.44 820.98 482.41 816.40 484.14 C 818.15 478.23 818.11 472.04 819.11 466.01 C 819.74 461.21 823.65 457.54 828.06 455.98 Z" />
<path fill="#4d4d4d" opacity="1.00" d=" M 387.63 923.71 C 397.22 917.39 409.06 917.29 419.94 915.01 C 423.50 919.54 422.65 925.41 423.31 930.75 C 424.19 937.16 430.00 941.36 435.64 943.54 C 441.94 945.85 449.21 947.30 455.62 944.56 C 462.70 941.63 467.68 935.48 472.19 929.56 C 472.76 940.41 473.59 951.25 474.85 962.05 C 475.37 967.55 476.49 973.31 474.82 978.72 C 473.58 982.80 469.18 985.06 465.11 984.97 C 458.31 984.96 451.79 982.69 445.40 980.59 C 437.89 978.21 430.87 973.96 422.83 973.55 C 405.52 972.35 388.29 975.81 370.97 974.99 C 359.74 974.52 347.93 973.08 338.36 966.71 C 332.53 962.48 327.05 955.78 328.13 948.13 C 328.51 944.25 331.77 941.49 335.23 940.24 C 343.94 936.80 353.54 940.13 362.42 937.50 C 371.94 935.25 379.63 928.95 387.63 923.71 Z" />
</g>
<g id="#f0b58bff">
<path fill="#f0b58b" opacity="1.00" d=" M 149.12 88.00 C 150.85 89.03 152.60 90.04 154.36 91.04 C 150.66 96.95 146.75 102.87 144.79 109.63 C 142.31 108.18 139.76 106.87 137.16 105.66 C 139.91 99.06 142.53 91.75 149.12 88.00 Z" />
<path fill="#f0b58b" opacity="1.00" d=" M 368.82 93.81 C 370.72 91.61 373.07 88.88 376.30 89.30 C 377.42 95.96 374.38 102.36 372.95 108.74 C 377.04 107.43 378.53 103.19 381.10 100.21 L 381.57 99.95 C 379.25 104.57 378.62 109.78 378.92 114.90 C 369.44 116.02 360.11 118.44 351.34 122.21 C 347.92 123.67 344.65 125.52 341.84 127.98 C 342.95 130.44 343.74 133.45 346.30 134.83 C 349.18 136.32 352.53 135.31 355.50 134.63 C 363.48 132.39 371.10 129.01 379.07 126.71 C 383.53 125.60 387.03 129.38 389.51 132.53 C 391.87 136.73 391.12 141.85 392.86 146.27 C 394.41 150.15 397.00 153.59 400.29 156.17 C 399.97 153.06 399.15 150.04 398.58 146.97 C 397.72 141.01 398.34 134.98 398.42 129.00 C 398.48 125.08 395.00 122.03 395.36 118.06 C 395.34 115.49 396.58 112.82 399.03 111.75 C 402.40 111.13 404.93 114.19 405.91 117.06 C 408.44 124.12 407.03 131.72 406.96 139.03 C 406.96 142.42 407.54 146.89 411.56 147.70 C 413.29 154.77 417.54 161.41 424.25 164.64 C 424.32 170.58 424.30 176.70 422.18 182.34 C 416.06 197.68 403.87 209.31 395.60 223.38 C 393.55 214.36 389.61 205.83 383.96 198.51 C 387.84 194.40 391.52 189.94 393.78 184.70 C 394.66 183.02 394.32 181.10 394.28 179.29 C 390.34 183.12 388.10 188.33 384.12 192.14 C 379.60 196.59 374.63 201.54 368.01 202.31 C 363.26 203.09 358.75 200.64 355.04 197.95 C 347.66 192.11 343.32 183.58 337.95 176.05 C 334.08 171.12 330.39 165.96 327.91 160.16 C 325.92 155.59 325.25 150.61 324.32 145.75 C 328.62 143.31 333.51 142.30 337.93 140.15 C 337.43 135.89 334.10 132.22 330.01 131.09 C 326.67 130.29 323.29 131.25 320.02 131.88 C 318.01 127.44 316.18 122.77 316.05 117.84 C 316.86 113.74 318.17 109.72 319.62 105.80 C 320.44 104.10 321.60 101.37 323.96 102.33 C 325.33 107.01 323.20 111.59 322.11 116.07 C 322.32 116.40 322.73 117.05 322.94 117.38 C 331.45 113.11 336.20 104.25 341.51 96.76 C 341.13 103.19 341.95 110.32 347.10 114.82 C 348.92 107.68 350.69 100.08 355.63 94.36 C 359.48 98.80 359.22 105.00 361.65 110.09 C 363.70 104.54 364.91 98.45 368.82 93.81 M 337.66 142.36 C 335.43 148.00 334.48 154.86 338.76 159.82 C 338.14 154.01 338.69 148.12 337.66 142.36 M 338.90 159.52 C 339.26 162.94 338.80 166.97 341.23 169.74 C 344.40 172.27 348.71 170.28 351.70 168.40 C 349.48 167.56 347.09 167.15 345.02 165.96 C 342.60 164.20 340.93 161.67 338.90 159.52 M 353.78 180.61 C 350.66 181.98 347.02 182.95 345.11 186.05 C 345.97 186.10 347.71 186.20 348.57 186.24 C 351.31 189.16 355.40 188.00 358.58 186.52 C 362.53 184.63 366.85 183.65 370.76 181.67 C 372.41 180.80 372.13 178.59 372.69 177.06 C 373.84 176.29 375.98 172.92 373.05 173.65 C 366.41 175.30 360.11 178.05 353.78 180.61 Z" />
<path fill="#f0b58b" opacity="1.00" d=" M 755.36 257.26 C 756.04 257.32 757.38 257.43 758.06 257.49 C 757.01 265.19 756.96 273.21 753.86 280.47 C 752.76 280.32 750.57 280.02 749.48 279.87 C 752.70 272.73 754.75 265.07 755.36 257.26 Z" />
<path fill="#f0b58b" opacity="1.00" d=" M 627.29 590.30 C 635.74 585.94 645.06 583.37 654.54 582.74 C 657.06 588.93 660.41 594.81 664.91 599.78 C 663.09 604.74 658.69 610.67 662.18 615.78 C 663.60 613.24 664.68 610.52 665.78 607.83 C 672.10 621.17 680.93 633.25 691.15 643.86 C 695.52 648.37 700.15 652.75 705.67 655.84 C 700.15 660.73 695.34 666.52 692.21 673.23 C 688.99 679.75 683.66 686.30 676.06 687.50 C 665.66 689.52 654.69 688.17 644.84 684.40 C 629.32 677.72 616.80 665.75 606.12 652.92 C 596.34 641.28 588.23 628.40 580.05 615.63 C 598.22 612.30 611.18 598.09 627.29 590.30 Z" />
<path fill="#f0b58b" opacity="1.00" d=" M 420.21 622.40 C 435.70 629.55 449.44 639.97 465.10 646.79 C 474.71 650.94 484.86 654.64 495.48 654.46 C 489.18 667.62 484.66 681.60 481.98 695.95 C 479.18 708.13 477.66 720.61 477.85 733.13 C 474.80 725.79 472.50 718.20 469.99 710.67 C 469.26 712.32 468.23 714.02 468.73 715.91 C 469.89 724.58 472.66 732.94 475.69 741.12 C 465.38 738.42 454.58 738.18 444.00 738.99 C 433.44 739.84 422.81 741.65 413.04 745.90 C 410.45 736.13 408.42 726.21 406.92 716.22 C 405.71 705.24 404.28 693.95 406.97 683.07 C 410.75 668.43 415.65 653.96 417.38 638.87 C 418.15 633.35 419.17 627.87 420.21 622.40 Z" />
</g>
<g id="#f35e11ff">
<path fill="var(--shirt-color, grey)" opacity="1.00" d=" M 155.83 96.79 C 157.38 94.52 158.66 91.05 161.96 91.21 C 171.28 90.67 179.26 96.22 187.61 99.42 C 205.28 105.94 223.19 111.92 240.43 119.54 C 248.33 123.16 256.07 127.12 263.76 131.16 C 272.43 135.73 280.91 140.74 290.07 144.29 C 288.28 145.44 283.11 145.84 285.48 148.83 C 289.29 149.76 293.17 148.39 296.98 148.06 C 304.97 146.99 312.89 149.10 320.46 151.43 C 321.84 160.57 326.18 168.90 331.69 176.22 C 336.92 183.07 341.10 190.72 346.89 197.15 C 352.83 203.75 362.06 208.04 371.01 206.20 C 374.62 205.58 377.74 203.56 380.75 201.58 C 385.82 209.39 389.92 217.95 391.45 227.21 C 391.90 229.16 392.12 232.93 395.04 232.22 C 397.91 230.30 399.05 226.72 401.08 224.03 C 409.28 211.01 420.30 199.71 426.29 185.35 C 428.92 178.93 429.55 171.90 429.28 165.02 C 439.32 165.86 449.21 163.55 459.01 161.73 C 467.91 160.06 476.94 157.28 486.06 158.99 C 504.87 161.97 522.23 170.37 539.09 178.85 C 554.37 186.69 570.36 193.51 587.31 196.74 C 594.48 198.41 601.83 198.86 609.14 199.49 C 623.29 201.03 637.06 204.83 651.09 207.11 C 660.57 208.67 669.68 211.79 678.97 214.15 C 687.17 216.33 695.21 219.30 702.64 223.43 C 711.95 228.55 720.79 234.68 730.88 238.20 C 736.53 240.30 742.57 241.97 747.37 245.78 C 749.84 249.30 749.86 253.93 749.86 258.07 C 749.20 266.81 746.20 275.27 741.91 282.88 C 735.78 284.28 729.71 282.55 724.24 279.81 C 712.36 274.35 699.74 270.83 687.36 266.71 C 669.97 261.12 652.83 254.70 635.18 249.96 C 624.17 247.82 616.70 238.36 606.31 234.74 C 599.91 232.49 592.89 229.99 586.13 232.18 C 591.26 233.76 596.67 234.30 601.66 236.36 C 608.82 238.88 614.59 243.96 621.02 247.82 C 605.38 248.33 589.73 249.06 574.07 248.46 C 555.79 248.10 537.46 246.86 519.22 248.64 C 513.97 249.28 508.63 249.85 503.65 251.73 C 501.96 252.28 501.04 253.90 499.95 255.17 C 507.28 254.18 514.56 252.76 521.97 252.38 C 511.37 264.02 503.64 278.26 491.23 288.24 C 489.53 289.96 486.31 291.32 487.13 294.26 C 489.48 294.03 491.66 293.01 493.55 291.62 C 502.01 285.45 508.80 277.32 514.84 268.84 C 518.53 263.82 521.73 258.40 526.08 253.91 C 527.36 252.45 529.34 252.14 531.09 251.55 C 533.26 264.56 533.01 277.79 533.99 290.91 C 534.96 304.60 534.85 318.38 536.53 332.02 C 537.18 337.83 539.98 343.13 540.86 348.87 C 540.06 354.29 536.72 359.18 532.25 362.29 C 522.71 369.10 510.35 371.10 498.94 368.99 C 474.91 364.74 452.06 355.78 429.66 346.34 C 425.67 344.70 421.59 342.89 417.17 343.14 C 419.10 344.88 421.25 346.36 423.62 347.46 C 438.66 354.42 453.73 361.54 469.71 366.11 C 483.16 369.98 496.89 374.32 511.04 373.85 C 522.85 373.06 535.07 368.12 542.09 358.21 C 540.64 368.14 538.76 378.97 531.40 386.39 C 529.45 388.60 526.50 390.73 526.73 394.02 C 528.13 397.66 532.65 397.95 535.98 398.14 C 545.24 398.41 554.39 400.50 562.97 403.98 C 568.26 406.18 573.84 407.57 579.10 409.85 C 563.48 417.67 548.89 427.85 532.03 432.93 C 522.92 435.71 513.47 433.06 504.62 430.63 C 484.78 424.84 464.87 418.01 444.02 417.35 C 438.08 417.20 431.91 416.05 426.15 418.00 C 430.03 419.05 434.05 419.25 438.04 419.63 C 457.99 421.74 477.37 427.23 496.42 433.34 C 499.99 434.50 503.58 435.55 507.22 436.50 C 497.25 437.15 487.48 439.84 478.71 444.65 C 472.30 447.70 466.53 453.20 458.95 452.63 C 443.44 453.52 429.04 443.98 420.76 431.38 C 416.49 424.76 413.88 417.18 409.06 410.90 C 403.17 403.09 396.71 395.69 391.62 387.32 C 376.82 363.00 368.66 335.51 359.90 308.65 C 365.83 316.77 373.36 323.50 381.06 329.91 C 385.09 333.16 388.75 337.37 394.01 338.60 C 388.99 330.95 381.73 325.18 375.34 318.75 C 365.24 309.37 357.78 297.57 351.62 285.34 C 346.23 274.62 340.90 263.78 337.60 252.20 C 334.84 243.51 333.88 234.37 331.15 225.68 C 328.67 217.69 325.41 209.95 321.41 202.60 C 318.96 198.14 316.84 193.01 312.15 190.41 C 313.09 194.53 315.28 198.17 317.06 201.96 C 320.20 208.42 322.39 215.28 324.79 222.03 C 317.02 212.22 307.63 203.90 298.09 195.87 C 293.98 192.56 290.53 188.36 285.94 185.71 C 285.39 185.69 284.28 185.66 283.73 185.64 C 284.20 190.17 288.41 192.78 291.23 195.88 C 299.70 204.54 309.27 212.06 317.39 221.04 C 311.83 217.93 306.17 214.95 300.16 212.78 C 290.33 208.82 279.66 206.40 270.99 200.03 C 260.71 192.63 253.54 181.99 246.29 171.82 C 244.03 168.70 242.08 165.11 238.55 163.23 C 238.82 167.85 241.43 171.76 243.64 175.66 C 237.15 172.16 230.69 168.58 224.66 164.31 C 211.31 156.20 199.62 145.60 185.85 138.16 C 175.28 132.37 163.81 128.45 153.23 122.69 C 150.39 121.23 148.01 118.36 148.30 115.01 C 148.50 108.22 152.58 102.47 155.83 96.79 M 472.27 186.44 C 477.42 185.95 482.65 184.49 487.75 186.18 C 485.00 190.91 480.40 194.07 475.81 196.83 C 454.41 209.89 429.82 216.15 407.61 227.56 C 405.90 228.33 404.80 229.90 403.85 231.44 C 409.56 230.67 414.75 228.03 420.12 226.10 C 440.10 218.09 460.98 211.82 479.42 200.44 C 483.97 197.52 488.83 194.44 491.56 189.61 C 493.16 186.99 492.01 183.10 488.93 182.27 C 483.23 180.67 476.09 181.42 472.27 186.44 Z" />
</g>
</svg>
