<?xml version="1.0" encoding="UTF-8" ?>
<!DOCTYPE svg PUBLIC "-//W3C//DTD SVG 1.1//EN" "http://www.w3.org/Graphics/SVG/1.1/DTD/svg11.dtd">
<svg width="1000pt" height="1000pt" viewBox="0 0 1000 1000" version="1.1" xmlns="http://www.w3.org/2000/svg">
<g id="#020202ff">
<path fill="#020202" opacity="1.00" d=" M 580.17 27.17 C 591.17 18.22 606.06 15.45 619.91 16.75 C 645.51 19.49 669.81 35.89 680.38 59.61 C 686.19 72.47 687.29 88.05 680.83 100.89 C 677.50 107.20 673.27 113.15 667.77 117.76 C 663.05 121.81 658.57 126.39 656.06 132.17 C 663.90 132.96 671.99 132.95 679.51 135.63 C 685.32 137.73 689.04 143.16 691.21 148.70 C 694.46 156.66 694.98 166.20 701.63 172.39 C 711.94 182.38 724.81 189.13 736.11 197.88 C 742.49 202.75 748.56 208.08 753.81 214.17 C 762.28 224.12 770.96 234.00 777.78 245.19 C 779.41 248.43 782.97 249.58 786.00 251.09 C 793.39 254.61 799.40 260.26 805.82 265.21 C 812.64 270.47 819.49 275.73 826.94 280.06 C 837.66 286.43 849.77 290.02 860.44 296.49 C 865.60 299.53 869.79 304.02 872.49 309.36 C 886.08 312.23 900.10 311.84 913.88 313.34 C 926.24 314.07 938.40 317.24 949.68 322.32 C 955.58 325.04 960.64 329.62 963.89 335.24 C 965.92 338.59 965.69 342.64 966.76 346.27 C 971.46 351.56 976.73 357.42 976.59 364.99 C 976.83 370.60 972.72 375.01 968.33 377.87 C 968.44 383.51 966.68 389.55 962.15 393.20 C 959.04 395.61 954.72 394.29 951.99 391.96 C 945.65 386.67 941.17 379.19 933.75 375.22 C 929.22 372.68 923.88 372.81 918.87 372.44 C 912.81 372.11 906.79 371.01 901.01 369.15 C 888.27 365.51 877.11 357.66 863.97 355.19 C 861.17 356.59 858.04 357.25 854.94 356.60 C 844.71 355.00 834.44 353.61 824.15 352.44 C 814.29 351.30 804.55 348.76 795.57 344.48 C 786.97 340.48 779.02 335.06 769.95 332.12 C 764.79 330.29 759.25 331.02 753.90 330.59 C 739.89 329.77 725.84 328.62 712.05 325.94 C 706.18 331.13 699.97 336.41 696.64 343.68 C 691.63 354.56 688.47 366.24 682.98 376.91 C 678.25 386.17 669.03 391.65 662.18 399.13 C 654.46 407.07 649.37 417.05 642.99 426.03 C 638.96 432.23 633.96 437.70 629.51 443.59 C 625.76 448.31 626.63 454.77 624.01 459.98 C 621.20 465.57 617.06 470.35 612.96 475.02 C 616.39 487.65 618.06 501.37 614.07 514.07 C 610.83 523.30 605.21 531.52 598.85 538.88 C 593.82 544.74 590.54 551.86 588.16 559.14 C 585.68 566.81 585.19 575.34 587.92 583.02 C 591.32 593.82 598.14 603.50 599.63 614.90 C 600.51 620.87 597.79 626.47 594.96 631.53 C 602.23 628.66 609.22 625.09 616.73 622.81 C 638.80 616.09 662.06 615.05 684.98 614.86 C 707.79 615.17 730.45 618.03 752.95 621.58 C 767.51 623.33 782.19 625.79 796.88 624.89 C 806.40 619.48 812.40 609.11 822.64 604.69 C 831.86 600.87 842.29 602.35 851.40 605.71 C 861.68 609.08 870.14 616.06 878.45 622.73 C 885.89 629.30 893.13 636.32 902.02 640.95 C 913.64 647.11 923.68 655.84 932.61 665.42 C 940.44 674.29 947.81 684.35 949.89 696.27 C 951.49 705.13 952.42 714.81 948.41 723.19 C 946.70 727.21 942.47 729.78 938.16 729.87 C 932.45 730.46 926.92 728.56 921.84 726.15 C 910.90 721.05 900.44 714.99 889.97 709.01 C 879.14 703.02 868.22 696.65 855.97 694.11 C 844.59 691.80 833.54 687.62 821.89 686.94 C 814.65 688.44 807.45 690.21 800.06 690.75 C 783.87 693.06 767.81 696.25 751.78 699.45 C 734.04 703.75 716.11 707.49 697.96 709.56 C 687.66 710.81 677.27 710.34 666.94 709.96 C 652.35 709.44 637.64 707.15 623.12 709.74 C 603.37 712.50 586.42 725.10 566.39 726.63 C 557.80 726.90 549.04 727.49 540.63 725.33 C 532.27 723.24 524.17 719.03 518.79 712.14 C 512.57 704.80 509.13 695.74 504.85 687.26 C 499.57 676.90 489.44 669.22 486.86 657.50 C 482.74 657.16 479.34 654.80 476.69 651.77 C 469.89 659.07 463.75 667.01 458.58 675.55 C 454.42 682.30 450.17 689.01 445.50 695.42 C 443.78 697.65 441.88 700.29 438.87 700.70 C 429.22 701.67 419.77 698.11 411.74 692.99 C 400.83 701.08 387.74 705.22 375.27 710.20 C 371.03 717.74 363.49 722.53 358.46 729.46 C 353.59 736.11 348.92 742.98 345.50 750.51 C 340.56 760.47 337.18 771.12 332.17 781.05 C 320.53 806.07 302.24 827.60 280.75 844.76 C 266.50 856.36 251.01 866.30 236.27 877.26 C 226.91 884.23 217.20 890.76 208.20 898.20 C 200.52 904.52 194.17 912.26 186.58 918.68 C 183.24 921.60 179.41 924.16 177.00 927.98 C 173.77 933.74 173.50 940.56 173.97 947.00 C 174.34 952.45 173.99 958.73 169.72 962.72 C 162.71 969.20 152.40 971.85 143.09 969.91 C 135.67 968.36 128.29 966.12 121.80 962.13 C 113.95 957.34 105.97 952.62 97.24 949.63 C 88.94 946.79 80.43 944.46 72.57 940.49 C 62.06 935.28 51.79 928.95 43.99 920.05 C 38.97 913.97 34.92 906.08 36.21 897.98 C 37.30 893.05 40.92 888.37 45.98 887.12 C 52.74 884.72 60.05 886.02 66.68 888.19 C 75.92 890.67 85.23 894.11 94.95 893.40 C 106.27 893.04 117.35 889.17 128.74 890.82 C 133.05 884.44 139.75 880.40 145.26 875.20 C 157.58 864.36 163.91 848.83 172.04 834.97 C 180.18 820.12 191.17 807.10 203.06 795.14 C 217.88 781.58 231.61 766.81 244.22 751.16 C 250.85 743.16 258.03 735.63 264.56 727.54 C 270.50 721.31 274.62 713.69 280.22 707.18 C 283.27 704.17 281.68 699.81 281.80 696.07 C 281.84 687.80 286.11 680.31 290.89 673.84 C 301.68 659.16 314.54 646.18 325.80 631.88 C 329.21 627.52 332.81 623.32 336.68 619.36 C 335.76 617.60 334.46 615.97 334.11 613.98 C 333.89 611.01 335.64 608.45 337.07 606.02 C 342.60 596.84 351.08 590.05 358.21 582.19 C 363.45 576.55 365.99 568.92 371.59 563.57 C 376.53 558.74 382.32 554.89 387.86 550.79 C 397.05 544.29 406.22 537.69 415.97 532.04 C 421.98 528.51 427.67 524.45 432.89 519.84 C 435.34 517.52 437.89 514.63 437.86 511.05 C 437.79 504.97 438.17 498.83 439.82 492.95 C 442.23 483.40 447.94 475.10 450.44 465.58 C 452.04 460.19 452.46 454.56 452.91 448.99 C 453.35 443.59 455.44 438.52 457.82 433.72 C 460.19 429.02 461.12 423.81 462.53 418.79 C 458.05 410.42 458.20 400.39 460.55 391.41 C 461.99 385.14 463.66 378.92 466.06 372.95 C 468.09 368.21 467.52 362.96 467.95 357.95 C 468.30 352.53 469.35 346.97 472.35 342.35 C 476.11 336.59 481.38 332.04 486.67 327.74 C 490.67 324.72 490.60 319.17 492.53 314.91 C 476.58 319.27 460.02 315.74 443.99 313.79 C 428.99 312.87 413.91 312.85 398.96 311.18 C 389.78 309.97 379.69 307.84 373.55 300.25 C 366.43 298.86 359.42 297.00 352.55 294.64 C 345.84 292.81 338.80 292.35 332.32 289.63 C 330.18 291.37 327.91 293.28 325.03 293.53 C 315.71 294.58 306.29 293.14 296.95 293.99 C 287.92 294.43 280.77 300.93 272.03 302.54 C 266.94 303.79 261.69 302.81 256.75 301.44 C 256.90 309.38 259.26 317.08 259.49 324.99 C 259.83 329.53 256.79 334.18 252.09 334.70 C 247.17 335.93 243.25 332.09 240.07 328.97 C 233.98 332.65 226.35 328.79 223.10 323.10 C 218.06 322.58 213.13 319.77 211.12 314.95 C 208.66 308.96 207.58 302.52 206.02 296.26 C 202.67 303.70 194.94 308.40 186.96 309.09 C 184.59 309.31 181.92 308.47 180.66 306.32 C 178.77 303.23 179.09 299.31 179.97 295.94 C 181.72 290.30 184.98 285.27 186.87 279.68 C 189.56 272.57 191.01 264.81 195.51 258.52 C 198.91 253.64 204.62 251.40 209.69 248.74 C 218.91 244.21 228.46 239.41 238.94 239.04 C 250.97 238.55 262.93 241.04 274.97 240.48 C 289.37 240.46 303.93 237.04 318.17 240.66 C 322.81 241.54 326.88 244.09 330.16 247.43 C 343.17 245.43 355.92 250.66 368.92 248.98 C 371.86 247.70 374.35 245.54 377.38 244.43 C 389.67 239.85 402.89 238.29 415.94 238.46 C 428.63 239.19 441.30 241.35 454.05 240.52 C 459.78 239.80 465.11 237.10 469.71 233.68 C 477.51 228.02 486.10 222.74 491.31 214.37 C 494.32 209.84 496.14 204.65 498.98 200.03 C 501.47 195.91 505.60 193.23 509.75 191.00 C 508.88 185.42 510.48 179.55 514.66 175.64 C 525.35 164.64 541.16 161.66 555.42 157.93 C 550.87 148.26 553.54 137.50 552.57 127.31 C 548.36 124.79 543.06 124.80 538.98 122.03 C 536.98 119.58 538.57 116.18 539.56 113.62 C 542.69 105.52 549.48 99.21 551.36 90.59 C 554.26 77.29 555.03 63.32 560.85 50.82 C 562.64 46.44 565.72 42.64 566.96 38.03 C 567.64 35.92 568.26 33.54 570.17 32.18 C 573.24 30.01 577.21 29.55 580.17 27.17 M 574.79 42.77 C 572.80 46.04 575.49 49.62 575.89 52.98 C 571.70 52.97 569.46 48.89 567.21 45.99 C 563.35 53.67 560.61 61.87 559.46 70.40 C 567.10 67.90 575.12 70.49 581.97 74.00 C 587.29 76.82 593.00 79.68 596.50 84.80 C 590.49 87.43 584.08 88.91 577.78 90.62 C 573.10 91.83 568.47 93.32 563.69 94.06 C 563.42 90.12 563.92 86.11 563.14 82.23 C 561.95 79.78 560.26 77.63 558.75 75.38 C 557.58 81.44 556.84 87.60 555.38 93.60 C 554.16 98.66 551.17 103.00 548.30 107.25 C 545.65 111.15 543.52 115.37 541.59 119.66 C 545.16 120.70 548.79 121.56 552.29 122.85 C 554.59 123.54 556.78 125.34 556.78 127.95 C 557.39 137.66 555.98 147.60 559.04 157.06 C 568.96 155.00 578.97 153.34 588.93 151.50 C 594.21 150.34 597.90 146.13 602.20 143.21 C 606.71 139.89 612.09 138.09 617.45 136.69 C 628.78 133.85 640.39 131.65 652.12 132.12 C 652.74 130.07 653.39 128.02 654.10 126.00 C 646.92 128.28 639.33 127.39 631.95 128.19 C 629.00 128.47 626.02 128.43 623.07 128.22 C 624.08 120.20 631.57 115.95 635.91 109.86 C 641.53 102.94 640.83 92.75 636.69 85.28 C 635.15 82.57 632.73 78.49 629.04 79.69 C 623.21 81.91 619.75 87.63 615.70 92.07 C 611.56 91.09 606.94 91.02 603.28 88.73 C 603.79 80.03 604.26 70.87 600.68 62.69 C 595.49 64.25 588.74 63.38 585.32 58.85 C 585.32 54.27 587.03 49.44 585.01 45.05 C 583.55 41.25 577.62 39.78 574.79 42.77 M 632.74 139.74 C 623.97 141.33 615.12 143.12 606.92 146.73 C 616.63 146.21 626.37 145.43 636.09 146.20 C 638.73 146.35 641.25 147.23 643.66 148.28 C 640.46 148.89 637.21 148.99 633.98 148.95 C 624.87 148.88 615.77 149.71 606.82 151.39 C 602.02 152.23 597.70 154.67 592.98 155.78 C 575.11 160.05 556.70 161.82 539.13 167.32 C 530.82 170.00 522.16 173.41 516.67 180.55 C 514.50 183.17 514.35 186.70 513.79 189.90 C 517.89 189.78 522.02 190.12 526.11 189.62 C 529.10 189.42 530.22 186.25 531.86 184.27 C 533.46 186.20 534.14 189.13 532.14 191.07 C 527.87 196.07 520.73 194.06 515.03 194.85 C 508.21 195.46 503.35 201.15 500.52 206.93 C 506.19 205.13 512.10 203.37 518.12 203.96 C 523.71 204.68 529.11 206.90 533.64 210.27 C 544.48 218.27 554.79 227.24 562.82 238.14 C 564.38 240.22 565.48 242.69 565.46 245.35 C 563.46 246.23 562.29 244.05 561.10 242.93 C 554.13 234.28 546.20 226.40 537.46 219.54 C 532.11 215.41 526.66 210.86 519.82 209.57 C 509.19 207.63 498.49 213.04 491.86 221.20 C 504.23 220.16 515.79 226.49 525.43 233.62 C 533.93 240.35 543.78 245.42 551.23 253.44 C 549.50 253.59 547.65 253.86 546.07 252.96 C 541.46 250.72 537.44 247.47 533.02 244.89 C 524.44 239.90 517.12 232.75 507.70 229.26 C 503.05 227.61 498.18 225.67 493.16 226.51 C 489.82 227.10 486.07 227.03 483.31 229.29 C 477.73 233.42 472.01 237.38 466.03 240.92 C 472.41 243.33 478.96 246.98 482.02 253.39 C 476.41 252.92 472.48 248.47 467.35 246.69 C 463.11 244.96 458.45 245.54 454.00 245.65 C 441.26 246.40 428.61 244.39 415.95 243.49 C 407.06 243.24 398.09 243.75 389.36 245.51 C 383.68 246.58 378.57 249.38 373.48 251.96 C 374.85 256.85 375.56 261.91 375.64 266.99 C 375.81 276.36 377.55 285.71 376.58 295.09 C 376.00 297.43 378.01 299.12 379.79 300.19 C 385.61 303.69 392.43 304.91 399.06 305.86 C 414.34 307.79 429.76 308.13 445.10 309.22 C 459.90 311.05 475.54 314.55 490.03 309.22 C 499.91 306.50 509.66 302.91 518.36 297.39 C 526.59 292.71 533.90 286.50 542.58 282.59 C 550.88 278.60 560.12 277.19 568.52 273.43 C 570.64 272.57 572.79 271.38 575.17 271.74 C 575.24 272.31 575.39 273.44 575.46 274.01 C 573.10 277.42 569.09 279.08 565.44 280.72 C 556.37 284.46 546.73 287.03 538.42 292.41 C 530.07 297.86 521.73 303.39 512.77 307.79 C 508.90 309.72 504.63 310.76 500.84 312.84 C 498.25 315.25 497.14 318.84 496.41 322.21 C 495.76 325.56 498.13 328.44 500.18 330.79 C 506.39 337.44 513.72 343.02 521.64 347.46 C 531.37 352.73 541.78 356.78 550.92 363.10 C 553.26 364.65 555.05 366.87 556.59 369.20 C 551.06 366.68 546.16 362.97 540.60 360.50 C 532.30 356.14 523.09 353.76 515.02 348.94 C 506.74 344.08 499.20 337.77 493.59 329.93 C 487.36 334.83 480.67 339.58 476.38 346.39 C 471.56 354.95 474.80 365.32 471.27 374.25 C 468.34 381.54 466.57 389.23 465.09 396.93 C 463.86 402.85 464.84 408.90 466.18 414.71 C 477.04 412.44 487.81 409.41 498.95 408.88 C 511.01 408.32 523.12 408.31 535.14 409.47 C 545.06 410.45 555.08 412.00 564.19 416.24 C 559.48 412.75 554.77 409.29 549.85 406.11 C 536.98 397.52 522.30 390.85 512.37 378.58 C 509.19 374.75 505.76 371.11 502.92 367.03 C 501.65 365.40 501.42 363.30 501.56 361.31 C 507.09 365.09 510.83 370.79 515.70 375.30 C 523.74 383.23 533.49 389.07 542.98 395.08 C 556.17 403.14 568.96 412.12 579.59 423.44 C 586.27 429.91 591.17 437.85 596.89 445.12 C 602.23 452.85 607.22 460.90 610.95 469.55 C 613.38 465.77 616.05 462.11 618.01 458.04 C 620.73 451.77 620.67 444.71 620.00 438.03 C 616.97 410.47 600.32 386.84 581.88 367.11 C 567.57 352.75 549.87 341.40 539.15 323.78 C 535.94 318.60 536.74 311.07 541.86 307.40 C 541.67 311.58 539.56 316.15 542.01 320.04 C 551.66 335.06 566.04 345.97 578.99 357.95 C 588.35 366.38 596.21 376.31 603.63 386.44 C 614.79 402.09 623.05 420.39 624.20 439.77 C 628.59 433.97 633.51 428.58 637.61 422.56 C 645.06 412.41 651.09 401.07 660.38 392.40 C 666.10 386.45 673.39 381.80 677.37 374.36 C 683.39 362.87 686.45 350.06 692.59 338.62 C 696.19 331.85 702.13 326.78 707.98 321.99 C 715.22 315.92 722.26 309.30 726.98 301.01 C 731.45 293.10 733.91 284.29 736.42 275.62 C 738.13 269.91 738.86 263.80 742.09 258.67 C 742.56 265.94 740.46 272.99 738.83 279.99 C 737.04 286.69 735.31 293.43 732.79 299.90 C 729.32 308.60 723.10 315.83 716.31 322.14 C 727.18 322.90 738.03 323.90 748.91 324.45 C 756.54 324.85 764.24 325.70 771.83 324.41 C 779.15 323.09 786.59 322.58 794.01 322.52 C 795.56 322.46 797.23 322.63 798.24 323.98 C 796.83 325.97 794.30 326.18 792.12 326.60 C 786.99 327.34 781.89 328.29 776.81 329.25 C 785.02 332.31 792.45 337.05 800.54 340.41 C 819.43 348.66 840.65 346.69 860.32 351.90 C 863.68 347.40 866.78 342.59 868.42 337.17 C 870.72 329.79 872.95 321.70 870.58 314.06 C 867.39 308.00 861.93 303.27 855.90 300.12 C 844.72 294.41 832.61 290.63 821.83 284.12 C 808.74 276.40 797.63 265.91 785.39 256.99 C 787.74 260.45 790.27 263.80 793.18 266.82 C 794.43 268.30 796.18 269.68 796.19 271.81 C 793.66 272.52 791.38 271.00 789.48 269.55 C 784.82 265.89 780.36 261.83 777.21 256.76 C 771.95 248.43 766.85 239.97 760.74 232.23 C 754.45 224.27 748.43 216.02 741.02 209.05 C 733.69 201.72 724.45 196.81 716.04 190.89 C 708.34 185.41 700.03 180.29 694.33 172.57 C 688.30 164.36 688.83 153.26 683.05 144.93 C 680.73 141.73 676.45 141.26 672.88 140.53 C 659.62 138.61 646.03 137.39 632.74 139.74 M 231.90 244.83 C 223.86 245.72 217.35 250.82 210.32 254.31 C 205.70 256.73 200.56 259.06 197.86 263.80 C 193.81 270.68 192.36 278.70 188.81 285.82 C 185.95 291.78 181.95 298.11 184.21 304.98 C 188.57 304.41 193.16 303.57 196.57 300.55 C 201.84 295.97 203.54 288.86 207.40 283.28 C 208.22 282.51 209.67 280.79 210.77 282.13 C 210.74 286.40 209.44 290.72 210.62 294.95 C 212.07 300.74 212.90 306.70 214.78 312.38 C 215.81 315.93 219.31 317.68 222.16 319.59 C 221.53 314.52 220.11 309.37 221.08 304.25 C 221.57 304.20 222.53 304.10 223.01 304.06 C 225.33 309.61 225.24 315.87 227.70 321.38 C 229.16 324.84 233.27 325.50 236.38 326.75 C 236.97 321.84 237.77 316.95 238.93 312.14 C 240.32 315.84 240.83 319.82 242.41 323.44 C 244.15 326.35 246.74 329.01 250.02 330.10 C 251.75 329.98 253.94 329.03 253.82 326.98 C 254.58 317.94 249.96 309.13 252.14 300.09 C 253.05 296.49 253.38 291.74 257.27 290.05 C 257.98 292.51 257.52 295.07 257.26 297.57 C 261.86 297.86 266.60 298.34 271.09 296.98 C 277.45 295.21 282.99 291.33 289.35 289.55 C 301.23 286.67 313.74 290.20 325.58 287.25 C 329.64 284.27 332.83 279.14 331.94 273.93 C 331.45 269.44 330.37 265.03 329.59 260.59 C 328.85 257.05 328.12 253.17 325.40 250.56 C 322.43 247.70 318.26 246.60 314.32 245.85 C 300.59 243.67 286.60 243.81 272.83 245.47 C 259.17 247.11 245.52 242.95 231.90 244.83 M 331.66 252.08 C 333.68 260.01 337.41 267.67 337.20 276.02 C 337.27 279.88 335.23 283.26 333.65 286.64 C 340.47 287.28 347.49 286.88 354.06 289.19 C 359.87 291.20 365.56 293.55 371.54 295.08 C 371.56 289.72 371.26 284.37 370.81 279.03 C 370.09 270.64 370.60 262.11 368.64 253.86 C 364.44 254.22 360.23 254.40 356.03 254.23 C 347.86 253.98 339.86 251.68 331.66 252.08 M 877.98 315.38 C 883.23 323.08 887.27 332.64 885.01 342.08 C 884.01 346.84 880.64 350.54 876.98 353.52 C 888.20 357.99 898.97 363.89 910.98 366.04 C 918.47 367.71 926.42 366.59 933.69 369.32 C 941.38 372.33 946.75 378.88 952.20 384.78 C 954.14 386.71 956.08 389.13 958.99 389.51 C 962.92 385.59 964.00 378.99 960.72 374.33 C 957.81 368.60 951.32 364.99 950.24 358.35 C 957.46 361.63 962.88 367.75 967.19 374.25 C 968.87 370.84 971.49 367.36 970.77 363.33 C 970.02 359.11 967.52 355.44 964.77 352.25 C 961.85 348.77 957.57 346.92 954.17 344.02 C 955.56 341.38 958.82 342.86 961.16 342.56 C 958.34 336.27 954.13 330.27 947.74 327.23 C 939.92 323.56 931.60 320.83 923.07 319.41 C 908.10 317.49 892.95 317.33 877.98 315.38 M 867.73 351.36 C 873.81 351.65 878.46 346.28 879.84 340.80 C 881.34 334.83 879.26 328.78 877.05 323.28 C 876.18 333.21 873.41 343.08 867.73 351.36 M 821.38 612.32 C 816.36 616.24 811.92 620.82 807.03 624.88 C 816.00 624.73 825.74 624.40 833.58 629.47 C 838.71 632.61 841.08 638.38 843.43 643.63 C 845.50 648.54 848.03 653.58 847.71 659.06 C 847.60 661.77 846.67 664.72 844.28 666.26 C 839.00 669.66 832.18 669.41 826.96 672.93 C 824.04 674.78 823.48 678.38 822.66 681.45 C 829.70 682.55 836.74 683.71 843.61 685.64 C 853.10 688.30 862.98 689.86 872.03 693.95 C 886.95 700.52 900.80 709.21 915.33 716.58 C 921.41 719.49 927.32 723.15 934.05 724.34 C 937.30 724.85 941.76 724.74 943.18 721.12 C 945.90 714.78 944.76 707.61 944.01 700.97 C 942.59 688.56 935.36 677.85 927.30 668.71 C 918.86 659.63 909.32 651.41 898.30 645.63 C 889.39 640.96 882.20 633.85 874.64 627.36 C 866.36 620.76 858.01 613.61 847.62 610.64 C 839.22 607.96 828.81 606.51 821.38 612.32 M 340.27 621.95 C 336.87 625.98 333.31 629.88 330.13 634.09 C 319.97 647.50 308.46 659.81 298.22 673.15 C 293.57 679.01 288.81 685.34 287.86 692.99 C 286.87 698.16 290.02 703.93 286.65 708.60 C 283.48 712.88 280.20 717.08 277.01 721.35 C 286.16 721.83 295.09 724.16 303.68 727.26 C 316.87 732.32 330.22 738.65 339.73 749.43 C 343.12 741.40 348.10 734.22 353.26 727.24 C 357.16 721.64 362.39 717.20 367.39 712.63 C 361.66 714.14 355.78 715.08 350.20 717.08 C 344.83 719.01 339.55 721.18 334.18 723.14 C 331.56 724.01 328.78 725.08 326.01 724.22 C 326.53 723.09 327.26 722.06 328.38 721.47 C 338.66 714.99 350.00 710.08 361.96 707.69 C 377.89 703.54 393.74 698.48 408.15 690.36 C 403.84 686.49 400.16 682.00 396.55 677.48 C 389.72 668.98 382.02 661.25 374.78 653.10 C 369.13 646.81 363.17 640.80 357.06 634.96 C 351.92 630.06 345.90 626.24 340.27 621.95 M 554.02 634.36 C 546.58 635.80 539.13 637.38 532.01 640.00 C 524.53 642.64 517.35 646.04 510.01 649.02 C 503.94 651.48 498.19 654.70 491.92 656.65 C 494.76 664.33 500.73 670.14 505.13 676.89 C 510.76 684.74 513.18 694.32 518.44 702.39 C 521.69 707.36 525.39 712.33 530.65 715.33 C 539.15 720.40 549.29 721.39 558.98 721.69 C 567.44 721.86 575.41 718.77 583.34 716.24 C 592.09 713.41 600.26 709.06 609.01 706.22 C 601.98 696.80 597.54 685.68 594.90 674.27 C 592.28 662.56 591.22 650.06 594.93 638.45 C 584.94 643.26 575.19 648.59 565.02 653.01 C 562.30 654.33 559.28 654.67 556.32 654.23 C 557.90 652.48 559.66 650.85 561.80 649.81 C 570.75 645.17 579.63 640.39 588.40 635.44 C 589.99 634.85 590.56 633.42 590.70 631.85 C 578.48 632.92 566.11 632.02 554.02 634.36 M 42.31 896.37 C 40.12 900.46 41.81 905.25 43.81 909.06 C 47.48 916.38 53.80 921.89 60.41 926.51 C 70.30 933.45 81.36 938.68 92.98 941.98 C 102.51 944.65 111.61 948.72 119.98 954.00 C 126.90 958.47 134.24 962.55 142.34 964.41 C 150.22 966.26 158.87 964.21 165.29 959.35 C 169.93 955.64 168.19 949.02 167.93 943.93 C 167.06 937.53 168.64 931.15 171.36 925.38 C 166.63 924.50 161.83 923.48 156.99 923.94 C 150.32 924.47 143.46 926.24 136.86 924.28 C 132.45 923.02 129.40 919.05 128.03 914.84 C 125.92 908.63 126.45 901.96 127.24 895.58 C 116.00 894.84 105.17 898.57 94.01 899.05 C 85.46 899.65 77.08 897.35 68.93 895.05 C 63.09 893.41 57.20 890.79 51.00 891.69 C 47.73 892.16 43.93 893.16 42.31 896.37 Z" />
<path fill="#020202" opacity="1.00" d=" M 606.86 253.87 C 611.79 242.41 616.20 230.73 620.63 219.07 C 619.88 231.82 615.68 244.03 610.68 255.67 C 607.58 262.42 603.81 269.16 597.93 273.87 C 592.79 277.87 586.43 280.78 579.80 280.35 C 592.21 276.02 601.71 265.76 606.86 253.87 Z" />
<path fill="#020202" opacity="1.00" d=" M 631.74 230.77 C 633.83 227.55 636.55 223.16 640.97 223.61 C 643.79 224.89 643.36 228.44 643.83 230.97 C 644.21 236.44 647.02 241.50 646.83 247.02 C 646.97 248.45 645.15 251.14 643.93 249.19 C 641.50 244.05 639.70 238.61 637.75 233.27 C 632.28 243.12 630.06 254.28 627.17 265.05 C 626.13 268.98 624.42 272.73 622.09 276.06 C 616.67 283.86 610.52 291.11 604.50 298.44 C 601.10 302.50 598.08 307.09 593.42 309.82 C 593.23 305.15 596.65 301.72 599.15 298.19 C 603.77 292.13 607.96 285.74 612.88 279.90 C 616.66 275.24 620.85 270.55 622.44 264.61 C 626.06 253.47 625.38 240.99 631.74 230.77 Z" />
</g>
<g id="#f0b58bff">
<path fill="#f0b58b" opacity="1.00" d=" M 574.79 42.77 C 577.62 39.78 583.55 41.25 585.01 45.05 C 587.03 49.44 585.32 54.27 585.32 58.85 C 588.74 63.38 595.49 64.25 600.68 62.69 C 604.26 70.87 603.79 80.03 603.28 88.73 C 606.94 91.02 611.56 91.09 615.70 92.07 C 619.75 87.63 623.21 81.91 629.04 79.69 C 632.73 78.49 635.15 82.57 636.69 85.28 C 640.83 92.75 641.53 102.94 635.91 109.86 C 631.57 115.95 624.08 120.20 623.07 128.22 C 626.02 128.43 629.00 128.47 631.95 128.19 C 639.33 127.39 646.92 128.28 654.10 126.00 C 653.39 128.02 652.74 130.07 652.12 132.12 C 640.39 131.65 628.78 133.85 617.45 136.69 C 612.09 138.09 606.71 139.89 602.20 143.21 C 597.90 146.13 594.21 150.34 588.93 151.50 C 578.97 153.34 568.96 155.00 559.04 157.06 C 555.98 147.60 557.39 137.66 556.78 127.95 C 556.78 125.34 554.59 123.54 552.29 122.85 C 548.79 121.56 545.16 120.70 541.59 119.66 C 543.52 115.37 545.65 111.15 548.30 107.25 C 551.17 103.00 554.16 98.66 555.38 93.60 C 556.84 87.60 557.58 81.44 558.75 75.38 C 560.26 77.63 561.95 79.78 563.14 82.23 C 563.92 86.11 563.42 90.12 563.69 94.06 C 568.47 93.32 573.10 91.83 577.78 90.62 C 584.08 88.91 590.49 87.43 596.50 84.80 C 593.00 79.68 587.29 76.82 581.97 74.00 C 575.12 70.49 567.10 67.90 559.46 70.40 C 560.61 61.87 563.35 53.67 567.21 45.99 C 569.46 48.89 571.70 52.97 575.89 52.98 C 575.49 49.62 572.80 46.04 574.79 42.77 Z" />
<path fill="#f0b58b" opacity="1.00" d=" M 331.66 252.08 C 339.86 251.68 347.86 253.98 356.03 254.23 C 360.23 254.40 364.44 254.22 368.64 253.86 C 370.60 262.11 370.09 270.64 370.81 279.03 C 371.26 284.37 371.56 289.72 371.54 295.08 C 365.56 293.55 359.87 291.20 354.06 289.19 C 347.49 286.88 340.47 287.28 333.65 286.64 C 335.23 283.26 337.27 279.88 337.20 276.02 C 337.41 267.67 333.68 260.01 331.66 252.08 Z" />
<path fill="#f0b58b" opacity="1.00" d=" M 867.73 351.36 C 873.41 343.08 876.18 333.21 877.05 323.28 C 879.26 328.78 881.34 334.83 879.84 340.80 C 878.46 346.28 873.81 351.65 867.73 351.36 Z" />
<path fill="#f0b58b" opacity="1.00" d=" M 340.27 621.95 C 345.90 626.24 351.92 630.06 357.06 634.96 C 363.17 640.80 369.13 646.81 374.78 653.10 C 382.02 661.25 389.72 668.98 396.55 677.48 C 400.16 682.00 403.84 686.49 408.15 690.36 C 393.74 698.48 377.89 703.54 361.96 707.69 C 350.00 710.08 338.66 714.99 328.38 721.47 C 327.26 722.06 326.53 723.09 326.01 724.22 C 328.78 725.08 331.56 724.01 334.18 723.14 C 339.55 721.18 344.83 719.01 350.20 717.08 C 355.78 715.08 361.66 714.14 367.39 712.63 C 362.39 717.20 357.16 721.64 353.26 727.24 C 348.10 734.22 343.12 741.40 339.73 749.43 C 330.22 738.65 316.87 732.32 303.68 727.26 C 295.09 724.16 286.16 721.83 277.01 721.35 C 280.20 717.08 283.48 712.88 286.65 708.60 C 290.02 703.93 286.87 698.16 287.86 692.99 C 288.81 685.34 293.57 679.01 298.22 673.15 C 308.46 659.81 319.97 647.50 330.13 634.09 C 333.31 629.88 336.87 625.98 340.27 621.95 Z" />
<path fill="#f0b58b" opacity="1.00" d=" M 554.02 634.36 C 566.11 632.02 578.48 632.92 590.70 631.85 C 590.56 633.42 589.99 634.85 588.40 635.44 C 579.63 640.39 570.75 645.17 561.80 649.81 C 559.66 650.85 557.90 652.48 556.32 654.23 C 559.28 654.67 562.30 654.33 565.02 653.01 C 575.19 648.59 584.94 643.26 594.93 638.45 C 591.22 650.06 592.28 662.56 594.90 674.27 C 597.54 685.68 601.98 696.80 609.01 706.22 C 600.26 709.06 592.09 713.41 583.34 716.24 C 575.41 718.77 567.44 721.86 558.98 721.69 C 549.29 721.39 539.15 720.40 530.65 715.33 C 525.39 712.33 521.69 707.36 518.44 702.39 C 513.18 694.32 510.76 684.74 505.13 676.89 C 500.73 670.14 494.76 664.33 491.92 656.65 C 498.19 654.70 503.94 651.48 510.01 649.02 C 517.35 646.04 524.53 642.64 532.01 640.00 C 539.13 637.38 546.58 635.80 554.02 634.36 Z" />
</g>
<g id="#f35e11ff">
<path fill="var(--shirt-color, grey)" opacity="1.00" d=" M 632.74 139.74 C 646.03 137.39 659.62 138.61 672.88 140.53 C 676.45 141.26 680.73 141.73 683.05 144.93 C 688.83 153.26 688.30 164.36 694.33 172.57 C 700.03 180.29 708.34 185.41 716.04 190.89 C 724.45 196.81 733.69 201.72 741.02 209.05 C 748.43 216.02 754.45 224.27 760.74 232.23 C 766.85 239.97 771.95 248.43 777.21 256.76 C 780.36 261.83 784.82 265.89 789.48 269.55 C 791.38 271.00 793.66 272.52 796.19 271.81 C 796.18 269.68 794.43 268.30 793.18 266.82 C 790.27 263.80 787.74 260.45 785.39 256.99 C 797.63 265.91 808.74 276.40 821.83 284.12 C 832.61 290.63 844.72 294.41 855.90 300.12 C 861.93 303.27 867.39 308.00 870.58 314.06 C 872.95 321.70 870.72 329.79 868.42 337.17 C 866.78 342.59 863.68 347.40 860.32 351.90 C 840.65 346.69 819.43 348.66 800.54 340.41 C 792.45 337.05 785.02 332.31 776.81 329.25 C 781.89 328.29 786.99 327.34 792.12 326.60 C 794.30 326.18 796.83 325.97 798.24 323.98 C 797.23 322.63 795.56 322.46 794.01 322.52 C 786.59 322.58 779.15 323.09 771.83 324.41 C 764.24 325.70 756.54 324.85 748.91 324.45 C 738.03 323.90 727.18 322.90 716.31 322.14 C 723.10 315.83 729.32 308.60 732.79 299.90 C 735.31 293.43 737.04 286.69 738.83 279.99 C 740.46 272.99 742.56 265.94 742.09 258.67 C 738.86 263.80 738.13 269.91 736.42 275.62 C 733.91 284.29 731.45 293.10 726.98 301.01 C 722.26 309.30 715.22 315.92 707.98 321.99 C 702.13 326.78 696.19 331.85 692.59 338.62 C 686.45 350.06 683.39 362.87 677.37 374.36 C 673.39 381.80 666.10 386.45 660.38 392.40 C 651.09 401.07 645.06 412.41 637.61 422.56 C 633.51 428.58 628.59 433.97 624.20 439.77 C 623.05 420.39 614.79 402.09 603.63 386.44 C 596.21 376.31 588.35 366.38 578.99 357.95 C 566.04 345.97 551.66 335.06 542.01 320.04 C 539.56 316.15 541.67 311.58 541.86 307.40 C 536.74 311.07 535.94 318.60 539.15 323.78 C 549.87 341.40 567.57 352.75 581.88 367.11 C 600.32 386.84 616.97 410.47 620.00 438.03 C 620.67 444.71 620.73 451.77 618.01 458.04 C 616.05 462.11 613.38 465.77 610.95 469.55 C 607.22 460.90 602.23 452.85 596.89 445.12 C 591.17 437.85 586.27 429.91 579.59 423.44 C 568.96 412.12 556.17 403.14 542.98 395.08 C 533.49 389.07 523.74 383.23 515.70 375.30 C 510.83 370.79 507.09 365.09 501.56 361.31 C 501.42 363.30 501.65 365.40 502.92 367.03 C 505.76 371.11 509.19 374.75 512.37 378.58 C 522.30 390.85 536.98 397.52 549.85 406.11 C 554.77 409.29 559.48 412.75 564.19 416.24 C 555.08 412.00 545.06 410.45 535.14 409.47 C 523.12 408.31 511.01 408.32 498.95 408.88 C 487.81 409.41 477.04 412.44 466.18 414.71 C 464.84 408.90 463.86 402.85 465.09 396.93 C 466.57 389.23 468.34 381.54 471.27 374.25 C 474.80 365.32 471.56 354.95 476.38 346.39 C 480.67 339.58 487.36 334.83 493.59 329.93 C 499.20 337.77 506.74 344.08 515.02 348.94 C 523.09 353.76 532.30 356.14 540.60 360.50 C 546.16 362.97 551.06 366.68 556.59 369.20 C 555.05 366.87 553.26 364.65 550.92 363.10 C 541.78 356.78 531.37 352.73 521.64 347.46 C 513.72 343.02 506.39 337.44 500.18 330.79 C 498.13 328.44 495.76 325.56 496.41 322.21 C 497.14 318.84 498.25 315.25 500.84 312.84 C 504.63 310.76 508.90 309.72 512.77 307.79 C 521.73 303.39 530.07 297.86 538.42 292.41 C 546.73 287.03 556.37 284.46 565.44 280.72 C 569.09 279.08 573.10 277.42 575.46 274.01 C 575.39 273.44 575.24 272.31 575.17 271.74 C 572.79 271.38 570.64 272.57 568.52 273.43 C 560.12 277.19 550.88 278.60 542.58 282.59 C 533.90 286.50 526.59 292.71 518.36 297.39 C 509.66 302.91 499.91 306.50 490.03 309.22 C 475.54 314.55 459.90 311.05 445.10 309.22 C 429.76 308.13 414.34 307.79 399.06 305.86 C 392.43 304.91 385.61 303.69 379.79 300.19 C 378.01 299.12 376.00 297.43 376.58 295.09 C 377.55 285.71 375.81 276.36 375.64 266.99 C 375.56 261.91 374.85 256.85 373.48 251.96 C 378.57 249.38 383.68 246.58 389.36 245.51 C 398.09 243.75 407.06 243.24 415.95 243.49 C 428.61 244.39 441.26 246.40 454.00 245.65 C 458.45 245.54 463.11 244.96 467.35 246.69 C 472.48 248.47 476.41 252.92 482.02 253.39 C 478.96 246.98 472.41 243.33 466.03 240.92 C 472.01 237.38 477.73 233.42 483.31 229.29 C 486.07 227.03 489.82 227.10 493.16 226.51 C 498.18 225.67 503.05 227.61 507.70 229.26 C 517.12 232.75 524.44 239.90 533.02 244.89 C 537.44 247.47 541.46 250.72 546.07 252.96 C 547.65 253.86 549.50 253.59 551.23 253.44 C 543.78 245.42 533.93 240.35 525.43 233.62 C 515.79 226.49 504.23 220.16 491.86 221.20 C 498.49 213.04 509.19 207.63 519.82 209.57 C 526.66 210.86 532.11 215.41 537.46 219.54 C 546.20 226.40 554.13 234.28 561.10 242.93 C 562.29 244.05 563.46 246.23 565.46 245.35 C 565.48 242.69 564.38 240.22 562.82 238.14 C 554.79 227.24 544.48 218.27 533.64 210.27 C 529.11 206.90 523.71 204.68 518.12 203.96 C 512.10 203.37 506.19 205.13 500.52 206.93 C 503.35 201.15 508.21 195.46 515.03 194.85 C 520.73 194.06 527.87 196.07 532.14 191.07 C 534.14 189.13 533.46 186.20 531.86 184.27 C 530.22 186.25 529.10 189.42 526.11 189.62 C 522.02 190.12 517.89 189.78 513.79 189.90 C 514.35 186.70 514.50 183.17 516.67 180.55 C 522.16 173.41 530.82 170.00 539.13 167.32 C 556.70 161.82 575.11 160.05 592.98 155.78 C 597.70 154.67 602.02 152.23 606.82 151.39 C 615.77 149.71 624.87 148.88 633.98 148.95 C 637.21 148.99 640.46 148.89 643.66 148.28 C 641.25 147.23 638.73 146.35 636.09 146.20 C 626.37 145.43 616.63 146.21 606.92 146.73 C 615.12 143.12 623.97 141.33 632.74 139.74 M 606.86 253.87 C 601.71 265.76 592.21 276.02 579.80 280.35 C 586.43 280.78 592.79 277.87 597.93 273.87 C 603.81 269.16 607.58 262.42 610.68 255.67 C 615.68 244.03 619.88 231.82 620.63 219.07 C 616.20 230.73 611.79 242.41 606.86 253.87 M 631.74 230.77 C 625.38 240.99 626.06 253.47 622.44 264.61 C 620.85 270.55 616.66 275.24 612.88 279.90 C 607.96 285.74 603.77 292.13 599.15 298.19 C 596.65 301.72 593.23 305.15 593.42 309.82 C 598.08 307.09 601.10 302.50 604.50 298.44 C 610.52 291.11 616.67 283.86 622.09 276.06 C 624.42 272.73 626.13 268.98 627.17 265.05 C 630.06 254.28 632.28 243.12 637.75 233.27 C 639.70 238.61 641.50 244.05 643.93 249.19 C 645.15 251.14 646.97 248.45 646.83 247.02 C 647.02 241.50 644.21 236.44 643.83 230.97 C 643.36 228.44 643.79 224.89 640.97 223.61 C 636.55 223.16 633.83 227.55 631.74 230.77 Z" />
</g>
<g id="#4d4d4dff">
<path fill="#4d4d4d" opacity="1.00" d=" M 231.90 244.83 C 245.52 242.95 259.17 247.11 272.83 245.47 C 286.60 243.81 300.59 243.67 314.32 245.85 C 318.26 246.60 322.43 247.70 325.40 250.56 C 328.12 253.17 328.85 257.05 329.59 260.59 C 330.37 265.03 331.45 269.44 331.94 273.93 C 332.83 279.14 329.64 284.27 325.58 287.25 C 313.74 290.20 301.23 286.67 289.35 289.55 C 282.99 291.33 277.45 295.21 271.09 296.98 C 266.60 298.34 261.86 297.86 257.26 297.57 C 257.52 295.07 257.98 292.51 257.27 290.05 C 253.38 291.74 253.05 296.49 252.14 300.09 C 249.96 309.13 254.58 317.94 253.82 326.98 C 253.94 329.03 251.75 329.98 250.02 330.10 C 246.74 329.01 244.15 326.35 242.41 323.44 C 240.83 319.82 240.32 315.84 238.93 312.14 C 237.77 316.95 236.97 321.84 236.38 326.75 C 233.27 325.50 229.16 324.84 227.70 321.38 C 225.24 315.87 225.33 309.61 223.01 304.06 C 222.53 304.10 221.57 304.20 221.08 304.25 C 220.11 309.37 221.53 314.52 222.16 319.59 C 219.31 317.68 215.81 315.93 214.78 312.38 C 212.90 306.70 212.07 300.74 210.62 294.95 C 209.44 290.72 210.74 286.40 210.77 282.13 C 209.67 280.79 208.22 282.51 207.40 283.28 C 203.54 288.86 201.84 295.97 196.57 300.55 C 193.16 303.57 188.57 304.41 184.21 304.98 C 181.95 298.11 185.95 291.78 188.81 285.82 C 192.36 278.70 193.81 270.68 197.86 263.80 C 200.56 259.06 205.70 256.73 210.32 254.31 C 217.35 250.82 223.86 245.72 231.90 244.83 Z" />
<path fill="#4d4d4d" opacity="1.00" d=" M 877.98 315.38 C 892.95 317.33 908.10 317.49 923.07 319.41 C 931.60 320.83 939.92 323.56 947.74 327.23 C 954.13 330.27 958.34 336.27 961.16 342.56 C 958.82 342.86 955.56 341.38 954.17 344.02 C 957.57 346.92 961.85 348.77 964.77 352.25 C 967.52 355.44 970.02 359.11 970.77 363.33 C 971.49 367.36 968.87 370.84 967.19 374.25 C 962.88 367.75 957.46 361.63 950.24 358.35 C 951.32 364.99 957.81 368.60 960.72 374.33 C 964.00 378.99 962.92 385.59 958.99 389.51 C 956.08 389.13 954.14 386.71 952.20 384.78 C 946.75 378.88 941.38 372.33 933.69 369.32 C 926.42 366.59 918.47 367.71 910.98 366.04 C 898.97 363.89 888.20 357.99 876.98 353.52 C 880.64 350.54 884.01 346.84 885.01 342.08 C 887.27 332.64 883.23 323.08 877.98 315.38 Z" />
<path fill="#4d4d4d" opacity="1.00" d=" M 821.38 612.32 C 828.81 606.51 839.22 607.96 847.62 610.64 C 858.01 613.61 866.36 620.76 874.64 627.36 C 882.20 633.85 889.39 640.96 898.30 645.63 C 909.32 651.41 918.86 659.63 927.30 668.71 C 935.36 677.85 942.59 688.56 944.01 700.97 C 944.76 707.61 945.90 714.78 943.18 721.12 C 941.76 724.74 937.30 724.85 934.05 724.34 C 927.32 723.15 921.41 719.49 915.33 716.58 C 900.80 709.21 886.95 700.52 872.03 693.95 C 862.98 689.86 853.10 688.30 843.61 685.64 C 836.74 683.71 829.70 682.55 822.66 681.45 C 823.48 678.38 824.04 674.78 826.96 672.93 C 832.18 669.41 839.00 669.66 844.28 666.26 C 846.67 664.72 847.60 661.77 847.71 659.06 C 848.03 653.58 845.50 648.54 843.43 643.63 C 841.08 638.38 838.71 632.61 833.58 629.47 C 825.74 624.40 816.00 624.73 807.03 624.88 C 811.92 620.82 816.36 616.24 821.38 612.32 Z" />
<path fill="#4d4d4d" opacity="1.00" d=" M 42.31 896.37 C 43.93 893.16 47.73 892.16 51.00 891.69 C 57.20 890.79 63.09 893.41 68.93 895.05 C 77.08 897.35 85.46 899.65 94.01 899.05 C 105.17 898.57 116.00 894.84 127.24 895.58 C 126.45 901.96 125.92 908.63 128.03 914.84 C 129.40 919.05 132.45 923.02 136.86 924.28 C 143.46 926.24 150.32 924.47 156.99 923.94 C 161.83 923.48 166.63 924.50 171.36 925.38 C 168.64 931.15 167.06 937.53 167.93 943.93 C 168.19 949.02 169.93 955.64 165.29 959.35 C 158.87 964.21 150.22 966.26 142.34 964.41 C 134.24 962.55 126.90 958.47 119.98 954.00 C 111.61 948.72 102.51 944.65 92.98 941.98 C 81.36 938.68 70.30 933.45 60.41 926.51 C 53.80 921.89 47.48 916.38 43.81 909.06 C 41.81 905.25 40.12 900.46 42.31 896.37 Z" />
</g>
</svg>
