<?xml version="1.0" encoding="utf-8"?>
<!-- Generator: Adobe Illustrator 23.0.4, SVG Export Plug-In . SVG Version: 6.00 Build 0)  -->
<svg version="1.1" id="Слой_1" xmlns="http://www.w3.org/2000/svg" xmlns:xlink="http://www.w3.org/1999/xlink" x="0px" y="0px"
	 viewBox="0 0 80 80" style="enable-background:new 0 0 80 80;" xml:space="preserve">
<style type="text/css">
	.st0{fill:#9F7E1F;}
	.st1{fill:#FFFFFF;}
</style>
<circle class="st0" cx="40.1" cy="40" r="37.6"/>
<path class="st1" d="M11.2,62.1v-3.6l4.6-4.5C27,43.4,32,37.8,32.1,31.3c0-4.4-2.1-8.5-8.6-8.5c-4,0-7.2,2-9.2,3.7l-1.9-4.2
	c3-2.5,7.3-4.4,12.3-4.4C34,17.9,38,24.3,38,30.5c0,8-5.8,14.5-15,23.4l-3.5,3.2v0.1H39v4.9L11.2,62.1"/>
<path class="st1" d="M41.2,50.7c0-5.5,3.3-9.4,8.6-11.7l-0.1-0.2c-4.8-2.3-6.9-6-6.9-9.8c0-6.9,5.8-11.6,13.5-11.6
	c8.4,0,12.7,5.3,12.7,10.7c0,3.7-1.8,7.6-7.2,10.2v0.2c5.4,2.1,8.8,6,8.8,11.3c0,7.6-6.5,12.7-14.8,12.7
	C46.7,62.5,41.2,57.1,41.2,50.7 M64.6,50.4c0-5.3-3.7-7.8-9.6-9.5c-5.1,1.5-7.8,4.8-7.8,9c-0.2,4.4,3.1,8.3,8.7,8.3
	C61.2,58.2,64.6,54.9,64.6,50.4 M48.4,28.7c0,4.4,3.3,6.7,8.3,8c3.8-1.3,6.6-4,6.6-7.9c0-3.5-2.1-7.1-7.4-7.1
	C51.1,21.7,48.4,24.9,48.4,28.7"/>
</svg>
