<svg xmlns="http://www.w3.org/2000/svg" viewBox="0 0 40 10" enable-background="new 0 0 40 10">
 <g fill="#ed1c24">
  <ellipse cx="5.8" cy="8.3" rx="5" ry="1.8"/>
  <polygon points="5.8,0.7 10.8,8.1 0.7,8.1 "/>
 </g>
 <path fill="#ed5f69" d="m10.3 8.1l-4.5-7 1.4 8.4c0 .1.7.4 3.1-1.4"/>
 <path fill="#8c191f" d="M1.4,7.6l4.2-6.7L4,9.3c0,0-2.2,0-2.6-1.5"/>
 <g fill="#ed1c24">
  <ellipse cx="34.3" cy="8.2" rx="5" ry="1.8"/>
  <polygon points="34.3,0.7 39.3,8 29.3,8 "/>
 </g>
 <path fill="#ed5f69" d="m38.9 8l-4.5-7 1.4 8.4c0 .1.7.4 3.1-1.4"/>
 <path fill="#8c191f" d="m29.9 7.5l4.2-6.7-1.6 8.3c0 0-2.2 0-2.6-1.5"/>
 <rect fill="#171112" width="40" height="1.5"/>
</svg>
