<?xml version="1.0" encoding="UTF-8" ?>
<!DOCTYPE svg PUBLIC "-//W3C//DTD SVG 1.1//EN" "http://www.w3.org/Graphics/SVG/1.1/DTD/svg11.dtd">
<svg width="1000pt" height="1000pt" viewBox="0 0 1000 1000" version="1.1" xmlns="http://www.w3.org/2000/svg">
<g id="#020202ff">
<path fill="#020202" opacity="1.00" d=" M 458.73 164.78 C 468.27 160.73 479.17 158.69 489.31 161.67 C 495.94 163.63 502.58 166.54 507.20 171.88 C 512.98 171.58 518.82 170.78 524.60 171.65 C 529.61 172.46 533.67 175.77 538.38 177.38 C 545.46 179.22 552.94 178.72 559.97 180.79 C 573.49 184.58 585.25 193.20 594.59 203.49 C 603.33 213.59 608.73 226.11 612.39 238.85 C 615.37 248.95 617.98 259.41 617.54 270.02 C 617.03 276.84 615.00 283.61 611.48 289.49 C 607.95 295.19 601.53 297.76 596.15 301.25 C 593.90 303.75 592.33 306.78 590.69 309.70 C 587.61 315.29 588.95 321.93 587.36 327.91 C 584.10 341.85 574.49 353.07 564.84 363.16 C 570.24 367.85 573.43 374.43 576.19 380.90 C 582.97 398.66 583.80 418.59 578.64 436.89 C 575.81 446.56 573.02 456.37 568.17 465.27 C 560.57 480.29 550.43 493.81 539.94 506.90 C 530.33 518.83 522.45 532.00 514.19 544.86 C 527.50 556.25 539.15 569.60 548.52 584.41 C 551.33 588.99 554.89 593.43 555.54 598.95 C 566.01 612.15 576.02 625.72 584.91 640.03 C 594.50 654.92 604.63 669.52 612.78 685.28 C 618.00 695.91 622.22 707.26 623.30 719.13 C 624.10 725.09 626.00 730.88 626.01 736.94 C 626.47 751.13 619.60 764.08 613.43 776.40 C 607.66 787.26 603.80 799.00 598.05 809.87 C 607.80 817.41 617.72 824.79 626.43 833.57 C 638.73 845.45 651.06 858.06 658.01 873.96 C 661.74 882.80 664.16 892.70 662.17 902.27 C 660.15 909.53 655.04 916.72 647.40 918.66 C 639.11 920.49 630.01 920.80 622.33 916.65 C 605.98 909.32 595.11 894.62 582.50 882.55 C 574.04 874.07 564.54 866.57 557.25 856.99 C 551.25 849.12 544.75 840.99 542.93 831.00 C 541.04 820.67 544.29 810.07 548.96 800.94 C 547.11 787.75 546.36 774.30 548.01 761.05 C 548.98 752.66 551.49 744.47 551.45 735.98 C 551.38 732.33 552.25 728.72 552.10 725.09 C 550.60 720.74 548.98 715.78 544.82 713.26 C 535.51 707.05 527.06 699.69 518.74 692.25 C 508.44 682.76 498.38 672.60 491.77 660.11 C 490.59 674.76 489.91 689.76 485.08 703.76 C 492.60 717.61 504.02 728.96 510.79 743.27 C 516.10 753.36 518.96 766.01 513.61 776.68 C 512.52 779.31 510.07 780.82 507.53 781.82 C 508.19 787.54 508.22 793.30 507.82 799.04 C 507.27 807.79 507.00 816.72 504.34 825.16 C 502.88 829.55 500.68 834.10 496.63 836.65 C 493.69 838.57 489.57 838.39 486.81 836.23 C 482.74 833.15 480.86 828.20 479.04 823.63 C 477.20 828.74 474.12 834.09 468.52 835.65 C 462.45 837.72 456.06 833.91 453.20 828.57 C 448.10 835.39 437.05 835.61 431.06 829.92 C 428.79 827.98 428.92 824.82 428.81 822.11 C 421.73 818.05 418.09 810.38 414.70 803.31 C 411.22 796.38 409.85 788.64 409.05 780.99 C 408.73 777.81 408.75 774.52 407.42 771.56 C 398.78 750.81 391.69 729.47 384.95 708.04 C 383.24 702.90 382.68 697.40 380.63 692.39 C 370.91 679.40 363.66 664.71 357.30 649.83 C 356.62 656.27 355.81 662.72 354.16 669.00 C 351.05 680.83 349.11 692.95 347.75 705.10 C 347.09 709.74 349.41 713.97 350.90 718.20 C 356.76 733.49 360.67 749.56 361.74 765.93 C 363.92 790.08 357.86 813.89 357.38 837.98 C 357.02 855.10 355.80 872.37 358.26 889.40 C 361.61 892.93 364.73 896.80 366.66 901.32 C 369.90 909.15 372.41 917.40 372.60 925.94 C 372.62 929.63 373.47 933.81 371.13 937.03 C 368.07 941.58 361.75 942.09 358.60 946.55 C 355.05 951.32 351.83 956.46 347.16 960.26 C 340.41 965.86 331.47 967.53 323.05 968.92 C 311.54 970.46 299.51 971.79 288.16 968.59 C 282.25 967.09 277.81 962.01 276.98 955.98 C 274.80 948.48 278.74 941.32 281.84 934.76 C 285.57 927.46 289.62 920.30 292.62 912.66 C 297.12 901.42 299.78 889.34 306.34 879.02 C 303.28 864.64 297.96 850.92 292.91 837.16 C 285.91 818.54 283.17 798.71 280.21 779.14 C 276.96 756.95 275.68 734.43 276.90 712.03 C 277.51 699.16 282.15 686.85 282.35 673.94 C 282.56 663.99 283.10 653.91 281.06 644.10 C 278.73 631.90 272.33 621.07 266.98 610.03 C 261.42 600.33 256.05 590.52 250.39 580.88 C 244.80 589.32 240.29 598.48 237.05 608.08 C 236.35 609.94 235.82 611.91 234.71 613.59 C 233.33 615.05 231.29 613.64 231.51 611.88 C 231.31 604.25 231.02 596.62 231.12 589.00 C 231.53 576.01 225.03 564.30 222.65 551.79 C 220.62 542.95 221.65 533.85 222.24 524.92 C 222.91 515.19 221.65 505.32 223.72 495.70 C 221.70 490.03 222.57 483.95 222.69 478.08 C 223.35 464.12 223.45 449.48 229.86 436.71 C 234.81 427.20 242.00 419.07 249.46 411.46 C 254.84 405.86 261.24 401.06 265.18 394.23 C 276.58 375.18 287.38 355.09 304.29 340.25 C 309.26 335.55 314.17 330.76 319.59 326.58 C 332.21 316.44 347.53 310.32 360.04 300.01 C 365.89 295.16 371.57 290.02 378.15 286.16 C 392.20 277.36 409.20 274.77 425.50 274.73 C 424.29 270.21 424.82 265.04 421.75 261.20 C 419.48 258.03 417.53 254.60 416.40 250.85 C 414.67 245.78 415.08 240.36 414.48 235.11 C 413.42 227.05 417.18 218.46 423.96 213.93 C 424.91 213.08 426.28 212.40 426.45 210.99 C 427.89 202.77 428.90 194.25 432.52 186.64 C 438.23 176.48 448.17 169.30 458.73 164.78 M 523.95 257.01 C 523.55 263.85 517.86 267.99 513.44 272.41 C 506.04 278.92 500.75 287.33 493.98 294.43 C 490.33 295.05 487.49 292.25 484.81 290.27 C 486.27 293.08 487.86 295.82 489.76 298.37 C 483.56 294.40 477.55 289.76 473.59 283.44 C 470.33 278.47 468.47 272.50 464.10 268.30 C 462.76 270.36 461.30 272.46 460.97 274.96 C 460.02 282.16 459.96 289.91 463.50 296.47 C 465.37 300.72 469.03 303.88 470.87 308.12 C 471.72 310.99 468.26 311.84 466.44 312.97 C 467.89 325.33 469.11 337.71 470.66 350.06 C 471.48 356.63 471.68 363.43 474.28 369.62 C 477.04 375.25 480.78 380.36 484.87 385.10 C 486.91 387.43 489.57 389.67 492.82 389.83 C 495.65 389.10 497.53 386.60 499.34 384.47 C 502.31 380.42 505.78 376.77 509.39 373.28 C 500.68 366.45 492.46 358.67 486.84 349.03 C 485.66 347.24 485.58 345.06 485.72 342.99 C 488.56 345.65 490.51 349.07 493.10 351.96 C 499.68 359.36 506.83 366.38 515.05 371.95 C 526.68 379.98 543.17 376.22 552.91 366.85 C 545.12 363.15 536.96 360.01 529.71 355.30 C 527.43 354.05 527.34 351.51 527.75 349.23 C 526.24 348.12 523.06 346.94 524.50 344.56 C 526.22 343.52 528.03 344.78 529.65 345.41 C 539.70 350.24 549.95 354.67 559.78 359.97 C 569.00 350.44 578.39 340.03 581.46 326.73 C 576.83 326.08 572.21 325.44 567.58 324.94 C 566.70 328.48 566.83 332.73 563.98 335.41 C 562.55 335.15 561.95 334.32 562.19 332.93 C 562.54 327.95 564.18 323.15 565.63 318.41 C 566.46 316.39 566.88 314.01 568.43 312.41 C 573.27 312.52 577.92 314.31 582.64 315.25 C 583.63 311.11 585.25 307.12 587.72 303.64 C 593.29 295.51 598.07 286.70 600.58 277.12 C 595.75 277.60 590.72 277.79 586.13 275.92 C 580.16 273.53 574.32 270.72 568.89 267.25 C 567.70 267.86 566.50 268.81 565.09 268.60 C 560.86 267.80 557.13 265.50 553.52 263.27 C 552.66 264.81 552.05 266.91 550.03 267.24 C 547.25 267.69 544.47 266.82 541.81 266.09 C 535.44 263.99 529.40 260.92 523.95 257.01 M 394.31 284.26 C 383.97 287.97 375.12 294.70 366.95 301.88 C 359.53 308.45 351.04 313.65 342.40 318.44 C 329.53 325.69 317.09 334.07 307.11 345.06 C 303.16 349.46 299.08 353.73 294.96 357.96 C 288.31 364.38 284.33 372.85 279.52 380.60 C 273.69 389.96 269.21 400.41 261.12 408.15 C 251.98 417.01 242.24 425.61 235.62 436.63 C 230.65 445.21 228.95 455.16 228.33 464.93 C 227.75 474.07 227.09 483.22 227.22 492.38 C 238.78 491.04 250.52 489.48 262.12 491.40 C 279.73 494.17 295.45 503.28 310.30 512.67 C 319.33 518.50 327.79 525.20 337.17 530.48 C 337.14 524.33 337.72 518.14 336.98 512.01 C 335.53 505.38 333.32 498.86 332.95 492.04 C 332.51 483.76 333.25 475.47 334.09 467.24 C 327.74 463.69 323.37 457.69 319.10 451.99 C 316.38 448.18 313.23 444.59 311.51 440.18 C 314.05 441.22 316.02 443.15 317.68 445.28 C 323.02 451.91 328.59 458.35 334.36 464.61 C 334.70 461.71 335.03 458.81 335.37 455.92 C 327.07 446.00 318.30 436.30 311.87 425.01 C 309.47 420.27 306.38 415.68 305.60 410.31 C 308.59 413.53 310.39 417.58 312.81 421.20 C 319.82 431.86 328.36 441.39 335.96 451.61 C 338.02 433.47 339.21 415.22 339.21 396.95 C 339.16 393.06 338.88 389.15 339.35 385.27 C 341.64 388.37 341.80 392.31 342.14 395.99 C 342.72 405.02 342.79 414.09 342.46 423.14 C 341.77 443.20 338.14 463.00 336.92 483.01 C 336.24 491.42 337.70 499.78 340.05 507.83 C 341.74 513.40 341.19 519.27 341.17 525.00 C 340.92 532.03 341.56 539.09 340.68 546.08 C 338.59 560.59 338.60 575.51 341.56 589.90 C 345.01 604.61 353.24 617.69 356.79 632.37 C 361.64 652.54 372.01 670.80 382.96 688.21 C 387.71 682.39 390.65 675.26 395.90 669.82 C 398.98 666.60 403.71 665.91 407.00 663.01 C 409.20 660.59 408.90 657.03 408.94 653.99 C 408.35 633.97 409.05 613.92 407.66 593.92 C 406.74 572.56 401.83 551.48 402.61 530.02 C 403.91 505.44 405.91 480.57 402.20 456.11 C 401.66 450.75 394.83 449.91 393.72 444.96 C 398.51 445.57 403.11 447.76 405.64 452.03 C 406.59 448.59 408.32 445.08 407.42 441.44 C 406.43 437.12 404.63 433.04 403.22 428.85 C 399.61 418.96 397.66 408.49 397.15 397.99 C 396.90 395.92 397.59 393.95 398.76 392.28 C 399.91 396.49 400.25 400.86 401.20 405.12 C 403.05 414.32 405.88 423.28 409.03 432.11 C 410.92 423.96 411.88 415.48 410.46 407.17 C 409.40 398.47 405.41 390.32 405.27 381.49 C 412.44 395.09 416.40 410.84 414.14 426.23 C 417.33 422.35 420.58 418.48 423.13 414.14 C 429.55 403.45 435.83 392.31 438.01 379.87 C 439.88 387.17 436.98 394.44 434.08 401.03 C 429.74 410.57 424.85 420.00 418.01 428.02 C 415.28 431.18 413.13 434.77 411.18 438.46 C 411.86 442.16 411.96 446.07 410.30 449.55 C 408.35 454.06 406.90 458.92 407.45 463.89 C 408.20 471.81 408.67 479.76 408.53 487.72 C 411.84 484.58 415.41 481.71 419.25 479.23 C 429.98 472.20 441.11 465.80 451.98 459.01 C 456.04 456.64 459.80 453.52 464.49 452.50 C 463.63 456.53 459.82 458.56 456.90 460.99 C 441.74 473.02 422.97 479.80 408.59 492.90 C 408.51 497.69 408.46 502.48 408.35 507.28 C 416.51 498.78 426.75 492.75 436.83 486.84 C 450.81 478.41 468.28 477.60 481.31 467.34 C 485.31 463.60 487.93 458.65 491.97 454.94 C 496.67 450.61 500.63 445.46 505.91 441.79 C 504.87 446.48 501.26 449.80 498.28 453.32 C 494.80 457.16 491.64 461.26 488.71 465.53 C 502.84 456.50 516.04 446.09 530.28 437.24 C 534.83 434.75 539.43 431.65 544.80 431.60 C 541.61 436.30 535.81 438.05 531.52 441.53 C 515.47 451.87 500.29 463.72 483.06 472.10 C 489.75 471.32 496.65 471.26 503.05 468.88 C 509.18 466.59 515.23 463.60 519.96 458.97 C 521.29 457.67 522.70 456.47 524.16 455.33 C 523.85 457.35 523.57 459.53 522.08 461.08 C 515.67 468.51 506.45 473.41 496.74 474.76 C 490.50 475.61 484.17 475.29 477.92 475.94 C 474.77 476.58 472.07 478.46 469.46 480.23 C 477.04 481.15 484.23 484.64 491.99 484.09 C 498.78 483.61 505.40 481.83 512.00 480.24 C 515.80 479.41 519.18 477.46 522.31 475.23 C 522.20 476.86 522.24 478.78 520.76 479.85 C 517.92 482.27 514.33 483.55 510.90 484.89 C 504.49 487.13 497.79 488.80 490.97 489.03 C 482.55 489.20 474.88 485.21 466.76 483.59 C 459.48 492.57 454.15 502.93 449.34 513.38 C 444.18 525.89 440.02 538.83 433.85 550.90 C 430.54 557.11 427.90 563.95 428.01 571.07 C 429.01 575.01 431.16 578.54 432.50 582.37 C 438.76 598.15 449.87 611.45 462.45 622.63 C 465.03 625.24 468.59 627.18 469.91 630.80 C 465.74 629.49 462.45 626.56 459.17 623.81 C 453.46 618.88 447.61 614.01 442.85 608.11 C 435.95 599.65 430.67 589.87 427.35 579.48 C 428.06 605.58 434.09 631.13 436.96 657.01 C 437.89 669.15 438.89 681.29 439.94 693.42 C 454.54 692.52 468.77 696.59 482.36 701.47 C 484.78 691.52 485.29 681.27 486.39 671.12 C 487.71 658.44 487.36 645.66 488.23 632.95 C 488.73 625.02 488.31 617.07 488.59 609.13 C 480.96 603.12 472.33 598.59 463.67 594.29 C 461.71 593.38 459.91 592.12 458.66 590.34 C 463.58 590.35 468.02 592.67 472.39 594.64 C 478.49 597.45 484.09 601.21 489.24 605.51 C 490.34 602.51 491.28 599.45 491.94 596.33 C 485.02 589.35 476.97 583.70 468.99 578.03 C 465.57 575.41 461.47 573.13 459.74 568.95 C 463.80 569.78 467.05 572.47 470.44 574.66 C 478.00 579.70 485.73 584.64 492.05 591.25 C 492.01 586.12 490.55 580.74 492.62 575.83 C 494.55 571.18 497.13 566.85 499.43 562.39 C 505.23 551.91 510.43 541.08 517.03 531.06 C 525.38 517.62 535.53 505.45 544.26 492.27 C 551.63 482.76 558.43 472.79 564.16 462.20 C 569.16 453.06 572.02 442.96 574.85 433.00 C 579.33 416.49 578.57 398.59 572.31 382.65 C 569.80 376.64 566.76 370.67 561.89 366.22 C 557.77 370.03 553.75 374.09 548.74 376.73 C 541.48 380.55 532.99 381.54 524.91 380.67 C 520.05 380.13 515.78 377.56 511.70 375.04 C 508.27 378.89 505.01 382.90 502.23 387.24 C 499.93 390.39 497.16 393.95 493.02 394.47 C 488.44 394.70 484.30 391.92 481.35 388.65 C 476.73 383.42 472.48 377.75 469.57 371.38 C 466.84 364.60 466.44 357.20 465.45 350.03 C 464.10 340.65 463.45 331.18 462.18 321.79 C 461.65 318.12 461.43 314.41 461.52 310.71 C 457.68 306.50 455.31 301.29 452.83 296.23 C 448.26 293.70 445.14 289.30 443.78 284.31 C 437.86 285.00 430.97 284.12 427.49 278.66 C 416.25 278.88 404.97 280.66 394.31 284.26 M 433.41 494.40 C 424.99 499.46 416.57 504.70 409.50 511.57 C 408.49 512.41 408.07 513.66 408.10 514.96 C 407.35 526.37 407.04 537.84 408.14 549.24 C 415.67 548.07 423.26 547.38 430.86 546.95 C 434.39 539.31 437.54 531.50 440.53 523.64 C 445.94 508.68 453.35 494.34 463.31 481.89 C 452.84 484.74 442.59 488.54 433.41 494.40 M 289.01 552.23 C 274.56 555.76 262.20 565.25 253.25 576.91 C 256.83 581.11 259.66 585.85 262.41 590.62 C 266.42 597.61 270.84 604.38 274.41 611.62 C 279.06 621.10 284.37 630.46 286.53 640.91 C 289.22 652.78 288.36 665.03 287.65 677.07 C 287.27 683.94 284.99 690.48 283.31 697.10 C 290.81 707.54 303.67 712.53 315.93 714.65 C 325.27 716.02 336.53 715.96 343.32 708.34 C 342.85 694.19 345.47 680.08 349.29 666.51 C 351.76 656.56 352.55 646.26 352.68 636.05 C 349.23 618.72 338.46 603.65 336.12 586.00 C 334.61 576.88 334.99 567.61 335.51 558.42 C 321.22 551.48 304.62 548.13 289.01 552.23 M 496.21 636.19 C 494.26 637.92 492.43 640.17 492.47 642.92 C 492.33 646.54 491.94 650.18 492.29 653.81 C 502.76 673.14 519.85 687.61 536.49 701.50 C 547.87 710.27 559.82 718.33 572.02 725.92 C 573.66 726.84 575.75 729.26 573.15 730.48 C 566.58 729.26 561.55 724.39 556.05 720.96 C 558.65 727.36 558.96 734.55 562.37 740.63 C 566.16 747.51 572.66 754.20 581.05 754.23 C 589.63 754.26 598.27 752.05 605.68 747.69 C 613.94 742.89 619.22 733.59 619.17 724.04 C 619.26 712.18 614.72 700.86 609.78 690.27 C 601.39 673.80 590.78 658.60 580.79 643.09 C 571.51 628.31 561.30 614.11 550.46 600.44 C 529.86 607.96 512.43 621.80 496.21 636.19 M 412.77 653.77 C 412.63 657.56 412.51 661.40 411.40 665.06 C 421.90 670.15 428.86 679.88 435.29 689.23 C 433.87 676.36 433.26 663.41 431.65 650.56 C 425.61 652.70 419.26 654.65 412.77 653.77 M 398.93 672.87 C 393.17 678.19 390.78 686.25 384.48 691.09 C 389.02 707.27 394.36 723.20 399.74 739.12 C 405.20 754.32 410.58 769.61 417.85 784.07 C 421.17 790.51 424.39 797.25 429.77 802.28 C 434.53 806.79 439.91 812.39 447.16 811.09 C 447.37 803.30 441.95 797.26 437.72 791.32 C 432.61 784.79 428.40 777.62 424.82 770.15 C 423.87 768.18 423.22 766.05 423.12 763.87 C 423.55 763.81 424.41 763.69 424.84 763.63 C 429.30 768.33 433.22 773.70 438.88 777.12 C 449.53 784.01 462.75 788.57 475.50 786.12 C 473.97 783.82 472.38 781.55 470.39 779.65 C 461.32 771.00 450.66 764.08 442.42 754.57 C 437.86 749.37 435.23 742.73 434.03 735.98 C 433.68 734.33 433.82 732.66 434.25 731.06 C 436.63 731.48 438.24 733.46 439.86 735.08 C 450.24 746.72 459.62 759.47 471.91 769.23 C 475.62 771.98 480.06 775.22 484.94 774.14 C 488.77 772.62 489.31 767.65 488.67 764.11 C 487.28 757.52 483.40 751.83 479.55 746.44 C 469.46 732.57 454.08 723.88 443.39 710.55 C 434.45 700.23 428.28 687.86 419.28 677.59 C 416.08 673.86 412.11 670.93 408.41 667.74 C 405.20 669.34 401.70 670.52 398.93 672.87 M 441.85 698.66 C 446.55 705.33 451.64 711.78 457.70 717.27 C 462.80 721.85 468.18 726.09 473.20 730.75 C 480.45 737.35 486.34 745.38 490.80 754.08 C 493.07 758.42 494.01 763.28 494.26 768.14 C 498.35 772.02 502.92 776.25 508.99 776.03 C 510.83 769.50 511.26 762.47 509.12 755.96 C 505.37 744.42 498.27 734.40 491.30 724.62 C 487.25 718.60 482.65 712.73 480.75 705.60 C 467.99 702.29 455.25 697.68 441.85 698.66 M 439.43 739.13 C 443.04 747.70 449.24 754.90 456.59 760.51 C 450.97 753.30 445.07 746.32 439.43 739.13 M 493.33 772.20 C 491.60 774.65 490.01 777.68 486.92 778.61 C 483.42 779.88 479.75 778.58 476.40 777.49 C 478.75 780.21 480.89 783.40 480.50 787.21 C 481.04 787.10 482.10 786.88 482.64 786.77 L 483.00 785.07 C 483.97 786.54 485.22 788.04 485.02 789.95 C 484.90 798.46 482.85 806.80 481.37 815.15 C 480.78 820.15 483.55 824.81 485.92 829.02 C 487.51 831.81 491.23 835.12 494.37 832.40 C 498.81 828.60 499.74 822.39 500.76 816.96 C 502.44 805.07 502.39 793.01 503.88 781.09 C 499.65 779.06 496.09 775.96 493.33 772.20 M 412.74 783.90 C 414.24 793.94 418.66 803.28 424.21 811.70 C 426.12 814.21 428.39 817.50 431.92 817.43 C 433.78 816.63 434.26 814.50 435.12 812.87 C 430.80 809.56 426.67 805.95 423.30 801.65 C 418.96 796.25 416.24 789.82 412.74 783.90 M 461.03 808.00 C 461.86 811.83 458.79 814.65 456.11 816.80 C 456.13 820.32 455.56 824.23 457.61 827.35 C 459.90 830.94 465.27 832.50 468.80 829.77 C 473.30 826.30 474.28 820.27 475.59 815.10 C 477.64 806.90 477.99 798.38 480.34 790.26 C 479.94 789.69 479.54 789.14 479.14 788.60 C 477.55 791.62 474.04 792.34 470.93 792.42 C 462.86 792.62 455.05 790.15 447.58 787.35 C 453.01 793.46 459.57 799.57 461.03 808.00 M 447.44 795.21 C 448.79 798.01 450.33 800.74 451.35 803.69 C 452.45 806.88 451.80 810.29 451.72 813.58 C 453.06 812.45 454.50 811.41 455.64 810.07 C 455.26 804.15 451.01 799.57 447.44 795.21 M 550.13 807.58 C 548.93 813.02 546.92 818.37 547.04 824.03 C 546.88 831.57 550.01 838.70 553.98 844.95 C 562.57 858.38 574.71 868.95 586.29 879.72 C 597.67 890.33 607.20 903.31 621.13 910.86 C 628.31 915.35 637.35 915.33 645.35 913.39 C 651.40 911.95 655.77 906.62 657.58 900.89 C 659.21 894.70 657.59 888.23 655.72 882.29 C 649.82 865.25 637.04 851.93 624.52 839.47 C 615.57 830.37 605.47 822.55 595.49 814.65 C 591.85 820.64 587.33 826.73 580.55 829.32 C 574.74 831.37 567.65 832.60 562.27 828.78 C 555.24 824.02 552.00 815.52 550.13 807.58 M 440.01 815.55 C 438.46 819.12 435.47 821.58 431.89 822.94 C 433.15 829.20 441.09 830.23 446.01 827.92 C 449.35 825.71 449.65 821.26 450.84 817.80 C 447.20 817.20 443.59 816.40 440.01 815.55 M 317.37 875.53 C 312.81 877.78 309.71 882.10 307.69 886.64 C 302.01 899.05 299.24 912.61 292.86 924.73 C 289.24 932.06 284.61 938.89 281.55 946.49 C 279.47 951.58 280.28 958.54 285.10 961.80 C 290.22 964.63 296.24 965.01 301.96 965.18 C 310.69 965.20 319.42 964.32 328.03 962.83 C 333.99 961.76 340.16 959.97 344.62 955.65 C 349.32 951.54 352.07 945.78 356.38 941.33 C 359.09 938.51 363.31 937.84 366.05 935.17 C 367.31 930.95 366.70 926.44 366.44 922.12 C 365.25 912.73 362.73 902.86 356.32 895.61 C 352.69 891.36 346.51 891.80 342.01 889.01 C 336.54 885.64 333.28 879.62 327.62 876.48 C 324.57 874.65 320.64 873.52 317.37 875.53 Z" />
<path fill="#020202" opacity="1.00" d=" M 512.59 291.40 C 513.78 289.55 516.47 291.37 518.16 291.71 C 528.14 295.46 538.18 299.05 548.18 302.75 C 549.57 303.30 551.02 303.86 552.18 304.84 C 551.57 309.19 550.96 314.05 548.14 317.57 C 538.24 315.06 528.81 310.91 519.16 307.56 C 515.63 306.07 511.73 305.31 508.57 303.08 C 508.87 298.94 510.85 295.11 512.59 291.40 Z" />
<path fill="#020202" opacity="1.00" d=" M 543.20 330.44 C 547.52 332.73 550.30 336.94 554.30 339.62 C 557.05 339.53 559.73 338.79 562.48 338.58 C 562.42 340.98 562.87 343.55 561.92 345.82 C 559.49 347.81 556.06 348.01 553.05 347.87 C 548.63 342.83 545.85 336.54 543.20 330.44 Z" />
<path fill="#020202" opacity="1.00" d=" M 365.35 392.21 C 368.40 394.89 368.00 399.22 368.66 402.87 C 370.11 416.86 374.33 430.41 379.57 443.40 C 381.55 448.73 385.38 453.32 386.26 459.04 C 381.36 455.25 378.92 449.31 376.03 444.01 C 368.91 427.78 364.07 410.08 365.35 392.21 Z" />
</g>
<g id="#f0b58bff">
<path fill="#f0b58b" opacity="1.00" d=" M 523.95 257.01 C 529.40 260.92 535.44 263.99 541.81 266.09 C 544.47 266.82 547.25 267.69 550.03 267.24 C 552.05 266.91 552.66 264.81 553.52 263.27 C 557.13 265.50 560.86 267.80 565.09 268.60 C 566.50 268.81 567.70 267.86 568.89 267.25 C 574.32 270.72 580.16 273.53 586.13 275.92 C 590.72 277.79 595.75 277.60 600.58 277.12 C 598.07 286.70 593.29 295.51 587.72 303.64 C 585.25 307.12 583.63 311.11 582.64 315.25 C 577.92 314.31 573.27 312.52 568.43 312.41 C 566.88 314.01 566.46 316.39 565.63 318.41 C 564.18 323.15 562.54 327.95 562.19 332.93 C 561.95 334.32 562.55 335.15 563.98 335.41 C 566.83 332.73 566.70 328.48 567.58 324.94 C 572.21 325.44 576.83 326.08 581.46 326.73 C 578.39 340.03 569.00 350.44 559.78 359.97 C 549.95 354.67 539.70 350.24 529.65 345.41 C 528.03 344.78 526.22 343.52 524.50 344.56 C 523.06 346.94 526.24 348.12 527.75 349.23 C 527.34 351.51 527.43 354.05 529.71 355.30 C 536.96 360.01 545.12 363.15 552.91 366.85 C 543.17 376.22 526.68 379.98 515.05 371.95 C 506.83 366.38 499.68 359.36 493.10 351.96 C 490.51 349.07 488.56 345.65 485.72 342.99 C 485.58 345.06 485.66 347.24 486.84 349.03 C 492.46 358.67 500.68 366.45 509.39 373.28 C 505.78 376.77 502.31 380.42 499.34 384.47 C 497.53 386.60 495.65 389.10 492.82 389.83 C 489.57 389.67 486.91 387.43 484.87 385.10 C 480.78 380.36 477.04 375.25 474.28 369.62 C 471.68 363.43 471.48 356.63 470.66 350.06 C 469.11 337.71 467.89 325.33 466.44 312.97 C 468.26 311.84 471.72 310.99 470.87 308.12 C 469.03 303.88 465.37 300.72 463.50 296.47 C 459.96 289.91 460.02 282.16 460.97 274.96 C 461.30 272.46 462.76 270.36 464.10 268.30 C 468.47 272.50 470.33 278.47 473.59 283.44 C 477.55 289.76 483.56 294.40 489.76 298.37 C 487.86 295.82 486.27 293.08 484.81 290.27 C 487.49 292.25 490.33 295.05 493.98 294.43 C 500.75 287.33 506.04 278.92 513.44 272.41 C 517.86 267.99 523.55 263.85 523.95 257.01 M 512.59 291.40 C 510.85 295.11 508.87 298.94 508.57 303.08 C 511.73 305.31 515.63 306.07 519.16 307.56 C 528.81 310.91 538.24 315.06 548.14 317.57 C 550.96 314.05 551.57 309.19 552.18 304.84 C 551.02 303.86 549.57 303.30 548.18 302.75 C 538.18 299.05 528.14 295.46 518.16 291.71 C 516.47 291.37 513.78 289.55 512.59 291.40 M 543.20 330.44 C 545.85 336.54 548.63 342.83 553.05 347.87 C 556.06 348.01 559.49 347.81 561.92 345.82 C 562.87 343.55 562.42 340.98 562.48 338.58 C 559.73 338.79 557.05 339.53 554.30 339.62 C 550.30 336.94 547.52 332.73 543.20 330.44 Z" />
<path fill="#f0b58b" opacity="1.00" d=" M 289.01 552.23 C 304.62 548.13 321.22 551.48 335.51 558.42 C 334.99 567.61 334.61 576.88 336.12 586.00 C 338.46 603.65 349.23 618.72 352.68 636.05 C 352.55 646.26 351.76 656.56 349.29 666.51 C 345.47 680.08 342.85 694.19 343.32 708.34 C 336.53 715.96 325.27 716.02 315.93 714.65 C 303.67 712.53 290.81 707.54 283.31 697.10 C 284.99 690.48 287.27 683.94 287.65 677.07 C 288.36 665.03 289.22 652.78 286.53 640.91 C 284.37 630.46 279.06 621.10 274.41 611.62 C 270.84 604.38 266.42 597.61 262.41 590.62 C 259.66 585.85 256.83 581.11 253.25 576.91 C 262.20 565.25 274.56 555.76 289.01 552.23 Z" />
<path fill="#f0b58b" opacity="1.00" d=" M 496.21 636.19 C 512.43 621.80 529.86 607.96 550.46 600.44 C 561.30 614.11 571.51 628.31 580.79 643.09 C 590.78 658.60 601.39 673.80 609.78 690.27 C 614.72 700.86 619.26 712.18 619.17 724.04 C 619.22 733.59 613.94 742.89 605.68 747.69 C 598.27 752.05 589.63 754.26 581.05 754.23 C 572.66 754.20 566.16 747.51 562.37 740.63 C 558.96 734.55 558.65 727.36 556.05 720.96 C 561.55 724.39 566.58 729.26 573.15 730.48 C 575.75 729.26 573.66 726.84 572.02 725.92 C 559.82 718.33 547.87 710.27 536.49 701.50 C 519.85 687.61 502.76 673.14 492.29 653.81 C 491.94 650.18 492.33 646.54 492.47 642.92 C 492.43 640.17 494.26 637.92 496.21 636.19 Z" />
</g>
<g id="#f25e11ff">
<path fill="var(--shirt-color, grey)" opacity="1.00" d=" M 394.31 284.26 C 404.97 280.66 416.25 278.88 427.49 278.66 C 430.97 284.12 437.86 285.00 443.78 284.31 C 445.14 289.30 448.26 293.70 452.83 296.23 C 455.31 301.29 457.68 306.50 461.52 310.71 C 461.43 314.41 461.65 318.12 462.18 321.79 C 463.45 331.18 464.10 340.65 465.45 350.03 C 466.44 357.20 466.84 364.60 469.57 371.38 C 472.48 377.75 476.73 383.42 481.35 388.65 C 484.30 391.92 488.44 394.70 493.02 394.47 C 497.16 393.95 499.93 390.39 502.23 387.24 C 505.01 382.90 508.27 378.89 511.70 375.04 C 515.78 377.56 520.05 380.13 524.91 380.67 C 532.99 381.54 541.48 380.55 548.74 376.73 C 553.75 374.09 557.77 370.03 561.89 366.22 C 566.76 370.67 569.80 376.64 572.31 382.65 C 578.57 398.59 579.33 416.49 574.85 433.00 C 572.02 442.96 569.16 453.06 564.16 462.20 C 558.43 472.79 551.63 482.76 544.26 492.27 C 535.53 505.45 525.38 517.62 517.03 531.06 C 510.43 541.08 505.23 551.91 499.43 562.39 C 497.13 566.85 494.55 571.18 492.62 575.83 C 490.55 580.74 492.01 586.12 492.05 591.25 C 485.73 584.64 478.00 579.70 470.44 574.66 C 467.05 572.47 463.80 569.78 459.74 568.95 C 461.47 573.13 465.57 575.41 468.99 578.03 C 476.97 583.70 485.02 589.35 491.94 596.33 C 491.28 599.45 490.34 602.51 489.24 605.51 C 484.09 601.21 478.49 597.45 472.39 594.64 C 468.02 592.67 463.58 590.35 458.66 590.34 C 459.91 592.12 461.71 593.38 463.67 594.29 C 472.33 598.59 480.96 603.12 488.59 609.13 C 488.31 617.07 488.73 625.02 488.23 632.95 C 487.36 645.66 487.71 658.44 486.39 671.12 C 485.29 681.27 484.78 691.52 482.36 701.47 C 468.77 696.59 454.54 692.52 439.94 693.42 C 438.89 681.29 437.89 669.15 436.96 657.01 C 434.09 631.13 428.06 605.58 427.35 579.48 C 430.67 589.87 435.95 599.65 442.85 608.11 C 447.61 614.01 453.46 618.88 459.17 623.81 C 462.45 626.56 465.74 629.49 469.91 630.80 C 468.59 627.18 465.03 625.24 462.45 622.63 C 449.87 611.45 438.76 598.15 432.50 582.37 C 431.16 578.54 429.01 575.01 428.01 571.07 C 427.90 563.95 430.54 557.11 433.85 550.90 C 440.02 538.83 444.18 525.89 449.34 513.38 C 454.15 502.93 459.48 492.57 466.76 483.59 C 474.88 485.21 482.55 489.20 490.97 489.03 C 497.79 488.80 504.49 487.13 510.90 484.89 C 514.33 483.55 517.92 482.27 520.76 479.85 C 522.24 478.78 522.20 476.86 522.31 475.23 C 519.18 477.46 515.80 479.41 512.00 480.24 C 505.40 481.83 498.78 483.61 491.99 484.09 C 484.23 484.64 477.04 481.15 469.46 480.23 C 472.07 478.46 474.77 476.58 477.92 475.94 C 484.17 475.29 490.50 475.61 496.74 474.76 C 506.45 473.41 515.67 468.51 522.08 461.08 C 523.57 459.53 523.85 457.35 524.16 455.33 C 522.70 456.47 521.29 457.67 519.96 458.97 C 515.23 463.60 509.18 466.59 503.05 468.88 C 496.65 471.26 489.75 471.32 483.06 472.10 C 500.29 463.72 515.47 451.87 531.52 441.53 C 535.81 438.05 541.61 436.30 544.80 431.60 C 539.43 431.65 534.83 434.75 530.28 437.24 C 516.04 446.09 502.84 456.50 488.71 465.53 C 491.64 461.26 494.80 457.16 498.28 453.32 C 501.26 449.80 504.87 446.48 505.91 441.79 C 500.63 445.46 496.67 450.61 491.97 454.94 C 487.93 458.65 485.31 463.60 481.31 467.34 C 468.28 477.60 450.81 478.41 436.83 486.84 C 426.75 492.75 416.51 498.78 408.35 507.28 C 408.46 502.48 408.51 497.69 408.59 492.90 C 422.97 479.80 441.74 473.02 456.90 460.99 C 459.82 458.56 463.63 456.53 464.49 452.50 C 459.80 453.52 456.04 456.64 451.98 459.01 C 441.11 465.80 429.98 472.20 419.25 479.23 C 415.41 481.71 411.84 484.58 408.53 487.72 C 408.67 479.76 408.20 471.81 407.45 463.89 C 406.90 458.92 408.35 454.06 410.30 449.55 C 411.96 446.07 411.86 442.16 411.18 438.46 C 413.13 434.77 415.28 431.18 418.01 428.02 C 424.85 420.00 429.74 410.57 434.08 401.03 C 436.98 394.44 439.88 387.17 438.01 379.87 C 435.83 392.31 429.55 403.45 423.13 414.14 C 420.58 418.48 417.33 422.35 414.14 426.23 C 416.40 410.84 412.44 395.09 405.27 381.49 C 405.41 390.32 409.40 398.47 410.46 407.17 C 411.88 415.48 410.92 423.96 409.03 432.11 C 405.88 423.28 403.05 414.32 401.20 405.12 C 400.25 400.86 399.91 396.49 398.76 392.28 C 397.59 393.95 396.90 395.92 397.15 397.99 C 397.66 408.49 399.61 418.96 403.22 428.85 C 404.63 433.04 406.43 437.12 407.42 441.44 C 408.32 445.08 406.59 448.59 405.64 452.03 C 403.11 447.76 398.51 445.57 393.72 444.96 C 394.83 449.91 401.66 450.75 402.20 456.11 C 405.91 480.57 403.91 505.44 402.61 530.02 C 401.83 551.48 406.74 572.56 407.66 593.92 C 409.05 613.92 408.35 633.97 408.94 653.99 C 408.90 657.03 409.20 660.59 407.00 663.01 C 403.71 665.91 398.98 666.60 395.90 669.82 C 390.65 675.26 387.71 682.39 382.96 688.21 C 372.01 670.80 361.64 652.54 356.79 632.37 C 353.24 617.69 345.01 604.61 341.56 589.90 C 338.60 575.51 338.59 560.59 340.68 546.08 C 341.56 539.09 340.92 532.03 341.17 525.00 C 341.19 519.27 341.74 513.40 340.05 507.83 C 337.70 499.78 336.24 491.42 336.92 483.01 C 338.14 463.00 341.77 443.20 342.46 423.14 C 342.79 414.09 342.72 405.02 342.14 395.99 C 341.80 392.31 341.64 388.37 339.35 385.27 C 338.88 389.15 339.16 393.06 339.21 396.95 C 339.21 415.22 338.02 433.47 335.96 451.61 C 328.36 441.39 319.82 431.86 312.81 421.20 C 310.39 417.58 308.59 413.53 305.60 410.31 C 306.38 415.68 309.47 420.27 311.87 425.01 C 318.30 436.30 327.07 446.00 335.37 455.92 C 335.03 458.81 334.70 461.71 334.36 464.61 C 328.59 458.35 323.02 451.91 317.68 445.28 C 316.02 443.15 314.05 441.22 311.51 440.18 C 313.23 444.59 316.38 448.18 319.10 451.99 C 323.37 457.69 327.74 463.69 334.09 467.24 C 333.25 475.47 332.51 483.76 332.95 492.04 C 333.32 498.86 335.53 505.38 336.98 512.01 C 337.72 518.14 337.14 524.33 337.17 530.48 C 327.79 525.20 319.33 518.50 310.30 512.67 C 295.45 503.28 279.73 494.17 262.12 491.40 C 250.52 489.48 238.78 491.04 227.22 492.38 C 227.09 483.22 227.75 474.07 228.33 464.93 C 228.95 455.16 230.65 445.21 235.62 436.63 C 242.24 425.61 251.98 417.01 261.12 408.15 C 269.21 400.41 273.69 389.96 279.52 380.60 C 284.33 372.85 288.31 364.38 294.96 357.96 C 299.08 353.73 303.16 349.46 307.11 345.06 C 317.09 334.07 329.53 325.69 342.40 318.44 C 351.04 313.65 359.53 308.45 366.95 301.88 C 375.12 294.70 383.97 287.97 394.31 284.26 M 365.35 392.21 C 364.07 410.08 368.91 427.78 376.03 444.01 C 378.92 449.31 381.36 455.25 386.26 459.04 C 385.38 453.32 381.55 448.73 379.57 443.40 C 374.33 430.41 370.11 416.86 368.66 402.87 C 368.00 399.22 368.40 394.89 365.35 392.21 Z" />
<path fill="#f25e11" opacity="1.00" d=" M 433.41 494.40 C 442.59 488.54 452.84 484.74 463.31 481.89 C 453.35 494.34 445.94 508.68 440.53 523.64 C 437.54 531.50 434.39 539.31 430.86 546.95 C 423.26 547.38 415.67 548.07 408.14 549.24 C 407.04 537.84 407.35 526.37 408.10 514.96 C 408.07 513.66 408.49 512.41 409.50 511.57 C 416.57 504.70 424.99 499.46 433.41 494.40 Z" />
</g>
<g id="#4d4d4dff">
<path fill="#4d4d4d" opacity="1.00" d=" M 398.93 672.87 C 401.70 670.52 405.20 669.34 408.41 667.74 C 412.11 670.93 416.08 673.86 419.28 677.59 C 428.28 687.86 434.45 700.23 443.39 710.55 C 454.08 723.88 469.46 732.57 479.55 746.44 C 483.40 751.83 487.28 757.52 488.67 764.11 C 489.31 767.65 488.77 772.62 484.94 774.14 C 480.06 775.22 475.62 771.98 471.91 769.23 C 459.62 759.47 450.24 746.72 439.86 735.08 C 438.24 733.46 436.63 731.48 434.25 731.06 C 433.82 732.66 433.68 734.33 434.03 735.98 C 435.23 742.73 437.86 749.37 442.42 754.57 C 450.66 764.08 461.32 771.00 470.39 779.65 C 472.38 781.55 473.97 783.82 475.50 786.12 C 462.75 788.57 449.53 784.01 438.88 777.12 C 433.22 773.70 429.30 768.33 424.84 763.63 C 424.41 763.69 423.55 763.81 423.12 763.87 C 423.22 766.05 423.87 768.18 424.82 770.15 C 428.40 777.62 432.61 784.79 437.72 791.32 C 441.95 797.26 447.37 803.30 447.16 811.09 C 439.91 812.39 434.53 806.79 429.77 802.28 C 424.39 797.25 421.17 790.51 417.85 784.07 C 410.58 769.61 405.20 754.32 399.74 739.12 C 394.36 723.20 389.02 707.27 384.48 691.09 C 390.78 686.25 393.17 678.19 398.93 672.87 Z" />
<path fill="#4d4d4d" opacity="1.00" d=" M 441.85 698.66 C 455.25 697.68 467.99 702.29 480.75 705.60 C 482.65 712.73 487.25 718.60 491.30 724.62 C 498.27 734.40 505.37 744.42 509.12 755.96 C 511.26 762.47 510.83 769.50 508.99 776.03 C 502.92 776.25 498.35 772.02 494.26 768.14 C 494.01 763.28 493.07 758.42 490.80 754.08 C 486.34 745.38 480.45 737.35 473.20 730.75 C 468.18 726.09 462.80 721.85 457.70 717.27 C 451.64 711.78 446.55 705.33 441.85 698.66 Z" />
<path fill="#4d4d4d" opacity="1.00" d=" M 439.43 739.13 C 445.07 746.32 450.97 753.30 456.59 760.51 C 449.24 754.90 443.04 747.70 439.43 739.13 Z" />
<path fill="#4d4d4d" opacity="1.00" d=" M 493.33 772.20 C 496.09 775.96 499.65 779.06 503.88 781.09 C 502.39 793.01 502.44 805.07 500.76 816.96 C 499.74 822.39 498.81 828.60 494.37 832.40 C 491.23 835.12 487.51 831.81 485.92 829.02 C 483.55 824.81 480.78 820.15 481.37 815.15 C 482.85 806.80 484.90 798.46 485.02 789.95 C 485.22 788.04 483.97 786.54 483.00 785.07 L 482.64 786.77 C 482.10 786.88 481.04 787.10 480.50 787.21 C 480.89 783.40 478.75 780.21 476.40 777.49 C 479.75 778.58 483.42 779.88 486.92 778.61 C 490.01 777.68 491.60 774.65 493.33 772.20 Z" />
<path fill="#4d4d4d" opacity="1.00" d=" M 412.74 783.90 C 416.24 789.82 418.96 796.25 423.30 801.65 C 426.67 805.95 430.80 809.56 435.12 812.87 C 434.26 814.50 433.78 816.63 431.92 817.43 C 428.39 817.50 426.12 814.21 424.21 811.70 C 418.66 803.28 414.24 793.94 412.74 783.90 Z" />
<path fill="#4d4d4d" opacity="1.00" d=" M 461.03 808.00 C 459.57 799.57 453.01 793.46 447.58 787.35 C 455.05 790.15 462.86 792.62 470.93 792.42 C 474.04 792.34 477.55 791.62 479.14 788.60 C 479.54 789.14 479.94 789.69 480.34 790.26 C 477.99 798.38 477.64 806.90 475.59 815.10 C 474.28 820.27 473.30 826.30 468.80 829.77 C 465.27 832.50 459.90 830.94 457.61 827.35 C 455.56 824.23 456.13 820.32 456.11 816.80 C 458.79 814.65 461.86 811.83 461.03 808.00 Z" />
<path fill="#4d4d4d" opacity="1.00" d=" M 447.44 795.21 C 451.01 799.57 455.26 804.15 455.64 810.07 C 454.50 811.41 453.06 812.45 451.72 813.58 C 451.80 810.29 452.45 806.88 451.35 803.69 C 450.33 800.74 448.79 798.01 447.44 795.21 Z" />
<path fill="#4d4d4d" opacity="1.00" d=" M 550.13 807.58 C 552.00 815.52 555.24 824.02 562.27 828.78 C 567.65 832.60 574.74 831.37 580.55 829.32 C 587.33 826.73 591.85 820.64 595.49 814.65 C 605.47 822.55 615.57 830.37 624.52 839.47 C 637.04 851.93 649.82 865.25 655.72 882.29 C 657.59 888.23 659.21 894.70 657.58 900.89 C 655.77 906.62 651.40 911.95 645.35 913.39 C 637.35 915.33 628.31 915.35 621.13 910.86 C 607.20 903.31 597.67 890.33 586.29 879.72 C 574.71 868.95 562.57 858.38 553.98 844.95 C 550.01 838.70 546.88 831.57 547.04 824.03 C 546.92 818.37 548.93 813.02 550.13 807.58 Z" />
<path fill="#4d4d4d" opacity="1.00" d=" M 440.01 815.55 C 443.59 816.40 447.20 817.20 450.84 817.80 C 449.65 821.26 449.35 825.71 446.01 827.92 C 441.09 830.23 433.15 829.20 431.89 822.94 C 435.47 821.58 438.46 819.12 440.01 815.55 Z" />
<path fill="#4d4d4d" opacity="1.00" d=" M 317.37 875.53 C 320.64 873.52 324.57 874.65 327.62 876.48 C 333.28 879.62 336.54 885.64 342.01 889.01 C 346.51 891.80 352.69 891.36 356.32 895.61 C 362.73 902.86 365.25 912.73 366.44 922.12 C 366.70 926.44 367.31 930.95 366.05 935.17 C 363.31 937.84 359.09 938.51 356.38 941.33 C 352.07 945.78 349.32 951.54 344.62 955.65 C 340.16 959.97 333.99 961.76 328.03 962.83 C 319.42 964.32 310.69 965.20 301.96 965.18 C 296.24 965.01 290.22 964.63 285.10 961.80 C 280.28 958.54 279.47 951.58 281.55 946.49 C 284.61 938.89 289.24 932.06 292.86 924.73 C 299.24 912.61 302.01 899.05 307.69 886.64 C 309.71 882.10 312.81 877.78 317.37 875.53 Z" />
</g>
</svg>
