<?xml version="1.0" encoding="UTF-8" ?>
<!DOCTYPE svg PUBLIC "-//W3C//DTD SVG 1.1//EN" "http://www.w3.org/Graphics/SVG/1.1/DTD/svg11.dtd">
<svg width="1000pt" height="1000pt" viewBox="0 0 1000 1000" version="1.1" xmlns="http://www.w3.org/2000/svg">
<g id="#020202ff">
<path fill="#020202" opacity="1.00" d=" M 531.45 50.47 C 541.85 44.82 554.65 45.96 564.58 39.23 C 564.55 40.61 564.47 41.99 564.34 43.37 C 578.47 41.71 592.84 44.50 605.83 50.13 C 616.65 54.37 626.95 59.89 636.69 66.21 C 634.96 66.75 633.24 67.24 631.51 67.70 C 634.05 70.96 636.69 74.15 639.32 77.34 C 637.28 77.23 635.25 77.04 633.23 76.82 C 639.09 83.45 644.78 91.01 646.16 99.97 C 647.27 107.39 640.64 112.96 634.75 116.08 C 633.95 123.36 632.40 130.61 632.81 137.98 C 632.91 146.73 636.04 155.46 634.11 164.20 C 632.39 171.48 629.17 178.28 626.02 185.03 C 622.91 191.58 619.99 198.56 614.65 203.65 C 607.79 209.12 598.25 207.65 590.45 205.35 C 585.22 211.86 581.46 219.44 579.67 227.60 C 587.85 233.06 592.37 242.15 596.07 250.95 C 603.66 265.32 608.53 281.00 611.07 297.02 C 614.55 314.79 616.49 332.86 616.17 350.99 C 616.54 358.01 614.91 365.41 617.81 372.08 C 619.26 376.04 620.59 380.04 621.71 384.11 C 624.30 385.93 627.13 387.87 628.18 391.03 C 629.38 394.74 629.12 398.72 629.57 402.57 C 632.33 405.10 635.40 407.54 637.00 411.04 C 639.20 415.89 638.19 421.58 640.63 426.37 C 642.96 430.98 645.98 435.22 648.04 439.98 C 653.18 450.92 654.64 463.15 654.94 475.10 C 657.34 485.75 666.05 493.31 674.29 499.74 C 686.52 508.97 699.21 518.16 708.31 530.69 C 710.66 533.91 711.76 539.43 707.96 542.02 C 703.72 544.35 698.87 541.91 694.75 540.46 C 698.59 550.94 700.68 562.89 696.50 573.59 C 695.50 576.10 693.50 579.53 690.28 578.64 C 687.00 577.30 685.59 573.70 683.81 570.91 C 683.53 575.81 683.01 581.03 680.22 585.23 C 678.71 587.56 675.42 588.38 673.01 586.99 C 669.55 585.07 667.85 581.26 665.97 577.98 C 663.28 582.70 659.46 587.33 654.03 588.84 C 651.17 589.78 647.86 588.14 646.81 585.35 C 645.85 582.79 645.96 579.99 645.82 577.30 C 642.99 579.51 639.61 581.48 635.87 580.93 C 632.18 580.81 629.27 577.61 628.92 574.05 C 627.30 563.94 631.88 554.45 634.32 544.92 C 635.90 540.51 631.32 537.86 628.39 535.65 C 619.58 529.63 612.97 519.93 612.30 509.11 C 611.12 501.19 612.91 493.16 611.39 485.29 C 609.38 484.55 607.24 483.86 605.84 482.15 C 597.61 472.68 588.82 463.61 582.06 452.96 C 577.07 445.25 572.08 437.32 569.40 428.46 C 567.81 423.58 568.04 418.15 565.43 413.61 C 563.18 409.60 560.20 406.03 558.16 401.89 C 554.86 395.23 553.41 387.72 553.61 380.32 C 546.54 390.93 536.24 399.48 531.75 411.69 C 528.60 420.08 526.64 429.05 521.66 436.63 C 518.68 441.53 514.66 445.71 509.95 448.96 C 505.97 451.52 505.40 456.69 504.94 460.98 C 503.87 471.91 510.02 483.56 504.25 493.89 C 505.54 499.51 505.94 505.30 505.56 511.05 C 505.59 513.96 504.75 517.50 507.16 519.74 C 510.87 523.41 515.25 526.70 517.21 531.74 C 522.42 544.32 522.49 558.42 528.14 570.88 C 531.81 579.56 537.14 587.40 541.00 596.00 C 540.58 596.87 540.17 597.76 539.76 598.64 C 549.22 614.40 558.58 630.78 562.01 649.07 C 564.85 662.88 562.91 677.02 561.88 690.93 C 561.08 705.41 563.50 719.79 564.30 734.22 C 566.03 753.77 566.60 773.43 565.40 793.03 C 564.79 806.93 562.33 820.79 557.62 833.90 C 571.46 845.07 588.25 851.43 604.21 858.84 C 616.97 865.23 630.16 870.93 641.89 879.17 C 646.27 882.32 650.85 885.77 653.25 890.75 C 654.96 894.42 652.02 898.32 648.66 899.69 C 642.45 902.21 635.60 902.26 629.01 902.70 C 620.65 903.02 612.34 904.25 603.97 904.14 C 590.31 904.04 576.66 904.68 563.00 904.23 C 549.65 904.26 536.26 904.17 522.98 902.53 C 516.50 901.68 509.02 900.95 504.57 895.54 C 499.98 889.49 497.87 881.47 499.46 873.98 C 500.73 867.69 501.88 861.39 502.47 855.00 C 504.35 845.17 505.64 835.10 504.40 825.11 C 503.72 813.16 501.82 801.33 500.31 789.47 C 497.99 768.68 494.89 747.95 494.17 727.02 C 493.53 706.24 494.48 685.31 497.97 664.81 C 496.10 661.01 492.64 658.28 489.97 655.06 C 480.02 643.62 469.53 632.66 459.94 620.92 C 455.52 615.28 454.82 607.83 455.27 600.93 C 455.69 596.46 453.09 592.59 451.26 588.74 C 448.49 583.63 446.09 577.96 441.18 574.48 C 441.16 576.64 441.25 578.87 442.20 580.87 C 445.07 587.46 447.78 594.14 449.92 601.02 C 451.51 605.97 453.83 610.82 454.13 616.09 C 454.54 618.73 451.84 620.08 450.29 621.71 C 453.13 636.39 457.98 651.00 456.61 666.15 C 456.19 674.17 453.10 682.51 446.46 687.42 C 441.52 690.91 438.50 696.29 435.30 701.27 C 429.32 711.56 423.35 721.92 419.05 733.06 C 410.88 750.81 403.58 768.94 395.84 786.88 C 388.97 802.90 382.78 819.18 376.48 835.43 C 370.86 849.08 365.49 862.85 361.02 876.93 C 359.52 881.52 358.25 886.21 356.13 890.57 C 359.98 896.18 363.22 902.32 364.77 908.99 C 366.16 915.00 367.16 921.28 370.38 926.65 C 374.88 933.94 381.19 939.82 387.16 945.88 C 391.87 950.60 395.73 956.07 399.39 961.63 C 402.48 966.47 404.57 972.18 404.25 978.00 C 404.13 984.24 398.29 989.77 392.06 989.55 C 384.86 989.57 377.62 988.66 370.82 986.23 C 353.05 979.95 335.87 971.94 319.77 962.14 C 311.23 957.13 302.33 952.62 294.46 946.56 C 289.41 942.71 286.56 936.39 286.90 930.07 C 287.30 923.46 287.57 916.78 289.18 910.33 C 290.27 905.81 291.05 900.98 294.18 897.35 C 295.56 885.69 298.50 874.29 300.98 862.84 C 304.41 847.60 308.82 832.60 313.64 817.75 C 320.87 793.18 327.77 768.49 336.12 744.26 C 342.43 726.74 348.66 709.05 357.78 692.74 C 363.57 682.11 369.81 671.71 377.11 662.03 C 378.83 660.04 379.24 657.35 378.66 654.84 C 376.97 646.16 374.91 637.53 372.15 629.12 C 363.84 630.38 355.38 629.78 347.11 628.51 C 342.41 627.59 337.14 625.45 335.36 620.60 C 333.10 613.91 332.26 606.82 331.68 599.80 C 331.04 590.04 329.88 580.32 328.73 570.61 C 321.14 569.23 316.06 562.95 312.03 556.90 C 307.11 549.61 304.49 540.83 304.35 532.05 C 303.24 510.10 306.20 488.24 308.78 466.49 C 310.14 456.79 311.67 446.92 315.97 438.02 C 318.40 432.65 322.03 427.95 325.78 423.44 C 321.52 420.14 321.60 413.99 323.58 409.44 C 327.70 399.66 326.20 388.60 329.74 378.67 C 333.26 369.28 342.31 363.54 346.29 354.40 C 350.70 344.52 353.58 333.43 361.51 325.60 C 366.75 321.04 369.27 314.41 372.48 308.44 C 377.42 298.05 384.18 288.51 392.47 280.53 C 400.41 272.67 408.81 265.07 418.60 259.58 C 420.85 258.28 423.03 256.58 424.06 254.11 C 428.10 245.05 431.80 235.71 437.63 227.60 C 443.63 219.44 452.27 213.33 461.88 210.18 C 468.93 207.54 477.87 207.32 482.47 200.46 C 488.84 191.15 499.69 186.35 510.20 183.38 C 514.40 182.18 518.72 181.44 523.08 181.07 C 525.61 178.15 528.10 175.18 530.36 172.03 C 520.43 165.84 510.74 157.83 506.48 146.59 C 503.76 138.53 502.36 129.24 506.20 121.30 C 504.90 121.01 502.11 122.29 502.42 120.03 C 503.54 117.14 505.53 114.68 507.08 112.01 C 504.63 111.13 502.23 110.16 499.83 109.19 C 505.19 101.91 509.83 93.89 511.87 85.00 C 513.47 77.41 517.34 70.61 520.78 63.74 C 523.52 58.79 526.37 53.39 531.45 50.47 M 592.61 96.10 C 587.53 99.87 581.26 101.82 574.99 102.21 C 574.97 108.58 570.85 113.94 565.51 117.01 C 565.61 122.36 561.73 126.63 561.26 131.86 C 560.74 135.36 561.36 138.86 561.65 142.35 C 561.28 142.62 560.55 143.18 560.18 143.45 C 558.46 141.89 557.03 140.06 555.54 138.28 C 555.41 140.55 555.26 142.81 555.07 145.07 C 550.54 141.21 547.70 135.67 542.66 132.35 C 539.36 130.06 535.25 127.70 531.12 128.91 C 527.16 131.74 527.11 137.48 527.60 141.87 C 528.73 148.83 533.59 154.34 536.16 160.76 C 537.58 164.29 536.07 168.07 535.24 171.55 C 534.10 175.93 530.71 179.13 527.69 182.28 C 532.83 186.08 537.12 190.85 541.28 195.66 C 545.69 200.82 548.09 207.26 550.80 213.39 C 557.51 230.06 565.75 246.27 576.70 260.59 C 576.39 250.03 574.75 239.49 575.35 228.91 C 576.20 219.52 579.64 209.99 586.60 203.40 C 583.69 200.85 577.44 198.98 578.64 194.15 C 584.90 197.05 590.90 200.90 597.88 201.85 C 603.26 203.01 610.02 202.38 613.45 197.54 C 618.15 191.04 620.81 183.39 624.29 176.23 C 627.13 169.47 630.71 162.41 629.56 154.85 C 628.88 149.76 627.85 144.70 627.63 139.55 C 624.01 139.22 620.39 138.87 616.78 138.51 C 616.40 142.01 617.61 146.14 615.06 149.05 C 612.56 143.04 613.52 136.33 614.88 130.17 C 615.37 128.81 615.33 126.70 617.12 126.37 C 620.87 126.11 624.64 126.63 628.40 126.80 C 629.84 119.36 631.63 111.61 629.72 104.08 C 628.08 99.64 623.54 96.85 618.93 96.52 C 613.21 95.39 607.69 97.74 602.04 98.07 C 598.77 98.28 595.66 97.08 592.61 96.10 M 515.63 186.31 C 507.40 188.78 499.21 192.03 492.43 197.42 C 487.96 200.96 485.66 206.68 480.63 209.60 C 475.41 212.66 469.29 213.46 463.62 215.35 C 454.04 218.26 445.52 224.69 440.27 233.23 C 436.24 239.65 433.24 246.63 430.11 253.52 C 439.80 249.27 450.26 247.45 460.39 244.60 C 462.48 244.03 464.79 243.64 466.75 244.89 C 465.96 246.00 464.93 246.92 463.61 247.33 C 453.46 251.31 442.47 252.82 432.58 257.52 C 423.21 262.02 414.24 267.49 406.40 274.36 C 395.35 283.70 384.82 294.19 378.35 307.33 C 374.65 313.85 371.75 321.01 366.69 326.65 C 356.50 335.54 354.90 349.88 347.76 360.80 C 343.63 367.49 336.84 372.32 333.93 379.80 C 330.73 389.02 332.07 399.23 328.35 408.31 C 326.94 411.62 326.61 415.34 327.09 418.89 C 330.72 420.99 335.05 421.10 339.03 422.14 C 349.08 424.46 357.51 430.82 365.43 437.12 C 369.39 432.67 371.12 426.91 373.66 421.65 C 378.26 411.31 384.84 401.86 392.83 393.84 C 398.16 388.44 404.50 384.16 410.03 378.97 C 413.05 376.17 413.33 371.77 415.16 368.26 C 416.62 364.69 419.81 362.37 422.73 360.07 C 422.54 358.23 422.70 356.14 421.33 354.70 C 418.43 351.30 414.07 349.75 410.83 346.76 C 416.72 345.92 421.47 349.94 425.54 353.58 C 427.11 352.41 428.76 350.61 427.36 348.61 C 421.20 336.48 408.72 329.48 396.55 324.62 C 398.79 323.71 401.24 323.37 403.52 324.35 C 414.24 328.17 424.44 334.93 430.02 345.12 C 433.20 343.85 436.78 342.90 439.11 340.20 C 441.59 337.34 443.85 334.17 447.13 332.14 C 454.63 327.37 462.49 323.17 470.64 319.63 C 480.43 315.25 489.00 308.68 498.20 303.32 C 498.46 303.75 498.99 304.63 499.25 305.07 C 496.65 309.16 492.46 311.88 488.60 314.68 C 476.10 323.47 461.13 327.87 448.67 336.73 C 445.88 338.90 443.97 341.94 441.67 344.59 C 449.48 346.37 456.68 350.19 463.12 354.88 C 466.30 357.29 470.15 360.18 469.60 364.71 C 465.32 362.81 461.88 359.54 457.85 357.23 C 450.23 352.70 441.80 348.97 432.80 348.75 C 432.48 350.42 432.27 352.13 431.73 353.76 C 430.63 355.23 429.01 356.19 427.79 357.53 C 426.78 359.61 426.78 362.27 424.94 363.89 C 422.95 365.86 420.40 367.41 419.15 370.03 C 417.16 373.78 416.80 378.46 413.55 381.47 C 407.56 387.20 400.50 391.74 394.85 397.85 C 389.81 403.08 385.88 409.22 382.04 415.34 C 391.90 410.30 403.16 410.24 413.90 408.88 C 426.97 407.20 440.21 405.85 452.80 401.73 C 454.69 401.12 456.64 400.64 458.64 400.51 C 458.75 403.99 455.27 405.48 452.59 406.61 C 438.71 411.91 423.73 412.99 409.04 413.97 C 399.07 414.64 388.29 414.92 379.60 420.46 C 375.64 426.72 374.01 434.37 368.66 439.75 C 372.00 439.97 375.38 439.74 378.59 438.75 C 387.36 436.24 397.02 434.95 405.79 438.13 C 416.85 442.47 425.07 451.45 433.56 459.40 C 448.91 473.65 465.51 488.01 486.16 493.64 C 491.44 495.21 498.95 494.20 501.35 488.54 C 502.88 482.75 501.19 476.78 500.46 471.00 C 499.66 465.11 500.15 459.09 501.82 453.39 C 487.90 458.37 472.90 453.40 460.68 446.31 C 456.39 443.59 450.60 441.77 448.88 436.47 C 453.82 438.12 458.18 441.07 463.03 442.94 C 470.43 445.90 478.11 448.36 486.04 449.34 C 492.14 450.04 498.63 450.02 504.26 447.25 C 510.41 444.44 515.24 439.34 518.61 433.57 C 523.88 424.22 524.65 413.11 529.78 403.70 C 533.48 396.41 539.36 390.62 544.23 384.14 C 547.48 379.81 550.86 375.58 554.34 371.43 C 565.46 358.04 574.66 343.20 585.77 329.81 C 587.40 328.08 588.83 325.27 591.61 325.54 C 591.20 329.13 588.59 331.85 586.77 334.80 C 581.64 342.66 576.55 350.55 571.00 358.12 C 579.80 355.25 588.76 352.75 597.10 348.66 C 596.07 352.32 592.56 354.08 589.37 355.50 C 582.58 358.22 575.64 360.92 568.32 361.72 C 565.72 365.29 563.09 368.83 560.28 372.24 C 558.99 373.96 557.22 375.63 557.27 377.95 C 556.55 387.77 559.42 397.80 565.19 405.78 C 568.47 410.30 571.38 415.28 572.04 420.94 C 573.77 433.11 580.82 443.52 587.37 453.60 C 593.65 463.25 601.60 471.64 608.69 480.68 C 615.11 475.94 623.15 474.35 630.91 473.41 C 637.38 472.62 643.99 472.83 650.35 474.36 C 648.65 463.21 647.89 451.55 642.67 441.33 C 639.72 435.24 634.76 430.03 633.59 423.18 C 632.71 419.24 633.33 414.71 630.67 411.37 C 623.88 403.26 613.54 398.32 602.97 398.05 C 600.56 398.20 598.64 397.01 597.47 394.96 C 601.28 394.39 605.14 393.91 609.01 393.96 C 614.35 394.08 619.33 396.25 624.03 398.60 C 623.59 395.99 623.84 393.05 622.27 390.78 C 618.00 386.06 610.37 387.38 606.14 382.65 C 609.67 381.79 613.32 382.01 616.89 382.57 C 614.58 376.21 611.39 369.90 611.55 362.97 C 611.55 346.46 611.85 329.84 609.23 313.48 C 605.93 293.43 602.79 272.88 593.37 254.61 C 589.57 246.37 585.73 238.00 579.39 231.34 C 579.69 240.59 581.45 249.74 581.53 259.00 C 581.40 261.49 581.36 264.69 578.90 266.10 C 576.68 266.94 574.73 265.25 573.37 263.71 C 561.70 249.85 554.23 233.12 547.60 216.42 C 544.38 209.30 541.59 201.67 535.87 196.10 C 531.75 192.14 527.48 188.01 522.08 185.87 C 519.99 184.83 517.71 185.76 515.63 186.31 M 317.18 451.29 C 314.04 464.29 313.40 477.70 312.01 490.96 C 310.80 501.61 310.23 512.32 309.88 523.03 C 309.86 529.74 309.32 536.58 310.94 543.17 C 312.96 551.51 317.71 559.27 324.45 564.62 C 326.68 566.61 329.78 566.59 332.58 566.81 C 326.54 559.35 321.31 551.14 317.94 542.13 C 316.93 539.68 317.10 537.01 317.64 534.48 C 324.07 544.35 327.65 556.32 336.52 564.45 C 338.74 566.78 341.99 566.45 344.87 565.87 C 335.04 555.97 325.13 544.12 324.57 529.49 C 326.41 532.05 328.08 534.74 329.54 537.54 C 333.44 544.95 338.21 551.93 343.84 558.14 C 346.52 560.94 349.36 563.85 353.07 565.23 C 355.61 566.28 357.84 564.10 360.00 563.10 C 353.47 555.74 347.00 548.20 342.50 539.37 C 339.47 533.16 335.83 527.01 334.92 520.05 C 337.64 522.84 339.54 526.25 341.45 529.62 C 348.28 541.07 355.43 552.63 365.50 561.57 C 368.57 564.22 371.89 567.04 376.04 567.73 C 379.99 565.31 377.89 560.00 376.70 556.53 C 370.34 542.48 359.57 530.46 355.88 515.21 C 355.04 511.98 355.61 508.64 356.27 505.44 C 358.25 506.46 360.17 507.68 361.53 509.50 C 365.97 515.04 371.10 520.36 377.59 523.45 C 380.48 524.71 384.63 525.75 386.91 522.85 C 387.53 519.82 386.01 516.92 384.74 514.28 C 381.39 507.96 377.61 501.88 374.54 495.42 C 370.86 487.87 368.27 479.83 366.46 471.64 C 364.45 462.15 362.51 452.51 363.24 442.76 C 357.93 438.67 352.65 434.49 346.80 431.20 C 341.88 428.40 336.38 426.91 330.97 425.36 C 325.26 433.34 319.25 441.48 317.18 451.29 M 615.53 481.35 C 618.38 490.34 617.57 499.80 617.95 509.07 C 618.25 518.06 623.70 526.02 630.79 531.20 C 634.34 534.21 639.52 537.57 638.64 542.95 C 637.40 552.78 632.88 562.08 633.09 572.11 C 633.17 573.80 633.34 576.09 635.23 576.79 C 639.12 578.24 643.42 575.60 645.10 572.05 C 648.19 565.92 649.22 559.03 651.75 552.69 C 652.41 550.95 653.43 549.35 654.89 548.18 C 657.95 548.72 656.48 552.19 656.23 554.28 C 653.65 563.95 650.47 573.87 651.58 584.00 C 658.15 583.54 661.12 576.46 663.68 571.33 C 662.40 564.30 661.36 557.11 661.98 549.95 C 661.98 548.38 662.85 547.09 664.16 546.29 C 666.58 550.05 665.88 554.74 666.47 558.98 C 667.43 568.17 669.09 578.29 676.14 584.93 C 679.53 580.10 680.50 574.06 679.80 568.28 C 679.01 557.15 673.09 547.25 671.80 536.23 C 673.07 537.22 674.66 538.07 675.37 539.62 C 681.18 551.31 683.72 564.57 691.34 575.36 C 697.42 563.96 694.77 550.54 691.26 538.80 C 684.84 535.54 678.31 532.48 671.98 529.07 C 669.91 527.90 667.46 526.72 666.88 524.18 C 668.17 524.09 669.46 524.15 670.75 524.36 C 683.16 527.38 693.25 536.64 706.07 538.33 C 705.27 536.09 704.63 533.74 703.10 531.87 C 694.87 522.05 684.41 514.52 674.36 506.70 C 664.90 499.29 654.58 491.09 651.51 478.87 C 639.71 475.37 627.06 477.98 615.53 481.35 M 524.71 605.80 C 503.83 611.17 481.71 611.60 460.66 606.87 C 461.31 610.90 461.61 615.36 464.58 618.49 C 477.35 633.36 491.11 647.36 503.59 662.49 C 503.13 664.54 502.67 666.61 502.20 668.67 C 511.22 677.54 523.64 682.32 536.12 683.44 C 542.53 683.87 549.38 683.37 555.01 679.97 C 556.33 679.02 558.18 678.07 558.08 676.17 C 558.93 666.12 558.85 655.90 556.55 646.03 C 553.09 629.76 543.94 615.65 535.90 601.36 C 532.27 603.07 528.58 604.71 524.71 605.80 M 378.10 626.97 C 380.83 635.17 382.88 643.60 384.31 652.13 C 384.86 655.21 384.91 658.56 383.39 661.39 C 381.89 664.04 379.67 666.15 377.77 668.49 C 382.27 674.35 388.12 679.17 394.92 682.14 C 408.53 688.20 424.20 690.18 438.74 686.61 C 445.20 682.18 449.93 675.06 450.53 667.13 C 452.61 652.27 447.26 637.99 444.47 623.62 C 427.44 628.42 410.13 622.84 392.96 622.60 C 387.66 622.43 382.82 624.92 378.10 626.97 M 528.77 856.80 C 521.00 859.23 512.49 859.84 504.74 857.04 C 505.16 864.39 504.03 871.69 503.89 879.03 C 504.27 886.20 507.90 895.17 516.00 896.15 C 530.55 898.55 545.35 898.91 560.08 899.13 C 569.38 899.20 578.69 899.71 588.00 899.30 C 597.99 898.87 608.02 899.64 617.99 898.55 C 625.47 897.73 633.01 897.70 640.47 896.69 C 643.66 896.30 646.63 894.99 649.41 893.41 C 643.81 885.52 635.27 880.63 627.04 875.94 C 619.01 871.57 610.75 867.67 602.59 863.55 C 587.29 856.03 570.91 849.92 557.87 838.60 C 550.26 847.41 539.84 853.45 528.77 856.80 M 324.35 885.49 C 316.18 887.63 309.87 893.54 302.82 897.84 C 300.50 899.48 297.68 900.70 295.99 903.07 C 293.99 907.86 293.33 913.10 292.57 918.21 C 292.12 923.99 291.08 929.93 292.46 935.65 C 294.39 941.90 300.75 944.90 305.93 948.04 C 321.61 956.42 336.68 965.98 353.01 973.11 C 365.46 978.41 378.13 984.75 392.01 984.55 C 395.46 984.77 398.92 982.18 399.67 978.83 C 399.82 973.50 397.72 968.36 395.28 963.72 C 387.76 949.73 372.81 941.72 365.30 927.71 C 361.68 920.98 361.37 913.17 359.12 906.00 C 356.91 899.80 353.77 893.60 348.61 889.36 C 341.74 884.31 332.45 883.31 324.35 885.49 Z" />
<path fill="#020202" opacity="1.00" d=" M 575.23 120.29 C 576.64 119.30 578.52 120.29 580.11 120.30 C 589.47 122.00 598.97 123.05 608.29 124.93 C 608.97 127.33 608.49 129.88 608.29 132.32 C 607.93 133.89 608.19 136.40 605.98 136.49 C 599.20 136.17 592.53 134.68 585.83 133.64 C 581.78 132.80 577.55 132.63 573.63 131.24 C 572.55 127.78 573.28 123.26 575.23 120.29 Z" />
<path fill="#020202" opacity="1.00" d=" M 607.14 160.23 C 604.18 156.81 601.71 152.99 598.95 149.42 C 601.37 151.15 603.57 153.29 606.33 154.51 C 609.72 155.29 613.21 154.05 616.36 152.83 C 616.40 154.64 616.80 156.49 616.39 158.28 C 613.45 159.21 610.18 160.84 607.14 160.23 Z" />
<path fill="#020202" opacity="1.00" d=" M 583.82 166.82 C 587.81 165.59 591.87 167.62 595.79 168.35 C 603.55 170.62 611.69 171.88 619.14 175.05 C 621.02 178.34 616.50 177.88 614.50 177.75 C 613.58 178.80 612.78 179.94 611.72 180.85 C 608.87 181.21 606.14 179.99 603.40 179.41 C 599.27 178.23 594.89 177.83 591.01 175.92 C 589.27 175.31 589.34 173.22 588.74 171.79 C 586.60 170.76 582.25 170.15 583.82 166.82 Z" />
</g>
<g id="#f0b58bff">
<path fill="#f0b58b" opacity="1.00" d=" M 592.61 96.10 C 595.66 97.08 598.77 98.28 602.04 98.07 C 607.69 97.74 613.21 95.39 618.93 96.52 C 623.54 96.85 628.08 99.64 629.72 104.08 C 631.63 111.61 629.84 119.36 628.40 126.80 C 624.64 126.63 620.87 126.11 617.12 126.37 C 615.33 126.70 615.37 128.81 614.88 130.17 C 613.52 136.33 612.56 143.04 615.06 149.05 C 617.61 146.14 616.40 142.01 616.78 138.51 C 620.39 138.87 624.01 139.22 627.63 139.55 C 627.85 144.70 628.88 149.76 629.56 154.85 C 630.71 162.41 627.13 169.47 624.29 176.23 C 620.81 183.39 618.15 191.04 613.45 197.54 C 610.02 202.38 603.26 203.01 597.88 201.85 C 590.90 200.90 584.90 197.05 578.64 194.15 C 577.44 198.98 583.69 200.85 586.60 203.40 C 579.64 209.99 576.20 219.52 575.35 228.91 C 574.75 239.49 576.39 250.03 576.70 260.59 C 565.75 246.27 557.51 230.06 550.80 213.39 C 548.09 207.26 545.69 200.82 541.28 195.66 C 537.12 190.85 532.83 186.08 527.69 182.28 C 530.71 179.13 534.10 175.93 535.24 171.55 C 536.07 168.07 537.58 164.29 536.16 160.76 C 533.59 154.34 528.73 148.83 527.60 141.87 C 527.11 137.48 527.16 131.74 531.12 128.91 C 535.25 127.70 539.36 130.06 542.66 132.35 C 547.70 135.67 550.54 141.21 555.07 145.07 C 555.26 142.81 555.41 140.55 555.54 138.28 C 557.03 140.06 558.46 141.89 560.18 143.45 C 560.55 143.18 561.28 142.62 561.65 142.35 C 561.36 138.86 560.74 135.36 561.26 131.86 C 561.73 126.63 565.61 122.36 565.51 117.01 C 570.85 113.94 574.97 108.58 574.99 102.21 C 581.26 101.82 587.53 99.87 592.61 96.10 M 575.23 120.29 C 573.28 123.26 572.55 127.78 573.63 131.24 C 577.55 132.63 581.78 132.80 585.83 133.64 C 592.53 134.68 599.20 136.17 605.98 136.49 C 608.19 136.40 607.93 133.89 608.29 132.32 C 608.49 129.88 608.97 127.33 608.29 124.93 C 598.97 123.05 589.47 122.00 580.11 120.30 C 578.52 120.29 576.64 119.30 575.23 120.29 M 607.14 160.23 C 610.18 160.84 613.45 159.21 616.39 158.28 C 616.80 156.49 616.40 154.64 616.36 152.83 C 613.21 154.05 609.72 155.29 606.33 154.51 C 603.57 153.29 601.37 151.15 598.95 149.42 C 601.71 152.99 604.18 156.81 607.14 160.23 M 583.82 166.82 C 582.25 170.15 586.60 170.76 588.74 171.79 C 589.34 173.22 589.27 175.31 591.01 175.92 C 594.89 177.83 599.27 178.23 603.40 179.41 C 606.14 179.99 608.87 181.21 611.72 180.85 C 612.78 179.94 613.58 178.80 614.50 177.75 C 616.50 177.88 621.02 178.34 619.14 175.05 C 611.69 171.88 603.55 170.62 595.79 168.35 C 591.87 167.62 587.81 165.59 583.82 166.82 Z" />
<path fill="#f0b58b" opacity="1.00" d=" M 524.71 605.80 C 528.58 604.71 532.27 603.07 535.90 601.36 C 543.94 615.65 553.09 629.76 556.55 646.03 C 558.85 655.90 558.93 666.12 558.08 676.17 C 558.18 678.07 556.33 679.02 555.01 679.97 C 549.38 683.37 542.53 683.87 536.12 683.44 C 523.64 682.32 511.22 677.54 502.20 668.67 C 502.67 666.61 503.13 664.54 503.59 662.49 C 491.11 647.36 477.35 633.36 464.58 618.49 C 461.61 615.36 461.31 610.90 460.66 606.87 C 481.71 611.60 503.83 611.17 524.71 605.80 Z" />
<path fill="#f0b58b" opacity="1.00" d=" M 378.10 626.97 C 382.82 624.92 387.66 622.43 392.96 622.60 C 410.13 622.84 427.44 628.42 444.47 623.62 C 447.26 637.99 452.61 652.27 450.53 667.13 C 449.93 675.06 445.20 682.18 438.74 686.61 C 424.20 690.18 408.53 688.20 394.92 682.14 C 388.12 679.17 382.27 674.35 377.77 668.49 C 379.67 666.15 381.89 664.04 383.39 661.39 C 384.91 658.56 384.86 655.21 384.31 652.13 C 382.88 643.60 380.83 635.17 378.10 626.97 Z" />
</g>
<g id="#f35e11ff">
<path fill="var(--shirt-color, grey)" opacity="1.00" d=" M 515.63 186.31 C 517.71 185.76 519.99 184.83 522.08 185.87 C 527.48 188.01 531.75 192.14 535.87 196.10 C 541.59 201.67 544.38 209.30 547.60 216.42 C 554.23 233.12 561.70 249.85 573.37 263.71 C 574.73 265.25 576.68 266.94 578.90 266.10 C 581.36 264.69 581.40 261.49 581.53 259.00 C 581.45 249.74 579.69 240.59 579.39 231.34 C 585.73 238.00 589.57 246.37 593.37 254.61 C 602.79 272.88 605.93 293.43 609.23 313.48 C 611.85 329.84 611.55 346.46 611.55 362.97 C 611.39 369.90 614.58 376.21 616.89 382.57 C 613.32 382.01 609.67 381.79 606.14 382.65 C 610.37 387.38 618.00 386.06 622.27 390.78 C 623.84 393.05 623.59 395.99 624.03 398.60 C 619.33 396.25 614.35 394.08 609.01 393.96 C 605.14 393.91 601.28 394.39 597.47 394.96 C 598.64 397.01 600.56 398.20 602.97 398.05 C 613.54 398.32 623.88 403.26 630.67 411.37 C 633.33 414.71 632.71 419.24 633.59 423.18 C 634.76 430.03 639.72 435.24 642.67 441.33 C 647.89 451.55 648.65 463.21 650.35 474.36 C 643.99 472.83 637.38 472.62 630.91 473.41 C 623.15 474.35 615.11 475.94 608.69 480.68 C 601.60 471.64 593.65 463.25 587.37 453.60 C 580.82 443.52 573.77 433.11 572.04 420.94 C 571.38 415.28 568.47 410.30 565.19 405.78 C 559.42 397.80 556.55 387.77 557.27 377.95 C 557.22 375.63 558.99 373.96 560.28 372.24 C 563.09 368.83 565.72 365.29 568.32 361.72 C 575.64 360.92 582.58 358.22 589.37 355.50 C 592.56 354.08 596.07 352.32 597.10 348.66 C 588.76 352.75 579.80 355.25 571.00 358.12 C 576.55 350.55 581.64 342.66 586.77 334.80 C 588.59 331.85 591.20 329.13 591.61 325.54 C 588.83 325.27 587.40 328.08 585.77 329.81 C 574.66 343.20 565.46 358.04 554.34 371.43 C 550.86 375.58 547.48 379.81 544.23 384.14 C 539.36 390.62 533.48 396.41 529.78 403.70 C 524.65 413.11 523.88 424.22 518.61 433.57 C 515.24 439.34 510.41 444.44 504.26 447.25 C 498.63 450.02 492.14 450.04 486.04 449.34 C 478.11 448.36 470.43 445.90 463.03 442.94 C 458.18 441.07 453.82 438.12 448.88 436.47 C 450.60 441.77 456.39 443.59 460.68 446.31 C 472.90 453.40 487.90 458.37 501.82 453.39 C 500.15 459.09 499.66 465.11 500.46 471.00 C 501.19 476.78 502.88 482.75 501.35 488.54 C 498.95 494.20 491.44 495.21 486.16 493.64 C 465.51 488.01 448.91 473.65 433.56 459.40 C 425.07 451.45 416.85 442.47 405.79 438.13 C 397.02 434.95 387.36 436.24 378.59 438.75 C 375.38 439.74 372.00 439.97 368.66 439.75 C 374.01 434.37 375.64 426.72 379.60 420.46 C 388.29 414.92 399.07 414.64 409.04 413.97 C 423.73 412.99 438.71 411.91 452.59 406.61 C 455.27 405.48 458.75 403.99 458.64 400.51 C 456.64 400.64 454.69 401.12 452.80 401.73 C 440.21 405.85 426.97 407.20 413.90 408.88 C 403.16 410.24 391.90 410.30 382.04 415.34 C 385.88 409.22 389.81 403.08 394.85 397.85 C 400.50 391.74 407.56 387.20 413.55 381.47 C 416.80 378.46 417.16 373.78 419.15 370.03 C 420.40 367.41 422.95 365.86 424.94 363.89 C 426.78 362.27 426.78 359.61 427.79 357.53 C 429.01 356.19 430.63 355.23 431.73 353.76 C 432.27 352.13 432.48 350.42 432.80 348.75 C 441.80 348.97 450.23 352.70 457.85 357.23 C 461.88 359.54 465.32 362.81 469.60 364.71 C 470.15 360.18 466.30 357.29 463.12 354.88 C 456.68 350.19 449.48 346.37 441.67 344.59 C 443.97 341.94 445.88 338.90 448.67 336.73 C 461.13 327.87 476.10 323.47 488.60 314.68 C 492.46 311.88 496.65 309.16 499.25 305.07 C 498.99 304.63 498.46 303.75 498.20 303.32 C 489.00 308.68 480.43 315.25 470.64 319.63 C 462.49 323.17 454.63 327.37 447.13 332.14 C 443.85 334.17 441.59 337.34 439.11 340.20 C 436.78 342.90 433.20 343.85 430.02 345.12 C 424.44 334.93 414.24 328.17 403.52 324.35 C 401.24 323.37 398.79 323.71 396.55 324.62 C 408.72 329.48 421.20 336.48 427.36 348.61 C 428.76 350.61 427.11 352.41 425.54 353.58 C 421.47 349.94 416.72 345.92 410.83 346.76 C 414.07 349.75 418.43 351.30 421.33 354.70 C 422.70 356.14 422.54 358.23 422.73 360.07 C 419.81 362.37 416.62 364.69 415.16 368.26 C 413.33 371.77 413.05 376.17 410.03 378.97 C 404.50 384.16 398.16 388.44 392.83 393.84 C 384.84 401.86 378.26 411.31 373.66 421.65 C 371.12 426.91 369.39 432.67 365.43 437.12 C 357.51 430.82 349.08 424.46 339.03 422.14 C 335.05 421.10 330.72 420.99 327.09 418.89 C 326.61 415.34 326.94 411.62 328.35 408.31 C 332.07 399.23 330.73 389.02 333.93 379.80 C 336.84 372.32 343.63 367.49 347.76 360.80 C 354.90 349.88 356.50 335.54 366.69 326.65 C 371.75 321.01 374.65 313.85 378.35 307.33 C 384.82 294.19 395.35 283.70 406.40 274.36 C 414.24 267.49 423.21 262.02 432.58 257.52 C 442.47 252.82 453.46 251.31 463.61 247.33 C 464.93 246.92 465.96 246.00 466.75 244.89 C 464.79 243.64 462.48 244.03 460.39 244.60 C 450.26 247.45 439.80 249.27 430.11 253.52 C 433.24 246.63 436.24 239.65 440.27 233.23 C 445.52 224.69 454.04 218.26 463.62 215.35 C 469.29 213.46 475.41 212.66 480.63 209.60 C 485.66 206.68 487.96 200.96 492.43 197.42 C 499.21 192.03 507.40 188.78 515.63 186.31 Z" />
</g>
<g id="#4d4d4dff">
<path fill="#4d4d4d" opacity="1.00" d=" M 317.18 451.29 C 319.25 441.48 325.26 433.34 330.97 425.36 C 336.38 426.91 341.88 428.40 346.80 431.20 C 352.65 434.49 357.93 438.67 363.24 442.76 C 362.51 452.51 364.45 462.15 366.46 471.64 C 368.27 479.83 370.86 487.87 374.54 495.42 C 377.61 501.88 381.39 507.96 384.74 514.28 C 386.01 516.92 387.53 519.82 386.91 522.85 C 384.63 525.75 380.48 524.71 377.59 523.45 C 371.10 520.36 365.97 515.04 361.53 509.50 C 360.17 507.68 358.25 506.46 356.27 505.44 C 355.61 508.64 355.04 511.98 355.88 515.21 C 359.57 530.46 370.34 542.48 376.70 556.53 C 377.89 560.00 379.99 565.31 376.04 567.73 C 371.89 567.04 368.57 564.22 365.50 561.57 C 355.43 552.63 348.28 541.07 341.45 529.62 C 339.54 526.25 337.64 522.84 334.92 520.05 C 335.83 527.01 339.47 533.16 342.50 539.37 C 347.00 548.20 353.47 555.74 360.00 563.10 C 357.84 564.10 355.61 566.28 353.07 565.23 C 349.36 563.85 346.52 560.94 343.84 558.14 C 338.21 551.93 333.44 544.95 329.54 537.54 C 328.08 534.74 326.41 532.05 324.57 529.49 C 325.13 544.12 335.04 555.97 344.87 565.87 C 341.99 566.45 338.74 566.78 336.52 564.45 C 327.65 556.32 324.07 544.35 317.64 534.48 C 317.10 537.01 316.93 539.68 317.94 542.13 C 321.31 551.14 326.54 559.35 332.58 566.81 C 329.78 566.59 326.68 566.61 324.45 564.62 C 317.71 559.27 312.96 551.51 310.94 543.17 C 309.32 536.58 309.86 529.74 309.88 523.03 C 310.23 512.32 310.80 501.61 312.01 490.96 C 313.40 477.70 314.04 464.29 317.18 451.29 Z" />
<path fill="#4d4d4d" opacity="1.00" d=" M 615.53 481.35 C 627.06 477.98 639.71 475.37 651.51 478.87 C 654.58 491.09 664.90 499.29 674.36 506.70 C 684.41 514.52 694.87 522.05 703.10 531.87 C 704.63 533.74 705.27 536.09 706.07 538.33 C 693.25 536.64 683.16 527.38 670.75 524.36 C 669.46 524.15 668.17 524.09 666.88 524.18 C 667.46 526.72 669.91 527.90 671.98 529.07 C 678.31 532.48 684.84 535.54 691.26 538.80 C 694.77 550.54 697.42 563.96 691.34 575.36 C 683.72 564.57 681.18 551.31 675.37 539.62 C 674.66 538.07 673.07 537.22 671.80 536.23 C 673.09 547.25 679.01 557.15 679.80 568.28 C 680.50 574.06 679.53 580.10 676.14 584.93 C 669.09 578.29 667.43 568.17 666.47 558.98 C 665.88 554.74 666.58 550.05 664.16 546.29 C 662.85 547.09 661.98 548.38 661.98 549.95 C 661.36 557.11 662.40 564.30 663.68 571.33 C 661.12 576.46 658.15 583.54 651.58 584.00 C 650.47 573.87 653.65 563.95 656.23 554.28 C 656.48 552.19 657.95 548.72 654.89 548.18 C 653.43 549.35 652.41 550.95 651.75 552.69 C 649.22 559.03 648.19 565.92 645.10 572.05 C 643.42 575.60 639.12 578.24 635.23 576.79 C 633.34 576.09 633.17 573.80 633.09 572.11 C 632.88 562.08 637.40 552.78 638.64 542.95 C 639.52 537.57 634.34 534.21 630.79 531.20 C 623.70 526.02 618.25 518.06 617.95 509.07 C 617.57 499.80 618.38 490.34 615.53 481.35 Z" />
<path fill="#4d4d4d" opacity="1.00" d=" M 528.77 856.80 C 539.84 853.45 550.26 847.41 557.87 838.60 C 570.91 849.92 587.29 856.03 602.59 863.55 C 610.75 867.67 619.01 871.57 627.04 875.94 C 635.27 880.63 643.81 885.52 649.41 893.41 C 646.63 894.99 643.66 896.30 640.47 896.69 C 633.01 897.70 625.47 897.73 617.99 898.55 C 608.02 899.64 597.99 898.87 588.00 899.30 C 578.69 899.71 569.38 899.20 560.08 899.13 C 545.35 898.91 530.55 898.55 516.00 896.15 C 507.90 895.17 504.27 886.20 503.89 879.03 C 504.03 871.69 505.16 864.39 504.74 857.04 C 512.49 859.84 521.00 859.23 528.77 856.80 Z" />
<path fill="#4d4d4d" opacity="1.00" d=" M 324.35 885.49 C 332.45 883.31 341.74 884.31 348.61 889.36 C 353.77 893.60 356.91 899.80 359.12 906.00 C 361.37 913.17 361.68 920.98 365.30 927.71 C 372.81 941.72 387.76 949.73 395.28 963.72 C 397.72 968.36 399.82 973.50 399.67 978.83 C 398.92 982.18 395.46 984.77 392.01 984.55 C 378.13 984.75 365.46 978.41 353.01 973.11 C 336.68 965.98 321.61 956.42 305.93 948.04 C 300.75 944.90 294.39 941.90 292.46 935.65 C 291.08 929.93 292.12 923.99 292.57 918.21 C 293.33 913.10 293.99 907.86 295.99 903.07 C 297.68 900.70 300.50 899.48 302.82 897.84 C 309.87 893.54 316.18 887.63 324.35 885.49 Z" />
</g>
</svg>
