<?xml version="1.0" encoding="UTF-8" ?>
<!DOCTYPE svg PUBLIC "-//W3C//DTD SVG 1.1//EN" "http://www.w3.org/Graphics/SVG/1.1/DTD/svg11.dtd">
<svg width="1000pt" height="1000pt" viewBox="0 0 1000 1000" version="1.1" xmlns="http://www.w3.org/2000/svg">
<g id="#020202ff">
<path fill="#020202" opacity="1.00" d=" M 360.78 62.80 C 378.33 53.05 399.19 50.16 418.88 53.65 C 438.66 56.06 458.23 62.69 474.27 74.73 C 479.73 78.86 485.14 83.10 490.01 87.92 C 491.64 89.05 491.27 92.16 488.97 92.12 C 485.55 91.45 482.41 89.87 479.19 88.60 C 484.87 93.21 489.20 99.70 490.18 107.06 C 491.19 114.75 489.93 122.59 487.91 130.03 C 486.84 134.35 484.00 138.38 484.86 143.01 C 485.46 154.52 490.85 164.94 496.06 174.96 C 497.87 178.16 498.43 182.00 497.31 185.54 C 495.12 193.28 492.31 200.88 491.15 208.87 C 489.38 218.37 489.27 228.36 485.16 237.28 C 483.59 240.97 481.07 244.12 478.70 247.31 C 484.10 248.47 489.75 249.46 495.15 247.73 C 507.13 245.70 518.82 242.39 530.58 239.39 C 544.89 235.93 559.45 233.60 574.06 231.89 C 588.92 229.76 603.75 227.36 618.64 225.46 C 626.35 209.95 634.11 194.36 644.31 180.29 C 646.34 177.60 647.84 174.56 649.76 171.79 C 660.16 158.62 671.00 145.72 683.36 134.33 C 689.43 128.84 696.13 123.69 703.99 121.09 C 706.69 120.11 710.43 120.07 712.11 122.83 C 713.74 125.79 712.61 129.31 712.05 132.40 C 717.74 127.58 723.18 121.44 730.87 120.05 C 735.62 118.97 740.38 123.18 740.09 128.00 C 739.67 133.34 736.57 137.94 733.97 142.46 C 737.12 140.83 740.86 139.16 744.41 140.60 C 749.20 142.89 750.72 149.20 749.08 153.95 C 746.80 161.17 741.40 166.78 736.22 172.06 C 740.94 170.12 746.58 167.93 751.44 170.66 C 755.52 173.07 755.85 178.60 754.51 182.69 C 751.85 190.91 745.90 197.44 740.60 204.06 C 750.87 203.61 760.80 200.69 771.03 199.96 C 772.56 199.80 774.25 199.71 775.43 198.54 C 786.88 189.06 797.58 178.65 807.29 167.39 C 819.19 153.48 829.91 138.63 840.74 123.89 C 848.20 113.88 856.05 103.94 866.03 96.30 C 869.76 93.50 874.19 90.77 879.07 91.39 C 883.78 92.14 887.79 95.53 889.79 99.79 C 893.18 97.90 897.15 95.17 901.18 96.86 C 905.64 98.99 907.64 104.22 907.78 108.90 C 907.82 113.93 907.59 119.02 906.28 123.90 C 908.57 123.43 911.13 122.43 913.38 123.66 C 917.07 125.55 918.17 130.16 918.05 133.99 C 917.61 141.19 912.76 147.01 908.49 152.43 C 912.29 151.38 916.51 150.07 920.37 151.64 C 923.54 152.98 924.89 156.73 924.47 159.97 C 924.07 164.17 921.36 167.61 918.73 170.72 C 913.84 176.51 907.89 181.27 901.94 185.92 C 894.67 191.53 886.96 196.66 878.60 200.51 C 875.95 201.83 872.62 202.30 870.92 204.97 C 866.63 210.67 861.12 215.27 855.52 219.61 C 834.00 235.88 808.08 246.59 781.14 249.11 C 735.63 263.17 688.69 272.80 644.23 290.19 C 640.79 291.35 640.03 295.42 637.02 297.16 C 625.97 305.05 613.91 311.35 602.19 318.15 C 583.88 328.62 565.04 338.32 545.15 345.43 C 536.43 348.61 527.27 350.63 517.98 350.94 C 514.67 350.63 512.46 353.35 510.70 355.73 C 502.71 367.02 496.48 379.46 491.38 392.29 C 486.28 404.23 481.47 416.34 478.23 428.93 C 475.37 438.79 474.07 448.99 471.97 459.02 C 469.93 470.28 468.01 481.62 467.72 493.09 C 467.49 501.30 466.30 509.45 465.12 517.57 C 477.55 512.92 490.87 511.61 504.01 510.59 C 515.99 509.80 527.99 509.11 540.01 509.17 C 556.05 508.77 571.63 504.62 587.25 501.33 C 600.91 498.41 615.21 497.25 628.99 499.95 C 637.60 501.58 644.81 507.64 648.78 515.32 C 656.26 529.28 658.10 545.36 659.29 560.90 C 661.24 585.00 658.67 609.21 654.37 632.92 C 651.22 651.17 646.15 669.00 642.08 687.06 C 636.98 707.54 632.16 728.27 623.48 747.59 C 620.38 754.15 616.95 760.55 613.29 766.82 C 628.55 773.20 638.71 786.80 651.87 796.24 C 663.37 804.58 675.34 812.88 689.14 816.89 C 694.28 818.79 699.96 820.12 704.08 823.98 C 708.32 827.99 707.36 834.89 704.29 839.33 C 700.63 844.32 697.98 850.16 693.05 854.10 C 684.24 861.47 674.13 867.37 663.31 871.27 C 649.44 876.14 634.45 875.61 620.01 874.38 C 602.38 873.02 584.69 871.81 567.01 872.74 C 553.97 872.75 539.84 872.85 528.37 865.73 C 521.28 861.60 519.32 852.72 519.56 845.10 C 521.01 832.08 527.36 820.24 534.31 809.36 C 539.53 801.35 544.60 793.23 550.19 785.49 C 552.09 773.48 552.08 761.24 553.58 749.17 C 556.11 727.81 557.94 706.38 560.23 685.00 C 563.16 656.90 567.78 628.93 568.39 600.64 C 558.86 602.79 548.63 602.49 539.27 599.71 C 537.81 613.27 536.05 626.85 532.75 640.11 C 531.64 644.44 530.12 648.79 527.37 652.38 C 524.89 655.51 520.97 657.00 517.11 657.45 C 508.47 658.48 499.75 658.78 491.05 658.63 C 492.62 679.61 492.00 700.73 490.10 721.67 C 488.71 721.87 487.34 722.07 485.96 722.28 C 490.21 736.60 494.10 751.13 495.93 766.00 C 497.13 775.60 496.09 786.03 490.11 793.98 C 479.33 809.13 461.51 816.82 444.46 822.61 C 428.79 827.33 412.75 830.70 396.96 835.01 C 375.44 841.26 354.13 848.47 332.11 852.82 C 314.60 856.63 296.74 858.41 279.02 860.96 C 271.89 861.92 264.73 862.79 257.52 862.77 C 258.13 868.47 257.47 874.37 259.40 879.88 C 264.98 897.44 279.20 910.72 284.49 928.42 C 285.96 933.71 287.10 939.58 285.12 944.88 C 282.83 950.30 276.38 952.11 270.99 952.21 C 258.27 952.77 247.09 945.61 236.64 939.28 C 221.59 928.74 205.87 919.06 191.83 907.15 C 181.60 898.77 171.44 889.94 163.86 879.01 C 161.38 875.12 158.54 870.79 159.29 865.95 C 160.13 859.56 164.53 854.38 169.13 850.18 C 175.09 845.00 181.45 840.12 188.62 836.73 C 199.06 832.33 210.58 829.08 218.71 820.72 C 231.49 810.76 245.72 802.87 259.65 794.66 C 275.65 785.25 292.80 778.09 309.86 770.89 C 327.51 763.67 345.75 757.77 364.52 754.31 C 367.76 753.80 371.04 753.73 374.31 753.69 C 372.17 749.39 370.73 744.76 369.98 740.02 C 369.37 735.12 370.39 730.21 370.56 725.31 C 355.69 728.39 341.74 734.87 326.77 737.53 C 324.69 738.16 323.24 736.13 322.43 734.55 C 319.11 728.14 317.85 720.95 316.01 714.04 C 314.77 709.55 314.14 704.60 311.09 700.89 C 302.40 690.88 290.74 683.85 282.85 673.08 C 278.26 667.29 275.33 660.29 274.17 653.02 C 272.50 642.70 271.02 632.36 269.14 622.09 C 267.27 611.37 262.92 601.34 259.82 590.97 C 256.81 582.94 255.24 573.96 257.72 565.58 C 254.44 563.59 250.58 561.59 249.20 557.75 C 248.06 553.99 248.45 549.99 248.70 546.14 C 250.31 529.33 253.59 512.74 256.47 496.11 C 259.54 480.21 264.25 464.70 268.44 449.08 C 271.10 439.18 272.32 428.93 275.32 419.11 C 278.27 409.33 282.06 399.83 285.37 390.17 C 290.21 375.46 294.70 360.62 298.30 345.56 C 302.17 328.32 305.55 310.93 310.83 294.05 C 315.52 279.81 321.24 265.80 329.02 252.95 C 335.04 242.90 343.58 234.52 353.23 227.96 C 341.64 218.58 334.66 204.79 330.60 190.68 C 329.81 194.97 331.34 200.40 328.08 203.80 C 324.61 203.74 324.05 199.54 322.95 197.00 C 317.05 177.08 315.34 156.02 316.90 135.35 C 314.89 137.18 312.59 141.58 309.43 139.50 C 307.54 136.93 309.14 133.52 309.77 130.74 C 314.56 117.14 320.25 103.61 329.12 92.11 C 336.75 79.68 347.93 69.62 360.78 62.80 M 872.44 98.51 C 859.93 106.84 851.20 119.46 842.50 131.46 C 823.59 158.11 803.68 185.07 776.58 203.99 C 777.67 211.51 777.55 219.22 779.61 226.58 C 781.20 232.45 782.90 238.29 784.97 244.02 C 794.02 242.50 803.17 241.09 811.82 237.87 C 826.94 232.65 840.42 223.77 853.08 214.15 C 858.63 209.74 864.18 205.04 867.97 198.96 C 869.25 197.10 869.48 194.84 869.54 192.65 C 857.68 192.36 847.44 199.53 838.58 206.62 C 829.65 212.47 820.65 218.35 810.89 222.71 C 817.61 216.10 825.53 210.84 832.52 204.51 C 841.24 196.61 851.25 189.41 862.99 187.01 C 866.62 186.31 871.12 186.17 873.86 189.10 C 875.76 191.04 875.45 193.93 875.66 196.42 C 887.96 190.04 899.23 181.83 909.65 172.72 C 913.22 169.27 917.04 165.81 919.33 161.33 C 920.39 159.08 920.33 155.01 917.04 154.95 C 912.38 154.71 907.33 155.69 903.48 158.44 C 897.56 164.18 891.80 170.24 884.93 174.86 C 879.45 177.45 873.81 179.88 867.88 181.19 C 882.59 169.60 897.40 157.64 908.55 142.42 C 911.49 138.48 913.98 133.12 911.76 128.28 C 910.23 126.00 907.16 127.57 904.99 127.71 C 901.79 135.15 897.00 141.74 891.95 148.01 C 885.65 155.50 878.74 162.73 870.48 168.06 C 869.63 165.31 872.11 163.48 873.67 161.65 C 879.81 155.34 884.85 148.10 890.10 141.06 C 895.72 133.13 901.94 124.92 903.22 114.99 C 903.93 110.77 903.66 105.80 900.30 102.73 C 898.61 100.90 896.18 102.58 894.45 103.46 C 887.37 107.85 881.70 114.08 876.31 120.34 C 865.57 132.65 856.03 145.95 845.23 158.20 C 843.99 159.75 842.33 160.87 840.50 161.60 C 841.31 156.84 844.77 153.29 847.40 149.45 C 859.68 132.87 871.29 115.36 887.07 101.83 C 883.67 97.50 877.30 94.93 872.44 98.51 M 460.41 110.52 C 454.36 113.30 448.19 115.80 441.89 117.93 C 445.45 118.49 449.06 118.57 452.65 118.89 C 451.04 123.64 448.06 128.18 443.76 130.88 C 438.32 133.96 431.89 132.02 426.34 130.29 C 426.63 140.15 426.02 150.03 424.76 159.81 C 423.70 167.03 422.36 174.83 416.92 180.17 C 414.75 171.77 412.66 162.81 406.96 156.01 C 401.87 150.24 391.75 149.69 386.45 155.44 C 382.78 159.67 382.40 165.78 383.34 171.07 C 384.62 178.53 389.17 184.78 393.17 191.00 C 395.69 194.81 396.44 199.42 396.80 203.89 C 397.30 210.86 397.72 218.00 395.72 224.80 C 398.96 225.45 402.22 226.03 405.45 226.78 C 428.17 232.66 450.63 239.46 473.15 246.03 C 474.52 242.93 477.21 240.72 478.72 237.71 C 483.18 229.55 483.09 220.03 484.56 211.08 C 485.76 201.80 488.55 192.84 491.25 183.91 C 492.13 181.78 491.44 179.53 490.34 177.64 C 486.39 170.38 482.89 162.83 480.59 154.87 C 477.49 156.01 474.38 157.11 471.28 158.27 C 470.82 160.97 471.55 165.00 468.33 166.19 C 460.46 168.65 452.16 169.26 444.09 170.77 C 441.74 171.12 439.37 171.76 436.99 171.41 C 434.88 170.46 435.45 168.10 436.53 166.60 C 442.88 156.05 453.74 148.06 465.97 146.02 C 470.62 145.14 475.36 146.43 479.41 148.72 C 478.80 141.16 479.06 133.56 479.55 125.99 C 479.84 122.77 478.40 119.77 477.22 116.87 C 475.76 113.66 474.03 110.06 470.58 108.63 C 467.11 107.41 463.59 109.25 460.41 110.52 M 725.37 128.26 C 717.22 134.75 709.98 142.26 702.64 149.63 C 693.61 158.67 685.73 169.15 674.88 176.13 C 674.40 176.15 673.45 176.18 672.98 176.20 C 673.02 173.51 675.05 171.57 676.66 169.65 C 683.92 161.59 690.87 153.24 698.60 145.62 C 704.19 140.41 707.31 132.92 708.13 125.40 C 701.37 126.90 695.67 131.12 690.47 135.49 C 683.26 141.58 676.94 148.62 670.30 155.31 C 663.00 162.53 657.61 171.33 651.69 179.64 C 640.85 195.12 631.90 211.84 624.01 228.99 C 621.74 234.35 619.22 239.68 615.35 244.09 C 617.51 251.21 621.10 257.78 624.45 264.38 C 628.90 273.01 633.98 281.31 639.74 289.12 C 645.26 281.39 654.26 277.36 661.50 271.48 C 675.59 260.35 689.23 248.63 702.17 236.18 C 712.36 226.36 722.84 216.73 731.48 205.47 C 736.98 198.29 743.51 191.75 747.52 183.55 C 748.78 181.21 748.89 178.54 748.94 175.96 C 743.36 174.75 738.23 177.93 733.65 180.68 C 721.48 188.51 710.80 198.39 700.38 208.36 C 699.18 209.61 697.52 210.15 695.86 210.43 C 696.43 208.35 697.16 206.25 698.64 204.63 C 705.01 197.05 712.71 190.75 719.33 183.40 C 725.53 176.57 732.23 170.20 738.09 163.07 C 740.88 159.45 743.78 155.56 744.47 150.93 C 744.65 148.95 744.10 146.25 742.04 145.49 C 738.55 145.77 735.66 148.02 732.84 149.89 C 725.59 155.18 718.81 161.15 712.86 167.87 C 709.23 171.93 704.52 174.78 700.77 178.70 C 694.70 184.33 689.03 190.38 682.82 195.86 C 682.36 195.56 681.46 194.97 681.00 194.67 C 681.76 192.42 683.01 190.39 684.65 188.69 C 694.78 177.50 705.02 166.38 716.15 156.16 C 723.84 149.61 729.77 141.13 733.96 131.97 C 734.79 129.93 736.03 126.84 733.71 125.33 C 730.63 124.65 727.75 126.54 725.37 128.26 M 739.13 208.65 C 735.95 208.46 734.32 211.40 732.44 213.44 C 709.57 239.73 680.90 259.89 654.56 282.42 C 658.20 281.22 661.79 279.85 665.42 278.60 C 703.01 265.17 742.13 256.72 780.12 244.60 C 777.94 238.04 775.82 231.45 774.24 224.72 C 772.81 217.95 772.99 210.98 772.07 204.15 C 761.02 205.15 750.24 208.10 739.13 208.65 M 353.55 233.47 C 344.84 240.52 337.50 249.27 332.05 259.06 C 325.31 271.11 320.30 284.06 316.21 297.22 C 311.27 313.97 308.07 331.16 304.26 348.19 C 300.75 362.86 296.57 377.37 291.83 391.69 C 287.52 404.38 282.07 416.73 279.30 429.89 C 275.05 454.29 266.18 477.59 261.96 501.99 C 259.81 514.38 257.21 526.68 255.44 539.13 C 259.38 534.51 263.49 529.98 268.29 526.23 C 270.84 524.12 274.19 522.51 277.46 524.00 C 276.59 524.94 275.71 525.89 274.65 526.63 C 268.35 530.90 263.35 536.86 259.16 543.16 C 256.34 547.31 255.04 552.22 254.39 557.14 C 255.88 558.66 257.42 560.14 258.99 561.60 C 273.16 559.79 286.72 554.66 300.97 553.24 C 310.98 552.12 321.05 553.69 331.07 552.86 C 341.55 552.07 351.90 550.01 362.09 547.47 C 374.04 544.55 386.19 542.34 398.49 541.67 C 389.18 537.01 380.56 531.10 372.46 524.58 C 366.39 519.79 360.48 514.31 352.90 512.02 C 339.93 507.94 326.21 509.99 312.87 509.51 C 308.84 509.36 304.27 508.73 301.65 505.31 C 307.41 505.25 313.18 505.91 318.93 505.29 C 331.33 504.69 344.18 503.03 356.25 506.84 C 365.59 509.84 372.41 517.21 379.96 523.08 C 387.58 529.32 395.96 534.51 404.41 539.53 C 405.79 540.31 407.27 541.13 408.93 540.94 C 420.00 540.48 430.99 538.46 441.65 535.45 C 446.71 533.87 452.43 532.18 455.38 527.38 C 459.62 521.86 459.46 514.62 460.34 508.06 C 461.50 499.46 461.16 490.77 461.82 482.14 C 462.91 470.28 465.28 458.59 467.55 446.91 C 470.49 429.11 476.03 411.80 483.49 395.39 C 490.17 379.73 497.50 363.92 509.20 351.30 C 496.15 352.55 483.06 353.43 469.98 354.25 C 462.80 354.27 456.53 358.28 450.22 361.20 C 432.87 369.78 418.15 382.49 402.52 393.70 C 392.77 400.45 382.84 407.08 372.04 412.07 C 367.63 413.99 362.56 416.17 357.82 414.03 C 360.64 412.22 363.88 411.30 366.96 410.04 C 384.61 402.09 399.42 389.39 414.68 377.73 C 426.17 368.81 438.61 361.15 451.80 354.99 C 446.06 354.68 440.19 354.83 434.75 356.86 C 414.75 363.54 395.06 371.10 375.08 377.83 C 370.74 379.23 366.42 380.78 361.91 381.51 C 360.40 381.72 356.99 381.79 358.31 379.41 C 368.86 375.99 379.15 371.85 389.42 367.67 C 402.02 362.77 415.00 358.95 427.76 354.48 C 416.86 353.60 406.01 352.27 395.17 350.85 C 386.50 349.54 377.68 348.47 369.36 345.59 C 367.72 344.89 364.73 343.37 366.36 341.29 C 370.45 341.51 374.37 342.85 378.42 343.36 C 393.86 345.54 409.42 346.84 425.01 347.23 C 450.64 348.06 476.34 347.75 501.90 345.52 C 513.25 344.35 524.89 345.27 535.97 342.04 C 555.58 336.41 574.01 327.38 592.03 317.96 C 607.24 309.77 622.58 301.83 637.50 293.13 C 629.91 287.26 625.07 278.81 620.43 270.60 C 615.84 261.93 611.87 252.88 609.50 243.33 C 606.68 242.86 603.81 242.54 600.96 242.92 C 591.69 243.96 582.29 245.12 573.54 248.51 C 567.30 250.73 561.90 254.66 556.56 258.47 C 547.10 265.29 537.61 272.35 526.72 276.73 C 517.12 280.40 507.32 284.15 497.02 285.09 C 494.39 285.43 491.68 284.92 489.86 282.87 C 498.69 281.28 507.52 279.47 515.89 276.10 C 531.63 270.58 544.77 260.06 558.55 251.02 C 556.14 251.34 553.60 251.34 551.35 252.34 C 544.39 256.07 536.83 258.46 529.57 261.49 C 524.48 263.29 519.62 266.20 514.07 266.25 C 520.57 259.91 529.96 258.17 537.77 253.95 C 522.65 256.18 507.25 258.29 492.00 255.98 C 471.71 253.74 452.52 246.49 432.96 241.11 C 419.93 237.63 407.16 233.13 393.89 230.59 C 385.00 228.87 375.95 228.07 366.90 228.21 C 361.95 228.14 357.48 230.75 353.55 233.47 M 541.15 241.66 C 529.04 244.28 517.11 247.68 505.09 250.66 C 519.55 251.13 533.75 247.93 548.07 246.57 C 560.54 245.33 572.74 242.40 585.11 240.56 C 594.18 239.72 603.37 238.51 612.45 239.86 C 613.94 236.25 615.58 232.71 617.18 229.15 C 592.09 234.79 566.31 236.40 541.15 241.66 M 548.37 513.27 C 548.65 525.59 546.12 537.75 545.02 549.99 C 543.55 564.47 541.89 578.94 540.01 593.38 C 547.25 594.77 554.66 595.02 562.01 594.87 C 564.80 594.86 567.51 594.12 570.08 593.08 C 570.63 584.36 572.40 575.78 574.59 567.34 C 575.73 563.58 576.73 559.19 580.46 557.11 C 580.51 560.32 579.37 563.35 578.63 566.44 C 576.85 573.71 575.72 581.13 574.64 588.53 C 582.51 581.19 592.56 576.58 602.93 574.01 C 619.44 570.05 637.15 569.93 653.41 575.15 C 653.24 567.43 652.69 559.73 651.99 552.05 C 650.62 537.52 648.24 522.02 638.56 510.48 C 631.21 504.41 621.02 504.37 611.97 504.34 C 590.36 504.19 569.96 513.40 548.37 513.27 M 374.26 724.44 C 374.57 727.31 374.86 730.21 374.71 733.11 C 374.29 740.64 376.40 748.15 379.98 754.73 C 390.40 756.09 400.51 759.10 410.47 762.35 C 413.82 763.57 417.73 764.54 419.64 767.88 C 417.70 767.93 415.74 767.94 413.88 767.35 C 402.48 764.03 390.91 761.27 379.14 759.62 C 375.63 768.45 376.97 778.29 379.71 787.13 C 383.09 796.76 387.31 806.23 393.45 814.45 C 396.81 818.92 399.88 823.90 404.92 826.70 C 421.81 822.10 439.32 819.40 455.48 812.42 C 468.02 807.19 480.79 799.85 487.60 787.60 C 492.77 777.46 490.74 765.61 488.86 754.89 C 487.19 744.01 483.81 733.46 482.78 722.47 C 458.57 724.67 434.21 724.67 409.97 722.97 C 398.07 722.06 386.00 722.07 374.26 724.44 M 599.22 773.21 C 590.58 775.79 582.54 780.02 574.06 783.05 C 568.47 785.32 562.34 786.16 557.02 789.08 C 553.17 791.14 550.73 794.92 548.72 798.67 C 545.15 805.56 540.23 811.61 536.28 818.27 C 531.37 826.12 527.72 834.78 525.69 843.81 C 525.10 847.19 524.59 850.77 525.55 854.14 C 527.42 858.83 532.15 861.55 536.66 863.27 C 547.33 867.10 558.89 866.84 570.07 866.61 C 586.39 865.72 602.73 866.88 619.01 868.09 C 631.57 869.18 644.43 869.90 656.75 866.67 C 667.82 863.65 677.84 857.73 687.10 851.10 C 691.56 847.97 695.50 844.16 698.85 839.87 C 691.67 841.41 684.43 842.88 677.06 842.88 C 664.17 843.27 651.55 840.33 638.88 838.49 C 617.13 835.10 595.02 833.95 573.03 834.82 C 558.90 835.36 544.28 839.87 534.28 850.28 C 532.59 851.95 531.52 854.52 529.03 855.15 C 529.81 847.46 536.55 842.48 542.44 838.45 C 557.43 828.96 575.90 829.12 593.01 829.10 C 612.80 828.76 632.50 831.18 651.96 834.58 C 666.49 837.26 681.43 837.99 696.10 836.19 C 700.54 836.23 702.82 829.31 699.10 826.90 C 690.70 820.79 680.02 819.77 670.98 814.98 C 658.12 808.40 646.11 800.20 635.19 790.75 C 627.84 784.38 620.72 777.38 611.72 773.37 C 607.78 771.57 603.28 772.17 599.22 773.21 M 185.33 845.31 C 178.26 848.92 172.65 854.69 167.31 860.43 C 164.82 863.02 163.90 867.16 165.65 870.40 C 169.93 879.27 177.29 886.09 184.48 892.60 C 197.09 903.48 210.72 913.10 224.54 922.37 C 236.43 930.29 247.52 940.05 261.33 944.52 C 266.65 945.70 272.72 947.89 277.82 944.85 C 281.13 942.78 280.15 938.19 279.82 934.95 C 277.16 920.57 267.04 909.44 259.77 897.25 C 254.71 888.45 250.33 878.40 251.90 868.01 C 252.22 865.43 252.69 861.19 249.08 860.87 C 239.47 859.07 230.71 854.62 222.42 849.61 C 216.44 846.28 210.29 841.13 210.01 833.74 C 202.21 838.49 193.38 841.07 185.33 845.31 Z" />
</g>
<g id="#4d4d4dff">
<path fill="#4d4d4d" opacity="1.00" d=" M 872.44 98.51 C 877.30 94.93 883.67 97.50 887.07 101.83 C 871.29 115.36 859.68 132.87 847.40 149.45 C 844.77 153.29 841.31 156.84 840.50 161.60 C 842.33 160.87 843.99 159.75 845.23 158.20 C 856.03 145.95 865.57 132.65 876.31 120.34 C 881.70 114.08 887.37 107.85 894.45 103.46 C 896.18 102.58 898.61 100.90 900.30 102.73 C 903.66 105.80 903.93 110.77 903.22 114.99 C 901.94 124.92 895.72 133.13 890.10 141.06 C 884.85 148.10 879.81 155.34 873.67 161.65 C 872.11 163.48 869.63 165.31 870.48 168.06 C 878.74 162.73 885.65 155.50 891.95 148.01 C 897.00 141.74 901.79 135.15 904.99 127.71 C 907.16 127.57 910.23 126.00 911.76 128.28 C 913.98 133.12 911.49 138.48 908.55 142.42 C 897.40 157.64 882.59 169.60 867.88 181.19 C 873.81 179.88 879.45 177.45 884.93 174.86 C 891.80 170.24 897.56 164.18 903.48 158.44 C 907.33 155.69 912.38 154.71 917.04 154.95 C 920.33 155.01 920.39 159.08 919.33 161.33 C 917.04 165.81 913.22 169.27 909.65 172.72 C 899.23 181.83 887.96 190.04 875.66 196.42 C 875.45 193.93 875.76 191.04 873.86 189.10 C 871.12 186.17 866.62 186.31 862.99 187.01 C 851.25 189.41 841.24 196.61 832.52 204.51 C 825.53 210.84 817.61 216.10 810.89 222.71 C 820.65 218.35 829.65 212.47 838.58 206.62 C 847.44 199.53 857.68 192.36 869.54 192.65 C 869.48 194.84 869.25 197.10 867.97 198.96 C 864.18 205.04 858.63 209.74 853.08 214.15 C 840.42 223.77 826.94 232.65 811.82 237.87 C 803.17 241.09 794.02 242.50 784.97 244.02 C 782.90 238.29 781.20 232.45 779.61 226.58 C 777.55 219.22 777.67 211.51 776.58 203.99 C 803.68 185.07 823.59 158.11 842.50 131.46 C 851.20 119.46 859.93 106.84 872.44 98.51 Z" />
<path fill="#4d4d4d" opacity="1.00" d=" M 725.37 128.26 C 727.75 126.54 730.63 124.65 733.71 125.33 C 736.03 126.84 734.79 129.93 733.96 131.97 C 729.77 141.13 723.84 149.61 716.15 156.16 C 705.02 166.38 694.78 177.50 684.65 188.69 C 683.01 190.39 681.76 192.42 681.00 194.67 C 681.46 194.97 682.36 195.56 682.82 195.86 C 689.03 190.38 694.70 184.33 700.77 178.70 C 704.52 174.78 709.23 171.93 712.86 167.87 C 718.81 161.15 725.59 155.18 732.84 149.89 C 735.66 148.02 738.55 145.77 742.04 145.49 C 744.10 146.25 744.65 148.95 744.47 150.93 C 743.78 155.56 740.88 159.45 738.09 163.07 C 732.23 170.20 725.53 176.57 719.33 183.40 C 712.71 190.75 705.01 197.05 698.64 204.63 C 697.16 206.25 696.43 208.35 695.86 210.43 C 697.52 210.15 699.18 209.61 700.38 208.36 C 710.80 198.39 721.48 188.51 733.65 180.68 C 738.23 177.93 743.36 174.75 748.94 175.96 C 748.89 178.54 748.78 181.21 747.52 183.55 C 743.51 191.75 736.98 198.29 731.48 205.47 C 722.84 216.73 712.36 226.36 702.17 236.18 C 689.23 248.63 675.59 260.35 661.50 271.48 C 654.26 277.36 645.26 281.39 639.74 289.12 C 633.98 281.31 628.90 273.01 624.45 264.38 C 621.10 257.78 617.51 251.21 615.35 244.09 C 619.22 239.68 621.74 234.35 624.01 228.99 C 631.90 211.84 640.85 195.12 651.69 179.64 C 657.61 171.33 663.00 162.53 670.30 155.31 C 676.94 148.62 683.26 141.58 690.47 135.49 C 695.67 131.12 701.37 126.90 708.13 125.40 C 707.31 132.92 704.19 140.41 698.60 145.62 C 690.87 153.24 683.92 161.59 676.66 169.65 C 675.05 171.57 673.02 173.51 672.98 176.20 C 673.45 176.18 674.40 176.15 674.88 176.13 C 685.73 169.15 693.61 158.67 702.64 149.63 C 709.98 142.26 717.22 134.75 725.37 128.26 Z" />
<path fill="#4d4d4d" opacity="1.00" d=" M 599.22 773.21 C 603.28 772.17 607.78 771.57 611.72 773.37 C 620.72 777.38 627.84 784.38 635.19 790.75 C 646.11 800.20 658.12 808.40 670.98 814.98 C 680.02 819.77 690.70 820.79 699.10 826.90 C 702.82 829.31 700.54 836.23 696.10 836.19 C 681.43 837.99 666.49 837.26 651.96 834.58 C 632.50 831.18 612.80 828.76 593.01 829.10 C 575.90 829.12 557.43 828.96 542.44 838.45 C 536.55 842.48 529.81 847.46 529.03 855.15 C 531.52 854.52 532.59 851.95 534.28 850.28 C 544.28 839.87 558.90 835.36 573.03 834.82 C 595.02 833.95 617.13 835.10 638.88 838.49 C 651.55 840.33 664.17 843.27 677.06 842.88 C 684.43 842.88 691.67 841.41 698.85 839.87 C 695.50 844.16 691.56 847.97 687.10 851.10 C 677.84 857.73 667.82 863.65 656.75 866.67 C 644.43 869.90 631.57 869.18 619.01 868.09 C 602.73 866.88 586.39 865.72 570.07 866.61 C 558.89 866.84 547.33 867.10 536.66 863.27 C 532.15 861.55 527.42 858.83 525.55 854.14 C 524.59 850.77 525.10 847.19 525.69 843.81 C 527.72 834.78 531.37 826.12 536.28 818.27 C 540.23 811.61 545.15 805.56 548.72 798.67 C 550.73 794.92 553.17 791.14 557.02 789.08 C 562.34 786.16 568.47 785.32 574.06 783.05 C 582.54 780.02 590.58 775.79 599.22 773.21 Z" />
<path fill="#4d4d4d" opacity="1.00" d=" M 185.33 845.31 C 193.38 841.07 202.21 838.49 210.01 833.74 C 210.29 841.13 216.44 846.28 222.42 849.61 C 230.71 854.62 239.47 859.07 249.08 860.87 C 252.69 861.19 252.22 865.43 251.90 868.01 C 250.33 878.40 254.71 888.45 259.77 897.25 C 267.04 909.44 277.16 920.57 279.82 934.95 C 280.15 938.19 281.13 942.78 277.82 944.85 C 272.72 947.89 266.65 945.70 261.33 944.52 C 247.52 940.05 236.43 930.29 224.54 922.37 C 210.72 913.10 197.09 903.48 184.48 892.60 C 177.29 886.09 169.93 879.27 165.65 870.40 C 163.90 867.16 164.82 863.02 167.31 860.43 C 172.65 854.69 178.26 848.92 185.33 845.31 Z" />
</g>
<g id="#f0b58bff">
<path fill="#f0b58b" opacity="1.00" d=" M 460.41 110.52 C 463.59 109.25 467.11 107.41 470.58 108.63 C 474.03 110.06 475.76 113.66 477.22 116.87 C 478.40 119.77 479.84 122.77 479.55 125.99 C 479.06 133.56 478.80 141.16 479.41 148.72 C 475.36 146.43 470.62 145.14 465.97 146.02 C 453.74 148.06 442.88 156.05 436.53 166.60 C 435.45 168.10 434.88 170.46 436.99 171.41 C 439.37 171.76 441.74 171.12 444.09 170.77 C 452.16 169.26 460.46 168.65 468.33 166.19 C 471.55 165.00 470.82 160.97 471.28 158.27 C 474.38 157.11 477.49 156.01 480.59 154.87 C 482.89 162.83 486.39 170.38 490.34 177.64 C 491.44 179.53 492.13 181.78 491.25 183.91 C 488.55 192.84 485.76 201.80 484.56 211.08 C 483.09 220.03 483.18 229.55 478.72 237.71 C 477.21 240.72 474.52 242.93 473.15 246.03 C 450.63 239.46 428.17 232.66 405.45 226.78 C 402.22 226.03 398.96 225.45 395.72 224.80 C 397.72 218.00 397.30 210.86 396.80 203.89 C 396.44 199.42 395.69 194.81 393.17 191.00 C 389.17 184.78 384.62 178.53 383.34 171.07 C 382.40 165.78 382.78 159.67 386.45 155.44 C 391.75 149.69 401.87 150.24 406.96 156.01 C 412.66 162.81 414.75 171.77 416.92 180.17 C 422.36 174.83 423.70 167.03 424.76 159.81 C 426.02 150.03 426.63 140.15 426.34 130.29 C 431.89 132.02 438.32 133.96 443.76 130.88 C 448.06 128.18 451.04 123.64 452.65 118.89 C 449.06 118.57 445.45 118.49 441.89 117.93 C 448.19 115.80 454.36 113.30 460.41 110.52 Z" />
<path fill="#f0b58b" opacity="1.00" d=" M 548.37 513.27 C 569.96 513.40 590.36 504.19 611.97 504.34 C 621.02 504.37 631.21 504.41 638.56 510.48 C 648.24 522.02 650.62 537.52 651.99 552.05 C 652.69 559.73 653.24 567.43 653.41 575.15 C 637.15 569.93 619.44 570.05 602.93 574.01 C 592.56 576.58 582.51 581.19 574.64 588.53 C 575.72 581.13 576.85 573.71 578.63 566.44 C 579.37 563.35 580.51 560.32 580.46 557.11 C 576.73 559.19 575.73 563.58 574.59 567.34 C 572.40 575.78 570.63 584.36 570.08 593.08 C 567.51 594.12 564.80 594.86 562.01 594.87 C 554.66 595.02 547.25 594.77 540.01 593.38 C 541.89 578.94 543.55 564.47 545.02 549.99 C 546.12 537.75 548.65 525.59 548.37 513.27 Z" />
<path fill="#f0b58b" opacity="1.00" d=" M 374.26 724.44 C 386.00 722.07 398.07 722.06 409.97 722.97 C 434.21 724.67 458.57 724.67 482.78 722.47 C 483.81 733.46 487.19 744.01 488.86 754.89 C 490.74 765.61 492.77 777.46 487.60 787.60 C 480.79 799.85 468.02 807.19 455.48 812.42 C 439.32 819.40 421.81 822.10 404.92 826.70 C 399.88 823.90 396.81 818.92 393.45 814.45 C 387.31 806.23 383.09 796.76 379.71 787.13 C 376.97 778.29 375.63 768.45 379.14 759.62 C 390.91 761.27 402.48 764.03 413.88 767.35 C 415.74 767.94 417.70 767.93 419.64 767.88 C 417.73 764.54 413.82 763.57 410.47 762.35 C 400.51 759.10 390.40 756.09 379.98 754.73 C 376.40 748.15 374.29 740.64 374.71 733.11 C 374.86 730.21 374.57 727.31 374.26 724.44 Z" />
</g>
<g id="#f35e11ff">
<path fill="var(--shirt-color, grey)" opacity="1.00" d=" M 739.13 208.65 C 750.24 208.10 761.02 205.15 772.07 204.15 C 772.99 210.98 772.81 217.95 774.24 224.72 C 775.82 231.45 777.94 238.04 780.12 244.60 C 742.13 256.72 703.01 265.17 665.42 278.60 C 661.79 279.85 658.20 281.22 654.56 282.42 C 680.90 259.89 709.57 239.73 732.44 213.44 C 734.32 211.40 735.95 208.46 739.13 208.65 Z" />
<path fill="var(--shirt-color, grey)" opacity="1.00" d=" M 353.55 233.47 C 357.48 230.75 361.95 228.14 366.90 228.21 C 375.95 228.07 385.00 228.87 393.89 230.59 C 407.16 233.13 419.93 237.63 432.96 241.11 C 452.52 246.49 471.71 253.74 492.00 255.98 C 507.25 258.29 522.65 256.18 537.77 253.95 C 529.96 258.17 520.57 259.91 514.07 266.25 C 519.62 266.20 524.48 263.29 529.57 261.49 C 536.83 258.46 544.39 256.07 551.35 252.34 C 553.60 251.34 556.14 251.34 558.55 251.02 C 544.77 260.06 531.63 270.58 515.89 276.10 C 507.52 279.47 498.69 281.28 489.86 282.87 C 491.68 284.92 494.39 285.43 497.02 285.09 C 507.32 284.15 517.12 280.40 526.72 276.73 C 537.61 272.35 547.10 265.29 556.56 258.47 C 561.90 254.66 567.30 250.73 573.54 248.51 C 582.29 245.12 591.69 243.96 600.96 242.92 C 603.81 242.54 606.68 242.86 609.50 243.33 C 611.87 252.88 615.84 261.93 620.43 270.60 C 625.07 278.81 629.91 287.26 637.50 293.13 C 622.58 301.83 607.24 309.77 592.03 317.96 C 574.01 327.38 555.58 336.41 535.97 342.04 C 524.89 345.27 513.25 344.35 501.90 345.52 C 476.34 347.75 450.64 348.06 425.01 347.23 C 409.42 346.84 393.86 345.54 378.42 343.36 C 374.37 342.85 370.45 341.51 366.36 341.29 C 364.73 343.37 367.72 344.89 369.36 345.59 C 377.68 348.47 386.50 349.54 395.17 350.85 C 406.01 352.27 416.86 353.60 427.76 354.48 C 415.00 358.95 402.02 362.77 389.42 367.67 C 379.15 371.85 368.86 375.99 358.31 379.41 C 356.99 381.79 360.40 381.72 361.91 381.51 C 366.42 380.78 370.74 379.23 375.08 377.83 C 395.06 371.10 414.75 363.54 434.75 356.86 C 440.19 354.83 446.06 354.68 451.80 354.99 C 438.61 361.15 426.17 368.81 414.68 377.73 C 399.42 389.39 384.61 402.09 366.96 410.04 C 363.88 411.30 360.64 412.22 357.82 414.03 C 362.56 416.17 367.63 413.99 372.04 412.07 C 382.84 407.08 392.77 400.45 402.52 393.70 C 418.15 382.49 432.87 369.78 450.22 361.20 C 456.53 358.28 462.80 354.27 469.98 354.25 C 483.06 353.43 496.15 352.55 509.20 351.30 C 497.50 363.92 490.17 379.73 483.49 395.39 C 476.03 411.80 470.49 429.11 467.55 446.91 C 465.28 458.59 462.91 470.28 461.82 482.14 C 461.16 490.77 461.50 499.46 460.34 508.06 C 459.46 514.62 459.62 521.86 455.38 527.38 C 452.43 532.18 446.71 533.87 441.65 535.45 C 430.99 538.46 420.00 540.48 408.93 540.94 C 407.27 541.13 405.79 540.31 404.41 539.53 C 395.96 534.51 387.58 529.32 379.96 523.08 C 372.41 517.21 365.59 509.84 356.25 506.84 C 344.18 503.03 331.33 504.69 318.93 505.29 C 313.18 505.91 307.41 505.25 301.65 505.31 C 304.27 508.73 308.84 509.36 312.87 509.51 C 326.21 509.99 339.93 507.94 352.90 512.02 C 360.48 514.31 366.39 519.79 372.46 524.58 C 380.56 531.10 389.18 537.01 398.49 541.67 C 386.19 542.34 374.04 544.55 362.09 547.47 C 351.90 550.01 341.55 552.07 331.07 552.86 C 321.05 553.69 310.98 552.12 300.97 553.24 C 286.72 554.66 273.16 559.79 258.99 561.60 C 257.42 560.14 255.88 558.66 254.39 557.14 C 255.04 552.22 256.34 547.31 259.16 543.16 C 263.35 536.86 268.35 530.90 274.65 526.63 C 275.71 525.89 276.59 524.94 277.46 524.00 C 274.19 522.51 270.84 524.12 268.29 526.23 C 263.49 529.98 259.38 534.51 255.44 539.13 C 257.21 526.68 259.81 514.38 261.96 501.99 C 266.18 477.59 275.05 454.29 279.30 429.89 C 282.07 416.73 287.52 404.38 291.83 391.69 C 296.57 377.37 300.75 362.86 304.26 348.19 C 308.07 331.16 311.27 313.97 316.21 297.22 C 320.30 284.06 325.31 271.11 332.05 259.06 C 337.50 249.27 344.84 240.52 353.55 233.47 Z" />
<path fill="var(--shirt-color, grey)" opacity="1.00" d=" M 541.15 241.66 C 566.31 236.40 592.09 234.79 617.18 229.15 C 615.58 232.71 613.94 236.25 612.45 239.86 C 603.37 238.51 594.18 239.72 585.11 240.56 C 572.74 242.40 560.54 245.33 548.07 246.57 C 533.75 247.93 519.55 251.13 505.09 250.66 C 517.11 247.68 529.04 244.28 541.15 241.66 Z" />
</g>
</svg>
