<?xml version="1.0" encoding="UTF-8" ?>
<!DOCTYPE svg PUBLIC "-//W3C//DTD SVG 1.1//EN" "http://www.w3.org/Graphics/SVG/1.1/DTD/svg11.dtd">
<svg width="1000pt" height="1000pt" viewBox="0 0 1000 1000" version="1.1" xmlns="http://www.w3.org/2000/svg">
<g id="#020202ff">
<path fill="#020202" opacity="1.00" d=" M 407.10 48.79 C 416.69 42.50 427.79 38.97 438.89 36.44 C 444.52 34.98 450.27 36.40 455.96 36.61 C 463.72 36.99 471.48 38.34 478.70 41.28 C 486.11 44.14 493.73 48.30 497.59 55.58 C 493.52 54.73 489.53 53.53 485.59 52.23 C 496.90 58.07 506.66 66.41 515.72 75.26 C 519.27 78.77 523.33 82.20 524.86 87.14 C 526.51 92.54 527.50 98.30 527.00 103.95 C 526.19 107.83 521.50 106.67 518.71 106.35 C 519.02 114.63 519.21 122.93 519.92 131.19 C 520.57 136.55 521.61 142.38 525.58 146.37 C 526.85 147.95 529.12 149.41 528.65 151.75 C 527.21 159.59 518.57 163.31 517.07 171.11 C 515.10 178.99 513.23 187.42 507.39 193.47 C 501.24 200.83 490.99 202.26 481.97 202.53 C 473.61 203.00 465.87 199.45 458.27 196.48 C 456.23 206.94 458.30 217.45 459.87 227.80 C 462.93 230.46 466.98 230.91 470.62 232.31 C 476.39 236.18 481.21 241.75 483.68 248.29 C 486.62 255.79 487.73 263.92 487.40 271.95 C 486.88 287.29 485.28 302.57 484.76 317.91 C 484.03 342.80 483.28 367.71 484.45 392.59 C 484.42 409.36 485.03 426.15 484.06 442.90 C 493.76 440.40 503.06 436.61 512.64 433.70 C 518.32 432.22 524.61 430.60 530.30 432.86 C 535.44 435.16 536.04 442.15 533.64 446.66 C 531.19 451.83 525.98 454.76 520.98 456.99 C 532.58 456.78 545.11 456.48 555.48 462.49 C 558.73 464.20 561.93 468.04 559.93 471.85 C 556.94 477.43 550.34 479.40 544.56 480.64 C 552.26 482.09 559.78 486.22 563.96 493.01 C 565.86 496.06 565.90 500.59 562.90 502.97 C 558.75 506.19 553.12 505.63 548.18 505.62 C 553.82 509.10 559.87 512.84 563.17 518.80 C 565.01 521.81 562.79 525.62 559.55 526.33 C 553.81 527.67 547.86 526.59 542.11 525.85 C 531.19 524.41 520.91 520.29 510.61 516.60 C 513.92 520.56 517.07 524.66 520.71 528.34 C 524.44 532.27 528.00 537.35 527.43 543.04 C 526.39 548.01 520.45 548.39 516.37 548.61 C 528.23 563.28 538.95 578.84 549.60 594.40 C 553.53 600.99 559.13 606.40 562.72 613.21 C 566.88 621.11 573.69 627.09 578.45 634.57 C 586.07 645.69 594.36 657.01 597.23 670.45 C 598.47 676.53 599.03 683.01 596.89 688.97 C 594.56 696.60 588.57 702.43 586.14 710.03 C 582.72 720.34 583.16 731.35 582.42 742.05 C 579.38 778.80 568.56 814.21 559.97 849.89 C 556.70 863.17 554.36 876.65 551.96 890.11 C 550.27 899.28 548.48 908.50 545.13 917.24 C 549.10 920.80 552.59 925.02 557.40 927.52 C 562.97 930.48 568.80 932.91 574.63 935.32 C 586.44 940.27 599.21 942.32 611.15 946.91 C 617.56 949.51 623.67 953.99 626.26 960.64 C 627.42 964.09 628.29 968.15 626.52 971.57 C 624.01 976.15 619.33 979.16 614.41 980.61 C 601.76 984.50 588.35 983.97 575.28 983.71 C 561.45 983.01 547.67 981.38 533.93 979.66 C 521.21 977.69 507.87 974.70 497.79 966.19 C 490.49 959.35 485.96 948.95 488.33 938.91 C 480.42 943.96 471.66 948.97 461.95 948.64 C 455.13 948.73 448.25 945.02 444.95 939.00 C 441.86 932.37 443.20 924.57 446.12 918.12 C 449.05 911.05 454.58 905.62 459.34 899.80 C 453.01 877.76 454.59 854.49 456.90 831.97 C 459.84 810.16 464.10 788.49 470.25 767.35 C 474.61 750.40 481.04 734.08 488.18 718.13 C 491.24 710.32 494.05 701.73 491.84 693.32 C 489.87 684.07 483.50 676.64 476.50 670.65 C 471.12 676.56 464.26 682.01 456.01 682.72 C 451.79 682.87 451.24 677.85 450.38 674.79 C 447.56 661.43 442.54 648.69 436.80 636.34 C 426.26 631.55 415.30 627.61 405.30 621.70 C 394.91 615.84 385.15 608.79 376.91 600.13 C 364.77 588.20 356.73 573.01 348.97 558.07 C 344.13 548.53 340.13 538.59 336.44 528.57 C 334.45 523.58 334.39 518.01 331.80 513.24 C 325.86 501.04 324.01 487.15 325.81 473.75 C 326.85 464.64 329.77 455.91 331.70 446.99 C 332.31 444.05 329.58 442.08 328.07 439.97 C 322.94 434.07 321.56 426.06 320.74 418.54 C 319.84 406.26 319.26 393.80 321.41 381.60 C 322.88 373.40 324.69 365.26 326.68 357.17 C 330.87 339.23 328.51 320.64 330.92 302.49 C 333.83 278.93 339.19 255.11 351.49 234.52 C 354.91 228.82 359.28 223.76 364.00 219.10 C 369.98 213.06 375.83 206.86 382.23 201.25 C 383.62 199.97 385.16 198.76 386.10 197.09 C 388.98 191.69 391.12 185.90 392.25 179.88 C 388.55 172.95 388.75 164.66 391.34 157.40 C 386.54 158.28 381.83 155.33 380.51 150.65 C 377.51 140.36 379.55 129.55 379.51 119.04 C 380.16 113.88 373.59 113.29 371.95 109.19 C 369.54 103.55 371.68 97.30 373.58 91.83 C 377.07 82.53 384.31 75.32 391.64 68.92 C 389.55 69.27 386.75 71.83 385.42 69.00 C 386.41 66.09 388.80 63.99 390.97 61.93 C 396.91 56.65 403.67 52.35 410.71 48.69 C 409.81 48.71 408.00 48.77 407.10 48.79 M 487.08 115.46 C 482.04 116.47 477.02 114.95 471.98 115.03 C 467.08 115.90 463.71 120.25 461.25 124.26 C 456.52 133.30 457.23 143.87 456.36 153.74 C 449.64 149.53 452.49 139.92 447.49 134.44 C 445.20 132.00 441.55 129.50 438.15 131.18 C 432.45 133.37 430.73 139.86 428.83 145.04 C 426.17 153.87 423.66 162.89 418.79 170.81 C 416.93 173.63 414.72 176.35 411.81 178.14 C 410.43 178.81 409.35 178.49 408.58 177.17 C 408.32 172.28 408.82 167.37 408.35 162.49 C 406.09 165.50 403.51 168.29 400.35 170.38 C 398.86 177.65 397.69 185.08 394.75 191.95 C 398.76 190.95 402.95 190.41 407.08 191.06 C 418.04 192.61 429.11 196.11 437.74 203.28 C 443.87 208.26 448.28 214.91 453.22 220.99 C 452.02 212.63 450.99 203.99 452.92 195.66 C 453.36 193.24 455.26 190.69 458.02 191.10 C 461.93 191.56 465.42 193.59 469.19 194.62 C 477.40 197.39 486.39 196.81 494.63 194.47 C 500.07 193.12 504.17 188.67 506.80 183.92 C 509.89 177.98 510.28 171.10 513.04 165.04 C 515.31 159.90 520.26 156.73 523.03 151.91 C 513.80 144.92 513.99 132.15 514.16 121.71 C 512.11 122.30 510.05 122.88 508.00 123.44 C 507.62 125.44 508.20 128.64 505.56 129.22 C 499.46 130.16 493.20 129.95 487.07 129.64 C 484.70 129.67 482.91 126.75 484.93 125.00 C 491.45 116.43 504.25 109.64 514.53 115.69 C 514.77 112.07 514.96 108.44 515.01 104.82 C 513.64 104.21 512.27 103.61 510.91 103.01 C 502.95 107.12 496.23 114.04 487.08 115.46 M 381.77 208.80 C 375.47 213.68 372.46 221.29 369.60 228.45 C 362.09 249.09 363.46 271.74 368.03 292.87 C 369.06 297.75 371.08 302.35 372.28 307.19 C 369.97 305.27 368.02 302.90 367.04 300.03 C 363.37 290.13 362.10 279.54 360.91 269.11 C 359.14 253.41 361.40 237.24 367.83 222.78 C 365.47 225.83 363.40 229.09 361.38 232.38 C 358.91 236.43 355.81 240.30 354.95 245.10 C 353.12 253.93 351.99 262.95 352.03 271.98 C 351.94 277.14 353.24 282.23 352.79 287.39 C 350.74 284.65 349.44 281.43 349.03 278.03 C 347.71 268.76 348.19 259.32 349.12 250.04 C 345.30 258.69 342.52 267.75 340.62 277.01 C 337.60 290.81 335.40 304.86 335.19 319.01 C 335.08 332.39 335.50 345.93 332.61 359.08 C 330.75 367.33 328.80 375.55 327.41 383.89 C 325.72 394.16 326.07 404.60 326.67 414.94 C 327.13 420.75 327.50 427.05 331.23 431.83 C 336.57 438.80 344.81 442.58 352.39 446.56 C 369.09 454.44 386.55 461.21 404.87 464.08 C 418.84 467.02 432.30 471.92 445.56 477.12 C 446.75 464.64 453.90 453.68 462.38 444.82 C 453.33 440.58 444.03 436.87 434.56 433.68 C 429.51 432.01 424.24 430.90 419.45 428.51 C 410.79 424.29 403.70 417.61 395.73 412.31 C 387.61 406.88 379.00 401.76 369.41 399.48 C 365.16 398.42 360.78 399.00 356.48 399.27 C 357.15 397.49 358.01 395.52 360.05 395.00 C 366.41 392.84 373.24 394.62 379.39 396.66 C 378.87 391.81 378.55 386.91 379.03 382.04 C 379.88 373.10 380.90 363.94 384.73 355.70 C 389.01 346.40 394.63 337.68 397.76 327.88 C 401.39 316.37 402.67 304.33 404.73 292.49 C 405.15 289.91 406.01 287.42 407.10 285.04 C 409.89 287.61 408.46 291.55 408.32 294.81 C 406.87 305.11 406.15 315.55 403.78 325.70 C 401.74 334.61 397.34 342.69 393.16 350.74 C 398.60 344.95 404.07 339.13 408.65 332.62 C 413.77 325.31 418.24 317.57 423.27 310.20 C 424.38 308.55 425.84 307.19 427.36 305.92 C 427.40 307.32 427.94 308.86 427.26 310.22 C 425.34 314.47 422.67 318.33 420.32 322.35 C 416.26 328.87 412.68 335.74 407.73 341.66 C 402.00 348.60 395.08 354.46 389.39 361.44 C 387.73 363.49 386.22 365.76 385.67 368.38 C 383.52 378.15 382.74 388.19 383.08 398.18 C 388.40 400.62 393.56 403.39 398.43 406.64 C 402.04 409.27 406.57 410.32 410.99 410.26 C 420.95 409.75 429.18 403.41 437.44 398.50 C 438.94 397.82 440.55 396.13 442.29 397.14 C 442.87 399.22 440.89 400.42 439.58 401.62 C 430.84 408.29 421.01 415.49 409.37 414.45 C 415.68 418.76 422.02 423.33 429.48 425.43 C 443.07 429.40 456.09 435.25 467.96 442.98 C 471.44 445.65 475.93 444.27 479.91 443.96 C 479.77 428.97 479.90 413.98 479.71 398.99 C 479.39 385.65 478.46 372.33 478.56 358.98 C 478.84 345.86 478.86 332.72 479.49 319.60 C 473.34 338.79 463.74 356.62 454.31 374.35 C 451.31 379.30 448.91 385.19 443.46 387.96 C 444.05 382.64 447.45 378.37 449.72 373.70 C 457.48 358.57 465.20 343.38 471.56 327.59 C 475.93 316.81 478.20 305.35 480.08 293.92 C 481.94 283.04 483.22 271.89 481.90 260.87 C 480.81 253.87 478.74 246.57 473.66 241.38 C 471.68 239.41 469.80 236.96 466.96 236.28 C 463.70 235.46 460.45 234.33 457.86 232.11 C 447.71 224.25 442.24 211.75 431.36 204.69 C 422.42 198.89 411.64 195.74 401.00 195.82 C 392.49 196.03 387.72 203.94 381.77 208.80 M 496.64 444.67 C 487.19 447.33 476.87 451.76 467.14 447.89 C 458.63 456.33 451.56 466.71 449.21 478.64 C 454.54 481.45 459.87 484.53 463.91 489.10 C 472.62 498.81 478.61 510.50 485.56 521.44 C 488.75 526.43 492.64 531.11 497.75 534.24 C 505.04 538.78 513.23 543.22 522.14 542.17 C 521.39 540.23 520.82 538.20 519.64 536.48 C 514.32 529.00 507.94 522.31 503.21 514.43 C 498.86 511.36 492.77 510.62 489.49 506.01 C 489.69 505.55 490.09 504.64 490.29 504.18 C 494.23 504.34 497.79 506.46 501.57 507.47 C 520.35 513.22 538.88 522.16 558.99 521.07 C 557.03 518.07 554.69 515.32 551.81 513.18 C 546.48 509.09 540.80 504.86 533.98 503.83 C 522.77 501.85 511.74 498.86 501.08 494.88 C 498.26 493.67 493.93 492.67 494.35 488.71 C 499.93 490.15 505.41 491.94 511.06 493.08 C 523.58 495.71 536.09 498.75 548.89 499.67 C 552.46 499.79 556.31 500.25 559.64 498.64 C 560.68 497.12 559.58 495.50 558.78 494.18 C 555.46 489.34 550.18 486.09 544.59 484.55 C 540.14 483.39 535.68 481.75 531.02 482.04 C 523.26 482.42 515.49 481.64 507.90 480.09 C 504.83 479.43 501.56 479.01 498.91 477.20 C 499.04 476.74 499.32 475.83 499.45 475.37 C 504.29 474.92 509.13 475.68 513.96 475.83 C 523.32 476.42 532.76 476.36 542.06 474.96 C 545.94 474.34 549.95 473.46 553.21 471.13 C 554.09 470.44 555.34 469.69 554.77 468.38 C 551.32 465.10 546.62 463.57 542.06 462.63 C 532.81 460.80 523.33 461.15 513.96 461.02 C 507.78 460.65 501.78 463.38 495.62 461.98 C 497.14 460.45 499.06 459.46 501.17 459.00 C 508.36 457.19 514.98 453.76 521.76 450.86 C 526.00 448.92 530.53 445.10 530.08 439.97 C 529.95 436.96 526.44 436.47 524.10 436.65 C 514.44 437.23 505.74 441.84 496.64 444.67 M 338.42 445.64 C 337.12 453.92 334.37 461.88 332.77 470.11 C 331.22 477.64 330.82 485.38 331.34 493.05 C 331.88 500.84 334.50 508.28 337.07 515.60 C 345.10 507.57 356.00 503.60 365.23 497.24 C 366.68 496.06 371.35 494.18 369.81 497.84 C 366.97 501.88 362.35 504.16 358.72 507.41 C 379.16 499.33 400.43 493.40 421.97 489.13 C 431.05 487.91 440.22 486.80 448.91 483.76 C 444.78 480.90 439.66 480.63 435.05 478.98 C 428.03 476.58 420.88 474.64 413.86 472.27 C 403.73 468.82 393.20 466.78 382.95 463.77 C 387.91 471.16 387.08 480.92 383.78 488.80 C 383.27 490.34 380.52 492.82 379.91 490.01 C 381.07 483.01 383.43 475.49 380.38 468.62 C 378.88 465.75 377.37 462.10 373.86 461.34 C 361.46 457.61 349.38 452.57 338.42 445.64 M 561.19 619.39 C 558.54 623.87 555.64 628.22 552.21 632.14 C 540.41 645.81 526.97 658.11 512.00 668.24 C 521.30 675.49 523.25 688.07 523.65 699.12 C 530.79 702.83 538.85 704.10 546.75 705.04 C 556.45 706.00 566.30 706.35 575.99 705.06 C 578.56 704.57 581.42 704.26 583.54 702.57 C 589.69 694.82 593.50 684.99 593.34 675.05 C 591.47 661.00 582.66 649.34 575.09 637.83 C 571.05 631.23 565.48 625.80 561.19 619.39 M 478.75 668.20 C 485.28 672.62 490.99 678.55 494.18 685.84 C 495.52 688.63 496.15 691.70 497.33 694.56 C 504.43 698.55 514.61 693.92 516.43 686.03 C 515.54 680.18 512.65 674.82 508.84 670.37 C 504.71 672.69 500.77 675.80 495.96 676.48 C 490.72 673.13 486.49 668.42 481.81 664.35 C 480.79 665.63 479.77 666.91 478.75 668.20 M 463.80 902.47 C 460.04 908.47 454.85 913.56 452.08 920.17 C 449.82 925.21 448.08 931.24 450.46 936.56 C 453.36 941.51 459.57 943.41 465.03 942.66 C 474.67 941.96 482.04 934.98 490.87 931.92 C 492.60 928.62 494.32 925.33 496.07 922.05 C 493.98 914.32 492.18 906.50 491.45 898.52 C 482.82 902.66 473.14 902.46 463.80 902.47 M 522.06 925.81 C 514.46 926.32 506.78 926.58 499.24 925.27 C 496.30 932.70 491.98 940.38 493.56 948.65 C 495.36 955.68 499.87 962.15 506.35 965.60 C 518.97 972.73 533.75 974.08 547.88 975.68 C 564.84 977.68 581.95 978.93 599.02 977.90 C 604.89 977.40 610.88 976.69 616.35 974.37 C 619.06 973.02 622.01 970.97 622.68 967.83 C 623.28 961.35 618.57 955.68 613.07 952.91 C 606.46 949.53 599.12 948.00 592.04 945.97 C 579.48 942.93 567.51 937.93 555.97 932.21 C 550.61 929.63 546.82 924.95 542.85 920.70 C 536.40 923.92 529.20 925.28 522.06 925.81 Z" />
</g>
<g id="#f0b58bff">
<path fill="#f0b58b" opacity="1.00" d=" M 487.08 115.46 C 496.23 114.04 502.95 107.12 510.91 103.01 C 512.27 103.61 513.64 104.21 515.01 104.82 C 514.96 108.44 514.77 112.07 514.53 115.69 C 504.25 109.64 491.45 116.43 484.93 125.00 C 482.91 126.75 484.70 129.67 487.07 129.64 C 493.20 129.95 499.46 130.16 505.56 129.22 C 508.20 128.64 507.62 125.44 508.00 123.44 C 510.05 122.88 512.11 122.30 514.16 121.71 C 513.99 132.15 513.80 144.92 523.03 151.91 C 520.26 156.73 515.31 159.90 513.04 165.04 C 510.28 171.10 509.89 177.98 506.80 183.92 C 504.17 188.67 500.07 193.12 494.63 194.47 C 486.39 196.81 477.40 197.39 469.19 194.62 C 465.42 193.59 461.93 191.56 458.02 191.10 C 455.26 190.69 453.36 193.24 452.92 195.66 C 450.99 203.99 452.02 212.63 453.22 220.99 C 448.28 214.91 443.87 208.26 437.74 203.28 C 429.11 196.11 418.04 192.61 407.08 191.06 C 402.95 190.41 398.76 190.95 394.75 191.95 C 397.69 185.08 398.86 177.65 400.35 170.38 C 403.51 168.29 406.09 165.50 408.35 162.49 C 408.82 167.37 408.32 172.28 408.58 177.17 C 409.35 178.49 410.43 178.81 411.81 178.14 C 414.72 176.35 416.93 173.63 418.79 170.81 C 423.66 162.89 426.17 153.87 428.83 145.04 C 430.73 139.86 432.45 133.37 438.15 131.18 C 441.55 129.50 445.20 132.00 447.49 134.44 C 452.49 139.92 449.64 149.53 456.36 153.74 C 457.23 143.87 456.52 133.30 461.25 124.26 C 463.71 120.25 467.08 115.90 471.98 115.03 C 477.02 114.95 482.04 116.47 487.08 115.46 Z" />
<path fill="#f0b58b" opacity="1.00" d=" M 561.19 619.39 C 565.48 625.80 571.05 631.23 575.09 637.83 C 582.66 649.34 591.47 661.00 593.34 675.05 C 593.50 684.99 589.69 694.82 583.54 702.57 C 581.42 704.26 578.56 704.57 575.99 705.06 C 566.30 706.35 556.45 706.00 546.75 705.04 C 538.85 704.10 530.79 702.83 523.65 699.12 C 523.25 688.07 521.30 675.49 512.00 668.24 C 526.97 658.11 540.41 645.81 552.21 632.14 C 555.64 628.22 558.54 623.87 561.19 619.39 Z" />
<path fill="#f0b58b" opacity="1.00" d=" M 478.75 668.20 C 479.77 666.91 480.79 665.63 481.81 664.35 C 486.49 668.42 490.72 673.13 495.96 676.48 C 500.77 675.80 504.71 672.69 508.84 670.37 C 512.65 674.82 515.54 680.18 516.43 686.03 C 514.61 693.92 504.43 698.55 497.33 694.56 C 496.15 691.70 495.52 688.63 494.18 685.84 C 490.99 678.55 485.28 672.62 478.75 668.20 Z" />
</g>
<g id="#f35e11ff">
<path fill="var(--shirt-color, grey)" opacity="1.00" d=" M 381.77 208.80 C 387.72 203.94 392.49 196.03 401.00 195.82 C 411.64 195.74 422.42 198.89 431.36 204.69 C 442.24 211.75 447.71 224.25 457.86 232.11 C 460.45 234.33 463.70 235.46 466.96 236.28 C 469.80 236.96 471.68 239.41 473.66 241.38 C 478.74 246.57 480.81 253.87 481.90 260.87 C 483.22 271.89 481.94 283.04 480.08 293.92 C 478.20 305.35 475.93 316.81 471.56 327.59 C 465.20 343.38 457.48 358.57 449.72 373.70 C 447.45 378.37 444.05 382.64 443.46 387.96 C 448.91 385.19 451.31 379.30 454.31 374.35 C 463.74 356.62 473.34 338.79 479.49 319.60 C 478.86 332.72 478.84 345.86 478.56 358.98 C 478.46 372.33 479.39 385.65 479.71 398.99 C 479.90 413.98 479.77 428.97 479.91 443.96 C 475.93 444.27 471.44 445.65 467.96 442.98 C 456.09 435.25 443.07 429.40 429.48 425.43 C 422.02 423.33 415.68 418.76 409.37 414.45 C 421.01 415.49 430.84 408.29 439.58 401.62 C 440.89 400.42 442.87 399.22 442.29 397.14 C 440.55 396.13 438.94 397.82 437.44 398.50 C 429.18 403.41 420.95 409.75 410.99 410.26 C 406.57 410.32 402.04 409.27 398.43 406.64 C 393.56 403.39 388.40 400.62 383.08 398.18 C 382.74 388.19 383.52 378.15 385.67 368.38 C 386.22 365.76 387.73 363.49 389.39 361.44 C 395.08 354.46 402.00 348.60 407.73 341.66 C 412.68 335.74 416.26 328.87 420.32 322.35 C 422.67 318.33 425.34 314.47 427.26 310.22 C 427.94 308.86 427.40 307.32 427.36 305.92 C 425.84 307.19 424.38 308.55 423.27 310.20 C 418.24 317.57 413.77 325.31 408.65 332.62 C 404.07 339.13 398.60 344.95 393.16 350.74 C 397.34 342.69 401.74 334.61 403.78 325.70 C 406.15 315.55 406.87 305.11 408.32 294.81 C 408.46 291.55 409.89 287.61 407.10 285.04 C 406.01 287.42 405.15 289.91 404.73 292.49 C 402.67 304.33 401.39 316.37 397.76 327.88 C 394.63 337.68 389.01 346.40 384.73 355.70 C 380.90 363.94 379.88 373.10 379.03 382.04 C 378.55 386.91 378.87 391.81 379.39 396.66 C 373.24 394.62 366.41 392.84 360.05 395.00 C 358.01 395.52 357.15 397.49 356.48 399.27 C 360.78 399.00 365.16 398.42 369.41 399.48 C 379.00 401.76 387.61 406.88 395.73 412.31 C 403.70 417.61 410.79 424.29 419.45 428.51 C 424.24 430.90 429.51 432.01 434.56 433.68 C 444.03 436.87 453.33 440.58 462.38 444.82 C 453.90 453.68 446.75 464.64 445.56 477.12 C 432.30 471.92 418.84 467.02 404.87 464.08 C 386.55 461.21 369.09 454.44 352.39 446.56 C 344.81 442.58 336.57 438.80 331.23 431.83 C 327.50 427.05 327.13 420.75 326.67 414.94 C 326.07 404.60 325.72 394.16 327.41 383.89 C 328.80 375.55 330.75 367.33 332.61 359.08 C 335.50 345.93 335.08 332.39 335.19 319.01 C 335.40 304.86 337.60 290.81 340.62 277.01 C 342.52 267.75 345.30 258.69 349.12 250.04 C 348.19 259.32 347.71 268.76 349.03 278.03 C 349.44 281.43 350.74 284.65 352.79 287.39 C 353.24 282.23 351.94 277.14 352.03 271.98 C 351.99 262.95 353.12 253.93 354.95 245.10 C 355.81 240.30 358.91 236.43 361.38 232.38 C 363.40 229.09 365.47 225.83 367.83 222.78 C 361.40 237.24 359.14 253.41 360.91 269.11 C 362.10 279.54 363.37 290.13 367.04 300.03 C 368.02 302.90 369.97 305.27 372.28 307.19 C 371.08 302.35 369.06 297.75 368.03 292.87 C 363.46 271.74 362.09 249.09 369.60 228.45 C 372.46 221.29 375.47 213.68 381.77 208.80 Z" />
<path fill="var(--shirt-color, grey)" opacity="1.00" d=" M 338.42 445.64 C 349.38 452.57 361.46 457.61 373.86 461.34 C 377.37 462.10 378.88 465.75 380.38 468.62 C 383.43 475.49 381.07 483.01 379.91 490.01 C 380.52 492.82 383.27 490.34 383.78 488.80 C 387.08 480.92 387.91 471.16 382.95 463.77 C 393.20 466.78 403.73 468.82 413.86 472.27 C 420.88 474.64 428.03 476.58 435.05 478.98 C 439.66 480.63 444.78 480.90 448.91 483.76 C 440.22 486.80 431.05 487.91 421.97 489.13 C 400.43 493.40 379.16 499.33 358.72 507.41 C 362.35 504.16 366.97 501.88 369.81 497.84 C 371.35 494.18 366.68 496.06 365.23 497.24 C 356.00 503.60 345.10 507.57 337.07 515.60 C 334.50 508.28 331.88 500.84 331.34 493.05 C 330.82 485.38 331.22 477.64 332.77 470.11 C 334.37 461.88 337.12 453.92 338.42 445.64 Z" />
</g>
<g id="#4d4d4dff">
<path fill="#4d4d4d" opacity="1.00" d=" M 496.64 444.67 C 505.74 441.84 514.44 437.23 524.10 436.65 C 526.44 436.47 529.95 436.96 530.08 439.97 C 530.53 445.10 526.00 448.92 521.76 450.86 C 514.98 453.76 508.36 457.19 501.17 459.00 C 499.06 459.46 497.14 460.45 495.62 461.98 C 501.78 463.38 507.78 460.65 513.96 461.02 C 523.33 461.15 532.81 460.80 542.06 462.63 C 546.62 463.57 551.32 465.10 554.77 468.38 C 555.34 469.69 554.09 470.44 553.21 471.13 C 549.95 473.46 545.94 474.34 542.06 474.96 C 532.76 476.36 523.32 476.42 513.96 475.83 C 509.13 475.68 504.29 474.92 499.45 475.37 C 499.32 475.83 499.04 476.74 498.91 477.20 C 501.56 479.01 504.83 479.43 507.90 480.09 C 515.49 481.64 523.26 482.42 531.02 482.04 C 535.68 481.75 540.14 483.39 544.59 484.55 C 550.18 486.09 555.46 489.34 558.78 494.18 C 559.58 495.50 560.68 497.12 559.64 498.64 C 556.31 500.25 552.46 499.79 548.89 499.67 C 536.09 498.75 523.58 495.71 511.06 493.08 C 505.41 491.94 499.93 490.15 494.35 488.71 C 493.93 492.67 498.26 493.67 501.08 494.88 C 511.74 498.86 522.77 501.85 533.98 503.83 C 540.80 504.86 546.48 509.09 551.81 513.18 C 554.69 515.32 557.03 518.07 558.99 521.07 C 538.88 522.16 520.35 513.22 501.57 507.47 C 497.79 506.46 494.23 504.34 490.29 504.18 C 490.09 504.64 489.69 505.55 489.49 506.01 C 492.77 510.62 498.86 511.36 503.21 514.43 C 507.94 522.31 514.32 529.00 519.64 536.48 C 520.82 538.20 521.39 540.23 522.14 542.17 C 513.23 543.22 505.04 538.78 497.75 534.24 C 492.64 531.11 488.75 526.43 485.56 521.44 C 478.61 510.50 472.62 498.81 463.91 489.10 C 459.87 484.53 454.54 481.45 449.21 478.64 C 451.56 466.71 458.63 456.33 467.14 447.89 C 476.87 451.76 487.19 447.33 496.64 444.67 Z" />
<path fill="#4d4d4d" opacity="1.00" d=" M 463.80 902.47 C 473.14 902.46 482.82 902.66 491.45 898.52 C 492.18 906.50 493.98 914.32 496.07 922.05 C 494.32 925.33 492.60 928.62 490.87 931.92 C 482.04 934.98 474.67 941.96 465.03 942.66 C 459.57 943.41 453.36 941.51 450.46 936.56 C 448.08 931.24 449.82 925.21 452.08 920.17 C 454.85 913.56 460.04 908.47 463.80 902.47 Z" />
<path fill="#4d4d4d" opacity="1.00" d=" M 522.06 925.81 C 529.20 925.28 536.40 923.92 542.85 920.70 C 546.82 924.95 550.61 929.63 555.97 932.21 C 567.51 937.93 579.48 942.93 592.04 945.97 C 599.12 948.00 606.46 949.53 613.07 952.91 C 618.57 955.68 623.28 961.35 622.68 967.83 C 622.01 970.97 619.06 973.02 616.35 974.37 C 610.88 976.69 604.89 977.40 599.02 977.90 C 581.95 978.93 564.84 977.68 547.88 975.68 C 533.75 974.08 518.97 972.73 506.35 965.60 C 499.87 962.15 495.36 955.68 493.56 948.65 C 491.98 940.38 496.30 932.70 499.24 925.27 C 506.78 926.58 514.46 926.32 522.06 925.81 Z" />
</g>
</svg>
