<?xml version="1.0" encoding="UTF-8" ?>
<!DOCTYPE svg PUBLIC "-//W3C//DTD SVG 1.1//EN" "http://www.w3.org/Graphics/SVG/1.1/DTD/svg11.dtd">
<svg width="1000pt" height="1000pt" viewBox="0 0 1000 1000" version="1.1" xmlns="http://www.w3.org/2000/svg">
<g id="#020202ff">
<path fill="#020202" opacity="1.00" d=" M 524.42 32.12 C 525.86 26.79 529.14 20.97 534.99 19.74 C 539.22 18.95 541.86 22.93 543.34 26.25 C 545.25 23.16 547.80 19.28 551.98 19.70 C 557.82 20.65 560.56 26.70 562.64 31.56 C 564.71 28.12 567.52 24.15 571.98 24.05 C 576.83 23.86 579.96 28.53 581.30 32.63 C 583.42 39.93 582.74 47.70 581.78 55.14 C 583.83 53.65 586.13 51.39 588.92 52.40 C 592.39 53.59 593.88 57.56 594.01 60.96 C 594.15 76.01 590.19 90.66 586.02 104.99 C 583.14 115.79 578.70 126.20 572.16 135.30 C 575.21 140.69 576.73 146.72 578.56 152.58 C 583.84 171.54 588.44 190.70 592.53 209.96 C 597.27 231.30 595.68 253.31 595.16 274.97 C 593.68 302.04 592.61 329.17 589.43 356.10 C 589.13 363.29 590.91 370.35 592.79 377.22 C 596.44 390.54 602.66 402.93 607.01 416.01 C 613.55 435.12 617.81 454.95 620.74 474.91 C 623.65 495.28 624.70 516.02 622.14 536.48 C 621.33 541.93 621.55 548.90 616.32 552.26 C 607.69 557.24 597.63 558.72 587.99 560.60 C 590.32 600.82 585.94 640.97 583.00 681.04 C 582.73 684.19 581.95 688.74 578.05 689.15 C 572.13 688.53 567.37 684.58 562.50 681.53 C 560.90 693.04 557.09 704.24 551.35 714.35 C 546.91 721.87 542.46 729.43 537.36 736.53 C 534.39 740.82 530.04 744.41 528.75 749.67 C 525.77 761.34 523.60 773.23 519.85 784.70 C 512.96 804.38 513.45 825.50 511.16 845.98 C 509.63 865.28 510.82 885.00 505.95 903.91 C 504.19 910.22 501.97 916.52 498.17 921.92 C 500.92 923.30 503.51 925.10 505.29 927.67 C 510.10 934.10 515.13 940.69 522.18 944.82 C 528.74 948.68 535.70 952.49 540.17 958.88 C 543.86 963.93 546.77 970.86 543.90 976.97 C 541.73 982.48 535.87 985.81 530.06 985.69 C 520.86 985.55 511.96 982.63 503.37 979.54 C 493.50 975.73 483.19 972.63 474.32 966.70 C 465.80 961.11 456.79 955.74 450.27 947.75 C 446.20 942.81 444.60 935.51 447.70 929.68 C 451.98 921.25 461.22 916.95 470.02 914.89 C 468.68 908.10 467.81 901.24 467.27 894.35 C 456.60 890.88 444.88 890.03 435.31 883.76 C 428.99 879.81 424.01 873.90 420.78 867.23 C 417.98 861.40 419.26 854.18 423.19 849.18 C 428.78 841.94 437.08 836.27 446.42 835.70 C 445.26 814.36 447.17 792.43 455.56 772.58 C 460.02 763.40 466.27 754.49 475.36 749.42 C 474.92 740.15 474.70 730.82 475.95 721.60 C 472.64 721.23 468.80 721.34 466.44 718.57 C 460.24 711.98 454.74 704.76 449.28 697.56 C 446.66 694.30 446.41 689.97 445.90 685.99 C 443.45 665.42 442.72 644.63 444.34 623.96 C 445.78 599.23 448.15 573.97 457.98 550.95 C 458.97 548.78 458.78 546.34 458.93 544.02 C 459.24 534.54 462.03 525.33 465.64 516.63 C 468.97 508.39 472.74 500.06 473.22 491.05 C 473.69 483.06 473.51 475.06 473.74 467.07 C 474.13 451.88 472.03 436.78 469.41 421.86 C 467.29 412.27 463.42 403.20 459.98 394.04 C 455.35 379.53 459.30 364.20 464.84 350.54 C 455.73 351.17 446.00 351.75 437.60 347.49 C 435.56 346.43 432.96 344.77 433.29 342.11 C 433.78 339.55 436.19 338.03 437.84 336.23 C 422.34 332.08 410.37 319.60 403.36 305.59 C 398.41 295.10 396.21 282.93 398.50 271.47 C 399.25 271.57 400.74 271.77 401.48 271.86 C 404.06 265.58 409.14 261.01 414.53 257.12 C 413.19 249.74 412.93 241.61 416.92 234.94 C 420.45 229.08 424.46 222.82 431.01 220.03 C 440.30 215.95 450.79 216.86 460.50 218.70 C 463.16 219.34 467.04 219.53 467.16 223.11 C 473.90 223.81 480.81 224.91 486.62 228.67 C 487.08 221.13 487.57 213.59 487.34 206.04 C 487.04 196.83 488.22 187.68 488.89 178.51 C 485.81 172.00 483.66 165.09 480.47 158.63 C 473.92 144.71 465.33 131.39 462.56 116.03 C 461.97 111.74 461.27 106.18 465.19 103.19 C 468.16 100.81 472.13 101.89 475.25 103.36 C 473.10 95.76 471.81 87.88 471.70 79.98 C 471.77 76.76 471.89 73.36 473.40 70.43 C 474.73 67.73 478.28 66.63 480.98 67.90 C 484.60 69.43 486.92 72.79 489.09 75.91 C 489.85 73.33 490.34 70.04 493.18 68.89 C 495.38 67.68 497.85 68.69 500.08 69.22 C 499.69 64.86 499.41 59.29 503.47 56.47 C 507.45 54.18 512.97 54.62 516.48 57.65 C 518.64 59.39 520.30 61.65 521.98 63.83 C 521.76 53.24 521.67 42.43 524.42 32.12 M 530.95 32.87 C 527.75 43.61 528.53 54.98 528.46 66.05 C 528.21 74.76 530.96 83.31 530.09 92.02 C 530.02 93.83 528.74 95.13 526.88 94.65 C 523.71 89.53 524.73 83.10 522.27 77.71 C 519.85 72.42 517.66 66.75 513.44 62.58 C 511.61 60.63 508.60 59.96 506.17 61.16 C 504.93 63.50 505.33 66.26 505.59 68.78 C 507.17 79.18 510.45 89.33 515.30 98.67 C 519.39 106.57 523.49 114.48 527.70 122.32 C 528.81 124.11 529.67 126.33 531.71 127.27 C 542.19 132.21 553.89 134.32 565.45 133.91 C 569.76 127.07 573.95 120.07 576.53 112.37 C 580.18 101.29 583.15 89.98 585.41 78.54 C 586.53 71.64 587.63 64.64 586.98 57.63 C 584.30 59.57 581.01 61.54 580.36 65.06 C 578.82 72.65 578.23 80.67 574.65 87.66 C 573.98 89.44 571.53 90.01 570.84 87.97 C 570.94 83.03 571.99 78.16 572.25 73.22 C 573.14 60.81 576.90 48.48 575.18 35.97 C 574.62 33.73 573.96 30.19 571.11 29.99 C 567.83 31.47 566.28 34.95 564.50 37.84 C 567.62 55.36 566.19 73.43 561.73 90.59 C 561.09 90.59 559.81 90.59 559.17 90.59 C 558.11 79.77 560.07 68.90 559.27 58.06 C 558.57 46.75 559.16 33.74 551.01 24.77 C 548.06 27.76 545.29 31.47 545.28 35.86 C 545.40 40.93 546.21 45.97 546.34 51.05 C 546.95 61.38 546.12 71.72 545.18 82.02 C 544.94 84.11 544.73 86.23 544.03 88.23 C 541.07 90.11 540.80 85.96 540.67 83.96 C 540.16 72.32 541.08 60.64 540.03 49.02 C 539.22 41.21 539.57 32.97 536.02 25.76 C 533.81 27.71 531.67 29.92 530.95 32.87 M 482.79 111.01 C 484.97 119.29 489.58 126.75 491.26 135.18 C 491.74 136.82 490.57 138.31 490.22 139.84 C 488.62 138.80 486.87 137.83 485.94 136.09 C 482.05 129.75 479.19 122.86 475.69 116.31 C 474.15 113.17 472.05 110.29 469.16 108.27 C 468.58 116.58 471.61 124.54 474.95 131.98 C 481.60 145.91 489.49 159.44 493.20 174.57 C 503.68 172.16 514.99 172.72 524.55 178.00 C 523.55 167.02 521.98 156.06 522.14 145.01 C 522.25 138.69 522.30 132.19 524.58 126.20 C 520.11 120.18 516.65 113.51 513.06 106.94 C 507.94 97.77 504.47 87.78 499.44 78.57 C 498.39 76.79 497.02 75.23 495.70 73.66 C 491.83 86.91 498.82 99.75 500.20 112.79 C 500.51 116.74 501.94 120.82 500.96 124.74 C 500.48 124.77 499.51 124.82 499.02 124.85 C 496.68 121.80 495.81 117.94 494.57 114.37 C 491.30 103.42 488.92 92.14 484.35 81.61 C 483.04 78.56 480.85 76.02 478.60 73.63 C 476.15 86.17 479.46 98.93 482.79 111.01 M 528.14 130.21 C 528.24 136.14 528.18 142.07 528.17 148.00 C 528.03 158.97 529.55 169.92 528.68 180.89 C 538.29 187.98 546.62 196.58 555.16 204.88 C 556.30 206.15 558.28 208.08 556.90 209.83 C 551.53 217.11 543.95 223.04 540.79 231.78 C 537.84 240.55 538.43 249.97 538.52 259.09 C 538.61 268.74 540.38 278.30 540.46 287.95 C 540.59 299.35 535.57 309.88 534.12 321.05 C 533.51 325.98 532.58 330.93 532.82 335.91 C 535.11 346.43 539.55 356.32 544.59 365.78 C 543.98 365.60 542.74 365.25 542.13 365.08 C 537.15 360.12 534.45 353.29 532.16 346.76 C 531.96 354.51 531.70 362.27 532.06 370.02 C 532.07 372.66 532.36 375.54 530.90 377.90 C 528.74 378.04 528.60 375.60 528.25 374.05 C 527.20 366.76 526.65 359.38 526.87 352.02 C 527.17 339.91 527.56 327.73 529.76 315.79 C 531.21 307.80 534.35 300.16 534.99 292.02 C 535.80 282.65 533.68 273.37 533.31 264.03 C 532.89 253.97 532.32 243.71 534.65 233.83 C 537.04 223.38 545.39 216.00 552.68 208.77 C 542.03 201.45 533.28 191.81 523.05 183.98 C 514.56 177.61 503.21 177.70 493.25 179.67 C 490.49 198.30 493.20 217.22 490.52 235.86 C 487.71 261.94 486.62 288.29 481.18 314.01 C 480.34 318.65 478.18 323.19 478.97 327.99 C 481.28 347.26 486.88 365.90 490.74 384.88 C 492.54 393.54 494.72 402.18 495.35 411.03 C 495.70 413.28 494.68 415.31 493.30 417.01 C 491.49 409.32 490.41 401.47 488.54 393.79 C 484.33 373.76 478.46 354.05 475.75 333.73 C 472.46 343.94 468.25 353.82 464.91 364.01 C 462.90 370.79 460.89 377.98 462.45 385.08 C 463.39 391.44 466.97 396.93 469.15 402.89 C 472.59 411.33 475.00 420.17 476.34 429.18 C 478.21 438.00 479.51 446.97 479.24 456.01 C 479.01 469.35 479.96 482.73 478.72 496.03 C 483.88 490.11 489.85 484.92 494.71 478.73 C 500.59 471.31 505.05 462.78 507.81 453.73 C 510.53 444.73 510.69 435.24 511.33 425.93 C 511.35 424.02 512.21 422.28 513.00 420.59 C 514.39 422.48 515.28 424.69 515.21 427.07 C 515.42 435.60 515.01 444.21 513.35 452.60 C 510.13 465.75 503.16 478.01 493.39 487.41 C 488.55 492.25 483.12 496.52 478.81 501.87 C 475.62 505.66 474.39 510.58 472.56 515.09 C 480.62 505.27 490.62 497.37 500.40 489.36 C 513.56 478.23 526.87 467.28 539.70 455.76 C 541.73 453.95 544.04 452.51 546.49 451.32 C 544.98 456.59 540.81 460.34 537.00 464.00 C 522.05 478.08 506.18 491.14 490.73 504.66 C 480.58 513.29 471.49 523.42 465.40 535.35 C 463.11 542.09 463.44 549.37 463.04 556.40 C 468.61 557.33 474.13 558.57 479.74 559.28 C 505.56 562.23 531.71 562.53 557.53 559.43 C 548.55 554.84 539.81 549.54 532.47 542.57 C 530.05 540.36 528.16 537.63 526.85 534.63 C 529.32 535.89 531.60 537.48 533.69 539.31 C 540.03 544.86 547.20 549.39 554.60 553.38 C 559.31 555.95 564.55 557.90 569.99 557.86 C 574.74 557.52 579.42 556.54 584.14 555.86 C 578.82 554.31 573.38 553.04 568.35 550.70 C 566.76 550.10 565.74 548.65 564.82 547.33 C 573.28 549.00 581.35 552.55 590.05 553.04 C 598.42 554.06 606.74 551.88 614.39 548.64 C 611.00 538.32 605.41 528.84 598.24 520.71 C 590.47 511.51 582.25 502.68 574.85 493.16 C 573.42 491.47 572.72 489.33 572.31 487.19 C 576.41 489.41 579.25 493.17 582.40 496.49 C 589.88 504.71 597.36 512.93 604.91 521.10 C 610.27 526.91 614.52 533.70 617.18 541.16 C 619.02 522.12 618.13 502.92 616.02 483.94 C 613.28 461.17 608.62 438.56 601.03 416.89 C 595.13 399.57 586.31 382.97 584.53 364.50 C 580.17 378.43 574.46 391.92 568.16 405.08 C 564.97 411.14 562.21 417.91 556.40 421.99 C 557.48 415.47 561.51 410.05 564.02 404.06 C 572.94 384.19 581.66 363.88 585.19 342.25 C 586.28 329.51 587.15 316.74 587.89 303.96 C 588.99 281.00 590.53 258.00 589.80 235.01 C 589.55 220.23 585.63 205.91 582.59 191.55 C 578.44 173.76 574.47 155.92 569.50 138.34 C 555.31 139.42 540.60 137.46 528.14 130.21 M 537.23 676.10 C 538.16 683.38 538.70 690.71 539.07 698.05 C 539.33 700.79 537.92 703.23 536.44 705.42 C 536.58 715.49 534.92 725.54 532.38 735.27 C 537.37 728.49 541.50 721.14 545.87 713.96 C 552.26 703.44 555.93 691.59 559.21 679.81 C 551.94 678.20 544.39 678.18 537.23 676.10 M 505.28 724.25 C 496.63 726.30 488.09 722.35 479.47 721.83 C 479.02 734.89 479.25 748.12 482.20 760.92 C 483.43 764.99 487.41 767.31 491.10 768.88 C 497.71 771.57 504.82 773.18 511.97 773.34 C 514.36 773.48 516.57 772.48 518.69 771.48 C 519.62 767.60 520.54 763.72 521.45 759.83 C 525.15 743.06 530.72 726.60 531.72 709.34 C 523.02 714.49 514.59 720.24 505.28 724.25 M 426.72 853.78 C 424.57 857.32 424.38 862.00 426.40 865.65 C 429.27 871.13 433.64 875.84 438.99 878.98 C 447.49 884.22 457.80 884.75 466.75 888.96 C 466.09 878.79 465.78 868.60 465.94 858.41 C 459.88 856.83 453.48 854.63 449.48 849.52 C 447.16 846.82 447.08 843.10 446.51 839.78 C 438.37 841.53 431.07 846.68 426.72 853.78 M 452.42 932.36 C 450.28 936.35 451.97 941.09 454.70 944.33 C 459.11 949.63 464.86 953.59 470.57 957.38 C 476.78 961.36 482.96 965.53 489.91 968.17 C 502.00 972.85 514.02 978.30 526.97 980.13 C 531.26 980.81 536.63 980.15 538.93 975.95 C 541.55 971.78 539.46 966.68 536.88 963.06 C 532.79 957.02 526.11 953.70 519.98 950.15 C 512.25 945.78 506.32 938.94 501.31 931.73 C 499.56 929.07 497.07 927.06 494.38 925.42 C 486.71 930.09 474.32 928.30 470.97 919.11 C 464.00 922.08 456.03 925.16 452.42 932.36 Z" />
</g>
<g id="#4d4d4dff">
<path fill="#4d4d4d" opacity="1.00" d=" M 530.95 32.87 C 531.67 29.92 533.81 27.71 536.02 25.76 C 539.57 32.97 539.22 41.21 540.03 49.02 C 541.08 60.64 540.16 72.32 540.67 83.96 C 540.80 85.96 541.07 90.11 544.03 88.23 C 544.73 86.23 544.94 84.11 545.18 82.02 C 546.12 71.72 546.95 61.38 546.34 51.05 C 546.21 45.97 545.40 40.93 545.28 35.86 C 545.29 31.47 548.06 27.76 551.01 24.77 C 559.16 33.74 558.57 46.75 559.27 58.06 C 560.07 68.90 558.11 79.77 559.17 90.59 C 559.81 90.59 561.09 90.59 561.73 90.59 C 566.19 73.43 567.62 55.36 564.50 37.84 C 566.28 34.95 567.83 31.47 571.11 29.99 C 573.96 30.19 574.62 33.73 575.18 35.97 C 576.90 48.48 573.14 60.81 572.25 73.22 C 571.99 78.16 570.94 83.03 570.84 87.97 C 571.53 90.01 573.98 89.44 574.65 87.66 C 578.23 80.67 578.82 72.65 580.36 65.06 C 581.01 61.54 584.30 59.57 586.98 57.63 C 587.63 64.64 586.53 71.64 585.41 78.54 C 583.15 89.98 580.18 101.29 576.53 112.37 C 573.95 120.07 569.76 127.07 565.45 133.91 C 553.89 134.32 542.19 132.21 531.71 127.27 C 529.67 126.33 528.81 124.11 527.70 122.32 C 523.49 114.48 519.39 106.57 515.30 98.67 C 510.45 89.33 507.17 79.18 505.59 68.78 C 505.33 66.26 504.93 63.50 506.17 61.16 C 508.60 59.96 511.61 60.63 513.44 62.58 C 517.66 66.75 519.85 72.42 522.27 77.71 C 524.73 83.10 523.71 89.53 526.88 94.65 C 528.74 95.13 530.02 93.83 530.09 92.02 C 530.96 83.31 528.21 74.76 528.46 66.05 C 528.53 54.98 527.75 43.61 530.95 32.87 Z" />
<path fill="#4d4d4d" opacity="1.00" d=" M 482.79 111.01 C 479.46 98.93 476.15 86.17 478.60 73.63 C 480.85 76.02 483.04 78.56 484.35 81.61 C 488.92 92.14 491.30 103.42 494.57 114.37 C 495.81 117.94 496.68 121.80 499.02 124.85 C 499.51 124.82 500.48 124.77 500.96 124.74 C 501.94 120.82 500.51 116.74 500.20 112.79 C 498.82 99.75 491.83 86.91 495.70 73.66 C 497.02 75.23 498.39 76.79 499.44 78.57 C 504.47 87.78 507.94 97.77 513.06 106.94 C 516.65 113.51 520.11 120.18 524.58 126.20 C 522.30 132.19 522.25 138.69 522.14 145.01 C 521.98 156.06 523.55 167.02 524.55 178.00 C 514.99 172.72 503.68 172.16 493.20 174.57 C 489.49 159.44 481.60 145.91 474.95 131.98 C 471.61 124.54 468.58 116.58 469.16 108.27 C 472.05 110.29 474.15 113.17 475.69 116.31 C 479.19 122.86 482.05 129.75 485.94 136.09 C 486.87 137.83 488.62 138.80 490.22 139.84 C 490.57 138.31 491.74 136.82 491.26 135.18 C 489.58 126.75 484.97 119.29 482.79 111.01 Z" />
<path fill="#4d4d4d" opacity="1.00" d=" M 426.72 853.78 C 431.07 846.68 438.37 841.53 446.51 839.78 C 447.08 843.10 447.16 846.82 449.48 849.52 C 453.48 854.63 459.88 856.83 465.94 858.41 C 465.78 868.60 466.09 878.79 466.75 888.96 C 457.80 884.75 447.49 884.22 438.99 878.98 C 433.64 875.84 429.27 871.13 426.40 865.65 C 424.38 862.00 424.57 857.32 426.72 853.78 Z" />
<path fill="#4d4d4d" opacity="1.00" d=" M 452.42 932.36 C 456.03 925.16 464.00 922.08 470.97 919.11 C 474.32 928.30 486.71 930.09 494.38 925.42 C 497.07 927.06 499.56 929.07 501.31 931.73 C 506.32 938.94 512.25 945.78 519.98 950.15 C 526.11 953.70 532.79 957.02 536.88 963.06 C 539.46 966.68 541.55 971.78 538.93 975.95 C 536.63 980.15 531.26 980.81 526.97 980.13 C 514.02 978.30 502.00 972.85 489.91 968.17 C 482.96 965.53 476.78 961.36 470.57 957.38 C 464.86 953.59 459.11 949.63 454.70 944.33 C 451.97 941.09 450.28 936.35 452.42 932.36 Z" />
</g>
<g id="#f35e11ff">
<path fill="var(--shirt-color, grey)" opacity="1.00" d=" M 528.14 130.21 C 540.60 137.46 555.31 139.42 569.50 138.34 C 574.47 155.92 578.44 173.76 582.59 191.55 C 585.63 205.91 589.55 220.23 589.80 235.01 C 590.53 258.00 588.99 281.00 587.89 303.96 C 587.15 316.74 586.28 329.51 585.19 342.25 C 581.66 363.88 572.94 384.19 564.02 404.06 C 561.51 410.05 557.48 415.47 556.40 421.99 C 562.21 417.91 564.97 411.14 568.16 405.08 C 574.46 391.92 580.17 378.43 584.53 364.50 C 586.31 382.97 595.13 399.57 601.03 416.89 C 608.62 438.56 613.28 461.17 616.02 483.94 C 618.13 502.92 619.02 522.12 617.18 541.16 C 614.52 533.70 610.27 526.91 604.91 521.10 C 597.36 512.93 589.88 504.71 582.40 496.49 C 579.25 493.17 576.41 489.41 572.31 487.19 C 572.72 489.33 573.42 491.47 574.85 493.16 C 582.25 502.68 590.47 511.51 598.24 520.71 C 605.41 528.84 611.00 538.32 614.39 548.64 C 606.74 551.88 598.42 554.06 590.05 553.04 C 581.35 552.55 573.28 549.00 564.82 547.33 C 565.74 548.65 566.76 550.10 568.35 550.70 C 573.38 553.04 578.82 554.31 584.14 555.86 C 579.42 556.54 574.74 557.52 569.99 557.86 C 564.55 557.90 559.31 555.95 554.60 553.38 C 547.20 549.39 540.03 544.86 533.69 539.31 C 531.60 537.48 529.32 535.89 526.85 534.63 C 528.16 537.63 530.05 540.36 532.47 542.57 C 539.81 549.54 548.55 554.84 557.53 559.43 C 531.71 562.53 505.56 562.23 479.74 559.28 C 474.13 558.57 468.61 557.33 463.04 556.40 C 463.44 549.37 463.11 542.09 465.40 535.35 C 471.49 523.42 480.58 513.29 490.73 504.66 C 506.18 491.14 522.05 478.08 537.00 464.00 C 540.81 460.34 544.98 456.59 546.49 451.32 C 544.04 452.51 541.73 453.95 539.70 455.76 C 526.87 467.28 513.56 478.23 500.40 489.36 C 490.62 497.37 480.62 505.27 472.56 515.09 C 474.39 510.58 475.62 505.66 478.81 501.87 C 483.12 496.52 488.55 492.25 493.39 487.41 C 503.16 478.01 510.13 465.75 513.35 452.60 C 515.01 444.21 515.42 435.60 515.21 427.07 C 515.28 424.69 514.39 422.48 513.00 420.59 C 512.21 422.28 511.35 424.02 511.33 425.93 C 510.69 435.24 510.53 444.73 507.81 453.73 C 505.05 462.78 500.59 471.31 494.71 478.73 C 489.85 484.92 483.88 490.11 478.72 496.03 C 479.96 482.73 479.01 469.35 479.24 456.01 C 479.51 446.97 478.21 438.00 476.34 429.18 C 475.00 420.17 472.59 411.33 469.15 402.89 C 466.97 396.93 463.39 391.44 462.45 385.08 C 460.89 377.98 462.90 370.79 464.91 364.01 C 468.25 353.82 472.46 343.94 475.75 333.73 C 478.46 354.05 484.33 373.76 488.54 393.79 C 490.41 401.47 491.49 409.32 493.30 417.01 C 494.68 415.31 495.70 413.28 495.35 411.03 C 494.72 402.18 492.54 393.54 490.74 384.88 C 486.88 365.90 481.28 347.26 478.97 327.99 C 478.18 323.19 480.34 318.65 481.18 314.01 C 486.62 288.29 487.71 261.94 490.52 235.86 C 493.20 217.22 490.49 198.30 493.25 179.67 C 503.21 177.70 514.56 177.61 523.05 183.98 C 533.28 191.81 542.03 201.45 552.68 208.77 C 545.39 216.00 537.04 223.38 534.65 233.83 C 532.32 243.71 532.89 253.97 533.31 264.03 C 533.68 273.37 535.80 282.65 534.99 292.02 C 534.35 300.16 531.21 307.80 529.76 315.79 C 527.56 327.73 527.17 339.91 526.87 352.02 C 526.65 359.38 527.20 366.76 528.25 374.05 C 528.60 375.60 528.74 378.04 530.90 377.90 C 532.36 375.54 532.07 372.66 532.06 370.02 C 531.70 362.27 531.96 354.51 532.16 346.76 C 534.45 353.29 537.15 360.12 542.13 365.08 C 542.74 365.25 543.98 365.60 544.59 365.78 C 539.55 356.32 535.11 346.43 532.82 335.91 C 532.58 330.93 533.51 325.98 534.12 321.05 C 535.57 309.88 540.59 299.35 540.46 287.95 C 540.38 278.30 538.61 268.74 538.52 259.09 C 538.43 249.97 537.84 240.55 540.79 231.78 C 543.95 223.04 551.53 217.11 556.90 209.83 C 558.28 208.08 556.30 206.15 555.16 204.88 C 546.62 196.58 538.29 187.98 528.68 180.89 C 529.55 169.92 528.03 158.97 528.17 148.00 C 528.18 142.07 528.24 136.14 528.14 130.21 Z" />
</g>
<g id="#f0b58bff">
<path fill="#f0b58b" opacity="1.00" d=" M 537.23 676.10 C 544.39 678.18 551.94 678.20 559.21 679.81 C 555.93 691.59 552.26 703.44 545.87 713.96 C 541.50 721.14 537.37 728.49 532.38 735.27 C 534.92 725.54 536.58 715.49 536.44 705.42 C 537.92 703.23 539.33 700.79 539.07 698.05 C 538.70 690.71 538.16 683.38 537.23 676.10 Z" />
<path fill="#f0b58b" opacity="1.00" d=" M 505.28 724.25 C 514.59 720.24 523.02 714.49 531.72 709.34 C 530.72 726.60 525.15 743.06 521.45 759.83 C 520.54 763.72 519.62 767.60 518.69 771.48 C 516.57 772.48 514.36 773.48 511.97 773.34 C 504.82 773.18 497.71 771.57 491.10 768.88 C 487.41 767.31 483.43 764.99 482.20 760.92 C 479.25 748.12 479.02 734.89 479.47 721.83 C 488.09 722.35 496.63 726.30 505.28 724.25 Z" />
</g>
</svg>
