<svg id="svg" version="1.1" xmlns="http://www.w3.org/2000/svg" xmlns:xlink="http://www.w3.org/1999/xlink" width="400" height="266.73330667732904" viewBox="0, 0, 400,266.73330667732904"><g id="svgg"><path id="path0" d="M22.500 133.167 L 22.500 251.667 199.750 251.667 L 377.000 251.667 377.000 133.167 L 377.000 14.667 199.750 14.667 L 22.500 14.667 22.500 133.167 M26.167 15.926 C 26.167 17.210,24.991 18.835,23.915 19.041 L 23.500 19.120 23.500 17.394 L 23.500 15.667 24.833 15.667 C 25.929 15.667,26.167 15.713,26.167 15.926 M199.333 57.833 C 199.333 81.025,199.271 100.000,199.196 100.000 C 184.254 100.000,170.700 112.178,168.050 127.985 C 164.784 147.461,180.249 166.667,199.196 166.667 C 199.271 166.667,199.333 185.567,199.333 208.667 L 199.333 250.667 113.250 250.667 C 30.401 250.667,27.167 250.655,27.167 250.366 C 27.167 249.207,25.666 247.563,24.245 247.165 L 23.500 246.957 23.500 226.645 L 23.500 206.333 51.750 206.333 L 80.000 206.333 80.000 183.436 L 80.000 160.538 80.458 160.242 C 83.057 158.559,86.710 154.727,88.871 151.417 C 98.293 136.979,94.908 117.430,81.125 106.680 L 80.000 105.803 80.000 82.901 L 80.000 60.000 51.750 60.000 L 23.500 60.000 23.500 40.090 L 23.500 20.180 24.141 20.007 C 25.660 19.598,26.882 18.165,27.095 16.542 L 27.210 15.667 113.271 15.667 L 199.333 15.667 199.333 57.833 M372.424 16.208 C 372.752 17.731,373.906 19.013,375.375 19.490 L 376.000 19.693 376.000 39.846 L 376.000 60.000 347.750 60.000 L 319.500 60.000 319.500 82.810 L 319.500 105.621 318.375 106.458 C 301.140 119.279,301.140 147.152,318.375 159.742 L 319.500 160.564 319.500 183.449 L 319.500 206.333 347.750 206.333 L 376.000 206.333 376.000 226.812 L 376.000 247.290 375.209 247.512 C 374.199 247.794,372.945 249.005,372.653 249.979 L 372.447 250.667 286.390 250.667 L 200.333 250.667 200.333 208.667 C 200.333 185.567,200.390 166.667,200.458 166.667 C 215.751 166.649,229.465 154.126,231.759 138.083 C 234.553 118.539,219.333 100.021,200.458 100.000 C 200.390 100.000,200.333 81.025,200.333 57.833 L 200.333 15.667 286.320 15.667 L 372.307 15.667 372.424 16.208 M376.000 17.083 C 376.000 18.327,375.964 18.500,375.705 18.500 C 374.931 18.500,373.688 17.199,373.435 16.125 L 373.327 15.667 374.663 15.667 L 376.000 15.667 376.000 17.083 M79.000 133.167 L 79.000 205.333 51.250 205.333 L 23.500 205.333 23.500 185.835 L 23.500 166.336 32.375 166.293 L 41.250 166.250 41.250 133.167 L 41.250 100.083 32.375 100.040 L 23.500 99.997 23.500 80.610 C 23.500 69.947,23.550 61.172,23.611 61.111 C 23.672 61.050,36.160 61.000,51.361 61.000 L 79.000 61.000 79.000 133.167 M375.959 80.540 L 376.001 99.997 367.126 100.040 L 358.250 100.083 358.208 133.208 L 358.166 166.333 367.083 166.333 L 376.000 166.333 376.000 185.833 L 376.000 205.333 348.250 205.333 L 320.500 205.333 320.500 133.166 L 320.500 60.999 348.208 61.041 L 375.917 61.083 375.959 80.540 M40.167 133.167 L 40.167 165.333 31.833 165.333 L 23.500 165.333 23.500 133.167 L 23.500 101.000 31.833 101.000 L 40.167 101.000 40.167 133.167 M199.333 116.004 L 199.333 131.008 198.958 131.153 C 198.196 131.448,197.500 132.488,197.500 133.333 C 197.500 134.178,198.196 135.219,198.958 135.514 L 199.333 135.658 199.333 150.677 L 199.333 165.696 198.708 165.606 C 198.365 165.557,197.483 165.468,196.750 165.410 C 178.508 163.952,165.278 144.951,169.439 126.186 C 172.644 111.735,183.859 102.202,199.042 101.023 C 199.317 101.001,199.333 101.817,199.333 116.004 M203.917 101.360 C 213.825 102.507,223.271 109.452,227.750 118.881 C 237.545 139.501,224.514 163.479,202.425 165.480 C 201.422 165.571,200.540 165.608,200.467 165.563 C 200.393 165.517,200.333 158.786,200.333 150.604 L 200.333 135.728 200.918 135.450 C 201.692 135.080,202.165 134.278,202.165 133.333 C 202.165 132.389,201.692 131.586,200.918 131.217 L 200.333 130.938 200.333 116.080 C 200.333 107.908,200.383 101.173,200.443 101.113 C 200.554 101.001,201.248 101.051,203.917 101.360 M375.959 133.208 L 376.001 165.333 367.584 165.333 L 359.167 165.333 359.167 133.278 C 359.167 115.647,359.217 101.172,359.279 101.110 C 359.341 101.048,363.110 101.016,367.654 101.040 L 375.917 101.083 375.959 133.208 M319.500 133.083 C 319.500 147.429,319.452 159.167,319.393 159.167 C 319.178 159.167,317.029 157.335,315.787 156.094 C 303.227 143.534,303.221 122.659,315.774 110.084 C 316.774 109.082,319.205 107.000,319.375 107.000 C 319.444 107.000,319.500 118.737,319.500 133.083 M82.011 108.750 C 95.321 120.346,96.966 140.267,85.742 153.929 C 84.017 156.029,80.643 159.167,80.110 159.167 C 80.049 159.167,80.000 147.463,80.000 133.158 C 80.000 110.402,80.030 107.167,80.243 107.286 C 80.377 107.361,81.173 108.020,82.011 108.750 M60.742 132.409 C 59.916 133.236,60.502 134.667,61.667 134.667 C 62.352 134.667,63.000 134.019,63.000 133.333 C 63.000 132.648,62.352 132.000,61.667 132.000 C 61.342 132.000,61.000 132.151,60.742 132.409 M336.147 132.168 C 335.663 132.451,335.431 133.263,335.669 133.840 C 336.229 135.191,338.167 134.799,338.167 133.333 C 338.167 132.314,337.025 131.655,336.147 132.168 M199.333 133.333 C 199.333 134.632,199.143 134.812,198.716 133.917 C 198.457 133.372,198.457 133.295,198.716 132.750 C 199.143 131.855,199.333 132.035,199.333 133.333 M200.862 132.442 C 201.247 132.791,201.264 133.783,200.891 134.195 C 200.431 134.703,200.333 134.551,200.333 133.333 C 200.333 132.092,200.383 132.009,200.862 132.442 M24.667 248.422 C 25.409 248.802,26.167 249.856,26.167 250.511 C 26.167 250.597,25.567 250.667,24.833 250.667 L 23.500 250.667 23.500 249.322 C 23.500 247.839,23.511 247.831,24.667 248.422 M376.000 249.500 L 376.000 250.667 374.750 250.667 C 374.063 250.667,373.500 250.625,373.500 250.575 C 373.500 250.067,374.632 248.799,375.333 248.520 C 375.991 248.258,376.000 248.271,376.000 249.500 " stroke="none" fill="#fafbfa" fill-rule="evenodd"/><path id="path1" d="M0.000 133.333 L 0.000 266.667 200.000 266.667 L 400.000 266.667 400.000 133.333 L 400.000 0.000 200.000 0.000 L 0.000 0.000 0.000 133.333 M377.000 133.167 L 377.000 251.667 199.667 251.667 L 22.333 251.667 22.333 133.167 L 22.333 14.667 199.667 14.667 L 377.000 14.667 377.000 133.167 " stroke="none" fill="#008c17" fill-rule="evenodd"/><path id="path2" d="M22.416 133.167 C 22.416 198.387,22.435 225.069,22.458 192.458 C 22.482 159.848,22.482 106.485,22.458 73.875 C 22.435 41.265,22.416 67.946,22.416 133.167 M23.500 17.394 L 23.500 19.120 23.915 19.041 C 24.655 18.900,25.771 17.759,25.979 16.930 C 26.304 15.642,26.326 15.667,24.833 15.667 L 23.500 15.667 23.500 17.394 M27.095 16.542 C 26.882 18.165,25.660 19.598,24.141 20.007 L 23.500 20.180 23.500 40.090 L 23.500 60.000 51.750 60.000 L 80.000 60.000 80.000 82.901 L 80.000 105.803 81.125 106.680 C 94.908 117.430,98.293 136.979,88.871 151.417 C 86.710 154.727,83.057 158.559,80.458 160.242 L 80.000 160.538 80.000 183.436 L 80.000 206.333 51.750 206.333 L 23.500 206.333 23.500 226.645 L 23.500 246.957 24.245 247.165 C 25.666 247.563,27.167 249.207,27.167 250.366 C 27.167 250.655,30.401 250.667,113.250 250.667 L 199.333 250.667 199.333 208.667 C 199.333 185.567,199.271 166.667,199.196 166.667 C 184.254 166.667,170.700 154.488,168.050 138.681 C 164.784 119.206,180.249 100.000,199.196 100.000 C 199.271 100.000,199.333 81.025,199.333 57.833 L 199.333 15.667 113.271 15.667 L 27.210 15.667 27.095 16.542 M200.333 57.833 C 200.333 81.025,200.390 100.000,200.458 100.000 C 215.751 100.017,229.465 112.540,231.759 128.583 C 234.553 148.128,219.333 166.645,200.458 166.667 C 200.390 166.667,200.333 185.567,200.333 208.667 L 200.333 250.667 286.390 250.667 L 372.447 250.667 372.653 249.979 C 372.945 249.005,374.199 247.794,375.209 247.512 L 376.000 247.290 376.000 226.812 L 376.000 206.333 347.750 206.333 L 319.500 206.333 319.500 183.449 L 319.500 160.564 318.375 159.742 C 301.140 147.152,301.140 119.279,318.375 106.458 L 319.500 105.621 319.500 82.810 L 319.500 60.000 347.750 60.000 L 376.000 60.000 376.000 39.846 L 376.000 19.693 375.375 19.490 C 373.906 19.013,372.752 17.731,372.424 16.208 L 372.307 15.667 286.320 15.667 L 200.333 15.667 200.333 57.833 M373.435 16.125 C 373.688 17.199,374.931 18.500,375.705 18.500 C 375.964 18.500,376.000 18.327,376.000 17.083 L 376.000 15.667 374.663 15.667 L 373.327 15.667 373.435 16.125 M23.611 61.111 C 23.550 61.172,23.500 69.947,23.500 80.610 L 23.500 99.997 32.375 100.040 L 41.250 100.083 41.250 133.167 L 41.250 166.250 32.375 166.293 L 23.500 166.336 23.500 185.835 L 23.500 205.333 51.250 205.333 L 79.000 205.333 79.000 133.167 L 79.000 61.000 51.361 61.000 C 36.160 61.000,23.672 61.050,23.611 61.111 M320.500 133.166 L 320.500 205.333 348.250 205.333 L 376.000 205.333 376.000 185.833 L 376.000 166.333 367.083 166.333 L 358.166 166.333 358.208 133.208 L 358.250 100.083 367.126 100.040 L 376.001 99.997 375.959 80.540 L 375.917 61.083 348.208 61.041 L 320.500 60.999 320.500 133.166 M23.500 133.167 L 23.500 165.333 31.833 165.333 L 40.167 165.333 40.167 133.167 L 40.167 101.000 31.833 101.000 L 23.500 101.000 23.500 133.167 M197.167 101.191 C 175.173 103.214,162.176 127.323,172.021 147.833 C 176.709 157.599,186.552 164.595,196.750 165.410 C 197.483 165.468,198.365 165.557,198.708 165.606 L 199.333 165.696 199.333 150.677 L 199.333 135.658 198.958 135.514 C 198.196 135.219,197.500 134.178,197.500 133.333 C 197.500 132.488,198.196 131.448,198.958 131.153 L 199.333 131.008 199.333 116.004 C 199.333 101.817,199.317 101.001,199.042 101.023 C 198.881 101.035,198.037 101.111,197.167 101.191 M200.443 101.113 C 200.383 101.173,200.333 107.908,200.333 116.080 L 200.333 130.938 200.918 131.217 C 201.692 131.586,202.165 132.389,202.165 133.333 C 202.165 134.278,201.692 135.080,200.918 135.450 L 200.333 135.728 200.333 150.604 C 200.333 158.786,200.393 165.517,200.467 165.563 C 201.509 166.207,209.678 164.255,213.113 162.541 C 239.638 149.309,235.764 109.309,207.250 102.003 C 205.075 101.446,200.684 100.871,200.443 101.113 M359.279 101.110 C 359.217 101.172,359.167 115.647,359.167 133.278 L 359.167 165.333 367.584 165.333 L 376.001 165.333 375.959 133.208 L 375.917 101.083 367.654 101.040 C 363.110 101.016,359.341 101.048,359.279 101.110 M317.917 108.137 C 303.366 120.542,302.383 142.689,315.787 156.094 C 317.029 157.335,319.178 159.167,319.393 159.167 C 319.452 159.167,319.500 147.429,319.500 133.083 C 319.500 118.737,319.444 107.000,319.375 107.000 C 319.306 107.000,318.650 107.512,317.917 108.137 M80.000 133.158 C 80.000 147.463,80.049 159.167,80.110 159.167 C 80.643 159.167,84.017 156.029,85.742 153.929 C 96.175 141.231,95.671 123.767,84.508 111.176 C 83.604 110.156,80.797 107.596,80.243 107.286 C 80.030 107.167,80.000 110.402,80.000 133.158 M62.591 132.409 C 63.418 133.236,62.832 134.667,61.667 134.667 C 60.981 134.667,60.333 134.019,60.333 133.333 C 60.333 132.648,60.981 132.000,61.667 132.000 C 61.991 132.000,62.333 132.151,62.591 132.409 M337.728 132.345 C 338.647 133.069,338.066 134.667,336.883 134.667 C 335.911 134.667,335.294 133.734,335.668 132.829 C 336.035 131.945,336.946 131.731,337.728 132.345 M198.716 132.750 C 198.457 133.295,198.457 133.372,198.716 133.917 C 199.143 134.812,199.333 134.632,199.333 133.333 C 199.333 132.035,199.143 131.855,198.716 132.750 M200.333 133.333 C 200.333 134.551,200.431 134.703,200.891 134.195 C 201.264 133.783,201.247 132.791,200.862 132.442 C 200.383 132.009,200.333 132.092,200.333 133.333 M23.500 249.322 L 23.500 250.667 24.833 250.667 C 26.233 250.667,26.274 250.639,25.989 249.886 C 25.677 249.062,24.912 248.413,23.875 248.093 C 23.508 247.980,23.500 248.005,23.500 249.322 M375.333 248.520 C 374.632 248.799,373.500 250.067,373.500 250.575 C 373.500 250.625,374.063 250.667,374.750 250.667 L 376.000 250.667 376.000 249.500 C 376.000 248.271,375.991 248.258,375.333 248.520 " stroke="none" fill="#00a93a" fill-rule="evenodd"/></g></svg>