<svg xmlns="http://www.w3.org/2000/svg" viewBox="0 0 80 80" enable-background="new 0 0 80 80">
 <circle fill="#ddd" cx="40.1" cy="40" r="37.6"/>
 <path d="m12.2 55c1.7 1.1 5.6 2.7 9.6 2.7 7.6 0 9.9-4.8 9.8-8.4-.1-6.1-5.6-8.7-11.3-8.7h-3.3v-4.4h3.3c4.3 0 9.7-2.2 9.7-7.4 0-3.5-2.2-6.6-7.6-6.6-3.5 0-6.8 1.5-8.7 2.9l-1.5-4.3c2.3-1.7 6.7-3.3 11.4-3.3 8.6 0 12.5 5.1 12.5 10.4 0 4.5-2.7 8.3-8 10.2v.1c5.4 1.1 9.7 5.1 9.7 11.2 0 7-5.4 13.1-15.9 13.1-4.9 0-9.2-1.5-11.3-2.9l1.6-4.6"/>
 <path d="m69.6 18.2v3.9l-19 39.6h-6.1l18.9-38.5v-.1h-21.3v-4.9c0 0 27.5 0 27.5 0"/>
</svg>
