<svg xmlns="http://www.w3.org/2000/svg" viewBox="0 0 80 80" enable-background="new 0 0 80 80">
 <circle fill="#ddd" cx="40.1" cy="40" r="37.6"/>
 <path d="m26.4 61.8v-11.9h-20.2v-3.9l19.4-27.8h6.4v27.1h6.1v4.6h-6.1v11.9c0 0-5.6 0-5.6 0m0-16.5v-14.5c0-2.3.1-4.6.2-6.8h-.2c-1.3 2.5-2.4 4.4-3.6 6.4l-10.6 14.8v.1h14.2"/>
 <path d="m42 62.1v-3.6l4.6-4.5c11.1-10.6 16.1-16.2 16.2-22.8 0-4.4-2.1-8.5-8.6-8.5-4 0-7.2 2-9.2 3.7l-2-4.1c3-2.5 7.3-4.4 12.3-4.4 9.4 0 13.3 6.4 13.3 12.7 0 8-5.8 14.5-15 23.4l-3.5 3.2v.1h19.6v4.9h-27.7v-.1"/>
</svg>
