<svg xmlns="http://www.w3.org/2000/svg" viewBox="0 0 80 80" enable-background="new 0 0 80 80">
 <circle fill="#ddd" cx="40.1" cy="40" r="37.6"/>
 <path d="m36.8 22.8h-16.6l-1.7 11.2c1-.1 1.9-.3 3.5-.3 3.3 0 6.7.7 9.4 2.3 3.4 1.9 6.2 5.7 6.2 11.2 0 8.5-6.8 14.9-16.2 14.9-4.8 0-8.8-1.3-10.8-2.7l1.5-4.5c1.8 1.1 5.4 2.4 9.3 2.4 5.6 0 10.3-3.6 10.3-9.4-.1-5.6-3.8-9.6-12.5-9.6-2.5 0-4.4.3-6 .5l2.8-20.9h20.8v4.9"/>
 <path d="m41.2 50.7c0-5.5 3.3-9.4 8.6-11.7l-.1-.2c-4.8-2.3-6.9-6-6.9-9.8 0-6.9 5.8-11.6 13.5-11.6 8.4 0 12.7 5.3 12.7 10.7 0 3.7-1.8 7.6-7.2 10.2v.2c5.4 2.1 8.8 6 8.8 11.3 0 7.6-6.5 12.7-14.8 12.7-9.1 0-14.6-5.4-14.6-11.8m23.4-.3c0-5.3-3.7-7.8-9.6-9.5-5.1 1.5-7.8 4.8-7.8 9-.2 4.4 3.1 8.3 8.7 8.3 5.3 0 8.7-3.3 8.7-7.8m-16.2-21.7c0 4.4 3.3 6.7 8.3 8 3.8-1.3 6.6-4 6.6-7.9 0-3.5-2.1-7.1-7.4-7.1-4.8 0-7.5 3.2-7.5 7"/>
</svg>
