<svg id="svg" version="1.1" xmlns="http://www.w3.org/2000/svg" xmlns:xlink="http://www.w3.org/1999/xlink" width="400" height="267.3031026252983" viewBox="0, 0, 400,267.3031026252983"><g id="svgg"><path id="path0" d="M0.535 133.422 L 0.535 266.310 15.241 266.310 L 29.947 266.310 29.947 151.050 C 29.947 51.515,29.999 35.739,30.328 35.409 C 30.659 35.078,55.615 35.027,214.820 35.027 L 398.930 35.027 398.930 17.781 L 398.930 0.535 199.733 0.535 L 0.535 0.535 0.535 133.422 " stroke="none" fill="#008c17" fill-rule="evenodd"></path><path id="path1" d="M30.548 35.427 C 30.282 35.729,30.214 59.237,30.214 151.058 L 30.214 266.310 30.882 266.310 L 31.551 266.310 31.551 155.382 L 31.551 44.453 32.642 44.279 C 35.956 43.749,39.090 40.679,39.714 37.351 L 39.899 36.362 88.733 36.430 L 137.567 36.497 137.634 101.805 L 137.702 167.112 190.174 167.119 L 242.647 167.126 243.583 168.509 C 252.840 182.187,269.451 193.346,287.032 197.698 C 315.677 204.789,347.348 193.601,365.476 169.987 L 367.682 167.112 383.306 167.112 C 398.752 167.112,398.930 167.106,398.930 166.578 C 398.930 166.049,398.752 166.043,383.222 166.042 C 374.582 166.041,316.046 166.042,253.142 166.043 L 138.770 166.045 138.770 101.204 L 138.770 36.364 184.091 36.364 L 229.412 36.364 229.412 56.684 L 229.412 77.005 305.214 77.005 L 381.016 77.005 381.016 56.818 L 381.016 36.631 389.973 36.631 L 398.930 36.631 398.930 36.007 L 398.930 35.383 361.832 35.205 C 285.212 34.838,30.917 35.008,30.548 35.427 M38.320 36.564 C 39.251 38.166,35.324 42.360,32.333 42.958 L 31.551 43.115 31.551 39.739 L 31.551 36.364 34.877 36.364 C 36.707 36.364,38.256 36.454,38.320 36.564 M356.887 36.542 L 379.950 36.719 379.881 56.394 L 379.813 76.070 305.214 76.070 L 230.615 76.070 230.546 56.551 C 230.508 45.816,230.534 36.882,230.604 36.698 C 230.749 36.320,314.576 36.216,356.887 36.542 M302.940 122.660 C 301.426 124.033,301.436 126.099,302.964 127.384 C 304.895 129.009,308.021 127.535,308.021 125.000 C 308.021 122.433,304.819 120.958,302.940 122.660 M366.043 167.274 C 366.043 167.600,362.580 171.853,360.514 174.064 C 353.841 181.208,347.047 186.375,339.037 190.397 C 335.058 192.396,333.329 193.154,330.169 194.286 C 299.879 205.140,265.041 195.096,246.055 170.037 C 244.989 168.631,244.118 167.398,244.118 167.296 C 244.118 167.195,271.551 167.112,305.080 167.112 C 338.610 167.112,366.043 167.185,366.043 167.274 " stroke="none" fill="#f1f8f2" fill-rule="evenodd"></path><path id="path2" d="M361.678 35.227 C 368.468 35.267,379.658 35.267,386.544 35.227 C 393.430 35.188,387.874 35.155,374.198 35.155 C 360.521 35.155,354.887 35.187,361.678 35.227 M30.079 150.936 C 30.079 214.465,30.110 240.415,30.147 208.601 C 30.184 176.788,30.184 124.809,30.147 93.093 C 30.110 61.377,30.079 87.406,30.079 150.936 M31.551 39.739 L 31.551 43.115 32.333 42.958 C 34.857 42.454,37.404 40.250,38.073 37.992 C 38.566 36.328,38.636 36.364,34.877 36.364 L 31.551 36.364 31.551 39.739 M39.714 37.351 C 39.090 40.679,35.956 43.749,32.642 44.279 L 31.551 44.453 31.551 155.382 L 31.551 266.310 215.241 266.310 L 398.930 266.310 398.930 216.711 L 398.930 167.112 383.306 167.112 L 367.682 167.112 365.476 169.987 C 347.348 193.601,315.677 204.789,287.032 197.698 C 269.451 193.346,252.840 182.187,243.583 168.509 L 242.647 167.126 190.174 167.119 L 137.702 167.112 137.634 101.805 L 137.567 36.497 88.733 36.430 L 39.899 36.362 39.714 37.351 M138.770 101.204 L 138.770 166.044 268.850 166.042 L 398.930 166.040 398.930 101.336 L 398.930 36.631 389.973 36.631 L 381.016 36.631 381.016 56.818 L 381.016 77.005 305.214 77.005 L 229.412 77.005 229.412 56.684 L 229.412 36.364 184.091 36.364 L 138.770 36.364 138.770 101.204 M230.604 36.698 C 230.534 36.882,230.508 45.816,230.546 56.551 L 230.615 76.070 305.214 76.070 L 379.813 76.070 379.881 56.394 L 379.950 36.719 356.887 36.542 C 314.576 36.216,230.749 36.320,230.604 36.698 M306.426 122.331 C 307.316 122.791,308.021 123.971,308.021 125.000 C 308.021 127.535,304.895 129.009,302.964 127.384 C 300.087 124.964,303.077 120.599,306.426 122.331 M244.118 167.296 C 244.118 168.441,253.970 179.055,257.888 182.131 C 278.948 198.665,305.491 203.129,330.169 194.286 C 339.754 190.852,349.147 185.100,356.402 178.223 C 360.060 174.755,366.043 167.961,366.043 167.274 C 366.043 167.185,338.610 167.112,305.080 167.112 C 271.551 167.112,244.118 167.195,244.118 167.296 " stroke="none" fill="#00a93a" fill-rule="evenodd"></path></g></svg>