<svg xmlns="http://www.w3.org/2000/svg" viewBox="0 0 80 80" enable-background="new 0 0 80 80">
 <rect x="2.5" y="2.6" fill="#ddd" width="75" height="75"/>
 <rect x="2.5" y="2.6" fill="none" stroke="#000" stroke-width="5" stroke-miterlimit="10" width="75" height="75"/>
 <path fill="#010101" d="m54.1 16.6c-1.6-.1-3.7 0-5.9.4-12.4 2-18.9 11-20.2 20.6h.3c2.8-3.7 7.6-6.7 14.1-6.7 10.3 0 17.6 7.4 17.6 18.8-.1 10.6-7.4 20.4-19.5 20.4-12.4 0-20.6-9.7-20.6-24.8 0-11.4 4.1-20.4 9.9-26.2 4.8-4.7 11.3-7.7 18.6-8.6 2.3-.3 4.3-.4 5.7-.4 0 0 0 6.5 0 6.5m-2.2 33.5c0-8.3-4.7-13.3-12-13.3-4.7 0-9.1 2.9-11.3 7.2-.5.9-.9 2.1-.9 3.5.2 9.6 4.6 16.6 12.8 16.6 6.8-.1 11.4-5.7 11.4-14"/>
</svg>
