<?xml version="1.0" encoding="UTF-8"?>
<!-- Generator: Adobe Illustrator 23.0.6, SVG Export Plug-In . SVG Version: 6.00 Build 0)  -->
<svg version="1.1" id="svg" xmlns="http://www.w3.org/2000/svg" xmlns:xlink="http://www.w3.org/1999/xlink" x="0px" y="0px" viewBox="0 0 266.7 400" style="enable-background:new 0 0 266.7 400;" xml:space="preserve">
<style type="text/css">
	.st0{fill-rule:evenodd;clip-rule:evenodd;fill:#FAFBFA;}
	.st1{fill-rule:evenodd;clip-rule:evenodd;fill:#008C17;}
	.st2{fill-rule:evenodd;clip-rule:evenodd;fill:#00A93A;}
</style>
<g id="svgg">
	<path id="path0" class="st0" d="M133.2,377.5l118.5,0V200.2V23H133.2H14.7v177.3v177.2H133.2 M16,373.8c1.3,0,2.9,1.2,3.1,2.3   l0.1,0.4h-1.7h-1.7v-1.3C15.7,374,15.7,373.8,16,373.8 M57.9,200.6c23.2,0,42.2,0.1,42.2,0.1c0,14.9,12.2,28.5,28,31.1   c19.5,3.3,38.7-12.2,38.7-31.1c0-0.1,18.9-0.1,42-0.1h42v86.1c0,82.8,0,86.1-0.3,86.1c-1.2,0-2.8,1.5-3.2,2.9l-0.2,0.7h-20.3h-20.3   v-28.3V320h-22.9h-22.9l-0.3-0.5c-1.7-2.6-5.5-6.3-8.8-8.4c-14.4-9.4-34-6-44.7,7.7l-0.9,1.1H82.9H60v28.3v28.3H40.1H20.2l-0.2-0.6   c-0.4-1.5-1.8-2.7-3.5-3l-0.9-0.1v-86.1v-86.1H57.9 M16.2,27.5c1.5-0.3,2.8-1.5,3.3-3l0.2-0.6h20.2H60v28.3v28.3h22.8h22.8l0.8,1.1   c12.8,17.2,40.7,17.2,53.3,0l0.8-1.1h22.9h22.9V52.2V24h20.5h20.5l0.2,0.8c0.3,1,1.5,2.3,2.5,2.6l0.7,0.2v86.1v86.1h-42   c-23.1,0-42-0.1-42-0.1c0-15.3-12.5-29-28.6-31.3c-19.5-2.8-38.1,12.4-38.1,31.3c0,0.1-19,0.1-42.2,0.1H15.7v-86v-86L16.2,27.5    M17.1,24c1.2,0,1.4,0,1.4,0.3c0,0.8-1.3,2-2.4,2.3l-0.5,0.1v-1.3V24H17.1 M133.2,321l72.2,0v27.8v27.8h-19.5h-19.5l0-8.9l0-8.9   l-33.1,0h-33.1l0,8.9l0,8.9H80.6c-10.7,0-19.4,0-19.5-0.1S61,363.8,61,348.6V321H133.2 M80.6,24l19.5,0l0,8.9l0,8.9l33.1,0l33.1,0   v-8.9V24h19.5h19.5v27.8v27.8h-72.2H61l0-27.7l0-27.7L80.6,24 M133.2,359.8h32.2v8.3v8.3l-32.2,0H101v-8.3v-8.3H133.2 M116,200.6   h15l0.1,0.4c0.3,0.8,1.3,1.5,2.2,1.5c0.8,0,1.9-0.7,2.2-1.5l0.1-0.4h15h15l-0.1,0.6c0,0.3-0.1,1.2-0.2,2   c-1.5,18.2-20.5,31.5-39.2,27.3c-14.5-3.2-24-14.4-25.2-29.6C101,200.6,101.8,200.6,116,200.6 M101.4,196   c1.1-9.9,8.1-19.4,17.5-23.8c20.6-9.8,44.6,3.2,46.6,25.3c0.1,1,0.1,1.9,0.1,2c0,0.1-6.8,0.1-15,0.1h-14.9l-0.3-0.6   c-0.4-0.8-1.2-1.2-2.1-1.2c-0.9,0-1.7,0.5-2.1,1.2l-0.3,0.6h-14.9c-8.2,0-14.9-0.1-15-0.1C101,199.4,101.1,198.7,101.4,196    M133.2,24l32.1,0v8.4v8.4h-32.1c-17.6,0-32.1-0.1-32.2-0.1c-0.1-0.1-0.1-3.8-0.1-8.4l0-8.3L133.2,24 M133.1,80.5   c14.3,0,26.1,0,26.1,0.1c0,0.2-1.8,2.4-3.1,3.6c-12.6,12.6-33.4,12.6-46,0c-1-1-3.1-3.4-3.1-3.6C107,80.5,118.8,80.5,133.1,80.5    M108.8,318c11.6-13.3,31.5-15,45.2-3.7c2.1,1.7,5.2,5.1,5.2,5.6c0,0.1-11.7,0.1-26,0.1c-22.8,0-26,0-25.9-0.2   C107.4,319.6,108.1,318.8,108.8,318 M132.4,339.2c0.8,0.8,2.3,0.2,2.3-0.9c0-0.7-0.6-1.3-1.3-1.3c-0.7,0-1.3,0.6-1.3,1.3   C132,338.6,132.2,339,132.4,339.2 M132.2,63.8c0.3,0.5,1.1,0.7,1.7,0.5c1.4-0.6,1-2.5-0.5-2.5C132.3,61.8,131.7,62.9,132.2,63.8    M133.4,200.6c1.3,0,1.5,0.2,0.6,0.6c-0.5,0.3-0.6,0.3-1.2,0C131.9,200.8,132.1,200.6,133.4,200.6 M132.5,199.1   c0.3-0.4,1.3-0.4,1.8,0c0.5,0.5,0.4,0.6-0.9,0.6C132.1,199.6,132,199.6,132.5,199.1 M248.5,375.3c0.4-0.7,1.4-1.5,2.1-1.5   c0.1,0,0.2,0.6,0.2,1.3v1.3h-1.3C247.9,376.5,247.9,376.5,248.5,375.3 M249.5,24h1.2v1.3c0,0.7,0,1.3-0.1,1.3   c-0.5,0-1.8-1.1-2.1-1.8C248.3,24,248.3,24,249.5,24"/>
	<path id="path1" class="st1" d="M133.4,400h133.3V200V0L133.4,0L0,0l0,200l0,200L133.4,400 M133.2,23h118.5v177.3v177.3H133.2H14.7   V200.3V23H133.2"/>
	<path id="path2" class="st2" d="M133.2,377.6c65.2,0,91.9,0,59.3,0c-32.6,0-86,0-118.6,0C41.3,377.5,68,377.6,133.2,377.6    M17.4,376.5h1.7l-0.1-0.4c-0.1-0.7-1.3-1.9-2.1-2.1c-1.3-0.3-1.3-0.3-1.3,1.1v1.3H17.4 M16.6,372.9c1.6,0.2,3.1,1.4,3.5,3l0.2,0.6   h19.9H60v-28.3V320h22.9h22.9l0.9-1.1c10.8-13.8,30.3-17.2,44.7-7.7c3.3,2.2,7.1,5.8,8.8,8.4l0.3,0.5h22.9h22.9v28.3v28.3h20.3H247   l0.2-0.7c0.4-1.4,2-2.9,3.2-2.9c0.3,0,0.3-3.2,0.3-86.1v-86.1h-42c-23.1,0-42,0.1-42,0.1c0,14.9-12.2,28.5-28,31.1   c-19.5,3.3-38.7-12.2-38.7-31.1c0-0.1-19-0.1-42.2-0.1H15.7v86.1v86.1L16.6,372.9 M57.9,199.6c23.2,0,42.2-0.1,42.2-0.1   c0-15.3,12.5-29,28.6-31.3c19.5-2.8,38.1,12.4,38.1,31.3c0,0.1,18.9,0.1,42,0.1h42v-86.1V27.5l-0.7-0.2c-1-0.3-2.2-1.5-2.5-2.6   l-0.2-0.8h-20.5h-20.5v28.3v28.3h-22.9h-22.9l-0.8,1.1c-12.6,17.2-40.5,17.2-53.3,0l-0.8-1.1H82.8H60V52.2V24H39.9H19.7l-0.2,0.6   c-0.5,1.5-1.8,2.6-3.3,3l-0.5,0.1v86v86H57.9 M16.2,26.5c1.1-0.3,2.4-1.5,2.4-2.3c0-0.3-0.2-0.3-1.4-0.3h-1.4v1.3v1.3L16.2,26.5    M61.1,376.4c0.1,0.1,8.8,0.1,19.5,0.1H100l0-8.9l0-8.9h33.1l33.1,0l0,8.9l0,8.9h19.5h19.5v-27.8V321l-72.2,0H61v27.6   C61,363.8,61.1,376.3,61.1,376.4 M133.2,79.5h72.2V51.7V24h-19.5h-19.5v8.9v8.9l-33.1,0l-33.1,0l0-8.9l0-8.9l-19.5,0l-19.5,0   l0,27.7l0,27.7H133.2 M133.2,376.5l32.2,0v-8.3v-8.3h-32.2H101v8.3v8.3H133.2 M101.2,202.8c2,22,26.1,35,46.6,25.1   c9.8-4.7,16.8-14.5,17.6-24.7c0.1-0.7,0.1-1.6,0.2-2l0.1-0.6h-15h-15l-0.1,0.4c-0.3,0.8-1.3,1.5-2.2,1.5c-0.8,0-1.9-0.7-2.2-1.5   l-0.1-0.4h-15c-14.2,0-15,0-15,0.3C101.1,201.1,101.1,201.9,101.2,202.8 M101.1,199.5c0.1,0.1,6.8,0.1,15,0.1H131l0.3-0.6   c0.4-0.8,1.2-1.2,2.1-1.2c0.9,0,1.7,0.5,2.1,1.2l0.3,0.6h14.9c8.2,0,14.9-0.1,15-0.1c0.6-1-1.3-9.2-3-12.6   c-13.2-26.5-53.2-22.7-60.5,5.9C101.5,194.9,100.9,199.3,101.1,199.5 M101.1,40.7c0.1,0.1,14.5,0.1,32.2,0.1h32.1v-8.4V24l-32.1,0   l-32.1,0l0,8.3C101,36.9,101.1,40.6,101.1,40.7 M108.2,82c12.4,14.6,34.6,15.5,48,2.1c1.2-1.2,3.1-3.4,3.1-3.6   c0-0.1-11.7-0.1-26.1-0.1S107,80.5,107,80.6S107.5,81.3,108.2,82 M133.2,320c14.3,0,26,0,26-0.1c0-0.5-3.1-3.9-5.2-5.6   c-12.7-10.4-30.2-9.9-42.8,1.2c-1,0.9-3.6,3.7-3.9,4.3C107.2,319.9,110.4,320,133.2,320 M132.4,337.4c0.8-0.8,2.3-0.2,2.3,0.9   c0,0.7-0.6,1.3-1.3,1.3c-0.7,0-1.3-0.6-1.3-1.3C132,338,132.2,337.6,132.4,337.4 M132.4,62.2c0.7-0.9,2.3-0.3,2.3,0.8   c0,1-0.9,1.6-1.8,1.2C132,63.9,131.8,63,132.4,62.2 M132.8,201.3c0.5,0.3,0.6,0.3,1.2,0c0.9-0.4,0.7-0.6-0.6-0.6   C132.1,200.6,131.9,200.8,132.8,201.3 M133.4,199.6c1.2,0,1.4-0.1,0.9-0.6c-0.4-0.4-1.4-0.4-1.8,0   C132,199.6,132.1,199.6,133.4,199.6 M249.4,376.5h1.3v-1.3c0-1.4,0-1.4-0.8-1.2c-0.8,0.3-1.5,1.1-1.8,2.1   C248,376.5,248,376.5,249.4,376.5 M248.6,24.6c0.3,0.7,1.5,1.8,2.1,1.8c0.1,0,0.1-0.6,0.1-1.3V24h-1.2   C248.3,24,248.3,24,248.6,24.6"/>
</g>
</svg>