<?xml version="1.0" encoding="UTF-8" ?>
<!DOCTYPE svg PUBLIC "-//W3C//DTD SVG 1.1//EN" "http://www.w3.org/Graphics/SVG/1.1/DTD/svg11.dtd">
<svg width="1000pt" height="1000pt" viewBox="0 0 1000 1000" version="1.1" xmlns="http://www.w3.org/2000/svg">
<g id="#020202ff">
<path fill="#020202" opacity="1.00" d=" M 317.96 287.73 C 317.70 283.85 318.74 279.98 322.03 277.65 C 323.69 281.49 325.88 285.27 329.61 287.46 C 339.99 294.26 352.16 298.69 360.54 308.24 C 364.00 309.22 367.45 310.48 370.30 312.74 C 379.20 319.65 386.15 328.87 390.97 339.00 C 392.32 342.05 394.39 345.19 393.75 348.67 C 390.57 349.44 387.95 346.83 385.21 345.68 C 386.50 348.77 389.70 351.99 388.19 355.53 C 385.44 355.34 382.82 354.43 380.18 353.74 C 385.66 362.43 387.79 372.83 387.13 383.02 C 405.58 377.60 425.24 377.00 444.07 380.77 C 449.92 376.02 457.53 374.58 464.56 372.42 C 485.43 366.28 507.40 365.18 529.02 365.93 C 549.42 366.99 569.75 370.52 589.10 377.14 C 601.45 381.51 613.98 386.37 624.20 394.79 C 629.41 398.91 633.98 404.00 640.11 406.79 C 644.56 408.85 649.55 410.26 653.02 413.94 C 656.43 417.48 657.56 422.41 658.80 427.01 C 661.22 436.68 666.06 445.48 670.91 454.10 C 671.88 455.89 672.83 457.89 672.34 459.99 C 672.11 462.54 669.77 463.98 668.12 465.61 C 676.86 478.13 680.51 494.03 678.62 509.14 C 677.51 519.83 674.16 530.12 672.84 540.78 C 670.08 559.27 671.14 578.12 668.24 596.59 C 668.03 599.09 666.32 600.89 664.06 601.79 C 664.46 606.64 664.65 611.51 664.92 616.37 C 678.73 620.31 691.93 626.35 704.24 633.73 C 720.08 643.79 734.31 656.19 747.50 669.50 C 766.29 687.76 781.50 709.23 796.14 730.85 C 802.11 740.06 808.35 749.09 814.74 758.02 C 830.01 760.40 843.81 768.10 856.58 776.46 C 864.90 782.27 873.54 788.06 879.76 796.22 C 884.26 802.65 888.46 809.89 888.87 817.92 C 888.91 826.83 885.17 836.43 877.19 841.10 C 870.23 845.35 861.73 844.31 853.98 843.86 C 839.89 843.05 826.91 836.42 815.62 828.36 C 802.84 818.80 790.65 806.32 787.36 790.14 C 782.10 786.76 775.81 785.59 770.39 782.53 C 756.62 774.96 743.18 766.73 730.57 757.33 C 706.13 739.74 682.93 720.50 660.15 700.84 C 650.34 692.35 640.10 683.64 627.59 679.48 C 616.97 675.67 606.98 669.97 598.43 662.59 C 588.18 653.75 583.19 640.21 582.12 627.00 C 581.51 618.69 580.76 610.40 579.95 602.11 C 578.52 602.42 577.09 602.70 575.66 602.93 C 574.70 594.92 571.04 587.65 566.25 581.28 C 558.63 596.47 550.90 611.86 539.82 624.88 C 534.64 630.99 529.29 637.02 523.30 642.35 C 521.57 644.28 519.00 642.86 516.93 642.44 C 521.29 644.96 525.27 648.16 529.99 650.03 C 537.59 653.15 545.69 654.78 553.44 657.49 C 562.41 660.33 571.00 664.54 578.29 670.55 C 585.05 667.80 592.59 669.84 598.69 673.27 C 605.70 677.36 611.12 683.54 616.26 689.70 C 619.81 694.28 623.29 699.01 625.78 704.27 C 628.53 712.23 627.06 721.43 622.36 728.38 C 611.56 743.80 592.46 748.86 577.01 758.06 C 566.89 764.00 558.42 772.32 548.20 778.12 C 540.38 782.54 531.94 786.39 522.92 787.40 C 517.00 788.07 510.37 786.21 506.85 781.12 C 502.14 774.21 502.27 764.91 505.37 757.36 C 509.39 747.49 517.04 739.76 524.34 732.25 C 530.62 725.72 537.90 720.32 545.17 714.98 C 535.40 710.75 525.77 705.37 514.93 704.56 C 504.64 703.75 494.29 704.51 483.98 703.72 C 468.31 703.25 452.77 699.78 438.34 693.66 C 428.68 689.35 419.98 682.70 409.48 680.41 C 399.49 678.31 388.72 677.37 380.13 671.33 C 368.13 680.65 356.84 690.92 344.02 699.14 C 328.11 709.88 309.67 715.79 291.87 722.53 C 288.33 729.91 283.87 736.91 281.67 744.87 C 278.38 755.96 276.49 768.38 267.94 776.91 C 263.84 781.26 257.21 782.02 251.84 779.77 C 246.84 788.19 239.55 794.99 231.71 800.73 C 228.02 803.25 223.31 805.95 218.74 804.22 C 215.00 802.41 214.82 797.75 214.20 794.19 C 211.01 798.58 207.31 803.33 201.82 804.77 C 197.83 805.58 194.74 802.01 193.14 798.82 C 191.27 795.15 192.77 791.02 193.97 787.40 C 189.53 790.54 184.54 793.29 179.04 793.84 C 175.65 794.25 171.85 792.42 170.76 789.04 C 169.68 785.17 171.50 781.31 173.03 777.84 C 169.29 780.22 164.53 781.56 160.25 779.84 C 157.44 778.89 155.66 776.40 154.12 774.03 C 148.06 774.73 141.06 773.94 136.67 769.30 C 134.52 767.03 135.25 763.78 135.68 761.03 C 128.17 761.07 120.23 759.53 114.26 754.72 C 110.83 752.10 109.65 747.19 111.25 743.24 C 112.34 740.74 114.95 739.42 117.38 738.58 C 122.75 736.86 128.46 736.81 134.04 736.79 C 146.38 736.85 158.71 735.16 170.69 732.22 C 163.38 729.29 155.33 728.50 148.39 724.60 C 143.18 722.63 141.99 714.67 145.93 710.94 C 148.91 708.01 153.03 706.68 157.02 705.82 C 166.14 703.83 175.54 704.23 184.79 703.41 C 192.96 702.25 201.40 700.15 207.97 694.87 C 214.20 690.25 220.41 684.09 228.83 684.68 C 235.62 677.70 241.66 670.05 247.11 662.00 C 253.39 652.89 261.09 644.10 271.73 640.13 C 271.55 633.23 275.35 626.64 281.79 623.90 C 277.36 614.63 279.90 604.05 281.82 594.47 C 283.79 584.99 287.19 575.30 284.83 565.55 C 282.39 555.33 280.01 545.08 277.16 534.97 C 271.89 518.93 269.44 501.52 273.29 484.88 C 265.01 475.24 257.06 465.11 251.45 453.64 C 247.51 445.61 246.65 436.63 244.84 428.00 C 243.75 422.49 241.30 417.39 238.84 412.38 C 236.87 413.28 234.42 416.96 232.52 414.31 C 231.75 410.38 233.02 406.17 231.47 402.37 C 229.69 400.21 226.72 399.32 225.15 396.92 C 223.38 394.47 223.64 391.32 223.60 388.46 C 221.97 388.65 220.34 388.82 218.70 388.79 C 218.98 387.01 219.56 385.30 220.21 383.64 C 218.95 385.07 217.55 386.37 216.08 387.60 C 216.38 382.72 217.69 377.92 217.36 373.01 C 217.05 366.22 216.85 359.15 219.86 352.85 C 225.99 339.70 234.38 327.56 244.85 317.48 C 241.71 317.00 238.51 316.82 235.43 316.03 C 235.47 315.52 235.55 314.49 235.60 313.98 C 242.65 310.60 250.79 311.27 258.38 310.30 C 255.11 308.29 250.74 305.95 251.47 301.39 C 255.58 300.92 259.79 300.89 263.78 299.66 C 271.97 297.29 278.59 291.57 286.45 288.44 C 291.37 286.51 296.79 287.57 301.76 288.75 C 300.00 287.44 298.46 285.87 297.56 283.84 C 304.53 283.83 311.52 285.01 317.96 287.73 M 447.35 381.38 C 459.03 383.69 470.67 386.57 481.59 391.40 C 485.79 393.36 490.82 394.31 493.80 398.17 C 487.90 398.46 482.61 395.65 477.11 394.04 C 468.46 391.46 459.76 389.05 450.94 387.15 C 439.13 384.56 427.15 382.10 415.00 382.47 C 405.42 382.61 396.00 384.47 386.64 386.33 C 384.80 393.64 382.40 400.88 378.51 407.37 C 375.08 412.92 371.50 418.38 368.37 424.11 C 368.86 435.69 370.51 447.42 368.14 458.90 C 365.93 470.25 362.18 482.24 353.03 489.95 C 348.95 493.64 342.89 496.06 337.60 493.48 C 330.45 490.02 325.96 483.08 320.74 477.38 C 313.71 483.48 306.07 489.29 297.22 492.41 C 290.30 494.77 282.89 492.47 277.11 488.43 C 276.17 497.93 275.98 507.60 277.86 517.01 C 279.57 526.62 283.28 535.71 285.66 545.15 C 288.22 554.95 291.85 564.73 291.57 575.00 C 290.82 588.56 284.88 601.35 284.89 615.00 C 284.89 617.84 285.74 620.57 286.69 623.21 C 293.76 623.98 300.63 625.98 307.74 626.58 C 306.61 628.16 305.21 629.75 303.11 629.80 C 296.57 631.37 290.40 627.30 283.91 628.04 C 278.69 628.97 276.07 634.23 275.00 638.93 C 283.03 637.42 291.47 635.62 299.53 637.82 C 299.44 638.37 299.25 639.47 299.15 640.02 C 290.63 642.44 281.38 641.64 273.07 645.11 C 263.62 648.47 256.95 656.38 251.21 664.22 C 245.70 671.91 239.88 679.46 232.80 685.79 C 237.19 687.59 241.25 690.06 244.94 693.04 C 250.96 689.27 258.13 687.32 265.20 688.74 C 273.69 681.68 282.87 675.46 291.06 668.04 C 296.75 663.11 301.96 657.67 307.54 652.62 C 314.25 646.60 322.67 643.12 330.72 639.31 C 331.49 634.87 332.73 630.52 334.54 626.39 C 340.16 613.27 348.22 601.08 358.64 591.28 C 353.10 584.47 346.60 578.36 338.77 574.26 C 332.53 570.29 325.09 569.41 317.98 568.05 C 319.32 566.63 320.89 565.13 323.02 565.38 C 336.39 565.40 348.64 572.59 357.85 581.85 C 356.69 573.86 350.08 568.60 344.65 563.31 C 335.51 554.68 323.76 548.08 317.75 536.65 C 319.47 536.73 321.23 537.14 322.52 538.36 C 326.35 541.57 329.87 545.15 333.90 548.13 C 343.80 555.69 354.39 563.19 360.69 574.25 C 362.79 564.64 363.36 554.72 362.61 544.92 C 362.33 540.71 361.06 536.57 361.41 532.33 C 365.20 536.97 366.15 543.12 366.80 548.90 C 367.28 557.15 367.12 565.55 365.20 573.63 C 363.39 581.75 363.70 590.28 365.73 598.33 C 367.04 603.73 366.91 609.33 366.81 614.85 C 373.40 610.47 380.10 606.23 386.29 601.30 C 393.18 595.83 398.89 589.03 403.86 581.81 C 406.10 578.62 407.62 574.97 410.00 571.88 C 410.40 572.13 411.20 572.63 411.60 572.87 C 410.46 580.81 405.24 587.41 400.76 593.81 C 391.87 606.23 378.40 613.92 365.96 622.23 C 369.83 621.70 373.74 621.03 377.30 619.35 C 383.66 616.83 388.74 612.03 394.96 609.27 C 394.48 613.87 390.31 616.45 386.85 618.83 C 380.11 623.13 372.54 627.81 364.16 626.21 C 348.38 642.04 323.64 643.96 307.89 659.89 C 296.38 671.38 283.72 681.69 269.93 690.32 C 280.64 695.88 291.12 704.98 292.83 717.59 C 309.68 711.25 326.87 705.07 341.87 694.89 C 357.33 684.97 370.29 671.76 385.34 661.27 C 397.34 652.91 409.99 644.69 418.61 632.60 C 428.46 618.53 433.55 601.75 436.86 585.07 C 438.48 573.76 437.97 562.19 440.36 550.97 C 442.55 539.07 447.40 527.93 451.67 516.67 C 452.65 514.38 453.52 511.49 456.37 511.00 C 456.54 516.62 453.85 521.82 452.28 527.11 C 448.52 537.19 445.54 547.57 444.00 558.23 C 447.52 550.74 452.16 543.80 457.65 537.61 C 469.86 523.46 484.72 512.01 498.49 499.48 C 502.10 496.27 505.50 492.69 509.94 490.61 C 508.85 496.15 504.15 499.60 500.42 503.38 C 490.29 512.93 479.93 522.24 469.91 531.90 C 459.89 541.42 449.93 551.75 445.04 564.95 C 442.62 570.10 442.86 575.86 442.67 581.40 C 447.29 578.27 452.17 575.50 457.30 573.29 C 474.00 566.31 491.49 561.38 507.99 553.92 C 523.31 547.32 539.62 540.84 550.88 527.99 C 560.35 517.40 570.72 507.53 582.51 499.56 C 599.07 488.26 616.75 478.28 635.91 472.11 C 646.94 468.21 658.85 466.29 668.84 459.85 C 667.46 456.21 665.19 453.04 663.33 449.65 C 659.64 442.99 656.40 436.00 654.65 428.56 C 653.43 423.97 652.53 418.68 648.48 415.65 C 644.01 412.37 638.35 411.32 633.86 408.08 C 626.67 403.04 620.73 396.33 612.96 392.11 C 601.24 385.62 588.49 381.19 575.61 377.63 C 551.31 371.17 525.97 369.10 500.90 370.48 C 482.65 371.55 464.58 375.30 447.35 381.38 M 250.62 402.65 C 247.16 404.70 243.03 405.76 240.22 408.79 C 243.95 414.48 247.30 420.49 248.99 427.13 C 254.86 418.93 265.11 414.84 275.02 415.21 C 279.72 414.96 284.10 416.99 287.90 419.58 C 281.97 423.85 276.37 428.67 270.10 432.42 C 267.50 431.86 265.44 430.08 263.03 429.10 C 258.59 429.26 254.24 430.35 249.86 431.01 C 251.33 438.14 252.72 445.45 256.20 451.93 C 260.30 459.52 265.36 466.54 270.71 473.30 C 275.38 479.13 280.31 485.79 287.95 487.71 C 295.64 489.54 302.50 484.50 308.59 480.56 C 319.34 473.73 326.10 462.66 333.98 453.00 C 335.20 451.60 336.63 449.60 338.78 450.40 C 339.13 453.24 337.13 455.51 335.71 457.74 C 331.72 463.35 328.06 469.23 323.48 474.40 C 327.50 478.10 330.91 482.42 334.96 486.09 C 337.62 488.64 341.59 490.77 345.26 489.12 C 351.90 486.07 356.33 479.69 359.12 473.14 C 365.47 457.76 366.83 440.53 364.10 424.20 C 361.13 425.12 358.18 424.38 355.98 422.20 C 352.59 426.09 347.24 428.00 342.26 426.18 C 344.59 423.21 347.68 420.82 349.37 417.38 C 351.98 412.10 353.59 406.01 352.53 400.12 C 351.95 397.18 348.68 395.88 346.01 395.81 C 343.14 396.07 341.26 398.61 340.15 401.03 C 337.67 406.52 336.24 412.58 332.50 417.44 C 327.30 424.18 319.33 428.07 311.42 430.67 C 312.52 427.41 313.81 424.22 314.77 420.92 C 314.03 420.86 312.57 420.74 311.84 420.69 C 308.87 414.41 308.58 407.01 304.99 400.93 C 302.98 397.76 298.76 399.81 295.74 399.15 C 296.15 397.78 296.72 396.47 297.32 395.18 C 290.97 398.12 283.82 397.57 277.01 397.75 C 273.29 397.78 269.85 399.29 266.36 400.37 C 266.95 397.58 267.92 394.89 268.84 392.20 C 262.39 395.01 256.83 399.40 250.62 402.65 M 584.63 599.72 C 586.10 608.42 586.49 617.23 587.07 626.02 C 587.94 638.25 592.11 651.09 601.74 659.24 C 609.61 665.87 618.74 670.90 628.26 674.77 C 641.11 668.81 649.97 656.91 657.19 645.15 C 661.55 637.67 665.62 629.60 666.00 620.78 C 662.36 619.41 657.89 619.25 655.20 616.12 C 656.83 615.78 658.50 615.53 660.16 615.31 C 660.08 609.91 660.00 604.51 660.30 599.12 C 653.29 595.78 645.81 593.39 638.09 592.45 C 620.03 590.21 601.53 593.08 584.63 599.72 M 335.21 637.39 C 341.50 634.79 347.66 631.87 353.62 628.57 C 354.38 621.62 357.16 614.92 362.00 609.82 C 362.08 605.03 361.50 600.26 360.35 595.61 C 349.29 607.65 340.53 621.91 335.21 637.39 M 435.83 610.25 C 431.78 621.46 426.24 632.31 418.34 641.32 C 408.46 652.48 395.47 660.03 383.60 668.79 C 392.35 673.30 402.31 674.49 411.92 675.91 C 415.99 674.96 419.74 672.97 423.63 671.47 C 431.03 668.21 438.76 665.30 445.14 660.20 C 450.86 655.60 456.31 650.42 459.92 643.95 C 463.03 638.46 464.38 632.19 465.16 625.99 C 454.51 638.84 440.14 647.65 426.83 657.40 C 427.06 654.93 428.34 652.79 430.25 651.26 C 441.56 641.31 454.74 633.35 464.31 621.51 C 454.73 617.97 444.87 615.08 435.83 610.25 M 361.95 614.61 C 359.78 618.16 358.24 622.05 357.40 626.13 C 360.92 623.31 362.02 618.94 361.95 614.61 M 470.17 623.52 C 470.18 624.24 470.20 625.67 470.20 626.39 C 475.86 627.06 481.42 628.28 486.99 629.44 C 481.42 627.37 475.78 625.49 470.17 623.52 M 581.39 673.18 C 584.07 676.48 587.14 679.77 588.11 684.04 C 590.05 691.61 588.22 699.72 584.35 706.37 C 581.38 711.39 577.50 716.60 571.64 718.31 C 563.94 720.49 555.97 718.36 548.51 716.25 C 540.34 723.49 532.81 731.39 525.23 739.24 C 519.71 745.14 514.03 751.19 510.72 758.68 C 508.06 764.53 507.47 771.68 510.49 777.52 C 512.26 780.99 516.22 782.71 519.98 782.64 C 527.53 782.69 534.63 779.53 541.28 776.25 C 554.94 769.49 565.45 757.93 579.00 751.00 C 590.74 744.53 603.98 740.26 613.84 730.83 C 619.70 725.41 623.92 717.19 622.13 709.07 C 620.12 702.46 615.81 696.84 611.37 691.66 C 606.32 686.05 601.18 680.18 594.36 676.70 C 590.34 674.58 585.81 673.87 581.39 673.18 M 223.58 690.31 C 215.90 693.58 210.64 700.68 202.98 704.02 C 195.15 707.43 186.56 708.96 178.03 708.90 C 169.78 709.09 161.29 708.94 153.36 711.52 C 150.21 712.49 146.54 715.16 147.80 718.94 C 155.47 726.65 169.57 722.68 176.10 732.05 C 174.71 734.62 171.55 735.20 169.04 736.16 C 158.32 739.26 147.18 740.98 136.02 741.13 C 130.47 741.28 124.78 740.93 119.39 742.48 C 117.28 743.09 114.50 744.34 114.91 747.03 C 115.17 751.13 119.56 752.96 122.86 754.27 C 128.33 755.98 134.18 757.26 139.92 756.66 C 147.81 752.13 155.82 746.11 165.42 746.52 C 157.38 753.18 145.72 755.67 140.14 765.10 C 142.99 768.77 148.42 769.84 152.75 768.68 C 160.83 764.91 164.25 755.10 172.72 751.96 C 170.34 760.53 163.21 766.37 157.37 772.61 C 159.67 774.15 162.17 775.37 164.78 776.31 C 165.34 771.85 166.12 767.30 168.38 763.35 C 171.91 756.44 178.40 751.85 184.83 747.90 C 198.77 739.21 211.45 728.61 222.89 716.84 C 229.16 710.18 234.71 702.89 240.87 696.14 C 236.08 692.33 229.91 688.48 223.58 690.31 M 252.06 694.04 C 243.87 697.86 239.11 705.88 233.43 712.50 C 220.38 728.15 204.52 741.37 187.37 752.31 C 182.78 755.29 177.97 758.27 174.76 762.82 C 172.39 766.05 171.18 769.91 170.05 773.70 C 177.76 770.84 184.05 765.41 190.55 760.55 C 195.34 756.99 199.59 752.58 205.02 749.96 C 206.75 749.15 210.65 748.49 209.58 751.54 C 200.33 757.47 192.31 765.05 183.39 771.44 C 178.37 774.90 175.09 780.85 174.91 786.93 C 175.03 788.93 177.33 789.51 179.00 789.29 C 184.56 788.55 189.62 785.49 193.54 781.56 C 200.82 774.07 206.33 765.05 213.63 757.56 C 215.63 755.59 218.33 753.18 221.31 754.68 C 214.31 763.87 205.99 772.15 200.23 782.25 C 198.33 785.94 196.55 789.85 196.12 794.03 C 195.84 797.06 198.45 799.19 200.02 801.47 C 203.16 799.59 206.31 797.53 208.46 794.51 C 214.57 786.24 217.64 776.29 222.21 767.20 C 224.65 762.37 229.30 758.65 234.86 758.46 C 231.66 762.39 227.42 765.60 225.44 770.41 C 223.24 775.57 221.03 780.73 218.82 785.90 C 216.96 790.46 216.32 796.32 219.59 800.41 C 221.81 801.43 224.22 800.19 226.20 799.19 C 230.95 796.44 235.02 792.71 238.92 788.90 C 242.46 785.28 246.09 781.52 248.15 776.82 C 249.26 774.30 247.25 771.86 246.53 769.52 C 243.28 762.46 245.87 754.50 248.87 747.84 C 249.50 745.91 251.22 744.82 252.88 743.87 C 252.79 751.37 248.15 758.39 249.81 765.95 C 251.17 770.13 253.72 774.57 258.00 776.24 C 261.72 776.23 264.58 773.43 266.56 770.57 C 271.24 763.85 272.96 755.69 274.92 747.89 C 276.82 740.19 279.61 732.66 283.92 725.97 C 286.38 722.01 288.95 716.97 286.63 712.37 C 283.10 704.98 276.59 699.42 269.59 695.43 C 264.35 692.46 257.62 691.11 252.06 694.04 M 805.34 763.53 C 798.42 765.60 793.18 771.74 791.75 778.75 C 790.13 786.87 791.91 795.63 796.44 802.55 C 806.69 817.05 821.01 828.63 837.33 835.64 C 847.40 839.99 858.79 841.44 869.57 839.33 C 877.30 837.62 882.64 830.51 883.84 822.93 C 885.65 815.42 881.93 808.16 878.02 802.01 C 873.47 794.65 866.37 789.46 859.36 784.66 C 847.81 776.62 835.37 769.89 822.39 764.48 C 817.02 762.24 810.90 761.68 805.34 763.53 Z" />
<path fill="#020202" opacity="1.00" d=" M 619.54 435.55 C 621.82 433.16 622.64 429.31 625.77 427.83 C 626.09 429.85 625.87 431.95 624.85 433.77 C 621.61 440.19 616.76 445.60 612.10 451.03 C 601.79 462.69 591.33 474.32 579.32 484.28 C 577.58 485.78 575.55 486.89 573.42 487.74 C 576.70 482.11 581.92 478.04 586.33 473.34 C 598.00 461.29 608.95 448.55 619.54 435.55 Z" />
<path fill="#020202" opacity="1.00" d=" M 575.59 448.57 C 578.57 444.42 580.97 439.75 584.98 436.44 C 584.47 441.51 581.50 445.74 578.92 449.96 C 571.77 461.25 564.00 472.15 555.56 482.51 C 544.11 496.63 532.21 510.50 518.39 522.37 C 510.58 529.32 502.04 535.35 493.78 541.72 C 489.45 544.95 485.95 549.27 481.08 551.75 C 482.25 547.51 485.55 544.50 488.59 541.55 C 493.52 536.76 499.11 532.75 504.47 528.46 C 516.60 518.73 527.77 507.82 537.86 495.98 C 551.02 480.67 564.06 465.18 575.59 448.57 Z" />
</g>
<g id="#f25e11ff">
<path fill="var(--shirt-color, grey)" opacity="1.00" d=" M 447.35 381.38 C 464.58 375.30 482.65 371.55 500.90 370.48 C 525.97 369.10 551.31 371.17 575.61 377.63 C 588.49 381.19 601.24 385.62 612.96 392.11 C 620.73 396.33 626.67 403.04 633.86 408.08 C 638.35 411.32 644.01 412.37 648.48 415.65 C 652.53 418.68 653.43 423.97 654.65 428.56 C 656.40 436.00 659.64 442.99 663.33 449.65 C 665.19 453.04 667.46 456.21 668.84 459.85 C 658.85 466.29 646.94 468.21 635.91 472.11 C 616.75 478.28 599.07 488.26 582.51 499.56 C 570.72 507.53 560.35 517.40 550.88 527.99 C 539.62 540.84 523.31 547.32 507.99 553.92 C 491.49 561.38 474.00 566.31 457.30 573.29 C 452.17 575.50 447.29 578.27 442.67 581.40 C 442.86 575.86 442.62 570.10 445.04 564.95 C 449.93 551.75 459.89 541.42 469.91 531.90 C 479.93 522.24 490.29 512.93 500.42 503.38 C 504.15 499.60 508.85 496.15 509.94 490.61 C 505.50 492.69 502.10 496.27 498.49 499.48 C 484.72 512.01 469.86 523.46 457.65 537.61 C 452.16 543.80 447.52 550.74 444.00 558.23 C 445.54 547.57 448.52 537.19 452.28 527.11 C 453.85 521.82 456.54 516.62 456.37 511.00 C 453.52 511.49 452.65 514.38 451.67 516.67 C 447.40 527.93 442.55 539.07 440.36 550.97 C 437.97 562.19 438.48 573.76 436.86 585.07 C 433.55 601.75 428.46 618.53 418.61 632.60 C 409.99 644.69 397.34 652.91 385.34 661.27 C 370.29 671.76 357.33 684.97 341.87 694.89 C 326.87 705.07 309.68 711.25 292.83 717.59 C 291.12 704.98 280.64 695.88 269.93 690.32 C 283.72 681.69 296.38 671.38 307.89 659.89 C 323.64 643.96 348.38 642.04 364.16 626.21 C 372.54 627.81 380.11 623.13 386.85 618.83 C 390.31 616.45 394.48 613.87 394.96 609.27 C 388.74 612.03 383.66 616.83 377.30 619.35 C 373.74 621.03 369.83 621.70 365.96 622.23 C 378.40 613.92 391.87 606.23 400.76 593.81 C 405.24 587.41 410.46 580.81 411.60 572.87 C 411.20 572.63 410.40 572.13 410.00 571.88 C 407.62 574.97 406.10 578.62 403.86 581.81 C 398.89 589.03 393.18 595.83 386.29 601.30 C 380.10 606.23 373.40 610.47 366.81 614.85 C 366.91 609.33 367.04 603.73 365.73 598.33 C 363.70 590.28 363.39 581.75 365.20 573.63 C 367.12 565.55 367.28 557.15 366.80 548.90 C 366.15 543.12 365.20 536.97 361.41 532.33 C 361.06 536.57 362.33 540.71 362.61 544.92 C 363.36 554.72 362.79 564.64 360.69 574.25 C 354.39 563.19 343.80 555.69 333.90 548.13 C 329.87 545.15 326.35 541.57 322.52 538.36 C 321.23 537.14 319.47 536.73 317.75 536.65 C 323.76 548.08 335.51 554.68 344.65 563.31 C 350.08 568.60 356.69 573.86 357.85 581.85 C 348.64 572.59 336.39 565.40 323.02 565.38 C 320.89 565.13 319.32 566.63 317.98 568.05 C 325.09 569.41 332.53 570.29 338.77 574.26 C 346.60 578.36 353.10 584.47 358.64 591.28 C 348.22 601.08 340.16 613.27 334.54 626.39 C 332.73 630.52 331.49 634.87 330.72 639.31 C 322.67 643.12 314.25 646.60 307.54 652.62 C 301.96 657.67 296.75 663.11 291.06 668.04 C 282.87 675.46 273.69 681.68 265.20 688.74 C 258.13 687.32 250.96 689.27 244.94 693.04 C 241.25 690.06 237.19 687.59 232.80 685.79 C 239.88 679.46 245.70 671.91 251.21 664.22 C 256.95 656.38 263.62 648.47 273.07 645.11 C 281.38 641.64 290.63 642.44 299.15 640.02 C 299.25 639.47 299.44 638.37 299.53 637.82 C 291.47 635.62 283.03 637.42 275.00 638.93 C 276.07 634.23 278.69 628.97 283.91 628.04 C 290.40 627.30 296.57 631.37 303.11 629.80 C 305.21 629.75 306.61 628.16 307.74 626.58 C 300.63 625.98 293.76 623.98 286.69 623.21 C 285.74 620.57 284.89 617.84 284.89 615.00 C 284.88 601.35 290.82 588.56 291.57 575.00 C 291.85 564.73 288.22 554.95 285.66 545.15 C 283.28 535.71 279.57 526.62 277.86 517.01 C 275.98 507.60 276.17 497.93 277.11 488.43 C 282.89 492.47 290.30 494.77 297.22 492.41 C 306.07 489.29 313.71 483.48 320.74 477.38 C 325.96 483.08 330.45 490.02 337.60 493.48 C 342.89 496.06 348.95 493.64 353.03 489.95 C 362.18 482.24 365.93 470.25 368.14 458.90 C 370.51 447.42 368.86 435.69 368.37 424.11 C 371.50 418.38 375.08 412.92 378.51 407.37 C 382.40 400.88 384.80 393.64 386.64 386.33 C 396.00 384.47 405.42 382.61 415.00 382.47 C 427.15 382.10 439.13 384.56 450.94 387.15 C 459.76 389.05 468.46 391.46 477.11 394.04 C 482.61 395.65 487.90 398.46 493.80 398.17 C 490.82 394.31 485.79 393.36 481.59 391.40 C 470.67 386.57 459.03 383.69 447.35 381.38 M 619.54 435.55 C 608.95 448.55 598.00 461.29 586.33 473.34 C 581.92 478.04 576.70 482.11 573.42 487.74 C 575.55 486.89 577.58 485.78 579.32 484.28 C 591.33 474.32 601.79 462.69 612.10 451.03 C 616.76 445.60 621.61 440.19 624.85 433.77 C 625.87 431.95 626.09 429.85 625.77 427.83 C 622.64 429.31 621.82 433.16 619.54 435.55 M 575.59 448.57 C 564.06 465.18 551.02 480.67 537.86 495.98 C 527.77 507.82 516.60 518.73 504.47 528.46 C 499.11 532.75 493.52 536.76 488.59 541.55 C 485.55 544.50 482.25 547.51 481.08 551.75 C 485.95 549.27 489.45 544.95 493.78 541.72 C 502.04 535.35 510.58 529.32 518.39 522.37 C 532.21 510.50 544.11 496.63 555.56 482.51 C 564.00 472.15 571.77 461.25 578.92 449.96 C 581.50 445.74 584.47 441.51 584.98 436.44 C 580.97 439.75 578.57 444.42 575.59 448.57 Z" />
</g>
<g id="#f0b58bff">
<path fill="#f0b58b" opacity="1.00" d=" M 250.62 402.65 C 256.83 399.40 262.39 395.01 268.84 392.20 C 267.92 394.89 266.95 397.58 266.36 400.37 C 269.85 399.29 273.29 397.78 277.01 397.75 C 283.82 397.57 290.97 398.12 297.32 395.18 C 296.72 396.47 296.15 397.78 295.74 399.15 C 298.76 399.81 302.98 397.76 304.99 400.93 C 308.58 407.01 308.87 414.41 311.84 420.69 C 312.57 420.74 314.03 420.86 314.77 420.92 C 313.81 424.22 312.52 427.41 311.42 430.67 C 319.33 428.07 327.30 424.18 332.50 417.44 C 336.24 412.58 337.67 406.52 340.15 401.03 C 341.26 398.61 343.14 396.07 346.01 395.81 C 348.68 395.88 351.95 397.18 352.53 400.12 C 353.59 406.01 351.98 412.10 349.37 417.38 C 347.68 420.82 344.59 423.21 342.26 426.18 C 347.24 428.00 352.59 426.09 355.98 422.20 C 358.18 424.38 361.13 425.12 364.10 424.20 C 366.83 440.53 365.47 457.76 359.12 473.14 C 356.33 479.69 351.90 486.07 345.26 489.12 C 341.59 490.77 337.62 488.64 334.96 486.09 C 330.91 482.42 327.50 478.10 323.48 474.40 C 328.06 469.23 331.72 463.35 335.71 457.74 C 337.13 455.51 339.13 453.24 338.78 450.40 C 336.63 449.60 335.20 451.60 333.98 453.00 C 326.10 462.66 319.34 473.73 308.59 480.56 C 302.50 484.50 295.64 489.54 287.95 487.71 C 280.31 485.79 275.38 479.13 270.71 473.30 C 265.36 466.54 260.30 459.52 256.20 451.93 C 252.72 445.45 251.33 438.14 249.86 431.01 C 254.24 430.35 258.59 429.26 263.03 429.10 C 265.44 430.08 267.50 431.86 270.10 432.42 C 276.37 428.67 281.97 423.85 287.90 419.58 C 284.10 416.99 279.72 414.96 275.02 415.21 C 265.11 414.84 254.86 418.93 248.99 427.13 C 247.30 420.49 243.95 414.48 240.22 408.79 C 243.03 405.76 247.16 404.70 250.62 402.65 Z" />
<path fill="#f0b58b" opacity="1.00" d=" M 584.63 599.72 C 601.53 593.08 620.03 590.21 638.09 592.45 C 645.81 593.39 653.29 595.78 660.30 599.12 C 660.00 604.51 660.08 609.91 660.16 615.31 C 658.50 615.53 656.83 615.78 655.20 616.12 C 657.89 619.25 662.36 619.41 666.00 620.78 C 665.62 629.60 661.55 637.67 657.19 645.15 C 649.97 656.91 641.11 668.81 628.26 674.77 C 618.74 670.90 609.61 665.87 601.74 659.24 C 592.11 651.09 587.94 638.25 587.07 626.02 C 586.49 617.23 586.10 608.42 584.63 599.72 Z" />
<path fill="#f0b58b" opacity="1.00" d=" M 435.83 610.25 C 444.87 615.08 454.73 617.97 464.31 621.51 C 454.74 633.35 441.56 641.31 430.25 651.26 C 428.34 652.79 427.06 654.93 426.83 657.40 C 440.14 647.65 454.51 638.84 465.16 625.99 C 464.38 632.19 463.03 638.46 459.92 643.95 C 456.31 650.42 450.86 655.60 445.14 660.20 C 438.76 665.30 431.03 668.21 423.63 671.47 C 419.74 672.97 415.99 674.96 411.92 675.91 C 402.31 674.49 392.35 673.30 383.60 668.79 C 395.47 660.03 408.46 652.48 418.34 641.32 C 426.24 632.31 431.78 621.46 435.83 610.25 Z" />
<path fill="#f0b58b" opacity="1.00" d=" M 361.95 614.61 C 362.02 618.94 360.92 623.31 357.40 626.13 C 358.24 622.05 359.78 618.16 361.95 614.61 Z" />
</g>
<g id="#4d4d4dff">
<path fill="#4d4d4d" opacity="1.00" d=" M 581.39 673.18 C 585.81 673.87 590.34 674.58 594.36 676.70 C 601.18 680.18 606.32 686.05 611.37 691.66 C 615.81 696.84 620.12 702.46 622.13 709.07 C 623.92 717.19 619.70 725.41 613.84 730.83 C 603.98 740.26 590.74 744.53 579.00 751.00 C 565.45 757.93 554.94 769.49 541.28 776.25 C 534.63 779.53 527.53 782.69 519.98 782.64 C 516.22 782.71 512.26 780.99 510.49 777.52 C 507.47 771.68 508.06 764.53 510.72 758.68 C 514.03 751.19 519.71 745.14 525.23 739.24 C 532.81 731.39 540.34 723.49 548.51 716.25 C 555.97 718.36 563.94 720.49 571.64 718.31 C 577.50 716.60 581.38 711.39 584.35 706.37 C 588.22 699.72 590.05 691.61 588.11 684.04 C 587.14 679.77 584.07 676.48 581.39 673.18 Z" />
<path fill="#4d4d4d" opacity="1.00" d=" M 223.58 690.31 C 229.91 688.48 236.08 692.33 240.87 696.14 C 234.71 702.89 229.16 710.18 222.89 716.84 C 211.45 728.61 198.77 739.21 184.83 747.90 C 178.40 751.85 171.91 756.44 168.38 763.35 C 166.12 767.30 165.34 771.85 164.78 776.31 C 162.17 775.37 159.67 774.15 157.37 772.61 C 163.21 766.37 170.34 760.53 172.72 751.96 C 164.25 755.10 160.83 764.91 152.75 768.68 C 148.42 769.84 142.99 768.77 140.14 765.10 C 145.72 755.67 157.38 753.18 165.42 746.52 C 155.82 746.11 147.81 752.13 139.92 756.66 C 134.18 757.26 128.33 755.98 122.86 754.27 C 119.56 752.96 115.17 751.13 114.91 747.03 C 114.50 744.34 117.28 743.09 119.39 742.48 C 124.78 740.93 130.47 741.28 136.02 741.13 C 147.18 740.98 158.32 739.26 169.04 736.16 C 171.55 735.20 174.71 734.62 176.10 732.05 C 169.57 722.68 155.47 726.65 147.80 718.94 C 146.54 715.16 150.21 712.49 153.36 711.52 C 161.29 708.94 169.78 709.09 178.03 708.90 C 186.56 708.96 195.15 707.43 202.98 704.02 C 210.64 700.68 215.90 693.58 223.58 690.31 Z" />
<path fill="#4d4d4d" opacity="1.00" d=" M 252.06 694.04 C 257.62 691.11 264.35 692.46 269.59 695.43 C 276.59 699.42 283.10 704.98 286.63 712.37 C 288.95 716.97 286.38 722.01 283.92 725.97 C 279.61 732.66 276.82 740.19 274.92 747.89 C 272.96 755.69 271.24 763.85 266.56 770.57 C 264.58 773.43 261.72 776.23 258.00 776.24 C 253.72 774.57 251.17 770.13 249.81 765.95 C 248.15 758.39 252.79 751.37 252.88 743.87 C 251.22 744.82 249.50 745.91 248.87 747.84 C 245.87 754.50 243.28 762.46 246.53 769.52 C 247.25 771.86 249.26 774.30 248.15 776.82 C 246.09 781.52 242.46 785.28 238.92 788.90 C 235.02 792.71 230.95 796.44 226.20 799.19 C 224.22 800.19 221.81 801.43 219.59 800.41 C 216.32 796.32 216.96 790.46 218.82 785.90 C 221.03 780.73 223.24 775.57 225.44 770.41 C 227.42 765.60 231.66 762.39 234.86 758.46 C 229.30 758.65 224.65 762.37 222.21 767.20 C 217.64 776.29 214.57 786.24 208.46 794.51 C 206.31 797.53 203.16 799.59 200.02 801.47 C 198.45 799.19 195.84 797.06 196.12 794.03 C 196.55 789.85 198.33 785.94 200.23 782.25 C 205.99 772.15 214.31 763.87 221.31 754.68 C 218.33 753.18 215.63 755.59 213.63 757.56 C 206.33 765.05 200.82 774.07 193.54 781.56 C 189.62 785.49 184.56 788.55 179.00 789.29 C 177.33 789.51 175.03 788.93 174.91 786.93 C 175.09 780.85 178.37 774.90 183.39 771.44 C 192.31 765.05 200.33 757.47 209.58 751.54 C 210.65 748.49 206.75 749.15 205.02 749.96 C 199.59 752.58 195.34 756.99 190.55 760.55 C 184.05 765.41 177.76 770.84 170.05 773.70 C 171.18 769.91 172.39 766.05 174.76 762.82 C 177.97 758.27 182.78 755.29 187.37 752.31 C 204.52 741.37 220.38 728.15 233.43 712.50 C 239.11 705.88 243.87 697.86 252.06 694.04 Z" />
<path fill="#4d4d4d" opacity="1.00" d=" M 805.34 763.53 C 810.90 761.68 817.02 762.24 822.39 764.48 C 835.37 769.89 847.81 776.62 859.36 784.66 C 866.37 789.46 873.47 794.65 878.02 802.01 C 881.93 808.16 885.65 815.42 883.84 822.93 C 882.64 830.51 877.30 837.62 869.57 839.33 C 858.79 841.44 847.40 839.99 837.33 835.64 C 821.01 828.63 806.69 817.05 796.44 802.55 C 791.91 795.63 790.13 786.87 791.75 778.75 C 793.18 771.74 798.42 765.60 805.34 763.53 Z" />
</g>
</svg>
