<?xml version="1.0" encoding="UTF-8" ?>
<!DOCTYPE svg PUBLIC "-//W3C//DTD SVG 1.1//EN" "http://www.w3.org/Graphics/SVG/1.1/DTD/svg11.dtd">
<svg width="1000pt" height="1000pt" viewBox="0 0 1000 1000" version="1.1" xmlns="http://www.w3.org/2000/svg">
<g id="#020202ff">
<path fill="#020202" opacity="1.00" d=" M 472.29 40.07 C 481.48 36.69 491.37 36.85 500.98 35.83 C 505.52 35.38 509.97 36.69 514.33 37.78 C 523.47 40.26 532.54 43.52 540.52 48.72 C 539.71 48.74 538.08 48.78 537.27 48.80 C 546.54 53.94 555.97 59.64 562.42 68.27 C 561.53 71.78 558.18 69.68 556.01 68.83 C 563.83 75.82 571.73 83.66 574.84 93.97 C 576.36 98.92 578.05 104.67 575.51 109.57 C 574.07 112.58 570.41 113.46 568.58 116.04 C 567.35 122.31 568.98 128.69 568.77 135.02 C 568.60 141.25 569.08 148.13 565.64 153.63 C 563.66 156.84 559.82 157.96 556.25 157.29 C 558.90 164.51 559.21 172.90 555.40 179.77 C 556.56 186.19 558.92 192.35 562.11 198.02 C 566.60 202.48 571.44 206.59 575.87 211.14 C 582.63 218.37 590.32 224.91 595.51 233.46 C 608.40 254.43 613.88 278.93 616.81 303.09 C 619.11 320.98 616.84 339.28 620.94 356.96 C 624.53 372.06 628.38 387.35 627.69 403.00 C 627.15 414.59 627.68 427.14 621.51 437.45 C 619.67 440.91 614.70 443.44 616.13 447.96 C 619.59 461.35 623.51 475.00 622.30 488.99 C 621.91 498.89 618.28 508.24 614.19 517.13 C 611.64 530.18 605.94 542.37 600.49 554.44 C 593.75 567.63 587.04 581.03 577.59 592.55 C 568.38 603.80 557.05 613.29 544.42 620.50 C 533.83 627.08 522.01 631.21 510.76 636.45 C 506.49 646.16 502.15 655.90 499.45 666.18 C 498.12 670.70 497.39 675.38 495.80 679.82 C 495.22 681.83 493.02 683.07 491.00 682.70 C 483.05 681.63 476.41 676.48 471.20 670.66 C 462.35 677.87 454.97 688.17 455.04 700.03 C 455.38 712.45 462.37 723.18 466.41 734.59 C 472.75 749.22 476.73 764.72 480.91 780.07 C 485.21 797.49 488.60 815.15 490.88 832.96 C 493.09 855.15 494.58 878.08 488.32 899.79 C 493.84 906.37 500.07 912.76 502.75 921.15 C 504.81 926.97 505.38 933.77 502.51 939.42 C 499.11 945.08 492.57 948.67 485.97 948.63 C 476.16 949.04 467.27 944.02 459.31 938.86 C 461.75 948.83 457.23 959.16 450.07 966.03 C 439.80 974.80 426.11 977.79 413.09 979.75 C 399.40 981.43 385.68 983.08 371.89 983.73 C 358.47 983.96 344.62 984.52 331.74 980.10 C 326.68 978.26 321.59 974.49 320.27 969.03 C 319.19 959.80 326.00 951.66 334.02 948.04 C 343.50 943.79 353.79 941.80 363.67 938.71 C 370.29 936.62 376.69 933.87 383.03 931.04 C 387.45 928.98 392.06 927.03 395.71 923.71 C 398.03 921.60 400.17 919.31 402.54 917.25 C 396.35 900.44 394.84 882.43 391.07 865.02 C 382.36 823.71 368.40 783.32 365.17 740.99 C 364.58 731.28 364.77 721.39 362.13 711.95 C 359.64 702.20 351.23 695.08 349.74 684.95 C 348.37 675.42 350.95 665.65 355.16 657.12 C 359.46 648.16 365.45 640.18 370.99 631.98 C 374.49 626.89 379.04 622.60 382.39 617.40 C 384.59 613.94 386.54 610.33 388.87 606.96 C 398.28 595.14 406.02 582.08 415.09 569.99 C 420.60 562.91 425.41 555.29 431.35 548.55 C 427.39 548.42 421.98 548.14 420.40 543.72 C 419.28 538.02 422.93 532.67 426.63 528.68 C 430.44 524.94 433.60 520.62 437.10 516.60 C 422.02 522.22 406.28 527.81 389.94 526.73 C 386.32 526.62 382.39 523.04 384.30 519.25 C 387.43 513.00 393.75 509.17 399.51 505.62 C 394.46 505.60 388.49 506.27 384.41 502.63 C 381.42 499.90 382.04 495.20 384.22 492.17 C 388.59 485.92 395.70 481.94 403.16 480.67 C 397.28 479.39 390.42 477.36 387.58 471.51 C 385.89 467.66 389.14 464.06 392.35 462.39 C 402.73 456.47 415.21 456.80 426.78 456.97 C 421.55 454.78 416.18 451.64 413.82 446.21 C 411.52 441.66 412.49 434.76 417.68 432.72 C 423.41 430.65 429.65 432.29 435.32 433.79 C 444.79 436.69 454.00 440.43 463.61 442.89 C 462.71 430.27 463.25 417.61 463.13 404.97 C 462.95 390.62 464.05 376.30 463.85 361.95 C 463.53 337.93 463.16 313.89 461.26 289.93 C 460.46 276.50 458.60 262.50 463.50 249.58 C 465.86 242.43 470.97 236.38 477.15 232.21 C 480.78 230.95 484.80 230.52 487.76 227.78 C 489.38 217.45 491.50 206.92 489.34 196.48 C 481.84 199.43 474.20 202.95 465.95 202.53 C 456.69 202.32 446.08 200.79 439.93 193.06 C 434.12 186.88 432.47 178.31 430.40 170.39 C 428.65 163.06 420.50 159.49 419.08 151.97 C 418.49 149.71 420.39 148.15 421.77 146.72 C 425.57 143.16 426.79 137.83 427.55 132.88 C 428.49 124.03 428.59 115.11 428.96 106.22 C 425.92 107.09 420.57 107.56 420.53 103.05 C 420.65 94.88 421.44 85.52 427.68 79.50 C 437.97 69.11 448.92 59.04 462.01 52.26 C 458.10 53.51 454.19 54.78 450.15 55.51 C 454.56 47.15 463.79 43.05 472.29 40.07 M 432.62 104.82 C 432.68 108.48 432.88 112.13 433.17 115.77 C 435.82 114.18 438.83 113.04 441.98 113.31 C 451.02 113.91 459.39 119.47 464.12 127.10 C 463.11 128.01 462.36 129.50 460.86 129.61 C 455.91 130.11 450.91 129.79 445.95 129.72 C 444.16 129.53 442.07 129.71 440.66 128.40 C 439.61 126.99 439.97 125.10 439.77 123.45 C 437.68 122.88 435.58 122.30 433.50 121.71 C 433.66 132.13 433.90 144.93 424.65 151.85 C 426.51 155.04 429.09 157.67 431.63 160.32 C 436.57 166.00 436.88 173.80 439.43 180.57 C 441.32 186.01 445.20 190.96 450.40 193.57 C 459.79 196.96 470.43 197.66 479.90 194.16 C 483.53 193.14 486.97 190.87 490.86 191.16 C 493.58 191.49 494.56 194.46 495.01 196.76 C 496.51 204.77 495.63 212.97 494.43 220.95 C 498.19 216.52 501.39 211.63 505.47 207.48 C 514.78 197.27 528.54 192.49 541.96 190.90 C 545.66 190.46 549.36 191.09 552.94 191.99 C 549.97 185.10 548.79 177.64 547.32 170.33 C 544.09 168.35 541.55 165.52 539.37 162.46 C 538.79 167.32 539.35 172.22 539.11 177.08 C 537.44 180.18 534.15 177.17 532.60 175.50 C 522.75 164.99 521.59 149.89 515.75 137.31 C 513.80 132.62 507.66 128.40 502.96 132.09 C 496.92 135.57 497.08 143.19 495.15 149.07 C 494.74 151.18 493.01 152.51 491.29 153.58 C 490.40 143.59 491.16 132.85 486.16 123.79 C 483.23 119.17 478.59 113.81 472.46 115.13 C 465.69 116.31 458.43 116.09 452.30 112.66 C 447.04 109.64 442.14 106.02 436.85 103.02 C 435.43 103.61 434.03 104.21 432.62 104.82 M 514.78 205.79 C 504.11 213.46 498.69 226.42 487.62 233.64 C 485.05 235.53 481.76 235.66 478.92 236.88 C 474.12 240.55 469.95 245.36 468.13 251.23 C 463.23 265.16 465.39 280.29 467.69 294.53 C 469.57 305.85 471.85 317.19 476.21 327.86 C 482.59 343.63 490.30 358.81 498.07 373.94 C 500.28 378.44 503.43 382.60 504.35 387.64 C 501.98 386.94 500.09 385.31 498.79 383.26 C 494.65 377.18 491.29 370.62 487.88 364.12 C 480.57 349.63 472.98 335.15 468.18 319.59 C 468.92 341.73 469.63 363.90 468.39 386.03 C 467.45 405.30 468.14 424.61 467.63 443.89 C 471.69 444.28 476.37 445.74 479.89 442.88 C 491.70 435.16 504.68 429.38 518.21 425.42 C 525.66 423.31 532.03 418.78 538.30 414.39 C 526.22 415.57 516.09 407.78 507.13 400.82 C 505.59 399.94 504.05 396.92 506.87 396.73 C 514.82 400.82 521.96 406.67 530.64 409.28 C 536.88 411.12 544.12 410.43 549.44 406.50 C 554.23 403.29 559.34 400.60 564.58 398.21 C 565.01 388.31 564.10 378.37 562.07 368.68 C 561.55 365.75 559.80 363.27 557.94 361.03 C 550.68 352.32 541.60 345.16 535.42 335.56 C 531.52 329.43 527.88 323.15 524.09 316.96 C 522.25 313.63 519.58 310.40 519.90 306.36 C 521.15 306.86 522.52 307.41 523.27 308.64 C 528.57 316.10 533.11 324.07 538.31 331.61 C 543.01 338.50 548.74 344.61 554.44 350.68 C 549.89 341.91 545.18 333.04 543.32 323.24 C 541.33 312.91 540.34 302.41 539.06 291.98 C 539.05 289.72 537.90 286.30 540.88 285.46 C 541.75 287.60 542.47 289.80 542.85 292.09 C 545.04 304.38 546.29 316.94 550.23 328.85 C 554.63 342.43 564.41 353.86 566.82 368.15 C 568.45 377.55 569.59 387.18 568.26 396.70 C 574.48 394.55 581.52 392.78 587.94 395.13 C 589.46 395.73 591.88 397.75 590.10 399.33 C 586.24 398.94 582.31 398.43 578.50 399.43 C 567.73 401.95 558.19 407.94 549.23 414.21 C 540.54 420.38 532.39 427.84 521.98 431.00 C 509.36 434.53 497.11 439.32 485.23 444.84 C 493.76 453.60 500.94 464.61 502.04 477.08 C 515.67 471.91 529.41 466.75 543.75 463.89 C 561.07 461.17 577.56 454.73 593.42 447.45 C 601.52 443.29 610.33 439.43 616.17 432.18 C 620.14 427.38 620.52 420.89 620.99 414.96 C 621.78 402.80 621.91 390.48 619.30 378.52 C 617.42 368.00 614.08 357.75 613.25 347.06 C 611.79 331.90 613.40 316.60 611.25 301.49 C 608.92 283.94 605.69 266.25 598.53 249.95 C 599.38 257.23 599.59 264.59 599.28 271.91 C 598.82 277.24 598.53 283.12 594.78 287.34 C 594.45 283.51 595.21 279.75 595.52 275.96 C 596.05 267.11 595.02 258.26 593.59 249.53 C 592.88 245.61 592.21 241.52 589.93 238.14 C 586.55 233.00 583.57 227.60 579.83 222.71 C 586.08 236.89 588.47 252.68 586.85 268.08 C 585.73 278.52 584.45 289.06 581.00 299.03 C 579.98 302.17 578.17 305.03 575.55 307.09 C 575.90 305.33 576.32 303.59 576.93 301.91 C 580.33 292.79 581.58 283.06 582.71 273.45 C 584.77 254.52 582.48 234.56 573.19 217.69 C 570.24 211.35 563.98 207.66 559.41 202.64 C 555.74 198.57 550.70 195.42 545.02 195.74 C 534.34 196.30 523.48 199.40 514.78 205.79 M 418.17 443.73 C 420.18 448.44 425.13 450.67 429.58 452.49 C 434.83 454.63 439.87 457.35 445.41 458.71 C 447.70 459.43 450.51 459.64 451.77 462.03 C 446.10 463.49 440.61 460.76 434.95 461.01 C 424.39 461.22 413.65 460.62 403.29 463.14 C 399.16 464.15 395.26 466.06 392.17 469.01 C 396.65 474.03 403.72 474.78 410.01 475.53 C 422.69 477.01 435.41 475.56 448.10 475.09 C 448.34 475.90 448.55 476.73 448.72 477.57 C 441.15 480.37 433.04 481.45 425.02 482.02 C 419.33 482.60 413.45 481.03 407.98 483.27 C 399.49 484.92 389.80 489.15 387.21 498.20 C 389.02 499.00 390.89 499.81 392.92 499.78 C 403.30 499.99 413.52 497.81 423.67 495.85 C 432.07 493.97 440.59 492.54 448.79 489.87 C 450.17 489.51 451.60 488.85 453.06 489.24 C 454.22 491.62 451.37 492.74 449.68 493.60 C 437.89 498.43 425.52 501.74 412.99 503.97 C 408.91 504.59 405.26 506.61 401.85 508.84 C 396.96 512.22 391.75 515.70 388.80 521.04 C 401.37 521.70 413.80 518.51 425.56 514.35 C 435.20 510.96 444.95 507.94 454.58 504.55 C 455.58 504.06 456.61 504.00 457.65 504.36 C 458.33 505.61 457.85 506.92 456.73 507.71 C 453.10 510.64 448.62 512.21 444.39 514.05 C 441.70 520.10 436.77 524.65 433.00 529.98 C 430.32 533.83 426.33 537.16 425.80 542.10 C 434.40 543.29 442.34 538.81 449.44 534.55 C 457.87 529.59 462.64 520.72 467.49 512.59 C 472.65 504.25 477.62 495.66 484.36 488.46 C 488.29 484.24 493.33 481.30 498.43 478.72 C 496.16 466.73 489.03 456.27 480.44 447.87 C 476.01 450.02 471.00 449.63 466.31 448.79 C 456.09 446.81 446.34 443.06 436.59 439.51 C 431.31 437.88 425.69 435.92 420.12 436.98 C 417.16 437.63 417.04 441.50 418.17 443.73 M 572.09 461.97 C 567.48 465.72 565.37 472.13 565.82 478.00 C 565.75 482.34 567.65 486.42 567.75 490.72 C 565.55 492.37 564.05 489.41 563.38 487.68 C 560.68 480.01 559.83 470.76 564.77 463.78 C 554.40 466.78 543.79 468.86 533.57 472.35 C 526.26 474.80 518.82 476.82 511.54 479.33 C 507.28 480.82 502.47 480.90 498.82 483.83 C 503.07 485.12 507.36 486.29 511.73 487.11 C 538.16 490.44 563.99 497.82 588.82 507.33 C 585.22 504.11 580.74 501.80 577.81 497.89 C 577.79 497.37 577.76 496.33 577.75 495.81 C 580.55 495.20 582.74 497.71 585.05 498.91 C 593.56 504.46 603.40 508.22 610.59 515.62 C 613.17 508.26 615.80 500.79 616.34 492.94 C 616.85 485.27 616.42 477.53 614.87 469.99 C 613.30 461.80 610.47 453.88 609.30 445.61 C 597.83 452.96 585.04 457.93 572.09 461.97 M 373.10 637.05 C 365.39 648.79 356.32 660.61 354.34 674.91 C 354.14 684.98 358.00 694.97 364.30 702.76 C 367.17 704.58 370.68 704.92 373.98 705.37 C 385.56 706.41 397.28 705.86 408.74 703.92 C 414.02 702.87 419.46 701.79 424.10 698.91 C 424.36 687.92 426.44 675.41 435.68 668.25 C 428.43 663.29 421.47 657.92 414.95 652.04 C 404.38 642.20 393.73 631.99 386.47 619.36 C 382.43 625.57 377.00 630.73 373.10 637.05 M 455.05 674.12 C 453.62 675.24 452.12 677.10 450.08 676.22 C 446.01 674.99 442.49 672.49 438.85 670.37 C 434.98 674.79 432.13 680.21 431.24 686.05 C 433.15 694.09 443.39 698.49 450.63 694.53 C 452.75 683.68 459.72 674.15 468.96 668.22 C 467.90 666.93 466.86 665.64 465.84 664.35 C 462.36 667.72 458.65 670.87 455.05 674.12 M 456.22 898.45 C 455.53 906.48 453.67 914.31 451.58 922.07 C 453.60 925.25 454.74 929.08 457.15 931.95 C 464.90 934.90 471.47 940.54 479.72 942.23 C 484.95 943.32 491.06 943.04 495.11 939.12 C 499.89 934.93 498.54 927.63 496.51 922.38 C 493.95 914.80 488.07 909.20 483.97 902.53 C 474.61 902.32 464.82 902.83 456.22 898.45 M 392.02 932.03 C 383.36 936.33 374.47 940.27 365.25 943.25 C 355.56 946.34 345.41 948.09 336.05 952.17 C 329.87 954.84 324.32 960.80 324.97 967.94 C 326.11 971.82 330.05 974.09 333.68 975.28 C 343.14 978.21 353.17 978.29 362.98 978.21 C 378.24 978.34 393.40 976.36 408.53 974.69 C 420.28 973.17 432.46 971.14 442.68 964.76 C 448.45 961.32 452.26 955.26 454.06 948.91 C 455.79 940.55 451.37 932.76 448.41 925.24 C 440.67 926.69 432.75 926.26 424.94 925.76 C 418.04 925.13 411.02 923.91 404.83 920.67 C 400.92 924.82 397.27 929.49 392.02 932.03 Z" />
</g>
<g id="#f0b58bff">
<path fill="#f0b58b" opacity="1.00" d=" M 432.62 104.82 C 434.03 104.21 435.43 103.61 436.85 103.02 C 442.14 106.02 447.04 109.64 452.30 112.66 C 458.43 116.09 465.69 116.31 472.46 115.13 C 478.59 113.81 483.23 119.17 486.16 123.79 C 491.16 132.85 490.40 143.59 491.29 153.58 C 493.01 152.51 494.74 151.18 495.15 149.07 C 497.08 143.19 496.92 135.57 502.96 132.09 C 507.66 128.40 513.80 132.62 515.75 137.31 C 521.59 149.89 522.75 164.99 532.60 175.50 C 534.15 177.17 537.44 180.18 539.11 177.08 C 539.35 172.22 538.79 167.32 539.37 162.46 C 541.55 165.52 544.09 168.35 547.32 170.33 C 548.79 177.64 549.97 185.10 552.94 191.99 C 549.36 191.09 545.66 190.46 541.96 190.90 C 528.54 192.49 514.78 197.27 505.47 207.48 C 501.39 211.63 498.19 216.52 494.43 220.95 C 495.63 212.97 496.51 204.77 495.01 196.76 C 494.56 194.46 493.58 191.49 490.86 191.16 C 486.97 190.87 483.53 193.14 479.90 194.16 C 470.43 197.66 459.79 196.96 450.40 193.57 C 445.20 190.96 441.32 186.01 439.43 180.57 C 436.88 173.80 436.57 166.00 431.63 160.32 C 429.09 157.67 426.51 155.04 424.65 151.85 C 433.90 144.93 433.66 132.13 433.50 121.71 C 435.58 122.30 437.68 122.88 439.77 123.45 C 439.97 125.10 439.61 126.99 440.66 128.40 C 442.07 129.71 444.16 129.53 445.95 129.72 C 450.91 129.79 455.91 130.11 460.86 129.61 C 462.36 129.50 463.11 128.01 464.12 127.10 C 459.39 119.47 451.02 113.91 441.98 113.31 C 438.83 113.04 435.82 114.18 433.17 115.77 C 432.88 112.13 432.68 108.48 432.62 104.82 Z" />
<path fill="#f0b58b" opacity="1.00" d=" M 373.10 637.05 C 377.00 630.73 382.43 625.57 386.47 619.36 C 393.73 631.99 404.38 642.20 414.95 652.04 C 421.47 657.92 428.43 663.29 435.68 668.25 C 426.44 675.41 424.36 687.92 424.10 698.91 C 419.46 701.79 414.02 702.87 408.74 703.92 C 397.28 705.86 385.56 706.41 373.98 705.37 C 370.68 704.92 367.17 704.58 364.30 702.76 C 358.00 694.97 354.14 684.98 354.34 674.91 C 356.32 660.61 365.39 648.79 373.10 637.05 Z" />
<path fill="#f0b58b" opacity="1.00" d=" M 455.05 674.12 C 458.65 670.87 462.36 667.72 465.84 664.35 C 466.86 665.64 467.90 666.93 468.96 668.22 C 459.72 674.15 452.75 683.68 450.63 694.53 C 443.39 698.49 433.15 694.09 431.24 686.05 C 432.13 680.21 434.98 674.79 438.85 670.37 C 442.49 672.49 446.01 674.99 450.08 676.22 C 452.12 677.10 453.62 675.24 455.05 674.12 Z" />
</g>
<g id="#f35e11ff">
<path fill="var(--shirt-color, grey)" opacity="1.00" d=" M 514.78 205.79 C 523.48 199.40 534.34 196.30 545.02 195.74 C 550.70 195.42 555.74 198.57 559.41 202.64 C 563.98 207.66 570.24 211.35 573.19 217.69 C 582.48 234.56 584.77 254.52 582.71 273.45 C 581.58 283.06 580.33 292.79 576.93 301.91 C 576.32 303.59 575.90 305.33 575.55 307.09 C 578.17 305.03 579.98 302.17 581.00 299.03 C 584.45 289.06 585.73 278.52 586.85 268.08 C 588.47 252.68 586.08 236.89 579.83 222.71 C 583.57 227.60 586.55 233.00 589.93 238.14 C 592.21 241.52 592.88 245.61 593.59 249.53 C 595.02 258.26 596.05 267.11 595.52 275.96 C 595.21 279.75 594.45 283.51 594.78 287.34 C 598.53 283.12 598.82 277.24 599.28 271.91 C 599.59 264.59 599.38 257.23 598.53 249.95 C 605.69 266.25 608.92 283.94 611.25 301.49 C 613.40 316.60 611.79 331.90 613.25 347.06 C 614.08 357.75 617.42 368.00 619.30 378.52 C 621.91 390.48 621.78 402.80 620.99 414.96 C 620.52 420.89 620.14 427.38 616.17 432.18 C 610.33 439.43 601.52 443.29 593.42 447.45 C 577.56 454.73 561.07 461.17 543.75 463.89 C 529.41 466.75 515.67 471.91 502.04 477.08 C 500.94 464.61 493.76 453.60 485.23 444.84 C 497.11 439.32 509.36 434.53 521.98 431.00 C 532.39 427.84 540.54 420.38 549.23 414.21 C 558.19 407.94 567.73 401.95 578.50 399.43 C 582.31 398.43 586.24 398.94 590.10 399.33 C 591.88 397.75 589.46 395.73 587.94 395.13 C 581.52 392.78 574.48 394.55 568.26 396.70 C 569.59 387.18 568.45 377.55 566.82 368.15 C 564.41 353.86 554.63 342.43 550.23 328.85 C 546.29 316.94 545.04 304.38 542.85 292.09 C 542.47 289.80 541.75 287.60 540.88 285.46 C 537.90 286.30 539.05 289.72 539.06 291.98 C 540.34 302.41 541.33 312.91 543.32 323.24 C 545.18 333.04 549.89 341.91 554.44 350.68 C 548.74 344.61 543.01 338.50 538.31 331.61 C 533.11 324.07 528.57 316.10 523.27 308.64 C 522.52 307.41 521.15 306.86 519.90 306.36 C 519.58 310.40 522.25 313.63 524.09 316.96 C 527.88 323.15 531.52 329.43 535.42 335.56 C 541.60 345.16 550.68 352.32 557.94 361.03 C 559.80 363.27 561.55 365.75 562.07 368.68 C 564.10 378.37 565.01 388.31 564.58 398.21 C 559.34 400.60 554.23 403.29 549.44 406.50 C 544.12 410.43 536.88 411.12 530.64 409.28 C 521.96 406.67 514.82 400.82 506.87 396.73 C 504.05 396.92 505.59 399.94 507.13 400.82 C 516.09 407.78 526.22 415.57 538.30 414.39 C 532.03 418.78 525.66 423.31 518.21 425.42 C 504.68 429.38 491.70 435.16 479.89 442.88 C 476.37 445.74 471.69 444.28 467.63 443.89 C 468.14 424.61 467.45 405.30 468.39 386.03 C 469.63 363.90 468.92 341.73 468.18 319.59 C 472.98 335.15 480.57 349.63 487.88 364.12 C 491.29 370.62 494.65 377.18 498.79 383.26 C 500.09 385.31 501.98 386.94 504.35 387.64 C 503.43 382.60 500.28 378.44 498.07 373.94 C 490.30 358.81 482.59 343.63 476.21 327.86 C 471.85 317.19 469.57 305.85 467.69 294.53 C 465.39 280.29 463.23 265.16 468.13 251.23 C 469.95 245.36 474.12 240.55 478.92 236.88 C 481.76 235.66 485.05 235.53 487.62 233.64 C 498.69 226.42 504.11 213.46 514.78 205.79 Z" />
<path fill="var(--shirt-color, grey)" opacity="1.00" d=" M 572.09 461.97 C 585.04 457.93 597.83 452.96 609.30 445.61 C 610.47 453.88 613.30 461.80 614.87 469.99 C 616.42 477.53 616.85 485.27 616.34 492.94 C 615.80 500.79 613.17 508.26 610.59 515.62 C 603.40 508.22 593.56 504.46 585.05 498.91 C 582.74 497.71 580.55 495.20 577.75 495.81 C 577.76 496.33 577.79 497.37 577.81 497.89 C 580.74 501.80 585.22 504.11 588.82 507.33 C 563.99 497.82 538.16 490.44 511.73 487.11 C 507.36 486.29 503.07 485.12 498.82 483.83 C 502.47 480.90 507.28 480.82 511.54 479.33 C 518.82 476.82 526.26 474.80 533.57 472.35 C 543.79 468.86 554.40 466.78 564.77 463.78 C 559.83 470.76 560.68 480.01 563.38 487.68 C 564.05 489.41 565.55 492.37 567.75 490.72 C 567.65 486.42 565.75 482.34 565.82 478.00 C 565.37 472.13 567.48 465.72 572.09 461.97 Z" />
</g>
<g id="#4d4d4dff">
<path fill="#4d4d4d" opacity="1.00" d=" M 418.17 443.73 C 417.04 441.50 417.16 437.63 420.12 436.98 C 425.69 435.92 431.31 437.88 436.59 439.51 C 446.34 443.06 456.09 446.81 466.31 448.79 C 471.00 449.63 476.01 450.02 480.44 447.87 C 489.03 456.27 496.16 466.73 498.43 478.72 C 493.33 481.30 488.29 484.24 484.36 488.46 C 477.62 495.66 472.65 504.25 467.49 512.59 C 462.64 520.72 457.87 529.59 449.44 534.55 C 442.34 538.81 434.40 543.29 425.80 542.10 C 426.33 537.16 430.32 533.83 433.00 529.98 C 436.77 524.65 441.70 520.10 444.39 514.05 C 448.62 512.21 453.10 510.64 456.73 507.71 C 457.85 506.92 458.33 505.61 457.65 504.36 C 456.61 504.00 455.58 504.06 454.58 504.55 C 444.95 507.94 435.20 510.96 425.56 514.35 C 413.80 518.51 401.37 521.70 388.80 521.04 C 391.75 515.70 396.96 512.22 401.85 508.84 C 405.26 506.61 408.91 504.59 412.99 503.97 C 425.52 501.74 437.89 498.43 449.68 493.60 C 451.37 492.74 454.22 491.62 453.06 489.24 C 451.60 488.85 450.17 489.51 448.79 489.87 C 440.59 492.54 432.07 493.97 423.67 495.85 C 413.52 497.81 403.30 499.99 392.92 499.78 C 390.89 499.81 389.02 499.00 387.21 498.20 C 389.80 489.15 399.49 484.92 407.98 483.27 C 413.45 481.03 419.33 482.60 425.02 482.02 C 433.04 481.45 441.15 480.37 448.72 477.57 C 448.55 476.73 448.34 475.90 448.10 475.09 C 435.41 475.56 422.69 477.01 410.01 475.53 C 403.72 474.78 396.65 474.03 392.17 469.01 C 395.26 466.06 399.16 464.15 403.29 463.14 C 413.65 460.62 424.39 461.22 434.95 461.01 C 440.61 460.76 446.10 463.49 451.77 462.03 C 450.51 459.64 447.70 459.43 445.41 458.71 C 439.87 457.35 434.83 454.63 429.58 452.49 C 425.13 450.67 420.18 448.44 418.17 443.73 Z" />
<path fill="#4d4d4d" opacity="1.00" d=" M 456.22 898.45 C 464.82 902.83 474.61 902.32 483.97 902.53 C 488.07 909.20 493.95 914.80 496.51 922.38 C 498.54 927.63 499.89 934.93 495.11 939.12 C 491.06 943.04 484.95 943.32 479.72 942.23 C 471.47 940.54 464.90 934.90 457.15 931.95 C 454.74 929.08 453.60 925.25 451.58 922.07 C 453.67 914.31 455.53 906.48 456.22 898.45 Z" />
<path fill="#4d4d4d" opacity="1.00" d=" M 392.02 932.03 C 397.27 929.49 400.92 924.82 404.83 920.67 C 411.02 923.91 418.04 925.13 424.94 925.76 C 432.75 926.26 440.67 926.69 448.41 925.24 C 451.37 932.76 455.79 940.55 454.06 948.91 C 452.26 955.26 448.45 961.32 442.68 964.76 C 432.46 971.14 420.28 973.17 408.53 974.69 C 393.40 976.36 378.24 978.34 362.98 978.21 C 353.17 978.29 343.14 978.21 333.68 975.28 C 330.05 974.09 326.11 971.82 324.97 967.94 C 324.32 960.80 329.87 954.84 336.05 952.17 C 345.41 948.09 355.56 946.34 365.25 943.25 C 374.47 940.27 383.36 936.33 392.02 932.03 Z" />
</g>
</svg>
