<?xml version="1.0" encoding="UTF-8" ?>
<!DOCTYPE svg PUBLIC "-//W3C//DTD SVG 1.1//EN" "http://www.w3.org/Graphics/SVG/1.1/DTD/svg11.dtd">
<svg width="1000pt" height="1000pt" viewBox="0 0 1000 1000" version="1.1" xmlns="http://www.w3.org/2000/svg">
<g id="#020202ff">
<path fill="#020202" opacity="1.00" d=" M 335.52 66.59 C 345.18 62.06 355.11 57.46 365.84 56.28 C 376.71 55.09 387.76 56.50 398.20 59.67 C 407.92 61.67 417.33 64.87 426.55 68.48 C 429.27 69.64 432.37 71.05 433.48 74.02 C 433.51 75.70 432.46 77.10 431.82 78.57 C 437.55 82.28 443.33 86.04 448.05 91.04 C 455.40 98.70 460.60 108.08 465.81 117.25 C 466.64 119.22 468.79 122.17 465.94 123.47 C 463.61 122.07 461.92 119.88 460.06 117.96 C 463.41 126.33 466.75 134.86 467.51 143.93 C 467.95 150.14 469.67 156.87 466.83 162.75 C 464.60 167.48 458.62 169.06 456.86 174.10 C 454.29 180.62 454.74 187.78 454.38 194.66 C 459.13 200.17 463.96 205.67 469.53 210.38 C 473.80 214.19 479.75 214.79 484.73 217.31 C 507.10 227.51 528.57 239.57 550.64 250.40 C 567.52 259.39 584.14 268.88 600.93 278.05 C 616.56 286.75 631.43 296.71 646.10 306.92 C 658.41 315.81 670.55 325.00 681.70 335.33 C 689.79 342.74 694.94 352.62 699.49 362.44 C 702.23 368.29 703.84 374.84 708.23 379.78 C 712.93 385.08 718.44 389.90 721.61 396.37 C 723.79 401.20 725.61 406.22 726.77 411.40 C 732.94 433.98 734.94 457.43 736.33 480.71 C 737.16 499.83 736.22 519.09 732.45 537.88 C 728.99 556.96 725.72 576.28 718.37 594.34 C 713.89 605.19 706.43 614.62 703.00 625.93 C 700.40 634.76 698.89 643.86 697.44 652.93 C 697.35 654.33 696.42 655.39 694.99 655.49 C 683.08 657.59 670.51 659.07 658.76 655.38 C 654.44 654.21 650.38 652.17 645.97 651.39 C 637.92 653.21 630.39 656.76 622.82 659.95 C 618.87 661.76 614.90 659.18 611.18 658.01 C 607.60 666.60 606.52 676.44 609.86 685.30 C 613.07 693.57 614.66 702.38 615.28 711.22 C 616.50 726.79 617.89 742.36 618.85 757.95 C 619.64 777.93 619.64 797.94 620.11 817.93 C 620.29 832.64 618.82 847.30 618.01 861.98 C 617.42 871.60 615.99 881.13 614.81 890.68 C 624.88 898.80 630.71 910.80 635.07 922.71 C 637.86 930.47 640.13 939.12 637.42 947.24 C 636.02 951.79 632.05 954.75 628.26 957.28 C 625.28 959.37 621.45 958.99 618.00 959.17 C 600.99 959.34 584.09 961.30 567.12 962.30 C 551.48 963.45 535.78 963.26 520.13 964.28 C 507.41 964.70 494.70 965.61 481.97 965.58 C 471.89 965.71 461.88 964.29 451.83 963.80 C 448.38 963.70 444.81 961.76 443.72 958.34 C 442.70 955.79 443.94 953.17 444.81 950.79 C 440.52 949.54 436.19 946.96 434.79 942.47 C 433.14 936.52 435.49 930.02 439.51 925.55 C 445.12 919.43 452.75 915.78 459.97 911.94 C 471.57 905.84 483.81 901.10 495.73 895.69 C 508.43 889.98 519.73 881.73 530.98 873.64 C 529.50 868.68 528.76 863.56 527.77 858.50 C 525.05 844.05 521.38 829.74 520.18 815.05 C 518.63 797.09 517.14 779.12 516.57 761.10 C 515.97 747.71 516.51 734.24 514.47 720.95 C 511.66 702.89 507.97 684.74 508.82 666.37 C 505.58 669.69 500.29 671.36 496.05 668.91 C 491.93 666.86 490.07 662.37 489.30 658.08 C 486.89 660.61 483.99 663.82 480.10 663.09 C 475.12 661.43 472.56 655.94 472.49 650.97 C 472.16 639.78 476.24 629.13 479.70 618.67 C 482.09 611.12 485.40 603.83 486.81 595.99 C 488.09 589.03 487.07 581.95 486.97 574.95 C 486.75 570.30 487.29 565.66 487.13 561.02 C 486.73 552.64 487.88 544.29 488.77 535.98 C 483.33 529.42 476.85 522.80 475.77 513.93 C 474.32 507.21 477.12 500.62 477.00 493.94 C 474.40 486.61 466.93 482.67 462.78 476.37 C 457.74 468.93 456.65 459.81 453.65 451.52 C 446.91 433.28 438.65 415.59 433.02 396.94 C 428.61 382.82 424.64 368.47 422.70 353.78 C 421.96 348.96 422.56 343.65 419.57 339.48 C 413.15 329.58 408.04 318.73 405.51 307.16 C 403.66 297.90 403.97 288.40 404.61 279.03 C 391.78 285.34 376.85 287.91 362.76 285.13 C 357.45 284.20 351.79 283.14 347.74 279.29 C 337.41 269.60 330.85 256.84 322.08 245.87 C 319.10 241.28 311.76 241.96 309.83 236.36 C 307.05 230.97 310.10 225.35 311.19 220.01 C 309.39 214.44 305.94 209.56 304.01 204.02 C 299.77 194.85 296.02 185.34 295.20 175.17 C 293.68 175.43 291.96 176.72 290.57 175.47 C 289.72 174.51 289.32 173.27 288.98 172.07 C 285.30 157.72 284.77 142.51 288.04 128.03 C 289.05 122.27 291.81 117.07 295.37 112.49 C 304.80 94.79 320.34 80.59 338.49 72.16 C 336.12 72.05 333.68 72.29 331.42 71.50 C 330.29 68.72 333.66 67.61 335.52 66.59 M 330.95 163.42 C 326.63 164.23 324.25 158.96 320.07 158.87 C 311.90 157.58 305.60 164.10 299.80 168.79 C 301.45 176.46 303.36 184.08 305.51 191.63 C 314.66 183.22 327.85 180.12 339.99 181.44 C 343.68 182.14 348.53 183.00 350.06 186.94 C 348.91 190.72 346.01 193.59 343.41 196.44 C 339.44 200.50 335.69 204.87 331.00 208.13 C 330.15 208.83 328.73 209.17 327.90 208.27 C 325.29 205.99 323.37 203.05 321.25 200.33 C 317.09 200.26 312.93 200.25 308.77 200.05 C 311.00 205.97 314.08 211.53 316.35 217.43 C 318.13 221.47 315.05 225.14 314.22 228.96 C 313.86 231.20 314.03 234.34 316.51 235.32 C 320.79 237.54 326.00 238.90 328.40 243.52 C 334.66 254.58 341.37 265.56 350.43 274.59 C 352.41 276.60 354.96 278.01 357.75 278.55 C 363.42 279.79 369.21 280.72 375.03 280.80 C 387.79 279.96 401.31 276.91 410.98 268.02 C 415.49 264.10 418.40 258.01 424.33 256.03 C 421.35 263.89 415.79 270.61 409.49 276.08 C 409.57 280.13 408.39 284.66 410.85 288.25 C 412.53 291.10 415.52 293.71 419.03 293.46 C 421.60 293.02 423.75 291.39 425.75 289.81 C 431.82 284.78 436.27 278.18 440.79 271.82 C 447.28 262.65 452.70 252.78 457.75 242.76 C 462.26 234.21 466.60 225.55 470.14 216.54 C 463.39 212.71 457.93 207.07 452.89 201.26 C 451.67 205.16 450.75 209.23 448.83 212.87 C 448.10 214.34 446.50 215.00 444.93 214.56 C 442.74 211.84 442.22 208.25 440.85 205.12 C 438.40 199.29 436.21 192.91 431.13 188.81 C 427.49 185.56 420.45 186.92 418.84 191.70 C 416.97 196.66 418.27 202.09 417.13 207.17 C 413.83 210.43 411.77 204.76 411.32 202.08 C 409.70 195.28 409.68 187.95 406.31 181.68 C 402.61 175.76 392.93 175.34 388.27 180.32 C 387.04 181.40 385.82 182.90 384.00 182.77 C 377.54 182.96 372.01 178.72 367.78 174.26 C 362.85 169.18 360.34 162.39 355.88 156.97 C 354.01 154.64 350.97 153.18 347.96 153.76 C 341.29 155.00 337.23 161.35 330.95 163.42 M 476.66 218.85 C 476.49 225.60 476.80 232.40 475.60 239.08 C 474.33 246.30 472.04 253.31 469.13 260.03 C 467.26 264.42 464.55 268.39 462.78 272.83 C 458.54 284.40 457.96 296.87 455.34 308.81 C 452.60 304.37 453.57 298.99 453.91 294.07 C 454.72 287.06 455.23 279.93 457.36 273.15 C 458.68 268.85 461.10 265.03 463.17 261.07 C 468.65 250.38 472.32 238.64 472.81 226.58 C 464.43 245.16 455.25 263.57 443.07 280.00 C 437.53 287.35 431.57 295.31 422.71 298.78 C 417.90 300.74 412.88 298.27 409.17 295.23 C 410.57 309.01 415.94 322.11 423.25 333.78 C 424.97 336.67 426.97 339.55 427.59 342.93 C 428.95 368.02 436.81 392.19 445.29 415.66 C 448.31 405.99 451.87 396.44 453.80 386.47 C 455.83 375.07 454.26 363.49 453.24 352.08 C 452.55 343.96 451.47 335.62 453.60 327.61 C 455.45 331.84 455.38 336.52 455.91 341.02 C 457.27 353.96 459.85 366.86 459.30 379.92 C 458.58 394.92 451.95 408.67 448.43 423.06 C 451.70 431.55 455.28 439.93 458.52 448.43 C 461.13 455.15 462.14 462.38 465.02 469.01 C 468.74 478.11 479.30 482.42 482.26 491.98 C 483.49 499.06 479.39 505.96 480.90 513.07 C 481.97 521.50 488.68 527.35 493.69 533.63 C 491.20 526.23 488.93 518.29 490.74 510.46 C 492.76 501.68 497.16 493.57 498.24 484.55 C 499.36 478.83 498.12 473.09 497.59 467.39 C 503.41 474.19 501.87 483.83 500.39 491.91 C 499.03 499.43 495.60 506.44 494.67 514.04 C 493.78 522.57 497.22 530.65 498.92 538.85 C 499.65 543.04 502.24 546.63 502.87 550.85 C 503.93 557.44 502.06 564.54 505.16 570.77 C 507.22 574.80 509.43 579.12 513.22 581.79 C 517.98 584.89 523.85 583.12 528.94 581.94 C 535.01 580.14 541.75 579.00 546.50 574.45 C 550.95 570.26 555.62 566.30 559.91 561.94 C 563.56 558.28 563.73 552.80 564.11 547.97 C 564.79 529.92 562.21 511.95 559.42 494.17 C 555.25 468.61 552.19 442.88 549.64 417.11 C 548.86 407.76 548.10 398.25 549.97 388.98 C 551.25 382.74 552.54 376.45 552.33 370.05 C 552.00 358.85 549.96 347.78 547.45 336.89 C 546.48 332.63 545.25 328.41 544.81 324.05 C 549.48 326.10 549.63 331.81 551.12 336.02 C 553.82 347.58 557.70 359.06 557.90 371.04 C 558.35 382.21 553.90 392.92 554.74 404.12 C 564.63 386.34 570.97 366.44 571.81 346.04 C 572.02 335.88 570.59 325.74 568.40 315.83 C 567.98 313.88 567.57 311.91 567.61 309.90 C 569.32 308.96 570.25 310.91 570.88 312.08 C 573.05 317.36 574.17 323.00 575.50 328.53 C 579.42 345.37 576.34 362.91 571.36 379.17 C 568.35 388.83 563.58 397.80 558.17 406.31 C 556.64 408.93 554.66 411.68 555.37 414.90 C 557.35 435.50 559.47 456.09 562.46 476.57 C 569.65 470.28 579.60 469.39 587.59 464.58 C 593.20 460.64 596.65 454.49 601.52 449.77 C 593.31 450.22 584.76 450.14 577.10 446.80 C 571.98 444.51 566.98 441.84 562.47 438.51 C 560.96 437.58 560.61 435.72 560.01 434.23 C 565.14 435.45 569.45 438.65 574.26 440.70 C 582.51 444.67 591.85 445.72 600.91 445.42 C 603.47 445.17 606.37 445.26 608.42 443.46 C 613.88 439.03 619.40 434.68 625.04 430.49 C 615.27 428.57 605.75 424.99 597.36 419.60 C 595.03 418.29 593.64 415.94 593.36 413.32 C 597.69 415.84 601.90 418.64 606.63 420.42 C 613.26 422.97 619.89 425.90 626.98 426.91 C 629.48 427.51 631.43 425.60 633.35 424.33 C 641.40 418.40 650.59 414.13 660.19 411.35 C 664.54 410.44 668.10 406.48 668.52 402.05 C 669.52 395.31 668.18 388.50 666.15 382.08 C 663.73 374.46 659.51 367.54 657.37 359.82 C 654.97 352.22 656.79 343.97 659.93 336.87 C 660.66 334.70 662.62 333.50 664.68 332.82 C 662.63 339.64 659.63 346.72 661.20 353.99 C 662.97 361.18 666.89 367.57 669.68 374.38 C 674.05 385.15 676.55 397.75 671.38 408.70 C 680.49 407.07 689.71 405.96 698.94 405.21 C 705.84 405.26 712.86 405.96 719.59 403.92 C 716.91 395.60 710.16 389.77 704.22 383.77 C 699.61 379.14 697.44 372.87 695.10 366.94 C 690.66 356.74 685.51 346.45 677.09 338.93 C 666.35 329.19 654.75 320.44 643.04 311.91 C 629.22 302.28 615.35 292.67 600.66 284.39 C 583.07 274.55 565.49 264.69 547.69 255.23 C 523.81 243.50 500.71 230.23 476.66 218.85 M 492.81 541.04 C 492.14 547.08 491.76 553.16 490.85 559.17 C 493.30 559.38 495.74 559.69 498.19 559.98 C 498.58 553.23 496.74 546.55 492.81 541.04 M 560.05 569.07 C 555.04 573.74 550.71 579.41 544.36 582.36 C 538.19 585.19 531.63 587.15 525.04 588.70 C 521.00 589.73 516.82 589.32 512.80 588.51 C 514.40 606.99 506.62 624.63 506.81 643.02 C 506.99 646.96 507.09 651.25 509.28 654.68 C 510.97 656.22 513.27 656.84 515.30 657.85 C 516.11 655.27 516.78 652.60 518.24 650.29 C 518.64 650.32 519.44 650.37 519.84 650.40 C 520.99 658.11 518.32 666.26 521.23 673.79 C 523.18 678.11 529.46 679.12 532.83 675.86 C 532.48 668.15 528.10 659.47 533.08 652.45 C 536.75 659.70 534.87 668.30 538.20 675.70 C 539.60 679.20 542.37 684.14 546.92 682.71 C 551.19 681.92 552.83 677.35 553.43 673.58 C 554.39 669.52 552.43 665.66 551.46 661.82 C 550.18 656.93 548.95 652.00 548.51 646.96 C 548.23 645.21 548.86 643.53 549.97 642.21 C 552.54 643.62 553.15 646.62 553.79 649.23 C 555.71 658.03 557.09 667.27 561.94 675.04 C 563.31 677.40 566.12 679.37 568.88 677.95 C 574.14 675.60 577.31 668.50 574.68 663.15 C 571.76 655.34 570.22 647.06 569.67 638.75 C 570.88 639.71 572.53 640.44 572.96 642.10 C 577.43 653.41 579.20 666.25 587.12 675.89 C 589.18 673.70 591.25 671.19 591.23 668.00 C 592.03 654.16 588.07 640.66 584.54 627.43 C 580.51 615.33 578.18 602.75 576.46 590.13 C 574.87 580.28 572.97 570.05 567.15 561.71 C 564.89 564.26 562.54 566.74 560.05 569.07 M 491.75 588.93 C 491.86 598.40 488.40 607.35 485.29 616.14 C 482.17 625.66 478.47 635.09 477.16 645.09 C 476.26 650.22 477.06 655.75 480.98 659.49 C 487.87 655.42 488.99 646.87 493.90 641.15 C 494.39 641.36 495.35 641.78 495.84 641.99 C 495.43 646.74 492.34 651.06 493.19 655.96 C 493.65 659.79 495.72 664.45 500.05 664.94 C 503.40 665.46 505.32 662.34 507.14 660.12 C 505.03 657.38 502.99 654.42 502.50 650.92 C 500.72 640.19 502.77 629.33 504.99 618.83 C 507.36 608.43 509.30 597.92 510.32 587.29 C 503.49 581.36 500.07 572.51 497.98 563.93 C 495.85 563.80 493.73 563.66 491.61 563.54 C 490.76 572.00 491.64 580.47 491.75 588.93 M 595.88 653.72 C 596.44 660.04 597.59 666.63 595.63 672.82 C 594.36 676.88 590.53 680.87 585.96 680.16 C 582.04 679.20 580.12 675.24 578.19 672.09 C 576.85 677.39 572.81 682.44 567.01 682.82 C 562.18 683.26 558.74 679.21 556.58 675.42 C 555.90 679.82 553.97 684.66 549.37 686.17 C 545.67 688.03 541.51 686.96 538.36 684.58 C 538.49 692.77 538.54 700.99 539.85 709.11 C 547.13 712.30 555.21 712.83 563.06 712.71 C 573.89 712.34 584.76 710.69 594.97 707.00 C 599.27 705.33 603.74 703.40 606.81 699.82 C 608.65 697.94 607.59 695.25 607.00 693.09 C 605.40 688.43 603.40 683.86 602.79 678.93 C 601.60 671.19 603.51 663.38 606.46 656.26 C 602.97 655.26 599.44 654.41 595.88 653.72 M 511.74 661.47 C 512.52 674.34 513.91 687.19 516.42 699.85 C 521.87 702.41 528.33 702.68 533.80 700.01 C 534.28 692.90 534.50 685.77 535.01 678.66 C 531.02 681.45 525.49 682.92 521.25 679.75 C 515.33 676.31 515.82 668.64 515.39 662.73 C 514.16 662.30 512.95 661.88 511.74 661.47 M 528.01 883.02 C 517.21 891.38 505.39 898.45 492.78 903.71 C 478.69 909.58 464.60 915.65 451.48 923.50 C 445.94 926.89 440.06 931.92 440.08 938.99 C 439.90 944.17 446.44 946.47 450.66 945.21 C 455.16 942.92 459.37 940.04 464.11 938.23 C 491.51 926.85 520.23 917.70 545.09 901.08 C 550.28 897.35 555.62 893.81 561.30 890.86 C 552.51 886.32 545.70 878.49 536.15 875.38 C 533.60 878.09 530.96 880.74 528.01 883.02 M 552.01 901.99 C 534.39 915.44 513.76 924.06 493.36 932.32 C 482.87 936.66 472.06 940.21 461.70 944.85 C 456.82 947.25 451.64 949.96 448.56 954.62 C 447.20 956.68 449.20 959.13 451.40 959.26 C 475.47 962.40 499.77 960.18 523.92 959.22 C 538.58 958.32 553.29 958.47 567.95 957.57 C 582.81 957.01 597.58 955.07 612.46 954.66 C 617.51 954.34 623.27 955.05 627.34 951.36 C 633.42 947.04 633.54 938.56 631.97 931.98 C 628.50 919.42 622.84 907.23 614.05 897.49 C 613.12 901.86 612.75 906.52 610.43 910.44 C 608.31 913.84 603.73 912.84 600.43 912.37 C 587.59 909.55 576.08 902.17 566.77 893.05 C 561.45 895.32 556.60 898.49 552.01 901.99 Z" />
</g>
<g id="#f0b58bff">
<path fill="#f0b58b" opacity="1.00" d=" M 330.95 163.42 C 337.23 161.35 341.29 155.00 347.96 153.76 C 350.97 153.18 354.01 154.64 355.88 156.97 C 360.34 162.39 362.85 169.18 367.78 174.26 C 372.01 178.72 377.54 182.96 384.00 182.77 C 385.82 182.90 387.04 181.40 388.27 180.32 C 392.93 175.34 402.61 175.76 406.31 181.68 C 409.68 187.95 409.70 195.28 411.32 202.08 C 411.77 204.76 413.83 210.43 417.13 207.17 C 418.27 202.09 416.97 196.66 418.84 191.70 C 420.45 186.92 427.49 185.56 431.13 188.81 C 436.21 192.91 438.40 199.29 440.85 205.12 C 442.22 208.25 442.74 211.84 444.93 214.56 C 446.50 215.00 448.10 214.34 448.83 212.87 C 450.75 209.23 451.67 205.16 452.89 201.26 C 457.93 207.07 463.39 212.71 470.14 216.54 C 466.60 225.55 462.26 234.21 457.75 242.76 C 452.70 252.78 447.28 262.65 440.79 271.82 C 436.27 278.18 431.82 284.78 425.75 289.81 C 423.75 291.39 421.60 293.02 419.03 293.46 C 415.52 293.71 412.53 291.10 410.85 288.25 C 408.39 284.66 409.57 280.13 409.49 276.08 C 415.79 270.61 421.35 263.89 424.33 256.03 C 418.40 258.01 415.49 264.10 410.98 268.02 C 401.31 276.91 387.79 279.96 375.03 280.80 C 369.21 280.72 363.42 279.79 357.75 278.55 C 354.96 278.01 352.41 276.60 350.43 274.59 C 341.37 265.56 334.66 254.58 328.40 243.52 C 326.00 238.90 320.79 237.54 316.51 235.32 C 314.03 234.34 313.86 231.20 314.22 228.96 C 315.05 225.14 318.13 221.47 316.35 217.43 C 314.08 211.53 311.00 205.97 308.77 200.05 C 312.93 200.25 317.09 200.26 321.25 200.33 C 323.37 203.05 325.29 205.99 327.90 208.27 C 328.73 209.17 330.15 208.83 331.00 208.13 C 335.69 204.87 339.44 200.50 343.41 196.44 C 346.01 193.59 348.91 190.72 350.06 186.94 C 348.53 183.00 343.68 182.14 339.99 181.44 C 327.85 180.12 314.66 183.22 305.51 191.63 C 303.36 184.08 301.45 176.46 299.80 168.79 C 305.60 164.10 311.90 157.58 320.07 158.87 C 324.25 158.96 326.63 164.23 330.95 163.42 Z" />
<path fill="#f0b58b" opacity="1.00" d=" M 595.88 653.72 C 599.44 654.41 602.97 655.26 606.46 656.26 C 603.51 663.38 601.60 671.19 602.79 678.93 C 603.40 683.86 605.40 688.43 607.00 693.09 C 607.59 695.25 608.65 697.94 606.81 699.82 C 603.74 703.40 599.27 705.33 594.97 707.00 C 584.76 710.69 573.89 712.34 563.06 712.71 C 555.21 712.83 547.13 712.30 539.85 709.11 C 538.54 700.99 538.49 692.77 538.36 684.58 C 541.51 686.96 545.67 688.03 549.37 686.17 C 553.97 684.66 555.90 679.82 556.58 675.42 C 558.74 679.21 562.18 683.26 567.01 682.82 C 572.81 682.44 576.85 677.39 578.19 672.09 C 580.12 675.24 582.04 679.20 585.96 680.16 C 590.53 680.87 594.36 676.88 595.63 672.82 C 597.59 666.63 596.44 660.04 595.88 653.72 Z" />
<path fill="#f0b58b" opacity="1.00" d=" M 511.74 661.47 C 512.95 661.88 514.16 662.30 515.39 662.73 C 515.82 668.64 515.33 676.31 521.25 679.75 C 525.49 682.92 531.02 681.45 535.01 678.66 C 534.50 685.77 534.28 692.90 533.80 700.01 C 528.33 702.68 521.87 702.41 516.42 699.85 C 513.91 687.19 512.52 674.34 511.74 661.47 Z" />
</g>
<g id="#f35e11ff">
<path fill="var(--shirt-color, grey)" opacity="1.00" d=" M 476.66 218.85 C 500.71 230.23 523.81 243.50 547.69 255.23 C 565.49 264.69 583.07 274.55 600.66 284.39 C 615.35 292.67 629.22 302.28 643.04 311.91 C 654.75 320.44 666.35 329.19 677.09 338.93 C 685.51 346.45 690.66 356.74 695.10 366.94 C 697.44 372.87 699.61 379.14 704.22 383.77 C 710.16 389.77 716.91 395.60 719.59 403.92 C 712.86 405.96 705.84 405.26 698.94 405.21 C 689.71 405.96 680.49 407.07 671.38 408.70 C 676.55 397.75 674.05 385.15 669.68 374.38 C 666.89 367.57 662.97 361.18 661.20 353.99 C 659.63 346.72 662.63 339.64 664.68 332.82 C 662.62 333.50 660.66 334.70 659.93 336.87 C 656.79 343.97 654.97 352.22 657.37 359.82 C 659.51 367.54 663.73 374.46 666.15 382.08 C 668.18 388.50 669.52 395.31 668.52 402.05 C 668.10 406.48 664.54 410.44 660.19 411.35 C 650.59 414.13 641.40 418.40 633.35 424.33 C 631.43 425.60 629.48 427.51 626.98 426.91 C 619.89 425.90 613.26 422.97 606.63 420.42 C 601.90 418.64 597.69 415.84 593.36 413.32 C 593.64 415.94 595.03 418.29 597.36 419.60 C 605.75 424.99 615.27 428.57 625.04 430.49 C 619.40 434.68 613.88 439.03 608.42 443.46 C 606.37 445.26 603.47 445.17 600.91 445.42 C 591.85 445.72 582.51 444.67 574.26 440.70 C 569.45 438.65 565.14 435.45 560.01 434.23 C 560.61 435.72 560.96 437.58 562.47 438.51 C 566.98 441.84 571.98 444.51 577.10 446.80 C 584.76 450.14 593.31 450.22 601.52 449.77 C 596.65 454.49 593.20 460.64 587.59 464.58 C 579.60 469.39 569.65 470.28 562.46 476.57 C 559.47 456.09 557.35 435.50 555.37 414.90 C 554.66 411.68 556.64 408.93 558.17 406.31 C 563.58 397.80 568.35 388.83 571.36 379.17 C 576.34 362.91 579.42 345.37 575.50 328.53 C 574.17 323.00 573.05 317.36 570.88 312.08 C 570.25 310.91 569.32 308.96 567.61 309.90 C 567.57 311.91 567.98 313.88 568.40 315.83 C 570.59 325.74 572.02 335.88 571.81 346.04 C 570.97 366.44 564.63 386.34 554.74 404.12 C 553.90 392.92 558.35 382.21 557.90 371.04 C 557.70 359.06 553.82 347.58 551.12 336.02 C 549.63 331.81 549.48 326.10 544.81 324.05 C 545.25 328.41 546.48 332.63 547.45 336.89 C 549.96 347.78 552.00 358.85 552.33 370.05 C 552.54 376.45 551.25 382.74 549.97 388.98 C 548.10 398.25 548.86 407.76 549.64 417.11 C 552.19 442.88 555.25 468.61 559.42 494.17 C 562.21 511.95 564.79 529.92 564.11 547.97 C 563.73 552.80 563.56 558.28 559.91 561.94 C 555.62 566.30 550.95 570.26 546.50 574.45 C 541.75 579.00 535.01 580.14 528.94 581.94 C 523.85 583.12 517.98 584.89 513.22 581.79 C 509.43 579.12 507.22 574.80 505.16 570.77 C 502.06 564.54 503.93 557.44 502.87 550.85 C 502.24 546.63 499.65 543.04 498.92 538.85 C 497.22 530.65 493.78 522.57 494.67 514.04 C 495.60 506.44 499.03 499.43 500.39 491.91 C 501.87 483.83 503.41 474.19 497.59 467.39 C 498.12 473.09 499.36 478.83 498.24 484.55 C 497.16 493.57 492.76 501.68 490.74 510.46 C 488.93 518.29 491.20 526.23 493.69 533.63 C 488.68 527.35 481.97 521.50 480.90 513.07 C 479.39 505.96 483.49 499.06 482.26 491.98 C 479.30 482.42 468.74 478.11 465.02 469.01 C 462.14 462.38 461.13 455.15 458.52 448.43 C 455.28 439.93 451.70 431.55 448.43 423.06 C 451.95 408.67 458.58 394.92 459.30 379.92 C 459.85 366.86 457.27 353.96 455.91 341.02 C 455.38 336.52 455.45 331.84 453.60 327.61 C 451.47 335.62 452.55 343.96 453.24 352.08 C 454.26 363.49 455.83 375.07 453.80 386.47 C 451.87 396.44 448.31 405.99 445.29 415.66 C 436.81 392.19 428.95 368.02 427.59 342.93 C 426.97 339.55 424.97 336.67 423.25 333.78 C 415.94 322.11 410.57 309.01 409.17 295.23 C 412.88 298.27 417.90 300.74 422.71 298.78 C 431.57 295.31 437.53 287.35 443.07 280.00 C 455.25 263.57 464.43 245.16 472.81 226.58 C 472.32 238.64 468.65 250.38 463.17 261.07 C 461.10 265.03 458.68 268.85 457.36 273.15 C 455.23 279.93 454.72 287.06 453.91 294.07 C 453.57 298.99 452.60 304.37 455.34 308.81 C 457.96 296.87 458.54 284.40 462.78 272.83 C 464.55 268.39 467.26 264.42 469.13 260.03 C 472.04 253.31 474.33 246.30 475.60 239.08 C 476.80 232.40 476.49 225.60 476.66 218.85 Z" />
<path fill="var(--shirt-color, grey)" opacity="1.00" d=" M 492.81 541.04 C 496.74 546.55 498.58 553.23 498.19 559.98 C 495.74 559.69 493.30 559.38 490.85 559.17 C 491.76 553.16 492.14 547.08 492.81 541.04 Z" />
</g>
<g id="#4d4d4dff">
<path fill="#4d4d4d" opacity="1.00" d=" M 560.05 569.07 C 562.54 566.74 564.89 564.26 567.15 561.71 C 572.97 570.05 574.87 580.28 576.46 590.13 C 578.18 602.75 580.51 615.33 584.54 627.43 C 588.07 640.66 592.03 654.16 591.23 668.00 C 591.25 671.19 589.18 673.70 587.12 675.89 C 579.20 666.25 577.43 653.41 572.96 642.10 C 572.53 640.44 570.88 639.71 569.67 638.75 C 570.22 647.06 571.76 655.34 574.68 663.15 C 577.31 668.50 574.14 675.60 568.88 677.95 C 566.12 679.37 563.31 677.40 561.94 675.04 C 557.09 667.27 555.71 658.03 553.79 649.23 C 553.15 646.62 552.54 643.62 549.97 642.21 C 548.86 643.53 548.23 645.21 548.51 646.96 C 548.95 652.00 550.18 656.93 551.46 661.82 C 552.43 665.66 554.39 669.52 553.43 673.58 C 552.83 677.35 551.19 681.92 546.92 682.71 C 542.37 684.14 539.60 679.20 538.20 675.70 C 534.87 668.30 536.75 659.70 533.08 652.45 C 528.10 659.47 532.48 668.15 532.83 675.86 C 529.46 679.12 523.18 678.11 521.23 673.79 C 518.32 666.26 520.99 658.11 519.84 650.40 C 519.44 650.37 518.64 650.32 518.24 650.29 C 516.78 652.60 516.11 655.27 515.30 657.85 C 513.27 656.84 510.97 656.22 509.28 654.68 C 507.09 651.25 506.99 646.96 506.81 643.02 C 506.62 624.63 514.40 606.99 512.80 588.51 C 516.82 589.32 521.00 589.73 525.04 588.70 C 531.63 587.15 538.19 585.19 544.36 582.36 C 550.71 579.41 555.04 573.74 560.05 569.07 Z" />
<path fill="#4d4d4d" opacity="1.00" d=" M 491.75 588.93 C 491.64 580.47 490.76 572.00 491.61 563.54 C 493.73 563.66 495.85 563.80 497.98 563.93 C 500.07 572.51 503.49 581.36 510.32 587.29 C 509.30 597.92 507.36 608.43 504.99 618.83 C 502.77 629.33 500.72 640.19 502.50 650.92 C 502.99 654.42 505.03 657.38 507.14 660.12 C 505.32 662.34 503.40 665.46 500.05 664.94 C 495.72 664.45 493.65 659.79 493.19 655.96 C 492.34 651.06 495.43 646.74 495.84 641.99 C 495.35 641.78 494.39 641.36 493.90 641.15 C 488.99 646.87 487.87 655.42 480.98 659.49 C 477.06 655.75 476.26 650.22 477.16 645.09 C 478.47 635.09 482.17 625.66 485.29 616.14 C 488.40 607.35 491.86 598.40 491.75 588.93 Z" />
<path fill="#4d4d4d" opacity="1.00" d=" M 528.01 883.02 C 530.96 880.74 533.60 878.09 536.15 875.38 C 545.70 878.49 552.51 886.32 561.30 890.86 C 555.62 893.81 550.28 897.35 545.09 901.08 C 520.23 917.70 491.51 926.85 464.11 938.23 C 459.37 940.04 455.16 942.92 450.66 945.21 C 446.44 946.47 439.90 944.17 440.08 938.99 C 440.06 931.92 445.94 926.89 451.48 923.50 C 464.60 915.65 478.69 909.58 492.78 903.71 C 505.39 898.45 517.21 891.38 528.01 883.02 Z" />
<path fill="#4d4d4d" opacity="1.00" d=" M 552.01 901.99 C 556.60 898.49 561.45 895.32 566.77 893.05 C 576.08 902.17 587.59 909.55 600.43 912.37 C 603.73 912.84 608.31 913.84 610.43 910.44 C 612.75 906.52 613.12 901.86 614.05 897.49 C 622.84 907.23 628.50 919.42 631.97 931.98 C 633.54 938.56 633.42 947.04 627.34 951.36 C 623.27 955.05 617.51 954.34 612.46 954.66 C 597.58 955.07 582.81 957.01 567.95 957.57 C 553.29 958.47 538.58 958.32 523.92 959.22 C 499.77 960.18 475.47 962.40 451.40 959.26 C 449.20 959.13 447.20 956.68 448.56 954.62 C 451.64 949.96 456.82 947.25 461.70 944.85 C 472.06 940.21 482.87 936.66 493.36 932.32 C 513.76 924.06 534.39 915.44 552.01 901.99 Z" />
</g>
</svg>
