<svg xmlns="http://www.w3.org/2000/svg" viewBox="0 0 80 80" enable-background="new 0 0 80 80">
 <circle fill="#ddd" cx="40.1" cy="40" r="37.6"/>
 <path d="m11.2 62.1v-3.6l4.6-4.5c11.2-10.6 16.2-16.2 16.3-22.7 0-4.4-2.1-8.5-8.6-8.5-4 0-7.2 2-9.2 3.7l-1.9-4.2c3-2.5 7.3-4.4 12.3-4.4 9.3 0 13.3 6.4 13.3 12.6 0 8-5.8 14.5-15 23.4l-3.5 3.2v.1h19.5v4.9c0 0-27.8 0-27.8 0"/>
 <path d="m68.5 22.8h-16.6l-1.7 11.2c1-.1 1.9-.3 3.5-.3 3.3 0 6.7.7 9.4 2.3 3.4 1.9 6.2 5.7 6.2 11.2 0 8.5-6.8 14.9-16.2 14.9-4.8 0-8.8-1.3-10.8-2.7l1.5-4.5c1.8 1.1 5.4 2.4 9.3 2.4 5.6 0 10.3-3.6 10.3-9.4-.1-5.6-3.8-9.6-12.5-9.6-2.5 0-4.4.3-6 .5l2.8-20.9h20.8c0 0 0 4.9 0 4.9"/>
</svg>
