<svg xmlns="http://www.w3.org/2000/svg" viewBox="0 0 80 80" enable-background="new 0 0 80 80">
 <circle fill="#ddd" cx="40.1" cy="40" r="37.6"/>
 <path d="m11.2 62.1v-3.6l4.6-4.5c11.2-10.6 16.2-16.2 16.3-22.7 0-4.4-2.1-8.5-8.6-8.5-4 0-7.2 2-9.2 3.7l-1.9-4.2c3-2.5 7.3-4.4 12.3-4.4 9.3 0 13.3 6.4 13.3 12.6 0 8-5.8 14.5-15 23.4l-3.5 3.2v.1h19.5v4.9c0 0-27.8 0-27.8 0"/>
 <path d="m66.5 22.4c-1.2-.1-2.7 0-4.4.3-9.3 1.5-14.1 8.2-15.1 15.4h.2c2.1-2.7 5.7-5 10.5-5 7.7 0 13.1 5.6 13.1 14.1 0 8-5.4 15.3-14.5 15.3-9.3 0-15.4-7.2-15.4-18.5 0-8.6 3.1-15.3 7.4-19.6 3.6-3.5 8.4-5.8 13.9-6.4 1.7-.3 3.2-.3 4.3-.3 0 0 0 4.7 0 4.7m-1.7 25.1c0-6.2-3.5-10-9-10-3.5 0-6.8 2.2-8.4 5.4-.4.7-.7 1.5-.7 2.6.1 7.2 3.4 12.5 9.6 12.5 5.1-.1 8.5-4.3 8.5-10.5"/>
</svg>
