<svg xmlns="http://www.w3.org/2000/svg" viewBox="0 0 80 80" enable-background="new 0 0 80 80">
 <circle fill="#ddd" cx="40.1" cy="40" r="37.6"/>
 <path d="m26.4 61.8v-11.9h-20.2v-3.9l19.4-27.8h6.4v27.1h6.1v4.6h-6.1v11.9c0 0-5.6 0-5.6 0m0-16.5v-14.5c0-2.3.1-4.6.2-6.8h-.2c-1.3 2.5-2.4 4.4-3.6 6.4l-10.6 14.8v.1h14.2"/>
 <path fill="#010101" d="m70.5 39.6c0 14.6-5.5 22.6-15 22.6-8.4 0-14.2-7.8-14.3-22 0-14.4 6.2-22.3 15-22.3 9.1-.1 14.3 8 14.3 21.7m-23.4.6c0 11.2 3.5 17.5 8.8 17.5 6 0 8.9-6.9 8.9-17.9 0-10.6-2.7-17.5-8.8-17.5-5.2 0-8.9 6.2-8.9 17.9"/>
</svg>
