<svg xmlns="http://www.w3.org/2000/svg" viewBox="0 0 80 80" enable-background="new 0 0 80 80">
 <circle fill="#ddd" cx="40.1" cy="40" r="37.6"/>
 <path d="m36.8 22.8h-16.6l-1.7 11.2c1-.1 1.9-.3 3.5-.3 3.3 0 6.7.7 9.4 2.3 3.4 1.9 6.2 5.7 6.2 11.2 0 8.5-6.8 14.9-16.2 14.9-4.8 0-8.8-1.3-10.8-2.7l1.5-4.5c1.8 1.1 5.4 2.4 9.3 2.4 5.6 0 10.3-3.6 10.3-9.4-.1-5.6-3.8-9.6-12.5-9.6-2.5 0-4.4.3-6 .5l2.8-20.9h20.8v4.9"/>
 <path d="m60.1 61.8v-11.9h-20.2v-3.9l19.4-27.8h6.4v27.1h6.1v4.6h-6.1v11.9c0 0-5.6 0-5.6 0m0-16.5v-14.5c0-2.3.1-4.6.2-6.8h-.2c-1.3 2.5-2.4 4.4-3.6 6.4l-10.6 14.8v.1h14.2"/>
</svg>
