<svg xmlns="http://www.w3.org/2000/svg" viewBox="0 0 80 80" enable-background="new 0 0 80 80">
 <circle fill="#ddd" cx="40.1" cy="40" r="37.6"/>
 <path d="m34.8 22.4c-1.2-.1-2.7 0-4.4.3-9.2 1.5-14.1 8.3-15.1 15.5h.2c2.1-2.7 5.7-5 10.5-5 7.7 0 13.1 5.6 13.1 14.1 0 8-5.4 15.3-14.5 15.3-9.3 0-15.4-7.2-15.4-18.5 0-8.6 3.1-15.3 7.4-19.6 3.6-3.5 8.4-5.8 13.9-6.4 1.7-.3 3.2-.3 4.3-.3v4.6m-1.7 25.1c0-6.2-3.5-10-9-10-3.5 0-6.8 2.2-8.4 5.4-.4.7-.7 1.5-.7 2.6.1 7.2 3.4 12.5 9.6 12.5 5.1-.1 8.5-4.3 8.5-10.5"/>
 <path d="m68.5 22.8h-16.6l-1.7 11.2c1-.1 1.9-.3 3.5-.3 3.3 0 6.7.7 9.4 2.3 3.4 1.9 6.2 5.7 6.2 11.2 0 8.5-6.8 14.9-16.2 14.9-4.8 0-8.8-1.3-10.8-2.7l1.5-4.5c1.8 1.1 5.4 2.4 9.3 2.4 5.6 0 10.3-3.6 10.3-9.4-.1-5.6-3.8-9.6-12.5-9.6-2.5 0-4.4.3-6 .5l2.8-20.9h20.8c0 0 0 4.9 0 4.9"/>
</svg>
