<svg xmlns="http://www.w3.org/2000/svg" viewBox="0 0 51 51" enable-background="new 0 0 51 51" width="51" height="51">
 <g fill="none" stroke="#fff" stroke-miterlimit="10">
  <g stroke-width=".25">
   <line x1="15.8" y1="2.5" x2="6.4" y2="11.9"/>
   <line x1="18" y1="4.7" x2="8.6" y2="14.1"/>
   <line x1="20.2" y1="6.8" x2="10.8" y2="16.2"/>
   <line x1="22.5" y1="9.1" x2="13.1" y2="18.5"/>
   <line x1="24.5" y1="11.2" x2="15.1" y2="20.6"/>
   <line x1="26.7" y1="13.3" x2="17.3" y2="22.7"/>
   <line x1="28.8" y1="15.5" x2="19.4" y2="24.9"/>
   <line x1="31.2" y1="17.8" x2="21.8" y2="27.3"/>
   <line x1="33.2" y1="19.8" x2="23.8" y2="29.2"/>
   <line x1="35.3" y1="22" x2="25.9" y2="31.4"/>
   <line x1="37.7" y1="24.4" x2="28.3" y2="33.8"/>
   <line x1="39.9" y1="26.5" x2="30.5" y2="35.9"/>
   <line x1="41.9" y1="28.6" x2="32.5" y2="38"/>
   <line x1="44.1" y1="30.7" x2="34.7" y2="40.1"/>
   <line x1="46.4" y1="33" x2="37" y2="42.4"/>
   <line x1="48.5" y1="35.2" x2="39.1" y2="44.6"/>
   <line x1="44.2" y1="45.6" x2="5.3" y2="6.7"/>
   <line x1="45.3" y1="44.2" x2="7" y2="6"/>
   <line x1="43.4" y1="46.6" x2="4.7" y2="7.8"/>
   <line x1="46.2" y1="43.1" x2="8.2" y2="5.1"/>
   <line x1="47.1" y1="41.8" x2="9.2" y2="3.9"/>
   <line x1="48.1" y1="40.3" x2="10.7" y2="2.9"/>
   <line x1="48.8" y1="39" x2="11.9" y2="2.1"/>
   <line x1="50" y1="37.8" x2="13.6" y2="1.4"/>
  </g>
  <path stroke-width="2" d="m1.2 14l.7-3.8c.6-.6 1.8-.2 2.3.2l36.6 36.6c.5.5.8 1.7.4 2.4l-.2.2-4 .5"/>
  <polyline points="37,50.1 50.1,37 14,0.9 1.2,14 	"/>
  <path d="m14.3.9c0 0-7 4.5-12.4 9.3"/>
  <path d="m50.2 36.9c0 0-4 6.8-9.3 12.7"/>
 </g>
</svg>
