<svg xmlns="http://www.w3.org/2000/svg" viewBox="0 0 48 48" enable-background="new 0 0 48 48">
 <polygon fill="#994522" points="22.1,34.1 0,40.5 32.4,48 48,39.2 	"/>
 <polygon fill="#e36b25" points="22.1,33.5 0,39.9 32.4,47.4 47.8,38.6 	"/>
 <polygon fill="#e69965" points="21.8,44.1 32.6,46.5 42,41.1 	"/>
 <ellipse fill="#994522" cx="24.6" cy="39" rx="14.8" ry="1.7"/>
 <g fill="#f47821">
  <polygon points="21.4,2.6 27.4,2.6 39.4,38.6 9.8,38.6 	"/>
  <ellipse cx="24.6" cy="38.6" rx="14.8" ry="1.9"/>
 </g>
 <path fill="#c65628" d="m21.4 2.6l-11.6 36c0 0-.4 1 7.1 1.6 2.4.2 9.5.3 9.5.3l-1-37.9h-3.2c0 0-.8 0-.8 0"/>
 <polygon fill="#f3b387" points="26.4,3.1 37.4,34.1 32.9,34.8 	"/>
 <polygon fill="#af4525" points="24.4,2.6 20.9,40.5 13.1,40.1 22.8,2.6 	"/>
 <ellipse fill="#d76927" cx="24.4" cy="2.6" rx="3.1" ry=".6"/>
</svg>
